<svg version="1.1" id="图层_1" x="0px" y="0px" width="90.49px" height="121.529px" viewBox="0 0 90.49 121.529" enable-background="new 0 0 90.49 121.529" xml:space="preserve" xmlns="http://www.w3.org/2000/svg" xmlns:xlink="http://www.w3.org/1999/xlink" xmlns:xml="http://www.w3.org/XML/1998/namespace">
  <path fill="#050600" d="M86.37,77.189c0,0-8.157,6.534-23.876,9.072c-2.32-8.409-7.251-15.503-17.63-15.503
	c-9.083,0-13.864,6.646-16.354,14.399c-12.463-2.43-20.43-6.104-20.43-6.104s-1.655-0.229-3.372-1.652
	c2.57,11.441,5.671,19.36,5.671,19.36s1.562,1.143,4.563,2.601c1.667,4.751,8.324,19.419,27.498,21.445
	c21.862,2.312,32.708-15.888,34.153-22.27c2.504-1.144,3.872-1.964,3.872-1.964c2.856-6.563,4.804-13.125,6.085-19.47
	C86.491,77.138,86.431,77.167,86.37,77.189z M86.806,45.462c0,0,1.31-1.832,2.174-2.175c-0.752-6.497-1.763-12.958-2.484-15.782
	c-0.426-1.666-1.926-2.36-1.926-2.36s-6.12-11.11-20.69-16.899l-6.463-0.497c0,0,2.485-2.113-16.651-0.498L26.722,8.066
	C12.823,13.449,7.771,23.653,7.771,23.653c-2.051,0.746-2.982,2.981-2.982,2.981c-1.57,4.624-2.525,9.488-3.022,14.411
	c0.449,0.084,0.172,2.86,0.879,3.392C5.999,46.954,45.051,53.167,86.806,45.462z" class="color c1"/>
  <path fill="#898888" d="M46.915,114.618h-1.864V77.15h1.864V114.618z M53.625,81.065h-1.864v32.993h1.864V81.065z M40.577,80.878
	h-1.864v32.62h1.864V80.878z M58.658,87.961h-1.864v23.673h1.864V87.961z M35.357,86.284l-1.863,1.605v24.118h1.863V86.284z" class="color c2"/>
  <path fill="#848484" d="M64.126,8.121V4.143C57.847,0.981,51.366-0.022,45.61,0v55.531c10.614-0.036,18.641-1.619,18.641-1.619
	L64.126,8.121z" class="color c3"/>
  <path fill="#A5A5A4" d="M26.97,3.522v4.419l0.248,45.847c6.317,1.342,12.724,1.764,18.393,1.744V0
	C35.076,0.042,26.97,3.522,26.97,3.522z" class="color c4"/>
  <path fill="#898888" d="M90.224,43.288c-0.326-1.627-1.4-1.617-2.351-1.24c-0.865,0.345-1.627,0.991-1.627,0.991
	C44.491,50.744,6.838,44.437,3.482,41.92c-0.706-0.529-1.268-0.79-1.717-0.874c-1.684-0.316-1.763,1.868-1.763,1.868
	s-0.124,21.251,1.243,28.581c0.615,3.298,2.06,5.261,3.463,6.426c1.717,1.424,3.372,1.652,3.372,1.652s7.967,3.676,20.43,6.104
	c2.489-7.755,7.271-14.399,16.354-14.399c10.379,0,15.31,7.094,17.63,15.503c15.719-2.538,23.876-9.072,23.876-9.072
	c0.061-0.022,0.121-0.052,0.182-0.084c1.891-1.033,3.182-6.812,3.422-8.739C90.224,66.898,90.845,46.394,90.224,43.288z" class="color c2"/>
  <path fill="#FFFFFF" d="M67.192,97.184c-1.726,0.392-2.528,2.841-0.813,3.479c1.717,0.639,10.271-2.544,12.652-4.838
	c2.063-1.987,3.943-9.263,4.41-11.171c-0.646,2.173-3.604,7.485-5.266,9.401C76.382,96.125,68.917,96.793,67.192,97.184z" class="color c5"/>
  <path fill="#FFFFFF" d="M83.442,84.654c0.053-0.175,0.092-0.332,0.111-0.464C83.556,84.19,83.517,84.361,83.442,84.654z" class="color c5"/>
  <path fill="#FFFFFF" d="M24.891,96.998c-1.725-0.391-9.189-1.059-10.986-3.129c-1.662-1.916-4.62-7.228-5.265-9.4
	c0.466,1.908,2.348,9.184,4.41,11.172c2.38,2.293,10.937,5.476,12.652,4.837C27.42,99.839,26.615,97.39,24.891,96.998z" class="color c5"/>
  <path fill="#FFFFFF" d="M8.64,84.468c-0.071-0.295-0.11-0.464-0.11-0.464C8.549,84.135,8.588,84.292,8.64,84.468z" class="color c5"/>
  <path fill="#FFFFFF" d="M32.3,114.603c14.699,10.51,28.764-0.204,28.764-0.204C44.861,122.613,32.3,114.603,32.3,114.603z" class="color c5"/>
  <path fill="#FFFFFF" d="M3.39,40.29c0,0,2.051,1.398,2.517,1.305c0.466-0.093,0.466-11.464,1.025-13.421s0.745-2.144,0.745-2.144
	S5.533,22.768,3.39,40.29z" class="color c5"/>
  <path fill="#FFFFFF" d="M25.013,11.397c0.232-0.887,0-1.165,0-1.165C16.484,12.794,9.169,23.513,9.169,23.513
	C17.323,13.075,24.779,12.283,25.013,11.397z" class="color c5"/>
  <path fill="#FFFFFF" d="M84.755,28.749c-2.113,0.372-0.622,8.201-1.492,10.688c-0.869,2.484-8.201,3.728-8.201,3.728
	c3.479,0,11.683-2.112,11.683-3.604C86.744,38.068,84.755,28.749,84.755,28.749z" class="color c5"/>
  <path fill="#FFFFFF" d="M14.667,47.138c-2.203-0.4-4.44-0.849-6.71-1.347v31.091c1.832,0.738,4.227,1.593,6.71,2.42V47.138z
	 M67.231,49.036c-9.526,1.121-21.917,1.676-36.349,0.333c-2.251-0.21-4.55-0.465-6.896-0.771c-2.616-0.343-5.288-0.746-8.016-1.224
	v32.36c2.921,0.952,5.845,1.839,8.016,2.435c1.712,0.471,2.957,0.761,3.355,0.761c0,0,0.829-3.925,3.541-7.615
	c2.441-3.321,6.407-6.452,12.676-6.364c13.234,0.188,17.895,5.965,21.063,14.353c0,0,1.021-0.221,2.609-0.603V49.036L67.231,49.036z
	 M81.958,78.167c0.968-0.432,1.799-0.869,2.424-1.304V45.895c-0.714,0.189-1.521,0.395-2.424,0.607V78.167z M79.722,47.006
	c-0.703,0.149-1.451,0.303-2.236,0.453V79.85c0.77-0.253,1.521-0.514,2.236-0.779V47.006z" class="color c5"/>
  <path fill="#A5A5A4" d="M45.759,77.36c0.076,0.015,0.151,0.033,0.229,0.053c3.441,0.896,8.412,6.394,10.721,10.765
	c2.994,5.671,3.702,11.912,3.77,16.15c0.039,2.501-0.144,4.414-0.242,5.261c-0.883,0.93-4.561,4.039-14.176,4.039
	c-0.043,0-0.086-0.001-0.129-0.002c-0.053-0.001-0.104-0.002-0.156-0.002H45.76h-0.014c-0.053,0-0.104,0.001-0.157,0.002
	c-0.042,0.001-0.085,0.002-0.128,0.002c-9.513,0-13.254-3.102-14.178-4.054c-0.101-0.854-0.279-2.761-0.24-5.246
	c0.066-4.238,0.774-10.48,3.769-16.15c2.309-4.371,7.28-9.868,10.724-10.767C45.608,77.393,45.684,77.375,45.759,77.36
	 M45.759,75.473c-0.229,0.027-0.462,0.072-0.698,0.136c-4.271,1.113-9.564,7.28-11.898,11.698
	c-3.135,5.936-3.912,12.416-3.983,16.989c-0.058,3.63,0.326,6.061,0.326,6.061s3.391,5.134,15.955,5.134
	c0.101,0,0.198-0.003,0.299-0.003s0.198,0.003,0.3,0.003c12.563,0,15.953-5.134,15.953-5.134s0.385-2.431,0.327-6.061
	c-0.071-4.573-0.849-11.055-3.983-16.989c-2.332-4.418-7.627-10.585-11.897-11.698C46.222,75.546,45.987,75.501,45.759,75.473
	L45.759,75.473z" class="color c4"/>
  <path fill="#7F1800" d="M14.667,79.302c0.434,0.146,0.869,0.288,1.305,0.432v-32.36c-0.433-0.076-0.869-0.156-1.305-0.234V79.302z
	 M2.737,44.25c-1.332,1.11,1.305,29.358,1.864,30.85c0.136,0.362,1.438,1.01,3.355,1.783V45.792
	c-0.896-0.195-1.797-0.396-2.703-0.609C5.254,45.182,3.297,43.785,2.737,44.25z M88.108,44.716c-0.231,0.134-1.516,0.587-3.728,1.18
	v30.968c0.4-0.279,0.72-0.558,0.933-0.831C87.924,72.676,89.414,43.971,88.108,44.716z M79.722,79.071
	c0.799-0.296,1.553-0.599,2.236-0.904V46.503c-0.691,0.163-1.438,0.332-2.236,0.503V79.071z M67.231,82.699
	c2.563-0.614,6.607-1.647,10.252-2.849V47.459c-2.894,0.561-6.33,1.115-10.252,1.576V82.699z" class="color c6"/>
</svg>