<svg version="1.1" id="图层_1" x="0px" y="0px" width="57.137px" height="30.568px" viewBox="0 0 57.137 30.568" enable-background="new 0 0 57.137 30.568" xml:space="preserve" xmlns="http://www.w3.org/2000/svg" xmlns:xlink="http://www.w3.org/1999/xlink" xmlns:xml="http://www.w3.org/XML/1998/namespace">
  <path fill="#24B2FD" d="M52.905,4.784C49.657,1.61,44.809,0,38.499,0c-4.509,0-9.752,0.774-16.03,2.367
	C12.714,4.842,4.371,8.355,4.023,8.502c-1.618,0.683-2.874,1.954-3.536,3.582c-0.66,1.627-0.648,3.413,0.033,5.031
	c1.031,2.442,3.409,4.021,6.06,4.021c0.881,0,1.741-0.175,2.554-0.519c8.826-3.723,21.823-7.492,29.587-7.492
	c3.625,0,4.74,0.814,4.996,1.064c0.38,0.372,0.598,2.748-1.234,7.389c-0.645,1.634-0.615,3.421,0.084,5.032
	c0.7,1.61,1.984,2.854,3.617,3.498c0.774,0.306,1.587,0.46,2.413,0.46c2.719,0,5.119-1.634,6.117-4.161
	C58.466,16.898,57.859,9.623,52.905,4.784z" class="color c1"/>
</svg>