<svg version="1.1" id="图层_1" x="0px" y="0px" width="175.984px" height="39.146px" viewBox="0 0 175.984 39.146" enable-background="new 0 0 175.984 39.146" xml:space="preserve" xmlns="http://www.w3.org/2000/svg" xmlns:xlink="http://www.w3.org/1999/xlink" xmlns:xml="http://www.w3.org/XML/1998/namespace">
  <polygon fill="#C4C4C4" points="175.985,34.546 171.078,38.409 166.136,34.601 161.229,38.462 156.287,34.654 151.385,38.514 
	146.44,34.707 141.539,38.567 136.598,34.759 131.692,38.62 126.748,34.811 121.846,38.672 116.905,34.865 112.002,38.725 
	107.058,34.918 102.159,38.778 97.217,34.97 92.313,38.831 87.372,35.022 82.471,38.884 77.527,35.076 72.625,38.937 67.684,35.128 
	62.781,38.99 57.838,35.181 52.936,39.042 47.993,35.233 43.091,39.094 38.149,35.286 33.247,39.147 28.307,35.34 28.3,34.445 
	28.121,0.574 170.949,0 " class="color c1"/>
  <path fill="#471A03" d="M25.371,0.371L6.678,0.472C6.191,0.474,5.716,0.522,5.259,0.61C2.24,1.188-0.014,3.527,0,6.309l0.091,16.853
	c0.016,3.205,3.064,6.188,6.74,5.767c1.708-0.195,3.981-0.577,6.42-1.044c4.395-0.843,9.315-1.965,12.383-2.775
	c3.545-0.934,6.563-3.063,6.545-6.267L32.1,3.943C32.083,0.738,29.077,0.351,25.371,0.371z" class="color c2"/>
</svg>