<svg version="1.1" id="图层_1" x="0px" y="0px" width="157.835px" height="157.835px" viewBox="0 0 157.835 157.835" enable-background="new 0 0 157.835 157.835" xml:space="preserve" xmlns="http://www.w3.org/2000/svg" xmlns:xlink="http://www.w3.org/1999/xlink" xmlns:xml="http://www.w3.org/XML/1998/namespace">
  <path fill="#3BAA70" d="M146.056,94.512v35.548c0,8.811-7.185,15.996-15.995,15.996H27.774c-8.81,0-15.995-7.185-15.995-15.996
	v-13.805C6.832,120.143,2.898,123.794,0,126.692v3.369c0,15.312,12.462,27.774,27.774,27.774h102.287
	c15.312,0,27.774-12.462,27.774-27.774V94.512H146.056z M130.061,0H27.774C12.462,0,0,12.462,0,27.774v5.724
	c2.898,2.898,6.832,6.549,11.779,10.436v-16.16c0-8.81,7.185-15.995,15.995-15.995h102.287c8.81,0,15.995,7.185,15.995,15.995
	v37.904h11.779V27.774C157.835,12.462,145.373,0,130.061,0z" class="color c1"/>
</svg>