<svg version="1.1" id="图层_1" x="0px" y="0px" width="79.6px" height="79.696px" viewBox="0 0 79.6 79.696" enable-background="new 0 0 79.6 79.696" xml:space="preserve" xmlns="http://www.w3.org/2000/svg" xmlns:xlink="http://www.w3.org/1999/xlink" xmlns:xml="http://www.w3.org/XML/1998/namespace">
  <title>133</title>
  <path fill="#BA8500" d="M40,79.676h-6.52c-1.935-0.017-3.491-1.595-3.48-3.53v-3.33c-2.281-0.66-4.478-1.58-6.55-2.74l-2.06,2.07
	c-0.776,0.822-1.87,1.267-3,1.22c-1.23-0.128-2.344-0.785-3.05-1.8c-2.057-2.73-4.483-5.16-7.21-7.22
	c-1.006-0.692-1.662-1.787-1.8-3c-0.072-1.138,0.355-2.252,1.17-3.05l2.06-2c-1.161-2.069-2.073-4.268-2.72-6.55H4.61
	c-0.874,0.01-1.748-0.057-2.61-0.2c-1.156-0.195-2.002-1.198-2-2.37v-13.69c0.011-1.933,1.587-3.491,3.52-3.48c0,0,0,0,0,0h3.3
	c0.659-2.278,1.578-4.472,2.74-6.54l-2.07-2.09c-0.822-0.776-1.267-1.87-1.22-3c0.096-1.2,0.714-2.296,1.69-3
	c2.728-2.006,5.15-4.397,7.19-7.1c0.685-1.099,1.826-1.833,3.11-2c1.172-0.079,2.318,0.372,3.12,1.23l2,2.06
	c2.091-1.169,4.313-2.085,6.62-2.73v-4.37c0.049-1.381,1.188-2.472,2.57-2.46h12.95c0.765-0.027,1.53,0.036,2.28,0.19
	c1.074,0.263,1.837,1.215,1.86,2.32v4.31c2.281,0.66,4.478,1.58,6.55,2.74l2.09-2.07c1.423-1.535,3.821-1.627,5.356-0.204
	C63.779,7.406,63.893,7.527,64,7.656c0.51,0.56,1,1.13,1.5,1.7c1.78,2.232,3.817,4.246,6.07,6c1.022,0.677,1.684,1.78,1.8,3
	c0.087,1.149-0.346,2.275-1.18,3.07l-2.1,2.09l0,0c0.52,1,1.06,2.06,1.51,3.15s0.82,2.21,1.17,3.29v0.09h2.24
	c0.866-0.027,1.733,0.023,2.59,0.15c1.152,0.195,1.997,1.191,2,2.36v13.7c-0.006,1.939-1.581,3.506-3.52,3.5c0,0,0,0,0,0h-3.23
	c-0.66,2.281-1.58,4.478-2.74,6.55l2.07,2.06c0.822,0.776,1.267,1.87,1.22,3c-0.125,1.234-0.782,2.351-1.8,3.06
	c-2.729,2.051-5.156,4.474-7.21,7.2c-0.69,1.01-1.785,1.67-3,1.81c-1.151,0.059-2.27-0.391-3.06-1.23l-2-2.06
	c-2.069,1.16-4.268,2.073-6.55,2.72v2.24c0.03,0.866-0.024,1.734-0.16,2.59c-0.199,1.15-1.193,1.993-2.36,2L40,79.676z M34,75.676
	h11.7v-4.07c0-1.1,0.752-2.058,1.82-2.32c2.734-0.657,5.347-1.744,7.74-3.22c0.955-0.614,2.212-0.468,3,0.35l2.89,2.9l0.1-0.12
	c2.279-3.028,4.972-5.721,8-8l0.13-0.11l-2.91-2.9c-0.814-0.79-0.96-2.044-0.35-3c1.47-2.388,2.563-4.989,3.24-7.71
	c0.335-1.066,1.313-1.798,2.43-1.82h3.94v-11.7h-4c-1.028-0.001-1.94-0.657-2.27-1.63L69,31.146c-0.35-1.06-0.67-2.05-1.06-3
	s-0.87-1.87-1.38-2.86L66,24.206c-0.467-0.927-0.285-2.048,0.45-2.78l0.71-0.71l2.13-2.12l0,0c-2.514-1.92-4.79-4.132-6.78-6.59
	c-0.47-0.54-0.95-1.09-1.43-1.62l-2.89,2.9c-0.788,0.818-2.045,0.964-3,0.35l0,0c-2.389-1.469-4.989-2.562-7.71-3.24
	c-1.059-0.349-1.776-1.335-1.78-2.45v-3.93H34v4.06c0.003,1.107-0.754,2.071-1.83,2.33c-2.731,0.657-5.34,1.744-7.73,3.22
	c-0.956,0.61-2.21,0.464-3-0.35l-2.89-2.9l-0.15,0.19c-2.255,3.048-4.952,5.745-8,8l-0.09,0.08l2.91,2.9
	c0.814,0.791,0.957,2.047,0.34,3c-1.471,2.384-2.564,4.981-3.24,7.7c-0.351,1.028-1.304,1.73-2.39,1.76H4v11.7h4.07
	c1.107-0.003,2.071,0.754,2.33,1.83c0.657,2.731,1.744,5.34,3.22,7.73c0.61,0.956,0.464,2.21-0.35,3l-2.9,2.89l0.12,0.1
	c3.025,2.282,5.718,4.975,8,8l0.11,0.13l2.9-2.9c0.793-0.811,2.046-0.953,3-0.34c2.389,1.466,4.989,2.555,7.71,3.23
	c1.03,0.337,1.744,1.277,1.79,2.36C34,71.736,34,75.676,34,75.676z" class="color c1"/>
  <path fill="#BA8500" d="M40,53.676c-7.644,0.028-13.862-6.146-13.89-13.79c-0.028-7.644,6.146-13.862,13.79-13.89
	c7.644-0.028,13.862,6.146,13.89,13.79c0,0.02,0,0.04,0,0.06C53.779,47.464,47.618,53.643,40,53.676z M40,30.006
	c-5.434,0-9.84,4.406-9.84,9.84s4.406,9.84,9.84,9.84s9.84-4.406,9.84-9.84S45.434,30.006,40,30.006L40,30.006z" class="color c1"/>
</svg>