<svg version="1.1" id="图层_1" x="0px" y="0px" width="204.8px" height="205px" viewBox="0 0 204.8 205" enable-background="new 0 0 204.8 205" xml:space="preserve" xmlns:xml="http://www.w3.org/XML/1998/namespace" xmlns="http://www.w3.org/2000/svg" xmlns:xlink="http://www.w3.org/1999/xlink">
  <path fill="#0A0A0A" d="M57.4,125.9c1.6,2.1,1.4,4.6-0.7,6.199c-2.9,2.301-6,4.4-9.1,6.601c-0.8,0.5-1.7,0.399-2.3-0.3
	c-0.8-0.9-1.5-1.7-2-2.7c-0.8-1.4-0.7-2.8,0.2-4.2c0.8-1.3,1.6-2.6,2.4-3.8c0.7-1.101,1-1.2,2.2-0.601c0.3,0.2,0.5,0.301,1,0.601
	c0-1.5,0.1-2.9,0.1-4.3c0-1.2,0.8-1.801,1.7-2.301c0.9-0.6,1.8-0.5,2.6,0.2s1.4,1.5,2,2.3C56.1,124.4,56.7,125.2,57.4,125.9z
	 M63.7,89.4c-0.5,2.1-0.9,4.2-1.4,6.5c2.3-0.5,4.5-0.9,6.8-1.4C67.2,92.5,65.6,90.6,63.7,89.4z M131.5,92.6
	c2.301,0.5,4.5,0.9,6.801,1.4c-0.5-2.3-0.9-4.4-1.4-6.5C135,88.7,133.4,90.7,131.5,92.6z M199.1,127c0.399,1.8,0.8,3.5,1.399,5.9
	c-3-1.101-5.5-2-8-2.9c-0.299-0.1-0.699-0.1-1-0.1c-2.399,0.3-4.299,1-5.299,3.699c-0.9,2.5-2.4,4.9-3.701,7.301
	c-0.5,1-0.6,1.8-0.1,2.8c1.2,2.399,2.2,4.899,3.4,7.2c1,1.8,1.1,3.5,0.8,5.399c-0.2,1.601-0.3,3.101-0.399,5
	C184,160,181.5,159.1,180.1,157.4c-1.5-1.801-3.2-1.101-4.7-1.601c-0.4-0.1-1,0.3-1.4,0.7c-2.6,2.5-5.1,5-7.6,7.6
	c-0.4,0.4-0.699,1.301-0.6,1.9c0.3,3.2,0.8,6.4,1.1,9.7c0.1,0.6,0,1.399-0.199,2C165.9,179.9,165,182,163.9,184.6
	c-1.699-2.5-3.3-4.699-4.8-7c-0.601-0.899-4.5-2.3-5.5-1.8c-3.2,1.601-6.399,3.2-9.601,4.9c-0.6,0.3-1.1,1.1-1.199,1.8
	c-0.6,2.8-0.9,5.6-1.5,8.4c-0.2,1.1-0.801,2.199-1.4,3.199c-1.199,1.801-2.699,3.4-4.3,5.4c-0.899-2.9-3.101-4.9-2.601-7.9
	c0-0.1,0-0.199,0-0.3c-0.399-1.2-3.799-3.3-5-3.1c-3.399,0.5-6.799,0.899-10.1,1.5c-0.699,0.1-1.5,0.8-1.8,1.399
	c-1.3,2.301-2.601,4.7-3.7,7.101c-0.699,1.6-1.8,2.8-3.4,3.7c-1.6,0.899-3.1,1.899-4.799,2.899c-0.201-2.5-0.5-4.7-0.701-6.899
	c-0.1-0.801,0.801-1.4,0.201-2.601c-1.101-2.2-2.5-3.5-5.101-3.7c-2.8-0.199-5.6-0.899-8.4-1.3c-0.7-0.1-1.6,0.2-2.1,0.7
	c-2.1,1.9-4.1,4-6.2,5.9c-1,0.8-2.2,1.5-3.5,1.899c-1.9,0.601-3.8,1-5.7,1.5c-0.2-0.1-0.3-0.2-0.4-0.3c0.9-2.5,1.8-5,2.6-7.6
	c0.2-0.601-0.1-1.301-0.1-2c-0.1-2.101-1.2-3.301-3.1-4.101c-2.7-1.101-5.2-2.601-7.7-4c-1-0.5-1.7-0.5-2.7,0
	c-2.4,1.2-4.9,2.2-7.2,3.399c-1.8,0.9-3.5,1.101-5.4,0.9c-1.6-0.199-3.1-0.3-5-0.4c1.3-2.199,2.2-4.699,3.9-6.1
	c1.8-1.5,1.2-3.199,1.6-4.699c0.1-0.4-0.3-1.101-0.7-1.4c-2.5-2.6-5-5.1-7.6-7.6c-0.4-0.4-1.3-0.701-1.9-0.601
	c-3.2,0.3-6.4,0.8-9.7,1.101c-0.7,0.1-1.5,0-2.1-0.301c-2.1-0.8-4.2-1.699-6.8-2.699c2.5-1.701,4.7-3.201,6.9-4.801
	c0.6-0.4,0.8-1.3,1.2-2c1.1-1.6,1-3.1,0-4.8c-1.5-2.399-2.7-5-3.9-7.6c-0.6-1.2-1.3-1.8-2.7-1.9c-2.4-0.3-4.8-0.8-7.3-1.1
	c-1.8-0.2-3.2-0.9-4.5-2.101c-1.4-1.199-2.9-2.399-4.7-3.8c2.9-1,4.9-3.101,7.9-2.601c0.1,0,0.2,0,0.3,0c1.2-0.399,3.3-3.799,3.1-5
	c-0.5-3.399-0.9-6.799-1.5-10.1c-0.1-0.699-0.8-1.5-1.4-1.8c-2.4-1.399-5-2.5-7.4-3.899c-1.2-0.701-2.3-1.801-3.2-2.9
	c-1.2-1.5-2-3.2-3.2-5.1c2.5-0.201,4.8-0.5,7.1-0.701c0.8,0,1.4,0.701,2.4,0.201c2.2-1.101,3.5-2.5,3.7-5.101
	c0.2-2.8,0.9-5.6,1.3-8.4c0.1-0.7-0.2-1.5-0.7-2.1c-1.2-1.4-2.4-2.9-3.9-4c-3.5-2.6-4.3-6.5-5.2-10.4c-0.1-0.4-0.1-0.8-0.1-1.2
	c2.4,0.6,4.6,1.1,6.9,1.7c0.8,0.2,1.1,1,2.3,0.9c2.5-0.4,4-1.5,5-3.9c0.9-2.4,2.2-4.6,3.5-6.8c0.6-1.2,0.7-2.1,0.1-3.3
	c-1.2-2.4-2.2-4.9-3.4-7.2c-0.8-1.5-1-3.1-0.8-4.8c0.2-1.7,0.3-3.4,0.5-5.5c2.2,1.9,5.2,2.4,6.8,4.9c0.3,0.5,1.6,0.3,2.4,0.5
	c1.6,0.5,2.7,0,3.9-1.3c2.1-2.4,4.5-4.5,6.7-6.8c0.4-0.5,0.7-1.3,0.7-1.9c-0.3-3.2-0.8-6.4-1.1-9.7c-0.1-0.8,0.1-1.6,0.3-2.3
	c0.8-2.1,1.7-4.1,2.6-6.5c1.7,2.1,3.4,4,4.8,6.2c1,1.5,4.2,3.1,5.8,2.3c3-1.5,5.9-3.1,9-4.6c1.1-0.5,1.5-1.2,1.7-2.3
	c0.4-2.6,0.9-5.2,1.2-7.8c0.2-1.6,0.8-2.9,1.9-4.1c1.3-1.4,2.4-3,3.9-4.8c1,2.8,3,4.8,2.7,7.8c0,0.3,0.3,0.7,0.5,1
	c0.5,0.6,1.2,1.1,1.7,1.7c0.8,0.9,1.7,1.1,2.9,0.9c3.3-0.5,6.7-0.9,10-1.5c0.7-0.1,1.4-0.8,1.9-1.3s0.8-1.3,1-2
	c2-5.1,4.9-9.3,10.2-11.4c0.2-0.1,0.3-0.3,0.4-0.5c0.1,0,0.2,0,0.3,0c0.2,2.2,0.4,4.3,0.6,6.5c0,0.5-0.2,1-0.3,1.5
	c0,0.2-0.2,0.3-0.2,0.4c-0.1,1,2.4,4.2,3.5,4.4c3.5,0.6,7.101,1.2,10.601,1.7c0.601,0.1,1.399-0.3,1.899-0.7c2-1.8,4-3.7,5.9-5.7
	c1.2-1.2,2.5-2,4.2-2.3c1.8-0.4,3.601-0.9,5.601-1.3c-0.601,2.5-1.201,4.8-1.701,7c-0.199,0.8-1.1,1.1-0.899,2.3
	c0.399,2.5,1.5,4,3.899,5c2.601,1,5,2.5,7.5,3.7c0.601,0.3,1.5,0.3,2.201,0c2.699-1.1,5.299-2.5,8.1-3.6c1.3-0.5,2.699-0.7,4.1-0.7
	c1.801,0,3.6,0.3,5.801,0.4c-1.701,2.2-2.4,5-4.701,6.7c-0.299,0.2-0.399,0.6-0.5,1c-0.699,2.5-0.199,4.6,2,6.4
	c2.101,1.7,3.9,3.9,5.9,5.7c0.5,0.5,1.4,0.8,2.1,0.7c3.201-0.3,6.4-0.7,9.701-1.1c0.5-0.1,1.199,0,1.699,0.1
	c2.301,0.9,4.5,1.8,7.2,2.9c-2.5,1.7-4.8,3.2-7,4.8c-0.601,0.5-0.8,1.5-1.3,2.1c-1.1,1.5-0.9,2.9,0.1,4.5c1.5,2.6,2.801,5.2,4,7.9
	c0.5,1.1,1.301,1.6,2.4,1.7c2.6,0.4,5.3,0.8,7.9,1.3c1.199,0.3,2.399,0.8,3.5,1.5c1.699,1.2,3.299,2.6,5.199,4.2
	c-2.9,0.9-5,3.1-7.9,2.6c-0.199,0-0.6,0.3-0.799,0.5c-2,1.7-3.201,3.5-2.4,6.5c0.699,2.5,0.8,5.3,1.199,7.9
	c0.101,1.1,0.601,1.8,1.701,2.3c1.799,0.8,3.399,2,5.199,2.6c4.5,1.5,6.1,5.5,8.301,9.2c-2.4,0.2-4.701,0.5-6.9,0.7
	c-0.801,0.1-1.301-0.8-2.4-0.3c-2.4,1.1-3.6,2.7-3.8,5.399c-0.2,2.701-0.899,5.4-1.2,8.101c-0.1,0.7,0.2,1.7,0.7,2.2
	c1.8,2,3.601,4,5.601,5.8C198,123.9,198.8,125.3,199.1,127z M160.1,128.3c-2.399-5.3-4.8-10.7-7.2-16c-0.3-0.7-0.3-1.3,0.1-1.899
	c1.9-3.601,1.801-2.801-0.199-6.101c-1.1-1.8-2.2-3.6-3.301-5.4c-0.6-1.1-1.399-1.8-2.699-1.7c-0.6,0-0.9-0.2-1.1-0.8
	c-0.201-0.9-0.801-1.1-1.701-1.3c-2.199-0.4-2.199-0.4-2.5-2.6c-0.299-1.8-0.5-3.6-0.799-5.4c-0.5-3.3-3.4-4.5-6.101-2.5
	c-1.399,1.1-2.601,2.4-3.899,3.5c-0.301,0.3-0.601,0.6-1,0.9c-0.301-0.5-0.601-0.9-0.701-1.3c-0.1-0.4-0.1-0.9,0-1.3
	c1.4-3,3.9-5.2,6.101-7.5c0.3-0.3,1.101-0.7,0.399-1.3c-0.199-0.2-0.799-0.3-0.899-0.2c-2.5,2-5.3,3.6-7.2,6.3
	c-1.4,2-2.9,3.8-4.3,5.8c-0.601,0.8-1.2,1.1-2.2,0.7c-0.3-0.1-0.6-0.1-1-0.2c-0.6,1.1-1.3,2.3-1.9,3.5
	c-0.399-0.3-0.799-0.6-1.199-0.8c0.199-0.3,0.3-0.6,0.5-1c-0.6-0.4-1.301-0.9-1.9-1.4c-0.199,0.2-0.5,0.4-0.8,0.7
	c-0.601-0.4-1.101-0.8-1.7-1.3c0.2-0.3,0.4-0.6,0.6-1c-0.5-0.4-0.899-0.7-1.399-1.1c0.5-0.4,1-0.7,1.399-1
	c0.301,0.2,0.5,0.5,0.801,0.7c0.6-0.5,1.199-1,1.8-1.5c-0.5-1-0.399-1.1,1.2-1.9c0.3,0.3,0.6,0.6,0.8,0.9c0.7-0.5,1.3-1,2-1.4
	c-0.3-0.4-0.5-0.7-0.7-1.1c0.6-0.4,1.1-0.8,1.6-1.2c0.301,0.3,0.601,0.6,0.9,1c0.7-0.5,1.2-1,1.801-1.5
	c-0.201-0.4-0.4-0.7-0.601-1.1c0.5-0.4,0.899-0.7,1.399-1c0.301,0.3,0.5,0.6,0.801,0.8c0.699-0.5,1.3-1,2-1.4
	c-0.2-0.4-0.4-0.7-0.6-1c0.5-0.4,1-0.7,1.5-1c0.299,0.3,0.5,0.5,0.799,0.8c0.601-0.5,1.201-1,1.9-1.5c-0.199-0.3-0.4-0.6-0.5-0.9
	c0.4-0.3,0.801-0.5,1.1-0.8c0.301,0.3,0.5,0.6,0.9,0.9c0.7-0.5,1.301-1,1.9-1.5c-0.2-0.4-0.4-0.7-0.6-1c0.5-0.3,0.899-0.6,1.199-0.9
	c0.301,0.3,0.6,0.6,0.9,0.8c0.699-0.5,1.3-1,2-1.4c-0.301-0.4-0.5-0.7-0.801-1.1c0.801-0.9,0.9-2.4,2.701-2
	c-0.101-0.9-0.201-1.7-0.301-2.5c-0.3,0-0.6,0-0.9-0.1c0-1.1-1.399-2.2,0.5-3c-0.6-0.7-1.1-1.3-1.6-1.9c-1.4,0.9-1.4,0.9-2.6,0.1
	c0-0.3,0.1-0.7,0.1-1c-0.8-0.2-1.5-0.4-2.3-0.7c-0.7,2-2,2.5-3.3,1.5c-0.6,0.5-1.2,0.9-1.7,1.4c0.101,0.3,0.2,0.6,0.3,0.8
	c-0.5,0.3-0.8,0.6-1.199,0.9c-0.301-0.3-0.5-0.5-0.701-0.6c-0.699,0.5-1.299,0.9-1.899,1.4c0.2,0.4,0.3,0.6,0.399,0.9
	c-0.399,0.3-0.699,0.5-1.1,0.8c-0.3-0.3-0.5-0.5-0.8-0.7c-0.7,0.5-1.3,0.9-1.899,1.4c0.199,0.4,0.399,0.7,0.5,1
	c-0.5,0.4-1,0.7-1.4,1c-0.301-0.3-0.5-0.5-0.801-0.8c-0.6,0.5-1.199,1-1.799,1.5c0.199,0.4,0.299,0.7,0.399,1
	c-0.5,0.4-0.899,0.7-1.399,1c-0.301-0.2-0.5-0.4-0.701-0.6c-0.699,0.5-1.299,0.9-1.899,1.4c0.2,0.4,0.3,0.6,0.399,0.9
	c-0.6,0.4-1.1,0.8-1.6,1.1c-0.3-0.2-0.5-0.4-0.8-0.7c-0.601,0.5-1.2,1-1.8,1.5c0.1,0.3,0.199,0.6,0.3,0.8c-0.5,0.4-1,0.7-1.601,1.1
	c-0.299-0.3-0.6-0.6-0.799-0.9c-0.701,0.5-1.301,0.9-2,1.4c0.199,0.4,0.399,0.7,0.6,1c-0.6,0.5-1.2,0.9-1.801,1.3
	c-0.299-0.3-0.6-0.6-0.899-0.9c-0.601,0.5-1.2,1-1.8,1.5c0.2,0.4,0.4,0.7,0.6,1c-0.4,0.3-0.8,0.6-1.2,0.8c0,0-0.1,0-0.1-0.1
	c0.2-0.3,0.3-0.6,0.5-1c-0.6-0.4-1.3-0.9-1.9-1.4c-0.2,0.2-0.4,0.5-0.7,0.8c-0.5-0.3-0.9-0.7-1.4-1c0.2-0.3,0.3-0.6,0.6-1
	c-0.6-0.5-1.2-1-1.8-1.5c-0.3,0.3-0.6,0.6-0.9,0.9c-0.6-0.4-1.1-0.8-1.8-1.3c0.2-0.3,0.4-0.6,0.6-1c-0.7-0.5-1.3-0.9-2-1.4
	c-0.3,0.3-0.5,0.5-0.8,0.9c-0.5-0.4-1-0.7-1.6-1.1c0.1-0.2,0.2-0.5,0.3-0.8c-0.6-0.5-1.2-1-1.8-1.5c-0.3,0.2-0.5,0.4-0.8,0.7
	c-0.5-0.4-1-0.7-1.6-1.1c0.1-0.2,0.2-0.5,0.4-0.9c-0.6-0.4-1.3-0.9-1.9-1.4c-0.2,0.2-0.4,0.4-0.7,0.6c-0.5-0.3-0.9-0.6-1.4-1
	c0.1-0.3,0.3-0.6,0.4-1c-0.6-0.5-1.2-0.9-1.8-1.5c-0.3,0.3-0.5,0.5-0.8,0.8c-0.4-0.3-0.9-0.7-1.4-1c0.2-0.3,0.3-0.6,0.5-1
	c-0.6-0.5-1.3-0.9-1.9-1.4c-0.2,0.2-0.5,0.5-0.8,0.7c-0.3-0.3-0.7-0.5-1.1-0.8c0.1-0.3,0.2-0.5,0.4-0.9c-0.6-0.4-1.3-0.9-1.9-1.4
	c-0.2,0.2-0.4,0.4-0.7,0.6c-0.4-0.3-0.8-0.5-1.2-0.9c0.1-0.2,0.2-0.5,0.3-0.8c-0.6-0.5-1.2-0.9-1.7-1.4c-1.3,1-2.6,0.4-3.3-1.5
	c-0.8,0.2-1.5,0.4-2.3,0.7c0,0.3,0.1,0.7,0.1,1c-1.2,0.7-1.2,0.7-2.6-0.1c-0.5,0.6-1,1.2-1.6,1.9c1.9,0.8,0.5,2,0.5,3
	c-0.3,0-0.6,0-0.9,0.1c-0.1,0.8-0.2,1.6-0.3,2.5c1.8-0.4,1.9,1.2,2.7,2c-0.2,0.3-0.5,0.7-0.8,1.1c0.7,0.5,1.3,0.9,2,1.4
	c0.2-0.2,0.5-0.5,0.9-0.8c0.4,0.3,0.8,0.6,1.2,0.9c-0.2,0.3-0.3,0.6-0.6,1c0.6,0.5,1.2,1,1.9,1.5c0.3-0.3,0.6-0.6,0.9-0.9
	c0.4,0.3,0.7,0.5,1.1,0.8c-0.2,0.3-0.3,0.5-0.5,0.9c0.6,0.5,1.2,1,1.9,1.5c0.3-0.3,0.6-0.5,0.8-0.8c0.5,0.3,0.9,0.7,1.5,1
	c-0.2,0.3-0.4,0.6-0.6,1c0.7,0.5,1.3,0.9,2,1.4c0.2-0.3,0.5-0.5,0.8-0.8c0.5,0.3,0.9,0.7,1.4,1c-0.2,0.3-0.4,0.6-0.6,1.1
	c0.6,0.5,1.2,1,1.8,1.5c0.3-0.3,0.6-0.6,0.9-1c0.5,0.4,1.1,0.8,1.6,1.2c-0.2,0.3-0.4,0.7-0.7,1.1c0.7,0.5,1.3,0.9,2,1.4
	c0.3-0.3,0.6-0.6,0.8-0.9c1.6,0.8,1.7,0.9,1.2,1.9c0.6,0.5,1.1,1,1.8,1.5c0.3-0.2,0.5-0.4,0.8-0.7c0.6,0.4,1.1,0.8,1.7,1.2
	c-0.1,0.3-0.3,0.5-0.4,0.9c0.6,0.4,1.3,0.9,1.9,1.4c0.1-0.2,0.3-0.3,0.5-0.5c0.2,0.4,0.5,0.7,0.7,1.1c-0.6,0.4-1.1,0.8-1.6,1.2
	c-0.3-0.3-0.6-0.6-0.9-0.9c-0.6,0.5-1.2,1-1.8,1.5c0.2,0.4,0.4,0.6,0.6,1c-0.6,0.4-1.2,0.8-1.7,1.3c-0.3-0.3-0.6-0.5-0.8-0.7
	c-0.7,0.5-1.3,0.9-1.9,1.4c0.2,0.4,0.3,0.7,0.5,1c-0.4,0.3-0.8,0.6-1.2,0.8c-0.7-1.2-1.3-2.4-1.9-3.5c-0.4,0.1-0.7,0.1-1,0.2
	c-1,0.4-1.6,0.1-2.2-0.7c-1.4-2-2.9-3.8-4.3-5.8c-1.9-2.7-4.7-4.3-7.2-6.3c-0.2-0.1-0.7,0-0.9,0.2c-0.6,0.6,0.1,1,0.4,1.3
	c2.2,2.3,4.6,4.5,6.1,7.5c0.2,0.4,0.2,0.9,0,1.3c-0.1,0.4-0.4,0.8-0.7,1.3c-0.4-0.4-0.7-0.6-1-0.9c-1.3-1.2-2.5-2.5-3.9-3.5
	c-2.7-2-5.5-0.8-6.1,2.5c-0.3,1.8-0.5,3.6-0.8,5.4c-0.3,2.2-0.3,2.2-2.5,2.6c-0.8,0.2-1.4,0.4-1.7,1.3c-0.1,0.6-0.5,0.8-1.1,0.8
	c-1.3-0.1-2.1,0.6-2.7,1.7c-1,1.9-2.2,3.601-3.3,5.4c-2,3.3-2,2.5-0.2,6.1c0.3,0.7,0.4,1.2,0.1,1.9c-2.4,5.3-4.8,10.7-7.2,16
	c-0.7,1.5-1,3-0.1,4.399c1.1,1.801,2.3,3.601,3.7,5.101c1.2,1.399,3.1,1.5,4.6,0.399c8.7-6.1,17.5-12.199,26.2-18.3
	c3.3-2.3,6.6-4.7,9.8-7c0.4,0.3,0.7,0.5,1.1,0.601c1.1,0.399,2.3-0.5,1.8-1.601c-0.4-1.1,0.1-1.5,0.8-2c1.1-0.8,1.4-2.6,0.7-3.7
	c-0.5-0.8-0.9-1.699-1.3-2.5c1-0.699,1.9-1.399,2.8-2c0.3,0.301,0.6,0.5,0.8,0.801c0.6-0.5,1.2-1,1.8-1.5c-0.2-0.4-0.3-0.7-0.5-0.9
	c0.6-0.4,1.2-0.8,1.7-1.2c0.3,0.3,0.5,0.5,0.8,0.7c0.7-0.5,1.3-0.9,1.9-1.4c-0.2-0.4-0.3-0.7-0.5-1c0.8-0.3,1.2-1.6,2.4-0.5
	c0.3-0.9,2-0.8,1.5-2.2c0-0.1,0.1-0.2,0.2-0.3c0.3,0.2,0.5,0.3,0.6,0.6c1.2-1.2,1.6,0.1,2.401,0.5c-0.201,0.3-0.301,0.6-0.5,1
	c0.6,0.4,1.2,0.9,1.9,1.4c0.2-0.2,0.5-0.4,0.8-0.7c0.5,0.4,1.1,0.8,1.7,1.2c-0.101,0.3-0.3,0.6-0.5,0.9c0.601,0.5,1.2,0.9,1.8,1.5
	c0.301-0.3,0.5-0.5,0.801-0.8c0.899,0.7,1.799,1.3,2.799,2c-0.399,0.8-0.899,1.7-1.299,2.5c-0.601,1.1-0.301,2.899,0.699,3.7
	c0.7,0.5,1.2,0.899,0.801,2c-0.4,1,0.699,2,1.799,1.6c0.4-0.1,0.701-0.4,1.101-0.6c3.2,2.3,6.5,4.699,9.8,7
	c8.7,6.1,17.4,12.199,26.2,18.3c1.5,1.1,3.399,1,4.601-0.4c1.399-1.6,2.6-3.399,3.699-5.1C161,131.3,160.701,129.8,160.1,128.3z
	 M154.6,125.9c-0.7-1.101-1-1.101-2.2-0.601c-0.3,0.101-0.5,0.3-1,0.601c-0.1-1.601-0.1-3-0.1-4.301c0-1.199-0.801-1.8-1.7-2.3
	s-1.899-0.399-2.601,0.2c-0.699,0.7-1.299,1.5-2,2.3c-0.6,0.8-1.199,1.5-1.799,2.3c-1.601,2.101-1.4,4.601,0.699,6.2
	c3,2.3,6.1,4.4,9.1,6.601c0.801,0.5,1.601,0.5,2.301-0.301c0.699-0.8,1.5-1.699,2-2.699c0.8-1.4,0.699-2.9-0.2-4.2
	S155.4,127.1,154.6,125.9z" class="color c1"/>
</svg>