<svg version="1.1" id="图层_1" x="0px" y="0px" width="200px" height="119.681px" viewBox="0 0 200 119.681" enable-background="new 0 0 200 119.681" xml:space="preserve" xmlns="http://www.w3.org/2000/svg" xmlns:xlink="http://www.w3.org/1999/xlink" xmlns:xml="http://www.w3.org/XML/1998/namespace">
  <path fill="#F57519" d="M73.999,94.356c-6.64-1.798-12.097-4.229-17.938-6.841c-10.324-4.607-21.762-9.688-39.97-11.633
	c6.002-30.754,28.513-55.541,57.908-64.93V94.356z M126.009,10.951v83.405c6.635-1.798,12.093-4.229,17.937-6.841
	c10.32-4.607,21.76-9.688,39.966-11.633C177.914,45.125,155.404,20.337,126.009,10.951z M153.031,107.867
	c12.111-5.405,23.555-10.513,46.969-10.513v-14.86c-26.588,0-40.028,6.001-53.028,11.808c-12.114,5.413-23.553,10.521-46.968,10.521
	c-23.418,0-34.857-5.109-46.972-10.521C40.033,88.492,26.586,82.493,0,82.493v14.86c23.419,0,34.857,5.108,46.972,10.513
	c13,5.806,26.446,11.814,53.032,11.814C126.584,119.681,140.026,113.672,153.031,107.867z M118.578,95.974V0H81.427v95.974
	c5.221,0.885,11.233,1.416,18.575,1.416C107.342,97.39,113.354,96.859,118.578,95.974z M118.578,95.974V0H81.427v95.974
	c5.221,0.885,11.233,1.416,18.575,1.416C107.342,97.39,113.354,96.859,118.578,95.974z" class="color c1"/>
</svg>