<svg version="1.1" id="图层_1" x="0px" y="0px" width="140.036px" height="121.5px" viewBox="0 0 140.036 121.5" enable-background="new 0 0 140.036 121.5" xml:space="preserve" xmlns="http://www.w3.org/2000/svg" xmlns:xlink="http://www.w3.org/1999/xlink" xmlns:xml="http://www.w3.org/XML/1998/namespace">
  <path fill="#00467A" d="M34.999,75.463L0,86.409c3.629,5.67,7.973,10.838,12.934,15.348c12.65-2.053,23.922-4.905,33.987-8.313
	C42.953,88.377,38.941,82.435,34.999,75.463z M132.25,79.021c4.979-10.112,7.785-21.486,7.785-33.52
	c0-11.217-2.449-21.855-6.812-31.439c-1.701,6.182-4.629,14.321-9.623,23.272C129.556,47.013,134.079,60.644,132.25,79.021z
	 M121.909,40.265c-1.687,2.82-3.576,5.703-5.703,8.62c-5.771,7.915-13.734,16.583-24.601,24.794
	c7.291,9.911,14.789,20.379,21.226,30.075c5.979-5.012,11.164-10.932,15.366-17.539C131.513,68.486,129.403,53.093,121.909,40.265z
	 M93.366,57.209L82.01,60.761c2.52,3.365,5.143,6.885,7.814,10.502c10.584-8.003,18.34-16.438,23.957-24.145
	c2.404-3.298,4.494-6.561,6.327-9.738c-1.379-2.063-2.903-4.056-4.579-5.976c-4.945-5.67-10.335-9.633-14.582-12.218L71.008,43.155
	L93.366,57.209z M48.925,95.937c-9.819,3.388-20.798,6.239-33.047,8.354C28.989,115.043,45.757,121.5,64.036,121.5
	c5.304,0,10.479-0.547,15.477-1.58C71.846,116.793,60.663,110.124,48.925,95.937z M117.792,29.432
	c1.324,1.518,2.649,3.201,3.938,5.047c5.304-9.883,8.039-18.688,9.431-24.623c-1.836-3.45-3.918-6.747-6.244-9.855l-21.469,17.186
	C107.732,19.891,112.937,23.868,117.792,29.432z M50.003,92.372c15.179-5.445,27.475-12.17,37.41-19.326
	c-2.895-3.918-5.73-7.719-8.439-11.336l-41.03,12.834C41.933,81.5,45.995,87.388,50.003,92.372z M84.926,118.57
	c9.389-2.68,18.029-7.112,25.555-12.931c-6.436-9.71-13.965-20.223-21.289-30.18c-9.925,7.153-22.148,13.879-37.161,19.365
	C65.599,110.764,78.265,116.521,84.926,118.57z" class="color c1"/>
</svg>