<svg version="1.1" id="图层_1" x="0px" y="0px" width="200px" height="155.444px" viewBox="0 0 200 155.444" enable-background="new 0 0 200 155.444" xml:space="preserve" xmlns="http://www.w3.org/2000/svg" xmlns:xlink="http://www.w3.org/1999/xlink" xmlns:xml="http://www.w3.org/XML/1998/namespace">
  <path fill="#3A261F" d="M96.42,0L0,63.794h44.385L45,154.429l50.581-0.07V103.29H76.929l-0.551,3.521
	c-0.187,1.194-0.574,3.679-1.166,4.513c-0.151,0.214-0.879,0.33-1.463,0.39c-0.543,0.06-0.978-0.729-1.204-1.211v-25.53l0.002-0.005
	c0.237-0.087,0.742-0.218,1.658-0.253c2.243-0.075,2.738,3.472,2.739,3.476l0.433,3.651h44.189l0.75-3.272
	c0.536-2.338,2.161-4.818,2.938-4.894c0.806-0.08,1.285,0.653,1.526,1.179v25.438c-0.205,0.065-0.669,0.165-1.527,0.127
	c-2.181-0.091-2.9-3.423-2.9-3.423l-0.609-3.451h-19.165v51.899h52.9v-91.65H200L96.42,0z M146.122,55.181l0.027,92.123H111.91
	v-35.617h2.407c1.611,3.19,4.86,6.631,10.492,6.864c7.84,0.318,11.052-4.221,11.292-7.357l0.011-27.485l-0.14-0.485
	c-1.179-4.113-5.354-8.258-11.748-7.638c-5.586,0.541-8.523,4.924-9.938,8.116H85.242c-1.729-4.013-5.547-7.333-11.441-7.12
	c-4.67,0.177-7.209,1.824-8.517,3.174c-2.02,2.086-2.129,4.396-2.07,5.356v26.567l0.14,0.486c1.181,4.123,5.272,8.27,11.486,7.635
	c6.961-0.715,9.141-4.459,10.121-8.368h1.289v34.854H54.33l-0.495-91.105H29.383l67.063-44.964l73.902,44.964H146.122z" class="color c1"/>
</svg>