<svg version="1.1" id="图层_1" x="0px" y="0px" width="206.563px" height="141.101px" viewBox="0 0 206.563 141.101" enable-background="new 0 0 206.563 141.101" xml:space="preserve" xmlns="http://www.w3.org/2000/svg" xmlns:xlink="http://www.w3.org/1999/xlink" xmlns:xml="http://www.w3.org/XML/1998/namespace">
  <path fill="#FEC900" d="M178.866,43.358l-4.4-21.297l22.313-4.602l5.375-1.053l-3.889-3.889c-3.227-3.19-7.252-5.563-11.635-6.856
	c-4.375-1.312-9.041-1.506-13.467-0.573c-5.344,1.091-10.186,3.686-14.002,7.505c-3.824,3.824-6.439,8.593-7.572,13.822
	l-3.857,0.809v-0.596l-0.23-0.845l-0.109-0.204c-1.471-2.715-3.313-4.972-5.51-6.729c-1.951-1.505-4.15-2.614-6.541-3.305
	c-1.426-7.689-4.395-11.841-9.078-12.688c-0.533-0.094-1.09-0.141-1.658-0.141c-2.967,0-6.07,1.288-8.787,2.607
	c-5.758-6.504-12.141-7.07-18.186-1.597v-1.1l-3.996,5.632l-5.326,0.339l0.561,0.521c-1.506,0.431-2.938,1.007-4.277,1.726
	c-1.197,0.631-2.324,1.377-3.396,2.249v-1.42l-3.627,5.079l-0.219,0.313l-3.607,0.572l0.158,0.328
	c-2.262,0.777-4.219,1.887-5.93,3.354c-2.439,2.045-3.984,4.433-5.477,6.742l-0.275,0.427l-0.23,0.993v0.229
	c0,1.128,0,2.193-0.094,3.181l-0.029,0.333c-0.09,0.598-0.178,1.168-0.283,1.668c-0.332,1.334-0.865,2.291-1.668,2.961l-0.941,0.831
	v1.184l-0.137,5.634l-8.363,1.744c-3.139-4.393-7.43-7.763-12.432-9.755c-5.018-1.962-10.518-2.434-15.803-1.355
	c-4.406,0.894-8.615,2.916-12.184,5.856c-3.543,2.959-6.297,6.729-7.959,10.887L0,58.014l27.707-5.737l4.375,21.308l-22.326,4.57
	L4.42,79.304l3.887,3.788c3.26,3.221,7.285,5.603,11.648,6.891c4.365,1.274,9.004,1.472,13.451,0.571
	c5.314-1.084,10.156-3.691,13.996-7.532c3.83-3.791,6.451-8.571,7.586-13.83l9.205-1.877c0.479,2.726,0.828,5.062,1.191,7.499
	l0.098,0.642c0.225,1.808,0.504,3.62,0.939,6.344l0.078,0.474l0.119,0.253c0.418,0.88,1.096,1.693,2.115,2.52
	c0.348,0.267,0.742,0.527,1.203,0.796l-1.736,30.764h5.529l1.795-32.227l0.119-1.887l-1.232-0.578l-0.592-0.275
	c-0.654-0.266-1.252-0.599-1.707-0.947c-0.166-0.131-0.279-0.24-0.352-0.32c-0.303-1.983-0.578-3.854-0.826-5.651l-0.088-0.595
	c-0.379-2.585-0.74-5.052-1.264-8.002l65.348-13.888l2.553-0.613l-2.547-14.949l-0.594-3.218l-3.063,1.111
	c-0.127,0.047-0.275,0.07-0.453,0.07c-0.09-0.001-0.191-0.024-0.193-0.006c-0.461-0.072-0.885-0.212-1.24-0.409
	c-0.502-0.275-1.002-0.642-1.4-1.017c-0.102-0.102-0.199-0.206-0.297-0.315l0.117-0.241l-0.824-0.996l-0.754-0.835
	c-1.225-1.225-2.314-2.582-3.256-4.062c-0.871-1.321-1.52-2.619-1.939-3.904c-0.283-0.797-0.465-1.622-0.553-2.457
	c-0.055-0.781-0.027-1.567,0.068-2.199c0.121-0.625,0.34-1.235,0.674-1.873c0.291-0.562,0.691-1.086,1.189-1.558l0.051-0.048
	c-0.014,0.206-0.027,0.412-0.041,0.617l-0.004,0.135c-0.066,1.047-0.135,2.128-0.102,3.211v1.575l0.689,0.599l0.578,0.465
	c0.41,0.348,0.844,0.675,1.303,1.018l0.699,0.514c0.361,0.263,0.746,0.54,1.211,0.892c0.51,0.352,0.994,0.683,1.541,1.124
	c0.461,0.339,0.924,0.676,1.336,1.019l2.492,2.035l2.125-2.407c0.705-0.792,1.236-1.603,1.576-2.403
	c0.184-0.434,0.33-0.861,0.436-1.282c0.764,0.39,1.479,0.848,2.158,1.379c1.479,1.155,2.705,2.601,3.738,4.409v26.752
	l-20.162,27.108c-0.041,0.033-0.09,0.068-0.158,0.119c-0.279,0.166-0.559,0.325-0.861,0.455l-1.77,0.752l0.092,1.415l1.047,56.886
	h5.525l-1.006-54.881l0.15-0.104c0.57-0.429,1-0.834,1.395-1.331l20.959-28.159l0.313-1.082v-5.444l8.354-1.722
	c3.152,4.384,7.449,7.749,12.432,9.734c5,1.993,10.475,2.482,15.83,1.392c4.455-0.938,8.658-2.96,12.168-5.854
	c3.467-2.893,6.217-6.655,7.959-10.888l2.09-5.115L178.866,43.358z M106.018,5.711c1.809,0,3.713,1.107,5.668,3.292
	c0.389,2.253,0.717,4.765,0.973,7.467c0.279,3.173,0.422,6.023,0.422,8.472c0,2.6-0.066,5.23-0.195,7.817
	c-0.129,2.505-0.283,4.991-0.475,7.591c-0.334,0.88-0.723,1.669-1.115,2.289c-0.416,0.587-0.834,1.013-1.23,1.271
	c-0.35,0.213-0.75,0.341-1.094,0.373l-0.203,0.004c-0.49,0-0.973-0.068-1.469-0.207c-0.072-0.051-0.146-0.107-0.217-0.165
	c-0.035-0.029-0.117-0.112-0.324-0.362c-0.055-0.063-0.137-0.174-0.225-0.351l-0.188-0.336V25.779l-0.225-0.805l-7.344-14.342
	C101.348,7.365,103.782,5.711,106.018,5.711z M64.441,41.134c0.623-0.682,1.145-1.458,1.57-2.341l5.689,4.76l-7.293,1.49
	c-0.021-0.055-0.043-0.109-0.066-0.165L64.441,41.134z M65.799,61.295l-0.07,0.016l-0.045-0.273L53.729,63.47
	c-0.738,0.146-1.461,0.444-2.08,0.859c-0.588,0.392-1.111,0.924-1.551,1.583c-0.182,0.271-0.322,0.54-0.457,0.813l-0.053,0.11
	c-0.113,0.269-0.252,0.631-0.326,1.084c-0.898,4.172-2.963,7.966-5.967,10.969c-3.041,3.013-6.865,5.061-11.049,5.922
	c-3.551,0.717-7.219,0.562-10.641-0.456c-1.471-0.429-2.91-1.027-4.279-1.775l16.107-3.323c1.475-0.296,2.787-1.18,3.59-2.41
	c0.873-1.312,1.16-2.854,0.824-4.293l-4.398-21.405l-0.039-0.224c-0.299-1.484-1.189-2.792-2.449-3.595
	c-1.154-0.787-2.623-1.117-4-0.894L10.58,49.802c0.949-1.205,2.027-2.312,3.229-3.31c2.814-2.347,6.039-3.898,9.594-4.615
	c4.193-0.862,8.52-0.483,12.486,1.098c3.957,1.545,7.369,4.223,9.875,7.754c0.648,0.9,1.502,1.566,2.498,1.966
	c0.982,0.416,2.025,0.545,3.271,0.315l9.178-1.887l0.09,0.283l14.553-2.985c0.422,1.36,1.016,2.609,1.832,3.835
	c0.766,1.106,1.697,2.091,2.809,2.956c1.01,0.746,2.135,1.359,3.436,1.874l0.504,0.141c0.191,0.035,0.383,0.066,0.57,0.093
	L65.799,61.295z M88.729,46.507c-0.061,1.679-0.291,3.021-0.686,3.993c-0.248,0.615-0.57,1.028-0.955,1.229
	c-0.414,0.215-1.096,0.267-1.906,0.14c-0.686-0.287-1.291-0.64-1.881-1.1c-0.627-0.463-1.143-1.003-1.566-1.65
	c-0.514-0.743-0.902-1.56-1.189-2.496c-0.309-1.006-0.521-2.225-0.648-3.727l-0.18-0.822l-0.352-0.653l-0.504-0.711L67.48,31.442
	c0.008-0.314,0.014-0.637,0.01-0.964c1.232-1.9,2.428-3.587,4.025-4.944c1.512-1.291,3.313-2.194,5.484-2.744l0.195,0.251v0.55
	l0.219-0.27l6.373,8.175c0.967,1.53,1.854,3.087,2.641,4.625c0.867,1.702,1.52,3.131,2.041,4.473
	C88.701,42.775,88.789,44.765,88.729,46.507z M90.59,56.025c0.49-0.372,0.936-0.811,1.33-1.314c0.543,0.275,1.098,0.502,1.658,0.68
	L90.59,56.025z M99.596,48.451c-0.428,0.46-0.873,0.845-1.365,1.182c-0.459,0.334-0.959,0.556-1.471,0.644
	c-0.133,0.024-0.277,0.037-0.428,0.037H96.33c-0.289,0-0.611-0.046-0.887-0.116c-0.105-0.032-0.213-0.067-0.318-0.105
	c0.209-1.125,0.326-2.337,0.352-3.612c0.068-2.131-0.035-4.499-0.311-7.041l-0.223-0.843c-0.74-1.897-1.57-3.754-2.469-5.517
	c-0.924-1.813-1.961-3.611-3.078-5.34c-1-1.56-2.189-3.241-3.662-5.167c-0.803-1.013-1.797-2.25-2.867-3.492
	c1.295-1.402,2.721-2.514,4.324-3.372c1.664-0.883,3.514-1.479,5.514-1.777l6.891,13.16V48.451z M123.62,46.878
	c0.891-0.309,1.756-0.731,2.502-1.226l1.264-0.758v-1.133l0.029-0.666c0.061-1.242,0.117-2.454,0.107-3.668
	c0.756,0.335,1.543,0.554,2.342,0.652c0.02,0.002,0.039,0.005,0.059,0.007l1.227,7.318l-28.881,6.139
	c2.184-1.604,2.907-2.635,2.938-4.384l0.098,0.033c1.326,0.469,2.719,0.659,3.973,0.574c1.336-0.085,2.549-0.475,3.732-1.206
	c0.615-0.394,1.18-0.863,1.695-1.412l1.115,0.308c0.904,0.229,1.766,0.293,2.41,0.323c0.824,0.041,1.648-0.009,2.412-0.154
	C121.569,47.499,122.629,47.231,123.62,46.878z M121.596,35.714c0.451,1.799,0.467,3.603,0.363,5.9
	c-0.049,0.02-0.096,0.039-0.145,0.059c-0.676,0.234-1.404,0.414-2.113,0.517c-0.145,0.026-0.295,0.047-0.453,0.063l0.02-2.886
	c0.123-1.744,0.27-3.837,0.375-5.952C120.286,34.225,120.946,35,121.596,35.714z M192.772,49.142
	c-2.775,2.282-6.1,3.881-9.594,4.618c-4.197,0.838-8.545,0.453-12.486-1.086c-3.994-1.593-7.41-4.272-9.887-7.766
	c-0.662-0.914-1.537-1.608-2.588-2.03c-0.668-0.246-1.354-0.37-2.033-0.37c-0.402,0-0.801,0.044-1.146,0.123l-7.307,1.497V33.199
	l5.09-1.055c1.092-0.202,2.096-0.738,2.857-1.502c0.805-0.752,1.346-1.717,1.617-2.896c0.895-4.177,2.965-7.98,5.979-10.993
	c3.041-3.012,6.865-5.06,11.066-5.925c3.484-0.734,7.145-0.576,10.625,0.46c1.506,0.439,2.939,1.029,4.291,1.765l-16.117,3.301
	c-1.498,0.3-2.818,1.206-3.596,2.442c-0.842,1.269-1.148,2.786-0.854,4.297l4.471,21.591c0.164,0.822,0.465,1.518,0.861,2.046
	c0.459,0.688,1.014,1.232,1.58,1.578c0.652,0.436,1.369,0.724,2.082,0.836c0.717,0.143,1.496,0.137,2.18-0.011l16.115-3.3
	C195.022,47.052,193.944,48.167,192.772,49.142z" class="color c1"/>
</svg>