<svg version="1.1" id="图层_1" x="0px" y="0px" width="88.57px" height="68.026px" viewBox="0 0 88.57 68.026" enable-background="new 0 0 88.57 68.026" xml:space="preserve" xmlns="http://www.w3.org/2000/svg" xmlns:xlink="http://www.w3.org/1999/xlink" xmlns:xml="http://www.w3.org/XML/1998/namespace">
  <path fill="#D4351D" d="M39.765,37.47l9.981-1.435l-10.763,8.333l7.619,2.601l6.05-8.079l-1.721,13.501l7.227-3.548l-1.436-9.986
	l8.333,10.762l2.598-7.617l-8.078-6.042l13.502,1.716l-3.549-7.226l-9.986,1.436l10.763-8.333l-7.619-2.603l-6.046,8.076
	l1.715-13.498l-7.22,3.547l1.435,9.987L44.24,18.298l-2.604,7.614l8.078,6.046l-13.501-1.716L39.765,37.47z M52.249,34.304
	c-0.189-1.323,0.73-2.552,2.055-2.742c1.322-0.19,2.552,0.729,2.742,2.053c0.189,1.324-0.73,2.553-2.054,2.742
	C53.67,36.547,52.44,35.627,52.249,34.304z M0,1.036L7.21,0l4.115,28.642l-7.207,1.036L0,1.036z M15.441,1.933l3.306,22.991
	l-1.657,0.238L13.761,1.995L15.441,1.933z M10.075,26.17L7.298,2.234l4.881-0.18l3.352,23.331L10.075,26.17z M17.024,1.874
	L20.304,24.7l2.052-0.296c-1.421,4.696-1.806,9.711-1.102,14.602c2.652,18.465,19.831,31.328,38.298,28.673
	c18.462-2.652,31.325-19.834,28.672-38.298c-1.273-8.848-5.896-16.704-13.015-22.115c-7.104-5.399-15.881-7.751-24.722-6.629
	l-2.411,0.092l-0.393,0.014l-0.303,0.012L24.465,1.599L17.024,1.874z M71.08,60.556c8.587-6.612,13.478-17.54,11.829-29.016
	C80.477,14.611,64.725,2.818,47.797,5.251c-4.376,0.628-8.403,2.153-11.938,4.353c4.087-3.148,9.008-5.325,14.471-6.109
	c16.926-2.433,32.678,9.36,35.11,26.29C87.245,42.345,81.219,54.25,71.08,60.556z M33.288,37.28
	c-1.7-11.827,6.541-22.831,18.37-24.531c11.824-1.7,22.827,6.538,24.528,18.365c1.699,11.828-6.539,22.833-18.363,24.532
	C45.993,57.347,34.987,49.108,33.288,37.28z" class="color c1"/>
</svg>