<svg version="1.1" id="图层_1" x="0px" y="0px" width="73.144px" height="50.178px" viewBox="0 0 73.144 50.178" enable-background="new 0 0 73.144 50.178" xml:space="preserve" xmlns="http://www.w3.org/2000/svg" xmlns:xlink="http://www.w3.org/1999/xlink" xmlns:xml="http://www.w3.org/XML/1998/namespace">
  <g>
    <rect x="26.618" y="23.127" fill="#115496" width="7.087" height="5" class="color c1"/>
    <rect x="27.652" y="35.717" transform="matrix(-0.9554 -0.2953 0.2953 -0.9554 50.7269 84.0941)" fill="#115496" width="8.12" height="5" class="color c1"/>
    <rect x="13.789" y="13.435" transform="matrix(-0.3098 -0.9508 0.9508 -0.3098 4.6884 38.4191)" fill="#115496" width="5" height="8.146" class="color c1"/>
    <rect x="29.278" y="8.383" transform="matrix(-0.3101 -0.9507 0.9507 -0.3101 29.7913 46.5312)" fill="#115496" width="5" height="8.147" class="color c1"/>
    <polygon fill="#115496" points="5.269,23.127 3.896,18.919 0.093,20.159 1.354,24.024 1.354,26.651 0,31.035 3.822,32.216 
		5.084,28.127 5.354,23.703 	" class="color c1"/>
    <rect x="12.137" y="30.923" transform="matrix(-0.9554 -0.2953 0.2953 -0.9554 21.8029 70.1388)" fill="#115496" width="8.12" height="5" class="color c1"/>
    <rect x="12.442" y="23.127" fill="#115496" width="7.088" height="5" class="color c1"/>
    <rect x="58.285" y="0.997" transform="matrix(-0.3101 -0.9507 0.9507 -0.3101 76.7877 61.7151)" fill="#115496" width="5" height="4" class="color c1"/>
    <rect x="69.144" y="23.127" fill="#115496" width="4" height="5" class="color c1"/>
    <rect x="58.777" y="44.699" transform="matrix(-0.9554 -0.2952 0.2952 -0.9554 104.9121 110.2354)" fill="#115496" width="4" height="5" class="color c1"/>
    <rect x="43.168" y="40.512" transform="matrix(-0.9554 -0.2952 0.2952 -0.9554 79.6536 98.0504)" fill="#115496" width="8.121" height="5" class="color c1"/>
    <rect x="40.792" y="23.127" fill="#115496" width="7.088" height="5" class="color c1"/>
    <rect x="54.968" y="23.127" fill="#115496" width="7.088" height="5" class="color c1"/>
    <rect x="44.768" y="3.332" transform="matrix(-0.31 -0.9508 0.9508 -0.31 54.8783 54.6408)" fill="#115496" width="5" height="8.146" class="color c1"/>
  </g>
</svg>