<svg version="1.1" id="图层_1" x="0px" y="0px" width="226.176px" height="156.939px" viewBox="0 0 226.176 156.939" enable-background="new 0 0 226.176 156.939" xml:space="preserve" xmlns="http://www.w3.org/2000/svg" xmlns:xlink="http://www.w3.org/1999/xlink" xmlns:xml="http://www.w3.org/XML/1998/namespace">
  <path fill="#020202" d="M148.32,46c0,15.648-6.293,30.83-17.35,41.888c-0.607,0.604-1.228,1.186-1.853,1.752
	c2.079,4.118,5.774,40.879,7.711,64.295c1.313-0.291,2.642-0.595,3.991-0.935l-3.51-57.406l4.828-3.692
	c0,0,18.723-41.289,16.221-46.426c0.877,0.388-10.227-3.898-10.227-3.898C148.247,43.045,148.32,44.52,148.32,46z" class="color c1"/>
  <path fill="#F7931E" d="M100.482,58.998l-85.12-44.877L0,48.927l141.217,62.042c0,0-11.533-46.703-16.35-65.975
	c24.436,16.301,43.396,36.379,67.834,52.682c-6.35,2.675-13.469,5.41-19.814,8.084c15.695,5.443,35.916,9.214,53.289,14.531
	c-6.685-14.99-18.585-35.531-28.664-48.482c-0.822,6.836,4.176,11.68,3.355,18.516C167.152,61.734,91.963,0,91.963,0L100.482,58.998
	z" class="color c2"/>
  <polygon fill="#020202" points="116.624,13.967 102.027,1.588 90.812,16.646 106.395,28.626 " class="color c1"/>
  <polygon fill="#020202" points="130.73,23.984 118.534,14.285 106.564,28.756 120.697,39.621 " class="color c1"/>
  <path fill="#020202" d="M140.494,67.822c0,0-4.477,0.297-6.477-1.703c-3.582-3.582-3.287-6.414-3.287-6.414l5.09-8.873l9.791-12.106
	l12.748,6.75l-11.086,14.414L140.494,67.822z" class="color c1"/>
  <path fill="#020202" d="M130.877,24.07l-10.302,19.5l-3.858,5.896l12.637-4.71c0,0-3.143,9.721-10.574,12.906
	c0.27,0.303,0.558,0.583,0.878,0.814c2.997,2.172,8.403,1.668,8.403,1.668l6.004-7.607l10.9-14.596L130.877,24.07z" class="color c1"/>
  <path fill="#020202" d="M89.563,22.293l-5.276-2.979L59.273,53.814l30.619,42.911l-4.539,56.895
	c2.184,0.623,4.603,1.203,7.255,1.703c6.324,1.193,13.959,1.908,22.873,1.502l-2.946-72.82c3.885-30.217-26.06-26.697-26.06-26.697
	l2.528-12.763c35.947,19.08,40.35,0.213,40.35,0.213L89.563,22.293z" class="color c1"/>
  <path fill="#FFFFFF" d="M109.475,33.535c0,0-2.696,3.855-0.813,5.738c1.883,1.883,16.398,3.063,16.398,3.063L109.475,33.535z" class="color c3"/>
</svg>