<svg version="1.1" id="图层_1" x="0px" y="0px" width="174.182px" height="174.182px" viewBox="0 0 174.182 174.182" enable-background="new 0 0 174.182 174.182" xml:space="preserve" xmlns:xml="http://www.w3.org/XML/1998/namespace" xmlns="http://www.w3.org/2000/svg" xmlns:xlink="http://www.w3.org/1999/xlink">
  <path fill="#12006C" d="M114.361,44.574L95.399,63.536l17.328,17.326l18.962-18.961c2.615-2.616,6.866-2.616,9.48,0l0.654,0.654
	c2.615,2.614,2.615,6.865,0,9.48l-18.962,18.962l5.229,5.231l-9.479,9.479l-47.731-47.73l9.481-9.481l5.229,5.231l18.962-18.962
	c2.615-2.615,6.865-2.615,9.48,0l0.327,0.326C116.976,37.708,116.976,41.959,114.361,44.574z M87.09,0C39.068,0,0,39.069,0,87.091
	c0,15.72,4.145,30.819,12.023,44.16c0.084,0.167,0.359,0.688,0.846,1.434c1.315,2.019,4.151,5.587,8.789,7.72
	c1.594,0.731,3.393,1.3,5.424,1.566c0.862,0.113,1.733,0.171,2.615,0.171c8.17,0,17.146-4.893,26.77-14.556l1.335,1.335
	c3.924,3.923,10.135,3.923,13.73,0l2.289-2.288l4.25,4.249c3.924,3.925,10.462,3.925,14.385,0l20.598-20.596L65.648,62.882
	L45.052,83.479c-3.924,3.923-3.924,10.461,0,14.384l4.25,4.25l-2.288,2.288c-3.923,3.923-3.923,10.135,0,13.73l2.381,2.381
	c-8.107,8.139-15.412,12.22-20.904,11.557c-3.678-0.443-5.943-2.965-6.942-4.376C13.978,115.522,10,101.603,10,87.091
	C10,44.583,44.582,10,87.09,10c42.509,0,77.092,34.583,77.092,77.091c0,42.509-34.583,77.091-77.092,77.091
	c-13.518,0-26.813-3.548-38.449-10.259c-2.396-1.38-5.45-0.558-6.829,1.834c-1.38,2.394-0.56,5.449,1.834,6.83
	c13.152,7.585,28.176,11.595,43.444,11.595c48.021,0,87.092-39.068,87.092-87.091C174.181,39.069,135.111,0,87.09,0z" class="color c1"/>
</svg>