<svg version="1.1" id="图层_1" x="0px" y="0px" width="153.76px" height="161.929px" viewBox="0 0 153.76 161.929" enable-background="new 0 0 153.76 161.929" xml:space="preserve" xmlns="http://www.w3.org/2000/svg" xmlns:xlink="http://www.w3.org/1999/xlink" xmlns:xml="http://www.w3.org/XML/1998/namespace">
  <path fill="#42AC7B" d="M44.761,128.388c2.51,7.172,5.916,14.164,10.578,20.619c2.51,3.227,5.379,6.454,8.965,8.965
	c3.586,2.51,8.068,4.123,12.551,3.943c4.483-0.178,8.785-2.15,11.832-4.84c3.229-2.689,5.738-5.918,7.889-9.145
	c3.945-6.097,6.455-12.91,8.428-19.543c0.896,0,1.793,0.18,2.869,0.18c7.889,0.537,16.137,0.179,24.203-1.793
	c3.945-1.076,8.068-2.511,11.654-4.842c3.586-2.33,6.814-5.916,8.428-10.04c1.613-4.303,1.254-8.964,0-12.909
	c-1.256-3.944-3.227-7.529-5.559-10.758c-1.256-1.793-2.689-3.585-4.303-5.199c2.15-2.689,4.125-5.379,6.096-8.248
	c2.152-3.586,3.945-7.351,4.842-11.653c0.896-4.124,0.717-8.966-1.076-13.089c-1.973-4.124-5.379-7.172-8.965-9.144
	c-3.766-1.972-7.531-3.048-11.475-3.765c-7.889-1.255-15.6-0.896-23.309,0c-0.717,0-1.434,0.179-2.152,0.359
	c-0.178-0.717-0.357-1.435-0.537-1.972c-2.152-7.351-4.662-14.882-8.965-21.516c-2.15-3.406-4.662-6.634-7.889-9.144
	c-3.227-2.689-7.352-4.662-12.012-4.841c-4.482-0.18-8.965,1.434-12.551,3.944c-3.586,2.51-6.455,5.558-8.965,8.964
	c-4.842,6.634-8.248,13.985-10.938,21.695c-0.357,0.896-0.537,1.792-0.896,2.689c-6.992-0.717-14.164-0.896-21.336,0.359
	c-3.945,0.717-7.889,1.793-11.475,3.765c-3.586,1.972-6.992,5.02-8.965,9.143c-1.973,3.049-2.15,7.89-1.076,12.014
	c0.896,4.303,2.689,8.068,4.842,11.654c1.793,3.049,3.766,5.738,6.096,8.248c-1.434,1.613-2.869,3.406-4.303,5.199
	c-2.332,3.227-4.303,6.812-5.559,10.758c-1.254,3.943-1.433,8.605,0,12.908c1.613,4.303,4.842,7.71,8.428,10.041
	c3.586,2.33,7.709,3.943,11.652,4.84C29.521,128.388,37.23,128.746,44.761,128.388z M50.497,112.071
	c3.049,1.614,6.096,3.049,9.324,4.304c-2.689,0.717-5.379,1.255-8.068,1.613C51.214,116.017,50.857,114.044,50.497,112.071z
	 M93.886,145.958c-2.15,3.049-4.84,5.738-7.709,7.531c-2.869,1.972-6.275,3.047-9.322,2.868c-3.229-0.179-6.096-1.613-8.785-3.765
	c-2.512-2.152-4.662-5.02-6.635-7.889c-3.228-5.201-5.559-11.117-7.351-17.213c7.709-1.076,15.24-2.689,22.771-5.021
	c8.605,2.689,17.391,4.482,26.535,5.379C100.878,134.483,97.831,140.579,93.886,145.958z M93.886,116.375
	c5.021-2.151,9.861-4.482,14.703-7.172c-0.539,3.228-1.436,6.275-2.152,9.503C102.134,118.168,98.011,117.45,93.886,116.375z
	 M143.73,89.661c1.973,3.227,3.406,6.633,4.125,10.039c0.717,3.407,0.537,6.813-0.896,9.682c-1.436,2.869-3.766,5.021-6.814,6.635
	c-3.047,1.613-6.453,2.51-9.861,3.048c-6.992,1.255-14.344,0.897-21.693,0c-0.359,0-0.896-0.18-1.256-0.18
	c0.717-3.228,1.436-6.634,1.793-10.04c8.248-4.662,16.137-10.041,23.309-16.315c2.869-2.511,5.379-5.021,7.889-7.889
	C141.757,86.433,142.833,88.047,143.73,89.661z M108.23,38.023c7.531-0.358,15.24,0,22.592,1.793
	c3.586,0.896,6.992,2.331,10.041,4.304c2.867,1.972,5.199,4.481,6.273,7.529c1.076,3.049,0.896,6.275-0.178,9.504
	c-1.076,3.227-2.689,6.274-4.842,9.143c-1.613,2.332-3.586,4.482-5.559,6.635c-2.15-1.973-4.303-3.586-6.453-5.379
	c-6.275-4.842-13.088-9.145-20.082-13.089c-0.717-6.813-1.973-13.447-3.586-20.08C106.976,38.203,107.692,38.023,108.23,38.023z
	 M53.366,36.41c1.973-6.992,4.482-13.984,8.248-20.081c1.793-3.048,3.943-5.737,6.633-7.889c2.512-2.152,5.559-3.586,8.607-3.765
	c3.227-0.18,6.453,0.896,9.322,2.869c2.869,1.972,5.559,4.661,7.709,7.53c4.482,5.917,7.711,12.909,10.221,20.081
	c0.18,0.538,0.357,1.255,0.537,1.793c-9.502,1.435-18.824,3.765-27.789,6.813c-7.711-2.689-15.779-4.662-23.848-6.275
	C53.007,37.306,53.187,36.948,53.366,36.41z M49.601,55.595c4.662-2.511,9.324-4.662,14.164-6.814
	c-4.84,1.973-9.502,4.125-14.164,6.455c0.717-5.559,1.793-11.115,3.229-16.495c8.066,1.076,16.137,2.869,23.846,5.2
	c-4.303,1.434-8.605,3.048-12.91,4.84c4.305-1.792,8.607-3.227,13.09-4.66c4.483,1.434,8.785,2.868,13.088,4.66
	c-4.303-1.792-8.428-3.406-12.91-4.84c9.145-2.869,18.469-4.841,27.971-5.738c1.973,6.455,3.586,13.088,4.482,19.902
	c-6.455-3.406-12.91-6.635-19.723-9.324c6.812,2.869,13.447,6.097,19.723,9.861c1.076,7.173,1.434,14.523,1.613,21.875
	c0-7.172-0.359-14.523-1.256-21.695c6.814,3.945,13.27,8.606,19.006,13.807c1.973,1.793,4.123,3.765,5.916,5.736
	c-2.689,2.51-5.557,5.021-8.426,7.172c-5.02,3.945-10.4,7.352-15.957,10.579c0.357-5.2,0.537-10.399,0.537-15.599
	c0,5.199-0.357,10.578-0.897,15.777c-7.172,4.124-14.701,7.889-22.412,10.938c-3.584,1.434-7.35,2.868-11.115,4.123
	c-3.766-1.255-7.352-2.689-11.117-4.123c-5.736-2.331-11.475-5.021-17.031-8.068c-0.539-6.275-0.896-12.551-0.896-18.826
	C47.987,72.089,48.347,63.842,49.601,55.595z M6.749,61.153c-1.074-3.229-1.254-6.455-0.178-9.504
	c1.074-3.048,3.227-5.558,6.275-7.529c2.867-1.973,6.453-3.407,10.039-4.304c6.455-1.614,13.268-2.151,20.082-1.793
	c-2.332,7.71-3.945,15.599-4.842,23.487c-5.02,3.049-9.861,6.275-14.523,9.861c-2.15,1.793-4.303,3.586-6.453,5.379
	c-1.973-2.15-3.945-4.303-5.559-6.634C9.618,67.428,7.825,64.2,6.749,61.153z M37.589,92.888c-3.586-2.33-7.172-4.662-10.58-7.352
	c-2.867-2.33-5.736-4.66-8.426-7.172c1.973-1.972,3.945-3.943,5.916-5.736c4.303-3.766,8.785-7.172,13.627-10.221
	c-0.717,6.096-1.076,12.193-1.076,18.289C37.23,84.641,37.409,88.765,37.589,92.888z M23.425,119.064
	c-3.586-0.538-6.994-1.435-9.861-3.048c-3.049-1.613-5.379-3.766-6.814-6.635c-1.434-2.868-1.613-6.274-0.897-9.682
	c0.719-3.406,2.152-6.812,4.125-10.039c1.076-1.614,2.15-3.407,3.406-4.842c2.51,2.869,5.199,5.379,7.889,7.889
	c5.559,4.842,11.654,9.324,17.93,13.089c0.717,4.661,1.793,9.144,2.869,13.626C35.796,119.961,29.341,120.14,23.425,119.064z" class="color c1"/>
</svg>