<svg version="1.1" id="图层_1" x="0px" y="0px" width="165.283px" height="165.282px" viewBox="0 0 165.283 165.282" enable-background="new 0 0 165.283 165.282" xml:space="preserve" xmlns="http://www.w3.org/2000/svg" xmlns:xlink="http://www.w3.org/1999/xlink" xmlns:xml="http://www.w3.org/XML/1998/namespace">
  <circle fill="#C19B6F" cx="82.642" cy="82.641" r="82.642" class="color c1"/>
  <path opacity="0.2" fill="#FFFFFF" enable-background="new    " d="M82.642,150.82c-37.594,0-68.179-30.585-68.179-68.179
	c0-37.594,30.585-68.179,68.179-68.179c37.595,0,68.179,30.584,68.179,68.179C150.819,120.235,120.235,150.82,82.642,150.82z
	 M82.642,20.42c-34.309,0-62.22,27.912-62.22,62.221c0,34.309,27.911,62.22,62.22,62.22s62.22-27.911,62.22-62.22
	C144.862,48.333,116.95,20.42,82.642,20.42z" class="color c2"/>
  <path opacity="0.2" fill="#FFFFFF" enable-background="new    " d="M82.642,134.991c-28.864,0-52.346-23.484-52.346-52.35
	s23.481-52.348,52.346-52.348c28.865,0,52.347,23.483,52.347,52.348C134.987,111.504,111.506,134.991,82.642,134.991z
	 M82.642,36.251c-25.578,0-46.388,20.811-46.388,46.39c0,25.578,20.81,46.391,46.388,46.391c25.58,0,46.389-20.813,46.389-46.391
	C129.03,57.062,108.222,36.251,82.642,36.251z" class="color c2"/>
</svg>