<svg version="1.1" id="图层_1" x="0px" y="0px" width="120.725px" height="120.732px" viewBox="0 0 120.725 120.732" enable-background="new 0 0 120.725 120.732" xml:space="preserve" xmlns="http://www.w3.org/2000/svg" xmlns:xlink="http://www.w3.org/1999/xlink" xmlns:xml="http://www.w3.org/XML/1998/namespace">
  <path fill="#211F1F" d="M86.134,17.294c-0.006,0.123-0.009,0.246-0.014,0.369c-0.01,0.257-0.02,0.514-0.032,0.773
	c-0.013,0.316-0.027,0.637-0.043,0.955c-0.014,0.258-0.023,0.516-0.037,0.776c-0.018,0.324-0.035,0.65-0.053,0.977
	c-0.018,0.259-0.032,0.518-0.044,0.777c-0.021,0.331-0.042,0.667-0.064,1.001c-0.017,0.257-0.031,0.514-0.05,0.772
	c-0.023,0.338-0.048,0.68-0.073,1.018c-0.018,0.261-0.036,0.519-0.057,0.78c-0.025,0.343-0.054,0.686-0.079,1.034
	c-0.021,0.259-0.043,0.516-0.064,0.777c-0.029,0.349-0.06,0.701-0.092,1.051c-0.022,0.263-0.043,0.522-0.067,0.786
	c-0.033,0.353-0.067,0.708-0.1,1.062c-0.023,0.262-0.051,0.524-0.076,0.788c-0.035,0.358-0.07,0.717-0.108,1.075
	c-0.027,0.267-0.055,0.528-0.083,0.794c-0.036,0.359-0.077,0.718-0.116,1.079c-0.029,0.271-0.061,0.539-0.089,0.809
	c-0.042,0.36-0.086,0.723-0.124,1.082c-0.036,0.273-0.067,0.544-0.099,0.818c-0.044,0.363-0.088,0.727-0.133,1.093
	c-0.035,0.271-0.068,0.549-0.103,0.822c-0.048,0.365-0.095,0.73-0.143,1.097c-0.036,0.278-0.071,0.556-0.112,0.835
	c-0.045,0.366-0.096,0.733-0.148,1.104c-0.038,0.278-0.076,0.558-0.115,0.839c-0.052,0.367-0.106,0.738-0.159,1.108
	c-0.04,0.283-0.082,0.564-0.124,0.846c-0.055,0.373-0.112,0.746-0.167,1.119c-0.043,0.284-0.085,0.564-0.128,0.851
	c-0.058,0.372-0.117,0.749-0.178,1.122c-0.046,0.286-0.089,0.57-0.135,0.858c-0.059,0.372-0.123,0.745-0.184,1.12
	c-0.046,0.29-0.094,0.577-0.143,0.869c-0.063,0.372-0.125,0.743-0.19,1.117c-0.048,0.294-0.098,0.586-0.147,0.884
	c-0.069,0.379-0.136,0.76-0.204,1.14c-0.05,0.29-0.102,0.576-0.153,0.864c-0.07,0.389-0.141,0.776-0.211,1.164
	c-0.055,0.286-0.105,0.57-0.158,0.854c-0.071,0.387-0.147,0.774-0.221,1.163c-0.055,0.287-0.108,0.575-0.162,0.862
	c-0.079,0.403-0.16,0.808-0.239,1.209c-0.054,0.273-0.105,0.548-0.159,0.822c-0.09,0.45-0.182,0.898-0.273,1.349
	c-0.048,0.229-0.093,0.459-0.14,0.688c-0.139,0.68-0.282,1.359-0.427,2.042c-0.166,0.789-0.336,1.582-0.51,2.377
	c-0.056,0.265-0.116,0.526-0.173,0.787c-0.118,0.535-0.237,1.073-0.358,1.611c-0.071,0.318-0.147,0.636-0.222,0.956
	c-0.11,0.486-0.221,0.972-0.335,1.46c-0.083,0.342-0.165,0.688-0.245,1.029c-0.11,0.467-0.22,0.934-0.334,1.399
	c-0.088,0.358-0.178,0.718-0.265,1.078c-0.11,0.455-0.224,0.912-0.341,1.368c-0.091,0.365-0.185,0.731-0.276,1.098
	c-0.115,0.454-0.232,0.91-0.347,1.367c-0.095,0.365-0.191,0.73-0.289,1.098c-0.119,0.46-0.24,0.918-0.363,1.379
	c-0.097,0.361-0.192,0.722-0.29,1.083c-0.071,0.267-0.146,0.536-0.218,0.806c-0.316-0.051-0.635-0.098-0.949-0.147
	c-0.357-0.057-0.722-0.113-1.081-0.167c-0.485-0.08-0.967-0.159-1.447-0.237c-0.355-0.058-0.711-0.116-1.063-0.173
	c-0.479-0.081-0.953-0.162-1.43-0.244c-0.353-0.058-0.704-0.119-1.056-0.18c-0.444-0.076-0.887-0.156-1.329-0.233
	c-0.028-0.006-0.057-0.013-0.088-0.018c-0.345-0.06-0.691-0.12-1.036-0.185c-0.48-0.086-0.957-0.173-1.436-0.263
	c-0.332-0.062-0.664-0.124-0.994-0.186c-0.493-0.094-0.984-0.188-1.479-0.284c-0.31-0.058-0.625-0.118-0.936-0.178
	c-0.528-0.104-1.051-0.211-1.575-0.317c-0.273-0.056-0.55-0.108-0.824-0.163c-0.622-0.128-1.239-0.258-1.857-0.387
	c-0.175-0.035-0.352-0.071-0.523-0.107c-0.571-0.121-1.142-0.245-1.709-0.367c-0.108-0.024-0.216-0.046-0.323-0.069
	c-0.405-0.089-0.807-0.176-1.209-0.267c-0.274-0.06-0.551-0.121-0.824-0.183c-0.376-0.083-0.751-0.168-1.126-0.256
	c-0.298-0.067-0.598-0.136-0.898-0.202c-0.353-0.084-0.703-0.168-1.056-0.25c-0.317-0.073-0.639-0.147-0.957-0.224
	c-0.332-0.079-0.665-0.16-0.998-0.238c-0.333-0.08-0.666-0.161-0.998-0.24c-0.324-0.081-0.646-0.161-0.97-0.24
	c-0.34-0.084-0.678-0.166-1.015-0.251c-0.314-0.079-0.628-0.16-0.941-0.237c-0.344-0.089-0.688-0.175-1.03-0.263
	c-0.19-0.05-0.381-0.099-0.574-0.148c-0.271-0.562-0.591-1.102-0.968-1.613c-1.616-2.196-3.991-3.631-6.687-4.04
	c-1.054-0.158-2.116-0.154-3.159,0.014c-1.402,0.227-2.697,0.73-3.841,1.452c-0.239-0.075-0.477-0.151-0.717-0.227
	c-0.343-0.109-0.684-0.218-1.024-0.327c-0.259-0.085-0.518-0.168-0.775-0.251c-0.338-0.11-0.675-0.221-1.014-0.333
	c-0.254-0.083-0.507-0.168-0.762-0.251c-0.334-0.111-0.67-0.225-1.004-0.338c-0.252-0.085-0.502-0.171-0.751-0.254
	c-0.333-0.114-0.664-0.228-0.992-0.341c-0.249-0.087-0.497-0.175-0.743-0.261c-0.327-0.114-0.652-0.229-0.977-0.344
	c-0.243-0.085-0.484-0.175-0.729-0.261c-0.323-0.117-0.647-0.233-0.966-0.35c-0.242-0.09-0.483-0.177-0.722-0.266
	c-0.318-0.116-0.633-0.233-0.946-0.349c-0.241-0.091-0.479-0.182-0.721-0.271c-0.31-0.117-0.619-0.234-0.925-0.353
	c-0.238-0.089-0.473-0.183-0.711-0.273c-0.303-0.116-0.606-0.235-0.908-0.353c-0.234-0.094-0.469-0.186-0.701-0.279
	c-0.299-0.118-0.598-0.234-0.893-0.355c-0.231-0.095-0.462-0.186-0.692-0.281c-0.153-0.062-0.306-0.125-0.461-0.188
	c-0.135-0.059-0.274-0.112-0.413-0.169c-0.227-0.096-0.453-0.189-0.68-0.284c-0.287-0.119-0.572-0.238-0.855-0.361
	c-0.227-0.092-0.451-0.19-0.675-0.286c-0.279-0.118-0.556-0.238-0.831-0.357c-0.223-0.1-0.449-0.197-0.671-0.297
	c-0.269-0.118-0.539-0.238-0.807-0.356c-0.223-0.1-0.444-0.199-0.664-0.302c-0.263-0.117-0.523-0.235-0.783-0.355
	c-0.219-0.1-0.438-0.203-0.659-0.304c-0.252-0.118-0.505-0.237-0.756-0.356c-0.219-0.103-0.434-0.207-0.652-0.312
	c-0.121-0.056-0.238-0.115-0.359-0.173c-0.005-0.192-0.008-0.388-0.011-0.581C0.005,60.994,0,60.695,0,60.392
	c0.002-0.311,0.006-0.621,0.013-0.934c0.002-0.298,0.006-0.597,0.016-0.896c0.01-0.312,0.024-0.624,0.039-0.937
	c0.014-0.296,0.029-0.594,0.046-0.89c0.018-0.314,0.043-0.627,0.067-0.939c0.022-0.297,0.044-0.593,0.072-0.887
	c0.028-0.313,0.062-0.627,0.098-0.94c0.03-0.292,0.062-0.587,0.097-0.878c0.039-0.316,0.084-0.629,0.127-0.943
	c0.04-0.29,0.078-0.58,0.123-0.869c0.049-0.316,0.102-0.629,0.157-0.942c0.048-0.288,0.095-0.573,0.147-0.862
	c0.06-0.314,0.123-0.63,0.188-0.943c0.057-0.282,0.111-0.567,0.172-0.85c0.068-0.315,0.145-0.63,0.218-0.946
	c0.065-0.279,0.126-0.557,0.194-0.837c0.08-0.314,0.165-0.632,0.248-0.946c0.071-0.273,0.145-0.55,0.219-0.824
	c0.088-0.318,0.185-0.634,0.281-0.95c0.077-0.267,0.154-0.537,0.238-0.805c0.102-0.32,0.209-0.639,0.316-0.958
	c0.084-0.262,0.168-0.522,0.256-0.782c0.113-0.325,0.234-0.648,0.354-0.972c0.091-0.25,0.177-0.501,0.273-0.748
	c0.128-0.342,0.267-0.677,0.402-1.015c0.091-0.229,0.178-0.46,0.274-0.688c0.154-0.373,0.319-0.743,0.482-1.11
	c0.083-0.19,0.161-0.382,0.247-0.572c0.178-0.391,0.363-0.778,0.549-1.166c0.348-0.224,0.577-0.609,0.579-1.051
	c-0.002-0.041-0.009-0.078-0.013-0.116c0.029-0.059,0.058-0.115,0.085-0.172c0.209-0.411,0.424-0.819,0.64-1.226
	c1.526-2.837,3.25-5.521,5.136-7.997c8.348-11.022,20.41-18.88,33.963-22.126c3.849-0.934,7.845-1.484,11.876-1.635
	c0.606-0.023,1.214-0.037,1.819-0.04c0.202,0,0.399,0.003,0.596,0.004c0.41,0.001,0.818,0.001,1.228,0.011
	c0.237,0.008,0.475,0.02,0.713,0.028c0.369,0.013,0.739,0.023,1.106,0.043c0.255,0.014,0.509,0.037,0.763,0.054
	c0.352,0.023,0.703,0.045,1.053,0.074c0.265,0.024,0.529,0.052,0.792,0.08c0.338,0.033,0.68,0.064,1.021,0.104
	c0.271,0.029,0.54,0.068,0.806,0.102c0.334,0.044,0.667,0.084,1,0.134c0.272,0.039,0.544,0.086,0.816,0.131
	c0.326,0.053,0.655,0.102,0.984,0.162c0.273,0.047,0.547,0.103,0.82,0.155c0.323,0.063,0.646,0.123,0.967,0.19
	c0.277,0.057,0.554,0.121,0.828,0.183c0.316,0.071,0.636,0.141,0.951,0.218c0.278,0.067,0.555,0.139,0.831,0.209
	c0.312,0.081,0.624,0.16,0.938,0.244c0.276,0.075,0.551,0.156,0.827,0.237c0.311,0.088,0.618,0.176,0.927,0.27
	c0.274,0.083,0.552,0.174,0.826,0.262c0.304,0.098,0.609,0.195,0.912,0.298c0.276,0.091,0.551,0.191,0.822,0.287
	c0.3,0.107,0.603,0.212,0.9,0.324c0.275,0.104,0.548,0.209,0.818,0.316c0.298,0.113,0.592,0.231,0.885,0.349
	c0.273,0.109,0.542,0.227,0.812,0.343c0.171,0.069,0.34,0.143,0.506,0.215c-0.603,1.064-1.026,2.245-1.219,3.511
	C82.726,11.875,83.908,15.076,86.134,17.294z M98.767,19.985c-0.006,0.123-0.01,0.241-0.017,0.361
	c-0.042,0.942-0.091,1.89-0.146,2.842c-0.007,0.105-0.014,0.214-0.02,0.316c-0.057,0.975-0.119,1.952-0.189,2.937
	c-0.006,0.079-0.012,0.157-0.018,0.234c-0.073,1.016-0.15,2.035-0.235,3.058c-0.004,0.037-0.008,0.071-0.01,0.104
	c-0.177,2.117-0.384,4.253-0.616,6.408c-0.005,0.05-0.01,0.104-0.018,0.155c-0.111,1.033-0.229,2.065-0.354,3.104
	c-0.012,0.1-0.022,0.197-0.035,0.295c-0.12,1.008-0.248,2.022-0.383,3.04c-0.015,0.126-0.031,0.251-0.05,0.374
	c-0.131,1.002-0.271,2.004-0.411,3.008c-0.021,0.145-0.042,0.284-0.063,0.427c-0.145,0.997-0.292,1.996-0.448,2.997
	c-0.021,0.15-0.047,0.301-0.067,0.45c-0.157,0.999-0.317,2.002-0.483,3.005c-0.025,0.15-0.049,0.298-0.075,0.448
	c-0.168,1.009-0.343,2.023-0.522,3.037c-0.023,0.138-0.049,0.275-0.072,0.411c-0.186,1.031-0.375,2.063-0.569,3.098
	c-0.021,0.113-0.043,0.223-0.063,0.334c-0.203,1.063-0.408,2.128-0.621,3.192c-0.015,0.068-0.028,0.136-0.042,0.204
	c-0.224,1.111-0.449,2.223-0.685,3.337c-0.172,0.803-0.344,1.602-0.52,2.399c-0.064,0.299-0.131,0.596-0.2,0.897
	c-0.107,0.496-0.219,0.994-0.33,1.488c-0.08,0.344-0.157,0.683-0.235,1.022c-0.104,0.448-0.207,0.896-0.312,1.344
	c-0.084,0.354-0.168,0.707-0.251,1.061c-0.104,0.428-0.205,0.856-0.31,1.28c-0.087,0.359-0.174,0.711-0.261,1.067
	c-0.104,0.419-0.208,0.837-0.311,1.254c-0.09,0.355-0.181,0.705-0.268,1.057c-0.107,0.415-0.21,0.825-0.317,1.234
	c-0.092,0.352-0.184,0.701-0.276,1.049c-0.104,0.404-0.212,0.808-0.322,1.211c-0.092,0.347-0.187,0.693-0.281,1.039
	c-0.041,0.153-0.081,0.312-0.124,0.463c0.077,0.009,0.152,0.018,0.227,0.024c0.075,0.008,0.154,0.018,0.228,0.023
	c0.256,0.026,0.509,0.052,0.763,0.078c0.318,0.032,0.638,0.06,0.955,0.093c0.051,0.005,0.1,0.009,0.151,0.015
	c0.253,0.023,0.508,0.047,0.758,0.07c0.352,0.033,0.705,0.065,1.053,0.096c0.016,0,0.034,0.001,0.051,0.005
	c0.25,0.019,0.497,0.041,0.748,0.062c0.369,0.031,0.74,0.062,1.109,0.092c0.24,0.02,0.484,0.038,0.728,0.057
	c0.376,0.029,0.751,0.055,1.126,0.082c0.232,0.018,0.462,0.035,0.694,0.049c0.392,0.027,0.783,0.052,1.173,0.076
	c0.209,0.015,0.418,0.028,0.63,0.041c0.43,0.025,0.862,0.049,1.289,0.073c0.163,0.009,0.328,0.019,0.492,0.026
	c0.474,0.025,0.943,0.047,1.414,0.068c0.119,0.005,0.239,0.012,0.357,0.018c0.48,0.021,0.96,0.039,1.436,0.058
	c0.11,0.003,0.223,0.006,0.332,0.013c0.11,0.002,0.222,0.005,0.334,0.01c0.38,0.012,0.758,0.023,1.134,0.033
	c0.081,0.001,0.167,0.005,0.248,0.006c0.182,0.006,0.361,0.008,0.544,0.014c0.307,0.006,0.614,0.014,0.923,0.018
	c0.074,0.004,0.148,0.006,0.224,0.006c0.209,0.002,0.415,0.005,0.623,0.01c0.295,0.001,0.593,0.005,0.887,0.007
	c0.053,0.002,0.106,0.002,0.159,0.002c0.218,0.002,0.432,0.003,0.649,0.003c0.309,0.002,0.614,0.002,0.919,0
	c0.026,0.002,0.05,0.002,0.072,0.002c0.223,0,0.441-0.002,0.658-0.002c0.309-0.003,0.616-0.005,0.92-0.011
	c0.016,0.001,0.029,0,0.042,0.001c0.219-0.002,0.435-0.008,0.655-0.011c0.313-0.005,0.625-0.011,0.936-0.019
	c0.214-0.005,0.429-0.011,0.641-0.016c0.135-0.005,0.27-0.009,0.404-0.015c0.1-0.209,0.196-0.421,0.296-0.631
	c0.119-0.262,0.238-0.521,0.355-0.784c0.126-0.29,0.249-0.579,0.374-0.87c0.111-0.265,0.225-0.528,0.333-0.795
	c0.118-0.294,0.232-0.59,0.347-0.884c0.104-0.268,0.207-0.531,0.309-0.798c0.11-0.3,0.217-0.6,0.32-0.9
	c0.094-0.269,0.193-0.534,0.284-0.801c0.103-0.306,0.198-0.61,0.296-0.917c0.085-0.267,0.175-0.535,0.256-0.802
	c0.094-0.309,0.182-0.619,0.271-0.929c0.078-0.27,0.156-0.535,0.23-0.805c0.085-0.315,0.164-0.632,0.246-0.946
	c0.067-0.266,0.137-0.532,0.202-0.802c0.077-0.32,0.149-0.642,0.218-0.961c0.062-0.266,0.123-0.531,0.18-0.797
	c0.068-0.324,0.129-0.653,0.191-0.98c0.052-0.265,0.105-0.527,0.154-0.789c0.058-0.334,0.109-0.668,0.166-1.001
	c0.039-0.261,0.086-0.519,0.125-0.779c0.048-0.338,0.091-0.678,0.135-1.017c0.033-0.257,0.074-0.514,0.104-0.772
	c0.042-0.347,0.071-0.693,0.107-1.042c0.024-0.25,0.054-0.502,0.074-0.751c0.033-0.359,0.056-0.722,0.079-1.081
	c0.018-0.239,0.039-0.478,0.054-0.718c0.021-0.376,0.033-0.755,0.047-1.131c0.01-0.225,0.026-0.447,0.029-0.67
	c0.012-0.414,0.013-0.827,0.014-1.239c0.002-0.189,0.009-0.377,0.009-0.564c-0.003-0.603-0.014-1.204-0.034-1.806
	c-0.126-3.943-0.642-7.862-1.533-11.649c-0.096-0.416-0.195-0.831-0.303-1.242c-0.033-0.142-0.072-0.278-0.109-0.419
	c-0.071-0.271-0.14-0.546-0.215-0.815c-0.044-0.165-0.094-0.326-0.142-0.492c-0.069-0.242-0.139-0.488-0.212-0.734
	c-0.052-0.175-0.107-0.346-0.159-0.52c-0.071-0.232-0.144-0.465-0.219-0.695c-0.057-0.178-0.115-0.354-0.176-0.533
	c-0.075-0.225-0.147-0.447-0.226-0.672c-0.063-0.181-0.127-0.359-0.191-0.539c-0.077-0.221-0.154-0.441-0.237-0.66
	c-0.065-0.181-0.135-0.358-0.202-0.538c-0.083-0.217-0.166-0.433-0.25-0.648c-0.07-0.181-0.143-0.358-0.215-0.537
	c-0.086-0.214-0.174-0.426-0.262-0.64c-0.075-0.178-0.15-0.355-0.226-0.531c-0.093-0.213-0.184-0.426-0.277-0.636
	c-0.077-0.175-0.156-0.349-0.233-0.524c-0.096-0.211-0.193-0.424-0.293-0.635c-0.081-0.168-0.161-0.342-0.244-0.512
	c-0.099-0.212-0.204-0.424-0.308-0.635c-0.082-0.167-0.165-0.334-0.247-0.5c-0.11-0.212-0.222-0.428-0.333-0.639
	c-0.083-0.16-0.167-0.321-0.25-0.482c-0.116-0.218-0.234-0.435-0.356-0.655c-0.082-0.15-0.162-0.302-0.246-0.454
	c-0.129-0.227-0.259-0.455-0.391-0.681c-0.078-0.139-0.157-0.277-0.236-0.414c-0.15-0.253-0.301-0.504-0.453-0.753
	c-0.065-0.109-0.129-0.221-0.199-0.33c-0.44-0.718-0.897-1.428-1.368-2.128c-0.066-0.097-0.136-0.194-0.199-0.292
	c-0.173-0.25-0.343-0.499-0.519-0.746c-0.088-0.128-0.178-0.25-0.269-0.375c-0.154-0.217-0.309-0.435-0.467-0.65
	c-0.102-0.134-0.203-0.269-0.305-0.405c-0.151-0.203-0.302-0.404-0.455-0.604c-0.108-0.14-0.218-0.278-0.327-0.417
	c-0.151-0.194-0.301-0.386-0.455-0.576c-0.112-0.141-0.229-0.281-0.343-0.423c-0.153-0.185-0.304-0.371-0.458-0.556
	c-0.119-0.14-0.236-0.28-0.356-0.42c-0.156-0.182-0.312-0.36-0.465-0.54c-0.123-0.139-0.246-0.276-0.371-0.417
	c-0.156-0.177-0.313-0.353-0.473-0.525c-0.126-0.142-0.255-0.279-0.382-0.415c-0.16-0.172-0.318-0.343-0.48-0.513
	c-0.129-0.135-0.262-0.273-0.394-0.409c-0.162-0.167-0.326-0.334-0.489-0.5c-0.133-0.133-0.267-0.268-0.402-0.399
	c-0.166-0.165-0.334-0.33-0.504-0.494c-0.137-0.129-0.271-0.261-0.404-0.389c-0.123-0.113-0.242-0.225-0.364-0.336
	c-0.732,0.983-1.64,1.829-2.68,2.493C98.803,19.11,98.785,19.548,98.767,19.985z M30.896,91.007c-3.806-0.578-6.8-3.201-8.048-6.582
	c-0.87-0.281-1.743-0.562-2.607-0.85c-0.029-0.01-0.057-0.019-0.086-0.028c-1.009-0.334-2.011-0.676-3.008-1.021
	c-0.022-0.007-0.042-0.016-0.064-0.021c-0.976-0.338-1.941-0.68-2.902-1.024c-0.07-0.025-0.144-0.052-0.216-0.078
	c-0.925-0.333-1.843-0.67-2.756-1.011c-0.099-0.037-0.202-0.075-0.302-0.112c-0.888-0.334-1.769-0.672-2.642-1.012
	c-0.118-0.046-0.237-0.091-0.355-0.136c-0.858-0.337-1.711-0.677-2.557-1.021c-0.124-0.051-0.25-0.101-0.374-0.152
	c-0.837-0.34-1.667-0.683-2.488-1.029c-0.059-0.027-0.123-0.052-0.184-0.077c0.017,0.049,0.03,0.1,0.042,0.148
	c0.052,0.181,0.108,0.36,0.161,0.541c0.065,0.223,0.131,0.443,0.199,0.664c0.057,0.185,0.117,0.367,0.176,0.552
	c0.067,0.214,0.139,0.431,0.209,0.646c0.062,0.185,0.127,0.37,0.19,0.555c0.071,0.211,0.144,0.421,0.219,0.632
	c0.065,0.186,0.134,0.371,0.202,0.557c0.077,0.209,0.152,0.414,0.231,0.62c0.071,0.187,0.143,0.372,0.216,0.559
	c0.077,0.201,0.159,0.404,0.24,0.608c0.075,0.186,0.15,0.37,0.229,0.556c0.082,0.2,0.167,0.402,0.253,0.602
	c0.078,0.183,0.157,0.367,0.238,0.549c0.089,0.202,0.177,0.399,0.266,0.598c0.083,0.182,0.166,0.363,0.251,0.545
	c0.09,0.199,0.183,0.395,0.277,0.591c0.089,0.183,0.172,0.36,0.26,0.54c0.097,0.196,0.195,0.39,0.292,0.585
	c0.09,0.177,0.178,0.355,0.27,0.531c0.1,0.195,0.204,0.389,0.306,0.584c0.093,0.173,0.184,0.347,0.278,0.522
	c0.106,0.196,0.218,0.394,0.326,0.588c0.093,0.167,0.184,0.334,0.278,0.501c0.118,0.209,0.241,0.414,0.359,0.621
	c0.091,0.151,0.178,0.305,0.268,0.457c0.164,0.275,0.334,0.548,0.503,0.82c0.116,0.192,0.236,0.382,0.354,0.57
	c0.149,0.237,0.301,0.473,0.452,0.708c0.099,0.149,0.199,0.296,0.299,0.446c0.13,0.199,0.261,0.395,0.394,0.591
	c0.108,0.155,0.219,0.312,0.325,0.466c0.13,0.185,0.256,0.37,0.389,0.555c0.113,0.16,0.229,0.316,0.342,0.472
	c0.131,0.18,0.262,0.358,0.393,0.538c0.119,0.154,0.237,0.311,0.358,0.471c0.13,0.173,0.264,0.348,0.397,0.521
	c0.122,0.154,0.243,0.311,0.369,0.465c0.134,0.172,0.269,0.341,0.405,0.511c0.125,0.153,0.252,0.307,0.38,0.459
	c0.138,0.17,0.276,0.336,0.417,0.502c0.129,0.152,0.258,0.301,0.386,0.451c0.143,0.165,0.289,0.332,0.433,0.494
	c0.13,0.148,0.262,0.295,0.394,0.441c0.147,0.162,0.295,0.326,0.445,0.488c0.131,0.143,0.263,0.287,0.399,0.43
	c0.152,0.16,0.304,0.318,0.457,0.479c0.136,0.142,0.27,0.281,0.407,0.421c0.154,0.159,0.314,0.319,0.472,0.476
	c0.136,0.137,0.271,0.273,0.409,0.408c0.161,0.16,0.326,0.314,0.489,0.471c0.14,0.133,0.274,0.262,0.412,0.393
	c0.168,0.16,0.338,0.316,0.508,0.473c0.139,0.123,0.274,0.25,0.41,0.375c0.179,0.158,0.356,0.316,0.535,0.473
	c0.135,0.121,0.268,0.238,0.404,0.354c0.189,0.164,0.38,0.324,0.573,0.484c0.127,0.109,0.252,0.219,0.382,0.324
	c0.214,0.18,0.433,0.354,0.651,0.529c0.107,0.086,0.214,0.176,0.321,0.26c0.328,0.26,0.659,0.516,0.993,0.771
	c1.631,1.24,3.354,2.412,5.152,3.504c1.318,0.799,2.673,1.561,4.063,2.271c0.016,0.006,0.028,0.012,0.04,0.02
	c0.224,0.125,0.466,0.232,0.725,0.352l0.035,0.014c0.013,0.006,0.026,0.012,0.038,0.02c0.544,0.268,1.092,0.525,1.646,0.775
	c0.177,0.084,0.356,0.154,0.533,0.234c0.379,0.168,0.756,0.336,1.137,0.496c0.217,0.09,0.437,0.174,0.655,0.262
	c0.345,0.139,0.688,0.279,1.035,0.414c0.238,0.09,0.476,0.172,0.716,0.264c0.332,0.119,0.661,0.242,0.995,0.361
	c0.249,0.086,0.502,0.166,0.753,0.246c0.324,0.109,0.647,0.221,0.976,0.324c0.262,0.082,0.524,0.156,0.785,0.234
	c0.32,0.098,0.639,0.193,0.961,0.285c0.267,0.074,0.533,0.143,0.804,0.213c0.317,0.086,0.637,0.174,0.956,0.254
	c0.273,0.068,0.545,0.127,0.818,0.191c0.319,0.074,0.637,0.152,0.957,0.225c0.275,0.057,0.555,0.109,0.83,0.17
	c0.319,0.062,0.637,0.129,0.956,0.189c0.279,0.051,0.56,0.096,0.843,0.145c0.316,0.055,0.634,0.113,0.955,0.162
	c0.281,0.045,0.565,0.08,0.848,0.121c0.32,0.045,0.636,0.09,0.958,0.133c0.282,0.033,0.567,0.062,0.853,0.094
	c0.32,0.035,0.641,0.074,0.962,0.102c0.284,0.027,0.571,0.047,0.857,0.07c0.32,0.025,0.642,0.053,0.963,0.076
	c0.285,0.016,0.571,0.027,0.859,0.043c0.321,0.014,0.642,0.033,0.965,0.043c0.286,0.01,0.574,0.014,0.862,0.019
	c0.319,0.004,0.642,0.014,0.966,0.014c0.286,0,0.571-0.004,0.858-0.008c0.249-0.002,0.499-0.006,0.748-0.012
	c0.058-0.119,0.116-0.236,0.172-0.355c0.09-0.188,0.183-0.377,0.273-0.564c0.135-0.283,0.268-0.57,0.401-0.857
	c0.092-0.191,0.179-0.383,0.27-0.574c0.134-0.291,0.27-0.588,0.405-0.885c0.087-0.191,0.175-0.383,0.26-0.578
	c0.139-0.307,0.272-0.613,0.41-0.924c0.084-0.189,0.169-0.379,0.25-0.57c0.143-0.326,0.286-0.652,0.428-0.984
	c0.076-0.182,0.153-0.359,0.229-0.541c0.156-0.367,0.313-0.736,0.469-1.111c0.062-0.148,0.123-0.295,0.184-0.443
	c0.434-1.053,0.866-2.125,1.293-3.219c0.062-0.156,0.123-0.316,0.185-0.475c0.149-0.389,0.302-0.777,0.451-1.17
	c0.078-0.207,0.158-0.416,0.237-0.627c0.131-0.35,0.266-0.701,0.396-1.053c0.083-0.229,0.167-0.459,0.253-0.689
	c0.124-0.34,0.25-0.678,0.374-1.021c0.087-0.242,0.176-0.488,0.263-0.73c0.119-0.336,0.24-0.674,0.361-1.012
	c0.086-0.25,0.174-0.502,0.262-0.752c0.12-0.342,0.239-0.684,0.357-1.028c0.086-0.253,0.172-0.508,0.262-0.766
	c0.117-0.344,0.233-0.692,0.352-1.042c0.086-0.258,0.172-0.515,0.259-0.772c0.118-0.357,0.236-0.721,0.354-1.079
	c0.081-0.256,0.166-0.508,0.247-0.763c0.03-0.098,0.062-0.196,0.096-0.294c-0.099-0.017-0.195-0.033-0.295-0.046
	c-1.309-0.203-2.621-0.416-3.933-0.636c-0.214-0.033-0.428-0.071-0.641-0.107c-0.853-0.144-1.703-0.291-2.555-0.442
	c-0.472-0.086-0.943-0.169-1.414-0.254c-0.188-0.034-0.374-0.069-0.56-0.104c-1.357-0.247-2.708-0.504-4.06-0.769
	c-0.125-0.021-0.244-0.049-0.37-0.073c-1.413-0.279-2.824-0.566-4.228-0.863c-1.115-0.234-2.224-0.479-3.33-0.723
	c-0.067-0.015-0.135-0.029-0.201-0.046c-1.064-0.235-2.123-0.48-3.181-0.727c-0.106-0.022-0.214-0.049-0.32-0.074
	c-1.026-0.24-2.05-0.487-3.07-0.736c-0.131-0.032-0.267-0.064-0.396-0.098c-1.002-0.244-1.999-0.498-2.993-0.751
	c-0.146-0.038-0.29-0.073-0.438-0.113c-0.329-0.082-0.653-0.173-0.984-0.258c-1.309,1.006-2.872,1.705-4.591,1.981
	C33.013,91.162,31.95,91.168,30.896,91.007z M105.46,98.933c-0.617-0.015-1.236-0.031-1.858-0.053
	c-0.382-0.012-0.763-0.026-1.145-0.04c-0.595-0.021-1.188-0.048-1.787-0.075c-0.397-0.019-0.797-0.038-1.192-0.059
	c-0.598-0.028-1.195-0.062-1.793-0.097c-0.401-0.024-0.8-0.048-1.2-0.071c-0.618-0.04-1.238-0.082-1.859-0.125
	c-0.386-0.027-0.768-0.053-1.154-0.081c-0.691-0.053-1.388-0.108-2.087-0.169c-0.314-0.024-0.631-0.05-0.946-0.077
	c-1.01-0.087-2.028-0.181-3.05-0.28c-0.154-0.015-0.312-0.032-0.463-0.049c-0.788-0.079-1.577-0.157-2.372-0.242
	c-0.137,0.432-0.279,0.86-0.418,1.289c-0.123,0.374-0.243,0.748-0.364,1.118c-0.244,0.738-0.49,1.474-0.738,2.202
	c-0.085,0.25-0.168,0.501-0.251,0.749c-0.333,0.97-0.669,1.937-1.012,2.89c-0.093,0.268-0.192,0.531-0.286,0.797
	c-0.25,0.693-0.501,1.387-0.753,2.072c-0.13,0.35-0.261,0.701-0.394,1.047c-0.224,0.601-0.448,1.197-0.676,1.787
	c-0.141,0.365-0.281,0.73-0.42,1.092c-0.226,0.576-0.453,1.15-0.679,1.721c-0.144,0.355-0.283,0.709-0.427,1.059
	c-0.241,0.592-0.481,1.178-0.721,1.762c-0.095,0.223-0.187,0.451-0.279,0.676c-0.039,0.09-0.078,0.18-0.115,0.271
	c-0.052,0.117-0.101,0.24-0.15,0.359c0.075-0.021,0.151-0.043,0.229-0.064c0.083-0.023,0.167-0.049,0.25-0.072
	c0.337-0.102,0.675-0.201,1.012-0.307c0.036-0.014,0.074-0.023,0.111-0.035c11.024-3.478,20.896-10.09,28.281-18.962
	c-0.091-0.004-0.179-0.004-0.27-0.006C106.144,98.952,105.804,98.941,105.46,98.933z" class="color c1"/>
</svg>