<svg version="1.1" id="图层_1" x="0px" y="0px" width="138.891px" height="139.016px" viewBox="0 0 138.891 139.016" enable-background="new 0 0 138.891 139.016" xml:space="preserve" xmlns="http://www.w3.org/2000/svg" xmlns:xlink="http://www.w3.org/1999/xlink" xmlns:xml="http://www.w3.org/XML/1998/namespace">
  <path fill="#191817" d="M138.891,69.444C138.891,31.091,107.799,0,69.445,0v138.89C107.799,138.89,138.891,107.798,138.891,69.444z" class="color c1"/>
  <path fill="#FFC903" d="M0,69.571c0,38.354,31.092,69.444,69.445,69.444V0.126C31.092,0.126,0,31.218,0,69.571z" class="color c2"/>
  <path fill="#191817" d="M34.583,115.556c-3.864,1.608-8.929,3.004-13.277,4.041c12.486,12.017,29.443,19.419,48.14,19.419v-94.45
	H34.849v5.521h7.584l-0.02,1.846c0,0.006,0,0.65,0,1.037c-0.463,1.418-0.334,2.32,0.915,8.92c-0.136,0.143-0.271,0.291-0.387,0.455
	c-1.799,2.389-0.91,6.893-0.184,9.449c0.374,2.271,1.234,3.771,2.05,4.708c0.97,5.855,3.894,11.343,7.833,15.519
	c0.865,2.499,1.929,7.07-0.062,10.861C50.257,107.308,42.991,112.054,34.583,115.556z" class="color c1"/>
  <path fill="#191817" d="M39.869,42.149h29.576V9.742c-3.569-0.075-6.099,1.176-6.099,1.176l1.086,20.894l-4.43-16.525
	C47.676,18.712,39.869,28.739,39.869,42.149z" class="color c1"/>
  <path fill="#FFC903" d="M78.183,15.286l-4.43,16.525l1.086-20.894c-1.92-0.831-3.766-1.142-5.394-1.176v32.407h28.871
	C98.316,28.745,90.508,18.718,78.183,15.286z" class="color c2"/>
  <path fill="#FFC903" d="M104.308,115.556c-8.408-3.502-15.674-8.248-17.996-12.674c-2.561-4.875-0.072-11.032,0.554-12.424
	c0.237-0.275,0.475-0.551,0.704-0.836c3.008-3.746,5.205-8.263,6.101-13.08c0.821-0.942,1.689-2.4,2.054-4.627
	c0.836-3.099,1.493-7.182-0.087-9.461c0.522-2.016,1.038-4.701,1.188-7.659c0.211-0.489,0.23-1.038,0.041-1.554
	c0-0.293,0-0.543-0.006-0.746l0.02-0.326c0.007-0.156,0-0.318-0.04-0.481l-0.279-1.601h7.481v-5.521H69.445v94.324
	c18.645,0,35.559-7.361,48.032-19.317C113.154,118.535,108.14,117.152,104.308,115.556z" class="color c2"/>
</svg>