<svg version="1.1" id="图层_1" x="0px" y="0px" width="92.887px" height="92.097px" viewBox="0 0 92.887 92.097" enable-background="new 0 0 92.887 92.097" xml:space="preserve" xmlns="http://www.w3.org/2000/svg" xmlns:xlink="http://www.w3.org/1999/xlink" xmlns:xml="http://www.w3.org/XML/1998/namespace">
  <path fill="#291409" d="M85.339,71.974c-0.111-0.031-0.223-0.059-0.369-0.091c-5.526-2.104-9.035-5.537-11.605-8.05
	c-0.496-0.484-0.959-0.938-1.396-1.345c-1.22-1.135-8.446-8.461-15.743-15.867l-1.281-1.301
	c9.005-9.135,17.815-18.063,18.521-18.704c0.729-0.631,3.567-1.774,5.461-1.89c1.666-0.103,6.089-0.374,9.86-3.768
	c3.443-3.099,3.963-6.673,4.017-9.761l0.085-4.813l-10.5,7.112c-0.824-0.47-2.016-1.516-2.595-3.775l10.538-7.555l-4.696-1.531
	C85.434,0.571,83.609,0,81.061,0c-2.972,0-5.669,0.753-8.019,2.238c-4.59,2.904-5.154,8.62-5.223,10.008
	c-0.18,0.724-1.24,4.335-5.293,8.248c-2.115,2.042-8.701,8.706-16.083,16.196c-7.785-7.899-14.01-14.196-16.082-16.196
	c-4.075-3.934-5.125-7.562-5.293-8.241c-0.068-1.379-0.626-7.107-5.224-10.015C17.53,0.774,14.757,0,11.828,0
	C9.28,0,7.453,0.571,7.253,0.637L2.556,2.168l10.54,7.554c-0.581,2.271-1.78,3.316-2.59,3.779L0,6.384l0.085,4.814
	c0.054,3.087,0.574,6.661,4.019,9.762c3.771,3.393,8.194,3.664,9.891,3.769c1.861,0.113,4.699,1.257,5.412,1.874
	c0.723,0.655,9.608,9.66,18.537,18.717c-8.056,8.18-15.771,16.003-17.024,17.17c-0.437,0.406-0.9,0.858-1.395,1.343
	c-2.569,2.513-6.079,5.945-11.604,8.051C7.8,71.908,7.68,71.937,7.554,71.972c-5.441,1.537-8.618,7.214-7.082,12.655
	c1.242,4.398,5.299,7.47,9.865,7.47c0.941,0,1.88-0.131,2.792-0.388c3.955-1.117,6.884-4.557,7.385-8.622
	c0.537-1.435,2.255-5.318,6.323-9.328c2.391-2.357,10.702-10.78,19.608-19.815l1.23,1.248c8.159,8.278,16.033,16.257,18.377,18.567
	c4.076,4.018,5.789,7.896,6.322,9.327c0.5,4.065,3.431,7.506,7.386,8.623c0.911,0.257,1.851,0.388,2.792,0.388l0,0
	c4.565,0,8.621-3.071,9.863-7.47c0.745-2.636,0.418-5.403-0.92-7.794S87.97,72.717,85.339,71.974z M79.935,81.104
	c0.329-1.165,1.402-1.979,2.609-1.979c0.248,0,0.498,0.034,0.74,0.103c1.44,0.407,2.281,1.911,1.875,3.351
	c-0.396,1.405-1.916,2.281-3.351,1.874c-0.698-0.196-1.276-0.653-1.631-1.286S79.738,81.801,79.935,81.104z M12.71,83.166
	c-0.354,0.633-0.933,1.09-1.632,1.287c-1.427,0.4-2.952-0.47-3.349-1.875c-0.407-1.44,0.434-2.943,1.875-3.351
	c0.243-0.068,0.491-0.103,0.739-0.103c1.208,0,2.281,0.813,2.61,1.978C13.15,81.801,13.064,82.533,12.71,83.166z" class="color c1"/>
</svg>