<svg version="1.1" id="图层_1" x="0px" y="0px" width="100px" height="63.916px" viewBox="0 0 100 63.916" enable-background="new 0 0 100 63.916" xml:space="preserve" xmlns="http://www.w3.org/2000/svg" xmlns:xlink="http://www.w3.org/1999/xlink" xmlns:xml="http://www.w3.org/XML/1998/namespace">
  <path fill="#132F3A" d="M100,63.916H0V48.01h100V63.916z M100,37.468c0-3.986-3.229-7.215-7.214-7.215H34.514
	c-11.264,0-21.65,6.082-27.158,15.905H100V37.468z M34.514,28.845h2.627c-0.217-0.439-0.619-0.897-1.353-1.228
	c-3.695-1.674-10.911-3.053-12.175-9.201c-1.496-7.28,5.713-11.992,6.35-14.119c0.738-2.466-1.221-4.633-3.144-4.254
	C11.003,3.157,0,27.541,0,46.159h5.739l0.386-0.688C11.879,35.216,22.756,28.845,34.514,28.845z M59.915,28.451L85.202,1.892
	l-1.231-1.109L57.198,28.845h2.34L59.915,28.451z M66.685,28.845L78.96,15.857l-3.476-2.742L60.855,28.451l-0.377,0.395H66.685z" class="color c1"/>
</svg>