<svg version="1.1" id="图层_1" x="0px" y="0px" width="73.068px" height="88.669px" viewBox="0 0 73.068 88.669" enable-background="new 0 0 73.068 88.669" xml:space="preserve" xmlns="http://www.w3.org/2000/svg" xmlns:xlink="http://www.w3.org/1999/xlink" xmlns:xml="http://www.w3.org/XML/1998/namespace">
  <g>
    <g>
      <g>
        <path fill="#C52334" d="M71.263,76.865H67.54V57.95c0-0.497-0.402-0.9-0.901-0.9h-4.202V42.597l0.441,0.184
				c0.226,0.092,0.46,0.138,0.688,0.138c0.71,0,1.383-0.423,1.668-1.115l2.57-6.206c0.184-0.439,0.184-0.938,0-1.379
				c-0.185-0.441-0.535-0.794-0.977-0.979L27.819,17.09c1.425-2.718,2.708-5.487,3.809-8.232c0.367-0.918-0.07-1.96-0.985-2.338
				L15.234,0.138c-0.915-0.38-1.962,0.05-2.35,0.96C9.07,10.032,6.608,19.989,5.14,32.435c-0.094,0.8,0.355,1.567,1.103,1.877
				l6.604,2.735c0.747,0.309,1.607,0.086,2.107-0.55c2.865-3.635,5.337-7.044,7.562-10.433l7.796,3.229l-0.384,2.658L28.763,40
				l-5.32,36.864H1.806C0.81,76.865,0,77.67,0,78.668v8.196c0,0.995,0.81,1.805,1.806,1.805h69.457c0.998,0,1.806-0.81,1.806-1.805
				v-8.196C73.068,77.67,72.261,76.865,71.263,76.865L71.263,76.865z M58.829,57.049h-4.201c-0.5,0-0.904,0.403-0.904,0.9v18.915
				h-4.098L44.306,40l-0.755-5.224l15.278,6.325V57.049z M41.003,44.825l-6.342-4.73l5.043-4.263L41.003,44.825z M38.885,48.183
				l-8.042,5.115l1.449-10.035L38.885,48.183z M41.89,50.966l1.937,13.416l-10.438-8.01L41.89,50.966z M34.15,76.865l10.392-7.531
				l1.087,7.531H34.15z M37.692,32.351l-4.357,3.682l0.748-5.176L37.692,32.351z M30.048,58.794l10.826,8.309l-13.43,9.732
				L30.048,58.794z M30.048,58.794" class="color c1"/>
      </g>
    </g>
  </g>
</svg>