<svg version="1.1" id="图层_1" x="0px" y="0px" width="190px" height="112.336px" viewBox="0 0 190 112.336" enable-background="new 0 0 190 112.336" xml:space="preserve" xmlns="http://www.w3.org/2000/svg" xmlns:xlink="http://www.w3.org/1999/xlink" xmlns:xml="http://www.w3.org/XML/1998/namespace">
  <path fill="#FFFFFF" d="M156.278,0c-18.604,0-33.735,15.125-33.735,33.734c0,3.127,0.553,6.08,1.346,8.938l-13.511,21.342
	c-1.794-0.43-3.643-0.703-5.557-0.703c-5.968,0-11.378,2.236-15.643,5.799L48.882,51.428c0.028-0.479,0.139-0.926,0.139-1.408
	c0-13.512-10.998-24.504-24.525-24.504C10.999,25.516,0,36.502,0,50.02s10.999,24.512,24.495,24.512
	c5.053,0,9.719-1.527,13.609-4.145l42.324,18.578c0.62,12.986,11.289,23.371,24.393,23.371c13.512,0,24.524-10.994,24.524-24.518
	c0-1.016-0.178-1.973-0.32-2.967l22.718-17.83c1.508,0.205,2.997,0.455,4.548,0.455c18.609,0,33.735-15.146,33.709-33.742
	C190,15.125,174.888,0,156.278,0z M24.51,61.51c-6.349,0-11.495-5.143-11.495-11.49c0-6.342,5.146-11.488,11.495-11.488
	c6.341,0,11.482,5.146,11.482,11.488C35.992,56.367,30.851,61.51,24.51,61.51z M104.838,99.707c-6.577,0-11.896-5.32-11.896-11.889
	c0-6.572,5.319-11.896,11.896-11.896c6.562,0,11.881,5.324,11.881,11.896C116.719,94.387,111.399,99.707,104.838,99.707z
	 M156.291,53.008c-10.639,0-19.284-8.654-19.284-19.281c0-10.625,8.646-19.264,19.284-19.264c10.627,0,19.273,8.639,19.287,19.264
	C175.578,44.354,166.918,53.008,156.291,53.008z" class="color c1"/>
</svg>