<svg version="1.1" id="图层_1" x="0px" y="0px" width="117.93px" height="41.535px" viewBox="0 0 117.93 41.535" enable-background="new 0 0 117.93 41.535" xml:space="preserve" xmlns="http://www.w3.org/2000/svg" xmlns:xlink="http://www.w3.org/1999/xlink" xmlns:xml="http://www.w3.org/XML/1998/namespace">
  <path fill="#D84562" d="M41.069,28.307l13.388,6.766l-0.902,1.786l-13.388-6.765L41.069,28.307z M111.388,28.969l-0.374,1.967
	l6.542,1.244l0.374-1.966L111.388,28.969z M58.019,39.113l4.795,2.422l0.902-1.785l-4.795-2.423L58.019,39.113z M62.705,1.986
	l-0.253-1.985l-7.566,0.964l0.253,1.985L62.705,1.986z M50.179,3.58l-0.253-1.984L0.731,7.862L0.39,7.798L0.368,7.909L0.325,7.915
	l0.018,0.131L0.016,9.763l0.003,0.001L0,9.8l35.702,18.039l0.901-1.786L7.003,11.097l71.596,13.656l0.375-1.966L7.07,9.072
	L50.179,3.58z M83.509,25.686l19.645,3.749l0.375-1.964l-19.645-3.75L83.509,25.686z" class="color c1"/>
</svg>