<svg version="1.1" id="图层_1" x="0px" y="0px" width="196.016px" height="196.012px" viewBox="0 0 196.016 196.012" enable-background="new 0 0 196.016 196.012" xml:space="preserve" xmlns="http://www.w3.org/2000/svg" xmlns:xlink="http://www.w3.org/1999/xlink" xmlns:xml="http://www.w3.org/XML/1998/namespace">
  <path fill="#EC3339" d="M59.979,117.036c-0.111,0.745-0.137,1.483-0.088,2.206c-6.679-2.184-13.052-4.547-18.996-7.062
	c-0.727-0.309-1.452-0.618-2.167-0.93c-0.002-0.001-0.003-0.001-0.003-0.001C24.465,105.05,13.577,98.308,7.032,91.88
	C6.8,91.652,6.573,91.424,6.354,91.2c-0.312-0.321-0.613-0.639-0.899-0.957c-0.502-0.552-0.971-1.1-1.408-1.646
	c-0.329-0.413-0.642-0.825-0.931-1.234C2.957,87.141,2.804,86.92,2.658,86.7c-2.205-3.33-3.078-6.499-2.47-9.38
	c0-0.004,0.004-0.008,0.004-0.012c0.056-0.267,0.129-0.531,0.211-0.793c0.013-0.039,0.023-0.081,0.039-0.121
	c0.086-0.264,0.187-0.525,0.297-0.782c0.012-0.022,0.021-0.046,0.029-0.067c1.504-3.37,5.196-6.264,10.85-8.503
	c0.027-0.01,0.052-0.02,0.078-0.031c0.927-0.365,1.906-0.711,2.938-1.041c0.027-0.007,0.053-0.017,0.078-0.026
	c6.394-2.032,14.633-3.325,24.188-3.823c0.001,0,0.002,0,0.005,0c1.546-0.081,3.127-0.139,4.741-0.177
	c0.124-0.002,0.247-0.006,0.371-0.01c0.689-0.014,1.387-0.025,2.088-0.032c0.1-0.001,0.196-0.002,0.296-0.002
	c0.053-0.001,0.104,0,0.153-0.001c-0.037,0.059-0.078,0.117-0.116,0.173c-0.081,0.115-0.16,0.232-0.241,0.349
	c-0.167,0.245-0.333,0.49-0.496,0.736c-0.079,0.12-0.16,0.241-0.239,0.361c-0.184,0.281-0.364,0.566-0.543,0.848
	c-0.052,0.08-0.104,0.162-0.155,0.241c-0.225,0.364-0.448,0.729-0.668,1.098c-0.061,0.1-0.118,0.202-0.18,0.301
	c-0.162,0.274-0.322,0.552-0.483,0.831c-0.071,0.13-0.145,0.261-0.219,0.391c-0.149,0.268-0.298,0.532-0.442,0.802
	c-0.067,0.121-0.132,0.242-0.198,0.364c-0.206,0.383-0.408,0.771-0.609,1.16c-0.032,0.066-0.062,0.128-0.096,0.191
	c-0.032,0.001-0.064,0.005-0.097,0.007c-0.614,0.024-1.232,0.056-1.856,0.096c-0.047,0.002-0.094,0.005-0.142,0.007
	c-10.978,0.666-23.1,2.948-25.401,9.615c-0.005,0.018-0.011,0.031-0.017,0.046c-0.083,0.246-0.154,0.497-0.208,0.754
	c-1.673,7.909,10.879,15.876,21.704,21.166c7.558,3.705,16.566,7.233,26.521,10.426C61.131,113.289,60.279,115.064,59.979,117.036z
	 M80.161,120.099c-0.255,1.673-0.905,3.202-1.851,4.5c0.839,0.214,1.677,0.431,2.521,0.639c0.079,0.019,0.157,0.038,0.234,0.059
	c1.145,0.281,2.297,0.56,3.45,0.832c2.382,0.561,4.786,1.097,7.203,1.608c1.434,0.304,2.876,0.596,4.32,0.88
	c0.107,0.021,0.215,0.042,0.323,0.064c1.383,0.27,2.771,0.53,4.161,0.787c0.164,0.03,0.327,0.062,0.493,0.09
	c1.356,0.246,2.716,0.482,4.077,0.711c0.191,0.033,0.383,0.066,0.576,0.097c1.34,0.226,2.683,0.438,4.023,0.644
	c0.112,0.018,0.225,0.033,0.335,0.052c0.006-0.018,0.01-0.032,0.017-0.049c0.163-0.515,0.325-1.039,0.49-1.569
	c0.036-0.126,0.074-0.254,0.116-0.38c0.161-0.516,0.316-1.04,0.478-1.572c0.01-0.033,0.02-0.062,0.027-0.093
	c0.166-0.555,0.336-1.125,0.504-1.7c0.045-0.147,0.088-0.299,0.131-0.449c0.166-0.564,0.333-1.137,0.5-1.721
	c0.005-0.02,0.012-0.039,0.018-0.059c-0.252-0.037-0.5-0.079-0.751-0.117c-0.226-0.037-0.456-0.071-0.679-0.105
	c-0.162-0.028-0.321-0.053-0.484-0.08c-0.456-0.07-0.913-0.146-1.371-0.222c-0.238-0.04-0.48-0.076-0.719-0.116
	c-0.137-0.023-0.275-0.046-0.412-0.07c-0.461-0.077-0.917-0.155-1.37-0.232c-0.253-0.043-0.509-0.085-0.759-0.128
	c-0.119-0.021-0.234-0.042-0.351-0.061c-0.459-0.081-0.916-0.162-1.373-0.242c-0.263-0.048-0.528-0.092-0.792-0.143
	c-0.095-0.017-0.186-0.033-0.278-0.05c-0.473-0.086-0.939-0.172-1.406-0.26c-0.271-0.049-0.539-0.098-0.809-0.149
	c-0.071-0.013-0.141-0.027-0.211-0.04c-0.494-0.093-0.981-0.188-1.469-0.281c-0.265-0.052-0.532-0.102-0.799-0.151
	c-0.046-0.012-0.09-0.02-0.139-0.029c-0.535-0.105-1.072-0.213-1.607-0.322c-0.072-0.014-0.146-0.029-0.218-0.043
	c-0.163-0.032-0.329-0.065-0.493-0.101c-0.025-0.004-0.05-0.008-0.074-0.013c-0.795-0.164-1.589-0.326-2.379-0.494
	c-4.493-0.95-8.908-1.981-13.224-3.076C80.31,117.975,80.321,119.037,80.161,120.099z M169.545,90.66
	c-0.298-0.16-0.599-0.32-0.901-0.479c-0.36-0.188-0.725-0.379-1.091-0.565c-0.315-0.165-0.637-0.328-0.956-0.491
	c-0.372-0.188-0.75-0.378-1.127-0.565c-0.326-0.161-0.652-0.322-0.98-0.484c-0.385-0.188-0.779-0.378-1.17-0.566
	c-0.328-0.157-0.656-0.315-0.989-0.471c-0.405-0.191-0.814-0.381-1.226-0.572c-0.328-0.152-0.659-0.305-0.991-0.456
	c-0.148-0.066-0.3-0.134-0.45-0.202c0.059,0.283,0.112,0.57,0.164,0.854c0.014,0.072,0.029,0.146,0.042,0.218
	c0.082,0.448,0.158,0.896,0.23,1.348c0.02,0.126,0.038,0.254,0.058,0.382c0.053,0.337,0.1,0.675,0.149,1.015
	c0.017,0.141,0.035,0.283,0.054,0.425c0.05,0.388,0.096,0.777,0.136,1.165c0.009,0.07,0.02,0.144,0.027,0.216
	c0.048,0.455,0.09,0.912,0.128,1.37c0.011,0.127,0.021,0.254,0.029,0.38c0.028,0.345,0.051,0.688,0.071,1.032
	c0.004,0.081,0.013,0.163,0.018,0.244c0.004,0.062,0.005,0.127,0.01,0.189c0.005,0.097,0.011,0.193,0.016,0.291
	c0.135,0.067,0.273,0.138,0.411,0.205c0.18,0.092,0.364,0.184,0.544,0.275c0.155,0.079,0.311,0.159,0.462,0.237
	c0.181,0.093,0.359,0.184,0.537,0.277c0.167,0.086,0.333,0.174,0.495,0.26c0.167,0.088,0.337,0.176,0.507,0.266
	c0.172,0.093,0.345,0.186,0.518,0.28c0.162,0.089,0.324,0.175,0.485,0.262c0.114,0.063,0.229,0.127,0.346,0.192
	C165.659,94.445,167.285,92.119,169.545,90.66z M187.344,102.586c-0.404-0.361-0.821-0.723-1.25-1.086
	c-0.141-0.117-0.289-0.234-0.431-0.353c-0.158-0.131-0.322-0.262-0.483-0.394c0,0.002,0,0.005,0,0.009
	c-0.509,3.349-2.601,6.136-5.51,7.59c0.052,0.065,0.103,0.128,0.151,0.191c0.078,0.112,0.15,0.225,0.229,0.339
	c0.086,0.122,0.178,0.248,0.258,0.371c0.069,0.11,0.134,0.219,0.198,0.329c0.08,0.128,0.163,0.257,0.235,0.384
	c0.062,0.11,0.115,0.221,0.172,0.329c0.068,0.131,0.141,0.259,0.204,0.388c0.053,0.111,0.097,0.225,0.145,0.334
	c0.058,0.129,0.119,0.255,0.169,0.383c0.042,0.112,0.075,0.225,0.116,0.334c0.043,0.129,0.093,0.26,0.133,0.386
	c0.033,0.113,0.059,0.229,0.086,0.342c0.033,0.127,0.071,0.255,0.096,0.381c0.021,0.115,0.037,0.228,0.054,0.341
	c0.02,0.127,0.047,0.256,0.061,0.385c0.013,0.11,0.013,0.226,0.019,0.34c0.008,0.126,0.02,0.255,0.021,0.383
	c0.002,0.13-0.011,0.26-0.018,0.389c-0.006,0.112-0.006,0.225-0.017,0.335c-0.024,0.244-0.059,0.483-0.111,0.724
	c-0.466,2.196-1.945,3.952-4.099,5.354c-5.096,3.315-13.959,4.647-22.071,5.115c-0.053,0.003-0.109,0.006-0.163,0.01
	c-0.261,0.014-0.523,0.028-0.782,0.042c-0.08,0.003-0.159,0.008-0.241,0.011c-0.323,0.016-0.643,0.031-0.963,0.043
	c0,0-0.002,0-0.003,0c0,0,0,0-0.003,0c-0.167,0.005-0.339,0.01-0.506,0.016c-0.361,0.011-0.719,0.025-1.086,0.033
	c-0.263,0.007-0.532,0.012-0.8,0.017c-0.276,0.008-0.552,0.013-0.831,0.019c-0.283,0.004-0.571,0.005-0.854,0.009
	c-0.271,0.002-0.54,0.005-0.813,0.007c-0.289,0-0.584-0.001-0.878-0.001c-0.271,0-0.541,0-0.817-0.001
	c-0.294-0.001-0.595-0.005-0.891-0.009c-0.277-0.002-0.555-0.004-0.833-0.01c-0.296-0.004-0.595-0.011-0.893-0.016
	c-0.285-0.008-0.573-0.012-0.861-0.021c-0.298-0.006-0.602-0.017-0.9-0.022c-0.291-0.009-0.581-0.018-0.875-0.027
	c-0.301-0.011-0.607-0.022-0.911-0.034c-0.297-0.012-0.594-0.021-0.89-0.036c-0.305-0.011-0.611-0.027-0.915-0.039
	c-0.302-0.015-0.605-0.029-0.91-0.046c-0.303-0.016-0.61-0.031-0.915-0.05c-0.312-0.017-0.62-0.035-0.931-0.054
	c-0.304-0.016-0.612-0.036-0.917-0.058c-0.314-0.02-0.628-0.04-0.946-0.062c-0.308-0.021-0.617-0.043-0.925-0.064
	c-0.319-0.022-0.636-0.046-0.958-0.069c-0.307-0.025-0.619-0.05-0.928-0.073c-0.322-0.028-0.646-0.053-0.97-0.08
	c-0.31-0.026-0.618-0.053-0.93-0.08c-0.328-0.028-0.655-0.058-0.984-0.089c-0.309-0.028-0.618-0.056-0.929-0.087
	c-0.331-0.032-0.664-0.063-0.999-0.097c-0.114-0.012-0.229-0.023-0.346-0.035c-0.192-0.019-0.388-0.041-0.582-0.06
	c-0.209-0.022-0.418-0.042-0.624-0.065c-0.002,0.007-0.004,0.016-0.006,0.021c-0.02,0.07-0.039,0.141-0.058,0.209
	c-0.076,0.27-0.153,0.544-0.231,0.819c-0.035,0.128-0.073,0.257-0.107,0.386c-0.066,0.231-0.133,0.465-0.202,0.702
	c-0.03,0.101-0.058,0.2-0.089,0.301c-0.004,0.026-0.014,0.056-0.022,0.084c-0.093,0.314-0.184,0.63-0.279,0.954
	c-0.022,0.077-0.046,0.152-0.067,0.23c-0.098,0.332-0.195,0.667-0.301,1.009c-0.04,0.135-0.081,0.273-0.121,0.41
	c-0.08,0.259-0.158,0.522-0.237,0.789c-0.046,0.144-0.091,0.289-0.136,0.434c-0.091,0.308-0.187,0.613-0.282,0.929
	c-0.033,0.102-0.062,0.202-0.094,0.307c-0.001,0.003-0.003,0.007-0.005,0.012c0.247,0.024,0.49,0.05,0.738,0.074
	c0.179,0.019,0.356,0.036,0.534,0.056c0.469,0.048,0.939,0.099,1.407,0.143c0.415,0.041,0.82,0.075,1.233,0.113
	c0.181,0.016,0.365,0.034,0.55,0.049c0.453,0.042,0.912,0.084,1.365,0.123c0.413,0.036,0.824,0.064,1.237,0.099
	c0.185,0.015,0.367,0.028,0.552,0.045c0.439,0.033,0.886,0.07,1.326,0.102c0.416,0.03,0.823,0.055,1.235,0.083
	c0.192,0.014,0.383,0.026,0.571,0.038c0.426,0.027,0.853,0.059,1.275,0.083c0.406,0.025,0.81,0.045,1.216,0.067
	c0.205,0.011,0.411,0.021,0.619,0.033c0.403,0.021,0.811,0.044,1.21,0.065c0.432,0.02,0.857,0.032,1.287,0.051
	c0.204,0.009,0.405,0.019,0.608,0.025c0.37,0.016,0.74,0.033,1.107,0.046c0.502,0.018,0.995,0.028,1.494,0.041
	c0.188,0.005,0.376,0.011,0.561,0.016c0.305,0.008,0.609,0.018,0.91,0.024c0.981,0.021,1.954,0.033,2.917,0.042
	c0.541,0.001,1.076,0.001,1.608,0.001c0.185-0.001,0.365-0.001,0.547-0.005c0.349,0,0.693-0.005,1.04-0.007
	c0.215-0.003,0.433-0.006,0.646-0.008c0.313-0.006,0.625-0.011,0.936-0.017c0.511-0.01,1.018-0.022,1.522-0.037
	c0.058,0,0.112-0.004,0.172-0.006c22.818-0.678,38.308-5.689,41.851-13.58c0.007-0.015,0.014-0.03,0.02-0.042
	c0.054-0.118,0.101-0.238,0.147-0.359c0.022-0.05,0.042-0.101,0.06-0.154c0.036-0.095,0.072-0.19,0.1-0.284
	c0.031-0.089,0.059-0.172,0.083-0.258c0.02-0.071,0.042-0.14,0.062-0.209c0.043-0.163,0.085-0.323,0.118-0.486
	C196.82,114.001,193.885,108.433,187.344,102.586z M87.841,183.227c-0.612-0.834-1.09-1.74-1.422-2.689
	c-2.02,1.221-4.087,1.766-6.148,1.33c-0.244-0.051-0.482-0.117-0.716-0.193c-0.08-0.025-0.156-0.061-0.236-0.09
	c-0.149-0.055-0.304-0.109-0.449-0.176c-0.091-0.039-0.176-0.09-0.264-0.133c-0.131-0.064-0.266-0.127-0.391-0.201
	c-0.092-0.053-0.181-0.115-0.27-0.172c-0.12-0.076-0.239-0.145-0.354-0.227c-0.093-0.068-0.179-0.141-0.269-0.209
	c-0.107-0.084-0.217-0.166-0.324-0.258c-0.087-0.074-0.175-0.16-0.262-0.24c-0.101-0.094-0.204-0.186-0.303-0.285
	c-0.086-0.086-0.168-0.178-0.252-0.27c-0.096-0.104-0.19-0.205-0.284-0.312c-0.083-0.098-0.162-0.199-0.244-0.303
	c-0.087-0.109-0.177-0.219-0.262-0.336c-0.081-0.105-0.156-0.219-0.233-0.33c-0.084-0.121-0.168-0.236-0.249-0.359
	c-0.076-0.115-0.147-0.238-0.221-0.359c-0.08-0.127-0.16-0.25-0.235-0.385c-0.069-0.123-0.14-0.254-0.21-0.381
	c-0.073-0.135-0.147-0.268-0.218-0.404c-0.067-0.135-0.135-0.271-0.2-0.408c-0.068-0.141-0.138-0.281-0.204-0.426
	c-0.065-0.141-0.128-0.285-0.187-0.43c-0.066-0.146-0.131-0.293-0.193-0.441c-0.061-0.148-0.118-0.301-0.18-0.451
	c-0.058-0.152-0.119-0.305-0.176-0.463c-0.056-0.154-0.111-0.311-0.169-0.471c-0.055-0.156-0.111-0.316-0.165-0.479
	c-0.053-0.16-0.104-0.324-0.158-0.486c-0.05-0.164-0.103-0.328-0.153-0.492c-0.051-0.17-0.098-0.338-0.146-0.508
	c-0.048-0.166-0.097-0.336-0.143-0.504c-0.048-0.172-0.093-0.346-0.138-0.521c-0.043-0.172-0.088-0.344-0.132-0.518
	c-0.046-0.178-0.087-0.357-0.127-0.535c-0.04-0.174-0.082-0.35-0.122-0.527c-0.04-0.182-0.079-0.365-0.116-0.549
	c-0.039-0.178-0.076-0.355-0.113-0.537c-0.036-0.186-0.073-0.373-0.11-0.559c-0.033-0.182-0.066-0.363-0.1-0.545
	c-0.033-0.188-0.068-0.379-0.102-0.57c-0.03-0.184-0.061-0.367-0.093-0.553c-0.03-0.191-0.062-0.381-0.092-0.574
	c-0.026-0.186-0.056-0.369-0.081-0.557c-0.029-0.195-0.06-0.391-0.084-0.588c-0.025-0.186-0.052-0.371-0.077-0.557
	c-0.023-0.197-0.051-0.395-0.075-0.592c-0.022-0.188-0.044-0.377-0.068-0.564c-0.023-0.197-0.046-0.393-0.066-0.588
	c-0.022-0.189-0.042-0.383-0.061-0.57c-0.021-0.197-0.042-0.395-0.062-0.592c-0.019-0.191-0.036-0.377-0.053-0.568
	c-0.02-0.197-0.036-0.396-0.055-0.596c-0.015-0.188-0.03-0.375-0.045-0.562c-0.018-0.197-0.031-0.396-0.046-0.594
	c-0.016-0.188-0.028-0.379-0.043-0.568c-0.014-0.195-0.025-0.391-0.038-0.586c-0.014-0.188-0.022-0.375-0.035-0.562
	c-0.012-0.195-0.022-0.391-0.033-0.582c-0.01-0.189-0.021-0.377-0.03-0.562c-0.01-0.191-0.02-0.385-0.029-0.574
	c-0.002-0.061-0.004-0.117-0.005-0.178c-0.075-0.037-0.147-0.076-0.221-0.117c-0.392-0.197-0.774-0.402-1.159-0.607
	c-0.115-0.062-0.228-0.123-0.344-0.186c-0.272-0.148-0.544-0.301-0.816-0.453c-0.127-0.07-0.253-0.141-0.376-0.213
	c-0.282-0.16-0.562-0.324-0.842-0.49c-0.096-0.055-0.194-0.109-0.288-0.17c-0.368-0.219-0.734-0.443-1.098-0.67
	c-0.077-0.049-0.156-0.1-0.232-0.148c-0.287-0.18-0.571-0.361-0.853-0.547c-0.118-0.078-0.237-0.156-0.355-0.234
	c-0.249-0.164-0.497-0.334-0.742-0.502c-0.113-0.078-0.228-0.154-0.339-0.232c-0.059-0.041-0.116-0.078-0.176-0.119
	c0.003,0.043,0,0.084,0.003,0.123c0.003,0.311,0.008,0.617,0.013,0.926c0.006,0.514,0.015,1.027,0.024,1.531
	c0.007,0.338,0.019,0.67,0.028,1.006c0.014,0.471,0.024,0.939,0.039,1.402c0.014,0.348,0.029,0.691,0.043,1.037
	c0.019,0.443,0.038,0.887,0.062,1.324c0.018,0.348,0.034,0.691,0.056,1.037c0.025,0.426,0.049,0.852,0.076,1.271
	c0.021,0.346,0.047,0.688,0.072,1.029c0.029,0.41,0.061,0.82,0.091,1.227c0.028,0.342,0.058,0.676,0.087,1.012
	c0.036,0.398,0.073,0.799,0.111,1.191c0.031,0.332,0.064,0.662,0.101,0.988c0.041,0.387,0.082,0.775,0.126,1.158
	c0.037,0.322,0.074,0.645,0.112,0.963c0.048,0.379,0.097,0.756,0.143,1.125c0.045,0.314,0.085,0.627,0.131,0.936
	c0.052,0.369,0.104,0.734,0.162,1.1c0.045,0.301,0.09,0.6,0.138,0.895c0.06,0.365,0.12,0.723,0.182,1.078
	c0.051,0.289,0.099,0.574,0.153,0.857c0.062,0.357,0.133,0.707,0.2,1.057c0.054,0.271,0.106,0.547,0.161,0.812
	c0.071,0.354,0.149,0.699,0.225,1.041c0.056,0.254,0.109,0.514,0.167,0.76c0.083,0.359,0.169,0.705,0.255,1.053
	c0.057,0.227,0.109,0.461,0.167,0.682c0.099,0.381,0.201,0.752,0.303,1.121c0.05,0.18,0.098,0.365,0.149,0.543
	c0.155,0.543,0.314,1.074,0.48,1.594c2.702,8.475,6.635,13.48,11.376,14.479c0.161,0.033,0.327,0.061,0.492,0.086
	c0.073,0.012,0.146,0.018,0.218,0.027c0.087,0.012,0.178,0.023,0.266,0.031c0.102,0.012,0.205,0.016,0.306,0.023
	c0.053,0.002,0.108,0.008,0.161,0.01c0.13,0.002,0.262,0.008,0.391,0.01c0.017,0,0.028,0,0.042-0.002
	c4.381-0.021,9.332-3.16,14.431-8.926C91.305,186.516,89.274,185.174,87.841,183.227z M132.493,37.631
	c0.455,0.069,0.901,0.178,1.335,0.305c-1.278-21.833-6.811-35.979-15.139-37.75c-0.271-0.058-0.546-0.1-0.825-0.129
	c-0.04-0.005-0.082-0.01-0.121-0.015C117.467,0.015,117.184,0,116.903,0c-0.027,0-0.05,0-0.074,0
	c-3.7,0.014-7.848,2.224-12.195,6.502c-0.021,0.022-0.043,0.042-0.064,0.064c-0.703,0.696-1.411,1.446-2.126,2.249
	c-0.026,0.033-0.057,0.066-0.087,0.099c-0.726,0.824-1.455,1.699-2.185,2.625c-0.007,0.009-0.016,0.018-0.021,0.025
	c-3.724,4.738-7.468,10.811-11.075,17.946c-0.01,0.017-0.018,0.033-0.028,0.05c-0.69,1.372-1.379,2.783-2.06,4.231
	c-0.057,0.117-0.11,0.235-0.165,0.353c-0.313,0.669-0.626,1.346-0.937,2.028c-0.015,0.034-0.031,0.067-0.045,0.1
	c-0.011,0.027-0.021,0.052-0.033,0.077c0.126-0.025,0.251-0.047,0.377-0.071c0.134-0.027,0.271-0.051,0.405-0.078
	c0.381-0.07,0.761-0.135,1.142-0.201c0.083-0.012,0.166-0.029,0.249-0.042c0.453-0.074,0.908-0.142,1.367-0.206
	c0.127-0.018,0.259-0.034,0.388-0.052c0.345-0.046,0.69-0.089,1.035-0.129c0.143-0.016,0.286-0.034,0.428-0.049
	c0.441-0.049,0.879-0.093,1.321-0.133c0.037-0.002,0.076-0.006,0.115-0.008c0.448-0.04,0.894-0.072,1.343-0.102
	c0.149-0.011,0.294-0.02,0.443-0.026c0.154-0.01,0.307-0.021,0.463-0.03c0.024-0.045,0.048-0.09,0.07-0.139
	c0.268-0.537,0.541-1.076,0.818-1.615c0.024-0.045,0.048-0.09,0.071-0.135c5.038-9.732,12.037-19.909,19.064-19.311
	c0.02,0.001,0.037,0.001,0.057,0.003c0.259,0.024,0.518,0.061,0.773,0.116c7.064,1.492,9.569,13.46,10.352,24.61
	c0.99-0.538,2.081-0.922,3.244-1.109C130.377,37.475,131.438,37.471,132.493,37.631z M120.147,133.328
	c1.199-3.841,2.132-6.995,2.928-9.931c0-0.003,0.001-0.006,0.001-0.006c0-0.004,0.002-0.004,0-0.005
	c0.311-1.106,0.616-2.229,0.918-3.362c1.342-5.035,2.598-10.308,3.745-15.732c3.425-16.198,5.521-32.195,6.16-46.801
	c-0.425,0.129-0.859,0.236-1.309,0.309c-1.043,0.167-2.105,0.171-3.16,0.011c-1.162-0.176-2.244-0.553-3.229-1.075
	c-0.037,0.779-0.065,1.551-0.109,2.344c-0.016,0.27-0.032,0.541-0.05,0.814c-0.043,0.714-0.089,1.435-0.141,2.157
	c-0.877,12.494-2.875,26.374-5.895,40.605c-1.367,6.527-3.017,13.306-4.901,20.145c0,0.004,0,0.006-0.002,0.007
	c0,0.002,0.002,0.002,0,0.002c-1.05,3.72-2.035,7-3.01,10.029c0,0.003,0,0.004-0.001,0.004l0.001,0.002
	c-0.624,1.975-1.261,3.904-1.903,5.785c-2.098,6.135-4.297,11.764-6.566,16.831c-0.284,0.635-0.566,1.26-0.854,1.877
	c-0.466,1.004-0.938,1.99-1.411,2.947c-0.14,0.287-0.282,0.574-0.427,0.863c-0.036,0.072-0.073,0.143-0.109,0.215
	c-0.115,0.23-0.23,0.461-0.348,0.691c-0.029,0.053-0.055,0.105-0.083,0.16c-0.835,1.631-1.729,3.283-2.669,4.895
	c2.798,0.465,5.145,2.033,6.666,4.191c1.411-2.547,2.812-5.266,4.194-8.152c0.022-0.049,0.045-0.098,0.066-0.145
	c0.222-0.459,0.439-0.926,0.656-1.395c0.132-0.281,0.263-0.561,0.394-0.844c0.09-0.193,0.178-0.389,0.265-0.586
	c0.146-0.318,0.291-0.639,0.438-0.961c0.072-0.164,0.146-0.326,0.22-0.492c0.218-0.49,0.436-0.98,0.653-1.479
	c0.767-1.768,1.526-3.574,2.268-5.418c0.032-0.076,0.066-0.152,0.098-0.232c1.549-3.848,3.032-7.85,4.444-11.982
	C118.789,137.55,119.478,135.453,120.147,133.328z M102.794,174.1c-1.007-2.193-3.062-3.861-5.621-4.252
	c-0.354-0.053-0.709-0.078-1.063-0.078c-0.413-0.006-0.824,0.023-1.232,0.088c-3.188,0.516-5.657,3.01-6.143,6.205
	c-0.14,0.912-0.1,1.826,0.092,2.701c0.219,1.002,0.642,1.955,1.267,2.805c1.175,1.596,2.897,2.635,4.855,2.932
	c0.257,0.039,0.514,0.061,0.771,0.072c0.508,0.023,1.02,0,1.521-0.078c3.19-0.518,5.656-3.01,6.145-6.207
	C103.609,176.809,103.374,175.365,102.794,174.1z M76.796,115.712c-1.008-2.195-3.063-3.86-5.622-4.25
	c-0.354-0.054-0.708-0.079-1.062-0.083c-0.413-0.002-0.826,0.027-1.235,0.093c-3.187,0.514-5.654,3.007-6.142,6.204
	c-0.138,0.913-0.1,1.825,0.091,2.7c0.221,1.002,0.642,1.955,1.268,2.806c1.173,1.593,2.896,2.636,4.854,2.932
	c0.257,0.038,0.516,0.06,0.774,0.071c0.509,0.025,1.019,0,1.52-0.081c3.19-0.514,5.66-3.007,6.145-6.204
	C77.613,118.423,77.376,116.98,76.796,115.712z M176.202,91.904c-0.765-0.117-1.539-0.11-2.294,0.01
	c-0.489,0.079-0.956,0.208-1.406,0.375c-2.489,0.925-4.325,3.121-4.736,5.83c-0.029,0.187-0.043,0.373-0.057,0.561
	c-0.286,3.823,2.419,7.291,6.27,7.875c0.766,0.117,1.538,0.115,2.294-0.007c0.514-0.084,1.004-0.223,1.477-0.402
	c2.452-0.936,4.258-3.12,4.666-5.802c0.086-0.567,0.1-1.124,0.059-1.671C182.218,95.306,179.677,92.432,176.202,91.904z
	 M136.927,43.329c-0.772-1.052-1.788-1.855-2.948-2.373c-0.602-0.266-1.239-0.461-1.907-0.561c-0.766-0.116-1.536-0.114-2.293,0.01
	c-1.324,0.213-2.522,0.774-3.51,1.578c-1.124,0.918-1.965,2.158-2.398,3.592c-0.099,0.334-0.18,0.68-0.235,1.034
	c-0.175,1.141-0.067,2.26,0.255,3.296c0.439,1.41,1.287,2.656,2.43,3.581c0.989,0.798,2.188,1.357,3.53,1.562
	c0.767,0.114,1.539,0.112,2.295-0.01c0.657-0.106,1.283-0.3,1.868-0.566c0.99-0.444,1.859-1.095,2.557-1.903
	c0.168-0.194,0.324-0.396,0.469-0.606c0.635-0.913,1.07-1.973,1.248-3.13C138.583,46.878,138.102,44.921,136.927,43.329z" class="color c1"/>
</svg>