<svg version="1.1" id="图层_1" x="0px" y="0px" width="69.118px" height="49.12px" viewBox="0 0 69.118 49.12" enable-background="new 0 0 69.118 49.12" xml:space="preserve" xmlns="http://www.w3.org/2000/svg" xmlns:xlink="http://www.w3.org/1999/xlink" xmlns:xml="http://www.w3.org/XML/1998/namespace">
  <g>
    <path fill="#FFBA1C" d="M60.854,36.351c-7.684,3.019-13.582,4.616-27.104,6.126c-9.535,1.067-19.785-0.772-25.001-1.942
		c-2.162-0.489-3.453-0.855-3.453-0.855c-8.054-4.367-3.393-19.068-2.231-22.031c0.992-2.508,3.363-6.208,7.331-9.568
		c0.042-0.039,0.072-0.076,0.119-0.103C15.484,3.82,22.931,0.2,33.271,0.005C52.045-0.351,61.26,16.923,61.984,18.973
		C62.699,21.037,68.545,33.328,60.854,36.351z" class="color c1"/>
    <path fill="#FFA600" d="M10.394,8.08C9.724,8.677,9.191,9.276,8.818,9.853c0,0-4.095,9.054-4.178,14.146
		c-0.058,5.089,1.086,9.295,2.057,10.946c0.319,0.547,1.119,2.801,2.051,5.59c-2.162-0.489-3.453-0.855-3.453-0.855
		c-8.054-4.367-3.393-19.068-2.231-22.031C4.056,15.14,6.427,11.441,10.394,8.08z" class="color c2"/>
    <path fill="#FFDC42" d="M21.442,2.44C30.317-0.647,40.57,0.242,44.34,4.425c3.773,4.188-0.367,10.082-9.239,13.172
		c-8.879,3.087-19.133,2.196-22.897-1.991C8.429,11.422,12.568,5.526,21.442,2.44z" class="color c3"/>
    <path fill="#FFE342" d="M0.678,30.408c0,0-0.496,1.265-0.408,2.268c0.093,1.001,11.956,4.238,19.548,4.995
		c7.588,0.751,15.268,0.481,19.152-0.732c3.883-1.211,9.032-3.821,9.032-3.821s9.797-3.212,11.857-4.611
		c2.061-1.401,2.906-2.542,3.309-3.105c0.398-0.563,0.998-2.237,0.998-2.237l-1.541-2.549c0,0,1.559,4.276-4.125,7.24
		c-5.684,2.963-13.175,5.962-17.33,7.137c-4.151,1.177-14.208,0.991-21.965,0.171C11.447,34.34,1.719,32.455,0.678,30.408z" class="color c4"/>
    <path fill="#FFA600" d="M8.823,9.854c0,0,9.009-3.754,17.122,1.789c8.113,5.544,6.691,5.023,6.691,5.023l3.054,1.345
		c0,0-2.945-7.596-8.751-9.999c-5.802-2.402-11.481-2.13-13.3-1.608C11.823,6.93,8.659,9.052,8.823,9.854z" class="color c2"/>
    <path fill="#FFA600" d="M19.153,2.817c0,0,10.628-0.808,16.349,5.138c5.719,5.947,5.719,5.947,5.719,5.947l2.194,1.074
		c0,0-2.459-7.814-8.206-11.316c-5.745-3.506-9.049-2.57-9.049-2.57S21.762,1.213,19.153,2.817z" class="color c2"/>
    <path fill="#FFA600" d="M58.262,44.872c-5.564,2.64-16.488,5.736-23.704,3.451c-7.21-2.3-11.501-4.24-16.758-5.037
		c-5.248-0.803-10.892-1.218-13.599-2.167c-1.637-0.568-3.046-2.45-3.587-4.054l-0.003-0.01C0.237,35.997,0.059,34.853,0,33.796
		c17.515,4.005,25.815,5.095,34.976,3.742c9.145-1.344,25.552-9.403,26.798-10.844c1.26-1.447,1.457-2.604,1.457-2.604
		s1.828,3.82,1.162,5.053c0,0,3.033,2.356,4.098,3.688C69.553,34.153,68.766,39.887,58.262,44.872z" class="color c2"/>
    <path fill="#FFBA1C" d="M58.535,43.754c-5.564,2.642-16.486,5.732-23.703,3.448c-7.209-2.299-11.503-4.239-16.759-5.038
		c-5.246-0.801-10.89-1.217-13.598-2.165c-1.64-0.564-3.042-2.452-3.589-4.054l-0.001-0.009c-0.38-1.063-0.558-2.205-0.616-3.26
		c17.518,4.009,25.823,5.095,34.98,3.748c9.145-1.35,25.553-9.413,26.797-10.851c1.258-1.447,1.459-2.606,1.459-2.606
		s1.83,3.824,1.16,5.059c0,0,3.031,2.354,4.1,3.684C69.828,33.033,69.037,38.767,58.535,43.754z" class="color c1"/>
    <path fill="#FFA600" d="M64.666,28.025c-3.629,2.158-18.421,12.986-37.497,12.835C8.677,40.705,1.306,36.193,0.887,35.945
		l-0.001-0.009c-0.38-1.063-0.558-2.205-0.616-3.26c17.518,4.009,25.823,5.095,34.98,3.748c9.145-1.35,25.553-9.413,26.797-10.851
		c1.258-1.447,1.963-2.824,1.963-2.824S65.336,26.79,64.666,28.025z" class="color c2"/>
    <path fill="#FFE342" d="M10.094,8.343c0,0,9.01-3.757,17.121,1.787c8.116,5.546,8.475,7.88,8.475,7.88l4.726-1.855
		c0,0-6.402-7.255-12.203-9.658c-5.807-2.401-11.486-2.132-13.3-1.605C13.096,5.417,9.931,7.536,10.094,8.343z" class="color c4"/>
    <path fill="#FFE342" d="M20.753,2.188c0,0,10.633-0.81,16.351,5.139c5.721,5.946,6.311,7.65,6.311,7.65l4.025-1.583
		c0,0-4.883-6.862-10.629-10.364c-5.745-3.503-9.049-2.569-9.049-2.569S23.362,0.582,20.753,2.188z" class="color c4"/>
  </g>
</svg>