<svg version="1.1" id="图层_1" x="0px" y="0px" width="122.142px" height="171.155px" viewBox="0 0 122.142 171.155" enable-background="new 0 0 122.142 171.155" xml:space="preserve" xmlns="http://www.w3.org/2000/svg" xmlns:xlink="http://www.w3.org/1999/xlink" xmlns:xml="http://www.w3.org/XML/1998/namespace">
  <path fill="#D55A25" d="M122.11,103.832c-0.006-0.128-0.006-0.256-0.012-0.384v-0.043c-0.091-2.752-0.634-5.472-1.55-8.071
	c-1.253-3.552-2.645-6.895-2.814-7.299c-0.011-0.027-0.017-0.041-0.017-0.041c-1.464,0.689-2.977,1.501-4.527,2.422
	c-19.956,11.799-45.244,40.516-46.086,41.48c7.699-7.669,34.348-19.657,47.715-25.392c-0.146,24.654-13.044,38.619-13.19,38.771
	c-11.598,12.33-24.861,18.559-39.503,18.559c-1.666,0-3.343-0.086-5.045-0.244c-15.557-1.476-29.291-9.261-38.662-21.933
	c-9.566-12.928-13.184-29.431-9.932-45.281c7.876-38.381,43.439-76.445,53.157-86.267c6.101,5.838,11.695,11.653,16.784,17.449
	c1.287-1.446,2.575-2.867,3.85-4.265c0.372-0.409,0.738-0.811,1.11-1.214c-5.79-6.534-12.226-13.117-19.297-19.73L61.577,0
	l-2.501,2.361C58.588,2.825,46.905,13.898,33.885,30.84C16.302,53.712,5.345,75.267,1.318,94.906
	c-3.673,17.882,0.415,36.508,11.214,51.107c10.628,14.362,26.203,23.19,43.859,24.867c1.964,0.183,3.911,0.275,5.833,0.275
	c16.674,0,31.7-6.998,44.72-20.847C107.596,149.626,122.94,133.214,122.11,103.832z" class="color c1"/>
</svg>