<svg version="1.1" id="图层_1" x="0px" y="0px" width="200px" height="91.609px" viewBox="0 0 200 91.609" enable-background="new 0 0 200 91.609" xml:space="preserve" xmlns="http://www.w3.org/2000/svg" xmlns:xlink="http://www.w3.org/1999/xlink" xmlns:xml="http://www.w3.org/XML/1998/namespace">
  <path fill="#010101" d="M184.398,0c-8.617,0.009-15.603,6.992-15.611,15.609v34.789c-0.005,3.943-3.2,7.14-7.145,7.144H38.36
	c-3.943-0.004-7.139-3.199-7.143-7.144V15.609C31.218,6.989,24.23,0,15.609,0C6.989-0.001,0,6.987,0,15.608
	c-0.001,8.62,6.987,15.607,15.607,15.608c0.001,0,0.001,0,0.002,0c1.973,0,3.572,1.6,3.572,3.571v23.018
	c0.006,6.497,5.272,11.766,11.771,11.772h138.1c6.5-0.006,11.769-5.272,11.775-11.772V34.789c-0.001-1.973,1.597-3.571,3.569-3.571
	h0.002c8.621-0.005,15.604-6.995,15.602-15.616C199.995,6.986,193.014,0.004,184.398,0z M18.142,18.142
	c-0.34,0.322-0.74,0.579-1.177,0.752c-0.424,0.198-0.89,0.296-1.358,0.283c-0.239-0.008-0.477-0.03-0.713-0.071
	c-0.224-0.038-0.44-0.109-0.644-0.212c-0.219-0.071-0.425-0.182-0.606-0.323c-0.205-0.122-0.397-0.267-0.572-0.429
	c-0.652-0.686-1.022-1.592-1.036-2.536c0.006-0.466,0.103-0.927,0.286-1.356c0.182-0.433,0.436-0.831,0.75-1.179
	c1.423-1.346,3.649-1.346,5.072,0c0.315,0.347,0.57,0.746,0.751,1.179c0.199,0.424,0.296,0.89,0.284,1.356
	C19.165,16.552,18.794,17.457,18.142,18.142z M187.684,16.965c-0.164,0.44-0.42,0.843-0.75,1.178
	c-1.389,1.399-3.649,1.409-5.051,0.021c-0.682-0.676-1.063-1.598-1.057-2.558c-0.014-0.468,0.085-0.934,0.287-1.356
	c0.172-0.437,0.427-0.837,0.748-1.179c1.434-1.32,3.64-1.32,5.072,0c0.322,0.342,0.578,0.742,0.75,1.179
	C188.064,15.114,188.064,16.1,187.684,16.965L187.684,16.965z" class="color c1"/>
  <g>
    <path fill="#010101" d="M133.275,84.467c0.004,3.943,3.201,7.14,7.145,7.144h14.285c3.943-0.004,7.139-3.199,7.145-7.144v-8.994
		h-28.572v8.994H133.275z" class="color c1"/>
    <path fill="#010101" d="M38.151,84.467c0.004,3.943,3.2,7.14,7.143,7.144H59.58c3.943-0.004,7.139-3.199,7.143-7.144v-8.994H38.151
		V84.467z" class="color c1"/>
  </g>
</svg>