<svg version="1.1" id="图层_1" x="0px" y="0px" width="258.53px" height="254.803px" viewBox="0 0 258.53 254.803" enable-background="new 0 0 258.53 254.803" xml:space="preserve" xmlns="http://www.w3.org/2000/svg" xmlns:xlink="http://www.w3.org/1999/xlink" xmlns:xml="http://www.w3.org/XML/1998/namespace">
  <path fill="#EC3144" d="M256.403,217.521c-0.298-2.571-1.137-5.022-2.441-7.154c0.752-2.596,0.996-5.272,0.692-7.847
	c-0.297-2.571-1.136-5.022-2.44-7.154c0.752-2.597,0.996-5.273,0.692-7.85c-0.298-2.57-1.136-5.019-2.44-7.152
	c0.752-2.596,0.996-5.271,0.692-7.846c-0.345-2.984-1.42-5.807-3.104-8.156c-1.619-2.264-3.821-4.12-6.352-5.362
	c-1.053-0.52-2.16-0.925-3.307-1.233c0.258-1.037,0.356-2.111,0.256-3.189l-0.292-3.145c-0.397-4.245-3.721-7.374-8.083-7.611
	c-0.854-0.046-1.726,0.02-2.593,0.198l-4.707,0.965c3.5-9.2,9.431-17.448,16.469-25.18c0.574-0.63,1.134-1.272,1.984-2.227
	c-10.974-1.539-20.153,2.558-28.534,9.669c-6.361,5.398-11.097,11.775-14.538,18.934c0.299-2.916,0.446-5.935,0.365-9.034
	c-0.158-6.071-1.285-11.732-3.331-16.911c2.397-19.466,10.182-38.039,26.932-55.225c-2.989-0.162-5.567-0.605-8.168-0.386
	c-7.83,0.658-14.785,4.385-21.356,8.894c-5.843,4.009-11.006,8.981-16.736,13.166c0.08,0.108,0.04,0.054,0,0
	c0.241-0.452,0.468-0.911,0.726-1.355c9.374-16.151,12.49-32.779,9.364-49.662c-2.852-15.402-10.716-26.513-25.496-32.423
	c-0.539-0.215-1.506-0.44-1.506-0.44c2.468,6.351,5.655,12.688,7.436,19.526c3.657,14.043-1.316,26.337-14.045,36.093
	c-3.685,2.825-7.711,5.316-11.815,7.428c-6.368,3.276-10.938,8.033-14.184,14.163c-1.414,2.672-2.552,5.396-3.482,8.157
	c-3.217,0.737-6.398,1.678-9.527,2.83c-1.642,0.604-3.207,1.281-4.738,1.991c-0.029-0.878-0.03-1.77,0.006-2.681
	c0.404-10.198,4.168-19.836,8.659-29.343c0.418-0.886,0.808-1.782,1.359-3.003c-7.902,2.561-13.95,7.079-19.083,12.928
	c-10.015,11.412-15.566,24.669-19.889,38.381c-3.184,10.1-5.422,20.281-6.886,30.546l-2.827-0.96
	c-0.249-1.869-0.509-3.736-0.748-5.608c-0.909-7.097-1.775-14.201-4.981-20.52c-3.523-6.941-9.119-11.839-15.519-15.791
	c1.624,5.254,3.595,10.36,4.783,15.718c1.574,7.105,2.056,14.36,1.941,21.692c-4.307-0.157-8.582,2.534-10.443,6.603l-1.396,3.05
	c-0.479,1.046-0.762,2.11-0.875,3.154c-1.23,0.178-2.455,0.456-3.664,0.849c-2.935,0.95-5.749,2.534-8.133,4.576
	c-2.487,2.129-4.537,4.781-5.921,7.653c-1.213,2.506-1.92,5.164-2.101,7.79c-2.033,1.953-3.719,4.263-4.911,6.737
	c-1.212,2.504-1.919,5.159-2.099,7.789c-2.033,1.953-3.719,4.263-4.911,6.736c-1.213,2.504-1.921,5.16-2.1,7.79
	c-2.034,1.953-3.72,4.264-4.912,6.738c-2.055,4.245-2.659,8.926-1.702,13.169c0.621,2.781,1.909,5.365,3.719,7.469
	c0.955,1.112,2.063,2.096,3.287,2.93l-2.642,5.773l28.365,9.633l2.842-6.21c1.79-0.115,3.577-0.443,5.332-1.014
	c2.937-0.951,5.75-2.535,8.13-4.574c2.487-2.127,4.538-4.78,5.926-7.659c0.09-0.187,0.163-0.379,0.248-0.568
	c0.372,0.407,0.749,0.811,1.148,1.207c9.267,9.188,20.968,14.56,33.706,18.353c16.024,3.167,42.163,5.844,68.399,3.104
	c10.397-2.158,20.509-5.401,30.023-10.874c2.212-1.272,4.314-2.632,6.317-4.071c0.013,0.142,0.015,0.285,0.031,0.427
	c0.346,2.983,1.42,5.805,3.105,8.154c1.619,2.263,3.82,4.119,6.351,5.36c1.528,0.754,3.168,1.269,4.885,1.574l0.595,6.397
	l31.222-6.4l-0.553-5.946c1.494-0.687,2.927-1.531,4.253-2.517c2.525-1.873,4.7-4.271,6.281-6.916
	C255.857,226.546,256.918,221.89,256.403,217.521z" class="color c1"/>
  <path fill="#000111" d="M210.425,254.803l-0.667-7.157c-1.383-0.348-2.695-0.826-3.914-1.428c-2.828-1.386-5.282-3.458-7.093-5.99
	c-1.352-1.884-2.351-4.036-2.949-6.329c-1.272,0.836-2.57,1.635-3.881,2.389c-8.801,5.063-18.528,8.589-30.614,11.098l-0.199,0.031
	c-32.267,3.369-60.967-1.545-68.994-3.131l-0.183-0.045c-14.688-4.374-25.456-10.139-33.774-18.101
	c-1.42,2.375-3.253,4.55-5.382,6.371c-2.58,2.211-5.628,3.925-8.814,4.958c-1.486,0.483-3.033,0.819-4.613,1l-3.111,6.797
	l-32.17-10.927l2.894-6.322c-0.842-0.69-1.617-1.446-2.315-2.26c-2.024-2.352-3.461-5.234-4.153-8.335
	c-1.056-4.682-0.398-9.825,1.854-14.476c1.178-2.445,2.823-4.773,4.782-6.771c0.274-2.658,1.022-5.265,2.23-7.758
	c1.177-2.444,2.822-4.771,4.781-6.768c0.274-2.657,1.022-5.263,2.229-7.756c1.178-2.445,2.824-4.772,4.782-6.77
	c0.274-2.659,1.023-5.265,2.23-7.757c1.503-3.121,3.724-5.993,6.42-8.301c2.583-2.213,5.632-3.928,8.817-4.959
	c0.826-0.269,1.681-0.495,2.554-0.674c0.185-0.77,0.446-1.525,0.782-2.258l1.397-3.051c1.882-4.115,5.929-7.061,10.277-7.663
	c0.007-7.195-0.621-13.547-1.91-19.366c-0.793-3.578-1.929-6.993-3.133-10.609c-0.547-1.644-1.095-3.291-1.608-4.951l-1.575-5.094
	l4.536,2.801c7.784,4.807,12.948,10.078,16.251,16.587c3.307,6.517,4.236,13.778,5.134,20.8L71.37,133
	c0.092,0.723,0.188,1.444,0.284,2.166c1.505-9.125,3.615-18.018,6.287-26.491c3.886-12.328,9.336-26.614,20.292-39.099
	c5.81-6.62,12.342-11.039,19.97-13.511l4.3-1.394l-2.363,5.239c-0.315,0.706-0.587,1.312-0.871,1.915
	c-4.095,8.669-7.943,18.065-8.447,28.092c0.693-0.287,1.36-0.548,2.021-0.791c2.827-1.04,5.745-1.929,8.689-2.646
	c0.934-2.618,2-5.048,3.244-7.399c3.559-6.723,8.477-11.631,15.036-15.006c4.184-2.153,8.058-4.587,11.514-7.237
	c12.269-9.404,16.752-20.844,13.326-34.002c-1.193-4.58-3.081-9.034-4.907-13.341c-0.828-1.952-1.683-3.97-2.458-5.964L155.916,0
	l3.688,0.856c0.187,0.043,1.149,0.272,1.796,0.531c14.854,5.939,23.594,17.033,26.72,33.916c2.753,14.874,0.773,29.613-5.887,43.921
	c0.027-0.022,0.055-0.045,0.083-0.068c2.985-2.476,6.072-5.036,9.352-7.287c5.693-3.906,13.375-8.486,22.32-9.238
	c1.934-0.162,3.776,0.001,5.727,0.174c0.873,0.077,1.774,0.157,2.717,0.208l4.398,0.239l-3.075,3.154
	c-15.068,15.46-23.68,32.991-26.317,53.576c2.02,5.284,3.125,11.038,3.283,17.111c0.007,0.284,0.013,0.568,0.017,0.854
	c3.046-4.584,6.681-8.678,10.863-12.227c9.763-8.284,19.608-11.599,30.105-10.125l3.7,0.519l-3.255,3.661
	c-0.462,0.522-0.842,0.951-1.228,1.375c-6.675,7.333-11.491,14.275-14.637,21.114l0.993-0.204c1.034-0.212,2.077-0.292,3.103-0.235
	c5.375,0.292,9.474,4.167,9.966,9.422l0.292,3.146c0.061,0.657,0.063,1.321,0.006,1.988c0.672,0.244,1.32,0.52,1.938,0.825
	c2.829,1.387,5.283,3.46,7.094,5.992c1.882,2.624,3.08,5.768,3.464,9.089c0.302,2.562,0.123,5.181-0.532,7.794
	c1.201,2.192,1.985,4.665,2.28,7.203c0.303,2.563,0.124,5.184-0.531,7.799c1.202,2.193,1.986,4.666,2.28,7.206
	c0.302,2.561,0.124,5.18-0.531,7.795c1.201,2.192,1.985,4.664,2.28,7.202l0,0c0.567,4.812-0.591,9.911-3.262,14.36
	c-1.718,2.874-4.071,5.465-6.805,7.493c-1.047,0.778-2.162,1.48-3.326,2.095l0.592,6.361L210.425,254.803z M198.899,226.833
	l0.334,3.459c0.009,0.09,0.014,0.181,0.02,0.272l0.007,0.114c0.307,2.65,1.256,5.146,2.744,7.221
	c1.429,1.997,3.367,3.631,5.606,4.729c1.319,0.651,2.783,1.122,4.354,1.401l1.5,0.267l0.53,5.691l27.28-5.592l-0.519-5.572
	l1.288-0.592c1.379-0.633,2.689-1.409,3.895-2.305c2.315-1.717,4.306-3.908,5.757-6.337c2.219-3.697,3.185-7.899,2.721-11.835
	v-0.004c-0.262-2.266-1.01-4.458-2.161-6.341l-0.46-0.752l0.246-0.847c0.678-2.343,0.895-4.783,0.626-7.056
	c-0.262-2.271-1.009-4.463-2.16-6.345l-0.46-0.753l0.246-0.848c0.688-2.376,0.899-4.751,0.626-7.059
	c-0.263-2.27-1.01-4.461-2.16-6.343l-0.46-0.753l0.246-0.847c0.688-2.375,0.899-4.749,0.627-7.055
	c-0.307-2.653-1.255-5.15-2.743-7.225c-1.428-1.997-3.367-3.633-5.607-4.732c-0.907-0.447-1.896-0.815-2.943-1.096l-1.898-0.508
	l0.475-1.907c0.212-0.853,0.282-1.701,0.206-2.521l-0.292-3.145c-0.303-3.232-2.853-5.618-6.2-5.799
	c-0.681-0.037-1.383,0.017-2.083,0.16l-8.271,1.695l1.294-3.401c3.112-8.181,8.396-16.375,16.141-25.02
	c-7.923-0.118-15.345,2.972-23.059,9.518c-5.878,4.988-10.598,11.137-14.029,18.275l-4.961,10.323l1.169-11.393
	c0.309-3.012,0.429-5.965,0.355-8.778c-0.151-5.79-1.225-11.249-3.191-16.228l-0.187-0.474l0.062-0.506
	c2.505-20.348,10.568-37.832,24.607-53.317c-1.304-0.103-2.5-0.158-3.691-0.057c-8.01,0.673-15.105,4.922-20.392,8.549
	c-3.129,2.148-6.145,4.649-9.061,7.067c-2.284,1.894-4.639,3.848-7.081,5.663l-0.312,0.712l-2.3,0.25l-1.865-2.552l1.208-0.986
	c0.174-0.335,0.35-0.669,0.54-0.997c9.09-15.662,12.161-31.911,9.127-48.293c-2.648-14.307-9.67-24.047-21.429-29.684
	c0.224,0.531,0.448,1.06,0.67,1.584c1.882,4.44,3.828,9.031,5.095,13.894c3.816,14.653-1.289,27.857-14.763,38.185
	c-3.645,2.794-7.722,5.357-12.117,7.619c-5.807,2.988-10.168,7.345-13.331,13.32c-1.308,2.471-2.405,5.042-3.355,7.86l-0.357,1.061
	l-1.091,0.25c-3.145,0.72-6.269,1.648-9.283,2.757c-1.413,0.52-2.87,1.133-4.586,1.929l-2.741,1.271l-0.099-3.02
	c-0.032-0.982-0.03-1.906,0.006-2.825c0.409-10.323,4.073-19.832,8.139-28.603c-5.069,2.361-9.503,5.798-13.703,10.583
	C90.774,84.14,85.517,97.945,81.756,109.877c-3.031,9.615-5.324,19.784-6.813,30.227l-0.34,2.387l-6.286-2.134l-0.424-3.16
	c-0.166-1.229-0.333-2.458-0.49-3.689l-0.047-0.37c-0.895-6.993-1.739-13.598-4.734-19.498c-2.238-4.41-5.473-8.211-10.006-11.709
	c1.107,3.333,2.225,6.77,3.007,10.299c1.468,6.624,2.118,13.872,1.989,22.155l-0.032,2.042l-2.041-0.074
	c-3.509-0.125-7.03,2.107-8.552,5.436l-1.397,3.051c-0.374,0.818-0.611,1.671-0.705,2.537l-0.167,1.542l-1.536,0.222
	c-1.147,0.166-2.267,0.425-3.33,0.771c-2.69,0.871-5.265,2.321-7.451,4.193c-2.279,1.952-4.153,4.373-5.42,7.002
	c-1.085,2.241-1.744,4.681-1.908,7.059l-0.053,0.771l-0.557,0.535c-1.858,1.785-3.412,3.915-4.495,6.162
	c-1.1,2.273-1.741,4.646-1.906,7.057l-0.052,0.771l-0.558,0.535c-1.858,1.785-3.412,3.915-4.494,6.162
	c-1.101,2.274-1.742,4.647-1.907,7.058L11,197.987l-0.557,0.535c-1.859,1.785-3.413,3.917-4.496,6.164
	c-1.861,3.843-2.412,8.054-1.553,11.861c0.55,2.465,1.686,4.747,3.283,6.604c0.834,0.972,1.809,1.84,2.898,2.583l1.394,0.951
	l-2.422,5.292l24.558,8.34l2.588-5.655l1.193-0.077c1.665-0.106,3.293-0.416,4.841-0.92c2.69-0.871,5.265-2.32,7.448-4.191
	c2.279-1.95,4.155-4.374,5.425-7.008c0.039-0.081,0.072-0.162,0.106-0.243l1.367-3.051l2.053,2.244
	c0.351,0.383,0.705,0.765,1.081,1.137c7.918,7.852,18.336,13.519,32.778,17.829c8.007,1.577,36.065,6.348,67.61,3.069
	c11.612-2.418,20.935-5.797,29.333-10.628c2.104-1.21,4.172-2.542,6.148-3.961L198.899,226.833z" class="color c2"/>
</svg>