<svg version="1.1" id="图层_1" x="0px" y="0px" width="179.389px" height="187.523px" viewBox="0 0 179.389 187.523" enable-background="new 0 0 179.389 187.523" xml:space="preserve" xmlns="http://www.w3.org/2000/svg" xmlns:xlink="http://www.w3.org/1999/xlink" xmlns:xml="http://www.w3.org/XML/1998/namespace">
  <path fill="#F83F07" d="M179.338,87.755c-0.055,7.929-1.188,15.749-3.307,23.265c0.119,1.321-0.26,2.59-0.741,3.851
	c0.416,1.624-0.56,3.041-0.681,4.588c-0.284,0.973-0.569,1.948-0.853,2.922c-0.588,2.045-0.26,4.316-1.52,6.196
	c-0.001-0.001-0.002-0.001-0.002-0.003c0,0.002,0,0.002,0,0.004c-0.305,0.811-0.615,1.62-0.923,2.43
	c0.128,0.629-0.113,1.096-0.649,1.428h0.002c-0.718,1.514-1.437,3.023-2.155,4.535c-1.104,1.958-2.208,3.918-3.313,5.877
	c0.001,0,0.001,0,0.002,0c-0.23,1.327-1.42,2.061-1.977,3.186c0.018,1.794-1.526,1.46-2.535,1.857
	c-0.482,0.763,0.471,1.65-0.203,2.399c-0.148,1.152-0.992,1.812-1.785,2.505c0,0,0,0,0,0.002c-0.246,0.495-0.494,0.989-0.74,1.484
	c-0.131,0.67-0.523,1.1-1.178,1.291c-0.104,0.552-0.448,0.862-0.986,0.979c-0.721-0.146-1.439-0.295-2.161-0.441c0,0,0,0,0-0.002
	c-1.469-0.492-2.859-0.109-4.237,0.396c-0.024,0.981-1.188,1.623-0.817,2.723c0.813-0.236,1.419-0.762,1.945-1.396
	c0.413-0.701,1.259-1.395,1.697-0.652c0.51,0.861-0.848,0.879-1.357,1.307c-0.8,1.321-1.598,2.642-2.396,3.962
	c0.091,0.204,0.183,0.405,0.271,0.611c-0.103,0.251-0.204,0.501-0.307,0.751c-0.536,0.583-1.073,1.164-1.126,2.019
	c-0.148,0.162-0.3,0.326-0.449,0.489c-0.306-0.131-0.592-0.294-0.861-0.487c-0.089-0.092-0.158-0.192-0.229-0.292
	c-0.222,0.311-0.614,0.55-0.866,0.847c-0.131,0.297-0.262,0.593-0.392,0.89c0.052,0.175,0.101,0.353,0.152,0.526
	c-0.046,0.28-0.168,0.518-0.381,0.709c-0.842-0.158-1.445,0.205-1.915,0.866c-0.905,0.152-1.635-0.104-2.19-0.768
	c0.688,1.164,0.339,2.07-1.136,2.698c-0.298,0.104-0.595,0.209-0.89,0.313c-1.172,1.265-2.244,2.914-4.123,1.295
	c0.238,0.979,0.185,1.877-0.879,2.482c-0.619,0.178-1.23,0.52-1.887,0.13c-1.562-0.868-1.562-0.868-1.882,0.041
	c-0.396,1.551-1.498,1.051-3.053,0.898c2.275-1.114,1.117-2.67,1.232-4.012c0.016-0.008,0.03-0.015,0.043-0.021
	c0.285-0.31,0.568-0.62,0.852-0.93c-0.315-0.297-0.633-0.596-0.951-0.896c0.927,0.039,1.526-1.745,2.602-0.879
	c0.469,0.062,0.915-0.058,1.361-0.162c-0.036-0.045-0.071-0.092-0.104-0.137c-0.668,0.411-1.188-0.222-1.617-0.897
	c-0.344-0.54-0.326-1.319-1.118-1.537h-0.001c-0.051-0.002-0.096-0.015-0.144-0.019c-0.507,0.235-1.016,0.471-1.528,0.697
	c-0.765,0.716-1.529,1.431-2.293,2.146c-0.246-0.279-0.404-0.611-0.539-0.956c-0.399,0.16-0.799,0.324-1.201,0.479
	c-0.727,0.281-1.456,0.549-2.186,0.809c0.072,0.016,0.146,0.021,0.218,0.046c1.218,0.841,0.091,3.524,2.718,3.374
	c0.325-0.018,0.407,0.867,0.066,1.479c0.111,0.144,0.208,0.296,0.271,0.474c0.345-0.472,0.689-0.941,1.033-1.414
	c2.035,0.872,0.975,1.678,0.313,2.491c0.033,0.013,0.063,0.02,0.096,0.033c0.842,0.621,2.318,0.084,2.731,1.495
	c0.087,1.18-1.303,0.946-1.643,1.714c-1.687,1.043-2.889,2.936-5.164,2.949c-1.808-1.445-3.949-2.825-0.979-5.172
	c-0.16-0.098-0.321-0.193-0.482-0.291c-0.854,0.141-1.16-0.301-0.524-0.832c0.978-0.819,0.418-1.436-0.001-2.145
	c-0.482-0.133-0.792-0.446-0.963-0.908c-0.256-0.109-0.51-0.221-0.763-0.33c0.225-0.513,0.448-1.023,0.671-1.533
	c0.09-0.301,0.229-0.544,0.404-0.744c-3.647,1.201-7.324,2.15-11.009,2.857c0.021,0.161,0.01,0.295-0.141,0.308
	c-0.007,0.159-0.399,0.354,0.011,0.458c0.678-0.062,1.262-0.535,1.967-0.588c0.151,0.002,0.303,0.025,0.451,0.061
	c0.383-0.517,0.927-0.66,1.611-0.496c0.737,0.517,1.094,1.152,0.864,1.97c0.973,0.106,1.666,0.483,1.584,1.624v0.005
	c-0.455,0.808-0.834,1.662-1.494,2.334c-0.922,0.227-1.778,0.537-2.071,1.582c-0.858-0.23-1.245,3.496-2.46,0.295
	c-0.256-0.124-0.51-0.247-0.763-0.371c-0.316-0.286-0.638-0.574-0.956-0.859c-0.652,0.099-1.767,0.289-1.545-0.584
	c0.421-1.67-1.021-2.836-0.763-4.454c0.148-0.938-0.563-0.247-0.901-0.046c-0.295,1.449-0.676,2.756-2.572,1.551
	c-0.446-0.517-0.893-1.033-1.34-1.551c-0.006-0.01-0.002-0.021-0.008-0.03c-0.129,0.011-0.258,0.019-0.387,0.03
	c-3.873,0.538-7.747,0.805-11.599,0.818c0.183,0.172,0.361,0.342,0.542,0.514v0.001c1.557,0.7,3.112,1.398,4.667,2.099
	c0.601,0.021,1.201,0.041,1.804,0.062c-0.277,0.303-0.554,0.605-0.828,0.909c0.906,0.947,1.592,2.839,3.242,0.765
	c0.027-0.035,0.722,0.463,1.104,0.711c0.602-0.648,0.818-1.645,1.784-1.963c0.778,0.655,0.991,2.727,2.952,1.229
	c-0.904,1.469-1.809,2.937-2.712,4.404c-0.714-0.353-1.534-0.564-1.866-1.417c-0.054-0.139-0.107-0.276-0.158-0.418
	c-1.15,0.252-2.297,0.5-3.447,0.75c-0.381,0.637-0.139,1.246,0.082,1.855c0.574-0.031,1.318-0.047,1.238,0.705
	c-0.127,1.186-1.347,1.09-2.149,1.474c-0.15-0.351-0.306-0.704-0.457-1.054l0.002-0.002c-0.168-0.34-0.336-0.68-0.504-1.02
	c-0.313-0.438-0.739-0.808-0.808-1.388c-0.056-0.273-0.082-0.543-0.098-0.81c-0.241,0.472-0.433,1.002-0.963,1.142
	c0.028,0.021,0.061,0.031,0.088,0.052c0.404,0.401,0.625,0.876,0.592,1.456c-0.072,0.257-0.164,0.506-0.281,0.745
	c-0.148,0.239-0.301,0.479-0.451,0.718c-0.783-0.067-1.287-0.511-1.609-1.198c-0.003-0.003-0.004-0.007-0.006-0.011
	c0,0.008,0.001,0.013,0.001,0.02c-1.112,2.898-3.571,0.368-5.177,1.277c-0.658-0.561-1.318-1.12-1.977-1.683
	c-0.001,0.001-0.001,0-0.001,0c-1.074-0.616-2.797,2.612-3.433-0.581c-0.194-1.479,0.85-1.146,1.704-1.229
	c1.709-0.168,3.527,0.004,4.933-1.32c0.133,0.068,0.262,0.135,0.392,0.199c0.392,0.508,0.43,1.013,0.243,1.515
	c0.754-0.075,1.419,0.374,2.124,0.583c0.343,0.136,0.713,0.246,0.949,0.482c-0.014-0.267,0.041-0.524,0.186-0.773
	c0.241-0.276,0.54-0.431,0.889-0.485c-1.277-0.912-1.982-2.227-2.411-3.733c0.897-1.046,1.181-2.189,0.545-3.479
	c-0.858-0.093-1.489-0.367-1.558-1.1c-1.026-0.006-2.051-0.035-3.072-0.078c-0.293,0.518-0.542,1.068-0.943,1.5
	c-0.13-0.356-0.263-0.715-0.396-1.07c-0.172-0.162-0.314-0.337-0.438-0.521c-3.009-0.188-5.995-0.533-8.948-1.031
	c0.13,0.676-0.119,1.392-0.2,2.086c-0.136,0.241-0.309,0.449-0.534,0.611c-1.077,0.285-1.969,1.255-3.183,1.014
	c-0.173,1.481-0.256,2.992-1.446,4.131c0.009,0.025,0.018,0.05,0.025,0.074c0.018,0.024,0.035,0.038,0.052,0.063
	c0.033,0.096,0.065,0.19,0.1,0.287c0.947-1.894,3.368-0.291,4.458-1.832c1.424-0.189,2.1,0.75,2.711,1.79
	c0.207,0.801,0.148,1.451-0.876,1.556l0.003,0.002c-1.717-0.293-3.436-0.713-5.129,0.111c-0.121,0.092-0.257,0.143-0.411,0.151
	c-0.173-0.332-0.346-0.664-0.521-0.996c0,0,0,0,0-0.002c-1.053,0.057-2.047-0.723-3.132-0.217c-0.177-0.432-0.177-0.845,0.134-1.225
	c0.464-0.845,1.214-1.057,2.11-0.949v-0.002c0.43-0.802,0.874-1.604,0.251-2.512c0.28-0.546,0.796-0.51,1.27-0.572
	c-1.309-0.784-1.54-1.834-1.104-3.045c-0.331,0.127-0.675,0.131-1.03-0.004c-0.07,0.725-0.262,1.426-0.428,2.13
	c-0.784,1.897-0.378,4.396-2.769,5.49c-1.03,0.135-1.868-0.394-2.75-0.77c-0.021,0.076-0.044,0.153-0.073,0.234
	c-0.996,0.558-2.051,0.389-3.104,0.252c-1.136-0.382-2.271-0.766-3.407-1.147c-0.776-0.077-1.415-0.426-1.952-0.981
	c0,0.001-0.001,0.001-0.001,0.001c-0.441,0.071-0.896,0.196-1.248-0.226c-0.486-0.275-0.973-0.555-1.458-0.832
	c-0.93-0.675-1.856-1.353-2.786-2.028c0.542-0.021,1.085-0.042,1.627-0.063c0-0.021-0.005-0.034-0.005-0.054
	c0.106-0.615,0.457-1.055,0.982-1.365c0.273-0.111,0.557-0.17,0.852-0.162c0.815,0.133,1.403,0.556,1.794,1.227
	c0.207-0.569,0.328-1.198,1.063-1.403c0.103,0.32,0.207,0.641,0.31,0.961c0.126,0.038,0.254,0.092,0.389,0.184
	c0.161,0.209,0.24,0.427,0.234,0.654c0.228-0.024,0.453-0.017,0.678,0.047c0.68,0.328,0.952,0.879,1.085,1.503
	c0.373-0.178,0.765-0.278,1.182-0.281c0.661,0.088,1.308,0.213,1.895,0.528c0.368-0.377,0.905-0.626,1.077-1.157
	c-0.007-0.113-0.016-0.228-0.028-0.341c-1.075-0.729-1.16-1.855-0.379-3.329c-0.541-0.473-1.084-0.944-1.624-1.419
	c-0.984,0.506-1.762,0.328-2.274-0.712c0.848-0.058,1.571,0.29,2.278,0.692c0.832,0.106,1.666,0.212,2.498,0.316
	c0.001,0,0.001-0.001,0.001-0.001c2.017-0.548,3.965-0.102,5.91,0.4c0.323,0.01,0.648-0.031,0.974-0.074
	c-18.397-4.422-35.14-14.784-47.294-29.788c0.148,0.297,0.297,0.596,0.438,0.896c0.293,1.508-0.137,2.613-1.709,3.088
	c-0.608-0.044-1.068-0.343-1.417-0.83c-0.018-0.079-0.049-0.15-0.072-0.225c-1.011-0.069-1.96-0.392-2.891-0.799
	c-0.08-0.115-0.143-0.244-0.188-0.38c0.395-1.042-0.071-2.655,0.928-3.299c-0.451-0.542-1.06-0.87-1.674-1.188
	c0.638,0.743,1.125,1.499-0.318,2.436c-0.867-0.109-1.268-0.696-1.494-1.461c-1.425-1.969-2.512-4.075-2.654-6.563
	c0-0.002-0.001-0.003-0.002-0.005c-0.209-0.582-0.418-1.166-0.627-1.75L7.557,133.4l0.017-0.168
	c-0.988-0.663-1.05-1.815-1.473-2.779c-0.624-0.737-0.17-1.669-0.446-2.472c-1.371-0.88,1.244-2.745-0.85-3.446
	c-1.395-0.257-0.459-1.332-0.701-1.994c-1.066-0.972-0.324-2.321-0.727-3.435c-0.286-0.692-1.248-1.136-0.782-2.11
	c-0.655-1.478-1.373-2.94-1.094-4.638c0.768-0.684,0.674-1.875,1.005-2.813c-2.023-8.207-2.789-16.494-2.415-24.636
	c0.846,3.829,1.988,7.643,3.441,11.414c15.605,40.486,61.075,60.655,101.562,45.05c40.485-15.606,60.652-61.075,45.049-101.561
	C143.41,22.343,131.115,8.662,116.062,0c17.851,5.331,33.897,16.228,45.413,31.491c0.664,0.333,0.942,0.988,1.304,1.571
	c0.258,0.187,0.387,0.421,0.361,0.713c4.123,5.848,7.604,12.286,10.294,19.266C177.838,64.466,179.713,76.243,179.338,87.755z" class="color c1"/>
</svg>