<svg version="1.1" id="图层_1" x="0px" y="0px" width="188.4px" height="167.7px" viewBox="0 0 188.4 167.7" enable-background="new 0 0 188.4 167.7" xml:space="preserve" xmlns:xml="http://www.w3.org/XML/1998/namespace" xmlns="http://www.w3.org/2000/svg" xmlns:xlink="http://www.w3.org/1999/xlink">
  <path fill="#BC881D" d="M188.4,105.299c-3.9-1.899-7.3-2-10.7-0.199c-4.4,2.4-8.8,2-13.2,0c-5.3-2.4-10.1-5.5-14.399-9.2
	c-1.9-1.7-3.4-3.7-4.4-6c-2.4-5.3-4.1-10.8-7.4-15.6c-0.199-0.3-0.3-0.8-0.5-1.1c-0.399-1.2,0.101-2.5,1.2-2.9
	c1.5-0.6,3.101-0.9,4.7-1.3c1.2-0.3,2.4-0.3,3.8-0.5c-2.6-5.8-1.399-10.8,2.7-15.3c-1-0.7-1.6-1.3-2.3-1.7c-2.601-1.1-3.4-3.3-4-5.8
	c-0.2-0.9,0-1.5,0.7-2c1.699-1.1,3.5-2.2,5.199-3.3c1.301-0.9,2.601-1.7,4-2.6l0.4-0.3c-0.5,0-1.5,0.1-1.9,0.2
	c-3,0.8-5.899,1.7-8.899,2.6c-0.7,0.2-1.5,0-2-0.6c-7.5-9.3-15.101-18.5-22.5-27.9c-1.2-1.5-2.2-3-3.3-4.5
	c-2.7-3.8-6.4-5.6-10.9-5.8c-2.9-0.1-5.8,0.1-8.6,0.1c-0.9,0-2.301-0.3-3-0.8c-1.601-1-3.801-1.1-5.5,0.1
	c-1.301,0.9-1.7,2-1.301,3.6C86.7,6.1,87.9,7,89.5,7.3c2.2,0.4,3.4-0.6,4.7-2.4c3.5,0.3,6.4,0.8,9.7,3.3c0.899,0.6,2.6,4,3,5
	c4.2,11.8,6.8,23.8,7.1,36.4c0.101,3.2-0.6,5.1-3.899,6.1c-2.9,1-6.4,2.7-8.801,4.2h0.5c2.2,0,4.301-0.1,6.5-0.1h1.101
	c-2.2,1.1-5.4,2.8-7.7,3.8c-4.2,1.9-8,1.5-11.4-1.7C90,61.6,89.6,61.3,88.9,60.7c0.2,1.8-0.2,4.7,1.6,6l-0.8-0.3
	c-1.1-0.4-2.3-0.4-3.4-0.3c-2,0.2-4.399-1.5-4.3-3.8c-0.899,4.9,2.3,7,2.2,7.2c-0.7,0.8-3.4-0.3-5.1-1.6c-1.7-1.3-4-4.5-4.7-5.5
	c0,0,0.5,5.5,1.2,7.6c0.6,2.1,1.8,4.1,2.699,6.2c-4,1-6.699-1.5-9.899-3.2c3,9.2,10,13,18.3,15.5c-2.6,1.199-4.8,0.699-7.5,0
	C83,91.2,86.7,92,91.2,91.9c-0.8,0.8-2.4,1.601-3.1,1.8c7-0.5,17.699-8.5,17.8-8.9C106,85,106,85.299,106,85.6
	c-0.2,2.5-3.5,5.199-4.8,6.199c3-1.1,5.7-2.799,7.5-5.399c1.7-2.4,3.1-5.1,4.7-7.7c1.2-2,2.3-4.1,3.6-6c1.3-1.8,3-3.1,5.601-3.9
	c-0.601,1-0.9,1.7-1.301,2.3C114.6,81.4,107,91,97.5,98.9c-1.399,1.101-2.8,2.3-4.1,3.5C89.4,106.1,85.7,110,83.3,115
	c-1.699,3.699-2.1,7.5-0.3,11.299c0.2,0.5,0.7,1.701,0.7,1.701c-2.1,0.5-4.1,1-5.9,1.399C76.6,129.7,76.5,129,75.7,128
	c-0.7-0.9-1.3-3.301-1.3-3.301c-2,2.7-6.4,3.9-9.2,3.2c-0.8-0.2-1.6-0.399-2.4-0.7c-5.199-1.6-13.199-2.9-18.6-2.199
	c-0.1,0-0.2,0-0.2,0C33,127.4,15.6,148.2,0.1,145.9C19.4,154.799,35,156.299,44.5,154.2s14.601-7.9,18.2-11.8c2-2.2,8-5.5,13.4-5.7
	c0.8,0,1.6-0.199,2.399-0.3c-0.3-0.601-0.399-1-0.6-1.3c-0.5-1.6-0.4-2.2,1-2.6c0.6-0.201,5.1-1.201,5.1-1.201L85.4,131
	c0,0,1.8,2.5,4.5,4.5c7.899,5.199,19.399,2.1,22,1.699c13.7-0.3-9.601,26-17.2,30.4c11.4-0.9,51.3-13.7,61.1-33.1
	c1-2.301,1.601-9.4-2.899-12c-1.601-0.9-8.601-4.101-10.7-5c3.2-0.801,39.5-9.301,42.1-9.9C186,107.299,186.8,106.299,188.4,105.299
	z M20.9,145.5c0,0-0.5,0.899-0.7,1.6c-0.2-0.5-0.5-1.801-2.1-1.5c0.5-0.301,0.899-0.6,1.399-0.9c-0.1-0.5-0.1-1-0.3-1.8
	c0.5,0.399,0.9,0.7,1.4,1.101c0.5-0.301,1.1-0.5,1.899-0.9c-0.3,0.8-0.5,1.199-0.8,1.699c0.4,0.4,0.7,0.9,1,1.101
	C22.1,145.5,20.9,145.5,20.9,145.5z M31.6,142.6c0,0-0.601,1.1-0.801,1.9c-0.199-0.601-0.6-2.101-2.5-1.801
	c0.5-0.3,1.101-0.699,1.7-1c-0.1-0.6-0.2-1.199-0.3-2.1c0.6,0.5,1.1,0.8,1.6,1.3c0.601-0.3,1.2-0.601,2.2-1.101
	c-0.399,0.9-0.6,1.4-0.899,2c0.5,0.5,0.899,1,1.1,1.301C33.1,142.7,31.6,142.6,31.6,142.6z M46.1,135.4c-1-0.7-2.9-1.3-2.9-1.3
	s-1.2,1.3-1.7,2.4c-0.1-1-0.1-3.201-2.8-3.4c0.9-0.301,1.7-0.6,2.7-0.9c0.1-0.9,0.2-1.8,0.3-3c0.7,0.9,1.2,1.5,1.8,2.301
	c0.9-0.201,1.9-0.5,3.5-0.801c-0.899,1.1-1.399,1.7-1.899,2.4C45.4,134.1,45.9,134.9,46.1,135.4z M145.6,60.7c0,1,0.1,1.8,0,2.5
	c-0.101,0.5-0.601,1.3-1.101,1.4c-3.1,0.8-8.2-1.5-10-4.7C138.2,62.1,141.8,62.9,145.6,60.7z M130.6,36.6
	c0.5,0.4,0.899,0.7,1.399,1.1c0.5-0.3,1-0.5,1.9-0.9c-0.3,0.8-0.5,1.2-0.7,1.6c0.4,0.4,0.7,0.9,1,1.1c-0.6-0.2-1.8-0.3-1.8-0.3
	s-0.5,0.9-0.7,1.6c-0.2-0.5-0.5-1.8-2.1-1.5c0.5-0.3,0.899-0.6,1.399-0.9C130.8,37.8,130.7,37.3,130.6,36.6z M123.4,47.9
	c-0.7,0-1.3,0-1.8,0c-0.301,0.5-0.601,1-1.101,1.8c0.101-1.5-0.3-2.4-1.8-2.4c1-0.5,1.8-1,1.1-2.1c0.4,0.4,0.9,0.8,1.4,0.8
	s0.9-0.2,1.6-0.7c-0.1,0.2-0.199,0.7-0.5,1.4C122.6,47,123,47.4,123.4,47.9z M118.8,20.8c0.5,0,1.2,0,1.801,0.1c0,0.4,0,1,0,1.6
	c-0.4,0.3-0.9,0.7-1.301,1.1c-0.399-0.4-0.8-0.8-1.199-1.3C118.3,21.9,118.6,21.2,118.8,20.8z M119.4,32.3l-0.101-1.6
	c0.5,0.6,1.301,1.2,2.4,0.1c-0.1,0.5-0.3,0.9-0.4,1.5c0.301,0.3,0.7,0.7,0.801,0.8c0,0-1.101-0.2-1.5,0c-0.4,0.3-0.7,1.4-0.7,1.4
	c-0.101-0.3-0.3-0.7-0.5-1.3c-0.5,0-1.2-0.2-1.5-0.3L119.4,32.3z M109.5,9.3c-0.2-0.2-0.7-0.6-1.1-1c0.2-0.5,0.399-1.1,0.6-1.6
	c0.5,0.1,1.101,0.2,1.8,0.3c0.101,0.5,0.2,1,0.4,1.5C110.7,8.7,110.2,8.9,109.5,9.3z M112.9,18.7c-0.3-0.3-0.601-0.8-1.101-1.3
	c0.2-0.4,0.4-1,0.601-1.6c0.6,0.1,1.2,0.2,1.8,0.4c0.1,0.4,0.2,1,0.3,1.4C114,17.9,113.4,18.3,112.9,18.7z M110.3,58.4
	c3.7-0.4,10.5-3.3,17.801-6.9c7.3-3.6,15.399-9,16.5-9.5C138.7,48.9,114.9,60.5,110.3,58.4z M129.3,112.4c0-6.101,5-13,5.9-17.101
	c0,0,4.7,6.801,6.6,7.9c5.4,3,18.4,5.5,18.4,5.5L129.3,112.4z" class="color c1"/>
</svg>