<svg version="1.1" id="图层_1" x="0px" y="0px" width="113.389px" height="113.43px" viewBox="0 0 113.389 113.43" enable-background="new 0 0 113.389 113.43" xml:space="preserve" xmlns="http://www.w3.org/2000/svg" xmlns:xlink="http://www.w3.org/1999/xlink" xmlns:xml="http://www.w3.org/XML/1998/namespace">
  <path fill="#E09A14" d="M68.161,80.086l0.006,0.004c25.373,32.671,45.135,33.341,45.135,33.341
	c-27.934-22.744-3.326-56.64-3.326-56.64c-11.547,6.964-20.459,5.79-26.455,2.923c-5.48-2.62-7.16-9.618-3.498-14.462l0.025-0.032
	c32.67-25.374,33.342-45.135,33.342-45.135C90.646,28.019,56.751,3.411,56.751,3.411c6.917,11.473,5.805,20.346,2.977,26.341
	c-2.609,5.529-9.628,7.28-14.505,3.59C19.847,0.671,0.087-0.001,0.087-0.001c27.934,22.745,3.328,56.64,3.328,56.64
	c11.546-6.962,20.457-5.79,26.452-2.924c5.479,2.619,7.163,9.617,3.498,14.463l-0.024,0.03C0.67,93.582,0,113.345,0,113.345
	c22.743-27.934,56.639-3.326,56.639-3.326c-7.028-11.658-5.768-20.63-2.84-26.627C56.423,78.015,63.388,76.473,68.161,80.086z
	 M51.196,63.982c-4.014-3.037-4.806-8.752-1.769-12.767c3.036-4.014,8.75-4.806,12.765-1.77c4.014,3.038,4.805,8.752,1.77,12.768
	C60.923,66.227,55.211,67.019,51.196,63.982z" class="color c1"/>
</svg>