<svg version="1.1" id="图层_1" x="0px" y="0px" width="54.226px" height="54.224px" viewBox="0 0 54.226 54.224" enable-background="new 0 0 54.226 54.224" xml:space="preserve" xmlns="http://www.w3.org/2000/svg" xmlns:xlink="http://www.w3.org/1999/xlink" xmlns:xml="http://www.w3.org/XML/1998/namespace">
  <path fill="#FFDBB3" d="M48.801,21.689H32.538V5.423c0-2.997-2.43-5.423-5.423-5.423c-2.998,0-5.422,2.427-5.422,5.423v16.266H5.424
	C2.43,21.689,0,24.117,0,27.112c0,2.995,2.43,5.423,5.424,5.423h16.269V48.8c0,2.996,2.424,5.424,5.422,5.424
	c2.993,0,5.423-2.428,5.423-5.424V32.535h16.263c2.999,0,5.425-2.428,5.425-5.423C54.226,24.117,51.8,21.689,48.801,21.689z" class="color c1"/>
</svg>