<svg version="1.1" id="图层_1" x="0px" y="0px" width="81.047px" height="205.084px" viewBox="0 0 81.047 205.084" enable-background="new 0 0 81.047 205.084" xml:space="preserve" xmlns:xml="http://www.w3.org/XML/1998/namespace" xmlns="http://www.w3.org/2000/svg" xmlns:xlink="http://www.w3.org/1999/xlink">
  <path fill="#FFFEFF" d="M79.05,54.675c0-3.9-11.97-7.8-23.53-10.31c-7.052-1.521-7.559-9.277-7.54-15.081
	c0,0-4.775-0.285-9.218-0.287c0-0.029-0.188-0.092-0.188-0.122c-0.89-0.09-1.744-0.22-2.524-0.42c-0.01,0-0.03,0-0.04-0.01
	c-0.35-0.09-0.68-0.18-1-0.29c-0.09-0.03-0.17-0.06-0.25-0.09c-0.28-0.09-0.54-0.19-0.8-0.31c-0.12-0.05-0.22-0.1-0.34-0.15
	c-0.14-0.07-0.27-0.14-0.4-0.21c-0.22-0.12-0.43-0.24-0.63-0.37c-0.07-0.05-0.14-0.09-0.2-0.14c-0.43-0.3-0.79-0.62-1.07-0.97
	c-0.01-0.01-0.01-0.01-0.02-0.02c-0.08-0.11-0.18-0.21-0.25-0.33c-0.09,5.12,1.07,15.52-6,18.36c-0.47,0.19-0.98,0.35-1.53,0.47
	C11.97,46.905,0.01,50.805,0,54.715c0,0.3,0.02,0.62,0.03,0.94c0.01,0.16,0.01,0.31,0.02,0.48c0.02,0.36,0.06,0.74,0.1,1.13
	c0.02,0.13,0.03,0.26,0.04,0.4c0.04,0.29,0.09,0.6,0.13,0.91c0.04,0.24,0.06,0.48,0.11,0.73c0.01,0.11,0.04,0.23,0.06,0.34
	c0.44,2.54,1.14,5.38,2.02,8.43c0.18,0.6,0.36,1.21,0.55,1.83h0.01c0,0-0.01,0.01,0,0.02c0.28,0.92,0.57,1.86,0.88,2.81
	c0.1,0.33,0.21,0.66,0.32,1h0.01c0,0-0.01,0.01,0,0.02c0.21,0.64,0.42,1.29,0.64,1.95h0.01c0,0-0.01,0.01,0,0.02
	c0.1,0.31,0.21,0.63,0.32,0.96c0.11,0.34,0.23,0.68,0.35,1.02c0.92,2.69,1.88,5.45,2.85,8.22c0.85,2.42,1.7,4.86,2.52,7.28
	c0.11,0.34,0.22,0.68,0.34,1.01c0.12,0.36,0.24,0.71,0.35,1.06c3.07,9.27,5.56,18.12,5.56,24.62c0,2.98-0.59,5.72-1.55,8.46
	c-0.32,0.91-0.67,1.82-1.07,2.73c0,0.01,0,0.01,0,0.01c-1.28,2.99-2.9,6.07-4.59,9.55c0,0.01,0,0.01,0,0.01
	c-0.26,0.54-0.52,1.08-0.78,1.63c0,0.01,0,0.01,0,0.01c-1.44,3.07-2.9,6.46-4.2,10.36c-0.47,1.42-0.92,2.9-1.35,4.47
	c-0.21,0.78-0.41,1.57-0.61,2.38c-1.81,7.55-2.92,16.83-2.55,28.7v0.02c0,0,0.15,0.06,0.44,0.17c0.05,0.02,0.1,0.04,0.17,0.06
	c0.12,0.04,0.25,0.09,0.39,0.15c0.12,0.04,0.25,0.09,0.38,0.14c0.34,0.12,0.74,0.26,1.19,0.42c0.15,0.05,0.3,0.1,0.46,0.15
	c0.01,0.01,0.01,0.01,0.02,0.01c0.17,0.06,0.34,0.11,0.51,0.17c0.08,0.02,0.15,0.05,0.23,0.07c0.47,0.16,0.98,0.32,1.53,0.49
	l0.377,0.012c6.651,1.896,16.917,3.81,29.633,4.108l4.61,0.01c22.12-0.37,38.17-7.01,38.17-7.01c1.31-42.88-16.76-50.83-16.76-67.31
	C61.88,102.745,79.05,69.355,79.05,54.675z" class="color c1"/>
  <path fill="#FE9900" d="M32.331,22.404c0-1.631,1.952-3.842,4.757-4.937C37.034,17.357,37,17.248,37,17.133
	c0-0.639,0.91-2.311,2.199-3.084l-0.256-4.151c-1.478-1.566-2.813-4.736-2.813-6.226C36.13,1.646,38.095,0,40.528,0
	c2.429,0,4.399,1.646,4.399,3.672c0,1.496-1.335,4.662-2.816,6.226l-0.254,4.151c1.285,0.771,2.197,2.443,2.197,3.082
	c0,0.119-0.031,0.228-0.088,0.334c2.803,1.097,4.76,3.31,4.76,4.937c0,2.232-3.67,4.045-8.198,4.045S32.331,24.635,32.331,22.404z
	 M81.047,54.684c0-3.9-11.97-7.8-23.53-10.31c-8.76-1.89-7.42-13.4-7.52-18.84c-1.25,1.99-5.02,3.45-9.47,3.45
	c-0.68,0-1.33-0.04-1.97-0.11c0,0.01,0,0.01,0,0.02c0.03,3.13-0.03,6.9-1.06,10.11c-0.18,0.57-0.4,1.12-0.65,1.64
	c-0.08,0.18-0.17,0.36-0.26,0.53c-0.19,0.34-0.38,0.66-0.6,0.98c-0.32,0.47-0.69,0.91-1.11,1.31c-0.69,0.67-1.51,1.24-2.48,1.67
	c-0.19,0.1-0.39,0.18-0.6,0.24c-0.41,0.14-0.85,0.27-1.31,0.37c-10.07,2.19-20.43,5.37-23.96,8.75c-0.14,0.13-0.27,0.26-0.38,0.38
	c-0.12,0.13-0.22,0.26-0.31,0.39c-0.2,0.26-0.34,0.52-0.43,0.78c-0.1,0.26-0.15,0.53-0.15,0.79c0,5.17,1.99,12.49,4.66,20.66
	c0.14,0.39,0.27,0.78,0.39,1.17c0.13,0.38,0.26,0.77,0.39,1.16c0.14,0.4,0.27,0.8,0.41,1.2c0.13,0.4,0.27,0.81,0.41,1.21
	c0.55,1.6,1.11,3.22,1.68,4.86c0,0.01,0,0.01,0,0.01c1.29,3.68,2.61,7.43,3.86,11.13c0,0.01,0,0.01,0,0.01
	c0.15,0.41,0.29,0.83,0.42,1.24c0.14,0.41,0.28,0.82,0.41,1.23c3.24,9.81,5.84,19.14,5.84,26.03c0,3.06-0.57,5.88-1.53,8.69
	c-0.08,0.24-0.16,0.47-0.25,0.71c-0.33,0.94-0.71,1.88-1.12,2.82c-0.2,0.47-0.41,0.94-0.63,1.42c-0.98,2.16-2.11,4.39-3.29,6.78
	c-0.27,0.53-0.53,1.06-0.79,1.61c-0.13,0.28-0.27,0.56-0.4,0.84c-0.68,1.39-1.35,2.84-2.02,4.38c-0.4,0.93-0.8,1.88-1.19,2.86
	c-0.66,1.64-1.3,3.36-1.9,5.19c-2.42,7.31-4.33,16.29-4.77,28v0.01c6.39,1.96,17.94,4.8,32.01,5.13l0.39,9.9h3.84l0.38-9.89
	c22.12-0.37,38.17-7.01,38.17-7.01c1.31-42.88-16.76-51.83-16.76-68.31C63.877,102.754,81.047,69.364,81.047,54.684z" class="color c2"/>
</svg>