<svg version="1.1" id="图层_1" x="0px" y="0px" width="300.655px" height="288.61px" viewBox="0 0 300.655 288.61" enable-background="new 0 0 300.655 288.61" xml:space="preserve" xmlns="http://www.w3.org/2000/svg" xmlns:xlink="http://www.w3.org/1999/xlink" xmlns:xml="http://www.w3.org/XML/1998/namespace">
  <path fill="#FEF7DA" d="M81.067,260.461c-1.248,0.249-2.526,0.404-3.788,0.609c-1.181,0.19-2.358,0.408-3.539,0.592
	c-2.772,0.439-5.401,1.975-8.396,0.801c-0.826,0.939-1.651,1.879-2.472,2.815c0.237,0.063,0.474,0.169,0.712,0.169
	c2.152,0.009,3.695,0.771,4.633,2.791c0.599,1.298,1.035,1.275,3.076,0.762l0,0c1.284-0.035,2.55-0.142,3.488-1.115
	c-0.081-0.293-0.142-0.516-0.206-0.73c-0.718-2.325-0.325-3.212,1.862-4.283c1.311-0.642,2.648-1.021,4.194-0.855
	c1.318,0.153,2.521-0.163,3.312-1.448C82.874,259.823,81.988,260.284,81.067,260.461z M71.266,268.865
	c-0.071-0.362-0.142-0.725-0.214-1.09c0.114-0.007,0.225-0.014,0.341-0.024C71.35,268.125,71.305,268.497,71.266,268.865z
	 M83.387,285.979c0.85,2.23,0.246,2.914-2.394,2.53C81.193,286.965,81.922,286.167,83.387,285.979z M88.336,285.362
	c-0.043,0.374-0.088,0.745-0.127,1.113c-0.072-0.362-0.142-0.725-0.214-1.09C88.108,285.379,88.219,285.372,88.336,285.362z
	 M106.649,256.096c-0.512,0.583-1.162,0.357-1.693-0.114c-0.287-0.263-0.487-0.61-0.733-0.919c0.309-0.357,0.617-0.702,0.924-1.057
	c0.387,0.102,0.842,0.105,1.147,0.316C106.977,254.788,107.215,255.467,106.649,256.096z M96.868,236.662
	c-1.17-0.921-3.068-0.663-4.078,0.559c-0.969,1.159-0.763,3.055,0.419,3.937c1.003,0.744,3.256,0.348,4.16-0.732
	C98.219,239.399,97.976,237.53,96.868,236.662z M111.194,271.317c-0.918-0.336-1.5,0.066-1.876,0.906
	c-0.724,1.602,0.192,2.748,1.156,3.941c1.213,1.504,2.312,1.603,3.758-0.086c0.043-0.344,0.379-1.125,0.165-1.76
	C113.896,272.855,112.711,271.862,111.194,271.317z M265.552,105.294c-0.924-0.722-2.413-0.739-3.146-0.04
	c-0.718,0.688-0.645,1.684,0.187,2.463c0.854,0.809,2.581,0.836,3.323,0.055C266.545,107.122,266.37,105.934,265.552,105.294z
	 M51.098,234.969c-0.661-0.385-1.346-0.574-2.147,0.471c0.171,0.421,0.266,1.189,0.715,1.646c0.545,0.553,1.352,0.412,1.894-0.172
	C52.088,236.352,51.872,235.419,51.098,234.969z M271.795,187.981c0.047,2.437,0.123,2.502,2.6,2.471
	C273.926,188.363,273.918,188.354,271.795,187.981z M230.881,116.486c-0.1-0.523-0.011-1.244-0.34-1.527
	c-0.339-0.289-1.087-0.142-1.652-0.186c0.067,0.536,0.13,1.069,0.22,1.825C229.883,116.55,230.383,116.514,230.881,116.486z
	 M298.205,89.51c-0.504-0.008-1.046-0.113-1.504,0.016c-0.189,0.053-0.208,0.601-0.422,1.314c0.854-0.225,1.37-0.289,1.798-0.512
	C298.231,90.245,298.169,89.795,298.205,89.51z M248.273,97.936c0.149-0.008,0.4-0.333,0.371-0.47
	c-0.177-0.755-0.696-0.896-1.422-0.638C247.136,97.613,247.48,98.004,248.273,97.936z M298.167,154.14
	c-0.185-0.054-0.423,0.099-0.639,0.158c0.064,0.19,0.08,0.495,0.213,0.555c0.162,0.079,0.426-0.05,0.751-0.106
	C298.361,154.483,298.302,154.184,298.167,154.14z M261.758,173.694c-0.064,0.201-0.1,0.326-0.135,0.452
	c0.189,0.052,0.384,0.12,0.579,0.142c0.03,0.004,0.144-0.313,0.104-0.341C262.151,173.838,261.95,173.776,261.758,173.694z
	 M249.979,150.813c0.058-0.032,0.152-0.054,0.174-0.102c0.021-0.056-0.027-0.137-0.043-0.209c-0.1,0.061-0.203,0.115-0.306,0.171
	C249.862,150.719,249.923,150.765,249.979,150.813z M295.068,88.52c0.098,0.052,0.201,0.107,0.299,0.164
	c0.011-0.069,0.019-0.137,0.032-0.205c-0.065-0.033-0.127-0.1-0.182-0.09C295.166,88.395,295.117,88.471,295.068,88.52z
	 M260.147,99.84c0.054-0.033,0.148-0.059,0.164-0.113c0.022-0.056-0.029-0.139-0.048-0.211c-0.095,0.064-0.197,0.123-0.296,0.183
	C260.027,99.745,260.088,99.794,260.147,99.84z M262.66,153.998c0.059,0.038,0.115,0.101,0.173,0.1
	c0.049,0.001,0.089-0.077,0.135-0.12c-0.034-0.063-0.062-0.119-0.094-0.178C262.803,153.864,262.732,153.933,262.66,153.998z
	 M300.649,93.088c-0.138,0.016-0.286,0.02-0.425,0.049c-0.02,0.001-0.008,0.121-0.006,0.178c0.141-0.006,0.287-0.011,0.431-0.031
	C300.66,93.282,300.652,93.16,300.649,93.088z M207.96,262.524c-0.774,0.936-0.515,2.412,0.583,3.322
	c1.099,0.908,2.712,0.957,3.546,0.115c0.837-0.848,0.634-2.736-0.384-3.557C210.613,261.524,208.737,261.585,207.96,262.524z
	 M126.936,236.204c-0.545-0.26-1.248-0.475-2.128-0.849c-0.026,0.385-0.068,0.704-0.108,1c-1.204,0.399-1.689,1.333-1.13,2.513
	c0.307,0.642,0.91,1.161,1.481,1.859c0.988-0.977,1.471-2.134,3.065-1.717c0.766,0.201,1.005-0.572,0.739-1.273
	C128.549,236.924,127.848,236.396,126.936,236.204z M139.689,242.91c0.697-0.695,0.697-2.289,0.003-2.967
	c-0.772-0.757-2.478-0.603-3.258,0.292c-0.609,0.705-0.423,1.99,0.397,2.701C137.609,243.612,139.001,243.604,139.689,242.91z
	 M175.697,186.883c0.536,0.26,1.256,0.162,2.434,0.278c-0.408-1.054-0.487-1.757-0.896-2.171c-0.566-0.563-1.365-0.477-1.894,0.148
	C174.787,185.79,174.955,186.518,175.697,186.883z M151.156,205.004c-0.598,0.582-0.512,1.318,0.22,1.75
	c0.46,0.273,1.118,0.24,2.212,0.435c-0.368-0.982-0.46-1.56-0.777-1.995C152.386,204.616,151.689,204.487,151.156,205.004z
	 M216.619,269.371c1.284-0.864,1.736-1.577,1.049-2.833C216.457,267.073,216.162,267.825,216.619,269.371z M214.482,244.259
	c-0.216,0.164-0.08,0.742-0.111,1.368c0.635-0.135,1.127-0.123,1.393-0.348c0.166-0.131,0.093-0.854-0.081-0.943
	C215.344,244.162,214.722,244.075,214.482,244.259z M172.705,257.151c-0.098,0.025-0.144,0.684-0.017,0.762
	c0.276,0.17,0.677,0.154,1.246,0.246c-0.074-0.488-0.038-0.949-0.165-0.998C173.447,257.046,173.032,257.053,172.705,257.151z
	 M189.177,270.942c-0.082,0.229-0.114,0.6,0.029,0.742s0.517,0.091,1.08,0.158c-0.24-0.486-0.298-0.784-0.49-0.943
	C189.683,270.799,189.206,270.856,189.177,270.942z M178.086,216.042c-0.104,0.095-0.004,0.37,0.013,0.696
	c0.304-0.154,0.521-0.21,0.649-0.348c0.065-0.061-0.016-0.374-0.064-0.381C178.48,215.972,178.188,215.938,178.086,216.042z
	 M203.903,219.031c-0.08,0.166-0.078,0.376-0.11,0.568c0.209,0.025,0.42,0.058,0.761,0.105c-0.1-0.304-0.122-0.509-0.238-0.66
	C204.267,218.979,203.937,218.979,203.903,219.031z M134.79,227.952c-0.026,0.125-0.115,0.288-0.064,0.373
	c0.061,0.096,0.244,0.129,0.376,0.191c0.025-0.137,0.114-0.291,0.06-0.387C135.107,228.036,134.921,228.01,134.79,227.952z
	 M227.215,210.842c0.049,0.118,0.063,0.287,0.152,0.332c0.077,0.039,0.232-0.061,0.354-0.098c-0.046-0.118-0.063-0.295-0.146-0.338
	C227.491,210.702,227.337,210.803,227.215,210.842z M161.955,207.897c-0.011,0.126-0.021,0.253-0.032,0.374
	c0.138-0.007,0.275-0.001,0.405-0.032c0.025-0.005,0.044-0.186,0.015-0.197C162.221,207.977,162.085,207.943,161.955,207.897z
	 M220.451,253.479c0.138,0.017,0.322,0.09,0.403,0.033c0.089-0.064,0.089-0.242,0.127-0.373c-0.181-0.018-0.362-0.033-0.547-0.057
	C220.439,253.216,220.448,253.348,220.451,253.479z M249.698,229.731c0.024-0.084,0.061-0.164,0.081-0.248
	c0.222-0.939-0.276-1.717-1.246-2.018c0.044,0.312,0.084,0.598,0.125,0.883c-0.065,0.006-0.131,0.01-0.193,0.016
	c-0.064-0.084-0.148-0.158-0.184-0.25c-0.579-1.545-0.677-1.598-2.323-1.52c-0.477,0.02-0.81,0.178-1.104,0.528
	c-0.591,0.698-1.15,1.403-1.335,2.312c0.24,0.393,0.46,0.791,0.72,1.17c0.632,0.904,1.354,1.381,2.159,1.508
	c0.617,0.916,1.81,1.557,3.365,1.713c1.76,0.186,2.887-0.691,2.768-2.355c-0.06-0.844-0.523-1.678-0.867-2.697
	C250.937,229.094,250.316,229.494,249.698,229.731z M239.103,221.497c-0.333-0.61-1-1.045-1.714-1.223
	c0.071-0.242,0.063-0.508-0.065-0.701c-0.243-0.36-0.764-0.439-1.17-0.182c-0.366,0.242-0.478,0.62-0.326,0.964
	c-0.011,0.005-0.021,0.006-0.031,0.011c-1.118,0.502-1.839,2.301-1.346,3.348c0.548,1.157,2.586,1.681,3.88,0.991
	C239.356,224.166,239.725,222.631,239.103,221.497z M178.091,208.366c-0.528-0.478-1.436-0.574-2.687-1.033
	c-0.086,1.253-0.396,2.085-0.13,2.717c0.357,0.871,1.297,1.146,2.251,0.689C178.426,210.311,178.824,209.028,178.091,208.366z
	 M166.281,267.536c-0.004,1.355-0.234,2.182,0.05,2.805c0.397,0.865,1.354,1.094,2.25,0.607c0.926-0.509,1.064-1.4,0.376-2.111
	C168.463,268.327,167.584,268.142,166.281,267.536z M203.614,254.949c-0.022,1.258-0.179,1.944-0.011,2.56
	c0.23,0.824,0.966,1.258,1.822,0.89c0.947-0.41,1.184-1.273,0.539-2.058C205.562,255.846,204.781,255.616,203.614,254.949z
	 M138.318,263.395c-0.359,0.239-0.574,1.311-0.324,1.601c0.458,0.526,1.303,0.753,2.456,1.35c0.049-1.142,0.286-1.809,0.057-2.274
	C140.084,263.217,139.143,262.854,138.318,263.395z M149.274,186.786c-0.249,0.09-0.487,0.921-0.333,1.094
	c0.314,0.34,0.988,0.687,1.352,0.583c0.322-0.103,0.428-0.806,0.746-1.497C150.25,186.862,149.687,186.642,149.274,186.786z
	 M150.571,220.985c0.03,0.1,0.412,0.233,0.472,0.186c0.167-0.153,0.26-0.389,0.385-0.594c-0.226-0.12-0.452-0.235-0.826-0.429
	C150.577,220.53,150.509,220.775,150.571,220.985z M234.562,238.448c-0.09,0.133-0.263,0.279-0.247,0.4
	c0.02,0.127,0.228,0.24,0.35,0.353c0.087-0.132,0.263-0.272,0.247-0.39C234.881,238.678,234.686,238.567,234.562,238.448z
	 M120.015,220.448c0,0.152-0.06,0.358,0.019,0.441c0.076,0.078,0.298,0.025,0.455,0.029c0.003-0.147,0.06-0.35-0.02-0.431
	C120.396,220.409,120.171,220.457,120.015,220.448z M193.917,250.434c0.108,0.12,0.252,0.217,0.382,0.32
	c0.071-0.143,0.142-0.277,0.207-0.414c-0.161-0.043-0.317-0.104-0.48-0.125C193.998,250.209,193.896,250.405,193.917,250.434z
	 M255.688,149.386c-1.341,0.509-1.783,1.589-2.219,2.751c-0.525,1.371,0.69,3.451,1.937,4.015c0.257,0.118,0.588,0.247,0.836,0.194
	c1.115-0.234,2.358-0.058,3.371-0.945c1.113-0.086,1.338-0.98,1.44-1.893c0.103-0.896,0.154-1.802-0.422-2.635
	C259.56,149.311,257.485,148.708,255.688,149.386z M281.836,196.077c-0.289-0.048-0.588-0.036-0.877-0.07
	c-1.15-0.121-1.941,0.35-2.516,1.244c-0.214,0.335-0.542,0.594-0.889,0.975c0.114,0.307,0.291,0.649,0.382,1.018
	c0.29,1.172,1.495,2.49,3.145,2.203c0.828-0.145,1.668-0.516,2.331-1c0.314-0.223,0.223-0.938,0.309-1.429
	c0.024-0.105,0.038-0.21,0.035-0.312c-0.006-1.017-0.764-1.689-1.311-2.453C282.351,196.124,282.047,196.102,281.836,196.077z
	 M254.791,214.78c-0.596,0.015-1.392-0.033-1.66,0.56c-0.289,0.634-0.431,1.386-0.406,2.088c0.025,0.724,0.797,1.304,1.576,1.405
	c0.612,0.075,1.229,0.127,1.888,0.194c0.219-0.511,0.4-0.95,0.593-1.386C257.382,216.299,256.335,214.748,254.791,214.78z
	 M257.594,158.561c-0.93,0.443-1.393,1.592-0.956,2.364c0.438,0.773,1.971,1.274,2.722,0.893c0.975-0.49,1.302-1.665,0.726-2.604
	C259.56,158.354,258.561,158.092,257.594,158.561z M273.688,172.476c0.044-0.491-0.53-0.961-1.072-0.992
	c-0.365-0.017-0.736-0.044-1.097-0.002c-0.236,0.033-0.593,0.134-0.647,0.291c-0.219,0.604-0.373,1.237-0.471,1.872
	c-0.022,0.174,0.225,0.453,0.417,0.578c0.604,0.367,1.245,0.373,1.896,0.119C273.412,173.9,273.621,173.2,273.688,172.476z
	 M282.51,147.892c-0.441,0.181-0.682,0.909-0.454,1.354c0.276,0.552,0.807,0.721,1.375,0.441c0.548-0.27,0.672-0.684,0.377-1.222
	C283.566,148.017,282.905,147.725,282.51,147.892z M235.612,235.239c-0.45,0.238-0.585,0.723-0.312,1.144
	c0.278,0.419,0.901,0.573,1.331,0.323c0.389-0.229,0.548-0.803,0.331-1.176C236.728,235.135,236.086,234.995,235.612,235.239z
	 M220.757,211.647c-0.425,0.191-0.604,0.746-0.335,1.146c0.205,0.309,0.486,0.557,0.909,0.399c0.39-0.147,0.75-0.917,0.588-1.206
	C221.729,211.655,221.128,211.477,220.757,211.647z M229.07,214.666c-0.033,0.2,0.092,0.562,0.243,0.621
	c0.26,0.11,0.69,0.16,0.886,0.022c0.352-0.236,0.582-0.637,0.898-1.004c-0.53-0.021-0.896-0.037-1.262-0.055
	C229.481,214.235,229.129,214.295,229.07,214.666z M246.611,182.235c0.327-0.211,0.463-0.514,0.268-0.883
	c-0.23-0.437-0.672-0.428-1.4,0.039C245.91,182.276,246.21,182.495,246.611,182.235z M259.236,163.872
	c-0.313,0.209-0.405,0.539-0.153,0.801c0.185,0.194,0.533,0.244,0.98,0.421c0.054-0.451,0.173-0.743,0.1-0.998
	C260.074,163.765,259.546,163.664,259.236,163.872z M253.58,198.17c-0.514-0.047-0.85-0.17-1.08-0.08
	c-0.359,0.158-0.446,0.535-0.254,0.879c0.187,0.338,0.571,0.394,0.831,0.184C253.294,198.972,253.356,198.627,253.58,198.17z
	 M289.456,158.508c-0.157,0.137-0.271,0.544-0.174,0.662c0.149,0.19,0.504,0.235,0.951,0.413c0.026-0.433,0.127-0.713,0.032-0.898
	C290.108,158.366,289.729,158.272,289.456,158.508z M258.885,211.747c-0.064,0.379-0.203,0.693-0.105,0.789
	c0.168,0.166,0.51,0.295,0.729,0.252c0.312-0.073,0.449-0.404,0.223-0.662C259.576,211.954,259.265,211.905,258.885,211.747z
	 M258.817,231.665c-0.098,0.357-0.154,0.597-0.217,0.823c0.255,0.057,0.579,0.216,0.733,0.128c0.161-0.096,0.223-0.445,0.195-0.667
	C259.516,231.855,259.15,231.79,258.817,231.665z M274.371,155.874c-0.035,0.315-0.136,0.546-0.06,0.709
	c0.052,0.111,0.46,0.213,0.522,0.155c0.127-0.136,0.214-0.39,0.179-0.565C274.994,156.07,274.685,156.012,274.371,155.874z
	 M207.979,214.024c-0.044,0.057,0.035,0.307,0.11,0.348c0.446,0.188,0.832,0.151,1.072-0.432
	C208.686,213.672,208.296,213.647,207.979,214.024z M208.832,217.163c0.041,0.113,0.338,0.135,0.649,0.243
	c0.011-0.319,0.111-0.588,0.008-0.722c-0.099-0.125-0.408-0.107-0.622-0.147C208.846,216.75,208.759,216.982,208.832,217.163z
	 M244.84,182.952c0.041-0.18,0.176-0.402,0.105-0.527c-0.073-0.131-0.344-0.162-0.611-0.277c-0.065,0.262-0.198,0.546-0.131,0.598
	C244.363,182.871,244.624,182.891,244.84,182.952z M247.961,216.75c-0.118,0.059-0.132,0.324-0.193,0.498
	c0.188,0.045,0.389,0.152,0.565,0.133c0.098-0.02,0.154-0.252,0.278-0.469C248.325,216.831,248.092,216.691,247.961,216.75z
	 M270.147,186.737c-0.03,0.1,0.124,0.355,0.229,0.381c0.379,0.088,0.498-0.146,0.515-0.582
	C270.542,186.435,270.255,186.385,270.147,186.737z M231.602,250.774c0.151,0.055,0.325,0.176,0.449,0.145
	c0.108-0.027,0.168-0.222,0.307-0.434c-0.263-0.052-0.455-0.15-0.566-0.102C231.686,250.434,231.661,250.638,231.602,250.774z
	 M230.025,237.354c-0.113-0.1-0.393-0.088-0.558-0.029c-0.073,0.025-0.119,0.357-0.046,0.424c0.13,0.124,0.353,0.141,0.658,0.24
	C230.063,237.694,230.123,237.436,230.025,237.354z M257.125,171.65c0.365,0.056,0.66,0.101,1.156,0.171
	C257.707,171.186,257.707,171.186,257.125,171.65z M238.484,230.346c0.024,0.048,0.047,0.096,0.068,0.148
	c0.359-0.137,0.72-0.27,1.08-0.411c-0.043-0.087-0.084-0.182-0.127-0.271C239.164,229.993,238.824,230.168,238.484,230.346z
	 M272.813,220.471c-0.251-0.018-0.428-0.072-0.563-0.016c-0.071,0.023-0.068,0.221-0.098,0.344c0.157,0.039,0.322,0.115,0.477,0.098
	C272.692,220.885,272.725,220.682,272.813,220.471z M229.565,235.276c0.151,0.184,0.313,0.38,0.477,0.578
	C229.85,235.1,229.782,235.04,229.565,235.276z M219.962,220.1c-0.464,0.084-0.702,0.131-1,0.186
	C219.466,220.786,219.466,220.786,219.962,220.1z M255.888,179.415c-0.084-0.072-0.249-0.057-0.382-0.074
	c-0.008,0.122-0.073,0.273-0.02,0.348c0.06,0.082,0.233,0.082,0.466,0.158C255.929,179.627,255.958,179.465,255.888,179.415z
	 M239.812,167.181c0.431,0.063,0.731,0.106,1.184,0.166C240.516,167.023,240.516,167.023,239.812,167.181z M241.076,252.694
	c-0.06,0.023-0.089,0.311-0.044,0.332c0.128,0.078,0.31,0.117,0.45,0.092c0.063-0.008,0.076-0.214,0.141-0.422
	C241.379,252.684,241.209,252.645,241.076,252.694z M251.298,168.903c0.026-0.15,0.084-0.295,0.055-0.314
	c-0.111-0.066-0.253-0.091-0.383-0.134c-0.032,0.108-0.064,0.218-0.097,0.321C251.003,168.819,251.127,168.851,251.298,168.903z
	 M226.256,222.338c-0.045,0.094-0.092,0.18-0.138,0.272c0.011,0.118-0.024,0.285,0.046,0.346c0.073,0.07,0.287,0.09,0.363,0.03
	c0.068-0.049,0.078-0.242,0.033-0.342C226.503,222.524,226.359,222.438,226.256,222.338z M245.883,257.875
	c0.086,0.034,0.194,0.109,0.262,0.088c0.068-0.019,0.101-0.142,0.171-0.257c-0.141-0.036-0.257-0.097-0.319-0.068
	C245.932,257.673,245.914,257.797,245.883,257.875z M278.668,184.153c-0.211,0.016-0.328-0.007-0.406,0.039
	c-0.073,0.041-0.095,0.156-0.146,0.232c0.095,0.041,0.195,0.119,0.271,0.1C278.46,184.506,278.498,184.385,278.668,184.153z
	 M245.945,187.657c-0.055,0.029-0.049,0.15-0.077,0.279c0.146-0.018,0.269,0,0.317-0.042c0.052-0.046,0.027-0.162,0.032-0.253
	C246.126,187.647,246.007,187.613,245.945,187.657z M276.448,179.854c0.21,0.031,0.419,0.059,0.63,0.096
	c0.014-0.049,0.02-0.096,0.035-0.146c-0.203-0.11-0.403-0.218-0.604-0.323C276.491,179.608,276.467,179.731,276.448,179.854z
	 M240.091,170.274c0.127,0.027,0.257,0.059,0.385,0.091c0.008-0.077,0.019-0.15,0.032-0.218c-0.139-0.004-0.273-0.004-0.409-0.011
	C240.096,170.184,240.093,170.227,240.091,170.274z M266.186,213.338c0.087,0.029,0.168,0.057,0.246,0.084
	c0.014-0.059,0.024-0.117,0.04-0.178c-0.062-0.021-0.138-0.071-0.188-0.054C266.236,213.206,266.221,213.286,266.186,213.338z
	 M272.671,229.046c0.021,0.043,0.113,0.044,0.175,0.067c0.017-0.059,0.033-0.119,0.049-0.171c-0.067-0.023-0.127-0.044-0.186-0.063
	C272.689,228.939,272.646,229.007,272.671,229.046z M279.443,189.559c0.002-0.022-0.027-0.051-0.044-0.078
	c-0.03,0.008-0.06,0.017-0.09,0.023c0.024,0.041,0.049,0.082,0.073,0.123C279.404,189.604,279.439,189.588,279.443,189.559z
	 M270.945,236.844c0.014,0.045,0.096,0.069,0.146,0.1c0.029-0.071,0.06-0.142,0.092-0.216c-0.06-0.009-0.125-0.021-0.184-0.038
	C270.979,236.745,270.93,236.809,270.945,236.844z M171.438,20.993c0.829-0.315,1.623-0.609,2.413-0.904
	c-0.767-0.605-1.522-1.213-2.288-1.818C171.123,19.063,170.631,19.859,171.438,20.993z M38.969,47.967
	c-0.921-0.724-2.416-0.742-3.147-0.041c-0.718,0.686-0.644,1.68,0.188,2.461c0.855,0.811,2.58,0.834,3.325,0.055
	C39.962,49.793,39.786,48.604,38.969,47.967z M112.468,104.399c-0.468-2.092-0.478-2.097-2.597-2.473
	C109.915,104.364,109.99,104.432,112.468,104.399z M68.954,30.432c-0.098-0.523-0.012-1.246-0.341-1.528
	c-0.339-0.286-1.084-0.14-1.649-0.184c0.065,0.537,0.125,1.069,0.217,1.824C67.955,30.493,68.456,30.461,68.954,30.432z
	 M67.481,94.615c0.292,0.821,0.332,1.396,0.657,1.673c0.233,0.199,1.137,0.141,1.227-0.039c0.182-0.381,0.215-1.073-0.041-1.352
	C69.075,94.637,68.394,94.733,67.481,94.615z M147.645,72.864c0.203-0.029,0.355-0.433,0.71-0.902
	c-0.626-0.209-0.951-0.434-1.206-0.377c-0.487,0.11-0.95,0.354-1.383,0.6c-0.06,0.033,0.07,0.563,0.144,0.578
	C146.483,72.845,147.078,72.924,147.645,72.864z M136.277,3.458c-0.506-0.01-1.046-0.114-1.503,0.016
	c-0.19,0.051-0.208,0.602-0.423,1.313c0.854-0.224,1.374-0.288,1.799-0.514C136.307,4.191,136.239,3.743,136.277,3.458z
	 M86.717,11.415c-0.173-0.758-0.698-0.896-1.422-0.641c-0.086,0.786,0.261,1.178,1.055,1.109
	C86.498,11.874,86.749,11.549,86.717,11.415z M58.854,92.687c-0.281,0.021-0.769-0.03-0.814,0.077
	c-0.144,0.367-0.125,0.797-0.189,1.367c0.507-0.02,1.045-0.011,1.051-0.051C58.927,93.62,58.885,93.149,58.854,92.687z
	 M52.432,66.927c0.083-0.061-0.021-0.534-0.071-0.539c-0.271-0.041-0.565-0.024-0.807,0.069c-0.067,0.023,0.003,0.373,0.016,0.748
	C51.944,67.098,52.236,67.068,52.432,66.927z M136.566,68.696c-0.135-0.268-0.191-0.563-0.33-0.61
	c-0.178-0.052-0.419,0.099-0.639,0.157c0.068,0.192,0.084,0.496,0.214,0.559C135.979,68.877,136.239,68.75,136.566,68.696z
	 M151.104,67.842c0.012,0.063,0.017,0.123,0.027,0.188c0.117,0,0.239-0.002,0.358-0.003c-0.012-0.063-0.015-0.184-0.031-0.186
	C151.341,67.829,151.222,67.84,151.104,67.842z M99.831,87.639c-0.065,0.203-0.101,0.328-0.136,0.453
	c0.192,0.053,0.385,0.12,0.58,0.14c0.031,0.005,0.143-0.313,0.104-0.339C100.226,87.784,100.025,87.723,99.831,87.639z
	 M87.878,64.62c0.06,0.045,0.114,0.091,0.174,0.141c0.055-0.031,0.149-0.055,0.174-0.104c0.021-0.051-0.027-0.134-0.044-0.208
	C88.082,64.508,87.981,64.564,87.878,64.62z M133.143,2.469c0.097,0.051,0.2,0.107,0.297,0.16c0.008-0.066,0.022-0.135,0.032-0.204
	c-0.065-0.032-0.124-0.101-0.181-0.091C133.236,2.341,133.193,2.417,133.143,2.469z M98.388,13.673
	c0.019-0.054-0.033-0.14-0.052-0.212c-0.095,0.064-0.195,0.126-0.293,0.185c0.058,0.043,0.117,0.093,0.177,0.142
	C98.274,13.754,98.368,13.728,98.388,13.673z M100.735,67.945c0.057,0.038,0.116,0.099,0.17,0.097
	c0.046,0.004,0.087-0.076,0.136-0.118c-0.035-0.063-0.063-0.118-0.092-0.178C100.876,67.811,100.806,67.881,100.735,67.945z
	 M6.6,141.379c-1.763-1.424-4.73-1.605-5.779-0.349c-0.746,0.899-0.193,4.069,0.867,4.946c1.316,1.09,3.967,0.77,5.239-0.645
	C8.287,143.835,8.186,142.665,6.6,141.379z M19.903,201.752c-0.745,0.316-1.332,1.306-1.611,2.111
	c-0.522,1.503,0.214,2.218,1.871,1.984c2.679-0.373,4.403-1.995,6.085-4.158C23.938,201.184,21.836,200.936,19.903,201.752z
	 M26.954,148.272c-0.542-0.574-1.343-0.529-1.929,0.08c-0.555,0.582-0.46,1.69,0.298,2.001c0.548,0.227,1.268,0.057,2.356,0.065
	C27.362,149.418,27.344,148.689,26.954,148.272z M54.89,112.936c-0.203,0.449-0.13,1.446,0.136,1.575
	c0.588,0.274,1.378,0.164,2.566,0.237c-0.303-0.969-0.333-1.586-0.666-1.986C56.391,112.128,55.204,112.216,54.89,112.936z
	 M13.77,100.829c0.536,0.26,1.257,0.164,2.438,0.277c-0.412-1.053-0.491-1.756-0.897-2.168c-0.565-0.561-1.366-0.477-1.895,0.146
	C12.859,99.734,13.027,100.465,13.77,100.829z M38.494,95.321c-0.509-0.285-1.219-0.229-2.279-0.376
	c0.309,0.9,0.336,1.481,0.652,1.785c0.582,0.544,1.41,0.575,1.87-0.077C38.941,96.366,38.773,95.479,38.494,95.321z M10.777,171.098
	c-0.098,0.024-0.141,0.682-0.017,0.762c0.28,0.168,0.678,0.152,1.249,0.248c-0.076-0.49-0.041-0.953-0.168-1.002
	C11.522,170.993,11.104,171,10.777,171.098z M27.246,184.889c-0.078,0.227-0.111,0.6,0.032,0.74c0.144,0.145,0.52,0.092,1.078,0.16
	c-0.235-0.486-0.295-0.787-0.485-0.944C27.758,184.748,27.278,184.801,27.246,184.889z M16.756,129.956
	c-0.203-0.035-0.495-0.071-0.601,0.032c-0.098,0.095,0,0.372,0.017,0.696c0.303-0.152,0.52-0.209,0.649-0.347
	C16.886,130.277,16.806,129.964,16.756,129.956z M65.287,124.79c0.047,0.115,0.065,0.286,0.152,0.33
	c0.078,0.041,0.229-0.061,0.357-0.098c-0.049-0.119-0.065-0.296-0.149-0.336C65.564,124.649,65.409,124.749,65.287,124.79z
	 M0.028,121.842c-0.011,0.127-0.022,0.256-0.028,0.375c0.131-0.005,0.271-0.002,0.401-0.032c0.027-0.004,0.04-0.185,0.017-0.198
	C0.296,121.924,0.157,121.889,0.028,121.842z M16.163,122.312c-0.528-0.479-1.435-0.575-2.686-1.034
	c-0.087,1.256-0.396,2.088-0.133,2.719c0.36,0.87,1.303,1.143,2.253,0.689C16.501,124.258,16.897,122.975,16.163,122.312z
	 M4.355,181.481c-0.004,1.355-0.236,2.184,0.048,2.805c0.398,0.868,1.356,1.096,2.25,0.607c0.93-0.508,1.067-1.399,0.374-2.109
	C6.535,182.272,5.66,182.088,4.355,181.481z M42.67,104.006c-0.241-0.305-0.712-0.445-1.319-0.787
	c-0.141,0.582-0.387,1.094-0.265,1.197c0.319,0.263,0.801,0.425,1.221,0.449C42.432,104.874,42.781,104.151,42.67,104.006z
	 M28.722,81.168c0.052,0.651-0.016,1.006,0.133,1.268c0.087,0.16,0.663,0.287,0.736,0.204c0.198-0.227,0.401-0.63,0.301-0.85
	C29.789,81.565,29.334,81.475,28.722,81.168z M16.789,148.766c0.213,0.123,0.536,0.285,0.701,0.203
	c0.163-0.064,0.173-0.414,0.3-0.788c-0.417,0.048-0.692,0.032-0.906,0.128C16.786,148.352,16.737,148.741,16.789,148.766z
	 M31.99,164.382c0.108,0.119,0.255,0.214,0.382,0.317c0.071-0.143,0.141-0.274,0.208-0.412c-0.162-0.046-0.316-0.105-0.481-0.125
	C32.071,164.158,31.972,164.35,31.99,164.382z M150.552,47.738c-0.818,0.307-1.083,0.966-1.352,1.673
	c-0.319,0.834,0.42,2.098,1.178,2.443c0.157,0.072,0.36,0.15,0.513,0.116c0.673-0.14,1.431-0.033,2.049-0.575
	c0.677-0.051,0.814-0.597,0.877-1.148c0.063-0.549,0.092-1.1-0.258-1.607C152.907,47.688,151.643,47.323,150.552,47.738z
	 M78.583,95.061c-0.636-0.461-1.365-0.467-2.123-0.097c-0.539,0.211-0.585,0.765-0.726,1.255c-0.128,0.448-0.409,1.029,0.073,1.359
	c0.573,0.391,1.275,0.715,1.96,0.822c0.634,0.1,1.422-0.643,1.52-1.256C79.409,96.366,79.311,95.59,78.583,95.061z M95.666,72.506
	c-0.929,0.446-1.389,1.592-0.952,2.365c0.435,0.773,1.968,1.274,2.721,0.893c0.972-0.49,1.296-1.668,0.723-2.605
	C97.635,72.299,96.633,72.036,95.666,72.506z M108.891,88.168c0.602,0.367,1.246,0.373,1.896,0.121
	c0.695-0.443,0.906-1.146,0.974-1.87c0.044-0.489-0.533-0.961-1.069-0.989c-0.365-0.018-0.738-0.045-1.096-0.004
	c-0.238,0.033-0.597,0.136-0.65,0.293c-0.219,0.604-0.371,1.237-0.472,1.87C108.455,87.762,108.695,88.045,108.891,88.168z
	 M64.059,109.393c-0.669,0.36-0.901,1.516-0.453,2.213c0.461,0.714,1.306,0.906,2.097,0.477c0.86-0.466,1.107-1.289,0.625-2.102
	C65.864,109.194,64.884,108.941,64.059,109.393z M48.624,99.31c0.528-0.305,0.642-0.935,0.287-1.552
	c-0.357-0.617-1.073-0.827-1.677-0.492c-0.608,0.338-0.79,1.017-0.425,1.606C47.159,99.442,48.025,99.645,48.624,99.31z
	 M120.583,61.838c-0.438,0.182-0.683,0.909-0.454,1.354c0.277,0.553,0.807,0.722,1.375,0.439c0.544-0.268,0.671-0.679,0.379-1.217
	C121.64,61.961,120.976,61.672,120.583,61.838z M35.74,108.548c-0.452,0.223-0.649,0.642-0.479,1.007
	c0.193,0.401,0.854,0.615,1.324,0.421c0.397-0.158,0.563-0.647,0.35-1.038C36.701,108.504,36.18,108.334,35.74,108.548z
	 M74.224,133.334c-0.409,0.273-0.523,0.721-0.271,1.098c0.251,0.376,0.799,0.513,1.155,0.296c0.374-0.231,0.523-0.851,0.287-1.21
	C75.152,133.159,74.632,133.079,74.224,133.334z M58.829,125.594c-0.424,0.191-0.601,0.745-0.335,1.146
	c0.206,0.307,0.484,0.555,0.909,0.399c0.39-0.149,0.75-0.919,0.588-1.205C59.802,125.603,59.197,125.423,58.829,125.594z
	 M67.143,128.612c-0.032,0.201,0.093,0.561,0.241,0.622c0.263,0.11,0.692,0.158,0.888,0.024c0.355-0.238,0.582-0.637,0.898-1.006
	c-0.53-0.021-0.893-0.041-1.261-0.057C67.555,128.18,67.202,128.243,67.143,128.612z M145.051,97.219
	c0.029-0.182,0.182-0.512,0.103-0.787c-0.108-0.395-0.782-0.46-1.224-0.173c-0.279,0.188-0.487,0.419-0.289,0.774
	C143.854,97.418,144.477,97.551,145.051,97.219z M83.552,95.337c0.431,0.884,0.733,1.104,1.132,0.843
	c0.324-0.209,0.463-0.514,0.269-0.881C84.725,94.864,84.28,94.87,83.552,95.337z M76.596,106.839
	c-1.246-0.187-1.715-0.041-2.175,0.666C75.145,107.78,75.652,107.622,76.596,106.839z M131.878,108.534
	c-0.157,0.164-0.244,0.492-0.183,0.715c0.093,0.348,0.602,0.477,1.076,0.218c0.01-0.177,0.115-0.478,0.034-0.726
	C132.7,108.42,132.1,108.286,131.878,108.534z M97.308,77.818c-0.312,0.208-0.401,0.54-0.152,0.801
	c0.185,0.194,0.533,0.241,0.98,0.423c0.054-0.451,0.176-0.744,0.103-1C98.144,77.711,97.618,77.608,97.308,77.818z M90.576,112.04
	c-0.363,0.156-0.45,0.529-0.256,0.875c0.185,0.34,0.572,0.396,0.83,0.184c0.216-0.176,0.281-0.525,0.501-0.982
	C91.139,112.068,90.803,111.946,90.576,112.04z M42.535,116.95c-0.361,0.117-0.429,0.438-0.282,0.768
	c0.129,0.303,0.628,0.479,0.814,0.27c0.18-0.204,0.226-0.518,0.404-0.944C43.038,116.991,42.751,116.886,42.535,116.95z
	 M128.341,72.631c-0.16-0.321-0.542-0.412-0.81-0.175c-0.16,0.136-0.273,0.544-0.174,0.659c0.146,0.193,0.499,0.237,0.948,0.414
	C128.333,73.096,128.436,72.817,128.341,72.631z M96.958,125.693c-0.06,0.38-0.2,0.694-0.105,0.79
	c0.17,0.165,0.509,0.294,0.728,0.25c0.312-0.072,0.45-0.405,0.226-0.662C97.648,125.899,97.337,125.853,96.958,125.693z
	 M76.657,122.304c-0.043-0.116-0.397-0.144-0.796-0.274c0.017,0.389-0.054,0.674,0.063,0.852c0.078,0.121,0.561,0.183,0.611,0.105
	C76.666,122.811,76.733,122.509,76.657,122.304z M112.387,70.528c0.049,0.111,0.458,0.211,0.518,0.158
	c0.132-0.14,0.216-0.391,0.184-0.569c-0.021-0.103-0.328-0.16-0.645-0.296C112.408,70.135,112.309,70.366,112.387,70.528z
	 M65.711,94.473c0.208-0.122,0.356-0.331,0.639-0.634c-0.391-0.116-0.691-0.271-0.742-0.214c-0.165,0.18-0.238,0.435-0.35,0.663
	C65.412,94.36,65.631,94.524,65.711,94.473z M46.055,127.973c-0.047,0.054,0.032,0.303,0.108,0.343
	c0.444,0.19,0.831,0.153,1.074-0.431C46.759,127.621,46.368,127.593,46.055,127.973z M82.406,96.094
	c-0.064,0.26-0.197,0.545-0.13,0.596c0.159,0.129,0.42,0.146,0.636,0.209c0.041-0.18,0.177-0.404,0.104-0.527
	C82.947,96.241,82.677,96.209,82.406,96.094z M86.037,130.698c-0.122,0.059-0.135,0.324-0.195,0.498
	c0.188,0.046,0.388,0.151,0.563,0.13c0.103-0.019,0.154-0.248,0.279-0.466C86.399,130.778,86.167,130.637,86.037,130.698z
	 M108.22,100.685c-0.03,0.101,0.124,0.354,0.229,0.378c0.379,0.09,0.496-0.146,0.515-0.578
	C108.614,100.381,108.324,100.333,108.22,100.685z M95.198,85.598c0.365,0.053,0.66,0.1,1.155,0.17
	C95.782,85.132,95.782,85.132,95.198,85.598z M126.632,118.936c0.122-0.027,0.192-0.221,0.363-0.443
	c-0.287-0.051-0.458-0.123-0.596-0.091c-0.089,0.024-0.2,0.271-0.162,0.313C126.328,118.83,126.521,118.961,126.632,118.936z
	 M147.157,104.016c-0.09,0.147-0.106,0.336-0.146,0.506c0.122,0.021,0.319,0.102,0.362,0.057c0.111-0.134,0.155-0.309,0.269-0.561
	C147.395,104.016,147.185,103.963,147.157,104.016z M76.558,144.293c0.024,0.049,0.046,0.097,0.067,0.148
	c0.36-0.139,0.721-0.27,1.08-0.412c-0.043-0.085-0.086-0.18-0.127-0.271C77.237,143.938,76.896,144.116,76.558,144.293z
	 M94.025,93.792c-0.024-0.219,0.005-0.379-0.063-0.432c-0.087-0.071-0.252-0.056-0.385-0.071c-0.01,0.12-0.072,0.272-0.016,0.346
	C93.622,93.715,93.792,93.717,94.025,93.792z M45.922,96.03c-0.201-0.042-0.353-0.115-0.437-0.074
	c-0.089,0.05-0.118,0.198-0.17,0.304c0.141,0.05,0.282,0.137,0.425,0.139C45.791,96.395,45.841,96.206,45.922,96.03z M88.943,82.721
	c0.132,0.043,0.257,0.077,0.43,0.131c0.024-0.152,0.081-0.295,0.052-0.318c-0.114-0.067-0.252-0.09-0.379-0.131
	C89.01,82.509,88.98,82.617,88.943,82.721z M64.332,136.284c-0.049,0.092-0.095,0.181-0.144,0.273
	c0.014,0.115-0.021,0.283,0.049,0.346c0.075,0.068,0.289,0.088,0.363,0.031c0.067-0.051,0.075-0.244,0.032-0.342
	C64.572,136.469,64.435,136.384,64.332,136.284z M50.4,96.456c0.005-0.027-0.157-0.084-0.276-0.141
	c-0.043,0.115-0.119,0.211-0.095,0.281c0.021,0.071,0.146,0.112,0.228,0.166C50.309,96.664,50.376,96.562,50.4,96.456z
	 M116.191,98.371c0.092,0.042,0.194,0.118,0.268,0.101s0.111-0.141,0.281-0.371c-0.211,0.015-0.33-0.01-0.406,0.037
	C116.262,98.18,116.237,98.293,116.191,98.371z M84.018,101.602c-0.055,0.031-0.047,0.152-0.077,0.284
	c0.146-0.024,0.269-0.002,0.32-0.046c0.049-0.047,0.024-0.162,0.03-0.25C84.201,101.592,84.082,101.559,84.018,101.602z
	 M114.518,93.8c0.214,0.03,0.425,0.058,0.637,0.097c0.011-0.049,0.019-0.096,0.03-0.146c-0.201-0.111-0.401-0.214-0.602-0.322
	C114.563,93.555,114.542,93.674,114.518,93.8z M136.412,103c0.03,0.01,0.096-0.102,0.152-0.154
	c-0.084-0.051-0.162-0.099-0.242-0.146c-0.062,0.063-0.104,0.104-0.148,0.146C136.247,102.901,136.318,102.978,136.412,103z
	 M141.262,98.941c0.063,0.026,0.154,0.087,0.185,0.071c0.068-0.056,0.11-0.143,0.165-0.221c-0.1-0.041-0.206-0.097-0.216-0.088
	C141.335,98.779,141.303,98.866,141.262,98.941z M66.802,119.24c0.005-0.058,0.01-0.121,0.017-0.175
	c-0.063-0.02-0.128-0.039-0.19-0.059c-0.005,0.061-0.043,0.143-0.014,0.176C66.647,119.223,66.736,119.221,66.802,119.24z
	 M139.824,90.368c0.06-0.051,0.081-0.138,0.144-0.26c-0.159-0.006-0.251-0.006-0.349-0.013c0.005,0.089-0.009,0.175,0.021,0.255
	C139.651,90.372,139.79,90.394,139.824,90.368z M72.561,88.188c0.038,0.068,0.119,0.113,0.187,0.174
	c0.047-0.07,0.093-0.139,0.287-0.412c-0.222,0.041-0.319,0.045-0.398,0.082C72.59,88.053,72.541,88.159,72.561,88.188z
	 M127.818,122.005c0.035,0.041,0.125,0.036,0.195,0.052c-0.004-0.082-0.004-0.174-0.004-0.263c-0.066,0.008-0.132,0.019-0.196,0.027
	C127.813,121.887,127.783,121.971,127.818,122.005z M55.818,118.729c0.063,0.013,0.141,0.06,0.18,0.039
	c0.04-0.029,0.043-0.113,0.064-0.163c-0.063-0.02-0.124-0.036-0.189-0.049C55.856,118.614,55.838,118.67,55.818,118.729z
	 M37.007,107.307c0.022,0.044,0.104,0.07,0.158,0.098c0.029-0.047,0.06-0.098,0.089-0.148c-0.052-0.027-0.105-0.058-0.162-0.092
	C37.064,107.217,37.003,107.276,37.007,107.307z M156.228,118.081c0.003,0.01,0.063,0.02,0.096,0.023
	c0.013-0.05,0.026-0.104,0.029-0.16c0.003,0-0.06-0.019-0.095-0.029C156.25,117.971,156.234,118.028,156.228,118.081z
	 M117.383,103.45c0.021,0.043,0.051,0.083,0.073,0.124c0.024-0.021,0.056-0.038,0.06-0.069c0.003-0.023-0.027-0.049-0.044-0.076
	C117.442,103.436,117.415,103.442,117.383,103.45z M64.564,117.953c0.065,0.017,0.146,0.065,0.187,0.046
	c0.038-0.018,0.041-0.107,0.06-0.164c-0.062-0.023-0.125-0.043-0.186-0.061C64.603,117.833,64.586,117.891,64.564,117.953z
	 M64.12,99.438c-1.067-0.746-1.955-0.285-2.874-0.105c-1.25,0.248-2.528,0.403-3.787,0.605c-1.183,0.193-2.358,0.411-3.539,0.594
	c-1.271,0.201-2.513,0.633-3.773,0.929c0.008-0.123-0.007-0.25-0.071-0.375c-0.184-0.368-0.536-0.493-0.898-0.322
	c-0.37,0.185-0.523,0.594-0.342,0.938c-1.07,0.133-2.165,0.083-3.314-0.367c-0.826,0.938-1.649,1.879-2.473,2.813
	c0.238,0.063,0.477,0.17,0.712,0.172c2.155,0.005,3.699,0.769,4.636,2.792c0.596,1.293,1.031,1.273,3.071,0.762
	c1.288-0.039,2.553-0.146,3.49-1.118c-0.081-0.291-0.138-0.514-0.206-0.73c-0.717-2.324-0.325-3.214,1.863-4.281
	c1.315-0.643,2.647-1.023,4.194-0.855C62.127,101.038,63.33,100.722,64.12,99.438z M69.529,75.581
	c-0.306-0.207-0.76-0.214-1.147-0.313c-0.309,0.354-0.617,0.7-0.926,1.055c0.246,0.313,0.444,0.653,0.736,0.919
	c0.525,0.471,1.181,0.697,1.692,0.115C70.448,76.727,70.21,76.045,69.529,75.581z M68.751,122.722
	c-0.661-0.384-1.347-0.573-2.147,0.471c0.167,0.421,0.262,1.191,0.712,1.646c0.544,0.553,1.354,0.41,1.896-0.168
	C69.741,124.104,69.524,123.173,68.751,122.722z M46.619,107.241c-1.462,0.188-2.189,0.98-2.393,2.527
	C46.866,110.153,47.47,109.471,46.619,107.241z M237.631,11.713c-0.471-2.094-0.479-2.101-2.6-2.473
	C235.077,11.677,235.153,11.742,237.631,11.713z M192.643,1.93c0.295,0.822,0.335,1.394,0.66,1.67
	c0.228,0.201,1.134,0.14,1.221-0.035c0.185-0.385,0.219-1.078-0.038-1.354C194.236,1.948,193.555,2.045,192.643,1.93z M184.015,0
	c-0.282,0.022-0.77-0.033-0.813,0.076c-0.146,0.367-0.127,0.797-0.192,1.368c0.507-0.019,1.049-0.011,1.051-0.052
	C184.091,0.934,184.044,0.463,184.015,0z M38.609,110.984c0.02,0.162,0.039,0.321,0.063,0.492c0.13-0.03,0.311-0.02,0.376-0.098
	c0.06-0.063-0.019-0.234-0.035-0.355C38.881,111.008,38.742,110.993,38.609,110.984z M122.708,118.68
	c0.019,0.13,0.067,0.256,0.105,0.379c0.122-0.059,0.238-0.121,0.354-0.178c-0.089-0.101-0.173-0.207-0.279-0.283
	C122.867,118.575,122.702,118.659,122.708,118.68z M131.76,48.692c-1.763-1.424-4.73-1.605-5.778-0.348
	c-0.747,0.9-0.194,4.068,0.866,4.947c1.316,1.09,3.965,0.767,5.243-0.646C133.446,51.148,133.35,49.979,131.76,48.692z
	 M150.257,98.454c-2.315-0.506-4.417-0.756-6.347,0.061c-0.745,0.316-1.336,1.306-1.611,2.113c-0.523,1.502,0.214,2.217,1.871,1.986
	C146.845,102.239,148.569,100.617,150.257,98.454z M175.325,87.222c0.837-0.849,0.634-2.737-0.385-3.558
	c-1.091-0.881-2.968-0.821-3.747,0.119c-0.771,0.935-0.515,2.411,0.584,3.322C172.875,88.01,174.488,88.063,175.325,87.222z
	 M92.089,58.994c-0.306-0.811-1.007-1.337-1.918-1.529c-0.545-0.261-1.247-0.477-2.126-0.851c-0.027,0.385-0.07,0.704-0.11,0.998
	c-1.206,0.401-1.69,1.336-1.129,2.517c0.304,0.638,0.907,1.157,1.481,1.859c0.985-0.978,1.47-2.136,3.063-1.717
	C92.115,60.468,92.357,59.697,92.089,58.994z M150.187,55.665c-0.553,0.582-0.461,1.69,0.3,2.002
	c0.545,0.225,1.266,0.057,2.354,0.065c-0.313-0.999-0.336-1.729-0.726-2.147C151.572,55.01,150.774,55.057,150.187,55.665z
	 M180.188,21.823c0.588,0.275,1.379,0.163,2.564,0.238c-0.307-0.967-0.333-1.585-0.664-1.982c-0.538-0.637-1.725-0.549-2.041,0.172
	C179.848,20.698,179.924,21.694,180.188,21.823z M138.933,8.141c0.534,0.26,1.257,0.166,2.435,0.28
	c-0.411-1.054-0.49-1.759-0.896-2.17c-0.568-0.563-1.364-0.478-1.893,0.146C138.023,7.047,138.188,7.778,138.933,8.141z
	 M114.39,26.266c-0.599,0.58-0.512,1.314,0.22,1.748c0.46,0.273,1.12,0.239,2.212,0.436c-0.366-0.982-0.461-1.561-0.777-1.995
	C115.622,25.877,114.923,25.747,114.39,26.266z M163.898,3.969c0.203-0.289,0.038-1.177-0.241-1.336
	c-0.509-0.285-1.221-0.229-2.282-0.376c0.312,0.902,0.336,1.482,0.655,1.784C162.612,4.588,163.441,4.617,163.898,3.969z
	 M179.853,90.631c1.286-0.867,1.736-1.576,1.049-2.836C179.693,88.332,179.398,89.083,179.853,90.631z M177.717,65.52
	c-0.218,0.162-0.082,0.738-0.111,1.366c0.634-0.138,1.127-0.121,1.395-0.348c0.165-0.134,0.092-0.853-0.081-0.941
	C178.58,65.42,177.957,65.333,177.717,65.52z M137.002,78.419c-0.319-0.114-0.736-0.106-1.063-0.009
	c-0.098,0.027-0.144,0.684-0.015,0.764c0.277,0.168,0.678,0.15,1.246,0.247C137.097,78.931,137.129,78.467,137.002,78.419z
	 M152.439,92.944c0.144,0.143,0.52,0.088,1.081,0.156c-0.239-0.484-0.298-0.785-0.49-0.941c-0.111-0.1-0.591-0.044-0.621,0.043
	C152.331,92.428,152.296,92.799,152.439,92.944z M141.315,37.303c-0.097,0.092,0,0.369,0.02,0.693
	c0.301-0.152,0.518-0.209,0.646-0.347c0.065-0.061-0.016-0.372-0.063-0.381C141.719,37.231,141.424,37.196,141.315,37.303z
	 M98.4,49.389c-0.057-0.09-0.246-0.121-0.374-0.177c-0.029,0.122-0.118,0.286-0.064,0.372c0.057,0.094,0.243,0.127,0.37,0.189
	C98.359,49.639,98.451,49.483,98.4,49.389z M190.451,32.102c0.046,0.115,0.062,0.285,0.148,0.33
	c0.079,0.042,0.233-0.057,0.357-0.098c-0.049-0.117-0.062-0.295-0.146-0.336C190.728,31.96,190.572,32.065,190.451,32.102z
	 M125.578,29.299c-0.121-0.064-0.257-0.1-0.387-0.143c-0.014,0.126-0.022,0.254-0.032,0.373c0.135-0.006,0.273,0,0.403-0.03
	C125.586,29.493,125.604,29.313,125.578,29.299z M183.689,74.739c0.136,0.016,0.317,0.089,0.401,0.031
	c0.09-0.061,0.09-0.24,0.127-0.373c-0.185-0.016-0.366-0.031-0.55-0.053C183.673,74.475,183.681,74.606,183.689,74.739z
	 M163.471,36.383c-2.242,1.141-2.658,2.496-1.416,4.584c1.389,2.319,4.725,3.729,6.499,2.744c1.269-0.711,2.065-4.504,1.242-5.924
	C168.778,36.02,165.58,35.317,163.471,36.383z M215.763,52.729c-0.06-0.844-0.522-1.679-0.863-2.695
	c-0.728,0.321-1.349,0.721-1.967,0.958c0.023-0.084,0.06-0.165,0.079-0.249c0.225-0.943-0.273-1.717-1.245-2.02
	c0.046,0.314,0.084,0.602,0.127,0.885c-0.065,0.005-0.132,0.012-0.194,0.016c-0.065-0.084-0.146-0.158-0.185-0.25
	c-0.583-1.545-0.674-1.598-2.323-1.521c-0.474,0.021-0.808,0.177-1.105,0.528c-0.59,0.699-1.15,1.401-1.332,2.311
	c0.242,0.393,0.461,0.794,0.721,1.172c0.632,0.906,1.354,1.383,2.159,1.508c0.617,0.916,1.809,1.555,3.362,1.714
	C214.759,55.27,215.883,54.391,215.763,52.729z M202.335,42.756c-0.333-0.609-0.999-1.045-1.713-1.223
	c0.071-0.242,0.063-0.51-0.065-0.703c-0.241-0.357-0.764-0.438-1.17-0.181c-0.366,0.241-0.479,0.62-0.326,0.968
	c-0.009,0.004-0.02,0.005-0.028,0.009c-1.121,0.499-1.844,2.3-1.347,3.347c0.545,1.158,2.584,1.682,3.881,0.988
	C202.593,45.424,202.961,43.889,202.335,42.756z M141.323,29.625c-0.527-0.478-1.432-0.575-2.683-1.034
	c-0.09,1.256-0.396,2.085-0.133,2.719c0.36,0.871,1.302,1.143,2.25,0.688C141.662,31.569,142.057,30.29,141.323,29.625z
	 M166.848,76.208c-0.022,1.258-0.177,1.944-0.008,2.561c0.227,0.824,0.967,1.258,1.821,0.889c0.948-0.408,1.184-1.277,0.539-2.059
	C168.797,77.104,168.017,76.874,166.848,76.208z M101.553,84.653c-0.361,0.24-0.574,1.313-0.323,1.602
	c0.455,0.527,1.303,0.754,2.454,1.35c0.048-1.141,0.284-1.807,0.06-2.271C103.317,84.476,102.375,84.113,101.553,84.653z
	 M113.529,9.723c0.321-0.104,0.425-0.808,0.744-1.498c-0.788-0.104-1.352-0.324-1.763-0.18c-0.249,0.09-0.488,0.922-0.336,1.094
	C112.492,9.479,113.166,9.825,113.529,9.723z M167.47,12.178c0.122,0.006,0.472-0.716,0.363-0.861
	c-0.244-0.301-0.712-0.443-1.318-0.786c-0.144,0.583-0.39,1.096-0.266,1.199C166.565,11.992,167.048,12.153,167.47,12.178z
	 M142.654,56.282c0.159-0.064,0.17-0.414,0.297-0.787c-0.417,0.049-0.695,0.033-0.907,0.126c-0.095,0.044-0.144,0.434-0.095,0.458
	C142.163,56.202,142.485,56.364,142.654,56.282z M114.276,42.43c0.171-0.154,0.26-0.388,0.385-0.592
	c-0.226-0.121-0.452-0.238-0.824-0.432c-0.026,0.384-0.095,0.627-0.032,0.839C113.837,42.344,114.219,42.475,114.276,42.43z
	 M197.794,59.708c-0.089,0.132-0.262,0.279-0.243,0.401c0.019,0.126,0.228,0.237,0.35,0.353c0.083-0.133,0.26-0.273,0.243-0.391
	C198.114,59.938,197.919,59.827,197.794,59.708z M83.705,41.747c-0.075-0.077-0.298-0.029-0.455-0.041
	c0,0.154-0.063,0.357,0.017,0.443c0.078,0.077,0.3,0.025,0.458,0.028C83.725,42.03,83.784,41.825,83.705,41.747z M157.153,71.694
	c0.105,0.121,0.252,0.215,0.379,0.32c0.071-0.145,0.142-0.279,0.208-0.414c-0.159-0.048-0.318-0.104-0.481-0.125
	C157.231,71.471,157.132,71.667,157.153,71.694z M191.577,74.108c-0.455-0.336-0.807-0.69-1.064-1.182
	c-0.37-0.717-1.036-0.983-1.846-0.902c-0.29,0.031-0.577,0.082-0.864,0.135c-0.91,0.184-1.359,0.732-1.316,1.622
	c0.02,0.313,0.087,0.624,0.146,0.932c0.146,0.8,0.174,0.81,1.191,0.609c0.185,0.417,0.333,0.772,0.498,1.123
	c0.504,1.073,1.73,1.498,2.984,1.025c0.929-0.349,1.395-1.454,0.975-2.438C192.129,74.688,191.884,74.331,191.577,74.108z
	 M249.604,49.477c0.675,0.516,2.063,0.557,2.595-0.167c0.441-0.598,0.937-0.736,1.627-0.772c0.07-0.654,0.322-1.285-0.107-1.852
	c-0.548-0.718-1.2-1.376-2.243-1.352c-1.15,0.021-2.036,0.499-2.558,1.471C248.5,47.57,248.868,48.919,249.604,49.477z
	 M218.024,36.04c-0.594,0.012-1.39-0.031-1.66,0.557c-0.287,0.635-0.431,1.391-0.406,2.092c0.024,0.723,0.799,1.304,1.579,1.402
	c0.609,0.076,1.227,0.129,1.887,0.195c0.217-0.512,0.401-0.95,0.594-1.384C220.615,37.557,219.567,36.008,218.024,36.04z
	 M204.447,4.458c0.122-0.778,0.024-1.553-0.701-2.084c-0.64-0.459-1.367-0.466-2.125-0.097c-0.537,0.214-0.586,0.768-0.724,1.256
	c-0.13,0.448-0.408,1.026,0.07,1.357c0.574,0.392,1.28,0.716,1.964,0.823C203.562,5.815,204.35,5.073,204.447,4.458z
	 M190.865,19.397c0.858-0.468,1.104-1.291,0.623-2.104c-0.463-0.785-1.443-1.04-2.27-0.588c-0.669,0.363-0.898,1.518-0.452,2.214
	C189.227,19.632,190.071,19.825,190.865,19.397z M173.784,6.623c0.528-0.306,0.645-0.935,0.288-1.552
	c-0.357-0.614-1.073-0.827-1.68-0.492c-0.604,0.338-0.785,1.017-0.422,1.607C172.319,6.754,173.187,6.959,173.784,6.623z
	 M260.444,57.614c0.431-0.233,0.62-0.884,0.376-1.273c-0.269-0.428-1.054-0.633-1.471-0.38c-0.414,0.255-0.587,1.031-0.311,1.399
	C259.314,57.724,260.003,57.847,260.444,57.614z M198.846,56.5c-0.448,0.234-0.583,0.721-0.313,1.141
	c0.279,0.418,0.902,0.573,1.333,0.324c0.387-0.229,0.55-0.803,0.332-1.177C199.958,56.393,199.318,56.254,198.846,56.5z
	 M161.746,17.29c0.4-0.159,0.563-0.648,0.349-1.039c-0.232-0.433-0.755-0.604-1.191-0.389c-0.454,0.223-0.652,0.641-0.481,1.006
	C160.614,17.27,161.277,17.483,161.746,17.29z M241.234,51.303c0.305-0.189,0.453-0.44,0.271-0.782
	c-0.227-0.421-0.967-0.546-1.619-0.162c-0.021,0.147-0.173,0.448-0.081,0.675C239.984,51.485,240.772,51.601,241.234,51.303z
	 M183.99,32.906c-0.428,0.192-0.604,0.749-0.335,1.146c0.208,0.31,0.487,0.558,0.912,0.397c0.39-0.146,0.747-0.916,0.585-1.203
	C184.962,32.915,184.361,32.737,183.99,32.906z M193.072,35.51c-0.357-0.016-0.707,0.045-0.77,0.414
	c-0.031,0.201,0.09,0.563,0.244,0.622c0.263,0.108,0.69,0.159,0.885,0.025c0.353-0.239,0.585-0.638,0.902-1.008
	C193.8,35.543,193.438,35.527,193.072,35.51z M174.002,9.035c0.202,0.364,0.52,0.47,0.874,0.343c0.414-0.194,0.552-0.603,0.359-0.98
	c-0.181-0.367-0.535-0.492-0.898-0.321C173.96,8.267,173.807,8.686,174.002,9.035z M209.847,3.494
	c0.325-0.21,0.46-0.513,0.266-0.885c-0.228-0.433-0.672-0.426-1.403,0.041C209.146,3.536,209.443,3.754,209.847,3.494z
	 M201.753,14.155c-1.242-0.188-1.708-0.045-2.171,0.667C200.308,15.092,200.816,14.935,201.753,14.155z M216.813,19.429
	c-0.512-0.048-0.848-0.171-1.077-0.077c-0.363,0.156-0.447,0.531-0.255,0.877c0.185,0.338,0.571,0.395,0.829,0.183
	C216.526,20.231,216.589,19.889,216.813,19.429z M258.254,47.257c0.33-0.184,0.438-0.517,0.167-0.79
	c-0.181-0.193-0.52-0.246-1.01-0.451c-0.014,0.483-0.108,0.8-0.005,1.029C257.558,47.379,257.929,47.436,258.254,47.257z
	 M167.414,25.03c0.132,0.303,0.627,0.482,0.814,0.271c0.181-0.206,0.228-0.517,0.403-0.944c-0.431-0.052-0.718-0.161-0.937-0.097
	C167.338,24.38,167.268,24.704,167.414,25.03z M250.818,51.694c-0.141-0.346-0.793-0.422-1.133-0.126
	c-0.107,0.104-0.164,0.388-0.102,0.519c0.148,0.289,0.755,0.332,1.172,0.07C250.774,52.049,250.883,51.843,250.818,51.694z
	 M222.118,33.006c-0.063,0.379-0.2,0.69-0.105,0.791c0.174,0.162,0.512,0.292,0.729,0.249c0.314-0.072,0.452-0.402,0.225-0.661
	C222.812,33.211,222.497,33.166,222.118,33.006z M222.051,52.926c-0.095,0.357-0.151,0.594-0.217,0.822
	c0.252,0.055,0.579,0.215,0.733,0.127c0.163-0.097,0.225-0.446,0.192-0.668C222.752,53.114,222.387,53.049,222.051,52.926z
	 M201.084,30.196c0.079,0.119,0.559,0.182,0.615,0.104c0.13-0.179,0.195-0.479,0.122-0.683c-0.044-0.117-0.401-0.145-0.799-0.275
	C201.039,29.735,200.968,30.02,201.084,30.196z M190.871,1.786c0.211-0.123,0.357-0.334,0.641-0.633
	c-0.39-0.117-0.692-0.27-0.741-0.215c-0.165,0.178-0.241,0.438-0.353,0.663C190.572,1.67,190.792,1.836,190.871,1.786z
	 M172.398,35.199c-0.479-0.267-0.867-0.291-1.184,0.087c-0.044,0.056,0.033,0.307,0.111,0.345
	C171.772,35.821,172.154,35.784,172.398,35.199z M172.715,38.665c0.017-0.32,0.111-0.588,0.008-0.722
	c-0.1-0.124-0.408-0.108-0.622-0.146c-0.022,0.214-0.108,0.444-0.032,0.626C172.108,38.535,172.404,38.558,172.715,38.665z
	 M208.072,4.212c0.044-0.181,0.18-0.403,0.109-0.53c-0.073-0.128-0.344-0.16-0.612-0.275c-0.067,0.258-0.2,0.543-0.13,0.597
	C207.597,4.128,207.856,4.15,208.072,4.212z M211.845,38.173c-0.284-0.083-0.52-0.224-0.647-0.163
	c-0.121,0.059-0.135,0.326-0.194,0.5c0.187,0.044,0.39,0.152,0.563,0.13C211.666,38.622,211.723,38.389,211.845,38.173z
	 M233.383,7.998c-0.033,0.1,0.122,0.354,0.23,0.38c0.376,0.088,0.494-0.146,0.511-0.581C233.778,7.696,233.485,7.645,233.383,7.998z
	 M194.835,72.034c0.151,0.055,0.325,0.176,0.452,0.141c0.105-0.027,0.165-0.219,0.306-0.43c-0.265-0.052-0.458-0.15-0.568-0.102
	C194.922,71.696,194.895,71.895,194.835,72.034z M193.259,58.612c-0.111-0.101-0.393-0.087-0.558-0.031
	c-0.073,0.028-0.116,0.361-0.043,0.43c0.124,0.123,0.352,0.136,0.658,0.236C193.297,58.954,193.359,58.696,193.259,58.612z
	 M251.793,26.25c0.122-0.029,0.195-0.223,0.362-0.443c-0.287-0.052-0.457-0.125-0.595-0.093c-0.09,0.024-0.2,0.274-0.163,0.315
	C251.489,26.144,251.684,26.276,251.793,26.25z M201.719,51.607c0.024,0.048,0.048,0.097,0.066,0.146
	c0.36-0.135,0.721-0.267,1.084-0.412c-0.046-0.083-0.087-0.18-0.131-0.27C202.4,51.25,202.056,51.428,201.719,51.607z
	 M235.486,41.714c-0.073,0.026-0.07,0.223-0.1,0.346c0.159,0.038,0.325,0.112,0.477,0.099c0.064-0.017,0.097-0.217,0.184-0.429
	C235.796,41.712,235.619,41.659,235.486,41.714z M192.799,56.536c0.154,0.184,0.313,0.381,0.477,0.578
	C193.086,56.362,193.018,56.296,192.799,56.536z M183.191,41.36c-0.46,0.083-0.696,0.128-0.994,0.185
	C182.701,42.042,182.701,42.042,183.191,41.36z M171.085,3.342c-0.203-0.041-0.354-0.115-0.439-0.072
	c-0.089,0.049-0.115,0.198-0.17,0.303c0.138,0.049,0.284,0.135,0.428,0.138C170.949,3.708,171.004,3.518,171.085,3.342z
	 M265.016,57.543c-0.076-0.092-0.193-0.146-0.336-0.238c-0.076,0.148-0.115,0.233-0.152,0.319c0.119,0.046,0.235,0.116,0.354,0.132
	C264.926,57.762,265.036,57.568,265.016,57.543z M204.264,74.284c0.129,0.08,0.312,0.116,0.454,0.096
	c0.06-0.008,0.076-0.218,0.139-0.425c-0.241-0.011-0.414-0.051-0.545,0C204.253,73.975,204.223,74.262,204.264,74.284z
	 M189.492,43.597c-0.046,0.091-0.092,0.182-0.144,0.272c0.015,0.119-0.021,0.285,0.052,0.346c0.073,0.07,0.284,0.09,0.363,0.029
	c0.067-0.049,0.075-0.239,0.029-0.338C189.736,43.781,189.596,43.697,189.492,43.597z M209.232,78.897
	c-0.068,0.035-0.081,0.158-0.117,0.236c0.087,0.035,0.195,0.111,0.266,0.09c0.064-0.02,0.101-0.143,0.168-0.26
	C209.408,78.932,209.291,78.868,209.232,78.897z M175.563,3.768c0.003-0.027-0.159-0.084-0.278-0.141
	c-0.041,0.115-0.117,0.21-0.096,0.281c0.024,0.073,0.146,0.111,0.226,0.164C175.469,3.976,175.539,3.877,175.563,3.768z
	 M241.352,5.682c0.092,0.043,0.195,0.122,0.269,0.104c0.073-0.02,0.11-0.141,0.281-0.374c-0.208,0.013-0.327-0.007-0.406,0.039
	C241.422,5.493,241.4,5.606,241.352,5.682z M209.178,8.914c-0.054,0.032-0.046,0.152-0.073,0.284c0.145-0.021,0.266,0,0.317-0.047
	c0.048-0.046,0.023-0.158,0.029-0.248C209.362,8.905,209.24,8.873,209.178,8.914z M261.031,43.221
	c0.035,0.059,0.163,0.078,0.25,0.113c0.029-0.106,0.098-0.217,0.075-0.317c-0.011-0.06-0.144-0.11-0.266-0.19
	C261.045,43.055,260.991,43.164,261.031,43.221z M191.962,26.552c0.003-0.058,0.014-0.123,0.017-0.175
	c-0.063-0.02-0.125-0.041-0.19-0.059c-0.005,0.063-0.04,0.145-0.011,0.177C191.808,26.536,191.896,26.535,191.962,26.552z
	 M257.014,56.385c-0.082-0.087-0.163-0.168-0.252-0.249c-0.003-0.004-0.046,0.024-0.073,0.04c0.068,0.098,0.138,0.197,0.208,0.295
	C256.936,56.44,256.973,56.413,257.014,56.385z M252.291,65.984c0,0.061-0.019,0.143,0.017,0.171
	c0.024,0.032,0.113,0.013,0.174,0.017c0-0.058,0.016-0.14-0.015-0.175C252.438,65.973,252.351,65.984,252.291,65.984z
	 M229.705,34.504c-0.062-0.022-0.135-0.074-0.187-0.055c-0.046,0.014-0.065,0.095-0.098,0.146c0.084,0.031,0.163,0.061,0.244,0.087
	C229.682,34.623,229.689,34.563,229.705,34.504z M253.171,29.37c0-0.08,0-0.173,0-0.262c-0.065,0.006-0.13,0.018-0.197,0.025
	c0,0.066-0.03,0.15,0.005,0.182C253.014,29.359,253.101,29.354,253.171,29.37z M236.128,50.204
	c-0.067-0.025-0.127-0.045-0.187-0.064c-0.017,0.059-0.06,0.129-0.041,0.168c0.024,0.043,0.117,0.043,0.179,0.066
	C236.096,50.314,236.115,50.255,236.128,50.204z M180.979,26.043c0.062,0.012,0.14,0.057,0.179,0.036
	c0.043-0.024,0.043-0.112,0.064-0.163c-0.064-0.017-0.121-0.034-0.187-0.049C181.02,25.928,180.998,25.983,180.979,26.043z
	 M162.328,14.718c0.026-0.049,0.057-0.099,0.084-0.148c-0.05-0.026-0.104-0.061-0.157-0.093c-0.027,0.052-0.089,0.111-0.084,0.143
	C162.19,14.667,162.271,14.688,162.328,14.718z M256.483,38.042c-0.004-0.067-0.004-0.128-0.004-0.187
	c-0.06,0.012-0.118,0.018-0.176,0.04c-0.014,0.001-0.016,0.083,0,0.09C256.355,38.014,256.424,38.026,256.483,38.042z
	 M238.641,51.983c0.039,0.008,0.093-0.056,0.168-0.11c-0.095-0.06-0.178-0.109-0.262-0.163c-0.024,0.053-0.082,0.118-0.063,0.148
	C238.509,51.914,238.579,51.965,238.641,51.983z M189.975,25.147c-0.065-0.023-0.125-0.042-0.189-0.061
	c-0.02,0.059-0.035,0.116-0.058,0.176c0.065,0.019,0.144,0.068,0.185,0.047C189.95,25.293,189.952,25.204,189.975,25.147z
	 M234.414,57.989c-0.057-0.01-0.116-0.023-0.179-0.039c-0.021,0.053-0.07,0.117-0.056,0.156c0.016,0.039,0.094,0.066,0.145,0.097
	C234.355,58.133,234.385,58.063,234.414,57.989z" class="color c1"/>
</svg>