<svg version="1.1" id="图层_1" x="0px" y="0px" width="220.375px" height="185.74px" viewBox="0 0 220.375 185.74" enable-background="new 0 0 220.375 185.74" xml:space="preserve" xmlns="http://www.w3.org/2000/svg" xmlns:xlink="http://www.w3.org/1999/xlink" xmlns:xml="http://www.w3.org/XML/1998/namespace">
  <path fill="#732E40" d="M219.91,55.879c-3.396-9.645-26.502-10.109-34.17-3.078v-21.74C185.74,13.936,171.805,0,154.678,0H31.063
	C13.934,0,0,13.936,0,31.061v123.62c0,17.125,13.934,31.061,31.063,31.061h123.615c17.127,0,31.063-13.936,31.063-31.061V92.285
	c5.489,6.295,25.301,13.313,31.538,5.312c5.07-6.503-1.563-18.146-6.791-24.222C216.438,68.703,222.051,61.961,219.91,55.879z
	 M212.736,58.404c0.856,2.43-7.627,11.051-13.967,13.285c-0.254,0.09-0.513,0.121-0.771,0.182
	c-0.379-5.377-3.639-9.961-8.246-12.223C194.346,53.236,211.844,55.869,212.736,58.404z M211.284,92.922
	c-1.931,2.476-17.817-1.434-20.825-7.119c2.514-1.416,4.59-3.516,5.924-6.078c3.024-0.047,5.195-0.803,7.69-2.123
	C206.996,80.756,213.259,90.385,211.284,92.922z" class="color c1"/>
  <path fill="#FFFFFF" d="M197.998,71.871c0.259-0.061,0.518-0.092,0.771-0.182c6.34-2.234,14.823-10.855,13.967-13.285
	c-0.893-2.535-18.391-5.168-22.984,1.244C194.359,61.91,197.619,66.494,197.998,71.871z" class="color c2"/>
  <path fill="#FFFFFF" d="M196.383,79.725c-1.334,2.562-3.41,4.662-5.924,6.078c3.008,5.685,18.895,9.595,20.825,7.119
	c1.975-2.537-4.288-12.166-7.211-15.32C201.578,78.922,199.407,79.678,196.383,79.725z" class="color c2"/>
  <path fill="#FFFFFF" d="M13.132,70.561c0-14.006,11.255-25.26,25.262-25.26c8.134,0,15.324,3.76,19.95,9.688
	c0.857,1.115,2.18,1.777,3.588,1.795h60.484c1.408-0.018,2.73-0.68,3.588-1.795c4.627-5.928,11.816-9.688,19.951-9.688
	c14.006,0,25.262,11.254,25.262,25.26s-11.256,25.262-25.262,25.262c-8.135,0-15.324-3.834-19.951-9.76
	c-0.871-1.09-2.191-1.723-3.588-1.723H61.932c-1.396,0-2.716,0.633-3.588,1.723c-4.626,5.926-11.816,9.76-19.95,9.76
	C24.387,95.822,13.132,84.566,13.132,70.561z M173.066,40.789v8.58c-6.314-8.057-16.123-13.256-27.111-13.256
	c-10.141,0-19.168,4.473-25.477,11.482H63.869c-6.307-7.01-15.336-11.482-25.476-11.482c-10.21,0-19.403,4.488-25.722,11.588v-6.912
	v-9.73c0-10.137,8.25-18.387,18.391-18.387h123.615c10.14,0,18.39,8.246,18.39,18.387V40.789L173.066,40.789z M62.82,135.435h16.926
	v-12.127H62.82V135.435z M84.814,140.506v12.127h16.109v-12.127H84.814z M62.82,152.633h16.926v-12.127H62.82V152.633z
	 M143.305,126.168c-0.25-0.737-3.467-2.86-9.166-2.86h-6.15v12.127h15.32L143.305,126.168z M42.432,149.769
	c0.254,0.737,3.469,2.862,9.168,2.862h6.151v-12.127H42.43L42.432,149.769z M42.424,126.239l0.004,9.195h15.323v-12.127H51.6
	C45.901,123.308,42.684,125.435,42.424,126.239z M84.814,123.308v12.127h16.109v-12.127H84.814z M127.988,140.506v12.127h6.15
	c5.697,0,8.914-2.125,9.176-2.932l-0.004-9.195H127.988z M145.955,105.008c-10.104,0-19.1-4.515-25.404-11.481H63.798
	c-6.305,6.966-15.3,11.481-25.404,11.481c-10.21,0-19.404-4.487-25.722-11.588v3.015v7.604v4.237v46.4
	c0,10.141,8.25,18.389,18.391,18.389h123.614c10.142,0,18.39-8.25,18.39-18.389v-46.4v-4.237v-7.604v-4.683
	C166.752,99.81,156.943,105.008,145.955,105.008z M150.91,149.769c0,5.967-7.21,10.467-16.771,10.467H51.6
	c-9.56,0-16.771-4.5-16.771-10.467v-23.601c0-5.967,7.21-10.465,16.771-10.465h82.539c9.561,0,16.771,4.498,16.771,10.465V149.769z
	 M105.993,152.633h16.925v-12.127h-16.925V152.633z M105.993,135.435h16.925v-12.127h-16.925V135.435z" class="color c2"/>
</svg>