<svg version="1.1" id="图层_1" x="0px" y="0px" width="103.627px" height="102.6px" viewBox="0 0 103.627 102.6" enable-background="new 0 0 103.627 102.6" xml:space="preserve" xmlns="http://www.w3.org/2000/svg" xmlns:xlink="http://www.w3.org/1999/xlink" xmlns:xml="http://www.w3.org/XML/1998/namespace">
  <path fill="#FEFEFE" d="M101.313,21.458c5.477,19.751,0.931,37.624-10.41,54.133c-2.019,2.933-4.934,4.871-8.534,5.569
	c-6.021,1.164-10.813-1.226-14.925-5.321c-3.243-3.241-6.998-4.313-11.481-3.521c-2.746,0.48-5.415,1.18-7.866,2.437
	c-1.737,0.885-2.545,0.822-3.413-1.133c-3.568-8.021-7.308-15.979-11.047-23.924c-0.683-1.443-0.621-2.562,0.14-3.973
	c6.842-12.801,15.654-24.019,26.873-33.233C66.42,7.76,72.658,3.896,80.524,3.896C89.801,3.941,98.474,11.187,101.313,21.458z
	 M79.964,29.976c3.46-0.018,6.454-2.948,6.547-6.408c0.094-3.739-2.73-6.594-6.516-6.594c-3.739,0-6.408,2.591-6.454,6.282
	C73.479,27.043,76.304,29.991,79.964,29.976z M81.019,46.794c0.017,2.854,2.639,5.415,5.556,5.368s5.477-2.669,5.384-5.522
	c-0.094-2.716-2.715-5.261-5.398-5.261C83.642,41.379,81.004,43.955,81.019,46.794z M53.03,35.499
	c0.109,2.995,2.357,5.074,5.445,5.043c3.104-0.031,5.354-2.436,5.229-5.569c-0.124-2.947-2.437-5.09-5.446-5.026
	C55.108,30.006,52.921,32.333,53.03,35.499z" class="color c1"/>
  <path fill="#FEFEFE" d="M45.366,92.315c0.016-0.636-0.295-2.018-0.916-3.336c-6.966-15.033-13.916-30.068-20.836-45.133
	c-0.838-1.831-1.66-3.011-3.817-1.583c-1.629,1.07-4.452,0.389-5.244,2.296c-0.744,1.815,0.605,3.957,1.087,5.928
	c3.692,14.972,7.416,29.929,11.201,44.885c1.18,4.67,5.679,7.758,10.147,7.152C42.014,101.826,45.366,98.086,45.366,92.315z
	 M11.651,37.361c2.498-0.233,5.399-0.885,7.929-2.529c3.724-2.421,5.042-6.252,3.429-10.457C19.456,15.19,13.435,7.774,5.926,1.521
	C4.499,0.327,2.684-0.775,0.961,0.73C-0.575,2.064,0,3.879,0.822,5.524c2.451,4.918,2.172,10.146,1.582,15.358
	c-0.418,3.646-0.046,7.168,1.009,10.612C4.577,35.266,7.478,37.33,11.651,37.361z" class="color c1"/>
</svg>