<svg version="1.1" id="图层_1" x="0px" y="0px" width="57.995px" height="58.585px" viewBox="0 0 57.995 58.585" enable-background="new 0 0 57.995 58.585" xml:space="preserve" xmlns="http://www.w3.org/2000/svg" xmlns:xlink="http://www.w3.org/1999/xlink" xmlns:xml="http://www.w3.org/XML/1998/namespace">
  <path fill="#221E1F" d="M57.694,5.732c-0.055,0.011-0.115,0.025-0.176,0.025c-0.078,0-0.156-0.021-0.229-0.093
	c-0.125-0.126-0.094-0.28-0.066-0.404c0.025-0.121,0.031-0.179-0.016-0.227c-0.047-0.046-0.105-0.039-0.227-0.014
	c-0.123,0.026-0.277,0.059-0.404-0.067c-0.125-0.126-0.092-0.28-0.066-0.402c0.025-0.121,0.033-0.181-0.014-0.227
	C56.45,4.277,56.391,4.283,56.27,4.31c-0.123,0.026-0.277,0.06-0.404-0.067c-0.125-0.125-0.092-0.28-0.064-0.404
	c0.025-0.121,0.031-0.178-0.016-0.225C55.741,3.566,55.68,3.574,55.559,3.6c-0.123,0.026-0.275,0.059-0.402-0.066
	c-0.125-0.127-0.092-0.28-0.066-0.404c0.025-0.121,0.031-0.179-0.014-0.225C55.03,2.857,54.971,2.863,54.85,2.89
	c-0.123,0.027-0.277,0.06-0.402-0.065c-0.127-0.127-0.092-0.28-0.066-0.404c0.025-0.121,0.031-0.179-0.014-0.225
	c-0.047-0.048-0.105-0.041-0.227-0.015c-0.123,0.025-0.277,0.06-0.402-0.067c-0.127-0.125-0.094-0.28-0.066-0.402
	c0.025-0.122,0.031-0.18-0.016-0.227c-0.045-0.047-0.105-0.039-0.227-0.014c-0.121,0.026-0.275,0.059-0.402-0.066
	C52.903,1.277,52.934,1.124,52.963,1c0.025-0.121,0.029-0.179-0.016-0.225c-0.047-0.047-0.105-0.041-0.227-0.015
	c-0.123,0.027-0.277,0.06-0.402-0.067c-0.125-0.125-0.094-0.278-0.066-0.402C52.276,0.18,52.231,0.045,52.198,0l-4.049,4.834
	l0.346,1.395c0.203,1.424-0.383,2.851-1.525,3.724c-0.035,0.026-0.875,0.677-1.17,0.894c-0.118,0.087-0.226,0.174-0.339,0.26
	c-0.425-0.218-0.78-0.292-0.78-0.292s-2.119,0.344-1.873,1.337c0.02,0.081,0.043,0.163,0.068,0.242
	c0.187,0.65-3.08,3.167-5.606,4.997l-0.114-0.674l0.848-0.272l0.258-2.717l-4.467,0.755c-0.234-0.241-0.668-0.271-0.668-0.271
	l-0.053,0.236c0.156-0.832,0.199-1.788-0.006-2.818c-0.67-3.325-2.502-8.782-12.97-7.165L17.274,5.31c0,0-5.436,2.285-5.813,7.044
	c-0.193,2.422-0.125,4.613,0.322,6.375c-0.115,0.055-0.307,0.164-0.428,0.33l-4.426-0.905l0.186,2.721l0.785,0.291l-0.229,1.264
	l1.412,1.713l2.869-4.051c0.047,0.008,0.096,0.012,0.146,0.004c0.01-0.016,0.064-0.029,0.131-0.045
	c0.389,0.893,0.918,1.617,1.617,2.127c-0.041,0.338,0.049,0.684,0.281,0.951c0.453,0.525,1.27,0.564,1.826,0.084
	c0.031-0.025,0.053-0.059,0.082-0.086c0.967,0.918,2.194,1.597,3.551,1.981c-5.264,1.272-8.332,2.14-8.332,2.14l0.293,0.826
	c-2.916,1.314-7.285,3.154-7.787,2.625c-0.057-0.061-0.115-0.123-0.178-0.182c-0.738-0.723-1.666-1.299-2.02-0.668
	c-0.385,0.682-0.098,1.627-0.098,1.627s-1.514-0.342-1.467,0.617c0.049,0.959,1.652,0.697,1.652,0.697s-1.697,0.748-1.17,1.682
	c0.523,0.936,2.494-0.369,2.494-0.369s-1.244,1.387-0.486,2.188c0.762,0.803,1.889-1.719,1.889-1.719s0.219,0.771,1.137,1.145
	s-0.18-2.334-0.18-2.334l7.229-2.439l0.195,0.549l4.658-1.002c0,0-3.023,15.449-4.096,18.238l6.684-0.434L18.8,55.302
	c0,0-0.527-0.004-1.199,0.066c-1.242,0.123-2.984,0.496-2.824,1.607c0.246,1.709,5.529,1.881,6.436,1.328
	c0.176-0.107,0.402-0.633,0.648-1.402c0.715-2.219,1.615-6.486,2.096-8.865l2.9-0.189c0.223,2.479,0.623,6.438,1.063,8.582
	c0.164,0.793,0.33,1.342,0.498,1.469c0.854,0.654,6.223,1.09,6.668-0.58c0.287-1.086-1.434-1.656-2.676-1.924
	c-0.672-0.145-1.209-0.201-1.209-0.201l-0.445-7.6l8.469-0.551l-6.072-21.467l5.576-4.496l-0.52-0.594l6.166-5.406l1.49-0.228
	c0,0,1.273-1.114,0.928-2.233c-0.001-0.003-0.003-0.006-0.004-0.009c0.109-0.146,0.219-0.283,0.328-0.442
	c0.209-0.304,0.869-1.14,0.896-1.175c0.871-1.142,2.299-1.726,3.723-1.524l0.02,0.005l1.375,0.341l4.865-4.006
	C57.903,5.759,57.803,5.707,57.694,5.732z M29.74,21.217c0.566-0.989,0.905-2.092,0.958-3.24c0.135,0.021,0.273,0.029,0.416,0.011
	c0.646-0.093,1.119-0.61,1.146-1.209c0.176-0.333,0.371-0.766,0.539-1.277l0.031,0.042l-0.021,0.097
	c0.049,0.022,0.09,0.054,0.129,0.088c0.008-0.001,0.014-0.006,0.021-0.006l1.657,2.287C33.638,18.739,31.884,19.978,29.74,21.217z" class="color c1"/>
</svg>