<svg version="1.1" id="图层_1" x="0px" y="0px" width="178.834px" height="194.301px" viewBox="0 0 178.834 194.301" enable-background="new 0 0 178.834 194.301" xml:space="preserve" xmlns:xml="http://www.w3.org/XML/1998/namespace" xmlns="http://www.w3.org/2000/svg" xmlns:xlink="http://www.w3.org/1999/xlink">
  <path fill="#FFFFFF" d="M128.196,63.563c-0.241-13.503-6.114-24.386-17.451-32.344c-2.204-1.579-4.995-3.2-6.967-1.754
	c-3.421,1.968-11.206,9.328-12.512,11.324l-1.978,2.404l-1.717-2.106c-0.937-1.457-8.605-9.103-12.968-11.541
	c-1.069-0.598-3.426-0.023-5.088,0.877l-0.109,0.058c-0.098,0.052-0.195,0.104-0.3,0.167c-10.444,6.754-16.485,16.085-17.954,27.735
	c-0.495,3.927-0.469,7.971-0.444,11.881c0.009,1.492,0.019,2.984,0,4.471c-0.06,4.865,0.059,5.076,4.309,7.544
	c2.779,1.616,3.026,1.583,5.288-0.68l9.871-9.89l0.968,3.836c1.116,4.412,2.17,8.58,3.186,12.825
	c0.276,1.148,0.764,1.974,2.25,2.266c4.233,0.833,8.508,1.249,12.91,1.248c3.234,0,6.537-0.224,9.939-0.672
	c3.63-0.477,5.215-1.947,5.847-5.424c0.624-3.439,1.514-6.771,2.455-10.298c0.33-1.233,0.661-2.475,0.982-3.729
	c0.32,0.297,0.599,0.556,0.867,0.825l2.363,2.353c2.544,2.531,5.174,5.147,7.72,7.759c0.943,0.967,1.796,1.086,2.848,0.397
	c0.54-0.353,1.102-0.677,1.662-1c0.878-0.507,1.785-1.032,2.609-1.667c0.764-0.589,1.355-1.689,1.376-2.56
	C128.265,72.951,128.278,68.138,128.196,63.563z M115.142,57.364c-0.496,1.728-1.785,3.133-3.83,4.176
	c-6.693,3.412-11.89,0.635-13.604-0.527l16.744-9.188C114.897,52.753,115.804,55.058,115.142,57.364z M83.229,61.009
	c-1.76,1.159-7.06,3.912-13.768,0.53c-2.071-1.044-3.372-2.45-3.867-4.179c-0.658-2.301,0.275-4.614,0.728-5.539L83.229,61.009z
	 M93.384,150.62c0,1.095-0.413,2.101-1.162,2.833c-0.729,0.714-1.713,1.104-2.776,1.104c-0.033,0-0.065,0-0.099-0.001
	c-2.183-0.05-3.828-1.743-3.826-3.939c0.001-1.104,0.417-2.118,1.172-2.853c0.751-0.731,1.757-1.122,2.863-1.092
	C91.738,146.728,93.384,148.426,93.384,150.62z M114.335,121.976c0.01,2.065,0.019,4.017-0.049,5.97
	c-0.024,0.673-0.538,1.316-1.038,1.856c-6.45,6.966-14.914,10.8-23.84,10.8c-0.028,0-0.056,0-0.084,0
	c-8.912-0.024-17.332-3.872-23.709-10.835c-0.444-0.484-0.964-1.05-0.983-1.69c-0.061-2.017-0.053-4.023-0.045-6.148l0.005-2.857
	l0.622,0.156c16.333,4.104,32.194,4.098,48.493-0.018l0.622-0.157v0.642C114.328,120.473,114.332,121.231,114.335,121.976z" class="color c1"/>
  <path fill="#2B4350" d="M68.14,23.72l-12.38,9.82V14.91L68.14,23.72z M101.45,26.78l-0.78-0.24c-7.48-2.3-15.03-2.3-22.43,0.01
	l-0.77,0.24l11.98,12.53L101.45,26.78z M123.14,14.89l-12.38,8.84l12.38,9.81V14.89z M58.86,110.65c9.92,3.85,20.06,5.78,30.36,5.78
	c9.18,0,18.47-1.53,27.83-4.6c6.16-2.02,10.9-4.89,14.49-8.79c1.08-1.18,1.95-2.56,2.56-4.05c0.62-1.49,0.98-3.11,1.07-4.76
	c0.23-4.45-1.51-8.6-4.76-11.38l-0.27-0.23l-0.31,0.18c-1.8,1.08-4.01,2.04-6.16,2.97c-1.11,0.48-2.18,0.95-3.13,1.4
	c-1.25,0.6-6.17-5.23-10.03-10.96l-0.76-1.14l-0.15,1.36c-0.81,7.47-2.42,15.48-3.69,15.96c-5.68,2.14-10.33,2.56-16.44,2.56
	c-0.01,0-0.01,0-0.01,0c-5.75,0-10.2-0.89-16.39-2.53c-1.43-0.38-2.97-8.59-3.63-16.31l-0.11-1.32l-0.79,1.06
	c-4.78,6.44-9.63,11.69-10.58,11.43l-1.22-0.56c-2.61-1.22-5.07-2.36-7.65-3.91l-0.31-0.18l-0.27,0.22
	c-3.2,2.63-4.99,6.87-4.77,11.35c0.15,3.15,1.29,6.13,3.22,8.38C49.93,106.06,53.83,108.7,58.86,110.65z M174.62,152.12
	c-0.11,0.15-0.22,0.3-0.34,0.45c-0.59,0.75-1.18,1.49-1.8,2.23c-0.41,0.51-0.83,1.01-1.25,1.5c-6.8,8.03-14.59,14.92-23.14,20.52
	v-11.7h-5.91v13.06c0,0.8-0.07,1.6-0.23,2.4c-6.44,3.62-13.25,6.57-20.34,8.79c-1.71-0.01-3.52,0-5.35,0.06
	c-6.45,0.21-10.83-2.36-13.41-7.91l-5.5,1.81c1.03,3.55,3.64,6.96,7.04,9.2l0.88,0.59c-5.2,0.77-10.49,1.17-15.86,1.18h-0.29
	c-5.27,0-10.5-0.39-15.65-1.16l0.94-0.61c3.45-2.24,6.1-5.65,7.15-9.19l-5.47-1.85l-0.12,0.22c-0.2,0.41-0.38,0.78-0.58,1.14
	c-2.4,4.24-5.99,6.43-10.66,6.52c-2.32,0.05-4.73,0.07-7.39,0.07c-7.11-2.22-13.97-5.17-20.44-8.81c-0.06-0.39-0.1-0.76-0.12-1.12
	c-0.11-3.08-0.09-6.21-0.07-9.24c0.01-1.19,0.01-2.39,0.01-3.58v-1.58h-5.9v11.86c-10.13-6.58-19.16-14.89-26.57-24.67
	c1.4-3.17,3.52-6.14,6.27-8.86l0.4-0.39l0.74,0.96c0.3,0.4,0.58,0.76,0.85,1.11c6.04,7.71,13.9,11.19,23.36,10.33
	c3.34-0.3,6.67-0.63,10.01-0.96c3.31-0.33,6.62-0.66,9.93-0.96c0.84-0.08,1.13-0.31,1.38-1.08c1.17-3.64,2.41-7.31,3.61-10.86
	l1.08-3.21c0.14-0.42,0.29-0.85,0.47-1.34l0.53-1.49l0.56,0.49c5.21,4.6,10.68,7.67,16.71,9.37l0.49,0.14l-0.14,0.49
	c-1.74,5.75-0.7,9.89,3.17,12.66c3.45,2.47,8.11,2.47,11.57-0.01c3.86-2.75,4.92-7.01,3.15-12.64l-0.15-0.49l0.49-0.14
	c6.14-1.76,11.6-4.82,16.69-9.37l0.53-0.48l0.55,1.37c0.18,0.45,0.34,0.85,0.47,1.26l0.5,1.49c1.4,4.19,2.8,8.38,4.16,12.58
	c0.29,0.87,0.54,1.19,1.45,1.27c3.9,0.34,7.85,0.73,11.68,1.11c2.69,0.27,5.38,0.54,8.07,0.79c9.79,0.92,17.81-2.7,23.86-10.76
	l0.21-0.29c0.11-0.15,0.23-0.31,0.35-0.46c0.08-0.11,0.18-0.18,0.29-0.27l0.53-0.44l0.32,0.3
	C171.12,146.06,173.22,148.95,174.62,152.12z M93.851,160.077c-0.078,0.035-0.155,0.072-0.233,0.105
	C93.696,160.148,93.773,160.113,93.851,160.077z M91.04,160.94c0.53-0.08,1.05-0.21,1.56-0.37
	C92.09,160.73,91.57,160.85,91.04,160.94z M86.3,160.57c0.52,0.16,1.04,0.29,1.56,0.37C87.33,160.85,86.81,160.73,86.3,160.57z
	 M80.51,156.08c0.208,0.339,0.441,0.665,0.695,0.982c-0.011-0.014-0.024-0.028-0.035-0.042C80.93,156.72,80.71,156.4,80.51,156.08z
	 M65.82,188.81c0.035-0.004,0.069-0.01,0.104-0.014c-0.392,0.041-0.793,0.066-1.204,0.074C65.09,188.86,65.46,188.84,65.82,188.81z
	 M66.81,188.67c0.085-0.013,0.162-0.03,0.241-0.046c-0.355,0.071-0.718,0.127-1.091,0.167c0.132-0.015,0.264-0.029,0.389-0.051
	c0.15-0.02,0.28-0.04,0.42-0.06C66.78,188.68,66.8,188.67,66.81,188.67z M68.71,188.16c0.06-0.022,0.116-0.051,0.175-0.074
	c-0.568,0.218-1.156,0.401-1.777,0.527c0.023-0.005,0.048-0.008,0.071-0.013c0.16-0.03,0.31-0.07,0.46-0.11
	c0.19-0.04,0.38-0.1,0.56-0.15C68.37,188.28,68.54,188.23,68.71,188.16z M70.68,187.21c0.106-0.069,0.205-0.138,0.306-0.206
	c-0.173,0.116-0.351,0.223-0.53,0.329C70.53,187.29,70.607,187.255,70.68,187.21z M69.93,187.621
	c-0.134,0.069-0.27,0.134-0.407,0.197C69.661,187.755,69.797,187.69,69.93,187.621z M71.5,186.64
	c0.054-0.04,0.108-0.088,0.162-0.135c-0.149,0.118-0.296,0.238-0.45,0.347c0.016-0.011,0.032-0.021,0.048-0.032
	C71.34,186.76,71.42,186.7,71.5,186.64z" class="color c2"/>
  <path fill="#1F5972" d="M56.48,133.613l0.695-0.002l-1.153,3.465c-1.094,3.296-2.128,6.408-3.241,9.566
	c-0.231,0.656-1.106,1.219-1.734,1.284c-1.547,0.163-3.095,0.344-4.643,0.524c-4.343,0.507-8.834,1.03-13.272,1.143
	c-0.179,0.004-0.358,0.007-0.535,0.007c-6.665,0-12.159-3.205-16.338-9.535l-0.295-0.446l0.465-0.264
	c3.877-2.201,7.858-3.229,11.793-3.105c7.241,0.266,14.474-0.798,21.47-1.82c1.892-0.277,3.784-0.554,5.679-0.807h0
	c0.211-0.027,0.428-0.024,0.694-0.017C56.189,133.609,56.329,133.608,56.48,133.613z M24.588,58.341
	c2.546,3.923,4.951,7.628,6.35,12.09c1.406,4.49,5.96,7.595,10.705,7.595c0.672,0,1.348-0.062,2.02-0.192l0.427-0.082l-0.022-0.435
	c-0.489-9.498-2.201-21.453-10.93-30.915c3.284,1.102,9.893,3.605,11.944,6.506l0.56,0.792l0.32-0.916
	c0.2-0.574,0.396-1.166,0.595-1.769c0.484-1.464,0.984-2.979,1.62-4.427c0.605-1.38,0.473-2.356-0.473-3.481
	c-5.629-6.704-12.75-11.243-21.164-13.489c-0.382-0.102-0.774-0.167-1.212-0.238c-0.205-0.033-0.42-0.068-0.65-0.11l-0.749-0.137
	l0.172,0.741c0.097,0.417,0.181,0.804,0.261,1.168c0.162,0.743,0.302,1.384,0.488,2.029c2.209,7.632,1.872,15.095-1.002,22.182
	c-0.303,0.747-0.021,1.909,0.426,2.601L24.588,58.341z M132.377,51.172l1.155,3.142l0.521-1.021
	c1.742-3.409,8.479-5.898,11.763-6.937c-0.1,0.108-0.199,0.216-0.298,0.325c-1.027,1.135-1.986,2.336-2.849,3.569
	c-4.804,6.866-7.222,15.225-7.842,27.104l-0.024,0.458l0.455,0.062c0.584,0.081,1.168,0.12,1.747,0.12
	c3.516,0,6.853-1.454,8.994-3.994c0.866-1.028,1.512-2.201,1.919-3.484c1.528-4.819,4.255-9,6.691-12.541
	c0.716-1.041,0.807-1.962,0.313-3.181c-2.235-5.515-2.873-11.234-1.896-16.998c0.296-1.751,0.7-3.486,1.129-5.322
	c0.202-0.866,0.408-1.752,0.61-2.669l0.169-0.768l-0.767,0.172c-9.631,2.166-17.236,6.854-23.253,14.331
	c-0.417,0.519-0.725,1.436-0.518,2.071C130.998,47.452,131.668,49.259,132.377,51.172z M65.691,50.88
	c-0.083,0.136-2.023,3.367-1.061,6.747c0.573,2.012,2.047,3.629,4.38,4.805c2.497,1.259,4.83,1.708,6.889,1.708
	c5.11,0,8.536-2.766,8.584-2.806l0.57-0.471L65.939,50.475L65.691,50.88z M114.839,50.471l-18.93,10.388l0.551,0.47
	c0.046,0.04,3.392,2.828,8.45,2.828c2.041,0,4.362-0.454,6.856-1.726c2.301-1.174,3.76-2.786,4.336-4.791
	c0.972-3.383-0.935-6.621-1.017-6.756L114.839,50.471z M162.495,139.326c-3.646-1.955-7.618-2.938-12.881-3.187
	c-5.16-0.244-10.518-0.627-16.378-1.169c-2.423-0.224-4.804-0.58-7.325-0.957c-1.13-0.169-2.275-0.341-3.442-0.502l-0.796-0.11
	l0.253,0.763c0.38,1.147,0.758,2.274,1.132,3.388c0.949,2.83,1.846,5.503,2.68,8.229c0.464,1.515,1.293,2.188,2.86,2.325
	c2.131,0.186,4.259,0.413,6.387,0.64c2.979,0.317,6.061,0.646,9.104,0.852c0.541,0.036,1.074,0.055,1.602,0.055
	c7.001,0,12.709-3.227,16.983-9.607l0.308-0.458L162.495,139.326z" class="color c3"/>
  <path fill="#69BEDD" d="M178.84,146.3c-5.76-10-16.47-16.47-29.29-16.53c-2.66-0.01-5.34,0.18-7.97-0.13
	c-6.5-0.78-12.97-1.83-19.46-2.7c-1.16-0.15-1.42-0.65-1.39-1.69c0.06-1.85,0.13-3.72-0.02-5.56c-0.13-1.71,0.41-2.57,2.08-3.27
	c5.86-2.49,11.2-5.81,15.12-11c2.96-3.92,4.5-8.33,3.43-13.21c-0.58-2.65-1.87-5.14-2.87-7.79c0.2-0.04,0.61-0.11,1.01-0.18
	c7.34-1.25,12.25-5.39,14.96-12.33c0.99-2.56,2.28-5.02,3.62-7.43c1.12-1.99,2.43-3.88,3.8-5.7c0.98-1.29,1.09-2.32,0.29-3.81
	c-3.28-6.02-3.87-12.41-2.17-19.04c1.24-4.84,2.43-9.7,3.68-14.71c-12.49,1.16-23.92,4.44-33.18,13.33
	c-2.6-11.82-0.1-22.94,2.42-34.48c-0.96,0.64-1.51,0.99-2.05,1.37c-8.56,6.11-17.12,12.2-25.64,18.35c-1.02,0.74-1.86,0.85-3.03,0.5
	c-8.52-2.55-17.06-2.55-25.57,0.04c-1.13,0.34-1.92,0.17-2.86-0.51c-8.58-6.18-17.19-12.31-25.8-18.45
	C47.44,1.01,46.92,0.66,45.96,0c2.63,11.68,5.02,22.81,2.48,34.49c-4.63-4.16-9.7-7.39-15.4-9.57c-5.7-2.17-11.7-2.83-17.83-3.83
	c1.33,5.33,2.6,10.41,3.85,15.5c1.48,6.05,1.01,11.97-1.9,17.48c-1.15,2.19-0.93,3.65,0.44,5.59c2.98,4.22,5.78,8.49,7.52,13.52
	c2.01,5.78,6.63,9.24,12.61,10.72c0.98,0.25,1.99,0.4,3.05,0.61c-7.33,11.16-2.1,20.57,5.55,26.17c3.21,2.36,6.86,4.13,10.39,6.01
	c1.01,0.54,1.53,0.98,1.47,2.17c-0.1,2.1-0.07,4.21-0.01,6.31c0.04,1.12-0.25,1.62-1.49,1.78c-9.92,1.28-19.77,2.81-29.84,3.01
	c-11.3,0.21-21.34,6.92-26.85,16.39c0.73,1.08,1.47,2.14,2.24,3.19l-0.05,0.04l1.5,2c0.18,0.24,0.36,0.48,0.56,0.72
	c7.41,9.78,16.44,18.09,26.57,24.67c1.98,1.29,4.01,2.52,6.08,3.66c6.47,3.64,13.33,6.59,20.44,8.81c5.25,1.64,10.64,2.88,16.13,3.7
	c5.15,0.77,10.38,1.16,15.65,1.16h0.29c5.37-0.01,10.66-0.41,15.86-1.18c5.58-0.83,11.04-2.08,16.34-3.75
	c7.09-2.22,13.9-5.17,20.34-8.79c2.09-1.18,4.14-2.43,6.14-3.76c8.55-5.6,16.34-12.49,23.14-20.52c0.42-0.49,0.84-0.99,1.25-1.5
	c0.6-0.74,1.2-1.49,1.79-2.25c0,0.01,0.01,0.01,0.01,0.02c0.12-0.15,0.23-0.3,0.34-0.45c0.81-1.04,1.6-2.1,2.37-3.18l0.22-0.3
	l-0.01-0.01C177.75,147.86,178.3,147.09,178.84,146.3z M133.19,135.47c5.46,0.5,10.93,0.91,16.4,1.17
	c4.37,0.21,8.57,0.93,12.67,3.13c-4.43,6.61-10.37,9.85-18.14,9.33c-5.17-0.35-10.31-1.04-15.48-1.49
	c-1.36-0.12-2.02-0.66-2.43-1.98c-1.16-3.82-2.48-7.59-3.81-11.62C126.14,134.52,129.65,135.14,133.19,135.47z M44.24,94.18
	c-0.2-4.1,1.34-8.28,4.59-10.94c3.01,1.81,5.91,3.09,8.91,4.49c1.93,0.9,11.2-11.58,11.2-11.58s1.37,16.05,4,16.75
	c5.98,1.59,10.55,2.55,16.53,2.55c5.98,0,10.81-0.4,16.62-2.59c2.32-0.87,4.01-16.38,4.01-16.38s8.26,12.29,10.65,11.14
	c2.78-1.32,6.57-2.72,9.34-4.39c3.25,2.79,4.79,6.92,4.58,10.97c0.19,2.67-0.82,5.39-3.07,8.02c-0.14,0.16-0.28,0.32-0.43,0.48
	c-1.95,2.12-4.18,3.85-6.59,5.26c-0.9,0.53-1.83,1.02-2.78,1.47c-0.32,0.15-0.64,0.29-0.96,0.43c-1.28,0.56-2.6,1.06-3.95,1.5
	c-19.4,6.35-38.73,6.25-57.85-1.17c-4.46-1.74-8.54-4.24-11.7-7.94c-0.15-0.18-0.3-0.35-0.44-0.53
	C44.95,99.24,44.07,96.66,44.24,94.18z M65.98,129.43c-0.36-0.4-0.83-0.9-0.85-1.37c-0.08-2.7-0.04-5.4-0.04-8.35
	c16.28,4.09,32.35,4.12,48.74-0.02c0,2.94,0.05,5.59-0.04,8.24c-0.02,0.52-0.51,1.1-0.91,1.53C99.73,143.66,79,143.64,65.98,129.43z
	 M92.88,150.62c0,1.99-1.53,3.48-3.52,3.44c-1.91-0.05-3.34-1.52-3.34-3.44c0-2,1.54-3.5,3.52-3.45
	C91.45,147.22,92.88,148.7,92.88,150.62z M131.31,43.86c5.9-7.35,13.47-12.02,22.97-14.16c-0.63,2.86-1.3,5.42-1.74,8.02
	c-1.01,5.92-0.33,11.7,1.92,17.26c0.42,1.04,0.38,1.78-0.26,2.71c-2.73,3.97-5.27,7.97-6.76,12.68c-0.39,1.25-1.02,2.36-1.82,3.31
	c-2.4,2.85-6.35,4.24-10.29,3.7c0.25-4.86,0.82-9.61,2.01-14.12c1.18-4.52,3-8.8,5.74-12.72c0.85-1.21,1.78-2.39,2.81-3.52
	c0.52-0.57,1.06-1.13,1.62-1.68c0,0-11.45,2.94-13.9,7.73c-0.99-2.7-1.93-5.13-2.73-7.61C130.73,45.01,130.98,44.26,131.31,43.86z
	 M122.64,15.86V32.5c-3.53-2.8-7.26-5.75-11.05-8.75C115.13,21.22,118.82,18.59,122.64,15.86z M79.76,26.62
	c0.92-0.25,1.83-0.46,2.75-0.64c0.01,0,0.01,0,0.01,0c0.92-0.18,1.84-0.32,2.76-0.42c5.09-0.59,10.21-0.1,15.25,1.46
	c-3.77,3.94-7.51,7.84-11.08,11.58c-3.6-3.77-7.3-7.64-11.06-11.58C78.85,26.88,79.3,26.74,79.76,26.62z M56.26,15.88
	c1.88,1.34,3.75,2.67,5.59,3.98c1.84,1.31,3.66,2.61,5.45,3.89c-3.76,2.98-7.47,5.92-11.04,8.75V15.88z M51.65,58.44
	c1.49-11.85,7.71-20.89,17.73-27.37c0.13-0.09,0.25-0.15,0.37-0.21c1.72-0.93,3.83-1.31,4.61-0.88c4.25,2.38,11.88,9.96,12.79,11.38
	l2.14,2.62l2.36-2.87c1.31-2,9.04-9.3,12.38-11.21c1.49-1.09,3.66-0.25,6.42,1.73c11.1,7.78,17,18.34,17.25,31.94
	c0.08,4.76,0.06,9.53-0.04,14.29c-0.02,0.74-0.58,1.7-1.18,2.17c-1.32,1.01-2.85,1.73-4.24,2.65c-0.9,0.58-1.48,0.43-2.22-0.33
	c-3.32-3.41-6.72-6.76-10.09-10.12c-0.43-0.43-0.88-0.84-1.49-1.41c-1.28,5.08-2.76,9.93-3.66,14.88c-0.6,3.33-2.09,4.58-5.42,5.01
	c-7.62,1.01-15.15,0.92-22.68-0.57c-1.15-0.22-1.6-0.77-1.87-1.89c-1.37-5.76-2.85-11.49-4.37-17.52
	c-3.61,3.62-7.05,7.07-10.49,10.51c-2.1,2.11-2.1,2.1-4.68,0.6c-4.07-2.36-4.12-2.36-4.06-7.1C51.28,69.3,50.97,63.81,51.65,58.44z
	 M31.42,70.28c-1.48-4.71-4.11-8.66-6.73-12.7c-0.37-0.57-0.61-1.56-0.38-2.14c3-7.39,3.23-14.88,1.02-22.51
	c-0.27-0.94-0.45-1.92-0.74-3.17c0.7,0.13,1.27,0.2,1.82,0.34c8.38,2.24,15.33,6.69,20.91,13.33c0.82,0.98,0.92,1.76,0.4,2.96
	c-0.91,2.07-1.54,4.26-2.23,6.23c-2.89-4.08-14.1-7.3-14.1-7.3c9,8.75,11.56,20.03,12.18,32.02C38.63,78.3,33.01,75.39,31.42,70.28z
	 M28.2,136.75c9.22,0.33,18.19-1.43,27.24-2.63c0.29-0.04,0.59-0.01,1.04-0.01c-1.4,4.21-2.74,8.31-4.17,12.37
	c-0.15,0.43-0.84,0.9-1.32,0.95c-5.95,0.63-11.9,1.51-17.87,1.67c-7.08,0.17-12.46-3.28-16.44-9.31
	C20.34,137.71,24.2,136.61,28.2,136.75z M171.26,148.25c-6.37,8.51-13.85,15.81-22.17,21.82c-0.16,0.12-0.33,0.24-0.5,0.36v-5.81
	h-6.91v10.32c-0.17,0.1-0.33,0.2-0.5,0.29c-9.74,5.75-20.41,9.82-31.64,12.06c-0.25,0.05-0.51,0.1-0.76,0.15
	c-0.81-0.44-1.57-0.97-2.27-1.6c-0.14-0.13-0.27-0.26-0.4-0.39c-0.11-0.11-0.22-0.23-0.33-0.35c-0.14-0.15-0.28-0.31-0.41-0.47
	c-0.2-0.23-0.39-0.48-0.58-0.74c-0.06-0.09-0.13-0.19-0.2-0.29c-0.01-0.02-0.02-0.03-0.03-0.05c-0.15-0.22-0.3-0.45-0.43-0.68
	c-0.17-0.27-0.32-0.55-0.47-0.84c-0.04-0.07-0.07-0.14-0.11-0.21c-0.15-0.3-0.29-0.6-0.43-0.92c-2.14,0.7-4.27,1.4-6.38,2.1
	c0.11,0.42,0.24,0.84,0.39,1.26c0.1,0.3,0.22,0.59,0.35,0.88c0.08,0.19,0.17,0.38,0.26,0.57c0.24,0.51,0.51,1.01,0.82,1.5
	c0.11,0.19,0.23,0.36,0.34,0.54c0.12,0.17,0.23,0.33,0.35,0.5c0.13,0.17,0.26,0.35,0.39,0.52c-0.2,0.02-0.41,0.04-0.61,0.05
	c-3.18,0.31-6.4,0.47-9.64,0.48h-0.27c-3.13,0-6.23-0.15-9.31-0.45c-0.2-0.01-0.39-0.03-0.59-0.05h-0.01
	c0.35-0.44,0.67-0.89,0.97-1.36c0.15-0.23,0.29-0.47,0.43-0.7c0.14-0.24,0.27-0.48,0.4-0.73c0.11-0.21,0.21-0.43,0.31-0.65
	c0.36-0.77,0.64-1.55,0.84-2.35c-1.04-0.35-2.07-0.7-3.12-1.05c-1.06-0.36-2.12-0.72-3.21-1.08c-0.33,0.64-0.58,1.19-0.88,1.72
	c-0.16,0.28-0.32,0.54-0.49,0.8c-0.16,0.26-0.34,0.5-0.51,0.74c-0.18,0.25-0.36,0.48-0.56,0.7c-0.19,0.22-0.38,0.43-0.58,0.64
	c-0.2,0.2-0.41,0.4-0.62,0.58c-0.13,0.11-0.25,0.22-0.38,0.33c-0.03,0.01-0.05,0.03-0.07,0.05c-0.16,0.12-0.31,0.23-0.47,0.34
	c-0.03,0.03-0.07,0.05-0.11,0.08c-0.32,0.23-0.66,0.44-1.02,0.63c-0.26-0.05-0.51-0.1-0.77-0.15c-11.19-2.22-21.9-6.3-31.67-12.01
	c-0.17-0.09-0.33-0.19-0.5-0.29c-0.01-2.78,0.02-5.57,0.02-8.35v-2.08h-6.9v5.98c-0.17-0.12-0.34-0.24-0.5-0.36
	c-8.37-5.98-15.87-13.25-22.13-21.64l-0.11-0.15l-0.32-0.43c1.04-1.46,2.24-2.87,3.61-4.21c0.23,0.3,0.45,0.58,0.65,0.85
	c0.2,0.27,0.4,0.53,0.6,0.78c0.34,0.44,0.69,0.86,1.04,1.27c0.36,0.41,0.72,0.81,1.08,1.19c2.73,2.88,5.8,5.03,9.2,6.4
	c0.45,0.18,0.91,0.35,1.37,0.5c3.38,1.13,7.07,1.52,11.1,1.16c1.66-0.15,3.32-0.31,4.99-0.47c3.32-0.33,6.64-0.66,9.96-0.99
	c1.67-0.16,3.33-0.32,4.99-0.47c1.02-0.09,1.5-0.43,1.82-1.42c1.51-4.7,3.11-9.38,4.68-14.06c0.11-0.32,0.21-0.63,0.34-0.97
	c0.12-0.35,0.25-0.72,0.41-1.15h0.01v0.01c0.31,0.27,0.63,0.54,0.94,0.81c1.41,1.18,2.86,2.27,4.35,3.26
	c0.54,0.36,1.09,0.71,1.64,1.05c0.69,0.41,1.4,0.81,2.11,1.19c0.71,0.37,1.43,0.73,2.17,1.06c0.73,0.33,1.47,0.65,2.23,0.94
	c1.13,0.43,2.29,0.82,3.47,1.15v0.01c-1.03,3.39-1.11,6.26-0.25,8.63c0.13,0.36,0.29,0.71,0.46,1.05c0.09,0.17,0.18,0.33,0.28,0.5
	c0.2,0.32,0.42,0.64,0.66,0.94c0.23,0.31,0.5,0.61,0.79,0.89c0.42,0.42,0.89,0.82,1.41,1.19c0.46,0.33,0.94,0.62,1.43,0.86
	s0.99,0.44,1.5,0.61c0.51,0.16,1.03,0.28,1.56,0.37c1.05,0.16,2.13,0.16,3.18,0c0.53-0.09,1.05-0.21,1.56-0.37
	c0.19-0.06,0.38-0.13,0.57-0.2c0.14-0.06,0.28-0.12,0.43-0.18c0.14-0.06,0.28-0.12,0.42-0.19c0.06-0.04,0.13-0.07,0.2-0.1
	c0.06-0.04,0.13-0.07,0.2-0.11c0.14-0.07,0.27-0.15,0.41-0.23c0.24-0.14,0.47-0.3,0.7-0.46c4.05-2.89,5.19-7.3,3.34-13.2
	c6.27-1.8,11.81-4.95,16.88-9.48c0.29,0.75,0.55,1.33,0.75,1.93c0.78,2.35,1.56,4.69,2.34,7.03c0.78,2.34,1.56,4.69,2.32,7.04
	c0.19,0.61,0.42,1.05,0.85,1.32c0.25,0.15,0.58,0.25,1.02,0.29c1.65,0.15,3.29,0.3,4.94,0.46c4.94,0.47,9.87,0.99,14.81,1.45
	c10.17,0.95,18.22-2.85,24.31-10.96c0.18-0.24,0.35-0.5,0.55-0.74c0.07-0.1,0.18-0.16,0.41-0.35c1.32,1.23,2.5,2.55,3.52,3.95
	C171.47,147.98,171.36,148.12,171.26,148.25z" class="color c4"/>
</svg>