<svg version="1.1" id="图层_1" x="0px" y="0px" width="235.69px" height="42.046px" viewBox="0 0 235.69 42.046" enable-background="new 0 0 235.69 42.046" xml:space="preserve" xmlns="http://www.w3.org/2000/svg" xmlns:xlink="http://www.w3.org/1999/xlink" xmlns:xml="http://www.w3.org/XML/1998/namespace">
  <path fill="#59060E" d="M146.79,19.941l-0.094-12.664c0,0-0.012-1.268-1.024-1.257c-1.015,0.007-11.146,0.084-11.146,0.084
	c-1.013,0.008-1.004,1.272-1.004,1.272l0.191,25.331c0,0,0.01,1.261,1.023,1.259c0,0,10.129-0.078,11.144-0.086
	c1.013-0.009,1.003-1.275,1.003-1.275L146.79,19.941z M144.212,13.882c-0.759,0.004-8.106,0.062-8.106,0.062
	c-0.759,0.006-0.769-0.757-0.769-0.757l-0.017-2.53c0,0-0.003-0.76,0.757-0.766c0,0,7.343-0.055,8.104-0.062
	c0.759-0.007,0.763,0.755,0.763,0.755l0.02,2.533C144.964,13.117,144.973,13.874,144.212,13.882z M235.69,19.275
	c-0.028-4.052-6.875-5.268-6.875-5.268s-26.389-6.389-33.237-7.097c-5.831-0.465-34.96-0.749-43.823-0.683
	c-0.508,0.001-1.779-0.242-1.765,1.276c0.027,3.549,0.089,11.652,0.093,12.409c0.003,0.765,0.065,8.866,0.092,12.414
	c0.009,1.52,1.528,1.256,1.784,1.256c8.612-0.066,37.736-0.79,43.812-1.345c6.83-0.812,33.126-7.591,33.126-7.591
	S235.72,23.071,235.69,19.275z M196.895,13.487l-44.326,0.333c-0.759,0.006-0.764-0.755-0.764-0.755s-0.018-2.279-0.024-2.786
	c0,0-0.002-0.76,0.757-0.764c8.612-0.066,38.756,0.217,44.584,0.676c6.845,0.458,33.237,7.096,33.237,7.096
	S214.375,13.861,196.895,13.487z M130.735,6.891c-0.012-1.268-2.038-1.504-2.294-1.504c-0.253,0.005-2.279,0.019-2.785,0.021
	c-0.507,0.005-12.438-3.705-13.454-3.695C111.19,1.716,4.793-0.017,2.513,0C0.232,0.017-0.002,2.297,0,2.804l0.274,36.476
	c0.002,0.506,0.272,2.783,2.553,2.767c2.028-0.271,108.639-3.603,109.655-3.606c1.008-0.01,12.887-3.898,13.392-3.903
	c0.507-0.003,2.535-0.018,2.788-0.02c0.252-0.004,2.276-0.018,2.27-1.539L130.735,6.891z M125.719,14.021
	c-0.506,0.003-5.585-1.733-6.604-2.229c-0.761-0.502-5.833-1.478-6.849-1.47C111.256,10.33,7.644,8.574,5.619,8.588L3.843,8.602
	C3.084,8.605,3.076,7.849,3.076,7.849l-0.015-2.28c0,0-0.008-0.759,0.754-0.769l1.773-0.011C7.865,4.773,111.229,6.53,112.24,6.525
	c1.014-0.01,6.089,0.966,6.851,1.464c0.763,0.502,6.092,1.981,6.603,2.23c0.506-0.003,0.508,0.505,0.508,0.505
	c0.006,0.252,0.021,2.786,0.023,3.039C126.229,14.016,126.229,14.016,125.719,14.021z" class="color c1"/>
</svg>