<svg version="1.1" id="图层_1" x="0px" y="0px" width="163.003px" height="173.025px" viewBox="0 0 163.003 173.025" enable-background="new 0 0 163.003 173.025" xml:space="preserve" xmlns="http://www.w3.org/2000/svg" xmlns:xlink="http://www.w3.org/1999/xlink" xmlns:xml="http://www.w3.org/XML/1998/namespace">
  <title>029</title>
  <path fill="#333333" d="M134.781,13.815c-1.144,3.276-2.861,6.324-5.07,9c-27.731-21.841-66.723-22.162-94.81-0.78
	c-1.981-2.569-3.537-5.439-4.61-8.5c-14.4-36-40.84,7.2-21.26,43.59c-5.604,15.426-6.171,32.231-1.62,48l0,0
	c-5.93,21.11-9.62,43.07-5.94,67.9c17.53-8.4,34.69-16.42,47-19.41c38.63,18.394,84.857,1.989,103.25-36.641
	c8.648-18.162,9.892-38.976,3.47-58.039C176.361,22.235,149.381-22.725,134.781,13.815z" class="color c1"/>
  <path fill="#FFFFFF" d="M124.001,31.415c-24.939-19.419-60.052-18.79-84.28,1.51v0.31c0,12.09-8,22.21-18.72,24.93
	c-14.431,34.115,1.527,73.469,35.642,87.9s73.469-1.527,87.9-35.642c6.617-15.644,7.052-33.215,1.218-49.168
	C133.779,55.809,125.524,44.488,124.001,31.415z" class="color c2"/>
  <path fill="#DDDEE0" d="M16.451,74.295c11.87,60.82,109.55,71.73,132.84,1.39c4.74,31.39-14.7,72-66.52,75.74
	C35.721,151.425,10.361,108.495,16.451,74.295z" class="color c3"/>
  <path fill="#DC0225" d="M33.831,33.505c0.433,6.196-2.575,12.129-7.83,15.44c-4.364-6.62-7.463-13.991-9.14-21.74
	c0,6.47,0.28,13.23,6,24.42l-4.1,1.65c-9.9-17.8-4.21-46.25-0.92-41.82C22.111,20.425,27.001,28.515,33.831,33.505z M131.361,34.685
	c-0.423,6.206,2.606,12.141,7.88,15.44c4.364-6.62,7.463-13.991,9.14-21.74c0,6.47-0.28,13.23-6,24.42l4.1,1.65
	c9.85-17.8,4.15-46.29,0.87-41.83C143.081,21.605,138.241,29.695,131.361,34.685z" class="color c4"/>
</svg>