<svg version="1.1" id="图层_1" x="0px" y="0px" width="130.379px" height="63.732px" viewBox="0 0 130.379 63.732" enable-background="new 0 0 130.379 63.732" xml:space="preserve" xmlns="http://www.w3.org/2000/svg" xmlns:xlink="http://www.w3.org/1999/xlink" xmlns:xml="http://www.w3.org/XML/1998/namespace">
  <path fill="#414043" d="M18.166,54.636c0-5-4.068-9.063-9.088-9.063C4.067,45.573,0,49.636,0,54.636
	c0,5.037,4.067,9.097,9.078,9.097C14.098,63.733,18.166,59.673,18.166,54.636L18.166,54.636z" class="color c1"/>
  <path fill="#414043" d="M51.217,54.636c0-5-4.067-9.063-9.08-9.063c-5.016,0-9.089,4.063-9.089,9.063
	c0,5.037,4.073,9.097,9.089,9.097C47.153,63.733,51.217,59.673,51.217,54.636L51.217,54.636z" class="color c1"/>
  <path fill="#414043" d="M78.329,8.407h42.346C108.779-2.802,90.223-2.802,78.329,8.407z M123.938,49.755
	c2.409-3.117,4.202-6.663,5.279-10.448H69.795c1.076,3.785,2.869,7.331,5.272,10.448H123.938z M120.674,53.352H78.329
	C90.223,64.568,108.779,64.568,120.674,53.352z M75.068,12.009c-2.403,3.112-4.196,6.663-5.272,10.459h59.42
	c-1.076-3.796-2.87-7.347-5.278-10.459H75.068z M130.006,26.054h-61c-0.508,3.197-0.508,6.461,0,9.658h60.998
	C130.504,32.515,130.504,29.25,130.006,26.054z" class="color c1"/>
</svg>