<svg version="1.1" id="图层_1" x="0px" y="0px" width="252.313px" height="92.314px" viewBox="0 0 252.313 92.314" enable-background="new 0 0 252.313 92.314" xml:space="preserve" xmlns="http://www.w3.org/2000/svg" xmlns:xlink="http://www.w3.org/1999/xlink" xmlns:xml="http://www.w3.org/XML/1998/namespace">
  <path fill="#9C0D14" d="M7.694,10.053C2.668,8.351-0.721,4.932,0.131,2.417c0.853-2.517,5.617-3.174,10.648-1.471
	c5.029,1.701,8.418,5.12,7.564,7.637C17.493,11.098,12.727,11.757,7.694,10.053z M228.817,32.802
	c0.58-2.483,2.312-4.459,4.737-5.748c0.715-0.381,1.984-0.463,2.534,0.259c0.585,0.767-0.263,1.556-0.895,1.891
	c-1.014,0.54-1.786,1.369-2.271,2.348c2.922-0.936,5.819-1.975,8.693-3.104c0.521-0.658,1.528-0.962,2.321-0.925
	c2.378-0.98,4.734-2.027,7.071-3.144c-0.178,0.017-0.356,0.032-0.543,0.01c-0.693-0.083-1.657-0.767-1.142-1.578
	c0.578-0.911,1.313-1.597,2.147-2.078c-0.616-0.476-1.469-0.602-2.216-0.241c-9.238,4.419-18.841,7.761-28.593,10.021
	c-0.173,0.588-0.277,1.215-0.253,1.909c0.036,1.14-3.718,1.769-3.741,1.002c-0.025-0.764,0.082-1.452,0.262-2.102
	c-3.474,0.703-6.961,1.265-10.455,1.693c0.103,0.671,0.123,1.369,0.007,2.113c-0.188,1.189-3.943,1.871-3.729,0.507
	c0.123-0.781,0.076-1.515-0.088-2.21c-1.185,0.112-2.373,0.208-3.56,0.287c0.002,1.425,0.014,2.848,0.062,4.27
	C209.116,37.325,219.066,35.603,228.817,32.802z M104.454,16.952c0.421-0.013,0.901,0.028,0.938,0.259
	c6.489,1.789,12.904,3.851,19.257,6.021c-1.31-1.942-3.83-3.17-5.493-4.77c-0.257-0.248,0.54-0.752,1.453-1.085
	c-2.186-0.718-4.375-1.425-6.577-2.104c-0.852,0.456-1.712,0.898-2.57,1.354c-0.732,0.388-1.813,0.71-2.632,0.407
	c-0.822-0.303-0.036-1.017,0.386-1.238c0.797-0.421,1.599-0.828,2.388-1.247c-1.978-0.589-3.962-1.155-5.955-1.696
	c-0.447,0.021-0.916-0.045-1.181-0.323c-2.366-0.63-4.746-1.213-7.138-1.756c0.015,1.473,0.005,2.929-0.289,4.314
	C99.523,15.661,101.994,16.286,104.454,16.952z M60.775,10.991c-0.02,0.2-0.154,0.379-0.361,0.529
	c7.322-0.423,14.525-0.083,21.622,0.835c0.43-1.375,0.811-2.761,0.968-4.192c-2.994-0.396-6.016-0.682-9.055-0.869
	c-0.258,0.114-0.518,0.224-0.785,0.318c-0.602,0.215-1.792,0.615-2.407,0.217c-0.297-0.193-0.021-0.457,0.331-0.672
	C67.518,7.02,63.917,7.048,60.28,7.255C60.688,8.427,60.904,9.646,60.775,10.991z M124.445,18.655
	c4.683,1.585,9.331,3.229,13.95,4.864c2.429,0.86,4.853,1.721,7.279,2.569c3.343,1.252,6.735,2.348,10.168,3.302
	c-0.906,0.59-1.646,1.368-2.002,2.445c-0.248,0.748,3.372,0.308,3.691-0.653c0.154-0.475,0.398-0.84,0.682-1.148
	c12.034,3.091,24.549,4.369,37.106,3.882c0,1.422,0.012,2.844,0.056,4.264c-1.751,0.065-3.501,0.113-5.248,0.113
	c-7.921,0-15.798-0.692-23.534-2.075c0.074-0.087,0.161-0.161,0.225-0.26c0.104-0.168,0.256-0.317,0.392-0.46
	c-0.077,0.084-0.044,0.063,0.079-0.04c0.019-0.009,0.031-0.016,0.062-0.031c0.024-0.007,0.028-0.007,0.072-0.021
	c0.027-0.004,0.054-0.006,0.094-0.011c0.261-0.025,0.55,0.024,0.893,0.083c0.877,0.146,2.04-0.316,2.438-1.146
	c0.412-0.871-0.372-1.449-1.145-1.578c-2.646-0.444-5.018,0.505-6.46,2.771c-0.005,0.006-0.005,0.012-0.008,0.018
	c-4.879-1.005-9.694-2.277-14.42-3.844c-0.06-0.126-0.282-0.179-0.544-0.189c-1.354-0.456-2.709-0.909-4.048-1.411
	c-2.387-0.834-4.816-1.696-7.25-2.557c-2.568-0.911-5.148-1.821-7.737-2.727c0.002-0.018,0.013-0.034,0.011-0.055
	C129.122,21.874,126.644,20.278,124.445,18.655z M177.086,36.142c4.463,2.152,9.44,2.746,14.096,0.837
	c2.391-0.98,0.243-2.684-1.584-1.933c-3.108,1.272-6.666,0.489-9.591-0.92C178.701,33.496,175.344,35.302,177.086,36.142z
	 M93.579,10.76c0-0.272,0.144-0.519,0.37-0.729c-2.454-0.509-4.931-0.947-7.414-1.339c-0.276,1.401-0.691,2.77-1.111,4.153
	c2.715,0.419,5.415,0.899,8.103,1.464C93.627,13.146,93.586,11.944,93.579,10.76z M249.452,38.429
	c0.563,0.022,1.122,0.062,1.685,0.098C250.623,38.269,250.019,38.221,249.452,38.429z M167.476,52.622
	c-0.77,0.375-1.765,0.641-2.618,0.463c-1.881-0.392-3.808-0.357-5.721-0.445c8.031,1.928,16.253,3.104,24.556,3.497
	c-0.618-0.919-0.905-1.985-0.924-3.121c-0.006-0.474,0.398-0.866,0.94-1.144c-1.366-0.066-2.731-0.16-4.095-0.271
	c-0.052,0.146-0.139,0.297-0.276,0.443c-0.601,0.635-1.799,1.021-2.646,0.707c-1.596-0.593-3.247-0.992-4.924-1.285
	c-0.544-0.094-1.186-0.385-1.214-0.914c-4.321-0.66-8.603-1.54-12.821-2.642c-0.229,1.357-3.569,2.058-3.732,0.747
	c-0.076-0.609-0.109-1.219-0.106-1.821c-2.408-0.712-4.793-1.499-7.151-2.358c-0.356,0.812-0.53,1.711-0.454,2.64
	c0.048,0.586-0.331,1.073-0.863,1.407c3.738,1.358,7.537,2.535,11.386,3.534c0.028-0.13,0.12-0.271,0.353-0.425
	c0.709-0.467,1.789-0.805,2.646-0.709c2.703,0.303,5.432,0.109,8.109,0.667C168.78,51.772,167.768,52.479,167.476,52.622z
	 M98.801,33.51c-0.027-0.109-0.034-0.206-0.078-0.324c-0.329-0.9,0.799-1.67,1.507-1.858c0.839-0.226,1.902-0.046,2.233,0.855
	c0.292,0.797,0.323,1.566,0.164,2.284c7.812,2.044,15.507,4.532,23.12,7.149c0.322,0.014,0.542,0.081,0.586,0.2
	c1.572,0.541,3.14,1.088,4.703,1.637c0.375-1.003,0.954-1.899,1.655-2.737c-0.747-0.02-1.382-0.334-1.382-1.072
	c0-0.205,0-0.408,0-0.612c-5.057-1.771-10.148-3.502-15.288-5.119c-0.015,0.135-0.008,0.262-0.026,0.397
	c-0.127,0.955-3.837,1.668-3.698,0.623c0.101-0.762,0.091-1.473,0.028-2.159c-6.022-1.813-12.111-3.435-18.288-4.715
	c-0.771,1.339-1.523,2.671-2.542,3.858C93.94,32.397,96.378,32.925,98.801,33.51z M246.105,39.958
	c-4.274,1.916-8.618,3.602-13.017,5.063c-0.005,0.312-0.009,0.619-0.009,0.931c-0.002,1.69-3.792,2.256-3.79,0.281
	c0-0.005,0-0.009,0-0.014c-5.462,1.645-10.991,2.938-16.551,3.885c0,1.442,0,2.885,0,4.325c7.252-1.197,14.451-2.975,21.527-5.315
	c-0.122-0.08-0.14-0.214,0.073-0.43c1.553-1.568,2.963-3.27,4.518-4.84c0.569-0.575,1.744-0.79,2.51-0.87
	c0.348-0.035,1.434-0.056,0.858,0.525c-1.354,1.365-2.606,2.819-3.933,4.213c4.328-1.576,8.604-3.357,12.805-5.365
	c0.791-0.379,1.241-1.183,1.211-2.008c-0.461,0.096-0.933,0.121-1.366,0.031C249.35,40.04,247.728,40.012,246.105,39.958z
	 M134.354,44.623c0.874,0.308,1.747,0.616,2.617,0.925c1.869,0.662,3.725,1.316,5.571,1.967c-0.021-1.54,0.35-2.938,1.057-4.15
	c-1.733-0.61-3.469-1.221-5.204-1.835c-0.808-0.287-1.618-0.572-2.425-0.858C135.073,41.8,134.433,43.06,134.354,44.623z
	 M197.192,55.379c0.334-0.019,1.447,0.141,0.983,0.68c0.979-0.058,1.959-0.128,2.939-0.207c-0.125-0.784-0.063-1.631,0.154-2.461
	c0.339-1.284,4.105-1.845,3.74-0.462c-0.229,0.877-0.281,1.789-0.026,2.56c1.238-0.136,2.477-0.285,3.711-0.453
	c-0.014-1.453-0.103-2.885-0.438-4.242c-4.759,0.647-9.53,1.049-14.296,1.186c0.098,0.267,0.194,0.529,0.313,0.788
	c0.442,0.968-3.203,2.175-3.741,1.002c-0.258-0.566-0.454-1.148-0.619-1.741c-1.14-0.002-2.277-0.019-3.413-0.051
	c0.001,0.015,0.009,0.023,0.009,0.037c0.019,1.24,0.288,2.404,1.159,3.322c0.279,0.297,0.176,0.619-0.126,0.909
	c0.862,0.017,1.723,0.056,2.586,0.056c1.568,0,3.14-0.037,4.709-0.091C195.486,55.685,196.374,55.42,197.192,55.379z M68,47.349
	c1.152,0.015,2.303,0.061,3.45,0.109c-0.03-1.207-0.304-2.339-1.154-3.236c-0.158-0.168-0.188-0.345-0.134-0.52
	c0.061-0.1,0.119-0.198,0.178-0.301c0.074-0.084,0.164-0.166,0.271-0.243c-0.041-0.001-0.082-0.001-0.123-0.002
	c0.548-1,1.033-2.115,1.434-3.375c1.116-3.506,0.282-7.025-1.831-10.379c2.257,0.071,4.502,0.201,6.736,0.398
	c0.692-0.614,1.451-1.175,2.304-1.658c0.733-0.415,1.832-0.732,2.647-0.359c0.802,0.368,0.163,1.141-0.337,1.426
	c-0.489,0.274-0.927,0.595-1.347,0.932c2.791,0.319,5.568,0.71,8.326,1.194c0.988-1.167,1.686-2.554,2.444-3.886
	c-7.927-1.482-16.004-2.354-24.25-2.352c-5.168-5.265-13.058-9.84-20.625-12.888c2.469-0.539,4.983-0.44,7.429,0.146
	c1.198-0.205,2.404-0.407,3.629-0.61c0.1-1.517-0.224-2.879-0.772-4.195c-5.402,0.901-10.524,1.798-15.479,2.788
	c-7.987-2.523-14.715-2.951-16.09-0.155c-0.854,1.738-0.142,2.616,1.34,3.635C19.81,15.568,13.73,17.69,7.605,20.475
	c-1.072,0.486-1.548,1.751-1.062,2.822c0.205,0.451,0.553,0.788,0.96,1.001c-0.004-0.274-0.009-0.55-0.01-0.821
	c-0.007-1.402,3.733-2.098,3.74-1.004c0.002,0.354,0.007,0.709,0.01,1.063c2.959-1.28,5.918-2.417,8.899-3.433
	c0.232-1.135,2.664-1.8,3.476-1.134c1.552-0.479,3.116-0.928,4.688-1.354c-0.192-0.77-0.268-1.579-0.176-2.443
	c3.075,2.016,7.258,5.355,9.545,13.821c-7.251,1.542-14.16,3.348-20.99,5.806c-0.44,0.757-0.899,1.502-1.417,2.211
	c-0.476,0.647-1.441,0.901-2.189,1.033c-0.105,0.019-1.915,0.18-1.504-0.383c0.289-0.396,0.546-0.806,0.807-1.213
	c-1.403,0.563-2.81,1.157-4.218,1.789c0.541,0.122,1.063,0.479,0.665,1.089c-0.592,0.911-1.104,1.855-1.646,2.777
	c0.605,0.47,1.439,0.603,2.185,0.265c8.792-3.996,17.546-6.617,26.884-8.705c-1.094-0.836-2.268-1.603-3.182-2.482
	c-0.492-0.473,2.861-1.889,3.532-1.241c0.545,0.524,1.184,1.013,1.844,1.499c2.17,6.088,6.235,11.135,10.854,14.344
	c0.054,1.105,0.176,2.191,0.457,3.229c1.373-0.242,2.767-0.482,4.172-0.721c5.012,2.005,10.129,1.758,13.847-1.625
	C67.855,46.889,67.931,47.118,68,47.349z M193.292,74.263c-0.066-0.049-0.146-0.074-0.207-0.138
	c-1.068-1.132-1.563-2.585-1.713-4.096c-3.41,0.03-6.812-0.065-10.2-0.299c-0.699,0.625-1.472,1.193-2.336,1.685
	c-0.732,0.416-1.83,0.733-2.646,0.36c-0.802-0.369-0.163-1.142,0.339-1.426c0.468-0.266,0.892-0.569,1.295-0.891
	c-2.814-0.267-5.615-0.633-8.399-1.082c-0.968,1.191-1.659,2.592-2.435,3.924c7.608,1.336,15.354,2.006,23.141,2.006
	C191.184,74.308,192.238,74.288,193.292,74.263z M159.225,66.296c0.009,0.026,0.008,0.049,0.019,0.076
	c0.331,0.899-0.799,1.67-1.507,1.859c-0.839,0.226-1.902,0.046-2.233-0.856c-0.269-0.734-0.31-1.443-0.189-2.111
	c-3.253-0.921-6.47-1.972-9.638-3.159c-2.428-0.849-4.852-1.709-7.279-2.567c-1.619-0.574-3.243-1.148-4.868-1.723
	c-0.955,0.2-1.925,0.183-1.914-0.12c0.006-0.184,0.035-0.354,0.055-0.528c-1.518-0.533-3.038-1.062-4.563-1.585
	c-0.353,1.225-1.011,2.279-1.832,3.263c0.747,0.021,1.382,0.334,1.382,1.072c0,0.007,0,0.014,0,0.02
	c3.454,1.194,6.895,2.41,10.316,3.623c1.676,0.594,3.335,1.177,4.994,1.761c0.004-0.023,0.001-0.046,0.005-0.07
	c0.126-0.953,3.837-1.668,3.698-0.621c-0.093,0.693-0.09,1.345-0.047,1.976c5.93,2.145,12.013,3.83,18.196,5.075
	c0.771-1.326,1.515-2.65,2.493-3.842C163.934,67.39,161.57,66.876,159.225,66.296z M251.304,56.625
	c-0.6-0.372-1.364-0.444-2.046-0.118c-8.79,4.205-17.907,7.426-27.171,9.675c0.981,0.729,1.998,1.419,2.81,2.2
	c0.49,0.472-2.861,1.887-3.534,1.24c-0.927-0.893-2.124-1.681-3.245-2.535c-5.908,1.25-11.864,2.109-17.824,2.563
	c-0.729,0.854-2.671,0.897-3.246,0.208c-0.62,0.033-1.237,0.055-1.856,0.078c0.194,0.966,0.65,1.869,1.333,2.592
	c0.542,0.574-0.089,1.282-0.632,1.646c15.36-0.646,30.777-3.866,45.511-9.624c0.402-0.684,0.825-1.355,1.296-1.998
	c0.474-0.646,1.439-0.901,2.188-1.033c0.104-0.019,1.915-0.179,1.503,0.384c-0.195,0.268-0.365,0.55-0.547,0.824
	c1.179-0.507,2.351-1.029,3.518-1.568c-0.32-0.186-0.506-0.487-0.226-0.922C249.909,59.044,250.557,57.806,251.304,56.625z
	 M112.752,50.907c-3.864-1.17-7.758-2.253-11.685-3.229c-0.064,0.079-0.136,0.158-0.263,0.243c-0.711,0.466-1.79,0.804-2.646,0.708
	c-2.705-0.304-5.434-0.108-8.112-0.666c-0.86-0.18,0.151-0.886,0.443-1.028c0.771-0.375,1.764-0.641,2.618-0.464
	c1.521,0.317,3.073,0.355,4.624,0.403c-7.704-1.769-15.537-3.037-23.53-3.549c0.666,0.94,0.979,2.039,0.995,3.217
	c0.006,0.438-0.34,0.807-0.82,1.078c1.331,0.091,2.658,0.188,3.979,0.319c0.054-0.143,0.137-0.286,0.271-0.43
	c0.6-0.637,1.798-1.021,2.646-0.708c1.598,0.593,3.247,0.993,4.924,1.286c0.599,0.104,1.321,0.438,1.21,1.078
	c4.311,0.727,8.58,1.647,12.819,2.703c-0.138-1.502,3.567-2.354,3.737-0.974c0.082,0.657,0.12,1.313,0.109,1.963
	c2.417,0.651,4.821,1.345,7.218,2.065c0.313-0.771,0.457-1.616,0.386-2.487C111.624,51.776,112.111,51.235,112.752,50.907z
	 M11.185,59.577c4.533-1.968,9.07-3.586,13.689-4.968c0.008-0.334,0.011-0.668,0.011-1.002c0-1.691,3.791-2.256,3.79-0.281
	c0,0.066-0.002,0.134-0.002,0.2c5.328-1.438,10.807-2.613,16.553-3.693c0-1.445,0-2.894,0-4.338c-7.518,1.394-14.586,2.94-21.485,5
	c0.07,0.082,0.061,0.198-0.115,0.379c-1.554,1.568-2.965,3.27-4.518,4.84c-0.571,0.576-1.744,0.791-2.509,0.869
	c-0.351,0.037-1.436,0.057-0.86-0.523c1.386-1.397,2.669-2.896,4.03-4.317c-4.072,1.352-8.108,2.903-12.164,4.748
	c-1.017,0.462-1.485,1.62-1.116,2.653c0.181,0.002,0.361,0.008,0.534,0.045C8.395,59.474,9.789,59.532,11.185,59.577z
	 M122.329,58.457c0.819-1.145,1.363-2.426,1.311-4.034c0-0.008,0.005-0.017,0.005-0.025c-2.728-0.92-5.471-1.807-8.227-2.67
	c0.076,1.554-0.255,2.955-0.911,4.188C117.126,56.738,119.735,57.583,122.329,58.457z M152.969,82.577
	c-0.116-0.02-0.224-0.045-0.293-0.088c-2.355-0.726-4.691-1.512-7.001-2.377c-2.428-0.85-4.852-1.708-7.279-2.568
	c-1.827-0.647-3.659-1.295-5.495-1.941c1.107,2.386,4.051,3.703,5.911,5.494c0.195,0.188-0.225,0.525-0.834,0.822
	c2.093,0.742,4.188,1.485,6.244,2.203c0.002,0.002,0.005,0.002,0.008,0.003c0.755-0.399,1.517-0.792,2.274-1.192
	c0.732-0.389,1.813-0.711,2.634-0.409c0.819,0.304,0.035,1.016-0.389,1.239c-0.742,0.394-1.488,0.772-2.229,1.162
	c1.822,0.643,3.659,1.244,5.51,1.803c0.588-0.066,1.321-0.03,1.581,0.472c2.325,0.669,4.665,1.293,7.024,1.83
	c-0.016-1.472-0.017-2.931,0.244-4.321C158.221,84.085,155.584,83.372,152.969,82.577z M164.385,88.799
	c0.004,0.345-0.223,0.644-0.562,0.886c2.512,0.506,5.037,0.949,7.58,1.309c0.266-1.401,0.677-2.768,1.098-4.146
	c-2.708-0.37-5.405-0.819-8.081-1.362C164.344,86.574,164.38,87.692,164.385,88.799z M132.076,79.834
	c-9.901-3.488-19.946-6.896-30.18-9.534c1.009-0.603,1.843-1.414,2.227-2.577c0.249-0.749-3.372-0.308-3.688,0.653
	c-0.188,0.57-0.484,1.012-0.853,1.345c-12.016-2.948-24.298-4.765-36.938-4.303c-0.003-1.423-0.018-2.844-0.066-4.263
	c9.778-0.354,19.304,0.605,28.632,2.371c-0.018,0.027-0.045,0.047-0.063,0.075c-0.105,0.166-0.256,0.314-0.394,0.459
	c0.08-0.084,0.045-0.063-0.076,0.039c-0.019,0.008-0.031,0.017-0.063,0.031c-0.025,0.007-0.029,0.008-0.071,0.021
	c-0.029,0.003-0.055,0.005-0.094,0.01c-0.261,0.025-0.55-0.024-0.894-0.082c-0.877-0.147-2.04,0.316-2.437,1.146
	c-0.414,0.871,0.371,1.449,1.144,1.578c2.575,0.434,4.887-0.467,6.339-2.607c4.894,1.031,9.735,2.265,14.532,3.645
	c0.051,0.167,0.374,0.21,0.708,0.21c6.49,1.887,12.898,4.016,19.245,6.219c-0.23,0.156-0.377,0.333-0.369,0.525
	C128.815,77.056,130.357,78.524,132.076,79.834z M80.879,63.417c-4.461-2.152-9.439-2.747-14.093-0.837
	c-2.393,0.981-0.246,2.684,1.583,1.933c3.108-1.273,6.666-0.49,9.589,0.92C79.264,66.062,82.621,64.257,80.879,63.417z
	 M250.456,74.327c0,0.586,0.012,1.173,0.016,1.756c0.007,1.401-3.732,2.097-3.739,1.004c-0.003-0.467-0.009-0.932-0.014-1.396
	c-2.93,1.33-5.895,2.55-8.887,3.664c-0.104,1.188-2.617,1.908-3.468,1.244c-1.546,0.531-3.101,1.038-4.662,1.514
	c0.188,0.814,0.242,1.677,0.096,2.603c-0.185,1.19-3.941,1.871-3.728,0.508c0.113-0.721,0.082-1.399-0.051-2.049
	c-1.195,0.328-2.396,0.639-3.595,0.934c0.005,1.455,0.028,2.908,0.098,4.359c9.745-2.324,19.339-5.688,28.576-10.104
	c1.062-0.509,1.511-1.781,1.004-2.845C251.779,74.844,251.146,74.419,250.456,74.327z M215.538,85.613
	c-0.048,0.326-0.354,0.67-1.043,0.952c-3.196,1.313-6.542,1.421-9.771,0.679c-1.266,0.138-2.531,0.264-3.798,0.365
	c-0.139,1.53,0.162,2.901,0.694,4.223c5.732-0.479,11.457-1.328,17.142-2.521c-0.074-1.44-0.11-2.884-0.119-4.329
	C217.61,85.204,216.574,85.413,215.538,85.613z M197.934,87.815c-3.755,0.222-7.508,0.28-11.248,0.183
	c-0.287,0.041-0.567,0.061-0.824,0.021c-0.082-0.012-0.149-0.042-0.229-0.057c-3.254-0.112-6.494-0.345-9.722-0.697
	c-0.427,1.366-0.8,2.743-0.954,4.167c3.071,0.349,6.153,0.619,9.251,0.754c0.197-0.083,0.393-0.168,0.594-0.239
	c0.604-0.216,1.795-0.617,2.407-0.218c0.231,0.15,0.112,0.343-0.112,0.521c1.011,0.021,2.021,0.064,3.033,0.064
	c2.491,0,4.987-0.071,7.484-0.209c-0.364-1.11-0.545-2.271-0.424-3.54C197.219,88.259,197.519,88.009,197.934,87.815z
	 M56.632,61.521c-0.052,0.005-0.105,0.012-0.157,0.021c-9.852,1.641-18.806,3.244-27.405,5.477
	c-0.638,2.357-2.318,4.245-4.658,5.488c-0.716,0.38-1.985,0.462-2.533-0.26c-0.585-0.766,0.264-1.555,0.896-1.892
	c0.971-0.517,1.727-1.299,2.215-2.225c-2.841,0.819-5.65,1.725-8.452,2.736c-0.021,0.036-0.038,0.075-0.061,0.112
	c-0.479,0.769-1.607,1.102-2.461,1.058c-0.127-0.009-0.267-0.033-0.399-0.071c-2.002,0.782-4.004,1.621-6.009,2.532
	c-0.348,0.157-0.621,0.399-0.831,0.686c0.233-0.037,0.478-0.043,0.724-0.014c0.692,0.085,1.658,0.768,1.145,1.578
	c-0.374,0.588-0.813,1.081-1.297,1.489C7.934,78.61,8.69,78.69,9.37,78.38c9.079-4.126,18.115-6.785,27.795-8.907
	c0.266-0.705,0.419-1.47,0.392-2.334c-0.036-1.14,3.715-1.769,3.74-1.003c0.03,0.939-0.123,1.774-0.394,2.547
	c3.433-0.696,6.963-1.342,10.604-1.973c-0.127-0.721-0.149-1.476-0.021-2.279c0.186-1.19,3.942-1.871,3.728-0.508
	c-0.118,0.757-0.082,1.469,0.067,2.145c0.604-0.104,1.207-0.204,1.819-0.307c0.589-0.054,1.173-0.071,1.759-0.113
	c0-1.426-0.017-2.848-0.068-4.27C58.068,61.429,57.354,61.454,56.632,61.521z" class="color c1"/>
</svg>