<svg version="1.1" id="图层_1" x="0px" y="0px" width="73.004px" height="73.004px" viewBox="0 0 73.004 73.004" enable-background="new 0 0 73.004 73.004" xml:space="preserve" xmlns="http://www.w3.org/2000/svg" xmlns:xlink="http://www.w3.org/1999/xlink" xmlns:xml="http://www.w3.org/XML/1998/namespace">
  <path fill="#7B8695" d="M36.502,0C16.375,0,0,16.375,0,36.502s16.375,36.502,36.502,36.502s36.502-16.375,36.502-36.502
	S56.629,0,36.502,0z M36.502,69.213c-18.037,0-32.711-14.674-32.711-32.711S18.465,3.789,36.502,3.789s32.712,14.676,32.712,32.713
	S54.539,69.213,36.502,69.213z" class="color c1"/>
  <path fill="#E88E54" d="M36.502,8.277c-15.725,0-28.474,12.748-28.474,28.475c0,15.725,12.749,28.473,28.474,28.473
	s28.474-12.748,28.474-28.473C64.976,21.025,52.227,8.277,36.502,8.277z M36.502,48.223c-6.336,0-11.471-5.137-11.471-11.471
	c0-6.336,5.135-11.471,11.471-11.471c6.334,0,11.471,5.135,11.471,11.471C47.973,43.086,42.836,48.223,36.502,48.223z" class="color c2"/>
</svg>