<svg version="1.1" id="图层_1" x="0px" y="0px" width="126.666px" height="137.551px" viewBox="0 0 126.666 137.551" enable-background="new 0 0 126.666 137.551" xml:space="preserve" xmlns="http://www.w3.org/2000/svg" xmlns:xlink="http://www.w3.org/1999/xlink" xmlns:xml="http://www.w3.org/XML/1998/namespace">
  <path fill="#5B432F" d="M113.354,40.035c-16.424-2.02-30.932-2.137-43.583-1.135c-0.65-1.49-1.559-2.828-2.693-3.963L92.395,2.961
	c0.165,0.061,0.34,0.107,0.522,0.107c0.846,0,1.541-0.699,1.541-1.541C94.458,0.668,93.763,0,92.917,0
	c-0.843,0-1.541,0.672-1.541,1.527c0,0.457,0.217,0.859,0.537,1.145L65.004,33.229c-2.032-1.33-4.449-2.121-7.063-2.121
	c-2.297,0-4.426,0.646-6.293,1.695L36.363,17.039c0.258-0.268,0.42-0.635,0.42-1.041c0-0.816-0.64-1.469-1.455-1.469
	s-1.469,0.652-1.469,1.469c0,0.814,0.653,1.48,1.469,1.48c0.199,0,0.385-0.041,0.558-0.113l13.294,17.209
	c-2.211,2.049-3.662,4.852-4.02,8.006C18.876,48.531,5.775,58.563,5.775,58.563c-10.427,30.279-4.757,45.42,1.558,62.129
	c25.554,22.715,83.887,17.654,105.027,12.301C140.404,86.311,119.664,56.73,113.354,40.035z" class="color c1"/>
  <path fill="#F4C18A" d="M12.093,64.379c-9.453,26.906-2.837,38.701,0,51.295c24.929,17.977,67.467,16.1,80.73,12.928
	c25.853-37.195,9.16-66.547,5.67-75.986C55.286,41.24,12.093,64.379,12.093,64.379z" class="color c2"/>
  <path fill="#FEC689" d="M104.973,102.883c3.128-12.199,2.219-22.891,0.181-31.441c-15.014,16.359-40.25,39.449-73.385,53.797
	c10.476,3.336,21.736,4.85,31.9,5.287C77.092,123.475,91.315,114.422,104.973,102.883z" class="color c3"/>
  <path fill="#EFB576" d="M67.359,49.633c7.632-0.393,15.638-0.063,23.731,1.371C58.117,82.807,24.663,84.949,24.663,84.949
	C44.76,72.762,58.285,60.684,67.359,49.633z M105.413,100.923c-13.658,11.538-29.65,22.48-43.073,29.531
	c4.281,0.438,9.282,0.249,12.875,0.128c3.551-2.412,6.986-5.082,10.204-8.037c0,0-1.337,3.172-4.961,7.762
	c5.189-0.377,9.474-1.008,12.366-1.697C99.152,119.504,103.538,110.631,105.413,100.923z M85.442,64.869
	c0,0,7.29-2.164,15.053-7.359c-0.8-1.932-1.499-3.545-1.97-4.809C94.671,56.951,90.241,61.262,85.442,64.869z" class="color c4"/>
</svg>