<svg version="1.1" id="图层_1" x="0px" y="0px" width="200px" height="181.236px" viewBox="0 0 200 181.236" enable-background="new 0 0 200 181.236" xml:space="preserve" xmlns="http://www.w3.org/2000/svg" xmlns:xlink="http://www.w3.org/1999/xlink" xmlns:xml="http://www.w3.org/XML/1998/namespace">
  <circle fill="#E83A48" cx="182.313" cy="14.244" r="14.244" class="color c1"/>
  <path fill="#E83A48" d="M115.682,111.747c0-18.349-10.545-34.226-25.898-41.929c3.772-4.646,6.036-10.566,6.036-17.018
	c0-14.927-12.102-27.028-27.028-27.028c-14.928,0-27.029,12.102-27.029,27.028c0,6.451,2.264,12.371,6.036,17.018
	C32.444,77.522,21.9,93.399,21.9,111.747c0,25.896,20.994,46.89,46.891,46.89S115.682,137.644,115.682,111.747z" class="color c1"/>
  <path fill="#E83A48" d="M165.813,70.086c-0.277-5.163-4.537-9.268-9.769-9.268c-5.41,0-9.796,4.387-9.796,9.794
	c0,1.255,0.244,2.449,0.674,3.552c-4.923,3.957-8.076,10.022-8.076,16.831c0,11.921,9.664,21.585,21.586,21.585
	c11.92,0,21.584-9.664,21.584-21.585C182.016,80.932,175.129,72.476,165.813,70.086z" class="color c1"/>
  <circle fill="#E83A48" cx="11.918" cy="71.828" r="11.918" class="color c1"/>
  <circle fill="#E83A48" cx="105.986" cy="169.318" r="11.919" class="color c1"/>
  <circle fill="#E83A48" cx="114.541" cy="23.939" r="11.918" class="color c1"/>
  <circle fill="#E83A48" cx="188.083" cy="128.269" r="11.917" class="color c1"/>
  <circle fill="#E83A48" cx="22.276" cy="160.957" r="11.918" class="color c1"/>
  <circle fill="#E83A48" cx="121.382" cy="64.989" r="11.918" class="color c1"/>
  <path fill="#E83A48" d="M142.759,121.465c-12.26,0-22.198,9.938-22.198,22.2c0,9.133,5.521,16.978,13.404,20.384
	c-0.088,0.532-0.146,1.075-0.146,1.633c0,5.409,4.388,9.796,9.799,9.796c5.41,0,9.796-4.387,9.796-9.796
	c0-0.823-0.11-1.618-0.304-2.382c7.043-3.721,11.848-11.115,11.848-19.635C164.956,131.403,155.018,121.465,142.759,121.465z" class="color c1"/>
</svg>