<svg version="1.1" id="图层_1" x="0px" y="0px" width="180px" height="195.021px" viewBox="0 0 180 195.021" enable-background="new 0 0 180 195.021" xml:space="preserve" xmlns="http://www.w3.org/2000/svg" xmlns:xlink="http://www.w3.org/1999/xlink" xmlns:xml="http://www.w3.org/XML/1998/namespace">
  <path fill="#2CA6E0" d="M139.667,10h-16c-2.761,0-5-2.239-5-5s2.239-5,5-5h16c2.761,0,5,2.239,5,5S142.428,10,139.667,10z
	 M180,113.457V50.745c0-19.698-16.025-35.724-35.724-35.724H81.053c-2.761,0-5,2.239-5,5s2.239,5,5,5h63.224
	c14.184,0,25.724,11.54,25.724,25.724v62.712c0,2.761,2.239,5,5,5S180,116.218,180,113.457z M103.947,190.021c0-2.761-2.239-5-5-5
	H35.724C21.54,185.021,10,173.482,10,159.298V96.586c0-2.761-2.239-5-5-5s-5,2.239-5,5v62.712c0,19.698,16.025,35.724,35.724,35.724
	h63.224C101.708,195.021,103.947,192.783,103.947,190.021z" class="color c1"/>
</svg>