<svg version="1.1" id="图层_1" x="0px" y="0px" width="179.985px" height="155.75px" viewBox="0 0 179.985 155.75" enable-background="new 0 0 179.985 155.75" xml:space="preserve" xmlns="http://www.w3.org/2000/svg" xmlns:xlink="http://www.w3.org/1999/xlink" xmlns:xml="http://www.w3.org/XML/1998/namespace">
  <path fill="#FF1C20" d="M128.855,5.713l-15.012,15.182l4.791-16.711c-15.427-2.36-30.747-4.708-45.307-4.08l-3.998,15.618
	L65.902,0.708C49.374,2.72,34.018,9.418,20.851,25.401l11.66,10.494L14.626,33.92c-0.16,0.245-0.322,0.477-0.48,0.725
	C7.597,44.86,3.166,56.748,1.18,69.562h14.664L0.337,76.721c-1.27,15.575,1.014,32.267,7.428,48.86l13.079-5.688l-10.492,11.91
	c2.944,6.531,6.542,13.023,10.834,19.398c9.026,10.666,24.797,1.504,25.032-16.428c-8.605-9.387-14.08-25.814-14.863-37.549
	c-0.002-0.026-0.003-0.039-0.004-0.061c0.002,0.033,0.004,0.061,0.004,0.061c0-37.549,35.203-65.711,71.97-56.323
	c3.91,0.781,17.991,6.258,21.902,9.388l54.758-43.809C163.62,9.892,146.263,8.214,128.855,5.713z" class="color c1"/>
</svg>