<svg version="1.1" id="图层_1" x="0px" y="0px" width="65.746px" height="75.598px" viewBox="0 0 65.746 75.598" enable-background="new 0 0 65.746 75.598" xml:space="preserve" xmlns="http://www.w3.org/2000/svg" xmlns:xlink="http://www.w3.org/1999/xlink" xmlns:xml="http://www.w3.org/XML/1998/namespace">
  <path fill="#FFFFFF" d="M42.732,36.157v-3.3h3.3v-3.271h3.274v-3.299h3.297v-3.283h3.272v-3.289h3.298v-3.281h3.281v-3.291h3.29
	V9.861h-3.29v-3.29h-3.281V3.29h-3.298h-3.272V0h-3.297h-3.274h-3.3h-3.273h-3.298H32.87h-3.28h-3.292v3.29h-3.281h-3.29v3.28
	h-3.281h-3.3v3.29H9.873v3.281H6.575v3.291v3.281H3.301v3.289v3.283v3.299H0.003v3.271v3.3v3.281H0v3.299v3.272h3.297v3.298v3.281
	v3.291h3.272v3.282v3.29h3.299v3.282h3.273v3.29h3.299h3.283v3.281h3.289h3.282v3.29h3.29h3.281h3.289h3.301h3.273h3.299H49.3h3.3
	v-3.29h3.271h3.301v-3.281h3.281v-3.29h3.29v-3.282h-3.29v-3.29h-3.281v-3.282h-3.301V52.59H52.6v-3.281h-3.3v-3.298h-3.271V42.74
	H42.73v-3.3h-3.271v-3.281L42.732,36.157L42.732,36.157z M32.87,16.434v3.281v3.289h-3.28h-3.292h-3.281v-3.289v-3.281v-3.291h3.281
	h3.292h3.28V16.434z M26.301,16.434h3.29v3.281h-3.29V16.434z" class="color c1"/>
</svg>