<svg version="1.1" id="图层_1" x="0px" y="0px" width="125.307px" height="187.749px" viewBox="0 0 125.307 187.749" enable-background="new 0 0 125.307 187.749" xml:space="preserve" xmlns="http://www.w3.org/2000/svg" xmlns:xlink="http://www.w3.org/1999/xlink" xmlns:xml="http://www.w3.org/XML/1998/namespace">
  <path fill="#252525" d="M91.072,48.446c3.233,26.136,20.478,20.747,18.592,3.503c8.314,3.494,10.548,13.121,8.622,26.944
	c-1.439,15.85-1.765,31.194,4.85,43.381h-7.006c-6.201-7.484-7.828-25.057-9.969-41.495c-4.16,1.823-8.055,5.443-11.856,9.7
	c-8.504-0.666-12.899-5.843-17.514-10.778c2.916-4.973,3.501-11.099,3.503-17.514c-16.218,5.11-33.804,21.64-51.464,38.8
	l-4.311-3.233C50.4,60.993,72.81,43.319,91.072,48.446z M45.536,105.568c-9.206,10.479-0.69,18.83,7.545,27.214l-30.986,31.525
	C10.439,167.501,2.047,174.21,0,187.749c11.887-0.259,22.399-5.996,31.256-18.322c22.228,6.281,41.841,3.901,59.174-6.031
	c14.243-8.162,18.06-27.04,7.963-39.984c-5.674-7.274-11.347-9.916-17.021-12.724c-0.207-2.436,2.68-7.21,6.467-12.664
	c-6.198-2.651-11.397-6.735-16.436-11.047C65.475,94.79,52.542,96.946,45.536,105.568z M124.375,20.193
	c-0.641-2.279-1.917-4.352-3.738-5.865c-13.411-11.151-43.42,14.566-67.018,9.598c21.556-5.389,39.878-18.861,62.511-15.897
	C101.922-3.709,85.369-0.92,68.17,5.873c3.181,0.864,5.849,1.881,7.117,3.313c1.358,1.533,0.19,3.962-1.858,3.962H50.656
	c-10.508,0-14.819,8.083-8.353,16.167C16.441,34.414,0,46.29,9.7,64.073c10.47,13.279,32.798,6.229,37.627-4.637
	c0.601-1.351,0.743-2.881,0.26-4.279c-1.902-5.513-10.523-3.089-13.637,2.18c7.275-0.809,7.006,5.658,0.539,7.545
	c-6.719,1.754-9.748-1.466-10.223-5.164c-0.313-2.438,0.572-4.888,2.299-6.636c22.476-22.757,50.203-12.813,68.975-8.845
	c2.133-2.836,4.434-5.939,4.155-5.76c-2.964,0-9.362-6.3-8.892-7.006c4.304-12.48,14.819-18.053,21.286-11.856
	c-1.958,3.004-2.133,6.409-1.617,9.969c8.083-2.425,9.275,1.621-1.347,8.892c-0.973,2.536-1.776,4.962-2.091,7.07
	c0.252-0.017,0.5-0.038,0.743-0.065C117.778,39.868,128.578,35.149,124.375,20.193z" class="color c1"/>
</svg>