<svg version="1.1" id="图层_1" x="0px" y="0px" width="112.386px" height="131.543px" viewBox="0 0 112.386 131.543" enable-background="new 0 0 112.386 131.543" xml:space="preserve" xmlns="http://www.w3.org/2000/svg" xmlns:xlink="http://www.w3.org/1999/xlink" xmlns:xml="http://www.w3.org/XML/1998/namespace">
  <path fill="#FFFFFF" d="M63.454,80.721l-0.717,0.037l0.213-0.684c1.95-6.313,5.384-11.482,10.205-15.363
	c4.025-3.242,5.83-6.408,5.359-9.41c-0.894-5.709-9.553-9.102-9.92-9.244l-0.148-0.088c-0.484-0.416-1.06-0.821-1.711-1.204
	c-4.988-2.927-7.584-6.354-7.712-10.184c-0.237-7.083,8.003-12.935,8.712-13.425c17.05-17.037,35.791-20.52,44.65-21.154
	c-21.771-0.188-46.387,16.108-51.07,19.36l-0.849,0.589l0.063-1.03c0.135-2.165,2.357-5.053,5.061-6.574
	c1.303-0.732,4.181-3.288,4.244-6.119l0.012-0.458l5.674-0.363c0.096-0.145,0.434-0.833-0.4-2.939
	c-0.369-0.932-0.909-1.385-1.65-1.385c-1.373,0-3.102,1.419-4.01,2.266l-0.387,0.359l-0.338-0.404
	c-0.816-0.975-2.081-1.871-3.759-2.661c-0.632-0.297-1.292-0.448-1.962-0.448c-4.422,0-8.345,6.247-9.03,7.783
	c0.33,0.168,0.842,0.456,1.673,0.927c1.081,0.612,2.426,1.374,3.438,1.866c0.371,0.18,0.581,0.485,0.592,0.86
	c0.055,1.817-5.833,5.299-5.892,5.333l-0.196,0.11l-3.103-1.073c-0.246-0.1-22.225-8.985-37.833-8.985
	C6.742,7.013,2.504,8.28,0,10.787C1.938,9.292,4.986,7.93,10.315,7.93c8.448,0,21.053,3.424,37.465,10.176l0.894,0.368l-0.816,0.517
	c-0.681,0.431-1.389,0.747-2.013,1.025c-1.257,0.56-1.797,0.853-1.699,1.305c3.141,14.411,9,25.092,13.361,31.514l0.326,0.48
	l-0.523,0.252c-19.711,9.473-42.237,22.689-40.853,28.768c0.403,1.771,3.264,3.881,14.603,3.881c6.087,0,14.114-0.611,23.857-1.818
	l0.557-0.068l0.004,0.561c0.135,17.434,7.652,35.242,13.615,46.654c-4.452-11.354-10.535-31.117-7.093-47.75l0.071-0.344L62.42,83.4
	c5.396-0.762,11.282-1.682,17.494-2.732c0.259-0.045,0.521-0.082,0.788-0.113C76.442,80.268,71,80.318,63.454,80.721z M55.089,80.74
	c-27.456,1.879-51.724,4.602,3.958-16.645C56.657,69.414,55.443,75.041,55.089,80.74z" class="color c1"/>
</svg>