<svg version="1.1" id="图层_1" x="0px" y="0px" width="120px" height="74.457px" viewBox="0 0 120 74.457" enable-background="new 0 0 120 74.457" xml:space="preserve" xmlns="http://www.w3.org/2000/svg" xmlns:xlink="http://www.w3.org/1999/xlink" xmlns:xml="http://www.w3.org/XML/1998/namespace">
  <g>
    <path fill="#212121" d="M103.162,11.361C82.38-9.421,73.773,4.013,68.943,7.372c-4.828,3.36-8.944,2.939-8.944,2.939
		s-4.115,0.421-8.943-2.939c-4.828-3.358-13.435-16.793-34.218,3.989C-3.945,32.144-4.994,77.066,10.961,74.338
		c15.954-2.729,33.213-23.092,49.038-21.832c15.827-1.26,33.086,19.104,49.042,21.832C124.994,77.066,123.943,32.144,103.162,11.361
		z" class="color c1"/>
  </g>
  <circle fill="#FFFFFF" cx="33.623" cy="31.957" r="18.707" class="color c2"/>
  <circle fill="#FFFFFF" cx="88.025" cy="31.957" r="18.707" class="color c2"/>
  <g>
    <g>
      <g>
        <g>
          <path fill="#C61D24" d="M88.025,18.667c-2.068,0-3.748,1.678-3.749,3.748l0,0v0.001c0,2.069,1.681,3.747,3.749,3.747
					c2.07,0,3.749-1.678,3.749-3.747v-0.001l0,0C91.774,20.344,90.096,18.667,88.025,18.667z" class="color c3"/>
          <path fill="#C61D24" d="M88.025,37.754c-2.068,0-3.749,1.678-3.749,3.748c0,0.016,0.003,0.029,0.003,0.043h-0.003v0.002
					c0,2.07,1.681,3.748,3.749,3.748c2.07,0,3.749-1.678,3.749-3.748v-0.002h-0.002c0.001-0.014,0.002-0.027,0.002-0.043
					C91.774,39.432,90.096,37.754,88.025,37.754z" class="color c3"/>
          <path fill="#C61D24" d="M101.319,31.959L101.319,31.959L101.319,31.959c-0.001-2.07-1.681-3.75-3.751-3.75
					c-2.068,0-3.75,1.68-3.75,3.749v0.001l0,0v0.002c0,0.922,0.335,1.765,0.889,2.417c0.688,0.813,1.713,1.332,2.861,1.332
					c1.107,0,2.102-0.484,2.786-1.248c0.599-0.665,0.965-1.54,0.965-2.501V31.959z" class="color c3"/>
          <path fill="#C61D24" d="M82.229,31.958c0-2.069-1.679-3.749-3.747-3.749c-2.07,0-3.75,1.68-3.75,3.749v0.001l0,0v0.002
					c0,1.129,0.502,2.138,1.293,2.826c0.657,0.572,1.516,0.924,2.457,0.924c1.105,0,2.098-0.484,2.785-1.248
					c0.598-0.665,0.964-1.539,0.964-2.501V31.96L82.229,31.958L82.229,31.958z" class="color c3"/>
        </g>
      </g>
      <g>
        <path fill="#C61D24" d="M43.657,28.794h-6.772v-6.771c0-1.799-1.458-3.26-3.26-3.26c-0.001,0-0.001,0-0.001,0l0,0
				c-1.799,0-3.261,1.461-3.261,3.26v6.771h-6.769c-1.802,0-3.263,1.461-3.263,3.263c0,1.802,1.461,3.259,3.263,3.259h6.769v6.771
				c0,1.799,1.462,3.261,3.261,3.263l0,0c0,0,0,0,0.001,0c1.802,0,3.26-1.464,3.26-3.263v-6.771h6.772
				c1.8,0,3.259-1.458,3.259-3.259C46.916,30.256,45.457,28.794,43.657,28.794z" class="color c3"/>
      </g>
    </g>
  </g>
</svg>