<svg version="1.1" id="图层_1" x="0px" y="0px" width="41.085px" height="39.573px" viewBox="0 0 41.085 39.573" enable-background="new 0 0 41.085 39.573" xml:space="preserve" xmlns="http://www.w3.org/2000/svg" xmlns:xlink="http://www.w3.org/1999/xlink" xmlns:xml="http://www.w3.org/XML/1998/namespace">
  <g>
    <path d="M26.277,26.62H11.298l-2.625,6.105c-0.647,1.483-0.97,2.605-0.97,3.366c0,0.305,0.052,0.585,0.157,0.842
		c0.104,0.257,0.318,0.495,0.642,0.714c0.323,0.219,0.779,0.398,1.369,0.541c0.589,0.143,1.36,0.253,2.311,0.328v1.057H0v-1.057
		c1.598-0.285,2.644-0.656,3.138-1.112s1.003-1.146,1.526-2.068s1.089-2.087,1.698-3.495L19.972,0h0.999l13.467,32.183
		c0.551,1.332,1.06,2.402,1.526,3.211c0.466,0.809,0.946,1.436,1.441,1.883c0.494,0.447,1.032,0.756,1.612,0.927
		s1.27,0.276,2.069,0.313v1.057H25.821v-1.057c0.76-0.037,1.398-0.123,1.912-0.256c0.513-0.133,0.917-0.305,1.212-0.514
		c0.294-0.209,0.504-0.447,0.627-0.713c0.124-0.267,0.186-0.562,0.186-0.885c0.019-0.418-0.071-0.956-0.271-1.612
		s-0.49-1.44-0.87-2.354L26.277,26.62z M25.478,24.509L18.916,8.873l-6.733,15.636H25.478z"/>
  </g>
</svg>