<svg version="1.1" id="图层_1" x="0px" y="0px" width="165.753px" height="160.851px" viewBox="0 0 165.753 160.851" enable-background="new 0 0 165.753 160.851" xml:space="preserve" xmlns="http://www.w3.org/2000/svg" xmlns:xlink="http://www.w3.org/1999/xlink" xmlns:xml="http://www.w3.org/XML/1998/namespace">
  <path fill-rule="evenodd" clip-rule="evenodd" fill="#020202" d="M116.778,118.701c16.954,2.527,32.961,7.904,48.975,15.914
	c-11.561-1.389-22.188-0.918-31.964,4.055c-6.185,3.147-11.912,7.219-17.746,11.026c-20.523,13.399-41.688,15.027-63.408,3.254
	c-5.948-3.225-11.498-7.197-17.133-10.97c-9.102-6.094-19.218-8.198-29.98-7.996c-0.974,0.019-3.024,0.358-5.521,0.651
	c12.714-7.608,29.327-12.542,43.571-15.679c-0.004-0.327-0.01-0.656-0.014-0.985c-1.671-0.285-3.333-0.728-5.015-0.829
	c-11.264-0.689-17.344-8.118-22.301-17.031c-0.275-0.495-0.439-1.069-0.776-1.514c-1.922-2.543-1.254-4.503,0.811-6.777
	c7.114-7.843,12.964-16.558,16.571-26.59c3.4-9.455,4.575-19.291,4.488-29.311c-0.012-1.302-0.007-2.812,0.598-3.879
	C43.17,22.822,49.325,14.362,58.46,8.536c6.268-3.997,13.127-6.594,20.314-8.342c1.073-0.261,2.304-0.25,3.384-0.017
	c18.691,4.066,31.948,15.192,40.938,31.758c0.509,0.938,0.653,2.196,0.616,3.293c-0.744,22.481,6.937,41.72,22.186,58.102
	c0.623,0.672,1.174,2.129,0.869,2.844c-3.128,7.331-7.357,13.938-14.435,18.019c-2.54,1.466-5.631,2.078-8.542,2.766
	c-2.261,0.535-4.637,0.592-6.963,0.858C116.809,118.112,116.793,118.406,116.778,118.701z" class="color c1"/>
  <g>
    <path fill="#F81F23" d="M86.459,96.689l20.642-10.32C107.101,86.369,103.298,112.987,86.459,96.689z" class="color c2"/>
    <path fill="#F81F23" d="M73.964,96.689l-20.642-10.32C53.322,86.369,57.124,112.987,73.964,96.689z" class="color c2"/>
  </g>
  <path fill-rule="evenodd" clip-rule="evenodd" fill="#15253A" d="M101.125,123.719c11.759-8.791,15.899-16.409,22.906-28.221
	c1.461-2.471,2.438-5.919-0.1-8.719c-8.934-9.852-16.175-20.563-21.671-32.137c-2.226-4.686-3.988-9.538-5.959-14.317
	c0.242-0.079,0.485-0.156,0.726-0.236c3.623,6.578,16.933,17.782,20.366,24.012c-0.134-5.516-2.497-19.732-2.715-25.404
	c0,0-15.49-22.285-31.807-27.574c-22.264,3.872-34.718,23.253-34.718,23.253s2.054,12.513,0.067,21.374
	c-3.273,12.121-7.924,23.765-16.875,33.746c-1.247,1.39-1.28,2.347-0.405,3.826c5.911,9.981,12.879,19.35,21.167,27.975
	L38.625,93.52c0,0,17.616-29.595,41.929-31.648c0,0,24.681,1.613,38.621,29.576C119.175,91.448,109.555,117.813,101.125,123.719z" class="color c3"/>
  <g>
    <g>
      <path fill-rule="evenodd" clip-rule="evenodd" fill="#15253A" d="M55.501,148.383c5.196,3.188,10.828,5.229,16.888,5.806
			c1.485,0.139,3.106-0.65,4.601-1.188c0,0,20.302-14.1,31.167-27.574c-2.255,1.401-3.885,2.496-5.588,3.459
			c-5.889,3.333-12.363,4.393-18.995,4.731c-11.121,0.57-21.693-0.844-30.7-8.276c-2.964-2.446-6.932-2.025-9.836,0.612
			c-0.73,0.664-1.542,1.242-2.535,2.035c-0.041-4.137-0.488-4.425-3.928-3.245c-2.938,1.012-5.916,1.902-8.858,2.897
			c-1.851,0.624-3.672,1.342-5.942,2.181c6.553,2.742,11.796,5.15,18.151,7.811l-2.606-4.296l11.86,3.043l-1.527-3.767l26.32,7.897
			l-19.456-2.084l2.416,5.837l-15.326-5.3C41.606,138.962,50.795,145.872,55.501,148.383z" class="color c3"/>
    </g>
    <path fill-rule="evenodd" clip-rule="evenodd" fill="#F81F23" d="M97.823,150.798l15.569-11.836l-6.944,0.631l17.047-12.796
		c0,0,12.293,1.286,18.592,2.99l-20.411,7.75h6.59C128.266,137.538,105.854,148.826,97.823,150.798z" class="color c2"/>
  </g>
</svg>