<svg version="1.1" id="图层_1" x="0px" y="0px" width="270.131px" height="237.396px" viewBox="0 0 270.131 237.396" enable-background="new 0 0 270.131 237.396" xml:space="preserve" xmlns="http://www.w3.org/2000/svg" xmlns:xlink="http://www.w3.org/1999/xlink" xmlns:xml="http://www.w3.org/XML/1998/namespace">
  <path fill-rule="evenodd" clip-rule="evenodd" fill="#B1B2B2" d="M19.317,152.426c-0.512,0.045-0.943,0.021-1.412-0.226
	c-0.485-0.251-0.979-0.182-1.193,0.442c-0.064,0.186-0.187,0.297-0.336,0.42c-1.48,1.222-2.041,1.038-2.893-0.98
	c-0.282-0.668-0.159-1.396-0.262-2.061c-0.113-0.721-0.004-1.193,0.366-1.749c0.208-0.31,0.611-0.305,0.765-0.632l0.035-0.004
	c0.502-0.384-0.09-0.98,0.272-1.39c0.158-0.227,0.387-0.313,0.649-0.328c0.382-0.142,0.805,0.375,1.166-0.067
	c0.671-0.5,0.451-1.114,0.17-1.69c-0.123-0.258-0.605-0.591-0.571-0.64c0.236-0.335,0.525-0.659,0.871-0.875
	c0.54-0.338,1.135-0.584,1.709-0.869c0.259-0.196,0.517-0.392,0.776-0.587c0.51,0.063,0.615-0.837,1.151-0.555
	c0.929,0.486,2.006,0.785,2.588,1.781c0.256,0.445,0.481,0.908,0.768,1.332c0.629,0.928-0.345,1.438-0.539,2.147
	c-0.047,0.16-0.229,0.28-0.349,0.42c-0.065,0.559-0.453,0.967-0.674,1.449c-0.119,0.024-0.239,0.048-0.355,0.07
	c-0.367,0.086-0.552,0.248-0.5,0.691c0.067,0.548,0.363,1.063,0.233,1.637C21.556,152.063,21.33,152.25,19.317,152.426z
	 M236.449,140.008c-0.129-0.908-0.822-1.986-1.759-2.129c-0.207-0.414,0.002-1.007-0.246-1.281
	c-0.702-0.774-0.254-1.404,0.063-2.084c0.246-0.399,0.204-0.812,0.109-1.247c-0.185-0.841-0.744-1.455-1.196-2.138
	c-0.091-0.104-0.182-0.206-0.271-0.31c-1.562-1.039-3.391-1.599-4.885-2.754c-0.07-0.167-0.138-0.336-0.209-0.502
	c-0.165-0.458-0.208-0.949-0.329-1.408c-0.466-1.725-1.373-3.287-1.968-4.979c-0.212-0.615-0.58-1.335-0.838-1.988
	c-0.515-1.305-0.724-2.729-1.149-4.073c-0.3-0.955-0.328-1.996-0.83-2.871c-0.25-0.433-0.351-0.897-0.48-1.345
	c-0.431-1.476-0.838-2.956-0.937-4.517c-0.045-0.709-0.179-1.439-0.323-2.146c-0.213-1.064-0.173-2.181-0.617-3.2
	c0.16-1.057-0.315-2.019-0.543-3.088c0.771,0.445,0.803,0.439,1.518-0.215c0.038-0.059,0.078-0.118,0.114-0.178
	c0.063-0.009,0.123-0.018,0.186-0.024c0.419-0.044,1.004-0.21,1.1,0.315c0.124,0.669-0.753,0.531-0.938,0.522
	c-0.843-0.045-0.52,0.449-0.453,0.797c0.033,0.165,0.213,0.303,0.347,0.477c0.096-0.294-0.195-0.758,0.177-0.764
	c0.657-0.011,1.043-0.454,1.508-0.749c0.384-0.244,0.698-0.188,0.849,0.13c0.162,0.336-0.192,0.45-0.473,0.527
	c-0.109,0.031-0.238,0.04-0.264,0.196c0.041,0.041,0.076,0.107,0.125,0.119c0.962,0.228,2.162-0.32,2.825,0.885
	c0.028,0.049,0.18,0.064,0.26,0.044c0.937-0.231,1.908,0.74,2.772-0.256c0.17,0.513-0.446,0.442-0.297,0.822
	c1.387,0.134,2.166-1.219,3.518-1.391c-0.793-0.159-0.228-0.77-0.492-1.042c-0.326-0.341-0.413-0.496,0.185-0.598
	c0.616-0.104-0.181-0.543,0.109-0.797c0.054-0.047,0.021-0.387-0.194-0.253c-0.561,0.347-0.94-0.413-1.504-0.054
	c-0.037-0.375,1.371-0.733-0.039-0.918c-0.372-0.049-0.502-0.769-0.296-1.133c0.253-0.446,0.785-0.791-0.241-0.821
	c-0.059-0.001-0.143-0.264-0.156-0.41c-0.098-0.991-0.936-0.918-1.587-1.116c-0.589-0.157-1.143-0.165-1.321-1.065
	c-0.085-0.432,0.323-0.94-0.146-1.295c0.427-0.843,0.118-1.517-0.494-2.118c-0.005-0.078-0.01-0.156-0.018-0.233
	c0.283-0.085,0.653-0.045,0.701-0.47c0.018-0.155-0.093-0.178-0.231-0.201c-0.873-0.153-1.408-0.826-2.05-1.349
	c-0.017,0.297,0.048,0.521-0.489,0.42c-0.646-0.122-1.287-1.29-2.032-0.132c-0.06,0.089-0.244-0.12-0.347-0.229
	c-0.248-0.267-0.264-0.615-0.36-0.938c-0.049-0.177,0.015-0.385-0.327-0.447c-1.024-0.186-2.043,0.072-3.059-0.021
	c-0.172-0.016-0.175,0.19-0.147,0.265c0.347,0.891-0.071,0.688-0.656,0.553c-0.431-0.101-0.769-0.346-1.199-0.477
	c0.805-0.041,0.896-1.169,1.849-1.087c0.346,0.031,1.138-0.339,1.31-0.013c0.456,0.868,0.794,0.024,1.214,0.076
	c-0.162-0.486-0.599,0.244-0.731-0.312c-0.177-0.743-1.302-0.646-1.425-1.51c-0.015-0.108-0.225,0.114-0.341,0.19
	c-0.563,0.377-1.037,0.494-1.165-0.398c-0.045-0.308-0.057-0.468-0.498-0.277c-0.257,0.11-0.866-0.012-1.084-0.422
	c-0.283-0.542,0.599-0.016,0.467-0.515c-0.573,0.096-0.759-0.537-1.27-0.681c-0.563-0.155-0.331-0.521-0.106-0.926
	c0.322-0.58,1.064-0.332,1.451-0.849c-0.818-0.405-1.506-0.062-2.202,0.167c-0.308,0.033-0.701,0.149-0.435-0.411
	c0.104-0.217,0.218-0.4,0.19-0.676c-0.098-0.968-0.889-1.604-1.151-2.488c-0.01-0.039-0.1-0.056-0.154-0.083
	c-0.43-0.579-0.294-1.217-0.196-1.852c0.507-0.7-0.106-0.977-0.543-1.143c-0.292-0.111-0.616-0.246-0.95-0.283
	c-0.271-0.741-0.751-1.39-1.16-2.028c-0.663-1.033-1.021-2.241-1.86-3.162c1.143-0.727,2.222,0.046,3.245,0.297
	c0.688,0.169,1.3,0.459,2.055,0.375c0.756-0.084,1.514,0.862,1.27,1.564c-0.119,0.343-0.265,0.68,0.021,0.908
	c0.355,0.283,0.659-0.082,0.861-0.313c1.418-1.644,3.24-0.714,4.899-0.788c0.054-0.002,0.12,0.194,0.172,0.301
	c0.091,0.181,0.228,0.328,0.43,0.276c0.307-0.077,0.216-0.333,0.152-0.528c-0.105-0.351,0.102-0.54,0.35-0.658
	c1.011-0.484,0.83-1.279,0.551-2.085c-0.138-0.402-0.047-0.654,0.239-0.976c0.246-0.279,1.055-0.366,0.616-0.94
	c-0.28-0.366-0.22-0.823-0.553-1.146c-0.389-0.378-0.91,0.049-1.28-0.28c-0.119-0.419,0.374-1.033-0.195-1.249
	c-0.615-0.232-0.924-0.77-1.432-1.098c-0.679-0.443-0.628-1.515-1.448-1.938c-0.087-0.043-0.12-0.579,0.065-0.872
	c0.098-0.153,0.184-0.327,0.225-0.502c0.331-1.326,0.604-1.516,1.892-1.043c0.524,0.193,0.849-0.095,1.176-0.297
	c0.322-0.2-0.058-0.523,0.04-0.987c-0.564,0.509-1.154,0.807-1.488,0.312c-0.325-0.481-0.732-0.675-1.224-0.833
	c0.167-0.35,0.681-0.011,0.716-0.547c-0.324-0.032-0.644-0.019-0.938-0.239c-0.412-0.308-1.043-0.459-1.02-1.071
	c0.023-0.553,0.701-0.455,1.04-0.592c0.44-0.174,0.331-0.351,0.252-0.595c-0.099-0.308-0.377-0.101-0.479-0.137
	c-0.544-0.18-0.593,0.442-1.029,0.493c-0.865,0.101-1.47-0.3-2.138-0.678c-0.22-0.13-0.366-0.405-0.782-0.126
	c-0.699,0.468-1.438,1.1-2.453,0.636c0.203-0.234,0.398-0.506,0.555-0.605c0.531-0.334,0.303-1.251,1.104-1.33
	c0.2-0.021,0.171-0.229,0.072-0.37c-0.092-0.132-0.128-0.401-0.39-0.252c-0.498,0.284-1.133,0.137-1.605,0.633
	c-0.211,0.223-0.988,0.921-1.1-0.256c-0.016-0.188-0.164-0.181-0.344-0.174c-0.596,0.023-0.924,0.684-0.58,1.311
	c0.108,0.197,0.364,0.302-0.003,0.442c-0.215,0.084-0.438,0.048-0.563-0.179c-0.409-0.739-0.389-0.702-1.122-0.154
	c-0.391,0.292-0.303,0.797-0.777,1.107c-0.582,0.377-1.412,0.438-1.814,1.16c0.778,0.344,1.356,0.048,1.917-0.371
	c0.612-0.459,1.388-0.264,2.064-0.497c0.368-0.129,0.517,0.228,0.647,0.521c0.055,0.123,0.197,0.177,0.292,0.043
	c0.353-0.503,0.794-0.161,1.297-0.235c-0.73,0.864-1.492,1.277-2.479,0.822c-0.613-0.285-1.163-0.205-1.762,0.05
	c-0.461,0.195-1.11-0.074-1.404,0.561c-0.656-0.507-1.299,0.02-1.919,0.093c-1.004,0.118-2.071,0.249-2.861,1.039
	c-0.381,0.484-0.92,0.435-1.461,0.492c-0.776,0.08-1.125-0.188-1.124-1.03c-0.003-0.15-0.049-0.362,0.2-0.269
	c0.647,0.241,0.622-0.444,1.118-0.725c-0.487,0.021-0.864,0.019-0.766-0.454c0.114-0.526,0.434,0.129,0.643-0.097
	c0.141-0.152,0.335-0.069,0.509,0.028c0.164,0.095,0.408,0.341,0.461-0.076c0.032-0.254-0.029-0.759-0.269-0.653
	c-0.659,0.291-1.543-0.405-2.046,0.541c-0.226,0.422-0.905,0.082-0.808-0.074c0.263-0.418-0.045-0.488-0.209-0.595
	c-1.188-0.768,0.086-1.134,0.309-1.586c0.389-0.791,0.393,0.1,0.601,0.192c0.287,0.127,0.626,0.137,0.942,0.198
	c0.09-0.511-0.405-0.413-0.604-0.612c-0.779-0.78-1.662-0.988-2.686-0.637c-0.086-0.522,0.501-0.676,0.453-1.115
	c-1.097,0.282-1.097,0.282-1.458,0.145c0.866-0.271,0.886-0.286,0.6-0.639c-0.135-0.169-0.178-0.531-0.522-0.414
	c-0.269,0.092-0.481,0.262-0.503,0.594c-0.008,0.188-0.059,0.406-0.29,0.402c-0.239-0.005-0.21-0.257-0.272-0.42
	c-0.059-0.244-0.103-0.509-0.452-0.465c-0.338,0.04-0.532-0.144-0.624-0.43c-0.067-0.206,0.095-0.428,0.262-0.412
	c0.383,0.038,0.851-0.551,1.062-0.103c0.294,0.621,0.788,0.248,1.169,0.561c0.076-0.468-0.618-1.108,0.391-1.123
	c0.251-0.004,0.11-0.358-0.059-0.369c-0.397-0.025-0.644-0.331-1.057-0.484c0.011,0.274,0.019,0.495,0.031,0.819
	c-0.469-0.331-0.94-0.222-1.391-0.287c-0.2-0.03-0.494,0.114-0.575-0.151c-0.352-1.165-0.977-0.119-1.547-0.324
	c0.158,0.446,0.696,0.25,0.694,0.627c-0.22,0.381-0.766,0.002-0.918,0.452c-0.041,0.128,0.058,0.335-0.191,0.325
	c-0.205-0.008-0.309-0.142-0.395-0.331c-0.24-0.521,0.065-0.779,0.491-1.063c-0.371,0.293-0.753-0.22-0.969,0.018
	c-0.589,0.644-1.267,0.619-2.136,0.494c1.759-1.042,3.459-1.676,5.398-1.188c0.136-0.266-0.375-1.074,0.58-0.664
	c0.147,0.063,0.44-0.297,0.184-0.415c-0.444-0.204-0.623-0.739-1.393-0.635c-0.763,0.101-1.499,0.382-2.287,0.4
	c-0.714,0.016-1.197-0.15-1.441-1.01c0.573,0.302,1.073-0.06,1.583,0.215c0.247,0.135,0.589-0.085,0.761-0.391
	c0.112-0.205,0.133-0.391,0.009-0.61c-0.208-0.373-0.476-0.176-0.771-0.172c-0.49,0.005-0.988,0.359-1.481-0.043
	c-0.164-0.136-0.499-0.072-0.55,0.158c-0.161,0.73-0.644,0.527-1.104,0.451c-0.271-0.044-0.49-0.17-0.795,0.12
	c-0.167,0.157-0.929,0.435-1.108-0.048c-0.194-0.521,0.385-0.228,0.618-0.301c0.029-0.01,0.07-0.015,0.084-0.035
	c0.531-0.778,1.276-0.914,2.17-0.865c0.423,0.025,0.875-0.243,1.224-0.585c0.223-0.218,0.167-0.506-0.017-0.497
	c-0.419,0.021-0.498-0.582-0.922-0.418c-0.032,0.014-0.055,0.2-0.021,0.229c0.244,0.187,0.461,0.437,0.196,0.682
	c-0.355,0.338-0.292-0.366-0.599-0.316c-0.361,0.06-0.55-0.212-0.746-0.456c-0.091-0.114-0.203-0.271-0.377-0.146
	c-0.147,0.104-0.13,0.256-0.043,0.409c0.396,0.714-0.012,0.785-0.59,0.743c-0.146-0.01-0.302,0.053-0.455,0.081c0,0,0,0,0.001,0.002
	c-0.049,0.064-0.109,0.104-0.171,0.131c-0.241,0.182-0.503,0.354-0.887,0.467c0.385-0.254,0.656-0.432,0.157-0.671
	c-0.303-0.143-0.654-0.103-0.902-0.183c0.467-0.162,0.91,0.002,1.32,0.346c0.096,0.076,0.207,0.084,0.312,0.041
	c0.058-0.045,0.115-0.089,0.17-0.133c-0.295-0.326,0.598-0.764,0.03-0.897c-0.753-0.179-1.162-0.499-1.256-1.253
	c-0.005-0.05-0.137-0.085-0.336-0.196c0.127,0.417-0.375,0.688,0.021,1.055c0.127,0.118,0.013,0.3-0.071,0.269
	c-0.408-0.148-0.856,0.438-1.251-0.121c-0.301-0.429-0.936-0.607-0.92-1.286c0.004-0.21-0.222-0.222-0.412-0.272
	c-0.469-0.129-0.741,0.271-1.11,0.416c-0.149-0.643-0.151-0.647,0.44-0.96c0.175-0.092,0.214-0.254,0.165-0.382
	c-0.189-0.501,0.064-0.48,0.442-0.469c1.117,0.029,2.233,0.206,3.339,0.069c0.027-0.646-0.291-0.862-0.905-1.047
	c-0.514-0.157-1.011,0.159-1.523-0.054c0.131-0.277,0.34-0.256,0.491-0.337c0.247-0.131,0.802,0.155,0.722-0.297
	c-0.063-0.365-0.658-0.075-0.972-0.262c-0.016-0.009-0.107,0.178-0.179,0.191c-0.656,0.128-1.283,0.824-1.99,0.113
	c-0.106-0.106-0.231-0.074-0.32,0.034c-0.143,0.177-0.01,0.282,0.121,0.37c0.554,0.369,0.174,0.604-0.133,0.811
	c-0.363,0.246-0.802,0.23-1.209,0.324c-0.178,0.04-0.445,0.323-0.447,0.023c-0.006-0.412-0.515-0.76-0.219-1.11
	c0.231-0.268,0.401,0.104,0.537,0.288c0.166,0.227,0.396,0.107,0.599,0.121c0.168,0.011,0.409,0.124,0.442-0.155
	c0.031-0.251-0.175-0.282-0.377-0.271c-0.094,0.004-0.245,0.026-0.269-0.015c-0.286-0.532-0.6-1.013-1.276-1.122
	c-0.048-0.009-0.229-0.829,0.074-0.679c0.865,0.432,1.626-0.652,2.435-0.02c0.163,0.127,0.46,0.038,0.446-0.27
	c-0.009-0.213,0.057-0.541-0.357-0.499c-0.184,0.019-0.37,0.033-0.554,0.019c-0.68-0.055-1.343,0.151-1.974,0.206
	c-0.936,0.081-0.085-1.324-0.908-1.686c-0.001,0.156-0.732,0.17-0.061,0.578c0.296,0.183,0.35,0.518,0.133,0.813
	c-0.181,0.241-2.301,0.577-2.539,0.368c-0.823-0.727-1.597-0.548-2.415,0c-0.231,0.153-0.405-0.003-0.392-0.302
	c0.008-0.196,0.006-0.398-0.291-0.275c-0.179,0.074-0.407,0.15-0.418-0.121c-0.012-0.248,0.138-0.488,0.448-0.492
	c0.821-0.009,1.643-0.494,2.629,0.166c-0.174-0.798-0.344-1.386-0.412-1.987c-0.023-0.219-0.594-0.898,0.371-0.673
	c0.197,0.048,0.182-0.226,0.07-0.332c-0.157-0.156-0.381-0.204-0.601-0.165c-0.226,0.039-0.257,0.243-0.307,0.42
	c-0.107,0.35,0.089,0.653,0.173,1.05c-0.452-0.047-0.853-0.013-1.155,0.378c-0.166,0.215-0.588,0.359-0.742,0.134
	c-0.727-1.064-0.976-0.356-1.311,0.581c-0.075-0.931-0.791-0.748-1.189-1.1c0.146-0.085,0.219-0.16,0.295-0.165
	c0.869-0.067,1.013-0.396,0.725-1.195c-0.181-0.501-0.674-1.102-0.665-1.316c0.052-1.177-0.754-0.568-1.168-0.665
	c-0.251-0.06-0.514,0.096-0.292,0.447c0.158,0.254-0.166,0.869,0.515,0.729c0.235-0.051,0.491-0.431,0.613,0.097
	c0.071,0.331,0.233,0.592-0.063,1.005c-0.47,0.656-0.894,0.496-1.531,0.381c-1.058-0.19-1.96-1.201-3.169-0.63
	c-0.052,0.024-0.183-0.039-0.232-0.099c-0.1-0.12-0.033-0.219,0.09-0.296c0.135-0.087,0.396-0.071,0.295-0.399
	c-0.911-0.1-1.758-0.676-2.655-0.689c-0.611-0.009-1.404-0.342-1.99,0.349c-0.09,0.104-0.96,0.688-0.929-0.069
	c0.043-1.133-0.633-0.929-1.221-0.916c-0.682,0.017-1.3,0.063-1.798-0.573c-0.329-0.427-0.825-0.588-1.411-0.379
	c-0.369,0.133-0.887,0.222-1.021-0.275c-0.122-0.459,0.298-0.683,0.712-0.813c0.114-0.036,0.211-0.171,0.318-0.176
	c0.328-0.013,0.505-0.189,0.376-0.462c-0.215-0.452-0.712-0.584-1.146-0.676c-0.284-0.059-0.23,0.263-0.211,0.484
	c0.047,0.563-0.204,0.702-0.777,0.693c-0.907-0.013-1.816,0.155-2.674,0.498c-2.062,0.441-4.13,0.124-6.177-0.103
	c-0.585-0.063-1.145-0.294-1.776-0.29c-1.371,0.011-2.71,0.369-4.102,0.218c-0.665-0.072-1.411-0.402-2.063,0.055
	c-0.544,0.379-1.118,0.311-1.688,0.184c-0.441-0.098-0.851-0.082-1.271,0.031c-0.119,0.126-0.247,0.176-0.386,0.195
	c0.129-0.064,0.258-0.125,0.386-0.195c-0.74,0.166-1.332-0.637-2.07-0.251c-0.161-0.67,0.207-1.067,0.699-1.455
	c-0.226-0.045-0.334-0.105-0.4-0.074c-0.441,0.23-0.94,0.905-1.049-0.294c-0.036-0.383-0.633-0.063-0.963-0.234
	c-0.138-0.069-0.518,0.154-0.659,0.416c-0.079,0.145,0.048,0.219,0.167,0.265c0.228,0.09,0.622-0.441,0.701,0.169
	c0.073,0.549-0.51,0.136-0.661,0.417c-0.079,0.144-0.074,0.385-0.163,0.394c-1.259-1.003-2.276,0.271-3.501-0.008
	c0.211,0.204,0.294,0.257,0.333,0.33c0.127,0.233,0.419,0.428,0.305,0.73c-0.176,0.451-0.549-0.092-0.687,0.072
	c-0.266,0.316-0.67-0.241-0.761,0.11c-0.069,0.254,0.07,0.626-0.336,0.558c-0.337-0.056-0.201-0.514-0.355-0.764
	c-0.109-0.182,0.238-0.373-0.018-0.637c-0.291,0.245-0.58,0.487-0.846,0.711c0.095,0.351,0.502,0.017,0.646,0.547
	c-1.171-0.134-2.231-0.254-3.294-0.375c0.117-0.271,0.244-0.287,0.332-0.355c0.193-0.149,0.606,0.506,0.654-0.197
	c0.038-0.501-0.362-0.396-0.604-0.526c-0.352-0.186-0.594,0.232-0.826,0.177c-0.364-0.086-0.726,0.577-1.055-0.025
	c-0.088-0.158,0.084-0.532-0.286-0.458c-0.49,0.102,0.116,0.478-0.02,0.583c-1.232,0.079-2.354,0.144-3.475,0.231
	c-0.428,0.033-0.862,0.084-1.272,0.196c-0.441,0.122-0.185-0.248-0.296-0.354c-0.151-0.146-0.361-0.281-0.177-0.537
	c0.078-0.108,0.214-0.205,0.303-0.083c0.178,0.229,0.361,0.409,0.493,0.035c0.037-0.11-0.086-0.557-0.518-0.401
	c-0.208,0.076-0.456-0.199-0.722,0.05c0.479,0.887-0.803,1.118-0.72,1.891c-0.713,0.024-1.415,0.204-2.227,0.064
	c0.213,0.308,0.238,0.584,0.538,0.646c1.086,0.225,2.149,0.39,3.251-0.043c0.616-0.241,1.329-0.271,2.026-0.127
	c-2.087,0.587-3.859,1.993-6.129,2.168c1.121-0.117,1.801,0.828,2.754,0.985c-0.153,0.429-0.655,0.063-0.863,0.377
	c-0.335-0.017-0.717,0.066-0.996-0.068c-0.859-0.417-1.099,0.04-1.228,0.751c-0.229,0.01-0.239-0.354-0.5-0.304
	c-0.151,0.797-0.153,0.786-1.043,0.96c-0.165,0.031-0.345,0.022-0.501,0.183c-0.364,0.367-0.508-0.143-0.758-0.24
	c-0.173-0.067-0.2-0.205-0.065-0.363c0.257-0.305,0.458-0.15,0.696,0.042c0.105,0.081,0.3,0.104,0.436,0.072
	c0.277-0.063,0.741,0.003,0.693-0.401c-0.031-0.245-0.16-0.635-0.729-0.573c-0.556,0.062-1.119-0.163-1.717,0.085
	c-0.28,0.115-0.791,0.207-1.036-0.349c0.635,0.075,1.258,0.178,1.533-0.562c-0.224-0.28-0.56,0.41-0.758-0.156
	c-0.117-0.332-0.243-0.35-0.396-0.185c-0.704,0.757-1.712,0.371-2.531,0.694c-0.198,0.078-0.493-0.095-0.663,0.169
	c-0.032,0.054-0.017,0.196,0.031,0.237c0.266,0.229,0.438-0.11,0.669-0.124c0.102-0.006,0.181,0.017,0.196,0.134
	c-0.937,0.723-1.206,0.662-2.114-0.472c0.698-0.024,1.252-1.066,2.052-0.249c0,0.002,0.118-0.099,0.17-0.16
	c0.558-0.665,1.512-0.86,1.948-1.674c0.057-0.107,0.247-0.174,0.389-0.202c0.193-0.038,0.604,0.392,0.52-0.207
	c-0.084-0.601-0.396-0.1-0.57-0.044c-0.402,0.126-0.671,0.018-0.809-0.362c-0.146-0.405-0.486-0.836-0.022-1.237
	c0.278-0.24,0.579-0.46,0.951-0.074c0.16,0.166,0.389,0.37,0.715,0.281c-0.953-1.193-2.081-0.931-3.187-0.458
	c-0.358,0.155-0.912,0.305-0.784,0.939c-0.038,0.048-0.079,0.099-0.119,0.148c-0.233,0.128-0.54,0.191-0.402,0.588
	c0.102,0.303-0.028,0.478-0.306,0.666c-0.527,0.356-0.405,0.672,0.231,0.83c-0.627,0.399-1.324-0.274-1.918,0.291
	c-0.459,0.438-1.321-0.604-1.759,0.319c0.19,0.384,0.954-0.495,0.789,0.409c-0.105,0.554-1.481,0.872-1.871,0.459
	c-0.181-0.193-0.241-0.458-0.631-0.276c-0.348,0.162-0.504,0.332-0.565,0.729c-0.088,0.575,0.322,0.732,0.643,0.991
	c0.409,1.092-0.287,1.47-1.132,1.749c-0.065-0.104-0.154-0.303-0.193-0.293c-0.735,0.172-1.403-0.198-2.079-0.246
	c-0.864-0.063-1.746,0.381-2.59-0.274c-0.227-0.176-0.662-0.048-0.981-0.133c-1.05-0.276-1.976-1.22-3.194-0.557
	c-0.07,0.039-0.224-0.041-0.325-0.093c-1.442-0.718-2.984-0.25-4.477-0.359c-0.245-0.019-0.517,0.174-0.761,0.308
	c-0.143,0.079-0.392,0.257-0.186,0.415c0.403,0.309,0.196,0.893,0.62,1.181c0.153,0.106,0.36,0.305,0.148,0.545
	c-0.179,0.206-0.371,0.031-0.571,0.017c-0.498-0.041-0.866-0.667-1.558-0.164c-0.261,0.189-0.234,0.304-0.264,0.471
	c-0.046,0.267,0.053,0.56,0.368,0.456c0.646-0.215,0.604,0.245,0.611,0.591c0.011,0.467-0.418,0.418-0.686,0.415
	c-0.948-0.005-1.89-0.133-2.489,0.903c-0.223,0.384-0.325,0.34,0.131,0.482c0.207,0.064,0.56,0.213,0.374,0.347
	c-0.592,0.424-0.976,1.198-1.841,1.196c-0.521-0.001-0.88,0.334-1.168,0.681c-0.156,0.189-0.305,0.226-0.482,0.326
	c-0.983,0.562-2.022,0.021-2.982,0.264c-0.715,0.181-0.959-0.034-0.984-0.936c-0.358,0.832-0.86,0.33-1.282,0.455
	c-1.4,0.405-2.558,1.14-3.502,2.234c-0.575,0.671-1.242,1.036-2.162,0.789c-0.178-0.048-0.602-0.13-0.581,0.042
	c0.124,1.015-0.743,0.765-1.21,1.008c-0.093,0.049-0.162,0.083-0.145,0.187c0.027,0.136,0.119,0.236,0.257,0.176
	c0.226-0.098,0.497-0.306,0.591,0.074c0.077,0.322-0.192,0.392-0.482,0.518c-0.346,0.15-0.852,0.748-0.652,0.919
	c0.601,0.519,0.843,0.908,0.192,1.523c-0.052,0.051-0.035,0.291,0.029,0.335c0.327,0.231,0.112,0.582,0.203,0.815
	c0.417,1.075-0.933,1.834-0.387,2.938c-0.657-0.751-1.189-0.381-1.719,0.021c-0.198,0.15-0.589,0.113-0.521,0.533
	c0.05,0.35,0.342,0.283,0.563,0.362c0.201,0.069,0.43,0.153,0.462,0.402c0.038,0.266-0.193,0.341-0.368,0.469
	c-0.334,0.239-0.629,0.311-1.014,0.069c-0.292-0.18-0.732-0.415-0.925,0.087c-0.236,0.625-0.664,0.619-1.183,0.556
	c-0.627-0.075-1.139,0.244-1.656,0.535c0.309,0.447,0.801,0.393,1.245,0.458c0.034,0.004,0.071-0.009,0.095,0.004
	c0.097,0.062,0.25,0.116,0.268,0.197c0.041,0.187-0.112,0.253-0.278,0.28c-0.354,0.059-0.971,0.045-1.017,0.198
	c-0.317,1.075-1.612,1.201-2.002,2.194c-0.189,0.477-0.709,0.404-1.143,0.317c-0.301-0.06-0.304-0.243-0.184-0.485
	c0.084-0.177,0.354-0.388,0.112-0.559c-0.277-0.197-0.433,0.104-0.567,0.299c-0.132,0.188-0.328,0.235-0.512,0.336
	c-0.66,0.36,0.146,0.693,0.084,1.085c-0.043,0.265,0.201,0.494,0.492,0.303c0.695-0.456,1.488-0.189,2.219-0.359
	c0.308-0.071,0.583,0.066,0.437,0.349c-0.185,0.364-0.67,0.954-0.817,0.897c-0.841-0.326-1.501,0.503-2.321,0.246
	c-0.417-0.129-0.911,0.007-1.371-0.005c-0.599-0.017-0.908,0.17-0.664,0.823c0.157,0.424,0.007,0.554-0.436,0.504
	c-0.353-0.041-0.622,0.154-0.885,0.411c-0.278,0.272-0.648,0.611-0.992,0.629c-0.688,0.037-0.448,0.405-0.402,0.745
	c-1.313,0.136-1.622,1.175-1.975,2.176c-0.255,0.303-0.509,0.603-0.764,0.904c-0.384-0.005-0.468,0.301-0.644,0.555
	c-0.245,0.355-0.446,0.825-0.998,0.823c-0.177-0.003-0.333,0.04-0.348,0.208c-0.024,0.26,0.201,0.232,0.379,0.267
	c0.72,0.145,1.597,0.055,1.724,1.124c0.005,0.063,0.124,0.132,0.203,0.164c1.039,0.403,0.88,1.156,0.578,1.954
	c-0.246,0.073-0.401,0.234-0.472,0.485c-0.29,0.079-0.583,0.157-0.873,0.236c-0.298,0.085-0.597,0.152-0.882,0.259
	c-1.997,0.732-3.38,2.315-4.972,3.612c-1.008,0.842-1.854,1.823-1.685,3.221c0.062,0.516,0.104,0.945-0.131,1.396
	c-0.16,0.177-0.435,0.415-0.452,0.524c-0.078,0.476-0.813,0.576-0.676,1.009c0.213,0.654,0.303,0.645-0.307,1.153
	c-0.138,0.116-0.236,0.189-0.177,0.353c0.289,0.841-0.353,1.446-0.562,2.157c-0.175,0.592-0.592,0.979-1.249,1.066
	c-0.286,0.039-0.651,0.048-0.632,0.502c-0.185,0.3-0.153,0.654,0.085,0.836c0.44,0.336,0.39,0.768,0.259,1.145
	c-0.26,0.769-0.824,1.459-0.468,2.356c0.026,0.065-0.118,0.199-0.184,0.302c-0.183,0.107-0.363,0.221-0.551,0.325
	c-1.09,0.616-1.658,2.253-1.137,3.273c-0.115,0.431-0.374,0.69-0.83,0.762c-0.157,0.022-0.43,0.023-0.357,0.296
	c0.195,0.733-0.39,0.995-1.002,1.46c0.676-0.104,1.134-0.175,1.592-0.246c-0.527,0.284-0.961,0.783-1.649,0.528
	c-0.202-0.076-0.773,0.089-0.725,0.223c0.381,1.094-0.451,0.257-0.65,0.404c-0.189,0.14-0.497,0.024-0.594-0.262
	c-0.106-0.316,0.219-0.395,0.348-0.581c0.329-0.46,1.061-0.547,1.13-1.232c0.138-0.127,0.296-0.234,0.403-0.382
	c0.552-0.775,0.427-1.557-0.028-2.321c-0.327-0.549-0.854-0.673-1.432-0.575c-0.744,0.125-0.933,0.805-1.257,1.341
	c-0.919,1.595-0.863,2.186,0.222,2.847c-0.281,0.319-0.278,1.02-1.044,0.74c0.421,0.509,1.038-0.121,1.448,0.476
	c-1.162,0.076-1.544,1.213-2.463,1.552c-0.097,0.035-0.319,0.156-0.06,0.318c0.601,0.368,0.219,0.445-0.156,0.58
	c-0.434,0.158-0.862,0.299-1.459,0.194c0.995,0.597,0.488,0.846-0.084,1.078c-0.085,0.034-0.18,0.041-0.268,0.074
	c-0.173,0.064-0.381,0.132-0.316,0.369c0.055,0.19,0.257,0.245,0.436,0.301c0.183,0.053,0.341-0.342,0.545-0.021
	c-0.204,0.43-0.617,0.484-1.003,0.553c-0.33,0.057-0.521,0.296-0.561,0.548c-0.055,0.38,0.388,0.172,0.527,0.323
	c0.347,0.377,0.834-0.061,1.344,0.267c-1.219,0.757-2.32,0.92-3.642,0.059c0.849,1.015-0.049,0.771-0.37,0.91
	c-0.191,0.084-0.476,0.069-0.439,0.367c0.033,0.305,0.329,0.205,0.519,0.261c0.203,0.062,0.394,0.012,0.5-0.149
	c0.296-0.46,0.727-0.405,1.252-0.397c-0.621,0.624-1.451,0.752-1.981,1.326c-0.315,0.341-0.626,0.668-0.048,0.987
	c-0.004,0.347-1.051-0.219-0.444,0.606c0.151,0.201-0.165,0.351-0.304,0.332c-0.561-0.071-0.823,0.365-1.173,0.64
	c-0.47,0.372-0.86,0.24-0.985-0.368c-0.195-0.98-0.217-1.971-0.171-2.966c0.021-0.485,0.145-0.912,0.554-1.215
	c0.716,0.576,1.308,0.43,1.604-0.396c0.426-1.175-0.022-1.688-1.354-1.554c-0.048-0.174-0.176-0.368-0.133-0.517
	c0.343-1.246,0.884-2.428,1.281-3.659c0.276-0.854,0.752-1.664,0.793-2.587c0.018-0.416,0.212-0.531,0.525-0.623
	c1.049-0.269,1.31-0.745,1.016-1.871h-0.002c-0.087-0.439-0.264-0.871,0.062-1.305c0.467-0.616,0.646-1.373,0.885-2.082
	c0.157-0.477,0.641-0.852,0.639-1.235c-0.003-1.097,0.499-2.038,0.812-3.017c0.271-0.849,0.632-1.671,0.808-2.551
	c0.126-0.634-0.006-1.121-0.74-1.359c-0.757-0.247-1.351,0.035-1.657,0.603c-0.304,0.563-0.354,1.235-1.193,1.29
	c-0.084,0.007-0.2,0.304-0.216,0.474c-0.09,1.019-0.768,1.661-1.366,2.398c-0.334,0.409-1.27,0.524-0.948,1.313
	c0.363,0.892-0.102,0.753-0.641,0.613c0.173,0.914,0.038,1.587-0.265,2.558c-0.372,1.196-1.541,1.646-2.169,2.629
	c0.222,0.147,0.516,0.29,0.485,0.772c-0.035,0.567-0.614,0.115-0.689,0.421c0.17,0.59,0.6-0.091,0.886,0.244
	c-0.691,0.588-1.506,0.915-2.19,1.442c-0.767,0.59-1.822,0.813-2.319,1.778c0.439,0.276,0.734-0.242,1.158-0.038
	c-0.801,0.624,0.554,0.899,0.188,1.465c0.473,0.296,0.454-0.525,0.854-0.403c0.195,0.546,0.132,0.888-0.53,0.984
	c-0.849,0.123-0.577,1.329-1.442,1.444c0.438,0.49,0.741-0.327,1.154,0.023c-0.117,0.501-0.205,0.986-0.926,0.622
	c-0.151-0.076-0.366-0.059-0.547-0.046c-0.254,0.019-0.347,0.237-0.43,0.438c-0.066,0.167,0.017,0.3,0.173,0.375
	c0.189,0.094,0.38,0.072,0.485-0.116c0.252-0.45,0.555-0.125,0.865-0.151c-0.088,0.372-0.339,0.599-0.268,0.949
	c0.111,0.54-0.016,0.737-0.522,0.308c-0.195-0.165-0.379-0.01-0.359,0.188c0.044,0.454,0.645,1.002-0.288,1.253
	c-0.09,0.023,0.101,0.192,0.185,0.249c0.824,0.539,0.162,0.763-0.216,1.051c-0.146,0.114-0.47,0.039-0.411,0.376
	c0.595,0.266,1.222,0.181,1.874,0.192c-0.531,0.216-1.134,0.313-1.201,1.037c0.354,0.074,0.595-0.16,0.752-0.329
	c0.542-0.58,0.92-0.166,1.341,0.138c0.104,0.076,0.211,0.164,0.12,0.296c-0.084,0.126-0.198,0.215-0.383,0.207
	c-0.833-0.037-1.12,0.276-1.15,1.207c-0.004,0.104-0.112,0.294-0.169,0.293c-0.541-0.008-0.628,0.683-1.154,0.704
	c0.65,0.123,1.278,0.262,1.86-0.161c0.085-0.062,0.299-0.166,0.295-0.041c-0.034,0.969,0.731,0.095,1.003,0.496
	c-0.394,0.313-0.563,0.911-1.249,0.864c-0.176-0.012-0.285,0.167-0.256,0.324c0.037,0.202,0.222,0.199,0.361,0.112
	c0.272-0.168,0.579-0.39,0.77,0.029c0.166,0.365-0.102,0.63-0.414,0.794c-0.56,0.291-0.195,0.369,0.08,0.571
	c1.251,0.912,2.635,0.241,3.813,0.057c1.384-0.219,2.599-1.319,3.623-2.404c0.791-0.835,1.592-1,2.524-0.461
	c0.24,0.14,0.497,0.245,0.744,0.366c0.122-0.027,0.241-0.055,0.36-0.082c0.578,0.107,0.138,0.835,0.611,1.008
	c0.176,0.028,0.364,0.133,0.532-0.007c0.587-0.492,1.171-0.404,1.874-0.196c0.616,0.18,1.257,0.32,2.008-0.078
	c0.508-0.27,1.39,0.104,2.078,0.29c0.121,0.032,0.156,0.541,0.532,0.352c0.326-0.165,0.64-0.416,0.635-0.827
	c-0.005-0.311-0.089-0.635,0.164-0.868c0.592-0.552,0.851-1.3,1.21-2.1c0.267,0.739,0.76,1.04,1.436,0.961
	c0.505-0.061,0.785,0.224,1.075,0.543c0.178,0.923,0.219,1.858,0.242,2.796c-0.765,0.892-1.036,1.864-0.478,2.971
	c0.001,0,0.001,0,0-0.001c0.001,0.001,0.001,0.001,0.001,0.001l-0.01,0.008c-0.409,0.431-0.079,0.851,0.02,1.274
	c0.274,2.099,1.132,4.21-0.146,6.271c-0.301,0.221-0.33,0.565-0.411,0.886c-0.129,0.165-0.26,0.328-0.389,0.491
	c-0.246-0.004-0.491-0.007-0.737-0.012c-0.581-0.32-1.132-0.807-1.752-0.923c-0.878-0.164-1.623-0.551-2.347-0.989
	c-2.078-1.249-5.014-0.107-5.711,2.242c-0.102,0.344-0.259,0.681-0.442,0.989c-0.583,0.975-1.026,1.978-0.767,3.153
	c-0.179,0.287-0.415,0.533,0.076,0.813c0.441,0.255,0.695,0.654,0.448,1.238c-0.132,0.313,0.02,0.73,0.371,0.706
	c0.718-0.051,0.629,0.393,0.608,0.805c-0.037,0.61,0.053,0.995,0.82,0.725c0.221-0.077,0.404-0.007,0.599,0.374
	c0.226,0.434,0.535,0.858,0.742,1.345c0.083,0.193,0.367,0.152,0.489-0.133c0.171-0.411,0.579-0.67,0.938-0.645
	c0.759,0.055,1.103-0.395,1.486-0.896c0.2-0.261,0.399-0.563,0.785-0.607c0.052,0.053,0.107,0.104,0.162,0.157
	c0.014,0.118,0.025,0.239,0.037,0.357c-0.118,0.1-0.288,0.306-0.183,0.362c0.55,0.29,0.412,0.835,0.545,1.278
	c0.095,0.448,0.308,0.908,0.264,1.343c-0.177,1.774,0.219,3.422,0.941,5.019c0.559,0.22,1.219-0.269,1.732,0.248
	c-0.079,0.622,0.031,1.206,0.271,1.789c0.375,0.888,0.166,1.786-0.615,2.355c-1.151,0.838-2.261,1.749-3.551,2.383
	c-0.192,0.134-0.271,0.315-0.252,0.551c0.048,0.622-0.287,1.026-0.749,1.353c-0.022-0.014-0.041-0.029-0.069-0.042
	c-0.486-0.087-0.862,0.152-1.141,0.487c-0.532,0.643-1.009,1.333-1.751,1.762c-0.221,0.128-0.223,0.309-0.178,0.558
	c0.112,0.564-0.694,1.774-1.258,1.966c0.012,0.037,0.01,0.068,0.022,0.104c-0.899,0.188-1.003,0.499-0.461,1.36
	c0.001,0,0.001,0,0.002,0c-0.014,0.008-0.017,0.02-0.032,0.029c0.344,0.359,0.855,0.676,0.319,1.256
	c0.192,0.898-0.057,1.975,1.025,2.513c0.065,0.032,0.127,0.159,0.121,0.233c-0.098,0.953,0.499,1.699,0.745,2.546l0.01-0.007
	c0.386,0.17,0.459,0.406,0.147,0.719c-0.2,0.212-0.402,0.626-0.097,0.669c0.834,0.118,1.096,1.032,1.862,1.173
	c0.177,0.032,0.423,0.189,0.513,0.123c0.935-0.701,2.115-0.537,3.145-0.93c1.062-0.405,1.98-1.108,3.114-1.35
	c1.842-0.389,1.702-0.709,2.175,1.416c0.023,0.387,0.219,0.709,0.426,1.016c0.304,0.459,0.47,0.934,0.299,1.484
	c-1.488,1.143-2.621,2.48-2.454,4.523c-0.099,0.537-0.232,1.072-0.283,1.613c-0.06,0.62,0.015,1.283,0.415,1.751
	c0.351,0.408,0.334,0.637,0.002,0.993c-0.275,0.295-0.191,0.561,0.093,0.875c0.458,0.512,1.149,0.728,1.541,1.308
	c0.877,1.303,2.222,2.117,3.481,2.915c1.201,0.76,2.021,1.692,2.617,2.91c-0.205,0.438-0.653,0.828-0.279,1.385
	c0.165,0.539,0.376,1.07,0.469,1.623c0.066,0.372-0.121,0.793,0.287,1.074h0.003c0.009,0.057,0.019,0.113,0.026,0.171
	c-0.108,0.91,0.73,2.136,1.702,2.487c0.559,0.975,0.146,2.209,0.858,3.222c-0.1-0.765,0.447-1.083,0.887-0.96
	c0.619,0.171,1.186,0.082,1.763,0.028c0.775-0.071,1.565-0.438,2.142,0.483c0.063,0.098,0.575,0.529,0.949,0.081
	c0.13-0.159,0.179,0.019,0.221,0.132c0.289,0.758,0.709,0.459,1.121,0.133c0.364-0.289,0.722-0.529,1.238-0.453
	c0.385,0.056,0.428-0.26,0.401-0.564c0.486-0.551,0.987-0.062,1.437,0.043c1.06,0.246,1.952,0.838,2.732,1.582
	c0.233-0.385,1.573-0.275,1.633,0.262c0.12,1.028,0.67,0.239,1.002,0.314c-0.156,0.367-0.287,0.642-0.753,0.568
	c-0.331-0.053-0.62,0.207-0.67,0.518c-0.065,0.41,0.328,0.318,0.579,0.4c0.336,0.116,0.646,0.307,0.947,0.455
	c-0.045,0.354-0.341,0.307-0.488,0.455c-0.483,0.48-0.566,1.281-1.285,1.566c-0.12,0.047-0.137,0.218-0.06,0.324
	c0.126,0.168,0.268,0.072,0.399-0.012c0.291-0.186,0.557-0.086,0.75,0.135c0.2,0.223-0.033,0.396-0.164,0.551
	c-0.377,0.453,0.156,0.53,0.293,0.505c0.817-0.151,1.096,0.811,1.069,0.961c-0.161,1.04,0.502,0.022,0.598,0.275
	c0.083,0.304-0.154,0.524-0.202,0.792c-0.051,0.286-0.412,0.578-0.103,0.85c0.229,0.198,0.521,0.007,0.78-0.105
	c0.611-0.266,0.771,0.045,0.744,0.601c-0.04,0.78-0.579,1.039-1.238,1.126c0.051,0.201,0.178,0.305,0.284,0.26
	c0.693-0.289,1.174-0.035,1.39,0.623c0.214,0.657,1.504,0.4,1.188,1.46c-0.002,0.009,0.102,0.067,0.157,0.074
	c0.232,0.032,0.591-0.378,0.67,0.101c0.069,0.396-0.478,0.297-0.658,0.533c-0.123,0.156-0.451,0.033-0.477,0.38
	c0.496,0.181,0.805-0.271,1.321-0.351c-0.859,0.604-0.21,1.545-0.693,2.17c0.473,0.288,0.848-0.576,1.199-0.047
	c0.266,0.409-0.451,0.461-0.604,0.973c0.61-0.191,1.119-0.117,1.632-0.138c0.154-0.005,0.337,0.026,0.343,0.218
	c0.001,0.092-0.118,0.199-0.204,0.277c-0.118,0.109-0.393,0.042-0.367,0.372c0.379,0.151,1.081-0.22,1.149,0.491
	c0.071,0.746-0.33,1.047-1.084,0.83c-0.123-0.037-0.204,0.107-0.173,0.252c0.039,0.164,0.207,0.356,0.298,0.295
	c0.678-0.465,1.454-0.006,2.216-0.191c-0.219-0.227-0.548,0.018-0.603-0.297c-0.028-0.163,0.094-0.329,0.261-0.326
	c0.288,0.008,0.783-0.225,0.838,0.108c0.146,0.95,0.708,0.333,1.089,0.364c0.272,0.021,0.843-0.243,0.758,0.129
	c-0.263,1.133,0.47,0.584,0.946,0.532c-0.212,0.593-0.662,0.632-1.064,0.722c-0.556,0.127-0.825,0.654-1.018,1.032
	c-0.165,0.323,0.502-0.017,0.765,0.343c-0.53-0.001-0.58,0.287-0.46,0.651c0.194,0.603,0.768,0.706,1.242,0.769
	c0.394,0.052,0.816-0.105,1.152,0.063c-0.465,0.684-0.936,1.34-1.857,1.308c-0.026-0.001-0.095,0.151-0.078,0.214
	c0.044,0.146,0.178,0.168,0.295,0.1c0.394-0.229,0.746-0.094,1.102,0.043c-0.05,0.359-0.674-0.016-0.521,0.498
	c0.15,0.51,0.447,0.047,0.667,0.085c0.531,0.089,0.835-0.46,1.351-0.472c0.23-0.006,0.349,0.001,0.396,0.221
	c0.03,0.139,0.127,0.41-0.008,0.401c-0.76-0.05-1.232,0.616-1.92,0.728c-0.871,0.137-1.747,0.24-2.619,0.389
	c-0.817,0.141-0.55,1.142-1.248,1.26c0.032,0.081,0.042,0.192,0.103,0.236c0.198,0.155,1.571-0.396,1.491-0.467
	c-0.543-0.458,0.177-0.734,0.22-0.742c0.384-0.074,0.863-0.059,1.097,0.23c0.836,1.037,1.84,1.097,2.988,0.729
	c-0.099-0.418-0.422-0.354-0.67-0.453c-0.431-0.174-0.265-0.664-0.297-0.951c-0.033-0.286,0.323,0.081,0.458,0.053
	c0.807-0.171,1.042,0.859,1.803,0.814c0.258-0.014,0.824,0.006,0.659,0.522c-0.121,0.38-0.568,0.563-0.978,0.476
	c-0.277-0.06-0.529-0.138-0.806-0.041c-1.102,0.387-1.387,1.644-2.336,2.194c-0.039,0.021,0.02,0.22,0.044,0.333
	c0.214,0.934,1.029,1.398,1.999,1.145c0.241-0.063,0.549-0.152,0.67,0.118c0.17,0.384-0.265,0.321-0.434,0.436
	c-0.483,0.325-1.304,0.537-1.417,0.952c-0.269,0.983-0.979,0.551-1.496,0.703c-0.197,0.057-0.451,0.062-0.641-0.014
	c-0.524-0.211-0.903,0.412-1.418,0.213c-0.104-0.04-0.209,0.166-0.578,1.071c0.52-0.238,1.003-0.431,1.541-0.368
	c0.216,0.025,0.357,0.147,0.404,0.324c0.061,0.219-0.11,0.309-0.302,0.384c-0.364,0.138-0.725,0.3-1.18,0.493
	c0.519,0.352,0.933,0.338,1.317,0.012c0.55-0.463,1.092-0.832,1.794-1.135c1.03-0.441,1.959-0.623,3.154-0.502
	c-0.386,0.447-0.797,0.771-1.14,0.754c-0.652-0.026-0.489,0.832-1.048,0.794c0.019,0.555,0.521,0.288,0.764,0.458
	c0.092,0.063,0.19,0.182,0.206,0.287c0.029,0.182-0.104,0.289-0.278,0.291c-0.215,0.004-0.498-0.064-0.365,0.303
	c0.08,0.216,0.354,0.197,0.484,0.098c0.569-0.443,1.18-0.219,1.771-0.136c0.438,0.063,0.791,0.036,1.046-0.379
	c0.103-0.166,0.258-0.44,0.476-0.126c0.137,0.194,0.096,0.408-0.161,0.535c-0.342,0.17-0.678,0.354-1.038,0.545
	c0.537,0.525,1.284-0.078,1.511,0.201c0.413,0.507,0.823,0.262,1.097,0.131c0.338-0.156,0.46-0.42,0.732,0.092
	c0.186,0.354,0.589-0.126,0.908-0.027c0.018,0.004,0.171-0.262,0.156-0.39c-0.021-0.196-0.209-0.317-0.402-0.312
	c-0.209,0.004-0.459,0.547-0.613,0.009c-0.112-0.403,0.384-0.28,0.549-0.437c0.286-0.267,0.441-0.164,0.768-0.039
	c0.657,0.254,1.267,1.143,2.117,0.348c0.037-0.035,0.217,0.117,0.324,0.108c0.589-0.041,0.899,0.472,1.304,0.726
	c0.781,0.492,1.803,0.834,2.22,1.657c0.374,0.729,0.989,1.229,1.498,1.699c1.328,1.229,3.02,1.444,4.771,0.849
	c0.16-0.057,0.427,0.025,0.385-0.252c-0.033-0.225-0.225-0.316-0.47-0.355c-0.543-0.085-1.004,0.223-1.518,0.264
	c-0.219,0.017-0.358,0.027-0.41-0.21c-0.045-0.21,0-0.331,0.262-0.366c0.934-0.121,1.922-0.102,2.631-0.9
	c0.091-0.104,0.24-0.063,0.331,0.031c0.127,0.135,0.097,0.291-0.022,0.41c-0.13,0.131-0.333,0.209-0.41,0.357
	c-0.123,0.239-0.265,0.564,0.039,0.754c0.341,0.209,0.245-0.244,0.408-0.338c0.267-0.154,0.493-0.372,0.768-0.51
	c1.657-0.83,3.185-1.871,4.738-2.873c0.72-0.104,1.291-0.549,1.937-0.827c1.087-0.472,2.105-1.096,3.439-0.531
	c0.548,0.233,1.557,0.374,1.813-0.755c0.07-0.314,0.45-0.543,0.707-0.461c0.675,0.211,1.32,0.057,1.979,0.033
	c0.637-0.026,0.934,0.281,0.428,0.838c-0.461,0.51-0.192,0.574,0.281,0.63c0.26,0.03,0.485-0.091,0.713-0.099
	c0.559-0.026,1.251-0.535,1.644-0.004c0.467,0.633,0.951,0.5,1.447,0.308c0.629-0.241,1.226-0.558,1.831-0.86
	c0.107-0.012,0.205-0.067,0.299-0.147c0.651-0.067,1.043-0.646,1.601-0.845c1.078-0.386,2.081-0.02,2.991,0.582
	c0.873,0.576,1.877,0.705,2.341,0.001c0.59-0.901,0.812-0.285,1.252,0.054c0.499,0.381,1.069,1.064,1.659,0.822
	c0.709-0.297,1.187-0.039,1.716,0.211c0.546,0.262,1.029,0.021,1.532-0.063c0.366-0.063,0.784-0.285,1.08-0.033
	c1.125,0.965,2.494,0.377,3.67,0.397c0.852,0.015,1.816-0.058,2.729-0.113c0.932-0.043,1.846,0.069,2.74,0.344
	c0.805-0.058,1.667,0.334,2.393-0.313c0.959,0.283,1.824-0.678,2.802-0.209c0.071,0.033,0.244-0.061,0.32-0.141
	c0.941-0.992,2.345-1.13,3.425-1.857c0.961-0.324,1.467-1.412,2.563-1.508c0.036-0.002,0.087-0.094,0.094-0.147
	c0.067-0.542,0.513-0.741,0.908-0.933c0.972-0.47,1.688-1.258,2.514-1.914c0.272-0.039,0.482-0.182,0.665-0.383
	c0.487-0.104,0.95-0.299,1.303-0.645c0.281-0.276,0.46-0.67,0.909-0.714c1.017-0.101,1.735-0.737,2.475-1.343
	c0.749-0.616,0.75-1.908,1.928-2.139c0.271-1.354,1.426-1.818,2.435-2.431c0.242-0.054,0.499-0.187,0.717-0.142
	c0.539,0.107,1.292-0.037,1.211,0.944c-0.037,0.491,0.416,0.837,0.795,0.896c0.968,0.151,0.889,0.583,0.543,1.27
	c-0.201,0.399-0.045,0.899,0.389,0.978c0.662,0.12,1.412,0.221,1.828-0.572c0.5-0.482,1.201-0.351,1.783-0.577
	c0.474-0.646,1.449-0.698,1.782-1.509c0.407-0.073,0.756-0.248,1.008-0.592c-0.001,0-0.001,0,0.001-0.002
	c0.339-0.262,0.683-0.516,1.011-0.786c1.671-1.374,3.689-2.21,5.423-3.486c0.797-0.587,1.597-1.137,2.636-1.151
	c0.724-0.232,1.045-0.787,1.001-1.486c-0.042-0.672,0.266-1.111,0.705-1.531c0.409-0.393,0.712-0.482,1.11,0.078
	c0.476,0.674,1.134,0.662,1.777,0.184c0.271-0.203,0.498-0.596,0.777-0.628c1.278-0.149,1.762-1.396,2.781-1.923
	c0.642-0.33,1.021-1.189,1.968-0.738c0.099,0.047,0.303-0.047,0.421-0.131c0.856-0.596,1.701-1.203,2.548-1.811
	c1.123-1.044,1.879-2.527,3.566-2.896c0.241-0.055,0.49-0.287,0.645-0.504c0.86-1.195,1.816-2.385,2.264-3.764
	c0.543-1.668,1.522-2.805,3.037-3.524c0.621-0.298,0.95-0.685,1.056-1.368c0.193-1.268,0.515-1.555,1.792-1.801
	c1.346,1.021,2.914,0.044,4.332,0.463c0.081,0.025,0.246-0.085,0.309-0.176c0.355-0.517,0.926-0.575,1.466-0.68
	c0.7-0.135,1.211-0.531,1.601-1.111c1.318-1.04,2.04-2.488,2.771-3.95c0.557-1.11,1.129-2.261,1.933-3.19
	c1.25-1.453,2.7-2.734,4.065-4.088c0.454-0.352,0.978-0.643,1.349-1.067c0.634-0.724,1.739-0.866,2.168-1.813
	c-0.027-0.234-0.056-0.467-0.08-0.7c0.38-0.747-0.033-1.542,0.125-2.302c0.016-0.064-0.083-0.164-0.149-0.227
	c-1.057-1.007-2.297-1.75-3.517-2.531c-0.883-0.566-1.953-0.762-2.745-1.447c0.189-0.48,0.737-0.71,0.732-1.266
	c0.482-1.094,1.199-2.182,2.471-1.928c1.086,0.215,1.496-0.343,2.099-0.887c1.238-1.115,2.456-2.237,4.193-2.61
	c1.958-0.42,2.449-1.151,2.325-3.059c-0.013-0.063-0.023-0.124-0.035-0.187c0.238-0.426-0.063-0.949,0.191-1.346
	c0.818-1.287,1.535-2.682,3.139-3.214c0.56-0.187,0.979-0.722,0.813-1.196c-0.184-0.527-0.002-0.979-0.055-1.459
	c-0.098-0.889-0.181-1.779-0.23-2.67c-0.013-0.23-0.023-0.411-0.201-0.572c-0.475-0.425-0.204-0.688,0.154-1.038
	c0.607-0.588,1.24-1.147,1.425-2.079c0.232-1.173-0.31-2.13-0.711-3.113C236.61,141.266,236.535,140.612,236.449,140.008z
	 M214.59,20.315c0.971-0.192,1.734-1.409,1.465-2.49c-0.252-1.031-1.161-1.528-2.526-1.311c-0.712,0.113-1.378,1.393-1.212,2.189
	C212.551,19.839,213.526,20.53,214.59,20.315z M241.513,127.296c0.684,0.608,0.498,1.228,0.106,1.931
	c-0.336,0.605-0.889,0.329-1.314,0.407c-1.333,0.246-2.506-0.189-3.484-1.131c-0.911-0.481-1.97-0.148-2.922-0.618
	c-1.355-0.664-1.531-0.963-0.769-2.274c0.06-0.104,0.095-0.223,0.142-0.335c-1.205-1.317-0.471-1.854,0.842-2.794
	c0.196-0.14,0.452-0.158,0.645-0.344c0.436-0.424,1.623-0.326,2.015,0.138c0.075,0.091,0.11,0.218,0.164,0.326
	c0.86-0.62,1.44,0.255,2.009,0.531c1.103,0.537,2.36,0.957,3.176,1.928C242.672,125.711,242.436,126.787,241.513,127.296z
	 M233.732,124.335c-0.017,0.11-0.041,0.215-0.082,0.322C233.765,124.563,233.773,124.459,233.732,124.335z M248.658,94.206
	c-0.943,0.239-1.4,0.996-1.188,1.966c0.191,0.88,1.085,1.443,1.95,1.229c0.783-0.195,1.333-1.07,1.155-1.832
	C250.373,94.707,249.402,94.018,248.658,94.206z M49.394,207.888c-0.761,0.14-1.3,0.878-1.179,1.609
	c0.07,0.418,1.282,1.148,1.755,1.057c0.53-0.102,1.011-1.044,0.883-1.727C50.723,208.151,50.111,207.757,49.394,207.888z
	 M206.635,2.278c0.598-0.419,1.064-1.005,1.196-1.747c-0.119-0.281-0.318-0.429-0.557-0.498c-0.602-0.177-1.944,0.383-2.282,0.932
	c-0.255,0.416-0.28,0.879,0.105,1.163C205.543,2.453,206.156,2.613,206.635,2.278z M257.879,177.532
	c-0.577,0.13-1.093,0.869-0.855,1.389c0.24,0.518,0.485,1.182,1.303,1.009c0.799-0.204,1.331-0.847,1.178-1.417
	C259.358,177.972,258.424,177.407,257.879,177.532z M268.625,120.236c-0.586,0.104-1.099,0.938-0.965,1.574
	c0.091,0.45,1.034,1.14,1.413,0.95c0.537-0.267,1.124-0.571,1.052-1.221C270.005,120.866,269.108,120.151,268.625,120.236z
	 M49.057,194.759c-0.2,0.172-0.394,0.07-0.564-0.102c-0.383-0.388-0.806-0.381-1.254-0.115c-0.369,0.219-0.734,0.439-1.116,0.629
	c-0.168,0.083-0.498-0.025-0.38,0.334c0.076,0.224,0.303,0.172,0.479,0.127c1.293-0.324,2.685,0.102,3.968-0.572
	C49.878,194.648,49.569,194.324,49.057,194.759z M240.206,102.878c0.433-0.228,0.881-0.489,0.695-1.101
	c-0.215-0.724-0.824-0.902-1.464-0.782c-0.564,0.104-0.653,0.696-0.556,1.112C239.024,102.705,239.547,102.944,240.206,102.878z
	 M17.507,95.76c-0.755,0.127-0.978,0.638-0.904,1.156c0.078,0.57,0.559,0.859,1.153,0.762c0.716-0.116,0.838-0.718,0.776-1.262
	C18.463,95.813,17.944,95.712,17.507,95.76z M252.48,142.167c-0.573,0.119-1.022,0.424-0.878,1.161
	c0.152,0.778,0.788,0.76,1.295,0.691c0.496-0.065,0.701-0.532,0.654-0.929C253.389,142.412,253.061,142.045,252.48,142.167z
	 M260.2,85.284c-0.437,0.125-0.85,0.402-0.692,0.994c0.124,0.545,0.39,0.977,1.002,0.832c0.513-0.119,1.081-0.429,0.944-1.035
	C261.333,85.534,260.85,85.098,260.2,85.284z M221.924,70.501c-0.334,0.194-0.919,0.331-0.826,0.915
	c0.103,0.651,0.695,0.858,1.271,0.766c0.446-0.072,0.931-0.394,0.813-0.932C223.065,70.706,222.624,70.392,221.924,70.501z
	 M10.239,173.276c-0.64,0.147-0.911,0.63-0.836,1.244c0.058,0.46,0.41,0.725,0.871,0.557c0.502-0.182,1.127-0.348,0.949-0.92
	C11.046,173.446,10.756,173.156,10.239,173.276z M27.032,184.021c-0.607,0.109-0.71,0.494-0.568,1.005
	c0.051,0.591,0.438,0.854,0.939,0.753c0.663-0.136,0.651-0.748,0.598-1.259C27.943,183.931,27.488,183.938,27.032,184.021z
	 M38.712,197.524c-0.415,0.181-0.673,0.476-0.56,0.934c0.092,0.381,0.227,0.822,0.776,0.684c0.448-0.115,0.809-0.387,0.716-0.908
	C39.559,197.752,39.193,197.54,38.712,197.524z M18.468,170.892l-0.011-0.006c-0.584-0.351-0.999-0.006-1.35,0.375
	c-0.324,0.35-0.154,0.775,0.059,1.109c0.303,0.479,0.798,0.421,1.242,0.257c0.502-0.185,0.809-0.575,0.752-1.13
	C19.124,171.124,19.005,170.738,18.468,170.892z M130.573,14.271c0.391-0.088,0.476-0.432,0.433-0.812
	c-0.18-0.292-0.349-0.584-0.79-0.414c-0.402,0.157-0.589,0.412-0.464,0.857C129.881,14.359,130.261,14.339,130.573,14.271z
	 M261.958,78.916c-0.318,0.073-0.525,0.248-0.406,0.583c0.092,0.27,0.321,0.512,0.617,0.447c0.314-0.071,0.525-0.347,0.448-0.694
	C262.541,78.914,262.247,78.889,261.958,78.916z M70.503,230.229c-0.598,0.197-1.229,0.357-1.787,1.124
	c0.765-0.301,1.273-0.504,1.786-0.703c0.125-0.048,0.224-0.127,0.188-0.26C70.675,230.319,70.545,230.215,70.503,230.229z
	 M4.918,102.324c0.225-0.082,0.419-0.263,0.413-0.552c-0.16-0.185-0.274-0.425-0.593-0.347c-0.301,0.072-0.415,0.253-0.353,0.54
	C4.448,102.246,4.633,102.428,4.918,102.324z M9.958,157.856c0.321-0.597-0.129-1.09-0.557-1.506c-0.3,0.043-0.6,0.086-0.896,0.129
	c-0.492,0.07-0.858,0.323-1.02,0.797c-0.174,0.506,0.389,0.535,0.571,0.814c0.082,0.125,0.191,0.236,0.284,0.353
	C8.971,158.483,9.647,158.441,9.958,157.856z M14.239,164.851c-0.28-0.07-0.561-0.029-0.773,0.172
	c-0.323,0.309,0.063,0.544,0.123,0.811c0.15-0.021,0.302-0.04,0.451-0.068c0.295-0.056,0.525-0.188,0.527-0.528
	C14.566,165.026,14.433,164.898,14.239,164.851z M13.589,165.837c0,0,0-0.002-0.001-0.004c0,0,0,0-0.002,0.001L13.589,165.837z
	 M1.867,155.702C1.423,156.03,1,156.388,0.553,156.71c-0.647,0.465-0.676,1.036-0.346,1.695c0.414,0.824,1.201,1.188,2.273,0.965
	c0.813-0.1,1.414-0.701,1.758-1.467c0.301-0.667,0.377-1.439-0.29-2.034C3.297,155.289,2.606,155.153,1.867,155.702z M3.92,149.921
	c-1.014,0.236-2.005,1.577-1.825,2.468c0.119,0.58,1.573,1.206,2.388,1.021c1.415-0.316,2.01-1.07,1.771-2.241
	C6.052,150.199,5.046,149.66,3.92,149.921z" class="color c1"/>
</svg>