<svg version="1.1" id="图层_1" x="0px" y="0px" width="360.36px" height="500px" viewBox="0 0 360.36 500" enable-background="new 0 0 360.36 500" xml:space="preserve" xmlns="http://www.w3.org/2000/svg" xmlns:xlink="http://www.w3.org/1999/xlink" xmlns:xml="http://www.w3.org/XML/1998/namespace">
  <path fill="#03BBD8" d="M244.745,7.507v184.685l109.309-63.063C339.338,72.973,298.198,27.928,244.745,7.507z" class="color c1"/>
  <path fill="#C0DA55" d="M358.258,147.447L198.198,239.94l109.311,63.063c32.732-32.731,52.852-77.478,52.852-127.327
	C360.36,166.066,359.459,156.757,358.258,147.447z" class="color c2"/>
  <path fill="#693DB8" d="M162.162,111.412L52.853,48.348C20.12,81.081,0,125.826,0,175.676c0,9.609,0.901,18.919,2.103,28.228
	L162.162,111.412z" class="color c3"/>
  <path fill="#FE9903" d="M133.633,349.85c14.715,3.904,30.33,6.006,46.547,6.006c42.942,0,82.281-15.015,113.514-40.239
	l-160.061-92.192V349.85L133.633,349.85z" class="color c4"/>
  <path fill="#2497F2" d="M226.727,6.006C212.012,2.102,196.397,0,180.18,0C137.237,0,97.898,15.015,66.666,40.24l160.062,92.192
	V6.006z" class="color c5"/>
  <path fill="#EA1E63" d="M2.102,383.184c16.517,52.553,56.156,94.896,107.507,114.414c0,0,4.204,1.501,6.006,2.402V372.673V159.159
	L2.102,224.925V383.184z" class="color c6"/>
</svg>