<svg version="1.1" id="图层_1" x="0px" y="0px" width="119.682px" height="136.436px" viewBox="0 0 119.682 136.436" enable-background="new 0 0 119.682 136.436" xml:space="preserve" xmlns="http://www.w3.org/2000/svg" xmlns:xlink="http://www.w3.org/1999/xlink" xmlns:xml="http://www.w3.org/XML/1998/namespace">
  <path fill="#282828" d="M105.95,85.174c-6.029-1.512-17.592-8.116-17.592-8.116c0.615-3.706,4.269-5.769,6.301-6.645l-4.713-4.39
	l6.053,3.883c0.006-0.002,0.025-0.008,0.025-0.008l11.525,7.628l2.619,12.508l9.513,10.188
	c-12.185-42.723-11.778-73.765-11.778-73.765C95.279,42.275,73.556,51.253,73.556,51.253c17.007-9.371,25.479-21.436,25.479-21.436
	l-9.965-5.693l7.377-9.975C69.016-1.563,50.361,6.066,50.361,6.066L52.395,0C19.6,8.876,12.344,36.786,12.344,36.786l-2.642-9.721
	c-13.604,9.092,2.406,34.077,10.164,56.729c0,0,14.66,38.054-19.866,32.59c0,0,33.318,18.111,48.284-28.624l11.335,26.049
	c4.343-6.354,7.262-13.776,7.555-22.992c0,0,2.151,8.043-4.282,24.808l48.635,20.811C105.452,112.71,105.95,85.174,105.95,85.174z" class="color c1"/>
</svg>