<svg version="1.1" id="图层_1" x="0px" y="0px" width="180.002px" height="180px" viewBox="0 0 180.002 180" enable-background="new 0 0 180.002 180" xml:space="preserve" xmlns="http://www.w3.org/2000/svg" xmlns:xlink="http://www.w3.org/1999/xlink" xmlns:xml="http://www.w3.org/XML/1998/namespace">
  <polyline fill="#A0E0F0" points="15.39,40.136 15.39,128.355 102.183,38.388 15.39,38.388 " class="color c1"/>
  <path transform="translate(0,-988.36218)" fill="#005F97" d="M173.386,988.365c-1.668,0.047-3.254,0.742-4.418,1.938L1.884,1157.388
	c-2.512,2.51-2.512,6.579-0.004,9.091c2.51,2.511,6.58,2.512,9.092,0.003l30.563-30.563c0.65,0.209,1.33,0.313,2.014,0.307h84.979
	c3.551,0,6.426-2.877,6.428-6.426v-37.686l28.016,23.346c2.725,2.273,6.777,1.906,9.051-0.82c0.963-1.155,1.492-2.613,1.49-4.118
	v-70.689c-0.002-3.55-2.881-6.426-6.432-6.423c-0.059,0-0.121,0.001-0.182,0.002c-1.639,0.048-3.195,0.719-4.355,1.877
	l-27.588,27.587v-19.78c0-0.191-0.008-0.381-0.025-0.571l43.127-43.127c2.545-2.475,2.602-6.542,0.129-9.088
	C176.929,989.017,175.187,988.311,173.386,988.365z M12.853,1020.552c-3.549,0-6.426,2.878-6.426,6.427v83.543
	c-0.049,3.549,2.787,6.466,6.336,6.517s6.467-2.786,6.518-6.336c0.002-0.06,0.002-0.121,0-0.181v-77.117h76.443
	c3.551,0.051,6.469-2.786,6.518-6.334c0.051-3.549-2.785-6.468-6.336-6.519c-0.059,0-0.121,0-0.182,0H12.853z M122.101,1055.351
	v23.133v44.89H54.08L122.101,1055.351z M160.66,1055.351v41.45l-22.611-18.839L160.66,1055.351z" class="color c2"/>
</svg>