<svg version="1.1" id="图层_1" x="0px" y="0px" width="200px" height="97.789px" viewBox="0 0 200 97.789" enable-background="new 0 0 200 97.789" xml:space="preserve" xmlns="http://www.w3.org/2000/svg" xmlns:xlink="http://www.w3.org/1999/xlink" xmlns:xml="http://www.w3.org/XML/1998/namespace">
  <g>
    <g>
      <g>
        <path fill="#FF2A48" d="M15,46.502l-0.744-0.459c-2.477-1.531-6.53-4.036-9.007-5.566l-0.744-0.459
				C2.027,38.486,0,39.739,0,42.802v0.917c0,3.062,0,8.072,0,11.134v0.918c0,3.062,2.027,4.313,4.505,2.783l0.744-0.46
				c2.477-1.529,6.53-4.035,9.007-5.566L15,52.069C17.479,50.538,17.479,48.032,15,46.502z" class="color c1"/>
      </g>
      <g>
        <path fill="#FF2A48" d="M93.979,61.934l-1.151-0.712c-3.836-2.37-10.113-6.249-13.95-8.618l-1.15-0.712
				c-3.836-2.37-6.975-0.43-6.975,4.311v1.422c0,1.397,0,3.061,0,4.828c0,4.228,0,9.067,0,12.411v1.421
				c0,4.741,3.139,6.68,6.975,4.31l1.15-0.712c1.812-1.118,4.166-2.573,6.551-4.047c2.668-1.648,5.374-3.32,7.399-4.571l1.151-0.712
				C97.814,68.183,97.814,64.303,93.979,61.934z" class="color c1"/>
      </g>
      <g>
        <path fill="#FF2A48" d="M192.571,36.345c-0.547-0.398-1.115-0.788-1.724-1.164l-3.664-2.265
				c-12.21-7.543-32.189-19.888-44.4-27.433L139.12,3.22c-12.21-7.544-22.201-1.371-22.201,13.717v4.528c0,8.232,0,19.321,0,30.15
				c0,6.972,0,13.832,0,19.756c0,1.739,0,3.402,0,4.959v4.528c0,4.776,1.005,8.656,2.76,11.494c3.579,5.78,10.29,7.216,18.051,3.022
				c0.46-0.249,0.923-0.512,1.391-0.8l3.663-2.265c11.614-7.175,30.252-18.69,42.552-26.29c0.631-0.391,1.252-0.773,1.849-1.142
				l3.664-2.265C202.449,55.445,203.019,43.945,192.571,36.345z" class="color c1"/>
      </g>
      <g>
        <path fill="#FF2A48" d="M72.489,28.104l1.513-0.934c5.04-3.115,5.04-8.21,0-11.323l-1.513-0.935
				C67.45,11.799,59.204,6.704,54.165,3.592l-1.513-0.936c-1.519-0.938-2.95-1.353-4.215-1.317
				c-0.455,0.013-0.886,0.091-1.293,0.221c-0.705,0.225-1.329,0.619-1.854,1.173c-1.125,1.186-1.801,3.082-1.801,5.586v1.868
				c0,6.228,0,16.418,0,22.645V34.7c0,6.227,4.123,8.775,9.163,5.662l1.513-0.936c0.251-0.155,0.517-0.319,0.783-0.484
				c2.293-1.417,5.112-3.158,7.962-4.919c2.79-1.724,5.595-3.457,7.956-4.915C71.434,28.758,71.981,28.419,72.489,28.104z" class="color c1"/>
      </g>
    </g>
    <g>
      <path opacity="0.3" fill="#EDF1FC" d="M93.979,61.934l-1.151-0.712c-3.836-2.37-10.113-6.249-13.95-8.618l-1.15-0.712
			c-3.836-2.37-6.975-0.43-6.975,4.311v1.422c0,1.397,0,3.061,0,4.828c4.436,4.927,9.352,9.414,14.676,13.383
			c2.668-1.648,5.374-3.32,7.399-4.571l1.151-0.712C97.814,68.183,97.814,64.303,93.979,61.934z" class="color c2"/>
      <path opacity="0.3" fill="#EDF1FC" d="M192.571,36.345c-0.547-0.398-1.115-0.788-1.724-1.164l-3.664-2.265
			c-12.21-7.543-32.189-19.888-44.4-27.433L139.12,3.22c-12.21-7.544-22.201-1.371-22.201,13.717v4.528c0,8.232,0,19.321,0,30.15
			c0,6.972,0,13.832,0,19.756c0,1.739,0,3.402,0,4.959v4.528c0,4.776,1.005,8.656,2.76,11.494
			c5.827,1.534,11.859,2.561,18.051,3.022c0.46-0.249,0.923-0.512,1.391-0.8l3.663-2.265c11.614-7.175,30.252-18.69,42.552-26.29
			c0.631-0.391,1.252-0.773,1.849-1.142l3.664-2.265C202.449,55.445,203.019,43.945,192.571,36.345z" class="color c2"/>
      <path opacity="0.3" fill="#EDF1FC" d="M72.489,28.104l1.513-0.934c5.04-3.115,5.04-8.21,0-11.323l-1.513-0.935
			C67.45,11.799,59.204,6.704,54.165,3.592l-1.513-0.936c-1.519-0.938-2.95-1.353-4.215-1.317c-0.455,0.013-0.886,0.091-1.293,0.221
			c-0.705,0.225-1.329,0.619-1.854,1.173c0.933,12.899,4.304,25.123,9.658,36.21c2.293-1.417,5.112-3.158,7.962-4.919
			c2.79-1.724,5.595-3.457,7.956-4.915C71.434,28.758,71.981,28.419,72.489,28.104z" class="color c2"/>
    </g>
    <g>
      <path opacity="0.3" fill="#EDF1FC" d="M192.571,36.345c-0.547-0.398-1.115-0.788-1.724-1.164l-3.664-2.265
			c-12.21-7.543-32.189-19.888-44.4-27.433L139.12,3.22c-12.21-7.544-22.201-1.371-22.201,13.717v4.528c0,8.232,0,19.321,0,30.15
			c0,6.972,0,13.832,0,19.756c8.55,2.371,17.555,3.644,26.859,3.644c14.824,0,28.896-3.22,41.557-8.994
			c0.631-0.391,1.252-0.773,1.849-1.142l3.664-2.265C202.449,55.445,203.019,43.945,192.571,36.345z" class="color c2"/>
      <path opacity="0.3" fill="#EDF1FC" d="M74.002,15.848l-1.513-0.935C67.45,11.799,59.204,6.704,54.165,3.592l-1.513-0.936
			c-1.519-0.938-2.95-1.353-4.215-1.317c-0.455,0.013-0.886,0.091-1.293,0.221c3.28,11.848,8.679,22.813,15.766,32.464
			c2.79-1.724,5.595-3.457,7.956-4.915c0.567-0.351,1.115-0.689,1.623-1.004l1.513-0.934C79.042,24.056,79.042,18.961,74.002,15.848
			z" class="color c2"/>
    </g>
    <g>
      <path opacity="0.3" fill="#EDF1FC" d="M190.848,35.181l-3.664-2.265c-12.21-7.543-32.189-19.888-44.4-27.433L139.12,3.22
			c-12.21-7.544-22.201-1.371-22.201,13.717v4.528c0,8.232,0,19.321,0,30.15c6.314,1.246,12.84,1.905,19.52,1.905
			c20.798,0,40.117-6.334,56.133-17.176C192.024,35.946,191.456,35.557,190.848,35.181z" class="color c2"/>
      <path opacity="0.3" fill="#EDF1FC" d="M74.002,15.848l-1.513-0.935C67.45,11.799,59.204,6.704,54.165,3.592l-1.513-0.936
			c-1.519-0.938-2.95-1.353-4.215-1.317c5.778,10.553,13.397,19.955,22.429,27.77c0.567-0.351,1.115-0.689,1.623-1.004l1.513-0.934
			C79.042,24.056,79.042,18.961,74.002,15.848z" class="color c2"/>
    </g>
  </g>
</svg>