<svg version="1.1" id="图层_1" x="0px" y="0px" width="111.834px" height="51.915px" viewBox="0 0 111.834 51.915" enable-background="new 0 0 111.834 51.915" xml:space="preserve" xmlns="http://www.w3.org/2000/svg" xmlns:xlink="http://www.w3.org/1999/xlink" xmlns:xml="http://www.w3.org/XML/1998/namespace">
  <path fill="#1B1D1C" d="M37.637,15.958c-0.02,0.047-0.043,0.091-0.07,0.139L20.581,42.581c-0.244,0.381-0.748,0.491-1.129,0.245
	c-0.383-0.245-0.492-0.75-0.246-1.131l16.906-26.363c-0.629-0.273-1.246-0.552-1.857-0.845L13.012,35.587
	c-0.32,0.32-0.838,0.316-1.158-0.004c-0.32-0.32-0.316-0.838,0.004-1.158L32.71,13.717c-0.787-0.406-1.564-0.828-2.324-1.254
	L7.133,28.328c-0.375,0.255-0.883,0.16-1.139-0.215c-0.256-0.375-0.16-0.882,0.215-1.138l22.6-15.422
	c-1.176-0.688-2.328-1.393-3.465-2.091L1.188,21.664c-0.4,0.204-0.896,0.041-1.1-0.361c-0.205-0.402-0.041-0.896,0.359-1.101
	L23.706,8.454c-5.25-3.223-10.299-6.146-16.154-6.82C7.102,1.582,6.778,1.177,6.829,0.728c0.053-0.45,0.457-0.773,0.906-0.722
	c6.602,0.763,12.084,4.136,17.881,7.706c6.267,3.86,12.922,7.954,21.715,9.048c0.104-0.01,0.215,0.003,0.32,0.037h0.004
	c1.504,0.174,3.074,0.259,4.713,0.242h0.016c7.602,0.088,13.67-2.061,19.068-4.861c0.037-0.041,0.082-0.075,0.125-0.109
	c0.103-0.071,0.217-0.112,0.332-0.133c2.52-1.332,4.895-2.793,7.221-4.224c5.799-3.57,11.281-6.946,17.883-7.706
	c0.449-0.051,0.854,0.272,0.906,0.722c0.051,0.45-0.273,0.855-0.723,0.906c-0.521,0.062-1.033,0.136-1.539,0.232l15.611,5.134
	c0.43,0.14,0.664,0.603,0.525,1.033c-0.141,0.429-0.604,0.664-1.033,0.524L92.678,2.611c-3.828,1.207-7.393,3.25-11.037,5.475
	L104.1,23.923c0.371,0.259,0.461,0.77,0.197,1.141c-0.258,0.371-0.77,0.46-1.141,0.197L80.118,9.016l-0.137,0.085
	c-1.066,0.658-2.145,1.322-3.242,1.976l20.498,20.637c0.32,0.32,0.316,0.838-0.004,1.158c-0.32,0.321-0.838,0.317-1.158-0.003
	L75.28,11.931c-0.67,0.388-1.348,0.767-2.035,1.142l16.732,24.524c0.256,0.374,0.16,0.882-0.215,1.138
	c-0.375,0.255-0.883,0.16-1.139-0.215L71.786,13.843c-0.912,0.466-1.842,0.913-2.801,1.332l14.328,28.366
	c0.205,0.402,0.041,0.896-0.361,1.1c-0.402,0.204-0.895,0.042-1.1-0.361L67.473,15.815c-2.141,0.855-4.398,1.57-6.824,2.071
	l5.633,32.557c0.074,0.446-0.227,0.869-0.672,0.947c-0.447,0.075-0.869-0.225-0.947-0.671l-5.627-32.536
	c-0.979,0.156-1.98,0.283-3.012,0.364l-0.113,32.55c0,0.45-0.363,0.818-0.818,0.818c-0.449,0-0.816-0.365-0.816-0.818l0.111-32.451
	c-0.598,0.023-1.209,0.034-1.824,0.031l-5.938,31.449c-0.082,0.443-0.512,0.736-0.955,0.654c-0.441-0.082-0.734-0.511-0.654-0.954
	l5.885-31.16c-1.012-0.024-1.994-0.088-2.951-0.184L37.714,49.615c-0.141,0.43-0.604,0.665-1.033,0.525
	c-0.428-0.14-0.662-0.603-0.523-1.032l10.137-30.83c-3.137-0.456-5.998-1.277-8.668-2.316L37.637,15.958z" class="color c1"/>
</svg>