<svg version="1.1" id="图层_1" x="0px" y="0px" width="139.305px" height="175.665px" viewBox="0 0 139.305 175.665" enable-background="new 0 0 139.305 175.665" xml:space="preserve" xmlns="http://www.w3.org/2000/svg" xmlns:xlink="http://www.w3.org/1999/xlink" xmlns:xml="http://www.w3.org/XML/1998/namespace">
  <g>
    <g>
      <g>
        <path fill="#23134D" d="M123.713,74.608c3.4,13.039,11.033,16.094,12.521,15.705c1.486-0.387,4.518-6.303,1.117-19.342
				c-3.401-13.038-8.189-28.563-9.677-28.176C126.188,43.185,120.312,61.571,123.713,74.608z" class="color c1"/>
        <path fill="#23134D" d="M21.23,74.608C17.83,87.647,10.197,90.702,8.71,90.313c-1.487-0.387-4.519-6.303-1.118-19.342
				c3.401-13.038,8.189-28.563,9.677-28.176C18.756,43.185,24.632,61.571,21.23,74.608z" class="color c1"/>
      </g>
    </g>
    <path fill="#7630E7" d="M101.262,88.609l0.031,0.004c0.347-0.016,2.292,0.209,5.533,0.594c10.337,0.476,29.303,1.106,29.303,1.106
		s-4.848-1.605-6.961-17.848c-1.353-10.396-1.648-29.662-1.648-29.662s-13.549,13.787-38.722,17.567
		c0.068-0.226-8.496-0.308-16.326-0.272c-7.83-0.035-16.394,0.047-16.326,0.272c-25.173-3.78-38.722-17.567-38.722-17.567
		s-0.296,19.266-1.648,29.662c-2.113,16.242-6.961,17.848-6.961,17.848s18.966-0.631,29.303-1.106
		c3.241-0.385,5.187-0.609,5.533-0.594l0.031-0.004c0,0.002,0,0.003,0,0.005c0.02,0.002,0.031,0.006,0.031,0.012
		c-0.003,0.143-0.011,0.283-0.015,0.426c0.018,0.462,0.028,1.184-0.059,1.75c-1.168,25.795-13.404,48.703-32.068,64.099
		c16.845,13.017,37.966,20.765,60.901,20.765c22.934,0,44.056-7.748,60.9-20.765c-18.665-15.396-30.901-38.304-32.069-64.099
		c-0.087-0.566-0.076-1.288-0.059-1.75c-0.004-0.143-0.012-0.283-0.015-0.426c0-0.006,0.012-0.01,0.031-0.012
		C101.262,88.612,101.262,88.611,101.262,88.609z" class="color c2"/>
    <path fill="#FFFFFF" d="M86.142,36.289c0,7.196-5.834,13.03-13.03,13.03l0,0c-7.196,0-13.03-5.834-13.03-13.03l0,0
		c0-7.196,5.834-13.03,13.03-13.03l0,0C80.308,23.259,86.142,29.093,86.142,36.289L86.142,36.289z" class="color c3"/>
    <g>
      <g>
        <path fill="#23134D" d="M73.513,31.962c0.418,0.674,1.157,1.125,2.008,1.125c0.85,0,1.59-0.451,2.007-1.125H73.513z" class="color c1"/>
        <path fill="#23134D" d="M67.976,33.087c0.849,0,1.589-0.451,2.007-1.125h-4.016C66.385,32.636,67.125,33.087,67.976,33.087z" class="color c1"/>
      </g>
    </g>
    <g>
      <g>
        <polygon fill="#FFCA61" points="21.801,17.204 21.523,18.647 20.547,17.55 19.089,17.732 19.831,16.464 19.207,15.134 
				20.643,15.446 21.715,14.442 21.86,15.903 23.146,16.614 			" class="color c4"/>
        <polygon fill="#FFCA61" points="29.54,14.241 30.348,15.951 28.5,15.553 27.124,16.849 26.931,14.968 25.272,14.06 
				27.003,13.296 27.354,11.438 28.614,12.847 30.49,12.606 			" class="color c4"/>
        <polygon fill="#FFCA61" points="30.495,21.735 30.933,22.661 29.932,22.445 29.187,23.147 29.081,22.129 28.184,21.637 
				29.121,21.223 29.312,20.217 29.994,20.979 31.01,20.85 			" class="color c4"/>
      </g>
    </g>
    <path fill="#FFFFFF" d="M137.93,49.178c2.006-2.269,1.793-5.732-0.474-7.737c-2.268-2.006-5.732-1.795-7.736,0.473
		c-0.271,0.304-2.457,2.3-2.728,2.594l0.552,13.801C129.792,56.339,135.748,51.646,137.93,49.178z" class="color c3"/>
    <path fill="#FFFFFF" d="M17.399,58.308l0.552-13.801c-0.271-0.294-2.457-2.29-2.727-2.594c-2.005-2.268-5.47-2.479-7.737-0.473
		c-2.267,2.005-2.479,5.469-0.473,7.737C9.195,51.646,15.152,56.339,17.399,58.308z" class="color c3"/>
    <rect x="12.138" y="15.631" transform="matrix(0.8857 0.4642 -0.4642 0.8857 21.0229 -1.3241)" fill="#00CAEC" width="2.125" height="52.81" class="color c5"/>
    <path fill="#FFFFFF" d="M13.76,44.397c-1.598-0.959-2.526-2.602-2.646-4.328c-1.289,0.002-2.584,0.449-3.626,1.371
		c-2.267,2.005-2.479,5.469-0.473,7.737c2.181,2.468,8.138,7.161,10.385,9.13l0.476-11.896
		C16.231,45.689,14.737,44.983,13.76,44.397z" class="color c3"/>
    <path fill="#D0E2FA" d="M91.924,46.313c0-7.674-4.414-14.313-10.84-17.527c0,0-1.02-0.652-1.884-0.678l0.634,11.049
		c0,1.193-0.262,2.324-0.724,3.344c-0.227-0.852-0.463-1.695-0.844-2.514c-1.207-2.639-4.148-3.52-6.26-2.463
		c-0.226,0.125-0.401,0.074-0.628-0.025c-2.388-1.006-5.028,0.051-6.134,2.389c-0.415,0.844-0.686,1.736-0.928,2.635
		c-0.468-1.025-0.732-2.164-0.732-3.365V28.563c0.224-5.002-12.441,3.961-10.487,21.475c0.345-1.285,0.82-2.519,1.402-3.688
		c-1.82,9.805,3.554,44.339,3.988,48.254c0.704,6.328,9.984,50.602,10.077,56.127c0.033,1.959-1.588,3.547-3.547,3.547
		s-3.547-1.588-3.547-3.547s1.588-3.547,3.547-3.547c0.885,0,1.684,0.336,2.305,0.871c-0.934-1.136-2.33-1.871-3.917-1.871
		c-2.829,0-5.121,2.293-5.121,5.121c0,0.225,0.077,1.145,0.301,1.953c0.903,3.262,3.85,5.68,7.396,5.68
		c3.681,0,6.751-2.594,7.492-6.053c3.244-11.016,11.504-56.285,11.8-60.564c0.167-2.418,6.191-35.752,4.793-46.167
		c0.628,1.228,1.136,2.526,1.5,3.884C91.798,48.833,91.924,47.588,91.924,46.313z M73.223,47.137
		c-0.498-0.021-1.002-0.032-1.514-0.032c-0.511,0-1.015,0.012-1.513,0.032c-0.834-0.157-1.619-0.448-2.342-0.839
		c0.877-1.498,1.582-3.093,2.293-4.676c0.226-0.503,0.452-1.006,0.854-1.408c0.502-0.502,0.93-0.502,1.407,0.025
		c0.428,0.427,0.629,1.006,0.88,1.559c0.676,1.541,1.379,3.076,2.224,4.527C74.804,46.702,74.036,46.983,73.223,47.137z" class="color c6"/>
    <path fill="#23134D" d="M76.321,15.552c-4.197-4.508-12.7-11.684-21.678-14.09c-16.247-4.355-16.96,2.227-17.646,4.111
		c9.48-0.545,15.251,8.174,16.097,19.477C56.948,23.103,73.176,16.208,76.321,15.552z" class="color c1"/>
    <path fill="#7630E7" d="M85.57,31.871c8.52-4.667,13.953-10.211,12.74-13.935c-1.406-4.314-10.842-5.305-22.813-2.932
		c-3.283,0.65-6.756,1.553-10.309,2.709c-4.615,1.505-8.873,3.279-12.573,5.174c-9.522,4.879-15.348,10.561-14.059,14.521
		c1.144,3.507,5.886,5.387,14.685,4.481C55.973,33.997,68.43,21.354,85.57,31.871z" class="color c2"/>
  </g>
</svg>