<svg version="1.1" id="图层_1" x="0px" y="0px" width="46.17px" height="46.171px" viewBox="0 0 46.17 46.171" enable-background="new 0 0 46.17 46.171" xml:space="preserve" xmlns="http://www.w3.org/2000/svg" xmlns:xlink="http://www.w3.org/1999/xlink" xmlns:xml="http://www.w3.org/XML/1998/namespace">
  <g>
    <path fill="#040000" d="M23.085,0C10.337,0,0,10.337,0,23.086c0,12.748,10.337,23.085,23.085,23.085
		c5.469,0,10.49-1.906,14.446-5.086c-2.686-0.806-4.644-3.293-4.644-6.242c0-3.602,2.918-6.52,6.52-6.52
		c2.206,0,4.152,1.098,5.332,2.774c0.924-2.496,1.431-5.194,1.431-8.012C46.17,10.337,35.833,0,23.085,0z M15.715,19.041
		c-3.359,0-6.083-2.724-6.083-6.085c0-3.359,2.724-6.083,6.083-6.083c3.361,0,6.085,2.724,6.085,6.083
		C21.8,16.317,19.076,19.041,15.715,19.041z" class="color c1"/>
  </g>
</svg>