<svg version="1.1" id="图层_1" x="0px" y="0px" width="146.654px" height="143.782px" viewBox="0 0 146.654 143.782" enable-background="new 0 0 146.654 143.782" xml:space="preserve" xmlns="http://www.w3.org/2000/svg" xmlns:xlink="http://www.w3.org/1999/xlink" xmlns:xml="http://www.w3.org/XML/1998/namespace">
  <path fill="#EBDDBA" d="M146.51,79.329c-0.087,0.118-0.17,0.239-0.248,0.363c0.01-1.223,0.021-2.385-0.423-3.548
	c-0.2-0.526-1.33-3.389-2.191-2.213c-0.051-0.471-0.149-0.909-0.674-0.994c0.127-0.566,0.758-0.681,0.811-1.364
	c0.061-0.785-0.151-1.572-0.137-2.359c-0.182,0.075-0.17,0.084-0.254,0.24c-0.146-0.14-0.684-0.255-0.433,0.049
	c0.271,0.329,0.12,1.127,0.14,1.655c0.025,0.656-0.097,1.164-0.356,1.75c-0.023,0-0.188,0.49-0.359,0.539
	c-0.021-0.034-0.081-0.733-0.255-0.404c-0.152,0.236,0.031,0.474,0.078,0.719c0.103,0.533,0.191,1.879-0.598,1.966
	c-0.066-0.478,0.431-0.87,0.245-1.251c-0.175-0.358-0.188-1.004-0.72-1.012c-0.255,0.272,0.006,0.621-0.058,0.945
	c-0.151-0.266-0.268-0.313-0.484-0.115c0.136-0.459-0.069-0.87-0.299-1.254c0.166-0.57,0.377-1.146,0.732-1.628
	c-0.698-0.105-0.536-0.813-0.549-1.283c0.473-0.151,0.146,0.505,0.531,0.39c-0.031-0.249,0.086-0.595,0.11-0.843
	c0.054-0.53-0.286-0.597-0.334-0.054c-0.094,0.771-0.429-0.271-0.479-0.53c-0.114-0.59-0.077-1.21,0.045-1.796
	c-0.777,0.31-0.208-2.449-0.12-2.773c0.232-0.859-0.249-2.728,0.59-3.273c0.174,0.691,0.159,1.39,0.203,2.095
	c0.025,0.398,0.32,0.92,0.383,0.094l0.003,0.003c0.152-0.244,0.068-2.178,0.379-2.105c0.45,0.105,0.357,0.552,0.409,0.884
	c0.051,0.325,0.134,0.643,0.229,0.957c-0.228,0.172-0.266,0.212-0.155,0.399c0.107,0.182,0.166,0.52,0.41,0.203
	c0.225-0.292,0.319-0.017,0.391,0.27c0.216,0.873,0.357,1.662-0.218,2.434c0.58-0.406,0.168,1.02,0.814,1.016
	c0.475-0.535,0.267-1.558,0.295-2.206c0.252-0.687,0.626-1.176,0.507-1.953c0.096,0.022,0.184,0.063,0.263,0.123
	c-0.156-0.661-0.008-0.996-0.293-1.558c-0.269-0.529-0.536-1.117-0.713-1.626c-0.04-0.155-0.023-1.213-0.27-1.146
	c-0.169,0.06,0.019,1.015,0.059,1.177c-1.316,0.066-0.223,2.079-0.808,2.817c-0.277-0.92-0.201-1.769-0.325-2.706
	c-0.04-0.301,0.055-0.603-0.13-0.864c-0.244-0.346-0.336-0.764-0.39-1.176c-0.27-2.052-0.479-4.853-1.863-6.506
	c-0.005,0.763,0.136,1.636-0.227,2.159c-0.427-1.034-0.279-2.165-0.653-3.201c-0.233-0.644-0.652-0.991-0.699-1.701
	c-0.036-0.529,0.01-1.214-0.415-1.612c0.024,0.055,0.012,0.095-0.037,0.119c-0.104-0.01-0.136-1.835-0.163-2.048
	c-0.025-0.205-0.292-1.076-0.059-1.089c0.15,0.4,0.28,0.808,0.385,1.222c0.161,0.64,0.225,1.35,0.436,1.968
	c0.122,0.354,0.306,0.68,0.455,1.021c0.154,0.352,0.085,0.729,0.214,1.058c0.081,0.226,0.396,0.274,0.429-0.002
	c0.046-0.452-0.092-0.887-0.272-1.294c-0.179-0.402-0.447-0.731-0.338-1.174c0.093-0.373,0.18-0.747,0.194-1.132
	c0.013-0.335-0.028-0.669-0.118-0.992c-0.313-0.136-0.505-0.416-0.639-0.717c-0.246-0.558-0.347-1.408-1.005-1.649
	c-0.136,0.402,0.156,1.164,0.345,1.507c-0.151-0.032-0.276,0.007-0.376,0.119c-0.118-0.247-0.235-0.495-0.354-0.742
	c-0.242,0.424-0.643,0.322-1.022,0.176c-0.481-0.186-0.486-0.237-0.616-0.742c-0.211-1.033-0.48-2.171-0.487-3.228
	c0.781,0.022,0.24-0.507,0.049-0.998c-0.246-0.629-0.518-1.509-1.25-1.724c0.096,0.028-0.114,0.138-0.177,0.115
	c-0.22-0.08-0.075-0.5-0.077-0.664c-0.005-0.628-0.169-1.245-0.421-1.818c0.26-0.07,0.354,0.059,0.365,0.323
	c0.372-0.156,0.049-0.582,0.029-0.84c-0.021-0.276,0.267-0.126,0.271-0.366c0.004-0.192-0.192-0.392-0.303-0.524
	c-0.551,0.996-1.992-0.702-1.803-1.449c0.127,0.138,0.252,0.373,0.383,0.309c-0.005-0.01-0.324-0.526-0.338-0.417
	c0.044-0.135,0.375-0.185,0.341-0.316c-0.075-0.259-0.412,0.018-0.477,0.112c-0.232-0.526-0.568,0.098-0.872-0.145
	c-0.162-0.412-0.271-0.156-0.541-0.308c-0.253-0.143-0.09-0.507-0.317-0.715c-0.26-0.239-0.648-0.377-0.807-0.662
	c-0.083-0.724-0.619-1.329-0.88-1.991c-0.137-0.347-0.026-0.4-0.369-0.567c-0.335-0.164-0.598-0.445-0.825-0.734
	c-0.525-0.669-0.899-1.529-1.594-2.049c-0.305-0.228-0.428-0.123-0.563-0.483c-0.147-0.396-0.433-0.738-0.703-1.056
	c-0.55-0.645-1.211-1.25-1.585-2.023c-0.496,0.307-1.784-1.074-2.183-1.407c-0.445-0.372-1.263-1.417-1.879-0.896
	c-0.279-0.317-0.379-0.575-0.623-0.903c0.214,0.127,0.787,0.132,0.382-0.137c-0.247-0.166-0.522-0.349-0.833-0.355
	c-0.146-0.193-0.237-0.419-0.361-0.625l0.064,0.009c-0.169-0.173-1.537-2.389-1.478-1.012c-0.418-0.365-0.878-0.675-1.324-1.004
	c0.107-0.558-0.461-1.221-1.034-1.174c-0.865,0.071-2.045-0.794-2.427-1.62c0.179,0.073,0.396,0.238,0.486,0.127
	c-0.63-0.231-1.232-0.521-1.878-0.711c-0.313-0.092-0.661-0.02-0.747-0.398c-0.077-0.338-0.086-0.437-0.475-0.338
	c-0.407,0.103-0.681-0.412-0.762-0.667c-0.121-0.378-1.583-1.22-1.401-1.571c-0.382,0.143-1.172-0.709-1.439-0.954
	c-0.1-0.09-0.545-0.498-0.684-0.242c-0.104,0.19,0.511,0.532,0.613,0.678c-0.135,0.168-0.094,0.434,0.021,0.669
	c-1.052-0.589-2.222-0.952-3.366-1.311c-0.273-0.128-0.591-0.254-0.901-0.387c-0.288-0.54-0.963-0.439-1.472-0.377
	c0.133,0.054,0.325,0.521,0.045,0.397c-0.325-0.405-0.717-0.752-1.152-1.034c-0.424-0.275-0.885-0.489-1.359-0.663
	c-0.242-0.089-1.383-0.269-1.489-0.455c0.499-0.25,1.485,0.294,2.025,0.464c0.661,0.208,1.192,0.125,1.875,0.328
	c0.721,0.214,1.313,0.782,2.07,1.014c0.432,0.132,0.854,0.143,1.201,0.436c0.332,0.281,0.677,0.563,1.077,0.741
	c0.115,0.051,1.024,0.638,0.734,0.054c-0.336-0.679-0.916-0.953-1.468-1.444c-0.127-0.114-0.438-0.79-0.745-0.649
	c-0.553-0.241-1.082-0.972-1.703-0.998c-0.102,0.343,0.07,0.642,0.269,0.907c-0.264-0.093-0.534-0.095-0.771,0.072
	c-0.177-0.007-0.66-0.298-0.921-0.359c-0.539-0.123-1.258-0.6-1.624-1.036c-1.46,0.469-3.115-0.535-4.522-0.877
	c0.063,0.036,0.097,0.065,0.104,0.088c-0.823-0.23-1.649-0.454-2.478-0.663C89.4,2.481,88.64,2.515,88.58,1.812
	c0.53,0.041,2.773,1.38,3.108,0.694c-0.137-0.629-1.315-0.764-1.813-0.691c-0.442,0.065-0.473-0.217-0.787-0.419
	c0.129-0.629,0.053-0.094,0.523-0.328c0.531-0.264-0.464-0.474-0.611-0.458c-0.386-0.148-0.722-0.396-1.133-0.483
	c-0.406-0.086-0.622,0.082-0.941,0.218c-0.147,0.301-1.142,0.485-1.471,0.48c0.047,0.37,0.352,0.61,0.512,0.926
	c-1.736-0.311-3.493-0.523-5.258-0.584c-0.38-0.013-0.76-0.02-1.14-0.018c-0.618,0.002-0.208-0.151-0.646-0.266
	c-0.373-0.098-0.928,0.068-1.25-0.178c-0.463,1.248,2.185,0.775,2.72,0.788c1.901,0.045,3.796,0.274,5.667,0.615
	c0.025,0.877-3.744-0.233-4.167-0.136c-0.711,0.164-1.435-0.07-2.198-0.07c-1.031,0-2.059-0.268-3.084-0.058
	c0.398-0.562-1.627-0.687-1.898-0.718c-0.828-0.096-1.316-0.815-2.239-0.77c0.035-0.096,0.087-0.182,0.156-0.257
	c-0.467,0.059-1.01-0.096-1.323,0.015C70.62,0.356,69.891,0.644,69.23,0.79c-0.159,0.022-1.261-0.104-1.21,0.153
	c0.041,0.181,1.052,0.091,1.223,0.069c-0.083,1.313,1.842,0.545,2.537,0.927c-0.419,0.114-0.964,0.395-1.344,0.234
	c-0.359-0.151-0.827,0.011-1.2,0.022c-0.919,0.026-1.722,0.322-2.67,0.318C65.573,2.318,64.354,2.66,63.287,2.8
	c-1.186,0.156-2.213,0.689-3.344,0.907c0.062-0.12-0.916-0.221-0.92,0.146c0.091-0.031,0.218-0.024,0.35-0.013
	c-0.455,0.113-0.923,0.226-1.36,0.398c0.593-0.438-0.957-0.379-1.12-0.338c-0.331,0.083-0.646,0.213-0.97,0.319
	c-0.425,0.14-0.673-0.039-1.082-0.168c0.142-0.12,1.01-0.594,0.971-0.733c-0.099-0.401-1.175,0.275-1.282,0.43
	c-0.215,0.312-0.633,0.094-1.036,0.12c-0.477,0.03-0.514,0.346-0.928,0.532c-0.65,0.292-1.693,0.214-2.057,0.951
	c0.401,0.183,1.22-0.036,1.594-0.195c-0.049,0.152-0.022,0.286,0.081,0.402c-0.268,0.095-0.536,0.19-0.804,0.285
	c0.912,0.654-0.263,1.198-0.768,1.358c-1.094,0.35-2.22,0.542-3.383,0.426c0.116-0.805-0.508-0.3-1.026-0.157
	C45.53,7.655,44.59,7.84,44.288,8.572c0.039-0.095,0.131,0.134,0.101,0.196c-0.104,0.214-0.912-0.009-1.127-0.006
	c0.18-0.113,0.213-0.412-0.073-0.292c-0.496,0.209-0.904,0.382-1.419,0.544c-0.043-0.276,0.102-0.356,0.375-0.342
	c-0.12-0.401-0.594-0.114-0.862-0.121c-0.286-0.008-0.104-0.288-0.351-0.319c-0.198-0.024-0.427,0.155-0.576,0.255
	c0.968,0.676-0.937,1.985-1.689,1.707c0.155-0.115,0.413-0.221,0.36-0.361c-0.224,0.075-0.352,0.069-0.467,0.305
	c0-0.565-0.757-0.337-0.227,0.115c-0.336,0.108-0.265,0.332-0.193,0.59c0.09,0.323-0.333,0.394-0.392,0.731
	c-0.058,0.336-0.585,0.143-0.81,0.341c-0.282,0.249-0.465,0.594-0.771,0.762c-0.814,0.024-1.511,0.553-2.291,0.726
	c-0.09,0.062,0.633-0.389,0.271-0.411c-0.343-0.021-1.001,0.671-1.251,0.878c-0.607,0.502-1.091,0.985-1.767,1.372
	c-0.333,0.191-0.673,0.405-0.926,0.701c-0.112,0.127-0.195,0.271-0.251,0.431c-0.29,0.014-0.569,0.14-0.82,0.275
	c-0.989,0.535-1.796,1.41-2.867,1.796c0.263,0.549-1.302,1.725-1.69,2.103c-0.436,0.424-1.592,1.143-1.129,1.845
	c-0.34,0.242-0.466,0.32-0.84,0.469c-0.352,0.14-0.484,0.483-0.769,0.715c0.365-0.526,0.324-1.154-0.122-0.403
	c-0.07,0.118-1.062,1.42-0.583,1.221c-0.203,0.217-0.39,0.41-0.626,0.519c-0.208-0.424-0.704,0.292-0.902,0.501
	c-0.489,0.517-0.928,1.089-1.478,1.544c-0.907,0.751-1.308,2.156-2.553,2.579c0.096-0.175,0.288-0.383,0.184-0.491
	c-0.438,0.905-1.44,2.156-1.223,3.224c-1.004,0.209-1.634,1.024-2.04,1.915c0.248,0.367,0.397-0.076,0.605-0.039
	c0.13,0.86-0.518,0.299-0.665,0.395c-1.146,0.728-1.789,2.233-2.33,3.418c-0.277,0.606-0.535,1.22-0.802,1.831
	c-0.502,0.301-0.705,1.002-0.694,1.553c0.042-0.076,0.385-0.26,0.445-0.129c-0.01,0.042-0.02,0.083-0.03,0.125
	c-0.316,0.205-0.606,0.447-0.869,0.717c-0.092-0.245-0.27-0.44-0.412-0.656c-0.152,0.303-0.318,0.599-0.475,0.9
	c-0.152-0.569,0.656-1.386,0.981-1.839c0.479-0.667,0.886-1.573,1.028-2.387c-0.132,0.211-0.565,0.361-0.73,0.427
	c-0.243-0.185-0.145-0.866-0.482-0.243c0.007,0.27,0.371,0.235,0.497,0.429l0,0c-0.266,0.461-0.76,0.906-0.838,1.453
	c-0.012,0.079,0.123,0.507,0.124,0.5c-0.193,0.186-0.32,0.419-0.416,0.666c-0.209,0.54-0.415,0.763-0.757,1.199
	c-0.169,0.216-0.343,0.442-0.573,0.598c0.083,0.399-0.02,0.831-0.118,1.216c-0.719,2.815-2.207,5.733-3.118,8.631
	c0,0,0.201-0.83-0.019-0.646c-0.284,0.239-0.258,1.216-0.304,1.566c-0.082,0.621-0.307,1.111-0.57,1.654
	c-0.077,0.159-0.472,1.489-0.154,0.924C1.345,57.413,1.096,58.446,1,59.512c-0.086,0.938-0.029,2.018-0.375,2.911
	c-0.253,0.656-0.539,1.831-0.607,2.675c-0.043,0.535,0.007,1.074,0.155,1.59c0.445,0.176,0.6-0.229,0.832-0.506
	c-0.188,1.828,0.568,3.552,0.568,5.356c0.003,0.391,0.016,0.781,0.036,1.17c0.023,0.459-0.177,0.825-0.32,1.259
	c-0.083,0.252-0.421,0.892-0.267,1.143c0.103,0.168,0.353,0.07,0.381,0.315c-0.298,0.729,0.105,1.625,0.029,2.384
	c-0.04,0.39-0.098,0.91,0.144,1.342c0.305,0.545,0.101,1.85,0.191,2.535c0.117,0.89,0.33,1.71,0.602,2.562
	c0.211,0.663-0.071,1.111,0.104,1.734c0.236,0.837,0.624,1.614,0.981,2.403c0.677,1.5,0.645,3.34,1.502,4.737
	c-0.188,0.643,0.12,1.305,0.376,1.881c0.166,0.373,0.335,0.744,0.474,1.128c0.139,0.386-0.07,0.549-0.007,0.944
	c0.121,0.757,0.686,1.13,1.006,1.753c0.414,0.804,0.751,1.71,1.517,2.257c0.122-1.473-0.6-2.919-1.238-4.197
	c-0.64-1.271-1.268-2.501-1.73-3.846c-0.059-0.195-0.243-0.415-0.329-0.63c-0.281-0.694-0.35-1.452-0.55-2.171
	c-0.295-1.259-0.571-2.563-0.839-3.842C2.405,80.532,1.7,74.586,2.029,68.802c0.093,0.042,0.18,0.042,0.259,0
	c-0.064,0.182-0.101,1.981,0.175,1.88c0.218-0.08-0.069-1.408-0.026-1.607c0.364,0.285,0.179,0.751,0.167,1.229
	c-0.012,0.491-0.004,0.982,0.015,1.473c0.021,0.544,0.057,1.086,0.094,1.629c0.022,0.333,0.127,0.758,0.074,1.088
	c-0.209,0.11-0.126,0.447-0.257,0.614c-0.217,0.275,0.063,1.004,0.125,1.412c-0.073-0.063-0.153-0.119-0.236-0.168
	c0.093,0.373,0.911,2.439,0.167,2.313c0.042,0.528,0.374,0.913,0.412,1.418c0.052,0.691,0.114,1.384,0.213,2.071
	c0.18,1.248,0.491,2.506,1.146,3.589c-0.033-0.258,0.31-0.232,0.457-0.275c-0.139-0.453-0.33-0.872-0.159-1.348
	c0.515,0.021,0.221,0.727,0.209,0.992c0.368,0.204,0.528,0.72,0.966,0.813c0.13,0.392,0.856,2.31-0.084,2.273
	c0.059,0.217,0.119,0.434,0.18,0.65c-0.391-0.232-0.558-0.691-0.512-1.131c-0.759,0.214-0.567-0.898-0.66-1.365
	c-0.055-0.225-0.256-0.135-0.244,0.023c0.04,0.507,0.116,1.01,0.217,1.508c0.169,0.832,0.41,1.648,0.688,2.451
	c-0.031-0.09,0.23,0.737,0.346,0.349c0.07-0.234-0.225-0.757-0.298-0.983c0.219,0.421,0.802,1.265,1.344,0.75
	c-0.114-0.514-0.356-0.688-0.461-0.982c0.665,0.029,0.588,1.225,1.023,1.576c0.083,0.932,0.765,1.984,0.609,2.977
	c0.471-0.208,0.704,1.231,0.826,1.466c0.165-0.048,0.362-0.195,0.176-0.358c0.481-0.088,0.551-0.713,0.772-1.057
	c-1.171,0.136-0.818-2.464-1.939-2.469L7.81,91.616c-0.228-0.691,0.08-1.241-0.21-1.956c-0.373-0.918-0.738-1.553-0.716-2.53
	c0.712,0.355,0.104-0.212,0.035-0.34c-0.211-0.395-0.369-0.609-0.08-1.009c0.192-0.267,0.585-0.859,0.315-1.156
	c-0.281-0.309-0.503-0.441-0.515-0.909c-0.188,0.138-0.361,0.315-0.395,0.494c-0.458-0.121-0.234-0.728-0.33-1.116
	c-0.146-0.593-0.427-1.259-0.251-1.876c0.41,0.257,0.726,0.418,1.179,0.135c-0.188-0.358-0.101-0.737-0.182-1.123
	c0.375,0.203,0.067-0.199,0.327-0.375c-0.671-0.047-0.644-1.743-0.671-2.143c-0.005-0.082,0.086-1.369-0.247-1.12
	c-0.308,0.23-0.068,1.261-0.062,1.606c-1.016,0.81-0.828-1.73-1.367-2.018c0.012,0.26,0.07,0.57-0.205,0.518
	C4.4,76.585,4.347,76.481,4.28,76.385c-0.041-0.286,0.052-0.577,0.073-0.86c0.316-0.214-0.107-0.71-0.094-0.979
	c-0.4-0.049-0.381,0.384-0.318,0.857c0.013,0.149,0.08,1.87-0.48,1.727c-0.308-1.066-0.199-2.139-0.271-3.212
	c-0.107-1.591-0.235-3.188-0.073-4.779c0.039-0.38,0.016-0.94,0.296-1.212c0.07-0.068,0.599-0.408,0.583-0.086
	c-0.006,0,0.253,0.417,0.273,0.015c0.061-0.163-0.126-0.36-0.121-0.508c0.028-0.692,0.612-0.906,0.926-1.436
	c0.154-0.26,0.202-0.573,0.222-0.87c0.037-0.537,0.472-0.709,0.947-0.928c0.15,0.62-0.222,1.317,0.083,1.911
	c-0.397,0.4-0.045,1.275-0.115,1.77c0-0.005-0.098,1.438,0.269,0.965c0.202-0.262,0.111-0.763,0.294-1.083
	c0.206-0.361,0.328-0.769,0.383-1.179c-0.58,0.163-0.276-0.381-0.207-0.593c0.149-0.455,0.042-1.183,0.416-1.536
	c0.451,0.071,0.287,0.265,0.338,0.468c0.045,0.262,0.201,0.984,0.227,0.262c0.108,0.475,0.034,0.938-0.055,1.395
	c-0.141-0.016-0.154-0.679-0.354-0.553c-0.192,0.124,0.088,0.775,0.341,0.796c0.239,0.255,0.501,0.211,0.454,0.743
	c-0.045,0.5-0.33,1.184-0.029,1.652c0.053,0.39-0.12,0.59-0.196,1.01c-0.038-0.431-0.047-0.636-0.024-1.131
	c0.015-0.323,0.159-1.222-0.061-1.48c-0.206-0.241-0.823-0.398-0.62,0.148c0.153,0.411,0.256-0.086,0.275,0.543
	c0.014,0.453-0.003,0.907-0.05,1.358c-0.533,0.198-0.46-0.416-0.725-0.727c0.016,0.491,0.123,0.89,0.199,1.378
	c0.029,0.178-0.03,0.508,0.06,0.666c0.15,0.264,0.292-0.076,0.3-0.206c0.246,0.527-0.018,1.018,0.174,1.561
	c0.225,0.674,0.389-0.824,0.372-0.798c-0.05,0.807,0.168,1.571,0.283,2.361c0.156,1.07,0.189,2.155,0.178,3.236
	c-0.11,0.019-0.358-0.104-0.414,0.062c-0.091,0.26,0.234,0.313,0.409,0.291c-0.007,0.323,0.253,1.787-0.067,1.918
	c-0.943-1.479-0.969-3.679-1.031-5.385c-0.018-0.477-0.01-0.955,0.047-1.429c-0.007,0.055,0.163-0.791-0.166-0.535
	c-0.463,0.359-0.159,2.308-0.117,2.822c0.158,1.916,0.163,3.629,0.465,5.544c0.123,0.778,0.093,1.485,0.386,2.253
	c0.16,0.419,0.344,0.83,0.465,1.263c-0.284,0.277-0.369,0.675-0.34,1.06c0.749-0.275,0.708,1.301,0.839,1.762
	c-0.652,0.009-0.272,1.05-0.229,1.386c-0.333-0.178-0.53-1.377-0.609-1.759c-0.047-0.229,0.031-0.519-0.028-0.729
	c-0.098-0.453-0.231,0.362-0.231,0.293c0.001,0.708,0.379,1.333,0.499,2.018C7.918,88.029,8.627,88.53,8.8,88.53
	c0.014,0.027,0.284,0.492,0.362,0.273c0.067-0.167-0.218-0.279-0.211-0.436c0.04-0.395-0.411-0.972-0.189-1.371
	c0.209-0.363,0.7,1.449,0.765,1.648c0.305,0.936,0.638,1.862,0.991,2.781c-0.107-0.229-0.228-0.428-0.417-0.438l0.002,0.072
	c-0.05-0.081-0.186-0.592-0.326-0.554c-0.22,0.08,0.142,0.629,0.198,0.718c-0.27,0.263,0.646,1.43,0.487,0.532
	c0.4-0.07,0.354,0.551,0.31,0.753c-0.083,0.369,0.031,0.423-0.175,0.624c-0.2,0.217,0.185,0.61,0.279,0.779
	c-0.07,0.081-0.127,0.247-0.14,0.379c-0.34-0.815-0.656-1.642-0.929-2.481c-0.116-0.357-0.223-0.716-0.321-1.078
	c-0.096-0.328-0.517-0.247-0.423,0.099c0.489,1.812,1.212,3.546,1.983,5.252c-0.191-0.328-0.512-1.678-0.91-1.751
	c-0.199-0.037,0.542,1.599,0.646,1.793c0.13,0.246,0.167,0.412,0.458,0.384c0.199,0.433,0.4,0.864,0.604,1.295
	c0.108,0.243,0.691,1.168,0.184,1.344c0.324,0.112,0.502,0.484,0.651,0.73c0.325-0.204,0.385,0.338,0.515,0.578
	c0.188,0.349,0.389,0.69,0.595,1.029c0.271,0.445,0.421,0.896,0.688,1.424c-0.231-0.203-0.32,0.183-0.162,0.33
	c0.048,0.107,0.332,0.35,0.344,0.364c0.622,0.915,0.973,1.999,1.695,2.849c0.249,0.292,0.544,0.55,0.896,0.711
	c-0.109,0.23,0.678,1.059,0.82,1.241c0.113,0.146,0.861,1.246,1.016,1.123c0.165-0.132-0.949-1.37-1.047-1.5
	c-0.198-0.261-0.39-0.526-0.57-0.801c0.137,0.365,0.022-0.519,0.081-0.197c-0.043-0.238-0.556-0.747-0.366-0.981
	c0.913,0.931,1.354,2.168,2.229,3.121c0.45,0.487,0.843,1.137,1.068,1.763c-0.235,0.287,0.002,0.424,0.183,0.073
	c0.198,0.127,0.394,0.243,0.593,0.381c0.029,0.103,0.453,0.668,0.394,0.346c0.227,0.261,0.428,0.417,0.77,0.508
	c-0.401-0.358-0.203-0.862-0.895-0.746c-0.25-0.626,0.763-0.161,0.955,0.061c0.414,0.48,0.553,1.13,0.969,1.62
	c0.48,0.564,1.226,1.034,1.507,1.743c-0.387-0.275-0.857-0.438-1.188-0.775c-0.456-0.466-0.856-0.985-1.215-1.529
	c-0.003-0.28-0.298-0.174-0.347,0.021s0.678,0.958,0.811,1.119c-0.477-0.063-2.892-1.913-2.811-1.994
	c-0.104,0.107,0.317,0.46,0.287,0.436c-0.405-0.181-0.235,0.089-0.25,0.434c-0.25-0.03-0.9-0.36-0.765-0.725
	c0-0.148-0.061-0.191-0.181-0.129c-0.077,0.203,0.025,0.423,0.151,0.579c0.208,0.26,0.608,0.367,0.776,0.545
	c0.033,0.035,0.224,0.348,0.228,0.353c-0.869-0.023,0.441,0.561,0.658,0.832c0.193,0.242,0.064,0.405,0.199,0.726
	c0.199,0.474-0.188,0.334-0.425,0.247c-0.494-0.303-1.66-2.041-2.174-1.982c-0.332,0.038,0.434,0.659,0.452,0.678
	c0.411,0.416,0.782,0.871,1.229,1.25c-0.168,0.028-0.155,0.215-0.027,0.299c0.358,0.235,0.687,0.001,0.983,0.484
	c-0.873-0.067-1.331-0.566-1.927-1.162c-0.743-0.743-1.555-1.386-2.398-2.012l0.001,0.004c-0.239-0.246-0.369-0.577-0.561-0.857
	c0.304-0.222,0.552,0.456,0.726,0.338c0.169-0.105-0.603-0.482-0.05-0.818c0.258-0.19,0.779-0.36,1.046-0.064
	c0.117,0.293,0.478,0.675,0.693,0.951c0.211,0.265,0.531,0.011,0.33-0.259c-0.015-0.214-0.23-0.183-0.23-0.405
	c0.148-0.054,0.477,0.075,0.479,0.233c-0.002-0.234-0.367-0.417-0.492-0.567c0.746-0.643-1.13-0.713-1.239-0.932
	c-0.09-0.194-0.194-0.382-0.313-0.561c0.191,0.128,0.007-0.43,0.025-0.405c-0.317-0.432-0.67-0.615-0.378-1.222
	c-0.397,0.128-1.199-0.92-1.488-1.158c-0.259-0.214-0.463-0.461-0.508-0.805c-0.05-0.38-0.414-0.208-0.277,0.231
	c0.201,0.649,2.311,1.897,1.351,2.417c-0.066-0.105-0.28-0.546-0.473-0.486c0.236,0.297,0.318,0.537,0.155,0.693
	c-0.171-0.184-0.265-0.426-0.441-0.687c-0.052-0.077-0.148-0.237-0.27-0.157c-0.188,0.133,0.224,0.587,0.279,0.697
	c-0.656-0.16-0.999-1.182-1.3-1.698c-0.387-0.662-1.089-0.955-1.461-1.574c-0.16-0.265-0.261-0.562-0.434-0.819
	c-0.172-0.257-0.435-0.254-0.561-0.521c0.082-0.239-0.171-0.564-0.285-0.748c-0.09-0.14-0.173-0.282-0.251-0.429
	c-0.169-0.335,0.095-0.26,0.127-0.557c0.549,0.894,1.205,1.725,1.672,2.667c0.054,0.188,0.148,0.351,0.283,0.488
	c0.22,0.14,0.3-0.134,0.233-0.288c-0.199-0.456-0.393-0.802-0.651-1.219c-0.527-0.853-1.147-1.649-1.602-2.546
	c-0.023-0.045-0.515-1.218-0.653-0.685c-0.095,0.366,0.404,1.044,0.579,1.345c-0.354,0.239-1.021-0.801-1.187-1.073
	c-0.229-0.378-1.018-1.911-0.196-2.192c0.382,0.196,0.493,0.861,0.693,1.154c0.14,0.433,0.607,0.524,0.417-0.002
	c0.097,0.003,0.191,0.018,0.284,0.045c-0.214-0.298-0.228-1.029-0.563-1.205c0.296-0.044,0.419,0.319,0.714,0.037
	c-0.094-0.303-0.389-0.368-0.457-0.699c-0.431-0.012-0.134,0.324-0.326,0.51c-0.253-0.789-0.566-0.646-1.236-0.754
	c-0.261-0.521-0.635-0.99-0.825-1.547c0.003,0.009-0.421-0.855-0.341-0.324c-0.461-0.808-0.885-1.62-1.051-2.545
	c0.143,0.266,0.212,0.268,0.206,0.158c-0.01-0.313-0.266-0.498-0.289-0.809c-0.07,0.087-0.13,0.104-0.181,0.051
	c0.002,0.007,0.004,0.011,0.006,0.017c-0.326-0.034-0.637-1.07-0.746-1.039c-0.13,0.039,0.936,3.416,1.062,3.754
	c0.281,0.752,0.594,1.491,0.901,2.232c0.263,0.638,0.441,1.338,0.895,1.789c0.342,0.34,0.524,1.097,0.822,1.582
	c0.262,0.428,0.312,0.665,0.497,1.144c0.434,1.126,1.143,1.924,1.698,2.929c0.786,1.421,1.474,2.897,2.393,4.242
	c0.432,0.632,0.911,1.244,1.48,1.76c0.481,0.436,0.887,1.05,1.169,1.481c0.738,1.212,1.615,2.404,2.65,3.381
	c0.489,0.461,0.692,1.093,1.133,1.607c0.307,0.358,1.547,1.371,1.347,1.867c-0.373-0.25-0.763-0.479-1.084-0.814
	c-0.209-0.219-0.442-0.502-0.483-0.815c-0.052-0.392-0.177-0.325-0.521-0.563c-1.057-0.725-1.738-1.921-2.604-2.845
	c0.101-0.078,0.203,0.016,0.306-0.023c-1.538-0.604-1.72-1.99-2.87-2.996c0.421-0.109-0.191-0.562,0.121-0.714
	c-1.082-0.595-1.19-2.029-2.161-2.74c-0.484-0.354-0.478-1.007-0.974-1.407c-0.542-0.436-0.621-1.174-0.853-1.791
	c-0.182-0.483-0.447-0.955-0.9-1.231c-0.316-0.54-0.424-1.157-0.789-1.676c-0.092-0.132-1.008-1.391-1.037-0.846
	c-0.011,0.205,0.431,0.959,0.001,1.009c0.374,0.188,0.556,0.697,0.8,1.012c0.263,0.339,0.527,0.372,0.681,0.775
	c0.234,1.421,1.122,2.734,1.913,3.901c0.398,0.588,0.813,1.163,1.224,1.741c0.198,0.279,0.395,0.559,0.588,0.841
	c0.265,0.388-0.006,0.411-0.026,0.849c-0.014,0.296,1.091,1.085,1.377,1.392c0.367,0.394,0.831,0.643,1.149,1.063
	c0.237,0.313,0.233,0.651,0.454,0.976c0.167,0.243,0.818,1.037,0.99,1.093c0.414,0.134,0.15,0.664,0.452,0.973
	c0.383,0.393,0.84,0.607,1.288,1.011c1.138,1.025,1.986,2.325,3.104,3.37c0.202,0.188,0.416,0.37,0.65,0.519
	c0.295,0.204,0.115,0.372,0.266,0.618c0.088,0.146,0.659,0.271,0.807,0.236c0.202,0.18,0.673,0.566,0.684,0.834
	c0.008,0.213-0.097,0.258-0.013,0.502c0.75,0.457,1.391,1.083,2.198,1.443c-0.101,0.069-0.147,0.217-0.247,0.287
	c1.305,0.789,2.407,1.793,3.6,2.734c0.647-0.305,1.592,0.839,2.019,1.185c0.318,0.257,0.661,0.519,1.05,0.659
	c0.589,0.213,0.233-0.423,0.539-0.66c-1.65-0.644-3.431-2.012-4.461-3.453c1.297,0.186,2.371,1.39,3.39,2.114
	c0.92,0.655,2.119,0.847,2.941,1.642c0.232,0.222,0.62,0.277,0.87,0.498c-0.476,0.132,0.541,0.565,0.581,0.592
	c1.129,0.724,2.185,1.555,3.393,2.173c0.616,0.314,1.251,0.59,1.9,0.828c0.335,0.124,0.673,0.237,1.014,0.343
	c0.415,0.128,0.411,0.252,0.714,0.522c0.984,0.876,2.469,0.952,3.61,1.548c0.477,0.248,0.892-0.111,1.362,0.041
	c0.398,0.133,0.709,0.445,1.129,0.55c0.636,0.158,1.183,0.269,1.796,0.557c0.552,0.26,1.114,0.606,1.717,0.734
	c-0.196,0.401,0.041,0.571,0.39,0.503c0.378-0.073,0.754,0.177,1.102,0.279c0.3,0.089,1.41,0.479,0.766-0.133
	c0.625-0.161,0.201,0.185,0.496,0.32c0.177,0.082,0.462-0.002,0.654,0.065c0.232,0.082,0.328,0.197,0.237,0.43
	c-0.075,0.192,0.524,0.347,0.641,0.368c-0.042,0.277-0.224,0.546,0.226,0.539c0.067-0.439,0.673-0.11,0.762-0.364
	c0.119-0.339-0.635-0.472-0.82-0.498c-0.461-0.071-0.246-0.405-0.625-0.649c1.482,0.196,3.071,0.308,4.477,0.853
	c-0.173,0.123-0.414,0.437-0.648,0.393c-0.152-0.028-0.4-0.118-0.553-0.045c-0.368,0.178,0.531,0.511,0.604,0.604
	c0.158,0.2,0.522,0.122,0.73,0.089c0.466-0.072,0.23,0.023,0.531,0.215c0.452,0.287,0.98-0.33,1.455-0.249
	c-0.108,0.346,0.247,0.479,0.561,0.494c0.617,0.027,1.031-0.083,1.681,0.01c0.857,0.122,0.623-0.243-0.067-0.33
	c-0.611-0.077-0.951-0.219-1.53-0.369c0.266-0.134,0.335-0.365,0.155-0.613c0.167,0,0.659,0.092,0.838,0.123
	c0.028,0.509,0.675,0.509,1.051,0.57c-0.049,0.104-0.051,0.253-0.066,0.369c0.182-0.029,2.165,0.257,2.199,0.018
	c0.017-0.12-0.452-0.149-0.509-0.146c-0.312-0.871,1.16-0.23,1.125,0.408c0.425,0.053,0.859,0.249,1.119-0.101
	c0.266-0.357,0.698-0.535,1.117-0.642c0.012,0.127-0.061,0.344,0.131,0.381c-0.016-0.365,1.179-0.254,1.321-0.02
	c-0.096-0.008-1.029,0.229-1.028,0.223c0.026-0.144,1.161,0.37,1.296,0.423c0.269,0.105,0.553,0.154,0.841,0.159
	c0.175-0.261-0.149-0.463-0.066-0.688c0.06-0.161,0.403,0.283,0.471,0.324c0.244,0.147,0.53,0.221,0.81,0.267
	c-0.127,0.04-0.722,0.125-0.741,0.269c-0.045,0.364,0.968-0.086,1.123-0.07c0.097,0.183,0.165,0.506,0.313,0.694
	c0.293,0.369,1.019,0.064,1.396,0.006c0.507-0.079,0.906-0.339,1.147,0.119c0.23,0.436,0.694,0.624,1.169,0.638
	c-0.164-0.64,1.347-1.292,1.665-0.906c-0.186,0.065-0.35,0.165-0.492,0.301c0.191-0.019,0.508-0.117,0.69-0.066
	c0.117,0.033,0.035,0.23,0.187,0.336c0.337,0.241,0.896,0.056,1.269,0.049c-0.289,0.419-0.048,0.69,0.292,0.271
	c0.164-0.206,0.172-0.285,0.389-0.415c0.265-0.16,0.112-0.373-0.034-0.227c-0.288,0.3-1.19,0.281-1.563,0.241
	c-0.431-0.047,0.328-0.917-0.306-1.311c0.104,0.027,1.118-0.064,1.062-0.194c-0.105-0.238-0.736,0.028-0.901,0.021
	c0-0.135,0.044-0.253,0.132-0.354c-0.384,0.051-0.867,0.093-1.209-0.134c0.668-0.199-0.095-0.459-0.415-0.407
	c-0.009,0.001-0.896,0.303-0.851,0.254c-0.037,0.04-0.398,0.268-0.022,0.274c-0.024-0.027,0.596,0.104,0.465,0.207
	c-0.035,0.028-0.745,0.179-0.865,0.194c-0.814,0.145-1.655,0.126-2.479,0.134c1.735-0.199,2.959-1.068,4.377-2.003
	c-0.005-0.052,0.563-0.354,0.624-0.393c0.266,0.17,0.593,0.251,0.898,0.31c0.864,0.167,1.816,0.142,2.653-0.147
	c-0.022,0.084-0.056,0.391-0.006,0.434c0.124,0.106,0.321,0.052,0.436,0.228c0.123,0.188-0.003,0.197,0.151,0.255
	c0.6,0.074,2.579-2.062,2.949-1.534c-0.001,0.119-0.062,0.207-0.182,0.266c0.878-0.111,1.777-0.321,2.664-0.191
	c0.67,0.099,2.161-1.335,2.714-0.54c-0.03,0.041-0.077,0.088-0.146,0.145l0.01-0.057c-0.408,0.164-1.2,0.408-0.719,0.594
	l0.028,0.008c-0.312,0.171-0.619,0.134-0.931-0.008c-0.14-0.063-0.413,0.192-0.508,0.248c-0.392,0.232-0.809,0.423-1.24,0.569
	c-0.369,0.124-1.155,0.105-1.441,0.347c-0.374,0.314,0.398,0.282,0.47,0.271c0.516-0.075,1.021-0.22,1.506-0.415
	c0.398-0.16,0.783-0.356,1.146-0.587c0.413,0.14,0.874,0.071,1.236-0.111c0.276,0.128,1.316-0.397,0.971-0.608
	c-0.074,0.033,0.678-0.024,0.421-0.179c-0.229-0.122-0.527,0.002-0.716,0.135c0.019-0.615,0.647-0.21,0.764-0.716
	c0.104-0.455,0.67-0.748,1.047-0.932c0.303-0.147,0.619-0.267,0.941-0.364c0.434-0.132,0.329,0.029,0.707,0.121
	c-0.354,0.224-0.769,0.321-1.132,0.528c-0.173,0.101-0.006,0.267,0.141,0.183c0.409-0.229,1.075-0.669,1.553-0.687
	c0.092,0.141-0.493,0.503-0.618,0.642c-0.057,0.063-0.408,0.604-0.469,0.604c-0.659,0.312-0.393,0.568,0.218,0.263
	c0.069,0.151,0.077,0.539,0.269,0.616c0.461,0.187,0.347-0.47,0.504-0.624c0.36-0.354,0.99-0.839,1.466-0.665
	c0.678,0.249-0.03,0.322-0.173,0.673c-0.029,0.071-0.652,0.758-0.15,0.687c0.296-0.041,0.636-0.427,0.881-0.542
	c1.26-0.591,3.11-0.93,3.757-2.329c-0.129-0.457-1.008,0.389-1.258,0.137c1.016-0.812,2.072-1.118,3.159-1.79
	c0.705-0.436,1.429-0.888,2.242-1.089c0.272,0.272,0.438,0.037,0.098-0.18c0.804-0.531-0.319-0.825-0.228-1.104
	c0.157-0.479,0.692-0.306,0.733-0.906c-0.182,0.078-0.403,0.248-0.5,0.131c0.797-0.664,1.637-1.279,2.514-1.833
	c0.36-0.228,0.728-0.444,1.105-0.64c0.463-0.239,0.413-0.731,0.715-1.128c0.53-0.698,1.673-1.244,2.386-1.759
	c0.772-0.558,1.553-1.118,2.388-1.582c-0.369-0.502-0.428-1.085-0.067-1.61c0.189-0.276,0.445-0.504,0.712-0.704
	c0.091,0.018,0.26,0.313,0.323,0.391c0.167-0.272,0.234-0.57,0.374-0.853c0.195-0.396,0.849-0.599,0.608-1.081
	c0.636,0.049,1.18-0.469,1.581-0.93c0.796-0.305,0.276-0.916-0.295-1.043c0.136-0.312,0.33-0.591,0.544-0.917
	c-0.02,0.011,0.079,0.023,0.133-0.06c0.235,0.154,0.044,0.427,0.329,0.563c0.443-0.33,0.985-0.11,1.448-0.366
	c-0.038,0.553-0.235,1.054-0.595,1.479c0.266,0.3,0.563,0.113,0.105,0.56c-0.263,0.256-0.289,0.632-0.532,0.897
	c-0.042-0.083-0.095-0.053-0.119-0.063c-0.006-0.057-0.084-0.687-0.264-0.468c-0.166,0.157,0.181,0.382-0.103,0.641
	c-0.3,0.272-0.608,0.537-0.811,0.896c-0.094,0.168-0.164,0.346-0.211,0.532c-0.268-0.129-0.497,0.008-0.685,0.196
	c-0.33,0.334-0.57,0.765-0.989,1.004c-0.565,0.321,0.146,0.401-0.188,0.708c-0.104,0.116-0.229,0.156-0.374,0.119
	c-0.286-0.046-0.382,0.321-0.534,0.515c-0.407,0.521-0.895,0.973-1.401,1.394c-0.851,0.708-1.769,1.331-2.61,2.05
	c-0.393,0.336-0.769,0.693-1.101,1.09c-0.278,0.332-0.474,0.883-0.835,1.104c-0.636,0.39-0.59,1.16-1.123,1.759
	c-0.096,0.107-1.726,1.55-1.705,1.574c0.098,0.133,0.487-0.286,0.654-0.233c0.494,0.156,0.134,0.677-0.188,0.91
	c-0.158,0.114-0.452,0.016-0.561,0.137c-0.193,0.216,0.382,0.15,0.404,0.143c0.421-0.137,0.959-0.732,0.811-1.212
	c0.106-0.032,0.371,0.007,0.461,0.042c-0.163,0.335,0.154,0.744,0.28,0.355c0.157-0.452,0.339-0.835,0.847-1.031
	c0.15,0.435,0.597-0.094,0.863,0.103c0.43,0.314-1.302,1.522-1.538,1.701c-0.275,0.209-0.55,0.425-0.789,0.676
	c-0.164,0.164,0.108,0.258,0.229,0.13c0.608-0.632,1.405-1.043,2.013-1.677c0.334-0.348,1.926-2.185,1.24-2.619
	c0.355-0.331,0.731-0.649,1.146-0.904c0.574-0.354,0.938-0.303,1.375-0.854c0.787-0.992,1.479-2.054,2.28-3.034
	c-0.067-0.519-0.503,0.291-0.635,0.011c-0.058-0.886,1.083-1.271,1.612-1.767c0.92-0.86,1.742-1.945,2.518-2.936
	c0.742-0.947,1.573-1.816,2.319-2.759c0.764-0.964,1.151-2.135,1.905-3.084c0.04,0.037,0.081,0.074,0.121,0.111
	c0.057-0.078,0.324-0.294,0.222-0.424c-0.051,0.051-0.098,0.061-0.145,0.059c0.278-0.359,0.722-1.351,1.262-1.336
	c-0.295-0.416,0.626-1.496,0.876-1.937c0.215-0.38,0.428-0.762,0.641-1.144c0.229-0.408,0.479-0.409,0.845-0.648
	c0.263-0.171,0.11-0.163,0.421-0.342c0.255-0.146,0.54-0.212,0.793-0.38c-0.048,0.031,0.652-0.45,0.249-0.487
	c-0.226-0.021-0.676,0.417-0.912,0.506c-0.017-0.062-0.033-0.124-0.05-0.186c-0.121,0.189-0.248,0.426-0.505,0.24
	c-0.104-0.075,0.043-0.638,0.087-0.777c0.259-0.397,0.481-1.388,1.127-1.168c0.122,0.214-0.293,0.641-0.124,0.849
	c0.372-0.336,0.165,0.298,0.213,0.334c0.11-0.241,0.371-0.665,0.066-0.882c0.095-0.255,0.161-0.265-0.026-0.522
	c0.012-0.111,0.181-0.24,0.125-0.439c-0.069-0.247-0.166-0.6,0.177-0.706c-0.071,0.186,0.345,0.338,0.496,0.436
	c0.174-0.355,0.484-0.429,0.739-0.691c-0.352-0.132,0.24-0.563,0.021-0.756c-0.116,0.152-0.224,0.4-0.36,0.35
	c0.322-0.204,0.108-0.645,0.664-0.645c-0.227,0.589,0.615-0.12,0.556-0.398c-0.064-0.308,0.646-0.66,0.883-0.91
	c0.458-0.48,0.821-1.058,1.32-1.497c0.114,0.343,0.071,0.477,0.541,0.273c0.306-0.132,0.183-0.06,0.326-0.184
	c0.094,0.189,0.296,0.29,0.147,0.495c-0.076,0.104-0.256,0.126-0.239,0.29c0.031,0.36,0.552-0.384,0.567-0.541
	c-0.071-0.346-0.224-0.303-0.228-0.688c-0.005-0.479,0.138-0.82,0.267-1.273c0.17-0.581,0.436-0.685,0.729-1.127
	c1.227,1.265,1.35-2.051,1.536-2.598c0.438,0.225,0.109-0.41,0.031-0.508c0.07-0.115,0.315-0.622,0.552-0.529
	c-0.113-0.219,0.123-0.616,0.388-0.573c0.031,0.22-0.136,0.619,0.104,0.771c0.285-0.244,0.476-1.461,0.881-1.25
	c-0.134,0.146-0.094,0.51-0.291,0.611c0.47,0.238,0.589-0.276,0.621-0.627c-0.025-0.008,0.328-0.57,0.352-0.698
	c-0.145-0.142-0.506,0.167-0.588-0.035c-0.086-0.212,0.378-0.923,0.435-1.2c0.092-0.449,0.087-1.183,0.563-1.188
	c0.289-0.004,0.271-0.396,0.46-0.541c0.306,0.369-0.36,1.429-0.055,1.793l0.024-0.022c-0.199,0.752,1.188,0.229,0.421-0.074
	c0.215-0.366,0.794-3.043-0.31-2.387c0.237-0.18,0.169-0.608,0.225-0.855c0.531,0.021,0.594-0.643,0.705-1.025
	c0.101,0.061,0.255,0.08,0.373,0.107c-0.011-0.186,0.493-2.214,0.255-2.27c-0.151-0.039-0.094,0.563-0.456,0.537
	c-0.508-0.035,0.052-0.753,0.194-0.884c0.153-0.14,0.377-0.297,0.601-0.263c0.077-0.336,0.153-0.673,0.226-1.01
	c-0.485-0.292-0.673-0.85-0.749-1.381c0.131,0.002,0.347,0.102,0.406-0.092c-0.364-0.023-0.11-0.954-0.045-1.119
	c0.251,0.157,0.249,0.829,0.287,0.84c0.172,0.039,0.162-0.489,0.161-0.563c0.05,0.085,0.1,0.169,0.149,0.254
	c0.174-0.33,0.853-0.899,0.33-1.123c0.086-0.194,0.36-0.733,0.026-0.789c-0.129-0.021-0.47,0.146-0.566,0.059
	c-0.121-0.108,0.296-0.318,0.358-0.393c0.224-0.268,0.344-0.612,0.428-0.946C146.433,80.174,146.677,79.103,146.51,79.329
	C146.482,79.374,146.543,79.284,146.51,79.329z M140.524,59.627c0.119,0.078,0.249,0.104,0.39,0.077
	c0.005,0.39-0.063,0.796-0.284,1.126C140.442,60.781,140.565,59.958,140.524,59.627C140.635,59.686,140.565,59.958,140.524,59.627z
	 M88.17,1.751c0.101,0.023,0.124,0.099,0.071,0.225c-0.455-0.026-0.803-0.315-1.245-0.375C87.149,1.252,87.974,1.657,88.17,1.751
	C88.19,1.762,88.084,1.71,88.17,1.751z M88.331,0.803c0.344,0.181,0.583,0.095,0.51,0.511c-0.282-0.05-0.478-0.061-0.759-0.152
	c-0.342-0.107-0.375-0.308-0.663-0.484C87.597,0.376,88.126,0.698,88.331,0.803C88.499,0.891,87.9,0.582,88.331,0.803z
	 M6.126,84.354c0.079,0.369,0.16,0.737,0.244,1.105c-0.068,0-0.338-0.332-0.362-0.427c-0.075-0.294-0.097-0.6-0.203-0.884
	C5.908,84.223,6.015,84.292,6.126,84.354z M7.365,69.866c0-0.002,0-0.003,0.003-0.002L7.365,69.866z M17.457,110.329
	c0.259,0.533-0.534,0.48-0.658-0.032c-0.121-0.497-0.032-0.886-0.457-1.275C16.516,108.925,17.334,110.081,17.457,110.329
	C17.491,110.399,17.339,110.09,17.457,110.329z M20.41,116.614c-0.022-0.021-0.268-0.313-0.328-0.384
	c0.2-0.024,0.411,0.123,0.629,0.345C20.612,116.61,20.52,116.735,20.41,116.614z M17.724,116.444
	c0.161,0.035,0.488,0.447,0.405,0.551C17.951,116.852,17.684,116.608,17.724,116.444z M113.133,131.04
	c-0.071,0.078-0.201,0.126-0.291,0.183c-0.218-0.213,0.01-0.521,0.229-0.595C113.217,130.767,113.049,130.891,113.133,131.04z
	 M136.663,99.801c-0.027,0.262-1.1,0.602-0.863,0.941c0.091,0.004,0.052,0.064-0.115,0.182c0.007-0.007-0.205,0.216-0.251,0.147
	c-0.187-0.271,0.607-0.916,0.812-0.963c0.052-0.042,0.129-0.182,0.164-0.282c-0.226-0.176,0.124-0.55,0.27-0.775
	c0.042,0.079,0.085,0.159,0.127,0.238c0.343-0.728,0.615-1.291,1.099-1.959c0.21,0.07,0.153,0.283,0.239,0.437
	c0.22,0.392-0.06,0.334-0.357,0.563C137.298,98.707,137.031,99.321,136.663,99.801z M106.952,129.393
	c-0.083-0.219,0.147-0.308,0.331-0.474c0.098-0.088,0.395-0.094,0.374,0.096C107.706,129.38,107.129,129.227,106.952,129.393z
	 M106.386,129.702c-0.008-0.247,0.128-0.479,0.314-0.631C106.677,129.472,106.88,129.462,106.386,129.702
	C106.379,129.497,106.568,129.614,106.386,129.702z M104.059,131.172l-0.291,0.141c-0.184-0.213,0.104-0.316,0.326-0.438
	C104.111,130.979,104.003,131.057,104.059,131.172z M55.519,135.524c-0.683-0.301-1.563-0.186-2.097-0.712
	c-0.627-0.619-1.204-0.088-0.534,0.532c-0.175,0.111-0.398,0.415-0.569,0.08c-0.054-0.107-0.704-0.094-0.89-0.134
	c-0.31-0.067-0.93,0.018-0.941-0.369c-0.02-0.677-0.533-0.658-1.114-0.882c0.101,0.07,0.137,0.156,0.11,0.259
	c-0.246,0.179-2.193-0.753-1.06-1.122c0.267-0.087,0.943,0.067,1.164,0.217c0.408,0.275,0.529,1.015,1.137,0.583
	c0.007,0.163,0.523,0.53,0.789,0.642c0.053-0.188,0.008-0.298-0.199-0.351c0.143-0.293,0.608-0.142-0.048-0.345
	c0.11-0.14,1.717,0.4,2.061,0.385c0.577-0.025,1.236,1.023,1.786,0.494c-0.022-0.274-0.767-0.27-0.468-0.67
	c0.533,0.161,0.854,0.249,1.227,0.363c-0.251,0.271-0.354,0.76-0.984,0.502c0.494,0.623,2.658,0.427,2.71,1.113
	C56.916,135.893,56.227,135.637,55.519,135.524C55.47,135.502,56.031,135.606,55.519,135.524z M49.291,135.637
	c0.257,0.131,0.455,0.277,0.646,0.424c-0.38-0.152-0.493,0.158-0.745,0.074C48.37,135.958,49.245,135.842,49.291,135.637
	C49.548,135.768,49.254,135.803,49.291,135.637z M49.456,136.202c0.032-0.036,0.544-0.088,0.665,0.006
	C49.865,136.546,49.288,136.37,49.456,136.202C49.479,136.176,49.429,136.229,49.456,136.202z M50.118,136.497
	c0.025-0.021,0.053-0.043,0.078-0.063c0.07,0.063,0.208,0.101,0.304,0.139c0.146-0.176,0.022-0.187,0.274-0.121
	c-0.139,0.331-0.511,0.247-0.76,0.125C50.046,136.549,50.081,136.522,50.118,136.497C50.144,136.476,50.081,136.522,50.118,136.497z
	 M32.152,122.934c-0.224-0.385-1.476-0.829-1.371-1.406c0.243-0.187,2.922,1.972,3.237,2.266c0.258,0.239,0.816,1.014,0.003,0.532
	C33.351,123.928,32.753,123.426,32.152,122.934C32.138,122.911,32.238,123.004,32.152,122.934z M29.785,121.09l-0.011,0.004
	C29.779,121.084,29.782,121.083,29.785,121.09z M29.888,120.834c-0.555-0.416-1.11-0.851-1.646-1.308
	C28.7,119.501,29.922,120.818,29.888,120.834C29.333,120.418,29.896,120.831,29.888,120.834z M21.381,111.129
	c-0.074-0.039-0.035-0.097,0.118-0.174C21.578,111.056,21.447,111.061,21.381,111.129z M18.507,106.684l-0.009-0.049
	C18.545,106.665,18.548,106.681,18.507,106.684z M17.983,105.178c0.124,0.289,0.254,0.611,0.062,0.758
	c-0.238-0.388-1.864-2.8-1.416-3.184c0.376,0.172,0.526,0.616,0.729,0.942c-0.061,0.104-0.171,0.015-0.244,0.069
	c-0.019,0.1,0.014,0.188,0.1,0.265c0.15,0.198,0.161-0.099,0.299-0.09c0.122,0.192,0.278,0.549,0.454,0.69
	C17.673,104.622,17.957,105.118,17.983,105.178C18.107,105.467,17.856,104.881,17.983,105.178z M12.183,97.502
	c-0.102-0.217-0.204-0.435-0.307-0.652C11.921,96.896,12.357,97.502,12.183,97.502C12.081,97.286,12.194,97.502,12.183,97.502z
	 M9.222,86.063c-0.009-0.035-0.016-0.07-0.023-0.105c0.123,0.054,0.146,0.144,0.07,0.271C9.253,86.17,9.238,86.118,9.222,86.063
	C9.213,86.028,9.238,86.118,9.222,86.063z M7.18,59.362c-0.029,0.274-0.129-0.05-0.225,0.068c-0.076,0.094-0.067,0.384-0.089,0.507
	c0.058,0.011,0.199,0.049,0.104,0.034c-0.188,0.007-0.184,0.354-0.194,0.463c-0.53-0.075,0.237-1.624,0.271-1.94
	C7.543,58.29,7.222,59.067,7.18,59.362C7.176,59.399,7.201,59.212,7.18,59.362z M8.814,52.223c0.089-0.219-0.133-0.127,0.202-0.219
	C8.95,52.335,8.889,52.668,8.825,53C8.713,52.897,8.731,52.656,8.814,52.223z M9.16,49.691c-0.301-0.055-0.702,0.062-0.525-0.366
	C9.012,49.073,9.326,49.21,9.16,49.691C8.802,49.625,9.387,49.033,9.16,49.691z M10.772,56.634c0.117,0.09,0.355,0.415,0.288,0.566
	c-0.191,0.171-0.247,0.417-0.291,0.657c-0.058,0.338-0.24,0.039-0.292,0.29C10.038,58.021,10.673,56.854,10.772,56.634
	C10.932,56.757,10.604,57.007,10.772,56.634z M20.54,30.847c0.094-0.104,0.143-0.675,0.453-0.394
	C20.877,30.656,20.815,31.046,20.54,30.847C20.664,30.709,20.601,30.891,20.54,30.847z M36.765,14.712
	c0.012-0.005,0.023-0.011,0.035-0.015c-0.025,0.019-0.051,0.035-0.077,0.054C36.777,14.735,36.791,14.722,36.765,14.712z
	 M62.208,4.095c0.051,0.031,0.101,0.066,0.145,0.104c-0.561,0.165-1.043,0.209-1.492,0.217C61.307,4.305,61.756,4.196,62.208,4.095
	C62.259,4.126,61.756,4.196,62.208,4.095z M117.81,18.401c0.024-0.149,0.165,0.055,0.218,0.16c-0.08,0.004-0.159,0.007-0.239,0.011
	C117.795,18.515,117.803,18.458,117.81,18.401z M118.167,18.816c0.021,0.179,0.23,0.358,0.305,0.537
	c-0.094,0.029-0.307-0.147-0.473-0.366c0.067,0.009,0.134,0.018,0.201,0.026C118.19,18.947,118.178,18.882,118.167,18.816
	C118.188,18.995,118.136,18.879,118.167,18.816z M127.143,30.603l0.002-0.008c0.126,0.25-0.006,0.361-0.09,0.627
	c-0.204-0.325-0.367-0.702-0.487-0.726C126.39,30.288,126.996,30.398,127.143,30.603z M138.276,90.604
	c-0.029,0.131,0.016,0.221,0.136,0.27c0.256,0.051,0.293-0.413,0.323-0.528c0.176-0.667,0.399-1.318,0.582-1.983
	c0.323-1.178,0.395-2.507,0.856-3.64c0.302,0.107,0.154,1.198,0.13,1.432c-0.276-0.323-0.262,0.405-0.202,0.521
	c0.009,0.396,0.145,1.048-0.213,1.354c0.412,0.494-0.646,1.389-0.796,1.973c0.001,0.134-0.218,0.63-0.377,0.861
	c-0.176,0.124-0.548,0.337-0.832,0.432c-0.166-0.954-0.113-1.715,0.111-2.582c0.021,0.044,0.078,0.319,0.191,0.248
	c0.109-0.084-0.022-0.262-0.053-0.344c0.142-0.117,0.428-0.254,0.446-0.52c-0.556-0.506,0.124-0.744,0.447-1.18
	c0.41-0.068-0.025,1.16-0.083,1.369C138.729,89.061,138.46,89.821,138.276,90.604C138.247,90.735,138.409,90.036,138.276,90.604z
	 M140.444,91.327c-0.12-0.457-0.46,0.136-0.215,0.104c0.198,0.265-0.541,1.157-0.515,1.533c0.037,0.537-0.287-0.122-0.356-0.276
	c-0.109-0.24-0.324-0.282-0.525-0.234c0.083-0.36,0.426-0.498,0.598-0.736c0.193-0.066,0.513-0.935,0.625-1.131l0.003,0.013
	c0.131-0.028,0.199-0.115,0.204-0.259c0.203,0.1,0.423,0.125,0.629,0.021C140.755,90.764,140.703,91,140.444,91.327
	C140.434,91.29,140.52,91.231,140.444,91.327z M139.295,90.213c0.11,0.027,0.176-0.062,0.248-0.131
	c-0.093,0.337-0.241,1.737-0.777,1.395c0.031-0.243,0.24-0.26,0.095-0.428C139.046,90.792,139.16,90.498,139.295,90.213
	C139.406,90.241,139.26,90.288,139.295,90.213z M142.196,81.252c0.019-0.217-0.015-0.542,0.214-0.643
	C142.346,80.838,142.27,81.042,142.196,81.252C142.21,81.079,142.27,81.042,142.196,81.252z M141.329,82.524
	c-0.016-0.79,0.866-0.07,1.108-0.074c-0.058,0.197-0.225,0.326-0.331,0.494l-0.007-0.068c-0.323,0.273-0.528,0.609-0.677,0.972
	c0.012-0.176,0.356-1.044,0.427-0.996C141.649,82.713,141.353,82.899,141.329,82.524z M141.206,90.612
	c0.047-0.031,0.091-0.07,0.133-0.115c-0.045,0.127-0.127,0.229-0.191,0.316C141.165,90.745,141.184,90.678,141.206,90.612
	C141.253,90.581,141.184,90.678,141.206,90.612z M141.626,90.239c-0.131-0.583,0.677-2.459,0.267-2.823
	c-0.244-0.216-0.239,0.693-0.242,0.715c-0.063,0.399-0.163,1.72-0.513,1.819l0,0l0,0c0.138-0.327-0.052-0.457-0.204-0.706
	c-0.177-0.287-0.001-0.817,0.088-1.11c0.203-0.664,0.621-1.419,1.266-1.746c-0.209-0.247-0.394-0.313-0.227-0.686
	c-0.116-0.051-0.489,0.069-0.538-0.061c-0.111-0.295,0.175-0.679,0.301-0.935c0.212-0.431,0.606-1.258,0.431-1.624
	c0.445-0.681,0.875-1.235,1.154-2.063c0.077,0.422-0.059,0.934,0.016,1.344c-0.039-0.026-0.078-0.054-0.117-0.08
	c-0.152,0.336-0.438,0.578-0.647,0.874c-0.231,0.325,0.004,0.487-0.118,0.737c-0.204,0.426-1,1.198-0.448,1.654
	c0.294-0.209,0.619-0.297,0.831-0.525c-0.377,1.159-0.521,2.261-0.585,3.472C142.31,89.042,142.291,90.165,141.626,90.239z
	 M143.141,84.004c0.058-0.021,0.109-0.055,0.154-0.092c-0.044,0.135-0.089,0.271-0.139,0.412
	C143.159,84.229,143.154,84.124,143.141,84.004C143.198,83.983,143.154,84.124,143.141,84.004z M136.016,97.999
	c-0.06,0.035-0.115,0.076-0.168,0.117c0.042-0.098,0.088-0.197,0.138-0.297C135.999,97.877,136.009,97.936,136.016,97.999
	C135.956,98.034,136.009,97.936,136.016,97.999z M116.627,122.118c-0.308,0.123-0.621,0.266-0.882,0.193
	c0.297-0.029,0.533-0.251,0.773-0.4C116.564,121.926,116.717,122.083,116.627,122.118
	C116.32,122.241,116.643,122.112,116.627,122.118z M114.747,122.981c0.092-0.14,0.187-0.278,0.282-0.416
	C115.333,122.728,114.982,123.12,114.747,122.981C114.841,122.842,114.79,123.006,114.747,122.981z M47.537,131.807
	c0.056,0.439-2.18-0.626-2.549-0.739c0.894-0.652,2.259,0.663,3.158,0.835C48.015,132.125,47.669,131.932,47.537,131.807z
	 M14.072,98.729c-0.182-0.089-0.198-0.167-0.048-0.236C14.04,98.572,14.055,98.65,14.072,98.729
	C14.025,98.665,14.091,98.667,14.072,98.729z M13.125,98.145c-0.202-0.262-0.297-0.788-0.251-1.107
	c0.189,0.213,0.309,0.341,0.475,0.588c0.139,0.241,0.081,0.565,0.345,0.828C13.463,98.369,13.33,98.254,13.125,98.145
	C13.092,98.102,13.184,98.176,13.125,98.145z M11.737,92.502c0.423-0.226,0.399,0.562,0.561,0.785
	c-0.029,0.011-0.057,0.021-0.086,0.032C11.956,92.973,11.941,92.869,11.737,92.502z M11.128,87.245
	c0.288-0.012,0.317,0.769,0.254,0.9C10.961,88.004,11.075,87.625,11.128,87.245z M8.697,69.221c0.04-0.068,0.08-0.137,0.12-0.205
	c0.123,0.121,0.1,0.293,0.089,0.461c-0.14,0.034,0.011-0.144-0.217,0.007C8.626,69.422,8.629,69.334,8.697,69.221
	C8.728,69.157,8.687,69.308,8.697,69.221z M9.874,63.34c0.075,1.152,0.243,2.366-0.604,2.881c0.136-0.312,0.037-0.676,0.309-0.844
	c-0.157-0.08-0.204-0.622-0.217-0.788C9.329,64.093,9.385,63.592,9.874,63.34C9.949,64.492,9.363,63.604,9.874,63.34z
	 M17.771,37.082c0.399,0.11,0.12,0.417-0.195,0.35C17.638,37.315,17.704,37.2,17.771,37.082
	C17.875,37.111,17.704,37.2,17.771,37.082z M21.876,31.071c0.285-0.244,0.602-0.444,0.875-0.703
	c0.321-0.305,0.187-0.554,0.396-0.871c0.452-0.692,1.011-1.391,1.719-1.742c-0.26,0.422-0.354,0.912-0.574,1.353
	c-0.226,0.451-0.954,0.636-1.079,1.038c-0.407,0.408-0.766,0.86-1.105,1.325c-0.125,0.171-0.192,0.449-0.445,0.358
	C21.302,31.698,21.766,31.273,21.876,31.071C22.188,30.804,21.758,31.288,21.876,31.071z M25.615,26.74
	c0.226-0.255,0.456-0.563,0.681-0.672C26.225,26.148,25.638,26.794,25.615,26.74C25.841,26.485,25.621,26.754,25.615,26.74z
	 M51.537,7.634C51.666,7.639,51.9,7.73,51.963,7.92c-0.355,0.008-1.158,0.5-1.603,0.196C50.346,7.741,51.285,7.763,51.537,7.634z
	 M53.101,7.386c0.486-0.197,0.912-0.269,1.247-0.265C54.112,7.186,53.189,7.605,53.101,7.386
	C53.587,7.189,53.119,7.432,53.101,7.386z M72.358,2.746c0.164,0.109,0.888-0.005,1.125,0.003c0.697,0.023,1.39,0.093,2.08,0.197
	c-0.53,0.179-1.09,0.275-1.646,0.176c-0.59-0.105-0.519,0.325-1.023,0.351c-0.283-0.03-2.917-0.25-2.773-0.577
	C70.955,2.814,71.67,2.765,72.358,2.746C72.366,2.752,71.67,2.765,72.358,2.746z M80.196,4.866c0.062,0.024,0.121,0.048,0.183,0.07
	c-0.194,0.367-0.655,0.446-1.021,0.329c0.076-0.113,0.183-0.42,0.157-0.559c-0.105,0.004-0.203-0.021-0.293-0.075
	C79.4,4.536,79.793,4.703,80.196,4.866C80.257,4.89,79.793,4.703,80.196,4.866z M78.998,3.023c0.104-0.261,1.011-0.097,1.146,0.024
	C79.941,3.369,79.292,3.025,78.998,3.023z M80.793,3.191c-0.039-0.197,0.891-0.135,0.483,0.141
	C81.342,3.288,80.792,3.182,80.793,3.191z M97.262,8.635c-0.075,0.967-1.752,0.118-2.229,1.011
	c-0.092-0.083-0.306-0.212-0.362-0.313c0.189,0.337-0.706-0.246-0.85-0.366c-0.391-0.329-0.779-0.685-1.286-0.819
	c0.596-0.207,2.049-1.195,2.575-0.63C95.679,8.128,96.589,8.194,97.262,8.635C97.239,8.935,96.754,8.302,97.262,8.635z
	 M121.759,27.853c0.264,0.326,0.318,0.749,0.627,0.919c0.405,0.223,0.357,0.506,0.19,0.792c-0.528-0.754-1.13-1.162-1.198-2.148
	C121.51,27.555,121.637,27.701,121.759,27.853C121.872,27.993,121.637,27.701,121.759,27.853z M134.166,47.219
	c0.1,0.22,0.062,0.342,0.001,0.396c-0.021-0.095,0.016-0.446-0.061-0.506C134.126,47.146,134.147,47.182,134.166,47.219
	C134.266,47.439,134.008,46.873,134.166,47.219z M136.176,55.643c-0.437,0.249,0.183-0.61,0.146-0.558
	C136.667,55.199,136.135,55.414,136.176,55.643C136.141,55.663,136.135,55.414,136.176,55.643z M136.255,94.944
	c-0.049,0.167,0.034,0.372-0.11,0.494c0.107-0.577,0.118-1.203,0.324-1.752c0.244-0.644,0.306-0.581,0.873-0.643
	C137.457,93.283,136.278,94.331,136.255,94.944C136.241,94.991,136.28,94.274,136.255,94.944z M137.438,88.989
	c-0.327,1.076,0.022,2.127,0.104,3.206c-0.399,0.269,0.015,0.507-0.587,0.521c-0.285,0.007-0.332,0.156-0.466,0.377
	c0.16-0.461,0.539-1.17,0.688-1.793c-0.393-0.312-0.383,0.492-0.753,0.238C136.571,90.579,136.758,89.356,137.438,88.989
	C137.178,89.844,136.758,89.356,137.438,88.989z M138.137,87.317c-0.041,0.138-0.394,1.197-0.66,0.954
	c0.397-0.437,0.083-2.124,0.857-2.201C138.102,86.61,138.375,86.776,138.137,87.317z M135.77,85.702
	c-0.049-0.047-0.059-0.133,0.052-0.246C135.803,85.538,135.788,85.62,135.77,85.702z M13.624,97.336l-0.005,0.029
	c-0.105-0.152-0.159-0.318-0.162-0.488c0.115,0.084,0.231,0.164,0.351,0.242C13.731,97.14,13.652,97.228,13.624,97.336z
	 M13.063,93.165c-0.436-0.125-0.471-1.083-0.654-1.422c0.333-0.079,0.608,0.848,0.781,1.041
	C12.96,92.806,13.02,93.018,13.063,93.165C12.714,93.065,13.009,92.981,13.063,93.165z M8.853,74.866
	c0.29-0.359,0.062-1.275,0.541-1.43c-0.236,0.545-0.002,1.334,0.253,1.83C9.203,75.428,9.202,74.935,8.853,74.866
	C9.143,74.506,9.168,74.928,8.853,74.866z M13.88,57.876c-0.021,0.233-0.175,0.46-0.366,0.563l0.007-0.035
	c-0.066-0.006-0.441,0.153-0.438,0.152C13.062,58.076,13.217,57.507,13.88,57.876C13.858,58.132,13.344,57.578,13.88,57.876z
	 M15.962,44.82c0-0.355,0.161-0.781,0.24-1.129c0.728,0.391,0.3-1.279,0.772-0.909c0.436,0.342-0.641,2.071-0.831,2.475
	C16.059,45.145,15.973,44.997,15.962,44.82C15.962,44.85,15.973,44.997,15.962,44.82z M10.169,76.524
	C10.177,76.617,10.151,76.646,10.169,76.524C10.171,76.549,10.165,76.549,10.169,76.524z M10.491,83.563
	c-0.38,0.016-0.286-0.873-0.593-0.99C10.121,82.149,10.653,83.135,10.491,83.563z M13.218,58.699
	c0.135-0.041,0.247-0.108,0.25-0.008c0.104,0.009,0.201-0.122,0.313-0.17c0.01,0.372,0.297,1.644-0.535,1.472
	c0.108-0.292,0.051-0.531-0.305-0.498C12.99,59.201,13.211,59.012,13.218,58.699C13.295,58.676,13.209,59.109,13.218,58.699z
	 M9.09,69.308c-0.004-0.249,0.026-0.648,0.423-0.691c0.332-0.036,0.42,1.426,0.038,1.597c0.029,0.213,0.17,0.033,0.21-0.044
	c-0.005,0.25-0.117,0.57-0.076,0.807C8.623,71.019,9.469,69.774,9.09,69.308C9.088,69.181,9.288,69.552,9.09,69.308z M9.622,79.463
	C9.09,79.065,9.927,78.893,9.622,79.463L9.622,79.463z M10.638,84.801c0.251,0.082,0.226,0.307,0.203,0.553
	C10.773,85.106,10.653,85.064,10.638,84.801C10.889,84.883,10.642,84.87,10.638,84.801z M10.885,85.836
	c0.004,0.008,0.006,0.016,0.01,0.022C10.884,85.856,10.88,85.848,10.885,85.836C10.889,85.844,10.885,85.842,10.885,85.836z
	 M16.35,102.569c-0.097-0.138-0.196-0.298-0.25-0.463C16.353,102.081,16.519,102.357,16.35,102.569z M39.421,15.491
	c-0.063,0.065-0.093,0.14-0.09,0.225c0.06,0.108,0.554-0.278,0.21-0.29c0.25-0.161,0.544-0.563,0.882-0.54
	c0.375,0.261,0.161,0.514-0.202,0.799c-0.705,0.553-1.66,0.623-2.415,1.084c0.253-0.271,0.48-0.455,0.754-0.706
	c0.137-0.114,0.213-0.26,0.228-0.438C39.029,15.448,39.187,15.588,39.421,15.491C39.033,16.066,39.332,15.528,39.421,15.491z
	 M55.039,7.29c-0.569,0.156-1.221,0.461-1.619,0.371C53.76,7.54,54.727,7.072,55.039,7.29C54.47,7.446,55.005,7.266,55.039,7.29z
	 M68.327,3.64c0.117,0.011,0.23,0.027,0.338,0.051C68.406,3.848,68.294,3.831,68.327,3.64C68.445,3.651,68.332,3.678,68.327,3.64z
	 M113.405,20.474c-0.041-0.059-0.073-0.117-0.104-0.178c0.232,0.282,0.355,0.553,0.324,0.778c-0.828-0.371-1.398-0.987-1.75-1.895
	c0.408,0.229,0.801,0.496,1.143,0.817C112.961,20.152,113.187,20.667,113.405,20.474C113.364,20.415,113.231,20.628,113.405,20.474z
	 M126.079,32.831c0.185,0.321,1.395,1.312,1.141,1.552C126.695,34.273,125.704,33.288,126.079,32.831z M133.827,53.019
	c-0.511-0.342-0.822-1.434-0.274-1.837C133.497,51.887,134.036,52.583,133.827,53.019C133.354,52.702,134.036,52.583,133.827,53.019
	z M136.053,53.186c0.067,0.376,0.274,0.512,0.032,0.856c-0.179,0.253-0.248,0.672,0.119,0.774c-0.071,0.071-0.122,0.184-0.185,0.267
	c-0.093-0.369-0.255-2.284-0.55-2.427c-0.125-0.061-0.454-0.139-0.206-0.256C135.366,52.354,135.982,53.069,136.053,53.186
	C136.059,53.219,135.836,52.831,136.053,53.186z M136.247,60.623c0,0.156-0.221,0.142-0.187,0.323
	c-0.272-0.017-0.117-0.372-0.013-0.489C136.079,60.556,136.146,60.611,136.247,60.623C136.247,60.779,136.137,60.645,136.247,60.623
	z M127.567,35.039c0.138,0.178,0.102,0.249-0.109,0.214C127.451,35.161,127.488,35.09,127.567,35.039
	C127.573,35.097,127.477,35.098,127.567,35.039z M127.61,35.916c0.001-0.001,0.1-0.513,0.102-0.569
	c0.162,0.231,0.383,0.41,0.55,0.634C128.375,36.383,127.78,35.86,127.61,35.916C127.647,35.837,127.78,35.86,127.61,35.916z
	 M135.135,57.718c-0.205,0.095-0.505-1.253-0.432-1.465C135.122,56.309,135.09,57.395,135.135,57.718
	C135.121,57.724,135.076,57.294,135.135,57.718z M125.268,35.118c-0.065,0.015-0.16,0.01-0.222,0.046
	c-0.075-0.221,0.103-0.174,0.232-0.207C125.278,35.012,125.274,35.065,125.268,35.118C125.202,35.133,125.274,35.065,125.268,35.118
	z M135.299,52.065c-0.051-0.002-0.097,0.011-0.139,0.038c0.028-0.096,0.049-0.193,0.062-0.296
	C135.274,51.889,135.3,51.975,135.299,52.065z M134.602,53.241c0.097,0.294,0.353,1.541-0.285,1.541
	c-0.069-0.193,0.042-0.541,0.039-0.75c-0.007-0.245-0.023-0.489-0.048-0.732C134.482,53.143,134.579,53.124,134.602,53.241
	C134.809,53.871,134.6,53.231,134.602,53.241z M131.598,46.041c0.295,0.065,0.351,0.409,0.414,0.729
	c-0.127-0.051-0.167,0.238-0.17,0.292C131.567,46.851,131.524,46.445,131.598,46.041C131.893,46.106,131.524,46.445,131.598,46.041z
	 M124.625,31.585c-0.025-0.128-0.043-0.261-0.063-0.396C124.611,31.324,124.637,31.457,124.625,31.585z M108.845,14.466
	c-0.09-0.027-0.039-0.088-0.021-0.173c0.183,0.149,0.342,0.319,0.479,0.511c-0.13-0.033-0.365-0.092-0.357,0.131
	C108.349,14.72,109.138,14.592,108.845,14.466z M111.565,17.713c0.412-0.063,0.586,0.334,0.703,0.584
	C111.945,18.352,111.331,18.124,111.565,17.713z M110.948,18.903C110.896,18.903,110.815,18.822,110.948,18.903
	C110.93,18.903,110.926,18.889,110.948,18.903z M109.816,17.836c-0.044,0.233-0.321-0.151-0.325-0.158
	C109.606,17.703,109.712,17.759,109.816,17.836C109.805,17.893,109.712,17.759,109.816,17.836z M113.631,21.365
	c0.006,0.006,0.276,0.195,0.276,0.266c-0.279-0.031-0.805-0.192-0.679-0.47C113.362,21.232,113.495,21.3,113.631,21.365z
	 M110.068,16.678c0.144,0.105,0.246,0.112,0.323,0.048C110.9,17.307,109.705,17.299,110.068,16.678z M21.251,35.745
	c0.065,0.091-0.048,0.248-0.124,0.319C21.028,35.984,21.07,35.878,21.251,35.745C21.265,35.764,21.207,35.848,21.251,35.745z
	 M20.735,36.733c-0.066-0.077-0.058-0.137,0.025-0.181C20.784,36.6,20.77,36.667,20.735,36.733
	C20.719,36.7,20.77,36.667,20.735,36.733z M37.794,17.551c-0.158,0.095-0.319,0.25-0.228,0.452
	c-0.221,0.193-0.433,0.211-0.704,0.333c-0.239,0.107-1.361,0.882-1.55,0.633c0.383-0.342,0.831-0.602,1.237-0.914
	C36.928,17.765,37.267,17.11,37.794,17.551C37.565,17.689,37.62,17.405,37.794,17.551z M41.258,17.374
	c-0.271,0.062-0.143-0.184-0.204-0.321C41.327,16.992,41.195,17.236,41.258,17.374z M53.205,11.782
	c0.147-0.443,0.877-0.269,1.244-0.439C54.295,11.868,53.65,11.916,53.205,11.782C53.353,11.339,53.407,11.843,53.205,11.782z
	 M62.383,9.729c0.209-0.111,0.255-0.032,0.14,0.237C62.419,9.947,62.372,9.868,62.383,9.729C62.441,9.714,62.397,9.829,62.383,9.729
	z M69.46,4.055c-0.041,0.108-0.34,0.081-0.65,0.042C68.968,4.072,69.325,3.951,69.46,4.055C69.419,4.163,69.441,4.04,69.46,4.055z
	 M75.401,10.976c0.382-0.085,0.273,0.257,0.55,0.267C76.013,11.407,75.262,11.282,75.401,10.976z M68.874,8.904
	c-0.111-0.086-0.233-0.108-0.367-0.065c0.023-0.153,0.28-0.101,0.266-0.279c0.165,0.018,0.125,0.241,0.313,0.228
	C69.081,8.894,69.01,8.932,68.874,8.904C68.77,8.851,68.938,8.889,68.874,8.904z M63.356,8.153c-0.08-0.083-0.164-0.16-0.252-0.232
	c0.109,0.012,0.135-0.011,0.078-0.07C63.689,7.808,63.627,8.518,63.356,8.153C63.304,8.084,63.378,8.183,63.356,8.153z M63.75,7.938
	c0.052-0.469,1.097-0.243,0.704,0.252c-0.232,0.085-0.442-0.056-0.662,0.146C63.856,8.195,63.842,8.063,63.75,7.938z M65.337,9.225
	c-0.129-0.131-0.271-0.244-0.417-0.353c0.256-0.055,0.373-0.162,0.548,0.088c0.153,0.217,0.312,0.435,0.013,0.552
	c-0.387,0.151-0.984,0.361-1.391,0.168C64.21,9.177,64.97,9.654,65.337,9.225C65.208,9.094,64.97,9.654,65.337,9.225z M64.601,8.653
	c-0.03-0.022-0.06-0.041-0.09-0.061c0.181-0.065,0.133-0.049,0.38,0.002C64.794,8.614,64.698,8.633,64.601,8.653
	C64.571,8.631,64.698,8.633,64.601,8.653z M50.785,12.45c0.057,0.187-0.161,0.244-0.359,0.285c-0.015-0.035-0.03-0.071-0.045-0.106
	C50.515,12.568,50.65,12.509,50.785,12.45z M59.24,10.334c0.184-0.184,1.179-0.243,1.413-0.098c-0.349,0.417-1.348,0.651-1.77,0.284
	C59.003,10.457,59.122,10.395,59.24,10.334C59.242,10.332,59.122,10.395,59.24,10.334z M59.828,8.689
	c0.236,0.619-0.188,0.328-0.609,0.588C59.271,9.145,59.631,8.23,59.828,8.689C59.84,8.72,59.818,8.664,59.828,8.689z M57.839,8.721
	c0.007,0.3-0.179,0.289-0.396,0.248C57.523,8.87,57.708,8.721,57.839,8.721C57.846,9.021,57.837,8.721,57.839,8.721z M36.219,20.09
	c0.062-0.023,0.125-0.061,0.194-0.117c0.037,0.162-0.054,0.54-0.062,0.605c-0.274,0.025-0.82,0.187-0.916-0.169
	c0.145-0.155,0.301-0.229,0.506-0.259c-0.116,0.054-0.168,0.135-0.159,0.243C35.915,20.467,36.177,20.148,36.219,20.09
	C36.281,20.067,35.939,20.476,36.219,20.09z M36.262,20.746c0.218,0.289-0.456,0.533-0.34,0.038
	C36.035,20.771,36.149,20.759,36.262,20.746C36.543,21.119,36.132,20.757,36.262,20.746z M35.204,19.318
	c-0.097,0.037-0.186,0.091-0.266,0.161c0.05-0.091,0.1-0.181,0.149-0.272C35.127,19.244,35.166,19.281,35.204,19.318z
	 M32.164,21.262c-0.056,0.07-0.138,0.102-0.247,0.096c0.071-0.146,0.171-0.292,0.29-0.434
	C32.273,21.028,32.196,21.146,32.164,21.262C32.161,21.266,32.196,21.146,32.164,21.262z M29.084,27.259
	c-0.21,0.599-0.821,0.95-1.269,0.439C28.255,27.073,28.685,26.895,29.084,27.259z M31.614,24.371
	c-0.023-0.199,0.798-0.96,1.207-0.425C32.417,24.09,31.997,24.395,31.614,24.371z M26.657,26.61
	c-0.024,0.079-0.068,0.161-0.13,0.246C26.533,26.779,26.581,26.673,26.657,26.61z M25.328,31.027
	c-0.434,0.926-1.074,1.151-1.696,2.243C23.916,32.269,24.309,31.257,25.328,31.027z M77.706,9.537
	c-0.312,0.09-0.802,0.018-1.221-0.146C76.824,9.319,77.461,9.191,77.706,9.537C77.395,9.627,77.696,9.522,77.706,9.537z
	 M72.59,4.659c-0.979-0.213-2.239-0.046-2.645-0.717c0.787-0.085,1.754-0.186,2.471,0.009c0.281,0.065,0.177-0.158,0.427,0.05
	c0.065,0.054,0.449,0.548,0.141,0.548C72.948,4.6,72.766,4.585,72.825,4.72C72.747,4.7,72.669,4.679,72.59,4.659
	C71.611,4.446,72.671,4.676,72.59,4.659z M60.334,8.633c0.324-0.217,0.695-0.171,1.057-0.286c-0.156,0.379,0.199,0.046,0.395,0.277
	c-0.016-0.407,0.382-0.417,0.644-0.408c0.448,0.017,0.152-0.381,0.594-0.023c-0.5,0.082-0.231,0.672-0.73,0.8
	c-0.306,0.078-0.954,0.389-1.255,0.321c-0.269-0.06-0.32-0.327-0.609-0.451C59.999,8.679,60.284,8.568,60.334,8.633
	C60.759,8.348,60.316,8.609,60.334,8.633z M55.062,9.406c-0.051-0.069-0.041-0.11,0.03-0.125C55.18,9.368,55.131,9.506,55.062,9.406
	C55.056,9.397,55.131,9.506,55.062,9.406z M54.743,9.296l0.063-0.044c-0.039,0.098-0.328,0.084-0.155,0.023
	C54.682,9.279,54.712,9.287,54.743,9.296z M42.394,14.301c0.201,0.47-0.781,0.86-0.993,0.455
	C41.727,14.755,42.314,14.115,42.394,14.301z M20.499,36.7c0.003-0.021,0.01-0.042,0.02-0.061c0.021,0.088,0.047,0.173,0.087,0.25
	C20.367,37.059,20.387,36.817,20.499,36.7z M135.17,49.95c-0.129,0.022-0.188,0.096-0.175,0.223
	c-0.057,0.009-0.246-0.622-0.264-0.673C134.944,49.452,135.083,49.629,135.17,49.95C135.029,49.979,135.083,49.629,135.17,49.95z
	 M130.622,43.36c0.088,0.093,0.142,0.26,0.203,0.373c-0.232,0.181-0.354,0.008-0.418-0.258
	C130.479,43.437,130.551,43.398,130.622,43.36z M127.873,31.58c-0.082,0.066-0.159,0.099-0.233,0.104
	c0.06-0.071,0.118-0.142,0.178-0.213C127.836,31.507,127.855,31.544,127.873,31.58C127.791,31.646,127.856,31.543,127.873,31.58z
	 M126.067,32.204c-0.017,0.076-0.241,0.481-0.275,0.502c-0.149-0.313-0.303-0.63-0.514-0.907
	C125.542,31.997,125.803,32.072,126.067,32.204C126.026,32.387,125.803,32.072,126.067,32.204z M124.278,30.874l0.025-0.046
	c0.063,0.323,0.084,0.652,0.17,0.971c-0.164-0.188-0.332-0.195-0.505-0.019c-0.055-0.34-0.225-0.648-0.41-0.932
	c-0.227-0.345-0.171-0.542-0.219-0.949c-0.131,0.112-0.172,0.241-0.176,0.375c-0.099-0.144-0.413-0.5-0.22-0.657
	c0.098,0.144,0.353,0.061,0.607,0.198C124.15,30.137,123.975,30.28,124.278,30.874z M114.98,22.098
	c-0.042-0.037-0.084-0.074-0.126-0.111c-0.237,0.27-0.779-0.111-0.705-0.492c0.091,0.074,0.226,0.109,0.315,0.198
	c0.079-0.251-0.313-0.356,0.043-0.567C114.761,21.308,115.704,21.848,114.98,22.098C114.958,22.062,115.09,22.06,114.98,22.098z
	 M108.544,14.069c0.111,0.094,0.068,0.102,0.041,0.268c-0.619-0.317-1.203-0.606-1.755-1.038
	C107.703,13.256,107.83,13.847,108.544,14.069C108.56,14.082,107.83,13.847,108.544,14.069z M104.668,17.402
	c-0.053,0.236-0.668-0.123-0.338-0.298C104.557,17.172,104.505,17.315,104.668,17.402z M103.536,14.323
	c0.121,0.042,0.199,0.099,0.243,0.165C103.698,14.433,103.616,14.378,103.536,14.323z M92.077,6.55
	c-0.038,0.299-0.987,0.323-1.163,0.137c-0.032-0.317-0.107-0.413-0.018-0.683C91.102,5.701,91.864,6.347,92.077,6.55
	C92.014,7.053,91.692,6.184,92.077,6.55z M90.984,7.084c0.45,0.046,0.528,0.737-0.102,0.59C90.909,7.323,90.764,7.192,90.984,7.084z
	 M102.057,10.928l0.001-0.002c0-0.061-1.26-0.21-1.268-0.582c0.29,0.09,0.524-0.064,0.813,0.094
	C101.302,10.717,101.901,10.832,102.057,10.928z M100.426,10.698c0.23,0.23,0.625,0.262,0.899,0.415
	c-0.097,0.03-0.188,0.018-0.276-0.039c-0.026,0.272,0.527,0.302,0.259,0.619c-0.105-0.089-1.428-0.846-1.493-0.76
	c-0.015,0.083,0.008,0.14,0.066,0.172c-0.826-0.197-1.844-0.396-1.978-1.405C98.826,9.816,99.547,10.459,100.426,10.698
	C100.428,10.7,100.381,10.686,100.426,10.698z M102.383,11.067c-0.083-0.042,0.019-0.142,0.044-0.173
	C102.416,10.949,102.402,11.007,102.383,11.067C102.379,11.065,102.402,11.007,102.383,11.067z M99.205,9.769
	c0.472-0.431,1.167-0.003,1.167,0.562c-0.594-0.22-1.129-0.567-1.726-0.781c0.116,0.042-0.759-0.25-0.628-0.171
	c-0.18-0.082-0.208-0.281-0.377-0.373C98.054,8.609,98.963,9.452,99.205,9.769C99.499,9.5,98.963,9.452,99.205,9.769z M90.786,4.801
	c-0.056,0.268-0.625,0.406-0.795,0.386c-0.184-0.17-0.235-0.668-0.241-0.907C90.142,4.334,90.421,4.672,90.786,4.801
	C90.738,5.037,90.345,4.645,90.786,4.801z M73.078,4.803c0.295-0.071,0.294-0.209,0.631-0.173c0.507,0.127,0.746,0.52,1.188,0.735
	C74.124,5.264,73.607,4.991,73.078,4.803C73.206,4.772,73.607,4.991,73.078,4.803z M20.013,29.368
	c-0.021,0.065-0.059,0.14-0.12,0.217c-0.052-0.092-0.073-0.195-0.04-0.311C19.907,29.314,19.959,29.352,20.013,29.368
	C19.992,29.433,19.959,29.352,20.013,29.368z M9.969,59.627c0.306,0.032-0.314,1.751-0.281,1.956
	C9.499,61.044,9.928,60.43,9.969,59.627C9.988,59.629,9.928,60.43,9.969,59.627z M9.801,61.707
	c-0.003,0.025-0.007,0.049-0.008,0.077c-0.028-0.039-0.051-0.079-0.069-0.118C9.746,61.692,9.773,61.705,9.801,61.707
	C9.798,61.732,9.773,61.705,9.801,61.707z M10.299,87.483c-0.057-0.2-0.11-0.401-0.161-0.604c0.381-0.064,0.353,0.43,0.422,0.684
	C10.465,87.562,10.378,87.536,10.299,87.483C10.286,87.37,10.39,87.502,10.299,87.483z M12.268,93.741
	c0.366,0.145,0.505,0.681,0.604,1.012C12.313,95.019,12.173,93.786,12.268,93.741C12.54,93.848,12.247,93.75,12.268,93.741z
	 M13.344,95.239c0.004,0.013,0.068,0.144,0.065,0.139c0.16,0.479,0.129,1.132,0.388,1.549c-0.248-0.18-0.386-0.55-0.479-0.879
	c-0.04-0.159-0.387-0.497-0.483-0.668C13.045,95.128,13.181,95.581,13.344,95.239z M31.889,120.852
	c-0.498-0.328-0.881-0.434-0.52-0.989c0.436,0.38,0.745,0.86,1.089,1.318c0.156,0.208,0.961,0.785,0.975,0.944
	c-0.307-0.243-0.655-0.404-1.044-0.463C32.528,121.278,32.159,121.033,31.889,120.852C31.631,120.682,32.242,121.088,31.889,120.852
	z M28.459,118.307c0.659-0.162,1.226,0.716,1.555,1.152C29.462,119.168,28.951,118.764,28.459,118.307
	C28.8,118.223,28.951,118.764,28.459,118.307z M30.224,119.745c0.1,0.137,0.195,0.266,0.286,0.379
	C30.323,120.141,30.215,119.893,30.224,119.745C30.323,119.881,30.218,119.846,30.224,119.745z M34.013,122.954
	c0.316-0.232,0.682-0.032,0.909,0.236C34.709,123.337,34.208,123.097,34.013,122.954z M35.142,123.59
	C35.141,123.59,35.097,123.561,35.142,123.59C35.14,123.59,35.136,123.586,35.142,123.59z M50.779,133.084
	C49.955,133.27,50.333,132.542,50.779,133.084L50.779,133.084z M51.055,133.727c0.016,0.048,0.031,0.095,0.047,0.143
	c-0.06-0.017-0.119-0.032-0.179-0.049C50.966,133.79,51.01,133.756,51.055,133.727C51.072,133.788,51.01,133.756,51.055,133.727z
	 M58.16,136.801c0.077,0.022,0.154,0.044,0.23,0.066C58.351,136.977,58.274,136.956,58.16,136.801
	C58.229,136.825,58.218,136.86,58.16,136.801z M61.071,137.36c-0.564-0.959-2.166-0.774-2.999-1.093
	c0.818-0.354,1.795,0.226,2.637,0.257c0.407,0.016,0.316,0.299,0.735,0.403c0.204,0.05,0.604,0.026,0.751,0.204
	C62.023,137.303,61.562,137.379,61.071,137.36C60.902,137.073,61.562,137.379,61.071,137.36z M71.515,138.159
	c-0.255,0.352-1.356,0.723-1.458,0.053C70.549,138.152,71.026,138.275,71.515,138.159C71.366,138.364,70.851,138.317,71.515,138.159
	z M72.812,137.821c0.052,0.24,0.577,0.608,0.742,0.512c0.164,0.223-1.285,0.121-1.558-0.027
	C72.131,138.032,72.756,138.163,72.812,137.821C72.845,137.973,72.756,138.163,72.812,137.821z M136.436,97.038
	c-0.072-0.027,0.375-1.039-0.109-0.791c-0.602,0.307-0.359,0.021-0.226-0.586c0.077,0.091,0.326-0.151,0.52-0.004
	c0.091,0.07,0.222,0.117,0.33,0.147C136.782,96.217,136.612,96.628,136.436,97.038C136.415,97.03,136.612,96.627,136.436,97.038z
	 M137.024,95.635l-0.176-0.072c0.04-0.022,0.271-0.051,0.258-0.167c-0.017-0.244-0.563,0.325-0.494-0.048
	c-0.229-0.377,0.335-0.738,0.492-0.952c0.128,0.067,0.169,0.345,0.344,0.129c0.077,0.122,0.042,0.216-0.106,0.281
	c0.083,0.079,0.688-0.1,0.545,0.15C137.648,95.372,137.373,95.286,137.024,95.635z M136.208,69.276
	c-0.215-0.529,0.024-1.683,0.479-1.968C136.375,68.067,136.815,68.801,136.208,69.276z M136.253,64.501
	c-0.143-0.511,0.306-0.286,0.191-0.025C136.39,64.499,136.329,64.514,136.253,64.501z M136.167,56.454
	c-0.077-0.166-0.122-0.422-0.156-0.607c0.134,0.027,0.519-0.224,0.569,0.043C136.62,56.101,136.664,56.771,136.167,56.454
	C136.143,56.402,136.397,56.6,136.167,56.454z M128.085,31.628C128.069,31.595,128.082,31.619,128.085,31.628
	C128.082,31.622,128.085,31.628,128.085,31.628z M116.401,17.029c0,0.038-0.018-0.002-0.026-0.022
	C116.383,17.015,116.392,17.021,116.401,17.029C116.401,17.031,116.392,17.021,116.401,17.029z M117.006,17.953
	c0.134-0.027,0.173,0.004,0.294,0.073c-0.178,0.15-0.291,0.025-0.39-0.105C116.944,17.933,116.975,17.944,117.006,17.953z
	 M111.354,14.44c0.016-0.039,0.031-0.077,0.047-0.116c0.074,0.053,0.148,0.105,0.223,0.158
	C111.573,14.507,111.487,14.499,111.354,14.44C111.372,14.4,111.487,14.499,111.354,14.44z M97.472,7.764
	c0.206-0.131,0.037-0.291,0.024-0.45c0.329,0.191,0.516,0.284,0.777,0.6c-0.338,0.021-0.934,0.046-1.07-0.363
	C97.314,7.601,97.407,7.668,97.472,7.764C97.68,7.632,97.407,7.668,97.472,7.764z M92.315,3.94
	c-0.774,0.214-2.047-0.693-2.758-1.073c0.814,0.201,1.625,0.418,2.435,0.64C91.774,3.637,92.227,3.85,92.315,3.94
	C92.133,3.99,92.196,3.817,92.315,3.94z M85.211,4.972c-0.2,0.613,2.07,0.148,2.404,0.172c0.907,0.064,1.765,0.275,2.438,0.814
	c-0.466-0.065-0.918-0.211-1.383-0.287c-0.132-0.01-0.7-0.073-0.163,0.213c-0.167,0.144-0.244,0.314-0.337,0.523
	c-0.205,0.467-0.032,0.21,0.197,0.549c-0.442-0.121-0.861-0.31-1.301-0.44C86.35,6.303,86.646,6.51,86.78,6.884
	c0.032,0.09-0.513-0.048-0.544-0.056c-0.031-0.159-0.355-0.337-0.546-0.457c0.26-0.262-0.021-1.017-0.179-0.795
	c-0.016,0.021,0.183,1.032-0.257,0.623c0.214,0.2-0.725,0.33-0.953,0.247c-0.16-0.062-1.313-0.526-0.709-0.778
	c-0.245-0.162-0.528-0.234-0.82-0.197c0.081-0.101-0.363-0.126-0.479,0.136c-0.48,0.198-1.081-0.248-1.492-0.534
	c0.196,0.044,0.449,0.061,0.564-0.148c0.354-0.004,0.708-0.001,1.062,0.003C83.355,4.938,84.283,4.96,85.211,4.972
	C85.096,5.325,83.686,4.953,85.211,4.972z M78.665,3.998c0.187,0.121,0.265,0.332,0.295,0.541c-0.165-0.009-0.384-0.061-0.571-0.084
	c-0.409-0.06-0.163,0.323,0.106,0.373c-0.344,0.141,0.194,0.165-0.051,0.233c-0.242,0.066-0.458-0.204-0.741-0.089
	c0.336-0.25-0.319-0.238-0.164-0.608c-0.104-0.031-0.121-0.136-0.219-0.255C77.573,3.966,78.562,4.205,78.665,3.998
	C78.847,4.115,78.529,4.271,78.665,3.998z M77.145,4.244c0.037,0.046,0.064,0.09,0.084,0.126c-0.433-0.006-0.654,0.352-1.125,0.265
	C76.2,4.362,76.869,4.225,77.145,4.244C77.182,4.29,76.943,4.23,77.145,4.244z M21.769,29.41c-0.019-0.432,0.409-0.567,0.681-0.663
	C22.473,29.089,22.168,29.696,21.769,29.41z M18.638,31.103c-0.041,0.141-0.36,0.692-0.021,0.716
	c-0.128,0.267-0.215,0.296-0.333,0.05c-0.065-0.136-0.185,0.05-0.345,0.006c0.127-0.445,0.391-0.872,0.602-1.28
	C18.954,30.899,18.442,30.806,18.638,31.103C18.54,31.443,18.605,31.053,18.638,31.103z M13.795,44.895
	c0.171,0.14,0.239-0.289,0.246-0.317c0.158,0.142,0.133,0.728-0.104,0.763C13.746,45.199,13.762,45.037,13.795,44.895
	C13.806,44.904,13.762,45.037,13.795,44.895z M14.937,42.396c-0.393-0.354,0.287-0.903,0.485-1.319
	C15.547,41.474,15.276,42.054,14.937,42.396z M14.083,44.005c-0.013-0.223-0.02-0.413,0.228-0.527
	c0.243,0.158,0.085,0.49-0.015,0.671C14.225,44.101,14.154,44.053,14.083,44.005C14.079,43.939,14.12,44.069,14.083,44.005z
	 M10.396,58.602C10.736,59.028,9.851,59.141,10.396,58.602L10.396,58.602z M9.79,53.037C9.562,52.146,10.33,52.278,9.79,53.037
	L9.79,53.037z M9.622,55.441c-0.048-0.309-0.219-0.468-0.324-0.034c0.433,0.063,0.127,0.381-0.075,0.584
	c-0.04-0.56-0.193-1.296,0.137-1.756C9.829,54.532,9.84,54.999,9.622,55.441C9.574,55.132,9.84,54.999,9.622,55.441z M7.776,55.519
	c0.143-0.273,0.079,0.262,0.084,0.185C7.791,55.677,7.771,55.607,7.776,55.519C7.822,55.431,7.771,55.607,7.776,55.519z
	 M9.945,86.752l0.011-0.01c-0.057,0.355-0.041,0.63,0.183,0.965L10.072,87.7c0.36,0.711,1.194,1.551,0.946,2.336
	c-0.386-0.431-0.089,0.529-0.057,0.68c0.069,0.327,0.153,0.339,0.353,0.477c0.17,0.116-0.09,0.589-0.024,0.844
	c0.202-0.044,0.22-0.248,0.227-0.414c0.081,0.239,0.186,0.479,0.398,0.633c-0.762,0.424-1.28-1.785-1.458-2.279
	c-0.227-0.631-0.441-1.267-0.645-1.906c-0.099-0.312-0.194-0.624-0.288-0.938C9.72,87.084,9.858,86.924,9.945,86.752z
	 M11.176,93.684c0.215-0.205,0.246-0.609,0.588-0.4c0.074,0.059,0.14,0.125,0.197,0.193c-0.352,0,0.065,1.004,0.113,1.132
	c0.131,0.352,1.005,1.629,0.815,1.835C12.576,96.782,11.435,94.059,11.176,93.684C11.378,93.491,11.369,93.963,11.176,93.684z
	 M13.934,99.311c-0.062-0.246,0.005-0.397,0.271-0.309c-0.097-0.266,0.134-0.454-0.17-0.797c0.356,0.435,0.843,1.169,0.91,1.757
	c0.042,0.373-0.37,0.48-0.144,0.78c0.215,0.286,0.6,0.362,0.814,0.645c-0.158-0.119-1.149-0.914-1.18-0.699
	C14.308,100.507,13.93,99.311,13.934,99.311C13.852,98.983,14.104,99.286,13.934,99.311z M23.813,115.292
	c-0.073-0.083-0.145-0.167-0.218-0.25C23.641,115.023,23.773,115.244,23.813,115.292z M23.436,115.383
	c-0.021,0.014-0.16-0.181-0.174-0.201C23.321,115.249,23.378,115.315,23.436,115.383C23.433,115.385,23.378,115.315,23.436,115.383z
	 M46.291,131.903c0.259,0.117,0.521,0.236,0.792,0.338c-0.217,0.069-0.632-0.242-0.822-0.35
	C46.271,131.895,46.281,131.901,46.291,131.903C46.55,132.02,46.281,131.901,46.291,131.903z M56.05,136.452
	c0.215-0.044,0.342,0.128,0.478,0.256c0.316,0.296,0.487-0.127,0.752,0.006c-0.303,0.408-1.006,0.093-1.378-0.033
	C55.952,136.604,56.001,136.528,56.05,136.452C56.337,136.393,55.987,136.528,56.05,136.452z M59.405,137.737
	c0.123,0.095,0.451,0.135,0.573,0.33c-0.236,0.236-0.559,0.282-0.871,0.252C59.107,138.035,59.453,138.056,59.405,137.737z
	 M87.452,137.096c0.055,0.551-0.854,0.615-1.515,0.787C85.825,137.325,87.116,137.067,87.452,137.096z M100.578,132.782
	c0.548-0.26,1.146-0.494,1.48-0.541c-0.047,0.994-1.56,1.277-2.645,1.242C99.532,133.321,100.03,133.04,100.578,132.782
	C101.126,132.522,100.03,133.04,100.578,132.782z M116.413,122.926c-0.234,0.221-0.498,0.328-0.779,0.332
	C115.891,123.155,116.151,123.049,116.413,122.926z M119.36,120.184C119.385,120.134,119.449,120.105,119.36,120.184
	C119.368,120.167,119.375,120.17,119.36,120.184z M119.706,119.979c-0.063-0.34,0.08-0.258,0.318-0.182
	C119.93,119.86,119.818,119.918,119.706,119.979z M134.93,99.309c-0.021,0.037-0.045,0.072-0.068,0.109
	c0.034-0.342,0.037-0.634,0.224-0.939C135.607,98.489,135.01,99.183,134.93,99.309C134.908,99.346,135.056,99.112,134.93,99.309z
	 M138.652,96.469c0.091-0.115,0.149-0.205,0.188-0.27C138.862,96.414,138.799,96.503,138.652,96.469
	C138.742,96.354,138.684,96.477,138.652,96.469z M139.991,94.879c-0.064-0.094,0.028-0.287-0.067-0.359
	c-0.559,0.233-0.838,1.044-1.041,1.561c0.007-0.086-0.615-0.151-0.708-0.264c0.133-0.302,0.188-0.642,0.207-0.969
	c0.169-0.334,0.05-0.65,0.456-0.681c0.304-0.022,0.422-0.021,0.589,0.28c0.586-0.519,0.902-1.203,1.158-1.929
	c0.097-0.273,0.472-2.032,0.841-1.333c0.287,0.547-0.458,1.506-0.67,1.993c-0.097,0.221-0.434,0.619-0.353,0.882
	C140.609,94.563,140.324,94.668,139.991,94.879C139.927,94.786,140.106,94.807,139.991,94.879z M141.278,93.768
	c-0.073,0.059-0.133,0.076-0.18,0.064c0.074-0.076,0.146-0.17,0.213-0.269C141.304,93.631,141.293,93.698,141.278,93.768
	C141.204,93.827,141.293,93.698,141.278,93.768z M143.253,89.245v-0.01c0.149,0.131,0.057,0.451-0.02,0.534
	C142.826,90.09,143.071,89.375,143.253,89.245z M140.93,80.649c-0.114,0.18-0.358,0.437-0.144,0.667
	c0.2-0.019,0.274,0.058,0.222,0.23c0.007,0.187,0.008,0.374,0.003,0.562c-0.061,0.313-0.274,0.604-0.332,0.98
	c-0.035,0.231-0.056,0.465-0.108,0.692c-0.047,0.201-0.285,0.27-0.264,0.044c0.032-0.279-0.379-0.082-0.253,0.402
	c-0.18,0-0.176,0.192-0.269,0.449c-0.095,0.265-0.455,0.39-0.53,0.734c0.144,0.076,0.263,0.046,0.356-0.091
	c-0.057,0.286-0.167,1.644-0.536,1.416c0.068-0.838,0.165-1.676,0.339-2.499c0.121-0.574,0.283-1.138,0.482-1.689
	c0.122-0.34-0.073-1.012,0.46-1.049c-0.014,0.033-0.166,0.307-0.021,0.363C140.593,81.955,140.656,80.758,140.93,80.649
	C140.879,80.729,140.705,80.739,140.93,80.649z M140.502,80.377c0.032-0.164-0.025-0.229-0.172-0.194
	c0.094-0.126,0.15-0.268,0.172-0.425C140.788,79.823,140.738,80.282,140.502,80.377C140.525,80.313,140.738,80.282,140.502,80.377z
	 M140.434,74.426c-0.077,0.026-0.155,0.054-0.232,0.08C140.211,74.387,140.322,74.309,140.434,74.426
	C140.368,74.467,140.359,74.348,140.434,74.426z M136.518,66.767c-0.316-0.672-0.216-1.436-0.382-2.122
	c0.134,0.051,0.265,0.045,0.392-0.017c0.034,0.345-0.047,0.814,0.13,1.13c0.114,0.205,0.361,0.189,0.247,0.468
	C136.817,66.441,136.563,66.525,136.518,66.767C136.393,66.502,136.577,66.447,136.518,66.767z M136.084,47.347
	c-0.281-0.718-0.844-1.556-0.287-1.845C136.264,46.373,136.245,47.073,136.084,47.347z M134.823,42.952
	c0.352-0.052,0.814,1.303,0.349,1.513C135.127,44.124,134.578,43.406,134.823,42.952C134.925,42.937,134.578,43.406,134.823,42.952z
	 M131.356,35.074c0.012,0.164,0.065,0.313,0.162,0.448c-0.286-0.06-0.195,0.146-0.401,0.275
	C130.799,35.438,131.051,35.251,131.356,35.074C131.374,35.214,131.051,35.251,131.356,35.074z M128.652,29.936
	c0.222,0.22,0.174,1.148,0.11,1.45c-0.187-0.29-0.447-0.562-0.766-0.898c0.253,0.075-0.091-0.469-0.056-0.391
	C128.17,29.87,128.481,30.198,128.652,29.936z M127.299,29.662c0.16,0.187,0.352,0.42,0.503,0.576
	c0.018,0.033,0.036,0.068,0.059,0.107c-0.129-0.168-0.446,0.143-0.519,0.234C127.29,30.486,127.115,29.751,127.299,29.662z
	 M124.477,25.12c0.244,0.176,1.308,0.963,0.912,1.272c-0.148-0.795-1.579-1.007-1.606-1.859
	C123.957,24.751,124.209,24.926,124.477,25.12C124.868,25.403,124.209,24.926,124.477,25.12z M116.721,16.8l0.008-0.021
	c0.019,0.031,0.036,0.066,0.054,0.099c-0.184-0.091-0.303-0.063-0.461-0.268C116.496,16.566,116.558,16.942,116.721,16.8z
	 M115.365,16.09c0.573,0.402,0.784,1.581,1.337,2.24c-1.149,0.366-0.344-0.603-0.985-1.035c-0.259,0.248-0.316,0.481-0.532,0.072
	c-0.146-0.277-0.434-0.578-0.396-0.918c0.39,0.171,0.315-0.166,0.001-0.308c-0.237-0.273-0.522-0.278-0.691-0.595
	c0.397,0.206,0.81,0.427,1.129,0.747C115.31,16.198,115.15,16.011,115.365,16.09z M106.074,9.904
	c-0.089,0.021-0.374-0.341-0.459-0.198c-0.03-0.125-0.021-0.245,0.029-0.362C105.843,9.522,106.102,9.686,106.074,9.904
	C106.056,9.908,106.102,9.686,106.074,9.904z M94.678,4.276c0.045,0.014,0.091,0.027,0.136,0.041
	C94.762,4.403,94.717,4.389,94.678,4.276C94.723,4.291,94.707,4.308,94.678,4.276z M82.909,3.425
	c-0.082,0.145-0.227,0.234-0.505,0.213C82.344,3.373,82.652,3.419,82.909,3.425z M78.507,2.897
	c-0.391,0.643-2.604,0.833-2.786-0.079C76.879,2.583,77.59,2.871,78.507,2.897C78.321,3.204,77.59,2.871,78.507,2.897z
	 M54.115,4.931c0.59-0.064,1.252-0.071,1.816-0.242c0.284-0.086,0.56-0.198,0.844-0.288c0.381-0.121,0.72-0.03,1.086-0.104
	c-0.367,0.157-1.238,0.757-1.653,0.557c-0.504-0.244-1.216,0.253-1.662,0.493c-0.326-0.023-2.267,0.05-2.257-0.084
	C52.89,5.103,53.498,4.998,54.115,4.931C54.558,4.883,53.612,4.986,54.115,4.931z M42.329,10.728
	c-0.086,0.266,0.028,0.182,0.169,0.336c-0.379,0.28-0.46,0.206-0.649-0.218C42.02,10.853,42.18,10.813,42.329,10.728
	C42.234,11.022,42.139,10.838,42.329,10.728z M36.476,13.998l-0.009-0.004c0.027-0.011,0.338-0.1,0.279-0.24
	c-0.146-0.06-0.282-0.033-0.411,0.081c-0.208-0.261,0.164-0.55-0.09-0.753c0.402-0.191,2.302-0.07,1.792,0.617
	c-0.152,0.205-2.012,1.331-2.222,0.747L36.476,13.998z M33.265,13.861c-0.179,0.219-0.416,0.404-0.683,0.575
	C32.807,14.24,33.035,14.045,33.265,13.861z M30.82,16.873c0.388-0.431,1.466-1.512,1.481-0.344c0.008,0.593-1.957,1.39-2.526,1.156
	C30.196,17.597,30.486,17.248,30.82,16.873C31.154,16.502,30.486,17.248,30.82,16.873z M23.337,22.835
	c0.187-0.168,0.616-0.304,0.877-0.38c0.07,0.372-0.84,0.691-1.099,0.566C23.189,22.959,23.263,22.897,23.337,22.835
	C23.397,22.781,23.267,22.897,23.337,22.835z M22.715,23.521c0.217,0.319-0.538,0.789-0.712,0.565
	C22.215,23.9,22.558,23.74,22.715,23.521C22.778,23.613,22.627,23.643,22.715,23.521z M18.366,28.455
	c0.981-0.824,1.342-2.179,2.335-2.984c-0.071-0.072-0.188-0.16-0.243-0.2c0.426-0.155,0.977-1.055,1.268-0.775
	c0.364,0.349,0.932-0.114,1.239-0.323c0.289,1.39,0.095,3.17-1.508,3.586c-0.078-0.098-0.04-0.347-0.015-0.415
	c0.374-0.236,0.272-0.613-0.184-0.316l0.006-0.04c-0.328-0.601-0.903,0.551-1.079,0.771c-0.588,0.737-1.484,1.188-2.084,1.926
	c-0.159-0.234,0.291-0.643,0.433-0.768C18.944,28.558,18.648,28.682,18.366,28.455C18.839,28.058,18.635,28.672,18.366,28.455z
	 M17.729,32.004c0.016,0.1,0.158,0.108,0.232,0.12c-0.394,0.605-0.756,1.177-1.261,1.7C16.75,32.866,17.448,32.848,17.729,32.004
	C17.734,32.035,17.448,32.848,17.729,32.004z M14.442,39.355c-0.95,0.898-0.785,3.263-2.427,3.3
	c0.178-0.761,0.692-1.378,1.072-2.043c0.252-0.44,0.46-0.929,0.758-1.339c0.021,0.103-0.003,0.197-0.071,0.281
	C14.052,39.613,14.142,39.045,14.442,39.355C13.932,39.837,14.144,39.047,14.442,39.355z M13.656,37.305
	c-0.103,0.35-0.387,0.191-0.529,0.461c0.029,0.31,0.577,0.324,0.785,0.412c-0.211,0.315-0.265,0.66-0.451,0.981
	c-0.28,0.484-0.192,0.584-0.764,0.566c0.129-0.479,0.459-1.031,0.273-1.54C12.875,37.926,13.24,36.797,13.656,37.305
	C13.527,37.743,13.273,36.838,13.656,37.305z M12.579,40.152c0.118,0.008,0.235,0.015,0.353,0.023
	c-0.291,0.589-0.708,1.105-0.993,1.698c0.066-0.137-0.349,0.771-0.243,0.632c-0.105,0.174-0.313,0.183-0.427,0.346
	c-0.346-0.444,0.39-1.091,0.687-1.334C12.372,41.176,11.952,40.635,12.579,40.152C12.705,40.158,12.032,40.573,12.579,40.152z
	 M10.844,43.204c0.611,0.113,0.546,0.955,0.247,1.292c-0.137,0.155,0.354,0.986,0.556,1.121c-0.096,0.086-0.252,0.292-0.362,0.34
	c0.362-0.157-0.091,0.434-0.192,0.551c-0.246,0.285-0.542,0.521-0.794,0.8c0.005-0.125-0.021-0.243-0.076-0.329
	c-0.192,0.402-0.248,0.671-0.392,1.056c-0.15-0.638-1.013-2.246-0.374-2.73C10.148,44.782,10.314,43.85,10.844,43.204
	C11.151,43.261,10.444,43.692,10.844,43.204z M9.624,41.234c0.279,0.015,0.524-0.121,0.735-0.404
	c-0.362,0.529,0.238,2.626-0.992,2.297c0.135-0.521,0.417-0.384,0.321-0.77c-0.402,0.072-0.515,0.279-0.557,0.674
	C8.885,42.582,9.56,41.817,9.624,41.234C9.904,41.249,9.576,41.666,9.624,41.234z M8.291,49.079
	c-0.094,0.266-0.186,0.787-0.681,0.482c-0.132-0.048-0.161-0.167-0.315-0.27c0.354-0.201,0.521-0.692,0.833-0.956
	C8.64,48.455,8.093,48.995,8.291,49.079z M6.778,43.829c0.065,0.48-0.224,0.952-0.407,1.416C6.258,44.807,6.573,44.271,6.778,43.829
	C6.789,43.915,6.582,44.251,6.778,43.829z M4.746,54.525c0.028-0.68,0.341-1.354,0.447-1.973c0.179-0.396,0.162-0.317,0.591-0.209
	C5.51,52.824,5.301,54.31,4.746,54.525C4.772,53.906,5.096,54.389,4.746,54.525z M5.002,52.524c-0.075-0.061-0.076,0.045-0.08,0.125
	c-0.274-0.116-0.172-0.513,0.043-0.691C5.238,52.033,5.108,52.372,5.002,52.524z M5.517,50.874c-0.08-0.619,0.427-0.894,0.663-1.394
	c0.393,0.12,0.362,0.835,0.204,1.111C6.212,50.868,5.844,50.767,5.517,50.874C5.427,50.177,5.925,50.74,5.517,50.874z M3.914,50.919
	c0.679-1.905,1.436-3.782,2.204-5.653c0.303,0.46,0.002,0.955-0.23,1.395c-0.168,0.318-0.354,0.635-0.462,0.979
	c0.102,0.432,0.078,0.877-0.025,1.307c-0.212,0.885-0.698,1.672-0.974,2.536c-0.07,0.213-0.123,0.431-0.159,0.653
	c-0.147,0.071-0.266,0.174-0.355,0.311c-0.21,0.312-0.27,0.711-0.311,1.075c-0.09,0.808-0.005,1.612-0.472,2.301
	c-0.356,0.526-0.552,1.386-0.778,1.994c-0.289,0.774,0.343,1.571,0.026,2.362c-0.264,0.066-0.599,1.685-0.663,1.964
	c0.002-1.035-0.121-1.804,0.132-2.835c0.182-0.742-0.021-1.456,0.469-2.097c0.167-0.219,0.08-0.644,0.102-0.953
	c0.042-0.607,0.17-1.145,0.336-1.732C3.097,53.311,3.489,52.108,3.914,50.919C4.581,49.047,3.369,52.443,3.914,50.919z
	 M2.729,65.839c-0.017-0.033-0.019-0.069-0.007-0.11C2.725,65.767,2.728,65.802,2.729,65.839z M3.246,63.529
	c-0.059,0.648-0.292,1.255-0.742,1.299c-0.097-1.012,0.261-1.935,0.384-2.872C3.183,62.183,3.301,62.879,3.246,63.529
	C3.188,64.177,3.301,62.879,3.246,63.529z M3.908,57.469c0.141,0.099,0.219,0.259,0.163,0.541
	C3.792,58.045,3.873,57.732,3.908,57.469z M1.566,63.396c0.001,0.287,0.031,0.574,0.09,0.855c-0.157,0.243-0.288,0.502-0.391,0.773
	C1.341,64.451,1.465,63.915,1.566,63.396C1.567,63.676,1.465,63.915,1.566,63.396z M2.232,66.85c0.036-0.23,0.076-0.462,0.123-0.697
	C2.389,66.337,2.503,66.771,2.232,66.85C2.268,66.62,2.348,66.816,2.232,66.85z M4.737,81.03c0.214,0.936,0.151,1.898-0.494,1.621
	c-0.081-0.717-0.415-1.699-0.234-2.188C4.2,80.749,4.542,80.752,4.737,81.03C4.95,81.965,4.542,80.752,4.737,81.03z M4.552,78.864
	c-0.175-0.007-0.166-0.382-0.188-0.48c-0.156,0.267-0.109,0.768-0.544,0.744c-0.064-0.502-0.126-1.004-0.181-1.506
	C3.986,77.967,4.522,77.977,4.552,78.864C4.401,78.858,4.522,77.977,4.552,78.864z M3.07,61.464
	c-0.259-0.138,0.011-1.056,0.147-1.181C3.529,60.527,3.103,61.161,3.07,61.464z M3.436,59.627c-0.165,0.015,0.017-0.53,0.021-0.584
	C3.691,58.84,3.524,59.627,3.436,59.627C3.392,59.631,3.426,59.627,3.436,59.627z M4.422,64.628
	c-0.344-0.163-0.537-1.035-0.152-1.19C4.216,63.883,4.561,64.152,4.422,64.628C4.118,64.484,4.619,63.954,4.422,64.628z
	 M4.942,63.013c-0.223-0.374-0.281,0.305-0.646,0.104c-0.045,0.099-0.158,0.113-0.288,0.199c-0.142-0.324-0.045-0.644,0.052-0.993
	c0.029-0.103,0.106-0.328-0.022-0.408c0.195-0.235,0.513-0.262,0.794-0.244c-0.027,0.128,0.109,0.878,0.194,0.521
	C5.199,62.225,4.893,62.847,4.942,63.013C4.66,62.541,4.818,62.587,4.942,63.013z M6.123,61.336
	c-0.07,0.375-0.157,0.637-0.378,0.296c0.139-0.231,0.418-1.893,0.257-2.042c-0.295-0.271-0.41,1.758-0.497,1.878
	c-0.139-0.293-0.695-0.471-0.655,0.037c-0.611-0.284,1.119-1.805,0.439-2.282c0.108-1.146,0.264-2.289,0.4-3.432
	c-0.129-0.172,0.382-0.566,0.425-0.706c0.135-0.444,0.038-0.983,0.031-1.44c-0.007-0.503,0.038-0.98,0.213-1.456
	c0.152-0.413,0.459-0.874,0.347-1.333l0,0c0.32-0.261,0.334-0.731,0.571-1.059c0.254,0.292-0.128,1.028-0.252,1.393
	c-0.06,0.176-0.447,1.456,0.029,0.76c0.122,0.208,0.364,0.321,0.574,0.445c0.328,0.194,0.446-0.211,0.849-0.293
	c-0.075,0.287-0.125,0.616-0.084,0.912c0.027,0.194,0.112,0.382,0.297,0.474C8.795,53.54,8.452,54.401,8.4,54.52
	c-0.066-0.07-0.123-0.18-0.156-0.43c-0.017,0.044-0.034,0.079-0.055,0.109c0.019-0.062,0.496-1.088,0.119-0.991
	c-0.318,0.082-0.418,0.928-0.525,1.19c-0.166,0.022-0.384,0.333-0.528,0.516c-0.091-0.11-0.15-0.346-0.244-0.422
	c-0.105,0.351-1.165,0.449-0.183,0.488c-0.113,0.282-0.245,0.624-0.021,0.893c0.014-0.287,0.14-0.568,0.215-0.841
	c0.317,0.208,0.26,1.385,0.242,1.705c0.146-0.006,0.228-0.138,0.312-0.269c0.176,0.847-0.785,1.084-0.755,2.003l0.036-0.015
	c-0.054,0.563-0.431,1.037-0.457,1.609C6.381,60.487,6.208,60.871,6.123,61.336C6.053,61.711,6.193,60.955,6.123,61.336z
	 M7.437,61.855c0.026,0.002,0.271-1.519,0.254-1.672c-0.052-0.444-0.369,0.269-0.363,0.251c-0.131,0.388-0.147,0.81-0.032,1.204
	c-0.203-0.5-0.087-1.066,0.132-1.521c0.164-0.34,0.081-0.867,0.342-1.101c0.299-0.268,0.247-1.371,0.838-1.208
	c-0.206,0.42-0.327,0.879-0.262,1.348c0.049,0.355,0.35,0.763,0.204,1.094c-0.13,0.295-0.343,0.544-0.453,0.849
	C7.992,61.387,8.01,62.385,7.437,61.855C7.461,61.857,7.567,61.975,7.437,61.855z M8.068,81.225
	c0.354,0.545-0.173-1.064,0.521-0.969c0.046,0.282,0.102,0.563,0.163,0.842c-0.164,0.074-0.34,0.157-0.408,0.34
	c-0.184,0.497,0.357,1.654,0.506,2.156C8.725,83.63,8.087,81.458,8.068,81.225C8.421,81.77,8.107,81.698,8.068,81.225z
	 M12.301,97.565c0.42-0.363,0.466,0.245,0.519,0.521C12.531,98.007,12.504,97.752,12.301,97.565
	C12.416,97.465,12.468,97.719,12.301,97.565z M13.044,99.362c0.102-0.012,0.05-0.086-0.004-0.152
	c0.283,0.056,0.545,0.331,0.669,0.359c0.199,0.512,0.319,1.077,0.721,1.48c-0.028,0.198-0.154,0.246-0.264,0.389
	C13.895,101.434,13.155,99.624,13.044,99.362z M18.786,107.6c-0.136,0.067-0.234-0.255-0.298-0.418
	c0.225-0.057,0.089-0.196,0.156-0.284c0.208-0.03,1.262,1.364,1.503,1.612c-0.312-0.549,0.4,0.118,0.477,0.206
	c0.453,0.522,0.214,0.437-0.126,0.71c0.303,0.276,0.602,0.536,0.826,0.885C20.279,109.611,19.933,108.178,18.786,107.6z
	 M20.537,112.922c0.005-0.045-0.011-0.087,0.031-0.111c0.009,0.063,0.019,0.125,0.028,0.188
	C20.577,112.973,20.557,112.948,20.537,112.922z M21.738,117.917c-0.042-0.009-0.085-0.018-0.127-0.026
	c-0.048-0.155,0.455,0.185,0.449,0.188C22.279,118.42,21.651,118.2,21.738,117.917C21.469,117.885,21.651,118.2,21.738,117.917z
	 M23.084,121.338c0.191-0.197-0.215-0.448,0.116-0.603c-0.207-0.207-0.884-0.694-0.764-0.978c0.456,0.53,1.124,0.691,1.689,1.063
	c0.366,0.239,0.514,0.675,0.775,1.021c0.341,0.45,0.736,0.856,1.147,1.241c0.688,0.646,1.431,1.233,2.081,1.918
	c-0.083,0.511-1.321-0.492-1.489-0.648c0.174-0.272,0.419,0.083,0.651,0.041c-0.508-0.411-0.693-0.346-1.212-0.726
	c-0.188-0.138-0.704-0.79-0.74-0.374C24.551,122.702,23.754,121.945,23.084,121.338C23.26,121.157,23.125,121.375,23.084,121.338z
	 M29.785,123.995c-1.239-0.054-1.971-1.074-2.577-2.029c-0.46-0.727-0.958-0.43-1.507-0.905c-0.415-0.359-1.048-0.701-1.008-1.336
	c-0.303,0.213-0.981,0.056-0.767-0.416c0.229,0.211,0.451,0.338,0.648,0.297c-0.523-0.545-0.896-1.082-0.796-1.541
	c-0.107,0.106-0.161,0.234-0.16,0.384c-0.28-0.125-0.342-0.334-0.356-0.612c-0.018-0.353-0.256-0.109-0.434-0.098
	c-0.533,0.035-0.944-1.331-1.346-1.628c0.262-0.048,0.779,0.714,0.938,0.588c0.211-0.158-0.704-0.818-0.748-0.906
	c0.322,0.172,1.208,0.783,1.479,0.237c0.511,0.445,1.15,0.998,1.355,1.67c0.175,0.572,1.296,0.999,1.821,1.298
	c0.736,0.416,1.433,0.838,2.089,1.371c0.382,0.311,0.751,0.907,1.14,0.896c-0.077,0.281,0.4,0.563,0.565,0.7
	c-0.063,0.254,0.173,0.304,0.202-0.022c0.257,0.351,0.675,0.45,1.006,0.708c0.117,0.091,0.732,0.418,0.59,0.641
	c0.052,0.097,0.051,0.299,0.168,0.433c-0.487-0.328-1.023-0.562-1.488-0.601c0.079-0.057,0.182-0.002,0.263-0.047
	c-0.196-0.168-0.403-0.402-0.526-0.158l0.217,0.201c-0.042-0.006,0.042,0.194-0.076,0.295c0.31,0.259,0.644,0.49,0.936,0.77
	c0.194,0.186,0.448,0.458,0.369,0.756c-0.15,0.125-0.307,0.084-0.045,0.285c-0.317,0.252-0.784-0.373-1.09-0.551
	c-0.126-0.073-1.042-0.461-0.987-0.613C29.702,124.038,29.744,124.016,29.785,123.995C28.34,123.932,29.482,124.061,29.785,123.995z
	 M34.78,128.991c-0.292-0.153-0.337-0.227-0.502-0.408c0.58,0.311,1.157,0.639,1.707,1C35.644,129.673,35.113,129.177,34.78,128.991
	C34.627,128.911,35,129.114,34.78,128.991z M36.373,129.977c0.005-0.002,0.01-0.004,0.015-0.006
	C36.386,129.982,36.381,129.984,36.373,129.977z M35.971,129.774c0.059-0.017,0.118-0.032,0.177-0.049
	C36.066,129.875,36.164,129.871,35.971,129.774C36.022,129.747,35.983,129.78,35.971,129.774z M40.169,130.803
	c-0.238-0.057-0.53,0.373-0.882,0.259c-0.334-0.108-0.672-0.21-1.005-0.323c0.293-0.434-0.109-0.437-0.439-0.496
	c0.023-0.192-0.194-0.4-0.337-0.103c-0.434-0.213,0.08-0.351,0.287-0.306c0.444,0.095,0.459-0.094,0.835,0.127
	c0.798,0.471,1.652,0.838,2.436,1.334c-0.131-0.065-0.314,0.12-0.438,0.054C40.433,131.242,40.37,130.859,40.169,130.803
	C40.096,130.786,40.289,130.836,40.169,130.803z M45.581,133.088c0.021-0.038,0.36-0.284,0.36-0.289c0-0.114-0.197-0.11-0.263-0.125
	c-0.05,0.059-0.109,0.108-0.177,0.148c-0.23-0.043-0.461-0.083-0.692-0.121c0.356-0.205,0.32-0.486-0.123-0.289
	c-0.478,0.213-0.451,0.047-0.964,0.039c-0.464-0.011-0.771,0.297-0.121,0.394c0.228,0.034,0.418,0.027,0.373,0.364
	c-0.555-0.081-1.184-0.365-1.562-0.787c-0.125-0.14-0.235-0.323-0.202-0.52c-0.376,0.008-0.648-0.323-0.938-0.508
	c0.269,0.038,0.09-0.23,0-0.288c-0.342-0.218-0.697-0.412-1.056-0.601c0.046-0.012,0.093-0.022,0.14-0.034
	c-0.251-0.158,0.074-0.436-0.24-0.574c-0.304-0.05-0.239,0.347-0.13,0.487c-1.419-0.728-2.538-1.814-4.077-2.293l0.015,0.018
	c-0.253-0.14-0.544-0.451-0.867-0.343c-0.153,0.054,0.026,0.271,0.148,0.229c0.459-0.16,1.448,1.03,1.776,1.338
	c-0.573,0.324-0.96-0.138-1.512-0.461c-0.69-0.403-1.434-0.682-1.889-1.345c0.778,0.147,0.245-0.535-0.083-0.721
	c-0.327-0.187-0.665-0.187-1.027-0.212c-0.447-0.031-0.806-0.235-1.12-0.551c0.126-0.227,0.303-0.313,0.115-0.531
	c0.161-0.011,0.306-0.064,0.435-0.162c0.116,0.141,0.267,0.277,0.463,0.232c0.637-0.147,0.312,0.129,0.59,0.498
	c-0.316-0.065-0.634-0.023-0.953-0.039c0.227,0.254,0.538,0.481,0.88,0.542c0.381,0.066,0.31-0.215,0.645,0.017
	c0.746,0.517,1.304,0.161,2.09,0.027c-0.26-0.297,0.122-0.642-0.431-0.708c-0.364-0.044-0.416-0.313-0.645-0.546
	c-0.243-0.246-0.552-0.431-0.878-0.544c-0.469-0.162-0.545-0.236-0.917-0.591c0.419,0.048-0.485-0.783-0.472-0.836
	c0.563,0.46,1.374,1.273,2.102,1.408c0.47-0.042,0.424-0.202,0.928,0.031c0.439,0.204,0.864,0.449,1.216,0.787
	c0.288,0.275,0.466,0.171,0.821,0.339c0.385,0.181,0.732,0.466,1.018,0.779c0.504,0.553,1.432,0.482,2.029,1.146
	c-0.422-0.191-0.58-0.326-0.803-0.156c0.396,0.205,0.894,0.105,1.068,0.557c-0.086-0.063-0.301-0.23-0.405-0.237
	c-0.183-0.103-0.319,0.124-0.136,0.231c0.074,0.117,0.317,0.147,0.42,0.244c0.012,0.281,0.071,0.23,0.292,0.451l0,0l0,0
	c-0.234,0.147-0.444-0.263-0.648-0.184c0.008,0.066,0.042,0.12,0.102,0.162c0.201,0.145,0.49,0.3,0.687,0.101l0,0l0,0l0,0
	c0.131,0.098,0.775,0.583,0.219,0.623c0.512,0.336,0.588,0.258,0.311,0.768c0.057-0.104,0.446,0.745,0.458,0.884
	c0.358-0.12,0.626-0.399,0.958-0.568c0.189,0.128,0.964,0.417,0.941,0.014c0.792,0.726,1.9,1.261,2.916,1.721
	c0.51,0.231,0.372,0.462,0.542,0.965C46.73,133.73,46.128,133.206,45.581,133.088C45.594,133.065,46.218,133.225,45.581,133.088z
	 M47.497,135.61c0.111-0.252,0.421-0.369,0.633-0.242c-0.074,0.089-0.116,0.183-0.047,0.246
	C47.935,135.692,47.766,135.735,47.497,135.61C47.609,135.358,47.766,135.735,47.497,135.61z M54.367,136.165
	c-0.493-0.146-0.98-0.31-1.47-0.465c0.447-0.383,1.175-0.131,1.687-0.033c0.576,0.101,0.7,0.348,1.154,0.584
	c-0.245,0.294-0.548,0.516-0.457-0.008C55.374,135.71,54.559,135.916,54.367,136.165C53.899,136.026,54.538,135.942,54.367,136.165z
	 M64.253,140.241c-0.218,0.22-0.683,0.088-0.94,0.051C63.353,140.059,64.113,140.094,64.253,140.241
	C64.078,140.417,64.231,140.217,64.253,140.241z M66.851,140.719l0.003,0.006c-0.262-0.052-0.679-0.008-0.773-0.309
	c0.379,0.058,0.759,0.107,1.141,0.146C67.195,140.69,66.974,140.717,66.851,140.719z M82.731,138.604
	c-0.176,0.129-0.417,0.219-0.801,0.221C81.649,138.454,82.795,138.114,82.731,138.604z M87.373,139.612
	c-0.327,0.173-0.631,0.586-0.938,0.7c-0.164,0.061-0.642-0.395-0.664-0.571c0.024-0.157,0.89-0.524,1.068-0.604
	c0.44-0.194,0.823-0.108,1.256-0.125C87.987,139.282,87.69,139.446,87.373,139.612C87.052,139.782,87.69,139.446,87.373,139.612z
	 M94.699,135.805c0.024-0.523,0.51,0.044,0.608,0.092c-0.086,0.037-0.047,0.143,0.013,0.246
	C94.62,136.461,94.958,135.749,94.699,135.805C94.704,135.702,94.958,135.749,94.699,135.805z M96.299,135.426
	c-0.302,0.1-0.667,0.21-0.927,0.316c-0.057-0.04-0.112-0.079-0.169-0.119c0.102-0.104,1.122-0.827,1.228-0.724
	C96.545,135.01,96.227,135.282,96.299,135.426C95.986,135.53,96.223,135.274,96.299,135.426z M96.796,134.856
	c0.126-0.502,0.368-0.721,1.101-0.795C98.117,134.588,97.35,134.87,96.796,134.856z M106.137,133.754
	c-0.419,0.237-0.848,0.478-1.199,0.811c-0.358,0.34-0.281,0.557-0.818,0.684c-0.039-0.241-0.179-0.11-0.278-0.189
	c0-0.26-0.286-0.324-0.26-0.123c0.066,0.448-0.791,0.641-1.163,0.81c-1.232,0.56-2.514,1.006-3.801,1.421
	c0.016-0.323-0.124-0.331-0.396-0.299c0.024-0.364,0.64-0.188,0.929-0.291c0.777-0.281,1.52-0.659,2.25-1.045
	c0.613-0.324,1.22-0.662,1.832-0.987c0.142-0.075,1.651-0.777,1.291-0.085c0.814-0.232,0.406-0.447,0.655-0.955
	c0.068-0.139,0.962,0.04,0.277-0.364c0.889-0.327,1.512-1.299,2.435-1.228C107.642,132.893,107.011,133.261,106.137,133.754
	C105.53,134.098,106.737,133.417,106.137,133.754z M108.079,128.764c-0.224-0.567,1.392-1.136,1.73-1.473
	C109.586,128.096,109.024,128.196,108.079,128.764z M110.352,126.954c0.083-0.282,0.526-0.739,0.811-0.803
	C111.391,126.571,110.75,126.84,110.352,126.954C110.493,126.469,110.75,126.84,110.352,126.954z M112.536,127.35
	c0.114-0.43,0.688-0.887,0.863-1.045C113.965,126.311,112.866,127.071,112.536,127.35z M120.833,117.967
	c-0.044,0.097-0.101,0.187-0.169,0.268c-0.146-0.127-0.086-0.225,0.182-0.293C120.842,117.952,120.837,117.959,120.833,117.967
	C120.771,118.086,120.837,117.959,120.833,117.967z M123.68,117.405c-0.049-0.312,0.517-0.516,0.763-0.63
	c0.189-0.089,0.387-0.155,0.592-0.198c0.199-0.322,0.423-0.629,0.648-0.934c0.031,0.135,0.05,0.438,0.034,0.523
	C125.502,116.702,124.3,117.62,123.68,117.405C123.671,117.348,124.193,117.583,123.68,117.405z M126.95,112.971
	c-0.155,0.225-0.282,0.468-0.397,0.715c-0.263-0.628-0.336-0.491,0.125-1.035c0.327-0.386,0.77-1.035,1.368-0.844
	C127.883,112.284,127.214,112.586,126.95,112.971C126.791,113.202,127.214,112.586,126.95,112.971z M132.427,105.987
	c-0.005-0.002-0.008-0.002-0.013-0.002c0.005-0.004,0.01-0.006,0.015-0.01C132.427,105.979,132.428,105.985,132.427,105.987z
	 M137.055,100.979c-0.104,0.351-0.206,0.694-0.424,0.984c-0.13,0.173-0.692,0.467-0.574,0.679c-0.299,0.078-0.467-0.3-0.557-0.509
	c-0.235,0.079-0.769,0.354-0.612-0.148c0.358,0.13,0.711-0.001,1.04-0.148c-0.269-0.201,0.011-0.611,0.138-0.783
	c0.091,0.136,0.354,0.341,0.537,0.261c-0.23-0.813,0.554-1.366,1.014-1.874C137.417,99.945,137.209,100.458,137.055,100.979
	C136.997,101.174,137.13,100.725,137.055,100.979z M138.741,99.831c-0.315-0.07-0.411-0.325-0.164-0.546
	c0.325-0.289,0.371-0.401,0.235-0.839c-0.225-0.724,0.133-0.583,0.566-1.031C139.163,98.223,139.31,99.144,138.741,99.831
	C138.623,99.804,139.121,99.372,138.741,99.831z M143.745,89.649c-0.05,0.013-0.1,0.026-0.149,0.039
	c0.016-0.211,0.063-0.415,0.055-0.627c-0.008-0.188-0.313-0.041-0.209-0.379c0.116-0.377,0.469-0.148,0.53,0.066
	C144.049,89.014,143.927,89.44,143.745,89.649C143.698,89.665,143.854,89.524,143.745,89.649z" class="color c1"/>
</svg>