<svg version="1.1" id="图层_1" x="0px" y="0px" width="72px" height="72px" viewBox="0 0 72 72" enable-background="new 0 0 72 72" xml:space="preserve" xmlns="http://www.w3.org/2000/svg" xmlns:xlink="http://www.w3.org/1999/xlink" xmlns:xml="http://www.w3.org/XML/1998/namespace">
  <circle fill="#FFFFFF" cx="36" cy="36" r="36" class="color c1"/>
  <path fill="#3E3A39" d="M36,8.153C20.645,8.153,8.153,20.645,8.153,36c0,15.355,12.492,27.848,27.847,27.848
	c15.355,0,27.848-12.492,27.848-27.848C63.848,20.645,51.355,8.153,36,8.153z" class="color c2"/>
  <circle fill="#231815" cx="36" cy="36" r="7.91" class="color c3"/>
  <circle fill="#FFFFFF" cx="45.808" cy="45.808" r="2.43" class="color c1"/>
  <g>
    <path fill="#FFFFFF" d="M32.704,24.172l0.046-8.304c0,0-3.868,0.245-8.465,3.365c-4.954,3.362-6.512,7.508-6.512,7.508l7.707,2.89
		c0,0,0.811-1.815,3.348-3.673C31.101,24.291,32.704,24.172,32.704,24.172z" class="color c1"/>
    <path fill="#FFFFFF" d="M24.538,31.419l-7.546-2.913c0,0-0.845,1.375-1.078,3.178c-0.295,2.271-0.321,3.318-0.321,3.318h8.095
		c0,0-0.023-0.711,0.184-1.742C24.095,32.144,24.538,31.419,24.538,31.419z" class="color c1"/>
  </g>
</svg>