<svg version="1.1" id="图层_1" x="0px" y="0px" width="119.254px" height="104.438px" viewBox="0 0 119.254 104.438" enable-background="new 0 0 119.254 104.438" xml:space="preserve" xmlns="http://www.w3.org/2000/svg" xmlns:xlink="http://www.w3.org/1999/xlink" xmlns:xml="http://www.w3.org/XML/1998/namespace">
  <path fill="#FFFFFF" d="M62.628,71.181c2.63,10.478,2.356,10.543-3.787,11.264c1.119,1.635,2.22,3.24,3.586,5.226
	c-1.657,0.891-3.277,1.762-4.379,2.354c1.614,2.584,3.127,5.006,5.144,8.229c-2.092,2.438-2.373,2.828-5.249,6.184
	c-8.067-3.937-19.749-14.637-23.315-21.756C40.84,74.509,55.29,83.709,62.628,71.181z M119.254,48.345
	c-4.176-1.301-6.365-1.801-11.441-3.078C97.23,42.601,95.73,40.351,93.165,31.989c-2.146-6.993-4.36-13.894-6.769-20.972
	C83.982,3.913,73.452-1.988,65.729,0.635c8.107,6.049,4.836,8.549,15.17,13.049c-6.75,0.584-7.729-0.528-13.895-4.377
	c-4.383-2.736-8.352-1.506-9.675,2.953c-1.527,5.146-3.147,10.715-2.391,15.818c0.65,4.384,4.592,8.376,7.042,12.485
	c-9.692-0.166-20.954,1.313-32.125-4.343C36.53,24.565,31.173,9.319,45.733,0.842C38.396,2.35,32.949,5.358,31.562,12.85
	c-1.211,6.541-2.666,12.666-5.043,19.858c-2.454,7.431-5.68,9.491-13.123,11.974c-4.5,1.5-8.844,2.412-13.396,3.824
	C30.527,77.433,93.5,75.367,119.254,48.345z" class="color c1"/>
</svg>