<svg version="1.1" id="图层_1" x="0px" y="0px" width="180px" height="149.596px" viewBox="0 0 180 149.596" enable-background="new 0 0 180 149.596" xml:space="preserve" xmlns="http://www.w3.org/2000/svg" xmlns:xlink="http://www.w3.org/1999/xlink" xmlns:xml="http://www.w3.org/XML/1998/namespace">
  <path fill="#3C2D3F" d="M68.317,43.001c0,0-52.042,40.577-65.272,78.506c-13.232,37.929,20.286,11.467,31.313,17.199
	c11.026,5.733,17.2,14.555,34.843,9.263c17.642-5.292,18.523-8.821,27.785-4.411c9.262,4.411,20.729,3.971,33.078-2.646
	c12.35-6.615,14.554-2.646,22.492,0.44c7.938,3.088,32.639,8.822,26.463-13.672c-6.174-22.493-47.633-79.388-47.633-79.388
	L68.317,43.001z" class="color c1"/>
  <path fill="#CC1526" d="M152.039,49.608c1.189-0.799,2.449-1.739,3.777-2.864c11.097-9.388,12.412-26.941,12.127-30.997
	c-0.397,0.772-6.444,12.173-20.09,18.4C150.273,39.088,151.65,44.304,152.039,49.608z" class="color c2"/>
  <path fill="#AF0425" d="M151.755,46.897c0.56,4.057,0.524,8.182-0.063,12.291c4.427-3.838,20.092-19.326,16.277-43.495
	c0,0-0.013,0.026-0.025,0.054c-0.366,3.973-2.486,19.641-13.582,29.027C153.441,45.552,152.583,46.246,151.755,46.897z" class="color c3"/>
  <path fill="#CC1526" d="M59.622,36.149c1.909-5.034,4.768-9.549,8.83-13.038C57.887,13.131,55.67,0.899,55.529,0.058
	c-1.505,3.776-5.586,20.902,2.135,33.216C58.324,34.328,58.978,35.281,59.622,36.149z" class="color c2"/>
  <path fill="#AF0425" d="M60.729,33.524c-0.354-0.539-0.711-1.095-1.079-1.684c-7.721-12.314-4.979-27.885-4.12-31.783
	C55.523,0.028,55.52,0,55.52,0c-10.214,20.348-1.689,37.207,2.102,43.105C58.314,39.757,59.331,36.524,60.729,33.524z" class="color c3"/>
  <path fill="#FFFFFF" d="M10.101,136.282c-7.498,2.314,2.315-21.392,2.756-25.25c0,0-9.812,19.627-7.607,25.58
	s5.403-0.551,17.2-0.992C22.449,135.62,17.598,133.966,10.101,136.282z" class="color c4"/>
  <path fill="#FFFFFF" d="M64.569,143.889c-11.246,4.632-15.216-3.528-16.76-4.63c-1.544-1.104-10.144-12.791-18.083-5.514
	c0,0,5.513-4.41,16.981,7.938c11.467,12.349,24.697-1.324,33.298-1.104C80.006,140.582,75.815,139.259,64.569,143.889z" class="color c4"/>
  <path fill="#FFFFFF" d="M148.201,134.408c-6.77-5.845-18.285,3.014-19.02,4.924c0,0,7.221-7.13,15.159-4.924
	c6.188,1.719,8.656,5.807,13.509,6.688C154.348,139.374,154.158,139.548,148.201,134.408z" class="color c4"/>
</svg>