<svg version="1.1" id="图层_1" x="0px" y="0px" width="184.451px" height="117.708px" viewBox="0 0 184.451 117.708" enable-background="new 0 0 184.451 117.708" xml:space="preserve" xmlns="http://www.w3.org/2000/svg" xmlns:xlink="http://www.w3.org/1999/xlink" xmlns:xml="http://www.w3.org/XML/1998/namespace">
  <path fill="#3E3A39" d="M149.292,104.154c-1.28-3.354-2.974-6.551-4.532-9.793c-1.679-3.494-0.565-8.245,2.388-9.949
	c4.788-2.762,4.916-7.698-0.15-10.113c-4.318-2.059-5.008-4.273-2.48-7.33c2.67-0.393,4.458-0.504,6.16-0.945
	c2.082-0.539,4.046-1.764,6.135-1.982c7.881-0.823,15.791-1.359,23.62-1.998c0.087-0.306,0.144-0.572,0.187-0.824
	c0.009-0.062,0.02-0.122,0.026-0.181c0.034-0.235,0.053-0.454,0.046-0.642c0-0.012-0.004-0.02-0.004-0.03
	c-0.007-0.179-0.035-0.333-0.074-0.474c-0.01-0.035-0.021-0.072-0.033-0.106c-0.048-0.136-0.105-0.257-0.184-0.357
	c-0.008-0.011-0.018-0.018-0.025-0.028c-0.074-0.089-0.16-0.163-0.256-0.227c-0.025-0.018-0.051-0.035-0.079-0.051
	c-0.106-0.063-0.221-0.113-0.348-0.151c-0.019-0.005-0.039-0.009-0.057-0.013c-0.115-0.031-0.239-0.054-0.368-0.069
	c-0.037-0.004-0.073-0.01-0.111-0.013c-0.144-0.014-0.292-0.021-0.446-0.021c-0.023,0-0.049,0.001-0.073,0.001
	c-0.211,0.002-0.429,0.011-0.651,0.024c-0.078,0.006-0.16,0.012-0.239,0.018c-0.166,0.012-0.333,0.023-0.498,0.034
	c-6.617,0.431-13.233,0.862-20.204,1.317c0.181-0.348,0.39-0.688,0.615-1.022c0.066-0.1,0.142-0.196,0.213-0.295
	c0.005-0.009,0.014-0.019,0.021-0.026c0.162-0.227,0.329-0.449,0.51-0.668c0.073-0.088,0.146-0.178,0.224-0.266
	c0.025-0.029,0.057-0.059,0.082-0.088c0.181-0.204,0.367-0.404,0.562-0.602c0.111-0.113,0.222-0.226,0.338-0.337
	c0.214-0.204,0.436-0.402,0.664-0.599c0.105-0.092,0.208-0.186,0.318-0.275c0.331-0.272,0.672-0.537,1.026-0.791
	c0.009-0.007,0.019-0.016,0.029-0.022c0.367-0.263,0.747-0.513,1.135-0.753c0.116-0.071,0.234-0.139,0.353-0.208
	c0.274-0.165,0.552-0.325,0.835-0.477c0.142-0.077,0.285-0.149,0.428-0.224c0.269-0.137,0.539-0.269,0.812-0.395
	c0.146-0.068,0.291-0.135,0.437-0.198c0.29-0.127,0.579-0.244,0.87-0.356c0.126-0.05,0.254-0.102,0.382-0.148
	c0.398-0.146,0.797-0.281,1.194-0.399c0.018-0.005,0.036-0.013,0.055-0.018c0.419-0.124,0.834-0.228,1.247-0.32
	c0.117-0.025,0.232-0.044,0.35-0.067c0.291-0.059,0.579-0.111,0.864-0.152c0.143-0.021,0.283-0.035,0.423-0.051
	c0.259-0.03,0.513-0.053,0.765-0.066c0.142-0.008,0.281-0.016,0.42-0.019c0.085-0.002,0.175-0.011,0.259-0.011
	c0.245,0,0.484,0.01,0.72,0.026c0.016,0.001,0.031,0,0.045,0.001c0.34,0.025,0.665,0.074,0.982,0.135
	c0.078,0.016,0.155,0.031,0.231,0.049c0.313,0.071,0.616,0.153,0.902,0.262c0.224,0.087,0.444,0.161,0.657,0.226
	c0.065,0.02,0.127,0.03,0.192,0.048c0.146,0.04,0.292,0.081,0.433,0.109c0.077,0.017,0.15,0.023,0.226,0.037
	c0.124,0.021,0.249,0.043,0.367,0.057c0.078,0.008,0.15,0.008,0.228,0.012c0.109,0.008,0.22,0.016,0.324,0.016
	c0.242-0.002,0.473-0.027,0.696-0.066c0.054-0.01,0.107-0.022,0.16-0.034c0.198-0.044,0.389-0.103,0.568-0.179
	c0.022-0.01,0.048-0.016,0.071-0.025c0.193-0.088,0.375-0.199,0.548-0.324c0.043-0.031,0.085-0.064,0.125-0.098
	c0.157-0.125,0.307-0.264,0.441-0.422c0.013-0.014,0.025-0.024,0.038-0.039c0.144-0.172,0.271-0.366,0.392-0.574
	c0.031-0.051,0.058-0.104,0.087-0.158c0.109-0.208,0.211-0.428,0.297-0.669c0.005-0.013,0.011-0.022,0.015-0.035
	c0.089-0.253,0.16-0.528,0.224-0.815c0.016-0.071,0.03-0.143,0.046-0.217c0.056-0.297,0.106-0.605,0.136-0.937
	c0.135-1.443,0.534-2.948,1.179-4.241c3.302-6.605,1.673-11.461-4.988-14.667c-1.888-0.909-3.615-2.194-5.554-2.951
	c-7.508-2.933-14.885-6.905-22.682-8.135c-4.963-0.784-8.725-2.721-13.703-5.012c0.273-0.017,0.544-0.024,0.813-0.024
	c0.014,0,0.027-0.001,0.04-0.001c0.041,0,0.08,0.004,0.12,0.004c0.28,0.003,0.56,0.014,0.836,0.031
	c0.086,0.005,0.173,0.011,0.259,0.018c0.317,0.025,0.634,0.057,0.947,0.1c0.008,0.001,0.017,0.003,0.024,0.004
	c0.31,0.042,0.616,0.096,0.922,0.153c0.088,0.017,0.173,0.033,0.259,0.05c0.267,0.054,0.533,0.111,0.797,0.174
	c0.046,0.011,0.092,0.02,0.138,0.031c0.304,0.074,0.606,0.154,0.909,0.238c0.084,0.023,0.166,0.047,0.251,0.071
	c0.243,0.069,0.485,0.141,0.727,0.215c0.067,0.02,0.135,0.041,0.202,0.061c0.294,0.091,0.587,0.185,0.878,0.279
	c0.097,0.032,0.193,0.064,0.291,0.096c0.222,0.073,0.445,0.147,0.666,0.221c0.356,0.119,0.71,0.237,1.063,0.354
	c0.038,0.012,0.075,0.024,0.113,0.037c0.26,0.086,0.52,0.17,0.779,0.253c0.076,0.024,0.152,0.048,0.228,0.072
	c0.3,0.094,0.602,0.187,0.9,0.273c0.015,0.004,0.027,0.007,0.042,0.012c0.278,0.081,0.556,0.155,0.833,0.228
	c0.079,0.02,0.157,0.04,0.235,0.059c0.269,0.066,0.536,0.128,0.803,0.185c0.032,0.007,0.063,0.015,0.096,0.021
	c0.291,0.059,0.583,0.109,0.876,0.155c0.075,0.011,0.151,0.021,0.228,0.032c0.246,0.034,0.493,0.062,0.739,0.083
	c0.061,0.005,0.117,0.012,0.177,0.017c0.293,0.022,0.587,0.034,0.881,0.036c0.115,0,0.229-0.003,0.344-0.005
	c0.106-0.003,0.213-0.004,0.32-0.01c0.123-0.006,0.246-0.017,0.369-0.027c0.107-0.008,0.214-0.017,0.32-0.029
	c0.125-0.014,0.25-0.033,0.375-0.051c0.106-0.016,0.213-0.029,0.319-0.048c0.128-0.023,0.256-0.052,0.385-0.08
	c0.104-0.023,0.209-0.043,0.313-0.068c0.135-0.033,0.27-0.074,0.402-0.112c0.102-0.029,0.202-0.055,0.302-0.087
	c0.142-0.044,0.284-0.098,0.426-0.149c0.096-0.035,0.189-0.066,0.286-0.104c0.156-0.062,0.315-0.134,0.475-0.205
	c0.08-0.036,0.161-0.067,0.242-0.106c0.239-0.114,0.48-0.237,0.723-0.372c-6.374-1.105-12.601-2.184-18.828-3.262
	c0.053-0.773,0.104-1.547,0.156-2.319c4.218-0.214,8.435-0.427,12.784-0.646c-0.096-0.256-0.147-1.006-0.503-1.203
	c-0.129-0.073-0.267-0.15-0.405-0.229c-0.083-0.047-0.168-0.095-0.254-0.142c-0.043-0.024-0.086-0.046-0.129-0.07
	c-0.076-0.041-0.152-0.082-0.229-0.121c-0.047-0.024-0.093-0.046-0.142-0.07c-0.072-0.036-0.145-0.07-0.219-0.103
	c-0.049-0.022-0.098-0.043-0.146-0.063c-0.073-0.031-0.146-0.058-0.218-0.084c-0.048-0.017-0.095-0.034-0.141-0.049
	c-0.075-0.024-0.149-0.042-0.224-0.06c-0.041-0.009-0.083-0.021-0.126-0.03c-0.088-0.016-0.173-0.023-0.256-0.028
	c-0.025-0.001-0.051-0.006-0.078-0.006c-0.11-0.001-0.218,0.009-0.322,0.034c-6.875,1.642-13.705,3.477-20.846,5.33
	c0.024,0.058,0.028,0.078,0.026,0.082c0,0,0.004,0.008,0.002,0.008l-0.002-0.005c-0.006-0.004-0.017-0.023-0.034-0.059
	c-0.005-0.009-0.011-0.019-0.015-0.03c-0.018-0.036-0.038-0.08-0.06-0.133c-0.005-0.016-0.012-0.027-0.018-0.043
	c-0.027-0.067-0.057-0.144-0.084-0.227c-0.009-0.021-0.016-0.04-0.021-0.061c-0.031-0.091-0.062-0.185-0.086-0.283
	c-1.755-6.896-6.643-10.209-13.263-10.896c-0.551-0.057-1.088-0.079-1.618-0.085c-0.185-0.002-0.368-0.003-0.55,0
	c-0.16,0.003-0.32,0.007-0.479,0.016c-0.223,0.011-0.443,0.029-0.662,0.049c-0.152,0.013-0.306,0.026-0.455,0.044
	c-0.224,0.027-0.444,0.062-0.664,0.099c-0.142,0.023-0.284,0.043-0.423,0.071c-0.236,0.045-0.469,0.101-0.699,0.157
	c-0.118,0.028-0.237,0.052-0.354,0.083c-0.301,0.081-0.598,0.172-0.892,0.271c-0.043,0.015-0.089,0.026-0.132,0.041
	c-0.337,0.116-0.668,0.244-0.993,0.383c-0.098,0.041-0.19,0.089-0.286,0.131c-0.228,0.103-0.454,0.205-0.676,0.318
	c-0.121,0.061-0.238,0.128-0.357,0.192c-0.192,0.104-0.385,0.209-0.574,0.322c-0.126,0.075-0.25,0.154-0.374,0.232
	c-0.178,0.112-0.354,0.226-0.529,0.345c-0.125,0.085-0.249,0.175-0.372,0.264c-0.169,0.122-0.337,0.246-0.502,0.375
	c-0.122,0.095-0.243,0.192-0.362,0.29c-0.163,0.134-0.325,0.271-0.485,0.411c-0.116,0.102-0.231,0.204-0.346,0.309
	c-0.16,0.146-0.317,0.299-0.474,0.452c-0.109,0.107-0.218,0.213-0.326,0.323c-0.16,0.164-0.314,0.333-0.471,0.503
	c-0.1,0.107-0.199,0.214-0.297,0.324c-0.168,0.192-0.333,0.39-0.497,0.589c-0.079,0.097-0.161,0.19-0.239,0.289
	c-0.24,0.3-0.476,0.608-0.706,0.925c-3.481,4.795-2.842,8.354,1.529,12.293c0.818,0.738,1.23,1.981,1.695,3.052
	c0.758,1.74,1.405,3.528,2.229,5.629c-1.131,0.555-2.634,0.981-3.741,1.893c-2.849,2.343-6.96,4.423-7.962,7.471
	c-2.018,6.129-6.116,8.949-11.446,11.186c-1.146,0.482-2.249,1.851-2.71,3.063c-0.119,0.314-0.253,0.625-0.405,0.933
	c-0.049,0.1-0.109,0.196-0.161,0.295c-0.109,0.205-0.216,0.411-0.337,0.613c-0.065,0.107-0.143,0.211-0.211,0.317
	c-0.122,0.188-0.241,0.379-0.374,0.563c-0.073,0.101-0.155,0.196-0.231,0.296c-0.141,0.185-0.279,0.37-0.431,0.55
	c-0.085,0.1-0.179,0.195-0.267,0.293c-0.153,0.172-0.304,0.346-0.465,0.512c-0.096,0.098-0.199,0.189-0.298,0.285
	c-0.163,0.16-0.325,0.322-0.496,0.477c-0.105,0.094-0.218,0.182-0.326,0.273c-0.172,0.148-0.343,0.297-0.521,0.438
	c-0.118,0.092-0.241,0.176-0.36,0.266c-0.178,0.132-0.353,0.267-0.535,0.393c-0.123,0.084-0.25,0.159-0.374,0.24
	c-0.187,0.12-0.37,0.244-0.559,0.357c-0.131,0.078-0.265,0.146-0.396,0.221c-0.188,0.105-0.377,0.215-0.569,0.313
	c-0.134,0.069-0.271,0.128-0.407,0.193c-0.193,0.093-0.386,0.188-0.58,0.272c-0.138,0.059-0.278,0.107-0.416,0.162
	c-0.195,0.078-0.391,0.159-0.588,0.228c-0.143,0.05-0.286,0.089-0.429,0.134c-0.194,0.061-0.388,0.126-0.582,0.178
	c-0.147,0.04-0.295,0.067-0.442,0.101c-0.189,0.044-0.379,0.093-0.568,0.127c-0.15,0.028-0.3,0.042-0.451,0.063
	c-0.185,0.027-0.369,0.059-0.552,0.075c-0.151,0.014-0.3,0.015-0.449,0.022c-0.168,0.008-0.337,0.024-0.503,0.024
	c-0.023,0-0.049-0.001-0.073-0.001c-0.709-0.006-1.42,0.005-2.131,0.012c-0.444,0.006-0.889,0.008-1.333,0.019
	c-0.598,0.015-1.195,0.042-1.793,0.069c-0.415,0.018-0.831,0.03-1.246,0.055c-0.665,0.041-1.328,0.1-1.992,0.158
	c-0.344,0.03-0.689,0.051-1.032,0.088c-1.005,0.104-2.006,0.23-3,0.387c-10.927,1.72-21.789,3.838-32.706,5.612
	c-5.013,0.814-10.16,0.885-15.116,1.917c-1.917,0.399-4.657,2.318-4.936,3.912c-0.029,0.171-0.027,0.345-0.005,0.522
	c0.008,0.059,0.029,0.118,0.042,0.177c0.026,0.121,0.055,0.24,0.102,0.363c0.027,0.07,0.066,0.143,0.1,0.214
	c0.054,0.111,0.109,0.224,0.179,0.335c0.046,0.076,0.1,0.151,0.152,0.227C0.667,75.784,0.748,75.893,0.836,76
	c0.063,0.077,0.128,0.152,0.196,0.229c0.098,0.107,0.201,0.214,0.309,0.32c0.075,0.073,0.15,0.146,0.23,0.219
	c0.117,0.107,0.241,0.213,0.369,0.316c0.083,0.069,0.164,0.138,0.251,0.206c0.143,0.108,0.291,0.216,0.441,0.321
	c0.082,0.058,0.16,0.116,0.245,0.173c0.198,0.132,0.403,0.259,0.612,0.384c0.042,0.025,0.083,0.053,0.126,0.078
	c0.253,0.146,0.514,0.285,0.775,0.418c0.08,0.04,0.162,0.075,0.242,0.113c0.185,0.089,0.37,0.176,0.557,0.256
	c0.104,0.044,0.206,0.082,0.311,0.124c0.164,0.065,0.329,0.13,0.493,0.188c0.111,0.039,0.221,0.073,0.332,0.108
	c0.156,0.05,0.312,0.097,0.466,0.14c0.112,0.029,0.221,0.057,0.331,0.082c0.15,0.036,0.3,0.066,0.447,0.094
	c0.105,0.02,0.211,0.037,0.315,0.051c0.146,0.021,0.287,0.033,0.428,0.043c0.096,0.008,0.193,0.016,0.288,0.018
	c0.15,0.003,0.293-0.004,0.434-0.016c0.07-0.005,0.145-0.006,0.213-0.014c0.203-0.026,0.397-0.066,0.574-0.127
	c3.185-1.084,6.312-3.035,9.532-3.189c1.652-0.079,3.308-0.155,4.962-0.229c0.473-0.021,0.943-0.041,1.415-0.061
	c1.302-0.057,2.604-0.107,3.905-0.154c0.494-0.018,0.988-0.036,1.482-0.053c1.72-0.058,3.44-0.108,5.159-0.143
	c0.102-0.002,0.203-0.002,0.305-0.004c1.585-0.03,3.169-0.045,4.753-0.049c0.219-0.001,0.438-0.007,0.657-0.007
	c0.288,0,0.578,0.009,0.867,0.01c1.216,0.005,2.432,0.02,3.646,0.043c0.506,0.011,1.013,0.019,1.52,0.032
	c1.672,0.045,3.343,0.104,5.012,0.194c7.535,0.407,14.968,2.688,21.968,4.037c1.604,1.356,2.864,2.685,4.364,3.634
	c2.897,1.834,5.994,3.349,8.891,5.182c4.323,2.737,8.438,5.812,12.831,8.424c8.892,5.29,18.558,9.535,26.62,15.857
	c0.41,0.322,0.809,0.621,1.203,0.91c0.078,0.057,0.156,0.115,0.234,0.172c0.384,0.275,0.761,0.535,1.136,0.779
	c0.066,0.043,0.134,0.084,0.199,0.127c0.362,0.23,0.722,0.447,1.08,0.647c0.032,0.019,0.064,0.038,0.096,0.056
	c0.373,0.204,0.746,0.388,1.12,0.559c0.076,0.035,0.154,0.07,0.232,0.104c0.37,0.162,0.743,0.309,1.122,0.436
	c0.056,0.019,0.112,0.034,0.169,0.053c0.358,0.115,0.721,0.213,1.088,0.297c0.054,0.012,0.104,0.026,0.159,0.037
	c0.392,0.084,0.791,0.146,1.199,0.191c0.085,0.01,0.17,0.018,0.256,0.025c0.414,0.039,0.837,0.064,1.273,0.065
	c0.054,0.001,0.111-0.003,0.166-0.005c0.339-0.002,0.688-0.018,1.044-0.043c0.109-0.009,0.218-0.018,0.329-0.027
	c0.416-0.037,0.837-0.085,1.278-0.154C148.854,116.261,152.129,111.59,149.292,104.154z M110.804,47.644
	c0.444,0.284,0.891,0.569,1.337,0.854c-1.046,2.685-2.091,5.368-2.79,7.164c-2.792-0.796-4.514-1.285-6.104-1.738
	C105.535,52.022,108.167,49.833,110.804,47.644z M105.002,88.098c0-1.894,0-3.344,0-4.897c5.566,0.077,8.89,3.074,11.745,8.364
	C112.424,90.288,108.797,89.218,105.002,88.098z" class="color c1"/>
</svg>