<svg version="1.1" id="图层_1" x="0px" y="0px" width="200px" height="146.074px" viewBox="0 0 200 146.074" enable-background="new 0 0 200 146.074" xml:space="preserve" xmlns="http://www.w3.org/2000/svg" xmlns:xlink="http://www.w3.org/1999/xlink" xmlns:xml="http://www.w3.org/XML/1998/namespace">
  <path fill="#070707" d="M0,0v60.629v8.667v8.981v9.334v58.463h200V87.611v-9.334v-8.981v-8.667V0H0z M21.206,138.527H6.878v-14.183
	h14.328V138.527z M42.716,138.527h-14.34v-14.183h14.34V138.527z M64.228,138.527H49.882v-14.183h14.346V138.527z M85.732,138.527
	H71.396v-14.183h14.336V138.527z M107.232,138.527H92.899v-14.183h14.333V138.527z M128.74,138.527h-14.342v-14.183h14.342V138.527z
	 M150.246,138.527H135.91v-14.183h14.336V138.527z M171.758,138.527H157.41v-14.183h14.348V138.527z M193.26,138.527h-14.34v-14.183
	h14.34V138.527z M178.92,7.784h14.34v14.18h-14.34V7.784z M157.41,7.784h14.348v14.18H157.41V7.784z M135.91,7.784h14.336v14.18
	H135.91V7.784z M114.398,7.784h14.342v14.18h-14.342V7.784z M92.899,7.784h14.333v14.18H92.899V7.784z M71.396,7.784h14.336v14.18
	h-0.001H71.396V7.784z M49.882,7.784h14.346v14.18H49.882V7.784z M28.376,7.784h14.34v14.18h-14.34V7.784z M6.878,7.784h14.328
	v14.18H6.878V7.784z" class="color c1"/>
</svg>