<svg version="1.1" id="图层_1" x="0px" y="0px" width="180px" height="171.893px" viewBox="0 0 180 171.893" enable-background="new 0 0 180 171.893" xml:space="preserve" xmlns:xml="http://www.w3.org/XML/1998/namespace" xmlns="http://www.w3.org/2000/svg" xmlns:xlink="http://www.w3.org/1999/xlink">
  <path fill="#CEB500" d="M176.813,57.513c-0.037-0.004-0.076,0-0.112,0.006c0.065-0.033,0.132-0.043,0.188-0.086
	C176.859,57.462,176.841,57.485,176.813,57.513z M167.637,51.204c-0.047-0.027-0.104-0.037-0.15-0.078
	c-0.01,0.055-0.057,0.061-0.057,0.125C167.506,51.214,167.563,51.237,167.637,51.204z M175.285,52.271c0,0.015,0,0.027,0,0.043
	c0.009,0,0.02-0.006,0.02-0.006C175.294,52.298,175.294,52.284,175.285,52.271z M179.207,62.323c0.01,0,0.01,0.004,0.02,0.008
	c0-0.008-0.01-0.008-0.01-0.019C179.207,62.313,179.207,62.319,179.207,62.323z M179.934,53.044c0.01-0.01,0.02-0.017,0.029-0.025
	l-0.029,0.017C179.934,53.038,179.934,53.038,179.934,53.044z M179.924,52.874c0.01,0.047,0.028,0.098,0.039,0.145
	c0.027-0.018,0.018-0.051,0.037-0.069C179.973,52.925,179.952,52.897,179.924,52.874z M100.893,4.149
	c0.113,0.091,0.227,0.185,0.338,0.273c0.039,0.211,0.058,0.604,0.123,0.606c0.68,0.08,0.989-0.413,1.272-0.913
	c0.17-0.363,0.623-0.595,0.511-1.084c0.717-0.38,0.848-1.084,1-1.794c-0.21,0.181-0.406,0.354-0.615,0.533
	c-0.252-0.721-0.754-1.123-1.535-1.145c-0.586,0.184-0.643,0.744-0.858,1.184c-0.009,0.023-0.019,0.051-0.028,0.074
	c-0.047,0.01-0.094,0.01-0.142,0.02C100.704,2.646,99.383,3.353,100.893,4.149z M106.342,4.409c0.51,0.157,0.803-0.279,0.906-0.638
	c0.245-0.807,0.604-1.633,0.15-2.797c-0.765,0.83-1.367,1.457-1.451,2.385C105.909,3.763,105.834,4.249,106.342,4.409z
	 M44.435,24.47c0.839,1.189,1.198,0.67,1.424-0.391c0.584-0.83,0.076-1.48-0.359-2.146c0.292-0.895-0.339-1.524-0.641-2.248
	c-0.227-0.553,0.528-1.645-0.614-1.606c-0.641,0.02-0.009,0.856-0.104,1.313c-0.113,0.963-0.057,1.926-0.226,2.906
	C43.804,22.915,43.2,24.022,44.435,24.47z M61.173,12.392c0.075,0.07,0.339-0.27,0.33-0.646c-0.444-0.515-1.028-0.986-1.801-1.117
	c-0.217-0.037-0.424,0.227-0.368,0.498C59.542,12.099,60.645,11.821,61.173,12.392z M152.02,12.915
	c-0.066-0.435,0.282-0.681,0.442-1.015c0.161-0.235,0.312-0.477,0.472-0.713c0.444-0.565,0.586-1.461,1.558-1.461
	c0.018-0.12,0.036-0.236,0.057-0.354c0.236-0.816,0.914-1.096,1.726-1.486c-0.301,1.293-0.453,2.457-1.32,3.357
	c0.095,0.457-0.301,0.707-0.451,1.053c-0.34,0.537-0.623,1.115-1.027,1.588c-0.359,0.411-0.793,1.146-1.425,0.727
	C151.418,14.202,151.531,13.495,152.02,12.915z M152.05,13.325c0.009-0.007,0.009-0.011,0.009-0.017c0,0-0.009,0.006-0.009,0.01
	C152.05,13.325,152.05,13.319,152.05,13.325z M103.533,4.423c-0.151,0.354-0.303,0.707-0.453,1.055
	c-0.359,0.379-0.717,0.75-0.49,1.359c0.622-0.094,0.604-0.637,0.773-1.027c0.264-0.453,0.537-0.906,0.811-1.356
	c0.622-0.313,0.98-0.992,0.471-1.373c-0.564-0.42-0.754,0.434-1.008,0.84C103.551,4.056,103.561,4.253,103.533,4.423z M159.32,4.8
	c0.396-0.561,0.461-1.193-0.256-1.41c-0.584-0.18-0.887,0.396-0.98,0.967c-0.377,0.685-1.027,1.265-0.782,2.277
	C157.773,5.753,158.924,5.733,159.32,4.8z M66.501,153.334c-0.029,0.02,0.075,0.319,0.122,0.49c0.132,0.34,0.368,0.584,0.708,0.717
	c0.292-0.039,0.698-0.094,0.349-0.472C67.378,153.731,67.18,153.09,66.501,153.334z M86.22,2.646
	c0.141,1.078,0.471,1.754,1.574,0.73c0.481-0.562,0.292-1.203,0.217-1.83c0.019-0.604-0.226-1.09-0.717-1.443
	c-0.084-0.008-0.169-0.008-0.264-0.004c-0.453-0.164-0.792-0.192-0.754,0.478c0.019,0.457,0.113,0.95-0.292,1.323
	C85.898,2.202,85.936,2.466,86.22,2.646z M148.164,7.747c-0.424,0.424-1.084,0.735-0.773,2.021
	C147.749,8.808,148.361,8.511,148.164,7.747z M81.07,155.184c-0.188-0.039-0.471,0.058-0.471,0.357
	c0.019,0.377,0.226,0.641,0.604,0.697c0.254,0.02,0.358-0.228,0.377-0.472C81.561,155.446,81.354,155.221,81.07,155.184z
	 M89.708,6.888c0.416,0.146,0.717-0.268,0.868-0.688c0.357-0.42,0.66-0.869,0.679-1.453c0.123-0.472,0.246-0.938,0.358-1.408
	c0.688-0.957,1.404-1.906,1.141-3.211c-0.669,0.994-1.404,1.951-1.488,3.211c-0.313,0.277-0.313,0.664-0.369,1.035
	c-0.508,0.422-1.112,0.76-1.281,1.477C89.557,6.214,89.17,6.7,89.708,6.888z M75.224,155.165c-0.254-0.021-0.33,0.149-0.245,0.301
	c0.104,0.246,0.142,0.623,0.509,0.586c0.113,0,0.283-0.227,0.292-0.359C75.809,155.315,75.469,155.258,75.224,155.165z
	 M47.839,18.454c-0.169,0.006-0.245,0.256-0.208,0.467c0.038,0.293,0.227,0.533,0.566,0.543c0.282,0.004,0.434-0.16,0.357-0.43
	C48.48,18.751,48.33,18.501,47.839,18.454z M42.936,24.056c0.038-0.113-0.094-0.424-0.113-0.424
	c-0.415,0.066-0.716,0.307-1.028,0.787C42.276,24.349,42.709,24.593,42.936,24.056z M159.764,140.264
	c0.338,0.283,0.527,0.869,1.197,0.623C160.771,140.284,160.414,140.04,159.764,140.264z M48.509,8.222
	c-0.311-0.356-0.575-0.588-0.952-0.381C47.5,7.87,47.481,8.085,47.538,8.138C47.764,8.378,48.047,8.351,48.509,8.222z
	 M27.442,46.929c-0.075,0.377-0.32,0.84,0.085,1.338C27.961,47.659,27.707,47.306,27.442,46.929z M144.486,147.922
	c-0.047,0.359,0.217,0.471,0.5,0.51c0.132,0,0.272-0.096,0.557-0.209c-0.283-0.188-0.443-0.338-0.623-0.395
	C144.789,147.79,144.496,147.866,144.486,147.922z M148.249,9.882c0.272,0.354,0.489,0.633,0.858,1.1
	C149.184,10.034,148.777,9.954,148.249,9.882z M53.252,8.915c0.094,0.024,0.226-0.131,0.349-0.207
	c-0.085-0.117-0.179-0.234-0.292-0.396c-0.16,0.119-0.264,0.203-0.377,0.283C53.035,8.708,53.12,8.88,53.252,8.915z M59.108,154.901
	c0.358,0.244,0.716,0.472,1.075,0.718c0.499-0.076,1.008-0.134,1.272-0.89C60.588,154.788,59.834,154.561,59.108,154.901z
	 M98.109,160.426c-0.489-0.49-1.064-0.283-1.631-0.207c-0.623-0.473-1.197-1.15-1.904-1.34c-0.377-0.113-1.338,0.207-1.51,0.904
	c-0.178,0.698-0.027,1.416,0.812,1.717c0.265,0.283,0.521,0.584,0.774,0.867c0.037,0.473,0.207,0.85,0.754,0.887
	c1.197,0.889,2.357,0.756,3.498-0.113C100.119,161.333,99.912,160.594,98.109,160.426z M72.697,155.014
	c1.292-0.266,2.518-0.68,2.979-2.414C74.167,153.071,73.583,154.221,72.697,155.014z M158.48,139.473
	c-0.973-0.377-1.18,0.621-1.574,1.188c-0.133,0.207-0.266,0.396-0.396,0.604c-0.357,0.813,0.02,1.301,0.688,1.678
	c0.056,0.076,0.104,0.171,0.142,0.267c0.904,1.11,1.51,0.961,2.159-0.51c0.228-0.15,0.622-0.17,0.472-0.604
	C160.244,140.774,159.604,139.907,158.48,139.473z M16.363,46.659c0.735,0.692,1.8,0.235,2.583,0.85
	c-0.179-1.023-1.008-1.293-1.641-1.76c-0.32-0.484-0.829-0.883-1.282-0.48C15.457,45.753,15.768,46.31,16.363,46.659z
	 M140.348,145.375c-0.02,0.02,0,0.358,0.084,0.49c0.188,0.245,0.424,0.038,0.633-0.037c0.941-0.357,1.074-1.15,1.037-2.15
	C140.734,143.545,141.225,145.112,140.348,145.375z M151.615,149.959c1.594,0.377,1.179-2.058,2.764-1.49
	C153.039,147.526,153.021,147.543,151.615,149.959z M37.769,137.68c-0.83-0.264-1.472,0.264-2.103,0.605
	c-0.538,0.28-0.406,0.621,0.217,0.657c0.792,0.17,1.604,0.453,2.282-0.264c0.283-0.113,0.594-0.227,0.453-0.604
	C38.466,137.7,38.155,137.567,37.769,137.68z M140.545,157.465c1.234-0.434,1.584-1.189,1.415-2.32
	C141.525,155.862,141.092,156.579,140.545,157.465z M80.627,153.805c0.764,1.076,1.377,1.021,1.989,0.021
	C82.014,153.635,81.429,153.411,80.627,153.805z M93.764,168.102c1.197-0.188,1.641-1.149,2.45-1.547
	C95.253,166.762,94.318,166.99,93.764,168.102z M161.064,145.356c-0.16,0.474,0.235,0.379,0.519,0.285
	c0.255-0.266,0.377-0.565,0.358-0.942c-0.028-0.171-0.066-0.492-0.096-0.492C161.121,144.245,161.206,144.924,161.064,145.356z
	 M29.281,46.31c-0.245-1.295-0.981-1.313-1.528-1.526C27.886,45.562,28.565,45.585,29.281,46.31z M71.301,165.387
	c-0.528,0.32-1.358,0.867-0.849,1.301c0.472,0.396,1.415-0.188,2.056-0.623c0.415-0.207,0.887-0.396,0.51-1.018
	C72.253,164.217,71.904,165.442,71.301,165.387z M149.307,151.844c-0.246,0.15-0.34,0.434-0.228,0.756
	c0.122,0.207,0.321,0.396,0.547,0.265c0.312-0.189,0.405-0.529,0.255-0.888C149.768,151.713,149.475,151.733,149.307,151.844z
	 M125.919,156.165c-0.292,0.508-0.056,0.771,0.435,0.922c1.273,0.416,1.527,0.17,1.357-1.338
	C126.861,154.788,126.287,154.995,125.919,156.165z M126.617,152.958c0.32-0.301,0.641-0.623,1.15-1.131
	C126.805,151.788,126.617,152.278,126.617,152.958z M154.539,142.321c0.32,0.283,0.574-0.133,0.613-0.51
	c0.02-0.149-0.038-0.319-0.086-0.641C154.559,141.584,154.256,142.057,154.539,142.321z M101.23,167.045
	c0.662,0.076,1-0.246,1.188-0.887C101.665,166.028,101.458,166.518,101.23,167.045z M154.623,149.43
	c-0.178,0.189-0.461,0.377-0.281,0.717c0.064,0.113,0.311,0.265,0.414,0.228c0.35-0.133,0.235-0.49,0.235-0.754
	C154.991,149.43,154.859,149.317,154.623,149.43z M26.471,137.833c-0.029,0.055,0.169,0.356,0.264,0.356
	c0.584-0.018,0.943-0.303,0.962-0.942C27.207,137.323,26.716,137.34,26.471,137.833z M70.565,171.497
	c0.708-0.037,0.642-0.66,0.83-1.058C70.716,170.497,70.49,170.875,70.565,171.497z M119.732,3.956
	c0.02-0.066-0.084-0.254-0.142-0.261c-0.442-0.032-0.575,0.283-0.717,0.734C119.337,4.36,119.62,4.272,119.732,3.956z
	 M154.406,32.382c0.16-0.621-0.244-0.941-0.471-1.258C153.852,31.581,153.766,32.005,154.406,32.382z M147.646,143.471
	c-0.246,0.131-0.17,0.377-0.076,0.584c0.066,0.133,0.218,0.228,0.32,0.34c0.047-0.227,0.123-0.434,0.133-0.66
	C148.023,143.565,147.91,143.415,147.646,143.471z M88.048,171.27c-0.151,0.133-0.226,0.34-0.415,0.623
	c0.302-0.02,0.471,0,0.584-0.057c0.265-0.133,0.434-0.357,0.265-0.66C88.445,171.137,88.143,171.176,88.048,171.27z
	 M119.148,157.766c-0.236,0.172-0.406,0.396-0.351,0.699c0.029,0.188,0.188,0.338,0.341,0.17c0.18-0.209,0.329-0.455,0.377-0.717
	C119.563,157.711,119.328,157.711,119.148,157.766z M28.207,48.12c0.15-0.574,0.226-0.914,0.339-1.354
	C28.093,47.05,27.753,47.286,28.207,48.12z M114.83,7.007c0.094-0.086,0.113-0.279,0.16-0.426c-0.133-0.027-0.266-0.062-0.463-0.099
	c-0.037,0.193-0.076,0.334-0.104,0.478C114.557,6.981,114.754,7.067,114.83,7.007z M34.788,147.149
	c0.095-0.358,0.161-0.659,0.227-0.979c-0.094,0.018-0.264,0-0.301,0.057C34.562,146.506,34.364,146.809,34.788,147.149z
	 M168.542,143.698c0.228-0.359,0.462-0.736,0.688-1.095c-0.812-0.02-1.387,0.508-2.217,0.791
	C167.57,143.981,168.063,143.831,168.542,143.698z M163.971,109.512c-0.104,0.762-0.121,1.526,0.01,2.271
	c0.076,0.431,0.244,0.748,0.469,0.985c-0.695,0.479-1.207,1.268-1.98,1.605c-0.434,0.49-0.856,0.961-1.291,1.453
	c-0.047,0.471-0.425,0.566-0.783,0.68c0.709,0.301,0.453,0.754,0.039,0.998c-0.619,0.355-1.309,0.506-1.771-0.283
	c-0.146,0.259-0.297,0.52-0.447,0.777c-0.002,0.176-0.025,0.373-0.102,0.619c-0.057,0.15-0.113,0.32-0.17,0.473
	c-0.057,0.282-0.104,0.565-0.16,0.848c-0.038,0.66-0.217,1.281-0.538,1.867c0.007,0.209,0.005,0.418-0.009,0.623
	c3.361-1.096,4.453-1.934,4.768-2.252c0.143-0.145,0.154-0.156,0.283-0.922c0.164-0.963,0.41-2.42,1.443-3.924
	c2.422-3.526,5.233-4.052,6.693-4.052c2.689,0,5.161,1.712,6.014,4.16c0.893,2.563-0.631,6.554-2.535,9.371
	c-2.536,3.752-7.193,8.055-15.713,10.861c0.551,0.101,1.121,0.305,0.895,0.787c-0.255,0.566-1.357,0.414-2.121,0.264
	c-0.391-0.016-0.803-0.012-0.875-0.416c-2.174,0.608-4.574,1.121-7.225,1.512c-0.031,0.082-0.061,0.162-0.105,0.244
	c-0.046,0.151-0.103,0.319-0.15,0.472c0.066,0.98-1.131,0.641-1.348,1.301c-0.16,0.246-0.313,0.49-0.473,0.735
	c0.377,1.283-1.234,0.584-1.367,1.357c-0.301,0.529-0.604,1.037-0.904,1.564c-0.15,0.679-0.463,1.339-1.235,1.188
	c-0.689-0.133-0.642-0.717-0.312-1.246l0.02-0.018c-0.047-0.113-0.094-0.228-0.151-0.34c-0.33-0.095-0.659-0.171-0.989-0.265
	c-0.113,0.02-0.218,0.057-0.33,0.076c-1.104,0.735-2.205,1.491-3.31,2.225c-0.237,0.679-0.851,0.812-1.425,1.019
	c-0.096,0.076-0.188,0.152-0.283,0.209c-0.15,0.168-0.302,0.321-0.462,0.471c0.793-0.131,1.575-0.17,2.366,0.474
	c-1.008,0.281-1.744-0.152-2.518-0.322c-0.906,0.925-1.811,1.849-2.716,2.772c0.056,0.321-0.142,0.509-0.396,0.642
	c-0.133,0.414-0.266,0.83-0.406,1.283c-0.311-0.266-0.584-0.49-0.867-0.736c-0.83-0.076-0.707-0.943-1.123-1.357l-0.009-0.02
	c-0.009,0,0,0.02,0,0.02c-1.254,0.904-2.698,0.414-4.056,0.566c-0.67,0.207-1.272,0.697-2.047,0.508
	c-0.791,0-1.49,0.244-2.103,0.736c-0.435,0.34-0.858,0.68-1.312,0.037c-0.35,0.149-0.697,0.321-1.037,0.489
	c0.425,0.925,0.377,1.587-0.887,1.548c-0.121,0.356-0.236,0.696-0.35,1.036c-0.122,1.037-0.773,1.15-1.631,0.962
	c-1.67,0.889-2.941,2.547-5.035,2.641c-0.376,0.604-0.887,0.662-1.48,0.34c-2.045,0.226-4.074,0.49-6.024,1.189
	c-0.613,0.659-1.255,1.224-2.197,0.526c-0.642,0-0.489-0.566-0.67-0.887c-0.065-0.113-0.142-0.207-0.207-0.301
	c-0.632-0.229-1.272-0.453-1.915-0.681c-1.148-0.356-2.338,1.341-3.46-0.075c-0.265-0.244-0.537-0.511-0.802-0.754
	c-0.518-0.19-1.094,0.265-1.602-0.132c-0.416-0.075-0.841-0.172-1.256-0.246c-0.603-0.187-1.349,0.604-1.857-0.245
	c-0.151-0.056-0.283-0.132-0.435-0.188c-0.094,0.056-0.198,0.037-0.292-0.02c-0.538-0.508-1.075-1.018-1.613-1.527
	c-0.669,0.02-0.943-0.64-1.471-0.867c-0.05-0.031-0.1-0.063-0.15-0.094c-2.86-0.322-5.667-0.814-8.417-1.457
	c0.013,0.102-0.004,0.213-0.09,0.344c-0.217,0.357-0.481,0.584-0.792,0.697c0.292,0.188,0.574,0.396,1.008,0.697
	c-1.31,1-1.914-1.395-3.13-0.244c0.396-0.641,0.613-0.962,0.962-0.98c-0.056-0.133-0.122-0.283-0.188-0.416
	c-0.091-0.238-0.178-0.48-0.266-0.721c-1.206-0.326-2.399-0.683-3.58-1.07c-0.572,0.313-1.017,1.363-1.747,0.508
	c-0.179-0.204-0.254-0.375-0.273-0.526c-0.386,0.83-0.933,0.982-1.952,0.057c-0.264-0.057-0.623,0.096-0.669-0.377
	c-0.382-0.522-0.52-1.043-0.467-1.539c-3.42-1.408-6.712-3.06-9.849-4.949c-0.969,0.718-1.989,0.808-3.113,0.058
	c-1.508,0.416-2.291-0.584-3.083-1.584c-0.669-0.679-1.339-1.357-2.018-2.035c-1.301-0.662-1.962-1.962-2.904-2.98
	c0.009,0,0.009-0.02,0.019-0.02c-0.01,0-0.01-0.021-0.019-0.021v0.039c-0.642-0.057-1.075-0.51-1.566-0.85
	c-0.962-0.188-1.008-1.15-1.508-1.734c-1.396-0.074-2.509-1.34-4.018-1.02c-1.905,1.284-3.3,0-4.715-0.98
	c-1.829-1.301-3.093-3.092-4.017-5.129c-0.641-0.096-0.641-0.887-1.188-1.094c-0.087-0.039-0.202-0.067-0.321-0.094
	c-0.18,0.343-0.36,0.675-0.54,1.021c-1.437,3.108-3.439,5.106-5.947,5.938c-1.156,0.387-3.404,0.932-9.544,1.205
	c-5.165,0.231-6.412,0.873-6.458,0.897c-0.631,0.361-1.328,0.537-2.021,0.537c-1.024,0-2.038-0.385-2.815-1.127
	c-1.303-1.246-1.631-3.203-0.806-4.807c3.087-6.002,8.388-16.991,15.768-32.677c-0.543-1.313-0.598-2.719-0.59-4.127
	c-0.282-1.075-0.942-2.161,0.038-3.235c0.057-0.142,0.132-0.281,0.198-0.424c0.5-1.664,2.084-1.701,3.348-2.222
	c0.674-0.254,1.257-0.795,2.046-0.67c0.134-0.282,0.27-0.566,0.403-0.846c-0.105-1.605-0.178-3.222-0.178-4.855
	c0-1.491,0.058-2.97,0.146-4.442c-0.181-0.145-0.355-0.318-0.552-0.512c0.236-0.054,0.429-0.06,0.593-0.032
	c0.509-7.562,2.163-14.805,4.793-21.565c-0.111-0.309-0.166-0.639-0.171-0.989c-0.027-0.259-0.046-0.519-0.066-0.776
	c-0.009-0.029-0.009-0.063-0.019-0.092c-0.273-0.081-0.556-0.243-0.792-0.354c-0.565-0.257-1.055-0.671-1.584-1.021
	c-0.283-0.257-0.745-0.322-0.848-0.777c-1.151-0.467-1.773-1.467-2.575-2.521c0.897,0.023,1.632,0,2.179,0.646
	c0.066,0.1,0.132,0.199,0.198,0.297c0.896-0.396,1.386,0.367,2.028,0.699c0.236,0.154,0.471,0.307,0.716,0.461
	c0.283,0.236,0.698,0.315,0.821,0.74c0.678,0.319,1.046,0.909,0.669,1.53c0.071,0.069,0.142,0.139,0.213,0.207
	c7.248-17.155,20.851-30.959,37.849-38.503c0.17-0.204,0.329-0.249,0.482-0.218c8.951-3.895,18.825-6.068,29.209-6.068
	c2.259,0,4.488,0.117,6.695,0.317c0.133-0.467,0.418-0.867,0.999-1.3c-0.112,0.576-0.262,0.988-0.475,1.34
	c5.495,0.537,10.81,1.695,15.881,3.379c0.194-0.064,0.392-0.121,0.597-0.164c1.528-0.393,2.942-1.291,4.611-1.084
	c0.35-0.453,0.697-0.906,1.376-0.793c0.265-0.093,0.528-0.187,0.793-0.281c1.972-1.203,4.035-0.858,6.119-0.416
	c0.707,0.269,1.424,0.528,1.547,1.435c0.065-0.052,0.132-0.047,0.198,0.014c1.056,0.703,0.509,1.961,0.998,2.861
	c0.029,0.363,0.058,0.727,0.087,1.09c-0.029,1.307,0.471,2.617-0.066,3.914c0,0.395,0.101,0.806,0.029,1.188
	c3.5,2.236,6.81,4.744,9.871,7.525c0.038-0.047,0.075-0.094,0.114-0.141c-0.059-0.736,0.556-0.727,0.998-0.912
	c0.104,0.442,0.32,0.912-0.264,1.203c-0.169,0.062-0.289,0.166-0.385,0.291c2.57,2.376,4.97,4.931,7.179,7.649
	c4.775-1.891,8.666-2.824,11.755-2.824c1.772,0,3.346,0.339,4.676,1.002c0.998,0.496,1.75,1.382,2.076,2.447
	c0.328,1.064,0.203,2.218-0.344,3.191c-1.83,3.257-3.587,6.424-5.281,9.513c0.043,0.068,0.084,0.138,0.127,0.206
	c0.808-0.571,1.772,4.095,2.578,3.521c0.576,0.813,1.045,1.43,1.441,1.95c2.115,0.181,3.994,0.852,5.594,2.015
	c3.256,2.368,4.938,7.186,4.869,13.932C179.051,81.311,174.203,95.881,163.971,109.512z M170.91,58.87
	c0.012,0.005,0.025,0.008,0.037,0.014c-0.012-0.006-0.025-0.011-0.037-0.017C170.91,58.868,170.91,58.869,170.91,58.87z
	 M26.49,51.46c-0.01-0.006-0.019-0.01-0.019-0.01c0,0.004,0.009,0.01,0.019,0.02C26.49,51.46,26.49,51.464,26.49,51.46z
	 M54.185,143.621h-0.046c-0.013,0.031-0.024,0.066-0.036,0.098C54.128,143.686,54.155,143.653,54.185,143.621z M137.852,144.979
	c-0.028-0.022-0.059-0.049-0.088-0.073c0,0.019,0,0.036-0.01,0.036C137.786,144.954,137.818,144.967,137.852,144.979z
	 M170.334,115.356c0.053-0.002,0.105-0.004,0.158-0.002c-0.023,0-0.045-0.006-0.067-0.006
	C170.396,115.348,170.363,115.354,170.334,115.356z" class="color c1"/>
</svg>