<svg version="1.1" id="图层_1" x="0px" y="0px" width="232.107px" height="198.003px" viewBox="0 0 232.107 198.003" enable-background="new 0 0 232.107 198.003" xml:space="preserve" xmlns="http://www.w3.org/2000/svg" xmlns:xlink="http://www.w3.org/1999/xlink" xmlns:xml="http://www.w3.org/XML/1998/namespace">
  <path fill="#6A6841" d="M222.326,168.958c-0.739-0.369-16.997-8.285-56.369-12.381l0.155-0.563c1.164-0.792,2.245-1.748,3.229-2.858
	c1.87-2.09,3.082-4.355,3.967-6.01l0.452-0.846c4.068-7.36,2.33-13.07,0.931-15.821c-1.003-1.989-2.479-3.717-4.286-5.048
	c-0.008-1.467-0.013-3.001-0.013-4.454c0.002-1.017,0.009-1.94,0.019-2.767l1.438-1.396l0.097-0.094l0.092-0.1l0.426-0.461
	l0.105-0.115l0.101-0.121c3.508-4.301,4.341-9.479,2.359-14.15c0.282-1.359,0.373-2.733,0.271-4.104
	c-0.019-0.248-0.043-0.495-0.073-0.74c5.349-2.792,11.526-8.458,18.997-17.358c7.146-8.515,13.022-17.165,13.271-17.529l0.348-0.514
	l0.854-1.265l0.004-1.525l0.001-0.61c0.023-11.358-7.041-23.935-20.592-25.986c-10.175-1.546-18.42-10.8-25.046-18.234l-0.203-0.229
	c-4.107-4.599-9.336-7.022-15.129-7.022c-3.475,0-6.614,0.862-9.061,1.736C133.738,4.956,124.163,0,109.939,0
	C95.722,0,86.144,4.957,81.214,8.395c-2.444-0.874-5.588-1.737-9.062-1.737c-5.796,0-11.021,2.424-15.114,7.01l-0.211,0.236
	c-6.628,7.438-14.874,16.693-25.054,18.24c-9.988,1.515-17.627,9.106-19.931,19.813L11.7,52.624l-0.362,1.679l0.745,1.546
	l0.298,0.618c8.043,16.718,19.741,36.313,32.278,41.611c-0.056,1.241,0.045,2.472,0.296,3.69c-1.988,4.659-1.156,9.851,2.369,14.166
	l0.166,0.203l0.187,0.187l1.894,1.875c0.02,1.566,0.03,3.92,0.013,7.229c-1.807,1.33-3.28,3.059-4.288,5.057
	c-1.396,2.738-3.145,8.447,0.889,15.739l0.504,0.94c0.925,1.738,2.375,4.463,4.745,6.836c-2.154-0.115-4.437-0.187-6.794-0.187
	c-7.986,0-15.243,0.808-21.571,2.401l-0.734,0.188c-2.538-0.74-5.42-1.113-8.594-1.113h-1.12h-1.05l-0.961,0.422l-1.022,0.449
	C4.814,158.248,0,164.037,0,172.259c0,2.812,0.526,5.427,1.565,7.775c2.416,5.516,6.75,7.762,8.021,8.317l1.025,0.448l0.958,0.42
	h1.047h1.118c3.155,0,6.03-0.377,8.573-1.119l0.699,0.182c0.727,0.188,1.505,0.365,2.383,0.549
	c5.735,1.234,12.229,1.867,19.258,1.867c6.986,0,13.311-0.623,17.688-1.205l1.178,1.84l1.432,2.234l2.655,0.064l2.836,0.07
	c0.196,0.006,0.43,0.01,0.658,0.01c2.289,0,4.476-0.295,6.54-0.883l0.958,2.183L79.905,198h3.265h11.58h3.108l0.895-1.813
	c2.027,0.79,4.162,1.2,6.298,1.2c1.679,0,3.331-0.243,4.938-0.726c1.607,0.48,3.264,0.726,4.944,0.726
	c2.138,0,4.272-0.411,6.304-1.204l0.896,1.816h3.11h11.584h3.269l1.313-2.994l2.3-5.25c55.378-2.396,77.384-11.324,78.311-11.711
	l10.093-4.205L222.326,168.958z" class="color c1"/>
  <path fill="#0C131A" d="M220.092,173.432c0,0-19.112-9.537-67.607-13.015c1.037-0.078,2.036-0.322,3.051-0.771
	c1.607-0.754,3.012-1.95,4.188-3.566l1.027,0.539l1.086-3.896c1.384-0.655,2.646-1.621,3.759-2.88
	c1.483-1.655,2.483-3.523,3.3-5.051l0.473-0.879c2.823-5.09,2.028-8.885,0.866-11.166c-1.007-1.996-2.691-3.541-4.81-4.432
	l-0.015-1.766c-0.013-1.799-0.021-3.748-0.021-5.572c0.006-2.438,0.03-4.016,0.058-5.021c0.088-0.072,0.182-0.15,0.28-0.233
	c0.178-0.146,0.353-0.288,0.565-0.485l2.069-2.009l0.427-0.46c3.667-4.496,2.004-8.539,1.114-10.074
	c-0.071-0.123-0.146-0.251-0.223-0.379c0.521-1.417,0.732-2.851,0.628-4.274c-0.111-1.497-0.569-2.891-1.315-4.136
	c5.2-0.854,12.219-6.608,21.397-17.546c7.101-8.46,12.904-17.037,12.963-17.122l0.341-0.505l0.001-0.61
	c0.02-9.22-5.587-19.406-16.341-21.035c-11.961-1.817-20.872-11.819-28.033-19.855L159.115,17c-3.166-3.544-6.998-5.341-11.39-5.341
	c-3.904-0.001-7.47,1.436-9.854,2.41C134.916,11.589,125.584,5,109.939,5c-15.644,0-24.974,6.589-27.931,9.067
	c-2.386-0.974-5.95-2.41-9.855-2.41c-4.391-0.001-8.222,1.796-11.386,5.34l-0.209,0.234c-7.16,8.036-16.072,18.038-28.033,19.855
	c-7.885,1.195-13.938,7.297-15.793,15.922l-0.146,0.67l0.298,0.618c5.757,11.965,20.49,39.628,33.798,40.154
	c-0.567,1.106-0.917,2.316-1.016,3.602c-0.102,1.423,0.11,2.853,0.631,4.264c-0.073,0.127-0.148,0.255-0.223,0.383
	c-0.89,1.529-2.558,5.573,1.119,10.074l2.41,2.389l0.15,0.145c0.108,0.097,0.224,0.189,0.341,0.285l0.139,0.119
	c0.104,0.088,0.203,0.17,0.295,0.246c0.05,1.914,0.08,5.451,0.043,10.576l-0.018,1.783c-2.113,0.887-3.797,2.428-4.8,4.418
	c-1.167,2.292-1.97,6.082,0.813,11.098l0.521,0.974c1.254,2.354,3.285,6.177,7.076,7.954l0.708,2.475l0.712-0.182
	c1.315,2.152,2.974,3.705,4.959,4.638c0.244,0.108,0.493,0.2,0.745,0.285c-0.076,0.163-0.148,0.313-0.229,0.497
	c-4.037-0.654-11.679-1.657-20.428-1.657c-7.566,0-14.412,0.755-20.351,2.25l-2.132,0.547c-2.161-0.813-4.911-1.319-8.418-1.319
	h-1.121l-1.022,0.449C9.141,161.812,5,165.445,5,172.259c0,2.105,0.384,4.046,1.14,5.75c1.74,3.978,4.848,5.498,5.453,5.765
	l1.024,0.448h1.118c3.265,0,6.062-0.449,8.399-1.327l2.121,0.547c0.723,0.187,1.453,0.351,2.152,0.495
	c5.421,1.168,11.56,1.762,18.238,1.762c8.743,0,16.379-1.005,20.413-1.656c0.547,1.254,1.01,2.017,1.133,2.207l1.529,2.39
	l2.836,0.069c0.182,0.006,0.357,0.008,0.534,0.008c4.032,0,7.054-1.16,9.137-2.401l2.938,6.69H94.75l1.319-2.678
	c0.779,0.133,1.572,0.188,2.374,0.15c1.554,0.947,3.819,1.914,6.605,1.914c1.693,0,3.352-0.35,4.938-1.041
	c1.587,0.691,3.245,1.041,4.943,1.041c2.784,0,5.051-0.967,6.604-1.914c0.812,0.033,1.604-0.021,2.384-0.152l1.32,2.68h11.584
	l3.557-8.116C197.826,182.71,220.092,173.432,220.092,173.432z M144.881,159.937c0.029-0.482,0.036-0.965-0.002-1.441
	c1.596,0.75,3.161,1.401,4.782,1.73C148.095,160.125,146.506,160.026,144.881,159.937z" class="color c2"/>
  <path fill="#95A3A6" d="M24.715,172.259c0,0.992-0.252,2.14-1.02,3.209c-1.342,1.836-4.218,3.41-9.96,3.41
	c0,0-1.711-0.748-2.702-3.016c-0.406-0.921-0.688-2.107-0.688-3.604c0-5.139,3.393-6.627,3.393-6.627
	C22.802,165.632,24.715,169.559,24.715,172.259z" class="color c3"/>
  <path fill="#95A3A6" d="M77.721,172.259c0,4.804,1.837,7.814,1.837,7.814s-2.749,3.448-8.862,3.295c0,0-2.592-4.053-2.592-11.107
	c0-7.063,2.592-11.116,2.592-11.116c6.113-0.155,8.862,3.304,8.862,3.304s-0.125,0.205-0.312,0.604
	C78.713,166.158,77.721,168.712,77.721,172.259z" class="color c3"/>
  <path fill="#F62F41" d="M66.09,172.259c0,3.654,0.924,6.007,0.924,6.007s-21.202,4.383-39.479,0.446
	c-0.653-0.137-1.306-0.285-1.945-0.446c0,0,0.915-2.878,0.915-6.007c0-3.137-0.915-6.014-0.915-6.014
	c18.687-4.703,41.424,0,41.424,0s-0.155,0.389-0.34,1.101C66.411,168.382,66.09,170.095,66.09,172.259z" class="color c4"/>
  <path fill="#D3D7D8" d="M67.013,166.246c0,0-0.155,0.389-0.34,1.102c-4.702-0.393-20.316-1.324-35.856,1.775
	c0,0-0.008,5.906-3.28,9.59c-0.653-0.137-1.306-0.285-1.945-0.445c0,0,0.915-2.878,0.915-6.008c0-3.137-0.915-6.014-0.915-6.014
	C44.275,161.542,67.013,166.246,67.013,166.246z" class="color c5"/>
  <path fill="#D3D7D8" d="M23.696,175.468c0.164-0.934,0.049-2.022-0.65-3.209c-2.188-3.682-8.871-4.002-8.871-4.002
	s-2.866,0.808-3.131,7.607c0,0,0,0-0.01,0c-0.406-0.923-0.688-2.109-0.688-3.605c0-5.139,3.393-6.627,3.393-6.627
	c9.065,0,10.979,3.927,10.979,6.627C24.715,173.251,24.463,174.398,23.696,175.468z" class="color c5"/>
  <path fill="#D3D7D8" d="M79.558,164.447c0,0-0.125,0.205-0.312,0.604c-1.69-0.553-4.469-1.293-7.005-1.213
	c0,0-4.424,5.664-1.548,19.529c0,0-2.592-4.051-2.592-11.107c0-7.063,2.592-11.114,2.592-11.114
	C76.809,160.988,79.558,164.447,79.558,164.447z" class="color c5"/>
  <path fill="#D3D7D8" d="M161.65,134.85c-2.584-0.331-3.558-5.511-3.558-5.511s-0.166-13.769,0.156-16.03
	c0.33-2.265,6.44-4.978,5.306-6.918c-1.128-1.944-2.546-4.093-2.546-4.093s3.857-3.486,0.806-5.509
	c-2.66-1.768-3.649-3.293-4.01-4.072c-1.119-0.58-2.625-1.505-4.171-2.925c-0.786-0.699-1.495-1.368-2.448-1.632
	c-0.205-0.059-0.418-0.087-0.631-0.107l-0.068,0.087c0,0-0.047-0.038-0.127-0.106c-0.721-0.019-1.496,0.177-2.303,0.535
	c-1.106,0.487-2.313,1.177-3.623,1.633c-1.306,0.516-2.638,0.884-3.994,1.223c-0.683,0.139-1.371,0.274-2.051,0.392
	c-0.688,0.078-1.382,0.194-2.062,0.232c-0.688,0.019-1.369,0.089-2.041,0.047c-0.67-0.037-1.32-0.077-1.974-0.115
	c-1.254-0.086-2.408,0.194-3.438,0.737c-1.013,0.535-1.849,1.275-2.565,1.993c-1.429,1.467-2.449,2.857-3.218,3.78
	c-0.504,0.612-0.864,1.049-1.049,1.271c0.174-0.242,0.506-0.688,0.981-1.321c0.729-0.963,1.683-2.391,3.06-3.935
	c0.701-0.768,1.526-1.563,2.576-2.186c1.021-0.613,2.36-0.993,3.672-0.953c0.642,0.01,1.293,0.02,1.953,0.03
	c0.651,0.009,1.303-0.089,1.963-0.138c0.662-0.066,1.321-0.203,1.981-0.31c0.662-0.147,1.313-0.304,1.965-0.468
	c1.291-0.388,2.593-0.806,3.789-1.341c0.359-0.145,0.709-0.311,1.056-0.485c-37.886-12.719-66.125-2.489-71.022-0.484
	c0.648,0.354,1.295,0.696,1.979,0.97c1.191,0.535,2.496,0.953,3.789,1.341c0.647,0.164,1.302,0.32,1.962,0.468
	c0.661,0.106,1.32,0.243,1.98,0.31c0.662,0.049,1.321,0.146,1.964,0.138c0.661-0.011,1.313-0.021,1.953-0.03
	c1.313-0.04,2.651,0.34,3.673,0.953c1.052,0.622,1.877,1.418,2.575,2.186c1.38,1.544,2.331,2.972,3.063,3.935
	c0.445,0.604,0.774,1.04,0.961,1.282c-0.203-0.23-0.554-0.66-1.029-1.232c-0.768-0.923-1.787-2.313-3.217-3.78
	c-0.718-0.718-1.556-1.458-2.564-1.993c-1.03-0.543-2.188-0.823-3.439-0.737c-0.649,0.038-1.302,0.078-1.961,0.115
	c-0.683,0.042-1.36-0.028-2.054-0.047c-0.67-0.038-1.34-0.154-2.021-0.226c-0.026-0.007-0.038-0.007-0.038-0.007
	c-0.681-0.117-1.369-0.253-2.052-0.392c-1.36-0.339-2.69-0.707-3.993-1.223c-1.313-0.456-2.518-1.146-3.624-1.633
	c-0.807-0.358-1.586-0.554-2.302-0.535c-0.079,0.068-0.128,0.106-0.128,0.106l-0.068-0.087c-0.213,0.021-0.428,0.049-0.631,0.107
	c-0.953,0.264-1.662,0.933-2.438,1.632c-1.556,1.42-3.06,2.345-4.179,2.925c-0.36,0.779-1.352,2.305-4.014,4.072
	c-3.054,2.022,0.815,5.509,0.815,5.509s-1.418,2.146-2.556,4.093c-1.127,1.94,4.984,4.653,5.306,6.918s0.166,16.03,0.166,16.03
	s-0.974,5.18-3.565,5.511c-2.596,0.321-2.916,2.585-1.292,5.502c1.486,2.688,3.129,6.616,6.18,5.926
	c-0.021-0.155-0.027-0.319-0.027-0.485c0-0.33,0.008-0.681,0.008-1.021c-0.008-0.353,0.011-0.69,0.068-1.021
	c0.036-0.321,0.067-0.61,0.098-0.873c0.068-0.508,0.105-0.848,0.105-0.848s0.021,0.34,0.051,0.854
	c0.019,0.255,0.028,0.554,0.045,0.863c0.014,0.322,0.042,0.65,0.119,0.981c0.06,0.331,0.116,0.66,0.166,0.972
	c0.021,0.127,0.047,0.232,0.075,0.344c0.021-0.012,0.05-0.012,0.068-0.021c0,0,1.138,5.832,3.567,6.956
	c2.428,1.139,10.946-6.031,15.459-4.092c0.444,0.195,0.862,0.428,1.254,0.683c-1.52-2.827-1.448-5.247-1.448-5.247
	c0.524,3.273,3.645,4.897,5.063,8.543c1.409,3.643,0,6.965,0,6.965s0.727-5.713-4.132-8.871c0,0,1.196,4.373-0.735,6.676
	c-1.936,2.314,1.34,5.344,1.34,5.344s1.941-1.689,2.431,2.07c0,0,2.837-1,3.507,2.545c0.061-0.186,0.126-0.359,0.215-0.533
	c0.075-0.213,0.223-0.407,0.359-0.604c0.135-0.174,0.262-0.358,0.388-0.523c0.156-0.176,0.205-0.35,0.291-0.525
	c0.099-0.164,0.128-0.369,0.194-0.531c0.05-0.188,0.068-0.358,0.099-0.518c0.066-0.486,0.039-0.854,0.028-1.01
	c0.038,0.146,0.115,0.505,0.125,1.02c-0.01,0.166-0.01,0.353-0.036,0.545c-0.039,0.187-0.039,0.398-0.117,0.604
	c-0.077,0.203-0.136,0.444-0.254,0.631c-0.097,0.185-0.202,0.379-0.312,0.572c-0.098,0.188-0.192,0.358-0.229,0.558
	c-0.071,0.192-0.118,0.377-0.139,0.57c-0.038,0.214-0.05,0.42-0.06,0.621c1.08-0.544,4.003-1.651,5.462,1.099
	c0.038-0.262,0.077-0.524,0.104-0.805c0.012-0.304,0.048-0.613,0.04-0.935c-0.021-0.33-0.04-0.664-0.049-1.002
	c-0.039-0.681-0.066-1.352-0.098-1.992c-0.01-0.317,0.048-0.641,0.066-0.932c0.029-0.304,0.049-0.585,0.078-0.837
	c0.021-0.253,0.096-0.485,0.135-0.69c0.04-0.203,0.079-0.377,0.117-0.522c0.06-0.213,0.106-0.358,0.126-0.418
	c-0.009,0.06-0.039,0.205-0.066,0.429c-0.011,0.146-0.028,0.329-0.047,0.532c-0.013,0.208-0.051,0.438-0.041,0.692
	c0.01,0.25,0.021,0.513,0.041,0.806c0.019,0.28,0,0.583,0.047,0.896c0.116,0.621,0.232,1.293,0.358,1.961
	c0.067,0.342,0.125,0.684,0.194,1.013c0.049,0.351,0.059,0.69,0.097,1.021c0.013,0.397,0,0.769-0.02,1.117
	c1.243-1.244,3.866-3.156,4.693,2.077c0,0,4.371-9.481,7.898,1.819c3.518-11.303,7.889-1.819,7.889-1.819
	c0.826-5.233,3.451-3.321,4.695-2.077c-0.021-0.35-0.029-0.72-0.021-1.117c0.037-0.33,0.048-0.67,0.097-1.021
	c0.067-0.329,0.127-0.671,0.192-1.013c0.13-0.668,0.244-1.34,0.361-1.961c0.047-0.313,0.028-0.613,0.047-0.896
	c0.021-0.293,0.031-0.556,0.041-0.806c0.01-0.254-0.029-0.484-0.041-0.692c-0.019-0.203-0.026-0.387-0.047-0.532
	c-0.027-0.224-0.06-0.369-0.068-0.429c0.021,0.06,0.068,0.205,0.138,0.418c0.028,0.146,0.067,0.319,0.117,0.522
	c0.026,0.205,0.104,0.438,0.125,0.69c0.028,0.252,0.049,0.533,0.077,0.837c0.019,0.291,0.076,0.612,0.068,0.932
	c-0.029,0.643-0.06,1.313-0.099,1.992c-0.011,0.338-0.028,0.672-0.05,1.002c-0.01,0.319,0.029,0.631,0.039,0.935
	c0.029,0.278,0.068,0.543,0.107,0.805c1.457-2.75,4.381-1.643,5.461-1.099c-0.011-0.201-0.021-0.407-0.06-0.621
	c-0.021-0.193-0.067-0.378-0.138-0.57c-0.039-0.195-0.135-0.369-0.231-0.558c-0.106-0.192-0.215-0.39-0.313-0.572
	c-0.115-0.187-0.172-0.428-0.252-0.631c-0.076-0.204-0.076-0.418-0.117-0.604c-0.028-0.192-0.028-0.379-0.039-0.545
	c0.011-0.68,0.148-1.098,0.148-1.098s-0.08,0.438,0.008,1.088c0.029,0.157,0.051,0.33,0.096,0.518
	c0.07,0.162,0.099,0.367,0.197,0.531c0.086,0.176,0.146,0.35,0.291,0.525c0.125,0.165,0.252,0.352,0.39,0.523
	c0.135,0.194,0.282,0.391,0.356,0.604c0.088,0.174,0.155,0.35,0.215,0.533c0.672-3.545,3.508-2.545,3.508-2.545
	c0.486-3.762,2.431-2.07,2.431-2.07s3.285-3.029,1.341-5.344c-1.935-2.303-0.729-6.676-0.729-6.676
	c-4.858,3.158-4.131,8.871-4.131,8.871s-1.42-3.322,0-6.965c1.41-3.646,4.527-5.27,5.056-8.543c0,0,0.063,2.42-1.449,5.247
	c0.397-0.255,0.806-0.483,1.253-0.683c4.51-1.939,13.032,5.229,15.461,4.092c2.43-1.124,3.565-6.956,3.565-6.956
	c0.019,0.011,0.047,0.011,0.067,0.021c0.029-0.109,0.058-0.217,0.076-0.344c0.049-0.312,0.106-0.641,0.168-0.972
	c0.073-0.331,0.104-0.659,0.112-0.981c0.021-0.312,0.028-0.608,0.052-0.863c0.026-0.516,0.047-0.854,0.047-0.854
	s0.039,0.34,0.106,0.848c0.028,0.263,0.058,0.552,0.106,0.873c0.049,0.328,0.067,0.668,0.06,1.021c0,0.34,0.011,0.688,0.011,1.021
	c0,0.166-0.011,0.33-0.031,0.485c3.053,0.69,4.696-3.237,6.183-5.926C164.566,137.435,164.244,135.171,161.65,134.85z M69,138.503
	c-0.203-0.066-0.388-0.205-0.603-0.332c-0.203-0.125-0.428-0.262-0.642-0.403c-0.445-0.293-0.854-0.692-1.281-1.052
	c-0.817-0.776-1.526-1.661-1.976-2.371c-0.396-0.622-0.604-1.098-0.648-1.215c0.067,0.06,0.438,0.429,0.979,0.951
	c0.573,0.594,1.359,1.353,2.137,2.107c0.41,0.354,0.789,0.748,1.188,1.068c0.192,0.154,0.379,0.312,0.553,0.467
	c0.187,0.146,0.342,0.32,0.517,0.429c0.571,0.416,0.974,0.759,1.067,0.847C70.176,138.96,69.689,138.806,69,138.503z
	 M86.909,163.193c-0.077-0.125-0.127-0.271-0.213-0.378l-0.264-0.351c-0.067-0.117-0.196-0.193-0.302-0.291
	c-0.106-0.076-0.207-0.174-0.332-0.232c-0.114-0.059-0.224-0.146-0.358-0.166c-0.126-0.047-0.252-0.088-0.39-0.107
	c-0.125-0.018-0.271-0.018-0.379-0.018h-0.193l-0.047-0.136l-0.168-0.438c-0.059-0.146-0.076-0.303-0.114-0.447
	c-0.067-0.299-0.089-0.603-0.099-0.894c-0.02-0.603,0.02-1.194,0.146-1.771c0.064,0.584,0.125,1.168,0.213,1.73
	c0.028,0.145,0.066,0.281,0.088,0.416c0.019,0.146,0.058,0.281,0.099,0.408c0.036,0.139,0.059,0.279,0.113,0.396l0.107,0.264
	c0.099,0,0.214,0,0.31,0.021c0.168,0.02,0.322,0.079,0.479,0.137c0.153,0.049,0.291,0.154,0.429,0.244
	c0.146,0.078,0.252,0.203,0.356,0.318c0.108,0.127,0.227,0.23,0.293,0.391l0.225,0.408c0.056,0.145,0.078,0.301,0.115,0.445
	c0.039,0.152,0.067,0.301,0.088,0.445C87.045,163.457,86.965,163.332,86.909,163.193z M92.963,137.726
	c-0.405-0.105-0.864-0.127-1.332-0.193c0,0,0,0-0.009,0c-0.04-0.011-0.078-0.011-0.116-0.019c-0.243,0-0.497,0-0.748,0.008h-0.062
	l-0.405-0.008l-0.099,0.008l-0.312,0.049c-0.272,0.05-0.571,0.077-0.825,0.128c-0.282,0.088-0.595,0.154-0.845,0.271
	c-0.535,0.186-1.089,0.477-1.624,0.757c-1.089,0.573-2.195,1.217-3.322,1.604c-1.128,0.428-2.246,0.592-3.197,0.65
	c-0.478,0-0.903,0.02-1.292-0.041c-0.379-0.047-0.709-0.064-0.981-0.134c-0.534-0.106-0.835-0.177-0.835-0.177
	s0.313,0.021,0.854,0.039c0.264,0.027,0.595,0,0.971,0c0.38,0,0.799-0.078,1.255-0.1c0.446-0.076,0.94-0.145,1.438-0.3
	c0.505-0.127,1.029-0.321,1.557-0.536c1.049-0.436,2.106-1.047,3.217-1.65c0.31-0.154,0.61-0.312,0.92-0.467
	c0.013,0,0.021,0,0.021,0c0.252-0.115,0.524-0.223,0.795-0.318c0.313-0.129,0.604-0.188,0.896-0.256
	c0.341-0.059,0.633-0.074,0.943-0.104l0.445-0.049l0.438,0.026c0.291,0.031,0.571,0.053,0.845,0.068
	c0.545,0.127,1.06,0.186,1.507,0.352c0.38,0.107,0.718,0.226,1.021,0.359c0.009,0,0.021,0,0.021,0
	c0.429,0.186,0.787,0.369,1.068,0.516c0.427,0.226,0.669,0.39,0.729,0.43c-0.068-0.02-0.351-0.139-0.788-0.305
	C94.596,138.143,93.856,137.921,92.963,137.726z M102.592,164.816c-0.049,0.342-0.146,0.674-0.272,0.971
	c-0.096,0.313-0.271,0.565-0.396,0.799c-0.146,0.213-0.271,0.398-0.389,0.518c-0.03,0.038-0.05,0.047-0.067,0.074
	c0,0,0.028,0.014,0.077,0.06c0.038,0.03,0.099,0.091,0.155,0.177c0.028,0.027,0.048,0.078,0.078,0.116
	c0.029,0.038,0.048,0.066,0.065,0.104c0.099,0.129,0.128,0.283,0.177,0.4c0.037,0.153,0.037,0.271,0.037,0.34c0,0,0,0,0,0.008
	c0,0.041,0,0.07,0,0.07s-0.048-0.166-0.164-0.369c-0.127-0.207-0.283-0.478-0.524-0.68c-0.099-0.119-0.226-0.215-0.342-0.303
	c-0.115-0.09-0.222-0.186-0.328-0.234c-0.204-0.137-0.341-0.232-0.341-0.232s0.156,0.029,0.397,0.109
	c0.097,0.026,0.205,0.086,0.32,0.144c0.049-0.037,0.252-0.204,0.514-0.533c0.127-0.204,0.313-0.418,0.431-0.7
	c0.135-0.271,0.263-0.57,0.338-0.895c0.107-0.313,0.146-0.635,0.177-0.94c0.049-0.313,0.066-0.595,0.039-0.847
	c-0.019-0.508-0.029-0.838-0.029-0.838s0.039,0.33,0.107,0.826c0.048,0.254,0.059,0.545,0.036,0.865
	C102.688,164.148,102.68,164.486,102.592,164.816z M104.223,133.917c-0.065,0.252-0.193,0.555-0.339,0.885
	c-0.125,0.359-0.368,0.697-0.594,1.098c-0.244,0.391-0.563,0.768-0.862,1.196c-0.359,0.388-0.729,0.796-1.14,1.202
	c-0.438,0.361-0.895,0.74-1.358,1.119c-0.313,0.242-0.621,0.484-0.935,0.736c-0.146,0.117-0.301,0.243-0.455,0.36
	c-0.446,0.379-0.854,0.784-1.293,1.165c-0.392,0.419-0.778,0.836-1.156,1.232c-0.318,0.438-0.671,0.846-0.961,1.254
	c-0.254,0.43-0.557,0.817-0.729,1.215c-0.177,0.398-0.408,0.748-0.494,1.091c-0.107,0.34-0.243,0.631-0.282,0.883
	c-0.098,0.519-0.146,0.813-0.146,0.813s0-0.31,0-0.834c0.008-0.264,0.104-0.574,0.164-0.94c0.049-0.38,0.231-0.749,0.379-1.187
	c0.153-0.438,0.429-0.854,0.662-1.322c0.262-0.457,0.582-0.902,0.911-1.379c0.381-0.428,0.74-0.896,1.156-1.323
	c0.447-0.406,0.886-0.854,1.343-1.24c0.163-0.126,0.329-0.254,0.493-0.383c0.777-0.593,1.546-1.185,2.273-1.748
	c0.407-0.367,0.797-0.729,1.164-1.067c0.331-0.377,0.661-0.729,0.926-1.078c0.243-0.367,0.524-0.67,0.688-0.979
	c0.194-0.31,0.353-0.584,0.446-0.826c0.231-0.458,0.32-0.749,0.32-0.749S104.391,133.412,104.223,133.917z M106.926,96.342
	c-0.127-0.272-0.225-0.602-0.397-0.902c-0.174-0.312-0.35-0.641-0.534-0.982c-0.175-0.338-0.369-0.69-0.543-1.06
	c-0.226-0.328-0.447-0.681-0.673-1.019c-0.231-0.343-0.416-0.711-0.668-1.023c-0.256-0.318-0.485-0.639-0.721-0.939
	c-0.224-0.321-0.477-0.594-0.709-0.856c-0.243-0.261-0.447-0.523-0.66-0.749c-0.438-0.436-0.789-0.824-1.069-1.057
	c-0.263-0.243-0.429-0.38-0.429-0.38s0.194,0.077,0.505,0.263c0.331,0.184,0.76,0.484,1.273,0.864
	c0.255,0.192,0.496,0.437,0.769,0.679c0.272,0.253,0.563,0.507,0.806,0.816c0.254,0.313,0.524,0.622,0.797,0.943
	c0.272,0.311,0.47,0.69,0.709,1.04c0.233,0.359,0.459,0.72,0.683,1.078c0.176,0.37,0.34,0.759,0.506,1.117
	c0.156,0.361,0.312,0.71,0.457,1.04c0.154,0.341,0.203,0.681,0.302,0.981c0.319,1.234,0.485,2.052,0.485,2.052
	S107.42,97.489,106.926,96.342z M114.533,93.397c-0.177,0.369-0.369,0.722-0.543,1.06c-0.187,0.342-0.361,0.671-0.535,0.982
	c-0.175,0.301-0.271,0.63-0.397,0.902c-0.496,1.147-0.875,1.906-0.875,1.906s0.155-0.817,0.478-2.052
	c0.096-0.301,0.146-0.641,0.301-0.981c0.146-0.33,0.302-0.679,0.457-1.04c0.164-0.358,0.33-0.747,0.506-1.117
	c0.226-0.358,0.447-0.719,0.681-1.078c0.244-0.35,0.438-0.729,0.709-1.04c0.271-0.321,0.545-0.631,0.795-0.943
	c0.244-0.31,0.537-0.563,0.81-0.816c0.271-0.242,0.515-0.486,0.769-0.679c0.519-0.38,0.942-0.681,1.272-0.864
	c0.312-0.186,0.515-0.263,0.515-0.263s-0.175,0.137-0.438,0.38c-0.281,0.232-0.632,0.621-1.068,1.057
	c-0.213,0.226-0.418,0.488-0.659,0.749c-0.232,0.263-0.486,0.535-0.709,0.856c-0.232,0.301-0.468,0.621-0.722,0.939
	c-0.252,0.313-0.438,0.681-0.67,1.023C114.98,92.717,114.758,93.069,114.533,93.397z M119.285,166.867
	c-0.104,0.051-0.214,0.146-0.33,0.234c-0.117,0.088-0.244,0.184-0.34,0.303c-0.244,0.202-0.4,0.473-0.525,0.68
	c-0.116,0.203-0.164,0.369-0.164,0.369s-0.02-0.166,0.037-0.418c0.052-0.117,0.078-0.271,0.175-0.4
	c0.077-0.145,0.187-0.28,0.305-0.397c0.027-0.026,0.058-0.036,0.076-0.06c-0.021-0.027-0.039-0.036-0.067-0.074
	c-0.115-0.117-0.242-0.305-0.39-0.518c-0.125-0.231-0.302-0.484-0.397-0.799c-0.127-0.297-0.224-0.629-0.271-0.971
	c-0.088-0.33-0.099-0.668-0.099-0.99c-0.021-0.32-0.01-0.611,0.039-0.865c0.065-0.496,0.106-0.826,0.106-0.826
	s-0.012,0.33-0.028,0.838c-0.029,0.252-0.013,0.533,0.039,0.847c0.028,0.31,0.067,0.632,0.176,0.94
	c0.074,0.32,0.203,0.619,0.338,0.895c0.119,0.282,0.304,0.496,0.429,0.7c0.265,0.329,0.469,0.496,0.515,0.533
	c0.118-0.058,0.225-0.115,0.321-0.144c0.242-0.08,0.397-0.109,0.397-0.109S119.49,166.73,119.285,166.867z M126.357,147.355
	c-0.037-0.252-0.172-0.543-0.28-0.883c-0.086-0.342-0.32-0.689-0.494-1.09c-0.177-0.396-0.478-0.786-0.729-1.215
	c-0.291-0.408-0.64-0.816-0.961-1.254c-0.379-0.397-0.769-0.814-1.154-1.233c-0.438-0.38-0.846-0.786-1.295-1.165
	c-0.467-0.37-0.932-0.739-1.392-1.098c-0.463-0.379-0.922-0.76-1.358-1.119c-0.407-0.407-0.776-0.815-1.125-1.203
	c-0.313-0.43-0.633-0.807-0.877-1.196c-0.224-0.399-0.455-0.737-0.592-1.097c-0.146-0.331-0.271-0.635-0.341-0.885
	c-0.163-0.506-0.176-0.81-0.176-0.81s0.078,0.291,0.312,0.749c0.101,0.242,0.254,0.518,0.448,0.826
	c0.164,0.313,0.447,0.611,0.688,0.979c0.263,0.352,0.595,0.701,0.925,1.078c0.366,0.342,0.756,0.701,1.164,1.068
	c0.885,0.684,1.825,1.41,2.771,2.131c0.455,0.387,0.894,0.834,1.34,1.24c0.416,0.43,0.776,0.896,1.153,1.324
	c0.335,0.476,0.652,0.922,0.914,1.379c0.234,0.468,0.507,0.885,0.662,1.322c0.146,0.437,0.328,0.805,0.379,1.186
	c0.06,0.367,0.156,0.679,0.164,0.941c0,0.523,0.011,0.834,0.011,0.834S126.457,147.873,126.357,147.355z M132.959,163.146
	c0.037-0.146,0.058-0.3,0.115-0.447l0.221-0.408c0.067-0.156,0.187-0.262,0.295-0.389c0.104-0.117,0.214-0.242,0.356-0.32
	c0.138-0.088,0.271-0.192,0.429-0.242c0.155-0.057,0.312-0.117,0.476-0.137c0.099-0.021,0.215-0.021,0.313-0.021l0.104-0.263
	c0.06-0.117,0.08-0.262,0.119-0.397c0.036-0.127,0.077-0.263,0.096-0.408c0.021-0.135,0.06-0.271,0.09-0.415
	c0.087-0.564,0.144-1.146,0.212-1.732c0.129,0.576,0.168,1.168,0.146,1.771c-0.011,0.291-0.029,0.595-0.099,0.896
	c-0.037,0.145-0.06,0.301-0.117,0.445l-0.164,0.438l-0.049,0.136h-0.192c-0.104,0-0.254,0-0.379,0.02
	c-0.138,0.02-0.265,0.061-0.392,0.105c-0.134,0.021-0.242,0.105-0.358,0.166c-0.125,0.061-0.222,0.156-0.33,0.232
	c-0.104,0.098-0.231,0.174-0.302,0.289l-0.262,0.353c-0.088,0.106-0.136,0.253-0.213,0.378c-0.06,0.141-0.138,0.266-0.203,0.398
	C132.889,163.447,132.918,163.3,132.959,163.146z M155.48,134.345c-0.446,0.71-1.155,1.595-1.974,2.371
	c-0.428,0.359-0.836,0.759-1.282,1.052c-0.214,0.144-0.437,0.278-0.642,0.403c-0.213,0.127-0.397,0.266-0.604,0.332
	c-0.688,0.303-1.174,0.457-1.291,0.496c0.099-0.088,0.496-0.431,1.069-0.847c0.173-0.106,0.328-0.28,0.515-0.429
	c0.174-0.155,0.358-0.313,0.554-0.467c0.397-0.32,0.778-0.719,1.187-1.068c0.786-0.757,1.565-1.516,2.139-2.107
	c0.545-0.522,0.925-0.894,0.992-0.951C156.092,133.248,155.877,133.723,155.48,134.345z" class="color c5"/>
  <path fill="#95A3A6" d="M133.24,164.659c0.569-3.229,2.365-1.679,2.365-1.679s3.285-3.029,1.341-5.344
	c-1.935-2.303-0.729-6.676-0.729-6.676c-4.858,3.158-4.131,8.871-4.131,8.871s-1.42-3.322,0-6.967
	c1.41-3.644,4.527-5.268,5.056-8.541c0,0,0.063,2.42-1.449,5.248c0.397-0.256,0.806-0.486,1.253-0.684
	c4.51-1.941,13.032,5.229,15.461,4.092c2.43-1.124,3.565-6.956,3.565-6.956c0.019,0.011,0.047,0.011,0.067,0.021
	c0.029-0.108,0.058-0.215,0.076-0.342c0.049-0.313,0.106-0.642,0.168-0.973c0.073-0.331,0.104-0.658,0.112-0.98
	c0.021-0.313,0.028-0.609,0.052-0.865c0.026-0.516,0.047-0.854,0.047-0.854s0.039,0.34,0.106,0.846
	c0.028,0.265,0.058,0.553,0.106,0.873c0.049,0.33,0.067,0.67,0.06,1.021c0,0.34,0.011,0.689,0.011,1.02
	c0,0.166-0.011,0.33-0.031,0.486c3.053,0.689,4.696-3.236,6.183-5.926c1.637-2.916,1.314-5.18-1.279-5.501
	c-2.584-0.331-3.558-5.511-3.558-5.511s-0.166-13.769,0.156-16.03c0.33-2.265,6.44-4.978,5.306-6.918
	c-1.128-1.944-2.546-4.093-2.546-4.093s3.857-3.486,0.806-5.509c-2.66-1.768-3.649-3.293-4.01-4.072
	c-1.119-0.58-2.625-1.505-4.171-2.925c-0.786-0.699-1.495-1.368-2.448-1.632c-0.205-0.059-0.418-0.087-0.631-0.107l-0.068,0.087
	c0,0-0.047-0.038-0.127-0.106c-0.721-0.019-1.496,0.177-2.303,0.535c-1.106,0.487-2.313,1.177-3.623,1.633
	c-1.306,0.516-2.638,0.884-3.994,1.223c-0.683,0.139-1.371,0.274-2.051,0.392c-0.688,0.078-1.382,0.194-2.062,0.232
	c-0.688,0.019-1.369,0.089-2.041,0.047c-0.67-0.037-1.32-0.077-1.974-0.115c-1.254-0.086-2.408,0.194-3.438,0.737
	c-1.013,0.535-1.849,1.275-2.565,1.993c-1.429,1.467-2.449,2.857-3.218,3.78c-0.504,0.612-0.864,1.049-1.049,1.271
	c0.174-0.242,0.506-0.688,0.981-1.321c0.729-0.963,1.683-2.391,3.06-3.935c0.701-0.768,1.526-1.563,2.576-2.186
	c1.021-0.613,2.36-0.993,3.672-0.953c0.642,0.01,1.293,0.02,1.953,0.03c0.651,0.009,1.303-0.089,1.963-0.138
	c0.662-0.066,1.321-0.203,1.981-0.31c0.662-0.147,1.313-0.304,1.965-0.468c1.291-0.388,2.593-0.806,3.789-1.341
	c0.359-0.145,0.709-0.311,1.056-0.485c-25.905-8.696-47.304-6.67-59.81-3.869c0.693,2.694-0.059,5.349-5.444,5.695
	c0.647,0.164,1.302,0.32,1.962,0.468c0.661,0.106,1.32,0.243,1.98,0.31c0.662,0.049,1.321,0.146,1.964,0.138
	c0.661-0.011,1.313-0.021,1.953-0.03c1.313-0.04,2.651,0.34,3.673,0.953c1.052,0.622,1.877,1.418,2.575,2.186
	c1.38,1.544,2.331,2.972,3.063,3.935c0.445,0.604,0.774,1.04,0.961,1.282c-0.203-0.23-0.554-0.66-1.029-1.232
	c-0.768-0.923-1.787-2.313-3.217-3.78c-0.718-0.718-1.556-1.458-2.564-1.993c-1.03-0.543-2.188-0.823-3.439-0.737
	c-0.649,0.038-1.302,0.078-1.961,0.115c-0.683,0.042-1.36-0.028-2.054-0.047c-0.67-0.038-1.34-0.154-2.021-0.226
	c0.776,0.214,13.381,3.801,19.289,16.024c6.11,12.613,0.532,11.973-5.462,9.533L70.31,128.865c0,0,3.178,8.852,10.532,8.977
	c1.886,0.031,4.103-0.104,6.324-0.223c0.013,0,0.021,0,0.021,0c0.252-0.115,0.524-0.224,0.795-0.318
	c0.313-0.129,0.604-0.188,0.896-0.256c0.34-0.06,0.632-0.076,0.942-0.105l0.446-0.049l0.438,0.027
	c0.291,0.031,0.571,0.051,0.844,0.067c0.545,0.127,1.061,0.187,1.508,0.353c0.38,0.106,0.718,0.225,1.021,0.358
	c0.009,0,0.021,0,0.021,0c1.972,0.244,3.586,0.786,4.487,1.863c0.776-0.593,1.546-1.185,2.273-1.748
	c0.407-0.367,0.796-0.729,1.164-1.067c0.331-0.377,0.661-0.729,0.925-1.078c0.244-0.367,0.525-0.67,0.689-0.979
	c0.194-0.31,0.352-0.584,0.446-0.826c0.231-0.458,0.319-0.749,0.319-0.749s-0.019,0.303-0.187,0.809
	c-0.065,0.25-0.192,0.555-0.338,0.886c-0.125,0.358-0.369,0.696-0.594,1.097c-0.244,0.391-0.563,0.77-0.863,1.196
	c-0.358,0.388-0.729,0.796-1.139,1.202c-0.438,0.359-0.895,0.74-1.359,1.119c-0.313,0.242-0.621,0.484-0.934,0.736
	c0.379,0.729,0.506,1.645,0.313,2.79c0,0,9.783,10.718,6.675,19.188c0,0-1.231,2.984-4.518,5.043c0,0,0.027,0.013,0.077,0.059
	c0.038,0.03,0.098,0.09,0.154,0.176c0.029,0.028,0.049,0.078,0.079,0.117c0.096,0.186,0.204,0.446,0.278,0.846c0,0,0,0,0,0.01
	c0.156,0.709,0.226,1.839,0.041,3.595c0,0,4.371-9.481,7.898,1.819c1.497-4.811,3.147-5.851,4.551-5.464
	c-0.15,1.059-0.256,2.352-0.256,3.923c0,5.554,1.307,7.742,1.307,7.742c78.206,0,90.187-7.742,90.187-7.742
	S195.643,165.714,133.24,164.659z M128.114,163.273c0,0-0.08,0.438,0.008,1.088c0.013,0.068,0.029,0.151,0.042,0.227
	c-0.061-0.001-0.122-0.002-0.183-0.002c-0.004-0.071-0.012-0.149-0.016-0.215C127.976,163.691,128.114,163.273,128.114,163.273z
	 M123.269,161.855c0.028,0.146,0.067,0.32,0.117,0.523c0.026,0.203,0.104,0.438,0.125,0.689c0.028,0.252,0.049,0.533,0.077,0.838
	c0.013,0.201,0.038,0.419,0.054,0.639c-0.143-0.001-0.281-0.002-0.424-0.003c0.014-0.223,0.015-0.439,0.028-0.646
	c0.021-0.293,0.031-0.555,0.041-0.807c0.01-0.254-0.029-0.483-0.041-0.691c-0.019-0.203-0.026-0.389-0.047-0.533
	c-0.027-0.223-0.06-0.369-0.068-0.428C123.152,161.496,123.2,161.642,123.269,161.855z" class="color c3"/>
  <path fill="#D3D7D8" d="M151.186,169.062c0,0,31.392-1.137,50.285,3.195c0,0-25.863,6.277-55.873,6.277
	c0,0,25.161-2.604,37.045-5.347C182.643,173.189,175.719,170.522,151.186,169.062z" class="color c5"/>
  <g>
    <path fill="#0C131A" d="M110.041,156.789h-0.099c0,0-0.215,3.067-0.342,6.135c-0.033,0.769-0.104,1.535-0.115,2.254
		c0.002,0.72,0.052,1.394,0.115,1.966c0.125,1.149,0.342,1.917,0.342,1.917h0.099c0,0,0.215-0.768,0.34-1.917
		c0.063-0.572,0.113-1.246,0.117-1.966c-0.015-0.719-0.082-1.485-0.117-2.254C110.256,159.856,110.041,156.789,110.041,156.789z" class="color c2"/>
    <path fill="#0C131A" d="M120.68,142.945c-0.486-0.729-2.916-0.363-5.709-4.131c-2.793-3.764-0.484-5.102-2.552-6.803
		c-2.063-1.7-2.43-3.278-2.43-3.278s-0.363,1.578-2.429,3.278c-2.063,1.701,0.244,3.039-2.552,6.803
		c-2.793,3.768-5.223,3.4-5.709,4.131c-0.483,0.729,0.244,2.793-0.972,4.371c-1.214,1.582-1.941,2.188-1.941,3.889
		c0,3.521,10.812,5.584,9.594,10.93c0,0,2.674-2.428,2.674-6.559c0-4.13,0.604-6.801,1.335-6.801c0.729,0,1.338,2.672,1.338,6.801
		c0,4.131,2.672,6.559,2.672,6.559c-1.215-5.346,9.594-7.406,9.594-10.93c0-1.699-0.729-2.307-1.942-3.889
		C120.438,145.738,121.166,143.673,120.68,142.945z" class="color c2"/>
    <path fill="#0C131A" d="M101.854,132.863c1.821-2.308,3.888-3.645,3.888-5.344c0-1.701,0-2.915,0-2.915
		c7.045-6.56,0.606-13.241,0.606-13.241c5.101,12.391-5.224,14.455-9.959,7.492c-4.738-6.964-3.037-11.016-3.037-11.016
		c-1.457,1.277-1.093,3.889-1.093,3.889s-8.319-2.609-16.338-7.652c-1.713-1.074-7.029-2.395-9.096,0.646
		c-2.063,3.034-4.447,3.972-4.447,3.972c2.914-0.361,4.131-3.521,5.709-3.398c1.579,0.121,3.521,0.851,2.793,6.072
		c-0.729,5.227-4.858,5.83-4.858,8.381s2.916,7.773,6.562,12.023c3.645,4.252,7.649,4.494,11.174,2.605
		c3.521-1.892,8.867-3.215,11.902-1.514C98.696,134.564,100.031,135.171,101.854,132.863z" class="color c2"/>
    <path fill="#0C131A" d="M160.01,126.582c-0.012-1.808-0.02-3.771-0.02-5.617c-1.184-0.055-2.349-0.141-3.507-0.236
		c0.029-2.49-0.274-4.961-0.776-7.256c-1.656-7.581-10.529-14.414-21.701-9.396c-6.088,2.736-11.388,3.33-15.499,3.197
		c-4.225-3.049-8.148-6.585-11.747-10.639C95.878,84.39,92.03,71.844,91.885,71.378V71.37l-3.73,1.085l-3.732,1.08
		c0.166,0.575,4.22,14.284,16.287,27.986c2.639,2.995,5.791,6.121,9.513,9.145c-0.479,4.222-0.595,10.478,2.084,14.31
		c4.336,6.198,6.649,5.819,12.866,10.526c5.5,4.164,15.476,6.957,23.896,0.804c2.998-2.188,4.91-4.925,6.044-7.89
		c1.605,0.149,3.241,0.271,4.917,0.344v-0.09L160.01,126.582z" class="color c2"/>
  </g>
  <path fill="#F62F41" d="M94.615,120.234c-0.063,0.1-0.117,0.188-0.188,0.297c-0.315,0.438-0.686,0.949-1.174,1.42
	c-0.467,0.486-1.047,0.932-1.674,1.285c-0.326,0.158-0.64,0.338-0.986,0.426c-0.168,0.053-0.332,0.112-0.499,0.153
	c-0.171,0.026-0.339,0.052-0.507,0.077c-0.328,0.07-0.651,0.05-0.955,0.041c-0.306,0.012-0.588-0.042-0.845-0.098
	c-0.259-0.061-0.5-0.074-0.698-0.156c-0.198-0.07-0.373-0.137-0.519-0.189c-0.284-0.103-0.448-0.162-0.448-0.162
	s0.169,0.045,0.464,0.125c0.146,0.037,0.322,0.086,0.523,0.141c0.201,0.064,0.442,0.059,0.697,0.094
	c0.255,0.031,0.528,0.063,0.821,0.023c0.291-0.021,0.601-0.021,0.901-0.121c0.154-0.033,0.312-0.072,0.47-0.109
	c0.15-0.055,0.299-0.127,0.451-0.188c0.313-0.107,0.59-0.301,0.875-0.475c0.549-0.374,1.043-0.828,1.436-1.314
	c0.41-0.473,0.714-0.979,0.968-1.402c0.129-0.234,0.236-0.448,0.327-0.639c-0.938-1.33-1.73-2.76-2.379-4.088
	c-0.063-0.017-0.118-0.033-0.188-0.054c-0.542-0.151-1.28-0.298-2.03-0.374c-0.377-0.012-0.759-0.074-1.109-0.045
	c-0.354,0.025-0.694,0.01-0.977,0.063c-0.565,0.1-0.946,0.164-0.946,0.164s0.368-0.125,0.917-0.313
	c0.277-0.1,0.617-0.139,0.978-0.218c0.361-0.089,0.752-0.085,1.146-0.136c0.63-0.035,1.258-0.023,1.788,0.019
	c-0.315-0.698-0.592-1.351-0.813-1.91h-0.008c-0.689-0.214-1.429-0.329-2.187-0.329c-1.896,0-3.618,0.719-4.927,1.889
	c0.026,0.283,0.063,0.576,0.117,0.877c0.051,0.33,0.121,0.666,0.213,0.998c0.075,0.348,0.201,0.656,0.313,1
	c0.121,0.328,0.277,0.637,0.432,0.957c0.183,0.272,0.343,0.607,0.559,0.854c0.217,0.24,0.409,0.541,0.657,0.721
	c0.242,0.188,0.461,0.442,0.716,0.563c0.256,0.144,0.487,0.278,0.692,0.399c0.224,0.09,0.424,0.153,0.592,0.215
	c0.345,0.121,0.542,0.188,0.542,0.188s-0.206,0.037-0.563,0.104c-0.182,0.029-0.407,0.078-0.675,0.109c-0.27,0-0.573,0-0.9-0.003
	c-0.351,0.019-0.691-0.097-1.095-0.157c-0.41-0.055-0.778-0.236-1.211-0.385c-0.429-0.152-0.806-0.398-1.237-0.623
	c-0.39-0.254-0.8-0.525-1.171-0.828c-0.131-0.113-0.266-0.228-0.396-0.342c-0.031,0.277-0.054,0.561-0.054,0.85
	c0,4.09,3.313,7.396,7.396,7.396c3.526,0,6.471-2.467,7.208-5.771C95.164,120.925,94.885,120.583,94.615,120.234z" class="color c4"/>
  <g>
    <path fill="#F62F41" d="M47.318,79.543c-5.358-5.965-16.194-24.78-16.194-24.78c6.062-0.042,12.146-3.398,19.435-8.251
		c7.287-4.852,20.081-21.547,22.834-21.547c2.752,0,27.53,9.556,27.53,9.556S76.307,18.489,73.555,18.489
		c-2.755,0-12.474,8.583-21.703,17.652c-9.229,9.071-17.813,11.335-17.813,11.335c1.294-4.373,8.421-8.261,8.421-8.261
		C27.235,43.59,22.295,52.014,26.911,59.301c4.613,7.287,9.169,14.745,15.547,22.35c9.505,11.327,18.947,3.155,18.947,3.155
		S54.605,87.656,47.318,79.543z" class="color c4"/>
    <path fill="#F62F41" d="M177.037,39.865c0,0,15.862,10.576,14.509,13.527c-1.354,2.951-35.688-29.727-40.904-31.988
		c-5.221-2.262-12.763-2.066-20.406,3.238c-7.937,5.507-7.116,22.169-7.61,24.293s-10.231,5.638-11.821,5.506
		c-1.589-0.132-8.582-7.93-8.582-7.93s2.592,11.646,7.771,12.95c5.181,1.306,13.506-0.71,16.844-6.39
		c3.337-5.68,2.677-19.146,5.506-22.601c2.831-3.454,6.24-6.19,15.224-3.885c8.982,2.306,40.086,30.624,40.607,34.931
		c0.36,2.971-3.958,8.792-9.708,15.042c-2.258,2.453-8.334,9.584-8.334,9.584s9.363-4.157,16.134-12.678
		c5.51-6.934,11.2-14.489,11.66-19.077C198.393,49.709,191.809,43.868,177.037,39.865z" class="color c4"/>
    <path fill="#F62F41" d="M94.886,18.451c0.813-0.3,1.693-0.59,2.63-0.842c0.938-0.252,1.937-0.438,2.959-0.55
		c0.512-0.083,1.034-0.063,1.56-0.11c0.261-0.011,0.523,0.015,0.786,0.02l0.396,0.008l0.194,0.003l0.034,0.005l0.107,0.013
		c1.147,0.169,2.375,0.238,3.493,0.448c1.119,0.215,2.218,0.381,3.343,0.604c1.125,0.249,2.235,0.459,3.317,0.675
		c1.076,0.247,2.127,0.448,3.123,0.647c0.992,0.219,1.937,0.415,2.813,0.581c1.744,0.359,3.222,0.615,4.256,0.796
		c1.035,0.179,1.64,0.259,1.64,0.259s-0.519-0.321-1.453-0.807c-0.469-0.245-1.037-0.543-1.703-0.845
		c-0.663-0.308-1.407-0.675-2.245-1.003c-0.83-0.346-1.729-0.728-2.703-1.071c-0.972-0.345-1.998-0.715-3.072-1.06
		c-1.084-0.324-2.211-0.634-3.36-0.936c-1.157-0.298-2.41-0.497-3.623-0.737c-1.224-0.205-2.379-0.255-3.553-0.363l-0.111-0.009
		l-0.053-0.004l-0.091-0.006h-0.014h-0.031l-0.237,0.006l-0.477,0.013c-0.314,0.017-0.63,0.013-0.938,0.05
		c-0.616,0.091-1.232,0.121-1.813,0.281c-1.18,0.229-2.266,0.623-3.257,1.044c-0.999,0.407-1.883,0.91-2.666,1.399
		c-0.786,0.497-1.468,1.003-2.037,1.481c-0.585,0.464-1.044,0.927-1.419,1.302c-0.747,0.763-1.096,1.264-1.096,1.264
		s0.521-0.316,1.439-0.801C91.945,19.722,93.275,19.078,94.886,18.451z" class="color c4"/>
    <path fill="#F62F41" d="M156.793,82.791c-17.978-9.231-23.147-14.133-29.787-10.244c-5.33,3.117-9.873,4.137-18.516,2.267
		c-2.131-0.461-10.146-2.037-11.938-2.71c-9.075-3.4-11.895-4.65-16.738-1.72c-7.396,4.473-13.548,11.834-13.548,11.834
		c12.553-3.721,18.461-4.451,18.461-4.451c-9.514,3.897-15.654,8.542-16.102,8.883c9.833-3.877,23.407-7.744,41.363-7.744
		c18.802,0,32.806,4.247,42.726,8.298c-4.062-5.297-11.31-6.842-11.31-6.842C148.373,79.392,156.793,82.791,156.793,82.791z" class="color c4"/>
  </g>
  <g>
    <g>
      <path fill="#95A3A6" d="M152.146,112.175c-0.479-0.639-1.033-1.215-1.592-1.768c-0.562-0.554-1.175-1.046-1.793-1.511
			c-0.313-0.229-0.646-0.429-0.966-0.644l-1.012-0.547c-0.351-0.146-0.691-0.315-1.048-0.443c-0.36-0.104-0.715-0.241-1.079-0.323
			c-0.367-0.062-0.729-0.147-1.097-0.2l-1.106-0.087l-1.104,0.063c-0.365,0.025-0.728,0.134-1.091,0.191
			c-0.168,0.041-0.383,0.059-0.52,0.109l-0.572,0.166l-1.147,0.328c-0.78,0.201-1.494,0.48-2.215,0.744
			c-1.443,0.504-2.912,1.135-4.41,1.709c-0.74,0.303-1.506,0.576-2.283,0.824l-1.155,0.381l-1.183,0.307
			c-0.793,0.188-1.571,0.447-2.373,0.564l-2.397,0.403c-0.797,0.146-1.604,0.177-2.403,0.271l-2.406,0.213l0.572-0.346
			c-0.117,0.176-0.259,0.402-0.377,0.621c-0.123,0.221-0.238,0.444-0.351,0.676c-0.224,0.459-0.41,0.936-0.599,1.414
			c-0.174,0.479-0.336,0.972-0.461,1.47c-0.076,0.247-0.106,0.501-0.166,0.754c-0.06,0.252-0.094,0.506-0.125,0.762
			c-0.028,0.259-0.084,0.515-0.09,0.771l-0.045,0.777c0.021,0.514,0,1.041,0.077,1.561c0.041,0.521,0.146,1.039,0.271,1.556
			c0.095,0.526,0.302,1.019,0.451,1.536c-0.237-0.477-0.539-0.938-0.731-1.441c-0.209-0.504-0.396-1.019-0.521-1.554
			c-0.172-0.524-0.211-1.075-0.306-1.623l-0.058-0.825c-0.028-0.277-0.004-0.556-0.006-0.832c0.002-0.279,0.015-0.558,0.052-0.83
			c0.032-0.274,0.043-0.558,0.098-0.828c0.082-0.551,0.199-1.096,0.339-1.639c0.143-0.537,0.321-1.068,0.528-1.59
			c0.104-0.262,0.213-0.521,0.334-0.775c0.121-0.263,0.24-0.5,0.399-0.781l0.164-0.283l0.408-0.063l2.334-0.356
			c0.772-0.123,1.563-0.188,2.325-0.36l2.293-0.479c0.775-0.123,1.511-0.383,2.265-0.573l1.125-0.308l1.104-0.383
			c0.731-0.258,1.478-0.49,2.211-0.783l2.229-0.844c0.75-0.283,1.494-0.58,2.293-0.813c0.787-0.249,1.572-0.516,2.343-0.678
			l1.157-0.278l0.582-0.142c0.246-0.068,0.435-0.07,0.653-0.104c0.427-0.043,0.845-0.127,1.273-0.131l1.28,0.02l1.267,0.186
			c0.416,0.088,0.819,0.225,1.228,0.338c0.397,0.137,0.778,0.324,1.168,0.482c0.377,0.178,0.733,0.398,1.099,0.601
			c0.352,0.222,0.686,0.468,1.02,0.708c0.313,0.271,0.636,0.523,0.935,0.805C150.428,109.443,151.422,110.746,152.146,112.175z" class="color c3"/>
      <path fill="#95A3A6" d="M153.117,125.615c0,0-0.115,0.391-0.418,1.029c-0.146,0.326-0.354,0.701-0.58,1.143
			c-0.257,0.422-0.517,0.924-0.884,1.408c-0.346,0.508-0.743,1.036-1.204,1.566c-0.429,0.563-0.98,1.063-1.521,1.613
			c-0.297,0.246-0.6,0.496-0.903,0.748c-0.303,0.262-0.617,0.512-0.969,0.717c-0.343,0.223-0.688,0.443-1.033,0.666
			c-0.354,0.207-0.733,0.371-1.103,0.563c-0.729,0.396-1.53,0.62-2.303,0.881c-0.382,0.148-0.777,0.229-1.173,0.291
			c-0.392,0.067-0.778,0.137-1.159,0.203c-0.759,0.143-1.517,0.078-2.218,0.118c-0.705,0.058-1.362-0.101-1.971-0.146
			c-0.606-0.076-1.166-0.106-1.644-0.27c-0.476-0.131-0.892-0.243-1.231-0.337c-0.685-0.188-1.063-0.312-1.063-0.312
			s0.399,0.047,1.102,0.125c0.349,0.047,0.771,0.102,1.253,0.164c0.479,0.096,1.034,0.045,1.627,0.082
			c0.592-0.009,1.235,0.092,1.909-0.021c0.673-0.095,1.392-0.101,2.104-0.255c0.359-0.079,0.724-0.16,1.093-0.241
			c0.369-0.074,0.739-0.161,1.098-0.304c0.726-0.258,1.476-0.479,2.158-0.862c0.349-0.173,0.709-0.323,1.049-0.515
			c0.328-0.205,0.656-0.412,0.982-0.616c0.666-0.39,1.237-0.896,1.832-1.329c0.526-0.512,1.108-0.938,1.563-1.443
			c0.483-0.477,0.911-0.955,1.288-1.42c0.39-0.449,0.707-0.896,1.015-1.273c0.276-0.396,0.537-0.737,0.718-1.039
			C152.922,125.97,153.117,125.615,153.117,125.615z" class="color c3"/>
    </g>
  </g>
  <g>
    <g>
      <path fill="#D3D7D8" d="M109.111,181.162c0,0.717-0.026,1.438-0.086,2.106c0,0-1.67,1.776-3.976,1.776
			c-2.305,0-3.975-1.776-3.975-1.776c-0.271-3.204,0.768-7.142,2.051-9.948c0.981-2.158,2.106-3.654,2.896-3.654
			c0.047,0,0.104,0,0.153,0.021C107.723,170.074,109.111,175.992,109.111,181.162z" class="color c5"/>
      <path fill="#D3D7D8" d="M99.729,182.783c0,0,0.062-4.555,1.64-9.594c0,0-0.486-3.523-1.64-3.523
			c-1.152,0-4.373,5.225-4.615,12.084C95.113,181.75,96.631,184,99.729,182.783z" class="color c5"/>
      <path fill="#D3D7D8" d="M95.113,174.951c0.574-1.384,0.972-6.498-1.396-5.83c-2.368,0.666-6.801,4.797-2.064,13.541
			C91.65,182.662,93.313,179.281,95.113,174.951z" class="color c5"/>
      <path fill="#D3D7D8" d="M88.251,166.387c0,0-5.647,4.067-1.275,11.536c0,0-0.061-2.364,1.642-4.979
			C90.314,170.333,89.525,166.507,88.251,166.387z" class="color c5"/>
      <path fill="#D3D7D8" d="M84.971,163.837c0,0-5.284,2.975-1.95,10.564c0,0,0.432-3.824,1.95-5.646
			C86.488,166.934,86.123,163.716,84.971,163.837z" class="color c5"/>
      <path fill="#D3D7D8" d="M118.904,183.269c0,0-1.67,1.777-3.971,1.777c-2.308,0-3.976-1.777-3.976-1.777
			c-0.051-0.523-0.069-1.066-0.078-1.622c-0.106-5.44,1.429-11.981,3.08-11.981c1.642,0,4.778,6.541,4.983,11.981
			C118.963,182.201,118.955,182.744,118.904,183.269z" class="color c5"/>
      <path fill="#D3D7D8" d="M124.873,181.646v0.105c0,0-1.519,2.246-4.617,1.031c0,0,0-0.418-0.057-1.139
			c-0.117-1.66-0.478-4.941-1.584-8.463c0,0,0.485-3.52,1.641-3.52C121.404,169.666,124.6,174.833,124.873,181.646z" class="color c5"/>
      <path fill="#D3D7D8" d="M130.42,175.914c-0.037,1.604-0.494,3.508-1.563,5.732c-0.166,0.331-0.342,0.67-0.526,1.023
			c0,0-0.187-0.373-0.492-1.023c-0.545-1.156-1.487-3.195-2.519-5.625c-0.147-0.35-0.293-0.709-0.446-1.068
			c-0.574-1.391-0.974-6.5,1.397-5.83c0.301,0.088,0.633,0.225,0.979,0.428C128.789,170.433,130.525,172.484,130.42,175.914z" class="color c5"/>
      <path fill="#D3D7D8" d="M133.004,177.923c0,0,0.07-2.368-1.631-4.973c-1.699-2.613-0.914-6.443,0.358-6.57
			C131.732,166.38,137.377,170.453,133.004,177.923z" class="color c5"/>
      <path fill="#D3D7D8" d="M136.959,174.408c0,0-0.428-3.828-1.942-5.654c-1.522-1.816-1.154-5.035,0-4.916
			C135.016,163.837,140.293,166.809,136.959,174.408z" class="color c5"/>
    </g>
  </g>
</svg>