<svg version="1.1" id="图层_1" x="0px" y="0px" width="179.59px" height="132.175px" viewBox="0 0 179.59 132.175" enable-background="new 0 0 179.59 132.175" xml:space="preserve" xmlns="http://www.w3.org/2000/svg" xmlns:xlink="http://www.w3.org/1999/xlink" xmlns:xml="http://www.w3.org/XML/1998/namespace">
  <path fill="#FEDD3F" d="M179.273,105.481c-4.857-9.716-12.684-14.852-22.633-14.852c-1.118,0-2.075,0.061-2.773,0.105
	c-0.354,0.022-0.643,0.044-0.857,0.044c-0.714,0-2.368-1.08-3.828-2.033c-1.576-1.028-3.536-2.309-5.92-3.444
	c-1.78-0.849-3.726-1.278-5.784-1.278c-1.047,0-2.058,0.108-3.019,0.277l0.171-1.888c0.092-1.025,0.333-7.727-3.975-39.044
	c-4.948-35.966-38.957-43.08-39.313-43.15L90.203,0L89.05,0.222c-0.343,0.067-34.351,7.171-39.3,43.147
	c-4.312,31.333-4.067,38.023-3.975,39.047l0.186,2.046c-1.203-0.257-2.495-0.439-3.85-0.439c-2.058,0-4.004,0.43-5.784,1.278
	c-2.383,1.136-4.343,2.415-5.918,3.443c-1.46,0.953-3.115,2.034-3.829,2.034c-0.214,0-0.503-0.021-0.857-0.044
	c-0.699-0.045-1.655-0.105-2.773-0.105c-9.949,0-17.775,5.136-22.633,14.852c-0.465,0.93-0.415,2.033,0.131,2.917
	c0.545,0.885,1.511,1.423,2.55,1.425c2.856,0.004,8.2,0.552,10.379,2.005c0.336,0.225,0.795,0.551,1.37,0.959
	c1.298,0.921,3.189,2.263,5.589,3.811c8.368,5.398,22.948,13.322,40.36,14.789c6.212,0.523,11.743,0.788,16.437,0.788h0
	c7.032,0,10.772-0.581,12.662-1.06c1.889,0.479,5.629,1.06,12.662,1.06c4.694,0,10.225-0.265,16.438-0.788
	c17.64-1.486,30.574-8.651,40.967-14.409c0.233-0.129,0.458-0.253,0.687-0.38c3.714-2.056,6.958-3.826,9.868-4.978
	c3.732-1.475,6.489-1.813,6.508-1.815c0.974-0.109,1.833-0.688,2.301-1.549C179.694,107.395,179.711,106.358,179.273,105.481z" class="color c1"/>
  <g>
    <path fill="#CB3C30" d="M63.509,47.163l25.982,12.114l28.91-6.976c0.695,1.514,3.238,8.384-0.216,21.899l0.946,0.316
		c0.276-0.663,6.74-16.352,5.174-26.18c-0.466-2.924-3.571-3.673-5.239-4.075c-0.187-0.045-0.397-0.096-0.57-0.144
		c0.166-0.238,0.324-0.462,0.475-0.676c2.828-4.015,2.959-4.653-1.59-13.972C110.529,15.434,97.234,8.896,90.407,8.896
		c-9.874,0-20.998,8.466-23.626,15.475l-0.841,2.242l1.668-1.719c0.094-0.097,9.527-9.707,18.899-9.707c0.035,0,0.069,0,0.104,0
		c-1.201,3.299-6.004,17.868-1.739,29.14l-12.395-1.989l15.181,7.452c-9.524-0.542-20.686-2.131-20.807-2.148L63.509,47.163z" class="color c2"/>
    <path fill="#CB3C30" d="M169.64,104.787c-0.325-0.325-8.072-7.965-17.371-7.965c-0.603,0-1.207,0.033-1.795,0.099
		c-5.009,0.556-9.261,4.171-13.763,8c-4.136,3.518-8.396,7.14-13.713,8.982c3.234-2.618,9.698-7.976,13.187-11.732
		c4.622-4.978,11.461-6.826,11.53-6.844l1.224-0.323l-4.954-2.672c-0.155-0.09-3.856-2.208-8.861-2.208
		c-2.27,0-4.454,0.443-6.493,1.316c-2.729,1.171-4.636,4.191-7.05,8.016c-3.122,4.945-7.007,11.1-14.551,16.742
		c-4.554,3.406-9.749,6.132-15.883,8.334l-2.037,0.731l-2.037-0.731c-6.133-2.202-11.329-4.928-15.883-8.334
		c-7.543-5.642-11.429-11.796-14.55-16.741c-2.415-3.824-4.321-6.845-7.051-8.016c-1.907-0.817-3.963-1.231-6.113-1.231
		c-5.323,0-9.418,2.49-9.536,2.567l-4.783,2.194l1.349,0.356c0.069,0.018,6.909,1.866,11.53,6.844
		c3.452,3.716,9.663,8.882,13.192,11.732c-5.319-1.842-9.58-5.464-13.717-8.982c-4.501-3.828-8.753-7.443-13.763-8
		c-0.448-0.05-0.894-0.074-1.337-0.085c0,0-0.001,0-0.002,0s-0.001,0-0.001,0l-0.028,1c0.408,0.012,0.818,0.034,1.23,0.08
		c4.706,0.522,8.844,4.042,13.226,7.768c4.6,3.912,9.813,8.345,16.506,9.875l0.972,0.219c0.732,0.427,1.464,0.85,2.193,1.258
		c0.614,0.343,1.161,0.642,1.625,0.892c-2.739-0.062-5.477-0.649-8.353-1.793c-4.81-1.914-9.175-5.068-13.396-8.118
		c-3.926-2.836-7.634-5.516-11.431-7.017c-2.107-0.833-4.321-1.255-6.582-1.255c-7.731,0-13.516,4.811-13.758,5.016l-1.243,1.049
		l1.618-0.17c4.937-0.517,10.222,2.457,17.815,6.723c2.52,1.416,5.376,3.02,8.547,4.68l0.329,0.173
		c0.323,0.169,0.644,0.339,0.979,0.511c13.546,6.955,28.01,7.77,28.18,7.778h23.606h1.333h23.619l0.013,0
		c0.144-0.008,14.606-0.822,28.153-7.777c0.335-0.172,0.657-0.341,0.979-0.511l0.328-0.173c3.171-1.66,6.027-3.264,8.546-4.68
		c7.595-4.266,12.871-7.246,17.817-6.723l1.405,0.148L169.64,104.787z" class="color c2"/>
    <path fill="#CB3C30" d="M69.087,94.323c0.541,1.089,1.02,2.228,1.422,3.384l0.963-0.262l-3.494-17.66l-0.526,0.157
		c-0.012,0.003-1.224,0.359-2.796,0.359c-1.638,0-3.925-0.395-5.522-2.275c-3.043-3.579-3.08-15.919-3.08-16.043l-1-0.021
		l-0.766,18.228l0.327,0.132C54.709,80.359,64.072,84.227,69.087,94.323z" class="color c2"/>
    <path fill="#CB3C30" d="M112.697,80.008l-3.45,17.437l0.963,0.261c0.46-1.322,1.032-2.639,1.7-3.916
		c5.064-9.681,14.105-13.432,14.196-13.469l0.327-0.132l-0.769-18.227l-1,0.021c0,0.123-0.035,12.187-2.976,15.919L112.697,80.008z" class="color c2"/>
  </g>
  <path fill="#FEDD3F" d="M55.615,113.577c-0.042-0.025-0.079-0.048-0.121-0.073c1.134,0.916,1.875,1.5,1.945,1.556
	c0.003,0.003,0.014,0.011,0.014,0.011c-12.871-2.941-19.859-16.551-29.788-17.652c-0.426-0.047-0.85-0.071-1.271-0.083
	c-0.096-0.003-0.191-0.005-0.287-0.006c-0.397-0.004-0.792,0.003-1.184,0.026c-0.119,0.007-0.235,0.021-0.354,0.031
	c-0.262,0.021-0.523,0.048-0.783,0.082c-0.188,0.023-0.374,0.048-0.56,0.078c-0.171,0.027-0.34,0.061-0.51,0.092
	c-0.402,0.075-0.798,0.161-1.19,0.259c-0.061,0.015-0.121,0.03-0.181,0.046c-4.934,1.284-9.036,4.275-11.064,5.972
	c-0.634,0.565-1.258,0.902-1.348,1.227c0,0,9.288-7.844,19.833-3.678c7.811,3.088,15.489,11.42,24.826,15.135
	c3.266,1.299,6.732,2.038,10.48,1.784c0,0-1.272-0.638-3.324-1.784C59.353,115.816,57.592,114.797,55.615,113.577z" class="color c1"/>
  <path fill="#FEDD3F" d="M69.185,59.416c-0.946-0.57-2.112-0.784-3.178-1.158c-0.035,0.115-0.069,0.229-0.104,0.344
	c0.738,0.54,1.474,1.082,2.517,1.846c-1.085,0-1.747,0-2.423,0c0.751,6.04,4.565,10.277,9.553,10.712
	c3.247,0.282,6.628-1.311,7.144-2.896c-2.851-1.804-5.598-3.501-8.3-5.265C72.632,61.844,70.985,60.506,69.185,59.416z" class="color c1"/>
  <path fill="#FEDD3F" d="M107.203,61.518c-3.164,2.599-6.258,5.264-10.412,6.197c1.285,2.682,5.191,3.999,8.978,3.167
	c4.064-0.894,7.792-5.806,7.884-10.506c-0.666,0.034-1.323,0.071-2.431,0.13c1.125-0.82,1.913-1.393,2.968-2.16
	C111.26,58.643,109.128,59.939,107.203,61.518z" class="color c1"/>
  <path fill="#2A1C19" d="M153.01,93.779c-2.761,0-5.77-3.26-11.038-5.77c-5.268-2.51-10.536,0.502-13.796,1.002
	c-3.262,0.502,3.29-4.903,3.29-4.903l0.178-1.964c0.01-0.11,0.03-0.411,0.028-1.028c-0.009-2.71-0.438-11.542-3.987-37.338
	C123.009,9.795,91.098,3.229,90.776,3.165l-0.573-0.11l-0.573,0.11c-0.322,0.063-32.233,6.63-36.908,40.613
	c-3.551,25.804-3.979,34.634-3.987,37.34c-0.002,0.616,0.018,0.916,0.028,1.026l0.178,1.964c0,0,5.734,5.405,2.474,4.903
	c-3.26-0.5-8.53-3.512-13.797-1.002s-8.277,5.77-11.037,5.77S10.776,91.27,3,106.823c0,0,8.279,0,12.042,2.509
	c1.512,1.009,5.379,3.963,11.006,7.266c8.373,4.914,20.647,10.599,34.899,11.8c14.278,1.202,21.889,0.783,25.699,0.254
	c1.79-0.249,2.742-0.52,3.149-0.661c1.275,0.439,7.863,2.173,28.848,0.407c14.776-1.245,26.319-6.732,35.681-11.8
	c5.736-3.104,10.654-6.052,14.99-7.768c4.207-1.662,7.275-2.007,7.275-2.007C168.814,91.27,155.769,93.779,153.01,93.779z
	 M125.918,79.857c0,0-9.235,3.73-14.451,13.701c-0.645,1.233-1.232,2.555-1.729,3.984l0.667-3.375l2.72-13.747l8.842-2.071
	c3.197-3.762,3.197-16.367,3.197-16.367L125.918,79.857z M113.653,60.376c-0.091,4.7-3.82,9.612-7.884,10.506
	c-3.786,0.832-7.692-0.485-8.978-3.167c4.154-0.934,7.248-3.599,10.412-6.197c1.925-1.578,4.057-2.875,6.986-3.172
	c-1.055,0.768-1.842,1.34-2.968,2.16C112.33,60.447,112.987,60.41,113.653,60.376z M75.697,43.361l9.969,1.6
	c-5.338-12.552,1.659-30.25,1.659-30.25c-9.965-0.586-20.075,9.835-20.075,9.835c2.529-6.745,13.552-15.15,23.158-15.15
	c6.032,0,19.4,5.7,26.524,20.293c4.945,10.13,4.162,9.752,0.896,14.518c-0.492,0.72,5.373,0.376,5.983,4.209
	c1.562,9.801-5.142,25.909-5.142,25.909c4.044-15.823,0-22.603,0-22.603L89.544,58.75L66.781,48.137c0,0,13.188,1.89,23.264,2.268
	L75.697,43.361z M66.007,58.258c1.066,0.374,2.231,0.588,3.178,1.158c1.801,1.09,3.447,2.428,5.21,3.582
	c2.702,1.764,5.449,3.461,8.3,5.265c-0.516,1.586-3.897,3.179-7.144,2.896c-4.988-0.435-8.802-4.672-9.553-10.712
	c0.676,0,1.338,0,2.423,0c-1.042-0.764-1.779-1.306-2.517-1.846C65.938,58.487,65.972,58.373,66.007,58.258z M54.802,79.857
	l0.751-17.875c0,0,0,12.605,3.199,16.367c3.198,3.766,8.842,2.071,8.842,2.071l2.807,14.188l0.58,2.933
	c-0.424-1.219-0.912-2.366-1.446-3.442C64.377,83.718,54.802,79.857,54.802,79.857z M64.838,125.002c0,0-14.345-0.736-27.952-7.723
	c-0.447-0.229-0.87-0.454-1.304-0.682c-12.771-6.685-19.888-12.169-26.647-11.457c0.089-0.324,0.713-0.661,1.348-1.227
	c2.028-1.696,6.13-4.688,11.064-5.972c0.06-0.016,0.12-0.031,0.181-0.046c0.392-0.098,0.788-0.184,1.19-0.259
	c0.169-0.032,0.338-0.065,0.51-0.092c0.186-0.029,0.372-0.054,0.56-0.078c0.259-0.033,0.521-0.06,0.783-0.082
	c0.118-0.01,0.235-0.024,0.354-0.031c0.392-0.024,0.787-0.03,1.184-0.026c0.096,0.001,0.191,0.003,0.287,0.006
	c0.431,0.012,0.863,0.035,1.299,0.083c9.918,1.101,16.903,14.68,29.747,17.642c-0.07-0.056-0.811-0.64-1.945-1.556
	c0.042,0.025,0.079,0.048,0.121,0.073c-3.19-2.578-9.692-7.958-13.212-11.747c-4.781-5.149-11.769-6.987-11.769-6.987l3.515-1.612
	c0,0,7.519-4.641,15.244-1.331c5.917,2.538,7.962,14.575,21.499,24.698c4.127,3.087,9.311,5.998,16.014,8.404H64.838z
	 M142.639,116.598c-0.434,0.228-0.856,0.452-1.304,0.682c-13.608,6.986-27.951,7.723-27.951,7.723H91.317
	c6.703-2.406,11.886-5.317,16.013-8.404c13.537-10.123,15.583-22.16,21.499-24.698c7.725-3.31,14.905,0.864,14.905,0.864
	l3.854,2.079c0,0-6.988,1.838-11.769,6.987c-4.784,5.149-15.08,13.24-15.08,13.24c12.872-2.941,19.86-16.551,29.79-17.652
	c9.93-1.104,18.757,7.723,18.757,7.723C162.527,104.429,155.41,109.913,142.639,116.598z" class="color c3"/>
</svg>