<svg version="1.1" id="图层_1" x="0px" y="0px" width="180px" height="141.049px" viewBox="0 0 180 141.049" enable-background="new 0 0 180 141.049" xml:space="preserve" xmlns="http://www.w3.org/2000/svg" xmlns:xlink="http://www.w3.org/1999/xlink" xmlns:xml="http://www.w3.org/XML/1998/namespace">
  <path fill="#010101" d="M160.965,20.873h-32.703l-9.246-18.428C118.294,1.006,116.665,0,115.055,0H64.954
	c-1.76,0.039-3.374,1.301-3.979,2.467l-9.236,18.406H19.035C8.539,20.873,0,29.412,0,39.908v82.061
	c0,10.498,8.539,19.037,19.035,19.037h31.903l0.002,0.043c0.289-0.01,0.572-0.03,0.859-0.043h0.547v-0.026
	c13.657-0.697,25.207-4.738,37.645-13.416c12.407,8.658,23.933,12.696,37.547,13.41v0.032h0.646
	c0.287,0.013,0.569,0.033,0.858,0.043l0.001-0.043h31.922c10.496,0,19.035-8.539,19.035-19.037V39.908
	C180,29.412,171.461,20.873,160.965,20.873z M81.681,90.228c2.269,2.33,5.224,3.614,8.32,3.614c3.101,0,6.056-1.284,8.321-3.618
	c2.63-2.705,4.134-6.623,4.025-10.48c-0.162-5.75-2.693-12.525-6.964-18.689c4.97-5.186,10.571-8.033,15.843-8.033
	c11.36,0,15.408,8.805,15.408,17.043c0,13.699-18.734,32.546-32.57,43.83c-1.4,1.144-2.752,2.207-4.028,3.183
	c-0.012,0.008-0.024,0.018-0.036,0.026c-0.015-0.012-0.03-0.022-0.045-0.035c-1.277-0.975-2.629-2.039-4.03-3.184
	c-13.836-11.281-32.561-30.123-32.561-43.82c0-8.238,4.048-17.043,15.409-17.043c5.271,0,10.875,2.848,15.845,8.033
	c-4.271,6.164-6.802,12.939-6.962,18.689C77.547,83.603,79.052,87.521,81.681,90.228z M86.019,79.978
	c0.097-3.433,1.535-7.679,3.981-11.822c2.447,4.145,3.887,8.391,3.982,11.822c0.045,1.621-0.59,3.313-1.66,4.412
	c-0.686,0.704-1.486,1.075-2.321,1.075s-1.639-0.371-2.323-1.073C86.608,83.289,85.972,81.599,86.019,79.978z M171.15,121.969
	c0,5.712-4.476,10.187-10.187,10.187h-37.411c-9.264-1.123-17.628-4.254-26.438-9.988c0.292-0.234,0.585-0.48,0.877-0.723
	c11.564-9.275,37.012-31.902,37.012-51.381c0-15.199-9.556-25.41-23.777-25.41c-7.291,0-14.797,3.523-21.227,9.943
	c-6.431-6.42-13.937-9.943-21.227-9.943c-14.222,0-23.777,10.211-23.777,25.41c0,18.961,24.119,40.909,36.066,50.62
	c0.605,0.506,1.207,1,1.805,1.483c-8.811,5.733-17.174,8.865-26.438,9.987H19.035c-5.711,0-10.186-4.475-10.186-10.186v-82.06
	c0-5.711,4.475-10.186,10.186-10.186h35.483c1.618,0,3.245-1.006,3.967-2.443l9.249-18.428h44.532l9.248,18.426
	c0.723,1.439,2.35,2.445,3.957,2.445h35.493c5.711,0,10.187,4.475,10.187,10.186V121.969L171.15,121.969z" class="color c1"/>
</svg>