<svg version="1.1" id="图层_1" x="0px" y="0px" width="137.754px" height="124.162px" viewBox="0 0 137.754 124.162" enable-background="new 0 0 137.754 124.162" xml:space="preserve" xmlns:xml="http://www.w3.org/XML/1998/namespace" xmlns="http://www.w3.org/2000/svg" xmlns:xlink="http://www.w3.org/1999/xlink">
  <polygon fill="#FFFFFF" points="3.062,23.898 3.062,75.685 71.294,121.414 69.896,56.807 " class="color c1"/>
  <polygon fill="#D8D8D8" points="6.471,26.55 68.044,58.081 136.635,21.239 68.69,3.754 " class="color c2"/>
  <polygon fill="#FFFFFF" points="133.672,23.133 133.672,74.919 68.622,120.326 66.837,56.041 " class="color c1"/>
  <path fill="#0C0B0B" d="M69.887,7.198l60.369,18.026l0.57,47.405l-62.229,43.169L6.889,73.491L6.936,26.85L69.887,7.198 M69.842,0
	L0.056,21.784L0,77.115l68.62,47.047l69.134-47.959l-0.674-56.127L69.842,0L69.842,0z" class="color c3"/>
  <polygon fill="#0C0B0B" points="119.908,29.69 67.671,52.387 21.71,34.165 21.556,34.47 64.147,58.535 68.041,113.128 
	68.385,113.128 72.17,58.466 120.037,30.009 " class="color c3"/>
  <g>
    <path fill="#0C0B0B" d="M100.407,61.669c-6.529,9.439-14.082,17.592-14.082,17.592s7.87,1.457,14.782,5.064
		c6.513-9.524,14.093-17.547,14.093-17.547S107.348,65.401,100.407,61.669z" class="color c3"/>
  </g>
  <g>
    <path fill="#0C0B0B" d="M43.409,68.083c-0.959-0.434-1.876-0.578-2.713-0.492c1.434-0.826,2.396-2.609,2.506-5.06
		c0.197-4.484-2.448-9.108-5.926-10.36c-3.479-1.027-6.48,1.292-6.75,5.198c-0.148,2.134,0.57,4.408,1.831,6.332
		c-0.777-0.792-1.654-1.441-2.599-1.88c-3.515-1.435-6.576,0.276-6.886,3.82c-0.313,3.521,2.291,8,5.854,10.159
		c2.955,1.681,5.572,0.951,6.549-1.644c-0.508,2.545-1.732,7.99-2.98,9.79l6,4.034c-0.933-3.363-1.414-10.043-1.59-13.027
		c0.606,3.57,2.965,7.411,5.947,9.374c3.649,2.237,6.729,0.338,6.896-4.377C49.716,75.217,46.972,69.919,43.409,68.083z" class="color c3"/>
  </g>
  <g>
    <path fill="#0C0B0B" d="M86.295,26.971c2.645-3.863-4.102-9.867-14.498-7.628c-7.205,1.297-11.046,1.973-18.561,1.412
		c2.772,3.605,2.484,5.729,2.262,9.897c-0.011,6.599,14.759,8.261,20.318,5.235c3.176-1.959,1.383-4.479,0.049-5.83
		c2.584,1.215,7.354,3.487,9.211,4.839l3.275-2.963c-2.898-0.354-8.494-1.83-11.51-2.661C79.616,29.426,84.396,29.315,86.295,26.971
		z" class="color c3"/>
  </g>
</svg>