<svg version="1.1" id="图层_1" x="0px" y="0px" width="321.742px" height="257.915px" viewBox="0 0 321.742 257.915" enable-background="new 0 0 321.742 257.915" xml:space="preserve" xmlns="http://www.w3.org/2000/svg" xmlns:xlink="http://www.w3.org/1999/xlink" xmlns:xml="http://www.w3.org/XML/1998/namespace">
  <path fill="#FFFFFF" d="M39.424,5.088c0.318-1.604,2.524-1.285,2.543,0C40.834,5.869,39.691,6.625,39.424,5.088z M54.401,141.042
	c-0.661,0-1.32,0-1.979,0c0,1.098,0,2.199,0,3.303C54.479,144.642,54.523,142.931,54.401,141.042z M55.956,220.002
	c-1.74,1.004-0.211,1.295,1.273,0C58.75,218.672,57.525,219.096,55.956,220.002z M41.967,80.116
	C38.891,84.382,46.237,77.043,41.967,80.116L41.967,80.116z M55.956,147.516c-1.495,0.203-3.611-0.221-3.814,1.27
	C53.635,148.59,55.749,149.006,55.956,147.516z M30.521,76.302C23.982,79.371,34.899,79.589,30.521,76.302L30.521,76.302z
	 M2.546,127.167c2.897,0.354,4.78-0.301,5.084-2.543C5.264,124.801,3.387,125.462,2.546,127.167z M6.36,132.258
	c1.497-0.205,3.607,0.215,3.813-1.272C8.68,131.182,6.563,130.768,6.36,132.258z M13.988,3.812c5.398-2.55-0.784-0.169-1.268,0
	C8.471,5.323,11.684,4.903,13.988,3.812z M11.451,100.464C10.427,108.157,17.276,101.314,11.451,100.464L11.451,100.464z
	 M85.208,12.719c-0.152,0.291-0.337,0.507-0.555,0.676C84.822,13.314,85.006,13.111,85.208,12.719z M97.923,1.272
	c-0.85,0-1.699,0-2.548,0c0,0.85,0,1.693,0,2.539c0.849,0,1.698,0,2.548,0C97.923,2.966,97.923,2.122,97.923,1.272z M67.402,52.138
	c-1.5,0.203-3.612-0.22-3.815,1.271C65.083,53.211,67.199,53.629,67.402,52.138z M103.013,53.407
	C99.938,57.676,107.275,50.336,103.013,53.407L103.013,53.407z M128.443,116.994c0.018,1.282,2.227,1.604,2.546,0
	C129.558,117.126,129.006,115.146,128.443,116.994z M123.352,148.245c0.274,1.541,1.413,0.787,2.549,0
	C125.886,146.959,123.666,146.65,123.352,148.245z M106.823,2.542c-1.497,0.197-3.612-0.22-3.811,1.27
	C104.507,3.619,106.62,4.033,106.823,2.542z M81.424,46.408c1.389-2.029,0.658-6.519-0.662-7.926c-0.652,0-1.312,0-1.964,0
	c-0.635,1.742-1.278,5.658,0,7.268C79.946,45.699,80.84,45.898,81.424,46.408z M82.663,119.54
	C74.52,118.071,79.869,123.424,82.663,119.54L82.663,119.54z M84.653,13.395c-1.12,0.513-1.616-4.837-1.99-3.222
	c-0.072,1.627-1.631,1.762-1.276,3.815C82.805,13.97,83.92,13.97,84.653,13.395z M95.375,170.409c1.522-1.332,0.304-0.908-1.268,0
	C92.367,171.413,93.896,171.706,95.375,170.409z M2.546,155.146c-0.847,0-1.696,0-2.546,0c0,0.847,0,1.698,0,2.545
	c0.85,0,1.699,0,2.546,0C2.546,156.844,2.546,155.993,2.546,155.146z M38.151,166.59c-0.304,3.277-2.188-1.743-5.085,0
	c1.625,3.189-0.644,3.982,1.271,5.091c-0.305-2.349,2.163,0.271,2.545,0C37.533,171.215,41.235,162.381,38.151,166.59z
	 M35.708,219.926c-0.576,0.443-1.364,1.063-1.903,1.477c0.38-0.292,0.955-0.738,1.807-1.4
	C35.647,219.974,35.676,219.952,35.708,219.926z M3.821,94.104c1.515-1.328,0.292-0.905-1.275,0
	C0.806,95.111,2.332,95.403,3.821,94.104z M38.788,201.795c3.159-1.651,5.275,3.736,6.357,0
	C42.036,201.526,40.499,196.625,38.788,201.795z M27.979,193.297c2.373-0.174,4.251-0.836,5.088-2.547
	C30.163,190.393,28.286,191.063,27.979,193.297z M41.967,157.69c-2.337-0.318-2.855,1.236-5.085,1.27
	c-2.772,0.043-7.762-4.176-6.361,0c3.284,2.647,8.119-0.086,11.446,0c0.126,0-0.14,2.273-0.015,2.52
	c0.127-0.176,7.059,0.579,3.829-2.52C45.251,161.898,43.069,157.838,41.967,157.69z M45.781,43.238
	c0.253,0.141,1.228,2.325,2.543,1.27C49.209,43.805,40.885,40.401,45.781,43.238z M54.682,223.823
	C48.607,220.28,51.604,227.989,54.682,223.823L54.682,223.823z M44.512,156.415c0.269,1.539,1.409,0.785,2.545,0
	C47.038,155.133,44.824,154.817,44.512,156.415z M29.251,92.832c-2.372,1.219-4.25-3.807-5.091,0
	C24.941,93.204,29.061,95.997,29.251,92.832z M35.611,239.077c-4.497-0.686-6.551,1.078-7.633,3.815
	C29.806,241.652,37.757,240.09,35.611,239.077z M10.173,239.077c-0.188,1.336,0.986,3.287,1.278,1.271
	C11.637,239.015,10.465,237.067,10.173,239.077z M11.451,143.7c1.491-0.199,3.607,0.221,3.81-1.27
	C13.762,142.627,11.654,142.209,11.451,143.7z M5.685,223.614c-1.38-2.469-5.899-1.717-4.617,0.661
	c3.481,0.983,11.946,2.153,13.672-3.45c0.277-0.174,0.468-0.431,0.521-0.822c-0.366,0.047-0.771,0.06-1.174,0.07
	C10.712,219.198,9.24,223.333,5.685,223.614z M129.713,11.449c-0.5,0.265,2.068,1.817,1.276-1.276
	c-2.972,1.692-7.166,2.157-10.177,3.815C125.826,15.942,125.584,13.648,129.713,11.449z M20.352,27.979
	c-2.951-0.406-4.888,0.202-6.363,1.267C13.041,34.095,22.229,31.997,20.352,27.979z M16.53,109.362c0.85,0,1.699,0,2.548,0
	c0-0.847,0-1.696,0-2.54c-0.849,0-1.698,0-2.548,0C16.53,107.666,16.53,108.516,16.53,109.362z M20.352,76.302
	c-1.74,1.01-0.215,1.297,1.27,0C23.136,74.969,21.919,75.392,20.352,76.302z M12.721,67.398c0.27,1.538,1.408,0.781,2.54,0
	C15.249,66.117,13.031,65.802,12.721,67.398z M25.437,193.297C22.366,197.562,29.704,190.226,25.437,193.297L25.437,193.297z
	 M35.611,41.963c-1.427,0.131-1.984-1.842-2.545,0C33.078,43.251,35.296,43.566,35.611,41.963z M291.219,176.767
	c1.424-0.13,1.979,1.849,2.549,0C293.742,175.484,291.535,175.165,291.219,176.767z M288.676,150.06
	c-1.496,0.198-3.607-0.22-3.814,1.271C286.354,151.133,288.468,151.551,288.676,150.06z M296.307,123.352
	c1.515-1.326,0.299-0.905-1.272,0C293.295,124.362,294.822,124.648,296.307,123.352z M270.873,20.349
	c-1.428,0.131-1.98-1.849-2.548,0C268.35,21.633,270.555,21.945,270.873,20.349z M279.775,19.079
	c3.053-3.059-4.176-3.297-3.814-1.276C275.941,17.714,280.266,18.584,279.775,19.079z M265.785,99.188
	C270.072,103.058,269.641,94.488,265.785,99.188L265.785,99.188z M267.055,138.616c0.711,0,1.446-1.031,0-1.273
	c-0.265,1.535-1.412,0.785-2.539,0C263.425,142.813,273.188,141.483,267.055,138.616z M267.055,61.038
	c1.497-0.196,3.613,0.221,3.818-1.27C269.374,59.972,267.264,59.548,267.055,61.038z M269.6,81.386c-0.846,0-1.697,0-2.545,0
	c0,0.85,0,1.7,0,2.549c0.848,0,1.699,0,2.545,0C269.6,83.086,269.6,82.235,269.6,81.386z M314.108,99.188
	c-2.369,0.179-4.253,0.842-5.084,2.545C311.921,102.092,313.802,101.431,314.108,99.188z M287.402,161.502
	c1.852-0.691,6.572,1.488,6.365-1.267C291.913,160.926,287.188,158.745,287.402,161.502z M315.763,1.648
	C317.986,3.657,317.766-0.796,315.763,1.648L315.763,1.648z M309.188,71.673c-0.493,2.477,0.736,3.222,2.633,3.303
	c0-1.101,0-2.199,0-3.303C310.94,71.673,310.064,71.673,309.188,71.673z M311.819,78.939
	C326.039,92.465,323.548,63.96,311.819,78.939L311.819,78.939z M320.393,4.834c-0.017,0.122-0.032,0.257-0.057,0.391
	c0.018-0.083,0.029-0.173,0.047-0.274C320.383,4.909,320.389,4.873,320.393,4.834z M315.381,61.038
	c-2.261,0.763-5.281-3.726-6.355,0C309.79,61.777,315.057,64.019,315.381,61.038z M311.819,8.915
	c1.984-1.133,0.427-1.323-0.659-2.644C310.309,7.157,310.762,8.266,311.819,8.915z M309.847,2.31
	C307.847,4.533,312.279,4.313,309.847,2.31L309.847,2.31z M317.928,7.265c-0.049-0.087-0.107-0.191-0.186-0.332
	c-1.124-1.687,0.76-2.31-0.659-3.303c-0.151,0.942-1.081,1.119-1.32,1.983C316.601,5.41,317.561,6.7,317.928,7.265z M317.928,7.265
	C318.146,7.646,318.12,7.55,317.928,7.265L317.928,7.265z M222.943,45.909c0-0.662,0-1.32,0-1.979c-0.662,0-1.32,0-1.979,0
	C220.568,45.645,221.227,46.306,222.943,45.909z M274.686,76.302c-1.746-0.057-2.795,0.6-3.813,1.271
	c0.068-2.188-0.98-3.255-2.548-3.813C268.35,78.683,274.662,80.501,274.686,76.302z M176.764,118.268
	c-0.013-1.284-2.227-1.601-2.539,0C174.491,119.808,175.637,119.052,176.764,118.268z M184.398,20.349
	c-0.85-1.055-1.176,2.349-1.274,2.545C181.314,26.518,185.422,21.627,184.398,20.349z M218.732,44.508
	c-1.627-0.067-1.763-1.627-3.815-1.27c0.379,2.497-1.717,2.521-2.542,3.814C215.527,47.241,217.65,46.393,218.732,44.508z
	 M170.408,185.667c3.935-0.176,0.937-5.375-1.275-1.276C168.697,185.208,169.711,185.702,170.408,185.667z M134.804,47.054
	c0.536,2.429,0.459,5.473,3.815,5.084C138.982,49.394,131.794,44.413,134.804,47.054z M138.619,64.859
	c1.9-0.22,4.69,0.446,5.084-1.275C141.802,63.804,139.012,63.128,138.619,64.859z M139.889,12.719
	c0.25,0.142,1.228,2.324,2.545,1.271C143.316,13.278,134.988,9.88,139.889,12.719z M172.951,239.077
	c0.068-1.621,1.631-1.763,1.273-3.813c-1.902-2.02-5.203-0.939-6.361,1.268C173.734,235.523,171.503,237.95,172.951,239.077z
	 M142.619,79.601c0.512,0.144,0.765,0.552,0.661,1.324c1.222-0.093,2.199-0.437,2.629-1.324c-0.513-0.146-0.764-0.555-0.659-1.32
	C144.025,78.373,143.048,78.716,142.619,79.601z M181.854,17.803c-0.015-1.278-2.229-1.597-2.545,0
	C179.582,19.341,180.721,18.584,181.854,17.803z M276.188,92.218C276.564,92.703,276.693,92.867,276.188,92.218L276.188,92.218z
	 M274.686,172.952c-0.847,0-1.695,0-2.545,0C269.333,176.709,274.373,177.559,274.686,172.952z M274.686,73.759
	c-0.436,0.811,0.578,1.301,1.275,1.275C279.895,74.851,276.898,69.658,274.686,73.759z M276.086,92.089
	c-0.488-0.632-1.275-1.636-1.704-2.193c0.083,0.11,0.185,0.239,0.304,0.394C275.348,91.142,275.794,91.717,276.086,92.089z
	 M259.425,0c-0.304,1.821-2.092,2.146-2.539,3.812C261.368,4.921,263.592,0.713,259.425,0z M256.886,86.475
	C253.811,90.741,261.148,83.403,256.886,86.475L256.886,86.475z M278.5,137.342c-0.012-1.284-2.225-1.6-2.539,0
	C277.386,137.215,277.939,139.193,278.5,137.342z M272.141,27.979c3.094-1.574,6.748-2.584,6.359-7.63
	c-2.986-1.652-2.843,0.644-5.084-2.546C270.877,21.046,276.927,25.222,272.141,27.979z M278.898,144.344
	c1.414-1.413,0.248-3.6-1.316-3.965C277.123,141.936,276.074,144.563,278.898,144.344z M244.168,55.954
	c0.775,0.07,1.506,0.19,1.27,1.27c0.851,0,1.698,0,2.549,0C249.956,54.1,243.664,53.485,244.168,55.954z M217.459,175.493
	c1.497-0.199,3.607,0.221,3.816-1.27C219.777,174.424,217.668,174.004,217.459,175.493z M216.189,71.211
	C208.822,71.834,212.843,75.864,216.189,71.211L216.189,71.211z M221.275,96.649c0.881-0.706-7.439-4.106-2.543-1.275
	C218.984,95.521,219.96,97.699,221.275,96.649z M208.555,120.81c-1.729,1.007-0.203,1.297,1.277,0
	C211.35,119.48,210.127,119.903,208.555,120.81z M211.104,160.236c0.015,1.278,2.23,1.597,2.541,0
	C212.22,160.361,211.671,158.381,211.104,160.236z M233.995,160.236c-0.019-1.288-2.229-1.604-2.545,0
	C232.872,160.105,233.43,162.084,233.995,160.236z M217.525,129.944c0.023,3.059,1.861,4.292,5.264,3.965
	c0.548-1.429,1.704-2.254,1.313-4.625C221.871,129.475,220.323,130.334,217.525,129.944z M232.72,193.297
	c0.781,0.367,4.9,3.164,5.091,0C235.438,194.512,233.561,189.486,232.72,193.297z M205.816,106.025
	c-0.484,3.356,0.662,5.067,2.642,5.95C209.854,109.929,209.377,105.191,205.816,106.025z M224.913,117.919
	c3.333-0.844,3.958-4.405,4.61-7.929C222.136,107.704,225.391,115.444,224.913,117.919z M188.215,156.415c-0.85,0-1.699,0-2.546,0
	c0,0.851,0,1.696,0,2.545c0.847,0,1.696,0,2.546,0C188.215,158.111,188.215,157.265,188.215,156.415z M237.811,30.521
	C234.734,34.786,242.072,27.447,237.811,30.521L237.811,30.521z M204.745,239.077c-0.325,0.166-0.915-0.09-1.271,0
	c-1.578,0.42-0.44,2.129,1.271,1.271C205.691,239.875,206.676,238.11,204.745,239.077z M167.863,256.883
	C172.148,260.745,171.72,252.178,167.863,256.883L167.863,256.883z M171.589,240.131c-0.149,3.777,3.136,5.771,5.919,4.623
	C177.163,241.581,175.201,240.028,171.589,240.131z M177.508,77.615c1.235,2.457,3.637,1.413,4.615-1.317
	C179.721,75.935,178.593,75.499,177.508,77.615z M181.854,108.095c2.188,0.063,3.262-0.982,3.814-2.545
	C183.48,105.484,182.408,106.53,181.854,108.095z M203.477,43.238c-1.433,0.129-1.979-1.848-2.547,0
	C200.947,44.521,203.159,44.836,203.477,43.238z M199.896,194.547c-0.471,1.74-3.892,2.504-1.973,4.627
	C200.172,199.269,202.527,195.325,199.896,194.547z M191.993,228.901c-0.007,1.314-1.787,0.842-1.312,2.641
	c1.365,1.049,3.5,1.33,5.264,1.985C195.637,230.976,194.027,229.729,191.993,228.901z M192.029,199.653
	C186.889,195.18,189.031,203.747,192.029,199.653L192.029,199.653z M190.754,185.667c-1.493,0.195-3.609-0.221-3.814,1.27
	C188.436,186.743,190.551,187.157,190.754,185.667z M301.395,58.499c1.425-0.131,1.977,1.849,2.543,0
	C303.919,57.218,301.707,56.895,301.395,58.499z M300.119,62.314c1.43-0.131,1.98,1.848,2.548,0
	C302.648,61.026,300.435,60.714,300.119,62.314z M301.395,227.631c-5.935-0.901-5.935,2.17,0,1.271
	C301.892,227.521,302.918,225.853,301.395,227.631z M290.095,180.676c-0.549,1.865,0.925,1.711,0.659,3.304
	c4.664-0.524,6.494,1.222,10.533,1.981C302.005,179.739,293.313,182.948,290.095,180.676z M279.775,206.017
	c-1.784-0.101-4.866,0.28-2.545,1.269C280.75,208.961,281.598,202.254,279.775,206.017z M282.314,223.823
	c0.777,0.064,1.509,0.184,1.275,1.266c-0.777,0.072-1.508,0.188-1.275,1.271c2.595,0.743,2.403-2.187,3.815-2.534
	c-0.37,0.086,3.826,2.803,3.82,0C286.172,222.928,283.674,222.286,282.314,223.823z M303.919,185.299
	c1.525-0.209,2.526,0.111,3.289,0.662c0.06-1.805-1.093-1.332,0-2.645C305.324,183.189,303.617,183.234,303.919,185.299z
	 M314.108,134.801c3.169-0.906,5.222,5.597,7.634,1.271C319.763,135.78,315.805,131.182,314.108,134.801z M315.381,158.959
	c0.271,1.539,1.413,0.781,2.543,0C317.909,157.682,315.694,157.364,315.381,158.959z M309.188,183.317
	c0.149,1.252-0.741,1.461-0.658,2.645c1.542,0.211,2.466,1.043,4.61,0.658C312.267,184.098,311.494,184.903,309.188,183.317z
	 M265.785,186.936c1.497-0.193,3.609,0.221,3.814-1.27C268.104,185.862,265.991,185.446,265.785,186.936z M253.223,181.338
	c1.95,0.9,2.871-0.387,5.928,0C259.223,177.111,253.529,178.391,253.223,181.338z M261.125,50.534
	c-2.445,3.429-1.479,11.66,1.973,13.21C264.016,60.242,265.021,51.366,261.125,50.534z M263.098,14.86
	c2.038-4.348,9.168-3.573,8.561-10.567c-2.026-0.928-4.26-0.761-6.26,0.002c-0.545,0.11-0.943,0.263-1.043,0.45
	C259.676,7.127,256.958,12.754,263.098,14.86z M54.682,200.926c1.496-0.196,3.612,0.221,3.82-1.271
	C57.006,199.854,54.89,199.436,54.682,200.926z M274.686,226.358c0.781,0.075,1.502,0.191,1.275,1.273c0.844,0,1.688,0,2.539,0
	C280.479,224.502,274.186,223.894,274.686,226.358z M271.657,187.942c-0.757,0.781-0.739,2.334-0.653,3.965
	C273.541,192.038,274.536,188.034,271.657,187.942z M284.825,180.676c-3.04-1.35-6.796-1.991-11.195-1.979
	C274.148,183.25,282.557,183.038,284.825,180.676z M239.08,157.69c-1.979,3.129,4.32,3.736,3.814,1.27
	C241.268,158.889,241.133,157.327,239.08,157.69z M271.004,174.071c-6.804,0.961-8.637,6.17-8.568,11.229
	C268.572,184.849,271.564,181.243,271.004,174.071z M254.338,204.741c0.057,1.754-0.594,2.793-1.271,3.814c0.852,0,1.699,0,2.55,0
	c0.769-0.071,1.499-0.189,1.27-1.271C255.198,207.27,255.721,205.058,254.338,204.741z M92.838,208.556
	c-1.499,0.2-3.612-0.218-3.814,1.276C90.519,209.629,92.629,210.047,92.838,208.556z M90.293,227.631
	C87.217,231.9,94.555,224.563,90.293,227.631L90.293,227.631z M83.933,138.616C80.855,142.883,88.197,135.542,83.933,138.616
	L83.933,138.616z M91.563,223.823c0.271,1.534,1.41,0.771,2.545,0C94.09,222.536,91.879,222.215,91.563,223.823z M94.107,184.39
	c-0.334,0.013-0.59-0.048-0.87-0.087c0-0.551,0-1.1,0-1.645c-1.085-0.283-1.831,0.028-2.205,0.491
	c-0.305-0.376-0.563-0.799-0.739-1.3c0.98-0.279,2.507-0.035,2.545-1.275c-3.356-0.379-4.18,1.764-3.814,5.092
	C90.924,185.452,93.711,186.124,94.107,184.39z M104.28,47.054c0.694-0.558-12.036-4.189-3.815-1.271
	C100.754,45.886,102.581,48.413,104.28,47.054z M101.737,113.18c0.847,0,1.699,0,2.543,0c0-0.85,0-1.699,0-2.539
	c-0.844,0-1.696,0-2.543,0C101.737,111.48,101.737,112.33,101.737,113.18z M164.051,237.807c-1.457,2.605,1.994,6.061,2.543,2.54
	C164.912,240.334,165.436,238.124,164.051,237.807z M83.933,122.085c-2.737,1.339-3.952,2.976-2.546,2.539
	C83.567,123.945,87.146,120.512,83.933,122.085z M99.195,7.628c4.909,4.195-0.144-2.645-1.272-2.54
	c0.141-0.012-1.246,2.593-1.271,2.54C96.793,7.949,98.888,7.374,99.195,7.628z M105.094,103.383
	c-0.209,2.613-2.035-0.486-2.635,1.322c0.763,0.552,1.765,0.872,3.297,0.659C105.648,104.587,105.868,103.493,105.094,103.383z
	 M77.572,175.493c0.846,0,1.695,0,2.545,0c0-0.85,0-1.695,0-2.541c-0.85,0-1.699,0-2.545,0
	C77.572,173.797,77.572,174.644,77.572,175.493z M72.493,43.238c-1.437,0.129-1.985-1.848-2.55,0
	C69.96,44.521,72.17,44.836,72.493,43.238z M63.587,221.274c2.896,0.354,4.781-0.307,5.085-2.542
	C66.311,218.905,64.425,219.569,63.587,221.274z M60.977,158.215c-1.175-0.196-1.949-0.168-2.475-0.023c0-0.59,0-1.184,0-1.775
	c-0.85,0-1.699,0-2.546,0c0,0.85,0,1.695,0,2.545c0.564,0,1.134,0,1.7,0C57.531,160.325,60.916,162.374,60.977,158.215z
	 M59.772,171.681c1.424-0.134,1.978,1.842,2.542,0C62.299,170.394,60.085,170.081,59.772,171.681z M73.76,119.54
	c-1.499,0.2-3.609-0.221-3.816,1.27C71.443,120.612,73.554,121.03,73.76,119.54z M74.806,128.487c-0.382,0.398-1.54,3.136,0,3.302
	c0.799-0.963,2.882-0.638,1.973-3.302C76.126,128.487,75.467,128.487,74.806,128.487z M75.032,41.963
	c1.428-0.125,1.979,1.854,2.54,0C77.56,40.681,75.349,40.365,75.032,41.963z M72.493,176.767c2.182,0.067,3.257-0.983,3.809-2.543
	C74.114,174.152,73.041,175.198,72.493,176.767z M94.107,211.102c0.013,1.283,2.229,1.598,2.545,0
	C95.223,211.229,94.668,209.252,94.107,211.102z M145.909,246.075c-0.733,2.266,4.786,1.961,3.296-0.658
	C147.34,244.87,147.494,246.349,145.909,246.075z M136.073,186.936C129.531,190.01,140.448,190.226,136.073,186.936L136.073,186.936
	z M138.619,198.381c1.275,0.004,1.514-1.025,2.539-1.271c0,0.71,1.031,1.442,1.275,0
	C141.697,194.75,135.579,197.663,138.619,198.381z M151.334,120.81c-1.74,1.007-0.215,1.297,1.27,0
	C154.123,119.48,152.901,119.903,151.334,120.81z M137.343,209.833c1.5-0.203,3.61,0.215,3.815-1.276
	C139.662,208.756,137.552,208.338,137.343,209.833z M142.619,125.186c0.506,4.311-1.721,7.701-0.659,10.568
	c2.33,0.354,3.389-0.562,3.949-1.984C142.512,133.217,145.581,126.175,142.619,125.186z M153.95,41.417
	c1.204,1.317,6.554,1.162,6.364-2.546C158.048,39.575,155.025,39.526,153.95,41.417z M156.421,166.59
	C156.415,173.272,161.771,167.92,156.421,166.59L156.421,166.59z M151.334,213.641c1.427-0.129,1.979,1.852,2.546,0
	C153.861,212.359,151.646,212.043,151.334,213.641z M155.146,212.372c-0.185,1.334,0.986,3.283,1.275,1.27
	C156.609,212.312,155.438,210.362,155.146,212.372z M110.644,211.102c-1.827,1.859-0.978,4.029,2.539,3.814
	C113.249,212.729,112.205,211.652,110.644,211.102z M117,68.672c0.269,1.54,1.411,0.784,2.543,0
	C119.525,67.388,117.314,67.071,117,68.672z M115.723,94.104C107.579,92.638,112.933,97.99,115.723,94.104L115.723,94.104z
	 M105.553,226.358C102.477,230.627,109.818,223.286,105.553,226.358L105.553,226.358z M108.095,172.952
	c0.207-0.269-2.036,1.775,0,1.271C109.252,173.932,112.432,167.377,108.095,172.952z M129.713,246.708
	c0.53-2.865,6.975,0.189,6.36-3.814C134.344,243.831,125.373,243.899,129.713,246.708z M130.989,193.297
	c1.973-3.131-4.319-3.741-3.821-1.271c0.78,0.071,1.513,0.188,1.275,1.271C129.289,193.297,130.143,193.297,130.989,193.297z
	 M124.843,209.743C123.164,195.131,112.148,211.471,124.843,209.743L124.843,209.743z M134.804,222.542
	c-0.572,2.815-6.635,3.184-1.275,5.09C131.847,224.448,139.453,224.543,134.804,222.542z M125.9,170.409
	c1.181,1.695-2.774,3.582-2.549,3.814C125.344,176.206,130.014,172.532,125.9,170.409z" class="color c1"/>
</svg>