<svg version="1.1" id="图层_1" x="0px" y="0px" width="150.103px" height="144.096px" viewBox="0 0 150.103 144.096" enable-background="new 0 0 150.103 144.096" xml:space="preserve" xmlns="http://www.w3.org/2000/svg" xmlns:xlink="http://www.w3.org/1999/xlink" xmlns:xml="http://www.w3.org/XML/1998/namespace">
  <path fill="#2B1510" d="M121.434,19.292c1.43,1.441,2.101,2.432,2.101,2.432C122.945,20.755,122.22,19.961,121.434,19.292z
	 M143.377,90.963l6.726-16.438l-4.984-3.398l1.994-6.814l-12.985-5.954c1.398-13.324-2.247-29.715-22.05-42.363
	c0,0,5.494,0.012,9.355,3.297c-4.353-4.387-15.792-12.987-37.199-10.857c0,0,8.085-7.548,19.375-7.881
	c0,0-13.699-3.364-35.201,6.495c0,0-3.03-3.83-19.738-4.623c0,0,7.535,2.528,9.528,5.184c0,0-11.291-2.324-20.259-1.327
	c0,0,8.303,1.66,11.624,3.653c0,0-21.425,2.816-29.14,22c-3.13,7.785-3.625,17.276-3.107,25.807L2.99,64.313l1.994,6.814L0,74.525
	l6.725,16.438L3.238,75.272l1.866-3.732l6.85,23.408l11.313-2.02l4.609,24.964l45.596,26.204l45.012-27.241l-41.692,19.271
	l0.724-10.918c0,0-12.736-1.986-22.005-9.149c0,0,22.895,3.733,39.69-11.014c0,0-9.102,5.366-20.234,6.591l-11.451-5.612l8.811,2.58
	l11.357-8.176l-12.454,4.733l-10.709-3.487L64.83,61.57l1.108,16.616l5.292-5.154l14.944,8.967l-8.219-8.468l23.361,17.287
	l18.232-11.559l-11.956,5.23l12.703-14.695l1.094-5.207c0,0-13.298,0.724-29.736,6.204c-4.695,1.565-18.431-7.223-18.431-7.223
	l-0.45-16.138l2.195,8.665l1.992-7.472c0,0,2.74,5.48,8.967,7.721c0,0-4.234-6.725-3.986-10.461c0,0,3.487,6.974,5.23,7.223
	c0,0-1.992-5.23-0.996-7.72c0,0,14.584,3.179,20.99,11.303c0,0,1.924-6.571-1.314-14.043c0,0,4.732,4.732,4.483,9.215
	c0,0,1.744-4.234-0.747-8.718c0,0,12.701,9.062,17.915,21.183l-1.228,13.686L119.3,115.62l7.51-22.696l11.336,2.024l6.851-23.408
	l1.866,3.732L143.377,90.963z M12.702,92.457L4.982,65.06l10.46-4.483l-7.223,6.227L12.702,92.457z M70.235,137.786l-38.853-22.913
	l-5.479-34.121l9.962,32.627L70.235,137.786z M137.399,92.457l4.483-25.653l-7.223-6.227l10.462,4.483L137.399,92.457z
	 M94.893,118.965c18.613-5.972,20.734-22.961,20.38-28.002C115.273,90.963,112.593,107.842,94.893,118.965z" class="color c1"/>
  <circle fill="#70C1FF" cx="96.236" cy="75.102" r="3.053" class="color c2"/>
  <circle fill="#EA0006" cx="102.76" cy="81.626" r="3.054" class="color c3"/>
  <path fill="#FFFFFF" d="M49.201,74.891l-1.993-0.005l0.002-1.993c0.001-0.381-0.308-0.689-0.688-0.689l-1.879-0.005
	c-0.379,0-0.689,0.307-0.691,0.689l-0.002,1.994l-1.993-0.004c-0.381-0.001-0.691,0.309-0.692,0.688l-0.002,1.879
	c-0.001,0.381,0.307,0.69,0.689,0.691l1.993,0.003l-0.004,1.994c0,0.38,0.308,0.691,0.69,0.692l1.878,0.001
	c0.381,0,0.69-0.308,0.691-0.689l0.002-1.993l1.994,0.003c0.38,0.001,0.69-0.307,0.69-0.688l0.003-1.878
	C49.89,75.198,49.582,74.889,49.201,74.891z" class="color c4"/>
</svg>