<svg version="1.1" id="图层_1" x="0px" y="0px" width="175.104px" height="180px" viewBox="0 0 175.104 180" enable-background="new 0 0 175.104 180" xml:space="preserve" xmlns="http://www.w3.org/2000/svg" xmlns:xlink="http://www.w3.org/1999/xlink" xmlns:xml="http://www.w3.org/XML/1998/namespace">
  <path fill="#C00005" d="M127.659,147.518c-1.37,7.973-5.203,15.114-10.689,20.603c-3.543,3.601-7.816,6.471-12.552,8.438
	c-4.605,1.396-9.396,2.405-14.341,2.949c-2.95,0.311-5.977,0.493-9.031,0.493C36.292,180,1.115,143.7,0.03,98.958
	C-1.373,41.13,46.559,15.124,81.918,6.427c-0.416,0.59-0.697,1.321-1.219,1.835C70.054,18.749,42.179,50.116,42.179,66.499
	c0,17.604,6.516,40.056,16.042,53.333C72.818,140.229,100.716,147.335,127.659,147.518z M173.407,60.808
	c-1.25-3.82-3.196-7.476-5.862-10.78l0.013-0.011c-0.075-0.09-0.155-0.174-0.231-0.264c-0.068-0.083-0.133-0.169-0.201-0.252
	l-0.013,0.01c-2.794-3.201-6.05-5.755-9.594-7.652c-3.68-1.971-7.671-3.229-11.744-3.771c-5.147-0.685-10.426-0.172-15.434,1.494
	c-3.955,1.317-7.743,3.339-11.135,6.185l21.62,25.784h-0.001l0.252,0.301l21.799,26.001c3.389-2.847,6.041-6.222,8.028-9.89
	c2.514-4.636,3.941-9.746,4.165-14.935l0,0C175.251,68.922,174.702,64.775,173.407,60.808z" class="color c1"/>
  <path fill="#0C0B0B" d="M141.985,70.016l-2.66-0.673c-0.744-0.186-1.489-0.064-2.12,0.27c-0.359-0.966-1.098-1.788-2.127-2.208
	l-12.305-5.002c-0.217-0.819-0.639-1.595-1.296-2.225L105.418,44.78c-0.352-0.335-0.748-0.585-1.161-0.792
	c-0.054-0.038-0.104-0.082-0.157-0.119c-0.409-0.275-0.844-0.531-1.299-0.737c-1.045-0.504-2.188-0.786-3.434-0.786l-0.432-0.023
	l-13.3-0.226c-0.051,0-0.102,0-0.152,0.02c-0.51,0-1.02,0.027-1.5,0.126c-0.262,0.045-0.52,0.104-0.771,0.173L77.71,24.312
	c-0.011-0.037-0.032-0.068-0.043-0.104c0.021-0.069,0.043-0.139,0.043-0.216c0-0.302-0.184-0.562-0.444-0.677
	c-0.06-0.104-0.132-0.196-0.199-0.294l4.337-6.336c-1.045,2.032-0.749,4.493,0.729,6.215c-2.621,6.394,3.416,12.955,3.07,12.426
	c-0.107-0.167-0.35-0.91-0.481-1.89c0.9,3.794,3.349,6.629,6.548,7.04c4.338,0.552,8.457-3.553,9.514-9.294
	c1.041,2.481,0.443,3.728-0.969,4.792c0,0,3.58,0.096,3.58-3.928s-2.063-4.639-2.784-8.495c-0.093-0.498-0.213-0.956-0.351-1.381
	c1.381-1.474,2.212-3.325,2.212-5.342c0-4.792-4.646-8.678-10.375-8.678c-2.488,0-4.771,0.734-6.559,1.956
	c0.108-0.539,0.087-1.088-0.035-1.615c0.709-0.07,1.396-0.381,1.913-0.948l0.387-0.424c0.285,0.099,0.587,0.164,0.906,0.164h2.086
	c1.529,0,2.77-1.238,2.77-2.768c0-0.017-0.005-0.033-0.005-0.05c0.367-0.47,0.595-1.053,0.595-1.696c0-1.531-1.239-2.77-2.77-2.77
	H89.3c-0.631,0-1.206,0.219-1.672,0.574c-0.991-0.192-2.055,0.111-2.785,0.915l-1.844,2.021c-0.539,0.588-0.791,1.331-0.777,2.069
	c-1.354-0.149-2.745,0.416-3.568,1.619l-3.291,4.808c-20.43,13.977-49.758,31.726-48.23,75.537
	c1.559,44.728,36.259,81.041,81.014,81.041c2.976,0,5.953-0.183,8.824-0.465c5.486-5.487,9.319-12.63,10.689-20.603
	c-0.118,0-0.235-0.007-0.354-0.008c0.126-0.107,0.251-0.214,0.376-0.322c-0.491,0.121-0.989,0.215-1.491,0.299
	c-3.163-0.078-6.281-0.336-9.347-0.768c-3.618-1.222-6.697-3.449-8.998-6.331c4.748-7.104,7.729-17.355,7.729-28.754
	c0-12.78-3.749-24.118-9.534-31.198l-3.798-12.358l3.247-10.02l9.392,9.006c0.527,0.504,1.145,0.849,1.795,1.065
	c0.076,0.037,0.143,0.084,0.222,0.117l15.311,6.222c1.349,0.549,2.821,0.254,3.869-0.618c0.396,0.623,1.018,1.105,1.789,1.3
	l2.656,0.669c1.599,0.402,3.231-0.565,3.637-2.169C144.556,72.048,143.591,70.421,141.985,70.016z M47.163,66.473
	c0-10.97,11.273-27.634,21.242-41.275c-0.064,0.616-0.011,1.254,0.181,1.884l6.471,21.284c0.365,1.201,1.167,2.141,2.171,2.726
	l2.895,8.67l2.439,7.348l-5.391,14.286c-5.358,7.122-8.788,18.018-8.788,30.239c0,3.615,0.306,7.109,0.867,10.43
	c-2.505-2.655-4.838-5.479-6.97-8.455C52.755,100.33,47.163,84.077,47.163,66.473z" class="color c2"/>
</svg>