<svg version="1.1" id="图层_1" x="0px" y="0px" width="85.257px" height="170px" viewBox="0 0 85.257 170" enable-background="new 0 0 85.257 170" xml:space="preserve" xmlns="http://www.w3.org/2000/svg" xmlns:xlink="http://www.w3.org/1999/xlink" xmlns:xml="http://www.w3.org/XML/1998/namespace">
  <path fill="#0A0A0A" d="M85.14,124.041c-0.047-0.003-6.471,3.858-7.102,3.902c-1.42,0.107-0.76-1.738-1.686-2.098
	c-0.311-0.121-1.408,0.348-1.408,0.348s-1.73,0.832-2.32,0.537s-8.004-22.316-9.721-28.805c-0.209-0.79-0.451-1.643-0.723-2.535
	c0.115-0.213,0.219-0.411,0.299-0.586c0.301-0.596,0.582-1.505,0.631-2.475c0.219,0.514,0.453,0.959,0.725,0.883
	c0.563-0.154,0.365-1.44,0.25-2.523c-0.115-1.082-0.959-3.348-1.117-4.533c-0.096-0.727-0.654-1.839-1.111-2.668l0.994-1.416
	c0,0-1.92-6.301-2.924-8.986c-1.004-2.732-1.166-4.265-1.979-8.57c-0.846-4.259-1.197-5.699-0.846-8.986
	c0.344-3.287-3.689-22.816-3.945-25.224c-0.258-2.406-0.586-3.008-1.154-3.841c-0.527-0.833-1.803-1.579-3.387-2.412
	c-1.582-0.833-7.123-2.543-6.746-3.004c0.342-0.418,1.488-2.881,1.488-2.881s1.334-1.337,1.887-2.636
	c0.594-1.297,1.188-3.708,0.969-6.302c-0.221-2.546-1.195-5.872-3.863-7.956c-1.186-0.912-2.627-1.307-4.072-1.271
	c-1.86,0.047-3.735,0.807-5.128,2.058c-2.486,2.222-3.571,5.789-3.571,5.789s-0.4-0.463-0.903-0.323
	c-0.504,0.14-0.786,1.147-0.802,2.074l0.145-0.079c-0.015,0.925,0.009,4.662,0.009,4.662s-1.236,0.973-1.541,1.206
	c-0.269,0.231-0.352,1.171-0.346,1.493c0.013,0.372-0.563,1.156-0.829,1.48c-0.267,0.324-2.955,0.696-3.302,0.836
	c-0.347,0.14-2.365,0.695-3.565,1.155c-1.2,0.418-2.408,0.131-3.607,0.547c-1.2,0.416-6.691,2.879-8.246,3.297
	c-1.551,0.415-0.811,0.41-1.858,3.696C3.864,30.619,3.461,38.25,3.03,42.229c-0.906,3.544-2.023,8.038-2.223,9.611
	C0.472,54.493,0,58.109,0,58.109s1.06-2.651,1.071-2.25c0.124,4.957,0.179,12.325-0.378,17.042
	c-0.131,1.125-0.149,3.697-0.149,3.697l1.372-3.613c-0.006,0.88-0.016,1.463-0.031,1.547c-0.108,0.371-0.313,10.627-0.313,10.627
	s-0.226,0.837-0.324,1.624C1.151,87.57,0.89,92.492,0.89,92.492c0.791,2.258,1.52,4.656,3.851,7.246
	c0.71,0.232,2.604,2.516,2.911,2.238c0.345-0.279,0.223-0.285,0.216-0.563c-0.007-0.232-0.254-0.918-0.254-0.918l0.437,0.097
	c0,0,0.573-0.061,0.684-0.338c0.11-0.231-0.101-0.819-0.383-1.189c-0.321-0.37-1.03-1.029-1.03-1.029l1.351-0.226
	c0,0,0.509-0.24,0.499-0.656c0.03-0.371-0.208-0.639-0.564-0.871c-0.357-0.23-1.12-0.836-1.12-0.836s0.666-0.102,0.74-0.24
	c0.112-0.186,0.21-0.731-0.155-1.334c-0.367-0.603-1.577-0.691-1.898-1.063c-0.323-0.37-0.456-0.835-0.456-0.835
	s0.472-2.207,1.227-2.459c0.752-0.253,0.842,0.745,1.128,1.254s0.889,2.692,1.409,3.247c0.524,0.555,1.172,0.084,1.184-1.029
	c0.01-1.111-0.503-3.098-1.008-4.532c-0.508-1.436-1.212-2.878-1.212-2.878c-0.067-0.693-0.88-2.354-0.872-2.991
	c0.015-1.22,1.617-10.417,2.013-12.315c0.704-5.915,0.308-6.076,0.521-7.137c0.108-0.644,0.424-2.115,0.802-3.806l0.004-0.007
	v-0.005l0.002-0.002c0,0.012-0.043,4.383-0.073,4.903c-0.026,0.524,0.089,1.852,0.12,1.527c0.032-0.322,0.609-2.975,0.64-3.336
	c0.032-0.361,0.224-5.506,0.33-6.069c0.105-0.562,0.502-1.011,0.396-1.848c-0.01-0.069-0.074-0.248-0.184-0.514
	c0.167-0.704,0.316-1.319,0.427-1.777c0.603-2.408,0.666,0,0.666,0s1.904,4.583,1.895,5.788c-0.01,1.203-0.206,4.127-0.362,5.563
	c-0.161,1.435-0.654,3.651-1.55,5.272c-0.896,1.623-1.307,14.678-1.464,16.253c-0.051,0.517,0.565,0.873,1.41,1.147
	c0.414,0.135,0.61,0.647,0.61,0.647s0.343,2.108,0.854,0.285c0.063-0.221,0.158-0.032,0.158-0.032l0.696,2.625
	c0,0,0.278-2.906,0.407-2.878c0.934,0.205,1.64,0.406,1.58,0.698c0.268-0.194,0.039,15.522,0.448,29.656
	c-2.473,4.049-5.365,17.084-8.328,20.28c-0.831,0.867-2.787,5.766-3.231,6.694c-0.441,0.924-1.879,3.687-2.176,4.844
	c-0.298,1.159-0.533,2.57-0.628,3.258c-0.057,0.7-1.71,3.49-2.079,4.295c-0.357,0.759,0.379,1.207,1.162,1.951
	c0.783,0.746,1.677,1.952,2.37,2.722c0.66,0.759,0.502,1.991,1.118,3.546c0.612,1.561,6.657,3.645,7.748,3.52
	c1.049-0.136,3.126-1.271,3.053-2.727c-0.06-1.496-1.859-4.291-2.004-5.622c-0.132-1.373,0.05-2.704,0.05-2.704
	s0.745-2.424,0.883-3.438c0.138-1.012,1.129-2.309,2.541-4.014c1.402-1.662,3.351-6.838,4.704-9.564
	c0.04-0.053,0.082-0.107,0.12-0.159c0.403,1.622,0.822,3.043,0.856,2.927c0.076-0.242,1.189-0.724,1.638-2.011
	c0.45-1.284,0.26-2.491,0.473-3.536c0.216-1.045,1.355-3.696,1.355-3.696s0.827,0.962,1.083,1.528
	c0.256,0.563,0.212-4.342,0.212-4.342s1.568-6.301,2.175-7.749c0.944-2.254,0.946-13.187,2.317-16.624
	c0.369-2.269-0.961-3.666,0.093-6.768c1.053-3.148,1.902-11.109,1.902-11.109s0.849,1.439,1.528,3.568
	c0.678,2.129,6.41,14.178,7.266,17.186c0.093,0.324-0.24,2.677-0.24,2.677l2.125,3.292l2.35,7.086c0,0,0.502,14.984,0.5,14.994
	c-0.303,3.004,1.076,15.4,1.242,14.95c0.168-0.451,0.545-2.378,0.545-2.378l1.232,4.9c0,0,0.375-3.258,0.443-3.951
	c0.5,2.464,1.016,6.424,1.043,6.639c0.047,0.416,0.814,0.536,0.814,0.536s-0.221,3.472-1.08,5c-0.863,1.479-1.193,3.93-0.502,4.901
	c0.688,1.02,7.961,2.783,10.189,1.304c2.229-1.482,1.881-2.501,1.928-5.419c0.041-2.916-0.254-8.473-0.254-8.473l0.703-1.575
	c0,0-1.012-3.147-1.381-5.417c-0.371-2.27-0.305-4.578-0.391-7.959c-0.086-3.424-3.209-15.412-3.225-16.108
	c-0.016-0.692-0.078-3.292-0.352-6.302c-0.27-3.01-0.963-8.986-1.156-10.512c-0.195-1.527-0.098-0.879,0.004-1.48
	c0.1-0.603,0.068-1.35-0.338-2.09c-0.406-0.695-0.979-3.182-1.076-3.923c-0.133-0.694-1.217-6.946-1.217-6.946l0.004-0.004
	c-0.059-0.179-0.104-0.308-0.131-0.375c-0.271-0.645-0.701-2.934-0.824-3.415c-0.238-0.894-0.451-1.795-0.459-2.088
	c0.023-0.65,0.211-2.732,0.115-3.472l0.086,0.047c-0.059-0.694-0.037-1.528-0.037-1.528l0.178,0.091
	c0.102,0.25,0.213,0.509,0.324,0.779c0.287,0.705,0.666,1.804,1.107,3.166c-0.031,0.375-0.072,0.655-0.137,0.756
	c-0.037,0.062-0.098,0.157-0.166,0.28c0.021,0.149,0.031,0.331,0.031,0.552c-0.426,0.807-0.391,1.737,0.033,1.938
	c0.434,0.205,0.5,0.342,0.5,0.342s-0.225,0.85,0.1,1.447c0.322,0.598,1.074,1.079,1.074,1.079s-0.029,0.46,0.146,0.966
	c0.15,0.422,0.615,0.957,0.932,1.121c0.047,0.107,0.098,0.221,0.152,0.344c0.172,0.592,0.268,1.016,0.436,1.61
	c-0.004,0.038-0.203,0.063-0.236,0.348c-0.031,0.284,0.158,0.616,0.518,0.532c1.727,6.045,3.316,11.857,3.66,13.146
	c0.684,2.568,6.113,16.703,6.113,16.703s-1.916,1.016-4.119,0.752c-2.207-0.264-2.725-0.119-2.725-0.119s-0.627,0.545,0.592,4.279
	c1.221,3.734,1.66,4.852,1.973,5.33c0.309,0.475,0.453,0.436,0.516,0.392c0.063-0.043,3.881-2.458,7.758-3.81
	c3.875-1.35,6.436-2.409,8.121-4.426c1.684-2.013,3.604-5.679,3.596-5.818C85.255,124.031,85.191,124.047,85.14,124.041z" class="color c1"/>
</svg>