<svg version="1.1" id="图层_1" x="0px" y="0px" width="134.146px" height="150px" viewBox="0 0 134.146 150" enable-background="new 0 0 134.146 150" xml:space="preserve" xmlns="http://www.w3.org/2000/svg" xmlns:xlink="http://www.w3.org/1999/xlink" xmlns:xml="http://www.w3.org/XML/1998/namespace">
  <g>
    <rect x="31.01" y="86.678" transform="matrix(0.5755 -0.8178 0.8178 0.5755 -75.3745 72.2227)" fill="#FFFFFF" width="1.741" height="44.076" class="color c1"/>
    <path fill="#FFFFFF" d="M103.753,6.713c-3.081-2.234-6.381-4.113-9.497-5.326c-3.127-1.174-6.024-1.857-8.775-1.008
		c-0.999,0.328-1.956,0.949-2.642,1.842C77.827,8.647,51.25,40.299,42.981,51.657c-8.239,11.324-28.706,42.229-28.72,42.25
		l1.177,0.779l-0.026,0.041l33.846,23.803l2.139,1.613c0.014-0.025,22.317-29.635,30.231-41.18
		c7.948-11.592,28.913-47.207,33.296-54.082c1.082-1.697,1.004-3.709,0.426-5.365C113.756,15.04,109.096,10.67,103.753,6.713z" class="color c1"/>
    <path fill="#FFFFFF" d="M13.663,99.038l-0.746,1.35c0,0,3.657,7.988,2.052,14.225c-1.294,5.031-2.091,10.016-8.615,18.852
		c0,0,0.435,0.383,1.063,0.912L0,145.516l9.491,2.686l0.441-0.596l5.578-7.563l1.255,0.811c6.152-9.1,10.588-11.514,14.897-14.41
		c5.345-3.594,14.095-2.807,14.095-2.807l1.024-1.154L13.663,99.038z M8.555,145.465l-4.779-1.354l4.728-7.104l4,3.102
		L8.555,145.465z M19.523,118.387c-2.408,8.689-8.936,16.871-8.936,16.871l-2.206-1.711c3.849-4.35,8.964-15.904,9.359-19.867
		c0.513-5.174-1.489-11.441-1.489-11.441l2.944,2.076C19.194,104.315,22.197,108.713,19.523,118.387z" class="color c1"/>
    <polygon fill="#FFFFFF" points="134.146,150 9.489,148.198 11.002,145.963 134.097,145.569 	" class="color c1"/>
  </g>
</svg>