<svg version="1.1" id="图层_1" x="0px" y="0px" width="267.539px" height="88.896px" viewBox="0 0 267.539 88.896" enable-background="new 0 0 267.539 88.896" xml:space="preserve" xmlns:xml="http://www.w3.org/XML/1998/namespace" xmlns="http://www.w3.org/2000/svg" xmlns:xlink="http://www.w3.org/1999/xlink">
  <path fill="#6D6D6D" d="M215.441,85.325c0.238-0.475,0.149-1.002-0.256-1.566c-2.129-2.951-4.732-5.585-7.742-7.822
	c-4.744-3.529-10.232-5.914-15.979-6.932c1.029-0.211,2.058-0.416,3.076-0.615c2.601-0.515,5.289-1.045,7.91-1.678
	c2.842-0.688,5.438-1.488,7.813-2.404l0,0c0.098,1.145,1.184,2.1,2.834,2.49c1.881,0.447,3.769,0.823,5.666,1.13
	c7.689,1.241,15.488,1.327,23.254,0.248c0.222-0.028,0.42-0.146,0.558-0.32c0.313-0.403,0.405-0.896,0.264-1.381
	c-0.243-0.825-1.146-1.475-1.932-1.747l0,0c-6.048-2.117-12.392-3.292-18.851-3.496c-0.508-0.017-1.076-0.048-1.682-0.082
	c-1.059-0.063-2.221-0.125-3.373-0.125c3.066-1.889,5.557-4.092,7.496-6.639c3.307-4.337,5.029-9.758,6.551-14.537
	c0.09-0.272,0.033-0.57-0.146-0.793c-0.178-0.225-0.459-0.345-0.741-0.316c-10.14,0.914-19.08,9.91-19.931,20.053
	c-0.09,1.067-0.098,2.385,0.552,3.479c-2.595,1.08-5.501,2.005-8.732,2.784c-1.831,0.441-3.696,0.827-5.551,1.2
	c0.028-0.025,0.06-0.055,0.094-0.084c1.371-1.19,2.974-2.101,4.232-3.422c2.104-2.201,3.028-5.316,3.146-8.357
	c0.118-3.042-0.498-6.061-1.109-9.039c-0.516-2.499-1.027-4.996-1.543-7.494c-1.461-0.059-2.615,1.204-3.379,2.451
	c-1.818,2.975-2.66,6.443-3.133,9.898c-0.576,4.225-0.634,8.518-0.175,12.753c0.109,1.016,0.136,2.19,0.438,3.165
	c0.049,0.154,0.092,0.28,0.135,0.391c-0.33,0.064-0.666,0.136-0.994,0.197c-3.922,0.775-7.938,1.576-11.846,2.744
	c0.66-0.914,1.16-1.934,1.49-2.715c0.946-2.227,1.285-4.769,0.957-7.158c-0.771-5.574-4.504-9.981-7.5-12.701
	c-0.271-0.239-0.824-0.746-1.586-0.678c-0.593,0.055-1.362,0.439-1.674,1.957l-1.673,8.184c-0.338,1.647-0.688,3.354-0.649,5.111
	c0.049,2.271,1.463,6.761,3.896,8.947c0.459,0.412,0.936,0.718,1.422,0.938c-3.568,1.508-6.938,3.459-10.01,5.826
	c-1.904,1.464-4.596,3.775-5.982,6.906c-0.193,0.432,0.002,0.935,0.434,1.126c0.068,0.03,0.14,0.052,0.212,0.063
	c0.371,0.062,0.754-0.137,0.915-0.497c0.949-2.145,2.636-4.068,5.464-6.246c1.149-0.884,2.342-1.709,3.569-2.475
	c-0.049,0.104-0.094,0.211-0.129,0.329c-1.256,4.204,10.457,4.279,12.523,3.706c0.088-0.023,0.186-0.057,0.234-0.131
	c0.115-0.17-0.076-0.381-0.25-0.496c-1.23-0.816-7.372-4.664-10.615-4.439c1.533-0.855,3.115-1.625,4.746-2.29
	c1.822-0.745,3.704-1.362,5.613-1.901c-0.188,0.629-0.168,1.498,0.459,2.652c1.733,3.175,5.028,5.441,7.487,6.787
	c3.55,1.938,7.486,3.037,11.22,4.003c2.016,0.519,4.104,1.028,6.231,1.374c1.599,0.259,3.213,0.422,4.834,0.421
	C214.891,86.061,215.273,85.66,215.441,85.325z M228.277,40.742c-1.158,1.792-2.363,3.61-3.689,5.305
	c-0.743,0.953-1.545,1.894-2.318,2.796c-1.131,1.322-2.299,2.688-3.32,4.138c-0.475,0.671-0.95,1.378-1.438,2.098
	c-1.527,2.267-3.102,4.594-4.963,6.405c-0.063,0.027-0.117,0.06-0.18,0.089c-0.145-0.188-0.242-0.403-0.313-0.635
	c0.674-2.277,1.506-4.515,2.506-6.661c1.273-2.738,2.631-4.959,4.148-6.789c1.775-2.137,3.938-3.942,6.098-5.662
	C225.927,41.355,227.089,40.989,228.277,40.742z M229.018,40.603c-0.604,1.877-1.237,3.761-1.978,5.594
	c-4.058,4.601-8.086,9.295-12.008,13.996c-0.443,0.252-0.898,0.498-1.369,0.738c1.539-1.688,2.889-3.672,4.2-5.617
	c0.484-0.717,0.959-1.42,1.431-2.09c1.013-1.432,2.174-2.789,3.297-4.104c0.777-0.909,1.582-1.851,2.334-2.811
	c1.42-1.817,2.697-3.771,3.935-5.679C228.912,40.624,228.962,40.612,229.018,40.603z M213.494,65.138
	c-1.018-0.242-1.508-0.719-1.529-0.979c-0.004-0.036,0.018-0.082,0.035-0.127c7.309,0.186,14.662,0.889,21.865,2.102l0.396,0.066
	c1.68,0.283,3.399,0.566,5.108,0.563C230.701,67.692,222.005,67.157,213.494,65.138z M220.277,62.851
	c0.621,0.037,1.205,0.068,1.727,0.086c2.666,0.084,5.313,0.338,7.922,0.76c3.512,0.566,6.957,1.438,10.313,2.604
	c-1.956,0.136-3.956-0.194-5.907-0.521l-0.396-0.067c-7.097-1.19-14.336-1.893-21.535-2.096c0.149-0.104,0.33-0.213,0.57-0.316
	C214.766,62.532,217.822,62.71,220.277,62.851z M223.141,53.351c-1.804,2.363-4.138,4.42-7.007,6.189
	c3.408-4.065,6.89-8.126,10.396-12.117C225.615,49.52,224.529,51.528,223.141,53.351z M223.189,42.586
	c-1.713,1.411-3.381,2.909-4.81,4.626c-1.541,1.859-2.918,4.11-4.209,6.881c-0.885,1.906-1.639,3.881-2.272,5.889
	c-0.015-0.357,0.006-0.717,0.033-1.047C212.505,52.073,217.095,45.786,223.189,42.586z M186.682,70.517
	c8.477,2.201,16.715,5.841,24.071,10.625c0.285,0.293,0.563,0.586,0.832,0.888c-1.299-0.346-2.558-0.597-3.785-0.838
	c-1.899-0.374-3.866-0.759-5.948-1.508c-4.312-1.55-8.769-3.149-12.867-5.362c-1.504-0.813-2.551-2.094-2.973-3.586
	C186.201,70.647,186.43,70.576,186.682,70.517z M209.289,79.71c-6.666-4.104-13.986-7.288-21.516-9.348
	c0.51-0.03,1.063-0.021,1.623,0.052c0.396,0.051,0.793,0.108,1.188,0.172c5.694,0.92,11.146,3.23,15.836,6.722
	C207.434,78.058,208.376,78.869,209.289,79.71z M179.229,59.932c0.052,2.167-0.439,4.337-0.916,6.436
	c-0.229,1.014-0.465,2.055-0.646,3.099c-1.244-2.669-1.646-5.646-1.873-8.239c-0.383-4.402-0.342-8.86,0.121-13.259
	C178.027,50.901,179.111,54.822,179.229,59.932z M179.656,59.921c-0.104-4.494-0.961-8.08-2.584-10.914
	c0.879,0.866,1.785,1.871,2.627,2.998c1.984,5.801,1.568,12.469-1.085,17.996c-0.19-0.013-0.382-0.049-0.571-0.108
	c0.18-1.149,0.432-2.309,0.688-3.431C179.208,64.338,179.708,62.142,179.656,59.921z M183.119,59.817
	c0.289,2.086-0.01,4.309-0.834,6.258c-0.967,2.271-2.145,3.704-3.186,3.904c2.424-5.188,2.93-11.323,1.395-16.841
	C181.764,55.083,182.777,57.329,183.119,59.817z M173.438,61.421c-0.032-1.568,0.295-3.179,0.612-4.732l1.197-5.848
	c-0.22,3.472-0.181,6.962,0.121,10.424c0.226,2.578,0.633,5.531,1.851,8.219c-0.152-0.104-0.302-0.214-0.451-0.35
	C174.768,67.336,173.479,63.431,173.438,61.421z M203.367,82.609c-3.627-0.937-7.451-2.005-10.826-3.847
	c-2.261-1.234-5.273-3.297-6.809-6.107c-0.26-0.479-0.515-1.129-0.243-1.523c0.036-0.055,0.097-0.104,0.151-0.15
	c0.475,1.547,1.577,2.874,3.143,3.719c4.127,2.227,8.6,3.834,12.926,5.388c2.111,0.762,4.094,1.147,6.011,1.523
	c1.419,0.278,2.872,0.563,4.386,1.003c0.484,0.566,0.953,1.14,1.396,1.733C210.093,84.274,206.759,83.485,203.367,82.609z
	 M234.634,48.552c-1.309-0.64-3.096-0.637-4.155,0.006c-1.371,0.824-2.063,2.529-1.646,4.055c0.357,1.311,1.537,2.314,2.852,2.529
	c0.238,0.036,0.48,0.051,0.728,0.031c1.278-0.092,2.508-0.931,3.284-2.245c0.47-0.789,0.662-1.558,0.574-2.276
	C236.162,49.758,235.58,49.012,234.634,48.552z M234.227,52.058c-0.383,0.643-1.093,1.352-1.938,1.41
	c-0.783,0.061-1.599-0.529-1.81-1.31c-0.213-0.775,0.174-1.716,0.881-2.144l0,0c0.351-0.211,1.031-0.292,1.695-0.187
	c0.289,0.047,0.574,0.129,0.83,0.255c0.418,0.203,0.65,0.463,0.688,0.771C234.625,51.276,234.414,51.742,234.227,52.058z
	 M237.908,61.435c0.506,0.603,1.242,0.994,2.037,1.123c0.486,0.076,0.996,0.059,1.484-0.071c0.459-0.12,0.852-0.319,1.168-0.589
	c0.692-0.594,1.041-1.576,0.903-2.566c-0.168-1.222-0.785-2.184-1.69-2.641c-0.892-0.448-1.963-0.383-3.019,0.188l0,0
	c-0.39,0.213-0.713,0.477-0.963,0.776C236.969,58.7,237.003,60.359,237.908,61.435z M239.148,58.743
	c0.108-0.134,0.266-0.256,0.463-0.364c0.547-0.296,1.055-0.354,1.43-0.165c0.398,0.201,0.682,0.693,0.771,1.352
	c0.058,0.407-0.072,0.824-0.319,1.035c-0.119,0.102-0.289,0.184-0.496,0.235c-0.654,0.171-1.39-0.03-1.779-0.5
	C238.835,59.885,238.805,59.157,239.148,58.743z M241.864,48.687c-0.007-0.229,0.062-0.453,0.166-0.656
	c0.673-1.303,3.485-1.579,3.243,0.362c-0.063,0.495-0.183,0.999-0.472,1.405c-0.29,0.406-0.782,0.699-1.276,0.639
	c-0.383-0.049-0.711-0.294-0.992-0.561C242.193,49.558,241.876,49.155,241.864,48.687z M61.209,87.884
	c1.581,0.057,3.165-0.049,4.732-0.248c2.088-0.262,4.146-0.689,6.131-1.129c3.676-0.812,7.557-1.754,11.087-3.522
	c2.446-1.229,5.74-3.329,7.54-6.368c0.653-1.105,0.703-1.953,0.54-2.574c1.845,0.593,3.661,1.258,5.415,2.049
	c1.569,0.704,3.087,1.51,4.556,2.396c-3.159-0.329-9.286,3.216-10.516,3.973c-0.172,0.106-0.368,0.308-0.261,0.477
	c0.048,0.075,0.14,0.108,0.226,0.137c1.999,0.63,13.434,0.956,12.352-3.189c-0.031-0.115-0.07-0.224-0.115-0.324
	c1.173,0.789,2.309,1.633,3.401,2.535c2.686,2.223,4.266,4.16,5.119,6.283c0.146,0.358,0.513,0.563,0.878,0.518
	c0.069-0.01,0.139-0.027,0.208-0.057c0.428-0.172,0.635-0.654,0.462-1.085c-1.249-3.103-3.796-5.449-5.604-6.942
	c-2.921-2.415-6.142-4.438-9.573-6.028c0.482-0.198,0.957-0.479,1.419-0.866c2.45-2.052,3.983-6.388,4.108-8.601
	c0.097-1.717-0.186-3.395-0.459-5.015l-1.353-8.045c-0.253-1.49-0.991-1.894-1.567-1.967c-0.74-0.094-1.301,0.381-1.571,0.608
	c-3.018,2.55-6.813,6.726-7.754,12.142c-0.402,2.32-0.158,4.813,0.688,7.021c0.298,0.771,0.751,1.785,1.362,2.698
	c-3.773-1.271-7.665-2.19-11.468-3.082c-0.318-0.071-0.645-0.151-0.965-0.229c0.046-0.104,0.094-0.226,0.146-0.374
	c0.331-0.941,0.396-2.089,0.536-3.075c0.594-4.119,0.685-8.313,0.267-12.453c-0.345-3.389-1.046-6.807-2.721-9.771
	c-0.702-1.243-1.788-2.514-3.216-2.508c-0.588,2.42-1.173,4.842-1.762,7.262c-0.697,2.889-1.402,5.813-1.391,8.785
	c0.009,2.974,0.805,6.047,2.783,8.269c1.186,1.333,2.719,2.273,4.016,3.484c0.032,0.029,0.06,0.057,0.09,0.085
	c-1.797-0.427-3.606-0.868-5.379-1.361c-3.127-0.873-5.934-1.875-8.429-3.018c0.669-1.044,0.708-2.33,0.656-3.375
	c-0.483-9.932-8.904-19.018-18.769-20.253c-0.277-0.036-0.555,0.069-0.736,0.28c-0.184,0.215-0.246,0.501-0.171,0.771
	c1.32,4.72,2.819,10.069,5.898,14.416c1.808,2.55,4.161,4.787,7.09,6.734c-1.125-0.041-2.262-0.02-3.295,0.006
	c-0.592,0.013-1.148,0.023-1.645,0.021c-6.313-0.021-12.544,0.909-18.52,2.771l0,0c-0.776,0.24-1.677,0.841-1.944,1.64
	c-0.155,0.47-0.081,0.951,0.211,1.356c0.126,0.176,0.317,0.296,0.531,0.333c7.543,1.317,15.159,1.501,22.709,0.552
	c1.861-0.234,3.717-0.537,5.567-0.91c1.626-0.326,2.718-1.221,2.852-2.336l0,0c2.288,0.975,4.795,1.848,7.545,2.615
	c2.537,0.707,5.144,1.314,7.664,1.904c0.989,0.23,1.983,0.469,2.982,0.707c-5.643,0.797-11.083,2.938-15.833,6.221
	c-3.015,2.084-5.647,4.563-7.826,7.373c-0.417,0.537-0.519,1.049-0.303,1.521C59.985,87.45,60.346,87.853,61.209,87.884z
	 M52.177,44.337c2.047,1.75,4.096,3.586,5.755,5.733c1.422,1.837,2.67,4.052,3.82,6.769c0.902,2.131,1.639,4.343,2.219,6.588
	c-0.077,0.225-0.182,0.434-0.327,0.608c-0.059-0.03-0.113-0.063-0.172-0.093c-1.756-1.832-3.213-4.157-4.627-6.422
	c-0.45-0.722-0.89-1.428-1.331-2.1c-0.947-1.444-2.04-2.818-3.099-4.146c-0.726-0.91-1.477-1.854-2.171-2.811
	c-1.236-1.697-2.35-3.516-3.419-5.305C49.976,43.444,51.098,43.841,52.177,44.337z M48.26,43.035
	c1.142,1.905,2.322,3.854,3.647,5.677c0.699,0.963,1.453,1.908,2.182,2.822c1.052,1.32,2.14,2.688,3.077,4.117
	c0.438,0.67,0.878,1.373,1.325,2.089c1.216,1.946,2.463,3.928,3.909,5.626c-0.452-0.25-0.887-0.507-1.312-0.767
	c-3.668-4.725-7.44-9.442-11.244-14.071c-0.658-1.815-1.214-3.676-1.738-5.528C48.159,43.01,48.21,43.024,48.26,43.035z
	 M37.107,68.181c1.67,0.063,3.358-0.154,5.008-0.373l0.391-0.055c7.071-0.938,14.273-1.372,21.413-1.305
	c0.018,0.045,0.035,0.091,0.031,0.126c-0.03,0.254-0.524,0.701-1.525,0.902C54.045,69.159,45.541,69.385,37.107,68.181z
	 M62.997,65.702c0.231,0.109,0.402,0.221,0.547,0.328c-7.036-0.047-14.126,0.39-21.092,1.313l-0.391,0.054
	c-1.915,0.252-3.88,0.507-5.784,0.309c3.316-1.023,6.712-1.759,10.156-2.19c2.563-0.323,5.154-0.48,7.761-0.473
	c0.509,0.002,1.077-0.01,1.686-0.023C58.282,64.961,61.271,64.893,62.997,65.702z M50.301,49.743
	c3.288,4.017,6.548,8.096,9.735,12.184c-2.741-1.825-4.948-3.91-6.629-6.281C52.116,53.817,51.125,51.819,50.301,49.743z
	 M64.16,61.476c0.016,0.321,0.023,0.675-0.004,1.021c-0.55-1.979-1.22-3.933-2.018-5.823c-1.165-2.748-2.434-4.991-3.874-6.857
	c-1.336-1.729-2.913-3.245-4.536-4.682C59.568,48.466,63.833,54.76,64.16,61.476z M89.057,73.88
	c-0.462,1.442-1.528,2.658-3.022,3.399c-4.078,2.021-8.482,3.432-12.742,4.796c-2.061,0.659-3.992,0.968-5.861,1.268
	c-1.206,0.193-2.442,0.396-3.723,0.689c0.273-0.285,0.555-0.563,0.842-0.838c7.346-4.42,15.513-7.689,23.861-9.551
	C88.656,73.71,88.876,73.788,89.057,73.88z M68.91,79.599c4.697-3.248,10.099-5.316,15.688-6.021
	c0.39-0.049,0.777-0.091,1.169-0.127c0.55-0.05,1.089-0.042,1.585,0.005c-7.418,1.753-14.673,4.611-21.32,8.392
	C66.949,81.057,67.898,80.296,68.91,79.599z M99.688,52.001c0.302,4.309,0.19,8.66-0.334,12.943
	c-0.309,2.524-0.804,5.418-2.109,7.98c-0.138-1.024-0.333-2.051-0.522-3.047c-0.394-2.063-0.799-4.201-0.675-6.313
	C96.335,58.583,97.527,54.792,99.688,52.001z M96.312,69.957c0.211,1.104,0.419,2.242,0.554,3.37
	c-0.188,0.055-0.375,0.082-0.563,0.089c-2.401-5.489-2.58-12.011-0.444-17.604c0.86-1.071,1.778-2.021,2.666-2.837
	c-1.682,2.711-2.641,6.183-2.895,10.563C95.504,65.706,95.916,67.868,96.312,69.957z M95.042,56.892
	c-1.686,5.334-1.4,11.342,0.788,16.484c-1.01-0.229-2.111-1.668-2.976-3.92c-0.739-1.93-0.953-4.107-0.602-6.136
	C92.673,60.905,93.739,58.746,95.042,56.892z M98.136,72.632c-0.153,0.127-0.301,0.229-0.453,0.324
	c1.279-2.58,1.778-5.448,2.085-7.96c0.411-3.366,0.571-6.771,0.476-10.169l0.968,5.748c0.258,1.529,0.523,3.111,0.438,4.643
	C101.541,67.177,100.15,70.945,98.136,72.632z M61.761,86.228c0.453-0.564,0.93-1.109,1.422-1.646
	c1.49-0.375,2.92-0.604,4.314-0.829c1.886-0.302,3.831-0.61,5.92-1.279c4.275-1.37,8.695-2.784,12.802-4.819
	c1.555-0.771,2.677-2.027,3.192-3.521c0.053,0.051,0.108,0.101,0.143,0.152c0.252,0.396-0.02,1.023-0.29,1.48
	c-1.592,2.689-4.604,4.6-6.852,5.729c-3.359,1.684-7.128,2.597-10.699,3.386C68.371,85.617,65.089,86.274,61.761,86.228z
	 M40.686,52.56c-0.109,0.699,0.053,1.455,0.484,2.241c0.713,1.312,1.884,2.173,3.129,2.306c0.238,0.023,0.477,0.021,0.712-0.008
	c1.288-0.162,2.474-1.104,2.866-2.371c0.46-1.475-0.157-3.162-1.468-4.016c-1.014-0.662-2.758-0.727-4.056-0.146
	C41.416,50.985,40.821,51.692,40.686,52.56z M42.333,52.819c0.047-0.299,0.282-0.544,0.696-0.729
	c0.254-0.112,0.536-0.185,0.821-0.221c0.652-0.082,1.314,0.021,1.647,0.238l0,0c0.677,0.44,1.022,1.372,0.787,2.122
	c-0.233,0.753-1.048,1.301-1.809,1.217c-0.825-0.088-1.494-0.805-1.844-1.445C42.461,53.688,42.271,53.228,42.333,52.819z
	 M38.923,59.344c-0.232-0.303-0.541-0.566-0.913-0.787c0-0.001,0-0.001,0-0.001c-1.012-0.597-2.054-0.694-2.939-0.288
	c-0.9,0.416-1.534,1.333-1.74,2.52c-0.168,0.962,0.139,1.936,0.794,2.537c0.301,0.273,0.677,0.48,1.121,0.613
	c0.473,0.145,0.969,0.182,1.445,0.121c0.779-0.101,1.515-0.456,2.028-1.026C39.638,62.013,39.728,60.394,38.923,59.344z
	 M37.48,61.914c-0.398,0.442-1.12,0.616-1.754,0.428c-0.199-0.061-0.363-0.146-0.475-0.249c-0.235-0.215-0.348-0.626-0.278-1.021
	c0.109-0.637,0.4-1.108,0.797-1.291c0.373-0.174,0.868-0.098,1.391,0.21c0.189,0.111,0.336,0.237,0.44,0.371
	C37.92,60.776,37.866,61.487,37.48,61.914z M34.598,51.593c-0.283,0.249-0.612,0.479-0.988,0.513
	c-0.484,0.044-0.955-0.261-1.225-0.665c-0.269-0.407-0.368-0.903-0.412-1.391c-0.17-1.901,2.567-1.536,3.18-0.241
	c0.095,0.199,0.154,0.425,0.14,0.646C35.263,50.909,34.941,51.291,34.598,51.593z M250.096,79.71
	c-0.345-0.814-0.354-1.618-0.029-2.26c0.184-0.365,0.457-0.637,0.646-0.807c1.086-0.982,2.728-1.725,4.074-0.852
	c0.002,0,0.002,0.001,0.002,0.001c0.39,0.253,0.735,0.615,1.063,1.108c0.694,1.047,0.862,2.146,0.465,3.017
	c-0.187,0.409-0.502,0.774-0.961,1.12c-0.713,0.532-1.519,0.816-2.279,0.816c-0.186,0-0.369-0.02-0.547-0.055
	C251.494,81.606,250.561,80.804,250.096,79.71z M252.05,70.601c0.144,0.03,0.289,0.047,0.438,0.047c0.676,0,1.363-0.332,1.873-0.926
	c0.693-0.811,0.938-1.913,0.641-2.887c-0.301-0.975-1.035-1.643-1.963-1.791c-0.938-0.15-1.895,0.279-2.488,1.119
	c-0.162,0.229-0.281,0.484-0.396,0.744c-0.095,0.21-0.222,0.496-0.234,0.842c-0.016,0.408,0.125,0.744,0.259,1.027
	C250.492,69.45,251.029,70.369,252.05,70.601z M251.561,67.53c0.071-0.162,0.143-0.33,0.244-0.479
	c0.229-0.315,0.54-0.496,0.856-0.496c0.043,0,0.09,0.003,0.133,0.01c0.342,0.055,0.606,0.317,0.733,0.725
	c0.144,0.465,0.013,1.023-0.334,1.427c-0.239,0.278-0.569,0.431-0.807,0.385c-0.27-0.063-0.545-0.391-0.816-0.976
	c-0.028-0.062-0.116-0.248-0.114-0.313C251.458,67.76,251.521,67.622,251.561,67.53z M265.027,74.15
	c0.051,0,0.096-0.002,0.139-0.002c0.441-0.005,1.479-0.018,2.037-0.813c0.195-0.283,0.305-0.625,0.33-1.047
	c0.041-0.68-0.148-1.303-0.535-1.75c-0.48-0.562-1.172-0.801-1.895-0.658c-0.879,0.176-1.691,0.899-1.979,1.765
	c-0.265,0.798-0.063,1.643,0.504,2.101C264.087,74.114,264.643,74.15,265.027,74.15z M264.585,72.128
	c0.112-0.338,0.479-0.669,0.815-0.732c0.039-0.009,0.074-0.015,0.109-0.015c0.123,0,0.223,0.054,0.318,0.163
	c0.121,0.143,0.183,0.379,0.164,0.653c-0.01,0.179-0.045,0.241-0.057,0.255c-0.037,0.057-0.193,0.148-0.793,0.158
	c-0.127-0.004-0.467,0.005-0.55-0.063C264.563,72.519,264.516,72.342,264.585,72.128z M228.766,79.554
	c0.385-0.789,0.985-1.43,1.467-1.895c1.069-1.037,2.229-1.89,3.449-2.534c3.032-1.603,6.459-1.957,9.771-2.298
	c1.748-0.181,3.555-0.366,5.26-0.736c0.334-0.067,0.681,0.088,0.845,0.393c0.159,0.304,0.1,0.68-0.148,0.917
	c-1.102,1.057-2.088,2.309-3.039,3.519c-1.518,1.922-3.082,3.911-5.213,5.291c-1.1,0.711-2.406,1.295-4.004,1.785
	c-2.254,0.693-5.148,1.448-7.537,1.104c-0.293-0.042-0.537-0.128-0.736-0.238c-0.379-0.208-0.604-0.503-0.736-0.756
	C227.371,82.655,228.423,80.255,228.766,79.554z M15.008,83.296c-0.178,0.035-0.361,0.055-0.547,0.055
	c-0.763,0-1.567-0.285-2.279-0.816c-0.46-0.346-0.775-0.712-0.962-1.121c-0.397-0.867-0.229-1.969,0.466-3.016
	c0.326-0.493,0.674-0.855,1.063-1.108c0,0,0-0.001,0.001-0.001c1.348-0.873,2.988-0.133,4.074,0.851
	c0.19,0.171,0.464,0.44,0.647,0.808c0.325,0.642,0.313,1.44-0.03,2.259C16.978,82.296,16.045,83.099,15.008,83.296z M17.361,70.271
	c0.134-0.283,0.273-0.62,0.258-1.027c-0.013-0.346-0.14-0.633-0.233-0.842c-0.114-0.26-0.234-0.515-0.396-0.744
	c-0.595-0.841-1.55-1.271-2.488-1.119c-0.928,0.148-1.662,0.816-1.963,1.791c-0.3,0.971-0.055,2.076,0.639,2.884
	c0.511,0.597,1.199,0.928,1.875,0.928c0.146,0,0.293-0.017,0.438-0.048C16.509,71.86,17.046,70.942,17.361,70.271z M16.081,69.305
	c0.002,0.063-0.085,0.252-0.114,0.313c-0.273,0.585-0.549,0.911-0.816,0.974c-0.235,0.048-0.567-0.104-0.807-0.384
	c-0.346-0.4-0.478-0.961-0.334-1.426c0.126-0.405,0.393-0.67,0.734-0.725c0.044-0.009,0.09-0.012,0.132-0.012
	c0.317,0,0.63,0.182,0.857,0.498c0.103,0.146,0.173,0.314,0.245,0.479C16.017,69.114,16.079,69.253,16.081,69.305z M3.909,75.237
	c0.566-0.458,0.768-1.303,0.504-2.103c-0.285-0.861-1.099-1.589-1.977-1.763c-0.723-0.144-1.414,0.096-1.896,0.658
	c-0.387,0.447-0.576,1.069-0.535,1.75c0.025,0.422,0.135,0.764,0.332,1.047c0.557,0.796,1.593,0.807,2.036,0.813
	c0.042,0,0.089,0.003,0.138,0.003C2.896,75.643,3.451,75.606,3.909,75.237z M2.941,74.04c-0.083,0.067-0.422,0.061-0.549,0.063
	c-0.6-0.012-0.755-0.104-0.794-0.158c-0.011-0.014-0.046-0.076-0.056-0.255c-0.018-0.274,0.043-0.515,0.164-0.653
	c0.097-0.111,0.195-0.163,0.32-0.163c0.034,0,0.069,0.005,0.109,0.015c0.337,0.063,0.703,0.396,0.816,0.732
	C3.022,73.834,2.976,74.01,2.941,74.04z M39.398,85.597c-0.133,0.254-0.359,0.549-0.737,0.758c-0.199,0.107-0.444,0.193-0.737,0.236
	c-2.389,0.346-5.284-0.41-7.538-1.104c-1.596-0.491-2.904-1.074-4.003-1.785c-2.131-1.379-3.696-3.369-5.213-5.291
	c-0.951-1.21-1.938-2.463-3.039-3.519c-0.248-0.237-0.309-0.613-0.148-0.917c0.163-0.307,0.509-0.461,0.844-0.393
	c1.705,0.369,3.512,0.557,5.26,0.736c3.312,0.341,6.737,0.695,9.771,2.298c1.22,0.646,2.379,1.497,3.449,2.534
	c0.479,0.465,1.081,1.104,1.467,1.894C39.114,81.747,40.167,84.147,39.398,85.597z M102.74,36.914
	c1.041-3.003,1.158-7.349,0.291-10.813c-0.46-1.833-1.269-3.104-2.403-3.778c-0.609-0.361-1.231-0.361-1.667-0.002
	c-0.259,0.21-0.363,0.481-0.426,0.646c-1.439,3.811-0.936,8.273,1.311,11.658l0.41,0.604c0.408,0.596,0.794,1.156,1.097,1.771
	c0.133,0.273,0.418,0.439,0.722,0.421c0.029-0.002,0.057-0.007,0.086-0.011C102.425,37.361,102.649,37.173,102.74,36.914z
	 M101.759,34.754c-0.088-0.128-0.175-0.253-0.26-0.38l-0.396-0.583c-1.959-2.948-2.417-6.825-1.213-10.15
	c0.759,0.468,1.324,1.418,1.676,2.824c0,0,0,0,0,0.001C102.208,29.024,102.261,32.201,101.759,34.754z M96.226,29.096
	c-1.049-2.882-3.018-5.063-5.404-5.99c-0.161-0.063-0.541-0.204-0.959-0.065c-0.336,0.115-0.753,0.426-0.837,1.254
	c-0.236,2.366,0.511,4.929,2.109,7.213c1.508,2.16,3.188,4.221,4.761,3.938c0.042-0.006,0.084-0.016,0.127-0.027
	c0.422-0.107,0.756-0.379,0.963-0.775C97.494,33.675,97.253,31.913,96.226,29.096z M95.636,33.965
	c-0.078,0.012-0.867,0.114-3.195-3.222c-1.42-2.032-2.079-4.168-1.93-6.128c1.915,0.859,3.445,2.652,4.301,4.996
	C96.169,33.348,95.642,33.958,95.636,33.965z M82.231,34.267c-0.106,0.42-0.053,0.881,0.158,1.374
	c0.477,1.105,1.483,1.987,3.079,2.696c0.52,0.23,5.152,1.75,7.845,1.271c0.478-0.085,0.892-0.231,1.212-0.461
	c0.15-0.105,0.275-0.229,0.384-0.363c0.054,0.017,0.103,0.039,0.16,0.042c1.954,0.091,3.917,0.288,5.868,0.582
	c-1.501,1.532-0.715,6.21-0.707,6.258l0.001,0.001c0.177,1.018,0.396,2.046,0.648,3.061c0.364,1.438,1.225,1.585,1.577,1.581
	c0.073-0.001,0.146-0.01,0.219-0.021c0.461-0.082,0.867-0.41,1.138-0.926c0.365-0.695,0.415-1.466,0.455-2.084l0.032-0.43
	c0.222-2.826,0.281-5.537-0.523-6.941c4.784,0.96,9.477,2.512,13.876,4.604c2.905,1.387,5.168,2.748,7.118,4.297
	c6.92,5.486,11.284,13.045,12.303,21.281c-0.938,5.897-0.996,11.139-0.162,15.893c0.043,0.238,0.199,0.422,0.4,0.525
	c0.131,0.158,0.317,0.27,0.539,0.279c0.059,0.004,0.114-0.001,0.172-0.011c0.338-0.063,0.602-0.345,0.619-0.702
	c0.235-4.369,2.703-8.806,7.328-13.188c1.52-1.438,3.17-2.805,4.764-4.127c2.277-1.888,4.625-3.838,6.686-6.061
	c0.207-0.052,0.426-0.099,0.648-0.142c0.016-0.001,0.031-0.007,0.051-0.012c0.699-0.13,1.361-0.228,1.908-0.421
	c1.479-0.521,3.199-1.197,4.764-2.217c0.67-0.438,1.496-1.06,1.959-1.993c0.537-1.083,0.386-2.369-0.369-3.128
	c-1.102-1.105-2.83-0.748-4.086-0.043c-1.861,1.049-3.348,2.655-4.271,4.578c0.496-1.758,0.863-4.503-0.773-6.539
	c-0.525-0.654-1.146-1.007-1.791-1.021c-0.559-0.012-1.619,0.241-2.334,2.054c-1.287,3.264-1.65,6.857-0.971,9.619
	c0.135,0.547,0.338,1.152,0.707,1.553c-0.467,0.407-0.937,0.811-1.404,1.208c0.133-1.192-0.078-2.499-0.283-3.767
	c-0.076-0.483-0.156-0.955-0.207-1.4c-0.207-1.813-1.111-2.2-1.633-2.271c-1.073-0.142-1.848,0.832-2.1,1.805
	c-0.354,1.365-0.047,3.738,1.065,5.188c0.591,0.768,1.341,1.195,2.183,1.261c-0.238,0.195-0.473,0.395-0.709,0.589
	c-1.611,1.337-3.281,2.721-4.836,4.189c-3.508,3.322-5.842,6.705-6.986,10.105c-0.357-5.02,0.184-10.592,1.663-16.93
	c0.271-1.158,0.563-2.317,0.856-3.479c0.668-2.646,1.35-5.349,1.767-8.091c4.255-7.892,11.39-12.167,18.942-16.694
	c1.385-0.83,2.788-1.676,4.19-2.55c0.25-0.104,0.517-0.251,0.797-0.479c2.164-1.703,2.297-6.605,2.164-8.353
	c0-0.001,0-0.001,0-0.001c-0.049-0.668-0.207-1.62-0.967-2.173c-1.104-0.805-2.578-0.188-3.464,0.834
	c-1.17,1.354-1.811,3.29-1.799,5.443c0.004,0.785,0.105,3.135,1.127,4.271c-0.668,0.409-1.336,0.813-2,1.214
	c0.113-0.502,0.146-1.131,0.092-1.91l0,0c-0.11-1.523-0.391-2.705-0.881-3.716c-0.649-1.34-1.678-2.335-2.893-2.8
	c-0.211-0.079-0.463-0.156-0.76-0.124c-0.793,0.07-1.314,0.839-1.309,1.89c0.021,2.407,1.096,5.275,2.604,6.973
	c0.187,0.208,0.599,0.661,1.115,0.906c-6.378,3.834-12.371,7.643-16.597,13.773c0.029-0.604,0.047-1.207,0.041-1.813
	c-0.074-6.585-2.641-12.84-4.944-17.637c3.928-1.629,6.887-5.731,8.235-8.781c0.172-0.387,0.629-1.414,0.129-2.314
	c-0.172-0.313-0.526-0.458-0.881-0.355c-2.819,0.865-5.319,2.804-6.858,5.316c-0.949,1.553-1.531,2.801-1.781,3.805
	c-1.147-2.254-2.37-4.477-3.666-6.654c1.455-0.428,3.123-2.354,4.988-4.639c0.42-0.516,0.789-0.967,1.069-1.271
	c0.316-0.349,0.711-0.776,0.939-1.349c0.291-0.737,0.197-1.527-0.242-2.064c-0.557-0.675-1.549-0.856-2.664-0.503
	c-1.749,0.566-3.308,1.933-4.388,3.841c-0.001,0.002-0.001,0.002-0.001,0.002c-0.321,0.572-1.043,1.932-1.405,3.222
	c-0.586-0.926-1.186-1.843-1.798-2.751c0.944-0.205,1.688-1.141,1.976-1.504c1.688-2.141,2.556-5.428,3.063-7.716
	c0.179-0.813,0.307-1.684,0.029-2.536c-0.299-0.934-1.242-1.854-2.403-1.719c-0.043,0.005-0.085,0.012-0.127,0.02
	c-1.153,0.205-1.748,1.318-2.095,2.15c-0.209,0.498-1.361,3.3-2.056,5.999c-0.079-0.628-0.152-1.36-0.216-2.21L127.5,7.873
	c-0.301-3.26-1.249-5.639-2.899-7.269c-0.178-0.178-0.726-0.722-1.473-0.589c-0.351,0.063-1.169,0.367-1.234,1.857
	c-0.098,2.199-0.115,4.777,0.483,7.238c0.099,0.398,0.251,0.809,0.457,1.229c-2.942-1.225-6.259-1.808-8.974-1.727
	c-0.644,0.019-1.451,0.119-1.997,0.728c-0.896,1.002-0.386,2.452,0.469,3.379c1.193,1.297,2.798,2.087,4.213,2.782
	c1.395,0.688,2.838,1.4,4.429,1.771c0.729,0.17,1.605,0.125,2.518-0.037c1.409-0.252,2.896-0.781,4.105-1.228
	c0.403,0.588,0.799,1.183,1.19,1.776c-1.679-0.655-4.504-0.162-7.502,0.461c-0.456,0.094-0.862,0.178-1.194,0.236
	c-0.001,0-0.001,0-0.001,0c-0.557,0.103-1.095,0.221-1.577,0.585c-1.136,0.862-1.111,2.556-0.378,3.595
	c0.589,0.832,1.554,1.396,2.874,1.672c1.086,0.229,2.211,0.24,3.292,0.047c0.964-0.172,1.896-0.506,2.735-0.993
	c0.029-0.02,2.782-1.677,3.113-3.485c2.188,3.487,4.193,7.096,5.988,10.791c2.288,4.705,4.922,10.936,4.995,17.412
	c0.052,4.377-1.061,8.764-2.133,13.008c-0.295,1.168-0.59,2.335-0.86,3.504c-0.113,0.482-0.201,0.947-0.306,1.422
	c-1.787-7.114-5.995-13.552-12.131-18.421c-0.233-0.185-0.472-0.365-0.712-0.544c2.256-0.834,3.48-3.729,3.752-5.5
	c0.431-2.813-0.404-5.604-1.14-8.063l-1.847-6.182c-0.092-0.301-0.356-0.514-0.67-0.536c-0.321-0.018-0.608,0.153-0.739,0.438
	c-2.094,4.563-3.009,9.66-2.657,14.737c0.017,0.229,0.025,0.499,0.034,0.784c0.023,0.737,0.053,1.56,0.201,2.302
	c-1.103-0.647-2.301-1.278-3.629-1.913c-7.19-3.42-15.146-5.433-23.02-5.822c-0.469-2.976-9.859-4.432-9.983-4.451
	C83.687,32.639,82.506,33.171,82.231,34.267z M125.481,33.044c0.29,1.375,0.584,2.795,0.726,4.209
	c0.353,3.443-0.443,6.381-2.188,8.155v-0.006c0.404-4.854,0.82-9.851,0.983-14.813C125.145,31.419,125.314,32.237,125.481,33.044z
	 M124.605,30.742c-0.166,4.899-0.561,9.833-0.961,14.629l-0.008,0.104c-0.326-0.602-0.373-1.969-0.398-2.76
	c-0.009-0.307-0.02-0.594-0.037-0.844C122.937,38.088,123.425,34.294,124.605,30.742z M124.42,45.69
	c-0.087,0.028-0.165,0.049-0.238,0.061c1.889-1.846,2.769-4.92,2.4-8.537c-0.146-1.432-0.442-2.861-0.731-4.246
	c-0.014-0.072-0.031-0.148-0.045-0.223l0.358,1.203c0.692,2.309,1.472,4.925,1.094,7.404C126.99,43.103,125.854,45.204,124.42,45.69
	z M128.372,19.248c0.306,0.151,0.312,0.268,0.312,0.304c0.023,0.604-1.301,1.899-2.4,2.541c-1.458,0.85-3.264,1.135-4.957,0.776
	c-0.642-0.136-1.503-0.431-1.953-1.067c-0.314-0.443-0.356-1.208,0.06-1.521c0.401-0.307,1.165-0.341,2.163-0.547
	c0.573-0.119,1.251-0.26,1.961-0.386C125.386,19.019,127.423,18.782,128.372,19.248z M124.848,13.079
	c0.521,0.545,1.116,1.105,1.795,1.687c-1.71,0.616-4.006,1.353-5.322,1.048c-1.419-0.331-2.784-1.004-4.104-1.654
	c-1.36-0.671-2.768-1.363-3.771-2.454c-0.398-0.433-0.685-1.093-0.453-1.351c0.163-0.184,0.602-0.216,0.92-0.229
	C117.334,10.024,121.724,11.084,124.848,13.079z M126.503,12.385c-0.224-0.167-0.455-0.326-0.693-0.482
	c-1.079-1.158-1.734-2.209-1.961-3.143c-0.555-2.27-0.54-4.615-0.443-6.813c0.006-0.156,0.023-0.271,0.045-0.354
	c0.027,0.022,0.059,0.055,0.096,0.09c1.371,1.353,2.196,3.48,2.46,6.334l0.042,0.539C126.156,10.009,126.294,11.302,126.503,12.385z
	 M130.171,13.521c-0.669,0.852-1.073,1.004-1.2,0.967c-0.063-0.021-0.144-0.069-0.239-0.184c-0.176-1.718,1.305-6.255,2.482-9.068
	c0.326-0.781,0.646-1.19,0.977-1.25c0.01-0.002,0.02-0.004,0.029-0.004c0.295-0.035,0.668,0.284,0.795,0.682
	c0.166,0.514,0.064,1.146-0.068,1.751C132.204,9.771,131.295,12.097,130.171,13.521z M132.447,20.033
	c0.002-0.653,0.655-2.396,1.45-3.804c0.894-1.581,2.151-2.7,3.541-3.15c0.104-0.033,0.207-0.058,0.307-0.076
	c0.338-0.061,0.623-0.023,0.727,0.104c0.09,0.104,0.092,0.341,0.01,0.55c-0.116,0.29-0.354,0.561-0.647,0.885
	c-0.299,0.322-0.687,0.796-1.129,1.34C135.518,17.326,133.557,19.729,132.447,20.033z M165.238,32.495
	c-0.051,0.036-0.094,0.063-0.141,0.096c-0.052,0.02-0.104,0.027-0.154,0.06c-0.078,0.05-0.156,0.097-0.236,0.146
	c-0.092,0.027-0.172,0.036-0.229,0.015c-0.463-0.227-0.861-1.774-0.869-3.385c-0.006-1.793,0.498-3.374,1.434-4.451
	c0.412-0.479,1.104-0.844,1.438-0.604c0.191,0.14,0.308,0.49,0.351,1.068C166.996,27.647,166.605,31.417,165.238,32.495z
	 M159.729,34.708c-0.105-0.076-0.279-0.219-0.517-0.483c-1.271-1.426-2.205-3.938-2.221-5.981c-0.003-0.134,0.018-0.248,0.038-0.328
	c0.888,0.373,1.599,1.1,2.054,2.033c0.401,0.834,0.637,1.84,0.733,3.166C159.876,33.972,159.8,34.472,159.729,34.708z
	 M149.992,65.306c-0.176-0.111-0.342-0.271-0.496-0.476c-0.798-1.038-1.064-2.884-0.803-3.893c0.109-0.418,0.34-0.67,0.424-0.688
	c0.008-0.001,0.012-0.001,0.014-0.001c0.061,0.011,0.256,0.249,0.336,0.949c0,0,0,0.001,0,0.002
	c0.057,0.465,0.137,0.961,0.221,1.471C149.832,63.566,149.977,64.483,149.992,65.306z M159.018,60.843
	c0.729-2.027,2.151-3.734,4.02-4.781c0.359-0.205,0.771-0.365,1.15-0.435c0.453-0.081,0.869-0.033,1.125,0.226
	c0.338,0.341,0.297,0.974,0.086,1.396c-0.301,0.605-0.926,1.066-1.433,1.399c-1.432,0.933-3.049,1.563-4.444,2.059
	C159.378,60.757,159.207,60.802,159.018,60.843z M156.417,59.411c-0.082,0.242-0.621,1.332-0.979,2.054
	c-0.232,0.469-0.451,0.908-0.599,1.218c-0.08,0.098-0.157,0.197-0.239,0.299c-0.203,0.257-0.517,0.648-0.729,0.84
	c-0.064-0.126-0.156-0.354-0.252-0.742c-0.609-2.468-0.27-5.723,0.906-8.706c0.27-0.683,0.615-1.1,0.906-1.1
	c0.174,0.003,0.418,0.174,0.646,0.457C157.453,55.442,156.882,58.024,156.417,59.411z M102.02,40.444
	c0.015-0.013,0.034-0.029,0.067-0.035c0.035-0.006,0.09-0.003,0.179,0.024c0.169,0.051,0.979,0.593,0.531,6.294l-0.033,0.449
	c-0.034,0.526-0.069,1.068-0.285,1.48c-0.007,0.013-0.014,0.024-0.018,0.035c-0.039-0.076-0.081-0.188-0.119-0.336
	c-0.244-0.978-0.456-1.973-0.626-2.95C101.466,43.974,101.393,40.999,102.02,40.444z M83.691,34.634
	c0.032-0.127,0.217-0.219,0.482-0.268c0.251-0.045,0.57-0.047,0.909,0.002l0,0c3.301,0.48,8.631,2.137,8.718,3.191
	c0.018,0.225-0.058,0.295-0.146,0.356c-1.206,0.853-6.288-0.386-7.572-0.958c-1.234-0.547-1.987-1.174-2.306-1.914
	C83.669,34.798,83.681,34.676,83.691,34.634z M89.815,41.84c-2.028,1.412-3.424,3.788-4.15,7.063
	c-0.227,1.021-0.389,2.325,0.395,3.339c0.65,0.841,1.857,1.228,3.105,1.005c0.051-0.01,0.103-0.021,0.158-0.031
	c1.435-0.313,2.563-1.236,3.479-2.1c1.654-1.557,3.079-3.338,4.233-5.293c0.821-1.392,2.454-4.154,1.288-5.744
	c-1.113-1.512-3.282-0.596-4.717,0.01c-0.257,0.106-0.486,0.204-0.68,0.271C91.716,40.79,90.723,41.207,89.815,41.84z
	 M87.571,51.583c1.071-0.77,1.956-1.783,2.813-2.771c0.325-0.373,0.646-0.744,0.979-1.105c0.508-0.548,1.054-1.08,1.582-1.597
	c0.566-0.554,1.152-1.126,1.698-1.727c0.926-1.018,1.754-2.136,2.553-3.228c0.142,0.477-0.056,1.527-1.42,3.838
	c-1.118,1.896-2.453,3.565-4.006,5.025c-0.768,0.72-1.692,1.486-2.769,1.725C88.556,51.833,87.979,51.813,87.571,51.583z
	 M87.136,49.229c0.441-1.99,1.415-4.674,3.54-6.152c0.771-0.537,1.658-0.906,2.755-1.295c0.216-0.077,0.475-0.186,0.761-0.306
	c0.526-0.224,1.323-0.56,1.966-0.675c0.325-0.058,0.609-0.058,0.799,0.041c-0.814,1.112-1.655,2.257-2.593,3.284
	c-0.538,0.59-1.12,1.159-1.684,1.709c-0.532,0.521-1.08,1.058-1.595,1.61c-0.335,0.363-0.66,0.739-0.985,1.114
	c-0.866,0.999-1.757,2.021-2.831,2.771c-0.005-0.006-0.012-0.01-0.016-0.015C86.94,50.917,86.904,50.271,87.136,49.229z
	 M174.898,42.82c0.237,0.042,0.776,0.138,1.354,0.036c0.349-0.063,0.705-0.195,1.021-0.456c0.924-0.771,0.887-2.126,0.438-3.128
	c-0.935-2.092-3.104-3.2-4.892-3.935c-2.407-0.981-5.422-2.005-7.403-1.146c-0.724,0.313-1.235,0.849-1.519,1.589
	c-0.979,2.569,3.438,4.285,6.08,5.31c0.412,0.158,0.763,0.297,1.006,0.404C172.132,42.004,173.473,42.567,174.898,42.82z
	 M176.311,41.241c-0.201,0.164-0.586,0.195-1.146,0.095c-1.26-0.224-2.5-0.745-3.564-1.218c-0.264-0.116-0.635-0.262-1.072-0.431
	c-1.397-0.544-5.664-2.198-5.219-3.368c0.137-0.354,0.361-0.591,0.713-0.742c1.654-0.721,5.101,0.696,6.23,1.16
	c1.523,0.623,3.367,1.547,4.082,3.147C176.542,40.357,176.605,40.993,176.311,41.241z M181.445,29.273
	c0-0.788-0.547-1.552-1.359-1.903c-0.635-0.271-1.295-0.278-1.914-0.242h-0.002c-1.066,0.063-6.977,1.117-8.705,3.111
	c-0.402,0.463-0.586,0.962-0.543,1.483c0.045,0.524,0.303,0.957,0.748,1.246c0.727,0.473,2.043,0.536,3.938,0.198
	c1.5-0.269,3.363-0.789,5.58-1.562C181.057,30.955,181.443,29.979,181.445,29.273z M178.744,30.165
	c-5.121,1.783-7.637,1.939-8.25,1.542c-0.08-0.231,0.021-0.38,0.107-0.479c1.19-1.374,6.184-2.51,7.659-2.598
	c0.431-0.022,0.882-0.025,1.229,0.123c0.253,0.107,0.448,0.334,0.446,0.518C179.936,29.565,179.479,29.909,178.744,30.165z
	 M165.294,40.288c-0.778-0.688-1.64-1.391-2.685-1.838c-0.631-0.272-2.315-0.991-3.041,0.084c-1.14,1.688,2.531,5.678,2.574,5.717
	c0.438,0.439,0.982,0.924,1.697,1.184c0.465,0.168,0.945,0.209,1.391,0.13c0.379-0.067,0.729-0.226,1.017-0.462
	c0.764-0.633,1.008-1.806,0.59-2.854C166.505,41.415,165.869,40.8,165.294,40.288z M164.291,41.414
	c0.465,0.413,0.938,0.863,1.146,1.393c0.148,0.374,0.136,0.901-0.146,1.136c-0.213,0.173-0.584,0.201-0.934,0.075
	c-0.438-0.157-0.824-0.511-1.148-0.833c-1.004-0.997-2.236-2.974-2.354-3.707c0.18,0.017,0.533,0.09,1.166,0.359
	C162.867,40.198,163.609,40.81,164.291,41.414z M169.063,71.84c0.367-0.438,0.53-1.052,0.477-1.77
	c-0.156-2.005-1.762-3.798-4.402-4.919c-1.031-0.439-7.703-2.216-9.674-0.275c-0.438,0.434-0.848,1.212-0.322,2.491
	c1.301,3.199,7.559,4.604,11.174,5.157c0.435,0.064,0.963,0.115,1.472,0.021C168.255,72.465,168.71,72.26,169.063,71.84z
	 M167.902,70.876c-0.178,0.214-0.635,0.27-1.363,0.158c-5.529-0.846-9.27-2.43-10.006-4.236c-0.251-0.611-0.074-0.782-0.012-0.849
	c0.184-0.18,0.496-0.3,0.893-0.37c1.943-0.348,5.943,0.455,7.133,0.96c0.996,0.423,3.332,1.626,3.49,3.647
	C168.059,70.495,168.009,70.745,167.902,70.876z M155.6,70.046c-0.408-0.275-0.961-0.604-1.634-0.684
	c-1.08-0.126-2.129,0.435-2.741,1.003c-0.22,0.2-0.3,0.508-0.207,0.788c0.524,1.598,2.084,3.02,3.213,3.95
	c0.752,0.62,1.916,1.448,3.321,1.485c0.08,0.002,0.232,0.01,0.417-0.024c0.206-0.036,0.446-0.119,0.657-0.306
	c0.258-0.223,0.64-0.744,0.313-1.749C158.355,72.7,157.167,71.114,155.6,70.046z M154.75,71.292
	c1.295,0.881,2.273,2.189,2.756,3.684c0.012,0.035,0.021,0.065,0.029,0.097c-0.77-0.062-1.49-0.423-2.348-1.13
	c-0.5-0.412-1.898-1.57-2.532-2.775c0.241-0.145,0.501-0.245,0.743-0.289c0.139-0.021,0.271-0.028,0.396-0.016
	C154.063,70.89,154.355,71.024,154.75,71.292z M111.824,61.724c3.256-0.58,6.688-2.245,10.128-4.938l0.314-0.243
	c1.889-1.451,3.908-3.159,3.999-5.053c0.04-0.777-0.275-1.504-0.909-2.096c-2.496-2.328-8.482,0.891-10.256,1.931
	c-0.005,0.001-0.005,0.001-0.005,0.001c-3.682,2.164-6.635,5.521-8.311,9.449c-0.091,0.215-0.077,0.46,0.036,0.663
	c0.114,0.204,0.316,0.345,0.549,0.378C108.8,62.03,110.292,61.997,111.824,61.724z M124.725,51.114
	c-0.326,0.43-0.758,0.806-1.19,1.155c-4.232,3.401-8.928,6.15-13.962,8.175c-0.003,0-0.005,0-0.009,0
	c0.164-0.205,0.33-0.41,0.49-0.614c0.954-1.2,1.852-2.335,3.057-3.254c1.408-1.077,3.028-1.877,4.595-2.651
	c1.13-0.558,2.522-1.126,3.868-1.676c1.051-0.43,2.123-0.869,3.084-1.308C124.687,51.003,124.709,51.06,124.725,51.114z
	 M124.327,50.498c0.05,0.045,0.075,0.087,0.114,0.13c-0.938,0.428-1.986,0.854-3.008,1.271c-1.353,0.553-2.753,1.125-3.896,1.688
	c-1.581,0.781-3.218,1.591-4.657,2.689c-1.24,0.949-2.152,2.1-3.119,3.317c-0.226,0.282-0.453,0.563-0.684,0.847
	c-0.158-0.004-0.315,0-0.474-0.01c1.599-3.229,4.146-5.978,7.259-7.807v0.002c1.96-1.15,4.236-2.147,5.995-2.463
	C122.946,49.971,123.837,50.04,124.327,50.498z M110.767,60.354c4.671-1.988,9.038-4.604,13.002-7.79
	c0.326-0.265,0.654-0.539,0.941-0.847c-0.349,1.313-2.433,2.915-3.363,3.632l-0.324,0.252
	C118.416,57.641,114.734,59.882,110.767,60.354z M149.255,41.007c-0.312,0.057-0.58-0.006-0.771-0.076
	c-1.873-0.729-2.498-5.652-2.351-6.719c0.272-1.944,1.007-3.754,1.718-5.502c0.107-0.271,0.371-0.465,0.67-0.469
	c0.295-0.013,0.57,0.152,0.701,0.416c0.814,1.639,3.447,8.355,1.438,11.279C150.166,40.653,149.671,40.931,149.255,41.007z
	 M160.298,13.198c0.412,0.152,0.793,0.406,1.201,0.801c0.853,0.822,1.231,1.801,1.043,2.685c-0.092,0.415-0.31,0.815-0.658,1.229
	c-0.577,0.666-1.305,1.104-2.045,1.233c-0.133,0.021-0.266,0.038-0.399,0.041c-0.992,0.025-2.013-0.521-2.662-1.436
	c-0.482-0.681-0.654-1.417-0.488-2.073c0.096-0.375,0.293-0.68,0.434-0.877C157.52,13.681,158.873,12.669,160.298,13.198z
	 M150.934,14.228c0.432,0.555,1.11,1.293,2.102,1.294c0.115,0.001,0.229-0.009,0.338-0.029c0.652-0.116,1.254-0.574,1.619-1.254
	c0.475-0.882,0.477-1.95,0.002-2.784c0-0.001,0-0.001,0-0.001c-0.479-0.836-1.291-1.306-2.178-1.253
	c-0.904,0.053-1.691,0.644-2.068,1.54c-0.117,0.271-0.172,0.544-0.215,0.765c-0.041,0.195-0.104,0.496-0.045,0.824
	C150.557,13.71,150.755,13.992,150.934,14.228z M152.132,12.329c0.158-0.373,0.461-0.605,0.771-0.623
	c0.309-0.019,0.592,0.16,0.779,0.491c0.213,0.378,0.207,0.91-0.019,1.327c-0.152,0.289-0.399,0.485-0.623,0.489
	c-0.244,0-0.552-0.237-0.912-0.704c-0.094-0.126-0.149-0.209-0.155-0.246c-0.007-0.045,0.021-0.189,0.036-0.259
	C152.044,12.632,152.078,12.458,152.132,12.329z M160.076,9.322c0.127-0.304,0.156-0.646,0.094-1.038
	c-0.102-0.639-0.402-1.174-0.85-1.51c-0.564-0.42-1.252-0.502-1.896-0.219c-0.774,0.34-1.377,1.175-1.465,2.026
	c-0.084,0.796,0.279,1.536,0.899,1.845c0.427,0.214,0.865,0.187,1.207,0.125c0.109-0.02,0.209-0.043,0.295-0.063
	C158.77,10.395,159.725,10.172,160.076,9.322z M158.686,8.745c-0.017,0.031-0.103,0.146-0.664,0.277
	c-0.275,0.063-0.438,0.082-0.486,0.057c-0.029-0.02-0.094-0.156-0.074-0.34c0.031-0.314,0.295-0.683,0.57-0.805
	c0.039-0.017,0.072-0.025,0.107-0.033c0.096-0.019,0.182,0.01,0.276,0.081c0.129,0.096,0.229,0.297,0.269,0.538
	C158.707,8.685,158.686,8.741,158.686,8.745z M126.712,63.479c0.37,0.206,0.695,0.524,0.988,0.981
	c0.559,0.876,0.75,1.861,0.521,2.705c-0.259,0.961-1.074,1.781-2.132,2.143c-0.166,0.058-0.331,0.101-0.492,0.129
	c-0.606,0.107-1.178,0.021-1.637-0.254c-0.334-0.2-0.569-0.479-0.717-0.664c-0.849-1.086-1.427-2.68-0.514-3.888
	c0.263-0.352,0.618-0.646,1.113-0.925C124.876,63.128,125.919,63.044,126.712,63.479z M109.43,29.29
	c-0.001,0-0.001,0.002-0.001,0.002c-0.912,1.208-0.333,2.799,0.515,3.885c0.147,0.189,0.383,0.467,0.716,0.666
	c0.463,0.275,1.031,0.361,1.638,0.256c0.161-0.029,0.326-0.072,0.491-0.131c1.059-0.357,1.876-1.182,2.134-2.141
	c0.227-0.846,0.035-1.832-0.524-2.707c-0.289-0.453-0.611-0.771-0.987-0.979c-0.79-0.438-1.835-0.354-2.868,0.229
	C110.048,28.647,109.695,28.94,109.43,29.29z M110.631,30.2c0.137-0.182,0.344-0.346,0.653-0.52c0.266-0.15,0.523-0.247,0.758-0.289
	c0.252-0.048,0.476-0.023,0.642,0.066c0.145,0.08,0.295,0.24,0.445,0.475c0.331,0.52,0.455,1.064,0.338,1.502
	c-0.128,0.475-0.586,0.906-1.164,1.105c-0.355,0.123-0.675,0.121-0.869,0.006c-0.087-0.052-0.183-0.146-0.3-0.296
	C110.653,31.635,110.233,30.728,110.631,30.2z M121.042,73.897c0.651-0.248,1.551-0.689,1.839-1.643
	c0.227-0.742-0.029-1.604-0.667-2.238c-0.714-0.709-1.734-1.02-2.673-0.801c-0.936,0.219-1.617,0.863-1.822,1.729
	c-0.207,0.876,0.133,1.805,0.882,2.424c0.207,0.169,0.438,0.298,0.671,0.423c0.189,0.104,0.453,0.242,0.779,0.278
	c0.17,0.02,0.329,0.007,0.476-0.021C120.742,74.013,120.921,73.942,121.042,73.897z M121.438,71.82
	c-0.07,0.234-0.386,0.46-0.936,0.669c-0.152,0.059-0.245,0.086-0.285,0.083c-0.042-0.006-0.163-0.071-0.236-0.11
	c-0.146-0.078-0.296-0.15-0.424-0.258c-0.305-0.252-0.446-0.594-0.37-0.912c0.07-0.299,0.322-0.519,0.692-0.604
	c0.019-0.004,0.036-0.007,0.053-0.013c0.41-0.071,0.893,0.089,1.216,0.409C121.38,71.315,121.5,71.618,121.438,71.82z
	 M118.206,67.603c0.346-0.063,0.658-0.223,0.891-0.471c0.429-0.46,0.465-1.063,0.487-1.423c0.023-0.417,0.086-1.393-0.631-1.975
	c-0.252-0.207-0.567-0.335-0.965-0.388c-0.643-0.087-1.242,0.053-1.69,0.385c-0.565,0.42-0.837,1.057-0.752,1.75
	c0.102,0.841,0.729,1.657,1.522,1.984C117.446,67.626,117.843,67.667,118.206,67.603z M117.995,66.103
	c-0.033,0.022-0.18,0.044-0.35-0.025c-0.29-0.121-0.565-0.478-0.606-0.779c-0.016-0.153,0.029-0.257,0.156-0.354
	c0.063-0.046,0.148-0.079,0.246-0.098c0.105-0.021,0.223-0.021,0.346-0.006c0.164,0.022,0.211,0.062,0.213,0.063
	c0.027,0.022,0.114,0.141,0.077,0.717C118.062,65.899,118.034,66.062,117.995,66.103z M112.049,20.73
	c0.348-0.063,0.662-0.223,0.892-0.471c0.429-0.46,0.468-1.062,0.488-1.422c0.024-0.417,0.084-1.393-0.631-1.975
	c-0.251-0.207-0.567-0.335-0.966-0.388c-0.639-0.086-1.239,0.052-1.691,0.387c-0.562,0.417-0.835,1.055-0.751,1.748
	c0.105,0.841,0.734,1.658,1.525,1.984C111.294,20.755,111.689,20.794,112.049,20.73z M111.493,19.204
	c-0.29-0.119-0.568-0.476-0.605-0.777c-0.02-0.153,0.026-0.258,0.155-0.353c-0.002-0.001,0-0.001,0-0.001
	c0.063-0.047,0.146-0.08,0.245-0.098c0.103-0.021,0.222-0.021,0.345-0.004c0.164,0.021,0.213,0.059,0.214,0.061
	c0.027,0.023,0.113,0.141,0.078,0.718c-0.015,0.278-0.046,0.44-0.085,0.483C111.813,19.251,111.667,19.278,111.493,19.204z" class="color c1"/>
</svg>