<svg version="1.1" id="图层_1" x="0px" y="0px" width="180.001px" height="155.745px" viewBox="0 0 180.001 155.745" enable-background="new 0 0 180.001 155.745" xml:space="preserve" xmlns="http://www.w3.org/2000/svg" xmlns:xlink="http://www.w3.org/1999/xlink" xmlns:xml="http://www.w3.org/XML/1998/namespace">
  <path fill="#545454" d="M104.339,23.042c0,1.179,0,2.593,1.649,2.828c0.235,0,0.235,0.235,0.472,0.235
	c0.235,0,0.471,0.236,0.707,0.236c0.235-0.236,0-0.472,0-0.707c-0.943-2.828-0.707-6.129,0.707-8.957
	c0.707-1.18,1.414-2.594,2.121-3.771c0.235-0.472,0.471-0.943,0.471-1.65c0-0.234,0-0.471-0.235-0.471s-0.235,0.236-0.235,0.236
	c-1.414,2.12-3.064,4.241-4.007,6.599C104.81,19.27,104.339,21.156,104.339,23.042 M50.597,152.209
	c2.592,0.471,4.949,1.648,7.542,1.885c1.416,0.236,3.063,0.473,4.478,0.473c2.594-0.236,5.186-0.473,7.544-0.943
	c4.949-0.943,9.664-2.357,14.378-4.008c1.885-0.707,3.771-1.648,5.657-2.357c3.771-1.414,7.543-3.063,11.078-4.949
	c4.242-2.121,8.25-5.186,12.492-7.543l0.236-0.236c1.178-1.178,2.355-2.119,3.535-3.063c5.186-3.771,10.135-7.779,14.85-12.256
	c4.008-4.008,7.779-8.252,11.785-12.258c2.121-2.123,4.008-4.244,5.893-6.365c4.479-5.656,8.721-11.549,12.492-17.912
	c2.828-4.244,5.188-8.722,7.072-13.201c1.887-4.006,3.299-8.014,4.479-12.257c0.943-3.298,1.885-6.834,2.592-10.135
	c1.65-5.421,2.357-11.079,2.357-16.735c-0.236-3.536-0.707-7.071-1.885-10.371c-0.473-1.179-1.414-2.357-2.357-3.3
	c0,0.472,0.236,0.942,0.236,1.179c1.178,2.593,1.885,5.655,1.885,8.485c0,2.829-0.236,5.421-0.471,8.25
	c-0.473,4.242-1.18,8.484-2.121,12.492c-1.887,7.307-4.244,14.378-7.543,21.214c-1.885,3.771-3.771,7.542-5.893,11.313
	c-1.885,3.302-4.479,6.13-6.6,9.43c-6.129,8.484-12.965,16.734-20.271,24.277c-5.658,5.895-11.785,11.314-18.15,16.5
	c-5.657,4.479-11.786,8.25-17.914,11.551c-4.479,2.355-8.956,4.242-13.67,6.127c-3.536,1.414-7.071,2.594-10.843,3.535
	c-2.592,0.707-4.95,1.18-7.542,1.65s-5.421,0.471-8.014,0.471C55.311,152.917,52.953,152.444,50.597,152.209 M60.26,149.616
	c2.594,0,4.95-0.234,7.542-0.707c8.015-1.65,15.793-4.242,23.099-7.541c5.893-2.594,11.551-5.658,16.736-9.43
	c2.593-1.885,4.951-3.535,7.543-5.42c3.064-2.359,6.129-4.715,8.957-7.307c2.594-2.359,5.186-5.188,7.779-7.781
	c3.535-3.77,7.07-7.305,10.371-11.314c4.242-4.947,8.014-10.134,11.785-15.318c1.65-2.594,3.535-4.95,4.951-7.543
	c0.941-1.886,1.885-3.771,3.063-5.423c0.707-1.177,1.65-2.356,2.357-3.771c2.828-6.128,5.186-12.729,7.072-19.093
	c1.412-4.241,2.355-8.721,2.828-13.198c0.707-4.008,0.707-8.014,0-11.786c-0.473-2.592-1.416-4.95-2.594-7.071
	c-1.885-3.063-4.242-5.657-7.072-8.014c-1.178-1.18-2.828-2.122-4.713-2.357c-2.594-0.472-5.186-0.707-7.779-0.472
	c-2.592,0.235-5.184,0.942-7.543,2.122c-5.656,2.121-10.842,4.949-15.557,8.485c-4.008,3.535-8.484,6.6-13.199,9.664
	c-2.121,1.178-4.006,2.12-6.363,3.063c-3.771,1.18-6.364-0.234-7.307-4.242c-0.473-2.828,0-5.893,1.414-8.485
	c0.942-2.122,2.356-3.771,3.535-5.893c0.943-1.886,0.707-2.357-1.414-2.357c-2.357,0.236-4.715,0.943-7.072,1.886
	c-4.479,2.121-8.72,4.479-12.963,6.6c-5.657,2.828-10.842,6.364-15.321,10.606c-5.893,5.187-11.314,10.844-16.264,16.972
	c-5.186,6.364-10.136,12.965-14.851,19.564c-1.178,1.414-2.121,3.063-3.299,4.478c-1.65,2.829-3.536,5.422-5.186,8.485
	c-1.885,3.536-3.771,6.837-5.421,10.372c-2.593,5.892-4.478,12.257-5.656,18.856c-0.944,6.127-0.473,12.256,1.178,17.912
	c0.707,2.359,1.65,4.48,2.828,6.602c1.414,2.357,3.301,4.479,5.657,6.363c1.885,1.885,4.008,3.537,6.127,4.949
	c2.594,1.887,5.423,3.303,8.486,4.48C49.418,148.436,54.84,149.616,60.26,149.616 M16.418,112.374
	c0.236-3.771,0.943-7.777,1.65-11.549c0.707-3.064,1.415-6.363,2.594-9.43c1.649-4.712,3.771-9.191,6.364-13.67
	c2.828-4.949,5.656-9.899,8.957-14.377c3.063-4.243,6.127-8.723,9.428-12.964c3.301-4.479,6.835-8.722,10.607-12.73
	c4.715-5.185,9.664-9.897,14.85-14.377c5.421-4.243,11.313-8.015,17.442-10.843c2.358-1.179,4.479-2.356,6.836-3.3
	c2.828-1.415,5.893-2.593,8.956-3.3c1.887-0.707,4.008-0.234,5.423,0.942c1.65,1.178,2.592,3.301,2.357,5.186
	c-0.236,1.414-0.944,2.593-1.887,3.772c-1.414,2.121-2.121,4.714-2.121,7.542c0,0.472,0,0.943,0.235,1.179
	c0.235,1.179,0.944,1.414,2.121,0.942c4.243-1.887,8.015-4.242,11.55-7.071c5.186-4.243,10.607-8.014,16.5-11.077
	c2.828-1.18,5.656-2.358,8.723-3.301c4.713-1.414,9.662-1.414,14.377,0c1.885,0.472,3.537,1.414,5.186,2.593
	c3.771,3.064,7.307,6.364,10.371,10.136c1.178,1.649,2.121,3.771,2.357,5.893c0.707,2.828,0.707,5.656,0.707,8.722
	c-0.234,5.893-1.18,11.784-2.594,17.677c-1.178,4.243-2.121,8.723-3.535,12.965c-1.178,3.536-2.592,7.071-4.242,10.371
	c-2.594,5.656-5.893,11.078-9.428,16.264c-3.064,4.714-6.129,8.956-9.666,13.2c-1.414,1.65-3.063,3.301-4.477,4.949
	c-0.943,0.943-1.65,2.357-2.594,3.301c-2.592,2.355-4.949,5.186-7.543,7.541l-3.77,3.771c-1.416,1.414-2.83,2.828-4.244,4.008
	c-2.83,2.357-5.656,4.479-8.25,6.836c-2.355,1.885-4.949,3.535-7.777,5.186c-2.123,1.414-4.244,2.828-6.601,4.242
	c-4.714,2.828-9.899,5.422-15.085,7.307c-2.358,0.943-4.715,1.887-7.307,2.828c-3.772,1.18-7.779,2.357-11.55,3.066
	c-2.829,0.707-5.657,0.941-8.722,0.941c-2.591-0.234-5.185-0.471-7.777-0.941c-3.536-0.473-6.837-1.18-9.9-2.594
	c-3.536-1.414-6.835-3.301-9.664-5.656c-1.65-1.414-3.536-2.594-5.186-4.48c-2.121-2.355-4.714-4.713-6.835-7.07
	c-2.357-3.064-4.243-6.6-5.186-10.371S16.418,116.618,16.418,112.374 M17.125,31.999h0.707c0.236,0,0.707,0,0.943-0.472
	c0-0.235,0-0.472-0.236-0.707c-0.235-0.235-0.707,0-0.942,0.235c-1.414,0.707-3.064,0.472-4.479-0.235
	c-0.234-0.235-0.471-0.472-0.706-0.235c-0.237,0.235-0.237,0.471-0.237,0.707c0,0.235,0.237,0.235,0.472,0.471
	C14.533,31.762,15.947,31.999,17.125,31.999 M16.654,38.833h1.178c0.472-0.235,0.943-0.707,0.943-1.18
	c0-0.705-0.707-0.234-0.943-0.234h-1.178c-1.178,0-2.356-0.235-3.536-0.708c-0.234-0.235-0.706-0.235-0.706,0.237
	c0.234,0.942,0.942,1.649,1.649,1.649C14.769,38.833,15.712,38.833,16.654,38.833 M17.597,35.533c0.707,0,1.178-0.471,1.414-1.649
	c0-0.707,0-0.942-0.707-0.707c-1.179,0.237-2.357,0.237-3.535,0c-1.651-0.471-1.651-0.471-2.122,1.18
	c-0.234,0.47,0,0.706,0.471,0.706C14.533,35.298,15.947,35.533,17.597,35.533 M19.955,9.134c0.707,2.121,0.471,4.479,0.942,6.601
	c0,0.235,0.236,0.707-0.235,0.942c-0.473,0-0.473-0.235-0.707-0.707c-0.472-1.179-0.708-2.121-0.708-3.301
	c-0.235-1.414-0.471-2.828-1.414-4.006c0,0.707,0,1.178,0.236,1.885c0.236,2.121,0,4.243-0.236,6.364
	c0,0.236-0.235,0.707-0.471,0.707c-0.471,0-0.471-0.471-0.471-0.942v-1.18c0-0.942,0-2.121-0.236-3.063
	c-0.942,2.357-1.649,4.95-2.121,7.778h0.472c1.414-1.414,2.121-1.414,3.063,0.236c0,0.234,0.236,0.234,0.236,0.471
	c0.235,0.942,1.414,1.18,2.122,0.942h0.236c1.414-0.706,2.356-2.121,2.121-3.535C23.019,14.792,22.076,11.492,19.955,9.134
	 M2.276,151.973c0.235,0,0.235-0.236,0.235-0.236c0.236-0.707,0.472-1.648,0.707-2.355c1.178-4.006,2.123-8.252,2.357-12.494
	c0.471-3.77,0.471-7.541,0.707-11.313c0.237-1.65,0.237-3.537,0.472-5.186c0.236-2.121,0.236-4.244,0.472-6.129
	c0.707-6.6,1.649-13.199,2.828-19.799c0.943-6.836,2.121-13.907,3.537-20.743c0.942-5.657,2.356-11.314,3.063-16.97
	c0.707-4.951,0.707-9.901,0.236-14.85c0-0.473,0-0.709-0.472-0.709c-0.942,0-2.121-0.234-3.063-0.234
	c-0.471,0-0.708,0.234-0.708,0.471c-0.472,2.122-1.413,4.007-1.886,6.13c-0.942,4.006-1.649,8.249-2.356,12.491
	c-0.943,5.422-1.414,11.079-1.65,16.735C6.52,80.79,6.283,85.032,6.047,89.04c-0.471,6.6-0.706,13.436-0.943,20.035
	c-0.235,4.949-0.47,9.664-0.707,14.613c-0.234,3.771-0.471,7.779-0.942,11.551c-0.471,4.479-0.943,9.191-0.943,13.67
	C1.805,150.088,2.041,151.03,2.276,151.973 M4.634,68.533c0-1.886,0-3.535,0.234-5.42c0.473-3.065,0.707-6.364,1.414-9.43
	c0.472-2.592,0.944-5.185,1.651-7.543l2.121-6.364c0.236-0.471,0.236-0.942,0-1.413c-0.707-1.651-0.471-3.301,0.472-4.715
	c0.235-0.472,0.235-0.942,0.235-1.414c-0.235-1.179,0-2.122,0.707-3.063c0.236-0.236,0.236-0.472,0.236-0.709
	c-1.65-4.006-0.236-7.542,1.414-11.077c1.415-2.829,2.358-6.129,2.358-9.43c0-2.12-0.236-4.006-0.943-5.892
	c0-0.471-0.235-0.708-0.235-1.178c0-0.235,0-0.708,0.235-0.708c0.236-0.236,0.707-0.236,0.943,0
	c2.121,1.886,4.007,4.007,5.657,6.128c0.943,1.414,1.649,2.829,2.356,4.243c1.886,4.714,1.886,9.664,0,14.379
	c-0.707,1.649-1.649,3.064-2.828,4.243c-0.236,0.234-0.473,0.471-0.236,0.707c0.707,1.178,0.707,2.592,0.471,3.771
	c-0.235,1.178-0.235,2.356-0.235,3.536c0,0.942-0.236,1.886-0.707,2.828c-0.237,0.471-0.472,0.707-0.237,1.178
	c0.471,4.243,0.708,8.25,0.237,12.493c-0.472,4.715-1.18,9.43-2.123,14.143c-0.707,4.006-1.414,8.25-2.121,12.257
	c-0.943,5.187-1.65,10.372-2.594,15.557c-0.706,4.715-1.65,9.43-2.121,14.143c-0.236,1.414-0.471,2.828-0.707,4.479
	c-0.236,2.121-0.471,4.479-0.707,6.6c-0.235,2.121-0.471,4.006-0.471,6.129l-0.707,9.191c-0.236,3.301-0.943,6.365-1.65,9.43
	c-0.708,2.119-1.179,4.242-1.886,6.363c-0.234,1.178-0.943,2.121-1.65,2.83c-0.471,0.471-1.178,0.471-1.649,0
	c-0.472-0.473-0.943-1.416-1.178-2.123c-0.472-2.592-0.472-5.186-0.237-7.777c0.473-6.365,0.944-12.492,1.416-18.857
	c0.235-4.949,0.471-9.9,0.707-15.086c0.235-4.477,0.471-8.957,0.942-13.436c0.236-3.535,0.472-7.069,0.472-10.605
	c0.235-5.186,0.707-10.372,0.707-15.557C4.397,70.418,4.634,69.475,4.634,68.533 M102.688,63.113c-0.472,0-0.706,0.235-0.706,0.705
	v1.18c0.472,2.121-0.707,4.478-2.828,5.185c-0.943,0.473-1.651,0.944-2.358,1.649c-0.706,0.709-1.179,1.651-1.179,2.594
	c0,0.236,0,0.707,0.473,0.707c0.472,0,0.472-0.235,0.472-0.471c0-0.236,0.234-0.707,0.472-0.943
	c0.707-0.942,1.885-1.649,3.063-1.887c1.414-0.47,2.358-1.413,3.065-2.592c0.706-1.414,0.941-3.063,0.706-4.714
	C103.632,63.583,103.16,63.113,102.688,63.113 M92.317,56.511c0-0.235-0.236-0.235-0.472-0.235
	c-2.356,0.708-4.007,3.064-4.007,5.421c0.235,1.651-0.472,3.301-1.65,4.243c-1.885,1.886-3.299,4.242-4.479,6.601
	c-0.707,2.356,0.472,4.714,2.594,5.892c0.471,0.236,1.178,0.473,1.649-0.234c0.472-0.707-0.235-0.943-0.707-1.415
	c0,0-0.236,0-0.236-0.236c-1.178-1.414-1.414-3.299-0.471-4.949c0.471-0.471,0.707-0.942,0.942-1.649
	c0.707-1.18,1.414-2.122,2.357-3.064c1.414-1.179,2.122-3.301,1.651-5.187C89.252,60.047,90.196,57.691,92.317,56.511
	 M74.875,78.432c-0.237-2.828,0.706-5.656,2.592-7.777c0.707-0.707,1.178-1.65,1.649-2.594c0.943-1.414,1.885-2.828,3.301-4.006
	c0.707-1.18,1.178-2.358,1.414-3.535c0.471-2.594,1.885-4.951,4.242-6.6c1.416-0.944,2.828-1.18,4.479-1.18
	c1.886,0,4.008-0.236,5.894-0.472c1.885-0.235,4.007-0.235,5.893,0.472c1.178,0.471,2.356,0.942,3.535,1.885l0.235,0.236
	c1.415,2.122,2.356,4.479,2.593,7.071c0,3.064-1.414,5.657-2.121,8.485c-0.472,1.65-1.179,3.064-1.65,4.714
	c-0.707,1.886-2.357,3.065-4.243,3.3c-1.649,0-3.3,0.708-4.714,1.887c-1.885,1.414-3.771,2.828-5.893,4.006
	c-1.649,0.944-3.536,0.944-5.186,0.237c-1.885-0.707-3.771-0.707-5.893-0.237c-0.942,0.237-1.885,0.237-2.828-0.234
	c-1.65-0.943-2.828-2.594-3.065-4.715C74.875,79.14,74.875,78.668,74.875,78.432 M141.581,77.491
	c-0.236,3.299-2.594,6.128-5.658,7.071c-0.941,0.235-1.885,0.707-2.828,0.942c-1.178,0.235-1.885,1.414-1.648,2.593
	c0,1.178,0,2.592,0.234,3.771c0.236,1.887-0.707,3.771-2.357,4.479c-2.592,1.414-5.186,2.828-8.014,4.008
	c-1.65,0.707-3.535,0.707-5.422,0c-1.178-0.707-2.121-1.65-2.592-2.83c-0.236-0.705-0.707-1.178-0.943-1.885
	c-0.471-0.943-1.178-1.65-2.122-1.885c-2.356-0.707-3.535-3.065-2.828-5.187c0.235-0.942,0.707-1.649,1.414-2.121
	c0.708-0.707,1.414-1.649,1.886-2.828c1.887-3.064,5.186-4.714,8.723-4.714c0.941,0.235,1.648,0.471,2.355,1.178
	c0.473,0.472,0.707,0.236,1.18-0.235c0.707-1.179,1.648-2.356,2.592-3.301c2.594-2.121,5.895-3.536,9.43-4.006
	c2.592-0.236,4.947,1.178,6.363,3.299C141.581,76.076,141.581,76.783,141.581,77.491 M95.854,106.483
	c1.414-0.236,3.063,0,4.241,0.941c0.943,0.707,2.121,0.943,3.3,1.65c2.594,1.648,3.772,4.949,2.358,8.014
	c-0.943,1.885-3.3,2.83-5.186,2.123c-0.943-0.238-1.887-0.709-2.594-1.416c-0.706-0.707-1.885-0.707-2.592,0
	c-0.943,0.473-1.887,1.178-2.829,1.65c-0.942,0.707-2.356,1.18-3.535,1.18c-1.651,0-3.065-0.945-3.771-2.357
	c-0.943-2.123-1.414-4.479-0.943-6.838c0.236-1.178,0.236-2.355,0.236-3.533c0-2.359,1.178-4.244,3.063-5.422
	c0.943-0.707,1.887-1.18,3.065-1.887c2.121-1.178,4.478-1.414,6.834-0.707c1.886,0.707,3.772,0.943,5.893,0.707
	c1.651,0,3.301,0.707,4.243,1.887c2.121,1.885,3.3,4.479,3.537,7.307c0,1.414-0.237,2.592-0.709,3.771
	c-0.235,0.707-0.941,1.178-1.649,1.414c-0.707,0.236-1.414,0-1.649-0.471c-0.236-0.473-0.236-1.18,0-1.65
	c0.707-0.709,0.707-1.887,0-2.594c-0.943-1.414-2.357-2.355-4.242-2.828c-1.65-0.471-3.064-1.414-4.715-1.887
	C97.268,106.01,96.561,106.01,95.854,106.483 M35.51,124.159v-0.471c0.237-1.414,0-2.592-0.47-3.77
	c-0.942-1.887-0.235-4.008,1.65-4.715c0.942-0.473,2.121-0.707,3.3-0.473h0.234c1.886,0.236,2.358-0.234,2.123-2.121
	c-0.237-1.414-0.237-3.064,0-4.479c0.235-1.414,1.649-2.357,3.063-2.121c1.651,0.236,3.064,0.707,4.243,1.65
	c1.885,1.178,2.592,3.535,1.414,5.42c-0.235,0.473-0.707,1.18-0.942,1.65c-0.472,0.943-0.236,1.887,0.471,2.594
	c0.236,0.234,0.471,0.234,0.707,0.234c1.414,0.473,3.063,0.943,4.714,1.414c0.472,0,0.707,0.238,1.179,0.238
	c0.942,0.234,1.414,1.178,1.414,2.119c-0.235,2.121-1.178,4.008-2.592,5.422c-0.944,0.943-1.885,1.887-2.593,2.828
	c-0.943,1.18-2.357,1.652-3.771,1.18c-1.885-0.473-3.772-0.236-5.657,0.707c-2.356,1.414-5.421,0.707-6.835-1.414
	c-0.236-0.236-0.236-0.473-0.471-0.707c-0.472-0.943-0.707-1.887-0.943-2.828C35.51,125.575,35.51,124.866,35.51,124.159
	 M50.833,63.113c0-0.943,0.471-1.887,1.178-2.593c1.414-1.18,2.829-2.358,4.714-3.302c1.178-0.47,2.121-1.413,2.83-2.593
	c0.471-1.178,1.648-2.121,3.062-2.121c0.237,0,0.473,0,0.473-0.471c0-0.236-0.473-0.236-0.707-0.236c-1.415,0-2.593,0.472-3.3,1.65
	c-0.472,0.942-1.179,1.649-2.121,2.357c-1.887,0.943-3.772,2.356-5.186,4.007C51.068,60.754,50.833,61.933,50.833,63.113
	 M53.189,70.182c-1.414,0-3.063-0.234-4.478-0.942c-0.943-0.472-1.65-1.414-1.65-2.356c-0.237-1.65,0-3.065,0.941-4.479
	c0.237-0.471,0.472-0.942,0.472-1.414c0.472-2.356,1.651-4.714,3.536-6.128c0.471-0.472,0.942-0.707,1.651-0.941
	c1.884-0.944,3.535-2.594,4.713-4.245c1.18-1.649,2.592-2.828,4.242-3.771c2.358-1.178,5.186-0.235,6.602,2.121
	c2.121,3.771,0.942,8.485-2.83,10.843c-0.471,0.236-1.178,0.707-1.885,0.707c-1.649,0.236-2.829,1.65-3.065,3.3
	c-0.236,1.415-0.706,2.594-1.413,3.536c-1.416,2.121-3.772,3.301-6.364,3.536C53.662,70.182,53.425,70.182,53.189,70.182
	 M43.525,85.974c0,0.709,0.707,1.179,0.707,1.887c-0.471,1.179-1.414,2.358-2.592,2.594c-0.707,0.234-1.416,0.47-1.887,0.706
	c-1.649,0.707-3.771,0.707-5.42-0.236c-1.415-0.942-1.886-2.592-1.415-4.006c0.708-3.536,3.065-6.6,6.601-8.014
	c1.649-0.473,2.828-1.65,3.771-3.065c1.414-2.121,3.772-3.535,6.364-4.008h0.943c2.592,0.709,4.714,2.83,5.186,5.659
	c0.235,1.649-0.708,3.299-2.358,4.242c-0.707,0.471-1.65,0.943-2.592,1.414c-1.179,0.708-1.414,1.178-0.707,2.357
	c0.942,1.414,1.414,3.063,1.178,4.95c-0.471,2.356-2.829,3.771-4.95,3.3c-0.236,0-0.472,0-0.707-0.236
	c-0.236-0.236-0.472-0.236-0.707-0.471c-0.943-0.707-2.121-1.18-3.299-0.943c-0.237,0-0.472,0-0.707-0.236
	c0-0.473,0.235-0.236,0.47-0.236c1.179-0.236,2.358-0.942,2.829-2.12C45.175,88.333,44.704,86.683,43.525,85.974 M61.674,130.76
	c0.471,0.707,1.415,1.178,2.122,1.414c3.535,0.707,7.071-0.941,8.957-3.771c0.943-1.18,0.707-2.592-0.235-3.537
	c-1.179-1.178-1.886-1.414-3.535-0.471c-0.473,0.236-0.708,0.471-0.944,0.707c-0.236,0.236-0.472,0.473-0.472,0.943
	c0.943-0.471,1.887-0.707,2.83-1.18c0.707-0.471,1.414,0,1.885,0.473s0.943,1.18,0.471,1.885c-0.471,0.943-1.178,1.65-2.121,2.123
	c-1.414,0.471-2.829,1.178-4.243,1.648C64.739,131.702,63.089,131.702,61.674,130.76 M61.438,130.053
	c0.473-1.887,1.416-3.535,2.829-4.715c0.943-1.18,1.414-2.357,2.358-3.535c0.706-0.707,1.648-1.178,2.593-1.178
	c1.414,0,2.592,0,4.006,0.234c0.471,0,1.178,0,1.651-0.471c0.942-0.709,1.414,0,1.649,0.471c0.943,1.65,1.178,3.771,0.707,5.893
	c-1.651,4.715-6.128,8.014-11.079,8.25h-4.008c-1.178,0-2.356-0.473-3.063-1.65c-2.121-3.064-1.414-7.307,1.651-9.428
	c0.706-0.473,1.178-1.414,1.413-2.357c0.708-2.594,2.594-4.715,4.95-5.893c1.178-0.707,2.594-0.471,3.536,0.236
	c0.472,0.471,1.179,0.707,1.886,0.707c0.942,0,1.649,0.471,2.121,1.414c0.237,0.236,0.237,0.471,0.237,0.941
	c-0.237,0.473-0.473,0.238-0.944,0.238c-1.649,0-3.299-0.473-5.186-0.238c-0.943,0-1.65,0.473-2.12,1.18
	c-0.472,0.473-0.708,0.943-1.179,1.414c-0.943,1.885-2.357,3.535-3.301,5.656C61.438,128.403,61.203,129.346,61.438,130.053
	 M36.454,98.231c1.885-0.236,3.771,0.943,4.008,3.064c0.707,2.123,0.235,4.479-0.943,6.365c-0.944,1.648-2.122,3.299-3.536,4.713
	c-0.943,0.943-2.121,1.65-3.536,1.416c-1.414-0.236-3.064,0.234-4.242,0.941c-0.236,0-0.471,0.236-0.707,0.236
	c-1.651,0.707-3.772,0-4.479-1.887c-0.236-0.707-0.471-1.412-0.236-2.121c0-0.941,0.472-2.121,0.943-3.063
	c0.707-1.65,1.414-3.066,2.357-4.479c0.944-1.416,2.593-2.594,4.243-3.064c0.707-0.473,1.414-0.707,2.121-1.18
	C33.626,98.704,35.04,98.231,36.454,98.231 M132.86,32.469h-0.473c-3.064-0.471-5.893,0.472-8.25,2.356
	c-2.592,2.123-4.949,4.715-6.834,7.543c-1.18,1.886-1.888,4.008-1.888,6.13c0,0.707,0,1.177,0.235,1.649
	C117.774,41.426,124.374,34.591,132.86,32.469 M123.194,53.683c4.008,0,8.016-1.414,11.08-4.243
	c1.885-1.884,3.535-4.007,4.713-6.364c1.18-1.886,1.414-4.006,0.941-6.127c-0.469-2.123-2.355-3.535-4.477-3.535
	c-2.357,0.47-4.479,1.178-6.6,2.119c-4.479,2.358-7.779,6.13-9.9,10.607c-0.707,1.416-1.178,3.065-1.178,4.479
	c-0.236,1.179,0.471,2.122,1.65,2.357C120.366,53.448,121.78,53.683,123.194,53.683 M123.431,55.333
	c-1.885,0-3.535-0.235-5.186-0.942c-3.771-1.649-5.656-6.129-4.479-10.136c0.943-2.828,2.592-5.421,4.715-7.306
	c1.414-1.416,3.064-2.593,4.713-3.772c3.301-2.356,7.543-3.064,11.551-2.121c1.414,0.236,2.828,0.707,4.242,1.65
	c3.064,2.12,4.008,6.128,2.594,9.663c-1.18,2.829-2.828,5.422-4.715,7.543c-2.592,2.829-6.129,4.714-10.135,5.421H123.431
	 M75.11,44.02c0,1.178-0.472,2.356-1.65,3.063c-0.942,0.473-2.121,0.473-3.063-0.236c-0.707-0.707-1.651-1.178-2.594-1.178
	c-0.942-0.236-1.649-1.415-1.414-2.358c0-0.235,0-0.235,0.237-0.47c1.177-2.594,4.242-3.536,6.834-2.122
	C74.638,41.19,75.347,42.606,75.11,44.02 M54.603,100.116c0,0.709-0.236,1.416-0.941,1.652c-1.651,0.471-3.536-0.236-4.243-1.887
	c-0.236-1.414,0.707-2.828,2.121-3.301c0.472,0,1.179,0,1.65,0.473C53.896,97.76,54.367,98.938,54.603,100.116" class="color c1"/>
</svg>