<svg version="1.1" id="图层_1" x="0px" y="0px" width="97.161px" height="86.958px" viewBox="0 0 97.161 86.958" enable-background="new 0 0 97.161 86.958" xml:space="preserve" xmlns="http://www.w3.org/2000/svg" xmlns:xlink="http://www.w3.org/1999/xlink" xmlns:xml="http://www.w3.org/XML/1998/namespace">
  <path fill="#BC9975" d="M90.52,77.224h-1.042c-6.272,0-11.801-3.227-15.03-8.103l-6.594,6.596
	c-4.521,4.522-12.166-2.396-7.279-7.283l10.885-10.885V7.723C71.459,3.464,67.997,0,63.737,0s-7.723,3.464-7.723,7.723v51.482
	c0,6.784-10.296,6.784-10.296,0V7.723C45.718,3.464,42.254,0,37.996,0s-7.723,3.464-7.723,7.723v51.482
	c0,7.103-10.296,7.103-10.296,0V7.723C19.977,3.464,16.513,0,12.254,0c-3.018,0-5.63,1.743-6.899,4.273
	C5.354,4.271,5.352,4.27,5.351,4.268C1.919,11.695,0,19.965,0,28.684c0,32.184,26.09,58.273,58.273,58.273
	c1.551,0,3.087-0.064,4.606-0.184l-0.174,0.067c17.574-0.925,34.455-9.597,34.455-9.597h-6.672
	C90.499,77.237,90.51,77.231,90.52,77.224z" class="color c1"/>
</svg>