<svg version="1.1" id="图层_1" x="0px" y="0px" width="284.271px" height="293.469px" viewBox="0 0 284.271 293.469" enable-background="new 0 0 284.271 293.469" xml:space="preserve" xmlns="http://www.w3.org/2000/svg" xmlns:xlink="http://www.w3.org/1999/xlink" xmlns:xml="http://www.w3.org/XML/1998/namespace">
  <path fill="#FCE9EE" d="M284.197,162.005c-0.19-0.449-0.366-0.916-0.948-0.916c-0.03,0-0.064,0.001-0.096,0.002
	c-0.19-0.276-1.294-0.336-0.22-0.982c0.071-0.045-0.64-1.139-1.278-1.519c-0.526-0.317-1.189-0.62-0.539-1.413
	c0.738,0.262,0.873,1.402,1.756,1.402c0.093,0,0.197-0.013,0.308-0.042c-0.057-0.271-0.116-0.542-0.172-0.813
	c-0.376-0.176-0.376-0.176,0.045-1.143h0h0c-0.019-0.091-0.038-0.18-0.057-0.27c-0.091,0.018-0.182,0.039-0.273,0.059
	c-0.078,0.15-0.176,0.237-0.282,0.237c-0.076,0-0.157-0.049-0.231-0.161c-0.254-0.375-0.543-0.563-0.871-0.563
	c-0.202,0-0.42,0.07-0.653,0.211c-0.119,0.072-0.238,0.119-0.35,0.119c-0.099,0-0.19-0.036-0.273-0.122
	c-0.259-0.272,0.045-0.505,0.118-0.749c0.056-0.189,0.124-0.251,0.199-0.251c0.112,0,0.245,0.132,0.391,0.178
	c0.494,0.155,1.023,0.204,1.678,0.226c-1.437-0.744-1.185-1.667-0.47-2.65l0,0c-0.128-0.162-0.256-0.322-0.385-0.485
	c0.819-0.511,0.56-1.286,0.337-1.923c-0.197-0.564,0.044-1.331,0.655-1.402c-0.471-0.816-0.822-1.648-0.298-2.579
	c0.127-0.228,0.068-0.399-0.094-0.608c-0.5-0.642-0.364-1.295,0.162-1.822c0.379-0.381,0.464-0.759,0.33-1.236
	c-0.53-0.33-1.091-0.744-0.543-1.387c0.917-1.082,0.561-1.465-0.675-1.639c-0.839-0.119-1.68-0.354-1.188-1.52
	c0.002-0.006,0.006-0.013,0.008-0.02c0.003-0.008,0.005-0.012,0.008-0.018c-0.003-0.008-0.006-0.014-0.008-0.02
	c0.003,0.002,0.008,0.003,0.013,0.003c0.06-0.957,0.915-1.563,1.382-2.173c0.715-0.934-0.092-0.996-0.302-1.414
	c-0.141-0.287-0.279-0.385-0.413-0.385c-0.267,0-0.52,0.393-0.778,0.448c-0.226,0.048-0.37,0.364-0.615,0.364
	c-0.063,0-0.129-0.018-0.203-0.065c-0.205-0.128-0.305-0.344-0.177-0.597c0.18-0.363,0.426-0.486,0.875-0.493
	c0.793-0.007,1.567-0.219,2.229-0.881c-0.875-0.036-1.071-0.87-1.753-0.981c0.153-0.291,0.302-0.367,0.489-0.367
	c0.047,0,0.097,0.006,0.148,0.013c0.319,0.044,0.573,0.583,0.866,0.583c0.107,0,0.219-0.07,0.344-0.269
	c0.264-0.421-0.539-0.708-0.723-1.149c-0.064-0.16-0.237-0.272-0.329-0.426c-0.246-0.406-0.49-0.582-0.74-0.582
	c-0.269,0-0.541,0.211-0.816,0.563l-0.011,0.029c0.106,0.051,0.166,0.191,0.246,0.289c0.06,0.119,0.074,0.301-0.051,0.301
	c-0.006,0-0.012,0-0.015-0.001c-0.247-0.027-0.565-0.088-0.704-0.259c-0.175-0.211,0.139-0.229,0.275-0.301
	c0.063-0.035,0.115-0.048,0.162-0.048c0.031,0,0.057,0.007,0.082,0.017l0.016-0.027c-0.255-1.412-1.718-1.804-2.498-2.868
	c0.447-0.251,1.108,0.105,1.353-0.622c-0.197,0.002-0.373,0.039-0.52,0.039c-0.079,0-0.15-0.013-0.21-0.043
	c-0.215-0.111-0.423-0.174-0.616-0.174c-0.28,0-0.529,0.129-0.727,0.415c-0.433,0.625,0.379,0.688,0.558,1.048
	c0.104,0.207,0.642,0.466,0.346,0.549c-0.747,0.213-0.521,1.108-1.146,1.412c-0.06-0.799-0.148-1.511-0.983-1.746
	c-1.104-0.311-1.108-0.445-0.335-1.379c0.361-0.438,1.274-0.587,0.924-1.481c-0.494-1.076,0.356-1.442,1.012-1.909
	c0.322-0.051,0.627-0.237,0.959-0.237c0.149,0,0.305,0.038,0.47,0.144c0.045,0.029,0.112,0.048,0.186,0.048
	c0.164,0,0.355-0.099,0.356-0.416c0.005-1.573,0.737-2.629,2.273-3.093c0.122-0.036,0.22-0.159,0.33-0.242l-0.001-0.003
	c0.002,0,0.004,0.003,0.008,0.003c1.1-0.934,1.391-2.473,1.313-3.545c-0.079-1.073-0.1-2.321-0.521-3.418
	c-0.389,0.109-0.736,0.164-1.043,0.164c-1.002,0-1.566-0.581-1.641-1.734c-0.031-0.482-0.519-0.611-0.595-1.143
	c-0.218-1.526,0.663-2.016,1.847-2.343c0.66,1.507,0.406,3.325,1.378,4.784c-0.74-2.66-0.688-5.477-1.49-8.105
	c-0.386-1.267-0.73-2.535-1.03-3.818c-0.313-1.752-1.234-3.285-1.792-4.953c-0.191-0.566,0.205-1.246-0.369-1.676
	c-0.87-0.648-1.9-1.117-2.199-2.334c-0.051-0.206-0.52-0.346-0.818-0.441c-0.142-0.047-0.27-0.07-0.375-0.07
	c-0.299,0-0.42,0.196-0.166,0.65c0.303,0.542,0.472,1.202-0.152,1.383c-0.064,0.018-0.121,0.025-0.171,0.025
	c-0.471,0-0.408-0.736-0.615-1.1c-0.071-0.119-0.233-0.273-0.202-0.348c0.358-0.871-1.229-2.176,0.636-2.74
	c0.354-0.107,0.415-0.668,0.23-1.106c-0.345-0.823-0.899-1.329-1.81-1.522c-0.561-0.119-1.286-0.29-0.337-1.109
	c0.773-0.672,0.388-1.727-0.68-2.033c-0.468-0.135-0.767-0.563-0.468-0.685c1.178-0.479,0.796-1.524,0.827-2.266
	c0.041-0.847,0.883-1.718,0.443-2.318c-0.792-1.087-0.757-2.335-1.169-3.478c-0.245-0.678-0.187-1.421-0.763-2.027
	c-1.009-1.065-1.51-2.361-1.442-3.887c0.039-0.869-0.272-1.622-0.851-2.387c-0.631-0.833-1.366-1.527-2.059-2.283
	c-0.621-0.677-0.535-1.644-0.767-2.48c-0.278-0.997-1.19-1.21-1.944-1.234c-0.005,0-0.011,0-0.017,0
	c-0.492,0-0.836,0.664-0.755,1.379c0.052,0.473-0.074,0.659-0.299,0.659c-0.163,0-0.378-0.097-0.613-0.255
	c-0.495-0.328-1.011-0.637-1.62-0.637c-0.095,0-0.193,0.008-0.293,0.023c-0.104,0.018-0.196,0.026-0.28,0.026
	c-0.392,0-0.589-0.198-0.771-0.739c-0.288-0.854-0.823-1.514-1.734-1.514c-0.211,0-0.443,0.036-0.697,0.115
	c-0.195,0.058-0.393,0.088-0.585,0.088c-0.512,0-0.995-0.209-1.304-0.637c-1.391-1.935-3.406-3.145-5.183-4.63
	c-0.201-0.169-0.425-0.257-0.645-0.257c-0.133,0-0.266,0.033-0.386,0.1c-1.321,0.724-2.76,0.463-4.154,0.578
	c-0.162,0.043-0.323,0.063-0.483,0.063c-0.2,0-0.401-0.032-0.601-0.093c-0.321-0.098-0.63-0.211-0.691-0.58
	c-0.068-0.393,0.241-0.645,0.52-0.721c1.662-0.453,1.861-1.404,1.037-2.777c-0.085-0.138-0.113-0.365-0.066-0.522
	c0.449-1.507,0.57-3.121,1.608-4.437c0.586-0.746,1.183-1.532,1.324-2.535c0.664-0.34,0.137-1.092,0.528-1.525
	c1.23-1.229,1.632-2.974,2.689-4.313c1.037-1.311,0.92-3.467,0.133-4.62c-0.614-0.902-3.028-1.716-4.423-1.716
	c-0.297,0-0.551,0.036-0.728,0.119c-0.733,0.338-1.473,0.483-2.206,0.483c-0.866,0-1.724-0.203-2.558-0.53
	c-0.683-0.268-1.329-0.533-1.909-0.533c-0.638,0-1.198,0.322-1.635,1.316c-0.056,0.129-0.353,0.134-0.469,0.258
	c-0.988,1.043-2.374,1.248-3.639,1.553c-0.981,0.237-1.994,0.59-2.995,0.59c-0.759,0-1.512-0.203-2.24-0.811
	c-0.162-0.138-0.363-0.21-0.557-0.21c-0.175,0-0.343,0.058-0.477,0.177c-1.346,1.197-3.101,1.977-3.915,3.715
	c-0.342,0.731-0.819,1.252-1.498,1.717c-0.666,0.452-0.965,1.22-0.455,2.059c0.217,0.359,0.479,0.889,0.141,1.145
	c-0.782,0.593-0.949,2.209-2.114,2.209c-0.262,0-0.574-0.082-0.951-0.275c-0.014-0.004-0.029-0.008-0.046-0.008
	c-0.062,0-0.15,0.045-0.223,0.061c-0.241-0.071-0.331-0.262-0.385-0.482c-0.751-0.408-1.505-0.807-2.25-1.224
	c-0.209-0.116-0.385-0.198-0.494-0.198c-0.147,0-0.169,0.152,0.017,0.576c-0.099,0.068-0.195,0.096-0.288,0.096
	c-0.21,0-0.41-0.135-0.609-0.269c-0.198-0.136-0.398-0.269-0.608-0.269c-0.161,0-0.326,0.08-0.504,0.299l-0.001,0.006l0,0
	c-0.002,0-0.002,0-0.002,0c0.002-0.001,0.003-0.004,0.003-0.006c-0.134-0.766-0.753-1.072-1.346-1.072c-0.025,0-0.048,0-0.074,0.002
	c-0.085,0.004-0.17,0.006-0.253,0.006c-2.009,0-3.625-1.052-4.915-2.297c-1.377-1.332-2.799-2.674-4.018-4.149
	c-0.431-0.522-1.176-0.206-1.181-0.644c-0.014-1.303-1.361-1.375-1.827-2.211c-0.125-0.223-0.319-0.482-0.48-0.482
	c-0.031,0-0.063,0.012-0.094,0.034c-0.293,0.245-0.561,0.335-0.815,0.335c-0.638,0-1.18-0.576-1.792-0.696
	c-1.058-0.658-2.412-0.916-2.884-2.357c-0.098-0.304-1.157-0.227-0.372-0.978c0.175-0.168-0.161-0.287-0.295-0.349
	c-0.952-0.437-0.883-1.158-0.612-1.978c0.12-0.367,0.355-0.93-0.309-0.967c-1.198-0.063-1.563-0.843-1.671-1.805
	c-0.061-0.529-0.3-0.709-0.745-0.799c-0.32-0.064-0.648-0.161-0.784-0.498c-0.488-1.205-1.492-1.885-2.523-2.55
	c-0.176-0.114-0.365-0.302-0.301-0.567c0.015-0.055,0.129-0.101,0.206-0.124c0.456-0.137,0.501-0.19,0.273-0.366
	c-0.456-0.349-0.423-0.926-0.628-1.267c-0.368-0.608,0.056-1.83-0.847-1.83c-0.01,0-0.023,0-0.034,0
	c-0.022,0.001-0.044,0.003-0.066,0.003c-0.735,0-1.044-0.439-1.526-0.713c-0.294-0.169-0.619-0.619-0.823-0.619
	c-0.012,0-0.025,0.002-0.035,0.005c-0.241,0.076-0.476,0.106-0.706,0.106c-0.497,0-0.977-0.145-1.46-0.289
	c-0.485-0.145-0.976-0.289-1.497-0.289c-0.109,0-0.222,0.006-0.334,0.02c-0.51,0.066-1.105,0.227-1.702,0.227
	c-0.424,0-0.85-0.082-1.245-0.337c-0.004-0.002-0.009-0.003-0.014-0.003c-0.068,0-0.274,0.131-0.283,0.205
	c-0.056,0.459-0.163,0.597-0.322,0.597c-0.175,0-0.416-0.165-0.729-0.258c-1.337-0.396-1.693-1.687-2.58-2.472
	c-0.786-0.697-1.214-1.795-1.8-2.717c-0.795-0.172-1.547-0.638-2.366-0.638c-0.272,0-0.551,0.052-0.844,0.182
	c-0.109-0.07-0.217-0.143-0.328-0.212c-0.867-0.305-1.753-0.895-2.599-0.895c-0.041,0-0.081,0.002-0.123,0.004
	c-1.963,0.139-3.895,0.779-5.858,0.9c-0.816,0.051-1.604,0.596-2.302,0.596c-0.147,0-0.29-0.025-0.43-0.084
	c-1.646-0.691-3.405-0.963-5.052-1.6c-0.33-0.212-0.659-0.426-0.986-0.639c-1.306-1.313-2.597-2.643-3.928-3.932
	c-1.518-1.471-3.613-1.668-5.479-1.849C137.476,0.007,137.309,0,137.14,0c-1.054,0-2.279,0.282-3.352,0.673
	c-0.1-0.016-0.195-0.023-0.287-0.023c-0.32,0-0.614,0.086-0.958,0.247c-1.225,0.577-2.191,1.531-3.425,2.104
	c-1.405,0.652-2.664,1.612-4.019,2.382c-0.78,0.442-1.924,0.558-2.375,1.193c-0.742,1.051-1.626,1.236-2.712,1.251
	c-0.249,0.24-0.497,0.336-0.78,0.336c-0.18,0-0.377-0.041-0.597-0.107c-0.222-0.066-0.452-0.11-0.671-0.11
	c-0.482,0-0.921,0.208-1.147,0.839c-0.124,0.311-0.247,0.619-0.371,0.93c-0.79,0.299-1.668,0.475-2.346,0.939
	c-0.51,0.348-1.333-0.115-1.551,0.613c-0.517,1.732-1.823,2.942-2.776,4.384c0.114-0.05,0.229-0.083,0.342-0.112
	c-0.109,0.045-0.223,0.083-0.342,0.112l-0.001,0.003c-0.676,0.402-1.566,0.473-1.994,1.269c-0.051-0.007-0.099-0.01-0.145-0.01
	c-0.967,0-1.344,1.198-2.168,1.25c-2.61,0.167-4.862,1.379-7.275,2.131c-0.934,0.292-1.298,1.23-2.375,1.259
	c-1.697,0.041-2.155,2.227-3.799,2.538c-0.134,1.271-1.4,1.638-2.01,2.527c-0.072,0.243-0.265,0.331-0.485,0.386
	c-0.827,0.553-1.655,1.104-2.482,1.656l0,0c-1.056,0.643-1.511,1.897-2.582,2.523c-1.977,1.032-4.248,1.303-6.202,2.449
	c-0.373,0.218-0.474,0.544-0.776,0.723c-0.005,0-0.011,0-0.016,0c-0.051,0-0.107-0.017-0.162-0.033
	c-0.056-0.016-0.11-0.033-0.161-0.033c-0.08,0-0.151,0.04-0.201,0.18c-0.16-0.024-0.312-0.047-0.471-0.047
	c-0.105,0-0.21,0.01-0.325,0.033c-1.746,0.376-3.465,0.827-5.104,1.549c-1.826,0.396-3.043,1.958-4.678,2.541
	c-1.006,0.358-1.062,1.627-2.074,1.627c-0.017,0-0.036,0-0.054-0.001c-0.036-0.001-0.07-0.002-0.104-0.002
	c-0.915,0-0.533,0.599-0.482,1.069c-0.091,0.021-0.181,0.038-0.269,0.059c-0.105-0.158-0.219-0.574-0.308-0.574
	c-0.018,0-0.032,0.016-0.048,0.051c-0.574,1.375-2.055,1.327-2.998,2.08c-0.168,0.492-0.413,0.631-0.684,0.631
	c-0.178,0-0.369-0.061-0.559-0.119c-0.19-0.06-0.38-0.119-0.557-0.119c-0.033,0-0.064,0.002-0.096,0.006
	c-0.987-0.809-1.904-1.215-2.701-1.215c-1.089,0-1.952,0.763-2.453,2.305c-1.109,0.55-1.758,1.523-2.473,2.493
	c-1.375,1.864-2.917,3.606-4.012,5.669c-0.276,0.301-0.532,0.623-0.837,0.889c-0.214,0.188-0.472,0.307-0.735,0.307
	c-0.136,0-0.274-0.031-0.407-0.104c-0.521-0.283-0.024-0.639,0.034-0.945c0.135-0.721,0.771-1.169,1.168-1.782
	c-0.134-0.04-0.267-0.058-0.399-0.058c-0.452,0-0.901,0.203-1.346,0.407c-0.443,0.203-0.88,0.406-1.309,0.406
	c-0.479,0-0.947-0.253-1.403-1.044c-0.2,0.396-0.071,1.063-0.521,1.063c-0.099,0-0.226-0.032-0.392-0.107
	c-0.23-0.497-0.553-0.803-0.94-0.803c-0.211,0-0.438,0.09-0.68,0.285c-1.572,1.268-3.131,2.621-4.123,4.377
	c-1.336,2.365-2.941,4.25-5.736,4.797c-0.788,0.582-1.498,1.26-2.492,1.548c-0.473,0.137-0.778,0.624-0.908,1.145
	c-3.441,2.304-6.175,5.279-8.602,8.627c-1.503,2.073-2.78,4.298-4.384,6.293l0,0c-0.125,0.308-0.249,0.617-0.372,0.925
	c-0.919,1.118-1.699,2.322-2.354,3.611c-0.619,1.742-1.784,3.383-0.995,5.393c0.04,0.101-0.012,0.288-0.088,0.379
	c-0.708,0.831-0.757,1.979-1.328,2.848c-1.579,2.406-1.525,3.997,1.964,4.848c0.49,0.121,1.599,0.672,0.828,1.744h0
	c-0.837,0.411-1.391,1.15-1.374,2.009c0.028,1.503-0.61,2.787-1.005,4.153c-0.823,0.592-0.855,1.96-2.097,2.142
	c-1.035,0.502-1.79,1.122-1.194,2.445c0.236,0.524,0.124,1.13-0.051,1.632c-0.305,0.876-1.041,1.595-0.539,2.688
	c0.53,1.157,1.584,0.873,2.466,1.143c0.855,0.262,1.4,0.691,0.92,1.84c-0.482,1.146-0.87,2.316-1.595,3.349
	c-1.596,2.261-1.86,5.03-2.091,7.567c-0.173,1.906-0.371,3.826-0.582,5.743c-0.195,1.776-1.043,3.376-0.883,5.279
	c0.233,2.761-0.271,5.468-1.228,8.157c-0.607,1.707-1.071,3.536-0.81,5.618c0.266,2.122,0.544,3.995,1.772,5.792
	c0.565,0.827,1.229,1.736,0.748,3.115c-1.182,3.385-0.394,6.749,0.63,10.063c0.385,1.242,1.609,2.199,1.447,3.572
	c-0.23,1.961,0.633,3.655,1.538,5.104c1.43,2.283,1.92,4.831,2.665,7.283c0.848,2.801,1.525,5.647,3.833,7.594
	c2.153,1.814,2.152,4.865,4.167,6.703c0.121,0.109,0.23,0.352,0.193,0.492c-0.264,1.02,0.493,1.592,0.962,2.289
	c0.203,0.302,0.58,0.557,0.634,0.874c0.27,1.573,1.444,2.49,2.412,3.579c1.375,1.543,2.82,3.051,3.997,4.739
	c1.11,1.597,1.52,3.57,2.236,5.378c0.384,0.963,0.771,1.839,1.822,2.279c0.486,0.205,0.98,0.493,1.182,1.094
	c0.766,2.26,2.875,3.236,4.559,4.568c1.746,1.382,3.411,2.831,5.025,4.354c0.487,0.458,0.014,1.344,0.853,1.601
	c0.96,0.296,1.614,1.231,2.72,1.278c0.345,0.013,0.769,0.306,0.745,0.711c-0.073,1.301,1.033,2.11,1.542,3.038
	c1.132,2.057,2.973,3.738,4.897,5.223c0.734,0.567,1.663,1.264,1.858,2.058c0.423,1.737,1.896,2.565,2.92,3.668
	c0.726,0.78,1.475,1.956,2.765,2.148c0.855,0.13,1.49,0.648,1.873,1.293c0.542,0.911,1.38,1.288,2.236,1.711
	c1.893,0.931,3.494,2.405,4.477,4.102c0.928,1.6,2.072,2.505,3.564,3.382c1.099,0.648,2.348,0.973,3.361,1.82
	c2.007,1.678,3.91,3.463,5.716,5.345c0.601,0.63,1.355,1.227,2.058,1.282c1.343,0.109,2.548,0.674,3.856,0.829
	c1.169,0.14,2.277,0.438,3.281,1.156c1.858,1.331,3.302,3.118,5.165,4.453c1.555,1.117,3.179,2.123,4.741,3.219
	c0.877,0.616,1.831,0.158,2.6,0.533c1.39,0.674,2.84,1.376,3.975,2.393c2.676,2.397,5.737,3.921,9.177,4.792
	c0.99,0.25,1.988,0.609,2.733,1.269c1.279,1.133,2.669,1.938,4.32,1.938c0.205,0,0.415-0.012,0.625-0.038
	c0.134-0.015,0.265-0.024,0.394-0.024c1.37,0,2.53,0.821,3.868,0.828c0.931,0.008,1.801,0.122,2.745,0.343
	c2.52,0.587,5.114,0.933,7.72,0.933c0.749,0,1.497-0.029,2.246-0.088c0.198-0.017,0.397-0.025,0.59-0.025
	c0.391,0,0.771,0.033,1.131,0.091c1.135,0.181,2.244,0.361,3.363,0.361c0.913,0,1.832-0.118,2.773-0.458
	c0.543-0.195,1.214-0.353,1.867-0.353c0.534,0,1.055,0.106,1.477,0.39c1.174,0.782,2.7,0.056,3.687,1.143
	c0.313-0.068,0.62-0.098,0.922-0.098c0.85,0,1.672,0.229,2.502,0.457c0.826,0.229,1.657,0.458,2.521,0.458
	c0.285,0,0.572-0.024,0.864-0.083c0.155-0.031,0.31-0.043,0.469-0.043c0.354,0,0.716,0.063,1.079,0.123
	c0.365,0.063,0.728,0.124,1.087,0.124c0.559,0,1.104-0.149,1.607-0.682c0.42-0.179,0.828-0.458,1.262-0.517
	c2.858-0.381,5.231-2.183,8.021-2.717c1.99-0.385,3.572-1.728,5.572-2.125c1.724-0.341,3.433-0.828,5.182-0.828
	c0.167,0,0.334,0.003,0.501,0.012c0.397,0.023,0.79,0.037,1.177,0.037c1.584,0,3.092-0.244,4.465-1.219
	c0.473-0.336,1.076-0.268,1.565-0.494c1.756-0.816,3.326-1.92,4.733-3.25c0.121,0.052,0.237,0.072,0.347,0.072
	c0.283,0,0.537-0.141,0.806-0.295c1.342-0.766,2.812-1.381,4.32-1.381c0.065,0,0.133,0,0.201,0.003
	c0.09,0.003,0.18,0.006,0.269,0.006c1.477,0,2.792-0.442,4.166-0.815c1.798-0.484,3.473-1.491,4.43-2.871
	c1.77-2.551,4.164-3.563,6.98-4.074c0.121-0.016,0.241-0.021,0.364-0.021c0.2,0,0.404,0.016,0.606,0.029
	c0.203,0.017,0.406,0.031,0.606,0.031c0.615,0,1.215-0.141,1.739-0.853c0.172-0.235,1.138-0.629,1.822-0.629
	c0.193,0,0.364,0.032,0.488,0.106c0.281,0.172,0.472,0.24,0.603,0.24c0.396,0,0.252-0.617,0.432-0.875c0.002,0,0.002,0,0.003-0.002
	c0.09-0.02,0.179-0.039,0.269-0.057c0.054,0.005,0.103,0.008,0.151,0.008c0.834,0,1.284-0.893,2.03-0.988
	c1.308-0.166,1.618-1.012,1.7-2.104l0.135-0.027l0.134-0.029c0.076,0.047,0.155,0.132,0.231,0.132h0.002
	c1.74-0.057,2.689-1.688,4.327-2.176c0.866-0.259,1.73-1.74,2.672-2.596c-0.325,0.158-0.637,0.363-0.973,0.449
	c0.309-0.172,0.633-0.324,0.973-0.449c0.089-0.02,0.178-0.039,0.269-0.059c0.076,0.043,0.176,0.076,0.255,0.076
	c0.048,0,0.09-0.011,0.115-0.041c0.059,0.004,0.115,0.006,0.171,0.006c0.641,0,1.172-0.21,1.534-0.984
	c0.225-0.484,0.564-0.975,1.081-1.339c0.42-0.296,1.041-0.655,0.877-1.399c0.073-0.11,0.143-0.221,0.215-0.329
	c1.142-0.487,1.335-1.502,1.44-2.569c0.178-0.588,1.014-0.245,1.214-0.955c0.351-1.245,0.735-2.523,1.375-3.633
	c0.61-1.056,1.079-2.195,2.197-3.017c1.995-1.468,3.58-3.421,5.236-5.269c1.585-0.602,2.96-1.568,3.791-3.012
	c0.798-1.393,1.692-2.689,2.698-3.922c0.719-0.88,1.282-2.006,2.19-2.576c1.121-0.705,0.971-1.938,1.685-2.766
	c1.067-1.24,1.276-2.741,1.168-4.353c-0.06-0.86,0.167-1.72,0.961-2.317c1.159-0.868,1.765-2.139,2.316-3.432
	c-0.018-0.09-0.038-0.181-0.056-0.271c0.073-0.109,0.144-0.218,0.215-0.327c0.271-0.427,0.433-0.892,0.569-1.382
	c0.232-0.832,0.124-1.971,0.572-2.469c1.578-1.764,0.718-4.503,2.612-6.063c0.018-0.014-0.179-0.29-0.276-0.447
	c0.069-0.107,0.141-0.219,0.213-0.325c-0.058-0.271-0.115-0.542-0.172-0.815c0.691-0.313,0.502-1.07,0.797-1.583
	c0.833-0.946,1.741-1.856,1.41-3.304c-0.015-0.064,0.091-0.226,0.123-0.226c0,0,0.001,0,0.001,0.001
	c0.137,0.023,0.26,0.035,0.367,0.035c1.44,0,0.386-1.952,1.379-2.291c0.007-0.005,0.017-0.008,0.028-0.011
	c0.484-1.17,1.232-2.962,0.749-3.536c-0.961-1.135,0.652-1.414,0.272-2.174c-0.141-0.285,0.123-0.723-0.106-1.152
	c-0.237-0.447-0.096-0.52,0.118-0.52c0.052,0,0.108,0.004,0.164,0.009c0.057,0.005,0.113,0.009,0.165,0.009
	c0.075,0,0.144-0.009,0.188-0.039c-0.479-0.957-0.005-4.07,0.712-4.68c0.519-2.18,1.037-4.355,1.549-6.535
	c0.068-0.287,0.848-0.123,0.475-0.576c-0.563-0.684-0.062-1.002,0.347-1.303c0.458-0.335,0.494-0.736,0.606-1.25
	c0.334-1.515,0.181-3.256,1.736-4.311c0.303-0.205,0.274-0.746,0.111-1.021c-0.162-0.271-0.454-0.596-0.358-0.826
	c0.79-1.896-0.14-4.02,0.859-5.912c0.288-0.547,0.22-1.273,0.928-1.579C283.589,164.521,284.383,163.251,284.197,162.005z" class="color c1"/>
</svg>