<svg version="1.1" id="图层_1" x="0px" y="0px" width="162.543px" height="146.069px" viewBox="0 0 162.543 146.069" enable-background="new 0 0 162.543 146.069" xml:space="preserve" xmlns="http://www.w3.org/2000/svg" xmlns:xlink="http://www.w3.org/1999/xlink" xmlns:xml="http://www.w3.org/XML/1998/namespace">
  <path fill="#861A4A" d="M162.423,136.283c-0.576-1.635-2.446-3.751-2.936-4.371c-0.138-0.172-0.411-0.156-0.752-0.057
	c-0.349-0.412-0.735-1.192-1.024-1.845l0.049-0.021l-0.548-1.906l-0.005,0.003c0.19-0.132,0.376-0.265,0.553-0.398
	c0,0-3.165-5.887-4.535-10.78c-1.37-4.894-4.176-8.417-4.764-13.503c-0.588-5.089-1.043-6.067-0.588-9.916
	c0.321-2.705,0.159-11.711,0.035-16.835c0.509-1.122,0.912-2.282,1.174-3.466c0.539-0.014,1.067-0.07,1.576-0.184
	c0,0-0.942-9.747-0.222-17.763c1.441-0.509,2.707-0.999,3.525-1.407c3.244-1.625,2.634-4.271,2.094-6.266
	c-0.229-0.85-1.285-4.06-2.421-7.467c0.055-0.772,0.011-1.526-0.149-2.456c-0.585-3.376-4.091-9.649-4.127-9.715
	c-0.621-2.924-0.35-4.436-0.35-4.436l-0.004,0c0.699-1.397,1.249-2.817,1.626-3.911c0.097-0.281,0.182-0.575,0.261-0.873
	c0.57-1.613,1.141-3.566,1.317-5.325c0.393-3.879-2.388-4.41-2.388-4.41c-2.88-0.672-7.276-3.511-10.246-1.48
	c-2.492,1.704-1.742,5.39-1.436,6.533c-0.289,0.749-0.46,1.643-0.468,2.711c-0.053,7.489,1.064,10.84,4.083,11.809
	c0.001,0.004,0.001,0.007,0.001,0.01c0.022,0.594,0.029,1.211,0.019,1.783c-0.012,0.823-0.041,1.557-0.062,1.995
	c-1.597,1.182-3.617,2.597-6.426,3.759l0.681,0.975c-2.658,1.921-5.044,2.522-7.715,3.33c-3.112,0.94-5.127,1.997-5.585,1.881
	c-1.897-0.481-4.871-1.159-8.336-2.657c-2.579-1.114-6.951-3.429-6.951-3.429s-4.174-2.337-5.146-2.808
	c-1.047-0.506-3.582-0.25-5.233,0.055c-1.528-0.131-3.824-0.438-4.345-0.526c-4.08-0.698-4.601-0.102-4.601-0.102
	s-4.937,3.386-7.278,4.599c-2.338,1.212-5.434,4.516-5.977,4.265c-0.544-0.251-4.809-8.153-6.105-10.578
	c-1.295-2.426-3.861-4.099-3.861-4.099c-0.725-0.584-6.047-1.88-6.047-1.88s-0.329-0.048-0.832-0.117
	c0.01-0.105,0.017-0.216,0.026-0.315c0.071-0.771,0.151-1.355,0.151-1.355c0-0.001-0.001-0.002-0.001-0.002
	c1.894-0.592,3.697-2.91,4.219-7.811c0.104-0.973,0.128-1.839,0.091-2.616h0.002c0.041-1.758-0.303-7.376-4.836-8.672
	C57.325,1.853,55.322,0,52.868,0c-2.65,0-4.8,2.148-4.8,4.799c0,0.93,0.276,1.791,0.734,2.526
	c-1.662,3.975,2.309,10.044,2.309,10.044s-0.009-0.022-0.012-0.033c0.276,0.62,0.574,1.213,0.888,1.771
	c0.004,0.009,0.004,0.014,0.008,0.022c0.828,1.8,0.663,3.91,0.358,5.415c-1.235,0.119-3.587,0.548-4.992,0.816
	c-0.019-0.003-3.848-0.696-9.103,0.681c-5.27,1.38-9.865,0.669-11.58,0.334S8.783,26.17,8.489,26.857c0,0-5.018,2.318-6.438,4.535
	c-1.423,2.216-1.923,6.549-2.049,7.233c-0.057,0.313,1.058-0.542,2.007-3.151c0.809-2.226,2.048-2.615,3.218-2.771
	c-0.722,1.246-1.457,2.542-1.462,2.662c-0.024,0.777,1.34-0.188,2.676-1.777c0.413-0.49,0.889-1.082,1.257-1.638
	c0.995-0.779,1.918-1.974,2.286-2.481c3.428,0.459,13.63,1.68,15.566,1.715c2.298,0.042,12.57,0.292,15.607,0
	c1.002-0.096,1.77-0.06,2.371,0.025c-0.414,0.749-0.866,1.519-1.352,2.274c-0.376,0.586-0.619,1.168-0.78,1.741
	c-0.112,0.317-0.203,0.644-0.239,0.987c-0.235,2.258,1.085,6.272,1.366,6.366c0,0-0.336,3.022-0.127,6.65
	c0.014,0.277,0.03,0.552,0.057,0.826c0.008,0.086,0.013,0.171,0.021,0.258c0.356,4.091,1.968,7.07,1.487,10.599
	c-0.268,1.967-0.647,4.361-0.874,6.633c-0.305,1.494-0.327,3.084-0.121,4.719c0.006,0.055,0.005,0.119,0.011,0.173
	c0.001,0.009,0.008,0.013,0.01,0.022c0.782,5.724,4.229,11.878,7.449,15.685c9.892,11.695,3.446,15.243,3.446,15.243
	c0.425,0.118,0.852,0.211,1.28,0.301c-0.653,1.705-1.276,3.575-1.788,5.622c-1.961,7.846-5.859,14.739-6.975,17.525
	c-0.257,0.337-1.869,1.562-3.374,3.235c-1.505,1.672,0.333,3.47,2.174,5.938c1.839,2.47,4.475,5.978,7.209,5.939
	c2.734-0.037,3.494-0.589,3.494-1.55c0.002-0.441-2.424-0.461-3.721-1.088c-1.297-0.628-2.265-5.267-2.703-6.313
	c-0.438-1.045-0.371-2.928-0.371-2.928S59.146,113.696,60.837,111c0.876-1.395,2.303-4.547,3.522-7.313
	c0.086-0.016,0.173-0.03,0.259-0.047c0.868,2.132,2.242,5.269,2.858,6.105c0.744,1.008,7.906,11.487,10.7,16.286
	c0.15,0.42,1.155,3.971,1.475,5.331c0.336,1.421,1.127,3.848,2.132,5.102c1.006,1.254,3.47,6.354,5.436,5.351
	c1.19-0.606,1.442-1.111,1.281-2.198c1.046,0.588,2.044,1.143,2.795,1.585c4.409,2.597,5.276,0.988,6.29-1.13
	c1.016-2.117,1.171-3.307,1.347-3.736c0.046-0.112-0.069-0.277-0.294-0.513l0.967-1.646l1.139-1.072c0,0-0.045-0.031-0.119-0.085
	c0.213,0.131,0.412,0.263,0.64,0.393c0,0,3.618-4.629,7.534-8.479c3.914-3.848,11.415-12.459,12.59-16.375
	c1.051-3.503,9.418-14.217,13.829-18.063c0.286,0.706,0.607,1.52,0.954,2.392c1.56,3.947,3.486,9.091,3.679,10.781
	c0.325,2.868,0.718,5.608,2.416,7.827c1.693,2.218,8.707,17.908,9.228,19.866c0,0,0.386-0.185,0.986-0.494l0.748,1.088
	c0.113,0.419,0.221,0.836,0.287,1.097c-0.52,0.053-0.853,0.173-0.716,0.462c0,0,1.175,2.219,0.782,3.099
	c-0.39,0.881-2.413,3.262-3.487,3.88c-1.079,0.622-4.884,1.749-4.88,2.574c0.013,1.903-0.373,3.037,2.986,3.004
	c3.358-0.032,6.223-0.227,8.345-2.901C158.665,140.491,163.351,138.924,162.423,136.283z M127.585,75.939
	c-2.61,4.762-6.848,12.851-7.893,14.939c-1.043,2.088-2.414,4.372-3.979,6.654c-1.567,2.284-2.61,8.351-3.394,9.069
	c-0.78,0.717-14.594,21.543-16.095,22.783c0,0,0.221,0.272,0.64,0.697c-0.005-0.005-0.011-0.011-0.017-0.016l-0.892,1.137l0,0
	l-0.74,0.647c-0.101-0.152-0.199-0.285-0.301-0.447c0,0-3.224,2.074-5.077,1.722c-0.792-0.151-2.597-0.806-4.409-1.37
	c-0.982-1.329-1.952-2.304-2.309-2.667c-0.711-0.727-2.402-4.387-2.402-4.387s-0.006,0.002-0.006,0.002
	c-1.313-4.75-4.826-16.145-5.898-18.847c-0.657-1.662-1.472-3.198-2.271-4.71c9.929-4.284,17.659-11.65,17.659-11.65
	c-6.163,1.047-17.876-8.857-18.904-16.461c-0.623-4.596-2.991-9.396-4.77-12.484c-0.124-0.236-0.325-0.576-0.592-1.005
	c-0.867-1.433-1.487-2.311-1.487-2.311l0,0c-1.385-2.114-2.976-4.49-3.359-5.188c-0.67-1.211-0.586-2.007,0.625-6.062
	c0.21-0.701,0.41-1.315,0.605-1.869l2.286-4.661l-0.001,0c0.147-0.23,0.299-0.462,0.455-0.705c0.13-0.202,0.233-0.503,0.322-0.855
	c0.002,0,0.005,0.001,0.007,0c1.104-0.29,4.814,6.625,5.315,7.586c0.502,0.962,2.677,3.847,4.767,3.22
	c1.76-0.528,9.624-9.282,12.071-12.042c0.031-0.003,0.064-0.012,0.105-0.042c1.144-0.814,1.843-1.056,2.313-0.596
	c0.468,0.459,2.424,1.369,3.06,1.79c0.636,0.421,2.584,2.314,2.823,2.146c0.239-0.17-0.174-0.889-0.387-1.574
	c-0.209-0.685-1.312-1.845-1.465-2.419c-0.152-0.574,1.512-0.496,2.273-0.744c0.115-0.038,0.348-0.083,0.643-0.132l3.315,1.106l0,0
	c0.137,0.499,2.229,1.628,3.012,1.851c0.604,0.172,1.466,0.444,2.165,0.572l-0.006,0.006c0,0,13.465,9.197,15.019,9.906
	c1.796,0.823,9.255-1.5,10.382-2.037c0.491-0.233,2.119-0.753,3.928-1.334c-0.131,1.901-0.234,3.807-0.938,7.163
	c-1.498,7.126-5.352,7.893-5.677,8.938c0,0,1.8,1.783,4.505,3.968c-0.407,1.492-0.738,2.548-0.845,2.886
	C131.768,68.115,130.194,71.177,127.585,75.939z" class="color c1"/>
</svg>