<svg version="1.1" id="图层_1" x="0px" y="0px" width="207.817px" height="39.076px" viewBox="0 0 207.817 39.076" enable-background="new 0 0 207.817 39.076" xml:space="preserve" xmlns="http://www.w3.org/2000/svg" xmlns:xlink="http://www.w3.org/1999/xlink" xmlns:xml="http://www.w3.org/XML/1998/namespace">
  <path fill="#5E5E5E" d="M205.789,0h-2.173H42.673H4.466H4.265H4.122H2.476C2.262,0,2.06,0.038,1.865,0.093
	c-2.065,0.425-1.859,2.162-1.859,2.162v2.269v28.125c0,3.604,2.824,6.428,6.427,6.428h15.255c3.604,0,6.43-2.823,6.43-6.428
	c0-1.245,0.869-2.114,2.113-2.114h19.222c1.243,0,2.113,0.869,2.113,2.114c0,3.604,2.823,6.428,6.429,6.428h84.201
	c12.202,0,24.22-3.712,34.756-10.735l22.892-15.263c3.242-2.19,5.391-4.536,6.964-7.954l0.015-0.002l0.265-0.599l0.048-0.196v0.001
	l0.01-0.041l0.124-0.511l0.221-0.91c0.05-0.203,0.081-0.408,0.125-0.611c0.072-0.333,0.148-0.666,0.204-0.998
	C207.445,0.515,206.681,0,205.789,0z M174.556,24.752c-9.823,6.549-21.013,10.01-32.361,10.01H57.994
	c-1.245,0-2.115-0.868-2.115-2.113c0-3.605-2.822-6.429-6.427-6.429H30.23c-3.604,0-6.429,2.823-6.429,6.429
	c0,1.245-0.867,2.113-2.114,2.113H6.432c-1.244,0-2.113-0.868-2.113-2.113v-9.296l172.388-0.034L174.556,24.752z M183.373,18.874
	c-0.15-0.039-0.307-0.066-0.468-0.066L4.319,18.843v-5.546h187.42L183.373,18.874z M202.263,4.523
	c-1.029,1.631-2.336,3.085-3.897,4.298c-0.109-0.018-0.219-0.034-0.333-0.034H4.319V4.523V4.51h197.947L202.263,4.523z" class="color c1"/>
</svg>