<svg version="1.1" id="图层_1" x="0px" y="0px" width="148.109px" height="148.111px" viewBox="0 0 148.109 148.111" enable-background="new 0 0 148.109 148.111" xml:space="preserve" xmlns="http://www.w3.org/2000/svg" xmlns:xlink="http://www.w3.org/1999/xlink" xmlns:xml="http://www.w3.org/XML/1998/namespace">
  <path fill="#EC8516" d="M86.612,74.057l-6.278,10.875H67.776l-6.278-10.875l6.279-10.875h12.557L86.612,74.057z M23.396,20.064
	C9.004,33.574,0,52.758,0,74.057c0,3.695,0.279,7.324,0.803,10.875h60.045L23.396,20.064z M124.713,128.049
	c14.393-13.51,23.396-32.695,23.396-53.992c0-3.695-0.279-7.324-0.803-10.875H87.262L124.713,128.049z M1.955,90.932
	c5.547,23.791,22.553,43.166,44.893,51.998l30.021-51.998H1.955z M90.076,80.057l-37.465,64.891
	c6.789,2.051,13.985,3.164,21.443,3.164c17.404,0,33.395-6.02,46.035-16.068L90.076,80.057z M101.262,5.182l-30.021,52h74.913
	C140.607,33.391,123.603,14.016,101.262,5.182z M58.034,68.057L95.498,3.166C88.709,1.115,81.514,0,74.055,0
	C56.65,0,40.661,6.02,28.02,16.07L58.034,68.057z" class="color c1"/>
</svg>