<svg version="1.1" id="图层_1" x="0px" y="0px" width="251.15px" height="223.555px" viewBox="0 0 251.15 223.555" enable-background="new 0 0 251.15 223.555" xml:space="preserve" xmlns="http://www.w3.org/2000/svg" xmlns:xlink="http://www.w3.org/1999/xlink" xmlns:xml="http://www.w3.org/XML/1998/namespace">
  <path fill="#CADFDB" d="M250.594,106c-0.691-0.461-1.466-0.428-2.239-0.416c-0.397-0.697-0.563-1.346,0.356-1.784
	c1.079,0.448,1.602,0.15,1.428-1.071c-1.225-0.271-2.449-0.543-3.773-0.835c0.58-0.874,1.72-0.569,2.092-1.425
	c-0.437-0.828-1.92-0.401-1.879-0.807c0.166-1.625-0.739-0.682-1.22-0.611c-0.378,0.057-0.693,0.092-0.935-0.254
	c0.267-0.2,0.74-0.385,0.76-0.608c0.037-0.421-0.44-0.445-0.778-0.455c-0.757-0.018-1.517-0.006-2.694-0.006
	c0.942-0.337,1.47-0.528,1.999-0.719c2.025-0.358,4.083-0.575,6.22-1.257c-2.271-0.73-4.376,0.072-6.462-0.172
	c-0.594-0.07-1.379,0.271-1.55-0.719c1.55-0.714,3.099-1.426,4.649-2.138c0.868-0.149,1.791-0.16,2.584-0.485
	c0.729-0.299,2.108-0.368,1.813-1.485c-0.265-1.02-1.323,0.054-2.025-0.139c-0.154-0.042-0.388,0.203-0.586,0.316
	c-1.637,0.562-3.359-0.086-5.003,0.355c-0.33-0.089-0.837-0.138-0.389-0.619c0.271-0.288,0.705-0.429,1.078-0.608
	c0.511-0.248,1.019-0.635,0.923-1.185c-0.13-0.749-0.887-0.468-1.338-0.413c-0.896,0.112-1.713-0.364-2.628-0.188
	c-0.615,0.116-0.442-0.534-0.498-0.909c1.451-0.844,3.186,0.131,4.636-0.722c1.445,0.16,2.689-0.187,3.576-1.428
	c2.543-0.685,2.815-1.366,1.429-3.573c0.12-0.475,0.239-0.952,0.358-1.428c0.124-0.961-0.617-0.625-1.071-0.717
	c0-0.115,0-0.236,0.001-0.352c0.932-0.163,1.699-0.758,1.313-1.643c-0.499-1.146-1.23,0.045-1.869,0.139
	c-0.056,0.009-0.107,0.046-0.16,0.068c-0.286-0.15-0.349-0.413-0.351-0.704c0.98-0.017,1.789-0.429,2.497-1.079
	c0.836-1.192-0.435-2.385-0.002-3.574c-0.193-0.262-0.464-0.327-0.773-0.361c-0.44-0.051-1.07,0.216-1.245-0.385
	c-0.217-0.741,0.572-0.758,0.962-1.051c0.18-0.139,0.446-0.209,0.37-0.635c-1.368,0.036-2.683-0.726-4.117-0.322
	c-0.28,0.078-0.61,0.263-0.779-0.086c-0.21-0.43,0.096-0.641,0.474-0.758c0.337-0.107,0.424-0.383,0.472-0.688
	c1.733-0.193,3.345-0.644,4.479-2.129c-0.092-0.506-1.047,0.041-0.914-0.734c0.36-0.414,1.423-0.48,0.716-1.431
	c0.905-1.836-0.539-2.137-1.644-2.06c-2.085,0.142-4.149,0.637-6.222,0.985c-0.237,0.003-0.477,0.003-0.715,0.005
	c-0.375-0.272-0.997-0.465-0.354-1.074c0.237,0,0.473-0.004,0.71,0c1.08,0.018,2.462,0.109,2.406-1.346
	c-0.056-1.488-1.475-0.578-2.274-0.757c-0.306-0.067-0.713,0.289-0.969-0.095c-0.429-0.642,0.384-0.895,0.483-1.376
	c0.236-0.122,0.475-0.242,0.708-0.362c1.159-0.213,2.196-0.647,3.338-1.889c-1.811,0.426-3.188,0.717-4.403,1.533
	c-1.787,0.596-3.575,1.193-5.361,1.787c-0.031-0.05-0.085-0.096-0.09-0.15c-0.004-0.049,0.031-0.139,0.069-0.15
	c1.094-0.366,2.145-0.805,3.068-1.597c-1.267-0.825-2.27,0.813-3.409,0.11c0.238-0.238,0.478-0.477,0.716-0.717
	c0,0.001,0,0.002,0,0.002c0.966-0.195,1.796-0.645,2.714-1.351c-3.268,0.023-3.265,0.021-5.766-1.75
	c-0.133-0.093-0.341-0.079-0.514-0.114c0.118-0.613,1.089-0.781,0.837-1.705c-1.074,0.151-1.868,1.119-2.986,0.988
	c0.754-1.68,2.851-2.088,3.825-3.983c-1.817,0.713-3.094,1.683-4.185,2.919c-0.237-0.003-0.476-0.004-0.714-0.004
	c-0.948-2.086-1.905-0.666-2.862-0.008c-0.454-0.182-1.216,0.899-1.414-0.344c0.337-0.325,0.843-0.596,0.974-0.99
	c0.224-0.68,1.592-1.049,0.825-1.883c-0.723-0.787-1.785-0.817-2.706,0c-0.451,0.401-0.959,0.733-1.606,0.365
	c0.956-1.133,2.062-1.975,3.595-2.232c0.539-0.09,1.017-0.567,1.517-0.875c0.235-0.144,0.626-0.287,0.349-0.617
	c-0.145-0.178-0.532-0.147-0.811-0.211c-0.671-0.956,0.881-1.025,0.709-1.783c0.88,0.256,3.784-0.537,3.757-1.066
	c-0.064-1.36-1.523-0.043-1.888-0.916c-0.022-0.054-0.051-0.105-0.076-0.16c1.377-0.414,2.813-0.697,4.126-1.637
	c-1.039-0.332-1.828,0.423-2.699,0.208c-0.708,0-1.418,0-2.126,0c1.33-0.485,1.695-1.065,0.716-2.147
	c-0.059-0.066-0.011-0.231-0.013-0.35c0.713-0.241,1.423-0.484,2.134-0.723c1.991,0.111,3.323-1.441,5.093-1.945
	c-1.681,0.504-3.547-0.199-5.093,0.869c-0.898,0.004-1.692,0.387-2.498,0.719c-0.226-0.988,0.686-1.344,1.456-2.143
	c-1.499,0-2.651,0.016-3.801-0.008c-0.819-0.016-1.699,0.022-1.944-1.066c0.889-0.596,2.93-0.533,1.434-2.498
	c2.275-0.4,4.186-1.775,6.384-2.406c0.412-0.117-0.028-0.4-0.311-0.459c-0.292-0.384-0.721-0.316-1.129-0.359
	c-2.52-0.275-5.137-0.046-7.448-1.422c0.238-0.121,0.475-0.24,0.712-0.363c1.433,0.09,2.448-1.346,3.929-1.073
	c2.887-0.153,5.501-1.357,8.222-2.143c0.512-0.111,1.026-0.218,1.534-0.337c0.572-0.134,1.035-0.416,0.883-1.082
	c-0.17-0.756-1.057-0.973-1.375-0.666c-0.896,0.866-1.818,0.114-2.695,0.293c-0.552,0.113-1.369-0.246-1.6,0.397
	c-0.308,0.851,0.916,0.479,1.109,1.041c-0.462,0.599-0.951,0.249-1.399,0.003c-0.942-0.519-1.785-0.46-2.531,0.351
	c-0.715,0.12-1.43,0.241-2.144,0.36c-0.137-0.352-0.654-0.409-0.591-0.963c0.156-1.405,0.063-1.439-1.554-0.82
	c-0.595,0.117-1.192,0.234-1.786,0.354c-0.347-0.608-0.485-1.421-1.431-1.431c0.264-0.535,1.084-0.445,1.266-1.103
	c-0.325-0.519-0.842-0.247-1.265-0.325c-1.043-0.359-2.122-0.408-3.211-0.362c-0.12-0.12-0.239-0.236-0.359-0.356
	c-0.248-0.444-0.417-0.906-0.361-1.426c1.691-0.832,3.652-0.659,5.361-1.433c1.883,0.136,3.453-0.881,5.207-1.272
	c-0.866-2.162-3.07,1.19-3.865-1.057c1.068-0.691,2.251-0.354,3.316-0.627c0.549-0.143,1.404,0.488,1.557-0.239
	c0.152-0.725-0.694-1.12-1.297-1.481c-0.202-0.122-0.419-0.217-0.628-0.324c-0.648-0.645-1.466-0.353-2.198-0.336
	c-1.607,0.037-3.185,0.078-4.468-1.125c-0.609-0.57-1.24-0.574-2.072-0.41c-1.102,0.219-2.271,0.072-3.411,0.086
	c0.269-0.108,0.528-0.259,0.809-0.321c0.499-0.112,1.21-0.046,1.164-0.761c-0.054-0.808-0.812-0.631-1.37-0.715
	c-1.191-0.184-2.288,0.433-3.462,0.362c-0.002-0.116,0-0.233,0-0.349c0.564-0.064,1.063-0.254,1.428-0.715
	c2.974,0.199,5.66-1.301,8.575-1.437c1.651,0.19,3.18-0.159,4.609-1.006c0.36-0.214,1.132-0.117,0.784-0.839
	c-0.277-0.57-0.815-0.82-1.498-0.42c-0.555,0.328-1.165,0.562-1.751,0.84c-0.117,0-0.236,0-0.355,0
	c-1.539-0.348-3.016-0.871-4.426-1.58c-0.354-0.18-0.47-1.146-1.021-0.518c-0.556,0.635,0.227,0.88,0.661,1.119
	c0.686,0.374,1.518,0.646,0.852,1.689c-0.229-0.057-0.553-0.035-0.672-0.183c-1.652-2.024-3.691-1.44-5.744-0.915
	c-0.393,0.099-0.831,0.049-1.246,0.02c-1.529-0.102-2.763,0.239-3.618,1.71c-0.562,0.96-1.767,0.739-2.285-0.343
	c-0.176-0.365-0.331-0.604-0.729-0.644c-0.625,0.032-1.233-0.017-1.784-0.356c-1.562-0.058-3.016,1.326-4.647,0.354
	c-0.137-0.342-0.376-0.579-0.715-0.716c-1.16-0.421-6.356-0.412-7.483,0.016c-0.001-0.002-0.001-0.002-0.001-0.002
	c-0.874-0.137-1.693,0.139-2.521,0.348c-0.12,0-0.242,0-0.361,0c-1.906-0.641-3.812,0.322-5.718,0.004
	c-1.941-0.126-3.832,0.139-5.716,0.629c-1.404,0.361-2.856,0.543-4.287,0.805c-0.944-0.154-1.722,0.298-2.515,0.697
	c-1.908-0.061-3.563-1.102-5.457-1.338c-2.375-0.295-3.409,0.008-4.545,2.04c-1.11,1.06-2.476,1.222-3.918,1.109
	c-3.263-0.116-6.562-0.123-9.655,0.961c-1.738,0.61-3.426,0.776-5.207,0.853c-0.981,0.043-1.677-1.067-2.487-0.712
	c-2.028,0.891-4.53,0.327-6.249,2.083c-1.532-0.326-3.078-0.445-4.64-0.339c-1.641-0.032-3.27-0.011-4.656,1.06
	c-0.949,0.01-1.896,0.021-2.844,0.029c-0.596-0.009-1.192-0.016-1.788-0.026c-0.532-0.554-1.221-0.327-1.847-0.339
	c-5.715-0.112-11.425-0.047-17.102,0.713c-0.639-0.123-1.272-0.331-1.915-0.355c-4.365-0.147-8.73-0.26-13.096-0.384
	c-1.312-0.597-2.748-0.478-4.122-0.667c-2.706-0.371-5.554,0.387-8.14-0.997c-1.229-0.655-2.501-0.536-3.805-0.3
	c-1.445,0.264-2.775,1.072-4.31,0.908c-3.784,0.681-7.652,0.006-11.433,0.74c-1.357,0.177-2.688,0.432-3.928,1.043
	c-1.358-0.197-2.419,0.601-3.576,1.068c-1.073,0.119-1.66,0.724-1.787,1.787c-0.868,0.289-1.014,0.914-1.104,1.781
	c-0.262,2.523,1.619,5.141-0.322,7.582c-0.025,0.036-0.004,0.116-0.001,0.176c0.069,1.484-0.005,2.955-0.349,4.404
	c-0.135,0.712-0.479,1.387-0.367,2.14c-0.788,0.881-1.227,1.796-0.772,3.048c0.295,0.806,0.01,1.688-0.521,2.349
	c-1.027,1.28-1.217,2.763-1.203,4.305c0.013,1.422,0.072,2.858-0.39,4.214c-0.828,2.411,0.089,4.594,0.733,6.826
	c3.086,1.238,3.163,1.381,2.153,3.921c-0.838,0.801-1.285,1.8-1.411,2.933c-0.056,0.508-0.158,1.122,0.369,1.454
	c0.735,0.461,0.553-0.577,0.937-0.636c0.257-0.043,0.545,0.114,0.818,0.181c0.493,1.606,2.164,1.884,3.219,2.856
	c-0.238,0.594-0.477,1.188-0.717,1.783c-0.113,0.002-0.229,0.008-0.344,0.019c-0.642-0.006-1.283-0.003-1.926-0.013
	c-0.796-0.015-1.569-0.003-1.66,1.07c-0.279,0.158-0.348,0.422-0.352,0.715c-0.733,0.423-1.386,0.739-2.156-0.084
	c-0.486-0.525-1.38-0.242-1.265,0.442c0.29,1.692-0.929,0.338-1.234,0.718c-1.229,1.714-3.017,1.027-4.635,1.074
	c-1.241,0.002-2.514-0.165-3.584,0.707c-0.269,0.131-0.607,0.316-0.492,0.619c0.204,0.535,0.744,0.447,1.206,0.451
	c0.188,0.113,0.548,0.299,0.537,0.322c-0.453,1.021-3.378,1.908-4.296,1.322c-0.432-0.277-0.555-0.611-0.064-0.957
	c0.535-0.379,0.681-0.782,0.162-1.295c-0.476-0.473-0.98-0.51-1.613-0.304c-1.175,0.38-0.058,1.222-0.363,1.654
	c-1.321,1.883-0.164,2.093,1.346,2.126c0.372,1.268,1.13,0.561,1.79,0.349c0.482,0.03,0.838,0.294,0.778,0.761
	c-0.061,0.48-0.559,0.318-0.866,0.302c-1.128-0.059-2.61-0.243-3.216,0.477c-1.252,1.489-2.288,0.785-3.482,0.251
	c0.296-1.17,1.813-0.252,2.285-1.309c-0.959-0.272-1.841-0.046-3.023,0.16c0.625-0.537,1.049-0.779,1.294-1.143
	c0.222-0.325,0.763-0.805,0.131-1.175c-0.408-0.241-0.795,0.11-0.962,0.525c-0.478,1.177-1.668,1.104-2.583,1.51
	c-0.69-0.022,0.156-1.587-1.072-1.071c-0.359,0-0.715,0-1.072,0c-0.762,0.27-2.521-0.716-1.791,1.428
	c-0.12,0.117-0.24,0.238-0.358,0.357c-1.143-0.625-2.38-0.258-3.574-0.35c-1.546-1.187-3.094-0.627-4.64-0.004
	c-0.713,0-1.447,0.113-2.132-0.021c-2.049-0.406-2.379,1.555-3.458,2.458c-0.271,0.224,0.023,0.636,0.449,0.749
	c3.666,0.973,7.153-0.156,10.669-0.924c0.092-0.019,0.126-0.311,0.187-0.479c1.948,0.469,3.612,1.832,5.719,1.789
	c0.829-0.016,1.668,0.039,2.482-0.073c0.569-0.08,1.063-0.321,1.085,0.568c0.019,0.693-0.329,0.933-0.979,0.938
	c-0.557,0.006-0.998-0.203-1.49-0.445c-1.099-0.537-2.418,0.303-2.526,1.515c-1.335,0.694-2.071,3.042-4.232,1.51
	c-0.196-0.139-0.564,0.206-0.629,0.507c-0.088,0.418,0.213,0.631,0.564,0.783c0.335,0.143,1.181,0.281,0.879,0.496
	c-1.078,0.766-0.699,2.589-2.393,2.904c-1.141,0.211-1.935,0.031-2.653-0.83c-0.361-0.436-0.833-0.451-1.252-0.072
	c-0.208,0.189-0.495,0.477-0.478,0.699c0.045,0.585,0.627,0.424,0.988,0.501c1.429,0.31,2.866,0.575,4.391,0.874
	c-0.291,0.568-0.573,1.109-0.9,1.742c-0.638-0.494-1.254-1.369-1.979-0.712c-0.826,0.749-1.636,0.65-2.577,0.562
	c-0.756-0.07-1.409,0.298-1.684,1.063c-0.315,0.879,0.473,0.854,0.951,1.152c0.738,0.455,1.196,0.935,0.073,1.66
	c-1.077,0.693-2.202,1.141-3.68,1.268c0.976,0.865,1.669,1.135,2.492,0.236c0.262-0.286,1.188-0.602,1.13-0.111
	c-0.188,1.596,0.9,0.711,1.277,0.686c0.992-0.072,1.961-0.391,2.947-0.557c0.572-0.095,1.221-0.242,1.393,0.636
	c0.281,1.411,1.284,1.271,2.192,0.845c1.385-0.645,2.813-0.768,4.306-0.893c1.187-0.099,2.491-0.086,3.61-0.943
	c-2.148,0.566-4.087,0.014-5.992-0.779c-0.053-0.02-0.118-0.004-0.178-0.004c-0.224-0.188-0.8-0.201-0.358-0.718
	c0.711-0.249,1.095-1.485,2.146-0.713l0.005,0.003c-0.001,0-0.001,0-0.001,0l-0.004-0.003c0.118,0.12,0.237,0.237,0.358,0.354
	c-0.156,1.341,1.042,1.282,1.65,1.233c0.901-0.08-0.089-0.815,0.132-1.233h0.002c0.719-0.109,1.519,0.287,2.151-0.345
	c0.711-0.007,1.424-0.013,2.136-0.015c0.458,0.036,1.155-0.084,1.179,0.494c0.056,1.362-1.385,1.562-2.252,2.402
	c0.536,0.387,1.241,0.412,1.434,1.041c-0.536-0.01-1.107,0.102-1.6-0.049c-2.724-0.845-4.792,0.695-6.972,1.843
	c-0.303,0.159-0.688,0.35-0.502,0.798c0.135,0.325,0.516,0.181,0.779,0.275c1.448,0.51,2.69,0.242,3.727-1.244
	c-0.027,2.565,0.428,2.771,2.786,1.601c1.664-0.002,3.329-0.002,4.994-0.005c0,0.355,0,0.711,0.003,1.066
	c-0.122,0.117-0.242,0.237-0.364,0.354c-0.973-0.11-1.552,0.519-1.981,1.216c-0.271,0.438-1.201,0.73-0.656,1.408
	c0.453,0.566,1.076,0.087,1.605-0.133c0.692,0.16,1.351,0.5,2.094,0.364c0.604-0.118,1.209-0.235,1.815-0.356
	c0.972,0.104,1.912-0.068,2.841-0.345c0.01,0.517-0.238,0.868-0.706,1.069c-1.985,0.205-3.977,0.369-5.952,0.652
	c-0.706,0.1-1.782-0.322-2.043,0.613c-0.229,0.818,1.288,0.404,1.366,1.423c-2.007,0.255-3.718,1.157-5.268,2.481
	c-0.639,0.551,0.03,0.617,0.101,0.905c-1.372,1.597-3.392,2.067-5.245,2.997c1.673-0.513,3.227-0.207,4.789,0.164
	c0.235,0.051,0.541-0.195,0.814-0.303c0.477-0.238,0.954-0.476,1.431-0.715c1.226,1.168,2.747,1.152,4.287,1.068
	c1.787-0.115,3.575-0.236,5.362-0.356c0.236,0.124,0.473,0.245,0.71,0.368c1.331,0.506-0.494,1.888,0.915,2.381
	c-1.43,0.336-2.794-0.309-3.911,0.635c0.293,0.88,2.517-0.316,1.571,1.621c-0.696,0.68-0.224,1.07,0.355,1.43
	c0.599,0.771,1.191-0.086,1.788,0c0.392,0.013,0.814-0.064,1.071,0.357c-0.417,0.253-0.346,0.677-0.361,1.066
	c-0.119,0.117-0.238,0.242-0.356,0.362c-1.611,0.298-3.225,0.759-4.867-0.325c0.095,0.74,0.158,1.247,0.223,1.753
	c-0.595,0.003-1.189,0.003-1.783,0.003c0.683-1.574,1.365-3.148,2.046-4.724c-0.896,0.736-1.813,0.881-2.838,0.81
	c-0.559-0.037-1.118-0.021-0.648,0.878c0.562,1.068-0.124,1.87-0.851,2.563c-0.279,0.268-0.893,0.336-0.731,0.842
	c0.188,0.592,0.807,0.255,1.235,0.344c2.168-0.172,4.198,0.43,6.227,1.087c0.425,0.136,0.948,0.349,0.825,0.763
	c-0.502,1.691,0.692,1.3,1.561,1.39c0.583,0.059,1.142,0.239,1.507,0.771c-0.295,0.449-0.98-0.309-1.06,0.256
	c-0.288,2.027-1.499,1.985-2.983,1.455c-0.443-0.517-0.588-1.361-1.47-1.386c-0.425-0.019-0.654,0.252-0.659,0.669
	c-0.015,1.223-0.688,1.179-1.557,0.854c-0.394-0.145-0.816-0.221-1.102,0.577c1.178,0,2.267,0,3.356,0
	c0.341,0.47,0.881,0.454,1.3,0.333c1.504-0.435,1.551,0.881,1.711,1.599c0.229,1.04-0.841,1.104-1.551,1.257
	c-0.646,0.137-1.395-0.097-1.917,0.681c0.317,0.14,0.696,0.433,0.827,0.351c1.922-1.248,3.283,1.477,5.146,0.721
	c0.188-0.076,0.159,0.494,0.198,0.775c-2.144,0.125-4.287,0.24-6.429,0.365c-0.854,0.097-1.707,0.25-2.562,0.265
	c-0.432,0.006-0.866-0.126-0.876,0.467c-0.005,0.494,0.43,0.627,0.855,0.679c0.545,0.077,1.034-0.093,1.504-0.34
	c0.649,0.631,1.46,0.331,2.193,0.334c2.423,0.035,4.746,0.638,7.099,1.094c-1.001,0.84-2.043,1.369-3.417,0.831
	c-0.836-0.326-1.517,0.043-2.05,0.761c0.582,0.418,1.312-0.111,1.69,0.49c-0.02,0.627-0.929,0.179-0.942,0.86
	c1.004,0.571,2.757-0.172,2.934,1.699c-0.239,0.237-0.48,0.473-0.721,0.714c-1.504-0.528-3.004-0.985-4.524-0.051
	c-0.578,0.354-1.217,0.456-1.888,0.416c-1.241-0.075-2.341,0.086-3.071,1.329c-0.326,0.55-0.946,0.786-1.713,0.614
	c-0.74-0.17-1.531-0.133-2.301-0.15c-0.331-0.008-0.811-0.131-0.924,0.304c-0.146,0.566,0.353,0.668,0.761,0.745
	c0.361,0.071,0.739,0.118,0.735,0.6c-0.004,0.402-0.263,0.655-0.628,0.771c-0.473,0.15-1.232,0.043-0.975,0.886
	c0.185,0.595,0.689,0.913,1.362,0.982c0.583,0.057,1.155,0.229,1.733,0.354c-0.886,0.879-0.59,1.563,0.358,2.137
	c0.282,1.383,1.508,0.444,2.218,0.878c0.747,0.463,1.31,0.187,1.384-0.853c0.093-1.275,0.878-1.205,1.764-0.735
	c0.001,0.237,0.001,0.474,0.003,0.71c-0.096,1.152,0.247,1.768,1.511,1.208c0.508-0.222,0.916,0.028,1.341,0.227
	c0.233,0.447,0.51,0.631,1.098,0.555c1.172-0.158,2.364-0.146,3.548-0.201c0.358-0.121,0.718-0.239,1.076-0.354
	c0.451,0.258,1.056,0.365,1.065,1.067c-1.149,0.155-2.651-0.189-2.498,1.785c-1.257,0.549-2.565,0.912-3.928,1.079
	c-2.145,0-4.29-0.004-6.434-0.004c-1.743,1.228-3.602,0.535-5.446,0.387c-0.717-0.056-1.581-0.318-2.573,0.679
	c2.701-0.117,4.962,0.197,7.199,0.708c0.537,0.126,1.056-0.081,1.534-0.339c0.502,0.594,1.187,0.269,1.788,0.354
	c0.598,0.402,1.193,0.406,1.787-0.007c0.714,0.125,1.385,0.484,2.137,0.368c1.327,0.478,2.696,0.755,4.099,0.583
	c0.739-0.091,1.88-0.628,1.986,0.247c0.127,1.025-1.261,0.297-1.865,0.756c0.016,0.145,0.021,0.318,0.06,0.48
	c0.42,1.767,0.081,2.166-1.676,2.236c-1.463,0.055-2.969-0.348-4.383,0.341c-0.521,0.051-0.985-0.115-1.43-0.359
	c-0.248-0.318-0.487-0.649-0.747-0.956c-1.122-1.331-2.779-1.048-3.541,0.604c-0.411,0.387-0.823,0.778-1.095,1.031
	c0.954,2.208,2.47,0.83,3.805,0.757c0.639-0.034,1.759-0.836,1.406,0.878c-0.077,0.376,0.547,0.566,0.979,0.537
	c1.776-0.129,3.489,0.606,5.27,0.365c0.356,0,0.713,0,1.07,0c1.884-0.497,3.563,0.556,5.362,0.718
	c0.144,0.427,0.288,0.856,0.44,1.319c-0.735,0.161-1.414,0.226-2.04-0.237c-0.888-0.663-1.64-0.348-2.334,0.344
	c-2.139-1.057-4.232-0.935-6.258,0.286c-0.97,0.586-1.929,1.147-3.11,1.167c-0.351,0.003-0.787,0.102-0.73,0.563
	c0.053,0.425,0.562,0.605,0.82,0.4c0.992-0.792,2.179-0.423,3.225-0.502c2.046-0.157,4.253-0.684,6.056,0.947
	c-0.831,0.141-1.749-0.327-2.504,0.358c-0.475,0-0.953,0.004-1.431,0.004c-2.855,0-5.713,0.003-8.568,0.003
	c-1.335-0.762-2.422,0.405-4.137,0.177c1.474,1.049,2.639,0.866,3.766,0.892c-0.254,0.2-0.51,0.4-0.872,0.688
	c1.922,0.632,3.633,0.662,5.17-0.692c4.691,1.202,9.487,1.367,14.295,1.432c-0.541,0.658-1.284,0.716-2.064,0.716
	c-1.574-0.016-3.151-0.004-4.728-0.004c-2.403-0.529-4.807,0.122-7.212,0.011c-0.336-0.014-0.811-0.059-0.813,0.435
	c-0.004,0.4,0.381,0.573,0.757,0.599c0.475,0.028,0.951,0.018,1.425,0.035c0.739,0.032,1.225,0.29,1.067,1.308
	c-1.493-0.938-2.837-0.124-4.271,0.097c1.824,0.56,3.121,2.245,5.19,2.17c0.821-0.028,1.672-0.13,2.427,0.351
	c1.074,1.474,2.146,0.258,3.22,0c1.099-0.275,1.995-1.161,3.216-1.075c0,0.24,0,0.481,0,0.72c-0.487,1.198,0.423,1,1.069,1.064
	c0.122,0.12,0.241,0.241,0.36,0.359c0.449,0.663,2.053-0.114,1.787,1.431c-0.549,0.349-1.159,0.394-1.779,0.368
	c-2.086-0.261-4.124,0.541-6.19,0.315c-1.293-0.144-2.553-0.526-3.825,0.037c-0.119,0-0.237-0.004-0.355-0.004
	c-1.197-0.368-2.479-1.058-3.194,0.695c-0.16,0.394,0.079,1.118-0.659,0.979c-0.659-0.122-0.096-0.685-0.185-1.04
	c-0.118-0.452-0.171-0.932-0.328-1.372c-0.177-0.498-0.756-0.943-1.058-0.513c-0.727,1.024-1.588,0.547-2.483,0.616
	c-1.686,0.129-3.373,0.458-4.777,1.601c-0.513,0.426-0.623,0.813-0.414,1.374c1.07-0.411,1.649,1.366,2.705,0.682
	c2.045-1.329,4.106,0.18,6.148-0.14c0.427-0.068,0.393,0.29,0.41,0.602c0.029,0.604,0.462,0.768,0.979,0.805
	c0.833-0.205,1.665,0.881,2.501,0.006c0.528-0.204,1.28-0.734,1.548-0.553c1.155,0.791,1.96,0.098,2.863-0.39
	c0.228-0.122,0.445,0.007,0.589,0.226c0,0.474,0,0.955,0,1.426c-0.119,0-0.237,0-0.356,0c-0.756-0.146-1.412,0.521-2.235,0.169
	c-1.246-0.526-1.385,0.313-1.342,1.263c-0.242,0.44-0.409,0.906-0.357,1.429c-0.806,0.997-1.718,1.714-3.136,1.445
	c-0.665-0.129-1.156,0.122-1.154,0.947c0.003,0.776,0.107,1.462,1.076,1.516c0.713,0.041,1.426,0.013,2.14,0.017
	c0.97,0.711,2.129,0.993,3.219,1.432c-0.365,0.326-1.032,0.179-1.402,1.14c1.654-0.541,3.188-0.111,4.622-0.774
	c0.358,0,0.713,0,1.069,0c0.455,0.553,1.09,0.286,1.648,0.359c0.281,0.035,0.637-0.004,0.674,0.387
	c0.033,0.34-0.252,0.48-0.521,0.615c-1.713,0.85-1.711,0.853-0.011,2.205c-0.121,0.354-0.242,0.714-0.364,1.069
	c-0.316,0.05-0.751-0.114-0.885,0.294c-0.131,0.412,0.433,0.462,0.537,0.781c-0.001,0.239-0.002,0.479-0.005,0.72
	c-0.695,0.495-1.171,0.134-1.646-0.387c-0.658-0.714-1.404-1.058-2.288-0.333c-0.798-0.294-1.345-0.816-1.72-1.61
	c-0.897-1.91-1.429-2.064-3.644-1.248c-0.233,0.155-1.069-0.279-0.621,0.495c0.248,0.423,0.69,0.635,0.109,1.098
	c-0.199,0.161-0.21,0.441-0.045,0.638c0.28,0.329,0.545,0.078,0.757-0.104c0.66-0.576,1.301-1.179,1.947-1.767
	c0.346,0.595,0.181,1.303-0.186,1.646c-0.94,0.89-1.03,2.247-1.903,3.141c-0.26,0.265-0.452,0.57-0.159,0.931
	c0.208,0.252,0.533,0.388,0.768,0.146c1.111-1.152,2.752-1.364,3.983-2.289c0.001-0.118,0.007-0.237,0.011-0.353
	c0.233,0,0.469-0.003,0.705-0.003c0.939,0.048,0.885,1.334,1.786,1.426c0.287,0.15,0.352,0.422,0.356,0.714
	c-0.557,0.283-1.15,0.513-1.66,0.864c-0.486,0.336-0.204,0.521,0.228,0.569c-0.487,0.931-1.68,1.044-2.346,2.051
	c1.449,0.287,2.295-0.438,3.064-1.334c2.399-0.035,4.76-0.602,7.263-0.47c-0.837-0.802-0.707-2.035-1.541-2.752
	c0.185-0.75,1.07-0.556,1.425-1.068c0.64-0.266,1.199-0.591,1.078-1.427c0.117,0,0.235,0,0.353-0.004
	c0.323,1.144,1.216,1.144,2.145,1.072c0.723,0.068,1.345-0.189,1.608-0.85c0.237-0.595,0.325-1.244,0.896-1.648
	c0.238,0,0.476-0.004,0.714-0.004c0.474,0.832,0.948,1.67,1.423,2.509c0.12,0.233,0.242,0.47,0.363,0.707
	c-0.001,0.118-0.002,0.233-0.002,0.353c-0.357,0.121-0.714,0.233-1.069,0.355c-1.07-1.893-1.482-1.925-2.81-0.244
	c-0.254,0.324-0.508,0.647-0.763,0.969c-0.189,0.478-0.651,0.953-0.003,1.431c0.357,0.236,0.715,0.47,1.073,0.709
	c-0.239,0.122-0.477,0.244-0.716,0.362c-2.338-0.126-4.534,0.652-6.789,1.073c-1.317,0.286-2.65,0.361-3.997,0.387
	c-0.731,0.019-1.465,0.346-2.181,0.58c-0.338,0.114-0.633,0.352-0.496,0.794c0.107,0.342,0.425,0.376,0.717,0.368
	c0.778-0.037,1.529-0.022,2.023,0.73c0.768,0.743,1.251,0.048,1.789-0.362c0.675-0.816,1.41-1.551,2.501-1.788
	c0.56,0.069,1.314-0.251,1.428,0.712c-0.238,0.241-0.479,0.478-0.718,0.716c-1.547,1.285-3.514,1.661-5.346,2.354
	c0.699,0.144,1.44,0.352,1.981,0.104c1.49-0.675,3.959,0.674,4.446-2.093c0.969-0.177,2.148,0.486,2.86-0.714
	c0.356-0.004,0.711-0.008,1.065-0.008c0.584,1.305,0.978,2.88,3.012,1.657c0.24-0.141,0.843,0.311,1.276,0.49
	c-0.121,0.233-0.24,0.474-0.361,0.706c-0.622-0.02-1.234,0.026-1.782,0.361c-1.237-0.482-2.037,0.973-3.22,0.721
	c-0.404,0.008-0.817-0.03-1.214,0.029c-0.577,0.093-1.208,0.258-1.453,0.824c-0.341,0.774,0.659,0.799,0.882,1.287
	c-0.431,0.976,0.381,0.643,0.771,0.713c0.719,0.137,1.585-0.301,2.26,0.531c-0.693,0.171-1.256,0.292-1.805,0.467
	c-0.23,0.066-0.703,0.011-0.536,0.439c0.072,0.188,0.484,0.239,0.741,0.352c-0.865,1.008,1.137,0.825,0.682,1.635
	c-0.284,0.508-0.556,1.007,0.273,1.187c0.681,0.151,1.342-0.008,1.559-0.768c0.191-0.659,0.24-1.361,0.353-2.046
	c0.235,0,0.47-0.008,0.704-0.008c0.718,0,1.434,0,2.151,0c0.234,0,0.473,0,0.71,0c0.241,0,0.482,0,0.722,0
	c-0.355,0.24-0.715,0.485-1.072,0.722c-0.534,0.347-1.301,0.715-0.911,1.437c0.329,0.599,1.229,0.523,1.885,0.648
	c0.75,0.15,0.807-0.458,0.811-1.015c0.821-0.203,1.846,1.003,2.502-0.361c0.119-0.122,0.238-0.247,0.358-0.37
	c1.302,0.027,2.632,0.146,3.576-1.05c1.19-0.484,2.378-0.968,3.568-1.447c0.921,0.129,0.539,0.637,0.342,1.109
	c-0.161,0.403-0.624,0.891-0.069,1.206c0.421,0.24,0.852-0.154,1.156-0.523c1.509-0.427,2.993-0.411,4.559-0.133
	c1.431,0.266,2.949,0.422,4.377-0.223c0.235,0,0.473,0.008,0.708,0.008c0.429,0.448,0.893,0.802,1.548,0.467
	c1.35-0.701,2.708-0.408,4.133-0.238c1.809,0.22,3.665,0.183,5.487,0.063c1.161-0.065,1.834-0.64,0.74-1.819
	c-0.683-0.742-0.703-1.473,0.245-2.053c0.479-0.327,0.961-0.316,1.44-0.009c1.023,0.025,2.116-0.247,2.726,1.022
	c0.271,0.569,0.85,0.308,1.213,0.028c0.726-0.567,1.592-0.965,2.142-1.75c0.719-0.082,1.355,0.147,2.005,0.441
	c0.747,0.337,1.539,0.534,2.271-0.089c0.634-0.606,0.021-0.804-0.354-1.081c0.357-0.231,0.716-0.465,1.073-0.702
	c0.443-0.253,0.907-0.415,1.427-0.368c0.001,0.527-0.467,0.598-0.766,0.864c-0.523,0.469-0.426,1.115-0.047,1.605
	c0.464,0.606,1.192,0.376,1.832,0.354c-0.252-1.62,0.944-0.333,1.355-0.655c0.229-0.184,0.702,0.163,0.904-0.276
	c-0.51-0.984-1.681-0.603-2.553-1.129c1.199-0.71,1.732-2.208,3.35-1.832c2.231,0.517,4.55,0.585,6.654,1.739
	c1.449,0.795,3.088,1.309,5.405,1.379c-1.394-1.4-2.44-2.412-3.433-3.478c-0.651-0.698-1.363-0.784-2.258-0.583
	c-2.947,0.659-3.213,0.477-4.373-2.634c1.235-0.359,2.237-1.313,3.57-1.417c2.066,0.839,2.242,0.709,2.449-1.33
	c0.073-0.716-0.729-0.906-0.647-1.534c0.95-0.121,1.897-0.239,2.847-0.357c0.318,1.322,2.03,0.688,2.509,1.784
	c-0.241,0.477-0.479,0.954-0.718,1.43c-0.734,0.442-1.288,1.122-2.313,1.141c-0.902,0.021-1.281,0.903-1.155,1.691
	c0.15,0.903,0.867,0.726,1.543,0.488c0.827-0.29,1.509,0.129,2.1,0.635c0.465,0.4,0.906,0.763,1.561,0.687
	c0.332-0.035,0.775,0.119,0.92-0.311c0.144-0.438-0.27-0.578-0.554-0.773c-0.605-0.429-1.467-0.471-2.055-1.553
	c2.076,0.433,3.491-1.724,5.56-0.688c0.568,0.285,1.128-0.133,1.536-0.606h0.004c1.257,0.816,2.068,2.439,3.928,2.147
	c-0.229,1.559,0.92,2.171,1.964,2.859c0.356,0.233,0.73,0.528,1.085,0.094c0.29-0.358,0.137-0.765-0.052-1.162
	c-0.321-0.688-1.822-0.828-1.148-1.855c0.558-0.847,1.531,0.229,2.324,0.007c0.099-0.03,0.174-0.136,0.263-0.205
	c0.195-0.631-1.362-0.683-0.502-1.527c1.096,0.158,2.012-0.329,2.982-0.737c0.975-0.408,0.645-0.854,0.243-1.401
	c0.864-0.934,1.729-1.864,3.205-1.432c0.254,0.595,0.552,1.18,0.756,1.79c0.386,1.15,1.146,1.816,2.354,1.764
	c1.255-0.055,2.461,0.178,3.679,0.38c0.43,0.464,1.044,0.501,1.595,0.67c0.28,0.086,0.61,0.034,0.779-0.258
	c0.157-0.279,0.109-0.636-0.151-0.797c-1.422-0.881-2.475-2.412-4.357-2.48c0.069-0.795-0.724-0.942-1.074-1.423
	c1.417-0.057,2.75,0.981,4.217,0.309c0.935-0.43,1.938-0.301,2.926-0.309c0.782,0.73,1.854,1.162,2.006,2.476
	c0.093,0.823,0.917,0.754,1.571,0.735c1.56,0.297,3.152,0.464,4.636,1.077c0.029,0.737,0.551,1.153,1.063,1.523
	c0.551,0.394,1.053,0.067,1.289-0.424c0.242-0.514-1.275-2.372-1.985-2.531c-0.118,0-0.234-0.007-0.353-0.007
	c-0.651-0.886-1.702-0.584-2.556-0.816c-0.082-0.664,0.657-0.435,0.797-0.817c-0.237-0.365-0.868,0.146-1.014-0.46
	c0.706-0.039,1.389-0.077,2.072-0.117c-1.96-0.878-4.123-0.645-6.089-1.359c-0.026-0.68,0.105-1.427-0.71-1.795
	c-1.407-1.14-2.259-0.997-2.958,0.487c-0.268,0.57-0.481,1.479-1.271,1.211c-1.738-0.576-3.38,0.456-5.072,0.104
	c0.078-1.031-0.87-1.038-1.429-1.434c0.295-0.006,0.559-0.07,0.715-0.354c0.968-0.188,2.15,0.494,2.861-0.715
	c0.117-0.003,0.234-0.003,0.352-0.007c0.616,0.286,1.23,0.593,1.905,0.168c-0.468-1.16-1.695-1.404-2.269-2.308
	c0.799-0.854,1.7-1.541,2.869-1.802c0.948,0.482,1.898,0.963,2.849,1.443c-0.046,0.814,0.008,1.796,0.874,1.935
	c1.373,0.224,2.806,0.116,4.21,0.102c0.292-0.007,0.66-0.424,0.507-0.61c-1.116-1.343,0.349-1.747,0.854-2.497
	c0.95,0,1.903-0.004,2.854-0.004c0.117,0.011,0.233,0.015,0.352,0.021h0.001c0.12,0.111,0.24,0.228,0.36,0.341
	c0.478,0.235,0.955,0.476,1.431,0.709c-0.222,0.448,0.523,1.158-0.182,1.369c-1.439,0.437-2.398,1.954-4.262,1.567
	c-1.186-0.251-0.922,0.482-0.203,0.999c0.423,1.197,1.445,1.342,2.502,1.432c2.094,0.47,3.757,1.29,3.676,3.889
	c-0.021,0.713,0.774,0.75,1.384,0.75c1.527,0,3.058,0.007,4.587,0.007c0.145,0.989,0.741,1.419,1.708,1.43
	c0.442,0.003,0.908-0.145,0.928,0.663c0.016,0.725,0.637,1.101,1.369,1.101c0.273,0,0.752-0.09,0.784-0.224
	c0.175-0.722-0.401-1.147-0.774-1.669c-0.224-0.309-0.964-0.302-0.67-0.918c0.342-0.721,0.374-0.703-0.487-1.098
	c-0.728-0.95-2.017-0.418-2.858-1.076c-0.225-0.485-0.584-0.836-1.065-1.074c0.121-0.354,0.239-0.71,0.359-1.068
	c1.395-0.516,2.849-0.328,4.284-0.36c2.029,1.749,4.485,1.472,6.881,1.407c0.568-0.013,1.515-0.129,1.628-0.437
	c0.522-1.44,1.653-0.839,2.566-0.965c0.421,1.309,2.188,2.617,0.004,3.929c-0.598,0.018-1.165-0.054-1.729-0.32
	c-2.025-0.98-4.188-1.228-6.412-1.113c-0.608,0.03-1.223,0.007-1.437,0.748c-0.103,0.358-0.081,0.729,0.173,1.013
	c0.467,0.52,1.223,0.602,1.624,0.246c0.966-0.853,1.929-0.315,2.861-0.175c1.084,0.161,2.288,0.709,2.225,1.893
	c-0.071,1.361-1.443,0.807-2.312,0.929c-0.475-0.005-0.95-0.005-1.426-0.005c-0.162-0.074-0.315-0.167-0.483-0.221
	c-0.536-0.19-1.139-0.269-1.422,0.297c-0.359,0.72,0.276,0.881,0.794,1.035c0.637,0.189,0.653,0.731,0.8,1.252
	c0.299,1.051,1.152,1.491,2.154,1.525c1.015,0.037,0.992-0.849,1.103-1.525c0.233-1.448,1.251-1.884,2.518-1.997
	c1.439-0.125,2.803,0.202,4.157,0.677c1.163,0.412,2.366,0.723,3.564,1.019c0.605,0.151,1.15-0.197,1.19-0.763
	c0.045-0.668-0.628-0.589-1.07-0.57c-0.639,0.028-1.79,0.322-1.829,0.205c-0.637-1.894-2.517-0.915-3.611-1.653
	c1.258-2.774,3.485-3.342,7.248-1.804c-0.101,0.083-0.176,0.184-0.274,0.227c-0.587,0.222-1.563-0.694-1.713,0.111
	c-0.188,1.007,1.118,0.705,1.706,1.093c0.046,0.029,0.116,0.017,0.177,0.021c-0.026,0.8,0.196,1.442,1.142,1.413
	c1.197-0.043,2.134,0.53,3.063,1.157c0.588,0.399,1.215,0.837,1.95,0.55c1.035-0.395,2.089-0.198,3.136-0.263
	c-0.108-0.866-0.803-0.591-1.328-0.734c-1.116-0.297-2.468,0.104-3.313-1.051c0.677-0.294,0.998-0.96,1.063-1.545
	c0.083-0.734-0.153-1.502,0.894-1.645c0.96-0.133,1.882,0.168,2.347,0.957c1.121,1.892,1.761,0.739,2.485-0.268
	c1.028-0.072,1.501,0.408,1.431,1.428c-0.357,0.241-0.715,0.478-1.074,0.715c-0.353,0-0.705-0.003-1.057,0
	c-0.525,0.014-1.218-0.044-1.272,0.627c-0.069,0.828,0.674,0.781,1.258,0.804c0.476-0.356,0.954-0.711,1.431-1.073
	c0.394,0.076,0.796,0.119,1.179,0.22c1.458,0.397,2.408,0.082,2.39-1.646c-0.114-0.359-0.232-0.715-0.35-1.071
	c1.218-0.428,2.411-0.738,3.214,0.709c-0.003,0.118-0.004,0.241-0.004,0.355c-0.563,0.393-1.294,0.737-1.271,1.513
	c0.017,0.594,0.695,0.774,1.173,0.888c1.052,0.259,1.149-0.724,1.533-1.321c0.357-0.004,0.713-0.007,1.068-0.007
	c1.65,0.475,3.291,0.999,4.955,1.411c0.705,0.176,0.842,0.556,0.69,1.136c-0.187,0.715-0.542,1.187-1.361,0.682v-0.003
	c-0.115-0.004-0.231-0.008-0.349-0.013c-1.295-0.543-2.776-0.494-4.013-1.25c-0.204-0.125-0.533-0.075-0.501,0.259
	c0.188,1.892-0.721,0.731-1.286,0.466c-0.628-0.302-1.288-0.153-1.934-0.173c-0.301-0.006-0.653,0.036-0.669,0.412
	c-0.011,0.318,0.271,0.484,0.568,0.596c0.338,0.129,0.996-0.061,0.842,0.609c-0.106,0.473-0.54,0.792-1.056,0.835
	c-0.531,0.051-1.07,0.032-1.606,0.043c-0.238,0-0.473,0-0.711,0c-0.872,0.044-2.244-0.917-2.146,1.069
	c-0.398,0.971-0.698,2.442-1.813,2.365c-2.127-0.166-3.989,0.946-6.048,0.846c-0.792-0.982-1.104-2.301-2.591-3.239
	c0.932,0.103,1.412-0.087,1.873-0.331c1.109-0.08,2.323,0.323,3.218-0.71c1.345-0.688,2.786-0.231,4.179-0.36
	c0.585-0.059,1.074-0.217,1.118-0.879c0.033-0.469-0.344-0.94-0.724-0.828c-1.635,0.49-3.341-0.604-4.933,0.275
	c-0.567,0.358-0.095,0.717,0,1.072c-0.836,0.705-2.037-0.047-2.861,0.713c-0.795,0.104-1.52-0.192-2.24-0.441
	c-0.592-0.196-1.184-0.448-1.534,0.276c-0.296,0.613-0.271,1.29,0.269,1.799c0.338,0.327,0.77,0.542,1.13,0.85
	c0.204,0.17,0.576,0.528,0.21,0.686c-2.064,0.903-0.136,1.713,0.021,2.552c-1.361-0.007-2.731,0.126-4.037-0.426
	c-0.468-0.197-1.084-0.574-1.262,0.29c-0.144,0.698,0.271,1.24,0.976,1.167c1.197-0.125,2.172,0.507,3.254,0.761
	c2.379,1.209,4.8,1.503,7.55,0.471c-2.194-1.219-4.406-1.066-6.474-1.549c0.119-0.118,0.236-0.236,0.354-0.357
	c0.776-0.063,1.68,0.275,2.149-0.707c0.238-0.122,0.474-0.243,0.711-0.363c2.726-0.179,5.336-1.53,8.154-0.784
	c0.109,0.027,0.283-0.183,0.428-0.282c0.474-0.004,0.948-0.009,1.423-0.015c1.901-0.334,3.428,0.638,5.004,1.436
	c1.191,1.036,2.384,1.03,3.577,0.009c0.649-0.085,1.369,0.189,2.205-0.412c-1.234-0.776-2.357-1.063-3.608-1.039
	c-0.786,0.013-1.699,0.282-2.182-0.7c0.963-1.911-0.603-1.297-1.423-1.426c0.606-1.523,2.121-1.007,3.216-1.432
	c0.121,0.359,0.241,0.715,0.362,1.072c0.615,0.725,5.916,2.373,6.768,2.094c0.404-0.137,0.843-0.364,0.834-0.816
	c-0.009-0.55-0.53-0.518-0.938-0.563c-0.575-0.065-1.217,0.168-1.984-0.366c2.446-0.675,4.303-2.396,6.815-1.875
	c0.189,0.039,0.43-0.169,0.648-0.27c1.606-0.527,2.632-2.486,4.721-1.9c0.156,0.044,0.547-0.421,0.689-0.716
	c0.647-1.323,1.551-2.334,3.015-2.764c0.509-0.155,0.578-0.563,0.415-1c-0.155-0.424-0.549-0.438-0.892-0.344
	c-0.395,0.105-0.775,0.282-1.141,0.469c-1.63,0.838-2.816,0.428-3.579-1.233c0.235-0.003,0.469-0.007,0.704-0.011
	c0.216,0.094,0.423,0.234,0.647,0.271c0.821,0.146,1.677,0.281,2.252-0.528c0.562-0.789-0.128-1.316-0.525-1.842
	c-0.449-0.593-0.378-1.191-0.224-1.825c0.293-0.009,0.559-0.078,0.715-0.357c0.688-0.011,1.427,0.114,1.783-0.718
	c0.718,0,1.43,0,2.146,0c0.313-0.565,0.458-1.149-0.347-1.363c-0.821-0.214-0.631-0.633-0.367-1.139
	c0.362-0.252,0.889-0.383,0.694-1.122c-1.653,0.526-3.004-0.878-4.627-0.67c-0.049-1.047,0.518-1.247,1.353-0.911
	c1.724,0.685,3.225-0.239,4.798-0.615c0.364-0.088,0.726-0.653,0.553-0.76c-0.908-0.557-0.83-2.31-2.415-2
	c-0.657-0.813-2.197-0.331-2.605-1.664c0.999-0.051,1.869-0.072,2.734-0.148c0.629-0.056,0.964-0.461,0.902-1.087
	c-0.08-0.823-0.617-0.411-1.054-0.378c-0.825,0.063-1.654,0.051-2.481,0.063c-0.595,0-1.189,0-1.785,0
	c-0.236-0.694-1.678-1.188-0.356-2.143c0.443-0.251,0.907-0.415,1.425-0.365c0.116,0.021,0.235,0.036,0.345,0.071
	c0.042,0.019,0.101,0.115,0.088,0.14c-0.235,0.376-0.835,0.449-0.868,1.108c2.636,1.007,4.511-0.878,6.683-1.675
	c-1.463-0.384-2.895-0.563-4.332-0.702c-0.734-0.073-1.412,0.104-1.911,0.709c-2.193-0.269-4.298,0.42-6.582,0.782
	c0.509-0.892,1.296-1.111,1.876-1.584c0.594-0.478,1.237-0.896,1.857-1.341c0.233-0.004,0.467-0.008,0.701-0.011
	c1.71,0.023,3.266-0.241,3.936-2.138c0.232,0.022,0.564-0.039,0.683,0.092c1.147,1.239,1.858-0.012,2.683-0.468
	c0.282-0.154,0.655-0.59,0.303-0.853c-0.777-0.58-1.568,0.121-2.363,0.184c-0.204,0.017-0.394,0.215-0.591,0.329
	c-0.477,0-0.953,0-1.428,0c-0.8-0.856-2.062,0.144-2.86-0.717c0.357,0,0.714,0,1.071,0c0.95-0.154,1.981,0.361,2.861-0.354
	c0.409-0.24,0.864-0.42,1.217-0.725c0.437-0.369,1.029-0.732,0.853-1.443c-0.209-0.823-0.892-0.263-1.339-0.398
	c-1.303-0.389-2.963,0.619-3.948-1.004c0.002,0,0.002,0,0.002,0c0.819-0.212,1.634-0.47,2.499-0.363
	c1.216,0.424,2.378,0.979,3.202-0.724c0.796-1.659-0.703-1.768-1.426-2.395c-0.526-0.448-1.214,0.559-1.779-0.097
	c0.12-0.118,0.239-0.239,0.358-0.359c1.266-0.279,2.535-0.54,3.79-0.859c0.313-0.078,0.744-0.222,0.679-0.682
	c-0.058-0.404-0.414-0.55-0.788-0.577c-1.134-0.078-2.296-0.158-3.173,0.749c-0.557,0.578-1.197,0.714-1.935,0.657
	c-0.998-0.711,0.555-1.31,0.003-2.177c-1.382,0.926-2.31-0.593-3.575-0.685c0.954-1.014,2.179-1.84,1.884-3.569
	c-0.091-0.545,0.702-0.706,1.142-0.988c1.216-0.779,2.185-1.787,2.88-3.066c-1.385,0.317-2.96,0.036-3.766,1.549
	c-0.806-0.141-1.403,0.512-2.298,0.616c0.103-0.53,1.091-1.466-0.502-1.255c-0.731,0.098-0.625-0.621-0.411-1.144
	c0.62-0.085,1.334,0.233,1.833-0.356c0.227-0.271,0.039-0.589-0.167-0.794c-0.611-0.6-1.226-0.115-1.806,0.076
	c-0.803,0.262-1.575,0.548-2.364,0c0.035-0.623-0.018-1.229-0.349-1.778c1.537,0.255,3.016,0.456,3.575-1.588
	c0.229-0.839,0.311-1.373-0.826-1.29c-0.787,0.056-1.598,0.049-1.682-1.06c1.579-0.227,3.412,0.651,4.645-1.074
	c0.273,0.058,0.723,0.047,0.786,0.193c0.125,0.299-0.588,0.978,0.431,0.851c0.743-0.094,0.93-0.593,0.897-1.27
	c-0.12-2.509-0.008-2.62,2.514-2.638c0.53-0.004,1.062-0.008,1.589-0.046c0.338-0.027,0.502-0.274,0.528-0.601
	c0.018-0.236-0.03-0.626-0.239-0.576c-1.423,0.365-2.02-1.321-3.292-1.279c-0.398-0.655-2.368-0.054-1.43-1.785
	c0.963-0.438,1.935-0.856,2.88-1.331c0.218-0.107,0.591-0.317,0.394-0.652c-0.141-0.235-0.57,0.22-0.774-0.156
	c1.073-1.216,3.033-1.24,4.113-3.28c-1,0.655-1.72,1.071-2.408,0.606c-0.541-0.363-0.051-0.84,0.08-1.264
	c-0.235,0.005-0.475,0.005-0.711,0.005c-0.113,0.21-0.297,0.279-0.499,0.319c0.094-0.04,0.138-0.144,0.121-0.324
	c-0.446-0.06-0.739-0.191-0.779-0.329c0.155,0.165,0.41,0.277,0.779,0.326v0.003c0.007,0,0.013,0.005,0.021,0.005
	c0.241,0.029,0.383-0.057,0.476-0.177c0.283,0.154,0.448,0.177,0.593,0.172c0.146-0.787,2.666-0.436,1.001-2.089
	c1.549-1.467-0.378-1.079-0.786-1.349c-0.795-0.522-1.325-0.995-0.569-1.925c2.362,0.432,1.997-1.09,1.788-2.498
	c0.511-0.843,0.811-1.832,1.805-2.301c1.896-0.896,3.443-2.303,5.164-3.648c-1.583,0.493-3,0.087-4.464-0.381
	c-1.184-0.379-1.732,0.413-1.294,1.678c0.14,0.411,0.338,1.031-0.261,0.895c-1.872-0.425-3.813,0.137-5.938-0.404
	c2.24-1.688,5.584-0.645,6.906-3.674c-1.032,0.1-1.889,0.454-2.706,0.915c-0.64,0.355-1.223,0.45-1.714-0.228
	c0-0.24,0-0.476,0-0.713c0.188-0.871-0.535-2.338,0.609-2.506c1.808-0.266,3.08-1.542,4.852-1.901
	c1.985-0.405,3.811-1.593,5.962-2.558c-1.693-0.461-2.796,0.113-3.91,0.693c-0.429,0.225-1.053,0.752-1.322-0.056
	c-0.396-1.197-0.866-0.481-1.4-0.195c-1.387,0.743-2.321,0.405-2.81-0.968c-0.127-0.344-0.273-0.709,0.097-0.952
	c0.274-0.178,0.526,0.011,0.781,0.206c1.535,1.177,3.462,0.34,5.138,0.949c0.43,0.158,1.096-0.347,1.658-0.533
	c0.288-0.093,0.623-0.182,0.535-0.551c-0.043-0.189-0.319-0.464-0.478-0.46c-1.224,0.069-2.111-1.595-3.617-0.551
	c-0.499,0.349-1.599-0.961-2.386,0.236c-0.154,0.24-0.459-0.206-0.473-0.506c-0.028-0.477-0.015-0.954-0.019-1.428
	c0.238-0.12,0.476-0.237,0.711-0.358c0.878,0.465,1.606,0.563,1.789-0.713c0.074-0.795-0.776-0.557-1.16-0.985
	c0.56-0.165,1.038-0.306,1.517-0.448c1.609,0.217,2.904-0.319,3.927-1.588c0.49-0.607,1.195-1.363,1.896-1.162
	c1.787,0.504,2.453-0.504,3.161-1.783C251.282,106.8,251.19,106.395,250.594,106z" class="color c1"/>
</svg>