<svg version="1.1" id="图层_1" x="0px" y="0px" width="80.5px" height="143.305px" viewBox="0 0 80.5 143.305" enable-background="new 0 0 80.5 143.305" xml:space="preserve" xmlns="http://www.w3.org/2000/svg" xmlns:xlink="http://www.w3.org/1999/xlink" xmlns:xml="http://www.w3.org/XML/1998/namespace">
  <path fill="#261D20" d="M0,0v25.981h0.061c0.011,1.644,1.036,3.04,2.478,3.596c12.798,4.894,31.883,17.285,31.883,31.8
	c0,4.977-2.13,14.805-3.449,22.723c-1.438,5.396-5.717,28.269-2.51,40.029c2.911,10.68,11.558,19.176,11.558,19.176
	s8.646-8.496,11.559-19.172c3.207-11.764-0.453-34.637-1.891-40.031c-1.324-7.918-3.449-17.746-3.449-22.723
	c0-14.512,19.088-26.907,31.883-31.8c1.201-0.46,2.1-1.503,2.379-2.78V0H0z M40.319,127.053c-2.287,0-4.143-1.852-4.143-4.137
	c0-2.291,1.86-4.146,4.143-4.146c2.289,0,4.15,1.855,4.15,4.146C44.469,125.202,42.607,127.053,40.319,127.053z" class="color c1"/>
  <path fill="#FFFFFF" d="M40.69,140.295c-0.367,0.348-0.949,0.328-1.299-0.041c-0.287-0.305-7.046-7.574-9.586-18.369
	c-2.646-11.25,1.049-29.834,2.771-37.342c0.42-2.933,1.025-6.221,1.608-9.4c1.011-5.51,1.965-10.711,1.965-13.766
	c0-13.659-16.819-26.259-27.787-31.121c-0.189-0.086-0.457-0.188-0.772-0.309c-2.359-0.914-4.498-1.857-4.715-3.391
	c-0.071-0.502,0.278-0.972,0.783-1.042c0.043-0.006,0.088-0.009,0.131-0.009c0.45,0,0.845,0.326,0.909,0.787
	c0.118,0.419,1.315,1.067,3.557,1.935c0.35,0.134,0.647,0.251,0.855,0.345C20.732,33.724,37.993,47,37.993,61.375
	c0,3.221-0.967,8.504-1.996,14.096c-0.583,3.18-1.187,6.467-1.604,9.373l-0.015,0.074c-1.69,7.36-5.342,25.651-2.78,36.547
	c2.422,10.297,9.067,17.459,9.133,17.529C41.079,139.365,41.061,139.946,40.69,140.295z" class="color c2"/>
</svg>