<svg version="1.1" id="图层_1" x="0px" y="0px" width="31.142px" height="34.033px" viewBox="0 0 31.142 34.033" enable-background="new 0 0 31.142 34.033" xml:space="preserve" xmlns="http://www.w3.org/2000/svg" xmlns:xlink="http://www.w3.org/1999/xlink" xmlns:xml="http://www.w3.org/XML/1998/namespace">
  <path fill="#080000" d="M31.113,21.172c-0.098-0.284-2.429-6.973-5.646-8.672c-0.193-0.102-0.395-0.205-0.602-0.311
	c0.966-3.243,1.279-5.956,0.643-8.31c-0.618-2.294-2.737-3.997-4.821-3.874c-1.836,0.108-3.139,1.579-3.487,3.935
	c-0.108,0.739-0.103,1.412-0.02,2.039c-0.432,0.601-0.727,1.121-0.813,1.282L0.185,33.03c-0.123,0.196-0.276,0.441-0.117,0.729
	l0.153,0.273h0.311c0.272,0,0.419-0.184,0.56-0.359l18.612-23.361c1.188,1.008,2.611,1.769,3.894,2.419
	c-0.575,1.779-1.337,3.729-2.239,5.872c-2.476,5.895-1.323,10.76,0.423,11.871c0.086,0.055,0.184,0.082,0.281,0.082
	c0.175,0,0.344-0.087,0.445-0.244c0.156-0.244,0.083-0.57-0.162-0.726c-1.228-0.782-2.316-5.104-0.017-10.573
	c0.885-2.104,1.639-4.029,2.218-5.803c0.147,0.076,0.291,0.149,0.429,0.223c2.849,1.507,5.12,8.019,5.143,8.084
	c0.095,0.274,0.393,0.42,0.668,0.326C31.062,21.747,31.208,21.447,31.113,21.172z M17.664,9.936l-1.036,0.857l0.41-1.281
	c0.119-0.376,0.345-1.041,0.645-1.755c0.235,0.508,0.531,0.971,0.874,1.396C18.161,9.52,17.823,9.805,17.664,9.936z M19.321,8.412
	c-0.455-0.586-0.796-1.25-0.986-2.008c0.51-0.907,1.119-1.643,1.763-1.643c0.179,0,0.351,0.05,0.509,0.15
	c0.264,0.166,0.412,0.419,0.433,0.727C21.087,6.402,20.208,7.504,19.321,8.412z M23.912,11.708c-1.219-0.621-2.502-1.321-3.547-2.22
	c0.7-0.904,2.068-2.882,1.886-4.335c-0.063-0.509-0.312-0.929-0.718-1.215c-0.336-0.236-0.706-0.356-1.096-0.356
	c-0.814,0-1.598,0.536-2.259,1.204c0.009-0.225,0.028-0.454,0.063-0.692c0.274-1.853,1.188-2.961,2.507-3.038
	c0.048-0.001,0.096-0.003,0.144-0.003c1.383,0,3.068,1.127,3.601,3.102C25.058,6.256,24.782,8.731,23.912,11.708z" class="color c1"/>
</svg>