<svg version="1.1" id="图层_1" x="0px" y="0px" width="200px" height="155.542px" viewBox="0 0 200 155.542" enable-background="new 0 0 200 155.542" xml:space="preserve" xmlns="http://www.w3.org/2000/svg" xmlns:xlink="http://www.w3.org/1999/xlink" xmlns:xml="http://www.w3.org/XML/1998/namespace">
  <path fill="#100B07" d="M199.964,80.878c0.296-7.346-1.394-14.416-3.489-21.445c-0.742-2.068-1.699-4.055-2.854-5.925
	c-0.912-1.646-1.916-3.238-3.006-4.773c-1.496-2.126-3.078-4.192-4.658-6.259c-0.569-0.745-1.244-1.412-1.86-2.122
	c-4.707-5.629-10.035-10.709-15.884-15.143c-4.821-3.505-9.883-6.685-14.892-9.928c-10.866-6.975-22.936-11.869-35.59-14.434
	c-4.407-0.994-8.969-1.117-13.424-0.36c-5.149,0.933-10.375,1.477-15.519,2.438c-4.926,0.922-9.856,1.935-14.67,3.313
	c-9.281,2.657-17.382,7.78-25.196,13.216c-7.958,5.652-15.201,12.251-21.569,19.647C17.507,50.301,9.642,63.095,4.096,76.936
	c-0.682,1.528-1.181,3.133-1.486,4.778c-0.992,6.828-1.837,13.679-2.501,18.736c-0.114,1.869-0.134,3.742-0.078,5.609
	c-0.193,7.34,0.91,14.66,3.292,21.617c1.841,3.982,4.003,7.809,6.465,11.441c0.122,0.17,0.27,0.321,0.437,0.448
	c2.638,2.388,5.144,4.949,7.954,7.113c2.741,2.262,5.736,4.194,8.925,5.766c6.095,2.574,12.74,3.566,19.319,2.886
	c7.446-0.656,14.576-3.322,20.626-7.715c4.899-3.441,9.262-7.591,12.944-12.313c2.871-3.494,6.665-6.113,10.951-7.558
	c1.866-0.707,3.881-0.93,5.854-0.643c3.523,0.506,6.968,1.451,10.257,2.813c8.451,3.654,17.301,6.308,26.369,7.906
	c9.053,1.766,17.514-0.381,25.957-2.641c4.352-1.48,8.557-3.359,12.561-5.617c5.789-2.957,11.043-6.859,15.545-11.545
	c1.341-1.326,2.519-2.807,3.509-4.41c4.471-7.604,7.373-16.025,8.537-24.768C199.954,86.148,200.068,83.498,199.964,80.878z
	 M93.27,110.138c-3.2,3.824-7.228,6.869-11.776,8.911c-7.015,3.055-13.887,6.445-20.96,9.35c-4.29,1.833-8.753,3.236-13.323,4.185
	c-4.004,1.17-8.269-0.732-10.076-4.492c-0.534-1.339-0.925-2.733-1.165-4.154c-0.051-3.987,1.474-7.833,4.24-10.706
	c3.801-4.196,7.882-8.13,12.22-11.772c4.227-3.563,8.664-6.87,13.285-9.907c5.488-4.051,12.711-4.885,18.979-2.195
	c1.433,0.606,2.865,1.242,4.345,1.711C97.274,93.681,98.268,104.376,93.27,110.138z" class="color c1"/>
  <path fill="#FFFFFF" d="M197.42,71.959c-0.277-2.279-0.703-4.54-1.277-6.764c-0.397-2.256-1.01-4.47-1.826-6.609
	c-1.098-2.465-2.961-4.592-4.02-7.067c-2.213-5.172-6.223-8.91-9.93-12.844c-6.783-7.29-14.496-13.659-22.939-18.943
	c-10.701-6.987-22.379-12.352-34.652-15.917c-5.168-1.358-10.541-1.757-15.854-1.181c-7.811,0.776-15.6,1.869-23.345,3.148
	c-5.305,0.735-10.448,2.36-15.214,4.806c-4.592,2.503-9.11,5.148-13.583,7.86c-10.927,6.496-20.567,14.946-28.44,24.928
	c-2.769,3.551-5.507,7.138-8.058,10.847c-5.396,7.622-9.61,16.016-12.5,24.897c-2.649,8.854-3.87,18.069-3.614,27.309
	c-0.213,2.84,0.445,5.676,1.89,8.131l-0.074-0.07l0.841,4.033c0,0,0.471,2.508,0.749,3.102c0.277,0.592,0.89,1.681,0.89,1.681
	l0.685,3.17c3.702,6.394,8.757,11.896,14.811,16.131c3.841,2.722,8.236,4.562,12.872,5.388c1.823,0.455,3.696,0.686,5.575,0.686
	c3.549-0.172,7.076-0.658,10.539-1.451c7.374-1.881,14.407-4.623,19.569-10.613c2.73-3.168,5.19-6.568,7.91-9.746
	c4.336-5.066,9.596-8.434,16.573-7.994c2.404,0.111,4.789,0.5,7.105,1.156c7.188,2.186,14.256,4.781,21.477,6.852
	c8.977,2.574,18.025,4.531,27.541,2.863c6.619-1.068,12.979-3.373,18.744-6.795c3.514-2.082,6.875-4.414,10.057-6.977
	c2.902-2.381,5.559-5.049,7.928-7.963c4.33-5.707,7.168-12.402,8.258-19.482C197.327,83.093,197.77,77.516,197.42,71.959z
	 M87.847,110.183c-2.561,3.06-5.784,5.496-9.423,7.13c-5.613,2.444-11.111,5.157-16.771,7.481c-3.432,1.466-7.003,2.589-10.66,3.348
	c-3.204,0.936-6.615-0.586-8.061-3.595c-0.427-1.07-0.741-2.187-0.933-3.324c-0.041-3.189,1.179-6.267,3.392-8.565
	c3.042-3.358,6.307-6.505,9.777-9.42c3.382-2.85,6.933-5.496,10.63-7.927c4.392-3.241,10.171-3.908,15.186-1.756
	c1.147,0.484,2.292,0.993,3.477,1.369C91.051,97.015,91.846,105.573,87.847,110.183z" class="color c2"/>
  <path fill="#100B07" d="M40.193,122.037c-0.044-3.429,1.267-6.736,3.646-9.207c3.269-3.609,6.779-6.992,10.509-10.125
	c3.636-3.063,7.452-5.908,11.426-8.521c4.72-3.483,10.932-4.201,16.322-1.888c1.233,0.521,2.464,1.068,3.737,1.472
	c7.083,2.248,7.938,11.446,3.639,16.401c-2.752,3.289-6.216,5.908-10.128,7.664c-6.033,2.627-11.943,5.543-18.026,8.041
	c-3.689,1.576-7.528,2.783-11.458,3.599c-3.444,1.006-7.111-0.63-8.665-3.863C40.736,124.458,40.399,123.259,40.193,122.037z
	 M88.813,103.25c-0.281-0.474-0.663-1.961-1.606-2.551c-5.809-3.636-11.764-6.828-18.436-1.724
	c-0.413,0.258-0.852,0.476-1.308,0.646c-7.616,3.903-14.271,9.45-19.482,16.235c-0.69,0.996-1.322,2.03-1.895,3.101
	c-1.502,1.903-1.503,4.588-0.002,6.492c1.641,2.092,4.452,2.868,6.935,1.918c1.12-0.464,2.346-0.687,3.446-1.185
	c7.431-3.363,14.893-6.662,22.225-10.228c2.438-1.361,4.747-2.94,6.897-4.725C87.952,109.481,88.505,106.854,88.813,103.25z" class="color c1"/>
</svg>