<svg version="1.1" id="图层_1" x="0px" y="0px" width="95.502px" height="74.88px" viewBox="0 0 95.502 74.88" enable-background="new 0 0 95.502 74.88" xml:space="preserve" xmlns="http://www.w3.org/2000/svg" xmlns:xlink="http://www.w3.org/1999/xlink" xmlns:xml="http://www.w3.org/XML/1998/namespace">
  <g>
    <path fill="#292C33" d="M36.415,36.665c0-3.338-0.919-6.471-2.511-9.15c2.352-2.8,3.772-6.417,3.772-10.365
		c0-8.915-7.227-16.144-16.143-16.142C3.596,1.015,4.578,7.563,1.264,18.276c-1.905,6.156-1.552,9.814,0.361,11.976
		c-0.764,1.994-1.188,4.159-1.188,6.415c0,9.924,8.068,17.988,17.987,17.988S36.415,46.589,36.415,36.665z" class="color c1"/>
    <path fill="#292C33" d="M47.521,56.294c-17.164,0-30.107,6.432-30.107,14.967c0,0.283,0.02,0.523,0.04,0.751
		c0.143,1.625,1.505,2.868,3.138,2.868h53.854c1.63,0,2.986-1.243,3.135-2.864c0.017-0.216,0.044-0.472,0.044-0.76
		C77.627,62.728,64.682,56.294,47.521,56.294z" class="color c1"/>
    <path fill="#292C33" d="M95.502,16.974c0-9.374-7.6-16.979-16.979-16.974C59.656,0.004,60.691,6.894,57.205,18.159
		c-5.41,17.49,6.487,15.796,21.317,15.796C87.902,33.955,95.502,26.354,95.502,16.974z" class="color c1"/>
    <path fill="#292C33" d="M47.957,35.308c-0.036,0.002-0.17,0.002-0.207,0c-1.841-0.068-6.511,8.777-6.318,11.623
		c0.193,2.846,3.376,3.377,3.376,3.377s2.073-3.127,3.046-3.637c0.973,0.51,3.046,3.637,3.046,3.637s3.184-0.531,3.376-3.377
		S49.799,35.239,47.957,35.308z" class="color c1"/>
    <g>
      <g>
        <g>
          <path fill="#FFFFFF" d="M28.63,30.979c-0.089-0.296-0.225-0.592-0.409-0.867c-1.615-2.395-2.542-5.834-2.542-9.438v-8.97
					c0-1.74-1.412-3.15-3.149-3.15c-1.739,0-3.151,1.41-3.151,3.15v8.97c0,1.218-0.019,3.392-0.31,4.657
					c-0.168,0.731-1.449,1.06-1.465-0.182v-8.92c0-1.76-1.427-3.188-3.188-3.188s-3.188,1.428-3.188,3.188c0,0,0.041,4.688,0,6.771
					s-0.66,4.518-2.096,6.587s-2.394,4.42-2.394,7.078c0,6.443,5.243,11.688,11.684,11.687c6.443,0,11.687-5.243,11.687-11.687
					C30.109,34.602,29.569,32.663,28.63,30.979z" class="color c2"/>
        </g>
        <g>
          <path fill="#FFFFFF" d="M77.813,5.794c-6.295,0-11.417,5.123-11.417,11.418c0,6.297,5.122,11.42,11.417,11.42
					c6.298,0,11.422-5.123,11.422-11.42C89.234,10.917,84.11,5.794,77.813,5.794z" class="color c2"/>
        </g>
      </g>
    </g>
    <g>
      <g>
        <g>
          <circle fill="#292C33" cx="18.954" cy="40.519" r="5.458" class="color c1"/>
        </g>
        <g>
          <circle fill="#292C33" cx="77.815" cy="17.212" r="5.741" class="color c1"/>
        </g>
      </g>
    </g>
    <g>
      <g>
        <path fill="#FFEFAE" d="M42.474,67.468c-2.1-0.131-4.063-0.367-5.876-0.689v-4.85h5.876V67.468z" class="color c3"/>
        <path fill="#FFEFAE" d="M59.109,67.244c-1.803,0.378-3.765,0.671-5.877,0.854v-6.17h5.877V67.244z" class="color c3"/>
        <polygon fill="#FFEFAE" points="44.212,68.5 45.295,68.708 46.049,66.979 46.67,66.917 47.254,69 51.795,68.958 51.415,61.647 
				44.147,61.938 			" class="color c3"/>
      </g>
    </g>
  </g>
</svg>