<svg version="1.1" id="图层_1" x="0px" y="0px" width="43.045px" height="38.556px" viewBox="0 0 43.045 38.556" enable-background="new 0 0 43.045 38.556" xml:space="preserve" xmlns="http://www.w3.org/2000/svg" xmlns:xlink="http://www.w3.org/1999/xlink" xmlns:xml="http://www.w3.org/XML/1998/namespace">
  <path fill="#EE2342" d="M34.534,14.087c-0.03,0.009-4.693,1.128-7.75-1.199c-1.046-0.797-1.815-1.91-2.344-3.419l-3.248-9.231
	L21.133,0l-0.022,0.139l-2.955,9.429c-0.475,1.524-1.208,2.672-2.226,3.501c-2.977,2.427-7.673,1.473-7.702,1.464L0,12.696
	l4.562,7.092c4.484,6.956-0.181,13.573-0.37,13.832L0.53,38.556l11.9-6.28c0.944-2.877,1.527-6.652,0.403-10.798
	c2.789-0.35,6.152-1.575,8.592-4.101c2.529,2.452,5.938,3.555,8.744,3.811c-0.983,4.181-0.274,7.936,0.773,10.779l12.103,5.867
	l-3.825-4.81c-0.196-0.257-5.086-6.712-0.846-13.814l4.312-7.235L34.534,14.087z" class="color c1"/>
</svg>