<svg version="1.1" id="图层_1" x="0px" y="0px" width="119.619px" height="108.732px" viewBox="0 0 119.619 108.732" enable-background="new 0 0 119.619 108.732" xml:space="preserve" xmlns="http://www.w3.org/2000/svg" xmlns:xlink="http://www.w3.org/1999/xlink" xmlns:xml="http://www.w3.org/XML/1998/namespace">
  <g>
    <path fill="#D5A73F" d="M114.808,23.436C108.588,9.438,96.963,0,83.623,0H35.996C22.659,0,11.031,9.438,4.811,23.436
		c15.905,6.119,34.779,9.674,54.999,9.674S98.904,29.555,114.808,23.436z" class="color c1"/>
    <path fill="#B08C35" d="M109.818,108.732l9.801-61.98c0-0.346-0.014-0.693-0.021-1.037c-11.795,4.207-25.11,7.229-39.501,8.721
		l-2.813,18.66h19.486L109.818,108.732" class="color c2"/>
    <path fill="#B08C35" d="M9.8,108.732l13.045-35.637h19.487l-2.814-18.662c-14.395-1.49-27.706-4.512-39.5-8.719
		C0.012,46.059,0,46.406,0,46.752L9.8,108.732" class="color c2"/>
  </g>
</svg>