<svg version="1.1" id="图层_1" x="0px" y="0px" width="309.633px" height="296.711px" viewBox="0 0 309.633 296.711" enable-background="new 0 0 309.633 296.711" xml:space="preserve" xmlns="http://www.w3.org/2000/svg" xmlns:xlink="http://www.w3.org/1999/xlink" xmlns:xml="http://www.w3.org/XML/1998/namespace">
  <path fill-rule="evenodd" clip-rule="evenodd" fill="#8ED1F6" d="M269.691,116.982c-0.709,0.283-1.424,0.568-2.133,0.853
	c-0.508,0.155-1.014,0.312-1.523,0.468c-0.02,0.094-0.053,0.183-0.068,0.279c-0.434,0.379-0.863,0.758-1.297,1.137
	c-0.479,0.201-0.963,0.278-1.455,0.248c-0.043,0.129-0.111,0.246-0.219,0.341c-0.277,0.236-0.471,0.324-0.584,0.267h0.021
	c-0.709,0.228-1.414,0.479-2.113,0.751l-0.094,0.03c-0.658,0.121-1.273,0.352-1.85,0.689c-1.275,1.24-2.08,2.738-2.445,4.475
	c-0.195-0.057-0.389-0.115-0.584-0.174c-1.104,4.119-3.738,7.499-5.602,11.254l-0.672-0.252l-0.625-0.352
	c-0.531,0.943-1.063,1.889-1.596,2.832c-0.436-0.212-0.875-0.421-1.311-0.633c-0.059,0.014-0.121,0.026-0.164,0.049
	c-0.098,0.155-0.191,0.31-0.291,0.465c-0.049,0.326,0.023,0.733-0.045,1.051c-0.207,0.55-0.602,0.889-1.152,1.055
	c-1.561,0.137-3.033,0.561-4.375,1.385l0.014-0.014c-0.57,0.203-1.146,0.365-1.734,0.49c-0.098,0.019-0.178,0.061-0.266,0.087
	c-0.338,0.44-0.674,0.879-1.01,1.318c-0.17-0.058-0.346-0.095-0.516-0.145c-0.078,0.116-0.162,0.229-0.232,0.358
	c-0.406,0.792-0.682,1.672-1.465,2.205c0.379,0.281,0.76,0.564,1.139,0.846c0.043,0,0.086,0,0.131-0.001
	c0.324,0.04,0.652,0.088,0.977,0.131c1.275,1.321,2.813,2.095,4.648,2.265c0.596,0.131,1.15,0.03,1.66-0.304
	c0.541,0.354,1.082,0.709,1.623,1.065l-0.02-0.428c0.727-0.059,1.434-0.215,2.123-0.465l0.002-0.004
	c0.736-0.201,1.453-0.479,2.223-0.549c-0.023,0.012-0.045,0.013-0.066,0.025l0.117-0.033c-0.018,0.002-0.033,0.007-0.051,0.008
	c1.148-0.555,2.357,0.471,3.506-0.119l0.086,0.002c1.146-0.35,2.301,0.715,3.441-0.021l0.193-0.021
	c0.713-0.082,1.418-0.197,2.117-0.351c3.504,0.228,6.316,1.771,8.523,4.475l-0.027-0.082c0.377,0.869,0.598,1.756,0.289,2.697
	l-0.199,0.346c-1.047,0.836-1.701,2.105-2.965,2.699l-0.084,0.057c-0.578,0.129-1.043,0.006-1.414-0.334
	c-0.037,0.098-0.07,0.195-0.102,0.294c0.148,0.992-0.307,1.663-1.141,2.128c-0.555,0.75-1.109,1.504-1.664,2.255
	c-0.65,0.681-1.463,0.997-2.381,1.079l0.094-0.065c-0.414,0.275-0.773,0.276-1.078,0.019c-0.248,0.368-0.564,0.678-0.973,0.912
	l-0.16,0.059c-1.137,0.199-1.549,1.143-2.041,2c-0.064,0.119-0.15,0.213-0.225,0.322c0.26,0.137,0.523,0.273,0.785,0.41
	c-0.627,0.251-1.25,0.5-1.875,0.748c-0.002,0.002-0.004,0.002-0.004,0.004c-0.432,0.459-0.865,0.914-1.297,1.374l0.387,0.032
	c-0.752,2.686-1.078,5.643-4.268,6.796c-0.732-0.259-1.348-0.134-1.791,0.55c-0.701,0.449-1.336,0.932-0.887,1.913
	c-0.398,0.994-0.795,1.989-1.193,2.985c0.047,1.167-0.723,2.244-0.387,3.443l-0.002-0.06c0.648,2.021-1.305,3.434-1.598,5.235
	c0.129,0.059,0.258,0.119,0.385,0.176c0.064-0.225,0.207-0.373,0.432-0.436l0.355,0.307l0.223,0.414
	c0.332,0.166,0.629,0.38,0.893,0.638c0.004,0,0.004,0.002,0.004,0.002c1.787-0.871,2.412,0.574,3.236,1.624
	c0.248-0.181,0.508-0.342,0.777-0.479c0.002,0,0.404,0.356,0.404,0.356l0.381,0.378l0.094-0.007
	c0.223-0.274,0.492-0.496,0.803-0.665c0.268,0.174,0.561,0.264,0.879,0.266c-0.059,0.277-0.229,0.416-0.512,0.419
	c-0.195,0.175-0.393,0.259-0.586,0.258c0.193,0.008,0.391-0.073,0.586-0.258c0.623,0.003,1.242,0.007,1.867,0.009
	c0.51,0.471,1.02,0.942,1.533,1.412c0.705,0.73,1.418,1.457,2.115,2.193c0.725,0.768,1.518,1.354,2.662,1.107
	c0.594,0.213,1.104,0.021,1.574-0.346c0.467,0.52,0.936,1.04,1.402,1.559c-0.721,1.145,0.221,1.68,0.855,2.331
	c-0.369,0.741-0.928,1.425-0.684,2.343c-0.646,1.017-0.025,1.692,0.635,2.355c-0.148,0.258-0.258,0.529-0.332,0.814
	c0.209,0.768,0.416,1.536,0.625,2.303c-0.305,0.501-0.416,1.014-0.098,1.553c-0.439,0.565-0.879,1.129-1.318,1.694
	c0.086,0.24,0.211,0.458,0.373,0.655c-0.217,0.158-0.449,0.289-0.693,0.393c-0.176,0.869-0.787,1.389-1.477,1.851
	c-0.482,1.05-1.262,1.831-2.209,2.462c-0.746,0.749-1.494,1.498-2.238,2.246c0.252,0.563-0.047,1.162-0.188,1.75l0.02-0.047
	c0.143,0.531,0.131,1.067,0.055,1.604l-0.004,0.012c0.055,0.846,0.832,1.379,0.955,2.192c0.104,0.366,0.297,0.671,0.582,0.923
	c0.012,0.314-0.08,0.559-0.232,0.764c0.512,0.785,1.025,1.572,1.537,2.357c-0.268,0.525-0.252,1.032,0.082,1.525
	c-0.322,1.051-1.107,1.707-1.961,2.307c-0.91-0.383-1.496,0.221-2.121,0.697c-0.109,0.359-0.336,0.614-0.682,0.758
	c-0.002,0.002-0.002,0.002-0.004,0.002c0.002,0,0.002,0,0.004,0c0.162,0.328,0.326,0.658,0.49,0.988
	c-0.146,0.275-0.365,0.472-0.656,0.587c-0.047,0.004-0.09,0.015-0.137,0.021c0.305,1.111-0.941,1.746-1.09,2.719l-0.225,0.195
	c-0.652,0.402-1.305,0.723-2.002,0.397c-0.137,0.251-0.314,0.46-0.545,0.625c-0.553-0.278-1.074-0.263-1.555,0.154
	c-0.941-0.233-1.633,0.284-2.332,0.772c-0.195-0.141-0.408-0.244-0.627-0.342c-0.188,0.252-0.41,0.469-0.719,0.605
	c-0.361,0.078-0.674,0.251-0.93,0.518c-0.402,0.044-0.775-0.039-1.127-0.215c-0.168,0.125-0.338,0.242-0.486,0.387
	c-0.633,0.215-1.457,0.254-1.857,0.684c-0.578,0.623-1.252,0.701-1.932,0.748c-0.357,0.375-0.709,0.76-1.078,1.112
	c-1.139,1.03-2.031,2.317-3.367,3.129c-0.355-0.046-0.605-0.167-0.777-0.341c-0.75,1.338-2.32,1.656-3.41,2.572l-0.041,0.01
	c-0.893-0.079-1.418,0.859-2.293,0.828c-0.324-0.066-0.535,0.063-0.627,0.383c-0.418,0.375-0.789,0.334-1.115-0.125
	c-0.006-0.026,0-0.051-0.006-0.077c-0.383,0.304-0.813,0.401-1.314,0.166l-0.016-0.012c-0.379,0.144-0.758,0.287-1.139,0.431
	c-0.139,0.24-0.297,0.459-0.486,0.659c-0.244-0.179-0.471-0.38-0.678-0.6l-0.221,0.007c-0.229,0.23-0.447,0.465-0.662,0.705
	c-0.236-0.164-0.463-0.342-0.676-0.529c-0.828,0.243-1.654,0.483-2.48,0.727c-0.51,0.477-1.018,0.955-1.527,1.43
	c-0.895-0.197-1.631,0.159-2.326,0.66c-0.51-0.281-1.02-0.56-1.529-0.836c0,0,0-0.001-0.002-0.002
	c-0.535,0.33-1.068,0.658-1.605,0.984c-0.955-0.386-1.918-0.366-2.889-0.127c0.254,0.304,0.459,0.639,0.561,1.035
	c-0.256,0.264-0.514,0.527-0.771,0.789c-0.252,0.352-0.502,0.703-0.754,1.055c0.311,0.729,0.619,1.461,0.932,2.193
	c0.412,1.001,0.822,2.004,1.232,3.006c-0.303,0.563-0.232,1.08,0.191,1.552c-0.113,0.712-0.225,1.425-0.336,2.136
	c0.318,0.588,0.637,1.176,0.955,1.764c-1.242,1.164-2.705,2.096-3.422,3.783c-0.324,0.762-0.986,1.408-1.893,1.639
	c-0.258,0.24-0.465,0.516-0.631,0.825c-0.285-0.108-0.547-0.255-0.791-0.433c-0.654,0.523-1.205,0.406-1.656-0.324
	c0.564,0.092,1.125,0.183,1.688,0.275c0-0.001,0.004-0.002,0.004-0.005c-0.537-0.252-1.113-0.265-1.691-0.271
	c-0.297-0.09-0.543-0.26-0.73-0.508c-0.766,0.188-1.527,0.379-2.289,0.568c-0.248-0.242-0.508-0.461-0.791-0.659
	c-1.199,0.517-2.285,1.417-3.727,1.116c0,0-0.004,0-0.004-0.002c-0.639,0.4-1.293,0.412-1.959,0.074
	c0.359-0.267,0.727-0.373,1.098-0.353c-0.371-0.026-0.738,0.071-1.098,0.353c-0.193,0.275-0.424,0.316-0.699,0.125
	c-0.199,0.232-0.416,0.453-0.645,0.66c-1.225-0.703-2.365-1.493-2.99-2.83c-0.336-0.197-0.67-0.396-1.004-0.595
	c-0.24-0.781-0.68-1.383-1.496-1.638c-0.143-0.514-0.281-1.027-0.422-1.542c-0.621-1.028-0.572-2.03,0.111-3.014
	c-0.086-1.248-0.213-2.497-0.234-3.748c-0.016-0.96,0.416-1.708,1.389-2.036c0.428-0.467,0.855-0.934,1.281-1.401
	c-0.088-0.547-0.178-1.093-0.266-1.642c-0.855-0.159-1.725-0.496-2.566-0.436c-1.275,0.087-2.461-0.039-3.621-0.547
	c-0.213,0.255-0.471,0.315-0.773,0.185c-0.191,0.226-0.377,0.454-0.557,0.691c-0.199-0.188-0.406-0.365-0.617-0.538l-0.307,0.011
	c-0.201,0.194-0.408,0.381-0.623,0.56c-0.123-0.199-0.256-0.389-0.4-0.57c0.092-0.113,0.184-0.226,0.273-0.338
	c-0.102,0.102-0.211,0.2-0.273,0.338c-0.385-0.096-0.768-0.191-1.148-0.286c-0.529,0.276-1.057,0.55-1.586,0.826
	c-0.205-0.094-0.414-0.186-0.621-0.278c-0.336,0.411-0.734,0.47-1.191,0.155c-0.076-0.304-0.264-0.399-0.553-0.284
	c-0.566-0.48-1.127-0.963-1.689-1.441c-0.414,0.021-0.826,0.045-1.24,0.067c-2.125,2.19-4.25,4.38-6.379,6.572
	c-0.002,0-0.004,0.001-0.006,0.003c0,0,0,0,0.002,0c0.201,0.092,0.371,0.221,0.518,0.385c-0.641,0.693-1.281,1.387-1.922,2.084
	c-0.703,0.245-1.08,0-1.137-0.741c0.008-0.021,0.018-0.04,0.023-0.06c-0.209-0.074-0.406-0.171-0.58-0.318
	c-0.271,0.153-0.535,0.32-0.791,0.504c-0.211-0.238-0.465-0.41-0.764-0.514c-0.285,0.195-0.553,0.415-0.799,0.658
	c-0.25-0.141-0.463-0.323-0.639-0.55c-0.02-0.012-0.033-0.019-0.051-0.029c-0.248,0.771-0.75,1.269-1.648,1.351l-0.008,0.004
	c-0.902-0.051-1.479,0.911-2.41,0.777c-0.207,0.326-0.414,0.654-0.623,0.982c-0.174-0.078-0.348-0.154-0.523-0.229
	c-0.311,0.608-0.619,1.219-0.93,1.83l0.336,0.287l0.313,0.312c0.135,0.78,0.271,1.563,0.408,2.345
	c-0.65,1.504-1.168,3.04-1.15,4.705c-0.273,0.237-0.471,0.525-0.586,0.867c0.193,0.23,0.383,0.463,0.572,0.698
	c-0.182,0.235-0.395,0.435-0.627,0.612c0.066,0.233,0.063,0.479-0.025,0.74c-0.129,0.164-0.258,0.334-0.379,0.502
	c0.109,0.162,0.223,0.321,0.32,0.492c-0.328,0.232-0.656,0.469-0.986,0.699l0.273,0.139c-0.158,0.93-0.85,1.611-1.15,2.478
	c-0.291,0.142-0.424,0.376-0.398,0.698c-0.07,0.863-0.781,1.442-0.986,2.245c-0.004-0.012,0-0.021-0.006-0.032l-0.012,0.071
	c0.004-0.013,0.014-0.025,0.018-0.039c0.23,0.946-0.559,1.554-0.793,2.347c-0.006-0.014-0.006-0.025-0.01-0.039l-0.008,0.087
	c0.002-0.017,0.012-0.032,0.018-0.048c0.219,0.84-0.188,1.283-0.844,1.565c0.203,0.269,0.207,0.589,0.02,0.962
	c-0.266,0.183-0.408,0.434-0.428,0.754c-0.129,0.852-0.639,1.357-1.449,1.586c-0.531,0.428-1.063,0.858-1.594,1.286
	c-0.535,0.176-1.096,0.202-1.65,0.243l-0.039,0.001c-0.479-0.036-0.955-0.013-1.428,0.063c-0.303-0.002-0.537,0.123-0.701,0.375
	c-0.555,0.326-1.158,0.365-1.777,0.305l0.045-0.004c-0.506,0.04-0.922-0.137-1.256-0.516c-0.023-0.031-0.053-0.06-0.076-0.091
	c-0.611,0.167-1.219,0.335-1.828,0.502c-0.51-0.033-1.018-0.066-1.527-0.099c-0.225-0.189-0.428-0.403-0.607-0.638
	c-0.002-0.003-0.002-0.005-0.002-0.007c0,0.002,0,0.004,0,0.007c-0.35-0.155-0.703-0.31-1.053-0.463
	c-0.24,0.172-0.482,0.343-0.725,0.511c-0.518-0.374-1.035-0.389-1.555-0.005c-1.76-0.763-2.705-2.397-3.963-3.7
	c0.129-0.229,0.254-0.457,0.381-0.686c-0.645-0.342-1.109-0.834-1.227-1.612l-0.031-0.076c0.289-1.337-1.953-1.835-1.111-3.353
	c0.24-0.149,0.32-0.359,0.246-0.63c0.129-0.407-0.211-0.883,0.01-1.278c-0.492-0.24-0.611-0.622-0.381-1.139
	c0.889-1.035,1.781-2.073,2.674-3.111c0.096-0.42,0.092-0.836-0.025-1.249c-0.225-0.315-0.453-0.63-0.678-0.944
	c-0.006-0.352,0.145-0.61,0.449-0.783c-0.314-0.168-0.469-0.426-0.467-0.779v0.001c0.016-0.525-0.031-1.056,0.084-1.577
	c0,0.015,0.006,0.029,0.006,0.044l-0.004-0.067c0,0.006-0.002,0.014-0.002,0.023c-0.012-0.096-0.037-0.191-0.051-0.287
	c-0.023,0.08-0.055,0.158-0.078,0.24c-0.189,0.694-0.188,1.654-1.107,1.626c-0.914-0.028-1.059-0.921-1.078-1.714
	c0.445-0.793,0.967-1.477,1.727-1.828c-0.098-0.174-0.199-0.348-0.297-0.523l-0.131,0.328c-0.482-0.135-0.975-0.203-1.477-0.208
	l0.045,0.005c-0.895,0.107-1.49-0.783-2.377-0.705l-0.006-0.004c-0.551,0.012-1.102-0.004-1.645-0.127
	c-0.225-0.266-0.508-0.444-0.846-0.533c-0.807-0.184-1.309-0.685-1.551-1.466c-0.213-0.308-0.424-0.616-0.637-0.923
	c-0.004-0.108-0.023-0.216-0.031-0.324c-0.217,0.068-0.438,0.123-0.674,0.15l0.084,0.005l-0.766,0.216l-0.568-0.557
	c0,0.002-0.045-0.141-0.098-0.299l-0.01,0.004c0.051,0.164,0.096,0.309,0.098,0.311c0.223,0.658-0.008,1.07-0.682,1.238
	c-0.393,0.217-0.672,0.533-0.826,0.955c-0.539,0.416-1.096,0.465-1.672,0.224c-0.201,0.295-0.41,0.588-0.578,0.905
	c-2.984,1.346-5.396-1.08-8.152-1.244c-0.338-0.676-0.674-1.352-1.01-2.027c-2.023-1.947-4.836-2.371-7.186-3.695
	c-0.258-0.734-0.518-1.47-0.777-2.209c0,0,0,0.002-0.002,0.003c-0.355-0.694-0.711-1.39-1.066-2.085
	c-0.301-0.135-0.564-0.326-0.787-0.571c-0.936,1.569-2.342,2.571-3.959,3.328c-0.922-0.56-1.844-1.122-2.766-1.685
	c-0.85-0.514-1.697-1.021-2.551-1.533c-0.979-2.278-3.576-2.684-5.066-4.367c0.027-1.361-0.85-2.202-1.75-3.024
	c0.301-0.884,0.602-1.762,0.906-2.644c-0.176-0.738-0.352-1.479-0.525-2.221c0.08-0.126,0.158-0.255,0.236-0.381
	c-0.896-0.621-1.047-1.572,0.012-3.025l-0.271-0.19c0.217-0.468,0.488-0.905,0.811-1.306h0.002c0-0.002,0-0.002-0.002-0.003
	c0.455-0.992,0.912-1.989,1.369-2.983c0.736-0.193,1.475-0.387,2.215-0.58c0.35-0.512,0.705-1.021,1.057-1.531
	c-0.26-0.729-0.52-1.46-0.779-2.19c0.217-0.456,0.395-0.927,0.539-1.409c0-0.001,0.002-0.002,0.002-0.002s0,0-0.002,0
	c-1.338-0.77-2.68-1.542-4.02-2.314c0.154-0.484,0.387-0.925,0.699-1.324c0.355-0.836,0.711-1.674,1.066-2.51
	c-0.131-0.158-0.256-0.326-0.355-0.518c-0.016-0.115-0.037-0.232-0.063-0.35c-1.271-1.268-2.543-2.537-3.813-3.805
	c-0.131-0.293-0.107-0.539,0.051-0.742c-0.188-0.274-0.346-0.565-0.438-0.893l-0.047-0.127c0.262-1.375-1.426-1.723-1.533-2.902
	c0.031-0.289-0.068-0.521-0.289-0.705c-0.389-0.473-0.418-1.064-0.537-1.627c-0.363-0.499-0.727-0.996-1.088-1.492
	c-0.379-0.53-0.404-1.146-0.432-1.76l-0.004-0.026c-0.266-2.083-2.672-2.613-3.254-4.468c-0.242-0.326-0.484-0.649-0.73-0.975
	c0.139-0.892-0.947-1.598-0.389-2.555c0.215-0.225,0.297-0.49,0.252-0.799c0.248-0.599,0.672-1.057,1.121-1.498
	c-0.189-0.143-0.225-0.362-0.07-0.676c0.543-0.497,1.084-0.997,1.629-1.492l-0.307-0.074c0.314-1.213,1.111-1.969,2.262-2.391
	c0.328-0.047,0.588-0.204,0.781-0.473c0.531-0.224,1.096-0.25,1.66-0.281l0.049-0.005c1.15-0.079,2.277-0.562,3.451-0.18
	c0.004,0.003,0.006,0.006,0.008,0.009c0.139-0.121,0.27-0.254,0.428-0.357c0.729,0.418,1.439,0.888,2.344,0.622
	c0.521-0.049,1.045-0.097,1.568-0.145c0.363-0.005,0.725-0.009,1.09-0.011c0.033-0.058,0.07-0.109,0.1-0.168
	c0.359-0.167,0.713-0.332,1.074-0.496c0.352-0.039,0.68,0.027,0.996,0.142c0.059-0.082,0.121-0.159,0.215-0.201
	c0.23-0.103,0.373-0.123,0.436-0.063l-0.014-0.004c0.512-0.012,1.023-0.039,1.535-0.081l0.068-0.002
	c0.453,0.048,0.9,0.018,1.346-0.093c0.193-0.1,0.365-0.219,0.541-0.335c-0.205-0.62-0.357-1.253-0.475-1.897
	c-0.541-0.332-1.082-0.662-1.621-0.992c-0.207-0.73-0.414-1.461-0.619-2.189l-0.141,0.012c0.004-0.447-0.037-0.9,0.049-1.332
	c0.02-0.096,0.477-0.105,0.732-0.158c-0.004-0.001,0.061,0.116,0.061,0.116c0.451,0.181,0.891,0.384,1.316,0.619
	c0.689-1.591,2.117-3.022,1.047-4.981c-0.26-0.721-0.521-1.438-0.787-2.158c-0.09-2.269-2.012-2.785-3.527-3.693
	c-0.434-3.266-2.566-2.947-4.633-2.773c-0.074,0.193-0.184,0.399-0.34,0.623c-0.871,1.254-1.502,2.713-2.99,3.429l-0.021,0.005
	c-0.746,0.207-1.5,0.391-2.252,0.578c-0.469-0.238-0.955-0.432-1.457-0.583c-1.736,0.514-2.994-1.679-4.783-0.847
	c-0.467,1.064-0.928,2.132-1.389,3.198c-0.193-0.024-0.387-0.048-0.578-0.071c-0.676,1.549-1.338,3.102-2.047,4.638
	c-0.816,1.755-1.906,3.149-4.123,3.162c-1.797,0.013-2.594,1.679-3.863,2.568c-0.957,0.672-1.926,0.732-2.977,0.329
	c-1.227-0.25-2.447-0.938-3.707-0.316c-1.729,0.855-3.467,0.455-5.217,0.227c0.004,0.344-0.137,0.607-0.426,0.79l-0.623-0.281
	l-0.482-0.487c-0.535-0.096-1.041-0.271-1.516-0.525c-0.004,0-0.004,0-0.006,0c-2.139,1.961-3.615,0.197-5.205-0.93
	c-0.271,0.355-0.57,0.688-0.893,0.995c-0.002-0.001-0.711-0.335-0.711-0.335l-0.689-0.371l-0.127,0.049
	c-0.201,0.479-0.484,0.898-0.85,1.266c-0.445-0.134-0.895-0.137-1.342-0.009c-0.033-0.411,0.148-0.677,0.543-0.797
	c0.205-0.329,0.441-0.532,0.719-0.608c-0.277,0.069-0.518,0.264-0.719,0.608c-0.873,0.252-1.742,0.505-2.617,0.76
	c-0.912-0.446-1.822-0.894-2.734-1.341c-1.291-0.73-2.586-1.452-3.871-2.193c-1.334-0.774-2.689-1.263-4.188-0.444
	c-0.924-0.052-1.553,0.429-2.061,1.138c-0.869-0.535-1.74-1.068-2.607-1.602c0.531-1.9-1.01-2.259-2.166-2.909
	c0.207-1.188,0.705-2.379-0.018-3.563c0.484-1.691-0.666-2.38-1.863-3.037c0.098-0.42,0.139-0.845,0.125-1.274
	c-0.611-0.989-1.221-1.978-1.83-2.966c0.215-0.827,0.162-1.591-0.506-2.213c0.379-0.974,0.76-1.947,1.143-2.92
	c-0.225-0.301-0.488-0.555-0.797-0.766c0.24-0.311,0.508-0.588,0.807-0.836c-0.115-1.289,0.529-2.271,1.299-3.204
	c0.24-1.67,1.008-3.088,2.074-4.364c0.734-1.356,1.469-2.715,2.203-4.072c-0.588-0.686-0.42-1.646-0.467-2.529L8.99,154.57
	c-0.42-0.684-0.625-1.438-0.742-2.222v-0.019c-0.426-1.16-1.736-1.584-2.244-2.672c-0.297-0.471-0.699-0.816-1.201-1.053
	c-0.148-0.439-0.148-0.834-0.02-1.188c-1.029-0.879-2.068-1.76-3.102-2.641c0.154-0.846-0.076-1.551-0.748-2.1
	c0.016-1.605,0.84-2.852,1.789-4.043c1.432,0.157,2.002-0.931,2.682-1.859c0.004-0.548,0.213-0.997,0.639-1.344
	c0.002-0.002,0.004-0.004,0.004-0.004c-0.002,0-0.002,0-0.004,0c-0.363-0.389-0.732-0.783-1.098-1.176
	c0.09-0.449,0.314-0.814,0.674-1.095c0.063-0.024,0.113-0.056,0.174-0.079c-0.898-1.434,0.605-2.842,0.408-4.267l0.236-0.368
	c0.742-0.832,1.523-1.553,2.635-1.386c0.086-0.409,0.252-0.774,0.508-1.101c0.887,0.158,1.609-0.078,2.107-0.864
	c1.416-0.062,2.17-1.073,2.947-2.048c0.318,0.113,0.648,0.184,0.98,0.229c0.156-0.439,0.412-0.828,0.791-1.155
	c0.477-0.259,0.842-0.631,1.092-1.114c0.547-0.228,1.107-0.287,1.682-0.184c0.174-0.238,0.359-0.467,0.506-0.725
	c0.797-0.563,1.936-0.957,2.314-1.726c0.551-1.113,1.459-1.503,2.395-1.851c0.342-0.673,0.676-1.356,1.047-2.006
	c1.168-1.914,1.881-4.087,3.416-5.777c0.518-0.082,0.916-0.016,1.232,0.154c0.492-2.184,2.559-3.281,3.705-5.017
	c-0.002-0.001,0.051-0.03,0.051-0.03c1.283-0.26,1.629-1.791,2.871-2.11c0.48-0.044,0.721-0.312,0.717-0.796
	c0.43-0.699,0.967-0.795,1.615-0.29c0.018,0.035,0.023,0.073,0.037,0.108c0.41-0.585,0.969-0.9,1.773-0.779l0.025,0.01
	c0.473-0.357,0.945-0.717,1.418-1.074c0.088-0.395,0.223-0.768,0.408-1.125c0.414,0.147,0.813,0.336,1.195,0.559l0.307-0.104
	c0.225-0.416,0.436-0.835,0.635-1.262c0.396,0.131,0.787,0.285,1.168,0.46c1.057-0.683,2.111-1.363,3.166-2.047
	c0.516-0.876,1.029-1.757,1.545-2.634c1.336-0.094,2.221-0.9,2.986-1.889c0.832,0.181,1.66,0.359,2.49,0.534
	c0,0.001,0,0.002,0,0.003c0.615-0.686,1.227-1.367,1.842-2.047c1.479,0.146,2.807-0.275,4.057-0.996
	c-0.48-0.318-0.871-0.732-1.176-1.242c0.252-0.475,0.504-0.95,0.754-1.424c0.207-0.596,0.414-1.19,0.619-1.787
	c-0.74-0.895-1.479-1.789-2.215-2.686c-0.994-1.232-1.984-2.465-2.977-3.697c0.191-0.912-0.121-1.607-0.91-2.093
	c-0.137-1.044-0.277-2.089-0.416-3.131c-0.689-0.69-1.379-1.382-2.068-2.072c1.254-2.147,2.916-4.058,3.221-6.716
	c0.137-1.203,0.799-2.383,1.971-3.082c0.256-0.441,0.438-0.914,0.539-1.417c0.441,0.034,0.871,0.128,1.287,0.276
	c0.699-1.004,1.52-1.068,2.455-0.232c-0.824,0.105-1.652,0.211-2.479,0.314c0,0.002-0.002,0.004-0.002,0.008
	c0.857,0.132,1.668-0.09,2.48-0.322c0.453,0.004,0.867,0.139,1.236,0.408c0.988-0.582,1.979-1.164,2.967-1.745
	c0.443,0.237,0.9,0.435,1.379,0.595c1.465-1.223,2.611-2.934,4.756-3.111c0.002,0.002,0.002,0.002,0.004,0.002
	c0.729-0.825,1.643-1.113,2.717-0.918c-0.504,0.67-1.123,1.002-1.848,1.022c0.725-0.015,1.352-0.328,1.848-1.022
	c0.152-0.465,0.461-0.617,0.926-0.463c0.184-0.408,0.393-0.807,0.625-1.193c2.01,0.477,3.934,1.109,5.363,2.721
	c0.549,0.139,1.102,0.277,1.652,0.417c0.66,0.994,1.525,1.653,2.773,1.671c0.414,0.662,0.82,1.322,1.229,1.984
	c1.295,1.184,1.646,2.607,1.1,4.266c0.633,1.715,1.332,3.408,1.883,5.151c0.418,1.337,0.125,2.563-1.104,3.428
	c-0.402,0.831-0.805,1.663-1.209,2.494c0.352,0.728,0.701,1.458,1.055,2.187c1.264-0.131,2.619-0.021,3.775-0.452
	c1.746-0.652,3.461-0.968,5.295-0.741c0.193-0.442,0.527-0.635,1.006-0.576c0.174-0.396,0.338-0.795,0.49-1.2
	c0.357,0.18,0.721,0.345,1.092,0.499l0.42-0.145c0.203-0.355,0.416-0.701,0.643-1.041c0.254,0.228,0.52,0.438,0.797,0.632
	c0.578-0.024,1.152-0.051,1.729-0.075c0.623-0.606,1.252-1.21,1.877-1.814c0.326,0.045,0.656,0.088,0.984,0.132
	c0.301-0.716,0.834-0.963,1.605-0.712c0.23,0.394,0.533,0.451,0.891,0.168c0.992,0.439,1.979,0.879,2.963,1.316
	c0.535-0.19,1.07-0.381,1.605-0.572c0.041-0.031,0.076-0.05,0.102-0.036c2.068-3.948,4.135-7.896,6.207-11.851
	c0,0,0.002-0.002,0.002-0.003c-0.32-0.048-0.613-0.157-0.885-0.327c0.611-1.234,1.219-2.474,1.828-3.713
	c0.881-0.636,1.512-0.447,1.898,0.566c0,0.032-0.006,0.063-0.008,0.094c0.322,0.015,0.639,0.067,0.945,0.203
	c0.316-0.328,0.615-0.672,0.896-1.033c0.395,0.246,0.822,0.379,1.283,0.4c0.316-0.393,0.602-0.81,0.844-1.252
	c0.41,0.094,0.783,0.26,1.123,0.503c0.021,0.005,0.039,0.01,0.059,0.015c0.023-1.186,0.547-2.08,1.775-2.568l0.008-0.008
	c1.287-0.305,1.691-1.889,3.053-2.09c0.15-0.543,0.307-1.088,0.465-1.633c0.273,0.037,0.551,0.07,0.826,0.104
	c0.18-0.982,0.361-1.965,0.541-2.949l-0.588-0.263l-0.566-0.306c-0.514-1.038-1.031-2.078-1.547-3.116
	c0.285-2.374,0.375-4.738-0.34-7.063c0.285-0.445,0.439-0.932,0.461-1.457c-0.367-0.244-0.73-0.49-1.092-0.742
	c0.154-0.404,0.373-0.771,0.623-1.117c-0.188-0.298-0.287-0.643-0.27-1.046c0.111-0.285,0.221-0.572,0.322-0.86
	c-0.223-0.182-0.447-0.357-0.656-0.557c0.365-0.462,0.729-0.926,1.092-1.387l-0.439-0.083c-0.164-1.366,0.521-2.607,0.582-3.946
	c0.348-0.318,0.438-0.701,0.266-1.143c-0.258-1.234,0.496-2.338,0.457-3.543c0.006,0.01,0.008,0.021,0.014,0.032l-0.014-0.104
	c0.004,0.024,0,0.048,0,0.071c-0.725-1.234,0.129-2.416,0.133-3.625c0.012,0.018,0.014,0.034,0.027,0.053l-0.023-0.125
	c0,0.023-0.004,0.047-0.004,0.072c-0.656-1.083-0.273-1.871,0.531-2.541c-0.396-0.29-0.537-0.74-0.43-1.338
	c0.297-0.365,0.393-0.777,0.289-1.234c-0.172-1.246,0.33-2.164,1.369-2.822c0.566-0.818,1.131-1.641,1.695-2.463
	c0.682-0.467,1.453-0.736,2.213-1.024l0.055-0.019c0.686-0.146,1.344-0.375,1.973-0.68c0.426-0.123,0.701-0.395,0.826-0.816
	c0.641-0.687,1.469-0.99,2.359-1.164l-0.061,0.024c0.691-0.263,1.352-0.192,1.971,0.2c0.049,0.035,0.1,0.063,0.148,0.096
	c0.785-0.486,1.566-0.973,2.35-1.461c0.727-0.164,1.455-0.328,2.18-0.495c0.395,0.172,0.768,0.385,1.115,0.64
	c0.004,0.004,0.006,0.006,0.01,0.01c-0.004-0.004-0.004-0.008-0.006-0.01c0.551,0.07,1.109,0.141,1.666,0.211
	c0.264-0.34,0.531-0.682,0.801-1.017c0.883,0.31,1.611,0.115,2.18-0.638c2.781,0.338,4.785,2.233,7.086,3.536
	c-0.086,0.373-0.17,0.745-0.25,1.118c1.043,0.213,1.896,0.706,2.385,1.748l0.078,0.093c0.148,1.992,3.494,1.759,2.947,4.235
	c-0.273,0.307-0.301,0.635-0.082,0.982c-0.016,0.625,0.654,1.148,0.516,1.793c0.789,0.132,1.113,0.617,1.006,1.438
	c-0.814,1.82-1.637,3.644-2.451,5.467c0.037,0.626,0.215,1.208,0.553,1.737c0.445,0.347,0.895,0.694,1.34,1.04
	c0.154,0.49,0.051,0.914-0.305,1.285c0.508,0.104,0.836,0.399,0.977,0.896v-0.002c0.197,0.742,0.484,1.465,0.539,2.243
	c-0.01-0.021-0.021-0.038-0.031-0.058l0.035,0.094c-0.002-0.013-0.004-0.023-0.004-0.036c0.266,0.614,0.563,1.216,0.896,1.792
	c0.459,0.442,0.916,0.879,1.373,1.321l0.045-0.515c0.732-0.008,1.451-0.117,2.158-0.32l-0.068,0.014
	c1.207-0.524,2.41,0.475,3.621,0.001l0.008-0.001c0.77-0.244,1.545-0.449,2.355-0.502c0.426,0.279,0.895,0.41,1.406,0.396
	c1.205-0.077,2.117,0.415,2.779,1.409c0.428,0.342,0.852,0.686,1.275,1.025c0.23,0.719,0.514,1.414,0.844,2.094l0.031,0.148
	c0.141,1.041-0.268,1.911-0.844,2.729c-0.338,0.264-0.701,0.393-1.086,0.416c-0.301,1.095-0.826,2.185,0.014,3.313
	c-0.145,0.441-0.271,0.892-0.385,1.346c0.33,0.314,0.682,0.605,1.053,0.875c-0.215,0.854,0.035,1.564,0.668,2.155
	c-0.553,1.327-1.102,2.653-1.65,3.978c0.496,0.153,0.781,0.539,0.84,1.164c-0.607,1.451-1.215,2.902-1.824,4.353
	c-0.018,0.587,0.156,1.103,0.521,1.56c3.705,2.269,7.412,4.539,11.119,6.809c0.002,0,0.002-0.002,0.002-0.002
	c1.121,0.26,2.242,0.516,3.363,0.775c0.646,0.041,1.273-0.043,1.875-0.271l-0.008,0.008c0.564-0.271,1.137-0.284,1.721-0.092
	c0.42-0.688,0.84-1.373,1.262-2.063c0.254,0.012,0.48-0.023,0.693-0.077c-0.35-0.151-0.709-0.335-1.088-0.593
	c0.855-1.824,1.367-3.865,3.227-5.045c0.398-0.172,0.66-0.467,0.791-0.881c0.58-0.621,1.352-0.92,2.109-1.245
	c0.402-0.148,0.67-0.425,0.814-0.827c0.463-0.4,0.998-0.538,1.594-0.453c0.572,0.135,1.064-0.01,1.461-0.441
	c0.299-0.466,0.693-0.823,1.193-1.068c0.416-0.108,0.703-0.363,0.854-0.763c0.617-0.722,1.447-1.026,2.342-1.208
	c-0.008,0.004-0.018,0.007-0.025,0.01l0.045-0.014c-0.006,0.001-0.014,0.004-0.02,0.004c0.699-0.284,1.412-0.521,2.166-0.613
	c-0.008,0.004-0.016,0.006-0.021,0.01l0.096-0.025c-0.025,0.004-0.051,0.013-0.074,0.016c0.795-0.403,1.627-0.599,2.525-0.446
	c0.391,0.233,0.809,0.296,1.25,0.185c0.371-0.027,0.666,0.072,0.912,0.262c0.344-0.283,0.721-0.521,1.158-0.658
	c0.557,0.142,1.111,0.281,1.67,0.421c0.141,0.071,0.279,0.142,0.42,0.214c0.484-0.214,0.967-0.426,1.447-0.641
	c0.732-0.215,1.463-0.426,2.191-0.639c0.85,0.15,1.6-0.005,2.18-0.695c0.457,0.156,0.883,0.379,1.273,0.668
	c0.309-0.44,0.617-0.879,0.922-1.316c0.236-0.494,0.465-0.988,0.701-1.479c0.502,0.318,1.002,0.642,1.504,0.962l0.033-0.348
	c0.73-0.082,1.451-0.227,2.16-0.428l-0.047,0.012c1.174-0.517,2.379,0.535,3.553-0.072l0.104-0.035
	c1.865-0.311,3.23,1.497,5.092,1.203l-0.15-0.017c3.32-0.218,5.166,0.872,3.846,4.525c-0.707,1.957-2.232,3.597-2.281,5.817
	l-0.186,0.328c-0.518,0.551-1.135,0.725-1.842,0.557c-0.139,0.264-0.299,0.514-0.504,0.737c-1.184-0.442-2.357-1.017-3.633-0.278
	c-0.725-0.2-1.455-0.398-2.18-0.598c-0.34,0.352-0.715,0.665-1.154,0.905c-0.377,0.368-0.699,0.776-0.971,1.228
	c-0.514,0.186-0.984,0.135-1.418-0.118c-0.08,0.454-0.396,0.687-0.947,0.698c-0.443-0.244-0.92-0.39-1.43-0.432
	c-1.086,0.026-1.965-0.249-2.381-1.189c-0.816,0.05-1.645-0.04-2.439,0.242l-0.082,0.01c-0.688,0.145-1.352,0.366-1.992,0.65
	c-0.363,0.307-0.65,0.673-0.861,1.096c-0.447,0.262-0.902,0.305-1.367,0.177l0.09,0.411l-0.594,0.479
	c-1.193,1.206-2.115,2.577-2.574,4.229c0.162,0.422,0.127,0.755-0.1,1.006c-0.021,0.023-0.035,0.029-0.057,0.051
	c0.363,0.199,0.641,0.496,0.824,0.897c1.002,0.499,2.006,0.995,3.008,1.49c1.117-0.147,2.178,0.796,3.32,0.177l0.125-0.008
	c0.764-0.091,1.504-0.312,2.264-0.443c0.461,0.221,0.904,0.465,1.33,0.738l0.092-0.42c0.744,0.021,1.48-0.049,2.203-0.215
	c0.48,0.279,1,0.384,1.555,0.314c0.732-0.028,1.463-0.056,2.193-0.085c1.672,0.887,3.344,1.774,5.016,2.663
	c0.361,0.344,0.465,0.66,0.303,0.953c-0.057,0.104-0.111,0.183-0.162,0.248c0.416,0.075,0.77,0.294,1.045,0.703
	c1.477,0.781,2.949,1.561,4.424,2.341c0.66-0.032,1.311-0.124,1.953-0.274c-0.006,0.002-0.01,0.003-0.014,0.006l0.09-0.021
	c-0.027,0.007-0.051,0.008-0.076,0.015c0.721-0.384,1.512-0.529,2.297-0.683c2.674,1.444,5.342,2.892,8.012,4.337
	c0.303,0.357,0.373,0.711,0.236,1.061c0.377,0.305,0.719,0.646,0.982,1.068l0.117,0.156c0.203,2.035,2.713,1.82,3.352,3.43
	c0.076,0.415,0.311,0.701,0.697,0.865c0.742,0.502,1.027,1.319,1.43,2.057c0.713,0.547,1.428,1.092,2.143,1.638
	c0.748,0.585,1.039,1.436,1.332,2.284l0.016,0.034c1.236,2.808,4.824,2.552,6.41,4.907c0.473,0.354,0.949,0.708,1.428,1.062
	c0.176,1.306,1.99,1.843,1.607,3.414c-0.209,0.404-0.215,0.811-0.023,1.224c-0.096,0.94-0.502,1.758-0.947,2.561
	c0.324,0.124,0.467,0.416,0.379,0.92c-0.551,0.922-1.105,1.844-1.658,2.766l0.459-0.024c0.061,1.827-0.742,3.22-2.18,4.286
	c-0.436,0.202-0.736,0.529-0.896,0.985c-0.648,0.534-1.43,0.807-2.211,1.082l-0.063,0.028c-1.57,0.587-2.941,1.717-4.729,1.682
	c-0.15,0.233-0.314,0.459-0.494,0.67C272.041,116.596,270.85,116.232,269.691,116.982z M309.063,167.002
	c0.58,0.732,0.438,1.699,0.371,2.641c-0.377,0.163-0.518,0.44-0.42,0.837c-0.52,0.183-0.877,0.53-1.016,1.061
	c-0.104,0.41-0.043,0.667,0.113,0.749l0.002-0.054c0.215,0.453,0.205,0.821-0.035,1.105c-0.242,0.294-0.416,0.413-0.521,0.358
	c-0.521,0.82-1.043,1.639-1.564,2.458c-1.127,0.637-1.668,1.966-2.904,2.476l-0.109,0.102c-1.959,0.309-1.768,2.949-3.633,3.361
	l-0.068,0.031c-0.703,0.248-1.422,0.436-2.156,0.571l-0.045,0.009c-2.404,2.018-5.146,1.767-7.936,1.18
	c0.006-0.003,0.012-0.003,0.018-0.006l-0.031,0.004c0.006,0.001,0.01,0.001,0.014,0.002c-1.217,0.645-2.408-0.311-3.617-0.061
	l0.033-0.001c-1.779,0.655-2.973-0.683-4.385-1.278c-0.322-0.235-0.611-0.488-0.869-0.758c-0.383,0.116-0.773,0.229-1.164,0.319
	c-3.57,0.824-3.572,0.815-5.754-2.72c0.01-1.215,0.02-2.43,0.027-3.643c-0.354-0.279-0.705-0.559-1.063-0.833
	c0.275-0.87,0.045-1.593-0.629-2.186c0.168-0.897-0.219-1.56-0.887-2.105c0.127-0.328,0.252-0.655,0.377-0.983
	c-0.58-0.219-0.873-0.663-0.805-1.395l-0.016,0.285c-0.777-1.115-0.189-2.025,0.432-2.933c0.156-0.114,0.275-0.242,0.414-0.364
	c-0.332-0.727-0.082-1.501,0.109-2.27c0.424-0.232,0.51-0.555,0.248-0.965c0.072-1.642,1.035-1.959,2.152-2.041
	c0.113-0.33,0.234-0.657,0.379-0.973c0.793-1.193,1.111-2.75,2.631-3.371c0.5-0.129,0.764-0.447,0.799-0.963
	c0.525-0.496,1.061-0.547,1.604-0.203c0.283-0.262,0.564-0.522,0.85-0.783c0.143-0.443,0.352-0.85,0.629-1.221
	c0.832,0.253,1.566,0.11,2.178-0.533c1.215,0.275,2.393,0.238,3.482-0.459c0.375,0.181,0.764,0.328,1.158,0.471
	c0.309-0.535,0.773-0.776,1.408-0.705c0.355,0.271,0.752,0.35,1.186,0.238c0.01,0.238,0.02,0.478,0.027,0.716
	c0.436,0.032,0.875,0.063,1.313,0.098h0.002c-0.002-0.001-0.002-0.001-0.004-0.001c0.301-0.24,0.594-0.49,0.875-0.75
	c0,0,0.002,0,0.004,0l-0.16-0.623c0.713-0.209,1.43-0.413,2.143-0.617c-0.199,0.361-0.404,0.723-0.613,1.078
	c-0.172,0.148-0.34,0.297-0.51,0.445c0.066,0.031,0.137,0.053,0.203,0.086c0,0,0.305-0.531,0.307-0.531
	c0.852,0.402,1.703,0.807,2.555,1.211c0.186-0.365,0.51-0.615,1.029-0.703c1.678,0.969,3.355,1.936,5.035,2.902
	c-0.059,0.439-0.043,0.879,0.055,1.312c-0.193,0.091-0.387,0.183-0.578,0.272c0.02,0.015,0.037,0.029,0.057,0.045l0.521-0.317
	c0.373,0.396,0.746,0.792,1.117,1.185c0.002,0.002,0.002,0.003,0.004,0.004c0-0.001,0-0.002,0-0.002
	c1.354,0.687,2.705,1.372,4.061,2.06c-0.193,0.444-0.291,0.907-0.293,1.394l-0.354-0.357l-0.498-0.031
	c-0.004,0.005-0.006,0.009-0.01,0.014c0.289,0.123,0.572,0.248,0.861,0.375c0.428,0.229,0.857,0.455,1.291,0.678
	c0.209,0.734,0.422,1.465,0.631,2.198c-0.379,0.864-0.174,1.603,0.514,2.224C309.51,166.246,309.313,166.638,309.063,167.002z
	 M303.809,160.137c-0.018-0.018-0.035-0.035-0.055-0.055l-0.051,0.074C303.74,160.148,303.773,160.145,303.809,160.137z
	 M1.299,77.427l0.547,0.233c-0.045,0.072-0.094,0.157-0.146,0.256c-0.203,0.381-0.229,0.814-0.068,1.297l-0.123-0.188
	c-0.293,1.371,1.484,1.763,1.432,3.02c0.262,0.393,0.254,0.778-0.021,1.158c-0.27,0.932-0.004,1.781,0.391,2.611l-0.031-0.111
	c0.195,0.861,0.732,1.25,1.611,1.165c0.053-0.024,0.09-0.059,0.139-0.085c1.014,1.006,2.449,1.074,3.723,1.506
	c0.742-0.529,1.516-0.486,2.305-0.119c2.121-0.604,3.639,0.057,4.486,2.131c1.045,0.283,1.807,1.511,3.109,0.916
	c1.838,0.514,3.682,0.436,5.527,0.047l0.107,0.061c0.045,0.065,0.102,0.117,0.146,0.186c0.25,0.27,0.494,0.545,0.738,0.817
	c0.469-0.06,0.92,0.005,1.354,0.196c1.508-0.07,2.648-1.064,3.98-1.57c0.084-0.086,0.16-0.175,0.234-0.263
	c0.582,0.348,1.162,0.695,1.744,1.041c2.291-1.767,4.586-3.532,6.879-5.298c0,0,0,0.002-0.002,0.002l0.588,0.395
	c0,0,0.65,0.27,0.654,0.271c0.313-0.377,0.527-0.805,0.646-1.279h-0.002c0.73-0.639,2.037-0.919,1.934-2.068
	c0.141-0.149,0.291-0.289,0.42-0.453c0.607-1.027,0.748-2.103,0.627-3.205c0.512,0.035,0.848-0.268,0.797-1.309l0.041,0.104
	c-0.283-1.203,0.639-2.401,0.068-3.607c0,0.02,0.006,0.04,0.006,0.061l-0.049-0.17c0.021,0.036,0.025,0.072,0.043,0.109
	c-0.045-0.795-0.252-1.533-0.74-2.176c-0.002,0.026,0.004,0.051,0,0.078l-0.055-0.161c0.021,0.026,0.033,0.058,0.055,0.083
	c0.045-0.78-0.205-1.494-0.502-2.199l0,0l-0.027-0.074c0.01,0.025,0.018,0.049,0.027,0.074c-0.176-0.935-0.492-1.797-1.291-2.395
	c-0.395-0.265-0.623-0.633-0.68-1.105c-0.15,0.01-0.303,0.02-0.453,0.029c-0.107-0.566-0.215-1.132-0.322-1.696
	c-0.691-0.5-1.166-1.112-1.094-2.019c-0.391-0.25-0.686-0.581-0.883-1c0,0,0-0.001,0-0.002c0,0,0,0,0.004,0
	c0.197-0.445,0.352-0.904,0.463-1.381c-0.463-0.264-0.838-0.619-1.125-1.065c-0.234,0.211-0.311,0.466-0.229,0.769
	c-0.463-0.367-0.926-0.736-1.389-1.104c-0.176-0.765-0.354-1.529-0.529-2.293c-0.713-0.541-0.918-1.275-0.795-2.133
	c-0.912-0.459-1.824-0.917-2.736-1.376c-0.195,0.257-0.418,0.483-0.656,0.697c-0.457-0.318-0.973-0.376-1.547-0.168l-0.041,0.011
	c-0.717,0.275-1.496,0.377-2.152,0.799c0.02-0.004,0.041-0.006,0.063-0.011l-0.072,0.015c0.002-0.002,0.006-0.003,0.01-0.004
	c-0.637,0.127-1.281,0.186-1.932,0.176c-0.621-0.163-1.244-0.324-1.863-0.485c-0.41,0.212-0.744,0.51-1.041,0.85
	c-0.326-0.048-0.656-0.089-0.982-0.152c-0.395,0.14-0.789,0.277-1.184,0.417c0.018-0.176,0.023-0.354,0.004-0.537
	c-1.324,0.34-2.551-0.01-3.75-0.543c-0.686,0.109-1.053,0.43-1.135,0.938c-0.385-0.081-0.762-0.182-1.131-0.318
	c-1.195,1.215-2.494,0.166-3.746,0.176c-0.344-0.353-0.75-0.613-1.217-0.775c-1.217,1.187-1.445,3.369-3.617,3.599
	c-1.711,2.051-3.059,4.306-3.861,6.864C1.986,67.544,0.994,69.402,0,71.26c0.24,0.385,0.514,0.753,0.809,1.102
	c-0.324,0.392-0.328,0.787-0.014,1.184c-0.252,0.385-0.453,0.792-0.604,1.229c0.361,0.274,0.729,0.543,1.1,0.803l0.016,0.109
	C1.043,76.1,0.838,76.539,0.689,77.01L1.299,77.427z M83.109,27.848c0.004-0.018,0.008-0.034,0.012-0.051l0.008,0.116
	C83.119,27.893,83.117,27.87,83.109,27.848c-0.189,0.521-0.154,1.059-0.096,1.594l-0.006-0.053
	c-0.064,0.648-0.023,1.275,0.385,1.824c0.207,0.25,0.285,0.536,0.23,0.858c0.1,0.022,0.201,0.046,0.301,0.067
	c-0.039,0.393-0.078,0.786-0.117,1.178c0.355,0.461,0.549,0.956,0.324,1.538c0.209,0.239,0.336,0.515,0.385,0.827
	c0,0.002,0,0.002,0.002,0.002c-0.002,0-0.002,0-0.002,0c-0.219,0.253-0.408,0.525-0.574,0.816c0.252,0.263,0.43,0.569,0.531,0.917
	c0.193-0.093,0.293-0.245,0.301-0.458c0.23,0.33,0.463,0.662,0.695,0.992c-0.033,0.537-0.064,1.074-0.098,1.61
	c0.361,0.494,0.355,1.017,0.105,1.554c0.512,0.479,1.021,0.957,1.529,1.437c0.18-0.131,0.371-0.235,0.566-0.329
	c0.24,0.298,0.566,0.435,0.982,0.41l0.031,0.001c0.521-0.042,1.055,0.043,1.566-0.104c-0.012-0.002-0.029-0.006-0.043-0.007
	l0.051,0.005c-0.002,0-0.006,0-0.008,0.002c0.443,0.041,0.879,0.127,1.305,0.26c0.375,0.227,0.752,0.455,1.129,0.682
	c0.311-0.059,0.586-0.19,0.848-0.355c0.207,0.096,0.414,0.186,0.613,0.291c0.295-0.016,0.586-0.029,0.877-0.044
	c-0.047,0.114-0.1,0.226-0.123,0.353c0.934,0.034,1.67,0.502,2.355,1.086c0.465,0.06,0.766-0.076,0.92-0.385
	c0.238,0.127,0.473,0.257,0.689,0.42c1.018-0.565,1.668,0.376,2.492,0.613c0.156,0.299,0.375,0.547,0.646,0.746
	c1.031-0.543,1.605-1.932,3.076-1.658c1.521-1.016,2.846-2.232,3.871-3.758c1.016-1.025,2.029-2.053,3.041-3.08
	c-0.084-0.3-0.191-0.595-0.314-0.881c0.287-0.193,0.367-0.452,0.236-0.773c0.242-0.205,0.453-0.433,0.637-0.689
	c-0.184-0.251-0.373-0.498-0.566-0.74l0.01-0.076c0.256-0.22,0.475-0.469,0.664-0.75l-0.318-0.393l-0.318-0.264
	c0.049-0.043,0.088-0.071,0.15-0.134c0.209-0.21,0.307-0.489,0.297-0.837l0.047,0.146c0.457-0.844-0.633-1.447-0.354-2.262
	c-0.094-0.308-0.016-0.56,0.238-0.758c0.357-0.558,0.35-1.166,0.254-1.789l-0.002,0.08c0.039-0.604-0.238-0.963-0.832-1.08
	c-0.039,0.008-0.07,0.021-0.107,0.031c-0.469-0.859-1.398-1.183-2.15-1.715c-0.592,0.203-1.09,0.023-1.537-0.371
	c-1.508-0.015-2.377-0.744-2.531-2.271c-0.629-0.389-0.891-1.344-1.861-1.205c-1.107-0.696-2.334-1.003-3.619-1.107l-0.061-0.061
	c-0.016-0.053-0.043-0.097-0.061-0.15c-0.111-0.226-0.217-0.455-0.322-0.68c-0.322-0.051-0.605-0.183-0.854-0.393
	c-1.002-0.248-1.947,0.183-2.918,0.257c-0.072,0.04-0.131,0.091-0.197,0.136c-0.316-0.346-0.633-0.69-0.951-1.033
	c-1.848,0.715-3.697,1.428-5.547,2.141c0-0.002,0-0.002,0.002-0.002l-0.309-0.372c0,0-0.377-0.304-0.377-0.306
	c-0.277,0.186-0.504,0.426-0.674,0.715c0,0,0,0,0.002,0c-0.605,0.276-1.518,0.205-1.674,0.98c-0.121,0.07-0.246,0.133-0.363,0.217
	c-0.6,0.557-0.896,1.234-1.033,1.982c-0.33-0.123-0.609,0.008-0.779,0.703l-0.008-0.076c-0.047,0.846-0.885,1.453-0.746,2.357
	c0.002-0.016,0.004-0.029,0.008-0.043v0.121c-0.008-0.026-0.004-0.051-0.008-0.078C82.92,26.808,82.914,27.332,83.109,27.848z" class="color c1"/>
</svg>