<svg version="1.1" id="图层_1" x="0px" y="0px" width="176.365px" height="164px" viewBox="0 0 176.365 164" enable-background="new 0 0 176.365 164" xml:space="preserve" xmlns="http://www.w3.org/2000/svg" xmlns:xlink="http://www.w3.org/1999/xlink" xmlns:xml="http://www.w3.org/XML/1998/namespace">
  <g>
    <g>
      <path fill="#F18B1C" d="M169.196,78.518c2.351-1.039,4.506-0.507,6.162,1.456c1.256,1.489,1.326,3.203,0.267,4.842
			c-1.466,2.278-3.587,2.697-5.985,1.813c-3.951-1.457-7.98-2.22-12.213-1.954c-5.848,0.362-8.434,2.153-8.969,6.771
			c-0.105,0.926-0.117,1.953,0.212,2.924c0.769,1.263,3.077,2.423,3.726,6.475c0.648,4.057-1.963,5.217-0.965,7.133l1.776,2.082
			c0.671,0.535,1.487,1.043,2.458,1.531c1.531,0.774,3.432,1.295,3.13,3.592c-0.187,1.461-1.085,2.455-2.608,2.658
			c-2.332,0.303-3.326-1.266-4.138-3.072c-0.497-1.094-0.913-2.26-1.612-3.221c-1.416-1.961-2.785-2.299-4.123-0.811
			c-0.115,0.188-1.56,0.854-2.473,3.004c-0.912,2.15,0.008,7.322,0.913,8.463c1.755,2.223-0.394,2.535-2.042,2.891
			c-1.488,0.313-3.646-0.209-4.104,1.744c-0.459,1.979,1.502,3.01,2.813,4.041c2.447,1.912,5.399,2.936,8.216,4.174
			c1.883,0.838,3.363,2.107,2.108,4.352c-1.226,2.216-3.212,2.183-5.214,1.08c-1.684-0.926-2.807-2.43-3.854-4.017
			c-1.175-1.786-2.358-3.585-3.7-5.245c-1.319-1.641-3.059-2.654-5.293-2.059c-2.062,0.555-2.463,2.334-2.713,4.07
			c-0.611,4.303-3.556,6.141-7.359,6.873c-5.15,0.979-9.561,3.297-13.582,6.597c-4.418,3.62-4.771,6.878-0.965,11.19
			c1.135,1.287,2.703,2.477,1.567,4.494c-0.715,1.289-1.923,1.877-3.409,1.498c-2.277-0.589-2.615-2.412-2.697-4.392
			c-0.055-1.201-0.008-2.438-0.295-3.591c-0.703-2.807-2.196-3.443-4.651-1.577c-6.063,4.625-7.608,5.063-13.228,1.187
			c-3.485-8.209-11.966-7.841-17.834-3.262c-5.37-0.388-9.723-2.71-12.922-7.271c-1.143-1.633-2.558-3.09-3.919-4.554
			c-1.405-1.514-3.153-1.965-5.14-1.312c-2.141,0.708-2.727,2.445-2.801,4.425c-0.087,2.276-0.048,4.562-0.056,6.84
			c-0.007,1.904-0.242,3.779-1.4,5.354c-1.465,2.005-3.137,3.791-6.001,3.084c-2.052-0.518-3.806-1.577-4.305-3.774
			c-0.62-2.742,1.441-4.119,3.259-5.485c5.013-3.779,5.229-4.545,2.357-9.742c-1.45-2.623-0.765-5.215,0.096-7.78
			c1.008-2.979,2.551-4.698,0.654-6.942c-0.135-0.162-7.293-0.053-8.7,0.997c-1.405,1.048-1.972-2.606,2.334-4.888
			c4.305-2.279,4.158-1.436,3.557-3.641c-0.604-2.203-2.413-2.414-4.023-3.218c-3.219,0-7.24-0.805-10.518,0.865
			c-2.282,0.372-4.936-0.396-5.574-1.67c-4.021-4.022,3.221-3.22,6.839-5.146c0.128-0.354,0.271-0.723,0.435-1.106
			c1.473-3.478,2.094-6.797-0.603-9.759c-2.768-3.051-6.355-3.726-10.322-2.565c-1.665,0.489-3.371,0.972-5.093,1.134
			c-2.55,0.241-4.826-0.515-6.114-2.953c-1.07-2.025-0.515-3.926,0.91-5.576c1.842-2.121,4.247-2.363,6.596-1.252
			c3.379,1.607,6.525,3.709,9.921,5.276c3.854,1.787,7.288,0.468,8.713-2.993c1.303-3.181,0.072-5.255-3.331-5.648
			c-2.053-0.241-3.966,0.469-5.945,0.771c-1.996,0.314-3.742-0.354-4.867-2.107c-0.756-1.167-0.458-2.316,0.434-3.315
			c1.577-1.76,3.363-1.23,5.142-0.391c0.725,0.345,1.384,0.829,2.108,1.164c2.123,0.983,4.214,2.948,6.645,0.952
			c2.462-2.036,3.241-4.859,2.759-7.974c-0.272-1.739-1.173-3.227-2.123-4.722c-1.979-3.107-1.425-5.673,1.979-6.694
			c3.507-1.053,11.087-2.15,6.783-10.254c-4.305-8.105,3.489-0.568,6.074-5.302c2.585-4.734,6.028-8.268,10.13-10.914
			c2.388-2.075,2.516-5.439,0.44-7.916c-1.076-1.287-2.235-2.502-3.249-3.837c-1.191-1.57-1.827-3.339-0.805-5.229
			c0.699-1.311,2.013-1.602,3.338-1.256c2.221,0.596,2.72,2.48,2.776,4.409c0.104,3.378-0.361,4.894,1.865,7.724
			c1.57,1.995,3.22,2.086,5.173,1.747c1.097-0.347,2.214-0.652,3.363-0.934c5.985-1.448,11.884-3.316,17.46-6
			c4.199-2.029,5.164-4.16,4.175-8.771c-0.474-2.228-1.094-4.434-1.464-6.678c-0.435-2.638-0.064-5.157,2.357-6.79
			c1.68-1.125,3.436-0.643,4.804,0.628c2.291,2.114,1.688,4.698,0.538,7.047c-2.027,4.134-4.008,8.206-3.129,13.019
			c0.997,5.486,3.668,6.948,8.896,4.817c5.944-2.431,5.971-2.421,10.05,2.608c2.558,3.152,6.831,2.911,9.032-0.669
			c0.976-1.575,1.504-3.427,2.254-5.143c0.99-2.252,2.623-3.135,4.812-1.776c2.043,1.263,2.446,3.203,1.03,5.174
			c-0.924,1.294-2.221,2.317-3.293,3.508c-2.573,2.861-2.354,5.637,1.098,7.11c4.721,2.01,9.727,2.856,14.521-0.016
			c2.156-1.296,4.104-1.046,5.963,0.386c1.615,1.24,2.437,2.928,1.695,4.949c-0.778,2.108-2.445,3.313-4.689,3.041
			c-4.215-0.507-3.564,2.02-2.952,4.499c0.45,1.81,1.953,2.79,3.388,3.819c4.047,2.921,6.959,6.557,7.803,11.7
			c0.597,3.595,1.642,3.852,4.375,1.463c0.91-0.789,1.699-1.723,2.617-2.492c1.979-1.675,4.006-1.675,5.582,0.425
			c1.521,2.029,0.524,3.788-1.172,5.236c-1.402,1.201-3.14,1.424-4.886,1.608c-2.194,0.243-3.86,1.186-4.272,3.54
			c-0.436,2.52,0.467,4.54,2.703,5.771c3.252,1.795,6.614,2.025,9.969,0.182C166.171,80.232,167.62,79.226,169.196,78.518z
			 M48.197,152.718c2.193-1.817,4.782-1.53,6.89,0.439c1.95,1.823,1.902,5.319-0.109,6.758c-2.43,1.735-4.763,1.021-6.771-0.599
			C46.479,156.962,45.958,154.573,48.197,152.718z M157.446,92.378c1.4-1.158,3.052-0.978,4.396,0.282
			c1.244,1.16,1.215,3.395-0.07,4.308c-1.549,1.109-3.037,0.652-4.316-0.381C156.353,95.085,156.021,93.563,157.446,92.378z
			 M19.54,71.356c-1.55,1.111-3.037,0.654-4.317-0.377c-1.103-1.504-1.435-3.028-0.007-4.214c1.4-1.157,3.051-0.974,4.393,0.281
			C20.853,68.211,20.822,70.44,19.54,71.356z M32.995,128.788c0.904,0.847,0.883,2.466-0.049,3.132
			c-1.128,0.807-2.209,0.471-3.137-0.277c-0.802-1.093-1.043-2.197-0.007-3.058C30.819,127.743,32.019,127.876,32.995,128.788z" class="color c1"/>
    </g>
  </g>
</svg>