<svg version="1.1" id="图层_1" x="0px" y="0px" width="146.129px" height="195.703px" viewBox="0 0 146.129 195.703" enable-background="new 0 0 146.129 195.703" xml:space="preserve" xmlns="http://www.w3.org/2000/svg" xmlns:xlink="http://www.w3.org/1999/xlink" xmlns:xml="http://www.w3.org/XML/1998/namespace">
  <path fill="#9AC127" d="M70.938,188.292c-2.458-7.071-11.396-20.336-26.872-26.08c-22.632-6.793-38.39-0.026-40.046,0.769
	C6.562,171.585,20.063,205.658,70.938,188.292z" class="color c1"/>
  <path fill="#9AC127" d="M74.941,188.292c2.459-7.071,11.396-20.336,26.873-26.08c22.631-6.793,38.39-0.026,40.045,0.769
	C139.318,171.585,125.816,205.658,74.941,188.292z" class="color c1"/>
  <g>
    <path fill="#FFFFFF" d="M142.607,69.543C142.607,31.136,111.471,0,73.064,0C34.658,0,3.521,31.136,3.521,69.543
		c0,38.408,31.137,69.542,69.543,69.542C111.471,139.085,142.607,107.951,142.607,69.543z M73.064,134.305
		c-35.711,0-64.763-29.052-64.763-64.762c0-35.71,29.053-64.762,64.763-64.762c35.711,0,64.762,29.052,64.762,64.762
		C137.826,105.253,108.775,134.305,73.064,134.305z" class="color c2"/>
    <path fill="#FFFFFF" d="M144.575,149.298c-0.183-0.077-4.563-1.922-11.091-3.577c-10.805-2.739-26.291-4.663-38.688,1.737
		c-9.967,5.146-15.881,14.594-19.342,23.01v-31.383h-2.389h-2.39v31.383c-3.46-8.416-9.374-17.863-19.341-23.01
		c-12.398-6.4-27.885-4.478-38.689-1.737c-6.526,1.655-10.908,3.5-11.091,3.577L0,149.957l0.184,1.555
		c0.141,1.195,3.68,29.438,23.938,39.895c12.399,6.4,27.885,4.479,38.691,1.737c4.956-1.257,8.67-2.62,10.252-3.239
		c1.583,0.619,5.294,1.982,10.251,3.239c10.808,2.739,26.291,4.663,38.691-1.737c20.258-10.457,23.797-38.697,23.938-39.895
		l0.185-1.555L144.575,149.298z M61.533,188.938c-9.937,2.521-24.084,4.333-35.061-1.331C10.921,179.58,6.22,158.572,5.181,152.628
		c1.768-0.654,4.868-1.721,8.742-2.703c9.937-2.518,24.084-4.334,35.059,1.332c15.58,8.045,20.262,29.037,21.291,34.978
		C68.507,186.89,65.407,187.957,61.533,188.938z M119.657,187.606c-10.978,5.664-25.125,3.853-35.062,1.331
		c-3.875-0.98-6.975-2.048-8.74-2.703c1.029-5.939,5.711-26.934,21.291-34.979c10.976-5.666,25.121-3.85,35.06-1.33
		c3.873,0.982,6.976,2.048,8.742,2.703C139.909,158.571,135.208,179.578,119.657,187.606z" class="color c2"/>
  </g>
</svg>