<svg version="1.1" id="图层_1" x="0px" y="0px" width="46.65px" height="46.65px" viewBox="0 0 46.65 46.65" enable-background="new 0 0 46.65 46.65" xml:space="preserve" xmlns="http://www.w3.org/2000/svg" xmlns:xlink="http://www.w3.org/1999/xlink" xmlns:xml="http://www.w3.org/XML/1998/namespace">
  <g>
    <path fill="#3167D3" d="M46.557,25.39c0.413-4.619-0.56-9.039-2.563-12.865c-1.743,4.109-5.98,6.82-10.667,6.402
		c-5.818-0.516-10.115-5.652-9.599-11.468c0.254-2.867,1.636-5.361,3.66-7.096c-0.658-0.115-1.322-0.209-1.999-0.27
		C12.56-1.047,1.234,8.43,0.093,21.262c-1.139,12.83,8.337,24.156,21.17,25.296C34.093,47.698,45.42,38.22,46.557,25.39z
		 M14.854,26.099c0.274-3.082,2.995-5.357,6.074-5.085c3.082,0.274,5.358,2.995,5.083,6.075c-0.272,3.082-2.992,5.357-6.074,5.084
		C16.858,31.898,14.579,29.179,14.854,26.099z" class="color c1"/>
  </g>
</svg>