<svg version="1.1" id="图层_1" x="0px" y="0px" width="147.504px" height="143.922px" viewBox="0 0 147.504 143.922" enable-background="new 0 0 147.504 143.922" xml:space="preserve" xmlns="http://www.w3.org/2000/svg" xmlns:xlink="http://www.w3.org/1999/xlink" xmlns:xml="http://www.w3.org/XML/1998/namespace">
  <path fill="#FFFFFF" d="M42.539,143.922l3.77-13.187c0.644-2.329,2.04-4.446,3.865-5.929l7.085-5.928
	c2.791-2.33,4.724-5.293,5.689-8.787l0.644-2.117l-25.442-6.984l-0.43-1.164c-1.503-7.519-6.226-13.975-13.096-17.681L13.89,75.793
	h5.797c1.395,0,2.791-0.211,4.187-0.528c3.005-0.74,5.152-3.174,5.367-6.033c0-0.212,0-0.424,0-0.635c0-0.953-0.429-1.8-1.074-2.436
	c-0.537-0.422-1.181-0.635-1.825-0.635l-17.498,1.8c-1.61,0.212-3.005,1.376-3.542,3.176l-4.938,17.36
	c-0.644,2.118-0.429,4.445,0.645,6.352l8.696,17.254c1.288,2.437,1.503,5.296,0.751,7.939l-1.271,4.508
	c0.576,0.533,1.157,1.062,1.747,1.58C20.242,133.7,30.992,139.92,42.539,143.922z M30.849,63.093c0.108,0,0.108,0.106,0.215,0.212
	l4.294-15.031c0.644-2.33-0.537-4.87-2.684-5.611c-0.858-0.318-1.826-0.211-2.684,0.211c-0.967,0.53-1.717,1.377-2.04,2.541
	l-4.723,16.303l2.469-0.212C27.629,61.293,29.347,61.928,30.849,63.093z M138.091,111.893l8.481-17.359
	c0.966-2.012,1.181-4.234,0.644-6.352l-4.938-17.361c-0.537-1.8-1.932-3.07-3.543-3.176l-17.498-1.8
	c-0.644-0.104-1.287,0.106-1.824,0.636c-0.645,0.529-1.073,1.482-1.073,2.435c0,0.212,0,0.423,0,0.636
	c0.106,2.857,2.362,5.292,5.367,6.033c1.396,0.318,2.791,0.529,4.188,0.529h5.795l-10.734,6.352
	c-6.87,3.705-11.594,10.058-13.096,17.679l-0.215,1.271L84.203,108.4l0.645,2.117c0.965,3.387,2.897,6.456,5.688,8.784l7.085,5.929
	c1.824,1.588,3.221,3.601,3.865,5.929l3.632,12.704c0.946-0.329,1.892-0.672,2.831-1.032c11.502-4.424,21.796-10.994,30.482-19.123
	l-1.091-3.875C136.589,117.186,136.805,114.327,138.091,111.893z M114.797,42.662c-2.146,0.741-3.328,3.176-2.684,5.611
	l4.294,15.031c0.106,0,0.106-0.105,0.215-0.212c1.396-1.271,3.221-1.8,5.153-1.588l2.361,0.212l-4.615-16.303
	c-0.324-1.164-1.074-2.117-2.041-2.541C116.622,42.451,115.656,42.344,114.797,42.662z M89.678,8.258l0.213-0.105
	c0,0-8.479,8.469-13.955,14.609c0.537,0.74,1.073,1.588,1.502,2.434c1.934,0.212,3.973,0.107,5.904-0.211
	c7.729-1.377,14.815-5.293,20.075-11.01c3.649-4.129,8.373-7.197,13.526-9.104C111.79,1.06,105.35-0.633,99.016,0.213l-1.609,0.212
	C89.034,1.59,81.518,5.824,76.258,12.387c-1.502,1.906-2.791,4.023-3.757,6.246c0.322,0.318,0.644,0.635,0.966,0.953
	C77.977,14.716,83.559,10.904,89.678,8.258z M43.947,25.303c5.26,5.716,12.345,9.632,20.074,11.008
	c3.113,0.529,6.334,0.424,9.447-0.424l-0.644-0.635c-3.543-3.811-11.701-12.385-11.701-12.385
	c5.583,1.905,10.735,5.187,14.814,9.421l-0.106-0.212c-1.074-3.069-2.577-5.928-4.724-8.469
	c-5.152-6.563-12.667-10.797-21.04-11.961l-1.503-0.213h-0.107c-6.334-0.846-12.774,0.848-17.927,4.658
	C35.681,17.998,40.297,21.174,43.947,25.303z M57.902,57.482l1.288-4.553c0.645-2.328-0.536-4.869-2.684-5.609
	c-0.859-0.318-1.825-0.213-2.684,0.211c-0.966,0.529-1.718,1.482-2.04,2.541l-3.864,13.656L57.902,57.482z M114.689,73.256
	l-8.803-31.229c-0.322-1.164-1.074-2.117-2.039-2.646c-0.859-0.424-1.826-0.529-2.684-0.212c-2.146,0.741-3.329,3.175-2.686,5.61
	l6.228,22.23L114.689,73.256z M106.639,73.256l-0.107-0.106l-5.367-3.388l-9.877-6.245l-5.367-3.388l-1.072-0.636
	c-1.504-0.952-3.115-1.693-4.832-2.223c-1.289-0.423-2.576-0.741-3.972-0.847V39.592l-1.396,0.318
	c-0.966,0.318-1.934,0.529-2.898,0.635v15.879c-1.396,0.105-2.792,0.424-4.188,0.847c-1.717,0.529-3.328,1.271-4.83,2.223
	l-1.073,0.636l-5.368,3.388l-9.876,6.245l-5.475,3.388h-0.107l-4.831,3.068l-6.333,3.919c6.012,4.128,10.306,10.372,12.023,17.465
	l22.972,6.353l0.537,0.106c1.825,0.422,3.112,2.116,3.112,4.021v23.924c0,3.177,2.685,5.718,6.012,5.398
	c2.791-0.211,4.938-2.752,4.938-5.609V108.19c0-1.8,1.287-3.494,3.111-4.021l0.538-0.105l22.864-6.354
	c1.718-7.092,6.012-13.338,12.023-17.467l-6.334-3.916L106.639,73.256z M46.201,39.275c-0.858-0.318-1.825-0.213-2.684,0.211
	c-0.966,0.529-1.717,1.482-2.04,2.646l-8.803,31.229l9.876-6.246l6.226-22.23C49.528,42.451,48.348,40.016,46.201,39.275z
	 M93.542,47.426c-0.858-0.424-1.824-0.529-2.685-0.212c-2.146,0.741-3.328,3.176-2.684,5.61l1.288,4.658l9.876,6.246l-3.757-13.656
	C95.259,48.908,94.508,47.955,93.542,47.426z" class="color c1"/>
</svg>