<svg version="1.1" id="图层_1" x="0px" y="0px" width="211.178px" height="211.109px" viewBox="0 0 211.178 211.109" enable-background="new 0 0 211.178 211.109" xml:space="preserve" xmlns="http://www.w3.org/2000/svg" xmlns:xlink="http://www.w3.org/1999/xlink" xmlns:xml="http://www.w3.org/XML/1998/namespace">
  <path fill="#EAC93D" d="M205.167,29.6c-1.822-10.951-12.631-21.762-23.584-23.583c-50.666-8.021-101.332-8.021-152,0
	C18.632,7.838,7.822,18.648,6.001,29.6c-5.857,36.989-7.418,73.979-4.724,110.968c0.017-0.009,0.033-0.018,0.05-0.024
	c-0.002-0.021-0.004-0.039-0.006-0.06c4.047-2.127,13.76-6.866,13.76-6.866l10.339-4.679c0,0,28.808-11.478,44.841-15.27
	c-0.101,0.046-0.196,0.098-0.297,0.145c3.417-0.813,6.859-1.528,10.311-2.152c0.142-0.054,0.279-0.109,0.42-0.162
	c3.188-0.568,6.383-1.044,9.572-1.421c-0.058,0.035-0.113,0.073-0.171,0.108c1.616-0.191,3.23-0.356,4.843-0.496
	c0.064-0.033,0.126-0.072,0.189-0.107c2.173-0.185,4.342-0.322,6.501-0.399c0.243-0.009,0.493-0.005,0.736-0.012
	c-0.01,0.023-0.021,0.053-0.028,0.077c0.714-0.021,1.431-0.037,2.151-0.045c0.009-0.021,0.019-0.047,0.025-0.067
	c1.49-0.016,2.996-0.004,4.52,0.035c0.009,0.021,0.02,0.048,0.027,0.069c0.732,0.02,1.469,0.048,2.206,0.078
	c-0.011-0.024-0.021-0.054-0.032-0.077c2.705,0.113,5.446,0.297,8.225,0.562c0.059,0.033,0.118,0.069,0.177,0.104
	c1.563,0.15,3.133,0.326,4.711,0.521c-0.051-0.034-0.103-0.073-0.153-0.106c6.343,0.774,12.808,1.887,19.281,3.254
	c0.1,0.053,0.206,0.11,0.307,0.165c0.37,0.077,0.74,0.153,1.11,0.233c1.949,0.423,3.897,0.875,5.843,1.339
	c-0.098-0.056-0.202-0.118-0.3-0.174c13.108,3.114,37.836,11.232,37.836,11.232s7.199,2.666,10.471,3.788
	c4.068,1.523,7.945,3.031,11.558,4.481C212.417,99.628,210.711,64.613,205.167,29.6z" class="color c1"/>
  <path fill="#A5AF43" d="M30.559,188.312c-2.515,5.907-4.505,11.152-5.976,15.305c-9.037-3.715-16.999-12.846-18.538-22.1
	c-0.632-3.988-1.196-7.977-1.727-11.965c3.458-4.258,7.646-9.092,12.5-14.155c2.715-2.83,5.637-5.729,8.764-8.646
	c14.267-13.3,32.756-26.872,54.691-35.091c0.142-0.054,0.279-0.109,0.42-0.162c3.188-0.568,6.383-1.044,9.572-1.421
	c-0.058,0.034-0.113,0.073-0.171,0.108c-25.624,15.706-43.479,44.07-54.56,67.126C33.689,181.156,32.035,184.846,30.559,188.312z
	 M109.034,109.171c-1.522-0.039-3.028-0.051-4.52-0.035c-0.008,0.021-0.018,0.046-0.024,0.067
	c-3.427,9.342-22.883,63.54-27.487,101.059c21.686,1.293,43.371,1.105,65.057-0.541c-6.236-34.956-28.107-88.719-32.997-100.479
	C109.053,109.219,109.042,109.193,109.034,109.171z M175.774,181.766c-24.888-46.285-43.802-64.757-56.138-71.859
	c-0.059-0.033-0.118-0.069-0.177-0.104c-2.777-0.265-5.52-0.447-8.225-0.562c0.011,0.023,0.021,0.053,0.032,0.077
	c5.638,13.548,26.755,65.653,32.821,100.252c0.561-0.045,1.121-0.104,1.681-0.15c6.939-0.58,13.879-1.317,20.818-2.198
	c5.013-0.636,10.025-1.328,15.04-2.122c1.771-0.294,3.533-0.846,5.26-1.572c-1.99-4.089-3.947-8.005-5.871-11.762
	C179.242,188.297,177.493,184.964,175.774,181.766z M102.366,109.171c-0.243,0.007-0.493,0.003-0.736,0.012
	c-2.159,0.077-4.328,0.216-6.501,0.399c-0.063,0.035-0.125,0.074-0.189,0.107c-27.755,15.129-46.765,45.577-58.196,69.715
	c-1.802,3.806-3.413,7.445-4.844,10.852c-2.267,5.396-4.08,10.2-5.439,14.045c1.051,0.338,2.107,0.622,3.17,0.799
	c6.095,0.965,12.188,1.807,18.284,2.535c6.945,0.832,13.894,1.515,20.839,2.047c2.073,0.158,4.146,0.308,6.218,0.439
	c4.45-37.059,23.167-89.437,27.368-100.873C102.346,109.224,102.357,109.195,102.366,109.171z M188.623,145.023
	c-16.183-14.9-34.41-25.707-44.842-31.283c-0.101-0.055-0.207-0.112-0.307-0.165c-6.475-1.367-12.938-2.479-19.281-3.255
	c0.052,0.034,0.104,0.073,0.153,0.107c13.207,8.986,30.756,28.734,52.672,69.397c1.743,3.234,3.517,6.606,5.314,10.112
	c2.088,4.067,4.208,8.298,6.37,12.744c8.174-4.166,15.085-12.613,16.508-21.166c0.811-5.12,1.53-10.241,2.177-15.361
	c-2.993-4.303-6.341-8.396-9.904-12.278C194.647,150.784,191.672,147.832,188.623,145.023z M210.298,134.642
	c-3.611-1.45-7.488-2.958-11.558-4.481c-3.362-1.26-6.859-2.527-10.471-3.788c-11.784-4.115-24.728-8.118-37.836-11.232
	c0.098,0.056,0.202,0.118,0.3,0.174c10.417,5.965,24.824,15.239,38.078,27.222c3.116,2.816,6.173,5.769,9.092,8.878
	c3.513,3.74,6.836,7.686,9.849,11.824c1.144-9.525,2.007-19.053,2.585-28.578C210.325,134.652,210.311,134.646,210.298,134.642z
	 M25.333,144.291c12.116-11.142,27.128-22.371,44.631-30.479c0.101-0.047,0.196-0.099,0.297-0.145
	c-16.033,3.792-31.503,9.484-44.841,15.27c-3.608,1.564-7.076,3.137-10.339,4.679c-5.086,2.404-9.713,4.739-13.76,6.866
	c0.002,0.021,0.004,0.039,0.006,0.06c0.639,8.762,1.536,17.522,2.648,26.285c3.483-4.217,7.641-8.926,12.396-13.822
	C19.15,150.146,22.144,147.224,25.333,144.291z" class="color c2"/>
</svg>