<svg version="1.1" id="图层_1" x="0px" y="0px" width="106.247px" height="156.302px" viewBox="0 0 106.247 156.302" enable-background="new 0 0 106.247 156.302" xml:space="preserve" xmlns="http://www.w3.org/2000/svg" xmlns:xlink="http://www.w3.org/1999/xlink" xmlns:xml="http://www.w3.org/XML/1998/namespace">
  <path fill="#A28662" d="M105.579,48.242c-0.798-0.287-1.5,0.593-1.102,1.378c0.173,0.338-0.421,1.47-0.543,1.806
	c-0.225,0.633-0.481,1.251-0.76,1.858c-0.437,0.938-0.943,1.833-1.509,2.682c-0.079-0.043-0.16-0.081-0.257-0.107
	c0.081-0.043,0.161-0.08,0.237-0.122c0.427-0.234,0.485-0.674,0.333-1.03c0.114-0.086,0.23-0.171,0.344-0.257
	c0.409-0.323,0.013-1.13-0.487-0.983c-1.007,0.295-1.993,0.688-2.971,1.111c-0.1,0.024-0.199,0.059-0.299,0.1
	c-1.046,0.443-2.072,0.899-3.093,1.411c-0.105,0.043-0.189,0.102-0.264,0.168c0.073-1.091,0.114-2.188,0.121-3.286
	c0.08-0.146,0.087-0.333-0.003-0.482c0.001-0.281,0.005-0.565,0-0.847c-0.01-0.634-0.037-1.271-0.07-1.906
	c0.059-0.119,0.106-0.251,0.117-0.418c0.003-0.039,0.004-0.076,0.008-0.115c0.257-0.046,0.501-0.176,0.697-0.411
	c-0.072,0.482,0.326,1.034,0.847,0.763c2.372-1.23,3.591-3.749,4.753-6.138c0.803-1.65,2.071-3.946,1.224-5.897
	c-0.083-0.193-0.207-0.318-0.34-0.383c-0.026-0.304-0.042-0.601-0.014-0.939c0.053-0.67-0.036-1.358,0.014-2.027
	c0.025-0.32-0.445-0.543-0.586-0.241c-0.448,0.929-0.833,2.204-0.798,3.278c0.033,0.985-0.216,1.753-0.64,2.542
	c-0.004-0.002-0.012,0-0.017-0.002c-1.074-0.015-2.015,0.386-2.848,0.985c-0.313,0.094-0.599,0.208-0.818,0.314
	c-0.754,0.356-1.579,0.883-2.227,1.549c-0.084-1.001-0.136-2.013-0.08-2.997c0.083-0.015,0.165-0.04,0.232-0.091
	c0.95-0.709,1.48-1.835,1.998-2.913c0.577-1.208,1.063-2.464,1.51-3.739c0.867-2.48,1.455-5.061,1.927-7.683
	c0.106-0.606-0.442-1.309-1.037-0.989c0.309-0.166,0.145-0.047-0.083-0.064c-0.699-0.048-1.207,0.678-0.861,1.397
	c0.073,0.145,0.162,0.26,0.268,0.351c-0.319,1.237-0.674,2.463-1.061,3.68c-0.031-0.021-0.065-0.038-0.1-0.051
	c-0.003-0.441-0.367-0.915-0.874-0.866c-1.887,0.188-3.097,2.021-3.889,3.639c-0.018,0.037-0.034,0.077-0.052,0.114
	c-0.063-0.395-0.127-0.789-0.192-1.182c-0.031-0.188-0.066-0.375-0.099-0.561c1.156-0.079,2.138-1.452,2.608-2.387
	c0.661-1.301,0.9-2.817,1.084-4.3c0.219-1.765,0.583-3.451,0.651-5.259c0.034-0.828,0.033-1.66,0.065-2.491
	c0.041-0.99-0.23-2.026-0.072-3.009c0.155-0.97-1.141-1.532-1.42-0.569c-0.176,0.596-0.248,1.228-0.281,1.876
	c-1.559,1.162-1.782,3.355-2.564,5.158c-0.507,1.16-1.042,2.236-1.728,3.285c-0.027,0.045-0.057,0.096-0.088,0.141
	c-0.308-1.301-0.584-2.607-0.785-3.925c0.179-0.046,0.352-0.099,0.495-0.153c0.595-0.239,1.14-0.51,1.282-1.23
	c0.149-0.752,0.1-1.539-0.03-2.319c-0.026-0.134-0.061-0.263-0.111-0.396c-0.009-0.032-0.018-0.058-0.027-0.084
	c0.009-0.38-0.019-0.766-0.052-1.146c-0.068-0.798-0.199-1.587-0.385-2.376c-0.322-1.366-0.937-2.742-1.992-3.68
	c-0.035-0.033-0.08-0.061-0.124-0.076c-0.014-0.035-0.029-0.068-0.044-0.098c-1.188-2.542-2.625-4.962-4.007-7.404
	c-0.227-0.399-0.754-0.135-0.559,0.281c0.223,0.471,0.451,0.939,0.688,1.408c-0.133-0.071-0.308,0.044-0.257,0.209
	c0.382,1.289,0.908,2.519,1.426,3.765c-0.04,0.9-0.102,1.793-0.195,2.679c-0.457,1.281-0.597,2.644-0.646,4.113
	c-0.042,1.236,0.123,2.982,0.83,4.229c0.135,0.805,0.451,1.602,1.109,2.121c0.202,0.16,0.417,0.263,0.635,0.322
	c0.167,0.406,0.334,0.814,0.485,1.231c0.359,0.983,0.474,1.939,0.615,2.911c-1.015-1.146-2.298-2.005-3.292-3.18
	c0.347-0.283,0.048-0.861-0.401-0.717c-0.12,0.04-0.245,0.076-0.369,0.107c-0.313,0.074-0.414,0.359-0.304,0.678
	c0.188,0.545,0.451,1.029,0.751,1.489c-0.085,0.172-0.092,0.384,0.039,0.605c0,0.002,0.002,0.002,0.003,0.003
	c0.282,0.793,0.775,1.439,1.306,2.066c0.1,0.18,0.217,0.371,0.345,0.559c-0.027,0.164,0.019,0.344,0.18,0.442
	c0.306,0.199,0.534,0.357,0.716,0.566c0.116,0.179,0.227,0.357,0.325,0.552c0.125,0.321,0.358,0.496,0.604,0.55
	c-0.006,0.249,0.018,0.5,0.068,0.75c-0.527-0.682-1.186-1.307-1.66-1.852c-0.99-1.157-1.706-2.364-2.335-3.71
	c-0.012-0.021-0.022-0.044-0.031-0.066c0.09-0.037,0.159-0.126,0.124-0.241c-0.137-0.448-0.253-0.636-0.558-0.735
	c-0.343-0.975-0.421-2.098-0.585-3.08c-0.184-1.118-0.413-2.256-0.727-3.355c-0.069-0.239-0.386-0.19-0.343,0.052
	c0.402,2.234,0.112,4.565,0.789,6.762c-0.002,0.013-0.004,0.023-0.005,0.035c-0.094,1.779,0.756,3.399,1.763,4.847
	c0.523,0.752,1.106,1.48,1.696,2.188c0.568,0.683,1.017,1.515,1.858,1.805c0.412,0.145,0.881-0.092,0.886-0.579
	c0.001-0.051-0.004-0.105-0.008-0.158c0.065,0.076,0.148,0.137,0.225,0.19c0.116,0.93,0.213,1.858,0.3,2.785
	c0.006,0.099,0.013,0.194,0.022,0.286c-0.374-0.195-0.779-0.337-1.187-0.422c-0.523-0.438-1.01-0.92-1.386-1.521
	c-0.567-0.911-1.83-0.388-1.409,0.656c0.145,0.345,0.319,0.66,0.521,0.953c-0.095,0.03-0.194,0.064-0.287,0.101
	c-0.288,0.119-0.489,0.4-0.56,0.718c-0.145-0.294-0.285-0.601-0.427-0.911c-0.678-1.494-1.322-2.978-2.052-4.454
	c-0.153-0.313-0.58-0.109-0.444,0.213c1.3,3.041,1.157,6.448,3.718,8.852c1.033,0.967,2.203,1.752,3.486,2.258
	c0.118,0.046,0.239,0.089,0.365,0.135c0,0.103,0.002,0.208,0.003,0.31c0.474,0.126,0.972,0.233,1.444,0.394
	c0.216,1.635,0.41,3.275,0.565,4.916c-0.002-0.005-0.014-0.013-0.022-0.021c-0.071-0.03-0.135-0.072-0.192-0.128
	c-0.049-0.048-0.095-0.095-0.138-0.143c-0.096-0.072-0.194-0.148-0.295-0.216c0.004-0.034,0.007-0.068,0.011-0.101
	c-0.084-0.108-0.162-0.219-0.236-0.337c-0.045,0.011-0.091,0.016-0.144,0.019c-0.79,0.002-1.437-0.348-2.007-0.842
	c-0.947-0.391-1.93-0.699-2.873-0.978c-0.157-0.348-0.531-0.594-0.98-0.431c-0.036,0.014-0.076,0.029-0.112,0.04
	c-0.162-0.381-0.3-0.769-0.395-1.176c-0.179-0.792-0.306-1.562-0.611-2.323c-0.483-1.197-2.189-0.425-1.688,0.764
	c0.321,0.768,0.413,1.595,0.639,2.394c0.23,0.815,0.648,1.58,1.001,2.348c0.711,1.537,1.29,3.242,2.384,4.543
	c0.748,0.89,1.65,1.599,2.606,2.22c-0.01,0.063-0.018,0.129-0.026,0.192c0.335,0.266,0.65,0.562,1.012,0.79
	c0.208,0.129,0.403,0.239,0.59,0.346c0.015-0.126,0.027-0.252,0.046-0.379c0.622,0.323,1.242,0.58,1.88,0.792
	c0.002,1.521-0.073,3.043-0.191,4.553c-0.017,0.199-0.029,0.398-0.046,0.598c-0.293-0.333-0.6-0.648-0.912-0.941
	c0.015-0.139,0.025-0.278,0.037-0.42c-0.282,0.085-0.589,0.073-0.863-0.084c-0.472-0.275-0.976-0.597-1.304-1.065
	c-0.029-0.022-0.056-0.045-0.082-0.067c-0.092-0.074-0.188-0.151-0.28-0.229c-1.402-0.721-3.028-1.046-4.374-0.333
	c-0.113,0.066-0.181,0.162-0.199,0.277c-0.146-0.398-0.278-0.807-0.392-1.215c-0.112-0.397-0.415-0.794-0.606-1.158
	c-0.323-0.609-0.487-1.238-0.535-1.917c-0.026-0.333-0.518-0.393-0.508-0.05c0.033,0.981,0.299,1.908,0.638,2.83
	c0.467,1.259,0.71,2.559,1.251,3.798c0.357,0.798,0.919,1.979,1.64,2.498c0.656,0.471,1.272,0.996,1.89,1.518
	c0.433,0.367,0.91,0.78,1.42,1.192c-0.002,0.028-0.005,0.058-0.007,0.085c0.545,0.347,1.311,0.687,1.578,1.235
	c0.01-0.054,0.017-0.105,0.026-0.16c0.217,0.136,0.438,0.261,0.663,0.379c-0.388,0.932-0.547,2-0.745,2.987
	c-0.057,0.266-0.101,0.53-0.152,0.797c-0.017-0.007-0.037-0.01-0.053-0.017c-0.014,0.07-0.021,0.141-0.03,0.213
	c-0.02,0.185-0.038,0.365-0.062,0.55c-0.013,0.096-0.036,0.193-0.049,0.294c-0.161-0.354-0.374-0.699-0.581-1.04
	c-0.606-1.008-1.227-1.843-2.227-2.485c-0.543-0.352-1.443-0.522-1.841-1.058c-0.414-0.551-1.146-0.684-1.63-1.145
	c-0.211-0.201-0.589-0.027-0.499,0.282c0.102,0.335,0.229,0.722,0.476,0.979c0.151,0.16,0.275,0.342,0.396,0.523
	c-0.268,0.07-0.512,0.244-0.643,0.491c-0.041,0.074-0.072,0.152-0.1,0.229c-0.09-0.342-0.189-0.683-0.297-1.017
	c-0.062-0.18-0.121-0.365-0.174-0.55c-0.088-0.729-0.235-1.457-0.359-2.181c0-0.334,0.031-0.661,0.105-0.983
	c0.051-0.222-0.051-0.411-0.204-0.519c-0.142-0.553-1.019-0.543-0.998,0.089c0.011,0.43-0.022,0.86-0.071,1.292
	c-0.055,0.266-0.084,0.536-0.101,0.809c-0.095,0.753-0.167,1.504-0.036,2.248c0.063,0.341,0.153,0.68,0.252,1.014
	c-0.008,0.869,0.073,1.755,0.315,2.692c0.512,1.964,1.563,4.278,3.58,4.963c0.038,0.011,0.074,0.018,0.116,0.021
	c0.147,0.092,0.302,0.176,0.461,0.247c0.195,0.084,0.403,0.003,0.535-0.15c0.761,0.452,1.597,0.866,2.417,1.063
	c-0.433,1.991-0.882,3.979-1.359,5.958c-0.273-0.24-0.503-0.518-0.745-0.836c-0.229-0.294-0.388-0.702-0.537-1.006
	c-0.066-0.136-0.121-0.278-0.172-0.421c-0.269-0.236-0.56-0.454-0.795-0.666c-0.587-0.527-1.173-1.056-1.765-1.592
	c-0.505-0.454-0.882-0.839-1.536-1.035c-0.569-0.17-0.888-0.476-1.258-0.94c-0.178-0.225-0.387-0.292-0.584-0.262
	c0.004-0.892,0.13-1.786,0.408-2.662c0.204-0.655-0.803-0.968-1.013-0.314c-0.846,2.601-0.775,5.207,0.017,7.705
	c0.122,1.652,0.709,3.329,1.411,4.826c0.558,1.192,1.224,2.418,2.271,3.236c0.956,0.742,1.709,0.961,2.645,0.714
	c0.069,0.056,0.142,0.106,0.213,0.161c-0.213,0.894-0.404,1.797-0.667,2.677c-0.24,0.807-0.497,1.638-0.748,2.478
	c-0.081-0.081-0.16-0.165-0.245-0.239c-0.69-1.076-1.678-1.959-2.781-2.542c-0.489-0.426-1.029-0.794-1.606-1.043
	c-0.223-0.164-0.451-0.313-0.68-0.453c-0.403-0.243-0.827-0.442-1.279-0.529c-0.498-0.711-0.936-1.479-1.391-2.208
	c-0.145-0.676-0.308-1.35-0.527-2.002c-0.253-0.763-1.458-0.53-1.222,0.261c0.128,0.427,0.238,0.854,0.336,1.285
	c-0.068,0.146-0.08,0.329,0,0.533c0.078,0.211,0.162,0.422,0.241,0.63c0.33,1.747,0.548,3.502,1.051,5.199
	c0.207,1.425,0.688,2.78,1.188,4.16c0.417,1.141,0.949,2.202,1.737,3.044c0.423,0.646,0.987,1.165,1.667,1.533
	c0.072,0.213,0.165,0.411,0.288,0.593c0.171-0.015,0.34,0,0.508,0.029c-0.354,0.819-0.655,1.65-0.845,2.501
	c-0.117,0.517,0.274,1.02,0.739,1.002c-0.437,0.818-0.888,1.635-1.343,2.449c-0.145,0.101-0.254,0.216-0.361,0.332
	c-0.151-0.683-0.337-1.309-0.495-1.75c-0.736-2.053-2.266-3.078-3.927-4.162c-0.198-0.398-0.394-0.795-0.593-1.196
	c-0.165-0.337-0.417-0.531-0.696-0.61c-0.06-0.238-0.114-0.478-0.17-0.717c0.042-0.104,0.091-0.202,0.146-0.292
	c0.211-0.337-0.067-0.63-0.364-0.615c-0.049-0.194-0.097-0.39-0.152-0.585c-0.007-0.029-0.02-0.058-0.032-0.08
	c0.109-0.611,0.292-1.188,0.594-1.701c0.152-0.259-0.218-0.514-0.395-0.262c-1.055,1.548-1.958,2.999-2.25,4.892
	c-0.112,0.737-0.234,1.488-0.31,2.247c-0.141,0.12-0.285,0.231-0.435,0.332c-0.048,0.411-0.075,0.826-0.078,1.244
	c0.003,0.717,0.164,1.33,0.377,1.943c0.039,1.47,0.392,2.895,1.571,3.841c0.052,0.089,0.097,0.174,0.152,0.259
	c0.593,0.975,1.409,1.682,2.297,2.383c0.274,0.214,0.558,0.425,0.849,0.628c0.072,0,0.146-0.004,0.216-0.004
	c-1.246,2.2-2.623,4.276-4.156,6.31c-0.342,0.458-0.7,0.907-1.049,1.365c-0.082-0.473-0.168-0.941-0.264-1.387
	c0.104-1.13-0.104-2.266-0.621-3.386c-0.65-1.4-2.254-5.193-4.304-5.45c-0.019-0.069-0.037-0.138-0.049-0.205
	c0.158-0.545,0.305-1.081,0.368-1.659c0.032-0.343,0.096-0.93-0.067-1.249c-0.159-0.291-0.069-0.456-0.005-0.799
	c0.126-0.625-0.889-0.973-1.188-0.406c-0.152,0.281-0.352,0.588-0.372,0.913c-0.018,0.306,0.135,0.591,0.098,0.869
	c-0.116,0.884-0.473,1.679-0.771,2.51c-0.671,1.86-1.03,3.942-1.016,5.903c0.021,2.027,0.415,4.203,1.177,6.07
	c0.564,1.385,2.106,2.479,3.699,2.432c-0.25,0.299-0.491,0.61-0.746,0.906c-1.657,1.928-3.838,3.651-5.108,5.839
	c-0.116,0.197-0.103,0.378-0.03,0.537c-0.071,0.021-0.146,0.042-0.216,0.066c-0.485,0.162-0.951,0.37-1.41,0.593
	c-0.039-0.059-0.076-0.117-0.111-0.18c-0.208,0.184-0.414,0.365-0.622,0.549c-0.204,0.119-0.399,0.256-0.583,0.401
	c0.102-0.247,0.205-0.496,0.306-0.746c0.258-0.668,0.257-1.261,0.24-1.958c-0.025-1.233-0.293-2.474-0.818-3.59
	c-0.201-0.424-0.606-0.993-1.105-1.457c-0.27-0.79-0.49-1.601-0.612-2.424c-0.087-0.609-0.218-1.266-0.304-1.932
	c0.049-0.048,0.095-0.097,0.146-0.141c0.25-0.217,0.282-0.523,0.508-0.744c0.264-0.26,0.643-0.396,0.972-0.551
	c1.039-0.499,0.335-2.021-0.717-1.562c-0.271,0.116-0.556,0.235-0.837,0.366c0.07-0.237,0.151-0.473,0.269-0.697
	c0.119-0.23-0.26-0.413-0.403-0.203c-0.293,0.436-0.485,0.892-0.615,1.365c-0.108,0.092-0.212,0.189-0.302,0.3
	c-0.25,0.317-0.277,0.406-0.466,0.572c-0.353,0.319-0.645,0.699-0.905,1.093c-0.362,0.556-0.637,1.16-0.851,1.785
	c-0.59,0.388-1.063,0.867-1.504,1.538c-0.686,1.056-1.384,2.154-1.823,3.323c-0.424,1.137-0.596,2.283-0.494,3.467
	c0.042,0.533,0.193,1.048,0.337,1.557c0.177,0.626,0.549,0.935,1.017,1.306c0.051,0.491,0.163,0.966,0.31,1.431
	c-0.047,0.3-0.057,0.597,0.005,0.894c0.064,0.302,0.156,0.608,0.291,0.89c0.029,0.372,0.098,0.741,0.198,1.146
	c0.061,0.252,0.082,0.533,0.182,0.772c0.139,0.316,0.334,0.434,0.539,0.605c0.225,0.184,0.474,0.258,0.727,0.27
	c-1.137,0.763-2.31,1.474-3.5,2.141c-4.77,2.662-10.029,4.583-15.279,6.101c-5.486,1.588-11.125,2.71-16.776,3.417
	c-5.859,0.732-11.731,0.476-17.555,1.502c-1.368,0.242-1.44,1.839-0.15,2.145c2.796,0.669,5.521,0.863,8.439,0.761
	c3.19-0.114,6.433-0.095,9.613-0.479c6.047-0.729,12.026-2.036,17.87-3.808c5.465-1.657,10.657-3.879,15.493-6.869
	c2.391-1.48,4.631-3.198,6.473-5.278c0.16,0.075,0.335,0.14,0.551,0.169c0.849,0.125,1.765-0.156,2.592-0.53
	c1.81-0.02,3.274-0.971,4.888-1.817c0.194-0.103,0.477-0.256,0.8-0.418c0.12,0.302,0.378,0.537,0.695,0.617
	c-0.895,0.396-1.795,0.77-2.693,1.146c-1.736,0.721-3.524,1.298-5.398,1.447c-0.709,0.057-0.674,1.058-0.022,1.14
	c0.853,0.104,1.767,0.196,2.625,0.03c0.895-0.173,1.762-0.492,2.598-0.846c2.006-0.84,3.999-1.77,5.904-2.817
	c1.653-0.914,3.363-1.912,4.85-3.079c1.589-1.246,3.017-2.657,4.84-3.582c0.635-0.321,0.215-1.255-0.437-0.961
	c-1.267,0.57-2.386,1.343-3.469,2.185c-0.096-0.249-0.319-0.446-0.659-0.493c-1.046-0.127-2.478-0.011-3.675-0.026
	c-0.871-0.012-1.744,0-2.618,0.041c-0.139-0.14-0.299-0.255-0.473-0.321c-1.14-0.454-2.383-0.41-3.608-0.342
	c-0.087,0.005-0.173,0.023-0.262,0.029c1.329-0.983,2.472-2.296,3.526-3.457c0.327-0.358,0.646-0.727,0.961-1.095
	c0.427,0.261,1.032,0.276,1.592,0.315c0.237,0.018,0.48,0.029,0.719,0.036c-0.033,0.325,0.028,0.648,0.183,0.964
	c-0.417,0.363-0.049,1.129,0.511,0.994c0.33-0.078,0.646-0.17,0.971-0.263c0.402-0.049,0.818-0.188,1.141-0.318
	c0.297-0.118,0.598-0.256,0.897-0.401c0.771-0.305,1.526-0.642,2.296-0.99c1.845-0.84,3.629-1.787,5.304-2.928
	c1.453-0.993,2.752-2.255,3.952-3.531c0.562-0.607,1.081-1.247,1.508-1.953c0.35-0.578,0.556-1.307,1.177-1.696
	c0.722-0.447,0.2-1.613-0.567-1.181c-1.17,0.659-1.634,1.92-2.412,2.935c-0.258-1.71-3.488-1.412-4.725-1.219
	c-1.316,0.206-2.67,0.392-3.955,0.765c-0.427-0.025-0.854,0.013-1.301,0.138c-0.574,0.421-1.282,0.761-1.841,1.092
	c-0.016,0.012-0.032,0.021-0.05,0.031c-0.047,0.043-0.092,0.092-0.14,0.142c0.6-0.943,1.177-1.894,1.707-2.871
	c0.075-0.048,0.147-0.106,0.208-0.188c1.207-1.554,2.345-3.171,3.417-4.838c0.412,0.547,1.062,0.9,1.769,1.001
	c0.032,0.146,0.094,0.29,0.182,0.413c-0.059,0.317,0.114,0.67,0.517,0.692c3.623,0.207,6.945-1.827,9.543-4.216
	c1.299-1.189,2.23-2.58,3.185-4.039c1.154-1.764,2.354-4.005,2.499-6.148c0.108-0.503-0.627-0.896-0.961-0.383
	c-1.059,1.614-1.788,3.433-2.845,5.061c-0.212-0.492-0.85-0.787-1.306-0.313c-0.018,0.017-0.037,0.036-0.053,0.056
	c-0.501-0.189-1.136-0.144-1.768-0.026c-0.07-0.021-0.144-0.041-0.221-0.051c-0.987-0.14-1.969,0.051-2.954,0.115
	c-0.033-0.068-0.082-0.127-0.155-0.174c-0.786-0.495-1.978-0.361-3.019,0.004c0.281-0.6,0.555-1.202,0.82-1.809
	c0.067,0.136,0.178,0.25,0.341,0.293c1.74,0.446,3.801-0.801,5.189-1.749c1.746-1.185,3.195-2.732,4.494-4.387
	c1.162-1.474,2.243-3.044,3.068-4.733c0.433-0.889,0.869-1.769,1.392-2.61c0.235-0.384,0.314-0.69,0.372-1.144
	c0.041-0.296-0.039-1.023,0.177-1.254c0.546-0.58-0.115-1.609-0.837-1.186c-0.619,0.366-0.788,0.999-0.941,1.673
	c-0.211,0.939-0.788,1.653-1.251,2.482c-0.101,0.181-0.198,0.365-0.298,0.548c-0.168-0.112-0.358-0.183-0.546-0.215
	c-1.38-0.24-2.94,1.277-4.023,1.944c-0.417,0.255-0.836,0.476-1.246,0.723c-0.938,0.443-1.885,0.873-2.815,1.347
	c-0.398,0.204-0.576,0.544-0.592,0.894c-0.178,0.105-0.343,0.226-0.511,0.341c0.599-1.87,0.892-3.731,1.107-5.625
	c0.013,0.009,0.026,0.019,0.037,0.027c0.085,0.074,0.167,0.156,0.244,0.238c0.155-0.586,0.299-1.172,0.44-1.757
	c0.623-0.004,1.269-0.141,1.672-0.275c1.162-0.376,2.167-1.044,3.181-1.714c0.629-0.416,1.333-0.682,1.942-1.148
	c0.573-0.445,0.974-1.026,1.404-1.617c0.158-0.218,0.149-0.462,0.048-0.668c0.447-0.439,0.875-0.891,1.29-1.337
	c1.02-1.102,1.846-2.462,2.709-3.701c0.406-0.575,0.798-1.161,1.178-1.758c0.23-0.359,0.4-0.644,0.494-1.067
	c0.089-0.413,0.163-0.896,0.443-1.219c0.43-0.489-0.104-1.219-0.677-0.932c-0.519,0.257-0.807,0.699-1.029,1.234
	c-0.306,0.743-0.729,1.321-1.222,1.946c-0.187,0.237-0.374,0.475-0.558,0.712c-0.04-0.346-0.249-0.678-0.696-0.833
	c-1.791-0.621-3.851,0.121-5.366,1.282c-1.155,0.067-2.33,0.87-3.329,1.689c0.182-1.018,0.343-2.022,0.508-2.992
	c0.079-0.455,0.149-0.908,0.218-1.363c0.083,0.083,0.18,0.154,0.294,0.201c-0.005,0.01-0.011,0.018-0.013,0.025
	c-0.18,0.337,0.031,0.734,0.411,0.765c0.67,0.061,1.239-0.296,1.792-0.646c0.056,0.025,0.113,0.049,0.176,0.067
	c0.247,0.077,0.514-0.072,0.583-0.326c0.023-0.084,0.036-0.165,0.043-0.245c0.605-0.376,1.206-0.758,1.794-1.162
	c1.293-0.881,2.521-1.896,3.605-3.035c0.375-0.395,0.713-0.816,1.007-1.26c0.043-0.047,0.096-0.09,0.137-0.133
	c0.783-0.782,1.188-1.715,1.676-2.706c0.314-0.645,0.562-1.426,0.239-2.092c0.188-0.709,0.354-1.424,0.518-2.135
	c0.118-0.524-0.652-0.753-0.785-0.23c-0.345,1.338-0.7,2.683-1.196,3.954c-0.128,0.155-0.255,0.299-0.348,0.428
	c-0.206,0.269-0.385,0.525-0.503,0.847c-0.047,0.111-0.249,0.307-0.477,0.506c-0.032-0.104-0.094-0.208-0.215-0.29
	c-0.026-0.017-0.055-0.031-0.081-0.05c0.216-0.193,0.424-0.395,0.599-0.616c0.371-0.468-0.083-0.996-0.507-0.895
	c0.001-0.007-0.003-0.013,0-0.018c-0.366,0.062-0.714,0.229-1.042,0.433c-0.932-0.645-2.967-0.241-3.675-0.026
	c-1.184,0.367-2.356,1.028-3.218,1.956c0.034-0.378,0.066-0.756,0.098-1.134c0.039-0.464,0.046-0.976,0.092-1.48
	c0.166-0.019,0.32-0.102,0.417-0.266c0.809,0.128,1.62,0.002,2.394-0.521c0.239-0.165,0.008-0.601-0.258-0.531
	c-0.583,0.148-1.186,0.102-1.781-0.066c0.282-0.953,0.532-1.896,0.735-2.86c0.39,0.15,0.782,0.212,1.173,0.192
	c0.06,0.138,0.146,0.258,0.238,0.367c-0.139,0.115-0.27,0.236-0.402,0.358c-0.334,0.321-0.053,0.935,0.415,0.854
	c2.543-0.431,4.667-2.752,6.142-4.785c0.801-1.107,1.445-2.328,2.004-3.587c0.275-0.631,0.531-1.271,0.767-1.917
	c0.132-0.348,0.251-0.702,0.371-1.058c0.076-0.231,0.147-0.854,0.376-0.972C106.495,49.711,106.366,48.526,105.579,48.242z
	 M87.063,45.515c-0.02-0.042-0.033-0.087-0.053-0.13c-0.14-0.313-0.278-0.625-0.418-0.94c0.012,0.005,0.021,0.008,0.031,0.011
	c0.018,0.043,0.039,0.081,0.062,0.121c0.135,0.2,0.276,0.326,0.475,0.448c0.069,0.042,0.137,0.064,0.204,0.077
	c0.177,0.135,0.358,0.273,0.538,0.414C87.623,45.474,87.344,45.465,87.063,45.515z M88.25,59.617
	c-0.267-0.208-0.54-0.413-0.812-0.615c-0.781-0.574-1.321-1.369-1.805-2.219c-0.08-0.136-0.153-0.275-0.225-0.416
	c0.375,0.021,0.744,0.109,1.108,0.239c-0.141,0.251-0.165,0.564-0.001,0.855c0.388,0.709,0.947,1.207,1.584,1.597
	c0.069,0.109,0.146,0.216,0.221,0.326C88.285,59.461,88.261,59.539,88.25,59.617z M83.952,78.418
	c-0.146,0.017-0.273,0.05-0.385,0.103c-0.151-0.304-0.287-0.582-0.411-0.794c-0.004,0.001-0.007,0.002-0.012,0.006
	c-0.308-0.549-0.914-0.613-1.344-0.37c-0.064-0.312-0.111-0.62-0.131-0.924c0.073,0.045,0.147,0.091,0.223,0.13
	c0.382,0.181,0.563,0.247,0.862,0.553c0.42,0.433,0.841,0.864,1.26,1.297C83.986,78.418,83.972,78.418,83.952,78.418z
	 M66.211,113.102c-0.04,0.105-0.078,0.215-0.12,0.327c0.053-0.385,0.114-0.768,0.186-1.148c0.017,0.062,0.034,0.128,0.054,0.188
	c0.03,0.086,0.063,0.175,0.09,0.262C66.333,112.837,66.262,112.96,66.211,113.102z M55.267,135.914
	c-0.199,0.138-0.396,0.281-0.597,0.421c-0.022-0.013-0.039-0.021-0.057-0.029c-0.071-0.257-0.142-0.519-0.205-0.781
	c0.1,0.054,0.207,0.094,0.33,0.125c0.271,0.068,0.539,0.094,0.794,0.083C55.444,135.789,55.357,135.852,55.267,135.914z
	 M56.103,138.846c0.015-0.023,0.03-0.046,0.046-0.072c0.006,0.006,0.014,0.012,0.023,0.02
	C56.149,138.81,56.125,138.829,56.103,138.846z M56.633,123.007c0.055-0.131,0.11-0.263,0.171-0.394
	c0.014,0.173,0.028,0.342,0.046,0.512c0.056,0.619,0.148,1.214,0.273,1.807c-0.131-0.036-0.262-0.049-0.394-0.049
	c0.037-0.162,0.079-0.32,0.123-0.479c0.101-0.37-0.218-0.605-0.498-0.533C56.435,123.583,56.523,123.294,56.633,123.007z
	 M57.177,128.352c-0.107-0.152-0.285-0.236-0.467-0.265c0.233-0.379,0.476-0.757,0.625-1.15c0.018-0.039,0.027-0.075,0.034-0.112
	c0.02,0.021,0.036,0.045,0.051,0.067c0.364,0.604,0.604,1.196,0.734,1.89c0.005,0.021,0.01,0.038,0.013,0.058
	C57.938,128.554,57.565,128.374,57.177,128.352z M73.187,134.786c0.583-0.293,1.181-0.539,1.798-0.736
	c0.07-0.009,0.139-0.02,0.206-0.028c-0.655,0.464-1.33,0.896-2.015,1.31C73.254,135.153,73.268,134.947,73.187,134.786z
	 M71.551,135.743c0.069-0.046,0.139-0.087,0.208-0.131c0.249,0.049,0.493,0.088,0.748,0.111c-0.345,0.2-0.688,0.394-1.031,0.588
	C71.557,136.129,71.588,135.929,71.551,135.743z M68.918,117.344c-0.133-0.044-0.262-0.096-0.389-0.139
	c-0.011-0.1-0.021-0.204-0.033-0.303c0.159,0.162,0.329,0.315,0.512,0.445c0,0.011,0.007,0.021,0.008,0.033
	C68.983,117.368,68.949,117.355,68.918,117.344z M85.186,119.722c0.099-0.028,0.201-0.063,0.299-0.099
	c0.305,0.099,0.596,0.222,0.953,0.317c0.057,0.018,0.118,0.022,0.179,0.03c-0.23,0.241-0.47,0.477-0.715,0.707
	c-0.044-0.355-0.366-0.68-0.751-0.684C85.186,119.908,85.196,119.813,85.186,119.722z M82.38,109.66
	c-0.421,0.355-0.457,0.905-0.259,1.362c-0.188-0.055-0.366-0.128-0.532-0.213c0.268-0.432,0.541-0.862,0.799-1.299
	C82.39,109.56,82.377,109.608,82.38,109.66z M87.543,106.738c0.013,0.002,0.027,0.006,0.042,0.008
	c-0.891,0.503-1.777,1.005-2.674,1.505c0.028-0.089,0.05-0.177,0.072-0.263c0.019-0.058,0.025-0.097,0.026-0.121
	c0.033-0.012,0.089-0.04,0.184-0.111C85.849,107.25,86.714,106.964,87.543,106.738z M87.374,84.617
	c-0.044,0.003-0.086,0.003-0.131,0c-0.201-0.014-0.389,0.089-0.522,0.241c-0.115-0.097-0.226-0.19-0.333-0.298
	c-0.175-0.163-0.35-0.332-0.523-0.504c0.466,0.104,0.975,0.102,1.535-0.036c0.041-0.009,0.075-0.021,0.112-0.034
	C87.464,84.195,87.419,84.408,87.374,84.617z M98.731,78.891c0.339-0.216,0.468-0.521,0.466-0.814
	c0.135-0.041,0.268-0.084,0.404-0.127c-0.305,0.404-0.616,0.813-0.916,1.226c-0.262,0.361-0.566,0.708-0.896,1.035
	c-0.071-0.153-0.165-0.294-0.287-0.412C97.903,79.495,98.312,79.19,98.731,78.891z M91.14,84.838
	c-0.121,0.09-0.294,0.223-0.491,0.355c-0.021-0.023-0.044-0.044-0.067-0.066c0.036-0.173,0.07-0.344,0.106-0.517
	c0.057-0.013,0.112-0.042,0.159-0.084c0.045,0.033,0.092,0.061,0.142,0.087c0.096,0.047,0.19,0.09,0.283,0.131
	C91.229,84.774,91.184,84.808,91.14,84.838z M93.452,79.441c-0.032,0.102-0.075,0.202-0.122,0.299
	c-0.401,0.372-0.784,0.778-1.162,1.217c-0.009,0.011-0.019,0.02-0.026,0.028c-0.176,0.1-0.357,0.184-0.557,0.245
	c-0.05,0.016-0.1,0.026-0.153,0.038C91.943,80.545,92.691,79.971,93.452,79.441z M95.381,72.164c0.035-0.051,0.074-0.113,0.11-0.18
	c0.288-0.012,0.568-0.06,0.854-0.132c-0.28,0.174-0.564,0.338-0.852,0.5c-0.047-0.047-0.098-0.092-0.156-0.131
	C95.352,72.203,95.368,72.184,95.381,72.164z" class="color c1"/>
</svg>