<svg version="1.1" id="图层_1" x="0px" y="0px" width="59.569px" height="132.916px" viewBox="0 0 59.569 132.916" enable-background="new 0 0 59.569 132.916" xml:space="preserve" xmlns="http://www.w3.org/2000/svg" xmlns:xlink="http://www.w3.org/1999/xlink" xmlns:xml="http://www.w3.org/XML/1998/namespace">
  <path fill="#023A07" d="M59.568,39.321c-0.017-0.538-0.336-0.5-0.394-0.88c-0.056-0.38,0.188-1.016-0.169-1.316
	c-0.357-0.304-2.23-0.396-2.23-0.396s0.365-0.775,0.767-1.371c0.403-0.596,0.831-1.769,0.675-2.268
	c-0.156-0.5-0.575-0.482-0.895-0.307c-0.32,0.177-0.668,1.353-1.293,2.166c-0.624,0.813-2.128,2.118-2.513,2.952
	c-0.385,0.836-0.149,1.354-0.29,1.494c-0.142,0.138-0.4,0.195-0.601,0.354c-0.2,0.157-0.223,0.299-0.362,0.456
	c-0.141,0.16-0.063,0.181-0.241,0.216c-0.179,0.041-2.472-0.016-2.812,0.062l-0.34,0.078c0,0-3.938-4.196-4.194-4.577
	c-0.256-0.379-0.255-0.559-0.255-0.559l0.202-0.479c0,0-2.58-4.245-3.8-6.686c-1.219-2.44-1.663-1.766-2.73-2.932
	c-1.069-1.164-5.049-2.347-6.677-3.197c-1.629-0.85-1.62-0.799-1.729-0.779c-0.11,0.019-0.855-0.305-0.974-0.534
	c-0.118-0.232-0.143-2.466-0.111-2.545c0.03-0.079,0.608-1.48,0.854-2.316c0.245-0.835,0.306-0.896,0.306-0.896
	s0.622-0.453,0.848-1.33c0.225-0.877,0.394-2.11,0.335-2.309c-0.014-0.052-0.034-0.099-0.056-0.137
	c0.479-0.187,0.736-0.368,0.789-0.48c0.132-0.274,0.115-1.933,0.115-1.933s-0.051-0.043-0.113-0.098
	c2.205-0.232,3.605-0.572,3.605-0.952s-1.397-0.72-3.6-0.952c0.23-0.938,0.498-2.271,0.648-3.872
	c0.303-3.227-9.041-3.442-12.371-2.534c-2.443,0.667-2.14,4.418-1.807,6.367c-2.424,0.232-3.981,0.59-3.981,0.991
	c0,0.376,1.374,0.713,3.542,0.944c-0.026,0.246-0.009,1.58,0.103,1.729c0.055,0.073,0.251,0.286,0.597,0.511
	c-0.047,0.188-0.089,0.427-0.115,0.722c-0.108,1.218,0.542,2.238,1.038,2.542c0.497,0.302,0.737,0.126,0.755,0.424
	c0.019,0.299,0.188,1.616,0.402,2.354c0.213,0.739,0.176,0.421,0.171,1.06c-0.004,0.639-0.041,3.01-0.261,3.146
	c-0.221,0.14-1.202,0.731-1.202,0.731c-0.061,0.011-0.221,0.08-0.221,0.08s-0.079-0.092-0.129-0.083
	c-0.051,0.012-0.22,0.078-0.34,0.158c-0.119,0.078-3.904,2.166-5.202,2.495c-1.299,0.33-1.438,0.13-2.76,1.216
	c-1.324,1.088-2.896,3.212-3.702,4.56c-0.808,1.353-1.101,3.282-1.302,3.623c-0.202,0.334-0.121,0.216-0.505,0.832
	c-0.383,0.615-0.647,1.391-0.647,1.391l0.195,0.44c0,0-1.897,3.396-2.833,5.82c-0.935,2.428-1.484,4.1-1.629,4.873
	c-0.146,0.778-0.186,0.758-0.029,1.237c0.156,0.48,3.174,10.769,3.523,11.87c0.352,1.1,0.403,2.256,0.856,3.097
	c0.452,0.839,0.529,1.021,0.707,1.36c0.177,0.339,0.309,1.498,1.24,2.242c0.932,0.745,1.471,0.748,1.985,1.25
	c0.515,0.503,1.622,1.865,1.622,1.865l0.167,1.696c0,0,2.807,0.659,3.045,0.8c0.237,0.141,0.296,0.262,0.296,0.262
	s-0.212,4.643-0.06,5.681c0.151,1.039,0.075,0.76,0.187,1.798c0.112,1.035-0.528,1.271,0.097,3.189
	c0.624,1.918,0.746,1.601,0.938,2.56c0.191,0.957-1.007,1.349-0.825,3.902c0.182,2.553,0.457,3.073,0.483,4.947
	s-0.055,2.074-0.182,3.149c-0.128,1.076-0.441,0.076-0.053,1.794c0.386,1.718-0.545,3.664,0.155,6.022
	c0.701,2.358,1.128,3.996,1.242,4.833c0.113,0.842-0.049,1.198-0.012,1.558c0.038,0.36,0,0.077-0.361,0.475
	c-0.362,0.396-0.404,0.675-0.407,1.154c-0.004,0.479,0.515,0.643,0.55,1.16c0.037,0.518-0.124,0.679-0.124,0.679
	s-0.118-0.381-0.3,0.056c-0.183,0.438,0.085,1.993,0.084,2.233c-0.003,0.239,0.19,1.239,0.188,1.497
	c-0.002,0.26-0.311,1.473-0.335,2.211c-0.025,0.737-0.209,1.374-0.233,1.953c-0.025,0.576,0.032,1.016,0.03,1.256
	c-0.001,0.239-2.171,2.537-2.573,3.011c-0.403,0.479-0.523,0.756-0.528,1.354c-0.004,0.597,0.034,0.896,0.034,0.896
	s-0.141,0.062-0.124,0.479s0.033,0.856,0.151,1.157c0.117,0.298,1.03,0.825,3.144,0.84c2.115,0.014,4.057-1.209,4.259-1.445
	c0.2-0.239,0.281-0.417,0.281-0.417s-0.014-0.757,0.126-0.956c0.142-0.199,0.246-0.836,0.605-0.933s0.838-0.153,1.089-0.271
	c0.249-0.116,1.162-0.838,1.213-0.918c0.051-0.079,0.112-1.804-0.045-2.124c-0.156-0.32-0.156-0.459-0.154-0.559
	c0.001-0.102,0.264-0.777,0.251-1.914c-0.012-1.137,0.501-2.987,0.305-3.586c-0.194-0.601-0.313-0.642-0.191-0.959
	c0.121-0.318,0.607-1.351,0.531-1.91c-0.075-0.558-0.034-0.719-0.034-0.719s0.805-0.99,0.848-1.551
	c0.044-0.555,0.177-2.29-0.057-3.088c-0.234-0.8-0.275-0.682-0.191-1.159c0.082-0.478,0.113-7.396-0.309-9.872
	c-0.421-2.475-0.421-2.475-0.298-2.951c0.123-0.479,0.655-2.31,0.578-2.789c-0.076-0.479,0.224-3.309,0.605-6.616
	c0.384-3.308,0.997-5.616,1.2-6.091c0.203-0.479,2.217-3.336,2.217-3.336s2.207,3.686,2.595,5.361
	c0.386,1.679,0.536,2.956,0.847,4.234s0.786,1.441,0.697,2.796c-0.089,1.355-0.085,0.719-0.097,2.393
	c-0.012,1.676,0.624,1.919,0.699,2.636c0.074,0.719-0.084,0.48-0.249,1.355c-0.167,0.876-0.508,1.313-0.414,1.974
	c0.096,0.658,0.236,0.516,0.053,1.096c-0.183,0.576-0.383,0.574-0.37,1.67c0.013,1.097-0.028,1.117,0.009,1.516
	c0.037,0.399-0.496,6.736-0.413,7.565c0.084,0.827,0.153,0.868,0.239,1.378c0.086,0.507,0.255,0.647,0.255,0.647
	s-0.34,0.716-0.384,1.374c-0.045,0.657,0.315,0.579,0.373,0.9c0.057,0.318-0.179-0.141,0.092,0.977
	c0.271,1.117,0.71,1.063,0.728,1.401c0.019,0.341-0.291,1.724-0.128,2.623c0.162,0.896,0.311,1.188,0.311,1.188
	s-0.505,0.902-0.373,2.121c0.131,1.217,0.268,1.438,0.268,1.438s-0.26,0.137-0.303,0.494c-0.042,0.36,0.09,1.457,0.09,1.457
	s1.946,1.07,2.285,1.114c0.339,0.043,0.997-0.152,0.997-0.152s0.817,0.125,1.111,0.924c0.293,0.8,0.152,0.82,0.688,1.38
	c0.534,0.564,3.617,1.564,5.135,1.355c1.517-0.209,2.355-0.363,2.597-0.761c0.242-0.396,0.212-1.733,0.034-1.794
	c-0.18-0.062,0.018-1.285-0.695-1.938c-0.713-0.655-2.113-1.511-2.39-1.772c-0.277-0.263-0.195-0.679-0.43-1.238
	c-0.235-0.561-0.708-1.321-0.708-1.321s-0.114-0.739-0.153-1.04c-0.037-0.298-0.056-0.578-0.213-0.818
	c-0.156-0.239-0.328-1.577-0.36-2.693c-0.031-1.116,0.089-1.237,0.094-1.794c0.004-0.559,0.285-0.796-0.031-1.276
	c-0.315-0.479-0.313-0.92-0.313-0.92s0.564-0.553,0.327-1.074c-0.236-0.52-0.515-0.562-0.471-1.041
	c0.044-0.478,0.32-0.197,0.169-1.235c-0.152-1.035,0.086-0.915-0.19-1.396c-0.275-0.481-0.274-0.561-0.274-0.561
	s0.867-4.26,1.368-7.286c0.5-3.029,0.188-3.986,0.035-4.986c-0.152-0.999-0.267-1.756-0.224-2.115
	c0.042-0.358,0.045-6.261,0.096-7.814c0.051-1.557-0.148-1.598-0.142-2.515c0.003-0.647,0.058-2.46,0.105-3.965l0.537,6.929
	c0.017,0.223,0.213,0.39,0.436,0.373l0.561-0.045c0.223-0.017,0.39-0.212,0.373-0.435l-0.862-11.12
	c0.524,4.114,1.568,12.229,1.673,12.29c0.139,0.08,1.217-0.13,1.217-0.13S42.08,73.024,42.28,72.946
	c0.2-0.077,0.517,0.242,0.482-0.597c-0.033-0.837-0.029-1.356-0.306-1.757c-0.276-0.399-0.312-1.197-0.509-1.398
	c-0.198-0.201,0.162-0.478-0.356-0.28l-0.52,0.195c0,0,0.038-0.595,0.067-1.266l1.353-4.433c0.07-0.229-0.063-0.477-0.293-0.548
	l-0.761-0.232c-0.231-0.069-0.478,0.062-0.548,0.293l-0.313,1.025c0.012-0.059,0.002-0.155-0.066-0.308
	c-0.154-0.36-0.115-0.4-0.115-0.4s0.629-1.55,0.829-1.55c0.199,0.001,0.358-0.076,0.562-0.474c0.202-0.398,0.059-1.256-0.041-1.315
	c-0.099-0.062-0.268-0.094-0.268-0.094s-0.266,0.846-0.337,0.945c-0.069,0.1-0.219,0.119-0.258,0.019
	c-0.04-0.101,0.347-1.164,0.347-1.164s-0.119-0.13-0.269-0.122c-0.149,0.01-0.54,0.227-0.711,0.444
	c-0.171,0.219-0.241,0.337-0.241,0.337s-0.32,0.078-0.521,0.255s-0.453,0.565-0.437,1.024c0.017,0.458,0.116,0.501,0.046,0.668
	c-0.072,0.169-0.244,0.536-0.244,0.536s-0.205-6.171-0.522-6.334c-0.318-0.161-0.796-0.245-0.796-0.245s-0.274-0.8-0.589-1.28
	c-0.315-0.48-0.915-0.246-0.508-1.518c0.408-1.274,0.449-1.474,0.294-1.952c-0.157-0.48-0.532-3.833-0.926-4.593
	c-0.393-0.762-0.429-1.319-0.347-1.639c0.082-0.318-0.416-3.193-0.05-4.306c0.368-1.113,0.898-2.666,0.822-3.385
	c-0.074-0.717,0.168-1.114,0.168-1.114s0.982,2.1,1.456,2.661c0.475,0.562,0.151,1.157,0.788,1.282
	c0.638,0.124,1.021-0.392,1.021-0.392s3.263,3.671,4.335,4.478c1.07,0.804,1.646,1.049,1.805,1.228
	c0.158,0.182,0.929,1.124,1.825,1.371c0.896,0.245,2.771,0.06,4.194-0.967c1.423-1.028,2.106-1.86,2.266-1.959
	c0.161-0.098,0.502-0.375,0.981-0.452c0.478-0.074,2.155-0.264,2.854-0.538c0.699-0.272,0.921-0.372,0.923-0.791l0.005-0.519
	c0,0,0.36-0.297,0.462-0.773c0.104-0.478-0.111-0.997-0.111-0.997S59.584,39.859,59.568,39.321z M14.749,48.331l-0.006,0.879
	c-0.003,0.477-0.087,0.957-0.573,1.83c-0.483,0.875-0.4,0.396-0.489,1.67c-0.089,1.277,0.405,4.729,0.502,4.97
	c0.099,0.241,0.278,0.361,0.278,0.361s0.136,0.26,0.195,0.479c0.059,0.22-0.342,0.178-0.342,0.178l-0.089,1.395
	c0,0,0.02,0.141-0.16,0.141c-0.18-0.003-0.361,0.295-0.462,0.453c-0.101,0.16-0.121,0.279-0.243,0.537
	c-0.121,0.259-0.427,1.096-0.508,1.271c-0.081,0.182,0.257,0.463,0.257,0.463l-0.083,0.438l-0.483,0.614c0,0-0.56,0.236-1.218,0.15
	c-0.657-0.084-2.403-1.154-2.682-1.354c-0.277-0.202-0.393-0.919-1.137-2.601c-0.747-1.681-0.935-3.436-1.432-6.388
	c-0.496-2.958-1.057-5.354-0.935-5.853c0.124-0.496,0.505-0.872,1.854-2.678s2.93-5.403,2.93-5.403s0.359,0.003,0.579,0.065
	c0.218,0.061,0.039,0,0.279-0.238c0.241-0.237,0.344-0.676,0.626-1.072c0.283-0.396,1.063-0.829,1.405-1.326
	c0,0,0.157,3.189,1.1,5.072c0.944,1.884,0.63,1.241,0.786,1.721c0.156,0.48-0.043,0.399-0.211,1.593
	C14.32,46.894,14.749,48.331,14.749,48.331z M40.566,63.983l-0.049,0.162l-0.008-0.106C40.509,64.039,40.545,64.032,40.566,63.983z" class="color c1"/>
</svg>