<svg version="1.1" id="图层_1" x="0px" y="0px" width="185px" height="185px" viewBox="0 0 185 185" enable-background="new 0 0 185 185" xml:space="preserve" xmlns="http://www.w3.org/2000/svg" xmlns:xlink="http://www.w3.org/1999/xlink" xmlns:xml="http://www.w3.org/XML/1998/namespace">
  <path fill="#FFFCD9" d="M92.5,0C41.495,0,0,41.495,0,92.5c0,3.203,0.164,6.369,0.484,9.49l-0.024,0.085
	c0.012,0.003,0.023,0.007,0.035,0.011C5.306,148.604,44.731,185,92.5,185c51.004,0,92.5-41.495,92.5-92.5S143.504,0,92.5,0z
	 M5.174,97.941c22.535,1.694,48.543,11.914,72.025,28.415c19.557,13.742,35.742,30.711,45.953,48.099
	c-6.427,2.411-13.209,4.086-20.246,4.924c-9.336-17.748-23.659-34.912-41.506-49.693C43.607,114.95,24.249,104.139,5.194,98.261
	C5.188,98.154,5.181,98.048,5.174,97.941z M80.074,122.265C55.692,105.132,28.552,94.554,5.005,92.908
	C5.004,92.792,5.001,92.675,5,92.559c24.216-3.211,55.548,4.868,84.424,21.866c10.421,6.134,20.039,13.129,28.585,20.793
	c10.113,9.068,18.583,19.009,24.676,28.918c-4.646,3.265-9.623,6.088-14.869,8.412C117.267,154.332,100.434,136.572,80.074,122.265z
	 M121.293,129.396c-0.417,0.322-0.821,0.65-1.233,0.975c-3.083-2.708-6.29-5.336-9.621-7.867
	c23.144-14.134,47.96-22.356,69.278-22.974c-0.001,0.018-0.003,0.035-0.005,0.053C160.096,104.713,139.95,114.978,121.293,129.396z
	 M132.448,142.484c-2.708-2.965-5.587-5.879-8.623-8.717c0.177-0.138,0.348-0.278,0.525-0.415
	c16.532-12.776,34.909-22.472,52.421-27.749c-15.083,8.592-29.771,20.63-42.669,35.007
	C133.547,141.229,132.997,141.856,132.448,142.484z M92.5,5C140.749,5,180,44.252,180,92.5c0,0.672-0.011,1.343-0.025,2.012
	c-22.771,0.559-49.394,9.468-73.889,24.789c-4.523-3.232-9.234-6.306-14.125-9.185C62.469,92.755,30.331,84.441,5.146,87.509
	C7.742,41.575,45.927,5,92.5,5z M6.747,109.938c13.399,8.658,26.312,20.217,37.638,33.733c8.601,10.264,15.85,21.08,21.599,32.218
	C36.065,166.354,13.081,141.134,6.747,109.938z M72.447,177.678c-6.208-12.907-14.348-25.425-24.23-37.218
	c-12.397-14.797-26.67-27.33-41.45-36.426c17.319,5.867,35.356,16.179,51.443,29.503c16.72,13.847,30.239,29.806,39.281,46.317
	C95.838,179.948,94.175,180,92.5,180C85.602,180,78.889,179.194,72.447,177.678z M146.709,161.137
	c-3.101-4.996-6.771-9.987-10.928-14.871c0.676-0.778,1.357-1.553,2.043-2.316c12.218-13.621,26.063-25.061,40.286-33.34
	C173.817,130.935,162.449,148.68,146.709,161.137z" class="color c1"/>
</svg>