<svg version="1.1" id="图层_1" x="0px" y="0px" width="159.283px" height="182.6px" viewBox="0 0 159.283 182.6" enable-background="new 0 0 159.283 182.6" xml:space="preserve" xmlns="http://www.w3.org/2000/svg" xmlns:xlink="http://www.w3.org/1999/xlink" xmlns:xml="http://www.w3.org/XML/1998/namespace">
  <g>
    <path fill="#42B251" d="M154.175,0c-66,84.7-178.199-22-149.6,182.6c1.521-22.805,3.299-42.74,10.056-59.477
		c-0.003-0.058,0.204-0.647,0.218-0.707c10.244-44.835,53.647-73.298,96.746-63.454c0.05,0.012,0.072,0.06,0.116,0.082
		c0.075,0.038,0.133,0.074,0.189,0.136c0.057,0.062,0.087,0.124,0.116,0.203c0.017,0.042,0.063,0.071,0.067,0.12
		c0.005,0.041-0.027,0.07-0.027,0.112c-0.003,0.041,0.023,0.071,0.018,0.112c-0.011,0.051-0.059,0.072-0.081,0.117
		c-0.025,0.056-0.033,0.111-0.071,0.155c-0.009,0.04-0.043,0.079-0.114,0.106c-0.047,0.033-0.102,0.03-0.155,0.048
		c-0.047,0.017-0.069,0.063-0.122,0.071C79.387,64.41,66.657,83.247,55.426,99.867c-9.543,14.117-17.88,26.424-36.175,24.013
		c-0.028,0.161-0.066,0.319-0.093,0.481c2.033,4.459,12.875,3.776,14.038,3.69c28.875-5.504,40.809-23.441,51.383-39.361
		c10.082-15.177,18.784-28.28,39.902-23.631c0.173,0.038,0.312,0.145,0.398,0.282c0.089,0.139,0.125,0.307,0.087,0.48
		c-7.364,33.466-33.209,57.977-63.763,64.375l0.043,0.003c0,0-0.105,0.019-0.271,0.048c-1.87,0.386-3.759,0.689-5.66,0.938
		c-8.854,1.382-25.407,3.602-33.982,2.416C93.681,160.654,181.502,78.707,154.175,0z" class="color c1"/>
    <path fill="#42B251" d="M102.45,60.657c0.203-0.048,0.406-0.098,0.612-0.147c-0.145,0.011-0.298,0.022-0.447,0.033
		C102.558,60.582,102.512,60.618,102.45,60.657z" class="color c1"/>
  </g>
</svg>