<svg version="1.1" id="图层_1" x="0px" y="0px" width="119.604px" height="84.57px" viewBox="0 0 119.604 84.57" enable-background="new 0 0 119.604 84.57" xml:space="preserve" xmlns="http://www.w3.org/2000/svg" xmlns:xlink="http://www.w3.org/1999/xlink" xmlns:xml="http://www.w3.org/XML/1998/namespace">
  <path fill="#1E170B" d="M50.746,55.222c0.278-0.779,0.37-1.64,0.134-2.473c-0.388-1.697-1.81-2.897-3.472-3.28
	c-0.286-0.063-0.582-0.097-0.88-0.117c-0.324-0.7-0.683-1.38-1.074-2.039c0.148-0.257,0.284-0.519,0.393-0.788
	c0.331-0.813,0.455-1.667,0.32-2.476c-0.121-0.813-0.438-1.618-1.032-2.242c-1.131-1.313-2.938-1.72-4.59-1.278
	c-0.283,0.076-0.561,0.184-0.833,0.303c-0.606-0.467-1.241-0.904-1.896-1.311c0.016-0.296,0.016-0.588-0.017-0.879
	c-0.08-0.877-0.37-1.688-0.863-2.342c-0.483-0.667-1.142-1.231-1.962-1.51c-1.615-0.645-3.413-0.152-4.67,0.996
	c-0.211,0.196-0.386,0.437-0.568,0.663c-0.769-0.135-1.55-0.227-2.344-0.279c-0.123-0.263-0.236-0.532-0.396-0.767
	c-0.945-1.475-2.559-2.295-4.277-2.107c-0.852,0.13-1.641,0.441-2.267,0.989c-0.63,0.555-1.108,1.264-1.406,2.064
	c-0.099,0.271-0.167,0.555-0.225,0.844c-0.738,0.236-1.461,0.515-2.163,0.825c-0.235-0.18-0.477-0.345-0.729-0.478
	c-1.521-0.852-3.346-0.839-4.779,0.134c-0.689,0.513-1.234,1.166-1.54,1.934c-0.293,0.783-0.386,1.632-0.274,2.479
	c0.039,0.287,0.109,0.569,0.194,0.854c-0.538,0.549-1.048,1.127-1.528,1.729c-0.29-0.048-0.581-0.084-0.865-0.084
	c-1.742-0.054-3.351,0.804-4.172,2.33c-0.376,0.776-0.561,1.606-0.47,2.434c0.102,0.83,0.41,1.629,0.901,2.327
	c0.164,0.229,0.375,0.427,0.575,0.634c-0.228,0.754-0.413,1.523-0.563,2.311c-0.272,0.091-0.553,0.17-0.799,0.3
	c-0.76,0.392-1.437,0.95-1.893,1.64C0.288,57.247,0.03,58.062,0,58.919c0.029,0.857,0.288,1.673,0.721,2.36
	c0.456,0.689,1.133,1.248,1.893,1.639c0.246,0.131,0.525,0.211,0.799,0.3c0.148,0.784,0.335,1.558,0.563,2.312
	c-0.2,0.205-0.411,0.405-0.575,0.633c-0.49,0.699-0.801,1.498-0.901,2.329c-0.09,0.823,0.094,1.656,0.47,2.432
	c0.821,1.53,2.43,2.385,4.172,2.33c0.284,0,0.575-0.032,0.865-0.084c0.48,0.604,0.99,1.182,1.529,1.731
	c-0.085,0.282-0.156,0.564-0.195,0.851c-0.11,0.848-0.019,1.697,0.274,2.479c0.306,0.767,0.851,1.421,1.54,1.935
	c1.435,0.973,3.258,0.984,4.779,0.132c0.252-0.132,0.492-0.296,0.729-0.475c0.702,0.311,1.425,0.587,2.164,0.824
	c0.057,0.29,0.126,0.574,0.224,0.845c0.298,0.799,0.777,1.509,1.406,2.064c0.626,0.546,1.415,0.857,2.267,0.989
	c1.72,0.187,3.332-0.635,4.277-2.108c0.159-0.233,0.271-0.505,0.396-0.766c0.792-0.056,1.573-0.147,2.342-0.279
	c0.184,0.229,0.357,0.465,0.568,0.66c1.257,1.15,3.055,1.644,4.67,0.999c0.82-0.277,1.479-0.844,1.962-1.514
	c0.493-0.654,0.783-1.462,0.863-2.34c0.031-0.288,0.031-0.583,0.017-0.879c0.654-0.406,1.287-0.842,1.896-1.312
	c0.272,0.12,0.55,0.228,0.833,0.305c1.653,0.439,3.459,0.032,4.59-1.278c0.596-0.623,0.911-1.432,1.032-2.245
	c0.135-0.804,0.011-1.66-0.32-2.473c-0.106-0.271-0.243-0.531-0.394-0.786c0.394-0.662,0.751-1.341,1.076-2.042
	c0.297-0.021,0.593-0.054,0.879-0.117c1.663-0.38,3.084-1.584,3.472-3.279c0.236-0.834,0.146-1.692-0.134-2.473
	c-0.267-0.777-0.75-1.475-1.435-2.036c-0.22-0.186-0.474-0.33-0.721-0.482c0.02-0.394,0.059-0.781,0.059-1.18
	c0-0.397-0.039-0.783-0.059-1.177c0.247-0.155,0.501-0.3,0.721-0.484C49.996,56.696,50.48,56,50.746,55.222z M38.639,58.919
	c0,7.078-5.739,12.816-12.815,12.816c-7.077,0-12.815-5.738-12.815-12.816s5.738-12.814,12.815-12.814
	C32.9,46.104,38.639,51.841,38.639,58.919z" class="color c1"/>
  <circle fill="#1E170B" cx="25.822" cy="58.92" r="9.062" class="color c1"/>
  <path fill="#1E170B" d="M118.312,65.893c-0.166-0.141-0.358-0.25-0.546-0.366c0.014-0.298,0.044-0.594,0.044-0.896
	s-0.03-0.596-0.044-0.894c0.188-0.117,0.38-0.228,0.546-0.367c0.52-0.426,0.888-0.956,1.088-1.546
	c0.213-0.592,0.28-1.244,0.104-1.876c-0.295-1.289-1.373-2.199-2.636-2.488c-0.214-0.047-0.438-0.054-0.657-0.068
	c-0.253-0.549-0.533-1.075-0.837-1.59c0.109-0.19,0.229-0.378,0.309-0.577c0.251-0.616,0.347-1.267,0.244-1.877
	c-0.093-0.617-0.333-1.23-0.784-1.703c-0.856-0.996-2.229-1.304-3.483-0.971c-0.209,0.057-0.41,0.153-0.613,0.242
	c-0.474-0.365-0.965-0.704-1.477-1.018c0.012-0.223,0.03-0.442,0.008-0.656c-0.061-0.667-0.281-1.28-0.654-1.777
	c-0.368-0.507-0.867-0.937-1.49-1.146c-1.227-0.489-2.591-0.116-3.545,0.756c-0.159,0.149-0.292,0.33-0.43,0.505
	c-0.584-0.103-1.178-0.172-1.779-0.215c-0.093-0.197-0.181-0.402-0.301-0.579c-0.717-1.119-1.94-1.742-3.246-1.601
	c-0.646,0.1-1.245,0.337-1.72,0.75c-0.478,0.423-0.842,0.959-1.067,1.566c-0.072,0.199-0.104,0.419-0.148,0.633
	c-0.574,0.187-1.137,0.401-1.686,0.645c-0.175-0.132-0.344-0.272-0.529-0.371c-1.154-0.646-2.54-0.636-3.628,0.104
	c-0.523,0.389-0.938,0.884-1.169,1.465c-0.223,0.596-0.294,1.238-0.21,1.883c0.028,0.211,0.104,0.419,0.164,0.628
	c-0.42,0.428-0.814,0.879-1.188,1.35c-0.216-0.035-0.432-0.082-0.645-0.084c-1.321-0.039-2.544,0.61-3.166,1.771
	c-0.285,0.589-0.425,1.22-0.355,1.846c0.075,0.631,0.313,1.237,0.685,1.77c0.124,0.173,0.285,0.321,0.437,0.479
	c-0.172,0.572-0.313,1.157-0.426,1.753c-0.207,0.069-0.421,0.13-0.604,0.228c-0.577,0.298-1.091,0.722-1.438,1.246
	c-0.33,0.521-0.523,1.139-0.548,1.789c0.023,0.65,0.218,1.271,0.548,1.792c0.347,0.522,0.859,0.946,1.438,1.244
	c0.185,0.099,0.397,0.157,0.604,0.228c0.113,0.596,0.254,1.181,0.426,1.753c-0.15,0.156-0.313,0.308-0.437,0.479
	c-0.372,0.531-0.608,1.139-0.685,1.77c-0.068,0.626,0.07,1.257,0.355,1.846c0.622,1.16,1.845,1.811,3.166,1.771
	c0.213-0.001,0.429-0.047,0.645-0.083c0.374,0.469,0.77,0.922,1.188,1.35c-0.062,0.208-0.136,0.417-0.164,0.629
	c-0.084,0.642-0.013,1.287,0.21,1.881c0.23,0.582,0.646,1.077,1.169,1.468c1.088,0.738,2.474,0.747,3.628,0.101
	c0.187-0.099,0.354-0.238,0.529-0.369c0.549,0.241,1.11,0.458,1.686,0.644c0.045,0.215,0.076,0.433,0.148,0.633
	c0.227,0.606,0.591,1.146,1.067,1.565c0.475,0.414,1.073,0.651,1.72,0.751c1.306,0.144,2.529-0.479,3.246-1.6
	c0.12-0.176,0.208-0.381,0.301-0.581c0.604-0.041,1.195-0.11,1.779-0.212c0.138,0.173,0.271,0.353,0.43,0.503
	c0.954,0.873,2.318,1.244,3.545,0.758c0.623-0.212,1.122-0.642,1.49-1.148c0.373-0.495,0.595-1.109,0.654-1.774
	c0.022-0.216,0.004-0.438-0.008-0.656c0.512-0.314,1.003-0.654,1.477-1.021c0.203,0.09,0.404,0.188,0.613,0.242
	c1.256,0.336,2.627,0.026,3.483-0.969c0.451-0.474,0.691-1.087,0.784-1.704c0.103-0.608,0.007-1.261-0.244-1.876
	c-0.078-0.201-0.198-0.389-0.309-0.579c0.304-0.514,0.584-1.041,0.837-1.587c0.221-0.016,0.443-0.022,0.657-0.068
	c1.263-0.291,2.341-1.204,2.636-2.491c0.178-0.631,0.109-1.283-0.104-1.875C119.198,66.848,118.83,66.32,118.312,65.893z
	 M100.483,74.357c-5.372,0-9.727-4.354-9.727-9.727s4.354-9.727,9.727-9.727c5.371,0,9.729,4.354,9.729,9.727
	S105.854,74.357,100.483,74.357z" class="color c1"/>
  <path fill="#1E170B" d="M98.909,41.336c0.632,0,1.251,0.044,1.869,0.096v-5.841c0-4.593-3.725-8.314-8.315-8.314H67.102V0H31.966
	v27.275H20.777v3.104c1.736-0.328,3.526-0.509,5.358-0.509c15.87,0,28.735,12.866,28.735,28.736c0,1.608-0.14,3.188-0.395,4.727
	h22.278C76.845,51.171,86.726,41.336,98.909,41.336z M35.477,27.275V3.51h28.115v18.831l-4.066-3.078v-3.5
	c0-0.445-1.277-0.812-1.726-0.812c-0.446,0-1.723,0.365-1.723,0.812v8.969c0,0.444,1.275,0.811,1.723,0.811s1.726-0.365,1.726-0.811
	v-2.496l4.066,3.079v1.961L35.477,27.275L35.477,27.275z M66.477,33.894H60.15c-0.344,0-0.624-0.279-0.624-0.624
	s0.28-0.624,0.624-0.624h6.327c0.344,0,0.625,0.279,0.625,0.624C67.102,33.614,66.82,33.894,66.477,33.894z" class="color c1"/>
  <circle fill="#1E170B" cx="100.483" cy="64.633" r="6.878" class="color c1"/>
</svg>