<svg version="1.1" id="图层_1" x="0px" y="0px" width="12.517px" height="10.578px" viewBox="0 0 12.517 10.578" enable-background="new 0 0 12.517 10.578" xml:space="preserve" xmlns="http://www.w3.org/2000/svg" xmlns:xlink="http://www.w3.org/1999/xlink" xmlns:xml="http://www.w3.org/XML/1998/namespace">
  <g>
    <path fill="#FFFFFF" d="M9.986,3.003c0,0,1.973,3.953,1.973,5.043s-0.883,1.973-1.973,1.973S8.012,9.136,8.012,8.046
		S9.986,3.003,9.986,3.003z M3.792,4.401c0,0.681,0.552,1.233,1.233,1.233s1.233-0.552,1.233-1.233S5.025,1.249,5.025,1.249
		S3.792,3.72,3.792,4.401z M0.558,8.786c0,0.681,0.552,1.233,1.233,1.233s1.233-0.552,1.233-1.233S1.791,5.634,1.791,5.634
		S0.558,8.105,0.558,8.786z" class="color c1"/>
    <path fill="#425569" d="M9.985,10.578c1.396,0,2.532-1.136,2.532-2.532c0-1.162-1.693-4.612-2.033-5.292l-0.499-1l-0.499,1
		c-0.339,0.679-2.032,4.13-2.032,5.292C7.454,9.442,8.59,10.578,9.985,10.578z M9.985,4.288c0.696,1.489,1.416,3.228,1.416,3.758
		c0,0.781-0.635,1.416-1.416,1.416S8.57,8.827,8.57,8.046C8.57,7.516,9.29,5.778,9.985,4.288z M5.025,6.192
		c0.988,0,1.791-0.804,1.791-1.791c0-0.754-0.989-2.794-1.292-3.401L5.025,0L4.526,1C4.223,1.607,3.234,3.647,3.234,4.401
		C3.234,5.389,4.037,6.192,5.025,6.192z M5.025,2.554C5.401,3.391,5.701,4.17,5.701,4.401c0,0.373-0.303,0.676-0.676,0.676
		c-0.373,0-0.676-0.303-0.676-0.676C4.35,4.17,4.65,3.391,5.025,2.554z M1.791,10.578c0.988,0,1.791-0.804,1.791-1.791
		c0-0.755-0.989-2.794-1.292-3.401l-0.499-1l-0.499,1C0.989,5.992,0,8.032,0,8.786C0,9.774,0.804,10.578,1.791,10.578z M1.791,6.939
		c0.375,0.837,0.676,1.616,0.676,1.847c0,0.373-0.303,0.676-0.676,0.676c-0.372,0-0.675-0.303-0.675-0.676
		C1.116,8.555,1.416,7.776,1.791,6.939z" class="color c2"/>
  </g>
</svg>