<svg version="1.1" id="图层_1" x="0px" y="0px" width="251.43px" height="117.285px" viewBox="-0.288 -0.125 251.43 117.285" enable-background="new -0.288 -0.125 251.43 117.285" xml:space="preserve" xmlns="http://www.w3.org/2000/svg" xmlns:xlink="http://www.w3.org/1999/xlink" xmlns:xml="http://www.w3.org/XML/1998/namespace">
  <g>
    <path fill="#2C5871" d="M118.541,101.828l-1.078-26.231l6.055-13.296l-0.721,0.021l-36.771-0.91
		C86.017,61.55,86.01,61.689,86,61.828l0.426,8.588l2.318,33.871l0.021,1.266c11.26,8.803,20.233,11.607,20.233,11.607
		c5.042-2.06,9.691-4.41,13.981-7v-0.002l0,0L118.541,101.828z" class="color c1"/>
    <path fill="#E07A32" d="M115.22,17.158c2.071-0.218,4.006-0.409,5.693-0.55c2.844-0.239,4.991-0.341,5.928-0.21
		c5.521,0.218-1.373-6.274-3.916-6.446c-0.046-0.003-0.099-0.001-0.146-0.004C113.645,9.47,87.219,20.082,87.2,20.089l-0.001,0
		c0,0,0,0,0.001,0l0,0c0.084-0.001,0.189-0.006,0.282-0.009c2.788-0.083,9.367-0.838,16.407-1.65
		C107.717,17.989,111.669,17.532,115.22,17.158z" class="color c2"/>
    <path fill="#441707" d="M165.317,42.198l0.036,0.248l-17.521,2.593l0.595-0.594l0.773-0.115l1.676-3.978l7.005-11.573l-0.074-0.022
		l0.168-0.277c0.993-1.635,1.228-3.461,0.644-5.011l-0.108-0.291l16.077-2.379l0.073,0.494l-0.058,0.009l-3.1,0.459l-8.656,20.549
		l2.435-0.359L165.317,42.198L165.317,42.198L165.317,42.198z M32.76,41.788l-0.005,0l0.073,0.495l2.923-0.431L27.094,62.4
		l-3.801,0.563l8.882-21.088l-15.491,2.293l0.073,0.495l1.549-0.229L9.424,65.521L40.51,60.92l9.109-21.628L32.76,41.788z
		 M-0.288,46.679l3.251,19.798l2.658-0.394l9.112-21.628L-0.288,46.679z M118.619,17.541c0.787,0.042,1.574,0.085,2.358,0.111
		l0.3,0.01l-0.044-0.297c-0.027-0.185-0.04-0.362-0.053-0.54l-0.039-0.488l-0.249,0.021c-1.561,0.131-3.425,0.311-5.698,0.551
		l0.024,0.499C116.338,17.416,117.498,17.479,118.619,17.541z M53.561,38.709l-0.14,0.021l-9.112,21.629l13.644-2.02l8.884-21.089
		l3.805-0.563l-8.884,21.089l13.641-2.019l9.109-21.628L53.561,38.709z M235.527,31.555l0.072,0.495l-69.18,10.238l9.112-21.629
		l13.641-2.019l-8.886,21.09l3.801-0.562l8.659-20.549l-2.842,0.418l-0.072-0.495l0.004,0l18.128-2.682l0.073,0.494l-0.014,0.002
		l-1.639,0.243l-8.654,20.549l3.805-0.563l8.885-21.089l0.14-0.021l30.938-4.58l-8.876,21.089L235.527,31.555z M223.833,14.016
		l-8.658,20.547l3.803-0.56l8.655-20.549L223.833,14.016z M87.236,14.746l0.358,0.086l0.033-0.173l-0.491-0.094l-0.014,0.07
		l0.21,0.041l-0.211-0.04l-0.02,0.108l0.026,0.005L87.236,14.746z M247.89,9.95l-3.595,0.532l0.073,0.494l0.712-0.105l-8.885,21.091
		l14.945-2.212L247.89,9.95z M137.831,26.744l2.587-0.382l-8.711,20.679l0.438,0.236l14.536-21.673l0.035-0.081
		c0.011-0.045,0.026-0.09,0.041-0.134l0.146-0.494l-9.145,1.354L137.831,26.744z M104.425,31.687l-0.073-0.494l-10.404,1.54
		c0.754-0.643,1.456-1.433,2.127-2.394l0.23-0.33l-0.398-0.06c-0.028-0.005-0.056-0.007-0.092-0.004
		c-0.421-0.091-0.787-0.37-1.06-0.804c-0.504-0.805-0.627-2.018-0.328-3.244c0.468-1.934,1.882-3.344,3.125-3.075
		c0.561,0.122,1.019,0.58,1.292,1.291l0.216,0.562l0.245-0.549c0.133-0.297,0.266-0.59,0.396-0.872
		c1.04-2.25,2.074-3.722,4.28-4.588l1.785-0.701l-1.905,0.22c-6.668,0.77-13.563,1.565-16.385,1.649l-0.286,0.009l0.047,0.282
		c0.268,1.628,0.682,3.273,1.081,4.864c0.476,1.891,0.925,3.678,1.114,5.333c0.124,1.081,0.33,2.062,0.63,2.988l-4.055,0.6
		l0.072,0.495l2.003-0.294l-8.655,20.547l-3.44,0.51l0.073,0.494l9.777-1.447l0.003-0.163c2.067-0.243,4.264-0.536,6.89-0.919
		l0.14-0.021l8.857-21.022L104.425,31.687z M123.195,28.404l-8.882,21.089l-3.802,0.563l8.884-21.089l-13.638,2.019l-9.081,21.554
		l1.253-0.194c4.152-0.642,8.074-1.249,12.21-1.732l0.146-0.017l0.009-0.021l0.003,0.02l-0.003-0.02l0.001-0.001l0.003,0.021
		l17.438-2.58l9.107-21.628L123.195,28.404z" class="color c3"/>
    <path fill="#66321E" d="M66.485,36.797l4.962-0.735L62.336,57.69l-4.962,0.735L66.485,36.797z M40.111,60.583l-0.216,0.431
		l4.993-0.74l9.112-21.629l-4.959,0.735L40.111,60.583z M83.929,34.215l-9.11,21.629l4.959-0.735l9.109-21.625l-2.881,0.423
		L83.929,34.215z M5.042,66.17l4.82-0.713l0.141-0.022l9.109-21.626l-4.958,0.732L5.042,66.17z M87.01,20.435l0.287-0.115
		c1.057-0.423,26.548-10.597,35.47-10.123l0.377,0.02l-0.129-0.354c-2.161-5.974-8.462-9.987-15.679-9.987
		c-1.317,0-2.669,0.129-4.018,0.384c-8.813,1.673-14.712,6.888-16.182,14.306l-0.034,0.181c-0.244,1.304-0.348,2.603-0.307,3.863
		c0.019,0.509,0.072,1.021,0.157,1.522L87.01,20.435z M22.488,63.587l4.958-0.734l9.11-21.624l-4.96,0.731L22.488,63.587z
		 M92.291,53.194l0.438-0.064c1.484-0.217,2.949-0.438,4.39-0.66l0.138-0.021l9.079-21.55l-4.961,0.736L92.291,53.194z
		 M214.37,35.187l4.959-0.73l9.11-21.628l-4.958,0.734L214.37,35.187z M109.881,50.267l-0.127,0.392l4.911-0.712l9.109-21.628
		l-4.958,0.734L109.881,50.267z M196.927,37.772l4.961-0.735l8.932-21.203l0.225-0.434l-5.01,0.745L196.927,37.772z M241.061,10.958
		l-0.134,0.062l-9.109,21.588l4.957-0.732l9.11-21.629L241.061,10.958z M179.48,40.354l4.959-0.734l9.112-21.626l-4.958,0.731
		L179.48,40.354z M127.348,47.644l-0.502,0.501l5.267-0.781l9.109-21.627l-4.958,0.732L127.348,47.644z M148.055,45.005l1.496-0.223
		l1.785-4.236l-0.444-0.227L148.055,45.005z M162.042,42.934l4.957-0.732l9.112-21.629l-4.96,0.735L162.042,42.934z" class="color c4"/>
    <path fill="#E2C7B5" d="M121.654,19.328c0.993,3.565,1.524,6.37,1.46,9.126l-3.354,1.021l-27.752,4.049l0.883-0.61
		c0.922-0.637,1.761-1.476,2.556-2.558c-0.443-0.164-0.825-0.488-1.115-0.951c-0.574-0.917-0.72-2.273-0.391-3.627
		c0.489-2.023,1.875-3.492,3.295-3.492c0.143,0,0.285,0.016,0.424,0.046c0.577,0.125,1.065,0.508,1.41,1.096
		c0.06-0.131,0.118-0.26,0.177-0.387c1.066-2.306,2.199-3.92,4.552-4.844l0.063-0.016l0.201-0.023
		c3.757-0.434,7.643-0.882,11.133-1.25c1.159,0.007,2.325,0.07,3.453,0.132c0.782,0.042,1.566,0.085,2.347,0.111l0.209,0.007
		l0.03,0.207C121.328,18.004,121.469,18.665,121.654,19.328z M159.087,23.292c-0.317-0.842-0.809-1.537-1.462-2.066l-0.657-0.532
		c-0.932-0.753-2.114-1.151-3.419-1.151c-2.025,0-4.115,0.977-5.589,2.613c-0.774,0.863-1.327,1.864-1.645,2.975l-0.032,0.1
		c-0.02,0.058-0.038,0.117-0.053,0.176l-0.328,1.358l0.863-1.286l11.536,3.424l0.101-0.165
		C159.475,26.972,159.724,24.986,159.087,23.292z" class="color c5"/>
    <path fill="#5EA31A" d="M158.644,28.483l-12.09-3.588l-14.764,22.012c-3.522,0.522-6.438,1.057-9.012,1.529
		c-3.001,0.55-5.371,0.985-7.341,1.141c-0.767,0.06-1.515,0.134-2.263,0.208l-0.357,0.035c-0.869,0.086-1.732,0.178-2.59,0.277
		l-0.146,0.017c-4.146,0.485-8.072,1.092-12.229,1.735l-0.811,0.125c-1.439,0.223-2.903,0.443-4.386,0.659
		c-2.713,0.396-4.967,0.696-7.093,0.943l-0.217,0.025l-0.007,0.388c-0.014,0.756-0.014,1.799-0.013,2.896
		c0,1.675,0.001,3.408-0.048,4.501l-0.012,0.254l37.535,0.93l0.319-0.01l-5.888,12.931l-0.025,0.054l1.081,26.292l4.593,8.67
		l0.226-0.137c0.413-0.25,0.817-0.505,1.222-0.761l0.116-0.073c2.982-1.87,5.846-3.894,8.508-6.015l0.149-0.118l-4.681-10.896
		l-0.721-19.681c-0.209-3.975-0.773-7.455-1.679-10.354l12.26-0.368L158.644,28.483z" class="color c6"/>
  </g>
</svg>