<svg version="1.1" id="图层_1" x="0px" y="0px" width="25.369px" height="25.369px" viewBox="0 0 25.369 25.369" enable-background="new 0 0 25.369 25.369" xml:space="preserve" xmlns="http://www.w3.org/2000/svg" xmlns:xlink="http://www.w3.org/1999/xlink" xmlns:xml="http://www.w3.org/XML/1998/namespace">
  <g>
    <polygon fill="none" points="22.58,1.817 12.834,11.564 12.835,11.564 	"/>
    <polygon fill="none" points="11.564,12.833 6.313,18.084 1.798,22.601 11.564,12.834 	"/>
    <path fill="#FFFFFF" d="M13.955,12.684l9.746-9.746l0.453,0.452c0.256,0.256,0.672,0.256,0.928,0l0.095-0.094
		c0.257-0.257,0.257-0.672,0-0.929l-2.175-2.176c-0.258-0.256-0.672-0.256-0.93,0.001l-0.093,0.093
		c-0.257,0.257-0.257,0.673,0,0.929l0.452,0.453l-9.746,9.747L2.938,1.667L3.39,1.214c0.257-0.256,0.257-0.672,0.001-0.929
		L3.296,0.193C3.039-0.064,2.624-0.064,2.367,0.192L0.192,2.368c-0.257,0.257-0.257,0.672,0,0.929L0.287,3.39
		c0.256,0.256,0.671,0.256,0.927,0l0.454-0.452l9.747,9.746l-9.757,9.757l-1.657,2.928l2.927-1.657l9.757-9.757l9.757,9.757
		l2.928,1.657l-1.657-2.928L13.955,12.684z" class="color c1"/>
    <path fill="#342B16" d="M11.564,12.834l0.3,0.3L6.787,18.21l-5.774,5.774l0.785-1.384L11.564,12.834z M22.881,2.117l-0.301-0.3
		l-9.745,9.747l0.3,0.3L22.881,2.117z M23.571,22.601l-9.767-9.767l-0.82-0.82l-0.3-0.3l-0.001-0.001l-0.148-0.148L2.787,1.817
		l-0.299,0.3l9.747,9.747l0.149,0.149l0,0l0.3,0.3l0.821,0.821l5.076,5.076l5.774,5.774L23.571,22.601z" class="color c2"/>
  </g>
</svg>