<svg version="1.1" id="图层_1" x="0px" y="0px" width="95px" height="95px" viewBox="0 0 95 95" enable-background="new 0 0 95 95" xml:space="preserve" xmlns="http://www.w3.org/2000/svg" xmlns:xlink="http://www.w3.org/1999/xlink" xmlns:xml="http://www.w3.org/XML/1998/namespace">
  <g>
    <path fill="#193F0E" d="M83.917,76V63.333h-6.333v13.338c-4.002,1.741-5.834,6.397-4.093,10.399
		c0.798,1.833,2.26,3.295,4.093,4.093V95h6.333v-3.167c2.623,0,4.75-2.127,4.75-4.75V80.75C88.667,78.127,86.54,76,83.917,76z" class="color c1"/>
    <path fill="#193F0E" d="M32.281,56.981l-0.614,1.229l-0.614-1.229C25.05,56.84,17.179,54.598,12.8,50.049
		c-0.218,0.505-0.158,1.087,0.158,1.537l7.917,11.083c0.508,0.712,1.497,0.877,2.209,0.369c0.071-0.051,0.138-0.107,0.2-0.169
		l4.78-4.779l2.183,4.368c0.468,0.783,1.482,1.037,2.265,0.569c0.234-0.14,0.429-0.335,0.569-0.569l2.183-4.368l4.78,4.779
		c0.298,0.298,0.702,0.465,1.123,0.464h0.131c0.464-0.039,0.887-0.28,1.157-0.659l7.917-11.083c0.316-0.45,0.376-1.032,0.158-1.537
		C46.153,54.598,38.283,56.842,32.281,56.981z" class="color c1"/>
    <path fill="#193F0E" d="M83.917,52.997c0-4.657-1.084-9.249-3.167-13.414l0,0c-2.082,4.164-3.167,8.756-3.167,13.412v7.171h6.333
		L83.917,52.997L83.917,52.997z" class="color c1"/>
    <path fill="#193F0E" d="M80.75,12.667c-3.727,0-7.393,2.715-10.326,7.652c-2.346,3.925-3.693,8.365-3.924,12.931v15.833
		c0.005,4.37,3.547,7.911,7.917,7.917v-4.004c0.006-5.146,1.204-10.221,3.501-14.826l2.833-5.662l2.833,5.662
		c2.296,4.605,3.494,9.68,3.501,14.826V57c4.37-0.005,7.911-3.547,7.917-7.917V33.25C95,26.021,89.123,12.667,80.75,12.667z" class="color c1"/>
    <path fill="#193F0E" d="M6.333,20.583h4.75v3.167c0,2.623,2.127,4.75,4.75,4.75v7.299c-2.018,1.791-3.166,4.365-3.151,7.063
		c0.499,7.065,11.542,10.971,18.984,10.971s18.485-3.906,18.984-10.971c0.015-2.699-1.133-5.273-3.151-7.065V28.5
		c2.623,0,4.75-2.127,4.75-4.75v-3.167H57c1.749,0,3.167-1.418,3.167-3.167S58.749,14.25,57,14.25H6.333
		c-1.749,0-3.167,1.418-3.167,3.167S4.584,20.583,6.333,20.583z M14.25,23.75v-3.167h1.583v4.75
		C14.959,25.333,14.25,24.624,14.25,23.75z M44.333,34.833H33.25v-4.75c0-0.874-0.709-1.583-1.583-1.583s-1.583,0.709-1.583,1.583
		v4.75H19v-14.25h25.333V34.833z M33.25,44.333h-3.167c-0.874,0-1.583-0.709-1.583-1.583s0.709-1.583,1.583-1.583h3.167
		c0.874,0,1.583,0.709,1.583,1.583S34.124,44.333,33.25,44.333z M49.083,23.75c0,0.874-0.709,1.583-1.583,1.583v-4.75h1.583V23.75z" class="color c1"/>
    <path fill="#193F0E" d="M47.5,7.917C47.495,3.547,43.953,0.005,39.583,0H23.75c-4.37,0.005-7.911,3.547-7.917,7.917v3.167H47.5
		V7.917z" class="color c1"/>
    <path fill="#193F0E" d="M73.009,76h-8.092c-0.874,0-1.583-0.709-1.583-1.583V71.25c-0.003-7.565-3.621-14.674-9.737-19.127
		c-0.145,0.47-0.364,0.913-0.649,1.314L51.95,54.83c1.949,1.474,3.623,3.28,4.943,5.336h-2.692c-0.824-1.55-1.816-3.005-2.958-4.338
		l-1.9,2.66c0.427,0.539,0.826,1.099,1.197,1.678h-2.407l-2.264,3.167l0,0l-0.841,1.178c-0.811,1.136-2.08,1.858-3.471,1.974
		L41.43,66.5h-0.263c-1.26-0.003-2.468-0.504-3.361-1.393l-1.389-1.389v5.949h-9.5v-5.949l-1.392,1.392
		c-0.891,0.895-2.104,1.396-3.368,1.39l-0.353-0.011c-1.402-0.11-2.684-0.834-3.502-1.978l-0.841-1.178l0,0L15.2,60.167h-2.423
		c0.377-0.583,0.771-1.153,1.203-1.694v-0.016l-1.884-2.628c-1.141,1.334-2.132,2.789-2.956,4.338H6.449
		c1.318-2.055,2.989-3.862,4.935-5.336l-0.998-1.409c-0.282-0.397-0.501-0.835-0.649-1.298C3.621,56.576,0.003,63.685,0,71.25
		v22.167C0,94.291,0.709,95,1.583,95s1.583-0.709,1.583-1.583v-1.583h3.167v1.583C6.333,94.291,7.042,95,7.917,95
		S9.5,94.291,9.5,93.417v-1.583h3.167V95h38V84.4c3.252,4.655,8.571,7.43,14.25,7.434h8.092c-4.372-4.255-4.467-11.249-0.212-15.621
		C72.867,76.14,72.937,76.07,73.009,76z M6.333,88.667H3.167v-6.333h3.167L6.333,88.667L6.333,88.667z M6.333,79.167H3.167v-6.333
		h3.167L6.333,79.167L6.333,79.167z M6.406,69.667H3.262c0.166-2.179,0.682-4.318,1.528-6.333h2.936
		C6.994,65.373,6.55,67.505,6.406,69.667z M11.11,63.333h6.306v6.333h-1.583v-1.583c0-0.874-0.709-1.583-1.583-1.583
		s-1.583,0.709-1.583,1.583v1.583H9.568C9.738,67.486,10.259,65.348,11.11,63.333z M9.5,72.833h3.167v6.333H9.5V72.833z M9.5,88.667
		v-6.333h3.167v6.333H9.5z M64.321,79.106l-1.87,1.871c-0.975-0.326-1.877-0.839-2.655-1.51l3.008-0.82
		C63.28,78.886,63.793,79.041,64.321,79.106z M60.461,76l-2.723,0.741c-0.478-1.02-0.73-2.132-0.738-3.258v-0.649h3.167v1.583
		C60.173,74.957,60.272,75.493,60.461,76z M58.544,63.333c0.846,2.015,1.362,4.154,1.528,6.333h-3.145
		c-0.143-2.162-0.586-4.294-1.317-6.333H58.544z M52.22,63.333c0.854,2.014,1.376,4.153,1.545,6.333h-3.099v-1.583
		c0-0.874-0.709-1.583-1.583-1.583S47.5,67.209,47.5,68.083v1.583h-1.583v-6.333H52.22z M42.75,82.333h-6.333
		c-0.874,0-1.583-0.709-1.583-1.583s0.709-1.583,1.583-1.583h6.333c0.874,0,1.583,0.709,1.583,1.583S43.624,82.333,42.75,82.333z
		 M50.667,74.417v-1.583h3.167v0.649c-0.004,1.41,0.265,2.808,0.792,4.117l-3.358,0.914C50.867,77.184,50.665,75.804,50.667,74.417z
		 M57.106,86.322c-1.887-1.243-3.453-2.915-4.571-4.878l3.764-1.024c1.007,1.254,2.273,2.276,3.71,2.997L57.106,86.322z
		 M67.168,88.667h-2.252c-1.645-0.003-3.276-0.293-4.821-0.857l3.344-3.344c0.228,0.032,0.454,0.068,0.686,0.084l3.594,0.257
		L67.168,88.667z M68.167,81.656l-1.789-0.127l2.107-2.109L68.167,81.656z" class="color c1"/>
    <circle fill="#193F0E" cx="26.917" cy="25.333" r="1.583" class="color c1"/>
    <circle fill="#193F0E" cx="36.417" cy="25.333" r="1.583" class="color c1"/>
  </g>
</svg>