<svg version="1.1" id="图层_1" x="0px" y="0px" width="121.838px" height="170px" viewBox="0 0 121.838 170" enable-background="new 0 0 121.838 170" xml:space="preserve" xmlns="http://www.w3.org/2000/svg" xmlns:xlink="http://www.w3.org/1999/xlink" xmlns:xml="http://www.w3.org/XML/1998/namespace">
  <path fill="#252932" d="M121.828,141.839c-0.021-0.383-0.073-0.764-0.138-1.146c-0.051-0.295-0.103-0.59-0.183-0.887
	c-0.034-0.131-0.04-0.264-0.081-0.395c-0.078-0.25-0.205-0.467-0.3-0.705c-0.073-0.186-0.108-0.381-0.196-0.563L99.403,92.563
	c-1.61-3.41-3.547-5.594-9.584-5.795h-0.682V86.75h-4.902c0.084-0.661-0.072-1.325-0.479-1.872
	c-0.493-0.659-1.251-1.037-2.075-1.037h-1.473H77.39c-0.565,0-1.108,0.197-1.553,0.531V81.53c6.088-3.577,9.77-9.431,11.973-16.479
	c0.264,0.047,0.53,0.072,0.801,0.072c1.103,0,2.254-0.391,3.318-1.148c1.426-1.013,2.61-2.604,3.342-4.479
	c0.729-1.874,0.931-3.848,0.567-5.558c-0.407-1.917-1.521-3.358-3.047-3.954c-0.106-0.042-0.226-0.045-0.334-0.079
	c0.329-1.606,0.834-4.493,1.112-8.045c9.705-2.299,16.416-5.802,16.416-10.415c0-5-7.877-8.698-18.914-10.969
	c-0.069-0.401-0.139-0.79-0.211-1.191c-0.67-3.781-2.531-7.129-5.379-9.684c-0.002-0.002-0.004-0.004-0.008-0.007
	C78.729,3.634,70.911,0.405,62.084,0c-8.679,0.399-16.499,3.627-23.252,9.604c-2.844,2.554-4.705,5.902-5.38,9.685
	c-0.071,0.402-0.141,0.79-0.211,1.19c-11.036,2.271-18.914,5.969-18.914,10.969c0,4.622,6.735,8.129,16.468,10.427
	c0.315,3.665,0.855,6.564,1.161,8.01c-0.144,0.04-0.294,0.047-0.434,0.102c-1.529,0.595-2.639,2.036-3.046,3.955
	c-0.363,1.709-0.161,3.683,0.569,5.557c0.729,1.875,1.915,3.466,3.339,4.479c1.064,0.757,2.216,1.148,3.318,1.148
	c0.275,0,0.548-0.024,0.814-0.074c2.205,7.018,5.882,12.854,11.96,16.437v2.886c-0.445-0.333-0.987-0.531-1.551-0.531h-2.821h-1.473
	c-0.824,0-1.58,0.378-2.073,1.039c-0.294,0.393-0.453,0.849-0.49,1.318h-5.079c-3.872-0.259-7.693,1.778-9.498,5.481L0.993,141.968
	c-0.042,0.087-0.068,0.177-0.107,0.263c-0.062,0.135-0.114,0.272-0.169,0.41c-0.183,0.461-0.339,0.934-0.452,1.426
	c-0.016,0.072-0.042,0.143-0.058,0.215c-0.115,0.557-0.169,1.133-0.186,1.721C0.02,146.07,0,146.134,0,146.205
	c0,0.063,0.017,0.123,0.017,0.186c0.006,0.584,0.055,1.156,0.16,1.711c0.019,0.104,0.051,0.205,0.074,0.31
	c0.105,0.473,0.247,0.935,0.417,1.381c0.048,0.125,0.091,0.256,0.145,0.381c0.191,0.441,0.406,0.877,0.665,1.295
	c0.031,0.052,0.072,0.097,0.104,0.146c0.066,0.102,0.142,0.196,0.212,0.299c0.271,0.385,0.568,0.752,0.89,1.096
	c0.079,0.082,0.152,0.173,0.233,0.252c0.388,0.386,0.807,0.734,1.254,1.052c0.104,0.073,0.212,0.137,0.318,0.205
	c0.396,0.258,0.812,0.489,1.245,0.688c0.099,0.045,0.194,0.101,0.296,0.144c0.503,0.211,1.031,0.375,1.574,0.502
	c0.135,0.03,0.271,0.057,0.408,0.082c0.571,0.106,1.153,0.186,1.753,0.19l21.214,0.16v10.09c0,2,1.576,3.627,3.513,3.627h55.323
	c1.938,0,3.513-1.627,3.513-3.627v-7.865l21.637-6.764c0.664-0.207,1.296-0.486,1.894-0.822c0.143-0.082,0.263-0.19,0.4-0.276
	c0.434-0.273,0.858-0.56,1.242-0.896c0.167-0.146,0.307-0.319,0.462-0.478c0.313-0.313,0.622-0.633,0.892-0.985
	c0.153-0.203,0.279-0.427,0.416-0.642c0.225-0.348,0.439-0.701,0.619-1.078c0.045-0.092,0.111-0.17,0.152-0.266
	c0.068-0.156,0.092-0.322,0.152-0.482c0.144-0.379,0.269-0.758,0.365-1.153c0.064-0.265,0.115-0.533,0.158-0.806
	c0.061-0.393,0.096-0.784,0.109-1.18C121.839,142.4,121.843,142.123,121.828,141.839z M30.982,136.596l-5.453-0.041l3.189-6.548
	c0.262,0.361,0.59,0.666,1.01,0.835c0.309,1.372,0.723,2.706,1.254,3.979V136.596z M93.331,137.88v-3.06
	c0.529-1.272,0.943-2.606,1.253-3.979c0.329-0.132,0.61-0.339,0.847-0.595l2.873,6.078L93.331,137.88z" class="color c1"/>
  <path fill="#A78B54" d="M35.459,25.779c0.071,0.016,0.128,0.029,0.218,0.049c0.028,0.006,0.06,0.012,0.09,0.019
	c0.38,0.08,0.901,0.18,1.521,0.279c1.185,0.189,2.72,0.369,4.311,0.369c0.633,0,1.274-0.028,1.902-0.096
	c0.568-0.061,0.98-0.571,0.919-1.141c-0.06-0.568-0.559-0.971-1.14-0.919c-1.857,0.2-3.866,0.01-5.373-0.217
	c-0.616-0.092-1.154-0.189-1.55-0.27c-0.033-0.007-0.061-0.012-0.092-0.019c-0.183-0.038-0.334-0.071-0.445-0.096
	c0.039-0.216,0.076-0.432,0.115-0.648c0.021-0.123,0.042-0.243,0.064-0.366c0.174,0.059,0.377,0.114,0.592,0.17
	c0.039,0.01,0.077,0.02,0.118,0.03c0.03,0.007,0.055,0.015,0.086,0.022c0.423,0.101,0.921,0.188,1.506,0.259
	c0.753,0.09,1.63,0.152,2.696,0.152c0.598-0.004,1.117-0.441,1.113-1.04c0-0.059-0.024-0.111-0.034-0.167
	c-0.084-0.488-0.491-0.867-1.002-0.867c-0.017,0.01-0.052,0-0.078,0c-0.621,0-1.147-0.026-1.633-0.061
	c-0.404-0.029-0.763-0.066-1.082-0.11c-0.235-0.033-0.456-0.066-0.649-0.104c-0.094-0.019-0.178-0.037-0.262-0.056
	c-0.458-0.104-0.79-0.209-1.004-0.298c0.046-0.265,0.093-0.523,0.139-0.789c0.001-0.009,0.003-0.016,0.004-0.024
	c0.001-0.003,0.001-0.007,0.001-0.01c0.186-1.039,0.519-2.017,0.916-2.964c0.786-1.872,1.936-3.562,3.472-4.944
	C43.13,9.951,45.491,8.317,47.957,7c4.391-2.347,9.126-3.66,14.126-3.895c5.389,0.251,10.406,1.722,15.016,4.328
	c2.198,1.242,4.311,2.72,6.311,4.489c1.531,1.375,2.673,3.05,3.458,4.901c-0.112,0.024-0.216,0.048-0.343,0.071
	c-0.275,0.05-0.594,0.093-0.946,0.132c-0.396,0.042-0.854,0.071-1.359,0.089c-0.286,0.011-0.565,0.023-0.89,0.023
	c-0.006,0-0.01,0-0.012,0c-0.024,0-0.049,0-0.075,0H83.24c-0.571,0-1.034,0.463-1.037,1.033c0,0.044,0.021,0.08,0.026,0.121
	c0.049,0.386,0.299,0.694,0.656,0.833c0.133,0.052,0.279,0.083,0.432,0.086c0.006,0,0.013-0.001,0.02-0.001
	c0.063,0,0.113-0.005,0.176-0.005c0.7-0.005,1.311-0.038,1.867-0.085c0.08-0.007,0.156-0.015,0.232-0.022
	c0.589-0.058,1.115-0.13,1.555-0.219c0.129-0.026,0.247-0.053,0.363-0.081c0.08,0.315,0.188,0.62,0.248,0.943
	c-0.01,0.002-0.022,0.004-0.033,0.006c-0.092,0.018-0.188,0.036-0.291,0.055c-0.377,0.069-0.801,0.142-1.297,0.212
	c-0.029,0.004-0.063,0.007-0.094,0.011c-0.562,0.077-1.185,0.141-1.834,0.187c-1.039,0.074-2.14,0.094-3.196-0.019
	c-0.222-0.023-0.44,0.048-0.632,0.166c-0.266,0.162-0.473,0.423-0.508,0.753c-0.031,0.295,0.067,0.571,0.246,0.78
	c0.166,0.194,0.4,0.332,0.674,0.361c0.629,0.068,1.27,0.096,1.902,0.096c0.287,0,0.568-0.012,0.852-0.023
	c0.691-0.026,1.354-0.079,1.979-0.148c0.564-0.063,1.1-0.135,1.566-0.21c0.021-0.003,0.043-0.007,0.066-0.011
	c0.369-0.061,0.684-0.119,0.969-0.175c0.076,0.438,0.153,0.87,0.23,1.306c0.417,2.364,0.834,4.735,1.25,7.066
	c-0.096,0.014-0.193,0.023-0.289,0.038c-0.025,0.004-0.051,0.006-0.076,0.01c-0.52,0.077-1.039,0.131-1.557,0.203
	c-4.12,0.573-8.248,1.021-12.385,1.316c-0.715,0.051-1.432,0.077-2.147,0.12c-0.708,0.042-1.415,0.084-2.123,0.119
	c-0.456,0.021-0.911,0.057-1.368,0.076c-1.115,0.045-2.229,0.061-3.343,0.086c-2.03,0.046-4.06,0.063-6.09,0.042
	c-1.497-0.016-2.994-0.031-4.491-0.083c-2.395-0.083-4.79-0.208-7.182-0.383c-0.558-0.042-1.114-0.103-1.671-0.149
	c-0.999-0.082-1.996-0.18-2.993-0.279c-0.462-0.046-0.924-0.079-1.385-0.129c-0.668-0.071-1.334-0.146-2.002-0.224
	c-0.051-0.006-0.103-0.015-0.154-0.02c-0.828-0.098-1.656-0.216-2.483-0.325c-0.426-0.057-0.852-0.108-1.278-0.167
	c-0.519-0.072-1.038-0.126-1.556-0.203c-0.054-0.008-0.107-0.013-0.16-0.021c-0.069-0.011-0.139-0.017-0.208-0.027
	C34.942,28.71,35.201,27.235,35.459,25.779z" class="color c2"/>
  <path fill="#A78B54" d="M36.439,39.889c-0.374-0.066-0.743-0.134-1.106-0.203c-0.159-0.03-0.305-0.063-0.461-0.094
	c-0.532-0.104-1.055-0.21-1.565-0.32c-0.228-0.048-0.477-0.093-0.7-0.143c-0.704-0.156-1.354-0.324-2.013-0.489
	c-8.444-2.122-13.159-4.893-13.159-7.193c0-2.438,5.265-5.407,14.68-7.568c0.182-0.042,0.358-0.084,0.543-0.125
	c-0.438,2.48-0.878,4.977-1.315,7.418c-0.074,0.412,0.021,0.835,0.263,1.175c0.242,0.341,0.611,0.568,1.024,0.634
	c0.003,0,0.006,0,0.009,0.001c0.222,0.035,0.445,0.058,0.668,0.092c0.431,0.066,0.864,0.116,1.296,0.18
	c0.085,0.012,0.17,0.022,0.256,0.035c0.316,0.047,0.632,0.087,0.948,0.132c0.207,0.029,0.413,0.057,0.62,0.086
	c0.505,0.069,1.009,0.144,1.515,0.209c0.345,0.044,0.69,0.101,1.036,0.143c1.158,0.144,2.316,0.261,3.476,0.383
	c1.019,0.106,2.038,0.211,3.058,0.302c0.331,0.029,0.66,0.069,0.991,0.097c2.334,0.195,4.67,0.34,7.008,0.448
	c0.511,0.024,1.021,0.06,1.533,0.079c2.371,0.09,4.742,0.141,7.114,0.141c0.784,0,1.571-0.036,2.356-0.047
	c2.688-0.033,5.373-0.128,8.059-0.277c0.744-0.041,1.488-0.082,2.234-0.132c0.748-0.05,1.498-0.078,2.246-0.137
	c3.618-0.288,7.229-0.714,10.834-1.21c0.521-0.072,1.045-0.141,1.567-0.218c0.069-0.01,0.14-0.019,0.211-0.029
	c0.446-0.065,0.894-0.116,1.34-0.185c0.206-0.032,0.414-0.053,0.62-0.086c0.02-0.003,0.038-0.005,0.057-0.008
	c0.414-0.066,0.781-0.293,1.023-0.634c0.243-0.34,0.336-0.764,0.264-1.175c-0.439-2.442-0.878-4.938-1.316-7.418
	c0.113,0.025,0.229,0.05,0.343,0.076c9.547,2.165,14.882,5.161,14.882,7.617c0,2.298-4.708,5.067-13.138,7.188
	c-0.658,0.166-1.306,0.333-2.011,0.49c-0.23,0.052-0.487,0.097-0.725,0.148c-0.413,0.089-0.842,0.174-1.27,0.26
	c-0.1,0.02-0.194,0.041-0.295,0.06c-0.516,0.102-1.03,0.202-1.566,0.297c-1.788,0.321-3.701,0.608-5.711,0.865
	c-0.829,0.106-1.673,0.206-2.539,0.3c-0.813,0.088-1.628,0.174-2.473,0.25c-4.562,0.412-9.564,0.652-14.995,0.652
	c-9.707,0-18.064-0.761-24.874-1.925C37.003,39.983,36.712,39.938,36.439,39.889z" class="color c2"/>
  <g>
    <g>
      <path fill="#FFCE00" d="M57.664,114.468c0.361-0.075,0.727-0.136,1.106-0.136c0.185,0,0.378,0.038,0.567,0.063
			c0.474,0.061,0.958,0.168,1.48,0.381l0.252,0.104l0.337,0.14l0.588-0.242c0.131-0.053,0.251-0.075,0.378-0.119
			c0.548-0.189,1.072-0.305,1.576-0.314c0.031,0,0.064-0.011,0.096-0.011c0.495,0,0.973,0.081,1.438,0.209
			c1.459,0.403,2.715,1.409,3.615,2.78c-0.207,0.402-0.43,0.797-0.596,1.229c-0.408,1.057-0.622,2.145-0.729,3.231
			c-0.004,0.03-0.008,0.06-0.01,0.089h-15.45C52.427,118.145,54.695,115.089,57.664,114.468z" class="color c3"/>
      <path fill="#FFCE00" d="M49.925,117.973c-1.39-1.759-3.333-3.052-5.59-3.563c-0.711-0.161-1.444-0.265-2.204-0.265
			c-0.468,0-0.916,0.075-1.367,0.139c0.413-1.031,0.993-1.949,1.696-2.729c0.551-0.611,1.182-1.125,1.874-1.535
			c0.085-0.051,0.161-0.119,0.249-0.166c0.988-0.533,2.019-0.803,3.027-0.803c0.674,0,1.336,0.12,1.967,0.364
			c0.603,0.231,1.176,0.606,1.75,1.149l0.462,0.437l0.636-0.012c0.788-0.009,1.471,0.088,2.073,0.321H54.5
			c0.164,0.063,0.306,0.164,0.462,0.242c0.187,0.094,0.38,0.178,0.554,0.291C52.993,112.884,50.957,115.132,49.925,117.973z" class="color c3"/>
      <path fill="#FFCE00" d="M66.446,111.555c-0.006-0.003-0.014-0.006-0.021-0.009c0.904-1.61,2.347-2.771,4.111-3.087l5.196-0.932
			c0.314-0.057,0.636-0.084,0.955-0.084c1.135,0,2.26,0.375,3.289,1.06c0.192,0.129,0.389,0.25,0.573,0.401
			c0.863,0.705,1.552,1.619,2.073,2.648c0.2,0.396,0.379,0.803,0.521,1.232c-0.565-0.406-1.145-0.754-1.763-0.991
			c-0.3-0.116-0.614-0.16-0.922-0.241c-0.162-0.042-0.321-0.094-0.483-0.127c-1.313-0.264-2.66-0.227-3.992,0.127
			c-0.74,0.197-1.476,0.459-2.188,0.844c-1.053,0.568-1.985,1.336-2.813,2.223C69.767,113.146,68.203,112.066,66.446,111.555z" class="color c3"/>
      <path fill="#FFCE00" d="M71.405,119.667c0.063-0.166,0.154-0.312,0.226-0.47c0.289-0.643,0.64-1.235,1.048-1.775
			c0.717-0.947,1.584-1.745,2.592-2.288c0.988-0.532,2.021-0.803,3.027-0.803c0.573,0,1.135,0.106,1.678,0.282
			c0.096,0.029,0.194,0.045,0.289,0.08c0.604,0.232,1.176,0.611,1.75,1.152l0.461,0.437l0.637-0.013
			c0.168,0,0.316,0.021,0.478,0.031c0.214,0.012,0.435,0.012,0.632,0.042c0.32,0.05,0.617,0.128,0.898,0.23
			c0.021,0.008,0.045,0.009,0.066,0.017c0.521,0.203,0.981,0.502,1.408,0.842c0.18,0.144,0.354,0.295,0.516,0.459
			c1.002,1.021,1.65,2.414,1.853,3.979H70.879C70.972,121.132,71.125,120.393,71.405,119.667z" class="color c3"/>
      <path fill="#FFCE00" d="M37.125,119.455c0.26-0.28,0.547-0.529,0.851-0.764c0.199-0.152,0.403-0.295,0.619-0.426
			c0.42-0.257,0.868-0.459,1.34-0.619c0.056-0.02,0.113-0.035,0.17-0.054c0.645-0.2,1.317-0.34,2.027-0.34
			c0.591,0,1.156,0.099,1.704,0.238c2.226,0.575,4,2.229,4.75,4.379H35.678C35.995,120.964,36.484,120.145,37.125,119.455z" class="color c3"/>
    </g>
  </g>
  <g>
    <polygon fill="#F7FEEA" points="77.644,86.95 80.99,86.95 76.56,101.984 68.103,99.507 	" class="color c4"/>
    <g>
      <path fill="#F7FEEA" d="M92.795,54.586c-0.187-0.875-0.599-1.495-1.135-1.704c-0.146-0.057-0.308-0.085-0.478-0.085
			c-0.3,0-0.635,0.116-0.977,0.282c-0.354,3.09-0.857,6.086-1.557,8.932c0.578-0.009,1.146-0.333,1.475-0.567
			c0.923-0.657,1.743-1.776,2.247-3.075C92.877,57.073,93.033,55.694,92.795,54.586z" class="color c4"/>
      <path fill="#F7FEEA" d="M33.138,52.793c-0.164,0-0.328,0.027-0.488,0.089c-0.535,0.209-0.948,0.83-1.134,1.704
			c-0.234,1.107-0.08,2.486,0.425,3.783c0.505,1.298,1.324,2.418,2.246,3.075c0.332,0.235,0.903,0.559,1.484,0.565
			c-0.705-2.852-1.21-5.856-1.566-8.953C33.814,52.911,33.481,52.793,33.138,52.793z" class="color c4"/>
    </g>
    <path fill="#F7FEEA" d="M39.356,63.165c-0.22-0.75-0.435-1.507-0.626-2.295c-0.504-2.083-0.918-4.288-1.243-6.623
		c-0.125-0.911-0.229-1.856-0.33-2.804c-0.276-2.566-0.472-5.255-0.592-8.073c0.017-0.105,0.03-0.218,0.047-0.321
		c7.78,1.33,16.764,2.016,25.543,2.016c5.998,0,12.091-0.322,17.832-0.949c1.724,1.499,3.699,2.91,5.979,4.136l1.336,1.845
		c-0.043,0.458-0.097,0.896-0.145,1.346c-0.104,0.945-0.204,1.89-0.329,2.799c-0.324,2.343-0.738,4.554-1.242,6.643
		c-0.19,0.787-0.403,1.542-0.623,2.291c-1.886,6.463-4.853,11.505-9.409,14.76c-0.438,0.315-0.912,0.589-1.383,0.87
		c-3.229,1.931-7.132,3.112-11.936,3.357c-4.801-0.244-8.708-1.41-11.941-3.313c-0.515-0.303-1.032-0.604-1.511-0.945
		C44.218,74.648,41.245,69.615,39.356,63.165z" class="color c4"/>
    <path fill="#F7FEEA" d="M65.624,167.373h-6.937H34.065l0.093-0.793l1.212-10.264l0.454,0.004c0.026,0,0.051,0,0.077,0
		c1.917,0,3.695-0.57,5.209-1.521l21.487,0.046c0.07-0.003,0.137-0.021,0.207-0.027c0.008,0.264,0.028,0.531,0.098,0.797
		c0.246,0.938,0.845,1.725,1.686,2.217c0.27,0.158,0.555,0.279,0.85,0.361c-0.029,0.397,0.004,0.799,0.109,1.192
		c0.245,0.939,0.842,1.726,1.684,2.218c0.64,0.375,1.36,0.528,2.084,0.494c0.013,0.245,0.049,0.491,0.113,0.737
		c0.43,1.635,1.907,2.717,3.52,2.717c0.304,0,0.613-0.038,0.923-0.118l14.194-3.72c0.512-0.133,0.985-0.332,1.451-0.541l0.639,5.406
		l0.094,0.793L65.624,167.373L65.624,167.373z" class="color c4"/>
    <path fill="#F7FEEA" d="M64.716,100.32l-2.561,3.476l-2.56-3.476c0.152-0.729,0.002-1.492-0.454-2.094l-5.084-6.689l-2.473-3.253
		v-5.246c3.029,1.246,6.548,2.024,10.651,2.231c4.035-0.205,7.502-0.972,10.492-2.195v5.21l-2.474,3.253l-5.085,6.691
		C64.713,98.828,64.565,99.59,64.716,100.32z" class="color c4"/>
    <path fill="#F7FEEA" d="M83.554,89.25h4.299v25.253c-0.399-0.259-0.828-0.478-1.275-0.668c-0.016-0.099-0.01-0.194-0.027-0.294
		c-0.508-2.831-1.939-5.333-4.031-7.044c-0.793-0.646-1.656-1.101-2.543-1.461v-3.649l0.869-2.949L83.554,89.25z" class="color c4"/>
    <polygon fill="#F7FEEA" points="46.668,86.95 56.211,99.507 47.752,101.984 43.324,86.95 	" class="color c4"/>
    <path fill="#F7FEEA" d="M36.461,89.281h4.309l0.175,0.594l2.704,9.178l0.687,2.332v5.221c-0.412,0.155-0.826,0.295-1.227,0.512
		c-2.379,1.283-4.26,3.469-5.294,6.152c-0.282,0.733-0.478,1.481-0.616,2.233c-0.236,0.136-0.483,0.25-0.708,0.404
		c-0.007-0.101-0.03-0.196-0.03-0.298V89.281z" class="color c4"/>
  </g>
  <path fill="#A78B54" d="M68.769,145.148c0.06,0.225,0.139,0.438,0.235,0.645l-3.05,0.797c-0.141,0.037-0.266,0.098-0.396,0.148
	h-1.326c-0.52-0.332-1.103-0.516-1.701-0.516c-0.008,0-0.016,0-0.023,0l-3.116-0.013c0.092-0.422,0.139-0.873,0.134-1.351
	c-0.015-1.295-0.498-2.502-1.327-3.309c-0.646-0.629-1.446-0.922-2.279-0.959l-12.196-0.023l-4.282-0.008c-0.005,0-0.011,0-0.016,0
	c-0.262,0-0.504,0.08-0.748,0.15c-0.456-0.441-0.889-0.908-1.303-1.391c-0.725-0.842-1.376-1.744-1.964-2.691
	c-0.491-0.795-0.936-1.617-1.322-2.477c-0.45-1.004-0.817-2.051-1.109-3.131H91.33c-0.292,1.08-0.659,2.127-1.11,3.131
	c-0.673,1.502-1.52,2.906-2.508,4.199c-0.303-0.119-0.613-0.213-0.928-0.304c-1.565-0.44-3.254-0.522-4.943-0.084l-10.475,2.742
	c-0.939,0.246-1.727,0.844-2.219,1.687C68.657,143.234,68.522,144.212,68.769,145.148z" class="color c2"/>
  <path fill="#F7FEEA" d="M49.178,147.875c0.077,0.785,0.715,1.406,1.519,1.408l11.811,0.047c0.009,0,0.005-0.002,0.013-0.002
	c0.082,0.025,0.244,0.215,0.36,0.52c0.071,0.185,0.13,0.4,0.134,0.678c0.008,0.74-0.341,1.175-0.438,1.211L44.212,151.7
	l-3.829-0.009c-1.331-0.043-1.529-2.508-1.529-3.975c0-0.992,0.103-1.895,0.249-2.604c0.144-0.707,0.328-1.223,0.493-1.443h0.154
	l2.788,0.006l2.753,0.006l10.636,0.021c0.132,0.037,0.484,0.463,0.493,1.192c0.008,0.758-0.229,1.174-0.229,1.213l-5.505,0.068
	c-0.285,0.004-0.537,0.104-0.765,0.242c-0.455,0.273-0.772,0.752-0.77,1.318C49.149,147.785,49.173,147.826,49.178,147.875z" class="color c4"/>
  <path fill="#F7FEEA" d="M91.776,154.18c-0.277,1.045-0.807,1.997-1.555,2.776c-0.326,0.34-0.695,0.637-1.098,0.899
	c-0.559,0.365-1.167,0.674-1.85,0.853l-4.284,1.121l-9.911,2.596c-0.273,0.084-0.572-0.102-0.645-0.377
	c-0.074-0.276,0.101-0.573,0.379-0.646l5.988-1.568c0.523-0.139,0.879-0.604,1.036-1.123c0.058-0.193,0.056-0.402,0.027-0.607
	c-0.048-0.348-0.193-0.688-0.421-0.94c-0.266-0.291-0.629-0.442-1.01-0.479c-0.049-0.007-0.095-0.031-0.145-0.031
	c-0.131,0-0.264,0.016-0.395,0.051L69.2,158.98c-0.278,0.071-0.574-0.099-0.646-0.381c-0.05-0.181,0.014-0.324,0.057-0.396
	c0.039-0.072,0.137-0.199,0.322-0.246l7.822-2.049c0.322-0.084,0.564-0.307,0.758-0.57c0.303-0.416,0.444-0.965,0.313-1.473
	c-0.103-0.4-0.363-0.742-0.72-0.951c-0.187-0.109-0.393-0.172-0.604-0.197c-0.191-0.023-0.387-0.016-0.576,0.035l-9.371,2.455
	c-0.186,0.049-0.328-0.016-0.4-0.057c-0.071-0.043-0.199-0.14-0.248-0.32c-0.071-0.279,0.104-0.574,0.381-0.646l9.374-2.455
	c0.222-0.059,0.414-0.194,0.582-0.36c0.133-0.13,0.255-0.275,0.347-0.433c0.208-0.354,0.247-0.854,0.143-1.252
	c-0.053-0.195-0.144-0.367-0.256-0.52c-0.039-0.053-0.092-0.092-0.138-0.139c-0.379-0.396-0.938-0.597-1.502-0.449l-4.864,1.273
	l-2.963,0.772c-0.18,0.051-0.328-0.017-0.398-0.058c-0.073-0.041-0.201-0.139-0.247-0.319c-0.036-0.14-0.011-0.279,0.057-0.396
	c0.07-0.119,0.183-0.214,0.321-0.25l5.201-1.361l3.496-0.914c0.551-0.146,1.019-0.748,1.156-1.299
	c0.008-0.031-0.009-0.064-0.002-0.099c0.092-0.502-0.046-1.021-0.414-1.383c-0.393-0.388-0.951-0.541-1.486-0.397l-2.275,0.594
	c-0.174,0.051-0.324-0.012-0.396-0.057c-0.07-0.039-0.198-0.138-0.246-0.322c-0.047-0.18,0.016-0.324,0.058-0.396
	c0.041-0.072,0.138-0.199,0.322-0.246l10.475-2.744c0.476-0.125,0.951-0.178,1.423-0.193c0.469-0.014,0.928,0.033,1.377,0.119
	c0.584,0.113,1.141,0.31,1.664,0.574c0.033,0.019,0.069,0.029,0.104,0.049c0.428,0.226,0.837,0.486,1.205,0.806
	c0.826,0.717,1.449,1.664,1.82,2.76c0.049,0.142,0.117,0.271,0.156,0.418l1.398,5.338l0.033,0.119
	C92.095,152.059,92.049,153.154,91.776,154.18z" class="color c4"/>
  <g>
    <g>
      <path fill="#252932" d="M62.155,75.393c3.678,0,7.607-0.895,7.607-3.405c0-0.858-0.695-1.554-1.554-1.554
			c-0.694,0-1.282,0.454-1.481,1.081c-0.519,0.308-2.153,0.77-4.572,0.77c-2.417,0-4.051-0.462-4.572-0.77
			c-0.2-0.627-0.787-1.081-1.48-1.081c-0.858,0-1.554,0.696-1.554,1.554C54.549,74.499,58.479,75.393,62.155,75.393z" class="color c1"/>
      <circle fill="#252932" cx="76.135" cy="52.421" r="3.027" class="color c1"/>
      <path fill="#252932" d="M61.387,65.17h2.742c0.858,0,1.554-0.696,1.554-1.554c0-0.858-0.695-1.554-1.554-1.554h-2.39v-4.005
			c0-0.858-0.696-1.554-1.554-1.554s-1.555,0.696-1.555,1.554v4.356C58.629,63.934,59.866,65.17,61.387,65.17z" class="color c1"/>
      <circle fill="#252932" cx="48.177" cy="52.42" r="3.027" class="color c1"/>
    </g>
  </g>
  <polygon fill="#A78B54" points="92.97,125.036 92.97,127.914 31.341,127.914 31.341,124.988 92.948,124.988 92.97,124.988 " class="color c2"/>
</svg>