<svg version="1.1" id="图层_1" x="0px" y="0px" width="337.099px" height="206.037px" viewBox="0 0 337.099 206.037" enable-background="new 0 0 337.099 206.037" xml:space="preserve" xmlns="http://www.w3.org/2000/svg" xmlns:xlink="http://www.w3.org/1999/xlink" xmlns:xml="http://www.w3.org/XML/1998/namespace">
  <g>
    <path fill="#1E1E1E" d="M142.694,206.037c-2.656,0-5.409-0.06-8.215-0.178c-6.162-0.254-12.699-0.772-19.428-1.54
		c-4.993-0.565-10.242-1.791-16.046-3.75c-10.413-3.494-33.343-2.652-50.743-1.329c-3.229,0.254-6.059,0.509-8.294,0.721
		c-3.28,0.307-5.259,0.528-5.262,0.529l-0.124-1.107c0,0,1.987-0.223,5.281-0.531c2.239-0.212,5.074-0.467,8.313-0.723
		c17.506-1.329,40.594-2.167,51.185,1.385c5.729,1.934,10.902,3.143,15.816,3.698c6.703,0.766,13.213,1.282,19.349,1.534
		c3.691,0.156,7.287,0.207,10.692,0.159c11.474-0.158,20.622-1.467,27.191-3.89c4.077-1.501,7.468-2.519,10.672-3.204
		c19.355-4.129,68.157-12.733,103.203-3.483c3.328,0.875,6.508,1.914,9.45,3.086c0.734,0.287,1.451,0.598,2.168,0.908l-0.441,1.021
		c-0.705-0.305-1.41-0.609-2.136-0.894c-2.904-1.157-6.04-2.182-9.325-3.045c-34.811-9.189-83.409-0.617-102.687,3.496
		c-3.15,0.674-6.493,1.678-10.52,3.159c-6.688,2.467-15.96,3.799-27.56,3.958C144.398,206.031,143.551,206.037,142.694,206.037z" class="color c1"/>
    <path fill="#FCDD03" d="M300.874,181.087l-5.346,12.027c-2.98-1.188-6.12-2.206-9.386-3.065
		c-35.319-9.323-84.893-0.361-102.945,3.49c-3.617,0.774-7.138,1.909-10.596,3.182c-7.477,2.758-17.384,3.786-27.375,3.924
		l-10.723-0.159c-7.212-0.297-14-0.923-19.388-1.538c-5.441-0.615-10.744-1.973-15.931-3.723
		c-10.903-3.659-35.478-2.535-50.963-1.358c-9.885-23.599-40.495-118.6,89.464-151.787c23.684-6.056,49.998-5.452,74.881,0.106
		c0.021,0,0.053,0.011,0.085,0.021c13.523,3.012,26.632,7.488,38.66,13.162C289.737,73.475,323.783,110.375,300.874,181.087z" class="color c2"/>
    <path fill="#F09D00" d="M327.775,192.553l-21.125-9.94l0.902-1.92l21.125,9.94L327.775,192.553z M26.508,191.384l-0.477-2.066
		l-16.154,3.728l0.477,2.066L26.508,191.384z M20.122,160.711L0.24,159.469l-0.132,2.117l19.882,1.242L20.122,160.711z
		 M22.716,127.173l-22.367-3.728L0,125.538l22.367,3.728L22.716,127.173z M31.736,94.974L10.611,83.791l-0.992,1.875L30.744,96.85
		L31.736,94.974z M50.629,61.611L36.96,47.942l-1.5,1.5l13.668,13.669L50.629,61.611z M89.321,39.467L79.38,22.071l-1.842,1.053
		l9.941,17.396L89.321,39.467z M134.164,26.067l-4.971-19.882L127.135,6.7l4.971,19.882L134.164,26.067z M185.118,0.46L183.047,0
		l-4.971,22.367l2.07,0.46L185.118,0.46z M243.433,16.858l-1.896-0.948l-9.94,19.882l1.896,0.948L243.433,16.858z M290.374,40.817
		l-1.338-1.646l-19.882,16.154l1.338,1.646L290.374,40.817z M321.195,75.759l-0.85-1.943l-19.882,8.698l0.85,1.943L321.195,75.759z
		 M333.513,111.835l-0.633-2.024l-19.882,6.213l0.633,2.024L333.513,111.835z M337.099,152.026l-22.367-3.728l-0.35,2.092
		l22.367,3.728L337.099,152.026z M41.565,193.347c-5.345-11.677-21.357-52.762-2.988-91.206
		c13.816-28.914,44.058-49.507,89.884-61.208c25.099-6.412,54.794-5.52,83.619,2.514l0.126,0.032
		c9.972,2.781,19.613,6.356,28.659,10.627c35.067,16.522,71.962,51.349,48.641,123.427l-5.021,11.294l3.314,1.473l5.06-11.381
		l0.067-0.177c10.594-32.683,9.958-60.936-1.889-83.975c-9.471-18.417-25.831-33.201-48.625-43.941
		c-9.229-4.357-19.064-8.004-29.231-10.84l-0.128-0.032c-29.425-8.201-59.785-9.101-85.489-2.535
		c-46.917,11.979-77.957,33.229-92.258,63.158c-19.048,39.864-2.548,82.24,2.962,94.279L41.565,193.347z" class="color c3"/>
  </g>
</svg>