<svg version="1.1" id="图层_1" x="0px" y="0px" width="112.367px" height="169.954px" viewBox="0 0 112.367 169.954" enable-background="new 0 0 112.367 169.954" xml:space="preserve" xmlns="http://www.w3.org/2000/svg" xmlns:xlink="http://www.w3.org/1999/xlink" xmlns:xml="http://www.w3.org/XML/1998/namespace">
  <g>
    <path fill="#FFFFFF" d="M99.781,103.892c-9.807-7.454-14.366-14.827-11.637-18.701c4.526-6.428,12.109-12.346,12.523-35.959
		c0.22-12.524-2.192-22.687-6.967-30.459C85.852,5.997,71.613-0.315,52.137,0.012c-11.388,0.191-25.093,5.157-32.79,18.613
		c-4.368,7.636-6.807,17.995-5.773,31.792C16.063,83.6,35.992,89.947,33.666,93.965c-2.329,4.016-10.602,8.616-17.474,10.115
		c-3.528,0.771-9.801,3.958-16.191,7.476c10.113,20.687,25.513,43.897,56.013,58.397c31-15.666,46.235-37.646,56.354-58.301
		C108,109.173,103.229,106.513,99.781,103.892z" class="color c1"/>
    <g>
      <g>
        <path fill="#828282" d="M51.4,26.641c-13.519,2.414-19.56-0.3-21.862,13.869c-2.3,14.167-3.543,28.021,3.121,36.53
				c6.667,8.509,14.125,14.123,23.895,14.021c9.772-0.105,16.148-2.708,20.749-10.855c4.603-8.151,7.669-22.513,8.229-34.769
				C86.096,33.178,64.273,24.34,51.4,26.641z" class="color c2"/>
      </g>
    </g>
    <path fill="#282828" d="M63.548,54.724c0.77,1.383,0.227,2.402-1.16,2.774c-2.006-1.168-4.279-1.89-6.582-2.051
		c-1.321-0.093-2.646,0.168-3.923,0.636c0.458-1.553,1.333-2.666,2.563-3.669c3.101-2.53,3.337-2.593,6.567-0.354
		C62.008,52.749,62.968,53.682,63.548,54.724z M70.188,38.177c1.689,0.071,3.375,0.216,5.063,0.33c0.017-0.11,0.034-0.22,0.051-0.33
		c-3.463-1.443-6.906-3.021-10.831-2.599c-1.987,0.214-3.335,1.339-3.726,3.349c-0.195,1.005-0.294,2.064-0.208,3.079
		c0.158,1.878,1.168,2.49,2.975,1.933c0.451-0.14,0.907-0.352,1.279-0.637c1.137-0.873,2.235-1.797,3.585-2.894
		c-0.941-0.267-1.869-0.53-2.797-0.793c-0.087-0.119-0.175-0.239-0.263-0.358c0.587-0.345,1.14-0.878,1.768-0.99
		C68.093,38.087,69.153,38.134,70.188,38.177z M85.763,67.621c-4.614,8.958-15.633,21.21-15.633,21.21l-1.307-6.15
		c0,0,8.763-5.692,9.818-15.738c1.053-10.046,3.887-25.918-4.075-31.225c-2.484-1.657-7.389-2.261-11.611-2.454
		c-2.007-0.092-11.151-0.092-13.414,0.033c-3.675,0.204-7.714,0.742-10.198,2.004c1.764-0.454,3.614-0.55,5.408-0.861
		c1.666-0.289,3.389-0.253,5.087-0.354c0.312-0.019,0.634-0.03,0.939,0.022c4.541,0.79,5.34,2.039,4.336,6.104
		c-0.334,1.354-0.99,2.724-1.841,3.821c-0.662,0.854-1.791,1.452-2.83,1.88c-1.107,0.456-1.938-0.327-2.946-0.875
		c-1.586-0.862-3.563-1.037-5.393-1.408c-0.733-0.149-1.522-0.099-2.276-0.027c-0.28,0.026-0.718,0.348-0.743,0.573
		c-0.028,0.249,0.294,0.732,0.534,0.783c0.997,0.213,2.029,0.252,3.03,0.45c0.838,0.166,1.649,0.465,2.473,0.705
		c-0.555,0.654-1.021,1.427-1.685,1.939c-1.413,1.092-3.021,1.938-4.384,3.083c-2.465,2.069-2.373,4.19,0.354,5.825
		c1.965,1.179,5.326,3.59,6.69,5.325c-1.984,2.361-3.05,5.344-3.75,8.5c-0.556,2.506-0.87,3.339-2.25,5.5
		c-0.136,0.212-0.532,0.934-0.86,1.571c2.527,3.135,5.105,4.821,5.105,4.821l-1.307,6.15c0,0-11.02-12.252-15.633-21.21
		c-4.613-8.958,0.197-27.152,6.139-34.213c0.188-0.223,0.391-0.433,0.602-0.636c0.074-0.252,0.148-0.505,0.21-0.759
		c0.1,0.001,0.2,0.002,0.3,0.002c-0.007,0.106-0.017,0.212-0.024,0.318c5.717-4.769,18.133-3.71,21.955-3.25
		c4.086-0.492,17.997-1.67,23.042,4.324C85.564,40.468,90.377,58.663,85.763,67.621z M37.058,74.66
		c-0.406-0.861-0.832-1.732-1.261-2.602C36.166,72.985,36.597,73.847,37.058,74.66z" class="color c3"/>
    <g>
      <path fill="#828282" d="M33.539,86.795c0,0,4.99,11.19,10.803,19.75c5.809,8.56,10.792,25.712,10.792,25.712
			s5.1-17.29,9.186-25.132c2.998-5.754,11.665-21.885,11.665-21.885L33.539,86.795z" class="color c2"/>
    </g>
    <path fill="#424242" d="M63.292,23.294h-14.42c-15.399,0-26.395,7.905-25.848,21.538c0.545,13.633-0.177,28.988,6.981,38.45
		c7.157,9.459,18.091,15.432,25.565,15.49c7.693,0.062,19.433-6.031,26.589-15.49c7.159-9.462,6.435-24.817,6.982-38.45
		C89.689,31.2,78.694,23.294,63.292,23.294z M79.178,73.86c-0.828,1.993-2.156,3.935-3.715,5.75
		c-1.72-4.695-4.682-12.445-7.625-18.575c-4.399-9.163-14.716-9.593-20.282-4.003c-4.914,4.932-9.024,18.362-10.283,22.796
		c-1.641-1.877-3.045-3.894-3.906-5.968c-3.677-8.851-3.16-30.759-1.035-34.801c4.349-8.277,13.414-8.055,23.941-8.05
		c10.527-0.005,19.588-0.228,23.939,8.05C82.338,43.101,82.853,65.009,79.178,73.86z" class="color c4"/>
    <g>
      <g>
        <g>
          <path fill="#93000B" d="M68.206,71.382c-2.456-4.377-3.684-12.707-12.145-12.707c-8.461,0-9.265,8.33-11.72,12.707
					c-2.456,4.375-5.524,13.684,0,19.002c5.522,5.318,11.72,5.017,11.72,5.017s6.621,0.302,12.145-5.017
					C73.728,85.066,70.662,75.757,68.206,71.382z" class="color c5"/>
        </g>
      </g>
    </g>
    <g>
      <path fill="#93000B" d="M15.666,75.872c-1.037,0.769-1.896,1.696-2.607,2.728l-1.98,2.072l0.521,0.752
			c-1.759,4.876-0.775,11.129,3.064,16.311c3.107,4.194,7.872,6.127,12.604,6.325l1.721,2.486l8.66-5.05
			c4.388-2.72,4.807-12.688-0.774-20.218C31.295,73.749,21.801,71.328,15.666,75.872z" class="color c5"/>
      <path fill="#93000B" d="M102.257,81.273l-3.119-3.116c-0.647-0.853-1.401-1.629-2.287-2.285
			c-6.132-4.544-15.626-2.123-21.205,5.406c-5.579,7.53-5.163,17.498-0.775,20.218l8.66,5.05l1.85-2.496
			c4.689-0.228,9.396-2.159,12.475-6.315c3.538-4.775,4.644-10.456,3.419-15.135L102.257,81.273z" class="color c5"/>
    </g>
    <g>
      <g>
        <g>
          <ellipse fill="#C80005" cx="56.09" cy="85.241" rx="11.749" ry="11.663" class="color c6"/>
        </g>
      </g>
    </g>
    <g>
      <g>
        <g>
          <ellipse transform="matrix(0.8035 -0.5954 0.5954 0.8035 -52.0529 30.1424)" fill="#C80005" cx="19.626" cy="93.909" rx="12.81" ry="15.726" class="color c6"/>
        </g>
      </g>
    </g>
    <g>
      <g>
        <g>
          <g>
            <path fill="#C80005" d="M27.771,87.874c4.09,5.522,3.762,12.701-0.738,16.034c-4.495,3.333-11.459,1.559-15.552-3.964
						c-4.093-5.523-3.762-12.702,0.735-16.035C16.717,80.575,23.681,82.352,27.771,87.874z" class="color c6"/>
          </g>
        </g>
      </g>
    </g>
    <g>
      <g>
        <g>
          <g>
            <path fill="#FFFFFF" d="M21.063,102.125c-2.579,0-5.34-1.398-7.218-3.934c-1.376-1.86-2.083-4.051-1.985-6.17
						c0.099-2.151,1.014-3.972,2.57-5.125c1.556-1.156,3.561-1.499,5.653-0.966c2.055,0.523,3.944,1.837,5.323,3.697l0,0
						c1.379,1.86,2.084,4.051,1.987,6.169c-0.101,2.151-1.011,3.973-2.569,5.126C23.725,101.737,22.42,102.125,21.063,102.125z
						 M18.192,86.574c-1.2,0-2.312,0.351-3.235,1.033c-1.339,0.991-2.125,2.574-2.21,4.456c-0.087,1.915,0.556,3.902,1.812,5.601
						c2.576,3.476,6.947,4.616,9.737,2.548c1.339-0.994,2.125-2.576,2.213-4.456c0.087-1.915-0.559-3.904-1.814-5.601l0,0
						c-1.259-1.696-2.975-2.894-4.831-3.366C19.295,86.644,18.734,86.574,18.192,86.574z" class="color c1"/>
          </g>
        </g>
      </g>
    </g>
    <g>
      <g>
        <g>
          <path fill="#282828" d="M24.364,77.487c0,0,5.664,2.813,9.175,9.309c2.329,4.303,3.826,11.691,0,17.097
					c1.777-1.03,4.11-2.396,4.11-2.396s4.159-7.765-1.116-16.255C31.58,77.266,24.364,77.487,24.364,77.487z" class="color c3"/>
        </g>
      </g>
    </g>
    <g>
      <g>
        <g>
          <g>
            <ellipse transform="matrix(-0.8035 -0.5954 0.5954 -0.8035 111.617 224.6661)" fill="#C80005" cx="92.893" cy="93.909" rx="12.81" ry="15.726" class="color c6"/>
          </g>
        </g>
      </g>
    </g>
    <g>
      <g>
        <g>
          <g>
            <ellipse transform="matrix(-0.8035 -0.5953 0.5953 -0.8035 111.6213 224.6646)" fill="#C80005" cx="92.893" cy="93.909" rx="10.137" ry="12.445" class="color c6"/>
          </g>
        </g>
      </g>
    </g>
    <g>
      <g>
        <g>
          <g>
            <path fill="#FFFFFF" d="M91.456,102.125c2.576,0,5.338-1.398,7.216-3.934c1.379-1.86,2.083-4.051,1.987-6.17
						c-0.101-2.151-1.011-3.972-2.569-5.125c-1.556-1.156-3.563-1.499-5.651-0.966c-2.057,0.523-3.946,1.837-5.325,3.697l0,0
						c-1.379,1.86-2.086,4.051-1.985,6.169c0.097,2.151,1.011,3.973,2.567,5.126C88.794,101.737,90.101,102.125,91.456,102.125z
						 M94.325,86.574c1.199,0,2.313,0.351,3.237,1.033c1.339,0.991,2.125,2.574,2.213,4.456c0.087,1.915-0.556,3.902-1.812,5.601
						c-2.579,3.476-6.947,4.616-9.74,2.548c-1.339-0.994-2.125-2.576-2.21-4.456c-0.087-1.915,0.556-3.904,1.813-5.601l0,0
						c1.258-1.696,2.972-2.894,4.832-3.366C93.222,86.644,93.782,86.574,94.325,86.574z" class="color c1"/>
          </g>
        </g>
      </g>
    </g>
    <g>
      <g>
        <g>
          <path fill="#282828" d="M88.158,77.487c0,0-5.664,2.813-9.179,9.309c-2.327,4.303-3.826,11.691,0,17.097
					c-1.773-1.03-4.108-2.396-4.108-2.396s-4.156-7.765,1.114-16.255C80.939,77.266,88.158,77.487,88.158,77.487z" class="color c3"/>
        </g>
      </g>
    </g>
  </g>
</svg>