<svg version="1.1" id="图层_1" x="0px" y="0px" width="336px" height="151.95px" viewBox="0 0 336 151.95" enable-background="new 0 0 336 151.95" xml:space="preserve" xmlns="http://www.w3.org/2000/svg" xmlns:xlink="http://www.w3.org/1999/xlink" xmlns:xml="http://www.w3.org/XML/1998/namespace">
  <ellipse fill="#9D6F19" cx="86.506" cy="98.968" rx="16.825" ry="24.848" class="color c1"/>
  <polygon fill="#5E430D" points="86.041,89.617 83.584,143.312 89.432,144.087 87.613,89.617 " class="color c2"/>
  <ellipse fill="#9D6F19" cx="50.344" cy="112.82" rx="11.751" ry="17.354" class="color c1"/>
  <polygon fill="#5E430D" points="50.02,106.289 48.3,143.792 52.387,144.333 51.116,106.289 " class="color c2"/>
  <polygon fill="#9D6F19" points="150.347,43.1 119.453,84.472 119.453,90.58 123.378,90.507 123.119,139.373 180.548,139.373 
	180.548,107.69 188.404,81.675 188.404,78.535 " class="color c1"/>
  <polygon fill="#5E430D" points="188.404,81.675 242.782,98 235.448,99.658 235.798,139.373 180.548,139.373 180.548,82.289 " class="color c2"/>
  <polygon fill="#FFFFFF" points="142.579,70.764 142.579,84.153 160.127,81.276 160.127,67.333 " class="color c3"/>
  <polygon fill="#35261D" points="143.892,71.812 143.892,82.375 158.813,80.106 158.813,69.108 " class="color c4"/>
  <g>
    <polygon fill="#35261D" points="212.406,65.44 204.326,61.961 204.326,49.16 195.457,49.16 195.457,58.143 149.564,38.384 
		114.127,85.781 115.611,86.917 149.741,40.308 190.498,76.089 190.498,80.281 243.391,96.167 243.391,94.16 	" class="color c4"/>
    <path fill="#35261D" d="M199.792,45.651c3,0,5.442-2.442,5.442-5.435c0-3.008-2.443-5.438-5.442-5.438
		c-2.996,0-5.431,2.43-5.431,5.438C194.361,43.21,196.796,45.651,199.792,45.651z" class="color c4"/>
    <path fill="#35261D" d="M207.4,32.612c3.601,0,6.521-2.927,6.521-6.53c0-3.598-2.921-6.518-6.521-6.518
		c-3.598,0-6.516,2.921-6.516,6.518C200.885,29.684,203.803,32.612,207.4,32.612z" class="color c4"/>
    <path fill="#35261D" d="M216.096,17.389c4.808,0,8.699-3.89,8.699-8.688c0-4.806-3.89-8.701-8.699-8.701
		c-4.804,0-8.695,3.896-8.695,8.701C207.4,13.498,211.289,17.389,216.096,17.389z" class="color c4"/>
  </g>
  <path fill="#DBB022" d="M336,151.951c-110.31-24.631-225.695-24.631-336,0H336z" class="color c5"/>
  <g>
    <path fill="#9D6F19" d="M258.059,128.858v3.769c0,0.373,0.187,1.222,0.279,1.408c0.095,0.286,0.567,1.129,1.037,1.885
		c0.563,0.66,0.19,1.131,0.093,1.6c-0.184,0.473-0.275,1.225-0.275,1.695v5.277c0,0.28,0.275,0.373,0.563,0.373l-0.093,1.317
		c0.468,0,0.937-0.187,1.41-0.187c0.373-0.093,0.756-0.384,1.127-0.472c-0.188-0.379-0.467-0.754-0.844-0.938
		c-0.283-0.096-0.095-0.379-0.095-0.379c0.095-1.601,0.279-3.205,0.472-4.806c0,0,0-0.661,0.467-1.032
		c0.474-0.382,1.32-0.945,1.32-0.945s0.282-0.276,0.471-0.098c0.187,0.098,0.187,0.285,0.187,0.479
		c0.103,0.184,0.661,3.574,0.661,3.574s0.568,2.447,0.661,2.734c0.096,0.279,0.096,0.279,0.374,0.279
		c0.285,0.096,0.475,0,0.568,0.277c0.092,0.281,0.185,0.762,0.185,0.762l0.19,0.654c0.28-0.281,0.752,0,1.039-0.186
		c0.276-0.098,0.373-0.195,0.655-0.291c0-0.277-0.188-0.658-0.188-0.75c-0.094-0.275-0.379-0.275-0.467-0.373v-0.283
		c-0.19-1.041-0.38-2.168-0.664-3.297c0-1.128,0-2.262-0.095-3.486c0.095,0-0.095-2.069,1.318-2.824
		c1.224-0.563,1.696,0,2.637,0.188c1.037,0.191,3.863,0.945,8.287,0.945s4.896-0.568,5.746-0.38c0.563,0.188,1.034,0.94,1.6,1.507
		c0.565,0.658,0.565,1.227,0.565,1.51c0,0.279-0.379,2.26-0.471,2.633c-0.285,0.85-0.285,3.293-0.285,3.293
		c0.188,0.102,0.377,0.195,0.66,0.293c0,0.367,0,0.848,0.096,1.316c0.374,0.186,0.939,0.279,1.316,0.279
		c0.375,0,0.756-0.477,1.131-0.658c-0.092-0.473-0.565-1.408-0.756-1.695c-0.188-0.382-0.093-0.473-0.093-0.564
		c0,0,0-1.133,0.093-1.51c0-0.279,0.381-1.971,0.474-2.353c0.19-0.378,0.471-1.415,0.845-1.886c0.471-0.371,0.943-0.561,0.943-0.561
		c0.188,1.783,0.188,6.398,0.188,6.871c0,0.377,0.375,0.564,0.564,0.66c0.28,0.098,0.563,0.656,0.657,1.123h2.354
		c-0.092-0.658-0.379-1.688-0.379-1.688s-0.845-1.041-0.845-1.135c-0.096-0.092-0.096-0.373-0.096-0.473
		c0.096,0,0.379-4.234,0.379-4.424s0.188-1.51,0.562-1.979c0.375-0.468,1.131-0.754,1.51-0.938c0.281-0.188,1.791-1.134,2.168-1.695
		c0.468-0.563,1.314-1.791,1.882-3.017c0.474-1.129,1.414-3.389,1.694-4.518c0.283-1.136,0.853-3.199,0.853-3.855
		c0.093-0.665,0.277-2.551,0.277-2.928c0-0.381,0.19-0.938,0.471-1.129c0.379-0.188,0.853-0.283,0.946-0.283
		c0.185,0,0.468,0.188,0.851,0.283c0.466,0.092,2.727,0.846,3.01,0.938h0.568c0,0,0.276-0.094,0.371-0.094
		c0.096-0.098,0.474-0.563,0.756-0.653c0.281-0.101,0.938-0.19,1.035-0.476c0.096-0.188,0.28-0.285,0.28-0.563
		c0-0.188-0.187-1.129-0.377-1.508c-0.467-0.751-1.502-2.166-1.979-2.634c-0.379-0.567-1.979-2.357-2.444-2.728
		c-0.474-0.385-1.604-1.416-2.166-1.606c-0.474-0.188-1.035-0.469-1.791-0.659c-0.752-0.093-1.035,0-1.035,0s-0.28-0.851-0.47-1.128
		c-0.19-0.281-0.852-0.852-1.131-1.127c-0.377-0.282-0.848-0.473-1.131-0.282c-0.281,0.282-0.281,0.653-0.092,1.129
		c0.281,0.375,0.375,1.026,0.375,1.026s-2.729,1.609-3.393,2.08c-2.163,1.408-3.674,3.572-4.896,3.764
		c-1.224,0.189-1.88,0.1-2.728,0.1c-5.649-0.289-17.519-0.855-19.118-0.855c-1.697,0-3.296-0.098-4.234,0.197
		c-0.947,0.367-3.961,1.41-5.562,3.571c-1.601,2.076-2.54,4.332-2.444,6.123c0.184,1.783,0.655,2.353,0.752,2.731
		c0.094,0.375,0.564,0.938,0.564,2.07L258.059,128.858z" class="color c1"/>
  </g>
</svg>