<svg version="1.1" id="图层_1" x="0px" y="0px" width="115.468px" height="115.468px" viewBox="0 0 115.468 115.468" enable-background="new 0 0 115.468 115.468" xml:space="preserve" xmlns="http://www.w3.org/2000/svg" xmlns:xlink="http://www.w3.org/1999/xlink" xmlns:xml="http://www.w3.org/XML/1998/namespace">
  <path fill="#FFFFFF" d="M8.635,74.571v18.906l34.46,21.99L80.35,97.778l-11.925-21.99L31.664,93.478V74.814h7.155l-19.08-11.035
	L0,74.571H8.635 M75.086,95.345l-30.84,15.336l-15.626-10.468l38.653-19.069L75.086,95.345 M69.166,24.505l0.905-21.097
	l-4.688,5.923L46.878,0L8.799,17.77V56.07h24.344v-39.68L52.141,28.4l-3.042,5.842L69.166,24.505 M29.69,14.525v37.487H12.172
	V20.205l15.379-6.979L29.69,14.525 M115.468,77.411V37.488L80.68,17.933L68.919,37.488l34.624,20.773L86.19,67.511l-3.783-7.06
	L81.09,83.497l18.752,9.332L96.717,86.5L115.468,77.411 M111.438,39.598v14.688l-3.536,1.947L73.936,36.109l7.895-13.146
	L111.438,39.598z" class="color c1"/>
</svg>