<svg version="1.1" id="图层_1" x="0px" y="0px" width="77.363px" height="104.719px" viewBox="0 0 77.363 104.719" enable-background="new 0 0 77.363 104.719" xml:space="preserve" xmlns="http://www.w3.org/2000/svg" xmlns:xlink="http://www.w3.org/1999/xlink" xmlns:xml="http://www.w3.org/XML/1998/namespace">
  <path fill="#3954A5" d="M77.356,27.795c-21.338,0-42.551,0-63.766,0c-0.021-0.111-0.039-0.222-0.06-0.335
	c0.54-0.225,1.07-0.47,1.618-0.672c1.533-0.568,3.08-1.107,4.614-1.681c4.337-1.621,8.669-3.257,13.009-4.879
	c3.402-1.272,6.809-2.527,10.212-3.803c4.294-1.61,8.583-3.241,12.876-4.85c3.922-1.468,7.853-2.91,11.762-4.407
	c0.266-0.102,0.559-0.582,0.549-0.877C68.102,4.252,67.956,2.216,67.826,0c-2.483,1.375-4.799,2.697-7.158,3.932
	c-0.519,0.271-1.207,0.346-1.803,0.302c-1.274-0.098-2.534-0.419-3.809-0.495c-4.107-0.243-8.152,0.233-12.177,1.055
	c-5.561,1.134-10.826,3.102-15.909,5.543C17.61,14.835,9.08,20.655,0.915,27.036c-0.633,0.496-0.917,1.023-0.896,1.82
	c0.038,1.564,0.062,3.133-0.01,4.695c-0.054,1.17,0.096,2.008,1.567,1.8c0.173-0.025,0.396,0.082,0.557,0.187
	c2.518,1.613,5.045,3.209,7.518,4.889c0.372,0.254,0.63,0.893,0.674,1.379c0.252,2.794,0.438,5.597,0.615,8.396
	c0.523,8.206,1.033,16.412,1.545,24.618c0.239,3.831,0.475,7.662,0.718,11.563c5.304-0.878,9.83,0.37,13.357,4.472
	c3.519,4.092,4,8.773,2.311,13.865c12.475-0.216,24.686-0.429,37.005-0.645c2.309-22.958,4.605-45.796,6.914-68.755
	c1.284,0,2.443,0.056,3.593-0.034c0.34-0.027,0.922-0.457,0.932-0.716C77.388,32.378,77.356,30.182,77.356,27.795z M56.465,41.038
	c-0.541-2.567-0.18-2.062-2.059-2.785c1.88-0.724,1.518-0.217,2.059-2.785c0.509,2.567,0.146,2.061,2.025,2.785
	C56.611,38.977,56.974,38.471,56.465,41.038z M62.849,47.538c-0.853-4.043-0.285-3.246-3.248-4.386
	c2.963-1.139,2.395-0.341,3.248-4.386c0.798,4.045,0.228,3.247,3.19,4.386C63.076,44.292,63.647,43.494,62.849,47.538z" class="color c1"/>
</svg>