<svg version="1.1" id="图层_1" x="0px" y="0px" width="162.629px" height="177.449px" viewBox="0 0 162.629 177.449" enable-background="new 0 0 162.629 177.449" xml:space="preserve" xmlns="http://www.w3.org/2000/svg" xmlns:xlink="http://www.w3.org/1999/xlink" xmlns:xml="http://www.w3.org/XML/1998/namespace">
  <path fill="#7FC651" d="M86.445,128.506c0,0,26.834,14.08,66.277,11.608c6.252-6.157,9.903-14.636,9.903-23.638v-0.945
	c-8.213,2.025-17.013-0.824-25.167-1.555c-10.648-0.955-20.197-0.412-25.9-2.147c-39.747-12.535-60.483,0.298-60.483,0.298
	c0.217,6.643-0.418,25.324,12.382,37.289c9.165,8.566,26.678,11.254,49.582,14.848l29.375-16.959
	C125.172,146.383,97.59,142.641,86.445,128.506z" class="color c1"/>
  <path fill="#00944E" d="M51.076,112.124V81.601c-6.946,3.31-22.019,3.426-32.301,11.827c-8.748,7.146-12.922,21.946-17.497,32.076
	c2.319,8.199,7.73,15.328,15.313,19.707l48.134,27.792c5.13,2.962,10.861,4.446,16.59,4.446s11.46-1.484,16.592-4.446l6.086-3.515
	l9.047-5.228C58.145,155.652,51.447,123.523,51.076,112.124z" class="color c2"/>
  <path opacity="0.2" fill="#282828" enable-background="new    " d="M103.038,170.039l0.955-0.551l9.047-5.228
	c-54.895-8.608-61.593-40.737-61.964-52.139C51.426,122.922,49.683,158.691,103.038,170.039z" class="color c3"/>
  <path fill="#00693F" d="M3.328,46.565c-0.243,0.506-0.47,1.02-0.688,1.537c-0.009,0.022-0.017,0.046-0.027,0.068
	c0.01-0.022,0.017-0.046,0.026-0.068c-0.215,0.515-0.418,1.037-0.61,1.561C1.938,49.914,1.851,50.16,1.771,50.4
	c-0.007,0.021-0.014,0.042-0.021,0.064c-0.035,0.104-0.067,0.208-0.102,0.313c-0.027,0.086-0.056,0.171-0.083,0.257
	c-0.126,0.395-0.237,0.765-0.335,1.109c-0.096,0.338-0.185,0.676-0.271,1.016c-0.02,0.08-0.044,0.158-0.064,0.238
	c-0.015,0.065-0.028,0.119-0.042,0.18c0,0.001,0,0.002-0.001,0.004c-0.024,0.105-0.043,0.213-0.066,0.318
	c-0.063,0.295-0.126,0.59-0.183,0.885c0,0,0.009-0.002,0.01-0.002C0.223,56.775,0,58.814,0,60.893v55.583
	c0,3.101,0.453,6.127,1.278,9.023c9.953-22.034,36.942-37.774,49.796-43.9L82.12,65.247h0.002
	c-8.23-4.369-24.069-15.818-41.246-20.245C28.253,41.75,14.907,44.13,3.328,46.565z" class="color c4"/>
  <path opacity="0.2" fill="#282828" enable-background="new    " d="M3.328,46.565c-0.243,0.506-0.47,1.02-0.688,1.537
	c-0.215,0.515-0.418,1.036-0.61,1.561C1.938,49.914,1.851,50.16,1.771,50.4c-0.071,0.209-0.139,0.422-0.206,0.633
	c-0.126,0.395-0.237,0.765-0.335,1.109c-0.095,0.338-0.185,0.676-0.271,1.016c-0.02,0.08-0.044,0.158-0.064,0.238
	c-0.015,0.064-0.028,0.119-0.042,0.18c-0.025,0.106-0.043,0.215-0.067,0.322c-0.063,0.295-0.126,0.59-0.183,0.885
	c0,0,32.073-6.605,81.519,10.464C67.844,57.668,30.664,40.818,3.328,46.565z" class="color c3"/>
  <path fill="#00944E" d="M91.855,1.746c-8.924-2.992-18.8-2.156-27.131,2.65l-24.16,13.949c17.304,1.138,42.942,5.158,53.584,18.656
	c0,0-26.587-13.95-65.734-11.641L16.59,32.188c-5.884,3.399-10.413,8.48-13.263,14.406c27.336-5.747,64.516,11.104,78.792,18.682
	l29.264,16.259c3.646-7.185,13.477-20.816,13.984-35.319C125.941,29.821,115.716,12.313,91.855,1.746z" class="color c2"/>
  <path fill="#D1E149" d="M146.042,32.159L97.906,4.367c-1.938-1.117-3.981-1.953-6.051-2.65
	c44.968,19.914,27.297,64.482,19.524,79.789l0.177,0.095v30.229c10.069,3.066,32.131,8.376,51.069,3.702V60.893
	C162.629,49.043,156.307,38.088,146.042,32.159z" class="color c5"/>
</svg>