<svg version="1.1" id="图层_1" x="0px" y="0px" width="129.047px" height="144.596px" viewBox="0 0 129.047 144.596" enable-background="new 0 0 129.047 144.596" xml:space="preserve" xmlns="http://www.w3.org/2000/svg" xmlns:xlink="http://www.w3.org/1999/xlink" xmlns:xml="http://www.w3.org/XML/1998/namespace">
  <path fill="#5B8C00" d="M94.752,47.205c0,0-6.084-32.663,32.523-47.205c0,0,12.434,41.313-28.6,50.685
	c0,0,1.479-18.356,18.646-35.07C117.322,15.613,103.148,23.686,94.752,47.205z M17.873,81.424c21.327,10.34,38.9,5.538,38.9,5.538
	C34.243,51.949,0,77.423,0,77.423c26.523,31.017,54.858,14.361,54.858,14.361C30.154,91.89,17.873,81.424,17.873,81.424z
	 M52.507,20.801C55.943,39.585,67.434,48.72,67.434,48.72C79.46,17.403,46.598,7.277,46.598,7.277
	C39.069,39.287,63.386,49.77,63.386,49.77C51.553,33.766,52.507,20.801,52.507,20.801z" class="color c1"/>
  <path fill="#8AB52C" d="M76.009,62.865c0.257,5.178-3.731,9.584-8.911,9.839c-5.178,0.257-9.582-3.733-9.838-8.911
	c-0.257-5.177,3.732-9.581,8.911-9.839C71.348,53.698,75.752,57.687,76.009,62.865z M69.402,94.609
	c-4.919-21.541-23.054-23.513-23.054-23.513s19.616,4.861,13.227,30.312c-6.389,25.449-36.788,43.188-36.788,43.188
	c78.205-34.979,67.434-107.957,67.434-107.957C87.26,74.138,69.402,94.609,69.402,94.609z" class="color c2"/>
</svg>