<svg version="1.1" id="图层_1" x="0px" y="0px" width="146.268px" height="143.775px" viewBox="0 0 146.268 143.775" enable-background="new 0 0 146.268 143.775" xml:space="preserve" xmlns="http://www.w3.org/2000/svg" xmlns:xlink="http://www.w3.org/1999/xlink" xmlns:xml="http://www.w3.org/XML/1998/namespace">
  <path fill="#006838" d="M146.268,52.464V91.55c0,3.404-2.683,6.164-6.001,6.164h-31.138c-4.853,0-9.332-2.68-11.721-7.025
	c-9.097-16.533-22.32-30.332-38.23-39.924c-4.832-2.913-7.859-8.187-7.859-13.951V6.177C51.318,2.779,54.018,0,57.32,0h37.968
	c3.319,0,6.002,2.773,6.002,6.177v40.111h38.978C143.58,46.288,146.268,49.053,146.268,52.464z" class="color c1"/>
  <path fill="#88C250" d="M51.314,103.33v32.286c0,4.51,3.654,8.159,8.16,8.159h34.857c4.504,0,8.16-3.649,8.16-8.159v-19.791
	c0-13.377-14.078-31.882-20.923-39.639c-16.852-19.1-33.715-29.644-66.854-29.644H1.998c11.106,20.982,39.365,32.531,57.651,33.22
	C39.051,80.021,11.508,69.331,0,48.157c0.721,29.737,21.254,47.428,51.313,49.562c17.979,1.277,35.473,0.76,41.592,9.829
	c3.096,4.584,2.798,8.701,2.798,14.316l-0.013,13.754c0,0.75-0.608,1.358-1.358,1.358H59.475c-0.752,0-1.359-0.608-1.359-1.358
	c0,0,0-16.855,0-22.818C58.114,104.081,51.314,103.33,51.314,103.33z" class="color c2"/>
</svg>