<svg version="1.1" id="图层_1" x="0px" y="0px" width="118.834px" height="121.443px" viewBox="0 0 118.834 121.443" enable-background="new 0 0 118.834 121.443" xml:space="preserve" xmlns="http://www.w3.org/2000/svg" xmlns:xlink="http://www.w3.org/1999/xlink" xmlns:xml="http://www.w3.org/XML/1998/namespace">
  <path fill-rule="evenodd" clip-rule="evenodd" fill="#E6EBFF" d="M60.721,0c-9.109,0-17.746,2.017-25.49,5.599l1.66,2.29
	l2.811,0.154l1.696-1.649l1.282,0.642l-2.351,2.277c0,0-3.226,0.058-3.071,0.058s0.272,2.231,0.272,2.231l3.915-0.107l0.427-1.068
	l2.704-0.153l0.32-1.59L43.296,8.41l0.533-1.436l1.222-0.366l4.246,0.211l-2.348,2.124l0.379,1.649l2.444,0.367l-0.167-2.965
	l2.338-1.223l4.14-0.485l5.989,2.656v2.277l1.911,0.487l-0.948,1.803h-2.706l-0.807,2.065l-6.179-1.46l4.851-2.586l-1.851-1.578
	l-4.188,0.534l-0.367,0.367h-0.012l-0.072,0.096l-1.197,1.245l-2.004,0.178l0.166,0.996l0.699,0.284l-0.025,0.333l-1.624,0.226
	l-0.118,0.937l-1.554,0.083l-0.286-1.873l-2.775,0.854l-5.692,3.332l0.64,2.338l1.59,1.031l3.18,0.451v3.606l1.471-0.237
	l1.364-2.823l3.38-1.066v-4.344l1.874-1.423l4.555,1.068l-0.319,2.871h1.222l3.333-1.649l0.166,3.771l2.432,1.482l-0.094,2.23
	l-2.338,0.795l0.166,0.734l2.799,1.282l-0.047,1.529l-0.818,0.072c0-0.023-0.012-0.036-0.012-0.036l-3.535-1.091l-0.154-1.139l0,0
	l1.033-0.712v-1.044l-1.116-0.272l-0.284,0.948l-1.945,0.309l-0.202-0.07v0.094l-0.677,0.107l-0.545-1.115l-0.641-0.285h-1.387
	l-0.642,0.523v1.138l1.198,0.402l1.174,0.167l-0.261,0.119l-1.079,1.186l-0.475-0.593l-1.032-0.273l-2.823,2.657l0.367,0.309
	l-4.174,2.301l-3.927,4.093l-0.273,1.816l-3.926,2.584l-1.958,1.971l0.214,3.925l-2.704-1.269l0.023-2.288h-7.532l-3.903,1.979
	l-1.695,3.12l-0.666,2.468l1.093,2.396l3.073,0.379l4.886-3.261l0.427,1.611l-1.494,2.825l3.725,0.628l0.355,5.741l5.101,0.866
	l3.239-3.75l3.926,0.809l1.377,1.922l3.76-0.227l0.105-1.114l2.078,1.008l2.324,3.654l4.032,0.059l1.483,2.599l0.214,3.179
	l4.459,1.708l5.622,0.047l1.638,2.705l2.491,0.794l-0.475,2.23L69,81.564l-0.794,7.686l-2.468,1.957l-3.652-0.118l-1.234,2.122
	l0.913,3.987l-3.985,5.088l-1.27,2.337l-3.795,1.814l-2.492,0.38l-0.105,1.056l1.755,0.51l-0.214,1.127l-1.565,1.518l0.948,1.188
	l1.887,0.061l-0.096,1.457l-0.51,1.436l-0.154,1.163l2.787,2.349l-0.366,1.223l-3.808-0.061l-3.773-3.31l-2.941-5.171l0.402-4.993
	l-2.217-2.979l0.889-5.041l-1.316-0.366V87.056c0,0-3.712-2.811-3.926-2.811c-0.215,0-1.969-0.476-1.969-0.476l-0.367-2.076
	l-4.828-6.037l0.475-2.17l0.165-3.56l3.333-2.337l-0.474-3.974l-4.876-0.367l-3.819-4.354l-2.704-0.735l-1.756-0.319l0.213-1.59
	l-2.229-0.32v0.901l-5.564-1.388l-2.242-3.429l0.901-1.661l-3.522-5.146l-0.605-3.761H6.607l0.473,3.665l2.444,3.76l-0.273,1.495
	l-2.063-0.319l-2.551-4.343V40.65l-1.056-0.51C1.268,46.57,0,53.497,0,60.722c0,33.534,27.187,60.722,60.721,60.722
	c19.169,0,36.263-8.885,47.401-22.763V96.71l-2.444-3.284v-5.103l-1.851-1.849l-0.165-2.123l2.359-4.508l-4.483-7.9l0.546-5.361
	l-4.033-0.415l-1.494-1.495h-2.705l-1.376,1.281h-4.767l-0.167,0.414h-2.657l-6.099-6.938l0.06-5.422l1.009-0.368l0.368-2.063
	h-1.424l-0.594-2.171l7.059-5.101v-3.605l3.451-1.91l1.4,0.131h2.848l2.217-1.187l7.166-0.558v3.666l5.646,1.424l1.116,0.794
	l1.031,0.011v-1.992l3.262-0.32l3.108,2.302h2.325c-0.557-1.804-1.188-3.583-1.898-5.313h-0.047l-1.674-1.839l-0.272-2.54
	l-0.167-0.332l-1.588,0.865l-0.914,3.596l-2.467-2.621l-0.095-2.479l-2.386-2.053l-0.889-0.879h-2.764l0.877,2.469l3.334,1.851
	l0.569,0.605l-0.712,0.368l0.024,1.944l-1.614,0.676l-1.376-0.296l-0.866-1.234l2.242,0.131l0.605-0.818l-4.982-3.369l-0.379-1.423
	l-2.017,1.826l-2.063-0.426l-3.121,4.067l-0.605,1.59l-2.004,0.179l-2.953,0.011l-1.768-0.818l-0.521-3.51l0.641-1.674l2.999-0.664
	l3.287,0.664l0.392-1.826l-1.389-0.322l0.475-2.834l3.297-0.51l2.314-3.262l2.385-0.404l2.158,0.321h0.783l-0.427-3.062
	l-2.622,1.056l-0.912-2.288l-1.52-0.213l-0.297-1.567l1.246-1.352l1.328-0.521C89.83,5.599,75.93,0,60.721,0L60.721,0z
	 M29.963,8.362c-0.771,0.452-1.531,0.925-2.277,1.411l0.188,0.108l2.706,0.579l0.213,1.069l4.294,0.153l-0.581-1.377l-3.82-0.105
	l0.89-0.831l-0.308-1.008H29.963z M24.814,11.755l-0.106,0.083l-0.095,0.404h-0.439c-0.32,0.235-0.641,0.486-0.961,0.723v0.665
	h3.145l0.651-0.878v-0.997H24.814z M107.824,22.407c-0.52-0.64-1.054-1.27-1.6-1.886l-1.852,0.948l0.273,0.913L107.824,22.407z
	 M25.443,15.455c0,0,1.389-0.236,1.518-0.236c0.119,0,0,1.389,0,1.389l-3.143,0.201l-0.605-0.711L25.443,15.455z M29.108,22.775
	l1.673-0.795l1.506,0.356l-0.521,2.027l-1.625,0.522L29.108,22.775z M37.97,27.543v1.317h-3.82l-1.423-0.404l0.356-0.913l1.838-0.76
	l2.503,0.014v0.746H37.97z M39.725,29.382v1.269l-0.948,0.618l-1.187,0.213c0,0,0-1.897,0-2.1H39.725z M38.658,28.86v-1.519
	l1.304,1.199L38.658,28.86z M39.25,31.921v1.233l-0.913,0.925h-2.028l0.32-1.399l0.961-0.082l0.189-0.476L39.25,31.921z
	 M34.198,29.382h2.11l-2.705,3.772l-1.113-0.593l0.236-1.589L34.198,29.382z M42.832,31.481v1.245h-2.027l-0.559-0.806v-1.152h0.167
	L42.832,31.481z M40.959,29.786l0.581-0.605l0.972,0.605l-0.781,0.64L40.959,29.786z" class="color c1"/>
</svg>