<svg version="1.1" id="图层_1" x="0px" y="0px" width="66.975px" height="27.512px" viewBox="0 0 66.975 27.512" enable-background="new 0 0 66.975 27.512" xml:space="preserve" xmlns="http://www.w3.org/2000/svg" xmlns:xlink="http://www.w3.org/1999/xlink" xmlns:xml="http://www.w3.org/XML/1998/namespace">
  <g>
    <path fill="#451C00" d="M61.726,2.066c-1.415-4.07-5.911-1.13-8.959,0.394c-5.132,2.57-9.784,4.771-15.526,5.327
		c-1.041-0.824-2.34-1.32-3.755-1.32c-1.411,0-2.71,0.496-3.754,1.32C23.993,7.231,19.34,5.03,14.206,2.459
		C11.16,0.936,6.665-2.004,5.248,2.066c-1.07,3.079,0.629,6.583-0.537,9.831c-1.419,3.953-5.381,8.315-4.613,12.67
		c1.132,6.418,11.91,0.584,15.573-1.028c4.531-1.996,9.153-3.824,13.811-5.594l0.038-0.125c1.074,0.93,2.458,1.489,3.966,1.489
		c1.512,0,2.896-0.56,3.97-1.489l0.036,0.125c4.659,1.77,9.279,3.598,13.812,5.594c3.663,1.612,14.439,7.446,15.574,1.028
		c0.768-4.354-3.196-8.717-4.614-12.67C61.1,8.649,62.797,5.145,61.726,2.066z" class="color c1"/>
    <path opacity="0.27" fill="#0C0C0C" d="M66.877,24.567c0.376-2.138-0.387-4.276-1.429-6.368c0.185,2.717,0.396,6.463-2.026,7.495
		c-2.389,1.021-6.702-1.675-9.04-2.41c-4.184-1.314-9.424-2.839-13.169-5.138c-1.971-1.21-2.681-2.837-5.043-2.396
		c-3.242,0.607-3.168,1.574-6.425-0.205c-3.107-1.698-4.326-0.641-7.202,1.183c-2.532,1.607-5.313,2.483-7.966,3.85
		c-4.869,2.508-12.286,6.418-14.524,1.981c-0.079,0.669-0.073,1.339,0.045,2.008c1.132,6.418,11.91,0.584,15.573-1.028
		c4.531-1.996,9.153-3.824,13.811-5.594l0.038-0.125c1.074,0.93,2.458,1.489,3.966,1.489c1.512,0,2.896-0.56,3.97-1.489l0.036,0.125
		c4.659,1.77,9.279,3.598,13.812,5.594C54.966,25.151,65.742,30.985,66.877,24.567z" class="color c2"/>
    <path opacity="0.09" fill="#FFFFFF" d="M18.431,17.557c3.052-1.328,15.849-5.665,7.061-9.534
		c-3.682-1.621-7.351-3.239-11.014-4.914c-1.557-0.71-4.85-2.343-6.52-1.086C6.269,3.296,7.353,6.008,7.565,7.715
		c0.338,2.702,0.16,4.797-1.31,7.146c-0.78,1.25-3.465,3.412-2.939,5.115C4.755,24.647,16.135,18.557,18.431,17.557z" class="color c3"/>
    <path opacity="0.09" fill="#FFFFFF" d="M36.633,10.848c-1.95-7.232-10.365,0.799-6.377,4.067
		C33.061,17.216,37.56,14.279,36.633,10.848z" class="color c3"/>
    <path opacity="0.09" fill="#FFFFFF" d="M59.171,23.268c-5.37,0.23-12.685-5.687-17.27-8.109c-3.467-1.832-3.995-5.229-0.379-6.877
		c4.253-1.939,8.783-3.296,13.06-5.34c5.206-2.486,6.745,1.289,3.692,5.562c-1.777,2.487-4.415,3.997-7.156,5.2
		c3.49,0.328,7.673,0.926,10.008,3.876C63.078,20.047,62.69,23.117,59.171,23.268z" class="color c3"/>
    <path opacity="0.09" fill="#FFFFFF" d="M17.049,10.757c2.449,0.004,7.024,0.724,9.079-0.403c-1.285-2.357-4.758-3.296-6.995-4.588
		c-2.232-1.288-5.475-3.396-8.182-2.443C8.819,4.072,8.402,6.414,9.547,8.219C11.073,10.629,14.527,10.754,17.049,10.757z" class="color c3"/>
    <path opacity="0.09" fill="#FFFFFF" d="M48.027,11.378c-1.342,0.223-6.175,1.347-6.908-0.266c-0.814-1.787,7.808-4.243,9.218-4.995
		c1.496-0.798,5.681-4.144,7.368-2.406C61.92,8.044,49.746,11.091,48.027,11.378z" class="color c3"/>
    <path opacity="0.09" fill="#FFFFFF" d="M18.201,16.724c1.84-0.898,4.7-2.418,5.418-4.286c-4.156-1.075-12.571,1.036-14.698,5.126
		C7.063,21.136,16.787,17.416,18.201,16.724z" class="color c3"/>
    <path opacity="0.09" fill="#FFFFFF" d="M55.782,16.722c-2.658-1.107-5.516-2.151-8.286-2.939c-1.268-0.36-4.701-1.559-3.203,0.967
		c1.606,2.71,7.354,5.106,10.312,6.098C59.976,22.649,60.3,18.601,55.782,16.722z" class="color c3"/>
    <path opacity="0.09" fill="#FFFFFF" d="M31.989,12.153c2.963-0.484,2.957-4.682-0.243-2.804
		C30.271,10.215,29.526,12.552,31.989,12.153z" class="color c3"/>
  </g>
</svg>