<svg version="1.1" id="图层_1" x="0px" y="0px" width="200px" height="200px" viewBox="0 0 200 200" enable-background="new 0 0 200 200" xml:space="preserve" xmlns:xml="http://www.w3.org/XML/1998/namespace" xmlns="http://www.w3.org/2000/svg" xmlns:xlink="http://www.w3.org/1999/xlink">
  <g opacity="0.7">
    <path fill="#73A80E" d="M99.999,97.739c-20.174,0-36.589-16.413-36.589-36.587c0-19.821,34.439-58.74,35.906-60.385L99.999,0
		l0.683,0.767c1.465,1.646,35.905,40.564,35.905,60.385C136.585,81.327,120.173,97.739,99.999,97.739z" class="color c1"/>
  </g>
  <g opacity="0.7">
    <path fill="#73A80E" d="M99.999,200l-0.683-0.768c-1.467-1.646-35.906-40.563-35.906-60.387c0-20.178,16.415-36.59,36.589-36.59
		c20.176,0,36.588,16.412,36.588,36.59c0,19.821-34.44,58.738-35.905,60.387L99.999,200z" class="color c1"/>
  </g>
  <g opacity="0.7">
    <path fill="#73A80E" d="M138.846,136.588c-20.179,0-36.591-16.412-36.591-36.588c0-20.177,16.412-36.589,36.591-36.589
		c19.819,0,58.737,34.442,60.385,35.907l0.77,0.683l-0.77,0.683C197.583,102.146,158.667,136.588,138.846,136.588z" class="color c1"/>
  </g>
  <g opacity="0.7">
    <path fill="#73A80E" d="M61.149,136.588c-19.822,0-58.738-34.441-60.384-35.906L0,100l0.766-0.683
		C2.412,97.853,41.328,63.41,61.15,63.41c20.176,0,36.588,16.413,36.588,36.589C97.738,120.176,81.325,136.588,61.149,136.588z" class="color c1"/>
  </g>
</svg>