<svg version="1.1" id="图层_1" x="0px" y="0px" width="75.709px" height="21.696px" viewBox="0 0 75.709 21.696" enable-background="new 0 0 75.709 21.696" xml:space="preserve" xmlns="http://www.w3.org/2000/svg" xmlns:xlink="http://www.w3.org/1999/xlink" xmlns:xml="http://www.w3.org/XML/1998/namespace">
  <path fill="#003C59" d="M73.968,6.343c-3.644-3.401-7.29,0.488-7.29,0.488c5.711-1.701,7.411,6.438,1.215,7.288
	c-6.192,0.851-6.681-3.766-13.726-10.083c-7.045-6.317-9.839-3.402-12.51-2.188c-0.726,0.329-1.474,0.531-2.186,0.654
	c-0.817,0.086-3.239,0.227-5.418-0.765c-2.672-1.214-5.467-4.13-12.512,2.187c-7.046,6.317-7.531,10.933-13.727,10.082
	c-6.196-0.85-4.494-8.988,1.216-7.289c0,0-3.646-3.886-7.289-0.486C-1.905,9.634-0.08,19.474,9.636,21.173
	c9.337,1.634,20.912-1.667,28.161-8.82c7.243,7.231,18.892,10.574,28.274,8.933C75.79,19.584,77.614,9.744,73.968,6.343z" class="color c1"/>
</svg>