<svg version="1.1" id="图层_1" x="0px" y="0px" width="113.449px" height="119.999px" viewBox="0 0 113.449 119.999" enable-background="new 0 0 113.449 119.999" xml:space="preserve" xmlns="http://www.w3.org/2000/svg" xmlns:xlink="http://www.w3.org/1999/xlink" xmlns:xml="http://www.w3.org/XML/1998/namespace">
  <g>
    <path fill="#FFFFFF" d="M68.597,27.216c-3.559-2.424-7.479-4.359-11.682-5.659l-0.322,4.316c3.271,1.101,6.354,2.606,9.186,4.472
		L68.597,27.216z" class="color c1"/>
    <path fill="#FFFFFF" d="M56.08,32.713c2.33,0.336,4.462,0.784,6.406,1.286l3.209-3.56c-2.697-0.812-5.801-1.532-9.292-2.018
		L56.08,32.713z" class="color c1"/>
    <path fill="#FFFFFF" d="M13.201,88.673c-5.617-6.852-9.016-15.586-9.016-25.12c0-5.052,0.986-9.87,2.71-14.32
		c1.245,16.053,6.274,27.592,12.099,35.75l-5.297,5.873c0,0-9.69,12.402-8.966,13.056c0.827,0.745,12.028-10.205,12.028-10.205
		l4.841-5.364c5.14,6.166,10.542,9.994,14.33,12.158c-1.704,0.672-2.867,1.047-3.265,1.166c-5.151-1.529-9.868-4.073-13.918-7.399
		l-2.781,3.085c7.281,6.026,16.521,9.771,26.619,10.084l0.312-4.168c-0.833-0.027-1.664-0.053-2.484-0.127
		c0.164-0.072,0.337-0.156,0.507-0.231c0.006,0.002,0.033,0.01,0.036,0.012l0.012-0.034c1.214-0.559,2.572-1.234,3.991-1.98
		l-0.251,3.279c0,0-0.09,15.736,0.881,15.813c1.107,0.084,3.286-15.43,3.286-15.43l0.473-6.13c0.968-0.586,1.958-1.206,2.967-1.875
		h0.006l0.002-0.007c10.895-7.209,23.825-19.389,30.899-38.942c0.276,1.829,0.458,3.688,0.475,5.588
		c-7.353,19.871-23.12,31.217-32.648,36.512l-0.544,7.243c2.396-0.359,4.719-0.94,6.973-1.671c4.037,2.617,8.923,4.363,14.043,4.363
		c3.297,0,6.684-0.717,9.99-2.367c11.465-5.73,25.094-9.504,28.979-5.626l2.959-2.96c-7.656-7.656-29.506,2.69-33.809,4.842
		c-6.26,3.135-12.408,2.04-17.137-0.23c14.977-7.002,25.397-22.16,25.397-39.757c0-12.271-5.06-23.377-13.198-31.355l-4.121,4.571
		c2.475,1.082,4.092,2.041,4.754,2.459c2.5,3.219,4.506,6.827,5.932,10.724c-0.188,0.692-0.396,1.358-0.6,2.035
		c-3.25-2.667-9.114-6.732-17.432-9.777l16.963-18.793c1.912,0.641,4.102,0.142,5.537-1.451c1.934-2.142,1.766-5.452-0.381-7.387
		c-2.143-1.938-5.449-1.767-7.387,0.379c-1.438,1.595-1.708,3.821-0.882,5.659L58.873,40.801c-1.59-0.458-3.257-0.869-4.993-1.227
		l2.267-29.409c1.906-0.661,3.336-2.394,3.5-4.534c0.223-2.879-1.938-5.393-4.819-5.616c-2.875-0.225-5.391,1.933-5.617,4.814
		c-0.161,2.137,0.984,4.067,2.763,5.015l-2.233,29.012c-8.068-1.158-17.487-1.089-28.278,1.331
		c-0.013-1.163,0.004-2.362,0.033-3.577c10.152-3.566,19.142-4.685,26.743-4.531l0.32-4.273c-7.677-0.161-16.684,0.917-26.864,4.301
		c0.034-0.517,0.059-1.027,0.1-1.553c6.34-4.271,13.962-6.767,22.158-6.767c1.658,0,3.284,0.13,4.889,0.327l0.312-4.175
		c-1.708-0.204-3.437-0.337-5.201-0.337C19.717,19.603,0,39.317,0,63.553c0,10.771,3.922,20.612,10.378,28.252L13.201,88.673z
		 M58.121,100.618c-0.043-0.035-0.092-0.069-0.135-0.103c7.262-4.663,16.119-11.93,22.998-22.581
		C76.917,88.362,68.574,96.608,58.121,100.618z M43.153,65.85c2.325,0.536,4.562,1.154,6.691,1.822
		c-2.468,9.96-7.359,15.825-9.538,18.032c-0.634-0.5-1.271-1.021-1.913-1.594C39.103,81.512,40.963,74.576,43.153,65.85z
		 M34.98,80.699c-1.496-1.661-2.963-3.544-4.347-5.681c0.017-1.314,0.217-5.928,2.143-10.84c2.132,0.193,4.228,0.475,6.27,0.835
		C37.366,71.709,35.884,77.323,34.98,80.699z M53.827,69.014c1.862,0.673,3.614,1.366,5.231,2.052
		c-1.756,8.517-8.808,16.576-11.38,19.287c-1.189-0.58-2.507-1.301-3.908-2.193C46.464,85.313,51.263,79.11,53.827,69.014z
		 M52.274,91.538c3.323-3.762,8.767-10.858,10.685-18.72c2.372,1.126,4.313,2.151,5.703,2.931
		C63.5,82.515,57.698,87.673,52.274,91.538z M71.126,72.317c-6.469-3.716-25.661-13.479-47.134-12.532
		c-0.477-1.758-0.896-3.609-1.25-5.556c27.411-2.491,46.163,8.371,51.913,12.279C73.542,68.554,72.361,70.489,71.126,72.317z
		 M28.408,63.931c-0.567,1.648-0.975,3.238-1.264,4.688c-0.672-1.475-1.296-3.039-1.875-4.693
		C26.322,63.899,27.368,63.902,28.408,63.931z M79.247,56.306c-0.815,2.241-1.712,4.375-2.677,6.417
		c-6.741-4.55-26.052-15.312-54.455-12.64c-0.224-1.805-0.4-3.679-0.511-5.638C53.925,36.917,74.023,51.753,79.247,56.306z
		 M17.385,34.049C15.54,75.347,37.368,90.147,47.418,94.741c-2.395,1.455-4.623,2.644-6.601,3.604
		c-6.204-2.811-29.949-16.242-30.029-56.681C12.653,38.846,14.882,36.304,17.385,34.049z" class="color c1"/>
  </g>
</svg>