<svg version="1.1" id="图层_1" x="0px" y="0px" width="185.643px" height="191.733px" viewBox="0 0 185.643 191.733" enable-background="new 0 0 185.643 191.733" xml:space="preserve" xmlns="http://www.w3.org/2000/svg" xmlns:xlink="http://www.w3.org/1999/xlink" xmlns:xml="http://www.w3.org/XML/1998/namespace">
  <path fill="#FFFFFF" d="M158.353,177.738c0.277-3.049,0.469-5.506,0.469-6.583c0-6.148-32.25-141.417-32.25-141.417H56.474
	c0,0-32.25,135.269-32.25,141.417c0,1.077,0.191,3.534,0.469,6.583h69.032H158.353z" class="color c1"/>
  <path fill-rule="evenodd" clip-rule="evenodd" fill="#FD6FB3" d="M95.5,99.542c-1.195,0.076-1.795,0.758-2.76,0.758
	s-1.527-0.682-2.723-0.758c-3.076-0.201-8.551,2.889-8.27,3.836c1.723,5.775,7.391,8.126,11.285,8.054
	c4.594-0.085,9.018-2.806,10.863-8.056C104.15,102.655,98.721,99.333,95.5,99.542z" class="color c2"/>
  <path fill-rule="evenodd" clip-rule="evenodd" fill="#69417D" d="M173.963,144.44c3.575-5.51,2.695-15.598-3.979-22.091
	c-6.677-6.493-2.524-16.772-6.154-23.131c-2.855-5.005-8.517-6.215-13.617-10.288c-0.712-1.243-1.19-2.56-1.31-3.986
	c-0.706-8.448,9.618-13.608,7.74-17.363c-1.876-3.755,0.941-4.929,0-9.621c-0.938-4.693-11.262-4.537-24.714-33.32
	C118.476-4.143,92.821,0.239,92.821,0.239S67.168-4.143,53.714,24.641C40.262,53.423,29.938,53.267,28.999,57.96
	c-0.938,4.692,1.876,5.866,0,9.621c-1.878,3.755,8.447,8.915,7.742,17.363c-0.118,1.426-0.598,2.743-1.31,3.985
	c-5.101,4.073-10.763,5.283-13.618,10.289c-3.629,6.359,0.522,16.639-6.154,23.131c-6.675,6.493-7.555,16.581-3.979,22.091
	c3.572,5.511-4.519,19.947-11.68,10.623c-0.032,14.355,15.817,7.48,15.817,7.48s-5.916,11.889-1.016,20.275
	c4.898,8.385,10.894,8.914,10.894,8.914s-8.78-7.32-5.16-11.455c1.227-1.401,3.094-2.032,5.17-2.497
	c-0.385-1.465-0.578-3.024-0.551-4.689c0.167-9.917,8.667-14.167,20.804-18.504c24.108-9.206,32.296-12.944,33.068-33.095
	c4.828,6.224,17.439,13.174,32.606,15.174c2.375,4.554,5.428,7.602,9.334,10.065c4.727,2.536,23.281,9.923,25.429,11.266
	c6.198,2.904,10.526,6.344,11.854,11.702c0.233,2.864,0.183,5.418-0.108,7.71c2.776,0.534,5.393,1.071,6.967,2.868
	c3.62,4.135-5.16,11.455-5.16,11.455s5.995-0.529,10.894-8.914c4.9-8.387-1.016-20.275-1.016-20.275s15.85,6.875,15.817-7.48
	C178.481,164.387,170.391,149.951,173.963,144.44z M128.465,75.046c-0.105,3.242-0.113,1.985-0.481,4.992
	c-0.497,4.064-1.46,8.386-3.497,14.244c-7.108,16.871-18.991,30.021-31.51,30.021c-8.642,0-16.977-6.27-23.648-15.699
	c-3.357-4.217-6.136-9.318-8.153-15.051c-3.099-7.55-5.247-15.807-6.069-23.947c0.216-14.931,20.716-8.431,25.688-30.791
	c0,0,0.236,16.761,15.937,17.623C123.821,57.924,128.715,67.421,128.465,75.046z" class="color c3"/>
  <path fill="#FFFFFF" d="M56.206,102.83c7.634-4.405-1.482-9.671-1.483-0.857c0.001-8.814-9.117-3.552-1.485,0.856
	c-7.632-4.409-7.634,6.119-0.001,1.714c-6.928,3.998,0.134,8.555,1.463,2.799l0.077,0.188c1.332,5.742,8.353,1.014,1.429-2.986
	C63.838,108.953,63.84,98.425,56.206,102.83z" class="color c1"/>
  <path fill="#FFFFFF" d="M132.406,102.83c7.633-4.405-1.482-9.671-1.484-0.857c0.002-8.814-9.116-3.552-1.484,0.856
	c-7.632-4.409-7.635,6.119-0.001,1.714c-6.929,3.998,0.134,8.555,1.462,2.799l0.078,0.188c1.332,5.742,8.353,1.014,1.429-2.986
	C140.037,108.953,140.039,98.425,132.406,102.83z" class="color c1"/>
</svg>