<svg version="1.1" id="图层_1" x="0px" y="0px" width="15.9px" height="327px" viewBox="0 0 15.9 327" enable-background="new 0 0 15.9 327" xml:space="preserve" xmlns:xml="http://www.w3.org/XML/1998/namespace" xmlns="http://www.w3.org/2000/svg" xmlns:xlink="http://www.w3.org/1999/xlink">
  <path fill="#474747" d="M9.1,326.6l1.698-80c-2,0.102-4,0.102-6,0L6.4,327L9.1,326.6z" class="color c1"/>
  <path fill="#474747" d="M7.6,0C3.3,0.2-0.1,3.8,0,8.2l1.5,72.4c4.3-0.4,8.601-0.3,12.9,0L16,8.1C16,3.5,12.2-0.2,7.6,0z" class="color c1"/>
  <path fill="#FFFFFF" d="M10.2,9.7c0.1-1.5-1.1-2.8-2.6-2.9c-1.7-0.1-3,1.2-3,2.9l1.8,54.8c0,0.4,0.398,0.8,0.8,0.8S8,65,8,64.5
	L10.2,9.7z" class="color c2"/>
</svg>