<svg version="1.1" id="图层_1" x="0px" y="0px" width="200px" height="116.844px" viewBox="0 0 200 116.844" enable-background="new 0 0 200 116.844" xml:space="preserve" xmlns="http://www.w3.org/2000/svg" xmlns:xlink="http://www.w3.org/1999/xlink" xmlns:xml="http://www.w3.org/XML/1998/namespace">
  <path fill="#413F4A" d="M183.762,79.187c0-0.676,0.672-1.353,1.346-1.353h2.713c0.672,0,1.352,0.677,1.352,1.353v5.078
	c0,3.044,2.365,5.753,5.411,5.753c3.044,0,5.417-2.368,5.417-5.417V33.163c0-3.044-2.373-5.75-5.417-5.75
	c-3.046,0-5.411,2.369-5.411,5.414v7.106c0,0.676-0.68,1.353-1.352,1.353h-5.758c-0.34,0-1.014-0.339-1.014-0.676
	c-6.763-16.245-24.027-26.733-42.639-24.028V3.721c0-2.028-1.691-3.721-3.725-3.721c-2.025,0-3.725,1.692-3.725,3.721v13.877
	L38.58,33.503c-1.015,0-1.691,0-2.368-0.676L12.523,9.139c-0.339-0.339-1.015-0.68-2.032-0.68H2.708C1.356,8.458,0,9.815,0,11.167
	v78.511c0,1.017,0.679,2.029,1.692,2.369c0.34,0,0.681,0.34,0.681,1.016v14.214c0,2.028,1.352,3.385,3.38,3.722
	c2.032,0,3.726-1.353,3.726-3.386V93.74c0-0.677,0.676-1.353,1.353-1.353c0.676,0,1.691-0.34,2.029-1.016l23.011-27.414l0.34-0.336
	c5.753-2.709,51.777-7.783,51.777-7.783c1.013-0.339,2.029-0.339,3.046-0.339c26.732-2.706,47.036,23.012,41.285,48.731l-2.1,12.613
	h53.541V79.187z" class="color c1"/>
</svg>