<svg version="1.1" id="图层_1" x="0px" y="0px" width="160.043px" height="160px" viewBox="0 0 160.043 160" enable-background="new 0 0 160.043 160" xml:space="preserve" xmlns="http://www.w3.org/2000/svg" xmlns:xlink="http://www.w3.org/1999/xlink" xmlns:xml="http://www.w3.org/XML/1998/namespace">
  <g>
    <polygon fill="#EE1B24" points="90.613,49.662 102.941,19.883 85.338,19.883 	" class="color c1"/>
    <polygon fill="#EE1B24" points="78.439,19.883 72.057,55.943 80.033,75.214 88.006,55.966 81.611,19.883 	" class="color c1"/>
    <polygon fill="#EE1B24" points="85.35,140.118 102.957,140.118 90.637,110.361 	" class="color c1"/>
    <polygon fill="#EE1B24" points="124.412,34.269 125.76,35.616 128.887,31.141 	" class="color c1"/>
    <polygon fill="#EE1B24" points="102.668,68.667 123.662,38.621 121.41,36.368 91.404,57.348 83.41,76.646 83.771,76.496 
		83.771,76.497 	" class="color c1"/>
    <polygon fill="#EE1B24" points="19.902,74.67 49.67,69.414 19.902,57.072 	" class="color c1"/>
    <polygon fill="#EE1B24" points="74.713,19.883 57.125,19.883 69.445,49.641 	" class="color c1"/>
    <polygon fill="#EE1B24" points="19.902,78.396 19.902,81.591 55.975,88.005 75.25,80.027 55.967,72.027 	" class="color c1"/>
    <polygon fill="#EE1B24" points="68.66,102.652 76.639,83.398 57.334,91.391 36.375,121.373 38.631,123.628 	" class="color c1"/>
    <polygon fill="#EE1B24" points="21.313,53.689 51.053,66.021 33.754,41.25 	" class="color c1"/>
    <polygon fill="#EE1B24" points="69.422,110.396 57.117,140.118 74.701,140.118 	" class="color c1"/>
    <polygon fill="#EE1B24" points="38.639,36.365 36.387,38.615 57.355,68.632 76.646,76.631 68.67,57.354 	" class="color c1"/>
    <polygon fill="#EE1B24" points="143.748,80.943 149.15,79.981 143.748,79.026 	" class="color c1"/>
    <polygon fill="#EE1B24" points="66.057,108.943 41.26,126.257 53.723,138.723 	" class="color c1"/>
    <polygon fill="#EE1B24" points="140.141,85.311 110.377,90.6 140.141,102.941 	" class="color c1"/>
    <polygon fill="#EE1B24" points="138.732,106.309 109.029,93.992 126.314,118.729 	" class="color c1"/>
    <polygon fill="#EE1B24" points="49.668,90.607 19.902,85.314 19.902,102.932 	" class="color c1"/>
    <polygon fill="#EE1B24" points="160.043,111.195 160.043,81.773 143.748,84.67 143.748,104.438 	" class="color c1"/>
    <polygon fill="#EE1B24" points="38.256,128.355 24.691,137.826 45.484,158.609 52.227,142.329 	" class="color c1"/>
    <polygon fill="#EE1B24" points="83.771,83.555 83.434,83.414 83.771,84.23 83.771,84.438 83.875,84.479 91.404,102.667 
		121.41,123.633 123.666,121.376 102.717,91.412 84.498,83.855 83.771,82.104 	" class="color c1"/>
    <polygon fill="#EE1B24" points="140.141,57.126 110.438,69.424 140.141,74.673 	" class="color c1"/>
    <polygon fill="#EE1B24" points="35.627,125.727 34.277,124.377 31.143,128.857 	" class="color c1"/>
    <polygon fill="#EE1B24" points="94.01,51.03 118.764,33.724 106.326,21.284 	" class="color c1"/>
    <polygon fill="#EE1B24" points="22.189,24.691 1.434,45.447 17.707,52.194 31.654,38.245 	" class="color c1"/>
    <polygon fill="#EE1B24" points="51.037,93.993 21.309,106.307 33.742,118.739 	" class="color c1"/>
    <polygon fill="#EE1B24" points="75.354,16.274 78.234,0 48.893,0 55.631,16.274 	" class="color c1"/>
    <polygon fill="#EE1B24" points="16.295,79.034 10.893,79.988 16.295,80.949 	" class="color c1"/>
    <polygon fill="#EE1B24" points="81.625,140.118 88.025,104.086 80.033,84.78 72.033,104.116 78.426,140.118 	" class="color c1"/>
    <polygon fill="#EE1B24" points="17.699,107.801 1.398,114.553 22.158,135.307 31.641,121.742 	" class="color c1"/>
    <polygon fill="#EE1B24" points="24.725,22.151 38.273,31.626 52.234,17.665 45.492,1.381 	" class="color c1"/>
    <polygon fill="#EE1B24" points="16.295,104.425 16.295,84.673 0,81.773 0,111.173 	" class="color c1"/>
    <polygon fill="#EE1B24" points="143.748,55.633 143.748,75.311 160.043,78.19 160.043,48.887 	" class="color c1"/>
    <polygon fill="#EE1B24" points="158.619,114.553 142.34,107.805 128.414,121.73 137.885,135.285 	" class="color c1"/>
    <polygon fill="#EE1B24" points="107.832,142.313 114.572,158.589 135.35,137.811 121.799,128.346 	" class="color c1"/>
    <polygon fill="#EE1B24" points="75.344,143.727 55.623,143.727 48.885,160 78.234,160 	" class="color c1"/>
    <polygon fill="#EE1B24" points="80.986,143.727 79.066,143.727 80.025,149.133 	" class="color c1"/>
    <polygon fill="#EE1B24" points="0,48.819 0,78.183 16.295,75.306 16.295,55.576 	" class="color c1"/>
    <polygon fill="#EE1B24" points="41.277,33.726 66.057,51.053 53.729,21.273 	" class="color c1"/>
    <polygon fill="#EE1B24" points="108.971,66.063 138.764,53.723 126.295,41.255 	" class="color c1"/>
    <polygon fill="#EE1B24" points="35.635,34.266 31.166,31.143 34.289,35.612 	" class="color c1"/>
    <polygon fill="#EE1B24" points="118.793,126.247 94.018,108.943 106.338,138.703 	" class="color c1"/>
    <polygon fill="#EE1B24" points="79.078,16.274 80.975,16.274 80.025,10.92 	" class="color c1"/>
    <polygon fill="#EE1B24" points="104.078,87.997 140.141,81.584 140.141,78.389 104.137,72.027 84.83,80.019 	" class="color c1"/>
    <polygon fill="#EE1B24" points="84.701,16.274 104.436,16.274 111.174,0 81.816,0 	" class="color c1"/>
    <polygon fill="#EE1B24" points="121.768,31.625 135.328,22.145 114.566,1.381 107.82,17.675 	" class="color c1"/>
    <polygon fill="#EE1B24" points="104.451,143.727 84.707,143.727 81.818,159.993 111.186,159.993 	" class="color c1"/>
    <polygon fill="#EE1B24" points="128.395,38.25 142.371,52.229 158.652,45.485 137.861,24.691 	" class="color c1"/>
    <polygon fill="#EE1B24" points="125.766,124.379 124.412,125.73 128.908,128.873 	" class="color c1"/>
  </g>
</svg>