<svg version="1.1" id="图层_1" x="0px" y="0px" width="63.664px" height="122.281px" viewBox="0 0 63.664 122.281" enable-background="new 0 0 63.664 122.281" xml:space="preserve" xmlns="http://www.w3.org/2000/svg" xmlns:xlink="http://www.w3.org/1999/xlink" xmlns:xml="http://www.w3.org/XML/1998/namespace">
  <path fill="#FFFFFF" d="M63.614,22.672c-0.018-0.108-0.025-0.216-0.055-0.328c-0.002-0.008-0.002-0.016-0.006-0.022
	c-0.383-1.398-1.691-2.297-3.084-2.214l-0.008-0.006l-4.215,0.068l-0.221-2.968V5.332c-0.008-1.431-1.166-2.586-2.596-2.595H22.428
	H21.68h-2.209c-2.295-3.672-3.809-3.628-4.123,0h-2.113h-0.373H10.26c-1.43,0.009-2.588,1.164-2.594,2.595v11.87v2.933H2.631
	l-0.393,0.072c-1.262,0.335-2.1,1.43-2.189,2.659L0.04,22.87v0.249c0.002,0.056-0.004,0.11,0,0.165v7.517
	c-0.01,0.148-0.014,0.299,0,0.451v7.321c-0.021,0.21-0.021,0.421,0,0.624v7.082c-0.051,0.321-0.055,0.642,0,0.947v7.097
	c-0.021,0.209-0.021,0.418,0,0.623v15.145c-0.016,0.161-0.01,0.32,0,0.478v7.383c-0.021,0.211-0.021,0.42,0,0.623v7.592
	c0.002,0.057-0.004,0.113,0,0.168v7.714c0.002,0.057-0.004,0.109,0,0.166v7.717c0.002,0.055-0.004,0.109,0,0.166v0.012l0.002,0.002
	c0.014,0.182,0.039,0.365,0.088,0.547c0.002,0.008,0.004,0.016,0.008,0.025c0.295,1.072,1.141,1.84,2.145,2.107l-0.012,0.008h0.049
	c0.457,0.113,0.941,0.129,1.43,0.012l3.918,0.037v2.967v0.764v11.109c0.006,1.428,1.164,2.584,2.594,2.594h43.17
	c1.43-0.01,2.588-1.166,2.596-2.594v-10.926V107.8v-3.002h5.031h0.396c1.354-0.363,2.232-1.605,2.197-2.947h0.006V86.232
	c0.008-0.135,0.012-0.271,0-0.408V62.698c0.002-0.04-0.002-0.078,0-0.117v-7.704c0.004-0.055-0.002-0.11,0-0.169V30.893l0.004-8.182
	L63.614,22.672z" class="color c1"/>
</svg>