<svg version="1.1" id="图层_1" x="0px" y="0px" width="155.24px" height="176.994px" viewBox="-276.094 -107.201 155.24 176.994" enable-background="new -276.094 -107.201 155.24 176.994" xml:space="preserve" xmlns="http://www.w3.org/2000/svg" xmlns:xlink="http://www.w3.org/1999/xlink" xmlns:xml="http://www.w3.org/XML/1998/namespace">
  <g>
    <path fill="#492B0B" d="M-128.871,18.929c1.509,1.499,2.833,2.625,3.91,3.539c5.619,4.775,5.811,4.94-1.532,17.042
		c-0.336,0.555-0.686,1.209-1.04,1.873c-2.059,3.861-4.258,7.984-9.473,5.615c-32.016-14.537-45.323,4.271-53.007,15.135
		c-3.114,4.402-5.419,7.66-8.225,7.66c-2.577,0-4.815-3.148-7.882-7.459c-7.898-11.102-22.063-31.012-53.646-15.545
		c-5.516,2.701-7.621-1.201-9.727-5.105c-0.339-0.627-0.679-1.256-1.015-1.811c-0.877-1.439-2.666-4.666-3.96-7.688
		c-0.886-2.066-1.555-4.087-1.6-5.527l-0.026-0.854l0.678-0.506c5.962-4.447,10.696-9.066,14.286-13.774
		c6.187-8.11,8.988-16.497,8.828-24.729c-0.16-8.235-3.288-16.371-8.957-23.971c-3.691-4.948-8.454-9.661-14.17-14.021l-0.665-0.507
		l0.026-0.841c0.045-1.438,0.713-3.46,1.6-5.526c1.294-3.021,3.083-6.247,3.96-7.688c0.336-0.553,0.676-1.182,1.015-1.81
		c2.101-3.894,4.199-7.783,9.681-5.127l0.001-0.004c2.258,1.025,4.534,1.742,6.791,2.175c6.427,1.23,12.735,0.163,18.092-2.66
		c5.359-2.823,9.77-7.404,12.4-13.196c0.936-2.062,1.646-4.275,2.095-6.616c0.358-1.873,0.328-3.525,0.302-4.929
		c-0.076-4.148-0.122-6.674,5.839-7.762c2.644-0.481,5.2-0.851,7.704-1.102c2.507-0.252,4.984-0.39,7.47-0.41
		c2.734-0.022,5.456,0.098,8.221,0.362c2.786,0.267,5.597,0.676,8.487,1.229c5.307,1.016,5.357,4.076,5.423,8.188
		c0.024,1.439,0.051,3.046,0.418,4.682c0.452,2.007,1.088,3.926,1.891,5.733c2.624,5.912,7.038,10.74,12.536,13.698
		c5.48,2.949,12.048,4.034,19,2.472c2.025-0.456,4.077-1.131,6.137-2.044l-0.002-0.005c5.215-2.368,7.414,1.754,9.473,5.616
		c0.354,0.663,0.704,1.318,1.04,1.874c8.155,13.438,6.517,14.458,0.616,18.135c-0.236,0.147-0.48,0.3-0.937,0.589
		c-5.04,3.204-8.899,6.838-11.754,10.722c-5.257,7.152-7.14,15.194-6.738,22.979c0.405,7.835,3.121,15.418,7.044,21.591
		c2.646,4.161,5.827,7.663,9.207,10.147l0.094,0.068L-128.871,18.929L-128.871,18.929z" class="color c1"/>
    <path fill="#B28754" d="M-127.068,24.958c-1.091-0.928-2.429-2.064-4.012-3.629c-3.674-2.722-7.108-6.501-9.941-10.958
		c-4.199-6.605-7.105-14.743-7.542-23.175c-0.438-8.483,1.619-17.257,7.363-25.071c3.092-4.207,7.243-8.123,12.636-11.552
		c0.202-0.128,0.591-0.37,0.961-0.602c3.763-2.345,4.808-2.996-1.675-13.68c-0.4-0.658-0.763-1.338-1.129-2.027
		c-1.363-2.555-2.817-5.282-5.26-4.173h-0.013c-2.278,1.011-4.533,1.756-6.748,2.253c-7.767,1.747-15.117,0.528-21.26-2.777
		c-6.126-3.297-11.043-8.674-13.965-15.256c-0.895-2.016-1.601-4.137-2.095-6.334c-0.439-1.951-0.468-3.741-0.495-5.346
		c-0.042-2.589-0.074-4.517-2.781-5.035c-2.828-0.541-5.537-0.938-8.181-1.19c-2.665-0.256-5.277-0.371-7.889-0.35
		c-2.363,0.02-4.742,0.152-7.176,0.396c-2.436,0.246-4.906,0.601-7.448,1.064c-3.229,0.589-3.203,2.071-3.158,4.506
		c0.029,1.569,0.063,3.418-0.353,5.592c-0.499,2.601-1.287,5.058-2.325,7.345c-2.937,6.469-7.866,11.585-13.856,14.741
		c-5.993,3.158-13.044,4.354-20.223,2.979c-2.507-0.48-5.027-1.273-7.519-2.404l-0.045-0.025c-2.7-1.323-4.062,1.2-5.424,3.725
		c-0.354,0.657-0.709,1.314-1.104,1.964c-0.829,1.362-2.519,4.412-3.744,7.268c-0.576,1.344-1.042,2.616-1.241,3.576
		c5.638,4.391,10.363,9.122,14.067,14.088c6.071,8.138,9.421,16.917,9.595,25.872c0.174,8.958-2.838,18.037-9.492,26.761
		c-3.622,4.749-8.321,9.39-14.168,13.841c0.2,0.959,0.665,2.226,1.238,3.563c1.225,2.855,2.915,5.906,3.744,7.267
		c0.395,0.65,0.75,1.307,1.104,1.963c1.363,2.525,2.724,5.049,5.424,3.727c34.068-16.683,49.261,4.672,57.731,16.58
		c2.5,3.512,4.325,6.078,5.227,6.078c1.134,0,3.02-2.666,5.568-6.27c8.255-11.668,22.551-31.875,57.003-16.23
		c2.443,1.109,3.897-1.619,5.26-4.172c0.367-0.691,0.729-1.369,1.129-2.029C-123.375,28.098-123.497,27.992-127.068,24.958z
		 M-134.994-50.583c-0.52,1.133-1.562,1.933-2.56,2.626c-0.255,0.177-0.512,0.35-0.77,0.521c-0.3,0.198-0.667,0.227-0.995,0.079
		c-0.724-0.339-0.804-1.332-0.14-1.778c0.488-0.325,0.98-0.653,1.443-1.014c0.445-0.349,0.931-0.776,1.17-1.3
		c0.145-0.307,0.42-0.516,0.754-0.575C-135.275-52.154-134.648-51.332-134.994-50.583z M-140.425-60.751
		c0.418-0.628,1.337-0.609,1.729,0.035c0.393,0.651,0.749,1.325,1.143,1.978c0.34,0.487,0.673,0.98,0.988,1.484
		c0.411,0.662-0.035,1.52-0.814,1.562c-0.372,0.018-0.719-0.163-0.917-0.479c-0.31-0.493-0.634-0.975-0.969-1.451l-0.018-0.029
		c-0.054-0.089-0.107-0.179-0.16-0.269c-0.341-0.578-0.657-1.17-1.003-1.744C-140.649-60.002-140.641-60.421-140.425-60.751z
		 M-261.225-56.63c0.696-1.181,1.458-2.252,2.145-3.457c0.245-0.428,0.756-0.621,1.223-0.46c0.605,0.214,0.868,0.909,0.554,1.47
		c-0.278,0.487-0.549,0.976-0.84,1.455c-0.464,0.661-0.91,1.332-1.321,2.028c-0.399,0.679-1.383,0.668-1.771-0.017
		C-261.414-55.932-261.411-56.313-261.225-56.63z M-257.488-46.975c-0.33,0.158-0.712,0.134-1.016-0.07
		c-0.342-0.229-0.685-0.457-1.026-0.688c-0.86-0.584-1.787-1.234-2.417-2.071c-0.248-0.335-0.269-0.774-0.059-1.133
		c0.377-0.626,1.258-0.67,1.697-0.087c0.346,0.449,0.83,0.825,1.286,1.156c0.542,0.39,1.103,0.754,1.657,1.126
		C-256.711-48.297-256.779-47.326-257.488-46.975z M-249.474-40.697c-0.244,0.778-1.253,0.973-1.769,0.342l-0.092-0.114
		l-0.193-0.235l-0.196-0.235l-0.199-0.233l-0.201-0.231l-0.204-0.231l-0.206-0.229l-0.208-0.228l-0.211-0.227l-0.213-0.225
		l-0.215-0.223l-0.218-0.222l-0.221-0.22l-0.085-0.084c-0.246-0.239-0.353-0.577-0.294-0.914c0.147-0.805,1.129-1.12,1.717-0.553
		l0.099,0.098l0.233,0.233l0.231,0.235l0.229,0.236l0.226,0.238l0.224,0.239l0.22,0.241l0.218,0.243l0.215,0.244l0.213,0.246
		l0.21,0.247l0.208,0.249l0.205,0.25l0.091,0.113C-249.441-41.375-249.374-41.026-249.474-40.697z M-260.33,32.508
		c-0.375-0.008-0.707-0.203-0.887-0.533c-0.202-0.369-0.398-0.743-0.59-1.118c-0.445-0.871-0.877-1.761-1.241-2.669
		c-0.285-0.725,0.306-1.488,1.081-1.391c0.368,0.05,0.678,0.288,0.817,0.634c0.208,0.523,0.445,1.037,0.688,1.544
		c0.329,0.683,0.676,1.358,1.039,2.021C-259.052,31.682-259.55,32.514-260.33,32.508z M-260.745,23.053
		c-0.073-0.377,0.063-0.755,0.363-0.996c0.42-0.339,0.84-0.676,1.254-1.022c0.612-0.512,1.21-1.037,1.794-1.581
		c0.306-0.283,0.739-0.353,1.12-0.184c0.663,0.307,0.805,1.177,0.273,1.678c-0.404,0.376-0.813,0.743-1.23,1.104
		c-0.634,0.549-1.28,1.073-1.933,1.598C-259.701,24.128-260.593,23.803-260.745,23.053z M-252.181,35.031l-0.149,0.055l-0.395,0.15
		l-0.395,0.154l-0.397,0.158l-0.399,0.162l-0.39,0.16c-0.582,0.264-1.207,0.518-1.832,0.654c-0.408,0.086-0.815-0.074-1.056-0.416
		c-0.412-0.602-0.094-1.422,0.621-1.58c0.275-0.064,0.534-0.15,0.798-0.254c0.218-0.084,0.427-0.178,0.64-0.27
		c0.143-0.066,0.296-0.125,0.442-0.186l0.414-0.168l0.412-0.164l0.41-0.158l0.41-0.156l0.149-0.055
		c0.346-0.129,0.718-0.066,1.005,0.164C-251.285,33.783-251.445,34.754-252.181,35.031z M-248.849,13.342l-0.118,0.174l-0.152,0.223
		l-0.153,0.221l-0.155,0.219l-0.156,0.217l-0.157,0.216l-0.158,0.215l-0.16,0.211l-0.161,0.21l-0.161,0.209l-0.164,0.206
		l-0.164,0.205l-0.165,0.202l-0.166,0.201l-0.167,0.199l-0.19,0.222c-0.421,0.484-1.167,0.471-1.571-0.027
		c-0.308-0.388-0.298-0.93,0.023-1.306l0.179-0.209l0.157-0.188l0.156-0.188l0.155-0.19l0.154-0.191l0.152-0.195l0.152-0.195
		l0.151-0.198l0.15-0.199l0.149-0.201l0.148-0.203l0.147-0.206l0.146-0.206l0.146-0.208l0.144-0.21l0.111-0.163
		c0.431-0.643,1.39-0.591,1.752,0.093C-248.619,12.632-248.64,13.029-248.849,13.342z M-249.456-60.238l-0.073-0.007l-0.258-0.024
		l-0.258-0.028l-0.258-0.029l-0.259-0.033l-0.259-0.034l-0.259-0.037l-0.259-0.039l-0.26-0.042l-0.26-0.043l-0.26-0.047l-0.26-0.048
		l-0.261-0.051l-0.261-0.054l-0.367-0.078c-0.157-0.071-0.313-0.142-0.474-0.203c-0.347-0.137-0.589-0.443-0.641-0.813
		c-0.103-0.775,0.656-1.37,1.384-1.091c0.125,0.049,0.249,0.101,0.372,0.155l0.143,0.029l0.244,0.05l0.243,0.048l0.243,0.046
		l0.243,0.042l0.243,0.041l0.242,0.039l0.243,0.036l0.242,0.034l0.242,0.033l0.242,0.029l0.242,0.028l0.241,0.025l0.297,0.029
		c0.363,0.032,0.675,0.249,0.833,0.576C-248.109-60.979-248.665-60.173-249.456-60.238z M-247.921-35.424
		c-0.187-0.334-0.17-0.733,0.035-1.056c0.42-0.644,1.372-0.612,1.748,0.058l0.125,0.225l0.151,0.277l0.149,0.279l0.146,0.28
		l0.144,0.28l0.141,0.282l0.139,0.282l0.137,0.284l0.134,0.285l0.132,0.285l0.13,0.287l0.127,0.287l0.125,0.288l0.06,0.143
		c0.135,0.316,0.105,0.666-0.079,0.955c-0.447,0.688-1.473,0.602-1.798-0.149l-0.06-0.143l-0.119-0.273l-0.121-0.272l-0.123-0.272
		l-0.125-0.271l-0.127-0.271l-0.129-0.269l-0.132-0.269l-0.134-0.267l-0.137-0.267l-0.138-0.265l-0.141-0.264l-0.143-0.264
		L-247.921-35.424z M-243.665-27.398c0.571-0.235,1.219,0.088,1.376,0.686l0.038,0.145l0.076,0.304l0.074,0.304l0.072,0.305
		l0.069,0.305l0.068,0.306l0.065,0.307l0.063,0.306l0.062,0.307l0.059,0.308l0.057,0.308l0.055,0.308l0.053,0.309l0.045,0.27
		c0.068,0.422-0.121,0.826-0.485,1.048c-0.618,0.365-1.409-0.001-1.529-0.708l-0.045-0.27l-0.051-0.295l-0.053-0.295l-0.054-0.293
		l-0.057-0.294l-0.059-0.294l-0.061-0.292l-0.063-0.293l-0.064-0.291l-0.067-0.292l-0.068-0.29l-0.071-0.291l-0.073-0.289
		l-0.034-0.13C-244.392-26.692-244.141-27.201-243.665-27.398z M-247.608,7.009l0.075-0.157l0.115-0.248l0.115-0.248l0.112-0.25
		l0.112-0.253l0.11-0.252l0.109-0.255l0.108-0.255l0.106-0.257l0.105-0.257l0.104-0.259l0.103-0.26l0.102-0.262l0.1-0.262
		l0.078-0.211c0.147-0.391,0.502-0.646,0.919-0.665c0.729-0.024,1.249,0.69,0.997,1.376l-0.083,0.222l-0.104,0.272l-0.106,0.272
		l-0.107,0.271l-0.109,0.271l-0.109,0.269l-0.111,0.268l-0.112,0.267l-0.115,0.266l-0.115,0.264l-0.117,0.263l-0.118,0.262
		l-0.12,0.261l-0.121,0.259l-0.075,0.158c-0.165,0.35-0.503,0.571-0.89,0.587C-247.415,8.485-247.929,7.705-247.608,7.009z
		 M-242.525,32.527l-0.125,0.018l-0.353,0.053l-0.354,0.057l-0.355,0.061l-0.357,0.063l-0.358,0.066l-0.361,0.068l-0.362,0.074
		l-0.363,0.076l-0.365,0.082l-0.367,0.084l-0.197,0.047c-0.4,0.096-0.815-0.055-1.062-0.385c-0.433-0.592-0.131-1.424,0.58-1.602
		l0.213-0.051l0.383-0.086l0.382-0.086l0.381-0.08l0.379-0.076l0.377-0.073l0.376-0.07l0.375-0.066l0.373-0.062l0.372-0.06
		l0.37-0.056l0.125-0.017c0.34-0.05,0.672,0.071,0.903,0.323C-241.367,31.438-241.716,32.406-242.525,32.527z M-241.494-6.022
		l-0.023,0.14l-0.05,0.303l-0.053,0.301l-0.054,0.301l-0.056,0.301l-0.057,0.3l-0.059,0.299l-0.061,0.299l-0.062,0.298l-0.063,0.297
		l-0.065,0.296l-0.066,0.296l-0.068,0.296l-0.085,0.358c-0.19,0.786-1.175,1.051-1.734,0.465c-0.239-0.257-0.333-0.601-0.252-0.943
		l0.082-0.347l0.066-0.284l0.064-0.284l0.063-0.286l0.062-0.286l0.059-0.285l0.058-0.288l0.057-0.288l0.055-0.288l0.053-0.289
		l0.052-0.29l0.05-0.29l0.049-0.291l0.021-0.128c0.054-0.33,0.257-0.606,0.556-0.755C-242.211-7.462-241.366-6.841-241.494-6.022z
		 M-240.799-14.191l-0.003,0.311l-0.005,0.312l-0.007,0.311l-0.009,0.311l-0.011,0.311l-0.017,0.406
		c-0.019,0.376-0.234,0.709-0.573,0.875c-0.696,0.337-1.501-0.191-1.468-0.964l0.017-0.394l0.011-0.299l0.008-0.299l0.007-0.299
		l0.005-0.299l0.003-0.3l0.001-0.299v-0.299l-0.002-0.299l-0.003-0.3l-0.005-0.3l-0.007-0.299l-0.01-0.315
		c-0.018-0.47,0.281-0.887,0.732-1.021c0.641-0.184,1.28,0.273,1.309,0.94l0.011,0.34l0.007,0.312l0.006,0.312l0.004,0.312
		l0.001,0.312l0.001,0.312L-240.799-14.191z M-238.98-61.071l-0.063,0.017l-0.239,0.058l-0.24,0.058l-0.241,0.055l-0.241,0.054
		l-0.242,0.052l-0.242,0.05l-0.243,0.048l-0.244,0.046l-0.245,0.045l-0.244,0.042l-0.245,0.04l-0.246,0.039l-0.246,0.036
		l-0.247,0.036l-0.247,0.032l-0.248,0.031l-0.184,0.021c-0.323,0.038-0.636-0.074-0.862-0.31c-0.579-0.611-0.218-1.614,0.616-1.719
		l0.184-0.021l0.231-0.028l0.232-0.031l0.23-0.033l0.23-0.034l0.229-0.036l0.23-0.037l0.229-0.04l0.228-0.042l0.228-0.043
		l0.228-0.045l0.227-0.046l0.227-0.049l0.227-0.05l0.226-0.052l0.225-0.054l0.273-0.067c0.369-0.094,0.75,0.021,1.007,0.299
		C-237.96-62.179-238.234-61.267-238.98-61.071z M-232.607,32.406l-0.177-0.021l-0.308-0.037l-0.308-0.031l-0.31-0.031l-0.312-0.025
		l-0.313-0.025l-0.315-0.021l-0.316-0.02l-0.317-0.018l-0.319-0.014l-0.321-0.01l-0.322-0.01l-0.323-0.006
		c-0.34-0.002-0.648-0.168-0.841-0.449c-0.458-0.682,0.03-1.594,0.851-1.594l0.358,0.008l0.34,0.009l0.339,0.011l0.336,0.015
		l0.335,0.019l0.333,0.02l0.333,0.023l0.331,0.025l0.329,0.029l0.328,0.031l0.326,0.035l0.325,0.036l0.176,0.021
		c0.37,0.044,0.682,0.282,0.825,0.625C-231.249,31.725-231.832,32.492-232.607,32.406z M-229.319-65.121l-0.253,0.15l-0.21,0.123
		l-0.211,0.121l-0.212,0.121l-0.212,0.118l-0.213,0.118l-0.215,0.116l-0.215,0.114l-0.215,0.114l-0.217,0.111l-0.217,0.111
		l-0.218,0.109l-0.219,0.107l-0.22,0.106l-0.22,0.105l-0.221,0.104l-0.229,0.104c-0.312,0.142-0.665,0.119-0.958-0.058
		c-0.697-0.432-0.633-1.458,0.109-1.801l0.216-0.1l0.209-0.098l0.208-0.1l0.208-0.101l0.207-0.102l0.206-0.104l0.206-0.105
		l0.205-0.105l0.204-0.107l0.204-0.108l0.202-0.11l0.203-0.111l0.201-0.112l0.2-0.114l0.2-0.114l0.199-0.117l0.232-0.138
		c0.329-0.196,0.719-0.196,1.05-0.004C-228.664-66.475-228.659-65.522-229.319-65.121z M-223.029,34.939l-0.159-0.064l-0.259-0.104
		l-0.26-0.104l-0.262-0.102l-0.263-0.1l-0.265-0.098l-0.266-0.096l-0.267-0.094l-0.269-0.094l-0.27-0.092l-0.272-0.088l-0.273-0.088
		l-0.274-0.084l-0.275-0.084l-0.114-0.033c-0.347-0.105-0.605-0.367-0.702-0.717c-0.206-0.768,0.508-1.467,1.271-1.246l0.129,0.037
		l0.291,0.088l0.29,0.092l0.288,0.092l0.286,0.094l0.286,0.096l0.283,0.098l0.282,0.1l0.28,0.102l0.279,0.102l0.277,0.105
		l0.275,0.107l0.274,0.109l0.273,0.109l0.159,0.064c0.337,0.137,0.575,0.443,0.626,0.805
		C-221.523,34.633-222.301,35.236-223.029,34.939z M-221.121-71.59l-0.101,0.103l-0.169,0.169l-0.169,0.168l-0.17,0.167
		l-0.171,0.167l-0.173,0.165l-0.174,0.165l-0.174,0.164l-0.176,0.163l-0.177,0.162l-0.178,0.161l-0.179,0.16l-0.18,0.159
		l-0.181,0.158l-0.182,0.158l-0.182,0.156l-0.185,0.155l-0.156,0.131c-0.32,0.268-0.757,0.313-1.127,0.125
		c-0.646-0.34-0.745-1.217-0.188-1.688l0.156-0.131l0.175-0.148l0.174-0.148l0.173-0.149l0.172-0.151l0.171-0.151l0.17-0.152
		l0.169-0.154l0.168-0.154l0.168-0.154l0.167-0.156l0.165-0.156l0.165-0.158l0.163-0.158l0.162-0.159l0.162-0.16l0.161-0.161
		l0.093-0.095c0.462-0.466,1.22-0.39,1.584,0.155C-220.733-72.46-220.784-71.936-221.121-71.59z M-218.823-76.563
		c-0.145-0.335-0.105-0.711,0.108-1.008l0.095-0.131l0.128-0.178l0.126-0.18l0.126-0.18l0.125-0.18l0.124-0.181l0.122-0.18
		l0.121-0.182l0.12-0.182l0.118-0.182l0.117-0.183l0.116-0.183l0.115-0.184l0.113-0.183l0.112-0.184l0.111-0.185l0.109-0.184
		l0.108-0.185l0.065-0.113c0.309-0.534,1.01-0.676,1.503-0.305c0.41,0.312,0.523,0.876,0.268,1.323l-0.071,0.123l-0.114,0.194
		l-0.116,0.194l-0.117,0.194l-0.118,0.194l-0.119,0.193l-0.121,0.192l-0.122,0.192l-0.124,0.192l-0.125,0.192l-0.126,0.191
		l-0.127,0.19l-0.128,0.19l-0.13,0.19l-0.131,0.189l-0.132,0.188l-0.134,0.188l-0.135,0.188l-0.095,0.13
		C-217.523-75.735-218.504-75.839-218.823-76.563z M-213.338,39.896c-0.329,0.141-0.7,0.102-0.992-0.105l-0.228-0.16l-0.209-0.145
		l-0.21-0.145l-0.212-0.145l-0.212-0.143l-0.214-0.145l-0.215-0.141l-0.218-0.143l-0.218-0.139l-0.219-0.139l-0.221-0.141
		l-0.222-0.137l-0.224-0.137l-0.226-0.137l-0.305-0.182c-0.648-0.383-0.678-1.305-0.054-1.729c0.331-0.219,0.742-0.234,1.086-0.035
		l0.325,0.193l0.235,0.143l0.233,0.143l0.232,0.145l0.23,0.145l0.229,0.145l0.228,0.146l0.226,0.148l0.224,0.148l0.224,0.146
		l0.221,0.15l0.221,0.148l0.218,0.152l0.217,0.15l0.237,0.166C-212.499,38.588-212.604,39.578-213.338,39.896z M-210.98-89.682
		l-0.031,0.151l-0.041,0.199l-0.043,0.2l-0.044,0.2l-0.046,0.2l-0.048,0.2l-0.049,0.2l-0.051,0.2l-0.052,0.201l-0.054,0.2
		l-0.056,0.201l-0.058,0.2l-0.059,0.201l-0.061,0.201l-0.062,0.2l-0.064,0.2l-0.065,0.202l-0.066,0.2l-0.068,0.2l-0.07,0.201
		l-0.042,0.117c-0.232,0.652-1.024,0.892-1.579,0.477c-0.356-0.271-0.495-0.73-0.348-1.154l0.042-0.117l0.065-0.188l0.064-0.188
		l0.063-0.188l0.061-0.188l0.059-0.187l0.058-0.188l0.056-0.187l0.055-0.187l0.053-0.187l0.052-0.187l0.05-0.186l0.048-0.186
		l0.048-0.186l0.045-0.186l0.044-0.186l0.042-0.185l0.042-0.185l0.039-0.185l0.038-0.185l0.027-0.135
		c0.093-0.476,0.501-0.819,0.984-0.828C-211.349-90.906-210.86-90.323-210.98-89.682z M-210.865-94.764
		c-0.818-0.093-1.196-1.064-0.656-1.686c0.168-0.196,0.356-0.376,0.553-0.544c1.01-0.846,2.276-1.326,3.542-1.641
		c0.324-0.078,0.658,0.004,0.911,0.222c0.625,0.547,0.378,1.563-0.428,1.764l0.003-0.001c-1.029,0.259-2.329,0.712-3.042,1.542
		C-210.204-94.852-210.528-94.728-210.865-94.764z M-204.924,45.713c-0.157,0.799-1.126,1.107-1.713,0.545
		c-0.965-0.934-1.953-1.848-2.965-2.73c-0.315-0.273-0.429-0.699-0.301-1.094c0.236-0.691,1.086-0.928,1.639-0.449
		c1.04,0.906,2.055,1.844,3.046,2.803C-204.969,45.029-204.861,45.369-204.924,45.713z M-201.107-99.278
		c0.801-0.007,1.602,0.005,2.402,0.021c0.563-0.012,1.125-0.021,1.688-0.023c0.386,0,0.732,0.211,0.911,0.554
		c0.348,0.681-0.142,1.484-0.906,1.489c-0.564,0.002-1.129,0.012-1.693,0.024c-0.795-0.018-1.591-0.029-2.387-0.022
		c-0.31,0.002-0.591-0.132-0.791-0.366C-202.434-98.267-201.971-99.267-201.107-99.278z M-193.948,51.316
		c-0.15,0.141-0.302,0.279-0.455,0.416l-0.104,0.092l-0.103,0.09L-194.713,52l-0.101,0.088l-0.102,0.082l-0.1,0.084l-0.101,0.08
		l-0.1,0.08l-0.1,0.076l-0.099,0.076l-0.099,0.072l-0.098,0.072l-0.098,0.068l-0.098,0.066l-0.098,0.064l-0.098,0.064l-0.097,0.061
		l-0.098,0.059l-0.098,0.057l-0.098,0.055l-0.099,0.051l-0.098,0.051l-0.1,0.047l-0.1,0.045l-0.1,0.043l-0.101,0.039l-0.103,0.035
		l-0.103,0.035l-0.104,0.029l-0.105,0.027l-0.106,0.023l-0.108,0.021l-0.108,0.016l-0.11,0.012l-0.11,0.006l-0.112,0.002
		c-0.187,0-0.362-0.049-0.515-0.137c-0.131-0.008-0.265-0.041-0.396-0.104l-0.096-0.049l-0.083-0.043l-0.082-0.047l-0.082-0.049
		l-0.081-0.051l-0.082-0.053l-0.081-0.055l-0.082-0.055l-0.082-0.059l-0.082-0.061l-0.082-0.063l-0.083-0.064l-0.083-0.066
		l-0.083-0.068l-0.085-0.07l-0.084-0.072l-0.086-0.072l-0.086-0.076c-0.644-0.57-1.256-1.178-1.859-1.789
		c-0.292-0.297-0.373-0.729-0.214-1.113c0.287-0.67,1.154-0.84,1.668-0.322c0.655,0.664,1.326,1.342,2.043,1.938l0.068,0.055
		l0.066,0.053l0.065,0.051l0.062,0.047l0.06,0.045l0.058,0.041l0.056,0.037l0.053,0.037l0.05,0.033l0.048,0.027l0.045,0.027
		l0.042,0.023l0.038,0.021l0.047,0.023c0.022,0.01,0.044,0.021,0.066,0.035l0.03-0.004l0.031-0.004l0.034-0.008l0.037-0.008
		l0.039-0.01l0.043-0.012l0.045-0.016l0.048-0.018l0.05-0.02l0.053-0.021l0.055-0.025l0.058-0.027l0.06-0.031l0.063-0.031
		l0.064-0.037l0.066-0.037l0.068-0.041l0.07-0.045l0.073-0.045l0.073-0.051l0.076-0.051l0.077-0.055l0.079-0.059l0.08-0.059
		l0.082-0.063l0.083-0.064l0.085-0.066l0.085-0.07l0.087-0.072l0.09-0.072l0.09-0.076c0.239-0.205,0.472-0.414,0.701-0.629
		c0.588-0.543,1.543-0.23,1.698,0.557C-193.574,50.723-193.688,51.074-193.948,51.316z M-182.899-81.64
		c0.454-0.57,1.336-0.503,1.694,0.134l0.088,0.16l0.104,0.185l0.105,0.186l0.107,0.185l0.108,0.185l0.11,0.184l0.11,0.185
		l0.112,0.184l0.114,0.183l0.114,0.184l0.116,0.183l0.117,0.183l0.119,0.182l0.12,0.182l0.121,0.182l0.121,0.18l0.123,0.181
		l0.125,0.18l0.073,0.104c0.187,0.266,0.235,0.598,0.136,0.905c-0.265,0.8-1.318,0.956-1.806,0.271l-0.08-0.113l-0.131-0.189
		l-0.13-0.19l-0.129-0.19l-0.127-0.19l-0.126-0.191l-0.125-0.192l-0.123-0.192l-0.122-0.192l-0.121-0.192l-0.119-0.193l-0.119-0.194
		l-0.117-0.194l-0.115-0.194l-0.114-0.194l-0.113-0.195l-0.112-0.195l-0.109-0.196l-0.088-0.16
		C-183.191-80.875-183.155-81.311-182.899-81.64z M-191.76-98.367c0.234-0.344,0.644-0.511,1.05-0.429
		c1.458,0.293,3.027,0.789,4.194,1.741c0.263,0.218,0.396,0.542,0.367,0.881c-0.076,0.817-1.034,1.216-1.667,0.694l-0.007-0.006
		c-0.901-0.716-2.184-1.086-3.295-1.309C-191.832-96.944-192.165-97.758-191.76-98.367z M-186.702,44.107
		c-0.983,0.926-1.944,1.871-2.892,2.832c-0.307,0.311-0.761,0.391-1.157,0.209c-0.643-0.301-0.793-1.135-0.299-1.643
		c0.966-0.979,1.945-1.943,2.946-2.885c0.504-0.475,1.32-0.322,1.622,0.301C-186.29,43.326-186.377,43.799-186.702,44.107z
		 M-185.533-86.283l-0.079-0.242l-0.063-0.2l-0.063-0.2l-0.061-0.201l-0.059-0.201l-0.057-0.2l-0.056-0.201l-0.054-0.2l-0.053-0.201
		l-0.051-0.2l-0.049-0.2l-0.048-0.2l-0.046-0.2l-0.044-0.2l-0.042-0.2l-0.041-0.199l-0.041-0.199l-0.037-0.199l-0.036-0.199
		l-0.035-0.199l-0.012-0.071c-0.067-0.413,0.112-0.81,0.463-1.035c0.621-0.382,1.428-0.025,1.551,0.695l0.012,0.07l0.032,0.184
		l0.033,0.183l0.034,0.185l0.037,0.183l0.038,0.185l0.04,0.185l0.041,0.185l0.042,0.185l0.043,0.186l0.046,0.186l0.047,0.186
		l0.049,0.186l0.05,0.186l0.052,0.187l0.053,0.187l0.055,0.187l0.057,0.187l0.058,0.188l0.06,0.187l0.07,0.215
		c0.106,0.317,0.053,0.656-0.142,0.927C-184.231-85.338-185.266-85.498-185.533-86.283z M-178.855,37.883l-0.211,0.137l-0.21,0.139
		l-0.21,0.139l-0.208,0.139l-0.207,0.141l-0.205,0.141l-0.205,0.143L-180.513,39l-0.202,0.146l-0.201,0.143l-0.199,0.145
		l-0.198,0.146l-0.197,0.145l-0.195,0.146l-0.194,0.146l-0.222,0.17c-0.472,0.365-1.15,0.252-1.479-0.244
		c-0.294-0.449-0.196-1.041,0.227-1.369l0.237-0.182l0.203-0.154l0.203-0.152l0.205-0.15l0.207-0.152l0.208-0.15l0.209-0.15
		l0.21-0.15l0.212-0.148l0.213-0.148l0.215-0.146l0.216-0.146l0.218-0.146l0.22-0.145l0.22-0.145l0.211-0.137
		c0.457-0.297,1.063-0.184,1.383,0.258C-178.24,36.902-178.364,37.563-178.855,37.883z M-143.005-43.774l-0.137,0.13l-0.226,0.218
		l-0.223,0.219l-0.221,0.22l-0.218,0.222l-0.215,0.223l-0.213,0.225l-0.211,0.227l-0.208,0.228l-0.206,0.229l-0.204,0.231
		l-0.202,0.231l-0.198,0.233l-0.04,0.049c-0.25,0.297-0.63,0.428-1.009,0.346c-0.744-0.173-1.052-1.058-0.565-1.649l0.052-0.062
		l0.211-0.247l0.212-0.246l0.215-0.244l0.218-0.243l0.221-0.241l0.223-0.239l0.227-0.238l0.228-0.236l0.231-0.235l0.234-0.233
		l0.236-0.231l0.239-0.23l0.137-0.129c0.357-0.339,0.897-0.378,1.298-0.094C-142.595-44.97-142.541-44.218-143.005-43.774z
		 M-148.814-62.217l0.26-0.02l0.24-0.02l0.24-0.021l0.241-0.024l0.241-0.025l0.241-0.028l0.242-0.029l0.242-0.033l0.242-0.034
		l0.243-0.036l0.243-0.039l0.243-0.041l0.243-0.042l0.243-0.046l0.244-0.048l0.251-0.051c0.368-0.08,0.744,0.047,0.991,0.331
		c0.503,0.591,0.199,1.497-0.558,1.665l-0.285,0.059l-0.261,0.051l-0.26,0.048l-0.261,0.047l-0.259,0.043l-0.261,0.042l-0.259,0.039
		l-0.259,0.037l-0.259,0.034l-0.258,0.033l-0.259,0.029l-0.258,0.028l-0.258,0.024l-0.258,0.023l-0.258,0.021l-0.277,0.02
		c-0.415,0.029-0.797-0.192-0.985-0.563C-149.979-61.4-149.543-62.164-148.814-62.217z M-152.828-33.31l0.029-0.064l0.129-0.287
		l0.132-0.285l0.134-0.285l0.137-0.284l0.139-0.282l0.142-0.282l0.144-0.28l0.146-0.28l0.148-0.279l0.151-0.277l0.153-0.276
		l0.156-0.276l0.172-0.298c0.212-0.359,0.604-0.551,1.018-0.499c0.723,0.101,1.113,0.895,0.748,1.526l-0.164,0.283l-0.148,0.261
		l-0.145,0.262l-0.143,0.264l-0.14,0.264l-0.139,0.265l-0.136,0.267l-0.134,0.267l-0.132,0.269l-0.129,0.269l-0.128,0.271
		l-0.125,0.271l-0.146,0.323c-0.167,0.381-0.541,0.616-0.956,0.611C-152.644-31.898-153.118-32.639-152.828-33.31z M-150.194,7.402
		c-0.458,0.634-1.429,0.543-1.756-0.167l-0.134-0.296l-0.116-0.263l-0.116-0.264l-0.114-0.266l-0.113-0.267l-0.111-0.268
		l-0.109-0.269l-0.108-0.271l-0.107-0.271l-0.106-0.272l-0.104-0.272l-0.103-0.274l-0.101-0.275l-0.124-0.344
		c-0.121-0.343-0.056-0.712,0.172-0.993c0.507-0.612,1.481-0.441,1.751,0.305l0.12,0.333l0.097,0.264l0.099,0.264l0.1,0.262
		l0.101,0.262l0.103,0.26l0.104,0.259l0.105,0.257l0.106,0.257l0.108,0.255l0.109,0.255l0.11,0.252l0.111,0.253l0.123,0.271
		C-149.941,6.717-149.979,7.098-150.194,7.402z M-152.966-26.867l-0.062,0.225l-0.076,0.289l-0.075,0.289l-0.073,0.289l-0.07,0.291
		l-0.069,0.29l-0.066,0.292l-0.064,0.291l-0.063,0.293l-0.06,0.292l-0.059,0.294l-0.057,0.294l-0.054,0.293l-0.031,0.173
		c-0.06,0.34-0.285,0.623-0.601,0.761c-0.749,0.32-1.547-0.313-1.412-1.114l0.033-0.186l0.058-0.308l0.059-0.308l0.062-0.307
		l0.063-0.306l0.066-0.307l0.067-0.306l0.07-0.305l0.072-0.305l0.074-0.304l0.076-0.304l0.078-0.303l0.081-0.303l0.061-0.226
		c0.183-0.664,0.942-0.963,1.528-0.601C-153.029-27.758-152.848-27.303-152.966-26.867z M-175.335-70.652l-0.173-0.165l-0.171-0.167
		l-0.17-0.167l-0.169-0.168l-0.169-0.169l-0.167-0.17l-0.167-0.17l-0.165-0.171l-0.1-0.105c-0.355-0.372-0.38-0.947-0.058-1.348
		c0.39-0.48,1.104-0.511,1.532-0.066l0.1,0.105l0.158,0.163l0.158,0.162l0.16,0.161l0.16,0.161l0.162,0.16l0.163,0.159l0.164,0.158
		l0.164,0.158l0.166,0.156l0.166,0.156l0.168,0.154l0.168,0.155l0.168,0.153l0.17,0.152l0.171,0.151l0.172,0.151l0.151,0.13
		c0.245,0.213,0.374,0.52,0.353,0.845c-0.062,0.839-1.046,1.249-1.686,0.703l-0.159-0.138l-0.181-0.158l-0.18-0.159l-0.178-0.16
		l-0.178-0.161l-0.177-0.162l-0.176-0.163l-0.175-0.164L-175.335-70.652z M-169.894,33.65l-0.175,0.055l-0.262,0.084l-0.261,0.086
		l-0.259,0.088l-0.258,0.09l-0.256,0.092l-0.255,0.096l-0.254,0.094l-0.252,0.098l-0.251,0.1l-0.25,0.1l-0.248,0.102l-0.247,0.104
		l-0.245,0.105l-0.243,0.107c-0.336,0.146-0.709,0.105-1.008-0.105c-0.642-0.461-0.542-1.441,0.18-1.764l0.257-0.113l0.26-0.109
		l0.261-0.111l0.263-0.107l0.264-0.105l0.266-0.105l0.267-0.102l0.269-0.102l0.271-0.1l0.272-0.098l0.273-0.094l0.275-0.096
		l0.277-0.09l0.278-0.09l0.176-0.055c0.364-0.115,0.748-0.023,1.022,0.242C-168.939,32.484-169.159,33.416-169.894,33.65z
		 M-165.482-63.692l-0.218-0.109l-0.217-0.111l-0.217-0.111l-0.215-0.114l-0.215-0.114l-0.214-0.116l-0.213-0.118l-0.212-0.118
		l-0.212-0.121l-0.211-0.121l-0.21-0.123l-0.209-0.124l-0.208-0.125l-0.208-0.127l-0.239-0.147
		c-0.426-0.269-0.596-0.798-0.402-1.264c0.249-0.581,0.943-0.803,1.482-0.471l0.228,0.141l0.197,0.12l0.198,0.119l0.198,0.117
		l0.199,0.117l0.2,0.114l0.2,0.114l0.201,0.112l0.202,0.111l0.203,0.11l0.203,0.108l0.205,0.107l0.205,0.105l0.206,0.105
		l0.206,0.104l0.208,0.102l0.215,0.104c0.593,0.284,0.771,1.032,0.368,1.553c-0.295,0.376-0.809,0.499-1.242,0.294l-0.239-0.116
		L-165.482-63.692z M-160.136,32.158h-0.117l-0.315,0.004l-0.313,0.008l-0.311,0.01l-0.31,0.01l-0.309,0.016l-0.306,0.018
		l-0.305,0.02l-0.303,0.023l-0.302,0.025l-0.3,0.029l-0.298,0.031l-0.297,0.033l-0.169,0.02c-0.402,0.051-0.792-0.141-1.002-0.486
		c-0.38-0.637,0.012-1.444,0.748-1.541l0.187-0.023l0.315-0.034l0.317-0.033l0.318-0.029l0.32-0.027l0.322-0.024l0.323-0.022
		l0.325-0.019l0.327-0.015l0.328-0.014l0.33-0.009l0.332-0.008l0.333-0.004l0.117-0.001c0.299,0,0.577,0.123,0.774,0.349
		C-158.802,31.125-159.262,32.148-160.136,32.158z M-156.921-60.729l-0.243-0.05l-0.242-0.052l-0.241-0.054l-0.241-0.055
		l-0.24-0.058l-0.239-0.058l-0.24-0.061l-0.238-0.063l-0.281-0.076c-0.318-0.088-0.567-0.315-0.686-0.623
		c-0.294-0.782,0.418-1.564,1.225-1.348l0.265,0.072l0.224,0.058l0.225,0.057l0.225,0.056l0.226,0.054l0.225,0.052l0.227,0.05
		l0.227,0.049l0.227,0.046l0.229,0.045l0.228,0.043l0.229,0.042l0.228,0.04l0.229,0.037l0.23,0.036l0.231,0.034l0.195,0.028
		c0.417,0.058,0.748,0.358,0.852,0.764c0.172,0.706-0.41,1.354-1.13,1.26l-0.211-0.03l-0.246-0.036l-0.246-0.039l-0.246-0.04
		l-0.244-0.042l-0.245-0.045l-0.243-0.046L-156.921-60.729z M-156.587-12.94l-0.009-0.318l-0.007-0.311l-0.005-0.312l-0.003-0.311
		l-0.002-0.312l0.001-0.312l0.001-0.312l0.004-0.312l0.006-0.312l0.008-0.312l0.01-0.312l0.011-0.312l0.014-0.313l0.006-0.114
		c0.021-0.416,0.282-0.77,0.672-0.913c0.688-0.245,1.4,0.278,1.369,1.008l-0.006,0.113l-0.012,0.3l-0.011,0.299l-0.009,0.3
		l-0.007,0.299l-0.006,0.3l-0.003,0.3l-0.002,0.299v0.299l0.001,0.299l0.004,0.3l0.005,0.299l0.007,0.299l0.009,0.294v0l0,0v0.004
		c0.011,0.34-0.145,0.657-0.418,0.859C-155.629-11.673-156.551-12.122-156.587-12.94z M-155.315-2.889l-0.065-0.296l-0.063-0.297
		l-0.063-0.298l-0.06-0.299l-0.059-0.299l-0.057-0.3l-0.055-0.301l-0.054-0.301l-0.052-0.301l-0.051-0.303l-0.049-0.303
		l-0.047-0.303l-0.035-0.235c-0.048-0.314,0.048-0.621,0.264-0.854c0.586-0.619,1.624-0.297,1.755,0.545l0.035,0.234l0.045,0.292
		l0.047,0.291l0.048,0.291l0.05,0.29l0.052,0.29l0.054,0.289l0.055,0.288l0.057,0.288l0.059,0.288l0.06,0.285l0.061,0.286
		l0.063,0.286l0.055,0.242c0.086,0.378-0.047,0.766-0.344,1.015c-0.59,0.483-1.474,0.182-1.647-0.56L-155.315-2.889z
		 M-149.295,33.143c-0.256,0.273-0.634,0.383-0.998,0.291l-0.09-0.021l-0.366-0.092l-0.363-0.088l-0.362-0.082l-0.359-0.08
		l-0.358-0.076l-0.356-0.074l-0.354-0.068l-0.353-0.066l-0.351-0.063l-0.349-0.059l-0.245-0.039
		c-0.429-0.068-0.761-0.391-0.847-0.816c-0.129-0.698,0.458-1.308,1.161-1.203l0.262,0.042l0.367,0.062l0.368,0.065l0.37,0.069
		l0.371,0.072l0.374,0.077l0.375,0.079l0.377,0.083l0.378,0.089l0.38,0.091l0.382,0.096l0.09,0.023
		C-149.038,31.646-148.766,32.57-149.295,33.143z M-146.48,16.14l-0.059-0.071l-0.166-0.202l-0.164-0.205l-0.163-0.206l-0.162-0.209
		l-0.161-0.21l-0.159-0.211l-0.158-0.215l-0.157-0.216l-0.156-0.217l-0.155-0.219l-0.153-0.221l-0.152-0.223l-0.151-0.224
		l-0.149-0.225l-0.148-0.228l-0.063-0.098c-0.273-0.422-0.202-0.978,0.171-1.314c0.469-0.42,1.198-0.326,1.542,0.202v-0.001
		l0.063,0.099l0.142,0.214l0.141,0.214l0.143,0.213l0.145,0.21l0.145,0.208l0.146,0.206l0.146,0.206l0.149,0.203l0.149,0.201
		l0.15,0.199l0.151,0.198l0.152,0.195l0.153,0.195l0.154,0.191l0.155,0.19l0.048,0.06c0.266,0.322,0.312,0.757,0.121,1.128
		C-145.132,16.605-146.01,16.699-146.48,16.14z M-140.319,36.621c-0.227,0.006-0.437-0.008-0.662-0.041
		c-0.727-0.115-1.455-0.406-2.124-0.709l-0.391-0.16l-0.398-0.162l-0.396-0.158l-0.29-0.113c-0.337-0.131-0.568-0.414-0.638-0.768
		c-0.143-0.785,0.626-1.426,1.372-1.139l0.305,0.117l0.411,0.164l0.413,0.168c0.146,0.061,0.298,0.119,0.441,0.186
		c0.385,0.174,0.784,0.34,1.189,0.459c0.218,0.061,0.464,0.123,0.691,0.115c0.368-0.014,0.709,0.168,0.904,0.479
		C-139.075,35.729-139.534,36.588-140.319,36.621z M-138.858,23.206c-0.119-0.096-0.235-0.191-0.353-0.288
		c-0.795-0.652-1.565-1.322-2.316-2.023l-0.144-0.105l-0.193-0.148l-0.082-0.063c-0.262-0.202-0.408-0.504-0.401-0.835
		c0.021-0.835,0.977-1.292,1.641-0.787l0.082,0.062l0.177,0.135l0.179,0.132l0.05,0.037l0.044,0.042l-0.094-0.079l0.14,0.121
		c0.826,0.771,1.679,1.502,2.557,2.213c0.473,0.387,0.507,1.088,0.076,1.52C-137.87,23.505-138.449,23.534-138.858,23.206z
		 M-134.097,27.461c-0.039,0.117-0.078,0.233-0.121,0.35c-0.262,0.713-0.582,1.412-0.912,2.097c-0.233,0.48-0.474,0.964-0.726,1.434
		c-0.326,0.615-1.148,0.732-1.636,0.236c-0.308-0.321-0.377-0.795-0.17-1.19c0.283-0.537,0.557-1.081,0.817-1.631
		c0.295-0.624,0.584-1.266,0.802-1.921c0.125-0.383,0.452-0.651,0.851-0.701C-134.45,26.051-133.871,26.75-134.097,27.461z" class="color c2"/>
  </g>
</svg>