<svg version="1.1" id="图层_1" x="0px" y="0px" width="38.721px" height="85px" viewBox="0 0 38.721 85" enable-background="new 0 0 38.721 85" xml:space="preserve" xmlns="http://www.w3.org/2000/svg" xmlns:xlink="http://www.w3.org/1999/xlink" xmlns:xml="http://www.w3.org/XML/1998/namespace">
  <path fill="#1E1B16" d="M18.831,15.198c0,0-2.654-17.204-18.246-15.003C0.397,0.221,0.229,0.324,0.122,0.479
	c-0.109,0.156-0.147,0.35-0.106,0.535C0.14,1.575,0.625,1.981,1.199,2.005c1.757,0.076,5.589,0.637,8.709,3.844
	c0.277,0.286,0.383,0.699,0.269,1.082c-0.114,0.382-0.422,0.672-0.812,0.758c-4.139,0.912-6.59,5.764-5.476,10.816
	c0.65,2.949,2.862,5.324,5.012,6.609c1.952,1.167,3.609,3,4.609,5.167v0.001c1,3.883,2.188,7.69,3.854,11.412
	c0.604-0.654,0.945-1.282,1.644-1.851c0.444-0.362,0.66-0.692,1.058-1.097c-2.219-2.579-3.448-6.119-4.335-9.119h0.004
	c0-2,0.404-4.594,1.684-6.473C18.83,21.086,19.48,18.146,18.831,15.198z M15.952,15.843c0.715,3.239-0.76,6.328-3.282,6.884
	c-2.525,0.556-5.159-1.627-5.874-4.867c-0.713-3.24,0.759-6.329,3.283-6.884C12.604,10.419,15.238,12.602,15.952,15.843z
	 M21.469,53.768c1.487-4.134,2.825-7.58,3.759-9.449c1.385,2.113,2.32,4.511,2.705,7.048l4.306,28.516
	c0.268,1.769-0.191,3.569-1.273,4.991C30.964,84.872,22.201,55.979,21.469,53.768z M9.636,85c0,0,11.174-34.876,14.848-41.741
	c1.972-4.029,3.659-8.174,5.433-12.412v-0.001c0.885-2.151,1.974-3.949,3.953-5.071c2.177-1.235,3.852-3.569,4.568-6.503
	c0.403-1.648,0.34-3.284,0.036-4.774c-0.619-3.05-2.629-5.488-5.395-6.165c-3.194-0.782-6.55,1.015-8.455,4.21
	c-0.388,0.647-1.133,1.003-1.879,0.907l-0.544-0.071c-0.405-0.052-0.814,0.065-1.131,0.324c-0.315,0.26-0.51,0.637-0.536,1.043
	c-0.009,0.133,0,0.264,0.026,0.391c0.063,0.308,0.223,0.592,0.463,0.807l1.371,1.225c0.308,0.273,0.516,0.637,0.596,1.034
	c0.021,0.109,0.038,0.222,0.042,0.335c0.014,0.637,0.092,1.259,0.213,1.858c0.235,1.16,0.685,2.231,1.28,3.151
	c0.642,0.991,1.357,2.086,1.591,3.225c0.214,1.053,0.395,2.144,0.395,3.223v0.001c-1,4.285-3.149,8.18-6.504,10.92
	c-3.291,2.688-5.692,6.469-6.423,10.654L8.597,79.799c-0.153,0.876-0.167,1.766,0.006,2.62C8.789,83.335,9.099,84.214,9.636,85z
	 M29.381,23.291c-1.651-0.403-2.823-1.893-3.208-3.782c-0.199-0.983-0.187-2.074,0.084-3.176c0.788-3.223,3.472-5.345,5.981-4.731
	c1.651,0.403,2.823,1.893,3.207,3.782c0.201,0.983,0.188,2.074-0.084,3.177C34.575,21.782,31.892,23.905,29.381,23.291z
	 M19.247,43.864c-0.07-0.794,0.458-1.531,1.257-1.693c0.645-0.131,1.275,0.148,1.626,0.658L19.247,43.864z M19.511,44.624
	l2.884-1.035c0.069,0.793-0.458,1.531-1.257,1.693C20.493,45.413,19.861,45.134,19.511,44.624z" class="color c1"/>
</svg>