<svg version="1.1" id="图层_1" x="0px" y="0px" width="46.236px" height="48.266px" viewBox="0 0 46.236 48.266" enable-background="new 0 0 46.236 48.266" xml:space="preserve" xmlns="http://www.w3.org/2000/svg" xmlns:xlink="http://www.w3.org/1999/xlink" xmlns:xml="http://www.w3.org/XML/1998/namespace">
  <path fill="#FFFFFF" d="M45.135,35.711l-8.67-8.937l6.469-2.486c1.477-0.566,2.466-1.97,2.505-3.551
	c0.042-1.579-0.875-3.03-2.319-3.674l-5.063-2.251L20.58,7.042l-4.517-2.006L5.499,0.338C4.787,0.019,4.01-0.07,3.271,0.053
	C2.516,0.179,1.796,0.527,1.217,1.079c-1.148,1.087-1.524,2.76-0.956,4.236l4.294,11.17l1.779,4.63l4.055,10.547L14.81,43.16
	c0.567,1.475,1.969,2.465,3.551,2.505c0.251,0.007,0.5-0.012,0.741-0.051c1.281-0.214,2.396-1.055,2.934-2.271l2.438-5.481
	l8.941,9.22c0.724,0.744,1.711,1.171,2.748,1.187c0.236,0.002,0.472-0.015,0.699-0.053c0.78-0.129,1.511-0.493,2.084-1.051
	l0.699-0.681l4.024-3.904l1.382-1.338c0.745-0.725,1.171-1.713,1.187-2.749C46.253,37.455,45.855,36.455,45.135,35.711z" class="color c1"/>
  <polygon fill="#FE8C3F" points="33.53,23.711 41.528,20.638 36.465,18.386 18.99,10.616 14.478,8.61 3.911,3.913 8.207,15.082 
	9.984,19.71 14.041,30.257 18.461,41.754 23.246,30.984 36.22,44.355 36.922,43.676 40.946,39.772 42.326,38.433 29.533,25.249 " class="color c2"/>
</svg>