<svg version="1.1" id="图层_1" x="0px" y="0px" width="144.882px" height="164.814px" viewBox="0 0 144.882 164.814" enable-background="new 0 0 144.882 164.814" xml:space="preserve" xmlns="http://www.w3.org/2000/svg" xmlns:xlink="http://www.w3.org/1999/xlink" xmlns:xml="http://www.w3.org/XML/1998/namespace">
  <path fill="#070707" d="M144.791,55.764c-2.209-1.559-3.595-4.136-3.685-6.834c-0.007-0.141-0.123-0.21-0.249-0.19
	c-2.172,0.328-4.427-0.799-4.947-3.033c-0.237-1.019,0.04-2.087,0.759-2.842c0.686-0.718,1.736-1.065,2.703-0.828
	c0.191,0.045,0.336-0.188,0.193-0.33c-1.009-1.026-1.737-2.27-2.143-3.648c-0.02-0.062-0.072-0.124-0.139-0.14
	c-1.055-0.228-2.088-0.534-3.097-0.919c-0.03-0.013-0.057-0.015-0.082-0.015c0.064-0.109,0.163-0.237,0.272-0.371
	c0.076,0.143,0.321,0.171,0.358-0.028c0.102-0.57,0.795-0.667,1.267-0.798c0.495-0.137,0.975-0.312,1.286-0.742
	c0.406-0.557,0.174-1.443,0.034-2.056c-0.144-0.636-0.381-1.27-0.751-1.806c-0.315-0.452-0.765-0.809-1.318-0.888
	c-0.814-0.116-1.495,0.478-2.229,0.718c-1.789,0.589-3.768-0.196-5.424-0.897c0.205-0.541,0.413-1.081,0.619-1.624
	c0.031-0.079-0.018-0.184-0.092-0.223c-0.783-0.429-1.383-1.101-1.716-1.932c-0.071-0.18-0.121-0.367-0.163-0.555
	c-0.032-0.143-0.242-0.198-0.351-0.253c-0.475-0.242-0.961-0.466-1.452-0.676c-0.909-0.39-1.841-0.716-2.791-0.993
	c-0.467-0.137-0.938-0.252-1.411-0.359c-0.203-0.044-0.274-0.386-0.321-0.554c-0.081-0.287-0.046-0.588,0.037-0.867
	c0.041-0.134-0.1-0.3-0.242-0.242c-0.34,0.133-0.685,0.047-0.899-0.221c0.788-0.613,1.343-1.452,1.585-2.431
	c0.031-0.135-0.097-0.297-0.243-0.242c-1.544,0.586-2.99-0.748-4.226-1.487c-0.673-0.402-1.373-0.702-2.153-0.802
	c-0.836-0.108-1.867,0.024-2.457-0.702c-0.084-0.102-0.249-0.06-0.311,0.04c-0.724,1.182-2.321,1.679-3.582,1.088
	c-0.073-0.035-0.145-0.02-0.198,0.016l-0.103-0.139h-0.003c0.033-0.1,0.004-0.224-0.118-0.272c-0.387-0.152-0.283-0.731-0.256-1.057
	c0.032-0.383,0.062-0.749-0.045-1.124c-0.207-0.724-0.894-1.204-1.537-1.506c-1.421-0.666-3.676-0.387-4.563-1.901
	c0.439-0.683,0.881-1.362,1.32-2.045c0.06-0.094,0.016-0.215-0.072-0.269c-2.945-1.887-7.014-1.566-9.651,0.712
	c-1.589-0.976-3.18-1.951-4.771-2.927c-0.725-0.443-1.543-0.816-2.146-1.421c-0.563-0.566-0.92-1.339-1.012-2.13
	c-0.013-0.094-0.055-0.16-0.146-0.191c-2.137-0.754-4.418-0.548-6.637-0.415c-1.115,0.065-2.233,0.105-3.349,0.002
	c-1.14-0.108-2.228-0.45-3.294-0.847c-1.919-0.716-3.866-1.678-5.969-1.56c-0.225,0.012-0.447,0.046-0.668,0.086
	c-0.163,0.029-0.459,0.048-0.58,0.168c-0.165,0.165-0.286,0.386-0.44,0.561c-0.201,0.223-0.429,0.423-0.666,0.605
	c-0.01,0.006-0.017,0.013-0.027,0.019l-1.101,0.616c-0.071,0.029-0.145,0.059-0.218,0.085l-0.561,0.155
	c-0.322,0.07-0.652,0.115-0.983,0.12c-0.069,0.002-0.136,0.042-0.17,0.103L58.15,2.627v0.448l0.247,1.316l-0.678,0.875
	c-0.784,0.374-1.712,0.434-2.496-0.009c-0.05-0.029-0.099-0.032-0.144-0.021c-1.439-0.815-3.047-0.022-4.418,0.595
	c-0.843,0.38-1.716,0.764-2.646,0.853c-1.089,0.103-2.12-0.424-3.154-0.674c-3.476-0.836-7.229-0.038-10.234,1.839
	c-1.951,1.219-3.589,2.946-4.643,4.995c-1.744-0.216-3.497-0.115-5.209,0.294c-0.9,0.215-1.774,0.53-2.613,0.914
	c-0.206,0.093-0.409,0.196-0.609,0.299c-0.136,0.071-0.428,0.315-0.585,0.277c-0.517-0.121-1.036-0.246-1.555-0.366
	c-0.093-0.022-0.227,0.03-0.242,0.139c-0.168,1.142-1.641,1.078-2.488,0.961c-0.94-0.132-1.83-0.182-2.606,0.439
	c-1.136,0.908-1.372,2.916-2.89,3.336c-0.128,0.037-0.177,0.178-0.118,0.292c1.041,2.029,0.392,4.711-1.442,6.056
	C9.3,25.08,8.863,24.807,8.341,24.7c-0.095-0.018-0.169,0.017-0.224,0.093c-0.433,0.601-1.151,1.015-1.903,0.849
	c-0.116-0.024-0.266,0.056-0.251,0.191c0.102,1.011-0.336,1.995-1.18,2.568c-0.085,0.058-0.136,0.177-0.071,0.269
	c0.522,0.771,1.046,1.54,1.568,2.31c-1.349,0.24-1.853,1.981-2.135,3.14c-0.495,2.049-0.653,4.176-0.507,6.275
	c-1.77,0.679-1.631,3.381-1.571,4.919c0.072,1.854,0.5,3.969,2.17,5.02C3.52,51.295,3.55,52.665,4.23,53.623
	c-0.476,0.501-0.814,1.095-1.018,1.737l-0.17,0.271l-0.365,1.3c0,0.305-0.091,1.767-0.091,1.767v0.976l0.64,3.746
	c0,0,0.129,0.625,0.194,1.28c-0.017,0.12-0.03,0.243-0.051,0.36c-0.183,1.074-0.663,2.202-1.781,2.559
	c-0.25,0.076-0.144,0.418,0.104,0.379c0.647-0.1,1.222,0.507,1.116,1.143c-0.058,0.348-0.282,0.686-0.437,0.998
	c-0.161,0.324-0.322,0.649-0.485,0.975c-0.62,1.254-1.244,2.509-1.865,3.763c-0.073,0.147,0.046,0.345,0.224,0.291
	c0.714-0.218,1.452-0.14,2.12,0.188c0.677,0.334,1.005,0.912,1.414,1.506c0.321,0.467,0.747,0.765,1.328,0.628
	c0.416-0.096,0.709-0.363,1.148-0.145c0.356,0.175,0.583,0.584,0.725,0.939c0.254,0.642,0.298,1.335,0.725,1.906
	c0.317,0.424,0.815,0.628,1.325,0.711c0.972,0.159,2.535-0.293,3.255,0.568c-0.285,0.639-0.568,1.28-0.852,1.922
	c-0.036,0.078-0.042,0.176,0.028,0.238c0.946,0.844,2.306,0.965,3.523,1.002c0.909,0.026,1.981-0.133,2.476-0.946
	c0.984,0.728,2.539,0.333,3.061-0.776c0.987,0.354,1.976,0.709,2.966,1.065c0.068,0.024,0.125,0.009,0.166-0.022
	c-0.137,0.55-0.392,1.083-0.679,1.592c-0.526,0.937-1.091,1.855-1.649,2.771c-0.829,1.354-1.715,2.682-2.777,3.863
	c-0.545,0.606-1.144,1.167-1.793,1.663c-0.598,0.452-1.336,0.766-1.708,1.452c-0.674,1.238-0.162,2.928,0.66,3.959
	c0.513,0.646,1.166,1.129,1.889,1.489c0.736,0.442,1.419,0.653,1.772,0.783c-0.021,0.059-0.015,0.131,0.055,0.186
	c0.897,0.725,1.109,2.053,0.468,3.013c-0.364,0.544-0.992,0.888-1.519,1.254c-0.47,0.324-0.898,0.703-1.192,1.196
	c-0.654,1.092,0.104,2.312,0.79,3.173c0.638,0.806,1.479,1.432,2.404,1.869c-1.237,0.994-1.717,2.747-1.037,4.23
	c0.681,1.487,2.199,2.308,3.757,2.185c0.004,0.054,0.032,0.111,0.097,0.144c1.003,0.544,0.635,1.863,0.3,2.692
	c-0.208,0.509-0.423,1.002-0.518,1.549c-0.094,0.546-0.042,1.104,0.072,1.645c0.396,1.846,1.881,3.346,3.641,3.941
	c1.093,0.369,2.29,0.357,3.426,0.281c1.068-0.072,2.127-0.248,3.17-0.477c2.157-0.475,4.241-1.237,6.303-2.018
	c3.226-1.226,6.467-2.552,9.897-3.051c2.623,3.589,5.141,7.311,6.768,11.472c1.576,4.029,2.182,8.505,1.138,12.744
	c-0.434,1.762-1.185,3.435-2.23,4.921c-0.125,0.174,0.1,0.34,0.26,0.263l-0.042,0.096c-0.066-0.006-0.136,0.017-0.182,0.09
	c-1.802,2.733-3.734,5.381-5.792,7.929c-0.159,0.196,0.119,0.48,0.28,0.282c35.272,8.605,57.303-0.565,57.303-0.565l-0.002-0.012
	c0.092-0.03,0.172-0.114,0.152-0.236c-1.27-7.683-6.883-13.585-10.62-20.135c-1.188-2.083-2.194-4.277-2.82-6.589l0.266-0.315
	c0.031-0.007,0.063-0.021,0.093-0.06c0.561-0.68,1.417-0.992,2.259-0.884l0.022,0.065c-0.055,0.044-0.094,0.108-0.082,0.194
	c0.231,1.537,1.711,2.495,3.198,2.244c0.554-0.09,0.942,0,1.42,0.279c0.345,0.2,0.665,0.432,1.045,0.565
	c0.491,0.168,1.106,0.13,1.468-0.248c0.749,0.799,2.198,0.645,2.782-0.277c0.394,0.314,0.93,0.377,1.418,0.223
	c0.286-0.094,0.512-0.286,0.685-0.528c0.116-0.166,0.186-0.371,0.284-0.547c0.157-0.281,0.468-0.33,0.758-0.351
	c0.349-0.023,0.689-0.013,1.021-0.14c0.336-0.126,0.545-0.429,0.73-0.717c0.261-0.413,0.531-0.723,1.039-0.79
	c0.425-0.053,0.835,0.113,1.112,0.43c0.087,0.098,0.25,0.061,0.312-0.043c0.375-0.618,0.922-1.092,1.595-1.368
	c0.583-0.241,1.23-0.202,1.744-0.604c-0.1,0.192-0.408,0.782-0.02,0.1c0.025-0.043,0.05-0.092,0.073-0.143
	c0.667-0.575,0.55-1.607,0.707-2.458l0.8,0.661c0,0,0.05-0.973,0.05,0c0,1.463,1.105,1.153,1.105,1.153
	c0.906,0.234,1.405-0.19,1.664-0.588c0.121-0.107,0.222-0.236,0.285-0.396c0.347,0.137,0.707,0.193,1.089,0.152
	c0.147-0.016,0.395-0.035,0.507-0.146c0.191-0.193,0.335-0.475,0.478-0.705c0.566-0.926,0.942-1.968,1.135-3.033
	c0.211-1.149,0.043-2.315,0.203-3.467c0.15-1.089,0.805-1.943,1.792-2.409c1.06-0.499,2.064-0.085,3.133,0.109
	c0.8,0.147,1.65-0.037,2.067-0.792c0.344-0.627,0.191-1.449-0.077-2.068c-0.356-0.818-0.953-1.364-1.632-1.921
	c-0.721-0.589-1.505-1.209-1.824-2.102c0.488,0.128,0.978,0.256,1.466,0.382c0.078,0.022,0.187-0.01,0.222-0.09
	c0.478-1.06,1.783-1.273,2.773-1.619c0.503-0.176,0.987-0.395,1.4-0.739c0.197-0.165,0.354-0.374,0.483-0.594
	c0.121-0.2,0.21-0.409,0.362-0.589c0.108-0.135,0.484-0.288,0.581-0.042c0.066,0.174,0.326,0.206,0.382,0
	c0.147-0.559,0.299-1.116,0.447-1.681c0.333,0.132,0.666,0.264,0.996,0.393c0.119,0.046,0.258-0.072,0.249-0.191
	c-0.033-0.797-0.071-1.594-0.103-2.387c-0.009-0.185-0.276-0.288-0.368-0.103c-0.21,0.425-0.788-0.131-0.972-0.33
	c-0.232-0.252-0.368-0.51-0.657-0.713c-0.311-0.213-0.791-0.338-1.071-0.126c-0.562-1.046-1.121-2.096-1.682-3.143
	c0.583-0.148,0.969-1.402,1.246-1.764c0.735-0.946,2.112-1.212,3.224-1.418c0.152-0.029,0.17-0.185,0.104-0.289
	c0.068-0.104,0.092-0.217,0.099-0.305c0.057-0.008,0.112-0.021,0.176-0.061c0.287-0.177,0.162-0.688-0.172-0.665
	c0.053-0.154,0.12-0.3,0.137-0.333c0.119-0.253,0.265-0.491,0.423-0.723c0.299-0.453,0.68-0.85,1.096-1.198
	c0.625-0.526,1.518-0.721,1.972-1.428c0.363-0.567,0.449-1.293,0.592-1.938c0.138-0.626,0.318-1.398,1.038-1.558
	c0.161-0.037,0.2-0.29,0.046-0.362c-0.349-0.165-0.696-0.328-1.043-0.493c0.703-0.977,1.32-2.231,0.776-3.413
	c-0.316-0.688-1.091-1.191-1.833-1.125c0.182-0.415,0.166-0.894,0.095-1.366c-0.066-0.414-0.184-0.819-0.282-1.225
	c-0.134-0.556-0.166-1.113-0.188-1.681c-0.038-0.927-0.136-1.821-0.766-2.547c-0.294-0.338-0.684-0.57-1.1-0.639
	c1.274-1.117,1.625-3.196,0.659-4.629c1.38-1.438,2.702-2.925,3.975-4.457c0.074-0.088,0.074-0.189,0-0.279
	c-0.616-0.742-1.232-1.484-1.845-2.228c0.214-0.306,0.432-0.609,0.648-0.915c0.123-0.175,0.538-0.564,0.475-0.793
	c-0.098-0.352-0.322-0.707-0.474-1.041c-0.121-0.269-0.245-0.542-0.368-0.812c0.29-0.994,0.579-1.989,0.867-2.983
	c0.33-1.139,0.854-2.283,2.216-2.303C144.896,56.129,144.946,55.875,144.791,55.764z" class="color c1"/>
</svg>