<svg version="1.1" id="图层_1" x="0px" y="0px" width="89.683px" height="89.68px" viewBox="0 0 89.683 89.68" enable-background="new 0 0 89.683 89.68" xml:space="preserve" xmlns="http://www.w3.org/2000/svg" xmlns:xlink="http://www.w3.org/1999/xlink" xmlns:xml="http://www.w3.org/XML/1998/namespace">
  <path fill="#EA108A" d="M20.654,53c2.365-2.363,5.126-4.078,7.859-5.321c2.734-1.244,5.432-2.02,7.674-2.5
	c0.604-0.122,1.184-0.232,1.736-0.335c-0.553-0.098-1.133-0.208-1.736-0.332c-4.482-0.96-10.814-3.101-15.533-7.82
	c-0.553-0.554-1.069-1.133-1.55-1.724C9.62,36.188,1.896,43.048,0,44.844c1.896,1.813,9.62,8.659,19.104,9.879
	C19.585,54.132,20.102,53.555,20.654,53z M13.13,41.055c0.1,0,1.392-0.531,3.252-0.521c1.959-0.036,4.558,0.542,7.315,1.699
	c2.76,1.159,5.286,2.12,7.17,2.479c1.797,0.392,3.018,0.234,3.104,0.256c-0.099,0-1.379,0.531-3.251,0.518
	c-1.959,0.038-4.559-0.539-7.316-1.698c-2.772-1.158-5.285-2.12-7.17-2.477C14.436,40.917,13.216,41.076,13.13,41.055z
	 M20.126,34.216c0.16,0.199,0.333,0.407,0.505,0.604c0.296,0.332,0.604,0.655,0.911,0.974c6.935,6.934,17.628,8.166,21.666,8.376
	c0.038,0,0.074,0,0.112,0.012c-0.543-0.614-1.27-1.454-2.083-2.489c-0.417-0.529-0.85-1.108-1.28-1.734
	c-0.333-0.469-0.652-0.949-0.985-1.467c-2.488-3.843-5.456-9.842-5.456-16.516c0-0.79,0.036-1.555,0.11-2.317
	c-3.411-2.637-7.379-4.213-10.95-5.148c-4.347-1.146-8.116-1.342-9.546-1.38c0.062,2.624,0.679,12.934,6.527,20.496
	C19.806,33.821,19.968,34.019,20.126,34.216z M28.218,28.921c1.626,1.096,3.437,3.04,5.05,5.566
	c1.614,2.525,3.143,4.752,4.484,6.122c1.262,1.357,2.354,1.916,2.393,1.983c-0.134-0.065-1.472-0.38-2.959-1.431
	c-1.627-1.095-3.436-3.042-5.05-5.565c-1.612-2.525-3.142-4.755-4.483-6.123c-1.306-1.404-2.439-1.957-2.402-1.995
	C25.25,27.517,26.642,27.799,28.218,28.921z M44.256,43.305c0.036-0.813,0.11-1.919,0.284-3.226c0.084-0.666,0.184-1.38,0.32-2.143
	c0.097-0.553,0.208-1.135,0.331-1.736c0.961-4.485,3.104-10.814,7.821-15.531c0.555-0.556,1.134-1.072,1.725-1.555
	C53.506,9.606,46.659,1.885,44.846,0c-1.81,1.896-8.658,9.617-9.878,19.104c-0.035,0.243-0.06,0.502-0.086,0.75
	c-0.024,0.259-0.049,0.518-0.061,0.79c-0.023,0.442-0.037,0.885-0.037,1.33c0,9.792,6.688,18.229,9.397,21.245
	C44.207,43.244,44.231,43.282,44.256,43.305z M43.296,40.178c0.048,0-0.679-1.232-0.899-3.177c-0.272-1.947-0.012-4.584,0.8-7.465
	c0.813-2.883,1.466-5.507,1.59-7.416c0.171-1.846-0.139-3.042-0.111-3.117c0,0.075,0.688,1.297,0.898,3.168
	c0.271,1.944,0.013,4.593-0.801,7.477c-0.811,2.88-1.466,5.504-1.589,7.413C43.01,38.97,43.344,40.191,43.296,40.178z M45.523,43.22
	c0,0.038,0,0.073-0.012,0.11c0.603-0.553,1.441-1.28,2.489-2.081c0.529-0.407,1.107-0.837,1.737-1.28
	c0.466-0.335,0.947-0.653,1.464-0.985c3.844-2.489,9.842-5.456,16.518-5.456c0.788,0,1.553,0.038,2.315,0.11
	c5.851-7.575,6.467-17.885,6.527-20.496c-2.623,0.049-12.932,0.667-20.495,6.516c-0.196,0.148-0.395,0.308-0.592,0.469
	c-0.195,0.16-0.406,0.332-0.603,0.519c-0.333,0.294-0.653,0.591-0.974,0.909C46.965,28.487,45.733,39.18,45.523,43.22z
	 M60.377,27.172c1.369-1.309,1.911-2.428,1.972-2.428c-0.036-0.014-0.307,1.392-1.404,2.981c-1.069,1.638-2.992,3.475-5.505,5.111
	c-2.514,1.638-4.717,3.19-6.073,4.556c-1.345,1.288-1.893,2.383-1.959,2.419c0.063-0.134,0.354-1.47,1.394-2.972
	c1.071-1.638,2.992-3.472,5.506-5.111C56.818,30.09,59.023,28.538,60.377,27.172z M69.838,34.882
	c-0.257-0.024-0.517-0.049-0.787-0.063c-0.443-0.024-0.888-0.035-1.331-0.035c-9.792,0-18.23,6.687-21.247,9.396
	c-0.024,0.024-0.062,0.051-0.086,0.072c0.825,0.038,1.923,0.113,3.227,0.285c0.665,0.085,1.38,0.184,2.144,0.319
	c0.555,0.097,1.146,0.211,1.736,0.334c4.482,0.961,10.814,3.104,15.531,7.821c0.557,0.554,1.073,1.133,1.554,1.724
	c9.484-1.219,17.206-8.08,19.104-9.879c-1.885-1.821-9.608-8.67-19.092-9.89C70.344,34.93,70.084,34.908,69.838,34.882z
	 M73.854,43.552c-0.074,0-1.269,0.752-3.129,1.036c-1.921,0.345-4.581,0.222-7.501-0.467c-2.919-0.69-5.566-1.222-7.476-1.26
	c-1.862-0.084-3.044,0.286-3.118,0.26c0.074,0,1.27-0.751,3.131-1.033c1.935-0.358,4.58-0.222,7.501,0.467
	c2.918,0.689,5.554,1.218,7.476,1.256C72.598,43.896,73.779,43.528,73.854,43.552z M69.567,55.476
	c-0.16-0.198-0.333-0.407-0.517-0.604c-0.297-0.331-0.592-0.653-0.912-0.972c-6.935-6.934-17.626-8.166-21.666-8.376
	c-0.036,0-0.073,0-0.11-0.013c0.554,0.604,1.28,1.442,2.081,2.488c0.406,0.528,0.85,1.109,1.295,1.736
	c0.332,0.467,0.65,0.947,0.984,1.466c2.488,3.845,5.457,9.843,5.457,16.517c0,0.789-0.038,1.555-0.124,2.317
	c7.575,5.851,17.884,6.464,20.507,6.527c-0.061-2.611-0.677-12.933-6.527-20.495C69.888,55.871,69.728,55.672,69.567,55.476z
	 M63.508,62.09c-1.664-1.034-3.535-2.931-5.222-5.406c-1.7-2.476-3.291-4.645-4.683-5.975c-1.354-1.366-2.5-1.885-2.464-1.923
	c0,0.038,1.404,0.284,3.019,1.344c1.664,1.035,3.537,2.931,5.222,5.409c1.688,2.476,3.289,4.642,4.683,5.972
	c1.31,1.323,2.414,1.844,2.452,1.912C66.382,63.362,65.03,63.094,63.508,62.09z M45.451,46.384
	c-0.038,0.828-0.112,1.923-0.284,3.228c-0.086,0.667-0.185,1.382-0.321,2.145c-0.098,0.556-0.207,1.134-0.331,1.737
	c-0.96,4.484-3.104,10.813-7.822,15.533c-0.553,0.553-1.134,1.071-1.725,1.549c1.22,9.497,8.082,17.22,9.878,19.104
	c1.813-1.896,8.66-9.617,9.879-19.104c0.036-0.246,0.063-0.492,0.087-0.75c0.023-0.259,0.048-0.518,0.062-0.79
	c0.024-0.442,0.036-0.885,0.036-1.327c0.013-9.782-6.688-18.22-9.386-21.235C45.5,46.448,45.476,46.41,45.451,46.384z
	 M46.743,54.919c0.395,1.923,0.321,4.572-0.307,7.503c-0.631,2.934-1.098,5.58-1.098,7.501c-0.05,1.862,0.347,3.042,0.32,3.105
	c0-0.072-0.776-1.243-1.107-3.105c-0.395-1.921-0.32-4.567,0.309-7.501c0.627-2.931,1.094-5.58,1.094-7.503
	c0.05-1.858-0.342-3.04-0.318-3.101C45.636,51.891,46.411,53.061,46.743,54.919z M44.169,46.485c0-0.037,0-0.075,0.013-0.111
	c0.012-0.347,0.025-0.629,0.036-0.863v-0.012h-0.024v-0.014c-0.231,0.014-0.517,0.014-0.861,0.038c-0.036,0-0.073,0-0.11,0.011
	c-4.04,0.224-14.745,1.453-21.668,8.377c-0.318,0.32-0.614,0.639-0.911,0.974c-0.173,0.196-0.345,0.393-0.517,0.601
	c-0.158,0.199-0.32,0.396-0.469,0.594c-5.849,7.563-6.466,17.859-6.527,20.483c2.611-0.063,12.933-0.677,20.496-6.516
	c0.196-0.148,0.394-0.308,0.591-0.468c0.198-0.161,0.406-0.332,0.604-0.518c0.331-0.296,0.651-0.593,0.972-0.911
	C42.729,61.214,43.962,50.522,44.169,46.485z M28.65,58.394c-1.54,1.098-2.231,2.119-2.291,2.119
	c0.05-0.025,0.517-1.354,1.822-2.748c1.295-1.464,3.461-3.004,6.183-4.262c2.722-1.268,5.124-2.475,6.664-3.632
	c1.539-1.098,2.241-2.118,2.292-2.118c-0.062,0.025-0.53,1.355-1.823,2.746c-1.294,1.465-3.461,3.004-6.183,4.262
	C32.592,56.03,30.19,57.236,28.65,58.394z" class="color c1"/>
</svg>