<svg version="1.1" id="图层_1" x="0px" y="0px" width="138.448px" height="180px" viewBox="0 0 138.448 180" enable-background="new 0 0 138.448 180" xml:space="preserve" xmlns="http://www.w3.org/2000/svg" xmlns:xlink="http://www.w3.org/1999/xlink" xmlns:xml="http://www.w3.org/XML/1998/namespace">
  <path fill="#292C2D" d="M138.448,98.19c-0.017-9.245-6.38-17.267-15.378-19.389c0.005-8.173-0.673-16.334-2.026-24.396
	c6.65-19.075,0.048-40.257-16.265-52.175c-5.3-3.766-12.633-2.657-16.58,2.51c-3.248,4.249-6.017,4.693-11.564,4.693
	c-0.611,0-1.219-0.007-1.82-0.013c-0.428-0.005-0.854-0.008-1.276-0.01c-1.501-0.091-2.949-0.136-4.414-0.136
	c-23.313,0-39.871,10.607-47.884,30.676c-4.992,12.501-5.897,26.866-6.063,38.901C4.497,81.471-2.04,92.25,0.577,102.931
	c1.875,7.653,8.086,13.48,15.843,14.864c-1.227,7.435-1.738,14.972-1.53,22.505C14.889,162.226,39.17,180,69.125,180
	c29.952,0,54.235-17.773,54.235-39.699c0.207-7.523-0.303-15.051-1.525-22.475C131.416,116.199,138.429,107.906,138.448,98.19z
	 M118.513,106.055c-0.135,0-0.258-0.033-0.39-0.04c-0.13-0.279-0.286-0.551-0.424-0.83c0.122-1.402,0.206-2.814,0.206-4.244
	c0-1.386,0.018-2.843,0.035-4.354c0.023-1.962,0.044-4.049,0.035-6.206c0.181-0.013,0.354-0.054,0.537-0.054
	c4.344,0,7.863,3.521,7.863,7.864C126.376,102.534,122.857,106.055,118.513,106.055z M110.953,127.464
	c0.337,4.387,0.337,8.777,0.337,12.836c0,14.977-19.31,27.629-42.165,27.629c-22.856,0-42.165-12.652-42.165-27.629
	c0-4.059,0-8.449,0.337-12.836c1.859,0.596,3.801,0.902,5.754,0.906c5.333,0,10.396-2.031,16.26-4.385
	c6.135-2.463,13.087-5.252,19.814-5.252c6.729,0,13.681,2.792,19.814,5.252c5.863,2.354,10.928,4.385,16.26,4.385
	C107.152,128.367,109.092,128.06,110.953,127.464L110.953,127.464z M12.075,98.19c0-4.343,3.521-7.864,7.863-7.864l0,0
	c0.188,0,0.364,0.042,0.548,0.055c-0.138,3.751-0.143,7.321-0.143,10.562c0,1.428,0.084,2.841,0.206,4.244
	c-0.141,0.285-0.301,0.563-0.436,0.85c-0.059,0.002-0.115,0.019-0.176,0.019C15.596,106.056,12.075,102.534,12.075,98.19
	L12.075,98.19L12.075,98.19z M73.132,21.481c1.143,0.002,2.313,0.022,3.502,0.022c6.908,0,14.469-0.688,21.154-9.432
	c0,0,21.345,15.186,11.035,40.496c-2.949-3.633-7.737-5.226-12.274-4.085c-2.479,0.616-5.025,0.93-7.578,0.933
	c-3.213,0.03-6.403-0.535-9.41-1.666c-6.88-2.785-14.214-4.279-21.635-4.412c-10.983-0.418-21.555,4.197-28.717,12.534
	c3.505-18.309,13.176-34.525,39.914-34.525C70.506,21.347,71.838,21.395,73.132,21.481L73.132,21.481z M32.414,100.94
	c0-10.838,0.006-25.466,5.616-36.737c0.004-0.008,5.643-8.796,19.896-8.795c5.938,0.127,11.801,1.349,17.295,3.604
	c4.394,1.663,9.054,2.502,13.751,2.476c3.543-0.005,7.073-0.439,10.513-1.297c7.603,11.589,6.351,28.754,6.351,40.751
	c0.002,5.182-1.103,10.305-3.235,15.027c-7.672-1.657-19.804-9.307-33.475-9.307s-25.802,7.649-33.474,9.307
	C33.517,111.247,32.414,106.124,32.414,100.94z" class="color c1"/>
</svg>