<svg version="1.1" id="图层_1" x="0px" y="0px" width="90.572px" height="112.934px" viewBox="0 0 90.572 112.934" enable-background="new 0 0 90.572 112.934" xml:space="preserve" xmlns="http://www.w3.org/2000/svg" xmlns:xlink="http://www.w3.org/1999/xlink" xmlns:xml="http://www.w3.org/XML/1998/namespace">
  <path fill="#7A5539" d="M0.059,17.087c0,0-3.313,44.944,39.901,45.375C39.961,62.461,7.693,55.115,0.059,17.087z M60.918,85.348
	c0,0-27.439-6.698-43.213-23.336c0,0,4.105,18.581,19.23,21.175c0,0,6.05,18.149,20.743,21.821c0,0-10.806-5.832-10.156-19.014
	C47.522,85.996,53.356,88.156,60.918,85.348z M74.388,62.012c0,0-19.268-17.719-44.042-29.817c0,0-23.49-10.588-30.346-32.195
	C0,0,3.066,25.497,28.13,37.813c0,0,38.84,23.334,50.075,47.103c0,0,7.129,18.438-6.699,28.019
	C71.506,112.933,112.415,96.943,74.388,62.012z" class="color c1"/>
</svg>