<svg version="1.1" id="图层_1" x="0px" y="0px" width="190px" height="190px" viewBox="0 0 190 190" enable-background="new 0 0 190 190" xml:space="preserve" xmlns="http://www.w3.org/2000/svg" xmlns:xlink="http://www.w3.org/1999/xlink" xmlns:xml="http://www.w3.org/XML/1998/namespace">
  <path fill="#8AC64C" d="M97.066,95L97.066,95L97.066,95c25.662,25.663,67.271,25.663,92.934,0l0,0
	C164.337,69.337,122.729,69.337,97.066,95z M115.005,98.977c-2.192,0-3.978-1.783-3.978-3.978c0-2.193,1.785-3.978,3.978-3.978
	c2.193,0,3.979,1.785,3.979,3.978C118.982,97.193,117.198,98.977,115.005,98.977z" class="color c1"/>
  <path fill="#8AC64C" d="M95,0c-25.663,25.663-25.663,67.271,0,92.934C120.663,67.271,120.663,25.663,95,0z M91.022,74.995
	c0-2.193,1.784-3.978,3.978-3.978c2.193,0,3.979,1.785,3.979,3.978c0,2.193-1.785,3.978-3.979,3.978
	C92.806,78.973,91.022,77.188,91.022,74.995z" class="color c1"/>
  <path fill="#8AC64C" d="M0,95c25.663,25.662,67.271,25.662,92.933,0C67.271,69.337,25.663,69.337,0,95z M74.994,98.977
	c-2.192,0-3.978-1.783-3.978-3.978c0-2.193,1.785-3.978,3.978-3.978c2.193,0,3.979,1.785,3.979,3.978
	C78.973,97.193,77.188,98.977,74.994,98.977z" class="color c1"/>
  <path fill="#8AC64C" d="M95,190c25.663-25.663,25.663-67.271,0-92.934C69.337,122.729,69.337,164.337,95,190z M98.979,115.006
	c0,2.192-1.785,3.977-3.979,3.977c-2.194,0-3.978-1.783-3.978-3.977s1.784-3.979,3.978-3.979
	C97.193,111.027,98.979,112.813,98.979,115.006z" class="color c1"/>
</svg>