<svg version="1.1" id="图层_1" x="0px" y="0px" width="161.252px" height="131.009px" viewBox="0 0 161.252 131.009" enable-background="new 0 0 161.252 131.009" xml:space="preserve" xmlns="http://www.w3.org/2000/svg" xmlns:xlink="http://www.w3.org/1999/xlink" xmlns:xml="http://www.w3.org/XML/1998/namespace">
  <path fill="#633188" d="M158.039,64.049c-0.656-1.364-4.148-7.609-12.775-7.904c1.111-3.214,1.477-5.999,1.348-8.372
	c-0.441-8.153-6.246-11.833-7.533-12.554c-0.877-0.839-4.576-4.015-10.295-4.015c-0.768,0-1.574,0.084-2.393,0.21
	c0.225-4.694-0.471-8.356-1.654-11.193c-3.479-8.341-10.91-9.989-12.447-10.242c-0.775-0.351-3.268-1.339-6.592-1.339
	c-1.939,0-4.42,0.377-7.08,1.624c-0.416-0.779-0.848-1.527-1.328-2.225C92.486,1.044,85.925,0,82.443,0
	c-0.848,0-1.477,0.062-1.817,0.106C80.291,0.064,79.658,0,78.814,0C75.33,0,68.766,1.044,63.961,8.039
	c-0.479,0.697-0.911,1.445-1.327,2.225c-2.661-1.247-5.14-1.624-7.084-1.624c-3.324,0-5.813,0.988-6.588,1.339
	c-1.537,0.253-8.965,1.901-12.444,10.237c-1.184,2.84-1.875,6.504-1.652,11.198c-0.82-0.126-1.624-0.21-2.392-0.21
	c-5.725,0-9.421,3.176-10.295,4.015c-1.288,0.721-7.091,4.398-7.537,12.554c-0.129,2.376,0.235,5.158,1.347,8.372
	c-8.631,0.296-12.119,6.54-12.774,7.904c-0.924,1.089-4.797,6.257-2.493,13.58c4.16,13.225,26.233,25.07,64.125,34.549
	c-1.868,3.26-5.015,9.943-2.476,14.426c2.821,4.969,10.525,4.488,15.612,4.168c0.366-0.023,0.685-0.041,1.012-0.059
	c0.437,0.178,0.898,0.297,1.394,0.297c0.091,0,0.176-0.004,0.243-0.008c0.072,0.004,0.156,0.008,0.248,0.008
	c0.465,0,0.902-0.109,1.318-0.27c0.215,0.014,0.408,0.025,0.639,0.041c1.4,0.102,3.064,0.217,4.805,0.217
	c4.369,0,9.174-0.742,11.242-4.395c2.541-4.482-0.605-11.166-2.477-14.422c37.895-9.482,59.965-21.326,64.127-34.551
	C162.833,70.306,158.958,65.138,158.039,64.049z" class="color c1"/>
</svg>