<svg version="1.1" id="图层_1" x="0px" y="0px" width="198.211px" height="219.77px" viewBox="0 0 198.211 219.77" enable-background="new 0 0 198.211 219.77" xml:space="preserve" xmlns="http://www.w3.org/2000/svg" xmlns:xlink="http://www.w3.org/1999/xlink" xmlns:xml="http://www.w3.org/XML/1998/namespace">
  <path fill="#FFFFFF" d="M130.29,205.418c0-1.471,0.231-2.938,0.231-4.416c0-2.283,0.244-4.584,0.335-6.867
	c0.191-4.81,0.129-9.626,0.129-14.439c0-4.354-0.379-8.728-0.596-13.075c-0.129-2.577-0.325-5.144-0.613-7.708
	c-0.139-1.241-0.293-2.48-0.453-3.72c-0.148-1.15-0.424-2.378-0.424-3.536c0.551,1.373,0.904,2.8,1.428,4.174
	c0.582,1.525,1.131,3.063,1.672,4.604c1.051,2.982,2.178,5.939,3.211,8.928c1.828,5.284,3.547,10.608,5.006,16.009
	c1.507,5.576,2.828,11.234,3.91,16.909c0.26,1.354,0.494,2.715,0.765,4.066c0,0.39,0.166,0.911-0.249,1.099
	c-0.598,0.271-1.284,0.37-1.926,0.481c-2.961,0.511-5.969,0.694-8.971,0.729c-0.865,0.012-2.494,0.322-3.277-0.091
	c-0.409-0.217-0.408-0.656-0.408-1.061C130.284,206.83,130.29,206.12,130.29,205.418z M101.788,117.127
	c-0.654-5.888-2.709-11.31-5.1-16.687c-1.216-2.735-2.273-5.46-2.165-8.51c0.103-2.868,0.929-5.768,1.558-8.555
	c1.3-5.762,1.322-11.832-0.58-17.464c-0.433-1.279-0.961-2.526-1.591-3.722c-0.64-1.211-1.573-2.307-1.996-3.617
	c-0.71-2.204-0.2-4.773,1.172-6.62c2.583-3.477,7.646-3.385,11.102-1.339c1.613,0.954,2.82,2.427,3.686,4.072
	c0.457,0.871,0.901,1.823,1.186,2.768c0.225,0.749,0.255,1.491,0.607,2.2c0.668-0.715,1.24-1.32,1.73-2.188
	c0.688-1.213,0.863-2.566,1.561-3.771c1.203-2.083,2.75-3.687,5.36-3.532c2.442,0.144,4.519,2.232,4.828,4.614
	c0.362,2.778-1.589,5.301-3.063,7.474c-1.635,2.407-2.728,5.244-2.226,8.191c0.489,2.871,2.272,5.464,3.703,7.942
	c1.431,2.479,2.998,4.92,4.252,7.492c1.317,2.704,1.741,6.016,1.756,8.994c0.029,6.141-2.181,12.065-3.284,18.049
	c-1.014,5.476-1.223,11.017-0.859,16.569c0.416,6.351,1.656,12.649,2.561,18.942c0.71,4.945,1.389,9.919,1.827,14.897
	c0.519,5.872,0.728,11.801,0.825,17.692c0.103,6.107-0.266,12.18-0.438,18.278c-0.041,1.415-0.172,2.837-0.244,4.252
	c-0.066,1.344-0.341,2.702-0.947,3.911c-0.985,1.961-2.393,3.955-4.578,4.646c-1.073,0.339-2.16,0.271-3.27,0.251
	c-1.57-0.026-3.138-0.132-4.707-0.188c-3.01-0.108-6.024-0.009-9.035-0.039c-1.438-0.014-2.84-0.229-4.277-0.229
	c-1.467,0-2.981-0.104-4.442,0.032c-2.72,0.256-5.145,1.783-7.75,2.456c-2.717,0.702-5.267,0.104-7.961-0.378
	c-2.586-0.463-5.07-1.297-7.676-1.676c-2.827-0.41-5.689-0.092-8.485,0.376c-2.74,0.458-5.076-0.938-7.643-1.596
	c-2.68-0.687-5.521-0.27-8.144-1.104c-2.214-0.705-3.971-1.883-4.885-4.102c-0.806-1.956-0.728-4.223,0.268-6.098
	c1.119-2.111,3.098-3.219,5.351-3.757c5.791-1.384,11.176-3.572,16.215-6.759c9.588-6.063,16.975-14.879,22.831-24.488
	c4.174-6.85,7.527-14.189,10.018-21.813C101.553,134.682,102.95,125.85,101.788,117.127
	C101.323,112.955,102.25,120.603,101.788,117.127z M110.825,54.79c-4.172-6.411-8.344-12.823-12.515-19.234
	c0.495,0.098,1.317-0.645,1.702-0.92c0.627-0.447,1.214-0.95,1.749-1.504c1.124-1.165,1.993-2.555,2.573-4.064
	c0.231-0.464-1.158,3.014,0,0c0.357-0.718,0.927-0.721,1.623-0.927c1.475-0.516,2.961-1.01,4.401-1.618
	c0.81-0.343,1.708-0.722,2.332-1.362c0.496-0.511,0.429-1.001,0.449-1.653c-1.46,0.729-2.833,1.632-4.291,2.375
	c-2.263,1.153-4.543,1.137-6.501-0.612c-1.746-1.559-2.796-4.007-2.346-6.347c0.356-1.866,1.715-2.962,2.709-4.454
	c-0.541-0.154-1.08-0.31-1.621-0.464c0.875-0.583,1.644-0.302,2.549,0c-0.313-0.625-0.639-1.196-1.18-1.658
	c-0.207-0.178-0.906-0.516-0.906-0.774c0-0.383,0.193-0.772,0.464-1.042c0.468-0.938,1.021-1.83,1.628-2.683
	c0.593-0.83,1.18-1.953,2.313-1.953c1.683,0.24,3.131,1.404,3.387,3.146c0.251,1.712-0.883,2.927-1.996,4.039
	c1.984,1.323,4.344,2.353,5.845,4.275c0.347,0.445,0.649,0.923,0.938,1.407c0.16,0.266,0.314,0.534,0.469,0.803
	c0.34,0.596,0.387,0.724,0.163,1.394c-0.329,0.989-0.642,1.919-0.683,2.97c-0.019,0.455-0.045,2.593,0.684,2.593
	c-1.268,1.689-1.835,3.859-1.702,5.956c0.149,2.391,1.567,4.085,2.243,6.29c0.629,2.052,0.601,4.27-0.04,6.313
	c-0.349,1.111-0.871,2.167-1.531,3.127c-0.217,0.314-0.676,0.691-0.795,1.052 M105.935,1.978c0,0,0.25-0.171,0.718-0.49
	c0.452-0.334,1.188-0.767,2.191-1.134c0.986-0.392,2.384-0.541,3.805-0.011c1.434,0.525,2.702,1.793,3.631,3.372
	c0.946,1.58,1.639,3.469,2.102,5.516c0.486,2.051,0.57,4.277,0.697,6.541c0.147,2.24,0.082,4.676,1.198,6.679
	c1.119,1.999,3.242,3.281,5.362,4.333c2.189,1.051,4.313,2.388,6.137,3.987c1.821,1.6,3.403,3.577,4.064,5.927
	c0.322,1.173,0.312,2.402,0.091,3.545l-0.216,0.842c-0.104,0.327-0.203,0.52-0.305,0.784c-0.185,0.491-0.439,0.981-0.69,1.466
	c-0.997,1.909-2.294,3.463-3.552,4.796c-1.263,1.335-2.519,2.435-3.586,3.448c-1.071,1.009-1.987,1.9-2.707,2.674
	c-0.722,0.767-1.254,1.405-1.594,1.855c-0.345,0.45-0.527,0.689-0.527,0.689l-0.084-0.055c0,0,0.166-0.255,0.479-0.73
	c0.309-0.479,0.797-1.16,1.469-1.987c0.658-0.839,1.532-1.796,2.563-2.854c1.028-1.063,2.202-2.243,3.403-3.578
	c1.191-1.335,2.396-2.876,3.276-4.688c0.218-0.445,0.437-0.897,0.62-1.409c0.088-0.233,0.223-0.528,0.273-0.719l0.182-0.736
	c0.182-0.996,0.188-2.05-0.102-3.074c-0.555-2.063-1.98-3.929-3.689-5.493c-1.73-1.573-3.716-2.89-5.867-3.975
	c-1.102-0.536-2.152-1.194-3.146-1.93c-0.971-0.769-1.867-1.68-2.459-2.789c-0.598-1.104-0.871-2.331-0.983-3.509
	c-0.12-1.182-0.153-2.341-0.19-3.474c-0.088-2.264-0.146-4.449-0.578-6.467c-0.412-2.018-1.053-3.881-1.94-5.438
	c-0.873-1.557-2.069-2.794-3.422-3.318c-1.341-0.532-2.687-0.425-3.66-0.061c-0.985,0.337-1.714,0.743-2.179,1.071
	c-0.475,0.311-0.729,0.477-0.729,0.477L105.935,1.978z M99.001,9.801c-1.058,1.43-2.119,2.861-3.058,4.356
	c-0.45,0.759-0.945,1.491-1.293,2.298l-0.57,1.18l-0.441,1.237l-1.52,5.094c-0.549,1.716-1.206,3.44-2.274,5.001
	c-1.067,1.528-2.465,2.805-3.807,3.968c-1.369,1.157-2.76,2.246-3.947,3.464c-1.188,1.211-2.111,2.604-2.384,4.14
	c-0.103,0.378-0.102,0.771-0.098,1.163c-0.037,0.391,0.062,0.786,0.119,1.181c0.042,0.382,0.159,0.803,0.271,1.243
	c0.104,0.438,0.222,0.854,0.351,1.255c0.485,1.639,1.174,3.257,1.795,4.946c0.629,1.676,1.182,3.544,1.168,5.492
	c-0.002,1.954-0.632,3.81-1.422,5.476l-1.265,2.387c-0.445,0.794-0.896,1.564-1.271,2.316c-0.766,1.511-1.113,3.06-0.731,4.634
	l0.024,0.146l0.006,0.037c0.006,0.023-0.051-0.142-0.022-0.063l0.007,0.02l0.031,0.077l0.125,0.311l0.249,0.618l0.249,0.618
	c0.095,0.19,0.204,0.362,0.305,0.545l0.615,1.085l0.746,1.063c0.471,0.728,1.084,1.363,1.619,2.051
	c0.594,0.646,1.17,1.309,1.795,1.929c1.237,1.253,2.521,2.473,3.822,3.681l-0.028-0.021c1.183,0.843,2.395,1.674,3.632,2.478
	l1.801,1.295c0.561,0.486,1.101,0.995,1.646,1.487l-0.07,0.07c-0.562-0.47-1.113-0.953-1.683-1.413l-1.832-1.221
	c-1.261-0.755-2.504-1.542-3.734-2.354l-0.002-0.002l-0.003-0.002c-1.346-1.162-2.686-2.335-3.955-3.584
	c-0.645-0.613-1.244-1.272-1.86-1.916c-0.563-0.689-1.197-1.321-1.7-2.062l-0.792-1.078l-0.687-1.154
	c-0.111-0.192-0.233-0.383-0.336-0.58l-0.262-0.612c-0.157-0.42-0.39-0.794-0.483-1.251c-0.493-1.753-0.078-3.629,0.726-5.211
	c0.393-0.804,0.838-1.574,1.266-2.352l1.23-2.362c0.742-1.598,1.306-3.318,1.292-5.089c-0.001-1.768-0.511-3.489-1.146-5.142
	c-0.629-1.66-1.295-3.314-1.796-5.029c-0.475-1.693-0.987-3.489-0.623-5.279c0.335-1.784,1.409-3.328,2.661-4.585
	c1.26-1.27,2.676-2.356,4.04-3.492c1.363-1.136,2.705-2.313,3.75-3.744c1.029-1.438,1.711-3.101,2.282-4.774
	c0.571-1.681,1.036-3.398,1.654-5.074l0.495-1.24l0.626-1.183c0.386-0.807,0.912-1.528,1.395-2.276
	c1.002-1.474,2.114-2.864,3.223-4.254L99.001,9.801z M85.212,81.77c0,0,0.051,0.659,0.145,1.896c0.08,1.236,0.264,3.047,0.352,5.362
	c0.116,2.307,0.121,5.161-0.595,8.332c-0.69,3.152-2.21,6.617-4.44,9.881c-2.162,3.337-4.74,6.829-7.777,10.228
	c-3.012,3.423-6.37,6.876-10.039,10.227c-7.281,6.767-15.547,13.396-23.29,20.568c-3.9,3.555-7.555,7.353-11.139,11.135
	c-3.565,3.772-6.918,7.644-9.979,11.521c-1.56,1.921-2.949,3.914-4.362,5.826c-1.316,1.979-2.657,3.884-3.787,5.846
	c-1.217,1.913-2.195,3.888-3.212,5.76c-0.467,0.956-0.89,1.914-1.325,2.846c-0.215,0.467-0.428,0.93-0.64,1.388
	c-0.183,0.469-0.363,0.934-0.542,1.395c-0.355,0.922-0.703,1.824-1.043,2.706c-0.308,0.895-0.554,1.784-0.83,2.643
	c-0.59,1.706-0.937,3.38-1.298,4.945c-0.418,1.557-0.548,3.061-0.774,4.434c-0.248,1.372-0.304,2.649-0.374,3.804
	c-0.049,1.153-0.193,2.183-0.142,3.081c0.02,0.896,0.037,1.662,0.051,2.281c0.027,1.238,0.042,1.899,0.042,1.899
	s-0.03-0.66-0.086-1.897c-0.028-0.62-0.063-1.386-0.104-2.283c-0.072-0.899,0.048-1.932,0.07-3.09
	c0.044-1.158,0.07-2.443,0.287-3.826c0.195-1.384,0.292-2.9,0.675-4.474c0.327-1.583,0.639-3.279,1.191-5.011
	c0.255-0.87,0.497-1.771,0.795-2.676c0.33-0.894,0.669-1.808,1.015-2.742c0.175-0.466,0.352-0.938,0.529-1.413
	c0.207-0.464,0.416-0.933,0.626-1.405c0.427-0.943,0.841-1.916,1.3-2.888c0.998-1.898,1.96-3.903,3.16-5.847
	c1.115-1.994,2.438-3.929,3.74-5.94c1.39-1.949,2.8-3.95,4.354-5.895c3.066-3.918,6.414-7.816,9.985-11.628
	c3.562-3.79,7.229-7.639,11.139-11.227c7.813-7.174,16.099-13.763,23.38-20.472c3.657-3.335,7.05-6.708,10.084-10.071
	c3.066-3.345,5.652-6.756,7.846-10.044c2.276-3.272,3.79-6.544,4.565-9.664c0.778-3.105,0.841-5.941,0.777-8.244
	c-0.035-2.313-0.177-4.127-0.229-5.365C85.248,82.43,85.212,81.77,85.212,81.77z M89.712,93.77c0,0-0.068,0.522-0.195,1.503
	c-0.135,0.979-0.301,2.419-0.569,4.245c-0.518,3.652-1.25,8.877-2.452,15.095c-0.597,3.109-1.332,6.463-2.202,9.987
	c-0.917,3.513-1.916,7.217-3.252,10.954c-1.31,3.742-2.808,7.567-4.62,11.321c-0.856,1.901-1.876,3.741-2.851,5.611
	c-0.51,0.924-1.059,1.827-1.587,2.744l-0.801,1.371l-0.859,1.336l-1.752,2.673l-1.889,2.526c-1.284,1.665-2.584,3.326-3.896,4.933
	c-2.611,3.232-5.231,6.364-7.687,9.454c-2.469,3.08-4.779,6.11-6.854,9.067c-1.017,1.492-2.021,2.934-2.885,4.396
	c-0.437,0.729-0.902,1.424-1.295,2.142c-0.391,0.72-0.774,1.426-1.15,2.117c-0.797,1.361-1.333,2.776-1.969,4.063
	c-0.605,1.302-1.015,2.604-1.489,3.792c-0.782,2.434-1.382,4.591-1.637,6.415c-0.39,1.805-0.414,3.256-0.499,4.24
	c-0.072,0.986-0.111,1.512-0.111,1.512s0.02-0.525,0.057-1.514c0.055-0.986,0.013-2.448,0.361-4.27
	c0.208-1.841,0.751-4.026,1.476-6.501c0.445-1.209,0.825-2.534,1.399-3.862c0.292-0.662,0.591-1.343,0.896-2.037
	c0.155-0.349,0.312-0.698,0.471-1.055c0.18-0.345,0.361-0.691,0.545-1.044c0.368-0.703,0.743-1.422,1.126-2.153
	c0.385-0.731,0.841-1.438,1.27-2.18c0.847-1.488,1.833-2.957,2.833-4.476c2.038-3.009,4.304-6.104,6.775-9.194
	c2.446-3.112,5.052-6.262,7.639-9.5c1.306-1.614,2.575-3.257,3.846-4.924l1.876-2.537l1.7-2.624l0.857-1.317l0.801-1.354
	c0.528-0.904,1.077-1.797,1.586-2.709c0.976-1.849,1.996-3.664,2.854-5.545c1.817-3.712,3.323-7.498,4.644-11.207
	c1.33-3.709,2.399-7.368,3.366-10.851c0.923-3.495,1.711-6.825,2.355-9.917c1.288-6.185,2.214-11.373,2.811-15.013
	C89.365,95.849,89.712,93.77,89.712,93.77z M128.711,91.77c0,0,0.101,0.56,0.289,1.607c0.094,0.522,0.209,1.17,0.345,1.93
	c0.122,0.764,0.405,1.606,0.639,2.569c0.25,0.959,0.509,2.023,0.931,3.146c0.416,1.12,0.75,2.373,1.326,3.631
	c1.041,2.557,2.344,5.389,3.983,8.361c0.409,0.743,0.829,1.502,1.256,2.275c0.459,0.754,0.927,1.522,1.401,2.306
	c0.924,1.581,2.021,3.13,3.078,4.761c2.224,3.197,4.639,6.52,7.275,9.854c2.622,3.345,5.415,6.736,8.309,10.143
	c1.447,1.702,2.908,3.419,4.373,5.143c0.726,0.88,1.483,1.685,2.188,2.63l2.085,2.691c2.746,3.624,5.483,7.257,8.063,10.918
	c2.586,3.655,5.063,7.306,7.31,10.936c2.298,3.599,4.276,7.226,6.104,10.685c1.754,3.499,3.33,6.851,4.588,10.025
	c1.295,3.16,2.291,6.133,3.082,8.789c0.373,1.336,0.742,2.58,1.045,3.74c0.267,1.169,0.511,2.242,0.73,3.214
	c0.108,0.484,0.213,0.943,0.309,1.376c0.074,0.438,0.142,0.847,0.205,1.228c0.127,0.762,0.233,1.41,0.32,1.937
	c0.174,1.05,0.268,1.609,0.268,1.609s-0.111-0.557-0.32-1.601c-0.104-0.522-0.232-1.165-0.385-1.922
	c-0.141-0.759-0.325-1.625-0.586-2.584c-0.243-0.962-0.514-2.026-0.807-3.188c-0.332-1.147-0.73-2.379-1.136-3.7
	c-0.376-1.328-0.938-2.69-1.453-4.15c-0.499-1.467-1.151-2.96-1.793-4.533c-1.3-3.14-2.918-6.449-4.714-9.902
	c-1.872-3.413-3.902-6.98-6.193-10.562c-2.252-3.602-4.738-7.224-7.334-10.854c-2.589-3.638-5.341-7.244-8.095-10.851l-2.071-2.702
	c-0.646-0.882-1.438-1.737-2.146-2.604c-1.457-1.731-2.908-3.455-4.35-5.166c-2.879-3.425-5.664-6.841-8.279-10.21
	c-2.645-3.349-5.008-6.735-7.193-9.979c-1.041-1.658-2.117-3.229-3.023-4.835c-0.467-0.793-0.924-1.574-1.375-2.34
	c-0.418-0.784-0.828-1.555-1.229-2.309c-1.616-3.012-2.854-5.896-3.835-8.492c-0.547-1.276-0.854-2.547-1.242-3.682
	c-0.396-1.134-0.631-2.215-0.857-3.186c-0.213-0.973-0.473-1.827-0.566-2.594c-0.109-0.765-0.205-1.413-0.281-1.94
	C128.793,92.331,128.711,91.77,128.711,91.77z M126.211,122.77c0,0,0.541,1.292,1.488,3.554c0.233,0.565,0.492,1.192,0.774,1.876
	c0.289,0.679,0.653,1.39,1.013,2.16c0.758,1.528,1.51,3.292,2.506,5.142c0.977,1.855,1.979,3.893,3.18,5.978
	c1.158,2.105,2.414,4.307,3.723,6.58c1.314,2.271,2.673,4.618,4.055,7.003c1.369,2.394,2.801,4.801,4.155,7.258
	c0.673,1.23,1.345,2.463,2.015,3.688c0.59,1.273,1.178,2.542,1.762,3.8c0.606,1.234,1.074,2.54,1.595,3.793
	c0.519,1.259,1.015,2.506,1.429,3.755c0.426,1.247,0.895,2.456,1.26,3.67c0.364,1.214,0.723,2.399,1.069,3.556
	c0.656,2.319,1.254,4.521,1.769,6.559c1.041,4.073,1.781,7.496,2.354,9.878c0.546,2.391,0.856,3.755,0.856,3.755
	s-1.502-5.395-3.754-13.486c-0.563-2.021-1.213-4.199-1.924-6.493c-0.373-1.142-0.759-2.313-1.15-3.509
	c-0.401-1.194-0.856-2.397-1.295-3.631c-0.424-1.238-0.924-2.468-1.443-3.703c-0.525-1.237-0.988-2.509-1.609-3.745
	c-0.586-1.238-1.176-2.485-1.769-3.738c-0.677-1.217-1.354-2.438-2.035-3.66c-1.33-2.458-2.741-4.877-4.091-7.276
	c-1.362-2.398-2.702-4.759-3.999-7.041c-0.64-1.148-1.269-2.276-1.883-3.383c-0.589-1.12-1.166-2.215-1.728-3.281
	c-1.15-2.117-2.109-4.188-3.041-6.073c-0.965-1.869-1.65-3.685-2.345-5.244c-0.33-0.788-0.666-1.516-0.929-2.205
	c-0.254-0.693-0.487-1.331-0.698-1.905C126.688,124.087,126.211,122.77,126.211,122.77z" class="color c1"/>
</svg>