<svg version="1.1" id="图层_1" x="0px" y="0px" width="193.332px" height="193.334px" viewBox="0 0 193.332 193.334" enable-background="new 0 0 193.332 193.334" xml:space="preserve" xmlns="http://www.w3.org/2000/svg" xmlns:xlink="http://www.w3.org/1999/xlink" xmlns:xml="http://www.w3.org/XML/1998/namespace">
  <path fill="#4F235C" d="M70.72,0h11.959c-4.416,0.896-8.893,2.403-12.896,4.871c0.002,0,0.002,0,0.002,0
	S47.892,15.237,36.761,43.107C42.078,25.57,52.048,7.699,70.72,0z M90.972,144.465c-2.314,35.436,18.029,46.541,23.484,48.869h7.076
	c-9.512-18.547-22.512-35.619-30.324-48.795C91.13,144.516,91.054,144.489,90.972,144.465z M60.388,59.481
	c-4.016-12.855-5.174-23.029-4.367-31.076c-5.721,13.574-1.777,27.977,6.857,54.574C64.111,78.603,64.105,71.389,60.388,59.481z
	 M193.332,57.769v77.797c0,20.67-10.863,38.793-27.184,49.002c0.295-9.155-1.691-20.784-10.711-31.032
	c-11.57-13.147-18.18-25.653-21.83-36.635c-0.068-0.425-0.133-0.849-0.195-1.269c3.063,6.899,7.674,13.968,14.404,20.897
	c20.633,21.239,20.088,27.864,20.088,27.864s4.518-10.413-12.467-32.232c-17.959-23.07-17.076-58.674-17.125-72.165
	c2.318-26.569-1.621-50.589-22.539-52.698c0,0,14.021,8.967,15.926,38.013c0,0-3.311,8.358-3.273,12.763
	c0.037,4.406,4.211,10.518-1.031,20.246c-6.24,11.584-6.525,13.609-19.404,29.349c-3.699,4.521-14.617,2.214-23.025-2.109
	c-11.35-5.837-12.264,3.134-13.49,6.228c-0.021,0.055-0.043,0.107-0.066,0.165c-0.002,0.006-0.008,0.011-0.008,0.015v0.002
	c-1.357,3.396-2.693,7.813-3.783,13.535c-3.893,20.431-4.676,44.996,20.686,59.832c0,0-14.025-12.129-7.391-35.834
	c3.451,21.442,5.594,39.082,31.652,43.833H57.769C25.863,193.334,0,167.471,0,135.565V57.769C0,26.511,24.83,1.067,55.841,0.049
	c-0.727,0.557-1.439,1.128-2.127,1.728C20.025,31.157,30.751,86.747,30.751,86.747s0-0.023-0.002-0.063
	c0.307,4.186,0.836,8.556,1.619,13.126c5.943,34.642-31.158,37.825-31.158,37.825s76.458,4.589,63.068-49.743
	c5.045-2.547,10.123-8.813,5.264-24.255C52.613,9.812,79.708,1.212,95.849,0h39.713C167.468,0,193.332,25.864,193.332,57.769z
	 M144.728,162.629c1.59,4.66,3.35,9.368,5.313,14.082c2.039,4.898,3.33,9.421,4.061,13.566c2.59-0.877,5.098-1.932,7.508-3.152
	c-1.707-5.772-5.098-12.644-11.75-19.104C148.023,166.242,146.322,164.441,144.728,162.629z" class="color c1"/>
</svg>