<svg version="1.1" id="图层_1" x="0px" y="0px" width="168.371px" height="80px" viewBox="0 0 168.371 80" enable-background="new 0 0 168.371 80" xml:space="preserve" xmlns="http://www.w3.org/2000/svg" xmlns:xlink="http://www.w3.org/1999/xlink" xmlns:xml="http://www.w3.org/XML/1998/namespace">
  <circle fill="#FFCFC5" cx="99.529" cy="54.462" r="1.921" class="color c1"/>
  <circle fill="#FFCFC5" cx="105.293" cy="48.254" r="1.329" class="color c1"/>
  <circle fill="#FFCFC5" cx="123.988" cy="54.462" r="1.329" class="color c1"/>
  <circle fill="#FFCFC5" cx="101.451" cy="68.725" r="1.33" class="color c1"/>
  <circle fill="#FFCFC5" cx="129.752" cy="71.384" r="1.329" class="color c1"/>
  <circle fill="#FFCFC5" cx="114.531" cy="63.551" r="1.33" class="color c1"/>
  <circle fill="#FFCFC5" cx="24.671" cy="29.041" r="1.33" class="color c1"/>
  <circle fill="#FFCFC5" cx="44.972" cy="18.918" r="1.33" class="color c1"/>
  <circle fill="#FFCFC5" cx="29.106" cy="2.66" r="1.33" class="color c1"/>
  <circle fill="#FFCFC5" cx="13.144" cy="17.587" r="1.33" class="color c1"/>
  <circle fill="#FFCFC5" cx="52.827" cy="37.761" r="1.33" class="color c1"/>
  <circle fill="#FFCFC5" cx="1.33" cy="33.918" r="1.33" class="color c1"/>
  <circle fill="#FFCFC5" cx="125.91" cy="20.248" r="1.33" class="color c1"/>
  <circle fill="#FFCFC5" cx="146.159" cy="39.092" r="1.329" class="color c1"/>
  <circle fill="#FFCFC5" cx="91.827" cy="1.33" r="1.329" class="color c1"/>
  <circle fill="#FFCFC5" cx="114.531" cy="39.092" r="1.33" class="color c1"/>
  <circle fill="#FFCFC5" cx="144.829" cy="78.67" r="1.329" class="color c1"/>
  <circle fill="#FFCFC5" cx="131.673" cy="48.254" r="1.33" class="color c1"/>
  <circle fill="#FFCFC5" cx="138.841" cy="50.176" r="1.33" class="color c1"/>
  <circle fill="#FFCFC5" cx="162.968" cy="58.348" r="1.33" class="color c1"/>
  <circle fill="#FFCFC5" cx="167.041" cy="78.67" r="1.33" class="color c1"/>
  <circle fill="#FFCFC5" cx="83.198" cy="18.918" r="1.329" class="color c1"/>
  <circle fill="#FFCFC5" cx="76.03" cy="10.641" r="1.33" class="color c1"/>
  <circle fill="#FFCFC5" cx="63.024" cy="26.455" r="1.33" class="color c1"/>
  <circle fill="#FFCFC5" cx="2.66" cy="14.311" r="1.33" class="color c1"/>
  <circle fill="#FFCFC5" cx="101.486" cy="11.971" r="1.329" class="color c1"/>
  <circle fill="#FFCFC5" cx="152.587" cy="65.473" r="1.33" class="color c1"/>
  <circle fill="#FFCFC5" cx="112.609" cy="48.254" r="1.921" class="color c1"/>
  <circle fill="#FFCFC5" cx="129.752" cy="61.629" r="1.921" class="color c1"/>
  <circle fill="#FFCFC5" cx="138.842" cy="63.551" r="1.921" class="color c1"/>
  <circle fill="#FFCFC5" cx="101.451" cy="28.376" r="1.922" class="color c1"/>
  <circle fill="#FFCFC5" cx="125.911" cy="33.918" r="1.921" class="color c1"/>
  <circle fill="#FFCFC5" cx="72.779" cy="35.84" r="1.921" class="color c1"/>
</svg>