<svg version="1.1" id="图层_1" x="0px" y="0px" width="160.497px" height="87.014px" viewBox="0 0 160.497 87.014" enable-background="new 0 0 160.497 87.014" xml:space="preserve" xmlns="http://www.w3.org/2000/svg" xmlns:xlink="http://www.w3.org/1999/xlink" xmlns:xml="http://www.w3.org/XML/1998/namespace">
  <g>
    <path fill="#451C00" d="M24.75,55.084c-0.379-9.907-1.165-20.534,1.785-30.153C32.693,4.855,58.224,0.037,76.625,0.037
		c0.002,0,0.082,0,0.082,0s1.321-0.069,3.541-0.018c2.22-0.052,3.541,0.018,3.541,0.018s0.08,0,0.082,0
		c18.401,0,43.933,4.818,50.091,24.895c2.843,9.271,2.216,19.479,1.828,29.077c-0.004,0.007-0.005,0.01-0.01,0.02
		c-0.033,0.064-0.089,0.169-0.173,0.305c-0.168,0.272-0.451,0.676-0.899,1.171c-0.895,0.987-2.45,2.337-5.069,3.714
		c-5.235,2.756-14.738,5.61-31.66,5.811c-0.333,0.004-0.599,0.276-0.595,0.61c0.004,0.331,0.272,0.596,0.602,0.596h0.008
		c17.049-0.203,26.739-3.075,32.207-5.948c4.101-2.152,5.813-4.317,6.433-5.318c8.808-1.139,28.048-2.585,23.047,11.596
		c-0.623,1.763-3.995,3.855-7.218,5.556c-2.256,1.191-4.438,2.19-5.552,2.749c-5.573,2.798-11.554,4.688-17.594,6.178
		c-12.93,3.186-29.652,5.221-39.637,5.683c-9.984,0.46-12.215,0.293-18.863,0c-6.648-0.294-26.707-2.497-39.636-5.683
		c-6.041-1.489-12.021-3.38-17.595-6.178c-1.113-0.559-3.296-1.558-5.552-2.749c-3.223-1.7-6.595-3.793-7.218-5.556
		C-4.359,51.885,16.436,53.949,24.75,55.084z" class="color c1"/>
    <path opacity="0.27" fill="#0C0C0C" d="M149.271,54.41c0.039,0.093,0.082,0.184,0.12,0.277
		c4.091,10.077-4.453,16.193-12.469,20.219c-9.575,4.811-20.637,7.049-31.312,7.772c-10.756,0.728-22.012,1.757-32.735,0.771
		c-10.487-0.963-20.842-2.977-31.287-4.391c-9.991-1.353-19.573-2.907-28.72-7.312c-3.529-1.699-8.771-4.029-10.323-7.962
		c-1.183-2.996,0.3-5.683,2.228-8c-3.881,1.624-6.056,4.822-3.956,10.777c0.623,1.763,3.995,3.855,7.218,5.556
		c2.256,1.191,4.438,2.19,5.552,2.749c5.574,2.798,11.554,4.688,17.595,6.178c12.929,3.186,32.987,5.389,39.636,5.683
		c6.648,0.293,8.879,0.46,18.863,0c9.984-0.462,26.707-2.497,39.637-5.683c6.04-1.489,12.021-3.38,17.594-6.178
		c1.113-0.559,3.296-1.558,5.552-2.749c3.223-1.7,6.595-3.793,7.218-5.556C162.784,57.764,156.552,54.982,149.271,54.41z" class="color c2"/>
    <path opacity="0.09" fill="#FFFFFF" d="M97.654,5.199c-0.042-1.179-1.304-2.272-4.557-3.021C84.5,0.196,73.819,1.157,65.072,1.813
		c-11.663,0.875-22.313,4.51-30.428,13.192c-7.104,7.601-16.494,38.296-2.406,43.096c4.672,1.592,15.37-0.011,19.296-2.848
		c6.387-4.616,9.464-12.292,12.7-19.183c6.044-12.863,12.93-20.405,26.376-25.209C93.917,9.68,97.729,7.303,97.654,5.199z" class="color c3"/>
    <path opacity="0.27" fill="#0C0C0C" d="M97.581,64.774c3.97,0.665,9.915-0.128,11.006-0.268c3.076-0.396,6.175-0.756,9.223-1.327
		c4.048-0.759,8.172-2.037,11.83-3.962c2.619-1.377,4.175-2.727,5.069-3.714c0.448-0.495,0.731-0.898,0.899-1.171
		c0.084-0.136,0.14-0.24,0.173-0.305c0.005-0.01,0.006-0.013,0.01-0.02c0.388-9.598,1.015-19.806-1.828-29.077
		c-1.688-5.504-4.835-9.86-8.89-13.285c6.111,8.649,2.905,19.933-0.27,27.899c-0.77,1.933-1.792,3.862-2.99,5.563
		c-4.398,6.238-12.313,10.275-19.382,12.622c-2.044,0.679-7.28,1.136-8.218,3.334C93.262,63.298,95.005,64.343,97.581,64.774z" class="color c2"/>
    <path opacity="0.09" fill="#FFFFFF" d="M29.886,75.581c15.495,4.128,33.056,6.839,49.144,6.934
		c14.32,0.087,30.068,0.149,43.8-3.962c5.801-1.737,26.449-10.208,25.243-19.253c-1.025-7.693-17.371,3.863-21.104,5.428
		c-23.036,9.645-51.556,9.647-78.39,4.823c-4.171-0.749-11.332-2.511-15.075-4.522c-6.735-3.62-18.457-12.864-26.531-7.236
		C-2.977,64.727,24.821,74.231,29.886,75.581z" class="color c3"/>
    <path opacity="0.09" fill="#FFFFFF" d="M21.697,61.952c-6.282-11.632-18.796,0.618-8.774,5.424
		C17.527,69.583,25.074,68.205,21.697,61.952z" class="color c3"/>
    <path opacity="0.09" fill="#FFFFFF" d="M37.466,71.526c-1.929-0.635-10.481-7.825-11.428-2.999
		c-0.533,2.715,6.022,5.885,7.957,6.469c4.273,1.291,11.39,3.938,15.898,2.811C59.027,75.527,39.366,72.152,37.466,71.526z" class="color c3"/>
    <path opacity="0.09" fill="#FFFFFF" d="M63.009,21.993c3.26-2.949,9.642-8.898,5.892-13.422
		c-6.476-7.811-23.805-2.274-29.709,3.211c-7.754,7.203-13.717,19.205-10.63,29.923c3.897,13.532,14.084,2.003,19.293-3.964
		C52.669,32.226,57.576,26.908,63.009,21.993z" class="color c3"/>
    <path opacity="0.09" fill="#FFFFFF" d="M62.571,7.553c-2.349-2.115-12.693-1.775-13.595,1.892
		c-0.793,3.229,3.697,4.984,6.197,4.966C58.928,14.382,67.625,12.106,62.571,7.553z" class="color c3"/>
  </g>
</svg>