<svg version="1.1" id="图层_1" x="0px" y="0px" width="169.949px" height="176.066px" viewBox="0 0 169.949 176.066" enable-background="new 0 0 169.949 176.066" xml:space="preserve" xmlns="http://www.w3.org/2000/svg" xmlns:xlink="http://www.w3.org/1999/xlink" xmlns:xml="http://www.w3.org/XML/1998/namespace">
  <path fill="#3E383C" d="M89.716,166.704v-60.443c5-0.295,10.861-1.026,16.089-1.797c6.112-0.904,8.078-3.898,6.148-9.278
	c-1.525-4.259-3.661-8.431-6.189-12.273c-3.683-5.596-3.49-11.069-2.266-17.324c1.777-9.048,7.156-17.533,4.891-27.388
	c-0.515-2.24,3.055-5.407,5.053-7.946c6.322-8.028,5.172-11.518-5.362-14.589c-2.907-0.851-6.071-1.084-9.144-1.327
	c-4.629-0.366-6.521-2.342-6.152-6.663c0.207-2.451-0.219-6.953-1.148-7.131C89.559,0.145,87.066-0.004,84.892,0
	c-2.172-0.004-4.66,0.145-6.739,0.543c-0.931,0.178-1.355,4.68-1.147,7.131c0.365,4.321-1.525,6.297-6.152,6.663
	c-3.072,0.243-6.237,0.477-9.146,1.327c-10.532,3.072-11.684,6.561-5.362,14.589c2.002,2.54,5.572,5.707,5.057,7.946
	c-2.265,9.854,3.117,18.34,4.893,27.388c1.225,6.255,1.428,11.729-2.257,17.324c-2.528,3.843-4.648,8.015-6.174,12.273
	c-1.932,5.38,0.263,8.374,6.379,9.278c6.233,0.919,12.474,1.781,19.474,1.912v60.323C36.716,166.743,0,168.823,0,171.382
	c0,2.586,37.966,4.686,84.919,4.686c46.955,0,85.03-2.099,85.03-4.686C169.949,168.882,134.716,166.84,89.716,166.704z" class="color c1"/>
  <path fill="#FFFFFF" d="M60.1,25.895c-0.818-1.232-1.919-2.356-3.05-3.308c-0.58-0.488-1.183-1.006-1.871-1.34
	c-1.494-0.727-1.724,1.046-1.857,2.096c-0.007,0.053-0.072,0.064-0.092,0.013c-0.467-1.22-0.504-3.818,1.569-3.16
	c2.202,0.701,4.06,2.833,5.46,4.575c1.046,1.3,6.361,12.431,2.193,12.253c-0.199-0.008-0.316-0.251-0.166-0.399
	C64.818,34.131,61.705,28.315,60.1,25.895z M85.961,2.723c-0.02-0.15-0.216-0.15-0.234,0c-0.539,4.4-0.191,9.034,0.047,13.448
	c0.006,0.091,0.137,0.091,0.142,0C86.152,11.757,86.5,7.123,85.961,2.723z M86.332,36.79c0.115-6.313,0.443-12.704-0.035-19.005
	c-0.006-0.076-0.111-0.076-0.117,0c-0.479,6.301-0.15,12.692-0.035,19.005C86.146,36.911,86.33,36.911,86.332,36.79z M81.739,17.931
	c0.136-0.037,0.156-0.271,0-0.294c-1.31-0.192-2.656-0.112-3.977-0.225c-1.783-0.152-3.106-0.795-4.703-1.502
	c-0.083-0.036-0.179,0.041-0.129,0.128C74.233,18.343,79.541,18.537,81.739,17.931z M85.248,0.383c0.079-0.013,0.079-0.146,0-0.158
	c-1.868-0.303-3.993-0.072-5.804,0.448c-0.037,0.01-0.031,0.071,0.01,0.069C81.357,0.63,83.369,0.698,85.248,0.383z M89.825,1.345
	c0.043-0.013,0.024-0.079-0.021-0.067c-1.896,0.498-3.429,0.8-5.4,0.552c-2-0.252-3.957-0.469-5.886-1.089
	c-0.119-0.038-0.178,0.129-0.081,0.191C81.869,3.184,86.191,2.445,89.825,1.345z M89.716,1.261v0.1V1.261z M90.716,0.925v0.1V0.925z
	 M116.463,20.888c-1.236-3.585-6.063,3.534-6.668,4.48c-0.881,1.381-7.307,11.83-2.499,11.524c0.117-0.008,0.265-0.083,0.282-0.215
	c0.02-0.134,0.037-0.269,0.056-0.402c0.011-0.073-0.051-0.124-0.12-0.093c-1.379,0.62-1.084-1.489-1.063-1.904
	c0.081-1.596,0.725-2.973,1.459-4.351c0.612-1.15,1.364-2.229,2.022-3.354c1.143-1.947,3.531-6.815,6.342-5.541
	C116.367,21.076,116.504,21.006,116.463,20.888z M89.559,17.505c1.717,0.68,5.742,0.632,6.93-1.063
	c0.143-0.204-0.092-0.448-0.305-0.396c-1.127,0.28-2.049,0.797-3.24,0.915c-1.106,0.108-2.334-0.108-3.385,0.295
	C89.436,17.303,89.438,17.457,89.559,17.505z M68.425,81.972c-1.209,5.503-3.696,9.876-7.945,13.563
	c-0.125,0.107,0.035,0.294,0.171,0.221c4.619-2.474,7.732-8.676,8.073-13.743C68.735,81.841,68.461,81.805,68.425,81.972z
	 M101.32,82.26c-0.047-0.205-0.383-0.162-0.368,0.05c0.385,5.835,4.563,11.132,9.04,14.559c0.053,0.041,0.119-0.05,0.07-0.093
	C105.686,92.934,102.605,87.933,101.32,82.26z M102.175,74.687L87.13,74.838c0.06-12.24-0.019-24.511-0.682-36.511
	c-0.001,0-0.022,0-0.023,0c-0.655,12-0.612,24.271-0.448,36.511l-18.292-0.058c3.655,2.839,11.108,4.299,18.349,4.176
	c0.128,8.451,0.285,16.371,0.285,25.371h0.633c0-9,0.101-16.978,0.16-25.438C93.266,78.654,99.121,77.21,102.175,74.687z
	 M54.166,19.944c-0.009,0.002-0.013-0.008-0.007-0.013c4.763-3.1,11.447-4.656,17.14-4.671c0.048-0.051,0.122-0.078,0.188-0.051
	c0.436,0.181,1.009,0.677,0.988,1.207c0.307,0.375,0.614,0.747,1.13,0.991c0.813,0.382,1.895,0.85,2.791,1.001
	c1.666,0.28,3.299,0.296,4.969,0.369c0.868-0.078,1.708-0.243,2.569-0.377c0.532-0.08,0.992-0.207,1.479,0.049
	c0.092,0.045,0.071,0.162,0,0.214c-0.61,0.437-1.36,0.203-2.069,0.232c-0.53,0.021-1.059,0.021-1.59,0.012
	c-1.774,0.084-3.977,0.103-5.876-0.233c1.055,0.593,3.26,1.985,3.345,2.013c1.881,0.622,3.242,2.096,3.919,3.928
	c0.38,1.032,0.46,2.114,0.7,3.166c0.396,1.729,0.931,3.435,0.995,5.212c0.142,0.383,0.277,0.766,0.401,1.151
	c0.028-1.268,0.057-2.535,0.061-3.788c0.006-3.881-0.168-7.839,0.215-11.702c0.004-0.045,0.066-0.045,0.07,0
	c0.419,4.247,0.209,8.605,0.215,12.873c0.003,1.815,0.064,3.653,0.096,5.493c0.104,0.836,0.117,1.688,0.006,2.557
	c-0.015,1.215-0.06,2.425-0.166,3.623c0,0.004-0.002,0.007-0.002,0.011c-0.002,0.005-0.015,0.01-0.015,0.016
	c0,0.001,0,0.001,0,0.002s0,0.001,0,0.002c-2,10.4-24.302,7.272-24.214-3.062c0.001-0.171,0.265-0.208,0.309-0.041
	c0.173,0.646,0.402,1.257,0.677,1.833c0.002-0.032-0.001-0.062,0.001-0.092c-0.014-0.082-0.021-0.163-0.026-0.243
	c-0.086-0.175-0.099-0.345-0.052-0.508c0.004-0.048,0.009-0.094,0.018-0.138c-0.032-0.03-0.054-0.07-0.059-0.122
	c-0.086-1.734,0.92-2.593,1.584-4.109c1.145-2.622,0.234-5.858-0.979-8.304c-1.769-3.561-4.25-7.525-8.347-8.508
	c-0.063-0.017-0.079-0.071-0.068-0.121C54.428,19.86,54.299,19.904,54.166,19.944z M85.192,41.068
	c0.013,0.022,0.023,0.047,0.036,0.068c-0.004-0.117-0.01-0.233-0.015-0.351C85.208,40.879,85.199,40.973,85.192,41.068z
	 M56.338,19.972c3.072,1.037,5.472,5.237,6.755,7.688c1.074,2.049,2.178,4.571,1.998,6.936c-0.041,0.57-0.172,1.098-0.347,1.605
	c0.582-0.543,1.352-0.864,2.168-1.004c-0.623-1.472-0.812-3.153-1.411-4.651c-0.804-2.005-1.769-4.232-3.225-5.873
	C61.31,23.583,58.265,19.906,56.338,19.972z M101.855,16.073c2.252,0.024,4.219,0.747,6.403,1.146
	c1.871,0.343,3.683,0.614,5.222,1.798c0.389,0.299,0.371,0.787,0.137,1.073c0.063,0.112-2.014,1.989-2.704,2.644
	c-1.412,1.345-2.69,2.914-3.606,4.654c-1.677,3.189-3.656,6.964-2.906,9.276c0.275,0.849,2.343,2.477,2.971,3.418
	c0.234,0.351,0.449,0.968,0.438,1.603c0.229-0.153,0.506,0.153,0.396,0.408c-3.011,6.962-17.756,9.022-20.628,0.85
	c-0.012-0.029,0.014-0.047,0.042-0.05c-0.595-1.668-0.464-4.052-0.501-5.726c-0.038-1.8,0.023-3.893,0.494-5.551
	c0.209-2.439,0.785-5.874,1.712-7.422c0.239-0.403,2.381-2.028,2.657-2.358C93.816,19.646,98.05,16.028,101.855,16.073z
	 M112.6,20.133c0.002-0.003,0.002-0.003,0.004-0.006c-0.002,0-0.002-0.002-0.004-0.002C112.6,20.126,112.6,20.129,112.6,20.133z
	 M73.961,14.744c-0.052-0.042,0.015-0.111,0.068-0.086c0.018,0.009,0.035,0.015,0.054,0.022c0.005-0.042,0.018-0.082,0.043-0.115
	c-0.041-0.045-0.053-0.111,0.02-0.146c3.208-1.62,3.615-4.169,3.371-7.453c-0.12-1.62-0.417-3.617,0.645-4.998
	c0.029-0.039,0.064-0.059,0.103-0.072c0.003-0.002,0.009-0.006,0.011-0.007c0.046-0.024,0.105-0.063,0.159-0.071
	c0.028-0.006,0.054-0.001,0.082-0.003c-0.032-0.025-0.024-0.093,0.025-0.088c0.982,0.112,1.871,0.54,2.808,0.842
	c0.924,0.297,1.979,0.293,2.845,0.68c0.17-0.031,0.337,0.052,0.428,0.193c0.457,0.722,0.555,1.645,0.555,2.481
	c0,0.552,0.103,1.271-0.087,1.833c-0.075,0.931-0.165,1.855-0.083,2.706c0.199,2.074,0.417,3.876-1.058,5.506
	c-0.066,0.074-0.146,0.088-0.215,0.071c-0.93,1.229-3.284,0.941-4.593,0.719c-1.654-0.282-3.348-0.717-4.737-1.684
	c-0.052-0.037-0.104-0.073-0.148-0.113C74.156,14.89,74.056,14.823,73.961,14.744z M78.362,2.421
	c0.02-0.021,0.041-0.035,0.067-0.049c-0.011-0.004-0.02-0.004-0.03-0.011C78.389,2.383,78.374,2.401,78.362,2.421z M82.825,51.176
	c-2.879,1.003-5.348,2.43-8.461,2.646c-3.514,0.243-6.902-0.958-9.919-2.631c-0.042-0.022-0.072,0.034-0.036,0.061
	c5.772,4.108,12.585,3.627,18.511,0.151C83.04,51.333,82.962,51.128,82.825,51.176z M88.027,49.604
	c-0.088-0.077-0.198,0.037-0.125,0.127c1.648,2.083,4.813,2.685,7.293,3.075c2.965,0.467,6.041-0.589,8.523-2.142
	c0.114-0.072,0.039-0.286-0.097-0.229C98.618,52.535,92.533,53.453,88.027,49.604z M68.942,72.271
	c4.627-0.431,4.133-6.318,4.972-9.559c0.579-2.227,3.091-3.282,5.274-4.506c0.444-0.194,0.846-0.424,1.159-0.703
	c1.421-0.952,2.462-2.119,2.295-3.989c-0.018-0.196-0.258-0.28-0.381-0.163c-0.015,0-0.029,0-0.045,0.006
	c-3.912,2.002-7.62,2.731-11.981,1.93c-2.226-0.41-4.123-2.379-6.391-2.393c-0.11-0.071-0.25-0.093-0.413-0.06
	c-0.138,0.027-0.208,0.209-0.133,0.324c0.004,0.003,0.004,0.006,0.007,0.009c0.002,0.007-0.003,0.014,0,0.021
	c0.002,0.005,0.004,0.013,0.008,0.017c0.028,0.505,0.297,0.961,0.458,1.431c0.15,0.435,0.376,0.803,0.614,1.175
	c0.077,0.145,0.156,0.289,0.238,0.433c0.664,1.653,1.33,3.303,1.91,4.989c1.175,3.424,1.564,6.841,1.953,10.418
	c0.002,0.017,0.015,0.029,0.023,0.04C68.441,71.97,68.584,72.305,68.942,72.271z" class="color c2"/>
</svg>