<svg version="1.1" id="图层_1" x="0px" y="0px" width="127.503px" height="113.45px" viewBox="0 0 127.503 113.45" enable-background="new 0 0 127.503 113.45" xml:space="preserve" xmlns="http://www.w3.org/2000/svg" xmlns:xlink="http://www.w3.org/1999/xlink" xmlns:xml="http://www.w3.org/XML/1998/namespace">
  <path fill="#672684" d="M127.153,8.072c-0.001-0.007,0-0.01-0.001-0.017c-0.015-0.058-0.041-0.103-0.057-0.159
	c-0.02-0.055-0.037-0.111-0.058-0.161c-0.315-0.919-0.901-1.511-0.901-1.511l0.002,0.023c-0.644-0.756-1.458-1.15-2.088-1.332h0.007
	c-0.008-0.003-0.019-0.004-0.026-0.007c-0.065-0.018-0.118-0.029-0.18-0.044c-0.197-0.053-0.394-0.09-0.59-0.112
	c-0.019-0.002-0.027-0.003-0.042-0.005c-1.13-0.119-2.181,0.168-2.181,0.168h0.094c-2.566,0.572-5.351,2.602-7.426,5.747
	c-2.898,4.3-3.396,9.057-1.438,11.627l-0.93,1.327l-0.022-0.015l-0.902,1.282c-3.086-0.941-7.367,1.16-10.411,5.327
	c-1.55,2.065-2.499,4.278-2.836,6.314c-0.354,2.016-0.096,3.872,0.829,5.209l-1.001,1.283l-0.017-0.02l-0.965,1.236
	c-3.07-1.154-7.381,0.738-10.704,4.579c-1.635,1.974-2.772,3.989-3.25,5.989c-0.499,1.968-0.427,3.795,0.356,5.229l-1.113,1.171
	l-0.021-0.021c0,0-0.258,0.291-0.542,0.555c-0.275,0.27-0.558,0.539-0.558,0.539c-1.444-0.758-3.287-0.815-5.188-0.31
	c-0.965,0.204-1.937,0.555-2.888,1.043c-0.23,0.107-0.494,0.289-0.688,0.361c-0.197,0.076-0.385,0.167-0.572,0.265
	c-0.191,0.122-0.398,0.229-0.605,0.335l-2.719,0.291c-3.467,0.192-7.418,0.136-11.308-0.51c-0.241-0.045-0.48-0.05-0.718-0.03
	c-0.219-0.198-0.433-0.392-0.665-0.585c-0.843-0.763-1.741-1.374-2.678-1.857c-0.927-0.514-1.866-0.991-2.812-1.261
	c-1.904-0.54-3.736-0.626-5.211,0.035l-1.062-1.207l0.023-0.014l-1.025-1.171c0.837-1.358,1.064-3.23,0.675-5.214
	c-0.189-0.997-0.549-2-1.026-3.047c-0.472-1.054-1.093-2.097-1.861-3.11c-1.562-2.009-3.344-3.602-5.19-4.502
	c-1.845-0.912-3.688-1.201-5.231-0.723l-0.92-1.343l0.019-0.016l-0.884-1.282c0.997-1.292,1.352-3.108,1.126-5.149
	c-0.211-2.055-1.025-4.309-2.443-6.461l-0.596,0.386c0,0,1.067,1.521,1.798,3.628c0.715,2.121,1.12,4.804-0.211,7.169l-1.013-1.526
	c0,0,2.676-2.971-0.574-9.27l-2.197,1.414c1.637,2.478,2.214,5.011,1.933,6.604l-1.77-2.681c-0.432-0.651-1.309-0.839-1.96-0.418
	c-0.649,0.423-0.826,1.308-0.388,1.97l1.779,2.702c-1.572-0.367-3.692-1.919-5.353-4.442h0.003c-1.608-2.509-2.152-5.062-1.86-6.634
	l1.682,2.645c0.423,0.667,1.298,0.871,1.954,0.448c0.648-0.423,0.84-1.302,0.419-1.96l-1.703-2.685
	c1.568,0.377,3.657,1.948,5.264,4.451l2.793-1.8c-2.784-4.355-6.962-6.701-10.098-5.927l-0.85-1.379l0.022-0.02l-0.821-1.333
	c1.061-1.237,1.514-3.038,1.379-5.093c-0.116-2.06-0.833-4.365-2.154-6.594c-2.637-4.482-6.673-7.031-9.881-6.36
	c-1.85,0.439-2.434,1.41-2.434,1.41c-2.16,2.391-2.008,7.23,0.674,11.788c1.352,2.284,3.058,4.059,4.819,5.164
	c1.785,1.105,3.623,1.536,5.199,1.155l0.82,1.343l-0.018,0.01l0.86,1.409c-2.102,2.489-1.705,7.302,1.146,11.774h-0.001
	c1.468,2.218,3.269,3.923,5.082,4.955c1.823,1.023,3.695,1.349,5.25,0.895l0.895,1.297l-0.021,0.021l0.934,1.358
	c-0.98,1.302-1.306,3.159-0.969,5.219c0.336,2.066,1.259,4.387,2.917,6.523c0.816,1.068,1.707,2.01,2.628,2.788
	c0.929,0.78,1.932,1.384,2.896,1.822c1.94,0.88,3.79,1.068,5.312,0.438l1.05,1.2l-0.018,0.021l1.097,1.251
	c-0.805,1.415-0.925,3.323-0.209,5.368c0.354,1.028,0.83,2.111,1.579,3.169c0.78,1.053,1.738,2.106,2.845,3.088l1.229-1.49
	l-1.229,1.496c2.726,2.233,5.956,3.184,8.453,3.063c0.081-0.006,0.158-0.017,0.233-0.026c0.935,4.157,1.97,8.533,2.916,12.057
	c-3.736,2.453-6.223,6.67-6.223,11.474c0,5.392,3.149,10.058,7.704,12.287c0,0,6.31,1.959,11.027,0.436
	c5.069-2.004,8.674-6.944,8.674-12.724c0-4.783-2.47-8.996-6.188-11.448c1.076-3.648,2.199-8.145,3.154-12.495
	c0.213-0.117,0.427-0.225,0.641-0.352c0.747-0.457,1.466-0.935,2.078-1.505c0.309-0.275,0.608-0.551,0.892-0.83
	c0.283-0.274,0.44-0.518,0.647-0.778c0.784-1.027,1.397-2.07,1.821-3.074c0.77-2.039,0.791-3.942,0.074-5.387
	c0,0,0.288-0.28,0.572-0.555c0.29-0.279,0.556-0.574,0.556-0.574l0.022,0.021l1.145-1.202c1.452,0.692,3.37,0.652,5.344-0.111
	c1.933-0.783,4.055-2.204,5.762-4.264c3.542-4.095,4.425-8.928,2.659-11.609l0.97-1.242l0.018,0.015l1.014-1.302
	c1.528,0.534,3.396,0.305,5.293-0.596c1.869-0.916,3.761-2.509,5.354-4.635c3.142-4.299,3.815-9.107,1.846-11.712l0.908-1.298
	l0.024,0.021l0.943-1.353c3.118,0.936,7.372-1.338,10.341-5.719c1.743-2.632,2.587-5.386,2.562-7.725
	c0.006-0.069,0.013-0.136,0.01-0.232C127.481,9.315,127.326,8.606,127.153,8.072z M4.485,1.826c0.277,0.49,0.627,1.099,0.991,1.728
	C6.28,4.961,7.123,6.423,7.268,6.67C7.55,7.166,6.99,7.745,6.99,7.745C6.856,7.042,6.085,5.306,5.346,3.752
	c-0.35-0.718-0.673-1.381-0.927-1.903C4.112,1.224,3.913,0.81,3.913,0.81S4.144,1.224,4.485,1.826z M12.562,14.845l-1.64-2.767
	c-0.401-0.671-1.268-0.901-1.935-0.504c-0.672,0.392-0.886,1.267-0.486,1.944l1.651,2.776c-1.552-0.431-3.593-2.084-5.126-4.665
	C3.499,9.066,3.089,6.478,3.442,4.91l1.559,2.716C5.399,8.313,6.258,8.548,6.93,8.16c0.677-0.397,0.897-1.267,0.51-1.948
	L5.854,3.459c1.56,0.433,3.556,2.117,5.09,4.687C12.462,10.705,12.92,13.264,12.562,14.845z M13.348,16.134
	c0,0,2.814-2.825-0.156-9.307c0,0,1.006,1.573,1.634,3.719c0.623,2.164,0.912,4.864-0.547,7.159L13.348,16.134z M17.159,23.175
	c1.112,1.75,2.273,3.576,2.468,3.887c0.395,0.621-0.296,1.394-0.296,1.394c-0.208-0.896-1.294-3.073-2.326-5.027
	c-1.062-1.994-1.97-3.709-1.97-3.709S16.072,21.405,17.159,23.175z M28.174,39.958c0,0,0.28,0.402,0.708,1.028
	c0.43,0.621,0.996,1.46,1.607,2.295c1.216,1.678,2.478,3.434,2.689,3.729c0.427,0.596-0.212,1.415-0.212,1.415
	c-0.255-0.885-1.472-2.997-2.615-4.879C29.179,41.613,28.174,39.958,28.174,39.958z M39.621,54.682c0,0-0.503-0.619-1.004-1.24
	c-0.514-0.611-0.991-1.257-0.991-1.257c-0.475-0.621-1.359-0.749-1.974-0.275c-0.618,0.479-0.728,1.373-0.242,2.004
	c0,0,0.479,0.652,0.998,1.272c0.511,0.631,1.025,1.261,1.025,1.261c-0.805-0.112-1.781-0.502-2.788-1.17
	c-0.985-0.687-2.003-1.653-2.918-2.858c-1.857-2.382-2.509-4.941-2.322-6.538l1.835,2.553c0.464,0.646,1.35,0.788,1.978,0.32
	c0.618-0.458,0.748-1.348,0.29-1.984l-1.846-2.569c1.598,0.265,3.727,1.741,5.543,4.08c0.89,1.175,1.519,2.376,1.907,3.496
	C39.515,52.872,39.69,53.874,39.621,54.682z M41.694,57.272l-1.128-1.43c0,0,0.6-0.809,0.725-2.335
	c0.065-0.767,0.009-1.714-0.294-2.833c-0.284-1.135-0.807-2.468-1.714-3.963c0,0,1.157,1.43,2.014,3.464
	C42.19,52.164,42.814,54.769,41.694,57.272z M62.835,71.864c0.716-0.006,1.683,0,2.665-0.158c1.964-0.239,3.93-0.906,4.241-1.059
	c0.641-0.258,1.297,0.561,1.297,0.561c-0.919,0.076-3.236,0.671-5.378,0.747c-1.062,0.082-2.073,0.021-2.813-0.02
	c-0.733-0.071-1.204-0.123-1.204-0.123S62.114,71.839,62.835,71.864z M71.521,71.34c0.508,0.326,0.819,0.926,0.718,1.583
	c-0.062,0.396-0.135,0.823-0.21,1.262c-0.515,0.106-1.012,0.198-1.47,0.238c-0.677,0.019-1.289-0.015-1.82-0.107
	c-0.536-0.106-0.993-0.285-1.36-0.493c0,0,0.204-0.041,0.515-0.103c0.307-0.056,0.713-0.163,1.112-0.295
	c0.404-0.123,0.803-0.249,1.104-0.336c0.291-0.116,0.485-0.198,0.485-0.198C71.28,72.623,71.646,71.977,71.521,71.34z
	 M60.623,74.097c0.42,0.056,0.838,0.092,0.838,0.092l-0.003,0.02c0,0,0.442,0.025,0.882,0.045c0.441,0.017,0.885,0.021,0.885,0.021
	c0.275,0.758,0.801,1.461,1.583,2.06c0.777,0.571,1.813,1.054,3.041,1.293c1.034,0.209,2.228,0.239,3.478,0.081
	c-0.721,3.363-1.641,6.936-2.43,9.214c-1.136-0.305-2.323-0.478-3.553-0.478c-1.24,0-2.442,0.177-3.591,0.489
	c-0.879-2.835-2.063-8.049-2.872-11.815c0.382-0.335,0.695-0.716,0.911-1.129C59.792,73.991,60.207,74.047,60.623,74.097z
	 M43.536,60.106c-0.473-0.605-0.775-0.993-0.775-0.993s0.32,0.367,0.815,0.932c0.508,0.555,1.136,1.354,1.87,2.071
	c1.44,1.46,2.9,3.042,3.202,3.236c0.531,0.478,0.07,1.403,0.07,1.403c-0.208-0.417-0.764-1.017-1.352-1.826
	c-0.604-0.793-1.325-1.69-2.027-2.534C44.623,61.571,44.016,60.707,43.536,60.106z M52.539,73.055
	c-1.326-0.265-2.795-0.956-4.177-2.044c-1.176-1.054-2.099-2.189-2.731-3.248c-0.576-1.079-0.86-2.105-0.888-2.91
	c0,0,2.203,2.295,2.254,2.25c0.609,0.543,1.516,0.514,2.029-0.071c0.518-0.581,0.473-1.465-0.096-1.979
	c-0.041,0.06-2.204-2.204-2.204-2.204c0.795,0.015,1.77,0.285,2.797,0.793c1.058,0.454,2.155,1.12,3.2,2.062
	c0.066,0.055,0.135,0.111,0.204,0.171c-0.107,0.403-0.135,0.835-0.038,1.288c0.114,0.54,0.232,1.11,0.36,1.719
	c-0.43,0.031-0.858,0.24-1.128,0.637c-0.443,0.636-0.211,1.526,0.515,1.975c0,0,0.188,0.111,0.479,0.248
	c0.234,0.123,0.537,0.276,0.844,0.433c0.077,0.336,0.151,0.687,0.232,1.043C53.683,73.228,53.135,73.192,52.539,73.055z
	 M57.556,68.434c-0.528-1.362-1.473-2.93-3.176-4.746c0,0,0.27,0.178,0.652,0.534c0.186,0.194,0.423,0.397,0.679,0.63
	c0.219,0.225,0.479,0.495,0.804,0.82c1.117,1.231,2.522,2.885,3.219,5.479c0,0-1.668-0.381-1.656-0.422c0,0,0.013-0.254-0.057-0.661
	C57.963,69.646,57.814,69.085,57.556,68.434z M54.671,92.673c0.102-0.169,0.217-0.387,0.356-0.627
	c0.128-0.254,0.336-0.493,0.543-0.768c0.213-0.274,0.428-0.585,0.724-0.85c0.285-0.276,0.559-0.605,0.915-0.854
	c0.355-0.255,0.681-0.585,1.086-0.794c0.398-0.233,0.787-0.487,1.22-0.671c0.423-0.203,0.854-0.376,1.293-0.518
	c0.424-0.169,0.873-0.24,1.295-0.342c0.854-0.168,1.658-0.25,2.351-0.229c1.384,0.01,2.269,0.316,2.269,0.316
	s-0.916,0.05-2.215,0.295c-0.652,0.112-1.399,0.305-2.183,0.523c-0.765,0.26-1.593,0.514-2.354,0.92
	c-0.405,0.153-0.771,0.382-1.143,0.585c-0.376,0.194-0.71,0.442-1.055,0.662c-0.347,0.213-0.64,0.478-0.944,0.697
	c-0.31,0.213-0.561,0.457-0.811,0.682c-0.238,0.224-0.497,0.402-0.679,0.605c-0.186,0.188-0.357,0.361-0.496,0.493
	c-0.289,0.275-0.455,0.427-0.455,0.427S54.49,93.029,54.671,92.673z M66.82,89.748c-0.827,0.264-1.812,0.218-2.688-0.036
	c0.393-0.051,0.797-0.076,1.211-0.076C65.843,89.635,66.343,89.682,66.82,89.748z M75.849,100.147c0,3.358-1.597,6.35-4.061,8.272
	c-4.646,3.459-11.331,1.023-11.331,1.023c-3.34-1.766-5.624-5.266-5.624-9.295c0-3.327,1.551-6.284,3.963-8.212
	c0.616,2.006,1.158,3.389,1.555,3.76c2.118,1.97,7.118,2.706,9.471,0.575c0.543-0.493,1.246-2.096,2.02-4.365
	C74.276,93.828,75.849,96.804,75.849,100.147z M75.531,67.473c-0.034,0.194-0.062,0.392-0.096,0.596
	c-0.247,1.632-0.628,3.343-1.021,5.043c-0.412,1.694-0.845,3.378-1.296,4.943c-0.439,1.579-0.916,3.029-1.298,4.27
	c-0.381,1.252-0.767,2.274-1.008,3.002c-0.253,0.712-0.416,1.12-0.416,1.12s0.082-0.433,0.216-1.18
	c0.16-0.744,0.345-1.817,0.635-3.094c0.284-1.267,0.615-2.757,0.967-4.35c0.368-1.584,0.767-3.271,1.167-4.961
	c0.412-1.684,0.805-3.379,1.134-4.945c0.19-0.895,0.286-1.353-0.214-1.754c-0.47-0.388-1.169-0.545-1.781-0.647
	c-1.252-0.157-2.347-0.157-3.1-0.126c-0.762,0.035-1.195,0.066-1.195,0.066s0.416-0.122,1.171-0.269
	c0.752-0.118,1.841-0.336,3.187-0.26c0.671,0.062,1.43,0.116,2.188,0.617c0.368,0.242,0.713,0.696,0.771,1.21
	C75.585,67,75.56,67.266,75.531,67.473z M78.226,69.854c-0.161,0.27-0.345,0.535-0.538,0.805c-0.189,0.245-0.438,0.493-0.69,0.747
	c0.188-0.977,0.362-1.928,0.527-2.828l1.789-1.572C79.242,67.809,78.88,68.802,78.226,69.854z M78.502,63.907
	c0,0-0.84-0.529-2.358-0.57c-0.671-0.035-1.474,0.031-2.385,0.254l-1.566,0.163c0.206-0.097,0.433-0.219,0.681-0.351
	c0.936-0.464,2.04-0.825,3.226-1.013c1.171-0.214,2.438-0.188,3.721,0.27L78.502,63.907z M88.805,46.557
	c1.78-1.317,4.222-2.487,6.89-1.888l-1.168,1.4c0,0-0.908-0.428-2.441-0.225c-0.762,0.098-1.688,0.351-2.725,0.891
	c-1.057,0.529-2.237,1.319-3.509,2.54C85.851,49.275,86.998,47.83,88.805,46.557z M84.672,58.651
	c-1.645,1.475-3.074,2.833-3.074,2.833s1.358-1.419,2.785-2.92c1.401-1.511,2.822-3.145,3.076-3.403
	c0.482-0.549,1.418-0.101,1.418-0.101C88.066,55.497,86.284,57.145,84.672,58.651z M95.203,51.976
	c-0.461,1.11-1.18,2.305-2.157,3.461c-1.928,2.304-4.311,3.504-5.891,3.658l2.102-2.34c0.53-0.601,0.485-1.492-0.102-2.005
	c-0.584-0.509-1.486-0.453-2.01,0.137l-2.105,2.357c-0.077-1.635,0.894-4,2.789-6.269c0.958-1.13,1.997-2.004,3.006-2.625
	c0.994-0.632,1.948-1.008,2.745-1.109c0,0-0.505,0.621-1.009,1.246c-0.498,0.62-1.022,1.226-1.022,1.226
	c-0.509,0.605-0.437,1.496,0.159,2c0.589,0.498,1.487,0.407,2.001-0.188c0,0,0.53-0.615,1.033-1.252
	c0.512-0.626,1.017-1.257,1.017-1.257C95.821,49.818,95.643,50.856,95.203,51.976z M110.128,25.341l-1.071,1.486
	c0,0-3.723-1.471-8.482,3.8C100.574,30.628,104.769,24.498,110.128,25.341z M100.102,40.127c-1.489,1.638-2.784,3.143-2.784,3.143
	s1.222-1.566,2.491-3.2c1.282-1.637,2.554-3.383,2.777-3.674c0.439-0.584,1.404-0.214,1.404-0.214
	C103.223,36.693,101.597,38.498,100.102,40.127z M108.198,36.255c-1.793,2.392-3.987,3.816-5.564,4.095l1.879-2.512
	c0.473-0.632,0.354-1.517-0.274-1.985c-0.618-0.467-1.505-0.335-1.976,0.295l-1.904,2.543c-0.196-1.607,0.521-4.126,2.313-6.517
	c1.754-2.386,3.911-3.831,5.503-4.126l-1.884,2.6c-0.455,0.642-0.326,1.527,0.303,1.985c0.628,0.458,1.515,0.314,1.974-0.332
	l1.892-2.614C110.671,31.279,109.978,33.824,108.198,36.255z M116.929,7.962c1.66-1.502,3.991-2.93,6.683-2.619l-1.005,1.531
	c0,0-3.795-1.323-8.312,4.183C114.294,11.056,115.277,9.468,116.929,7.962z M114.294,20.575c-1.41,1.76-2.623,3.282-2.623,3.282
	s1.134-1.624,2.327-3.323c1.166-1.719,2.387-3.511,2.591-3.82c0.407-0.602,1.391-0.275,1.391-0.275
	C117.243,16.983,115.67,18.85,114.294,20.575z M122.175,16.322c-1.669,2.468-3.794,3.983-5.357,4.339l1.763-2.589
	c0.44-0.662,0.283-1.542-0.366-1.975c-0.644-0.431-1.527-0.259-1.968,0.398l-1.783,2.62c-0.281-1.592,0.332-4.126,2.004-6.608
	h-0.005c1.635-2.478,3.741-4.009,5.313-4.381l-1.769,2.681c-0.429,0.662-0.257,1.542,0.393,1.975
	c0.644,0.427,1.521,0.245,1.962-0.418l1.772-2.695C124.418,11.249,123.83,13.808,122.175,16.322z" class="color c1"/>
</svg>