<svg version="1.1" id="图层_1" x="0px" y="0px" width="104.295px" height="166.074px" viewBox="0 0 104.295 166.074" enable-background="new 0 0 104.295 166.074" xml:space="preserve" xmlns="http://www.w3.org/2000/svg" xmlns:xlink="http://www.w3.org/1999/xlink" xmlns:xml="http://www.w3.org/XML/1998/namespace">
  <path fill="#2F4154" d="M95.576,29.927l-0.023-0.45l-0.08-0.013l0.083,0.009l-0.04-0.657c-0.149-2.425-0.381-4.714-0.689-6.805
	l-0.114-0.779l-0.194,0.103l0.188-0.109l-0.063-0.38c-0.447-2.679-0.895-4.211-1.021-4.617l-0.165-0.53l-0.531,0.163
	c-0.139,0.043-0.289,0.085-0.514,0.147c-0.653,0.18-1.59,0.41-2.795,0.688l-0.142-1.079c-0.585,0.019-1.163,0.032-1.644,0.017
	c-0.362-0.01-1.05-0.001-2.009,0.012l0.008,0.557l-0.161-0.555c-1.139,0.016-2.645,0.037-4.387,0.037
	c-3.641,0-6.851-0.091-9.885-0.282l-0.112-0.009c-7.533-0.481-15.37-1.469-18.804-1.902c-0.738-0.093-1.247-0.158-1.472-0.18
	c-0.487-0.047-1.05-0.13-1.63-0.226l-0.277,1.05c-1.208-0.447-2.076-0.783-2.686-1.04c-0.182-0.074-0.343-0.145-0.491-0.211
	l-0.505-0.225l-0.229,0.502c-0.177,0.386-0.812,1.848-1.594,4.431l-0.117,0.388l-0.003-0.002l-0.205,0.729
	c-0.576,2.049-1.102,4.302-1.561,6.696l-0.123,0.646l0.083,0.002l-0.083,0.002l-0.08,0.444c-1.258,6.997-1.931,14.915-1.998,23.536
	c-0.118,14.722-0.756,26.501-1.32,36.893l-0.007,0.143c-0.437,8.043-0.812,14.99-0.882,21.912c-0.027,2.898-0.068,6.16-0.112,9.57
	l-0.017,1.334c-0.151,11.869-0.34,26.645-0.102,32l0.017,0.377l-0.019-0.006l0.076,0.828c0.053,0.566,0.105,0.762,0.175,0.938
	c0.458,0.893,3.775,1.514,6.665,1.715c0.776,0.055,1.479,0.078,2.104,0.078c1.255,0,3.441-0.094,3.99-0.721l0.124-0.141l0.142-2.275
	c0.428-6.752,1.981-29.586,4.019-39.93c1.169-5.936,2.659-15.541,4.1-24.83c1.517-9.77,2.948-18.999,4.027-24.254
	c0.215-1.048,0.419-2.049,0.613-3.018c1.463-7.211,2.346-11.563,3.608-12.617c0.067-0.057,0.143-0.1,0.225-0.128l0.34-0.115
	l0.337,0.159c0.07,0.033,0.127,0.066,0.177,0.106c0.072,0.056,0.124,0.107,0.165,0.163c1.019,1.4,1.348,5.944,1.847,12.83
	l0.224,3.065c0.396,5.271,0.64,14.543,0.896,24.359l0.006,0.209c0.245,9.398,0.499,19.119,0.901,25.154
	c0.662,9.938-0.575,31.695-1.139,40.588l-0.026,0.422h-0.006l-0.078,1.381l0.117,0.158c0.577,0.777,3.768,1.303,6.621,1.42
	c0.486,0.02,0.944,0.031,1.373,0.031c1.255,0,4.232-0.088,4.802-0.928c0.039-0.066,0.072-0.143,0.11-0.254l0.295-0.869l-0.079,0.012
	l0.07-0.371c0.892-4.713,2.743-20.754,4.097-32.467l0.127-1.102c0.395-3.416,0.772-6.684,1.118-9.584
	c0.818-6.924,1.333-13.904,1.937-22.092c0.766-10.357,1.633-22.096,3.389-36.657C95.588,44.956,95.932,37.016,95.576,29.927z" class="color c1"/>
  <path fill="#231F20" d="M73.78,21.919c-0.004,0.289-0.211,0.533-0.493,0.585l-0.039,0.005l-1.052,0.103
	c-0.27,0.536-0.831,0.889-1.452,0.85c-0.836-0.054-1.474-0.797-1.419-1.656s0.782-1.515,1.619-1.462
	c0.539,0.034,0.992,0.358,1.233,0.813l1.099,0.167C73.58,21.382,73.782,21.632,73.78,21.919z M95.087,53.589
	c-1.758,14.598-2.628,26.358-3.393,36.739c-0.598,8.09-1.112,15.08-1.933,22.008c-0.38,3.211-0.804,6.869-1.244,10.684
	c-2.213,19.164-3.834,32.826-4.546,34.133c-0.999,1.834-9.183,1.266-11.956,0.475c-0.869-0.246-2.016-0.682-1.964-1.594
	c0.003-0.061,0.015-0.238,0.033-0.523c0.591-9.127,1.89-31.459,1.21-41.639c-0.399-5.992-0.655-15.746-0.902-25.178
	c-0.26-9.895-0.503-19.244-0.9-24.538c-0.08-1.072-0.153-2.093-0.224-3.069c-0.476-6.545-0.819-11.276-1.747-12.553
	c-0.01-0.013-0.031-0.034-0.063-0.058c-0.129-0.103-0.307-0.114-0.406-0.03c-1.114,0.934-2.084,5.712-3.426,12.324
	c-0.194,0.955-0.397,1.958-0.614,3.006c-1.067,5.2-2.501,14.443-4.021,24.232c-1.447,9.32-2.941,18.959-4.104,24.85
	c-2.35,11.938-4.125,41.691-4.14,41.965c-0.049,1.031-1.569,1.279-2.068,1.359c-1.03,0.168-2.778,0.201-4.625,0.082
	c-3.242-0.207-6.782-0.879-7.256-2.096c-0.54-1.385-0.405-15.135-0.159-34.408c0.049-3.848,0.096-7.541,0.128-10.779
	c0.07-6.977,0.449-13.973,0.889-22.076c0.564-10.391,1.203-22.167,1.319-36.87c0.202-25.738,5.563-36.777,5.831-37.312
	c-0.034-0.101-0.042-0.211-0.007-0.339c0.165-0.616,0.612-0.537,3.097-0.094c1.062,0.188,2.264,0.403,3.17,0.493
	c0.231,0.024,0.775,0.093,1.568,0.192c3.365,0.425,11.207,1.411,18.686,1.89c0.061,0.004,0.12,0.008,0.184,0.013
	c5.704,0.358,11.233,0.279,14.205,0.238c1.011-0.015,1.744-0.026,2.136-0.013c0.908,0.024,2.129-0.035,3.205-0.087
	c2.519-0.123,2.974-0.145,3.06,0.488c0.019,0.13-0.002,0.239-0.051,0.334C94.257,16.406,98.165,28.039,95.087,53.589z
	 M94.275,22.092c-1.612,0.851-6.026,2.634-15.599,3.329c0.034,0.133,0.077,0.285,0.13,0.447c2.042-0.378,7.696-1.368,10.671-1.346
	c0.573,0.013,1.068,0.395,1.215,0.948c0.225,0.859,0.586,2.109,0.511,3.717c0.037-0.005,0.076-0.01,0.111-0.017
	c1.45-0.232,2.658-0.423,3.646-0.32C94.794,26.159,94.543,23.911,94.275,22.092z M89.635,25.747
	c-0.021-0.08-0.087-0.135-0.167-0.132c-2.734-0.02-8.031,0.884-10.222,1.284c0.711,1.323,2.131,2.774,4.948,2.863
	c2.28,0.074,4.227-0.15,5.882-0.397C90.121,27.882,89.835,26.508,89.635,25.747z M88.396,17.545
	c-3.881,0.87-7.257,1.458-10.203,1.772l-0.324,5.058c10.797-0.712,15.156-2.818,16.224-3.438c-0.424-2.535-0.845-4.034-1.004-4.542
	c-0.16,0.049-0.336,0.098-0.53,0.152C91.694,16.784,90.332,17.113,88.396,17.545z M44.131,17.759
	c1.031,0.715,5.134,3.155,15.655,5.349l0.334-5.21c-3.584-0.768-7.092-1.734-9.914-2.76c-1.865-0.679-3.174-1.175-4-1.523
	c-0.188-0.077-0.354-0.149-0.508-0.217C45.478,13.881,44.872,15.311,44.131,17.759z M42.259,25.514
	c0.951,0.022,2.072,0.34,3.401,0.732c0.16-1.667,0.681-3.147,1.014-3.954c0.195-0.472,0.683-0.764,1.19-0.704
	c3.146,0.357,9.342,2.326,10.888,2.829c0.058-0.136,0.108-0.264,0.147-0.375c-9.433-2.015-13.603-4.211-15.091-5.178
	C43.309,20.639,42.77,22.849,42.259,25.514z M47.742,22.673c-0.021,0-0.049,0.01-0.06,0.036c-0.261,0.632-0.826,2.166-0.952,3.85
	c1.672,0.483,3.672,0.999,6.087,1.231c2.964,0.284,4.569-1.12,5.408-2.395C56.44,24.819,50.631,23,47.742,22.673z M49.66,154.733
	c0.007-0.107,0.025-0.443,0.058-0.967c-2.258,0.371-4.351,0.42-6.162,0.305c-2.709-0.172-4.788-0.705-5.854-1.031
	c0.034,0.367,0.071,0.619,0.115,0.734c0.212,0.414,2.546,1.158,6.207,1.414C47.419,155.424,49.371,155.063,49.66,154.733z
	 M66.757,47.38c0.097-2.48,0.562-13.985,1.112-21.753c-1.872-0.271-3.611-0.556-5.225-0.848l-0.069,1.084
	c-0.04,0.6-0.559,1.054-1.156,1.016l-0.781-0.049c-0.598-0.038-1.054-0.557-1.017-1.155l0.044-0.676
	c-0.758,1.608-2.605,4.161-6.651,3.902c-0.099-0.006-0.199-0.015-0.301-0.025c-2.967-0.285-5.312-0.977-7.193-1.533
	c-1.432-0.424-2.604-0.768-3.462-0.741c-1.04,5.781-1.912,13.524-1.989,23.441c-0.119,14.728-0.758,26.519-1.321,36.92
	c-0.438,8.094-0.818,15.078-0.888,22.029c-0.031,3.238-0.079,6.932-0.128,10.779c-0.147,11.574-0.342,26.734-0.104,32.094
	c1.268,0.422,6.181,1.824,12.161,0.783c0.445-7.031,1.998-29.693,4.027-40.002c1.157-5.871,2.652-15.498,4.097-24.809
	c1.521-9.799,2.959-19.053,4.031-24.281c0.215-1.047,0.419-2.047,0.611-3.003c1.539-7.586,2.387-11.767,3.796-12.944
	C66.474,47.507,66.61,47.43,66.757,47.38z M61.635,23.478L61.635,23.478l0.331-5.203c-0.255-0.048-0.512-0.101-0.767-0.152
	l-0.094,1.454l-0.239,3.753l-0.071,1.102l-0.022,0.351l-0.062,0.963l0.778,0.046l0.076-1.211h-0.002L61.635,23.478z M67.95,24.534
	c0.175-2.308,0.356-4.189,0.536-5.255c-0.227-0.023-0.455-0.049-0.681-0.076c-1.53-0.183-3.136-0.432-4.758-0.726l-0.333,5.202
	C64.328,23.975,66.07,24.262,67.95,24.534z M73.615,18.501c3.794-0.017,8.555-0.68,14.542-2.021c0.492-0.11,0.936-0.211,1.336-0.304
	c-0.597,0.02-1.18,0.031-1.68,0.018c-0.368-0.012-1.091,0-2.089,0.014c-2.985,0.041-8.544,0.121-14.289-0.241
	c-0.062-0.005-0.124-0.007-0.186-0.014c-7.513-0.479-15.377-1.468-18.752-1.894c-0.777-0.098-1.313-0.167-1.543-0.189
	c-0.497-0.048-1.072-0.133-1.665-0.23c0.389,0.144,0.815,0.3,1.289,0.471c4.8,1.745,11.611,3.318,17.355,4.009
	C70.653,18.446,73.584,18.501,73.615,18.501z M76.703,25.543l0.069-1.101l0,0l0.319-5.019c-0.264,0.022-0.523,0.044-0.78,0.061
	l-0.093,1.452l-0.228,3.545l-0.071,1.1l-0.022,0.354l-0.046,0.742l0.777,0.046L76.703,25.543L76.703,25.543z M73.607,19.594
	c-0.026,0-1.242-0.025-2.835-0.125c-0.381-0.025-0.785-0.055-1.197-0.09c-0.18,0.978-0.362,2.865-0.539,5.229
	c0.08,0,0.152,0.002,0.209,0.003c2.033,0.013,3.911-0.018,5.649-0.083l0.319-4.977C74.661,19.578,74.126,19.591,73.607,19.594z
	 M68.137,40.668c0.923-0.128,2.684-0.587,3.408-2.261c0.733-1.694,0.896-9.238,0.902-12.72c-1.027,0.017-2.096,0.022-3.209,0.016
	c-0.076,0-0.174-0.003-0.281-0.006C68.638,30.231,68.344,36.104,68.137,40.668z M83.076,156.475
	c-1.071,0.164-3.083,0.379-5.644,0.217c-1.852-0.121-3.987-0.441-6.258-1.115c-0.001,0,0.001,0.004-0.001,0.004
	c-0.014,0.229-0.024,0.389-0.028,0.473c0.299,0.404,2.618,1.049,6.196,1.195c3.479,0.146,5.441-0.283,5.672-0.623
	C83.034,156.59,83.055,156.54,83.076,156.475z M95.02,29.955c-0.846-0.136-2.056,0.056-3.531,0.294
	c-1.938,0.311-4.35,0.699-7.329,0.604c-0.103-0.003-0.203-0.009-0.303-0.016c-4.044-0.258-5.552-3.025-6.1-4.716l-0.043,0.675
	c-0.038,0.599-0.558,1.056-1.155,1.018l-0.781-0.05c-0.598-0.04-1.055-0.558-1.017-1.156l0.064-0.982
	c-0.422,0.014-0.851,0.027-1.286,0.039c-0.005,2.41-0.087,11.085-0.992,13.177c-0.988,2.283-3.393,2.807-4.46,2.929
	c-0.121,2.705-0.205,4.812-0.239,5.674c0.097,0.045,0.194,0.1,0.283,0.17c0.118,0.091,0.203,0.179,0.275,0.276
	c1.112,1.53,1.428,5.891,1.951,13.117c0.07,0.975,0.144,1.998,0.224,3.063c0.4,5.322,0.644,14.683,0.903,24.594
	c0.246,9.422,0.502,19.158,0.9,25.133c0.657,9.848-0.521,30.916-1.139,40.66c5.786,1.779,10.792,1.094,12.097,0.863
	c0.887-4.691,2.71-20.482,4.09-32.428c0.441-3.814,0.863-7.477,1.245-10.686c0.817-6.904,1.332-13.881,1.928-21.963
	c0.768-10.389,1.635-22.165,3.397-36.788C95.19,43.606,95.313,35.817,95.02,29.955z" class="color c2"/>
  <path fill="#848484" d="M102.092,14.224c-0.009-0.094-0.021-0.187-0.033-0.278c-0.48-3.534-3.254-7.247-8.366-7.574
	c-0.91-0.06-1.806-0.016-3.161,0.051c-0.787,0.038-1.972,0.095-2.577,0.08c-0.468-0.013-1.233-0.007-2.483,0.011
	C82.612,6.553,77.297,6.629,71.9,6.29l-0.182-0.012c-7.217-0.462-14.903-1.43-18.185-1.843c-0.911-0.113-1.493-0.186-1.775-0.214
	c-0.586-0.059-1.696-0.256-2.507-0.4l-0.049-0.007c-1.279-0.229-2.207-0.395-3.126-0.454c-0.723-0.046-1.404-0.012-2.05,0.078
	c-0.892-1.013-2.043-1.969-3.516-2.617c-3.219-1.417-7.061-0.999-11.424,1.245c-11.16,5.74-8.722,18.327-6.569,29.432
	c0.46,2.377,0.895,4.622,1.204,6.785c1.265,8.849,0.276,15.307-2.782,18.183c-1.817,1.709-4.489,2.215-7.939,1.504
	c-0.137-0.029-0.272-0.029-0.405-0.018l0.065-0.475l-2.368-1.984L1.85,52.939L0,62.855l8.963,0.402l3.026-0.907l0.229-1.667
	c0.068,0.025,0.137,0.051,0.21,0.066c1.213,0.249,2.357,0.373,3.434,0.373c2.836,0,5.189-0.866,7.022-2.59
	c4.807-4.521,4.637-13.726,3.646-20.652c-0.319-2.232-0.76-4.51-1.228-6.923c-2.058-10.62-4.186-21.603,5.082-26.369
	c3.555-1.827,6.571-2.224,8.963-1.18c0.621,0.271,1.165,0.627,1.646,1.027c-2.188,1.212-3.616,3.271-4.183,5.377
	c-0.021,0.085-0.045,0.174-0.065,0.263c-1.834,4.412-5.856,16.656-6.037,39.437c-0.113,14.516-0.747,26.185-1.305,36.48
	c-0.446,8.213-0.829,15.289-0.901,22.449c-0.032,3.23-0.079,6.918-0.128,10.754c-0.412,32.158-0.282,34.91,0.711,37.469
	c2.247,5.775,8.839,6.92,14.328,7.271c1.447,0.092,4.209,0.193,6.461-0.172c6.295-1.031,8.722-5.486,8.887-8.986
	c0.257-4.664,1.986-30.598,3.997-40.805c0.072-0.361,0.146-0.74,0.218-1.133c0.023,0.383,0.047,0.758,0.071,1.115
	c0.647,9.697-0.632,31.598-1.211,40.566l-0.037,0.572c-0.208,3.654,1.747,8.166,7.86,9.908c1.646,0.469,3.923,0.814,6.412,0.973
	c5.398,0.346,11.974,0.047,14.931-5.387c1.313-2.406,1.792-5.123,5.485-37.094c0.439-3.803,0.862-7.455,1.241-10.658
	c0.841-7.107,1.362-14.184,1.968-22.381c0.759-10.281,1.619-21.93,3.355-36.35C105.778,31.493,103.351,18.833,102.092,14.224z
	 M100.496,54.241c-1.743,14.467-2.605,26.16-3.367,36.475c-0.604,8.168-1.123,15.213-1.956,22.26
	c-0.378,3.207-0.802,6.865-1.24,10.672c-3.568,30.865-4.129,34.189-5.176,36.111c-1.739,3.193-5.562,4.42-12.393,3.984
	c0,0,0,0-0.001,0c-2.27-0.145-4.401-0.465-5.843-0.877c-5.768-1.643-5.981-5.883-5.909-7.143l0.035-0.57
	c0.584-9.014,1.87-31.061,1.213-40.918c-0.409-6.1-0.664-15.902-0.914-25.381c-0.026-1.059-0.054-2.109-0.081-3.15
	c-0.16,1.029-0.506,3.252-0.506,3.252c-1.45,9.332-2.946,18.98-4.124,24.955c-2.04,10.359-3.785,36.482-4.044,41.201
	c-0.043,0.879-0.565,5.457-6.626,6.449c-2.062,0.334-4.783,0.211-5.857,0.141c-6.969-0.445-10.664-2.162-11.986-5.557
	c-0.793-2.043-0.927-5.408-0.529-36.455c0.049-3.844,0.096-7.531,0.129-10.764c0.07-7.098,0.453-14.15,0.896-22.318
	c0.562-10.328,1.195-22.034,1.31-36.617c0.183-23.063,4.395-35.041,5.922-38.639c0.025-0.128,0.057-0.254,0.091-0.382
	c0.593-2.21,2.649-4.708,6.488-4.46c0.763,0.048,1.584,0.195,2.827,0.416c0.917,0.163,2.056,0.367,2.757,0.436
	c0.252,0.026,0.844,0.1,1.706,0.208c3.322,0.418,11.056,1.391,18.352,1.857l0.184,0.011c5.502,0.347,10.886,0.27,13.778,0.229
	C86.771,9.65,87.57,9.643,88,9.655c0.71,0.019,1.909-0.039,2.78-0.081c1.273-0.063,2.104-0.104,2.86-0.056
	c3.837,0.247,5.559,2.982,5.868,5.25c0.019,0.13,0.032,0.263,0.04,0.395C100.606,18.924,103.258,31.342,100.496,54.241z" class="color c3"/>
</svg>