<svg version="1.1" id="图层_1" x="0px" y="0px" width="98.412px" height="150.173px" viewBox="0 0 98.412 150.173" enable-background="new 0 0 98.412 150.173" xml:space="preserve" xmlns="http://www.w3.org/2000/svg" xmlns:xlink="http://www.w3.org/1999/xlink" xmlns:xml="http://www.w3.org/XML/1998/namespace">
  <path fill="#B40009" d="M78.309,8.817C72.668,2.611,51.514-4.722,35.153,4.022S6.948,34.484,7.229,60.718
	C7.342,71.111,5.74,88.685,0,93.303c2.434,1.989,6.132,1.874,8.1,0.758c0.846,11.565,0.189,55.171,43.761,54.683
	c-17.101-4.928-13.229-25.187-12.649-35.621c5.508,8.696,15.764,16.768,33.154,8.941c4.348,8.115,7.685,25.273-6.889,28.011
	c48.33,2.522,28.937-43.973,18.168-57.619c2.01,0.317,4.209-0.294,6.014-1.858c-7.053-8.744,1.908-23.674,7.549-42.574
	C102.85,29.126,87.336,8.817,78.309,8.817z M59.565,1.968C48.354,3.5,17.178,16.574,11.94,66.936
	C13.439,15.335,45.219,2.274,59.565,1.968z M3.684,91.986C36.143,89.469,38.108,7.183,74.981,8.851
	C41.672,7.198,42.773,91.161,3.684,91.986z M39.732,144.876c-33.11-14.374-18.022-56.317-7.541-67.627
	C25.717,88.555,9.735,130.499,39.732,144.876z M37.781,64.815c-2.736,10.131-3.855,35.354,7.345,50.833
	C29.754,100.718,31.832,75.362,37.781,64.815z M69.894,119.427c14.743-14.581,10.257-32.833,11.075-41
	C81.439,87.853,87.566,107.409,69.894,119.427z M75.039,82.37c-4.324,0-9.884-1.029-8.854,2.883s1.853,21.622,2.882,25.945
	c2.471,10.376-13.817,22.441-25.627-5.146c-5.281-12.338-5.877-42.215-1.966-44.686c3.913-2.471,8.854-7.207,14.003-16.473
	c5.147-9.266,4.941-30.888,10.09-30.683c5.148,0.206,5.148-0.618,6.59,0.825c4.941,2.881,9.267,8.647,11.119,15.648
	c1.853,7.002,1.236,9.885,0.824,15.444c-0.413,5.56,3.5,9.884,0.824,15.649C82.245,67.544,79.363,82.37,75.039,82.37z
	 M86.819,89.234c-12.858-11.563,19.843-38.815-6.882-74.328C110.625,47.216,76.304,75.613,86.819,89.234z M77.375,58.872
	c-1.473,0-1.473,0-3.33-1.152s-10.35,1.192-13.257,2.947c-0.809,0.487,0.58,1.988,1.857,3.393c2.593,2.854,7.813,5.253,12.104,6.148
	c3.608,0.754,3.586-1.089,3.139-2.817c-0.449-1.729,0.639-2.69,1.6-4.611C80.449,60.857,78.849,58.872,77.375,58.872z
	 M71.562,67.562c-0.104,0.429-0.964,0.588-1.921,0.355c-0.956-0.232-1.648-0.767-1.545-1.195c0.104-0.428,0.963-0.588,1.92-0.355
	S71.665,67.134,71.562,67.562z M77.824,64.572c-0.449,1.281-0.577,2.626-3.523,1.921c-5.18-1.238-9.25-1.264-12.744-5.123
	c1.346-0.641,8.453-2.049,10.824-0.96c2.369,1.088,3.457,1.216,4.482,1.409C77.889,62.011,78.271,63.292,77.824,64.572z" class="color c1"/>
</svg>