<svg version="1.1" id="图层_1" x="0px" y="0px" width="158.875px" height="227.686px" viewBox="0 0 158.875 227.686" enable-background="new 0 0 158.875 227.686" xml:space="preserve" xmlns:xml="http://www.w3.org/XML/1998/namespace" xmlns="http://www.w3.org/2000/svg" xmlns:xlink="http://www.w3.org/1999/xlink">
  <g>
    <path fill="#060000" d="M87.966,194.743h0.75v1.953h-4.35v-1.953h0.75c0.078,0,0.146-0.002,0.207-0.008l-1.922-5.454l-1.758,5.453
		c0.061,0.006,0.133,0.009,0.217,0.009h0.75v1.949l-4.521,0.008H73.4v-1.954h0.75c0.111,0,0.195-0.005,0.257-0.013v-9.323
		c-0.059-0.009-0.144-0.015-0.257-0.015H73.4v-1.947h5.189v1.947h-0.75c-0.11,0-0.193,0.006-0.254,0.015l-0.004,9.323
		c0.063,0.008,0.146,0.013,0.258,0.013l0.328-0.003c0.119,0,0.191-0.012,0.231-0.021c0.003-0.022,0.03-0.088,0.059-0.188
		l3.634-11.087h1.574l4.004,11.027c0.063,0.145,0.105,0.226,0.134,0.267C87.818,194.737,87.876,194.743,87.966,194.743z
		 M106.55,186.648c-0.077,0.04-0.133,0.063-0.18,0.074c-0.031-0.029-0.082-0.079-0.149-0.16l-7.816-8.452l-1.416,0.688l0.875,11.691
		c0.007,0.173-0.002,0.28-0.01,0.344c-0.03,0.021-0.082,0.052-0.164,0.091l-0.666,0.317l0.813,1.768l3.938-1.896l-0.808-1.77
		l-0.688,0.331c-0.063,0.031-0.122,0.057-0.176,0.078l-0.49-5.802l3.835,4.18c-0.062,0.037-0.136,0.077-0.226,0.122l-0.66,0.315
		l0.808,1.769l4.696-2.261l-0.817-1.802L106.55,186.648z M65.949,192.684c-0.007,0.169-0.001,0.27,0.005,0.316
		c0.021,0.005,0.075,0.042,0.169,0.093l0.646,0.34l-0.861,1.742l-3.871-2.017l0.854-1.748l0.683,0.354
		c0.061,0.032,0.116,0.061,0.166,0.081l0.659-5.781l-3.958,4.063c0.059,0.037,0.133,0.081,0.225,0.129l0.647,0.337l-0.864,1.744
		l-11.512-5.996l0.871-1.741l0.676,0.354c0.091,0.047,0.165,0.08,0.222,0.104l4.056-8.315c-0.051-0.034-0.132-0.084-0.25-0.146
		l-0.648-0.337l0.86-1.748l7.919,4.122l-0.852,1.743l-0.68-0.346c-0.096-0.051-0.17-0.083-0.227-0.104l-4.054,8.306
		c-0.001,0.004-0.003,0.008-0.004,0.013c0.055,0.035,0.134,0.085,0.248,0.145l0.337,0.172c0.078,0.037,0.13,0.059,0.162,0.066
		c0.012-0.021,0.056-0.062,0.117-0.128l8.09-8.229l1.396,0.724L65.949,192.684z M53.528,186.523
		c0.055,0.036,0.135,0.086,0.249,0.146c0.091,0.046,0.165,0.079,0.221,0.102l4.058-8.314c-0.051-0.033-0.129-0.082-0.243-0.143
		c-0.096-0.05-0.168-0.084-0.225-0.104l-4.054,8.304C53.532,186.515,53.53,186.519,53.528,186.523z M128.369,161.298l1.594,1.113
		l-8.848,13.604l-1.605-1.11l0.406-0.611c0.072-0.11,0.121-0.195,0.15-0.256c0-0.001,0-0.001,0-0.001l-7.453-5.183
		c-0.035,0.047-0.086,0.113-0.146,0.206l-0.422,0.646l-1.596-1.104l8.85-13.607l1.603,1.103l-0.405,0.613
		c-0.072,0.11-0.117,0.195-0.146,0.256l7.455,5.187c0.034-0.048,0.082-0.111,0.141-0.201L128.369,161.298z M126.044,164.845
		c-0.002-0.002-0.004-0.004-0.008-0.005l-7.451-5.177c-0.037,0.048-0.088,0.113-0.147,0.208c-0.071,0.109-0.117,0.194-0.146,0.258
		l7.455,5.185c0.037-0.049,0.086-0.114,0.146-0.21C125.966,164.99,126.016,164.906,126.044,164.845z M116.451,163.008l7.408,5.157
		c0.023-0.033,0.049-0.063,0.061-0.082c0.017-0.027,0.031-0.059,0.047-0.085l-7.413-5.15c-0.021,0.029-0.048,0.063-0.074,0.1
		C116.473,162.962,116.462,162.984,116.451,163.008z M122.126,170.868c-0.002-0.002-0.004-0.004-0.006-0.008l-7.451-5.174
		c-0.039,0.047-0.088,0.115-0.149,0.209c-0.072,0.11-0.117,0.195-0.146,0.256l7.453,5.186c0.037-0.049,0.088-0.117,0.148-0.212
		C122.048,171.014,122.096,170.929,122.126,170.868z M41.214,178.364l3.257-4.77l-5.36,1.624c0.035,0.063,0.079,0.131,0.135,0.213
		l0.423,0.609l-1.594,1.134l-2.917-4.341l0.003-0.003l-6.526-9.71l1.582-1.145l0.432,0.654c0.058,0.088,0.105,0.153,0.145,0.202
		l7.381-5.296c-0.028-0.06-0.075-0.146-0.151-0.255l-0.418-0.607l1.588-1.126l7.152,10.641l-1.582,1.119l-0.43-0.636
		c-0.074-0.108-0.131-0.182-0.174-0.23l-7.357,5.319c-0.001,0.001-0.002,0.001-0.002,0.002c0.032,0.062,0.082,0.146,0.157,0.255
		l0.255,0.38c0.036,0.046,0.064,0.076,0.083,0.098c0.021-0.014,0.076-0.026,0.162-0.059l10.896-3.243l0.89,1.296l-0.287,0.423
		l-6.192,9.255c-0.001,0.002-0.003,0.004-0.005,0.006l1.748,2.335l-1.452-1.231l-1.5,1.087l-2.465-3.673l1.572-1.131l0.435,0.635
		C41.139,178.261,41.179,178.316,41.214,178.364z M34.695,168.636c0.032,0.059,0.08,0.141,0.155,0.248
		c0.062,0.096,0.112,0.166,0.153,0.218l7.38-5.301c-0.028-0.057-0.075-0.141-0.152-0.253c-0.06-0.091-0.109-0.158-0.149-0.206
		l-7.384,5.292C34.696,168.635,34.696,168.635,34.695,168.636z M32.589,165.505c0.032,0.06,0.081,0.144,0.157,0.256
		c0.063,0.091,0.112,0.158,0.152,0.208l7.38-5.297c-0.029-0.059-0.077-0.146-0.155-0.264c-0.059-0.089-0.107-0.151-0.147-0.198
		l-7.381,5.291C32.592,165.502,32.59,165.503,32.589,165.505z M36.262,150.109l-8.976-0.003c-0.006,0.068-0.011,0.162-0.011,0.289
		v0.75h-1.939v-9.471h1.939v0.75c0,0.043,0,0.084,0.001,0.122l2.411-1.629l-2.412-1.922c0,0.021,0,0.044,0,0.065v0.75h-1.939v-4.444
		h1.939v0.75c0,0.063,0.007,0.096,0.01,0.104c0.007,0.001,0.114,0.113,0.408,0.321l3.885,3.041l4.341-3.043
		c0.114-0.109,0.265-0.252,0.373-0.368l-0.016-0.808h1.934v5.312h-1.934v-0.75c0-0.02,0-0.038,0-0.057l-2.268,1.644l2.271,1.801
		c0-0.008,0-0.016,0-0.022v-0.75h1.936l-0.005,8.604h-1.934v-0.75C36.278,150.269,36.271,150.176,36.262,150.109z M27.29,146.873
		h8.974c0.007-0.065,0.015-0.161,0.015-0.291l0.004-0.354c0-0.065-0.009-0.098-0.009-0.098c-0.06-0.039-0.218-0.19-0.431-0.39
		l-3.713-2.883l-4.448,2.957c-0.283,0.184-0.378,0.285-0.396,0.308c0.002,0.002-0.007,0.041-0.008,0.12v0.338
		C27.278,146.708,27.283,146.803,27.29,146.873z M158.762,64.031c-0.304,1.355-1.164,2.369-2.313,2.727
		c-0.832,0.557-3.383,2.796-5.475,4.726l-0.236,7.195v149.008H7.816V71.399c-2.073-1.913-4.573-4.103-5.386-4.646
		c-1.152-0.358-2.016-1.372-2.316-2.729c-0.344-1.531,0.056-3.701,1.747-4.843c0.761-0.515,1.518-0.593,2.968-0.475L5.5,58.759
		c1.134,0.074,2.567,0.167,4.234,0.167c10.927,0,19.817-4.034,26.425-11.989c0.117-0.208,17.027-27.253,31.659-30.262l3.068-0.629
		v7.171l-0.566,0.721c-0.194,0.25-0.414,0.568-0.597,0.863l0.013,0.047c0.329,1.586-0.64,2.563-1.495,3.423
		c-2.019,2.015-5.77,5.752-3.372,12.102l1.147,3.594l-1.233,1.138c-1.628,1.52-6.206,6.713-5.873,10.514
		c0.121,1.381,0.941,2.534,2.509,3.531c2.62,1.658,4.249,1.826,5.574,0.44c1.25-1.313,1.933-3.719,2.201-5.273h-3.43v-9.544h7.474
		c0.748-2.003,1.304-3.956,1.453-5.087c-0.924-0.582-1.622-1.588-2.077-2.996c-1.018-3.146-0.955-9.744,1.777-13.585
		c-0.311-7.965,0.182-10.473,0.624-11.576l-0.063-0.202c-0.599-2-2.184-7.302,3.188-10.542L79.438,0l1.292,0.771
		c5.375,3.241,3.785,8.544,3.188,10.541l-0.063,0.205c0.447,1.109,0.943,3.622,0.627,11.586c2.73,3.84,2.791,10.438,1.771,13.584
		c-0.457,1.406-1.151,2.41-2.071,2.99c0.147,1.127,0.707,3.082,1.455,5.093H93.1v9.544h-3.425c0.269,1.555,0.947,3.957,2.197,5.271
		c1.33,1.395,2.959,1.226,5.582-0.438c1.564-0.998,2.385-2.152,2.504-3.531c0.336-3.827-4.244-8.998-5.875-10.51l-1.237-1.144
		l1.118-3.468c2.433-6.462-1.442-10.34-3.305-12.203c-0.867-0.867-1.85-1.851-1.525-3.41l0.019-0.086
		c-0.178-0.285-0.401-0.606-0.601-0.858l-0.565-0.721v-7.171l3.068,0.629c14.409,2.961,31.155,29.412,31.862,30.537
		c6.476,7.754,15.312,11.714,26.226,11.714c1.664,0,3.092-0.093,4.135-0.161l0.104-0.006c0.256-0.016,0.486-0.035,0.701-0.052
		c1.446-0.114,2.176-0.033,2.932,0.474C158.703,60.323,159.104,62.494,158.762,64.031z M79.441,197.866
		c31.014,0,56.247-25.232,56.247-56.247c0-31.02-25.231-56.253-56.247-56.253c-31.02,0-56.254,25.233-56.254,56.253
		C23.187,172.634,48.421,197.866,79.441,197.866z M153.309,59.264L153.309,59.264L153.309,59.264L153.309,59.264z M32.143,118.364
		c0.069-0.017,0.247-0.02,0.502,0.013l5.272,0.545l1.18,4.677c0.049,0.293,0.081,0.517,0.104,0.574c0,0-0.013,0.033-0.063,0.101
		l-0.436,0.574l1.5,1.228l2.696-3.502l-1.515-1.219l-0.456,0.594l-0.696-2.864l2.767,0.172c-0.018,0.021-0.036,0.049-0.056,0.074
		l-0.453,0.58l1.514,1.229l3.207-4.171l-1.504-1.236l-0.314,0.411l-0.128,0.245c-0.164,0.02-0.373,0.035-0.522,0.05l-5.243-0.41
		l-1.214-4.896c-0.112-0.384-0.125-0.538-0.128-0.539c0.002-0.007,0.014-0.038,0.054-0.091l0.434-0.575l-1.497-1.227l-1.247,1.617
		l-0.699-0.726l0.448,1.051l-1.19,1.546l1.496,1.241l0.475-0.618c0.008-0.01,0.016-0.02,0.022-0.028l0.731,3.066l-2.87-0.275
		c0.027-0.04,0.06-0.082,0.095-0.131l0.444-0.572l-1.5-1.239l-3.209,4.177l1.511,1.25L32.143,118.364z M115.292,123.975
		l-5.438-8.606l1.668-1.114l0.41,0.646c0.11,0.179,0.196,0.281,0.254,0.343l8.733-5.896c0.033-0.021,0.06-0.042,0.08-0.058
		c-0.035-0.078-0.1-0.208-0.221-0.397l-0.395-0.612l1.67-1.13l5.438,8.613l-1.664,1.126l-0.414-0.654
		c-0.104-0.164-0.187-0.271-0.242-0.34c-0.012,0.011-0.025,0.021-0.043,0.029l-8.762,5.901c-0.007,0.004-0.013,0.008-0.019,0.01
		c0.028,0.067,0.088,0.199,0.219,0.407l0.388,0.615L115.292,123.975z M114.251,118.57c0.115,0.182,0.197,0.283,0.25,0.343
		l8.734-5.896c0.031-0.021,0.059-0.042,0.078-0.058c-0.031-0.078-0.096-0.206-0.219-0.404c-0.104-0.165-0.186-0.269-0.242-0.333
		c-0.014,0.008-0.027,0.02-0.045,0.029l-8.762,5.898c-0.004-0.009-0.008-0.014-0.01-0.014
		C114.025,118.134,114.066,118.278,114.251,118.57z M122.611,136.519l8.977,0.002c0.007-0.066,0.013-0.163,0.013-0.291v-0.75h1.938
		v12.938H131.6v-0.75c0-0.128-0.006-0.225-0.013-0.292h-8.977c-0.008,0.063-0.014,0.161-0.014,0.292v0.75h-1.938V135.48h1.938v0.75
		C122.598,136.358,122.604,136.451,122.611,136.519z M122.611,140.331l8.977,0.003c0.007-0.068,0.013-0.163,0.013-0.291
		c0-0.126-0.006-0.221-0.013-0.29h-8.977c-0.008,0.063-0.014,0.16-0.014,0.29C122.598,140.171,122.604,140.265,122.611,140.331z
		 M131.587,143.565h-8.975c-0.008,0.065-0.014,0.161-0.014,0.292c0,0.128,0.006,0.224,0.014,0.289l8.975,0.002
		c0.007-0.067,0.013-0.164,0.013-0.291C131.6,143.729,131.593,143.634,131.587,143.565z M102.046,105.948l-0.682-0.256
		c-0.193-0.07-0.305-0.129-0.348-0.153l3.336-9.747c0.004-0.019,0.01-0.032,0.016-0.046c0.07,0.017,0.176,0.048,0.322,0.103
		l0.719,0.27l0.654-1.889l-5.238-1.917l-0.643,1.889l0.688,0.252c0.168,0.061,0.276,0.111,0.346,0.146
		c-0.006,0.022-0.014,0.047-0.021,0.076l-3.332,9.712c-0.076-0.016-0.188-0.046-0.33-0.098l-0.721-0.254l-0.633,1.883l5.232,1.914
		L102.046,105.948z M74.464,101.742h-4.348v-1.948h0.75c0.031-0.003,0.038,0.001,0.038,0.007c0.106-0.111,0.238-0.258,0.404-0.448
		l2.813-3.872l-2.886-4.633c-0.194-0.325-0.296-0.41-0.297-0.411l-0.822,0.005v-1.949h5.189v1.949h-0.75
		c-0.044,0-0.085,0-0.124,0.002l1.583,2.504l1.869-2.504c-0.024,0-0.052-0.001-0.079-0.001h-0.75v-1.949H88.1v1.949h-0.75
		c-0.113,0-0.197,0.006-0.263,0.012v9.326c0.062,0.007,0.146,0.014,0.263,0.014h0.75v1.948h-6.12c0.18,0.699,0.346,1.43,0.498,2.178
		c20.637,1.487,36.746,18.588,36.746,39.101c0,21.62-17.791,39.209-39.66,39.209c-21.867,0-39.657-17.589-39.657-39.209
		c0-21.418,17.511-38.923,39.122-39.208c0.146-0.712,0.306-1.403,0.478-2.069H76.22v-1.948h0.75c0.021,0,0.04,0,0.061,0
		l-1.599-2.355l-1.748,2.355c0.009,0,0.019,0,0.027,0h0.75L74.464,101.742z M77.311,94.918l2.912,4.432l0.002-0.005v-8.402
		L77.311,94.918z M82.091,116.114c0.269,0.3,0.412,0.659,0.412,1.047v20.909c1.054,0.736,1.695,1.964,1.695,3.267
		c0,0.89-0.287,1.712-0.771,2.374l1.246,0.396l-1.459-0.134c-0.707,0.813-1.733,1.324-2.878,1.324c-1.617,0-3.055-1.036-3.617-2.563
		h-14.09c-0.193,0-0.378-0.042-0.546-0.124c-0.875,0.391-2.208,0.8-3.943,0.8c-0.379,0-0.771-0.021-1.159-0.063
		c-3.587-0.357-6.125-1.245-6.149-1.254l-2.012-0.707l2.013-0.707c0.284-0.097,2.767-0.915,6.146-1.259
		c0.353-0.035,0.707-0.053,1.051-0.053c1.823,0,3.207,0.479,4.106,0.933c0.154-0.067,0.321-0.102,0.493-0.102h14.019
		c0.318-1.096,1.089-1.997,2.104-2.47v-20.567c0-0.42,0.165-0.806,0.473-1.11c-0.548-1.331-1.25-3.746-0.976-6.966
		c-18.369,0.688-33.219,15.796-33.219,33.937c0,18.731,15.493,33.972,34.537,33.972s34.539-15.238,34.539-33.972
		c0-17.224-13.504-31.939-30.853-33.767C83.482,112.445,82.695,114.808,82.091,116.114z M83.917,99.784l0.004-9.328
		c-0.123-0.01-0.393-0.013-0.518,0v9.327C83.521,99.797,83.796,99.8,83.917,99.784z M48.662,98.579l-0.809-1.771l4.696-2.257
		l0.812,1.771l-0.67,0.313c-0.065,0.031-0.122,0.062-0.172,0.087l2.492,1.563l0.675-3.099c-0.013,0.008-0.024,0.014-0.037,0.02
		l-0.696,0.341l-0.805-1.776l3.917-1.889l0.002,0.004l3.663-1.765l0.816,1.775l-0.679,0.313c-0.108,0.051-0.186,0.093-0.241,0.127
		c0.002,0.004,0.004,0.009,0.007,0.015l3.805,8.431c0.06-0.021,0.133-0.051,0.227-0.095l0.688-0.324l0.806,1.765l-8.347,4.019
		l-0.811-1.771l0.667-0.317c0.028-0.014,0.056-0.024,0.08-0.039l-2.412-1.438l-0.623,2.898l0.689-0.324l0.807,1.763l-3.939,1.897
		l-0.804-1.773l0.666-0.314c0.082-0.11,0.148-0.329,0.231-0.604l0.968-4.737l-4.497-2.927c-0.256-0.174-0.387-0.229-0.43-0.244
		c0.012,0.007-0.023,0.015-0.056,0.031L48.662,98.579z M58.042,94.551l-1.031,4.954l4.578,2.813
		c0.139,0.061,0.269,0.115,0.383,0.158l0.344-0.167c0.113-0.055,0.191-0.101,0.247-0.136l-3.808-8.444
		c-0.058,0.021-0.131,0.054-0.221,0.097l-0.308,0.146C58.156,94.028,58.111,94.149,58.042,94.551z" class="color c1"/>
    <path fill="#B88627" d="M155.3,61.89l-0.313,0.012c-0.178,0.01-0.344,0.021-0.528,0.035l-0.179,0.018
		c-0.211,0.017-0.438,0.035-0.711,0.052c-1.182,0.077-2.649,0.173-4.426,0.173c-11.925,0-21.606-4.362-28.763-12.938l-0.2-0.276
		c-0.636-1.001-15.685-24.554-28.287-28.703l-0.656-0.216v2.052l0.099,0.132c0.285,0.391,0.567,0.823,0.783,1.194l0.467,0.821
		l-0.229,1.126l0.178,0.188c0.121,0.13,0.27,0.277,0.422,0.433c1.969,1.971,7.199,7.203,4.08,15.58l-0.457,1.422l0.215,0.216
		c1.621,1.626,6.875,7.345,6.406,12.69c-0.209,2.418-1.553,4.438-3.994,5.991c-1.971,1.248-3.707,1.855-5.313,1.855
		c-1.662,0-3.175-0.663-4.369-1.918c-2.619-2.751-3.145-7.491-3.191-8.022l-0.266-2.739h3.785v-3.045H83.41l-0.617-1.6
		c-0.891-2.306-1.854-5.385-1.895-7.116l-0.037-1.675l1.535-0.672l0.092-0.052c0.168-0.121,0.447-0.517,0.68-1.226
		c0.81-2.5,0.648-8.097-1.434-10.837l-0.543-0.717l0.037-0.899c0.348-8.35-0.229-10.195-0.412-10.563l-0.444-0.901l0.46-1.451
		c0.812-2.71,0.916-4.705-1.073-6.278l-0.31-0.246l-0.311,0.246c-2.001,1.581-1.895,3.602-1.071,6.348l0.424,1.414l-0.426,0.871
		c-0.184,0.373-0.75,2.236-0.412,10.563l0.036,0.898l-0.544,0.716c-2.083,2.741-2.243,8.34-1.436,10.84
		c0.198,0.611,0.463,1.074,0.788,1.284l1.52,0.659l-0.036,1.676c-0.034,1.735-0.998,4.814-1.891,7.118l-0.618,1.597h-6.454v3.043
		h3.793l-0.267,2.742c-0.051,0.53-0.572,5.269-3.192,8.021c-1.196,1.252-2.706,1.913-4.365,1.913c-1.604,0-3.339-0.604-5.302-1.85
		c-2.448-1.558-3.796-3.575-4.007-5.997c-0.468-5.318,4.784-11.063,6.404-12.692l0.214-0.218L61.8,41.428
		c-3.08-8.257,2.153-13.474,4.187-15.5c0.12-0.121,0.241-0.243,0.343-0.353l0.188-0.202l-0.274-1.039l0.505-0.888
		c0.216-0.383,0.506-0.827,0.796-1.229l0.097-0.131v-2.052l-0.657,0.218C55.692,23.993,41.943,43.647,38.9,48.674l-0.218,0.308
		c-7.267,8.753-17.004,13.191-28.945,13.191c-1.771,0-3.265-0.098-4.351-0.168l-1.018-0.078c-0.172-0.015-0.328-0.028-0.473-0.034
		l-0.305-0.012l-0.149,0.265c-0.174,0.308-0.238,0.796-0.13,1.262l0.079,0.227l0.459,0.164l0.219,0.143
		c1.057,0.651,3.999,3.265,6.198,5.301l0.801,0.739v154.455H147.49V78.668l0.279-8.649l0.768-0.71
		c2.236-2.067,5.228-4.72,6.26-5.354l0.742-0.4l0.051-0.229c0.084-0.372,0.023-0.852-0.141-1.158L155.3,61.89z M79.443,5.089
		c1.102,1.051,1.196,2.369,0.428,4.934l-0.448,1.416l-0.402-1.342C78.237,7.482,78.332,6.146,79.443,5.089z M154.305,63.082
		c-1.455,0.894-5.627,4.729-6.449,5.493l-1.071,0.99l-0.296,9.084v144.783H12.066V69.544l-1.121-1.039
		c-0.808-0.748-4.911-4.526-6.343-5.409l-0.251-0.164l0.965,0.074c1.104,0.071,2.614,0.17,4.419,0.17
		c12.253,0,22.25-4.56,29.737-13.582l0.259-0.365c2.963-4.893,16.028-23.61,26.903-27.78v0.323
		c-0.277,0.396-0.552,0.817-0.761,1.188l-0.706,1.242l0.236,0.896c-0.055,0.058-0.117,0.118-0.188,0.19
		c-2.096,2.089-7.661,7.636-4.363,16.473l0.305,0.955c-2.271,2.333-6.954,7.853-6.479,13.27c0.237,2.748,1.74,5.021,4.467,6.758
		c2.129,1.348,4.039,2.002,5.838,2.002c1.938,0,3.698-0.771,5.089-2.226c2.853-2.999,3.411-8.05,3.466-8.612l0.371-3.841h-3.895
		v-1.045h6.14l0.865-2.232c0.923-2.387,1.922-5.598,1.958-7.459l0.05-2.349l-2.041-0.887c-0.057-0.079-0.19-0.291-0.328-0.715
		c-0.735-2.275-0.517-7.563,1.28-9.927l0.761-1.002l-0.05-1.262c-0.349-8.552,0.284-10.025,0.311-10.085l0.476-0.973l0.48,0.978
		c0.027,0.062,0.666,1.539,0.312,10.077l-0.054,1.262l0.763,1.004c1.795,2.36,2.015,7.647,1.276,9.924
		c-0.141,0.429-0.276,0.646-0.313,0.707l-2.061,0.897l0.054,2.348c0.042,1.856,1.042,5.066,1.958,7.454l0.867,2.236h6.129v1.043
		H84.96l0.369,3.835c0.055,0.566,0.612,5.622,3.463,8.616c1.391,1.458,3.151,2.229,5.096,2.229c1.799,0,3.711-0.658,5.848-2.015
		c2.721-1.73,4.221-4.004,4.455-6.749c0.479-5.439-4.207-10.94-6.479-13.268l0.266-0.82c3.336-8.956-2.227-14.521-4.344-16.64
		c-0.063-0.063-0.131-0.131-0.195-0.199l0.201-0.98l-0.654-1.149c-0.211-0.366-0.473-0.772-0.748-1.156v-0.324
		c12.137,4.624,26.482,27.085,27.119,28.084l0.234,0.326c7.373,8.841,17.315,13.323,29.553,13.323c1.809,0,3.295-0.097,4.51-0.176
		c0.258-0.02,0.488-0.035,0.768-0.06l0.119-0.01c0.021-0.002,0.043-0.004,0.063-0.005L154.305,63.082z M79.441,80.616
		c-33.638,0-61.004,27.363-61.004,61.003c0,33.634,27.366,60.997,61.004,60.997c33.635,0,60.997-27.363,60.997-60.997
		C140.438,107.982,113.076,80.616,79.441,80.616z M79.441,201.616c-33.086,0-60.004-26.915-60.004-59.997
		c0-33.086,26.918-60.003,60.004-60.003c33.083,0,59.997,26.917,59.997,60.003C139.438,174.701,112.523,201.616,79.441,201.616z" class="color c2"/>
    <path fill="#FFFFFF" d="M40.771,161.242l-7.467,5.357c-0.254,0.186-0.464,0.239-0.619,0.167c-0.158-0.067-0.344-0.268-0.562-0.59
		c-0.216-0.32-0.332-0.568-0.339-0.748c-0.009-0.172,0.116-0.354,0.372-0.54l7.465-5.354c0.203-0.146,0.385-0.188,0.547-0.123
		c0.168,0.064,0.362,0.257,0.579,0.58c0.214,0.319,0.32,0.573,0.323,0.759C41.075,160.932,40.973,161.095,40.771,161.242z
		 M83.664,100.547c0.381,0,0.644-0.057,0.787-0.158c0.148-0.104,0.221-0.284,0.221-0.538v-9.395c0-0.322-0.071-0.532-0.221-0.621
		c-0.146-0.094-0.41-0.139-0.787-0.139c-0.385,0-0.645,0.045-0.793,0.139c-0.141,0.089-0.217,0.299-0.217,0.621v9.395
		c0,0.258,0.076,0.438,0.217,0.538C83.021,100.49,83.283,100.547,83.664,100.547z M80.803,100.328
		c0.106-0.108,0.172-0.262,0.172-0.479v-9.395c0-0.322-0.072-0.532-0.218-0.621c-0.067-0.046-0.248-0.041-0.358-0.063
		c-0.082,0.026-0.194,0.026-0.26,0.078c-0.119,0.105-0.282,0.31-0.485,0.606l-3.256,4.438l3.256,4.959
		c0.182,0.209,0.329,0.378,0.452,0.504c0.068,0.067,0.199,0.072,0.302,0.104c0.077-0.021,0.174-0.027,0.256-0.044
		c0.053-0.169,0.084-0.27,0.084-0.27S80.766,100.212,80.803,100.328z M43.174,163.882c0-0.183-0.104-0.438-0.325-0.759
		c-0.211-0.326-0.408-0.52-0.572-0.58c-0.162-0.064-0.344-0.021-0.551,0.125l-7.465,5.354c-0.257,0.188-0.382,0.362-0.37,0.538
		c0.008,0.185,0.12,0.431,0.342,0.748c0.213,0.327,0.396,0.521,0.557,0.592c0.155,0.074,0.366,0.019,0.619-0.168l7.466-5.359
		C43.078,164.227,43.174,164.064,43.174,163.882z M44.278,143.021c0,19.146,15.831,34.722,35.287,34.722
		c19.458,0,35.287-15.576,35.287-34.722c0-18.196-14.308-33.163-32.437-34.598c0.021,0.176,0.039,0.35,0.058,0.529
		c0.346,3.62-0.666,6.148-1.328,7.363c0.334,0.183,0.606,0.46,0.606,0.842v21.326c1.002,0.535,1.693,1.604,1.693,2.85
		c0,1.771-1.396,3.213-3.109,3.213c-1.504,0-2.761-1.104-3.053-2.563H62.628c-0.197,0-0.348-0.108-0.443-0.258
		c-0.772,0.408-2.539,1.137-5.131,0.875c-3.527-0.354-5.976-1.215-5.976-1.215s2.447-0.861,5.976-1.221
		c2.6-0.257,4.371,0.563,5.138,1.018c0.104-0.135,0.246-0.232,0.438-0.232h14.628c0.153-1.302,1.05-2.354,2.244-2.699v-21.088
		c0-0.403,0.289-0.685,0.655-0.856c-0.591-1.228-1.493-3.749-1.144-7.352c0.021-0.221,0.045-0.432,0.067-0.643
		C59.848,108.57,44.278,124.036,44.278,143.021z M80.625,143.014c-0.619,0-1.124-0.469-1.124-1.037
		c-0.007,0-0.015,0.008-0.027,0.008H78.39c0.27,0.852,1.038,1.47,1.946,1.47c1.13,0,2.051-0.949,2.051-2.117
		c0-0.603-0.244-1.144-0.634-1.527v2.17C81.753,142.545,81.246,143.014,80.625,143.014z M79.473,140.948
		c0.014,0,0.021,0.011,0.027,0.011v-1.562c-0.606,0.281-1.058,0.855-1.183,1.551H79.473z M136.438,141.619
		c0,31.428-25.565,56.997-56.996,56.997c-31.433,0-57.004-25.569-57.004-56.997c0-31.435,25.571-57.003,57.004-57.003
		C110.869,84.616,136.438,110.187,136.438,141.619z M97.123,105.463l3.826,1.399l0.154-0.472c-0.393-0.146-0.646-0.295-0.762-0.46
		c-0.109-0.164-0.125-0.378-0.033-0.641l3.332-9.742c0.111-0.337,0.264-0.523,0.445-0.563c0.188-0.043,0.475,0.013,0.865,0.155
		l0.159-0.467l-3.823-1.399l-0.16,0.471c0.396,0.145,0.651,0.291,0.771,0.438c0.111,0.153,0.115,0.396,0.002,0.729l-3.334,9.741
		c-0.09,0.264-0.229,0.421-0.414,0.473c-0.188,0.06-0.479,0.007-0.875-0.135L97.123,105.463z M70.866,100.991h2.848v-0.448
		c-0.514,0-0.848-0.063-1.006-0.177c-0.075-0.059-0.116-0.123-0.116-0.216c0-0.087,0.041-0.188,0.116-0.303l2.752-3.708l2.518,3.708
		c0.07,0.103,0.107,0.198,0.107,0.275c0,0.098-0.055,0.181-0.16,0.24c-0.188,0.114-0.506,0.177-0.953,0.177v0.448h2.996h0.521
		c-0.215,0.754-0.535,1.979-0.84,3.567c-0.027,0-0.054-0.002-0.081-0.002c-21.452,0-38.907,17.256-38.907,38.462
		c0,21.205,17.455,38.459,38.907,38.459c21.457,0,38.91-17.25,38.91-38.459c0-20.449-16.229-37.215-36.621-38.39
		c-0.311-1.623-0.635-2.875-0.854-3.642h2.656h3.688v-0.447c-0.379,0-0.646-0.06-0.791-0.158c-0.146-0.104-0.222-0.28-0.222-0.537
		v-9.396c0-0.321,0.076-0.531,0.222-0.621c0.146-0.097,0.407-0.14,0.791-0.14v-0.45H83.66h-3H79.97h-2.162v0.45
		c0.424,0,0.751,0.063,0.975,0.19c0.119,0.071,0.178,0.153,0.178,0.25c0,0.09-0.052,0.199-0.142,0.316l-2.854,3.814l-2.415-3.814
		c-0.076-0.126-0.108-0.234-0.108-0.327c0-0.108,0.055-0.199,0.161-0.261c0.188-0.114,0.509-0.172,0.955-0.172v-0.451h-3.689v0.451
		c0.223,0,0.4,0.055,0.534,0.152c0.134,0.104,0.294,0.308,0.472,0.604l3.153,5.063l-3.153,4.334c-0.203,0.23-0.358,0.402-0.472,0.52
		c-0.11,0.116-0.288,0.179-0.534,0.179L70.866,100.991L70.866,100.991z M58.022,92.745l0.187,0.401
		c0.339-0.164,0.601-0.232,0.771-0.217c0.17,0.021,0.32,0.176,0.451,0.468l3.842,8.514c0.102,0.229,0.107,0.428,0.021,0.589
		c-0.087,0.149-0.308,0.314-0.651,0.481l0.186,0.405l3.345-1.612l-0.185-0.402c-0.349,0.166-0.604,0.229-0.778,0.202
		c-0.178-0.029-0.314-0.16-0.416-0.395l-3.842-8.512c-0.132-0.292-0.152-0.513-0.059-0.663c0.091-0.149,0.311-0.308,0.66-0.471
		l-0.187-0.404L58.022,92.745z M48.84,97.168l0.186,0.403c0.202-0.101,0.388-0.123,0.55-0.092c0.164,0.041,0.388,0.152,0.674,0.351
		l4.925,3.206l-1.087,5.302c-0.088,0.295-0.158,0.524-0.214,0.677c-0.058,0.157-0.193,0.288-0.415,0.396l0.184,0.4l2.586-1.246
		l-0.186-0.4c-0.467,0.224-0.793,0.313-0.979,0.273c-0.096-0.015-0.16-0.064-0.195-0.142c-0.036-0.079-0.043-0.188-0.02-0.33
		l0.979-4.56l3.799,2.263c0.104,0.063,0.183,0.131,0.212,0.206c0.041,0.09,0.025,0.187-0.046,0.288
		c-0.123,0.188-0.388,0.382-0.797,0.576l0.186,0.402l3.347-1.607l-0.187-0.403c-0.225,0.104-0.416,0.124-0.574,0.067
		c-0.167-0.063-0.372-0.149-0.62-0.261l-4.975-3.073l1.135-5.44c0.062-0.362,0.12-0.613,0.193-0.762
		c0.072-0.147,0.206-0.274,0.407-0.371l-0.188-0.405l-2.584,1.246l0.185,0.405c0.385-0.189,0.708-0.27,0.964-0.251
		c0.135,0.016,0.22,0.062,0.257,0.146s0.044,0.206,0.004,0.355l-1.024,4.703l-3.75-2.402c-0.115-0.083-0.195-0.169-0.232-0.251
		c-0.047-0.097-0.031-0.201,0.041-0.304c0.123-0.188,0.387-0.38,0.796-0.575l-0.185-0.403L48.84,97.168z M31.18,117.689l0.34,0.28
		c0.13-0.18,0.281-0.292,0.445-0.337c0.162-0.041,0.412-0.046,0.755-0.003l5.795,0.598l1.319,5.245
		c0.053,0.313,0.085,0.543,0.104,0.703c0.019,0.165-0.052,0.345-0.203,0.547l0.343,0.28l1.776-2.311l-0.347-0.275
		c-0.32,0.416-0.569,0.649-0.758,0.703c-0.093,0.024-0.168,0.017-0.232-0.036c-0.07-0.06-0.116-0.149-0.155-0.285l-1.102-4.53
		l4.378,0.272c0.123,0.004,0.216,0.038,0.273,0.088c0.075,0.063,0.104,0.153,0.082,0.272c-0.027,0.229-0.183,0.524-0.463,0.886
		l0.346,0.278l2.295-2.982l-0.344-0.281c-0.152,0.199-0.313,0.307-0.485,0.329c-0.174,0.02-0.396,0.038-0.662,0.052l-5.781-0.451
		l-1.337-5.392c-0.102-0.348-0.151-0.603-0.155-0.771c0-0.157,0.065-0.336,0.203-0.52l-0.342-0.28l-1.773,2.307l0.34,0.278
		c0.266-0.344,0.515-0.563,0.754-0.665c0.126-0.05,0.225-0.046,0.298,0.018c0.071,0.06,0.122,0.16,0.155,0.313l1.115,4.678
		l-4.389-0.421c-0.143-0.019-0.25-0.06-0.319-0.113c-0.078-0.067-0.114-0.164-0.095-0.292c0.029-0.229,0.182-0.521,0.461-0.885
		l-0.341-0.279L31.18,117.689z M26.088,146.234h0.439c0.003-0.229,0.049-0.418,0.151-0.553c0.102-0.139,0.298-0.304,0.587-0.488
		l4.896-3.257l4.192,3.257c0.225,0.214,0.392,0.371,0.504,0.488c0.111,0.115,0.171,0.299,0.171,0.553h0.435v-2.941H37.03
		c0,0.532-0.06,0.875-0.171,1.042c-0.059,0.078-0.123,0.118-0.211,0.118c-0.085,0-0.182-0.04-0.293-0.118l-3.587-2.845l3.587-2.604
		c0.098-0.074,0.192-0.112,0.269-0.112c0.097,0,0.174,0.06,0.232,0.164c0.109,0.194,0.171,0.524,0.171,0.988h0.434v-3.812h-0.434
		c0,0.253-0.067,0.442-0.188,0.569s-0.283,0.284-0.487,0.471l-4.797,3.359l-4.293-3.359c-0.29-0.205-0.485-0.374-0.587-0.501
		c-0.1-0.131-0.147-0.311-0.147-0.539h-0.439v2.944h0.439c0-0.438,0.062-0.771,0.182-1.006c0.071-0.124,0.149-0.184,0.243-0.184
		c0.088,0,0.193,0.049,0.311,0.147l3.692,2.943l-3.692,2.496c-0.123,0.078-0.229,0.112-0.32,0.112c-0.104,0-0.191-0.059-0.249-0.165
		c-0.112-0.199-0.165-0.527-0.165-0.986h-0.439V146.234z M27.263,149.355h9.09c0.25,0,0.424,0.074,0.522,0.228
		c0.097,0.149,0.152,0.422,0.152,0.813h0.434v-3.813h-0.434c0,0.393-0.057,0.668-0.152,0.813c-0.1,0.15-0.272,0.228-0.522,0.228
		h-9.09c-0.313,0-0.516-0.074-0.603-0.228c-0.091-0.146-0.133-0.424-0.133-0.813h-0.439v3.813h0.439
		c0-0.393,0.042-0.662,0.133-0.813C26.748,149.43,26.95,149.355,27.263,149.355z M35.977,172.701l0.357-0.263
		c-0.216-0.317-0.332-0.564-0.342-0.741c-0.01-0.175,0.115-0.357,0.372-0.541l7.465-5.357c0.202-0.146,0.384-0.184,0.55-0.121
		c0.168,0.064,0.359,0.26,0.576,0.58l0.358-0.254l-2.104-3.133l-2.106-3.131l-2.104-3.134l-0.357,0.257
		c0.22,0.318,0.321,0.573,0.325,0.76c0,0.18-0.1,0.346-0.305,0.49l-7.466,5.354c-0.253,0.187-0.46,0.24-0.615,0.168
		c-0.163-0.071-0.348-0.268-0.561-0.591l-0.359,0.259l2.104,3.131l2.104,3.132L35.977,172.701z M48.334,170.496l-0.291-0.424
		l-10.339,3.073c-0.305,0.105-0.537,0.129-0.691,0.061c-0.159-0.067-0.318-0.231-0.489-0.478l-0.358,0.26l2.104,3.131l0.361-0.261
		c-0.222-0.317-0.347-0.59-0.378-0.803c-0.026-0.146,0.031-0.268,0.164-0.356c0.064-0.052,0.145-0.093,0.239-0.124l7.636-2.315
		l-4.631,6.783c-0.067,0.097-0.137,0.172-0.207,0.225c-0.123,0.086-0.246,0.096-0.364,0.019c-0.191-0.117-0.391-0.338-0.611-0.663
		l-0.358,0.258l1.626,2.422l0.358-0.259c-0.164-0.248-0.246-0.449-0.239-0.605c0-0.155,0.094-0.39,0.275-0.683L48.334,170.496z
		 M56.728,189.047c-0.34-0.176-0.556-0.34-0.642-0.489c-0.1-0.148-0.067-0.37,0.068-0.659l4.091-8.389
		c0.11-0.227,0.253-0.354,0.436-0.377c0.171-0.026,0.427,0.049,0.769,0.225l0.195-0.397l-3.295-1.713l-3.295-1.721l-0.197,0.4
		c0.342,0.179,0.556,0.343,0.64,0.503c0.082,0.162,0.074,0.356-0.038,0.586l-4.091,8.391c-0.142,0.284-0.301,0.437-0.467,0.449
		c-0.167,0.019-0.424-0.063-0.764-0.236l-0.2,0.396l3.296,1.717l3.294,1.717L56.728,189.047z M65.206,192.605l1.17-11.188
		l-0.449-0.232l-7.677,7.809c-0.215,0.239-0.415,0.38-0.587,0.39c-0.168,0.014-0.379-0.045-0.644-0.181l-0.2,0.396l3.297,1.718
		l0.198-0.396c-0.341-0.18-0.576-0.354-0.702-0.523c-0.084-0.115-0.091-0.252-0.018-0.396c0.035-0.074,0.081-0.148,0.151-0.232
		l5.646-5.794l-0.938,8.242c-0.016,0.119-0.045,0.225-0.081,0.3c-0.067,0.141-0.171,0.201-0.308,0.197
		c-0.22-0.011-0.499-0.104-0.838-0.279l-0.195,0.4l2.544,1.324l0.198-0.4c-0.261-0.139-0.428-0.273-0.496-0.412
		C65.206,193.199,65.188,192.952,65.206,192.605z M77.838,184.198h-3.689v0.447c0.382,0,0.642,0.058,0.79,0.156
		c0.146,0.104,0.217,0.279,0.217,0.538v9.395c0,0.321-0.071,0.532-0.217,0.62c-0.148,0.097-0.408,0.142-0.79,0.142v0.454h3.689
		v-0.454c-0.38,0-0.645-0.045-0.79-0.142c-0.144-0.088-0.218-0.299-0.218-0.62v-9.395c0-0.255,0.074-0.434,0.218-0.538
		c0.146-0.104,0.41-0.156,0.79-0.156V184.198z M87.966,195.493c-0.291,0-0.495-0.045-0.618-0.142c-0.125-0.089-0.25-0.3-0.386-0.62
		l-3.825-10.533h-0.505l-3.453,10.533c-0.089,0.32-0.212,0.531-0.353,0.62c-0.146,0.097-0.37,0.142-0.656,0.142v0.453h3.69v-0.453
		c-0.383,0-0.666-0.045-0.854-0.142c-0.127-0.063-0.19-0.179-0.19-0.344c0-0.083,0.015-0.177,0.043-0.276l2.513-7.801l2.75,7.801
		c0.043,0.111,0.063,0.22,0.063,0.306c0,0.151-0.063,0.261-0.195,0.314c-0.199,0.097-0.488,0.142-0.867,0.142v0.453h2.851v-0.453
		H87.966z M107.08,187.718l-0.186-0.407c-0.262,0.138-0.48,0.191-0.646,0.169c-0.176-0.021-0.367-0.161-0.576-0.411l-7.44-8.045
		l-0.457,0.225l0.84,11.216c0.013,0.353-0.021,0.599-0.088,0.737c-0.077,0.138-0.241,0.269-0.512,0.396l0.187,0.402l2.59-1.246
		l-0.187-0.403c-0.351,0.168-0.631,0.247-0.849,0.255c-0.145,0.004-0.239-0.065-0.305-0.206c-0.037-0.075-0.063-0.187-0.072-0.307
		l-0.698-8.269l5.475,5.972c0.066,0.082,0.115,0.161,0.147,0.229c0.074,0.153,0.06,0.285-0.032,0.396
		c-0.14,0.169-0.377,0.338-0.72,0.505l0.185,0.402L107.08,187.718z M128.938,162.61l-0.36-0.253
		c-0.207,0.321-0.39,0.521-0.548,0.596c-0.155,0.072-0.36,0.02-0.62-0.161l-7.539-5.24c-0.207-0.143-0.313-0.307-0.313-0.486
		c0-0.184,0.098-0.438,0.313-0.764l-0.363-0.25l-2.055,3.16l-2.06,3.166l-1.86,2.859l-2.058,3.165l0.362,0.25
		c0.213-0.323,0.4-0.521,0.563-0.586s0.35-0.028,0.551,0.111l7.543,5.242c0.258,0.18,0.385,0.354,0.377,0.534
		c-0.008,0.177-0.115,0.427-0.33,0.753l0.365,0.254l2.057-3.165l2.06-3.161l1.858-2.862L128.938,162.61z M131.613,137.271h-9.092
		c-0.246,0-0.42-0.072-0.521-0.226c-0.1-0.152-0.149-0.422-0.149-0.815h-0.438v3.813v3.813v3.813h0.438
		c0-0.395,0.053-0.664,0.149-0.813c0.099-0.147,0.271-0.229,0.521-0.229h9.092c0.313,0,0.514,0.079,0.6,0.229
		c0.093,0.148,0.138,0.421,0.138,0.813h0.438v-3.813v-3.813v-3.813h-0.438c0,0.396-0.045,0.663-0.138,0.815
		C132.126,137.198,131.925,137.271,131.613,137.271z M121.783,109.357c0.004,0.206-0.146,0.407-0.445,0.613l-8.762,5.896
		c-0.232,0.158-0.447,0.196-0.639,0.121c-0.188-0.079-0.4-0.311-0.643-0.688l-0.42,0.281l2.319,3.669l2.315,3.671l0.421-0.281
		c-0.238-0.381-0.361-0.677-0.354-0.886c0.008-0.21,0.129-0.395,0.369-0.554l8.758-5.896c0.301-0.207,0.541-0.262,0.719-0.176
		c0.179,0.089,0.386,0.321,0.625,0.703l0.423-0.285l-2.322-3.673l-2.315-3.671l-0.42,0.281
		C121.652,108.866,121.773,109.158,121.783,109.357z M122,139.228c-0.1,0.148-0.149,0.422-0.149,0.814
		c0,0.392,0.053,0.662,0.149,0.813c0.103,0.148,0.275,0.228,0.521,0.228h9.092c0.313,0,0.514-0.076,0.6-0.228
		c0.093-0.147,0.138-0.424,0.138-0.813c0-0.395-0.045-0.666-0.138-0.814c-0.086-0.148-0.287-0.226-0.6-0.226h-9.092
		C122.271,139.003,122.098,139.077,122,139.228z M122.555,170.25l-7.546-5.24c-0.202-0.143-0.389-0.181-0.551-0.113
		c-0.164,0.063-0.354,0.267-0.565,0.588c-0.213,0.325-0.312,0.579-0.313,0.767c0.004,0.179,0.104,0.344,0.313,0.483l7.543,5.241
		c0.256,0.183,0.465,0.235,0.616,0.16c0.158-0.071,0.341-0.271,0.556-0.599c0.209-0.326,0.322-0.575,0.326-0.751
		C122.936,170.609,122.807,170.429,122.555,170.25z M113.266,118.086c-0.007,0.205,0.108,0.501,0.351,0.882
		c0.241,0.379,0.452,0.61,0.646,0.688c0.184,0.073,0.4,0.035,0.639-0.124l8.758-5.896c0.301-0.205,0.449-0.407,0.439-0.609
		c0-0.2-0.125-0.49-0.359-0.868c-0.244-0.385-0.451-0.614-0.631-0.699c-0.174-0.088-0.418-0.035-0.719,0.171l-8.758,5.896
		C113.393,117.685,113.273,117.879,113.266,118.086z M124.408,167.392l-7.543-5.241c-0.201-0.142-0.387-0.18-0.551-0.11
		c-0.123,0.053-0.277,0.248-0.436,0.454c-0.127,0.229-0.242,0.449-0.242,0.599c0,0.18,0.105,0.343,0.313,0.485l7.537,5.24
		c0.264,0.181,0.469,0.233,0.625,0.16c0.119-0.056,0.268-0.255,0.416-0.457c0.135-0.229,0.254-0.455,0.258-0.595
		C124.791,167.752,124.666,167.573,124.408,167.392z M126.471,164.227l-7.546-5.241c-0.202-0.142-0.387-0.18-0.549-0.109
		c-0.164,0.063-0.354,0.262-0.563,0.586c-0.215,0.328-0.312,0.581-0.315,0.764c0.006,0.185,0.104,0.348,0.313,0.487l7.541,5.241
		c0.258,0.18,0.467,0.233,0.616,0.162c0.16-0.071,0.343-0.273,0.558-0.603c0.209-0.325,0.317-0.576,0.324-0.752
		C126.852,164.586,126.725,164.406,126.471,164.227z M131.613,142.814h-9.092c-0.25,0-0.424,0.076-0.521,0.228
		c-0.1,0.148-0.149,0.424-0.149,0.813c0,0.395,0.053,0.663,0.149,0.815c0.103,0.146,0.275,0.226,0.521,0.226h9.092
		c0.313,0,0.514-0.076,0.6-0.226c0.093-0.149,0.138-0.423,0.138-0.815c0-0.392-0.045-0.665-0.138-0.813
		C132.126,142.891,131.925,142.814,131.613,142.814z M58.79,178.148c-0.084-0.161-0.296-0.33-0.638-0.504
		c-0.34-0.18-0.596-0.256-0.771-0.229c-0.173,0.022-0.316,0.147-0.431,0.378l-4.09,8.389c-0.141,0.287-0.163,0.508-0.075,0.658
		c0.09,0.149,0.304,0.314,0.644,0.493c0.342,0.173,0.598,0.255,0.766,0.239c0.171-0.017,0.329-0.164,0.47-0.451l4.091-8.392
		C58.866,178.504,58.874,178.31,58.79,178.148z" class="color c3"/>
  </g>
</svg>