<svg version="1.1" id="图层_1" x="0px" y="0px" width="197.217px" height="107.266px" viewBox="0 0 197.217 107.266" enable-background="new 0 0 197.217 107.266" xml:space="preserve" xmlns="http://www.w3.org/2000/svg" xmlns:xlink="http://www.w3.org/1999/xlink" xmlns:xml="http://www.w3.org/XML/1998/namespace">
  <path fill="#B39A90" d="M185.745,80.77L145.96,59.309c-6.834-3.686-13.18-8.02-19.281-12.789l-6.834-5.637
	c-5.371-4.336-12.449-6.936-19.771-7.371v-7.369c5.126,0,9.274-3.901,9.274-8.455V9.885c0-3.252-1.953-6.504-5.127-8.238
	c-3.173-1.951-7.322-2.168-10.983-0.651c-3.416,1.303-5.613,4.338-5.613,7.807v1.732c0,1.303,0.977,2.168,2.441,2.168
	s2.439-0.865,2.439-2.168V8.801c0-1.734,0.978-3.252,2.688-3.904c2.196-0.866,4.392-0.649,6.345,0.437
	c1.708,1.084,2.928,2.817,2.928,4.77v7.806c0,2.164-1.95,4.114-4.637,4.114c-2.685,0-4.636,1.953-4.636,4.121v7.369
	c-6.591,0.65-12.938,3.035-17.818,7.156l-6.836,5.633c-5.856,4.768-12.448,9.105-19.281,12.791l-39.788,21.46
	C4.393,84.455,0,91.174,0,98.545v4.119c0.244,1.951,2.686,3.033,4.393,2.168l12.448-6.722l7.813-4.553l67.122-36.635
	c4.393-2.385,9.763-2.385,14.155,0l66.877,36.635l7.813,4.553l12.448,6.722c1.707,0.865,4.148-0.217,4.148-1.951v-4.117
	C197.217,91.393,192.823,84.672,185.745,80.77z" class="color c1"/>
  <g>
    <polygon fill="#B39A90" points="163.499,97.064 33.718,97.064 15.266,107.266 181.951,107.266 	" class="color c1"/>
  </g>
</svg>