<svg version="1.1" id="图层_1" x="0px" y="0px" width="151.041px" height="98.893px" viewBox="0 0 151.041 98.893" enable-background="new 0 0 151.041 98.893" xml:space="preserve" xmlns="http://www.w3.org/2000/svg" xmlns:xlink="http://www.w3.org/1999/xlink" xmlns:xml="http://www.w3.org/XML/1998/namespace">
  <path fill="#232323" d="M148.48,40.901l2.561-8.383l-1.236-3.091l-21.664-15.904l-7.478-6.094L105.55,4.132L92.39,0.568
	l-16.119-0.52V0L75.54,0.025l-0.769-0.017v0.039l-16.042,0.52l-0.072,0.001L45.523,4.126L30.381,7.43l-7.455,6.075L1.238,29.428
	L0,32.519l3.068,10.039l1.422,4.268l65.878,51.936l0.167,0.132h9.972l66.045-52.067l1.425-4.281l0.464-1.515
	C148.461,40.988,148.473,40.945,148.48,40.901z M130.003,18.772l-1.227,5.727l-0.408-7.979l-1.842,6.547v-7.773l-6.342,1.023
	l-1.455,2.426l-1.508-1.109l0.227-1.601l10.028-1.378l17.491,23.397l-0.109-0.078c-3.881-4.505-9.946-12.453-9.946-12.453
	l-1.023,2.046l4.91,5.32l-2.855-1.475l-5.51-4.055l2.229-4.086L130.003,18.772z M109.512,6.252l2.148,0.47l3.76,1.626l-2.733,2.049
	l-3.161-4.089L109.512,6.252z M115.742,8.484l3.624,1.568l-4.633,0.957L115.742,8.484z M122.312,12.463l-5.943-0.43l3.427-1.796
	l4.663,2.016L122.312,12.463z M149.42,31.769l-5.506-4.406l5.067,7.697l-0.078,0.263l-8.673-6.935l4.284,7.01l-13.802-18.465
	l18.083,13.277L149.42,31.769z M13.739,44.506l-0.518-6.232l1.136-0.867l0.959,6.334l0.377-7.354l0.132-0.102l1.126,5.82
	l0.563-7.108l1.91-1.46l-0.908,2.418l9.82-6.75l1.576-3.68l9.605-7.336l1.797,31.874L13.739,44.506z M4.61,43.305l-0.372-1.12
	L3.77,40.652c0.085-0.015,0.167-0.042,0.241-0.094l6.093-4.371l17.835-10.701L4.61,43.305z M13.714,32.091l1.732-1.455l7.16-13.296
	L9.953,34.786L6.6,37.192l17.096-22.537l12.03,1.651L13.714,32.091z M30.927,8.567l8.925-1.949L27.205,12.3l-0.768-0.075
	L30.927,8.567z M36.927,10.383l4.521-4.112l0.227-0.048l-1.656,7.333l-12.25-1.2L36.927,10.383z M2.246,30.21l18.311-13.445
	L3.387,39.397l-2.086-6.824L2.246,30.21z M28.252,53.384l1.226,0.262l0.976,6.05l0.971-5.632l1.813,0.39l-1.353,4.629l3.563-4.157
	l1.206,0.26l-6.273,8.183L25.2,52.729l1.493,0.319l3.146,7.67L28.252,53.384z M40.309,56.149l0.129,0.024l-2.212,3.318l3.075-2.197
	l-0.825,1.787l2.998-0.898l-12.821,6.548l7.573-8.989l-2.455,4.567L40.309,56.149z M50.5,71.562l10.909,18.001l-29.12-23.468
	L50.5,71.562z M28.744,63.367L9.651,48.638l13.638,3.546L28.744,63.367z M70.04,96.938l-15.448-24.56l8.799,17.489L44.053,56.424
	h3.174l0.084-0.064l23.687,41.306h-0.035L70.04,96.938z M61.303,60.375l-5.139,4.437c-0.222,0.192-0.275,0.51-0.133,0.765
	l17.968,31.965H71.32L49.162,56.894l2.661,0.8c0.003,0,0.007,0.001,0.011,0.002L61.303,60.375z M53.428,56.546l19.639,0.275
	L71.774,76.06l-11.525-8.604l7.363-7.091L53.428,56.546z M77.912,97.335l-2.456,0.206l19.157-33.356l-7.909-3.547l15.346-4.011
	L77.912,97.335z M89.161,70.741L74.832,95.85l-0.807-38.201l4.084,22.063L89.161,70.741z M86.652,84.692l5.578-3.859l5.319-9.41
	l-3.734,1.346l9.353-15.568l4.674-2.016l-3.545,0.136l0.601-2.91l0.39-0.028l-0.134-0.146l1.774-0.709l0.914,3.657l21.928-7.884
	l14.042-2.827l0.144,2.455l-36.113,8.256L89.427,87.029L89.5,86.89l-2.996,1.853L79.1,97.665h-0.24L86.652,84.692z M96.786,19.01
	l4.17,3.445l2.257-4.345l0.863-0.121l3.612,5.093l-1.468,26.241L80.71,21.264L96.786,19.01z M106.069,67.049l2.454-1.841
	l-0.817,3.886l2.455-1.637l0.208-3.533l2.999-2.455l5.384,4.967L103.82,78.913l3.682-7.772l-2.998,2.602l-6.547,6.138l4.226-9.764
	l1.842-1.637l-0.204,4.094L106.069,67.049z M128.234,51.923l-8.592,7.638l-8.729-3.684l7.5-1.637l-2.322,2.375L128.234,51.923z
	 M120.188,61.606l9.746-10.24l-9.472,14.057l-11.528-9.42L120.188,61.606z M132.39,50.819l8.728-1.907l-5.181,3.544L132.39,50.819z
	 M144.186,44.396l1.689-0.34c0.168-0.032,0.311-0.137,0.396-0.276l-0.716,2.149L144.186,44.396z M109.863,50.062l1.799-31.874
	l32.643,24.934L109.863,50.062z M146.359,43.521c0.021-0.211-0.061-0.42-0.232-0.553l-34.64-26.455
	c-0.181-0.14-0.423-0.167-0.629-0.07c-0.204,0.094-0.343,0.295-0.356,0.522l-0.479,8.502l-2.186,16.937l1.436-25.642
	c0.011-0.184-0.062-0.364-0.196-0.487s-0.319-0.181-0.5-0.155l-29.184,4.092c-0.227,0.03-0.417,0.184-0.494,0.397
	c-0.076,0.214-0.029,0.453,0.123,0.622l27.275,30.002c0.119,0.132,0.285,0.202,0.455,0.202c0.048,0,0.096-0.014,0.147-0.026
	l0.027,0.109l-2.2,0.254l-0.227-0.246c-0.02-0.027-0.044-0.054-0.071-0.08L75.625,20.001L45.827,52.45l1.364,0.024
	c3.67,0.062,28.055-0.072,28.291-0.074c0.758,0.008,13.873,0.149,22.143,0.149c2.926,0,5.244-0.018,6.195-0.066
	c0.016,0.007,0.032,0.007,0.049,0.01l-0.475,2.829H75.793h-0.408l-26.862-0.494l-2.115-2.29v2.25h-4.812l-0.09-0.021l0.608-3.251
	l-2.104,2.909L6.355,46.731l-0.816-0.644L4.83,43.962l37.801,7.617l-2.019-35.77l-0.145,0.109l-2.445-0.409l-0.149,0.106
	c-0.093-0.167-0.256-0.29-0.453-0.316l-12.173-1.671l1.277-0.574l14.132,1.387l1.9-8.413l3.261-0.711L58.838,1.79l16.567-0.533
	l0.094-0.005L92.203,1.79l13.053,3.536l3.374,0.736l1.893,8.379l14.134-1.387l1.277,0.574l-12.176,1.671
	c-0.245,0.036-0.449,0.215-0.511,0.458c-0.061,0.241,0.029,0.496,0.231,0.645l33.639,24.757l-0.309,1.013L146.359,43.521z
	 M65.749,32.57l3.088-2.138l6.548-6.342l-3.654,1.968l3.895-4.242l6.109,6.67l-3.689-1.124l7.773,8.389h2.57l3.518,3.838
	l-0.771,2.503l3.478,3.887l3.463,0.347l4.545,4.964c-5.959,0.106-26.893-0.115-27.136-0.115c-0.224,0-20.6,0.111-26.897,0.084
	L65.749,32.57z M94.051,41.93l1.752,1.915l-2.621-0.524L94.051,41.93z M43.896,52.317L72.938,20.37l-31.074-4.355L43.896,52.317z
	 M44.959,49.323l-1.197-21.387l1.142,0.858l-0.408-10.228l-1.194-1.112l27.167,3.809L44.959,49.323z M32.562,26.274l3.274,5.998
	l-1.091-7.362l1.908-1.092l0.548,19.093l2.998,5.454l-1.635-28.367l-8.183,6.548l4.092,7.091L32.562,26.274z M33.654,44.82
	l-3.819-5.183l-0.819,4.911l-1.908-6.002l-1.09,7.092l12.271,3l-4.635-7.637V44.82z M45.795,46.604l6.679-6.15L48.25,41.08
	l2.25-10.433l-3.273,7.161l-1.841-6.138L45.795,46.604z M60.11,22.728l-4.496,2.193l1.841,2.659l6.475-3.489l-6.883,6.762
	l-3.209,7.146l14.999-16.092L51.656,19.18l2.727,4.092L60.11,22.728z M6.653,33.092l-2.456-2.048l2.999-0.135l7.847-8.989
	L2.834,30.636l0.816,7.093L6.653,33.092z M24.039,15.498l-0.205,2.252l8.937-1.013L24.039,15.498z M55.336,50.174l5.319-3.581v3.581
	h1.841l3.48-7.059l-2.046,7.059h3.066l4.706-9.923l-2.659,9.408l5.728-10.635l4.705-3.477l-7.978,1.225l2.659-7.568l-7.772,4.091
	L50.838,50.174H55.336z M83.021,50.174h7.164l-8.799-6.445l1.432,2.25l-2.047,1.432L83.021,50.174z M74.977,47.82l0.613-7.569
	l-3.682,9.923h6.139l-0.82-3.99L74.977,47.82z M88.272,27.362l12.07,13.502l6.137-7.159l-0.615-2.864l-5.727,6.137l6.75-9.616
	l-7.774,6.547l6.138-8.999l-3.272-0.614l-6.75,6.748l4.294-6.34L88.272,27.362z M113.229,29l1.433-0.818l2.659,6.954l3.478,1.636
	l-4.91-10.226l6.135,5.932l-3.884-8.182l-5.73-4.298l-0.613,12.07l1.226,1.024L113.229,29z M110.776,48.648l4.367-3.409l1.972-3.966
	l-0.201,3.149l6-4.775l-11.322-5.329L110.776,48.648z M127.143,39.104l9.613,2.784l-10.703,0.081l8.859,1.146l-13.361,3.626
	l21.545-3.626l-10.842-8.182l4.707,5.399L127.143,39.104z M125.707,29.819v7.159l4.093-3.886L125.707,29.819z M92.128,2.431
	l-0.05-0.012H58.887L44.426,6.383l-1.859,8.233l30.381,4.163l0.027,0.003l5.684-0.01l30.421-4.351l-1.563-8.04L92.128,2.431z
	 M86.2,16.869l7.054-6.269l-5.729,0.205l-8.283,7.06l-0.612,0.087l-4.205,0.007l12.08-10.633l-12.479,7.979l11.045-9.82l-13.5,9.001
	l9.615-10.022l-13.093,9.41l7.771-8.389l-10.226,7.364l6.545-6.956l-9.613,6.139l5.93-6.139l-8.589,5.318L64.41,6.51l-6.955,3.887
	l3.272-4.296l-6.341,3.887l4.91-4.705l27.275-2.046h5.402l14.837,3.809l1.3,6.689L86.2,16.869z M93.663,4.47l10.024,7.086
	l-5.1,2.926l8.371-0.985l-1.147-5.91L93.663,4.47z M46.407,20.625l-1.225-1.226l1.225,9.817V20.625z" class="color c1"/>
</svg>