<svg version="1.1" id="图层_1" x="0px" y="0px" width="82.674px" height="145.908px" viewBox="0 0 82.674 145.908" enable-background="new 0 0 82.674 145.908" xml:space="preserve" xmlns="http://www.w3.org/2000/svg" xmlns:xlink="http://www.w3.org/1999/xlink" xmlns:xml="http://www.w3.org/XML/1998/namespace">
  <path fill="#070707" d="M79.505,37.721c-2.453-1.491-5.592-1.204-7.734,0.707c3.451,1.727,2.814,6.405,3.918,8.199
	c1.107,1.797,1.555,8.425,1.898,12.256c0.23,2.543,0.81,8.115,1.174,11.58c-0.348,1.176-0.744,2.551-0.744,2.715
	c0,0.295-2.396,7.89-2.396,7.89l-1.346,4.901c0,0-2.314,3.454-3.453,5.491c-1.14,2.036-2.693,6.733-3.953,6.905
	c-1.213-0.033-2.399-0.365-3.453-0.967c-1.433-0.46-2.93-0.687-4.436-0.673c-1.158,0.294-5.179-1.347-7.91-2.693
	c-2.727-1.346-7.405,1.053-7.405,1.053s-4.589-2.347-7.368-1.018c-2.779,1.328-6.752,2.986-7.906,2.692
	c-1.501-0.014-2.992,0.213-4.421,0.675c-1.055,0.597-2.238,0.929-3.454,0.966c-1.239-0.207-2.795-4.92-3.934-6.905
	c-1.143-1.986-3.453-5.491-3.453-5.491l-1.344-4.92c0,0-1.534-4.592-2.129-6.814l0.564,1.133c-0.076-2.686,0.279-5.366,1.061-7.939
	c1.486-2.985,1.002-8.337,0.241-11.428c-0.759-3.09,1.208-14.534,1.626-15.364c0.412-0.828,3.104-5.834,7.285-5.265
	c0.162-2.815-0.434-5.625-1.729-8.132c2.312,1.875,3.72,4.642,3.868,7.614l9.978-0.104c0,0,12.672,1.157,15.536,2.469
	c0,0-0.619-5.404-0.878-9.824c-0.262-4.417,1.381-9.011-5.562-13.931c0,0,11.549,3.333,9.219,12.447
	c-2.328,9.116-2.779,11.307-2.779,11.307c2.541,0.14,5.086-0.158,7.526-0.879c2.993,0.644,6.054,0.938,9.114,0.879
	c0,0,14.33-0.985,15.85-10.462c1.697-8.985-4.004-17.71-12.916-19.764C58.58,4.748,43.892,6.905,34.864,0
	c0,0-0.208,3.453,4.885,6.216c0,0-8.633-3.816-12.934-2.315c-4.297,1.503-4.244,2.296-4.244,2.296
	c2.244-1.065,4.837-1.129,7.13-0.172c-4.136,0.682-7.985,2.548-11.084,5.369c0,0,15.829-0.259,19.493,17.488
	c-3.915-10.974-15.319-17.384-26.727-15.02l-4.451,1.727c0,0-1.729,3.452,0.395,4.247c1.096,0.446,2.27,0.665,3.455,0.637
	c0,0-8.874,3.661-10.358,7.753c-0.896,2.415-0.347,5.128,1.415,7.008l-1.105,5.818c0,0,1.604,8.407,2.676,9.736
	c1.07,1.329,4.228,7.389,3.885,10.755c0.023,3.226,0.471,6.437,1.328,9.546l0.097,0.478l-0.411-0.823l0.074,0.346
	c0.24,2.745,0.465,7.146-0.242,8.994c-1.054,2.797,0.207,8.478,0,8.77c-0.209,0.292,0.293,6.265,0.293,6.265l0.865-1.448
	l-0.486,4.746c0,0,0.691,7.596,2.228,10.359l0.379-2.4c0,0,1.643,4.228,2.313,6.646c0.881,2.092,2.117,4.015,3.66,5.679l0.104-1.537
	c0.369,1.486,0.951,2.91,1.726,4.23c1.367,2.577,3.044,4.976,4.989,7.146l0.296-1.828l3.45,5.973l0.674-1.346l2.207,4.056
	l3.953,4.815v-2.037l1.351,2.609l2.796,2.415c1.704,0.665,3.298,1.577,4.728,2.712c1.43-1.133,3.021-2.047,4.714-2.712l2.799-2.415
	l1.346-2.609v2.037l3.953-4.815l2.26-4.056l0.674,1.346l3.454-5.973l0.294,1.828c1.955-2.159,3.639-4.555,5.005-7.128
	c0.774-1.319,1.357-2.744,1.726-4.229l0.086,1.536c1.543-1.667,2.781-3.588,3.66-5.68c0.641-2.417,2.365-6.646,2.365-6.646
	l0.379,2.398c1.557-2.779,2.229-10.357,2.229-10.357l-0.482-4.749l0.861,1.452c0,0,0.484-5.974,0.292-6.267
	c-0.187-0.294,1.058-5.974,0-8.77c-0.605-1.61-0.513-5.13-0.326-7.83c0.077,0.727,0.124,1.167,0.124,1.167l0.395-7.008
	c0.527-2.059,0.945-4.144,1.243-6.25c-0.173-0.241,0-8.304,0-8.304l1.863-4.436C82.576,47.439,83.526,40.378,79.505,37.721z
	 M65.849,20.579c0.225,6.006-4.039,11.411-5.539,12.084c-0.383,0.171-0.969,0.501-1.626,0.88c1.9-3.125,4.868-8.097,1.436-15.278
	l-4.921-7.181C55.198,11.083,65.624,14.57,65.849,20.579z M55.474,107.842c-2.692,1.157-6.542,3.936-7.888,4.142
	c-0.778,0.105-2.521,0.277-3.851,0.415c-1.345-0.138-3.074-0.31-3.866-0.415c-1.347-0.207-5.178-2.985-7.888-4.142
	c-2.531-0.696-5.168-0.883-7.771-0.553c1.736-0.125,3.402-0.723,4.816-1.727c1.243-1.347,4.039-0.189,4.524-1.054
	c0.481-0.862,3.45,0,3.45,0c2.703,0.133,5.275-1.183,6.749-3.451c1.471,2.269,4.035,3.584,6.734,3.451c0,0,2.989-0.862,3.454,0
	c0.466,0.865,3.278-0.292,4.521,1.054c1.423,1.006,3.096,1.604,4.835,1.727C60.677,106.954,58.019,107.141,55.474,107.842z" class="color c1"/>
</svg>