<svg version="1.1" id="图层_1" x="0px" y="0px" width="84.818px" height="52.714px" viewBox="0 0 84.818 52.714" enable-background="new 0 0 84.818 52.714" xml:space="preserve" xmlns="http://www.w3.org/2000/svg" xmlns:xlink="http://www.w3.org/1999/xlink" xmlns:xml="http://www.w3.org/XML/1998/namespace">
  <path fill="#8E6C8C" d="M84.753,52.613c-0.582-1.566-14.064-10.123-37.639-25.006c-0.426-0.269-0.844-0.536-1.265-0.803
	C69.738,13.087,87.114,5.45,84.571,0.949l0.008-0.005c-0.008-0.01-0.018-0.018-0.023-0.028s-0.008-0.022-0.016-0.033l-0.008,0.005
	c-2.913-4.404-18.185,8.217-42.123,23.711C18.47,9.104,3.199-3.517,0.286,0.888L0.278,0.883c-0.008,0.011-0.01,0.022-0.016,0.033
	S0.247,0.934,0.239,0.944l0.008,0.005C-2.295,5.45,15.082,13.087,38.969,26.803c-0.422,0.268-0.839,0.535-1.265,0.804
	C14.13,42.49,0.647,51.046,0.065,52.613l-0.064,0.039c0.012,0.008,0.035,0.006,0.051,0.012c-0.002,0.016-0.014,0.035-0.014,0.051
	l0.066-0.041c1.66,0.193,15.408-7.926,39.381-22.158c0.984-0.584,1.957-1.155,2.924-1.721c0.967,0.565,1.939,1.137,2.924,1.721
	c23.973,14.232,37.721,22.354,39.381,22.158l0.066,0.041c0-0.016-0.012-0.035-0.014-0.051c0.016-0.006,0.039-0.006,0.051-0.012
	L84.753,52.613z M74.235,5.2c3.537-2.165,6.809-3.258,7.309-2.44c0.502,0.817-1.959,3.235-5.496,5.4
	c-3.535,2.165-6.807,3.258-7.307,2.44C68.239,9.783,70.7,7.366,74.235,5.2z M16.077,10.601c-0.5,0.817-3.771-0.275-7.307-2.44
	c-3.537-2.165-5.998-4.583-5.496-5.4c0.5-0.816,3.771,0.275,7.309,2.441C14.118,7.366,16.579,9.784,16.077,10.601z" class="color c1"/>
</svg>