<svg version="1.1" id="图层_1" x="0px" y="0px" width="134.279px" height="169.031px" viewBox="0 0 134.279 169.031" enable-background="new 0 0 134.279 169.031" xml:space="preserve" xmlns="http://www.w3.org/2000/svg" xmlns:xlink="http://www.w3.org/1999/xlink" xmlns:xml="http://www.w3.org/XML/1998/namespace">
  <g>
    <path fill="#EDE4DD" d="M87.923,10.037h0.666c-25.309-22.583-41.184,0-41.184,0h0.668c0,0.001,0,0.003-0.001,0.005h-0.667
		c25.309,22.582,41.184,0,41.184,0h-0.663C87.926,10.04,87.924,10.039,87.923,10.037z" class="color c1"/>
    <g>
      <path fill="#FFFFFF" d="M47.648,19.301c0,0,4.79,6.499-0.35,14.947c-5.138,8.447-22.474,6.043-28.222,6.953
			C13.327,42.111,8.245,42.869,0,54.047c0,0,8.479-10.052,20.558-9.531c12.078,0.52,29.269,3.206,31.824-9.358
			C54.937,22.594,48.692,20.016,47.648,19.301z" class="color c2"/>
      <path fill="#FFFFFF" d="M88.713,19.32c0,0-6.997,11.711,3.858,19.051c10.854,7.338,24.988-1.856,36.521,8.604
			c11.533,10.459,1.583-0.507-8.028-0.928C111.453,45.625,73.546,45.988,88.713,19.32z" class="color c2"/>
    </g>
    <path fill="#FFFFFF" d="M22.435,81.404c0,0-7.252,19.696,5.149,38.864c12.401,19.167,10.711,26.777-2.537,48.763
		c0,0,17.616-13.389,18.251-33.683C43.932,115.054,18.273,114.558,22.435,81.404z" class="color c2"/>
    <path fill="#FFFFFF" d="M112.979,79.802c0,0,8.452,12.604-1.725,33.75s-7.208,31.142,1.021,44.239c0,0-14.17-7.615-11.137-29.395
		C104.172,106.617,119.28,101.899,112.979,79.802z" class="color c2"/>
  </g>
</svg>