<svg version="1.1" id="图层_1" x="0px" y="0px" width="83.391px" height="65.838px" viewBox="0 0 83.391 65.838" enable-background="new 0 0 83.391 65.838" xml:space="preserve" xmlns="http://www.w3.org/2000/svg" xmlns:xlink="http://www.w3.org/1999/xlink" xmlns:xml="http://www.w3.org/XML/1998/namespace">
  <path fill="#B28247" d="M82.214,18.361L49.376,60.258l11.646-24.02l6.471-13.347L82.214,18.361z M68.812,19.255L83.39,14.77
	l-5.652-5.024l-4.441-3.949L68.812,19.255z M55.563,8.597l10.16,10.158l4.514-13.544L55.563,8.597z M31.235,6.214l10.459,1.488
	l10.59-1.511L65.97,3.029L53.856,0h-25.85L17.144,2.963L31.235,6.214z M63.073,20.474L52.771,10.171l-8.01,12.592L63.073,20.474z
	 M15.897,22.892l-14.721-4.53l13.635,17.396l19.203,24.5l-11.646-24.02L15.897,22.892z M41.696,21.825l7.703-12.106l-7.484,1.073
	c-0.072,0.009-0.146,0.016-0.219,0.016c-0.074,0-0.146-0.007-0.221-0.016l-7.482-1.07L41.696,21.825z M43.239,26.064v39.773
	l20.527-42.34L43.239,26.064z M19.624,23.498l20.527,42.34V26.064L19.624,23.498z M-0.001,14.771l14.582,4.486l-4.488-13.46
	L-0.001,14.771z M17.669,18.755L27.833,8.593L13.153,5.21L17.669,18.755z M20.317,20.474l18.314,2.289l-8.014-12.592L20.317,20.474z
	" class="color c1"/>
</svg>