<svg version="1.1" id="图层_1" x="0px" y="0px" width="7.008px" height="190.717px" viewBox="0 0 7.008 190.717" enable-background="new 0 0 7.008 190.717" xml:space="preserve" xmlns="http://www.w3.org/2000/svg" xmlns:xlink="http://www.w3.org/1999/xlink" xmlns:xml="http://www.w3.org/XML/1998/namespace">
  <path fill="#231F20" d="M4.837,0.288C4.4,0.098,3.918-0.005,3.412,0C2.905,0.007,2.428,0.124,1.997,0.326
	C0.803,0.883-0.019,2.101,0,3.504c0.33,23.951,5.258,187.222,5.971,187.212c0.711-0.01,1.262-163.098,0.945-187.304
	C6.896,2.008,6.043,0.813,4.837,0.288z M4.316,63.438C4.1,63.441,2.448,7.086,2.4,3.725C2.398,3.527,2.615,2.94,3.452,2.929
	c0.803-0.011,1.069,0.569,1.071,0.767C4.566,7.092,4.536,63.436,4.316,63.438z" class="color c1"/>
</svg>