<svg version="1.1" id="图层_1" x="0px" y="0px" width="95.754px" height="117.727px" viewBox="0 0 95.754 117.727" enable-background="new 0 0 95.754 117.727" xml:space="preserve" xmlns="http://www.w3.org/2000/svg" xmlns:xlink="http://www.w3.org/1999/xlink" xmlns:xml="http://www.w3.org/XML/1998/namespace">
  <path fill="#FFFFFF" d="M87.125,35.552h7.658l0.299-19.747h-8.256L87.125,35.552z M88.072,114.774
	c0.02,1.593,1.326,2.865,2.918,2.847c1.564-0.021,2.826-1.283,2.846-2.847l0.9-75.383H87.17L88.072,114.774z M95.459,5.582
	L94.916,3.86c-0.326-1.033-1.287-1.736-2.371-1.736h-3.182c-1.084,0-2.045,0.703-2.371,1.736l-0.545,1.723
	c-0.303,0.961-0.373,1.979-0.201,2.975l0.58,3.408h8.256l0.58-3.408C95.834,7.563,95.764,6.543,95.459,5.582z" class="color c1"/>
  <path fill="#FFFFFF" d="M12.244,2.123C5.25,2.137-3.324,3.43,1.318,15.146c1.701,4.091,3.736,8.034,6.084,11.79h9.686
	c2.348-3.756,4.383-7.699,6.082-11.79C27.814,3.43,19.24,2.137,12.244,2.123z M7.402,112.781c0,2.674,2.168,4.842,4.842,4.842
	c2.676,0,4.844-2.168,4.844-4.842V32.6H7.402V112.781z" class="color c1"/>
  <path fill="#FFFFFF" d="M47.162,114.016c0,2.049,2.168,3.711,4.842,3.711s4.844-1.662,4.844-3.711V52.57h-9.686V114.016z M52.006,0
	C40.461,0,36.053,4.545,36.053,11.377c0,5.878,7.496,17.683,7.496,17.683h16.91c0,0,7.496-11.805,7.496-17.683
	C67.955,4.545,63.549,0,52.006,0z M46.541,48.012h10.93c1.57-4.695,2.426-9.599,2.537-14.547H44
	C44.111,38.413,44.967,43.316,46.541,48.012z" class="color c1"/>
</svg>