<svg version="1.1" id="图层_1" x="0px" y="0px" width="43.16px" height="15.129px" viewBox="0 0 43.16 15.129" enable-background="new 0 0 43.16 15.129" xml:space="preserve" xmlns="http://www.w3.org/2000/svg" xmlns:xlink="http://www.w3.org/1999/xlink" xmlns:xml="http://www.w3.org/XML/1998/namespace">
  <path fill="#020202" d="M31.219,15.12c-7.133-0.272-9.563-5.681-9.646-5.881c-0.091,0.2-2.521,5.606-9.646,5.881
	C4.666,15.396-2.413,8.563,0.793,3.31c3.105-5.096,6.02-1.598,4.275-0.967c-0.511,0.182-1.06,0.51-1.452,1.076
	c-1.005,1.617-0.11,6.521,6.513,0.238c7.527-7.125,11.454-1.645,11.454-1.645s3.929-5.48,11.455,1.645
	c6.623,6.274,7.519,1.369,6.514-0.238c-0.394-0.574-0.94-0.895-1.452-1.076c-1.744-0.631,1.17-4.129,4.274,0.967
	C45.561,8.563,38.491,15.396,31.219,15.12z" class="color c1"/>
</svg>