<svg version="1.1" id="图层_1" x="0px" y="0px" width="220px" height="109.127px" viewBox="0 0 220 109.127" enable-background="new 0 0 220 109.127" xml:space="preserve" xmlns:xml="http://www.w3.org/XML/1998/namespace" xmlns="http://www.w3.org/2000/svg" xmlns:xlink="http://www.w3.org/1999/xlink">
  <path fill="#110E0A" d="M105.231,43.045c-3.162-1.674-7.078-0.466-8.75,2.693l-2.836,5.357c-7.904-5.562-12.563-12.08-17.428-18.97
	C70.752,24.387,65.098,16.39,54.78,9.024C46.506,3.12,37.752,0,29.458,0C21.232,0,13.667,3.045,8.153,8.574
	C2.873,13.878-0.026,20.894,0,28.336c0.073,21.809,21.316,35.015,58.63,36.947c-3.115,1.637-6,3.567-8.525,5.827
	c-7.724,6.902-11.953,16.186-12.221,26.845c-0.092,3.569,2.73,6.542,6.305,6.637c0.057,0,0.11,0,0.167,0
	c3.498,0,6.378-2.791,6.465-6.307c0.181-7.101,2.843-12.993,7.907-17.522c5.777-5.164,14.551-8.193,23.617-8.33l-0.429,0.813
	c-1.672,3.155-0.466,7.073,2.693,8.747c0.964,0.508,2,0.757,3.021,0.757c2.323,0,4.567-1.251,5.727-3.446l14.563-27.51
	C109.593,48.636,108.39,44.715,105.231,43.045z M12.945,28.292c-0.011-3.978,1.542-7.735,4.378-10.58
	c3.067-3.076,7.377-4.767,12.135-4.767c5.582,0,11.737,2.283,17.8,6.613c8.536,6.09,13.321,12.866,18.388,20.031
	c3.029,4.29,6.116,8.659,10.012,12.888c-2.455,0.088-4.875,0.136-7.255,0.136C55.412,52.613,13.021,50.858,12.945,28.292z" class="color c1"/>
  <path fill="#48D0FF" d="M201.789,10.754c-3.782-1.384-7.54-2.079-11.176-2.079c-15.574,0-26.146,12.216-36.36,24.033
	c-8.935,10.32-17.419,20.103-28.647,22.363l1.735-3.278c1.673-3.157,0.47-7.075-2.692-8.747c-3.157-1.674-7.08-0.466-8.748,2.693
	l-14.563,27.509c-1.674,3.157-0.469,7.075,2.692,8.747c0.964,0.509,1.999,0.757,3.021,0.757c2.323,0,4.567-1.252,5.729-3.446
	l2.473-4.676c0.49,0.512,1.055,0.969,1.721,1.309c0.543,0.275,13.348,7.016,14.988,27.24c0.275,3.387,3.107,5.949,6.443,5.949
	c0.175,0,0.352-0.006,0.529-0.023c3.563-0.289,6.219-3.41,5.926-6.973c-1.324-16.359-8.438-26.365-14.271-31.957
	c8.48,1.528,21.13,3.279,34.669,3.279c0.001,0,0,0,0.001,0c12.938,0,23.578-1.661,31.621-4.934
	c14.514-5.916,23.371-18.186,23.119-32.019C219.775,24.64,212.8,14.773,201.789,10.754z M191.992,56.524
	c-6.485,2.641-15.479,3.981-26.737,3.981c-6.438,0-13.041-0.456-19.265-1.153c6.83-5.205,12.628-11.902,18.052-18.178
	c9.076-10.494,16.915-19.554,26.571-19.554c2.146,0,4.349,0.418,6.732,1.289c5.961,2.176,9.588,7.344,9.704,13.825
	C207.173,43.288,203.277,51.925,191.992,56.524z" class="color c2"/>
</svg>