<svg version="1.1" id="图层_1" x="0px" y="0px" width="163.158px" height="200px" viewBox="0 0 163.158 200" enable-background="new 0 0 163.158 200" xml:space="preserve" xmlns="http://www.w3.org/2000/svg" xmlns:xlink="http://www.w3.org/1999/xlink" xmlns:xml="http://www.w3.org/XML/1998/namespace">
  <path fill="#FFFFFF" d="M81.577,0C64.834-0.039,54.219,3.662,48.354,10.771L4.36,18.506C1.943,18.926,0,21.23,0,23.682v171.055
	C0,197.49,2.505,200,5.264,200h152.631c2.754,0,5.264-2.51,5.264-5.264V23.682c0-2.451-1.943-4.756-4.36-5.176l-44.076-7.734
	C108.877,3.691,98.301,0.039,81.577,0z M81.577,10.527c16.274,0.039,22.578,3.408,25.576,7.734
	c3.442,7.646,3.286,13.623,3.374,21.133c-8.496,11.357-17.891,21.338-28.95,28.369c-10.166-8.311-23.574-17.686-28.945-28.369
	c0.234-6.787-0.264-15.752,3.291-21.133C58.931,13.916,65.298,10.488,81.577,10.527L81.577,10.527z M43.091,22.373
	c-0.742,3.564-0.947,7.275-0.986,11.016c-5.327,19.082-5.264,37.871-5.264,56.084c0.005,3.516,4.297,6.26,7.485,4.775l31.992-14.805
	v110.029H10.527V28.125L43.091,22.373z M119.985,22.373l32.646,5.752v161.348h-65.79V79.443l31.992,14.805
	c3.188,1.484,7.48-1.26,7.485-4.775c0-18.213,0.063-37.002-5.264-56.084C120.996,29.668,120.732,25.918,119.985,22.373z
	 M105.264,110.527v10.527h36.84v-10.527H105.264z" class="color c1"/>
</svg>