<svg version="1.1" id="图层_1" x="0px" y="0px" width="12.319px" height="221.712px" viewBox="0 0 12.319 221.712" enable-background="new 0 0 12.319 221.712" xml:space="preserve" xmlns="http://www.w3.org/2000/svg" xmlns:xlink="http://www.w3.org/1999/xlink" xmlns:xml="http://www.w3.org/XML/1998/namespace">
  <path fill="#5C0F2D" d="M8.818,66.181c-0.309-0.001-7.323,3.438-7.323,3.438L0.463,24.858C0.388,21.24,9.075,9.298,3.742,5.85
	C3.046,5.402,1.704,7.064,0.125,9.296L0.001,3.778c-0.047-2.036,1.573-3.73,3.613-3.777c2.042-0.042,3.729,1.578,3.777,3.613
	L8.818,66.181z M4.927,218.099c0.048,2.035,1.733,3.658,3.777,3.612c2.041-0.048,3.66-1.739,3.614-3.775l-1.065-41.981
	c-0.18-0.021-7.418-1.15-7.418-1.15L4.927,218.099z" class="color c1"/>
</svg>