<svg version="1.1" id="图层_1" x="0px" y="0px" width="11.136px" height="208.485px" viewBox="0 0 11.136 208.485" enable-background="new 0 0 11.136 208.485" xml:space="preserve" xmlns="http://www.w3.org/2000/svg" xmlns:xlink="http://www.w3.org/1999/xlink" xmlns:xml="http://www.w3.org/XML/1998/namespace">
  <path fill="#D4B37F" d="M11.136,166.494L10.161,12.446C10.077,6.795,8.49,2.042,6.381,0.515C5.912,0.175,5.413-0.007,4.9,0
	C2.095,0.042-0.098,5.681,0.003,12.596l1.064,72.898l2.671,80.207l4.203,42.784L11.136,166.494z M5.461,27.85
	c-0.401,0.004-0.704-0.496-0.932-1.358c-0.558-2.109-0.675-6.382-0.734-10.644C3.712,9.883,3.228,3.948,5.113,3.92
	C5.44,3.916,5.701,4.095,5.91,4.426c0.993,1.573,0.801,6.577,0.868,11.548C6.86,21.919,6.848,27.83,5.461,27.85z" class="color c1"/>
</svg>