<svg version="1.1" id="图层_1" x="0px" y="0px" width="102.422px" height="116.703px" viewBox="0 0 102.422 116.703" enable-background="new 0 0 102.422 116.703" xml:space="preserve" xmlns="http://www.w3.org/2000/svg" xmlns:xlink="http://www.w3.org/1999/xlink" xmlns:xml="http://www.w3.org/XML/1998/namespace">
  <path fill="#352B28" d="M102.367,99.559c-0.264-2.734-1.418-5.448-3.307-7.761c-0.275-0.337-0.564-0.665-0.869-0.983
	c-1.527-1.596-3.357-2.867-5.303-3.678c-3.516-1.457-7.102-1.3-9.832,0.283l0.004-0.041L62.389,58.998L67.148,49h0.006l2.238-4.697
	L90.492,0L65.213,37.178l-7.266,10.688l0.018,0.002l-1.773,2.607l-3.453-4.758l-0.018,0.004l-6.24-8.563L19.918,0.705l21.27,41.145
	l2.703,5.232l-0.014,0.002l4.725,9.169l0.023-0.007l1.572,3.039L30.496,88.241c-2.803-1.614-6.48-1.68-10.02-0.071
	c-1.922,0.875-3.707,2.21-5.184,3.852c-2.313,2.592-3.699,5.74-3.887,8.877c-0.203,3.238,0.861,6.064,3.008,7.99
	c-2.244,3.152-4.689,4.994-7.293,5.429c-0.818,0.138-1.582,0.124-2.271,0.026c-2.057-0.291-3.432-1.328-3.445-1.344l-0.703,0.912
	L0,114.811c0.098,0.09,2.084,1.6,5.037,1.854c0.752,0.065,1.563,0.054,2.422-0.089c0.881-0.141,1.742-0.402,2.59-0.789
	c2.256-1.022,4.348-2.912,6.271-5.622c2.75,1.383,6.275,1.349,9.602-0.159c1.91-0.871,3.705-2.203,5.184-3.857
	c2.301-2.592,3.682-5.734,3.883-8.873c0.18-2.932-0.688-5.52-2.441-7.416L51.828,68.48l4.877-2.596l4.08,2l20.297,21.098
	c-1.836,1.979-2.695,4.682-2.402,7.721c0.297,3.139,1.775,6.238,4.17,8.737c1.529,1.61,3.367,2.878,5.303,3.682
	c4.256,1.769,8.648,1.21,11.455-1.473c0.752-0.718,1.355-1.553,1.813-2.476C102.229,103.539,102.564,101.624,102.367,99.559z
	 M32.701,97.131c-0.174,2.625-1.334,5.289-3.313,7.488c-1.258,1.418-2.795,2.557-4.418,3.291c-2.9,1.32-5.938,1.307-8.115-0.051
	c-0.328-0.188-0.629-0.418-0.908-0.662c-1.623-1.447-2.414-3.629-2.26-6.154c0.16-2.633,1.34-5.29,3.305-7.494
	c1.268-1.412,2.797-2.555,4.426-3.297c3.354-1.518,6.809-1.244,9.023,0.728c0.059,0.05,0.1,0.108,0.158,0.163l0.121,0.754
	l0.295-0.338C32.24,92.986,32.838,94.928,32.701,97.131z M98.023,105.998c-2.137,2.041-5.578,2.432-8.992,1.013
	c-1.639-0.684-3.209-1.771-4.525-3.146c-2.041-2.141-3.291-4.756-3.547-7.372c-0.248-2.522,0.488-4.735,2.055-6.231
	c2.135-2.033,5.596-2.424,8.992-1.009c1.656,0.685,3.219,1.767,4.533,3.148c2.037,2.132,3.295,4.761,3.545,7.377
	C100.33,102.291,99.594,104.497,98.023,105.998z" class="color c1"/>
</svg>