<svg version="1.1" id="图层_1" x="0px" y="0px" width="185.082px" height="188.913px" viewBox="-316.657 5.901 185.082 188.913" enable-background="new -316.657 5.901 185.082 188.913" xml:space="preserve" xmlns:xml="http://www.w3.org/XML/1998/namespace" xmlns="http://www.w3.org/2000/svg" xmlns:xlink="http://www.w3.org/1999/xlink">
  <path fill="#3E3A39" d="M-173.062,39.585c0-1.521,1.231-2.75,2.75-2.75c1.521,0,2.75,1.229,2.75,2.75c0,1.52-1.229,2.75-2.75,2.75
	C-171.83,42.335-173.062,41.104-173.062,39.585z M-163.978,52.835c1.52,0,2.75-1.23,2.75-2.75c0-1.521-1.23-2.75-2.75-2.75
	s-2.75,1.229-2.75,2.75C-166.728,51.604-165.496,52.835-163.978,52.835z M-136.894,51.169
	c-1.434,28.014-21.041,22.166-27.002,14.833c-0.271-0.332-0.658-0.665-0.658-1.001v0.002c0-0.016-0.094-0.147-0.103-0.162
	c-0.003-0.004-0.041-0.127-0.043-0.127h-0.021c-30.104-41-43.285-49.532-53.055-52.964c-16.235-7.713-46.871-12.454-74.608,16.813
	c-31.182,32.899-32.786,102.229-2.127,140.271c3.585,4.448,7.181,8.217,10.736,11.392c14.849,9.066,32.247,14.373,50.866,14.589
	c0.198-2.179-14.871-43.619,5.282-101.512c12.111-34.793,6.917-40.083,6.917-40.083s1.243,12.717,27.167,15.25
	c-2.943,3.688-5.073,7.183-1.75,15c3.779,8.894,11.723,6.941,13.25,10.167c1.559,3.291-4.701,6.547-8.083,10
	c-1.543,1.577-3.146,5.028-3.667,7c0.473-0.169,1.936-0.667,2.417-0.834c4.81-1.678,1.827,4.501-0.417,7.667
	c0,0,4.167,3.833,0.083,8.083c-0.5,0.186-1.083,0.2-2.083,0.167c0,0.007,0.417,1.994,0.417,2c1,9.406,4.222,13.959-1.958,19.5
	c-7.33,6.568-23.446-3.132-26.875,1.875c-2.042,2.983-9.042,25.834,20.747,41.064c35.634-11.315,62.628-42.056,68.515-79.784
	C-128.317,87.243-136.894,51.169-136.894,51.169z M-177.478,32.835c1.52,0,2.75-1.23,2.75-2.75c0-1.521-1.23-2.75-2.75-2.75
	s-2.75,1.229-2.75,2.75C-180.228,31.604-178.996,32.835-177.478,32.835z M-185.646,26.001c1.521,0,2.75-1.229,2.75-2.75
	c0-1.52-1.229-2.75-2.75-2.75c-1.519,0-2.75,1.23-2.75,2.75S-187.163,26.001-185.646,26.001z" class="color c1"/>
  <path fill="#FFFFFF" d="M-179.837,93.083c-1.528-3.226-9.209-0.111-12.987-9.004c-3.323-7.816-0.49-13.207,2.453-16.896
	c-25.925-2.533-33.484-21.336-33.484-21.336s3.242,11.325-8.869,46.118c-20.151,57.893-0.948,101.168-0.183,102.854
	c0.394,0.005,0.785,0.016,1.18,0.016c10.563,0,20.74-1.644,30.298-4.679c-23.45-12.889-21.238-36.18-19.196-39.163
	c3.429-5.009,19.266,4.09,26.595-2.479c6.152-5.518,2.385-12.497,1.736-21.841c0.14-0.031,0.281-0.052,0.418-0.104
	c5.828-2.157,1.217-9.021,1.217-9.021c5.861-3.905,3.464-9.846-1.346-8.168c-0.086,0.03-0.17,0.062-0.256,0.092
	c0.531-1.894,1.451-3.378,2.949-4.909C-185.931,101.113-178.28,96.374-179.837,93.083z M-241.365,83.215
	c-0.43,0.908-0.754,1.808-1.124,2.714c-0.352,0.913-0.747,1.799-1.065,2.737c-0.638,1.875-1.34,3.733-1.872,5.653
	c-1.181,3.799-2.136,7.674-2.97,11.51c-0.401,1.921-0.725,3.845-1.087,5.734c-0.287,1.903-0.629,3.777-0.861,5.637
	c-0.475,3.717-0.842,7.323-1.087,10.757c-0.241,3.433-0.338,6.687-0.408,9.692c0,1.506-0.001,2.948-0.002,4.319
	c0.033,1.372,0.065,2.675,0.096,3.896c0.015,1.229,0.093,2.37,0.158,3.43c0.06,1.062,0.113,2.035,0.162,2.916
	c0.297,3.52,0.467,5.528,0.467,5.528s-0.104-0.493-0.297-1.421c-0.184-0.929-0.501-2.286-0.809-4.029
	c-0.253-1.75-0.671-3.871-0.912-6.328c-0.133-1.229-0.274-2.537-0.424-3.916c-0.09-1.386-0.185-2.841-0.283-4.359
	c-0.149-3.042-0.227-6.347-0.13-9.842c0.06-3.493,0.299-7.178,0.696-10.978c0.183-1.899,0.476-3.819,0.715-5.771
	c0.315-1.939,0.652-3.903,1.038-5.874c0.441-1.96,0.794-3.954,1.333-5.919l0.756-2.962c0.282-0.98,0.599-1.954,0.896-2.933
	c0.565-1.965,1.306-3.877,1.98-5.801c0.337-0.96,0.766-1.903,1.144-2.854c0.398-0.938,0.752-1.917,1.203-2.791
	c0.431-0.896,0.86-1.786,1.287-2.672c0.439-0.887,0.877-1.768,1.312-2.643c0.848-1.729,1.661-3.45,2.403-5.166
	c1.511-3.422,2.837-6.788,3.896-10.045c1.057-3.258,1.92-6.383,2.497-9.313c0.567-2.933,0.929-5.653,1.054-8.082
	c0.126-2.427,0.059-4.554-0.125-6.294c-0.197-1.737-0.461-3.099-0.723-4.003c-0.249-0.91-0.461-1.371-0.461-1.371
	s0.261,0.437,0.609,1.32c0.352,0.882,0.793,2.216,1.147,3.965c0.332,1.749,0.634,3.908,0.672,6.399
	c0.041,2.486-0.074,5.307-0.504,8.344c-0.433,3.035-1.08,6.303-2.038,9.681c-0.953,3.379-2.141,6.889-3.575,10.436
	c-0.713,1.773-1.5,3.552-2.321,5.338c-0.408,0.88-0.818,1.763-1.23,2.65C-240.554,81.407-240.958,82.31-241.365,83.215z
	 M-249.044,72.952c-1.867,2.546-3.619,5.321-5.124,8.188c-1.513,2.87-2.857,5.835-3.946,8.846c-1.082,3.013-2.002,6.035-2.703,9.017
	c-0.695,2.98-1.22,5.904-1.609,8.698c-0.372,2.796-0.624,5.459-0.803,7.929c-0.323,4.938-0.363,9.09-0.384,11.998
	c-0.013,2.913-0.02,4.578-0.02,4.578s-0.059-0.413-0.171-1.187c-0.106-0.772-0.278-1.908-0.443-3.356
	c-0.334-2.896-0.764-7.057-0.803-12.087c-0.033-2.515,0.035-5.245,0.276-8.13c0.224-2.886,0.606-5.926,1.246-9.031
	c0.626-3.106,1.443-6.3,2.569-9.447c1.113-3.147,2.442-6.289,4.055-9.284c1.62-3,3.454-5.843,5.488-8.552
	c1.014-1.274,2.018-2.541,3.011-3.791c0.95-1.252,1.858-2.51,2.704-3.778c1.678-2.544,3.171-5.093,4.32-7.636
	c1.151-2.538,2.063-5.022,2.668-7.385c1.229-4.728,1.29-8.879,0.959-11.731c-0.323-2.869-0.962-4.435-0.962-4.435
	s0.209,0.36,0.514,1.084c0.295,0.727,0.709,1.811,1.034,3.248c0.317,1.437,0.624,3.216,0.671,5.28
	c0.052,2.062-0.049,4.411-0.523,6.92c-0.462,2.507-1.187,5.193-2.278,7.908c-1.081,2.717-2.45,5.494-4.133,8.195
	c-0.842,1.353-1.745,2.691-2.694,4.023C-247.087,70.329-248.062,71.635-249.044,72.952z M-262.512,77.383
	c-1.098,1.948-2.285,3.81-3.191,5.742c-0.947,1.909-1.961,3.715-2.698,5.526c-0.397,0.896-0.783,1.769-1.157,2.608
	c-0.392,0.837-0.754,1.651-1.027,2.461c-0.587,1.604-1.155,3.07-1.661,4.371c-0.485,1.31-0.761,2.492-1.064,3.448
	c-0.574,1.923-0.933,3.021-0.933,3.021s0.177-1.133,0.539-3.116c0.205-0.984,0.364-2.211,0.716-3.57
	c0.368-1.354,0.787-2.89,1.279-4.555c0.219-0.843,0.523-1.691,0.856-2.564c0.329-0.875,0.672-1.778,1.023-2.709
	c0.653-1.885,1.569-3.771,2.489-5.738c0.875-1.99,1.976-3.948,3.096-5.938c0.279-0.497,0.56-0.998,0.84-1.498
	c0.289-0.498,0.62-0.973,0.93-1.46c0.63-0.972,1.264-1.945,1.896-2.92c0.604-0.984,1.405-1.881,2.104-2.817
	c0.736-0.901,1.407-1.896,2.188-2.709c0.78-0.815,1.556-1.627,2.32-2.428l0.612-0.627l0.567-0.562
	c0.371-0.379,0.768-0.729,1.111-1.121c1.41-1.541,2.618-3.166,3.637-4.795c0.979-1.65,1.762-3.301,2.379-4.871
	c0.581-1.585,1.012-3.08,1.326-4.429c0.28-1.354,0.474-2.551,0.56-3.545c0.094-0.995,0.145-1.78,0.162-2.317
	c0.008-0.539,0.012-0.827,0.012-0.827s0.034,0.286,0.1,0.821c0.047,0.536,0.135,1.329,0.129,2.342
	c0.002,2.019-0.161,4.953-1.162,8.334c-0.518,1.68-1.206,3.47-2.162,5.258c-0.983,1.771-2.158,3.575-3.62,5.246
	c-0.352,0.429-0.758,0.813-1.14,1.228l-0.584,0.613l-0.523,0.576c-0.748,0.816-1.504,1.646-2.267,2.479
	c-0.775,0.825-1.365,1.747-2.063,2.622c-0.656,0.903-1.393,1.729-1.979,2.712c-0.627,0.944-1.255,1.891-1.878,2.83
	c-0.308,0.475-0.637,0.934-0.925,1.416C-261.955,76.412-262.234,76.899-262.512,77.383z" class="color c2"/>
  <path fill="#3E3A39" d="M-202.623,85.209l-1.579-4.141c0,0,2.137-3.117,3.134-5.188c0,0-10.884,7.772-16.299,10.017
	C-217.367,85.896-208.695,88.282-202.623,85.209z" class="color c1"/>
</svg>