<svg version="1.1" id="图层_1" x="0px" y="0px" width="101.668px" height="117.758px" viewBox="0 0 101.668 117.758" enable-background="new 0 0 101.668 117.758" xml:space="preserve" xmlns="http://www.w3.org/2000/svg" xmlns:xlink="http://www.w3.org/1999/xlink" xmlns:xml="http://www.w3.org/XML/1998/namespace">
  <path fill="#FFFFFF" d="M66.348,31.052V17.425h-5.909V1.5H41.065v15.925h-5.91v13.627C15.62,37.618,1.5,56.007,1.5,77.842
	c0,15.596,7.223,29.387,18.387,38.416h61.895c11.164-9.029,18.388-22.984,18.388-38.416C100.169,56.007,86.05,37.454,66.348,31.052z
	 M50.752,4.782c2.135,0,3.939,1.807,3.939,3.941c0,2.134-1.805,3.939-3.939,3.939s-3.939-1.806-3.939-3.939
	C46.813,6.589,48.618,4.782,50.752,4.782z" class="color c1"/>
  <path fill="#0AA49C" d="M82.311,117.758H19.355l-0.412-0.334C6.904,107.688,0,93.26,0,77.842c0-21.503,13.479-40.599,33.654-47.857
	V15.925h5.91V0h22.374v15.925h5.91v14.049c20.275,7.073,33.82,26.172,33.82,47.869c0,15.418-6.904,29.846-18.943,39.582
	L82.311,117.758z M20.422,114.758h60.825c11.078-9.158,17.422-22.584,17.422-36.916c0-20.761-13.174-38.992-32.785-45.364
	l-1.035-0.337V18.925h-5.91V3H42.564v15.925h-5.91V32.13l-1.021,0.344C16.113,39.034,3,57.267,3,77.842
	C3,92.174,9.343,105.6,20.422,114.758z M50.752,14.163c-2.949,0-5.439-2.49-5.439-5.439s2.49-5.441,5.439-5.441
	c2.948,0,5.44,2.492,5.44,5.441S53.7,14.163,50.752,14.163z M50.752,6.282c-1.299,0-2.439,1.141-2.439,2.441
	c0,1.3,1.141,2.439,2.439,2.439c1.299,0,2.44-1.14,2.44-2.439C53.192,7.423,52.051,6.282,50.752,6.282z" class="color c2"/>
</svg>