<svg version="1.1" id="图层_1" x="0px" y="0px" width="96.375px" height="94.775px" viewBox="0 0 96.375 94.775" enable-background="new 0 0 96.375 94.775" xml:space="preserve" xmlns="http://www.w3.org/2000/svg" xmlns:xlink="http://www.w3.org/1999/xlink" xmlns:xml="http://www.w3.org/XML/1998/namespace">
  <path fill="#AD9328" d="M20.32,33.616c31.406-61.703,63.552-19.582,63.552-19.582C49.143-15.892,20.32,33.616,20.32,33.616z
	 M71.308,43.223c-45.444-19.582-9.236-32.884-9.236-32.884C16.258,25.488,71.308,43.223,71.308,43.223z M62.44,18.468
	c0,0,16.26,4.803,12.193,19.212C74.634,37.68,85.349,20.315,62.44,18.468z M73.522,16.809c0,0,16.633,2.028,10.35,16.807
	C83.872,33.616,95.776,16.361,73.522,16.809z M89.782,33.616c0,0-1.109,19.583-29.93,15.888
	C59.853,49.503,94.214,57.631,89.782,33.616z M41.75,68.717c-5.539-20.691,0-48.401,0-48.401
	C23.277,27.334,41.75,68.717,41.75,68.717z M54.869,94.766c0,0,10.896,0.369,13.669-3.512c0,0-38.983-32.145-68.538-29.188
	c0,0,22.355,11.639,20.32,22.723c0,0,1.295-17.736-11.084-19.396c0,0,29.928,9.051,52.28,25.492
	C61.517,90.885,59.114,94.395,54.869,94.766z M9.975,53.383C2.219,23.641,29.188,16.809,29.188,16.809
	C-10.406,11.936,9.975,53.383,9.975,53.383z M93.015,47.009c0,0,0.48,25.387-12.727,35.469
	C80.288,82.479,105.208,72.502,93.015,47.009z M46.463,50.829c0,0,11.085,20.472,35.192,17.888
	C81.655,68.717,67.243,64.066,46.463,50.829z M75.015,73.889c0,0-10.73,4.617-17.932,1.293
	C57.083,75.182,66.53,85.344,75.015,73.889z" class="color c1"/>
</svg>