<svg version="1.1" id="图层_1" x="0px" y="0px" width="123.121px" height="94.567px" viewBox="0 0 123.121 94.567" enable-background="new 0 0 123.121 94.567" xml:space="preserve" xmlns="http://www.w3.org/2000/svg" xmlns:xlink="http://www.w3.org/1999/xlink" xmlns:xml="http://www.w3.org/XML/1998/namespace">
  <path fill="#195296" d="M30.014,85.811c9.239,5.555,20.033,8.756,31.543,8.756c11.508,0,22.303-3.201,31.542-8.756
	c17.948-10.789,30.022-30.457,30.022-52.81c0-4.851-0.584-9.57-1.658-14.104l-3.565,1.552l-4.323-5.113l-7.764,7.741L83.304,0
	L48.712,25.562L27.091,10.225c0,0-12.711,10.112-27.091,23.288c0.006,0.56,0.014,1.12,0.034,1.676
	C0.793,56.632,12.654,75.375,30.014,85.811z M82.067,4.379c0,0,1.161,21.68,2.122,20.687c0.961-0.994,2.643-2.414,2.643-2.414
	L104.49,55.03L81.427,34.675l-6.885,4.734l2.4-5.492l-8.773,4.733l2.688-5.301l-2.688,0.189l2.048-3.835l1.441-4.308l-10.41,7.385
	l4.76-8.521l-10.044,3.409C57.084,25.965,82.067,4.379,82.067,4.379z M53.88,39.03l-1.28-6.816l25.72,29.135l-17.298-5.112v5.112
	L42.67,48.688l-4.645,6.248c0,0,0-10.983,0-12.119c0-1.135-10.089-28.213-10.089-28.213L53.88,39.03z" class="color c1"/>
</svg>