<svg version="1.1" id="图层_1" x="0px" y="0px" width="175.594px" height="142.205px" viewBox="0 0 175.594 142.205" enable-background="new 0 0 175.594 142.205" xml:space="preserve" xmlns="http://www.w3.org/2000/svg" xmlns:xlink="http://www.w3.org/1999/xlink" xmlns:xml="http://www.w3.org/XML/1998/namespace">
  <path fill="#5ABBD4" d="M57.012,13.625c2.518,0,4.558-2.041,4.558-4.557c0-2.518-2.04-4.557-4.558-4.557
	c-2.516,0-4.557,2.039-4.557,4.557C52.455,11.584,54.496,13.625,57.012,13.625z M57.012,7.549c0.84,0,1.52,0.68,1.52,1.52
	c0,0.838-0.68,1.519-1.52,1.519c-0.838,0-1.518-0.681-1.518-1.519C55.494,8.229,56.174,7.549,57.012,7.549z" class="color c1"/>
  <path fill="#5ABBD4" d="M32.34,40.502c2.517,0,4.557-2.039,4.557-4.557c0-2.516-2.04-4.557-4.557-4.557s-4.557,2.041-4.557,4.557
	C27.783,38.463,29.823,40.502,32.34,40.502z M32.34,34.427c0.839,0,1.519,0.681,1.519,1.519c0,0.84-0.68,1.52-1.519,1.52
	s-1.52-0.68-1.52-1.52C30.82,35.107,31.501,34.427,32.34,34.427z" class="color c1"/>
  <circle fill="#5ABBD4" cx="52.221" cy="29.653" r="3.603" class="color c1"/>
  <path fill="#5ABBD4" d="M128.338,33.363c0.814-0.018,1.625-0.116,2.42-0.295c1.049,0,3.576-0.592,4.221-2.689
	c0.646-2.098-0.752-3.629-2.043-5.001c-1.368-1.214-2.365-2.788-2.877-4.544c-0.129-2.048,0.173-4.1,0.887-6.023
	c0.754-2.607,1.479-5.108-0.188-6.938c-1.26-1.217-3.075-1.668-4.76-1.182c-6.377,1.154-11.021,6.693-11.049,13.174
	C114.918,27.289,120.913,33.333,128.338,33.363z M121.643,15.295c1.057-1.492,2.592-2.575,4.345-3.082
	c-0.104,0.414-0.208,0.78-0.338,1.119c-0.994,2.705-1.353,5.604-1.05,8.47c0.5,2.325,1.635,4.467,3.281,6.185
	c-1.532-0.059-3.015-0.554-4.275-1.426c-1.748-1.238-2.944-3.109-3.334-5.216C119.904,19.227,120.397,17.049,121.643,15.295z" class="color c1"/>
  <path fill="#5ABBD4" d="M120.671,125.994H54.923c-1.489,0-2.702,1.211-2.702,2.701s1.213,2.702,2.702,2.702h65.748
	c1.49,0,2.702-1.212,2.702-2.702S122.161,125.994,120.671,125.994z" class="color c1"/>
  <path fill="#5ABBD4" d="M138.684,113.385H67.244c-1.49,0-2.702,1.212-2.702,2.701c0,1.49,1.212,2.703,2.702,2.703h71.439
	c1.49,0,2.703-1.213,2.703-2.703C141.387,114.597,140.174,113.385,138.684,113.385z" class="color c1"/>
  <path fill="#5ABBD4" d="M57.012,116.086c0-1.489-1.211-2.701-2.701-2.701h-17.4c-1.49,0-2.703,1.212-2.703,2.701
	c0,1.49,1.213,2.703,2.703,2.703h17.4C55.801,118.789,57.012,117.576,57.012,116.086z" class="color c1"/>
  <path fill="#5ABBD4" d="M89.18,136.802H71.778c-1.489,0-2.702,1.212-2.702,2.702s1.213,2.701,2.702,2.701H89.18
	c1.49,0,2.701-1.211,2.701-2.701S90.67,136.802,89.18,136.802z" class="color c1"/>
  <path fill="#5ABBD4" d="M103.815,136.802h-3.892c-1.49,0-2.701,1.212-2.701,2.702s1.211,2.701,2.701,2.701h3.892
	c1.489,0,2.702-1.211,2.702-2.701S105.305,136.802,103.815,136.802z" class="color c1"/>
  <path fill="#5ABBD4" d="M173.085,101.059h-33.671l2.486-9.157c0.219-0.795,0.113-1.634-0.299-2.356s-1.083-1.241-1.887-1.461
	c-0.268-0.072-0.543-0.109-0.82-0.109c-1.4,0-2.635,0.946-3,2.301l-1.742,6.417L91.946,13.387l4.319-4.154
	c1.236-1.19,1.274-3.164,0.086-4.4c-0.582-0.605-1.399-0.953-2.242-0.953c-0.808,0-1.573,0.308-2.156,0.868L91.24,5.432V3.112
	C91.24,1.396,89.845,0,88.129,0c-1.715,0-3.111,1.396-3.111,3.112v1.935l-0.313-0.301c-0.584-0.561-1.35-0.869-2.157-0.869
	c-0.841,0-1.657,0.348-2.24,0.952c-1.191,1.238-1.153,3.212,0.083,4.401l4.053,3.897L41.92,97.062l-2.254-7.261
	c-0.408-1.311-1.604-2.189-2.975-2.189c-0.313,0-0.623,0.047-0.923,0.141c-1.634,0.508-2.554,2.254-2.048,3.892l2.925,9.415H2.509
	c-1.386,0-2.509,1.124-2.509,2.51c0,1.385,1.123,2.508,2.509,2.508h170.576c1.386,0,2.509-1.123,2.509-2.508
	C175.594,102.183,174.471,101.059,173.085,101.059z M91.242,34.678v-8.912l37.133,73.293C92.094,80.501,91.246,35.338,91.242,34.864
	V34.678z M119.434,101.059H91.242V64.771C96.091,77.6,104.594,91.433,119.434,101.059z M85.02,25.766v8.904
	c-0.006,0.459-0.904,45.777-37.129,64.376L85.02,25.766z M85.02,64.656v36.402H56.778C71.647,91.405,80.165,77.525,85.02,64.656z" class="color c1"/>
</svg>