<svg version="1.1" id="图层_1" x="0px" y="0px" width="221.625px" height="85.859px" viewBox="0 0 221.625 85.859" enable-background="new 0 0 221.625 85.859" xml:space="preserve" xmlns="http://www.w3.org/2000/svg" xmlns:xlink="http://www.w3.org/1999/xlink" xmlns:xml="http://www.w3.org/XML/1998/namespace">
  <path fill="#2A1912" d="M87.003,72.431c0.538-0.139,1.098-0.308,1.691-0.523c-2.594-1.215-2.954-1.318-5.188-3.014
	c1.079-0.181,2.16-0.494,3.178-0.976c-2.384-1.125-4.603-2.487-6.627-4.094c0.849-0.217,1.697-0.453,2.544-0.703
	c1.081-0.101,2.175-0.306,3.272-0.632c0.09-0.045,0.36-0.089,0.285-0.149c-1.888-1.224-3.638-2.532-5.242-3.917
	c0.45-0.134,0.893-0.302,1.328-0.507c-1.759-0.829-3.397-1.822-4.912-2.977c-0.723-0.798-1.4-1.613-2.029-2.446
	c0.183-0.03,0.364-0.067,0.545-0.11c1.618,0.149,3.295,0.015,5.002-0.511c0.061-0.045,0.27-0.075,0.209-0.119
	c-0.578-0.393-1.139-0.797-1.683-1.211c0.974-0.142,1.937-0.409,2.868-0.829c-4.087-1.934-7.508-4.719-10.242-8.387
	c2.017,0.511,4.667,0.001,6.059-0.729c-1.524-0.839-2.924-1.86-4.203-3.063c0.563-0.122,1.135-0.331,1.699-0.641
	c-2.534-1.432-4.667-3.483-6.371-6.174c0.654,0.385,1.509,0.526,2.375,0.511c0.893,0.035,1.815-0.128,2.757-0.574
	c0.121-0.053,0.235-0.108,0.339-0.165c-0.003-0.001-0.005-0.003-0.007-0.005c0.007-0.004,0.015-0.006,0.022-0.012
	c-2.759-1.56-4.993-3.912-6.688-7.106c0.99,0.315,2.069,0.3,3.179-0.3c-0.78-0.45-1.484-0.976-2.145-1.619
	c0.003,0.001,0.006,0.001,0.009,0.002c0.012,0.005,0.024,0.01,0.036,0.014c0.93,0.165,1.904,0.062,2.923-0.494
	c-0.171-0.098-0.34-0.198-0.507-0.305c-0.035-0.021-0.069-0.045-0.104-0.068c-0.131-0.084-0.26-0.172-0.388-0.263
	c-0.039-0.026-0.077-0.057-0.115-0.084c-0.123-0.089-0.243-0.179-0.363-0.272c-0.036-0.028-0.071-0.059-0.108-0.088
	c-0.121-0.098-0.24-0.196-0.357-0.301c-0.03-0.025-0.061-0.054-0.091-0.081c-0.123-0.109-0.245-0.223-0.364-0.339
	c-0.021-0.021-0.042-0.042-0.064-0.063c-0.129-0.129-0.257-0.26-0.382-0.396c-0.009-0.011-0.019-0.021-0.028-0.03
	c-0.98-1.066-1.819-2.353-2.512-3.859c0.116,0.044,0.231,0.074,0.346,0.09c-0.015-0.03-0.015-0.045-0.03-0.061
	c-0.24-0.556-0.45-1.14-0.66-1.738c0.899,0.555,1.469,0.494,2.594-0.12c-0.149-0.085-0.295-0.176-0.438-0.271
	c-0.021-0.016-0.042-0.028-0.063-0.043c-0.139-0.095-0.274-0.194-0.405-0.3c-0.019-0.015-0.037-0.029-0.055-0.045
	c-0.133-0.107-0.264-0.221-0.389-0.339c-0.002-0.002-0.004-0.003-0.004-0.005c-0.121-0.115-0.238-0.236-0.353-0.36
	c-0.027-0.029-0.055-0.06-0.082-0.091c-0.104-0.117-0.206-0.238-0.305-0.364c-0.034-0.043-0.066-0.087-0.099-0.131
	c-0.072-0.097-0.143-0.194-0.211-0.297c-0.052-0.075-0.102-0.15-0.152-0.229c-0.058-0.092-0.115-0.185-0.171-0.279
	c-0.046-0.079-0.093-0.158-0.137-0.24c-0.039-0.069-0.076-0.144-0.113-0.214c-0.077-0.147-0.152-0.301-0.224-0.457
	C65.638,9.285,65.618,9.243,65.6,9.2c-0.097-0.221-0.191-0.447-0.278-0.685c-0.513-1.386-0.853-3.036-1.008-4.972
	c-0.102,1.823-0.481,3.596-1.26,5.25c-0.795,1.555-2.355,3.175-3.854,4.451c0.719,0.255,1.424,0.24,2.084,0.062
	c0.015-0.016,0.03-0.044,0.045-0.075c0.015,0.015,0.015,0.045,0.03,0.06c0.24-0.075,0.48-0.165,0.72-0.271
	c-0.18,0.42-0.36,0.84-0.555,1.26c0.156-0.046,0.355-0.117,0.567-0.208c-1.167,2.428-2.866,4.712-5.246,6.761
	c-0.003,0.003-0.005,0.008-0.007,0.012c-0.053,0.047-0.104,0.093-0.158,0.14c0.058,0.02,0.117,0.037,0.174,0.056
	c0.002,0.001,0.004,0.003,0.006,0.003c0.021,0.008,0.042,0.014,0.063,0.021c0.055,0.017,0.111,0.033,0.167,0.049
	c0.07,0.02,0.141,0.037,0.21,0.054c0.03,0.007,0.059,0.016,0.088,0.021c0.602,0.132,1.2,0.155,1.78,0.098
	c0.011-0.002,0.023-0.006,0.036-0.01c0.063-0.006,0.127-0.012,0.19-0.021c-0.584,0.63-1.215,1.244-1.905,1.831
	c0.926,0.327,1.822,0.358,2.688,0.195c-1.481,2.483-3.419,4.826-5.903,6.984c-0.088,0.074-0.174,0.149-0.264,0.228
	c0.03,0.011,0.061,0.021,0.091,0.03c0.045,0.014,0.089,0.045,0.134,0.074c1.049,0.328,2.099,0.42,3.104,0.313
	c0.245-0.017,0.533-0.06,0.838-0.123c0.233-0.046,0.463-0.099,0.691-0.161c-1.529,2.219-3.418,4.333-5.728,6.297
	c0.615,0.226,1.244,0.346,1.875,0.375c-1.215,1.154-2.563,2.249-4.063,3.314c0.012,0.003,0.024,0.005,0.037,0.01
	c-0.003,0.002-0.005,0.004-0.007,0.005c-0.06,0.03,0.12,0.062,0.179,0.09c1.38,0.437,2.759,0.54,4.094,0.421
	c0.203-0.044,0.399-0.087,0.59-0.135c0.003,0,0.007-0.001,0.009-0.001c-1.919,3.314-4.469,6.672-8.727,8.728
	c1.137,0.349,2.153,0.537,3.159,0.6c-0.742,0.521-1.509,1-2.304,1.439c1.095,0.573,2.822,1.034,4.57,1.125
	c-1.787,1.749-3.795,3.437-6.084,5.053c0.516,0.163,1.756,0.276,2.409,0.375c-1.84,1.561-3.832,2.904-5.978,4.034
	c1.331,0.674,2.913,1.224,4.478,1.388c-1.638,1.454-3.406,2.852-5.333,4.22c0.704,0.21,1.424,0.374,2.129,0.495
	c-0.72,0.646-1.484,1.274-2.264,1.904c0.564,0.201,1.156,0.314,1.766,0.364c-1.138,0.761-2.321,1.461-3.55,2.095
	c2.864,0.689,5.442,1.155,9.101-1.289c0.285,1.529,0.495,2.52,0.045,3.584c2.045-0.28,3.083-1.153,4.218-2.7
	c0.331-0.164,0.665-0.331,0.997-0.497c0.271,1.414,0.215,3.509-0.027,4.666c1.207,0.351,3.869-1.142,5.869-2.742
	c1.204-0.146,2.509-0.643,3.653-1.191c1.951,2.083,5.708,4.354,8.291,4.625c-0.447-0.671-0.717-1.69-0.884-2.747
	c0.365,0.144,0.651,0.193,0.81,0.093c-0.08-0.772-0.023-1.647,0.114-2.449c1.573,1.235,3.853,2.895,5.523,3.169
	c-0.561-0.901-0.597-2.981-0.304-3.973c0.715,0.256,1.424,0.524,2.155,0.762c2.526,1.421,5.625,1.406,7.58,0.827
	c0.105-0.045,0.405-0.09,0.315-0.148C87.39,72.684,87.196,72.557,87.003,72.431z" class="color c1"/>
  <path fill="#2A1912" d="M185.003,76.896c0.537-0.139,1.099-0.308,1.691-0.523c-2.594-1.215-2.953-1.317-5.188-3.014
	c1.078-0.18,2.158-0.494,3.178-0.976c-2.385-1.125-4.604-2.487-6.627-4.094c0.85-0.217,1.697-0.453,2.545-0.703
	c1.08-0.101,2.175-0.306,3.271-0.632c0.09-0.045,0.36-0.089,0.285-0.148c-1.888-1.225-3.638-2.533-5.242-3.917
	c0.449-0.135,0.894-0.303,1.328-0.508c-1.76-0.829-3.396-1.821-4.912-2.977c-0.724-0.798-1.398-1.613-2.028-2.446
	c0.183-0.029,0.364-0.066,0.545-0.109c1.618,0.148,3.295,0.014,5.003-0.512c0.061-0.045,0.27-0.074,0.209-0.119
	c-0.578-0.393-1.139-0.797-1.684-1.211c0.975-0.142,1.938-0.408,2.869-0.828c-4.088-1.935-7.51-4.72-10.242-8.388
	c2.017,0.511,4.666,0.001,6.059-0.729c-1.525-0.838-2.924-1.86-4.203-3.063c0.563-0.122,1.135-0.331,1.699-0.641
	c-2.534-1.432-4.667-3.483-6.371-6.173c0.652,0.384,1.509,0.525,2.375,0.51c0.893,0.035,1.814-0.128,2.757-0.574
	c0.121-0.053,0.235-0.107,0.339-0.165c-0.002-0.001-0.005-0.003-0.008-0.005c0.008-0.004,0.016-0.006,0.021-0.012
	c-2.758-1.56-4.992-3.912-6.688-7.106c0.99,0.315,2.07,0.3,3.18-0.3c-0.779-0.45-1.483-0.975-2.145-1.619
	c0.002,0.001,0.006,0.001,0.009,0.002c0.013,0.005,0.024,0.01,0.036,0.015c0.93,0.164,1.904,0.061,2.924-0.495
	c-0.172-0.098-0.34-0.198-0.508-0.305c-0.035-0.021-0.068-0.045-0.104-0.068c-0.131-0.084-0.26-0.171-0.389-0.263
	c-0.039-0.026-0.076-0.057-0.115-0.084c-0.121-0.089-0.242-0.179-0.361-0.272c-0.037-0.028-0.072-0.059-0.108-0.088
	c-0.12-0.098-0.239-0.196-0.356-0.3c-0.03-0.026-0.062-0.055-0.092-0.081c-0.123-0.11-0.244-0.224-0.363-0.34
	c-0.021-0.021-0.043-0.042-0.063-0.063c-0.13-0.129-0.258-0.26-0.383-0.396c-0.01-0.011-0.021-0.021-0.026-0.03
	c-0.98-1.066-1.82-2.353-2.514-3.859c0.116,0.044,0.23,0.074,0.348,0.09c-0.017-0.029-0.017-0.045-0.031-0.061
	c-0.24-0.556-0.449-1.14-0.659-1.738c0.899,0.555,1.469,0.494,2.594-0.12c-0.149-0.085-0.296-0.176-0.438-0.271
	c-0.021-0.016-0.041-0.028-0.063-0.043c-0.139-0.095-0.273-0.194-0.404-0.3c-0.02-0.015-0.037-0.029-0.056-0.045
	c-0.134-0.107-0.265-0.221-0.39-0.339c-0.002-0.002-0.004-0.003-0.004-0.005c-0.121-0.115-0.238-0.236-0.354-0.359
	c-0.027-0.03-0.057-0.061-0.082-0.092c-0.104-0.116-0.206-0.237-0.305-0.363c-0.034-0.043-0.065-0.087-0.1-0.132
	c-0.072-0.097-0.143-0.194-0.211-0.297c-0.053-0.074-0.102-0.15-0.152-0.229c-0.059-0.091-0.114-0.185-0.172-0.279
	c-0.045-0.079-0.092-0.158-0.137-0.24c-0.037-0.069-0.074-0.144-0.111-0.214c-0.077-0.147-0.151-0.301-0.225-0.457
	c-0.019-0.042-0.037-0.084-0.057-0.127c-0.098-0.221-0.189-0.447-0.277-0.685c-0.514-1.385-0.854-3.036-1.008-4.972
	c-0.102,1.823-0.48,3.596-1.26,5.25c-0.795,1.555-2.355,3.176-3.854,4.451c0.719,0.255,1.424,0.24,2.084,0.062
	c0.016-0.016,0.029-0.044,0.045-0.075c0.016,0.015,0.016,0.045,0.03,0.06c0.239-0.074,0.479-0.165,0.72-0.271
	c-0.181,0.42-0.359,0.84-0.556,1.26c0.156-0.046,0.354-0.117,0.567-0.208c-1.168,2.428-2.866,4.712-5.245,6.761
	c-0.005,0.003-0.007,0.009-0.009,0.013c-0.053,0.046-0.104,0.092-0.157,0.139c0.06,0.02,0.116,0.037,0.175,0.056
	c0.002,0.001,0.004,0.003,0.007,0.003c0.021,0.009,0.041,0.014,0.063,0.021c0.055,0.017,0.111,0.033,0.166,0.049
	c0.07,0.021,0.141,0.037,0.211,0.054c0.029,0.008,0.059,0.016,0.088,0.021c0.602,0.132,1.201,0.156,1.781,0.098
	c0.011-0.002,0.022-0.006,0.035-0.01c0.063-0.006,0.127-0.012,0.188-0.021c-0.584,0.631-1.215,1.244-1.903,1.831
	c0.926,0.327,1.821,0.358,2.688,0.195c-1.48,2.483-3.42,4.826-5.902,6.984c-0.088,0.075-0.174,0.149-0.264,0.228
	c0.029,0.011,0.061,0.021,0.09,0.03c0.045,0.014,0.09,0.045,0.135,0.074c1.049,0.329,2.1,0.42,3.104,0.313
	c0.244-0.017,0.533-0.06,0.839-0.123c0.231-0.046,0.463-0.099,0.69-0.161c-1.529,2.22-3.418,4.333-5.728,6.298
	c0.614,0.225,1.244,0.345,1.874,0.375c-1.215,1.153-2.563,2.249-4.063,3.313c0.012,0.003,0.023,0.005,0.037,0.01
	c-0.004,0.002-0.007,0.004-0.008,0.005c-0.061,0.03,0.12,0.062,0.18,0.091c1.381,0.436,2.76,0.54,4.094,0.42
	c0.203-0.043,0.398-0.086,0.59-0.135c0.004,0,0.008-0.001,0.01-0.001c-1.92,3.314-4.469,6.673-8.727,8.728
	c1.137,0.349,2.151,0.537,3.158,0.6c-0.742,0.521-1.509,1-2.305,1.439c1.096,0.574,2.821,1.035,4.568,1.125
	c-1.786,1.749-3.795,3.437-6.084,5.053c0.517,0.163,1.757,0.276,2.41,0.375c-1.842,1.562-3.832,2.904-5.979,4.034
	c1.33,0.674,2.912,1.224,4.479,1.388c-1.639,1.454-3.405,2.853-5.334,4.22c0.705,0.211,1.426,0.374,2.129,0.495
	c-0.719,0.646-1.483,1.274-2.264,1.904c0.564,0.201,1.156,0.315,1.766,0.364c-1.137,0.761-2.319,1.461-3.549,2.095
	c2.863,0.69,5.441,1.155,9.102-1.289c0.285,1.529,0.495,2.521,0.045,3.584c2.046-0.28,3.083-1.153,4.219-2.7
	c0.33-0.164,0.666-0.331,0.996-0.497c0.271,1.414,0.215,3.51-0.027,4.666c1.207,0.351,3.869-1.142,5.869-2.741
	c1.205-0.146,2.51-0.644,3.653-1.192c1.95,2.083,5.708,4.355,8.291,4.625c-0.446-0.671-0.717-1.69-0.885-2.747
	c0.364,0.145,0.651,0.193,0.81,0.093c-0.078-0.772-0.023-1.647,0.114-2.448c1.571,1.234,3.854,2.894,5.522,3.169
	c-0.562-0.902-0.598-2.982-0.305-3.974c0.715,0.256,1.424,0.524,2.156,0.763c2.525,1.421,5.625,1.405,7.579,0.826
	c0.104-0.045,0.405-0.09,0.315-0.148C185.39,77.149,185.195,77.022,185.003,76.896z" class="color c1"/>
  <path fill="#2A1912" d="M52.49,56.749c2.916-2.299,5.037-4.597,7.423-8.044c2.121-3.83,3.182-10.725,5.302-13.789
	c1.855-2.298,8.483-8.81,10.869-8.428c2.386,0.768,4.241,0.384,6.627,2.299c2.121,1.916,2.651,4.979,5.832,5.746
	c1.325-0.384,6.098-8.427,6.893-10.725c0.795-2.3,4.507-14.938,4.772-15.322c1.856-3.446,5.567-6.896,8.218-8.426
	c1.061-0.385,2.651,1.147,3.447,1.915c1.59,1.53,3.445,3.063,5.301,4.213c3.183,1.915,6.894,6.512,9.545,9.959
	c2.916,3.831,5.566,7.661,8.218,11.491c2.121,1.531,14.05-3.447,16.437-0.384c4.506,6.128,6.361,8.427,9.81,15.704
	c0.795,1.531,6.36,9.192,6.892,10.342c0.53,1.532,1.325,3.447,1.856,4.979c1.062-3.063,2.386-5.745,4.241-8.043
	c1.061-2.298,1.591-8.044,4.507-7.661c0.795,0.384,5.036,2.682,5.565,3.448c2.918,1.915,4.508,4.596,6.363,8.426
	c0.795,1.532,4.242,9.959,5.037,10.726c3.445,3.447,7.158,4.979,10.604,8.043c3.183,2.683,5.037,5.746,8.748,8.429
	c2.121,1.53,4.508,3.063,6.629,4.213H0c6.097-4.213,9.013-9.193,12.459-11.491c3.447-2.298,12.46-13.405,15.906-16.088
	c2.651-2.681,9.809-5.745,11.665-8.426c2.121-2.298,3.976-7.661,5.832-6.514C46.922,43.726,51.429,54.834,52.49,56.749z" class="color c1"/>
  <g>
    <path fill="#8BA340" d="M29.691,58.664c-0.265,1.148-0.265,1.915,0.53,1.915c6.627-0.384-9.809,9.192-3.182,9.959
		c1.326,0-3.446,6.128,9.543-4.214c3.977-3.064-2.916,3.831,1.061,3.831c2.916,0,2.121-0.767,2.651,1.147
		c6.362,3.064,5.302-7.66,6.627-12.257c-1.06-2.298-1.325,0.384-1.06-6.129c0-0.383-0.795-6.129-0.795-8.043
		c-1.061,0.383-2.651,3.83-4.507,6.128C39.5,52.918,32.607,56.365,29.691,58.664z" class="color c2"/>
    <path fill="#8BA340" d="M65.215,37.98c2.121,0,3.977,0,2.121,3.063c-1.061,2.297,3.446,3.064-3.181,14.556
		c-13.785,22.599,3.711,0-2.121,12.641c0,0.383,2.386,2.681,5.302-4.98c0.795-2.297,8.218-8.426,5.037-1.531
		c-0.265,0.384,4.772,2.682,6.627-2.682c1.591-4.213,2.386,1.916,2.121-9.191c-0.265-5.363,2.651,0-0.265-6.896
		c-3.181-6.896,0.796-5.362-1.59-14.173c-1.326-0.383-2.651-0.383-3.446-0.766c-1.856-0.383-8.483,6.128-9.809,8.043
		C65.745,36.448,65.479,37.214,65.215,37.98z" class="color c2"/>
    <path fill="#8BA340" d="M99.943,20.743c1.061,3.831-5.302,9.193-0.795,8.812c2.65-0.384-6.363,10.725-3.712,10.725
		c4.507,0-10.339,12.64-1.855,8.427c2.121-1.147,1.325,4.597,11.93-6.895c3.446-4.214,1.855,1.148,2.386,1.915
		c2.386,3.831-8.483,6.512-1.061,6.512c0,4.979-6.097,7.661,0.265,3.448c1.326-0.769,11.93-11.875,8.218-2.684
		c0.267,1.149,8.483-0.766,2.916-7.661c-2.386-3.445,0.531-7.276-0.528-10.724c-0.797-2.682,0.795-3.447-1.592-7.278
		c-1.855-3.063,1.061-7.276-2.121-12.257c-0.529-1.148-2.121-6.128-2.65-9.576c-1.325-1.148-2.121-2.298-2.386-1.915
		c-1.591,0.767-5.567,3.83-7.953,7.661C99.678,11.551,99.413,18.063,99.943,20.743z" class="color c2"/>
    <path fill="#8BA340" d="M136.262,29.171c0.53,3.83,1.854-2.683,1.325,5.362c-0.266,0.383,1.324,3.447,2.65,3.447
		c4.771,0-1.326,0,4.771,4.979c1.854,1.149,4.771,4.979,6.098,0.382c0.266-1.147-1.326,0.385-0.529-5.36
		c0.529-1.532,1.061-8.428,0-9.576C149.251,26.488,140.238,29.554,136.262,29.171z" class="color c2"/>
    <path fill="#8BA340" d="M170.46,60.579c0.265,0.384,0.529,0.766,1.06,0.766c2.388,0-1.59,3.064-1.325,5.363
		c0,4.597-11.665,18.002-0.796,6.511c0,0,6.099-5.361,4.509-0.766c0.264,1.149,6.098-3.83,6.098-6.512
		c0-1.915,5.035-7.661,1.854-9.959c-0.53-0.383-0.53-8.811-2.121-9.958c0-0.384-1.061-1.533-1.061-1.915
		c-2.121-0.384-2.916,6.511-3.712,7.276C171.52,55.217,170.99,59.047,170.46,60.579z" class="color c2"/>
  </g>
</svg>