<svg version="1.1" id="图层_1" x="0px" y="0px" width="269.77px" height="269.768px" viewBox="0 0 269.77 269.768" enable-background="new 0 0 269.77 269.768" xml:space="preserve" xmlns="http://www.w3.org/2000/svg" xmlns:xlink="http://www.w3.org/1999/xlink" xmlns:xml="http://www.w3.org/XML/1998/namespace">
  <path fill="#87AFBD" d="M263.508,112.832c-5.106-30-20.745-57.455-44.035-77.305c-23.554-20.076-53.595-31.132-84.588-31.132
	c-30.994,0-61.035,11.056-84.589,31.132C27.005,55.378,11.366,82.832,6.26,112.832L6.061,114h257.646L263.508,112.832z" class="color c1"/>
  <path fill="#BABABA" d="M51.611,129.326c1.365-0.072,2.742-0.119,4.134-0.154c0.274-0.006,0.551-0.012,0.826-0.019
	c1.406-0.028,2.824-0.043,4.254-0.032c0.002,0,0.006,0,0.008,0c10.618,0.063,21.769,1.123,32.32,2.93
	c4.796-2.605,9.783-5.014,15.114-7.035c15.871-6.234,35.404,4.453,53.713,0c26.861-5.346,50.057-16.034,76.911-19.598
	c7.928-0.912,15.997-1.291,24.062-1.158c-0.571-2.383-1.21-4.741-1.91-7.071c-2.774-0.716-5.563-1.409-8.409-2.048
	c-12.5-2.521-23.955-9.081-35.414-6.559c-20.829,5.045-39.577,15.643-62.491,16.649c-17.708,1.011-31.248-8.575-46.87-13.621
	c-2.085-0.506-4.166,0-6.249,0c-11.461,2.017-16.665,10.091-28.123,6.558c-22.845-7.216-31.492-19.48-53.931-27.166
	C11.073,86.19,5.502,103.223,3.611,121.354C19.592,124.986,35.251,129.806,51.611,129.326z" class="color c2"/>
  <path fill="#969799" d="M264.599,107.818c-0.478-2.635-1.032-5.24-1.654-7.821c-8.552-0.142-17.109,0.262-25.52,1.229
	c-28.486,3.777-53.089,15.115-81.579,20.785c-19.421,4.724-40.139-6.613-56.974,0c-5.654,2.146-10.944,4.698-16.031,7.463
	c2.658,0.455,5.293,0.941,7.864,1.483c7.593,2.179,15.221,4.222,22.875,6.12c49.519,12.282,100.262,18.537,151.723,16.403
	c1-6.744,1.523-13.647,1.523-20.672C266.826,124.279,266.061,115.928,264.599,107.818z" class="color c3"/>
  <path fill="#6B6C6E" d="M122.144,137.109c-7.298-1.811-14.573-3.758-21.813-5.836c-2.452-0.518-4.966-0.98-7.5-1.414
	c-10.674-1.827-21.952-2.9-32.692-2.965c-0.002,0-0.006,0-0.008,0c-1.444-0.01-2.879,0.005-4.301,0.033
	c-0.28,0.006-0.561,0.012-0.838,0.021c-1.406,0.034-2.801,0.081-4.181,0.153c-16.549,0.486-32.387-4.389-48.551-8.063
	c-0.479,4.601-0.73,9.271-0.73,14c0,3.787,0.167,7.537,0.478,11.246c0.548,6.573,1.573,13.016,3.04,19.284
	c4.542,19.396,13.314,37.157,25.296,52.267h209.125c14.171-17.875,23.857-39.472,27.357-63.083
	C217.752,154.785,169.365,148.823,122.144,137.109z" class="color c4"/>
  <path fill="#2A1E22" d="M134.885,0C60.391,0,0,60.391,0,134.884c0,74.494,60.391,134.884,134.885,134.884
	s134.885-60.39,134.885-134.884C269.77,60.391,209.379,0,134.885,0z M134.885,5.395c71.516,0,129.488,57.975,129.488,129.489
	c0,30.135-10.294,57.864-27.558,79.866H32.952c-17.264-22.002-27.559-49.731-27.559-79.866C5.395,63.368,63.369,5.395,134.885,5.395
	z" class="color c5"/>
</svg>