<svg version="1.1" id="图层_1" x="0px" y="0px" width="170px" height="166.818px" viewBox="0 0 170 166.818" enable-background="new 0 0 170 166.818" xml:space="preserve" xmlns="http://www.w3.org/2000/svg" xmlns:xlink="http://www.w3.org/1999/xlink" xmlns:xml="http://www.w3.org/XML/1998/namespace">
  <path fill="#D16306" d="M170,76.29C132.44,64.363,106.056,31.688,85,0C63.945,31.688,37.56,64.363,0,76.29
	c0,0,8.347,74.488,0,90.528c22.957,0,35.793-1.659,43.975-3.909c-0.116,0,0.027-0.044,0.51-0.145
	c1.203-0.342,2.303-0.697,3.318-1.063c0.334-0.142,0.66-0.287,0.97-0.436c1.501-0.815,2.968-1.678,4.376-2.619
	c-0.936-0.076-1.846-0.251-2.712-0.56c1.198-0.969,2.372-1.936,3.478-2.927c-1.082-0.185-2.188-0.438-3.271-0.76
	c2.961-2.102,5.677-4.249,8.193-6.482c-2.404-0.252-4.835-1.096-6.879-2.132c3.296-1.735,6.355-3.801,9.183-6.197
	c-1.003-0.151-2.907-0.325-3.701-0.576c3.517-2.481,6.603-5.074,9.347-7.762c-2.685-0.139-5.336-0.846-7.02-1.728
	c1.222-0.675,2.4-1.414,3.54-2.213c-1.546-0.095-3.106-0.385-4.854-0.92c6.542-3.156,10.458-8.314,13.407-13.405
	c-0.004,0-0.01,0.001-0.016,0.001c-0.293,0.073-0.594,0.141-0.905,0.205c-2.051,0.185-4.169,0.024-6.289-0.644
	c-0.091-0.048-0.367-0.093-0.275-0.139c0.003-0.002,0.007-0.005,0.011-0.009c-0.02-0.006-0.039-0.01-0.058-0.016
	c2.304-1.636,4.376-3.317,6.242-5.091c-0.968-0.046-1.935-0.23-2.88-0.575c3.547-3.019,6.449-6.265,8.799-9.675
	c-0.35,0.098-0.704,0.179-1.063,0.247c-0.47,0.1-0.911,0.165-1.287,0.191c-1.543,0.16-3.156,0.022-4.768-0.484
	c-0.07-0.045-0.137-0.092-0.206-0.114c-0.046-0.016-0.093-0.029-0.14-0.046c0.139-0.117,0.271-0.234,0.406-0.351
	c3.814-3.314,6.793-6.914,9.068-10.727c-1.331,0.249-2.708,0.2-4.13-0.303c1.06-0.9,2.028-1.845,2.927-2.812
	c-0.098,0.014-0.195,0.021-0.293,0.032c-0.018,0.005-0.037,0.011-0.054,0.015c-0.892,0.089-1.811,0.052-2.735-0.149
	c-0.045-0.01-0.09-0.021-0.135-0.032c-0.107-0.025-0.217-0.052-0.324-0.082c-0.085-0.024-0.171-0.05-0.256-0.076
	c-0.031-0.011-0.065-0.019-0.097-0.028c-0.004-0.002-0.007-0.005-0.01-0.007c-0.089-0.026-0.179-0.053-0.268-0.085
	c0.083-0.07,0.162-0.143,0.242-0.213c0.003-0.007,0.007-0.013,0.011-0.019c3.656-3.146,6.266-6.656,8.059-10.385
	c-0.326,0.14-0.633,0.249-0.871,0.32c0.3-0.646,0.575-1.291,0.853-1.937c-0.368,0.162-0.737,0.3-1.106,0.416
	c-0.023-0.022-0.023-0.069-0.046-0.092c-0.022,0.047-0.046,0.093-0.069,0.115c-1.014,0.275-2.098,0.299-3.202-0.093
	c2.302-1.96,4.698-4.451,5.92-6.838c1.196-2.541,1.778-5.266,1.936-8.065c0.239,2.973,0.76,5.51,1.548,7.637
	c0.134,0.363,0.277,0.713,0.428,1.052c0.027,0.065,0.057,0.13,0.086,0.194c0.109,0.241,0.226,0.475,0.343,0.703
	c0.058,0.108,0.115,0.22,0.173,0.328c0.068,0.125,0.14,0.247,0.211,0.369c0.086,0.146,0.174,0.289,0.263,0.429
	c0.077,0.12,0.153,0.238,0.233,0.354c0.106,0.154,0.213,0.308,0.324,0.454c0.051,0.068,0.101,0.136,0.152,0.202
	c0.152,0.193,0.309,0.381,0.469,0.561c0.04,0.047,0.083,0.092,0.125,0.138c0.177,0.191,0.355,0.379,0.541,0.556
	c0.002,0.002,0.004,0.004,0.007,0.007c0.194,0.181,0.394,0.354,0.599,0.521c0.028,0.022,0.056,0.046,0.086,0.069
	c0.2,0.16,0.408,0.313,0.621,0.459c0.031,0.022,0.064,0.044,0.097,0.065c0.219,0.146,0.443,0.286,0.673,0.416
	c-1.729,0.944-2.603,1.036-3.985,0.184c0.323,0.921,0.646,1.819,1.013,2.672c0.025,0.022,0.025,0.045,0.047,0.092
	c-0.176-0.024-0.354-0.07-0.531-0.138c1.065,2.317,2.353,4.291,3.859,5.929c0.014,0.016,0.028,0.032,0.043,0.048
	c0.192,0.207,0.389,0.409,0.588,0.605c0.033,0.031,0.064,0.064,0.098,0.097c0.184,0.179,0.371,0.352,0.561,0.521
	c0.046,0.041,0.093,0.083,0.139,0.124c0.181,0.158,0.363,0.311,0.549,0.461c0.056,0.045,0.11,0.091,0.166,0.135
	c0.184,0.145,0.369,0.282,0.557,0.419c0.06,0.043,0.117,0.088,0.177,0.131c0.197,0.139,0.396,0.271,0.598,0.401
	c0.053,0.036,0.104,0.072,0.159,0.105c0.256,0.163,0.515,0.319,0.778,0.468c-1.566,0.852-3.063,1.014-4.491,0.76
	c-0.02-0.007-0.037-0.015-0.057-0.021c-0.004-0.002-0.008-0.002-0.012-0.003c1.014,0.989,2.095,1.796,3.293,2.486
	c-1.705,0.921-3.363,0.944-4.883,0.461c2.604,4.906,6.035,8.522,10.273,10.918c-0.011,0.007-0.022,0.011-0.033,0.018
	c0.004,0.003,0.007,0.005,0.011,0.007c-0.159,0.087-0.334,0.172-0.521,0.253c-1.447,0.686-2.865,0.938-4.234,0.883
	c-1.33,0.025-2.646-0.193-3.649-0.783c2.618,4.132,5.895,7.285,9.786,9.482c-0.866,0.476-1.744,0.796-2.609,0.985
	c1.965,1.847,4.115,3.418,6.456,4.706c-2.136,1.123-6.208,1.906-9.306,1.122c4.199,5.636,9.455,9.911,15.732,12.883
	c-1.429,0.646-2.908,1.057-4.404,1.274c0.835,0.636,1.697,1.257,2.585,1.858c0.093,0.069-0.229,0.115-0.323,0.185
	c-2.621,0.805-5.199,1.014-7.684,0.783c-0.278,0.067-0.557,0.124-0.837,0.17c0.967,1.28,2.007,2.532,3.117,3.758
	c2.327,1.773,4.843,3.3,7.545,4.572c-0.669,0.316-1.349,0.573-2.04,0.78c2.465,2.125,5.153,4.137,8.053,6.016
	c0.115,0.094-0.299,0.162-0.438,0.23c-1.686,0.502-3.367,0.817-5.027,0.971c-1.301,0.385-2.605,0.746-3.908,1.081
	c3.109,2.465,6.518,4.56,10.18,6.287c-1.565,0.738-3.225,1.222-4.883,1.497c3.432,2.604,3.984,2.765,7.97,4.631
	c-0.629,0.23-1.228,0.414-1.813,0.582c7.722,3.137,20.572,5.772,49.509,5.772C161.652,150.778,170,76.29,170,76.29z" class="color c1"/>
</svg>