<svg version="1.1" id="图层_1" x="0px" y="0px" width="206.555px" height="196.037px" viewBox="0 0 206.555 196.037" enable-background="new 0 0 206.555 196.037" xml:space="preserve" xmlns:xml="http://www.w3.org/XML/1998/namespace" xmlns="http://www.w3.org/2000/svg" xmlns:xlink="http://www.w3.org/1999/xlink">
  <circle fill="#F2800E" cx="115.875" cy="18.069" r="18.069" class="color c1"/>
  <path fill="#161616" d="M49.773,33.154c0,0,2.354-0.506,4.326-0.128c1.976,0.376,4.033,2.015,6.26,2.144
	c2.228,0.124,1.765-0.715,1.765-0.715s-1.431,0.209-1.81-1.007c-0.375-1.218,1.179-2.186,3.57-3.863
	c2.396-1.68,2.859-3.361,2.396-4.413c0,0-0.422,0.673-2.396,1.724c-1.973,1.051-3.4,2.983-4.953,4.367
	c-1.555,1.388-1.641,1.469-3.109,1.176C54.354,32.146,51.203,31.683,49.773,33.154z" class="color c2"/>
  <path fill="#161616" d="M70.379,31.467c0,0,2.352-0.505,4.324-0.127c1.975,0.376,4.032,2.015,6.26,2.143
	c2.227,0.125,1.764-0.715,1.764-0.715s-1.43,0.209-1.809-1.007c-0.375-1.218,1.178-2.186,3.569-3.863
	c2.396-1.68,2.859-3.361,2.396-4.413c0,0-0.422,0.673-2.396,1.724c-1.973,1.051-3.399,2.983-4.952,4.367
	c-1.556,1.388-1.642,1.469-3.109,1.176S71.807,29.996,70.379,31.467z" class="color c2"/>
  <path fill="#161616" d="M145.76,28.148c0,0,2.352-0.506,4.324-0.128c1.975,0.376,4.033,2.016,6.26,2.144
	c2.227,0.124,1.764-0.716,1.764-0.716s-1.43,0.21-1.809-1.007c-0.375-1.219,1.178-2.187,3.57-3.864
	c2.396-1.68,2.858-3.361,2.396-4.413c0,0-0.422,0.673-2.396,1.724c-1.974,1.051-3.4,2.983-4.953,4.367
	c-1.556,1.388-1.642,1.47-3.109,1.176C150.338,27.138,147.188,26.677,145.76,28.148z" class="color c2"/>
  <path fill="#161616" d="M38.354,16.691c0,0,2.354-0.505,4.326-0.127c1.975,0.376,4.033,2.015,6.26,2.143
	c2.228,0.125,1.765-0.715,1.765-0.715s-1.431,0.21-1.81-1.007c-0.375-1.218,1.179-2.186,3.57-3.863
	c2.396-1.681,2.856-3.361,2.396-4.413c0,0-0.422,0.673-2.396,1.724c-1.973,1.051-3.4,2.982-4.953,4.367
	c-1.555,1.388-1.641,1.469-3.109,1.176C42.932,15.681,39.783,15.22,38.354,16.691z" class="color c2"/>
  <path fill="#161616" d="M160.879,96.096V61.367l-29.676-25.598L96.801,65.116l-0.326-0.162l-1.143-0.652l35.871-30.653
	l29.676,25.599l1.631,1.467l2.445,2.119l4.237-4.892l-36.686-31.63l-1.305-1.142l-1.304,1.142l-40.76,34.891l-9.621-5.216
	l-11.25,6.033v-7.827h-8.151v12.229l-15.49,8.315l2.283,4.402l4.237-2.283l1.631-0.814l26.578-14.349l32.281,17.446l0,0l0.816,0.489
	l-0.979,1.631L79.191,63.813L52.615,78.161v18.424h-0.816v-7.5H41.691l-1.795,1.793l-1.631,1.63l-0.979,0.978l-0.814,0.815
	l-0.65,0.652v2.283l0.65-0.652v6.521h-2.283v7.826h135.492V96.585h-8.803L160.879,96.096L160.879,96.096z M40.223,99.356h-0.813
	v3.262H38.43v-8.152l0.162-0.164l1.631-1.63V99.356z M43.811,99.356h-1.793v-8.314l0.814-0.815h0.979V99.356z M47.396,96.096h-1.793
	v-5.87h1.793V96.096z M50.658,96.096h-1.793v-5.87h1.793V96.096z M81.637,81.259h6.195v12.065h-6.195V81.259z M78.377,93.324H72.18
	V81.259h6.197V93.324z M65.008,81.259h3.748v12.065h-3.748V81.259z M94.844,93.324h-3.75V81.259h3.75V93.324z M140.334,67.563
	h-6.849v-6.196h6.849V67.563z M140.334,58.106h-6.849V51.91h6.849V58.106z M129.9,51.91v6.196h-6.358V51.91H129.9z M123.703,61.367
	h6.358v6.196h-6.358V61.367z M133.977,77.346V97.89h-6.194V77.346H133.977z M137.236,77.346h6.197V97.89h-6.197V77.346z
	 M117.508,77.346h7.012V97.89h-7.012V77.346z M153.541,97.726h-6.849V77.182h6.849V97.726z M191.068,104.962
	c0,0,0.029-0.254,0.084-0.732c0.064-0.539,0.138-1.262,0.218-2.14c0.159-1.778,0.354-4.274,0.479-7.239
	c0.074-1.485,0.119-3.084,0.15-4.771c0.051-1.686,0.018-3.454,0.028-5.278c-0.053-1.818-0.059-3.698-0.159-5.585
	c-0.099-1.888-0.175-3.804-0.354-5.691l-0.229-2.829c-0.105-0.927-0.214-1.853-0.318-2.768c-0.189-1.838-0.459-3.606-0.736-5.307
	c-0.239-1.714-0.559-3.323-0.875-4.836c-0.293-1.524-0.592-2.945-0.94-4.21c-0.328-1.271-0.629-2.436-0.894-3.468
	c-0.313-0.989-0.588-1.854-0.813-2.566c-0.449-1.414-0.703-2.222-0.703-2.222c-0.152-0.472-0.533-0.61-0.855-0.308
	c-0.293,0.273-0.434,0.814-0.348,1.264l0.014,0.074c0,0,0.162,0.855,0.447,2.354c0.141,0.745,0.313,1.648,0.51,2.687
	c0.148,1.066,0.314,2.269,0.498,3.581c0.201,1.294,0.342,2.74,0.467,4.277c0.146,1.526,0.289,3.131,0.347,4.834
	c0.092,1.685,0.174,3.424,0.172,5.222c0.01,0.892,0.021,1.79,0.031,2.69l-0.058,2.734c-0.014,1.813-0.125,3.648-0.213,5.441
	c-0.08,1.791-0.254,3.567-0.371,5.268c-0.182,1.711-0.313,3.354-0.514,4.913c-0.187,1.558-0.369,3.024-0.57,4.372
	c-0.381,2.698-0.774,4.915-1.061,6.428c-0.146,0.768-0.263,1.337-0.338,1.676c-0.086,0.4-0.134,0.613-0.134,0.613l-0.014,0.063
	c-0.672,3.125,0.33,6.188,2.234,6.837c1.905,0.651,3.996-1.354,4.668-4.479C190.982,105.571,191.033,105.249,191.068,104.962z
	 M186.75,46.228c-0.01,0.008,0.11-0.061,0.199-0.073c0.082-0.023,0.291-0.069,0.53-0.155c0.506-0.142,1.234-0.339,2.127-0.486
	c0.449-0.044,0.931-0.136,1.449-0.149c0.517-0.047,1.062-0.021,1.631-0.009c0.57-0.003,1.158,0.131,1.767,0.184
	c0.596,0.164,1.229,0.185,1.838,0.414c0.619,0.184,1.254,0.332,1.856,0.596c0.603,0.25,1.248,0.416,1.812,0.73
	c0.567,0.299,1.176,0.506,1.707,0.799c0.521,0.301,1.043,0.566,1.526,0.814c0.978,0.489,1.738,1.009,2.336,1.305
	c0.584,0.314,0.941,0.483,0.941,0.483s-0.166-0.34-0.494-0.921c-0.348-0.56-0.781-1.439-1.522-2.313
	c-0.711-0.908-1.607-1.934-2.763-2.865c-0.543-0.501-1.188-0.937-1.854-1.364c-0.646-0.467-1.398-0.792-2.142-1.149
	c-0.731-0.379-1.563-0.563-2.344-0.821c-0.811-0.175-1.623-0.327-2.422-0.374c-0.801-0.069-1.578-0.047-2.313,0.045
	c-0.736,0.038-1.421,0.239-2.039,0.39c-1.242,0.349-2.201,0.866-2.845,1.268c-0.323,0.209-0.559,0.392-0.764,0.553
	c-0.207,0.16-0.229,0.202-0.24,0.208l-0.248,0.338c-0.565,0.774-0.391,1.86,0.396,2.428
	C185.443,46.512,186.176,46.537,186.75,46.228z M183.047,44.416c-0.008,0.005-0.078,0.001-0.293,0.056
	c-0.215,0.055-0.508,0.124-0.846,0.24c-0.693,0.229-1.662,0.604-2.716,1.25c-0.541,0.305-1.09,0.689-1.647,1.127
	c-0.551,0.444-1.125,0.936-1.66,1.5c-0.521,0.578-1.07,1.17-1.514,1.864c-0.496,0.655-0.884,1.395-1.256,2.137
	c-0.404,0.726-0.619,1.54-0.9,2.297c-0.244,0.771-0.353,1.569-0.502,2.312c-0.105,0.755-0.088,1.499-0.117,2.185
	c-0.057,0.684,0.098,1.338,0.154,1.927c0.1,1.182,0.461,2.126,0.668,2.776c0.223,0.65,0.373,1.007,0.373,1.007
	s0.117-0.388,0.274-1.041c0.076-0.327,0.177-0.718,0.261-1.16c0.063-0.443,0.254-0.932,0.387-1.456
	c0.174-0.521,0.26-1.092,0.49-1.661c0.207-0.56,0.424-1.15,0.649-1.763c0.289-0.58,0.519-1.193,0.822-1.778
	c0.354-0.561,0.584-1.188,0.99-1.718c0.688-1.128,1.518-2.149,2.332-3.081c0.832-0.916,1.668-1.735,2.436-2.4
	c0.762-0.671,1.435-1.205,1.906-1.574c0.479-0.374,0.693-0.549,0.727-0.567c0.654-0.325,0.91-1.114,0.576-1.762
	c-0.235-0.461-0.709-0.727-1.199-0.724L183.047,44.416z M184.662,42.909c-0.011-0.002-0.035-0.068-0.222-0.238
	c-0.188-0.17-0.405-0.381-0.719-0.621c-0.311-0.221-0.688-0.527-1.158-0.767c-0.463-0.276-1.002-0.534-1.617-0.778
	c-0.612-0.215-1.295-0.451-2.032-0.583c-0.738-0.156-1.525-0.255-2.345-0.266c-0.821-0.07-1.653,0.06-2.504,0.126
	c-0.828,0.158-1.682,0.313-2.487,0.573c-0.787,0.309-1.615,0.524-2.324,0.942c-0.717,0.39-1.453,0.727-2.06,1.201
	c-0.618,0.453-1.211,0.893-1.733,1.343c-0.5,0.482-0.947,0.964-1.351,1.407c-0.422,0.419-0.745,0.866-1.016,1.28
	c-0.281,0.395-0.498,0.767-0.682,1.063c-0.357,0.603-0.531,0.968-0.531,0.968s0.414-0.095,1.082-0.293
	c0.682-0.178,1.551-0.561,2.629-0.874c0.535-0.167,1.104-0.344,1.678-0.56c0.592-0.177,1.213-0.338,1.826-0.543
	c0.607-0.231,1.273-0.307,1.898-0.507c0.629-0.202,1.286-0.258,1.918-0.414c0.633-0.143,1.274-0.174,1.889-0.299
	c0.621-0.009,1.229-0.147,1.814-0.132c0.588-0.035,1.155-0.045,1.696-0.028c0.545-0.009,1.054,0.045,1.537,0.063
	c0.961,0.061,1.769,0.179,2.351,0.254c0.272,0.056,0.518,0.072,0.629,0.087c0.121,0,0.25,0.044,0.241,0.039
	c0.785,0.248,1.623-0.183,1.867-0.962c0.117-0.372,0.076-0.758-0.084-1.086L184.662,42.909z M186.258,42.874
	c-0.004,0.01,0.063-0.095,0.145-0.179c0.093-0.104,0.228-0.256,0.398-0.451c0.361-0.413,0.889-1.008,1.559-1.679
	c0.662-0.682,1.488-1.411,2.402-2.152c0.939-0.7,1.951-1.454,3.086-2.016c0.533-0.355,1.141-0.554,1.709-0.838
	c0.582-0.248,1.18-0.444,1.758-0.668c0.586-0.189,1.177-0.321,1.734-0.491c0.557-0.184,1.109-0.221,1.619-0.345
	c0.51-0.084,0.987-0.228,1.414-0.252c0.434-0.056,0.811-0.104,1.121-0.145c0.631-0.092,1.006-0.164,1.006-0.164
	s-0.334-0.152-0.939-0.385c-0.303-0.115-0.674-0.259-1.108-0.401c-0.433-0.171-0.937-0.249-1.49-0.356
	c-0.555-0.085-1.166-0.269-1.818-0.255c-0.649-0.015-1.354-0.088-2.074-0.024c-0.711,0.096-1.481,0.104-2.225,0.293
	c-0.736,0.205-1.523,0.331-2.248,0.637c-0.734,0.28-1.461,0.587-2.137,0.968c-0.707,0.332-1.308,0.803-1.92,1.212
	c-1.174,0.885-2.17,1.836-2.89,2.758c-0.75,0.896-1.241,1.743-1.563,2.355c-0.16,0.298-0.271,0.565-0.357,0.762
	c-0.088,0.198-0.098,0.254-0.104,0.262l-0.063,0.259c-0.213,0.877,0.334,1.763,1.222,1.98
	C185.188,43.728,185.889,43.432,186.258,42.874z M17.82,104.795c0,0-0.028-0.254-0.084-0.731c-0.063-0.539-0.139-1.263-0.217-2.14
	c-0.162-1.778-0.354-4.275-0.479-7.24c-0.076-1.485-0.119-3.084-0.152-4.771c-0.051-1.687-0.018-3.455-0.027-5.278
	c0.054-1.818,0.058-3.698,0.158-5.585c0.101-1.888,0.176-3.804,0.354-5.691l0.229-2.83c0.107-0.926,0.215-1.852,0.318-2.767
	c0.188-1.839,0.461-3.605,0.735-5.307c0.24-1.713,0.562-3.323,0.875-4.836c0.296-1.524,0.595-2.945,0.941-4.209
	c0.33-1.271,0.629-2.437,0.896-3.469c0.313-0.989,0.586-1.854,0.811-2.566c0.449-1.413,0.705-2.222,0.705-2.222
	c0.15-0.473,0.533-0.609,0.854-0.308c0.291,0.274,0.435,0.814,0.349,1.264l-0.015,0.074c0,0-0.163,0.855-0.446,2.355
	c-0.144,0.744-0.314,1.648-0.513,2.686c-0.146,1.066-0.313,2.269-0.497,3.581c-0.199,1.294-0.343,2.74-0.468,4.277
	c-0.146,1.526-0.289,3.131-0.344,4.834c-0.092,1.686-0.174,3.424-0.172,5.222c-0.012,0.892-0.021,1.791-0.033,2.691l0.06,2.733
	c0.012,1.813,0.125,3.648,0.211,5.441c0.082,1.791,0.256,3.567,0.373,5.268c0.182,1.711,0.313,3.354,0.514,4.913
	c0.184,1.558,0.367,3.024,0.57,4.372c0.381,2.698,0.772,4.914,1.061,6.427c0.146,0.769,0.262,1.338,0.338,1.677
	c0.086,0.399,0.133,0.612,0.133,0.612l0.015,0.063c0.67,3.125-0.33,6.187-2.236,6.837s-3.996-1.355-4.668-4.48
	C17.906,105.403,17.854,105.083,17.82,104.795z M22.139,46.061c0.008,0.008-0.111-0.061-0.199-0.073
	c-0.082-0.023-0.293-0.069-0.53-0.155c-0.507-0.142-1.234-0.338-2.127-0.486c-0.451-0.043-0.931-0.136-1.449-0.148
	c-0.517-0.048-1.063-0.02-1.633-0.009c-0.568-0.004-1.158,0.131-1.765,0.183c-0.596,0.164-1.231,0.185-1.84,0.414
	c-0.617,0.183-1.252,0.332-1.854,0.596c-0.604,0.25-1.248,0.417-1.813,0.73c-0.566,0.299-1.176,0.507-1.705,0.799
	C6.7,48.213,6.18,48.478,5.694,48.726c-0.977,0.489-1.735,1.009-2.336,1.305c-0.584,0.313-0.94,0.483-0.94,0.483
	s0.166-0.34,0.496-0.92c0.348-0.56,0.78-1.438,1.522-2.313c0.711-0.908,1.605-1.934,2.76-2.864c0.546-0.501,1.189-0.937,1.855-1.364
	c0.646-0.466,1.4-0.792,2.143-1.149c0.73-0.378,1.563-0.563,2.345-0.821c0.811-0.175,1.623-0.328,2.42-0.375
	c0.801-0.069,1.58-0.046,2.313,0.045c0.736,0.039,1.418,0.239,2.039,0.389c1.242,0.35,2.199,0.865,2.844,1.268
	c0.324,0.209,0.558,0.393,0.763,0.554c0.207,0.159,0.229,0.201,0.242,0.207l0.248,0.338c0.565,0.774,0.391,1.861-0.396,2.428
	C23.445,46.345,22.713,46.37,22.139,46.061z M25.842,44.25c0.008,0.005,0.078,0,0.291,0.056c0.215,0.054,0.51,0.123,0.848,0.239
	c0.691,0.229,1.66,0.604,2.713,1.25c0.541,0.305,1.091,0.689,1.648,1.128c0.553,0.444,1.127,0.935,1.662,1.499
	c0.52,0.578,1.07,1.171,1.514,1.864c0.494,0.656,0.883,1.395,1.256,2.137c0.402,0.726,0.619,1.54,0.898,2.297
	c0.244,0.771,0.354,1.568,0.502,2.313c0.106,0.755,0.09,1.499,0.119,2.186c0.055,0.683-0.101,1.337-0.154,1.926
	c-0.1,1.182-0.463,2.126-0.668,2.776c-0.223,0.65-0.375,1.008-0.375,1.008s-0.115-0.388-0.275-1.041
	c-0.075-0.328-0.176-0.719-0.258-1.161c-0.063-0.443-0.254-0.931-0.389-1.456c-0.174-0.521-0.26-1.092-0.488-1.66
	c-0.207-0.561-0.426-1.151-0.651-1.764c-0.289-0.58-0.519-1.193-0.82-1.778c-0.357-0.561-0.584-1.188-0.992-1.717
	c-0.688-1.127-1.516-2.15-2.332-3.08c-0.83-0.917-1.666-1.736-2.434-2.401c-0.763-0.672-1.437-1.204-1.906-1.574
	c-0.48-0.374-0.693-0.548-0.729-0.566c-0.651-0.325-0.909-1.115-0.573-1.763c0.235-0.461,0.709-0.727,1.198-0.724L25.842,44.25z
	 M24.227,42.741c0.01-0.001,0.033-0.068,0.222-0.238c0.188-0.17,0.405-0.381,0.717-0.62c0.313-0.222,0.688-0.527,1.16-0.768
	c0.461-0.276,1.002-0.534,1.614-0.778c0.615-0.215,1.297-0.451,2.035-0.583c0.736-0.156,1.525-0.254,2.344-0.266
	c0.82-0.07,1.654,0.06,2.505,0.126c0.827,0.158,1.682,0.313,2.485,0.574c0.787,0.308,1.617,0.523,2.324,0.941
	c0.719,0.389,1.453,0.726,2.059,1.201c0.621,0.452,1.211,0.893,1.734,1.343c0.502,0.481,0.947,0.963,1.35,1.406
	c0.423,0.419,0.748,0.866,1.017,1.28c0.283,0.395,0.5,0.767,0.684,1.063c0.357,0.604,0.529,0.969,0.529,0.969
	s-0.414-0.095-1.082-0.293c-0.682-0.179-1.549-0.562-2.629-0.874c-0.535-0.166-1.104-0.344-1.678-0.559
	c-0.591-0.178-1.212-0.339-1.824-0.544c-0.607-0.231-1.273-0.306-1.9-0.507c-0.629-0.202-1.287-0.258-1.918-0.414
	c-0.633-0.143-1.272-0.174-1.889-0.298c-0.619-0.009-1.228-0.147-1.813-0.132c-0.59-0.036-1.155-0.046-1.699-0.028
	c-0.543-0.01-1.053,0.044-1.536,0.062c-0.959,0.062-1.769,0.179-2.349,0.254c-0.272,0.056-0.518,0.073-0.629,0.087
	c-0.121,0-0.252,0.044-0.242,0.039c-0.787,0.248-1.623-0.183-1.866-0.962c-0.119-0.372-0.078-0.758,0.084-1.086L24.227,42.741z
	 M22.629,42.707c0.004,0.01-0.063-0.094-0.146-0.178c-0.092-0.104-0.227-0.257-0.397-0.452c-0.359-0.413-0.887-1.008-1.56-1.679
	c-0.659-0.682-1.487-1.41-2.399-2.151c-0.939-0.701-1.953-1.455-3.086-2.017c-0.535-0.355-1.142-0.553-1.709-0.838
	c-0.584-0.248-1.183-0.444-1.761-0.668c-0.586-0.189-1.174-0.321-1.733-0.491c-0.558-0.184-1.109-0.221-1.617-0.345
	c-0.51-0.083-0.988-0.227-1.416-0.253c-0.434-0.056-0.809-0.104-1.119-0.144c-0.633-0.092-1.006-0.164-1.006-0.164
	s0.332-0.151,0.939-0.385c0.303-0.114,0.674-0.258,1.106-0.401c0.433-0.171,0.938-0.249,1.49-0.356
	c0.557-0.085,1.166-0.269,1.82-0.255c0.647-0.015,1.354-0.087,2.071-0.024c0.711,0.096,1.482,0.104,2.228,0.293
	c0.733,0.206,1.522,0.332,2.248,0.637c0.733,0.28,1.459,0.587,2.135,0.968c0.709,0.332,1.309,0.803,1.92,1.212
	c1.174,0.885,2.172,1.836,2.891,2.759c0.748,0.896,1.242,1.743,1.563,2.354c0.162,0.299,0.271,0.565,0.357,0.763
	c0.088,0.199,0.098,0.254,0.104,0.262l0.063,0.26c0.213,0.877-0.332,1.763-1.22,1.979C23.699,43.561,23,43.265,22.629,42.707z" class="color c2"/>
  <path fill="#1FB3C1" d="M169.17,172.646c-20.736-2.64-41.539-6.029-61.771-8.59c-14.621-1.852-29.489-3.13-44.059-0.894
	c-9.521,1.462-18.715,4.392-27.777,7.707c18.224,15.685,41.937,25.168,67.863,25.168
	C128.361,196.037,151.246,187.265,169.17,172.646z" class="color c3"/>
  <path fill="#1FB3C1" d="M34.532,168.051c8.153-2.981,17.898-6.248,28.353-7.854c5.362-0.822,10.947-1.223,17.074-1.223
	c9.857,0,19.594,1.063,27.815,2.104c10.175,1.288,20.684,2.813,30.846,4.287c10.137,1.471,20.617,2.99,30.929,4.303l3.06,0.391
	c1.168-1.025,2.321-2.067,3.44-3.146c-13.242-0.751-47.252-3.589-79.492-13.817c-18.854-5.982-38.096-11.598-57.858-10.65
	c-8.082,0.388-16.123,1.523-24.097,3.105c5.131,8.521,11.463,16.232,18.738,22.938L34.532,168.051z" class="color c3"/>
  <path fill="#1FB3C1" d="M176.219,163.918l1.488,0.084c5.668-5.772,10.68-12.192,14.887-19.158
	c-8.182-1.646-16.436-2.836-24.732-3.231c-19.764-0.947-39.006,4.668-57.858,10.65c-0.928,0.295-1.832,0.563-2.746,0.844
	C136.057,160.912,164.503,163.254,176.219,163.918z" class="color c3"/>
  <path fill="#1FB3C1" d="M14.018,142.606c8.872-1.76,16.897-2.793,24.536-3.158c1.501-0.072,3.039-0.108,4.57-0.108
	c18.471,0,36.243,5.154,54.34,10.896c1.478,0.47,2.959,0.916,4.442,1.354l2.229-0.665c1.634-0.486,3.285-0.99,4.96-1.521
	c18.096-5.743,35.868-10.897,54.342-10.897c1.53,0,3.067,0.037,4.568,0.108c7.804,0.373,16.04,1.447,25.181,3.287l1.144,0.23
	c1.702-2.982,3.272-6.048,4.678-9.206c-17.127-3.381-34.299-9.759-51.609-8.442c-12.75,0.973-24.881,6.093-37.61,7.328
	c-26.865,2.603-53.636-12.258-80.181-7.379c-7.223,1.328-14.586,4.096-21.893,6.246c1.727,4.146,3.727,8.146,5.953,11.999
	L14.018,142.606z" class="color c3"/>
  <path fill="#1FB3C1" d="M6.866,127.801c2.168-0.638,4.394-1.348,6.546-2.034c5.12-1.633,10.415-3.322,15.649-4.285
	c3.81-0.699,7.709-1.039,11.926-1.039c10.604,0,21.27,2.229,31.582,4.388c10.085,2.108,20.514,4.291,30.639,4.291
	c2.154,0,4.271-0.099,6.288-0.294c5.938-0.576,11.945-2.081,17.758-3.536c6.431-1.61,13.08-3.276,19.915-3.796
	c1.614-0.123,3.286-0.186,4.969-0.186c11.253,0,22.438,2.752,33.254,5.412c4.579,1.127,9.311,2.288,13.934,3.209
	c3.502-8.287,5.979-17.111,7.229-26.326c-15.279,2.977-30.617,7.199-45.986,5.711c-1.692-0.164-3.377-0.397-5.051-0.681
	c-7.947-1.883-15.906-4.048-23.891-5.424c-2.865-0.562-5.752-0.999-8.668-1.222c-1.814-0.139-3.629-0.19-5.441-0.17
	c-1.813-0.021-3.625,0.033-5.438,0.17c-2.916,0.223-5.804,0.66-8.67,1.222c-7.982,1.376-15.943,3.541-23.89,5.424
	c-1.676,0.282-3.358,0.517-5.053,0.683C49.527,111.731,24.672,99.104,0,101.185c1.045,9.321,3.331,18.265,6.672,26.674
	L6.866,127.801z" class="color c3"/>
</svg>