<svg version="1.1" id="图层_1" x="0px" y="0px" width="174.216px" height="174.217px" viewBox="0 0 174.216 174.217" enable-background="new 0 0 174.216 174.217" xml:space="preserve" xmlns="http://www.w3.org/2000/svg" xmlns:xlink="http://www.w3.org/1999/xlink" xmlns:xml="http://www.w3.org/XML/1998/namespace">
  <path fill="#B7D455" d="M87.105,0C39.075,0,0,39.076,0,87.107c0,48.033,39.075,87.109,87.105,87.109
	c48.032,0,87.11-39.076,87.11-87.109C174.216,39.076,135.138,0,87.105,0z M132.682,130.34
	c10.585-10.889,17.244-25.582,17.759-41.807l17.305-2.555l-17.368-2.586c-0.775-15.736-7.305-29.99-17.628-40.604l14.737-14.754
	c14.924,15.251,24.148,36.101,24.148,59.072c0,22.708-9.018,43.337-23.639,58.539L132.682,130.34z M82.521,86.32
	c0-3.18,2.587-5.74,5.763-5.74c3.153,0,5.732,2.561,5.732,5.74c0,3.16-2.579,5.723-5.732,5.723
	C85.107,92.043,82.521,89.48,82.521,86.32z M52.353,97.197c0.856,2.852,2.074,5.529,3.561,8.049l-6.277,2.982
	c-1.783-3.068-3.158-6.381-4.14-9.869L52.353,97.197z M45.275,97.529c-0.479-1.885-0.815-3.836-1.075-5.775l7.183,1.053
	c0.196,1.201,0.427,2.402,0.764,3.535L45.275,97.529z M55.045,93.361l15.313,2.266l-8.532,11.949
	C58.515,103.502,56.158,98.652,55.045,93.361z M56.373,105.994c0.987,1.604,2.142,3.07,3.358,4.484l-4.101,5.766
	c-2.083-2.24-3.976-4.643-5.556-7.273L56.373,105.994z M62.461,113.369c1.969,1.844,4.086,3.49,6.42,4.855l-3.857,5.781
	c-3.018-1.83-5.772-4.027-8.251-6.477L62.461,113.369z M69.603,118.688c2.485,1.41,5.142,2.5,7.93,3.311l-1.774,6.686
	c-3.537-0.992-6.862-2.42-9.972-4.229L69.603,118.688z M78.365,122.195c1.01,0.277,2.047,0.436,3.08,0.635l1.063,7.184
	c-2.012-0.266-3.998-0.6-5.927-1.115L78.365,122.195z M65.358,111.277l12.982-9.451l2.572,17.342
	C74.988,117.947,69.678,115.166,65.358,111.277z M33.435,84.922l42.291-6.256l4.529,3.145v0.1c-0.515,0.924-0.88,1.932-1.048,3.012
	H33.435z M66.137,61.086c4.007-3.393,8.788-5.826,14.052-7.027L77.89,69.498L66.137,61.086z M71.963,77.467L54.957,79.99
	c1.136-5.77,3.799-10.957,7.504-15.248L71.963,77.467z M69.859,54.201l-3.332-6.066c3.014-1.648,6.221-2.949,9.601-3.855l1.214,6.85
	C74.71,51.875,72.209,52.924,69.859,54.201z M69.129,54.654c-2.11,1.236-4.059,2.756-5.875,4.391l-5.8-4.152
	c2.52-2.424,5.304-4.555,8.347-6.326L69.129,54.654z M60.353,61.889c-1.729,1.92-3.343,3.971-4.621,6.207l-5.557-4.188
	c1.698-2.795,3.716-5.338,5.959-7.672L60.353,61.889z M55.277,68.84c-1.316,2.4-2.341,4.977-3.087,7.67l-6.72-1.719
	c0.996-3.592,2.43-7,4.268-10.146L55.277,68.84z M51.967,77.348c-0.274,1.045-0.45,2.111-0.621,3.201l-7.171,1.039
	c0.234-2.031,0.588-4.018,1.069-5.955L51.967,77.348z M78.187,50.906l-1.214-6.855c1.56-0.395,3.194-0.645,4.823-0.844l-1.06,7.131
	C79.867,50.516,79.011,50.676,78.187,50.906z M76.666,42.361l-0.003-0.049l-0.865,0.158l0.032,0.078
	c-7.559,2.066-14.348,6.018-19.82,11.307l-3.516-2.521l2.563,3.449c-6.974,7.156-11.604,16.592-12.686,27.072L31.856,83.41
	C33.403,55.35,55.68,32.773,83.625,30.748l-1.57,10.682C80.226,41.643,78.42,41.912,76.666,42.361z M42.468,91.482
	c0.714,6.432,2.68,12.473,5.799,17.838l0.197,0.418l0.048-0.023c1.721,2.896,3.771,5.549,6.063,7.994l-2.081,2.93l2.862-2.1
	c7.177,7.234,16.743,12.076,27.415,13.229l1.561,10.551c-28.174-1.65-50.769-24.203-52.47-52.395L42.468,91.482z M79.698,99.166
	l0.339-0.639l2.786-4.016l1.227-0.076c0.605,0.303,1.227,0.537,1.887,0.723v46.166L79.698,99.166z M123.282,76.953
	c-0.842-3.057-2.023-5.961-3.562-8.645l6.169-3.176c1.855,3.281,3.244,6.793,4.188,10.512L123.282,76.953z M130.302,76.479
	c0.324,1.318,0.53,2.678,0.699,4.07l-7.207-1.09c-0.115-0.553-0.167-1.117-0.315-1.662L130.302,76.479z M120.117,78.906
	l-15.535-2.295l8.389-11.719C116.399,68.869,118.863,73.645,120.117,78.906z M119.281,67.572c-1.217-2.014-2.67-3.855-4.213-5.598
	l4.116-5.793c2.38,2.512,4.521,5.238,6.254,8.215L119.281,67.572z M112.716,59.555c-1.956-1.83-4.091-3.473-6.408-4.834l3.946-5.705
	c2.925,1.77,5.59,3.895,8.016,6.244L112.716,59.555z M105.561,54.264c-2.354-1.295-4.834-2.348-7.471-3.125l2.315-6.557
	c3.21,0.969,6.236,2.322,9.101,3.984L105.561,54.264z M97.248,50.914c-1.322-0.35-2.69-0.576-4.064-0.799l-1.065-7.133
	c2.552,0.246,5.036,0.686,7.445,1.371L97.248,50.914z M109.89,61.719L96.43,72.082l-2.716-18.393
	C99.879,54.859,105.412,57.693,109.89,61.719z M96.92,102.404l0.2,0.402l12.467,8.92c-3.656,3.172-7.979,5.576-12.74,6.949
	l-0.144,0.041c-0.737,0.203-1.509,0.303-2.275,0.463L96.92,102.404z M104.119,95.379l16.301-2.402
	c-1.093,5.578-3.577,10.654-7.085,14.857L104.119,95.379z M97.32,122.096l1.274,6.854c-1.88,0.465-3.809,0.799-5.774,1.039
	l1.06-7.158C95.049,122.631,96.202,122.408,97.32,122.096z M98.165,121.9c2.825-0.844,5.487-2.033,7.985-3.475l3.052,6.227
	c-3.052,1.746-6.318,3.104-9.766,4.084L98.165,121.9z M106.896,117.979c1.978-1.221,3.813-2.668,5.527-4.234l5.786,4.145
	c-2.482,2.418-5.25,4.553-8.249,6.33L106.896,117.979z M115.405,110.689c1.411-1.607,2.713-3.279,3.808-5.1l5.622,4.074
	c-1.495,2.416-3.276,4.639-5.226,6.705L115.405,110.689z M119.667,104.842c1.57-2.748,2.806-5.699,3.633-8.809l6.6,2.115
	c-1.048,3.83-2.611,7.441-4.595,10.785L119.667,104.842z M123.519,95.184c0.203-0.904,0.338-1.822,0.506-2.748l7.085-1.049
	c-0.214,2.021-0.511,3.992-0.993,5.904L123.519,95.184z M101.926,93.955l-4.509-3.135l-0.169-2.666
	c0.029-0.145,0.093-0.301,0.104-0.449h46.24c0,0.029-0.021,0.063-0.021,0.104L101.926,93.955z M132.784,80.803
	c-1.268-10.084-5.814-19.119-12.566-26.02l1.574-2.211l-2.11,1.621c-7.305-7.211-17.001-11.963-27.828-12.963l-1.55-10.545
	c28.242,1.316,51.049,23.627,53.132,51.686L132.784,80.803z M94.97,74.006l-2.782,4c-1.068-0.512-2.239-0.801-3.489-0.844V31.697
	L94.97,74.006z M92.581,131.721c10.483-1.129,19.941-5.793,27.046-12.82l3.93,2.818l-2.894-3.918
	c6.74-7.111,11.204-16.389,12.24-26.666l10.581-1.58c-1.517,28.35-24.176,51.113-52.473,52.764L92.581,131.721z M146.362,26.902
	l-14.755,14.74c-10.987-10.766-25.884-17.496-42.331-17.916L86.975,8.189l-2.319,15.602c-15.774,0.768-30.063,7.313-40.717,17.639
	l-15.38-15.201C43.761,11.602,64.394,2.58,87.105,2.58C110.169,2.58,131.096,11.875,146.362,26.902z M2.58,87.107
	c0-23.276,9.459-44.385,24.732-59.686l15.412,15.227C32.113,53.52,25.437,68.213,24.892,84.432L9.913,86.666l15.002,2.209
	c0.597,16.041,7.171,30.508,17.585,41.283l-15.932,15.856C11.74,130.778,2.58,109.998,2.58,87.107z M27.768,147.233l15.941-15.827
	c10.823,10.604,25.48,17.291,41.646,17.887l2.33,15.557l2.294-15.568c16.083-0.584,30.667-7.201,41.473-17.73l15.351,15.344
	c-15.303,15.279-36.416,24.742-59.697,24.742C64.002,171.637,43.041,162.31,27.768,147.233z" class="color c1"/>
</svg>