<svg version="1.1" id="图层_1" x="0px" y="0px" width="54.314px" height="127.266px" viewBox="0 0 54.314 127.266" enable-background="new 0 0 54.314 127.266" xml:space="preserve" xmlns="http://www.w3.org/2000/svg" xmlns:xlink="http://www.w3.org/1999/xlink" xmlns:xml="http://www.w3.org/XML/1998/namespace">
  <path fill="#050633" d="M2.75,39.849l-1.793,4.439h51.105v-4.439h-4.674V22.436h3.114c1.894,0,3.429-1.533,3.429-3.428
	c0-1.893-1.535-3.428-3.429-3.428h-4.6C44.55,6.762,36.953,0,27.755,0S10.959,6.762,9.605,15.581H4.385
	c-1.894,0-3.428,1.535-3.428,3.428c0,1.895,1.534,3.428,3.428,3.428H7.19v17.413H2.75z M36.169,22.436h5.609v17.413h-5.609V22.436z
	 M24.951,22.436h5.609v17.413h-5.609V22.436z M12.798,22.436h6.544v17.413h-6.544V22.436z M48.099,127.265l6.215-0.429
	l-5.045-73.201h2.793v-4.439H0.957v4.439h3.994L0,126.844l6.217,0.421l0.887-13.086l39.475-8.982L48.099,127.265z M43.021,53.637
	l0.594,8.603L10.1,69.865l1.098-16.228H43.021z M45.291,88.232l-37.002,8.42l0.626-9.26l35.873-8.164l0.672,9.741L45.291,88.232z" class="color c1"/>
</svg>