<svg version="1.1" id="图层_1" x="0px" y="0px" width="98.128px" height="100.901px" viewBox="0 0 98.128 100.901" enable-background="new 0 0 98.128 100.901" xml:space="preserve" xmlns="http://www.w3.org/2000/svg" xmlns:xlink="http://www.w3.org/1999/xlink" xmlns:xml="http://www.w3.org/XML/1998/namespace">
  <path fill="#97AC4D" d="M13.086,100.45c0.193,0.025,0.2,0.371,0.368,0.451h0.152c0.141-0.064,0.265-0.246,0.41-0.164
	c0.083,0.047,0.139,0.105,0.178,0.164h78.051c0.065-0.373,0.068-0.785,0.065-1.154c-0.411-0.24-1.248,0.146-1.585-0.34
	c-0.748-1.074,0.831-0.889,0.926-1.85c0.635,0.043,0.813-0.35,1.322-0.602c0.575-0.279,1.438,0.082,1.674-0.961
	c-0.147-0.096-0.596-0.178-0.682-0.369c-0.229-0.508,0.188-0.785,0.146-1.275c-0.065-0.814-1.212-1.504-1.519-2.125
	c-0.238-0.477-0.584-1.162-0.705-1.721c-0.091-0.428,0.057-1.08-0.107-1.424c-0.117-0.24-0.472-0.209-0.56-0.398
	c-0.128-0.271-0.046-0.893-0.042-1.225c-0.346-0.184-0.902-0.732-1.273-0.605c-0.475,0.166-0.379,0.922-0.896,1.16
	c-0.057-0.096-0.119-0.152-0.174-0.283c-0.396,0.094-1.304-0.334-1.398-1.02c-0.133-1.002,0.714-0.664,1.127-1.1
	c-0.127-0.525,0.805-1.23,0.996-1.787c0.23-0.654,0.393-1.873,0.079-2.568c-0.388-0.219-0.536,0.285-0.882,0.393
	c-0.393,0.119-1-0.188-1.002-0.896c-0.006-0.561,0.752-0.602,1.138-0.746c0.692-0.27,0.759-0.268,0.753-1.367
	c-0.146-0.107-0.164-0.277-0.266-0.402c0.344-0.24,0.749-0.4,1.117-0.498c-0.127-0.857,0.377-0.652,0.746-0.67
	c0.207-0.008,0.273,0.213,0.531,0.131c0.163-0.055,0.318-0.463,0.534-0.551c0.633-0.262,1.642,0.961,2.064,0.146
	c0.388,0.59,0.149,1.063,0.805,0.979c0.369-0.045,0.599-0.645,0.88-0.846c0.776-0.564,1.538,0.168,1.721-1.133
	c0.013-0.074-0.146-0.342-0.118-0.553c0.019-0.145,0.261-0.414,0.317-0.59c0.148-0.457,0.254-1.152-0.017-1.547
	c-0.19-0.279-0.553-0.146-0.784-0.398c-0.532-0.563-0.387-1.506-0.736-2.234c-0.279,0.014-0.939-0.076-1.149-0.271
	c-0.451-0.42-0.494-1.705-1.233-1.691c-0.18,0-0.27,0.375-0.364,0.385c-0.195,0.014-0.335-0.074-0.519-0.074
	c-0.168,0.008-0.355-0.182-0.564-0.082c-0.26,0.129-0.334,0.52-0.637,0.664c-0.693,0.336-1.16-0.07-1.387-0.822
	c-0.32-1.08-0.207-0.801-0.943-0.955c-0.902-0.191-1.094-0.873-1.455-1.863c-0.271-0.736-0.113-0.275,0.004-1.025
	c0.053-0.336,0.071-0.697,0.104-1.037c-0.188-0.045-0.377-0.174-0.559-0.254c0.171-0.318,0.061-0.908-0.272-0.998
	c-0.351-0.098-0.354,0.402-0.608,0.602c-0.709,0.561-1.256-0.018-1.694,1.258c-0.375-0.463-0.954-0.877-1.204-0.076
	c-0.358,0.229-0.625-0.131-0.583-0.695c-0.683-1.016-1.981-0.34-2.401-2.104c0.543-0.01,1.174,0.061,1.666,0.025
	c0.012,0.635,0.407,0.666,0.682,0.352c0.349-0.396,0.071-0.867,0.598-1.135c0.148-0.074,0.406,0.195,0.588,0.107
	c0.191-0.098,0.236-0.498,0.344-0.568c0.336-0.227,0.84-0.309,1.24-0.121c0.157,0.076,0.191,0.322,0.299,0.381
	c0.273,0.143,0.503,0.143,0.804,0.201c0.124,0.025,0.36,0.301,0.444,0.295c0.238-0.025,0.217-0.383,0.469-0.395
	c0.572-0.014,0.201,0.576,0.733-0.176c0.255-0.357,0.149-0.832,0.723-0.766c0.076-0.211,0.112-0.553,0.083-0.785
	c-0.025-0.043-0.108-0.199-0.134-0.24c0.636-0.334,0.831-0.766,0.936-1.74c-0.212,0.098-0.474,0.07-0.692,0.002
	c-0.173-0.566-0.218-1.35-0.178-1.965c-0.279-0.186-0.584-0.363-0.922-0.379c-0.036,0.174-0.136,0.305-0.164,0.477
	c-0.068-0.855-0.703-1.006-0.799-0.172c-0.601,0.4-0.816,0.039-1.389-0.203c-0.307-0.131-1.111,0.178-1.218-0.328
	c-0.093-0.443,0.724-1.197,0.54-1.947c-0.089-0.363-0.436,0.08-0.454-0.578c-0.016-0.564,0.305-0.68,0.657-0.648
	c-0.078,0.664,0.176,0.918,0.611,0.816c0.141-0.035,0.162-0.396,0.346-0.479c0.213-0.094,0.459,0.023,0.654-0.07
	c0.313-0.145,0.666-0.357,0.683-0.932c0.024-0.692-0.415-0.668-0.609-1.225c0.308-0.223,0.693-0.191,1.05-0.201
	c0.053-1.039-0.279-1.758-0.186-2.764c-1.029,0.251-1.472-0.333-1.951-1.557c-0.281-0.713-0.761-1.898-1.375-1.354
	c-0.009,0.209,0.044,0.614-0.014,0.811c-0.055,0.188-0.333,0.6-0.352,0.726c-0.08,0.494,0.134,1.083,0.072,1.675
	c-0.57,0.17-0.519-0.045-0.72-0.522c-0.106-0.255-0.315-0.86-0.405-1.132c-0.07-0.223-0.232-0.293-0.272-0.568
	c-0.024-0.164,0.204-0.184,0.197-0.292c-0.054-0.729-0.231-1.3,0.077-1.953c0.25-0.524,0.844-0.631,0.746-1.393
	c0.438-0.169,1.703,1.432,1.466-0.281c0.489,0.16,0.752-0.466,0.341-0.919c-0.75,0.193-0.885-1.564-1.264-2.346
	c-0.615-1.271-1.433-1.039-1.416-2.805c-0.527-0.879-0.725-0.271-1.117,0.074c-0.51,0.449-0.799,0.811-1.422,0.914
	c-0.609,0.109-0.879,0.029-1.344-0.529c-0.568-0.683-1.146-1.348-1.91-1.397c-0.062,0.032-0.215,0.216-0.273,0.31
	c0.371,0.367,0.021,0.59-0.221,0.639c-0.279,0.057-0.404-0.27-0.6-0.293c-0.661-0.07-0.998,0.344-1.244-0.986
	c0.875-0.486,0.996-1.605,2.18-1.415c0.403-0.964-0.472-0.772-0.787-1.034c-0.896-0.761-0.342-1.563-0.334-2.613
	c0.01-1.482-0.018-1.44,0.738-2.342c0.469-0.564,0.479-1.179,0.73-1.932c-0.244-0.082-0.393-0.293-0.6-0.559
	c-0.549,0.025-0.543-0.438-0.954-0.678c-0.339-0.193-0.726-0.058-1.101-0.072c-0.287,0.465-1.277,0.025-1.7,0.002
	c-0.699-0.041-1.265-0.669-1.858-1.09c-0.516-0.366-1.4-0.453-1.458-1.488c-0.035-0.631,0.282-1.407,0.338-2.025
	c-0.31-0.075-0.997-0.047-1.274-0.244c-0.324-0.229-0.316-0.693-0.466-1.014c-0.157-0.34-0.237-0.505-0.479-0.77
	c-0.153-0.165-0.382-0.184-0.506-0.443c-0.244-0.517,0.026-0.852-0.078-1.317c-0.211-0.942-0.947-1.669-1.061-2.802
	c1.262-0.861,0.136-1.015-0.275-1.662c-0.404,0.523-0.791-0.283-1.218,0.026c-0.197,0.146-0.055,0.551-0.243,0.714
	c-0.319,0.273-0.896-0.105-1.191,0.198c-0.182,0.186-0.023,0.617-0.279,0.806c-0.331,0.246-0.93-0.24-1.072-0.646
	c-0.301-0.859,0.479-0.534,0.612-1.313c0.581-0.02,1.177,0.967,1.062-0.631c-0.145-0.087-0.205-0.31-0.312-0.406
	c0.638-0.762,2.609-2.031,0.655-2.408c0.016,0.144-0.043,0.366-0.021,0.512c-0.331-0.083-0.626-0.393-0.911-0.606
	c-0.426,1.066-0.958,0.514-1.364-0.358c-0.535-1.143,0.583-2.42-0.708-3.209c-0.035,0.799,0.021,2.622-0.761,2.469
	c-0.106-0.346-0.297-0.666-0.519-0.846c-0.266,0.225-0.578,0.369-0.542,0.858c-0.356,0.06-0.764-0.036-1.045-0.327
	c-0.004,0.102-0.024,0.227-0.022,0.327c-0.121,0.065-0.896,0.29-0.992,0.256c-0.344-0.109-0.535-0.614-0.984-0.571
	c-0.022,0.212-0.15,0.349-0.16,0.574c-0.529,0.103-1.161,0.098-1.64-0.199c-0.121,0.459-0.376,0.971-0.472,1.334
	c0.109,0.053,0.178,0.201,0.314,0.232c0.129,0.708-0.342,1.557-0.852,1.518c0.006,0.044,0.051,0.499,0.027,0.506
	c-0.533,0.023-1.021,0.428-1.521,0.407c-0.226-0.015-1.344-1.133-1.039-1.298c0.047-0.026,0.086-0.061,0.117-0.111
	C51.306,7.25,51.304,7.1,51.306,6.942c0.311-0.047,0.658-0.149,0.728-0.637c-0.253-0.191,0.036-0.51,0.185-0.766
	c-0.063-0.061-0.121-0.061-0.18-0.107c0.074-0.309,0.012-0.497-0.007-0.811c-0.085-0.347-0.251-0.803-0.47-1.127
	c-0.209-0.015-0.305,0.049-0.406,0.335c0.169,0.299,0.184,0.386-0.047,0.507c0.13,1.301-0.711-0.211-0.998-0.273
	c-0.338-0.068-0.493,0.406-0.885,0.102c-0.256-0.199-0.377-0.752-0.583-1.051c-0.227-0.023-0.407,0.084-0.556,0.332
	c0.26,0.728-0.848,1.244-0.99,0.33c-0.433-1.11-0.868-1.071-1.577-0.296c0.088-0.007,0.25,0.091,0.362,0.083
	c0.019,0.326,0.019,0.681,0,1.005c-0.172-0.032-0.276,0.083-0.44,0.052c-0.109,0.241-0.308,0.367-0.536,0.375
	c0.098,0.973-0.077,0.992-0.693,1.065c-0.41,0.048-0.848,0.146-1.239,0.155c-0.25,0.755-0.732-0.059-0.947-0.344
	c-0.521-0.683-0.295-0.414-0.331-1.436c-0.515-0.679-1.265,0.122-1.923-0.533c-0.202-0.203-0.477-0.552-0.565-0.797
	c-0.199-0.568,0.046-0.973-0.111-1.431c0.718-0.319,0.124-1.688-0.556-1.46c-0.196,0.071-0.268,0.301-0.565,0.381
	c-0.207,0.059-0.472-0.09-0.765,0.102c-0.282-0.465-0.539-0.793-0.972-0.673C36.18,0.5,35.989,0.608,35.825,0.946
	c-0.072,0.149-0.252,0.047-0.321,0.182c-0.081,0.146,0.067,0.518-0.012,0.645c-0.079,0.132-0.443,0.445-0.468,0.532
	c-0.112,0.353-0.012,0.539-0.012,1.046c-0.231,0.087-0.578,0.221-0.84,0.24c-0.142,0.378-0.412,0.323-0.598,0.597
	c-0.25,0.362-0.145,0.967-0.606,0.999c-0.184,0.477-0.623,0.505-0.933,0.75c0.139,0.4,0.159,0.893-0.256,1.133
	c0.702,0.115-0.132,0.994,0.241,1.455c0.266,0.334,0.478-0.445,0.672,0.184c0.072,0.238-0.137,0.726-0.216,0.899
	c-0.417-0.023-0.763,0.005-1.171-0.202c-0.448,0.545-1.011-0.126-1.483-0.301c-0.693-0.259-1.17,0.342-1.062-1.01
	c-0.379-0.479-0.76-0.406-1.196,0.1c0.302,0.395,0.925,0.93,0.402,1.496c0.201,0.242,0.075,0.46,0.19,0.705
	c0.158,0.342,0.343,0.262,0.467,0.47c0.206,0.337,0.147,0.153,0.266,0.655c0.096,0.395-0.127,0.744,0.131,1.018
	c0.366,0.379,0.901-0.254,1.142,0.578c0.143,0.49-0.055,1.291-0.391,1.35c-0.323,1.023,0.965,1.779-0.221,2.101
	c-0.45,0.118-0.946-0.259-1.054,0.56c0.04,0.014,0.077,0.025,0.115,0.043c-0.295,1.013,1.074,0.654,0.288,1.839
	c0.268,0.055,0.436,0.206,0.647,0.404c0.038,0.319-0.003,0.644-0.116,0.912c0.152-0.046,0.362,0.067,0.518,0.03
	c-0.053,0.943,0.309,0.203,0.472,0.26c0.317,0.107,0.297,0.487,0.672,0.297c0.131-0.068,1-1.757,0.942-0.396
	c0.877-0.063,0.293,0.689,0.244,1.189c-0.072,0.67,0.248,0.537,0.475,1.174c0.226,0.617,0.696,2.391,0.457,3.049
	c-0.199-0.082-0.249-0.11-0.316-0.387c-0.177-0.348-0.517-0.485-0.753-0.264c-0.148-0.25-0.26-0.518-0.332-0.797
	c-0.148-0.054-0.392-0.09-0.57-0.063c-0.493,1.055-2.994-1.635-2.697,0.669c-0.91,0.251-1.561-1.515-2.269,0.093
	c-0.46-0.252-1.182,0.15-1.385-0.674c-0.193,0.006-0.442-0.012-0.6,0.128c-0.311,0.278-0.083,0.601-0.263,0.872
	c-0.266,0.395-0.835,0.305-1.192,0.494c-0.001,0.732-0.635,0.607-0.669,1.178c0.474-0.081,0.646,0.62,0.464,1.115
	c0.09-0.016,0.224,0.061,0.315,0.039c0.002,0.721,0.371,2.15,0.999,1.211c0.017,0.092,0.01,0.174,0.022,0.268
	c0.182-0.117,0.398-0.249,0.575-0.357c0.059,0.27,0.152,0.527,0.16,0.816c0.362,0.07,0.565-0.296,0.846-0.537
	c-0.033,0.215,0.043,0.51,0.021,0.729c0.441-0.024,0.673-0.664,1.114-0.631c0.001,0.113,0.015,0.234,0.021,0.35
	c0.393,0.073,1.422-0.646,1.178,0.584c-0.32,0.319-0.7,0.257-1.106,0.218c-0.106,0.312-0.173,0.627-0.229,0.949
	c-0.388-0.015-0.678,0.027-1.035-0.101c-0.4-0.133-0.721-0.643-1.105-0.262c-0.223,0.219,0.048,0.682-0.246,1
	c-0.158,0.176-0.401-0.023-0.551,0.109c-0.489,0.443-0.199,1.013-0.865,1.01c-0.234,0-0.366-0.344-0.604-0.263
	c-0.256,0.084-0.329,0.583-0.444,0.708c-0.47,0.521-0.755,0.039-1.292,0.323c-0.643,0.347-0.873,1.555-1.764,0.814
	c-0.703,1.362-1.444-0.335-2.023,0.922c0.087,0.123,0.134,0.403,0.203,0.503c-0.364,0.156-0.691-0.046-1.048-0.084
	c-0.52,1.468-1.1,1.644-2.018,0.751c-0.92,0.463-1.329,0.974-2.415,1.038c-1.007,0.059-1.738,0.082-2.256,1.16
	c0.392,0.528,0.024,0.855-0.269,1.229c0.593,0.261,0.515,0.54,0.552,1.396c0.718-0.18,0.746,1.074,1.455,0.285
	c0.439,0.904,0.672,0.727,1.458,0.681c0.014,0.329,0.04,0.6,0.087,0.909c0.572,0.153,0.839-0.534,1.457-0.172
	c0.529,0.31,0.661,0.791,0.408,1.566c0.63,0.4,0.1,1.331,0.515,1.639c-0.417,1.238,0.612,0.502,0.93,0.829
	c0.427,0.435,0.163,1.409-0.063,1.776c-0.039,0.066,0.235,0.807,0.089,1.106c-0.19,0.389-0.585,0.236-0.851,0.354
	c-0.309,0.143-0.56,0.443-0.869,0.578c-0.791,0.34-1.564-0.348-2.347,0.268c-0.431,0.334-0.387,0.48-1.034,0.463
	c-0.335-0.006-0.707-0.08-1.032,0.006c-0.568,0.137-0.383,0.529-0.803,0.74c-0.287,0.494-0.968,0.15-1.15,0.713
	c-0.283,0.873,0.609,2.074-0.65,1.822c-0.27,0.506-0.182,1.301,0.063,1.822c0.598,0.209,0.796-0.615,1.321-0.736
	c0.326-0.076,0.42,0.109,0.719,0.078c0.328-0.033,0.312-0.658,0.633-0.084c0.309,0.553-0.372,1.672,0.585,1.4
	c0.131-0.041,0.11-0.469,0.263-0.535c0.122-0.053,0.278,0.049,0.388,0.004c0.162-0.057,0.546-0.057,0.747-0.115
	c0.681-0.193,1.026-0.178,1.604-0.824c0.589-0.652,0.915-0.18,1.462-0.584c0.252-0.184,0.803-1.336,1.222-0.678
	c0.297,0.459-0.393,0.896-0.536,1.01c-0.279,0.221-0.512,0.221-0.866,0.281c-0.49,0.082-0.5,0.035-0.941,0.367
	c0.119,0.781-0.25,0.51-0.547,0.758c-0.416,0.354-0.354-0.051-0.463,0.705c-0.063,0.438,0.237,1.066-0.067,1.365
	c-0.287,0.281-0.661-0.199-0.683-0.604c-0.389,0.066-0.626,0.168-0.999,0.24c-0.273,0.059-0.945,0.305-1.186,0.201
	c-0.455-0.203-0.425-0.975-0.983-0.973c-0.292,0.004-0.295,0.277-0.501,0.359c-0.257,0.109-0.222,0.076-0.506,0.109
	c-0.395,0.041-1.294,0.063-1.611,0.611c-0.341,0.594,0.125,0.982-0.517,1.27c-0.415,0.178-0.646-0.141-1.069,0.273
	c-0.237,1.473-0.582,1.186-1.465,1.5c-0.196,0.393-0.187,0.738-0.417,1.068c-0.189,0.268-0.469,0.246-0.65,0.529
	c-0.398,0.621-0.181,1.813-0.34,2.664c0.317,0.072,0.614-0.076,0.667-0.533c0.716,0.225,0.388-0.807,0.853-0.959
	c0.343-0.111,0.31,0.391,0.535,0.482c0.27,0.109,0.444,0.055,0.721-0.027c0.571-0.162,0.654-0.252,1.267,0.135
	c0.347,0.213,0.934,0.393,0.801,1.066c-0.204,0.146-0.53,0.084-0.704,0.266c-0.257,0.266-0.146,0.693-0.495,0.877
	c-0.312,0.16-0.674-0.16-0.973-0.006c-0.279,0.15-0.29,0.559-0.601,0.629c-0.038,0.154-0.103,0.26-0.163,0.387
	c-0.214-0.084-0.418-0.049-0.636-0.084c-0.44,0.934-0.665,2.186-1.603,2.225c-0.25,0.967-1.474,1.416-1.27,2.391
	c0.627,0.051,0.71-0.158,0.856,0.672c0.108,0.609-0.171,1.354,0.583,1.006c0.168-0.076,0.242-0.555,0.364-0.617
	c0.289-0.148,0.413,0.18,0.639,0.197c0.291,0.016,0.259-0.002,0.546-0.092c0.288-0.092,0.313-0.389,0.659-0.295
	c0.006,0.33,0.013,0.676,0.018,1.006c0.475,0.172,1.203-0.574,1.66-0.813c0.36-0.186,0.344-0.246,0.6-0.576
	c0.196-0.256-0.003-0.756,0.522-0.557c-0.147,0.906,0.333,0.521,0.498,0.996c0.154,0.451-0.126,1.092,0.266,1.406
	c0.434,0.35,0.393-0.377,0.712-0.658c0.319-0.275,0.892-0.145,1.259-0.174c0.072-0.994,1.458-0.027,1.421-1.285
	c0.355-0.209,0.71-0.215,1.114-0.186c-0.039,0.979,0.772,0.861,0.127,1.912c-0.868,0.188-2.258,0.492-2.984,1.072
	c-0.422,0.338-0.682,0.594-1.151,0.873c-0.2,0.115-0.544,0.238-0.669,0.561c-0.225,0.582,0.167,0.717,0.096,1.367
	c0.561,0.299,0.596-0.146,1.006-0.449c0.436-0.33,0.353-0.256,0.917-0.1c0.639,0.18,0.687-0.078,1.203-0.449
	c0.393-0.283,0.731-0.193,1.131-0.375c0.431-0.193,1.247-1.324,1.602-0.211c0.167,0.527-0.438,0.822,0.197,1.016
	c0.417,0.125,0.544-0.484,0.992-0.373c0.123-0.627-0.378-0.809,0.008-1.283c0.127-0.152,0.461,0.074,0.616-0.035
	c0.264-0.189,0.227-0.48,0.402-0.633c0.508-0.453,0.514,0.188,1.117-0.023c0.441-0.146,0.533-0.994,1.057-0.617
	c0.129,0.457-0.016,0.688-0.061,0.967c-0.014,0.102-0.11,0.748-0.144,0.895c-0.129,0.551,0.103,0.41-0.319,0.654
	c-0.118,0.07-0.587,0.01-0.734,0c-0.815-0.031-1.115,0.277-1.817,0.611c-0.327,0.152-0.568,0.461-0.864,0.586
	c-0.391,0.166-0.674-0.273-1.003-0.305c-0.422-0.039-0.463,0.277-0.764,0.4c-0.242,0.1-0.766-0.094-0.969,0.088
	c-0.093,0.082-0.205,0.201-0.258,0.297c0.309,0.473,0.649,1.209,0.259,1.682c-0.128,0.152-0.717,0.172-0.864,0.283
	c-0.079-0.02-0.158-0.047-0.241-0.035c-0.485,0.506,0.486,1.016,0.179,1.922c0.452,0.92,0.861-0.135,1.342-0.277
	c0.187-0.055,0.633-0.014,0.801,0.025c0.475,0.094,0.347,0.123,0.669,0.443c0.32,0.32,0.9,1.064,0.998-0.184
	c0.024-0.322-0.328-0.824-0.176-1.135c0.132-0.271,0.705-0.225,0.897-0.26c-0.128,1.234-0.29,2.031,0.463,3.014
	c0.407,0.535,1.356,1.598,0.882,2.408c-0.29,0.5-1.193,0.5-1.601,0.809c-0.369,0.279-0.749,0.559-1.03,1.004
	c-0.202,0.324-0.29,0.896-0.504,1.15c-0.52,0.604-1.256,0.012-1.855,0.127c-0.044,0.297-0.153,0.428-0.276,0.693
	c-0.145,0.309-0.151,0.291-0.284,0.68c-0.25,0.738-0.403,0.771-0.721,1.334c-0.277,0.49-0.191,0.857-0.348,1.479
	c-0.119,0.467-0.355,0.721-0.509,1.059c0.777-0.045,0.27,1.059-0.072,1.125c-0.556,0.105-0.611-0.816-1.254-0.691
	c-0.343,0.412-0.554,1.084-1.071,1.219c-0.046,0.236-0.177,0.475-0.213,0.715c-0.06,0.43,0.142,0.408,0.14,0.75
	c-0.006,0.41-0.128,0.709-0.241,1.008h6.217C12.382,100.694,12.771,100.405,13.086,100.45z" class="color c1"/>
</svg>