<svg version="1.1" id="图层_1" x="0px" y="0px" width="200px" height="182.093px" viewBox="0 0 200 182.093" enable-background="new 0 0 200 182.093" xml:space="preserve" xmlns="http://www.w3.org/2000/svg" xmlns:xlink="http://www.w3.org/1999/xlink" xmlns:xml="http://www.w3.org/XML/1998/namespace">
  <path fill="#144658" d="M63.052,89.029c-4.792,0-8.575,3.783-8.575,8.575v8.071c0,1.514,1.009,2.522,2.522,2.522h12.105
	c1.514,0,2.522-1.008,2.522-2.522v-8.071C71.626,92.812,67.843,89.029,63.052,89.029z M66.583,102.9h-7.062v-5.548
	c0-2.018,1.513-3.531,3.531-3.531c2.017,0,3.531,1.514,3.531,3.531V102.9L66.583,102.9z M82.219,107.944h12.106
	c1.513,0,2.521-1.009,2.521-2.522v-8.071c0-4.792-3.783-8.575-8.574-8.575c-4.792,0-8.575,3.783-8.575,8.575v8.071
	C79.697,106.935,80.958,107.944,82.219,107.944z M84.741,97.604c0-2.018,1.514-3.53,3.531-3.53s3.531,1.513,3.531,3.53v5.549h-7.062
	V97.604L84.741,97.604z M63.052,117.276c-4.792,0-8.575,3.783-8.575,8.575v8.071c0,1.513,1.009,2.521,2.522,2.521h12.105
	c1.514,0,2.522-1.009,2.522-2.521v-8.071C71.626,121.059,67.843,117.276,63.052,117.276z M66.583,131.4h-7.062v-5.549
	c0-2.017,1.513-3.53,3.531-3.53c2.017,0,3.531,1.513,3.531,3.53V131.4L66.583,131.4z M82.219,136.443h12.106
	c1.513,0,2.521-1.009,2.521-2.521v-8.071c0-4.792-3.783-8.575-8.574-8.575c-4.792,0-8.575,3.783-8.575,8.575v8.071
	C79.697,135.183,80.958,136.443,82.219,136.443z M84.741,125.851c0-2.017,1.514-3.53,3.531-3.53s3.531,1.513,3.531,3.53v5.549
	h-7.062V125.851L84.741,125.851z M112.989,89.029c-4.792,0-8.576,3.783-8.576,8.575v8.071c0,1.514,1.009,2.522,2.522,2.522h12.105
	c1.514,0,2.522-1.008,2.522-2.522v-8.071C121.563,92.812,117.78,89.029,112.989,89.029z M116.52,102.9h-7.062v-5.548
	c0-2.018,1.513-3.531,3.531-3.531c2.017,0,3.531,1.514,3.531,3.531V102.9L116.52,102.9z M63.052,60.782
	c-4.792,0-8.575,3.783-8.575,8.575v8.07c0,1.514,1.009,2.522,2.522,2.522h12.105c1.514,0,2.522-1.009,2.522-2.522v-8.07
	C71.626,64.565,67.843,60.782,63.052,60.782z M66.583,74.905h-7.062v-5.548c0-2.018,1.513-3.531,3.531-3.531
	c2.017,0,3.531,1.513,3.531,3.531V74.905L66.583,74.905z M82.219,79.949h12.106c1.513,0,2.521-1.009,2.521-2.522v-8.07
	c0-4.792-3.783-8.575-8.574-8.575c-4.792,0-8.575,3.783-8.575,8.575v8.07C79.697,78.688,80.958,79.949,82.219,79.949z
	 M84.741,69.356c0-2.018,1.514-3.531,3.531-3.531s3.531,1.513,3.531,3.531v5.548h-7.062V69.356L84.741,69.356z M63.052,33.039
	c-4.792,0-8.575,3.783-8.575,8.575v8.071c0,1.513,1.009,2.522,2.522,2.522h12.105c1.514,0,2.522-1.009,2.522-2.522v-8.071
	C71.626,36.822,67.843,33.039,63.052,33.039z M66.583,47.162h-7.062v-5.548c0-2.018,1.513-3.531,3.531-3.531
	c2.017,0,3.531,1.513,3.531,3.531V47.162L66.583,47.162z M82.219,52.207h12.106c1.513,0,2.521-1.009,2.521-2.522v-8.071
	c0-4.792-3.783-8.575-8.574-8.575c-4.792,0-8.575,3.783-8.575,8.575v8.071C79.697,50.945,80.958,52.207,82.219,52.207z
	 M84.741,41.614c0-2.018,1.514-3.531,3.531-3.531s3.531,1.513,3.531,3.531v5.548h-7.062V41.614L84.741,41.614z M106.936,52.207
	h12.105c1.514,0,2.522-1.009,2.522-2.522v-8.071c0-4.792-3.784-8.575-8.575-8.575c-4.792,0-8.576,3.783-8.576,8.575v8.071
	C104.413,50.945,105.422,52.207,106.936,52.207z M109.458,41.614c0-2.018,1.513-3.531,3.531-3.531c2.017,0,3.531,1.513,3.531,3.531
	v5.548h-7.062V41.614L109.458,41.614z M112.989,60.782c-4.792,0-8.576,3.783-8.576,8.575v8.07c0,1.514,1.009,2.522,2.522,2.522
	h12.105c1.514,0,2.522-1.009,2.522-2.522v-8.07C121.563,64.565,117.78,60.782,112.989,60.782z M116.52,74.905h-7.062v-5.548
	c0-2.018,1.513-3.531,3.531-3.531c2.017,0,3.531,1.513,3.531,3.531V74.905L116.52,74.905z M112.989,117.276
	c-4.792,0-8.576,3.783-8.576,8.575v8.071c0,1.513,1.009,2.521,2.522,2.521h12.105c1.514,0,2.522-1.009,2.522-2.521v-8.071
	C121.563,121.059,117.78,117.276,112.989,117.276z M116.52,131.4h-7.062v-5.549c0-2.017,1.513-3.53,3.531-3.53
	c2.017,0,3.531,1.513,3.531,3.53V131.4L116.52,131.4z M197.478,177.048h-10.593v-37.326c0-1.513,1.261-2.774,2.774-2.774
	c1.514,0,2.775,1.261,2.775,2.774s1.008,2.521,2.522,2.521c1.513,0,2.522-1.008,2.522-2.521c0-4.288-3.531-7.818-7.819-7.818
	c-0.756,0-1.513,0.252-2.018,0.252c1.261-2.522,3.783-4.287,6.558-4.287c1.512,0,2.521-1.009,2.521-2.522
	c0-1.513-1.009-2.522-2.521-2.522c-2.775,0-5.297,1.009-7.314,2.522v-3.278c0-1.513-1.009-2.522-2.522-2.522
	c-1.513,0-2.522,1.009-2.522,2.522v3.278c-2.017-1.513-4.539-2.522-7.314-2.522c-1.513,0-2.521,1.009-2.521,2.522
	c0,1.514,1.008,2.522,2.521,2.522c3.027,0,5.297,1.765,6.558,4.287c-0.757-0.252-1.261-0.252-2.018-0.252
	c-4.288,0-7.819,3.531-7.819,7.818c0,1.513,1.01,2.521,2.522,2.521c1.514,0,2.522-1.008,2.522-2.521s1.261-2.774,2.775-2.774
	c1.512,0,2.773,1.261,2.773,2.774v37.326h-16.141c0.253-0.251,0.253-0.504,0.505-0.756c10.34-34.552-7.314-52.711-8.071-53.468l0,0
	l0,0l-0.252-0.252c-0.252,0-0.252-0.252-0.504-0.252c-0.251,0-0.251,0-0.504,0c-0.253,0-0.253,0-0.505,0c-0.252,0-0.252,0-0.504,0
	c-0.252,0-0.252,0-0.505,0c-0.252,0-0.505,0.252-0.505,0.504c0,0-0.251,0-0.251,0.252l0,0l0,0
	c-0.757,0.757-17.655,18.663-7.819,53.468c0,0.252,0.252,0.504,0.504,0.756h-9.584V2.774c0-1.513-1.008-2.522-2.522-2.522H44.388
	c-1.513,0-2.522,1.009-2.522,2.522v174.274H21.437v-55.737c0-3.026,2.522-5.548,5.549-5.548c3.026,0,5.548,2.522,5.548,5.548
	c0,1.513,1.009,2.522,2.522,2.522s2.522-1.009,2.522-2.522c0-5.801-4.792-10.592-10.592-10.592c-2.019,0-3.531,0.504-5.296,1.513
	c1.261-5.548,6.053-9.584,11.854-9.584c1.513,0,2.521-1.008,2.521-2.521c0-1.514-1.008-2.522-2.521-2.522
	c-4.792,0-9.08,2.018-12.106,5.044v-7.566c0-1.513-1.008-2.522-2.521-2.522c-1.514,0-2.522,1.009-2.522,2.522v7.566
	c-3.027-3.026-7.314-5.044-12.106-5.044c-1.513,0-2.522,1.009-2.522,2.522c0,1.513,1.009,2.521,2.522,2.521
	c5.801,0,10.593,4.036,11.854,9.584c-1.513-0.756-3.279-1.513-5.296-1.513c-5.8,0-10.593,4.792-10.593,10.592
	c0,1.513,1.009,2.522,2.522,2.522c1.513,0,2.522-1.009,2.522-2.522c0-3.026,2.522-5.548,5.548-5.548s5.549,2.522,5.549,5.548v55.737
	H2.522c-1.514,0-2.522,1.01-2.522,2.522c0,1.514,1.008,2.522,2.522,2.522h194.956c1.512,0,2.522-1.008,2.522-2.522
	C200,178.058,198.739,177.048,197.478,177.048z M161.916,172.005l-3.026-1.513v-37.58
	C162.673,139.974,166.96,153.089,161.916,172.005z M153.846,132.408v37.831l-3.279,1.514
	C146.027,152.584,150.314,139.47,153.846,132.408z M156.368,174.779l4.54,2.27h-9.08L156.368,174.779z M132.409,5.296v8.827H46.91
	V5.296H132.409z M46.91,19.167h85.499v157.881h-31.526v-15.132c0-7.062-5.549-13.114-12.358-13.114
	c-6.81,0-12.358,5.801-12.358,13.114v15.132H46.91V19.167z M95.838,177.048h-14.88v-15.132c0-4.287,3.278-8.07,7.314-8.07
	c4.035,0,7.314,3.531,7.314,8.07v15.132H95.838z M182.597,25.473c0-6.558-5.295-11.602-11.601-11.602s-11.602,5.296-11.602,11.602
	c0,6.305,5.296,11.601,11.602,11.601S182.597,31.778,182.597,25.473z M170.744,32.03c-3.783,0-6.558-3.026-6.558-6.557
	c0-3.531,3.027-6.558,6.558-6.558c3.783,0,6.558,3.026,6.558,6.558C177.301,29.003,174.526,32.03,170.744,32.03z M170.744,11.097
	c-1.514,0-2.522-1.009-2.522-2.522V2.522c0-1.513,1.008-2.522,2.522-2.522s2.522,1.009,2.522,2.522v5.801
	C173.266,9.836,172.257,11.097,170.744,11.097z M184.362,6.809l-3.026,5.044c-0.504,0.757-1.513,1.261-2.27,1.261
	c-0.505,0-0.757,0-1.261-0.252c-1.261-0.756-1.766-2.27-1.009-3.531l3.027-5.044c0.756-1.261,2.27-1.765,3.531-1.008
	C184.615,4.035,185.119,5.548,184.362,6.809z M184.362,14.376l5.044-3.027c1.261-0.504,3.027-0.252,3.531,1.009
	c0.504,1.261,0.251,2.774-1.01,3.531l-5.043,3.027c-0.504,0.252-0.756,0.252-1.261,0.252c-1.008,0-1.766-0.504-2.27-1.261
	C182.597,16.897,183.102,15.132,184.362,14.376z M187.894,22.698h6.053c1.261,0,2.522,1.009,2.522,2.522
	c0,1.261-1.009,2.522-2.522,2.522h-6.053l0,0c-1.261,0-2.522-1.261-2.522-2.522C185.372,23.708,186.38,22.698,187.894,22.698z
	 M189.659,38.84l-5.296-2.774c-1.261-0.756-1.766-2.27-1.008-3.531c0.756-1.26,2.27-1.766,3.531-1.008l5.296,2.774
	c1.261,0.757,1.766,2.27,1.008,3.531c-0.504,0.757-1.261,1.261-2.27,1.261C190.668,39.092,190.164,38.84,189.659,38.84z
	 M177.806,41.614c-0.757-1.261-0.504-2.774,0.756-3.531c1.261-0.756,2.774-0.504,3.531,0.757l3.026,5.044
	c0.757,1.261,0.504,2.774-0.757,3.531c-0.252,0.252-0.756,0.252-1.261,0.252c-1.009,0-1.765-0.504-2.27-1.261L177.806,41.614z
	 M173.77,42.371l0.252,6.053c0,1.261-1.009,2.522-2.522,2.522l0,0c-1.261,0-2.522-1.261-2.522-2.522l-0.252-6.053
	c0-1.261,1.009-2.522,2.521-2.522C172.761,39.849,173.77,41.11,173.77,42.371z M157.881,44.388l2.774-5.296
	c0.757-1.261,2.27-1.765,3.53-1.009c1.261,0.757,1.767,2.27,1.01,3.531l-2.774,5.296c-0.505,0.756-1.261,1.261-2.27,1.261
	c-0.504,0-1.009,0-1.261-0.252C157.629,47.415,157.125,45.901,157.881,44.388z M149.053,39.092
	c-0.756-1.261-0.504-2.774,0.757-3.531l5.043-3.279c1.261-0.756,2.775-0.504,3.531,0.757c0.757,1.261,0.505,2.774-0.756,3.53
	l-5.044,3.279c-0.252,0.252-0.756,0.504-1.26,0.504C150.567,40.353,149.811,39.849,149.053,39.092z M147.793,24.464l5.801-0.252
	c1.26-0.252,2.521,0.756,2.521,2.27c0.252,1.261-0.756,2.522-2.27,2.522l-5.801,0.252c-0.252,0-0.252,0-0.252,0
	c-1.261,0-2.522-1.261-2.522-2.522C145.271,25.22,146.28,24.212,147.793,24.464z M151.576,12.862l5.297,2.774
	c1.261,0.505,1.513,2.018,1.008,3.279c-0.504,0.756-1.261,1.261-2.27,1.261c-0.504,0-1.008,0-1.261-0.253l-5.297-2.774
	c-1.26-0.504-1.512-2.018-1.008-3.279C148.549,12.61,150.063,12.106,151.576,12.862z M159.395,12.358l-3.279-5.044
	c-0.756-1.261-0.504-2.774,0.757-3.531c1.261-0.757,2.774-0.504,3.53,0.756l3.279,5.044c0.757,1.261,0.504,2.774-0.757,3.531
	c-0.504,0.252-1.009,0.504-1.513,0.504C160.655,13.619,159.646,13.367,159.395,12.358z" class="color c1"/>
</svg>