<svg version="1.1" id="图层_1" x="0px" y="0px" width="191.824px" height="200px" viewBox="0 0 191.824 200" enable-background="new 0 0 191.824 200" xml:space="preserve" xmlns="http://www.w3.org/2000/svg" xmlns:xlink="http://www.w3.org/1999/xlink" xmlns:xml="http://www.w3.org/XML/1998/namespace">
  <path fill="#FFFFFF" d="M191.824,101.343H148.41h-7.582h-1.596c1.896-17.883-5.84-35.18-21.193-43.42
	c-1.99-1.068-4.039-1.944-6.125-2.639l-1.217-5.789c8.977,2.722,16.943,7.755,23.223,14.402l18.746-5.759l-13.133,12.817
	c3.893,5.842,6.658,12.496,7.99,19.658L191.824,101.343z M88.764,47.612c-10.73,1.305-20.469,5.8-28.246,12.515l-17.07-9.405
	L54.15,66.64c-5.303,6.453-9.121,14.172-10.922,22.641L0,99.749h42.064h8.932h0.221c0.664-6.633,2.645-13.352,6.064-19.725
	c9.227-17.191,26.299-27.084,43.014-26.723v-2.306v-3.544V0L88.764,47.612z M148.23,147.872l-10.688-15.232
	c4.846-6.352,8.297-13.827,9.891-21.967l-10.809,2.271c-0.92,2.646-2.049,5.266-3.426,7.828
	c-5.449,10.153-13.637,17.76-22.871,22.217l-1.822,8.934c8.807-2.262,16.725-6.725,23.146-12.762L148.23,147.872z M72.441,142.874
	c-11.844-6.358-19.16-18.109-21.016-31.359l-8.576-1.962c1.666,9.595,5.906,18.303,11.975,25.399l-11.561,14.146l17.969-7.818
	c7.299,6.083,16.25,10.243,26.084,11.713L98.701,200v-46.533v-4.462v-2.2C89.826,148.432,80.656,147.282,72.441,142.874z" class="color c1"/>
</svg>