<svg version="1.1" id="图层_1" x="0px" y="0px" width="600px" height="404.135px" viewBox="0 0 600 404.135" enable-background="new 0 0 600 404.135" xml:space="preserve" xmlns="http://www.w3.org/2000/svg" xmlns:xlink="http://www.w3.org/1999/xlink" xmlns:xml="http://www.w3.org/XML/1998/namespace">
  <path fill="#7BA482" d="M130.232,229.974h37.209c-38.242-18.087-45.478-48.063-45.478-48.063h19.638
	c-31.523-23.772-36.691-73.385-36.691-73.385s-5.686,49.097-37.209,73.385h19.638c0,0-6.718,29.976-45.479,48.063h37.21
	c0,0-24.29,44.962-64.083,74.936h43.928c0,0-13.438,29.976-58.915,56.849h53.229h34.108v7.234l67.184-103.876
	C139.019,245.996,130.232,229.974,130.232,229.974z" class="color c1"/>
  <path fill="#7BA482" d="M557.105,377.261H600c-49.611-33.074-64.082-68.733-64.082-68.733h47.545
	c-43.41-29.975-69.768-78.036-69.768-78.036h40.311c-41.861-18.088-49.096-53.747-49.096-53.747h21.188
	c-34.625-23.771-39.793-79.586-39.793-79.586s-2.584,26.355-15.504,50.129c-42.895-26.357-50.646-57.364-50.646-57.364h23.771
	C405.166,55.814,398.965,0,398.965,0s-6.719,55.814-45.479,88.889h23.771c0,0-8.268,33.076-54.779,59.949h44.961
	c0,0-16.021,27.906-43.928,56.847l128.684,17.571L557.105,377.261z" class="color c1"/>
  <path fill="#235446" d="M140.568,272.352L67.184,385.53l-11.886,18.604h54.779l27.391-42.896l12.92-19.638l13.954-22.223
	l42.377,84.755h104.393L185.013,203.101L140.568,272.352z M526.614,377.261l-99.225-145.22l-131.267-18.088L194.314,200
	l65.116,105.426l3.618,5.686l57.363,93.023h127.649h42.377h54.264L526.614,377.261z" class="color c2"/>
</svg>