<svg version="1.1" id="图层_1" x="0px" y="0px" width="199.559px" height="200px" viewBox="0 0 199.559 200" enable-background="new 0 0 199.559 200" xml:space="preserve" xmlns="http://www.w3.org/2000/svg" xmlns:xlink="http://www.w3.org/1999/xlink" xmlns:xml="http://www.w3.org/XML/1998/namespace">
  <path fill="#C62725" d="M104.616,24.462L99.181,0l-4.759,24.476c1.723-0.116,3.458-0.181,5.21-0.181
	C101.308,24.295,102.968,24.355,104.616,24.462z" class="color c1"/>
  <path fill="#203767" d="M156.042,49.338l7.73-11.379l-11.646,7.355C153.48,46.606,154.786,47.949,156.042,49.338z" class="color c2"/>
  <path fill="#203767" d="M33.35,161.115l11.948-7.547c-1.354-1.383-2.655-2.814-3.901-4.297L33.35,161.115z" class="color c2"/>
  <path fill="#203767" d="M160.432,146.053c-1.142,1.518-2.338,2.986-3.586,4.41l12.459,6.307L160.432,146.053z" class="color c2"/>
  <path fill="#203767" d="M30.463,43.188l8.91,10.76c1.166-1.513,2.388-2.98,3.662-4.398L30.463,43.188z" class="color c2"/>
  <path fill="#C62725" d="M175.519,105.406l24.04-5.343l-24.034-4.673c0.105,1.641,0.165,3.295,0.165,4.963
	C175.689,102.052,175.629,103.736,175.519,105.406z" class="color c1"/>
  <path fill="#C62725" d="M94.211,176.217L99.497,200l4.61-23.723c-1.48,0.086-2.973,0.135-4.477,0.135
	C97.809,176.412,96.002,176.344,94.211,176.217z" class="color c1"/>
  <path fill="#C62725" d="M23.701,95.992L0,101.26l23.773,4.623c-0.13-1.826-0.2-3.67-0.2-5.529
	C23.573,98.889,23.619,97.436,23.701,95.992z" class="color c1"/>
</svg>