<svg version="1.1" id="图层_1" x="0px" y="0px" width="104.537px" height="103.705px" viewBox="0 0 104.537 103.705" enable-background="new 0 0 104.537 103.705" xml:space="preserve" xmlns="http://www.w3.org/2000/svg" xmlns:xlink="http://www.w3.org/1999/xlink" xmlns:xml="http://www.w3.org/XML/1998/namespace">
  <path fill="#0A76E0" d="M89.142,14.058C81.878,6.796,73.546,2.115,64.15,0c0.266,0.978,0.385,2,0.342,3.041
	c-0.107,2.508-1.123,4.762-2.723,6.448c1.158,1.305,1.928,2.862,2.281,4.533c0.215,0.092,0.352,0.154,0.389,0.179
	c1.002,0.569,1.5,1.313,1.5,2.229c0,0.875-0.498,1.605-1.5,2.188c-0.197,0.092-0.373,0.18-0.559,0.269
	c-0.434,1.512-1.203,2.873-2.234,3.991c2.09,2.023,3.281,4.938,3.002,8.053c-0.016,0.165-0.053,0.32-0.076,0.483
	c0.092-0.068,0.17-0.126,0.264-0.196c3.65-2.5,6.24-3.747,7.768-3.747c1.279,0,2.668,0.694,4.166,2.084
	c1.391,1.277,2.082,2.319,2.082,3.124c0,0.833-0.691,1.597-2.082,2.292c-1.137,0.555-2.041,0.833-2.705,0.833
	c-0.684,0-1.869-0.208-3.564-0.625c-1.68-0.416-2.785-0.625-3.311-0.625c-1.715,0-3.201,0.497-4.475,1.455
	c-0.512,0.691-1.111,1.31-1.783,1.844c-0.291,0.402-0.57,0.828-0.826,1.303c-0.15,0.281-0.283,0.578-0.416,0.873
	c2.381,2.699,3.584,6.159,3.381,9.757c-0.109,1.942-0.631,3.794-1.496,5.473c1.252,0.712,3.672,1.485,7.279,2.312
	c3.514,0.793,5.998,1.743,7.457,2.854c2.25,1.696,3.373,4.317,3.373,7.874c0,1.4-0.416,3.484-1.248,6.248
	c-0.83,2.764-1.248,4.916-1.248,6.455c0,1.501,0.006,2.271,0.02,2.313c0.141,0.541,0.689,0.812,1.646,0.812
	c1.182,0,2.771-1.206,4.771-3.622c1.791-2.168,3.672-4.986,5.645-8.457c1.889-3.332,3.457-6.545,4.707-9.644
	c1.305-3.264,1.957-5.673,1.957-7.227c0-2.196-0.498-4.063-1.5-5.603c-0.678-1.069-1.777-2.167-3.289-3.291
	c-1.818-1.349-2.916-2.221-3.289-2.625c-1.002-1.069-1.502-2.298-1.502-3.685c0-0.836,0.279-1.531,0.834-2.083
	c1.057,0.137,2.549,1.304,4.479,3.499c1.863,2.111,3.285,3.165,4.27,3.165c0.695,0,1.264-0.291,1.709-0.874
	c0.25-0.319,0.617-0.922,1.105-1.813c0.557,2.984,0.83,6.096,0.83,9.332c0,13.133-4.643,24.341-13.934,33.618
	c-9.277,9.288-20.48,13.935-33.618,13.935c-4.22,0-8.24-0.479-12.059-1.438c0.539-1.734,1.423-3.688,2.644-5.853
	c0.86-1.499,2.259-3.798,4.187-6.894c3.944-5.832,5.659-10.86,5.146-15.083c-0.329-2.636-0.873-4.935-1.632-6.893
	c-0.275,0.017-0.549,0.038-0.825,0.038c-3.87-0.001-7.569-1.655-10.147-4.539c-0.275-0.31-0.536-0.629-0.781-0.957
	c-0.529,0.945-1.216,1.809-2.043,2.547c-1.331,1.191-2.975,2.006-4.743,2.349c-0.626,0.12-1.263,0.182-1.897,0.182
	c-2.071,0-4.012-0.65-5.627-1.761c-1.137,1.151-1.945,2.223-2.384,3.202c-0.527,1.167-1.375,2.36-2.54,3.581
	c-1.181,1.224-1.751,3.168-1.709,5.834c0.042,2.664,0.971,4.207,2.79,4.623c1.819,0.4,3.986,1.285,6.5,2.644
	c2.5,1.349,3.79,3.485,3.874,6.416c0.055,2.918,0.111,5.324,0.165,7.228c-4.51-2.266-8.69-5.318-12.536-9.164
	C10.944,77.349,6.49,68.63,5.032,58.666c-0.568,0.142-1.147,0.238-1.735,0.275c-0.213,0.016-0.433,0.021-0.649,0.021
	c-0.915,0-1.802-0.133-2.647-0.367c1.477,11.351,6.431,21.26,14.888,29.716c10.263,10.263,22.642,15.394,37.139,15.394
	c14.497,0,26.868-5.129,37.116-15.394c10.264-10.248,15.395-22.62,15.395-37.115C104.537,36.697,99.406,24.319,89.142,14.058z" class="color c1"/>
</svg>