<svg version="1.1" id="图层_1" x="0px" y="0px" width="51.629px" height="124.822px" viewBox="0 0 51.629 124.822" enable-background="new 0 0 51.629 124.822" xml:space="preserve" xmlns="http://www.w3.org/2000/svg" xmlns:xlink="http://www.w3.org/1999/xlink" xmlns:xml="http://www.w3.org/XML/1998/namespace">
  <path fill="#2C2C2C" d="M2.891,45.271c0.418-0.098,0.891-0.051,1.326,0.005c1.213,0.154,2.104-0.521,3.051-1.085
	c0.473-0.283,1.008-0.464,1.469-0.765c0.494-0.324,1.039-0.659,1.373-1.125c0.488-0.682,0.852-1.43,1.746-1.695
	c0.117-0.034,0.158-0.339,0.221-0.522c0.049-0.142,0.029-0.336,0.117-0.429c0.457-0.467,0.697-0.396,0.914,0.271
	c0.109,0.328,0.271,0.637,0.441,0.946c0.004,0.768-0.07,1.424-0.313,2.088c0.59,4.713,0.396,8.424-1.68,13.149
	c-0.385,0.871-0.721,2.402-0.215,3.208c0.547,0.871-0.639,1.886-0.861,3.033c-0.154,0.781,0.406,1.518,1.199,1.59
	c0.383,0.035,0.693,0.066,0.73,0.082c1.055,0.438,0.832,1.115,0.811,1.336c-0.113,1.25-0.41,2.49-0.443,3.738
	c-0.039,1.444,0.082,2.9,0.229,4.342c0.076,0.734,0.182,1.465,0.291,2.196c0.025,1.927,0.217,3.826,0.572,5.703
	c-0.156,0.63-0.008,1.313,0.121,2.005c0.162,0.859,0.221,1.738,0.316,2.609c0.137,1.224,0.395,2.455,0.332,3.673
	c-0.045,0.888,0.133,1.791,0.678,2.493c1.346,1.734,0.541,3.601,0.373,5.484c-0.17,1.893-0.25,3.866,0.104,5.713
	c0.494,2.576,1.494,5.047,2.154,7.598c0.389,1.505,0.541,3.07,0.781,4.613c0.02,0.106-0.121,0.343-0.193,0.346
	c-0.605,0.018-0.539,0.322-0.385,0.742c0.08,0.223,0.031,0.488,0.076,0.729c0.186,0.99,0.391,1.979,0.574,2.969
	c0.043,0.235,0.037,0.621-0.002,0.856c-0.102,0.604-0.162,1.222-0.348,1.801c-0.201,0.63-0.416,1.272-0.727,1.853h7.703
	c-0.027-0.664-0.086-1.329-0.137-1.994c-0.101-1.21-0.332-2.409-0.49-3.615c-0.037-0.284-0.025-0.752,0.055-1.029
	c0.285-0.992,0.061-2.007-0.563-2.643c-1.508-1.541-0.572-3.281-0.674-4.93c-0.025-0.482,0.135-0.974,0.172-1.463
	c0.266-3.264,0.539-6.522-0.01-9.789c-0.369-2.207-0.002-4.344,0.805-6.416c0.02-0.047,0.049-0.094,0.063-0.146
	c0.158-0.733,0.283-1.427,0.853-2.054c0.459-0.502,0.621-1.303,0.842-1.994c0.406-1.273,0.758-2.566,1.115-3.789
	c0.158,1.057,0.428,2.188,0.469,3.33c0.027,0.723-0.313,1.453-0.428,2.188c-0.029,0.195,0.096,0.547,0.248,0.617
	c0.686,0.319,0.973,0.76,1.166,1.553c0.414,1.715,1.205,3.336,1.657,5.041c0.302,1.133,0.4,2.351,0.375,3.523
	c-0.043,1.841-0.473,3.689-0.362,5.514c0.123,2.053,0.66,4.082,1.018,6.121c0.125,0.709,0.271,1.415,0.363,2.129
	c0.02,0.145-0.119,0.357-0.244,0.463c-0.588,0.485-0.52,1.246,0.127,1.67c0.111,0.074,0.182,0.445,0.107,0.529
	c-1,1.106-1.248,2.691-0.627,4.057c0.088,0.191,0.075,0.445,0.059,0.664c-0.061,0.73-0.074,1.477-0.232,2.186
	c-0.023,0.093-0.047,0.186-0.07,0.275h9.984c-0.17-0.93-0.531-1.784-1.08-2.357c-0.229-0.238-0.492-0.507-0.789-0.604
	c-0.777-0.25-0.801-0.739-0.721-1.439c0.076-0.646-0.01-1.334-0.152-1.979c-0.086-0.399-0.547-0.736-0.582-1.125
	c-0.063-0.727-0.002-1.479,0.121-2.203c0.352-2.077,0.766-4.143,1.139-6.217c0.271-1.482,0.529-2.972,0.767-4.461
	c0.291-1.834-0.021-3.629-0.604-5.348c-0.718-2.105-0.494-4.246-0.474-6.383c0.002-0.155,0.371-0.291,0.537-0.463
	c0.17-0.18,0.422-0.383,0.438-0.592c0.121-1.554,0.104-3.118,0.299-4.659c0.375-2.98,0.961-5.937,1.265-8.923
	c0.203-2.012,0.067-4.059,0.103-6.09c0.004-0.229,0.196-0.463,0.18-0.687c-0.045-0.601-0.15-1.197-0.234-1.794
	c-0.023-0.155-0.07-0.313-0.072-0.469c-0.008-1.682-0.014-3.363,0.01-5.047c0.002-0.088,0.287-0.27,0.406-0.244
	c0.422,0.087,0.648,0.041,0.713-0.467c0.078-0.641,0.226-1.276,0.412-1.896c0.045-0.146,0.381-0.322,0.547-0.292
	c1.035,0.183,1.306-0.114,1.447-1.3c0.043-0.338,0.143-0.683,0.287-0.993c0.344-0.728,0.135-1.196-0.633-1.451
	c-0.191-0.063-0.443-0.291-0.465-0.467c-0.156-1.333-0.258-2.671-0.387-4.008c-0.063-0.645-0.15-1.286-0.226-1.929
	c-0.022-0.188-0.112-0.415-0.041-0.563c0.295-0.619-0.104-1.04-0.293-1.562c-0.137-0.37,0.067-0.889,0.187-1.326
	c0.162-0.601,0.449-0.928,0.965-0.246c0.01,0.014,0.023,0.029,0.039,0.036c1.191,0.52,2.365,1.08,3.58,1.526
	c0.283,0.104,0.801-0.08,1.051-0.309c0.559-0.508,1.035-1.113,1.502-1.713c0.137-0.179,0.189-0.5,0.145-0.723
	c-0.186-0.899,0.086-1.609,0.631-2.354c0.881-1.204,0.656-2.114-0.371-3.271c-0.016-0.048-0.03-0.094-0.049-0.142
	c0.049-0.645,0.019-1.289-0.117-1.869c-0.166-0.718-0.524-1.36-1.041-1.883c-0.149-0.151-0.457-0.347-0.76-0.562
	c-0.311-0.509-0.621-1.018-0.932-1.526c-0.061-0.1-0.129-0.226-0.119-0.331c0.197-1.848-0.338-3.587-0.969-5.257
	c-0.441-1.164-1.248-2.19-1.887-3.28c-0.062-0.103-0.101-0.219-0.148-0.329c0.117-0.02,0.234-0.042,0.352-0.054
	c0.068-0.009,0.142,0,0.211,0.002c1.947,0.026,1.636,0.292,1.912-1.66c0.228-1.605-0.057-3.284-0.162-4.927
	c-0.012-0.16-0.356-0.431-0.541-0.429c-2.149,0.029-4.301,0.091-6.446,0.166c-0.127,0.004-0.244,0.004-0.354-0.006
	c-0.109-0.316-0.242-0.63-0.408-0.931c-0.195-0.354-0.535-0.676-0.689-1.05c-0.098-0.241-0.133-0.493-0.17-0.748
	c0.029-0.197-0.01-0.387-0.113-0.562c-0.025-0.091-0.059-0.183-0.102-0.273c-0.699-1.394-2.195-1.639-3.645-1.888
	c0.122-0.672,0.264-1.396,0.323-2.126c0.021-0.256-0.334-0.544-0.519-0.814c-0.059-0.085-0.172-0.17-0.17-0.253
	c0.025-1.244,0.14-2.493,0.074-3.733c-0.033-0.651-0.361-1.289-0.57-1.93c-0.075-0.232-0.291-0.453-0.282-0.672
	c0.034-0.835-0.668-1.167-1.07-1.708c-0.59-0.786-1.433-0.846-2.265-0.943c-0.428-0.297-0.885-0.535-1.395-0.651
	c-0.896-0.203-1.673,0.15-2.532,0.31c-1.472,0.272-2.556,1.674-2.349,3.137c-0.164,0.275-0.357,0.533-0.6,0.771
	c-1.012,1.002-0.947,2.325-1.127,3.592c-0.107,0.78,0.014,1.591-0.584,2.329c-0.234,0.291,0.158,1.078,0.244,1.643
	c0.064,0.438,0.102,0.878,0.15,1.317c-0.543,0.019-1.082,0.042-1.621,0.055c-0.078,0.002-0.178-0.081-0.236-0.058
	c-1.094,0.45-2.207,0.87-3.262,1.398c-0.252,0.127-0.457,0.624-0.451,0.945c0.02,0.854,0.146,1.709,0.275,2.558
	c0.066,0.465-0.107,0.591-0.537,0.584c-2.309-0.039-4.615-0.039-6.924-0.104c-0.664-0.02-0.844,0.201-0.828,0.84
	c0.039,1.586,0.02,3.174,0.01,4.762c-0.008,0.68,0.17,1.01,0.979,0.931c0.617-0.06,1.232-0.088,1.855-0.108
	c0.557,0.089,1.107,0.183,1.662,0.276c-0.049,0.012-0.102,0.021-0.152,0.033c-0.297,0.062-0.645,0.214-0.826,0.439
	c-0.275,0.343-0.377,0.822-0.641,1.174c-0.266,0.35-0.639,0.622-0.973,0.917c-0.346,0.305-0.674,0.646-1.025,0.944
	c-1.391,0.861-2.584,1.962-3.492,3.332c-0.506,0.76-0.84,1.57-1.125,2.401c-0.129,0.129-0.26,0.256-0.408,0.359
	c-0.854,0.593-1.744,1.139-2.59,1.748c-1.115,0.811-1.416,2.028-1.029,3.386c0.109,0.386-0.1,0.871-0.191,1.307
	C0.229,41.762-0.015,42.238,0,42.713c0.018,0.53,0.219,1.066,0.398,1.579C0.764,45.325,1.543,45.588,2.891,45.271z" class="color c1"/>
</svg>