<svg version="1.1" id="图层_1" x="0px" y="0px" width="79.018px" height="72.917px" viewBox="0 0 79.018 72.917" enable-background="new 0 0 79.018 72.917" xml:space="preserve" xmlns="http://www.w3.org/2000/svg" xmlns:xlink="http://www.w3.org/1999/xlink" xmlns:xml="http://www.w3.org/XML/1998/namespace">
  <path fill="#97AC4D" d="M30.393,66.194c0.422-0.139,18.002-7.869,48.625-62.548c-0.258-0.001-0.512-0.038-0.727-0.174
	c-0.087,0.335-0.272,0.704-0.34,0.966c0.078,0.037,0.128,0.145,0.227,0.169c0.094,0.511-0.248,1.122-0.615,1.093
	c0.004,0.033,0.035,0.362,0.02,0.365c-0.385,0.02-0.737,0.311-1.098,0.296c-0.164-0.011-0.969-0.819-0.752-0.938
	c0.034-0.019,0.062-0.045,0.086-0.077c-0.035-0.109-0.035-0.22-0.035-0.334c0.225-0.029,0.477-0.105,0.526-0.458
	c-0.182-0.14,0.026-0.367,0.134-0.555c-0.047-0.043-0.088-0.043-0.129-0.074c0.052-0.227,0.008-0.361-0.006-0.588
	c-0.063-0.25-0.181-0.578-0.339-0.814c-0.151-0.009-0.22,0.036-0.296,0.244c0.125,0.215,0.133,0.279-0.033,0.365
	c0.096,0.939-0.513-0.15-0.719-0.197c-0.244-0.049-0.357,0.293-0.64,0.071c-0.185-0.142-0.271-0.54-0.42-0.757
	c-0.165-0.015-0.296,0.061-0.401,0.241c0.188,0.522-0.613,0.897-0.716,0.238c-0.313-0.804-0.628-0.774-1.138-0.215
	c0.062-0.007,0.178,0.065,0.262,0.059c0.014,0.237,0.014,0.491,0,0.728c-0.125-0.021-0.201,0.058-0.319,0.037
	c-0.079,0.173-0.222,0.264-0.388,0.27c0.072,0.706-0.055,0.717-0.5,0.769c-0.297,0.036-0.612,0.104-0.895,0.114
	c-0.182,0.543-0.528-0.043-0.684-0.248c-0.377-0.494-0.213-0.299-0.238-1.039c-0.372-0.489-0.914,0.09-1.391-0.382
	c-0.146-0.149-0.343-0.399-0.406-0.575c-0.145-0.411,0.033-0.704-0.082-1.036c0.518-0.228,0.09-1.218-0.4-1.052
	c-0.141,0.051-0.193,0.216-0.409,0.273c-0.148,0.043-0.339-0.064-0.55,0.073c-0.205-0.333-0.39-0.57-0.703-0.485
	c-0.042,0.342-0.18,0.423-0.297,0.666c-0.055,0.106-0.182,0.035-0.234,0.131c-0.059,0.105,0.051,0.373-0.006,0.463
	c-0.059,0.096-0.32,0.324-0.34,0.387c-0.08,0.256-0.009,0.389-0.009,0.755c-0.167,0.063-0.417,0.159-0.606,0.173
	c-0.103,0.274-0.297,0.234-0.432,0.432c-0.182,0.262-0.104,0.699-0.437,0.721c-0.134,0.347-0.45,0.364-0.676,0.541
	c0.101,0.29,0.116,0.646-0.183,0.818c0.506,0.084-0.097,0.719,0.172,1.053c0.193,0.238,0.346-0.324,0.486,0.131
	c0.053,0.171-0.099,0.521-0.154,0.651c-0.303-0.02-0.553,0.003-0.849-0.149c-0.323,0.396-0.729-0.09-1.07-0.215
	c-0.501-0.186-0.845,0.248-0.767-0.731c-0.273-0.345-0.549-0.291-0.864,0.075c0.22,0.283,0.669,0.67,0.291,1.076
	c0.146,0.178,0.054,0.334,0.136,0.512c0.115,0.247,0.249,0.189,0.338,0.338c0.149,0.244,0.105,0.111,0.192,0.475
	c0.07,0.281-0.091,0.537,0.096,0.734c0.263,0.273,0.65-0.182,0.823,0.417c0.102,0.354-0.04,0.933-0.283,0.974
	c-0.23,0.738,0.697,1.287-0.158,1.518c-0.326,0.086-0.683-0.186-0.762,0.404c0.027,0.012,0.056,0.02,0.083,0.032
	c-0.212,0.731,0.775,0.472,0.208,1.327c0.193,0.039,0.314,0.147,0.467,0.292c0.029,0.229-0.002,0.463-0.084,0.659
	c0.111-0.035,0.262,0.049,0.374,0.021c-0.037,0.683,0.222,0.146,0.342,0.188c0.229,0.075,0.214,0.351,0.485,0.213
	c0.094-0.05,0.723-1.269,0.681-0.285c0.634-0.045,0.212,0.499,0.175,0.858c-0.051,0.484,0.179,0.391,0.344,0.85
	c0.162,0.444,0.503,1.728,0.33,2.199c-0.145-0.058-0.182-0.078-0.227-0.279c-0.128-0.251-0.375-0.35-0.545-0.189
	c-0.108-0.18-0.188-0.374-0.24-0.576c-0.106-0.038-0.282-0.064-0.412-0.043c-0.355,0.762-2.16-1.182-1.946,0.48
	c-0.656,0.181-1.126-1.092-1.639,0.066c-0.331-0.181-0.854,0.112-0.999-0.483c-0.141,0.005-0.32-0.011-0.434,0.091
	c-0.224,0.203-0.061,0.435-0.189,0.629c-0.192,0.287-0.604,0.223-0.861,0.36c-0.002,0.525-0.459,0.437-0.483,0.847
	c0.343-0.059,0.466,0.449,0.335,0.807c0.065-0.012,0.162,0.045,0.229,0.027c0,0.521,0.266,1.553,0.72,0.876
	c0.013,0.065,0.007,0.124,0.017,0.189c0.131-0.081,0.288-0.177,0.416-0.256c0.041,0.195,0.109,0.381,0.115,0.591
	c0.26,0.051,0.404-0.215,0.608-0.389c-0.022,0.155,0.033,0.369,0.017,0.525c0.318-0.017,0.484-0.478,0.803-0.454
	c0.002,0.081,0.012,0.169,0.015,0.253c0.284,0.049,1.027-0.468,0.854,0.423c-0.233,0.228-0.507,0.184-0.8,0.155
	c-0.078,0.225-0.126,0.452-0.166,0.686c-0.28-0.011-0.489,0.02-0.746-0.071c-0.291-0.099-0.521-0.467-0.8-0.191
	c-0.161,0.161,0.034,0.493-0.177,0.723c-0.113,0.126-0.291-0.018-0.398,0.078c-0.352,0.321-0.142,0.734-0.625,0.73
	c-0.167,0-0.263-0.247-0.436-0.191c-0.184,0.062-0.237,0.422-0.322,0.515c-0.338,0.373-0.543,0.027-0.932,0.231
	c-0.463,0.251-0.631,1.122-1.273,0.587c-0.164,0.318-0.33,0.395-0.494,0.399c-0.377-0.232-0.947-0.329-0.987-1.036
	c-0.024-0.456,0.204-1.019,0.244-1.466c-0.224-0.052-0.72-0.034-0.921-0.175c-0.232-0.168-0.227-0.5-0.334-0.73
	c-0.115-0.248-0.174-0.365-0.349-0.557c-0.11-0.121-0.274-0.135-0.363-0.32c-0.179-0.374,0.021-0.613-0.058-0.955
	c-0.152-0.678-0.684-1.203-0.766-2.019c0.91-0.62,0.098-0.735-0.199-1.201c-0.291,0.38-0.571-0.204-0.879,0.017
	c-0.143,0.107-0.039,0.4-0.175,0.518c-0.23,0.199-0.647-0.078-0.86,0.143c-0.131,0.135-0.018,0.447-0.201,0.582
	c-0.24,0.181-0.672-0.173-0.775-0.467c-0.217-0.619,0.346-0.385,0.443-0.947c0.418-0.016,0.85,0.699,0.766-0.455
	c-0.105-0.064-0.146-0.224-0.225-0.295c0.459-0.549,1.885-1.466,0.473-1.738c0.012,0.104-0.033,0.266-0.014,0.372
	c-0.24-0.061-0.453-0.288-0.658-0.438c-0.309,0.77-0.693,0.368-0.986-0.261c-0.387-0.823,0.422-1.746-0.512-2.315
	c-0.024,0.577,0.017,1.893-0.547,1.779c-0.078-0.248-0.217-0.477-0.375-0.607c-0.191,0.162-0.418,0.266-0.393,0.619
	c-0.258,0.041-0.551-0.025-0.754-0.234c-0.003,0.071-0.018,0.162-0.016,0.234c-0.088,0.048-0.648,0.208-0.717,0.186
	c-0.248-0.082-0.387-0.445-0.711-0.414c-0.016,0.152-0.109,0.253-0.115,0.416c-0.383,0.074-0.839,0.072-1.184-0.146
	c-0.087,0.335-0.272,0.704-0.341,0.966c0.079,0.038,0.128,0.146,0.228,0.171c0.092,0.508-0.249,1.117-0.617,1.091
	c0.004,0.033,0.037,0.363,0.02,0.363c-0.385,0.022-0.736,0.313-1.097,0.296c-0.164-0.008-0.97-0.817-0.752-0.936
	c0.034-0.02,0.063-0.045,0.086-0.08c-0.035-0.107-0.037-0.218-0.035-0.333c0.224-0.03,0.475-0.104,0.525-0.457
	c-0.182-0.138,0.026-0.367,0.133-0.554c-0.046-0.044-0.087-0.044-0.129-0.076c0.052-0.225,0.009-0.36-0.006-0.585
	c-0.062-0.254-0.18-0.578-0.338-0.815c-0.15-0.009-0.22,0.037-0.294,0.242c0.124,0.215,0.133,0.281-0.033,0.367
	c0.094,0.938-0.514-0.152-0.719-0.199c-0.244-0.049-0.358,0.297-0.64,0.073c-0.186-0.144-0.272-0.543-0.421-0.759
	c-0.164-0.014-0.296,0.063-0.402,0.242c0.188,0.523-0.612,0.896-0.715,0.236c-0.314-0.803-0.628-0.771-1.138-0.212
	c0.063-0.008,0.179,0.064,0.262,0.06c0.013,0.236,0.013,0.49,0,0.726c-0.125-0.022-0.201,0.06-0.318,0.036
	c-0.079,0.174-0.223,0.266-0.387,0.271c0.071,0.704-0.055,0.719-0.5,0.771c-0.298,0.032-0.613,0.102-0.896,0.11
	c-0.18,0.544-0.527-0.045-0.684-0.246c-0.377-0.495-0.212-0.301-0.239-1.039c-0.371-0.488-0.913,0.092-1.389-0.385
	c-0.146-0.146-0.343-0.396-0.407-0.574c-0.144-0.41,0.033-0.704-0.081-1.033c0.517-0.23,0.09-1.219-0.401-1.053
	c-0.14,0.048-0.193,0.215-0.408,0.273c-0.148,0.043-0.339-0.064-0.551,0.074c-0.204-0.337-0.389-0.572-0.701-0.488
	c-0.043,0.342-0.18,0.424-0.299,0.666c-0.052,0.109-0.182,0.035-0.233,0.132c-0.057,0.106,0.05,0.372-0.006,0.462
	c-0.059,0.096-0.32,0.324-0.339,0.389c-0.08,0.253-0.009,0.387-0.009,0.754c-0.167,0.064-0.418,0.159-0.607,0.174
	c-0.102,0.271-0.296,0.234-0.432,0.431c-0.181,0.261-0.103,0.698-0.437,0.723c-0.132,0.343-0.45,0.364-0.676,0.539
	c0.101,0.292,0.117,0.646-0.184,0.819c0.507,0.083-0.095,0.719,0.173,1.052c0.192,0.239,0.345-0.322,0.486,0.132
	c0.053,0.17-0.098,0.522-0.155,0.651c-0.302-0.021-0.551,0-0.847-0.149c-0.325,0.396-0.73-0.089-1.071-0.217
	c-0.5-0.187-0.844,0.248-0.767-0.728c-0.272-0.347-0.549-0.292-0.864,0.071c0.22,0.285,0.669,0.672,0.291,1.077
	c0.146,0.177,0.054,0.337,0.138,0.515c0.113,0.244,0.248,0.187,0.337,0.336c0.148,0.243,0.106,0.11,0.192,0.474
	c0.069,0.284-0.092,0.538,0.095,0.735c0.264,0.273,0.651-0.183,0.824,0.416c0.103,0.356-0.042,0.933-0.285,0.975
	c-0.231,0.737,0.697,1.284-0.158,1.516c-0.326,0.088-0.682-0.187-0.761,0.406c0.028,0.012,0.056,0.018,0.083,0.03
	c-0.212,0.731,0.776,0.472,0.208,1.329c0.194,0.039,0.315,0.146,0.468,0.293c0.027,0.229-0.003,0.463-0.085,0.655
	c0.11-0.03,0.262,0.05,0.374,0.024c-0.037,0.682,0.223,0.143,0.343,0.186c0.228,0.078,0.213,0.353,0.484,0.214
	c0.095-0.048,0.723-1.269,0.681-0.286c0.633-0.044,0.213,0.501,0.175,0.859c-0.051,0.483,0.179,0.389,0.344,0.848
	c0.162,0.445,0.503,1.727,0.33,2.201c-0.145-0.061-0.181-0.08-0.228-0.277c-0.127-0.254-0.374-0.354-0.543-0.191
	c-0.108-0.18-0.188-0.375-0.241-0.576c-0.106-0.037-0.282-0.065-0.413-0.045c-0.354,0.762-2.16-1.181-1.946,0.482
	c-0.656,0.18-1.125-1.094-1.637,0.064c-0.332-0.178-0.854,0.113-1-0.484c-0.139,0.004-0.32-0.009-0.435,0.092
	c-0.223,0.202-0.059,0.437-0.188,0.63c-0.193,0.287-0.604,0.221-0.862,0.36c-0.001,0.526-0.459,0.436-0.483,0.849
	c0.342-0.062,0.466,0.447,0.335,0.806c0.066-0.012,0.161,0.043,0.229,0.027c0,0.52,0.265,1.551,0.721,0.875
	c0.013,0.065,0.006,0.126,0.016,0.189c0.131-0.082,0.288-0.176,0.416-0.254c0.042,0.191,0.109,0.379,0.115,0.589
	c0.261,0.051,0.406-0.215,0.609-0.39c-0.022,0.156,0.033,0.369,0.016,0.527c0.317-0.016,0.485-0.479,0.802-0.456
	c0.002,0.083,0.013,0.169,0.016,0.253c0.283,0.051,1.027-0.467,0.852,0.424c-0.233,0.23-0.506,0.184-0.8,0.153
	c-0.077,0.229-0.125,0.454-0.166,0.688c-0.279-0.011-0.489,0.019-0.747-0.071c-0.289-0.1-0.521-0.464-0.799-0.191
	c-0.159,0.16,0.035,0.492-0.176,0.726c-0.114,0.124-0.29-0.021-0.399,0.077c-0.352,0.318-0.142,0.73-0.624,0.729
	c-0.169,0-0.264-0.248-0.437-0.188c-0.183,0.061-0.236,0.419-0.321,0.511c-0.339,0.375-0.544,0.028-0.933,0.232
	c-0.464,0.249-0.629,1.121-1.273,0.588c-0.507,0.984-1.043-0.244-1.46,0.668c0.062,0.086,0.096,0.291,0.146,0.361
	c-0.262,0.112-0.498-0.032-0.757-0.06c-0.375,1.058-0.793,1.185-1.456,0.539c-0.664,0.336-0.959,0.705-1.743,0.752
	c-0.728,0.043-1.255,0.059-1.631,0.838c0.284,0.381,0.019,0.615-0.192,0.887c0.428,0.189,0.371,0.393,0.396,1.01
	c0.52-0.131,0.541,0.771,1.052,0.207c0.318,0.65,0.486,0.523,1.053,0.49c0.01,0.234,0.028,0.432,0.063,0.654
	c0.413,0.111,0.607-0.383,1.053-0.121c0.381,0.221,0.477,0.57,0.295,1.127c0.454,0.291,0.071,0.961,0.372,1.184
	c-0.301,0.895,0.442,0.365,0.671,0.598c0.308,0.316,0.119,1.021-0.044,1.283c-0.029,0.051,0.171,0.582,0.064,0.801
	c-0.138,0.279-0.422,0.17-0.614,0.256c-0.224,0.1-0.405,0.322-0.626,0.418c-0.573,0.246-1.131-0.252-1.696,0.189
	c-0.311,0.244-0.28,0.35-0.746,0.336c-0.242-0.002-0.511-0.057-0.745,0.002c-0.411,0.102-0.276,0.387-0.581,0.539
	c-0.207,0.355-0.698,0.105-0.83,0.512c-0.203,0.633,0.44,1.5-0.47,1.316c-0.193,0.367-0.131,0.941,0.047,1.316
	c0.43,0.15,0.575-0.443,0.953-0.531c0.236-0.055,0.304,0.078,0.52,0.057c0.236-0.025,0.225-0.475,0.457-0.063
	c0.223,0.398-0.269,1.207,0.423,1.01c0.093-0.029,0.08-0.336,0.189-0.385c0.089-0.041,0.201,0.033,0.28,0.004
	c0.117-0.045,0.394-0.045,0.54-0.086c0.491-0.137,0.74-0.123,1.158-0.592c0.424-0.473,0.661-0.131,1.055-0.424
	c0.182-0.133,0.581-0.965,0.883-0.486c0.214,0.33-0.283,0.645-0.388,0.725c-0.202,0.16-0.369,0.16-0.625,0.205
	c-0.352,0.061-0.361,0.025-0.678,0.268c0.083,0.563-0.182,0.367-0.396,0.547c-0.3,0.254-0.254-0.039-0.335,0.508
	c-0.046,0.313,0.171,0.771-0.048,0.986c-0.208,0.201-0.477-0.145-0.493-0.436c-0.282,0.047-0.452,0.119-0.722,0.174
	c-0.196,0.041-0.682,0.219-0.855,0.141c-0.328-0.143-0.308-0.701-0.71-0.699c-0.21,0.004-0.212,0.199-0.363,0.258
	c-0.186,0.08-0.158,0.057-0.364,0.08C5.269,53.338,4.62,53.354,4.39,53.75c-0.246,0.426,0.092,0.709-0.373,0.914
	c-0.3,0.133-0.467-0.104-0.772,0.197c-0.171,1.063-0.419,0.855-1.059,1.084c-0.139,0.285-0.133,0.531-0.299,0.773
	C1.75,56.911,1.549,56.895,1.417,57.1c-0.288,0.449-0.128,1.309-0.246,1.924c0.23,0.053,0.444-0.055,0.482-0.385
	c0.517,0.16,0.28-0.582,0.617-0.693c0.247-0.082,0.224,0.281,0.385,0.348c0.195,0.08,0.322,0.041,0.521-0.018
	c0.414-0.119,0.474-0.184,0.914,0.096c0.25,0.154,0.675,0.283,0.579,0.77c-0.146,0.107-0.383,0.061-0.508,0.191
	c-0.186,0.195-0.105,0.5-0.358,0.635c-0.224,0.115-0.485-0.115-0.701-0.006c-0.202,0.109-0.209,0.404-0.434,0.455
	c-0.027,0.111-0.074,0.189-0.117,0.279c-0.155-0.061-0.303-0.037-0.46-0.061c-0.317,0.674-0.479,1.58-1.157,1.605
	c-0.18,0.699-1.064,1.021-0.918,1.729c0.454,0.037,0.514-0.113,0.618,0.484c0.079,0.439-0.123,0.977,0.423,0.727
	c0.121-0.055,0.173-0.402,0.262-0.445c0.208-0.107,0.299,0.129,0.46,0.143c0.211,0.012,0.188-0.004,0.395-0.068
	c0.207-0.066,0.226-0.279,0.475-0.211c0.006,0.238,0.01,0.488,0.014,0.725c0.34,0.125,0.868-0.414,1.198-0.586
	c0.26-0.135,0.249-0.178,0.433-0.416c0.142-0.184-0.002-0.545,0.378-0.402c-0.106,0.654,0.241,0.377,0.357,0.719
	c0.113,0.328-0.09,0.789,0.193,1.018c0.313,0.252,0.284-0.271,0.514-0.477c0.23-0.199,0.645-0.104,0.91-0.125
	c0.053-0.719,1.052-0.021,1.026-0.932c0.255-0.148,0.513-0.152,0.804-0.135c-0.028,0.709,0.558,0.625,0.092,1.387
	c-0.626,0.135-1.631,0.352-2.154,0.771c-0.306,0.242-0.493,0.428-0.832,0.631C5.439,66.86,5.189,66.948,5.1,67.178
	c-0.163,0.422,0.119,0.518,0.068,0.99c0.406,0.213,0.431-0.105,0.727-0.326c0.314-0.238,0.254-0.186,0.664-0.068
	c0.46,0.127,0.496-0.063,0.868-0.326c0.285-0.205,0.529-0.141,0.817-0.271c0.311-0.139,0.9-0.957,1.157-0.154
	c0.12,0.383-0.316,0.594,0.143,0.734c0.3,0.09,0.393-0.348,0.715-0.266c0.091-0.457-0.272-0.586,0.008-0.932
	c0.092-0.109,0.332,0.057,0.443-0.021c0.191-0.139,0.163-0.346,0.29-0.461c0.368-0.326,0.373,0.139,0.808-0.014
	c0.316-0.105,0.385-0.721,0.762-0.447c0.095,0.33-0.009,0.496-0.042,0.699c-0.012,0.072-0.081,0.539-0.104,0.646
	c-0.093,0.396,0.074,0.295-0.232,0.471c-0.084,0.053-0.421,0.008-0.529,0c-0.589-0.021-0.805,0.201-1.312,0.439
	c-0.236,0.111-0.412,0.336-0.622,0.424c-0.283,0.121-0.487-0.197-0.726-0.217c-0.304-0.029-0.334,0.201-0.552,0.287
	c-0.174,0.072-0.553-0.066-0.7,0.064c-0.066,0.061-0.147,0.146-0.186,0.213c0.224,0.344,0.469,0.875,0.187,1.215
	c-0.093,0.109-0.518,0.127-0.624,0.205c-0.057-0.016-0.115-0.031-0.173-0.027c-0.353,0.367,0.35,0.734,0.128,1.391
	c0.327,0.662,0.623-0.1,0.97-0.203c0.134-0.039,0.457-0.008,0.578,0.02c0.345,0.068,0.25,0.088,0.483,0.32
	c0.232,0.232,0.651,0.77,0.721-0.131c0.019-0.236-0.235-0.594-0.127-0.82c0.096-0.195,0.511-0.162,0.649-0.188
	c-0.093,0.893-0.21,1.465,0.334,2.178c0.066,0.084,0.155,0.197,0.244,0.314h24.787C33.313,69.889,30.526,66.149,30.393,66.194z" class="color c1"/>
</svg>