<svg version="1.1" id="图层_1" x="0px" y="0px" width="161.074px" height="119.494px" viewBox="0 0 161.074 119.494" enable-background="new 0 0 161.074 119.494" xml:space="preserve" xmlns:xml="http://www.w3.org/XML/1998/namespace" xmlns="http://www.w3.org/2000/svg" xmlns:xlink="http://www.w3.org/1999/xlink">
  <path fill="#392E42" d="M92.669,40.506l19.476-19.086c0,0,13.049,18.209-3.506,34.275L92.669,40.506z" class="color c1"/>
  <path fill="#FFFFFF" d="M130.232,106.072c-1.313-9.546-24.361-16.158-24.361-16.158c-13.875-7.735,3.5-11.167,3.5-11.167
	c13.729-0.291,22.166-4.5,22.166-4.5c9.055-4.525-4.833-7.5-4.833-7.5c-5.558-2.188,1-3.333,1-3.333l7.167,0.5
	c-2.593-1.309-14.834-0.334-14.834-0.334c-10.371,2.774,1.167,3.667,1.167,3.667c17.524,3.73-2.417,8-2.417,8l-26.119,4.167
	c-17.813,3.36-7.798,8.5-7.798,8.5c10.08,4.972,6,13.166,6,13.166c-3.8,9.348-25.5,6.092-25.5,6.092
	C16.295,94.608,51.037,40.581,51.037,40.581C65.059,18.081,55.288,0,55.288,0l52.769,53.309c0,0,1.557-7.35,4.866-12.412
	c0,0,5.063-9.154-0.776-19.477l48.929,48.794C161.074,70.214,151.559,91.851,130.232,106.072z" class="color c2"/>
  <path fill="#392E42" d="M107.878,88.563c-13.877-7.735,2.629-8.33,2.629-8.33c13.729-0.291,23.224-5.551,23.224-5.551
	c9.06-4.526-4.821-8.033-4.821-8.033c-5.558-2.188-0.729-1.897-0.729-1.897l7.264,0.293c5.222-0.438,3.983-1.022,3.983-1.022
	c-7.889-2.92-20.739-0.877-20.739-0.877c-10.371,2.774,0.146,4.463,0.146,4.463c17.525,3.731-1.461,6.492-1.461,6.492l-28.77,3.944
	c-17.813,3.361-7.162,10.521-7.162,10.521c10.078,4.973,6.572,11.098,6.572,11.098c-3.799,9.348-19.281,6.57-19.281,6.57
	C19.657,93.671,52.96,42.156,52.96,42.156C66.983,19.656,55.307,0,55.307,0L0,55.683c9.837,36.745,43.352,63.811,83.201,63.811
	c17.521,0,33.814-5.246,47.418-14.236C127.596,96.278,107.878,88.563,107.878,88.563z" class="color c1"/>
</svg>