<svg version="1.1" id="图层_1" x="0px" y="0px" width="599.711px" height="225.561px" viewBox="0 0 599.711 225.561" enable-background="new 0 0 599.711 225.561" xml:space="preserve" xmlns="http://www.w3.org/2000/svg" xmlns:xlink="http://www.w3.org/1999/xlink" xmlns:xml="http://www.w3.org/XML/1998/namespace">
  <path fill="#D3B178" d="M515.863,59.106c-3.889,0-3.889-5.833,0-5.833c26.442-1.167,54.051-3.5,80.492-0.389
	c4.666,0.389,4.277,6.61,0,7C569.914,62.606,542.306,60.273,515.863,59.106L515.863,59.106z M498.754,89.048
	c9.332,1.167,19.441,2.333,28.774,1.556c3.11-0.389,3.499-4.667,0-5.055c-9.333-1.167-19.442,0.389-28.774,1.556
	C497.198,86.715,497.198,88.659,498.754,89.048L498.754,89.048z M561.748,89.048c9.722,0,19.055-0.389,28.775-1.555
	c3.888-0.39,3.888-5.444,0-5.833c-9.722-0.777-19.055-1.167-28.775-1.556C556.304,80.493,556.304,89.437,561.748,89.048
	L561.748,89.048z M484.366,121.324c14.389,0.776,28.775,1.556,43.163,0.776c3.11-0.389,3.11-4.666,0-4.666
	c-14.388-0.776-28.774-0.389-43.163,0.777C482.033,117.824,482.033,120.934,484.366,121.324L484.366,121.324z M475.812,153.21
	c5.833,0.389,11.276,0.389,17.109,0c2.722-0.391,2.722-4.278,0-4.278c-5.833-0.389-11.276-0.389-17.109,0
	C472.7,148.931,472.7,153.21,475.812,153.21L475.812,153.21z M83.848,59.106c3.889,0,3.889-5.833,0-5.833
	c-26.442-1.167-54.05-3.5-80.493-0.389c-4.666,0.389-4.277,6.61,0,7C29.409,62.606,57.406,60.273,83.848,59.106L83.848,59.106z
	 M100.958,89.048c1.556,0,1.556-1.944,0-2.333c-9.333-1.167-19.442-2.333-28.775-1.555c-3.5,0.389-3.111,4.666,0,5.055
	C81.515,91.381,91.625,90.214,100.958,89.048L100.958,89.048z M37.575,89.048c5.444,0,5.444-8.555,0-8.555
	c-9.721,0-19.054,0.389-28.775,1.556c-3.889,0.389-3.5,5.444,0,5.833C18.521,88.659,28.242,89.048,37.575,89.048L37.575,89.048z
	 M115.345,121.324c2.333,0,2.333-3.111,0-3.5c-14.388-0.777-28.775-1.556-43.163-0.777c-3.111,0.389-3.111,4.666,0,4.666
	C86.57,122.879,100.958,122.1,115.345,121.324L115.345,121.324z M123.9,153.21c2.722,0,2.722-4.278,0-4.278
	c-5.833-0.389-11.276-0.389-17.109,0c-2.722,0.391-2.722,4.278,0,4.278C112.624,153.598,118.067,153.598,123.9,153.21L123.9,153.21z
	 M321.825,113.546c-5.055-6.611-10.499-14-15.554-20.61c9.333-12.054,3.889-6.609,8.166-13.609c0,0,8.943-19.055,13.999-27.998
	l12.832-13.61l4.277,2.722l-10.499,27.998l18.274-23.331l2.724,1.556l-31.887,53.662c0,0,27.608-30.331,39.273-48.996l3.111,1.943
	c0,0-7.39,20.609-38.497,54.052C325.714,110.435,324.548,110.824,321.825,113.546z M221.502,47.052c0,0-3.111-1.167-5.055-0.389
	c0,0-13.609,15.942-17.109,22.165c-3.5,6.222-10.499,26.441-10.499,26.441s-32.664-16.721-43.94-55.605
	c0,0,33.441-6.61,47.051-12.443c11.666-4.666,15.554-7.777,19.443-10.499c-0.778-1.167-1.556-3.5-1.556-3.5l20.22-13.221
	l1.944,1.556c-4.277,3.5-8.555,7-12.832,10.11c0,0,0,0.389,0,0c6.61-3.111,12.832-6.611,19.054-10.11
	c0.389-0.389,0.778-0.389,1.167-0.778c1.167,1.167,9.722,8.944,15.554,20.221l-0.389,5.833L221.502,47.052z M208.67,46.663
	c-7,7.388-15.165,12.832-23.331,18.665c-0.778,0-1.167,0-1.944-0.39c-7.777-1.943-5.055-3.888-10.499-5.055
	c-5.055-1.167-7.777-1.944-11.666-7s-2.722-11.666-2.722-11.666l-6.999,0.778c0,0,8.555,28.774,34.219,44.329
	c0,0,2.333-7.777,5.444-15.166c2.333-3.111,4.277-6.61,6.611-9.722C202.06,56.773,205.559,51.718,208.67,46.663
	C209.059,46.663,208.67,46.274,208.67,46.663z M344.379,158.264c4.666,5.832,36.553,54.828,36.553,54.828
	c-10.11,20.609-35.386,8.943-35.386,8.943c-8.556-38.886-31.887-67.271-61.828-99.547c-31.108-33.442-50.94-68.827-50.94-68.827
	l2.722-1.557c11.666,18.665,38.885,49.385,38.885,49.385L243.277,47.44l2.722-1.556l17.887,23.331l-10.499-27.997l4.666-2.722
	l12.832,13.609c5.055,8.944,13.999,27.998,13.999,27.998C297.329,99.936,340.102,152.82,344.379,158.264z M350.989,199.873
	c-4.276-7.39-8.555-14.777-13.998-21.388l0,0c5.443,10.888,10.499,21.775,12.832,33.441c0.777,3.888,1.557,8.165,6.61,8.555
	c4.666,0.39,10.109-2.334,14.388-4.276c1.166-0.391,0.39-1.945-0.389-1.945c-2.333-0.389-4.667-0.389-7-1.166
	c-1.166-0.389-3.89-0.389-4.666-1.166c-1.166-1.168-2.333-4.278-3.11-5.834C353.322,203.76,352.156,201.815,350.989,199.873z
	 M455.202,39.275c-11.275,38.886-43.939,55.606-43.939,55.606s-6.223-21.387-10.499-28.386c-3.11-5.056-17.498-20.221-17.498-20.221
	c-1.944-0.777-5.057,0.39-5.057,0.39l-33.44-19.832l-0.389-5.833c6.222-12.055,15.555-20.221,15.555-20.221
	c1.555,0.39,3.888,1.557,6.222,2.723l3.889-3.111l20.608,13.221c-6.222-1.556-12.442-3.889-18.274-6.61c0,0-0.391,0,0,0.389
	c5.832,4.277,12.054,8.555,18.663,11.666c0.778,0.389,1.557,0.777,1.944,1.167c3.111,1.944,7.389,4.277,14.776,7.388
	C421.761,32.664,455.202,39.275,455.202,39.275z M448.98,44.33c0.389-1.167,0-2.723-1.166-2.723
	c-5.444-0.777-10.499-1.555-15.943-2.333l0,0c3.5,1.556,6.999,3.111,10.499,4.277c0,1.556-0.389,3.889-1.556,6.222
	c-0.777,1.167-1.944,2.723-2.722,3.89c-3.5,4.276-5.833,5.055-10.889,5.833h-0.389c-0.39-0.39-1.167-0.39-1.556,0.389l-0.39,0.389
	c-1.167,0.778-1.556,1.167-2.723,1.944c-2.333,1.555-5.055,1.944-8.555,1.167c-2.333-0.389-5.056-1.556-6.999-2.333
	c-3.5-2.333-6.999-3.889-10.11-7h-0.389c2.722,3.889,6.609,7,9.332,10.888c1.167,1.944,2.333,3.5,3.5,5.444
	c3.109,6.999,5.443,14.776,5.443,14.776c17.888-10.499,27.608-27.221,31.887-36.553C447.036,48.218,448.203,46.274,448.98,44.33z
	 M287.607,149.71c0.389,1.166,1.167,1.942,1.556,3.109c-18.276,22.555-28.775,41.607-34.997,69.604c0,0-25.275,11.277-35.385-8.943
	c0,0,31.886-48.996,36.552-54.828c1.944-2.333,7.388-10.109,17.887-23.332c1.555,0.778,2.722,1.558,4.277,2.335
	c-0.389,1.165-1.167,2.722-1.556,4.276c-1.555,4.666-4.277,8.943-7,13.221c0,0,0,0.39,0.389,0c3.5-3.5,7-6.998,10.888-10.108
	c1.167-0.778,1.944-1.558,3.111-2.334l0,0c-0.389,0.776-0.777,1.943-1.167,2.723c-1.555,3.499-4.666,6.999-6.61,10.498
	c-3.889,7-8.166,13.999-12.055,20.998c0,0.39,0,0.39,0.389,0c5.055-6.609,10.11-13.221,15.943-19.053
	C281.774,155.153,284.496,151.653,287.607,149.71L287.607,149.71z M253.777,196.373
	C253.777,196.373,253.777,195.983,253.777,196.373c-1.555,2.333-2.722,4.666-4.277,6.609c-1.944,2.723-4.666,4.666-6.61,6.999
	c-0.389,0.39-1.556,1.557-1.556,1.945c-0.778,0-1.944,0-2.722,0c-1.167,0-2.333,0.389-3.5,0.777
	c-1.555,0.389-3.888,1.555-5.055,1.555s-1.555,1.556-0.777,2.334c3.5,2.332,5.444,3.889,9.721,4.277c3.111,0,5.444-0.39,7.388-3.111
	c1.944-2.333,3.111-5.443,3.5-8.555C251.055,204.927,252.61,200.649,253.777,196.373z" class="color c1"/>
</svg>