<svg version="1.1" id="图层_1" x="0px" y="0px" width="236.965px" height="236.966px" viewBox="0 0 236.965 236.966" enable-background="new 0 0 236.965 236.966" xml:space="preserve" xmlns="http://www.w3.org/2000/svg" xmlns:xlink="http://www.w3.org/1999/xlink" xmlns:xml="http://www.w3.org/XML/1998/namespace">
  <path fill="#5A1822" d="M118.483,236.966C53.151,236.966,0,183.814,0,118.482S53.151,0,118.483,0
	c65.331,0,118.482,53.15,118.482,118.482S183.814,236.966,118.483,236.966z" class="color c1"/>
  <path fill="#DCC412" d="M118.483,5.538C56.205,5.538,5.538,56.205,5.538,118.482c0,62.276,50.667,112.943,112.945,112.943
	c62.277,0,112.943-50.667,112.943-112.943C231.426,56.205,180.76,5.538,118.483,5.538z" class="color c2"/>
  <polygon opacity="0.5" fill="#FFFFFF" points="118.482,104.31 125.156,12.392 120.259,104.42 138.401,14.062 122.006,104.753 
	151.333,17.382 123.7,105.303 163.746,22.296 125.311,106.062 175.442,28.729 126.815,107.016 186.243,36.574 128.185,108.149 
	195.973,45.712 129.403,109.449 204.483,55.999 130.45,110.889 211.635,67.27 131.306,112.448 217.321,79.351 131.963,114.102 
	221.446,92.048 132.406,115.827 223.948,105.157 132.628,117.593 224.786,118.482 132.628,119.37 223.948,131.806 132.406,121.137 
	221.446,144.919 131.963,122.861 217.321,157.614 131.306,124.516 211.635,169.693 130.45,126.076 204.483,180.965 129.403,127.516 
	195.973,191.25 128.185,128.815 186.243,200.39 126.815,129.947 175.442,208.235 125.311,130.9 163.746,214.669 123.7,131.66 
	151.333,219.582 122.006,132.209 138.401,222.902 120.259,132.544 125.156,224.574 118.482,132.655 111.809,224.574 
	116.706,132.544 98.564,222.902 114.956,132.209 85.633,219.582 113.266,131.66 73.222,214.669 111.655,130.9 61.523,208.235 
	110.149,129.947 50.722,200.39 108.781,128.815 40.992,191.25 107.562,127.516 32.48,180.965 106.516,126.076 25.33,169.693 
	105.658,124.516 19.645,157.614 105.001,122.861 15.519,144.919 104.559,121.137 13.018,131.806 104.337,119.37 12.18,118.482 
	104.337,117.593 13.018,105.157 104.559,115.827 15.519,92.048 105.001,114.102 19.645,79.351 105.658,112.448 25.33,67.27 
	106.516,110.889 32.48,55.999 107.562,109.449 40.992,45.712 108.781,108.149 50.722,36.574 110.149,107.016 61.523,28.729 
	111.655,106.062 73.222,22.296 113.266,105.303 85.633,17.382 114.956,104.753 98.564,14.062 116.706,104.42 111.809,12.392 " class="color c3"/>
</svg>