<svg version="1.1" id="图层_1" x="0px" y="0px" width="128.196px" height="159.162px" viewBox="0 0 128.196 159.162" enable-background="new 0 0 128.196 159.162" xml:space="preserve" xmlns="http://www.w3.org/2000/svg" xmlns:xlink="http://www.w3.org/1999/xlink" xmlns:xml="http://www.w3.org/XML/1998/namespace">
  <path fill="#BD1F21" d="M114.036,74.9c-2.016-2.347-4.096-4.607-6.233-6.773c10.168-22.676,16.363-43.862,19.713-57.3
	C126.313,24.284,123.01,48.699,114.036,74.9z M128.118,2.164C128.183,0.757,128.196,0,128.196,0
	c-9.221,22.889-23.142,40.101-38.456,53.029c1.767,1.194,3.516,2.445,5.242,3.764C105.95,43.698,117.438,26.016,128.118,2.164z
	 M100.149,83.918c-9.651,18.438-22.013,36.91-37.673,52.204c6.313-24.563,8.388-41.305,8.388-41.305l-27.651-1.201
	c0,0,17.397-2.85,39.439-23.681c-3.022-1.902-6.075-3.571-9.131-4.997C53.501,77.712,33.074,84.44,18.847,87.897
	c-1.425,0.347-2.781,0.656-4.075,0.94c-1.574,0.345-3.051,0.648-4.409,0.909c-1.437,0.276-2.749,0.509-3.916,0.703
	C2.354,91.131,0,91.344,0,91.344l6.67,1.879l4.105,1.157l3.593,1.012l3.919,1.104l32.146,9.059c0,0,3.85,22.328,3.603,53.607
	c25.669-17.048,42.458-42.104,53.438-67.314C105.122,89.057,102.674,86.407,100.149,83.918z" class="color c1"/>
</svg>