<svg version="1.1" id="图层_1" x="0px" y="0px" width="167.013px" height="167.272px" viewBox="0 0 167.013 167.272" enable-background="new 0 0 167.013 167.272" xml:space="preserve" xmlns="http://www.w3.org/2000/svg" xmlns:xlink="http://www.w3.org/1999/xlink" xmlns:xml="http://www.w3.org/XML/1998/namespace">
  <path fill="#D86948" d="M88.164,1.931c-0.033,0.971-0.834,1.761-1.834,1.761v1l-0.044-0.999c-0.914-0.033-1.861-0.053-2.785-0.053
	c-1.004,0-1.794-0.816-1.794-1.819c0-1.004,0.836-1.82,1.84-1.82c0.968,0,1.903,0.015,2.86,0.045
	C87.413,0.082,88.199,0.927,88.164,1.931z M143.906,25.747c-0.348-0.362-0.813-0.562-1.313-0.562c-0.472,0-0.92,0.181-1.26,0.509
	c-0.725,0.696-0.748,1.85-0.054,2.572c1.347,1.411,2.605,2.819,3.742,4.188c0.62,0.74,1.809,0.857,2.566,0.228
	c0.77-0.643,0.874-1.794,0.23-2.564C146.53,28.576,145.214,27.105,143.906,25.747z M135.225,17.873
	c-1.543-1.213-3.136-2.379-4.734-3.466c-0.302-0.204-0.656-0.313-1.021-0.313c-0.605,0-1.172,0.299-1.514,0.799
	c-0.561,0.828-0.344,1.964,0.486,2.527c1.522,1.033,3.047,2.149,4.532,3.316c0.772,0.604,1.956,0.457,2.56-0.309
	C136.151,19.64,136.014,18.493,135.225,17.873z M145.666,135.054c-0.532,0-1.037,0.231-1.385,0.635
	c-1.201,1.4-2.479,2.791-3.797,4.129c-0.344,0.347-0.53,0.804-0.527,1.29c0.003,0.487,0.195,0.943,0.541,1.285
	c0.69,0.683,1.891,0.675,2.571-0.016c1.371-1.385,2.71-2.838,3.98-4.319c0.315-0.368,0.469-0.838,0.432-1.323
	c-0.038-0.485-0.262-0.926-0.631-1.242C146.521,135.21,146.101,135.054,145.666,135.054z M118.507,155.797
	c-0.268,0-0.527,0.06-0.771,0.176c-1.672,0.791-3.403,1.538-5.148,2.221c-0.454,0.176-0.81,0.518-1.005,0.962
	c-0.196,0.446-0.207,0.942-0.029,1.397c0.354,0.91,1.39,1.403,2.36,1.032c1.807-0.704,3.617-1.484,5.376-2.317
	c0.907-0.431,1.296-1.521,0.866-2.43C119.855,156.207,119.207,155.797,118.507,155.797z M120.346,8.51
	c-1.742-0.854-3.545-1.661-5.359-2.4c-0.215-0.086-0.444-0.13-0.679-0.13c-0.75,0-1.415,0.444-1.693,1.133
	c-0.376,0.931,0.074,1.997,1.005,2.377c1.694,0.686,3.418,1.457,5.12,2.291c0.877,0.43,2.008,0.047,2.438-0.832
	C121.619,10.045,121.246,8.952,120.346,8.51z M133.176,146.856c-0.402,0-0.786,0.13-1.11,0.376
	c-1.509,1.154-3.047,2.248-4.569,3.247c-0.837,0.551-1.069,1.684-0.517,2.523c0.528,0.808,1.697,1.058,2.518,0.518
	c1.617-1.063,3.226-2.204,4.784-3.396c0.388-0.295,0.636-0.724,0.7-1.206s-0.063-0.959-0.357-1.344
	C134.275,147.117,133.748,146.856,133.176,146.856z M156.303,121.122c-0.271-0.146-0.563-0.221-0.869-0.221
	c-0.67,0-1.283,0.364-1.602,0.95c-0.898,1.647-1.859,3.272-2.858,4.831c-0.541,0.847-0.293,1.977,0.553,2.518
	c0.832,0.53,1.995,0.263,2.513-0.55c1.04-1.62,2.045-3.32,2.99-5.056c0.234-0.428,0.287-0.919,0.149-1.386
	C157.042,121.741,156.73,121.355,156.303,121.122z M165.253,88.122c-0.056-0.005-0.107-0.007-0.159-0.007
	c-0.949,0-1.721,0.725-1.793,1.686c-0.148,1.911-0.356,3.786-0.62,5.575c-0.07,0.482,0.051,0.963,0.341,1.354
	s0.716,0.644,1.197,0.714c1.011,0.152,1.922-0.562,2.065-1.534c0.281-1.93,0.5-3.892,0.647-5.832
	C167.008,89.077,166.255,88.199,165.253,88.122z M103.833,2.477c-1.896-0.471-3.827-0.881-5.74-1.219
	c-0.111-0.02-0.222-0.029-0.329-0.029c-0.88,0-1.629,0.637-1.781,1.514c-0.171,0.988,0.493,1.934,1.479,2.104
	c1.812,0.317,3.658,0.708,5.491,1.162c0.986,0.264,1.968-0.361,2.21-1.324C105.404,3.711,104.808,2.719,103.833,2.477z
	 M162.532,105.096c-0.17-0.05-0.344-0.075-0.518-0.075c-0.801,0-1.519,0.538-1.746,1.309c-0.528,1.792-1.127,3.58-1.777,5.314
	c-0.352,0.941,0.126,1.994,1.064,2.346c0.944,0.352,2.007-0.154,2.347-1.063c0.685-1.826,1.31-3.7,1.857-5.569
	c0.14-0.468,0.088-0.958-0.145-1.385C163.383,105.544,162.998,105.233,162.532,105.096z M160.58,62.018
	c0.263,0.936,1.173,1.556,2.247,1.26c0.465-0.13,0.855-0.436,1.095-0.86c0.238-0.424,0.298-0.915,0.166-1.383
	c-0.527-1.876-1.127-3.758-1.781-5.592c-0.259-0.72-0.946-1.204-1.711-1.204c-0.209,0-0.418,0.036-0.619,0.108
	c-0.456,0.162-0.822,0.494-1.03,0.935c-0.208,0.439-0.232,0.933-0.069,1.389C159.498,58.405,160.071,60.205,160.58,62.018z
	 M154.676,39.626c-0.333-0.539-0.912-0.86-1.548-0.86c-0.337,0-0.667,0.095-0.956,0.273c-0.416,0.257-0.705,0.658-0.816,1.131
	c-0.112,0.474-0.032,0.964,0.225,1.379c0.979,1.578,1.916,3.215,2.786,4.862c0.45,0.861,1.566,1.229,2.465,0.762
	c0.426-0.224,0.742-0.604,0.886-1.069c0.144-0.464,0.097-0.955-0.13-1.385C156.688,43.005,155.708,41.292,154.676,39.626z
	 M163.192,71.651c-0.296,0.386-0.423,0.863-0.358,1.345c0.245,1.85,0.427,3.729,0.54,5.584c0.059,0.959,0.855,1.71,1.815,1.71
	l0.126-0.004c0.988-0.063,1.755-0.927,1.694-1.926c-0.118-1.962-0.31-3.926-0.567-5.839c-0.117-0.905-0.892-1.584-1.8-1.584
	c-0.081,0-0.162,0.005-0.245,0.016C163.916,71.018,163.487,71.265,163.192,71.651z M16.235,37.062
	c-0.297-0.196-0.643-0.301-0.999-0.301c-0.616,0-1.187,0.306-1.524,0.817c-1.093,1.658-2.123,3.344-3.062,5.006
	c-0.239,0.424-0.298,0.915-0.167,1.385c0.131,0.469,0.436,0.857,0.857,1.096c0.854,0.482,2.01,0.153,2.484-0.688
	c0.932-1.647,1.917-3.259,2.93-4.789C17.307,38.75,17.074,37.616,16.235,37.062z M4.879,60.996c0.927,0.295,1.986-0.255,2.28-1.199
	c0.558-1.792,1.182-3.572,1.854-5.292c0.365-0.935-0.099-1.993-1.033-2.36c-0.21-0.081-0.434-0.123-0.661-0.123
	c-0.757,0-1.424,0.454-1.697,1.156c-0.715,1.827-1.369,3.69-1.944,5.54c-0.145,0.464-0.099,0.956,0.128,1.387
	S4.414,60.852,4.879,60.996z M1.9,77.937c0.071,0.008,0.119,0.009,0.167,0.009c0.931,0,1.726-0.729,1.811-1.657
	c0.168-1.867,0.404-3.741,0.702-5.568c0.079-0.479-0.034-0.962-0.319-1.356c-0.284-0.396-0.705-0.655-1.186-0.733
	c-0.107-0.018-0.21-0.026-0.312-0.026c-0.887,0-1.635,0.643-1.778,1.529c-0.313,1.905-0.561,3.864-0.736,5.825
	C0.159,76.958,0.899,77.846,1.9,77.937z M3.722,94.44c0.301-0.382,0.436-0.857,0.378-1.34c-0.216-1.83-0.37-3.71-0.461-5.591
	c-0.044-0.957-0.897-1.733-1.902-1.733c-1.004,0.048-1.781,0.904-1.734,1.907c0.092,1.946,0.254,3.913,0.481,5.843
	c0.116,0.992,1.037,1.71,2.025,1.594C2.988,95.063,3.421,94.822,3.722,94.44z M12.175,119.815c-0.313-0.616-0.938-1-1.627-1
	c-0.286,0-0.562,0.066-0.82,0.198c-0.894,0.458-1.255,1.557-0.801,2.448c0.885,1.74,1.84,3.466,2.838,5.129
	c0.501,0.836,1.662,1.129,2.498,0.628c0.417-0.25,0.712-0.646,0.831-1.118c0.118-0.473,0.045-0.963-0.205-1.38
	C13.92,123.103,13.007,121.452,12.175,119.815z M6.195,104.115c-0.211-0.799-0.94-1.355-1.772-1.355
	c-0.153,0-0.307,0.02-0.455,0.059c-0.971,0.258-1.553,1.257-1.296,2.228c0.508,1.913,1.078,3.802,1.695,5.612
	c0.314,0.922,1.335,1.476,2.309,1.137c0.463-0.157,0.835-0.484,1.051-0.922c0.214-0.437,0.246-0.931,0.089-1.391
	C7.229,107.768,6.684,105.962,6.195,104.115z M52.375,157.33c-1.731-0.735-3.442-1.532-5.085-2.371
	c-0.257-0.13-0.536-0.197-0.824-0.197c-0.689,0-1.313,0.381-1.627,0.992c-0.455,0.894-0.1,1.993,0.793,2.449
	c1.713,0.876,3.504,1.711,5.324,2.482c0.885,0.378,2.007-0.065,2.386-0.965C53.734,158.794,53.3,157.722,52.375,157.33z
	 M68.459,162.211c-1.817-0.35-3.657-0.769-5.47-1.246c-0.149-0.039-0.305-0.059-0.46-0.059c-0.83,0-1.558,0.557-1.769,1.354
	c-0.257,0.97,0.325,1.97,1.297,2.228c1.896,0.502,3.82,0.938,5.717,1.298c0.979,0.183,1.946-0.476,2.132-1.445
	c0.092-0.479-0.008-0.962-0.281-1.364C69.353,162.574,68.938,162.303,68.459,162.211z M21.314,133.909
	c-0.349-0.431-0.867-0.678-1.423-0.678c-0.42,0-0.814,0.14-1.141,0.404c-0.78,0.633-0.9,1.783-0.269,2.564
	c1.229,1.518,2.522,3.007,3.844,4.426c0.66,0.711,1.876,0.744,2.568,0.095c0.36-0.336,0.566-0.786,0.584-1.272
	c0.017-0.485-0.156-0.948-0.487-1.303C23.731,136.791,22.495,135.366,21.314,133.909z M85.241,163.636c-1.889,0-3.787,0-5.651-0.091
	c-0.89,0-1.853,0.695-1.906,1.729c-0.047,0.996,0.73,1.852,1.734,1.901c2.004,0.092,3.965,0.115,5.862,0.082
	c1.001-0.02,1.802-0.85,1.783-1.849C87.044,164.415,86.243,163.636,85.241,163.636z M102.308,161.47
	c-0.143,0-0.286,0.017-0.427,0.05c-1.883,0.438-3.733,0.803-5.505,1.085c-0.479,0.077-0.899,0.337-1.185,0.731
	c-0.284,0.395-0.398,0.877-0.32,1.357c0.155,0.975,1.103,1.663,2.094,1.509c1.903-0.307,3.839-0.689,5.746-1.137
	c0.977-0.229,1.585-1.212,1.357-2.191C103.874,162.048,103.149,161.47,102.308,161.47z M37.665,149.181
	c-1.493-1.046-3-2.184-4.478-3.38c-0.329-0.269-0.725-0.409-1.146-0.409c-0.554,0-1.068,0.245-1.413,0.672
	c-0.634,0.781-0.515,1.931,0.264,2.564c1.461,1.189,3.037,2.379,4.684,3.535c0.804,0.559,1.98,0.344,2.534-0.445
	c0.28-0.399,0.389-0.882,0.305-1.361C38.33,149.878,38.064,149.46,37.665,149.181z M24.297,25.39c-0.503,0-0.971,0.2-1.318,0.564
	c-0.665,0.695-1.32,1.406-1.957,2.124c-0.663,0.75-0.593,1.905,0.158,2.573c0.72,0.635,1.93,0.564,2.564-0.157
	c0.613-0.688,1.233-1.36,1.863-2.022c0.339-0.354,0.519-0.818,0.507-1.306c-0.012-0.484-0.211-0.936-0.562-1.269
	C25.211,25.569,24.767,25.39,24.297,25.39z M34.521,16.979c-0.385-0.384-0.98-0.563-1.455-0.482l-13.206,1.886
	c-0.648,0.091-1.18,0.534-1.385,1.155c-0.207,0.622-0.049,1.296,0.414,1.76l11.317,11.317c0.317,0.318,0.766,0.501,1.229,0.501
	c0.183,0,0.359-0.028,0.522-0.084c0.623-0.204,1.069-0.736,1.166-1.39l1.885-13.202C35.085,17.897,34.907,17.366,34.521,16.979z
	 M31.283,20.222l-1.076,7.537l-6.461-6.461L31.283,20.222z" class="color c1"/>
</svg>