<svg version="1.1" id="图层_1" x="0px" y="0px" width="220px" height="67.457px" viewBox="0 0 220 67.457" enable-background="new 0 0 220 67.457" xml:space="preserve" xmlns="http://www.w3.org/2000/svg" xmlns:xlink="http://www.w3.org/1999/xlink" xmlns:xml="http://www.w3.org/XML/1998/namespace">
  <path fill="#00A69C" d="M48.431,45.86c0,0,0.479-0.375,1.373-1.074c0.912-0.67,2.213-1.719,3.936-2.918
	c1.68-1.252,3.938-2.561,6.508-4.105c1.279-0.818,2.723-1.443,4.221-2.216c1.516-0.724,3.082-1.569,4.822-2.216
	c1.729-0.674,3.527-1.404,5.441-2.049c1.934-0.576,3.939-1.187,6.043-1.713c4.229-0.922,8.805-1.713,13.627-1.781
	c1.203-0.014,2.422-0.108,3.646-0.045c1.225,0.074,2.459,0.15,3.699,0.229c1.25,0.042,2.48,0.266,3.732,0.417
	c1.244,0.187,2.508,0.334,3.736,0.634c5.012,0.905,9.863,2.602,14.549,4.459c4.657,1.936,9.084,4.182,13.215,6.539
	c4.166,2.313,8.063,4.729,11.791,6.926c3.726,2.182,7.271,4.162,10.701,5.752c3.418,1.645,6.731,2.74,9.896,3.474
	c0.797,0.172,1.578,0.34,2.34,0.503c0.777,0.091,1.537,0.182,2.277,0.268c0.375,0.049,0.744,0.098,1.109,0.146
	c0.367,0.01,0.729,0.018,1.084,0.025c0.723,0.021,1.424,0.039,2.104,0.06c2.725-0.069,5.188-0.247,7.197-0.634
	c2.041-0.266,3.611-0.725,4.717-0.952c1.115-0.239,1.711-0.365,1.711-0.365s-0.486,0.358-1.402,1.032
	c-0.949,0.605-2.244,1.761-4.189,2.686c-0.961,0.475-1.992,1.141-3.221,1.618c-1.225,0.483-2.559,1.06-4.043,1.49
	c-0.758,0.19-1.535,0.39-2.338,0.594c-0.403,0.099-0.815,0.197-1.235,0.298c-0.424,0.061-0.854,0.119-1.287,0.182
	c-0.883,0.109-1.787,0.224-2.711,0.339c-0.926,0.049-1.879,0.054-2.858,0.077c-3.9-0.01-8.183-0.566-12.396-1.789
	c-4.234-1.186-8.494-2.844-12.666-4.745c-4.162-1.908-8.285-3.976-12.373-6.031c-4.109-2.022-8.17-4.049-12.297-5.69
	c-1.018-0.459-2.047-0.854-3.076-1.231c-1.033-0.376-2.053-0.813-3.094-1.108c-1.037-0.32-2.066-0.664-3.092-1.011
	c-1.037-0.278-2.074-0.558-3.104-0.835c-4.143-0.979-8.268-1.777-12.352-2.016c-4.074-0.369-8.076-0.245-11.914-0.049
	c-1.918,0.131-3.779,0.408-5.609,0.557c-1.824,0.212-3.566,0.579-5.277,0.814c-1.721,0.193-3.311,0.668-4.875,0.953
	c-1.553,0.324-3.061,0.586-4.418,0.967c-2.73,0.748-5.217,1.172-7.232,1.82c-2.004,0.617-3.635,0.998-4.721,1.303
	C49.021,45.714,48.431,45.86,48.431,45.86z" class="color c1"/>
  <path fill="#00A69C" d="M129.048,31.073c0,0,1.561,0.377,4.248,1.203c1.342,0.426,2.975,0.924,4.813,1.588
	c1.841,0.66,3.922,1.396,6.154,2.291c2.229,0.9,4.647,1.86,7.17,2.939c2.519,1.086,5.164,2.232,7.901,3.359
	c2.715,1.172,5.523,2.328,8.39,3.324c2.868,0.979,5.772,1.867,8.664,2.313c2.884,0.468,5.734,0.485,8.39-0.095
	c0.672-0.131,1.318-0.33,1.963-0.532c0.322-0.099,0.633-0.241,0.947-0.353l0.477-0.179l0.027-0.011
	c0.043-0.02-0.27,0.133-0.123,0.061l0.064-0.031l0.129-0.064l0.262-0.128c0.143-0.075,0.408-0.187,0.451-0.235
	c0.074-0.058,0.146-0.109,0.227-0.158c0.148-0.065,0.377-0.31,0.57-0.445c0.375-0.363,0.74-0.758,1.057-1.213
	c1.291-1.829,1.777-4.32,1.602-6.547c-0.141-2.266-1.059-4.271-2.369-5.73c-1.33-1.471-3.107-2.322-4.828-2.781
	c-1.725-0.439-3.375-0.56-4.736-0.525c-1.361,0.031-2.463,0.117-3.204,0.223c-0.75,0.086-1.148,0.131-1.148,0.131
	s0.365-0.169,1.053-0.486c0.688-0.326,1.727-0.75,3.122-1.129c1.385-0.422,3.16-0.701,5.279-0.61
	c2.111,0.059,4.623,0.782,6.877,2.519c2.25,1.741,3.881,4.586,4.494,7.746c0.586,3.168,0.186,6.739-1.693,10.008
	c-0.473,0.813-1.072,1.586-1.777,2.289c-0.395,0.34-0.684,0.666-1.189,1.006l-0.719,0.488c-0.268,0.178-0.365,0.206-0.557,0.318
	l-0.256,0.137l-0.125,0.068l-0.064,0.033l-0.227,0.105l-0.604,0.25c-0.406,0.159-0.803,0.346-1.221,0.479
	c-0.836,0.273-1.684,0.539-2.555,0.723c-3.471,0.816-7.113,0.721-10.503,0.131c-3.397-0.611-6.604-1.645-9.603-2.883
	c-2.998-1.233-5.834-2.594-8.532-3.943c-5.354-2.797-10.193-5.537-14.354-7.883C134.624,34.18,129.048,31.073,129.048,31.073z" class="color c1"/>
  <path fill="#00A69C" d="M148.704,67.457c-6.453-6.397-35.82-24.425-63.336-24.382C58.422,43.116,43.521,59.182,13.043,56.69
	c27.09,14.228,51.979,4.711,71.02,0.791C117.943,50.503,148.704,67.457,148.704,67.457z" class="color c1"/>
  <path fill="#00A69C" d="M205.3,44.114c-1.211,9.021-6.912,14.232-13.965,18.229c7.324-4.882,11.984-12.197,11.354-20.854
	c-0.781-8.732-7.418-17.645-12.803-24.199c-2.564-2.82-6.281-6.596-5.783-10.772c0.512-4.472,4.561-7.573,8.689-6.181
	c7.383,2.451,6.631,11.91,8.143,17.98C203.183,27.716,206.695,33.684,205.3,44.114z" class="color c1"/>
  <path fill="#00A69C" d="M219.32,14.198c-1.891,5.81-2.762,7.563-6.047,15.703c-1.604,3.977-5.184,13.299-6.859,17.041
	c2.334-10.683,1.387-15.404-0.48-22.49C201.755,8.588,224.123-0.569,219.32,14.198z" class="color c1"/>
  <path fill="#00A69C" d="M28.583,51.065C9.879,42.647,10.57,57.802,4.079,53.077c-9.057-6.6-1.119-16.006,5.377-13.873
	C16.915,40.999,23.816,45.153,28.583,51.065z" class="color c1"/>
</svg>