<svg version="1.1" id="图层_1" x="0px" y="0px" width="146.484px" height="123.125px" viewBox="0 0 146.484 123.125" enable-background="new 0 0 146.484 123.125" xml:space="preserve" xmlns:xml="http://www.w3.org/XML/1998/namespace" xmlns="http://www.w3.org/2000/svg" xmlns:xlink="http://www.w3.org/1999/xlink">
  <path fill="#F8B316" d="M45.299,55.922c10.913,0,19.791-8.879,19.791-19.793s-8.88-19.793-19.791-19.793
	c-10.915,0-19.795,8.879-19.795,19.793S34.384,55.922,45.299,55.922z M45.299,21.805c7.897,0,14.322,6.426,14.322,14.324
	s-6.426,14.324-14.322,14.324c-7.9,0-14.327-6.426-14.327-14.324S37.399,21.805,45.299,21.805z M42.565,0.863h5.469v11.459h-5.469
	V0.863z M42.565,59.898h5.469v11.461h-5.469V59.898z M30.409,54.863l-8.101,8.104L18.442,59.1l8.101-8.103L30.409,54.863z
	 M68.288,9.25l3.867,3.865l-8.093,8.101l-3.868-3.865L68.288,9.25z M68.277,62.968l-8.097-8.102L64.048,51l8.097,8.102
	L68.277,62.968z M22.305,9.254l8.099,8.099l-3.866,3.866l-8.1-8.099L22.305,9.254z M69.085,33.377h11.463v5.469H69.085V33.377z
	 M10.05,33.377h11.456v5.469H10.05V33.377z" class="color c1"/>
  <path fill="#00B5D4" d="M29.288,123.125c7.967,0,12.164-2.088,15.866-3.93c3.472-1.728,6.748-3.361,13.432-3.361
	c6.682,0,9.959,1.635,13.43,3.361c3.703,1.842,7.9,3.93,15.868,3.93c7.967,0,12.165-2.088,15.868-3.93
	c3.47-1.728,6.75-3.361,13.434-3.361c6.685,0,9.963,1.635,13.435,3.361c3.702,1.844,7.899,3.93,15.866,3.93v-5.467
	c-6.683,0-9.961-1.635-13.432-3.359c-3.702-1.844-7.9-3.932-15.869-3.932s-12.167,2.088-15.869,3.932
	c-3.471,1.725-6.75,3.359-13.433,3.359s-9.96-1.635-13.43-3.359c-3.704-1.844-7.9-3.932-15.868-3.932s-12.164,2.088-15.867,3.932
	c-3.471,1.725-6.748,3.359-13.431,3.359c-6.68,0-9.954-1.635-13.426-3.359c-3.701-1.844-7.897-3.932-15.861-3.932v5.467
	c6.679,0,9.957,1.635,13.425,3.361C17.128,121.037,21.322,123.125,29.288,123.125z M29.288,94.145c7.967,0,12.164-2.09,15.866-3.932
	c3.472-1.727,6.748-3.361,13.432-3.361c6.682,0,9.959,1.635,13.43,3.361c3.703,1.842,7.9,3.932,15.868,3.932
	c7.967,0,12.165-2.09,15.868-3.932c3.47-1.727,6.75-3.361,13.434-3.361c6.685,0,9.963,1.635,13.435,3.361
	c3.702,1.844,7.899,3.932,15.866,3.932v-5.469c-6.683,0-9.961-1.633-13.432-3.359c-3.702-1.844-7.9-3.932-15.869-3.932
	s-12.167,2.088-15.869,3.932c-3.471,1.728-6.75,3.359-13.433,3.359s-9.96-1.633-13.43-3.359c-3.704-1.844-7.9-3.932-15.868-3.932
	s-12.164,2.088-15.867,3.932c-3.471,1.728-6.748,3.359-13.431,3.359c-6.68,0-9.954-1.633-13.426-3.359
	C12.16,83.473,7.964,81.385,0,81.385v5.467c6.679,0,9.957,1.635,13.425,3.361C17.128,92.055,21.322,94.145,29.288,94.145z
	 M29.288,108.65c7.967,0,12.164-2.09,15.866-3.933c3.472-1.727,6.748-3.36,13.432-3.36c6.682,0,9.959,1.635,13.43,3.36
	c3.703,1.843,7.9,3.933,15.868,3.933c7.967,0,12.165-2.09,15.868-3.933c3.47-1.727,6.75-3.36,13.434-3.36
	c6.685,0,9.963,1.635,13.435,3.36c3.702,1.845,7.899,3.933,15.866,3.933v-5.469c-6.683,0-9.961-1.634-13.432-3.359
	c-3.702-1.844-7.9-3.932-15.869-3.932s-12.167,2.088-15.869,3.932c-3.471,1.727-6.75,3.359-13.433,3.359s-9.96-1.634-13.43-3.359
	c-3.704-1.844-7.9-3.932-15.868-3.932s-12.164,2.088-15.867,3.932c-3.471,1.727-6.748,3.359-13.431,3.359
	c-6.68,0-9.954-1.634-13.426-3.359C12.16,97.979,7.964,95.891,0,95.891v5.467c6.679,0,9.957,1.636,13.425,3.361
	C17.128,106.561,21.322,108.65,29.288,108.65z" class="color c2"/>
  <path fill="#FFFFFF" d="M99.021,16.975l5.2,1.631c3.019-7.434,13.776-6.215,13.89-6.199l0.681-5.426
	c-0.454-0.055-8.62-1.02-14.646,3.23C103.059,6.127,100.238,1.971,94.15,0l-1.684,5.203C100.721,7.875,99.217,16.063,99.021,16.975z
	" class="color c3"/>
  <path fill="#FFFFFF" d="M111.731,33.133l1.928,5.119c8.114-3.053,12.047,4.285,12.464,5.119l5.082-1.967
	c-2.271-7.691,6.904-13.443,6.997-13.502l-2.85-4.668c-0.394,0.238-7.378,4.576-9.439,11.652
	C122.517,32.371,117.719,30.879,111.731,33.133z" class="color c3"/>
  <path fill="#FFFFFF" d="M92.114,66.609l4.886,2.42c4.136-6.869,14.577-3.994,14.683-3.963l0.754-2.627l0.762-2.625
	c-0.439-0.127-8.354-2.348-14.967,0.912c-0.438-4.203-2.579-8.748-8.287-11.643l-2.473,4.879
	C95.213,57.885,92.451,65.738,92.114,66.609z" class="color c3"/>
</svg>