<svg version="1.1" id="图层_1" x="0px" y="0px" width="165.973px" height="154.447px" viewBox="0 0 165.973 154.447" enable-background="new 0 0 165.973 154.447" xml:space="preserve" xmlns="http://www.w3.org/2000/svg" xmlns:xlink="http://www.w3.org/1999/xlink" xmlns:xml="http://www.w3.org/XML/1998/namespace">
  <path fill="#355B24" d="M39.043,63.477c4.936,0.182,10.043,0.225,15.238,0.004c5.193-0.215,10.466-0.643,15.708-1.385
	c5.242-0.748,10.451-1.787,15.489-3.162c5.035-1.397,9.894-3.139,14.416-5.209c4.527-2.057,8.699-4.488,12.389-7.127
	c3.693-2.635,6.897-5.484,9.582-8.331c2.694-2.842,4.873-5.68,6.589-8.312c0.901-1.284,1.603-2.58,2.304-3.731
	c0.662-1.179,1.218-2.288,1.742-3.27c0.469-1.015,0.889-1.919,1.252-2.707c0.367-0.781,0.607-1.473,0.838-2.02
	c0.443-1.101,0.678-1.688,0.678-1.688l0,0c0,0-0.321,0.545-0.924,1.567c-0.312,0.504-0.654,1.155-1.132,1.867
	c-0.471,0.711-1.013,1.528-1.618,2.444c-0.66,0.881-1.361,1.872-2.17,2.911c-0.852,1.01-1.706,2.144-2.757,3.241
	c-2.016,2.257-4.481,4.616-7.388,6.873c-5.783,4.544-13.394,8.583-22.104,11.021c-4.346,1.236-8.936,2.131-13.644,2.694
	c-4.716,0.542-9.542,0.761-14.371,0.713c-4.832-0.054-9.667-0.397-14.406-0.921c-4.74-0.52-9.388-1.271-13.86-2.123
	c-8.944-1.713-17.18-3.939-24.135-6.099c-2.924-0.909-5.606-1.805-8.041-2.657c-3.336,6.527-5.795,13.572-7.237,20.982
	c3.183,0.615,6.776,1.248,10.714,1.844C20.008,62.071,29.168,63.104,39.043,63.477z" class="color c1"/>
  <path fill="#B1B2B4" d="M155.799,100.201c-1.194,0.336-2.685,0.76-4.452,1.197c-1.243,0.313-2.62,0.658-4.118,1.033
	c-1.5,0.374-3.123,0.711-4.863,1.109c-1.74,0.414-3.588,0.752-5.544,1.142c-1.958,0.413-4.011,0.729-6.162,1.099
	c-2.153,0.388-4.386,0.634-6.715,0.98c-1.159,0.129-2.339,0.259-3.536,0.392c-0.601,0.066-1.205,0.132-1.814,0.199
	c-0.608,0.048-1.219,0.096-1.836,0.144c-4.939,0.436-10.138,0.616-15.486,0.476c-5.348-0.139-10.842-0.616-16.326-1.573
	c-5.478-0.963-10.971-2.36-16.219-4.398c-5.26-2.014-10.328-4.574-14.963-7.713c-1.186-0.754-2.28-1.613-3.419-2.424
	c-1.081-0.873-2.203-1.705-3.233-2.629c-2.119-1.787-4.085-3.719-5.944-5.709c-3.716-3.984-6.892-8.307-9.552-12.669
	c-2.663-4.366-4.801-8.776-6.521-12.978c-1.71-4.207-3.008-8.203-3.981-11.805c-0.976-3.602-1.647-6.806-2.104-9.464
	c-0.922-5.322-1.035-8.438-1.035-8.438s-0.4,3.088-0.363,8.562c0.016,2.736,0.154,6.067,0.537,9.885
	c0.382,3.818,1.025,8.124,2.073,12.784c1.062,4.654,2.53,9.665,4.608,14.827c2.076,5.157,4.754,10.474,8.178,15.643
	c1.711,2.58,3.58,5.147,5.664,7.603c1.012,1.258,2.131,2.432,3.223,3.653c1.151,1.157,2.274,2.374,3.502,3.483
	c4.805,4.574,10.293,8.623,16.146,12.062c5.845,3.468,12.079,6.223,18.356,8.443c6.284,2.213,12.625,3.847,18.803,5.045
	c6.18,1.199,12.201,1.986,17.899,2.432c0.714,0.063,1.423,0.123,2.127,0.185c0.701,0.04,1.399,0.079,2.091,0.12
	c1.385,0.075,2.75,0.15,4.092,0.224c2.667,0.054,5.273,0.187,7.744,0.158c0.533-0.002,1.059-0.002,1.582-0.002
	C143.953,124.319,151.449,112.989,155.799,100.201z" class="color c2"/>
  <path fill="#F29D20" d="M165.838,39.552c-0.022-0.407-0.045-0.811-0.067-1.213c-0.033-0.401-0.097-0.797-0.144-1.191
	c-0.731-6.322-2.432-11.799-4.267-16.425c-1.808-4.65-3.928-8.407-5.631-11.482c-0.899-1.514-1.745-2.838-2.455-3.999
	c-0.703-1.165-1.405-2.093-1.92-2.875C150.297,0.823,149.732,0,149.732,0s0.426,0.902,1.224,2.595
	c0.383,0.853,0.922,1.867,1.428,3.123c0.513,1.251,1.128,2.673,1.764,4.282c1.172,3.257,2.626,7.198,3.614,11.846
	c1.025,4.621,1.746,9.915,1.487,15.534c-0.015,0.35-0.012,0.703-0.04,1.055c-0.039,0.352-0.076,0.705-0.115,1.059
	c-0.074,0.705-0.148,1.417-0.225,2.136c-0.129,0.707-0.26,1.421-0.391,2.14c-0.066,0.357-0.133,0.716-0.197,1.078
	c-0.081,0.356-0.188,0.71-0.28,1.067c-0.189,0.708-0.382,1.422-0.575,2.143c-0.248,0.698-0.498,1.402-0.75,2.112
	c-0.058,0.186-0.137,0.364-0.207,0.546c-0.201,0.52-0.432,1.031-0.656,1.545c-0.318,0.688-0.586,1.396-0.98,2.059
	c-1.354,2.739-3.195,5.298-5.249,7.722c-1.009,1.228-2.185,2.352-3.328,3.497c-0.615,0.538-1.231,1.08-1.853,1.624
	c-0.6,0.556-1.303,1.03-1.945,1.552c-5.287,4.074-11.6,7.269-18.334,9.741c-3.391,1.205-6.868,2.271-10.434,3.136
	c-3.576,0.84-7.188,1.586-10.858,2.105c-3.665,0.529-7.348,0.951-11.042,1.178c-1.836,0.15-3.69,0.193-5.522,0.28
	c-1.844,0.027-3.671,0.093-5.499,0.063c-7.304-0.035-14.473-0.559-21.301-1.514c-6.828-0.924-13.315-2.271-19.266-3.913
	c-5.95-1.638-11.387-3.528-16.102-5.598c-4.724-2.059-8.748-4.242-12.004-6.337c-3.249-2.103-5.787-4.074-7.58-5.777
	c-0.488-0.404-0.859-0.829-1.246-1.205c-0.19-0.189-0.374-0.372-0.552-0.549c-0.181-0.177-0.366-0.353-0.438-0.469
	c-0.199-0.26-0.388-0.49-0.563-0.694c-0.077-0.089-0.137-0.157-0.21-0.241C0.521,63.938,0,69.121,0,74.427
	c0,10.771,2.135,21.044,5.992,30.424c2.373,0.749,4.832,1.449,7.369,2.09c6.617,1.685,13.762,2.919,21.267,3.722
	c7.506,0.809,15.375,1.14,23.448,0.93c8.074-0.182,16.354-0.916,24.666-2.224c2.078-0.306,4.157-0.712,6.236-1.086
	c2.076-0.436,4.156-0.827,6.227-1.338c4.148-0.939,8.273-2.097,12.354-3.38c4.083-1.275,8.106-2.801,12.059-4.438
	c3.946-1.666,7.799-3.561,11.529-5.617c7.428-4.184,14.366-9.215,20.052-15.279c0.697-0.773,1.432-1.486,2.078-2.299
	c0.654-0.797,1.305-1.59,1.953-2.379c1.211-1.661,2.412-3.283,3.434-5.023c0.348-0.578,0.684-1.16,1.012-1.746
	c1.623-2.889,2.986-5.854,3.926-8.883c0.339-0.887,0.543-1.814,0.789-2.714c0.234-0.904,0.494-1.79,0.632-2.7
	c0.161-0.898,0.322-1.791,0.48-2.676c0.093-0.89,0.185-1.772,0.274-2.648c0.039-0.436,0.094-0.869,0.119-1.302
	c0.01-0.433,0.02-0.864,0.03-1.293c0.016-0.854,0.03-1.701,0.046-2.54C165.928,41.194,165.884,40.369,165.838,39.552z" class="color c3"/>
  <path fill="#355B24" d="M80.02,154.447c14.139,0,27.418-3.671,38.943-10.105c-51.723-0.014-94.885-25.094-111.564-36.279
	C20.104,135.451,47.842,154.447,80.02,154.447z" class="color c1"/>
</svg>