<svg version="1.1" id="图层_1" x="0px" y="0px" width="134.2px" height="136px" viewBox="0 0 134.2 136" enable-background="new 0 0 134.2 136" xml:space="preserve" xmlns="http://www.w3.org/2000/svg" xmlns:xlink="http://www.w3.org/1999/xlink" xmlns:xml="http://www.w3.org/XML/1998/namespace">
  <g>
    <path fill="#FFFFFF" d="M93.4,85.2c0.7,0.6,2.5-0.7,3-1c1-0.7,4-3.3,5.2-10.7c0.6-3.1,1-8.8-0.9-16c-0.6,1.2-1.8,3.1-3.9,4.9
		c-1.5,1.3-3,2.1-4.2,2.7c2.2,4.8,2.5,8.6,2.2,11.2C94.5,80.7,92.3,84.4,93.4,85.2z" class="color c1"/>
    <path fill="#FFFFFF" d="M109.3,6.4C106.1,4,102.6,1.9,99,0.1c-1.5,1.2-2.8,2.8-3.7,4.8c-2.5,5.7,0,11.5,1.2,14.3
		c4.3,10.3,15.1,15.5,16.8,16.4c3.9,1.8,6.9,2.5,11.5,6c3,2.2,5.1,4.3,6.4,6c-0.1-2.2-0.6-5.5-2.5-8.5c-1.9-2.8-3.9-3.7-8.5-6.9
		c-5.4-3.7-8.1-5.7-10.1-8.4c-3.6-4.6-7-12.5-3.9-16C107,7,108.2,6.6,109.3,6.4z" class="color c1"/>
    <path fill="#FFFFFF" d="M85.6,128.6c5.5-6.4,7-13.3,7.6-16.3c6.7-3.9,11.5-8.6,14.3-11.9c3.9-4.5,10.9-12.4,12.5-23.7
		c1.2-7.9-0.4-15.1,2.4-16c0.9-0.3,1.6,0.3,5.8,1.6c2.5,0.7,4.6,1.3,6,1.6c-1.5-3.3-5.1-9.5-11.8-14.9c-6.7-5.2-13.3-7.2-16.8-8.1
		c1.6,3.4,3.9,8.8,5.1,15.5c1.2,6.9,2.8,16.8-2.4,26.8c-5.2,9.8-14.5,14.2-18.2,15.7c0.4,0.9,1,2.4,1,4.3c0,3.3-1.9,6.6-4.8,8.2
		c-2.4,1.3-4.9,1.2-5.7,1.2c-3.9-0.3-6.1-2.8-10.7-8.1c-0.3-0.3-0.9-1-1.2-2.1c-0.1-0.7-0.1-2.8,0-4.3c0.7,0,1.6-0.1,2.4-0.3
		c6.1-1.3,9.7-5.5,10.6-6.7c2.5-3.1,2.4-4.9,2.4-5.4c-0.3-1.8-1.6-3.7-3.7-4.3c-1.2-0.3-2.1-0.1-2.7,0c0.9,0.6,1.6,1.3,1.6,2.4
		c0.1,2.5-5.5,4.5-6.3,4.8c-6,2.1-13,0.9-18-2.5c-1.8-1.2-4-2.8-4.8-5.5c-0.6-1.9,0-3.3,1-7c1.8-6.3,3-10.1,2.8-14.2
		c-0.1-2.5-0.1-5.5-2.2-7.9c-1.8-2.1-4.3-2.8-4.3-2.8c-2.2-0.7-3.6,0-5.4-1.2c-0.3-0.1-2.1-1.3-1.9-2.7c0.1-1.5,2.7-2.1,3.1-2.1
		c3.4-0.7,6.4,1.5,7.5,2.2c0.4-0.9,0.4-1.5,0.3-2.1c-0.6-2.8-5.8-4.9-9.7-3.4c-4,1.5-5.5,6.7-5.1,10.1c0.4,4.6,4,7.3,4.8,7.9
		c1.8,1.3,4.2,2.2,4.5,2.4c2.5,0.9,2.8,0.4,3.4,1c1.2,1.2,0.9,3.6-2.7,14.2c-1.3,4-1.5,4.5-1.5,5.7c0,4.9,4,8.5,6.1,10.4
		c1.6,1.5,7.3,6.6,14.8,7.3c0.1,1.5,0.1,3.4,0,4.3c-0.3,1-0.9,1.6-1.2,2.1c-4.6,5.1-6.9,7.6-10.7,8.1c-0.7,0-3.1,0.3-5.7-1.2
		c-3.1-1.9-4.9-5.2-4.9-8.5c0-1.9,0.6-3.4,1-4.3c-3.7-1.5-13-5.8-18.2-15.7c-5.2-10-3.6-20-2.4-26.8c1.2-6.7,3.3-12.1,5.1-15.5
		c-3.6,0.7-10.3,2.7-16.8,8.1C5.1,54.5,1.5,60.7,0,64c1.3-0.3,3.4-0.7,6-1.6c4.2-1.3,4.8-1.9,5.8-1.6c2.8,1,1.2,8.1,2.4,16
		C16,88.1,22.8,96,26.7,100.5c2.8,3.3,7.6,7.9,14.6,11.9c0.4,3,1.9,9.8,7.6,16.3c2.6,2.9,5.3,5,8,6.6c3.3,0.5,6.7,0.7,10.2,0.7
		c3.6,0,7.1-0.3,10.6-0.8C80.3,133.6,83.1,131.5,85.6,128.6z M43.6,56.3c-1.2-1.2-1-3.7,0.6-5.4c-0.5,1.9,3.2,5.2,5.2,4.6
		C47.9,57.8,44.9,57.8,43.6,56.3z" class="color c1"/>
    <path fill="#FFFFFF" d="M130.9,94.9c1.9-10.1-1.3-18.5-3-21.6c0.3,5.2-0.1,14.3-4.9,24c-1.5,3.1-4.5,8.9-10.9,14.3
		c-3.1,2.7-6.1,4.3-8.2,5.4c-0.4,1.5-1,3.1-1.6,4.9c-0.9,2.1-1.6,3.9-2.5,5.4c1.5-0.5,3.3-1.2,5.2-2.2c10.4-6.5,19.1-15.6,25-26.5
		C130.4,97.4,130.7,96.2,130.9,94.9z" class="color c1"/>
    <path fill="#FFFFFF" d="M118.9,25.7c1.9,1.5,5.2-0.3,5.8-0.6c0.6-0.3,1.2-0.7,1.7-1.1c-1.9-2.8-3.9-5.4-6.2-7.8
		c-0.8,1.4-2.2,2.2-2.5,4.8C117.7,21.4,117.2,24.4,118.9,25.7z" class="color c1"/>
    <path fill="#FFFFFF" d="M31.9,121.9c-0.6-1.6-1.2-3.3-1.6-4.8c-2.2-1-5.2-2.8-8.2-5.4c-6.4-5.4-9.4-11.3-10.9-14.3
		C6.4,87.6,6,78.5,6.1,73.2c-1.5,3.3-4.9,11.5-3,21.6C3.3,96,3.6,97.1,4,98.1c6,11.1,14.9,20.5,25.6,27.1c1.8,0.8,3.3,1.4,4.7,1.9
		C33.4,125.7,32.7,124,31.9,121.9z" class="color c1"/>
    <path fill="#FFFFFF" d="M63.7,10.6c-3.1-1.6-6.4-0.7-8.2-0.3c-3.6,1-4,2.5-7.5,3.4c-2.5,0.6-4.8,0.4-6.1,0.1c0,0.7,0.1,1.9,0.7,2.8
		c2.2,2.5,7.6,1.3,8.1,1.2c2.7-0.6,3.1-1.8,5.8-1.9c1.2,0,3.1-0.1,4.2,1c1,1.2,0.9,3.3,0.1,4.8c-1.6,3.6-6.6,3.4-6.7,6.1
		c0,0.1-0.1,1.2,0.6,1.8c0.7,0.7,1.9,0.6,2.5,0.4c2.5-0.4,4.5-2.2,5.7-3.7c1.6-1.9,3.3-3.9,4.2-5.8c0.9,2.1,2.5,4,4.2,5.8
		c1.2,1.5,3.1,3.3,5.7,3.7c0.6,0.1,1.9,0.3,2.5-0.4c0.6-0.5,0.6-1.5,0.6-1.7c-0.3-2.7-5.1-2.5-6.7-6.1c-0.7-1.5-0.9-3.6,0.1-4.8
		s3-1,4.2-1c2.7,0.1,3,1.2,5.8,1.9c0.6,0.1,6,1.5,8.1-1.2c0.7-0.9,0.7-1.9,0.7-2.8c-1.3,0.3-3.6,0.4-6.1-0.1
		c-3.4-0.9-3.9-2.4-7.5-3.4c-1.8-0.4-5.1-1.3-8.2,0.3c-0.3,0.1-2.4,1.3-3.4,3.6C65.9,12,64,10.8,63.7,10.6z" class="color c1"/>
    <path fill="#FFFFFF" d="M28.2,7.7c3.1,3.4-0.3,11.5-3.9,16c-2.2,3-4.9,4.9-10.4,8.6c-4.5,3.1-6.6,4-8.5,6.9C3.6,42,3,45.3,3,47.6
		c1.3-1.5,3.4-3.7,6.4-6c4.6-3.4,7.8-4,11.5-6c1.8-0.9,12.5-6,17-16.6c1.2-3,3.7-8.6,1.2-14.3c-0.9-2-2.2-3.5-3.6-4.7
		c-3.6,1.8-7,3.8-10.2,6.1C26.4,6.3,27.4,6.8,28.2,7.7z" class="color c1"/>
    <path fill="#FFFFFF" d="M37.3,62.2c-1.9-1.8-3.1-3.6-3.9-4.9c-1.9,7.2-1.5,12.8-0.9,16c1.3,7.5,4.2,10,5.2,10.7
		c0.4,0.3,2.2,1.6,3,1c1-0.7-1-4.5-1.6-8.9c-0.3-2.7-0.1-6.4,2.2-11.2C40.3,64.5,38.8,63.6,37.3,62.2z" class="color c1"/>
    <path fill="#FFFFFF" d="M9.7,24.8c0.6,0.3,3.9,2.1,5.8,0.6c1.6-1.3,1.2-4.2,1.2-4.8c-0.3-2.5-1.7-3.4-2.5-4.7
		C12,18.4,9.9,21,8,23.7C8.5,24.2,9.1,24.5,9.7,24.8z" class="color c1"/>
    <path fill="#FFFFFF" d="M92.2,47.5c-1.8,1.2-3,0.4-5.4,1.2c0,0-2.5,0.7-4.3,2.8c-2.5,3-2.4,6.7-2.2,7.9c0.3,3.4,2.4,6.4,3.1,6.3
		s0-3.3,1.8-4.8c0.9-0.7,1.6-0.4,3.4-1c0.1-0.1,2.7-1,4.5-2.4c0.7-0.4,4.3-3.3,4.8-7.9c0.4-3.6-1-8.6-5.1-10.1
		c-3.7-1.5-8.9,0.6-9.5,3.4c-0.1,0.6,0,1.3,0.3,2.1c0.9-0.7,4-3,7.5-2.2c0.3,0.1,2.8,0.7,3.1,2.1C94.3,46.1,92.5,47.3,92.2,47.5z
		 M91,56.6c-1.2,1.3-4.2,1.3-6-0.7c1.3,0.6,5.7-3.1,5.2-4.6C92,52.8,92,55.4,91,56.6z" class="color c1"/>
    <path fill="#FFFFFF" d="M62.2,35.8c-1.2,0.7-2.8,1.5-4.6,3.4c-0.6,0.6-1.9,2.1-1.5,2.8s2.7,0.3,2.8,0.3c2.7-0.6,4.3-3,5.4-4.3
		c1.9-2.8,2.7-5.8,2.8-7.9C65.5,33.3,63.5,34.9,62.2,35.8z" class="color c1"/>
    <path fill="#FFFFFF" d="M72,35.8c-1.5-0.9-3.3-2.5-4.9-5.7c0.3,2.1,0.9,5.1,2.8,7.9c1,1.5,2.5,3.7,5.4,4.3c0.1,0,2.4,0.4,2.8-0.3
		s-0.9-2.2-1.5-2.8C75,37.3,73.4,36.6,72,35.8z" class="color c1"/>
  </g>
</svg>