<svg version="1.1" id="图层_1" x="0px" y="0px" width="204.092px" height="94.504px" viewBox="0 0 204.092 94.504" enable-background="new 0 0 204.092 94.504" xml:space="preserve" xmlns="http://www.w3.org/2000/svg" xmlns:xlink="http://www.w3.org/1999/xlink" xmlns:xml="http://www.w3.org/XML/1998/namespace">
  <path fill="#352712" d="M201.682,23.361c-1.578-0.531-3.928-1.119-6.822-1.234c-0.313-0.012-0.634-0.014-0.957-0.013
	c-0.527,0.002-1.069,0.023-1.623,0.063c-0.116,0.008-0.234,0.019-0.353,0.029c-0.575,0.048-1.159,0.111-1.763,0.206
	c-0.43,0.055-0.826,0.141-1.238,0.221c-0.445,0.088-0.855,0.189-1.279,0.299c-0.848,0.221-1.703,0.477-2.559,0.746
	c-1.705,0.531-3.422,1.111-5.152,1.475c-0.436,0.086-0.869,0.162-1.271,0.215l-0.686,0.088l-0.627,0.033
	c-0.26,0.016-0.52,0.021-0.781,0.021c-0.066,0-0.134-0.011-0.201-0.012c-0.537-0.008-1.077-0.033-1.617-0.098
	c-3.469-0.391-6.789-1.852-9.738-3.5c-1.523-0.896-2.99-1.764-4.383-2.588c-1.428-0.826-2.803-1.588-4.08-2.268
	c-1.059-0.568-2.037-1.064-2.955-1.52c-0.703-0.489-1.434-0.945-2.179-1.381c-0.082-0.048-0.161-0.098-0.244-0.146
	c-0.712-0.406-1.445-0.785-2.194-1.145c-0.122-0.059-0.244-0.119-0.368-0.177c-0.738-0.343-1.493-0.663-2.265-0.96
	c-0.139-0.054-0.278-0.106-0.418-0.158c-0.779-0.291-1.574-0.561-2.385-0.806c-0.129-0.039-0.258-0.074-0.387-0.112
	c-0.842-0.245-1.696-0.472-2.569-0.669c-0.073-0.017-0.149-0.031-0.224-0.047c-0.885-0.196-1.785-0.368-2.701-0.517
	c-0.059-0.009-0.116-0.021-0.175-0.029c-0.921-0.146-1.86-0.262-2.81-0.358c-0.129-0.013-0.258-0.028-0.387-0.041
	c-0.924-0.087-1.86-0.15-2.809-0.193c-0.158-0.007-0.315-0.015-0.474-0.021c-0.907-0.034-1.825-0.047-2.754-0.041
	c-0.413,0.003-0.832,0.019-1.249,0.028c-0.656,0.017-1.316,0.036-1.982,0.071c-0.443,0.023-0.892,0.057-1.339,0.089
	c-0.656,0.047-1.315,0.1-1.979,0.165c-0.458,0.045-0.919,0.095-1.381,0.148c-0.668,0.077-1.34,0.164-2.016,0.259
	c-0.465,0.065-0.932,0.133-1.4,0.206c-0.689,0.109-1.385,0.23-2.082,0.356c-0.461,0.084-0.921,0.166-1.385,0.257
	c-0.729,0.145-1.463,0.305-2.198,0.467c-0.44,0.098-0.878,0.189-1.321,0.294c-0.809,0.19-1.624,0.401-2.439,0.615
	c-0.377,0.099-0.75,0.188-1.127,0.29c-1.194,0.327-2.396,0.674-3.604,1.048c-2.443,0.76-7.574,4.025-13.541,6.152
	c-0.371,0.132-0.744,0.259-1.121,0.381c-0.155,0.051-0.313,0.097-0.469,0.146c-0.223,0.068-0.444,0.139-0.668,0.204
	c-0.188,0.055-0.379,0.104-0.568,0.155c-0.193,0.053-0.387,0.107-0.582,0.156c-0.202,0.052-0.405,0.097-0.607,0.144
	c-0.186,0.043-0.371,0.088-0.558,0.127c-0.207,0.044-0.415,0.082-0.623,0.121c-0.184,0.035-0.367,0.071-0.552,0.103
	c-0.211,0.035-0.422,0.064-0.633,0.095c-0.183,0.026-0.364,0.053-0.547,0.075c-0.212,0.025-0.425,0.045-0.639,0.064
	c-0.182,0.018-0.364,0.034-0.547,0.047c-0.211,0.015-0.423,0.023-0.634,0.031c-0.186,0.008-0.371,0.015-0.557,0.017
	c-0.085,0.001-0.171,0.008-0.257,0.008c-0.139,0-0.277-0.009-0.417-0.012c-0.147-0.003-0.296-0.006-0.444-0.013
	c-0.228-0.01-0.455-0.027-0.682-0.045c-0.152-0.013-0.304-0.023-0.455-0.04c-0.223-0.024-0.443-0.056-0.666-0.088
	c-0.153-0.022-0.309-0.043-0.462-0.07c-0.218-0.038-0.435-0.085-0.651-0.132c-0.155-0.034-0.313-0.064-0.468-0.104
	c-0.213-0.053-0.425-0.116-0.637-0.178c-0.156-0.046-0.313-0.088-0.469-0.139c-0.212-0.069-0.421-0.15-0.632-0.229
	c-0.152-0.058-0.307-0.11-0.46-0.173c-0.222-0.092-0.441-0.198-0.661-0.302c-0.137-0.063-0.275-0.12-0.411-0.189
	c-0.354-0.179-0.704-0.373-1.052-0.584l-0.02-0.014L55.354,8.957L50,5.625L47.778,4.24c0.543-0.268,1.025-0.666,1.488-1.082
	c0.49-0.44,0.973-0.881,1.513-1.151c0.024-0.013,0.052-0.021,0.077-0.033c0.082-0.038,0.166-0.076,0.251-0.106
	c0.045-0.015,0.092-0.023,0.137-0.036c0.069-0.02,0.138-0.042,0.21-0.055c0.051-0.01,0.104-0.01,0.156-0.016
	c0.062-0.007,0.121-0.018,0.184-0.019c-0.197,0.003-0.395,0.015-0.592,0.027c-0.059,0.004-0.117,0.004-0.175,0.009
	c-1.86,0.152-3.688,0.723-5.528,1.044L44.708,2.33c-0.393-0.254-0.799-0.479-1.21-0.692c-0.108-0.057-0.218-0.11-0.327-0.164
	c-0.39-0.189-0.784-0.366-1.188-0.52c-0.028-0.011-0.057-0.024-0.085-0.035c-0.428-0.16-0.863-0.293-1.303-0.411
	c-0.114-0.031-0.229-0.06-0.345-0.088c-0.408-0.101-0.821-0.187-1.237-0.251c-0.039-0.006-0.078-0.016-0.118-0.021
	c-0.451-0.065-0.907-0.104-1.363-0.129c-0.113-0.006-0.226-0.008-0.338-0.012c-0.426-0.012-0.852-0.01-1.278,0.016
	c-0.036,0.002-0.073,0.001-0.109,0.004c-0.456,0.03-0.91,0.088-1.364,0.162c-0.11,0.018-0.222,0.037-0.332,0.059
	c-0.456,0.084-0.911,0.183-1.361,0.312l-2.303,0.662c-4.068,1.172-7.629,3.67-10.129,7.09l-1.871,2.572L4.809,17.955l-2.127,1.568
	l-2.35,1.73c-0.434,0.316-0.445,0.963-0.021,1.291l0.352,0.285l0.672,0.539l2.088,1.67c1.535,0.746,3.029,1.029,4.41,1.029
	c3.475,0,6.229-1.793,7.051-2.445c1.348-1.078,2.916-2.004,4.289-3.057c0.187-0.143,0.378-0.28,0.573-0.414
	c0.063-0.044,0.13-0.084,0.194-0.126c0.134-0.088,0.269-0.174,0.405-0.256c0.081-0.047,0.162-0.092,0.244-0.137
	c0.125-0.07,0.251-0.139,0.38-0.202c0.089-0.045,0.179-0.087,0.27-0.128c0.125-0.058,0.251-0.111,0.379-0.162
	c0.094-0.037,0.188-0.073,0.282-0.106c0.129-0.046,0.26-0.085,0.391-0.123c0.095-0.027,0.188-0.057,0.284-0.079
	c0.142-0.034,0.285-0.059,0.428-0.083c0.088-0.015,0.175-0.034,0.263-0.046c0.223-0.027,0.447-0.043,0.674-0.043
	c0.259-0.001,0.521,0.016,0.784,0.054c0.746,0.107,1.406,0.639,1.52,1.387c0.002,0.002-0.002,0.006,0,0.01
	c-0.02-0.035-0.029-0.078-0.061-0.104c-0.543,0.74-1.4,1.158-2.195,1.623c-0.645,0.383-1.287,0.857-1.643,1.492
	c-0.229,0.119-0.475,0.25-0.725,0.387l-0.688-0.547l0.137,0.85c-0.242,0.137-0.488,0.277-0.74,0.422l-0.697-0.555l0.141,0.881
	c-0.051,0.029-0.1,0.057-0.148,0.088l-0.688-0.547l0.141,0.869c-0.105,0.063-0.209,0.125-0.314,0.189l-0.768-0.611l0.156,0.98
	c-0.063,0.037-0.123,0.076-0.186,0.113l-1.375-1.094l0.283,1.766c-0.25,0.154-0.5,0.311-0.729,0.453
	c-0.414,0.256-0.365,0.814-0.018,1.037c0.09,0.063,0.197,0.094,0.318,0.102l0.877,0.033c0.203,0.008,0.407-0.002,0.61-0.012
	c0.101-0.005,0.202-0.007,0.304-0.016c0.167-0.015,0.333-0.04,0.5-0.066c0.097-0.015,0.195-0.026,0.291-0.045
	c0.174-0.034,0.346-0.081,0.517-0.128c0.087-0.023,0.175-0.041,0.261-0.068c0.254-0.079,0.504-0.17,0.75-0.276l6.182-2.701
	c0.396,0.119,0.773,0.295,1.143,0.484c1.029,0.525,2.055,1.092,3.166,1.4c0.266,0.073,0.538,0.128,0.813,0.165
	c0.079,0.012,0.159,0.011,0.238,0.019c0.205,0.019,0.412,0.034,0.617,0.028c0.04-0.001,0.08-0.004,0.12-0.006
	c0.256-0.015,0.509-0.047,0.757-0.105c0.029-0.008,0.059-0.018,0.088-0.025c0.258-0.068,0.51-0.157,0.748-0.282
	c0.18-0.096,0.355-0.223,0.438-0.412c0.053-0.135,0.047-0.289,0.025-0.43c-0.119-0.938-0.66-1.807-1.426-2.338
	c-0.029-0.021-0.057-0.039-0.084-0.057c8.361,0.848,14.199,7.871,18.09,16.783c0.037,0.699,0.072,1.367,0.109,2.016
	c0.094,1.678,0.205,3.195,0.395,4.578c0.006,0.043,0.008,0.092,0.014,0.135c0.012,0.061,0.021,0.115,0.029,0.178
	c0.053,0.348,0.109,0.691,0.174,1.023c0.023,0.117,0.045,0.236,0.068,0.352c0.068,0.326,0.146,0.643,0.227,0.951
	c0.029,0.102,0.053,0.203,0.08,0.301c0.23,0.797,0.518,1.547,0.879,2.254c0.049,0.096,0.107,0.189,0.158,0.285
	c0.139,0.25,0.283,0.496,0.441,0.736c0.076,0.117,0.158,0.23,0.242,0.346c0.154,0.217,0.318,0.43,0.492,0.637
	c0.094,0.115,0.191,0.23,0.291,0.34c0.191,0.215,0.404,0.426,0.621,0.635c0.098,0.094,0.191,0.191,0.295,0.285
	c0.33,0.297,0.682,0.59,1.066,0.875c0.625,0.467,1.238,0.896,1.854,1.307c1.129,0.754,2.234,1.414,3.32,1.979
	c3.855,2.041,7.465,2.984,10.92,3.092l-2.121,12.607c-0.264,1.574,0.645,3.115,2.154,3.648l2.465,0.869l13.553,2.375l-1.734,0.607
	c-1.334,0.949-2.861,4.275-1.232,4.457l3.725,0.352c0.361,0.041,0.719,0.063,1.069,0.066c0.054,0.001,0.108,0.004,0.162,0.004
	c0.048-0.001,0.094-0.003,0.142-0.005c0.142-0.004,0.282-0.012,0.421-0.024c0.058-0.005,0.114-0.012,0.172-0.019
	c0.14-0.017,0.276-0.04,0.413-0.067c0.043-0.009,0.086-0.016,0.129-0.025c0.175-0.041,0.346-0.091,0.513-0.153
	c0.029-0.011,0.057-0.025,0.086-0.037c0.136-0.055,0.269-0.116,0.397-0.188c0.049-0.025,0.095-0.055,0.142-0.082
	c0.113-0.069,0.224-0.146,0.331-0.229c0.042-0.032,0.086-0.063,0.127-0.099c0.144-0.121,0.283-0.252,0.414-0.402l2.834-4.402
	l9.541-5.303l-1.75,1.631L93.973,88.1l-4,1.852c-1.24,1.064-2.445,4.525-0.809,4.553h3.744c0.156,0.002,0.311-0.002,0.465-0.006
	c0.078-0.002,0.157-0.003,0.234-0.006c0.127-0.006,0.252-0.018,0.377-0.028c0.083-0.008,0.167-0.013,0.248-0.022
	c0.12-0.015,0.236-0.035,0.353-0.056c0.083-0.014,0.167-0.025,0.248-0.043c0.112-0.024,0.221-0.057,0.33-0.088
	c0.079-0.022,0.161-0.041,0.239-0.067c0.105-0.036,0.207-0.082,0.309-0.126c0.075-0.032,0.153-0.06,0.227-0.096
	c0.1-0.051,0.193-0.113,0.289-0.172c0.068-0.043,0.141-0.079,0.206-0.126c0.097-0.069,0.187-0.153,0.277-0.233
	c0.058-0.051,0.119-0.093,0.174-0.148c0.143-0.142,0.276-0.299,0.401-0.474l2.396-4.65l18.223-12.533
	c0.262-0.955,0.547-1.863,0.848-2.727l2.404-0.398l3.832-4.209c0.074-0.081,0.133-0.169,0.175-0.26
	c0.017-0.035,0.02-0.071,0.031-0.107c0.019-0.057,0.042-0.113,0.05-0.171c0.008-0.06,0.002-0.119-0.001-0.178
	c-0.002-0.034,0.004-0.069-0.001-0.104c-0.01-0.063-0.033-0.121-0.054-0.182c-0.01-0.028-0.014-0.059-0.026-0.086
	c-0.023-0.053-0.059-0.1-0.092-0.148c-0.02-0.029-0.033-0.062-0.057-0.089c-0.031-0.038-0.073-0.068-0.11-0.102
	c-0.033-0.029-0.063-0.063-0.1-0.089c-0.037-0.024-0.082-0.039-0.122-0.06c-0.047-0.022-0.09-0.05-0.141-0.065
	c-0.045-0.013-0.097-0.014-0.145-0.021c-0.059-0.009-0.113-0.023-0.176-0.022l-2.479,0.068c2.971-4.619,7.076-7.791,12.627-11.482
	l3.904-1.959l6.586-3.305c2.916-1.469,5.375-3.557,7.246-6.055c3.18-4.229,4.693-9.623,3.979-15.104l-0.875-6.727
	c1.037,0.43,2.129,0.914,3.268,1.432c1.473,0.654,2.941,1.402,4.672,2.172c1.711,0.74,3.516,1.418,5.434,1.938
	c1.92,0.504,3.939,0.848,5.994,0.869c0.38,0.005,0.76-0.013,1.141-0.03c0.149-0.006,0.299-0.005,0.448-0.016
	c0.494-0.034,0.987-0.086,1.476-0.163c0.262-0.041,0.484-0.074,0.773-0.127l0.701-0.156c0.512-0.127,0.99-0.262,1.461-0.41
	c0.674-0.215,1.326-0.451,1.967-0.701c1.117-0.438,2.188-0.916,3.219-1.359c0.809-0.35,1.604-0.674,2.383-0.963
	c0.383-0.148,0.787-0.283,1.152-0.404c0.396-0.115,0.801-0.242,1.172-0.33c1.508-0.398,3.016-0.627,4.402-0.707
	c0.49-0.032,0.961-0.044,1.423-0.046c0.044-0.001,0.093-0.005,0.138-0.005c0.043,0,0.08,0.004,0.123,0.004
	c0.469,0.002,0.925,0.016,1.359,0.043c0.039,0.002,0.074,0.006,0.113,0.009c0.417,0.027,0.815,0.064,1.196,0.109
	c0.05,0.006,0.102,0.012,0.151,0.018c0.385,0.048,0.748,0.103,1.09,0.162c0.069,0.012,0.135,0.023,0.201,0.036
	c0.334,0.061,0.652,0.124,0.939,0.189c0.809,0.182,1.428,0.363,1.854,0.49c0.369,0.119,0.584,0.188,0.633,0.201
	c-0.055-0.02-0.264-0.113-0.607-0.262C203.075,23.865,202.467,23.617,201.682,23.361z M95.975,77.459l-3.066-0.988
	c-0.159-0.05-0.324-0.07-0.491-0.076c-0.042-0.001-0.084-0.004-0.126-0.003c-0.082,0.003-0.164,0.015-0.244,0.028
	c-0.044,0.008-0.089,0.012-0.132,0.022c-0.124,0.031-0.245,0.072-0.36,0.13l-1.406,0.686l-12.123-2.254
	c-0.719-0.256-1.131-1.012-0.955-1.758l2.809-11.912c1.598-0.438,3.166-1.039,4.713-1.766c3.422-0.283,6.844-0.863,10.363-1.799
	c0.168-0.044,0.335-0.062,0.5-0.065c0.014,0,0.027-0.005,0.041-0.005c0.086,0,0.17,0.013,0.255,0.022
	c0.03,0.004,0.063,0.003,0.093,0.009c0.133,0.022,0.262,0.058,0.386,0.104c0.023,0.01,0.045,0.022,0.067,0.032
	c0.1,0.042,0.195,0.089,0.287,0.146c0.033,0.021,0.064,0.045,0.098,0.067c0.076,0.054,0.149,0.11,0.219,0.174
	c0.031,0.029,0.063,0.06,0.093,0.092c0.063,0.065,0.121,0.136,0.176,0.21c0.026,0.035,0.052,0.07,0.076,0.107
	c0.053,0.082,0.097,0.169,0.139,0.26c0.016,0.035,0.034,0.068,0.049,0.104c0.051,0.129,0.092,0.264,0.116,0.406l2.236,12.916
	c0.104,0.611,0.379,1.158,0.764,1.6L95.975,77.459z M124.106,36.525c-4.68,8.641-8.471,18.652-11.838,28.424l-6.582,5.055
	c-0.371-0.238-0.648-0.617-0.697-1.08l-2-18.619c-0.113-1.102-0.859-2.004-1.871-2.357c7.982-6.686,16.209-13.838,25.924-16.838
	C125.999,32.828,125.03,34.639,124.106,36.525z" class="color c1"/>
</svg>