<svg version="1.1" id="图层_1" x="0px" y="0px" width="212.871px" height="110.604px" viewBox="0 0 212.871 110.604" enable-background="new 0 0 212.871 110.604" xml:space="preserve" xmlns="http://www.w3.org/2000/svg" xmlns:xlink="http://www.w3.org/1999/xlink" xmlns:xml="http://www.w3.org/XML/1998/namespace">
  <path fill="#999493" d="M16.873,59.658l-0.032-0.197l0.089,0.196l0.303-0.007l0.154-0.002c0.244-0.004,0.488-0.006,0.731-0.006
	c0.242,0,0.484,0.002,0.747,0.008c0.663,0.015,1.349,0.051,2.082,0.11c-0.346,0.333-0.608,0.695-0.755,1.046
	c-0.096,0.224-0.16,0.48-0.176,0.706c-0.017,0.308-0.022,0.422,0.142,0.466l0.025,0.007h0.025l0.158-0.04l0.048-0.133
	c0.025-0.072,0.078-0.223,0.203-0.4c0.158-0.24,0.448-0.473,0.778-0.623c0.455-0.213,1.008-0.352,1.542-0.485
	c0.274-0.069,0.549-0.138,0.811-0.216c1.021,0.159,2.042,0.364,3.043,0.611c-0.253,0.324-0.455,0.74-0.604,1.239
	c-0.036,0.128-0.055,0.245-0.07,0.341l-0.02,0.115l-0.026,0.163l-0.119,0.726l0.47-0.565l0.252-0.302
	c0.055-0.066,0.141-0.167,0.264-0.271l0.073-0.066c0.09-0.082,0.174-0.159,0.293-0.234c0.224-0.169,0.516-0.322,0.863-0.454
	c0.204-0.069,0.391-0.116,0.563-0.154c1.314,0.403,2.595,0.874,3.812,1.401c-0.018,0.012-0.035,0.024-0.053,0.037
	c-0.514,0.348-0.857,0.808-1.117,1.156c-0.218,0.342-0.351,0.573-0.351,0.573l-0.383,0.663l0.658-0.392l0.365-0.217
	c0.222-0.142,0.549-0.31,0.873-0.447c0.353-0.149,0.75-0.252,1.112-0.288c0.094-0.006,0.187-0.009,0.277-0.009
	c0.246,0,0.483,0.02,0.717,0.039l0.114,0.009l0.181,0.015c1.559,0.813,3.125,1.774,4.666,2.862c-0.749,0.257-1.354,0.584-1.75,0.829
	c-0.409,0.258-0.723,0.472-0.928,0.633l-0.333,0.25l-1.349,1.012l1.548-0.668l0.795-0.342c0.473-0.193,1.202-0.468,2.084-0.633
	c0.386-0.077,0.805-0.116,1.244-0.116h0.011c0.435,0.332,0.866,0.677,1.296,1.027c0.271,0.222,0.539,0.448,0.807,0.68
	c0.092,0.078,0.183,0.158,0.273,0.237l0.079,0.069c0.421,0.366,0.839,0.744,1.254,1.131c0.047,0.043,0.094,0.088,0.142,0.132
	c-0.407,0.106-0.796,0.238-1.144,0.389c-0.478,0.22-0.847,0.398-1.091,0.554l-0.392,0.23l-1.572,0.916l1.733-0.553l0.889-0.283
	c0.533-0.144,1.352-0.336,2.303-0.354l0.078-0.001c0.044,0,0.088,0.001,0.132,0.002c0.139,0.136,0.275,0.275,0.413,0.415
	l0.058,0.059c0.178,0.178,0.355,0.356,0.531,0.54c0.209,0.217,0.416,0.435,0.624,0.657c0.324,0.347,0.646,0.699,0.967,1.058
	c0.168,0.189,0.335,0.381,0.518,0.591c0.059,0.068,0.116,0.136,0.175,0.205c-0.369,0.059-0.721,0.139-1.052,0.237
	c-0.487,0.157-0.956,0.358-1.326,0.573l-0.46,0.297l0.188,0.352c0.002,0,0.095-0.041,0.271-0.113l0.12-0.049l0.183-0.075
	l0.169-0.047l0.268-0.075c0.356-0.09,0.946-0.196,1.733-0.196c0.231,0,0.466,0.009,0.698,0.028l0.411,0.501
	c0.314,0.388,0.628,0.781,0.938,1.181l0.144,0.184l0.172,0.221c0.299,0.391,0.597,0.789,0.894,1.192
	c-0.698,0.002-1.357,0.064-1.908,0.182c-0.431,0.088-0.771,0.194-0.983,0.271l-0.361,0.139l-1.552,0.607l1.651-0.223
	c0.002,0,0.072-0.01,0.213-0.024c0.115-0.017,0.306-0.037,0.558-0.041c0.072-0.003,0.149-0.004,0.229-0.004
	c0.355,0,0.929,0.025,1.64,0.148c0.492,0.085,1.002,0.203,1.517,0.353l0.127,0.18c0.18,0.256,0.36,0.512,0.544,0.781l0.2,0.297
	c0.354,0.527,0.707,1.06,1.057,1.604c-0.799-0.19-1.621-0.298-2.319-0.298l-0.094,0.001c-0.438,0.003-0.793,0.042-1.019,0.075
	l-0.38,0.066l-1.55,0.273l1.568,0.123l0.218,0.018c0.179,0.011,0.365,0.033,0.556,0.066c0.316,0.052,0.973,0.186,1.808,0.503
	c0.81,0.312,1.556,0.677,2.218,1.085l0.009-0.014c0.338,0.539,0.619,1.021,0.86,1.473c0.104,0.193,0.203,0.388,0.302,0.584
	c-0.496-0.168-1.008-0.308-1.499-0.406l-0.724-0.133l-0.354-0.041l-0.197-0.023l-0.479-0.053l-0.083,0.39l0.939,0.303l0.244,0.094
	c0.576,0.219,1.292,0.491,2.058,0.943c0.265,0.15,0.552,0.342,0.877,0.585c0.644,1.479,1.154,2.981,1.523,4.479
	c-0.408-0.316-0.82-0.576-1.156-0.781c-0.557-0.312-1.017-0.536-1.398-0.684c-0.212-0.091-0.412-0.163-0.589-0.221
	c-0.18-0.062-0.339-0.114-0.467-0.146l-0.405-0.108l-1.696-0.449l1.552,0.819l0.198,0.107l0.096,0.052
	c0.118,0.064,0.271,0.146,0.45,0.262c0.406,0.242,1.032,0.657,1.711,1.256c0.723,0.639,1.361,1.361,1.845,2.086
	c0.147,0.235,0.274,0.457,0.388,0.675c0.095,0.798,0.146,1.586,0.151,2.351c-0.239-0.188-0.477-0.364-0.711-0.524
	c-0.554-0.351-0.987-0.593-1.358-0.759c-0.208-0.103-0.404-0.186-0.578-0.252l-0.049-0.02c-0.157-0.063-0.294-0.117-0.409-0.152
	l-0.395-0.13l-1.454-0.485l1.281,0.842c0,0,0.066,0.044,0.194,0.124l0.112,0.069c0.112,0.068,0.253,0.154,0.417,0.273
	c0.391,0.264,0.993,0.711,1.641,1.347c0.429,0.423,0.843,0.903,1.202,1.394c-0.104,0.728-0.278,1.447-0.506,2.087
	c-0.234,0.66-0.577,1.324-1.02,1.978c-0.387-0.926-0.901-1.886-1.414-2.637c-0.147-0.236-0.293-0.435-0.414-0.6
	c-0.06-0.08-0.113-0.153-0.162-0.224l-0.219-0.301l-0.924-1.289l0.575,1.478l0.289,0.74c0.094,0.221,0.191,0.498,0.307,0.822
	c0.057,0.159,0.118,0.328,0.18,0.495l0.065,0.218l0.109,0.359c0.088,0.254,0.157,0.531,0.229,0.826
	c0.034,0.137,0.068,0.275,0.105,0.413c0.032,0.127,0.056,0.259,0.08,0.392c0.017,0.094,0.033,0.188,0.053,0.281
	c0.024,0.121,0.048,0.244,0.069,0.369c-0.676,0.734-1.454,1.41-2.318,2.013c-0.001-0.03-0.003-0.06-0.004-0.09
	c-0.056-1.022-0.228-2.132-0.47-3.035c-0.062-0.274-0.135-0.511-0.195-0.707c-0.029-0.095-0.055-0.179-0.077-0.259l-0.106-0.359
	l-0.444-1.501l0.053,1.564l0.028,0.795c0.016,0.242,0.018,0.539,0.018,0.878l0.005,0.364l0.001,0.163l-0.012,0.316l-0.012,0.283
	c0,0.268-0.027,0.549-0.056,0.848c-0.014,0.144-0.027,0.289-0.038,0.433c-0.012,0.134-0.033,0.269-0.055,0.404
	c-0.015,0.093-0.029,0.185-0.041,0.277c-0.023,0.181-0.05,0.362-0.086,0.545c-0.856,0.462-1.72,0.823-2.569,1.075
	c-0.691,0.203-1.413,0.326-2.148,0.365c0.048-0.056,0.097-0.111,0.145-0.168c0.753-0.941,1.346-2.123,1.585-3.156
	c0.052-0.206,0.108-0.447,0.132-0.67l0.019-0.134c0.021-0.151,0.039-0.286,0.037-0.396l0.015-0.454l0.054-1.805l-0.447,1.749
	l-0.073,0.288c-0.036,0.147-0.086,0.35-0.18,0.587c-0.132,0.371-0.445,1.112-1.051,1.911c-0.416,0.549-1.111,1.33-2.058,1.931
	c-0.117,0.073-0.239,0.134-0.361,0.196l-0.003,0.002c-0.885-0.14-1.776-0.383-2.651-0.724c-1.275-0.495-2.564-1.192-3.836-2.074
	c0.661-0.185,1.364-0.479,2.021-0.851c0.839-0.503,1.688-1.228,2.322-1.982c0.194-0.213,0.339-0.423,0.455-0.592
	c0.053-0.078,0.102-0.148,0.152-0.215l0.217-0.305l0.906-1.275l-1.198,1.006l-0.6,0.504l-0.107,0.092
	c-0.061,0.051-0.124,0.105-0.186,0.153l-0.089,0.062l-0.299,0.205l-0.199,0.138l-0.227,0.157c-0.093,0.063-0.196,0.116-0.301,0.172
	c-0.062,0.033-0.124,0.065-0.181,0.098l-0.193,0.107c-0.107,0.06-0.216,0.121-0.321,0.172l-0.588,0.245l-0.279,0.118
	c-0.102,0.03-0.207,0.06-0.316,0.091c-0.09,0.025-0.179,0.053-0.268,0.08c-0.122,0.038-0.243,0.075-0.36,0.105
	c-0.605,0.134-1.272,0.202-1.98,0.202c-0.115,0-0.231-0.002-0.346-0.006c-1.14-0.977-2.234-2.085-3.259-3.3
	c0.47-0.034,0.937-0.122,1.368-0.26c0.613-0.188,1.236-0.487,1.849-0.884c0.547-0.343,1.004-0.713,1.375-1.014
	c0.414-0.354,0.693-0.602,0.875-0.776l0.321-0.298l1.299-1.212l-1.536,0.893l-0.787,0.458l-0.074,0.042
	c-0.498,0.28-1.18,0.665-2.015,1.015c-0.384,0.17-0.843,0.316-1.397,0.446c-0.358,0.071-0.719,0.108-1.071,0.108
	c-0.15,0-0.3-0.007-0.448-0.021c-0.366-0.036-0.741-0.12-1.146-0.259c-0.672-0.922-1.191-1.747-1.587-2.522
	c-5.158-10.13-8.952-19.942-11.278-29.173c4.984,1.607,9.887,4.439,13.497,7.805c4.882,4.551,7.052,9.512,5.953,13.608
	c-0.076,0.287-0.216,0.446-0.452,0.519c-0.142,0.044-0.339,0.067-0.555,0.067c-0.351,0-1.584-0.076-2.713-1.056
	c-3.59-3.113-4.619-8.387-4.661-10.74c-0.008-0.427-0.009-0.492-0.189-0.508l-0.088-0.007l-0.065,0.061
	c-0.066,0.063-0.066,0.063-0.056,0.711c0.038,2.147,0.138,7.853,4.355,11.513c1.184,1.027,2.507,1.616,3.632,1.616
	c0.29,0,0.563-0.038,0.813-0.114c0.771-0.237,1.316-0.821,1.537-1.645c1.259-4.69-1.078-10.232-6.41-15.205
	c-4.119-3.839-9.647-6.949-15.206-8.546c-1.504-0.43-3.012-0.745-4.479-0.939l-0.087-0.013l-0.104-0.015
	c-0.224-0.028-0.447-0.051-0.679-0.074l-0.16-0.016l-0.143-0.015c-0.204-0.018-0.408-0.031-0.615-0.045
	c-0.122-0.01-0.242-0.018-0.363-0.023c-0.192-0.01-0.384-0.017-0.576-0.022c-0.134-0.004-0.269-0.008-0.402-0.009l-0.299-0.002
	l-0.253,0.001c-0.142,0.002-0.283,0.004-0.424,0.008c-0.172,0.006-0.343,0.013-0.517,0.021c-0.151,0.008-0.304,0.018-0.45,0.029
	c-0.166,0.011-0.33,0.023-0.493,0.039c-0.159,0.015-0.316,0.032-0.475,0.051c-0.156,0.018-0.312,0.035-0.467,0.057
	c-0.167,0.022-0.332,0.05-0.497,0.077l-0.091,0.015c-0.115,0.019-0.23,0.037-0.344,0.059c-0.178,0.032-0.354,0.07-0.529,0.108
	l-0.145,0.03c-0.084,0.018-0.168,0.035-0.252,0.055c-0.164,0.038-0.328,0.082-0.491,0.125l-0.103,0.028l-0.141,0.036
	c-0.06,0.016-0.119,0.031-0.179,0.048c-0.304,0.088-0.604,0.182-0.902,0.284c-1.151,0.398-2.172,0.6-3.032,0.6
	c-0.946,0-2.166-0.257-2.604-1.482c-0.479-1.344,0.215-3.27,1.328-3.68c0.625-0.23,1.247-0.445,1.866-0.651l0.124-0.041l0.123-0.041
	c0.583-0.191,1.163-0.368,1.739-0.537l0.137-0.04l0.203-0.058c0.564-0.161,1.124-0.311,1.684-0.449l0.231-0.057l0.118-0.028
	c0.561-0.137,1.12-0.263,1.675-0.376l0.136-0.026l0.152-0.03c0.108-0.021,0.216-0.041,0.324-0.061
	c-0.109,0.241-0.197,0.493-0.256,0.735c-0.07,0.32-0.11,0.569-0.119,0.734l-0.022,0.27l-0.094,1.174l0.476-1.077
	c0.002-0.003,0.089-0.2,0.243-0.505c0.237-0.44,0.499-0.793,0.802-1.081c0.239-0.236,0.551-0.438,0.854-0.569
	c0.401-0.06,0.802-0.117,1.201-0.165l0.096-0.012l0.311-0.036l0.195-0.019l0.14-0.015c0.069,0.004,0.139,0.008,0.208,0.014
	l0.212-0.017l0.001-0.035c0.15-0.016,0.302-0.03,0.454-0.044c-0.068,0.124-0.123,0.246-0.165,0.365
	c-0.079,0.238-0.128,0.482-0.139,0.698c0,0.361,0,0.407,0.146,0.449l0.027,0.008h0.027l0.16-0.038l0.045-0.138
	c0.022-0.066,0.074-0.222,0.191-0.401c0.162-0.261,0.443-0.52,0.755-0.695C16.045,59.858,16.436,59.729,16.873,59.658z
	 M195.669,59.652l-0.186-0.003c-0.23-0.005-0.462-0.007-0.693-0.007c-0.255,0-0.51,0.003-0.763,0.009
	c-0.679,0.014-1.367,0.05-2.104,0.109c0.343,0.329,0.608,0.694,0.756,1.048c0.096,0.221,0.16,0.477,0.176,0.701
	c0.01,0.181,0.007,0.281,0.007,0.281l-0.007,0.19l-0.189,0.004l-0.146,0.002l-0.062-0.173c-0.023-0.066-0.077-0.223-0.2-0.397
	c-0.162-0.244-0.452-0.477-0.78-0.627c-0.455-0.213-1.006-0.351-1.538-0.484c-0.277-0.069-0.554-0.139-0.818-0.218
	c-1.013,0.158-2.034,0.363-3.041,0.611c0.253,0.325,0.456,0.742,0.603,1.238c0.038,0.133,0.057,0.253,0.072,0.352l0.017,0.098
	l0.027,0.172l0.119,0.725l-0.47-0.564l-0.25-0.3c-0.084-0.105-0.169-0.192-0.261-0.271l-0.076-0.068
	c-0.09-0.082-0.175-0.16-0.28-0.226c-0.234-0.176-0.526-0.329-0.884-0.467c-0.202-0.068-0.393-0.115-0.555-0.15
	c-1.31,0.4-2.59,0.871-3.813,1.401c0.02,0.013,0.038,0.025,0.057,0.039c0.508,0.343,0.852,0.801,1.103,1.136
	c0.23,0.359,0.363,0.591,0.363,0.591l0.379,0.656l-0.653-0.384l-0.362-0.215c-0.229-0.146-0.555-0.313-0.878-0.449
	c-0.352-0.15-0.749-0.253-1.117-0.289c-0.089-0.006-0.181-0.009-0.271-0.009c-0.247,0-0.482,0.02-0.717,0.039l-0.114,0.009
	l-0.179,0.015c-1.56,0.813-3.127,1.774-4.67,2.862c0.602,0.208,1.211,0.496,1.749,0.828c0.396,0.249,0.718,0.469,0.932,0.637
	l0.329,0.246l1.385,1.027l-1.583-0.683l-0.798-0.343c-0.47-0.191-1.2-0.467-2.078-0.632c-0.389-0.077-0.808-0.116-1.247-0.116
	h-0.012c-0.393,0.3-0.806,0.628-1.294,1.028c-0.271,0.222-0.54,0.448-0.809,0.679l-0.242,0.211l-0.108,0.096
	c-0.422,0.366-0.84,0.744-1.255,1.131l-0.141,0.132c0.406,0.106,0.794,0.238,1.138,0.387c0.502,0.231,0.859,0.405,1.103,0.561
	l0.386,0.226l1.548,0.908l-1.71-0.545l-0.897-0.286c-0.525-0.14-1.346-0.333-2.294-0.351h-0.07c-0.046,0-0.093,0-0.14,0.001
	c-0.098,0.097-0.195,0.195-0.294,0.294l-0.116,0.117c-0.198,0.199-0.396,0.4-0.593,0.604c-0.208,0.216-0.415,0.433-0.622,0.652
	c-0.325,0.349-0.648,0.702-0.971,1.063c-0.17,0.192-0.342,0.389-0.514,0.586c-0.059,0.067-0.117,0.137-0.176,0.206
	c0.37,0.06,0.722,0.14,1.047,0.237c0.662,0.213,1.112,0.447,1.321,0.568l0.47,0.302l-0.186,0.353l-0.274-0.114l-0.125-0.05
	l-0.196-0.08l-0.16-0.043l-0.262-0.073c-0.35-0.089-0.938-0.196-1.73-0.196c-0.229,0-0.463,0.01-0.695,0.028
	c-0.107,0.129-0.204,0.247-0.3,0.366l-0.106,0.131c-0.317,0.39-0.634,0.786-0.947,1.189l-0.126,0.161
	c-0.061,0.078-0.122,0.156-0.182,0.236c-0.302,0.394-0.601,0.791-0.897,1.196c0.701,0.002,1.361,0.064,1.911,0.183
	c0.427,0.085,0.767,0.192,0.976,0.267l0.366,0.141l1.47,0.57l-1.565-0.186l-0.211-0.023c-0.185-0.025-0.372-0.039-0.56-0.042
	c-0.073-0.003-0.146-0.004-0.224-0.004c-0.358,0-0.937,0.026-1.649,0.149c-0.49,0.083-1.001,0.201-1.518,0.352l-0.191,0.273
	c-0.159,0.226-0.318,0.451-0.477,0.683l-0.099,0.148l-0.101,0.149c-0.354,0.529-0.708,1.063-1.059,1.608
	c0.796-0.19,1.616-0.296,2.312-0.296h0.104c0.433,0.002,0.789,0.041,1.011,0.073l0.385,0.067l1.55,0.273l-1.568,0.123l-0.212,0.018
	c-0.186,0.011-0.372,0.033-0.558,0.066c-0.323,0.053-0.982,0.188-1.81,0.503c-0.804,0.308-1.551,0.673-2.22,1.085l-0.029,0.02
	c-0.337,0.54-0.604,0.998-0.84,1.439c-0.104,0.193-0.204,0.389-0.303,0.586c0.503-0.172,1.013-0.311,1.496-0.407l0.715-0.132
	l0.401-0.046l0.162-0.019l0.479-0.055l0.084,0.39l-0.949,0.307l-0.226,0.086c-0.578,0.22-1.297,0.492-2.063,0.945
	c-0.27,0.153-0.549,0.339-0.88,0.587c-0.643,1.477-1.153,2.979-1.522,4.477c0.322-0.249,0.69-0.496,1.149-0.774
	c0.576-0.323,1.022-0.541,1.41-0.69c0.207-0.089,0.408-0.161,0.588-0.219c0.177-0.061,0.334-0.114,0.47-0.146l0.396-0.107
	l1.643-0.44l-1.496,0.81l-0.2,0.109l-0.115,0.063c-0.115,0.063-0.261,0.141-0.425,0.245c-0.414,0.25-1.044,0.668-1.715,1.26
	c-0.501,0.441-1.229,1.162-1.85,2.091c-0.145,0.232-0.271,0.454-0.383,0.67c-0.096,0.792-0.146,1.581-0.152,2.351
	c0.229-0.182,0.465-0.355,0.705-0.521c0.563-0.355,0.996-0.598,1.37-0.766c0.202-0.1,0.397-0.183,0.575-0.251
	c0.173-0.069,0.327-0.131,0.459-0.17l0.392-0.13l1.565-0.511l-1.397,0.871l-0.195,0.121l-0.113,0.069
	c-0.111,0.068-0.252,0.153-0.408,0.269c-0.398,0.268-1.001,0.717-1.646,1.351c-0.431,0.424-0.846,0.904-1.203,1.394
	c0.103,0.724,0.276,1.443,0.506,2.087c0.233,0.657,0.575,1.321,1.019,1.977c0.39-0.928,0.904-1.887,1.419-2.643
	c0.14-0.225,0.281-0.418,0.401-0.58c0.063-0.085,0.119-0.161,0.165-0.23l0.223-0.308l0.919-1.27l-0.57,1.459l-0.284,0.734
	c-0.098,0.229-0.198,0.51-0.31,0.826l-0.184,0.508c-0.051,0.171-0.108,0.361-0.171,0.56c-0.089,0.258-0.156,0.534-0.229,0.825
	c-0.034,0.14-0.069,0.281-0.106,0.422c-0.034,0.131-0.059,0.269-0.084,0.406c-0.016,0.089-0.032,0.178-0.05,0.267
	c-0.025,0.121-0.049,0.243-0.07,0.367c0.678,0.736,1.456,1.412,2.318,2.013c0.001-0.029,0.003-0.059,0.004-0.089
	c0.057-1.024,0.229-2.133,0.473-3.043c0.06-0.269,0.133-0.505,0.193-0.702c0.028-0.094,0.055-0.178,0.074-0.252l0.109-0.363
	l0.449-1.508l-0.058,1.572l-0.028,0.787c-0.017,0.249-0.018,0.547-0.019,0.883l-0.006,0.539l0.009,0.207l0.016,0.375
	c0,0.276,0.026,0.561,0.055,0.86c0.014,0.142,0.027,0.286,0.038,0.431c0.012,0.125,0.032,0.257,0.054,0.389
	c0.015,0.096,0.03,0.192,0.042,0.289c0.024,0.181,0.05,0.363,0.086,0.546c0.857,0.462,1.722,0.823,2.569,1.073
	c0.693,0.205,1.414,0.328,2.15,0.367c-0.048-0.055-0.095-0.109-0.142-0.164c-0.757-0.945-1.35-2.127-1.59-3.164
	c-0.055-0.217-0.109-0.451-0.132-0.671l-0.015-0.107c-0.022-0.159-0.042-0.3-0.041-0.427l-0.013-0.445l-0.054-1.805l0.447,1.749
	l0.062,0.241c0.045,0.186,0.095,0.39,0.189,0.627c0.135,0.378,0.446,1.119,1.052,1.918c0.419,0.55,1.115,1.332,2.061,1.932
	c0.104,0.064,0.212,0.12,0.321,0.176l0.04,0.021c0.886-0.14,1.777-0.383,2.651-0.724c1.277-0.495,2.565-1.192,3.837-2.075
	c-0.66-0.185-1.361-0.479-2.017-0.848c-0.844-0.506-1.692-1.23-2.332-1.991c-0.19-0.206-0.335-0.417-0.45-0.586
	c-0.054-0.077-0.102-0.147-0.147-0.206l-0.222-0.314l-0.869-1.239l1.161,0.972l0.603,0.505l0.108,0.093
	c0.061,0.051,0.123,0.105,0.192,0.158l0.17,0.117l0.208,0.143l0.278,0.191l0.15,0.105c0.089,0.06,0.189,0.112,0.292,0.167
	c0.064,0.034,0.128,0.067,0.191,0.104c0.062,0.033,0.129,0.07,0.196,0.108c0.104,0.059,0.211,0.118,0.322,0.173l0.579,0.24
	l0.076,0.031l0.225,0.095l0.242,0.068l0.053,0.015c0.087,0.024,0.173,0.051,0.259,0.077c0.124,0.039,0.248,0.076,0.375,0.109
	c0.606,0.133,1.275,0.201,1.981,0.201c0.113,0,0.227-0.002,0.338-0.006c1.14-0.975,2.235-2.084,3.26-3.3
	c-0.469-0.034-0.936-0.122-1.369-0.261c-0.611-0.188-1.235-0.486-1.851-0.885c-0.552-0.345-1.024-0.729-1.368-1.009
	c-0.418-0.356-0.697-0.604-0.882-0.781l-0.318-0.296l-1.299-1.212l1.536,0.893l0.789,0.46l0.066,0.037
	c0.499,0.281,1.183,0.667,2.017,1.016c0.386,0.171,0.846,0.317,1.408,0.45c0.354,0.069,0.716,0.106,1.067,0.106
	c0.149,0,0.298-0.007,0.447-0.021c0.363-0.036,0.739-0.12,1.145-0.259c0.682-0.936,1.186-1.738,1.586-2.522
	c5.156-10.125,8.951-19.938,11.279-29.173c-4.984,1.607-9.887,4.439-13.497,7.805c-4.882,4.552-7.053,9.512-5.954,13.608
	c0.077,0.291,0.213,0.446,0.452,0.519c0.143,0.044,0.34,0.067,0.556,0.067c0.351,0,1.584-0.076,2.713-1.056
	c3.594-3.117,4.619-8.39,4.659-10.742c0.008-0.394,0.008-0.394,0.07-0.452l0.062-0.058l0.084,0.004
	c0.197,0.008,0.197,0.008,0.185,0.762c-0.038,2.149-0.138,7.855-4.356,11.516c-1.184,1.027-2.507,1.616-3.632,1.616
	c-0.288,0-0.562-0.038-0.811-0.114c-0.772-0.238-1.318-0.822-1.539-1.645c-1.258-4.692,1.079-10.234,6.411-15.205
	c4.121-3.842,9.649-6.952,15.168-8.535c1.541-0.44,3.05-0.756,4.521-0.95c0.059-0.009,0.124-0.02,0.189-0.027
	c0.227-0.028,0.452-0.052,0.679-0.074l0.144-0.015l0.156-0.016c0.209-0.018,0.413-0.032,0.619-0.046l0.361-0.022
	c0.193-0.01,0.385-0.017,0.577-0.022c0.135-0.004,0.269-0.008,0.402-0.009l0.298-0.002l0.244,0.001
	c0.147,0.002,0.29,0.004,0.433,0.008c0.174,0.006,0.344,0.013,0.514,0.021c0.155,0.008,0.307,0.019,0.456,0.029
	c0.163,0.011,0.328,0.023,0.492,0.039c0.152,0.015,0.304,0.031,0.457,0.049c0.173,0.02,0.327,0.037,0.481,0.058
	c0.168,0.024,0.334,0.051,0.5,0.078l0.09,0.015c0.115,0.019,0.23,0.037,0.344,0.059c0.177,0.032,0.354,0.07,0.531,0.108l0.145,0.03
	c0.083,0.018,0.166,0.035,0.249,0.055c0.174,0.04,0.346,0.086,0.519,0.133l0.076,0.021l0.135,0.035l0.182,0.049
	c0.305,0.088,0.607,0.182,0.905,0.284c1.151,0.398,2.172,0.6,3.033,0.6c0.946,0,2.166-0.258,2.604-1.482
	c0.479-1.344-0.216-3.27-1.328-3.68c-0.626-0.23-1.248-0.445-1.866-0.651l-0.157-0.052l-0.091-0.031
	c-0.582-0.189-1.162-0.367-1.739-0.537l-0.168-0.048l-0.171-0.049c-0.563-0.159-1.126-0.31-1.685-0.449l-0.239-0.059l-0.109-0.026
	c-0.561-0.135-1.119-0.263-1.674-0.377l-0.173-0.033l-0.115-0.021c-0.108-0.021-0.217-0.042-0.324-0.061
	c0.11,0.242,0.197,0.493,0.254,0.732c0.071,0.315,0.111,0.564,0.121,0.742l0.021,0.264l0.094,1.174l-0.476-1.077
	c-0.002-0.003-0.089-0.2-0.246-0.508c-0.227-0.427-0.495-0.79-0.796-1.075c-0.239-0.236-0.55-0.438-0.904-0.585
	c-0.354-0.047-0.755-0.104-1.153-0.152l-0.099-0.012l-0.306-0.036c-0.073-0.009-0.146-0.015-0.219-0.021l-0.146-0.013
	c-0.069,0.006-0.123,0.008-0.177,0.014l-0.214,0.021l-0.002-0.072l-0.037-0.004c-0.139-0.014-0.277-0.027-0.417-0.04
	c0.067,0.125,0.122,0.246,0.163,0.364c0.106,0.312,0.134,0.565,0.141,0.688v0.268v0.198l-0.198,0.002l-0.146,0.001l-0.063-0.178
	c-0.024-0.072-0.074-0.223-0.188-0.396c-0.165-0.266-0.446-0.525-0.756-0.697c-0.305-0.176-0.695-0.305-1.132-0.375l-0.051-0.201
	l-0.005,0.2L195.669,59.652z M76.852,39.919c0.019,0,0.103,0.019,0.293,0.019c3.228,0,22.114-4.982,23.212-18.066
	c-0.335-0.406-2.326-2.775-5.581-5.781l-0.23,0.136l-0.131,0.077l-0.915,0.537c-2.453,1.545-4.88,3.418-7.011,5.41
	c-2.247,2.095-3.661,3.893-4.304,4.778l-0.617,0.87l-0.404,0.672l-0.35,0.576l-0.351-0.191l0.558-1.12
	c0.334-0.624,0.905-1.608,1.751-2.783c1.592-2.255,4.039-4.851,6.714-7.121c1.328-1.101,2.685-2.099,4.037-2.972
	c-2.561-2.262-5.238-4.322-7.966-6.127c-0.716,0.363-1.288,0.703-1.793,1.063c-1.49,1.002-2.935,2.348-4.297,4.002
	c-0.883,1.086-1.679,2.256-2.433,3.573c-0.2,0.329-0.351,0.612-0.471,0.84l-0.133,0.246l-0.211,0.39l-0.362-0.168l0.297-0.768
	c0.091-0.246,0.217-0.543,0.367-0.882c0.148-0.345,0.315-0.722,0.52-1.124c0.357-0.758,0.874-1.667,1.532-2.695
	c0.666-1,1.411-1.947,2.218-2.818c0.812-0.854,1.728-1.651,2.722-2.371c0.151-0.097,0.29-0.189,0.427-0.279l0.035-0.023
	c-2.565-1.596-5.177-2.967-7.769-4.079L76.2,3.742c-0.053,0.038-0.105,0.076-0.157,0.115c-1.729,1.342-2.933,2.883-3.637,3.938
	c-0.956,1.429-1.472,2.734-1.736,3.578c-0.136,0.38-0.208,0.698-0.267,0.953l-0.039,0.171l-0.097,0.413l-0.394-0.065l0.077-0.783
	c0.013-0.234,0.065-0.503,0.127-0.814l0.018-0.091l0.033-0.173c0.023-0.121,0.047-0.247,0.077-0.375l0.074-0.267l0.093-0.329
	c0.214-0.791,0.578-1.704,1.082-2.713c0.468-0.908,1.079-1.846,1.817-2.789c0.429-0.514,0.872-0.993,1.324-1.434
	c-2.82-1.1-5.672-1.915-8.48-2.426l-0.042,0.033l-0.144,0.115c-1.134,0.972-2.232,2.107-3.259,3.369
	c-0.968,1.188-1.614,2.193-1.985,2.828l-0.164,0.284l-0.126,0.219l-0.082,0.164l-0.108,0.214l-0.166,0.33l-0.369-0.151l0.211-0.646
	c0.129-0.365,0.351-0.943,0.688-1.648c0.661-1.413,1.695-3.046,2.838-4.479c0.255-0.314,0.523-0.626,0.802-0.931
	C62.46,0.119,60.7,0,58.973,0c-0.795,0-1.599,0.025-2.39,0.075c-0.086,0.08-0.172,0.162-0.256,0.244
	c-0.802,0.816-1.577,1.777-2.367,2.935c-0.633,0.931-1.119,1.76-1.472,2.379l-0.532,0.953l-0.365-0.158l0.161-0.503
	c0.095-0.286,0.253-0.763,0.471-1.321c0.297-0.785,0.937-2.33,1.883-3.844c0.101-0.161,0.207-0.324,0.319-0.488
	c-3.15,0.377-6.299,1.159-9.365,2.325c-0.326,0.842-0.613,1.763-0.854,2.738c-0.291,1.192-0.419,2.15-0.475,2.744
	c-0.038,0.359-0.051,0.637-0.054,0.807l-0.012,0.302l-0.398,0.021L43.187,8.67c-0.04-0.318-0.092-0.822-0.108-1.441
	c-0.039-1.214,0.081-2.643,0.332-3.966c-2.051,0.879-4.099,1.944-6.094,3.171c-0.519,0.942-0.951,1.926-1.25,2.847
	c-0.306,0.963-0.498,1.942-0.525,2.686c-0.025,0.231-0.019,0.417-0.013,0.581c0.003,0.092,0.006,0.173,0.004,0.244l0.004,0.289
	l-0.396,0.044l-0.11-0.539c-0.038-0.179-0.081-0.396-0.098-0.646c-0.006-0.079-0.015-0.16-0.024-0.246
	c-0.019-0.174-0.041-0.372-0.034-0.581c-0.032-1.004,0.121-2.211,0.426-3.374c-1.009,0.684-2.021,1.42-3.016,2.193
	c-0.091,0.11-0.251,0.285-0.445,0.499c-0.616,0.675-1.644,1.801-2.833,3.345c-0.188,0.953-0.316,1.826-0.381,2.597
	c-0.138,1.718-0.028,2.973,0.049,3.567c0.024,0.305,0.069,0.559,0.104,0.762c0.019,0.101,0.034,0.19,0.045,0.27l0.06,0.365
	l-0.388,0.093l-0.212-0.659l-0.111-0.348l-0.108-0.428l-0.029-0.119c-0.066-0.268-0.143-0.571-0.194-0.902l-0.025-0.139
	l-0.078-0.436l-0.05-0.418l-0.025-0.215c-0.045-0.311-0.063-0.629-0.082-0.967l-0.023-0.391c-0.006-0.21-0.008-0.422-0.007-0.635
	c-1.389,2.013-2.646,4.177-3.743,6.44c-0.056,0.54-0.091,0.981-0.111,1.386c-0.116,2.032,0.038,3.966,0.436,5.446
	c0.138,0.529,0.311,1.039,0.514,1.518l0.245,0.533l-0.354,0.185l-0.146-0.252c-0.145-0.237-0.272-0.478-0.391-0.731
	c-0.218-0.451-0.63-1.41-0.923-2.728c-0.196-0.838-0.331-1.794-0.4-2.85c-1.239,2.951-2.231,6.082-2.953,9.32
	c0.029,1.529,0.152,2.926,0.37,4.106c0.369,1.983,0.937,3.491,1.242,4.213c0.126,0.335,0.256,0.612,0.361,0.834
	c0.058,0.124,0.109,0.233,0.15,0.331l0.185,0.408l-0.354,0.188l-0.438-0.718l-0.032-0.053c-0.133-0.216-0.298-0.483-0.458-0.801
	c-0.057-0.114-0.12-0.23-0.186-0.351c-0.125-0.232-0.268-0.495-0.389-0.784l-0.093-0.206c-0.168-0.369-0.342-0.752-0.489-1.179
	c-0.195-0.482-0.353-1.005-0.52-1.558c-0.035-0.129-0.07-0.258-0.104-0.391c-0.947,6.251-0.976,12.967-0.08,19.983
	c1.425,0.032,2.856,0.144,4.26,0.331c0.028-0.012,0.045-0.018,0.045-0.018l0.183-0.066l0.049,0.121
	c1.692,0.238,3.369,0.59,4.986,1.046l0.052-0.021l0.199-0.083l0.063,0.192c3.868,1.124,7.624,2.896,11.164,5.269
	c0.105,0.07,0.21,0.142,0.314,0.213c-3.421-7.166-3.414-14.713,0.017-23.044l0.138-0.309c1.391-3.116,5.622-12.601,15.324-12.601
	c6.033,0,13.154,3.643,21.167,10.825C76.848,39.92,76.849,39.919,76.852,39.919z M135.727,39.938c0.256,0,0.32-0.033,0.323-0.034
	c7.984-7.165,15.107-10.81,21.14-10.81c9.703,0,13.936,9.484,15.326,12.602l0.136,0.303c3.434,8.338,3.44,15.885,0.018,23.05
	c0.104-0.071,0.21-0.143,0.315-0.214c3.54-2.369,7.295-4.142,11.162-5.268l0.064-0.193l0.199,0.083l0.054,0.022
	c1.616-0.455,3.292-0.807,4.985-1.045l0.051-0.13l0.188,0.076l0.036,0.016c1.405-0.187,2.838-0.298,4.262-0.331
	c0.895-7.02,0.867-13.734-0.08-19.981c-0.031,0.122-0.063,0.24-0.095,0.354c-0.177,0.588-0.334,1.109-0.533,1.603
	c-0.142,0.409-0.312,0.784-0.478,1.148l-0.104,0.23c-0.121,0.288-0.265,0.554-0.392,0.788c-0.063,0.117-0.125,0.23-0.181,0.342
	c-0.152,0.305-0.313,0.564-0.441,0.773l-0.048,0.08l-0.439,0.719l-0.354-0.188l0.189-0.415c0.039-0.095,0.093-0.211,0.154-0.342
	c0.103-0.219,0.229-0.49,0.351-0.81c0.309-0.73,0.876-2.24,1.245-4.221c0.218-1.185,0.341-2.582,0.365-4.152
	c-0.717-3.191-1.709-6.32-2.948-9.275c-0.07,1.062-0.205,2.018-0.402,2.854c-0.294,1.322-0.704,2.276-0.923,2.728
	c-0.115,0.249-0.244,0.489-0.392,0.732l-0.143,0.247l-0.354-0.184l0.247-0.539c0.201-0.477,0.374-0.986,0.51-1.51
	c0.398-1.478,0.553-3.411,0.438-5.446c-0.021-0.423-0.059-0.876-0.112-1.388c-1.094-2.259-2.351-4.422-3.742-6.44
	c0.001,0.216-0.002,0.426-0.007,0.626c-0.01,0.143-0.018,0.274-0.024,0.405c-0.02,0.336-0.037,0.653-0.081,0.966l-0.047,0.387
	l-0.028,0.231l-0.073,0.41l-0.031,0.179c-0.054,0.34-0.133,0.653-0.202,0.93l-0.021,0.087l-0.104,0.415l-0.059,0.184l-0.058,0.179
	l-0.211,0.656l-0.388-0.094l0.06-0.368c0.01-0.074,0.025-0.163,0.043-0.263c0.036-0.204,0.081-0.458,0.104-0.755
	c0.079-0.604,0.188-1.855,0.05-3.576c-0.063-0.77-0.188-1.619-0.38-2.597c-1.186-1.537-2.211-2.662-2.825-3.337
	c-0.198-0.217-0.36-0.395-0.48-0.533c-0.964-0.746-1.974-1.479-2.988-2.167c0.304,1.161,0.457,2.37,0.425,3.388
	c0.007,0.199-0.016,0.399-0.035,0.576c-0.009,0.082-0.018,0.161-0.023,0.236c-0.016,0.246-0.057,0.455-0.098,0.648l-0.109,0.538
	l-0.396-0.042l0.004-0.302c-0.003-0.062,0-0.145,0.003-0.238c0.006-0.163,0.013-0.349-0.012-0.563
	c-0.028-0.757-0.22-1.736-0.526-2.701c-0.299-0.919-0.73-1.902-1.249-2.846c-1.995-1.226-4.043-2.291-6.095-3.17
	c0.251,1.321,0.371,2.75,0.333,3.966c-0.019,0.636-0.069,1.132-0.109,1.436l-0.081,0.544l-0.398-0.02l-0.012-0.301
	c-0.005-0.191-0.018-0.467-0.053-0.81c-0.058-0.602-0.188-1.566-0.477-2.744c-0.237-0.965-0.523-1.886-0.853-2.738
	c-3.066-1.166-6.215-1.948-9.365-2.325c0.113,0.165,0.22,0.328,0.319,0.486c0.942,1.51,1.585,3.059,1.884,3.849
	c0.216,0.552,0.367,1.013,0.469,1.317l0.161,0.502l-0.365,0.159l-0.533-0.954c-0.32-0.563-0.823-1.425-1.47-2.378
	c-0.797-1.163-1.572-2.124-2.37-2.938c-0.082-0.079-0.168-0.16-0.255-0.24C155.495,0.024,154.692,0,153.897,0
	c-1.727,0-3.485,0.117-5.235,0.351c0.276,0.304,0.545,0.615,0.801,0.93c1.145,1.438,2.179,3.071,2.839,4.482
	c0.338,0.706,0.56,1.284,0.686,1.644l0.213,0.65l-0.368,0.152l-0.168-0.33l-0.063-0.126l-0.132-0.265l-0.284-0.492
	c-0.372-0.634-1.019-1.64-1.986-2.826c-1.021-1.256-2.118-2.392-3.264-3.375l-0.179-0.143c-2.808,0.51-5.659,1.324-8.481,2.426
	c0.453,0.441,0.896,0.921,1.32,1.428c0.74,0.944,1.351,1.883,1.818,2.792c0.504,1.003,0.868,1.916,1.086,2.716l0.074,0.266
	l0.09,0.32c0.034,0.146,0.06,0.278,0.083,0.406l0.028,0.149l0.018,0.092c0.062,0.312,0.114,0.581,0.127,0.824l0.078,0.773
	l-0.394,0.065l-0.098-0.415l-0.04-0.171c-0.058-0.255-0.13-0.572-0.264-0.943c-0.217-0.696-0.729-2.076-1.737-3.586
	c-0.704-1.056-1.906-2.596-3.638-3.938c-0.051-0.039-0.102-0.075-0.153-0.112l-0.01-0.008c-2.592,1.113-5.203,2.484-7.769,4.079
	l0.051,0.033c0.132,0.088,0.266,0.177,0.402,0.265c1.002,0.724,1.917,1.521,2.729,2.374c0.804,0.868,1.55,1.815,2.218,2.815
	c0.674,1.055,1.176,1.938,1.536,2.706c0.21,0.409,0.378,0.793,0.518,1.12c0.15,0.338,0.276,0.634,0.367,0.884l0.296,0.763
	l-0.362,0.167l-0.211-0.39l-0.131-0.243c-0.121-0.228-0.272-0.511-0.469-0.837c-0.75-1.313-1.546-2.482-2.437-3.579
	c-1.362-1.653-2.806-2.998-4.29-3.997c-0.506-0.359-1.079-0.699-1.799-1.066c-2.728,1.807-5.405,3.866-7.965,6.128
	c1.352,0.873,2.708,1.871,4.034,2.97c2.679,2.273,5.127,4.871,6.717,7.126c0.839,1.163,1.413,2.151,1.747,2.773l0.561,1.127
	l-0.352,0.192l-0.348-0.576l-0.146-0.243l-0.267-0.442l-0.318-0.447l-0.292-0.412c-0.644-0.886-2.061-2.688-4.303-4.777
	c-2.129-1.991-4.556-3.862-7.017-5.413l-1.039-0.609l-0.23-0.137c-3.256,3.007-5.247,5.376-5.581,5.781
	C113.609,34.955,132.499,39.938,135.727,39.938z M92.486,54.079l-0.114,0.001c-0.422,0-0.908-0.042-1.451-0.124
	c-0.39-1.085-1.214-2.755-2.774-3.634c-0.792-0.446-1.736-0.672-2.808-0.672c-1.167,0-2.196,0.278-2.584,0.398l-0.908,0.279
	l0.234,0.921c0.19,0.756,0.974,3.313,3.029,4.468c0.789,0.445,1.732,0.671,2.802,0.671c0.323,0,0.66-0.021,0.959-0.052
	c0.181,0.01,0.543,0.029,1.007,0.029c1.107,0,2.076-0.107,2.878-0.319l8.221-2.164L92.486,54.079z M97.614,59.933l-0.002,0.46
	c-0.019,3.79,0.362,11.342,3.124,19.342l0.149,0.434l1.855-0.467l-3.216-19.917L97.614,59.933z M130.115,50.049
	c-0.388-0.12-1.417-0.398-2.584-0.398c-1.071,0-2.016,0.226-2.808,0.672c-1.563,0.88-2.386,2.55-2.775,3.635
	c-0.544,0.082-1.026,0.123-1.432,0.123l-8.588-0.202l8.193,2.168c1.004,0.265,2.143,0.32,2.921,0.32c0.422,0,0.727,0,0.943-0.033
	c0.354,0.037,0.669,0.055,0.969,0.055c1.07,0,2.014-0.226,2.806-0.671c2.06-1.159,2.84-3.714,3.03-4.47l0.23-0.919L130.115,50.049z
	 M112.132,79.736c2.765-8.004,3.145-15.557,3.125-19.347l-0.002-0.46l-1.911-0.148l-3.217,19.922l1.855,0.467L112.132,79.736z
	 M108.235,91.389l0.229-0.229c0.061-0.059,0.115-0.115,0.185-0.19c0.039-0.041,0.078-0.083,0.127-0.124l0.424-0.349
	c0.148-0.133,0.324-0.264,0.5-0.396l0.02-0.015l0.001,0.001l0.639-0.482l-0.002-0.003c0.443-0.339,0.889-0.687,1.29-1.038
	c0.575-0.489,0.957-0.806,1.451-1.093c0.041-0.024,0.081-0.052,0.141-0.072c0.052-0.02,0.114-0.047,0.169-0.072
	c0.041-0.019,0.066-0.03,0.16-0.051c0.147-0.043,0.272-0.063,0.364-0.068c0.111,0.01,0.231,0.045,0.315,0.086
	c0.13,0.073,0.255,0.172,0.349,0.271c0.219,0.25,0.351,0.545,0.374,0.845c0.026,0.257-0.05,0.525-0.213,0.741
	c-0.176,0.239-0.458,0.408-0.696,0.535c-0.162,0.078-0.319,0.146-0.467,0.205l-0.425,0.168l0.539,1.833l0.448-0.09
	c0.222-0.044,0.465-0.102,0.754-0.192c0.289-0.099,0.673-0.247,1.083-0.52c0.438-0.3,0.815-0.71,1.058-1.146
	c0.537-0.928,0.599-2.17,0.162-3.239c-0.463-1.156-1.437-2.03-2.609-2.34c-0.299-0.076-0.569-0.109-0.97-0.109
	c-0.003,0-0.006,0-0.009,0c-0.233,0.002-0.435,0.035-0.648,0.076l-0.3,0.057c-0.223,0.06-0.468,0.146-0.845,0.293l-0.148,0.071
	c-0.159,0.075-0.318,0.152-0.455,0.234c-0.188,0.109-0.365,0.223-0.537,0.341c-0.947,0.368-2.853,0.971-4.239,0.992
	c-1.593-0.024-3.591-0.729-4.245-0.976c-0.202-0.135-0.379-0.248-0.553-0.349c-0.154-0.092-0.318-0.172-0.495-0.255l-0.306-0.137
	c-0.207-0.074-0.447-0.158-0.784-0.241l-0.183-0.032c-0.211-0.04-0.413-0.073-0.63-0.075l-0.116-0.002
	c-0.294,0-0.592,0.038-0.886,0.114c-1.165,0.307-2.137,1.179-2.599,2.33c-0.438,1.075-0.378,2.315,0.15,3.227
	c0.252,0.454,0.633,0.869,1.077,1.17c0.402,0.271,0.795,0.421,1.105,0.526c0.26,0.081,0.503,0.138,0.725,0.182l0.447,0.087
	l0.535-1.829l-0.422-0.168c-0.145-0.059-0.299-0.125-0.436-0.192c-0.316-0.165-0.562-0.323-0.737-0.563
	c-0.155-0.203-0.228-0.476-0.198-0.76c0.02-0.271,0.148-0.56,0.341-0.78c0.115-0.123,0.239-0.225,0.329-0.276
	c0.117-0.061,0.23-0.101,0.395-0.114c0.087,0,0.247,0.043,0.415,0.088l0.271,0.115c0.044,0.016,0.084,0.044,0.214,0.119
	c0.41,0.239,0.834,0.592,1.34,1.024c0.503,0.441,1.058,0.863,1.596,1.273l0.396,0.299c0.162,0.122,0.331,0.247,0.506,0.403
	l0.4,0.329c0.046,0.037,0.083,0.08,0.166,0.17l0.313,0.317v5.538l-11.648,0.294l6.373,1.795c2.172,0.611,4.42,0.922,6.682,0.922
	c3.621,0,6.494-0.811,7.884-1.293l6.066-2.107l-11.707,0.297V91.389z" class="color c1"/>
</svg>