<svg version="1.1" id="图层_1" x="0px" y="0px" width="152.721px" height="142.633px" viewBox="0 0 152.721 142.633" enable-background="new 0 0 152.721 142.633" xml:space="preserve" xmlns="http://www.w3.org/2000/svg" xmlns:xlink="http://www.w3.org/1999/xlink" xmlns:xml="http://www.w3.org/XML/1998/namespace">
  <path fill="#878975" d="M79.644,57.385c-1.26,0.531-2.704-0.065-3.229-1.321c-0.526-1.257,0.065-2.703,1.321-3.228
	c3.017-1.269,5.91-0.582,8.136,1.94c0.899,1.019,0.806,2.579-0.215,3.481c-0.472,0.414-1.056,0.618-1.636,0.618
	c-0.684,0-1.363-0.28-1.85-0.834C81.238,56.986,80.563,56.999,79.644,57.385z M87.756,125.564c0.428,0.292,0.914,0.433,1.393,0.433
	c0.787,0,1.56-0.375,2.039-1.072c2.492-3.631,5.138-11.463,4.687-15.74c-0.078-0.734-0.519-1.455-1.138-1.859
	c-1.176-0.779-2.36-0.513-5.78,0.543c1.412-5.205,1.58-11.293,0.235-15.502c-0.414-1.298-1.801-2.013-3.1-1.6
	c-1.299,0.416-2.016,1.803-1.602,3.102c1.391,4.348,0.608,11.893-1.699,16.473c-0.447,0.884-0.324,1.998,0.317,2.757
	c1.181,1.397,2.341,1.034,6.166-0.16c0.431-0.133,0.957-0.3,1.49-0.461c-0.565,3.164-2.096,7.397-3.647,9.657
	C86.348,123.258,86.633,124.793,87.756,125.564z M66.383,84.944c-8.022,7.585-20.146,19.047-21.383,42.32
	c-0.097,1.813,1.297,3.361,3.11,3.46c0.06,0.003,0.117,0.004,0.177,0.004c1.737,0,3.188-1.358,3.282-3.114
	c1.099-20.646,11.638-30.611,19.334-37.887c4.931-4.662,9.189-8.689,7.896-13.959C76.822,67.707,65.59,62.65,59.553,59.933
	l-0.43-0.193c-1.359-0.613-2.455-2.307-2.89-4.433c0.509,0.357,1.123,0.572,1.791,0.572c1.722,0,3.117-1.396,3.117-3.116
	c0-0.694-0.233-1.329-0.619-1.847c2.914-0.179,6.738-0.547,10.92-1.776c13.824-4.061,23.066-3.89,28.259,0.525
	c4.616,3.925,6.243,11.619,4.84,22.869c-0.49,3.914-2.869,6.854-4.701,7.041c-1.756,0.184-4.82-2.412-7.531-10.325
	c-0.59-1.719-2.459-2.635-4.18-2.047c-1.719,0.59-2.635,2.462-2.045,4.179c4.44,12.955,10.311,15.154,14.432,14.736
	c5.894-0.609,9.832-7.033,10.549-12.77c1.701-13.59-0.688-23.245-7.102-28.699c-10.424-8.861-28.449-3.565-34.377-1.823
	c-4.32,1.269-8.258,1.469-11.135,1.614c-3.082,0.156-4.943,0.251-6.31,1.646c-2.283,2.328-3.18,6.181-2.404,10.304
	c0.816,4.333,3.313,7.825,6.681,9.344l0.434,0.196c4.293,1.933,14.344,6.458,15.558,11.402
	C72.789,78.888,69.676,81.831,66.383,84.944z M76.359,0C34.255,0,0,34.255,0,76.358c0,25.602,12.666,48.299,32.057,62.158
	c0.019-0.02,0.033-0.04,0.051-0.061l-0.002-0.002c3.117,2.496,7.607,4.18,13.765,4.18h8.907H87.35c2.381,0,4.611-1.174,5.963-3.137
	c1.338-1.943,1.638-4.416,0.797-6.611c-1.383-3.621-4.444-5.614-8.621-5.614H78.11c1.188-3.69,1.164-9.797-1.946-14.099
	c-1.976-2.729-5.886-5.752-13.263-4.621c-1.799,0.273-3.032,1.949-2.758,3.746c0.271,1.795,1.953,3.037,3.746,2.758
	c4.967-0.751,6.453,1.297,6.943,1.973c1.998,2.768,1.496,7.381,0.85,8.653c-0.791,1.562-0.703,3.338,0.24,4.877
	c1.188,1.937,3.686,3.29,6.072,3.29h7.493c1.798,0,2.209,0.684,2.478,1.385c0.07,0.184,0.045,0.361-0.07,0.533
	c-0.076,0.107-0.244,0.288-0.543,0.288H45.869c-3.464,0-6.363-0.714-8.543-2.017c0,0.004-0.002,0.008-0.005,0.012
	c-3.95-2.682-7.62-5.745-10.938-9.158C14.186,112.333,6.66,95.209,6.66,76.358c0-38.433,31.268-69.699,69.698-69.699
	c38.432,0,69.73,31.267,69.699,69.699c-0.024,32.545-14.464,47.857-27.087,56.229c-0.12-0.28-0.239-0.562-0.378-0.822
	c-1.553-2.908-4.387-4.495-8.107-4.495h-6.325c-0.748-0.009-1.148-0.103-1.33-0.162c-0.232-1.086,0.623-4.416,1.256-6.88
	c1.77-6.896,4.442-17.316,0.746-28.887c-0.556-1.731-2.414-2.678-4.138-2.131c-1.729,0.554-2.686,2.404-2.131,4.135
	c3.123,9.766,0.826,18.713-0.852,25.248c-1.367,5.32-2.443,9.525-0.115,12.57c1.346,1.764,3.463,2.644,6.516,2.687h6.375
	c1.798,0,2.207,0.685,2.476,1.385c0.057,0.147,0.035,0.291-0.029,0.433c-0.211,0.129-0.42,0.262-0.633,0.39h-11.205
	c-1.816,0-3.289,1.473-3.289,3.288c0,1.189,0.637,2.222,1.582,2.8c0.5,0.306,1.08,0.489,1.707,0.489h11.256
	c0.508,0,1.005-0.061,1.49-0.166c0.003,0,0.006,0,0.008,0c0.894,0,1.696-0.354,2.293-0.924c0.194-0.121,0.384-0.248,0.566-0.387
	c0.014-0.012,0.024-0.023,0.039-0.035c11.598-6.867,35.615-22.351,35.971-64.764C153.072,34.257,118.463,0,76.359,0z" class="color c1"/>
</svg>