<svg version="1.1" id="图层_1" x="0px" y="0px" width="191.9px" height="177.1px" viewBox="0 0 191.9 177.1" enable-background="new 0 0 191.9 177.1" xml:space="preserve" xmlns="http://www.w3.org/2000/svg" xmlns:xlink="http://www.w3.org/1999/xlink" xmlns:xml="http://www.w3.org/XML/1998/namespace">
  <path fill="#FFFFFF" d="M103.3,29.5C103.3,13,113,0,125.5,0c12.4,0,22.1,13,22.1,29.5c0,16.6-9.7,29.5-22.1,29.5
	C113,59,103.3,46.1,103.3,29.5z M66.4,59c12.4,0,22.1-13,22.1-29.5C88.6,13,78.8,0,66.4,0S44.3,13,44.3,29.5
	C44.3,46.1,54,59,66.4,59z M44.3,73.8c0-16.6-9.7-29.5-22.1-29.5C9.7,44.3,0,57.2,0,73.8s9.7,29.5,22.1,29.5
	C34.6,103.3,44.3,90.4,44.3,73.8z M146.3,114c-6.3-27.8-33.9-45.2-61.7-39c-19.4,4.4-34.6,19.5-39,39c-14.5,7.4-20.3,25.1-12.9,39.6
	c5,9.9,15.2,16.1,26.3,16.1c2.8,0,5.6-0.4,8.4-1.3c17.3,11.5,39.8,11.5,57.1,0c2.7,0.8,5.5,1.3,8.4,1.3c16.3,0,29.5-13.1,29.5-29.4
	C162.4,129.2,156.2,119.1,146.3,114z M169.7,44.3c-12.4,0-22.1,13-22.1,29.5c0,16.6,9.7,29.5,22.1,29.5c12.4,0,22.1-13,22.1-29.5
	C191.9,57.2,182.1,44.3,169.7,44.3z" class="color c1"/>
</svg>