<svg version="1.1" id="图层_1" x="0px" y="0px" width="42.726px" height="30.328px" viewBox="0 0 42.726 30.328" enable-background="new 0 0 42.726 30.328" xml:space="preserve" xmlns="http://www.w3.org/2000/svg" xmlns:xlink="http://www.w3.org/1999/xlink" xmlns:xml="http://www.w3.org/XML/1998/namespace">
  <path fill="#FFFFFF" d="M42.649,11.136c-0.744,2.414-6.567,0.81-10.795,4.798c-3.918,3.695-4.045,9.905-3.598,14.394
	c-3.2-0.4-6.399-0.8-9.597-1.2c-0.914-4.255-1.228-8.224-1.09-11.796c-1.308,6.99-1.309,11.796-1.309,11.796H9.063
	c0,0-20.391-29.987,0-25.189c0,0,9.016-0.897,9.846,5.123c1.455-4.625,3.942-7.766,6.947-8.721
	C32.935-1.908,43.745,7.577,42.649,11.136z" class="color c1"/>
</svg>