<svg version="1.1" id="图层_1" x="0px" y="0px" width="176.816px" height="141.514px" viewBox="0 0 176.816 141.514" enable-background="new 0 0 176.816 141.514" xml:space="preserve" xmlns="http://www.w3.org/2000/svg" xmlns:xlink="http://www.w3.org/1999/xlink" xmlns:xml="http://www.w3.org/XML/1998/namespace">
  <path fill="#FFFFFF" d="M57.795,0c0,0-8.063,7.057-13.438,22.848c0,0-30.578,7.394-44.355,40.322c0,0,12.433,11.76,26.209,7.728
	c0,0-13.758-1.523-18.145-8.398c0,0,3.024-26.881,37.297-37.297c0,0,11.893-1.01,18.211,6.047C63.572,31.248,69.555,23.855,57.795,0
	z M63.572,35.87c0,0,7.326-29.823,27.152-30.495c19.821-0.672,25.873,24.528,12.094,32.594c-13.775,8.064-31.248,5.377-31.248,5.377
	s20.832-2.017,31.248-15.793C113.236,13.775,93.074,3.696,82.322,16.8C71.57,29.904,75.736,32.426,63.572,35.87z M18.277,74.756
	c0,0,50.94,25.04,65.727-24.354c0,0-11.914,33.269-54.848,21.339C29.156,71.74,24.662,74.42,18.277,74.756z M82.658,105.172
	c0,0-28.371-3.088-41.811-24.805H52.5C52.5,80.367,62.162,99.123,82.658,105.172z M94.084,68.547c0,0,7.394-17.137,25.537-11.426
	c18.146,5.713,9.07,34.608-16.129,48.051c0,0,32.758-24.096,15.793-42.002C107.188,50.402,94.084,68.547,94.084,68.547z
	 M175.063,61.154c-11.972-50.664-63.445-41.666-63.445-41.666l0.938,5.08c38.358-2.53,73.623,70.859,28.905,102.444
	c-44.666,31.55-117.098-10.847-117.098-10.847C123.359,176.207,188.504,118.043,175.063,61.154z M29.156,46.727
	c0,0,4.381-7.973,13.492-4.783C42.648,41.943,43.457,49.916,29.156,46.727z M49.07,95.428c0,0,3.984,13.521-5.725,9.744
	c-10.8-4.201-14.111-2.688-15.794,5.04c0,0,25.033,6.216,28.226-7.394C55.777,102.819,55.777,99.123,49.07,95.428z M96.1,93.041
	c0,0,2.213,20.441-7.496,16.668c-10.799-4.201-14.111-2.689-15.791,5.039c0,0,25.033,6.216,28.225-7.394
	C101.037,107.355,100.299,100.971,96.1,93.041z M26.15,60.225c0,0,11.326,3.093,29.053-11.568
	C55.203,48.656,39.957,66.064,26.15,60.225z M25.98,61.675c0,0,10.555,5.146,30.696-5.963C56.678,55.712,38.461,69.98,25.98,61.675z
	 M25.941,63.449c0,0,8.129,6.604,26.897-1.464C52.84,61.986,35.209,73.451,25.941,63.449z M155.242,83.805
	c1.346,10.555-10.248,20.358-28.393,15.991c-0.701-0.169-1.367-0.302-2.021-0.419c0.104,0.135,6.195,7.84,19.566,5.56
	c1.313-0.292,2.58-0.737,3.789-1.409C159.947,97.012,155.242,83.805,155.242,83.805z" class="color c1"/>
</svg>