<svg version="1.1" id="图层_1" x="0px" y="0px" width="188.072px" height="143.731px" viewBox="0 0 188.072 143.731" enable-background="new 0 0 188.072 143.731" xml:space="preserve" xmlns="http://www.w3.org/2000/svg" xmlns:xlink="http://www.w3.org/1999/xlink" xmlns:xml="http://www.w3.org/XML/1998/namespace">
  <path fill="#F8B960" d="M180.313,36.211c0.129,0.521,0.129,1.01,0,1.468c-0.197,0.521-0.556,0.879-1.079,1.074
	c-4.501,1.893-9.132,2.84-13.895,2.84c-7.634,0-15.56-2.25-23.78-6.754c-0.456-0.26-0.781-0.65-0.979-1.174
	c-0.132-0.455-0.064-0.943,0.195-1.469c0.261-0.453,0.652-0.783,1.175-0.979c0.456-0.129,0.944-0.064,1.468,0.195
	c12.593,6.915,24.04,8.189,34.348,3.818c0.522-0.199,1.012-0.199,1.468,0C179.758,35.428,180.116,35.753,180.313,36.211z
	 M161.033,51.868c-9.525,2.936-19.213,0.618-29.064-6.95c-0.455-0.325-0.945-0.454-1.467-0.39s-0.946,0.29-1.274,0.684
	c-0.327,0.454-0.456,0.943-0.392,1.468c0.066,0.519,0.296,0.943,0.688,1.272c7.827,6.002,15.656,9.002,23.485,9.002
	c3,0,6.033-0.422,9.099-1.271c0.522-0.195,0.915-0.524,1.177-0.979c0.261-0.454,0.324-0.943,0.195-1.468
	C163.023,51.997,162.209,51.54,161.033,51.868z M175.127,45.604c0.195-0.454,0.195-0.944,0-1.468
	c-0.195-0.457-0.554-0.814-1.077-1.075c-0.391-0.199-0.847-0.199-1.369,0c-10.438,4.368-22.085,3.032-34.936-4.014
	c-0.458-0.261-0.947-0.325-1.466-0.196c-0.524,0.196-0.914,0.521-1.177,0.979c-0.26,0.455-0.326,0.943-0.196,1.469
	c0.196,0.52,0.523,0.879,0.979,1.074c8.415,4.699,16.504,7.049,24.268,7.049c4.764,0,9.396-0.911,13.897-2.739
	C174.573,46.485,174.932,46.128,175.127,45.604z M136.375,69.089c0.521,0,0.979-0.195,1.37-0.585
	c0.389-0.394,0.587-0.848,0.587-1.372c-0.066-0.518-0.296-0.979-0.687-1.368c-0.326-0.394-0.748-0.589-1.271-0.589h-0.098
	c-6.981,0.066-13.342-3.618-19.082-11.058c-0.327-0.392-0.75-0.62-1.272-0.686c-0.522-0.063-1.012,0.065-1.468,0.394
	c-0.394,0.325-0.621,0.748-0.686,1.269c-0.068,0.524,0.064,0.979,0.389,1.374c6.395,8.479,13.734,12.721,22.019,12.721
	L136.375,69.089z M187.163,27.11c-11.027,6.979-24.531,7.371-40.514,1.174c-1.109-0.454-1.434-1.304-0.979-2.547
	c0.392-1.174,1.206-1.531,2.446-1.074c12.591,4.828,23.487,5.318,32.686,1.469c-11.354-2.807-22.474-5.154-33.372-7.046
	c-12.917-2.415-22.54-3.625-28.868-3.625c-7.829,0-13.373,0.654-16.636,1.957c-4.304,1.632-6.459,4.438-6.459,8.418
	c0,2.282,0.164,5.187,0.49,8.708c0.064,4.113-1.076,7.797-3.426,11.058c-2.217,3-5.184,4.894-8.904,5.675
	c0.849,1.893,2.021,3.555,3.522,4.994c2.609,2.281,6.624,4.828,12.037,7.629c6.588,3.199,10.863,5.481,12.82,6.85
	c2.413,2.021,4.208,4.144,5.382,6.361c4.241-2.217,9.033-3.326,14.385-3.326c5.676,0,9.983,1.533,12.919,4.6
	c2.675,3.064,4.014,7.309,4.014,12.723c0,5.609-1.598,9.85-4.796,12.721c-2.348,1.957-5.609,3.395-9.786,4.309l-0.78,0.195
	c-4.634,1.043-7.537,1.828-8.711,2.346c-2.021,1.043-3.163,2.576-3.425,4.6c-0.13,0.783-0.522,1.307-1.177,1.568
	c-0.715,0.324-1.336,0.229-1.855-0.295c-2.872-2.281-4.307-5.252-4.307-8.902c0-3,1.107-5.547,3.328-7.633
	c2.346-2.352,5.936-3.621,10.764-3.818c4.826-0.326,8.025-0.75,9.589-1.268l0.391-0.201l0.098-0.877c0-2.676-0.88-5.09-2.642-7.24
	c-2.155-2.676-4.99-4.014-8.516-4.014c-0.914,0-3.1,0.453-6.557,1.367l-1.565,0.488c-0.327,4.568-2.511,8.648-6.56,12.232
	c-3.979,3.395-5.969,5.908-5.969,7.539c0,0.846,1.012,2.447,3.033,4.795c2.611,2.936,3.915,5.547,3.915,7.828
	c0,1.242-3.235,8.988-9.693,23.207h59.921c1.957-6.891,2.956-14.047,2.956-21.281c0-20.752-8.063-40.217-22.709-54.886
	c-7.539-0.139-14.857-3.713-21.957-10.752c-0.392-0.389-0.587-0.845-0.587-1.367c0.064-0.59,0.26-1.078,0.587-1.469
	c0.392-0.389,0.881-0.588,1.468-0.588c0.521,0.068,0.977,0.266,1.37,0.591c7.372,7.632,15.037,10.8,22.997,9.492
	c0.522-0.065,1.012,0.035,1.468,0.293c0.454,0.325,0.716,0.75,0.781,1.272c0.129,0.521,0.032,0.979-0.292,1.368
	c-0.087,0.12-0.181,0.226-0.281,0.319c14.05,15.228,21.741,34.865,21.741,55.726c0,7.223-0.946,14.369-2.791,21.281h8.014
	c1.477,0,2.675,0.822,2.675,1.84c0,1.016-1.198,1.838-2.675,1.838H2.675c-1.477,0-2.675-0.822-2.675-1.838
	c0-1.018,1.198-1.84,2.675-1.84h6.48c-1.845-6.912-2.786-14.057-2.786-21.281c0-18.264,5.852-35.512,16.91-49.955
	c-0.282-0.715-0.425-1.309-0.425-1.779V55.98c-0.131,0.26-0.262,0.685-0.392,1.272c-0.392,2.217-0.751,3.585-1.076,4.109
	c-0.85,1.828-2.511,2.74-4.991,2.74c-1.632-0.064-2.807-0.229-3.525-0.49c-1.501-0.524-2.249-1.371-2.249-2.545
	c0-0.85,0.847-2.807,2.544-5.872c0.26-0.524,1.305-2.282,3.131-5.282c1.241-1.372,3.198-2.156,5.872-2.352l1.859-0.195
	c1.306-3.26,3.458-4.893,6.458-4.893c1.686,0,5.701,2.771,12.035,8.301c2.55-1.607,5.2-3.109,7.907-4.46l-0.008,0.087
	c0.843-0.855,1.73-1.708,2.673-2.558c2.086-1.757,3.261-4.468,3.523-8.118c-0.522,0.195-1.435,0.424-2.74,0.686L50.45,39.64
	c-2.218,2.152-4.043,3.261-5.48,3.325c-1.566,0-3.198-0.589-4.893-1.761c-2.153-1.434-3.23-3.197-3.23-5.283
	c0-1.697,1.469-4.143,4.404-7.34c2.414-2.546,3.719-4.467,3.915-5.775c0.131-2.152,0.293-3.36,0.489-3.62
	c0.198-0.85,0.653-1.697,1.37-2.542L37.728,3.039c-0.587-0.915-0.522-1.729,0.198-2.447c0.781-0.718,1.63-0.783,2.544-0.195
	l13.113,9.101l-0.1-1.568c-0.13-1.043,0.326-1.729,1.37-2.053c1.631-0.458,3.849-0.589,6.654-0.393c2.738,0,5.674,0.685,8.807,2.057
	c2.674,1.174,5.285,3.031,7.829,5.578c2.737,2.546,4.403,5.447,4.991,8.707c0.26,2.021,0.391,5.383,0.391,10.08
	c0,1.23-0.102,2.829-0.294,4.764c2.92-0.189,5.87-0.221,8.79-0.104c0.069-0.596,0.114-1.2,0.114-1.82
	c-0.39-3.461-0.587-6.426-0.587-8.907c0-5.742,2.97-9.721,8.904-11.938c3.856-1.503,9.893-2.253,18.11-2.253
	c6.721,0,16.572,1.208,29.555,3.621c13.503,2.351,26.389,5.123,38.655,8.318c0.716,0.261,1.14,0.783,1.27,1.568
	C188.174,26.067,187.879,26.716,187.163,27.11z M23.051,51.279h-0.587c-1.696,0.195-2.773,0.618-3.229,1.272
	c-0.388,0.391-1.301,1.859-2.738,4.405l-1.468,3.229l1.37,0.096c0.979,0,1.468-0.196,1.468-0.586
	c0.129-0.133,0.39-1.143,0.781-3.035C18.91,53.79,20.378,51.997,23.051,51.279z M136.177,99.131
	c-2.151,0.459-4.828,0.719-8.023,0.783c-3.72,0.195-6.523,1.174-8.416,2.936c-1.306,1.238-1.958,2.84-1.958,4.797
	c0,1.369,0.294,2.543,0.884,3.521c0.78-1.5,2.152-2.771,4.109-3.814c1.306-0.719,4.533-1.633,9.688-2.74
	c1.107-1.369,1.923-2.482,2.445-3.326C135.624,100.11,136.048,99.397,136.177,99.131z M120.229,80.049
	c3.457-0.914,5.673-1.367,6.652-1.367c4.697,0,8.547,1.826,11.547,5.48c2.285,2.871,3.426,6.098,3.426,9.688
	c0,1.041-0.13,1.992-0.393,2.834c-0.522,1.762-1.434,3.754-2.737,5.973c1.238-0.719,2.086-1.303,2.544-1.762
	c2.413-2.023,3.619-5.285,3.619-9.787c0-4.564-1.013-7.926-3.033-10.08c-2.22-2.283-5.578-3.426-10.08-3.426
	C127.599,77.602,123.75,78.42,120.229,80.049z M78.731,140.053l7.833-15.57c2.284-4.957,3.425-8.318,3.425-10.08
	c-0.196-1.432-1.73-4.729-4.6-9.887c-3.198-5.541-4.601-9.816-4.208-12.816l0.49-3.424l-4.698,0.094
	c-7.046,0-12.657-1.855-16.832-5.576c-0.914-0.783-3.719-4.176-8.416-10.175c-1.893,0.783-3.393,1.173-4.501,1.173
	c-3.46,0-7.113-3.62-10.962-10.864l-0.577-1.002c-1.389,1.296-2.729,2.649-4.018,4.04c0.389,0.258,0.776,0.42,1.168,0.485
	c2.935,1.108,4.404,2.511,4.404,4.208l-0.099,0.782c-1.107,2.477-2.055,4.139-2.837,4.989c-0.85,0.979-1.729,1.469-2.643,1.469
	c-1.761,0-3.718-1.533-5.871-4.6c-0.023-0.035-0.042-0.066-0.066-0.102c-9.668,13.303-14.769,28.996-14.769,45.574
	c0,7.238,1.004,14.389,2.963,21.281H78.731z M33.344,57.858l-1.192-2.07l-0.586,2.736c-0.068,0.405-0.128,0.795-0.187,1.178
	C32.025,59.076,32.681,58.462,33.344,57.858z M84.8,139.452c5.871-11.354,10.472-20.975,13.8-28.869l-2.252-3.328
	c-1.827-2.676-3.064-4.664-3.718-5.969c-1.24-2.674-1.827-4.893-1.76-6.654c0-1.436,0.129-3.164,0.392-5.186
	c-2.413-0.914-4.241-1.369-5.482-1.369l-0.195,0.094c-0.196,0.916-0.425,2.252-0.686,4.016c-0.198,2.086,1.108,5.611,3.915,10.568
	c3.131,5.479,4.761,9.232,4.893,11.254c0.129,2.281-1.079,6.324-3.623,12.133l-6.652,13.311H84.8z M94.239,140.053l4.85-11.563
	c2.412-5.479,3.459-9.066,3.133-10.764c-0.065-0.455-0.457-1.434-1.176-2.938c-3.324,7.496-7.385,15.924-12.164,25.264H94.239z
	 M79.026,50.2c-0.525-1.893-0.782-3.686-0.782-5.382l0.097-0.29c0.849-6.07,1.272-10.275,1.272-12.625
	c0-4.369-0.097-7.535-0.293-9.492c-0.523-2.347-1.759-4.533-3.716-6.557c-2.284-2.153-4.602-3.754-6.95-4.797
	c-2.345-1.107-4.76-1.726-7.237-1.857l-4.015,0.1l0.198,3.225c0.129,1.112-0.262,1.762-1.176,1.958
	c-0.848,0.524-1.63,0.554-2.347,0.1l-7.241-5.089l4.306,6.361c0.716,1.043,0.554,1.957-0.49,2.74
	c-0.718,0.521-1.143,1.075-1.271,1.664v0.097l-0.392,2.839c-0.195,2.087-1.859,4.765-4.99,8.024
	c-1.241,1.504-2.152,2.771-2.741,3.814c-0.325,0.654-0.522,0.979-0.586,0.979c0,0.654,0.522,1.308,1.565,1.957
	c1.043,0.783,1.924,1.179,2.644,1.179l0.587-0.294c0.651-0.457,1.468-1.143,2.446-2.057l3.719-3.521
	c0.195-0.199,0.522-0.359,0.979-0.488c2.087-0.329,3.783-0.85,5.089-1.568c1.566-0.914,2.575-1.633,3.033-2.152
	c0.391-0.329,0.881-0.49,1.468-0.49c0.522,0,0.979,0.161,1.37,0.49c0.327,0.389,0.49,0.879,0.49,1.468
	c0,0.521-0.163,0.979-0.49,1.368c-1.043,0.914-2.055,1.633-3.033,2.152c-0.064,5.611-1.666,9.851-4.795,12.722
	c-3.588,3.136-6.459,6.494-8.612,10.079c-0.26,0.459-0.716,0.75-1.368,0.883c-0.589,0.129-1.143-0.035-1.665-0.488
	c-7.177-6.461-11.744-10.08-13.701-10.865c-1.435,0-2.447,1.078-3.033,3.229l-0.099,0.196v0.1l-0.197,0.686l-0.39,2.642v13.7
	c0.064,0.064,0.196,0.389,0.39,0.979c0.391,0.85,1.043,1.893,1.957,3.131c0.654,1.043,1.435,2.021,2.348,2.937l1.86-3.23
	l-1.566-0.586c-3.067-0.979-4.602-2.642-4.602-4.992c0-1.957,0.262-4.403,0.783-7.34c0.456-2.542,0.945-4.338,1.468-5.382
	c0.587-1.368,1.434-2.054,2.545-2.054c0.782,0,1.565,0.521,2.348,1.564c1.107,1.438,2.902,4.504,5.382,9.201
	c3.196,5.807,5.742,8.707,7.633,8.707c0.781,0,2.152-0.425,4.109-1.272l0.392-0.194c2.282-0.979,4.141-1.958,5.578-2.937
	c1.107-0.719,1.99-0.554,2.644,0.489c0.717,1.174,0.554,2.086-0.489,2.74c-1.241,0.782-2.611,1.532-4.112,2.25
	c4.177,5.283,6.654,8.253,7.437,8.904c3.458,3.064,8.156,4.598,14.092,4.598l8.807-0.195c1.893,0,3.979,0.459,6.263,1.373
	l0.098-0.395c0.129-0.52,0.424-0.914,0.881-1.174c0.455-0.324,0.945-0.424,1.467-0.293s0.914,0.424,1.174,0.883
	c0.327,0.453,0.425,0.943,0.293,1.467l-0.489,2.053v0.102l-0.098,0.293v0.195c-0.327,1.434-0.553,3.426-0.686,5.967
	c0,1.309,0.489,2.906,1.467,4.799c0.914,1.563,2.057,3.389,3.425,5.477l3.036,4.504c1.957,3.324,3.098,5.871,3.425,7.633
	c0.453,2.412-0.62,6.721-3.229,12.918l-4.109,9.396h0.878c6.197-13.506,9.494-21.076,9.887-22.707c0-1.24-1.016-3-3.037-5.283
	c-2.609-3-3.914-5.416-3.914-7.24c0-2.738,2.413-6.23,7.242-10.475c3.522-3.131,5.285-6.65,5.285-10.564l-0.1-0.979l-0.391-1.861
	c-0.651-2.281-2.252-4.434-4.795-6.457c-1.631-1.111-5.675-3.295-12.136-6.56c-5.936-2.999-10.241-5.738-12.916-8.218
	C81.864,56.562,80.005,53.597,79.026,50.2z M90.722,41.106c-2.681-0.068-5.38,0.002-8.047,0.205
	c-0.153,1.132-0.324,2.324-0.52,3.609l0.294,2.739c2.937-0.589,5.251-2.022,6.947-4.308C89.916,42.632,90.351,41.88,90.722,41.106z
	 M124.632,69.972c-5.937-1.178-10.372-5.611-13.309-13.311c-0.458-1.107-1.306-1.433-2.544-0.979
	c-1.175,0.39-1.533,1.207-1.076,2.446c3.521,8.937,8.871,14.155,16.049,15.657l0.488,0.1c0.979,0,1.564-0.523,1.762-1.566
	c0.131-0.525,0.033-1.014-0.293-1.469C125.513,70.396,125.154,70.101,124.632,69.972z" class="color c1"/>
</svg>