<svg version="1.1" id="图层_1" x="0px" y="0px" width="132.145px" height="156.807px" viewBox="0 0 132.145 156.807" enable-background="new 0 0 132.145 156.807" xml:space="preserve" xmlns="http://www.w3.org/2000/svg" xmlns:xlink="http://www.w3.org/1999/xlink" xmlns:xml="http://www.w3.org/XML/1998/namespace">
  <path fill="#032714" d="M131.457,96.478c-0.146-0.243-0.275-0.466-0.392-0.718c-0.373-0.83-0.746-1.455-1.86-1.345
	c-0.058,0.005-0.115,0.012-0.181,0.021l-0.051-0.116l-3.738-11.379l-0.293-0.682l-6.911-6.146l-4.714,4.157l-3.051-4.852
	l-4.021,3.326l-2.355-5.27l-5.778,2.52c0.241-6.139,1.563-14.993,6.734-20.354l0.063,0.129l0.7,1.422l0.372-1.537l0.82-3.394
	l2.876,1.063l0.69,0.255l0.078-0.731l0.411-3.846l4.336,0.84l0.826,0.158l-0.149-0.826l-0.93-5.052l4.484,1.214l0.783,0.211
	l-0.063-0.812l-0.436-5.622l5.8,5.84l1.154-5.766l1.016-5.298l0.532,0.7l0.634-7.215c0.008-0.008,0.012-0.021,0.021-0.028
	c0-0.058-0.001-0.111-0.002-0.173c-0.062-2.862-0.356-7.958-1.627-11.857c-1.854-5.7-6.384-9.957-8.284-11.124
	c-1.909-1.173-10.229-2.673-13.355-3.055c-0.715-0.088-1.552-0.243-2.433-0.407c-3.094-0.575-6.942-1.293-10.121-0.05
	c-0.397,0.155-0.875,0.335-1.422,0.542c-1.918,0.727-4.544,1.719-7.467,3.033c-6.146,2.766-10.902,5.78-14.14,8.959
	c-1.865-0.099-13.438-0.701-18.213-0.721c-2.897-0.012-5.339,0.421-7.259,1.285c-1.493,0.672-2.624,1.59-3.357,2.728
	c-0.995,1.541-2.842,5.44-4.188,8.286c-0.743,1.569-1.443,3.05-1.611,3.29c-0.198,0.287-0.926,0.806-1.845,1.461
	c-1.093,0.781-2.446,1.747-3.815,2.943c-1.844,1.61-5.712,4.229-8.818,6.329l-0.102,0.067c-1.214,0.823-2.361,1.599-3.23,2.211
	c-2.72,1.911-6.872,8.97-9.904,14.123c-0.496,0.847-0.962,1.636-1.383,2.34C3.28,62.593,0.444,78.761,0.014,89.311
	c-0.45,10.979,8.534,28.857,15.931,35.25l0.383,0.332l0.146-0.132c2.451,2.447,23.507,32.725,38.896,32.031
	c4.35-0.196,7.291-5.64,11.09-7.35c11.521-5.185,25.688-24.349,27.143-26.807l0.688-1.161l-6.562,1.469
	c-2.326,0.551-18.169-3.91-25.163-5.884c3.068,0.089,9.54-0.104,18.508-2.384c12.325-3.131,23.915-3.423,30.651-2.655
	c3.876,0.442,7.803-0.122,11.061-1.585c2.923-1.314,5.227-3.303,6.844-5.9C132.789,99.46,132.428,98.104,131.457,96.478z" class="color c1"/>
  <path fill="#24B574" d="M128.299,98.391c-0.297-0.497-0.905-0.473-1.081-0.454c-11.738,0.446-35.82-9.812-41.593-12.754
	c-6.615-3.375-11.183-3.75-16.408-3.265c-5.101,0.476-13.021,0.632-22.869-3.479c-8.063-3.362-14.717-13.771-16.443-16.654
	c7.958,3.297,16.528,2.926,25.488-1.105c4.518-2.032,8.02-4.517,9.9-5.851l0.505-0.357c3.178-2.229,4.906-6.394,5.502-8.08
	l0.38-1.075c0,0,2.632-1.392,4.924-1.795c3.028-0.531,8.319-2.735,12.227-4.494c5.188-2.335,10.194-4.887,13.153-6.497
	c5.452-2.968,10.083-8.573,12.852-11.926c0.583-0.708,1.135-1.375,1.533-1.813c0.811-0.891,2.037-2.142,3.319-2.716
	c1.621-0.731,2.87-0.221,3.929,1.609c0.764,1.318,1.37,2.771,1.809,4.311l0.989,3.509l0.136-3.646
	c0.123-3.336-1.257-6.92-4.1-10.649c-3.056-4.006-7.341-4.526-11.12-4.986c-1.051-0.126-2.042-0.247-2.934-0.44l-0.248-0.055
	c-4.141-0.899-10.396-2.261-17.853-0.15c-1.074,0.305-2.282,0.759-3.592,1.348c-6.588,2.964-14.082,8.627-14.915,9.263l-0.198,0.151
	l-0.023,0.25c-0.253,2.667-1.079,4.507-1.727,5.505c0.279-1.11-0.065-2.246-0.2-2.622c-0.209-0.577-0.492-1.026-0.758-1.198
	l-0.212-0.137L68.426,18.2c-0.142,0.018-0.971-0.099-2.021-0.24c-4.574-0.626-15.29-2.09-20.704,0.346
	c-0.264,0.116-0.513,0.242-0.743,0.378c-5.889,3.372-7.541,20.05-7.817,23.436c-0.85-0.945-1.881-3.25-2.792-6.28l-0.314-1.05
	l-0.685,0.854c-1.014,1.271-4.02,3.394-7.201,5.642c-4.123,2.907-8.795,6.206-10.437,8.545c-1.351,1.923-2.016,6.333-2.334,10.75
	c-0.18,19.573,12.359,34.093,22.652,38.146c4.521,1.78,12.998,0.706,21.418,1.273c10.749,0.724,21.405,2.862,23.625,3.446
	c3.958,1.042,8.991-3.019,30.145,1.569c3.938,0.973,10.896,1.348,14.451-1.195c0.233-0.266,0.466-0.542,0.688-0.837
	C128.122,100.656,128.758,99.154,128.299,98.391z" class="color c2"/>
  <path fill="#006B37" d="M111.219,103.013c-21.154-4.588-32.623-6.626-36.955-4.078c0,0,4.202,0.318,5.542,2.611
	c0,0-4.971,1.529-23.13-4.587c-18.158-6.117-20.646,0.765-20.646,0.765s3.634-11.278,16.248-11.469c0,0-29.629-10.322-33.26-24.469
	c0,0-2.104,3.634-1.722,9.559c0,0-3.245-4.569-3.92-10.771c-0.271,3.74-0.294,7.487-0.274,9.733
	c-0.923-3.436-1.654-7.857-1.96-9.846l-0.331-2.15l-0.771,2.032c-8.294,21.806-6.638,42.209,4.546,55.979
	c9.363,11.527,20.483,15.177,24.831,16.213l5.325,1.265l-4.946-2.343c-15.04-7.128-21.843-18.267-23.933-22.361
	c10.95,11.176,22.513,13.78,25.891,14.323l2.446,0.391l-2.024-1.428C30.88,114.414,24.53,99.726,21.943,92.441
	c7.977,15.827,16.855,18.271,17.916,18.512l0.224,0.051l0.196-0.117c0.902-0.534,1.863-1.032,2.855-1.479
	c6.889-3.101,13.979-3.229,16.708-3.143l2.132,0.069l-1.811-1.131c-2.964-1.854-7.851-2.866-10.451-3.305
	c7.605-1.124,13.234,0.971,17.422,2.526c0.761,0.283,1.547,0.576,2.27,0.817c4.7,1.563,7.188,2.012,10.674,2.374
	c2.801,0.29,8.22-0.997,10.42-1.564l1.407-0.362l-1.274-0.696c-0.8-0.437-1.727-0.574-2.56-0.58
	c3.81-0.829,9.607,0.513,17.861,2.424l0.286,0.068c6.992,1.615,11.73,1.607,15.365-0.026c1.556-0.7,2.897-1.708,4.088-3.063
	C122.887,104.54,118.41,104.571,111.219,103.013z" class="color c3"/>
  <path fill="#032714" d="M63.996,23.191c0,0-2.153,2.421-6.224,2.1c-4.07-0.325-9.731-2.31-11.002-1.829
	c-1.271,0.478-3.458,7.1-3.041,9.925s4.941,9.506,13.469,5.175C65.725,34.23,62.992,27.599,63.996,23.191z" class="color c1"/>
  <path fill="#FF8E19" d="M47.895,28.598l11.408-0.097c0,0,0.566,4.299-3.29,5.829C52.155,35.859,48.021,33.223,47.895,28.598z" class="color c4"/>
  <path fill="#FFF0D1" d="M123.123,38.74l-2.906-8.449l-2.303,10.06l-8.561-3.35l-0.743,7.938l-7.227-3.225l-0.838,6.234l-7.162-3.164
	l-1.676,7.161l-6.324-4.464l-1.211,7.628l-6.604-3.534l-0.37,6.421l-5.554-3.134l0.899,6.017l-4.869-2.047L67.18,62.43l-3.474-1.241
	l-0.497,3.849l-6.202-0.993c0,0,11.909-4.713,14.887-11.536l2.729-4.093c0,0,22.575-5.211,31.135-12.529
	c8.56-7.319,14.638-17.49,17.613-11.04C126.347,31.295,123.123,38.74,123.123,38.74z" class="color c5"/>
  <path fill="#FFF0D1" d="M46.377,72.857l4.588-1.781l0.637,4.588l6.75-3.422l0.387,5.97l7.265-5.097l3.06,4.588l6.499-5.354
	l3.567,5.226l8.028-4.459l5.098,8.026l8.41-5.226l3.313,8.667l6.117-5.354l2.549,7.9l5.353-7.9l4.562,9.95
	c0,0-1.246,3.687-6.217,2.155c-4.97-1.53-20.39-6.116-23.958-7.52c-3.567-1.401-9.431-5.862-11.852-5.606
	c-2.423,0.256-16.948,1.656-21.664,0.892C54.15,78.337,44.975,74.769,46.377,72.857z" class="color c5"/>
</svg>