<svg version="1.1" id="图层_1" x="0px" y="0px" width="210px" height="85.3px" viewBox="0 0 210 85.3" enable-background="new 0 0 210 85.3" xml:space="preserve" xmlns="http://www.w3.org/2000/svg" xmlns:xlink="http://www.w3.org/1999/xlink" xmlns:xml="http://www.w3.org/XML/1998/namespace">
  <path fill="#F2422D" d="M207.461,29.511C201.162,12.158,184.315,0,165.423,0c-5.43,0.016-10.664,1-15.506,2.798
	c-14.063,5.242-26.69,17.124-32.005,31.599c0.003,0.001-0.02,0.102-0.061,0.284c-1.883,4.799-3.367,10.223-4.805,15.513
	c-1.698,6.243-5.204,19.141-8.047,19.313c-2.842-0.172-6.349-13.07-8.046-19.313c-1.438-5.29-2.922-10.713-4.806-15.513
	c-0.041-0.182-0.063-0.283-0.06-0.284C86.774,19.921,74.146,8.04,60.083,2.798C55.24,1,50.008,0.016,44.577,0
	C25.685,0,8.838,12.158,2.54,29.511C0.89,34.09-0.021,39.045,0,44.196C0.105,61.62,11.017,77.14,26.615,82.954
	c4.201,1.563,8.752,2.396,13.471,2.344c15.486-0.203,29.257-10.169,34.438-24.44c1.414-3.938,2.166-8.203,2.076-12.637
	c-0.292-13.956-9.044-26.361-21.6-31.044c-3.572-1.33-7.452-2.009-11.479-1.877c-12.048,0.417-22.734,8.189-26.81,19.361
	c-1.188,3.303-1.787,6.898-1.622,10.646c0.515,10.462,7.102,19.74,16.599,23.305c2.952,1.095,6.194,1.606,9.541,1.383
	c8.59-0.622,16.198-6.19,19.171-14.291c0.981-2.697,1.393-5.678,1.095-8.747c-0.714-6.932-5.111-13.055-11.594-15.518
	c-2.384-0.89-5.057-1.22-7.794-0.795c-5.069,0.824-9.52,4.157-11.43,9.212c-0.794,2.193-1.001,4.734-0.359,7.249
	c0.928,3.354,3.087,6.159,6.626,7.592c2.022,0.795,4.76,0.767,6.999-0.533c1.043-0.599,1.601-1.242,2.107-1.898
	c0.483-0.657,0.877-1.36,1.165-2.177c0.248-0.696,0.453-1.484,0.444-2.5c-0.011-0.985-0.3-2.345-1.249-3.507
	c-0.62-0.766-1.486-1.343-2.313-1.643c-0.603-0.219-1.2-0.329-1.746-0.368l-2.982-0.189c0.846-1.219,2.478-2.329,4.025-2.519
	c1.258-0.19,2.414-0.052,3.521,0.358c3.003,1.052,5.626,4.506,5.915,8.101c0.177,1.732-0.061,3.341-0.599,4.858
	c-1.588,4.56-6.42,8.211-11.581,8.521c-2.119,0.139-4.109-0.176-5.968-0.865c-6.009-2.184-10.625-8.547-10.902-15.438
	c-0.113-2.542,0.277-4.96,1.095-7.209c2.705-7.621,10.468-13.342,18.911-13.576c2.901-0.095,5.657,0.395,8.228,1.345
	c9.035,3.309,15.725,12.698,15.888,22.942c0.061,3.317-0.493,6.495-1.548,9.44C62.534,68.541,51.781,76.39,39.99,76.486
	c-3.655,0.04-7.145-0.599-10.386-1.806C17.503,70.228,8.71,57.802,8.7,44.17c-0.012-4.091,0.691-7.994,2.012-11.631
	C15.647,18.745,29.437,8.756,44.551,8.822c4.408,0.008,8.61,0.804,12.546,2.264c4.795,1.767,9.07,4.633,12.894,8.025
	c7.206,6.396,10.377,12.831,12.037,16.351c2.237,4.747,3.967,11.105,5.638,17.255c3.591,13.209,6.994,25.712,16.445,26.39
	c0.12,0.008,1.401,0.026,1.417,0.027c0,0,0.165-0.015,0.248-0.02c9.537-0.584,12.955-13.135,16.559-26.397
	c1.672-6.15,3.4-12.509,5.639-17.255c1.661-3.52,4.832-9.954,12.037-16.351c3.823-3.392,8.099-6.258,12.895-8.025
	c3.936-1.46,8.137-2.256,12.546-2.264c15.113-0.066,28.903,9.922,33.838,23.717c1.32,3.637,2.022,7.54,2.012,11.631
	c-0.009,13.632-8.803,26.058-20.904,30.51c-3.241,1.207-6.73,1.846-10.386,1.806c-11.79-0.096-22.545-7.945-26.366-18.647
	c-1.054-2.945-1.607-6.124-1.547-9.44c0.164-10.244,6.854-19.633,15.888-22.942c2.57-0.95,5.327-1.44,8.228-1.345
	c8.443,0.234,16.207,5.955,18.911,13.576c0.818,2.25,1.209,4.667,1.095,7.209c-0.276,6.89-4.894,13.254-10.901,15.438
	c-1.859,0.688-3.851,1.004-5.968,0.865c-5.161-0.309-9.993-3.96-11.583-8.521c-0.536-1.517-0.774-3.126-0.598-4.858
	c0.289-3.595,2.913-7.049,5.916-8.101c1.104-0.41,2.261-0.548,3.52-0.358c1.548,0.19,3.18,1.3,4.025,2.519l-2.982,0.189
	c-0.546,0.039-1.144,0.148-1.745,0.368c-0.827,0.3-1.693,0.877-2.313,1.643c-0.95,1.163-1.239,2.522-1.249,3.507
	c-0.01,1.016,0.195,1.804,0.444,2.5c0.287,0.817,0.681,1.52,1.164,2.177c0.507,0.657,1.064,1.3,2.107,1.898
	c2.238,1.299,4.977,1.328,6.999,0.533c3.539-1.433,5.698-4.237,6.627-7.592c0.641-2.515,0.434-5.056-0.36-7.249
	c-1.911-5.055-6.361-8.388-11.429-9.212c-2.737-0.425-5.411-0.095-7.794,0.795c-6.483,2.463-10.882,8.586-11.595,15.518
	c-0.297,3.069,0.113,6.05,1.095,8.747c2.974,8.1,10.581,13.669,19.172,14.291c3.345,0.224,6.587-0.288,9.54-1.383
	c9.498-3.565,16.083-12.843,16.599-23.305c0.165-3.748-0.435-7.344-1.622-10.646c-4.075-11.171-14.761-18.944-26.809-19.361
	c-4.026-0.132-7.906,0.547-11.479,1.877C142.444,21.859,133.69,34.264,133.4,48.22c-0.091,4.434,0.661,8.7,2.075,12.637
	c5.182,14.271,18.951,24.237,34.438,24.44c4.718,0.052,9.269-0.78,13.472-2.344C198.983,77.14,209.895,61.62,210,44.196
	C210.021,39.045,209.109,34.09,207.461,29.511z" class="color c1"/>
</svg>