<svg version="1.1" id="图层_1" x="0px" y="0px" width="208.8px" height="165.7px" viewBox="0 0 208.8 165.7" enable-background="new 0 0 208.8 165.7" xml:space="preserve" xmlns:xml="http://www.w3.org/XML/1998/namespace" xmlns="http://www.w3.org/2000/svg" xmlns:xlink="http://www.w3.org/1999/xlink">
  <path fill="#021724" d="M2.1,76.9C9.7,62.8,19.9,52,32.2,43.8l1.2-4.7c17.4-10,42.6-18.3,66.1-19.8c16.3-10.6,34.201-21,71.1-16.5
	L156.8,19c27,8.7,36.3,26.7,31.3,52.2C202,78,208.8,90.799,206.701,104.5C198.4,99.5,186,96,175.4,96.799
	C163.9,121,132.1,137.6,105.201,137.2C87.2,162.5,66.6,166.799,44.7,162C63.5,151,80,125,60.8,108.2c17.3-3.199,31.1,0.9,41.3,12.4
	c8-1.801,17.601-7.4,15.3-27.4C83,102,66.2,108.5,61.1,92.2C34.3,92.799,13.3,90.799,2.1,76.9z" class="color c1"/>
  <path fill="#0A1657" d="M120.5,44.4C135.1,50.8,147,58.3,134.4,76c9.801-4.9,13.2-12.6,12.1-22.1c5.601,5.5,9.101,11.8-0.6,23
	c4.801-0.8,8.5-4.2,11.801-8.6c0.399,4.9-0.101,9.7-3.5,14.5c16.399,2.5,31.899,5.201,44,9.1C186.9,80.7,140.1,41.8,120.5,44.4z" class="color c2"/>
  <path fill="#0A1657" d="M131.201,89.2C133.8,104,125.1,115.6,107.8,125c16.699-1.701,32.199-10.301,39-25.4l-8-4.4l19.8-0.6
	C150.3,90.799,140.8,89.1,131.201,89.2z" class="color c2"/>
  <path fill="#FFFFFF" d="M190,70.3c4.601-25.7-5.5-43.2-30.199-52.1l14.3-16.8L170.8,1c-16.9-2-31.301-1.1-44,2.7
	c-11.2,3.4-19.6,8.5-27.9,13.9c-22.2,1.5-47.6,9.1-66.4,20L31.9,38l-1.2,4.8C18,51.2,7.9,62.4,0.6,76.1l-0.6,1L0.7,78
	c5.5,6.799,13.5,11.299,24.6,13.7c8.6,1.9,19.3,2.6,34.5,2.301c2.5,6.799,7.5,9.899,15.6,9.899c0,0,0,0,0.1,0
	c7.7,0,18-2.7,32.201-6.399c2.699-0.701,5.399-1.4,8.299-2.201c1,13-3.399,20.701-13.2,23.201C92.2,107.2,78,103.1,60.6,106.299
	L57,107l2.7,2.399c5.9,5.101,8.5,11.399,7.8,18.7c-0.5,5.9-3.3,12.199-7.9,18.199C55.3,151.9,49.7,157,43.6,160.6l-3.8,2.3l4.4,1
	c5.4,1.2,10.4,1.8,15.3,1.8c6.2,0,12-1,17.4-2.9c10.9-3.899,20.4-11.6,29.1-23.6c13.4,0,27.9-4,40.9-11.199
	c13.4-7.5,23.9-17.9,29.6-29.301c9.4-0.4,21,2.5,29.201,7.5l2.299,1.4l0.4-2.6C210.6,90.6,203.6,77.5,190,70.3z M205.201,101.799
	c-8.9-4.699-20.601-7.299-30-6.6l-1,0.1l-0.4,0.9c-5.301,11.1-15.4,21.301-28.6,28.6c-12.701,7.101-27,10.9-40,10.801H104.3
	l-0.5,0.8C89.2,157,71.8,165,49.4,161.299c5-3.5,9.6-7.899,13.2-12.699c3.8-5,6.4-10.301,7.7-15.4c1.9-0.6,3.8-1.4,5.4-2.6
	c-1.5-1.1-3-1.9-4.5-2.4c0.6-7.1-1.7-13.5-6.5-18.9c7-0.899,13.4-0.5,19.1,1.201c6.5,2,12.3,5.699,17.2,11.199l0.7,0.801l1-0.201
	c5.5-1.199,9.7-3.699,12.5-7.5C119,109.7,120.4,102.4,119.4,93l-0.199-2l-2,0.5c-3.601,0.899-7,1.799-10.301,2.699
	c-13.4,3.5-24,6.301-31.3,6.301l0,0c-7,0-10.7-2.5-12.6-8.701L62.6,90.5h-1.3c-15.6,0.299-26.4-0.301-35-2.201
	C16.5,86.2,9.4,82.4,4.4,76.7c7.1-12.8,16.9-23.4,28.9-31.4l0.6-0.4l1.2-4.7C53.5,29.7,78.2,22.4,99.8,21h0.5l0.4-0.3
	c8.2-5.3,16.5-10.4,27.4-13.7c11.399-3.4,24.3-4.4,39.2-2.9l-13.4,15.7l2.5,0.8c25.301,8.2,35.2,24.6,30.1,50.2l-0.299,1.3
	l1.199,0.6c6.4,3.1,11.4,7.8,14.5,13.3C204.4,90.9,205.5,96.299,205.201,101.799z" class="color c3"/>
  <path fill="#34DCFA" d="M73.5,85.7c-1.2,11.2,10.9,4.4,29.7-4.8c-7.3,6-15.5,10.899-25.5,13.7C69.1,96.7,65.9,91.6,73.5,85.7z" class="color c4"/>
  <path fill="#FFFFFF" d="M96.3,72.5l3.5-2.1v3.8L96.3,72.5z M103.9,71.3v3.5l3.801-2.1L103.9,71.3z M92.1,79l-0.9-3.2l-3,1.8L92.1,79
	z M96.3,77.2l0.6,3.8l3-2.1L96.3,77.2z M88,81.6l0.3,3.5l3.8-1.5L88,81.6z M83.9,83.4L83,80.1l-2.7,1.5L83.9,83.4z M78,86l0.9,2.699
	l3.2-1.5L78,86z M106.9,67.7l-0.6-2.4l-1.8,1.5L106.9,67.7z M110.701,66.3L111,68.4l2.101-1.8L110.701,66.3z" class="color c3"/>
  <path fill="#34DCFA" d="M142.9,20.2c3.2-4.3,6.801-8,10.6-10.9C137.4,8.5,116.9,19,109.8,28.8C118.3,23.9,129,20.8,142.9,20.2z" class="color c4"/>
  <path fill="#FFFFFF" d="M179.5,74.8c1.5-3.9,2.101-9.4,2.101-15.9c-6-51.9-115.7-28-170.3,16.8C33,92.799,78,82.8,102.5,63.9
	l-0.3-4.4l8.6,0.3C130,60.4,98.1,90.2,77.7,94.6c24.2,0.6,70.799-30.7,44-49.3c12.699,2.5,21.5,8.2,23.899,19.2
	c1-2.7,1.2-6.3,0.899-10.6c6.301,4.2,9.9,9.8,8,18c0.9-0.8,2-1.8,3.201-3c2.399,2.4,4,5.7,4.699,10c4-1.1,7.801-1.9,11.5-1.5
	c9.6,5,19,10,24.2,14.5C194.701,83.5,187.3,79,179.5,74.8z M79.4,58.2v-6.1L69.1,61l5.2,1.1l5-3.7c-5.1,4.4-11.1,7.7-18.2,10
	l-8.3-6.2C66.8,51.5,80,43.5,91.2,43C88.2,49,84.2,54.1,79.4,58.2z" class="color c3"/>
  <path fill="#1779D4" d="M11.3,75.7c14.6,2.7,29.5,0.6,44.9-8.3l-2.4-5h6.5c5.684-8.228,17.175-14.814,30.915-19.354
	c0.275-0.091,0.742,0.977,1.019,0.887c12.39-3.994,26.091-6.765,39.417-7.167c2.661-0.08,6.746,0.316,12.75,0.75
	c3.704,0.267,6.902,0.452,10.25,1.083c4.135,0.78,8.558,0.867,11.922,2.229c0.651,0.264,1.286,0.538,1.903,0.824
	c8.074,3.743,13.125,9.414,13.125,17.247c-3.2-30.4-29.5-38.1-71.101-30.4c9.601-8.2,21.9-14.8,37.5-19.2
	c-13.5,1.1-27.799,4-46,16.2c-20,0.9-40.8,8-62.1,17.5l-1.5,5.3C26,56.3,16.5,65.3,11.3,75.7z" class="color c5"/>
  <path fill="#0A1657" d="M87.7,58c-9,4.8-17.9,8.3-26.6,10.3C74.5,63.4,84.4,55.4,91.2,43c23.7-8.7,58.2-9.9,77.299-1.4
	c-21.699-5.1-47-1.8-74.299,5.7C91,50.4,88.5,53.8,87.7,58z" class="color c2"/>
  <path fill="#1779D4" d="M99.7,129c-5.7-9.601-14.2-14.9-26.2-14.9c1.4,2.3,2.2,5.8,2.4,10.6c2.8,1.1,5.6,2.6,8,5.6l-8,5.301
	c-1.5,4.1-4,8.199-6.8,12.4c0.2-0.201,0.5-0.4,0.7-0.5l-0.4,0.5c-1.3,2.1-3.5,5.699-5.6,7.899c16.1-2.601,31.2-13.8,36.2-26.8
	L99.7,129z" class="color c5"/>
  <path fill="#1779D4" d="M131.201,89.2c1.5,6.9,1.799,13.1-0.701,18.6c-1.5,3.301,2.301,6.5,5.301,4.5c1.699-1.1,3.4-2.299,5.1-3.6
	c-4,6.6-19.199,16-33,16C120.201,116.799,131.9,108.1,131.201,89.2z" class="color c5"/>
  <path fill="#34DCFA" d="M11.4,76c5-11,15.2-20.9,27-27.4l1.8-6.2c17.4-9.4,39.9-15.9,61.6-16.7c-22.2,4.9-43.3,10.9-58.7,18.8
	l-1.5,5.1C22.4,63,28.4,75,42,73.8C32.4,78,20.7,77.8,11.4,76z" class="color c4"/>
  <path fill="#34DCFA" d="M73.4,114C85,114.2,94,119,100,129.1c-7.1-8.801-16.5-13.301-23.4-12.7c0.8,2.601,1.3,5.2,1.4,7.7
	c3.2,1.8,5.2,3.9,6,6.3c-2.2-2.7-5.1-4.399-8.1-5.601C76,120.799,75.2,117.2,73.4,114z" class="color c4"/>
</svg>