<svg version="1.1" id="图层_1" x="0px" y="0px" width="161.542px" height="180px" viewBox="0 0 161.542 180" enable-background="new 0 0 161.542 180" xml:space="preserve" xmlns="http://www.w3.org/2000/svg" xmlns:xlink="http://www.w3.org/1999/xlink" xmlns:xml="http://www.w3.org/XML/1998/namespace">
  <path fill="#252025" d="M123.216,51.48c1.565-7.156-1.565-14.761-2.46-19.682c-0.895-5.144-0.672-7.605-0.447-9.394
	c-5.815-1.789-6.71-4.473-6.71-4.473c4.026,2.236,7.381,1.565,8.499,1.342c0.223-0.223,0.447-0.223,0.447-0.223
	c24.604,4.025,30.195,16.997,37.128,24.603c0.672,0.895,2.237-0.225,1.79-1.343c-3.13-7.38-10.736-17.221-16.551-22.143
	c-8.276-7.156-17.446-12.525-17.446-12.525c-2.236-4.473-7.604-8.052-14.538-7.604c-6.934,0.447-8.724,8.5-8.724,8.5
	c-2.014,8.946,4.025,19.234,6.486,24.155s0.895,12.973,0.895,12.973s4.921-0.448,7.157,0.894
	C120.98,47.679,122.994,51.257,123.216,51.48z M114.717,8.538c0-1.342,1.118-2.237,2.237-2.237c1.341,0,2.236,0.896,2.236,2.237
	s-1.118,2.235-2.236,2.235C115.612,10.773,114.717,9.879,114.717,8.538z M44.885,127.901c2.648-5.65,9.536-9.535,9.536-9.535
	s-1.59,5.651,3.003,6.887l-6.182,3.532c0,0-1.767,1.943-0.353,3.532c3.707,3.885,9.536,12.538,12.185,16.071
	c1.236,1.589,1.943,1.589,2.296,3.708c0.529,4.063,1.413,8.829,1.236,10.595c-0.354,2.649-2.648,3.533-2.648,3.533
	s0-2.647-0.707-7.24c-0.707-4.592-1.06-6.535-1.06-6.535s-0.706,3.887-0.706,5.651c0,1.414,0.177,6.359,0.354,7.947
	c0,0.177,0,0.354-0.177,0.53c-0.53,0.707-1.59,0.53-1.767-0.177l-0.706-2.295c-0.707-2.121-1.236-2.474-1.236-4.77
	c0-2.824-0.177-6.534-0.529-7.771c-1.061-3.532-5.298,3.886-6.888,2.649c-1.237-1.06,4.237-6.888,3.003-9.535
	C52.126,142.384,42.236,133.554,44.885,127.901z M70.138,124.723c0,0-1.235,7.595-1.589,9.538c-0.354,1.941,0,5.65-1.059,7.239
	c-1.061,1.591-2.297,5.828-2.297,5.828l-2.649-4.237c0,0-1.941-3.532-0.353-5.651c1.59-1.943,2.648-11.833,2.648-11.833
	C66.784,122.957,70.138,124.723,70.138,124.723z M57.954,173.112c3.355-1.589,5.828-3.356,5.828-3.356s3.531-1.94,5.651-8.123
	c0,0-0.707,8.83,3.531,10.773c4.239,1.942,12.362,3.355,15.364,4.591S89.565,180,89.565,180s-10.419-1.944-12.185-1.944
	c-1.591,0-12.716,0-13.775-0.705c-1.061-0.706-8.831,1.943-10.773,1.06C51.066,177.351,54.774,174.7,57.954,173.112z M2.325,105.65
	c0,0,9.89-11.479,23.312-16.954l6.181-1.236c0,0-6.181,4.944-7.771,10.066c-1.589,5.298-3.886,18.013-2.649,24.192
	c1.236,6.182,1.236,6.182,1.236,6.182l-6.181-7.77c0,0-3.002,10.066,0.353,15.013c0,0-4.591-3.004-5.65-10.068
	c-0.707-5.65-0.53-10.595-0.354-12.538c0-0.53-0.177-1.059-0.706-1.412l-1.767-1.235c-0.53-0.354-1.06-0.354-1.589,0
	c-1.413,0.882-4.238,2.647-4.945,4.414C0.735,116.424-1.915,113.244,2.325,105.65z M37.645,107.24
	c5.298-0.706,18.366,0,30.198-3.531c11.832-3.533,34.084-15.366,37.969-27.903c3.885-12.363-7.24-14.482-7.24-14.482
	s3.885,2.649,5.827,7.77c1.943,5.298-9.183,19.604-26.843,27.198c-17.66,7.594-32.671,6.182-39.028,6.888
	c-6.182,0.706-13.775,4.236-13.775,4.236l0.707-4.59c3.355-10.597,13.244-18.192,13.773-20.134
	c0.707-1.94-10.064,1.942-10.064,1.942C52.126,60.441,77.38,54.259,86.386,51.964c9.184-2.296,21.545,0,22.958-1.236
	c1.235-1.236,4.238-2.296,7.241-1.236c3.001,1.059,5.298,4.943,5.298,4.943c1.942,8.83-4.593,10.42-7.595,22.959
	c-3.001,12.362-13.774,24.195-21.544,28.432c-4.416,2.473-9.537,3.886-10.597,3.356c-0.177,0-0.53,0-0.707,0.177
	c-6.357,6.887-19.602,13.245-22.428,13.245c-3.002,0-2.296-3.532-2.296-3.532l2.648-9.182l-3.885,5.649
	c-7.24-1.235-15.011-3.532-19.956-3.355c-2.119,0.177-6.71,1.943-11.302,4.062c0-1.941,0.353-3.532,0.529-4.238
	C29.698,109.712,35.172,107.594,37.645,107.24z M7.269,113.598c0,0,0.354,0.176,1.06,0.53c-0.177,2.648,0,5.827,0,8.123
	c-2.295-0.177-4.592-1.237-5.298-2.473C1.971,118.189,7.269,113.598,7.269,113.598z M73.318,121.898
	c-0.53,0.883-1.413,1.235-2.296,0.883c-1.236-0.53-3.354-0.883-6.004,0.529c0,0,10.242-5.827,11.479-7.064
	C76.497,116.069,74.731,119.603,73.318,121.898z" class="color c1"/>
</svg>