<svg version="1.1" id="图层_1" x="0px" y="0px" width="139.451px" height="139.504px" viewBox="0 0 139.451 139.504" enable-background="new 0 0 139.451 139.504" xml:space="preserve" xmlns="http://www.w3.org/2000/svg" xmlns:xlink="http://www.w3.org/1999/xlink" xmlns:xml="http://www.w3.org/XML/1998/namespace">
  <path fill="#FF6A28" d="M131.378,102.416c-4.124,7.755-9.663,14.644-16.28,20.313l-21.231,1.05l18.762,0.969
	c-11.831,9.236-26.705,14.756-42.877,14.756c-33.066,0-60.738-23.017-67.92-53.896l26.555-0.691L1.294,83.121
	C0.454,78.793,0,74.327,0,69.753c0-4.286,0.407-8.474,1.147-12.546c0.024,0.005,0.049,0.008,0.073,0.013
	c0.278,0.053,0.557,0.107,0.847,0.159l0.167,0.029c0.47,0.083,0.939,0.163,1.412,0.204c0.013,0.001,0.025,0.002,0.038,0.003
	c0.283,0.312,0.615,0.588,0.995,0.828c0.884,2.033,2.364,3.063,4.405,3.063c0.228,0,0.466-0.013,0.734-0.042
	c0.896,0.805,1.922,1.216,3.062,1.223c0.632,0.853,1.443,1.311,2.049,1.584c0.414,1.267,1.288,2.091,1.809,2.582
	c0.095,0.09,0.191,0.179,0.279,0.271l0.963,0.942h0.265c0.518,0.386,1.269,0.724,2.32,0.751c0.781,0.912,1.772,1.507,2.884,1.74
	l0.923,1.684l0.688-0.336c0.747,0.802,1.787,1.241,2.88,1.22c0.77,1.355,1.917,2.53,3.473,3.566c0.582,0.388,1.273,0.593,2.004,0.57
	c0.083,0.081,0.171,0.17,0.258,0.261c0.399,0.419,1.293,1.355,2.779,1.5c0.026,0.022,0.051,0.044,0.076,0.064
	c0.461,0.387,0.91,0.79,1.36,1.192l0.582,0.52c0.071,0.062,0.146,0.123,0.242,0.199c1.18,1.499,2.575,1.823,3.561,1.823
	c0.415,0,0.842-0.059,1.282-0.178c0.714,0.226,1.378,0.255,1.836,0.255c0.2,0,0.403-0.007,0.606-0.014
	c0.132-0.005,0.264-0.01,0.394-0.01l0.104,0.002c0.365,0.016,0.735,0.038,1.099,0.076c0.094,0.01,0.187,0.02,0.281,0.03
	c-0.441,0.249-0.975,0.558-1.503,0.988l-1.858,1.53c-1.28,0.45-2.28,1.17-3.108,1.767c-0.382,0.275-0.742,0.534-1.074,0.727
	c-0.973,0.567-1.935,1.156-2.896,1.745c-0.653,0.399-1.305,0.799-1.96,1.19c-0.722,0.431-1.448,0.856-2.173,1.281
	c-1.075,0.63-2.149,1.26-3.212,1.906c-0.924,0.227-1.769,0.729-2.442,1.463c-0.915,0.998-1.403,2.328-1.34,3.646
	c0.121,2.603,2.246,4.665,4.876,4.784c0.709,0.623,1.54,1.099,2.441,1.403c0.408,1.062,1.25,1.645,1.508,1.804
	c0.378,0.234,1.245,0.771,2.387,0.806c0.773,0.44,1.747,0.525,2.605,0.223l1.127,0.044c0.852,0.635,1.772,0.802,2.503,0.802
	c0.451,0,0.928-0.058,1.526-0.188c0.464,0.583,1.191,1.164,2.332,1.527c0.116,0.037,0.236,0.067,0.347,0.118
	c0.629,0.315,1.28,0.642,2.189,0.642c0.001,0,0.002,0,0.002,0c0.313,0.126,0.677,0.216,1.091,0.231
	c0.079,0.002,0.158,0.011,0.238,0.018c0.688,0.057,1.372,0.046,1.978-0.107c0.175,0.076,0.367,0.147,0.576,0.207l-0.195,0.501
	l1.409-0.347c0.399-0.003,0.748-0.054,1.004-0.091l0.176-0.025c0.561-0.073,1.09-0.265,1.55-0.555l1.47-0.362
	c0.196-0.048,0.389-0.087,0.576-0.125c0.762-0.155,1.734-0.354,2.696-0.952l0.208,0.045c1.35,0.292,2.662,0.186,4.141-0.35
	l0.125-0.045c0.085-0.031,0.169-0.065,0.195-0.076c2.027-0.311,3.614-1.849,4.044-3.924c0.14-0.681,0.283-1.361,0.426-2.042
	c0.476-2.26,0.968-4.598,1.333-6.951c0.069-0.441,0.17-0.505,0.354-0.62c1.526-0.959,2.931-2.152,4.388-3.73
	c0.003,0,0.005,0,0.008-0.001c0.352,0.83,0.896,1.393,1.221,1.729c0.056,0.058,0.114,0.114,0.137,0.139
	c0.866,1.19,2.167,1.322,2.648,1.371c0.262,0.029,0.524,0.048,0.786,0.066c0.001,0,0.001,0,0.002,0
	c0.659,0.829,1.689,1.394,2.745,1.479c0.746,0.682,1.742,1.084,2.696,1.084l0.194-0.005c1.897-0.107,3.777-0.242,5.589-0.401
	c0.458-0.041,0.869-0.126,1.222-0.209c0.476,0.192,0.995,0.292,1.54,0.292c0.338,0,0.636-0.038,0.854-0.07
	c0.5,0.375,1.225,0.69,2.247,0.69c0.126,0,0.247-0.005,0.339-0.013c0.351-0.025,0.701-0.065,1.05-0.105
	c0.111-0.013,0.221-0.025,0.333-0.038c0.372,0.225,0.962,0.564,1.749,0.688c1.655,0.265,3.07,0.24,4.416-0.079l0.111,0.209
	l1.157-0.31c0.969,0.409,2.109,0.354,3.132-0.153c0.003,0,0.007,0,0.011,0c0.677,0.553,1.654,0.961,3.063,0.971
	c0.17,0,0.338-0.012,0.502-0.037l0.501,0.083c0.166,0.039,0.411,0.098,0.711,0.127l0.231,0.414h1.794
	c0.391,0,1.032-0.093,1.678-0.377c0.56,0.293,1.092,0.456,1.507,0.582c0.068,0.021,0.147,0.045,0.221,0.068
	c0.658,1.116,1.868,1.735,3.329,1.562c0.159-0.019,0.319-0.033,0.479-0.047c0.688-0.063,1.53-0.14,2.406-0.436
	c0.745,0.395,1.554,0.64,2.408,0.726C131.086,102.058,131.229,102.235,131.378,102.416z M22.796,26.662
	c1.773,0.432,3.468,1.01,5.107,1.568l0.42,0.143c1.039,0.353,2.121,0.787,3.505,1.409l0.528,0.236
	c0.917,0.405,1.956,0.865,2.928,1.593c1.501,1.124,2.979,2.278,4.458,3.431c1.979,1.544,4.024,3.141,6.071,4.614
	c3.1,2.234,6.405,4.36,9.601,6.417l0.509,0.328c2.155,1.385,4.491,2.785,6.939,4.16c1.196,0.673,2.442,1.27,3.762,1.9
	c0.479,0.229,0.957,0.458,1.434,0.691l0.474,0.234c0.591,0.294,1.15,0.573,1.65,0.738l0.131,0.007
	c0.3,0.016,1.018,0.054,1.813,0.432c0.538,0.085,1.059,0.171,1.578,0.272c0.389,0.078,0.754,0.228,1.083,0.431
	c0.594,0.135,1.327,0.305,2.074,0.737c0.815,0.471,1.828,0.632,3.097,0.729c0.775,0.056,1.554,0.136,2.316,0.218
	c1.833-0.301,3.69-0.453,5.527-0.453l0.079,0c0.486-0.071,1.578-0.214,2.929-0.293c1.155-0.218,2.262-0.341,3.283-0.341
	c5.327,0,7.89,2.918,8.869,5.354c1.846,1.22,2.82,3.215,3.225,4.238c1.378,0.139,2.731,0.264,3.957,0.374
	c2.46,0.221,4.922,0.432,7.387,0.618c1.09,0.082,2.183,0.145,3.275,0.208c0.756,0.044,1.513,0.087,2.269,0.137
	c0.886,0.057,1.773,0.121,2.66,0.185c1.114,0.08,2.227,0.16,3.342,0.227c1.769,0.105,3.54,0.18,5.312,0.246
	c0.529,0.02,1.062,0.028,1.595,0.037c0.952,0.015,1.936,0.031,2.943,0.105l0.241,0.018c0.093,0.007,0.192,0.015,0.287,0.022
	c-0.547-18.273-8.105-34.78-20.097-46.911l-43.112-2.227l38.639-1.911C102.714,6.249,86.967,0,69.752,0
	C48.348,0,29.206,9.65,16.411,24.827C18.594,25.505,20.67,26.147,22.796,26.662z" class="color c1"/>
</svg>