<svg version="1.1" id="图层_1" x="0px" y="0px" width="126.122px" height="162.566px" viewBox="0 0 126.122 162.566" enable-background="new 0 0 126.122 162.566" xml:space="preserve" xmlns="http://www.w3.org/2000/svg" xmlns:xlink="http://www.w3.org/1999/xlink" xmlns:xml="http://www.w3.org/XML/1998/namespace">
  <path fill="#C6BD77" d="M58.566,120.615l0.632,0.201c-0.008,0.035-0.024,0.059-0.035,0.09l0.813-0.605c-0.029,0-0.059,0-0.092-0.01
	l-0.001-0.002c-0.002,0-0.004-0.002-0.007-0.004c-0.025-0.008-0.052-0.018-0.08-0.033l0,0l0.158-0.494
	c0.034,0.006,0.064,0.012,0.093,0.021c0.092,0.029,0.149,0.08,0.179,0.145c0.029,0.059,0.028,0.123,0.013,0.182l1.362-1.016
	c0,0,0.08,0.549,0.227,1.383c0.004,0,0.006-0.002,0.01,0c0.102,0.031,0.209,0.096,0.326,0.197c-0.117,0.146-0.188,0.262-0.229,0.383
	c0.49,2.637,1.484,7.045,2.712,7.486c1.758,0.629,8.758-0.785,9.51-0.307c0.752,0.482,1.438,4.459,1.438,4.459l-0.059,3.848
	l2.721-2.674l0.809,2.506l-0.08,3.857l1.42-3.189c-0.09-0.158-0.088-0.365-0.213-0.51c0.105-0.166,0.313-0.188,0.51-0.125
	c0.309,0.098,0.592,0.404,0.42,0.695c-0.125,0.018-0.254,0.037-0.326,0.162l0.365,2.266l1.924-3.742l-0.26-3.035l1.691,1.494
	c0,0-0.018-0.357-0.055-0.881c-0.143-0.021-0.301-0.072-0.361,0.059c-0.33-0.336,0.025-0.623,0.188-1.027
	c0.029,0.004,0.057,0.012,0.082,0.02c0.008,0.002,0.012,0.008,0.021,0.01c-0.09-1.039-0.223-2.244-0.402-2.803
	c-0.352-1.09-3.979-7.115-4.98-8.709c-0.049-0.078-0.117-0.146-0.189-0.213c-0.066-0.008-0.125,0-0.201-0.023
	c-0.055-0.018-0.111-0.039-0.172-0.068c0.041-0.055,0.057-0.088,0.08-0.127c-1.727-1.018-6.516-0.439-6.516-0.439
	s-0.156-4.973-0.369-5.633c-0.039-0.119,0.119-0.535,0.4-1.135c-0.35-0.129-0.137-0.676,0.094-0.791
	c0.039,0.004,0.072,0.01,0.104,0.02c0.063,0.02,0.104,0.055,0.135,0.096c1.492-2.955,4.768-8.473,5.164-8.957
	c0.508-0.652-0.328-3.979-0.328-3.979s1.578-4.826,1.377-6.918c-0.186-2.098-0.74-4.557-0.74-4.557s4.988-6.166,9.168-11.83
	c4.178-5.665,8.34-22.596,9.086-32.192c0.143-1.813,0.455-3.533,0.895-5.168c-0.139,0.053-0.299,0.082-0.498,0.059
	c-0.105-0.014-0.221-0.039-0.342-0.076c-0.334-0.658-0.191-1.641,0.715-1.533c0.117,0.014,0.246,0.043,0.389,0.096
	c0.045,0.061,0.08,0.126,0.113,0.192c2.035-6.403,6.018-11.407,9.525-15.276c0.951-1.048,2.021-1.816,3.133-2.399
	c-0.146-0.124-0.182-0.319,0.033-0.591c0.242,0.029,0.432,0.178,0.611,0.269c4.115-1.862,8.627-1.276,9.941-1.7
	c0.125-0.04,0.26-0.107,0.398-0.189c0.992-0.581,2.336-2.139,3.398-3.635c0.883-1.24,1.57-2.437,1.693-2.983
	c0.303-1.297-3.367-2.992-8.762-5.569c-5.404-2.576-11.254-2.13-25.625-4.934c-0.551-0.107-1.111-0.199-1.676-0.282
	c0.135,0.364,0.361,0.78,0.543,1.063c-0.199,0.538-0.75,0.643-1.289,0.761c0.01-0.124-0.148-0.116-0.246-0.158
	c-0.102-0.423,0.02-0.294,0.09-0.772c-0.629-0.211-0.881-0.6-1.479-1.021c0.334,0.004,0.67,0.009,1.004,0.013
	c0.033,0.096,0.045,0.197,0.023,0.303c0.076,0.022,0.148,0.037,0.215,0.045c0.275,0.033,0.434-0.079,0.49-0.315
	c-7.525-0.967-16.098,0.153-23.273,1.676C59.887,3.36,54.708,4.981,52.196,5.792c-0.446,0.144-0.894,0.316-1.34,0.503
	c-3.104,1.296-6.165,3.557-8.629,5.979c0.219,0.188,0.077,0.723-0.096,0.866c-0.162-0.074-0.273-0.271-0.302-0.475
	c-1.529,1.555-2.802,3.157-3.67,4.602c-2.497,4.165,5.79,6.047,6.918,2.81c1.121-3.235,8.608-6.856,17.53-9.009
	c8.922-2.155,11.112,3.136,11.112,3.136s0.969,0.767,0.67,2.186c-0.27,1.401-2.439,4.382-3.322,6.109
	c-0.883,1.716-1.469,5.864-1.012,13.274c0.463,7.406-1.705,17.457-3.07,20.656c-1.379,3.197-6.127,4.852-9.002,6.02
	c-2.864,1.164-6.521-1.975-8.903-2.65c-2.38-0.668-11.349-0.535-15.538-0.864c-4.189-0.325-18.473,6.074-20.979,6.882
	C11.458,66.172,4.434,70.077,0,72.673c7.077,47.995,25.427,68.034,30.976,74.676l8.425-9.105c0,0,6.198,5.438,7.113,7.531
	c0.917,2.1,0.509,13.867,0.509,13.867l2.368-2.318l0.736,2.283l0.111,2.959l1.778-3.82l0.948,2.941l0.581-2.479
	c-0.087-0.162-0.007-0.393,0.124-0.527l0.055-0.232l-0.328-3.619l1.571,2.611l-0.034-3.82c0,0-1.857-5.764-2.522-7.826
	c-0.664-2.063-1.088-5.641-1.508-6.945c-0.245-0.762-1.758-3.445-2.986-5.568c-0.094,0.031-0.197,0.053-0.324,0.053
	c-0.011,0-0.023-0.002-0.033-0.002c-0.078,0.24,0.032,0.387-0.046,0.629c-0.21-0.02-0.277-0.016-0.339-0.035
	c-0.059-0.02-0.112-0.061-0.295-0.166l0.236-0.74l0.286,0.09c-0.034-0.227-0.284-0.25-0.454-0.346
	c0.066-0.199,0.273-0.291,0.496-0.295c-0.662-1.135-1.156-1.965-1.156-1.965l7.469-5.568c-0.012-0.006-0.021-0.008-0.033-0.014
	l0.117-0.371c0.124-0.039,0.27-0.043,0.436-0.002l4.378-3.262c-0.05-0.004-0.099-0.002-0.154-0.016
	C58.438,121.095,58.437,120.886,58.566,120.615z M81.957,134.044c0.111,0.035,0.23,0.09,0.361,0.17
	c0.354,0.703-0.063,1.648-1.033,1.34c-0.102-0.031-0.209-0.078-0.32-0.139C80.761,134.707,81.085,133.769,81.957,134.044z
	 M79.423,133.701c0.221,0.203-0.111,0.674-0.451,0.566c-0.041-0.014-0.082-0.035-0.123-0.068
	C78.861,133.697,79.242,133.886,79.423,133.701z M78.115,121.708c0.051,0.016,0.111,0.045,0.168,0.07
	c0.057,0.027,0.115,0.057,0.166,0.072c0.096,0.031,0.17,0.023,0.189-0.096c0.211,0.354-0.189,1.039-0.617,0.902
	c-0.025-0.008-0.051-0.018-0.076-0.033c0.086-0.32,0.115-0.611-0.018-0.822C77.943,121.685,78.019,121.679,78.115,121.708z
	 M78.179,128.003c0.064,0.008,0.121,0.018,0.168,0.031c0.498,0.16,0.055,0.795,0.148,1.156c-0.111-0.064-0.211-0.107-0.305-0.137
	c-0.236-0.076-0.42-0.057-0.605-0.035c-0.188,0.02-0.373,0.039-0.607-0.035c-0.025-0.008-0.051-0.018-0.076-0.027
	C77.054,128.125,77.89,128.576,78.179,128.003z M107.365,14.061c0.271,0.181,0.85,0.126,0.877,0.493
	c-0.025,0.366-0.41,0.279-0.586,0.452c0.125,0.517,0.438,0.211,0.596,0.595c-0.209,0.921-0.885,1.262-1.645,1.5
	c-0.082-0.494,0.326-0.382,0.469-0.596c0.047-0.425-0.314-0.535-0.727-0.607C106.865,15.332,107.123,14.613,107.365,14.061z
	 M104.638,15.695l0.658,0.077c0.131,0.717,0.816,2.098-0.139,1.984c-0.098-0.012-0.215-0.039-0.352-0.086
	C104.757,16.887,104.179,16.583,104.638,15.695z M104.041,21.888c0.277,0.137,0.494,0.32,0.449,0.705
	c0.053,0.018,0.102,0.027,0.148,0.033c0.133,0.016,0.248-0.006,0.355-0.027s0.205-0.045,0.297-0.035
	c0.088,0.012,0.172,0.052,0.252,0.154c0.141,0.246-0.133,0.929-0.398,1.127c-0.133,0.001-0.256-0.006-0.367-0.019
	c-0.721-0.085-1.078-0.45-1.398-0.843C103.302,22.251,103.81,22.242,104.041,21.888z M102.49,22.036l0.586,0.069l-0.064,0.554
	c-0.061,0-0.117-0.002-0.168-0.008C102.503,22.612,102.384,22.406,102.49,22.036z M100.558,25.392
	c0.469,0.145,0.484,0.643,0.979,0.768c-0.098,0.366-0.389,0.545-0.691,0.509c-0.1-0.012-0.195-0.046-0.291-0.103
	C100.359,26.326,100.539,25.798,100.558,25.392z M99.011,24.946c0.023,0.006,0.045,0.011,0.064,0.014
	c0.111,0.014,0.182-0.027,0.215-0.111c0.523,0.225-0.096,0.369-0.209,0.629C98.908,25.417,99.011,25.142,99.011,24.946z
	 M98.884,27.151c0.129-0.096,0.332-0.1,0.559-0.073c0.08,0.009,0.162,0.022,0.244,0.036c-0.268,0.141-0.234,0.657-0.658,0.607
	c-0.061-0.008-0.127-0.024-0.205-0.056L98.884,27.151z M97.912,12.812c0.012,0,0.02,0.002,0.029,0.003
	c0.096,0.011,0.156,0.053,0.213,0.093c0.059,0.039,0.117,0.082,0.215,0.093c0.016,0.002,0.035,0.004,0.053,0.004
	c0.006,0.302-0.078,0.489-0.207,0.626C97.953,13.481,97.857,13.204,97.912,12.812z M97.029,20.276
	c0.484,0.107,0.619,0.486,1.16,0.55c0.074,0.009,0.152,0.011,0.242,0.007c-0.055,0.399-0.359,0.471-0.682,0.434
	c-0.33-0.039-0.678-0.189-0.811-0.219L97.029,20.276z M51.265,11.479c-0.831-0.225-0.209-0.597,0.106-0.902
	C51.747,10.819,51.194,11.129,51.265,11.479z M52.565,8.37c0.096-0.051,0.193-0.066,0.289-0.056
	c0.404,0.048,0.756,0.591,0.656,1.081C53.138,9.101,53.057,8.573,52.565,8.37z M65.037,6.71c-0.055-0.002-0.107-0.004-0.154-0.01
	c-0.295-0.035-0.459-0.166-0.383-0.475c0.016,0.006,0.029,0.008,0.041,0.01c0.086,0.01,0.107-0.059,0.121-0.132
	c0.029,0,0.059,0.003,0.084,0.007C65.062,6.147,65.113,6.381,65.037,6.71z M66.58,119.898c-0.359-0.197-0.559-0.479-0.396-0.939
	l0.504,0.16C66.476,119.466,66.791,119.55,66.58,119.898z M66.498,117.97c-0.342-0.484-0.705-0.961-1.074-1.432
	c0.311-0.736-0.01-0.953,0.471-1.48c0.119,0.664,0.432,1.236,1.162,1.592C66.722,117.177,66.544,117.24,66.498,117.97z
	 M68.722,124.523c0.033-0.119-0.125-0.143-0.213-0.203c-0.02-0.434,0.076-0.283,0.236-0.74c-0.688-0.389-0.799-0.918-1.58-1.59
	c0.174-0.232,0.43-0.273,0.672-0.197c0.406,0.129,0.768,0.592,0.598,1.008c0.07,0.037,0.139,0.064,0.203,0.086
	c0.359,0.113,0.564-0.053,0.623-0.502c-0.029-0.191-0.195-0.316-0.426-0.408c0.152-0.305,0.496-0.252,0.617-0.621
	c0.354,0.133,0.064,0.59-0.025,0.947c0.109-0.061,0.285,0,0.393-0.061c-0.184,0.299,0.1,1.246,0.313,1.779
	C69.833,124.511,69.273,124.507,68.722,124.523z M68.458,98.33c-0.326-0.148-0.656-0.4-1.025-0.707
	c0.645-0.477,1.465-0.908,2.059-0.641c0.299,0.137,0.543,0.451,0.674,1.027C69.513,98.535,68.992,98.572,68.458,98.33z
	 M69.828,101.9c-0.076,0.24-0.27,0.441-0.504,0.367c-0.031-0.01-0.064-0.025-0.098-0.047c-0.197-0.34,0.133-0.648,0.297-0.93
	c0.039,0.002,0.074,0.008,0.105,0.02C69.863,101.384,69.904,101.662,69.828,101.9z M69.513,120.289
	c0.252-0.41,0.697-0.459,1.266-0.277c0.021,0.006,0.045,0.014,0.066,0.021c0.014,0.295,0.088,0.787-0.148,0.902
	c-0.109-0.021-0.209-0.049-0.305-0.078C69.982,120.726,69.689,120.537,69.513,120.289z M71.13,122.632
	c-0.064-0.012-0.125-0.025-0.178-0.043c-0.197-0.064-0.326-0.164-0.414-0.281c0.055-0.357,0.508,0.033,0.623-0.211
	C71.322,122.191,71.167,122.441,71.13,122.632z M71.583,112.033c-0.109,0.055-0.238,0.055-0.354,0.02
	c-0.117-0.037-0.221-0.113-0.277-0.221c0.1-0.076,0.195-0.158,0.244-0.33c0.047,0.012,0.092,0.021,0.135,0.035
	c0.145,0.047,0.238,0.117,0.275,0.217C71.636,111.83,71.636,111.917,71.583,112.033z M71.146,85.576
	c0.07-0.152,0.232-0.266,0.412-0.184c0.029,0.014,0.059,0.031,0.086,0.055l-0.268,0.588c-0.035-0.006-0.066-0.018-0.096-0.029
	C71.099,85.923,71.078,85.728,71.146,85.576z M73.08,103.398c-0.031-0.006-0.061-0.012-0.088-0.02c-0.311-0.1-0.221-0.4-0.094-0.719
	c0.031,0.008,0.061,0.016,0.088,0.025C73.437,102.828,73.275,103.138,73.08,103.398z M73.974,102.886
	c-0.064-0.021-0.135-0.053-0.205-0.084c-0.068-0.029-0.139-0.063-0.201-0.082c-0.047-0.014-0.09-0.023-0.127-0.023
	c0.08-0.309,0.17-0.602,0.363-0.701c0.043,0.004,0.08,0.012,0.111,0.021c0.391,0.125-0.051,0.668,0.322,0.797
	C74.197,102.925,74.095,102.925,73.974,102.886z M76.13,31.948c0.221-0.17,0.424-0.197,0.625-0.107
	c0.098,0.045,0.197,0.119,0.299,0.219c-0.027,0.367-0.184,1.104-0.576,1.27C75.96,33.007,76.439,32.341,76.13,31.948z
	 M76.445,24.162c-0.068-0.014-0.125-0.032-0.172-0.054c-0.395-0.179-0.125-0.598,0.064-0.989
	C76.539,23.406,76.824,23.663,76.445,24.162z M76.207,28.921c0.578,0.846-0.746,0.805-1.037,1.213
	c-0.242-0.131-0.412-0.287-0.422-0.496C75.191,29.292,75.853,29.483,76.207,28.921z M76.246,60.213l-0.361-0.163
	c-0.039-0.185-0.016-0.389,0.146-0.647c0.047,0.015,0.088,0.028,0.125,0.045C76.48,59.594,76.38,59.898,76.246,60.213z
	 M76.406,39.57c-0.102-0.044-0.211-0.089-0.311-0.135c-0.305-0.138-0.539-0.298-0.324-0.612c0.104,0.045,0.213,0.088,0.313,0.133
	C76.388,39.095,76.619,39.257,76.406,39.57z M76.341,35.548c-0.057-0.025-0.119-0.049-0.188-0.072
	c0.885-0.549-0.381-0.915,0.287-1.705c1.055,0.625-0.004,1.355,0.326,2.139C76.683,35.769,76.554,35.644,76.341,35.548z
	 M76.869,70.383c0.051,0.016,0.096,0.032,0.135,0.05c0.32,0.146,0.338,0.393,0.561,0.569c-0.086,0.138-0.207,0.153-0.324,0.1
	C77.005,70.995,76.783,70.622,76.869,70.383z M77.771,90.214c-0.098-0.035-0.191-0.074-0.279-0.113
	c-0.395-0.178-0.658-0.406-0.471-0.797c0.137-0.027,0.295,0,0.439,0.064C77.783,89.515,78.027,89.857,77.771,90.214z M78.302,67.548
	c-0.057-0.014-0.109-0.03-0.152-0.05c-0.275-0.125-0.264-0.374-0.129-0.567c0.137-0.193,0.395-0.33,0.615-0.23
	c0.014,0.006,0.027,0.014,0.041,0.022L78.302,67.548z M79.048,29.445c-0.361-0.555-0.754-1.099-0.633-1.819l0.672,0.305
	C78.63,28.561,79.82,29.046,79.048,29.445z M82.501,58.923c-0.037-0.008-0.07-0.02-0.098-0.031
	c-0.387-0.176-0.012-0.806,0.232-0.906C82.878,58.207,82.865,58.779,82.501,58.923z M83.841,65.739
	c-0.279-0.316,0.184-1.174,0.805-0.893c0.064,0.028,0.127,0.068,0.191,0.121C84.687,65.668,84.183,65.509,83.841,65.739z
	 M85.375,64.776c-0.043-0.011-0.082-0.022-0.111-0.037c-0.17-0.076-0.193-0.205-0.318-0.301c0.104-0.16,0.264-0.174,0.465-0.082
	c0.039,0.018,0.082,0.04,0.125,0.066L85.375,64.776z M86.937,72.884c-0.121,0.045-0.207,0.046-0.266,0.02
	c-0.244-0.11-0.037-0.68,0.236-0.601c0.014,0.003,0.027,0.008,0.039,0.013C87.166,72.415,87.203,72.782,86.937,72.884z
	 M87.269,72.466c0.154-0.942-1.219-1.332-0.471-2.49c0.078,0.02,0.145,0.044,0.201,0.07c0.266,0.12,0.373,0.295,0.59,0.431
	c-0.186,0.485-0.131,1.026,0.26,1.204c0.09,0.041,0.201,0.063,0.332,0.06C87.781,72.026,87.785,72.208,87.269,72.466z
	 M86.714,37.588c0.082-0.438,0.457-0.515,0.867-0.55c-0.018,0.459-0.27,0.628-0.699,0.577C86.83,37.609,86.773,37.601,86.714,37.588
	z M87.812,47.528c-0.01-0.005-0.018-0.01-0.027-0.015c-0.088-0.04-0.16-0.034-0.23-0.03s-0.141,0.008-0.23-0.032
	c-0.014-0.007-0.031-0.015-0.047-0.024l0.268-0.59C87.845,46.991,87.933,47.222,87.812,47.528z M88.095,59.319
	c0.199,0.09,0.385,0.365,0.236,0.537c-0.063-0.011-0.115-0.025-0.156-0.045c-0.24-0.108-0.162-0.333-0.34-0.465
	C87.902,59.275,88,59.276,88.095,59.319z M88.607,69.515c-0.006-0.003-0.012-0.005-0.018-0.008
	c-0.053-0.023-0.107-0.049-0.164-0.072c-0.055-0.023-0.111-0.047-0.166-0.07c-0.207-0.095-0.389-0.199-0.441-0.352
	c0.359-1.03,1.285-0.607,1.768-1.332c0.143,0.344-0.352,0.916,0.053,1.163C89.21,68.854,88.919,69.21,88.607,69.515z M89.08,42.878
	c-0.043,0.009-0.08,0.014-0.113,0.014c-0.41,0-0.152-0.651-0.549-0.661c0.008-0.118,0.105-0.149,0.23-0.149
	c0.068,0,0.145,0.01,0.221,0.018c0.074,0.008,0.152,0.018,0.217,0.018c0.049,0,0.092-0.006,0.127-0.017
	C89.23,42.419,89.234,42.724,89.08,42.878z M89.431,64.93c0.061,0.026,0.127,0.051,0.205,0.071
	c-0.166,0.918-0.758,0.357-1.045,0.381c-0.271-0.366,0.061-0.491,0.254-0.881C89.062,64.637,89.169,64.811,89.431,64.93z
	 M91.88,36.763c-0.189-0.477-0.91-0.545-0.783-1.268c0.123-0.031,0.246-0.034,0.373-0.02c0.211,0.025,0.428,0.101,0.635,0.175
	c0.209,0.074,0.412,0.147,0.596,0.17c0.029,0.003,0.061,0.005,0.09,0.007C92.972,36.233,92.363,36.71,91.88,36.763z M90.871,25.144
	c0.053,0.006,0.117,0.021,0.178,0.036c0.063,0.017,0.125,0.034,0.178,0.04c0.1,0.012,0.172-0.01,0.166-0.129
	c0.275,0.307,0.012,1.055-0.434,1.002c-0.025-0.003-0.055-0.008-0.08-0.02c0.023-0.33-0.004-0.621-0.174-0.803
	C90.699,25.153,90.771,25.132,90.871,25.144z M90.351,22.62c-0.057-0.111-0.111-0.225-0.086-0.402
	c0.129-0.071,0.285-0.109,0.492-0.085c0.057,0.007,0.117,0.019,0.18,0.034C90.976,22.608,90.662,22.61,90.351,22.62z M92.017,32.229
	c0.066-0.006,0.121-0.008,0.172-0.002c0.52,0.062,0.203,0.77,0.363,1.107c-0.121-0.042-0.229-0.066-0.324-0.078
	c-0.248-0.029-0.424,0.025-0.602,0.082c-0.18,0.055-0.357,0.107-0.604,0.079c-0.025-0.003-0.053-0.007-0.08-0.012
	C90.935,32.56,91.841,32.845,92.017,32.229z M93.705,46.899c-0.027-0.004-0.055-0.008-0.086-0.015
	c0.238-0.188,0.158-0.233-0.012-0.253c-0.043-0.005-0.092-0.009-0.141-0.012c-0.051-0.004-0.104-0.008-0.152-0.014
	c-0.211-0.025-0.391-0.086-0.291-0.313c0.404,0.152,0.959,0.195,1.285,0.411C94.185,46.866,93.986,46.933,93.705,46.899z
	 M93.744,28.147c-0.047-0.012-0.088-0.026-0.123-0.042c-0.189-0.086-0.219-0.227-0.359-0.327c0.105-0.323,0.27-0.498,0.561-0.367
	c0.025,0.012,0.049,0.026,0.074,0.041C93.703,27.731,94.017,27.84,93.744,28.147z M94.753,43.448
	c-0.166,0.057-0.381-0.01-0.611-0.114c-0.082-0.038-0.168-0.081-0.254-0.125c0.023-0.252,0.443-0.282,0.707-0.163
	C94.765,43.124,94.871,43.264,94.753,43.448z M94.425,36.671c0.254,0.158,0.02,0.683-0.336,0.641
	c-0.043-0.005-0.088-0.02-0.133-0.043C93.873,36.772,94.281,36.887,94.425,36.671z M94.568,39.426
	c-0.217-0.025-0.414-0.222-0.27-0.551c0.209-0.021,0.275-0.036,0.338-0.028c0.063,0.007,0.123,0.037,0.32,0.105
	C95.023,39.307,94.785,39.452,94.568,39.426z M95.552,43.595c-0.025-0.003-0.049-0.008-0.076-0.014
	c0.002-0.314,0.098-0.514,0.381-0.48c0.023,0.003,0.049,0.007,0.074,0.014C95.931,43.428,95.835,43.628,95.552,43.595z
	 M96.193,39.083c0.32,0.037,0.656,0.284,0.543,0.602c-0.121,0.044-0.248,0.086-0.293,0.227c-0.057,0.006-0.109,0.004-0.156-0.002
	c-0.393-0.045-0.348-0.428-0.572-0.606C95.787,39.118,95.986,39.058,96.193,39.083z M96.621,21.212
	c-0.123-0.014-1.529-0.779-1.008-1.365c0.275,0.45,0.393,1.025,0.914,1.284C96.621,21.191,96.646,21.216,96.621,21.212z
	 M96.3,16.276c0.23,0.548-0.188,0.865-0.182,1.544c-0.004,0-0.006-0.001-0.01-0.001c-0.699-0.082-0.357-0.967-0.48-1.494
	c0.131-0.068,0.285-0.109,0.494-0.084C96.177,16.247,96.238,16.258,96.3,16.276z M94.322,3.799c0.471,0.056,0.355,1.167-0.162,1.263
	c-0.348-0.407,0.723-1.092-0.041-1.184c-0.027-0.002-0.055-0.006-0.086-0.006C94.146,3.811,94.242,3.789,94.322,3.799z
	 M93.537,5.623c0.369,0.044,0.857,0.601,0.965,1.046C94.41,6.702,94.316,6.711,94.224,6.7c-0.436-0.052-0.836-0.561-0.799-1.074
	C93.46,5.62,93.498,5.618,93.537,5.623z M94.117,11.06c0.035-0.004,0.064-0.004,0.09-0.002c0.119,0.014,0.148,0.096,0.178,0.178
	s0.059,0.164,0.178,0.178c0.047,0.005,0.105,0,0.184-0.019c0.232-0.005,0.324-0.187,0.322-0.485c-0.02-0.117-0.068-0.16-0.129-0.168
	c-0.066-0.008-0.145,0.023-0.229,0.055c-0.082,0.031-0.168,0.063-0.244,0.055c-0.02-0.003-0.039-0.01-0.057-0.018
	c-0.014-0.412,0.248-0.482,0.354-0.742c0.547,0.164,0.635,0.684,0.947,1.026c-0.43,0.539,0.025,0.851,0.111,1.317
	c-0.059,0.359-0.295,0.497-0.682,0.451c-0.053-0.006-0.109-0.016-0.17-0.029l0.076-0.645l-0.654-0.077
	c0.043,0.886,0.148,1.225-0.594,1.628C92.564,13.242,93.89,11.923,94.117,11.06z M92.703,23.028
	c0.109-0.514-0.738-0.291-0.564-0.851c0.24-0.109,0.416-0.141,0.566-0.123c0.414,0.05,0.582,0.483,1.242,0.599
	c-0.127,0.137-0.213,0.324-0.207,0.626c-0.016-0.002-0.033-0.004-0.047-0.006c-0.555-0.065-0.703,0.374-0.965,0.671
	c-0.105-0.151-0.482-0.099-0.348-0.433c-0.418,0.155-0.611,0.593-1.213,0.521c-0.057-0.007-0.117-0.019-0.182-0.034
	c0.199-0.387,0.006-0.345,0.211-0.627c0.059,0.011,0.117,0.02,0.172,0.025C91.968,23.469,92.367,23.287,92.703,23.028z
	 M91.269,6.938c0.008,0.5-0.512,0.348-0.734,0.564c-0.014,0.001-0.025,0.001-0.037,0c-0.252-0.03-0.076-0.391-0.311-0.433
	C90.451,6.908,90.841,6.897,91.269,6.938z M90.195,47.654c0.109-0.083,0.229-0.106,0.35-0.093c0.229,0.027,0.449,0.189,0.557,0.332
	c-0.129,0.135-0.217,0.324-0.209,0.627C90.632,48.253,90.08,48.212,90.195,47.654z M89.859,32.067
	c0.162,0.072,0.268,0.266,0.104,0.488l-0.537-0.244C89.484,32.042,89.699,31.994,89.859,32.067z M89.296,26.288
	c0.025,0.009,0.051,0.018,0.07,0.027c0.26,0.118,0.238,0.338,0.078,0.607l-0.361-0.164L89.296,26.288z M88.542,15.298
	c0.293,0.094,0.518,0.674,0.465,0.982c-0.465-0.188-0.316-0.671-0.814-0.845C88.312,15.296,88.431,15.263,88.542,15.298z
	 M88.484,32.516c0.059,0,0.117,0.011,0.17,0.029c-0.053-0.114-0.059-0.245,0.041-0.413c0.32,0.285,0.482,0.621,0.518,1.003
	c-0.107-0.154-0.301-0.278-0.439-0.421c-0.051,0.084-0.096,0.177-0.09,0.314c-0.049,0.004-0.096,0.008-0.139,0.008
	c-0.152,0-0.264-0.039-0.328-0.123c-0.051-0.063-0.078-0.146-0.063-0.273C88.24,32.556,88.363,32.516,88.484,32.516z M87.878,40.198
	c-0.086-0.01-0.168-0.051-0.258-0.094c-0.094-0.043-0.193-0.087-0.314-0.102c-0.025-0.002-0.049-0.004-0.074-0.004
	c-0.166-0.188,0.016-0.638-0.318-0.69c0.078-0.067,0.184-0.09,0.299-0.076c0.369,0.044,0.844,0.456,0.939,0.874
	C88.05,40.188,87.962,40.209,87.878,40.198z M87.113,27.575c0.143-0.398,0.4-0.504,0.75-0.371
	C87.753,27.688,87.466,27.717,87.113,27.575z M87.394,13.788c0.475,0.123,0.313,0.74,0.141,1.061
	c-0.016-0.002-0.029-0.002-0.041-0.002c-0.295-0.035-0.354-0.252-0.586-0.334C86.833,13.98,87.179,13.965,87.394,13.788z
	 M86.89,33.61c-0.266,0.283-0.533,0.281-0.82,0.152c-0.139-0.063-0.281-0.154-0.428-0.259c0.109-0.366,0.52-0.387,0.85-0.237
	C86.662,33.345,86.812,33.467,86.89,33.61z M86.037,12.846c0.029-0.001,0.055,0.001,0.08,0.005c0.414,0.048,0.291,0.51,0.502,0.717
	c0.006,0.119-0.066,0.141-0.166,0.128c-0.053-0.007-0.117-0.022-0.178-0.039c-0.063-0.017-0.123-0.032-0.178-0.038
	c-0.1-0.013-0.172,0.009-0.166,0.127C85.718,13.408,86.007,13.37,86.037,12.846z M86.189,14.95
	c-0.604-0.119-0.641-0.676-0.801-1.137C85.66,14.188,86.314,14.269,86.189,14.95z M85.253,34.153
	c0.447,0.055,0.414,0.597-0.023,0.545c-0.049-0.006-0.105-0.021-0.168-0.047C85.039,34.376,85.193,34.321,85.253,34.153z
	 M84.99,36.729c0.012,0.003,0.023,0.009,0.033,0.013c0.098,0.044,0.146,0.107,0.195,0.169s0.098,0.122,0.197,0.167
	c0.016,0.008,0.035,0.016,0.055,0.021c-0.643,0.736-1.451,0.611-2.295,0.229c-0.238-0.108-0.479-0.235-0.721-0.372
	c0.141-0.545,0.48-0.607,0.809-0.705c0.043,0.014,0.082,0.031,0.121,0.047c0.41,0.187,0.416,0.512,0.646,0.76
	C84.46,37.216,84.65,36.787,84.99,36.729z M84.117,26.841c0.176,0.063,0.07,0.335,0.07,0.531c-0.064,0.001-0.127-0.003-0.182-0.01
	c-0.207-0.023-0.352-0.098-0.461-0.196C83.533,26.806,84.05,27.103,84.117,26.841z M83.253,17.214c0.037-0.004,0.072-0.004,0.104,0
	c0.293,0.035,0.303,0.379,0.201,0.617c-0.033,0.08-0.08,0.146-0.133,0.188c-0.033,0.002-0.063,0.002-0.092-0.001
	c-0.002,0-0.006,0-0.01,0h-0.002C82.935,17.972,83.042,17.374,83.253,17.214z M82.777,32.677c0.164,0.074,0.33,0.254,0.482,0.358
	c-0.068,0.458-0.391,0.296-0.557,0.513c-0.299-0.184-0.123-0.528-0.309-0.751C82.513,32.626,82.644,32.616,82.777,32.677z
	 M82.142,7.426c0.033,0.002,0.064,0.004,0.092,0.007c0.469,0.056,0.371,0.393,0.229,0.685c-0.033,0.001-0.063-0.001-0.09-0.005
	C82.048,8.075,82.08,7.763,82.142,7.426z M80.15,49.036c-0.307-0.199-0.244-0.789,0.133-0.939
	C80.576,48.425,80.685,48.925,80.15,49.036z M79.761,19.802c0.354,0.16,0.637,0.583,0.318,0.93c-0.16,0.027-0.34,0.014-0.549-0.082
	c-0.059-0.027-0.117-0.058-0.182-0.098c0.303-0.352-0.025-0.49-0.172-0.688C79.324,19.706,79.556,19.709,79.761,19.802z
	 M78.585,0.352l0.658,0.078c-0.014,0.423-0.229,0.6-0.6,0.58C78.55,0.849,78.509,0.644,78.585,0.352z M78.57,6.721
	c0.039-0.007,0.074-0.007,0.107-0.002c0.244,0.028,0.336,0.294,0.307,0.542c-0.029,0.25-0.182,0.484-0.426,0.455
	c-0.031-0.004-0.066-0.012-0.104-0.026C78.197,7.394,78.462,7.026,78.57,6.721z M78.792,19.993c-0.01,0.214-0.434,0.57-0.17,0.689
	c0.004,0.002,0.01,0.004,0.018,0.008c-0.055,0.03-0.117,0.025-0.182-0.003c-0.25-0.113-0.51-0.601-0.203-0.938L78.792,19.993z
	 M77.394,14.888c0.35,0.041,0.646,0.25,0.76,0.611c0.002,0.01,0.012,0.018,0.014,0.027c0.035,0.128,0.049,0.273,0.031,0.438
	c-0.09,0.926-1.402,0.889-1.922,1.599c-0.006-0.117,0.006-0.214,0.029-0.296c0.047-0.176,0.143-0.291,0.232-0.41
	c0.039-0.052,0.076-0.104,0.107-0.162c0-0.029-0.012-0.04-0.016-0.063c-0.018-0.103-0.063-0.156-0.129-0.164
	c-0.055-0.007-0.117,0.005-0.182,0.014c-0.066,0.011-0.139,0.021-0.205,0.013h-0.002c-0.082-0.01-0.162-0.047-0.227-0.148
	C75.945,15.291,76.75,14.812,77.394,14.888z M75.96,5.653c-0.041,0.146,0,0.23,0.1,0.272C76,6.257,75.802,6.421,75.439,6.378
	c-0.033-0.004-0.063-0.01-0.096-0.016c0.09-0.303-0.209-0.308-0.055-0.66c0.129-0.068,0.285-0.109,0.492-0.085
	C75.837,5.624,75.896,5.636,75.96,5.653z M74.691,5.11c0.129-0.07,0.285-0.109,0.492-0.085c0.055,0.007,0.117,0.019,0.18,0.034
	c-0.051,0.313-0.188,0.522-0.521,0.482c-0.059-0.006-0.125-0.022-0.197-0.045L74.691,5.11z M74.837,46.229
	c0.055,0.025,0.096,0.077,0.111,0.164c-0.111,0.396-0.467,0.164-0.631,0.425C74.099,46.509,74.599,46.122,74.837,46.229z
	 M73.431,56.802c0.723,0.465,0.018,0.631-0.375,0.826C72.771,57.284,73.39,57.155,73.431,56.802z M72.835,66.776
	c0.5,0.344,0.861,0.738,1.234,1.128c-0.15,0.474-0.117,0.489-0.188,1.054c0.008,0.004,0.016,0.008,0.025,0.012
	c0.313,0.143,0.457-0.15,0.604-0.438c0.303,0.154,0.324,0.409,0.441,0.628c-0.25,0.328-0.574,0.313-0.908,0.162
	c-0.25-0.114-0.508-0.305-0.748-0.489c-0.238-0.183-0.459-0.356-0.635-0.438c-0.037-0.017-0.074-0.03-0.107-0.038
	C72.796,67.753,72.353,67.176,72.835,66.776z M72.474,75.431c0.299,0.283,0.93,0.807,0.326,1.064
	C72.367,76.253,72.458,75.827,72.474,75.431z M71.441,96.164c-0.424-0.371-0.111-1.01-0.191-1.506c0.342,0.27,0.854,0.477,1.1,0.781
	C72.091,95.798,71.812,96.105,71.441,96.164z M71.951,66.802c-0.148-0.007-0.293-0.025-0.396-0.074
	c-0.176-0.078-0.244-0.237-0.047-0.554c0.066,0.025,0.131,0.052,0.189,0.078C71.96,66.371,72.13,66.523,71.951,66.802z
	 M70.658,58.105c0.266,0.395,0.184,0.921,0.59,1.265c-0.107,0.019-0.205,0.004-0.291-0.035
	C70.585,59.167,70.414,58.543,70.658,58.105z M72.001,64.122c0.645,0.775-0.631,1.587-1.477,1.205
	c-0.064-0.03-0.125-0.064-0.184-0.107C70.957,65.011,71.412,64.394,72.001,64.122z M68.882,68.116
	c0.926,0.166,1.721-0.006,2.195-0.998c0.088,0.023,0.162,0.051,0.229,0.08c0.295,0.135,0.404,0.338,0.51,0.539
	c-0.574,1.164-1.674,0.975-2.463,1.587C68.982,69.001,68.824,68.597,68.882,68.116z M67.519,93.769
	c0.061,0.027,0.111,0.072,0.148,0.139c-0.117,0.43-0.543,0.102-0.615,0.641c-0.084,0.227,0.105,0.363,0.357,0.477
	c0.072,0.033,0.152,0.064,0.23,0.098c0.08,0.029,0.158,0.063,0.23,0.096c0.051,0.023,0.1,0.047,0.143,0.07
	c-0.123,0.322-0.256,0.623-0.479,0.701c-0.891-0.408-0.826-1.145-0.963-1.813C66.783,93.902,67.248,93.646,67.519,93.769z
	 M65.068,110.232c0.256-1.021,1.135-1.34,1.756-1.143c0.334,0.105,0.586,0.367,0.629,0.742c0,0.012,0.008,0.02,0.008,0.031
	c0.012,0.131-0.004,0.277-0.051,0.436c-0.264,0.891-1.547,0.605-2.191,1.205c0.018-0.117,0.047-0.209,0.084-0.285
	c0.08-0.164,0.195-0.258,0.307-0.359c0.049-0.043,0.096-0.086,0.137-0.139c0.006-0.029-0.004-0.041-0.002-0.064
	c0-0.105-0.033-0.166-0.098-0.186c-0.051-0.018-0.113-0.018-0.182-0.021c-0.066-0.002-0.137-0.006-0.203-0.025v-0.002
	c-0.08-0.025-0.152-0.076-0.193-0.188V110.232z M11.466,73.593c0.016,0.004,0.026,0.008,0.037,0.013
	c0.23,0.104-0.047,0.395,0.164,0.505c-0.301,0.074-0.675-0.033-1.07-0.202C10.741,73.431,11.19,73.733,11.466,73.593z
	 M11.034,82.535c-0.021-0.008-0.041-0.016-0.061-0.021c-0.149-0.047-0.272-0.045-0.395-0.043c-0.123,0.002-0.246,0.004-0.395-0.045
	c-0.063-0.02-0.128-0.047-0.199-0.088c0.119-0.234,0.642-0.438,0.928-0.346C11.085,82.046,11.171,82.208,11.034,82.535z
	 M9.854,80.12c0.045,0.018,0.092,0.035,0.137,0.049c0.123,0.039,0.232,0.051,0.281-0.051c0.377,0.293,0.203,0.842-0.274,0.863
	C9.538,80.794,9.617,80.405,9.854,80.12z M7.708,73.239c0.4,0.182,0.627,0.789,0.436,1.266c-0.036-0.004-0.07-0.014-0.106-0.031
	c-0.338-0.152-0.636-0.831-0.603-1.289C7.53,73.182,7.623,73.202,7.708,73.239z M7.272,74.821c0.208,0.493-1.021,0.821-0.318,1.139
	c0.023,0.012,0.049,0.023,0.079,0.033c-0.126,0.023-0.224,0.016-0.298-0.018C6.305,75.779,6.751,74.755,7.272,74.821z M8.048,88.496
	c0.025,0.531,0.389,0.289,0.473,0.695c-0.379,0.867-1.107,1.072-1.897,1.164c0.011-0.502,0.392-0.314,0.573-0.498
	c0.125-0.408-0.209-0.586-0.6-0.734c0.613-0.457,1.003-1.113,1.346-1.609c0.231,0.227,0.81,0.283,0.767,0.648
	C8.616,88.517,8.255,88.359,8.048,88.496z M9.787,94.13c-0.387-0.123-0.653-0.424-0.22-0.799c0.318,0.104,0.501,0.412,0.73,0.484
	c0.115,0.037,0.243,0.014,0.404-0.123C10.827,94.177,10.229,94.271,9.787,94.13z M11.515,100.75
	c-0.059-0.012-0.115-0.023-0.168-0.041c-0.369-0.117-0.528-0.342-0.432-0.693c0.155-0.084,0.424-0.143,0.643-0.072
	c0.113,0.037,0.215,0.109,0.279,0.232C11.83,100.554,11.558,100.435,11.515,100.75z M32.06,88.447
	c-0.177,0.299-0.607,0.607-0.893,0.516c-0.063-0.02-0.117-0.057-0.163-0.119c0.065-0.439,0.527-0.164,0.536-0.707
	c0.057-0.236-0.147-0.35-0.41-0.434c-0.077-0.023-0.16-0.045-0.242-0.068c-0.082-0.021-0.163-0.043-0.238-0.068
	c-0.055-0.018-0.105-0.035-0.151-0.055c0.085-0.332,0.183-0.646,0.394-0.752C31.825,87.062,31.847,87.8,32.06,88.447z
	 M31.187,76.082c0.031,0.014,0.061,0.032,0.091,0.058c0.157,0.359-0.206,0.629-0.402,0.889c-0.038-0.006-0.073-0.018-0.104-0.031
	c-0.224-0.102-0.231-0.382-0.128-0.609C30.747,76.158,30.964,75.981,31.187,76.082z M30.089,66.118
	c0.113-0.041,0.242-0.027,0.352,0.022c0.112,0.052,0.207,0.139,0.25,0.251c-0.106,0.064-0.213,0.135-0.28,0.299
	c-0.046-0.017-0.089-0.031-0.129-0.05c-0.138-0.063-0.224-0.145-0.249-0.249C30.012,66.315,30.022,66.228,30.089,66.118z
	 M29.489,64.929c0.057-0.066,0.121-0.116,0.184-0.139c0.031,0.008,0.061,0.016,0.086,0.027c0.004,0.002,0.007,0.002,0.011,0.004
	h0.001c0.355,0.162,0.07,0.698-0.178,0.787c-0.037-0.009-0.07-0.02-0.099-0.031C29.226,65.454,29.32,65.124,29.489,64.929z
	 M29.698,84.544c0.343,0.109,0.701,0.322,1.102,0.582c-0.584,0.549-1.347,1.074-1.969,0.877c-0.313-0.1-0.59-0.383-0.789-0.939
	C28.629,84.464,29.142,84.367,29.698,84.544z M29.931,116.263c0.147-0.01,0.293-0.008,0.402,0.027
	c0.183,0.059,0.27,0.209,0.111,0.545c-0.068-0.016-0.137-0.035-0.197-0.055C29.971,116.693,29.784,116.562,29.931,116.263z
	 M28.526,97.525c-0.051,0.16-0.198,0.291-0.389,0.23c-0.029-0.008-0.061-0.023-0.09-0.043l0.196-0.615
	c0.034,0.002,0.068,0.01,0.097,0.018C28.532,97.175,28.577,97.367,28.526,97.525z M28.397,107.757
	c-0.33-0.246-1.018-0.691-0.449-1.02C28.407,106.927,28.367,107.361,28.397,107.757z M27.589,74.517
	c0.031,0.01,0.059,0.02,0.085,0.031c0.297,0.135,0.173,0.423,0.011,0.725c-0.031-0.012-0.061-0.023-0.086-0.035
	C27.169,75.043,27.364,74.753,27.589,74.517z M27.358,88.519c-0.37-0.229-0.903-0.373-1.184-0.648
	c0.213-0.387,0.455-0.723,0.817-0.826C27.456,87.365,27.22,88.037,27.358,88.519z M26.835,75.028
	c0.064,0.037,0.131,0.078,0.19,0.105c0.044,0.02,0.086,0.033,0.122,0.037c-0.115,0.299-0.238,0.578-0.441,0.654
	c-0.043-0.01-0.079-0.021-0.109-0.035c-0.373-0.169,0.13-0.656-0.227-0.828c0.055-0.104,0.156-0.092,0.271-0.039
	C26.703,74.95,26.769,74.989,26.835,75.028z M26.108,66.876c0.541,0.296,0.406,0.838,0.419,1.326
	C26.383,67.761,25.783,67.486,26.108,66.876z M17.986,99.365c-0.06-0.02-0.111-0.063-0.147-0.139c0.055-0.291,0.238-0.34,0.492-0.26
	c0.04,0.014,0.083,0.031,0.128,0.049C18.376,99.261,18.155,99.417,17.986,99.365z M17.374,68.18
	c-0.033-0.007-0.063-0.015-0.085-0.024c-0.108-0.051-0.112-0.137-0.116-0.225c-0.004-0.086-0.007-0.174-0.115-0.223
	c-0.043-0.02-0.101-0.031-0.18-0.038c-0.225-0.066-0.367,0.079-0.455,0.364c-0.018,0.118,0.016,0.174,0.072,0.199
	c0.061,0.027,0.145,0.021,0.233,0.018c0.088-0.005,0.179-0.01,0.249,0.022c0.018,0.009,0.034,0.021,0.049,0.034
	c-0.111,0.396-0.381,0.384-0.563,0.598c-0.471-0.32-0.396-0.843-0.59-1.264c0.572-0.384,0.233-0.817,0.293-1.289
	c0.164-0.324,0.432-0.385,0.785-0.224c0.051,0.022,0.1,0.048,0.153,0.079L16.837,66.8l0.602,0.272
	c0.229-0.858,0.229-1.212,1.061-1.371C19.517,66.571,17.852,67.425,17.374,68.18z M19.085,75.198
	c-0.416-0.261-0.076-0.8,0.187-1.053c0.013,0.006,0.026,0.01,0.038,0.016c0.27,0.121,0.26,0.346,0.458,0.494
	C19.677,75.186,19.343,75.095,19.085,75.198z M22.255,94.513c-0.133,0.043-0.293,0.035-0.443-0.014
	c-0.338-0.107-0.62-0.418-0.408-0.803c0.102,0.023,0.199,0.051,0.291,0.08C22.106,93.908,22.395,94.103,22.255,94.513z
	 M23.886,116.849c-0.111,0.207-0.354,0.375-0.582,0.301c-0.016-0.004-0.029-0.01-0.044-0.018l0.274-0.863
	c0.059,0.006,0.112,0.018,0.157,0.031C23.979,116.392,23.997,116.64,23.886,116.849z M24.485,113.251
	c-0.334-0.107-0.381-0.35-0.621-0.5c0.068-0.146,0.187-0.176,0.31-0.137c0.245,0.078,0.51,0.422,0.451,0.67
	C24.573,113.275,24.527,113.263,24.485,113.251z M25.478,67.991c0.049,0.021,0.104,0.057,0.158,0.092
	c0.054,0.034,0.107,0.068,0.156,0.09c0.092,0.043,0.168,0.044,0.197-0.07c0.102,0.385-0.188,0.334-0.373,0.824
	c-0.028-0.008-0.053-0.018-0.076-0.027c-0.379-0.173-0.121-0.576-0.26-0.836C25.312,67.948,25.386,67.949,25.478,67.991z
	 M25.769,106.208c-0.049,0.129-0.189,0.225-0.383,0.162c-0.031-0.01-0.066-0.023-0.099-0.043l0.169-0.531l0.01,0.004
	c-0.025-0.303-0.012-0.639,0.264-0.799c0.528,0.182,0.498,0.648,0.813,0.938C26.341,106.134,26.097,106.248,25.769,106.208z
	 M26.745,124.091c-0.048-0.01-0.09-0.018-0.129-0.029c-0.34-0.107-0.275-0.422-0.18-0.75l0.379,0.119
	C26.876,123.611,26.876,123.816,26.745,124.091z M29.055,116.394c-0.538-0.283-0.941-0.633-1.358-0.977
	c0.094-0.488,0.059-0.498,0.063-1.068c-0.008-0.004-0.018-0.006-0.027-0.008c-0.327-0.105-0.436,0.203-0.547,0.506
	c-0.318-0.117-0.37-0.367-0.514-0.572c0.211-0.354,0.534-0.377,0.883-0.268c0.264,0.084,0.541,0.244,0.801,0.398
	s0.498,0.301,0.684,0.359c0.039,0.014,0.076,0.021,0.109,0.025C28.979,115.419,29.485,115.941,29.055,116.394z M29.634,126.369
	c-0.773-0.377-0.092-0.623,0.275-0.863C30.231,125.812,29.632,126.013,29.634,126.369z M30.193,118.931
	c-0.731-0.693,0.441-1.65,1.325-1.369c0.068,0.021,0.133,0.049,0.195,0.084C31.128,117.927,30.747,118.593,30.193,118.931z
	 M32.233,124.75c-0.311-0.361-0.29-0.893-0.734-1.188c0.104-0.031,0.203-0.027,0.295,0.002
	C32.182,123.687,32.425,124.287,32.233,124.75z M30.759,115.847c-0.089-0.012-0.166-0.031-0.234-0.053
	c-0.311-0.098-0.441-0.287-0.571-0.475c0.435-1.225,1.548-1.164,2.261-1.865c0.406,0.277,0.609,0.66,0.609,1.145
	C31.884,114.542,31.114,114.806,30.759,115.847z M52.012,151.431c0.334,0,0.612,0.051,0.548,0.424
	c-0.111,0.004-0.229,0.008-0.34,0.008c-0.334,0-0.613-0.051-0.547-0.424C51.785,151.435,51.902,151.431,52.012,151.431z
	 M50.196,146.56c1.221,0.133,0.557,1.236,1.182,1.813c-0.136-0.094-0.305-0.154-0.537-0.154c-0.063,0-0.13,0.006-0.202,0.014
	C51.218,147.365,49.915,147.554,50.196,146.56z M47.98,142.24c0.876,0.529-0.347,1.039-0.443,1.533
	c-0.274-0.02-0.493-0.092-0.589-0.279C47.208,142.996,47.891,142.898,47.98,142.24z M45.835,80.187l0.402,0.184l-0.23,0.507
	c-0.029-0.01-0.055-0.02-0.078-0.03C45.638,80.715,45.661,80.477,45.835,80.187z M43.888,64.548
	c-0.023-0.018-0.045-0.027-0.064-0.037c-0.092-0.041-0.162-0.031-0.232-0.018c-0.072,0.012-0.142,0.023-0.232-0.018v-0.001
	c-0.039-0.018-0.08-0.043-0.127-0.083c0.08-0.219,0.261-0.182,0.334-0.417c0.078,0.058,0.162,0.112,0.235,0.173
	C43.921,64.247,43.999,64.362,43.888,64.548z M43.405,59.84c0.074,0.018,0.137,0.038,0.191,0.063
	c0.308,0.139,0.314,0.387,0.197,0.68c-0.089,0.249-0.243,0.322-0.466,0.221c-0.018-0.008-0.035-0.018-0.056-0.027
	c0.051,0.244,0.279,0.423,0.094,0.752C42.717,61.208,43.304,60.435,43.405,59.84z M43.271,72.564
	c0.061,0.028,0.127,0.066,0.191,0.105c0.067,0.04,0.133,0.079,0.193,0.106c0.044,0.02,0.085,0.033,0.121,0.039
	c-0.078,0.172-0.275,0.164-0.451,0.084c-0.15-0.068-0.287-0.188-0.325-0.296C43.055,72.499,43.155,72.512,43.271,72.564z
	 M38.197,65.874c0.047,0.014,0.087,0.027,0.125,0.045c0.366,0.166,0.282,0.494,0.211,0.818
	C38.209,66.526,38.095,66.239,38.197,65.874z M38.519,88.937c0.07,0.021,0.137,0.082,0.18,0.199
	c-0.078,0.244-0.394,0.047-0.41,0.412C37.884,89.355,38.245,88.849,38.519,88.937z M35.836,60.819
	c0.283,0.521,0.587,1.035,0.898,1.546c-0.395,0.696-0.102,0.948-0.642,1.416c-0.04-0.675-0.282-1.278-0.967-1.718
	C35.521,61.579,35.703,61.538,35.836,60.819z M36.683,84.55c-0.084-0.021-0.166-0.045-0.243-0.068
	c-0.216-0.068-0.398-0.156-0.476-0.297c0.043-0.512,0.448-0.34,0.615-0.619C36.702,83.851,36.913,84.089,36.683,84.55z
	 M34.239,85.677c-0.049-0.01-0.093-0.021-0.134-0.035c-0.253-0.08-0.376-0.227-0.253-0.496c0.129-0.055,0.291-0.045,0.479,0.016
	c0.021,0.006,0.043,0.014,0.065,0.021L34.239,85.677z M34.47,69.601c-0.319-0.146-0.539-0.435-0.537-0.813
	c0.001-0.011-0.006-0.021-0.006-0.031c0.006-0.131,0.038-0.275,0.104-0.426c0.365-0.854,1.606-0.42,2.316-0.94
	c-0.031,0.113-0.07,0.202-0.117,0.274c-0.098,0.152-0.224,0.232-0.347,0.32c-0.053,0.037-0.104,0.074-0.151,0.121
	c-0.009,0.027-0.001,0.041-0.005,0.064c-0.013,0.104,0.013,0.168,0.075,0.196c0.049,0.022,0.11,0.031,0.177,0.042
	c0.067,0.01,0.137,0.021,0.198,0.049c0,0.002,0,0.002,0,0.002c0.078,0.033,0.143,0.094,0.172,0.209v0.001
	C35.974,69.655,35.063,69.868,34.47,69.601z M36.056,93.849c-0.204-0.066-0.369-0.303-0.198-0.586l0.631,0.201
	C36.477,93.818,36.248,93.91,36.056,93.849z M36.778,105.658c-0.611-0.23-0.338-0.695,0.109-0.779
	C37.161,104.982,36.774,105.419,36.778,105.658z M38.015,90.414l0.195-0.617c0.037,0.02,0.072,0.033,0.107,0.043
	c0.124,0.039,0.224,0.029,0.322,0.018c0.101-0.01,0.199-0.021,0.326,0.02c0.051,0.016,0.107,0.041,0.168,0.076
	C38.866,90.306,38.486,90.451,38.015,90.414z M39.206,111.781c0.256-0.313,0.563-0.367,0.842-0.279
	c0.723,0.23,1.245,1.43,0.13,1.611l0.296-0.928c-0.42,0.053-0.531,0.133-0.494,0.574c-0.046-0.01-0.088-0.02-0.125-0.031
	C39.329,112.56,39.448,112.085,39.206,111.781z M40.571,113.824c0.406,0.207,0.162,1.102-0.1,1.285
	c-0.315-0.148-0.531-0.346-0.76-0.535C39.726,113.832,40.323,114.144,40.571,113.824z M40.835,136.603
	c-0.188-0.061-0.399-0.248-0.438-0.313c0.102-0.168,0.205-0.205,0.307-0.174c0.155,0.051,0.299,0.264,0.398,0.398
	C41.05,136.626,40.946,136.638,40.835,136.603z M40.484,70.044c-0.028-0.013-0.056-0.025-0.085-0.042
	c0.15-0.38,0.492-0.265,0.816-0.198C41.055,70.101,40.817,70.195,40.484,70.044z M41.466,135.994
	c-0.018-0.234,0.162-0.273,0.133-0.52l0.189,0.012c-0.347-0.223-0.706-0.91-0.037-0.91c0.009,0,0.018,0,0.025,0
	c-0.084,0.451,0.102,0.646,0.148,0.973l-0.033-0.01c0.103,0.084,0.126,0.248,0.104,0.455H41.466z M43.009,88.597
	c-0.385-0.123-0.766-0.398-1.03-0.596c0.228-0.359,0.889,0.094,0.991-0.498c0.022,0.004,0.042,0.01,0.062,0.016
	c0.569,0.182,0.466,0.701,0.714,1.045C43.522,88.689,43.265,88.677,43.009,88.597z M44.06,124.292
	c-0.055-0.012-0.105-0.023-0.15-0.037c-0.283-0.09-0.418-0.25-0.285-0.539c0.013,0.008,0.026,0.014,0.038,0.018
	c0.081,0.025,0.115-0.037,0.143-0.107c0.03,0.006,0.058,0.016,0.083,0.023C44.19,123.746,44.196,123.986,44.06,124.292z
	 M44.297,70.061c-0.21-0.097-0.054-0.327-0.267-0.423c-0.029-0.014-0.064-0.023-0.109-0.031c0.381-0.173,0.616-0.719,1.16-0.473
	c0.02,0.009,0.04,0.02,0.061,0.029C44.817,69.354,44.563,69.726,44.297,70.061z M46.233,137.806
	c-0.068,0.016-0.127,0.021-0.178,0.021c-0.434,0-0.361-0.492-0.352-0.928C46.007,137.08,46.372,137.195,46.233,137.806z
	 M46.651,133.041c0.079,0.197-0.161,0.697,0.129,0.697c0.004,0,0.012,0,0.019,0c-0.036,0.051-0.097,0.072-0.166,0.072
	c-0.274,0-0.712-0.336-0.572-0.77H46.651z M60.1,109.679c0.126-0.314,0.351-0.438,0.698-0.326c0.029,0.01,0.059,0.02,0.09,0.033
	C60.783,109.779,60.429,109.707,60.1,109.679z M60.06,92.714c0.107-0.232,0.396,0,0.455-0.361c0.38,0.238-0.037,0.699-0.3,0.58
	C60.147,92.904,60.09,92.835,60.06,92.714z M61.511,98.496c-0.088-0.297-0.271-0.559,0.014-0.99c0.08,0.031,0.16,0.064,0.232,0.098
	c0.207,0.092,0.379,0.201,0.438,0.348C62.092,98.455,61.71,98.238,61.511,98.496z M64.404,97.246
	c-0.133,0.039-0.293,0.01-0.473-0.07c-0.021-0.01-0.041-0.02-0.063-0.029l0.215-0.475c0.047,0.016,0.088,0.033,0.129,0.051
	C64.455,96.833,64.558,96.992,64.404,97.246z M63.904,76.531c0.582,0.302,0.256,0.731-0.197,0.763
	C63.447,77.157,63.882,76.77,63.904,76.531z M63.558,113.226c-0.047-0.008-0.09-0.018-0.129-0.029
	c-0.382-0.121-0.338-0.457-0.305-0.787C63.47,112.58,63.617,112.853,63.558,113.226z M63.238,88.345
	c0.195,0.088,0.33,0.344,0.129,0.604l-0.604-0.273C62.815,88.326,63.054,88.261,63.238,88.345z M61.347,66.713
	c0.295,0.185,0.486,0.405,0.691,0.62c-0.102,0.735-0.658,0.355-0.941,0.645C60.717,67.724,61.064,66.864,61.347,66.713z
	 M61.403,68.729l-0.402,0.887c0.424-0.004,0.544-0.068,0.557-0.512c0.046,0.015,0.086,0.029,0.122,0.046
	c0.502,0.228,0.327,0.687,0.532,1.016c-0.29,0.28-0.602,0.298-0.867,0.179C60.652,70.03,60.274,68.778,61.403,68.729z M60.89,91.527
	l-0.268,0.588c-0.034-0.021-0.067-0.039-0.101-0.055c-0.118-0.053-0.22-0.055-0.319-0.055c-0.1-0.002-0.2-0.002-0.32-0.057
	c-0.049-0.023-0.102-0.053-0.157-0.096C60.03,91.533,60.425,91.435,60.89,91.527z M58.937,118.148
	c0.682,0.242,0.189,1.078,0.158,1.682c-0.076-0.008-0.14-0.021-0.197-0.039c-0.322-0.104-0.357-0.35-0.275-0.654
	c0.059-0.256,0.203-0.348,0.436-0.273c0.019,0.006,0.037,0.016,0.059,0.021C59.038,118.648,58.789,118.498,58.937,118.148z
	 M47.482,110.017c-0.073-0.008-0.138-0.023-0.194-0.041c-0.49-0.156-0.334-0.637-0.451-0.98c0.146-0.01,0.262,0.012,0.361,0.043
	c0.052,0.018,0.098,0.037,0.142,0.055s0.083,0.035,0.121,0.047c0.116,0.037,0.214,0.033,0.336-0.111
	C48.07,109.302,47.586,109.794,47.482,110.017z M47.927,70.53c-0.09-0.041-0.178-0.112-0.254-0.219
	c0.133-0.563,0.445-0.666,0.872-0.473c0.057,0.025,0.115,0.057,0.175,0.092C48.747,70.362,48.303,70.7,47.927,70.53z M48.659,86.949
	c-0.088-0.039-0.195-0.078-0.328-0.119c0.379-1.41,1.391-1.191,2.236-1.404c-0.338,1.01-0.578,1.982-0.574,2.869
	c-0.301-0.104-0.434-0.148-0.561-0.207c-0.127-0.057-0.249-0.127-0.525-0.285C49.015,87.417,49.153,87.173,48.659,86.949z
	 M48.98,95.261c0.218-1.043,0.341-2.037,0.234-2.916c0.31,0.066,0.447,0.096,0.581,0.139c0.133,0.043,0.262,0.098,0.555,0.221
	c-0.062,0.396-0.172,0.654,0.347,0.82c0.091,0.029,0.203,0.055,0.339,0.08C50.826,95.048,49.796,94.951,48.98,95.261z
	 M52.817,110.503c-0.059-0.02-0.121-0.043-0.184-0.072c-0.078-0.426,0.323-0.813,0.716-0.688c0.095,0.031,0.19,0.09,0.278,0.188
	C53.563,110.507,53.265,110.644,52.817,110.503z M53.819,71.882c-0.041-0.022-0.078-0.045-0.115-0.061
	c-0.11-0.051-0.208-0.059-0.346,0.07c-0.239-0.304,0.299-0.735,0.428-0.945c0.072,0.018,0.135,0.039,0.188,0.063
	c0.47,0.213,0.258,0.672,0.334,1.028c-0.146-0.008-0.26-0.044-0.354-0.087C53.904,71.929,53.862,71.904,53.819,71.882z
	 M54.296,99.908l-0.422-0.133l0.17-0.531c0.029,0.006,0.057,0.012,0.081,0.021C54.429,99.361,54.434,99.601,54.296,99.908z
	 M55.627,93.835c-0.022-0.008-0.04-0.016-0.06-0.023c-0.544-0.248-0.381-0.752-0.586-1.121c0.236-0.1,0.49-0.057,0.734,0.053
	c0.367,0.168,0.715,0.486,0.954,0.713C56.401,93.787,55.798,93.259,55.627,93.835z M56.341,110.796
	c-0.021-0.006-0.043-0.014-0.064-0.021c0.3-0.229,0.508-0.627,0.734-0.99c0.22,0.07,0.092,0.318,0.313,0.389
	c0.031,0.01,0.067,0.016,0.112,0.018C57.079,110.408,56.909,110.976,56.341,110.796z M57.735,107.177
	c-0.063-0.02-0.133-0.051-0.202-0.082c-0.071-0.031-0.142-0.063-0.205-0.084c-0.045-0.014-0.087-0.021-0.125-0.023
	c0.059-0.18,0.255-0.195,0.439-0.137c0.157,0.051,0.308,0.154,0.356,0.256C57.958,107.218,57.857,107.216,57.735,107.177z
	 M58.196,115.597c-0.131-0.084-0.223-0.189-0.133-0.387c0.025,0.016,0.047,0.023,0.068,0.029c0.096,0.031,0.164,0.012,0.232-0.01
	c0.07-0.02,0.138-0.039,0.232-0.008c0,0,0,0,0.002,0c0.039,0.012,0.084,0.033,0.135,0.066c-0.055,0.227-0.237,0.213-0.283,0.455
	C58.366,115.695,58.276,115.65,58.196,115.597z" class="color c1"/>
</svg>