<svg version="1.1" id="图层_1" x="0px" y="0px" width="78.976px" height="155.523px" viewBox="0 0 78.976 155.523" enable-background="new 0 0 78.976 155.523" xml:space="preserve" xmlns="http://www.w3.org/2000/svg" xmlns:xlink="http://www.w3.org/1999/xlink" xmlns:xml="http://www.w3.org/XML/1998/namespace">
  <path fill="#0099ED" d="M22.097,35.494c-1.792,1.764-3.099,3.715-4.062,5.717c-0.109,0.253-0.25,0.509-0.342,0.756
	c-0.041,0.096-0.07,0.183-0.107,0.272c-1.231,3.296-1.658,6.532-1.762,9.198c4.452-2.996,10.621-5.529,19.295-6.504
	c6.064-0.688,17.697-0.315,22.629-0.114c-0.027-2.747-0.248-5.87-0.898-8.971c-0.552-2.593-1.688-5.209-2.53-6.925
	C49.543,28.702,29.504,28.241,22.097,35.494z M30.729,39.119c-1.318,0-2.392-1.074-2.392-2.388c0-1.321,1.073-2.392,2.392-2.392
	c1.32,0,2.391,1.074,2.391,2.392C33.119,38.044,32.049,39.119,30.729,39.119z M40.023,37.461c-1.322,0-2.389-1.073-2.389-2.391
	s1.07-2.392,2.389-2.392c1.323,0,2.393,1.074,2.393,2.392C42.416,36.385,41.344,37.461,40.023,37.461z M49.16,37.292
	c-1.32,0-2.389-1.074-2.389-2.389c0-1.317,1.071-2.391,2.389-2.391s2.392,1.074,2.392,2.391
	C51.552,36.221,50.478,37.292,49.16,37.292z" class="color c1"/>
  <path fill="#0099ED" d="M63.771,58.032l-4.983-9.187c-3.777-0.167-16.944-0.673-23.224,0.037
	c-14.779,1.673-21.533,7.866-24.641,13.137c3.369-1.907,7.205-3.375,11.578-4.236C35.092,55.304,53.371,56.81,63.771,58.032z" class="color c1"/>
  <path fill="#0099ED" d="M26.081,114.176c4.056-10.955,11.466-16.541,26.106-22.851c8.597-3.712,13.38-10.038,15.963-15.028
	c0.262-0.787,0.503-1.585,0.648-2.391c0.638-3.536,0.117-8.675-0.217-11.235c-2.523-0.353-6.73-0.883-11.764-1.339
	c0.67,0.478,1.133,1.228,1.133,2.117c0,1.469-1.185,2.654-2.65,2.654s-2.657-1.188-2.657-2.654c0-1.037,0.611-1.91,1.476-2.346
	c-2.959-0.24-6.113-0.429-9.342-0.543c0.334,0.441,0.568,0.963,0.568,1.559c0,1.468-1.188,2.657-2.656,2.657
	c-1.47,0-2.66-1.188-2.66-2.657c0-0.639,0.256-1.197,0.629-1.654c-3.342-0.037-6.662,0.038-9.819,0.269
	c0.327,0.441,0.56,0.959,0.56,1.549c0,1.468-1.189,2.653-2.658,2.653c-1.468,0-2.653-1.185-2.653-2.653
	c0-0.386,0.096-0.75,0.243-1.083c-1.048,0.139-2.08,0.309-3.055,0.493c-2.986,0.59-5.609,1.543-8.057,2.666
	c1.259,0.208,2.24,1.256,2.24,2.571c0,1.47-1.188,2.657-2.654,2.657c-1.465,0-2.653-1.188-2.653-2.657
	c0-0.487,0.163-0.91,0.389-1.302c-3.679,2.145-6.539,5.005-8.663,8.424c0.242-0.074,0.482-0.148,0.748-0.148
	c1.472,0,2.657,1.185,2.657,2.653c0,1.469-1.188,2.654-2.657,2.654c-1.234,0-2.225-0.86-2.521-2
	c-0.92,2.111-1.531,4.438-1.929,6.891c-0.602,6.055,0.325,13.106,3.123,21.222c5.956,17.262,15.686,31.475,26.208,40.316
	C24.967,138.217,21.224,127.285,26.081,114.176z" class="color c1"/>
  <path fill="#0099ED" d="M48.679,4.468c-0.024-0.624-0.064-1.286-0.191-1.972c-0.222-1.203-0.849-2.45-0.849-2.45
	s-5.225-0.522-7.394,1.96c-0.976,1.12-1.386,2.462-1.558,3.65C42.028,4.659,46.043,4.465,48.679,4.468z" class="color c1"/>
  <path fill="#0099ED" d="M35.145,14.269c5.502-1.808,12.186-1.913,15.664-1.814c-0.043-0.824-0.127-1.7-0.328-2.583
	c-0.104-0.479-0.271-0.945-0.45-1.389c-4.342-0.14-10.911,0.336-12.964,2.342C36.018,11.855,35.459,13.081,35.145,14.269z" class="color c1"/>
  <path fill="#0099ED" d="M51.225,16.478c-1.234-0.04-2.664-0.055-4.333,0.009c0.364,0.389,0.602,0.911,0.602,1.488
	c0,1.188-0.963,2.15-2.15,2.15s-2.155-0.963-2.155-2.15c0-0.481,0.191-0.907,0.461-1.266c-1.805,0.17-3.613,0.445-5.336,0.852
	c0.427,0.395,0.707,0.947,0.707,1.574c0,1.188-0.965,2.151-2.154,2.151c-1.188,0-2.15-0.962-2.15-2.151
	c0-0.151,0.056-0.281,0.086-0.419c-1.154,0.502-2.203,1.074-2.955,1.808c-2.191,2.147-3.182,4.771-3.636,7.174
	c8.718-2.886,19.626-2.968,24.677-2.82c-0.006-1.607-0.125-3.465-0.538-5.32C52.092,18.417,51.646,17.375,51.225,16.478z" class="color c1"/>
  <path fill="#0099ED" d="M66.363,85.978c-3.042,3.392-7.129,6.644-12.6,9.004c-13.654,5.882-19.492,11.211-23.159,21.101
	c-7.058,19.056,5.437,34.161,11.192,36.484c4.873,2.765,8.477,3.311,12.844,2.769c21.239-2.654,24.335-22.57,24.335-34.522
	C78.976,103.792,70.351,90.986,66.363,85.978z M68.209,134.639c-2.857,8.399-12.973,14.948-20.838,11.016
	c-6.43-3.207-12.848-12.281-7.87-26.739c4.379-12.716,23.206-17.697,23.206-17.697S74.118,117.342,68.209,134.639z" class="color c1"/>
</svg>