<svg version="1.1" id="图层_1" x="0px" y="0px" width="100.588px" height="154px" viewBox="0 0 100.588 154" enable-background="new 0 0 100.588 154" xml:space="preserve" xmlns="http://www.w3.org/2000/svg" xmlns:xlink="http://www.w3.org/1999/xlink" xmlns:xml="http://www.w3.org/XML/1998/namespace">
  <path fill="#874F26" d="M69.685,154h30.901v-15.145c-24.871-1.656-45.442-17.926-51.781-39.59C27.922,98.752,9.762,87.949,0,72.123
	v12.189C0,122.738,31.262,154,69.685,154z M100.588,130.469V72.33c-8.909,14.3-24.692,24.457-43.131,26.555
	C63.412,116.104,80.278,128.906,100.588,130.469z M50.348,30.372C55.33,18.641,65.713,10.26,77.97,7.707
	C70.069,2.842,60.569,0,50.359,0C40.154,0,30.662,2.839,22.766,7.695c7.268,1.516,13.961,5.106,19.355,10.503
	C45.619,21.692,48.414,25.858,50.348,30.372z M13.268,15.302C5.475,23.334,0.729,33.9,0.729,45.466
	c0,25.071,22.262,45.468,49.631,45.468c27.364,0,49.627-20.396,49.627-45.468c0-11.559-4.74-22.118-12.523-30.148
	c-0.539-0.029-1.074-0.079-1.619-0.079c-13.018,0-24.535,8.317-28.662,20.699c-1.024,3.078-1.545,6.278-1.545,9.51v15.563H53.45
	h-6.182H45.08V45.449c0-3.234-0.521-6.432-1.547-9.508c-1.471-4.412-4.006-8.501-7.328-11.824
	c-5.725-5.725-13.301-8.877-21.334-8.877C14.332,15.239,13.801,15.275,13.268,15.302z M78.019,36.349
	c5.026,0,9.116,4.09,9.116,9.117c0,5.027-4.09,9.118-9.116,9.118c-5.027,0-9.119-4.091-9.119-9.118
	C68.899,40.439,72.992,36.349,78.019,36.349z M22.57,36.349c5.027,0,9.117,4.09,9.117,9.117c0,5.027-4.092,9.118-9.117,9.118
	c-5.027,0-9.117-4.091-9.117-9.118C13.453,40.439,17.543,36.349,22.57,36.349z M22.57,42.627c1.569,0,2.841,1.272,2.841,2.841
	c0,1.569-1.272,2.841-2.841,2.841c-1.569,0-2.841-1.272-2.841-2.841C19.729,43.899,21.001,42.627,22.57,42.627z M78.019,42.627
	c1.568,0,2.84,1.272,2.84,2.841c0,1.569-1.271,2.841-2.84,2.841c-1.57,0-2.842-1.272-2.842-2.841
	C75.177,43.899,76.448,42.627,78.019,42.627z" class="color c1"/>
</svg>