<svg version="1.1" id="图层_1" x="0px" y="0px" width="149px" height="107.184px" viewBox="0 0 149 107.184" enable-background="new 0 0 149 107.184" xml:space="preserve" xmlns="http://www.w3.org/2000/svg" xmlns:xlink="http://www.w3.org/1999/xlink" xmlns:xml="http://www.w3.org/XML/1998/namespace">
  <path fill="#BA8D60" d="M148.719,12.525c1.395-2.782-2.783-6.959-4.176-6.959c-0.002,0-8.35,0-11.135,0
	c-0.779,0-2.008-1.392-2.785-1.392c-1.393,0-4.178,0-4.178,0s-2.412-3.665-4.178-2.782c-2.781,1.39,0,6.959,0,6.959
	c-8.348,6.958-6.564,18.832-16.307,18.832c-6.477,0-12.922-9.089-19.883-11.874c-2.666-1.063-8.352-1.392-11.136-2.784
	C70.274,10.192,69.376,0,58.239,0S41.592,11.562,35.97,15.31c-4.178,2.785-18.097,6.962-18.097,16.705
	c0,0.412-3.897,15.312-5.289,18.097c-0.193,0.391-8.352,8.353-6.961,11.137c0.078,0.152,5.568-1.392,8.353-9.742
	c1.728-5.181,4.177-13.923,4.177-13.923s0.803,3.204,1.122,5.566c0.458,3.366,0.739,6.547,0.271,8.354
	c-0.383,1.479-7.304,12.349-11.137,18.098c-2.785,4.175-4.34,4.34-5.568,5.566c-1.395,1.395,0.204,7.315,0,9.743
	c-0.389,4.631-3.273,13.48-2.784,18.1c0.131,1.247,0.285,3.582,1.394,4.174h9.745c-0.003-4.174-4.688-3.809-5.571-5.566
	c-1.391-2.784,0.838-14.437,1.394-16.702c0.913-3.709,2.785-2.787,4.178-5.569c1.191-2.386,0.13-2.286,1.392-4.179
	c2.784-4.174,10.855-9.742,10.855-9.742l-1.391,12.526l4.176,12.528l4.177,16.704h11.136c0-5.566-5.115-4.316-6.958-5.566
	c-1.554-1.05-2.479-5.112-2.787-6.961c-0.46-2.766-1.236-8.335-1.391-11.136c-0.115-2.084-0.249-6.279,0-8.354
	c0.38-3.185,1.476-9.595,2.784-12.526c1.023-2.291,4.773-5.972,5.568-8.354c0.328-0.986-0.567-3.296,0-4.174
	c0.594-0.925,3.077-1.474,4.175-1.393c2.527,0.187,7.296,2.126,9.743,2.785c3.758,1.008,15.313,2.781,15.313,2.781
	s-3.308,12.93-5.569,16.706c-0.894,1.492-3.688,3.897-4.175,5.568c-0.486,1.67,0.403,5.267,0,6.959
	c-0.979,4.088-5.733,11.289-6.959,15.313c-0.617,2.022-1.394,8.351-1.394,8.351h9.744c0-4.177-2.146-4.146-2.786-5.568
	c-1.664-3.716,3.234-11.977,5.569-15.313c0.845-1.208,3.448-2.89,4.175-4.175c0.707-1.25,0.917-4.216,1.395-5.566
	c1.862-5.296,11.135-19.489,11.135-19.489l4.18-2.785c0,0,4.174,4.177,6.961,19.488c0.377,2.083,0.57,6.404,1.391,8.353
	c0.484,1.155,2.232,3.05,2.783,4.175c2.418,4.942,6.961,20.881,6.961,20.881h11.137c0-5.566-5.137-4.288-6.963-5.566
	c-3.334-2.335-5.566-15.313-5.566-15.313s0.385-4.186,0-5.566c-0.264-0.949-1.08-1.849-1.393-2.784
	c-1.393-4.177-2.783-12.526-2.783-18.096c0-2.87-1.393-11.138,2.783-11.138c4.178,0,11.139,0,15.313-2.784
	c10.926-7.285,13.633-21.145,18.096-27.84C134.801,13.92,147.84,14.288,148.719,12.525z" class="color c1"/>
</svg>