<svg version="1.1" id="图层_1" x="0px" y="0px" width="185.269px" height="97.099px" viewBox="0 0 185.269 97.099" enable-background="new 0 0 185.269 97.099" xml:space="preserve" xmlns="http://www.w3.org/2000/svg" xmlns:xlink="http://www.w3.org/1999/xlink" xmlns:xml="http://www.w3.org/XML/1998/namespace">
  <path fill="#8655A1" d="M112.145,53.197c0,0,13.231-21.817,26.836-29.407c0,0,26.256,2.303,41.858,37.629
	c0,0-15.443-6-17.422,10.868c0,0-12.78-9.278-19.819,4.639c0,0-8.753-13.917-21.18-2.53c0,0-3.482-10.121-10.273-10.121V53.197z" class="color c1"/>
  <path fill="#8655A1" d="M73.098,53.197c0,0-13.232-21.817-26.836-29.407c0,0-26.256,2.303-41.858,37.629c0,0,15.443-6,17.421,10.868
	c0,0,12.781-9.278,19.82,4.639c0,0,8.752-13.917,21.18-2.53c0,0,3.482-10.121,10.273-10.121V53.197z" class="color c1"/>
  <path fill="#501B6E" d="M178.829,56.451c-9.654-14.391-23.357-26.137-37.709-32.328l-1.48-0.442c-0.003,0-0.005,0-0.008,0
	l-1.451,0.261l-1.041,1.314c-8.004,10.369-13.357,25.281-16.354,45.544c-0.11,0.739,0.104,1.485,0.589,2.048
	c0.498,0.578,1.22,0.909,1.979,0.909c1.214,0,2.226-0.878,2.405-2.09c2.303-15.576,5.97-27.733,11.156-36.908
	c-0.064,11.809,0.604,24.822,3.848,37.128c0.295,1.113,1.265,1.861,2.413,1.861c0.798,0,1.562-0.372,2.042-0.996
	c0.474-0.613,0.631-1.402,0.43-2.167c-3.152-11.955-3.761-24.769-3.674-36.393c7.881,12.003,13.359,22.952,16.691,33.33
	c0.338,1.047,1.305,1.751,2.405,1.751c0.824,0,1.601-0.389,2.075-1.041c0.465-0.64,0.59-1.448,0.342-2.217
	c-3.347-10.426-8.717-21.324-16.344-33.143c10.453,6.227,20.199,15.523,27.453,26.335c0.473,0.707,1.258,1.129,2.1,1.129l0,0
	c0.943,0,1.836-0.531,2.275-1.353C179.403,58.177,179.351,57.23,178.829,56.451z" class="color c2"/>
  <path fill="#501B6E" d="M48.102,25.26l-1.039-1.318l-1.452-0.261c-0.003,0-0.007,0-0.011,0l-1.48,0.443
	C29.789,30.298,16.074,42.05,6.413,56.45c-0.521,0.776-0.575,1.723-0.144,2.532c0.438,0.822,1.333,1.354,2.277,1.354
	c0.843,0,1.628-0.422,2.1-1.127C17.9,48.396,27.645,39.1,38.098,32.874C30.469,44.692,25.1,55.591,21.752,66.018
	c-0.246,0.771-0.12,1.578,0.346,2.217c0.476,0.65,1.25,1.039,2.074,1.039c1.102,0,2.068-0.705,2.406-1.755
	C29.91,57.14,35.39,46.191,43.268,34.191c0.088,11.622-0.521,24.434-3.672,36.39c-0.203,0.764-0.048,1.554,0.426,2.169
	c0.48,0.625,1.245,0.998,2.045,0.998c1.148,0,2.117-0.748,2.413-1.863c3.245-12.309,3.911-25.32,3.847-37.125
	c5.186,9.174,8.854,21.331,11.156,36.908c0.18,1.211,1.191,2.09,2.406,2.089c0.759,0,1.48-0.331,1.979-0.909
	c0.484-0.563,0.699-1.31,0.589-2.046C61.466,50.578,56.129,35.686,48.102,25.26z" class="color c2"/>
  <path fill="#8655A1" d="M130.858,2.342c-8.4,0-26.245,18.548-26.245,18.548l22.044,13.647
	C133.308,13.19,130.858,2.342,130.858,2.342z" class="color c1"/>
  <path fill="#8655A1" d="M54.385,2.342c0,0-2.449,10.849,4.201,32.195L80.63,20.89C80.63,20.89,62.787,2.342,54.385,2.342z" class="color c1"/>
  <path fill="#8655A1" d="M139.665,56.394c0,25.983-21.063,38.364-47.046,38.364c-25.98,0-47.043-12.381-47.043-38.364
	c0-25.979,21.063-47.043,47.043-47.043C118.602,9.351,139.665,30.415,139.665,56.394z" class="color c1"/>
  <path fill="#501B6E" d="M182.981,60.474c-15.979-36.177-42.668-38.917-43.797-39.016l-0.717-0.063l-0.628,0.351
	c-2.108,1.176-4.196,2.668-6.227,4.35c-0.063-0.082-0.122-0.166-0.187-0.247c3.532-15.584,1.795-23.675,1.717-24.02L132.732,0
	h-1.874c-4.336,0-10.57,3.567-19.035,10.896c-6.093-2.58-12.546-3.887-19.204-3.887c-6.656,0-13.107,1.306-19.199,3.886
	C64.957,3.567,58.723,0,54.385,0h-1.873L52.1,1.828c-0.078,0.345-1.814,8.435,1.717,24.017c-0.064,0.081-0.125,0.168-0.188,0.25
	c-2.03-1.683-4.118-3.175-6.226-4.35l-0.629-0.351l-0.717,0.063c-1.128,0.099-27.816,2.839-43.796,39.016L0,65.605l5.245-2.001
	c0.023-0.009,2.34-0.881,5.088-0.881c5.392,0,8.39,3.219,9.166,9.836l0.468,3.939l3.228-2.313c0.036-0.025,3.658-2.587,7.695-2.587
	c3.658,0,6.493,2.089,8.666,6.383l1.868,3.694l2.204-3.504c0.021-0.034,1.338-2.076,3.562-3.751
	c7.04,14.318,23.14,22.677,45.431,22.677c22.285,0,38.383-8.354,45.427-22.665c2.199,1.658,3.525,3.67,3.572,3.744l2.201,3.499
	l1.868-3.694c2.173-4.294,5.007-6.383,8.666-6.383c4.036,0,7.657,2.562,7.688,2.583l3.235,2.35l0.466-3.973
	c0.775-6.617,3.774-9.836,9.166-9.836c2.748,0,5.065,0.872,5.082,0.878l5.277,2.052L182.981,60.474z M41.92,72.873
	c-3.515-4.842-7.816-5.957-11.031-5.957c-2.85,0-5.457,0.867-7.354,1.735C21.18,59.51,14.424,58.04,10.333,58.04
	c-0.618,0-1.217,0.033-1.787,0.088c13.605-26.986,33.24-31.306,37.23-31.915c1.731,1.028,3.46,2.301,5.154,3.728
	c-4.988,7.868-7.695,17.06-7.695,26.453c0,4.915,0.734,9.46,2.129,13.601C43.979,70.899,42.82,71.935,41.92,72.873z M92.619,92.416
	c-16.512,0-33.874-5.535-41.154-19.987c-0.697-1.384-1.305-2.846-1.808-4.396c-1.118-3.451-1.74-7.314-1.74-11.64
	c0-8.224,2.292-16.275,6.528-23.24c0.822-1.352,1.714-2.663,2.681-3.927c0.337-0.44,0.679-0.878,1.034-1.306l0.743-0.899
	l-0.27-1.136c-2.494-10.499-2.479-17.49-2.231-20.805c2.512,0.834,7.131,3.313,15.046,10.313l1.144,1.011l1.387-0.638
	c5.881-2.703,12.152-4.075,18.641-4.075c6.489,0,12.762,1.372,18.645,4.076l1.387,0.638l1.144-1.011
	c7.915-7,12.535-9.479,15.047-10.313c0.247,3.319,0.262,10.31-2.232,20.808l-0.27,1.136l0.744,0.898
	c0.354,0.429,0.695,0.865,1.031,1.306c0.967,1.263,1.859,2.574,2.682,3.926c4.235,6.964,6.527,15.016,6.527,23.239
	c0,4.325-0.621,8.188-1.74,11.64c-0.502,1.55-1.11,3.013-1.808,4.397C126.493,86.882,109.131,92.416,92.619,92.416z M174.909,58.04
	c-4.091,0-10.848,1.471-13.203,10.611c-1.896-0.868-4.504-1.735-7.353-1.735c-3.215,0-7.517,1.115-11.032,5.957
	c-0.899-0.939-2.059-1.974-3.444-2.88c1.396-4.14,2.13-8.685,2.13-13.6c0-9.393-2.707-18.584-7.695-26.453
	c1.694-1.427,3.423-2.699,5.154-3.728c4.008,0.613,23.632,4.94,37.23,31.915C176.126,58.073,175.527,58.04,174.909,58.04z" class="color c2"/>
  <path fill="#501B6E" d="M86.028,50.09c-6.263-7.3-16.756-10.674-26.099-8.396c1.301,2.444,2.738,4.982,4.775,6.858
	c2.037,1.871,4.621,3.241,7.382,3.448C76.315,52.319,81.789,50.022,86.028,50.09z" class="color c2"/>
  <path fill="#501B6E" d="M98.391,50.09c6.26-7.3,16.756-10.674,26.099-8.396c-1.303,2.444-2.74,4.982-4.775,6.858
	c-2.038,1.871-4.622,3.241-7.384,3.448C108.104,52.319,102.631,50.022,98.391,50.09z" class="color c2"/>
  <path fill="#501B6E" d="M108.389,63.745c-0.135,2.15-0.574,4.37-1.343,6.58c-0.031,0.021-2.95-3.18-4.142-4.84
	c-3.043,0.744-6.242,1.157-9.611,1.157c-3.372,0-6.572-0.413-9.616-1.157c-1.19,1.66-4.111,4.86-4.142,4.84
	c-0.768-2.21-1.209-4.43-1.342-6.58c-5.664-2.06-10.441-5.563-13.59-4.188c-0.049,0.006-0.09,0.025-0.137,0.034
	c3.993,7.801,13.202,16.321,28.826,16.555c15.619-0.233,24.83-8.754,28.823-16.555c-0.049-0.009-0.09-0.028-0.138-0.034
	C118.829,58.183,114.051,61.686,108.389,63.745z" class="color c2"/>
</svg>