<svg version="1.1" id="图层_1" x="0px" y="0px" width="101.396px" height="91.934px" viewBox="0 0 101.396 91.934" enable-background="new 0 0 101.396 91.934" xml:space="preserve" xmlns="http://www.w3.org/2000/svg" xmlns:xlink="http://www.w3.org/1999/xlink" xmlns:xml="http://www.w3.org/XML/1998/namespace">
  <circle fill="#FFFFFF" cx="90.817" cy="67.861" r="10.58" class="color c1"/>
  <path fill="#F9F9F9" d="M20.144,41.245c0,0,20.959,8.316,5.781,44.094h-8.194H0.008C-0.39,72.991,13.949,72.991,13.949,72.991
	c-3.584-8.365-3.584-17.726-3.584-17.726C10.82,44.119,20.144,41.245,20.144,41.245" class="color c2"/>
  <path fill="#FFA8A8" d="M58.369,19.476c9.728,79.422-15.099,68.358-15.099,68.358c-9.654,0-15.899-7.992-15.899-7.992
	C6.736,49.45,37.532,20.8,37.532,20.8s4.346,1.809,9.056,0.15L58.369,19.476z" class="color c3"/>
  <path fill="#F9F9F9" d="M46.515,20.032c0,0-13.7-4.476-25.295,9.817c0,0-7.244,9.154-4.032,13.152c0,0,4.264,5.656,10.215-6.889
	C27.402,36.114,34.165,25.361,46.515,20.032z" class="color c2"/>
  <path fill="#FFFFFF" d="M67.945,0h-2.463c-5.203,2.222-13.397,3.482-13.397,3.482s0.965,16.283-16.598,28.98
	c0,0-14.985,11.349-7.763,16.481c0,0,1.852,1.935,9.108-1.996c-2.483,2.436-3.789,4.344-3.789,4.344
	c-11.001,15.661,1.883,29.672,1.883,29.672c-18.469-3.205-18.64,9.832-18.64,9.832l23.14,0.882c0,0,47.162,5.48,48.41-34.514
	C88.773,27.141,74.914,7.783,67.945,0z" class="color c1"/>
</svg>