<svg version="1.1" id="图层_1" x="0px" y="0px" width="190.425px" height="179.98px" viewBox="0 0 190.425 179.98" enable-background="new 0 0 190.425 179.98" xml:space="preserve" xmlns="http://www.w3.org/2000/svg" xmlns:xlink="http://www.w3.org/1999/xlink" xmlns:xml="http://www.w3.org/XML/1998/namespace">
  <path fill="#86D300" d="M188.824,80.582c-1.349-0.786-3.016-1.696-5.145-2.635c-2.121-0.928-4.796-1.87-8.01-2.331
	c-3.184-0.461-6.921-0.275-10.395,0.393c-3.578,0.661-7.419,1.862-11.184,3.8c-3.744,1.96-7.38,4.633-10.527,7.857
	c-1.586,1.6-3.069,3.324-4.434,5.136c-0.697,0.9-1.34,1.83-1.985,2.768c-0.565,0.828-1.134,1.66-1.706,2.498
	c-2.379,3.474-4.832,6.5-7.367,8.848c-0.106-0.381-0.229-0.773-0.315-1.141c-0.394-1.633-0.618-3.206-0.675-4.725
	c-0.621-11.867,7.34-21.347,9.506-50.599c2.08-28.316-17.748-45.474-41.064-49.523C91.955,0.308,88.298,0,84.64,0
	C41.75,0,36.184,34.114,36.856,51.127c0.142,3.517,0.79,7.512,1.743,11.729c1.577,7.145,3.998,14.992,6.132,22.613
	c1.795,6.38,3.388,12.58,4.123,18.057c-3.998-0.396-7.826-1.893-10.506-4.687c-2.266-2.244-3.361-4.715-4.072-8.052
	c-0.696-3.307-0.825-7.407-1.585-11.688c-0.396-2.16-0.982-4.365-1.818-6.478c-0.862-2.117-2.058-4.098-3.233-5.694
	c-2.407-3.177-5-5.614-7.639-7.574c-5.216-3.895-10.982-5.673-15.058-4.84c-1,0.173-1.845,0.425-2.535,0.817
	c-0.697,0.326-1.227,0.671-1.589,1.083c-0.743,0.759-0.951,1.313-0.743,1.69c0.454,0.828,2.337,0.52,4.812,1.287
	c2.46,0.682,5.821,2.833,9.258,6.611c1.698,1.873,3.419,4.158,4.814,6.637c0.674,1.267,1.165,2.396,1.539,3.697
	c0.346,1.321,0.602,2.769,0.762,4.399c0.342,3.305,0.174,7.297,0.931,12.213c0.395,2.438,1.092,5.09,2.303,7.668
	c1.189,2.614,2.917,4.969,4.922,7.012c4.045,4.188,9.428,6.646,14.524,7.54c1.596,0.283,3.168,0.421,4.715,0.459
	c-0.459,2.286-1.15,4.455-2.012,6.402h-0.027c-0.814,1.912-1.855,3.6-2.98,5.061c-1.296,1.546-2.673,2.814-4.192,3.601
	c-1.828,1.015-3.85,1.407-5.875,0.93c-1.044-0.226-2.17-0.704-3.235-1.404c-1.492-0.988-4.443-4.474-4.443-4.474
	s-0.112-0.113-0.139-0.198c-7.173-10.122-15.024,0.05-12.406,7.848c0.902,1.267,1.771,2.39,2.645,3.431
	c1.517,1.828,3.006,3.29,4.5,4.528c4.468,3.827,8.859,5.314,12.966,5.287c2.219,0,4.386-0.451,6.468-1.208
	c4.582-1.658,8.689-4.781,12.176-8.073c0.479-0.478,0.93-0.9,1.407-1.378c1.096-1.095,2.246-1.995,3.317-2.7
	c6.863-4.246,13.359-1.041,14.23,4.386c0.225,1.212,0.172,2.507-0.281,3.886c-0.225,0.784-0.447,1.6-0.705,2.5
	c-0.615,2.337-1.205,5.036-1.516,7.96c-0.31,2.308-0.479,4.696-0.367,7.115c0.17,4.189,1.041,8.408,3.066,12.234c0,0,0,0,0,0.026
	c0.789,1.464,1.716,2.815,2.814,4.107c0.333,0.396,0.647,0.675,0.983,1.014h0.055c17.746,10.212,16.041-5.062,12.206-7.987
	s-3.063-3.321-3.88-5.317c-0.732-1.658-1.128-3.485-1.237-5.399c-0.17-1.997,0-4.134,0.423-6.355c0.282-1.632,0.7-3.318,1.319-5.088
	c0.563-1.831,1.293-3.715,2.195-5.656c0.505-1.096,1.068-2.249,1.658-3.402c4.979-9.759,11.364-7.2,15.299-2.335
	c1.295,1.548,2.364,3.403,3.041,5.119c0.055,0.283,0.191,0.506,0.252,0.787c0.394,1.268,0.675,2.476,0.787,3.602
	c0.252,2.277-0.03,4.301-0.848,5.878c-0.475,0.956-1.15,1.713-1.994,2.222c-1.181,0.784-10.66,5.932-9.533,8.719
	c1.183,2.951,3.683,5.006,6.494,5.877c2,0.621,4.165,0.648,6.16,0c0.199-0.057,0.338-0.084,0.564-0.168
	c4.105-1.604,6.58-5.486,8.1-10.069c0.787-2.334,1.322-4.893,1.631-7.397v-0.056c0.477-3.292,0.646-6.439,0.678-9.003
	c0.055-1.234,0.055-2.302,0.055-3.175c0-1.35,0.17-2.417,0.563-3.234c1.096-2.644,3.741-2.586,5.878-0.083
	c0.505,0.534,0.953,1.208,1.377,1.995c0.593,1.126,1.32,2.476,2.275,3.881c1.744,2.645,4.165,5.683,7.315,8.213
	c1.743,1.462,3.741,2.757,6.017,3.741c2.25,1.099,4.84,1.855,7.709,2.222c5.088,0.676,9.561-1.269,12.881-4.557
	c1.517-1.521,2.813-3.292,3.795-5.286c1.659-3.205,2.501-6.947,2.446-10.714c0-1.971,0.022-1.957-0.929-5.796
	c-0.452-6.464-9.577-11.339-10.094-2.561c0.365,1.886,0.027,4.191-0.93,6.16c-0.312,0.787-0.789,1.491-1.38,2.081
	c-1.292,1.462-3.147,2.418-5.454,2.307h-0.143c-0.281-0.055-0.59-0.085-0.898-0.17c-1.576-0.391-3.348-1.49-5.146-3.092
	c-1.017-0.9-2.082-1.97-3.096-3.125c-1.323-1.463-2.615-3.09-3.88-4.863c-1.314-1.904-2.562-3.931-3.711-5.981
	c1.327-0.887,2.594-1.86,3.768-2.907c3.477-3.078,6.352-6.656,8.891-10.318c0.609-0.9,1.214-1.797,1.814-2.686
	c0.523-0.776,1.039-1.554,1.583-2.281c1.065-1.481,2.177-2.855,3.329-4.119c2.286-2.553,4.758-4.609,7.33-6.274
	c5.125-3.2,11.047-5.059,15.435-5.388c4.547-0.314,8.994,0.677,12.22,0.794C190.681,85.435,191.494,82.151,188.824,80.582z" class="color c1"/>
  <path fill="#A0EA11" d="M90.81,8.271c21.789,3.785,40.318,19.817,38.375,46.279c-2.025,27.336-1.802,22.663-1.802,22.663
	s3.427-10.679,5.041-25.969c1.905-25.939-16.258-41.656-37.616-45.366c-3.27-0.567-9.971-0.85-9.971-0.85s-9.62-0.524-15.906,3.414
	C76.396,6.524,80.64,7.403,80.64,7.403S87.476,7.69,90.81,8.271z" class="color c2"/>
  <path fill="#71AF19" d="M27.559,90.616c-0.083-0.021-0.143-0.095-0.161-0.25c-0.021-0.159-0.018-0.404,0.248-0.667
	c0.533-0.538,1.534-0.481,2.326-0.147c0.824,0.356,1.708,0.918,2.383,2.02c0.336,0.531,0.602,1.306,0.496,2.205
	c-0.127,0.955-0.798,1.669-1.436,2.126c-0.649,0.408-1.537,0.747-2.491,0.528c-0.955-0.223-1.504-0.853-1.865-1.362
	c-0.708-1.076-0.862-2.068-0.913-2.894c-0.104-1.67,0.625-2.673,0.926-2.503c0.328,0.148,0.339,0.939,0.816,2.179
	c0.222,0.598,0.557,1.334,1.007,1.818c0.556,0.498,0.506,0.435,1.133,0.143c0.239-0.203,0.38-0.325,0.402-0.448
	c0.017-0.14,0.034-0.398-0.113-0.705c-0.24-0.612-0.778-1.188-1.205-1.558c-0.46-0.384-0.777-0.528-0.935-0.582
	C27.964,90.442,27.74,90.688,27.559,90.616z" class="color c3"/>
  <path fill="#71AF19" d="M36.932,99.779c-0.089-0.305,0.754-0.866,2.129-0.527c0.668,0.164,1.429,0.492,2.141,1.215
	c0.333,0.378,0.75,0.808,0.837,1.74c0.032,0.459-0.131,1.033-0.48,1.428c-0.311,0.353-0.73,0.6-1.028,0.686
	c-0.698,0.241-1.102,0.269-1.823,0.218c-0.649-0.085-1.191-0.377-1.604-0.702c-0.83-0.674-1.206-1.512-1.334-2.234
	c-0.269-1.546,0.693-2.312,0.923-2.058c0.292,0.212,0.265,0.81,0.757,1.491c0.227,0.337,0.589,0.716,0.982,0.911
	c0.389,0.22,0.702,0.167,1.206,0.034c0.041-0.01,0.096-0.021,0.064-0.021c-0.063-0.03,0.26,0.294,0.232,0.27
	c0.131,0.121,0.117,0.038-0.118,0.056c-0.073-0.003-0.144,0.008-0.205,0.024c-0.038,0.013,0.013,0.02-0.009,0.001
	c-0.012-0.022-0.016-0.05-0.016-0.08c-0.052-0.082-0.063-0.175-0.148-0.274c-0.27-0.416-0.696-0.8-1.062-1.07
	C37.639,100.301,36.998,100.143,36.932,99.779z" class="color c3"/>
  <path fill="#71AF19" d="M53.161,105.771c0.228,0.25-0.028,0.875-0.772,1.341c-0.726,0.477-1.84,0.782-3.096,0.723
	c-1.246-0.075-2.449-0.527-3.102-1.32c-0.679-0.803-0.486-1.562-0.17-1.612c0.707-0.024,1.447,0.364,3.408,0.43
	C51.339,105.457,52.719,105.294,53.161,105.771z" class="color c3"/>
  <path fill="#71AF19" d="M24.784,76.389c-0.095-0.125-0.041-0.407,0.359-0.72c0.371-0.354,1.417-0.418,2.165,0.13
	c0.762,0.51,1.339,1.329,1.706,2.322c0.294,0.999,0.621,2.246-0.228,3.751c-0.476,0.709-1.1,1.315-1.991,1.647
	c-0.873,0.324-2.084,0.171-2.746-0.575c-0.673-0.727-0.721-1.596-0.613-2.166c0.102-0.602,0.359-1.005,0.577-1.323l0.393-0.571
	l0.441,0.199c0.275,0.129,0.563,0.413,0.64,0.659c0.081,0.24,0.062,0.387,0.046,0.502c-0.041,0.226-0.111,0.361-0.226,0.417
	c-0.112,0.055-0.277-0.007-0.457-0.164c-0.087-0.075-0.185-0.168-0.259-0.182c-0.078-0.007-0.073,0.061-0.162,0.075l0.834-0.37
	c-0.111,0.542,0.046,1.329,0.291,1.322c0.08,0.02,0.16-0.008,0.377-0.089c0.211-0.109,0.521-0.392,0.75-0.74
	c0.2-0.267,0.249-1.108,0.114-1.75c-0.133-0.672-0.384-1.254-0.625-1.605C25.803,76.416,25.029,76.679,24.784,76.389z" class="color c3"/>
  <path fill="#71AF19" d="M131.046,110.523c-0.046-0.07-0.039-0.166,0.056-0.292c0.095-0.128,0.267-0.305,0.64-0.31
	c0.758-0.021,1.441,0.712,1.783,1.5c0.35,0.827,0.602,1.845,0.327,3.105c-0.123,0.618-0.467,1.361-1.164,1.938
	c-0.753,0.603-1.73,0.655-2.507,0.545c-0.752-0.153-1.627-0.522-2.166-1.339c-0.537-0.819-0.498-1.655-0.407-2.274
	c0.231-1.268,0.806-2.09,1.341-2.723c1.078-1.278,2.297-1.498,2.398-1.169c0.133,0.335-0.406,0.914-0.917,2.14
	c-0.251,0.585-0.519,1.349-0.527,2.012c0.058,0.743,0.065,0.663,0.722,0.885c0.313,0.018,0.498,0.027,0.599-0.047
	c0.108-0.088,0.3-0.264,0.406-0.587c0.249-0.609,0.258-1.396,0.205-1.957c-0.067-0.597-0.196-0.922-0.273-1.068
	C131.458,110.679,131.125,110.701,131.046,110.523z" class="color c3"/>
  <path fill="#71AF19" d="M138.869,98.322c0.02-0.156,0.252-0.322,0.758-0.273c0.513,0.001,1.313,0.677,1.475,1.589
	c0.199,0.895,0.05,1.886-0.372,2.858c-0.477,0.925-1.103,2.053-2.755,2.554c-0.834,0.184-1.705,0.191-2.578-0.185
	c-0.855-0.369-1.625-1.316-1.588-2.313c0.016-0.99,0.582-1.651,1.053-1.988c0.491-0.365,0.955-0.479,1.332-0.558l0.679-0.143
	l0.181,0.449c0.11,0.284,0.123,0.687,0.008,0.919c-0.107,0.229-0.223,0.32-0.314,0.395c-0.185,0.136-0.328,0.185-0.449,0.145
	c-0.12-0.038-0.196-0.196-0.218-0.434c-0.011-0.114-0.018-0.249-0.063-0.312c-0.052-0.058-0.095-0.007-0.169-0.057l0.859,0.31
	c-0.455,0.315-0.885,0.991-0.705,1.155c0.045,0.07,0.122,0.105,0.335,0.198c0.228,0.064,0.648,0.076,1.054-0.019
	c0.328-0.054,0.945-0.629,1.291-1.187c0.369-0.578,0.59-1.171,0.658-1.592C139.587,99.046,138.846,98.701,138.869,98.322z" class="color c3"/>
  <path fill="#71AF19" d="M150.244,91.716c0.609,0.396-0.027,1.983-1.553,2.822c-0.752,0.43-1.593,0.631-2.32,0.514
	c-0.764-0.066-1.217-0.752-0.921-0.989c0.28-0.258,0.396-0.48,0.663-0.764c0.277-0.271,0.752-0.6,1.337-0.939
	C148.648,91.689,149.683,91.337,150.244,91.716z" class="color c3"/>
  <path fill="#71AF19" d="M158.274,85.557c0.647,0.274,0.628,1.516-0.175,2.382c-0.771,0.846-1.734,1.012-2.247,0.56
	c-0.523-0.466-0.276-1.513,0.376-2.225C156.864,85.583,157.636,85.28,158.274,85.557z" class="color c3"/>
  <path fill="#71AF19" d="M37.479,138.636c0.026-0.167,0.297-0.287,0.859-0.266c0.284,0.079,0.679,0.147,1.047,0.643
	c0.327,0.486,0.32,1.28,0.063,1.76c-0.474,1.064-1.384,1.842-2.62,2.33c-0.612,0.26-1.353,0.355-2.137,0.314
	c-0.776-0.112-1.646-0.39-2.264-0.979c-0.622-0.557-1.166-1.098-1.361-2.295c-0.103-0.555,0.194-1.328,0.544-1.65
	c0.361-0.442,0.724-0.585,1.059-0.751c1.331-0.52,2.384-0.448,3.279-0.331c0.884,0.14,1.59,0.438,2.021,0.784
	c0.444,0.336,0.515,0.76,0.378,0.825c-0.295,0.178-0.964-0.038-2.451,0.161c-0.691,0.088-1.601,0.28-2.209,0.632
	c-0.118,0.079-0.274,0.186-0.232,0.202c0.01,0.016,0.007,0.011-0.124-0.055c-0.017-0.014-0.011-0.022-0.032-0.03
	c0,0-0.072-0.026-0.048-0.017c0.082,0.015,0.157,0.017,0.224,0.003c0.045-0.071,0.248,0.407,0.568,0.607
	c0.988,1.048,3.246,0.163,3.839-0.583c0.191-0.198,0.179-0.21,0.255-0.29c0.041-0.076-0.075-0.24-0.182-0.385
	C37.667,139.03,37.45,138.808,37.479,138.636z" class="color c3"/>
  <path fill="#71AF19" d="M48.196,133.261c0.151-0.065,0.39,0.063,0.618,0.48c0.199,0.417,0.275,1.149-0.006,1.928
	c-0.275,0.776-0.844,1.568-1.738,2.18c-0.436,0.316-0.996,0.555-1.645,0.689c-0.656,0.119-1.502,0.037-2.225-0.419
	c-0.736-0.476-1.104-1.121-1.328-1.864c-0.226-0.778,0.018-1.716,0.449-2.234c0.869-1.056,1.875-1.279,2.663-1.348
	c1.683-0.114,2.447,0.959,2.174,1.167c-0.239,0.275-0.901,0.127-1.819,0.568c-0.443,0.191-0.961,0.579-1.107,0.91
	c-0.065,0.168-0.029,0.188,0.012,0.3c0.057,0.112,0.2,0.352,0.31,0.392c0.163,0.152,0.769,0.147,1.336-0.146
	c0.561-0.26,1.037-0.65,1.349-1.011C47.891,134.146,47.868,133.429,48.196,133.261z" class="color c3"/>
  <path fill="#71AF19" d="M55.751,128.561c0.156-0.052,0.369,0.073,0.553,0.459c0.147,0.377,0.178,1.006-0.065,1.664
	c-0.246,0.647-0.704,1.324-1.432,1.894c-0.392,0.268-0.801,0.55-1.438,0.681c-0.57,0.155-1.641,0.076-2.283-0.715
	c-0.578-0.767-0.592-1.351-0.564-2.062c0.076-0.688,0.435-1.293,0.83-1.656c0.811-0.754,1.668-0.939,2.357-0.956
	c1.451-0.03,2.107,0.896,1.85,1.126c-0.23,0.275-0.789,0.237-1.537,0.62c-0.365,0.167-0.778,0.468-0.963,0.765
	c-0.098,0.148-0.103,0.252-0.093,0.339c0.011,0.047,0.003,0.109,0.038,0.162c0.014,0.024,0.017,0.063,0.02,0.084
	c0.053-0.044-0.104,0.024-0.188,0.115c-0.102,0.073-0.07,0.114-0.018-0.091c0.042-0.307,0.002-0.057,0.104-0.145
	c0.137,0.007,0.391-0.101,0.612-0.195c0.462-0.233,0.866-0.554,1.164-0.843C55.294,129.249,55.416,128.707,55.751,128.561z" class="color c3"/>
  <path fill="#71AF19" d="M61.857,127.118c0.093,0.686-0.356,1.377-1.007,1.538c-0.651,0.161-1.382-0.24-1.624-0.888
	c-0.244-0.65,0.204-1.342,1.006-1.542C61.033,126.031,61.761,126.435,61.857,127.118z" class="color c3"/>
  <path fill="#71AF19" d="M27.658,140.245c0.198,0.691-1.489,1.505-3.343,1.023c-1.82-0.447-2.89-1.505-2.666-2.139
	c0.235-0.667,1.731-0.664,3.229-0.304C26.359,139.206,27.479,139.572,27.658,140.245z" class="color c3"/>
  <path fill="#71AF19" d="M75.172,162.49c0.136-0.104,0.112-0.397-0.175-0.883c-0.205-0.213-0.453-0.527-1.063-0.614
	c-0.583-0.058-1.277,0.326-1.578,0.781c-0.711,0.922-0.963,2.093-0.805,3.413c0.063,0.661,0.33,1.357,0.739,2.028
	c0.468,0.63,1.125,1.264,1.938,1.526c0.784,0.283,1.521,0.503,2.666,0.106c0.536-0.174,1.076-0.802,1.192-1.263
	c0.219-0.527,0.172-0.915,0.159-1.289c-0.177-1.419-0.739-2.31-1.269-3.042c-0.543-0.71-1.142-1.191-1.65-1.404
	c-0.507-0.232-0.914-0.093-0.906,0.059c-0.016,0.343,0.492,0.831,1.023,2.234c0.252,0.648,0.516,1.541,0.494,2.243
	c-0.014,0.14-0.032,0.329-0.066,0.301c-0.02-0.002-0.014-0.003,0.107,0.082c0.02,0.008,0.024,0,0.041,0.014
	c0,0,0.057,0.052,0.037,0.034c-0.053-0.064-0.09-0.13-0.108-0.195c0.04-0.074-0.477-0.025-0.806-0.211
	c-1.391-0.371-1.687-2.779-1.313-3.656c0.084-0.262,0.1-0.257,0.135-0.36c0.047-0.074,0.247-0.049,0.425-0.024
	C74.736,162.512,75.035,162.597,75.172,162.49z" class="color c3"/>
  <path fill="#71AF19" d="M74.806,150.505c-0.014-0.163-0.24-0.312-0.717-0.313c-0.461,0.022-1.141,0.303-1.693,0.921
	c-0.552,0.61-0.979,1.487-1.09,2.565c-0.072,0.533-0.016,1.14,0.175,1.774c0.206,0.635,0.682,1.339,1.427,1.759
	c0.768,0.421,1.51,0.438,2.27,0.281c0.793-0.172,1.502-0.83,1.754-1.458c0.514-1.267,0.233-2.257-0.081-2.982
	c-0.7-1.535-2.008-1.696-2.06-1.357c-0.129,0.341,0.316,0.854,0.364,1.871c0.042,0.479-0.053,1.121-0.274,1.405
	c-0.117,0.139-0.152,0.117-0.27,0.134c-0.125,0.002-0.404-0.01-0.491-0.088c-0.212-0.071-0.495-0.606-0.507-1.243
	c-0.039-0.616,0.078-1.222,0.247-1.667C74.172,151.194,74.814,150.874,74.806,150.505z" class="color c3"/>
  <path fill="#71AF19" d="M75.35,141.625c-0.029-0.164-0.242-0.291-0.667-0.269c-0.402,0.05-0.97,0.32-1.434,0.849
	c-0.452,0.523-0.83,1.248-0.984,2.16c-0.051,0.47-0.103,0.965,0.084,1.588c0.135,0.576,0.714,1.48,1.715,1.669
	c0.949,0.146,1.47-0.122,2.082-0.483c0.569-0.394,0.93-0.997,1.063-1.518c0.277-1.071,0.033-1.914-0.279-2.529
	c-0.664-1.29-1.791-1.426-1.87-1.092c-0.134,0.335,0.166,0.808,0.185,1.646c0.027,0.402-0.041,0.907-0.215,1.214
	c-0.083,0.155-0.174,0.209-0.254,0.24c-0.047,0.014-0.098,0.051-0.16,0.044c-0.027,0-0.063,0.016-0.084,0.024
	c0.014-0.068,0.027,0.101-0.012,0.219c-0.018,0.124-0.068,0.114,0.088-0.027c0.25-0.184,0.049-0.03,0.078-0.16
	c-0.071-0.116-0.098-0.393-0.119-0.633c-0.015-0.517,0.075-1.024,0.188-1.424C74.96,142.353,75.38,141.991,75.35,141.625z" class="color c3"/>
  <path fill="#71AF19" d="M73.716,135.566c-0.648,0.245-1.043,0.969-0.875,1.618c0.168,0.65,0.867,1.101,1.554,1.007
	c0.687-0.096,1.082-0.818,0.877-1.619C75.063,135.774,74.363,135.326,73.716,135.566z" class="color c3"/>
  <path fill="#71AF19" d="M78.425,171.896c-0.702,0.153-0.616,2.024,0.689,3.427c1.259,1.388,2.697,1.828,3.148,1.328
	c0.476-0.522-0.239-1.838-1.268-2.984C79.957,172.543,79.101,171.732,78.425,171.896z" class="color c3"/>
  <path fill="#71AF19" d="M148.028,146.341c0.011-0.171-0.227-0.346-0.78-0.449c-0.297,0.015-0.695-0.004-1.162,0.398
	c-0.427,0.402-0.594,1.177-0.448,1.703c0.229,1.142,0.946,2.1,2.044,2.85c0.539,0.387,1.24,0.643,2.016,0.776
	c0.782,0.06,1.692-0.02,2.424-0.459c0.728-0.405,1.378-0.814,1.832-1.939c0.221-0.518,0.104-1.337-0.167-1.728
	c-0.255-0.512-0.578-0.73-0.869-0.968c-1.183-0.799-2.226-0.96-3.124-1.044c-0.895-0.058-1.65,0.079-2.145,0.322
	c-0.508,0.229-0.67,0.627-0.552,0.722c0.249,0.237,0.951,0.175,2.355,0.697c0.655,0.234,1.503,0.624,2.017,1.101
	c0.098,0.102,0.227,0.24,0.184,0.249c-0.014,0.014-0.012,0.008,0.132-0.027c0.019-0.01,0.015-0.02,0.037-0.022
	c0,0,0.077-0.009,0.05-0.005c-0.082-0.003-0.156-0.02-0.217-0.047c-0.029-0.079-0.333,0.343-0.688,0.468
	c-1.195,0.806-3.204-0.555-3.618-1.413c-0.143-0.235-0.128-0.244-0.184-0.339c-0.025-0.083,0.124-0.219,0.261-0.336
	C147.757,146.684,148.017,146.515,148.028,146.341z" class="color c3"/>
  <path fill="#71AF19" d="M138.753,138.74c-0.133-0.098-0.393-0.023-0.707,0.334c-0.285,0.363-0.521,1.06-0.418,1.881
	c0.097,0.818,0.479,1.716,1.216,2.509c0.354,0.404,0.85,0.761,1.454,1.034c0.614,0.261,1.456,0.366,2.262,0.082
	c0.822-0.304,1.322-0.853,1.705-1.527c0.391-0.711,0.361-1.678,0.053-2.279c-0.617-1.22-1.547-1.66-2.301-1.899
	c-1.618-0.483-2.6,0.396-2.378,0.659c0.173,0.322,0.853,0.323,1.65,0.956c0.391,0.283,0.81,0.776,0.878,1.13
	c0.029,0.179-0.01,0.191-0.074,0.291c-0.082,0.097-0.273,0.298-0.391,0.313c-0.191,0.112-0.781-0.025-1.27-0.434
	c-0.49-0.376-0.869-0.862-1.095-1.283C138.858,139.671,139.039,138.977,138.753,138.74z" class="color c3"/>
  <path fill="#71AF19" d="M132.417,132.494c-0.143-0.085-0.377-0.009-0.64,0.328c-0.228,0.336-0.396,0.939-0.302,1.637
	c0.097,0.686,0.393,1.445,0.979,2.161c0.322,0.347,0.661,0.712,1.253,0.98c0.523,0.277,1.584,0.435,2.385-0.196
	c0.732-0.617,0.873-1.188,1.004-1.886c0.077-0.688-0.141-1.356-0.445-1.798c-0.625-0.915-1.42-1.284-2.09-1.452
	c-1.41-0.349-2.252,0.412-2.052,0.692c0.163,0.32,0.718,0.404,1.362,0.941c0.32,0.245,0.656,0.627,0.773,0.961
	c0.063,0.164,0.043,0.268,0.014,0.35c-0.021,0.044-0.026,0.106-0.071,0.147c-0.019,0.021-0.03,0.061-0.037,0.081
	c-0.044-0.055,0.093,0.046,0.157,0.151c0.082,0.096,0.042,0.127,0.037-0.084c0.025-0.307,0.01-0.056-0.07-0.163
	c-0.135-0.023-0.359-0.185-0.556-0.327c-0.397-0.328-0.722-0.729-0.948-1.076C132.71,133.268,132.713,132.711,132.417,132.494z" class="color c3"/>
  <path fill="#71AF19" d="M126.777,129.745c-0.24,0.647,0.047,1.421,0.646,1.722c0.601,0.3,1.4,0.07,1.78-0.509
	c0.379-0.582,0.094-1.354-0.644-1.726C127.822,128.865,127.021,129.101,126.777,129.745z" class="color c3"/>
  <path fill="#71AF19" d="M112.134,153.578c-0.121-0.12-0.062-0.407,0.283-0.854c0.23-0.186,0.516-0.466,1.132-0.477
	c0.585,0.016,1.228,0.482,1.468,0.973c0.59,1.003,0.694,2.197,0.373,3.485c-0.145,0.647-0.496,1.307-0.987,1.921
	c-0.542,0.567-1.274,1.114-2.111,1.273c-0.814,0.182-1.571,0.309-2.659-0.227c-0.511-0.239-0.968-0.931-1.025-1.401
	c-0.152-0.551-0.056-0.93,0.002-1.3c0.353-1.385,1.022-2.198,1.639-2.859c0.628-0.637,1.281-1.04,1.813-1.188
	c0.532-0.168,0.918,0.022,0.893,0.171c-0.027,0.343-0.593,0.763-1.295,2.089c-0.33,0.612-0.703,1.465-0.771,2.164
	c-0.003,0.14-0.009,0.331,0.03,0.307c0.018,0.001,0.012-0.002-0.117,0.068c-0.021,0.005-0.024-0.003-0.043,0.008
	c0,0-0.063,0.045-0.041,0.03c0.061-0.058,0.104-0.119,0.132-0.181c-0.03-0.079,0.476,0.034,0.825-0.109
	c1.427-0.195,2.02-2.547,1.758-3.463c-0.05-0.272-0.067-0.269-0.088-0.375c-0.038-0.08-0.239-0.08-0.418-0.078
	C112.564,153.654,112.257,153.701,112.134,153.578z" class="color c3"/>
  <path fill="#71AF19" d="M113.992,141.732c0.034-0.161,0.277-0.278,0.751-0.221c0.454,0.08,1.095,0.442,1.565,1.123
	c0.471,0.675,0.785,1.598,0.762,2.683c0.005,0.537-0.127,1.132-0.396,1.739c-0.284,0.603-0.843,1.242-1.634,1.567
	c-0.816,0.319-1.554,0.244-2.289-0.006c-0.765-0.269-1.385-1.011-1.557-1.665c-0.354-1.32,0.049-2.269,0.451-2.948
	c0.886-1.437,2.205-1.434,2.214-1.091c0.085,0.354-0.421,0.808-0.596,1.811c-0.101,0.473-0.087,1.119,0.098,1.428
	c0.099,0.154,0.136,0.137,0.251,0.168c0.124,0.02,0.401,0.041,0.498-0.025c0.219-0.044,0.566-0.54,0.659-1.171
	c0.114-0.605,0.072-1.222-0.039-1.684C114.535,142.495,113.938,142.098,113.992,141.732z" class="color c3"/>
  <path fill="#71AF19" d="M114.56,132.854c0.049-0.16,0.275-0.26,0.695-0.183c0.393,0.098,0.922,0.437,1.315,1.019
	c0.384,0.577,0.669,1.342,0.708,2.267c-0.008,0.473-0.018,0.969-0.281,1.564c-0.205,0.557-0.893,1.38-1.91,1.443
	c-0.959,0.025-1.441-0.305-2.006-0.739c-0.516-0.462-0.797-1.105-0.863-1.639c-0.143-1.097,0.205-1.903,0.592-2.476
	c0.818-1.195,1.955-1.191,1.991-0.85c0.091,0.35-0.265,0.781-0.389,1.611c-0.077,0.396-0.072,0.905,0.062,1.23
	c0.064,0.164,0.146,0.229,0.223,0.271c0.045,0.02,0.091,0.062,0.152,0.064c0.029,0.003,0.062,0.021,0.081,0.032
	c-0.005-0.068-0.038,0.099-0.016,0.219c0.003,0.126,0.054,0.123-0.083-0.038c-0.226-0.212-0.045-0.035-0.058-0.168
	c0.085-0.105,0.146-0.377,0.196-0.612c0.079-0.511,0.054-1.025-0.009-1.436C114.855,133.624,114.484,133.214,114.56,132.854z" class="color c3"/>
  <path fill="#71AF19" d="M116.936,127.047c0.611,0.323,0.913,1.092,0.666,1.715c-0.248,0.623-0.998,0.983-1.667,0.805
	c-0.67-0.181-0.971-0.947-0.668-1.717C115.574,127.085,116.325,126.729,116.936,127.047z" class="color c3"/>
</svg>