<svg version="1.1" id="图层_1" x="0px" y="0px" width="230.409px" height="160.331px" viewBox="0 0 230.409 160.331" enable-background="new 0 0 230.409 160.331" xml:space="preserve" xmlns="http://www.w3.org/2000/svg" xmlns:xlink="http://www.w3.org/1999/xlink" xmlns:xml="http://www.w3.org/XML/1998/namespace">
  <path fill="#8E795E" d="M222.621,1.334C222.086,0.267,221.552,0,221.286,0c-1.334,0-0.801,6.938,0.801,17.879
	c2.669,18.946-2.135,40.828-9.34,52.837c-1.067,1.066-2.669,1.601-3.735,1.601c-1.869,0-3.203-1.335-3.47-4.804
	c-0.267-5.87,2.669-21.348-3.202-37.893c-2.402-6.671-7.472-14.943-9.072-14.943c-0.801,0-0.801,2.668,1.601,9.874
	c6.671,20.014,5.337,31.488,1.868,36.024c-0.801,1.068-2.402,1.601-4.537,1.601c-7.738,0-22.415-6.137-30.154-17.612
	c-4.002-5.604-9.606-12.809-11.207-12.809c-1.334,0,0,4.27,6.137,16.812c3.47,6.938,9.34,12.542,16.545,15.745
	c12.275,5.871,34.157,9.874,22.683,24.016c-9.606,7.472-21.882,14.41-32.022,14.41c-0.266,0-0.266,0-0.533,0
	c-7.472-2.402-7.738-19.213-7.738-26.151c0-3.735-0.801-6.404-1.868-6.404c-0.801,0-1.868,1.868-2.936,6.938
	c-2.135,10.94-2.401,5.604-2.669,10.14c0,4.536,2.669,15.744-4.002,26.685c-2.014,3.152-3.853,5.553-5.418,7.361
	c-0.005,0.047-0.02,0.096-0.055,0.146c-3.354,4.905-7.681,9.069-11.534,13.585c-2.048,2.292-10.224,10.071-11.694,12.378
	c-0.03,0.044-0.061,0.087-0.092,0.131c0.001,0.003,0.003,0.005,0.004,0.007c-0.026,0.041-0.047,0.08-0.073,0.12
	c-0.193-0.342-0.396-0.689-0.623-1.046c0.001-0.002,0.003-0.004,0.004-0.007c-0.03-0.044-0.062-0.087-0.092-0.131
	c-1.47-2.307-10.414-8.769-12.462-11.061c-3.854-4.516-7.598-9.051-10.953-13.956c-0.034-0.049-0.049-0.098-0.054-0.146
	c-1.565-1.809-3.404-4.209-5.417-7.36c-6.671-10.941-4.003-22.148-4.003-26.686c-0.267-4.535-0.534,0.801-2.668-10.141
	c-1.067-5.069-2.135-6.938-2.936-6.938c-1.067,0-1.868,2.668-1.868,6.404c0,6.938-0.267,23.75-7.739,26.152
	c-0.267,0-0.267,0-0.534,0c-10.141,0-22.416-6.939-32.022-14.41C22.732,74.205,44.614,70.202,56.889,64.332
	c7.205-3.202,13.076-8.806,16.544-15.744c6.138-12.542,7.472-16.812,6.138-16.812c-1.601,0-7.205,7.205-11.208,12.809
	C60.625,56.06,45.948,62.197,38.209,62.197c-2.135,0-3.736-0.534-4.537-1.601c-3.469-4.536-4.803-16.011,1.868-36.025
	c2.402-7.205,2.402-9.873,1.601-9.873c-1.601,0-6.671,8.272-9.073,14.943c-5.871,16.544-2.936,32.022-3.202,37.893
	c-0.267,3.469-1.601,4.803-3.469,4.803c-1.067,0-2.668-0.533-3.736-1.601C10.457,58.728,5.653,36.846,8.322,17.9
	C9.923,6.959,10.457,0.021,9.123,0.021c-0.267,0-0.801,0.267-1.334,1.334C-9.824,27.773,5.12,80.343,25.934,93.685
	c17.879,12.543,35.491,21.883,65.912,45.899c0.001,0,0.001,0.002,0.002,0.002c0.002,0.002,0.005,0.004,0.008,0.005
	c0.208,0.146,13.98,9.844,21.749,18.806c0.566,1.109,1.301,1.696,1.533,1.862c0.019,0.024,0.039,0.048,0.057,0.072
	c0,0,0.711-0.552,1.368-1.676c7.72-9.039,21.778-18.938,21.989-19.085c0.002-0.002,0.004-0.004,0.008-0.005
	c0-0.001,0.001-0.002,0.002-0.003c30.421-24.017,48.033-33.356,65.912-45.898C225.289,80.321,240.232,27.752,222.621,1.334z" class="color c1"/>
</svg>