<svg version="1.1" id="图层_1" x="0px" y="0px" width="178.67px" height="178.698px" viewBox="0 0 178.67 178.698" enable-background="new 0 0 178.67 178.698" xml:space="preserve" xmlns:xml="http://www.w3.org/XML/1998/namespace" xmlns="http://www.w3.org/2000/svg" xmlns:xlink="http://www.w3.org/1999/xlink">
  <path fill="#FE6140" d="M53.919,93.606C14.646,53.599,44.743,5.517,89.335,53.232c42.212-41.475,75.028-10.308,36.156,42.576
	C132.097,42.588,48.78,41.854,53.919,93.606z M103.469,76.722c-12.524-10.474-21.266-7.659-28.629,0
	c6.554,3.167,11.382,8.836,14.314,17.251C92.539,88.896,94.66,81.927,103.469,76.722z M122.922,11.757
	c-24.559-16.632-46.695-14.689-67.168,0C11.35,4.037-6.623,17.529,2.167,52.498C0.043,25.776,18.683,18.363,31.163,22.401
	C6.857,38.025,0.65,66.62,31.715,126.375c3.613,6.95,4.659,14.954,2.881,22.583l-6.931,29.74h81.208
	c-0.413-12.768-7.126-31.418-20.853-40.341c-16.722-9.745-43.102-27.916-53.554-42.549C8.021,58.126,22.412-3.842,89.335,30.476
	c31.829-14.441,56.206-13.91,66.253,15.416c7.053,33.744-14.767,62.518-59.46,87.355c1.273,1.195,2.606,2.505,3.938,3.938
	l1.561,1.561l-0.161-0.005c7.503,8.63,14.24,21.361,8.79,39.958h37.58l-5.265-28.033c-1.309-6.971-0.3-14.174,2.836-20.536
	c23.932-48.546,34.956-83.88,1.373-108.094c19.245-5.348,31.891,6.79,30.831,31.565C186.46-2.791,137.419,11.757,122.922,11.757z" class="color c1"/>
</svg>