<svg version="1.1" id="图层_1" x="0px" y="0px" width="161.941px" height="180px" viewBox="0 0 161.941 180" enable-background="new 0 0 161.941 180" xml:space="preserve" xmlns="http://www.w3.org/2000/svg" xmlns:xlink="http://www.w3.org/1999/xlink" xmlns:xml="http://www.w3.org/XML/1998/namespace">
  <path id="XMLID_28_" fill="#002427" d="M121.456,57.75l3.969-5.359C134.355,33.141,109.35,0,109.35,0
	c0.595,9.326-20.244,47.033-20.244,47.033H80.97h-8.136c0,0-20.839-37.707-20.243-47.033c0,0-25.005,33.141-16.077,52.391
	l3.97,5.359L0,109.953l48.818,43.256c0,0,11.908,20.043,32.151,26.791c20.243-6.748,32.15-26.791,32.15-26.791l48.821-43.256
	L121.456,57.75z" class="color c1"/>
  <path fill="#FFFFFF" d="M43.609,37.459l4.021,5.061c0,0-1.043-15.631,2.679-26.795l5.508,33.641l-9.528,5.654
	C46.288,55.02,42.271,44.9,43.609,37.459z M113.913,84.74c0,0-14.189-2.283-21.929,14.885l9.69-3.061
	c3.492-1.104,6.51-3.354,8.562-6.387L113.913,84.74z M118.329,37.459l-4.019,5.061c0,0,1.042-15.631-2.68-26.795l-5.507,33.641
	l9.526,5.654C115.65,55.02,119.668,44.9,118.329,37.459z M69.658,157.572c0,0-12.505-10.715-14.289-17.264l-19.647-5.951
	l13.246-12.059l-26.046-7.145l23.516-18.158c0,0-5.358-8.932-3.771-16.227c0,0,38.303-8.631,38.303,51.797h-8.93
	c0,0-0.299,7.742,8.93,13.102C80.97,145.668,82.459,157.871,69.658,157.572z M69.956,99.625
	C62.217,82.457,48.025,84.74,48.025,84.74l3.679,5.438c2.052,3.033,5.068,5.283,8.561,6.387L69.956,99.625z" class="color c2"/>
</svg>