<svg version="1.1" id="图层_1" x="0px" y="0px" width="195.35px" height="157.8px" viewBox="0 0 195.35 157.8" enable-background="new 0 0 195.35 157.8" xml:space="preserve" xmlns="http://www.w3.org/2000/svg" xmlns:xlink="http://www.w3.org/1999/xlink" xmlns:xml="http://www.w3.org/XML/1998/namespace">
  <path fill="#010C44" d="M137.34,8.4C125.22,3,111.79,0,97.67,0c-14.41,0-28.09,3.12-40.4,8.73C23.49,24.09,0,58.14,0,97.68v0.13
	c0.08,0.35,0.31,1.359,0.66,2.99c0.189,1.02,0.51,2.26,0.899,3.709c0.351,1.461,0.84,3.121,1.4,4.971
	c1.14,3.689,2.68,8.13,4.96,12.99c2.26,4.859,5.189,10.17,8.89,15.609c3.7,5.44,8.29,10.91,13.65,16.17
	c1.229,1.211,2.54,2.371,3.85,3.551c-8.39-9.041-15.22-19.69-19.649-31.26C8.74,111.089,5.79,94,9.4,77.56
	c1.65-8.22,5.591-15.78,10.19-22.69c4.61-6.9,11.84-12.82,20.39-14.46c8.54-1.64,17.42,0.66,24.65,5.59
	c3.62,2.3,6.58,5.26,9.54,8.55c2.3,2.63,4.27,4.93,5.91,7.89c0.989,1.31,2.31,2.3,3.949,2.63c0.99,0,1.971,0.32,2.961,0.32
	c0,2.96,0.56,14.8,4.93,17.43c-2.24-6.67,1.64-17.1,1.64-17.1c1.65,0,3.62,0.33,5.92,0.33s4.271,0,5.92-0.33
	c0,0,4.44,11.44,1.641,17.1c4.739-3.189,4.93-14.47,4.93-17.43c0.99,0,1.98-0.32,2.96-0.32c1.65-0.33,2.96-1.32,3.95-2.63
	c1.64-2.96,3.61-5.26,5.91-7.89c2.96-3.29,5.92-6.25,9.54-8.55c7.229-4.6,16.109-7.23,24.649-5.59
	c8.55,1.64,15.79,7.56,20.391,14.46c4.6,6.91,8.55,14.47,10.189,22.69c1.28,5.8,1.53,11.68,1.061,17.54
	c-0.011,0.659-0.04,1.319-0.07,1.97c-0.56,10.26-3.43,20.23-7.5,29.53l-0.01,0.03c-0.99,2.3-2.05,4.59-3.19,6.83
	c-0.02,0.06-0.05,0.109-0.08,0.17c-2.62,5.709-5.46,10-9.12,14.27l-0.01,0.01l-0.41,0.5l-0.319,0.391c-0.24,0.3-0.48,0.6-0.74,0.89
	l-1.38,1.729c4.199-4.379,7.699-8.869,10.739-13.34c3.7-5.439,6.631-10.75,8.891-15.609c2.28-4.86,3.82-9.301,4.97-12.99
	c0.561-1.85,1.04-3.51,1.4-4.971c0.38-1.449,0.699-2.689,0.899-3.709c0.351-1.641,0.58-2.68,0.66-3.021v-0.1
	C195.35,57.86,171.52,23.6,137.34,8.4z M80.81,49.22c-4.28-1.51-4.34-8.479-4.01-9.8c0,0,1.28,3.95,4.57,5.69
	c3.279,1.74,6.6,5.66,6.6,5.66S85.08,50.73,80.81,49.22z M117.96,48.43c-4.311,1.51-7.17,1.55-7.17,1.55s3.29-3.92,6.569-5.66
	c3.29-1.74,4.57-5.69,4.57-5.69C122.26,39.95,122.23,46.92,117.96,48.43z" class="color c1"/>
</svg>