<svg version="1.1" id="图层_1" x="0px" y="0px" width="167.87px" height="55.073px" viewBox="0 0 167.87 55.073" enable-background="new 0 0 167.87 55.073" xml:space="preserve" xmlns="http://www.w3.org/2000/svg" xmlns:xlink="http://www.w3.org/1999/xlink" xmlns:xml="http://www.w3.org/XML/1998/namespace">
  <g>
    <path fill-rule="evenodd" clip-rule="evenodd" fill="#78787B" d="M151.227,30.737c-11.555-0.308-22.48-0.596-33.402-0.885
		l50.046,17.543l-0.01-0.027l-16.634-16.634C151.227,30.735,151.227,30.736,151.227,30.737z" class="color c1"/>
    <path fill="#F2F2F3" d="M103.577,7.655c-2.072,1.29-5.896,4.718-5.896,4.718l0,0C90.293,18.823,80.943,39.099,59.4,41.396
		c-13.128,1.313-31.833-4.266-43.647-5.906C3.938,33.848,0,41.725,0,41.725c0.82,1.149,1.969-0.656,5.086-1.477
		c3.118-0.821,11.979,2.133,11.979,2.133s22.972,9.188,24.612,9.845c1.641,0.656,24.777,8.696,41.679-5.579
		c13.291-11.65,28.059-22.48,28.059-22.48l32.058-1.188L120.492,0C118.383,0.786,108.597,4.182,103.577,7.655z" class="color c2"/>
  </g>
</svg>