<svg version="1.1" id="图层_1" x="0px" y="0px" width="175.637px" height="180px" viewBox="0 0 175.637 180" enable-background="new 0 0 175.637 180" xml:space="preserve" xmlns="http://www.w3.org/2000/svg" xmlns:xlink="http://www.w3.org/1999/xlink" xmlns:xml="http://www.w3.org/XML/1998/namespace">
  <path fill="#7C644D" d="M175.632,62.488c-0.081-2.837-2.193-5.199-4.999-5.602c-2.819-0.395-5.496,1.27-6.375,3.962
	c-0.084,0.273-9.075,27.059-33.318,27.059c-16.818,0-27.068-12.548-31.944-20.665c16.825-4.861,22.953-23.246,23.777-33.657
	c0.184-2.391-1.104-4.652-3.264-5.704c-9.738-4.743-19.801-7.148-29.922-7.148c-17.374,0-28.884,7.164-29.362,7.466
	c-1.83,1.154-2.862,3.229-2.695,5.388c0.843,10.629,7.195,29.585,24.839,33.959c-3.643,8.234-13.13,21.92-36.127,21.92
	c-31.366,0-34.494-26.275-34.608-27.363c-0.299-3.136-3.076-5.493-6.162-5.267c-3.136,0.191-5.561,2.842-5.468,5.983
	c0.076,2.561,2.411,62.854,56.02,81.82C56.197,164.169,71.433,180,90.15,180c18.76,0,34.029-15.907,34.134-35.501
	C176.757,125.296,175.648,63.132,175.632,62.488z M56.008,132.146c-19.991-8.424-30.978-23.998-37.019-38.295
	c6.783,4.359,15.701,7.271,27.248,7.271c3.478,0,6.708-0.291,9.771-0.782V132.146z M69.74,36.423
	c3.855-1.675,10.894-4.032,19.845-4.032c7.008,0,14.03,1.424,20.933,4.231c-1.478,6.879-6.167,20.203-20.365,20.203
	C75.804,56.826,71.162,43.226,69.74,36.423z M124.291,131.932V99.059c2.13,0.315,4.332,0.51,6.648,0.51
	c13.049,0,22.688-5.392,29.587-11.943C156.163,103.255,146.316,122.206,124.291,131.932z M63.139,6.414
	c0.271-3.208-2.116-6.025-5.32-6.294C36.268-1.69,20.758,17.821,20.105,18.654c-1.98,2.53-1.532,6.179,0.987,8.167
	c1.066,0.836,2.336,1.246,3.602,1.246c1.725,0,3.426-0.763,4.579-2.215c0.123-0.158,12.368-15.31,27.575-14.113
	C60.051,12.033,62.871,9.618,63.139,6.414z M151.817,25.852c1.154,1.461,2.854,2.223,4.587,2.223c1.258,0,2.52-0.407,3.59-1.237
	c2.529-1.985,2.977-5.65,0.994-8.184C160.342,17.821,144.828-1.7,123.27,0.12c-3.201,0.269-5.582,3.086-5.318,6.294
	c0.27,3.204,3.066,5.619,6.29,5.325C139.433,10.53,151.692,25.693,151.817,25.852z M49.563,54.108c-2.997,0-5.439,2.442-5.439,5.442
	c0,2.998,2.442,5.435,5.439,5.435s5.438-2.437,5.438-5.434C55.001,56.55,52.56,54.108,49.563,54.108z M57.339,80.526
	c2.996,0,5.434-2.438,5.434-5.435c0-3.001-2.434-5.439-5.434-5.439c-3.006,0-5.446,2.438-5.446,5.439
	C51.894,78.086,54.334,80.526,57.339,80.526z M32.464,75.089c0,2.997,2.44,5.435,5.438,5.435c3.001,0,5.442-2.438,5.442-5.435
	c0-3.002-2.441-5.439-5.442-5.439C34.905,69.65,32.464,72.09,32.464,75.089z M133.417,54.108c-3.001,0-5.438,2.442-5.438,5.442
	c0,2.998,2.438,5.435,5.438,5.435c2.998,0,5.432-2.437,5.432-5.434C138.848,56.55,136.416,54.108,133.417,54.108z M141.188,80.526
	c2.996,0,5.438-2.438,5.438-5.435c0-3.001-2.442-5.439-5.438-5.439c-2.997,0-5.44,2.438-5.44,5.439
	C135.748,78.086,138.191,80.526,141.188,80.526z M121.758,69.65c-2.999,0-5.438,2.438-5.438,5.439c0,2.997,2.439,5.435,5.438,5.435
	c3,0,5.438-2.438,5.438-5.435C127.197,72.09,124.758,69.65,121.758,69.65z" class="color c1"/>
  <path fill="#DB6339" d="M113.006,96.073v48.229c0,13.462-10.251,24.412-22.855,24.412s-22.856-10.95-22.856-24.412V97.229
	c7.207-2.924,12.882-7.205,17.215-11.947v49.936c0,3.116,2.525,5.643,5.643,5.643s5.642-2.525,5.642-5.643V82.572
	c4.338,4.988,10.031,9.908,17.254,13.171C113.039,95.854,113.006,95.956,113.006,96.073z" class="color c2"/>
</svg>