<svg version="1.1" id="图层_1" x="0px" y="0px" width="93.389px" height="114.31px" viewBox="0 0 93.389 114.31" enable-background="new 0 0 93.389 114.31" xml:space="preserve" xmlns="http://www.w3.org/2000/svg" xmlns:xlink="http://www.w3.org/1999/xlink" xmlns:xml="http://www.w3.org/XML/1998/namespace">
  <path fill="#FF9BA1" d="M92.022,65.225c-0.21,26.267-25.77,50.304-47,47c-14.867-2.314-23.568-17.407-25-20
	c-7.895-14.293-4.752-28.52-3-36c1.354-5.781,8.12-34.663,27-39C64.074,12.618,92.244,37.454,92.022,65.225z" class="color c1"/>
  <path fill="#1F1847" d="M44.278,114.31c-0.949,0-1.899-0.029-2.849-0.089c-3.651-0.227-13.197-0.819-22.313-7.472
	C7.152,98.018,0.728,81.876,0.023,58.77C-0.658,36.431,13.97,3.356,39.339,0.235c26.58-3.266,48.011,28.193,52.653,51.192l0,0
	c3.11,15.41,1.021,28.905-6.21,40.11C76.718,105.585,60.665,114.31,44.278,114.31z M43.217,2.998c-1.16,0-2.329,0.07-3.512,0.216
	C16.367,6.084,2.39,37.981,3.022,58.678c0.675,22.133,6.685,37.491,17.863,45.647c8.408,6.136,17.318,6.689,20.673,6.897
	c16.342,1.029,32.694-7.349,41.704-21.313c6.792-10.524,8.74-23.272,5.79-37.89l1.47-0.297l-1.47,0.297
	C84.845,31.178,66.398,2.998,43.217,2.998z" class="color c2"/>
</svg>