<svg version="1.1" id="图层_1" x="0px" y="0px" width="158.357px" height="71.088px" viewBox="0 0 158.357 71.088" enable-background="new 0 0 158.357 71.088" xml:space="preserve" xmlns="http://www.w3.org/2000/svg" xmlns:xlink="http://www.w3.org/1999/xlink" xmlns:xml="http://www.w3.org/XML/1998/namespace">
  <path fill="#BFC1C2" d="M47.737,12.174C40.009,6.65,27.191-1.187,3.626,0.151c3.837,11.474,8.349,28.142,7.435,46.491
	C20.09,35.034,32.807,21.237,47.737,12.174z" class="color c1"/>
  <path fill="#BFC1C2" d="M147.298,46.644c-0.916-18.349,3.597-35.019,7.435-46.493c-23.567-1.338-36.385,6.5-44.113,12.024
	C125.55,21.238,138.268,35.036,147.298,46.644z" class="color c1"/>
  <path fill="#9D9FA2" d="M42.994,15.473c-6.29-4.028-17.333-8.914-31.252-9.421c2.961,10.345,5.017,25.141,5.572,34.422
	L42.994,15.473z" class="color c2"/>
  <path fill="#9D9FA2" d="M115.365,15.473c6.289-4.028,17.332-8.914,31.252-9.421c-2.961,10.345-5.018,25.141-5.572,34.422
	L115.365,15.473z" class="color c2"/>
  <path fill="#BFC1C2" d="M79.177,0.743C41.722,0.743,10.207,44.66,0,60.604c13.97-10.914,31.14-24.627,42.247-24.627
	c16.182,0,24.625,13.965,31.782,34.924c0.025,0.047,0.05,0.094,0.075,0.141l5.072-34.631l5.08,34.678
	c7.175-21.068,15.619-35.111,31.853-35.111c11.108,0,28.279,13.712,42.248,24.628C148.15,44.661,116.634,0.743,79.177,0.743z" class="color c1"/>
</svg>