<svg version="1.1" id="图层_1" x="0px" y="0px" width="146.861px" height="133.854px" viewBox="0 0 146.861 133.854" enable-background="new 0 0 146.861 133.854" xml:space="preserve" xmlns="http://www.w3.org/2000/svg" xmlns:xlink="http://www.w3.org/1999/xlink" xmlns:xml="http://www.w3.org/XML/1998/namespace">
  <path fill="#4F4537" d="M29.261,55.097c-0.031-0.464-0.058-0.924-0.079-1.388c-0.047-0.021-0.091-0.054-0.133-0.104
	c-1.342-1.55-3.061-2.207-5.069-2.373c-1.449-0.12-3.42-0.371-5.693,1.155c-0.167,0.407-0.334,0.819-0.5,1.235
	C21.67,52.095,25.918,52.641,29.261,55.097z M23.688,50.427c2.079,0.123,3.964,0.72,5.443,2.14c-0.02-0.568-0.032-1.138-0.038-1.71
	c0-0.032,0.011-0.059,0.018-0.088c-2.901-1.791-6.252-2.332-9.604-1.519c-0.284,0.75-0.524,1.403-0.72,1.913
	C20.078,50.198,22.175,50.338,23.688,50.427z M29.444,50.046c0.008-0.566,0.021-1.135,0.038-1.699
	c-2.595-1.897-5.755-2.547-8.889-1.86c-0.27,0.653-0.521,1.29-0.75,1.885C23.183,47.692,26.544,48.275,29.444,50.046z
	 M29.828,41.866c0.027-0.393,0.058-0.782,0.088-1.173c-0.942-0.594-1.951-0.969-3.083-1.049c-0.803-0.058-2.263-0.036-3.016,0.547
	c-0.229,0.334-0.454,0.686-0.672,1.054C25.364,40.404,27.799,40.638,29.828,41.866z M29.63,44.917
	c0.04-0.724,0.086-1.446,0.136-2.166c-2.164-1.503-4.955-1.632-7.282-0.335c-0.245,0.455-0.479,0.924-0.706,1.397
	C24.4,42.88,27.125,43.699,29.63,44.917z M135.26,66.605c-2.873-4.848-7.314-8.711-9.641-13.843
	c-0.417-0.921-0.754-1.868-1.052-2.836c0.007-0.051-0.143-0.516-0.202-0.691c-0.005-0.012-0.008-0.021-0.014-0.033
	c-0.137-0.487-0.564-1.62-0.589-1.693c-0.076-0.214-0.167-0.439-0.258-0.672c-0.538-3.438-1.545-6.75-3.148-9.854
	c-1.087-2.103-2.689-3.983-3.563-6.181c-0.035-0.052-0.07-0.104-0.105-0.155c-1.613-2.59-2.205-6.087-2.864-9.229
	c-1.824-2.946-4.899-5.09-7.842-7.046C96.967,8.376,87.549,2.333,76.87,0.54c-10.575-1.777-21.717,0.919-30.682,6.8
	c-8.967,5.883-15.771,14.813-19.693,24.797c0,0-0.876,1.703-1.456,2.353c-0.699,0.781-1.535,1.397-2.316,2.064
	c-1.835,3.434-3.67,6.868-5.507,10.301c-1.048,3.161-2.438,6.185-4.05,9.101c-1.534,4.471-4.289,8.337-7.168,12.118
	c-2.492,5.18-4.478,10.563-4.668,16.258c-0.217,6.466,1.833,13.393-0.959,19.179c-0.372,1.765-0.529,3.594-0.163,5.361
	c0.241,1.172,0.738,2.16,1.375,3.058c7.068,5.59,14.139,11.176,21.208,16.764c2.272,1.797,4.605,3.628,7.354,4.544
	c7.601,2.535,16.09-3.08,19.151-10.483c3.001-7.261,1.953-15.54-0.119-23.136c-0.005-0.25,0.016-0.501,0.135-0.71
	c0.124-0.217,0.398-0.391,0.632-0.242c0.109,0.068,0.731,0.995,1.011,1.428c0.369,0.568,0.811,1.085,1.307,1.543
	c0-0.423,0-0.846,0-1.27c-0.881-1.106-1.475-2.451-2.033-3.952c-0.167-0.452-0.341-0.88-0.535-1.286
	c0.062-0.326,0.121-0.652,0.184-0.98c0.01-0.004,0.019-0.012,0.032-0.015c0.046-0.015,0.178-0.04,0.292-0.036
	c1.087,1.571,2.198,3.127,3.417,4.567c1.146,1.359,2.325,1.822,4.064,1.355c2.364-0.636,4.451-2.151,6.117-3.908
	c1.173-1.032,2.238-2.093,3.084-2.787c0.176-0.146,0.354-0.289,0.532-0.437c3.103-0.527,6.105,0.149,9.159,0.504
	c0.145,0.018,0.291,0.033,0.436,0.05c0.765,0.08,1.533,0.134,2.308,0.139c0.108,0,0.217-0.008,0.325-0.012
	c0.229-0.003,0.457-0.008,0.685-0.021c1.172-0.072,2.311-0.285,3.443-0.668c2.493-0.841,4.784-2.436,7.461-1.411
	c1.767,1.915,2.604,4.369,4.356,6.334c0.319,0.356,0.668,0.667,1.043,0.924c0.223,0.476,0.117,1.063-0.314,1.426
	c-0.105,0.089-0.137,0.193-0.127,0.292c-0.832,0.233-1.673,0.311-2.508,0.236c0.019,0.287,0.035,0.576,0.062,0.864
	c0.909,0.045,1.795-0.059,2.639-0.303c0.377,0.117,0.719,0.098,1.146,0.067c0.406-0.027,0.79,0.029,1.126,0.187
	c0.247,0.317,0.466,0.654,0.651,1.01c0.176,2.341,1.349,4.54,2.125,6.788c2.17,6.28,1.651,14.091,6.723,18.383
	c1.589,1.344,3.461,2.079,5.452,2.343c2.331,0.621,4.734,0.643,7.032,0.071c1.605-0.18,3.111-0.664,4.482-1.438
	c3.575-1.456,6.588-4.205,8.396-7.932c2.525-2.191,5.077-4.336,8.001-5.934c3.017-1.647,4.067-2.436,4.676-5.815
	c0.492-2.746,1.295-6.024-0.157-8.407C139.81,90.371,141.35,76.875,135.26,66.605z M125.705,61.86
	c3.317,3.807,5.918,8.056,7.805,12.741c0.189,0.472-0.571,0.674-0.757,0.209c-1.837-4.563-4.368-8.687-7.604-12.395
	C124.816,62.036,125.37,61.477,125.705,61.86z M125.2,65.345c2.687,2.943,4.729,6.302,6.113,10.039
	c0.177,0.477-0.584,0.679-0.758,0.209c-1.341-3.61-3.315-6.845-5.913-9.691C124.303,65.531,124.859,64.972,125.2,65.345z
	 M129.059,76.242c0.219,0.453-0.461,0.853-0.68,0.396c-1.48-3.063-3.267-5.939-5.373-8.613c-0.313-0.392,0.242-0.95,0.557-0.555
	C125.712,70.198,127.547,73.112,129.059,76.242z M121.463,70.041c-0.289-0.418,0.394-0.813,0.68-0.396
	c1.621,2.345,3.126,4.762,4.516,7.252c0.249,0.442-0.434,0.838-0.679,0.398C124.59,74.802,123.083,72.385,121.463,70.041z
	 M122.418,76.79c-0.662-1.563-1.517-3.021-2.576-4.347c-0.314-0.392,0.238-0.951,0.556-0.557c1.105,1.38,2.012,2.874,2.701,4.505
	C123.293,76.853,122.615,77.253,122.418,76.79z M32.328,24.175c0.216,0.15,0.432,0.304,0.646,0.457
	c-0.3,0.504-0.587,1.015-0.862,1.533c-0.216-0.151-0.434-0.303-0.65-0.454C31.739,25.193,32.027,24.68,32.328,24.175z M43.91,73.814
	c0.157,0.481-0.602,0.688-0.759,0.207c-1.167-3.589-3.563-6.528-5.136-9.926c-1.36-2.934-2.23-6.07-2.801-9.247
	c-0.211-1.188-0.374-2.382-0.505-3.576c0.276,0.109,0.547,0.234,0.82,0.354c0.436,3.58,1.176,7.129,2.49,10.49
	C39.624,66.212,42.546,69.625,43.91,73.814z M73.826,23.752c-0.14-0.265-0.271-0.528-0.411-0.79c0.204-0.178,0.409-0.352,0.61-0.527
	c0.159,0.298,0.311,0.599,0.467,0.896C74.268,23.47,74.04,23.604,73.826,23.752z M74.855,24.035c0.23,0.454,0.453,0.913,0.672,1.371
	c-0.235,0.111-0.469,0.228-0.7,0.352c-0.209-0.435-0.418-0.867-0.638-1.299C74.408,24.312,74.633,24.173,74.855,24.035z
	 M73.634,26.42c-0.228,0.135-0.45,0.271-0.676,0.411c-0.175-0.328-0.357-0.654-0.54-0.979c0.2-0.177,0.406-0.346,0.612-0.515
	C73.236,25.698,73.439,26.058,73.634,26.42z M72.023,25.157c-0.056-0.098-0.106-0.192-0.164-0.289
	c-0.071-0.124-0.151-0.244-0.226-0.365c0.199-0.179,0.396-0.354,0.599-0.528c0.136,0.224,0.272,0.444,0.404,0.668
	C72.428,24.809,72.225,24.983,72.023,25.157z M71.66,26.543c0.175,0.266,0.34,0.535,0.509,0.802
	c-0.218,0.146-0.434,0.294-0.647,0.445c-0.145-0.232-0.291-0.462-0.438-0.693C71.273,26.912,71.467,26.726,71.66,26.543z
	 M70.64,26.431c-0.14-0.206-0.284-0.41-0.428-0.614c0.188-0.185,0.382-0.365,0.574-0.547c0.146,0.205,0.285,0.409,0.427,0.614
	C71.02,26.066,70.828,26.247,70.64,26.431z M70.507,22.716c-0.157-0.242-0.317-0.481-0.479-0.719
	c0.18-0.207,0.357-0.411,0.539-0.616c0.213,0.312,0.419,0.628,0.627,0.943C70.962,22.451,70.731,22.579,70.507,22.716z
	 M69.569,21.333c-0.22-0.313-0.44-0.621-0.666-0.93c0.162-0.222,0.331-0.437,0.496-0.654c0.239,0.319,0.473,0.646,0.704,0.974
	C69.924,20.925,69.747,21.129,69.569,21.333z M68.417,19.752c-0.28-0.37-0.56-0.737-0.848-1.1c0.172-0.201,0.344-0.404,0.524-0.599
	c0.277,0.345,0.55,0.691,0.819,1.045C68.749,19.318,68.582,19.534,68.417,19.752z M67.064,18.039
	c-1.457-1.777-3.014-3.474-4.673-5.075c-0.365-0.352,0.191-0.905,0.558-0.556c1.644,1.59,3.198,3.264,4.647,5.023
	C67.411,17.626,67.241,17.833,67.064,18.039z M62.419,16.654c0.307,0.403-0.375,0.794-0.679,0.398
	c-0.818-1.067-1.743-2.039-2.757-2.92c-0.382-0.331,0.176-0.885,0.558-0.556C60.605,14.502,61.559,15.534,62.419,16.654z
	 M61.72,18.741c0.271,0.43-0.409,0.822-0.679,0.396c-1.189-1.877-2.806-3.357-4.771-4.393c-0.448-0.235-0.051-0.912,0.399-0.678
	C58.749,15.162,60.464,16.756,61.72,18.741z M61.128,20.451c0.3,0.406-0.384,0.801-0.679,0.396
	c-1.863-2.541-4.501-4.254-7.567-4.965c-0.493-0.115-0.283-0.871,0.209-0.759C56.37,15.883,59.14,17.74,61.128,20.451z
	 M50.372,30.616c0.189,0.052,0.36,0.148,0.47,0.313c0.223,0.333,0.165,0.861,0.027,1.21c-0.247,0.626-0.849,1.007-1.478,0.952
	c-0.7-0.398-1.161-1.098-1.266-1.899c-0.024-0.171-0.028-0.348-0.019-0.525c0.041-0.085,0.078-0.171,0.108-0.26
	c0.059-0.104,0.125-0.203,0.191-0.302c0.016-0.007,0.028-0.007,0.045-0.014c0.613-0.347,1.254-0.607,1.935-0.792
	c0.001,0,0.001-0.002,0.002-0.002c0.592-0.027,1.175,0,1.743,0.088c0.957,0.418,1.356,1.607,0.955,2.538c-0.003,0-0.008,0-0.011,0
	c-0.255-0.99-1.146-1.723-2.217-1.723c-0.306,0-0.597,0.062-0.862,0.171C50.146,30.432,50.27,30.516,50.372,30.616z M45.991,33.928
	c-0.479-0.411-0.886-0.897-1.181-1.451c0.098-0.222,0.25-0.407,0.48-0.539c0.094-0.054,0.144-0.13,0.168-0.209
	c0.027-0.016,0.052-0.027,0.075-0.042C45.436,32.471,45.602,33.26,45.991,33.928z M45.918,35.134
	c0.848,0.701,1.706,1.391,2.583,2.06c0.396,0.303,0.007,0.983-0.398,0.678c-1.595-1.216-3.147-2.48-4.657-3.805
	c-0.096-0.082-0.132-0.181-0.127-0.274C44.152,34.312,45.019,34.759,45.918,35.134z M47.215,34.196
	c-0.826-0.738-1.141-1.906-0.769-2.991c0.007-0.018,0.004-0.03,0.007-0.048c0.186-0.106,0.371-0.219,0.557-0.324
	c0.015-0.009,0.031-0.019,0.046-0.026C46.594,31.96,46.696,33.184,47.215,34.196z M51.917,36.744
	c1.488-0.338,3.199-0.728,4.418-1.688c0.391-0.308,0.669-0.678,0.86-1.078c0.038-0.028,0.076-0.062,0.107-0.107
	c0.2-0.291,0.399-0.588,0.601-0.883c0.108,0.153,0.208,0.309,0.308,0.468c-0.091,0.494-0.274,0.976-0.579,1.405
	c-1.179,1.662-3.645,2.22-5.507,2.642C51.633,37.615,51.425,36.854,51.917,36.744z M54.487,30.48
	c-0.007-0.119,0.1-0.111,0.227-0.053c0.324,0.158,0.635,0.336,0.938,0.523c0.242,0.223,0.459,0.473,0.649,0.742
	c0.041,0.684-0.271,1.377-0.748,1.881c-0.205,0.215-0.439,0.391-0.685,0.551C55.282,32.918,55.156,31.593,54.487,30.48z
	 M57.183,26.453c-0.265-0.221-0.548-0.426-0.839-0.617c-0.112-0.361-0.219-0.728-0.312-1.095c0.317,0.183,0.628,0.384,0.928,0.599
	C57.03,25.71,57.102,26.083,57.183,26.453z M55.346,25.246c-0.297-0.155-0.597-0.302-0.904-0.431
	c-0.168-0.346-0.335-0.69-0.504-1.037c0.397,0.14,0.793,0.308,1.185,0.49c0.006,0.037,0.011,0.078,0.018,0.108
	C55.196,24.668,55.268,24.957,55.346,25.246z M52.919,23.476c0.156,0.322,0.312,0.645,0.469,0.966
	c-0.703-0.216-1.407-0.362-2.08-0.422c-0.011-0.048-0.021-0.099-0.033-0.149c-0.048-0.225-0.096-0.45-0.144-0.673
	c0.263,0.012,0.53,0.03,0.8,0.074C52.256,23.319,52.586,23.391,52.919,23.476z M56.843,29.5c0.272,0.577,0.544,1.158,0.816,1.733
	c0.022,0.049,0.044,0.099,0.067,0.146c-0.016,0.021-0.033,0.046-0.047,0.067c-0.293-0.314-0.918-0.955-0.9-0.99
	c-1.689-1.395-3.422-2.162-5.864-2.02c-0.379-0.024-0.751-0.036-1.109-0.027c-1.166,0.021-2.279,0.231-3.33,0.6
	c-0.71,0.153-1.407,0.37-2.082,0.644c1.854-1.203,3.997-1.798,6.273-1.987C53.233,27.454,55.079,28.151,56.843,29.5z M49.948,24.019
	c-2.082,0.211-3.925,1.519-5.525,3.084c-0.668,0.281-1.316,0.599-1.951,0.942c2.135-2.386,4.694-4.616,7.829-4.837
	c0.063,0.256,0.14,0.511,0.189,0.74c0.003,0.015,0.007,0.028,0.009,0.043C50.313,23.996,50.127,24,49.948,24.019z M47.053,38.327
	c0.445,0.24,0.046,0.921-0.396,0.677c-1.848-1.009-3.462-2.34-4.805-3.964c-0.318-0.389,0.233-0.945,0.558-0.558
	C43.71,36.056,45.26,37.343,47.053,38.327z M32.577,43.987c-0.011-0.28-0.024-0.563-0.043-0.842
	c-0.093-1.231-0.313-2.438-0.71-3.602c-0.222-0.638-0.495-1.262-0.834-1.872c-0.199-0.359-0.421-0.715-0.666-1.063
	c-0.106-0.151-0.215-0.303-0.332-0.45c-0.1-0.129-0.104-0.272-0.061-0.396c0.061-0.176,0.219-0.302,0.383-0.292
	c0.035,0.003,0.071,0.005,0.105,0.023c0.044,0.021,0.089,0.055,0.128,0.105c0.301,0.386,0.571,0.781,0.813,1.181
	c0.14,0.227,0.269,0.453,0.39,0.684c0.007,0.016,0.015,0.028,0.022,0.043c0.072,0.139,0.142,0.278,0.207,0.421
	c0.127,0.271,0.244,0.54,0.351,0.813c0.1,0.261,0.19,0.521,0.272,0.786c0.095,0.294,0.176,0.592,0.248,0.894
	c0.132,0.545,0.23,1.097,0.303,1.654c0.032,0.256,0.061,0.512,0.083,0.768c0.009,0.081,0.015,0.165,0.021,0.246
	c0.045,0.608,0.059,1.225,0.055,1.844c-0.002,0.108-0.002,0.218-0.003,0.327c-0.018,0.779-0.066,1.563-0.135,2.351
	c-0.011,0.148-0.026,0.298-0.039,0.446c-0.056,0.583-0.121,1.168-0.19,1.749c-0.029,0.266-0.063,0.532-0.095,0.796
	c-0.106,0.888-0.22,1.773-0.313,2.649c-0.9,8.278,1.646,16.045,4.373,23.746c0.171,0.479-0.591,0.684-0.758,0.21
	c-2.137-6.043-4.32-12.246-4.604-18.701c-0.017-0.399-0.029-0.798-0.033-1.198c-0.013-2.235,0.317-4.578,0.617-6.935
	c0.032-0.256,0.065-0.514,0.096-0.771c0.022-0.182,0.045-0.363,0.065-0.548c0.01-0.078,0.017-0.154,0.026-0.234
	c0.104-0.909,0.188-1.818,0.234-2.722C32.588,45.39,32.6,44.686,32.577,43.987z M34.621,50.401c-0.055-0.56-0.104-1.119-0.148-1.683
	c0.263,0.112,0.528,0.217,0.791,0.321c0.047,0.562,0.102,1.124,0.162,1.688C35.158,50.615,34.89,50.504,34.621,50.401z
	 M34.403,47.832c-0.05-0.704-0.096-1.408-0.142-2.115c0.273,0.091,0.546,0.183,0.821,0.269c0.048,0.829,0.082,1.57,0.118,2.185
	C34.932,48.06,34.667,47.951,34.403,47.832z M34.204,44.872c-0.031-0.464-0.073-1.03-0.139-1.661c0.278,0.117,0.56,0.23,0.837,0.342
	c0.053,0.544,0.095,1.079,0.128,1.591C34.755,45.053,34.479,44.962,34.204,44.872z M33.963,42.312
	c-0.065-0.517-0.148-1.058-0.247-1.604c0.284,0.059,0.57,0.106,0.846,0.161c0.101,0.601,0.184,1.205,0.25,1.801
	C34.527,42.554,34.245,42.435,33.963,42.312z M34.167,39.968c-0.159-0.035-0.318-0.073-0.479-0.107
	c-0.058-0.037-0.109-0.063-0.159-0.076c-0.074-0.335-0.156-0.668-0.248-0.994c0.28,0.009,0.563,0.009,0.844,0.003
	c0.105,0.401,0.199,0.813,0.283,1.231C34.328,40.002,34.248,39.986,34.167,39.968z M33.04,37.998
	c-0.14-0.403-0.291-0.788-0.461-1.148c0.227-0.156,0.461-0.307,0.694-0.452c0.241,0.497,0.449,1.042,0.627,1.614
	C33.615,38.011,33.327,38.007,33.04,37.998z M31.093,26.41c0.217,0.15,0.434,0.302,0.651,0.452
	c-0.174,0.348-0.339,0.698-0.499,1.053c-0.234-0.12-0.476-0.226-0.722-0.32C30.707,27.194,30.895,26.798,31.093,26.41z
	 M30.202,28.313c0.248,0.094,0.489,0.198,0.721,0.32c-0.174,0.405-0.344,0.815-0.502,1.229c-0.263-0.05-0.533-0.082-0.801-0.104
	C29.804,29.27,29.999,28.789,30.202,28.313z M29.34,30.527c0.273,0.012,0.542,0.041,0.807,0.085
	c-0.126,0.354-0.243,0.714-0.356,1.074c-0.195,0.126-0.399,0.213-0.618,0.274c-0.023,0.005-0.042,0.009-0.064,0.014
	c-0.021,0.005-0.041,0.01-0.063,0.013c-0.004-0.03-0.01-0.063-0.016-0.097c-0.014-0.107-0.018-0.218-0.027-0.324
	C29.113,31.215,29.221,30.87,29.34,30.527z M28.298,32.43c0.104,0.435,0.212,0.869,0.315,1.303c0.024,0.1,0.049,0.197,0.073,0.299
	c0.091,0.371,0.182,0.743,0.273,1.117c-0.02-0.004-0.037-0.007-0.056-0.012c-0.083-0.02-0.166-0.038-0.25-0.05
	c-0.087-0.015-0.175-0.024-0.266-0.031c-0.104-0.012-0.208-0.016-0.313-0.017c-0.298-0.005-0.594,0.019-0.885,0.078
	C27.619,34.229,27.958,33.279,28.298,32.43z M25.611,126.292c-2.685-1.694-5.32-3.465-7.905-5.314
	c-2.609-1.867-5.165-3.811-7.663-5.825c-1.9-1.534-4.271-3.09-5.539-5.236c-1.292-2.184-0.518-4.03,0.149-6.293
	c1.009-3.422,0.987-6.903,0.665-10.422c-0.562-6.106-2.034-12.529,0.164-18.49c1.076-2.921,3.158-5.172,4.968-7.642
	c2.031-2.772,3.289-5.911,4.617-9.059c1.217-2.884,3.897-9.432,3.986-9.457c0.11-0.259,0.218-0.518,0.329-0.776
	c0.162-0.385,2.612-6.374,3.394-7.672c0.729-1.21,1.84-2.32,3.091-2.986c0.218-0.224,0.416-0.472,0.598-0.733
	c0.335-0.11,0.669-0.143,0.994-0.113c0.104,0.009,0.207,0.022,0.307,0.045c1.061,0.224,2.01,1.088,2.655,2.122
	c0.085,0.142,0.168,0.279,0.243,0.424c0.224,0.66,0.403,1.327,0.548,2.003c0.059,0.664,0.112,1.327,0.152,1.988
	c0.002,0.018,0.002,0.029,0.004,0.046c-0.038,1.015-0.157,2.033-0.229,3.014c-0.042,0.588-0.074,1.176-0.113,1.762
	c-0.142,1.067-0.329,3.601-0.444,3.735c-0.188,1.831-0.327,3.675-0.389,5.511c0.084,0.913,0.18,1.825,0.296,2.733
	c0.196,1.521,0.44,3.03,0.729,4.532c0.188,0.981,0.396,1.96,0.626,2.935c0.861,3.681,1.999,7.301,3.418,10.841
	c0.189,0.468-0.572,0.673-0.757,0.208c-1.342-3.345-2.435-6.76-3.278-10.229c-0.295-1.216-0.56-2.438-0.793-3.667
	c0,0.021,0,0.037,0,0.055c-0.096,0.012-0.2-0.022-0.288-0.126c-1.804-2.152-3.703-4.364-6.426-5.335
	c-0.474-0.168-0.268-0.928,0.209-0.758c2.625,0.936,4.515,2.89,6.279,4.954c-0.17-0.979-0.317-1.966-0.448-2.953
	c-1.521-1.831-3.215-3.757-5.735-3.986c-0.501-0.046-0.505-0.831,0-0.784c2.37,0.215,4.065,1.68,5.563,3.368
	c-0.099-0.854-0.185-1.706-0.251-2.563c-3.308-2.758-7.781-3.388-11.727-1.604c-0.067,0.03-0.133,0.036-0.193,0.034
	c-1.64,4.171-3.254,8.534-5.754,12.153c-1.458,2.109-3.262,3.98-4.505,6.233c-1.444,2.618-1.974,5.542-2.038,8.503
	C5.01,86.313,6.544,95.884,6.651,96.012c2.907,3.524,6.423,6.357,10.484,8.446c0.449,0.23,0.052,0.908-0.397,0.679
	c-4.02-2.064-7.513-4.856-10.419-8.309c0.001,0.085,0.005,0.17,0.005,0.254c0.002,0.416-0.01,0.831-0.024,1.243
	c0.036,0.027,0.072,0.062,0.102,0.108c2.341,3.785,5.74,6.657,9.876,8.308c0.466,0.186,0.263,0.945-0.208,0.758
	c-4.058-1.618-7.417-4.333-9.847-7.931c-0.035,0.389-0.081,0.771-0.134,1.156c0.121,0.023,0.222,0.104,0.248,0.271
	c0.609,3.918,5.676,6.887,8.959,8.382c0.461,0.21,0.061,0.889-0.397,0.679c-3.18-1.449-7.829-4.215-9.064-7.865
	c-0.116,0.55-0.254,1.095-0.417,1.635c-0.009,0.028-0.02,0.061-0.028,0.09c0.138-0.021,0.286,0.023,0.38,0.177
	c1.984,3.195,4.607,5.83,7.79,7.83c0.428,0.271,0.032,0.951-0.397,0.68c-3.251-2.042-5.945-4.738-7.989-7.983
	c-0.15,0.483-0.292,0.963-0.397,1.444c0.071,0.026,0.137,0.067,0.189,0.144c2.034,2.952,4.604,5.398,7.646,7.297
	c0.428,0.268,0.034,0.947-0.397,0.678c-2.989-1.865-5.53-4.254-7.583-7.104c-0.034,0.467-0.022,0.943,0.077,1.444
	c0.281,1.43,1.899,2.726,2.957,3.642c4.169,3.614,8.625,6.929,13.173,10.046c2.228,1.523,4.49,2.995,6.791,4.41
	c0.499,0.305,0.989,0.622,1.478,0.925c-0.01,0.38,0.009,0.759,0.063,1.134C27.897,127.885,26.688,126.973,25.611,126.292z
	 M29.505,69.534c-1.541-0.813-2.874-1.917-3.953-3.284c-0.31-0.395,0.243-0.953,0.557-0.559c1.041,1.319,2.308,2.378,3.792,3.163
	C30.349,69.092,29.951,69.77,29.505,69.534z M29.419,71.689c-1.078-0.352-2.034-0.932-2.835-1.731
	c-0.358-0.358,0.198-0.912,0.557-0.557c0.707,0.703,1.537,1.22,2.487,1.527C30.107,71.084,29.9,71.843,29.419,71.689z
	 M30.031,66.981c-1.706-1.604-3.483-3.131-5.326-4.577c-0.398-0.313,0.163-0.862,0.556-0.556c1.786,1.399,3.505,2.875,5.162,4.425
	c0.001,0.264,0.007,0.524,0.01,0.786C30.305,67.109,30.158,67.1,30.031,66.981z M17.531,84.206c0.396,0.313-0.163,0.866-0.557,0.556
	c-1.429-1.133-2.996-2.05-4.682-2.742c-0.462-0.189-0.257-0.947,0.209-0.758C14.321,82.009,15.989,82.984,17.531,84.206z
	 M13.46,78.866c0.831,0.246,1.602,0.629,2.293,1.151c0.398,0.3,0.006,0.982-0.398,0.68c-0.639-0.484-1.334-0.845-2.104-1.074
	C12.766,79.478,12.974,78.722,13.46,78.866z M17.655,86.431c0.455,0.221,0.056,0.899-0.396,0.679
	c-1.958-0.954-3.919-1.907-5.877-2.862c-0.455-0.222-0.056-0.899,0.397-0.68C13.736,84.524,15.695,85.476,17.655,86.431z
	 M17.773,89.64c0.417,0.282,0.025,0.962-0.396,0.68c-2.018-1.354-4.169-2.394-6.491-3.119c-0.482-0.153-0.275-0.909,0.209-0.76
	C13.472,87.186,15.703,88.25,17.773,89.64z M10.729,88.925c2.422,0.936,4.74,2.08,6.949,3.448c0.43,0.267,0.035,0.944-0.397,0.678
	c-2.151-1.331-4.399-2.454-6.762-3.367C10.053,89.504,10.258,88.744,10.729,88.925z M10.309,91.305
	c2.786,1.04,5.269,2.592,7.417,4.646c0.366,0.35-0.189,0.904-0.556,0.558c-2.051-1.962-4.412-3.45-7.07-4.442
	C9.629,91.889,9.834,91.13,10.309,91.305z M18.184,99.264c0.394,0.321-0.166,0.873-0.556,0.559c-2.698-2.202-5.546-4.18-8.548-5.942
	c-0.437-0.257-0.041-0.937,0.396-0.679C12.536,94.998,15.436,97.021,18.184,99.264z M18.273,102.017
	c0.444,0.244,0.046,0.924-0.396,0.677c-3.603-1.994-6.947-4.352-10.042-7.063c-0.382-0.333,0.176-0.887,0.558-0.555
	C11.438,97.744,14.73,100.051,18.273,102.017z M29.595,73.523c-0.418-0.063-0.836-0.125-1.254-0.188
	c-0.208-0.032-0.327-0.298-0.275-0.484c0.063-0.221,0.272-0.307,0.484-0.274c0.417,0.063,0.835,0.128,1.252,0.189
	c0.211,0.032,0.327,0.299,0.275,0.483C30.014,73.471,29.806,73.556,29.595,73.523z M30.077,129.224
	c-0.104-0.395-0.154-0.789-0.179-1.192c0.635,0.372,1.27,0.707,1.92,0.959c0.024,0.065,0.049,0.131,0.068,0.189
	c0.11,0.336,0.229,0.668,0.346,1.002C31.508,129.958,30.786,129.623,30.077,129.224z M33.541,130.454
	c-0.132-0.014-0.263-0.033-0.394-0.056c-0.058-0.156-0.119-0.311-0.176-0.468c-0.021-0.062-0.131-0.34-0.249-0.653
	c0.357,0.09,0.72,0.147,1.091,0.173c0.304,0.375,0.666,0.693,1.075,0.956C34.432,130.467,33.981,130.492,33.541,130.454z
	 M35.541,129.888c-0.243-0.133-0.463-0.294-0.67-0.473c0.453-0.059,0.922-0.179,1.404-0.364c0.247,0.265,0.504,0.515,0.775,0.757
	C36.607,129.986,35.694,129.974,35.541,129.888z M37.842,129.453c-0.281-0.231-0.548-0.478-0.801-0.735
	c0.422-0.199,0.842-0.411,1.258-0.639c0.243,0.255,0.506,0.491,0.793,0.696C38.681,129.025,38.263,129.248,37.842,129.453z
	 M39.823,128.309c-0.297-0.187-0.576-0.391-0.821-0.629c0.538-0.32,1.066-0.663,1.582-1.03c0.211,0.214,0.423,0.426,0.635,0.64
	C40.768,127.646,40.301,127.99,39.823,128.309z M40.861,90.195c2.268,3.229,3.083,7.813,3.875,11.613
	c0.88,4.209,1.34,8.479,1.463,12.775c0.014,0.507-0.771,0.504-0.786,0c-0.122-4.228-0.568-8.426-1.436-12.566
	c-0.775-3.714-1.584-8.271-3.796-11.426C39.891,90.176,40.573,89.785,40.861,90.195z M41.829,126.788
	c-0.201-0.202-0.405-0.406-0.607-0.609c0.469-0.36,0.923-0.741,1.358-1.142c0.181,0.191,0.361,0.387,0.543,0.579
	C42.716,126.009,42.285,126.403,41.829,126.788z M45.061,123.497c-0.39,0.493-0.857,1.021-1.38,1.563
	c-0.179-0.19-0.357-0.381-0.536-0.57c0.479-0.479,0.932-0.986,1.346-1.518c0.202,0.157,0.396,0.328,0.592,0.494
	C45.074,123.476,45.067,123.488,45.061,123.497z M45.542,122.832c-0.195-0.162-0.385-0.331-0.586-0.485
	c0.421-0.6,0.79-1.228,1.109-1.884c0.184,0.176,0.368,0.352,0.554,0.527C46.316,121.618,45.96,122.232,45.542,122.832z
	 M46.958,120.226c-0.185-0.176-0.368-0.351-0.551-0.526c0.073-0.183,0.151-0.359,0.217-0.55c0.208-0.586,0.373-1.191,0.506-1.813
	c0.203,0.126,0.406,0.25,0.61,0.376C47.555,118.568,47.295,119.406,46.958,120.226z M47.897,116.885
	c-0.204-0.125-0.409-0.253-0.612-0.378c0.688-4.248-0.088-9.07-0.658-13.117c-0.737-5.229-2.153-10.281-5.006-14.77
	c-0.272-0.43,0.407-0.823,0.679-0.398c3.571,5.621,4.908,12.115,5.521,18.666C48.133,110.252,48.436,113.665,47.897,116.885z
	 M44.69,88.473c0.01-0.017,0.021-0.028,0.027-0.047c0.002-0.004,0.003-0.009,0.006-0.015l0,0c0,0.039,0,0.079,0,0.12
	C44.713,88.511,44.701,88.491,44.69,88.473z M49.551,87.531c0.008,0.705-0.097,1.395-0.282,2.063
	c-0.072-0.025-0.145-0.045-0.218-0.061c0.202-2.553-0.452-4.997-1.897-7.154c-0.282-0.421,0.399-0.815,0.68-0.397
	C48.751,83.35,49.546,87.092,49.551,87.531z M80.182,92.783c-3.576,0.174-7.019-0.868-10.549-0.858
	c2.67-0.587,5.719-0.235,8.378-0.176c1.905,0.045,3.683-0.128,5.528-0.556c1.746-0.404,3.488-0.912,5.17-0.769
	C85.875,90.741,83.124,92.637,80.182,92.783z M79.174,60.247c0.842,0,1.654,0.173,2.316,0.68c1.239,0.948,1.477,2.892,0.659,4.224
	s-2.498,2.005-4.047,1.813c-0.56-0.068-0.651-0.343-0.156-0.407c1.374-0.178,2.821-0.975,3.089-2.455
	C81.308,62.584,80.431,61.059,79.174,60.247z M78.1,55.77c0.356-0.438,0.789-0.78,1.353-0.93c0.145-0.038,0.293-0.06,0.439-0.07
	c0.007,0.002,0.009,0.007,0.016,0.009c0.373,0.137,0.729,0.304,1.073,0.489C79.979,55.342,79.025,55.508,78.1,55.77z M81.757,54.417
	c0.319-0.015,0.642-0.015,0.967-0.012c0.186,0.254,0.366,0.515,0.531,0.779c-0.177-0.003-0.354-0.003-0.526,0.001
	C82.449,54.875,82.12,54.615,81.757,54.417z M82.517,84.865c-0.004-0.006-0.009-0.008-0.014-0.012
	c-0.005-0.006-0.018-0.007-0.021-0.014c0.006-0.001,0.017,0,0.023-0.001C82.51,84.847,82.514,84.856,82.517,84.865z M76.381,69.515
	c0.943,0.116,1.879,0.271,2.807,0.473c0.494,0.108,0.283,0.865-0.21,0.757c-0.857-0.187-1.723-0.337-2.597-0.442
	C75.885,70.241,75.88,69.455,76.381,69.515z M76.864,68.712c-0.506-0.009-0.506-0.794,0-0.786c1.311,0.021,2.616,0.042,3.928,0.063
	c0.504,0.009,0.504,0.796,0,0.785C79.482,68.754,78.174,68.732,76.864,68.712z M98.191,97.118c-0.209,0.025-0.424,0.04-0.639,0.046
	c-0.804-0.24-1.504-0.644-2.069-1.216c-0.595-1.035-1.065-2.174-1.523-2.847c-0.886-1.306-1.966-2.441-3.188-3.438
	c-2.049-1.669-4.266-3.162-6.471-4.653c-0.071-0.075-0.162-0.163-0.289-0.291c-0.053-0.054-0.117-0.078-0.184-0.092
	c-0.178-0.274-0.361-0.544-0.554-0.808c-0.015-0.051-0.029-0.102-0.044-0.153c0.88,0.533,1.745,1.088,2.596,1.671
	c0.004-0.021,0.004-0.038,0.014-0.06c0.113-0.223,0.212-0.448,0.303-0.674c-1.033-0.709-2.094-1.373-3.178-2.007
	c-0.083-0.384-0.155-0.77-0.215-1.155c1.242,0.774,2.455,1.587,3.639,2.443c0.081-0.267,0.148-0.536,0.211-0.809
	c-1.291-0.93-2.612-1.81-3.971-2.639c-0.037-0.388-0.063-0.773-0.074-1.164c1.48,0.858,2.889,1.815,4.225,2.872
	c0.054-0.301,0.101-0.602,0.146-0.904c-1.383-1.065-2.841-2.026-4.37-2.89c0.003-0.163,0.016-0.328,0.022-0.493
	c0.006-0.023,0.01-0.047,0.016-0.068c0.004-0.021,0-0.042,0-0.062c1.563,0.784,3.046,1.686,4.447,2.709
	c0.04-0.275,0.08-0.551,0.127-0.827c0-0.012,0.004-0.024,0.006-0.037c-1.426-1.016-2.935-1.917-4.521-2.692
	c0.021-0.18,0.037-0.359,0.062-0.538c0.164-0.008,0.328-0.019,0.492-0.034c0.027,0.03,0.055,0.063,0.098,0.086
	c1.363,0.8,2.692,1.648,3.994,2.539c0.055-0.278,0.106-0.56,0.167-0.839c-1.011-0.684-2.042-1.339-3.089-1.968
	c0.373-0.079,0.74-0.18,1.104-0.298c0.001,0.004,0.005,0.007,0.005,0.011c0.076,0.113,0.182,0.165,0.287,0.177
	c0.646,0.39,1.277,0.802,1.892,1.237c0.065-0.271,0.137-0.54,0.213-0.812c-0.48-0.336-0.974-0.652-1.472-0.96
	c0.146-0.063,0.287-0.128,0.433-0.195c0.389,0.234,0.774,0.47,1.162,0.703c0.08-0.275,0.162-0.554,0.246-0.827
	c-0.007-0.005-0.015-0.01-0.021-0.015c-0.071-0.052-0.141-0.065-0.207-0.065c-0.121-0.072-0.244-0.146-0.364-0.218
	c0.132-0.075,0.26-0.148,0.385-0.229c0.129-0.081,0.26-0.168,0.388-0.257c-0.012-0.102,0.015-0.208,0.095-0.306
	c0.318-0.381,0.648-0.772,0.925-1.192c0.257-0.39,0.47-0.802,0.585-1.258c0.119-0.479,0.058-0.857-0.057-1.227
	c-0.009-0.033-0.02-0.063-0.031-0.097c0,0.002,0,0.004,0.002,0.004c-0.028-0.046-0.055-0.095-0.088-0.138
	c-0.196-0.106-0.415-0.19-0.604-0.281c-0.58-0.269-1.25-1.52-1.148-1.604c0.002-0.047,0.002-0.096,0.006-0.139
	c0.118-1.336,0.515-2.69,1.398-3.701c0.024-0.028,0.057-0.056,0.083-0.084c0.079,0.062,0.161,0.121,0.243,0.186
	c-0.195,0.42-0.32,0.874-0.363,1.325c-0.124,1.313,0.526,1.904,1.43,2.196c0.131,0.003,0.265,0.007,0.4,0.007
	c0.734-0.005,1.293-0.021,1.742-0.462c0.108-0.108,0.217-0.239,0.313-0.408c0.228-0.393,0.404-0.823,0.538-1.253
	c0.177-0.569,0.275-1.157,0.333-1.748c0.021-0.233,0.039-0.465,0.046-0.696c0.001-0.023,0.003-0.052,0.003-0.076
	c0.001-0.041,0.004-0.082,0.006-0.125c-0.146-0.497-0.295-0.993-0.439-1.491c-0.253-0.857-0.508-1.717-0.761-2.573
	c-1.431-2.229-3.141-4.313-5.466-5.527c-2.563-1.342-5.651-1.47-8.463-0.775c-2.813,0.694-5.381,2.154-7.729,3.854
	c-0.404,0.294-2.128,1.876-2.34,2.177c-1.201,1.699-1.259,4.244,0.167,5.758c1.004,1.068,2.729,1.336,4.037,0.78
	c0.012,0.001,0.024,0.009,0.035,0.011c0.085-0.252,0.202-0.494,0.362-0.715c0.078-0.111,0.166-0.217,0.265-0.319
	c0.081-0.082,0.172-0.163,0.27-0.238c0.613-0.478,1.496-0.748,2.163-0.258c0.668,0.494,0.382,1.188-0.274,1.48
	c-0.129,0.056-0.25,0.112-0.364,0.167c-0.27,0.127-0.507,0.258-0.714,0.44c-0.153,0.138-0.293,0.306-0.418,0.52
	c-0.022,0.04-0.048,0.076-0.069,0.119c-0.045,0.086-0.084,0.571-0.082,0.718c0.016,0.634,0.2,2.246,0.213,2.457
	c0.091,1.574,0.834,3.031,1.94,4.157c-0.611,0.048-1.218,0.137-1.82,0.25c0.101,0.248,0.208,0.493,0.302,0.741
	c0.781-0.137,1.572-0.218,2.374-0.239c0.192,0.144,0.393,0.277,0.596,0.403c-0.937,0.061-1.863,0.175-2.786,0.336
	c0.095,0.252,0.181,0.502,0.268,0.755c1.343-0.229,2.704-0.35,4.083-0.356c0.078,0.026,0.154,0.056,0.23,0.078
	c0.379,0.111,0.764,0.193,1.151,0.249c-1.379,0.256-2.863,0.147-4.25,0.341c-0.35,0.047-0.699,0.108-1.045,0.171
	c0.084,0.25,0.16,0.503,0.238,0.752c0.437-0.074,0.875-0.145,1.316-0.197c1.274-0.158,2.606-0.072,3.873-0.292
	c-0.045,0.282-0.101,0.568-0.161,0.855c-1.619,0.028-3.218,0.165-4.796,0.41c0.073,0.257,0.148,0.51,0.216,0.767
	c1.447-0.223,2.91-0.351,4.392-0.387c-0.043,0.16-0.09,0.321-0.14,0.477c-1.397,0.036-2.775,0.165-4.135,0.38
	c0.064,0.256,0.129,0.511,0.188,0.768c1.213-0.19,2.439-0.31,3.687-0.353c-0.114,0.32-0.237,0.635-0.373,0.943
	c-0.082,0.017-0.168,0.032-0.256,0.062c-0.529,0.042-1.056,0.096-1.584,0.159c-0.691,0.082-1.383,0.184-2.07,0.297
	c-0.241,0.041-0.479,0.09-0.719,0.137c0.081,0.251,0.162,0.502,0.244,0.751c0.229-0.041,0.455-0.09,0.686-0.127
	c0.938-0.159,2.097-0.15,3.199-0.233c-0.121,0.225-0.248,0.443-0.382,0.657c-0.115-0.012-0.229-0.014-0.347,0.007
	c-0.468,0.063-0.937,0.138-1.4,0.218c-0.496,0.086-0.99,0.185-1.48,0.291c0.084,0.25,0.167,0.498,0.253,0.745
	c0.015-0.004,0.03-0.009,0.045-0.012c0.608-0.129,1.436-0.141,2.221-0.233c-0.055,0.066-0.11,0.132-0.165,0.199
	c-0.642,0.188-1.283,0.38-1.919,0.579c0.047,0.139,0.092,0.278,0.14,0.418c0.063,0.182-0.007,0.323-0.126,0.403
	c0.244-0.079-4.752,3.321-7.217,5.273c-0.015,0.013-0.026,0.022-0.043,0.034c-1.028,0.515-2.018,1.099-2.896,1.853
	c-0.763,0.65-1.424,1.396-2.08,2.146c-0.98,0.742-2.016,1.381-3.104,1.919c-1.385,0.331-2.768,0.351-4.101,0.049
	c-0.757-0.418-1.521-0.851-2.251-1.322c-0.915-0.729-1.713-1.604-2.365-2.609c-0.966-1.496-1.263-2.982-1.592-4.58
	c0.086-0.933,0.155-1.837-0.001-2.578c-0.357-1.698-1.229-2.911-2.219-4.21c-0.229-0.512-0.452-1.024-0.652-1.545
	c-0.033-0.081-0.06-0.164-0.089-0.246c-1.812,1.67-3.521,3.439-5.124,5.302c-0.121,0.142-0.245,0.275-0.366,0.418
	c-1.625,1.921-3.143,3.938-4.543,6.055c-0.278,0.422-0.959,0.026-0.679-0.396c1.454-2.194,3.031-4.285,4.722-6.272
	c0.108-0.128,0.219-0.249,0.327-0.377c1.682-1.947,3.476-3.791,5.382-5.53c-0.076-0.229-0.146-0.459-0.215-0.691
	c0.948-0.822,1.896-1.646,2.844-2.471c0.193-0.166,0.147-0.39,0.004-0.528c-0.139-0.136-0.37-0.189-0.561-0.024
	c-0.392,0.339-0.782,0.681-1.173,1.019c-0.447,0.392-0.896,0.779-1.343,1.168c-0.021-0.087-0.047-0.175-0.067-0.264
	c-2.408,1.61-4.632,3.465-6.754,5.443c-0.066,0.062-0.135,0.123-0.2,0.187c-2.062,1.937-4.029,3.984-5.979,6.037
	c-0.35,0.367-0.904-0.188-0.557-0.556c1.965-2.068,3.947-4.13,6.022-6.081c0.05-0.045,0.101-0.092,0.15-0.139
	c2.234-2.087,4.581-4.038,7.131-5.718c-0.039-0.187-0.073-0.375-0.107-0.563c0.911-0.445,1.821-0.891,2.731-1.336
	c0.286-0.14,0.234-0.458,0.043-0.621c-0.111-0.098-0.271-0.142-0.439-0.058c-1.243,0.608-2.486,1.217-3.728,1.821
	c-0.118,0.058-0.176,0.145-0.192,0.237c-5.092,2.613-9.714,6.005-13.776,10.105c-0.357,0.359-0.912-0.196-0.557-0.558
	c4.569-4.613,9.835-8.322,15.67-11.073c-0.018-0.124-0.033-0.248-0.047-0.372c0.745-0.341,1.513-0.628,2.312-0.854
	c0.485-0.139,0.279-0.896-0.209-0.756c-0.755,0.211-1.488,0.479-2.203,0.793c-0.746-6.732,0.065-13.887-2.189-19.99
	c-0.779-1.465-1.548-2.936-2.292-4.416c-0.228-0.451,0.451-0.849,0.679-0.397c0.271,0.54,0.552,1.077,0.829,1.616
	c0.751,0.285,1.416,0.744,2.023,1.313c-0.641-1.218-1.274-2.438-1.898-3.661c-0.229-0.45,0.45-0.849,0.679-0.397
	c1.306,2.563,2.648,5.104,4.023,7.627c0.708,1.037,1.415,2.062,2.204,2.895c-1.406-2.977-2.713-5.996-3.895-9.076
	c-0.181-0.472,0.579-0.676,0.758-0.207c1.365,3.565,2.895,7.054,4.567,10.476c0.583,0.354,1.219,0.595,1.933,0.664
	c-1.497-3.033-2.775-6.164-3.835-9.4c-0.159-0.481,0.603-0.688,0.758-0.208c1.085,3.311,2.404,6.512,3.952,9.608
	c0.727-0.067,1.39-0.316,1.998-0.687c-1.402-2.768-2.726-5.57-3.958-8.421c-0.199-0.461,0.479-0.859,0.68-0.398
	c1.225,2.832,2.535,5.617,3.93,8.364c0.637-0.506,1.212-1.14,1.74-1.832c-1.361-2.286-2.67-4.604-3.925-6.95
	c-0.236-0.447,0.441-0.844,0.68-0.396c1.2,2.246,2.452,4.461,3.748,6.65c0.417-0.606,0.801-1.236,1.159-1.847
	c-1.261-1.811-2.415-3.682-3.449-5.632c-0.237-0.445,0.44-0.845,0.678-0.396c0.971,1.828,2.046,3.589,3.215,5.292
	c0.317-0.532,0.636-1.063,0.962-1.591c-0.979-1.475-1.959-2.947-2.939-4.421c-0.281-0.421,0.399-0.816,0.678-0.396
	c0.908,1.363,1.815,2.729,2.723,4.094c0.348-0.546,0.694-1.09,1.054-1.627c-0.972-1.163-1.875-2.378-2.698-3.657
	c-0.272-0.428,0.407-0.821,0.679-0.398c0.758,1.181,1.588,2.301,2.478,3.376c0.305-0.454,0.609-0.902,0.923-1.353
	c-0.825-0.927-1.651-1.855-2.479-2.782c-0.334-0.376,0.222-0.934,0.559-0.556c0.796,0.894,1.592,1.787,2.387,2.683
	c0.282-0.396,0.562-0.794,0.85-1.187c-0.697-0.829-1.397-1.657-2.097-2.486c-0.325-0.385,0.229-0.943,0.557-0.555
	c0.675,0.798,1.348,1.6,2.023,2.398c0.248-0.332,0.494-0.662,0.744-0.988c-0.616-0.616-1.233-1.232-1.851-1.849
	c-0.358-0.358,0.197-0.914,0.558-0.557c0.592,0.592,1.187,1.185,1.779,1.777c0.15-0.193,0.304-0.384,0.456-0.574
	c-0.515-0.688-1.018-1.386-1.498-2.1c-0.282-0.422,0.398-0.813,0.68-0.396c0.423,0.632,0.865,1.252,1.317,1.861
	c0.202-0.248,0.401-0.497,0.607-0.744c-0.588-0.936-1.175-1.868-1.763-2.803c-0.271-0.429,0.41-0.822,0.679-0.396
	c0.537,0.854,1.075,1.71,1.612,2.563c0.27-0.322,0.536-0.646,0.811-0.968c-0.568-1.077-1.139-2.155-1.706-3.23
	c-0.236-0.447,0.442-0.846,0.679-0.397c0.526,0.998,1.055,1.999,1.581,2.997c0.232-0.268,0.468-0.536,0.705-0.803
	c-0.754-1.555-1.509-3.11-2.264-4.664c-0.219-0.454,0.457-0.854,0.68-0.396c0.715,1.477,1.433,2.953,2.148,4.431
	c0.182-0.197,0.369-0.393,0.563-0.583c-0.874-2.143-1.842-4.234-2.921-6.284c-0.232-0.45,0.445-0.845,0.681-0.397
	c1.048,1.992,1.996,4.026,2.854,6.104c0.41-0.362,0.842-0.695,1.289-0.982c-0.863-2.315-1.924-4.53-3.188-6.646
	c0.214-0.152,0.43-0.302,0.647-0.448c1.28,2.136,2.355,4.375,3.234,6.707c0.229-0.112,0.463-0.212,0.698-0.288
	c-0.511-0.927-0.896-1.928-1.325-2.944c-0.568-1.345-1.194-2.663-1.865-3.957c0.223-0.14,0.447-0.275,0.674-0.412
	c0.414,0.796,0.814,1.596,1.189,2.41c0.712,1.548,1.236,3.26,2.117,4.727c0.38-0.051,0.762-0.043,1.151,0.024
	c-1.019-2.641-2.09-5.255-3.293-7.813c0.232-0.121,0.465-0.238,0.703-0.352c1.301,2.772,2.455,5.608,3.549,8.472
	c1.164,0.548,2.062,1.628,2.872,2.662c6.591,8.385,13.28,16.97,17.009,26.938c1.358,2.469,2.313,5.103,2.868,7.803
	c-0.274-0.053-0.552-0.1-0.831-0.138c-0.242-0.033-0.486-0.066-0.731-0.083c-0.468-0.035-0.494,0.624-0.103,0.756
	c0.031,0.011,0.063,0.026,0.103,0.029c0.613,0.046,1.211,0.142,1.801,0.283c1.723,0.84,3.369,1.799,4.938,2.869
	c0.306-1.176,0.608-2.349,0.912-3.521c0.044-0.059,0.077-0.131,0.077-0.225c0-0.025,0-0.049,0-0.072
	c0.114-0.442,0.229-0.882,0.343-1.324c0.045-0.057,0.09-0.111,0.14-0.166c0.442-0.121,1.872,0.079,2.01,1.684
	c0.133,0.792,0.121,1.438,0.03,2.231c-0.132,1.174-0.458,2.29-0.813,3.405c0.132,0.106,0.262,0.218,0.394,0.327
	c0.18,0.15,0.362,0.296,0.54,0.447c0.612,0.531,1.21,1.089,1.791,1.662c0.556-1.758,1.105-3.515,1.748-5.238
	c2.872-7.697,11.459-16.354,7.246-24.975c-0.094-0.04-0.172-0.117-0.203-0.247c-0.805-3.252-1.615-6.521-3.12-9.536
	c-1.094-2.188-2.5-4.197-3.687-6.334c-1.179-2.126-1.984-4.275-2.41-6.675c-0.538-3.02-0.824-6.373-3.905-7.934
	c-0.025-0.014-0.039-0.033-0.061-0.048c-0.021,0-0.039,0.003-0.062-0.003c0.021,0.021,0.043,0.04,0.063,0.063
	c-0.059-0.037-0.115-0.077-0.176-0.114c-0.013-0.008-0.027-0.016-0.043-0.021c-0.14-0.082-0.283-0.155-0.432-0.223
	c0.036-0.011,0.073-0.015,0.112-0.014c-6.002-4.484-12.387-8.282-19.053-11.679c-3.93-2.003-8.075-3.704-12.434-4.487
	c-4.373-0.783-8.865-0.399-13.212,0.37C55.012,4.497,47.491,7.97,41.634,13.906c-3.127,3.169-5.979,6.428-8.24,10.049
	c-0.216-0.153-0.43-0.306-0.645-0.455c2.289-3.653,5.171-6.949,8.33-10.149c5.715-5.79,13.045-9.367,20.98-10.891
	c8.5-1.63,16.244-0.952,24.177,2.604c7.91,3.547,15.421,8.137,22.343,13.353c0.028,0.021,0.047,0.05,0.067,0.076
	c0.063,0,0.129,0.006,0.196,0.039c1.901,0.964,2.962,2.631,3.56,4.639c0.978,3.278,1.006,6.378,2.632,9.5
	c1.399,2.691,3.227,5.145,4.487,7.914c1.242,2.723,1.993,5.619,2.711,8.517c0,0.003,0.004,0.005,0.007,0.008
	c4.414,8.188-2.394,15.945-5.726,23.055c-1.303,2.773-2.188,5.703-3.113,8.615c0.18,0.186,0.364,0.362,0.541,0.551
	c0.296,0.313-0.066,0.764-0.396,0.655c-0.441-0.467-0.904-0.919-1.389-1.348c-0.453-0.442-0.915-0.87-1.389-1.287
	c-0.169-0.15-0.343-0.3-0.515-0.447c-0.15-0.129-0.309-0.256-0.461-0.383c-0.039,0.124-0.078,0.25-0.117,0.373
	c-0.426-0.469-0.873-0.921-1.347-1.346c-0.344-0.312-0.769-0.749-1.221-0.923c0.013-0.041,0.021-0.08,0.031-0.12
	c-0.881-0.612-2.792-1.901-2.893-1.965c-0.806-0.502-1.657-0.889-2.543-1.185c-0.025-0.009-0.054-0.017-0.078-0.024
	c-0.603-0.196-1.217-0.357-1.853-0.456c-0.496-0.076-0.708,0.68-0.209,0.757c0.759,0.119,1.488,0.309,2.191,0.566
	c0.281,0.102,0.553,0.226,0.826,0.351c0.017,0.136,0.022,0.271,0.037,0.409c1.51,0.871,2.878,1.869,4.154,2.96
	c0.046-0.183,0.095-0.36,0.141-0.542c0.488,0.263,1.54,1.374,1.688,1.521c0.281,0.285,0.549,0.58,0.812,0.882
	c-0.046,0.16-0.09,0.324-0.135,0.486c0.204,0.209,0.407,0.419,0.608,0.631c0.109,0.115,0.221,0.23,0.33,0.349
	c0.547,0.585,1.084,1.188,1.62,1.799c0.142-0.418,0.281-0.837,0.418-1.257c0.213,0.201,0.413,0.418,0.616,0.63
	c-0.146,0.438-0.288,0.877-0.439,1.313c0.418,0.483,0.836,0.975,1.254,1.472c0.324,0.384-0.229,0.942-0.557,0.556
	c-0.335-0.396-0.671-0.787-1.004-1.179c-0.009,0.021-0.019,0.047-0.025,0.068c-0.192-0.229-0.388-0.459-0.584-0.687
	c0.008-0.021,0.017-0.042,0.021-0.064c-0.529-0.608-1.063-1.212-1.603-1.799c-0.088-0.093-0.172-0.187-0.259-0.279
	c-0.206-0.224-0.415-0.442-0.626-0.66c-0.015,0.063-0.029,0.135-0.045,0.198c-0.74-0.903-1.564-1.736-2.482-2.478
	c0.011-0.037,0.02-0.073,0.027-0.11c-1.189-1.039-2.457-1.994-3.848-2.843c0.106,1.812,0.034,3.633-0.213,5.438
	c0.016,1.807-0.064,3.612-0.244,5.409c-0.041,0.056-0.071,0.119-0.079,0.202c-0.035,0.444-0.065,0.885-0.099,1.324
	c-0.008,0.066-0.015,0.132-0.021,0.199c0.004-0.003,0.006-0.004,0.01-0.004C101.803,91.928,101.434,95.185,98.191,97.118z
	 M83.696,54.439c0.276,0.017,0.553,0.026,0.83,0.054c0.167,0.016,0.331,0.041,0.493,0.069c0.039,0.271,0.083,0.541,0.146,0.81
	c-0.313-0.066-0.639-0.104-0.965-0.136C84.037,54.964,83.872,54.699,83.696,54.439z M88.275,57.146
	c-0.207-0.193-0.416-0.379-0.63-0.551c0.055-0.271,0.091-0.545,0.116-0.821c0.229,0.161,0.45,0.335,0.666,0.519
	c-0.113,0.053-0.191,0.16-0.172,0.331C88.279,56.801,88.283,56.976,88.275,57.146z M90.598,59.846
	c0.043,0.015,0.088,0.026,0.132,0.029c0.104,0.208,0.202,0.419,0.307,0.628c-1.667,0.756-2.834,1.968-3.599,3.65
	c-0.209,0.462-0.887,0.061-0.678-0.397C87.591,61.922,88.844,60.676,90.598,59.846z M88.965,57.844
	c0.08-0.318,0.104-0.65,0.086-0.984c0.365,0.354,0.717,0.728,1.053,1.109c-0.139,0.226-0.295,0.438-0.467,0.638
	C89.42,58.349,89.197,58.094,88.965,57.844z M86.938,56.084c-0.156-0.1-0.313-0.2-0.472-0.28c-0.135-0.068-0.279-0.123-0.423-0.177
	c-0.081-0.28-0.147-0.563-0.2-0.852c0.404,0.137,0.791,0.309,1.16,0.517C86.996,55.555,86.975,55.823,86.938,56.084z M71.287,59.857
	c-0.547,0.492-0.742,1.017-0.591,1.572c-0.336-0.113-0.667-0.247-0.99-0.394c0.175-0.653,0.534-1.241,0.993-1.771
	C70.893,59.464,71.088,59.662,71.287,59.857z M71.244,58.698c0.384-0.357,0.805-0.687,1.238-0.987
	c0.166,0.223,0.347,0.434,0.53,0.642c-0.007,0.003-0.014,0.006-0.02,0.013c-0.439,0.257-0.828,0.563-1.181,0.911
	C71.621,59.085,71.432,58.893,71.244,58.698z M73.154,57.266c0.228-0.142,0.448-0.279,0.668-0.407
	c0.019,0.011,0.027,0.022,0.047,0.033c0.257,0.121,0.484,0.278,0.693,0.454c-0.297,0.18-0.593,0.361-0.883,0.554
	C73.494,57.698,73.321,57.484,73.154,57.266z M85.531,13.195c0.283,0.423-0.396,0.814-0.679,0.397
	c-0.564-0.841-0.956-1.771-1.163-2.763c-0.104-0.495,0.654-0.705,0.756-0.209C84.641,11.553,84.998,12.402,85.531,13.195z
	 M85.693,9.417c0.402,0.744,0.806,1.484,1.207,2.229c0.241,0.446-0.437,0.844-0.678,0.399c-0.402-0.743-0.805-1.488-1.207-2.229
	C84.774,9.368,85.451,8.973,85.693,9.417z M84.938,16.478c0.198,0.462-0.479,0.861-0.677,0.397c-0.58-1.36-1.161-2.723-1.741-4.084
	c-0.195-0.46,0.48-0.86,0.681-0.396C83.779,13.758,84.359,15.118,84.938,16.478z M84.111,18.541
	c0.203,0.459-0.474,0.856-0.678,0.396c-0.578-1.31-1.158-2.619-1.733-3.926c-0.205-0.46,0.473-0.858,0.678-0.397
	C82.954,15.921,83.533,17.232,84.111,18.541z M87.732,9.208c0.16,0.691,0.425,1.33,0.802,1.935c0.27,0.431-0.412,0.824-0.679,0.396
	c-0.41-0.654-0.705-1.368-0.881-2.12C86.861,8.923,87.62,8.714,87.732,9.208z M92.141,30.683c-0.354-0.404-0.606-0.91-0.681-1.434
	l-0.855,0.064c0.171-0.615,0.401-1.144,0.684-1.591c0.177-0.224,0.375-0.432,0.586-0.627C91.471,28.174,91.639,29.523,92.141,30.683
	z M91.379,31.664c1.52,2.12,4.448,2.586,7.039,2.354c0.504-0.046,0.499,0.741,0,0.785c-3.48,0.312-7.34-0.685-8.516-4.365
	c-0.019-0.059-0.021-0.113-0.019-0.166c0,0,0-0.001,0-0.004c0.004-0.037,0.021-0.068,0.037-0.102
	C90.356,30.712,90.843,31.209,91.379,31.664z M98.059,27.816c-0.422-0.475-1.029-0.781-1.715-0.781
	c-0.072,0-0.139,0.015-0.207,0.021c0.07,0.05,0.135,0.109,0.185,0.186c0.225,0.332,0.166,0.859,0.028,1.21
	c-0.266,0.677-0.951,1.073-1.635,0.932c-0.178-0.067-0.348-0.15-0.51-0.252c-0.052-0.139-0.181-0.258-0.33-0.26
	c-0.009,0-0.017-0.005-0.025-0.005c-0.119-0.112-0.221-0.237-0.311-0.373c-0.187-0.531-0.183-1.101,0.02-1.641
	c0.464-0.496,1.111-0.844,1.908-0.94c0.527,0.01,1.04,0.076,1.543,0.197c0.064,0.074,0.157,0.122,0.29,0.111
	c0.036-0.004,0.071-0.004,0.105-0.007c0.046,0.013,0.089,0.029,0.132,0.041c0.332,0.274,0.666,0.546,0.998,0.82
	c0.09,0.23,0.15,0.473,0.181,0.726c-0.034,0.003-0.069,0.01-0.099,0.01C98.43,27.826,98.244,27.823,98.059,27.816z M96.232,32.425
	c-0.004,0-0.005,0-0.008-0.001c0.002-0.002,0.003-0.004,0.004-0.006C96.229,32.422,96.23,32.422,96.232,32.425z M95.67,52.452
	c1.313,2.386,2.627,4.771,3.941,7.154c0.245,0.443-0.434,0.838-0.679,0.397c-1.313-2.386-2.627-4.771-3.942-7.155
	C94.745,52.406,95.425,52.011,95.67,52.452z M99.537,57.095c-0.98-1.529-2-3.033-3.06-4.51c-0.295-0.415,0.388-0.805,0.681-0.398
	c1.059,1.479,2.076,2.981,3.058,4.514C100.489,57.127,99.809,57.52,99.537,57.095z M100.48,27.786
	c0.039,0.025,0.075,0.052,0.115,0.078c0.008,0.007,0.018,0.013,0.027,0.02c-0.017,0.062-0.019,0.126,0.005,0.2
	c0.257,0.797,0.378,1.596,0.396,2.41c-0.09,0.176-0.188,0.35-0.293,0.522c-0.332,0.355-0.729,0.649-1.159,0.876
	C100.356,30.701,100.691,29.208,100.48,27.786z M101.574,34.577c-0.156,0.116-0.313,0.231-0.485,0.333
	c-0.437,0.259-0.83-0.421-0.397-0.679c0.127-0.075,0.244-0.165,0.36-0.247C101.227,34.182,101.4,34.379,101.574,34.577z
	 M100.016,39.537c2.176-1.905,4.627-4.21,4.427-7.24c0.264,0.116,0.526,0.229,0.796,0.336c-0.004,3.067-2.385,5.461-4.668,7.462
	C100.191,40.425,99.633,39.871,100.016,39.537z M103.474,31.828c-0.101,0.341-0.235,0.668-0.398,0.978
	c-0.203-0.175-0.408-0.35-0.613-0.521c0.127-0.271,0.229-0.552,0.305-0.846C102.998,31.573,103.234,31.704,103.474,31.828z
	 M102.886,30.6c0.003-0.076,0.017-0.154,0.017-0.229c0.002-0.509,0.787-0.507,0.783,0c0,0.224-0.018,0.442-0.045,0.662
	C103.388,30.894,103.136,30.751,102.886,30.6z M102.661,33.481c-0.15,0.204-0.313,0.4-0.493,0.583
	c-0.174-0.196-0.348-0.396-0.521-0.594c0.152-0.158,0.289-0.326,0.415-0.503C102.261,33.141,102.46,33.309,102.661,33.481z
	 M104.303,31.373c-0.01-0.035-0.013-0.074-0.021-0.111c-0.127-0.491,0.631-0.699,0.758-0.209c0.063,0.241,0.108,0.482,0.143,0.717
	C104.886,31.645,104.592,31.514,104.303,31.373z M105,25.556c-0.461-0.251-0.944-0.458-1.448-0.623
	c-1.897-1.862-4.308-3.228-6.978-2.918c0.01-0.283,0.02-0.57,0.03-0.854c3.271-0.393,6.278,1.74,8.431,4.218
	C105.023,25.438,105.012,25.496,105,25.556z M99.146,24.208c0.492,0.153,0.931,0.394,1.351,0.666
	c-0.806-0.116-1.642-0.122-2.472-0.089c-0.427-0.107-0.887-0.169-1.395-0.162c-0.724,0.011-1.408,0.132-2.051,0.347
	c-2.119,0.248-3.891,1.37-4.663,3.9c-0.026-0.021-0.055-0.035-0.081-0.047c-0.004-0.14-0.004-0.281-0.006-0.42
	c0-0.146,0-0.293,0.002-0.438c1.184-2.043,3.089-3.549,5.479-3.989C96.586,23.744,97.906,23.825,99.146,24.208z M89.957,26.044
	c0.104-0.325,0.229-0.698,0.377-1.079c0.16-0.252,0.326-0.497,0.496-0.744c0.073,0.218,0.14,0.438,0.197,0.665
	C90.645,25.25,90.285,25.637,89.957,26.044z M91.405,23.523c0.2-0.155,0.405-0.307,0.612-0.449c0.027,0.279,0.09,0.556,0.192,0.821
	c-0.18,0.131-0.354,0.268-0.524,0.407C91.604,24.039,91.51,23.779,91.405,23.523z M92.795,22.571
	c0.35-0.205,0.705-0.394,1.063-0.562c0.055,0.265,0.105,0.527,0.16,0.792c-0.387,0.187-0.77,0.396-1.144,0.637
	C92.793,23.157,92.766,22.866,92.795,22.571z M95.782,22.154c-0.342,0.081-0.685,0.193-1.026,0.325
	c-0.053-0.262-0.106-0.522-0.16-0.784c0.406-0.156,0.813-0.292,1.219-0.393C95.804,21.587,95.793,21.87,95.782,22.154z
	 M94.719,14.595c-0.309-1.314-0.818-2.531-1.545-3.672c-0.273-0.428,0.41-0.821,0.679-0.396c0.759,1.19,1.305,2.48,1.624,3.858
	C95.592,14.88,94.833,15.088,94.719,14.595z M93.4,13.927c0.171,0.477-0.588,0.68-0.756,0.207c-0.551-1.541-1.221-3.022-2.012-4.454
	c-0.242-0.445,0.436-0.84,0.68-0.398C92.135,10.773,92.83,12.321,93.4,13.927z M90.715,11.151c0.226,0.451-0.451,0.85-0.68,0.397
	c-0.42-0.838-0.839-1.675-1.259-2.514c-0.227-0.451,0.451-0.849,0.679-0.396C89.875,9.475,90.294,10.314,90.715,11.151z
	 M111.522,44.984c0-0.009,0.005-0.017,0.005-0.023c0-1.605-0.111-5.226-0.154-5.443c-0.124-0.608-0.227-1.221-0.315-1.836
	c0.262-0.055,0.523-0.104,0.789-0.136c0.038,0.289,0.072,0.579,0.121,0.871c0.042,0.25,0.091,0.494,0.141,0.74
	c0.065,0.03,0.192,0.61,0.208,0.844c0,0.021,0,0.041,0,0.061c0.001,0.009,0.003,0.019,0.005,0.027
	c0.005,0.035,0.007,0.074,0.011,0.106c0.02,0.4,0.045,0.8,0.063,1.199c0.002,0.08,0.008,0.163,0.013,0.244
	c0.014,0.354,0.021,0.709,0.03,1.066c-0.043-0.094-0.12,1.639-0.12,2.6c0,0.01-0.005,0.019-0.007,0.027
	c0.05,6.792-2.016,13.72-3.477,20.356c-0.248-0.102-0.492-0.21-0.73-0.331C109.566,58.717,111.645,51.752,111.522,44.984z
	 M108.982,21.207c0.103-0.035,0.205-0.062,0.313-0.075c0.177,0.265,0.335,0.553,0.478,0.854c-0.104,0.017-0.207,0.047-0.309,0.083
	C109.32,21.775,109.161,21.486,108.982,21.207z M110.731,34.582c-0.04-0.626-0.07-1.253-0.09-1.877
	c0.3,0.169,0.601,0.343,0.897,0.517c0.01,0.509,0.03,1.019,0.057,1.526C111.308,34.687,111.02,34.632,110.731,34.582z
	 M111.639,35.561c0.027,0.4,0.062,0.801,0.105,1.201c-0.269,0.034-0.529,0.08-0.793,0.137c-0.063-0.502-0.115-1.008-0.158-1.512
	C111.076,35.439,111.357,35.499,111.639,35.561z M110.621,31.79c-0.006-0.366-0.006-0.735-0.004-1.104
	c0.002-0.18,0.002-0.36,0.004-0.542c0.305,0.26,0.597,0.53,0.885,0.812c0.006,0.448,0.01,0.897,0.014,1.35
	C111.221,32.131,110.922,31.958,110.621,31.79z M110.624,29.14c0-0.167-0.001-0.335-0.003-0.504c0.217,0.097,0.428,0.211,0.624,0.35
	c0.034,0.023,0.068,0.032,0.104,0.045c0.017,0.087,0.031,0.178,0.047,0.263c0.027,0.161,0.058,0.352,0.084,0.553
	C111.204,29.601,110.914,29.371,110.624,29.14z M110.605,27.796c-0.007-0.234-0.018-0.468-0.028-0.699
	c0.166,0.037,0.338-0.007,0.436-0.17c0.006-0.012,0.006-0.025,0.014-0.034c0.058,0.393,0.114,0.771,0.168,1.141
	C111.004,27.938,110.807,27.861,110.605,27.796z M110.871,26.391c-0.117-0.052-0.234-0.084-0.353-0.125
	c-0.044-0.481-0.104-0.963-0.188-1.435c0.043,0.02,0.09,0.036,0.131,0.063c0.078,0.058,0.156,0.067,0.229,0.062
	c0.103,0.503,0.189,1.01,0.267,1.506C110.932,26.433,110.907,26.406,110.871,26.391z M110.146,23.963
	c-0.102-0.401-0.227-0.793-0.375-1.178c0.104-0.033,0.214-0.041,0.322-0.021c0.148,0.409,0.275,0.834,0.387,1.271
	C110.371,24,110.261,23.974,110.146,23.963z M113.679,54.221c1.468,3.042,2.295,6.257,2.472,9.629c0.026,0.51-0.76,0.506-0.784,0
	c-0.171-3.241-0.954-6.308-2.365-9.23C112.781,54.164,113.459,53.764,113.679,54.221z M113.229,42.704
	c0.228,0.502,0.48,0.995,0.769,1.482c-0.087,0.299-0.175,0.598-0.259,0.896c-0.164-0.272-0.325-0.546-0.482-0.816
	c0-0.031-0.001-0.061-0.001-0.092c-0.003-0.245-0.008-0.487-0.014-0.731C113.238,43.198,113.237,42.951,113.229,42.704z
	 M117.672,61.337c0.063,0.499-0.722,0.493-0.785,0c-0.479-3.72-1.313-7.351-2.486-10.908c-0.158-0.481,0.601-0.688,0.759-0.209
	C116.355,53.851,117.183,57.543,117.672,61.337z M115.426,47.784c0.092-0.313,0.194-0.621,0.311-0.924
	c0.531,0.813,1.039,1.642,1.457,2.542c1.285,2.778,1.858,5.751,1.888,8.8c0.004,0.507-0.783,0.506-0.785,0
	C118.262,54.495,117.342,50.958,115.426,47.784z M114.885,46.903c-0.195-0.308-0.387-0.608-0.576-0.905
	c0.084-0.307,0.161-0.614,0.246-0.918c0.22,0.334,0.438,0.667,0.658,0.996C115.095,46.346,114.982,46.621,114.885,46.903z
	 M115.158,65.945c0.104,0.495-0.656,0.703-0.759,0.209c-0.551-2.646-1.346-5.202-2.389-7.694c-0.195-0.467,0.564-0.669,0.756-0.209
	C113.813,60.74,114.607,63.298,115.158,65.945z M111.066,77.464c0.097-0.204,0.177-0.413,0.254-0.623
	c0.025-0.064,0.058-0.129,0.079-0.193c0.704-1.977,0.733-4.117-0.063-6.1c-0.104-0.323-0.247-0.629-0.426-0.914
	c-0.121-0.022-0.113-0.572-1.938-0.337c-0.02-0.005-0.041-0.009-0.059-0.011c0.143-0.354,0.285-0.704,0.427-1.054
	c0.019-0.046,0.021-0.091,0.015-0.136c0.438-0.074,0.921,0.006,1.447,0.301c1.248,0.697,1.713,2.907,1.86,4.168
	c0.216,1.854-0.139,3.614-0.916,5.294c-0.141,0.305-0.479,0.229-0.635,0.016C111.033,77.765,110.996,77.621,111.066,77.464z
	 M112.387,70.549c-0.347-1.885-1.043-3.615-2.104-5.213c-0.281-0.423,0.4-0.816,0.68-0.398c1.094,1.647,1.826,3.457,2.184,5.401
	C113.234,70.838,112.479,71.046,112.387,70.549z M111.215,62.196c-0.25-0.439,0.43-0.837,0.677-0.396
	c1.143,2.037,1.942,4.199,2.396,6.489c0.097,0.495-0.659,0.704-0.758,0.209C113.088,66.269,112.322,64.179,111.215,62.196z
	 M108.664,66.464c-0.033,0.148-0.066,0.3-0.097,0.45c-0.104,0.495-0.859,0.283-0.758-0.209c0.039-0.187,0.08-0.373,0.121-0.562
	C108.17,66.261,108.415,66.368,108.664,66.464z M104.668,82.06c-0.053,0.225-0.094,0.448-0.141,0.675
	c-0.251-0.078-0.5-0.158-0.749-0.239c0.06-0.302,0.127-0.601,0.198-0.897C104.207,81.751,104.438,81.907,104.668,82.06z
	 M104.188,80.792c0.101-0.332,0.201-0.665,0.314-0.996c0.166-0.474,0.926-0.271,0.758,0.209c-0.143,0.411-0.271,0.829-0.387,1.247
	C104.645,81.101,104.416,80.948,104.188,80.792z M104.392,83.516c-0.046,0.309-0.089,0.617-0.123,0.932
	c-0.007,0.077-0.038,0.141-0.077,0.194c-0.129,0.181-0.383,0.219-0.551,0.123c-0.102-0.059-0.172-0.16-0.156-0.317
	c0.039-0.396,0.088-0.783,0.149-1.174C103.885,83.355,104.139,83.436,104.392,83.516z M104.156,86.673
	c0.519-0.891,0.851-1.962,1.107-2.955c0.123-0.479,0.248-0.96,0.372-1.438c0.059-0.086,0.091-0.191,0.077-0.299
	c0.195-0.749,0.389-1.498,0.584-2.249c0.926,0.788,1.764,1.654,2.495,2.617c-0.05,0.259-0.1,0.52-0.141,0.78
	c-0.045,0.281-0.144,1.457-0.184,2.53c-1.084,2.291-2.411,4.47-3.959,6.477c-0.646,0.84-1.34,1.678-2.007,2.533
	c0.206-0.57,0.323-1.188,0.368-1.881c0.01-0.143,0.021-0.278,0.032-0.415C103.494,90.513,103.908,88.618,104.156,86.673z
	 M99.91,97.529c-0.019,0-0.035-0.001-0.054-0.001c0.035-0.013,0.07-0.026,0.106-0.04C99.947,97.5,99.93,97.515,99.91,97.529z
	 M129.844,120.595c-2.061,3.892-5.645,6.896-10.257,7.406c-1.479,0.164-2.917,0.067-4.28-0.239c-0.12,0.044-0.256,0.031-0.373-0.09
	c-1.137-0.293-2.207-0.745-3.196-1.333c-0.119,0.006-0.24-0.047-0.314-0.191l-0.002-0.001c-2.531-1.605-4.46-4.126-5.301-7.262
	c-0.58-2.161-0.775-4.402-1.289-6.578c-0.5-2.12-1.398-4.089-2.066-6.153c-1.092-3.364-1.326-6.744,0.847-9.723
	c1.266-1.732,2.929-3.121,4.178-4.871c1.239-1.736,2.196-3.666,2.989-5.646c0.146-0.365,0.286-0.737,0.425-1.104
	c0.194,0.229,0.383,0.458,0.573,0.688c-1.42,3.679-3.356,6.711-6.01,9.622c-2.453,2.689-3.594,5.336-2.765,9.026
	c0.548,2.436,1.708,4.685,2.368,7.088c1.334,4.849,1.064,10.271,5.425,13.607c-1.229-2.681-2.13-5.468-2.69-8.381
	c-0.096-0.495,0.664-0.705,0.758-0.209c0.638,3.31,1.699,6.447,3.218,9.456c0.692,0.408,1.39,0.733,2.091,0.984
	c-0.757-1.151-1.243-2.481-1.77-3.757c-0.905-2.199-1.638-4.419-1.971-6.779c-0.07-0.497,0.688-0.708,0.757-0.209
	c0.259,1.829,0.741,3.579,1.389,5.311c0.721,1.933,1.454,4.263,2.866,5.811c0.638,0.146,1.273,0.229,1.904,0.258
	c-1.888-3.193-3.406-6.541-4.566-10.066c-0.158-0.482,0.603-0.688,0.759-0.21c1.186,3.61,2.756,7.026,4.721,10.278
	c0.952-0.038,1.889-0.195,2.793-0.47c-2.195-2.572-4.068-5.362-5.605-8.379c-0.229-0.449,0.447-0.847,0.679-0.396
	c1.563,3.066,3.465,5.899,5.723,8.502c0.584-0.225,1.152-0.491,1.703-0.803c-1.039-0.828-1.793-1.915-2.589-2.971
	c-0.979-1.298-1.96-2.592-2.938-3.89c-0.307-0.402,0.377-0.794,0.679-0.396c1.67,2.21,3.239,4.983,5.422,6.713
	c0.051,0.042,0.086,0.086,0.106,0.136c0.451-0.293,0.886-0.613,1.306-0.958c-0.025-0.021-0.054-0.032-0.074-0.06
	c-1.439-1.701-2.875-3.403-4.313-5.104c-0.323-0.386,0.229-0.943,0.558-0.559c1.438,1.702,2.873,3.403,4.313,5.106
	c0.035,0.041,0.056,0.084,0.07,0.13c0.498-0.456,0.97-0.948,1.406-1.477c-1.113-1.438-2.335-2.776-3.664-4.02
	c-0.371-0.345,0.186-0.9,0.557-0.555c1.305,1.22,2.507,2.534,3.605,3.942c0.306-0.411,0.591-0.841,0.854-1.281
	c-0.979-1.08-1.961-2.158-2.94-3.237c-0.34-0.374,0.216-0.93,0.557-0.558c0.931,1.024,1.861,2.05,2.791,3.071
	c0.271-0.513,0.515-1.042,0.729-1.587c-0.021-0.018-0.045-0.027-0.064-0.054c-0.653-0.813-1.35-1.587-2.091-2.318
	c-0.361-0.354,0.193-0.911,0.557-0.556c0.672,0.664,1.301,1.362,1.898,2.092c0.401-1.233,0.653-2.528,0.717-3.856
	c0.022-0.504,0.81-0.505,0.785,0c-0.072,1.568-0.379,3.138-0.892,4.635C131.01,118.013,129.904,120.646,129.844,120.595z
	 M132.328,117.651c0.145-0.444,0.278-0.888,0.381-1.337c0.278-0.219,0.567-0.427,0.865-0.624c0.051,0.249,0.094,0.466,0.108,0.522
	c0.019,0.076,0.037,0.152,0.06,0.229C133.234,116.81,132.762,117.209,132.328,117.651z M134.431,115.969
	c-0.03-0.118-0.06-0.237-0.089-0.354c-0.028-0.109-0.053-0.236-0.076-0.369c0.32-0.194,0.646-0.382,0.978-0.566
	c0.073,0.219,0.154,0.435,0.24,0.646C135.127,115.533,134.773,115.744,134.431,115.969z M136.174,114.941
	c-0.082-0.213-0.164-0.427-0.234-0.643c0.412-0.222,0.825-0.438,1.24-0.659c0.053,0.223,0.109,0.448,0.182,0.668
	C136.965,114.514,136.567,114.725,136.174,114.941z M138.065,113.935c-0.069-0.225-0.128-0.452-0.174-0.685
	c0.411-0.229,0.821-0.46,1.222-0.704c0.084,0.224,0.175,0.444,0.27,0.662C138.951,113.46,138.51,113.699,138.065,113.935z
	 M140.063,112.805c-0.1-0.229-0.188-0.463-0.273-0.698c0.431-0.291,0.845-0.604,1.243-0.941c0.145,0.222,0.294,0.44,0.45,0.652
	C141.035,112.172,140.557,112.5,140.063,112.805z M139.23,93.391c-1.535-5.614-2.237-11.422-3.893-17.005
	c-1.939-6.547-5.67-11.8-9.863-17.088c-0.312-0.395,0.24-0.953,0.557-0.555c3.859,4.866,7.525,9.785,9.531,15.738
	c2.051,6.087,2.735,12.519,4.426,18.7c0.925,3.377,2.361,6.373,3.855,9.516c0.285,0.603,0.51,1.198,0.66,1.803
	c-0.002,0.006-0.002,0.007-0.004,0.013c-0.25,0.006-0.5,0.019-0.748,0.042c-0.353-1.407-1.271-2.712-1.901-4.002
	C140.731,98.265,139.902,95.845,139.23,93.391z M142.082,111.317c-0.163-0.222-0.316-0.444-0.459-0.678
	c0.562-0.55,1.059-1.158,1.446-1.818c0.213,0.181,0.425,0.36,0.636,0.54C143.259,110.11,142.707,110.75,142.082,111.317z
	 M144.359,107.994c-0.083,0.229-0.176,0.447-0.273,0.661c-0.218-0.186-0.433-0.369-0.647-0.553c0.373-0.856,0.551-1.789,0.455-2.771
	c0.215-0.021,0.433-0.033,0.652-0.041c0.043-0.003,0.071-0.018,0.107-0.021C144.77,106.157,144.695,107.059,144.359,107.994z
	 M29.513,47.423c0.022-0.551,0.047-1.104,0.074-1.654c-2.623-1.32-5.539-2.305-8.308-0.88c-0.107,0.241-0.215,0.484-0.319,0.728
	C23.974,45.097,26.967,45.737,29.513,47.423z M73.336,95.462c0.086,0.26,0.18,0.518,0.275,0.771
	c0.491-0.145,0.988-0.273,1.489-0.386c-0.07-0.244-0.138-0.492-0.208-0.738C74.368,95.208,73.85,95.327,73.336,95.462z
	 M72.582,95.68c-0.299,0.093-0.595,0.191-0.888,0.298c0.105,0.269,0.209,0.535,0.314,0.801c0.281-0.105,0.568-0.209,0.857-0.308
	C72.768,96.21,72.67,95.946,72.582,95.68z M76.509,94.871c-0.278,0.028-0.558,0.066-0.835,0.106
	c0.066,0.239,0.134,0.479,0.199,0.718c0.256-0.046,0.512-0.085,0.769-0.12C76.592,95.338,76.551,95.104,76.509,94.871z
	 M56.103,102.909c-0.269-0.081-0.543-0.174-0.823-0.291c-0.896-0.37-1.625-0.846-2.233-1.403c0,0.353,0,0.706,0,1.059
	c0.607,0.444,1.271,0.817,1.967,1.105c0.377,0.154,0.743,0.271,1.104,0.371C56.108,103.469,56.101,103.189,56.103,102.909z
	 M70.966,96.261c-0.45,0.188-0.896,0.383-1.325,0.604c-0.156,0.08-0.313,0.164-0.467,0.251c0.165,0.243,0.329,0.486,0.493,0.731
	c0.521-0.277,1.061-0.536,1.617-0.771C71.177,96.804,71.071,96.532,70.966,96.261z M77.292,94.796
	c0.041,0.229,0.087,0.458,0.133,0.688c0.126-0.013,0.253-0.024,0.379-0.034C77.76,95.226,77.73,95,77.695,94.777
	C77.559,94.784,77.425,94.789,77.292,94.796z M56.891,103.111c0,0.272,0,0.543,0.009,0.816c1.31,0.229,2.522,0.117,3.671-0.244
	c-0.089-0.253-0.16-0.511-0.232-0.769C59.275,103.251,58.14,103.359,56.891,103.111z M84.632,96.508
	c0.747,0.338,1.457,0.757,2.112,1.272c0.008,0.004,0.016,0.01,0.022,0.017c0.072-0.247,0.158-0.49,0.248-0.731
	c-0.703-0.524-1.43-0.981-2.246-1.336C84.716,95.986,84.67,96.248,84.632,96.508z M63.785,101.044
	c0.123,0.25,0.254,0.495,0.387,0.738c0.577-0.41,1.146-0.854,1.716-1.314c-0.126-0.25-0.251-0.501-0.37-0.752
	C64.94,100.171,64.366,100.622,63.785,101.044z M63.141,101.491c-0.669,0.451-1.354,0.848-2.064,1.147
	c0.073,0.262,0.145,0.522,0.234,0.778c0.757-0.31,1.49-0.72,2.209-1.189C63.387,101.988,63.265,101.741,63.141,101.491z
	 M79.475,94.755c-0.332-0.012-0.663-0.012-0.996-0.008c0.034,0.22,0.064,0.439,0.108,0.657c0.286-0.009,0.571-0.007,0.854-0.003
	C79.446,95.187,79.457,94.972,79.475,94.755z M66.155,99.212c0.112,0.251,0.23,0.499,0.354,0.744
	c0.033-0.026,0.07-0.057,0.103-0.084c0.708-0.591,1.508-1.143,2.367-1.643c-0.159-0.236-0.317-0.475-0.478-0.712
	C67.692,98.031,66.917,98.616,66.155,99.212z M87.658,97.566c-0.089,0.253-0.162,0.509-0.229,0.766
	c0.647,0.535,1.266,1.064,1.91,1.539c0.02-0.295,0.045-0.59,0.078-0.883c-0.181-0.132-0.359-0.269-0.535-0.412
	C88.463,98.227,88.06,97.888,87.658,97.566z M80.258,94.793c-0.02,0.216-0.029,0.429-0.031,0.645
	c0.435,0.031,0.861,0.079,1.283,0.147c0.018-0.221,0.035-0.441,0.053-0.661C81.131,94.867,80.694,94.827,80.258,94.793z
	 M82.337,95.046c-0.018,0.229-0.035,0.458-0.052,0.687c0.545,0.122,1.08,0.273,1.6,0.467c0.041-0.251,0.09-0.502,0.141-0.75
	c-0.217-0.07-0.437-0.14-0.668-0.191C83.021,95.175,82.681,95.108,82.337,95.046z M90.162,99.483
	c-0.027,0.301-0.058,0.601-0.069,0.901c0.839,0.523,1.753,0.92,2.852,1.086c-0.024-0.303-0.041-0.604-0.06-0.906
	C91.954,100.378,91.039,100.013,90.162,99.483z M87.287,85.41c-0.16-0.116-0.326-0.229-0.488-0.346
	c-0.084,0.206-0.176,0.41-0.278,0.612c-0.02,0.04-0.048,0.066-0.075,0.094c0.238,0.167,0.479,0.327,0.711,0.5
	c-0.088-0.112-0.128-0.266-0.055-0.428C87.166,85.7,87.223,85.552,87.287,85.41z M87.933,85.881
	c-0.054,0.119-0.099,0.24-0.153,0.359c-0.098,0.21-0.288,0.233-0.448,0.163c0.481,0.356,0.965,0.72,1.436,1.097
	c0.394,0.31,0.953-0.242,0.56-0.56C88.865,86.58,88.401,86.228,87.933,85.881z M87.883,84.018c-0.201-0.15-0.402-0.305-0.606-0.453
	c-0.064,0.27-0.14,0.536-0.227,0.8c0.173,0.129,0.343,0.264,0.514,0.395C87.67,84.512,87.785,84.267,87.883,84.018z M88.635,85.579
	c0.394,0.311,0.953-0.241,0.558-0.557c-0.222-0.176-0.446-0.343-0.669-0.514c-0.101,0.249-0.211,0.494-0.315,0.738
	C88.348,85.36,88.494,85.467,88.635,85.579z M88.439,82.482c-0.27-0.229-0.541-0.458-0.817-0.682
	c-0.047,0.299-0.099,0.596-0.153,0.889c0.231,0.191,0.452,0.4,0.679,0.599C88.246,83.019,88.346,82.751,88.439,82.482z
	 M89.069,83.038c-0.093,0.269-0.191,0.538-0.292,0.805c0.111,0.1,0.229,0.195,0.341,0.302c0.368,0.347,0.926-0.209,0.557-0.558
	C89.475,83.399,89.272,83.217,89.069,83.038z M89.58,81.464c-0.082,0.275-0.159,0.555-0.249,0.826
	c0.124,0.11,0.249,0.215,0.37,0.328c0.374,0.34,0.932-0.215,0.557-0.556C90.035,81.858,89.809,81.664,89.58,81.464z M88.928,80.916
	c-0.342-0.277-0.687-0.551-1.037-0.816c-0.029,0.167-0.063,0.331-0.088,0.498c-0.018,0.127-0.035,0.251-0.057,0.378
	c0.315,0.246,0.629,0.496,0.938,0.755C88.77,81.461,88.85,81.189,88.928,80.916z M89.328,79.409
	c-0.384-0.278-0.769-0.549-1.154-0.819c-0.059,0.278-0.115,0.559-0.168,0.839c0.377,0.264,0.752,0.533,1.121,0.806
	C89.203,79.961,89.262,79.683,89.328,79.409z M90.013,79.916c-0.069,0.273-0.134,0.547-0.21,0.816
	c0.159,0.121,0.321,0.235,0.479,0.357c0.401,0.307,0.793-0.375,0.396-0.679C90.459,80.243,90.234,80.082,90.013,79.916z
	 M89.529,78.575c0.018-0.075,0.039-0.15,0.054-0.226c0.043-0.208,0.201-0.286,0.358-0.277c-0.02-0.05-0.054-0.099-0.106-0.142
	c-0.414-0.34-0.842-0.666-1.273-0.986c-0.069,0.271-0.141,0.543-0.205,0.816c0.313,0.236,0.621,0.477,0.922,0.726
	C89.357,78.551,89.443,78.574,89.529,78.575z M74.307,75.187c-0.094-0.248-0.197-0.494-0.297-0.737
	c-0.242,0.058-0.479,0.129-0.719,0.196c0.069,0.251,0.143,0.502,0.215,0.756C73.771,75.324,74.039,75.247,74.307,75.187z
	 M72.234,77.076c0.288-0.092,0.574-0.175,0.863-0.251c-0.074-0.252-0.146-0.505-0.219-0.755c-0.286,0.079-0.57,0.159-0.854,0.247
	C71.544,76.468,71.748,77.226,72.234,77.076z M73.859,76.631c0.301-0.072,0.603-0.138,0.901-0.199
	c-0.087-0.25-0.169-0.502-0.261-0.749c-0.287,0.06-0.574,0.124-0.859,0.192C73.713,76.127,73.785,76.379,73.859,76.631z
	 M74.238,77.885c0.313-0.076,0.625-0.142,0.939-0.208c-0.08-0.252-0.16-0.502-0.245-0.755c-0.31,0.067-0.616,0.132-0.923,0.207
	C74.085,77.381,74.16,77.633,74.238,77.885z M71.521,77.859c0.073,0.243,0.146,0.486,0.224,0.729c0.017-0.002,0.03,0,0.049-0.007
	c0.559-0.185,1.121-0.348,1.686-0.498c-0.076-0.251-0.151-0.503-0.228-0.753c-0.559,0.15-1.114,0.313-1.666,0.493
	C71.559,77.832,71.541,77.846,71.521,77.859z M74.689,79.372c0.312-0.064,0.621-0.121,0.932-0.178
	c-0.067-0.255-0.147-0.508-0.221-0.76c-0.313,0.057-0.629,0.113-0.938,0.181C74.534,78.868,74.611,79.121,74.689,79.372z
	 M71.955,79.236c0.079,0.248,0.164,0.499,0.247,0.746c0.569-0.162,1.144-0.309,1.718-0.44c-0.078-0.252-0.152-0.503-0.23-0.754
	C73.108,78.921,72.53,79.073,71.955,79.236z M71.111,80.308c0.112-0.034,0.228-0.064,0.339-0.102
	c-0.082-0.248-0.169-0.496-0.248-0.744c-0.101,0.031-0.199,0.058-0.3,0.09C70.423,79.706,70.63,80.465,71.111,80.308z
	 M75.084,80.608c0.278-0.061,0.561-0.118,0.842-0.171c-0.061-0.258-0.125-0.513-0.189-0.77c-0.299,0.056-0.597,0.121-0.893,0.186
	C74.923,80.105,75.004,80.356,75.084,80.608z M72.377,80.5c0.084,0.247,0.166,0.498,0.252,0.742c0.559-0.168,1.12-0.33,1.684-0.468
	c-0.08-0.25-0.16-0.5-0.238-0.751C73.506,80.167,72.939,80.328,72.377,80.5z M70.731,81.894c0.381-0.144,0.766-0.283,1.151-0.411
	c-0.086-0.248-0.17-0.496-0.255-0.743c-0.36,0.12-0.718,0.252-1.075,0.386C70.611,81.379,70.668,81.638,70.731,81.894z
	 M71.133,83.394c0.437-0.132,0.873-0.254,1.311-0.37c-0.092-0.247-0.181-0.495-0.27-0.742c-0.416,0.11-0.83,0.229-1.244,0.354
	C70.996,82.888,71.063,83.141,71.133,83.394z M74.852,82.445c-0.083-0.247-0.164-0.499-0.246-0.749
	c-0.561,0.117-1.115,0.249-1.672,0.39c0.09,0.246,0.178,0.495,0.271,0.742C73.752,82.689,74.299,82.56,74.852,82.445z
	 M72.785,83.928c-0.454,0.142-0.906,0.288-1.356,0.444c0.077,0.249,0.15,0.5,0.231,0.75c0.468-0.163,0.939-0.315,1.415-0.462
	C72.979,84.417,72.879,84.174,72.785,83.928z M74.955,83.326c-0.476,0.115-0.948,0.241-1.418,0.376
	c0.095,0.249,0.193,0.493,0.293,0.741c0.518-0.146,1.037-0.28,1.559-0.405c-0.085-0.25-0.17-0.504-0.254-0.752
	C75.074,83.299,75.016,83.312,74.955,83.326z M70.102,85.689c0.273-0.104,0.546-0.2,0.818-0.301c-0.082-0.247-0.156-0.5-0.234-0.751
	c-0.264,0.098-0.528,0.192-0.793,0.294C69.428,85.111,69.628,85.872,70.102,85.689z M74.281,85.589
	c0.05,0.118,0.038,0.218-0.01,0.296c0.619-0.208,1.242-0.409,1.865-0.606c-0.17,0.016-0.348-0.059-0.418-0.262
	c-0.045-0.129-0.088-0.259-0.131-0.386c-0.498,0.157-0.996,0.319-1.49,0.483C74.158,85.273,74.217,85.432,74.281,85.589z
	 M69.855,86.625c-0.469,0.177-0.265,0.938,0.209,0.758c0.456-0.174,0.916-0.337,1.373-0.505c-0.09-0.245-0.176-0.492-0.262-0.739
	C70.736,86.3,70.295,86.458,69.855,86.625z M73.523,85.798c-0.059-0.142-0.108-0.285-0.169-0.428
	c-0.479,0.165-0.963,0.329-1.441,0.501c0.086,0.247,0.172,0.493,0.262,0.737c0.545-0.193,1.094-0.382,1.641-0.566
	C73.693,86.012,73.582,85.939,73.523,85.798z M67.396,61.77c0.09-0.494-0.667-0.705-0.756-0.207
	c-0.576,3.195,1.371,6.141,4.596,6.736c0.494,0.091,0.707-0.666,0.209-0.759C68.673,67.027,66.893,64.574,67.396,61.77z
	 M68.085,68.105c-1.696-0.794-2.642-2.641-2.225-4.478c0.113-0.492-0.646-0.702-0.757-0.21c-0.494,2.164,0.563,4.422,2.584,5.367
	C68.145,68.999,68.543,68.32,68.085,68.105z M70.507,52c-0.697,0.49-1.19,1.176-1.399,2.006c-0.124,0.49,0.635,0.699,0.758,0.209
	c0.157-0.621,0.51-1.165,1.036-1.537C71.313,52.389,70.922,51.707,70.507,52z M72.771,52.685c-0.5,0.49-0.843,1.108-0.979,1.795
	c-0.099,0.494,0.66,0.703,0.758,0.207c0.111-0.563,0.364-1.045,0.775-1.445C73.689,52.887,73.134,52.331,72.771,52.685z
	 M45.402,31.744" class="color c1"/>
</svg>