<svg version="1.1" id="图层_1" x="0px" y="0px" width="150.969px" height="171.323px" viewBox="0 0 150.969 171.323" enable-background="new 0 0 150.969 171.323" xml:space="preserve" xmlns="http://www.w3.org/2000/svg" xmlns:xlink="http://www.w3.org/1999/xlink" xmlns:xml="http://www.w3.org/XML/1998/namespace">
  <path fill="#333131" d="M107.767,126.849c0,0,9.849,19.609,24.791,8.458c0,0,14.328,8.542,18.097-6.243
	c-0.003,0.001,4.634-33.154-21.573-44.646l-5.091-0.672l-1.598,0.309c0,0,8.377-29.461-4.332-33.903
	c-0.714-0.251-1.388-0.433-2.042-0.586l-0.103-0.534l-0.95-13.523c-3.145-3.438-4.521,0.872-4.521,0.872l0.15,12.997
	c-6.427,1.327-8.199,8.457-8.9,10.272c-0.917,2.384-1.277,14.808-0.599,16.91c0.682,2.098,0.682,2.098,0.682,2.098l-13.306,1.465
	c0,0-4.168-16.293-9.282-21.369c-5.114-5.081-7.096-5.339-7.096-5.339S103.441,39.955,77.602,0
	C62.993,0.168,49.264,3.982,37.285,10.591c-2.921,4.984-4.815,12.361-3.967,23.334c0,0-19.904-1.747-25.318,8.863
	c-0.531-0.596-1.336-1.435-2.268-2.189C3.569,44.091,1.65,47.75,0,51.553c1.332,0.431,3.408-0.032,6.658-2.564
	c0.006,0.459,0.019,0.92,0.062,1.405c0,0-0.375,23.784,37.465,18.416l9.304-1.794c0,0,4.595,22.154,14.145,27.598
	c2.169,1.236,2.169,1.236,2.169,1.236l-3.989,0.769c-6.324,1.499-11.748,13.424-13.243,17.095
	c-1.498,3.674-10.579,29.505-2.933,47.696c1.086,2.585,2.322,4.579,3.639,6.105c4.867,1.503,9.927,2.565,15.121,3.183
	c1.613-0.682,2.73-1.437,3.027-1.713c0.065,0.319,0.965,1.265,2.462,2.204c1.562,0.085,3.133,0.135,4.717,0.135
	c3.981,0,7.893-0.293,11.729-0.82C98.753,164.845,107.698,150.478,107.767,126.849z" class="color c1"/>
</svg>