<svg version="1.1" id="图层_1" x="0px" y="0px" width="98.854px" height="142.536px" viewBox="0 0 98.854 142.536" enable-background="new 0 0 98.854 142.536" xml:space="preserve" xmlns="http://www.w3.org/2000/svg" xmlns:xlink="http://www.w3.org/1999/xlink" xmlns:xml="http://www.w3.org/XML/1998/namespace">
  <path fill="#FFDC62" d="M36.757,69.888c1.592,0.455,3.033,1.607,4.652,1.875c1.01,0.167,2.057,0.221,3.079,0.198
	c0,0-1.438,7.4-1.438,7.401c0.012-0.061-0.552-5.24-2.93-4.595c-2.758,0.748-6.457,0.627-8.305-1.903
	c-1.042-1.424-3.562-2.026-3.562-2.026s0.767-0.548,2.465-1.095C32.663,69.249,34.831,69.337,36.757,69.888z M36.089,35.717
	c-1.977,0.667-4.074,1.469-6.219,2.419c0.052,0.049,0.1,0.096,0.154,0.147c0.096,0.088,0.229,0.22,0.293,0.271l0.292,0.257
	c0.792,0.675,1.716,1.255,2.733,1.785c1.023,0.532,2.136,1.021,3.289,1.571c1.192,0.568,2.278,1.163,3.389,1.792
	c1.098,0.633,2.156,1.323,3.166,2.04c1.008,0.723,1.947,1.506,2.81,2.314c0.842,0.839,1.63,1.678,2.237,2.603
	c0.49,0.688,0.881,1.409,1.193,2.109l1.627-18.444l-1.627-1.059C44.92,33.523,40.413,34.255,36.089,35.717z M3.2,75.283
	c0.959-0.621,1.95-1.345,2.932-2.206c0.988-0.854,1.959-1.847,2.927-2.935c1.935-2.17,3.878-4.708,6.19-7.137l0.89-0.9l0.965-0.892
	l0.905-0.772c0.352-0.271,0.703-0.54,1.052-0.81c1.376-1.009,2.829-1.876,4.306-2.587c1.476-0.722,2.992-1.249,4.465-1.64
	c1.47-0.41,2.92-0.587,4.259-0.68c0.673-0.038,1.319-0.063,1.935-0.035c0.617-0.001,1.201,0.056,1.748,0.109
	c0.551,0.036,1.058,0.138,1.53,0.212c0.28,0.038,0.553,0.096,0.818,0.157c0.959-0.021,1.863,0.075,2.68,0.264
	c1.431,0.33,3.11,1.027,4.608,1.74c0.005-0.066,0.01-0.132,0.014-0.206c0.004-0.053,0.008-0.106,0.012-0.163
	c-0.001-0.041-0.01-0.063-0.013-0.099c-0.007-0.064-0.015-0.133-0.021-0.205c0.008-0.249-0.082-0.759-0.23-1.287
	c-0.168-0.532-0.401-1.15-0.804-1.802c-0.367-0.661-0.9-1.356-1.502-2.078c-0.635-0.707-1.357-1.436-2.182-2.145
	c-0.826-0.706-1.725-1.407-2.68-2.09c-0.95-0.677-1.976-1.383-2.967-1.984c-1.025-0.629-2.129-1.253-3.207-1.964
	c-1.077-0.711-2.127-1.524-3.015-2.458l-0.325-0.353c-0.139-0.151-0.195-0.233-0.297-0.354c-0.177-0.213-0.364-0.451-0.551-0.697
	c-0.022-0.029-0.041-0.058-0.063-0.086C18.076,43.85,8.154,51.561,3.923,64.207c-0.379,1.135-0.803,2.257-1.258,3.363
	c-0.713,1.732-1.801,4.918-2.339,9.253c0.057-0.024,0.112-0.047,0.169-0.073C1.337,76.378,2.26,75.876,3.2,75.283z M15.21,104.952
	c0.613-1.908,1.476-3.745,2.727-5.471l0.497-0.65c0.163-0.207,0.3-0.346,0.451-0.522l0.441-0.501l0.542-0.56
	c0.615-0.63,1.228-1.257,1.836-1.88c1.154-1.22,2.219-2.388,2.934-3.559c0.731-1.176,1.028-2.222,1.006-3.154
	c0.025-0.236-0.047-0.473-0.08-0.706c-0.016-0.259-0.12-0.405-0.156-0.604l-0.032-0.143L25.36,87.13l-0.057-0.118
	c-0.078-0.162-0.157-0.322-0.234-0.481c-0.078-0.159-0.154-0.316-0.23-0.472l-0.025-0.053L24.8,85.985l-0.123-0.214
	c-0.654-1.121-1.333-2.237-1.883-3.426c-0.464-0.99-0.768-2.006-0.93-2.895c-0.551-2.227-0.479-5.188,0.752-9.351
	c1.258-4.251,3.035-7.402,5.041-9.691c-0.809,0.205-1.631,0.461-2.453,0.798c-1.256,0.506-2.518,1.146-3.734,1.916l-0.868,0.574
	l-0.956,0.71l-0.839,0.676l-0.859,0.732c-2.292,2.005-4.427,4.402-6.707,6.485c-1.132,1.045-2.292,2.021-3.47,2.854
	c-1.177,0.828-2.342,1.563-3.488,2.087c-1.162,0.556-2.28,0.894-3.299,1.091c-0.285,0.055-0.561,0.095-0.828,0.125
	c-0.818,9.635,1.25,24.123,14.624,40.682c-0.192-1.039-0.363-2.133-0.478-3.316c-0.162-1.633-0.238-3.389-0.107-5.221
	C14.326,108.774,14.59,106.847,15.21,104.952z M43.637,112.284c0,1.215-1.495,3.082-1.495,3.082
	c-1.494-1.588-2.146-6.507-2.146-6.507c3.377-2.284,9.432-4.513,9.432-4.513l1.439-13.14l-1.439-1.135c-0.278,0-0.558-0.021-0.838,0
	c-2.125,0.163-6.376,0.704-8.997,1.984c0,0-0.185,3.821,6.878,7.087c0.852,0.555,1.178,2.223,1.046,2.847
	c-0.008,0.042-0.005,0.083,0.003,0.124c-2.834,2.186-6.414,3.866-9.856,4.709c-1.946,0.479-3.618-0.429-4.931-1.706
	c-2.081-2.026-3.059-4.929-2.82-7.823c0.129-1.551,0.174-3.495-0.07-5.326c-0.328,0.972-0.779,1.877-1.307,2.643
	c-1.115,1.68-2.418,3.061-3.748,4.301c-0.65,0.593-1.305,1.191-1.962,1.791l-0.237,0.217l-0.12,0.109l-0.06,0.055l-0.029,0.027
	c0.022-0.023,0.03-0.031,0.041-0.042l-0.004,0.004l-0.469,0.474c-0.148,0.154-0.331,0.326-0.451,0.466l-0.336,0.403
	c-0.953,1.104-1.805,2.512-2.407,3.979c-0.604,1.481-1.063,3.058-1.343,4.645c-0.275,1.585-0.443,3.17-0.506,4.692
	c-0.025,0.762-0.033,1.506-0.029,2.23c-0.004,0.725,0.013,1.449,0.037,2.113c0.025,0.605,0.063,1.182,0.107,1.734
	c0.352,0.404,0.711,0.811,1.076,1.217c1.811,2.089,7.301,7.852,14.894,12.674c-0.147-0.623-0.269-1.268-0.335-1.954
	c-0.279-2.915-0.043-6.056,0.664-8.858c0.377-1.498,1.07-3.133,1.644-4.594c-0.491,4.187,0.091,7.729,2.1,11.287
	c1.283,2.27,2.282,4.666,2.828,7.345c0.038,0.194,0.065,0.382,0.089,0.569c2.977,1.342,6.146,2.42,9.449,3.041l1.564-21.767
	l-1.564-1.672C45.767,117.448,43.637,112.284,43.637,112.284z M22.43,101.056C22.451,101.034,22.438,101.048,22.43,101.056
	L22.43,101.056z M22.43,101.056c-0.002,0.003-0.009,0.01-0.011,0.013l0.01-0.011C22.423,101.064,22.425,101.062,22.43,101.056z
	 M44.664,13.176c0.854,3.423,1.368,6.846-3.251,8.557c-4.621,1.711-7.358-3.766-7.016-5.647c0.341-1.882-6.503-5.149-10.952-5.056
	l11.123,20.115l2.188-0.516c4.167-0.979,8.419-1.47,12.671-1.47l1.814-2.702L49.427,0C49.427,0,42.61,5.133,44.664,13.176z" class="color c1"/>
  <path fill="#F8AC40" d="M68.136,69.743c1.697,0.547,2.464,1.095,2.464,1.095s-2.52,0.603-3.56,2.026
	c-1.848,2.53-5.549,2.651-8.307,1.903c-2.377-0.646-2.94,4.534-2.928,4.595c-0.002-0.001-1.439-7.401-1.439-7.401
	c1.022,0.022,2.068-0.031,3.078-0.198c1.619-0.268,3.061-1.42,4.652-1.875C64.022,69.337,66.19,69.249,68.136,69.743z
	 M52.857,48.314c0.862-0.809,1.803-1.592,2.81-2.314c1.01-0.717,2.068-1.407,3.166-2.04c1.111-0.629,2.196-1.224,3.39-1.792
	c1.153-0.551,2.265-1.039,3.288-1.571c1.018-0.53,1.941-1.11,2.734-1.785l0.292-0.257c0.065-0.052,0.197-0.184,0.292-0.271
	c0.055-0.052,0.104-0.099,0.154-0.147c-2.145-0.95-4.242-1.752-6.219-2.419c-4.323-1.462-8.83-2.193-13.338-2.193v19.503
	c0.313-0.7,0.703-1.422,1.194-2.109C51.229,49.992,52.017,49.153,52.857,48.314z M71.213,39.289
	c-0.187,0.246-0.374,0.484-0.552,0.697c-0.102,0.12-0.157,0.202-0.297,0.354l-0.325,0.353c-0.888,0.934-1.937,1.747-3.015,2.458
	c-1.076,0.711-2.181,1.335-3.207,1.964c-0.991,0.602-2.016,1.308-2.965,1.984c-0.955,0.683-1.855,1.384-2.681,2.09
	c-0.823,0.709-1.548,1.438-2.182,2.145c-0.603,0.722-1.136,1.417-1.503,2.078c-0.401,0.651-0.635,1.27-0.803,1.802
	c-0.148,0.528-0.239,1.038-0.23,1.287c-0.008,0.072-0.016,0.141-0.022,0.205c-0.003,0.035-0.011,0.058-0.013,0.099
	c0.005,0.057,0.008,0.11,0.012,0.163c0.006,0.074,0.01,0.14,0.014,0.206c1.498-0.713,3.178-1.41,4.609-1.74
	c0.816-0.188,1.72-0.284,2.679-0.264c0.267-0.062,0.539-0.119,0.819-0.157c0.473-0.074,0.979-0.176,1.529-0.212
	c0.549-0.054,1.131-0.11,1.748-0.109c0.616-0.028,1.262-0.003,1.935,0.035c1.341,0.093,2.79,0.27,4.26,0.68
	c1.473,0.391,2.989,0.918,4.464,1.64c1.479,0.711,2.931,1.578,4.307,2.587c0.35,0.27,0.699,0.538,1.051,0.81l0.906,0.772
	l0.964,0.892l0.892,0.9c2.311,2.429,4.254,4.967,6.189,7.137c0.967,1.088,1.938,2.08,2.926,2.935
	c0.982,0.861,1.975,1.585,2.933,2.206c0.939,0.593,1.862,1.095,2.704,1.467c0.058,0.026,0.112,0.049,0.17,0.073
	c-0.539-4.335-1.626-7.521-2.34-9.253c-0.455-1.106-0.878-2.229-1.258-3.363C90.7,51.561,80.778,43.85,71.276,39.203
	C71.254,39.231,71.234,39.26,71.213,39.289z M84.075,119.14c13.374-16.559,15.441-31.047,14.623-40.682
	c-0.268-0.03-0.543-0.07-0.828-0.125c-1.018-0.197-2.137-0.535-3.299-1.091c-1.146-0.523-2.311-1.259-3.488-2.087
	c-1.178-0.833-2.338-1.81-3.469-2.854c-2.28-2.083-4.416-4.48-6.707-6.485l-0.86-0.732l-0.839-0.676l-0.955-0.71l-0.868-0.574
	c-1.218-0.771-2.479-1.41-3.735-1.916c-0.821-0.337-1.645-0.593-2.453-0.798c2.008,2.289,3.783,5.44,5.041,9.691
	c1.23,4.162,1.303,7.124,0.752,9.351c-0.162,0.889-0.465,1.904-0.93,2.895c-0.549,1.188-1.228,2.305-1.883,3.426l-0.123,0.214
	l-0.013,0.021l-0.025,0.053c-0.077,0.155-0.153,0.313-0.23,0.472s-0.157,0.319-0.235,0.481l-0.057,0.118l-0.014,0.073l-0.032,0.143
	c-0.036,0.198-0.141,0.345-0.157,0.604c-0.033,0.233-0.105,0.47-0.079,0.706c-0.022,0.933,0.274,1.979,1.007,3.154
	c0.713,1.171,1.779,2.339,2.932,3.559c0.608,0.623,1.221,1.25,1.837,1.88l0.541,0.56l0.442,0.501
	c0.151,0.177,0.287,0.315,0.451,0.522l0.497,0.65c1.25,1.726,2.113,3.563,2.726,5.471c0.621,1.895,0.885,3.822,1.016,5.65
	c0.131,1.832,0.055,3.588-0.107,5.221C84.438,117.007,84.268,118.101,84.075,119.14z M81.444,111.039
	c-0.279-1.587-0.737-3.163-1.343-4.645c-0.603-1.468-1.454-2.876-2.407-3.979l-0.336-0.403c-0.12-0.14-0.303-0.312-0.449-0.466
	l-0.47-0.474l-0.004-0.004c0.011,0.011,0.019,0.019,0.04,0.042l-0.029-0.027l-0.06-0.055l-0.118-0.109l-0.239-0.217
	c-0.657-0.6-1.312-1.198-1.962-1.791c-1.33-1.24-2.632-2.621-3.747-4.301c-0.528-0.766-0.979-1.671-1.308-2.643
	c-0.244,1.831-0.198,3.775-0.07,5.326c0.238,2.895-0.738,5.797-2.82,7.823c-1.313,1.277-2.984,2.185-4.93,1.706
	c-3.443-0.843-7.023-2.523-9.857-4.709c0.009-0.041,0.012-0.082,0.003-0.124c-0.132-0.624,0.196-2.292,1.046-2.847
	c7.063-3.266,6.879-7.087,6.879-7.087c-2.621-1.28-6.873-1.821-8.998-1.984c-0.28-0.021-0.559,0-0.838,0v14.274
	c0,0,6.056,2.229,9.433,4.513c0,0-0.653,4.919-2.147,6.507c0,0-1.494-1.867-1.494-3.082c0,0-2.131,5.164-5.791,6.813v23.438
	c3.305-0.621,6.473-1.699,9.449-3.041c0.023-0.188,0.051-0.375,0.09-0.569c0.545-2.679,1.544-5.075,2.827-7.345
	c2.01-3.559,2.592-7.101,2.1-11.287c0.573,1.461,1.268,3.096,1.646,4.594c0.705,2.803,0.941,5.943,0.662,8.858
	c-0.066,0.687-0.188,1.331-0.335,1.954c7.593-4.822,13.083-10.585,14.894-12.674c0.365-0.406,0.725-0.813,1.077-1.217
	c0.046-0.553,0.081-1.129,0.106-1.734c0.025-0.664,0.042-1.389,0.039-2.113c0.003-0.725-0.005-1.469-0.031-2.23
	C81.889,114.209,81.72,112.624,81.444,111.039z M76.424,101.056C76.415,101.048,76.403,101.034,76.424,101.056L76.424,101.056z
	 M76.425,101.058l0.011,0.011c-0.003-0.003-0.009-0.01-0.012-0.013C76.429,101.062,76.431,101.064,76.425,101.058z M64.286,31.145
	l11.122-20.115c-4.448-0.094-11.293,3.174-10.952,5.056c0.344,1.882-2.395,7.358-7.015,5.647s-4.106-5.134-3.251-8.557
	C56.243,5.133,49.427,0,49.427,0v29.159c4.252,0,8.504,0.49,12.672,1.47L64.286,31.145z" class="color c2"/>
</svg>