<svg version="1.1" id="图层_1" x="0px" y="0px" width="191.486px" height="166.142px" viewBox="0 0 191.486 166.142" enable-background="new 0 0 191.486 166.142" xml:space="preserve" xmlns="http://www.w3.org/2000/svg" xmlns:xlink="http://www.w3.org/1999/xlink" xmlns:xml="http://www.w3.org/XML/1998/namespace">
  <path fill="#523225" d="M36.383,70.879c-0.096-0.383-0.164-0.797-0.162-1.264c0.002-0.566,0.078-1.094,0.209-1.537
	c0.133-0.443,0.32-0.803,0.561-1.035c0.16-0.154,0.354-0.254,0.566-0.254c0.213,0.002,0.408,0.102,0.566,0.256
	c0.16,0.156,0.295,0.369,0.406,0.625c0.223,0.51,0.354,1.195,0.352,1.951c0,0.451-0.078,0.842-0.166,1.221
	c-0.238-0.012-0.49-0.041-0.715-0.041C37.402,70.799,36.863,70.832,36.383,70.879z M191.486,106.274
	c-0.02,7.402-1.299,13.896-3.555,19.475c-2.254,5.58-5.48,10.24-9.369,13.971c-7.777,7.469-18.172,11.217-28.713,11.373h-0.004
	c-0.16,0.002-0.322,0.002-0.484,0.002c-3.916-0.01-7.799-0.82-11.586-2.215c-3.787-1.396-7.479-3.375-11.031-5.74
	c-7.105-4.727-13.658-10.988-19.254-17.232c-9.744-10.881-16.574-21.721-18.188-24.354l0,0L89.3,101.55
	c-0.078-0.127-0.266-0.477-0.48-0.881c-1.875,0.836-3.668,1.643-5.428,2.346l0.59-0.156l0.357,5.289l-0.346,7.43l-0.99,4.441
	c-0.127-0.242-1.031-2.346-5.375-2.287c-0.412,0.006-0.885,0.082-1.391,0.217c0.047,0.055,0.111,0.104,0.158,0.158
	c0.881,1.037,1.232,2.035,1.254,2.094c0.152,0.43-0.061,0.906-0.475,1.063c-0.412,0.156-0.869-0.063-1.02-0.49h-0.002l-0.004-0.01
	l-0.018-0.049c-0.018-0.045-0.049-0.115-0.09-0.205c-0.084-0.178-0.217-0.434-0.4-0.717c-0.369-0.566-0.945-1.23-1.744-1.66
	c-0.535-0.287-1.172-0.48-1.963-0.484c-0.748-0.002-1.643,0.17-2.713,0.637c-0.18,0.078-0.719,0.346-0.844,0.406
	c0.021,0.426,0.035,0.869,0.053,1.303c0.576,1.357,1.197,2.662,1.93,3.781c0.75,1.143,1.586,2.125,2.559,2.852
	c0.486,0.361,1.008,0.656,1.564,0.861c0.559,0.207,1.152,0.32,1.764,0.32c0.563,0.002,1.141-0.09,1.717-0.279
	c1.609-0.521,2.895-1.555,3.869-2.852c0.736-0.973,1.31-2.096,1.767-3.305c0.686-1.811,1.105-3.818,1.361-5.826
	c0.256-2.01,0.346-4.021,0.352-5.838c0.004-2.705-0.174-4.949-0.291-6.111l2.635-0.617c0.086,1.615,0.156,3.221,0.154,4.756
	c-0.018,7.459-1.064,13.883-2.73,18.518c-0.832,2.318-1.82,4.186-2.873,5.502c-0.525,0.658-1.064,1.18-1.602,1.559
	c-0.539,0.383-1.07,0.623-1.598,0.74h0.002c-0.166,0.037-0.416,0.084-0.793,0.084c-0.73-0.004-1.926-0.188-3.623-1.166
	c-1.637-0.947-3.738-2.662-6.24-5.648c-0.131,1.777-0.357,3.443-0.762,5.135c-0.676,2.832-1.799,5.75-3.58,9.592
	c-3.848,8.291-8.928,13.828-13.637,17.445c-4.715,3.615-9.051,5.318-11.479,5.988c-0.699,0.193-1.232,0.301-1.621,0.346
	c-1.65,0.193-3.299,0.316-4.918,0.313c-0.031,0-0.059,0-0.084,0h-0.002c-2.537-0.014-5.008-0.346-7.266-1.268
	c-2.254-0.918-4.285-2.445-5.865-4.752c-1.057-1.537-1.918-3.408-2.555-5.672c-0.848-3.016-1.303-6.723-1.291-11.287
	c0.01-4.203,0.416-9.135,1.285-14.924c0.428-2.84,1.08-5.627,1.83-8.385c-0.338-0.486-0.713-1.055-1.1-1.775
	c-1.053-1.959-2.078-4.713-2.07-7.98c0.002-0.918,0.117-1.889,0.305-2.885c0.25,0.037,2.752,0.221,4.324-0.434
	c1.34-0.561,2.352-1.221,2.994-1.836c0.643-0.617,0.949-1.117,0.977-1.162c0.229-0.375,0.107-0.867-0.27-1.094
	s-0.863-0.105-1.092,0.268v-0.002l-0.006,0.008c-0.045,0.072-0.514,0.775-1.455,1.445c-0.949,0.668-2.355,1.313-4.383,1.311
	c-0.096,0-0.191-0.002-0.289-0.006c-0.92-0.025-2.729-0.717-3.434-1.102c-1.832-1-3.725-2.574-5.354-4.152
	c-1.631-1.576-3.004-3.154-3.842-4.162c-0.945-1.131-2.037-1.791-2.822-2.262c-0.393-0.232-0.713-0.424-0.873-0.557
	C0.014,93.468,0.01,93.462,0,93.454c0.02-0.029,0.014-0.031,0.059-0.08c0.096-0.107,0.904-0.83,1.117-1.094
	c0.398-0.494,0.818-1.143,1.273-1.919c0.793-1.354,1.68-3.086,2.57-4.936c1.396-2.898,2.799-6.078,3.82-8.453
	c0.809-1.881,2.764-5.352,4.414-6.814c0.912-0.811,2-1.611,3.207-2.205c1.209-0.596,2.531-0.982,3.936-0.996h0.002
	c0.053-0.002,0.107-0.002,0.162,0c2.896,0.006,5.127,0.91,6.643,1.813c0.76,0.451,1.334,0.902,1.715,1.234
	c0.191,0.166,0.334,0.303,0.426,0.395c0.047,0.045,0.08,0.08,0.1,0.104l0.021,0.023l0.002,0.002l0,0l0.002,0.002l0,0
	c0.293,0.328,0.795,0.359,1.123,0.068c0.33-0.291,0.363-0.795,0.072-1.123c-0.039-0.045-0.939-1.059-2.645-2.074
	c-1.584-0.945-3.904-1.855-6.818-1.99c0.174-6.961,2.307-11.59,4.395-14.496c1.059-1.469,2.104-2.498,2.877-3.154
	c0.387-0.328,0.707-0.564,0.924-0.713c0.109-0.076,0.193-0.131,0.246-0.164l0.059-0.037l0.012-0.006l0,0l0.029-0.018
	c3.635-2.291,7.488-2.686,9.686-2.68c0.572,0.002,1.029,0.029,1.342,0.057c0.156,0.014,0.273,0.027,0.352,0.037
	c0.039,0.006,0.068,0.008,0.086,0.01l0.02,0.004h0.002l0,0h0.002l0,0c0.268,0.041,0.535-0.055,0.715-0.258
	c1.549-1.732,2.953-2.66,4.068-3.16c0.404-0.182,0.758-0.291,1.084-0.377c-0.002,0.016-0.006,0.033-0.006,0.049
	c0,0.477,0.131,0.912,0.297,1.328c0.25,0.621,0.6,1.197,0.889,1.631c0.287,0.436,0.518,0.723,0.527,0.734
	c0.016,0.021,0.039,0.029,0.057,0.047c0.123,0.189,0.268,0.342,0.447,0.436c0.145-0.039,0.322-0.145,0.523-0.293
	c0.021-0.014,0.039-0.035,0.059-0.051c0.762-0.584,1.84-1.77,2.855-2.738c0.072-0.035,0.141-0.082,0.211-0.113
	c0.318-0.145,0.625-0.207,0.938-0.291c-0.059,0.186-0.104,0.375-0.104,0.553c0,0.412,0.121,0.77,0.268,1.078
	c0.227,0.461,0.527,0.834,0.771,1.109c0.248,0.273,0.441,0.443,0.459,0.457c0.324,0.287,0.822,0.258,1.113-0.063
	c1.041-1.143,2.016-1.822,2.875-2.219c0.861-0.396,1.613-0.518,2.238-0.518c0.018,0,0.031,0.006,0.051,0.006
	c-0.074,0.098-0.189,0.178-0.25,0.279c-0.273,0.467-0.412,0.953-0.492,1.391c-0.08,0.436-0.096,0.824-0.098,1.096
	c0,0.227,0.012,0.373,0.014,0.391c0.021,0.252,0.16,0.48,0.377,0.611c0.213,0.131,0.477,0.152,0.709,0.061v0.002
	c0.016-0.006,0.963-0.357,3.33-0.352c1.262,0.004,2.928,0.107,5.068,0.42c0.715,0.104,1.396,0.344,2.053,0.689
	c1.146,0.605,2.207,1.555,3.139,2.648c1.4,1.639,2.504,3.598,3.246,5.141c0.299,0.615,0.523,1.135,0.701,1.57
	c5.193-1.672,10.244-2.578,14.945-2.568c0.717,0.002,1.428,0.027,2.129,0.072c0.068-0.004,0.348-0.02,0.803-0.018
	c0.477,0.002,1.109,0.021,1.785,0.096c0.32,0.035,0.652,0.084,0.982,0.15c-0.105-3.047-0.826-7.246-2.619-13.566
	c-0.232-0.814-5.322-13.775-5.756-15.223c-0.746-2.479-1.055-5.084-0.949-7.67c0.137-0.787,0.336-1.609,0.619-2.484
	c0.582-1.799,1.504-3.807,2.861-6.115c1.133-1.924,2.539-3.391,4.076-4.52c2.309-1.693,4.924-2.627,7.313-3.129
	c2.328-0.49,4.418-0.568,5.785-0.57c-0.008,0.01-0.023,0.02-0.031,0.027c0.236-0.025,0.471,0.023,0.645,0.193
	c0.016,0.016,0.852,0.842,1.898,2.145c1.045,1.307,2.305,3.086,3.166,5.043c0.568,1.307,0.969,2.697,0.967,4.1
	c-0.002,0.703-0.107,1.41-0.35,2.094c-0.107,0.307-0.271,0.59-0.48,0.834c-0.211,0.244-0.467,0.451-0.752,0.615
	c-0.572,0.326-1.258,0.488-2.025,0.516c-0.254,0.008-0.5,0.012-0.734,0.012c-1.732-0.004-2.928-0.25-3.77-0.594
	c-0.555-0.227-0.943-0.5-1.225-0.766c-0.355,0.232-0.818,0.494-1.389,0.686c-0.412,0.135-0.877,0.23-1.379,0.229
	c-0.525,0.002-1.088-0.127-1.635-0.402c-0.033,0.021-0.059,0.031-0.092,0.055c-1.85,1.279-3.131,2.9-3.926,4.725
	c-0.799,1.828-1.121,3.848-1.125,5.965c-0.006,2.449,0.408,5.033,1.031,7.654c0.934,3.93,2.336,7.939,3.547,11.633
	c0.604,1.846,1.158,3.609,1.582,5.236c0.426,1.627,0.717,3.113,0.803,4.393c0.041,0.639,0.063,1.273,0.063,1.898
	c-0.01,3.818-0.822,7.393-2.07,10.641c-1.871,4.867-4.73,8.99-7.301,12.016c-1.285,1.514-2.498,2.754-3.473,3.676
	c-0.488,0.463-0.916,0.844-1.266,1.141c-0.348,0.297-0.615,0.51-0.773,0.623c-6.146,4.506-12.679,7.394-18.392,9.458
	c-2.857,1.033-5.508,1.859-7.809,2.582c-2.299,0.725-4.242,1.34-5.719,1.973c-0.195,0.084-0.348,0.244-0.426,0.439
	c-0.205,0.518-0.293,0.996-0.295,1.426c-0.002,0.316,0.047,0.605,0.121,0.855c0.119,0.404,0.326,0.777,0.594,1.113
	c0.045,0.055,0.109,0.098,0.158,0.152c0.467-0.209,0.984-0.361,1.582-0.383c0.172-0.008,0.342-0.012,0.506-0.012
	c0.432,0,0.816,0.037,1.188,0.088c-0.092-0.088-0.172-0.162-0.234-0.209c-0.273-0.199-0.488-0.402-0.643-0.6
	c-0.156-0.197-0.252-0.383-0.305-0.563c-0.033-0.111-0.053-0.238-0.053-0.395c0-0.143,0.031-0.326,0.086-0.529
	c1.299-0.537,3.041-1.105,5.115-1.766c6.736-2.145,16.791-5.271,26.054-12.136c0.266-0.197,0.684-0.539,1.232-1.029
	c1.912-1.713,5.369-5.213,8.373-10.039c3-4.822,5.555-10.982,5.572-17.979c0-0.656-0.02-1.318-0.064-1.986
	c-0.127-1.889-0.629-4.025-1.297-6.332c-1.004-3.461-2.391-7.303-3.518-11.137c-1.131-3.832-1.996-7.652-1.984-11.012
	c0.004-1.938,0.297-3.715,0.967-5.27c0.674-1.553,1.719-2.896,3.299-4.008c0.508-0.355,0.908-0.557,1.277-0.713
	c-0.461,0.609-0.891,1.258-1.258,1.969c-0.77,1.498-1.266,3.25-1.27,5.309c0,0.166,0.002,0.336,0.01,0.506
	c0.039,1.133,0.266,2.143,0.631,3.064c0.551,1.383,1.398,2.557,2.361,3.756c0.967,1.197,2.057,2.432,3.156,3.936
	c3.393,4.641,5.287,9.674,6.332,14.162c1.045,4.486,1.236,8.422,1.229,10.844c0,0.672-0.018,1.227-0.035,1.646
	c-0.318,7.471-2.748,13.135-3.975,15.635c-3.887,7.938-9.543,12.525-14.313,16.388c-1.535,1.242-2.869,2.297-4.193,3.27
	c0.383,0.52,0.734,0.99,0.83,1.096c0.465,0.52,1.15,1.275,2.025,2.219c1.748,1.887,4.254,4.523,7.275,7.518
	c6.039,5.984,14.15,13.395,22.367,19.074c5.473,3.787,11.002,6.795,15.926,8.115c3.535,0.949,6.688,1.342,9.486,1.348
	c6.396,0.014,10.947-1.971,13.943-3.977c2.994-2.006,4.42-4.047,4.459-4.105l0,0l0.047-0.066l0.051-0.055l0.002-0.002h0.002
	l0.01-0.014l0.057-0.061c0.051-0.057,0.129-0.146,0.23-0.27c0.203-0.244,0.502-0.619,0.867-1.129
	c0.732-1.02,1.729-2.574,2.768-4.689c2.082-4.23,4.334-10.703,4.969-19.629c0.031-0.459,0.049-0.918,0.051-1.379
	c0.008-3.168-0.709-6.381-1.916-9.531c-1.203-3.151-2.893-6.233-4.805-9.12c-3.824-5.777-8.539-10.777-11.979-14.07
	c-2.289-2.195-4.02-3.637-4.531-4.047c-0.973-0.785-2.439-1.768-3.707-2.578c-1.27-0.809-2.346-1.451-2.58-1.588
	c-0.029-0.018-0.045-0.027-0.045-0.027l-0.105-0.063l-0.088-0.086c-0.023-0.027-0.148-0.152-0.303-0.361
	c-0.152-0.211-0.34-0.504-0.479-0.883c-0.092-0.254-0.16-0.551-0.16-0.881c0-0.23,0.035-0.477,0.119-0.719
	c0.084-0.244,0.213-0.482,0.385-0.699c0.348-0.434,0.844-0.775,1.486-1.045c0.375-0.156,0.756-0.205,1.135-0.203
	c0.547,0.002,1.107,0.105,1.699,0.27c0.59,0.164,1.209,0.389,1.846,0.654c1.268,0.533,2.604,1.227,3.828,1.916
	c2.449,1.379,4.455,2.744,4.467,2.754l0,0c11.143,6.816,17.814,15.18,21.662,23.371C190.458,92.122,191.5,100.132,191.486,106.274z
	 M111.199,1.738c-0.059,0.025-0.09,0.037-0.154,0.068c-0.408,0.184-0.984,0.455-1.643,0.805c-1.32,0.697-2.975,1.705-4.281,2.893
	c-0.875,0.791-1.586,1.658-1.969,2.523c-0.219,0.498-0.336,0.99-0.338,1.488c0,0.395,0.07,0.799,0.238,1.227
	c0.465,1.197,0.988,1.898,1.467,2.287c0.48,0.389,0.914,0.504,1.365,0.51c0.564,0.006,1.16-0.223,1.617-0.482
	c0.455-0.254,0.762-0.525,0.773-0.537l0,0l0.002-0.002l0,0c0.209-0.189,0.5-0.256,0.77-0.174c0.25,0.076,0.434,0.275,0.514,0.521
	l0.012-0.006c0,0.002,0.008,0.021,0.031,0.055c0.049,0.068,0.154,0.199,0.395,0.354c0.479,0.307,1.533,0.711,3.646,0.717
	c0.215,0,0.439-0.004,0.676-0.014c0.432-0.014,0.783-0.086,1.049-0.191c0.266-0.104,0.447-0.236,0.572-0.381
	c0.082-0.098,0.145-0.203,0.189-0.328c0.174-0.496,0.256-1.018,0.256-1.566c0.004-1.074-0.309-2.248-0.809-3.4
	c-0.498-1.154-1.18-2.283-1.871-3.271C112.718,3.416,111.718,2.293,111.199,1.738z M98.841,59.688
	c-0.262,0.059-0.508,0.109-0.723,0.146c-0.424,0.072-5.824,1.191-8.521,2.352c-2.111,0.906-4.699,1.707-7.406,2.898
	c0.188,2.084-0.555,3.881-0.566,3.906l-0.01,0.02l-0.004,0.006h0.002c-0.105,0.195-0.125,0.422-0.055,0.633
	c0.041,0.123,1.475,1.277,3.962,1.283c0,0,3.262-0.234,5.037-1.361c2.084-1.322,3.854-3.043,5.092-4.637
	c0.617-0.797,2.105-3.16,2.203-3.338C98.175,61.016,98.515,60.379,98.841,59.688z M33.768,72.203
	c0.117,0.424,0.557,0.674,0.98,0.557c0.039-0.012,1.4-0.371,3.248-0.365c0.955,0.002,2.039,0.1,3.141,0.385
	c0.428,0.111,0.863-0.146,0.973-0.572s-0.146-0.863-0.572-0.971c-0.543-0.141-1.066-0.223-1.582-0.291
	c0.115-0.637,0.199-1.311,0.201-2.037c0.008-3.162-1.15-5.73-2.59-5.734c-1.438-0.002-2.609,2.559-2.619,5.721
	c0,0.773,0.09,1.48,0.217,2.15c-0.506,0.09-0.818,0.172-0.838,0.178C33.9,71.34,33.65,71.779,33.768,72.203z M66.582,123.521
	c0.002-0.811-0.008-1.666-0.027-2.582c-0.074-3.643-0.393-6.705-0.742-9.109c-0.348-2.408-0.727-4.148-0.934-5.193
	c-0.061-0.301-0.107-0.543-0.137-0.752c-0.039-0.289-0.115-0.563-0.24-0.801c-0.127-0.236-0.291-0.439-0.561-0.627
	c-0.182-0.127-0.412-0.242-0.719-0.338c-0.408-0.127-0.953-0.213-1.662-0.215c-0.135,0-0.273,0.004-0.424,0.008
	c-0.396,0.018-0.689,0.094-0.918,0.195c-0.227,0.104-0.395,0.234-0.539,0.393c-0.285,0.311-0.467,0.771-0.555,1.246
	c-0.061,0.311-0.078,0.619-0.078,0.859c-0.002,0.215,0.012,0.375,0.02,0.439l0.002,0.031l0,0l0.004,0.018v0.018
	c0.303,3.264,0.424,6.332,0.418,9.176c-0.035,13.826-3.088,22.375-3.244,22.803c-0.057,0.195-0.615,2.096-1.863,4.496
	c-1.305,2.506-3.35,5.559-6.412,7.697c-2.039,1.424-4.547,2.424-7.51,2.52c-0.156,0.006-0.311,0.008-0.465,0.008
	c-1.426-0.004-2.732-0.248-3.902-0.715c-1.168-0.465-2.197-1.15-3.068-2.012c-1.748-1.725-2.873-4.113-3.5-6.885
	c-0.416-1.85-0.609-3.877-0.604-6.021c0.002-1.291,0.129-5.277,0.441-7.432c0.387-2.682,0.979-5.527,1.934-8.35
	c2.689-7.947,5.32-13.77,8.855-20.252c1.609-2.947,17.338-24.712,39.652-38.071c9.531-4.41,17.152-6,17.201-6.012l0.053-0.012
	l0.055-0.004l0,0h0.002l0.012-0.002l0.059-0.006c0.053-0.006,0.133-0.016,0.23-0.029c0.201-0.027,0.488-0.072,0.814-0.143
	c0.65-0.135,1.469-0.375,2.066-0.711c0.402-0.221,0.688-0.479,0.818-0.703c0.074-0.131,0.115-0.25,0.127-0.4v0.004V56.02
	c-0.002-0.088-0.016-0.117-0.045-0.174c-0.033-0.053-0.1-0.129-0.227-0.217c-0.248-0.174-0.719-0.35-1.256-0.459
	c-0.359-0.078-0.748-0.131-1.123-0.164c-0.502-0.047-0.984-0.061-1.355-0.063c-0.398,0-0.672,0.014-0.725,0.016l-0.01,0.002
	l-0.059,0.004l-0.061-0.006c-0.682-0.045-1.377-0.066-2.08-0.068c-4.295-0.012-8.979,0.824-13.826,2.336
	c-26.385,7.881-54.738,34.698-60.555,64.431c-0.016-0.004-0.031-0.004-0.047-0.006c-0.572,2.266-1.053,4.555-1.4,6.873
	c-0.859,5.717-1.256,10.559-1.266,14.643c-0.012,4.99,0.553,8.844,1.531,11.777c0.98,2.938,2.355,4.951,3.998,6.35
	c1.094,0.934,2.316,1.596,3.654,2.059c1.783,0.617,3.777,0.867,5.893,0.877c0.027,0,0.053,0,0.078,0
	c1.518,0.004,3.094-0.115,4.693-0.299c0.234-0.027,0.709-0.117,1.334-0.291c0.627-0.172,1.414-0.428,2.322-0.783
	c1.814-0.713,4.111-1.832,6.6-3.512c4.979-3.361,10.717-8.959,14.965-18.102c1.758-3.787,2.824-6.58,3.455-9.229
	C66.365,129.364,66.574,126.835,66.582,123.521z M54.414,138.536l0.01-0.039l0.014-0.035l0.002-0.002l0.006-0.016
	c0.004-0.016,0.012-0.035,0.023-0.066c0.021-0.061,0.055-0.154,0.096-0.279c0.082-0.248,0.203-0.627,0.346-1.125
	c0.146-0.492,0.314-1.107,0.496-1.836c-3.854,2.658-7.57,3.705-11.09,3.699c-3.455-0.008-6.74-1.029-9.738-2.578
	c-1.229-0.635-2.381-1.371-3.494-2.146c-0.01,0.09-0.027,0.186-0.037,0.277c-0.139,1.303-0.211,2.572-0.213,3.793
	c-0.006,2.277,0.229,4.387,0.709,6.217c0.48,1.832,1.205,3.383,2.156,4.576c0.635,0.797,1.369,1.439,2.215,1.918
	c1.131,0.637,2.471,0.998,4.088,1.004c0.131,0,0.264-0.002,0.396-0.008c2.545-0.086,4.652-0.92,6.436-2.15
	c1.781-1.227,3.225-2.863,4.35-4.512C53.438,141.927,54.402,138.587,54.414,138.536L54.414,138.536z M189.572,106.271
	c0.014-5.926-0.994-13.652-4.701-21.538c-3.711-7.883-10.107-15.939-20.967-22.58l-0.021-0.012l-0.018-0.012l-0.037-0.025
	c-0.025-0.016-0.063-0.041-0.109-0.074c-0.1-0.064-0.244-0.16-0.426-0.281c-0.369-0.24-0.895-0.578-1.52-0.965
	c-1.254-0.773-2.916-1.746-4.521-2.527c-1.068-0.521-2.115-0.955-2.965-1.189c-0.482-0.135-0.902-0.203-1.191-0.201
	c-0.203-0.002-0.336,0.031-0.389,0.055l0,0c-0.328,0.137-0.531,0.275-0.643,0.379c-0.113,0.107-0.145,0.174-0.162,0.221
	c-0.01,0.033-0.014,0.063-0.016,0.104c0,0.053,0.012,0.125,0.041,0.209c0.027,0.084,0.074,0.178,0.125,0.262
	c0.059,0.098,0.115,0.174,0.162,0.23c0.521,0.311,2.566,1.537,4.434,2.813c0.719,0.494,1.412,0.992,1.992,1.459
	c0.422,0.336,1.514,1.246,3.021,2.625s3.428,3.227,5.494,5.434c4.127,4.414,8.836,10.262,11.967,16.709
	c2.084,4.302,3.471,8.882,3.461,13.495c-0.002,0.504-0.02,1.006-0.055,1.51c-0.65,9.184-2.977,15.906-5.158,20.338
	c-2.053,4.176-3.953,6.297-4.217,6.582c-0.232,0.33-1.74,2.379-4.773,4.449c-3.252,2.221-8.258,4.424-15.17,4.406
	c-2.973-0.008-6.293-0.424-9.979-1.416c-5.27-1.42-10.934-4.531-16.516-8.389c-5.58-3.855-11.068-8.463-15.914-12.893
	c-8.82-8.066-15.883-16.088-17.078-17.461c-1.01,0.668-2.045,1.293-3.193,1.875c0.201,0.342,0.494,0.842,0.615,1.037
	c0.375,0.609,0.932,1.494,1.652,2.604c1.445,2.219,3.553,5.334,6.195,8.906c5.283,7.143,12.717,16.113,21.252,23.395
	c5.689,4.854,11.867,8.953,18.191,11.281c3.615,1.334,7.273,2.09,10.928,2.098c0.15,0,0.305,0,0.457-0.002h-0.002
	c7.584-0.111,15.061-2.162,21.438-6.172c6.379-4.012,11.666-9.975,14.898-17.975C188.314,119.698,189.554,113.454,189.572,106.271z" class="color c1"/>
</svg>