<svg version="1.1" id="图层_1" x="0px" y="0px" width="500px" height="438.297px" viewBox="0 0 500 438.297" enable-background="new 0 0 500 438.297" xml:space="preserve" xmlns="http://www.w3.org/2000/svg" xmlns:xlink="http://www.w3.org/1999/xlink" xmlns:xml="http://www.w3.org/XML/1998/namespace">
  <path id="XMLID_81_" fill="#F4AF18" d="M380.053,148.404c-0.266-1.596,0.532-3.19,2.128-3.458c1.597-0.266,3.191,0.532,3.458,2.128
	s-0.531,3.191-2.128,3.458C382.181,150.798,380.585,150,380.053,148.404z M355.053,157.713c-3.723-0.799-7.712,2.394-9.308,3.988
	c-1.597,1.33-1.597,3.725-0.268,5.319c0,0.266,0.268,0.266,0.268,0.266c-0.268,0.798-0.268,1.861,0,2.925
	c0.798,1.862,2.659,2.66,4.521,2.395c0.268,0,0.268,0,0.532-0.266c1.33-0.532,6.383-2.659,7.979-6.384
	c0.798-1.596,0.798-3.19,0-4.787C358.245,159.308,356.915,157.979,355.053,157.713z M392.553,143.617
	c1.598-0.266,2.396-1.861,2.128-3.458c-0.266-1.596-1.86-2.394-3.457-2.127c-1.596,0.267-2.394,1.861-2.128,3.458
	C389.628,143.084,390.957,143.883,392.553,143.617z M386.968,152.393c0.268,1.596,1.862,2.394,3.458,2.128
	c1.597-0.266,2.395-1.862,2.127-3.458c-0.266-1.596-1.86-2.395-3.457-2.128C387.234,149.202,386.438,150.798,386.968,152.393z
	 M459.841,114.096c-0.532-0.532-0.798-0.798-0.798-1.33c-0.798-1.064-1.33-2.128-2.128-3.191
	c-14.628-13.83-97.074-25.266-150-26.063c35.638-0.532,86.17-4.787,119.148-10.904C380.852,27.66,318.617,0,250,0
	c-51.862,0-100.266,15.958-140.16,43.085c17.021,2.926,38.298,4.787,61.436,5.319c-36.436,0.532-68.085,5.852-86.17,13.83
	c-5.585,4.787-32.181,29.255-56.915,72.34c7.713,11.968,102.128,19.149,156.915,19.947c-54.787,0.532-155.851-2.66-175.266,25.798
	C3.458,202.393,0,225.797,0,250c0,72.341,30.585,137.5,79.787,182.979c-4.521-11.17-5.319-21.012-5.851-27.66
	c-1.33-18.084-3.723-76.861-13.298-99.201C50,282.18,34.575,264.893,34.575,264.893s31.117,8.244,48.404,20.213
	c11.17,7.447,23.937,19.416,31.915,27.129c-5.585,6.383-10.638,13.563-15.16,20.744c6.915-7.713,52.66-54.521,118.883-63.564
	c0.266,0-9.043,28.458-19.947,49.469c-12.234,23.139-30.319,19.148-49.468,38.563c-24.202,24.202-36.436,56.649,4.255,70.745
	c37.5,12.766,95.479-39.096,113.298-72.606c25.797-48.403,4.521-132.713,20.213-165.958c10.105-21.542,30.318-35.105,55.852-40.958
	c13.563-2.926,31.383-11.701,36.702-18.883c1.86-2.394,5.053-2.926,7.713-1.596c5.317,2.66,12.5,8.511,13.829,18.883
	c0.798,5.585-0.267,11.437-3.724,15.958l-8.776,11.702C323.404,255.053,410.372,275.532,425,366.754
	c4.521,27.395-1.861,59.309-10.372,71.543C467.021,392.286,500,325,500,250C500,200,485.372,153.191,459.841,114.096z" class="color c1"/>
</svg>