<svg version="1.1" id="图层_1" x="0px" y="0px" width="115.907px" height="182.984px" viewBox="0 0 115.907 182.984" enable-background="new 0 0 115.907 182.984" xml:space="preserve" xmlns:xml="http://www.w3.org/XML/1998/namespace" xmlns="http://www.w3.org/2000/svg" xmlns:xlink="http://www.w3.org/1999/xlink">
  <path fill="none" d="M57.954,181.484L57.954,181.484c-25.682,0-46.5-20.818-46.5-46.499v-82.5c0-25.683,20.818-46.5,46.5-46.5l0,0
	c25.681,0,46.5,20.817,46.5,46.5v82.5C104.454,160.666,83.635,181.484,57.954,181.484z"/>
  <path fill="#E5E5E5" d="M57.954,181.484L57.954,181.484c-25.682,0-46.5-20.818-46.5-46.499v-82.5c0-25.683,20.818-46.5,46.5-46.5
	l0,0c25.681,0,46.5,20.817,46.5,46.5v82.5C104.454,160.666,83.635,181.484,57.954,181.484z" class="color c1"/>
  <path fill="#070707" d="M57.954,182.984c-26.467,0-48-21.532-48-47.999v-82.5c0-26.467,21.533-48,48-48c26.466,0,48,21.533,48,48
	v82.5C105.954,161.452,84.42,182.984,57.954,182.984z M57.954,7.485c-24.813,0-45,20.187-45,45v82.5
	c0,24.813,20.187,44.999,45,44.999s45-20.188,45-44.999v-82.5C102.954,27.672,82.767,7.485,57.954,7.485z" class="color c2"/>
  <g>
    <path fill="#565656" d="M43.446,149.063c0,5.268-4.441,9.498-9.784,9.15c-4.876-0.313-8.563-4.582-8.563-9.467v-4.439
		c0-1.018,0.824-1.842,1.841-1.842h14.666c1.016,0,1.84,0.824,1.84,1.842V149.063z" class="color c3"/>
    <path fill="#565656" d="M90.807,149.063c0,5.268-4.441,9.498-9.783,9.15c-4.875-0.313-8.563-4.582-8.563-9.467v-4.439
		c0-1.018,0.824-1.842,1.84-1.842h14.666c1.016,0,1.84,0.824,1.84,1.842V149.063z" class="color c3"/>
    <path fill="#565656" d="M67.928,88.229L67.928,88.229c0,1.289-0.512,2.523-1.424,3.436l-5.115,5.116
		c-1.898,1.896-4.974,1.896-6.871,0l-5.116-5.116c-0.911-0.91-1.423-2.146-1.423-3.436l0,0c0-2.685,2.176-4.858,4.858-4.858h10.231
		C65.752,83.37,67.928,85.546,67.928,88.229z" class="color c3"/>
    <ellipse transform="matrix(-0.7071 -0.7071 0.7071 -0.7071 5.3332 137.4352)" fill="#565656" cx="31.13" cy="67.613" rx="17.69" ry="21.317" class="color c3"/>
    <ellipse transform="matrix(0.7071 -0.7071 0.7071 0.7071 -22.9389 79.8487)" fill="#565656" cx="84.917" cy="67.614" rx="17.689" ry="21.317" class="color c3"/>
    <circle fill="#565656" cx="19.704" cy="19.704" r="18.204" class="color c3"/>
    <circle fill="#565656" cx="96.204" cy="19.704" r="18.203" class="color c3"/>
  </g>
  <g>
    <path fill="#424242" d="M20.62,27.99c-4.569,0-8.287-3.717-8.287-8.286s3.718-8.288,8.287-8.288c4.57,0,8.287,3.718,8.287,8.288
		C28.907,24.273,25.19,27.99,20.62,27.99z" class="color c4"/>
    <path fill="#424242" d="M97.12,27.99c-4.568,0-8.287-3.717-8.287-8.286s3.719-8.288,8.287-8.288c4.57,0,8.287,3.718,8.287,8.288
		C105.407,24.273,101.69,27.99,97.12,27.99z" class="color c4"/>
  </g>
  <g>
    <path fill="#070707" d="M49.958,114.891c-5.25,0-9.521-4.271-9.521-9.521c0-0.828,0.671-1.5,1.5-1.5s1.5,0.672,1.5,1.5
		c0,3.596,2.925,6.521,6.521,6.521c3.531,0,6.415-2.82,6.519-6.325c-0.015-0.08-0.022-0.16-0.022-0.237v-7.125
		c0-0.828,0.671-1.5,1.5-1.5c0.829,0,1.5,0.672,1.5,1.5v6.914c0.016,0.086,0.023,0.171,0.023,0.253
		C59.48,110.62,55.208,114.891,49.958,114.891z" class="color c2"/>
    <path fill="#070707" d="M66,114.891c-5.25,0-9.521-4.271-9.521-9.521c0-0.093,0.009-0.185,0.025-0.272v-6.895
		c0-0.828,0.671-1.5,1.5-1.5c0.829,0,1.5,0.672,1.5,1.5v7.125c0,0.086-0.008,0.172-0.021,0.256c0.113,3.497,2.993,6.309,6.518,6.309
		c3.597,0,6.521-2.927,6.521-6.521c0-0.828,0.672-1.5,1.5-1.5s1.5,0.672,1.5,1.5C75.52,110.62,71.25,114.891,66,114.891z" class="color c2"/>
    <path fill="#070707" d="M43.446,133.922c-0.829,0-1.5,0.672-1.5,1.5v5.579c-0.113-0.012-0.224-0.034-0.34-0.034H26.94
		c-0.116,0-0.227,0.022-0.34,0.034v-5.579c0-0.828-0.671-1.5-1.5-1.5s-1.5,0.672-1.5,1.5v8.563c0,0.054,0.01,0.104,0.016,0.156
		c-0.003,0.057-0.017,0.108-0.017,0.166v4.439c0,5.787,4.378,10.604,9.966,10.964c0.237,0.017,0.473,0.022,0.707,0.022
		c5.886,0,10.674-4.787,10.674-10.671v-2.745v-2.011v-8.887C44.946,134.594,44.275,133.922,43.446,133.922z M41.946,149.063
		c-0.001,4.397-3.715,7.946-8.188,7.653c-4.014-0.259-7.159-3.76-7.159-7.97v-4.439c0-0.188,0.153-0.342,0.341-0.342h14.666
		c0.188,0,0.34,0.152,0.34,0.342v2.011V149.063z" class="color c2"/>
    <path fill="#070707" d="M90.807,133.922c-0.828,0-1.5,0.672-1.5,1.5v5.579c-0.113-0.012-0.225-0.034-0.34-0.034H74.301
		c-0.116,0-0.227,0.022-0.34,0.034v-5.579c0-0.828-0.672-1.5-1.5-1.5s-1.5,0.672-1.5,1.5v8.887v1.428v3.013
		c0,5.787,4.377,10.604,9.965,10.964c0.238,0.017,0.474,0.022,0.707,0.022c5.886,0,10.674-4.787,10.674-10.671v-2.745v-2.011v-8.887
		C92.307,134.594,91.635,133.922,90.807,133.922z M89.307,149.063c0,4.398-3.712,7.951-8.188,7.653
		c-4.015-0.259-7.158-3.76-7.158-7.97v-3.013v-1.428c0-0.188,0.15-0.342,0.34-0.342h14.666c0.188,0,0.34,0.152,0.34,0.342v2.011
		V149.063z" class="color c2"/>
    <path fill="#070707" d="M57.953,99.703c-1.698,0-3.295-0.661-4.496-1.862l-5.116-5.114c-1.201-1.199-1.862-2.796-1.862-4.496
		c0-3.506,2.853-6.358,6.358-6.358h10.231c3.507,0,6.358,2.854,6.358,6.358c0,1.701-0.661,3.298-1.863,4.497l-5.113,5.113
		C61.249,99.042,59.651,99.703,57.953,99.703z M52.838,84.87c-1.852,0-3.358,1.506-3.358,3.358c0,0.885,0.358,1.75,0.983,2.375
		l5.117,5.115c1.269,1.271,3.48,1.27,4.75,0l5.113-5.114c0.637-0.636,0.984-1.479,0.984-2.375c0-1.854-1.508-3.358-3.359-3.358
		L52.838,84.87L52.838,84.87z" class="color c2"/>
    <path fill="#070707" d="M27.509,88.702c-4.874,0-9.317-1.759-12.512-4.954c-3.663-3.663-5.39-8.798-4.863-14.459
		c0.517-5.558,3.154-10.971,7.428-15.244c4.778-4.776,11.043-7.519,17.19-7.519c4.874,0,9.317,1.76,12.512,4.955
		c3.663,3.662,5.39,8.797,4.864,14.459c-0.517,5.557-3.154,10.971-7.427,15.244C39.922,85.962,33.656,88.702,27.509,88.702z
		 M34.751,49.526c-5.357,0-10.849,2.42-15.069,6.64c-3.779,3.779-6.11,8.538-6.562,13.4c-0.442,4.757,0.977,9.041,3.997,12.061
		c2.628,2.628,6.318,4.075,10.391,4.075c5.358,0,10.851-2.42,15.07-6.64c3.779-3.779,6.109-8.539,6.561-13.4
		c0.442-4.757-0.978-9.04-3.998-12.06C42.514,50.974,38.824,49.526,34.751,49.526z" class="color c2"/>
    <path fill="#070707" d="M88.54,88.702L88.54,88.702c-6.148,0-12.416-2.741-17.191-7.519c-4.271-4.273-6.911-9.688-7.428-15.244
		c-0.525-5.662,1.201-10.797,4.863-14.459c3.194-3.194,7.639-4.954,12.512-4.954c6.146,0,12.412,2.74,17.189,7.519
		c4.273,4.272,6.912,9.688,7.428,15.244c0.526,5.662-1.199,10.797-4.863,14.459C97.855,86.943,93.413,88.702,88.54,88.702z
		 M81.295,49.526c-4.072,0-7.765,1.447-10.393,4.076c-3.021,3.02-4.439,7.303-3.999,12.06c0.452,4.862,2.782,9.621,6.563,13.4
		c4.22,4.219,9.712,6.639,15.07,6.64l0,0c4.071,0,7.762-1.447,10.391-4.075c3.02-3.021,4.439-7.304,3.998-12.061
		c-0.452-4.862-2.782-9.621-6.563-13.4C92.144,51.946,86.652,49.526,81.295,49.526z" class="color c2"/>
  </g>
  <g>
    <circle fill="#BDBDBD" cx="37.019" cy="62.874" r="6.5" class="color c5"/>
    <circle fill="#BDBDBD" cx="79.028" cy="62.874" r="6.5" class="color c5"/>
  </g>
  <path fill="#070707" d="M37.019,70.874c-4.411,0-8-3.589-8-8s3.589-8,8-8s8,3.589,8,8S41.43,70.874,37.019,70.874z M37.019,57.874
	c-2.757,0-5,2.243-5,5s2.243,5,5,5s5-2.243,5-5S39.775,57.874,37.019,57.874z" class="color c2"/>
  <path fill="#070707" d="M79.028,70.874c-4.41,0-8-3.589-8-8s3.59-8,8-8c4.411,0,8,3.589,8,8S83.439,70.874,79.028,70.874z
	 M79.028,57.874c-2.757,0-5,2.243-5,5s2.243,5,5,5c2.758,0,5-2.243,5-5S81.786,57.874,79.028,57.874z" class="color c2"/>
  <path fill="#070707" d="M19.704,39.407C8.839,39.407,0,30.568,0,19.704S8.839,0,19.704,0c10.864,0,19.703,8.839,19.703,19.704
	S30.568,39.407,19.704,39.407z M19.704,3C10.494,3,3,10.493,3,19.704s7.494,16.704,16.704,16.704s16.703-7.493,16.703-16.704
	S28.914,3,19.704,3z" class="color c2"/>
  <path fill="#070707" d="M20.62,29.49c-5.396,0-9.787-4.39-9.787-9.786c0-5.396,4.391-9.788,9.787-9.788s9.787,4.393,9.787,9.788
	C30.407,25.1,26.017,29.49,20.62,29.49z M20.62,12.917c-3.742,0-6.787,3.045-6.787,6.788c0,3.742,3.045,6.786,6.787,6.786
	c3.742,0,6.787-3.044,6.787-6.786C27.407,15.961,24.362,12.917,20.62,12.917z" class="color c2"/>
  <path fill="#070707" d="M96.204,39.407c-10.863,0-19.703-8.839-19.703-19.704S85.338,0,96.204,0
	c10.866,0,19.703,8.839,19.703,19.704S107.068,39.407,96.204,39.407z M96.204,3C86.995,3,79.5,10.493,79.5,19.704
	s7.492,16.704,16.703,16.704c9.209,0,16.703-7.493,16.703-16.704S105.415,3,96.204,3z" class="color c2"/>
  <path fill="#070707" d="M97.12,29.49c-5.396,0-9.787-4.39-9.787-9.786c0-5.396,4.393-9.788,9.787-9.788
	c5.396,0,9.787,4.393,9.787,9.788C106.907,25.1,102.516,29.49,97.12,29.49z M97.12,12.917c-3.742,0-6.787,3.045-6.787,6.788
	c0,3.742,3.045,6.786,6.787,6.786s6.787-3.044,6.787-6.786C103.907,15.961,100.862,12.917,97.12,12.917z" class="color c2"/>
</svg>