<svg version="1.1" id="图层_1" x="0px" y="0px" width="110.727px" height="151.473px" viewBox="0 0 110.727 151.473" enable-background="new 0 0 110.727 151.473" xml:space="preserve" xmlns="http://www.w3.org/2000/svg" xmlns:xlink="http://www.w3.org/1999/xlink" xmlns:xml="http://www.w3.org/XML/1998/namespace">
  <path fill="#3C353B" d="M101.988,29.001c8.796-8.793,11.38-20.442,5.785-26.048C102.18-2.64,90.52-0.056,81.726,8.74
	c-1.605,1.604-2.996,3.303-4.18,5.038C71.093,9.138,63.701,6.59,55.37,6.59s-15.726,2.548-22.19,7.188
	c-1.184-1.735-2.572-3.445-4.179-5.038C20.207-0.056,8.559-2.64,2.953,2.953c-5.595,5.592-3.011,17.255,5.783,26.048
	c2.328,2.326,4.85,4.188,7.396,5.618C7.968,50.369,2.986,99.331,1.338,135.087c0.846,0.282,1.749,0.525,2.724,0.731
	c5.474,1.158,11.063,2.065,15.65,5.516c4.828,3.63,10.155,10.171,16.73,9.942c6.401-0.223,12.487-3.473,18.919-3.211
	c6.678,0.271,14.713,4.807,21.231,2.97c5.811-1.634,9.611-6.379,14.419-9.701c5.289-3.653,11.063-4.254,17.126-5.854
	c0.438-0.114,0.856-0.239,1.262-0.372c-1.646-35.757-6.633-84.734-14.817-100.486C97.141,33.19,99.661,31.327,101.988,29.001z" class="color c1"/>
  <path fill="#ECEBDF" d="M38.078,72.083l2.97-9.539c0.784-5.748,5.695-10.027,11.493-10.027h5.67c5.799,0,10.71,4.279,11.494,10.027
	l2.97,9.539c0.951,6.969-4.474,13.164-11.494,13.164h-11.61C42.539,85.247,37.127,79.052,38.078,72.083z" class="color c2"/>
  <path fill="#ECEBDF" d="M84.063,127.945c-1.746,3.046-4.461,4.723-7.645,4.723c-2.339,0-4.853-0.872-7.903-2.743
	c-2.396-1.468-5.796-4.271-10.12-8.337h-6.692c-4.384,4.12-7.702,6.854-10.12,8.338c-3.054,1.871-5.563,2.743-7.903,2.743
	c-3.185,0-5.897-1.677-7.645-4.724c-2.965-5.173-2.967-11.853-2.968-15.44c0.001-3.59,0.003-10.27,2.967-15.441
	c1.744-3.045,4.46-4.724,7.644-4.724c2.339,0,4.851,0.872,7.903,2.742c2.396,1.47,5.818,4.293,10.209,8.423h6.519
	c4.375-4.119,7.805-6.948,10.209-8.424c3.053-1.87,5.564-2.741,7.903-2.741c3.184,0,5.896,1.679,7.646,4.727
	c2.96,5.171,2.963,11.851,2.966,15.441C87.027,116.094,87.024,122.772,84.063,127.945z" class="color c2"/>
  <path fill="#E98A51" d="M70.541,98.387c-3.642,2.23-9.399,7.758-10.966,9.262c-0.249-0.167-0.551-0.269-0.87-0.269h-7.23
	c-0.342,0-0.656,0.117-0.913,0.307c-1.51-1.448-7.337-7.05-11.008-9.299c-4.003-2.452-7.79-3.528-10.157,0.603
	c-2.355,4.116-2.451,9.813-2.452,13.516c0.001,3.701,0.097,9.396,2.453,13.515c2.367,4.13,6.154,3.057,10.157,0.603
	c3.633-2.229,9.38-7.738,10.959-9.253c0.266,0.212,0.596,0.343,0.961,0.343h7.23c0.345,0,0.657-0.115,0.917-0.306
	c1.634,1.567,7.313,7.006,10.919,9.215c4.003,2.453,7.79,3.528,10.158-0.603c2.354-4.117,2.449-9.813,2.451-13.514
	c-0.002-3.701-0.097-9.397-2.451-13.516C78.331,94.858,74.544,95.935,70.541,98.387z" class="color c3"/>
  <ellipse fill="#3C353B" cx="55.383" cy="73.883" rx="8.318" ry="6.132" class="color c1"/>
</svg>