<svg version="1.1" id="图层_1" x="0px" y="0px" width="141.974px" height="142.252px" viewBox="0 0 141.974 142.252" enable-background="new 0 0 141.974 142.252" xml:space="preserve" xmlns="http://www.w3.org/2000/svg" xmlns:xlink="http://www.w3.org/1999/xlink" xmlns:xml="http://www.w3.org/XML/1998/namespace">
  <g>
    <g>
      <path fill="#FF762E" d="M24.997,8.02c0,0-4.427-4.178-7.403-8.02c0,0,10.87,4.45,14.664,4.154c0,0,29.156,1.281,39.406,10.281
			s12.69,33.452,26.25,34.25c10.625,0.625,16.25-16.625,27.25-16.375s14.125,7.875,13.375,13.5l-15.125-6.375l-12.667,9.5
			c0,0-12.958,15.375-26.208-2.625s-59.406-38-59.406-38" class="color c1"/>
    </g>
    <path fill="#FFFFFF" d="M141.974,49.87l-2.834-3.146c0,0-0.741-0.701-0.65-2.322c0.09-1.621-3.573-13.398-17.026-9.033
		c0,0-6.266,3.35-10.896,8.982c-4.63,5.633-17.594,15.265-30.442-10.521c0,0-10.907-21.168-41.01-24.135
		c0,0-16.309-2.273-21.521-9.696c0,0,5.786,67.074,51.07,76.686c0,0-53.938,31.625-68.663,24.876c0,0,22.34,44.868,54.141,40.374
		c0,0,10.847-49,26.288-51.298c15.441-2.3,30.943-2.875,42.423-25.35C134.332,42.813,139.628,50.562,141.974,49.87z" class="color c2"/>
  </g>
</svg>