<svg version="1.1" id="图层_1" x="0px" y="0px" width="87.51px" height="50.209px" viewBox="0 0 87.51 50.209" enable-background="new 0 0 87.51 50.209" xml:space="preserve" xmlns="http://www.w3.org/2000/svg" xmlns:xlink="http://www.w3.org/1999/xlink" xmlns:xml="http://www.w3.org/XML/1998/namespace">
  <path fill="#FFFFFF" d="M72.626,34.995h-0.02l0.893-3.324c0.154-0.582,0.286-1.166,0.4-1.75l13.611-3.894l-13.344-3.575
	c-0.045-0.375-0.099-0.748-0.16-1.119l13.504-3.619l-16.508-4.721c-3.146-5.419-8.354-9.647-14.886-11.397l-2.798-0.75
	c-9.47-2.537-19.101,0.803-25.055,7.777L0,50.209h68.534L72.626,34.995z M50.035,27.075c-2.875,0-5.204-2.33-5.204-5.203
	c0-2.875,2.329-5.205,5.204-5.205c2.873,0,5.201,2.33,5.201,5.205C55.236,24.745,52.908,27.075,50.035,27.075z" class="color c1"/>
</svg>