<svg version="1.1" id="图层_1" x="0px" y="0px" width="78.392px" height="126.878px" viewBox="0 0 78.392 126.878" enable-background="new 0 0 78.392 126.878" xml:space="preserve" xmlns="http://www.w3.org/2000/svg" xmlns:xlink="http://www.w3.org/1999/xlink" xmlns:xml="http://www.w3.org/XML/1998/namespace">
  <path fill="#513920" d="M68.629,86.688c-0.235-0.332-0.437-0.637-0.437-0.681c0-0.078-0.192-0.41-0.96-1.667
	c-0.123-0.2-0.279-0.437-0.358-0.523c-0.069-0.087-0.331-0.41-0.567-0.724c-0.244-0.324-0.628-0.786-0.855-1.03
	c-0.235-0.253-0.418-0.471-0.418-0.488c0-0.026,0.262-0.324,0.575-0.664c0.314-0.35,0.803-1.012,1.064-1.483
	c0.419-0.732,0.515-0.994,0.646-1.736c0.244-1.301,0.069-2.06-0.646-3.037c-0.558-0.751-0.915-1.004-2.016-1.475
	c-0.532-0.219-0.732-0.244-1.632-0.253c-0.619-0.009-1.204,0.034-1.51,0.112c-0.262,0.079-0.541,0.123-0.619,0.114
	c-0.079-0.018-0.314,0.034-0.524,0.113c-0.602,0.2-0.89,0.262-1.177,0.271c-0.394,0.025-1.354,0.55-1.755,0.96
	c-0.393,0.419-0.349,0.419-1.3-0.07c-0.288-0.148-0.576-0.253-0.62-0.218c-0.044,0.034-0.07,0-0.044-0.061
	c0.018-0.07,0.114-0.166,0.21-0.219c0.096-0.061,0.184-0.131,0.218-0.157c0.053-0.069,0.672-0.444,1.309-0.803
	c0.986-0.532,1.555-0.882,1.92-1.135c0.454-0.322,1.083-0.785,1.248-0.828c0.01,0,0.027-0.009,0.036-0.009
	c0-0.044,1.378-1.064,1.604-1.222c0.063-0.062,1.047-0.804,1.302-0.978c0.488-0.358,1.396-1.135,1.806-1.563
	c0.009-0.017,0.034-0.034,0.061-0.061c0.175-0.184,1.204-1.161,1.895-1.842c0.097,0.088,0.183,0.175,0.271,0.263
	c0.357-0.898,0.829-1.764,1.571-2.321c0.139-0.184,0.27-0.367,0.27-0.411c0.104,0,1.23-1.613,1.23-1.771
	c0.113-0.035,1.274-2.069,1.274-2.217c0-0.07,0.079-0.28,0.166-0.472c0.488-1.003,1.083-2.811,1.335-3.988
	c0.07-0.437,0.28-1.371,0.454-2.164c0.122-0.603,0.166-4.015,0.034-4.015c-0.061,0-0.052-0.044,0.01-0.104
	c0.104-0.113,0.069-1.371-0.062-2.208c-0.044-0.271-0.104-0.733-0.131-1.013c-0.088-0.882-0.55-3.256-0.838-4.285
	c-0.087-0.305-0.201-0.725-0.253-0.925c-0.236-0.881-0.472-1.685-0.594-2.077c-0.07-0.227-0.175-0.541-0.209-0.689
	c-0.035-0.157-0.235-0.776-0.437-1.388c-0.201-0.602-0.515-1.649-0.698-2.303c-0.192-0.664-0.384-1.318-0.437-1.458
	c-0.053-0.148-0.2-0.638-0.323-1.108c-0.112-0.463-0.244-0.908-0.27-0.978c-0.026-0.078-0.044-0.175-0.044-0.218
	c0.009-0.035-0.026-0.062-0.079-0.062c-0.043,0-0.069-0.034-0.043-0.088c0.053-0.087-0.088-0.846-0.393-2.128
	c-0.201-0.848-0.323-1.449-0.402-1.886c-0.113-0.759-0.148-0.882-0.227-0.882c-0.043,0-0.061-0.034-0.034-0.078
	c0.025-0.035,0.008-0.305-0.035-0.575c-0.054-0.28-0.105-0.655-0.132-0.848c-0.034-0.192-0.078-0.322-0.112-0.305
	c-0.044,0.025-0.079-0.149-0.088-0.385c0-0.244-0.026-0.584-0.053-0.759c-0.034-0.175-0.061-0.498-0.069-0.716
	s-0.043-0.394-0.069-0.394c-0.027,0-0.054-0.418-0.054-0.942c-0.017-0.523-0.034-1.492-0.069-2.146
	c-0.034-0.908-0.017-1.52,0.123-2.584c0.096-0.759,0.174-1.571,0.174-1.815c0-0.234,0.052-0.619,0.122-0.829
	c0.062-0.218,0.166-0.611,0.228-0.855c0.244-1.038,0.951-2.958,1.526-4.153c0.175-0.357,0.314-0.698,0.314-0.76
	c0-0.061,0.034-0.112,0.07-0.112c0.044,0,0.131-0.167,0.191-0.367c0.062-0.21,0.148-0.376,0.201-0.376
	c0.034,0,0.07-0.052,0.07-0.122c0-0.052,0.121-0.356,0.262-0.646c0.147-0.297,0.262-0.602,0.262-0.672
	c0-0.062,0.052-0.148,0.122-0.191c0.062-0.035,0.183-0.236,0.278-0.445c0.088-0.201,0.184-0.385,0.219-0.411
	c0.027-0.025,0.148-0.235,0.279-0.479c0.122-0.244,0.244-0.418,0.279-0.375c0.026,0.026,0.053,0.009,0.053-0.061
	c0-0.062,0.078-0.227,0.175-0.376c0.096-0.14,0.191-0.479,0.226-0.759c0.054-0.437,0.036-0.532-0.13-0.707
	c-0.192-0.201-0.445-0.262-0.445-0.105c0,0.053-0.104,0.097-0.228,0.097c-0.191,0-0.488,0.271-1.388,1.213
	c-0.628,0.681-1.265,1.396-1.413,1.597c-0.148,0.21-0.384,0.488-0.524,0.646c-0.13,0.149-0.365,0.438-0.523,0.638
	c-0.147,0.191-0.349,0.445-0.454,0.559c-0.086,0.096-0.296,0.357-0.435,0.558c-0.149,0.201-0.28,0.385-0.307,0.42
	c-0.104,0.097-0.812,1.3-1.273,2.164c-0.263,0.506-0.541,1.021-0.62,1.152c-0.401,0.698-1.248,2.774-1.379,3.368
	c-0.018,0.044-0.053,0.14-0.088,0.191c-0.025,0.054-0.19,0.585-0.365,1.152c-1.118,3.937-1.222,4.713-1.222,9.583
	c-0.009,3.961,0.017,4.303,0.558,8.071c0.096,0.655,0.192,1.345,0.21,1.52c0.017,0.174,0.157,1.151,0.305,2.164
	c0.149,1.021,0.332,2.365,0.41,3.002c0.07,0.638,0.158,1.3,0.175,1.475c0.026,0.175,0.088,0.856,0.131,1.519
	c0.052,0.654,0.132,1.484,0.166,1.851c0.078,0.594,0.044,5.384-0.034,5.986c-0.018,0.148-0.062,0.48-0.089,0.742
	c-0.165,1.282-1.142,4.102-1.754,5.07c-0.515,0.803-1.126,1.588-1.728,2.243c-0.471,0.515-0.934,0.951-1.343,1.247
	c-0.289,0.21-0.586,0.429-0.646,0.498c-0.061,0.062-0.157,0.113-0.201,0.113c-0.017,0-0.052,0.009-0.088,0.026
	c-0.096,0.035-0.226,0.096-0.366,0.175c-1.71,0.89-3.229,1.396-4.896,1.648c-0.314,0.045-0.829,0.148-1.16,0.219
	c-0.698,0.166-0.899,0.113-1.396-0.419c-0.184-0.191-0.498-0.401-0.707-0.462c-0.297-0.097-2.514-0.123-10.996-0.114
	c-9.957,0-10.673,0.009-11.267,0.166c-0.349,0.096-0.698,0.235-0.769,0.297c-0.061,0.069-0.157,0.131-0.2,0.131
	c-0.053,0-0.104,0.044-0.122,0.096c-0.018,0.044-0.088,0.105-0.157,0.114c-0.069,0.018-0.175,0.052-0.227,0.087
	c-0.192,0.132-0.978,0.271-1.423,0.262c-0.854-0.026-3.316-0.567-3.806-0.837c-0.087-0.054-0.235-0.097-0.331-0.097
	c-0.105,0-0.184-0.044-0.184-0.087c0-0.062-0.069-0.096-0.156-0.096c-0.088,0-0.228-0.054-0.323-0.123s-0.34-0.184-0.532-0.244
	s-0.61-0.262-0.926-0.419c-0.322-0.183-0.61-0.323-0.645-0.323c-0.054,0-0.385-0.209-0.742-0.454
	c-0.41-0.278-0.855-0.61-0.979-0.741c-0.025-0.026-0.296-0.253-0.61-0.506c-0.218-0.184-0.471-0.41-0.698-0.629
	c-0.376-0.366-0.689-0.698-0.716-0.794c-0.017-0.043-0.227-0.288-0.444-0.532c-0.463-0.515-1.404-1.798-1.85-2.522
	c-0.603-0.951-1.79-3.552-2.331-5.019c-0.785-2.172-1.081-3.367-1.614-6.457c-0.254-1.457-0.357-3.107-0.375-5.585
	c-0.009-2.043,0.156-7.034,0.253-7.375c0.018-0.069,0.069-1.029,0.122-2.121c0.053-1.09,0.122-2.582,0.157-3.315
	c0.043-0.742,0.069-2.305,0.061-3.466c-0.009-1.98-0.025-2.207-0.279-3.499c-0.253-1.326-0.637-2.435-1.187-3.465
	c-0.096-0.174-0.331-0.637-0.523-1.012s-0.568-1.004-0.839-1.379C4.537,9.672,4.292,9.314,4.258,9.27
	C4.014,8.912,3.734,8.65,3.464,8.528C3.148,8.406,3.142,8.406,2.966,8.634C2.705,8.982,2.73,9.41,3.097,10.719
	c0.804,2.828,1.048,4.983,0.908,7.724c-0.044,0.707-0.165,1.894-0.201,2.321c-0.009,0.026-0.026,0.132-0.009,0.114
	c-0.052,0.296-0.297,1.387-0.392,1.719c-0.097,0.331-0.315,1.134-0.489,1.798c-0.175,0.654-0.41,1.422-0.454,1.475
	c-0.122,0.654-0.367,1.701-0.506,2.217c-0.07,0.306-0.184,0.732-0.235,0.968c-0.045,0.228-0.123,0.568-0.166,0.751
	C1.5,29.997,1.43,30.312,1.387,30.503c-0.122,0.541-0.516,2.618-0.576,3.02c-0.034,0.201-0.088,0.576-0.148,0.829
	c-0.262,1.544-0.523,4.32-0.61,6.554c-0.079,2.13-0.069,2.828,0.043,4.616c0.262,3.814,0.716,6.048,1.859,9.261
	c0.427,1.152,1.222,2.923,1.685,3.674c0.156,0.262,0.288,0.497,0.288,0.523c0,0.018,0.175,0.305,0.392,0.629
	c0.201,0.305,0.394,0.636,0.428,0.732c0.018,0.018,0.026,0.026,0.035,0.044c0.07,0.069,0.227,0.287,0.358,0.479
	c0.052,0.087,0.121,0.184,0.192,0.271c1.15,0.76,2.032,1.894,2.6,3.186c0.523,0.515,1.536,1.439,2.051,1.867
	c1.326,1.091,4.364,3.081,5.577,3.666c0.192,0.087,0.707,0.35,1.161,0.567c0.443,0.227,0.837,0.41,0.889,0.41
	c0.123,0,0.21,0.314,0.105,0.35c-0.052,0.017-0.097,0.112-0.097,0.209c0,0.096-0.034,0.174-0.078,0.174
	c-0.034,0-0.166,0.105-0.279,0.227c-0.148,0.158-0.287,0.21-0.471,0.184c-0.288-0.034-1.641,0.228-1.711,0.34
	c-0.025,0.026-0.192,0.097-0.358,0.167c-0.262,0.078-0.636,0.349-0.897,0.629c-0.201,0.208-0.664,0.942-0.761,1.204
	c-0.069,0.165-0.112,0.636-0.112,1.064c0,1.081,0.209,1.684,1.117,3.211c0.043,0.079,0.218,0.35,0.366,0.594
	c0.367,0.585,0.542,1.17,0.646,2.208c0.053,0.454,0.132,1.213,0.184,1.685c0.113,0.942,0.053,3.28-0.113,4.215
	c-0.035,0.305-0.14,0.951-0.21,1.431c-0.069,0.48-0.228,1.44-0.349,2.121c-0.288,1.589-0.463,2.584-0.567,3.229
	c-0.053,0.28-0.227,1.083-0.401,1.799c-0.166,0.707-0.349,1.526-0.394,1.841c-0.052,0.306-0.13,0.654-0.174,0.786
	c-0.044,0.13-0.122,0.392-0.166,0.61c-0.052,0.2-0.209,0.549-0.35,0.776c-0.147,0.227-0.305,0.62-0.357,0.873
	c-0.052,0.244-0.14,0.497-0.184,0.55c-0.043,0.07-0.096,0.184-0.112,0.287c-0.018,0.097-0.079,0.298-0.141,0.445l-1.71,4.94
	c-0.087,0.471-0.062,0.872,0.069,1.064c0.062,0.097,0.141,0.287,0.166,0.41c0.035,0.13,0.192,0.401,0.349,0.593
	c0.219,0.244,0.402,0.638,0.603,1.283c0.166,0.516,0.42,1.126,0.559,1.353c0.148,0.235,0.358,0.707,0.479,1.065
	c0.271,0.846,0.961,2.347,1.074,2.347c0.053,0,0.297,0.157,0.55,0.35c0.244,0.201,0.488,0.384,0.532,0.411
	c0.105,0.061,1.344,0.349,1.798,0.409c0.165,0.025,0.472,0.087,0.663,0.14c0.244,0.069,0.35,0.069,0.376-0.009
	c0.017-0.052,0.086-0.105,0.148-0.105c0.096,0,0.112,0.105,0.069,0.445c-0.043,0.42-0.026,0.463,0.201,0.638
	c0.139,0.113,0.61,0.322,1.047,0.48c0.428,0.166,0.925,0.392,1.09,0.497c0.586,0.384,0.664,0.437,1.152,0.671
	c0.385,0.201,0.551,0.229,0.873,0.184c0.759-0.104,1.021-0.096,1.78,0.061c0.542,0.114,1.057,0.149,1.71,0.132
	c0.986-0.043,1.126-0.061,1.327-0.192c0.096-0.061,0.184-0.018,0.297,0.141c0.087,0.121,0.192,0.27,0.235,0.322
	c0.184,0.244,0.846,1.563,1.187,2.365c0.122,0.297,0.323,0.698,0.446,0.899c0.121,0.209,0.218,0.409,0.218,0.462
	c0,0.183,1.116,1.614,1.535,1.964c0.794,0.671,1.501,0.908,2.984,1.038c0.333,0.026,0.62,0.061,0.638,0.078
	c0.012,0.012,0.028,0.178,0.045,0.404c16.55-1.808,32.522-8.495,44.155-19.971c-1.45-4.183-6.18-12.113-6.604-13.797
	C71.289,91.104,70.095,88.687,68.629,86.688z" class="color c1"/>
</svg>