<svg version="1.1" id="图层_1" x="0px" y="0px" width="114.676px" height="176.816px" viewBox="0 0 114.676 176.816" enable-background="new 0 0 114.676 176.816" xml:space="preserve" xmlns="http://www.w3.org/2000/svg" xmlns:xlink="http://www.w3.org/1999/xlink" xmlns:xml="http://www.w3.org/XML/1998/namespace">
  <g>
    <path fill="#AF9F00" d="M97.128,160.563c-0.144-0.229-0.125-0.567,0.076-0.76c2.78-2.662-1.017-7.771-2.675-10.055
		c-2.664-3.676-5.736-7.046-8.925-10.27c-5.794-5.86-12.286-10.562-19.507-14.16c-9.501,2.375-19.605,2.313-29.297,3.359
		c-5.566,0.602-11.003,0.493-16.579,0.104c-2.377-0.166-4.686-0.799-6.98-1.499c1,6.615,4.729,12.794,8.898,17.899
		c5.541,6.783,12.259,12.664,19.7,17.282c18.787,11.665,42.19,16.955,64.099,13.113C103.615,170.209,100.236,165.496,97.128,160.563
		z" class="color c1"/>
    <path fill="#D7B600" d="M55.333,27.681c-3.642,1.843-7.3,3.363-10.504,5.952c-2.414,1.952-4.528,4.257-6.707,6.473
		c-0.159-0.011-0.322,0.043-0.462,0.203c-3.905,4.477-7.144,9.413-10.366,14.39c-3.653,5.644-7.926,10.853-11.433,16.581
		c-6.423,10.493-10.1,22.386-15.575,33.36c-1.783-30.977,4.591-64.571,24.399-89.247c4.624-5.76,10.292-11.95,17.319-14.671
		c9.063-3.508,11.98,6.621,16.465,12.02c1.709,2.057,3.78,4.101,4.592,6.715C64.315,23.495,58.09,26.284,55.333,27.681z" class="color c2"/>
    <path fill="#D7B600" d="M14.077,162.187c-4.426-1.798-6.792-6.761-8.228-11.005c-2.647-7.822-2.077-16.961,0.453-24.734
		c4.048,13.413,11.317,26.031,21.896,35.326C23.519,163.021,18.739,164.078,14.077,162.187z" class="color c2"/>
    <path fill="#FFD229" d="M10.244,121.334c-2.452-0.945-3.672-3.183-4.355-5.572c-0.008-0.028-0.013-0.061-0.024-0.091
		c-0.002-0.004-0.003-0.008-0.005-0.012c-0.071-0.255-0.135-0.51-0.195-0.765c-0.096-0.649-0.025-1.294,0.085-1.97
		c3.934-17.237,10.397-33.542,21.553-47.474c11.512-14.378,26.043-26.418,41.277-36.645c7.089-4.759,14.649-8.598,21.91-13.042
		c4.007-2.453,8.235-4.628,12.619-6.32c2.259-0.872,4.644-1.6,7.079-1.668c4.785-0.135,3.325,4.687,1.928,7.574
		c-1.256,2.596-2.525,4.904-2.266,7.857c0.279,3.177,3.222,5.601,4.263,8.513c1.445,4.038-0.233,8.558-1.26,12.491
		c-0.917,3.506-1.645,7.072-1.535,10.708c0.126,4.117,1.693,7.566,0.554,11.747c-1.065,3.9-2.943,7.018-2.977,11.192
		c-0.032,3.939,1.091,7.438,0.37,11.428c-0.674,3.725-2.808,6.859-5.59,9.335c-2.675,2.38-6.112,3.873-9.441,5.071
		c-3.492,1.255-6.643,3.306-9.626,5.474c-6.358,4.619-11.782,9.839-19.828,11.139c-3.444,0.556-6.973,0.58-10.453,0.727
		c-4.133,0.171-8.194,0.858-12.315,1.144c-7.918,0.549-15.937-0.059-23.873,0.037C15.501,122.244,12.745,122.297,10.244,121.334z" class="color c3"/>
  </g>
</svg>