<svg version="1.1" id="图层_1" x="0px" y="0px" width="146.938px" height="129.44px" viewBox="0 0 146.938 129.44" enable-background="new 0 0 146.938 129.44" xml:space="preserve" xmlns="http://www.w3.org/2000/svg" xmlns:xlink="http://www.w3.org/1999/xlink" xmlns:xml="http://www.w3.org/XML/1998/namespace">
  <path fill="#6B2A7D" d="M146.723,56.959c0-0.005-0.076-0.104-0.221-0.277c-0.154-0.176-0.377-0.426-0.676-0.746
	c-0.297-0.321-0.686-0.703-1.162-1.124c-0.498-0.421-1.074-0.896-1.838-1.334c-0.375-0.217-0.797-0.433-1.307-0.587
	c-0.488-0.161-1.063-0.266-1.695-0.222c-0.631,0.038-1.305,0.266-1.859,0.647c-0.564,0.377-1.006,0.87-1.361,1.4l-0.066,0.089
	l-0.021,0.039l-0.057,0.083c-0.055,0.083-0.1,0.166-0.143,0.254c-0.09,0.173-0.156,0.344-0.223,0.516
	c-0.121,0.343-0.199,0.681-0.244,1.019c-0.109,0.664-0.121,1.307-0.109,1.942c0,1.279,0.109,2.553,0.176,3.854
	c0.068,1.301,0.078,2.634-0.031,3.963c-0.111,1.334-0.389,2.657-0.898,3.886c-0.498,1.224-1.262,2.326-2.246,3.25
	c-0.986,0.925-2.203,1.661-3.555,2.226c-1.361,0.559-2.855,0.941-4.408,1.201c-1.549,0.243-3.164,0.382-4.803,0.426
	c-0.82,0.028-1.65,0.028-2.48,0.012c-0.832-0.006-1.672-0.033-2.514-0.072c-0.83-0.038-1.695-0.089-2.516-0.144
	c-0.395-0.028-0.904-0.056-1.283-0.089l-1.205-0.11c-2.936-0.299-5.758-0.803-8.348-1.628c0.318,0.017,0.631,0.022,0.941,0.027
	c0.852-0.005,1.703-0.044,2.523-0.133l0.297-0.033l0.377-0.044l0.521-0.078l0.254-0.038l0.32-0.056l0.664-0.121
	c1.629-0.333,3.213-0.814,4.719-1.456c3.031-1.263,5.713-3.161,7.893-5.32c1.096-1.079,2.07-2.226,2.959-3.404
	c0.441-0.592,0.852-1.19,1.238-1.793c0.389-0.604,0.752-1.213,1.096-1.827c1.383-2.447,2.447-4.933,3.277-7.401
	c0.83-2.458,1.396-4.916,1.715-7.318c0.311-2.402,0.41-4.75,0.268-7.009c-0.045-0.56-0.088-1.118-0.154-1.672
	c-0.045-0.315-0.076-0.504-0.135-0.819c-0.043-0.288-0.098-0.559-0.154-0.83c-0.221-1.074-0.52-2.114-0.887-3.095
	c-0.73-1.965-1.727-3.692-2.822-5.171c-1.096-1.482-2.293-2.718-3.486-3.742c-1.219-1.024-2.393-1.854-3.535-2.513
	c-1.127-0.653-2.201-1.151-3.154-1.518c-0.951-0.365-1.814-0.598-2.535-0.741c-0.719-0.139-1.295-0.183-1.705-0.183
	c-0.199,0-0.363,0-0.465,0.011c-0.098,0.006-0.166,0.006-0.166,0.006c-0.598,0.044-1.029,0.559-0.984,1.146
	c0.033,0.587,0.553,1.029,1.141,0.986l0.043-0.006c0,0,0.045-0.006,0.111-0.006c0.066-0.011,0.166-0.011,0.311-0.017
	c0.287,0,0.719,0.033,1.307,0.145c0.598,0.116,1.328,0.326,2.168,0.658c0.844,0.332,1.795,0.791,2.791,1.417
	c2.004,1.234,4.254,3.133,6.068,5.83c0.896,1.355,1.66,2.906,2.191,4.621c0.266,0.858,0.465,1.762,0.586,2.69
	c0.035,0.233,0.057,0.466,0.078,0.692c0.021,0.199,0.043,0.526,0.043,0.725c0.023,0.488,0.045,0.986,0.045,1.49
	c-0.021,2.004-0.266,4.113-0.752,6.233c-0.465,2.126-1.172,4.269-2.104,6.366c-0.951,2.082-2.17,4.102-3.676,5.891
	c-0.752,0.896-1.582,1.732-2.469,2.491c-0.873,0.753-1.805,1.445-2.803,2.037c-3.918,2.38-8.391,3.249-12.887,3.138
	c-1.086-0.038-2.104-0.149-3.023-0.354c-0.928-0.205-1.758-0.487-2.557-0.875c-0.797-0.392-1.561-0.896-2.314-1.572
	c-0.377-0.331-0.74-0.714-1.096-1.129c-0.375-0.415-0.709-0.874-1.051-1.367c-1.352-1.965-2.426-4.451-3.213-7.075
	c-0.08-0.267-0.146-0.767-0.16-1.341c1.582-0.621,2.402-0.059,4.721,1.253c0,0,1.693,0.644,2.461,0.299
	c0.768-0.339,2.184-0.904,2.34-2.338c0.158-1.43-0.818-2.934-0.518-4.865c0.305-1.927,0.422-3.668,2.969-9.521
	c0,0,1.498-4.199,1.234-9.364h-0.008c0.025-0.454,0.045-0.909,0.045-1.37C102.531,11.671,89.518,0,73.465,0
	C57.418,0,44.41,11.671,44.41,26.068c0,0.461,0.018,0.917,0.045,1.37h-0.009c-0.264,5.165,1.233,9.364,1.233,9.364
	c2.548,5.854,2.666,7.595,2.975,9.521c0.296,1.932-0.68,3.436-0.521,4.865c0.154,1.434,1.575,1.999,2.339,2.338
	c0.767,0.345,2.461-0.299,2.461-0.299c2.319-1.312,3.14-1.874,4.714-1.254c-0.009,0.574-0.077,1.075-0.163,1.342
	c-0.774,2.624-1.86,5.11-3.211,7.075c-0.332,0.487-0.674,0.946-1.04,1.361c-0.355,0.421-0.72,0.804-1.108,1.135
	c-0.752,0.676-1.505,1.18-2.302,1.566c-0.798,0.394-1.628,0.676-2.56,0.875c-0.918,0.211-1.937,0.322-3.021,0.354
	c-4.496,0.116-8.968-0.758-12.9-3.138c-0.984-0.586-1.915-1.278-2.8-2.037c-0.886-0.759-1.705-1.589-2.459-2.485
	c-1.505-1.789-2.723-3.809-3.675-5.896c-0.932-2.092-1.64-4.24-2.115-6.36c-0.487-2.126-0.719-4.229-0.74-6.239
	c0-0.498,0.009-0.996,0.032-1.484c0.011-0.204,0.032-0.53,0.056-0.73c0.021-0.221,0.043-0.453,0.077-0.687
	c0.121-0.935,0.32-1.832,0.586-2.69c0.521-1.721,1.284-3.271,2.192-4.621c1.816-2.702,4.064-4.601,6.067-5.83
	c0.998-0.626,1.948-1.085,2.791-1.417c0.842-0.332,1.571-0.542,2.169-0.658c0.576-0.116,1.019-0.145,1.306-0.145
	c0.135,0,0.244,0.006,0.313,0.011c0.066,0.006,0.109,0.012,0.109,0.012h0.045c0.597,0.038,1.106-0.404,1.141-0.991
	c0.032-0.587-0.409-1.097-0.985-1.135c0,0-0.067-0.006-0.166-0.011c-0.111-0.006-0.266-0.012-0.478-0.012
	c-0.398,0.006-0.974,0.045-1.704,0.188c-0.708,0.144-1.573,0.37-2.523,0.736c-0.965,0.371-2.027,0.863-3.157,1.522
	c-1.141,0.653-2.313,1.488-3.531,2.508c-1.196,1.023-2.392,2.259-3.487,3.747c-1.108,1.474-2.093,3.2-2.825,5.165
	c-0.364,0.98-0.663,2.021-0.884,3.101c-0.066,0.266-0.111,0.542-0.156,0.83c-0.056,0.311-0.088,0.504-0.133,0.819
	c-0.066,0.548-0.111,1.107-0.154,1.672c-0.156,2.253-0.043,4.601,0.266,7.004c0.311,2.402,0.886,4.865,1.717,7.323
	c0.83,2.464,1.892,4.954,3.266,7.396c0.355,0.619,0.72,1.223,1.107,1.826c0.387,0.609,0.798,1.207,1.239,1.799
	c0.875,1.179,1.861,2.319,2.945,3.398c2.193,2.165,4.871,4.058,7.906,5.326c1.505,0.637,3.089,1.123,4.716,1.456l0.652,0.115
	l0.334,0.062l0.255,0.038l0.52,0.072l0.377,0.045l0.298,0.032c0.819,0.09,1.661,0.134,2.523,0.134c0.313,0,0.623-0.012,0.942-0.022
	c-2.602,0.819-5.414,1.329-8.349,1.628l-1.207,0.11c-0.376,0.033-0.896,0.056-1.284,0.089c-0.817,0.055-1.683,0.1-2.523,0.144
	c-0.841,0.039-1.672,0.066-2.502,0.072c-0.844,0.011-1.661,0.011-2.481-0.012c-1.639-0.049-3.255-0.183-4.805-0.431
	c-1.55-0.261-3.057-0.643-4.405-1.202c-1.353-0.559-2.568-1.295-3.556-2.22c-0.986-0.924-1.748-2.026-2.258-3.255
	c-0.499-1.224-0.774-2.553-0.896-3.881c-0.111-1.334-0.09-2.663-0.021-3.963c0.066-1.307,0.176-2.574,0.176-3.854
	c0.012-0.642-0.011-1.284-0.109-1.948c-0.058-0.332-0.135-0.675-0.244-1.019c-0.066-0.172-0.133-0.343-0.223-0.515
	c-0.043-0.083-0.088-0.172-0.154-0.255l-0.045-0.077L10.405,54.8l-0.064-0.083c-0.355-0.53-0.798-1.023-1.363-1.406
	c-0.553-0.382-1.229-0.604-1.859-0.642c-0.63-0.05-1.206,0.061-1.693,0.216c-0.51,0.16-0.932,0.371-1.307,0.587
	c-0.764,0.438-1.341,0.919-1.838,1.334c-0.486,0.421-0.864,0.809-1.162,1.124c-0.3,0.321-0.522,0.576-0.677,0.747
	c-0.144,0.178-0.221,0.277-0.221,0.282c-0.354,0.432-0.266,1.058,0.154,1.396c0.443,0.337,1.063,0.266,1.406-0.166l0.013-0.017
	c0,0,0.064-0.078,0.176-0.222c0.133-0.155,0.311-0.388,0.576-0.67c0.267-0.287,0.609-0.631,1.029-0.996
	c0.409-0.371,0.918-0.759,1.518-1.085c0.575-0.321,1.263-0.57,1.86-0.51c0.299,0.027,0.575,0.133,0.841,0.332
	c0.266,0.194,0.531,0.493,0.753,0.858l0.056,0.088l0.032,0.045c0,0.011-0.021-0.033-0.011-0.006l0.011,0.012
	c0.011,0.033,0.021,0.071,0.045,0.104c0.032,0.078,0.066,0.155,0.088,0.249c0.066,0.183,0.088,0.404,0.122,0.632
	c0.045,0.471,0.045,1.007,0.011,1.577c-0.077,1.141-0.244,2.392-0.388,3.731c-0.143,1.345-0.275,2.779-0.23,4.301
	c0.021,1.521,0.187,3.149,0.708,4.788c0.244,0.819,0.576,1.645,0.995,2.437c0.433,0.791,0.953,1.55,1.552,2.253
	c1.194,1.411,2.667,2.585,4.249,3.543c1.595,0.958,3.301,1.716,5.039,2.347c1.738,0.637,3.531,1.13,5.325,1.545
	c0.907,0.199,1.817,0.388,2.735,0.548c0.919,0.155,1.826,0.288,2.746,0.41c0.454,0.061,0.919,0.116,1.383,0.166
	c0.454,0.044,0.91,0.094,1.385,0.127c0.499,0.045,0.863,0.072,1.385,0.1l1.438,0.066c3.057,0.066,6.201-0.221,9.279-1.008
	c-1.661,1.307-3.356,2.558-5.071,3.737c-1.22,0.847-2.459,1.644-3.709,2.475c-0.632,0.398-1.273,0.83-1.916,1.284
	c-0.642,0.443-1.306,0.941-1.992,1.506c-0.664,0.554-1.385,1.218-2.062,2.025c-0.332,0.41-0.662,0.853-0.95,1.329
	c-0.3,0.477-0.555,0.985-0.775,1.495c-0.442,1.041-0.665,2.07-0.798,3.011c-0.133,0.931-0.133,1.794-0.122,2.603
	c0.011,0.21,0.011,0.432,0.023,0.653c0.011,0.188,0.032,0.376,0.054,0.554c0.023,0.254,0.045,0.509,0.068,0.708
	c0.032,0.222,0.066,0.443,0.109,0.653c0.156,0.863,0.388,1.694,0.687,2.48c0.311,0.786,0.664,1.517,1.086,2.203
	c0.408,0.676,0.862,1.295,1.34,1.86c0.952,1.117,1.992,2.015,3.033,2.735c1.04,0.719,2.071,1.272,3.056,1.715
	c1.982,0.864,3.798,1.296,5.305,1.483c0.751,0.111,1.428,0.145,2.014,0.133c0.598,0,1.106-0.032,1.528-0.088
	c0.422-0.066,0.742-0.133,0.952-0.199c0.221-0.045,0.332-0.088,0.332-0.088c0.355-0.111,0.608-0.422,0.643-0.809
	c0.056-0.521-0.332-0.985-0.842-1.03l-0.09-0.011c0,0-0.088-0.012-0.243-0.022c-0.154-0.012-0.396-0.055-0.718-0.122
	c-0.323-0.066-0.721-0.154-1.175-0.31s-0.984-0.354-1.561-0.62c-1.13-0.521-2.48-1.262-3.786-2.325
	c-1.318-1.04-2.614-2.436-3.423-4.019c-0.409-0.786-0.696-1.628-0.817-2.492c-0.066-0.42-0.101-0.853-0.079-1.295
	c0-0.21,0.021-0.476,0.045-0.608l0.021-0.2l0.023-0.243v-0.002v-0.02l0.011-0.022l0.011-0.1l0.032-0.211
	c0.079-0.531,0.188-1.04,0.322-1.461c0.133-0.421,0.298-0.73,0.465-0.985c0.088-0.122,0.178-0.232,0.266-0.354
	c0.109-0.122,0.223-0.243,0.354-0.388c0.288-0.266,0.644-0.598,1.108-0.952c0.918-0.73,2.125-1.572,3.343-2.48
	c1.219-0.896,2.479-1.871,3.731-2.867c2.515-2.004,4.972-4.151,7.308-6.394c1.162-1.119,2.313-2.265,3.422-3.427l0.829-0.876
	c0.277-0.287,0.543-0.575,0.809-0.862c0.553-0.609,1.106-1.224,1.64-1.855c2.147-2.507,4.007-5.197,5.514-7.96
	c0.696-1.262,1.772-3.793,2.313-5.071c-0.145,0.46-0.753,2.176-0.92,2.636c-0.354,1.057-0.762,2.109-1.207,3.144
	c-0.441,1.035-0.918,2.055-1.415,3.045c-0.501,0.997-1.031,1.965-1.584,2.901c-0.554,0.936-1.119,1.843-1.706,2.712
	c-1.151,1.739-2.356,3.35-3.641,4.739c-0.366,0.409-0.743,0.818-1.119,1.224l-0.266,0.304l-0.289,0.327
	c-0.188,0.216-0.377,0.432-0.564,0.653c-0.375,0.432-0.72,0.875-1.063,1.317c-0.167,0.21-0.344,0.421-0.509,0.642
	c-0.165,0.223-0.321,0.443-0.476,0.665c-0.334,0.42-0.632,0.863-0.931,1.307c-0.311,0.432-0.576,0.885-0.842,1.329
	c-0.554,0.874-1.019,1.771-1.462,2.634c-0.854,1.761-1.462,3.51-1.783,5.149c-0.165,0.83-0.242,1.616-0.275,2.357
	c0,0.753,0.043,1.451,0.154,2.082c0.222,1.262,0.663,2.214,1.074,2.813c0.387,0.62,0.742,0.885,0.787,0.952
	c0.441,0.486,1.184,0.52,1.659,0.088c0.486-0.442,0.522-1.173,0.09-1.66c0.066,0.066-0.013-0.1-0.077-0.499
	c-0.058-0.397-0.079-1.029,0.054-1.826c0.068-0.41,0.188-0.853,0.355-1.34c0.154-0.477,0.387-1.008,0.652-1.561
	c0.287-0.543,0.587-1.13,0.985-1.728c0.177-0.299,0.399-0.599,0.599-0.908c0.221-0.31,0.465-0.631,0.686-0.952
	c0.487-0.642,1.019-1.295,1.595-1.971c0.288-0.332,0.575-0.664,0.886-0.997c0.311-0.354,0.62-0.697,0.952-1.04
	c0.321-0.332,0.643-0.687,0.997-1.041c0.343-0.354,0.686-0.708,1.041-1.041c0.176-0.177,0.354-0.354,0.53-0.531l0.266-0.266
	l0.289-0.276c0.388-0.365,0.797-0.753,1.184-1.13c1.828-1.761,3.378-3.842,4.639-6.067c0.289-0.504,0.555-1.014,0.798-1.527
	c-0.099,0.492-0.198,0.99-0.31,1.478c-0.154,0.703-0.311,1.395-0.488,2.07c-0.176,0.682-0.375,1.346-0.576,1.987
	c-0.109,0.321-0.198,0.643-0.32,0.953c-0.054,0.154-0.109,0.31-0.165,0.453l-0.178,0.432c-1.051,2.68-2.092,5.304-3.1,7.851
	c-0.51,1.284-1.019,2.546-1.507,3.786c-0.508,1.252-1.04,2.491-1.518,3.809c-0.242,0.665-0.464,1.34-0.652,2.038
	c-0.176,0.708-0.321,1.439-0.388,2.158c-0.122,1.45,0.013,2.802,0.257,4.008c0.021,0.145,0.064,0.3,0.088,0.455l0.011,0.044
	c0,0,0.011,0.066,0.011,0.056v0.033l0.034,0.088l0.043,0.211c0.034,0.144,0.056,0.254,0.1,0.41c0.045,0.154,0.088,0.287,0.122,0.442
	c0.165,0.564,0.332,1.085,0.521,1.616c0.377,1.018,0.797,1.948,1.218,2.812c0.863,1.706,1.749,3.101,2.525,4.208
	c0.784,1.107,1.438,1.938,1.914,2.49c0.233,0.277,0.411,0.488,0.544,0.632c0.133,0.133,0.197,0.222,0.197,0.222
	c0.256,0.266,0.676,0.311,0.976,0.077c0.309-0.244,0.354-0.697,0.111-1.008l-0.011-0.021c0,0-0.058-0.066-0.167-0.199
	c-0.099-0.133-0.266-0.354-0.454-0.632c-0.388-0.564-0.963-1.406-1.584-2.513c-0.629-1.13-1.327-2.514-1.926-4.174
	c-0.311-0.831-0.576-1.717-0.799-2.668c-0.043-0.233-0.088-0.466-0.144-0.709c-0.043-0.244-0.099-0.498-0.121-0.731
	c-0.022-0.121-0.033-0.243-0.055-0.354c-0.011-0.122-0.033-0.267-0.045-0.41l-0.022-0.211l-0.01-0.099v-0.022v-0.012v-0.044
	c-0.022-0.121-0.022-0.243-0.022-0.376c-0.066-1.041,0-2.06,0.275-3.013c0.278-0.951,0.765-1.882,1.406-2.9
	c0.653-1.007,1.419-2.081,2.194-3.232c0.774-1.141,1.561-2.348,2.303-3.609c0.73-1.251,1.438-2.568,2.068-3.92
	c0.644-1.351,1.241-2.813,1.762-4.163l0.211-0.619c0.076-0.2,0.143-0.399,0.199-0.599c0.131-0.388,0.242-0.775,0.363-1.173
	c0.09-0.344,0.178-0.687,0.266-1.03c0.09,0.344,0.178,0.687,0.277,1.03c0.121,0.397,0.232,0.785,0.365,1.173
	c0.057,0.199,0.121,0.398,0.201,0.599l0.207,0.619c0.523,1.351,1.119,2.813,1.762,4.163c0.631,1.352,1.33,2.669,2.07,3.92
	c0.742,1.262,1.518,2.469,2.293,3.609c0.773,1.151,1.551,2.226,2.191,3.232c0.645,1.019,1.141,1.949,1.418,2.9
	c0.266,0.953,0.332,1.972,0.287,3.013c-0.021,0.122-0.021,0.255-0.031,0.376v0.044v0.012v0.022l-0.014,0.099l-0.021,0.211
	c-0.021,0.133-0.031,0.288-0.045,0.41c-0.021,0.11-0.043,0.232-0.055,0.354c-0.033,0.233-0.078,0.487-0.121,0.731
	c-0.045,0.243-0.1,0.476-0.156,0.709c-0.221,0.951-0.484,1.837-0.785,2.668c-0.6,1.66-1.295,3.044-1.916,4.174
	c-0.641,1.106-1.207,1.948-1.594,2.513c-0.199,0.277-0.354,0.499-0.465,0.632s-0.154,0.199-0.154,0.199l-0.023,0.021
	c-0.221,0.288-0.199,0.72,0.088,0.975c0.289,0.267,0.732,0.244,0.998-0.044c0,0,0.066-0.089,0.199-0.222
	c0.133-0.144,0.311-0.354,0.553-0.632c0.465-0.553,1.129-1.383,1.904-2.49c0.787-1.107,1.672-2.502,2.525-4.208
	c0.443-0.863,0.852-1.794,1.229-2.812c0.188-0.531,0.365-1.052,0.52-1.616c0.045-0.155,0.08-0.288,0.111-0.442
	c0.045-0.156,0.066-0.267,0.111-0.41l0.043-0.211l0.023-0.088v-0.033c0,0.011,0.021-0.056,0.021-0.056v-0.044
	c0.045-0.155,0.066-0.311,0.102-0.455c0.23-1.206,0.387-2.558,0.254-4.008c-0.068-0.719-0.211-1.45-0.4-2.158
	c-0.178-0.698-0.398-1.373-0.643-2.038c-0.484-1.317-1.018-2.557-1.516-3.809c-0.498-1.24-0.996-2.502-1.516-3.786
	c-0.996-2.547-2.039-5.171-3.1-7.851l-0.168-0.432c-0.055-0.144-0.121-0.299-0.166-0.453c-0.109-0.311-0.221-0.632-0.332-0.953
	c-0.199-0.642-0.389-1.306-0.564-1.987c-0.176-0.676-0.344-1.367-0.486-2.07c-0.078-0.349-0.154-0.703-0.234-1.063
	c0.201,0.376,0.389,0.747,0.598,1.112c1.264,2.226,2.803,4.307,4.629,6.067c0.377,0.377,0.797,0.765,1.195,1.13l0.289,0.276
	l0.266,0.266c0.178,0.178,0.342,0.354,0.531,0.531c0.355,0.333,0.686,0.687,1.039,1.041c0.346,0.354,0.666,0.709,0.998,1.041
	c0.332,0.343,0.643,0.687,0.953,1.04c0.309,0.333,0.596,0.665,0.885,0.997c0.576,0.676,1.096,1.329,1.584,1.971
	c0.232,0.321,0.465,0.643,0.686,0.952c0.211,0.31,0.42,0.609,0.609,0.908c0.398,0.598,0.686,1.185,0.975,1.728
	c0.266,0.553,0.486,1.073,0.666,1.561c0.154,0.487,0.273,0.93,0.352,1.34c0.135,0.797,0.111,1.429,0.045,1.826
	c-0.066,0.41-0.131,0.565-0.066,0.499c-0.441,0.487-0.398,1.218,0.078,1.66c0.475,0.432,1.229,0.398,1.66-0.088
	c0.055-0.067,0.398-0.343,0.787-0.952c0.42-0.599,0.861-1.551,1.082-2.813c0.102-0.631,0.156-1.329,0.135-2.082
	c-0.021-0.741-0.098-1.527-0.266-2.357c-0.32-1.64-0.93-3.389-1.783-5.149c-0.432-0.863-0.906-1.76-1.449-2.634
	c-0.277-0.444-0.553-0.897-0.854-1.329c-0.299-0.433-0.598-0.887-0.92-1.307c-0.154-0.222-0.33-0.442-0.486-0.665
	c-0.166-0.221-0.332-0.432-0.51-0.642c-0.342-0.442-0.684-0.875-1.063-1.312c-0.176-0.222-0.375-0.438-0.563-0.659l-0.277-0.327
	l-0.289-0.299c-0.355-0.404-0.73-0.813-1.105-1.229c-1.285-1.39-2.482-3-3.645-4.733c-0.586-0.869-1.141-1.782-1.693-2.718
	c-0.553-0.937-1.086-1.904-1.594-2.896c-0.51-0.991-0.975-2.01-1.418-3.045s-0.84-2.087-1.219-3.149
	c-0.297-0.875-0.576-1.756-0.852-2.63c0.676,1.693,1.461,3.394,2.379,5.07c1.508,2.763,3.379,5.454,5.516,7.961
	c0.531,0.631,1.084,1.246,1.648,1.855c0.266,0.287,0.543,0.569,0.809,0.856l0.832,0.881c1.105,1.157,2.246,2.309,3.42,3.427
	c2.336,2.237,4.795,4.385,7.309,6.399c1.238,0.997,2.502,1.96,3.73,2.856c1.217,0.908,2.424,1.75,3.332,2.48
	c0.465,0.365,0.83,0.687,1.107,0.963c0.143,0.134,0.254,0.255,0.355,0.377c0.098,0.122,0.188,0.232,0.264,0.365
	c0.178,0.244,0.332,0.564,0.465,0.985c0.135,0.41,0.244,0.919,0.332,1.45l0.023,0.211l0.021,0.1v0.033c0-0.008,0,0.001,0,0.011
	l0.033,0.255l0.012,0.188c0.033,0.144,0.043,0.398,0.057,0.619c0.01,0.443-0.014,0.864-0.078,1.296
	c-0.135,0.853-0.422,1.694-0.82,2.491c-0.818,1.583-2.104,2.968-3.432,4.008c-1.309,1.063-2.656,1.816-3.787,2.336
	c-0.576,0.255-1.096,0.454-1.549,0.609c-0.465,0.155-0.865,0.243-1.174,0.321c-0.334,0.066-0.566,0.099-0.732,0.11
	c-0.154,0.011-0.244,0.033-0.244,0.033h-0.076c-0.365,0.033-0.697,0.277-0.807,0.643c-0.168,0.51,0.109,1.041,0.596,1.196
	c0,0,0.111,0.043,0.332,0.099s0.531,0.122,0.953,0.188s0.932,0.088,1.527,0.088c0.598,0.012,1.273-0.021,2.025-0.133
	c1.508-0.177,3.313-0.619,5.293-1.483c0.986-0.442,2.025-0.996,3.057-1.715c1.041-0.721,2.082-1.606,3.045-2.735
	c0.465-0.565,0.918-1.174,1.328-1.86c0.422-0.676,0.775-1.417,1.086-2.192c0.311-0.797,0.531-1.628,0.686-2.48
	c0.045-0.221,0.09-0.442,0.111-0.652c0.031-0.211,0.055-0.455,0.076-0.709c0.014-0.188,0.035-0.376,0.045-0.564
	c0.012-0.222,0.012-0.433,0.033-0.653c0-0.809,0-1.672-0.131-2.603c-0.123-0.94-0.355-1.97-0.799-3.011
	c-0.221-0.51-0.465-1.019-0.764-1.484c-0.301-0.487-0.633-0.93-0.965-1.328c-0.662-0.819-1.383-1.483-2.059-2.037
	c-0.688-0.564-1.34-1.063-1.992-1.506c-0.643-0.454-1.285-0.875-1.904-1.284c-1.262-0.831-2.504-1.628-3.721-2.469
	c-1.717-1.18-3.398-2.431-5.07-3.737c3.078,0.781,6.221,1.074,9.289,1.002l1.439-0.061c0.51-0.027,0.875-0.056,1.373-0.1
	c0.475-0.039,0.932-0.083,1.385-0.128c0.465-0.049,0.93-0.11,1.383-0.166c0.92-0.122,1.826-0.26,2.756-0.415
	c0.908-0.16,1.816-0.343,2.725-0.548c1.803-0.41,3.588-0.902,5.338-1.539c1.725-0.631,3.432-1.39,5.025-2.347
	c1.584-0.958,3.057-2.132,4.252-3.543c0.598-0.703,1.117-1.468,1.551-2.259c0.42-0.787,0.752-1.612,1.006-2.431
	c0.52-1.645,0.676-3.272,0.711-4.789c0.031-1.527-0.102-2.961-0.234-4.301c-0.154-1.339-0.32-2.596-0.398-3.73
	c-0.033-0.57-0.033-1.107,0.021-1.577c0.021-0.233,0.057-0.449,0.109-0.632c0.023-0.094,0.059-0.177,0.09-0.249
	c0.023-0.039,0.033-0.077,0.045-0.105l0.012-0.011l0.021-0.039l0.055-0.089c0.223-0.365,0.488-0.664,0.754-0.863
	c0.275-0.193,0.553-0.299,0.842-0.332c0.598-0.061,1.283,0.188,1.871,0.515c0.588,0.327,1.098,0.715,1.518,1.08
	c0.408,0.37,0.752,0.714,1.018,0.996c0.266,0.288,0.455,0.515,0.576,0.67c0.109,0.149,0.176,0.228,0.176,0.228l0.012,0.011
	c0.344,0.432,0.963,0.509,1.406,0.171C146.988,58.022,147.066,57.396,146.723,56.959z M86.682,30.718
	c8.398,1.533,7.609,12.73,1.168,14.041C78.084,46.748,73.146,28.243,86.682,30.718z M70.322,47.938
	c0.399-1.773,1.27-4.676,1.937-6.453c0.665-1.775,1.724-1.775,2.349,0c0.627,1.777,1.5,4.68,1.938,6.453
	c0.439,1.777-0.076,3.521-1.139,3.878c-1.066,0.357-2.81,0.357-3.877,0C70.467,51.459,69.924,49.716,70.322,47.938z M60.261,30.718
	c13.534-2.475,8.596,16.025-1.169,14.041C52.65,43.448,51.861,32.251,60.261,30.718z" class="color c1"/>
</svg>