<svg version="1.1" id="图层_1" x="0px" y="0px" width="138.036px" height="135.053px" viewBox="0 0 138.036 135.053" enable-background="new 0 0 138.036 135.053" xml:space="preserve" xmlns="http://www.w3.org/2000/svg" xmlns:xlink="http://www.w3.org/1999/xlink" xmlns:xml="http://www.w3.org/XML/1998/namespace">
  <path fill="#0A0A0A" d="M136.247,34.021c-4.279-12.376-16.808-21.086-37.129-25.67c-1.527-2.443-7.182-9.473-13.904-6.875
	C83.227,0.864,77.573-0.357,69.018,0.1c-8.557-0.457-14.211,0.765-16.196,1.376c-6.723-2.598-12.376,4.432-13.904,6.875
	C18.596,12.935,6.067,21.645,1.79,34.021c-7.641,21.391,11.611,45.99,12.375,46.907c3.668,5.044,7.487,9.474,11.154,13.753
	c2.834,3.35,5.539,6.559,7.926,9.694c0,0-0.001-0.002-0.002-0.003c0,0-52.215-71.13,5.063-73.255
	c2.897,10.313,2.474,3.779,9.321,10.544c3.82,5.041,6.418,13.14,6.418,13.14s0.841,5.315,9.411,6.723
	c0.287-0.971,0.528-2.023,0.746-3.198l0.403-2.701v-17.03l1.527-0.58c2.163-0.822,4.315-0.906,6.227-0.25l1.547,0.533l0.048,1.637
	c0.074,2.546,0.176,5.063,0.274,7.566c0.108,2.708,0.216,5.397,0.289,8.087l0.002,0.091l-0.151,3.049
	c-0.025,0.955-0.113,1.912-0.229,2.863c8.979-1.296,9.853-6.789,9.853-6.789s2.598-8.099,6.418-13.14
	c6.848-6.765,6.422-0.231,9.32-10.544c57.279,2.125,5.063,73.255,5.063,73.255s0,0.002,0,0.003c2.387-3.137,5.09-6.346,7.926-9.695
	c3.666-4.277,7.486-8.709,11.152-13.752C124.633,80.011,143.886,55.411,136.247,34.021z" class="color c1"/>
  <path fill="#FFFFFF" d="M45.946,8.81c0,0,4.737-2.598,9.626,5.349C55.572,14.158,47.016,19.964,45.946,8.81z" class="color c2"/>
  <path fill="#FFFFFF" d="M92.09,8.81c0,0-4.736-2.598-9.627,5.349C82.463,14.158,91.02,19.964,92.09,8.81z" class="color c2"/>
  <path fill="#FFFFFF" d="M71.463,40.896c-0.154-1.223-1.07-2.292-2.293-2.292c-1.222,0-2.291,0.916-2.291,2.292v0.765
	c-0.307-0.459-0.459-0.917-0.459-1.528c0-1.528,1.223-2.751,2.75-2.751c1.53,0,2.75,1.223,2.75,2.751
	c0,0.611-0.152,1.069-0.457,1.528V40.896z" class="color c2"/>
  <path fill="#FFFFFF" d="M59.163,24.089c-1.527,0.306-1.834-0.306-3.057-0.153c-1.375,0.307-1.68,1.071-1.985,1.224
	c-7.182,3.208-12.683-2.598-12.683-2.598c-0.459-0.459-0.611-0.152-0.611-0.152c-0.152,0.152,0.152,0.764,0.152,0.764
	s1.682,2.749,3.362,3.666c0,0,0.611,4.278,3.667,7.182c0,0,8.862,6.569,9.627,16.808c0,0,0.152,5.347,8.861,6.111l5.043,0.152
	c8.556-0.763,8.86-6.11,8.86-6.11c0.916-10.237,9.626-16.808,9.626-16.808c3.057-2.904,3.667-7.182,3.667-7.182
	c1.683-0.764,3.361-3.667,3.361-3.667s0.306-0.459,0.153-0.764c0,0-0.308-0.307-0.612,0.152c0,0-5.5,5.806-12.683,2.598
	c-0.305-0.152-0.764-0.917-1.986-1.223c-1.221-0.306-1.526,0.459-3.055,0.153c-0.916-0.153-1.834-0.307-3.209-0.459L62.37,23.631
	C60.996,23.783,60.079,23.936,59.163,24.089z" class="color c2"/>
  <path fill="#0A0A0A" d="M60.156,38.134c0,0-0.196,0.196-1.374-0.98c0,0-4.315-3.532-4.707-12.558c0,0,0.392-1.569,2.354-1.569
	c0,0,1.569-0.195,2.157,1.177C58.389,24.009,57.753,34.618,60.156,38.134z" class="color c1"/>
  <path fill="#0A0A0A" d="M79.124,24.203c0.588-1.372,2.157-1.177,2.157-1.177c1.962,0,2.354,1.569,2.354,1.569
	c-0.393,9.025-4.709,12.558-4.709,12.558c-1.178,1.177-1.373,0.98-1.373,0.98C79.956,34.618,79.32,24.009,79.124,24.203z" class="color c1"/>
  <path fill="#0A0A0A" d="M71.411,75.026c-1.773-5.473,0.443-10.945,0.592-16.418l0.148-2.958c-0.141-5.172-0.408-10.351-0.563-15.648
	c-2.564-3.597-4.615,0.226-4.615,0.226s0,10.196,0,15.572l-0.443,2.957c-0.739,3.993-1.774,7.691-5.324,10.354
	c-2.516,1.925-4.438,4.586-6.508,6.951c-0.74,0.89-0.888,2.22-1.332,3.402c0.148,0,0.148,0,0.297-0.146
	c2.07-2.221,3.992-4.733,6.359-6.953c2.366-2.07,5.029-3.846,7.396-5.768c0.591,8.579,3.106,13.754,7.1,15.086
	C73.482,79.612,72.151,77.394,71.411,75.026z" class="color c1"/>
  <path fill="#B7914E" d="M47.901,125.966c0.414,1.26,1.148,4.162,1.405,5.389c5.041,1.223,13.492,3.698,23.269,3.698
	c6.074,0,11.355-1.471,16.723-2.712l0.265-1.713c0.282-1.529,0.711-3.107,1.231-4.699c-6.907,0.715-14.152,1.096-21.623,1.096
	C61.829,127.024,54.703,126.656,47.901,125.966z" class="color c3"/>
  <path fill="#B7914E" d="M102.883,102.972c0.066-0.093,1.668-2.298,3.961-5.861c-11.375,2.219-24.156,3.466-37.674,3.466
	c-13.658,0-26.563-1.276-38.025-3.536c2.318,3.605,3.939,5.839,4.007,5.932l-0.029,0.021c2.879,3.902,8.017,11.373,11.288,19.046
	c7.252,0.793,14.877,1.224,22.76,1.224c8,0,15.733-0.445,23.08-1.26c3.248-7.833,8.226-15.395,10.724-18.963L102.883,102.972z" class="color c3"/>
  <path fill="#B7914E" d="M109.536,92.795c4.793-7.933,10.848-19.358,13.428-30.063c-13.766,4.416-31.019,7.176-49.862,7.515
	c-0.011,1.38,0.135,2.73,0.563,4.048c0.502,1.604,1.338,3.196,2.146,4.733c0.285,0.541,0.563,1.072,0.826,1.596l2.557,5.113
	l-5.424-1.81c-3.063-1.021-6.773-4.139-8.227-12.911c-1.342,1.004-2.719,2.041-3.961,3.129c-1.352,1.269-2.641,2.758-3.889,4.196
	c-0.766,0.886-1.522,1.757-2.299,2.589c-0.473,0.476-1.032,0.9-2.027,0.9H49.95l1.199-3.199c0.119-0.318,0.211-0.65,0.304-0.979
	c0.282-0.992,0.602-2.118,1.425-3.106c0.535-0.612,1.023-1.198,1.514-1.786c0.789-0.945,1.592-1.906,2.453-2.832
	c-15.709-0.9-30.041-3.492-41.795-7.3c2.557,10.7,8.607,22.14,13.408,30.095c12.115,2.604,25.979,4.084,40.713,4.084
	C83.765,96.81,97.502,95.354,109.536,92.795z" class="color c3"/>
  <path fill="#B7914E" d="M62.606,63.762c-8.732-1.619-10.545-7.052-10.848-8.333c-0.298-0.899-2.659-7.826-5.917-12.204
	c-2.327-2.271-3.554-2.698-4.453-3.012c-2.515-0.874-3.422-1.977-4.833-6.634c-10.84,0.729-17.862,4.26-20.884,10.507
	c-1.98,4.095-2.239,9.096-1.437,14.431c12.884,4.279,28.962,7.082,46.604,7.759C61.57,65.531,62.146,64.702,62.606,63.762z
	 M122.364,44.086c-3.021-6.247-10.043-9.777-20.885-10.507c-1.41,4.657-2.316,5.76-4.832,6.634c-0.9,0.313-2.127,0.74-4.453,3.012
	c-3.258,4.378-5.619,11.306-5.918,12.204c-0.318,1.355-2.334,7.374-12.48,8.578c-0.028,0.19-0.059,0.385-0.088,0.574
	c-0.096,0.611-0.188,1.215-0.271,1.814c19.084-0.372,36.533-3.225,50.351-7.769C124.61,53.251,124.358,48.21,122.364,44.086z" class="color c3"/>
</svg>