<svg version="1.1" id="图层_1" x="0px" y="0px" width="144.16px" height="190px" viewBox="0 0 144.16 190" enable-background="new 0 0 144.16 190" xml:space="preserve" xmlns="http://www.w3.org/2000/svg" xmlns:xlink="http://www.w3.org/1999/xlink" xmlns:xml="http://www.w3.org/XML/1998/namespace">
  <path fill="#EF6430" d="M32.735,146.307c-1.08-1.946-3.01-4.374-4.388-6.3c-0.333-0.471-0.226-1.125,0.247-1.461
	c0.469-0.337,1.121-0.228,1.458,0.243c1.394,1.951,3.351,4.41,4.514,6.501c0.283,0.503,0.1,1.142-0.405,1.422
	C33.655,146.993,33.018,146.812,32.735,146.307z M106.04,61.948c12.07-4.504,25.148-0.082,33.187-7.638
	c7.248-6.816,5.941-13.535-0.23-17.395c-5.859-3.663-15.914-4.652-26.053-1.242c-10.567,3.555-23.837,14.777-26.783,26.672
	l-0.167,0.884l-3.673-1.325c-5.05-1.676-10.337-2.981-16.386-3.826c-3.85-0.539-7.474-0.482-10.22-0.341l-1.371,0.082l-0.086-1.721
	c0.398-6.272,5.677-13.003,13.65-16.82c12.625-6.032,24.984-10.647,31.66-17.656c9.482-9.96,0.828-21.469-11.691-21.62
	C66.009-0.269,50.5,25.046,44.205,43.564c-1.724,5.071-2.874,10.61-4.124,15.692l-1.296,4.839l-1.434,3.093
	c-0.798,1.975-1.258,3.712-1.571,5.847l-0.321,2.953l-1.065,0.476c-4.026,2.261-7.989,7.607-9.247,11.3
	c-2.91,8.549,0.593,19.634,8.472,24.44l0.865,0.464l-1.289,2.191c-3.362,5.328-6.684,8.397-7.958,17.762
	c-0.021,0.155-0.008,0.312,0.041,0.463c0.043,0.139-0.128,0.323-0.354,0.521l-0.205,0.175l-0.444-0.217
	c-2.891-1.312-7.614-2.749-11.338-1.416c-8.623,3.083-6.452,17.046,0.492,21.275l1.16,0.554l-0.182,0.133
	c-1.14,0.877-2.282,1.82-3.388,2.793c-4.491,3.958-8.754,8.678-10.871,12.243c-0.296,0.495-0.134,1.139,0.364,1.434
	c0.495,0.295,1.139,0.134,1.437-0.364c1.958-3.298,6.042-7.854,10.456-11.738c3.904-3.439,7.869-6.165,10.691-7.13l0.423-0.113
	l0.157,0.473l0.546,1.141l-1.003,0.597c-2.669,1.787-6.145,5.388-9.329,9.29c-3.676,4.503-7.164,9.643-8.798,13.392
	c-0.23,0.529,0.01,1.146,0.542,1.378c0.529,0.231,1.147-0.009,1.378-0.541c1.525-3.488,4.869-8.456,8.502-12.906
	c3.206-3.925,6.496-7.269,8.818-8.84l0.843-0.504l1.345,2.078l-0.696,0.555c-2.293,2.004-5.191,5.587-7.645,9.55
	c-2.8,4.519-5.184,9.785-5.385,14.053c-0.026,0.577,0.422,1.068,0.999,1.094c0.577,0.029,1.068-0.418,1.096-0.996
	c0.172-3.714,2.315-8.595,5.071-13.048l0.739-1.103l0.262,0.731c0.737,1.781,2.018,3.864,3.234,5.658
	c2.061,3.049,4.565,6.129,5.89,7.046c3.103,2.146,5.343,4.087,9.075,5.75c2.72,1.214,8.92,3.274,11.872,3.699
	c5.035,0.728,8.784-0.181,11.289-5.208l0.719-1.668l0.205,0.047c5.929,1.085,18.222,0.689,23.952-1.584l0.211-0.098l0.156,0.148
	c0.834,0.789,3.242,3.124,3.751,3.493l0.091,0.063l0.193,0.104c5.752,2.335,9.126,1.18,12.85-4.175
	c1.702-2.457,3.508-6.119,4.879-8.632c1.814-3.311,4.479-6.996,7.256-9.242c3.903-3.161,6.664-3.568,8.371-7.539
	c2.59-6.023-1.498-11.821-6.563-14.08c-2.064-0.918-5.217-1.463-8.51-0.78l-0.287,0.072l-0.306-0.713
	c-1.045-2.327-3.2-6.398-5.115-8.837l-0.366-0.444l0.238-0.372c0.504-0.764,1.257-1.904,2.02-3.08
	c1.225-1.88,2.59-4.049,3.044-5.188c0.624-1.58,1.452-3.531,2.264-5.664l0.97-2.743l0.178-0.162c1.224-1.179,7.06-7.121,7.432-7.539
	c0.101-0.119,0.162-0.228,0.201-0.338c0.195-0.53,0.229-1.098,0.186-1.652l-0.032-0.3l0.18,0.074
	c0.296,0.094,0.621,0.153,1.003,0.153c0.329,0.004,0.64-0.153,0.837-0.412c0.442-0.589,1.802-2.043,3.134-3.572
	c0.662-0.758,1.318-1.54,1.843-2.231c0.479-0.636,0.97-1.354,1.134-1.971c0.16-0.654-0.284-1.275-0.928-1.324
	c-1.548-0.114-4.883,0.411-7.946,1.027c-2.713,0.547-5.469,1.216-6.937,1.725l-0.291,0.112l-0.424-0.629
	c-2.604-3.175-6.531-3.523-9.652-2.012l-0.615,0.391l-0.103-0.863c-0.854-3.475-4.805-8.505-7.804-10.676l-0.696-0.413l0.274-3.08
	c0.162-2.563,0.19-5.228-0.082-7.82l-0.523-3.107l0.688-0.502C96.658,66.363,103.492,62.9,106.04,61.948z M119.979,97.463
	c1.999-0.401,3.918-0.722,5.363-0.883l0.175-0.017l-0.303,0.39c-0.339,0.425-0.772,0.943-1.329,1.583
	c-0.945,1.082-1.994,2.228-2.682,3.02l-0.142,0.166l-0.175-0.081c-0.072-0.039-0.146-0.085-0.226-0.136
	c-0.285-0.18-0.831-0.593-1.483-0.806c-0.75-0.252-1.496,0.394-1.357,1.172c0.172,1.01,0.518,2.049,0.434,2.752l-0.027,0.122
	l-0.252,0.26c-0.744,0.768-2.387,2.44-3.895,3.971l-0.536,0.54l0.585-3.325c0.253-2.319,0.149-4.619-0.59-6.683l-0.185-0.408
	C114.627,98.663,117.23,98.018,119.979,97.463z M76.521,86.583c0.083-0.571,0.61-0.97,1.183-0.885
	c0.575,0.079,0.973,0.611,0.891,1.183c-0.134,0.927,0.176,1.742,0.813,2.426c0.652,0.7,1.647,1.246,2.79,1.508
	c2.238,0.519,4.771-0.1,5.931-2.338c0.267-0.513,0.9-0.713,1.414-0.449c0.51,0.269,0.713,0.901,0.446,1.414
	c-1.7,3.278-5.292,4.102-8.264,3.418c-1.471-0.341-2.86-1.064-3.85-2.123C76.873,89.658,76.285,88.226,76.521,86.583z M56.88,91.301
	c0.58,0.03,1.024,0.521,0.999,1.098c-0.08,1.557,0.98,2.294,2.086,2.415c0.932,0.107,1.968-0.218,2.697-1.072l0.567-0.954
	l-0.087-0.021c-0.467-0.188-0.924-0.461-1.35-0.842c-0.434-0.386-0.472-1.045-0.087-1.477c0.382-0.434,1.045-0.472,1.479-0.089
	c0.466,0.413,0.993,0.606,1.589,0.667c0.621,0.06,1.304-0.023,2.06-0.172c0.568-0.108,1.117,0.265,1.229,0.828
	c0.111,0.568-0.261,1.117-0.829,1.227c-0.403,0.078-0.837,0.192-1.283,0.192h-0.54l0.137,0.297c0.107,0.278,0.189,0.558,0.3,0.849
	c0.162,0.442,0.341,0.802,0.703,1.149c0.598,0.57,1.643,0.73,2.733,0.397c1.101-0.344,1.909-1.078,2.117-1.862
	c0.148-0.56,0.726-0.888,1.283-0.738c0.559,0.148,0.89,0.724,0.741,1.28c-0.452,1.691-1.974,2.839-3.526,3.317
	c-0.387,0.121-0.8,0.206-1.219,0.242c0,0-2.76,0.648-3.932-1.367l-0.278-0.599c-0.065-0.14-0.194-0.239-0.346-0.268
	c-0.151-0.024-0.309,0.021-0.419,0.129c0,0-2.744,1.862-5.223,0.749c-1.409-0.633-1.198-0.741-1.572-1.144
	c-0.762-0.809-1.191-1.923-1.126-3.238C55.813,91.719,56.305,91.274,56.88,91.301z M65.439,98.947c0,0-0.694,3.417-0.82,4.325
	c-0.134,0.935-0.274,1.815-0.457,2.528c-0.113,0.426-0.216,0.71-0.3,0.893l-0.054,0.108l-0.254-0.039
	c-0.108-0.018-0.231-0.041-0.367-0.064c-0.495-0.088-1.101-0.213-1.707-0.346c-0.606-0.137-1.204-0.274-1.686-0.395
	c-0.131-0.034-0.249-0.067-0.352-0.093l-0.247-0.07l-0.008-0.122c-0.005-0.204,0-0.499,0.042-0.925
	c0.064-0.69,0.203-1.52,0.375-2.363c0.334-1.678,0.932-4.169,0.932-4.169c1.556-0.217,2.787-1.049,2.787-1.049
	c0.11-0.108,0.267-0.152,0.418-0.129c0.065,0.012,0.122,0.043,0.175,0.078l0.018,0.038C64.01,97.284,64.512,98.763,65.439,98.947z
	 M41.738,78.266c0.58-0.007,1.055,0.451,1.062,1.034c0.044,3.177,1.82,5.087,4.001,5.779c2.236,0.701,4.941,0.142,6.804-1.847
	c0.393-0.419,1.058-0.442,1.481-0.05c0.418,0.398,0.441,1.061,0.049,1.48c-2.434,2.596-5.988,3.353-8.962,2.41
	c-3.028-0.952-5.41-3.651-5.466-7.747C40.699,78.748,41.16,78.273,41.738,78.266z M92.781,105.072
	c1.068-0.332,2.197-0.647,3.191-0.92l1.082-0.298l-0.068,1.644c0,2.382,0.229,5.256,0.254,7.971
	c0.023,2.841-0.167,5.352-0.852,7.181l-0.85,1.576l-0.287,0.247c-0.994,0.929-2.621,2.906-3.409,3.629
	c-0.169,0.158-0.923,0.474-1.953,0.607c-1.093,0.145-1.737-0.014-1.868-0.112L87.49,125.9c-0.216-0.325-0.385-0.667-0.511-1.146
	c-0.146-0.561-0.718-0.894-1.278-0.748c-0.56,0.147-0.893,0.72-0.747,1.276c0.19,0.727,0.462,1.278,0.785,1.771l0.557,0.738
	l0.005,0.147c0.036,0.786,0.095,2.099,0.054,2.926l-0.033,0.377l-0.083,0.176c-0.149,0.255-0.472,0.715-1.016,1.356
	c-0.663,0.78-1.522,1.688-2.42,2.577c-1.702,1.687-3.229,2.989-3.868,3.414l-0.097,0.054l-0.074-0.017
	c-0.491-0.172-1.448-0.76-1.661-1.003l-0.139-0.09l-0.283-0.417c-0.12-0.206-0.236-0.438-0.365-0.694
	c-0.062-0.128-0.128-0.264-0.195-0.398c-0.066-0.134-0.139-0.269-0.21-0.407c-0.147-0.272-0.319-0.561-0.516-0.824
	c-0.347-0.464-1.006-0.56-1.465-0.212c-0.464,0.348-0.56,1.003-0.213,1.467c0.113,0.149,0.228,0.336,0.347,0.563
	c0.062,0.113,0.123,0.228,0.185,0.354c0.062,0.125,0.125,0.248,0.19,0.385c0.131,0.259,0.272,0.544,0.429,0.815l0.434,0.629
	l0.083,0.697c0.098,0.401,0.195,0.735,0.174,0.887c-0.197,1.408-1.425,1.945-2.493,2.858l-0.461,0.517l-0.786-0.373
	c-2.33-0.883-4.884-1.029-7.217-0.547c-3.824,0.799-8.857,3.887-10.989,7.651c-0.508,0.896-0.996,1.942-1.448,3.028l-0.608,1.611
	l-0.498-0.601c-0.906-1.105-2.004-2.505-2.852-3.605c-0.351-0.453-1.011-0.541-1.467-0.187c-0.458,0.354-0.544,1.01-0.191,1.469
	c1.13,1.464,2.733,3.502,3.745,4.679c0.095,0.111,0.206,0.196,0.326,0.257l0.211,0.059l-0.552,2.205
	c-0.169,0.83-0.331,1.566-0.587,2.074c-0.066,0.136-0.105,0.281-0.113,0.429l0.028,0.167l-0.244,0.174
	c-0.297,0.19-0.641,0.375-0.939,0.477c-3.865,1.366-9.873,0.188-13.533-1.785c-2.494-1.348-4.91-3.141-6.608-5.451
	c-4.45-6.051-5.271-13.234-2.566-19.854l0.035-0.172c0.044-0.041,0.458-0.291,0.858-0.719l0.105-0.154l0.162-0.011
	c0.13-0.035,0.259-0.097,0.372-0.187c0.164-0.129,4.339-3.298,4.901-3.635c0.88-0.53,1.869-1.055,2.913-1.52l2.646-0.949l1.55,1.838
	c0.639,0.712,1.296,1.408,1.888,2.032c0.403,0.418,1.063,0.432,1.481,0.034c0.418-0.403,0.433-1.065,0.033-1.481
	c-0.593-0.618-1.229-1.299-1.842-1.983l-0.847-1.004l1.609-0.144c1.062-0.023,2.083,0.117,3.01,0.472
	c1.175,0.455,3.229,1.535,5.431,2.585c1.922,0.919,4.365,2.017,5.785,2.028c6.909,0.065,12.185-5.175,9.909-11.774
	c-0.685-1.982-2.559-3.578-4.15-4.626l-0.675-0.42l1.201-0.471c0.894-0.374,1.761-0.695,2.661-0.8
	c1.25-0.147,1.761,0.029,2.138,0.213c0.413,0.203,0.819,0.501,1.44,0.749l0.205,0.067l0.426,0.764
	c0.172,0.26,0.373,0.521,0.534,0.74c0.18,0.232,0.333,0.443,0.467,0.649c0.133,0.199,0.224,0.369,0.277,0.51
	c0.204,0.539,0.811,0.812,1.35,0.604c0.542-0.206,0.812-0.813,0.603-1.351c-0.125-0.334-0.299-0.643-0.477-0.912
	c-0.174-0.267-0.369-0.528-0.544-0.762c-0.195-0.257-0.342-0.455-0.475-0.646c-0.136-0.2-0.221-0.36-0.27-0.482l-0.093-0.136v-0.72
	c-0.002-0.229-0.004-0.385,0.014-0.495c0.017-0.102,0.056-0.259,0.513-0.896c0.225-0.313,0.965-0.883,2.232-1.573
	c1.202-0.646,2.713-1.321,4.286-1.912c1.576-0.59,3.193-1.089,4.599-1.391c1.268-0.277,2.259-0.372,2.879-0.309l0.188,0.044
	c0.195,0.131,0.467,0.336,0.78,0.609c0.413,0.355,0.711,0.663,0.778,0.755l0.163,0.22l0.096,0.117
	c0.161,0.253,0.343,0.509,0.502,0.745c0.164,0.243,0.295,0.447,0.395,0.628c0.113,0.206,0.137,0.309,0.143,0.334
	c0.094,0.57,0.639,0.955,1.205,0.86c0.57-0.098,0.955-0.64,0.859-1.209c-0.064-0.37-0.217-0.709-0.363-0.98
	c-0.152-0.277-0.337-0.56-0.506-0.81c-0.165-0.242-0.337-0.486-0.48-0.71l-0.057-0.097l0.02-0.503c0-0.268,0.007-0.442,0.018-0.548
	l0.081-0.095c0.167-0.145,0.534-0.391,1.199-0.692C90.678,105.767,91.696,105.41,92.781,105.072z" class="color c1"/>
</svg>