<svg version="1.1" id="图层_1" x="0px" y="0px" width="70.426px" height="60px" viewBox="0 0 70.426 60" enable-background="new 0 0 70.426 60" xml:space="preserve" xmlns="http://www.w3.org/2000/svg" xmlns:xlink="http://www.w3.org/1999/xlink" xmlns:xml="http://www.w3.org/XML/1998/namespace">
  <path fill="#FFFFFF" d="M66.928,36.87c-1.929,0-3.492,1.563-3.492,3.494c0,6.974-5.676,12.647-12.648,12.647
	c-5.537,0-10.244-3.584-11.952-8.55c0.093-0.435,0.154-0.88,0.218-1.324c2.534-2.421,7.519-7.174,14.106-13.415
	c12.599-11.936,7.256-21.041,4.374-24.402c-0.077-0.091-0.158-0.176-0.245-0.258C53.757,1.704,49.896,0,45.813,0
	c-4.739,0-8.625,2.354-11.041,4.319C32.355,2.354,28.47,0,23.733,0c-4.084,0-7.945,1.704-11.477,5.062
	C12.17,5.144,12.09,5.23,12.012,5.321c-2.88,3.362-8.222,12.467,4.375,24.401c7.658,7.256,13.144,12.497,15.135,14.4
	c0.022,0.113,0.043,0.228,0.067,0.341c-1.708,4.965-6.415,8.549-11.952,8.549c-6.973,0-12.648-5.673-12.648-12.647
	c0-1.931-1.564-3.494-3.493-3.494C1.564,36.87,0,38.434,0,40.364C0,51.189,8.81,60,19.638,60c6.347,0,11.983-3.041,15.574-7.727
	C38.805,56.959,44.441,60,50.788,60c10.828,0,19.638-8.811,19.636-19.636C70.424,38.434,68.859,36.87,66.928,36.87z M17.199,10.008
	c2.149-2.004,4.346-3.019,6.534-3.019c4.619,0,8.315,4.34,8.34,4.371c0.661,0.803,1.65,1.264,2.688,1.268
	c1.053,0.021,2.032-0.459,2.7-1.255c0.038-0.044,3.732-4.384,8.352-4.384c2.188,0,4.385,1.015,6.533,3.019
	c1.399,1.647,4.873,6.241-3.996,14.642c-5.658,5.364-10.121,9.614-12.885,12.251c-0.084,0.008-0.17,0.012-0.252,0.025
	c-0.186-0.03-0.372-0.057-0.566-0.057c-0.186,0-0.364,0.026-0.542,0.055c-2.761-2.636-7.233-6.895-12.911-12.275
	C12.328,16.251,15.801,11.655,17.199,10.008z" class="color c1"/>
  <circle fill="#FFFFFF" cx="15.62" cy="40.157" r="1.372" class="color c1"/>
  <circle fill="#FFFFFF" cx="22.483" cy="43.775" r="1.373" class="color c1"/>
  <circle fill="#FFFFFF" cx="15.995" cy="47.271" r="1.373" class="color c1"/>
  <circle fill="#FFFFFF" cx="56.428" cy="40.157" r="1.373" class="color c1"/>
  <circle fill="#FFFFFF" cx="49.564" cy="43.775" r="1.373" class="color c1"/>
  <circle fill="#FFFFFF" cx="56.055" cy="47.271" r="1.373" class="color c1"/>
</svg>