<svg version="1.1" id="图层_1" x="0px" y="0px" width="79.7px" height="85.5px" viewBox="0 0 79.7 85.5" enable-background="new 0 0 79.7 85.5" xml:space="preserve" xmlns:xml="http://www.w3.org/XML/1998/namespace" xmlns="http://www.w3.org/2000/svg" xmlns:xlink="http://www.w3.org/1999/xlink">
  <path fill="#9BB44C" d="M18.5,36c-0.5,0.3-1.1,0.5-1.6,0.8c-0.5,0.2-0.9,0.5-1.4,0.7s-0.9,0.5-1.4,0.7C8.4,44,0,51.2,0,51.2
	c7.5,2.7,8.5,6.4,4,12.9c-4.2,6-4.2,12.6-1.2,19c0.4,0.9,0.9,1.7,1.4,2.3c0.8-0.1,1.7-0.2,2.6-0.3c1.4-0.2,2.8-0.4,4.3-0.5
	c0.6,0,1.2-0.1,1.9-0.1c0.9-0.6,2.4-0.9,3.5-0.9c0.9,0,1.8,0.2,2.6,0.3c3.4-0.5,6.8-1,10.1-1.4c0.7-1,1.4-2.1,2.1-3.1
	c0.5-0.7,1-1.3,1.6-1.6c0.1-0.1,0.2-0.1,0.3-0.1l0,0c0,0,0,0,0.1,0s0.2-0.1,0.2-0.1h0.1l0,0c0.1,0,0.1,0,0.2,0h0.1l0,0
	c0.2,0,0.3,0,0.5,0.1l0,0l0,0c0.2,0,0.3,0.1,0.5,0.2H35c0.2,0.1,0.3,0.2,0.5,0.3c0,0,0.1,0,0.1,0.1l0,0c0.2,0.1,0.4,0.3,0.6,0.5
	c0.4,0.3,0.7,0.6,1.1,0.9l0,0c0.3,0.2,0.5,0.3,0.8,0.5l0,0c0.2,0.1,0.5,0.2,0.7,0.3c0.1,0.1,0.3,0.1,0.4,0.2l0,0
	c0.1,0,0.2,0.1,0.3,0.1l0,0c0.3,0.1,0.6,0.2,0.8,0.2l0,0c0.1,0,0.2,0.1,0.4,0.1c0.3,0.1,0.6,0.1,1,0.1l0,0c0.1,0,0.2,0,0.2,0l0,0
	c0.1,0,0.2,0,0.2,0c0.3,0,0.6,0,1,0c0,0,0.1,0,0.2,0c0.3,0,0.7-0.1,1-0.1l0,0c0.1,0,0.2,0,0.2,0l0,0c0.4-0.1,0.8-0.2,1.3-0.3
	c-0.5-0.1-1-0.2-1.4-0.3c-0.1,0-0.3-0.1-0.4-0.1c-0.3-0.1-0.7-0.2-1-0.3c-0.1,0-0.3-0.1-0.4-0.1c-0.4-0.1-0.9-0.3-1.3-0.5l0,0l0,0
	c-0.4-0.2-0.8-0.4-1.2-0.6c-0.1-0.1-0.3-0.1-0.4-0.2c-0.3-0.1-0.6-0.3-0.8-0.5c-0.1-0.1-0.3-0.2-0.4-0.3c-0.3-0.2-0.5-0.3-0.7-0.5
	c-0.1-0.1-0.2-0.2-0.4-0.3c-0.3-0.2-0.6-0.4-0.8-0.7c-0.1-0.1-0.1-0.1-0.2-0.2c-0.3-0.3-0.6-0.6-0.9-0.9c-0.1-0.1-0.2-0.2-0.2-0.3
	c-0.2-0.2-0.4-0.5-0.6-0.7c-0.1-0.1-0.2-0.3-0.3-0.4c-0.2-0.2-0.4-0.5-0.5-0.7c-0.1-0.1-0.2-0.3-0.3-0.4c-0.2-0.3-0.3-0.6-0.5-0.9
	c-0.1-0.1-0.1-0.2-0.2-0.3c-0.2-0.4-0.4-0.8-0.6-1.3c0-0.1-0.1-0.2-0.1-0.3c-0.1-0.3-0.3-0.7-0.4-1.1c-0.1-0.2-0.1-0.3-0.2-0.5
	c-0.1-0.3-0.2-0.6-0.3-0.9c0-0.2-0.1-0.3-0.1-0.5c-0.1-0.3-0.2-0.7-0.2-1c0-0.2-0.1-0.3-0.1-0.5c-0.1-0.5-0.2-1-0.2-1.5
	c0.1,0.1,0.1,0.2,0.2,0.3c0.1,0.1,0.2,0.3,0.3,0.4c1.3,2,2.5,3.9,3.7,5.7c0.1,0.2,0.2,0.3,0.3,0.5c0.5,0.7,0.9,1.4,1.4,2.1l0,0
	c0.3,0.5,0.7,0.9,1,1.3l0,0c0.1,0.1,0.2,0.2,0.3,0.3c0.3,0.3,0.6,0.6,0.9,0.9l0,0c0.2,0.1,0.3,0.3,0.5,0.4l0,0
	c0.3,0.2,0.5,0.4,0.8,0.6l0,0c0.1,0.1,0.2,0.1,0.3,0.2c0.5,0.3,1.1,0.7,1.6,0.9l0,0l0,0c0.4,0.2,0.9,0.4,1.3,0.6l0,0
	c0.1,0,0.1,0.1,0.2,0.1c1.5,0.6,3.2,0.9,4.8,0.9l0,0c0.2,0,0.3,0,0.5,0c1.9,0,3.8-0.5,5.5-1.4c0,0,0.1,0,0.1-0.1l0,0
	c0.9-0.5,1.7-1.1,2.5-1.9l0,0l0,0c-0.1,0-0.2,0-0.3,0.1c-0.3,0.1-0.5,0.1-0.7,0.2h-0.1l0,0c-0.1,0-0.2,0.1-0.3,0.1l0,0
	c-0.1,0-0.2,0.1-0.2,0.1c-0.5,0.2-1,0.5-1.6,0.6c-0.2,0.1-0.3,0.1-0.5,0.2c-0.4,0.1-0.7,0.2-1.1,0.3c-0.1,0-0.3,0.1-0.4,0.1
	c-0.1,0-0.1,0-0.2,0c-0.4,0.1-0.7,0.1-1.1,0.2c-0.2,0-0.3,0.1-0.5,0.1c-0.5,0.1-1,0.1-1.4,0.1l0,0h-0.1l0,0c-0.4,0-0.8,0-1.1-0.1
	c-0.1,0-0.2,0-0.3,0c-0.3,0-0.7-0.1-1-0.2h-0.1c-0.4-0.1-0.7-0.2-1.1-0.3c-0.1,0-0.2-0.1-0.3-0.1h-0.1c-0.3-0.1-0.5-0.2-0.8-0.3
	c-0.1,0-0.1-0.1-0.2-0.1c-0.3-0.1-0.7-0.3-1-0.5c-0.1,0-0.2-0.1-0.2-0.1c-0.2-0.1-0.3-0.2-0.5-0.3c-0.1-0.1-0.2-0.1-0.3-0.2
	c-0.1,0-0.2-0.1-0.2-0.1c-0.3-0.2-0.6-0.4-0.9-0.7c-0.1,0-0.1-0.1-0.2-0.2c-0.3-0.2-0.5-0.4-0.7-0.7c-0.1-0.1-0.1-0.1-0.2-0.2
	c-0.3-0.3-0.5-0.6-0.8-0.9l-0.1-0.1c-0.2-0.3-0.4-0.6-0.7-0.9c-0.1-0.1-0.1-0.2-0.2-0.3c-0.2-0.4-0.5-0.7-0.7-1.1
	c-0.2-0.3-0.3-0.6-0.4-1c-0.1-0.2-0.1-0.5-0.1-0.7c0-0.1,0-0.1,0-0.2c0-0.2,0-0.5,0-0.7s0-0.3,0-0.5l0,0c0-0.4,0.1-0.7,0.2-1
	c0.2-0.7,0.5-1.5,0.7-2.2l0,0c0.2-0.7,0.5-1.5,0.7-2.2c0.8-2.3,1.5-4.7,2.1-7.1c0-0.1,0.1-0.3,0.1-0.4c0.2-0.8,0.3-1.6,0.4-2.4
	c0-0.1,0-0.2,0-0.3l0,0c0.1-0.5,0.1-1.1,0.1-1.6c0-0.1,0-0.3,0-0.4c0-0.5,0-1.1,0-1.6s0-1,0-1.5l0,0c0-0.7,0.1-1.3,0.1-2
	c0-0.2,0-0.3,0-0.5c0.1-0.6,0.1-1.3,0.2-1.9c0.1-1,0.3-2,0.4-3c0.1-1,0.3-2,0.4-3c0.1-1,0.2-2,0.3-3.1l0,0c0-0.3,0-0.5,0-0.8
	c0-0.2,0-0.4-0.1-0.6c0-0.1,0-0.1,0-0.2c0-0.2-0.1-0.3-0.1-0.5c0-0.1,0-0.1,0-0.2c-0.1-0.2-0.1-0.4-0.2-0.6c-0.3-0.6-0.6-1.2-1-1.8
	c-0.1-0.2-0.2-0.5-0.4-0.7c-1.4-2.5-3.1-4.8-4.9-7c-0.1-0.1-0.2-0.3-0.4-0.4c-0.3-0.2-0.6-0.4-1-0.6C33.4,20,33.2,20,33,19.9
	c-0.3-0.1-0.7-0.3-1-0.4c-0.4-0.2-0.9-0.3-1.3-0.5c-0.2,0.3-0.4,0.6-0.6,0.9c-0.3-0.4-0.5-0.8-0.7-1.2c-0.1-0.1-0.1-0.2-0.2-0.3
	c-0.2-0.3-0.3-0.6-0.4-0.8c-0.1-0.1-0.1-0.2-0.2-0.3c-0.2-0.4-0.4-0.7-0.5-1.1l0,0l0,0c-0.2-0.4-0.3-0.7-0.4-1.1
	c0-0.1-0.1-0.2-0.1-0.3c-0.1-0.2-0.2-0.5-0.2-0.7c0-0.1-0.1-0.2-0.1-0.4c-0.1-0.2-0.1-0.5-0.2-0.7c0-0.1,0-0.2-0.1-0.3
	c0-0.3-0.1-0.5-0.1-0.8c0-0.1,0-0.1,0-0.2c0-0.3,0-0.6,0-0.9c0-0.1,0-0.2,0-0.2c0-0.2,0-0.4,0-0.6c0-0.1,0-0.2,0-0.3
	C27,9.4,27,9.2,27.1,9c0-0.1,0-0.2,0.1-0.3c0.1-0.2,0.1-0.4,0.2-0.6c0-0.1,0-0.1,0.1-0.2c0.1-0.2,0.2-0.5,0.4-0.7L28,7.1
	c0.1-0.2,0.2-0.4,0.4-0.5c0.1-0.1,0.1-0.1,0.2-0.2S28.8,6.1,29,6c0.1-0.1,0.1-0.1,0.2-0.2s0.3-0.3,0.5-0.4c0.1-0.1,0.1-0.1,0.2-0.2
	c0.2-0.2,0.5-0.3,0.8-0.5c-0.1,0.3-0.2,0.7-0.2,0.9C30.1,6,30.1,6.3,30,6.5c0,0.5-0.1,0.9-0.1,1.4l0,0c0,0.1,0,0.3,0,0.4l0,0
	c0,0.3,0,0.6,0,0.8s0,0.3,0,0.4l0,0c0,0.2,0,0.5,0,0.7l0,0c0,0.3,0.1,0.6,0.1,0.9v0.1l0,0c0,0.3,0.1,0.5,0.2,0.7
	c0,0.1,0,0.1,0.1,0.2l0,0c0.1,0.2,0.1,0.4,0.2,0.6c0,0.1,0.1,0.2,0.1,0.2l0,0c0.1,0.1,0.1,0.2,0.2,0.3l0,0c0,0,0,0.1,0.1,0.1
	c0.1,0.2,0.2,0.4,0.4,0.6l0,0c0.1,0.1,0.2,0.2,0.3,0.4l0,0c0.1,0.1,0.2,0.2,0.2,0.3l0,0c0.1,0.1,0.2,0.2,0.3,0.3l0,0
	c0.1,0.1,0.2,0.2,0.3,0.2l0,0l0.1,0.1c0.2,0.1,0.4,0.2,0.6,0.4l0,0c0.1,0.1,0.3,0.1,0.4,0.2l0,0c0.1,0.1,0.2,0.1,0.4,0.2l0,0
	c0.2,0.1,0.3,0.1,0.5,0.2l0,0c0.1,0,0.3,0.1,0.4,0.1l0,0c0.2,0,0.4,0.1,0.6,0.1l0,0c0.1,0,0.3,0.1,0.4,0.1l0,0c0.2,0,0.3,0,0.5,0.1
	c0.6,0.1,1.1,0.1,1.8,0.1l0,0c0.4,0,0.8,0,1.3,0c0.3,0,0.6,0,0.9,0c0.1,0,0.1,0,0.2,0h0.1c0.3,0,0.5,0.1,0.8,0.2c0,0,0.1,0,0.1,0.1
	c0.3,0.1,0.5,0.2,0.8,0.4c0,0,0,0,0.1,0c0.3,0.2,0.5,0.4,0.7,0.6l0,0c0.1,0.1,0.2,0.2,0.2,0.2c0.1,0.1,0.2,0.3,0.3,0.4
	s0.1,0.2,0.2,0.3c0.1,0.2,0.2,0.4,0.3,0.6c0,0.1,0.1,0.2,0.1,0.3c0.1,0.3,0.2,0.6,0.3,0.9c0,0.2,0.1,0.3,0.1,0.5c0,0.1,0,0.2,0,0.3
	c0,0.1,0,0.2,0,0.2c0,0.1,0,0.2,0,0.3c0,0.1,0,0.1,0,0.2s0,0.2,0,0.4l0,0c0,0.7,0.1,1.5,0.1,2.5c2.8-1,5.2-1.9,8.4-3
	c0.4-0.2,0.9-0.3,1.4-0.5c0.4,0.1,0.8,0.2,1.2,0.3l0,0l0,0c0.5,0.1,1,0.2,1.4,0.2l0,0l0,0c0.3,0,0.7,0,1,0c0,0,0,0,0.1,0h0.1
	c0.8,0,1.7-0.1,2.5-0.3c0.1,0,0.1,0,0.2,0l0,0c0.3-0.1,0.7-0.2,1-0.2h0.1c0.1,0,0.2-0.1,0.3-0.1c0.2-0.1,0.4-0.1,0.6-0.2
	c0.1,0,0.2-0.1,0.3-0.1s0.2-0.1,0.2-0.1c0.2-0.1,0.5-0.2,0.7-0.3c0.1,0,0.1-0.1,0.2-0.1c0.1-0.1,0.3-0.1,0.4-0.2
	c0.1,0,0.1-0.1,0.2-0.1s0.2-0.1,0.3-0.1c0.1,0,0.2-0.1,0.3-0.1c0.1-0.1,0.3-0.1,0.4-0.2c0.2-0.1,0.5-0.2,0.7-0.4
	c0.1-0.1,0.3-0.1,0.4-0.2s0.3-0.2,0.4-0.2l0,0l0,0c0.2-0.1,0.3-0.2,0.5-0.3c0.1,0,0.2-0.1,0.2-0.1c0.4-0.2,0.7-0.4,1.1-0.7
	c0.1-0.1,0.2-0.1,0.3-0.2c0.3-0.2,0.5-0.3,0.8-0.5c0.1-0.1,0.3-0.2,0.4-0.3c0.2-0.2,0.5-0.3,0.7-0.5c0.1-0.1,0.3-0.2,0.4-0.3
	c0.1,0,0.1-0.1,0.2-0.1l0,0l0,0c0.2-0.1,0.4-0.3,0.7-0.4c0.1-0.1,0.2-0.1,0.3-0.2c0.4-0.2,0.7-0.5,1.1-0.7c-0.3,0.4-0.5,0.9-0.8,1.3
	c-0.2,0.3-0.3,0.5-0.5,0.8c-0.3,0.4-0.6,0.8-1,1.2c-0.3,0.4-0.7,0.7-1,1c-0.1,0.1-0.1,0.1-0.2,0.2s-0.3,0.2-0.4,0.3
	c-0.6,0.4-1.2,0.7-1.8,1s-1.2,0.6-1.9,0.9c-0.6,0.3-1.2,0.5-1.9,0.8l0,0l0,0c-0.6,0.3-1.3,0.6-1.9,0.9c-0.3,0.1-0.5,0.3-0.8,0.4l0,0
	c-1,0.5-2.1,1-2.8,1.6c-0.2,0.1-0.3,0.3-0.4,0.4s-0.2,0.3-0.3,0.5s-0.2,0.4-0.3,0.6c-0.1,0.3-0.2,0.5-0.4,0.8
	c-0.2,0.4-0.4,0.8-0.6,1.1c-0.7,1.4-1.4,2.8-2,4.2V33l0,0c-0.3,0.6-0.5,1.2-0.7,1.9V35v0.1c-0.1,0.2-0.1,0.3-0.1,0.5
	s-0.1,0.3-0.1,0.5s-0.1,0.3-0.1,0.5s-0.1,0.3-0.1,0.5S54,37.4,54,37.6s-0.1,0.4-0.1,0.5c0,0.2,0,0.3,0,0.5s0,0.4,0,0.6
	c0,0.1,0,0.3,0,0.4c0,0.2,0,0.4,0,0.6c0,0.1,0,0.3,0,0.4c0,0.2,0,0.5,0.1,0.7c0,0.1,0,0.2,0,0.4c0.1,0.3,0.1,0.7,0.2,1.1
	c0.1,0.4,0.2,0.8,0.2,1.2s0.1,0.8,0.1,1.2l0,0c0,0.3,0,0.7-0.1,1c0,0.1,0,0.2,0,0.3c0,0.2-0.1,0.5-0.1,0.7c0,0.1,0,0.2-0.1,0.3
	c-0.2,0.6-0.4,1.3-0.7,1.9c0,0.1-0.1,0.2-0.1,0.3c-0.1,0.2-0.2,0.4-0.4,0.7c-0.1,0.1-0.1,0.2-0.2,0.3c-0.2,0.3-0.4,0.6-0.6,0.9
	c-0.2,0.3-0.4,0.5-0.6,0.8c0,0.1-0.1,0.1-0.1,0.2c-0.5,0.9-0.9,1.8-1.1,2.7l0,0c0,0.2-0.1,0.4-0.1,0.5c-0.1,0.7-0.1,1.4,0,2.2
	c0,0.1,0,0.1,0,0.2c0,0.3,0.1,0.6,0.2,0.9c0.1,0.2,0.1,0.4,0.2,0.6l0,0c0.2,0.6,0.5,1.3,0.8,2c0.1,0.2,0.2,0.5,0.3,0.7
	c0.1,0.3,0.2,0.6,0.4,1l0,0c0.1,0.4,0.3,0.9,0.5,1.3h-0.1c-0.6-0.1-1.1-0.3-1.6-0.4l0,0c-0.2,0-0.3-0.1-0.5-0.1l0,0
	c-0.3-0.1-0.7-0.2-1-0.2l0,0c-0.2,0-0.4-0.1-0.5-0.1l0,0c-0.3-0.1-0.6-0.1-0.9-0.2l0,0c-0.2,0-0.3-0.1-0.5-0.1l0,0
	c-0.2,0-0.4-0.1-0.6-0.1c-0.2,0-0.4-0.1-0.6-0.1l0,0c-0.2,0-0.3-0.1-0.5-0.1s-0.4-0.1-0.6-0.1l0,0c-0.3,0-0.7-0.1-1-0.1l0,0
	c-0.2,0-0.4,0-0.6,0l0,0c-0.1,0-0.2,0-0.3,0l0,0c-0.1,0-0.2,0-0.3,0l0,0c-0.2,0-0.4,0-0.6,0l0,0c-0.1,0-0.2,0-0.3,0l0,0
	c-0.2,0-0.3,0-0.5,0.1l0,0c-0.1,0-0.1,0-0.2,0c-0.2,0-0.4,0.1-0.6,0.2l0,0c-0.2,0.1-0.5,0.2-0.7,0.3l0,0c-0.1,0-0.2,0.1-0.3,0.1l0,0
	c-0.1,0.1-0.2,0.1-0.4,0.2l0,0c-0.1,0.1-0.2,0.1-0.2,0.2l0,0c-0.1,0.1-0.2,0.2-0.4,0.3l0,0c-0.1,0.1-0.1,0.1-0.2,0.2l0,0
	c-0.2,0.2-0.3,0.3-0.5,0.5c0,0,0,0-0.1,0.1l0,0c-0.2,0.2-0.4,0.4-0.6,0.6l0,0l0,0c0.2,0,0.3-0.1,0.4-0.1c0.1,0,0.2,0,0.3-0.1
	c0.2,0,0.3-0.1,0.5-0.1c0.1,0,0.2,0,0.2,0H39c0.1,0,0.3,0,0.3-0.1c-0.1,0.3-0.2,0.6-0.3,0.9c0,0.1-0.1,0.2-0.1,0.3
	c-0.1,0.3-0.2,0.5-0.3,0.8c-0.3,0.7-0.6,1.4-0.7,2l0,0l0,0c0,0.2-0.1,0.4,0,0.6c0,0.2,0,0.4,0.1,0.6c0.2,0.7,1.5,1,2.9,1.4
	c0.2,0.1,0.4,0.1,0.7,0.2c0.2,0,0.3,0.1,0.5,0.1h0.1c0.1,0,0.3,0.1,0.4,0.2l0,0l0,0c0.6,0.7,1.2,1.4,1.7,1.9c0,0,0,0,0.1,0.1l0,0
	c0.2,0.2,0.4,0.4,0.6,0.6l0.1,0.1l0,0c0.2,0.2,0.5,0.4,0.7,0.6l0,0c0.1,0,0.1,0.1,0.2,0.1l0,0c0.4,0.3,0.8,0.5,1.2,0.7
	c0.1,0,0.1,0.1,0.2,0.1l0,0c0.2,0.1,0.5,0.1,0.7,0.2l0,0c0,0,0,0,0.1,0l0,0c0.2,0,0.4,0.1,0.6,0.1l0,0c0.1,0,0.1,0,0.2,0l0,0
	c0.2,0,0.4,0,0.6-0.1l0,0c0.1,0,0.1,0,0.2,0l0,0c0.3-0.1,0.6-0.1,0.9-0.2l0,0c0.1,0,0.1,0,0.2-0.1l0,0c0.2-0.1,0.5-0.2,0.8-0.3l0,0
	c0.1,0,0.2-0.1,0.3-0.1l0,0c0.3-0.2,0.7-0.3,1-0.5c0.3-0.1,0.5-0.3,0.8-0.5c0.1,0,0.1-0.1,0.2-0.1c0.5-0.4,1-0.8,1.4-1.3
	c0.1-0.1,0.1-0.1,0.2-0.2c0.2-0.2,0.4-0.5,0.6-0.7l0,0l0,0c0.3-0.4,0.6-0.8,0.8-1.1c0.1-0.1,0.1-0.2,0.2-0.3c0,0,0-0.1,0.1-0.1
	c0-0.1,0.1-0.2,0.1-0.3c0-0.1,0-0.1,0-0.2s0-0.2,0-0.3c0-0.1,0-0.1,0-0.2l0,0c0-0.1,0-0.3,0-0.4s0-0.1,0-0.2s0-0.3,0-0.4v-0.1
	c0-0.1,0-0.2,0-0.3V69c0-0.1-0.1-0.2-0.1-0.3c0,0,0,0,0-0.1s-0.1-0.2-0.2-0.2c-0.2-0.2-0.5-0.4-0.7-0.6c-0.1-0.1-0.1-0.1-0.2-0.2
	c-0.1-0.1-0.3-0.3-0.4-0.4c-0.1-0.1-0.1-0.2-0.2-0.3c-0.1-0.1-0.2-0.3-0.3-0.4s-0.1-0.2-0.2-0.3c-0.1-0.1-0.2-0.3-0.2-0.4
	s-0.1-0.2-0.1-0.3c-0.1-0.1-0.1-0.3-0.2-0.4c0-0.1-0.1-0.2-0.1-0.3c-0.1-0.2-0.1-0.3-0.2-0.5c0-0.1-0.1-0.2-0.1-0.2
	c-0.1-0.5-0.2-1-0.3-1.5s-0.1-1.1-0.1-1.6c0-0.3,0-0.5,0-0.8c0-0.7,0-1.3,0.1-2c0-0.7,0.1-1.4,0.1-2c0-0.7,0.1-1.3,0.2-1.9
	c0-0.3,0.1-0.6,0.1-0.8c0.1-0.5,0.2-1,0.4-1.4c0.3-0.9,0.8-1.6,1.3-2.2c0.1-0.1,0.2-0.2,0.3-0.3c0.2-0.2,0.5-0.4,0.8-0.5l0,0
	c0.3-0.2,0.6-0.3,0.9-0.4c0.1,0,0.2-0.1,0.3-0.1c0.3-0.1,0.6-0.2,1-0.2c0.1-0.4,0.2-0.8,0.3-1.2l0,0c0.5-1.8,0.9-3.4,1.3-5.1l0,0
	c1.6,0.5,2.7,0.9,3.8,1.2c0.3,0.1,0.6,0.2,0.9,0.2l0,0c0.1,0,0.2,0,0.3,0.1c0.2,0,0.4,0.1,0.6,0.1l0,0c0.1,0,0.2,0,0.4,0l0,0
	c0.2,0,0.4,0,0.6,0l0,0c0.1,0,0.2,0,0.4,0l0,0c0.1,0,0.3,0,0.4,0l0,0c0.5,0,1,0,1.4-0.1l0,0l0,0c0.5-0.1,0.9-0.2,1.4-0.3l0,0
	c0.1,0,0.2,0,0.3-0.1c0.5-0.1,0.9-0.3,1.3-0.4l0,0h0.1c0.4-0.2,0.8-0.4,1.2-0.6l0,0c0.1,0,0.1-0.1,0.2-0.1c0.5-0.3,1-0.6,1.5-0.9
	c0,0,0,0,0.1,0l0,0c0.3-0.2,0.7-0.5,1-0.8l0,0c0,0,0,0,0.1-0.1c0.4-0.4,0.8-0.7,1.1-1.2c0-0.1,0.1-0.1,0.1-0.2l0,0
	c0.3-0.4,0.6-0.7,0.9-1.1c0.2-0.3,0.4-0.6,0.5-1c0.1-0.1,0.1-0.2,0.2-0.3c0.1-0.3,0.2-0.5,0.3-0.8c0.1-0.2,0.1-0.4,0.1-0.6
	c0-0.2,0-0.3,0-0.5s0-0.4,0-0.6c0-0.1,0-0.1,0-0.2c0-0.1-0.1-0.2-0.1-0.4c0-0.1,0-0.1-0.1-0.2c0-0.1-0.1-0.2-0.2-0.3
	c0-0.1-0.1-0.1-0.1-0.2c-0.2-0.4-0.5-0.7-0.9-1.1l0,0l0,0c-0.2-0.1-0.3-0.3-0.5-0.4l0,0l0,0c-0.2-0.1-0.4-0.2-0.6-0.4l0,0
	c-0.2-0.1-0.4-0.2-0.7-0.3l0,0l0,0c-0.4-0.2-0.7-0.3-1.1-0.4l0,0c-0.1,0-0.2-0.1-0.2-0.1l0,0c-0.4-0.1-0.7-0.3-1.1-0.4l0,0h-0.1l0,0
	c-0.2-0.1-0.4-0.1-0.6-0.2c-0.4-0.1-0.8-0.2-1.2-0.3c-0.2,0-0.3-0.1-0.5-0.1l0,0c-0.1,0-0.1,0-0.2,0l0,0c-0.1,0-0.1,0-0.2,0
	c-0.8-0.1-1.7-0.1-2.5,0c-0.3,0-0.5,0.1-0.8,0.1l0,0c-0.1,0-0.2,0-0.3,0.1l0,0c-0.4,0.1-0.8,0.2-1.2,0.3l0,0l0,0
	c-0.6,0.2-1.3,0.4-1.9,0.5c-0.4,0.1-0.9,0.2-1.3,0.2c-0.1,0-0.2,0-0.3,0.1c-0.4,0.1-0.8,0.1-1.3,0.2c-0.4,0.1-0.8,0.1-1.2,0.2
	c-0.1,0-0.3,0-0.4,0.1c-0.5,0.1-0.9,0.1-1.4,0.2c-0.2-0.5-0.4-1-0.6-1.5c0,0,0.1,0,0.1-0.1c0.7-0.4,1.3-0.7,2-1.1s1.5-0.9,2.2-1.3
	c0.2-0.1,0.4-0.3,0.7-0.4c1-0.6,2-1.1,3.1-1.5c0.9-0.3,1.7-0.7,2.5-1l0,0h0.1h0.1c0.1,0,0.1-0.1,0.2-0.1c0.3-0.2,0.7-0.3,1-0.5h0.1
	l0,0c0.2-0.1,0.4-0.2,0.6-0.3c0,0,0.1,0,0.1-0.1l0,0c0.5-0.3,1-0.6,1.5-1l0,0l0,0c0.4-0.3,0.7-0.5,1-0.8l0,0
	c0.2-0.2,0.3-0.4,0.5-0.5c0,0,0,0,0.1-0.1l0,0l0.1-0.1c0.1-0.2,0.3-0.4,0.4-0.5l0,0c0.6-0.8,1.1-1.8,1.4-2.9l0,0l0,0
	c0-0.1,0.1-0.3,0.1-0.5c0.1-0.4,0.2-0.9,0.2-1.3c0-0.5-0.1-0.9-0.2-1.4s-0.3-1-0.4-1.4c-0.3,0.1-0.6,0.2-1,0.3s-0.7,0.2-1.1,0.4
	c-0.2,0.1-0.4,0.2-0.6,0.3c-0.4,0.3-0.9,0.7-1.3,1c0,0-0.1,0-0.1,0.1c-0.1,0.1-0.2,0.2-0.4,0.3c-0.4,0.3-0.7,0.6-1.1,0.9
	c-0.9,0.7-1.8,1.5-2.7,2.1c-0.3,0.2-0.6,0.4-0.9,0.5c-0.1,0.1-0.2,0.1-0.3,0.2c-0.2,0.1-0.4,0.2-0.6,0.3c-0.1,0.1-0.2,0.1-0.3,0.2
	c-0.2,0.1-0.3,0.2-0.5,0.2c-0.1,0-0.2,0.1-0.3,0.1c-0.2,0.1-0.3,0.1-0.5,0.2c-0.1,0-0.2,0.1-0.3,0.1c0,0,0,0-0.1,0l0,0
	c-0.4,0.1-0.7,0.2-1.1,0.3l0,0c-0.4,0.1-0.7,0.1-1,0.1l0,0c-0.3,0-0.6,0-0.9-0.1c-0.1,0-0.1,0-0.2,0c-0.3,0-0.6-0.1-0.8-0.2
	c-0.1,0-0.3-0.1-0.4-0.1c-0.1,0-0.2-0.1-0.3-0.1c-0.1-0.1-0.3-0.1-0.4-0.2c-0.1-0.1-0.2-0.1-0.3-0.2c-0.2-0.1-0.3-0.2-0.5-0.3
	c-0.1-0.1-0.2-0.1-0.3-0.2c-0.2-0.1-0.3-0.2-0.5-0.3c-0.1-0.1-0.2-0.1-0.3-0.2c-0.2-0.1-0.4-0.3-0.6-0.4c-0.1-0.1-0.2-0.1-0.3-0.2
	c-0.3-0.2-0.6-0.5-0.9-0.7l0,0l0,0c-0.4-0.3-0.7-0.6-1.1-0.8l0,0c-0.1-0.1-0.2-0.1-0.3-0.2l0,0c-0.7-0.5-1.5-0.9-2.2-1.3l0,0
	c-0.1,0-0.2-0.1-0.3-0.1l0,0c-0.3-0.1-0.6-0.3-0.9-0.4c-0.1,0-0.2-0.1-0.3-0.1l0,0c-0.8-0.3-1.6-0.5-2.4-0.7l0,0
	c-0.1,0-0.2,0-0.3-0.1l0,0c-0.4-0.1-0.8-0.1-1.2-0.2c-0.1,0-0.1,0-0.2,0l0,0c-0.4,0-0.7,0-1.1,0l0,0c-0.1,0-0.3,0-0.4,0l0,0
	c-0.2,0-0.4,0-0.6,0l0,0c-0.1,0-0.3,0-0.4,0l0,0c-0.2,0-0.4,0-0.7,0.1c-0.1,0-0.3,0-0.4,0l0,0c-0.2,0-0.5,0.1-0.7,0.1l0,0
	c-0.1,0-0.2,0-0.4,0.1l0,0c-0.3,0.1-0.7,0.1-1.1,0.2l0,0l0,0c-0.5,0.1-0.9,0.2-1.4,0.3c-0.1,0-0.2,0-0.3,0C38,14,37.6,14,37.2,14
	l0,0c-0.3,0-0.5,0-0.7,0c-0.1,0-0.1,0-0.2,0c-0.2,0-0.3,0-0.5-0.1c-0.1,0-0.1,0-0.2-0.1c-0.1,0-0.1,0-0.2-0.1c-0.1,0-0.2,0-0.2-0.1
	c-0.1,0-0.1,0-0.2-0.1l0,0c-0.1-0.1-0.2-0.1-0.3-0.2c0,0-0.1,0-0.1-0.1c0,0-0.1,0-0.1-0.1c-0.1-0.1-0.3-0.2-0.4-0.3L34,12.7
	c-0.1-0.1-0.2-0.2-0.3-0.3c0-0.1-0.1-0.1-0.1-0.2c-0.1-0.1-0.2-0.2-0.2-0.3s-0.1-0.1-0.1-0.2c-0.1-0.1-0.1-0.3-0.2-0.4
	c0-0.1,0-0.1-0.1-0.2c0-0.1-0.1-0.3-0.1-0.4c0-0.1-0.1-0.2-0.1-0.3v-0.1c0-0.2-0.1-0.4-0.1-0.6c0-0.1,0-0.2,0-0.3c0-0.2,0-0.4,0-0.6
	c0-0.1,0-0.2,0-0.3c0-0.2,0-0.4,0-0.6c0-0.1,0-0.2,0-0.3c0-0.3,0-0.6,0.1-1l0,0c0.1-1,0.3-2,0.4-3.1c0.1-0.5,0.2-1,0.3-1.6
	s0.2-1.1,0.3-1.6c-0.5,0.2-0.9,0.4-1.4,0.6C32.2,1,32,1.1,31.8,1.2c-0.6-0.2-0.8-0.1-0.9,0C30.4,1.4,30,1.7,29.6,2l0,0l0,0
	c-0.4,0.3-0.8,0.5-1.1,0.8l0,0c-0.3,0.3-0.7,0.5-1,0.8c-0.1,0.1-0.1,0.1-0.2,0.2c-0.2,0.2-0.5,0.5-0.7,0.7c-0.3,0.3-0.5,0.6-0.7,1
	C25.3,6.2,25,7,24.7,7.8c0,0.1-0.1,0.3-0.1,0.4c-0.1,0.3-0.1,0.6-0.2,0.9c0,0.2,0,0.3,0,0.5c0,0.3,0,0.5,0,0.8c0,0.2,0,0.4,0,0.6
	c0,0.3,0,0.5,0.1,0.8c0,0.2,0.1,0.4,0.1,0.6c0.1,0.3,0.1,0.6,0.2,0.9c0.1,0.2,0.1,0.4,0.2,0.6c0.1,0.3,0.2,0.6,0.4,0.9
	c0.1,0.2,0.2,0.4,0.2,0.6c0.2,0.3,0.3,0.7,0.5,1c0.1,0.2,0.2,0.3,0.3,0.5c0.3,0.5,0.6,1,1,1.6c0.3,0.4,0.4,0.9,0.6,1.5
	c0,0.1,0.1,0.2,0.1,0.3c0,0,0,0,0,0.1c0,0.2,0.1,0.4,0.2,0.5l0,0c-0.1,0-0.2,0-0.3,0l0,0c-0.2,0-0.4,0-0.6,0l0,0c-0.2,0-0.4,0-0.6,0
	l0,0c-0.1,0-0.1,0-0.2,0l0,0h-0.1c-0.1,0-0.1,0-0.2,0h-0.1h-0.1H26h-0.1c-0.1,0-0.2-0.1-0.3-0.1c-0.5-0.3-1-0.7-1.5-1l0,0
	c-0.6-0.5-1.3-0.9-1.9-1.4l0,0l0,0c-0.4-0.3-0.8-0.6-1.2-0.9c-0.5-0.3-1-0.6-1.5-0.9c-1-0.5-2-1-3.1-1.5l0,0l0,0
	c-0.8-0.4-1.6-0.7-2.4-1c0,0-0.1,0-0.1-0.1c-0.8-0.3-1.7-0.6-2.5-0.9c-0.1,0-0.2,0-0.3,0l0,0c-0.1,0-0.3,0-0.5,0.1l0,0
	c-0.1,0-0.1,0-0.2,0.1l0,0c-0.1,0-0.1,0-0.2,0.1l0,0c0,0-0.1,0-0.1,0.1c-0.1,0.1-0.2,0.1-0.3,0.2c-0.1,0-0.1,0.1-0.2,0.1l0,0
	c-0.1,0.1-0.2,0.2-0.3,0.3l0,0l-0.1,0.1l0,0C8.9,14,8.9,14,8.8,14.1l0,0c-0.1,0.1-0.2,0.2-0.2,0.4c-0.1,0.2-0.1,0.5-0.1,0.7
	c0,0.1,0,0.3,0,0.4c0,0.1,0,0.2,0,0.4l0,0c0,0.5,0.1,1,0.2,1.5c0,0.1,0,0.1,0,0.2l0,0c0.1,0.6,0.3,1.2,0.5,1.8v0.1l0,0l0,0
	c0.2,0.5,0.4,1,0.6,1.5l0,0l0,0c0.2,0.6,0.5,1.1,0.8,1.7l0,0l0,0c0.3,0.5,0.6,1,0.9,1.4l0,0l0,0c0.3,0.4,0.6,0.8,0.8,1.1l0,0l0,0
	c0.1,0.2,0.3,0.3,0.4,0.5c0.2,0.2,0.3,0.4,0.5,0.5c0.4,0.4,0.8,0.7,1.2,0.9l0,0l0,0c0.6,0.3,1.1,0.6,1.7,0.9
	c0.5,0.3,1.1,0.5,1.6,0.8l0,0h0.1c0.7,0.3,1.4,0.7,2.1,1c0.4,0.2,0.8,0.4,1.3,0.6c-0.1,0.6-0.3,1.1-0.4,1.7
	c-0.3,1.1-0.5,2.1-0.8,3.1l0,0c-0.3,1.3-0.7,2.6-1,3.9c-0.1,0-0.2,0-0.3,0c0-1.1,0-2.1,0-3.3C18.6,36,18.6,36,18.5,36z" class="color c1"/>
</svg>