<svg version="1.1" id="图层_1" x="0px" y="0px" width="188.982px" height="171.844px" viewBox="0 0 188.982 171.844" enable-background="new 0 0 188.982 171.844" xml:space="preserve" xmlns="http://www.w3.org/2000/svg" xmlns:xlink="http://www.w3.org/1999/xlink" xmlns:xml="http://www.w3.org/XML/1998/namespace">
  <path fill="#E8634D" d="M187.284,162.042c-5.196-0.916-11.651-4.564-13.162-16.667c-0.699-5.593-0.494-12.267-0.251-19.993
	c0.841-27.095,1.987-64.197-37.036-87.224c-0.201-0.12-21.063-12.143-46.471-12.143c-7.243,0-14.237,0.976-20.801,2.907
	c-8.552,2.516-15.929,3.794-21.931,3.794c-18.379,0-19.097-11.66-19.116-12.156l-0.11-2.478l2.283-0.959
	c0.451-0.197,9.526-4.253,11.856-14.727c0.002-0.05,0.002-0.083,0.003-0.131c0.347-3.352-3.008-1.996-3.008-1.996l0.179-0.1
	c-5.148,1.87-11.916,5.46-16.372,12.2l-1.12,1.693l-2.03-0.102c-0.029,0-0.213-0.006-0.51-0.006c-1.995,0-11.995,0.343-13.601,7.135
	l-0.377,1.604L4.238,23.44c-1.186,0.613-2.403,1.375-3.447,2.13c-0.37,0.337-2,2.007,0.902,2.772
	c2.376,0.438,6.133,0.82,12.07,0.846c0.662,0.112,2.421,0.273,3.556,2.544c0.959,2.732,5.95,17.901,15.344,23.81h0.063
	c0.639,0,1.284,1.518,1.937,2.043l0.084,0.327c1.121,1.916,0.893,2.453-2.922,9.208c-2.067,3.661-6.905,12.298-7.282,14.21
	c-0.443,3.088,0.317,5.837,2.262,8.081c2.372,2.737,6.034,4.221,8.531,4.306c-0.393-0.544-1.026-1.284-2.058-2.251
	c-2.334-2.181-3.467-4.954-3.273-8.032c0.416-6.745,7.379-13.563,11.441-16.987c0.846-0.385,4.841-2.084,9.871-2.527
	c0.538-0.008,1.08-0.045,1.625-0.089c4.043-0.112,8.575,0.704,12.61,3.652c3.715,3.369,10.011,8.141,17.092,9.619
	c0.229-7.569,1.852-15.792,6.56-22.393l-0.018,0.042c0,0,2.676-4.134,5.41-1.212c1.86,1.997,1.426,3.691,0.955,4.576
	c-5.078,6.543-6.18,16.008-5.966,23.95c0.058,0.267,0.107,0.543,0.144,0.837c0.289,7.199,2.853,35.459,24.836,52.043
	c5.844,4.404,8.938,9.357,9.198,14.709c0.452,9.353-7.837,17.058-13.422,22.19c6.621-1.625,19.71-6.321,22.659-14.261
	c1.587-4.266,0.069-9.388-4.509-15.219c-22.535-28.705-8.027-54.562-7.403-55.648l0.306-0.524l0.46-0.396
	c6.051-5.19,14.39-14.592,14.8-19.887c0.433-1.17,2.822-6.405,9.085-0.028c0.646,0.658,1.198,1.16,1.665,1.542
	c7.512,8.823,20.753,30.05,19.983,69.549c-0.211,10.756,2.104,18.923,6.699,23.608c3.652,3.727,8.049,4.51,11.093,4.51
	c0.896,0,1.791-0.075,2.687-0.197C188.647,164.537,190.195,163.521,187.284,162.042z" class="color c1"/>
</svg>