<svg version="1.1" id="图层_1" x="0px" y="0px" width="134px" height="134px" viewBox="0 0 134 134" enable-background="new 0 0 134 134" xml:space="preserve" xmlns="http://www.w3.org/2000/svg" xmlns:xlink="http://www.w3.org/1999/xlink" xmlns:xml="http://www.w3.org/XML/1998/namespace">
  <path fill="#FFFFFF" d="M93,94.297c-1-7.078-6.021-9.535-6.021-9.535c-5.412-1.953-8.017-2.194-11.218-6.746
	c-1.996-2.846-1.672-7.097-1.672-7.097s3.449-1.004,4.479-1.616c2.748-1.637,3.405-3.839,5.056-6.81
	c2.141-3.851,9.978-6.225,9.978-6.225L92.68,43.671c0,0,16.271,10.877,19.265,14.945c5.107,6.939,8.482,19.18,8.482,19.18
	s1.295,5.527,9.561,12.243c1.008,0.817,2.013,1.521,4.013,2.193V41H93V0H41v41H0v49.42c8-6.613,15.415-11.193,18.883-20.096
	c3.185-8.166,7.304-16.897,9.707-21.646c2.059-4.034,3.578,0.228,3.578,0.228l4.782,10.203l10.149,2.872l4.44,5.138l14.057,2.126
	c0,0,1.698,16.651-12.853,16.446c-0.488-0.008-9.552,0.592-9.552,0.592L41,93.703V134h52V94.297z" class="color c1"/>
</svg>