<svg version="1.1" id="图层_1" x="0px" y="0px" width="155.993px" height="144.73px" viewBox="0 0 155.993 144.73" enable-background="new 0 0 155.993 144.73" xml:space="preserve" xmlns="http://www.w3.org/2000/svg" xmlns:xlink="http://www.w3.org/1999/xlink" xmlns:xml="http://www.w3.org/XML/1998/namespace">
  <path fill="#FFFFFF" d="M155.918,100.759l-0.076-0.047c-0.029-0.519-0.051-1.062-0.133-1.594c-0.426-2.179-1.771-4.011-3.219-5.377
	c-1.472-1.399-3.107-2.455-4.787-3.384c-1.675-0.943-3.41-1.719-5.136-2.438c-1.735-0.699-3.465-1.346-5.172-1.918
	c-0.849-0.297-1.694-0.572-2.533-0.836c-0.432-0.133-0.809-0.27-1.18-0.404c-0.092-0.031-0.183-0.062-0.273-0.093
	c1.069-0.5,2.1-0.894,3.087-1.17c1.447-0.445,3.062-0.896,4.846-1.34c1.949-0.334,3.31-0.607,4.093-0.834
	c2.674-0.5,4.012-1.002,4.012-1.507c0.05-0.274-0.28-0.579-1.007-0.916c-0.723-0.227-1.727-0.44-3.006-0.666
	c-3.449-0.391-6.875-0.028-10.271,1.084c-2.004,0.558-3.789,1.451-5.346,2.679c-0.325,0.269-0.642,0.548-0.92,0.802
	c-0.155-0.076-0.308-0.158-0.466-0.228c-1.228-0.699-2.394-1.4-3.351-2.193c-1.008-0.754-1.789-1.598-2.494-2.371
	c-0.647-0.802-1.217-1.554-1.586-2.232c-0.373-0.676-0.662-1.24-0.807-1.643c-0.162-0.398-0.225-0.627-0.225-0.627
	s-0.068,0.226-0.102,0.671c-0.037,0.443-0.078,1.109,0.032,1.949c0.095,0.846,0.322,1.865,0.742,3.004
	c0.459,1.105,1.065,2.366,1.979,3.557c0.424,0.636,0.967,1.187,1.506,1.799c0.551,0.601,1.195,1.123,1.834,1.71
	c0.679,0.512,1.379,1.059,2.131,1.543c0.758,0.457,1.533,0.968,2.359,1.362c0.807,0.399,1.706,0.847,2.504,1.176
	c0.805,0.348,1.623,0.697,2.448,1.027c1.632,0.668,3.29,1.345,4.946,2.023c1.646,0.65,3.24,1.355,4.744,2.063
	c1.49,0.728,2.927,1.463,4.046,2.295c1.131,0.831,1.963,1.687,2.35,2.562c0.084,0.225,0.177,0.454,0.271,0.686l0.073,0.019
	l-0.12,0.125l0.024,0.28c0.021,0.188,0.039,0.373,0.058,0.558c0.039,0.364,0.076,0.722,0.115,1.076
	c-0.007,0.278-0.015,0.559-0.003,0.838c0.052,1.131-0.202,2.237-0.469,3.196c-0.181,0.472-0.358,0.918-0.539,1.345
	c-0.211,0.412-0.396,0.802-0.588,1.149c-0.408,0.681-0.701,1.26-0.924,1.638c-0.207,0.389-0.316,0.596-0.316,0.596
	s0.197-0.129,0.566-0.369c0.358-0.249,0.901-0.596,1.555-1.104c0.324-0.254,0.675-0.565,1.069-0.899
	c0.379-0.353,0.744-0.789,1.154-1.256c0.721-1.017,1.459-2.244,1.851-3.832c0.108-0.396,0.204-0.806,0.302-1.228
	c0.049-0.357,0.104-0.721,0.154-1.092c0.023-0.184,0.057-0.367,0.08-0.555l0.052-0.281l0.054-0.141l0.086-0.07v-0.02
	C155.995,101.013,155.918,100.741,155.918,100.759z M151.995,100.864l-0.115,0.056c0.045-0.059,0.115-0.157,0.115-0.076V100.864z
	 M127.06,36.552c1.166,1.841,2.172,3.398,3.004,4.685c1.616,2.227,3.342,4.283,5.181,6.182c0.895,0.946,3.287,3.314,7.184,7.101
	c2.783,2.896,4.955,5.733,6.516,8.518c1.614,3.011,2.557,5.845,2.844,8.521c0.168,2.455-0.117,4.481-0.84,6.099
	c-0.613,1.338-1.109,1.918-1.5,1.752c-0.115-0.056-0.168-0.777-0.168-2.168c0-1.843-0.225-3.539-0.666-5.097
	c-0.504-2.175-1.563-4.54-3.178-7.101c-1.561-2.395-3.615-4.869-6.178-7.434c-3.066-3.008-5.434-5.514-7.105-7.519
	c-2.063-2.512-3.645-4.924-4.762-7.266c-0.998-2.225-1.641-4.064-1.922-5.515c-0.219-1.394-0.219-2.142,0-2.259
	C125.75,34.943,126.28,35.446,127.06,36.552z M48.541,91.273c-0.496,2.784-0.694,5.538-0.585,8.271
	c0.057,2.284,0.249,4.621,0.585,7.016c0.113,0.56,0.447,2.315,1.008,5.267c0.61,3.059,0.8,4.616,0.585,4.676
	c-0.169,0.056-0.447-0.285-0.838-1.008c-0.393-0.777-0.863-1.834-1.424-3.17c-1.558-4.117-2.585-8.3-3.091-12.529
	c-0.274-3.286-0.243-6.286,0.085-9.019c0.332-2.006,0.697-3.705,1.086-5.098c0.62-1.78,1.334-3.483,2.174-5.1
	c0.949-1.668,2.008-3.283,3.172-4.841c1.229-1.5,2.618-2.92,4.183-4.262c1.554-1.277,3.28-2.475,5.172-3.591
	c2.175-1.28,4.015-2.225,5.516-2.838c6.349-2.674,12.781-4.486,19.294-5.427c0.283-0.619,0.56-1.18,0.841-1.678
	c1.442-3.45,2.358-6.146,2.747-8.099c0.056-0.28,0.195-1.063,0.423-2.339c0.108-1.397,0.161-2.23,0.161-2.51l0.087-5.428
	c-0.115-4.289-0.691-8.213-1.75-11.778c-1.343-4.285-3.321-8.018-5.935-11.189c-2.896-3.397-6.514-6.156-10.863-8.275l-6.593-2.333
	c-0.722-0.279-1.867-0.56-3.428-0.837c-0.721-0.109-1.837-0.307-3.342-0.59c-4.728-0.606-8.988-0.416-12.777,0.59
	c-1.505,0.39-3.37,1.082-5.597,2.089c-0.169,0.061-1.002,0.5-2.51,1.334c-0.722,0.446-1.501,0.978-2.346,1.591
	c-1.003,0.724-2.447,1.841-4.341,3.343c-1.84,1.5-3.204,2.594-4.092,3.259l-1.092,0.751c-0.331,0.279-0.666,0.501-1.001,0.666
	l-2.255,1.256l-4.008,1.253l0.416-0.087c1.947-0.337,4.063-0.942,6.351-1.838c3.621-1.393,6.035-2.254,7.265-2.591
	c2.448-0.669,5.065-1.058,7.853-1.171c2.896-0.164,5.376-0.055,7.435,0.339c2.724,0.44,4.897,1.036,6.508,1.752l4.019,2.169
	c0.668,0.504,1.054,0.781,1.164,0.837c2.4,1.949,4.155,4.154,5.268,6.599c0.108,0.226,0.271,0.643,0.5,1.257l0.251,0.916
	c0.108,0.509,0.08,0.811-0.085,0.924c-0.107,0-0.334-0.172-0.666-0.504l-0.669-0.669c-0.281-0.444-0.533-0.778-0.758-0.999
	c-1.605-1.952-3.475-3.62-5.593-5.017l-2.255-1.163l-2.503-0.843c-1.565-0.557-3.457-0.974-5.684-1.248
	c-1.784-0.226-3.979-0.254-6.6-0.09c-2.559,0.229-4.899,0.617-7.017,1.173c-0.777,0.227-3.087,1.03-6.932,2.421
	c-2.561,0.896-4.954,1.48-7.182,1.755l-3.505,0.254l-3.425-0.254c-1.339-0.276-2.706-0.64-4.098-1.084
	c0.282,0.106,0.504,0.225,0.67,0.329c1.392,0.783,2.647,1.313,3.76,1.587c1.501,0.396,3.17,0.479,5.011,0.254
	c1.504-0.166,3.399-0.554,5.68-1.166l1.589-0.499c0.783-0.176,1.364-0.28,1.749-0.338l3.682-0.665
	c2.724-0.173,5.37-0.025,7.932,0.414c3.119,0.67,5.821,1.813,8.102,3.428c2.788,1.836,4.874,4.254,6.27,7.266l1.25,3.674
	c0.051,0.106,0.165,0.529,0.332,1.252c0.278,1.839,0.278,3.617,0,5.349c-0.445,3.223-1.92,6.454-4.43,9.682
	c-1.667,2.124-4.168,4.625-7.513,7.521c-4.625,3.955-7.24,6.239-7.849,6.848c-2.735,2.678-4.769,5.35-6.1,8.018
	c-1.502,2.957-2.566,6.154-3.176,9.611c-0.617,3.064-0.867,6.425-0.754,10.109c0,1.112,0.029,2.748,0.085,4.924l0.25,2.42
	c0,0.055,0.138,0.836,0.419,2.34c0.611,3.121,1.582,6.015,2.925,8.689c2.333,5.067,5.903,9.464,10.692,13.192
	c1.779,1.565,3.95,3.125,6.515,4.685c2.114,1.219,4.282,2.364,6.511,3.426c1.953,0.944,7.213,3.896,15.787,8.852
	c-9.799-0.17-18.626-0.418-26.482-0.752c-12.692-0.559-19.043-1.227-19.043-2.008c0-0.721,6.351-1.361,19.043-1.918
	c3.68-0.113,7.55-0.23,11.616-0.338c-0.836-0.334-1.586-0.639-2.252-0.92c-2.288-1.059-4.594-2.223-6.939-3.508
	c-2.671-1.451-5.035-2.979-7.098-4.595c-5.348-4.118-9.356-8.851-12.03-14.198c-1.561-3.119-2.699-6.375-3.424-9.773l-0.754-5.174
	c-0.11-1.787-0.192-3.571-0.248-5.346c-0.056-3.906,0.223-7.552,0.832-10.949c0.617-3.843,1.812-7.427,3.594-10.771l3.176-5.011
	l3.841-4.177c1.061-1.06,2.422-2.284,4.096-3.676c1.781-1.443,3.12-2.561,4.011-3.342c3.006-2.62,5.29-4.872,6.848-6.769
	c2.169-2.619,3.453-5.204,3.844-7.764c0.223-1.34,0.223-2.7,0-4.099l-1.089-3.925c-1.058-2.394-2.673-4.37-4.847-5.927
	c-1.889-1.339-4.119-2.315-6.681-2.921c-2.281-0.503-4.65-0.73-7.098-0.673l-6.434,1.006c-2.448,0.553-4.566,0.887-6.352,1
	c-2.112,0.057-3.982-0.227-5.593-0.835c-1.45-0.395-2.868-1.087-4.263-2.086c-1.668-1.225-3.201-2.648-4.593-4.256
	c-0.666-0.787-1.087-1.314-1.254-1.594c-0.888-1.06-1.445-1.837-1.667-2.34c3.116,1.28,5.265,2.117,6.423,2.507
	c0.618-0.057,2.037-0.136,4.268-0.248c2.059-0.114,4.152-0.473,6.262-1.09l3.676-1.42l1.841-1.167
	c0.165-0.11,0.446-0.307,0.834-0.586l0.917-0.749c0.73-0.61,2.009-1.756,3.845-3.428c1.727-1.562,3.175-2.812,4.341-3.758
	l2.425-1.752c1.283-0.78,2.227-1.342,2.836-1.673c2.51-1.116,4.597-1.95,6.267-2.513C48.279,0,53.074-0.308,58.306,0.309l3.672,0.5
	c1.671,0.338,2.926,0.619,3.762,0.834l7.354,2.755c4.957,2.391,9.059,5.574,12.286,9.521c3.063,3.678,5.244,7.938,6.522,12.779
	c1.005,3.791,1.522,8.054,1.522,12.782l-0.293,5.765c-0.057,0.666-0.115,1.584-0.34,2.75c-0.224,1.34-0.264,2.207-0.432,2.594
	c-0.561,2.235-1.365,5.064-3.365,8.516v0.084c0,0,0.02-0.022,0.193-0.084l9.292-1.582c1.953-0.561,3.349-0.974,4.181-1.252
	c1.725-0.617,2.98-1.117,3.756-1.504c1.953-0.779,4.066-1.781,6.352-3.006c1-0.613,1.867-1.088,2.59-1.426
	c-0.168-0.611-0.305-1.079-0.418-1.416c-0.334-2.224-0.275-4.403,0.166-6.517c0.447-2.168,1.311-4.147,2.59-5.927l1.92-2.176
	c0.281-0.384,0.922-0.888,1.924-1.501c0.336-0.281,0.945-0.583,1.836-0.92c0.278-0.11,0.752-0.249,1.424-0.417
	c0.89-0.054,1.392,0.054,1.498,0.334c0.06,0.218-0.164,0.639-0.666,1.249c-0.389,0.34-0.698,0.646-0.92,0.923
	c-0.223,0.278-0.608,0.696-1.17,1.257c-0.723,0.832-1.112,1.327-1.166,1.498l-1.252,1.841c-0.832,1.673-1.395,3.26-1.672,4.762
	c-0.334,1.561-0.471,3.227-0.414,5.012c0.162,1.225,0.254,1.947,0.254,2.17l0.496,1.84c0.058,0.055,0.424,1.001,1.082,2.842
	c0.283,0.777,0.312,1.277,0.088,1.503c-0.225,0.164-0.692,0.059-1.422-0.337l-0.586-0.421l-0.584-0.583
	c-0.611-0.608-1.053-1.108-1.336-1.504l-0.916-1.5c-0.947,0.781-1.609,1.313-2,1.586c-2.121,1.392-4.234,2.619-6.354,3.677
	c-0.221,0.172-1.526,0.78-3.922,1.838c-0.67,0.276-2.117,0.805-4.344,1.586c-1.229,0.336-2.845,0.75-4.849,1.252l-5.26,0.924
	c-7.185,0.943-14.339,2.895-21.463,5.846c-1.505,0.67-3.207,1.531-5.1,2.593c-1.73,1.11-3.228,2.169-4.51,3.167
	c-1.558,1.347-2.813,2.567-3.761,3.677c-0.999,1.227-1.951,2.588-2.836,4.098c-0.78,1.277-1.446,2.699-2.008,4.252
	C49.261,88.181,48.878,89.656,48.541,91.273z M151.956,141.97c0,0.779-6.381,1.447-19.134,2.008
	c-2.563,0.115-5.237,0.222-8.016,0.334c-1.79-3.676-3.347-5.627-4.687-5.848c-0.943-0.111-2.947-0.221-6.006-0.334
	c-2.123-0.055-3.402-0.107-3.846-0.166c-1.838-0.228-3.258-0.473-4.26-0.75c-0.84-0.332-1.586-0.725-2.254-1.172
	c-0.728-0.5-1.394-1.168-2.002-2.004c-0.5-0.724-0.896-1.613-1.174-2.672c-0.222-0.839-0.308-1.806-0.246-2.923
	c0.215-1.449,0.805-3.146,1.748-5.096c0.67-1.448,1.482-2.926,2.426-4.428c1.174-2.057,1.947-3.508,2.34-4.342
	c0.834-1.616,1.393-3.063,1.67-4.347c0.113-0.778,0.166-1.475,0.166-2.09c0-0.438-0.113-1.162-0.332-2.166
	c-0.334-1.508-0.811-2.924-1.42-4.262c-1.227-2.506-3.063-4.762-5.516-6.762c-3.566-2.959-8.184-5.043-13.867-6.271
	c-3.172-0.725-6.68-1.115-10.521-1.168c-1.949-0.059-2.953-0.084-3.01-0.084c-0.721-0.055-1.087-0.141-1.089-0.26
	c0-0.162,0.336-0.391,1.006-0.666c0.717-0.275,1.693-0.529,2.923-0.748c3.45-0.615,7.201-0.666,11.271-0.172
	c2.732,0.334,5.291,0.949,7.684,1.84c3.117,1.117,5.838,2.561,8.178,4.342c3.006,2.284,5.249,4.926,6.754,7.937
	c0.891,1.672,1.502,3.452,1.896,5.348c0.278,1.557,0.356,2.502,0.356,2.836c0,0.34,0,0.67,0,1.006c3,0.279,4.178,0.222,6.244-0.166
	c1.832-0.278,3.477-0.811,4.813-1.588l0.589-0.257l3.506-2.51c0.219-0.22,0.437-0.438,0.666-0.661
	c0.614-0.584,1.229-1.179,1.94-1.804c0.709-0.614,1.477-1.253,2.355-1.845c0.868-0.604,1.852-1.166,3.014-1.604
	c0.283-0.111,0.598-0.212,0.908-0.298c0.299-0.084,0.801-0.202,1.078-0.235l0.363-0.068l0.213-0.1h0.117l0.234,0.078
	c0.311-0.01,0.623,0.091,0.932,0.108c1.238,0.117,2.437,0.453,3.457,0.98c1.033,0.504,1.885,1.175,2.59,1.859
	c0.699,0.692,1.25,1.416,1.68,2.112c0.864,1.393,1.271,2.666,1.479,3.566c0.117,0.444,0.147,0.813,0.183,1.055
	c0.028,0.246,0.028,0.377,0.028,0.377s-0.381-0.343-1.045-0.944c-0.66-0.577-1.6-1.37-2.725-2.144
	c-0.561-0.385-6.861-5.156-14.217,2.666c-1.666,1.5-3.531,2.697-5.592,3.588c-1.95,0.896-3.95,1.447-6.016,1.67
	c-2.451,0.343-4.871,0.195-7.271-0.416c-0.386,1.282-0.97,2.707-1.752,4.263c-0.668,1.338-1.533,2.842-2.593,4.506
	c-1.053,1.725-1.832,3.121-2.336,4.18c-0.778,1.394-1.258,2.613-1.42,3.672c-0.057,0.67-0.057,1.168,0,1.502
	c0.111,0.619,0.308,1.117,0.582,1.502c0.392,0.674,1.17,1.254,2.342,1.761c0.892,0.391,2.009,0.698,3.341,0.92
	c0.614,0.106,1.808,0.25,3.594,0.418c2.896,0.332,5.017,0.666,6.351,1.002c0.94,0.275,1.834,0.67,2.67,1.172
	c0.781,0.44,1.395,1.031,1.842,1.754c0.109,0.277,0.221,0.586,0.328,0.916c2.564,0.059,5.014,0.119,7.354,0.17
	C145.575,140.606,151.954,141.249,151.956,141.97z" class="color c1"/>
</svg>