<svg version="1.1" id="图层_1" x="0px" y="0px" width="161.753px" height="200px" viewBox="0 0 161.753 200" enable-background="new 0 0 161.753 200" xml:space="preserve" xmlns:xml="http://www.w3.org/XML/1998/namespace" xmlns="http://www.w3.org/2000/svg" xmlns:xlink="http://www.w3.org/1999/xlink">
  <path fill="#171C61" d="M161.404,123.486c-0.861-3.463-3.105-6.635-5.752-9.217c-4.656-4.535-10.445-8.557-12.896-14.833
	c-2.027-5.199-0.938-10.918-2.611-16.195c-1.623-5.121-4.723-9.831-7.137-14.602c-2.991-5.9-2.021-13.361-2.021-19.809
	c0-2.146-1.275-2.935-2.749-0.125c-2.843,5.436-8.342,4.224-10.388,2.173c-5.831-5.821,13.105-28.34,27.072-41.422
	c0.203-0.193,2.23-1.496,0.865-2.868c-0.445-0.443-1.521-0.726-2.697,0.081c-9.063,6.212-20.123,14.581-28.219,21.702
	c-0.847,0.743-1.692,0.005-1.302-1.086c2.669-7.479,6.13-15.224,10.206-21.547c1.182-1.819-0.57-2.758-2.097-1.384
	c-8.882,7.96-16.341,17.468-21.511,24.879c-0.438,0.633-1.592,0.308-1.76-0.438c-2.916-13.054-6.209-21.659-9.4-27.473
	c-1.148-2.094-2.189-1.61-1.688,0.822c0.972,4.687,1.535,9.46,1.974,14.228c0.218,2.332,0.394,4.673,0.537,7.014
	c0.137,2.222,0.412,4.532,0.314,6.757c-0.104,2.282-2.245,1.853-3.521,0.819c-1.887-1.524-3.807-3.006-5.748-4.461
	c-6.709-5.018-13.854-9.539-20.228-14.995c-2.795-2.394-4.152-1.346-2.11,1.936c2.91,4.692,6.455,10.07,9.91,15.753
	c3.199,5.25-0.65,5.745-2.451,4.751c-20.004-11.044-40.635-1.372-51.574,8.267c-1.802,1.589-1.175,3.299,1.047,2.172
	c14.084-7.121,22.156-6.809,30.921-2.786c0.568,0.257,1.262,0.567,1.293,1.294c0.035,0.879-0.828,1.107-1.494,1.336
	c-11.737,3.953-23.72,15.924-30.97,25.207c-2.923,3.744-2.218,5.389,1.689,2.749c2.742-1.853,5.967-3.842,9.46-5.603
	c0.668-0.33,1.084,0.153,0.62,0.721c-3.109,3.814-5.958,7.813-8.555,12.008c-1.41,2.272-2.657,4.716-3.765,7.193
	c-0.306,0.681-0.908,1.596-0.688,2.367c0.213,0.743,1.207,1.383,1.961,1.104c0.775-0.29,5.437-3.191,7.037-4.246
	c1.634-1.079,1.96,0.54,1.473,1.607c-3.661,7.998-12.527,22.122-15.372,28.948c-1.865,4.477,1.613,3.657,3.636,1.885
	c2.753-2.422,4.422-1.396,2.894,1.522c-1.373,2.627-8.856,15.168-8.496,31.369c0.017,0.545-0.133,0.783-0.655,0.887
	c-1.469,0.285-2.934,0.632-4.33,0.886c-1.242,0.229-2.183,0.879-2.125,2.265c-0.062,1.37,0.879,2.03,2.121,2.25
	c1.605,0.293,3.298,0.704,4.983,0.998c0.578,0.108,0.72,0.141,0.851,0.704c0.151,0.668,0.26,1.349,0.407,2.023
	c0.304,1.352,0.658,2.688,1.085,4.012c0.968,2.998,2.347,6.017,4.104,8.933c0.396,0.651,0.322,0.84-0.205,1.36
	c-1.392,1.377-2.671,2.938-3.971,4.297c-0.873,0.912-1.252,1.992-0.39,3.078c0.762,1.146,1.907,1.125,3.04,0.572
	c1.743-0.841,3.692-1.603,5.476-2.537c0.643-0.34,0.799-0.293,1.285,0.242c3.4,3.698,7.555,6.909,12.413,9.2
	c0.564,0.263,0.617,0.392,0.517,0.986c-0.323,1.961-0.438,4.018-0.69,5.902c-0.176,1.256,0.156,2.35,1.489,2.725
	c1.291,0.479,2.207-0.211,2.798-1.32c0.894-1.657,1.99-3.371,2.871-5.125c0.267-0.524,0.449-0.569,1.042-0.438
	c4.809,1.059,10.131,1.25,15.933,0.324c0.655-0.104,0.674-0.086,0.973,0.49c0.842,1.621,1.835,3.205,2.659,4.74
	c0.598,1.106,1.512,1.807,2.806,1.317c1.328-0.358,1.658-1.463,1.486-2.711c-0.207-1.541-0.336-3.183-0.554-4.797
	c-0.09-0.675,0.229-0.828,0.806-1.015c2.558-0.822,5.188-1.854,7.901-3.119c7.013-3.271,14.101-6.528,21.462-8.955
	c5.547-1.825,11.221-2.94,17.066-2.215c1.811,0.22,4.238,0.912,5.766-0.461c0.887-0.799,0.934-2.151,1.107-3.246
	c0.668-4.252,0.525-8.754-0.561-12.942c-0.765-2.933-1.783-5.789-2.688-8.683c-1.444-4.627-2.354-9.377-2.517-14.231
	c-0.127-3.719-0.029-7.619,1.285-11.147c0.495-1.318,1.159-2.604,2.625-2.989c1.443-0.38,3.025-0.017,4.473,0.144
	c8.193,0.889,16.492,2.199,24.101,5.525c3.308,1.447,9.362,4.29,7.591,9.01c-0.294,0.773-0.648,1.496,0.041,2.188
	c1.895,1.902,3.713-0.498,4.926-1.766C159.74,134.454,162.818,129.161,161.404,123.486z" class="color c1"/>
  <path fill="#FFFFFF" d="M114.199,87.035c-1.228,1.426-3.016,2.35-5.051,2.35c-3.736,0-6.771-3.046-6.771-6.777
	c0-1.779,0.711-3.383,1.842-4.588c0.605-0.639-2.021-2.029-2.775-1.038c-1.199,1.577-1.956,3.489-1.956,5.626
	c0,5.33,4.335,9.664,9.663,9.664c2.771,0,5.206-1.224,6.949-3.105C116.755,88.451,115.08,86.014,114.199,87.035z M135.108,95.709
	c2.088-4.99,0.509-10.691-1.604-15.386c-2.81-6.229-7.032-11.685-11.51-16.794c-4.912-5.621-10.815-10.143-16.834-14.51
	c-2.941-2.139-5.889-4.277-8.813-6.436c-0.8-0.585-1.947-1.814-3.034-1.119c-0.984,0.62-0.453,2.64-0.402,3.602
	c0.133,2.572,0.445,5.111,0.342,7.697c-0.021,0.546-0.141,1.522-0.932,1.244c-0.533-0.187-1.01-0.695-1.396-1.086
	c-1.442-1.463-3.274-2.787-5.105-3.707c-6.386-3.186-14.017-3.229-20.906-2.086c-8.719,1.438-16.645,6.068-23.305,11.744
	c-3.253,2.768-6.318,5.842-9.121,9.067c-0.885,1.02-1.755,2.005-2.525,3.034c-1.617,2.001-3.014,3.996-4.305,5.83
	c-0.813,1.254-1.652,2.406-2.287,3.559c-1.3,2.357,0.229,2.018,1.22,1.553c2.631-1.215,5.294-2.367,8.014-3.363
	c1.029-0.371,2.133-0.854,3.216-1.035c0.896-0.155,2.142,0.588,1.949,1.652c-0.963,5.39-1.086,14.807,2.509,22.003
	c1.058,2.115,1.631,0.574,1.875-0.447c0.38-1.621,0.948-3.203,1.665-4.701c0.793-1.655,2.025-4.183,3.712-5.13
	c0.761-0.432,1.843-0.096,2.123,0.786c1.708,5.318,4.146,10.541,7.218,15.208c5.102,7.744,11.842,14.354,19.112,20.057
	c7.771,6.101,16.275,11.201,24.105,17.224c3.529,2.722,4.345,2.524,4.345-3.615c0-6.038,1.948-13.37,5.252-18.456
	c1.172-1.804,3.116-2.656,1.67-4.962c-0.94-1.497-2.011-3.014-3.534-3.963c-0.936-0.586-2.863-0.644-3.232-1.854
	c-0.209-0.685,0.201-1.496,0.813-1.829c0.873-0.47,1.879-0.46,2.846-0.425c1.85,0.063,3.719-0.154,5.549-0.529
	c4.66-0.955,9.254-2.701,13.391-5.045C130.417,101.657,133.641,99.243,135.108,95.709z M117.244,93.339
	c-1.449-0.188-2.617,0.724-3.923,1.196c-1.338,0.474-2.753,0.719-4.173,0.719c-4.939,0-9.536-2.996-11.557-7.505
	c-1.045-2.341-1.127-4.732-1.033-7.252c0.135-3.644-2.088-7.479-5.587-8.796c-1.009-0.383-2.517-0.297-2.386-1.841
	c0.068-0.824,0.789-1.453,1.613-1.36c1.618,0.139,3.231,0.1,4.824,0.483c8.357,2.006,14.922,8.662,21.113,14.212
	c4.482,4.02,8.91,8.117,13.148,12.395c0.44,0.445,0.493,1.705,0.075,2.164c-1.42,1.559-4.646-1.266-5.897-1.947
	C121.517,94.744,119.478,93.63,117.244,93.339z M138.966,104.874c-0.413-0.774-0.85-2.125-1.658-2.578
	c-0.963-0.547-1.906,0.795-2.512,1.361c-4.571,4.271-10.711,6.393-16.709,7.745c-0.873,0.195-0.955,1.132-0.092,1.505
	c2.871,1.237,6.424,2.87,10.854,5.036c7.437,3.646,16.44,5.543,22.438,11.353c0.729,0.707,1.971,2.899,3.219,2.338
	c1.172-0.528,1.604-2.756,1.695-3.896c0.153-2.061-0.744-4.057-1.836-5.745C150.194,115.545,142.628,111.732,138.966,104.874z
	 M140.091,115.236c-0.518,0.306-1.168-0.071-1.524-0.45c-0.414-0.437-0.731-0.992-1.229-1.341c-0.662-0.463-1.271-0.278-2-0.09
	c-0.432,0.109-0.945,0.359-1.387,0.193c-0.25-0.096-0.412-0.275-0.507-0.496c-0.516-1.238,1.335-2.529,2.112-3.182
	c1.133-0.951,1.984,0.012,2.563,0.932c0.687,1.1,1.549,2.094,2.231,3.172C140.623,114.4,140.578,114.954,140.091,115.236z" class="color c2"/>
</svg>