<svg version="1.1" id="图层_1" x="0px" y="0px" width="125.8px" height="79.2px" viewBox="0 0 125.8 79.2" enable-background="new 0 0 125.8 79.2" xml:space="preserve" xmlns:xml="http://www.w3.org/XML/1998/namespace" xmlns="http://www.w3.org/2000/svg" xmlns:xlink="http://www.w3.org/1999/xlink">
  <path fill="#FFFFFF" d="M10.6,45.2c-0.2,0-2.7,2.7-3.3,3.3c-0.4,0.6-1,1.7-0.6,3.1c0.6,1.4,1.4,9,1.4,10.7C8.2,64,8,69.5,8,69.9
	c0,0.6-0.2,1-0.2,1.4c0.2,0.2,0.6,0.8,1,1s1.2,0.8,1.2,0.8s-1.2,2.5-1.4,3.1c1.2,1.4,4.7,2.7,6.6,2.7c1.7,0,2.7-0.4,2.7-1.6
	c0-1-1.6-3.1-2.5-3.9c-0.6-0.8-1.4-5.1-1.4-8.8c0-3.5,1.2-8.6,3.9-11.9c3.9,7.2,4.9,13.8,4.7,18.1c1.6,0.2,2.5,1.2,3.1,2.7
	c0.8,1.4,2.1,2.7,5.3,2.7c1.6,0,2.3-0.4,2.5-0.6c0-0.2-0.2-0.8-0.8-1.2c-0.4-0.6-4.1-6.4-4.7-7.6s-1.2-3.9-1.2-4.9
	c0-1.2,0-4.3,1.4-4.5c1.6-0.4,1.9,2.1,2.7,2.1c0.8-0.2,0.2-1.4,1.2-1.7c1-0.2,2.5-0.6,2.9,0.4s0.8,1.6,1.4,0.6
	c0.6-1,0.6-1.8,0.6-2.2c2.5-1.4,3.3-2.5,3.7-3.1C41.3,52.9,43,51,43,51c2.9,0.2,6,0.4,7,0.4c1.2,0,4.3-0.2,5.6-0.2
	c1.4,0,2.9,0.2,4.5,0.2c1.4,0,3.7-0.4,4.5-0.6c0.6-0.2,0.8-0.2,1.4,0c0.8,0.2,1.4,0.6,1.4,1.4c0.2,0.6,0.8,2.1,0.8,3.1v2.3
	C68,58,67,60.3,67,60.9c0,0.6,1,1.2,1.4,2.1c0.4,1,1.6,2.9,1.4,5.1c0,2.1-0.4,2.9-0.4,4.1c0,0.6-0.6,1.2,0.4,1.2
	c1,0.2,1,0.6,1.2,1.4c0.4,0.6,0.4,1.2,1.2,1.9c0.8,0.4,3.3,1.4,4.7,1.4c1.4,0.2,1.9,0,2.1-0.6s-0.2-1.4-1-2.1
	c-1-0.6-1.4-0.6-1.6-1.4c-0.4-1-1-3.9-1.2-4.7c-0.2-1-0.4-4.9-0.4-5.8c0-1,0-2.7,0.2-3.7c0.4-0.8,0.8-3.3,0.8-3.3
	c0.4,2.3,1.6,6.4,2,6.6c0.6,0.4,1,0.8,1.2,1.4c0.2,0.4,0.6,3.9,1,5.1c0.2,1,0.4,4.9,0.6,5.3c0.4,0.2,1.2,0.2,1.6,0.6
	c0.6,0.4,1.2,1.7,2.1,2.3c0.8,0.6,2.1,1.2,3.3,1.2c1.4,0,2.3-0.2,2.5-0.6s0.2-0.8,0-1.2c-0.4-0.4-2.9-2.3-3.3-2.9
	c-0.2-0.6-1.6-3.3-1.8-4.1c-0.2-0.8-1.9-6.8-1.9-7.6s0.4-1.6,0.6-2.7c0-1,0.2-4.3,0.2-5.6c0-1,0-1.4,1-1.4c0.8,0,2,0,2.7-0.2
	c0.6-0.4,1.7-1.4,2.3-2.3c0.8-1.6,1.4-2.7,1.6-3.3c0.2-0.8,1.6-4.9,2.3-6.6c0.8-1.4,2.9-5.1,3.9-6.6c1-1.2,2.9-3.3,3.9-4.3
	s2.5-1.2,3.7-1.6c1.2-0.2,3.1,0.2,4.7,0c1.9-0.4,3.5-0.6,4.5-1s3.3-1.4,4.3-1.6s3.5,0.2,3.9-0.2c0.4-0.4,0.6-1,1-1.6
	c0.4-0.8,0.8-1,1-1.2c0.4-0.2,0.8-0.2,0.8-0.8c0-0.6-0.2-0.8-0.8-1.7c-1-1.2-3.1-2.7-3.5-3.5c-0.6-0.6-1-1.4-1.6-2.1
	c-0.6-0.6-2.3-1.4-3.1-2.3c-0.6-0.8-4.1-4.3-4.9-4.9c-0.6-0.6-3.1-2.3-3.1-2.3c1.6,0,5.6,0.4,7-0.6c1.6-1,2.1-1.8,2.5-3.1
	c-2.1,0.4-3.5,0.6-4.5,0.6s-4.3-0.4-5.8-1c-1.4-0.7-2-0.7-2.5-0.7c-0.4,0-0.8,0.2-1.8,0.6s-1.6,0.6-1.6,1.2c0,0.4,0.2,0.8,0.6,1
	c0.4,0.4,0.6,1.7,0.2,1.9c-0.6,0-0.8-0.2-1.4-0.6c-0.4-0.4-2.5-1.4-3.7-1.4c-1,0-1.6,0.8-1.8,1.2c-0.4,0.4-0.6,1.2,0,1.8
	s1.2,0.6,1.6,0.8c0.6,0.2,1.2,0.4,1.2,1c0,0.4-0.2,0.6-1.2,0.6c-1,0.2-5.6,0.6-7.6,0.6C84.3,9,73,9.7,69,10.1
	c-3.7,0.4-8.6,1-12.5,1.4s-6,0.4-9.7,0.4c-3.5,0-12.3-0.4-15-1c-3.9-0.4-8.8-0.6-11.1-0.8s-6-0.4-7.6,0.6c-1.8,1-4.3,2.9-5.3,4.7
	c-1,2.1-1,1.8-1.4,3.9c-0.2,2.1-1,5.8-1.4,7.4S4.6,30,4.6,31.8c0,1.8-0.4,5.6-0.4,7.6c0,0.6,0,1.7-1,1.9c-0.8,0.4-1.2,0.6-1.6,1.4
	c-0.4,0.6-1,0.6-1.2,1.9c-0.2,1.2-0.2,2.3,0,3.3s0.8,1.2,1,3.1c0.2,1.4,0.6,3.9,0.8,5.1c0.4-1.4,1.2-1.9,1.2-2.9
	c0-1.2,0.6-4.1,1-5.3c0.2-1.2,2.1-2.1,2.1-2.9c0.2-1,0.2-1.9,0-2.5c-0.4-0.6-0.6-0.8-0.4-1.7c0.2-1,0.6-5.1,0.6-6.2
	c0-1,0.6-9.9,0.8-10.9c0.2-1.2,1.4-5.8,1.4-5.8c-0.2,3.7-0.4,8.8-0.4,10.3v7.4C8.6,37.2,8.2,40.5,9,42c0.8,1.6,1.2,2.3,1.2,2.3
	L10.6,45.2z" class="color c1"/>
</svg>