<svg version="1.1" id="图层_1" x="0px" y="0px" width="185.72px" height="121.559px" viewBox="0 0 185.72 121.559" enable-background="new 0 0 185.72 121.559" xml:space="preserve" xmlns="http://www.w3.org/2000/svg" xmlns:xlink="http://www.w3.org/1999/xlink" xmlns:xml="http://www.w3.org/XML/1998/namespace">
  <path fill="#F2642B" d="M84.448,57.108c-3.897,0.316-62.794,16.602-70.063-8.17S45.571,0,45.571,0
	C8.577,12.587-1.082,42.479,0.093,53.783c1.175,11.296,9.428,58.135,93.021,48.104c64.065-10.706,70.952,5.684,92.546,19.588
	C177.564,17.496,88.347,56.792,84.448,57.108z" class="color c1"/>
  <path fill="#FB8D1B" d="M45.571,0c0,0-0.013,0.009-0.036,0.022C33.417,6.123-20.03,37.462,24.143,73.722
	c41.282,33.885,113.476-42.259,161.577,47.837c-20.854-12.608-30.137-30.11-92.606-19.671C9.521,111.918,1.268,65.079,0.093,53.783
	C-1.082,42.479,8.577,12.587,45.571,0z" class="color c2"/>
  <path fill="#FFFFFF" d="M112.365,55.422c6.203,5.315,12.66,10.901,12.66,10.901l-6.617,6.039l-3.348,3.061l11.553,6.186
	l-9.988,11.727c8.881-1.352,23.309-9.172,58.592,14.264c1,0.666,2.016,1.352,3.053,2.069
	C177.718,90.089,161.242,47.993,112.365,55.422z" class="color c3"/>
  <path fill="#E8E8E8" d="M116.625,93.335c8.881-1.352,23.309-9.172,58.592,14.264c1,0.666,2.016,1.352,3.053,2.069
	c-0.006-0.173-0.014-0.351-0.021-0.525c-18.938-27.804-40.881-34.114-62.916-33.576l11.281,6.042L116.625,93.335z" class="color c4"/>
</svg>