<svg version="1.1" id="图层_1" x="0px" y="0px" width="177.563px" height="67.722px" viewBox="0 0 177.563 67.722" enable-background="new 0 0 177.563 67.722" xml:space="preserve" xmlns="http://www.w3.org/2000/svg" xmlns:xlink="http://www.w3.org/1999/xlink" xmlns:xml="http://www.w3.org/XML/1998/namespace">
  <path fill="#38040E" d="M21.956,62.264c14.425-11.374,27.8-20.24,39.481-25.067c11.225-4.264,21.667-5.635,31.418-3.987
	c4.787,0.557,9.237,0.494,12.757-1.274c1.989-1.235,2.706-3.775,1.77-6.166c1.573,2.089,2.853,4.059,3.49,6.258
	c20.21-14.576,40.641-25.855,60.567-31.756c5.447-1.353,7.793,2.601,4.834,6.398c-2.287,3.633-7.115,7.469-10.605,11.647
	c-3.055,3.575-5.211,7.726-6.293,12.57c-4.176,0.671-8.451,3.76-12.767,7.951c-3.646,3.609-7.077,8.521-10.303,11.759
	c-3.207,3.735-6.788,6.499-11.024,7.833l-1.22-1.493c-0.364,3.418-3.133,4.232-6.573,4.319c-3.473-0.064-6.993-1.085-10.561-0.909
	c-6.745,0.09-13.688,1.354-20.919,4.335c-2.184,0.747-4.301,2.754-5.991,2.86c-5.416-0.1-10.289-1.14-14.741-3.491
	c8.038-5.195,16.272-8.752,24.793-9.928c5.887-1.031,11.831-0.933,17.872,0.81c2.556,0.382,5.084,0.621,7.513,0.359
	c2.81-0.639,4.82-1.756,4.384-4.574c-0.54-1.534-1.17-2.719-1.838-3.74c-0.483,3.311-2.635,4.919-6.2,4.64
	c-5.292-0.509-10.364-1.441-14.826-0.718c-11.713,0.77-21.455,4.399-30.087,9.632C62.59,63.1,57.814,63.385,52.9,63.025
	c-2.774-0.321-5.55-1.064-8.325-2.002c10.601-6.659,20.787-11.606,30.464-14.419c8.17-2.23,15.606-2.725,22.544-2.032
	c4.106,0.609,8.134,0.98,11.777,0.202c2.939-0.606,4.562-2.214,4.268-5.282c-0.197-1.601-1.159-3.625-2.403-5.808
	c0.048,0.379,0.082,0.764,0.086,1.159c-0.115,3.354-2.56,4.964-6.061,5.782c-3.31,0.185-6.619-0.003-9.926-0.242
	c-9.854-0.31-20.667,2.074-32.634,7.886c-5.338,2.439-10.852,5.58-16.403,8.863C38.738,61.983,30.559,63.325,21.956,62.264z
	 M89.742,27.659c4.562,0.263,8.728,0.281,10.988-0.876c3.997-1.928,4.657-6.07,2.664-9.62c-3.814-6.441-15.009-5.021-23.023-2.068
	c-4.042,1.578-8.023,3.275-11.953,5.049l-7.003,3.271C36.493,35.571,14.651,51.278,0,67.72c6.526,0.073,13.366-1.925,20.77-7.611
	C32.065,50.243,43.36,42.664,54.657,36.37C66.729,30.137,78.429,27.182,89.742,27.659z" class="color c1"/>
</svg>