<svg version="1.1" id="图层_1" x="0px" y="0px" width="127.804px" height="161.069px" viewBox="0 0 127.804 161.069" enable-background="new 0 0 127.804 161.069" xml:space="preserve" xmlns="http://www.w3.org/2000/svg" xmlns:xlink="http://www.w3.org/1999/xlink" xmlns:xml="http://www.w3.org/XML/1998/namespace">
  <path fill="#00C0B2" d="M37.825,37.563l-7.314-10.687l0.03-0.195c0.867-5.716,3.667-10.904,7.884-14.608l0.554-0.486l5.569,15.628
	L37.825,37.563z M50.14,18.605l9.785,2.348l-0.275-9.786l-0.121-0.136c-2.33-2.622-5.715-4.126-9.29-4.126
	c-1.46,0-2.898,0.251-4.277,0.748l-0.489,0.181C44.97,8.023,44.475,8.23,43.99,8.453l-0.393,0.181l4.058,13.798L50.14,18.605z
	 M99.357,64.316l-3.865,8.469l25.488-0.717l-0.094-0.565c-0.035-0.213-0.054-0.324-0.068-0.391l-0.03-0.196
	c-0.521-4.134-1.339-8.06-2.434-11.668l-0.144-0.475l-18.634,5.48L99.357,64.316z M81.307,6.779l-0.804-0.155
	c-0.13-0.027-0.26-0.055-0.396-0.078c-2.499-0.416-5.035-0.112-7.113,0.852c-4.534,2.104-6.404,6.068-6.422,6.107l-2.01,4.32
	l-0.151,3.958l13.43-3.219L81.307,6.779z M35.527,41.102l-5.878-7.628l-0.14,1.104l-1.716,0.602
	c-0.364,0.136-3.674,1.435-7.601,5.28l-0.411,0.402l10.598,8.165L35.527,41.102z M25.142,57.089l3.175-4.887l-11.514-7.881
	l-0.287,0.388c-2.188,2.96-4.058,6.382-5.555,10.169l-0.19,0.481l16.222,5.779L25.142,57.089z M96.275,47.257l10.201-7.86l-0.47-0.4
	c-3.231-2.753-5.75-3.726-6.026-3.828l-1.671-0.615l-0.649-4.91l-6.959,9.03L96.275,47.257z M102.659,57.089l-1.18,2.584
	l15.118-5.387l-0.206-0.488c-1.714-4.057-3.84-7.639-6.321-10.647l-0.291-0.353l-11.354,7.77L102.659,57.089z M88.303,34.979
	l8.338-12.185l0.109-0.161l-0.027-0.193c-0.543-3.737-2.035-7.06-4.313-9.608c-1.532-1.716-3.302-3.065-5.408-4.124l-0.506-0.254
	l-5.462,15.33L88.303,34.979z M28.978,65.486L9.312,59.704l-0.139,0.484c-0.961,3.364-1.688,6.973-2.158,10.708l-0.208,1.268
	l25.55,0.719L28.978,65.486z M79.587,107.773l-1.235-0.878l-2.164,4.663l8.719,24.464l0.558-0.527
	c1.619-1.532,2.512-2.462,2.76-2.724l0.217-0.235l0.265-0.184c2.392-1.665,4.94-3.665,7.576-5.944l0.338-0.292l-14.435-21.093
	L79.587,107.773z M33.789,76.017L6.416,76.788L6.4,77.257c-0.14,4.035,0.173,8.07,0.931,11.994l0.104,0.54l28.78-8.463
	L33.789,76.017z M64.108,116.426l1.01,35.854l0.772-0.581c5.367-4.029,10.244-7.94,14.496-11.625l0.243-0.211l-6.892-23.438H64.108z
	 M88.545,98.292l-3.894,4.121l15.673,20.343l0.402-0.383c1.791-1.705,3.554-3.463,5.239-5.226c1.329-1.388,2.613-2.876,3.816-4.424
	l0.309-0.396l-21.274-16.39L88.545,98.292z M121.405,77.355l-0.016-0.47l-27.417-0.773l-2.789,6.109l28.964,8.519l0.112-0.528
	C121.162,85.957,121.547,81.631,121.405,77.355z M89.261,92.1l23.642,16.181l0.275-0.444c2.295-3.706,4.158-7.712,5.538-11.908
	l0.152-0.464l-28.81-10.266L89.261,92.1z M39.352,99.035l-0.642-5.539l-22.232,17.129l0.282,0.393
	c1.586,2.207,3.293,4.27,5.073,6.13c1.098,1.147,2.186,2.241,3.265,3.308l0.402,0.397l15.807-20.516L39.352,99.035z M51.882,112.131
	l-7.441,25.31l0.233,0.211c3.946,3.566,8.609,7.43,13.862,11.481l0.777,0.601l0.938-33.308h-6.376L51.882,112.131z M37.615,84.019
	L8.577,94.364l0.14,0.457c1.188,3.89,2.84,7.697,4.911,11.318l0.269,0.471l24.399-16.699L37.615,84.019z M48.692,105.253
	l-4.585-3.052l-15.063,22.008l0.323,0.293c3.399,3.083,6.673,5.725,9.729,7.851l0.265,0.185l0.97,1.023l9.337-26.203L48.692,105.253
	z" class="color c1"/>
  <path fill="#082636" d="M127.636,74.566c-0.104-1.321-0.229-2.39-0.336-3.177c-0.094-0.683-0.174-1.156-0.213-1.37
	c-0.596-4.688-1.51-8.851-2.635-12.562c-0.625-2.063-1.314-3.982-2.057-5.769c-2.084-5.019-4.555-8.988-7.049-12.095
	c-0.197-0.246-0.396-0.483-0.594-0.72c1.566-2.326,3.229-5.573,3.709-9.343c0.32-2.504,0.121-5.235-0.98-8.082
	c-2.344-6.063-7.148-4.78-11.186-2.196c-1.178,0.754-2.285,1.614-3.252,2.439c-0.32-2.303-0.924-4.493-1.781-6.536
	c-1.02-2.428-2.395-4.645-4.109-6.565c-2.232-2.498-4.941-4.459-8.07-5.909c-1.984-0.92-4.143-1.627-6.471-2.115
	c-0.484-0.102-0.963-0.214-1.463-0.297c-3.783-0.629-7.568-0.156-10.832,1.357c-1.992,0.924-3.609,2.088-4.932,3.274
	c-0.547,0.489-1.055,0.982-1.496,1.466c-1.441-1.521-3.133-2.76-4.98-3.712c-2.633-1.357-5.592-2.113-8.67-2.113
	c-2.199,0-4.363,0.378-6.436,1.125l-0.564,0.209c-0.336,0.126-0.659,0.273-0.986,0.411c-2.121,0.887-4.11,2.002-5.934,3.328
	c-4.685,3.412-8.287,8.166-10.383,13.688c-0.252,0.664-0.481,1.338-0.689,2.021c-2.525-2.09-5.891-4.277-8.835-4.216
	c-2.081,0.043-3.953,1.205-5.165,4.34c-1.75,4.524-1.227,8.762,0.053,12.246c0.635,1.726,1.451,3.267,2.274,4.565
	c-0.769,0.88-1.539,1.837-2.304,2.88c-2.26,3.085-4.457,6.904-6.305,11.618c-0.686,1.751-1.324,3.622-1.9,5.627
	c-0.998,3.472-1.807,7.336-2.354,11.633c-0.04,0.226-0.126,0.729-0.226,1.467c-0.104,0.777-0.224,1.815-0.321,3.082
	c-0.074,0.968-0.117,1.934-0.143,2.9c-0.127,4.591,0.287,9.159,1.201,13.628c0.406,1.983,0.904,3.947,1.507,5.881
	c1.382,4.445,3.286,8.735,5.657,12.797c1.026,1.76,2.141,3.475,3.345,5.138c1.675,2.314,3.501,4.539,5.505,6.634
	c1.343,1.404,2.674,2.74,3.994,4.029c1.537,1.502,3.059,2.926,4.562,4.27c3.218,2.878,6.353,5.4,9.374,7.523
	c0.388,0.404,1.181,1.217,2.42,2.401c1.271,1.216,3.022,2.829,5.279,4.794c3.754,3.271,8.932,7.528,15.736,12.613
	c1.055,0.787,2.143,1.592,3.275,2.418l2.023,1.475l1.924-1.403l0.098-0.071c6.811-4.968,12.16-9.229,16.26-12.68
	c2.158-1.816,3.969-3.404,5.443-4.744c2.771-2.515,4.4-4.168,5.006-4.803c2.346-1.646,4.758-3.539,7.221-5.641
	c1.559-1.33,3.139-2.75,4.738-4.255c1.965-1.851,3.957-3.819,5.973-5.927c1.514-1.582,2.934-3.231,4.26-4.941
	c1.291-1.662,2.486-3.386,3.596-5.154c2.639-4.216,4.738-8.711,6.285-13.375c0.658-1.982,1.213-3.992,1.662-6.028
	c1.049-4.738,1.545-9.597,1.418-14.481C127.759,76.566,127.712,75.566,127.636,74.566z M120.292,70.978l0.035,0.228
	c0.002,0.004,0.027,0.143,0.066,0.379L96.28,72.263l3.438-7.531l18.158-5.34C118.903,62.778,119.743,66.616,120.292,70.978z
	 M95.263,57.484L83.478,83.301l-1.506,13.013l-2.709,2.867L63.88,88.249L49.776,98.683l-3.971-2.643L44.332,83.3L32.536,57.484
	l20.631-31.76L63.901,28.3l10.74-2.575L95.263,57.484z M63.903,94.967l9.93,7.446l-3.723,8.025h-6.207h-6.207l-3.723-8.025
	L63.903,94.967z M115.931,53.993l-13.506,4.813l0.803-1.759l-4.117-6.341l10.574-7.236
	C111.849,46.094,114.048,49.535,115.931,53.993z M97.565,32.847l0.291,2.073l1.951,0.719c0.26,0.096,2.717,1.049,5.875,3.739
	l-9.283,7.152l-5.086-7.831l6.004-7.791L97.565,32.847z M92.036,13.165c2.225,2.487,3.664,5.716,4.191,9.347l-7.914,11.565
	L81.587,23.72l5.189-14.564C88.812,10.178,90.556,11.507,92.036,13.165z M67.024,13.717c0.018-0.038,1.826-3.844,6.18-5.864
	c2.01-0.933,4.396-1.216,6.82-0.813c0.223,0.037,0.428,0.088,0.646,0.129l-3.229,10.978l-12.514,3l0.086-3.109L67.024,13.717z
	 M45.649,8.302l0.486-0.18c1.32-0.476,2.699-0.717,4.104-0.717c3.463,0,6.695,1.458,8.916,3.958l0.252,8.951l-9.494-2.277
	l-2.086,3.21l-3.629-12.34C44.673,8.689,45.157,8.487,45.649,8.302z M38.755,12.448l5.238,14.701l-6.179,9.512l-6.779-9.905
	C31.897,21.068,34.673,16.033,38.755,12.448z M27.968,35.647l1.999-0.701l0.026-0.208l4.922,6.388l-4.66,7.174l-9.713-7.483
	C24.421,37.018,27.679,35.755,27.968,35.647z M16.918,45.006l10.714,7.333l-3.059,4.708l1.473,3.224l-14.62-5.209
	C13.062,50.925,14.979,47.628,16.918,45.006z M7.47,71.214l0.039-0.236c0.499-3.969,1.243-7.496,2.146-10.652l18.964,5.576
	l2.951,6.459L7.392,71.68C7.438,71.386,7.47,71.217,7.47,71.214z M6.899,77.274l26.572-0.748l2.049,4.484L7.821,89.156
	C7.068,85.256,6.761,81.272,6.899,77.274z M9.194,94.675L37.19,84.7l0.574,4.969l-23.703,16.223
	C12.021,102.323,10.382,98.563,9.194,94.675z M22.195,116.802c-1.835-1.918-3.504-3.955-5.028-6.076l21.148-16.294l0.566,4.892
	l1.703,1.133L25.45,120.1C24.374,119.036,23.29,117.946,22.195,116.802z M39.946,132.435l-0.256-0.277l-0.309-0.215
	c-3.094-2.152-6.332-4.775-9.679-7.811l14.538-21.241l4.057,2.7l0.83,1.791l-8.996,25.247
	C40.026,132.519,39.952,132.44,39.946,132.435z M45.009,137.28l6.979-23.734l1.568,3.38h6.182l-0.896,31.812
	C52.628,143.944,48.081,140.058,45.009,137.28z M65.591,151.3l-0.969-34.374h8.742l6.695,22.771
	C76.546,142.741,71.767,146.663,65.591,151.3z M88.419,131.942l-0.309,0.215l-0.254,0.274c-0.025,0.026-0.918,0.979-2.736,2.7
	l-8.393-23.549l1.824-3.932l1.1,0.781l2.471-2.615l13.832,20.213C93.368,128.267,90.849,130.251,88.419,131.942z M105.604,116.802
	c-1.766,1.846-3.506,3.574-5.223,5.209l-15.074-19.564l3.715-3.932l0.189-1.642l20.176,15.544
	C108.208,113.934,106.948,115.398,105.604,116.802z M112.753,107.572L89.792,91.857l0.691-5.978l27.758,9.892
	C116.89,99.881,115.06,103.848,112.753,107.572z M119.771,90.108l-27.893-8.204l2.412-5.282l26.615,0.75
	C121.048,81.663,120.655,85.935,119.771,90.108z M73.507,47.261h-2.334H54.294v8.582l-3.078-5.373h-7.944l2.097,3.42l8.926,4.553
	v0.702l-6.182,17.126l15.793,10.102L79.698,76.27l-6.191-17.126v-0.699l8.93-4.555l2.096-3.42h-7.943l-3.082,5.379V47.261z
	 M74.569,74.471H63.427h-2.494h-7.693l5.266-14.59v-8.408h10.791v8.409L74.569,74.471z" class="color c2"/>
</svg>