<svg version="1.1" id="图层_1" x="0px" y="0px" width="180.15px" height="177.1px" viewBox="0 0 180.15 177.1" enable-background="new 0 0 180.15 177.1" xml:space="preserve" xmlns="http://www.w3.org/2000/svg" xmlns:xlink="http://www.w3.org/1999/xlink" xmlns:xml="http://www.w3.org/XML/1998/namespace">
  <path fill="#EBE9DC" d="M87.599,72.676c-0.212-0.443-5.114-11.025,2.392-24.592c1.913-3.457,4.136-6.789,6.489-10.316
	c6.183-9.268,12.576-18.85,14.247-32.051c0,0,1.103-3.377,0.724-5.717c2.884,14.324-4.585,27.891-11.836,38.86
	c-2.466,3.73-4.796,7.255-6.587,10.472c-5.98,10.74-3.502,22.555-3.478,22.674l1.296,5.939c-0.104,0.311-0.198,0.609-0.292,0.907
	L87.599,72.676z M41.83,60.459c0.707-0.574,1.656-1.092,2.639-1.779c0.487-0.344,1.033-0.676,1.622-1.004
	c0.59-0.318,1.156-0.732,1.811-1.033c0.652-0.301,1.301-0.655,1.987-0.967c0.71-0.242,1.404-0.57,2.142-0.793
	c0.373-0.09,0.743-0.189,1.114-0.295l0.56-0.154l0.57-0.071c0.383-0.05,0.763-0.105,1.143-0.171c0.381-0.006,0.765-0.012,1.15-0.018
	c1.533,0.049,3.066,0.275,4.585,0.9c1.509,0.618,3.021,1.463,4.472,2.516c1.457,1.066,2.853,2.299,4.224,3.576
	c1.338,1.322,2.671,2.645,3.934,4.006c2.538,2.693,4.934,5.342,7.182,7.494c1.136,1.074,2.207,2.037,3.242,2.824
	c0.519,0.391,0.994,0.764,1.491,1.053c0.468,0.313,0.931,0.565,1.358,0.774c0.403,0.232,0.808,0.384,1.162,0.492
	c0.346,0.121,0.637,0.213,0.896,0.236c0.499,0.076,0.749,0.098,0.749,0.098s-0.212-0.147-0.609-0.428
	c-0.199-0.115-0.414-0.316-0.655-0.559c-0.243-0.23-0.519-0.488-0.794-0.83c-0.286-0.316-0.587-0.681-0.885-1.117
	c-0.307-0.414-0.635-0.871-0.965-1.379c-0.674-0.994-1.392-2.166-2.183-3.441c-1.581-2.565-3.419-5.61-5.739-8.756
	c-1.15-1.574-2.445-3.168-3.877-4.715c-1.443-1.551-3.075-3.021-4.87-4.375c-1.849-1.297-3.901-2.447-6.146-3.174
	c-0.572-0.158-1.143-0.316-1.708-0.474c-0.584-0.104-1.177-0.174-1.756-0.252c-0.576-0.104-1.17-0.067-1.749-0.08
	c-0.579-0.002-1.154,0-1.715,0.105c-0.559,0.088-1.111,0.172-1.66,0.256c-0.528,0.143-1.047,0.305-1.555,0.465l-0.756,0.24
	l-0.703,0.316c-0.464,0.211-0.92,0.422-1.36,0.641c-0.855,0.471-1.628,1.002-2.383,1.492c-0.706,0.549-1.355,1.102-1.977,1.631
	c-0.616,0.531-1.119,1.119-1.628,1.643c-0.5,0.529-0.969,1.031-1.351,1.566c-0.783,1.037-1.477,1.922-1.916,2.703
	c-0.481,0.762-0.817,1.397-1.064,1.815c-0.234,0.429-0.36,0.656-0.36,0.656s0.217-0.145,0.623-0.416
	C40.512,61.396,41.116,61.006,41.83,60.459z M86.919,140.756c-0.104,0.563-0.212,1.133-0.317,1.703
	c-0.153,0.559-0.268,1.133-0.452,1.684c-0.336,1.109-0.749,2.199-1.281,3.209c-0.529,1.011-1.135,1.963-1.837,2.791
	c-1.37,1.689-3.03,2.931-4.56,3.76c-1.529,0.841-2.921,1.328-3.906,1.589c-0.988,0.266-1.563,0.323-1.563,0.323l0.035,0.412
	c0,0,0.165,0.066,0.467,0.146c0.302,0.063,0.76,0.194,1.334,0.235c0.576,0.054,1.298,0.113,2.106,0.029
	c0.816-0.057,1.755-0.18,2.73-0.492c0.993-0.278,2.067-0.68,3.115-1.297c1.061-0.598,2.119-1.375,3.073-2.334
	c0.979-0.938,1.84-2.063,2.556-3.285c0.741-1.213,1.271-2.543,1.703-3.879c0.214-0.672,0.335-1.35,0.499-2.022
	c0.136-0.672,0.193-1.349,0.282-2.013c0.117-1.327,0.1-2.627-0.003-3.854c-0.126-1.226-0.293-2.398-0.575-3.469
	c-0.148-0.535-0.252-1.062-0.426-1.554c-0.179-0.483-0.354-0.955-0.52-1.405c-0.292-0.896-0.73-1.703-1.077-2.398
	c-0.323-0.713-0.713-1.262-1.016-1.725c-0.29-0.468-0.582-0.818-0.753-1.066c-0.188-0.242-0.291-0.371-0.291-0.371l-0.406,0.092
	c0,0,0.118,0.582,0.325,1.599c0.104,0.51,0.236,1.127,0.334,1.836c0.1,0.711,0.26,1.504,0.353,2.383
	c0.11,0.877,0.227,1.826,0.274,2.836c0.089,1.008,0.076,2.072,0.071,3.172c-0.028,0.547-0.057,1.105-0.085,1.67
	C87.048,139.617,86.983,140.184,86.919,140.756z M150.293,70.826c-0.837,0.396-1.743,0.823-2.701,1.278
	c-0.957,0.438-1.967,0.898-3.012,1.377c-2.088,0.937-4.313,1.902-6.574,2.713c-2.253,0.832-4.537,1.515-6.7,1.916
	c-1.082,0.195-2.134,0.354-3.131,0.394c-0.251,0.01-0.497,0.02-0.74,0.029c-0.24-0.009-0.478-0.021-0.713-0.021
	c-0.477,0.014-0.921-0.057-1.358-0.088c-0.438-0.041-0.839-0.152-1.242-0.205c-0.392-0.098-0.764-0.193-1.112-0.281
	c-0.676-0.244-1.29-0.453-1.763-0.705c-0.495-0.213-0.849-0.45-1.106-0.592c-0.261-0.146-0.398-0.225-0.398-0.225
	s0.098,0.125,0.28,0.356c0.194,0.222,0.439,0.605,0.869,0.968c0.399,0.405,0.939,0.836,1.613,1.278
	c0.354,0.195,0.729,0.402,1.124,0.621c0.414,0.174,0.855,0.373,1.329,0.527c0.945,0.303,2.011,0.582,3.146,0.66
	c1.137,0.121,2.341,0.135,3.566,0.021c1.229-0.096,2.476-0.322,3.722-0.608c1.237-0.306,2.479-0.677,3.683-1.119
	c1.206-0.443,2.385-0.938,3.516-1.48c1.136-0.533,2.221-1.115,3.25-1.707c2.054-1.196,3.884-2.438,5.382-3.588
	c3.015-2.283,4.746-4.141,4.746-4.141s-0.589,0.242-1.586,0.699C153.382,69.364,151.966,70.021,150.293,70.826z M168.573,51.021
	c-0.786,0.486-1.639,1.015-2.54,1.574c-0.901,0.541-1.853,1.115-2.837,1.707c-1.97,1.164-4.073,2.377-6.229,3.438
	c-2.146,1.079-4.338,2.014-6.441,2.655c-1.054,0.318-2.08,0.593-3.067,0.744c-0.247,0.037-0.491,0.076-0.73,0.111
	c-0.24,0.021-0.478,0.033-0.711,0.061c-0.472,0.068-0.92,0.049-1.36,0.066c-0.439,0.008-0.85-0.055-1.257-0.063
	c-0.401-0.055-0.78-0.104-1.139-0.153c-0.698-0.168-1.331-0.308-1.829-0.502c-0.517-0.158-0.896-0.354-1.168-0.466
	c-0.274-0.114-0.422-0.178-0.422-0.178s0.11,0.113,0.319,0.324c0.219,0.195,0.506,0.551,0.973,0.861
	c0.442,0.358,1.029,0.725,1.747,1.09c0.373,0.153,0.771,0.317,1.188,0.492c0.432,0.125,0.893,0.272,1.38,0.371
	c0.975,0.196,2.064,0.354,3.203,0.303c1.143-0.006,2.34-0.129,3.545-0.379c1.212-0.234,2.424-0.601,3.629-1.025
	c1.196-0.443,2.388-0.949,3.534-1.527c1.146-0.575,2.264-1.2,3.326-1.866c1.067-0.656,2.08-1.357,3.037-2.062
	c1.904-1.42,3.583-2.858,4.942-4.172c2.737-2.609,4.25-4.648,4.25-4.648s-0.558,0.308-1.497,0.873
	C171.478,49.219,170.145,50.033,168.573,51.021z M179.023,22.553c-0.702,0.844-1.693,2.053-2.854,3.5
	c-0.582,0.721-1.214,1.498-1.881,2.322c-0.673,0.811-1.383,1.664-2.117,2.547c-1.478,1.748-3.063,3.586-4.751,5.295
	c-1.669,1.727-3.434,3.328-5.21,4.629c-0.89,0.646-1.769,1.242-2.649,1.711c-0.223,0.115-0.439,0.232-0.654,0.346
	c-0.221,0.099-0.44,0.187-0.653,0.291c-0.422,0.222-0.852,0.349-1.262,0.511c-0.412,0.151-0.821,0.229-1.208,0.354
	c-0.396,0.08-0.771,0.156-1.124,0.229c-0.716,0.071-1.359,0.147-1.894,0.129c-0.54,0.021-0.961-0.039-1.257-0.058
	c-0.298-0.018-0.455-0.026-0.455-0.026s0.142,0.069,0.406,0.201c0.271,0.11,0.659,0.354,1.203,0.493
	c0.536,0.193,1.21,0.345,2.009,0.453c0.402,0.023,0.83,0.047,1.281,0.074c0.449-0.022,0.934-0.035,1.426-0.102
	c0.985-0.138,2.064-0.349,3.123-0.769c1.077-0.383,2.169-0.893,3.226-1.524c1.066-0.621,2.091-1.363,3.09-2.162
	c0.982-0.813,1.94-1.683,2.834-2.604s1.743-1.879,2.527-2.856c0.792-0.974,1.518-1.968,2.189-2.947
	c1.331-1.967,2.443-3.877,3.296-5.564c1.727-3.364,2.484-5.789,2.484-5.789S179.723,21.707,179.023,22.553z M134.986,87.932
	c-0.837,0.396-1.743,0.824-2.701,1.277c-0.957,0.438-1.967,0.899-3.012,1.379c-2.088,0.934-4.314,1.902-6.574,2.713
	c-2.253,0.832-4.537,1.512-6.701,1.916c-1.082,0.195-2.133,0.352-3.13,0.393c-0.251,0.011-0.497,0.021-0.741,0.029
	c-0.239-0.008-0.477-0.022-0.713-0.021c-0.476,0.016-0.92-0.056-1.358-0.086c-0.438-0.043-0.839-0.152-1.241-0.205
	c-0.393-0.101-0.765-0.193-1.112-0.281c-0.676-0.244-1.29-0.455-1.763-0.705c-0.495-0.213-0.85-0.451-1.107-0.594
	c-0.26-0.146-0.397-0.224-0.397-0.224s0.097,0.125,0.279,0.357c0.195,0.221,0.439,0.604,0.869,0.967
	c0.4,0.406,0.94,0.836,1.614,1.279c0.353,0.192,0.728,0.402,1.124,0.621c0.414,0.174,0.854,0.373,1.329,0.524
	c0.945,0.306,2.011,0.582,3.146,0.662c1.138,0.121,2.342,0.135,3.567,0.021c1.229-0.097,2.475-0.322,3.721-0.609
	c1.238-0.307,2.479-0.676,3.684-1.119c1.206-0.444,2.385-0.938,3.516-1.481c1.135-0.531,2.22-1.115,3.25-1.705
	c2.053-1.197,3.882-2.438,5.381-3.588c3.016-2.285,4.747-4.142,4.747-4.142s-0.589,0.24-1.586,0.699
	C138.075,86.469,136.659,87.127,134.986,87.932z M81.359,165.883c0.701-0.48,1.393-0.994,2.093-1.5
	c0.347-0.256,0.702-0.5,1.043-0.77l0.984-0.855l1.969-1.717c1.237-1.219,2.433-2.48,3.572-3.734c1.034-1.35,2.066-2.662,2.986-3.977
	c0.823-1.375,1.618-2.705,2.373-3.965c0.693-1.295,1.219-2.595,1.766-3.742c0.266-0.58,0.518-1.135,0.759-1.662
	c0.241-0.525,0.376-1.049,0.554-1.527c0.326-0.969,0.611-1.811,0.845-2.504c0.461-1.391,0.724-2.186,0.724-2.186l-0.383-0.158
	c0,0-0.372,0.752-1.021,2.063c-0.32,0.658-0.709,1.457-1.155,2.373c-0.231,0.453-0.433,0.966-0.729,1.447
	c-0.296,0.48-0.605,0.986-0.928,1.514c-0.663,1.043-1.3,2.207-2.104,3.357c-0.846,1.123-1.737,2.307-2.659,3.531
	c-0.998,1.153-2.107,2.274-3.164,3.463c-1.166,1.08-2.369,2.154-3.597,3.18l-1.971,1.373l-0.977,0.678
	c-0.34,0.201-0.693,0.379-1.037,0.57c-0.688,0.375-1.374,0.736-2.032,1.119c-0.688,0.33-1.366,0.656-2.033,0.979
	c-1.291,0.73-2.64,1.212-3.854,1.847c-0.632,0.258-1.248,0.508-1.843,0.752c-0.298,0.131-0.59,0.258-0.877,0.385
	c-0.295,0.104-0.583,0.205-0.866,0.305c-0.568,0.191-1.107,0.418-1.632,0.605c-0.523,0.17-1.029,0.313-1.5,0.486
	c-0.471,0.18-0.92,0.29-1.336,0.413c-0.417,0.121-0.801,0.269-1.151,0.349c-0.706,0.192-1.263,0.346-1.642,0.449
	c-0.386,0.11-0.588,0.151-0.588,0.151l-0.023,0.414c0,0,0.845,0.287,2.359,0.471c0.756,0.089,1.684,0.164,2.746,0.156
	c1.063-0.012,2.27-0.061,3.564-0.268c1.315-0.131,2.69-0.506,4.159-0.875c1.421-0.498,2.966-0.961,4.413-1.767
	C79.89,166.709,80.648,166.348,81.359,165.883z M110.784,126.727c-0.129-2.735-0.505-5.352-0.878-7.813
	c-0.472-2.449-0.887-4.76-1.466-6.849c-0.271-1.047-0.5-2.053-0.771-3.002c-0.291-0.94-0.564-1.836-0.822-2.676
	c-0.26-0.836-0.499-1.619-0.724-2.344c-0.262-0.705-0.502-1.354-0.719-1.939c-0.873-2.338-1.372-3.674-1.372-3.674l-0.597,0.185
	c0,0,0.332,1.385,0.914,3.813c0.144,0.607,0.304,1.279,0.478,2.01c0.146,0.73,0.299,1.523,0.465,2.367
	c0.164,0.844,0.341,1.738,0.525,2.685c0.166,0.946,0.287,1.959,0.441,3.004c0.352,2.084,0.515,4.366,0.722,6.764
	c0.096,2.404,0.265,4.93,0.139,7.535c-0.018,0.647-0.036,1.305-0.055,1.963c-0.059,0.658-0.114,1.318-0.172,1.981
	c-0.059,0.664-0.114,1.33-0.171,2.003c-0.097,0.663-0.19,1.329-0.287,2.002c-0.104,0.668-0.173,1.344-0.307,2.01
	c-0.139,0.662-0.278,1.328-0.419,1.996c-0.237,1.342-0.666,2.641-1.016,3.951c-0.166,0.659-0.422,1.291-0.646,1.93
	c-0.229,0.639-0.447,1.276-0.698,1.899c-0.579,1.22-1.041,2.476-1.705,3.623c-0.312,0.582-0.619,1.162-0.927,1.738
	c-0.336,0.562-0.671,1.115-1.004,1.668c-0.635,1.119-1.38,2.15-2.042,3.205c-1.4,2.062-2.814,4.014-4.261,5.809
	c-1.471,1.769-2.905,3.437-4.35,4.88c-1.431,1.455-2.792,2.774-4.071,3.875c-1.26,1.127-2.414,2.065-3.379,2.836
	c-0.966,0.77-1.753,1.352-2.291,1.752c-0.543,0.393-0.832,0.602-0.832,0.602l0.213,0.586c0,0,1.497-0.156,3.961-0.967
	c0.617-0.199,1.286-0.453,2.022-0.729c0.711-0.314,1.5-0.636,2.312-1.035c1.634-0.785,3.417-1.81,5.274-3.076
	c1.87-1.254,3.743-2.836,5.61-4.642c1.862-1.813,3.607-3.952,5.206-6.307c1.497-2.416,2.896-5.018,3.894-7.822l0.406-1.037
	l0.344-1.063c0.229-0.709,0.459-1.418,0.688-2.129c0.357-1.451,0.813-2.877,1.102-4.34c0.28-1.463,0.633-2.91,0.787-4.381
	c0.098-0.73,0.193-1.459,0.292-2.188c0.09-0.727,0.11-1.457,0.169-2.18c0.049-0.726,0.098-1.445,0.146-2.16
	c0.001-0.719,0.002-1.433,0.004-2.142c-0.003-0.707-0.006-1.409-0.009-2.106C110.882,128.1,110.825,127.41,110.784,126.727z
	 M62.234,104.068c-0.449-2.569-0.697-5.155-1.01-7.627c-0.281-2.477-0.634-4.858-1.173-7.049c-0.551-2.188-1.319-4.17-2.387-5.903
	c-1.037-1.757-14.957-20.974-46.461-7.675C7.857,77.232,4.152,78.861,0,80.762c0.015-0.027,0.039-0.059,0.056-0.086
	c-0.016,0.006-0.043,0.021-0.043,0.021s0.105-0.142,0.157-0.209c8.604-6.023,23.34-13.986,36.586-13.326
	C54.701,68.49,60.529,78.08,62.175,80.316c1.682,2.191,2.914,4.806,3.696,7.455c0.81,2.654,1.21,5.34,1.541,7.929
	c0.271,2.514,0.541,5.026,0.808,7.502c0.313,2.393,0.63,4.703,1.188,6.84c0.104,0.551,0.297,1.055,0.438,1.578
	c0.15,0.521,0.299,1.039,0.49,1.526c0.182,0.498,0.359,0.99,0.535,1.479c0.214,0.469,0.426,0.934,0.633,1.393l0.307,0.691
	l0.359,0.649c0.237,0.437,0.472,0.863,0.701,1.285c0.504,0.816,1.033,1.59,1.529,2.351c0.559,0.725,1.092,1.418,1.6,2.078
	c0.563,0.633,1.096,1.231,1.598,1.797c0.483,0.594,1.052,1.024,1.506,1.516c0.478,0.473,0.915,0.904,1.31,1.297
	c0.85,0.709,1.497,1.322,1.954,1.721c0.45,0.414,0.69,0.638,0.69,0.638s-0.305-0.113-0.873-0.328
	c-0.563-0.229-1.408-0.537-2.46-0.998c-1.004-0.533-2.293-1.113-3.643-2.002c-0.675-0.455-1.393-0.939-2.149-1.447
	c-0.714-0.576-1.447-1.209-2.229-1.865c-0.723-0.713-1.466-1.479-2.214-2.301c-0.344-0.436-0.693-0.881-1.05-1.332l-0.534-0.688
	c-0.16-0.244-0.321-0.49-0.483-0.738c-1.361-1.963-2.411-4.271-3.306-6.688c-0.201-0.612-0.404-1.229-0.609-1.85
	c-0.163-0.625-0.327-1.256-0.493-1.891C62.702,106.646,62.427,105.35,62.234,104.068z M40.376,68.766
	c-0.002-0.002-0.006-0.006-0.009-0.008c-0.018,0-0.033-0.002-0.053-0.002C40.335,68.76,40.356,68.762,40.376,68.766z M45.63,71.111
	c0.03,0.013,0.055,0.021,0.088,0.031C45.823,71.174,45.754,71.148,45.63,71.111z M90.563,78.875l-0.011-0.021
	c-0.105,0.34-0.203,0.668-0.299,0.99l-0.006,0.02v0.001c-1.153,3.953-1.423,6.586-1.449,6.877c0,0,10.145-20.045,24.679-31.195
	c4.582-3.516,10.015-6.975,15.766-10.637c36.118-21.548,36.359-41.882,36.359-41.882c-9.764,19.365-24.198,27.863-38.158,36.082
	c-6.397,3.767-12.44,7.322-17.878,11.813C98.798,59.813,93.582,70.047,91.07,77.3c0-0.001-0.002-0.008-0.002-0.008l-0.053,0.166
	c-0.057,0.161-0.117,0.33-0.17,0.488l0.006,0.025L90.563,78.875z" class="color c1"/>
</svg>