<svg version="1.1" id="图层_1" x="0px" y="0px" width="142.418px" height="151.629px" viewBox="0 0 142.418 151.629" enable-background="new 0 0 142.418 151.629" xml:space="preserve" xmlns="http://www.w3.org/2000/svg" xmlns:xlink="http://www.w3.org/1999/xlink" xmlns:xml="http://www.w3.org/XML/1998/namespace">
  <path fill="#142547" d="M141.528,64.629c-1.484-5.526-4.822-9.451-9.556-12.928c-1.005-0.739-2.046-1.431-3.078-2.137
	c0.06-0.061,0.116-0.124,0.172-0.188c0.351-0.404,3.417-3.674,3.356-3.908c-0.037-0.135-6.303-2.283-8.15-4.865
	C134.439,28.118,129.161,9.479,117.159,0c-0.488,0.24-0.752,0.711-0.686,1.221c0.451,3.44-2.117,8.646-4.027,11.49
	c-3.424,5.096-7.342,4.994-11.939,3.389c-2.766-1.408-5.555-2.77-8.475-3.885c-6.953-2.656-14.38-3.771-20.986-0.229
	C64.44,8.443,57.014,9.559,50.06,12.215c-2.919,1.115-5.708,2.477-8.472,3.885c-4.6,1.605-8.517,1.707-11.942-3.389
	c-1.909-2.844-4.479-8.05-4.026-11.49c0.065-0.51,0.271-0.98-0.216-1.221c-0.568,0.559-1.13,1.08-1.686,1.589
	c-0.75,0.638-1.456,1.284-2.107,1.946c-1.448,1.367-2.798,2.787-3.957,4.629c-6.117,9.73-7.988,22.428,0.163,32.439
	c-0.807,1.13-1.962,2.29-3.208,2.79l-3.45,1.383c-0.389,0.156-0.651,0.444-0.752,0.827c-0.1,0.381-0.012,0.752,0.254,1.057
	l2.366,2.717c0.056,0.063,0.113,0.127,0.172,0.188c-1.032,0.706-2.073,1.397-3.078,2.137C6.348,54.471,0.022,62.327,0,70.433
	l3.165-1.235c-0.55,3.316-0.282,6.795,0.14,10.094c0.38,2.97,0.887,5.854,1.153,8.838c0.943,8.715-2.942,9.384-2.695,9.771
	c0.667,1.045,4.816,0.519,6.175,0.49c0.151-0.004,0.302-0.011,0.454-0.021c0.352,3.341,1.29,6.537,2.57,9.693
	c0.799,1.967,1.723,3.886,2.498,5.859c0.601,1.532,2.117,5.594,1.16,9.794c1.185,0.905,6.734-1.301,8.07-2.231
	c1.551,1.58,3.332,2.983,5.197,4.218c3.206,2.118,5.116,6.728,2.092,9.476c1.242,1.651,7.804,0.24,9.619-1.342
	c0.167-0.146,0.333-0.302,0.491-0.461c0.105,0.098,0.209,0.195,0.314,0.296c4.589,4.34,3.292,6.711,3.487,7.943
	c0.172,0.126,3.101-0.296,4.419-1.825c0.036-0.012,0.073-0.02,0.111-0.032c1.286,0.989,2.799,1.771,4.389,2.205
	c5.223,1.435,10.788,3.586,11.405,9.452c0.366,0.021,1.561-2.029,1.939-2.545c4.04,3.076,17.303,3.52,18.021,1.639
	c-1.465-1.015-9.328-4.578,5.107-8.546c1.59-0.437,3.104-1.216,4.389-2.205c0.037,0.013,0.074,0.021,0.111,0.032
	c1.146,0.328,4.215,1.586,5.122,0.92c-0.877-1.518,0.04-4.052,1.328-5.104c0.543-0.443,1.116-0.873,1.647-1.321
	c0.193-0.163,0.382-0.327,0.565-0.491c0.015,0.014,0.033,0.027,0.048,0.043c1.854,1.618,8.465,2.88,9.618,1.342
	c-0.935-0.885-1.646-3.855-1.13-5.773c0.413-1.532,1.891-2.819,3.223-3.701c1.867-1.233,3.646-2.637,5.198-4.217
	c1.123,0.783,3.5,2.761,8.069,2.23c-0.938-1.687-0.143-6.476,1.16-9.794c0.775-1.975,1.699-3.893,2.498-5.858
	c1.281-3.157,2.219-6.354,2.572-9.694c0.15,0.011,0.301,0.019,0.453,0.021c1.358,0.028,5.51,0.557,6.176-0.49
	c-1.529-0.741-3.225-4.528-2.764-9.702c0.268-2.981,0.842-5.935,1.221-8.904c0.422-3.299,0.69-6.777,0.141-10.094
	c0.49-0.16,3.309-0.62,3.471-0.888C142.57,68.027,141.657,65.102,141.528,64.629z" class="color c1"/>
  <path fill="#E7192C" d="M113.729,48.346c-5.77-4.962-7.086-9.752-7.086-9.752c1.859,1.925,3.936,3.403,6.018,4.544
	c-0.58-1.835-0.611-3.018-0.611-3.018c3.631,2.703,5.416,2.47,5.416,2.47c-1.785-2.027-2.1-3.911-2.1-3.911l0.268-0.009
	c-0.393-0.758-0.572-1.246-0.572-1.246c10.283-1.895,10.291-14.335,10.27-15.486c-0.853-7.197-3.813-12.487-4.974-14.324
	c0.038,0.092,5.621,14.17-9.252,24.296c0,0,1.944-2.569,1.254-5.487c-0.69-2.919-5.261-4.219-5.261-4.219
	c-3.587-1.232-9.059-4.675-15.115-7.133c0,0-5.094-0.845-7.939-1.135c-2.848-0.291-8.188,2.96-8.407,3.416
	c-0.22,0.456,3.687-0.504,8.047-0.181c4.358,0.325,6.267,2.604,10.788,5.388c4.521,2.783-5.698-1.953-9.779-2.243
	c-4.082-0.292-9.23,3.281-9.563,3.905c-0.33,0.623,6.692-2.035,10.554-1.039c3.858,0.997,12.978,7.894,19.007,10.47
	c6.029,2.576,7.574,1.413,8.198,1.662c0.626,0.249-2.757,1.786-8.382,0.374c-5.627-1.413-18.603-7.729-21.176-7.729
	c-1.063,0-2.584,0.232-4.313,0.744c-0.216,0.103-4.239,2.037-4.942,4.227c-0.72,2.246,2.477,1.691,12.508,11.034
	c0,0,1.315,1.518,0.627,4.145c-0.689,2.628-0.252-1.401-3.01-3.386c-2.758-1.986-10.031-3.736-10.721-3.854
	c-0.689-0.117,5.079,5.547,6.145,8.991c1.066,3.444-0.187,4.263-1.566,7.765c-1.381,3.502,0.313-3.328-0.313-5.313
	c-0.629-1.985-6.698-5.781-6.698-5.781s-6.068,3.796-6.695,5.781c-0.627,1.984,1.065,8.814-0.313,5.313
	c-1.379-3.502-2.633-4.32-1.568-7.765c1.067-3.444,6.835-9.108,6.145-8.991c-0.69,0.117-7.962,1.867-10.721,3.854
	c-2.759,1.984-2.32,6.014-3.009,3.386c-0.69-2.627,0.627-4.145,0.627-4.145c10.031-9.343,13.229-8.788,12.507-11.034
	c-0.702-2.188-4.721-4.121-4.941-4.227c-1.73-0.512-3.25-0.744-4.314-0.744c-2.574,0-15.55,6.315-21.175,7.729
	c-5.626,1.412-9.009-0.125-8.384-0.374s2.171,0.914,8.2-1.662c6.03-2.576,15.148-9.473,19.008-10.47
	c3.86-0.996,10.883,1.662,10.552,1.039c-0.33-0.624-5.479-4.197-9.56-3.905c-4.081,0.29-14.302,5.026-9.779,2.243
	c4.521-2.783,6.428-5.063,10.787-5.388c4.361-0.323,8.268,0.637,8.047,0.181c-0.218-0.456-5.56-3.707-8.406-3.416
	c-2.847,0.29-7.94,1.135-7.94,1.135c-6.056,2.458-11.527,5.9-15.115,7.133c0,0-4.572,1.3-5.261,4.219
	c-0.69,2.918,1.253,5.487,1.253,5.487c-14.921-10.159-9.25-24.3-9.25-24.3c-1.278,2.021-4.766,8.25-5.174,16.621
	c0.096,1.122,0.208,2.191,0.348,3.221c0.175,1.074,1.748,9.104,9.815,11.228c0,0-0.313,1.884-2.101,3.911
	c0,0,1.787,0.233,5.417-2.47c0,0-0.111,4.938-4.856,10.345c-4.747,5.407-8.811,14.053-9.039,16.307
	c4.509-9.714,13.166-18.799,11.786-15.764c-0.293,0.646-0.939,1.731-1.734,3.122l0.001-0.001c0,0-2.13,9.541-2.354,13.96
	c-0.223,4.421,3.692,10.29,3.692,10.29h0.001c-0.618-1.207-1.076-2.277-1.255-3.063c-0.878-3.854,0.877-13.312,0.877-13.312
	c0.753-3.474,2.006-5.751,1.63-3.24c-0.377,2.511-0.439,12.96,0.249,14.479c0.69,1.519,2.948,4.962,4.704,5.547
	c1.755,0.584,13.04,2.161,14.043,1.343c1.004-0.817,4.388-5.255,4.201-4.671v0.001l0,0c0,0-1.003,6.658-1.617,8.166
	c-0.614,1.509-2.721,2.015-5.304,3.226c0,0-0.671,0.545-0.224,1.533c0.446,0.987,4.298,5.692,5.443,6.315
	c1.145,0.625,2.096-0.854,2.208-1.769c0,0,0,0,0.001-0.002c0.094-1.154,0.369-2.262,0.703-3.225h-0.001h0.001
	c0.277-0.8,0.593-1.498,0.883-2.043l-0.001-0.002c0,0,0.284-1.494,0.4-4.035c0.001-0.008,0.002-0.018,0.002-0.023
	c0.002-1.101,0.113-2.815,0.348-5.147c0.369-3.67,0.311-7.392-2.588-7.031c-4.55,0.564-8.242-1.177-5.916-1.021
	c2.326,0.157,3.488-0.47,3.488-0.47c-11.527-0.629-10.888-10.077-10.888-10.077c-0.942-0.031-3.741,0.125-4.347,1.192
	c-0.607,1.067-0.673,9.543-1.348,9.166c-0.675-0.375-2.796-7.408-2.694-10.485c-0.024-8.513,6.167-17.743,15.212-21.384
	c7.087-2.851,13.333-3.825,15.712-4.114c0.196-0.064,0.386-0.132,0.583-0.194c0,0,0.346-0.102,0.456,0.073
	c0.001,0.002-0.005,0.008-0.007,0.011c0.001,0,0.005,0,0.005,0c-0.002,0.002-0.005,0.004-0.007,0.006
	c-0.017,0.025-0.087,0.077-0.215,0.159C57.262,38.018,48.5,46.675,53.422,50.6c3,2.393,5.292,5.14,6.648,6.957
	c0.442,0.552,0.847,1.125,1.209,1.719c0.119,0.184,0.187,0.293,0.187,0.293l0.005,0.034c0.08,0.14,0.17,0.275,0.246,0.417
	c0.831,1.579,1.032,2.184,0.801,2.193l0.004,0.008c0,0,1.29,1.6-1.111,11.063c-2.303,9.075-7.371,17.813-2.118,23.514
	c2.571-2.873,3.042-2.183,5.295-0.955c2.571,1.402,6.457,2.859,6.457,2.859s3.887-1.457,6.458-2.859
	c2.57-1.401,2.822-2.104,6.521,2.394c0,0,4.892-4.027,2.947-11.15c0,0-0.235-0.512,0.172-0.643c0.229-0.073,2.167,2.998,2.453,6.498
	c0.114,0.914,1.063,2.387,2.208,1.764s4.996-5.328,5.443-6.316c0.444-0.988-0.226-1.533-0.226-1.533
	c-2.582-1.211-4.688-1.715-5.304-3.225c-0.613-1.508-1.617-8.166-1.617-8.166l0.003,0.004c-0.001-0.002-0.001-0.004-0.002-0.005
	c-0.187-0.584,3.198,3.854,4.202,4.671c1.003,0.818,12.287-0.759,14.042-1.343c1.755-0.585,4.012-4.028,4.702-5.547
	c0.689-1.519,0.625-11.968,0.25-14.479c-0.377-2.511,0.877-0.233,1.629,3.24c0,0,1.756,9.458,0.878,13.312
	c-0.179,0.785-0.638,1.855-1.255,3.063l0,0c0,0,3.916-5.869,3.691-10.29c-0.214-4.241-2.182-13.19-2.341-13.908
	c-0.81-1.415-1.467-2.52-1.764-3.173c-1.108-2.439,4.263,2.951,8.756,10.203l0.002-0.003
	C121.344,57.139,119.497,53.309,113.729,48.346z M84.911,92.912c-0.177,1.084-0.475,1.684-0.65,1.613
	c-0.438-0.174-2.006-2.627-3.135-2.627s-8.34,3.91-10.08,3.561c-1.739-0.352-8.635-4.67-9.23-4.699
	c-0.595-0.029-3.825,2.334-3.449,1.576c0.376-0.76,2.759-3.795,3.637-3.736c0.877,0.059,7.538,2.744,8.134,3.021
	c0.597,0.277,0.908,0.188,0.908,0.188c2.367-0.759,8.482-2.744,8.981-3.912c1.237-2.875-3.116-17.497-0.626-23.527
	C78.75,75.986,86.149,85.242,84.911,92.912z M111.553,59.731L111.553,59.731c0.101,3.077-2.021,10.11-2.694,10.485
	c-0.675,0.377-0.741-8.099-1.348-9.166c-0.605-1.067-3.405-1.224-4.349-1.192c0,0,0.641,9.448-10.887,10.077
	c0,0,1.162,0.627,3.487,0.47c2.325-0.156-1.365,1.585-5.915,1.021c-2.9-0.36-2.958,3.361-2.59,7.031
	c0.871,8.652,0.063,8.891-1.809,0.186c-0.578-2.686-1.873-8.908-2.082-11.721c-0.162-2.184-0.171-3.847,0.641-5.249v-0.007
	c0,0,0.021-0.034,0.054-0.086c0.04-0.066,0.083-0.131,0.128-0.197c0.469-0.704,1.811-2.574,3.508-3.677c0,0-2.173-0.177-7.371,4.038
	l0,0c-1.021,0.842-1.246,0.732,0.047-1.725c0.076-0.143,0.166-0.277,0.246-0.418l0.006-0.033c0,0,0.064-0.106,0.182-0.285
	c0.365-0.602,0.775-1.182,1.223-1.738c1.359-1.818,3.646-4.559,6.641-6.945c4.92-3.924-3.836-12.58-8.854-16.311
	c-0.13-0.082-0.201-0.135-0.218-0.161c-0.002-0.002-0.004-0.004-0.007-0.005c0,0,0.004,0,0.005,0
	c-0.001-0.003-0.009-0.009-0.007-0.011c0.111-0.175,0.455-0.073,0.455-0.073c0.197,0.063,0.387,0.13,0.582,0.194
	c2.379,0.289,8.627,1.263,15.717,4.114C105.389,41.988,111.581,51.219,111.553,59.731L111.553,59.731z" class="color c2"/>
  <path fill="#D3CCC1" d="M96.61,59.754c0,0-8.896-0.934-11.173,4.264C87.151,70.104,98.784,67.288,96.61,59.754z" class="color c3"/>
  <path fill="#D3CCC1" d="M56.652,64.018c-2.274-5.197-11.171-4.264-11.171-4.264C43.306,67.288,54.94,70.104,56.652,64.018z" class="color c3"/>
  <path fill="#FFFFFF" d="M79.6,34.128l-0.008-0.005h0.006L79.6,34.128z M80.622,59.601c0.061-0.107,0.123-0.213,0.187-0.318
	c-0.117,0.179-0.183,0.285-0.183,0.285L80.622,59.601z M84.063,61.58c-0.033,0.052-0.055,0.086-0.055,0.086l0.002,0.007
	C84.029,61.643,84.043,61.61,84.063,61.58z M100.482,50.59c-0.25,0.352-1.035,1.373-1.879,2.161
	c-0.847,0.788-1.913,0.759-1.913,0.759c-3.136,0.117-9.216,2.861-9.216,2.861c-2.623,1.046-5.693,4.174-7.146,5.373
	c5.198-4.215,7.371-4.038,7.371-4.038c-1.697,1.103-3.039,2.973-3.508,3.677c0.557-0.816,1.421-1.549,2.75-2.246
	c3.708-1.946,8.021-2.135,12.406-2.008c1.224,0.033,2.119-0.015,2.792-0.13c1.618-0.276,3.048-1.567,2.853-3.161
	c-0.045-0.36-0.135-0.775-0.26-1.227c-0.75-2.698-2.792-6.695-4.304-8.104c-2.157-2.009,3.979,0.564,9.911,10.484
	c0,0,1.115,1.664,1.215,4.739h0.001c0.026-8.513-6.166-17.743-15.209-21.384c-7.089-2.852-13.337-3.825-15.716-4.114
	C95.995,39.293,100.729,50.244,100.482,50.59z M88.672,50.6c-2.993,2.387-5.281,5.127-6.641,6.945
	c3.68-4.584,9.649-7.637,10.506-8.385c1.002-0.875,0.94-1.868,0.94-1.868c-4.187-7.589-12.215-12.072-13.659-13.003
	C84.834,38.019,93.592,46.676,88.672,50.6z M97.67,132.57c-1.52,1.217-2.75,2.256-2.666,3.524c0,0-2.321-2.247,1.328-6.212
	c0,0-3.944,2.309-3.998,5.613c-0.785,0.975-2.123,2.183-4.223,2.76c-3.824,1.051-9.029,2.512-10.785,5.662
	c0,0-1.306-3.555,3.396-5.977c0,0-3.299-0.034-5.314,2.56l0.002,0.005c-1.664,2.035-1.803,5.438,0.223,7.324
	c0,0-7.688,0.73-9.999-6.596c-0.082,1.604-0.866,2.684-0.866,2.684c-1.756-3.15-6.959-4.611-10.783-5.662
	c-2.101-0.577-3.44-1.786-4.225-2.761c-0.054-3.302-4-5.612-4-5.612c3.652,3.965,1.329,6.212,1.329,6.212
	c0.082-1.223-1.379-2.86-3.066-4.5c-1.211-3.682,0.097-8.155,3.936-7.319c0.436,0.097,0.917,0.262,1.377,0.492
	c0.08,0.129,0.134,0.209,0.134,0.209s-0.094-0.367-0.137-0.901l-0.02-0.612c0.013-0.723,0.158-1.581,0.662-2.279
	c0.214-0.3,0.605-0.596,1.089-0.882c0.184,0.787,0.406,1.566,0.639,2.259c1.038,3.08,2.768,6.056,5.455,8.151
	c0.404,0.349,1.118,0.638,1.614,0.259c0.395-0.3,0.158-2.193,0.129-2.63c-0.102-1.586-0.197-3.168-0.182-4.756
	c0.012-1.267,0.09-2.981,0.491-4.382l0.568-0.02c0,0,5.899-3.508,9.165-4.461c0.157,0.657,0.635,1.691,2.102,1.691
	c1.234,0,1.768-0.73,2-1.354c2.771,0.813,6.689,2.314,9.584,3.416c0.627,1.486,0.736,3.608,0.75,5.106
	c0.015,1.588-0.082,3.17-0.183,4.756c-0.028,0.437-0.265,2.33,0.13,2.63c0.498,0.379,1.211,0.09,1.613-0.259
	c2.688-2.095,4.417-5.071,5.454-8.151c0.351-1.037,0.676-2.26,0.876-3.431c1.549-0.642,2.346,0.277,2.591,1.565
	c-0.003,0.259,0.025,0.467,0.077,0.637c0.006,0.111,0.009,0.225,0.009,0.336c-0.007,2.036-0.812,3.096-0.562,3.005
	c0.492-0.18,1.816-0.899,3.486-0.647C98.972,124.943,100.997,125.631,97.67,132.57z M81.096,128.9
	c-6.047-6.151-16.937-4.526-21.238,0.067C67.537,126.991,73.472,127.363,81.096,128.9z M129.563,92.826
	c-0.072-0.102-0.139-0.209-0.205-0.317l-0.004,0.013c-0.402,9.047-9.43,21.112-5.893,26.642
	C122.801,111.91,130.821,105.182,129.563,92.826z M133.649,66.079c-0.302-0.532-0.622-1.035-0.963-1.516
	c-0.087-0.113-0.167-0.229-0.26-0.338c0.012,0.008,0.021,0.013,0.033,0.02c-1.551-2.074-3.586-3.729-6.713-5.486
	c10.325,7.348,6.926,16.509,6.174,25.673c-0.61,7.428,1.295,9.445,2.041,9.944c0.096,0.05,0.185,0.104,0.285,0.149
	C130.924,89.115,137.92,74.433,133.649,66.079z M112.047,40.12c0,0,0.031,1.183,0.609,3.018c6.569,3.601,13.184,3.806,13.184,3.806
	c-5.926-1.27-9.028-5.995-10.209-8.274l-0.269,0.009c0,0,0.313,1.884,2.101,3.911C117.463,42.59,115.676,42.823,112.047,40.12z
	 M62.494,34.123l-0.002,0.006l0.007-0.006H62.494z M61.47,59.602l-0.004-0.034c0,0-0.067-0.109-0.187-0.293
	C61.344,59.382,61.408,59.492,61.47,59.602z M41.665,44.508c-1.512,1.408-3.554,5.405-4.304,8.104
	c-0.125,0.451-0.215,0.866-0.259,1.227c-0.196,1.594,1.233,2.885,2.852,3.161c0.672,0.115,1.566,0.163,2.792,0.13
	c4.381-0.127,8.696,0.062,12.405,2.008c3.707,1.946,3.842,4.143,3.572,7.785c-0.207,2.813-1.502,9.035-2.08,11.722
	c-1.367,6.356-2.166,7.938-2.158,4.961c0,0.008-0.001,0.018-0.002,0.024c-0.116,2.541-0.4,4.035-0.4,4.035l0.001,0.002
	c0.416-0.789,0.774-1.255,0.865-1.226c0.408,0.131,0.172,0.643,0.172,0.643c-1.943,7.123,2.947,11.15,2.947,11.15
	c0.458-0.558,0.862-1.032,1.226-1.438c-5.253-5.699-0.186-14.438,2.118-23.514c2.401-9.463,1.111-11.063,1.111-11.063l-0.004-0.008
	c-0.639,0.031-4.619-4.534-7.9-5.842c0,0-6.08-2.744-9.215-2.861c0,0-1.066,0.029-1.913-0.759c-0.846-0.788-1.63-1.81-1.881-2.161
	c-0.247-0.346,4.488-11.296,19.853-16.356c-2.379,0.289-8.625,1.264-15.712,4.114c-9.045,3.641-15.236,12.871-15.212,21.384
	c0.1-3.075,1.213-4.739,1.213-4.739C37.685,45.072,43.822,42.499,41.665,44.508z M48.613,47.292c0,0-0.062,0.993,0.941,1.868
	c0.858,0.748,6.838,3.806,10.517,8.396c-1.357-1.817-3.648-4.564-6.648-6.957c-4.922-3.925,3.839-12.582,8.854-16.312
	C60.841,35.213,52.804,39.697,48.613,47.292z M52.497,92.934c-0.001,0-0.001,0-0.001,0.002c-0.111,0.914-1.063,2.393-2.208,1.768
	c-1.145-0.623-4.997-5.328-5.443-6.316c-0.447-0.988,0.224-1.533,0.224-1.533c2.583-1.211,4.689-1.715,5.304-3.225
	c0.613-1.508,1.617-8.166,1.617-8.166c-0.189,0.587-1.441,4.467-1.975,5.663c-0.532,1.196-1.537,1.487-1.537,1.487
	c-7.577,1.396-8.337,1.343-7.961,1.869c0.376,0.524,5.644,10.566,6.646,11.91c1.003,1.344,6.207,4.028,5.768,3.971
	c-0.438-0.059-6.708-0.76-8.212-2.688c-1.506-1.926-10.407-15.88-10.659-14.771c-0.25,1.108,2.131,8.174,1.38,7.53
	c-0.6-0.512-5.487-7.347-7.899-12.059H27.54c0,0-3.915-5.869-3.692-10.29c0.224-4.419,2.354-13.96,2.354-13.96L26.2,54.13
	c-2.948,5.153-7.971,14.528-4.911,21.517c3.888,8.875,16.992,25.31,17.023,23.354c0.031-1.956-1.161-3.271-1.161-3.271
	c2.545,0.982,4.333,4.965,5.545,7.754c0.529,1.222,2.082,2.711,3.524,1.951c1.543-0.816,3.373-1.886,3.373-1.886
	c-0.029,0.033-0.052,0.062-0.081,0.097c1.523-0.785,2.856-1.181,2.856-1.181s-4.264,2.63-4.765,5.431
	c-0.042,0.236-0.065,0.522-0.071,0.844c0.335,0.273,1.009,0.46,2.369,0.053c2.633-0.789,4.715-0.523,6.032-0.582
	c0,0-6.208,1.488-7.43,3.007c-0.346,0.431-0.538,0.919-0.64,1.402c0.037,0.259,0.076,0.519,0.117,0.778
	c0.995,0.418,3.794-1.512,7.154-1.369c0,0-5.336,2.227-6.089,3.877c-0.122,0.268-0.218,0.55-0.295,0.832
	c0.476,0.619,1.146,1.005,1.928,1.236c-0.005-0.054-0.016-0.111-0.021-0.166l-0.029-0.385l7.304,0.113
	c3.401-1.612,8.219-3.827,10.847-4.739c-0.704-7.204-5.181-7.963-12.388-12.196C53.045,98.634,52.272,95.654,52.497,92.934z
	 M121.454,48.227c1.086,6.935,13.59,9.117,16.051,17.339C134.709,55.155,124.045,52.871,121.454,48.227z M118.597,103.506h-0.005
	c-3.135,1.254-5.604,1.293-5.604,1.293c1.186-0.352,2.272-0.799,3.285-1.313c12.26-6.502,12.469-28.229,11.813-29.042
	c-0.658-0.818-1.818-2.162-2.477-2.104c-0.658,0.058-0.943,0.619-0.943,0.619l-0.002-0.008c-0.674,5.479-7.463,24.759-9.672,28.225
	c-0.002,0.001-0.879,0.116-0.379-6.071c0,0-0.063-0.586-0.939,0.088c-0.869,0.664-7.338,3.916-13.006,11.982
	c-1.799,3.383,1.162,5.633,4.852,8.02c3.699,2.396,6.458,1.52,6.458,1.52c9.603-5.342,11.409-15.15,11.409-15.15
	C121.288,102.85,118.597,103.506,118.597,103.506z M90.723,115.441c-0.202-1.877-5.439-2.943-5.439-2.943
	c1.315,0.061,3.465-0.139,6.098,0.65c0.468,0.14,0.847,0.229,1.16,0.283c0.5-0.813,0.816-1.627,1.016-2.246
	c-1.283-1.506-7.398-2.975-7.398-2.975c1.318,0.059,3.399-0.34,6.033,0.447c1.514,0.453,2.135,0.395,2.391,0.264
	c-0.013-0.378-0.039-0.729-0.092-1.025c-0.503-2.801-4.765-5.43-4.765-5.43s2.663,0.783,4.767,2.36v-0.005
	c0,0,2.344,1.271,3.285,1.505c0.939,0.233,3.071-9.021,7.146-10.597c0,0-1.192,1.313-1.161,3.271
	c0.032,1.955,13.137-14.479,17.024-23.354c3.051-6.965-1.932-16.303-4.883-21.466c0.159,0.718,2.126,9.667,2.342,13.908
	c0.224,4.421-3.691,10.29-3.691,10.29h-0.001c-2.412,4.712-7.298,11.547-7.898,12.059c-0.752,0.644,1.63-6.422,1.38-7.53
	c-0.25-1.109-9.152,12.845-10.658,14.771c-1.504,1.928-7.773,2.629-8.213,2.688c-0.438,0.059,4.766-2.627,5.77-3.971
	c1.003-1.344,6.27-11.386,6.646-11.91c0.377-0.526-0.386-0.474-7.963-1.869c0,0-1.002-0.291-1.535-1.487
	c-0.531-1.194-1.781-5.063-1.974-5.659l-0.003-0.004c0,0,1.004,6.658,1.617,8.166c0.613,1.51,2.722,2.014,5.304,3.225
	c0,0,0.67,0.545,0.226,1.533c-0.446,0.988-4.299,5.693-5.443,6.316s-2.094-0.85-2.208-1.764c0.218,2.717-0.556,5.693-3.899,7.66
	c-7.201,4.231-11.678,4.992-12.387,12.181c2.41,0.52,5.701,1.528,9.332,2.928C86.522,117.204,89.057,116.654,90.723,115.441z
	 M41.564,107.395C35.859,99.163,29.278,95.863,28.4,95.193c-0.878-0.674-0.941-0.088-0.941-0.088
	c0.501,6.188-0.376,6.071-0.376,6.071c-2.381-3.737-10.093-25.865-9.716-29.252c0.376-3.386,1.85-6.275,1.066-6.102
	C17.65,66,16.149,66.77,16.149,66.77c0.228-2.254,4.292-10.899,9.039-16.307c4.745-5.407,4.856-10.345,4.856-10.345
	c-3.63,2.703-5.417,2.47-5.417,2.47c1.787-2.027,2.101-3.911,2.101-3.911s-1.865,1.521-3.958,1.374c0,0-1.936,4.877-6.266,6.773
	c1.74,0.438,5.467,0.655,10.154-3.207c0,0-1.877,4.77-7.031,5.947c-3.644,3.848-12.523,6.635-15.039,16.002
	c4.148-5.223,9.88-8.095,14.644-8.316c-4.844,2.375-7.615,4.339-9.599,6.994c0.011-0.007,0.021-0.012,0.032-0.02
	c-0.091,0.107-0.169,0.223-0.255,0.334c-0.343,0.482-0.665,0.986-0.968,1.521c-4.269,8.354,2.725,23.034-0.596,28.444
	c7.267-3.318,0.866-16.231,5.179-20.984c-1.301,3.972,2.653,15.005-0.499,19.286c-1.258,12.354,6.761,19.084,6.102,26.337
	c0,0,3.216-1.455,2.401-9.163c0,0,0.703,2.271,1.423,4.038c0-0.003,0.001-0.007,0.001-0.012c0,0,0.009,0.027,0.023,0.07
	c0.174,0.428,0.35,0.821,0.517,1.146c0.826,1.535,2.81,4.339,7.296,7.306c0.128,0.085,0.249,0.171,0.372,0.259
	c3.873,2.37,7.22,1.211,10.402-1.984C44.26,117.609,47.269,115.626,41.564,107.395z M54.84,120.084
	c-0.209-0.014-0.417-0.034-0.618-0.063c-0.745-0.114-1.455-0.33-2.124-0.631c1.551,7.192,5.236,10.012,5.236,10.012
	c-1.278-3.096-1.502-6.108-1.468-8.088C55.861,120.338,54.84,120.084,54.84,120.084z M86.23,121.314
	c0.035,1.979-0.19,4.994-1.469,8.088c0.001,0,3.688-2.818,5.237-10.01c-0.668,0.301-1.379,0.516-2.123,0.629
	c-0.203,0.028-0.41,0.051-0.619,0.063C87.256,120.085,86.236,120.339,86.23,121.314z" class="color c4"/>
</svg>