<svg version="1.1" id="图层_1" x="0px" y="0px" width="123.749px" height="127.777px" viewBox="0 0 123.749 127.777" enable-background="new 0 0 123.749 127.777" xml:space="preserve" xmlns="http://www.w3.org/2000/svg" xmlns:xlink="http://www.w3.org/1999/xlink" xmlns:xml="http://www.w3.org/XML/1998/namespace">
  <path fill="#02005B" d="M41.985,7c2.28,0,4.552,0.639,6.536,1.89c3.382,2.04,4.463,7.369,6.407,13.483
	c0.002,0.004,0.002,0.009,0.003,0.012c5.207,18.488,14.464,33.72,34.388,37.406c3.971,0.734,7.035,0.916,10.691,1.157
	c9.66,0.638,17.473,9.633,16.686,19.74c-0.549,7.015-4.893,12.795-10.863,15.406c0,0-3.797,2.577-3.797,5.326
	c0,2.748,0,10.017,0,10.017c0,5.036-3.969,9.085-8.887,9.327c-0.076,0.01-1.027,0.013-2.264,0.013c-2.473,0-6.078-0.013-6.078-0.013
	c-2.746,0-4.037-2.201-4.037-4.98c0-3.462,1.926-4.832,2.396-5.138c0.59-0.386,1.311-0.844,1.311-1.782v-10.83
	c0-4.016,1.277-5.96,1.277-5.96c0.559-0.87,1.594-2.185,2.313-2.931l2.939-3.057c0.449-0.468,0.438-1.212-0.023-1.665
	c-0.227-0.224-0.52-0.334-0.811-0.334c-0.303,0-0.605,0.119-0.834,0.355l-2.938,3.06c-2.313,2.416-3.752,4.825-4.16,6.344
	c-11.49-0.235-19.064-0.899-21.894-1.168c-5.128-0.609-9.67-1.559-13.69-2.724c0.068,1,0.127,2.009,0.173,3.021
	c0.059,1.271,0.095,2.543,0.109,3.797c0.028,1.254,0.008,2.489,0.002,3.686c-0.021,0.712-0.04,1.398-0.064,2.077
	c0.377-0.088,0.767-0.136,1.161-0.136c0.444,0,0.895,0.061,1.344,0.189c2.639,0.763,4.166,3.507,3.413,6.177l-2.242,7.865
	c-0.609,2.16-2.65,3.61-4.868,3.61c0,0-7.727,0-7.756,0c-4.9,0-5.885-1.911-6.741-4.526c-0.267-1.14-5.071-21.357-5.071-26.242
	V60.786c0-8.737,6.648-15.31,15.279-15.31h2.862c0.642,0,1.163-0.656,1.163-1.306s-0.521-1.308-1.163-1.308h-2.862
	c-9.914,0-17.862,8.411-17.862,18.447v28.686c0,5.275,3.038,20.509,5.383,28.043c0.387,1.245,0.573,2.203-1.049,2.203v-0.002H20.75
	c-1.911,0-5.389-2.297-6.402-4.85c-2.62-6.613-3.854-11.268-4.16-12.433c-0.279-1.171-0.583-2.377-0.839-3.61
	c-0.273-1.23-0.528-2.485-0.761-3.743c-0.236-1.255-0.45-2.514-0.646-3.758c-0.192-1.242-0.373-2.467-0.518-3.654
	c-0.419-3.458-0.312-7.675-0.419-7.962l0.103-23.754c0.085-2.018,0.106-3.372,0.724-5.703c0.152-0.737,0.619-1.016,1.114-1.016
	c0.293,0,0.596,0.098,0.849,0.253c2.035,1.249,4.339,1.948,5.469,2.246c1.13,0.298,2.188,0.369,2.188,0.369
	c0.049,0.004,0.099,0.007,0.151,0.007c0.49,0,1.081-0.215,1.168-0.892c0.104-0.788-0.559-1.131-0.947-1.2l-0.036-0.009
	c-0.176-0.03-4.12-0.646-6.942-3.529c-0.472-0.483-1.001-1.526-1.288-2.447c-0.275-0.924-0.366-1.939-0.25-2.945
	c0.322-2.815,2.547-4.382,3.317-5.421c0.382-0.521,0.748-1.128,0.952-1.864c0.464-1.657,0.161-3.756,0.166-4.612
	c0.003-0.055,0.005-0.104,0.005-0.163c0-3.897,0.792-5.646,2.772-7.323c0,0,0.398-0.363,0.621-0.519L34.959,9.23
	C37.087,7.733,39.542,7,41.985,7 M68.747,96.131c1.445,0.085,13.096,0.59,13.096,0.59l0.01,11.917l-0.275,0.129
	c-1.246,0.81-3.844,2.496-3.844,7.663c0,1.15,0.332,2.286,0.99,3.373c0.129,0.24,0.146,0.459,0.055,0.636
	c-0.092,0.184-0.293,0.302-0.549,0.328c-0.021,0.001-0.182,0.001-0.473,0.001c-0.998,0-3.533-0.002-7.262-0.002h-1.402v0.001
	c-3.072,0-5.574-2.563-5.574-6.197c0-2.814,1.463-4.692,3.729-5.497c0.969-0.462,1.516-1.068,1.516-2.84
	C68.762,104.716,68.75,97.715,68.747,96.131 M41.985,0c-3.972,0-7.794,1.212-11.054,3.505l-17.804,12.47
	c-0.439,0.306-0.896,0.695-1.228,0.994c-4.481,3.852-5.135,8.433-5.15,12.436l-0.004,0.07l-0.001,0.198
	c-0.002,0.435,0.022,0.839,0.047,1.267c0.018,0.3,0.05,0.835,0.045,1.23c-0.003,0.004-0.007,0.007-0.01,0.011
	c-1.285,1.344-3.958,4.141-4.472,8.635c-0.19,1.652-0.09,3.354,0.29,4.963c-0.756,0.944-1.315,2.073-1.613,3.331
	c-0.744,2.856-0.821,4.732-0.902,6.717l-0.015,0.355l-0.006,0.133l0,0.132L0.005,80.2L0,81.482l0.068,0.182
	c0.001,0.078,0.003,0.16,0.004,0.246c0.033,1.691,0.088,4.524,0.403,7.124c0.17,1.396,0.383,2.809,0.549,3.884
	c0.217,1.386,0.447,2.72,0.684,3.979c0.246,1.326,0.515,2.651,0.797,3.924c0.216,1.033,0.45,2.004,0.677,2.943l0.196,0.814
	l0.019,0.078l0.02,0.077c1.053,4.012,2.582,8.588,4.423,13.234c1.994,5.027,7.906,9.271,12.91,9.271h0.116l7,0.002
	c1.701,0,3.054-0.397,4.11-0.945c1.614,0.593,3.57,0.945,5.952,0.945h7.756c5.26,0,9.936-3.417,11.498-8.354
	c1.669,5.218,6.307,8.879,11.91,8.879l1.408-0.001l5.709,0.001l1.547,0.001c0.486,0,0.752-0.007,0.789-0.008l0.203-0.01l0.201-0.021
	c0.775-0.08,1.52-0.271,2.213-0.559c1.127,0.388,2.35,0.594,3.645,0.594c-0.025,0,3.596,0.013,6.078,0.013
	c1.873,0,2.426-0.002,2.807-0.032c8.621-0.527,15.344-7.652,15.344-16.308v-8.917c0.137-0.136,0.289-0.273,0.422-0.388
	c8.088-3.888,13.506-11.814,14.217-20.898c0.521-6.702-1.74-13.502-6.207-18.659c-4.371-5.049-10.566-8.188-16.996-8.611
	l-0.441-0.029c-3.369-0.222-6.031-0.396-9.439-1.026C76.229,50.25,67.327,40.344,61.76,20.807l-0.178-0.988l-0.241-0.388
	c-0.203-0.658-0.398-1.305-0.589-1.937c-1.696-5.626-3.45-11.443-8.551-14.56C49.133,1.015,45.602,0,41.985,0L41.985,0z
	 M59.862,105.75c-0.341-2.426-1.417-4.689-3.054-6.479c0.896,0.131,1.801,0.251,2.712,0.359l0.083,0.01l0.083,0.008
	c0.676,0.064,1.366,0.126,2.068,0.186c0.003,1.433,0.005,3.003,0.007,4.262C61.066,104.585,60.432,105.139,59.862,105.75
	L59.862,105.75z" class="color c1"/>
</svg>