<svg version="1.1" id="图层_1" x="0px" y="0px" width="113.537px" height="211.426px" viewBox="0 0 113.537 211.426" enable-background="new 0 0 113.537 211.426" xml:space="preserve" xmlns="http://www.w3.org/2000/svg" xmlns:xlink="http://www.w3.org/1999/xlink" xmlns:xml="http://www.w3.org/XML/1998/namespace">
  <path fill="#E83911" d="M30.956,116.107c4.666-1.107,10.734-1.158,13.465-6.119C12.193,103.877,2.978,110.754,0,119.59
	c0.273,0.215,3.189-0.021,3.484,0c14.209,1.006,16.463,5.727,11.518,19.218c-1.957,5.335-4.295,10.53-6.172,15.893
	c-4.082,11.662,0.155,21.326,8.331,31.808c-2.933-12.92,2.022-21.688,9.055-29.682C37.041,144.523,40.243,131.257,30.956,116.107z
	 M47.727,132.647C59.113,77.872,25.925,0,25.925,0c24.278,13.093,40.071,29.641,48.646,46.348
	c13.4,26.104,4.141,68.837,4.141,68.837c12.43-24.401,5.652-51.03,7.203-48.843c1.552,2.188,14.279,12.12,18.002,26.935
	c6.387,25.44-13.203,55.505-13.203,55.505c10.419-9.399,18.008-33.903,18.008-33.903s6.251,7.331,4.509,24.789
	c-2.526,25.323-29.68,37.927-29.68,37.927c4.79,1.196,21.128-9.123,21.128-9.123c-3.446,9.039-9.629,17.926-13.932,21.12
	c-8.002,5.944-25.357,6.868-25.357,6.868c6.906,2.326,13.881,1.968,13.881,1.968c-15.911,14.626-38.179,5.466-38.179,5.466
	c5.134,5.096,7.673,6.536,8.904,6.846c-5.575,2.255-17.518-1.027-24.736-9.967c-3.508-4.344-8.71-17.457-5.226-27.06
	c3.754-10.347,9.581-16.585,15.678-20.949C38.881,150.493,46.259,139.711,47.727,132.647z" class="color c1"/>
</svg>