<svg version="1.1" id="图层_1" x="0px" y="0px" width="210px" height="129.426px" viewBox="0 0 210 129.426" enable-background="new 0 0 210 129.426" xml:space="preserve" xmlns:xml="http://www.w3.org/XML/1998/namespace" xmlns="http://www.w3.org/2000/svg" xmlns:xlink="http://www.w3.org/1999/xlink">
  <path fill="#050505" d="M23.013,48.032c-1.484,0.094-3.032,0.158-4.633,0.146c-0.577-3.315-1.96-5.525-2.877-6.685
	c-2.53-3.19-6.347-4.846-9.723-4.21c-2.617,0.494-4.575,2.26-5.38,4.848c-1.014,3.296,0.084,5.575,1.18,6.907
	c2.264,2.736,6.801,3.951,11.406,4.431c-0.253,1.92-0.857,4.17-2.018,6.785c-0.615,1.397,0.016,3.033,1.413,3.65
	c0.86,0.381,1.811,0.287,2.555-0.166c0.47-0.283,0.858-0.706,1.095-1.247c1.46-3.302,2.208-6.216,2.489-8.751
	c1.467,0,2.794-0.052,3.978-0.119C22.441,54.637,22.964,49.211,23.013,48.032z M12.64,47.846c-3.174-0.385-5.786-1.117-6.792-2.333
	c-0.177-0.216-0.509-0.616-0.156-1.754c0.122-0.402,0.315-0.681,0.599-0.853c0.145-0.087,0.318-0.149,0.515-0.187
	c1.095-0.203,2.922,0.399,4.359,2.211C11.615,45.498,12.22,46.45,12.64,47.846z M209.564,49.813l-13.188,30.916
	c-1.283,3.012-4.921,4.201-7.739,2.543l-0.586-0.346c-0.051,0.072-0.104,0.141-0.156,0.213l-15.847-2.82l10.81,8.158
	c-18.782,15.07-52.512,1.072-52.512,40.949h-21.906c0-40.762-48.683-16.204-40.024,0h-21.47
	c-0.866-3.52-40.808-77.223-4.771-108.386c15.32-13.247,30.011-19.245,43.4-20.856c0.526,8.905,0.856,20.03,0.963,31.032
	c-11.858,3.162-20.596,13.971-20.596,26.826c0,15.333,12.431,27.764,27.765,27.764c15.335,0,27.765-12.431,27.765-27.764
	c0-13.536-9.687-24.803-22.506-27.261C98.936,18.883,99.052,7.31,99.325,0c31.495,2.945,52.956,27.843,53.12,27.879
	c-1.754,2.647-3.033,5.506-3.5,7.843c1.789-3.13,3.423-5.562,4.961-7.49c9.837-12.333,15.582-3.285,30.604-14.014
	c0,7.354-3.24,16.314-12.09,21.314c8.186,3.556,18.085,8.028,25.814,11.612l1.982-2.682c1.537-2.079,4.323-2.783,6.663-1.686
	C209.521,44.017,210.708,47.126,209.564,49.813z" class="color c1"/>
</svg>