<svg version="1.1" id="图层_1" x="0px" y="0px" width="109.115px" height="145.576px" viewBox="0 0 109.115 145.576" enable-background="new 0 0 109.115 145.576" xml:space="preserve" xmlns="http://www.w3.org/2000/svg" xmlns:xlink="http://www.w3.org/1999/xlink" xmlns:xml="http://www.w3.org/XML/1998/namespace">
  <path fill="#594A43" d="M35.626,137.236c1.969,0,3.359,0.541,4.256,1.658c1.386,1.727,1.495,4.645,1.317,6.682H30.385
	c-0.09-2.289-0.547-5.701-2.236-8.34H35.626z M73.436,138.935v-24.611c0-1.926,0.802-4.525,1.686-6.822
	c-3.123,1.135-6.451,2.156-10.026,3.029v23.705c1.722,0.219,4.037,0.869,6.044,2.65c2.263,2.008,3.579,4.934,3.95,8.689h9.084
	c-0.473-2.543-1.806-4.352-4.037-5.492c-2.187-1.117-4.413-1.148-4.435-1.148H73.436z M108.724,27.659l-0.029,0.074
	c-1.064-1.914-3.115-3.146-5.368-3.146L94.9,24.803c-1.06,0.047-2.456,0.137-3.865,0.444c0,0-6.494,1.28-7.422,1.877
	c0.199,3.117,10.608-3.048,12.92,1.193c-2.776-0.661-6.676,1.277-9.285,2.098c-4.298,1.377-6.879,5.562-6.138,9.95l2.684,3.047
	c1.047,1.685,3.968,4.306,4.769,4.824c0.492,0.319,12.078,8.02,12.078,24.747c0,11.323-6.647,26.333-38.314,33.545l-1.763,0.4
	v29.496l0.017,2.514l2.501-0.262c0.03-0.004,2.962-0.283,5.084,1.629c1.283,1.158,2.079,2.924,2.378,5.27H53.692l-13.019-55.35
	c-0.287-1.217-1.506-1.971-2.725-1.688c-1.219,0.287-1.974,1.506-1.688,2.725l5.652,24.031l-14.142,12.201v9.18
	c-0.188-0.256-0.389-0.502-0.604-0.736c-1.518-1.641-3.557-2.508-5.893-2.508h-5.488v-2.42c1.231-0.953,4.299-2.926,6.242-4.178
	c2.544-1.637,3.898-2.516,4.46-3.01c3.255-2.871,7.752-7.367,9.222-13.213c1.338-5.322-0.598-11.561-4.816-15.525
	c-4.321-4.061-10.725-4.039-17.564,0.057c-1.074,0.643-1.424,2.035-0.78,3.109c0.644,1.072,2.032,1.422,3.107,0.779
	c2.925-1.752,8.388-4.162,12.134-0.643c3.01,2.828,4.46,7.4,3.525,11.119c-1.162,4.623-5.023,8.445-7.823,10.916
	c-0.374,0.32-2.339,1.582-3.917,2.6c-7.698,4.955-8.319,5.484-8.319,7.088v7.854h10.019c1.082,0,1.899,0.332,2.564,1.051
	c1.424,1.533,1.896,4.42,2.003,6.561H0v-22.021c0-9.117,0-26.086,6.458-31.039C46.501,59.693,51.111,46.532,50.88,43.053
	c0.721-5.957,2.53-16.334,6.862-24.234c0.475-0.902,1.246-1.873,2.425-3.051c1.125-1.1,2.39-2.051,3.741-2.874
	C61.609,11.705,57.582,8.453,56.432,0c3.126,7.88,14.047,9.5,16.665,9.777c0.825-0.091,1.654-0.15,2.491-0.15
	c1.064,0,2.143,0.075,3.196,0.222l11.628,1.685c1.838,0.242,3.384,1.649,3.842,3.484l0.165,0.823
	c0.147,0.663,0.606,1.142,1.194,1.271l10.316,3.235C108.558,21.663,109.81,24.942,108.724,27.659z M90.39,16.117
	c0,0-0.089-0.2-0.261-0.532c-0.045-0.082-0.094-0.174-0.146-0.272c-0.072-0.093-0.163-0.187-0.258-0.294
	c-0.098-0.107-0.207-0.221-0.318-0.34c-0.131-0.093-0.276-0.185-0.431-0.282c-0.152-0.106-0.319-0.187-0.511-0.246
	c-0.187-0.059-0.387-0.149-0.591-0.161c-0.205-0.025-0.419-0.06-0.636-0.074c-0.209-0.003-0.424,0.016-0.642,0.026
	c-0.416,0.051-0.856,0.102-1.257,0.204c-0.418,0.089-0.804,0.202-1.201,0.306c-0.777,0.22-1.521,0.412-2.227,0.568
	c-0.355,0.047-0.697,0.125-1.027,0.167c-0.326,0.013-0.645,0.075-0.941,0.088c-0.292-0.004-0.57,0.012-0.82,0.025
	c-0.252-0.008-0.47-0.015-0.648-0.021c-0.368-0.009-0.594,0.001-0.594,0.001s0.173,0.125,0.496,0.324
	c0.163,0.092,0.36,0.229,0.604,0.332c0.246,0.1,0.527,0.208,0.845,0.31c0.636,0.187,1.417,0.294,2.253,0.268
	c0.407-0.04,0.849-0.04,1.264-0.136c0.429-0.066,0.84-0.177,1.25-0.282c0.27-0.075,0.525-0.156,0.78-0.235
	c-0.113,0.296-0.134,0.63-0.027,0.954c0.247,0.759,1.06,1.17,1.814,0.923c0.757-0.247,1.169-1.063,0.922-1.817
	c-0.087-0.263-0.244-0.481-0.441-0.647c0.046-0.006,0.095-0.013,0.138-0.018c0.159-0.038,0.286,0.012,0.428,0.001
	c0.142-0.006,0.279,0.004,0.404,0.046c0.129,0.027,0.252,0.062,0.379,0.086c0.115,0.046,0.224,0.091,0.326,0.134
	c0.11,0.045,0.213,0.087,0.31,0.126c0.093,0.063,0.18,0.117,0.258,0.167C90.199,16.015,90.39,16.117,90.39,16.117z" class="color c1"/>
</svg>