<svg version="1.1" id="图层_1" x="0px" y="0px" width="135.326px" height="85.255px" viewBox="0 0 135.326 85.255" enable-background="new 0 0 135.326 85.255" xml:space="preserve" xmlns="http://www.w3.org/2000/svg" xmlns:xlink="http://www.w3.org/1999/xlink" xmlns:xml="http://www.w3.org/XML/1998/namespace">
  <path fill="#FFCC00" d="M46.703,61.427c1.243-0.527,2.571-0.802,3.915-0.802c3.254,0,6.62,1.678,9.479,4.669
	c4.212-1.586,11.134-3.527,19.772-3.527c6.845,0,13.554,1.222,20.038,3.638c0.001-0.073,0.006-0.145,0.006-0.218
	c0-17.811-14.438-32.25-32.25-32.25s-32.25,14.439-32.25,32.25c0,1.7,0.134,3.368,0.387,4.997c1.141,0.247,2.21,0.59,3.188,0.98
	C40.645,66.121,43.23,62.854,46.703,61.427z" class="color c1"/>
  <path fill="#FB6703" d="M15.962,80.424c2.9-4.665,7.188-9.23,13.146-10.234c1.984-0.338,4.057-0.329,6.139,0.011
	c-0.065-0.838-0.108-1.682-0.108-2.537c0-17.962,14.562-32.524,32.523-32.524c17.234,0,31.33,13.408,32.446,30.359
	c3.279,1.19,6.506,2.668,9.664,4.445c9.191,5.17,12.988,8.071,19.06,13.146c0.461-0.151-2.779-8.543-2.781-15.427
	c0.002-6.885,2.808-13.112,7.333-17.61c-6.167-1.632-11.712-5.622-15.154-11.583c-3.441-5.963-4.126-12.759-2.454-18.919
	c-6.159,1.672-12.954,0.988-18.917-2.455c-5.962-3.44-9.952-8.984-11.584-15.153c-4.497,4.526-10.726,7.331-17.611,7.331
	c-6.883,0-13.11-2.805-17.608-7.33c-1.632,6.168-5.624,11.711-11.586,15.152c-5.963,3.441-12.757,4.127-18.916,2.457
	c1.671,6.158,0.987,12.954-2.455,18.917c-3.443,5.961-8.987,9.951-15.155,11.583c4.527,4.498,7.333,10.726,7.333,17.61
	c0,5.162-1.579,9.954-4.276,13.926C8.467,80.135,12.212,79.723,15.962,80.424z" class="color c2"/>
  <path fill="#230252" d="M135.326,49.532l-1.687-0.446c-6.184-1.637-11.349-5.584-14.544-11.115
	c-3.194-5.534-4.03-11.982-2.355-18.157l0.457-1.685l-1.685,0.457c-2.011,0.546-4.1,0.822-6.208,0.822
	c-4.214,0-8.346-1.099-11.946-3.179c-5.533-3.192-9.481-8.357-11.117-14.542L85.795,0l-1.23,1.238
	c-4.507,4.537-10.51,7.035-16.901,7.035c-6.389,0-12.391-2.498-16.898-7.035l-1.23-1.237l-0.446,1.687
	c-1.637,6.185-5.585,11.349-11.119,14.542c-3.604,2.08-7.737,3.18-11.951,3.18c-2.106,0-4.193-0.276-6.203-0.821l-1.684-0.457
	l0.456,1.685c1.676,6.173,0.84,12.62-2.354,18.154c-3.197,5.533-8.363,9.48-14.546,11.116L0,49.532l1.238,1.23
	c4.538,4.509,7.037,10.511,7.037,16.9c0,4.79-1.419,9.411-4.104,13.364l-1.893,2.786l3.106-1.303
	c3.293-1.381,6.881-1.761,10.392-1.104l0.673,0.125l0.36-0.58c3.538-5.69,7.732-8.979,12.468-9.777
	c1.154-0.196,2.374-0.253,3.608-0.199c0.341,0.015,0.681,0.033,1.022,0.067c0.393,0.039,0.785,0.08,1.177,0.145l0.851,0.139
	c0.01,0.002,1.437,0.363,1.884,0.485c0.192,0.067,0.386,0.13,0.577,0.204c0.073,0.027,0.146,0.048,0.219,0.077l0.989,0.395
	l0.332-1.012c1.561-4.747,3.972-7.82,7.167-9.133c1.119-0.475,2.305-0.718,3.514-0.718c2.96,0,6.069,1.549,8.755,4.36l0.457,0.478
	l0.619-0.233c4.197-1.579,10.973-3.463,19.42-3.463c5.839,0,11.621,0.916,17.227,2.721c0.345,0.111,0.687,0.238,1.03,0.356
	c0.343,0.117,0.686,0.232,1.026,0.356l0.001,0.016l0.613,0.223c0.693,0.251,1.383,0.522,2.071,0.801
	c0.329,0.133,0.657,0.272,0.985,0.412c2.195,0.931,4.359,1.982,6.459,3.164c8.3,4.668,14.834,9.664,20.616,14.439
	c-1.032-4.511-2.847-13.079-2.848-17.591c0.002-6.391,2.502-12.393,7.038-16.902L135.326,49.532z M97.908,63.646l-0.416-0.132
	c-0.212-0.067-0.426-0.125-0.639-0.19c-5.532-1.69-11.242-2.557-16.984-2.557c-8.16,0-14.804,1.72-18.939,3.162l-0.567,0.198
	l-0.44-0.408c-2.855-2.64-6.159-4.094-9.304-4.094c-1.479,0-2.921,0.293-4.284,0.872c-3.303,1.357-5.863,4.22-7.62,8.513
	l-0.342,0.835l-0.144-0.042l-1.021-0.3l-1.021-0.316c-0.028-0.532-0.048-1.045-0.048-1.523c0-1.648,0.128-3.268,0.374-4.849
	c0.686-4.423,2.3-8.539,4.627-12.157c3.485-5.417,8.579-9.701,14.605-12.172c3.644-1.633,7.675-2.549,11.918-2.549
	c3.942,0,7.729,0.813,11.197,2.275c6.315,2.415,11.683,6.807,15.313,12.438c2.393,3.711,4.026,7.957,4.68,12.529l0.069,0.789
	L97.908,63.646z M130.638,51.621c-3.653,4.589-5.585,10.137-5.587,16.043c0.001,3.673,0.75,7.211,2.227,10.517l1.614,3.613
	l-3.137-2.413c-5.195-3.995-10.263-7.367-15.492-10.309c-2.384-1.342-4.855-2.527-7.361-3.556c-0.33-0.135-0.659-0.273-0.99-0.402
	c-0.092-0.036-0.184-0.077-0.276-0.112l-0.572-0.221l-0.063-0.609c-0.05-0.48-0.113-0.956-0.182-1.43
	C98.954,50.027,90.124,39.84,78.448,35.9c-3.39-1.145-7.019-1.762-10.786-1.762c-4.492,0-8.778,0.895-12.696,2.505
	C44.272,41.036,36.33,50.798,34.526,62.56c-0.255,1.665-0.388,3.369-0.388,5.104l0.012,1.354l-0.501-0.024l-0.559-0.026
	c-0.151-0.008-0.3,0.005-0.45,0.001c-1.255-0.033-2.501,0.033-3.696,0.236c-5.002,0.843-9.419,4.073-13.129,9.604l-0.342,0.511
	l-0.611-0.075c-1.877-0.232-3.792-0.197-5.647,0.102l-1.808,0.291l0.731-1.678c1.418-3.253,2.137-6.716,2.137-10.295
	c0-5.904-1.932-11.452-5.587-16.042l-0.843-1.059l1.259-0.495c5.459-2.147,9.906-5.985,12.859-11.098
	c2.953-5.114,4.053-10.885,3.182-16.688l-0.2-1.336l1.336,0.198c1.231,0.183,2.49,0.275,3.743,0.275
	c4.551,0,9.026-1.195,12.944-3.457c5.114-2.952,8.953-7.397,11.101-12.856l0.495-1.259l1.059,0.843
	c4.59,3.653,10.136,5.584,16.04,5.584c5.906,0,11.454-1.931,16.043-5.584l1.059-0.843l0.495,1.259
	c2.147,5.46,5.985,9.906,11.099,12.856c3.915,2.262,8.389,3.456,12.938,3.456c1.255,0,2.517-0.093,3.749-0.276l1.337-0.198
	l-0.2,1.336c-0.871,5.804,0.229,11.575,3.183,16.69c2.951,5.112,7.397,8.95,12.857,11.098l1.259,0.495L130.638,51.621z" class="color c3"/>
</svg>