<svg version="1.1" id="图层_1" x="0px" y="0px" width="187.786px" height="70.596px" viewBox="0 0 187.786 70.596" enable-background="new 0 0 187.786 70.596" xml:space="preserve" xmlns="http://www.w3.org/2000/svg" xmlns:xlink="http://www.w3.org/1999/xlink" xmlns:xml="http://www.w3.org/XML/1998/namespace">
  <path fill="#FFFFFF" d="M44.507,48.767C24.25,44.868,13.042,36.36,13.042,36.36C-3.222,27.241-0.208,17.091,1.105,19.481
	c3.2,5.82,18.315,12.86,27.823,12.746c16.227-0.19,19.516,4.347,31.415,10.566c8.575,4.479,13.301,15.838,13.301,15.838
	c1.589-1.783,6.183-5,14.659-8.65c9.226-3.975,30.327-5.096,39.511-1.516c9.189,3.586,28.516,2.1,28.516,2.1
	c-3.488,5.077-29.145,8.066-38.02,6.568c-8.863-1.491-16.473-2.088-27.873,0c-11.406,2.096-14.887,6.578-13.943,5.979
	c0.958-0.596,1.908,1.493,3.804,1.195c1.901-0.3,2.224,2.093,0,2.547c-2.212,0.456-3.804,0.14-7.6,2.53
	c-3.802,2.395-18.688,0.601-17.108,0c1.586-0.596,7.918-6.272,7.918-6.272C65.29,61.551,63.555,52.442,44.507,48.767z
	 M152.601,23.429c16.012-3.088,24.875-9.809,24.875-9.809c12.854-7.21,10.475-15.229,9.438-13.34
	c-2.531,4.596-14.479,10.168-21.994,10.074c-12.828-0.15-15.434,3.435-24.838,8.352c-6.777,3.545-10.513,12.527-10.513,12.527
	c-1.252-1.414-4.888-3.954-11.588-6.844c-7.291-3.14-23.979-4.031-31.24-1.193c-7.259,2.834-22.535,1.653-22.535,1.653
	c2.757,4.013,23.035,6.377,30.056,5.195c7-1.184,13.021-1.651,22.031,0c9.012,1.653,11.771,5.198,11.021,4.726
	c-0.759-0.472-1.511,1.184-3.004,0.94c-1.5-0.229-1.753,1.656,0,2.019c1.752,0.358,3.004,0.104,6.006,1.998
	c3.002,1.89,14.774,0.477,13.524,0c-1.254-0.474-6.264-4.957-6.264-4.957C136.171,33.542,137.539,26.337,152.601,23.429z" class="color c1"/>
</svg>