<svg version="1.1" id="图层_1" x="0px" y="0px" width="197.489px" height="347.822px" viewBox="0 0 197.489 347.822" enable-background="new 0 0 197.489 347.822" xml:space="preserve" xmlns:xml="http://www.w3.org/XML/1998/namespace" xmlns="http://www.w3.org/2000/svg" xmlns:xlink="http://www.w3.org/1999/xlink">
  <g>
    <path fill="#010B3F" d="M197.442,263.466c-0.023-0.395-0.049-0.787-0.094-1.182c-0.014-0.121-0.029-0.242-0.047-0.363
		c-0.016-0.123-0.027-0.244-0.043-0.367c-0.01-0.061-0.02-0.117-0.029-0.182c-0.008-0.059-0.018-0.115-0.025-0.178
		c-0.307-2.08-0.863-4.156-1.613-6.234c-0.58-1.617-1.277-3.24-2.08-4.865c-0.285-0.574-0.557-1.156-0.836-1.732
		c-0.721-1.742-1.443-3.486-2.162-5.23c-2.518-6.105-4.998-12.223-7.314-18.398c-4.549-12.145-8.836-24.387-13.133-36.619
		c-0.66-2.053-1.318-4.105-1.982-6.156c-0.188-0.584-0.346-1.178-0.512-1.771c-0.178-1.104-0.316-2.227-0.617-3.297
		c-0.281-1.02-0.563-2.039-0.846-3.058c-0.971-5.205-1.57-10.529-2.684-15.706c-1.057-4.923-1.617-10.42-4.264-14.438
		c-3.68-5.591-4.711-10.853-4.064-16.314c0.215-1.82,0.619-3.661,1.174-5.547c0.75-2.008,1.479-4.021,2.15-6.044
		c2.746-7.136,4.508-14.727,2.855-22.339c-0.109-0.508-0.236-1.018-0.375-1.522c-0.324-1.159-0.73-2.318-1.227-3.478
		c-0.203-0.581-0.422-1.161-0.662-1.748c-0.32-0.767-0.314-1.757-0.203-2.607c0.125-0.927,0.221-1.843,0.301-2.763
		c0.008-0.098,0.025-0.192,0.033-0.289c0.021-0.252,0.029-0.502,0.049-0.752c0.025-0.379,0.049-0.758,0.07-1.135
		c0.021-0.396,0.033-0.788,0.045-1.181c0.014-0.353,0.023-0.701,0.031-1.049c0.006-0.419,0.006-0.836,0.006-1.255
		c0-0.214,0.006-0.429,0.004-0.643c0-0.087-0.01-0.173-0.01-0.26c-0.018-0.907-0.043-1.813-0.094-2.71
		c-0.006-0.105-0.012-0.207-0.02-0.313c-0.033-0.896-0.084-1.791-0.15-2.68c-0.002-0.055-0.004-0.11-0.006-0.164
		c-0.023-0.282-0.057-0.563-0.086-0.838c-0.01-0.079-0.016-0.154-0.025-0.229c-0.025-0.28-0.063-0.563-0.092-0.843
		c-0.154-1.464-0.34-2.92-0.578-4.363c-0.072-0.437-0.143-0.874-0.221-1.309c-0.049-0.287-0.107-0.577-0.162-0.866
		c-0.051-0.278-0.104-0.558-0.158-0.835c-0.004-0.021-0.012-0.039-0.014-0.058c-0.039-0.192-0.086-0.376-0.123-0.565
		c-0.117-0.563-0.242-1.123-0.371-1.681c-0.057-0.244-0.104-0.492-0.16-0.733c-0.039-0.165-0.086-0.328-0.129-0.494
		c-0.139-0.571-0.287-1.137-0.434-1.707c-0.07-0.271-0.133-0.539-0.207-0.81c-0.025-0.1-0.059-0.196-0.086-0.292
		c-0.303-1.098-0.621-2.189-0.957-3.277c-0.072-0.236-0.148-0.47-0.221-0.703c-0.281-0.889-0.574-1.773-0.875-2.659
		c-0.111-0.328-0.223-0.657-0.338-0.986c-0.33-0.957-0.67-1.911-1.021-2.86c-0.053-0.138-0.102-0.277-0.15-0.415
		c-0.395-1.063-0.801-2.12-1.215-3.178c-0.145-0.368-0.291-0.739-0.438-1.109c-0.295-0.738-0.592-1.48-0.896-2.225
		c-0.15-0.37-0.301-0.737-0.453-1.109c-0.395-0.957-0.795-1.914-1.197-2.866c-0.275-0.648-0.551-1.297-0.826-1.947
		c-0.074-0.181-0.152-0.357-0.229-0.536c-0.047-0.112-0.098-0.226-0.145-0.338c-0.676-1.592-1.363-3.182-2.045-4.774
		c-0.168-0.391-0.338-0.78-0.506-1.175c-1.336-3.131-2.658-6.265-3.91-9.417c-0.398-0.994-0.9-1.95-1.443-2.889
		c-0.305-0.698-0.609-1.403-0.914-2.112c-0.398-0.913-0.799-1.844-1.203-2.787L135.454,0l-1.205,12.94
		c-0.412,2.635-0.869,5.255-1.414,7.845c-0.699,3.105-1.426,6.2-2.23,9.266c-0.492,1.81-1.002,3.609-1.541,5.399
		c-0.348,1.125-0.707,2.245-1.092,3.357c-2.971,8.543-6.1,17.033-9.316,25.491c-4.389,10.887-9.021,21.692-13.123,32.674
		c-0.828,2.228-4.309,4.543-6.744,4.767c-0.016,0-0.031,0-0.045,0c-0.016,0-0.031,0-0.045,0c-2.436-0.224-5.912-2.539-6.744-4.767
		c-4.104-10.98-8.732-21.787-13.121-32.674c-3.219-8.456-6.35-16.948-9.318-25.491c-0.385-1.112-0.744-2.232-1.092-3.357
		c-0.537-1.79-1.051-3.591-1.537-5.399c-0.809-3.064-1.533-6.157-2.232-9.266c-0.736-3.497-1.354-7.032-1.838-10.612L62.377,0
		l-3.33,8.694c-0.309,0.709-0.611,1.413-0.918,2.113c-0.543,0.938-1.043,1.894-1.439,2.888c-1.252,3.152-2.574,6.285-3.916,9.417
		c-0.166,0.394-0.334,0.784-0.502,1.174c-0.682,1.594-1.367,3.184-2.047,4.774c-0.047,0.113-0.098,0.224-0.143,0.339
		c-0.076,0.179-0.15,0.357-0.23,0.535c-0.273,0.65-0.553,1.299-0.826,1.947c-0.4,0.954-0.801,1.911-1.195,2.865
		c-0.152,0.37-0.303,0.741-0.451,1.111c-0.305,0.74-0.6,1.48-0.896,2.221c-0.146,0.373-0.295,0.745-0.439,1.116
		c-0.412,1.058-0.82,2.113-1.215,3.175c-0.051,0.137-0.1,0.276-0.148,0.414c-0.352,0.951-0.689,1.906-1.025,2.861
		c-0.111,0.33-0.225,0.659-0.336,0.986c-0.301,0.886-0.588,1.771-0.869,2.659c-0.074,0.232-0.154,0.466-0.225,0.704
		c-0.338,1.087-0.654,2.18-0.957,3.276c-0.029,0.099-0.059,0.193-0.088,0.291c-0.072,0.271-0.137,0.54-0.203,0.811
		c-0.148,0.569-0.299,1.136-0.436,1.706c-0.045,0.165-0.088,0.329-0.127,0.495c-0.061,0.24-0.107,0.488-0.162,0.732
		c-0.127,0.558-0.254,1.118-0.371,1.681c-0.041,0.189-0.088,0.374-0.125,0.564c-0.006,0.021-0.012,0.036-0.014,0.059
		c-0.059,0.279-0.105,0.563-0.158,0.839c-0.057,0.288-0.111,0.575-0.162,0.861c-0.08,0.435-0.15,0.876-0.219,1.313
		c-0.246,1.474-0.436,2.962-0.592,4.46c-0.023,0.247-0.061,0.494-0.082,0.745c-0.006,0.073-0.016,0.148-0.023,0.229
		c-0.029,0.276-0.061,0.557-0.082,0.838c-0.006,0.055-0.008,0.109-0.01,0.164c-0.068,0.891-0.117,1.782-0.148,2.68
		c-0.008,0.105-0.016,0.207-0.02,0.313c-0.051,0.9-0.078,1.803-0.096,2.711c0,0.086-0.006,0.172-0.008,0.259
		c-0.002,0.215,0.002,0.43,0.002,0.644c0,0.417,0,0.834,0.006,1.254c0.008,0.348,0.02,0.696,0.033,1.049
		c0.01,0.394,0.025,0.785,0.043,1.181c0.021,0.377,0.045,0.756,0.072,1.136c0.02,0.253,0.029,0.502,0.049,0.752
		c0.008,0.098,0.023,0.192,0.031,0.289c0.08,0.917,0.176,1.836,0.301,2.762c0.113,0.852,0.117,1.84-0.203,2.607
		c-0.242,0.587-0.457,1.167-0.662,1.748c-0.498,1.156-0.902,2.315-1.227,3.478c-0.141,0.506-0.266,1.016-0.377,1.522
		c-1.654,7.612,0.107,15.203,2.855,22.339c0.668,2.023,1.398,4.034,2.152,6.045c0.555,1.886,0.955,3.726,1.174,5.546
		c0.645,5.461-0.387,10.725-4.066,16.314c-2.645,4.018-3.207,9.516-4.266,14.438c-1.109,5.179-1.711,10.503-2.682,15.706
		c-0.281,1.019-0.566,2.039-0.846,3.058c-0.301,1.07-0.438,2.193-0.617,3.299c-0.168,0.592-0.322,1.188-0.514,1.77
		c-0.662,2.053-1.322,4.105-1.982,6.156c-4.295,12.234-8.582,24.477-13.129,36.619c-2.316,6.178-4.801,12.293-7.314,18.398
		c-0.723,1.744-1.441,3.488-2.164,5.23c-0.279,0.576-0.553,1.158-0.836,1.732c-0.807,1.627-1.502,3.248-2.08,4.865
		c-0.75,2.08-1.307,4.156-1.613,6.234c-0.01,0.061-0.016,0.119-0.025,0.18c-0.012,0.061-0.02,0.119-0.027,0.18
		c-0.018,0.125-0.029,0.246-0.045,0.367s-0.035,0.242-0.047,0.365c-0.045,0.393-0.07,0.787-0.096,1.18
		c-0.033,0.59-0.055,1.18-0.039,1.77c0.008,0.334,0.021,0.672,0.043,1.006c0.002,0.008,0.002,0.021,0.004,0.031
		c0,0.012,0,0.021,0.002,0.033c0.225,3.736,1.342,7.508,3.652,11.352c3.309,5.5,6.887,10.719,10.77,15.623
		c0.102,0.125,0.201,0.258,0.301,0.385c0.512,0.645,1.037,1.275,1.559,1.91c0.539,0.646,1.076,1.301,1.629,1.939
		c0.1,0.111,0.201,0.227,0.301,0.342c1.676,1.93,3.404,3.807,5.207,5.611c0.988,0.99,1.994,1.963,3.02,2.914
		c0.9,0.83,1.809,1.65,2.736,2.455c6.488,5.619,13.705,10.514,21.684,14.633c0.268,0.141,0.527,0.289,0.799,0.428
		c0.924,0.469,2.016,0.598,3.361,0.979c0.129,0.039,0.244,0.08,0.373,0.123c-0.055-0.896-0.102-1.656-0.141-2.332
		c0.033-0.332,0.068-0.648,0.1-0.959c0.053-0.465,0.1-0.918,0.145-1.34c0.797,0.635,1.588,1.26,2.381,1.896
		c9.498,7.609,18.896,15.141,28.289,22.664l4.232,2.893l-2.242-4.732c-0.502-1.686-1.004-3.369-1.508-5.055
		c-2.59-8.678-5.232-17.537-8.205-27.494c1.996,1.162,3.813,2.164,5.508,3.105c2.635,1.512,4.93,2.854,7.076,4.381
		c2.336,1.672,4.594,2.609,6.852,2.785c0.078,0.004,0.156,0.01,0.234,0.014c0.191,0.014,0.389,0.02,0.582,0.02
		s0.387-0.006,0.584-0.02c0.076-0.004,0.154-0.01,0.23-0.014c2.258-0.178,4.516-1.113,6.855-2.785
		c2.145-1.529,4.436-2.869,7.07-4.381c1.693-0.941,3.514-1.943,5.512-3.105c-2.975,9.957-5.617,18.816-8.205,27.494
		c-0.504,1.686-1.008,3.371-1.51,5.055l-2.24,4.732l4.23-2.893c9.395-7.525,18.789-15.055,28.289-22.664
		c0.797-0.637,1.584-1.264,2.383-1.896c0.045,0.422,0.094,0.875,0.143,1.34c0.031,0.311,0.064,0.627,0.102,0.957
		c-0.041,0.678-0.088,1.438-0.143,2.334c0.129-0.043,0.248-0.084,0.375-0.123c1.344-0.381,2.438-0.51,3.359-0.979
		c0.275-0.137,0.531-0.285,0.803-0.428c9.121-4.709,17.24-10.43,24.418-17.088c1.023-0.951,2.029-1.922,3.018-2.914
		c1.805-1.807,3.533-3.684,5.209-5.611c0.102-0.115,0.201-0.229,0.301-0.342c0.555-0.641,1.09-1.295,1.629-1.939
		c0.521-0.635,1.047-1.268,1.557-1.91c0.104-0.127,0.201-0.26,0.301-0.385c3.883-4.902,7.467-10.123,10.771-15.623
		c2.311-3.846,3.426-7.613,3.654-11.352c0-0.012,0-0.021,0-0.033c0-0.01,0-0.023,0-0.031c0.027-0.336,0.039-0.672,0.045-1.006
		C197.499,264.646,197.477,264.056,197.442,263.466z M167.077,216.138c5.996,8.877,8.588,16.535,7.842,23.379
		c-0.199,1.799-0.613,3.549-1.275,5.244c-1.49,2.52-3.721,5.203-6.748,8.33c-0.432,0.445-0.881,0.904-1.346,1.371
		c-1.691,1.691-3.605,3.516-5.74,5.512c-0.166,0.109-0.328,0.219-0.494,0.328c-0.121-0.484-0.229-0.965-0.334-1.445
		c-0.391-1.799-0.674-3.578-0.828-5.342c0.039-2.932,0.434-5.787,1.041-8.602c0.15-0.699,0.316-1.402,0.492-2.102
		c0.529-2.094,1.154-4.168,1.82-6.232c0.162-0.336,0.313-0.68,0.455-1.027c0.498-1.221,0.861-2.51,1.15-3.836
		c0.639-1.922,1.268-3.84,1.836-5.775C165.899,222.716,166.688,219.47,167.077,216.138z M148.293,175.632
		c0.473,0.807,0.838,1.535,1.1,2.105c0.002,0,0.002,0.006,0.002,0.006c0.162,0.381,0.324,0.758,0.488,1.135
		c0.461,1.721,0.928,3.439,1.393,5.16c3.266,12.037,6.588,24.063,9.436,36.197c0.186,1.613-0.021,3.303-0.443,5.006
		c-0.426,1.703-1.07,3.422-1.771,5.1c0.029-1.162,0.029-2.314,0.004-3.459c-0.012-0.33-0.031-0.66-0.043-0.99
		c-0.033-0.809-0.063-1.611-0.119-2.414c-0.029-0.414-0.072-0.822-0.109-1.229c-0.061-0.723-0.123-1.439-0.207-2.154
		c-0.047-0.43-0.105-0.855-0.162-1.289c-0.09-0.689-0.184-1.379-0.287-2.068c-0.064-0.43-0.139-0.854-0.209-1.279
		c-0.117-0.693-0.236-1.385-0.369-2.072c-0.076-0.408-0.156-0.813-0.236-1.215c-0.145-0.717-0.293-1.43-0.451-2.143
		c-0.082-0.369-0.162-0.736-0.25-1.104c-0.176-0.766-0.355-1.531-0.547-2.295c-0.072-0.299-0.15-0.604-0.223-0.906
		c-0.225-0.869-0.453-1.742-0.688-2.613c-0.049-0.176-0.094-0.354-0.141-0.529c-0.453-1.652-0.93-3.305-1.412-4.947
		c-0.143-0.492-0.283-0.98-0.43-1.465c-0.152-0.518-0.307-1.031-0.461-1.551c-1.418-4.74-2.867-9.467-4.125-14.223
		c-0.002-0.006-0.004-0.012-0.006-0.02c-0.354-1.324-0.688-2.646-1.004-3.975c-0.002-0.012-0.004-0.023-0.006-0.035
		c-0.588-2.113-1.205-4.163-1.205-4.163C146.844,173.366,147.665,174.565,148.293,175.632z M145.706,164.5
		c-0.943-5.753-1.875-11.417-2.865-17.446c-0.396-2.412-0.801-4.883-1.223-7.443c2.479,3.998,4.326,8.097,5.303,12.354
		c0.324,1.419,0.551,2.857,0.672,4.313c0.051,0.726,0.08,1.45,0.088,2.175c0.01,0.729-0.004,1.457-0.039,2.19
		c-0.117,1.783-0.395,3.604-0.848,5.456c-0.152,0.62-0.326,1.238-0.518,1.866C146.086,166.806,145.897,165.652,145.706,164.5z
		 M157.551,186.976c0.078-0.426,0.178-0.824,0.295-1.184c0.764,2.154,1.779,4.266,2.818,6.371c0.389,0.789,0.777,1.58,1.158,2.369
		c2.668,5.539,4.832,11.172,2.16,17.736c-0.195,0.268-0.422,0.521-0.65,0.771c-0.645-2.141-1.367-4.268-2.08-6.393
		c-1.969-5.848-3.861-11.713-3.779-17.957C157.485,188.122,157.508,187.55,157.551,186.976z M152.006,155.418
		c1.211,4.902,3.389,9.751,4.283,14.88c0.697,3.985,0.615,8.142-1.295,12.623c-2.99-4.002-4.004-8.039-4.172-12.078
		c-0.025-0.646-0.027-1.295-0.02-1.941C150.897,164.37,151.834,159.854,152.006,155.418z M142.208,122.648
		c4.203-10.672,8.76-21.275,3.051-32.923c-0.609-1.244-0.229-3.04-0.105-4.563c0.678-8.403,1.404-16.8,2.123-25.195
		c0.158,1.229,0.324,2.463,0.459,3.695c0.133,1.232,0.238,2.467,0.271,3.702c0.01,0.236,0.01,0.477,0.01,0.714
		c0.021,1.979-0.092,4.003-0.215,6.022c-0.045,0.673-0.09,1.348-0.129,2.022c-0.271,4.483-0.41,8.912,0.92,12.857
		c4.088,12.126,0.775,22.254-3.906,32.141c-1.373,2.897-2.859,5.775-4.318,8.682C140.456,127.27,141.297,124.951,142.208,122.648z
		 M83.524,117.832c2.404-2.922,6.137-5.354,9.791-6.473c1.688-0.513,3.551-0.802,5.428-0.864c1.875,0.063,3.742,0.353,5.432,0.864
		c3.65,1.119,7.383,3.553,9.789,6.473c1.027,1.247-1.043,5.25-1.994,7.896c-2.133,5.912-4.5,11.737-6.672,17.636
		c-1.193,3.25-2.295,6.535-3.404,9.815c-0.289,0.771-0.584,1.548-0.875,2.323c0,0-0.002,0.004-0.002,0.006
		c-0.016,0.035-0.027,0.068-0.039,0.104c0,0.006-0.002,0.014-0.004,0.021c-0.221,0.624-1.146,3.152-2.232,3.501
		c-1.082-0.35-2.01-2.877-2.23-3.501c-0.002-0.006-0.002-0.015-0.004-0.021c-0.016-0.035-0.027-0.068-0.039-0.104
		c0-0.002-0.002-0.006-0.002-0.006c-0.289-0.775-0.584-1.552-0.873-2.323c-1.111-3.28-2.213-6.563-3.406-9.815
		c-2.172-5.897-4.537-11.723-6.67-17.636C84.565,123.082,82.495,119.079,83.524,117.832z M65.338,79.947
		c0.451,0.129,0.918,0.266,1.434,0.413c-1.656-3.338-2.98-6.663-4.025-9.981c-0.973-3.584-1.857-7.155-2.453-10.77
		c-0.912-6.341-0.949-12.697-0.424-19.134c7.039,18.302,14.064,35.949,20.449,53.819c0.57,1.6,1.082,3.207,1.496,4.829
		c0.941,4.03,1.252,8.104,0.178,12.347c-0.535,1.862-1.375,3.736-2.615,5.621c-1.006,1.538-0.377,4.271,0.504,7.038
		c0.563,2.16,1.371,4.388,1.982,6.323c0.17,0.537,0.354,1.069,0.545,1.601c1.68,5.481,3.451,10.95,5.783,16.149
		c0.232,0.521,0.477,1.038,0.725,1.55c0.057,0.112,0.113,0.226,0.168,0.341c0.197,0.395,0.395,0.793,0.598,1.184
		c0.088,0.166,0.176,0.329,0.262,0.492c0.182,0.339,0.359,0.68,0.545,1.016c0.105,0.191,0.211,0.379,0.316,0.567
		c0.172,0.306,0.344,0.618,0.52,0.927c0.117,0.203,0.234,0.404,0.352,0.607c0.172,0.291,0.344,0.586,0.512,0.878
		c0.125,0.206,0.248,0.417,0.375,0.628c0.104,0.174,0.209,0.35,0.313,0.523c0.066,0.11,0.133,0.222,0.199,0.333
		c0.102,0.164,0.197,0.324,0.295,0.489c0.014,0.024,0.029,0.045,0.041,0.067c0.447,0.737,0.895,1.471,1.348,2.203
		c0.051,0.09,0.107,0.181,0.162,0.27l3.654,4.58l0.168-0.192l0.17,0.192l3.648-4.58c0.055-0.089,0.111-0.18,0.166-0.27
		c0.449-0.732,0.9-1.466,1.346-2.203c0.014-0.022,0.027-0.043,0.039-0.067c0.102-0.165,0.197-0.326,0.295-0.489
		c0.07-0.111,0.137-0.223,0.201-0.333c0.107-0.178,0.209-0.352,0.316-0.523c0.123-0.211,0.25-0.422,0.371-0.628
		c0.176-0.292,0.344-0.587,0.514-0.878c0.115-0.203,0.236-0.404,0.35-0.607c0.18-0.309,0.354-0.621,0.521-0.927
		c0.107-0.188,0.215-0.376,0.316-0.567c0.188-0.336,0.365-0.677,0.547-1.016c0.084-0.163,0.176-0.327,0.262-0.492
		c0.201-0.391,0.398-0.789,0.596-1.184c0.055-0.114,0.115-0.229,0.17-0.341c0.25-0.514,0.49-1.028,0.725-1.55
		c2.332-5.199,4.105-10.668,5.783-16.149c0.191-0.528,0.377-1.063,0.545-1.601c0.611-1.937,1.42-4.163,1.982-6.323
		c0.883-2.769,1.51-5.5,0.502-7.038c-1.236-1.885-2.076-3.759-2.613-5.621c-1.072-4.244-0.762-8.317,0.182-12.347
		c0.41-1.623,0.922-3.231,1.494-4.829c6.385-17.87,13.41-35.517,20.445-53.819c0.064,0.805,0.123,1.607,0.17,2.412
		c0.336,5.612,0.203,11.172-0.594,16.721c-0.592,3.612-1.48,7.183-2.453,10.769c-1.045,3.318-2.369,6.643-4.025,9.981
		c0.518-0.147,0.982-0.281,1.434-0.413c-0.014,0.047-0.025,0.095-0.037,0.142c0.424-0.128,0.836-0.256,1.268-0.388
		c1.293-0.396,2.719-0.835,4.926-1.512c-1.047,2.624-1.857,5.163-2.707,7.551c-0.285,0.795-0.574,1.573-0.875,2.335
		c-0.725,1.822-1.533,3.531-2.566,5.096c-7.09,10.743-7.869,12.05-7.021,22.677c0.033,0.545,0.076,1.094,0.133,1.643
		c0.121,1.383,0.26,2.906,0.41,4.61c-1.148,0.324-2.316,0.652-4.033,1.136c0.041,0.068,0.08,0.132,0.123,0.2
		c-0.057,0.015-0.104,0.029-0.162,0.045c0.533,0.746,1.041,1.462,1.539,2.161c0.777,1.244,1.484,2.376,2.082,3.335
		c0.199,0.316,0.387,0.617,0.563,0.897c-2.633,5.539-5.064,10.658-7.482,15.752c-0.107,0.208-0.215,0.414-0.324,0.621l-2.031,3.793
		l4.586-2.553v-0.002c0.713-0.4,1.42-0.815,2.127-1.227c0.105-0.061,0.213-0.122,0.316-0.186c0.166-0.097,0.332-0.188,0.498-0.28
		c0.215-0.122,0.432-0.246,0.648-0.364c0.07-0.04,0.145-0.077,0.213-0.117c1.158-0.631,2.334-1.2,3.563-1.618
		c0.033-0.011,0.063-0.021,0.092-0.033c0.045-0.012,0.109-0.025,0.189-0.042c0.416-0.088,1.293-0.243,2.318-0.263
		c0.146-0.004,0.297-0.004,0.447,0c0.201,0.004,0.408,0.018,0.613,0.033c0.014,0.002,0.025,0.002,0.037,0.002
		c0.271,0.033,0.541,0.07,0.805,0.119c0.008,0.002,0.016,0.002,0.021,0.004h0.004c1.629,0.332,3.16,1.261,3.541,3.488
		c0.029,0.244,0.051,0.486,0.059,0.729c0,0.007,0,0.018,0,0.027c0.006,0.228,0,0.448-0.016,0.666
		c-0.264,1.468-1.604,3.744-7.156,4.594c-0.004,0-0.006,0-0.008,0c-0.127-0.049-0.252-0.084-0.377-0.122
		c-0.07-0.021-0.146-0.047-0.213-0.064c-0.119-0.034-0.236-0.056-0.354-0.079c-0.068-0.017-0.143-0.033-0.211-0.044
		c-0.111-0.02-0.221-0.028-0.332-0.039c-0.066-0.008-0.135-0.02-0.201-0.021c-0.107-0.008-0.211-0.008-0.314-0.008
		c-0.066,0-0.133,0-0.195,0.004c-0.104,0.004-0.201,0.016-0.299,0.026c-0.063,0.01-0.127,0.013-0.189,0.021
		c-0.1,0.019-0.189,0.034-0.283,0.058c-0.063,0.015-0.119,0.027-0.184,0.043c-0.09,0.021-0.184,0.049-0.271,0.081
		c-0.059,0.021-0.115,0.04-0.174,0.061c-0.086,0.035-0.18,0.069-0.264,0.107c-0.057,0.023-0.111,0.05-0.166,0.079
		c-0.086,0.038-0.17,0.077-0.254,0.125c-0.053,0.027-0.105,0.057-0.158,0.088c-0.086,0.048-0.166,0.099-0.246,0.148
		c-0.051,0.031-0.102,0.066-0.152,0.103c-0.08,0.052-0.16,0.109-0.24,0.169c-0.047,0.035-0.098,0.068-0.145,0.107
		c-0.08,0.06-0.158,0.118-0.236,0.182c-0.047,0.039-0.094,0.077-0.141,0.117c-0.076,0.063-0.154,0.126-0.232,0.194
		c-0.041,0.039-0.084,0.078-0.129,0.118c-0.08,0.07-0.158,0.139-0.236,0.21c-0.041,0.036-0.074,0.069-0.113,0.104
		c-0.084,0.079-0.166,0.154-0.248,0.233c-0.113,0.111-0.234,0.224-0.352,0.339c-3.795,2.811-7.258,6.083-10.939,9.061
		c-4.627,3.746-8.453,5.629-12.254,5.674c-3.801-0.043-7.631-1.926-12.258-5.674c-3.682-2.978-7.145-6.25-10.939-9.061
		c-0.115-0.115-0.234-0.228-0.352-0.339c-0.08-0.079-0.162-0.154-0.246-0.233c-0.039-0.035-0.074-0.068-0.113-0.104
		c-0.078-0.071-0.158-0.142-0.232-0.21c-0.045-0.04-0.092-0.079-0.133-0.118c-0.076-0.066-0.154-0.13-0.232-0.194
		c-0.045-0.04-0.094-0.078-0.141-0.117c-0.078-0.062-0.156-0.12-0.236-0.182c-0.047-0.039-0.098-0.072-0.145-0.107
		c-0.078-0.06-0.16-0.117-0.242-0.169c-0.049-0.035-0.1-0.07-0.15-0.103c-0.082-0.051-0.162-0.102-0.246-0.148
		c-0.053-0.031-0.105-0.061-0.156-0.088c-0.086-0.048-0.17-0.087-0.258-0.125c-0.055-0.029-0.109-0.056-0.162-0.079
		c-0.088-0.038-0.178-0.072-0.266-0.107c-0.057-0.021-0.115-0.039-0.176-0.061c-0.088-0.032-0.178-0.06-0.271-0.081
		c-0.061-0.018-0.121-0.03-0.182-0.043c-0.094-0.022-0.188-0.039-0.283-0.058c-0.061-0.01-0.127-0.013-0.189-0.021
		c-0.1-0.013-0.195-0.022-0.297-0.026c-0.066-0.004-0.133-0.004-0.197-0.004c-0.102,0-0.205,0-0.313,0.008
		c-0.066,0.002-0.137,0.014-0.203,0.021c-0.111,0.011-0.219,0.021-0.332,0.039c-0.068,0.013-0.141,0.029-0.211,0.044
		c-0.113,0.023-0.23,0.045-0.35,0.079c-0.072,0.019-0.143,0.043-0.217,0.064c-0.123,0.039-0.246,0.073-0.379,0.122c0,0,0,0-0.002,0
		c-5.557-0.85-6.896-3.126-7.16-4.594c-0.014-0.219-0.021-0.438-0.014-0.666c0-0.011,0.002-0.021,0.002-0.027
		c0.004-0.242,0.027-0.484,0.055-0.729c0.381-2.229,1.914-3.158,3.543-3.488l0,0c0.01-0.002,0.014-0.002,0.021-0.004
		c0.268-0.049,0.533-0.088,0.807-0.119c0.014,0,0.023,0,0.037-0.002c0.207-0.017,0.412-0.029,0.617-0.033
		c1.41-0.035,2.643,0.229,2.951,0.305c0.033,0.013,0.063,0.022,0.094,0.033c1.227,0.42,2.402,0.987,3.563,1.618
		c0.072,0.04,0.145,0.075,0.217,0.117c0.215,0.118,0.43,0.242,0.646,0.364c0.166,0.094,0.332,0.187,0.494,0.28
		c0.105,0.062,0.211,0.123,0.32,0.186c0.705,0.412,1.412,0.825,2.125,1.227l-0.002,0.002l4.588,2.553l-2.029-3.793
		c-0.109-0.207-0.217-0.413-0.326-0.621c-2.418-5.094-4.85-10.213-7.48-15.752c0.174-0.277,0.357-0.581,0.559-0.897
		c0.6-0.961,1.305-2.091,2.082-3.335c0.498-0.699,1.008-1.416,1.541-2.161c-0.057-0.018-0.109-0.032-0.162-0.045
		c0.041-0.068,0.08-0.132,0.123-0.2c-1.715-0.482-2.883-0.812-4.031-1.136c0.15-1.704,0.287-3.229,0.408-4.61
		c0.057-0.549,0.104-1.098,0.135-1.643c0.844-10.627,0.068-11.936-7.025-22.677c-0.344-0.521-0.658-1.06-0.963-1.61
		c-0.6-1.103-1.117-2.269-1.602-3.482c-1.207-3.036-2.188-6.388-3.584-9.885c2.207,0.675,3.637,1.115,4.926,1.512
		c0.432,0.132,0.844,0.26,1.271,0.388C65.364,80.041,65.35,79.996,65.338,79.947z M112.918,252.97
		c-4.391,2.053-9.273,3.082-14.176,3.164c-4.9-0.082-9.783-1.111-14.176-3.164c-12.041-5.629-12.037-5.629-9.699-18.441
		c0.188-1.027,0.236-2.078,0.355-3.121c0.771,2.877,1.805,5.402,3.076,7.586c0.699,1.201,1.471,2.301,2.313,3.295
		c0.314,0.375,0.641,0.734,0.977,1.082c0.314,0.322,0.641,0.635,0.977,0.936c0.02,0.018,0.033,0.039,0.057,0.055
		c0.037,0.035,0.084,0.064,0.115,0.096c0.457,0.404,0.93,0.783,1.414,1.141c0.061,0.045,0.123,0.094,0.182,0.137
		c0.504,0.359,1.023,0.691,1.559,1.004c0.107,0.063,0.209,0.125,0.316,0.186c0.531,0.297,1.08,0.576,1.639,0.83
		c0.104,0.045,0.203,0.086,0.301,0.129c0.596,0.258,1.203,0.498,1.826,0.705c0.02,0.006,0.037,0.01,0.055,0.018
		c0.461,0.15,0.926,0.293,1.402,0.42c0.379,0.104,0.766,0.195,1.152,0.279c0.162,0.035,0.32,0.066,0.479,0.098
		c0.568,0.113,1.15,0.209,1.744,0.283c0.053,0.008,0.111,0.014,0.168,0.02c0.605,0.074,1.221,0.127,1.85,0.162
		c0.18,0.014,0.359,0.018,0.537,0.027c0.303,0.012,0.596,0.037,0.898,0.039c0.166,0.002,0.322-0.01,0.486-0.012
		c0.162,0.002,0.318,0.014,0.48,0.012c0.305-0.004,0.598-0.029,0.9-0.039c0.178-0.01,0.357-0.014,0.533-0.027
		c0.633-0.035,1.248-0.088,1.854-0.162c0.055-0.006,0.111-0.014,0.168-0.02c0.59-0.074,1.174-0.172,1.744-0.283
		c0.158-0.029,0.318-0.063,0.477-0.098c0.393-0.086,0.773-0.18,1.156-0.279c0.479-0.125,0.941-0.27,1.402-0.42
		c0.016-0.008,0.035-0.012,0.053-0.018c0.625-0.209,1.229-0.449,1.826-0.705c0.1-0.045,0.201-0.084,0.299-0.129
		c0.563-0.256,1.105-0.533,1.641-0.83c0.109-0.059,0.215-0.123,0.318-0.186c0.533-0.313,1.055-0.645,1.559-1.004
		c0.057-0.043,0.115-0.092,0.18-0.137c0.484-0.355,0.957-0.734,1.412-1.141c0.039-0.031,0.082-0.061,0.119-0.096
		c0.02-0.018,0.037-0.039,0.059-0.055c0.332-0.301,0.656-0.611,0.973-0.936c0.334-0.35,0.66-0.707,0.979-1.082
		c0.84-0.994,1.611-2.094,2.313-3.295c1.271-2.182,2.303-4.709,3.078-7.586c0.117,1.043,0.168,2.094,0.354,3.121
		C124.956,247.341,124.959,247.341,112.918,252.97z M117.905,262.911c-5.664,3.783-11.238,7.705-17.053,11.236
		c-0.531,0.322-1.305,0.473-2.107,0.48c-0.807-0.008-1.582-0.156-2.109-0.48c-5.814-3.531-11.395-7.453-17.055-11.236
		c6.502,2.686,12.852,3.891,19.164,3.83C105.053,266.8,111.403,265.595,117.905,262.911z M86.329,235.593
		c0.58-0.223,1.123-0.432,1.648-0.629c5.078-1.701,8.072-2.594,10.766-2.697c2.695,0.104,5.688,0.996,10.77,2.697
		c0.523,0.197,1.064,0.406,1.645,0.629c-0.479,0.777-0.982,1.428-1.51,1.965c-1.385,0.904-2.576,1.73-3.547,2.115
		c-0.361,0.102-0.729,0.174-1.098,0.223c-0.127-0.008-0.244-0.027-0.359-0.064c-1.83-0.664-3.84-0.514-5.898-0.264
		c-2.057-0.252-4.072-0.398-5.902,0.264c-0.111,0.039-0.232,0.059-0.355,0.064c-0.371-0.049-0.736-0.123-1.098-0.223
		c-0.971-0.385-2.16-1.211-3.545-2.115C87.317,237.019,86.811,236.372,86.329,235.593z M123.422,182.114
		c-0.113,0.07-0.215,0.143-0.32,0.213c-0.201,0.139-0.395,0.275-0.574,0.41c-0.113,0.082-0.227,0.168-0.332,0.25
		c-0.227,0.184-0.436,0.361-0.629,0.545c-0.123,0.115-0.232,0.236-0.346,0.357c-0.072,0.078-0.148,0.156-0.215,0.236
		c-0.115,0.135-0.223,0.271-0.318,0.408c-0.035,0.051-0.064,0.1-0.098,0.148c-0.211,0.32-0.387,0.646-0.512,0.988
		c-0.217,0.703-0.461,2.363,0.572,5.041c0.127,0.305,0.27,0.617,0.424,0.941c0.154,0.328,0.326,0.664,0.518,1.021
		c0.037,0.072,0.059,0.156,0.086,0.23c0.961,4.688-3.852,9.668-1.303,14.387c1.053,1.945,1.514,3.803,1.551,5.59
		c-0.105,3.148-1.201,5.98-2.771,8.641c-0.004,0.01-0.01,0.021-0.016,0.027c-0.125,0.209-0.258,0.418-0.385,0.625
		c-0.457,0.721-0.938,1.432-1.434,2.137c-0.688,0.959-1.406,1.902-2.143,2.84c-1.209,1.531-5.279,1.906-7.541,1.211
		c-2.348-0.719-4.75-3.088-5.785-5.346c-0.359-0.789,2.23-2.805,3.805-4.59c4.426-1.6,5.061-5.145,5.059-8.986
		c0.037-0.484,0.055-0.977,0.063-1.473c0.002-0.145,0-0.291,0-0.439c0-0.355,0.002-0.719-0.008-1.084
		c-0.002-0.035-0.002-0.072-0.006-0.107c-0.002-0.111-0.006-0.225-0.012-0.338c-0.016-0.387-0.029-0.773-0.051-1.174
		c-0.006-0.086-0.012-0.182-0.02-0.27c-0.145-2.375-0.422-4.959-0.617-7.957c-0.027-0.389-0.053-0.766-0.076-1.17
		c-0.021,0.07-0.041,0.135-0.063,0.203l-0.557-3.988l-0.551,3.412c-0.018-0.002-0.029-0.002-0.049-0.002
		c-0.281,2.154-0.563,4.303-0.84,6.434c-0.988,2.277-2.088,3.516-4.064,4.088c-1.988,0.182-3.684,0.313-5.129,0.367
		c-1.443-0.055-3.141-0.188-5.129-0.367c-1.975-0.572-3.076-1.811-4.063-4.088c-0.277-2.129-0.563-4.275-0.842-6.434
		c-0.018,0-0.033,0-0.047,0.002l-0.553-3.412l-0.555,3.988c-0.023-0.068-0.041-0.133-0.064-0.203
		c-0.021,0.404-0.049,0.781-0.072,1.17c-0.199,2.998-0.477,5.584-0.619,7.957c-0.008,0.088-0.016,0.184-0.02,0.27
		c-0.023,0.398-0.039,0.787-0.053,1.174c-0.004,0.113-0.01,0.227-0.014,0.338c-0.002,0.033-0.002,0.072-0.002,0.107
		c-0.012,0.365-0.012,0.729-0.012,1.084c0.002,0.148-0.002,0.295,0,0.439c0.012,0.498,0.029,0.984,0.066,1.473
		c-0.002,3.844,0.635,7.391,5.057,8.986c1.574,1.785,4.166,3.801,3.807,4.59c-1.035,2.258-3.438,4.627-5.787,5.346
		c-2.264,0.695-6.328,0.322-7.539-1.211c-0.736-0.938-1.455-1.881-2.146-2.84c-0.49-0.705-0.975-1.416-1.428-2.137
		c-0.131-0.207-0.268-0.416-0.387-0.623c-0.006-0.01-0.014-0.021-0.02-0.029c-1.566-2.66-2.662-5.492-2.771-8.641
		c0.041-1.785,0.504-3.643,1.555-5.59c2.545-4.719-2.266-9.699-1.305-14.387c0.027-0.074,0.049-0.158,0.088-0.23
		c0.188-0.355,0.361-0.693,0.514-1.021c0.156-0.324,0.293-0.639,0.426-0.941c1.033-2.678,0.789-4.338,0.572-5.041
		c-0.123-0.344-0.299-0.668-0.508-0.988c-0.033-0.049-0.064-0.1-0.1-0.148c-0.1-0.137-0.205-0.273-0.318-0.408
		c-0.07-0.078-0.143-0.158-0.219-0.236c-0.111-0.121-0.221-0.244-0.344-0.357c-0.193-0.184-0.402-0.361-0.629-0.545
		c-0.105-0.082-0.219-0.168-0.33-0.25c-0.182-0.135-0.369-0.271-0.572-0.41c-0.109-0.07-0.211-0.143-0.32-0.213
		c-0.324-0.205-0.656-0.414-1.02-0.625c-2.172-1.953-5.252-2.902-7.641-4.686c-4.869-3.639-5.906-6.327-3.547-12.225
		c0.373-0.927,0.818-1.926,1.355-3.025c0.158,1.777,0.561,3.2,1.139,4.366c2.301,4.623,7.473,5.076,11.943,6.503
		c1.961,1.126,3.834,2.43,5.982,3.874l1.34,0.889c0.053,0.039,0.105,0.074,0.16,0.109c0.334-0.406,0.969-1.178,1.746-2.121
		c0.322-0.34,0.656-0.688,1-1.051c1.941,2.614,3.844,5.176,6.26,8.43c1.363-2.914,2.859-4.615,4.473-5.246
		c0.504-0.182,0.996-0.273,1.482-0.277c0.484,0.006,0.98,0.1,1.482,0.277c1.609,0.631,3.109,2.332,4.473,5.246
		c2.414-3.254,4.32-5.816,6.26-8.43c0.344,0.36,0.678,0.711,0.996,1.051c0.777,0.943,1.416,1.715,1.75,2.121
		c0.053-0.035,0.105-0.07,0.16-0.109l1.34-0.889c2.15-1.443,4.021-2.748,5.982-3.874c4.471-1.427,9.643-1.88,11.941-6.503
		c0.58-1.165,0.98-2.588,1.137-4.366c0.537,1.102,0.984,2.1,1.354,3.025c2.361,5.897,1.322,8.586-3.543,12.225
		c-2.387,1.781-5.469,2.73-7.639,4.686C124.073,181.7,123.741,181.907,123.422,182.114z M67.211,157.887
		c1.818,1.235,3.449,2.338,4.959,3.363c2.514,1.709,4.697,3.197,6.887,4.688c-0.307,0.56-0.613,1.118-0.918,1.677
		c-0.57-0.047-1.137-0.102-1.688-0.169C72.37,166.787,68.528,165.469,67.211,157.887z M118.426,165.938
		c2.188-1.489,4.377-2.979,6.889-4.688c1.514-1.025,3.139-2.128,4.963-3.363c-1.316,7.582-5.162,8.898-9.242,9.559
		c-0.555,0.067-1.117,0.122-1.686,0.169C119.045,167.056,118.735,166.498,118.426,165.938z M48.897,88.982
		c1.33-3.945,1.189-8.374,0.918-12.857c-0.166-2.693-0.375-5.405-0.346-8.047c0.002-0.236,0.002-0.477,0.01-0.713
		c0.031-1.233,0.139-2.468,0.273-3.703c0.135-1.231,0.303-2.465,0.459-3.694c0.717,8.396,1.443,16.795,2.121,25.195
		c0.123,1.521,0.508,3.319-0.104,4.563c-5.709,11.645-1.156,22.251,3.051,32.923c0.904,2.303,1.754,4.622,1.842,7.155
		c-1.457-2.905-2.947-5.783-4.322-8.683C48.12,111.236,44.805,101.108,48.897,88.982z M38.997,230.343
		c-0.705-1.678-1.352-3.396-1.773-5.1c-0.426-1.703-0.625-3.393-0.443-5.006c2.846-12.135,6.166-24.158,9.434-36.199
		c0.463-1.719,0.93-3.438,1.393-5.158c0.164-0.377,0.328-0.756,0.488-1.135c0.002,0,0.002-0.004,0.002-0.008
		c0.264-0.568,0.627-1.299,1.102-2.104c0.627-1.066,1.447-2.267,2.488-3.427c0,0-0.613,2.05-1.203,4.164
		c-0.004,0.012-0.006,0.021-0.008,0.033c-0.316,1.328-0.652,2.65-1.002,3.975c-0.002,0.01-0.004,0.016-0.006,0.021
		c-1.176,4.443-2.52,8.861-3.846,13.291c-0.26,0.855-0.514,1.713-0.768,2.564c-0.127,0.439-0.26,0.885-0.387,1.322
		c-0.49,1.666-0.971,3.332-1.428,5.006c-0.051,0.178-0.094,0.354-0.143,0.529c-0.234,0.871-0.465,1.742-0.686,2.613
		c-0.074,0.303-0.15,0.607-0.227,0.908c-0.189,0.76-0.369,1.527-0.547,2.293c-0.084,0.367-0.166,0.734-0.25,1.104
		c-0.156,0.713-0.303,1.426-0.451,2.143c-0.08,0.404-0.162,0.809-0.236,1.213c-0.131,0.691-0.252,1.383-0.367,2.076
		c-0.074,0.426-0.146,0.85-0.209,1.277c-0.105,0.688-0.197,1.377-0.287,2.07c-0.055,0.432-0.117,0.857-0.166,1.289
		c-0.08,0.713-0.146,1.432-0.207,2.152c-0.033,0.408-0.074,0.814-0.107,1.229c-0.057,0.803-0.09,1.607-0.115,2.416
		c-0.016,0.33-0.039,0.66-0.045,0.988C38.965,228.028,38.961,229.181,38.997,230.343z M51.211,167.967
		c-0.193-0.627-0.365-1.246-0.518-1.866c-0.455-1.854-0.732-3.672-0.846-5.455c-0.035-0.733-0.049-1.461-0.039-2.19
		c0.008-0.726,0.039-1.45,0.088-2.175c0.061-0.729,0.146-1.451,0.262-2.171c0.787-5.033,2.818-9.832,5.715-14.497
		c-0.424,2.562-0.826,5.031-1.223,7.443c-0.992,6.029-1.926,11.695-2.869,17.445C51.59,165.652,51.399,166.806,51.211,167.967z
		 M41.194,170.298c0.896-5.129,3.074-9.979,4.285-14.88c0.176,4.434,1.109,8.95,1.199,13.482c0.016,0.646,0.01,1.296-0.02,1.941
		c-0.166,4.034-1.178,8.075-4.17,12.079C40.577,178.44,40.499,174.287,41.194,170.298z M34.694,196.618
		c0.723-1.627,1.531-3.234,2.32-4.85c0.971-1.973,1.912-3.955,2.623-5.977c0.121,0.357,0.217,0.758,0.297,1.184
		c0.041,0.574,0.064,1.145,0.074,1.713c0.084,6.244-1.813,12.109-3.777,17.959c-0.715,2.127-1.439,4.254-2.082,6.393
		c-0.229-0.25-0.449-0.506-0.648-0.771C31.163,206.526,32.528,201.497,34.694,196.618z M30.403,216.138
		c0.395,3.33,1.182,6.578,2.133,9.799c0.57,1.936,1.199,3.855,1.834,5.777c0.297,1.346,0.666,2.652,1.178,3.887
		c0.135,0.33,0.273,0.66,0.43,0.977c0.887,2.756,1.705,5.521,2.311,8.334c0.607,2.813,1.004,5.672,1.043,8.602
		c-0.152,1.736-0.432,3.49-0.814,5.262c-0.107,0.508-0.225,1.012-0.35,1.525c-0.166-0.111-0.328-0.221-0.492-0.33
		c-1.283-1.193-2.482-2.328-3.605-3.412c-0.748-0.723-1.455-1.42-2.135-2.1c-0.467-0.465-0.916-0.922-1.348-1.371
		c-3.027-3.125-5.258-5.811-6.748-8.328c-0.664-1.697-1.076-3.447-1.273-5.244C21.821,232.673,24.411,225.015,30.403,216.138z
		 M37.141,301.899c-0.289-0.25-0.572-0.508-0.828-0.789c-5.902-6.465-11.582-13.137-17.613-19.475
		c-0.619-0.652-1.201-1.299-1.76-1.941c-0.754-0.963-1.508-1.924-2.236-2.9c-0.396-0.531-0.764-1.053-1.111-1.564
		c-6.035-9.482-4.6-18.436,4.283-28.959c1.236,1.674,2.479,3.363,3.721,5.045c1.459,2.621,2.926,5.186,4.545,7.639
		c2.508,3.795,5.557,7.225,8.354,10.828c0.936,1.205,2.408,2.344,2.641,3.682c0.414,2.441,0.816,4.887,1.213,7.332
		c0.096,0.59,0.188,1.182,0.279,1.77c0.299,1.861,0.594,3.729,0.883,5.594c0.125,0.791,0.244,1.58,0.365,2.367
		c0.217,1.422,0.432,2.842,0.65,4.262c0.139,0.902,0.275,1.809,0.416,2.713v0.004l2.404,10.281
		C41.815,306.616,37.141,301.899,37.141,301.899z M65.086,314.646c-4.863-6.123-9.305-12.406-13.684-18.727
		c-0.885-1.547-1.709-3.123-2.467-4.736c-1.895-4.031-3.365-8.285-4.262-12.855c-0.182-0.914-0.334-1.838-0.465-2.777
		c-0.078-1.525-0.07-3.072,0.033-4.648c1.365-20.811,2.236-41.668,4.258-62.416c0.111-1.154,0.258-2.307,0.426-3.455
		c0.168-0.996,0.348-1.992,0.527-2.982c0.057-0.318,0.107-0.635,0.168-0.949c0-0.004,0-0.01,0.002-0.014
		c0.248-1.326,0.508-2.648,0.777-3.971c0.207-0.955,0.434-1.912,0.662-2.863c0.791-3.34,1.656-6.678,2.473-10.016
		c0.107-0.307,0.225-0.613,0.348-0.916c0-0.002,0.002-0.006,0.002-0.01l-0.002,0.002c0,0,1.369-3.496,3.152-5.934l-1.129,5.17
		h-0.002c-0.176,0.932-0.355,1.865-0.541,2.799c-0.164,0.828-0.324,1.65-0.486,2.477c-0.07,0.369-0.145,0.738-0.217,1.109
		c-0.113,0.594-0.23,1.189-0.344,1.785c-0.076,0.395-0.148,0.789-0.221,1.182c-0.102,0.543-0.199,1.094-0.291,1.643
		c-0.072,0.398-0.141,0.799-0.207,1.199c-0.092,0.549-0.18,1.096-0.264,1.645c-0.061,0.389-0.121,0.777-0.178,1.17
		c-0.086,0.598-0.164,1.199-0.236,1.793c-0.039,0.336-0.09,0.666-0.125,1.002c-0.104,0.93-0.197,1.861-0.268,2.795
		c-0.014,0.168-0.023,0.336-0.035,0.502c-3.098,19.658-4.887,39.414-3.348,59.426c-0.006,0.191-0.016,0.383-0.023,0.576
		c-0.018,0.414-0.025,0.826-0.029,1.242c0,0.189,0.006,0.379,0.012,0.572c0,0.217,0,0.436,0.01,0.654
		c0.008,0.252,0.023,0.504,0.039,0.754c0.008,0.154,0.018,0.313,0.027,0.471c0.021,0.283,0.051,0.57,0.084,0.854
		c0.012,0.117,0.02,0.236,0.035,0.354c0.037,0.313,0.086,0.623,0.135,0.934c0.018,0.088,0.025,0.18,0.043,0.268
		c0.055,0.33,0.123,0.662,0.191,0.986c0.016,0.068,0.027,0.135,0.043,0.205c0.078,0.344,0.166,0.686,0.262,1.029
		c0.014,0.049,0.025,0.1,0.039,0.15c0.102,0.354,0.213,0.711,0.336,1.063c0.012,0.035,0.021,0.074,0.033,0.109
		c0.123,0.363,0.268,0.727,0.412,1.086c0.01,0.025,0.018,0.049,0.027,0.072c0.152,0.369,0.316,0.738,0.492,1.105
		c0.01,0.016,0.014,0.031,0.021,0.043c0.182,0.375,0.375,0.748,0.584,1.119c0.002,0.006,0.006,0.016,0.01,0.02
		c0.211,0.377,0.434,0.75,0.676,1.127c0.963,1.502,2.162,2.969,3.641,4.393l-0.021-0.006l1.758,2.078l-0.258-1.605
		c-0.154-1.525-0.299-3.049-0.436-4.57c-0.006-0.072-0.014-0.145-0.02-0.217c-0.129-1.439-0.254-2.875-0.369-4.307
		c-0.072-0.914-0.139-1.83-0.205-2.742c-0.043-0.592-0.092-1.188-0.133-1.777c-0.109-1.537-0.203-3.072-0.297-4.604
		c-0.119-3.635-0.225-7.258-0.305-10.867c-0.236-10.83-0.234-21.551,0.301-32.193c0.588-9.029,1.596-18.006,3.051-26.963
		c0.383-2.355,0.789-4.711,1.234-7.063c-0.08,1.184-0.152,2.363-0.232,3.545c-0.076,1.184-0.156,2.367-0.232,3.551
		c-2.002,24.355-2.658,48.619-0.279,72.715c0.156,1.605,0.328,3.213,0.516,4.816c0.426,3.668,0.922,7.332,1.498,10.99
		c0.027,0.152,0.053,0.305,0.074,0.455c0.191,1.189,0.389,2.373,0.594,3.561c0.01,0.064,0.023,0.129,0.033,0.195
		c2.023,11.563,4.854,23.088,8.697,34.555C69.159,319.409,67.102,317.032,65.086,314.646z M121.545,292.935l-0.965,0.828
		l-0.027,0.027h-0.002c-6.979,5.229-13.973,10.438-21.037,15.547c-0.178,0.129-0.457,0.188-0.771,0.193
		c-0.313-0.006-0.592-0.063-0.771-0.193c-7.066-5.109-14.063-10.318-21.035-15.547h-0.002l-0.029-0.027l-0.967-0.828l-1.984-1.705
		l3.512,1.141c0.414,0.115,0.854,0.236,1.322,0.365l0.951,0.27c0.813,0.223,1.732,0.48,2.834,0.783
		c-7.635-11.908-17.49-21.365-15.512-35.191c6.137,5.926,11.852,12.49,18.66,17.592c6.561,4.92,9.732,7.408,13.02,7.342
		c3.289,0.066,6.461-2.422,13.021-7.342c6.809-5.104,12.525-11.668,18.662-17.592c1.979,13.824-7.875,23.283-15.514,35.191
		c1.104-0.303,2.023-0.561,2.834-0.783l0.949-0.27c0.473-0.129,0.91-0.25,1.326-0.365l3.51-1.141L121.545,292.935z M153.274,275.552
		c-0.131,0.939-0.285,1.861-0.467,2.777c-0.893,4.57-2.365,8.824-4.26,12.855c-0.756,1.613-1.582,3.188-2.465,4.736
		c-4.385,6.318-8.824,12.604-13.688,18.727c-2.016,2.387-4.072,4.762-6.117,7.154c3.844-11.465,6.672-22.988,8.693-34.557
		c0.01-0.063,0.023-0.127,0.035-0.193c0.205-1.188,0.4-2.371,0.592-3.561c0.021-0.15,0.047-0.303,0.074-0.457
		c0.576-3.654,1.074-7.32,1.5-10.988c0.186-1.604,0.355-3.211,0.514-4.816c2.381-24.094,1.723-48.357-0.281-72.715
		c-0.072-1.184-0.15-2.367-0.23-3.551c-0.078-1.182-0.154-2.361-0.232-3.543c0.467,2.467,0.896,4.939,1.293,7.412
		c1.422,8.836,2.41,17.697,2.992,26.607c0.535,10.643,0.537,21.365,0.301,32.193c-0.08,3.609-0.186,7.234-0.305,10.867
		c-0.092,1.533-0.189,3.068-0.297,4.605c-0.041,0.59-0.09,1.188-0.133,1.777c-0.068,0.912-0.133,1.828-0.209,2.742
		c-0.115,1.432-0.238,2.865-0.365,4.307c-0.008,0.07-0.012,0.143-0.021,0.215c-0.135,1.523-0.279,3.043-0.432,4.572l-0.262,1.604
		l1.762-2.078l-0.025,0.008c1.846-1.777,3.256-3.621,4.316-5.52c0.004-0.006,0.008-0.016,0.012-0.02
		c0.205-0.371,0.4-0.744,0.582-1.119c0.008-0.016,0.016-0.031,0.023-0.043c0.176-0.367,0.342-0.736,0.492-1.105
		c0.012-0.023,0.021-0.047,0.027-0.072c0.146-0.359,0.285-0.723,0.412-1.088c0.012-0.033,0.021-0.072,0.035-0.107
		c0.119-0.355,0.23-0.709,0.33-1.064c0.016-0.049,0.031-0.1,0.041-0.148c0.096-0.346,0.186-0.688,0.26-1.029
		c0.018-0.07,0.029-0.135,0.041-0.205c0.07-0.328,0.139-0.658,0.199-0.986c0.012-0.09,0.025-0.178,0.037-0.266
		c0.051-0.313,0.098-0.625,0.135-0.936c0.016-0.115,0.027-0.234,0.039-0.352c0.031-0.285,0.063-0.572,0.084-0.861
		c0.014-0.156,0.018-0.313,0.027-0.469c0.016-0.25,0.033-0.502,0.039-0.752c0.006-0.221,0.006-0.438,0.01-0.658
		c0.006-0.191,0.012-0.381,0.01-0.57c-0.002-0.416-0.014-0.828-0.025-1.242c-0.01-0.193-0.02-0.383-0.029-0.576
		c1.543-20.012-0.248-39.766-3.344-59.424c-0.014-0.168-0.021-0.334-0.035-0.504c-0.07-0.934-0.16-1.863-0.27-2.793
		c-0.033-0.336-0.082-0.668-0.127-1.004c-0.068-0.598-0.146-1.199-0.23-1.795c-0.059-0.391-0.117-0.777-0.184-1.166
		c-0.08-0.547-0.166-1.096-0.26-1.643c-0.064-0.404-0.133-0.807-0.207-1.209c-0.096-0.545-0.193-1.09-0.293-1.635
		c-0.074-0.393-0.146-0.789-0.219-1.184c-0.115-0.592-0.229-1.188-0.344-1.777c-0.074-0.371-0.145-0.74-0.219-1.113
		c-0.164-0.826-0.324-1.654-0.488-2.479c-0.184-0.932-0.365-1.865-0.539-2.797h-0.004l-1.127-5.172
		c1.783,2.438,3.154,5.934,3.154,5.934l-0.006-0.002c0.002,0.004,0.006,0.008,0.006,0.012c0.119,0.303,0.238,0.609,0.346,0.916
		c0.816,3.338,1.682,6.674,2.475,10.014c0.227,0.955,0.449,1.912,0.662,2.865c0.27,1.32,0.529,2.645,0.775,3.969
		c0,0.004,0.004,0.01,0.004,0.014c0.059,0.314,0.109,0.633,0.17,0.949c0.18,0.992,0.357,1.986,0.527,2.982
		c0.166,1.148,0.309,2.301,0.422,3.455c2.018,20.748,2.889,41.605,4.258,62.416C153.348,272.478,153.352,274.024,153.274,275.552z
		 M183.895,275.229c-0.354,0.514-0.719,1.033-1.111,1.564c-0.732,0.979-1.484,1.938-2.24,2.9c-0.555,0.643-1.137,1.291-1.76,1.941
		c-6.029,6.338-11.709,13.01-17.611,19.475c-0.256,0.281-0.537,0.539-0.83,0.789c0,0-4.672,4.717-6.201,5.885l2.4-10.285
		l0.002-0.002c0.137-0.904,0.277-1.811,0.416-2.713c0.217-1.418,0.432-2.84,0.65-4.26c0.123-0.787,0.242-1.578,0.365-2.367
		c0.289-1.865,0.584-3.73,0.881-5.596c0.092-0.588,0.188-1.18,0.279-1.77c0.395-2.445,0.799-4.891,1.215-7.332
		c0.229-1.338,1.703-2.477,2.639-3.682c2.793-3.604,5.846-7.033,8.352-10.828c1.619-2.455,3.086-5.02,4.545-7.639
		c1.242-1.68,2.484-3.371,3.725-5.045C188.497,256.794,189.932,265.745,183.895,275.229z" class="color c1"/>
  </g>
</svg>