<svg version="1.1" id="图层_1" x="0px" y="0px" width="119.605px" height="149.085px" viewBox="0 0 119.605 149.085" enable-background="new 0 0 119.605 149.085" xml:space="preserve" xmlns="http://www.w3.org/2000/svg" xmlns:xlink="http://www.w3.org/1999/xlink" xmlns:xml="http://www.w3.org/XML/1998/namespace">
  <path fill="#F07C13" d="M117.105,36.349L87.166,19.063c3.609-3.662,8.225-6.184,13.307-7.174c3.253-0.633,5.376-3.783,4.743-7.036
	c-0.634-3.253-3.791-5.374-7.036-4.742c-8.49,1.653-16.12,6.179-21.658,12.807L62.303,4.708c-1.547-0.894-3.453-0.894-5,0
	l-14.219,8.209C37.546,6.291,29.916,1.764,21.426,0.111c-3.242-0.631-6.402,1.489-7.036,4.742c-0.633,3.253,1.49,6.403,4.743,7.036
	c5.082,0.99,9.697,3.512,13.307,7.174L2.5,36.349C0.953,37.242,0,38.893,0,40.679v63.281c0,1.787,0.953,3.438,2.5,4.33
	l22.148,12.787c8.866,5.675,30.355,19.955,34.757,27.776c0.004,0.009,0.011,0.017,0.017,0.026c0.004,0.008,0.01,0.016,0.015,0.023
	h0.004c0.075,0.107,0.206,0.182,0.362,0.182s0.287-0.074,0.362-0.182h0.004c0.005-0.008,0.011-0.016,0.015-0.023
	c0.006-0.01,0.013-0.018,0.017-0.026c4.401-7.821,25.891-22.102,34.757-27.776l22.148-12.787c1.547-0.893,2.5-2.543,2.5-4.33V40.679
	C119.605,38.893,118.652,37.242,117.105,36.349z M109.605,101.073l-49.803,28.754L10,101.073V43.566l49.803-28.754l49.803,28.754
	V101.073z" class="color c1"/>
</svg>