<svg version="1.1" id="图层_1" x="0px" y="0px" width="43.578px" height="39.622px" viewBox="0 0 43.578 39.622" enable-background="new 0 0 43.578 39.622" xml:space="preserve" xmlns="http://www.w3.org/2000/svg" xmlns:xlink="http://www.w3.org/1999/xlink" xmlns:xml="http://www.w3.org/XML/1998/namespace">
  <circle fill="#FCD53F" cx="9.176" cy="9.176" r="5.676" class="color c1"/>
  <circle fill="#FCD53F" cx="34.402" cy="9.176" r="5.676" class="color c1"/>
  <g>
    <path fill="#060034" d="M9.176,0C4.116,0,0,4.117,0,9.176c0,3.11,1.56,5.86,3.934,7.521c-2.037,5.815-3.388,12.361-3.918,19.152
		c-0.151,1.927,1.289,3.611,3.216,3.762c0.093,0.008,0.185,0.012,0.277,0.012c1.808,0,3.342-1.393,3.485-3.228
		c0.509-6.521,1.832-12.761,3.834-18.199c4.272-0.781,7.524-4.524,7.524-9.02C18.352,4.116,14.236,0,9.176,0z M9.176,7
		c1.199,0,2.176,0.976,2.176,2.176c0,1.2-0.977,2.176-2.176,2.176C7.977,11.352,7,10.376,7,9.176C7,7.976,7.977,7,9.176,7z" class="color c2"/>
    <path fill="#060034" d="M43.578,9.176c0-5.06-4.115-9.176-9.176-9.176c-5.06,0-9.176,4.116-9.176,9.176
		c0,3.111,1.56,5.86,3.934,7.521c-2.036,5.815-3.386,12.36-3.918,19.151c-0.152,1.927,1.289,3.611,3.215,3.762
		c0.093,0.008,0.186,0.012,0.277,0.012c1.808,0,3.342-1.393,3.486-3.228c0.51-6.521,1.83-12.761,3.834-18.199
		C40.327,17.414,43.578,13.671,43.578,9.176z M34.402,7c1.201,0,2.176,0.976,2.176,2.176c0,1.2-0.975,2.176-2.176,2.176
		c-1.199,0-2.176-0.976-2.176-2.176C32.227,7.976,33.203,7,34.402,7z" class="color c2"/>
  </g>
</svg>