<svg version="1.1" id="图层_1" x="0px" y="0px" width="59.073px" height="26.721px" viewBox="0 0 59.073 26.721" enable-background="new 0 0 59.073 26.721" xml:space="preserve" xmlns="http://www.w3.org/2000/svg" xmlns:xlink="http://www.w3.org/1999/xlink" xmlns:xml="http://www.w3.org/XML/1998/namespace">
  <g>
    <path fill="#070B04" d="M33.736,21.443c0.077-3.259,2.382-6.351,5.044-8.044c3.24-2.061,6.949-2.906,10.487-4.284
		c3.554-1.384,7.234-3.452,8.946-7.01c0.327-0.677,0.631-1.39,0.859-2.104c-0.806,3.211-5.627,14.505-14.246,16.416
		c-2.611,0.37-5.148,2.023-7.23,3.546c-0.342,0.252-1.422,0.934-1.13,1.53c0.148,0.301,0.713,0.725,0.966,0.944
		c0.879,0.763,2.013,1.37,3.029,1.935c0.223,0.125,0.436,0.295,0.648,0.428c-2.354,0.971-5.11,1.532-7.618,1.888
		c-1.965,0.279-5.11-1.127-5.782-3.136c1.189-0.193,2.381-0.376,3.568-0.565c-0.558,0.056-0.965-0.388-1.445-0.587
		c-1.27-0.531-2.825-0.225-4.157-0.201c-3.436,0.058-6.882,0.456-10.279,0.964c-0.998,0.151-1.997,0.313-2.99,0.491
		c-3.339,0.595-6.449,0.446-9.712-0.506C1.787,22.883,0.889,22.583,0,22.261c0.325,0.117,0.916,0.004,1.251,0.005
		c1.096,0.002,2.191-0.014,3.284-0.057c2.546-0.101,5.107-0.285,7.608-0.793c2.457-0.5,4.786-1.452,7.143-2.287
		c1.336-0.474,2.688-0.913,4.077-1.21c2.597-0.556,6.034-1.354,8.335,0.465C32.684,19.162,33.394,20.249,33.736,21.443z" class="color c1"/>
  </g>
</svg>