<svg version="1.1" id="图层_1" x="0px" y="0px" width="198.3px" height="165.8px" viewBox="0 0 198.3 165.8" enable-background="new 0 0 198.3 165.8" xml:space="preserve" xmlns:xml="http://www.w3.org/XML/1998/namespace" xmlns="http://www.w3.org/2000/svg" xmlns:xlink="http://www.w3.org/1999/xlink">
  <path fill="#FFFFFF" d="M166.486,26.035c-26.48-28.807-97.57-27.953-133.993-6.053C-5.872,55.82-2.425,93.251,43.244,86.083l0,0
	l30.462,9.994c18.73,10.728,8.636,22.754,16.798,18.401c1.323-0.705,1.184,0.957,3.146-1.079c1.998-0.374-28.263,34.419-25.25,38.2
	c2.913,3.656,32.605,16.3,45,7.3c9.962-7.233,20.631-2.002,23.75-3.698l5.5-38.427l11.075-31.186
	C193.9,100.15,217.65,57.963,166.486,26.035z" class="color c1"/>
  <path fill="#1F3452" d="M149.5,90.6L49.4,93.1c6.6,25.3,10.8,48.7,4.4,61.101c28.9,17.399,72.3,13.5,90.401-0.5
	C138.6,135.6,140.5,114.5,149.5,90.6z M119.9,152.5l4.4-9.397c-8.9,9-20.4,13.603-35,12.397c-10.1-4,4.8-21.5,13.1-23.6
	c9.9,1.9,22.801-10.699,23.1-27.3c1.5-1.2,2.9-2.399,3.801-3.8c5.4-1.2,10.199-2.5,14.302-4.2c-6.103,17.601-9.302,33.8-7.802,53.5
	C131.1,151.201,125.6,151.9,119.9,152.5z" class="color c2"/>
  <path fill="#B6D1E3" d="M125.5,103.701C123.5,123,115.1,132.1,89,126.6c2.1,1.2,2.6,3.8,8.6,5.2c-4.5,4.4-9,8.8-13.3,13l-1.6-2.7
	c-8.6,7.8-9.8,13.2,6.5,13.101c-6-4.301,1.1-12.5,13.1-22.201v3.201C114.3,133.8,125.8,122.9,125.5,103.701z" class="color c3"/>
  <path fill="#B6D1E3" d="M82.6,102.201c-1.6,10.6-7.4,17.699-10.2,25.6l5.1-1.6L61.1,151.6l-9.8-60L82.6,102.201z" class="color c3"/>
  <path fill="#B6D1E3" d="M129.8,10.8C98.1,9,75.6,12,60.7,19C68.1,22.2,74,27.7,78,36.1c0.9,1.8-0.1,3.9-2,4.5
	c-26.5,8.1-34.1,35.3-21.3,46.3C-6.6,55,46.9-16.7,129.8,10.8z" class="color c3"/>
  <path fill="#B6D1E3" d="M105,47.4C85.3,49.3,80.8,56.7,91.6,69.6C71.9,56.3,78.4,42.3,105,47.4z" class="color c3"/>
  <path fill="#B6D1E3" d="M75,91.5C58.5,82,59.4,70.5,76.6,57v-6.7C48,65.1,53.9,91,75,91.5z" class="color c3"/>
  <path fill="#B6D1E3" d="M97.4,86.8L79,97.8c14.2,8.4,37,7.199,40-0.9L97.4,86.8z" class="color c3"/>
  <path fill="#B6D1E3" d="M25,54.4L6.8,64.7c-0.3,6.9,1.1,12.5,5.1,16.5c-0.2-4.1-3.1-11.2-0.4-13.6c2.3-2.3,9.1-2.5,10.9-4.5
	c2.7,6.2,5.6,12,11,13.9L25,54.4z" class="color c3"/>
  <ellipse transform="matrix(0.1217 0.9926 -0.9926 0.1217 87.8712 -32.4949)" fill="#1F3452" cx="62.297" cy="33.404" rx="11" ry="10.902" class="color c2"/>
  <ellipse fill="#1F3452" cx="134.946" cy="33.429" rx="11" ry="11" class="color c2"/>
  <path fill="#1F3452" d="M155.3,88l-5.192-2.808c-1.6,0.9-3.808,4.509-5.608,5.208c-2.897,1.2-6,2.301-9.199,3.2
	c-2.301,0.601-4.6,1.2-7.1,1.601C114.1,109.8,96.138,109.4,74.337,96.9L44.15,87.244L43.9,88C43.6,88,43.3,88.1,43,88.1
	c0.3,0.2,0.7,0.5,1,0.7c7.8,20.9,12.3,40,9.8,64.5l8,0.8c2.4-22.7-1-41-7.4-59.899C58.6,96,63.4,97.4,68.7,98.6
	c4,6.8,15.7,11.3,30.3,11.3c11.5,0,21.1-2.9,26.701-7.4c1.5-1.199,2.699-2.5,3.6-3.897c5.4-1.2,10.199-2.603,14.302-4.397
	c-6.103,18.197-9.302,35-7.802,55.299c0.102,1.5,0.199,3,0.4,4.601l8-0.8C141.6,129.201,146,110.701,154,89
	C154.3,88.6,154.9,88.4,155.3,88z" class="color c2"/>
  <path fill="#1F3452" d="M198.1,65.3c-1.601-26.3-25.3-43.6-43-51.8C143.9,5.6,126.4,0,99,0C71.7,0,54.2,5.6,43,13.3
	C26.1,21.1,2.2,37.6,0.2,64.9C0,65.5,0,66.3,0,67.1c0,15.3,10.4,25.7,25.7,25.7c5.8,0,11.8-1.5,16.8-4.6
	C42.6,88.1,42.7,88.1,42.9,88C43,88,43,88.1,43.1,88.1C43.4,88.1,43.7,88,44,88l0,0l30.5,10c21.8,12.5,39.8,11.801,53.9-2.799
	c8-1.5,15.1-3.801,21.301-7.201h5.799c5,3.201,11.103,4.801,17.301,4.801c15.302,0,25.699-10.398,25.699-25.698
	C198.3,66.5,198.3,65.9,198.1,65.3z M172.6,84.8c-3.8,0-7.601-0.801-10.8-2.4c7.4-7.6,10.6-16.3,11.5-24.7c2.8,1.6,5.8,2.8,8.6,3.8
	c5.6,2,8.4,3.4,8.4,5.6C190.3,78,183.6,84.8,172.6,84.8z M105.3,39.6c-2.4-0.2-4.4-0.2-6.2-0.2c-1.8,0-4,0-6.4,0.2
	c0-0.6,0-1.4,0-2.2c-1.4-8.6-8-18.5-16.3-24.5c-1.4-1-3-2-4.4-2.6C80,8.8,89.2,8,99.3,8c9.8,0,18.901,0.8,26.7,2.4
	c-1.397,0.8-3,1.6-4.397,2.8C113,19.2,106.5,29.1,105.3,37.7C105.1,38.4,105.1,39,105.3,39.6z M115.3,55.5
	c0,8.4-11.9,15.3-16.3,15.3s-16.3-7-16.3-15.3c0-5.4,2.6-8.2,16.3-8.2C112.9,47.4,115.3,50.2,115.3,55.5z M8.2,67.1
	c0-2.2,2.6-3.6,8.4-5.6c2.6-1,5.6-2,8.2-3.6C26,66.3,29.2,75,36.5,82.4c-3.2,1.4-6.8,2.2-10.6,2.2C14.9,84.8,8.2,78,8.2,67.1z
	 M53,64.3c-1.4,4.2-2.2,7.6-2.2,11.3C50.8,79,51.6,82,53,85c-13.7-7.2-20.9-18.7-20.9-34.2c0-12.2,4.4-22,13.1-29
	c1.5-1.2,3.2-2.2,5-2.9c4.1-1.7,7.5-2.6,9.8-3.1c3.4-0.6,7.4,0.8,11.7,3.8c6.6,4.8,12.1,12.9,13.1,19.3c0.4,2.6-6.2,5.6-11.5,8
	C64.7,50.8,56.2,55,53,64.3z M58.9,75.7c0-1.6,0.2-3.2,0.6-4.9c1.3-5.7,5.1-10.5,10.3-13.3c1.6-0.9,3.2-1.7,4.9-2.5l0,0
	c-0.4,11.8,11.8,21,20.5,23.2c0,0,0,0,0,0.2c-1.6,7-9.2,12.1-17.9,12.1C67.1,90.6,58.9,83.8,58.9,75.7z M98.8,102.1
	c-7.6,0-14.1-1.8-18.3-3.8C88.3,97.5,95.2,93.5,99.2,88.1c4,5.399,10.799,9.2,18.299,10.2C113.3,100.3,106.701,102.1,98.8,102.1z
	 M121.3,90.6c-9,0-16.301-5.2-17.9-12.1c0-0.2,0-0.2,0-0.4c8.6-2.4,19.9-11.2,19.9-22.5c0-0.4,0-0.8,0-1.2
	c5,2.4,10.199,4.8,12.5,8.6c2.6,4.8,3.8,9.2,3.8,12.7C139.6,83.8,131.4,90.6,121.3,90.6z M145.5,84.6c1.4-2.8,2-5.8,2-9
	c0-4-1-8.4-3.199-13.1c-0.398-1.4-1.198-2.6-1.801-3.8c0-0.2-0.199-0.2-0.199-0.4c-4.198-6-11.698-9.4-18.5-12.3
	c-5.6-2.4-11.1-4.8-10.801-7.4c1-6.4,6.603-14.5,13.103-19.3c4.198-3,8.397-4.4,11.698-3.8c2.802,0.4,7.602,2,13.302,4.8
	c9.8,7.2,14.698,17.3,14.698,30.3C166,66.1,159.1,77.4,145.5,84.6z" class="color c2"/>
</svg>