<svg version="1.1" id="图层_1" x="0px" y="0px" width="37.876px" height="37.875px" viewBox="0 0 37.876 37.875" enable-background="new 0 0 37.876 37.875" xml:space="preserve" xmlns="http://www.w3.org/2000/svg" xmlns:xlink="http://www.w3.org/1999/xlink" xmlns:xml="http://www.w3.org/XML/1998/namespace">
  <path fill="#09A2B2" d="M36.454,7.658c-1.387-1.387-3.401-1.754-5.126-1.111c0.642-1.725,0.274-3.74-1.111-5.126
	c-1.894-1.894-4.966-1.894-6.861,0c-1.894,1.895-1.894,4.967,0,6.862c0.024,0.024,0.052,0.045,0.076,0.069L8.351,23.431
	c-0.023-0.024-0.044-0.051-0.068-0.076c-1.895-1.894-4.966-1.894-6.86,0c-1.896,1.895-1.896,4.967,0,6.861
	c1.387,1.387,3.401,1.754,5.126,1.111c-0.643,1.725-0.274,3.74,1.111,5.127c1.895,1.895,4.966,1.895,6.861,0
	c1.895-1.896,1.895-4.967,0-6.861c-0.024-0.025-0.052-0.046-0.076-0.07l15.08-15.08c0.024,0.025,0.045,0.052,0.069,0.077
	c1.895,1.895,4.966,1.895,6.86,0C38.35,12.625,38.35,9.552,36.454,7.658z" class="color c1"/>
</svg>