<svg version="1.1" id="图层_1" x="0px" y="0px" width="140.131px" height="148.363px" viewBox="0 0 140.131 148.363" enable-background="new 0 0 140.131 148.363" xml:space="preserve" xmlns="http://www.w3.org/2000/svg" xmlns:xlink="http://www.w3.org/1999/xlink" xmlns:xml="http://www.w3.org/XML/1998/namespace">
  <g>
    <path fill="#1A436B" d="M137.627,54.736c3.402-28.654-10.154-34.409-11.771-34.989c-5.732-2.607-9.883,1.044-11.213,3.25
		c-0.061,0.086-6.008,8.573-10.58,13.335c-4.375,4.554-8.594,4.603-8.762,4.603c-0.088-0.006-0.18,0.002-0.27,0.014
		c-5.838,0.727-13.133-4.194-13.207-4.244c-0.033-0.023-0.068-0.046-0.104-0.066l-4.33-2.551c-2.057-1.277-4.43-1.952-6.863-1.952
		c-0.16,0-0.313,0.026-0.461,0.064c-0.148-0.038-0.303-0.065-0.465-0.065c-2.432,0-4.807,0.675-6.828,1.929l-4.365,2.572
		c-0.035,0.022-0.07,0.045-0.105,0.068c-0.074,0.051-7.348,4.975-13.205,4.245c-0.076-0.012-0.154-0.016-0.23-0.016
		c-0.014,0-0.031-0.004-0.041,0c-0.105,0-4.41-0.076-8.76-4.604c-4.566-4.753-10.51-13.232-10.514-13.232
		c-1.398-2.307-5.543-5.959-11.279-3.353c-1.619,0.581-15.17,6.334-11.775,34.976c-2.762-7.977-2.949-14.895-1.932-22.655
		C2.877,14.442,25.985,4.868,26.299,4.738c2.775-1.281,5.277-2.262,7.545-2.996c0.059-0.012,0.117-0.016,0.176-0.033
		c9.061-2.67,16.074,6.189,21.197,12.664c1.248,1.576,2.426,3.065,3.51,4.231c4.408,4.738,8.738,5.363,10.721,5.363
		c0.229,0,0.414-0.009,0.578-0.021c0.211,0.021,0.484,0.037,0.82,0.037c2.111,0,6.461-0.667,10.598-5.428
		c0.896-1.029,1.877-2.295,2.916-3.634C89.588,8.18,96.745-1.056,106.11,1.708c0.047,0.014,0.094,0.017,0.141,0.026
		c2.301,0.741,4.842,1.737,7.664,3.04c0.232,0.094,23.334,9.635,25.65,27.292C140.583,39.83,140.395,46.751,137.627,54.736z
		 M58.239,12.061c1.201,1.517,2.336,2.95,3.318,4.007c3.596,3.866,6.859,4.202,8.014,4.184c0.197-0.049,0.406-0.06,0.617-0.039
		c0.199-0.012,0.393,0.001,0.58,0.049c1.156,0.049,4.531-0.197,7.967-4.147c0.828-0.952,1.777-2.176,2.781-3.473
		C84.727,8.5,88.889,3.143,94.108,0.025c-4.48,0.466-7.402,2.353-10.006,4.038c-0.416,0.27-0.82,0.53-1.217,0.776
		c-7.189,4.482-11.773,4.56-12.719,4.515C69.217,9.4,64.639,9.322,57.448,4.84c-0.395-0.247-0.799-0.508-1.215-0.776
		C53.588,2.353,50.616,0.432,46.024,0C51.067,3.004,55.112,8.109,58.239,12.061z M97.84,53.597c1.207-0.178,2.463-0.814,3.281-1.777
		c0.836-0.951,1.268-2.078,1.521-3.152c0.244-1.086,0.318-2.158,0.299-3.215c-0.02-0.816-0.078-1.623-0.193-2.428
		c0.906-0.775,1.291-1.842,1.645-2.895c-4.689,4.164-9.172,4.504-10.086,4.527c-1.416,0.164-2.865,0.076-4.285-0.158
		c0.343,2.656,1.216,11.004-0.705,15.211c-1.421-7.592-3.502-14.076-4.387-16.666c-3.3-1.307-5.797-2.936-6.23-3.227l-4.352-2.564
		c-1.449-0.9-3.119-1.377-4.832-1.39c-1.713,0.013-3.385,0.49-4.832,1.39l-4.352,2.564c-0.479,0.322-3.471,2.271-7.286,3.619
		c-0.946,2.814-2.899,9.043-4.253,16.273c-1.893-4.143-1.075-12.299-0.722-15.084c-1.116,0.127-2.241,0.158-3.347,0.031
		c-0.662-0.018-3.191-0.203-6.313-1.873c-0.096,0.387-0.176,0.779-0.23,1.174c-0.146,1.189-0.096,2.408,0.139,3.604
		c0.234,1.201,0.67,2.379,1.348,3.469c0.682,1.076,1.648,2.078,2.912,2.678c0.572,0.27,2.354,0.527,2.906,0.551
		c0.051,0.002,0.094,0.002,0.121,0c0,0-0.045,0-0.121,0c-0.967-0.006-7.648-0.002-9.051,1.027c0,0,11.715,8.189,16.309,23.252
		c2.598,8.514,3.932,14.363,5.41,17.979c0,0,0.408,0.912,0.648,1.402c0.971,1.869,2.074,2.896,3.664,3.158
		c0.164,0.027,0.355,0.057,0.542,0.086c-0.257-2.018-0.866-8.025,0.526-11.072c0.929,4.963,2.245,9.289,2.979,11.514
		c1.171,0.119,2.456,0.219,3.806,0.275h4.324c0.881-0.041,1.752-0.111,2.6-0.215c0.729-2.205,2.061-6.564,2.998-11.574
		c1.347,2.947,0.822,8.658,0.555,10.857c0.063-0.02,0.105-0.035,0.105-0.035c1.461-0.457,2.715-1.094,3.605-1.971
		c0.346-0.34,0.662-0.76,0.961-1.232c0.258-0.418,0.512-0.898,0.512-0.898c3.076-6.094,3.686-19.244,6.396-25.324
		c3.1-6.943,4.361-12.172,10.721-16.328C99.704,53.898,95.463,53.964,97.84,53.597z" class="color c1"/>
    <g>
      <path fill="#FFFFFF" d="M48.135,33.432l-0.184,0.009l-0.148,0.004c-0.201,0.003-0.396-0.009-0.59-0.035
			c-0.385-0.059-0.754-0.163-1.102-0.335c-1.402-0.682-2.434-2.279-3.055-4.002c-0.314-0.87-0.535-1.792-0.664-2.741
			c-0.113-0.77-0.135-1.554-0.088-2.362c0.305-0.693,0.775-1.406,1.424-2.026c0.309-0.086,0.607-0.188,0.898-0.295
			c1.027-0.398,1.969-0.841,2.791-0.795c0.229,0.005,0.451,0.044,0.674,0.106C46.475,23.17,46.051,28.34,48.135,33.432z" class="color c2"/>
      <path fill="#FFFFFF" d="M49.315,21.529l0.055,0.034l0.141,0.098l0.092,0.077l0.111,0.097c0.572,0.531,0.988,1.393,1.342,2.336
			c0.711,1.891,1.324,4.095,2.619,5.996c0.641,0.946,1.445,1.802,2.383,2.443c0.371,0.252,0.758,0.473,1.156,0.662
			c-0.219,0.006-0.432,0.023-0.641,0.055c-0.199-0.166-0.412-0.319-0.645-0.455c-0.457-0.278-1.014-0.443-1.584-0.479
			c-0.572-0.034-1.125,0.066-1.631,0.183c-0.51,0.114-0.984,0.253-1.453,0.364c-0.875,0.223-1.73,0.369-2.6,0.45
			C50.403,30.174,50.217,24.971,49.315,21.529z" class="color c2"/>
      <path fill="#FFFFFF" d="M90.52,32.712c-0.656-0.102-1.33-0.237-2.039-0.354c-0.902-0.149-1.883-0.274-2.873-0.128
			c-0.793,0.109-1.547,0.436-2.137,0.916c-0.102-0.009-0.203-0.019-0.305-0.019c-0.24,0-0.473,0.034-0.699,0.086
			c1.393-0.82,2.629-1.966,3.566-3.349c0.633-0.92,1.121-1.936,1.504-2.967s0.648-2.087,0.914-3.071
			c0.252-0.973,0.557-1.934,0.988-2.318c0.014-0.014,0.029-0.023,0.043-0.035C88.387,23.861,88.485,28.344,90.52,32.712z" class="color c2"/>
      <path fill="#FFFFFF" d="M97.758,25.76c-0.373,1.483-0.697,2.948-1.234,4.244c-0.314,0.771-0.725,1.456-1.232,1.94
			c-0.512,0.481-1.117,0.757-1.838,0.865c-0.592,0.078-1.223,0.08-1.869,0.029c1.258-3.537,0.48-8.711-0.779-11.872
			c0.334-0.077,0.672-0.142,1.018-0.167c1.609-0.132,3.313,0.359,4.881,1.27c0.584,0.773,1.428,2.209,1.053,3.691
			C97.756,25.761,97.756,25.761,97.758,25.76z" class="color c2"/>
    </g>
    <path fill="#A29063" d="M90.778,121.175c0,0-5.467,8.816-0.803,15.67c-2.26-0.258-4.369-0.451-6.357-0.576
		c-3.256-6.297-6.559-13.029-6.816-14.912c-0.09-0.65-0.189-1.467-0.291-2.404c5.15-0.115,10.207,0.576,14.865,1.645
		C91.174,120.791,90.979,120.982,90.778,121.175z M80.745,136.134c-1.742-2.699-3.662-5.875-5.711-9.58
		c-0.566,0.391-2.574,4.98-4.789,10.008C73.559,136.164,76.958,136.015,80.745,136.134z M36.436,58.367
		c-3.561-0.67-5.592-2.793-5.889-5.316c-6.508-1.107-16.904-3.098-24.676-4.746c0.205,3.064,0.771,6.438,1.811,10.139
		c9.521,4.635,23.137,8.514,38.615,9.963C43.596,63.878,40.319,60.167,36.436,58.367z M47.874,71.261
		c-15.139-1.078-28.305-3.043-38.08-6.561c1.207,3.088,2.729,6.369,4.613,9.852c11.43,6.25,24.793,10.215,39.096,11.596
		C52.168,81.302,50.299,75.996,47.874,71.261z M61.696,105.451c-0.01-0.004-0.014-0.012-0.023-0.018
		c-2.229-0.881-4.105-2.266-5.066-4.465c-0.004,0.004-0.012,0.014-0.012,0.014s-0.082-0.193-0.182-0.475
		c-0.014-0.041-0.035-0.076-0.049-0.117c0.002-0.002,0.004-0.004,0.006-0.006c-0.115-0.334-0.242-0.758-0.309-1.154h-0.002
		c0-0.006-0.002-0.014-0.002-0.021c-0.008-0.051-0.02-0.104-0.025-0.152c-0.002-0.008,0-0.016,0-0.023
		c-0.031-0.193-0.063-0.387-0.082-0.588c-0.215-2.264-0.762-5.52-1.652-9.223c-12.639-0.943-24.6-2.676-35.236-6.844
		c3.725,5.773,8.393,12.027,14.186,18.787c7.113,2.008,17.27,3.842,28.508,4.311C61.735,105.468,61.715,105.46,61.696,105.451z
		 M52.29,121.177c6.068-1.537,13.094-2.648,20.215-3.176c-0.057-2.973-0.268-6.807-0.564-10.947
		c-0.135,0.006-0.268,0.014-0.408,0.02c-0.252-0.012-0.502-0.023-0.74-0.037c0.002,0.008,0.002,0.018,0.004,0.027
		c-0.582-0.037-1.199-0.08-1.832-0.135c-0.02-0.002-0.041-0.004-0.041-0.004l0,0c-0.246-0.021-0.498-0.049-0.75-0.074
		c-0.131,0-0.262,0-0.395,0c-0.756,0-1.516-0.002-2.277-0.012c-10.68-0.115-20.389,0.082-27.9-0.736
		c4.332,4.783,9.205,9.805,14.688,15.072L52.29,121.177z M54.338,134.375c0.885,1.639,1.76,3.299,2.615,5.016
		c3.811-1.084,7.264-1.912,10.713-2.465c2.35-7.467,4.811-15.32,4.811-15.32c0.035-0.676,0.049-1.48,0.043-2.393
		c-6.551,0.729-13.111,2.904-18.807,4.961C54.706,126.763,55.635,130.662,54.338,134.375z M78.567,106.281
		c-1.053,0.23-2.123,0.395-3.166,0.516c0.326,4.141,0.674,8.027,0.98,10.973c5.98-0.26,11.906-0.086,17.273,0.607
		c4.891-4.809,9.268-9.406,13.18-13.797c-7.98,1.09-19.031,1.502-28.688,2.006L78.567,106.281z M89.661,96.23
		c-0.363,1.311-1.334,2.412-2.73,3.322c-0.068,0.295-0.15,0.588-0.234,0.832c0.002,0.002,0.004,0.004,0.006,0.006
		c-0.014,0.041-0.035,0.076-0.051,0.117c-0.1,0.281-0.18,0.475-0.18,0.475s-0.01-0.01-0.014-0.014
		c-0.961,2.199-2.836,3.584-5.064,4.465c-0.01,0.006-0.014,0.014-0.023,0.018c-0.014,0.006-0.029,0.012-0.043,0.02
		c8.352-0.928,21.223-3.33,29.758-5.795c6.125-7.275,10.932-13.955,14.66-20.068c-9.693,4.414-23.221,5.027-34.807,7.369
		C90.596,90.744,90.272,94.039,89.661,96.23z M91.688,79.435c-0.178,1.506-0.33,3.004-0.467,4.459
		c11.043-2.318,28.27-6.561,38.309-10.988c2.359-4.557,4.086-8.758,5.303-12.621c-9.758,4.043-25.742,7.164-38.654,9.146
		C94.424,72.544,92.93,75.988,91.688,79.435z M137.266,44.47c-9.125,2.818-18.742,5.293-24.85,6.709
		c0.094,0.455,0.146,0.906,0.137,1.348c-0.004,0-0.008,0.002-0.014,0.002c0.006,0,0.01,0,0.014,0
		c-0.063,2.75-2.123,5.123-5.926,5.838c-3.143,1.459-5.889,4.17-8.254,7.553c12.764-2.73,29.006-8.5,38.238-12.848
		C137.159,49.933,137.344,47.07,137.266,44.47z M33.944,46.169c-2.453-1.615-2.76-5.418-1.596-7.992L32.508,38
		c-0.277-0.305-0.559-0.617-0.84-0.938c-4.377-4.97-9.033-11.617-9.254-11.933c-0.305-0.482-2.576-3.87-6.682-1.964
		c-0.072,0.033-0.145,0.062-0.219,0.085c-0.053,0.019-4.865,3.305-7.703,10.754c-0.965,2.535-1.701,5.55-1.943,9.083
		c6.502,2.186,17.516,5.758,24.836,7.807C31.112,49.283,32.174,47.63,33.944,46.169z M111.37,48.669
		c8.217-2.596,18.064-6.484,25.279-9.76c-0.354-1.811-0.84-3.449-1.402-4.924c-2.838-7.436-7.645-10.717-7.695-10.735
		c-0.074-0.023-0.148-0.052-0.221-0.085c-4.104-1.906-6.375,1.481-6.68,1.964c-0.223,0.318-4.92,7.021-9.313,12
		c-0.262,0.297-0.523,0.588-0.783,0.871l0.162,0.178c1.164,2.574,0.855,6.377-1.596,7.992
		C110.077,46.958,110.817,47.804,111.37,48.669z M91.375,140.878c-15.369-7.18-35.369,1.91-35.369,1.91l-3.281-4.92l-3.902,3.346
		l12.932,7.148h20.232l13.85-6.428C95.836,141.935,94.188,142.177,91.375,140.878z" class="color c3"/>
  </g>
</svg>