<svg version="1.1" id="图层_1" x="0px" y="0px" width="131.009px" height="200px" viewBox="0 0 131.009 200" enable-background="new 0 0 131.009 200" xml:space="preserve" xmlns="http://www.w3.org/2000/svg" xmlns:xlink="http://www.w3.org/1999/xlink" xmlns:xml="http://www.w3.org/XML/1998/namespace">
  <path fill="#E53C2A" d="M87.493,190.441c20.343-3.162,36.481-16.172,43.516-32.833c-8.211,13.109-22.462,22.912-39.751,25.599
	c-7.831,1.218-15.507,0.843-22.663-0.846c2.951,0.009,5.947-0.209,8.967-0.679c29.12-4.523,49.299-30.255,45.07-57.478
	c-0.021-0.149-0.057-0.295-0.08-0.445c-1.121,23.407-19.436,43.789-44.623,47.7c-5.939,0.923-11.792,0.85-17.377-0.08
	c11.381,0.161,24.256-5.182,34.579-15.454c1.575-1.568,3.034-3.2,4.38-4.874c-15.455,14.029-37.215,18.014-51.6,5.257
	c-10.369-9.194-5.924-19.888-1.709-26.094c0.02-0.004,0.039-0.01,0.059-0.015c0.357-0.418,0.731-0.83,1.113-1.237
	c3.352-0.911,6.883-1.409,10.536-1.409c2.78,0,5.491,0.287,8.105,0.824c-4.478-1.938-9.405-3.078-14.589-3.24
	c19.104-16.111,54.459-24.602,45.688-50.229c-6.553-19.143-17.229-22.269-17.17-34.553c0.018-3.758,3.045-6.805,6.804-6.805
	c3.758,0,6.804,3.047,6.804,6.805c0,3.041-1.996,5.616-4.752,6.487c1.738,1.568,3.914,2.747,6.914,1.572
	c7.592-2.979,4.555-11.77,4.555-11.77s2.594-1.405,2.453-4.761c-0.137-3.217-2.116-5.984-4.354-8.976
	c-2.877-3.845-10.131-9.653-10.402-12.653c-0.222-2.43,1.977-4.418,4.418-4.418s4.431,1.979,4.42,4.418
	c-0.01,2.182-0.682,3.264-1.587,3.936c0,0,5.14,0.028,5.285-5.433c0.14-5.207-3.579-8.76-8.79-8.76c-5.209,0-9.431,4.223-9.431,9.43
	c0,2.713,1.151,5.153,2.985,6.874c2.074,2.29,5.065,4.949,6.299,5.771c-1.698-0.016-6.949-0.39-12.029,3.215
	c-10.98,7.786-10.526,22.52-5.698,36.535c0.671,1.946,1.463,6.582-4.927,9.951c-6.021,3.176-19.061,5.054-24.216,7.889
	C29.239,88.166,19.45,96.41,13.524,116.118C7.599,135.825,0,138.401,0,138.401s2.013,0.079,4.188-0.581
	c2.175-0.663,5.553-3.252,5.553-3.252s-0.69,1.636-1.4,3.525c-0.711,1.893-2.803,4.06-2.803,4.06s3.672-0.484,7.005-1.595
	c4.427-1.477,8.681-3.863,11.349-5.564c-7.691,6.834-12.514,16.627-12.514,27.509c0,17.974,13.146,32.979,30.67,36.573
	c-13.504-5.847-22.914-18.921-22.914-34.123c0-0.438,0.019-0.869,0.034-1.301C19.729,183.812,37.833,200,59.872,200
	c2.375,0,4.699-0.199,6.963-0.56c-0.422,0.012-0.841,0.029-1.266,0.029c-17.896,0-33.073-10.676-38.451-25.481
	c0.508,0.899,1.045,1.809,1.636,2.731c9.767,14.834,31.857,23.174,55.785,19.457c2.766-0.429,5.458-1.007,8.065-1.715
	c-13.898,1.509-27.115-1.653-37.533-8.127C64.759,190.587,75.96,192.232,87.493,190.441z M99.261,30.018
	c1.241,1.851-0.015,3.3-0.015,3.3c-1.839-0.233-4.38-4.904-4.38-4.904S98.194,28.427,99.261,30.018z" class="color c1"/>
</svg>