<svg version="1.1" id="图层_1" x="0px" y="0px" width="67.742px" height="30.331px" viewBox="0 0 67.742 30.331" enable-background="new 0 0 67.742 30.331" xml:space="preserve" xmlns="http://www.w3.org/2000/svg" xmlns:xlink="http://www.w3.org/1999/xlink" xmlns:xml="http://www.w3.org/XML/1998/namespace">
  <g>
    <path fill="#402C1E" d="M67.157,1.924c-5.224-0.629-10.359,0.545-14.429,3.754c-2.739-4.105-9.172-6.17-13.647-5.578
		c-0.853,0.113-0.896,1.295,0,1.363c2.719,0.207,5.386,1.035,7.474,2.851c1.754,1.53,2.6,3.633,4.042,5.395
		c0.415,0.506,1.252,0.663,1.854,0.489c0.154-0.045,0.315-0.103,0.451-0.19c0.158-0.1,0.295-0.229,0.42-0.364
		c0.08-0.061,0.167-0.088,0.245-0.169c3.654-3.791,8.239-6.27,13.59-6.333C67.958,3.133,67.916,2.014,67.157,1.924z" class="color c1"/>
    <path fill="#402C1E" d="M8.769,23.529c0.099-0.028,0.196-0.065,0.283-0.119c0.099-0.063,0.184-0.143,0.262-0.228
		c0.051-0.038,0.104-0.056,0.153-0.104c2.284-2.371,5.152-3.922,8.496-3.961c0.502-0.006,0.473-0.703,0-0.762
		c-3.266-0.393-6.478,0.342-9.021,2.348c-1.714-2.566-5.734-3.857-8.533-3.487c-0.531,0.07-0.561,0.809,0,0.852
		c1.698,0.129,3.366,0.646,4.672,1.781c1.101,0.957,1.627,2.272,2.531,3.374C7.869,23.54,8.394,23.637,8.769,23.529z" class="color c1"/>
    <path fill="#402C1E" d="M45.557,26.104c-2.647-0.318-5.25,0.276-7.313,1.902c-1.384-2.079-4.641-3.126-6.911-2.825
		c-0.433,0.058-0.455,0.656,0,0.691c1.378,0.105,2.728,0.524,3.786,1.445c0.891,0.774,1.316,1.84,2.049,2.732
		c0.21,0.256,0.632,0.336,0.936,0.249c0.082-0.023,0.163-0.053,0.234-0.099c0.078-0.049,0.147-0.115,0.21-0.185
		c0.04-0.029,0.087-0.043,0.125-0.084c1.853-1.92,4.174-3.177,6.884-3.209C45.963,26.715,45.938,26.151,45.557,26.104z" class="color c1"/>
  </g>
</svg>