<svg version="1.1" id="图层_1" x="0px" y="0px" width="161.715px" height="125.625px" viewBox="0 0 161.715 125.625" enable-background="new 0 0 161.715 125.625" xml:space="preserve" xmlns:xml="http://www.w3.org/XML/1998/namespace" xmlns="http://www.w3.org/2000/svg" xmlns:xlink="http://www.w3.org/1999/xlink">
  <path fill="#53BBCE" d="M13.5,23.632c-5.225-5.028-1.67-9.767,1.045-12.856C15.922,15.883,14.734,21.041,13.5,23.632z
	 M30.195,24.577c-4.021-0.722-6.414-2.229-9.262-2.26c-1.711-0.017-3.584,0.515-6.057,2.011
	C22.584,28.575,29.029,28.52,30.195,24.577z M32.443,11.776c-5.627,0.176-12.219,2.574-13.885,7.903
	c2.859-0.23,15.342-2.878,20.4-6.832C37.339,12.079,35.002,11.696,32.443,11.776z M161.715,62.442v3.432
	c0,39.791-32.588,59.752-72.373,59.752h-2.297c-39.673,0-69.052-20.476-71.724-55.651c-0.695-9.132-4.481-14.604-10.362-17.367
	c-0.014,2.538,0.044,5.325,0.257,8.415l-3.943-5.055c0.081-1.662,0.19-3.145,0.285-4.613C1.05,51.216,0.531,51.091,0,50.982
	c0.552-1.652,1.198-3.204,1.922-4.662c0.431-4.589,1.076-8.261,2.289-11.348c-4.709-4.834-4.731-10.904-2.299-13.669
	c2.926,3.751,3.732,6.137,3.998,10.266c2.111-3.404,5.281-6.227,10.131-9.271c-3.148,3.933-6.318,7.218-8.461,12.767
	c5.078-2.683,8.071-2.628,13.807-1.325c-0.759,0.471-1.614,0.913-2.53,1.316c0.958,0.033,1.939,0.111,2.969,0.287
	c15.998,2.743,25.701,21.896,30.246,29.275C61.779-10.344,155.58,0.552,155.58,0.552s6.135,57.582-51.083,84.536
	c0.58,0.01,1.151,0.051,1.731,0.051C127.84,85.139,147.426,76.477,161.715,62.442z M10.053,37.11
	c-1.086,0.028-2.141-0.038-3.122-0.229c-0.329,1.041-0.619,2.168-0.872,3.38C7.257,39.001,8.587,37.941,10.053,37.11z" class="color c1"/>
</svg>