<svg version="1.1" id="图层_1" x="0px" y="0px" width="185.867px" height="200px" viewBox="0 0 185.867 200" enable-background="new 0 0 185.867 200" xml:space="preserve" xmlns="http://www.w3.org/2000/svg" xmlns:xlink="http://www.w3.org/1999/xlink" xmlns:xml="http://www.w3.org/XML/1998/namespace">
  <path fill="#0F0F0F" d="M179.552,135.031C165.355,172.979,128.769,200,85.866,200c-3.285,0-6.531-0.163-9.734-0.473
	c0.731-1.016,1.563-2.057,2.524-3.095c13.888-5.699,37.792-16.436,64.039-33.721C154.79,154.745,167.873,144.62,179.552,135.031z
	 M139.818,125.343c-26.744,22.086-49.395,37.178-63.955,45.08c-5.413,7.277-1.906,16.5-1.906,16.5
	c3.199-2.12,41.681-17.031,81.668-50.055c9.59-7.92,19.732-15.896,29.313-23.24c0.607-4.457,0.929-9.004,0.929-13.628
	c0-7.895-0.919-15.574-2.648-22.941C170.603,93.563,155.035,112.776,139.818,125.343z M22.359,157.455
	c4.504,2.163,21.786,3.247,26.547-6.241c4.763-9.488,0.593-19.824,0.593-19.824s17.811-15.302,21.28-25.002
	c3.469-9.701,2.487-27.936,9.11-38.706c6.413-10.428,16.287-18.063,20.082-33.556c2.605-10.64,2.003-23.968-0.182-33.156
	C95.239,0.335,90.592,0,85.866,0C79.93,0,74.115,0.521,68.463,1.513c3.254,7.282,10.531,27.048,4.562,47.488
	c-4.087,13.992-8.23,13.552-7.969,23.62c0.262,10.069,3.125,10.966,1.314,20.595c-1.812,9.627-5.066,14.276-5.066,14.276
	s1.974-14.025,0.24-18.569c-1.733-4.544-6.226-13.994-7.129-21.234c-0.902-7.243,7.478-22.407,5.616-32.396
	c-1.534-8.236-6.512-24.04-8.214-29.34c-8.841,3.202-17.1,7.616-24.58,13.04c3.101,3.069,15.514,16.229,16.042,30.772
	c0.355,9.803-1.197,15.23,2.187,23.544c3.901,9.585,12.275,18.036,11.351,25.787c-1.723,14.473-17.217,32.227-19.697,33.036
	c-2.481,0.809-6.125-10.057-3.923-20.337c2.202-10.279,10.135-6.404,11.486-14.443c1.349-8.04-5.703-16.402-5.703-16.402
	s-5.659,7.957-7.404,15.885c-1.746,7.93-5.443,32.672-6.714,32.916c-1.271,0.246,4.2-36.999,6.313-50.987
	c2.114-13.987,3.546-19.372-2.351-29.44c-5.361-9.154-13.911-16.9-15.419-18.232C8.312,36.439,3.813,42.355,0,48.728
	c2.467,0.959,17.27,6.884,19.844,11.982c5.174,10.241-5.556,66.529-5.278,74.123C14.846,142.427,17.856,155.292,22.359,157.455z
	 M101.619,61.128c-19.369,13.793-26.11,52.81-26.356,57.137c-0.248,4.327,2.719,14.464,4.079,14.464s11.081-49.208,38.076-62.059
	c16.64-7.92,26.617-32.547,31.465-48.313c-9.654-7.846-20.8-13.929-32.947-17.754C118.727,19.591,120.724,47.522,101.619,61.128z
	 M179.72,65.411c-3.472-9.416-8.322-18.163-14.303-26.003c-3.61,10.753-9.666,22.663-19.672,29.294
	c-22.328,14.798-37.171,23.792-43.757,40.258c-6.586,16.465-25.191,37.047-26.673,38.898c-1.482,1.853-2.641,11.348-0.456,11.972
	s32.74-23.354,54.388-45.667C143.619,99.353,165.826,81.069,179.72,65.411z" class="color c1"/>
</svg>