<svg version="1.1" id="图层_1" x="0px" y="0px" width="120.523px" height="130.445px" viewBox="0 0 120.523 130.445" enable-background="new 0 0 120.523 130.445" xml:space="preserve" xmlns:xml="http://www.w3.org/XML/1998/namespace" xmlns="http://www.w3.org/2000/svg" xmlns:xlink="http://www.w3.org/1999/xlink">
  <path fill="#020202" d="M120.142,66.804c0.7-1.379,0.47-1.64-0.942-2.767c-1.489-1.187-2.934-1.223-4.557-0.528
	c-5.789,2.479-11.583,4.938-17.364,7.429c-7.478,3.219-7.481,3.406-15.539,3.026c-4.675-0.22-9.314-0.204-13.942,0.228
	c-0.16,0.016-0.179-0.041-0.042-0.125c0.813-0.5,1.611-1.024,2.391-1.582c0.131-0.092,0.355-0.215,0.499-0.282
	c1.356-0.593,2.694-1.232,4.051-1.822c0.426-0.183,0.909-0.246,1.374-0.309c2.177-0.294,3.925-1.194,4.866-3.31
	c0.1-0.228,0.363-0.387,0.566-0.561c0.398-0.344,0.989-0.596,1.173-1.026c0.417-0.971,0.798-1.853,1.794-2.441
	c0.236-0.14,0.119-0.878,0.102-1.555c-0.007-0.161,0.122-0.331,0.268-0.396c0.711-0.338,0.988-0.916,0.72-2.1
	c-0.184-0.815,0.822-1.834,0.992-2.816c0.273-1.563,0.963-3.106,0.195-4.78c-0.354-0.777-0.252-1.762-0.372-2.649
	c-0.273-2.034-0.423-4.1-0.898-6.085c-0.19-0.792-0.895-1.462-1.37-2.05c-0.101-0.125-0.083-0.321,0.028-0.433
	c0.402-0.404,0.819-0.817,1.238-1.236c0.108-0.112,0.108-0.295,0-0.409c-0.463-0.461-0.93-0.927-1.429-1.427
	c-0.111-0.114-0.098-0.276,0.038-0.361c0.403-0.257,0.898-0.554,1.322-0.931c0.283-0.254,0.531-0.71,0.521-1.066
	c-0.008-0.204-0.549-0.46-0.885-0.565c-0.508-0.159-1.04-0.242-1.641-0.357c-0.16-0.031-0.18-0.132-0.052-0.226
	c0.998-0.722,1.916-1.386,2.824-2.044c0.131-0.094,0.229-0.294,0.221-0.448c-0.011-0.152-0.141-0.311-0.293-0.351
	c-0.858-0.226-1.726-0.454-2.646-0.693c-0.152-0.042-0.181-0.158-0.06-0.261c0.651-0.554,1.334-1.105,1.97-1.709
	c0.847-0.803,0.748-1.437-0.383-1.726c-0.855-0.219-1.828-0.276-2.688-0.104c-1.673,0.338-3.308,0.854-5.083,1.346
	c-0.153,0.041-0.175-0.002-0.049-0.1c7.878-5.982,8.309-6.324,8.427-7.91c0.012-0.16-0.098-0.233-0.241-0.166
	c-4.222,2.02-8.489,4.06-12.758,6.102c-0.146,0.069-0.171,0.03-0.056-0.082c4.185-4.16,8.854-7.827,11.59-13.361
	c0.071-0.143,0.022-0.184-0.107-0.092c-4.429,3.146-8.716,6.191-13.002,9.237c-0.129,0.094-0.296,0.118-0.367,0.052
	c-0.076-0.063-0.053-0.22,0.045-0.346c1.201-1.532,2.427-3.045,3.582-4.613c1.731-2.352,3.474-4.7,5.07-7.144
	c0.587-0.9,0.85-2.009,1.224-3.049c0.052-0.15,0.009-0.361-0.104-0.476c-0.113-0.111-0.295-0.11-0.406,0.004
	c-3.91,4.032-7.819,8.063-11.727,12.091c-0.111,0.115-0.213,0.177-0.23,0.137c-0.017-0.038,0.035-0.18,0.119-0.317
	c2.041-3.407,4.128-6.789,6.091-10.239c1.175-2.063,1.037-4.355,0.669-6.621c-0.021-0.116-0.11-0.217-0.28-0.354
	c-0.124-0.1-0.242-0.047-0.26,0.112c-0.708,6.079-5.32,9.567-8.955,13.748c-0.104,0.121-0.138,0.101-0.074-0.045
	c1.71-4.03,3.116-8.079,1.9-12.243c-0.046-0.153-0.133-0.156-0.188-0.005c-0.933,2.458-1.758,5.186-3.035,7.679
	c-1.302,2.539-3.053,4.849-4.734,7.215c-0.096,0.129-0.161,0.106-0.15-0.053c0.286-4.489,1.009-8.989-1.729-13.044
	c-0.089-0.132-0.156-0.107-0.141,0.051c0.079,0.877,0.19,1.754,0.205,2.633c0.058,3.707-0.771,7.2-2.135,10.67
	c-1.892,4.825-3.708,9.708-4.238,14.94c-0.064,0.632-0.238,1.252-0.405,2.008c-0.035,0.157-0.13,0.171-0.213,0.036
	c-0.397-0.654-0.752-1.236-1.207-1.982c-0.085-0.137-0.196-0.127-0.258,0.022c-0.238,0.553-0.489,0.957-0.461,1.335
	c0.126,1.651,0.211,3.336,0.614,4.931c0.656,2.588,1.574,5.109,2.33,7.675c0.115,0.389,0.167,0.783,0.363,1.074
	c0.09,0.13,0.15,0.318,0.099,0.448c-0.054,0.133-0.097,0.239-0.097,0.239c-0.049,0.152-0.1,0.306-0.15,0.458
	c-0.05,0.152-0.209,0.229-0.36,0.171c-0.25-0.095-0.5-0.193-0.736-0.3c-0.444-0.2-1.151-0.196-1.344-0.52
	c-1.038-1.757-2.438-1.67-4.088-1.014c-0.146,0.06-0.243-0.019-0.215-0.175c0.208-1.157,0.457-2.219,0.526-3.293
	c0.034-0.56-0.193-1.136-0.356-1.706c-0.043-0.155-0.195-0.24-0.349-0.193c-0.573,0.18-1.153,0.34-1.695,0.581
	c-0.307,0.135-0.556,0.397-0.913,0.705c-0.119,0.105-0.224,0.056-0.219-0.104c0.05-1.997,1.074-3.905-0.095-5.846
	c-0.081-0.137-0.254-0.16-0.379-0.062c-0.514,0.418-0.975,0.792-1.485,1.209c-0.125,0.102-0.229,0.053-0.229-0.106
	c-0.016-1.399-0.029-2.699-0.046-3.987c0-0.159-0.114-0.332-0.254-0.387c-0.137-0.054-0.34-0.003-0.454,0.109
	c-0.939,0.94-1.88,1.879-2.818,2.82c-0.115,0.113-0.25,0.16-0.302,0.108c-0.054-0.052-0.069-0.222-0.037-0.379
	c0.373-1.727,0.747-3.453,1.119-5.178c0.034-0.157-0.048-0.35-0.185-0.434c-0.047-0.026-0.095-0.056-0.143-0.084
	c-0.138-0.081-0.346-0.063-0.47,0.038c-0.646,0.537-1.341,1.03-1.866,1.666c-1.519,1.845-2.952,3.759-4.412,5.648
	c-0.101,0.127-0.277,0.177-0.395,0.114c-0.119-0.065-0.17-0.237-0.113-0.388c0.229-0.629,0.447-1.268,0.726-1.878
	c0.958-2.089,1.979-4.152,2.901-6.258c0.177-0.406,0.13-0.909,0.015-1.449c-0.034-0.155-0.172-0.209-0.3-0.116
	c-3.5,2.538-4.876,6.741-7.996,9.68c-0.116,0.111-0.179,0.073-0.14-0.083c0.212-0.841,0.37-1.705,0.7-2.5
	c1.142-2.752,2.396-5.456,3.527-8.211c0.222-0.544,0.202-1.187,0.128-1.838c-0.02-0.161-0.156-0.234-0.297-0.158
	c-2.089,1.106-3.149,3.043-4.402,4.767c-1.229,1.688-2.284,3.501-3.407,5.267c-0.087,0.135-0.229,0.212-0.322,0.178
	c-0.092-0.038-0.13-0.193-0.085-0.343c1.285-4.334,2.57-8.664,3.854-12.994c0.047-0.153-0.036-0.33-0.183-0.394
	c-0.045-0.021-0.091-0.042-0.137-0.06c-0.149-0.065-0.368-0.037-0.488,0.066c-4.04,3.394-4.97,8.822-8.185,12.929
	c-0.099,0.125-0.175,0.097-0.173-0.063c0.009-0.825-0.058-1.666,0.126-2.449c0.778-3.274,1.703-6.515,2.473-9.792
	c0.189-0.818,0.104-1.704,0.101-2.566c0-0.161-0.119-0.332-0.271-0.385c-0.004,0-0.01-0.003-0.015-0.005
	c-0.149-0.053-0.356,0.003-0.467,0.122c-0.492,0.536-1.033,1.042-1.409,1.651c-2.506,4.061-3.707,8.636-5.025,13.157
	c-0.245,0.833-0.417,1.69-0.669,2.767c-0.038,0.158-0.125,0.167-0.188,0.021c-1.003-2.286-1.169-4.397-0.844-6.57
	c0.375-2.523,0.759-5.043,1.146-7.564c0.082-0.513,0.176-1.024,0.27-1.534c0.025-0.157-0.076-0.318-0.23-0.36
	c-0.031-0.007-0.06-0.016-0.091-0.023c-0.154-0.042-0.36,0.026-0.464,0.145c-0.426,0.479-0.927,0.927-1.142,1.487
	c-0.955,2.504-1.876,5.028-2.644,7.592c-0.606,2.023-0.992,4.108-1.464,6.168c-0.036,0.155-0.154,0.298-0.268,0.32
	c-0.111,0.02-0.224-0.09-0.251-0.247c-0.557-3.314-1.113-6.629-1.672-9.945c-0.024-0.156-0.177-0.293-0.334-0.306
	c-0.028-0.002-0.056-0.004-0.084-0.008c-0.156-0.01-0.33,0.103-0.387,0.25C1,26.196,0.635,26.952,0.497,27.745
	c-0.742,4.217-0.616,8.453,0.131,12.644c1.243,6.975,3.726,13.522,7.035,19.77c0.159,0.301,0.301,0.612,0.483,0.997
	c0.069,0.146,0.012,0.198-0.127,0.119c-1.396-0.796-2.688-1.536-3.975-2.272c-0.139-0.078-0.34-0.051-0.452,0.064
	c-0.036,0.039-0.074,0.078-0.112,0.114c-0.109,0.116-0.131,0.318-0.046,0.456c0.621,1.015,1.187,2.085,1.938,2.996
	c0.726,0.877,1.632,1.653,2.58,2.285c2.932,1.952,5.857,3.926,8.917,5.659c1.257,0.71,2.844,0.843,4.283,1.22
	c10.977,2.869,8.216,1.684,15.413,8.676c0.61,0.592,1.041,1.495,1.244,2.329c0.138,0.573-0.145,1.339-0.454,1.905
	c-1.561,2.882-4.127,4.829-6.55,6.911c-2.854,2.981-0.552,10.022-0.552,10.022c0.444,1.452,0.764,2.066,1.409,3.447
	c0,0,1.913,2.751,3.268,2.721c0,0-1.688-4.408,0.322-5.996c0,0,2.462-0.605,4.076-1.816c2.23-2.198,4.841-2.309,7.598-1.898
	c0.156,0.022,0.328,0.165,0.375,0.317c1.117,3.473,0.256,6.968,0.172,10.447c-0.043,1.825-0.129,3.659-0.005,5.477
	c0.173,2.59-0.579,4.835-2.142,6.847c-0.834,1.072-1.633,1.188-2.471,0.139c-0.729-0.915-1.258-2.018-1.738-3.098
	c-0.545-1.229-1.228-1.537-2.007-0.795c-0.113,0.108-0.075,0.252,0.069,0.318c0.851,0.391,1.145,0.928,0.454,1.949
	c-0.208,0.307-0.008,1.171,0.303,1.488c0.752,0.763,1.645,1.39,2.571,2.119c0.123,0.096,0.098,0.205-0.059,0.23
	c-2.229,0.369-4.133-0.303-5.933-1.424c-1.793-1.117-3.417-0.454-3.742,1.441c-0.025,0.157,0.077,0.223,0.215,0.143
	c0.47-0.272,0.965-0.561,1.463-0.848c0.138-0.082,0.333-0.103,0.438-0.052c0.104,0.054,0.148,0.222,0.121,0.377
	c-0.21,1.124,0.479,1.351,1.4,1.478c0.851,0.113,1.667,0.451,2.512,0.627c0.712,0.147,1.439,0.226,2.221,0.527
	c0.15,0.059,0.144,0.15-0.011,0.195c-0.482,0.148-0.964,0.3-1.451,0.439c-1.194,0.347-2.431,0.597-3.579,1.055
	c-0.956,0.384-1.619,1.09-1.543,2.191c0.012,0.154,0.125,0.375,0.238,0.488c0.067,0.066,0.137,0.137,0.205,0.205
	c0.112,0.111,0.222,0.075,0.242-0.084c0.107-0.859,0.177-1.271,1.751-1.079c1.92,0.232,4.221-0.823,6.013-1.896
	c1.875-1.124,3.574-1.598,5.651-0.994c1.052,0.308,2.16,0.441,3.25,0.617c0.267,0.041,0.673,0.033,0.827-0.131
	c1.309-1.39,2.214-0.75,3.053,0.561c0.086,0.135,0.19,0.125,0.227-0.034c0.291-1.332-0.469-2.026-1.385-2.353
	c-0.903-0.32-2.039-0.49-2.932-0.237c-1.653,0.472-2.8-0.047-3.763-0.991c-0.112-0.111-0.132-0.313-0.047-0.449
	c2.099-3.285,4.142-6.487,6.185-9.688c0.085-0.134,0.083-0.316-0.007-0.408c-0.091-0.092-0.044-0.111,0.102-0.047
	c0.267,0.12,0.56,0.251,0.941,0.421c0.146,0.066,0.26-0.013,0.255-0.17c-0.019-0.703-0.035-1.315-0.052-1.946
	c-0.003-0.162,0.097-0.215,0.226-0.119c0.296,0.223,0.576,0.435,0.853,0.643c0.127,0.095,0.356,0.145,0.514,0.115
	c0.006-0.002,0.011-0.002,0.016-0.004c0.158-0.032,0.269-0.188,0.248-0.348c-0.108-0.867-0.216-1.738-0.327-2.617
	c-0.018-0.158,0.093-0.271,0.253-0.27c1.294,0.029,2.064-0.777,1.762-1.917c-0.487-1.836-1.169-3.618-1.661-5.454
	c-0.188-0.689-0.159-1.439-0.2-2.201c-0.01-0.16,0.105-0.25,0.258-0.205c0.132,0.043,0.26,0.082,0.397,0.123
	c0.154,0.047,0.242-0.04,0.202-0.193c-0.068-0.246-0.129-0.469-0.188-0.689c-0.044-0.152,0.05-0.273,0.211-0.268
	c0.74,0.022,1.445,0.045,2.221,0.068c0.16,0.006,0.323,0.135,0.366,0.288c1.494,5.335,2.764,10.649-1.477,15.604
	c-0.104,0.121-0.295,0.143-0.425,0.048c-0.563-0.399-1.226-0.871-2.095-1.492c-0.131-0.094-0.229-0.04-0.224,0.12
	c0.02,0.543,0.018,0.741,0.047,0.929c0.096,0.565,0.462,1.496,0.275,1.621c-0.493,0.331-1.144,0.427-1.762,0.575
	c-0.156,0.036-0.292-0.059-0.307-0.218c-0.011-0.085-0.019-0.171-0.028-0.259c-0.014-0.156-0.114-0.188-0.222-0.071
	c-0.248,0.274-0.508,0.563-0.822,0.913c-0.106,0.117-0.067,0.242,0.089,0.281c0.645,0.152,1.182,0.277,1.786,0.424
	c0.156,0.037,0.19,0.158,0.056,0.246c-1.222,0.779-3.294-0.457-3.749,1.853c-0.028,0.156,0.085,0.274,0.245,0.267
	c1.285-0.072,2.604,0.021,3.775-0.351c2.467-0.781,4.343-0.22,5.981,1.719c0.662,0.782,1.308,1.908,2.865,1.189
	c0.146-0.066,0.25-0.001,0.24,0.157c-0.031,0.537-0.056,0.974-0.077,1.358c-0.01,0.16,0.103,0.235,0.238,0.15
	c0.842-0.542,1.112-1.646,0.362-2.681c-0.481-0.655-1.287-1.09-1.984-1.563c-0.51-0.348-1.15-0.518-1.616-0.907
	c-1.634-1.356-1.546-1.793-0.042-3.237c1.509-1.451,2.845-3.08,4.278-4.608c0.199-0.214,0.479-0.351,0.916-0.623
	c0.134-0.083,0.269-0.282,0.302-0.438c0.092-0.426,0.215-1.009,0.347-1.635c0.032-0.156,0.159-0.199,0.28-0.096
	c0.266,0.23,0.508,0.441,0.783,0.674c0.123,0.105,0.25,0.063,0.291-0.09c0.059-0.21,0.112-0.369,0.099-0.524
	c-0.101-1.333,0.535-2.354,1.285-3.362c0.153-0.207,0.037-0.656-0.033-0.979c-0.19-0.895-0.42-1.784-0.649-2.73
	c-0.038-0.152,0.054-0.234,0.202-0.181c0.211,0.078,0.426,0.156,0.694,0.257c0.152,0.055,0.234-0.024,0.189-0.18
	c-0.313-1.029-0.586-1.93-0.891-2.928c-0.049-0.155,0.019-0.198,0.144-0.1c0.159,0.123,0.292,0.229,0.415,0.323
	c0.126,0.099,0.3,0.154,0.391,0.121c0.088-0.028,0.132-0.181,0.093-0.334c-0.164-0.69-0.334-1.385-0.5-2.078
	c-0.037-0.153,0.039-0.351,0.175-0.437c1.056-0.652,2.242-1.163,2.607-2.646c0.078-0.314,0.938-0.876,1.26-1.042
	c2.159-1.112,4.453-1.993,6.766-2.765c0.615-0.205,1.462,0.169,2.169,0.39c2.37,0.739,4.686,1.699,7.099,2.245
	c1.871,0.421,3.697-0.179,5.306-1.345c1.979-1.431,4.071-2.708,6.006-4.196c2.301-1.773,4.479-3.708,6.72-5.564
	c1.354-1.125,2.749-2.203,4.078-3.354c1.328-1.149,2.619-2.339,3.877-3.563c0.436-0.424,0.717-1.004,1.081-1.506
	c0.371-0.513,0.719-1.043,1.137-1.52c0.47-0.537,1.117-0.949,1.467-1.543c0.22-0.372,0.186-0.887,0.089-1.396
	C120.039,67.186,120.07,66.946,120.142,66.804z" class="color c1"/>
</svg>