<svg version="1.1" id="图层_1" x="0px" y="0px" width="167.425px" height="165.941px" viewBox="0 0 167.425 165.941" enable-background="new 0 0 167.425 165.941" xml:space="preserve" xmlns:xml="http://www.w3.org/XML/1998/namespace" xmlns="http://www.w3.org/2000/svg" xmlns:xlink="http://www.w3.org/1999/xlink">
  <g>
    <polygon fill="#3B4063" points="143.509,127.736 154.5,134.654 152.755,139.566 142.281,135.558 129.029,134.913 127.867,124.116 	
		" class="color c1"/>
    <polygon fill="#3B4063" points="128.447,140.342 134.201,141.635 127.349,141.635 	" class="color c1"/>
    <polygon fill="#A98166" points="47.966,18.229 47.966,44.927 62.318,77.702 86.687,99.423 61.605,82.938 41.437,59.149 
		38.787,30.447 	" class="color c2"/>
    <polygon fill="#3B4063" points="68.912,16.032 61.8,22.432 65.677,48.224 70.787,68.2 93.345,102.461 64.255,76.668 50.099,44.733 
		50.099,15.58 54.107,12.475 69.687,12.864 78.929,10.084 82.226,11.635 	" class="color c1"/>
    <polygon fill="#E84952" points="94.509,10.02 95.802,10.149 99.164,13.188 95.027,10.731 85.46,10.731 83.972,10.02 85.007,10.02 
		85.007,10.02 	" class="color c3"/>
    <polygon fill="#3B4063" points="82.617,4.914 83.779,6.658 83.39,7.886 79.318,7.886 79.189,7.822 79.125,7.822 70.72,3.943 
		70.787,3.168 75.634,3.232 	" class="color c1"/>
    <polygon fill="#E84952" points="68.587,2.586 68.523,3.555 64.966,3.555 64.773,3.102 66.712,1.423 	" class="color c3"/>
    <polygon fill="#3B4063" points="54.107,6.723 64.451,0 64.837,0.26 62.189,2.52 63.611,5.688 69.363,5.688 75.957,8.727 
		69.363,10.666 53.396,10.278 51.91,11.442 	" class="color c1"/>
    <polygon fill="#3B4063" points="58.826,92.312 36.33,60.571 34.132,30.511 42.73,19.199 45.574,17.842 36.587,29.801 
		39.369,60.054 60.054,84.489 97.873,109.378 102.009,114.937 94.962,126.51 	" class="color c1"/>
    <polygon fill="#3B4063" points="20.945,131.357 77.507,133.812 21.46,134.847 17.324,134.46 	" class="color c1"/>
    <polygon fill="#3B4063" points="75.052,165.036 47.125,165.941 4.589,161.48 0,156.439 6.205,140.214 12.669,136.206 
		21.332,136.98 81.453,135.883 89.404,132.133 89.273,132.133 94.962,129.417 95.931,128.965 96.773,127.542 103.496,116.489 
		108.796,120.949 105.5,138.144 	" class="color c1"/>
    <polygon fill="#3B4063" points="79.253,164.195 107.568,139.243 111.253,120.109 104.142,114.097 99.552,107.956 93.734,99.099 
		84.683,85.394 111.707,108.538 125.539,123.212 126.896,138.855 111.447,157.473 89.144,162.191 89.144,162.191 	" class="color c1"/>
    <polygon fill="#3B4063" points="142.152,160.187 111.125,161.609 100.91,161.802 112.675,159.347 125.603,143.833 135.753,143.833 
		137.5,140.214 129.16,138.339 129.16,137.109 141.699,137.691 152.56,141.829 155.986,151.267 153.529,156.439 	" class="color c1"/>
    <path fill="#3B4063" d="M163.808,152.755l-7.369,2.649c1.164-2.327,1.551-3.23,1.682-3.686l0.193-0.388l-0.193-0.517
		c-0.195-0.711-0.971-2.844-3.621-9.891l0,0l2.393-6.725l-0.195-0.711l-4.008-13.834l-14.027-11.7l15.645,7.821l2.648,3.361
		l7.24,13.123l3.23,13.058L163.808,152.755z" class="color c1"/>
  </g>
</svg>