<svg version="1.1" id="图层_1" x="0px" y="0px" width="192.117px" height="192.117px" viewBox="0 0 192.117 192.117" enable-background="new 0 0 192.117 192.117" xml:space="preserve" xmlns="http://www.w3.org/2000/svg" xmlns:xlink="http://www.w3.org/1999/xlink" xmlns:xml="http://www.w3.org/XML/1998/namespace">
  <g>
    <path fill="#E9DABD" d="M192.117,96.058C192.117,43.006,149.111,0,96.06,0C43.006,0,0,43.006,0,96.058
		c0,53.054,43.006,96.06,96.06,96.06c7.143,0,14.102-0.786,20.799-2.265c-0.717-0.6-1.431-1.201-2.143-1.803
		c-5.5-4.653-11.127-9.147-16.709-13.706c-5.777,0.739-12.068,0.427-17.754-0.791c-5.525-1.177-10.9-3.579-14.919-7.546
		c-6.982-6.896-8.383-16.636-11.223-25.563c-1.471-4.614-3.24-9.125-5.301-13.507c-1.951-4.146-3.785-8.12-7.307-11.136
		c-3.859-3.308-7.811-4.012-12.506-4.083c-0.002,0-0.002,0-0.002,0c0-0.062,0-0.122,0-0.184c0,0,0,0,0.002,0
		c2.523-0.402,5.693-2.491,7.051-4.365c0.354-0.491,0.627-1.03,0.934-1.563c2.064-3.529,5.914-6.375,10.127-6.446
		c6.516-0.111,12.465,3.946,17.107,8.568c-1.842-11.116-2.1-23.351,1.711-33.762c2.479-6.755,7.156-12.628,10.111-19.218
		c4.41-9.837,6.781-20.857,3.127-31.331c0,0,16.338,11.56,11.529,38.856c0,0,9.291-9.009,8.107-15.057
		c0,0,5.314,17.683-3.949,31.582c0,0,12-7.771,13.045-14.581c0,0,1.922,7.7-0.08,15.838c9.094-5.563,18.348-10.495,26.139-18.364
		c10.396-10.497,17.816-23.776,19.732-38.54c0,0,9.336,37.602-12.533,48.602c0,0,18.928-7.805,25.83-17.398
		c0,0-3.961,26.989-33.246,36.577c0,0,23.789-3.581,30.693-9.977c0,0-16.883,25.199-40.156,26.344c0,0,17.775,2.556,35.043-6.906
		c0,0-15.881,21.367-40.064,25.606c1.941-0.138,3.873-0.266,5.816-0.363c3.781-0.184,7.574-0.291,11.354-0.151
		c1.045,0.044,9.398,0.44,8.568,1.941c-2.359,4.285-6.279,7.571-10.604,9.864c-6.215,3.295-13.68,5.433-20.719,5.685
		c4.057,2.185,8.498,3.66,13.064,4.323c3.734,0.542-2.922,2.84-3.75,3.112c-2.064,0.679-4.215,1.096-6.369,1.374
		c-3.316,0.42-6.664,0.51-10.008,0.704c1.676,1.359,21.895,17.116,52.014,11.116c0,0-3.707,10.872-21.484,11.512
		c0,0,2.258,2.258,5.045,5.219C171.941,164.015,192.117,132.395,192.117,96.058z" class="color c1"/>
  </g>
</svg>