<svg version="1.1" id="图层_1" x="0px" y="0px" width="75.6px" height="49.8px" viewBox="0 0 75.6 49.8" enable-background="new 0 0 75.6 49.8" xml:space="preserve" xmlns:xml="http://www.w3.org/XML/1998/namespace" xmlns="http://www.w3.org/2000/svg" xmlns:xlink="http://www.w3.org/1999/xlink">
  <title>105</title>
  <path fill="#EA5514" d="M37.7,29.701C34.7,33.4,30.4,35.4,25.5,37.1v1.5c0,6.2,5.6,11.2,12.6,11.2S50.7,44.8,50.7,38.6v-1.5
	C45.4,35.5,40.9,33.701,37.7,29.701z" class="color c1"/>
  <path fill="#231815" d="M75.2,28.8C74,26,70.8,24.6,68,25.701c-13.3,5.399-21.9-2-24.8-5v-2.4C48.9,15.8,52.4,10.2,52.4,5.8
	C52.4,0,46.4,0,37,0c-9.4,0-15.4,0-15.4,5.8c0,4.7,4,10.9,10.601,13.1v1.9c-1.7,1.8-3.7,3.4-5.9,4.6c-5.7,3-12,3.2-18.8,0.4
	c-2.7-1-5.8,0.3-7,3C-0.7,31.6,0.6,34.8,3.4,36c4.2,1.801,8.801,2.701,13.4,2.701c7.8,0,15.2-2.9,21-7.9c5.8,5,13.2,7.9,21,7.9
	c4.6,0,9.1-1,13.4-2.701C74.9,34.8,76.3,31.6,75.2,28.8z" class="color c2"/>
</svg>