<svg version="1.1" id="图层_1" x="0px" y="0px" width="200px" height="95.66px" viewBox="0 0 200 95.66" enable-background="new 0 0 200 95.66" xml:space="preserve" xmlns="http://www.w3.org/2000/svg" xmlns:xlink="http://www.w3.org/1999/xlink" xmlns:xml="http://www.w3.org/XML/1998/namespace">
  <polygon fill="#020204" points="156.233,59.712 200,0 146.395,45.286 115.729,58.633 62.739,65.183 78.307,60.895 22.681,35.654 
	0,6.084 10.599,41.087 46.044,67.247 37.824,68.262 33.753,71.088 25.057,73.913 26.797,78.405 27.971,76.378 32.754,76.378 
	38.076,76.593 75.763,86.847 96.833,85.274 92.052,89.567 99.866,94.91 101.417,84.946 104.295,95.66 112.984,94.97 104.952,84.292 
	118.435,93.696 127.368,91.262 108.971,82.989 131.296,89.848 141.472,84.456 102.047,75.961 102.319,75.944 " class="color c1"/>
</svg>