<svg version="1.1" id="图层_1" x="0px" y="0px" width="499.719px" height="236.859px" viewBox="0 0 499.719 236.859" enable-background="new 0 0 499.719 236.859" xml:space="preserve" xmlns="http://www.w3.org/2000/svg" xmlns:xlink="http://www.w3.org/1999/xlink" xmlns:xml="http://www.w3.org/XML/1998/namespace">
  <path fill="#0C0701" d="M495.317,15.145c-40.878-4.92-80.999,4.164-112.793,29.522C360.949,12.117,310.608-3.78,275.787,0.762
	c-6.813,0.757-7.191,10.22,0,10.598c21.195,1.893,42.015,8.327,58.289,22.332c13.626,12.112,20.438,28.388,31.794,42.014
	c3.406,3.785,9.841,5.299,14.383,3.785c1.137-0.378,2.649-0.757,3.406-1.514c1.136-0.757,2.271-1.894,3.407-3.028
	c0.757-0.378,1.135-0.757,1.893-1.136c28.388-29.523,64.346-49.205,106.358-49.583C501.373,24.607,500.995,15.902,495.317,15.145z
	 M68.368,183.956c0.757-0.378,1.514-0.378,2.271-0.756c0.758-0.379,1.515-1.137,1.894-1.893c0.378-0.379,0.757-0.379,1.135-0.759
	c17.79-18.547,40.121-30.657,66.616-31.036c3.785,0,3.785-5.679,0-6.057c-25.359-3.027-50.719,2.649-70.401,18.546
	c-13.247-20.061-44.663-30.278-66.615-27.252c-4.164,0.379-4.542,6.437,0,6.813c13.246,1.136,26.494,4.921,36.714,14.005
	c8.706,7.569,12.869,17.789,19.682,26.494C61.555,183.956,65.339,184.714,68.368,183.956z M356.029,204.017
	c-20.818-2.648-40.879,2.271-57.154,14.762c-10.977-16.275-36.336-24.604-54.125-21.953c-3.406,0.379-3.406,5.299,0,5.299
	c10.599,0.758,21.196,4.164,29.523,11.355c6.813,6.057,10.22,14.383,15.896,21.195c1.515,1.894,4.92,2.649,7.191,1.894
	c0.757,0,1.136-0.379,1.894-0.757c0.757-0.379,1.136-0.758,1.514-1.515c0.379-0.379,0.757-0.379,1.136-0.758
	c14.383-15.141,32.551-24.979,53.747-24.979C359.436,208.937,359.057,204.395,356.029,204.017z" class="color c1"/>
</svg>