<svg version="1.1" id="图层_1" x="0px" y="0px" width="74.363px" height="34.227px" viewBox="0 0 74.363 34.227" enable-background="new 0 0 74.363 34.227" xml:space="preserve" xmlns="http://www.w3.org/2000/svg" xmlns:xlink="http://www.w3.org/1999/xlink" xmlns:xml="http://www.w3.org/XML/1998/namespace">
  <path fill="#E24023" d="M70.17,25.582c-4.103-0.122-7.313-3.432-7.313-7.535v-5.17C62.858,5.776,57.081,0,49.981,0H0v1.663
	C0,6.177,3.672,9.85,8.187,9.85h0.688H10.3h16.77c0.787,0,1.427,0.639,1.427,1.427c0,0.787-0.64,1.426-1.427,1.426H10.3v1.663
	c0,4.513,3.673,8.186,8.186,8.186h1.43H37.37c0.787,0,1.427,0.64,1.427,1.427c0,0.788-0.641,1.428-1.427,1.428H19.912v0.633
	c0,4.516,3.672,8.188,8.186,8.188h41.944c2.383,0,4.321-1.939,4.321-4.322C74.364,27.55,72.524,25.653,70.17,25.582z" class="color c1"/>
</svg>