<svg version="1.1" id="图层_1" x="0px" y="0px" width="139.542px" height="132.318px" viewBox="0 0 139.542 132.318" enable-background="new 0 0 139.542 132.318" xml:space="preserve" xmlns="http://www.w3.org/2000/svg" xmlns:xlink="http://www.w3.org/1999/xlink" xmlns:xml="http://www.w3.org/XML/1998/namespace">
  <path fill="#102025" d="M137.897,52.058c-5.599-6.53-13.808-10.17-22.39-10.076c-0.561,0-1.118,0-1.682,0.093
	c0.094-0.561,0.189-1.213,0.189-1.864c0-4.946-3.268-9.238-7.838-10.638c0.188-1.024,0.281-2.051,0.281-3.173
	c0-8.49-6.904-15.484-15.488-15.484c-1.025,0-2.051,0.092-2.984,0.277C84.537,4.383,77.632,0,69.794,0
	c-7.836,0-14.74,4.383-18.191,11.291c-1.025-0.188-1.961-0.282-2.984-0.282c-8.49,0-15.488,6.902-15.488,15.487
	c0,1.027,0.094,2.145,0.281,3.174c-4.572,1.398-7.838,5.596-7.838,10.635c0,0.653,0.094,1.21,0.188,1.866
	c-0.561,0-1.121-0.095-1.68-0.095c-8.583-0.095-16.7,3.543-22.392,10.075c-2.238,2.518-2.238,6.25-0.092,8.861
	c5.131,6.157,12.498,9.983,20.43,10.542c-0.932,2.425-1.305,5.038-0.84,7.743c0.373,2.331,1.307,4.572,2.707,6.438
	c-4.199,4.477-6.158,10.729-5.227,16.886c0.842,5.316,3.732,10.074,8.023,13.247c4.199,3.078,9.236,4.385,14.273,3.73
	c2.24,8.396,10.449,13.902,19.221,12.501c3.637-0.558,6.994-2.236,9.514-4.851c2.613,2.613,5.878,4.293,9.515,4.851
	c0.935,0.097,1.773,0.187,2.707,0.187c3.64,0,7.093-1.115,10.076-3.355c3.172-2.334,5.41-5.597,6.438-9.424
	c10.728,1.308,20.709-6.25,22.392-16.98c0.932-6.153-1.029-12.403-5.228-16.884c1.397-1.867,2.334-4.104,2.707-6.437
	c0.371-2.612,0.092-5.317-0.841-7.745c7.931-0.562,15.3-4.291,20.431-10.541C140.138,58.308,140.042,54.578,137.897,52.058z" class="color c1"/>
  <g>
    <path fill="#FFFFFF" d="M117.28,101.967c-1.399,8.957-9.793,15.208-18.844,13.81c-0.281-0.096-0.656-0.096-0.935-0.188
		l-2.239-0.373v2.145c-0.562,3.454-2.425,6.53-5.316,8.678c-2.893,2.146-6.438,2.985-9.981,2.425
		c-3.451-0.56-6.529-2.332-8.582-5.128l-1.494-1.96l-1.492,1.96c-2.146,2.796-5.225,4.568-8.584,5.128
		c-7.275,1.119-14.182-3.824-15.299-11.103v-2.145l-2.24,0.465c-0.279,0.096-0.652,0.096-0.932,0.188
		c-4.385,0.654-8.678-0.372-12.316-2.984c-3.543-2.612-5.877-6.437-6.529-10.822c-0.84-5.504,1.119-11.102,5.318-14.834l1.396-1.306
		l-1.396-1.492c-1.588-1.585-2.52-3.639-2.895-5.878c-0.373-2.52,0.096-5.038,1.307-7.184c4.385-0.281,8.678-1.681,12.408-3.825
		c4.666,7.464,7.092,15.767,7.092,24.07v1.771c0,7.463,3.543,14.553,9.422,19.032c4.291,3.357,9.516,4.941,14.646,4.941
		c5.129,0,10.355-1.68,14.646-4.941c5.879-4.479,9.422-11.664,9.422-19.032v-1.771c0-8.305,2.429-16.606,7.095-24.07
		c3.729,2.146,8.021,3.544,12.405,3.825c1.211,2.146,1.681,4.665,1.306,7.184c-0.373,2.239-1.306,4.293-2.892,5.878l-1.308,1.399
		l1.494,1.304C116.069,90.869,118.119,96.373,117.28,101.967z" class="color c2"/>
    <path fill="#FFFFFF" d="M4.583,54.485c4.852-5.599,11.848-8.77,19.219-8.77c0.094,0,0.188,0,0.279,0
		c1.119,0,2.145,0.092,3.17,0.279c1.215,1.958,2.988,3.543,5.133,4.477c0,0.838,0.094,1.773,0.188,2.61L15.5,56.535l19.123,4.104
		c0.563,1.399,1.213,2.706,2.053,3.919c-3.824,2.238-8.303,3.358-12.873,3.358c-7.465-0.094-14.555-3.45-19.313-9.235
		C3.556,57.375,3.556,55.601,4.583,54.485z" class="color c2"/>
    <path fill="#FFFFFF" d="M29.306,40.211c0-3.827,2.893-6.905,6.623-7.278l2.332-0.187l-0.84-2.238
		c-0.465-1.307-0.652-2.611-0.652-3.918c0-6.438,5.225-11.756,11.756-11.756c1.213,0,2.424,0.188,3.545,0.56l1.68,0.467l0.652-1.587
		C56.92,7.931,62.984,3.824,69.795,3.824c6.813,0,12.875,4.106,15.395,10.449l0.654,1.587l1.678-0.467
		c1.119-0.372,2.332-0.56,3.547-0.56c6.437,0,11.752,5.224,11.752,11.756c0,1.4-0.187,2.706-0.651,3.918l-0.838,2.238l2.328,0.187
		c3.733,0.373,6.627,3.543,6.627,7.278c0,4.01-3.267,7.368-7.371,7.368s-7.369-3.266-7.369-7.368c0-0.096,0-0.19,0-0.281
		l0.186-2.424l-2.426,0.466c-0.746,0.188-1.584,0.278-2.332,0.278c-3.451,0-6.715-1.491-8.955-4.199l-1.121-1.305L79.5,33.773
		c-2.799,2.053-6.158,3.171-9.703,3.171c-3.545,0-6.904-1.118-9.703-3.171l-1.398-1.026l-1.119,1.305
		c-2.238,2.612-5.504,4.107-8.955,4.107c-0.84,0-1.588-0.093-2.332-0.279l-2.428-0.47l0.188,2.428c0,0.093,0,0.184,0,0.278
		c0,4.014-3.266,7.371-7.371,7.371C32.571,47.486,29.306,44.221,29.306,40.211z" class="color c2"/>
    <path fill="#FFFFFF" d="M98.996,63.718c-5.783,8.584-8.863,18.192-8.863,27.988v1.772c0,6.25-2.986,12.313-7.93,16.14
		c-7.277,5.598-17.446,5.598-24.816,0c-4.943-3.826-7.93-9.796-7.93-16.14v-1.772c0-9.703-3.078-19.404-8.863-27.988
		c-2.611-3.824-4.105-8.117-4.477-12.499c0.186,0,0.371,0,0.559,0c5.504,0,10.076-4.104,10.916-9.331c0.373,0,0.654,0,1.027,0
		c4.01,0,7.836-1.49,10.635-4.29c3.172,1.957,6.809,2.984,10.541,2.984s7.37-1.028,10.543-2.984c2.891,2.706,6.625,4.29,10.635,4.29
		c0.375,0,0.652,0,1.027,0c0.84,5.317,5.41,9.331,10.914,9.331c0.188,0,0.373,0,0.561,0
		C103.101,55.601,101.606,59.894,98.996,63.718z" class="color c2"/>
    <path fill="#FFFFFF" d="M102.914,64.467c0.744-1.308,1.397-2.615,2.053-3.922l19.125-4.104l-17.072-3.45
		c0.092-0.839,0.188-1.771,0.188-2.612c2.146-0.934,3.916-2.521,5.131-4.479c1.025-0.186,2.146-0.281,3.172-0.281
		c7.466-0.092,14.554,3.082,19.498,8.771c1.025,1.211,1.025,2.893,0.093,4.104c-4.759,5.785-11.754,9.144-19.312,9.236
		C111.216,67.823,106.833,66.609,102.914,64.467z" class="color c2"/>
  </g>
  <path fill="#102025" d="M71.66,98.519l11.477-5.039l0,0c-0.934-2.054-2.986-3.453-5.223-3.453H61.677
	c-2.238,0-4.291,1.308-5.223,3.453l0,0l11.475,5.039v8.301h3.73V98.519L71.66,98.519z" class="color c1"/>
  <path fill="#102025" d="M47.872,51.032c2.316,0,4.197,1.879,4.197,4.196c0,2.318-1.881,4.201-4.197,4.201
	c-2.32,0-4.201-1.883-4.201-4.201C43.671,52.911,45.552,51.032,47.872,51.032z" class="color c1"/>
  <circle fill="#102025" cx="91.72" cy="55.231" r="4.199" class="color c1"/>
</svg>