<svg version="1.1" id="图层_1" x="0px" y="0px" width="62.78px" height="108.111px" viewBox="0 0 62.78 108.111" enable-background="new 0 0 62.78 108.111" xml:space="preserve" xmlns="http://www.w3.org/2000/svg" xmlns:xlink="http://www.w3.org/1999/xlink" xmlns:xml="http://www.w3.org/XML/1998/namespace">
  <path fill="#FAFFFA" d="M37.693,21.453c0.137-0.544,0.338-1.067,0.338-1.653c0-0.818-0.21-1.589-0.474-2.322
	c2.376-0.754,4.611-2.046,6.496-3.927c3.657-3.662,5.173-8.647,4.583-13.424c-4.783-0.599-9.765,0.916-13.426,4.58
	c-1.871,1.864-2.966,4.124-3.696,6.471c-0.751-2.366-2.047-4.593-3.923-6.471c-3.666-3.664-8.65-5.179-13.421-4.58
	c-0.604,4.774,0.916,9.76,4.578,13.424c1.789,1.795,3.902,3.059,6.154,3.824c-0.021,0.044-0.049,0.072-0.066,0.121
	c0,0-0.43,1.007-0.337,2.335c0.093,1.328,0.292,1.67,0.446,2.136C15.758,31.794,0,52.216,0,76.722
	c0,17.333,14.058,31.389,31.391,31.389c17.338,0,31.389-14.058,31.389-31.389C62.78,50.673,46.847,30.766,37.693,21.453z" class="color c1"/>
</svg>