<svg version="1.1" id="图层_1" x="0px" y="0px" width="184.814px" height="153.613px" viewBox="0 0 184.814 153.613" enable-background="new 0 0 184.814 153.613" xml:space="preserve" xmlns="http://www.w3.org/2000/svg" xmlns:xlink="http://www.w3.org/1999/xlink" xmlns:xml="http://www.w3.org/XML/1998/namespace">
  <path fill="#8E5625" d="M46.322,75.815c-2.104,0.372-4.141,0.836-6.202,1.079C31.25,77.939,20.64,70.643,18.266,62.01
	c-0.503-1.83,0.002-2.915,1.768-3.477c1.185-0.377,2.37-0.755,3.917-1.249c-3.082-0.449-5.757-0.669-8.353-1.246
	C2.082,53.033-3.759,40.744,2.529,28.323c1.304-2.572,3.122-5.017,5.166-7.059C19.231,9.732,33.198,2.83,49.229,0.024
	c0.283-0.05,0.583-0.007,1.353-0.007C39.113,7.193,31.226,16.66,27.439,29.664c3.03-0.425,5.817-1.07,8.623-1.161
	c8.787-0.287,17.584-0.354,26.374-0.541c0.866-0.018,1.886-0.012,2.565-0.441c4.204-2.661,8.643-2.771,13.256-1.484
	c3.979,1.11,7.895,2.694,11.948,3.212c3.011,0.385,6.236-0.4,9.292-1.031c3.155-0.65,6.188-1.871,9.329-2.614
	c3.813-0.9,7.464-0.313,10.859,1.744c0.606,0.366,1.382,0.656,2.074,0.648c5.943-0.065,11.897-0.483,17.826-0.251
	c5.909,0.23,11.795,1.088,17.92,1.694c-3.661-12.731-11.531-22.163-22.979-29.371c0.802,0,1.195-0.059,1.568,0.008
	c15.214,2.716,28.54,9.223,39.888,19.77c6.685,6.212,10.21,13.564,8.323,22.814c-1.182,5.787-4.519,10.078-10.219,11.928
	c-4.037,1.31-8.278,1.99-12.237,2.909c0.509,0.169,1.431,0.5,2.367,0.786c2.824,0.865,3.307,1.72,2.313,4.453
	c-2.868,7.892-13.297,16.667-24.155,13.775c-1.159-0.309-2.351-0.499-3.831-0.808c0.243,1.818,0.417,3.5,0.696,5.164
	c0.924,5.542-0.355,10.455-4.125,14.664c-4.172,4.654-8.325,9.32-12.556,13.922c-0.976,1.063-1.367,1.857-0.517,3.273
	c1.272,2.119,1.228,4.39,0.106,6.688c-0.318,0.656-0.23,1.711,0.057,2.43c1.503,3.758,2.436,7.578,1.98,11.664
	c-0.626,5.646-4.721,10.033-10.271,11.15c-0.752,0.15-1.704,0.896-1.976,1.596c-2.551,6.57-3.914,7.469-11.014,7.35
	c-5.566-0.092-11.137-0.02-16.703-0.022c-0.979,0-1.959,0.028-2.936-0.015c-3.938-0.176-6.818-1.772-7.678-5.914
	c-0.4-1.94-1.237-2.93-3.439-3.348c-5.115-0.975-8.775-5.545-9.348-10.875c-0.438-4.086,0.508-7.904,2.021-11.658
	c0.285-0.705,0.307-1.754-0.013-2.426c-1.1-2.304-1.095-4.562,0.175-6.688c0.779-1.307,0.507-2.066-0.445-3.094
	c-3.743-4.023-7.239-8.285-11.113-12.176c-5.472-5.494-6.998-11.896-5.271-19.272c0.121-0.511,0.187-1.037,0.24-1.56
	C46.445,76.35,46.369,76.134,46.322,75.815z M64.334,121.518c-1.294,3.229-1.924,6.349-1.451,9.609
	c1.191,8.203,6.51,11.318,14.406,8.873c4.423-1.369,9.017-2.213,13.565-3.133c2.055-0.416,4.208-0.318,6.272-0.695
	c0.818-0.152,1.746-0.818,2.177-1.521c0.23-0.377-0.435-1.364-0.796-2.021c-0.325-0.588-0.832-1.069-1.186-1.646
	c-2.739-4.445-0.699-9.148,4.408-10.082c1.551-0.285,3.136-0.439,4.71-0.523c1.949-0.102,2.771-1.117,2.96-2.982
	c0.355-3.518-0.644-6.596-3.024-9.129c-2.396-2.554-3.556-5.527-3.683-8.967c-0.072-1.955-0.266-3.915-0.18-5.865
	c0.18-4.086-0.795-7.887-2.391-11.602c-1.633-3.797-3.273-7.599-4.667-11.486c-1.379-3.847-2.263-7.845-1.311-11.958
	c1.638-7.092,6.239-11.861,12.393-15.299c3.061-1.713,5.503-3.931,6.784-7.255c1.149-2.988,0.245-4.916-2.9-5.104
	c-2.953-0.177-6.008,0.105-8.916,0.697c-6.361,1.294-12.483,1.264-18.505-1.554c-2.151-1.008-4.552-1.563-6.894-2.083
	c-3.097-0.688-6.279-0.593-8.933,1.272c-7.199,5.065-12.528,11.673-13.912,20.529c-1.474,9.429-2.126,18.983-3.354,28.455
	c-0.576,4.446-0.515,8.716,1.515,12.774c3.468,6.951,8.618,12.615,13.864,18.18c5.866-3.992,7.716-13.188,6.164-18.146
	c-2.866,3.973-4.591,5.256-6.895,4.893c1.78-1.932,3.518-3.822,2.871-6.633c-8.323-0.872-11.724-5.192-10.804-13.418
	c0.485-4.342,1.74-8.902-2.891-12.225c0.178-0.202,0.354-0.405,0.53-0.608c1.371,0.442,2.742,0.884,4.085,1.317
	c1.087-6.227,4.149-11.46,8.116-13.489c-0.474,0.666-0.805,1.14-1.142,1.605c-5.842,8.092-5.182,14.967,2.107,21.83
	c1.315,1.238,2.71,2.396,3.979,3.68c6.87,6.935,7.824,15.157,2.507,23.359c-1.832,2.825-4.135,5.352-6.271,7.977
	c-2.268,2.782-2.626,5.596-0.959,8.776c0.487,0.927,1.14,1.769,1.688,2.665c2.202,3.607,2.685,7.328,0.707,11.244
	C69.295,127.617,67.648,124.311,64.334,121.518z M44.881,2.354c-0.497,0.025-0.724,0.003-0.933,0.052
	c-13.026,3.047-24.063,9.671-33.652,18.842c-3.563,3.406-5.935,7.542-7.019,12.387c-1.845,8.235,1.109,15.346,8.178,18.286
	c7.688,3.198,15.613,4.369,23.594,0.67c1.021-0.473,2.131-0.748,3.158-1.206c2.008-0.896,3.855-0.81,5.776,0.376
	c1.376,0.848,2.956,1.363,4.704,2.146c1.479-10.013,7.304-17.334,13.745-24.665c-1.253-0.089-2.209-0.206-3.168-0.218
	c-10.593-0.131-20.981,1.56-31.316,3.637c-0.57,0.114-1.361,1.003-1.397,1.574c-0.156,2.407-0.066,4.83-0.066,7.247
	c-0.952-1.221-1.798-2.556-2.203-4.014c-1.096-3.93-0.912-7.9,0.217-11.806c2.084-7.217,6.543-12.801,12.29-17.42
	C39.297,6.223,41.996,4.439,44.881,2.354z M132.256,31.104c-0.062,0.249-0.122,0.498-0.185,0.748
	c4.605,4.2,7.757,9.352,10.135,15.039c0.232,0.555,1.182,1.087,1.84,1.141c3.896,0.325,7.81,0.705,11.714,0.677
	c3.207-0.023,6.505-0.208,9.59-0.997c5.246-1.343,7.798-5.127,7.128-10.482c-1.036-8.27-6.534-13.72-12.439-18.842
	c2.27,5.685,3.287,11.463,2.1,17.486c-0.563,2.86-1.983,5.228-4.798,7.064c-0.1-1.573-0.151-2.754-0.256-3.929
	c-0.521-5.863-1.112-6.679-6.887-7.137C144.232,31.399,138.237,31.344,132.256,31.104z M116.909,33.956
	c-1.342,5.674-1.885,6.518-6.643,11.235c-6.167,6.117-9.215,13.489-8.223,22.212c0.499,4.394,1.768,8.625,4.26,11.765
	c2.683-2.71,5.207-5.436,7.916-7.96c6.57-6.119,7.263-12.534,2.025-19.81c-0.622-0.864-1.129-1.811-1.688-2.718
	c0.209-0.186,0.418-0.37,0.628-0.555c4.329,1.846,7.107,5.476,9.737,9.291c-0.652-6.042-4.088-10.001-9.402-12.457
	C117.116,41.225,118.093,37.692,116.909,33.956z M48.395,56.234c-3.237-1.527-6.269-3.745-10.408-2.205
	c-4.641,1.724-9.424,3.069-14.163,4.521c-5.346,1.638-5.712,2.794-2.221,7.375c0.183,0.239,0.354,0.496,0.573,0.696
	c6.777,6.18,14.306,9.692,23.651,6.529c0.543-0.183,1.279-0.724,1.357-1.192c0.333-2.035,0.457-4.104,0.673-6.323
	c-4.563,0.22-8.098-1.898-11.851-3.393c-1.377-0.549-3.031-0.676-4.531-0.57c-1.933,0.134-3.83,0.73-5.755,1.054
	c-0.699,0.117-1.435,0.019-2.153,0.019c-0.033-0.304-0.065-0.608-0.101-0.912C31.602,59.454,38.998,53.885,48.395,56.234z
	 M76.585,144.533c0.235,1.395,0.366,2.355,0.565,3.303c0.645,3.07,1.683,3.945,4.854,3.594c2.446-0.271,4.872-0.807,7.271-1.377
	c2.552-0.607,4.271-2.584,4.085-4.43c-0.174-1.73-2.134-3.018-5.007-2.75C84.501,143.23,80.681,143.938,76.585,144.533z
	 M137.35,66.521c-0.26,3.142-0.104,3.232,3.569,3.258c4.438,0.028,8.177-1.649,11.446-4.478c0.974-0.843,1.698-1.972,2.655-3.11
	c-2.376-1.043-4.188-0.858-6.207,0.019C145.228,63.771,141.49,64.987,137.35,66.521z M116.672,89.047
	c1.314,2.702,2.365,4.859,3.414,7.018c-0.085,0.11-0.17,0.224-0.257,0.336c-1.405-0.849-2.813-1.695-4.535-2.734
	c0.582,0.973,1.003,1.677,1.563,2.609c-1.128,0-1.988,0-2.84,0c1.696,3.168,1.786,3.281,4.855,1.635
	c5.53-2.965,7.384-8.322,8.836-13.973C125.185,87.377,121.821,89.029,116.672,89.047z M181.441,43.289
	c0.193-0.853,0.469-1.695,0.569-2.557c0.911-7.764-1.886-14.2-7.341-19.521c-5.247-5.114-11.119-9.434-17.604-12.882
	c-0.745-0.396-1.521-0.733-2.281-1.097c5.545,4.118,11.146,8.069,16.241,12.591C177.95,25.969,183.008,33.192,181.441,43.289z
	 M160.514,61.357c-0.474-0.8-0.542-1.037-0.701-1.158c-0.415-0.316-0.834-0.678-1.313-0.854c-4.695-1.729-9.408-3.414-14.105-5.137
	c-2.988-1.096-5.246,0.898-7.763,1.798c-0.049,0.018,0.029,0.393,0.092,1.115c2.735-2.05,5.558-1.89,8.394-0.956
	c4.269,1.403,8.521,2.85,12.78,4.28C158.575,60.674,159.25,60.916,160.514,61.357z M62.485,76.328
	c-1.607,4.854-0.922,7.212,2.302,8.3C66.529,81.271,64.938,78.823,62.485,76.328z M122.543,76.122
	c-1.554,2.305-3.849,3.798-2.712,6.728C122.447,81.666,123.189,79.998,122.543,76.122z M79.678,80.641
	c0.751-1.59,1.318-3.68,2.55-5.244c6.627-8.408,4.41-18.063-1.884-25.04c-2.063-2.287-4.366-4.358-6.427-6.647
	c-1.375-1.527-2.514-3.269-3.757-4.913c0.215-0.203,0.432-0.406,0.646-0.609c5.199,4.662,10.852,8.917,15.486,14.083
	c6.434,7.173,5.621,15.245-1.167,22.134C83.166,76.391,81.441,78.607,79.678,80.641z M84.563,128.611
	c-0.918,0.315-1.817,0.723-2.763,0.932c-3.033,0.674-6.063-1.572-6.157-4.672c-0.026-0.887,0.292-2.086,0.907-2.631
	c2.327-2.066,5.15-1.766,7.909-1.088c2.219,0.545,3.646,1.988,4.201,4.256c0.993,4.064-2.869,9.934-6.484,10.061
	c1.027-2.094,2.093-4.268,3.157-6.443C85.078,128.887,84.819,128.75,84.563,128.611z" class="color c1"/>
</svg>