<svg version="1.1" id="图层_1" x="0px" y="0px" width="218.09px" height="179.721px" viewBox="0 0 218.09 179.721" enable-background="new 0 0 218.09 179.721" xml:space="preserve" xmlns="http://www.w3.org/2000/svg" xmlns:xlink="http://www.w3.org/1999/xlink" xmlns:xml="http://www.w3.org/XML/1998/namespace">
  <path fill="#333333" d="M40.684,109.704c6.861-2.705,13.728-5.413,20.613-8.129c-0.299-1.306-0.549-2.604-0.749-3.896
	c-0.9-5.808-0.793-11.515,0.474-17.198c3.058-13.726,11.563-23.127,23.761-29.508c12.165-6.362,25.314-8.98,38.855-9.112
	c26.187-0.252,52.377-0.104,78.566-0.08l6.841,0.103l-6.752-2.913C186.091,15.433,158.965,0,128.229,0
	c-49.627,0-89.86,40.23-89.86,89.859c0,5.688,0.539,11.249,1.551,16.646L0,125.892l0.135,0.001L40.684,109.704L40.684,109.704z
	 M208.563,49.56l0.483-7.678l-2.685,7.76c-11.838,30.771-36.086,51.331-65.252,66.479c-0.047,0.023-0.096,0.051-0.144,0.074
	c7.653,17.011,15.372,33.673,22.994,50.61c-0.272,0.133-0.551,0.257-0.826,0.386c-10.651,4.989-22.539,7.782-35.079,7.782
	c-12.541,0-24.428-2.793-35.08-7.782c-0.065-0.028-0.13-0.06-0.193-0.09c-0.216-4.646,0.564-9.053,2.031-13.351
	c3.028-8.872,8.979-15.6,16.604-20.593c7.626-4.996,15.647-9.246,23.553-13.787l-0.001,0.002l5.678-3.008l0.32-0.171
	c-0.011-0.046-0.025-0.09-0.037-0.136c-4.447-17.147-22.257-28.736-40.183-26.456c-7.716,0.982-15.025,3.225-22.22,5.845
	l-0.006-0.002l-2.347,0.836l-14.878,5.294c0,0,3.026,14.684,14.958,24.625c-10.089,0-20.158,0-30.221,0
	c0.001,0.002,0.002,0.004,0.003,0.006l-45.902-0.313l-0.132,0.053l47.991,4.37c9.024,17.865,23.824,32.313,41.963,40.864
	c0.069,0.033,0.14,0.065,0.209,0.098c11.559,5.413,24.456,8.443,38.063,8.443c13.606,0,26.504-3.03,38.063-8.443
	c0.299-0.14,0.6-0.274,0.896-0.418c30.117-14.513,50.9-45.328,50.9-80.999C218.09,75.368,214.654,61.682,208.563,49.56z
	 M84.354,116.654c-4.503,0.021-8.095-3.535-8.103-8.024c-0.008-4.543,3.492-8.065,8.027-8.078c4.581-0.014,8.067,3.431,8.093,7.994
	C92.395,113.05,88.853,116.633,84.354,116.654z" class="color c1"/>
</svg>