<svg version="1.1" id="图层_1" x="0px" y="0px" width="52.46px" height="98.717px" viewBox="0 0 52.46 98.717" enable-background="new 0 0 52.46 98.717" xml:space="preserve" xmlns="http://www.w3.org/2000/svg" xmlns:xlink="http://www.w3.org/1999/xlink" xmlns:xml="http://www.w3.org/XML/1998/namespace">
  <path fill="#FFD350" d="M48.234,34.981c0.597,11.684-16.637,15.421-22.082,22.342C20.707,50.402,3.473,46.665,4.069,34.981
	c2.127,2.412,3.462,4.829,5.511,6.009c2.149,1.237,4.98,1.286,8.027,1.28c-8.481-5.199-6.472-13.766-7.74-21.16
	c-0.3-1.773-0.267-3.603-0.553-5.378c-1.111-6.948-3.418-7.913-9.009-3.834C1.368,6.264,4.056,2.886,10.423,0
	c1.772,9.154,3.498,18.074,5.215,26.995c0.617-6.375,3.296-6.286,9.751-6.091c6.455-0.194,10.66-0.283,11.277,6.091
	C38.382,18.074,40.109,9.154,41.88,0C48.248,2.886,50.936,6.264,52,11.898c-5.592-4.079-7.898-3.114-9.01,3.834
	c-0.286,1.776-0.252,3.605-0.553,5.378c-1.269,7.394,0.741,15.96-7.74,21.16c3.047,0.006,5.877-0.043,8.027-1.28
	C44.773,39.81,46.107,37.393,48.234,34.981z M43.735,64.628c-12.422,5.569-23.527,5.146-35.166,0.53
	C16.975,78.708,34.039,78.778,43.735,64.628z M39.845,76.795c-7.551,11.021-20.84,10.966-27.387,0.412
	C21.522,80.803,30.171,81.133,39.845,76.795z M8.685,58.371c-1.99,1.205-3.606,2.184-6.434,3.894
	c3.325,7.029,6.618,13.99,9.397,19.863C0.816,75.794-3.263,63.393,2.852,50.157C4.904,53.049,6.689,55.561,8.685,58.371z
	 M49.609,50.157c6.115,13.236,2.036,25.638-8.796,31.971c2.779-5.873,6.071-12.834,9.397-19.863
	c-2.828-1.71-4.444-2.688-6.434-3.894C45.771,55.561,47.556,53.049,49.609,50.157z M33.731,89.329l-7.579,9.389l-7.579-9.389H33.731
	z" class="color c1"/>
</svg>