<svg version="1.1" id="图层_1" x="0px" y="0px" width="190px" height="157.063px" viewBox="0 0 190 157.063" enable-background="new 0 0 190 157.063" xml:space="preserve" xmlns:xml="http://www.w3.org/XML/1998/namespace" xmlns="http://www.w3.org/2000/svg" xmlns:xlink="http://www.w3.org/1999/xlink">
  <path fill="#19193D" d="M174.479,129.875c-1.187-1.451-2.373-2.897-3.688-4.349c-1.316-1.448-2.768-3.03-4.35-4.479
	c-3.159-3.028-6.849-6.062-10.932-8.825c-1.977-1.447-4.085-2.767-6.455-4.082c-2.371-1.317-4.875-2.505-7.51-3.293
	c-2.766-0.793-5.531-1.188-8.297-1.317c-2.768-0.134-5.533,0.131-8.298,0.922c-0.661,0.131-1.319,0.396-1.978,0.657
	c-0.658,0.267-1.188,0.526-2.106,1.056c-1.187,0.789-2.24,1.58-3.163,2.635c-0.79,0.923-1.58,1.978-1.975,3.16
	c-0.396,1.056-0.266,2.108,0.131,2.897c0,0,0-0.265,0-0.657c0-0.394,0.132-1.056,0.527-1.845c0.524-0.791,1.314-1.713,2.502-2.636
	c0.657-0.395,1.315-0.922,2.105-1.317c0.791-0.396,1.713-0.788,2.503-1.053c0.79-0.134,1.978-0.396,2.897-0.265
	c1.056-0.133,2.106-0.265,3.293-0.265c2.238,0,4.609,0.265,7.112,0.791c1.187,0.263,2.503,0.658,3.688,1.054
	c1.185,0.396,2.371,0.922,3.556,1.449c2.373,1.186,4.744,2.635,7.114,4.084c1.186,0.788,2.371,1.579,3.556,2.37
	c1.187,0.789,2.373,1.58,3.425,2.371c2.241,1.711,4.348,3.293,6.324,5.004c2.105,1.582,3.951,3.296,5.664,5.007
	c1.713,1.582,3.426,3.293,5.006,4.741c1.58,1.449,3.161,2.769,4.609,3.82c0.057,0.041,0.109,0.077,0.164,0.118
	c0.186-0.368,0.369-0.735,0.551-1.106C178.668,134.832,176.635,132.539,174.479,129.875z M50.262,127.766
	c-0.394-1.054-0.922-2.106-1.448-3.029c-1.055-1.975-2.371-3.817-3.819-5.399c-0.66-0.791-1.448-1.448-2.373-2.106
	c-0.79-0.526-1.71-1.056-2.633-1.315c0,0,0.263,0.131,0.526,0.396c0.396,0.265,0.922,0.657,1.448,1.317
	c1.187,1.315,2.635,3.424,3.821,6.453c0.658,1.58,1.185,3.162,1.713,5.006c0.262,0.527,0.262,0.922,0.394,1.318
	c0.133,0.395,0.265,0.922,0.265,1.314c0.132,0.923,0.132,1.845,0.132,2.767c-0.132,1.845-0.396,3.82-1.187,5.664
	c-0.79,1.847-1.845,3.558-3.161,5.138c-2.635,3.162-6.322,5.399-10.011,6.981c-3.688,1.58-7.377,2.371-10.67,2.767
	c-0.416,0.051-1.023,0.096-1.771,0.139c0.519,0.632,1.042,1.257,1.574,1.873c0.938,0.017,1.916,0.013,2.964-0.034
	c2.766-0.134,6.059-0.527,9.483-1.714c3.424-1.186,6.982-3.028,10.012-5.928c1.448-1.449,2.896-3.16,3.951-5.138
	c0.528-1.055,0.922-2.106,1.318-3.161c0.395-1.056,0.658-2.107,0.79-3.293c0.263-2.24,0.13-4.609-0.264-6.718
	C51.052,129.875,50.658,128.82,50.262,127.766z M152.744,127.766c-0.396-1.054-0.924-2.106-1.448-3.029
	c-1.055-1.975-2.373-3.817-3.821-5.399c-0.658-0.791-1.449-1.448-2.371-2.106c-0.789-0.526-1.713-1.056-2.635-1.315
	c0,0,0.264,0.131,0.528,0.396c0.394,0.265,0.922,0.657,1.448,1.317c1.185,1.315,2.635,3.424,3.818,6.453
	c0.657,1.58,1.188,3.162,1.713,5.006c0.265,0.527,0.265,0.922,0.396,1.318c0.132,0.395,0.262,0.922,0.262,1.314
	c0.134,0.923,0.134,1.845,0.134,2.767c-0.134,1.845-0.396,3.82-1.186,5.664c-0.79,1.847-1.846,3.558-3.161,5.138
	c-2.635,3.162-6.323,5.399-10.012,6.981c-3.688,1.58-7.376,2.371-10.669,2.767c-3.295,0.396-6.061,0.526-8.037,0.657
	c-1.844,0.134-3.029,0.134-3.029,0.134s0.658,0.131,1.713,0.262c1.055,0.134,2.768,0.396,4.741,0.66
	c1.978,0.265,4.479,0.396,7.377,0.265c2.767-0.134,6.06-0.527,9.485-1.714c3.425-1.186,6.98-3.028,10.011-5.928
	c1.449-1.449,2.897-3.16,3.952-5.138c0.525-1.055,0.922-2.106,1.316-3.161c0.396-1.056,0.656-2.107,0.789-3.293
	c0.264-2.24,0.133-4.609-0.264-6.718C153.534,129.875,153.139,128.82,152.744,127.766z M95,0C42.534,0,0,42.531,0,94.998
	c0,21.467,7.125,41.269,19.131,57.176c0.776-0.055,1.351-0.108,1.625-0.17c3.689-0.791,7.244-1.844,10.67-3.426
	c3.161-1.447,6.324-3.425,8.692-6.19c2.241-2.503,3.428-5.664,3.558-9.089c0-2.766-0.526-5.532-1.448-8.168
	c-2.109-6.188-6.719-10.932-13.437-11.459c-2.239-0.133-4.742,0.527-6.059,2.371c-0.396,0.658-0.79,1.449-0.79,2.24
	c-0.132,3.028,2.633,4.213,4.874,4.608c0.922,0.133,4.213,0.265,4.478-0.922c-0.526,1.844-1.975,3.426-3.426,4.479
	c-3.293,2.37-8.034,3.028-11.854,1.186c-4.084-1.977-6.061-6.717-5.928-11.063c0.658-13.041,14.885-17.125,25.818-14.886
	c9.089,1.711,18.178,6.717,25.158,12.646c7.244,6.062,13.172,13.567,20.549,19.362c0.528,0.396,1.187,0.925,1.713,1.318
	c9.221,6.981,20.154,10.144,31.218,12.646c3.688,0.791,21.735,1.977,27.531-5.271c2.106-2.634,3.426-5.664,3.556-9.089
	c0-2.766-0.525-5.532-1.449-8.168c-2.104-6.188-6.718-10.932-13.437-11.459c-2.238-0.133-4.741,0.527-6.058,2.371
	c-0.396,0.658-0.791,1.449-0.791,2.24c-0.131,3.028,2.635,4.213,4.873,4.608c0.924,0.133,4.217,0.265,4.479-0.922
	c-0.525,1.844-1.979,3.426-3.426,4.479c-3.293,2.37-8.035,3.028-11.854,1.186c-4.084-1.977-6.188-6.717-5.929-11.063
	c0.527-13.041,14.886-17.125,25.688-14.886c9.223,1.711,18.18,6.717,25.291,12.646c6.805,5.813,12.797,12.315,19.174,18.435
	c5.021-11.576,7.81-24.345,7.81-37.767C190,42.531,147.466,0,95,0z M82.931,140.676c-1.187-0.791-2.899-2.106-4.743-3.952
	c-1.843-1.711-3.952-4.082-6.19-6.849c-1.187-1.451-2.371-2.897-3.689-4.349c-1.316-1.448-2.765-3.03-4.345-4.479
	c-3.163-3.028-6.851-6.062-10.935-8.825c-1.977-1.447-4.083-2.767-6.454-4.082c-2.37-1.317-4.873-2.505-7.508-3.293
	c-2.768-0.794-5.532-1.188-8.299-1.317c-2.768-0.134-5.534,0.131-8.299,0.922c-0.658,0.131-1.316,0.396-1.977,0.657
	c-0.658,0.267-1.185,0.526-1.843,1.056c-1.187,0.789-2.241,1.58-3.163,2.635c-0.79,0.922-1.581,1.978-1.975,3.16
	c-0.396,1.056-0.265,2.108,0.132,2.897c0,0,0-0.265-0.132-0.657c0.132-0.396,0.132-0.923,0.526-1.845
	c0.528-0.791,1.318-1.713,2.503-2.636c0.658-0.395,1.318-0.922,2.108-1.317c0.79-0.395,1.58-0.788,2.371-1.053
	c0.79-0.134,1.975-0.396,2.896-0.265c1.055-0.133,2.108-0.265,3.293-0.265c2.241,0,4.611,0.265,7.112,0.791
	c1.187,0.263,2.503,0.658,3.689,1.054s2.371,0.922,3.558,1.449c2.37,1.186,4.741,2.635,7.112,4.084
	c1.187,0.788,2.37,1.579,3.557,2.37c1.185,0.789,2.371,1.58,3.426,2.371c2.238,1.711,4.345,3.293,6.321,5.004
	c2.109,1.582,3.952,3.296,5.664,5.007c1.713,1.582,3.426,3.293,5.006,4.741c1.58,1.449,3.161,2.769,4.609,3.82
	c1.45,1.055,2.767,1.978,3.953,2.635c0.526,0.265,1.053,0.526,1.581,0.791c0.394,0.131,0.79,0.396,1.185,0.526
	c0.181,0.06,0.322,0.111,0.44,0.158c-0.017-0.013-0.028-0.017-0.045-0.026C83.983,141.467,83.589,141.07,82.931,140.676z" class="color c1"/>
  <path fill="#D1E6D3" d="M47.251,32.205c-6.347-0.049-3.605,4.81-2.97,5.813c0.026,0.039,0.049,0.067,0.077,0.106
	c0.022,0.033,0.03,0.026,0.03,0.026l-0.017-0.055c12.515,18.829,15.031,40.788,15.482,67.448c1.809,1.256,3.565,2.599,5.248,4.026
	c3.579,2.992,6.829,6.296,9.975,9.49c3.466,3.521,6.738,6.847,10.336,9.681c0.284,0.213,0.6,0.459,0.914,0.702
	c0.258,0.201,0.517,0.402,0.746,0.574c7.846,5.938,17.187,8.91,28.805,11.539c0.732,0.149,3.248,0.45,6.59,0.45
	c8.23,0,13.329-1.771,14.733-3.522c1.375-1.719,2.092-3.459,2.188-5.313c-0.019-1.93-0.386-3.94-1.101-5.981
	c-0.071-0.213-0.155-0.438-0.244-0.672c-1.392,2.422-3.332,4.09-4.553,4.978c-3.089,2.228-6.896,3.44-10.74,3.44
	c-2.623,0-5.218-0.582-7.499-1.685c-6.068-2.937-9.857-9.76-9.445-16.996c0.543-12.6,11.286-21.396,26.153-21.396
	c2.368,0,4.713,0.234,6.97,0.697c3.102,0.582,6.264,1.517,9.422,2.76C128.191,60.115,91.882,35.598,47.251,32.205z" class="color c2"/>
</svg>