<svg version="1.1" id="图层_1" x="0px" y="0px" width="184.145px" height="114.655px" viewBox="0 0 184.145 114.655" enable-background="new 0 0 184.145 114.655" xml:space="preserve" xmlns="http://www.w3.org/2000/svg" xmlns:xlink="http://www.w3.org/1999/xlink" xmlns:xml="http://www.w3.org/XML/1998/namespace">
  <g>
    <ellipse fill="#3F94FF" cx="84.542" cy="46.282" rx="7.686" ry="11.145" class="color c1"/>
    <path fill="#3F94FF" d="M184.007,60.095c-0.604-2.541-2.621-4.411-5.264-4.884l-0.002,0.014c-1.781-0.354-8.205-1.514-34.545-6.263
		l-29.854-5.418l-2.928-12.564C106.8,11.147,88.07-2.068,67.824,0.267L41.748,3.26c-8.215,0.943-15.15,6.957-17.23,14.873
		L0.203,104.392c-0.805,2.86,0.859,5.832,3.721,6.638c2.865,0.804,5.83-0.862,6.637-3.72l11.172-39.638
		c2.055,19.672,18.715,35.067,38.918,35.102c2.994,0.006,5.449-2.386,5.449-5.379V11.297l2.949-0.339
		c14.805-1.698,28.51,7.957,31.887,22.463l3.73,16.01c0.49,2.089,2.17,3.689,4.281,4.072l22.684,4.507
		c0.186,0.033,3.863,0.573,7.033,1.037c2.629,0.385,4.572,2.64,4.572,5.297v23.041c0,1.897-0.988,3.674-2.635,4.614
		c-0.008,0.004-0.02,0.01-0.027,0.015c-9.664,5.504-19.209,9.649-27.627,12c-2.512,0.703-4.391,2.971-4.213,5.574
		c0.205,3.002,2.66,5.068,5.371,5.068c0.475,0,0.955-0.063,1.434-0.195c9.334-2.571,19.834-7.099,30.357-13.097
		c5.883-3.343,11.674-7.132,16.738-10.948C162.876,90.235,186.13,69.047,184.007,60.095z M55.337,91.504h-0.002
		c-13.117-2.523-23.059-14.085-23.059-27.929V39.919c0-6.41,0.883-12.788,2.621-18.958l0.049-0.176
		c1.041-3.697,4.215-6.398,8.031-6.836l8.066-0.927c2.289-0.262,4.293,1.526,4.293,3.826V91.504z" class="color c1"/>
  </g>
</svg>