<svg version="1.1" id="图层_1" x="0px" y="0px" width="129.255px" height="145.599px" viewBox="0 0 129.255 145.599" enable-background="new 0 0 129.255 145.599" xml:space="preserve" xmlns="http://www.w3.org/2000/svg" xmlns:xlink="http://www.w3.org/1999/xlink" xmlns:xml="http://www.w3.org/XML/1998/namespace">
  <path fill="#020202" d="M72.728,29.874c0.179-1.219,0.811-2.611,0.381-3.471c-0.388-0.776-1.94-0.969-3.014-1.434
	c0.439-1.837,1.995-2.82,4.094-2.353c2.827,0.628,4.736,2.476,6.203,4.847c0.495,0.799,0.872,1.671,1.376,2.651
	c-2.15,1.272-4.137,2.447-6.22,3.679C74.989,32.085,75.432,29.707,72.728,29.874z M4.436,56.474
	c12.943-6.468,25.886-12.936,39.181-19.58c-1.953-0.312-3.444-0.55-4.934-0.787c-0.009-0.124-0.017-0.248-0.026-0.373
	c9.035-3.248,18.438-5.202,27.686-7.61c0.007-3.217,0.959-6.023,3.772-7.558c2.803-1.53,5.41-0.086,7.852,1.392
	c0.363,0.22,0.751,0.454,1.013,0.774c1.106,1.35,2.17,2.733,3.246,4.107c0.727,0.928,1.339,1.979,2.195,2.764
	c1.168,1.071,2.175,0.787,2.737-0.683c0.369-0.964,0.656-1.99,0.779-3.012c0.324-2.702,0.538-5.418,0.821-8.384
	c1.375,0.859,2.632,1.645,4.067,2.542c0.788-2.557,0.09-5.021,0.091-7.578c1.884,0.769,3.35,1.863,4.382,3.448
	c2.792,4.285,2.173,8.918,1.12,13.695c0.964-0.075,1.747-0.135,2.922-0.226c0-3.247,0.115-6.41-0.03-9.561
	c-0.165-3.586-1.629-6.694-4.122-9.28c-3.314-3.438-7.533-5.217-12.066-6.268c-11.3-2.619-22.628-1.925-33.883,0.198
	c-2.765,0.522-5.232,0.407-7.738-0.6c-2.591-1.042-5.151-2.159-7.725-3.243c-0.47-0.198-0.94-0.394-1.551-0.65
	c0,0.738-0.192,1.423,0.039,1.906c0.523,1.093,1.113,2.22,1.93,3.098c2.654,2.854,5.958,4.78,9.69,6.604
	c-4.936,1.958-9.872,3.916-14.809,5.874c3.663,0.232,7.277,0.408,10.866,0.182c3.567-0.224,7.109-0.853,10.662-1.304
	c0.153,0.16,0.306,0.319,0.459,0.479c-0.391,0.171-0.83,0.276-1.164,0.524c-2.155,1.596-4.458,2.847-7.103,3.45
	c-5.414,1.234-10.909,1.344-16.412,1.18c-4.434-0.132-8.862-0.443-13.293-0.674c4.454,3.642,10.007,4.924,15.398,6.971
	c-9.611,2.834-15.807,9.249-20.595,17.891c1.654-0.594,2.92-1.049,4.187-1.503c0.051,0.071,0.102,0.141,0.153,0.212
	c-3.335,3.765-6.671,7.529-10.006,11.294C4.296,56.281,4.366,56.378,4.436,56.474z M104.79,39.876
	c-1.397-2.398-3.541-2.825-5.976-2.64c-1.236,0.094-2.459,0.352-3.764,0.548c0.309-1.155,0.584-2.184,0.86-3.212
	c-0.072-0.038-0.144-0.077-0.216-0.115c-1.371,1.552-2.742,3.104-4.112,4.655c0.067,0.144,0.133,0.289,0.199,0.433
	c1.886,0,3.8,0.203,5.652-0.047c2.792-0.378,4.642,0.855,6.12,2.964c0.446,0.637,0.882,0.841,1.651,0.603
	c2.678-0.83,5.394-1.411,8.224-0.885c0.311,0.058,0.634,0.052,0.951,0.075c-1.065-0.9-2.201-1.568-3.293-2.3
	c-0.36-0.242-0.796-0.612-0.877-0.992c-0.6-2.813-2.732-3.736-5.432-4.507c0.883,1.626,1.661,2.924,2.288,4.292
	c0.2,0.436-0.002,1.056-0.02,1.592C106.269,40.199,105.048,40.318,104.79,39.876z M72.586,38.282
	c-0.877-1.059-1.61-1.944-2.45-2.958c-0.469,2.03-0.899,3.89-1.429,6.186C70.23,40.243,71.411,39.259,72.586,38.282z M111.136,51.16
	c0.182-0.598,0.386-1.189,0.609-1.874c-3.256,1.047-6.145,2.958-7.631,4.991c-2.489,3.403-1.468,7.769,2.332,9.583
	c3.074,1.467,6.334,1.508,9.647,0.897c-1.406-0.573-2.815-1.157-4.282-1.411c-1.885-0.326-2.709-1.523-3.274-3.234
	c0.355,0.032,0.631,0.036,0.899,0.086c2.186,0.409,4.366,0.851,6.557,1.231c0.851,0.148,1.776,0.102,1.523-1.129
	c-0.069-0.334-0.796-0.675-1.267-0.762C111.578,58.679,109.753,55.72,111.136,51.16z M106.234,66.201
	c-0.515-0.235-1.056-0.428-1.602-0.573c-2.521-0.669-4.423,0.394-5.186,2.873c-0.541,1.759,0.034,2.79,1.843,3.074
	c0.78,0.122,1.619,0.109,2.395-0.036c2.497-0.468,4.932-1.461,7.538-0.952c1.712,0.335,2.562-0.392,2.842-2.14
	c-1.408-0.166-2.815-0.158-4.112-0.532C108.657,67.54,107.478,66.768,106.234,66.201z M127.87,52.211
	c-2.025,2.563-2.584,2.495-7.291-0.855c-0.156,1.587,0.623,2.719,1.515,3.83c1.615,2.011,2.213,5.149,0.913,6.584
	c-2.044,2.256-4.375,4.25-6.566,6.375c-0.32,0.31-0.749,0.726-0.757,1.101c-0.028,1.309,0.015,2.635,0.207,3.929
	c0.155,1.044,0.958,1.306,1.942,1.065c1.905-0.466,3.309-2.094,3.088-4.016c-0.414-3.602,1.035-6.141,3.847-8.277
	c2.186-1.66,3.526-4.063,4.324-6.693C129.475,53.992,129.224,52.849,127.87,52.211z M117.749,86.488
	c-2.802-1.963-5.665-2.989-8.984-1.218c-0.33,0.176-1.099-0.11-1.458-0.42c-1.073-0.929-2.204-1.864-3.007-3.01
	c-0.73-1.041-1.227-2.324-1.515-3.573c-0.246-1.067-0.051-2.236-0.051-3.05c-1.28-0.771-2.652-1.347-3.689-2.29
	c-1.081-0.983-1.839-2.322-2.749-3.52c-1.034,3.509-2.076,4.431-5.039,3.7c-2.74-0.676-5.435-1.654-8.021-2.793
	c-2.412-1.062-3.5-3.186-3.595-5.84c-0.138-3.874,0.934-7.19,4.128-9.63c1.393-1.064,2.743-2.185,4.109-3.284
	c0.276-0.222,0.54-0.458,1.018-0.866c-2.079-1.836-4.054-3.58-6.021-5.318c0,1.629-0.04,3.456,0.018,5.281
	c0.025,0.794-0.243,1.156-0.989,1.435c-4.077,1.526-7.276,4.2-9.792,7.715c-2.722,3.802-4.345,8.07-5.267,12.696
	c-1.152,0.124-2.205,0.15-3.213,0.375c-0.786,0.176-1.517,0.6-2.273,0.914c0.503,0.633,0.881,1.477,1.531,1.861
	c2.565,1.518,5.157,3.015,7.849,4.286c3.193,1.508,5.855,3.63,7.605,6.629c1.973,3.38,3.811,6.879,5.302,10.493
	c2.584,6.261,4.038,12.871,5.478,19.555c1.178-4.922,2.356-9.844,3.534-14.765c0.193-0.1,0.387-0.2,0.581-0.299
	c0.581,0.731,1.232,1.417,1.727,2.201c0.935,1.479,1.971,2.937,2.63,4.541c1.179,2.87,2.327,5.753,3.468,8.639h0.012
	c1.285,3.339,2.688,6.606,3.954,9.956c0.116,0.307,0.216,0.627,0.322,0.94h0.001c0.307,0.905,0.596,1.832,0.925,2.832
	c0.147-0.27,0.207-0.35,0.237-0.44c0.077-0.233,0.152-0.466,0.208-0.704c0.134-0.563,0.252-1.126,0.369-1.688h-0.001
	c0.763-3.652,1.178-7.286,1.262-10.896h0.021c0.002-0.146-0.005-0.292-0.004-0.438c0-0.03,0.003-0.06,0.003-0.089h-0.004
	c0.032-6.882-1.246-13.678-3.817-20.355c-1.537-3.994-3.754-7.733-5.744-11.544c-0.829-1.589-0.674-2.255,1.093-2.282
	c0.862-0.013,1.978,0.47,2.558,1.11c1.811,1.996,3.405,4.188,5.116,6.276c1.658,2.024,4.772,2.49,7.084,1.259
	c0.89-0.473,1.95-0.729,2.959-0.842c0.792-0.089,1.07-0.357,1.142-1.096C118.859,87.918,118.668,87.131,117.749,86.488z
	 M40.917,121.619c-2.143-1.407-4.048-2.97-5.68-4.685h-0.001c-4.366-4.59-6.71-10.302-5.925-17.279
	c1.069-9.504,4.346-18.343,9.117-26.552c4.557-7.84,11.07-14.056,17.956-19.848c3.474-2.922,7.117-5.644,10.683-8.456
	c-9.149,4.387-16.273,11.443-23.791,18.032c1.914-2.881,3.752-5.829,6.057-8.35c2.355-2.575,5.127-4.778,7.792-7.056
	c2.588-2.212,5.271-4.314,7.912-6.464c-0.046-0.061-0.092-0.122-0.137-0.183c-3.921,2.469-7.842,4.939-11.763,7.408
	c-0.107-0.123-0.215-0.247-0.322-0.37c1.194-1.455,2.221-3.098,3.616-4.325c2.804-2.467,5.819-4.693,8.717-7.055
	c0.382-0.311,0.862-0.858,0.829-1.257c-0.111-1.355-0.432-2.693-0.707-4.231c-6.727,0.829-13.055,2.857-19.828,4.785
	c1.626,0.479,2.826,0.833,4.36,1.285c-0.832,0.385-1.33,0.619-1.831,0.848c-10.008,4.586-19.742,9.669-28.807,15.954
	c-4.297,2.979-8.461,6.146-11.794,10.214C1.11,71.673-0.56,80.629,0.155,90.21c0.11,1.477,0.377,2.943,0.572,4.414
	C2.889,86.277,6.629,78.89,12.135,72.38c0.027,0.393-0.068,0.736-0.163,1.08c-0.728,2.644-1.647,5.252-2.151,7.938
	c-1.959,10.449,0.399,19.762,7.726,27.626c2.982,3.2,6.362,5.772,10.012,7.911h0.002c3.319,1.945,6.862,3.535,10.554,4.877
	c4.138,1.395,7.139,3.805,9.236,6.122c2.856,3.156,4.026,6.137,4.026,6.137s-0.394-2.741-3.019-6.137
	C46.796,125.914,44.447,123.663,40.917,121.619z M86.667,116.933c-0.237-3.454-1.004-6.828-1.938-10.166
	c-1.533-5.477-3.125-10.935-6.564-15.628c-4.052-5.529-9.453-9.376-15.406-12.56c-1.837-0.983-3.697-1.93-5.485-2.997
	c-1.412-0.842-1.6-1.517-0.506-2.738c1.412-1.577,3.002-3.018,4.644-4.36c2.009-1.641,2.18-1.609,1.345-4.053
	c-1.249-3.651-2.091-7.23,0.453-10.775c-0.142-0.101-0.284-0.201-0.426-0.302c-1.018,0.454-2.147,0.754-3.031,1.393
	c-2.22,1.606-4.522,3.173-6.451,5.097c-8.471,8.449-14.644,18.496-19.374,29.387c-4.077,9.388-2.254,18.026,4.677,25.483
	c0.45,0.484,1.023,1.023,1.672,1.595h-0.029c0.234,0.198,0.482,0.402,0.728,0.605c0.007,0.006,0.014,0.012,0.022,0.019h0.001
	c2.534,2.087,5.637,4.387,7.636,6.053c2.006,1.506,3.768,2.946,5.334,4.323c12.429,10.927,11.86,17.665,11.86,17.665
	s2.346-12.376,7.706-17.665h-0.001c1.313-1.295,2.803-2.172,4.487-2.33c1.188,0.132,2.023,1.174,2.618,2.33h0.001
	c1.381,2.686,1.456,5.987,1.553,0h-0.001c0.019-1.168,0.039-2.681,0.069-4.632c-0.116-1.745-0.363-3.482-0.527-5.224
	c-0.017-0.176-0.045-0.347-0.07-0.52l1.627-0.1l0.375,0.5c1.333,1.708,2.205,6.045,2.576,8.271c0.12-0.468,0.487-5.346,0.498-5.82
	c0.023-0.957-0.01-1.906-0.075-2.85L86.667,116.933z" class="color c1"/>
</svg>