<svg version="1.1" id="图层_1" x="0px" y="0px" width="111.043px" height="199.497px" viewBox="0 0 111.043 199.497" enable-background="new 0 0 111.043 199.497" xml:space="preserve" xmlns:xml="http://www.w3.org/XML/1998/namespace" xmlns="http://www.w3.org/2000/svg" xmlns:xlink="http://www.w3.org/1999/xlink">
  <path fill="#3E281B" d="M89.502,197.57c0.465,0.451,0.469,0.681,0.469,0.681s-0.232-0.226-0.697-0.678
	c-0.465-0.449-1.16-0.898-2.08-1.113c-0.922-0.445-2.07-0.658-3.441-0.408c-0.688,0.011-1.37,0.25-2.054,0.488
	c-0.685,0.24-1.597,0.482-2.28,0.723c-0.912,0.242-1.592,0.71-2.502,1.182c-0.455,0.236-0.909,0.473-1.593,0.711
	c-0.229,0.004-0.685,0.239-0.913,0.242c-0.225,0.232-1.374,0.021-1.377-0.208c-1.156-0.67-1.405-2.042-1.184-2.503
	c-0.01-0.688,0.209-1.377,0.432-1.839c0.441-1.153,0.883-2.304,1.326-3.228c2-4.152,4.226-8.537,6.451-12.924
	c2.227-4.386,3.994-8.763,5.305-13.136c0.656-2.071,1.08-4.368,1.053-6.2c-0.012-0.787-0.07-1.527-0.16-2.234
	c0.717-0.086,1.444-0.232,2.174-0.434c0.092,0.789,0.113,1.598,0.045,2.409c0.033,2.29-0.619,4.591-1.272,6.892
	c-1.306,4.6-3.304,8.983-5.525,13.598c-2.225,4.385-4.452,8.771-6.452,12.923c-0.443,0.923-0.886,2.075-1.101,2.993
	c-0.222,0.463-0.215,0.92-0.208,1.379c0.001,0.098,0.014,0.17,0.025,0.228c0.201-0.004,0.216-0.012,0.432-0.235
	c0.455-0.235,0.909-0.471,1.367-0.478c0.91-0.472,1.818-0.944,2.732-1.187c0.911-0.242,1.82-0.715,2.733-0.957
	s1.83-0.256,2.521-0.037c1.605,0.205,2.99,0.871,3.916,1.546C88.568,196.439,89.037,197.12,89.502,197.57z M111.038,89.817
	c-0.021-1.374-0.724-2.509-1.425-3.415c-1.631-1.808-3.479-2.926-5.328-4.044c-3.266-1.774-6.522-3.009-9.777-4.026
	c-0.004,0.051-0.007,0.098-0.011,0.148c0,0-0.001,0-0.001,0c0.004-0.05,0.007-0.098,0.011-0.148c0,0,0.001,0,0.001,0v-0.002
	c0.715-10.01,0.87-32.301-10.969-51.101c-4.457-7.035-12.198-19.291-27.624-24.56c-1.151-0.44-25.553-8.554-41.145,5.879
	c-4.52,4.19-6.742,8.805-8.068,12.031c2.721-1.873,8.631-4.938,13.7-2.952c7.376,3.098,8.702,15.219,9.238,20.479
	c3.234,32.71-23.52,51.432-28.756,84.496c-6.488,41.33,24.741,77.29,27.93,76.097c3.422-0.967-19.479-46.9-0.816-70.541
	c2.697-3.477,7.22-7.438,19.154-21.359c10.36-12.065,12.136-15.757,12.974-21.039c0.629-3.904,0.834-5.51,1.181-13.074
	c0.202-1.836,0.4-3.9,0.582-7.11c2.73,2.167,4.604,4.083,7.838,5.964c1.54,0.896,2.549,1.615,4.195,2.335
	c1.155,0.67,2.54,1.336,3.921,1.774c1.609,0.435,2.99,0.872,4.601,1.307c3.221,0.869,6.668,1.734,10.121,2.828
	c3.683,1.09,7.365,2.41,10.828,4.191c1.847,0.889,3.467,2.011,4.633,3.368c0.468,0.68,0.939,1.589,0.949,2.276
	c0.239,0.684,0.015,0.917,0.021,1.375c0.007,0.457-0.217,0.919-0.438,1.38c-1.554,3.459-4.944,6.488-8.343,9.058
	c-3.397,2.569-7.03,4.687-10.897,6.575c-1.818,0.943-3.869,1.662-5.691,2.375c-2.054,0.488-3.877,1.203-5.927,1.92
	c-1.819,0.943-4.099,1.666-5.443,3.746c-0.45,0.466-0.673,0.927-0.892,1.617c-0.225,0.231-0.225,0.231-0.223,0.461l0.008,0.457
	c0.004,0.229,0.011,0.688,0.014,0.916c0.018,1.146,0.492,2.283,0.964,3.192c0.236,0.455,0.702,0.906,0.937,1.36
	c0.004,0.23,0.236,0.455,0.469,0.682l0.465,0.451c0.695,0.677,1.62,1.122,2.542,1.566c1.785,0.858,3.558,1.074,5.123,1.065
	c0.303-0.481,0.599-0.922,0.88-1.313c-0.047-0.412-0.025-0.819,0.07-1.217c-0.272,0.004-0.543,0.008-0.827,0.012
	c-1.603,0.023-3.209-0.182-4.593-0.848c-0.691-0.22-1.385-0.668-1.851-1.119l-0.465-0.451l-0.235-0.455
	c-0.232-0.225-0.465-0.449-0.701-0.905c-0.937-1.36-1.188-2.96-0.289-4.118c0.67-1.154,2.488-2.1,4.31-2.813
	c1.823-0.713,3.878-1.203,5.929-1.92c2.051-0.719,3.873-1.433,5.92-2.379c3.867-1.891,7.727-4.238,11.354-6.813
	c3.395-2.799,7.018-5.602,9.016-9.984c0.219-0.691,0.44-1.152,0.658-1.842C111.061,91.189,111.047,90.273,111.038,89.817z
	 M88.227,87.075c0.164-1.126-1.33-2.273-3.334-2.56c-2.004-0.287-3.759,0.394-3.92,1.521c-0.162,1.127,1.332,2.273,3.334,2.561
	C86.311,88.883,88.064,88.203,88.227,87.075z" class="color c1"/>
</svg>