<svg version="1.1" id="图层_1" x="0px" y="0px" width="119.62px" height="169.159px" viewBox="0 0 119.62 169.159" enable-background="new 0 0 119.62 169.159" xml:space="preserve" xmlns="http://www.w3.org/2000/svg" xmlns:xlink="http://www.w3.org/1999/xlink" xmlns:xml="http://www.w3.org/XML/1998/namespace">
  <path fill="#C9BCB4" d="M28.865,38.977c-0.28,4.619-1.754,8.865-4.311,12.729c-0.121,0.183-0.323,0.314-0.673,0.646
	c-0.98-4.344-4.147-7.09-6.365-10.414c-2.881-4.316-5.949-8.533-7.486-13.548c-0.676-2.207-1.037-4.576-1.135-6.89
	c-0.005-0.116,0.002-0.231-0.002-0.348C8.8,18.2,9.126,15.3,9.758,12.37c0.263-1.217,0.59-2.443,0.945-3.677
	c0.231-0.797,0.465-1.595,0.729-2.403c0.482,0.72,0.863,1.346,1.252,1.915c0.188,0.273,0.375,0.538,0.578,0.785
	c0.498,0.61,1.004,1.215,1.505,1.823c1.903,2.311,3.813,4.614,5.714,6.927c0.703,0.856,1.41,1.711,2.108,2.571
	C26.993,25.744,29.296,31.922,28.865,38.977z M45.115,61.745c-0.113,0.284-0.496,0.585-0.804,0.653
	c-2.322,0.516-6.076-1.037-7.447-3.026c-1.467-2.132-1.364-6.602,0.189-8.931c1.807,1.107,3.624,2.199,5.417,3.33
	C44.825,55.258,46.128,59.166,45.115,61.745z M77.599,96.441c-0.602,1.123-1.603,2.061-2.532,2.968
	c-0.682,0.663-1.953,0.946-1.607,2.216c0.372,1.371,1.554,1.51,2.773,1.418c0.271-0.021,0.543-0.004,0.923-0.004
	c-0.428,1.668-1.585,2.595-2.896,3.211c-4.525,2.123-9.106,1.977-13.525-0.246c-7.032-3.542-11.517-9.422-14.646-16.469
	c-0.03-0.07,0.021-0.179,0.085-0.59c1.326,1.544,2.515,2.938,3.714,4.324c2.682,3.099,5.422,6.142,8.916,8.363
	c2.123,1.351,4.38,2.311,6.991,2.145c2.499-0.161,3.095-1.113,1.68-3.131c-1.854-2.64-3.89-5.152-5.828-7.733
	c-0.424-0.567-0.815-1.173-1.132-1.804c-0.746-1.495-0.099-2.613,1.559-2.591c1.777,0.024,3.337,0.642,4.578,2.001
	c0.637,0.697,1.306,1.42,2.099,1.902c1.463,0.895,3,0.723,4.495-0.082c1.207-0.649,2.498-1.155,3.764-0.273
	C78.048,92.79,78.416,94.912,77.599,96.441z M82.336,63.352c2.632-0.085,5.298,0.17,7.891-0.165
	c3.055-0.395,6.102-1.095,9.057-1.981c3.672-1.102,6.402-3.649,8.721-6.611c4.801-6.118,8.09-13.082,11.084-20.193
	c0.555-1.318,0.955-2.854-0.277-4.043c-1.27-1.229-2.734-0.604-4.002,0.058c-2.314,1.206-4.514,2.642-6.832,3.834
	c-4.826,2.479-9.922,4.159-15.303,4.974c-5.153,0.78-10.068,2.197-13.948,5.988c-1.278-1.932-2.285-3.834-3.654-5.426
	c-2.187-2.547-4.824-4.355-8.475-4.106c-3.314,0.226-6.436-0.782-9.47-1.971c-3.776-1.474-7.682-2.3-11.711-2.539
	c-0.554-0.032-1.184,0.27-1.692,0.563c-2.843,1.639-5.545,3.553-8.881,4.147c-2.104,0.376-2.992-0.235-3.146-2.332
	c-0.373-5.145-1.161-10.192-4.188-14.543c-0.604-0.866-1.241-1.712-1.896-2.545c-0.957-1.216-1.959-2.397-3.008-3.528
	c-1.071-1.154-2.177-2.281-3.275-3.422c-0.749-0.775-1.493-1.559-2.224-2.361c-1.954-2.145-3.8-4.438-5.301-7.148
	c-0.807,1.837-1.573,3.344-2.143,4.924c-0.525,1.463-0.975,2.94-1.359,4.431c-0.321,1.246-0.599,2.501-0.821,3.769
	c-0.333,1.904-0.557,3.831-0.652,5.787c-0.05,0.994-0.05,1.974-0.007,2.938c0.288,6.531,2.628,12.399,6.472,17.825
	c2.22,3.134,4.408,6.293,6.526,9.498c2.105,3.188,1.835,6.625,0.336,9.871c-2.15,4.651-4.489,9.228-6.947,13.727
	C8.638,81.137,4.499,89.695,1.771,98.85c-0.675,2.266-1.26,4.549-1.771,6.846c6.172,10.485,13.57,20.401,22.229,29.705
	c8.475,9.106,18.392,16.897,28.354,24.588c3.369,2.601,6.741,5.189,10.065,7.813c2.046,1.615,7.143,1.837,9.345,0.409
	c13.611-8.829,26.502-18.315,38.033-29.693c-17.693-4.569-30.991-8.945-30.991-8.945h-0.001c-0.933-0.181-1.864-0.395-2.798-0.639
	c-6.981-1.837-13.111-5.064-17.886-10.551c-2.731-3.135-4.658-6.705-4.85-11.287c0.424,0.344,0.673,0.514,0.882,0.722
	c2.416,2.45,5.533,3.452,8.779,3.553c6.215,0.194,11.741-1.666,15.994-6.504c1.123-1.276,1.787-2.666,1.713-4.401
	c-0.19-4.487-0.327-8.977-0.53-13.463c-0.043-0.95-0.268-1.893-0.433-2.832c-0.764-4.373,0.61-8.42,1.905-12.478
	c0.085-0.267,0.17-0.534,0.279-0.882c-0.414-0.068-0.748-0.123-1.025-0.168c0.664-2.268,1.258-4.467,1.988-6.617
	C81.171,63.685,81.888,63.367,82.336,63.352z" class="color c1"/>
</svg>