<svg version="1.1" id="图层_1" x="0px" y="0px" width="70.154px" height="70px" viewBox="0 0 70.154 70" enable-background="new 0 0 70.154 70" xml:space="preserve" xmlns="http://www.w3.org/2000/svg" xmlns:xlink="http://www.w3.org/1999/xlink" xmlns:xml="http://www.w3.org/XML/1998/namespace">
  <path fill="#010101" d="M4.241,19.889c0.178,0,0.358-0.042,0.529-0.128c0.567-0.294,0.788-0.991,0.495-1.558
	c-0.037-0.072-3.665-7.261,0-14.357C5.929,2.563,6.675,2.361,7.178,2.32c3.155-0.245,8.756,5.626,11.553,9.393
	c0.38,0.513,1.104,0.62,1.616,0.24c0.514-0.381,0.621-1.104,0.24-1.618C19.771,9.233,12.448-0.417,6.991,0.014
	C5.872,0.105,4.31,0.658,3.213,2.784c-4.208,8.146-0.175,16.144,0,16.48C3.42,19.662,3.821,19.889,4.241,19.889z M49.577,11.953
	c0.514,0.381,1.237,0.273,1.618-0.24c2.796-3.768,8.365-9.642,11.552-9.393c0.504,0.04,1.25,0.243,1.91,1.525
	c3.649,7.063,0.038,14.287,0,14.358c-0.289,0.567-0.068,1.264,0.497,1.557c0.171,0.087,0.353,0.129,0.531,0.129
	c0.418,0,0.822-0.228,1.027-0.625c0.176-0.337,4.209-8.334,0-16.479c-1.096-2.127-2.66-2.68-3.779-2.77
	c-5.426-0.442-12.776,9.218-13.598,10.319C48.958,10.847,49.065,11.572,49.577,11.953z M27.368,58.051
	c0.426,0,0.771,0.346,0.771,0.771s-0.345,0.771-0.771,0.771s-0.771-0.345-0.771-0.771S26.943,58.051,27.368,58.051z M23.514,61.135
	c0.426,0,0.771,0.346,0.771,0.771s-0.346,0.771-0.771,0.771s-0.771-0.345-0.771-0.771S23.088,61.135,23.514,61.135z M42.787,58.051
	c0.426,0,0.771,0.346,0.771,0.771s-0.345,0.771-0.771,0.771s-0.771-0.345-0.771-0.771S42.362,58.051,42.787,58.051z M46.642,61.135
	c0.426,0,0.771,0.346,0.771,0.771s-0.346,0.771-0.771,0.771s-0.771-0.345-0.771-0.771S46.216,61.135,46.642,61.135z M69.77,55.738
	H58.125c0.082-0.372,0.123-0.74,0.123-1.098c0-0.557-0.101-1.072-0.291-1.543l8.033-1.606c0.209-0.041,0.346-0.244,0.303-0.453
	c-0.043-0.211-0.254-0.347-0.453-0.304l-8.266,1.652c-0.343-0.494-0.81-0.921-1.396-1.271c-1.311-0.78-3.17-1.16-5.684-1.16
	c-0.64,0-1.156,0.517-1.156,1.155c0,0.64,0.518,1.158,1.156,1.158c1.487,0,3.145,0.146,4.233,0.688l-3.658,0.73
	c-0.141-0.16-0.346-0.263-0.573-0.263c-0.429,0-0.771,0.345-0.771,0.771s0.344,0.771,0.771,0.771c0.338,0,0.623-0.219,0.725-0.521
	l4.336-0.868c0.24,0.291,0.379,0.642,0.379,1.063c0,0.334-0.069,0.702-0.203,1.098h-9.092c-0.426,0-0.77,0.346-0.77,0.771
	c0,0.427,0.344,0.771,0.77,0.771s0.771-0.345,0.771-0.771h8c-0.412,0.829-1.052,1.736-1.873,2.657l-2.31-0.563
	c-0.094-0.318-0.385-0.553-0.733-0.553c-0.429,0-0.771,0.346-0.771,0.771s0.344,0.771,0.771,0.771c0.219,0,0.416-0.092,0.557-0.239
	l1.883,0.459c-0.524,0.535-1.104,1.068-1.738,1.59c-2.924,2.414-6.227,3.974-8.411,3.974c-5.586,0-6.412-4.589-6.533-6.122
	l6.977-7.333c0.209-0.217,0.328-0.505,0.328-0.808V37.607c4.789-0.162,8.125-1.838,10.449-4.088l0.576,0.574
	c0.229,0.227,0.521,0.34,0.817,0.34c0.298,0,0.593-0.113,0.818-0.34c0.453-0.45,0.453-1.184,0-1.634l-0.68-0.681
	c3.75-4.995,3.821-11.398,3.821-11.504c0-0.639-0.518-1.156-1.157-1.156c-5.234,0-8.854,1.679-11.357,3.968l-0.438-0.44
	c-0.453-0.451-1.185-0.451-1.636,0c-0.453,0.451-0.453,1.185,0,1.637l0.496,0.494c-3.799,4.755-4.02,10.799-4.022,10.917v14.647
	H28.139V35.693c0-4.833-1.445-8.257-3.486-10.681l0.729-0.729c0.453-0.453,0.453-1.186,0-1.637c-0.451-0.451-1.181-0.451-1.634,0
	l-0.728,0.727c-4.893-4.177-11.545-4.254-11.65-4.254c-0.314,0-0.615,0.127-0.831,0.354c-0.22,0.226-0.335,0.529-0.323,0.843
	c0.003,0.107,0.307,6.662,4.191,11.672l-0.474,0.473c-0.451,0.451-0.451,1.184,0,1.634c0.228,0.228,0.522,0.34,0.819,0.34
	c0.296,0,0.591-0.113,0.815-0.34l0.391-0.389c2.272,2.149,5.444,3.735,9.868,3.901v13.502c0,0.313,0.123,0.711,0.347,0.929
	l7.684,7.589c-0.231,1.756-1.327,5.749-6.489,5.749c-2.89,0-7.232-2.646-10.126-5.567l1.859-0.453
	c0.141,0.146,0.337,0.238,0.557,0.238c0.428,0,0.771-0.345,0.771-0.771c0-0.427-0.343-0.771-0.771-0.771
	c-0.35,0-0.642,0.233-0.734,0.552l-2.294,0.56c-0.813-0.896-1.47-1.804-1.893-2.653h8.005c0,0.428,0.345,0.771,0.771,0.771
	s0.771-0.346,0.771-0.771c0-0.425-0.346-0.771-0.771-0.771h-9.099c-0.126-0.386-0.198-0.755-0.198-1.097
	c0-0.428,0.117-0.772,0.364-1.067l4.352,0.87c0.104,0.304,0.388,0.521,0.727,0.521c0.428,0,0.771-0.345,0.771-0.77
	c0-0.428-0.343-0.771-0.771-0.771c-0.229,0-0.435,0.104-0.574,0.262l-3.651-0.729c0.711-0.342,1.987-0.688,4.227-0.688
	c0.64,0,1.155-0.519,1.155-1.156c0-0.641-0.517-1.156-1.155-1.156c-2.513,0-4.371,0.38-5.684,1.16
	c-0.588,0.351-1.053,0.777-1.395,1.271l-8.269-1.654c-0.21-0.043-0.41,0.096-0.451,0.305c-0.043,0.208,0.093,0.411,0.302,0.453
	l8.033,1.605c-0.192,0.473-0.292,0.988-0.292,1.545c0,0.356,0.042,0.726,0.121,1.098H0.386C0.173,55.738,0,55.91,0,56.124
	c0,0.213,0.173,0.385,0.386,0.385h11.855c0.366,1.076,1.016,2.187,1.859,3.269l-9.812,2.391c-0.209,0.05-0.334,0.257-0.282,0.465
	c0.042,0.176,0.2,0.295,0.372,0.295c0.029,0,0.062-0.004,0.093-0.012l10.172-2.477c3.334,3.879,8.982,7.248,12.725,7.248
	c0.869,0,1.659-0.09,2.38-0.252C30.617,68.956,32.65,70,35.077,70s4.461-1.045,5.33-2.566c0.721,0.164,1.51,0.254,2.379,0.254
	c3.741,0,9.393-3.371,12.725-7.25l10.172,2.477c0.031,0.009,0.062,0.013,0.092,0.013c0.175,0,0.332-0.118,0.373-0.295
	c0.054-0.208-0.073-0.416-0.282-0.465l-9.812-2.39c0.842-1.084,1.494-2.192,1.861-3.27H69.77c0.211,0,0.385-0.172,0.385-0.385
	S69.981,55.738,69.77,55.738z M56.981,21.466c-0.176,1.873-0.809,5.578-3.069,8.684l-5.445-5.446
	C50.422,22.985,53.157,21.694,56.981,21.466z M46.877,26.387l5.502,5.504c-1.978,1.861-4.791,3.24-8.799,3.401
	C43.682,33.941,44.204,29.795,46.877,26.387z M12.644,21.508c1.951,0.199,5.748,0.917,8.766,3.478l-5.383,5.38
	C13.667,27.25,12.895,23.458,12.644,21.508z M17.584,32.081l5.435-5.436c1.601,2.008,2.73,4.791,2.803,8.647
	C22.16,35.132,19.507,33.844,17.584,32.081z M34.866,57.186l-4.648-4.531h9.064L34.866,57.186z M35.077,67.688
	c-1.424,0-2.545-0.494-3.096-1.101c1.436-0.807,2.434-1.971,3.096-3.216c0.664,1.245,1.661,2.409,3.098,3.216
	C37.624,67.193,36.5,67.688,35.077,67.688z" class="color c1"/>
</svg>