<svg version="1.1" id="图层_1" x="0px" y="0px" width="176.516px" height="90.489px" viewBox="0 0 176.516 90.489" enable-background="new 0 0 176.516 90.489" xml:space="preserve" xmlns:xml="http://www.w3.org/XML/1998/namespace" xmlns="http://www.w3.org/2000/svg" xmlns:xlink="http://www.w3.org/1999/xlink">
  <path fill="#FFFFFF" d="M71.414,71.094l-4.281-13.014c-0.684-1.883-2.396-3.254-4.45-3.254h-9.247c0,0,2.056,8.391,4.279,15.926
	c2.056,7.363,4.968,11.302,4.968,11.302L71.414,71.094z M34.791,10.992c0,0-2.567-4.281-5.993-3.425
	c-3.425,0.856-1.197,8.22-1.197,8.22S29.654,12.018,34.791,10.992z M167.155,45.238c-5.82-15.924-16.267-40.582-65.41-36.986
	c0,0-8.05-1.027-13.015-5.309c-4.967-4.28-14.042-4.623-25.001,3.938c0,0-4.623,3.083-20.377,4.966c0,0-9.247,0.343-12.5,4.109
	c-1.902,2.204-4.624,4.585-6.97,7.038c0.017,0.005,0.031,0.012,0.047,0.017l-4.265,3.037l0.012-0.016c0,0-5.699,3.072-6.504,4.632
	c-0.805,1.561-5.631,9.694-5.453,10.584c0.177,0.89,0.304,1.526,0.304,1.526L1.819,55.161c0,0-1.749,3.084-1.816,4.336
	c-0.066,1.254,1.133,2.848,1.133,2.848l1.04-0.217l0.979-2.448l0.284,2.976c0,0,3.657,1.611,5.034,1.866
	s10.184-11.412,10.184-11.412s-6.077,10.067-6.559,11.017c-0.48,0.944,5.405-0.869,5.405-0.869s16.785-11.924,27.645-11.924
	c1.899-0.002,13.146-0.021,18.412,0.071c2.909,0,5.479,1.886,6.336,4.796l4.279,15.41c0,0-5.649,9.59-11.985,15.926
	c-0.941,0.94-1.721,1.938-2.384,2.955H89.1c1.27-1.172,2.332-2.367,3.055-3.641c3.426-6.336,10.617-15.24,9.076-26.37l0.172-4.795
	c0,0,4.242,6.341,0.171,20.892c6.766,2.727,21.232,6.336,25.687,4.28c0,0,0.685-11.302,11.644-21.919
	c0,0-10.615,17.639-9.245,26.887c0.253,1.707,0.424,3.25,0.524,4.666h31.559c0.768-1.98,1.496-4.096,2.163-6.381
	C170.238,63.217,172.806,61.165,167.155,45.238z M10.713,41.204c0,0-0.062-1.534,0.617-2.821c0.677-1.288,3.231-1.354,3.231-1.354
	l1.039,1.318L10.713,41.204z M48.318,26.917c0,0-1.368-5.651-6.164-6.85c0,0,1.369-5.309,4.281-4.28
	C49.346,16.813,48.832,24.005,48.318,26.917z M168.697,78.116c0,0-2.327,9.309-3.361,12.373h11.181
	C175.142,86.92,172.721,82.856,168.697,78.116z" class="color c1"/>
</svg>