<svg version="1.1" id="图层_1" x="0px" y="0px" width="90.168px" height="153.496px" viewBox="0 0 90.168 153.496" enable-background="new 0 0 90.168 153.496" xml:space="preserve" xmlns="http://www.w3.org/2000/svg" xmlns:xlink="http://www.w3.org/1999/xlink" xmlns:xml="http://www.w3.org/XML/1998/namespace">
  <path fill="#FFFFFF" d="M38.564,115.119c0,0,1.486,7.598,1.375,10.735c-0.111,3.14-1.707,7.103-2.587,10.296
	c-0.881,3.191,0.496,11.672,0.496,11.672s5.45,5.836,5.56,5.67c0.111-0.166,1.707-2.697,1.707-2.697s-3.578-4.569-4.184-7.377
	c-0.605-2.809,3.854-12.828,5.01-17.729c1.156-4.898,0.33-7.982,3.908-10.846c3.578-2.862,8.92-12.166,8.92-12.166
	c-7.434,5.945-18.554,6.771-18.554,6.771L38.564,115.119z M83.316,48.099c0,0,3.604,2.252,6.853,2.325c0,0-6.196-3.521-7.522-9.624
	c0,0,3.936-3.324,2.367-8.134c0,0-5.943-0.172-8.98-3.607c0,0-1.16-6.64-9.52-8.477c0,0,0.213-12.332-10.779-18.775
	C50.586-1.207,40.85-0.826,36.25,5.828c0,0,17.198-8.49,22.643,12.359c0,0-9.48-9.595-23.964-4.027
	c-11.547,4.438-10.63,17.089-4.735,20.653c0,0-4.203-12.5,7.634-15.146c11.706-2.617,16.313,5.503,16.313,5.503l-9.379,2.865
	c0,0,3.686,5.719,9.311,4.877c0,0,6.133,25.698-18.16,33.813C11.618,74.84,4.93,61.814,4.721,58.215c0,0-1.334,3.689-0.67,6.23
	c0,0-1.587-0.682-1.979-2.981c0,0-0.748,4.835,1.855,8.394c0,0-1.679-0.416-2.707-1.55c0,0,0.705,4.407,5.755,6.544
	c0,0-7.68,5.618-6.923,13.647c0.413,4.377-0.138,8.563,4.707,14.729c1.355,1.723,2.565,3.305,3.616,4.756
	c0.148,0.209,0.296,0.416,0.45,0.627c2.434,3.432,3.863,6.068,3.863,7.939c0,2.752-1.433,5.176-1.433,5.176
	s11.452,18.277,11.892,20.699c0.441,2.423-0.44,5.396-0.44,5.396l5.395,0.882l-0.661-6.718c0,0-7.487-16.735-7.487-22.463
	c0-5.726,2.092-9.358,2.092-9.358s-3.718-2.324-7.156-5.726c-3.437-3.399-3.889-5.351-3.889-5.351s3.641,4.01,6.42,6.23
	c2.78,2.221,6.002,3.248,6.002,3.248L20.175,95.74c0,0,3.082,11.672,6.166,13.543c3.083,1.873-0.66,8.26,0.992,12.993
	c1.651,4.735,5.836,15.966,5.725,20.591c-0.11,4.625-1.431,7.928-1.431,7.928l5.835,0.797c0,0-3.082-12.799-0.33-19.625
	s0-15.855,0-15.855l2.423-8.037c0,0,9.028,0.881,18.058-5.726c4.229-3.095,6.646-6.502,8.021-9.252
	c0.104,0.68,0.206,2.124-0.132,4.663c0,0,6.283-6.44,6.646-15.594c0,0,1.306,2.978,0.139,7.82c0,0,6.871-8.793,3.516-20.415
	c0,0,2.074,2,2.415,6.051c0,0,3.085-17.978-3.257-29.476c0,0,2.018,2.512,5.42,3.714l-1.609-2.8c0,0,2.738,2.301,6.258,3.34
	L83.316,48.099z" class="color c1"/>
</svg>