<svg version="1.1" id="图层_1" x="0px" y="0px" width="203.928px" height="143.034px" viewBox="0 0 203.928 143.034" enable-background="new 0 0 203.928 143.034" xml:space="preserve" xmlns="http://www.w3.org/2000/svg" xmlns:xlink="http://www.w3.org/1999/xlink" xmlns:xml="http://www.w3.org/XML/1998/namespace">
  <path fill="#FFFFFF" d="M199.246,56.595l-7.186,9.078l-9.842,3.328l-14.888-2.187l-29.528-9.525l-11.83-0.604L110.113,48.6
	L91.791,35.087l3.217,0.625l-4.162-4.474l-6.764-1.957l8.096,0.209l-7.61-6.708L73.908,20.74l10.5-1.251l-11.429-6.071
	l-13.397-0.192l9.351-3.978L56.549,5.974L44.085,7.94l6.114-5.557L37.408,0.887l-10.707,6.02L29.747,0L18.051,7.219l-5.375,7.702
	l-1.503-2.485L2.672,29.335l1.377,0.809L0,35.391l2.779,3.202l1.021,1.892l1.927,0.109l0.708,1.094l2.251,1.485l-0.719-2.681
	l6.143-1.325l3.258,2.321l-1.578,1.714l-3.031,1.399l-1.961-2.212l-0.587,1.994l1.083,2.475l-0.422,0.947l2.069,1.39l0.08,1.75
	l6.498,3.194l-0.323-1.934l5.474-0.216l-1.994-2.158l4.078-1.839l-2.284-2.258l1.578-1.191l4.285-0.076l3.632,1.982l0.12-1.696
	l5.04,3.918l-0.276-2.727l4.582,3.156l3.694-0.208l2.939,0.389l-2.594,0.063l-8.732,1.657l-8.961,0.3L15.124,56.63l-0.081,0.096
	c-1.596,1.931-3.406,4.042-3.849,4.444c-0.42,0.078-0.434,0.576-0.51,3.07c-0.021,0.735-0.048,1.685-0.095,2.162l-0.1,0.356
	c-0.112,0.429-0.121,0.464,3.477,2.487l0.117,0.066l5.979-0.25l3.803-3.863l5.459-4.144l18.059-1.724l8.337-1.117l-1.128,0.836
	l11.068,7.154l33.729,7.508l19.958,24.105l22.037,12.042l18.216,20.861l4.462,8.596l4.255,3.718l3.386-0.306l5.215-3.055
	l0.199-5.598l-3.068-5.715l-7.435-3.983l-9.233-20.473l-9.396-8.89L137.823,69.96l-0.131-0.187
	c-1.083-0.908-2.223-1.878-3.084-2.634c0.139,0.055,0.274,0.112,0.399,0.17l0.119,0.048l5.521-0.56l25.444,5.788l16.353,2.38
	l0.111,0.014l12.727-4.16l8.186-8.357l0.459-6.967L199.246,56.595z M11.563,25.898l-0.41,3.37L8.15,30.254l-0.973,1.141
	l-0.264-0.196l4.22-6.331l2.741,0.255L11.563,25.898z" class="color c1"/>
</svg>