<svg version="1.1" id="图层_1" x="0px" y="0px" width="127.876px" height="185.868px" viewBox="0 0 127.876 185.868" enable-background="new 0 0 127.876 185.868" xml:space="preserve" xmlns="http://www.w3.org/2000/svg" xmlns:xlink="http://www.w3.org/1999/xlink" xmlns:xml="http://www.w3.org/XML/1998/namespace">
  <path fill="#7C7C7C" d="M38.621,182.465c0.072-0.016,0.151-0.041,0.23-0.066c0.038-0.014,0.072-0.021,0.111-0.037
	c0.118-0.045,0.242-0.102,0.373-0.168c0.005-0.004,0.008-0.004,0.013-0.006c0.137-0.072,0.28-0.156,0.43-0.248
	c0.046-0.029,0.096-0.064,0.144-0.096c0.104-0.068,0.211-0.137,0.322-0.215c0.062-0.043,0.125-0.092,0.188-0.139
	c0.102-0.072,0.204-0.148,0.31-0.229c0.071-0.055,0.144-0.113,0.217-0.172c0.103-0.08,0.206-0.162,0.312-0.25
	c0.078-0.063,0.157-0.129,0.236-0.195c0.105-0.088,0.212-0.18,0.319-0.271c0.082-0.07,0.164-0.143,0.247-0.215
	c0.114-0.1,0.229-0.203,0.345-0.307c0.08-0.072,0.159-0.143,0.24-0.217c0.123-0.113,0.248-0.229,0.373-0.346
	c0.078-0.072,0.156-0.143,0.235-0.219c0.137-0.127,0.275-0.26,0.414-0.393c0.069-0.064,0.137-0.129,0.207-0.197
	c0.115-0.111,0.233-0.227,0.351-0.34c0.09-0.088,0.18-0.174,0.271-0.262c0.065-0.064,0.131-0.131,0.197-0.195
	c0.149-0.148,0.299-0.295,0.449-0.445c0.091-0.092,0.183-0.184,0.274-0.275c0.122-0.121,0.243-0.242,0.364-0.365
	c0.108-0.109,0.217-0.219,0.325-0.328c0.108-0.111,0.218-0.221,0.326-0.332s0.217-0.221,0.324-0.332
	c0.114-0.117,0.229-0.232,0.343-0.35c0.099-0.102,0.197-0.203,0.296-0.305c0.126-0.129,0.253-0.26,0.378-0.389
	c0.108-0.111,0.217-0.223,0.324-0.334c0.094-0.096,0.188-0.193,0.281-0.289c0.239-0.248,0.477-0.492,0.711-0.732
	c0.05-0.053,0.101-0.104,0.15-0.154c0.18-0.186,0.356-0.367,0.531-0.547c0.03-0.031,0.063-0.063,0.093-0.094
	c0.198-0.203,0.393-0.4,0.583-0.596c0.06-0.059,0.117-0.117,0.176-0.176c0.13-0.133,0.26-0.262,0.386-0.389
	c0.07-0.072,0.139-0.139,0.209-0.209c0.11-0.109,0.221-0.219,0.328-0.324c0.072-0.072,0.144-0.141,0.215-0.211
	c0.1-0.096,0.197-0.191,0.293-0.283c0.07-0.068,0.14-0.133,0.208-0.199c0.093-0.086,0.183-0.172,0.271-0.254
	c0.065-0.061,0.13-0.119,0.192-0.178c0.087-0.078,0.17-0.154,0.253-0.227c0.059-0.053,0.118-0.105,0.175-0.154
	c0.081-0.07,0.157-0.135,0.233-0.197c0.016-0.014,0.031-0.027,0.047-0.039c0.034-0.029,0.07-0.059,0.104-0.086
	c0.081-0.064,0.155-0.121,0.229-0.176c0.037-0.027,0.077-0.061,0.112-0.086c0.105-0.074,0.205-0.141,0.294-0.193
	c0.149-0.086,0.318-0.164,0.498-0.236c0.047-0.02,0.1-0.035,0.149-0.053c0.011-0.004,0.024-0.008,0.036-0.012
	c0.128-0.045,0.259-0.09,0.398-0.127c0.078-0.021,0.16-0.041,0.241-0.061c0.137-0.033,0.275-0.064,0.421-0.092
	c0.089-0.018,0.178-0.033,0.27-0.049c0.15-0.023,0.304-0.047,0.461-0.066c0.093-0.012,0.185-0.023,0.28-0.033
	c0.172-0.02,0.348-0.033,0.526-0.047c0.084-0.008,0.167-0.016,0.252-0.02c0.23-0.016,0.465-0.025,0.702-0.033
	c0.037-0.002,0.073-0.004,0.111-0.006c0.261-0.006,0.524-0.01,0.791-0.01c0.016,0,0.032,0,0.048,0c0.313,0,0.627,0.006,0.94,0.014
	c1.641,0.193,3.875,0.42,6.481,0.6h0.003c0.598,0.041,1.22,0.08,1.854,0.113c0.195,0.012,0.398,0.02,0.597,0.031
	c0.444,0.021,0.893,0.043,1.351,0.061c0.255,0.012,0.515,0.02,0.773,0.027c0.419,0.016,0.843,0.027,1.271,0.037
	c0.28,0.006,0.563,0.012,0.848,0.018c0.427,0.006,0.857,0.01,1.29,0.012c0.271,0.002,0.543,0.004,0.817,0.004
	c0.822-0.002,1.653-0.012,2.492-0.035c0.124-0.002,0.248-0.01,0.372-0.012c0.728-0.023,1.459-0.055,2.192-0.094
	c0.249-0.014,0.497-0.029,0.745-0.045c0.736-0.047,1.473-0.102,2.207-0.168c0.13-0.012,0.262-0.021,0.393-0.033
	c0.839-0.082,1.673-0.182,2.5-0.293c0.229-0.029,0.455-0.064,0.683-0.098c0.657-0.096,1.308-0.203,1.951-0.32
	c0.207-0.037,0.416-0.072,0.622-0.113c0.804-0.156,1.596-0.33,2.37-0.525c0.159-0.041,0.312-0.086,0.469-0.129
	c0.633-0.166,1.253-0.348,1.858-0.543c0.208-0.068,0.416-0.135,0.62-0.205c0.734-0.254,1.453-0.521,2.137-0.82
	c14.097-6.172,19.608-20.207,20.641-23.941c0.517-1.865,2.044-3.014,3.441-3.701c0.815-0.309,1.642-0.6,2.479-0.863
	c0.121-0.025,0.197-0.039,0.197-0.039c1.806,1.656,3.91,2.063,3.91,2.063c-0.003-1.203-0.201-2.23-0.461-3.068
	c0.015-0.004-0.354-1.014-0.453-1.219c-0.005-0.01-0.014-0.02-0.02-0.029l-0.012,0.002c-0.39-0.83-0.752-1.281-0.752-1.281
	c0.257-2.193-0.5-4.109-0.5-4.109c-0.246-0.354-0.511-0.674-0.786-0.971c-0.021-0.021-0.04-0.047-0.061-0.068
	c-0.266-0.279-0.546-0.529-0.835-0.76c-0.035-0.027-0.069-0.059-0.104-0.084c-0.284-0.221-0.581-0.414-0.886-0.592
	c-0.045-0.025-0.089-0.051-0.134-0.076c-0.304-0.168-0.617-0.316-0.939-0.447c-0.05-0.021-0.1-0.041-0.149-0.061
	c-0.324-0.125-0.655-0.232-0.993-0.324c-0.051-0.014-0.102-0.025-0.152-0.039c-0.344-0.088-0.694-0.16-1.051-0.217
	c-0.045-0.008-0.091-0.014-0.136-0.02c-0.367-0.055-0.738-0.098-1.115-0.125c-0.031-0.002-0.063-0.002-0.095-0.004
	c-0.395-0.025-0.794-0.041-1.197-0.041c-0.475,0-0.953,0.018-1.436,0.047c-0.031,0.002-0.063,0.004-0.094,0.006
	c-0.453,0.029-0.909,0.068-1.365,0.117c-0.049,0.006-0.098,0.012-0.146,0.016c-0.44,0.049-0.882,0.104-1.321,0.164
	c-0.062,0.008-0.122,0.018-0.184,0.025c-0.432,0.061-0.861,0.125-1.289,0.191c-0.071,0.012-0.142,0.023-0.213,0.033
	c-0.44,0.07-0.88,0.141-1.313,0.211c-0.441,0.07-0.877,0.141-1.306,0.207c-0.047,0.006-0.096,0.014-0.143,0.021
	c-0.432,0.066-0.855,0.127-1.271,0.18c-0.026,0.004-0.053,0.008-0.079,0.012c-0.438,0.055-0.867,0.104-1.283,0.139
	c-6.358,0.541-8.896,1.354-8.896,1.354c-0.329,0.029-0.643,0.066-0.965,0.098c-1.261-1.775-2.351-4.973-2.324-10.743
	c0.061-13.591,4.055-66.495,3.934-75.291C97.231,33.051,103.255,0.182,98.46,0c-0.085-0.003-0.174,0.02-0.261,0.032
	c-0.074,0.011-0.146,0.014-0.222,0.036c-0.08,0.023-0.162,0.067-0.244,0.103c-0.075,0.033-0.149,0.058-0.225,0.102
	c-0.084,0.048-0.169,0.114-0.253,0.173c-0.076,0.054-0.151,0.1-0.228,0.162c-0.085,0.07-0.172,0.157-0.258,0.238
	c-0.077,0.073-0.154,0.138-0.231,0.22c-0.087,0.09-0.175,0.197-0.262,0.297c-0.079,0.09-0.157,0.174-0.235,0.272
	c-0.089,0.11-0.178,0.235-0.267,0.354c-0.079,0.106-0.157,0.205-0.236,0.318c-0.091,0.129-0.182,0.272-0.272,0.411
	c-0.078,0.118-0.155,0.23-0.233,0.354c-0.094,0.151-0.188,0.313-0.283,0.473c-0.074,0.125-0.149,0.246-0.225,0.376
	c-0.097,0.169-0.193,0.35-0.29,0.527c-0.072,0.133-0.146,0.262-0.219,0.399c-0.096,0.182-0.191,0.373-0.287,0.562
	c-0.073,0.144-0.147,0.283-0.22,0.431c-0.095,0.191-0.188,0.39-0.282,0.586c-0.074,0.154-0.148,0.305-0.223,0.463
	c-0.095,0.203-0.188,0.413-0.283,0.62c-0.071,0.158-0.144,0.313-0.215,0.474c-0.096,0.215-0.189,0.436-0.285,0.654
	c-0.068,0.16-0.139,0.317-0.207,0.479c-0.095,0.224-0.188,0.451-0.282,0.678c-0.067,0.161-0.135,0.32-0.201,0.482
	c-0.095,0.232-0.188,0.467-0.281,0.701c-0.063,0.16-0.128,0.318-0.191,0.478c-0.093,0.237-0.185,0.475-0.276,0.713
	c-0.061,0.159-0.124,0.318-0.185,0.478c-0.086,0.227-0.17,0.453-0.255,0.68c-0.064,0.171-0.13,0.342-0.192,0.513
	c-0.082,0.22-0.16,0.438-0.24,0.657c-0.063,0.174-0.128,0.35-0.19,0.522c-0.087,0.243-0.172,0.481-0.256,0.721
	c-0.052,0.145-0.104,0.292-0.155,0.436c-0.086,0.245-0.169,0.485-0.252,0.726c-0.048,0.137-0.097,0.277-0.143,0.413
	c-0.073,0.212-0.143,0.418-0.213,0.626c-0.054,0.158-0.109,0.32-0.161,0.475c-0.089,0.264-0.173,0.52-0.258,0.774
	c-0.029,0.087-0.06,0.179-0.088,0.265c-0.1,0.302-0.195,0.595-0.288,0.881c-0.012,0.037-0.024,0.077-0.036,0.113
	c-0.095,0.291-0.184,0.569-0.271,0.841c-0.009,0.03-0.02,0.062-0.028,0.091c-0.081,0.255-0.157,0.496-0.231,0.731
	c-0.013,0.042-0.027,0.087-0.04,0.127c-0.061,0.195-0.116,0.375-0.172,0.555c-0.022,0.073-0.048,0.153-0.069,0.223
	c-0.111,0.362-0.206,0.676-0.293,0.963c-0.088,0.291-0.167,0.554-0.227,0.757c-0.008,0.026-0.013,0.041-0.02,0.065
	c-0.105,0.358-0.165,0.563-0.165,0.563s2.786-14.936,1.155-16.742c-0.069-0.077-0.166-0.148-0.272-0.216
	c-0.022-0.014-0.044-0.027-0.067-0.041c-0.111-0.063-0.237-0.12-0.38-0.168c-0.024-0.008-0.051-0.015-0.076-0.022
	c-0.138-0.042-0.287-0.078-0.449-0.104c-0.023-0.004-0.046-0.01-0.071-0.013c-0.177-0.025-0.367-0.038-0.567-0.041
	c-0.069-0.001-0.139-0.001-0.211,0.001c-0.045,0.001-0.09,0.002-0.137,0.004c-0.113,0.007-0.229,0.017-0.348,0.032
	c-0.025,0.003-0.05,0.004-0.076,0.008c-0.145,0.02-0.293,0.046-0.443,0.078c-0.042,0.009-0.084,0.021-0.126,0.03
	c-0.112,0.026-0.227,0.056-0.342,0.09c-0.054,0.016-0.107,0.033-0.161,0.05c-0.111,0.036-0.224,0.075-0.336,0.118
	c-0.053,0.02-0.105,0.039-0.158,0.061c-0.143,0.058-0.287,0.122-0.433,0.193c-0.021,0.01-0.043,0.019-0.064,0.029
	c-0.168,0.083-0.338,0.176-0.508,0.277c-0.045,0.026-0.09,0.056-0.135,0.084c-0.127,0.078-0.254,0.161-0.382,0.249
	c-0.056,0.039-0.112,0.079-0.168,0.12c-0.122,0.089-0.244,0.184-0.367,0.282c-0.053,0.043-0.105,0.084-0.158,0.129
	c-0.157,0.132-0.313,0.272-0.469,0.421c-0.017,0.016-0.032,0.028-0.048,0.044c-0.172,0.167-0.343,0.346-0.514,0.535
	c-0.045,0.05-0.09,0.104-0.135,0.156c-0.125,0.144-0.249,0.292-0.372,0.449c-0.055,0.069-0.109,0.14-0.164,0.212
	c-0.117,0.155-0.234,0.318-0.35,0.485c-0.05,0.072-0.1,0.142-0.149,0.216c-0.15,0.227-0.299,0.462-0.445,0.711
	c-0.011,0.019-0.021,0.035-0.032,0.054c-0.157,0.269-0.311,0.555-0.462,0.851c-0.041,0.081-0.081,0.167-0.121,0.25
	c-0.109,0.221-0.216,0.448-0.32,0.684c-0.048,0.107-0.095,0.216-0.142,0.326c-0.1,0.235-0.196,0.478-0.292,0.727
	c-0.042,0.108-0.084,0.215-0.125,0.326c-0.125,0.342-0.247,0.695-0.363,1.064c-0.007,0.02-0.014,0.038-0.02,0.058
	c-0.123,0.39-0.239,0.799-0.352,1.221c-0.033,0.122-0.063,0.25-0.095,0.375c-0.078,0.308-0.154,0.624-0.227,0.948
	c-0.034,0.154-0.067,0.31-0.101,0.468c-0.068,0.327-0.133,0.663-0.195,1.006c-0.026,0.15-0.055,0.298-0.081,0.452
	c-0.082,0.483-0.158,0.978-0.228,1.493c-0.002,0.016-0.004,0.03-0.007,0.045c-0.069,0.53-0.131,1.082-0.187,1.646
	c-0.018,0.171-0.031,0.35-0.047,0.524c-0.036,0.407-0.068,0.821-0.097,1.246c-0.015,0.209-0.027,0.421-0.039,0.635
	c-0.019,0.335-0.032,0.682-0.046,1.028c-0.005,0.099-0.01,0.194-0.014,0.294c-0.007,0.199-0.016,0.395-0.021,0.597
	c-0.004,0.165-0.004,0.341-0.007,0.509c-0.002,0.081-0.002,0.165-0.004,0.246c-0.007,0.417-0.018,0.826-0.018,1.258
	c-0.013-0.231-0.028-0.47-0.046-0.711c-0.004-0.06-0.009-0.121-0.013-0.181c-0.017-0.213-0.033-0.429-0.053-0.647
	c-0.003-0.037-0.006-0.073-0.009-0.11c-0.022-0.254-0.049-0.51-0.076-0.768c-0.005-0.049-0.011-0.099-0.017-0.148
	c-0.024-0.218-0.051-0.438-0.079-0.657c-0.007-0.053-0.013-0.105-0.02-0.157c-0.035-0.261-0.072-0.521-0.113-0.78
	c-0.004-0.026-0.009-0.052-0.014-0.079c-0.037-0.232-0.077-0.461-0.12-0.688c-0.01-0.055-0.021-0.11-0.031-0.165
	c-0.098-0.501-0.209-0.987-0.336-1.448c-0.014-0.05-0.028-0.1-0.042-0.149c-0.057-0.198-0.116-0.39-0.18-0.577
	c-0.011-0.031-0.021-0.063-0.031-0.094c-0.073-0.21-0.15-0.412-0.232-0.605c-0.016-0.037-0.032-0.072-0.049-0.108
	c-0.069-0.158-0.143-0.308-0.219-0.451c-0.02-0.038-0.039-0.077-0.06-0.113c-0.094-0.166-0.19-0.323-0.293-0.465
	c-0.012-0.016-0.023-0.029-0.035-0.044c-0.092-0.123-0.188-0.234-0.287-0.335c-0.028-0.029-0.058-0.058-0.087-0.085
	c-0.109-0.102-0.222-0.193-0.34-0.268c-0.006-0.004-0.012-0.01-0.019-0.014c-0.124-0.076-0.256-0.132-0.391-0.176
	c-0.035-0.011-0.07-0.019-0.106-0.028c-0.113-0.029-0.23-0.045-0.353-0.05c-0.031-0.001-0.062-0.006-0.094-0.006
	c-0.104,0.001-0.213,0.016-0.322,0.036c-0.025,0.004-0.048,0.004-0.073,0.01c-0.135,0.03-0.275,0.075-0.419,0.134
	c-0.043,0.018-0.088,0.043-0.132,0.063c-0.104,0.048-0.208,0.1-0.316,0.163c-0.058,0.034-0.118,0.076-0.178,0.115
	c-0.099,0.064-0.197,0.131-0.3,0.208c-0.065,0.049-0.132,0.104-0.199,0.159c-0.102,0.083-0.205,0.173-0.311,0.27
	c-0.069,0.063-0.139,0.129-0.21,0.198c-0.109,0.106-0.222,0.223-0.335,0.343c-0.071,0.076-0.142,0.149-0.214,0.231
	c-0.126,0.141-0.255,0.295-0.386,0.454c-0.063,0.077-0.126,0.148-0.19,0.229c-0.197,0.248-0.399,0.512-0.607,0.8
	c-4.453,6.166-5.3,13.314-5.1,18.719c-0.064-0.347-0.132-0.695-0.201-1.045c-0.022-0.114-0.047-0.229-0.07-0.343
	c-0.048-0.236-0.096-0.471-0.146-0.706c-0.029-0.138-0.061-0.274-0.091-0.411c-0.021-0.093-0.041-0.186-0.063-0.278
	c-0.026-0.117-0.052-0.235-0.078-0.352c-0.034-0.146-0.069-0.291-0.104-0.437c-0.048-0.197-0.095-0.393-0.144-0.587
	c-0.037-0.148-0.075-0.295-0.114-0.441c-0.049-0.187-0.099-0.373-0.148-0.556c-0.04-0.145-0.081-0.288-0.122-0.43
	c-0.052-0.18-0.104-0.357-0.158-0.532c-0.042-0.136-0.083-0.271-0.126-0.404c-0.056-0.174-0.113-0.343-0.171-0.51
	c-0.043-0.125-0.086-0.251-0.13-0.372c-0.061-0.169-0.124-0.33-0.188-0.49c-0.042-0.107-0.083-0.218-0.126-0.321
	c-0.075-0.18-0.152-0.347-0.229-0.513c-0.034-0.072-0.066-0.15-0.101-0.22c-0.111-0.228-0.226-0.442-0.343-0.639
	c-0.028-0.049-0.06-0.088-0.089-0.136c-0.037-0.06-0.076-0.114-0.114-0.171c-0.052-0.077-0.104-0.162-0.156-0.233
	c-0.045-0.061-0.092-0.109-0.139-0.164c-0.078-0.094-0.156-0.187-0.236-0.265c-0.052-0.051-0.105-0.09-0.158-0.134
	c-0.076-0.063-0.153-0.125-0.232-0.173c-0.056-0.034-0.113-0.06-0.17-0.086c-0.078-0.037-0.156-0.067-0.236-0.088
	c-0.06-0.015-0.118-0.024-0.179-0.03c-0.089-0.009-0.179-0.01-0.271,0.001c-0.04,0.005-0.08,0.008-0.121,0.017
	c-0.136,0.031-0.274,0.078-0.415,0.158c-4.358,2.468-10.674,9.066-5.189,25.198c0,0-0.018-0.037-0.033-0.07
	c-0.007-0.014-0.018-0.037-0.026-0.056c-0.023-0.049-0.058-0.118-0.096-0.195c-0.013-0.026-0.023-0.049-0.038-0.078
	c-0.055-0.111-0.121-0.243-0.198-0.393c-0.012-0.022-0.025-0.049-0.037-0.072c-0.068-0.131-0.145-0.276-0.227-0.43
	c-0.025-0.047-0.052-0.097-0.078-0.146c-0.089-0.165-0.186-0.339-0.288-0.523c-0.018-0.031-0.033-0.06-0.052-0.092
	c-0.12-0.214-0.251-0.44-0.389-0.672c-0.028-0.048-0.06-0.098-0.088-0.146c-0.114-0.19-0.234-0.385-0.358-0.583
	c-0.039-0.061-0.077-0.122-0.116-0.184c-0.313-0.492-0.655-0.995-1.02-1.487c-0.045-0.061-0.091-0.121-0.136-0.181
	c-0.147-0.196-0.299-0.388-0.453-0.577c-0.044-0.053-0.086-0.107-0.13-0.16c-0.195-0.233-0.394-0.46-0.597-0.675
	c-0.026-0.028-0.053-0.053-0.08-0.081c-0.175-0.183-0.354-0.356-0.533-0.521c-0.057-0.051-0.112-0.101-0.169-0.149
	c-0.177-0.154-0.355-0.297-0.535-0.429c-0.035-0.026-0.07-0.056-0.106-0.081c-0.213-0.149-0.427-0.278-0.643-0.389
	c-0.05-0.026-0.1-0.045-0.149-0.068c-0.17-0.08-0.341-0.146-0.512-0.198c-0.061-0.018-0.121-0.037-0.182-0.052
	c-0.212-0.051-0.425-0.086-0.636-0.087c-0.006,0-0.012-0.001-0.018-0.001s-0.013,0.001-0.019,0.001
	c-0.15,0.001-0.3,0.021-0.449,0.05c-0.033,0.006-0.066,0.012-0.1,0.02c-0.151,0.037-0.302,0.086-0.451,0.154
	c-0.025,0.011-0.05,0.026-0.074,0.038c-0.139,0.068-0.276,0.15-0.413,0.248c-0.022,0.016-0.045,0.029-0.067,0.045
	c-0.147,0.111-0.293,0.243-0.438,0.39c-0.03,0.031-0.061,0.064-0.09,0.096c-0.148,0.16-0.295,0.333-0.438,0.534
	c0,0-0.001,0.001-0.001,0.001c-0.143,0.199-0.282,0.427-0.421,0.67c-0.028,0.05-0.058,0.1-0.086,0.152
	c-0.135,0.247-0.268,0.513-0.397,0.805c-0.021,0.048-0.043,0.101-0.064,0.15c-0.118,0.274-0.234,0.568-0.349,0.881
	c-0.021,0.056-0.041,0.108-0.062,0.166c-0.122,0.348-0.242,0.724-0.358,1.12c-0.026,0.087-0.052,0.178-0.077,0.268
	c-0.118,0.419-0.234,0.854-0.347,1.328c-0.572,2.433-0.698,4.808-0.508,7.094c-0.123-0.182-0.25-0.36-0.38-0.536
	c-0.042-0.056-0.085-0.109-0.127-0.165c-0.091-0.119-0.183-0.236-0.277-0.351c-0.05-0.061-0.102-0.12-0.152-0.179
	c-0.091-0.104-0.183-0.206-0.275-0.305c-0.053-0.056-0.105-0.111-0.158-0.165c-0.102-0.101-0.203-0.195-0.307-0.288
	c-0.046-0.041-0.092-0.084-0.138-0.124c-0.15-0.126-0.303-0.245-0.457-0.347c-0.005-0.003-0.009-0.005-0.013-0.008
	c-0.149-0.098-0.3-0.182-0.451-0.254c-0.05-0.024-0.1-0.041-0.149-0.062c-0.108-0.045-0.218-0.085-0.327-0.115
	c-0.059-0.016-0.117-0.028-0.176-0.04c-0.104-0.021-0.208-0.033-0.313-0.038c-0.07-0.004-0.14-0.009-0.209-0.005
	c-0.046,0.002-0.091,0.006-0.137,0.012c-0.094,0.011-0.188,0.03-0.282,0.054c-0.042,0.011-0.083,0.019-0.125,0.033
	c-0.129,0.042-0.259,0.095-0.389,0.166c-0.005,0.002-0.009,0.003-0.014,0.006c-0.134,0.074-0.268,0.167-0.401,0.273
	c-0.04,0.031-0.079,0.069-0.119,0.103c-0.095,0.083-0.19,0.172-0.285,0.272c-0.046,0.048-0.091,0.099-0.137,0.151
	c-0.094,0.107-0.187,0.225-0.279,0.35c-0.041,0.055-0.082,0.107-0.123,0.167c-0.132,0.19-0.263,0.394-0.394,0.624
	c-3.906,6.88-3.287,13.933,2.617,21.883c-0.082-0.108-0.177-0.231-0.275-0.357c-0.024-0.032-0.05-0.064-0.076-0.098
	c-0.103-0.132-0.212-0.271-0.33-0.418c-0.014-0.018-0.029-0.037-0.044-0.055c-0.105-0.131-0.218-0.269-0.333-0.409
	c-0.034-0.042-0.068-0.083-0.104-0.126c-0.132-0.159-0.269-0.323-0.411-0.49c-0.024-0.029-0.051-0.059-0.075-0.088
	c-0.127-0.148-0.258-0.298-0.392-0.45c-0.037-0.042-0.073-0.084-0.111-0.126c-0.154-0.174-0.313-0.349-0.475-0.525
	c-0.034-0.036-0.068-0.072-0.103-0.109c-0.144-0.155-0.29-0.309-0.439-0.462c-0.034-0.036-0.069-0.072-0.104-0.108
	c-0.173-0.176-0.348-0.351-0.524-0.522c-0.038-0.037-0.076-0.073-0.114-0.109c-0.16-0.153-0.321-0.304-0.484-0.451
	c-0.028-0.026-0.057-0.052-0.086-0.078c-0.183-0.163-0.366-0.321-0.551-0.474c-0.04-0.034-0.081-0.066-0.122-0.099
	c-0.174-0.141-0.348-0.277-0.521-0.405c-0.018-0.013-0.035-0.027-0.053-0.04c-0.186-0.136-0.371-0.261-0.557-0.38
	c-0.041-0.027-0.083-0.052-0.124-0.078c-0.188-0.116-0.373-0.225-0.557-0.319c-0.001,0-0.001,0-0.001,0
	c-0.183-0.093-0.362-0.171-0.54-0.24c-0.041-0.016-0.082-0.031-0.122-0.045c-0.177-0.063-0.352-0.117-0.521-0.152
	c-0.013-0.002-0.024-0.003-0.037-0.006c-0.158-0.031-0.313-0.045-0.465-0.049c-0.046-0.001-0.093-0.004-0.138-0.002
	c-0.051,0.001-0.101,0.006-0.15,0.011c-0.062,0.006-0.123,0.015-0.184,0.026c-0.048,0.009-0.095,0.02-0.142,0.032
	c-0.06,0.016-0.119,0.036-0.178,0.058c-0.045,0.017-0.089,0.034-0.133,0.054c-0.058,0.027-0.114,0.059-0.17,0.093
	c-0.042,0.024-0.083,0.049-0.124,0.077c-0.056,0.039-0.108,0.084-0.162,0.13c-0.038,0.033-0.076,0.063-0.113,0.1
	c-0.054,0.053-0.105,0.115-0.156,0.176c-0.033,0.039-0.067,0.075-0.099,0.117c-0.055,0.072-0.105,0.155-0.156,0.237
	c-0.026,0.042-0.054,0.078-0.078,0.122c-0.074,0.131-0.145,0.273-0.211,0.428c-2.356,5.53-1.923,12.072,6.536,20.525
	c-0.17-0.15-0.349-0.305-0.53-0.46c-0.061-0.052-0.123-0.104-0.185-0.157c-0.13-0.109-0.263-0.221-0.397-0.334
	c-0.069-0.058-0.139-0.115-0.209-0.174c-0.151-0.125-0.307-0.25-0.464-0.377c-0.051-0.041-0.101-0.082-0.152-0.123
	c-0.206-0.165-0.416-0.33-0.63-0.496c-0.06-0.046-0.121-0.092-0.182-0.139c-0.159-0.121-0.32-0.243-0.483-0.364
	c-0.079-0.059-0.158-0.116-0.237-0.175c-0.158-0.115-0.316-0.23-0.477-0.344c-0.073-0.053-0.146-0.104-0.22-0.156
	c-0.229-0.16-0.459-0.318-0.691-0.473c-0.036-0.023-0.074-0.047-0.11-0.071c-0.199-0.132-0.399-0.261-0.601-0.386
	c-0.077-0.049-0.154-0.096-0.231-0.143c-0.168-0.103-0.336-0.203-0.505-0.301c-0.079-0.047-0.158-0.093-0.237-0.138
	c-0.199-0.112-0.399-0.222-0.599-0.327c-0.042-0.021-0.083-0.045-0.124-0.066c-0.237-0.123-0.475-0.238-0.71-0.348
	c-0.068-0.031-0.136-0.06-0.203-0.09c-0.173-0.077-0.345-0.151-0.516-0.22c-0.079-0.032-0.157-0.063-0.236-0.092
	c-0.174-0.066-0.347-0.127-0.519-0.184c-0.063-0.021-0.125-0.043-0.187-0.063c-0.229-0.07-0.456-0.133-0.679-0.184
	c-0.046-0.01-0.09-0.017-0.135-0.026c-0.179-0.038-0.355-0.069-0.53-0.093c-0.07-0.01-0.14-0.017-0.21-0.023
	c-0.153-0.016-0.305-0.025-0.454-0.029c-0.063-0.001-0.128-0.004-0.191-0.004c-0.22,0.003-0.437,0.017-0.646,0.05
	c-0.033,0.005-0.065,0.015-0.098,0.021c-0.178,0.032-0.351,0.077-0.519,0.132c-0.057,0.019-0.112,0.038-0.167,0.06
	c-0.174,0.066-0.342,0.145-0.503,0.24c-0.021,0.012-0.044,0.021-0.064,0.034c-0.178,0.109-0.346,0.242-0.508,0.389
	c-0.043,0.04-0.085,0.084-0.127,0.126c-0.126,0.126-0.247,0.265-0.361,0.417c-0.034,0.045-0.07,0.087-0.104,0.135
	c-0.139,0.199-0.268,0.418-0.387,0.659c-0.024,0.048-0.045,0.104-0.068,0.155c-0.095,0.205-0.182,0.428-0.263,0.664
	c-0.026,0.08-0.054,0.16-0.079,0.244c-0.092,0.303-0.177,0.621-0.246,0.973c-1.286,6.59,3.379,10.475,7.818,12.637
	c-0.429-0.081-0.862-0.144-1.293-0.191c-0.045-0.006-0.09-0.012-0.135-0.017c-0.41-0.042-0.817-0.063-1.218-0.067
	c-0.088,0-0.177-0.004-0.264-0.002c-0.072,0-0.144,0.002-0.216,0.005c-0.159,0.005-0.317,0.015-0.475,0.028
	c-0.064,0.005-0.13,0.01-0.193,0.016c-0.215,0.022-0.427,0.051-0.634,0.089c-0.017,0.003-0.031,0.007-0.047,0.011
	c-0.19,0.036-0.377,0.081-0.56,0.133c-0.061,0.017-0.12,0.037-0.18,0.055c-0.141,0.045-0.277,0.094-0.412,0.146
	c-0.06,0.024-0.119,0.048-0.178,0.074c-0.155,0.068-0.306,0.143-0.451,0.227c-0.028,0.016-0.058,0.028-0.085,0.045
	c-0.171,0.102-0.333,0.215-0.489,0.338c-0.042,0.033-0.081,0.069-0.122,0.104c-0.113,0.097-0.224,0.199-0.328,0.309
	c-0.046,0.047-0.09,0.096-0.134,0.145c-0.102,0.117-0.198,0.242-0.29,0.372c-0.031,0.045-0.065,0.087-0.096,0.133
	c-0.117,0.179-0.226,0.37-0.323,0.575c-0.019,0.039-0.033,0.084-0.052,0.125c-0.076,0.17-0.146,0.35-0.207,0.539
	c-0.025,0.074-0.047,0.152-0.069,0.229c-0.05,0.176-0.094,0.357-0.133,0.548c-0.016,0.08-0.033,0.157-0.048,0.241
	c-0.046,0.271-0.084,0.555-0.105,0.857c-0.303,4.246,3.764,6.59,8.608,7.887c-4.172,0.512-7.17,2.406-5.559,7.314
	c1.451,4.42,5.636,6.027,10.393,6.273c-0.944,1.047-1.205,2.406-0.366,4.162c0.159,0.334,0.354,0.635,0.563,0.922
	c0.054,0.074,0.109,0.145,0.167,0.215c0.205,0.256,0.426,0.494,0.67,0.709c0.02,0.018,0.035,0.037,0.054,0.053
	c0.265,0.229,0.556,0.428,0.86,0.613c0.078,0.049,0.158,0.094,0.239,0.139c0.278,0.156,0.569,0.299,0.875,0.426
	c0.043,0.018,0.082,0.037,0.126,0.055c0.346,0.137,0.71,0.25,1.085,0.352c0.098,0.025,0.198,0.049,0.298,0.074
	c0.327,0.078,0.662,0.146,1.006,0.203c0.069,0.012,0.136,0.025,0.206,0.035c0.402,0.061,0.816,0.104,1.238,0.135
	c0.113,0.008,0.229,0.014,0.344,0.02c0.354,0.02,0.712,0.033,1.076,0.035c0.087,0,0.173,0.004,0.261,0.004
	c0.669-0.002,1.352-0.031,2.04-0.082c0.037-0.002,0.074-0.004,0.11-0.006c0.726-0.057,1.457-0.137,2.187-0.236
	c1.693,0.975,4.52,2.229,8.653,2.959c-1.289,0.699-2.557,1.555-3.746,2.451c-2.935-1.033-6.655-2.346-10.016-3.533
	c-0.485-0.172-0.983-0.342-1.485-0.51c-0.147-0.049-0.296-0.098-0.444-0.146c-0.362-0.117-0.727-0.234-1.093-0.35
	c-0.174-0.055-0.349-0.107-0.524-0.16c-0.354-0.107-0.709-0.211-1.064-0.313c-0.169-0.049-0.338-0.098-0.507-0.145
	c-0.412-0.113-0.822-0.221-1.23-0.324c-0.104-0.025-0.209-0.055-0.313-0.08c-0.507-0.123-1.008-0.236-1.5-0.338
	c-0.118-0.025-0.232-0.045-0.35-0.068c-0.368-0.072-0.731-0.139-1.087-0.195c-0.163-0.025-0.321-0.049-0.481-0.07
	c-0.307-0.045-0.606-0.08-0.9-0.111c-0.159-0.016-0.317-0.031-0.473-0.043c-0.3-0.023-0.587-0.035-0.868-0.041
	c-0.135-0.004-0.274-0.012-0.403-0.01c-0.09,0-0.175,0.006-0.263,0.008c-0.222,0.008-0.436,0.021-0.642,0.043
	c-0.093,0.01-0.184,0.02-0.273,0.031c-0.209,0.029-0.407,0.068-0.597,0.113c-0.06,0.014-0.125,0.025-0.183,0.041
	c-0.238,0.066-0.46,0.146-0.661,0.244c-0.041,0.02-0.075,0.045-0.115,0.066c-0.153,0.082-0.296,0.174-0.423,0.277
	c-0.052,0.041-0.098,0.086-0.145,0.131c-0.104,0.102-0.197,0.213-0.278,0.332c-0.034,0.049-0.071,0.098-0.102,0.15
	c-0.099,0.178-0.181,0.367-0.229,0.58c0,0-0.039-0.008-0.068-0.014c-0.015-0.002-0.03-0.004-0.05-0.008
	c-0.06-0.012-0.148-0.027-0.251-0.045c-0.022-0.004-0.046-0.01-0.07-0.014c-0.115-0.02-0.251-0.041-0.405-0.064
	c-0.024-0.004-0.053-0.01-0.078-0.014c-0.167-0.025-0.349-0.051-0.551-0.078c-0.003,0-0.007-0.002-0.011-0.002
	c-0.198-0.025-0.416-0.053-0.641-0.078c-0.039-0.004-0.077-0.008-0.117-0.012c-0.221-0.025-0.453-0.047-0.691-0.066
	c-0.001,0-0.003,0-0.005,0c-0.046-0.004-0.093-0.008-0.14-0.012c-0.244-0.018-0.495-0.035-0.75-0.047
	c-0.04-0.002-0.081-0.002-0.121-0.004c-0.264-0.012-0.53-0.018-0.799-0.02c-0.01,0-0.02,0-0.03,0c-0.182,0-0.364,0.004-0.546,0.01
	c-0.06,0.002-0.119,0.006-0.179,0.008c-0.123,0.006-0.245,0.012-0.367,0.021c-0.071,0.004-0.141,0.012-0.212,0.018
	c-0.108,0.01-0.217,0.02-0.323,0.033c-0.074,0.008-0.147,0.018-0.221,0.027c-0.101,0.016-0.2,0.029-0.299,0.047
	c-0.073,0.012-0.146,0.025-0.217,0.041c-0.096,0.018-0.189,0.039-0.282,0.061c-0.069,0.018-0.138,0.035-0.205,0.053
	c-0.091,0.025-0.179,0.053-0.267,0.082c-0.063,0.02-0.127,0.041-0.188,0.063c-0.089,0.033-0.173,0.07-0.257,0.107
	c-0.052,0.023-0.106,0.045-0.157,0.07c-0.107,0.053-0.208,0.113-0.305,0.174c-0.021,0.014-0.045,0.025-0.064,0.039
	c-0.113,0.076-0.217,0.16-0.313,0.248c-0.033,0.031-0.061,0.066-0.092,0.1c-0.06,0.063-0.117,0.125-0.168,0.193
	c-0.03,0.043-0.056,0.088-0.083,0.133c-0.041,0.066-0.08,0.133-0.113,0.205c-0.023,0.049-0.042,0.102-0.061,0.154
	c-0.026,0.074-0.049,0.15-0.067,0.23c-0.013,0.057-0.022,0.115-0.031,0.176c-0.012,0.084-0.017,0.17-0.02,0.26
	c-0.002,0.063-0.003,0.127,0,0.193c0.005,0.096,0.019,0.197,0.033,0.301c0.011,0.066,0.018,0.133,0.032,0.203
	c0.024,0.117,0.062,0.244,0.1,0.369c0.02,0.064,0.033,0.123,0.056,0.189c0.068,0.195,0.15,0.398,0.252,0.613
	c0,0-0.022-0.006-0.059-0.014c-0.008-0.002-0.024-0.006-0.034-0.008c-0.035-0.008-0.078-0.02-0.133-0.031
	c-0.024-0.006-0.06-0.012-0.088-0.018c-0.053-0.012-0.108-0.023-0.174-0.035c-0.039-0.008-0.086-0.016-0.129-0.023
	c-0.067-0.012-0.138-0.025-0.214-0.037c-0.053-0.008-0.109-0.018-0.166-0.025c-0.078-0.012-0.159-0.023-0.243-0.033
	c-0.063-0.008-0.129-0.016-0.194-0.023c-0.088-0.01-0.178-0.018-0.27-0.027c-0.07-0.006-0.143-0.01-0.215-0.016
	c-0.094-0.006-0.189-0.01-0.287-0.014c-0.075-0.004-0.151-0.006-0.229-0.008c-0.088,0-0.177,0.002-0.266,0.002
	c-0.106,0.002-0.213,0.006-0.32,0.014c-0.087,0.004-0.174,0.012-0.261,0.02c-0.106,0.01-0.212,0.023-0.316,0.039
	c-0.087,0.014-0.173,0.027-0.258,0.045c-0.104,0.021-0.204,0.047-0.305,0.072c-0.083,0.023-0.166,0.047-0.247,0.074
	c-0.098,0.031-0.191,0.072-0.284,0.113c-0.076,0.033-0.153,0.064-0.226,0.104c-0.091,0.049-0.174,0.105-0.258,0.162
	c-0.065,0.045-0.133,0.086-0.193,0.137c-0.082,0.068-0.152,0.148-0.225,0.227c-0.051,0.055-0.105,0.105-0.151,0.166
	c-0.072,0.098-0.129,0.209-0.187,0.32c-0.031,0.061-0.069,0.111-0.096,0.176c-0.076,0.184-0.136,0.385-0.172,0.609
	c-0.208,1.283,1.11,2.199,2.848,2.846c-2.062,0.07-3.873,0.805-4.27,3.039c-0.251,1.412,0.522,2.314,1.821,2.871
	c-1.713,0.67-2.778,1.896-2.42,4.021c0.328,1.939,1.78,2.893,3.75,3.244c-1.934,1.016-3.254,2.377-3.259,4.207
	c0,0.178,0.02,0.338,0.051,0.492c0.009,0.045,0.021,0.086,0.033,0.131c0.028,0.107,0.065,0.209,0.11,0.305
	c0.018,0.039,0.034,0.078,0.055,0.113c0.066,0.119,0.143,0.23,0.233,0.328c0.004,0.004,0.006,0.008,0.009,0.01
	c0.096,0.102,0.209,0.189,0.33,0.271c0.035,0.023,0.074,0.043,0.111,0.064c0.095,0.057,0.196,0.105,0.305,0.15
	c0.044,0.02,0.086,0.037,0.132,0.055c0.141,0.049,0.29,0.094,0.449,0.129c0.013,0.002,0.024,0.008,0.037,0.01
	c0.175,0.037,0.362,0.063,0.557,0.082c0.056,0.006,0.113,0.008,0.169,0.012c0.149,0.012,0.303,0.018,0.462,0.02
	c0.063,0.002,0.127,0.002,0.192,0.002c0.205-0.002,0.416-0.008,0.636-0.023c0.017-0.002,0.031-0.002,0.048-0.002
	c0.238-0.018,0.486-0.045,0.74-0.076c0.07-0.008,0.142-0.018,0.213-0.027c0.194-0.027,0.393-0.057,0.594-0.092
	c0.075-0.012,0.15-0.025,0.227-0.039c0.27-0.047,0.543-0.1,0.823-0.16c-0.815,0.838-1.199,1.729-0.917,2.662
	c0.063,0.205,0.155,0.381,0.261,0.543c0.025,0.041,0.052,0.078,0.08,0.115c0.114,0.152,0.242,0.291,0.395,0.406
	c0.012,0.008,0.026,0.014,0.038,0.023c0.146,0.105,0.313,0.193,0.492,0.268c0.044,0.02,0.089,0.039,0.136,0.057
	c0.196,0.07,0.404,0.131,0.63,0.172c0.024,0.004,0.052,0.006,0.077,0.01c0.213,0.033,0.439,0.055,0.675,0.064
	c0.056,0.002,0.109,0.006,0.166,0.006c0.116,0.002,0.243-0.006,0.364-0.01c0.288-0.006,0.587-0.027,0.898-0.063
	c0.12-0.014,0.238-0.025,0.361-0.043c0.415-0.059,0.841-0.129,1.284-0.227c-0.593,0.746-0.822,1.563-0.479,2.449
	c0.081,0.209,0.196,0.381,0.333,0.527c0.047,0.051,0.108,0.082,0.161,0.125c0.103,0.084,0.207,0.166,0.332,0.227
	c0.075,0.035,0.162,0.057,0.244,0.084c0.126,0.041,0.253,0.08,0.395,0.104c0.098,0.016,0.203,0.021,0.309,0.027
	c0.139,0.01,0.281,0.014,0.433,0.008c0.177-0.006,0.365-0.025,0.559-0.051c0.136-0.018,0.271-0.031,0.414-0.057
	c0.21-0.039,0.432-0.094,0.655-0.148c0.145-0.037,0.284-0.066,0.435-0.109c0.254-0.072,0.521-0.162,0.788-0.254
	c0.133-0.045,0.26-0.082,0.396-0.133c0.409-0.148,0.828-0.313,1.258-0.496c-1.373,1.26-2.293,2.537-2.333,3.721
	c-0.005,0.15,0.016,0.277,0.047,0.391c0.01,0.031,0.022,0.061,0.034,0.088c0.032,0.08,0.075,0.15,0.129,0.209
	c0.017,0.02,0.031,0.041,0.051,0.059c0.076,0.066,0.167,0.119,0.274,0.154c0.02,0.006,0.045,0.008,0.065,0.014
	c0.095,0.023,0.199,0.037,0.313,0.041c0.042,0.002,0.085,0.002,0.13,0c0.106-0.004,0.221-0.016,0.342-0.033
	c0.041-0.006,0.079-0.01,0.121-0.018c0.165-0.029,0.34-0.07,0.527-0.125c0.041-0.012,0.086-0.027,0.129-0.041
	c0.151-0.047,0.31-0.1,0.474-0.16c0.069-0.025,0.14-0.053,0.21-0.08c0.156-0.061,0.317-0.127,0.482-0.197
	c0.066-0.029,0.132-0.057,0.2-0.086c0.23-0.104,0.467-0.213,0.713-0.332c0.039-0.02,0.08-0.041,0.12-0.061
	c0.213-0.105,0.431-0.217,0.653-0.334c0.085-0.045,0.172-0.092,0.258-0.137c0.189-0.102,0.381-0.207,0.575-0.314
	c0.087-0.049,0.174-0.096,0.262-0.145c0.274-0.156,0.553-0.314,0.836-0.482c-0.737,1.135-1.073,2.281-0.779,3.385
	c0.047,0.174,0.113,0.32,0.189,0.451c0.022,0.039,0.051,0.072,0.076,0.107c0.061,0.084,0.128,0.158,0.202,0.223
	c0.034,0.027,0.069,0.057,0.105,0.082c0.087,0.057,0.183,0.104,0.284,0.139c0.031,0.01,0.06,0.027,0.092,0.035
	c0.138,0.037,0.286,0.057,0.446,0.059c0.036,0,0.076-0.006,0.113-0.008c0.139-0.004,0.285-0.021,0.438-0.049
	c0.059-0.01,0.118-0.021,0.179-0.037c0.158-0.035,0.324-0.082,0.496-0.141c0.044-0.014,0.086-0.025,0.132-0.041
	c0.217-0.078,0.444-0.172,0.68-0.279c0.059-0.025,0.12-0.059,0.18-0.086c0.188-0.09,0.379-0.186,0.575-0.291
	c0.074-0.041,0.148-0.08,0.224-0.123c0.228-0.127,0.459-0.262,0.696-0.406c0.032-0.02,0.063-0.037,0.096-0.057
	c0.271-0.168,0.551-0.35,0.835-0.539c0.072-0.049,0.146-0.1,0.219-0.15c0.222-0.15,0.445-0.307,0.671-0.467
	c0.081-0.059,0.16-0.115,0.241-0.174c0.293-0.211,0.588-0.43,0.887-0.656c-0.549,0.99-0.832,1.936-0.714,2.771
	c0.021,0.15,0.058,0.279,0.106,0.389c0.019,0.041,0.048,0.066,0.069,0.102c0.037,0.059,0.07,0.123,0.116,0.168
	c0.031,0.029,0.074,0.043,0.109,0.066c0.049,0.031,0.094,0.068,0.149,0.088c0.043,0.016,0.096,0.014,0.144,0.021
	c0.061,0.012,0.118,0.027,0.186,0.025c0.02,0,0.041-0.004,0.06-0.006c0.094-0.004,0.192-0.018,0.298-0.041
	c0.04-0.01,0.082-0.021,0.124-0.033c0.096-0.025,0.195-0.059,0.3-0.098c0.041-0.016,0.081-0.029,0.124-0.049
	c0.145-0.061,0.294-0.129,0.452-0.211c0.025-0.014,0.053-0.031,0.078-0.045c0.138-0.072,0.279-0.154,0.425-0.242
	c0.057-0.035,0.114-0.072,0.172-0.107c0.125-0.08,0.254-0.164,0.384-0.252c0.059-0.039,0.115-0.076,0.174-0.117
	c0.184-0.129,0.37-0.262,0.563-0.406c0.031-0.023,0.063-0.049,0.095-0.072c0.167-0.125,0.337-0.258,0.509-0.395
	c0.07-0.055,0.142-0.113,0.212-0.17c0.144-0.115,0.289-0.234,0.437-0.357c0.069-0.057,0.138-0.115,0.208-0.174
	c0.204-0.172,0.41-0.348,0.619-0.531c0.038-0.033,0.076-0.068,0.114-0.102c0.186-0.162,0.373-0.33,0.561-0.5
	c0.078-0.068,0.155-0.141,0.233-0.211c0.153-0.141,0.308-0.281,0.462-0.426c0.075-0.068,0.15-0.139,0.226-0.209
	c0.223-0.209,0.445-0.418,0.669-0.633c-0.169,0.531-0.213,1.031-0.088,1.477c0.029,0.104,0.07,0.188,0.118,0.262
	c0.015,0.021,0.034,0.037,0.051,0.059c0.037,0.043,0.076,0.082,0.122,0.111c0.023,0.016,0.05,0.029,0.076,0.041
	c0.047,0.021,0.097,0.037,0.151,0.047c0.029,0.004,0.06,0.01,0.091,0.012c0.058,0.004,0.119-0.002,0.183-0.01
	C38.543,182.475,38.58,182.473,38.621,182.465z M122.228,130.139c0.396,0,0.715,0.322,0.715,0.717c0,0.396-0.319,0.717-0.715,0.717
	c-0.396,0-0.717-0.32-0.717-0.717C121.511,130.461,121.831,130.139,122.228,130.139z" class="color c1"/>
</svg>