<svg version="1.1" id="图层_1" x="0px" y="0px" width="106.382px" height="90.866px" viewBox="0 0 106.382 90.866" enable-background="new 0 0 106.382 90.866" xml:space="preserve" xmlns="http://www.w3.org/2000/svg" xmlns:xlink="http://www.w3.org/1999/xlink" xmlns:xml="http://www.w3.org/XML/1998/namespace">
  <path fill="#EB4018" d="M98.528,63.994c8.518-13.075,10.819-31.789,3.344-59.374c-1.36,2.993-8.566,5.58-13.368,3.574
	C78.14,9.293,72.035,5.671,66.418,0C54.022,3.972,47.472,2.146,41.101,0.142c-4.273,4.502-10.367,8.029-18.523,8.397
	c-3.734,1.476-12.973,2.4-17.623-3.919C-5.247,38.426-1.927,68.299,36.273,86.342c1.505,0.676,3.001,1.349,4.528,1.963
	c-3.909-2.839-6.906-7.909-6.489-16.944c1.672-17.172,13.905-35.019,31.206-49.115c0.533-0.434,1.101-0.763,1.687-1.005
	c-17.43,20.866-35.362,44.621-24.716,65.369c-5.302-16.926,6.137-42.759,28.682-65.677c0.168,0.039,0.332,0.084,0.496,0.136
	c1.081,12.621-2.679,30.344-7.688,48.634c-10.95,8.819-18.364,21.162-7.013,21.162c8.991-2.501,17.276-6.161,24.724-11.193
	c6.819-4.073,12.547-9.137,16.766-15.57c0.026-0.033,0.054-0.064,0.081-0.098L98.528,63.994z M67.661,66.95
	c4.576-13.813,6.628-28.6,6.153-44.748c1.317,1.042,2.262,2.594,2.452,4.513c0.977,9.876,1.409,19.744,0.981,29.531
	C74.63,60.411,71.477,64.022,67.661,66.95z" class="color c1"/>
</svg>