<svg version="1.1" id="图层_1" x="0px" y="0px" width="177.92px" height="174.897px" viewBox="0 0 177.92 174.897" enable-background="new 0 0 177.92 174.897" xml:space="preserve" xmlns="http://www.w3.org/2000/svg" xmlns:xlink="http://www.w3.org/1999/xlink" xmlns:xml="http://www.w3.org/XML/1998/namespace">
  <path fill="#004C4E" d="M177.92,0c-54.326,9.465-75.233,61.199-75.44,61.729c-0.304,0.769-0.956,1.338-1.762,1.53
	c-0.808,0.192-1.644-0.019-2.263-0.564C74.71,41.611,52.538,57.11,52.318,57.269c-0.403,0.29-0.878,0.458-1.379,0.473
	c0,0-34.967,6.816-50.939,20.906c48.767-23.024,56.705-11.004,70.222,8.219c0.508,1.11,1.065,2.135,1.613,3.179
	c0,0,1.511,2.565,3.391,5.48c-0.079-0.012-0.165-0.026-0.24-0.039c1.333,2.054,2.734,3.951,4.173,5.715
	c0.442,0.57,0.863,1.076,1.243,1.487c0.004,0.003,0.007,0.005,0.011,0.009c12.623,14.573,27.615,18.912,27.812,18.966
	c1.343,0.371,19.881,16.361-13.605,53.233c9.771-4.875,49.438-36.814,27.332-88.366C122.243,85.989,169.182,59.962,177.92,0z" class="color c1"/>
</svg>