<svg version="1.1" id="图层_1" x="0px" y="0px" width="124.701px" height="126.958px" viewBox="0 0 124.701 126.958" enable-background="new 0 0 124.701 126.958" xml:space="preserve" xmlns:xml="http://www.w3.org/XML/1998/namespace" xmlns="http://www.w3.org/2000/svg" xmlns:xlink="http://www.w3.org/1999/xlink">
  <g>
    <path fill="#DBDB1D" d="M60.421,26.692c-8.48,0.008-2.686,13.582,0,15.979C63.105,40.274,68.901,26.677,60.421,26.692z" class="color c1"/>
    <path fill="#DBDB1D" d="M68.001,53.077c0,0-4.87,2.93-3.536,8.963C69.695,58.21,68.001,53.077,68.001,53.077z" class="color c1"/>
    <path fill="#DBDB1D" d="M52.841,53.077c0,0-1.695,5.133,3.536,8.963C57.719,56.009,52.841,53.077,52.841,53.077z" class="color c1"/>
    <path fill="#DBDB1D" d="M62.351,0.001C27.913,0.001,0,27.915,0,62.353c0,19.313,8.778,36.567,22.564,48.01
		c0.865,0.709,1.746,1.404,2.648,2.078h0.008c2.322-0.289,4.607-0.764,6.855-1.414c0.658-0.186,1.295-0.387,1.938-0.602l-0.03-0.012
		c-1.286-0.762-2.536-1.568-3.749-2.434l-0.016-0.01l-0.021-0.014c-0.317-0.223-0.629-0.451-0.962-0.682
		c-0.799-0.6-1.627-1.242-2.484-1.951C13.91,94.666,6.545,79,6.545,62.351c0-30.77,25.036-55.805,55.805-55.805
		c30.77,0,55.797,25.035,55.797,55.803c0,17.428-7.921,33.543-21.752,44.217c-0.77,0.592-1.561,1.168-2.382,1.736
		c-0.146,0.098-0.281,0.193-0.429,0.289c-1.871-0.502-3.632-1.316-5.215-2.389c-0.073-0.045-0.147-0.096-0.223-0.148
		c-0.222-0.146-0.429-0.295-0.605-0.428c-0.288-0.223-0.547-0.438-0.807-0.666c-2.824-2.471-3.734-5.111-3.779-8.15
		c-0.06-5.318,3.506-11.818,6.938-16.688c3.729-5.332,5.45-11.182,5.443-16.885C95.307,48.591,84.227,35.05,68.397,31.55
		c-0.028,1.518-0.34,3.004-0.799,4.432c5.525,1.271,10.37,3.914,14.179,7.455c-3.993,1.412-7.625,6.855-9.009,9.74
		c-2.004,4.193-3.911,8.402-5.813,12.649c-1.242,2.787-3.002,7.004-6.538,6.967c-3.543,0.037-5.303-4.18-6.546-6.967
		c-1.894-4.247-3.802-8.456-5.807-12.649c-1.383-2.885-5.021-8.336-9.017-9.748c3.921-3.52,8.78-6.145,14.188-7.426
		c-0.443-1.42-0.771-2.906-0.8-4.408C36.35,35.241,24.62,49.413,24.561,64.281c0.008,7.906,1.967,22.904,10.229,36.115l0.021,0.029
		c0.029,0.066,0.073,0.141,0.126,0.199c0.081,0.141,0.162,0.273,0.26,0.406c0.222,0.355,0.457,0.711,0.693,1.074
		c0.614,0.908,1.25,1.797,1.932,2.684c1.184,1.553,2.455,3.041,3.83,4.453c0.082,0.096,0.179,0.186,0.268,0.271
		c0.406,0.432,0.82,0.838,1.25,1.25c0.008,0.01,0.021,0.023,0.045,0.037c0.437,0.43,0.895,0.846,1.354,1.26
		c1.826,1.617,3.816,3.148,5.977,4.555c0.229,0.148,0.466,0.305,0.703,0.445c2.722,1.707,5.71,3.23,8.994,4.504
		c0.717,0.266,1.671,0.592,2.772,0.932c-0.858,0.014-1.709,0.037-2.597,0.037c-6.856,0.008-13.1-0.711-18.396-2.086
		c-2.685,0.91-5.458,1.545-8.275,1.9c3.364,1.473,7.145,2.572,11.278,3.352c3.787,0.709,7.862,1.123,12.176,1.256
		c10.693,0.09,21.359-2.471,31.005-7.639c-4.083,0.189-7.767-0.172-10.902-2.48c-0.215-0.162-0.437-0.332-0.658-0.525
		c-0.348-0.287-0.673-0.598-0.982-0.916c-8.966-9.281-5.459-33.23-1.657-50.924c1.975-9.186,4.623-16.479,9.955-18.809
		c4.342,4.979,6.879,11.213,6.895,17.574c0,4.799-1.421,9.704-4.631,14.319c-3.58,5.186-7.707,12.094-7.744,19.252
		c-0.036,3.246,0.962,6.561,3.255,9.424h0.009c0,0.014,0.021,0.029,0.044,0.051c0.147,0.191,0.303,0.371,0.459,0.541
		c0.081,0.096,0.154,0.186,0.243,0.271c0.118,0.119,0.229,0.244,0.354,0.371c0.17,0.186,0.348,0.355,0.54,0.531
		c0.451,0.408,0.932,0.813,1.457,1.199c0.511,0.385,1.08,0.762,1.664,1.131c0.021,0.008,0.037,0.021,0.06,0.029
		c0.739,0.43,1.501,0.799,2.285,1.109c3.478,1.391,7.374,1.643,11.132,0.592h0.008l0.422-0.324
		c14.776-11.398,24.289-29.283,24.289-49.387C124.701,27.915,96.787,0.001,62.351,0.001z M72.572,119.761
		c-3.136-0.207-6.271-0.945-8.527-1.627c-0.784-0.234-1.473-0.473-2.004-0.68c-0.074-0.023-0.142-0.053-0.2-0.074
		c-27.58-10.43-32.802-40.855-32.787-53.098c-0.008-6.635,2.892-13.336,7.766-18.641c10.438,4.416,10.813,27.583,14.785,47.213
		c2.115,10.428,7.604,19.563,15.11,24.273c0.422,0.258,0.844,0.51,1.279,0.754C69.451,118.681,70.981,119.31,72.572,119.761z" class="color c1"/>
  </g>
</svg>