<svg version="1.1" id="图层_1" x="0px" y="0px" width="266.16px" height="203.926px" viewBox="0 0 266.16 203.926" enable-background="new 0 0 266.16 203.926" xml:space="preserve" xmlns="http://www.w3.org/2000/svg" xmlns:xlink="http://www.w3.org/1999/xlink" xmlns:xml="http://www.w3.org/XML/1998/namespace">
  <path fill="#473649" d="M101.848,41.065c0.575,0,1.184-0.144,1.82-0.432c0.793,0,1.545-0.178,2.266-0.535
	c1.853-0.646,3.61-1.755,5.254-3.33c0.571-0.357,1.394-1.107,2.473-2.254c0.931-1.146,1.64-2.077,2.143-2.791
	c1.43-1.647,2.799-2.972,4.086-3.973c1.078-0.858,2.36-1.572,3.862-2.146c0.142-0.072,1.146-0.36,3.009-0.861
	c0-1.787,0.247-3.258,0.751-4.401c0.503-1.144,1.43-2.323,2.786-3.54c2.077-1.791,4.651-3.043,7.729-3.76
	c0.86-0.285,1.826-0.499,2.898-0.642c-1.788,0.285-3.359,0.823-4.723,1.61c-1.57,0.855-2.717,1.97-3.438,3.328
	c-0.566,1.072-0.855,2.22-0.855,3.435c0,0.858,0.14,1.716,0.426,2.577c0.078,0.285,0.223,0.572,0.432,0.856
	c0.289,0,0.823,0.18,1.616,0.536c1.291,0.501,2.398,1.146,3.324,1.932c1.217,1.22,2.295,2.792,3.223,4.727
	c0.859,1.932,1.472,4.328,1.824,7.192c0.146,2.72-0.03,5.835-0.539,9.341c-0.209,1.787-0.568,3.508-1.072,5.152
	c-0.135,0.93-0.676,2.683-1.605,5.261c-1.649,5.513-2.756,9.592-3.33,12.237c-1.146,5.225-1.256,9.914-0.322,14.064l0.431,1.827
	c0.146,0.716,0.356,1.323,0.642,1.824c0.578,1.576,1.045,2.688,1.401,3.329c1.071,2.223,2.539,4.225,4.396,6.014
	c3.008,3.15,6.877,5.868,11.601,8.157c4.007,1.863,8.149,3.259,12.449,4.188c3.583,0.719,7.373,1.043,11.376,0.967
	c3.445-0.211,6.482-0.711,9.133-1.5c2.426-0.646,4.572-1.609,6.436-2.9c1.502-0.789,2.646-1.646,3.437-2.576
	c0.644-0.787,0.823-1.252,0.538-1.396c-0.146-0.142-0.612,0.037-1.396,0.537c-1.502,0.787-2.763,1.322-3.76,1.609
	c-1.785,0.715-3.828,1.324-6.113,1.824c-2.648,0.5-5.412,0.717-8.274,0.645c-3.576-0.145-6.978-0.681-10.194-1.611
	c-3.724-0.858-7.336-2.219-10.842-4.08c-4.081-2.075-7.411-4.437-9.986-7.085c-1.43-1.646-2.537-3.292-3.33-4.938
	c-0.074-0.072-0.504-1.001-1.293-2.792l-0.427-1.396c-0.146-0.715-0.213-1.25-0.213-1.609c-0.793-3.576-0.757-7.656,0.108-12.237
	c0.281-1.646,0.715-3.612,1.287-5.905c0.719-2.648,1.283-4.615,1.711-5.904c0.724-2.72,1.18-4.617,1.402-5.69
	c0.286-1.646,0.534-3.507,0.747-5.581c0.29-3.795,0.183-7.193-0.321-10.199c-0.504-3.148-1.47-5.871-2.899-8.16
	c-1.291-2.146-2.861-3.793-4.724-4.938c-1.426-0.858-2.795-1.466-4.076-1.825c-0.219,0-0.358,0-0.437,0V23.14
	c0.356-1.719,0.899-2.972,1.611-3.76c0.573-0.57,1.358-1.108,2.36-1.609c1.01-0.287,2.153-0.463,3.437-0.538
	c1.288-0.068,2.646,0.035,4.077,0.323c1.51,0.144,2.902,0.536,4.195,1.179c1.785,0.859,3.467,1.541,5.041,2.042
	c1.647,0.642,3.362,1.178,5.148,1.608c3.73,0.718,6.906,0.683,9.563-0.105c1.283-0.36,2.435-0.861,3.439-1.503
	c0.71-0.646,1.28-1.253,1.712-1.825c0.646-0.645,1.073-1.358,1.287-2.147c0.353-0.716,0.498-1.324,0.433-1.819
	c-0.08-0.432-0.22-0.682-0.433-0.754c-0.144,0-0.353,0.144-0.644,0.432l-1.291,1.286c-0.504,0.501-1.104,0.86-1.824,1.076
	c-0.789,0.285-1.717,0.319-2.79,0.104c-1.862-0.357-4.543-1.611-8.05-3.758c-2.723-1.572-4.402-2.575-5.045-3.006
	c-1.078-0.646-2.01-1.109-2.799-1.395c-0.57-0.431-1.179-0.751-1.82-0.967l-0.533-0.322l-1.508-0.216
	c-2.506-0.572-4.936-0.714-7.299-0.43c-2.573,0.144-4.793,0.571-6.653,1.287c-4.003,1.29-7.082,3.329-9.229,6.12
	c-0.576,0.717-1.007,1.398-1.292,2.038c0.077-0.358,0.142-0.642,0.218-0.858c0.781-2.432,1.93-4.365,3.436-5.796
	c1.857-1.578,4.472-2.827,7.832-3.758c1.216-0.284,2.862-0.569,4.937-0.858c1.502-0.143,3.043-0.215,4.619-0.215
	c2.721,0,5.151,0.504,7.297,1.506c0.649,0.355,2.19,1.25,4.617,2.683c1.145,0.786,1.899,1.073,2.258,0.857
	c0.287-0.286,0.107-0.964-0.535-2.038c-1.004-1.721-2.368-3.259-4.08-4.617c-2.438-1.861-5.477-2.971-9.127-3.33
	c-1.576-0.072-3.473-0.072-5.688,0c-2.577,0.287-4.543,0.608-5.901,0.966c-4.587,1.147-8.021,3.042-10.308,5.692
	c-1.364,1.505-2.259,2.934-2.686,4.294c-0.429,1.074-0.719,2.434-0.86,4.079c-0.074,1.934,0.14,3.83,0.643,5.689
	c0.29,0.433,0.501,0.752,0.643,0.969c-2.22,0.141-4.362,0.82-6.44,2.04c-2.001,1.144-3.9,2.789-5.692,4.937l-3.864,4.938
	c-1.357,1.361-2.504,2.396-3.436,3.114c-1.711,1.36-2.643,2.145-2.785,2.363c-0.647,0.64-0.936,1.14-0.86,1.499
	C100.166,40.994,100.77,41.136,101.848,41.065z M53.199,80.997c0.285,1.002,0.787,2.326,1.508,3.97
	c1.136,2.291,2.505,4.545,4.077,6.765c2.287,3.508,5.117,6.979,8.481,10.416c2.79,2.646,5.402,5.257,7.836,7.833
	c0.357,0.287,1.036,1.109,2.039,2.471c0.074-0.07,0.179-0.107,0.326-0.107c0.07,0,0.181-0.069,0.318-0.213
	c1.213-0.789,2.039-1.574,2.471-2.362c0.57-0.858,0.932-1.683,1.074-2.472c0.498-1.932,0.281-4.189-0.643-6.763
	c-0.788-2.077-2.042-4.331-3.764-6.764c-0.923-1.002-2.861-3.112-5.792-6.333c-2.574-2.648-4.3-4.905-5.159-6.765l-0.214-0.86
	v-0.106c0,0.074,0.114,0.184,0.322,0.325c0.722,0.359,1.363,0.787,1.931,1.286l6.02,4.294c3.791,2.793,6.44,4.73,7.943,5.801
	l3.116,1.932c-0.713,1.074-1.217,2.432-1.502,4.078c-0.427,2.073-0.427,4.398,0,6.977c0.285,3.076,1.069,5.868,2.36,8.372
	c1.284,2.362,3.147,4.765,5.584,7.194c1.359,1.359,3.111,2.865,5.264,4.513c1.64,1.354,2.895,2.288,3.755,2.789
	c0.209,0.144,1.141,0.823,2.794,2.04c0.494,0,0.814-0.249,0.961-0.753c0.284-1.071,0.284-2.22,0-3.435
	c0-0.359-0.034-0.643-0.11-0.859c-0.356-1.288-0.96-2.645-1.819-4.079c-0.643-1.074-1.578-2.396-2.794-3.974
	c-1.364-1.933-2.292-3.256-2.786-3.973c-0.653-1-1.041-1.681-1.188-2.039l-0.854-1.932c-0.433-1.361-0.578-2.576-0.433-3.646
	c0.207-0.859,0.711-1.684,1.499-2.47c0.649-0.504,1.438-1.004,2.365-1.504c0.716-0.289,1.79-0.609,3.221-0.969
	c-0.208,0-0.466,0.037-0.747,0.109l0.214-0.109c0.363-0.072,0.788-0.178,1.286-0.321c1.078,0,2.002-0.033,2.795-0.105
	c1.786-0.429,3.436-1.073,4.932-1.932c1.225-0.644,2.014-1.288,2.366-1.931c0.569-0.504,0.823-0.825,0.751-0.967
	c-0.146-0.072-0.57-0.038-1.292,0.105l-2.784,0.861c-1.359,0.5-2.862,0.785-4.511,0.859c-0.715,0.072-1.569,0-2.575-0.215
	c-1.003-0.285-1.93-0.536-2.791-0.752c-1.217-0.501-3.437-1.576-6.658-3.221l-7.084-4.614c-0.713-0.503-3.188-2.397-7.408-5.69
	l-6.229-4.617c-0.927-0.714-1.787-1.252-2.576-1.609c-1.716-0.93-3.184-1.433-4.396-1.505c-0.574,0.072-0.969,0.109-1.183,0.109
	c-0.15,0-0.503,0.034-1.072,0.108c-0.938,0.283-1.542,0.678-1.827,1.179l-0.641,0.754l-0.433,0.964l-0.108,1.074l0.108,1.073
	c0,0.144,0.072,0.535,0.213,1.181l0.966,2.256c1.224,2.434,3.298,5.084,6.228,7.947c3.075,2.934,5.009,4.865,5.803,5.797
	c1.711,1.93,3.04,3.791,3.967,5.579c0.94,1.791,1.397,3.367,1.397,4.727c0,0.642-0.137,1.289-0.427,1.931
	c-0.073-0.143-0.147-0.25-0.214-0.32c-0.149-0.145-0.642-0.787-1.503-1.934l-5.267-6.766c-3.07-4.076-5.436-7.514-7.08-10.303
	c-1.363-2.148-2.503-4.258-3.44-6.336c-0.639-1.358-1.035-2.505-1.173-3.434l-0.322-1.503c-0.076-1.002-0.118-1.538-0.118-1.612
	c0.08-0.929,0.29-1.644,0.65-2.145c0.214-0.145,0.496-0.395,0.853-0.752l1.077-0.321c0.722-0.145,1.754-0.108,3.113,0.104
	c1.077,0.073,2.327,0.324,3.754,0.754l6.553,1.504h0.751c2.002,0.355,4.184,0.643,6.549,0.855c1.929,0.215,3.687,0.432,5.263,0.646
	l3.651,0.108c-0.43,2.504-0.254,4.688,0.53,6.545c0.652,1.646,1.219,2.364,1.722,2.146c0.21,0,0.395-0.82,0.537-2.467
	c0.218-2.076,0.645-4.008,1.292-5.797c0.928-2.579,2.547-5.047,4.827-7.409c1.431-1.501,2.756-2.753,3.969-3.757
	c1.504-1.289,3.188-2.471,5.054-3.543c1.142-0.86,2.962-2.004,5.47-3.435c2.29-1.359,4.011-2.505,5.156-3.435
	c3.789-2.936,6.258-5.763,7.408-8.482c0.503-1.434,0.677-2.826,0.532-4.188c-0.209-1.217-0.641-2.22-1.283-3.006
	c-0.429-0.646-0.933-1.184-1.507-1.611c-0.358-0.146-0.605-0.216-0.747-0.216c-0.214,0.072-0.25,0.359-0.108,0.858
	c0,0.215,0.07,0.788,0.214,1.719c0.075,0.286,0.112,0.644,0.112,1.073c-0.579,0-1.334,0.072-2.266,0.214
	c-4.504,0.645-8.153,1.076-10.938,1.288c-2.083,0.358-3.939,0.466-5.594,0.322c-1.002,0-1.676-0.106-2.038-0.322
	c-0.713-0.069-1.178-0.176-1.392-0.319c-0.575-0.285-1.071-0.858-1.506-1.719c-0.356-0.717-0.753-1.074-1.18-1.074
	c-0.432-0.143-0.792,0.217-1.082,1.064l-0.213,0.752c-0.072,0.144-0.105,0.466-0.105,0.967c0,0.07,0.065,0.464,0.214,1.18
	c0.076,0.433,0.248,0.824,0.537,1.184c0.571,0.855,1.47,1.574,2.682,2.146c1.006,0.428,2.075,0.787,3.222,1.072
	c2.078,0.357,4.438,0.396,7.088,0.105c4.294-0.429,8.158-1.465,11.59-3.111c-0.066,0.069-0.137,0.145-0.209,0.213
	c-1.145,1.863-3.401,3.832-6.762,5.905c-1.078,0.716-2.76,1.755-5.056,3.114c-2.789,1.574-4.718,2.684-5.797,3.329
	c-2.001,1.287-3.826,2.613-5.47,3.972c-1.575,1.354-3.08,2.969-4.511,4.831c-2.001,2.577-3.329,5.151-3.972,7.729
	c-0.858-0.358-1.971-0.678-3.33-0.966L76.5,71.433c-0.857-0.146-1.966-0.465-3.325-0.967c-1.797-0.643-3.008-1.002-3.654-1.074
	c-1.364-0.5-2.718-0.862-4.081-1.076c-1.074-0.141-1.895-0.213-2.466-0.213c-0.933-0.215-1.9-0.215-2.907,0
	c-0.134,0-0.68,0.144-1.606,0.428l-1.392,0.646c-0.936,0.576-1.723,1.183-2.361,1.828c-0.223,0.144-0.542,0.535-0.975,1.181
	c-0.356,0.5-0.573,0.932-0.637,1.289c-0.146,0.428-0.287,0.93-0.437,1.503l-0.104,1.289c0,0.573,0.043,1.36,0.104,2.362
	C52.873,79.776,53.059,80.565,53.199,80.997z M87.566,94.635c1.22,0.644,2.007,1.038,2.36,1.182c2.578,1.072,4.579,1.93,6.014,2.574
	c-0.931,0.216-1.786,0.575-2.581,1.075l-0.97,0.861c-0.144,0.072-0.425,0.429-0.856,1.074c-0.648,0.787-1.037,1.789-1.183,3.006
	c-0.072,1.219,0.177,2.469,0.751,3.758c0.499,1.289,0.931,2.291,1.288,3.008c0.428,0.715,1.041,1.572,1.825,2.574
	c0.716,1.073,1.752,2.576,3.115,4.508c1.363,1.791,2.428,3.149,3.222,4.078c0.357,0.646,0.604,1.289,0.746,1.936
	c-0.213-0.43-0.461-0.824-0.746-1.182c-0.861-0.932-2.363-2.543-4.506-4.832c-2.224-2.221-4.012-4.476-5.37-6.764
	c-1.29-2.221-2.149-4.689-2.576-7.408c-0.286-2.938-0.467-5.153-0.533-6.656C87.419,96.353,87.419,95.42,87.566,94.635z
	 M193.738,198.56c-0.216-2.076-0.392-3.511-0.533-4.295c-0.213-1.858-0.574-3.47-1.07-4.833c-0.721-2.861-2.079-6.51-4.08-10.947
	l-3.439-8.48c-0.639-1.291-1.214-2.363-1.712-3.226c-1.358-2.005-3.116-3.897-5.265-5.688c-1.43-1.36-3.512-3.006-6.229-4.938
	c-2.935-1.931-5.045-3.396-6.336-4.399c-1.929-1.359-3.822-3.006-5.684-4.938c-1.432-1.578-2.967-3.475-4.615-5.693
	c-1.79-2.717-3.188-4.865-4.189-6.439c-1.717-2.434-3.254-4.436-4.613-6.014c-0.36-0.287-0.752-0.752-1.184-1.395
	c-0.936-0.789-1.399-1.219-1.399-1.29l-3.005-2.683c-3.287-2.645-7.445-4.973-12.453-6.979c-1.505-0.572-2.504-0.931-3.008-1.072
	l-3.003-1.074c-2.432-0.932-4.189-1.574-5.264-1.932l-4.614-1.934c-0.86-0.572-1.541-0.926-2.035-1.068l-3.334-2.258
	c-0.642-0.504-1.141-0.934-1.507-1.291l-1.073-1.07c-4.01-3.938-5.004-3.938-3.003,0v0.104l2.038,2.789
	c0.29,0.289,0.716,0.79,1.291,1.504l3.54,2.685c0.5,0.36,1.185,0.861,2.048,1.506l2.248,1.179c0.429,0.146,1.289,0.539,2.576,1.183
	c0.434,0.291,2.219,1.11,5.366,2.471l5.697,2.254c4.574,2.146,8.225,4.4,10.943,6.764l1.182,1.182
	c0.645,0.5,1.041,0.822,1.184,0.963c0.071,0.076,0.432,0.469,1.073,1.187c0.503,0.571,0.854,0.997,1.073,1.287
	c1.363,1.718,2.723,3.614,4.082,5.69c1.001,1.428,2.432,3.578,4.294,6.442c1.077,1.646,2.185,3.108,3.33,4.399
	c0,0.142,0.036,0.32,0.108,0.533c0.504,1.361,1.496,3.648,3.002,6.873c2.008,4.291,3.365,7.619,4.086,9.982
	c0.635,1.932,1.145,3.9,1.496,5.906c0.291,2.289,0.365,4.471,0.223,6.545c-0.356,5.801-1.646,12.457-3.871,19.971
	c-9.59-0.145-19.967-0.216-31.129-0.216c-5.364,0-10.596,0-15.676,0c-10.164,0-19.611,0.18-28.344,0.539
	c-0.716,0.009-1.419,0.022-2.128,0.036H51.527H27.652C9.22,199.112,0,200.002,0,201.056c0,1.053,11.013,2.012,33.052,2.87H51.09
	h60.205c5.082,0,10.312,0,15.676,0h5.567v-0.006c8.406-0.021,16.293-0.09,23.631-0.205c1.432,0,2.832,0,4.188,0
	c0.436,0,0.9,0,1.396,0c1.647-5.944,2.722-9.772,3.225-11.49l1.503-6.871c0.433-2.004,0.685-4.291,0.756-6.869
	c0.136-2.504,0.104-4.975-0.112-7.408c-0.211-2.576-0.785-4.902-1.717-6.979c-0.855-2.576-2.185-5.225-3.973-7.944
	c1.068,0.646,3.256,2.041,6.549,4.187c2.432,1.647,4.398,3.08,5.902,4.297c0.217,0.285,0.465,0.572,0.75,0.859
	c-0.072,0-0.143,0-0.213,0c-1.434,1.145-2.51,2.578-3.227,4.295c-0.717,1.789-1.142,4.363-1.287,7.728
	c-0.07,3.437-0.541,7.731-1.391,12.884c-0.438,2.723-1.184,7.121-2.262,13.206c0.578-0.069,1.107-0.106,1.615-0.106
	c6.724-0.074,12.948-0.217,18.674-0.432c1.648-0.07,3.186-0.179,4.619-0.324c0.933,0,1.857,0,2.795,0c0.072,0,0.142,0,0.213,0
	C193.884,200.099,193.738,198.702,193.738,198.56z M186.544,198.769c-4.864-0.215-10.051-0.396-15.563-0.537
	c0.926-2.287,1.607-5.114,2.038-8.481c0.069-1.5,0.177-3.291,0.321-5.365c0.076-2.721,0.143-4.328,0.224-4.831
	c0.276-3.361,0.64-5.976,1.063-7.837c0.353-1.289,0.933-2.828,1.722-4.619c0.563,0.719,1.183,1.469,1.819,2.256
	c0.295,0.646,0.791,1.54,1.508,2.684l4.189,8.373c1.856,3.938,3.286,7.27,4.289,9.985c0.787,2.075,1.539,4.867,2.256,8.374
	C189.199,198.769,187.903,198.769,186.544,198.769z M249.341,198.23h-0.525h-47.449c-0.215-1.503-0.572-2.897-1.074-4.185
	l-1.607-4.299c-1.723-4.723-2.794-7.652-3.227-8.801c-0.217-1.215-0.354-2.037-0.431-2.467l-0.644-3.544l0.215-6.55
	c0.29-1.5,0.29-2.719,0-3.648c-0.135-0.643-0.355-1.322-0.639-2.037l-1.073-1.609c-0.646-0.643-1.503-1.469-2.581-2.471
	c-1.648-1.433-2.903-2.72-3.76-3.865c-0.782-1.217-1.254-2.612-1.392-4.188c-0.071-1.287,0-2.968,0.218-5.045
	c0.144-1.146,0.463-2.792,0.965-4.938c0.996-4.725,1.568-7.979,1.717-9.772l-0.221-4.724c0-0.426-0.176-1.143-0.533-2.145
	l-0.855-3.76l-0.222-3.005c0.073-0.356,0.149-0.606,0.222-0.755c0.428-0.428,1.069-1.143,1.926-2.145l0.965-0.861
	c0.36-0.211,0.684-0.502,0.97-0.855c1.079-1.002,1.794-1.969,2.147-2.898c0.358-0.789,0.397-1.217,0.112-1.291
	c-0.067,0-0.462,0.25-1.179,0.75c-1.146,0.855-2.077,1.537-2.795,2.041c-0.355,0.285-0.606,0.43-0.756,0.43l-1.494,0.857
	l-2.365,1.932c-0.65,0.646-1.073,1.361-1.293,2.148l-0.212,3.973c0,0.146,0.071,0.789,0.212,1.933l0.54,4.83
	c0,0.646,0,1.004,0,1.073l-0.22,2.043c-0.285,1.719-0.965,4.759-2.043,9.123c-0.57,2.289-0.992,4.115-1.283,5.475
	c-0.289,2.221-0.43,4.225-0.43,6.014c0.141,2.219,0.855,4.332,2.143,6.332c1.076,1.578,2.652,3.26,4.729,5.049
	c0.778,0.713,1.432,1.358,1.934,1.932l0.433,0.752l0.214,0.643c0.213,0.432,0.502,1.219,0.854,2.364l2.045,13.526
	c0.641,2.287,1.645,5.438,3.003,9.445l1.825,4.4c0.496,1.217,0.822,2.324,0.968,3.327c0.058,0.11,0.272,0.915,0.633,2.387v2.774
	h49.271h2.1c11.164-0.85,16.766-1.754,16.766-2.725C266.16,200.088,260.542,199.097,249.341,198.23z" class="color c1"/>
</svg>