<svg version="1.1" id="图层_1" x="0px" y="0px" width="210px" height="136.014px" viewBox="0 0 210 136.014" enable-background="new 0 0 210 136.014" xml:space="preserve" xmlns="http://www.w3.org/2000/svg" xmlns:xlink="http://www.w3.org/1999/xlink" xmlns:xml="http://www.w3.org/XML/1998/namespace">
  <g>
    <path fill="#8A660C" d="M157.308,58.053c2.147-1.669,3.415-3.704,3.415-5.904c0-5.515-7.931-10.007-17.858-10.224
		c-1.153-13.767-16.223-24.665-34.652-24.665c-0.852,0-1.692,0.029-2.529,0.075c-0.836-0.046-1.679-0.075-2.529-0.075
		c-18.431,0-33.499,10.897-34.65,24.665c-9.93,0.217-17.859,4.709-17.859,10.224c0,2.2,1.268,4.235,3.414,5.904
		c-2.193,4.332-14.225,9.063-22.633,10.17c2.811,8.284,24.912,16.601,36.433,0.482c31.617,37.889,35.096,67.183,37.555,67.294v0.015
		c0.065,0.001,0.16,0,0.271-0.003c0.111,0.003,0.206,0.004,0.272,0.003v-0.015c2.458-0.111,8.05-40.105,37.554-67.294
		c11.521,16.117,33.622,7.802,36.432-0.482C171.531,67.115,159.502,62.385,157.308,58.053z" class="color c1"/>
    <path fill="#BB9124" d="M104.46,22.976c1.365-2.191,2.034-4.263,1.67-6.075c-0.001-0.004-0.002-0.007-0.003-0.011
		c0.076-1.013,0.083-2.086,0.003-3.241v-0.814c0,0-12.583-28.876-34.545,0C49.623,41.711,35.591,49.643,21.763,43.136
		C7.936,36.627,52.138,85.239,100.32,28.083C102.048,26.543,103.459,24.896,104.46,22.976z" class="color c2"/>
    <path fill="#AD851D" d="M19.39,41.694c-1.733-1.32-3.101-3.042-4.061-5.002v-0.001l0,0C10.168,26.145,16.84,8.668,42.099,9.175
		C30.914,5.311,0.616-1.196,0.004,35.815c-0.532,32.263,49.002,35.777,85.335,7.052C48.687,64.463,27.624,50.176,19.39,41.694z" class="color c3"/>
    <path fill="#BB9124" d="M105.54,22.976c-1.365-2.191-2.034-4.263-1.67-6.075c0.001-0.004,0.002-0.007,0.003-0.011
		c-0.076-1.013-0.083-2.086-0.003-3.241v-0.814c0,0,12.583-28.876,34.545,0c21.962,28.877,35.993,36.81,49.821,30.303
		c13.828-6.51-30.374,42.103-78.558-15.054C107.952,26.543,106.541,24.896,105.54,22.976z" class="color c2"/>
    <path fill="#AD851D" d="M190.609,41.694c1.734-1.32,3.102-3.042,4.062-5.002v-0.001l0,0c5.161-10.546-1.511-28.022-26.771-27.516
		c11.186-3.864,41.483-10.371,42.096,26.64c0.531,32.263-49.002,35.777-85.335,7.052C161.313,64.463,182.376,50.176,190.609,41.694z
		" class="color c3"/>
    <path fill="#815E08" d="M77.36,126.558c0,0,14.268,0.511,14.245,7.92c2.89,0.617,11.346,1.41,13.805,1.521
		c0.773-37.284-37.555-67.294-37.555-67.294C79.722,123.258,77.36,126.558,77.36,126.558z" class="color c4"/>
    <path fill="#AC841D" d="M133.939,126.558c0,0-14.268,0.511-14.244,7.92c-2.891,0.617-11.348,1.41-13.806,1.521
		c-0.774-37.284,37.556-67.294,37.556-67.294C131.578,123.258,133.939,126.558,133.939,126.558z" class="color c5"/>
  </g>
</svg>