<svg version="1.1" id="图层_1" x="0px" y="0px" width="239px" height="88.75px" viewBox="0 0 239 88.75" enable-background="new 0 0 239 88.75" xml:space="preserve" xmlns="http://www.w3.org/2000/svg" xmlns:xlink="http://www.w3.org/1999/xlink" xmlns:xml="http://www.w3.org/XML/1998/namespace">
  <path fill="#F88D12" d="M231.578,77.063c0.654-5.59-0.494-11.428-3.678-16.573c-7.498-12.116-23.455-15.872-35.572-8.374
	c-8.043,4.977-12.396,13.68-12.227,22.515l-10.221-0.483l-0.113-2.794l2.354-3.479l0.068-1.212l-2.621-0.146l-0.586-14.459
	l2.459-3.522l0,0l0.066-1.21l-2.725-0.153l-0.406-10.035l2.422-3.041l0.066-1.21l-2.668-0.149l-0.201-4.95l1.662-1.604l0.469-0.453
	l0.066-1.21l-2.336-0.131l-0.162-3.976l1.471-1.676l0,0l0.068-1.212l-0.283-0.016l0.063-1.103l0.291,0.017l0.012-0.202l-2.33-0.131
	l0.041-0.771l-0.32-0.019l0.15-2.72c0.006-0.077-0.055-0.144-0.129-0.147c-0.078-0.005-0.145,0.055-0.148,0.132l-0.152,2.72
	l-0.32-0.019l-0.043,0.771l-2.332-0.13l-0.012,0.203l0.291,0.016l-0.063,1.103l-0.283-0.017l-0.066,1.212l1.275,1.828l-0.604,3.935
	l-2.336-0.13l-0.066,1.21l0.412,0.501l1.475,1.78l-0.752,4.897l-2.668-0.148l-0.068,1.21l2.068,3.291l-1.523,9.928l-2.725-0.153
	l-0.068,1.212l2.051,3.773l-2.195,14.304l-2.619-0.146l-0.068,1.211l1.951,3.721l-0.439,2.877l-11.465-0.542l-1.076-13.069
	l1.313-0.106l-0.096-1.167l-1.311,0.105l-0.209-2.546l-1.074-13.058l2.283-0.187l-0.227-2.762l-2.813,0.231l-0.412-4.989
	l-3.555,0.292l-0.287-3.502l-1.168,0.096l-0.139-1.699l-24.842,2.041l0.141,1.698l-1.168,0.097l0.287,3.502l-3.555,0.293
	l0.408,4.989l-2.813,0.23l0.227,2.761l2.283-0.188l1.281,15.605l-1.311,0.107l0.094,1.168l1.313-0.108l0.697,8.478l-7.865-0.372
	l0.07-1.921l-5.244-0.187l0.18-5.062l0.771,0.028l0.035-1.009l-0.77-0.027l0.299-8.403l0.771,0.026l0.037-1.008l-0.771-0.027
	l0.301-8.403l0.77,0.026l0.037-1.008l-0.73-0.027l0.111-3.13l0.01-0.003c0.467-0.181,0.787-0.723,0.764-1.286
	c-0.023-0.597-0.371-1.083-0.656-1.384c-0.307-0.325-0.678-0.587-1.035-0.839l-0.162-0.116c-0.201-0.145-0.402-0.304-0.594-0.473
	c0.045-0.065,0.08-0.137,0.084-0.222c0.006-0.15-0.078-0.281-0.197-0.354c0.045-0.047,0.078-0.107,0.08-0.178
	c0.004-0.113-0.074-0.196-0.172-0.239l0.043-1.229c0.004-0.05-0.037-0.091-0.086-0.094c-0.049-0.001-0.092,0.038-0.094,0.087
	l-0.045,1.229c-0.1,0.036-0.184,0.113-0.188,0.228c-0.004,0.07,0.025,0.132,0.068,0.181c-0.127,0.066-0.219,0.19-0.223,0.342
	c-0.004,0.085,0.025,0.159,0.068,0.226c-0.205,0.155-0.416,0.3-0.627,0.43l-0.17,0.104c-0.375,0.227-0.764,0.461-1.094,0.764
	c-0.305,0.281-0.686,0.739-0.752,1.334c-0.064,0.56,0.217,1.122,0.67,1.337l0.01,0.001l-0.113,3.134l-0.73-0.027l-0.035,1.01
	l0.77,0.027l-0.299,8.403l-0.771-0.028l-0.035,1.01l0.771,0.027l-0.301,8.404l-0.771-0.028l-0.035,1.01l0.77,0.026l-0.18,5.062
	l-5.094-0.183l0.973-27.258l-5.045-0.18l0.215-5.99c0.846-0.333,1.427-1.318,1.385-2.344c-0.047-1.096-0.682-1.987-1.207-2.542
	c-0.568-0.6-1.253-1.085-1.916-1.554c-0.102-0.073-0.203-0.144-0.305-0.218c-0.387-0.275-0.773-0.584-1.144-0.913
	c0.097-0.117,0.167-0.257,0.173-0.419c0.01-0.287-0.154-0.536-0.395-0.656c0.102-0.079,0.171-0.196,0.176-0.335
	c0.008-0.208-0.131-0.382-0.32-0.439l0.082-2.294c0.002-0.063-0.049-0.117-0.111-0.12c-0.064-0.002-0.118,0.048-0.12,0.112
	l-0.083,2.292c-0.193,0.046-0.344,0.208-0.351,0.417c-0.005,0.139,0.057,0.261,0.151,0.348c-0.248,0.103-0.43,0.34-0.439,0.625
	c-0.006,0.161,0.055,0.308,0.143,0.43c-0.393,0.303-0.801,0.582-1.207,0.831c-0.105,0.065-0.213,0.13-0.318,0.194
	c-0.694,0.421-1.414,0.855-2.022,1.412c-0.563,0.518-1.261,1.362-1.384,2.45c-0.117,1.021,0.394,2.043,1.213,2.436l-0.213,5.991
	l-4.652-0.167l0.324-9.05l-0.186-0.006c2.18-0.914,3.672-3.471,3.562-6.146c-0.122-2.911-1.813-5.283-3.213-6.762
	c-1.519-1.604-3.355-2.906-5.132-4.164c-0.273-0.192-0.545-0.384-0.816-0.579c-1.061-0.759-2.152-1.58-3.162-2.485
	c0.299-0.307,0.494-0.719,0.512-1.181c0.027-0.793-0.468-1.477-1.174-1.738c0.334-0.182,0.575-0.516,0.59-0.923
	c0.02-0.539-0.358-0.982-0.865-1.103l0.223-6.236C61.101,0.102,61.01,0.005,60.894,0c-0.115-0.004-0.213,0.088-0.218,0.203
	l-0.223,6.236c-0.514,0.083-0.923,0.5-0.942,1.039c-0.014,0.407,0.203,0.756,0.523,0.963c-0.723,0.21-1.266,0.857-1.295,1.647
	c-0.016,0.465,0.149,0.889,0.426,1.216c-1.07,0.831-2.219,1.572-3.332,2.255c-0.284,0.173-0.568,0.346-0.854,0.52
	c-1.863,1.127-3.788,2.293-5.417,3.787c-1.5,1.372-3.358,3.62-3.687,6.514c-0.302,2.66,1.006,5.317,3.114,6.384l-0.184-0.007
	l-0.324,9.05l-4.651-0.166l0.213-5.99c0.846-0.332,1.428-1.316,1.385-2.342c-0.046-1.097-0.682-1.987-1.207-2.543
	c-0.568-0.6-1.253-1.085-1.916-1.554c-0.103-0.073-0.203-0.145-0.306-0.217c-0.387-0.276-0.773-0.587-1.144-0.915
	c0.098-0.116,0.167-0.257,0.172-0.419c0.01-0.284-0.153-0.535-0.394-0.654c0.102-0.081,0.172-0.197,0.177-0.336
	c0.008-0.208-0.13-0.382-0.321-0.44l0.083-2.293c0.001-0.064-0.049-0.118-0.112-0.12c-0.064-0.002-0.118,0.049-0.12,0.112
	l-0.082,2.293c-0.194,0.045-0.345,0.209-0.352,0.416c-0.005,0.14,0.057,0.261,0.152,0.347c-0.248,0.102-0.43,0.341-0.439,0.626
	c-0.006,0.163,0.053,0.307,0.142,0.431c-0.393,0.301-0.8,0.581-1.207,0.829c-0.105,0.065-0.212,0.13-0.318,0.195
	c-0.694,0.42-1.414,0.855-2.022,1.414c-0.563,0.515-1.262,1.36-1.385,2.45c-0.116,1.02,0.395,2.043,1.214,2.434l-0.214,5.99
	l-5.045-0.181l-0.974,27.26l-5.095-0.182l0.181-5.062l0.771,0.028l0.036-1.009l-0.771-0.027l0.3-8.404l0.771,0.027l0.036-1.009
	l-0.771-0.029l0.3-8.402l0.771,0.027l0.036-1.008l-0.73-0.026l0.111-3.129l0.01-0.004c0.465-0.182,0.787-0.723,0.763-1.287
	c-0.024-0.597-0.37-1.081-0.656-1.384c-0.307-0.325-0.678-0.587-1.035-0.84l-0.162-0.114c-0.2-0.145-0.402-0.305-0.594-0.474
	c0.046-0.063,0.081-0.137,0.083-0.22c0.005-0.151-0.077-0.282-0.197-0.355c0.045-0.048,0.078-0.107,0.081-0.178
	c0.004-0.114-0.074-0.197-0.173-0.239l0.044-1.23c0.002-0.047-0.038-0.091-0.087-0.092c-0.05-0.002-0.091,0.036-0.093,0.086
	l-0.044,1.229c-0.102,0.036-0.185,0.112-0.189,0.227c-0.002,0.071,0.027,0.132,0.069,0.182c-0.126,0.065-0.217,0.189-0.222,0.341
	c-0.004,0.085,0.025,0.159,0.067,0.226c-0.204,0.156-0.416,0.301-0.626,0.432l-0.169,0.102c-0.375,0.228-0.763,0.462-1.093,0.765
	c-0.306,0.279-0.686,0.739-0.753,1.332c-0.063,0.562,0.218,1.123,0.669,1.339h0.01l-0.112,3.133l-0.73-0.025l-0.037,1.009
	l0.771,0.027l-0.3,8.404l-0.771-0.028L20.246,51.6l0.771,0.028l-0.3,8.402l-0.771-0.028l-0.036,1.01l0.771,0.028l-0.18,5.062
	l-5.243-0.188l-0.033,0.926L2.248,66.226L0,88.75l233.412-6.127l5.588-5.21L231.578,77.063z M168.521,16.378l0.365,0.021l-0.063,1.1
	l-0.363-0.021L168.521,16.378z M168.033,16.352l0.363,0.02l-0.063,1.101l-0.363-0.021L168.033,16.352z M167.541,16.323l0.363,0.02
	l-0.061,1.102l-0.365-0.021L167.541,16.323z M166.972,16.292l0.441,0.022l-0.063,1.104l-0.441-0.024L166.972,16.292z
	 M165.611,16.215l0.441,0.024l-0.063,1.102l-0.441-0.023L165.611,16.215z M165.121,16.188l0.363,0.021l-0.063,1.101l-0.363-0.021
	L165.121,16.188z M164.441,17.254l-0.363-0.021l0.061-1.101l0.363,0.021L164.441,17.254z M164.568,17.262l0.061-1.102l0.365,0.021
	l-0.061,1.102L164.568,17.262z M210.089,75.984l0.209,0.071l-0.092-0.004L210.089,75.984z M226.761,76.834l-6.725-0.317l-6.59-1.881
	l-2.949-0.388l2.969-0.181l13.295-2.813C227.013,73.117,227.007,74.994,226.761,76.834z M224.091,63.498
	c1.236,2.119,2.063,4.373,2.494,6.664l-13.502,1.554l-2.873,0.771l2.674-1.304L224.091,63.498z M223.509,62.556l-11.879,6.603
	l-2.357,1.811l1.969-2.227l7.414-11.393C220.513,58.76,222.164,60.503,223.509,62.556z M217.759,56.706l-8.449,10.645l-1.486,2.575
	l0.969-2.811l2.486-13.353C213.576,54.367,215.769,55.355,217.759,56.706z M210.203,53.511l-3.729,13.058l-0.389,2.948l-0.18-2.968
	l-2.813-13.295C205.476,52.933,207.878,53.026,210.203,53.511z M202.001,53.429l1.553,13.503l0.771,2.871l-1.305-2.671
	l-7.686-11.207C197.455,54.687,199.71,53.861,202.001,53.429z M194.394,56.506l6.602,11.878l1.811,2.359l-2.227-1.971l-11.391-7.414
	C190.599,59.501,192.341,57.852,194.394,56.506z M188.542,62.258l10.646,8.448l2.574,1.485l-2.811-0.97l-13.352-2.486
	C186.205,66.439,187.193,64.247,188.542,62.258z M185.349,69.813l13.059,3.729l2.947,0.387l-2.967,0.182l-5.35,1.133l-8.117-0.385
	C184.861,73.16,185.005,71.465,185.349,69.813z M120.806,61.832l1.023-0.085l-0.096-1.168l-1.025,0.085l-0.209-2.548l-0.029-0.372
	c-0.258-3.136,2.076-5.888,5.213-6.146s5.887,2.075,6.145,5.213l0.24,2.919l-1.023,0.084l0.096,1.168l1.023-0.084l0.945,11.511
	l-11.479-0.543L120.806,61.832z M81.699,47.161c0.439-0.346,0.944-0.631,1.287-1.063c0.313,0.456,0.796,0.776,1.208,1.152
	c0.452,0.413,0.854,0.995,0.731,1.595l-0.179,4.998l-4.068-0.145l0.179-4.999C80.779,48.091,81.22,47.54,81.699,47.161z
	 M81.321,57.778c0.438-0.346,0.942-0.632,1.287-1.063c0.312,0.458,0.795,0.776,1.207,1.152c0.453,0.413,0.853,0.994,0.73,1.594
	l-0.178,4.999L80.3,64.315l0.178-5C80.399,58.708,80.841,58.157,81.321,57.778z M74.449,46.901c0.438-0.344,0.942-0.63,1.288-1.062
	c0.312,0.455,0.795,0.776,1.207,1.151c0.452,0.411,0.852,0.995,0.73,1.594l-0.178,5l-4.069-0.146l0.179-5
	C73.528,47.833,73.969,47.28,74.449,46.901z M74.07,57.518c0.438-0.344,0.942-0.629,1.287-1.062
	c0.313,0.456,0.796,0.776,1.208,1.151c0.452,0.412,0.852,0.994,0.73,1.595l-0.179,5l-4.068-0.146l0.179-5.001
	C73.149,58.45,73.589,57.897,74.07,57.518z M40.689,47.264c-0.079-0.607,0.362-1.159,0.842-1.537
	c0.439-0.346,0.943-0.63,1.287-1.063c0.313,0.457,0.796,0.776,1.208,1.152c0.452,0.412,0.853,0.994,0.73,1.594l-0.179,5
	l-4.067-0.146L40.689,47.264z M40.31,57.881c-0.079-0.606,0.362-1.16,0.843-1.539c0.438-0.344,0.942-0.629,1.287-1.061
	c0.313,0.455,0.796,0.775,1.208,1.15c0.453,0.412,0.854,0.995,0.731,1.594l-0.179,5.001L40.13,62.88L40.31,57.881z M34.28,45.468
	c0.438-0.347,0.943-0.63,1.287-1.063c0.313,0.455,0.796,0.776,1.208,1.152c0.452,0.411,0.852,0.993,0.73,1.594l-0.178,4.999
	l-4.068-0.145l0.179-5C33.359,46.397,33.8,45.846,34.28,45.468z M33.901,56.084c0.438-0.346,0.942-0.631,1.287-1.063
	c0.312,0.455,0.796,0.776,1.208,1.15c0.453,0.414,0.853,0.995,0.731,1.596l-0.179,4.998l-4.068-0.144l0.179-5
	C32.98,57.014,33.42,56.463,33.901,56.084z M54.688,46.412c0.463-0.365,0.954-0.717,1.43-1.058c1.146-0.821,2.332-1.671,3.207-2.77
	l0.05-0.063l0.046,0.066c0.793,1.158,1.916,2.089,3,2.991c0.449,0.373,0.915,0.758,1.352,1.156c1.207,1.101,3.16,3.321,2.655,5.809
	l-0.596,16.685l-14.798-0.698l0.592-16.523C51.299,49.5,53.404,47.424,54.688,46.412z" class="color c1"/>
</svg>