<svg version="1.1" id="图层_1" x="0px" y="0px" width="93.478px" height="92.308px" viewBox="0 0 93.478 92.308" enable-background="new 0 0 93.478 92.308" xml:space="preserve" xmlns="http://www.w3.org/2000/svg" xmlns:xlink="http://www.w3.org/1999/xlink" xmlns:xml="http://www.w3.org/XML/1998/namespace">
  <path fill="#0C698E" d="M92.775,36.026l-0.396,0.359l-0.004,0.002l0.396-0.358c-2.111-2.343-26.572-25.884-26.586-25.897
	l-0.225-0.127c0,0-0.176-0.052-0.504-0.145C61.212,8.272,39.58,0.256,35.211,0.003c-2.328-0.135-8.086,4.711-13.873,10.243
	C20.344,11.159,4.859,26.887,3.252,28.672C0.803,31.425,0.039,32.674,0,33.732c0,0.765,0.531,1.171,0.756,1.4
	c0.283,0.259,1.48,1.016,3.396,2.215c0.004,0.029,0.002,0.058,0.006,0.086v-0.003l4.693,31.982c0.1,0.668,0.459,1.262,1.008,1.662
	l28.697,20.758c0.016,0.012,0.037,0.016,0.053,0.027c0.189,0.131,0.395,0.232,0.615,0.309c0.029,0.012,0.061,0.018,0.092,0.025
	c0.225,0.068,0.459,0.113,0.703,0.113c0.088,0,0.18-0.006,0.268-0.016c0.039-0.004,0.07-0.016,0.107-0.021
	c0.088-0.014,0.174-0.033,0.264-0.057c0.074-0.021,0.148-0.041,0.223-0.068c0.033-0.014,0.072-0.018,0.107-0.033l37.849-15.873
	l0.934-0.365c0.234-0.125,0.422-0.125,0.584-1.654l4.203-36.637c0.586,0.578,1.094,1.08,1.486,1.474
	c1.342,1.342,2.727,1.911,3.953,1.908c1.992-0.002,3.473-1.493,3.48-3.143C93.48,37.197,93.25,36.555,92.775,36.026z M13.645,66.87
	L9.703,40.018c7.934,4.888,18.697,11.431,21.26,12.997c1.094,0.67,2.08,1.08,2.963,1.299c-0.057,0.254-0.082,0.52-0.053,0.795
	l3.064,28.613L13.645,66.87z M57.916,78.821c-0.02-1.273-0.033-2.643-0.033-4.135c-0.006-7.465,0.938-11.861,2.068-14.221
	c1.176-2.352,2.168-2.717,3.232-2.959c0.232-0.043,0.43-0.061,0.596-0.061c0.398,0.023,0.428,0.039,0.65,0.223
	c0.34,0.268,1.059,1.539,1.5,4.359c0.461,2.795,0.727,7.027,0.727,13.125L57.916,78.821z M79.66,35.687l-4.104,35.734l-4.912,2.061
	c-0.063-7.314-0.508-11.873-1.387-14.908c-0.482-1.625-1.107-2.885-2.082-3.814c-0.971-0.945-2.299-1.334-3.395-1.313
	c-0.441,0-0.877,0.045-1.307,0.121c-2.162,0.328-4.645,1.914-6.135,5.184c-1.533,3.264-2.443,8.152-2.453,15.936
	c0,2.15,0.023,4.072,0.064,5.797l-11.8,4.947l-3.307-30.852c-0.045-0.416-0.197-0.789-0.418-1.111
	c0.223-0.186,0.41-0.381,0.561-0.57c0.85-1.066,24.111-29.894,27.332-33.889c1.709,1.659,8.283,8.051,13.566,13.219L79.66,35.687z" class="color c1"/>
</svg>