<svg version="1.1" id="图层_1" x="0px" y="0px" width="135.425px" height="62.608px" viewBox="0 0 135.425 62.608" enable-background="new 0 0 135.425 62.608" xml:space="preserve" xmlns="http://www.w3.org/2000/svg" xmlns:xlink="http://www.w3.org/1999/xlink" xmlns:xml="http://www.w3.org/XML/1998/namespace">
  <g>
    <path fill="#0C0C0C" d="M131.312,55.625c-2.184-1.899-3.086-4.122-3.086-6.017c0-0.684-0.039-3.639-0.09-7.159
		c-0.059-4.084-0.133-8.931-0.176-11.883c0-0.023-0.002-0.045-0.002-0.067c-0.002-0.118-0.004-0.234-0.004-0.346
		c-0.002-0.009-0.002-0.017-0.002-0.025c-0.004-0.252-0.006-0.487-0.01-0.702c0-0.01,0-0.02,0-0.029
		c-0.002-0.073-0.002-0.142-0.004-0.21c-0.002-0.189-0.004-0.362-0.008-0.515c0-0.005,0-0.01,0-0.016c0-0.056,0-0.108-0.002-0.159
		c-0.002-0.131-0.002-0.247-0.004-0.339c0-0.003,0-0.005,0-0.008c0-0.045-0.002-0.084-0.002-0.12c0-0.008,0-0.016,0-0.023
		c0-0.028,0-0.052,0-0.072c0-0.006,0-0.013,0-0.019c-0.002-0.022-0.002-0.04-0.002-0.049c0-0.033,0.004-0.063,0.008-0.091
		c0.029-0.182,0.15-0.284,0.279-0.395c0.012-0.009,0.021-0.019,0.033-0.028c0.021-0.019,0.043-0.038,0.063-0.058
		c0.008-0.007,0.014-0.014,0.021-0.021c0.014-0.014,0.027-0.029,0.041-0.044c0.008-0.009,0.016-0.019,0.023-0.028
		c0.012-0.015,0.023-0.03,0.035-0.045c0.006-0.011,0.014-0.021,0.021-0.033c0.01-0.016,0.02-0.033,0.029-0.051
		c0.004-0.009,0.008-0.017,0.014-0.026c0.002-0.006,0.004-0.013,0.008-0.019c0.004-0.01,0.008-0.021,0.012-0.032
		c0.006-0.013,0.01-0.026,0.014-0.041c0.004-0.007,0.006-0.015,0.008-0.023c0.002-0.01,0.004-0.02,0.008-0.03
		c0.004-0.02,0.008-0.04,0.012-0.061c0-0.009,0.002-0.018,0.004-0.028c0-0.005,0.002-0.011,0.002-0.017
		c0.004-0.038,0.008-0.078,0.008-0.121c0-0.687-0.027-1.83-0.031-2.499c0-0.044,0-0.087,0-0.127c0-0.037-0.002-0.069-0.006-0.101
		c0-0.01-0.002-0.019-0.004-0.027c-0.002-0.011-0.002-0.022-0.004-0.032c0-0.001,0-0.002,0-0.003
		c-0.002-0.008-0.004-0.016-0.006-0.023c-0.002-0.009-0.004-0.018-0.008-0.026c-0.004-0.018-0.01-0.034-0.016-0.049
		c-0.004-0.006-0.006-0.012-0.008-0.018c0-0.001,0-0.002-0.002-0.003c-0.008-0.019-0.018-0.037-0.029-0.052
		c0-0.002-0.002-0.003-0.004-0.005c-0.006-0.01-0.014-0.019-0.02-0.027c-0.002-0.001-0.002-0.002-0.004-0.004
		c-0.002-0.003-0.006-0.007-0.008-0.01c-0.006-0.004-0.01-0.008-0.014-0.013c-0.01-0.009-0.018-0.018-0.029-0.026
		c-0.004-0.004-0.008-0.008-0.014-0.011v-0.001c-0.002-0.001-0.002-0.002-0.004-0.002c-0.01-0.007-0.02-0.015-0.029-0.021
		c-0.004-0.002-0.006-0.005-0.01-0.007c-0.012-0.007-0.023-0.014-0.035-0.021c0,0-0.002,0-0.002-0.001
		c-0.004-0.002-0.006-0.004-0.01-0.006c-0.008-0.004-0.014-0.009-0.021-0.013c-0.01-0.005-0.018-0.01-0.027-0.016
		c-0.002-0.001-0.004-0.003-0.006-0.005c-0.006-0.003-0.012-0.007-0.018-0.011c-0.02-0.012-0.039-0.025-0.057-0.04
		c-0.004-0.002-0.006-0.004-0.008-0.005s-0.004-0.003-0.006-0.004c-0.02-0.017-0.037-0.036-0.055-0.057
		c-0.047-0.061-0.082-0.143-0.088-0.272c-0.088-1.557-0.887-2.167-1.711-2.167c-0.426-0.139-1.828-0.358-3.352-0.358
		c-1.43,0-2.789,0.16-3.387,0.358c-0.824,0-1.623,0.61-1.709,2.167c-0.008,0.131-0.043,0.214-0.092,0.275
		c-0.004,0.004-0.006,0.008-0.01,0.012c-0.012,0.014-0.025,0.027-0.039,0.038c-0.002,0.002-0.004,0.004-0.008,0.006
		c-0.012,0.01-0.023,0.019-0.035,0.027c-0.004,0.003-0.008,0.006-0.012,0.009c-0.014,0.008-0.025,0.017-0.039,0.024
		c-0.002,0.001-0.004,0.003-0.006,0.004c-0.018,0.01-0.033,0.02-0.049,0.029c-0.016,0.009-0.029,0.018-0.043,0.026
		c-0.004,0.003-0.01,0.006-0.014,0.01c-0.01,0.007-0.02,0.014-0.029,0.021c-0.006,0.004-0.012,0.009-0.016,0.013
		c-0.01,0.008-0.02,0.017-0.027,0.025c-0.006,0.005-0.01,0.009-0.014,0.014c-0.012,0.012-0.021,0.025-0.031,0.039
		c-0.002,0.002-0.004,0.005-0.006,0.007c-0.012,0.017-0.021,0.035-0.029,0.055c-0.004,0.006-0.006,0.013-0.008,0.019
		c-0.008,0.016-0.012,0.032-0.018,0.049c-0.002,0.008-0.004,0.017-0.006,0.026c-0.004,0.018-0.008,0.038-0.012,0.059
		c0,0.009-0.002,0.018-0.004,0.027c-0.002,0.031-0.006,0.064-0.006,0.101c0,0.041,0,0.083,0,0.127
		c-0.002,0.668-0.029,1.812-0.029,2.499c0,0.043,0.002,0.083,0.006,0.12c0.002,0.006,0.002,0.012,0.002,0.018
		c0.002,0.01,0.004,0.019,0.006,0.029c0.004,0.02,0.006,0.04,0.01,0.059c0.004,0.011,0.006,0.021,0.01,0.032
		c0.002,0.007,0.004,0.015,0.006,0.022c0.004,0.014,0.01,0.027,0.014,0.04c0.004,0.011,0.008,0.021,0.012,0.032
		c0.004,0.006,0.006,0.014,0.008,0.02c0.002,0,0.002,0,0.002,0c0.004,0.008,0.008,0.016,0.012,0.024
		c0.01,0.02,0.021,0.038,0.033,0.056c0.006,0.009,0.012,0.019,0.018,0.028c0.014,0.019,0.027,0.036,0.041,0.053
		c0.006,0.007,0.01,0.014,0.016,0.02c0.02,0.021,0.037,0.041,0.057,0.059c0.002,0.002,0.004,0.003,0.006,0.005
		c0.158,0.153,0.34,0.256,0.377,0.484c0.006,0.028,0.008,0.059,0.008,0.091c0,0.009,0,0.027,0,0.049c0,0.005,0,0.012,0,0.019
		c0,0.02,0,0.043-0.002,0.072c0,0.007,0,0.015,0,0.023c0,0.035,0,0.074,0,0.12c0,0.003,0,0.005,0,0.008
		c-0.002,0.033-0.002,0.073-0.002,0.112c-0.002,0.054-0.002,0.111-0.002,0.175c-0.002,0.018-0.002,0.034-0.002,0.053
		c0,0.05-0.002,0.103-0.002,0.159c0,0.005,0,0.01,0,0.016c-0.053,3.752-0.295,19.251-0.295,20.937c0,1.895-0.9,4.117-3.084,6.017
		c-0.486,0.423-0.986,0.931-1.473,1.519c0.045-5.209,0.074-8.865,0.074-9.641c0-6.534-2.688-10.442-5.039-12.488
		c-2.184-1.9-3.084-4.123-3.084-6.016c0-0.683-0.039-3.637-0.09-7.158l0,0c-0.059-4.084-0.133-8.931-0.178-11.883
		c0-0.022,0-0.045,0-0.067c-0.002-0.118-0.004-0.234-0.006-0.346c0-0.008,0-0.017,0-0.025c-0.004-0.252-0.008-0.487-0.01-0.703
		c0-0.009,0-0.02,0-0.029c-0.002-0.073-0.002-0.141-0.004-0.21c-0.002-0.189-0.006-0.363-0.008-0.515c0-0.005,0-0.011,0-0.016
		c0-0.056-0.002-0.108-0.002-0.159c-0.002-0.131-0.004-0.247-0.004-0.339c0-0.003,0-0.005,0-0.008
		c-0.002-0.045-0.002-0.084-0.002-0.12c0-0.008,0-0.016,0-0.023c-0.002-0.028-0.002-0.052-0.002-0.072c0-0.006,0-0.013,0-0.019
		c0-0.022,0-0.04,0-0.049c0-0.033,0.002-0.063,0.008-0.091c0.029-0.182,0.15-0.284,0.279-0.396c0.01-0.009,0.021-0.019,0.033-0.028
		c0.02-0.019,0.041-0.038,0.063-0.058c0.006-0.007,0.014-0.014,0.02-0.021c0.014-0.014,0.029-0.028,0.043-0.044
		c0.008-0.009,0.016-0.019,0.021-0.028c0.014-0.015,0.025-0.029,0.035-0.045c0.008-0.01,0.016-0.021,0.021-0.033
		c0.01-0.016,0.02-0.034,0.029-0.051c0.006-0.009,0.01-0.017,0.014-0.026c0.004-0.006,0.006-0.013,0.008-0.019
		c0.006-0.01,0.01-0.021,0.014-0.032c0.004-0.014,0.01-0.027,0.014-0.041c0.002-0.007,0.004-0.015,0.006-0.023
		c0.004-0.01,0.006-0.02,0.008-0.03c0.006-0.02,0.01-0.04,0.012-0.061c0.002-0.009,0.004-0.018,0.006-0.028
		c0-0.006,0-0.012,0.002-0.018c0.004-0.038,0.006-0.078,0.006-0.12c0-0.687-0.027-1.831-0.029-2.499c0-0.044,0-0.087,0-0.127
		c0-0.037-0.004-0.07-0.006-0.101c-0.002-0.009-0.002-0.018-0.004-0.027c-0.002-0.01-0.002-0.021-0.004-0.032
		c-0.002-0.001-0.002-0.002-0.002-0.003c0-0.008-0.004-0.016-0.006-0.024c-0.002-0.009-0.004-0.018-0.006-0.026
		c-0.006-0.018-0.01-0.034-0.018-0.049c-0.002-0.006-0.004-0.012-0.006-0.018c-0.002-0.001-0.002-0.002-0.002-0.003
		c-0.01-0.019-0.02-0.036-0.029-0.052c-0.002-0.001-0.002-0.003-0.004-0.005c-0.006-0.009-0.014-0.019-0.021-0.027
		c0-0.001,0-0.002-0.002-0.003c-0.002-0.004-0.006-0.007-0.01-0.01c-0.004-0.004-0.008-0.009-0.012-0.013
		c-0.01-0.009-0.02-0.019-0.029-0.027c-0.004-0.003-0.01-0.008-0.014-0.011c0,0,0,0,0,0c-0.002-0.001-0.004-0.002-0.004-0.003
		c-0.01-0.007-0.02-0.014-0.029-0.021c-0.004-0.002-0.008-0.005-0.012-0.007c-0.01-0.008-0.021-0.015-0.033-0.021
		c0,0-0.002-0.001-0.002-0.001c-0.004-0.002-0.006-0.004-0.01-0.006c-0.008-0.004-0.016-0.009-0.021-0.014
		c-0.01-0.005-0.018-0.01-0.027-0.016c-0.002-0.001-0.004-0.003-0.008-0.005c-0.006-0.003-0.012-0.007-0.018-0.011
		c-0.02-0.013-0.037-0.026-0.057-0.041c-0.002-0.002-0.004-0.003-0.006-0.005c-0.002-0.001-0.004-0.002-0.006-0.004
		c-0.02-0.017-0.037-0.036-0.055-0.057c-0.047-0.061-0.082-0.143-0.09-0.271c-0.086-1.558-0.885-2.168-1.709-2.168
		C102.597,0.219,101.195,0,99.671,0c-1.432,0-2.789,0.16-3.387,0.358c-0.824,0-1.623,0.61-1.709,2.168
		c-0.008,0.131-0.043,0.214-0.092,0.275c-0.004,0.004-0.008,0.008-0.01,0.012c-0.012,0.014-0.025,0.027-0.039,0.039
		c-0.002,0.002-0.006,0.004-0.008,0.006c-0.012,0.009-0.023,0.019-0.035,0.027c-0.004,0.002-0.01,0.005-0.014,0.008
		c-0.012,0.008-0.023,0.017-0.037,0.024c-0.002,0.001-0.004,0.003-0.008,0.005c-0.016,0.009-0.031,0.019-0.049,0.029
		c-0.014,0.009-0.027,0.018-0.041,0.026c-0.004,0.003-0.01,0.007-0.014,0.01c-0.012,0.007-0.021,0.014-0.031,0.022
		c-0.006,0.004-0.01,0.008-0.016,0.013c-0.01,0.008-0.018,0.017-0.027,0.025c-0.004,0.004-0.008,0.009-0.014,0.013
		c-0.01,0.012-0.021,0.025-0.031,0.039c0,0.002-0.004,0.005-0.004,0.007c-0.012,0.017-0.021,0.035-0.031,0.055
		c-0.002,0.005-0.004,0.012-0.008,0.019c-0.006,0.015-0.012,0.031-0.016,0.049c-0.004,0.008-0.006,0.017-0.008,0.026
		c-0.004,0.019-0.008,0.038-0.01,0.059c-0.002,0.009-0.004,0.018-0.004,0.028c-0.004,0.031-0.006,0.063-0.006,0.101
		c0,0.04,0,0.083,0,0.127c-0.004,0.668-0.029,1.812-0.029,2.499c0,0.042,0.002,0.082,0.006,0.12c0,0.006,0.002,0.012,0.002,0.018
		c0.002,0.01,0.004,0.019,0.006,0.029c0.002,0.02,0.006,0.04,0.01,0.059c0.002,0.011,0.006,0.021,0.008,0.032
		c0.004,0.007,0.004,0.015,0.008,0.022c0.004,0.014,0.008,0.027,0.014,0.041c0.004,0.011,0.008,0.021,0.012,0.032
		c0.004,0.006,0.006,0.013,0.008,0.019c0.006,0.008,0.01,0.016,0.014,0.024c0.01,0.02,0.021,0.038,0.031,0.056
		c0.008,0.01,0.014,0.02,0.02,0.028c0.012,0.019,0.025,0.036,0.041,0.053c0.004,0.007,0.01,0.014,0.016,0.02
		c0.018,0.021,0.037,0.041,0.057,0.06c0.002,0.001,0.004,0.003,0.004,0.004c0.16,0.153,0.342,0.256,0.379,0.484
		c0.006,0.028,0.008,0.058,0.008,0.091c0,0.009,0,0.027,0,0.049c0,0.005,0,0.013,0,0.019c-0.002,0.02-0.002,0.044-0.002,0.072
		c0,0.008,0,0.015,0,0.023c0,0.035,0,0.075-0.002,0.12c0,0.003,0,0.005,0,0.008c0,0.034,0,0.074-0.002,0.112
		c0,0.054,0,0.112-0.002,0.175c0,0.018,0,0.034,0,0.052c-0.002,0.051-0.002,0.104-0.002,0.159c0,0.005,0,0.01,0,0.016
		c-0.055,3.751-0.295,19.251-0.295,20.936c0,1.893-0.902,4.116-3.086,6.016c-2.139,1.862-4.551,5.274-4.967,10.798
		c-0.211-0.673-0.32-1.335-0.32-1.959c0-0.684-0.039-3.638-0.09-7.158c-0.059-4.084-0.133-8.931-0.178-11.883
		c0-0.022,0-0.045,0-0.067c-0.002-0.118-0.004-0.234-0.006-0.346c0-0.008,0-0.017,0-0.025c-0.004-0.252-0.008-0.487-0.01-0.703
		c0-0.009,0-0.02,0-0.029c-0.002-0.073-0.002-0.141-0.004-0.21c-0.002-0.189-0.006-0.363-0.008-0.515c0-0.005,0-0.01,0-0.016
		c0-0.056-0.002-0.108-0.002-0.159c-0.002-0.132-0.004-0.247-0.004-0.34c0-0.003,0-0.005,0-0.008
		c-0.002-0.045-0.002-0.084-0.002-0.12c0-0.008,0-0.016,0-0.023c-0.002-0.028-0.002-0.052-0.002-0.072c0-0.006,0-0.013,0-0.018
		c0-0.022,0-0.04,0-0.049c0-0.033,0.002-0.063,0.008-0.091c0.029-0.182,0.15-0.284,0.279-0.395c0.01-0.01,0.021-0.019,0.033-0.028
		c0.02-0.019,0.041-0.038,0.063-0.058c0.006-0.007,0.014-0.014,0.02-0.021c0.014-0.014,0.029-0.029,0.043-0.044
		c0.008-0.009,0.014-0.019,0.021-0.028c0.014-0.015,0.025-0.029,0.035-0.045c0.008-0.011,0.016-0.022,0.021-0.033
		c0.012-0.016,0.02-0.033,0.029-0.051c0.006-0.009,0.01-0.017,0.014-0.026c0.004-0.006,0.006-0.013,0.008-0.019
		c0.006-0.011,0.01-0.021,0.014-0.032c0.004-0.014,0.01-0.027,0.014-0.041c0.002-0.007,0.004-0.015,0.006-0.023
		c0.004-0.009,0.006-0.02,0.008-0.03c0.006-0.019,0.01-0.04,0.012-0.061c0.002-0.009,0.004-0.018,0.006-0.028
		c0-0.006,0-0.012,0.002-0.018c0.004-0.038,0.006-0.077,0.006-0.12c0-0.687-0.027-1.831-0.029-2.499c0-0.044,0-0.087,0-0.127
		c0-0.037-0.004-0.07-0.006-0.101c-0.002-0.009-0.002-0.018-0.004-0.027c-0.002-0.01-0.002-0.021-0.004-0.032
		c-0.002-0.001-0.002-0.002-0.002-0.003c0-0.009-0.004-0.016-0.006-0.024c-0.002-0.009-0.004-0.018-0.006-0.026
		c-0.006-0.018-0.012-0.034-0.018-0.049c-0.002-0.006-0.004-0.012-0.006-0.018c0-0.001-0.002-0.002-0.002-0.003
		c-0.01-0.019-0.02-0.036-0.029-0.052c-0.002-0.001-0.002-0.003-0.004-0.005c-0.006-0.009-0.014-0.019-0.021-0.027
		c0-0.001,0-0.002-0.002-0.003c-0.002-0.004-0.006-0.007-0.01-0.011c-0.004-0.004-0.008-0.008-0.012-0.013
		c-0.01-0.009-0.02-0.018-0.029-0.026c-0.004-0.003-0.01-0.008-0.014-0.011c0,0,0,0,0,0c-0.002-0.001-0.004-0.002-0.004-0.003
		c-0.01-0.007-0.02-0.014-0.029-0.021c-0.004-0.002-0.008-0.005-0.012-0.007c-0.01-0.007-0.021-0.015-0.033-0.021
		c0,0-0.002-0.001-0.002-0.001c-0.004-0.002-0.006-0.004-0.01-0.006c-0.008-0.004-0.016-0.009-0.021-0.014
		c-0.01-0.005-0.018-0.01-0.027-0.016c-0.002-0.001-0.006-0.003-0.008-0.005c-0.006-0.003-0.012-0.007-0.018-0.011
		c-0.02-0.013-0.037-0.026-0.057-0.041c-0.002-0.002-0.004-0.003-0.006-0.005c-0.002-0.001-0.004-0.002-0.006-0.004
		c-0.02-0.017-0.037-0.036-0.055-0.057c-0.047-0.061-0.082-0.143-0.09-0.271c-0.086-1.558-0.885-2.168-1.709-2.168
		c-0.426-0.139-1.828-0.358-3.354-0.358c-1.43,0-2.789,0.16-3.384,0.358c-0.825,0-1.624,0.61-1.71,2.168
		c-0.008,0.131-0.043,0.214-0.092,0.275c-0.004,0.004-0.007,0.009-0.01,0.013c-0.012,0.014-0.025,0.026-0.039,0.038
		c-0.002,0.002-0.005,0.004-0.008,0.006c-0.012,0.009-0.023,0.019-0.035,0.027c-0.004,0.002-0.009,0.006-0.013,0.008
		c-0.013,0.008-0.024,0.017-0.038,0.024c-0.002,0.002-0.004,0.003-0.007,0.005c-0.016,0.01-0.032,0.019-0.049,0.029
		c-0.014,0.008-0.028,0.017-0.042,0.026c-0.004,0.003-0.009,0.007-0.014,0.01c-0.011,0.007-0.021,0.014-0.03,0.022
		c-0.006,0.004-0.011,0.008-0.016,0.013c-0.01,0.008-0.019,0.017-0.027,0.025c-0.005,0.004-0.009,0.009-0.014,0.013
		c-0.011,0.012-0.021,0.025-0.031,0.039c-0.001,0.003-0.003,0.005-0.005,0.007c-0.012,0.017-0.021,0.035-0.03,0.055
		c-0.003,0.006-0.005,0.012-0.008,0.019c-0.006,0.015-0.012,0.031-0.017,0.049c-0.003,0.008-0.005,0.017-0.007,0.025
		c-0.004,0.019-0.008,0.038-0.011,0.059c-0.001,0.009-0.003,0.018-0.004,0.028c-0.003,0.031-0.005,0.063-0.005,0.101
		c0,0.04,0,0.083-0.001,0.127c-0.003,0.668-0.03,1.812-0.03,2.499c0,0.042,0.003,0.082,0.007,0.12
		c0.001,0.006,0.002,0.012,0.003,0.018c0.001,0.01,0.003,0.019,0.005,0.029c0.003,0.02,0.006,0.04,0.011,0.059
		c0.003,0.011,0.005,0.021,0.008,0.032c0.003,0.007,0.004,0.015,0.007,0.022c0.004,0.014,0.009,0.027,0.014,0.04
		c0.004,0.011,0.008,0.021,0.013,0.032c0.003,0.006,0.005,0.013,0.008,0.019h0.001c0.004,0.009,0.008,0.016,0.013,0.024
		c0.01,0.02,0.021,0.038,0.031,0.056c0.006,0.009,0.013,0.019,0.019,0.028c0.013,0.019,0.026,0.036,0.041,0.053
		c0.005,0.006,0.011,0.013,0.016,0.02c0.019,0.021,0.038,0.041,0.058,0.06c0.001,0.001,0.003,0.003,0.004,0.004
		c0.159,0.153,0.341,0.256,0.379,0.484c0.005,0.028,0.007,0.058,0.007,0.091c0,0.009,0,0.027,0,0.049c0,0.005,0,0.012,0,0.018
		c0,0.02-0.001,0.044-0.001,0.072c0,0.008-0.001,0.015-0.001,0.023c0,0.035,0,0.075-0.001,0.12c0,0.003,0,0.005,0,0.008
		c-0.001,0.034-0.001,0.074-0.002,0.112c0,0.054-0.001,0.112-0.002,0.175c0,0.018-0.001,0.034-0.001,0.053
		c-0.001,0.05-0.002,0.103-0.002,0.159c0,0.005,0,0.01,0,0.016c-0.054,3.751-0.295,19.25-0.295,20.936
		c0,1.894-0.901,4.116-3.085,6.017c-2.25,1.959-4.802,5.631-5.017,11.672c-0.012-1.025-0.035-2.751-0.063-4.716
		c-0.046-3.185-0.104-6.965-0.138-9.268c0-0.018-0.001-0.035-0.001-0.052c-0.001-0.093-0.003-0.184-0.004-0.271
		c0-0.007,0-0.013-0.001-0.02c-0.002-0.196-0.005-0.38-0.008-0.548c0-0.008,0-0.016,0-0.022c-0.001-0.058-0.002-0.11-0.002-0.163
		c-0.003-0.148-0.005-0.283-0.006-0.402c0-0.004,0-0.008-0.001-0.012c0-0.043-0.001-0.084-0.001-0.124
		c-0.002-0.103-0.003-0.192-0.004-0.265c0-0.002,0-0.004,0-0.006c0-0.035-0.001-0.066-0.001-0.094c0-0.006-0.001-0.013-0.001-0.018
		c0-0.022,0-0.041,0-0.057c0-0.005,0-0.01,0-0.015c0-0.017,0-0.03,0-0.038c0-0.025,0.002-0.049,0.005-0.07
		c0.023-0.143,0.118-0.222,0.219-0.309c0.008-0.007,0.017-0.015,0.025-0.022c0.017-0.014,0.032-0.029,0.049-0.045
		c0.006-0.005,0.011-0.01,0.016-0.016c0.011-0.012,0.022-0.022,0.032-0.034c0.007-0.007,0.013-0.015,0.019-0.022
		c0.01-0.011,0.019-0.022,0.027-0.035c0.005-0.008,0.011-0.017,0.017-0.025c0.008-0.013,0.016-0.025,0.022-0.04
		c0.004-0.007,0.008-0.013,0.011-0.021c0.003-0.004,0.004-0.01,0.007-0.014c0.003-0.008,0.007-0.018,0.01-0.025
		c0.004-0.011,0.008-0.021,0.011-0.032c0.002-0.005,0.004-0.012,0.005-0.018c0.002-0.008,0.005-0.015,0.007-0.023
		c0.003-0.015,0.006-0.031,0.009-0.048c0.001-0.007,0.002-0.014,0.003-0.021c0.001-0.004,0.002-0.009,0.002-0.014
		c0.003-0.029,0.006-0.061,0.006-0.094c0-0.535-0.021-1.427-0.024-1.948c0-0.034,0-0.067,0-0.099c0-0.029-0.002-0.055-0.004-0.079
		c-0.001-0.007-0.002-0.015-0.003-0.021c-0.002-0.008-0.002-0.017-0.004-0.024c0-0.001,0-0.002,0-0.002
		c-0.001-0.008-0.003-0.014-0.005-0.02c-0.001-0.006-0.003-0.014-0.005-0.02c-0.004-0.014-0.009-0.027-0.014-0.039
		c-0.002-0.004-0.003-0.01-0.005-0.014c-0.001-0.001-0.001-0.002-0.001-0.003c-0.008-0.015-0.015-0.028-0.023-0.04
		c-0.001-0.002-0.002-0.003-0.003-0.004c-0.005-0.008-0.011-0.015-0.016-0.021c-0.001-0.001-0.002-0.002-0.003-0.003
		c-0.002-0.003-0.004-0.005-0.007-0.008s-0.007-0.007-0.01-0.01c-0.007-0.007-0.015-0.015-0.022-0.021
		c-0.004-0.003-0.007-0.006-0.011-0.01c-0.001,0-0.001,0-0.001,0c-0.001,0-0.002-0.002-0.003-0.002
		c-0.007-0.006-0.015-0.012-0.022-0.016c-0.003-0.002-0.005-0.005-0.008-0.006c-0.009-0.006-0.018-0.012-0.026-0.018
		c-0.001,0-0.002,0-0.002-0.001c-0.003-0.001-0.005-0.003-0.008-0.005c-0.006-0.003-0.012-0.006-0.018-0.01
		c-0.007-0.004-0.014-0.008-0.021-0.012c-0.002-0.002-0.004-0.003-0.006-0.004c-0.004-0.003-0.009-0.006-0.014-0.01
		c-0.015-0.009-0.029-0.02-0.044-0.031c-0.002-0.001-0.004-0.002-0.005-0.004c-0.002-0.001-0.003-0.002-0.005-0.003
		c-0.015-0.013-0.029-0.028-0.042-0.045c-0.038-0.048-0.064-0.111-0.07-0.212c-0.067-1.215-0.689-1.689-1.333-1.689
		c-0.332-0.109-1.425-0.279-2.613-0.279c-1.115,0-2.175,0.125-2.64,0.279c-0.643,0-1.266,0.475-1.333,1.689
		c-0.006,0.102-0.034,0.167-0.072,0.215c-0.002,0.003-0.005,0.006-0.007,0.01c-0.01,0.01-0.02,0.021-0.03,0.029
		c-0.002,0.002-0.005,0.004-0.007,0.006c-0.009,0.007-0.018,0.014-0.027,0.021c-0.003,0.003-0.007,0.005-0.01,0.007
		c-0.01,0.006-0.02,0.013-0.029,0.019c-0.002,0.001-0.004,0.003-0.006,0.004c-0.013,0.007-0.025,0.015-0.038,0.022
		c-0.011,0.007-0.021,0.014-0.032,0.021c-0.004,0.002-0.007,0.005-0.011,0.008c-0.009,0.005-0.017,0.011-0.024,0.017
		c-0.004,0.004-0.008,0.007-0.012,0.01c-0.008,0.006-0.015,0.014-0.021,0.02c-0.004,0.004-0.007,0.008-0.01,0.011
		c-0.009,0.01-0.018,0.02-0.024,0.03c-0.002,0.002-0.003,0.004-0.005,0.006c-0.009,0.013-0.017,0.027-0.023,0.043
		c-0.002,0.004-0.004,0.01-0.006,0.014c-0.005,0.013-0.009,0.025-0.013,0.039c-0.002,0.006-0.004,0.014-0.005,0.02
		c-0.004,0.015-0.007,0.029-0.009,0.046c-0.001,0.007-0.002,0.015-0.003,0.021c-0.003,0.024-0.004,0.05-0.004,0.079
		c0,0.031,0,0.064-0.001,0.099c-0.002,0.521-0.023,1.413-0.023,1.948c0,0.033,0.002,0.064,0.006,0.094
		c0,0.004,0.001,0.01,0.001,0.014c0.001,0.008,0.003,0.016,0.004,0.022c0.003,0.016,0.006,0.031,0.009,0.046
		c0.002,0.009,0.004,0.017,0.007,0.025c0.001,0.006,0.003,0.012,0.004,0.017c0.004,0.011,0.008,0.021,0.012,0.032
		c0.003,0.008,0.006,0.016,0.01,0.024c0.002,0.005,0.004,0.011,0.006,0.015l0,0c0.004,0.007,0.007,0.013,0.011,0.02
		c0.008,0.015,0.016,0.029,0.024,0.043c0.005,0.008,0.01,0.016,0.015,0.022c0.01,0.015,0.021,0.028,0.032,0.041
		c0.004,0.005,0.008,0.011,0.012,0.016c0.015,0.017,0.029,0.032,0.045,0.046c0.001,0.002,0.002,0.002,0.003,0.004
		c0.124,0.119,0.266,0.199,0.295,0.378c0.004,0.021,0.006,0.045,0.006,0.07c0,0.008,0,0.021,0,0.038c0,0.005,0,0.01,0,0.015
		c0,0.016-0.001,0.034-0.001,0.057c0,0.005,0,0.012,0,0.018c0,0.027-0.001,0.059-0.001,0.094c0,0.002,0,0.004,0,0.006
		c-0.001,0.026-0.001,0.058-0.001,0.088c-0.001,0.041-0.002,0.086-0.002,0.136c-0.001,0.015-0.001,0.026-0.001,0.041
		c-0.001,0.04-0.001,0.081-0.002,0.124c0,0.004,0,0.008,0,0.012c-0.042,2.926-0.229,15.012-0.229,16.326
		c0,0.027-0.004,0.055-0.005,0.082c2.76-0.008,5.522-0.016,8.276-0.023c0.011,0,0.021-0.001,0.031-0.001
		c6.492-0.021,12.922-0.042,19.108-0.067c2.633-0.011,5.225-0.021,7.752-0.033c5.781-0.026,11.24-0.056,16.213-0.088
		c0.912-0.005,1.807-0.012,2.684-0.018c10.959-0.074,19.148-0.163,22.447-0.27C134.435,58.985,132.806,56.927,131.312,55.625z" class="color c1"/>
    <path fill="#0C0C0C" d="M52.443,53.537c-1.702-1.481-2.405-3.215-2.405-4.691c0-0.533-0.03-2.837-0.07-5.582h0.001
		c-0.047-3.185-0.104-6.963-0.139-9.265c0-0.018,0-0.035-0.001-0.052c-0.001-0.092-0.002-0.183-0.004-0.27c0-0.007,0-0.013,0-0.02
		c-0.003-0.197-0.006-0.38-0.008-0.548c0-0.007,0-0.015,0-0.022c-0.002-0.057-0.002-0.11-0.003-0.164
		c-0.002-0.147-0.004-0.283-0.006-0.401c0-0.004,0-0.008,0-0.012c-0.001-0.043-0.001-0.085-0.002-0.124
		c-0.001-0.103-0.003-0.192-0.003-0.265c0-0.002,0-0.004,0-0.006c-0.001-0.036-0.002-0.066-0.002-0.093c0-0.006,0-0.013,0-0.018
		c0-0.022-0.001-0.041-0.001-0.057c0-0.004,0-0.01,0-0.014c0-0.017,0-0.031,0-0.038c0-0.026,0.002-0.049,0.006-0.071
		c0.023-0.142,0.118-0.221,0.218-0.308c0.009-0.007,0.017-0.015,0.025-0.022c0.017-0.015,0.033-0.03,0.049-0.045
		c0.006-0.005,0.011-0.011,0.016-0.016c0.012-0.011,0.022-0.022,0.033-0.034c0.006-0.007,0.012-0.014,0.018-0.021
		c0.01-0.011,0.019-0.023,0.027-0.035c0.006-0.008,0.012-0.017,0.017-0.026c0.008-0.013,0.016-0.026,0.023-0.04
		c0.003-0.007,0.007-0.013,0.011-0.02c0.002-0.005,0.004-0.01,0.006-0.015c0.004-0.008,0.007-0.017,0.01-0.025
		c0.004-0.01,0.008-0.021,0.012-0.032c0.001-0.006,0.003-0.012,0.005-0.018c0.002-0.008,0.004-0.016,0.006-0.023
		c0.003-0.015,0.006-0.031,0.009-0.047c0.001-0.007,0.003-0.014,0.004-0.022c0-0.004,0.001-0.009,0.002-0.014
		c0.003-0.029,0.005-0.061,0.005-0.094c0-0.536-0.021-1.427-0.023-1.948c-0.001-0.035-0.001-0.068-0.001-0.099
		c0-0.029-0.001-0.055-0.004-0.079c-0.001-0.007-0.002-0.014-0.003-0.021c-0.001-0.008-0.002-0.017-0.003-0.025
		c-0.001,0-0.001-0.001-0.001-0.002c-0.001-0.006-0.003-0.012-0.004-0.018c-0.002-0.007-0.004-0.014-0.006-0.021
		c-0.004-0.014-0.008-0.026-0.013-0.039c-0.002-0.004-0.004-0.009-0.006-0.014c0,0-0.001-0.001-0.001-0.002
		c-0.007-0.015-0.015-0.028-0.022-0.041c-0.001-0.001-0.002-0.003-0.004-0.004c-0.005-0.008-0.01-0.015-0.016-0.021
		c-0.001-0.001-0.001-0.002-0.002-0.003c-0.003-0.003-0.005-0.005-0.008-0.008s-0.006-0.006-0.01-0.01
		c-0.007-0.007-0.015-0.014-0.022-0.021c-0.003-0.003-0.007-0.006-0.011-0.009v0c-0.002-0.001-0.002-0.001-0.003-0.002
		c-0.008-0.005-0.016-0.011-0.022-0.016c-0.003-0.002-0.006-0.004-0.009-0.005c-0.009-0.006-0.018-0.011-0.026-0.017
		c-0.001,0-0.001-0.001-0.002-0.001c-0.003-0.001-0.005-0.003-0.008-0.004c-0.006-0.003-0.011-0.007-0.017-0.011
		c-0.007-0.004-0.014-0.008-0.021-0.012c-0.002-0.001-0.004-0.002-0.006-0.003c-0.005-0.003-0.01-0.006-0.014-0.009
		c-0.016-0.01-0.03-0.02-0.045-0.031c-0.001-0.002-0.003-0.003-0.005-0.004c-0.001-0.001-0.003-0.002-0.004-0.003
		c-0.016-0.013-0.03-0.028-0.043-0.044c-0.037-0.047-0.063-0.112-0.069-0.212c-0.068-1.214-0.69-1.69-1.334-1.69
		c-0.331-0.108-1.425-0.279-2.613-0.279c-1.115,0-2.175,0.125-2.64,0.279c-0.643,0-1.266,0.476-1.333,1.69
		c-0.006,0.102-0.033,0.167-0.072,0.214c-0.002,0.003-0.004,0.007-0.007,0.01c-0.01,0.011-0.02,0.021-0.03,0.03
		c-0.002,0.001-0.004,0.003-0.006,0.005c-0.009,0.007-0.019,0.015-0.028,0.021c-0.003,0.002-0.006,0.004-0.009,0.006
		c-0.01,0.007-0.02,0.013-0.03,0.019c-0.001,0.001-0.003,0.002-0.005,0.003c-0.013,0.008-0.025,0.015-0.038,0.023
		c-0.012,0.006-0.022,0.013-0.033,0.021c-0.003,0.002-0.007,0.005-0.011,0.007c-0.008,0.005-0.016,0.011-0.023,0.017
		c-0.004,0.003-0.008,0.006-0.013,0.01c-0.007,0.006-0.014,0.013-0.021,0.02c-0.004,0.003-0.008,0.007-0.011,0.01
		c-0.009,0.009-0.017,0.02-0.024,0.03c-0.002,0.002-0.003,0.003-0.004,0.005c-0.009,0.013-0.017,0.027-0.023,0.043
		c-0.003,0.004-0.004,0.01-0.006,0.015c-0.005,0.012-0.01,0.024-0.014,0.038c-0.002,0.006-0.004,0.014-0.005,0.021
		c-0.003,0.014-0.006,0.029-0.009,0.045c-0.001,0.007-0.002,0.014-0.002,0.021c-0.003,0.024-0.005,0.05-0.005,0.079
		c0,0.031,0,0.064,0,0.099c-0.003,0.521-0.023,1.413-0.023,1.948c0,0.033,0.002,0.064,0.005,0.093c0,0.005,0.001,0.01,0.002,0.014
		c0.001,0.008,0.002,0.015,0.004,0.022c0.002,0.016,0.005,0.031,0.008,0.046c0.002,0.009,0.005,0.017,0.007,0.025
		c0.002,0.006,0.003,0.012,0.005,0.017c0.003,0.011,0.007,0.021,0.011,0.032c0.003,0.008,0.007,0.017,0.01,0.024
		c0.002,0.005,0.004,0.011,0.006,0.015h0.001c0.003,0.007,0.007,0.013,0.01,0.019c0.008,0.015,0.016,0.03,0.025,0.043
		c0.004,0.007,0.009,0.015,0.014,0.022c0.011,0.015,0.021,0.028,0.032,0.042c0.004,0.005,0.008,0.01,0.013,0.015
		c0.014,0.016,0.029,0.032,0.044,0.046c0.001,0.001,0.002,0.002,0.004,0.003c0.124,0.12,0.265,0.2,0.295,0.378
		c0.003,0.022,0.006,0.045,0.006,0.071c0,0.007-0.001,0.021-0.001,0.038c0,0.004,0,0.01,0,0.014c0,0.016,0,0.034-0.001,0.057
		c0,0.005,0,0.012,0,0.018c0,0.027-0.001,0.058-0.001,0.093c0,0.002,0,0.004,0,0.006c0,0.026-0.001,0.057-0.001,0.087
		c-0.001,0.042-0.001,0.087-0.002,0.137c0,0.014,0,0.027-0.001,0.041c0,0.039-0.001,0.081-0.001,0.124
		c-0.001,0.004-0.001,0.008-0.001,0.012c-0.041,2.925-0.229,15.01-0.229,16.325c0,1.395-0.638,3.016-2.142,4.44
		c-0.979-2.171-2.286-3.738-3.506-4.801c-2.184-1.9-3.084-4.122-3.084-6.016c0-0.683-0.04-3.638-0.091-7.158h0.001
		c-0.06-4.084-0.134-8.931-0.178-11.883c0-0.022,0-0.045,0-0.067c-0.002-0.118-0.004-0.234-0.006-0.346c0-0.008,0-0.017,0-0.025
		c-0.004-0.252-0.008-0.487-0.011-0.703c0-0.009,0-0.02,0-0.029c-0.001-0.073-0.002-0.142-0.003-0.21
		c-0.003-0.189-0.006-0.363-0.008-0.515c0-0.005,0-0.01,0-0.015c-0.001-0.056-0.002-0.108-0.002-0.159
		c-0.002-0.131-0.004-0.247-0.005-0.339c0-0.003,0-0.005,0-0.008c-0.001-0.045-0.001-0.084-0.002-0.12c0-0.008,0-0.016,0-0.023
		c-0.001-0.028-0.001-0.052-0.001-0.072c0-0.006,0-0.013,0-0.019c0-0.022,0-0.04,0-0.049c0-0.033,0.002-0.063,0.007-0.091
		c0.03-0.182,0.151-0.283,0.28-0.395c0.011-0.009,0.021-0.019,0.032-0.028c0.021-0.019,0.042-0.038,0.063-0.058
		c0.007-0.007,0.013-0.014,0.02-0.021c0.014-0.014,0.028-0.029,0.042-0.044c0.008-0.009,0.016-0.019,0.022-0.028
		c0.013-0.015,0.024-0.029,0.035-0.045c0.008-0.01,0.015-0.021,0.021-0.033c0.011-0.016,0.021-0.034,0.029-0.051
		c0.005-0.009,0.01-0.017,0.014-0.026c0.003-0.006,0.006-0.013,0.008-0.019c0.005-0.01,0.009-0.021,0.013-0.032
		c0.006-0.013,0.011-0.026,0.015-0.041c0.002-0.007,0.004-0.015,0.006-0.023c0.003-0.01,0.006-0.02,0.009-0.03
		c0.004-0.02,0.008-0.04,0.011-0.061c0.002-0.009,0.004-0.018,0.005-0.028c0.001-0.005,0.002-0.011,0.002-0.017
		c0.005-0.038,0.007-0.078,0.007-0.121c0-0.687-0.027-1.83-0.03-2.499c0-0.044,0-0.087,0-0.127c0-0.037-0.003-0.07-0.006-0.101
		c-0.001-0.009-0.002-0.018-0.003-0.027c-0.002-0.011-0.003-0.022-0.005-0.032c0-0.001,0-0.002-0.001-0.003
		c-0.001-0.008-0.003-0.016-0.006-0.023c-0.002-0.009-0.004-0.018-0.006-0.026c-0.005-0.018-0.011-0.034-0.018-0.049
		c-0.002-0.006-0.004-0.012-0.007-0.018c0-0.001-0.001-0.002-0.001-0.003c-0.01-0.019-0.019-0.037-0.029-0.052
		c-0.002-0.002-0.003-0.003-0.004-0.005c-0.007-0.01-0.014-0.019-0.021-0.027c-0.001-0.001-0.002-0.002-0.003-0.004
		c-0.003-0.003-0.007-0.007-0.01-0.01c-0.004-0.004-0.008-0.008-0.012-0.013c-0.01-0.009-0.02-0.018-0.029-0.026
		c-0.005-0.004-0.01-0.008-0.014-0.011l-0.001-0.001c-0.001-0.001-0.003-0.001-0.004-0.002c-0.01-0.007-0.02-0.014-0.029-0.021
		c-0.003-0.002-0.007-0.005-0.01-0.007c-0.012-0.008-0.023-0.015-0.034-0.022c-0.001,0-0.002,0-0.003-0.001
		c-0.003-0.001-0.006-0.004-0.009-0.005c-0.008-0.004-0.016-0.009-0.022-0.014c-0.009-0.005-0.018-0.01-0.026-0.016
		c-0.003-0.001-0.005-0.003-0.008-0.005c-0.006-0.003-0.012-0.007-0.018-0.011c-0.02-0.012-0.038-0.025-0.057-0.04
		c-0.002-0.002-0.005-0.003-0.007-0.005c-0.002-0.001-0.003-0.002-0.005-0.004c-0.02-0.017-0.038-0.036-0.055-0.057
		c-0.048-0.061-0.082-0.143-0.09-0.272c-0.087-1.557-0.885-2.167-1.71-2.167c-0.426-0.139-1.827-0.358-3.352-0.358
		c-1.431,0-2.789,0.16-3.386,0.358c-0.824,0-1.623,0.61-1.71,2.167c-0.007,0.131-0.043,0.214-0.092,0.275
		c-0.003,0.004-0.006,0.008-0.01,0.012c-0.012,0.014-0.024,0.027-0.038,0.038c-0.003,0.002-0.006,0.004-0.009,0.007
		c-0.011,0.009-0.022,0.019-0.035,0.027c-0.004,0.002-0.009,0.005-0.013,0.008c-0.012,0.008-0.024,0.017-0.037,0.024
		c-0.003,0.001-0.005,0.003-0.008,0.004c-0.016,0.01-0.032,0.02-0.049,0.029c-0.014,0.009-0.027,0.018-0.041,0.026
		c-0.005,0.003-0.01,0.007-0.015,0.01c-0.01,0.007-0.021,0.014-0.03,0.022c-0.005,0.004-0.01,0.008-0.016,0.012
		c-0.01,0.008-0.018,0.017-0.027,0.025c-0.004,0.005-0.009,0.009-0.014,0.014c-0.011,0.012-0.021,0.025-0.03,0.039
		c-0.002,0.002-0.004,0.005-0.006,0.007c-0.011,0.017-0.021,0.035-0.03,0.055c-0.003,0.005-0.005,0.012-0.008,0.019
		c-0.006,0.015-0.012,0.031-0.017,0.049c-0.002,0.008-0.005,0.017-0.007,0.026c-0.004,0.019-0.008,0.038-0.01,0.059
		c-0.002,0.009-0.003,0.018-0.004,0.027c-0.004,0.031-0.006,0.064-0.006,0.101c0,0.04,0,0.083,0,0.127
		c-0.004,0.668-0.03,1.812-0.03,2.499c0,0.043,0.003,0.083,0.007,0.12c0,0.006,0.001,0.012,0.002,0.018
		c0.001,0.01,0.003,0.019,0.005,0.029c0.003,0.02,0.007,0.04,0.011,0.059c0.003,0.011,0.006,0.021,0.009,0.032
		c0.002,0.007,0.004,0.015,0.006,0.022c0.004,0.014,0.009,0.027,0.014,0.04c0.004,0.011,0.009,0.021,0.013,0.032
		c0.003,0.007,0.005,0.014,0.008,0.02c0.005,0.008,0.01,0.016,0.014,0.024c0.01,0.02,0.021,0.038,0.031,0.056
		c0.007,0.01,0.013,0.02,0.019,0.028c0.014,0.019,0.026,0.036,0.041,0.053c0.006,0.007,0.011,0.014,0.017,0.02
		c0.019,0.021,0.037,0.041,0.057,0.06c0.002,0.001,0.003,0.003,0.004,0.004c0.159,0.153,0.341,0.256,0.379,0.484
		c0.005,0.029,0.007,0.059,0.007,0.091c0,0.009,0,0.027,0,0.049c0,0.005,0,0.012,0,0.019c0,0.02-0.001,0.044-0.001,0.072
		c0,0.007,0,0.015,0,0.023c-0.001,0.035-0.001,0.074-0.002,0.12c0,0.003,0,0.005,0,0.008c0,0.033-0.001,0.073-0.002,0.112
		c0,0.054-0.001,0.111-0.002,0.175c0,0.018,0,0.035-0.001,0.053c-0.001,0.051-0.001,0.104-0.002,0.159c0,0.005,0,0.01,0,0.015
		c-0.054,3.752-0.295,19.251-0.295,20.936c0,1.421-0.507,3.025-1.683,4.542c-0.002-0.015-0.011-0.019-0.012-0.036
		c-0.053-0.941-0.535-1.31-1.033-1.31c-0.257-0.084-1.104-0.216-2.024-0.216c-0.863,0-1.685,0.097-2.045,0.216
		c-0.498,0-0.98,0.368-1.032,1.31c-0.005,0.079-0.026,0.129-0.056,0.166c-0.002,0.002-0.004,0.006-0.006,0.008
		c-0.007,0.008-0.015,0.016-0.023,0.023c-0.002,0-0.003,0.002-0.005,0.004c-0.007,0.005-0.014,0.011-0.021,0.016
		c-0.002,0.002-0.005,0.004-0.008,0.006c-0.007,0.004-0.015,0.01-0.022,0.014c-0.001,0.002-0.003,0.002-0.004,0.003
		c-0.01,0.006-0.021,0.012-0.03,0.018c-0.008,0.005-0.017,0.011-0.025,0.017c-0.002,0.002-0.005,0.004-0.008,0.006
		c-0.006,0.004-0.013,0.008-0.019,0.013c-0.003,0.003-0.006,0.005-0.009,0.008c-0.006,0.005-0.012,0.01-0.017,0.015
		c-0.003,0.003-0.006,0.006-0.009,0.009c-0.006,0.007-0.013,0.015-0.019,0.022c-0.001,0.002-0.002,0.004-0.003,0.005
		c-0.007,0.011-0.014,0.021-0.019,0.033c-0.002,0.003-0.003,0.008-0.005,0.011c-0.003,0.01-0.007,0.02-0.01,0.03
		c-0.002,0.005-0.003,0.011-0.004,0.016c-0.003,0.011-0.005,0.022-0.006,0.035c-0.001,0.006-0.002,0.011-0.003,0.017
		c-0.002,0.02-0.003,0.039-0.003,0.061c0,0.025,0,0.051,0,0.077c-0.003,0.404-0.019,1.095-0.019,1.511
		c0,0.025,0.001,0.049,0.004,0.072c0,0.004,0.001,0.007,0.001,0.011c0.001,0.006,0.002,0.011,0.003,0.017
		c0.002,0.013,0.004,0.024,0.007,0.036c0.002,0.007,0.004,0.013,0.005,0.02c0.001,0.004,0.003,0.009,0.004,0.013
		c0.003,0.009,0.006,0.017,0.009,0.025c0.002,0.006,0.005,0.012,0.007,0.019c0.002,0.004,0.003,0.008,0.005,0.012
		c0.003,0.005,0.006,0.01,0.009,0.015c0.006,0.012,0.012,0.023,0.019,0.033c0.004,0.006,0.008,0.012,0.012,0.018
		c0.008,0.012,0.016,0.021,0.024,0.031c0.003,0.005,0.007,0.009,0.01,0.013c0.011,0.013,0.022,0.024,0.034,0.036
		c0.001,0,0.002,0.002,0.002,0.002c0.097,0.094,0.206,0.155,0.229,0.293c0.003,0.018,0.004,0.035,0.004,0.055
		c0,0.006,0,0.017,0,0.03c0,0.003,0,0.007,0,0.011c0,0.012,0,0.026-0.001,0.043c0,0.006,0,0.01,0,0.015c0,0.021,0,0.045-0.001,0.072
		c0,0.002,0,0.003,0,0.005c0,0.021,0,0.045-0.001,0.068c0,0.032-0.001,0.066-0.001,0.105c0,0.011,0,0.021-0.001,0.031
		c0,0.031,0,0.063-0.001,0.096c0,0.004,0,0.007,0,0.01c-0.011,0.723-0.032,2.17-0.057,3.835c-1.202-1.209-1.714-2.563-1.714-3.733
		c0-0.467-0.026-2.484-0.062-4.889c-0.04-2.79-0.091-6.099-0.12-8.115c-0.001-0.016-0.001-0.031-0.001-0.046
		c-0.001-0.081-0.003-0.16-0.004-0.236c0-0.006,0-0.012,0-0.017c-0.003-0.172-0.005-0.333-0.007-0.48c0-0.006,0-0.013,0-0.02
		c-0.001-0.05-0.002-0.097-0.002-0.144c-0.002-0.129-0.004-0.248-0.006-0.352c0-0.003,0-0.007,0-0.01
		c0-0.038-0.001-0.074-0.001-0.109c-0.002-0.089-0.003-0.168-0.003-0.231c0-0.002,0-0.004,0-0.006
		c-0.001-0.031-0.001-0.058-0.002-0.082c0-0.006,0-0.011,0-0.016c0-0.019,0-0.036,0-0.049c0-0.004,0-0.009,0-0.012
		c-0.001-0.015-0.001-0.027-0.001-0.034c0-0.022,0.002-0.043,0.005-0.062c0.021-0.125,0.104-0.194,0.191-0.27
		c0.007-0.006,0.015-0.013,0.021-0.019c0.015-0.013,0.029-0.026,0.044-0.04c0.005-0.004,0.009-0.009,0.014-0.014
		c0.01-0.009,0.02-0.02,0.028-0.03c0.006-0.006,0.011-0.013,0.016-0.019c0.009-0.01,0.017-0.02,0.024-0.031
		c0.005-0.007,0.01-0.015,0.015-0.022c0.007-0.011,0.014-0.023,0.02-0.035c0.003-0.006,0.007-0.012,0.01-0.018
		c0.002-0.004,0.003-0.009,0.005-0.013c0.003-0.007,0.006-0.015,0.009-0.022c0.004-0.009,0.007-0.018,0.01-0.028
		c0.002-0.005,0.003-0.01,0.004-0.016c0.002-0.006,0.004-0.013,0.006-0.021c0.003-0.013,0.006-0.027,0.008-0.042
		c0.001-0.006,0.002-0.012,0.003-0.019c0.001-0.004,0.001-0.008,0.002-0.012c0.003-0.025,0.005-0.053,0.005-0.082
		c0-0.469-0.019-1.25-0.021-1.707c0-0.03,0-0.06,0-0.087c0-0.025-0.002-0.047-0.004-0.069c0-0.006-0.002-0.012-0.002-0.019
		c-0.001-0.007-0.002-0.015-0.003-0.022c-0.001,0-0.001-0.001-0.001-0.002c-0.001-0.006-0.002-0.011-0.004-0.016
		c-0.001-0.006-0.003-0.012-0.004-0.018c-0.004-0.012-0.008-0.023-0.012-0.034c-0.002-0.004-0.003-0.009-0.005-0.013
		c-0.001,0-0.001-0.001-0.001-0.002c-0.006-0.013-0.013-0.025-0.021-0.036c-0.001-0.001-0.001-0.002-0.002-0.003
		c-0.005-0.007-0.01-0.013-0.015-0.019c0,0-0.001-0.001-0.002-0.002c-0.002-0.002-0.004-0.005-0.006-0.007
		c-0.003-0.003-0.006-0.006-0.009-0.009c-0.007-0.006-0.013-0.013-0.02-0.018c-0.003-0.002-0.007-0.005-0.01-0.008v0
		c-0.001,0-0.002-0.001-0.003-0.002c-0.007-0.005-0.014-0.01-0.02-0.014c-0.003-0.001-0.005-0.003-0.008-0.005
		c-0.008-0.005-0.015-0.01-0.022-0.015c0,0-0.002,0-0.002-0.001c-0.003-0.001-0.005-0.002-0.007-0.004
		c-0.005-0.003-0.01-0.006-0.015-0.009c-0.006-0.003-0.013-0.007-0.019-0.011c-0.001-0.001-0.003-0.002-0.005-0.003
		c-0.004-0.002-0.008-0.005-0.012-0.007c-0.014-0.009-0.026-0.018-0.039-0.027c-0.001-0.001-0.003-0.002-0.005-0.004
		c-0.001-0.001-0.002-0.002-0.004-0.003c-0.013-0.011-0.025-0.024-0.037-0.039c-0.032-0.042-0.056-0.098-0.061-0.186
		c-0.06-1.063-0.604-1.48-1.168-1.48c-0.29-0.095-1.248-0.245-2.289-0.245c-0.977,0-1.904,0.109-2.312,0.245
		c-0.563,0-1.108,0.417-1.168,1.48c-0.005,0.089-0.029,0.146-0.063,0.188c-0.002,0.002-0.004,0.006-0.006,0.008
		c-0.009,0.009-0.018,0.018-0.026,0.026c-0.002,0.002-0.004,0.003-0.006,0.005c-0.008,0.006-0.016,0.013-0.024,0.019
		c-0.003,0.002-0.006,0.004-0.009,0.005c-0.008,0.006-0.017,0.011-0.025,0.017c-0.002,0.001-0.003,0.002-0.005,0.003
		c-0.011,0.006-0.022,0.013-0.033,0.02c-0.01,0.005-0.02,0.011-0.028,0.018c-0.004,0.002-0.007,0.004-0.01,0.007
		c-0.007,0.004-0.014,0.009-0.021,0.015c-0.004,0.003-0.007,0.006-0.011,0.009C5.416,32.688,5.41,32.694,5.404,32.7
		c-0.004,0.003-0.007,0.006-0.01,0.009c-0.007,0.008-0.015,0.017-0.021,0.026c-0.002,0.002-0.003,0.003-0.004,0.005
		c-0.008,0.011-0.015,0.024-0.021,0.038c-0.002,0.004-0.004,0.009-0.006,0.013c-0.004,0.011-0.008,0.021-0.011,0.034
		c-0.002,0.005-0.004,0.012-0.005,0.018c-0.003,0.013-0.005,0.026-0.007,0.04c-0.001,0.006-0.002,0.012-0.003,0.019
		c-0.003,0.021-0.004,0.044-0.004,0.069c0,0.027,0,0.057,0,0.087c-0.002,0.457-0.021,1.237-0.021,1.707
		c0,0.029,0.002,0.056,0.004,0.082c0.001,0.004,0.001,0.008,0.002,0.012c0.001,0.007,0.002,0.013,0.003,0.02
		c0.003,0.014,0.005,0.027,0.008,0.04c0.002,0.007,0.004,0.015,0.006,0.021c0.001,0.005,0.003,0.01,0.004,0.015
		c0.003,0.01,0.007,0.019,0.01,0.028c0.003,0.007,0.005,0.015,0.009,0.021c0.002,0.004,0.003,0.009,0.005,0.013h0.001
		c0.002,0.006,0.006,0.011,0.008,0.017c0.008,0.014,0.015,0.026,0.022,0.038c0.004,0.006,0.008,0.013,0.013,0.02
		c0.009,0.012,0.018,0.024,0.027,0.036c0.004,0.004,0.008,0.009,0.012,0.013c0.012,0.014,0.025,0.028,0.038,0.041
		c0.001,0.001,0.002,0.002,0.003,0.003c0.109,0.104,0.232,0.175,0.259,0.331c0.003,0.019,0.005,0.04,0.005,0.062
		c0,0.006,0,0.019,0,0.034c0,0.003,0,0.008,0,0.012c0,0.014-0.001,0.03-0.001,0.049c0,0.005,0,0.01,0,0.016
		c0,0.024-0.001,0.051-0.001,0.082c0,0.002,0,0.004,0,0.006c0,0.023-0.001,0.05-0.001,0.076c-0.001,0.037-0.001,0.076-0.002,0.12
		c0,0.012,0,0.023-0.001,0.036c0,0.035,0,0.071-0.001,0.109c0,0.003,0,0.007,0,0.01c-0.036,2.562-0.201,13.147-0.201,14.297
		c0,1.293-0.615,2.812-2.106,4.109C1.868,55.879,0.123,58.427,0,62.608c4.09-0.006,8.906-0.013,14.247-0.021
		c0.047,0,0.093,0,0.141,0c1.279-0.002,2.591-0.004,3.927-0.007c0.823-0.001,1.654-0.003,2.497-0.005
		c4.627-0.008,9.537-0.018,14.631-0.028c1.87-0.004,3.767-0.008,5.679-0.013c4.977-0.011,10.077-0.023,15.211-0.037
		C56.126,57.881,54.179,55.047,52.443,53.537z" class="color c1"/>
  </g>
</svg>