<svg version="1.1" id="图层_1" x="0px" y="0px" width="240.766px" height="156.477px" viewBox="0 0 240.766 156.477" enable-background="new 0 0 240.766 156.477" xml:space="preserve" xmlns="http://www.w3.org/2000/svg" xmlns:xlink="http://www.w3.org/1999/xlink" xmlns:xml="http://www.w3.org/XML/1998/namespace">
  <path fill="#106370" d="M51.924,4.467c0,0,0,0.102-0.051,0.102h-0.075L51.924,4.467z M33.035,108.115
	c-0.526,0.101-1.029,0.302-0.903,1.004c0,0.5,0.528,0.902,1.028,1.004c0.576,0.051,0.901-0.402,0.901-1.004
	C34.063,108.567,33.688,108.214,33.035,108.115z M197.209,19.718c-1.105-0.198-1.808-0.299-2.311,0.201
	c-0.148,0.15-0.099,0.651,0.051,0.702C195.803,21.125,196.355,20.573,197.209,19.718z M27.768,114.434
	c-0.4,0-0.902,0.05-0.776,0.402c0.198,0.703,0.902,0.804,1.555,0.904c0.127-0.201,0.502-0.303,0.502-0.402
	C29.047,114.484,28.344,114.484,27.768,114.434z M13.421,144.687c-0.503,0-1.029,0-1.532,0c-0.451,0.051-1.152,0.051-1.027,0.652
	c0.201,0.803,1.027,0.903,1.731,0.953c0.325,0,0.651,0.051,0.901,0.051c0.252,0.198,0.502,0.198,0.778-0.051c0.25,0,0.5,0,0.752,0
	c0,0,0.15-0.15,0.15-0.251c0.125-0.202,0-0.4-0.15-0.501C14.647,145.037,13.87,145.24,13.421,144.687z M33.538,144.234
	c-0.503,0-0.755,0.252-0.628,0.652c0.05,0.503,0.25,0.953,0.502,1.406c0.198-0.353,0.524-0.503,0.649-0.854
	C34.188,144.937,34.063,144.486,33.538,144.234z M26.864,150.606c0.253,0.251,0.503,0.503,0.778,0.702
	c0.3,0.201,0.626,0.05,0.626-0.249c0.075-0.453-0.326-0.651-0.753-0.702C27.24,150.407,27.066,150.555,26.864,150.606z
	 M201.221,22.529c-0.15-0.101-0.451-0.149-0.702-0.302c-0.05,0.302-0.101,0.504-0.251,0.651c0.251,0.15,0.502,0.353,0.652,0.252
	C201.121,23.081,201.171,22.731,201.221,22.529z M3.912,79.318C2.684,78.869,1.53,77.914,0,79.418
	c1.404,1.004,2.684,0.602,3.912,0.702c0.325,0,0.578,0,0.828,0.101c0.526,0.302,1.028,0.302,1.555-0.101
	c0,0,0.076-0.102,0.126-0.301c0.075-0.2,0-0.302-0.2-0.503C5.467,79.318,4.689,79.318,3.912,79.318z M10.283,122.964
	c0.051,0,0.2-0.102,0.252-0.201c-0.126-0.252-0.376-0.252-0.577,0C10.033,122.865,10.159,122.964,10.283,122.964z M240.753,99.986
	c0.15,2.66-1.003,4.315-4.163,4.668c-2.609,0.249-5.068,1.203-7.627,1.755c-2.708,0.604-4.965,2.107-7.424,3.261
	c-0.052-0.051-0.052-0.198-0.2-0.351v0.103l0.2,0.248c-1.455,1.756-2.709,4.063-5.568,3.964c0-0.099,0-0.199-0.051-0.25
	c-0.102,0-0.102,0.051-0.102,0.051l0.151,0.199c-0.904,1.555-2.057,2.508-4.014,2.407c0-0.102-0.051-0.198-0.051-0.299
	c-0.052,0-0.052,0.101-0.052,0.101l0.103,0.198c-0.301,0.604-0.903,0.753-1.505,0.804l-0.252-0.25l0,0
	c0.101,0.05,0.15,0.199,0.252,0.25c-1.956,1.554-4.315,2.108-6.421,3.159c0-0.048-0.102-0.198-0.15-0.249v0.051l0.15,0.198
	c-1.706,2.059-3.864,3.063-6.474,3.211c0-0.148,0-0.148-0.05-0.249h-0.05l0.1,0.249c-1.054,0.954-2.559,1.256-3.963,1.604
	c0-0.048,0-0.147,0-0.299c-0.05,0.05-0.15,0.05-0.15,0.05l0.15,0.249c-0.252,0.555-0.903,0.753-1.506,0.854l-0.25-0.3h-0.051
	c0.15,0.101,0.251,0.198,0.301,0.3c-4.514,2.559-8.979,5.618-14.448,6.32c0-0.099,0-0.148,0-0.148s0,0-0.05,0l0.05,0.148
	c-0.5,0.902-1.403,0.705-2.257,0.902c-3.662,2.509-7.324,5.118-12.191,4.518l0.052-0.052c-0.652,0.903-1.656,0.351-2.408,0.854
	l0.051-0.101c-0.703,1.004-1.854,0.399-2.709,0.902l-0.251-0.101l-0.201,0.201c-0.501,0.95-1.454,0.752-2.307,0.803
	c-0.05-0.051-0.151-0.102-0.151-0.102l0,0l0.151,0.102c-0.401,0.652-0.954,0.803-1.557,0.854l-0.251-0.252l0,0
	c0.051,0.052,0.151,0.201,0.251,0.252c-2.356,1.854-5.116,2.455-8.075,2.357c0-0.051,0-0.201,0-0.302
	c-0.103,0.05-0.151,0.05-0.151,0.05l0.151,0.252c-0.252,0.602-0.904,0.702-1.507,0.854l-0.2-0.252l0,0c0,0.052,0.15,0.201,0.2,0.252
	c-1.454,1.254-3.211,0.449-4.815,0.752c-3.913,0.4-7.074,3.562-11.188,3.16c0-0.05,0-0.149-0.049-0.149c-0.076,0-0.076,0-0.076,0
	l0.125,0.149c-1.153,2.157-2.684,1.455-4.237,0.652c-0.502-0.201-0.954-0.101-1.404,0.101c-0.378,0.3-0.703,0-1.029-0.2
	c-0.201,0.149-0.376,0-0.526,0.149c0.526,0,1.028,0.051,1.557,0.051c-0.904,1.253-2.258,0.702-3.463,0.702
	c0.126-0.201,0.252-0.353,0.377-0.602l0,0c0.125,0.399,0.075,0.602-0.377,0.602c-0.728-0.303-1.43-0.201-2.057,0.102
	c-0.777,1.201-2.058,0.701-3.086,0.902c-1.431,1.304-3.234,0.45-4.841,0.804l-0.177-0.201l0,0c0.05,0.101,0.126,0.149,0.177,0.201
	c-0.628,3.109-3.262,2.707-5.065,2.104c-3.012-1.004-5.973-0.352-8.479,0.501c-5.92,1.907-11.766,1.104-17.609,1.155
	c-1.68,1.453-3.735,1.252-5.667,1.252c-1.154-0.05-2.31-0.198-3.413-0.399h-0.176c-0.651-0.402-1.479-0.303-1.932-1.004
	c0,0.151,0,0.202,0,0.303c0.627,0.201,1.279,0.499,1.932,0.701c-1.555,0-3.086,0.552-4.391-0.601c0-0.102,0.076-0.102,0.151-0.102
	l0,0l-0.151,0.102c-0.576-0.102-1.152-0.102-1.654-0.201c-0.251-0.051-0.526,0-0.651,0.201c-0.25,0.197-0.502,0.449-0.778,0.701
	c-0.501,0.804-1.077,0.804-1.655,0c-0.651-0.102-1.277-0.201-1.556-0.902c-0.325-0.252-0.626-0.202-1.027,0l-0.251-0.051
	l-0.326,0.15c-1.403,0.701-2.959,0.201-4.439,0.299c-0.124-0.098,0.151-0.098,0.075-0.197c-0.375-0.102-0.701,0.248-1.104,0.05
	c-0.302-0.05-0.626-0.149-0.878-0.149c-0.401-0.505-1.18-0.354-1.555-0.804c-0.578,0.05-1.154,0.05-1.683,0.05
	c-1.855,0.45-3.713,0.552-5.519,0c-0.777-0.05-1.53-0.05-2.308-0.149c-1.154,0-2.384,0.5-3.286-0.603
	c-0.451-0.101-0.954-0.101-1.405-0.2c-0.576-0.304-1.305-0.252-1.805-0.702h0.076c-0.402-0.102-0.854-0.102-1.182-0.252
	c-0.501-0.201-0.953-0.552-0.753-1.104c0.252-0.552,0.703-0.753,1.279-0.501c0.776,0.252,1.48,0.302,2.434,0.151
	c-0.752-0.603-1.278-1.005-1.854-1.455l-0.326-0.05h-0.325c-0.954-0.804-2.36,0.05-3.337-0.804l-0.327-0.051h-0.375
	c-0.902-0.752-2.31,0.151-3.286-0.752h0.075c-0.979-0.101-2.584,0.198-2.183-1.206c0.376-1.807,1.729-1.402,2.885-0.5
	c0.199,0.15,0.451,0.201,0.702,0.15c1.029,0.854,2.308,0,3.286,0.753c0.501,0,0.954,0.101,1.479,0.101
	c0.375,0.249,0.626,0.4,1.029,0c0.249,0,0.5-0.101,0.777-0.15c0.25-0.251,0.5-0.453,0.752-0.702c0,0.249,0,0.451,0,0.702
	c0.7,0.051,1.428,0.15,2.181,0.15c5.795,0,11.591,0,17.358,0.05H52.9c0.052,0,0.052,0,0.052,0l-0.052-0.05
	c0.954,0.299,1.933-0.201,2.886-0.302c1.153-0.101,1.682-0.403,2.961-2.61c-4.113-0.7-8.103-0.05-12.092-0.448h-0.251
	c-1.68-0.151-3.611,0.901-5.017-0.854c-1.856,0.803-3.788,0.201-5.644,0l-0.275-0.051l-0.252,0.151
	c-0.902,0.05-1.855,0.248-2.557-0.603c-1.182-0.101-2.209-0.251-3.362-0.402c-0.503,0.151-1.029,0.201-1.479,0.303
	c-0.827,0.051-1.856-0.201-2.308,0.249c-2.106,1.958-4.691,1.055-7.249,1.355c1.529-1.406,1.529-1.555,3.461-1.406
	c0.903,0.051,1.229-0.198,1.279-1.002c-0.176-0.051-0.376-0.101-0.577-0.101c-0.952-0.302-1.932-0.702-3.009-1.104
	c1.026-1.555,2.057-0.102,2.959-0.399c0.125,0.098,0.375,0.098,0.501,0c2.434,0.299,5.018-0.752,7.325,0.854
	c0.25,0.148,0.651,0.148,0.902,0c1.278,0,2.435,0,3.735,0c2.635,0,5.27-0.051,7.902-0.051c0.826-0.101,1.604-0.302,1.604-1.307
	c0.05-0.902-0.526-1.504-1.279-1.706c-1.153-0.399-2.458,0.101-3.412-0.903l0,0c-1.854-0.5-3.786,0.604-5.468-0.85
	c-0.251,0-0.501,0-0.775,0.05c-1.28,0.8-2.435,2.507-4.114,0.501c-0.126-0.101-0.376-0.252-0.576-0.302
	c-0.503,0.101-0.453-0.3-0.503-0.603c-0.075,0.102-0.125,0-0.201,0.102c0.251,0.201,0.527,0.302,0.704,0.501
	c-0.177,0.101-0.453,0.302-0.704,0.452c-0.325-0.201-0.65-0.402-0.951-0.555c-0.979-0.098-2.009-0.146-3.037-0.299
	c-0.45-0.051-0.95-0.051-1.402-0.252c-0.527-0.15-0.903-0.65-0.779-1.151c0-0.604,0.528-0.807,1.029-0.807c1.681,0,3.337,0,5.018,0
	l0,0c0.25-0.397,0.651-0.898,1.278-0.799c5.143,0.4,10.159-1.205,15.377-0.903c0.3-0.252,0.576-0.453,0.828-0.803
	c0.501,0,1.026,0,1.528,0c0.076-0.803-0.377-1.505-0.752-2.209c-0.275,0-0.575,0-0.854,0.05l0,0c-0.051,0-0.176,0-0.176,0
	c-0.451,0.151-0.853,0.201-1.305,0.051l0,0c-3.388,0.702-6.798,0.402-10.282,0.402c-0.878-0.051-0.756-0.903-0.178-1.505
	c-0.074-0.705,0.178-2.311-0.979-1.958c-2.056,0.552-2.56-1.104-3.787-1.856c-0.252-0.101-0.502-0.101-0.777-0.101
	c-0.176-0.3,0.075-0.501,0.199-0.753c-0.124,0-0.124,0-0.25,0c0,0.252,0,0.554,0.051,0.753c-0.303-0.199-0.578-0.501-0.828-0.753
	c-1.807,0-3.586,0-6.422,0c3.587-1.955,6.548-2.357,9.508-2.506c1.403-0.903,2.885-1.256,4.439-1.604
	c1.278-0.252,2.683-0.554,2.758-2.311c0.126-1.755-1.479-1.556-2.434-2.058c-0.451-0.2-1.027-0.252-1.554-0.401h-0.251H32.66
	c-0.277-0.5-0.528-1.002-0.854-1.505c0.525,0,1.027,0,1.555,0c3.662,1.005,7.575,0.753,11.237,2.311
	c0.2-3.865,0.2-3.865-3.211-5.521l-0.251-0.147H40.81c-0.326,0.047-0.701,0.147-1.104,0.147c-0.502-1.202-0.451-2.006,1.028-2.308
	c0.777-0.149,1.556,0,2.207-0.602c0.125-0.102,0.25-0.302,0.25-0.45c0,0-0.073,0-0.125,0c0,0.148,0,0.35-0.125,0.45
	c-0.776-0.102-1.556-0.201-2.333-0.302c-2.433-0.3-4.941,0.704-7.197-0.702c-0.177-0.15-0.377-0.15-0.578-0.15
	c-2.759,0.302-5.191-0.552-7.826-1.152c0.125-0.452,0.176-0.701,0.176-0.701c4.389,0.2,8.804,0.398,13.193,0.601
	c0.177,0,0.377,0.353,0.578,0.501c1.604-0.101,3.211-0.101,4.815-0.148c0-0.2-0.076-0.353-0.076-0.452
	c-0.375-0.102-0.902-0.102-1.354-0.251c-0.303-0.199-0.126-0.451-0.051-0.753c0,0-0.075,0-0.125,0c0,0.302,0.05,0.554,0.125,0.753
	c-1.48-0.049-2.886-0.553-4.113-1.455l0.05-0.198h-0.05c0,0.098,0,0.098,0,0.198c-2.057-0.351-4.314,0.554-6.295-0.702
	c-0.778-0.05-1.556-0.102-2.312-0.201c-1.304-0.803-2.834,0.101-4.11-0.702c-0.528,0-0.904-0.101-1.433-0.101
	c-2.183,0-4.438,0.504-6.346-1.404c0.953-1.104,1.78-0.15,2.484-0.201c2.582-0.248,5.142,0.504,7.85-0.65
	c1.154-0.501,3.087,0.555,4.644,1.354c-0.151,0.101-0.151,0.201-0.201,0.252h0.05c0,0.201,0.075,0.402,0.151,0.651h0.123
	c-0.123-0.198-0.4-0.399-0.274-0.651l0.151-0.252c0.5,0,1.026,0.101,1.527,0.101c-0.201-2.604,1.605-2.356,3.286-2.308
	c0.251,0,0.451-0.05,0.703-0.101c0.25-0.499,0.502-1.001,0.777-1.505l0,0c-0.729-0.701-1.683-1.004-2.384-1.605
	c-2.133-0.398-4.364,0.804-6.37-0.751c-0.777,0-1.529-0.051-2.309-0.051c-1.807-1.001-3.864,0.202-5.669-0.702
	c-0.502,0-1.029-0.101-1.53-0.101c-0.126-0.903,0.125-1.656,0.651-2.308c-0.276-0.051-0.526-0.051-0.727-0.101l-0.253-0.202
	c-0.051,0.051-0.051,0-0.126,0.051c-0.072,0-0.072,0-0.072,0.05c0.147-0.05,0.324-0.101,0.451,0.103
	c0.449,0.751,0.449,1.604,0.074,2.407c-1.028-0.5-0.777-1.455-0.954-2.308c-0.399,0-0.776-0.051-1.178-0.051
	c-0.578-0.05-1.406,0-1.48-0.854c-0.124-0.952,0.652-1.402,1.431-1.453c2.308-0.15,4.614-0.051,6.949-0.051
	c0.5-0.15,1.026-0.202,1.528-0.3c-0.377-1.807-1.933-1.205-3.135-1.306c-2.009-0.351-4.315,0-4.315-3.161
	c0-0.854-0.902-0.854-1.556-0.752c-0.702,0.201-1.403,0.501-2.182,0.702l0,0h-0.377h-0.4c-0.126,1.104-0.502,1.807-1.729,0.902
	c-1.08-0.803-1.53-2.008-2.185-3.211c-0.776,0-1.479-0.101-2.257-0.15c-0.702-0.45-0.628-0.953-0.25-1.556h0.073
	c0-0.252,0-0.5,0-0.803c-0.901,0-1.881,0.151-2.383-0.803c0.326-0.201,0.502-0.5,0.776-0.802c0-0.302,0.052-0.553,0.126-0.904
	l-0.074,0.101c-0.175-0.101-0.25-0.302-0.175-0.5c0-0.201,0.123-0.302,0.123-0.302l0,0c0.326-0.201,0.578-0.552,0.904-0.753
	c0.176,0.05,0.376,0.15,0.502,0.05c2.006,0.151,3.988,0.302,5.919,0.403l0,0c1.028-0.051,2.059-0.252,2.96,0.199
	c0.326,0,0.627,0,0.904,0c1.604-1.305,3.537-0.401,5.266-0.703c1.405-0.201,2.961,0.651,4.115-0.701
	c0.125-0.101,0.176-0.101,0.3-0.201c0.527-0.25,0.854,0.102,1.229,0.302c0-0.05,0.076,0,0.076-0.05c0.323,0,0.575,0.05,0.901,0.05
	c-0.075-0.101-0.201,0-0.201-0.101c-0.25,0.051-0.449,0.252-0.7,0.051c-0.453-0.051-0.854-0.15-1.307-0.252
	c0-0.101-0.049-0.101-0.049-0.101c-0.126,0-0.126,0.201-0.251,0.302c-4.238-0.302-8.504-0.604-12.793-0.854
	c-0.778-0.051-1.605-0.051-2.133-0.7c-1.027-0.052-2.107-0.151-3.135-0.151c-2.134,0-4.188,0-6.372-0.101
	c-0.651,0-1.278-0.451-1.278-1.152c-0.127-0.904,0.627-1.105,1.278-1.156c2.835-0.449,5.519-2.508,8.604-0.802
	c0.274-0.05,0.576-0.05,0.901-0.05c0.201-0.151,0.451-0.151,0.704,0c0.324,0,0.574-0.051,0.853-0.051
	c1.152-1.152,2.758-0.198,4.037-0.804c-0.576-1.052-1.982-0.299-2.508-1.403c-0.953-0.051-1.934-0.051-2.96-0.102
	c-1.204-0.803-2.685,0.051-3.988-0.803c0,0.101-0.126,0-0.126,0.101L8.67,65.67h0.051c-0.902-0.201-1.729-0.603-0.451-1.104
	c0.854-0.3,1.756,0.151,2.635,0.102c1.104-0.102,2.205,0.101,3.361,0.201c0.5,0,1.027-0.102,1.529-0.102
	c0.326-0.35,0.401-0.902,0.776-1.253v-0.051c-0.2,0.501,0.252,1.304-0.776,1.304c-0.377-0.702-0.777-1.304-0.777-2.156
	c0.15-0.051,0.275-0.15,0.4-0.15c-0.074-0.05-0.125-0.05-0.125-0.102l-0.275,0.252c-0.628-0.353-0.752-0.902-0.879-1.555
	c-0.852-0.904-1.43-1.856-0.776-3.11c1.153-2.205,1.403-4.616,1.529-6.926c0.075-0.95,0.777-1.102,1.154-1.604
	c0.075-0.05,0-0.098,0.075-0.098h0.075c0.375-0.503,0.5-1.355,1.278-1.757c-0.251-0.149-0.525-0.149-0.778-0.149
	c-0.5-0.201-1.027-0.354-1.027-0.903c-0.05-0.803,0.65-0.551,1.104-0.602c0.125,0.051,0.301,0.051,0.451,0
	c0.376,0.101,0.626,0.449,1.029,0.602v0.15c0.25-0.051,0.5-0.051,0.752,0c0.274,0.249,0.524,0.45,0.854,0.753h-0.075
	c0.251,0,0.575,0,0.827,0c0.275,0.302,0.525,0.551,0.854,0.701c0.25,0.102,0.5,0.102,0.752,0.102c0.2,0.252,0.45,0.45,0.727,0.702
	c0.501,0.251,1.078,0.649,1.605,0.101c3.787,2.155,7.701,2.308,11.813,1.303c2.71-0.602,5.396-1.453,8.18-1.303
	c0.05,0.102,0.05,0.15,0.05,0.201c0,0,0.075,0,0.126,0l-0.176-0.201c0.701-1.256,2.508-0.303,3.135-1.604l-0.25-0.102L47.1,47.412
	c-0.125-0.201-0.201-0.504-0.252-0.702l0,0c0.051,0.198,0.328,0.399,0.252,0.702c-6.674,0.302-13.17-0.403-19.415-3.061
	c0.075-0.051,0.126-0.15,0.201-0.202l0,0l-0.201,0.202c-1.73-0.15-3.462-0.202-4.689-1.656l-0.126-0.302l-0.325,0.15
	c-0.452-0.05-0.828-0.353-1.078-0.752l0,0c-1.029-0.603-2.459-0.501-3.086-1.757v0.051c-1.029-0.201-1.682-0.903-2.333-1.808
	c0-0.101-0.051-0.15-0.126-0.299c-0.176-0.402-0.828-0.303-0.953-0.803c0.051-0.101,0.051-0.101,0.201-0.151
	c-0.076,0-0.076,0-0.15,0l-0.051,0.151c-0.252-0.353-0.451-0.604-0.701-0.854c-1.479-1.556-0.703-3.16-0.127-4.767
	c-0.399-0.402-0.776-1.004-0.399-1.355c1.805-1.556,2.057-3.763,2.759-5.867l0.275-0.103c0-0.101,0.125,0,0.125-0.101
	c-0.125,0.101-0.2,0.202-0.4,0.202c-0.577-0.504-1.204-1.005-1.655-1.605c-0.452-0.554-0.401-1.457,0.451-1.457
	c4.115,0.05,8.354-0.753,12.467,0.654c0.25,0.198,0.376,0.198,0.627,0.101c2.509-0.101,5.019-0.101,7.475-1.307
	c-1.555-1.004-3.485,0.303-4.891-1.054l-0.326-0.199h-0.375c-1.731-0.15-3.613,0.651-5.345-1.055
	c2.384-0.854,4.491-1.403,6.698-1.304c5.268,0.249,10.535-0.101,15.727-0.803c0.979-0.101,1.808-0.201,1.881-1.457
	c0.052,0,0.127-0.05,0.178-0.05c-0.051-0.099,0.074-0.099,0.074-0.148l-0.252,0.198c-0.776-0.35-1.555-0.551-2.332-0.899
	c0-1.257,0.15-2.312,1.683-2.459c1.68-0.102,1.479-1.457,1.68-2.51c-0.401-0.101-0.652-0.401-0.853-0.802l0.074,0.05
	c-1.153-0.252-1.807-0.853-0.776-2.059c0.651-0.651,1.43-1.004,2.308-0.903c0,0,0,0,0,0.103c0.151-0.501,0.401-0.702,0.854-0.804
	c1.077-1.151,2.23-1.854,3.786-0.954c1.605,0.354,3.337-0.35,4.767,0.954l-0.074-0.102c0.576,0.303,1.229,0.202,1.73,0.702
	l0.125,0.202l0.325-0.103c0.828,0.453,2.008,0,2.709,0.803h-0.073c1.229,0.903,2.885-0.35,4.063,0.903
	c-0.074,0-0.074-0.101-0.074-0.101c2.434,0.202,5.017-0.95,7.322,0.803c0.904,0.302,1.808,0.353,2.761,0
	c1.757-0.148,3.411-0.148,5.094-0.702c1.278-0.35,2.885-0.701,4.112,0.604c0.25,0,0.5,0,0.777,0.098
	C89.921,6.571,91,6.77,92.03,6.77c3.938,0.051,7.851,0.051,11.839,0.102l0.252,0.101l0.25-0.149
	c1.278-1.454,3.084-0.754,4.766-0.852c1.656-0.05,3.336,0.098,5.017,0.098c0.252,0.102,0.378,0,0.577-0.146
	c2.232-1.458,4.816-0.453,7.25-0.705c-0.377,0.302-0.703,0.554-1.028,0.853c0,0.202,0,0.304,0,0.403
	c0.075-0.602,0.525-1.004,1.028-1.256c0.274,0,0.526-0.051,0.777-0.148c1.555-1.306,3.461-0.503,5.268-0.701
	c1.682-0.102,3.336-0.051,5.092-0.102c0.679-0.853,1.58-0.654,2.482-0.503h-0.147c1.955-1.905,4.411-0.602,6.521-0.904
	c0.201,0.151,0.451,0.151,0.604,0c0.301-0.35,0.551-0.299,0.752,0l0,0c6.17-0.7,12.341-1.402,18.662-0.902
	c2.96,0.202,5.77,0.202,8.479-1.403c0.652-0.35,1.655-1.052,2.508,0l0.202,0.101l0.099-0.101c2.812,0.702,4.364,2.812,5.67,5.168
	c-0.252-0.651-0.149-1.454-1.153-1.807c-1.756-0.5-2.308-3.16-4.517-3.361c3.714,0,7.275,3.211,7.677,6.975
	c-0.102,0.052-0.15,0.052-0.199,0.148l0,0l0.199-0.148c1.205,0.754,2.157,1.656,2.407,3.16l-0.198,0.102l0,0
	c0.099,0,0.147-0.05,0.198-0.102c0.953,0.753,1.857,1.905,3.013,2.309c2.708,0.803,0.65,1.655,0.147,2.509
	c-0.147,0.051-0.147,0.051-0.25,0.051c0,0.05,0,0.148,0.051,0.148l0.199-0.199c0.252,0.249,0.503,0.501,0.752,0.753l-0.098,0.146
	c0,0,0,0,0.048,0c0,0,0.05-0.098,0.05-0.146c1.156,0.146,2.408,0.05,3.515,0.399c1.053,0.353,2.155,0.554,1.403,2.458
	c-0.903,2.407,0.501,3.813,2.96,3.613c0.902-0.202,1.807-0.504,2.708-0.702c0.554-0.101,1.255,0.399,1.004,0.851
	c-1.556,2.66,0.902,3.765,2.106,5.067c1.154,1.304,1.505,2.711,1.505,4.315c-0.148,0-0.148,0.101-0.25,0.15l0,0l0.25-0.15
	c1.406,1.004,2.859,2.005,3.211,4.014c-0.049,0-0.148,0.051-0.148,0.051l0,0l0.148-0.051c0.252,0.248,0.502,0.5,0.754,0.752
	l-0.252,0.249c0,0.102,0.051,0.102,0.051,0.102c0.102-0.148,0.15-0.198,0.201-0.351c0.25,0.249,0.5,0.552,0.804,0.752
	c0.55,0.4,0.752,1.005,0.803,1.556c1.303,0.753,1.604,1.958,1.604,3.262c-0.05,0-0.101,0-0.101,0.101l0,0l0.101-0.101
	c0.552,0.35,0.702,0.903,0.854,1.555c1.304,4.064,1.004,5.068-1.756,6.474c0,0,0-0.151-0.052-0.201c-0.05,0,0,0.05-0.05,0.05
	l0.102,0.151c-0.502,0.55-1.004,1.054-1.504,1.604c0.099,0.15,0.351,0.15,0.601,0c1.604-0.101,3.11,0.15,4.013,1.808h-0.05
	c0.954,0.196,1.757,0.802,2.509,1.505V55.44c0.402,0.398,1.205,0.201,1.505,0.902c2.51,1.052,3.563,3.409,4.917,5.417
	c0.25,0.303,0.553,0.501,0.752,0.903v-0.051c3.212,0.552,3.263,0.651,2.71,3.464c-0.149,1.001-0.25,2.056-0.4,3.009l-0.102-0.05
	c0.754,0.349,0.603,1.154,0.953,1.604l-0.101-0.051c1.104,0.601,2.458,0.5,3.361,1.505c1.152,0.201,1.555,0.701,0.4,1.404
	c-0.502,0.302-1.305,0.201-1.956,0.302c0-0.101-0.051-0.101-0.101-0.101l0,0l0.101,0.101c-0.051,0.601-0.251,1.205-0.902,1.505
	c0,0-0.052-0.101-0.102-0.101l0,0l0.102,0.101c-0.15,0.5-0.503,0.701-1.003,0.601l0,0c-0.201,0.704-1.056,0.604-1.507,0.904h0.102
	c1.152,1.705,2.81,2.811,4.866,3.312c0.7,0.101,1.305,0.302,1.504,1.004c-0.1,0-0.1,0-0.1,0l0,0c-0.101,0-0.201-0.102-0.252-0.102
	c0.051,0,0.151,0.102,0.252,0.102c0.45,0.051,0.804,0.302,0.804,0.803v-0.101c0.9,0.101,1.453,1.004,2.308,1.304
	c3.611,1.004,4.465,3.513,4.114,6.824l-0.151,0.299l0.25,0.252c0.553,0.453,0.452,1.154,0.653,1.807l-0.102-0.05
	c0.804,0.201,0.603,1.003,1.004,1.505l-0.051-0.051c0.803,0.353,0.902,1.054,0.803,1.757c-0.102,0.201-0.102,0.402,0.101,0.55
	c0.953,0.555,0.803,1.556,0.803,2.357c0,0.101-0.049,0.101-0.1,0.151c0,0,0,0,0.051,0l0.049-0.151
	C240.502,98.785,240.652,99.384,240.753,99.986z M11.111,70.69c-0.049,0-0.124-0.101-0.198-0.251
	c-0.052,0.251-0.252,0.251-0.503,0.353C10.66,70.791,10.912,71.039,11.111,70.69z M36.496,105.605L36.496,105.605h0.075l0,0H36.496z
	 M235.637,101.944c0.4,0,0.752,0.45,1.203,0.252c0.953-0.402,0.953-1.406,1.305-2.21
	C237.542,101.091,236.789,101.743,235.637,101.944z M169.816,134.501L169.816,134.501c-0.452-0.351-0.953-0.752-1.405-1.103
	c-0.099,0.051-0.148,0.051-0.148,0.051C168.913,133.597,169.615,133.597,169.816,134.501z M113.003,148.55
	c-0.075-0.101,0-0.252,0.048-0.403c-0.048,0.151-0.123,0.304-0.199,0.304C112.852,148.45,112.928,148.55,113.003,148.55z
	 M37.273,21.828c0.126,0,0.252,0,0.377,0c0,0-0.051,0-0.051-0.103C37.525,21.828,37.399,21.726,37.273,21.828z M231.773,89.101
	c0,0,0,0,0.049,0H231.773z M96.271,150.958L96.271,150.958c-0.051,0.101-0.051,0.201-0.125,0.299c0.125,0,0.199-0.098,0.25-0.098
	L96.271,150.958z M47.684,104.802c-0.051,0-0.125,0-0.125,0l0,0H47.684L47.684,104.802z M31.229,70.19c0,0,0-0.102,0.076-0.102
	c-0.127,0-0.2-0.151-0.275-0.202c0-0.101-0.051-0.101-0.051-0.15c0,0,0-0.051-0.125-0.051c0.05,0,0.05,0,0.125,0.051
	c0,0.051,0,0.051,0.051,0.15C31.104,69.987,31.178,70.088,31.229,70.19z M19.289,62.062c-0.275-0.101-0.652-0.201-0.979-0.303
	c0,0.102,0,0.151-0.049,0.151c0,0.051,0.049,0.051,0.049,0.051C18.637,61.558,18.963,62.062,19.289,62.062z M58.093,141.426
	c0,0-0.05,0-0.126,0l0,0C58.043,141.426,58.093,141.426,58.093,141.426L58.093,141.426z M50.268,136.711
	c0-0.052,0.051-0.052,0.051-0.103c-0.051-0.101-0.176-0.15-0.326-0.2v0.05c0.074,0.051,0.15,0.051,0.275,0.15
	C50.268,136.66,50.268,136.66,50.268,136.711z M33.16,77.813c0.126,0.151,0.326,0.354,0.2,0.603v-0.051c0-0.198,0-0.45,0-0.651
	C33.286,77.712,33.286,77.712,33.16,77.813z M58.093,21.125L58.093,21.125c-0.05-0.202-0.126-0.303-0.126-0.102
	c0.076,0.102,0,0.198,0,0.3C58.043,21.274,57.967,21.223,58.093,21.125v0.098V21.125L58.093,21.125L58.093,21.125z M69.532,23.933
	c-0.252,0.201-0.827,0.252-0.504,0.603c0.326,0.604,1.23,0.503,1.982,0.302C70.436,24.836,69.934,24.434,69.532,23.933z
	 M114.732,10.288c0.177-0.102-0.25-0.651-0.075-0.252c0.127,0.15,0,0.15-0.123,0.252C114.608,10.288,114.656,10.288,114.732,10.288z
	 M70.836,112.728c0.051,0.102,0.125,0.201,0.252,0.303c0.125,0-0.127-0.15,0-0.15C71.012,112.829,70.887,112.829,70.836,112.728
	L70.836,112.728z M51.924,62.962c0.076-0.098,0.124-0.198,0.199-0.351h-0.075C52,62.764,52,62.865,51.924,62.962z M54.756,58.347
	c-0.073,0.102-0.123,0.102-0.123,0.151C54.633,58.448,54.756,58.448,54.756,58.347z M51.672,61.007
	c-0.075,0.051,0.076,0.201,0,0.252c0,0,0,0,0,0.098C51.672,61.208,51.672,61.058,51.672,61.007z M51.295,72.448
	c0.051,0.05,0,0.05,0.051,0.146c0-0.098,0-0.146,0.076-0.198C51.295,72.396,51.422,72.448,51.295,72.448z M54.104,72.497
	c0.151-0.05,0.278-0.102,0.401-0.201c-0.123,0.101-0.25,0.101-0.324,0.101C54.256,72.448,54.104,72.448,54.104,72.497z
	 M55.71,72.094c0.075,0.101,0.075,0.101,0.15,0.151C55.785,72.246,55.785,72.195,55.71,72.094L55.71,72.094z M39.857,80.823
	c0.252,0,0.252,0.101,0.429,0.101c0.073,0-0.052-0.051,0.073-0.051C40.159,80.873,40.033,80.823,39.857,80.823z M145.084,18.063
	c-0.101-0.051-0.101,0-0.101,0s-0.051,0-0.102,0C144.984,18.063,144.984,18.063,145.084,18.063z M171.723,16.208
	c-0.051-0.102-0.102,0-0.102-0.102c0,0.102,0,0.102,0,0.102S171.672,16.208,171.723,16.208z M156.572,8.934
	c0.753,0.45,1.104,1.152,1.003,2.057c0,0,0.102,0,0.15,0C157.476,10.187,156.873,9.636,156.572,8.934L156.572,8.934z
	 M129.256,32.061c0.578,0.302,1.078,0.5,1.981,0.804c-0.377-0.854-0.051-1.404-0.051-2.106
	C131.062,31.859,130.284,32.211,129.256,32.061z M74.823,123.166h0.05l0,0H74.823z M70.836,116.341c0,0,0,0,0,0.101
	c0-0.101,0-0.2,0.125-0.149C70.887,116.241,70.836,116.341,70.836,116.341z M66.897,136.008c0,0,0.075,0,0.075-0.05c0,0,0,0-0.075,0
	C66.897,136.008,66.897,136.008,66.897,136.008z M73.521,134.354c-0.126-0.402,0.075-0.854,0-1.256
	c-0.126,0.402,0,0.854-0.251,1.256C73.345,134.354,73.471,134.354,73.521,134.354z M66.848,136.66L66.848,136.66v-0.051V136.66z
	 M72.24,138.215c-0.502,0.602-1.152,0.903-1.931,0.954c0.701-0.252,1.429-0.756,2.058-0.756
	C72.367,138.316,72.24,138.265,72.24,138.215z M110.545,139.921c-0.453,0-0.904,0-1.355,0l0,0
	C109.641,140.019,110.092,139.72,110.545,139.921L110.545,139.921z M89.975,144.435c-0.05,0.103-0.176,0.202-0.25,0.303
	c0.074,0,0.125-0.101,0.25-0.101C89.975,144.537,89.975,144.486,89.975,144.435z M87.541,138.316L87.541,138.316v-0.051l0,0
	C87.541,138.265,87.541,138.265,87.541,138.316z M84.206,140.07c0.05,0,0.176,0,0.25-0.051c0.05,0,0.05-0.098,0.126-0.147
	c-0.076,0.051-0.126,0.051-0.126,0.051v0.098c0,0-0.124,0-0.2,0C84.256,140.07,84.206,140.019,84.206,140.07z M89.925,143.785
	c0.05,0,0.05,0,0.05,0l0,0C89.975,143.785,89.975,143.785,89.925,143.785z M125.518,32.914c0.328,0.051,0.328,0.201,0.778,0.252
	c0.126-0.201-0.075-0.302-0.075-0.504C125.97,32.762,125.795,32.865,125.518,32.914z M94.34,136.808
	c-0.125,0-0.252,0.102-0.301,0.102c0.049,0.101,0.125,0,0.176,0.101C94.215,136.909,94.34,136.909,94.34,136.808z M49.415,123.868
	L49.415,123.868L49.415,123.868c0.2-0.102,0.576-0.303,0.525-0.402C49.991,123.566,49.615,123.767,49.415,123.868z M71.99,137.914
	c0-0.051,0-0.103-0.075-0.103c-3.137,0.504-6.223-0.101-9.433-0.197c0.051,0,0.051,0,0.051,0
	C65.693,137.312,68.904,137.362,71.99,137.914z M79.364,145.339c-0.05,0.05-0.05,0.05-0.125,0.05c0.2,0,0.327,0,0.526,0h-0.076
	C79.64,145.339,79.516,145.389,79.364,145.339z M133.495,42.496c-0.075,0.302,0.074,0.602,0.074,0.953
	C133.57,43.097,133.42,42.797,133.495,42.496z M162.34,7.379c0,0,0.102,0,0.152,0c-0.152-0.201-0.353-0.201-0.502-0.252
	C162.091,7.279,162.292,7.178,162.34,7.379z M103.997,30.606c-0.126,0.052-0.202,0.151-0.252,0.151
	c-0.149,0.098-0.274,0.198-0.526,0.4c0.252,0.401,0.652-0.052,0.904,0.149C104.047,31.056,103.997,30.956,103.997,30.606z
	 M37.35,54.737c0-0.101,0-0.101,0-0.101h-0.076C37.273,54.636,37.35,54.636,37.35,54.737z M37.148,54.536
	c0,0.05,0.125,0.05,0.125,0.101c0,0,0,0,0.076,0l0,0C37.273,54.585,37.198,54.585,37.148,54.536z M31.631,84.235
	c0.05,0,0.05,0,0.125,0C31.681,84.235,31.631,84.235,31.631,84.235L31.631,84.235z M41.187,85.038c0,0-0.05,0,0,0.101
	C41.187,85.038,41.187,85.038,41.187,85.038L41.187,85.038z M48.01,123.166c0.201,0.048,0.376,0,0.502,0.199
	c0-0.102,0-0.151,0-0.199C48.336,123.166,48.211,123.166,48.01,123.166z M48.386,123.966c0.075,0,0.075,0,0.126,0
	c0-0.048,0-0.099,0-0.199C48.461,123.868,48.461,123.918,48.386,123.966z M65.945,140.724c0.376,0.199,0.777,0.551,0.651,1.203
	v-0.102c-0.149-0.351-0.325-0.701-0.526-1.103C66.07,140.724,65.994,140.724,65.945,140.724z M104.248,147.247L104.248,147.247
	c0,0.098,0,0.147,0,0.197l0,0C104.248,147.395,104.248,147.344,104.248,147.247z M165.702,20.373c-0.151,0.051-0.4,0-0.602,0.051
	c0.101,0.198,0.101,0.399-0.051,0.602C165.302,20.773,165.503,20.573,165.702,20.373z M60.928,28.098c-0.25,0.05-0.451,0-0.651-0.15
	c-0.05,0.353-0.251,0.504,0,0.803C60.552,28.547,60.728,28.299,60.928,28.098z M21.195,62.562c0.277,0.304,0.527,0.553,0.452,1.005
	c-0.05,0.102-0.175,0.3-0.175,0.399c0.049,0.252,0.25,0.101,0.25-0.299c0,0-0.075,0-0.075-0.102
	c0.075-0.051,0.199-0.051,0.151-0.201c-0.076-0.303-0.326-0.552-0.453-0.804C21.271,62.562,21.195,62.562,21.195,62.562z
	 M24.029,66.676c0.126-0.201,0.251-0.302,0.402-0.402c-0.151,0.052-0.326,0.201-0.526,0.252c0,0.051,0,0.051-0.05,0.051
	C23.905,66.676,23.979,66.676,24.029,66.676z M36.572,88.148l0.051,0.051v-0.051H36.572z M48.211,95.972c0.125,0,0.175,0,0.301,0
	c-0.051-0.197-0.301-0.097-0.427-0.298C48.085,95.775,48.211,95.775,48.211,95.972z M50.318,103.348c0.525,0,0.978,0,1.104,0.651
	c0.125,0,0.175,0,0.326,0C51.422,103.398,50.844,103.499,50.318,103.348z M56.361,128.634c-0.049,0.05-0.049,0.05-0.123,0.147
	c0.074,0,0.199-0.099,0.199-0.099S56.361,128.684,56.361,128.634z M56.814,131.643c0,0.151,0.201,0.151,0.201,0.351
	c0.05-0.099,0.174-0.099,0.174-0.099C57.141,131.694,56.939,131.794,56.814,131.643z M50.143,132.896L50.143,132.896
	c0,0,0,0.103,0,0.151C50.143,132.998,50.143,132.896,50.143,132.896z M187.273,24.937c0.152,0,0.152-0.101,0.202-0.101l0,0
	c0.151-0.201,0.451-0.5,0.602-0.5c0,0-0.101,0,0,0c0,0,0,0,0.051,0c-0.051,0-0.051,0-0.051,0
	C187.826,24.535,187.726,24.937,187.273,24.937z M192.893,30.956c0.103-0.198,0.303-0.5,0.553-0.602c-0.25,0-0.553-0.3-0.753,0
	C192.443,30.606,192.843,30.757,192.893,30.956z M214.314,103.198c0.052,0,0.151,0,0.251,0c0-0.102,0.102-0.102,0.102-0.148
	C214.565,103.096,214.415,103.096,214.314,103.198z M214.666,99.183c-0.102-0.097-0.2,0-0.251-0.097c0,0.097-0.05,0.146-0.05,0.146
	C214.415,99.183,214.565,99.183,214.666,99.183z M204.08,112.178c0.05-0.051,0.05-0.051,0.101-0.151c-0.051,0-0.051,0-0.051,0
	C204.13,112.127,204.08,112.127,204.08,112.178z M218.527,84.083c0.151-0.15,0.151-0.351,0.252-0.45
	C218.679,83.734,218.679,83.933,218.527,84.083z M186.021,123.264c0.049-0.051,0-0.051,0-0.099c0,0.048,0,0.199-0.102,0.249
	C186.021,123.365,186.021,123.365,186.021,123.264z M219.582,82.277c0,0,0,0,0,0.052c0,0,0-0.052,0,0c0.051,0,0.101-0.052,0.101,0
	c0.651,0.604,1.404,0.302,2.106,0.453C220.986,82.831,220.184,82.73,219.582,82.277z M201.772,52.578
	c-0.101,0.05-0.101,0.149-0.101,0.2c-0.049,0.052,0,0.201-0.049,0.253C201.672,52.83,201.623,52.728,201.772,52.578z M119.674,6.875
	c-0.25-0.05-0.451-0.102-0.652-0.198c0.075,0.148,0.15,0.148,0.276,0.299C119.424,6.875,119.549,6.976,119.674,6.875z
	 M90.251,26.493c-0.151-0.151-0.276-0.201-0.326-0.354c-0.275,0.201-0.451,0.402-0.451,0.854
	C89.85,26.943,89.85,26.493,90.251,26.493z M51.672,16.309c0,0.501-0.25,0.099-0.377,0.148c0.051,0.05,0.051,0.05,0.127,0.05
	C51.547,16.507,51.597,16.407,51.672,16.309L51.672,16.309z M45.25,18.617L45.25,18.617L45.25,18.617L45.25,18.617L45.25,18.617z
	 M45.377,18.717c-0.076,0-0.076,0.05-0.127,0c0,0.198-0.075,0.299,0.127,0.45c0.05,0.05,0.125-0.151,0.249-0.051v0.051
	c0.452,0.15,0.902,0.15,1.431,0c0.127-0.151,0.25-0.252,0.377-0.4c-0.076,0.148-0.127,0-0.25,0
	c-0.528,0.351-0.979,0.652-1.558,0.351C45.427,19.016,45.377,18.916,45.377,18.717z M35.92,31.758
	c-0.703-0.803-1.731-1.102-2.885-0.903c-0.075,0-0.125,0-0.201,0c1.152,0.304,2.584,0.654,3.035,1.155
	C35.794,31.859,35.994,31.859,35.92,31.758z M52,26.643c0.5,0,0.951-0.101,1.077-0.604c0-0.099-0.126-0.099-0.126-0.199
	c-0.052-0.049-0.052-0.1-0.052-0.201C52.826,26.292,52.449,26.493,52,26.643z M27.768,68.131c0-0.151,0.25-0.151,0.126-0.252
	C27.894,67.98,27.768,67.98,27.768,68.131L27.768,68.131z M32.207,76.911c0.176,0,0.302,0,0.453,0
	c-0.076-0.151-0.277-0.151-0.402-0.302C32.207,76.759,32.258,76.81,32.207,76.911z M19.665,77.062
	c-0.126-0.051-0.249-0.051-0.376-0.051c-0.075,0.201-0.2,0.201-0.275,0.252C19.214,77.212,19.539,77.263,19.665,77.062z
	 M30.201,84.937L30.201,84.937c0,0,0.075,0,0.126-0.101h-0.051L30.201,84.937z M34.715,86.844L34.715,86.844L34.715,86.844
	L34.715,86.844z M38.955,92.564c0,0.102,0.125,0.102,0.125,0.102l0,0C38.955,92.665,39.005,92.665,38.955,92.564L38.955,92.564z
	 M44.146,97.628c0.127,0,0.251,0,0.402,0c-0.151-0.299-0.275-0.55-0.402-0.854C44.273,97.079,44.348,97.38,44.146,97.628z
	 M49.164,103.398c0.073,0.202,0.073,0.403-0.052,0.603c0.125,0,0.177,0,0.253,0c0-0.198-0.076-0.399-0.128-0.603
	c0.052-0.2,0.178-0.2,0.304-0.398H49.49c-0.075,0.098-0.201,0.198-0.253,0.398C49.164,103.398,49.164,103.398,49.164,103.398z
	 M78.788,153.867c0-0.051,0-0.102,0-0.102c0-0.098,0-0.147,0-0.198c0,0,0,0-0.051,0C78.788,153.618,78.788,153.766,78.788,153.867z
	 M203.128,118.448c0.05,0,0.101,0,0.101,0c0.352,0,0.652,0,1.054,0v-0.052c-0.25,0-0.451,0.052-0.652-0.048
	c-0.15,0.048-0.251,0-0.4,0.1v-0.052C203.229,118.397,203.178,118.448,203.128,118.448z M215.168,109.118c0.101,0,0.2,0,0.301,0.101
	c0.252-0.302,0.101-0.201,0.101-0.201h-0.101c-0.101,0,0-0.101-0.15,0c0,0,0,0-0.05,0
	C215.168,109.017,215.168,109.017,215.168,109.118z M209.649,53.632c0,0.102,0.2,0.202,0.251,0.303
	c0.102-0.101-0.102-0.201-0.051-0.252C209.799,53.632,209.749,53.632,209.649,53.632z M179.85,6.976
	c-0.651,0.202-1.305,0.202-1.957,0c0.703,0.303,1.707-0.299,2.207,0.555C180.1,7.329,179.85,7.279,179.85,6.976z M129.834,5.169
	c0.124,0.303,0.45,0.051,0.65,0.202c0.126-0.103,0.301-0.4,0.576-0.4C130.611,4.971,130.209,5.021,129.834,5.169z M70.059,7.531
	c0,0.501,0.326,0.248,0.377,0.552c0.124-0.202,0-0.403,0.275-0.552C70.51,7.531,70.311,7.531,70.059,7.531z M53.403,12.595
	c0.126-0.101,0.202-0.249,0.325-0.3C53.605,12.346,53.605,12.495,53.403,12.595z M19.014,22.529v0.103c0.075,0,0.125,0,0.125-0.103
	C19.139,22.529,19.089,22.529,19.014,22.529z M17.734,61.508c-1.278-0.151-1.278-1.253-1.528-2.258c0,0.501-0.402,0.902-0.151,1.505
	C16.455,61.759,17.081,61.558,17.734,61.508z M19.014,66.526L19.014,66.526c0,0,0,0,0-0.051
	C19.014,66.526,19.014,66.526,19.014,66.526z M20.443,68.131c0.125,0.201,0.125,0.353,0.251,0.453
	c-0.074-0.102,0.2-0.303-0.074-0.453C20.568,68.181,20.443,68.131,20.443,68.131z M20.694,72.094c0-0.3-0.326-0.201-0.525-0.351
	c-0.051,0.148-0.051,0.148-0.126,0.351C20.241,72.094,20.493,72.094,20.694,72.094z M27.768,72.948
	c0.051-0.052,0.126-0.052,0.126-0.151l0,0L27.768,72.948c0,0,0-0.052-0.075-0.052c0.075,0.102,0.126,0.201,0.201,0.303
	C27.818,73.148,27.818,72.997,27.768,72.948z M28.795,74.753c-0.123,0.252-0.4,0.451-0.651,0.552
	C28.545,75.305,28.596,74.955,28.795,74.753z M53.529,107.311c0,0.151-0.051,0.201-0.051,0.302c0.175-0.101,0.376-0.149,0.626-0.2
	C53.93,107.311,53.729,107.412,53.529,107.311z M49.289,131.895c0,0,0,0-0.052,0c0.052,0,0.052,0,0.128,0H49.289z M30.075,134.854
	c0.65-0.201,1.278-0.353,2.057-0.353c-0.249,0-0.376-0.099-0.652-0.099C30.979,134.404,30.602,134.704,30.075,134.854z
	 M37.399,135.756c-0.126-0.15-0.251-0.15-0.376-0.251c0,0.101,0.052,0.101,0.052,0.251
	C37.148,135.756,37.273,135.756,37.399,135.756z M33.611,148.046L33.611,148.046L33.611,148.046L33.611,148.046z M52.199,154.972
	c-0.151-0.202,0-0.303,0.125-0.504c-0.125,0-0.125,0-0.276,0c-0.124,0.201-0.175,0.302-0.25,0.504
	C51.924,154.972,52.048,154.972,52.199,154.972z M64.389,154.468c0-0.098,0-0.098,0-0.098c0-0.201,0-0.354,0.076-0.504
	c-0.076,0.303-0.25,0.402-0.526,0.504c0.2,0,0.326,0,0.45,0C64.389,154.371,64.389,154.371,64.389,154.468z M139.515,143.935
	c-0.05,0-0.05,0-0.05,0c0,0.249-0.05,0.4-0.1,0.603l0,0C139.214,144.335,139.415,144.134,139.515,143.935z M155.419,139.318
	c0-0.099,0-0.147,0-0.198C155.419,139.169,155.419,139.219,155.419,139.318L155.419,139.318z M169.816,134.501L169.816,134.501
	L169.816,134.501L169.816,134.501L169.816,134.501z M236.639,102.898c0.653,0.102,0.903-0.602,1.355-1.104
	c-0.554,0.504-1.004,1.055-1.808,1.206C236.389,102.999,236.54,102.898,236.639,102.898z" class="color c1"/>
</svg>