<svg version="1.1" id="图层_1" x="0px" y="0px" width="193.188px" height="127.758px" viewBox="0 0 193.188 127.758" enable-background="new 0 0 193.188 127.758" xml:space="preserve" xmlns:xml="http://www.w3.org/XML/1998/namespace" xmlns="http://www.w3.org/2000/svg" xmlns:xlink="http://www.w3.org/1999/xlink">
  <g>
    <path fill="#046BE9" d="M168.349,95.818H24.839c17.68,19.608,43.273,31.939,71.754,31.939
		C125.073,127.758,150.668,115.426,168.349,95.818z" class="color c1"/>
    <path fill="#0488EF" d="M24.839,95.818h143.508c8.307-9.213,14.86-20.033,19.146-31.938H5.693
		C9.979,75.784,16.532,86.605,24.839,95.818z" class="color c2"/>
    <path fill="#04A6EC" d="M5.693,63.877h181.803c3.596-9.985,5.584-20.734,5.673-31.938H0.02C0.108,43.145,2.098,53.893,5.693,63.877
		z" class="color c3"/>
    <path fill="#10DEF0" d="M5.168,0C1.834,9.781,0,20.256,0,31.163c0,0.261,0.017,0.517,0.02,0.776h193.148
		c0-0.261,0.02-0.517,0.02-0.776c0-10.908-1.835-21.382-5.168-31.163H5.168z" class="color c4"/>
  </g>
</svg>