<svg version="1.1" id="图层_1" x="0px" y="0px" width="200px" height="164.916px" viewBox="0 0 200 164.916" enable-background="new 0 0 200 164.916" xml:space="preserve" xmlns="http://www.w3.org/2000/svg" xmlns:xlink="http://www.w3.org/1999/xlink" xmlns:xml="http://www.w3.org/XML/1998/namespace">
  <path fill="#124E5E" d="M192.493,78.22L99.647,0L4.362,77.168c0,0-18.953,16.267,22.154,13.736l6.67,51.593
	c9.44,1.246,21.374,1.621,34.842,1.058v-29.735h25.486v27.713c1.509-0.173,3.031-0.359,4.56-0.553v-27.161h25.487v23.089
	c16.139-3.133,30.489-7.038,41.764-11.237l5.293-37.257C209.8,95.883,192.493,78.22,192.493,78.22z M93.515,109.468H68.028V75.899
	h25.486V109.468z M123.562,109.467H98.074V75.898h25.487V109.467z" class="color c1"/>
  <path fill="#37DDC1" d="M164.538,134.009l-4.39,30.907l-124.495-0.539l-1.918-14.837c-15.709-1.774-25.65-5.632-26.449-11.288
	c-0.424-2.995,1.762-6.216,6.076-9.483c-2.016,2.142-2.963,4.238-2.682,6.228c0.71,5.02,9.106,8.529,22.506,10.297
	c17.201,2.27,42.646,1.67,70.658-2.287c24.156-3.412,45.787-8.695,61.48-14.539c16.681-6.211,26.652-13.056,25.818-18.962
	c-0.684-4.843-8.525-8.281-21.111-10.105c17.703,1.58,29.06,5.577,29.916,11.637C200.963,118.223,187.001,126.707,164.538,134.009z" class="color c2"/>
</svg>