<svg version="1.1" id="图层_1" x="0px" y="0px" width="220px" height="186.662px" viewBox="0 0 220 186.662" enable-background="new 0 0 220 186.662" xml:space="preserve" xmlns="http://www.w3.org/2000/svg" xmlns:xlink="http://www.w3.org/1999/xlink" xmlns:xml="http://www.w3.org/XML/1998/namespace">
  <path fill="#C29F19" d="M153.001,0L220,91.047h-21.611l-56.91-78.813L153.001,0z M112.075,10.889L28.256,97.687h23.993
	l90.267-96.134L112.075,10.889z M193.302,95.407v38.886c-34.438,0.181-74.108,3.274-106.36,15.037v-48.328
	c0-1.733-1.587-3.315-3.325-3.315H61.283L136.9,17.108L193.302,95.407z M163.396,64.501c0-1.737-1.592-3.319-3.33-3.319
	c-11.264,0-22.655,0-33.864,0c-1.517,0.296-2.728,1.771-2.7,3.319v46.46c0,1.733,1.591,3.315,3.329,3.315h33.235
	c1.738,0,3.33-1.582,3.33-3.315V64.501z M130.148,84.412h9.979V67.821h-9.979V84.412z M146.77,84.412h9.969V67.821h-9.969V84.412z
	 M130.148,107.644h9.979V91.047h-9.979V107.644z M146.77,107.644h9.969V91.047h-9.969V107.644z M57.025,138.542l23.267,10.271
	v-44.491H57.025V138.542z" class="color c1"/>
  <path fill="#5A5657" d="M211.372,145.797c-73.5-4.337-123.882,14.095-183.639,40.865L0,161.879
	c15.929-6.418,35.853-14.565,53.288-17.635l28.978,12.862c0.819,0.343,1.781,0.343,2.599,0
	c32.496-12.975,75.404-16.284,111.767-16.284C196.631,140.785,206.702,143.966,211.372,145.797z" class="color c2"/>
</svg>