<svg version="1.1" id="图层_1" x="0px" y="0px" width="109.564px" height="205.82px" viewBox="0 0 109.564 205.82" enable-background="new 0 0 109.564 205.82" xml:space="preserve" xmlns="http://www.w3.org/2000/svg" xmlns:xlink="http://www.w3.org/1999/xlink" xmlns:xml="http://www.w3.org/XML/1998/namespace">
  <path fill="#7C8C96" d="M42.045,114.463l1.576,0.88v56.543v2.202v2.203v29.529L22.85,194.103l-1.765-1.008l-0.188-0.082l-0.273-0.17
	l-1.342-0.757l-0.129-0.063l-1.932-1.09l-3.384-1.911v-0.215V98.542l3.384,1.911l1.932,1.092l1.934,1.072l3.023,1.723l1.912,1.093
	l1.932,1.071l10.248,5.794l1.932,1.072l1.156,0.674L42.045,114.463z M17.221,55.403L0,45.702v135.296l9.994,5.629V95.246
	c-0.002-0.341,0.086-0.672,0.254-0.967c0-0.104,0.189-0.169,0.275-0.273c0.115-0.159,0.256-0.304,0.418-0.419l0,0l6.299-3.528
	L17.221,55.403z M41.08,40.808L41.08,40.808c0.16,0.116,0.303,0.26,0.42,0.42c0,0,0.209,0.169,0.271,0.272
	c0.168,0.295,0.256,0.627,0.252,0.965v33.605l1.871-1.052c0.586-0.332,1.303-0.332,1.889,0L56.6,81.111v-49L37.53,21.358
	l-9.576-5.419v17.454l13.127,7.395L41.08,40.808L41.08,40.808z" class="color c1"/>
  <path fill="#C2CCD1" d="M1.994,42.404L1.994,42.404l17.053-9.62l17.181,9.705l-17.052,9.597l0,0L1.994,42.404z M58.592,28.816
	L58.592,28.816l22.41-12.645L52.357,0L29.949,12.645L58.592,28.816z M74.557,95.622L74.557,95.622L44.859,78.885l-29.025,16.36
	l29.699,16.758L74.557,95.622z M80.268,108.75v18.798l27.489-15.521l-16.651-9.39L80.268,108.75z" class="color c2"/>
  <path fill="#4C5C66" d="M27.953,51.562l10.248-5.777v32.428L27.953,84.01l-1.932,1.069l-1.912,1.093l-3.023,1.701V55.447
	l3.023-1.725l1.912-1.069L27.953,51.562z M86.822,128.26l-1.934,1.093l-1.912,1.072l-2.709,1.553v36.063v2.202v2.226v15.256
	l29.297-16.555v-55.74L86.822,128.26z M80.244,95.707v8.633l2.715-1.532V19.471l-4.643,2.625L60.462,32.176l0,0v51.077L79.365,93.86
	c0.611,0.341,0.984,0.98,0.984,1.678l0,0C80.35,95.538,80.244,95.687,80.244,95.707z M58.535,109.085l-1.914,1.093l-7.352,4.138
	l-1.808,1.027v58.704v2.202v2.209v27.129l28.609-16.129l0.332-0.21v-14.612v-2.208v-2.202v-38.121v-2.121v-23.207v-7.771
	l-15.941,8.988L58.535,109.085z" class="color c3"/>
</svg>