<svg version="1.1" id="图层_1" x="0px" y="0px" width="174.948px" height="130.206px" viewBox="0 0 174.948 130.206" enable-background="new 0 0 174.948 130.206" xml:space="preserve" xmlns="http://www.w3.org/2000/svg" xmlns:xlink="http://www.w3.org/1999/xlink" xmlns:xml="http://www.w3.org/XML/1998/namespace">
  <path fill="#FFFFFF" d="M172.487,130.206c-1.359,0-2.461-1.102-2.461-2.461V62.827L86.928,5.451L4.92,62.276v64.922
	c0,1.359-1.101,2.461-2.461,2.461c-1.357,0-2.459-1.102-2.459-2.461V60.987c0-0.805,0.396-1.561,1.059-2.021L85.524,0.437
	c0.842-0.581,1.957-0.583,2.799-0.001l85.563,59.075c0.664,0.459,1.063,1.215,1.063,2.023v66.211
	C174.948,129.104,173.847,130.206,172.487,130.206z" class="color c1"/>
</svg>