<svg version="1.1" id="图层_1" x="0px" y="0px" width="178.471px" height="120.671px" viewBox="0 0 178.471 120.671" enable-background="new 0 0 178.471 120.671" xml:space="preserve" xmlns="http://www.w3.org/2000/svg" xmlns:xlink="http://www.w3.org/1999/xlink" xmlns:xml="http://www.w3.org/XML/1998/namespace">
  <path fill="#013C71" d="M178.471,62.173l-0.051,51.389c-0.004,3.836-3.109,6.945-6.943,6.955l-54.359,0.145
	c-3.854,0.011-6.98-3.109-6.98-6.961V68.28c0-1.829-0.721-3.584-2.004-4.887l-9.717-9.864c-2.715-2.755-2.664-7.195,0.115-9.886l0,0
	c2.725-2.641,7.063-2.612,9.752,0.063l13.043,12.971c1.314,1.307,2.053,3.083,2.053,4.937v38.309c0,3.845,3.117,6.961,6.963,6.961
	h27.645c3.846,0,6.961-3.116,6.961-6.961V67.431c0-1.861-0.744-3.645-2.066-4.951l-40.889-40.408
	c-2.693-2.662-7.021-2.682-9.74-0.045L99.211,34.671L70.213,62.772c-1.354,1.312-2.117,3.115-2.117,5v45.936
	c0,3.846-3.117,6.963-6.962,6.963H6.961c-3.845,0-6.961-3.117-6.961-6.963V61.617c0-1.854,0.74-3.633,2.056-4.94L57.094,2.022
	c2.711-2.693,7.086-2.697,9.803-0.01l13.893,13.746c2.732,2.705,2.757,7.111,0.053,9.845l-0.227,0.23
	c-2.678,2.707-7.033,2.761-9.777,0.122l-4.125-3.969c-2.723-2.618-7.035-2.589-9.721,0.066L16.094,62.479
	c-1.322,1.307-2.067,3.09-2.067,4.951v32.492c0,3.845,3.116,6.961,6.962,6.961h27.645c3.846,0,6.962-3.116,6.962-6.961v-38.31
	c0-1.853,0.739-3.629,2.052-4.936l20.982-20.872l1.204-1.194l-0.01-0.01L91.17,23.135l20.742-20.743
	c2.723-2.723,7.137-2.719,9.854,0.008l54.674,54.852C177.742,58.558,178.473,60.327,178.471,62.173z" class="color c1"/>
</svg>