<svg version="1.1" id="图层_1" x="0px" y="0px" width="423.51px" height="500.25px" viewBox="0 0 423.51 500.25" enable-background="new 0 0 423.51 500.25" xml:space="preserve" xmlns="http://www.w3.org/2000/svg" xmlns:xlink="http://www.w3.org/1999/xlink" xmlns:xml="http://www.w3.org/XML/1998/namespace">
  <path fill="#FFCF9F" d="M373.889,107.851l-172.5-102.5c-10.277-6.111-23.611-4.444-32.222,3.889L25.833,149.795
	c-5.833,5.833-8.889,13.889-7.778,22.222L54.722,476.74c1.667,14.723,15,25,29.722,23.334l315.557-38.057
	c14.723-1.666,25-15,23.333-29.723l-36.667-304.721C385.833,119.517,381.111,112.017,373.889,107.851z" class="color c1"/>
  <path fill="#F39800" d="M361.111,127.851L201.945,5.629c-9.445-7.222-22.777-7.222-32.5,0L10.277,127.851
	c-6.389,5.278-10.278,13.056-10.278,21.111v306.943c0,14.723,11.944,26.668,26.667,26.668H345c14.723,0,26.667-11.945,26.667-26.668
	V148.962C371.389,140.906,367.778,133.129,361.111,127.851z" class="color c2"/>
  <circle fill="#FFFFFF" cx="185.833" cy="96.462" r="27.5" class="color c3"/>
  <path fill="#F39800" d="M192.5,107.017c-3.611,0-6.944-0.278-10-1.389c-6.111-1.667-9.722-8.056-7.778-14.167
	c1.667-6.111,8.056-9.722,14.167-7.777c6.943,1.944,27.778-2.778,53.333-19.445c27.223-18.055,38.057-35.278,38.89-40.833
	c-5.556-1.389-25.556,1.667-53.056,19.723c-5.276,3.611-12.5,1.944-15.833-3.333c-3.611-5.278-1.943-12.5,3.333-15.833
	c15.834-10.555,32.5-18.333,46.667-21.944c23.333-5.556,33.61,1.389,38.056,8.333c13.61,20.556-14.167,52.222-45.833,73.056
	C236.111,95.629,211.388,107.017,192.5,107.017z" class="color c2"/>
  <g>
    <path fill="#FFFFFF" d="M169.722,210.351h-55.278c-5,0-9.167,4.167-9.167,9.167v55.278c0,5,4.167,9.166,9.167,9.166h55.278
		c5,0,9.167-4.166,9.167-9.166v-55.278C178.888,214.517,174.722,210.351,169.722,210.351z" class="color c3"/>
    <path fill="#FFFFFF" d="M256.945,210.351h-55c-5,0-9.168,4.167-9.168,9.167v55.278c0,5,4.168,9.166,9.168,9.166h55.277
		c5.001,0,9.167-4.166,9.167-9.166v-55.278C266.111,214.517,261.944,210.351,256.945,210.351z" class="color c3"/>
    <path fill="#FFFFFF" d="M169.722,297.574h-55.278c-5,0-9.167,4.166-9.167,9.166v55.277c0,5,4.167,9.167,9.167,9.167h55.278
		c5,0,9.167-4.167,9.167-9.167V306.74C178.888,301.74,174.722,297.574,169.722,297.574z" class="color c3"/>
    <path fill="#FFFFFF" d="M256.945,297.574h-55c-5,0-9.168,4.166-9.168,9.166v55.277c0,5,4.168,9.167,9.168,9.167h55.277
		c5.001,0,9.167-4.167,9.167-9.167V306.74C266.111,301.74,261.944,297.574,256.945,297.574z" class="color c3"/>
  </g>
</svg>