<svg version="1.1" id="图层_1" x="0px" y="0px" width="220px" height="56.636px" viewBox="0 0 220 56.636" enable-background="new 0 0 220 56.636" xml:space="preserve" xmlns="http://www.w3.org/2000/svg" xmlns:xlink="http://www.w3.org/1999/xlink" xmlns:xml="http://www.w3.org/XML/1998/namespace">
  <path fill="#F0F6E0" d="M220,50.392h-4.903c0-9.311,0-29.461,0-38.865c0-12.452-17.737-11.51-17.737-11.51s-99.612,0-116.594,0
	c-16.979,0-16.979,14.528-16.979,14.528l-0.031,5.832c-0.605,0.228-1.162,0.23-1.657,0.106c-0.438-3.396-1.813-6.335-4.215-8.389
	C52.591,7.571,43.884,8.551,35.91,13.79c-2.64-5.149-8.552-11.813-21.557-11.697c0,0-2.405-0.049-2.405,1.603
	s2.122,1.605,3.205,2.076c0.955,0.416,11.851,4.709,14.796,12.912c-0.703,0.71-1.396,1.444-2.06,2.224
	c-3.928,4.592-6.506,9.684-7.678,14.506c-4.841,7.014-16.909,12.066-17.63,12.633C1.769,48.683,0,48.894,0,50.911
	c0,2.016,2.088,2.123,2.088,2.123s12.093,0.113,19.57-3.678c0.606,0.951,1.336,1.811,2.203,2.553
	c7.171,6.127,20.596,2.184,29.993-8.813c0.195-0.229,0.371-0.467,0.557-0.699c2.729-0.85,6.113-0.926,9.229,1.723l-0.031,6.271
	h-6.62v3.773l3.109,2.436l2.323-2.393l3.054,2.393l2.309-2.377l3.032,2.377l2.325-2.393l3.054,2.393l2.236-2.303l2.939,2.303
	l2.323-2.393l3.052,2.393l2.31-2.377l3.033,2.377l2.323-2.393l3.055,2.393l1.921-1.979l2.524,1.979l2.324-2.393l3.053,2.393
	l2.309-2.377l3.033,2.377l2.323-2.393l3.055,2.393l2.236-2.303l2.938,2.303l2.325-2.393l3.052,2.393l2.309-2.377l3.034,2.377
	l2.323-2.393l3.053,2.393l0.027-0.027l0.033,0.027l2.323-2.393l3.054,2.393l2.308-2.377l3.033,2.377l2.324-2.393l3.054,2.393
	l2.237-2.303l2.938,2.303l2.323-2.393l3.055,2.393l2.307-2.377l3.034,2.377l2.323-2.393l3.054,2.393l1.921-1.979l2.525,1.979
	l2.323-2.393l3.054,2.393l2.309-2.377l3.033,2.377l2.324-2.393l3.054,2.393l2.236-2.303l2.939,2.303l2.323-2.393l3.053,2.393
	l2.309-2.377l3.033,2.377l1.897-1.953l2.536,1.988l2.4-2.471H220V50.392z M49.713,40.813c-7.907,9.584-14.955,10.826-20.462,6.283
	c-1.317-1.086-2.353-1.92-2.835-3.68c-1.543-5.587,0.642-11.508,6.66-18.797c7.91-9.587,17.59-11.007,23.1-6.466
	C61.676,22.698,57.623,31.228,49.713,40.813z M85.29,3.508c15.848,0,108.39,0.565,108.39,0.565s17.547-0.283,17.547,11.887
	c0,8.136,0,24.482,0,34.432H69.671L69.442,18.79C69.442,18.79,69.442,3.508,85.29,3.508z M215.482,54.192l0.027-0.027h3.727
	L215.482,54.192z" class="color c1"/>
</svg>