<svg version="1.1" id="图层_1" x="0px" y="0px" width="198.865px" height="197.123px" viewBox="0 0 198.865 197.123" enable-background="new 0 0 198.865 197.123" xml:space="preserve" xmlns="http://www.w3.org/2000/svg" xmlns:xlink="http://www.w3.org/1999/xlink" xmlns:xml="http://www.w3.org/XML/1998/namespace">
  <path fill="#2A9EC3" d="M148.957,165.648v20.244c-9.128,5.245-19.167,9.082-29.82,11.221v-36.294V87.375V35.516
	c0-2.75-1.242-6.895-2.758-9.195L102.215,4.865c-1.521-2.301-4.002-2.301-5.516,0L82.535,26.32
	c-1.514,2.301-2.758,6.445-2.758,9.195v14.373H79.73v20.58h0.023v12.879H55v20.58h24.73v7.684v10.717v9.862h0.023v12.879H55v20.579
	h24.73v18.401h0.023v10.228h0.023v2.846c-10.671-2.138-20.727-5.978-29.867-11.23V68.975c0-2.75-1.244-6.896-2.758-9.195
	L32.988,38.322c-1.514-2.301-4.002-2.301-5.516,0L13.309,59.779c-1.521,2.3-2.758,6.445-2.758,9.195v14.373H1.578
	c-0.683,3.43-1.187,6.922-1.512,10.466C3.031,41.506,46.384,0,99.434,0c53.021,0,96.354,41.461,99.36,93.729
	c-0.326-3.515-0.827-6.979-1.505-10.382h-8.973V68.975c0-2.75-1.244-6.896-2.758-9.195l-14.164-21.457c-1.521-2.301-4-2.301-5.516,0
	l-14.164,21.457c-1.516,2.3-2.758,6.438-2.758,9.195v14.373h-24.746v20.58h24.746v41.142h-24.746v20.579H148.957z M188.316,144.367
	c6.188-12.244,9.918-25.938,10.549-40.439h-10.549V144.367z M0,103.928c0.631,14.502,4.361,28.198,10.551,40.442v-40.442H0z" class="color c1"/>
</svg>