<svg version="1.1" id="图层_1" x="0px" y="0px" width="254.557px" height="110.48px" viewBox="0 0 254.557 110.48" enable-background="new 0 0 254.557 110.48" xml:space="preserve" xmlns:xml="http://www.w3.org/XML/1998/namespace" xmlns="http://www.w3.org/2000/svg" xmlns:xlink="http://www.w3.org/1999/xlink">
  <path fill="#78564D" d="M16.245,98.881c0.78,0.03,1.559,0.044,2.338,0.044c3.236,0,6.507-0.24,9.67-0.473
	c2.57-0.189,5.228-0.385,7.841-0.448c2.454-0.063,2.812-1.617,2.84-3.13l0.009-0.601c0.028-2.259,0.055-4.392,1.713-6.449
	c0.951-1.183,1.184-2.492,0.656-3.688c-0.632-1.432-2.244-2.396-4.207-2.519c-1.111-0.07-2.317-0.104-3.687-0.104
	c-1.317,0-2.633,0.031-3.949,0.062c-1.949,0.045-3.897,0.091-5.848,0.035l-0.067-0.002l-0.065,0.016
	c-0.435,0.107-0.815-0.103-1.269-0.364c-0.146-0.084-0.292-0.168-0.44-0.242l-0.398-0.199l-0.243,0.373
	c-0.308,0.471-0.695,0.879-1.106,1.311c-0.723,0.761-1.47,1.548-1.848,2.75c-1.004,3.205-2.32,6.387-3.594,9.463l-0.418,1.011
	c-0.447,1.086-0.635,1.825-0.273,2.39C14.267,98.689,15.07,98.834,16.245,98.881z M33.361,86.825H26.43
	C28.8,86.442,31.227,86.363,33.361,86.825z M30.694,95.333H19.82c1.568-0.366,3.501-0.574,5.539-0.574
	C27.346,94.759,29.194,94.964,30.694,95.333z M59.804,94.778c0.309,0.348,0.438,0.836,0.382,1.449
	c-0.147,0.987-0.808,1.473-1.966,1.473c-0.142,0-0.288-0.007-0.434-0.017c-0.602-0.049-1.077-0.267-1.378-0.633
	c-0.271-0.328-0.384-0.759-0.329-1.247c0.181-1.564,1.639-1.564,2.117-1.564l0.296,0.005C59.065,94.261,59.506,94.44,59.804,94.778z
	 M209.451,100.041c-0.089-1.062,0.464-1.874,1.407-2.07c0.142-0.03,0.279-0.045,0.407-0.045c0.582,0,1.296,0.293,1.395,1.689
	c0.055,0.871-0.223,1.601-0.76,2.006l-0.136,0.103l-0.171-0.002C209.941,101.702,209.516,100.797,209.451,100.041z M244.005,103.713
	c-0.677-0.633-1.604-0.912-2.718-0.855l-0.167,0.004c-1.093,0-1.533-0.492-1.624-1.813c-0.114-1.708-0.421-3.637-2.643-4.912
	l-0.94-0.54c-4.486-2.577-9.126-5.242-14.021-7.29c-1.013-0.426-2.007-0.647-3.039-0.677c-2.087-0.056-4.174-0.126-6.261-0.195
	c-4.188-0.141-8.518-0.285-12.779-0.31c-19.311-0.105-41.196-0.224-62.747-0.224c-4.042,0-8.088,0.004-12.225,0.013
	c-5.391,0-9.718-0.847-13.617-2.666c-2.523-1.175-5.99-2.521-9.955-2.353c-2.631,0.13-5.146-0.811-7.94-1.938
	c-2.229-0.897-4.47-1.766-6.712-2.634c-2.346-0.908-4.693-1.816-7.025-2.76c-2.773-1.122-5.51-1.4-8.514-0.867l-0.824,0.146
	c-5.368,0.953-10.919,1.938-16.425,1.938c-2.293,0-4.417-0.164-6.49-0.503c-2.239-0.367-2.706,0.782-3.335,2.142l-0.189,0.405
	c-1.352,2.841-1.833,5.735-1.563,9.386c0.03,0.386-0.042,0.7-0.097,0.764c-2.282,1.987-2.28,4.491-2.278,6.912
	c0,0.512,0.001,1.023-0.021,1.531c-0.107,2.449-0.107,2.449-2.848,2.601C31.323,99.331,25.637,99.6,19.95,99.87l-6.166,0.295
	c-0.838,0.039-1.679,0.049-2.518,0.053c-1.279,0.008-2.053,0.678-2.181,1.888c-0.019,0.189-0.052,0.429-0.089,0.703
	c-0.183,1.344-0.458,3.375,0.069,4.525l0.061,0.131l0.122,0.079c0.568,0.369,32.623,0.547,155.903,0.861
	c39.552,0.101,73.71,0.188,77.183,0.278c0.142,0.003,0.289,0.015,0.44,0.026c0.214,0.016,0.434,0.031,0.648,0.031
	c0.367,0,1.487,0,1.944-1.204C245.999,105.878,244.971,104.623,244.005,103.713z M106.502,86.657l0.01,0.498
	c0.655,0.008,0.658,0.152,0.655,0.373c-0.01,0.012-0.093,0.062-0.271,0.064l-0.158-0.016c-0.556-0.052-0.556-0.085-0.555-0.27
	c0-0.126,0.174-0.152,0.319-0.152V86.657L106.502,86.657z M103.508,98.493c-2.821,0-5.557,0.041-8.133,0.121
	c-2.057,0.064-4.191,0.096-6.525,0.096c-4.686,0-9.451-0.13-14.06-0.257c-4.614-0.126-9.385-0.257-14.081-0.257
	c-4.062,0-7.673,0.098-11.079,0.301c-0.743,0.048-1.504,0.14-2.494-0.364c1.289-0.47,2.452-0.414,3.553-0.379
	c0.453,0.014,0.894,0.026,1.335,0.011l0.154-0.006c0.982-0.034,1.909-0.067,2.512-0.723c0.398-0.434,0.57-1.066,0.527-1.933
	c-0.029-0.588,0.071-0.999,0.308-1.257c0.397-0.436,1.226-0.468,2.027-0.5c0.297-0.012,0.589-0.023,0.859-0.054
	c0.293-0.033,0.594-0.057,0.887-0.057c1.332,0,1.898,0.482,1.956,1.664c0.107,2.307,1.72,2.387,3.016,2.45l0.389,0.021
	C70.4,97.737,76.525,97.9,84.518,97.9c3.416,0,6.832-0.028,10.247-0.057c3.414-0.028,6.827-0.057,10.24-0.057
	c5.354,0,9.749,0.071,13.831,0.227l2.013,0.075c12.642,0.478,25.715,0.971,38.577,1.292c2.235,0.056,4.506,0.275,6.7,0.487
	c3.211,0.31,6.535,0.631,9.848,0.454l0.122-0.003c0.262,0,0.539,0.037,0.816,0.072c0.322,0.041,0.645,0.08,0.951,0.08
	c0.76,0,1.312-0.252,1.686-0.772c0.075-0.105,0.143-0.194,0.201-0.269c0,0.035,0.001,0.068,0.001,0.099
	c0.004,0.582,0.01,1.38,0.7,1.38c0.245,0,0.446-0.137,0.615-0.304c2.709-0.097,5.459,0.113,8.122,0.319
	c1.416,0.11,2.881,0.224,4.347,0.29l3.506,0.013c2.9,0.009,5.802,0.017,8.699,0.063l0.64,0.009c0.793,0,1.6-0.076,2.133-0.633
	c0.401-0.419,0.579-1.033,0.544-1.875c-0.024-0.598,0.091-1.021,0.354-1.294c0.302-0.314,0.836-0.468,1.632-0.468l0.22,0.004
	c0.942,0.031,1.593,0.252,1.934,0.656c0.291,0.345,0.391,0.873,0.296,1.569c-0.119,0.873,0.018,1.52,0.417,1.977
	c0.316,0.362,0.751,0.542,1.186,0.631c-1.486,0.047-3.044,0.069-4.697,0.069c-3.906,0-7.883-0.132-11.728-0.259
	c-1.705-0.057-3.41-0.113-5.107-0.159c-4.233-0.176-8.47-0.351-12.704-0.522h-0.02h-0.02c-5.706,0.21-11.488-0.157-17.086-0.509
	c-4.088-0.258-8.316-0.523-12.489-0.566c-7.411-0.075-14.944-0.396-22.23-0.705C120.658,98.86,112.018,98.493,103.508,98.493z
	 M197.957,91.249c7.893,0.146,15.116,0.311,22.316,0.51c-2.106,0.422-5.216,0.663-8.864,0.663
	C206.268,92.422,201.32,91.97,197.957,91.249z M141.167,96.776c-0.393,0.124-0.758,0.183-1.122,0.183
	c-0.379,0-0.776-0.065-1.228-0.203C139.61,96.427,140.242,96.426,141.167,96.776z M130.938,90.938
	c3.246,0.152,6.545,0.223,9.735,0.29c4.565,0.098,9.285,0.197,13.915,0.54c1.636,0.12,3.308-0.062,4.92-0.239
	c0.896-0.099,1.82-0.2,2.721-0.247l0.262-0.015c0.646-0.041,1.337-0.123,2.15,0.503c-2.867,0.134-5.808,0.199-8.949,0.199
	c-0.001,0-0.001,0-0.002,0c-7.438,0-14.82-0.379-21.958-0.745c-1.53-0.078-3.06-0.156-4.589-0.231
	C129.611,90.869,129.928,90.894,130.938,90.938z M104.967,89.846c2.227-0.4,5.071-0.425,7.435-0.05
	c-1.337,0.114-2.681,0.172-4.021,0.172h0C107.254,89.969,106.112,89.927,104.967,89.846z M89.137,89.687
	c1.272-0.476,2.491-0.885,3.734-0.885c0.518,0,1.013,0.073,1.494,0.222C92.775,89.516,90.903,89.88,89.137,89.687z" class="color c1"/>
  <path fill="#81C8DC" d="M118.06,80.835c0.318,1.131,0.679,2.412,0.273,3.924l-0.113,0.423l-0.434-0.056
	c-2.421-0.313-4.568-1.255-6.646-2.166c-2.582-1.133-5.001-2.202-7.792-2.033l-0.405,0.024l-0.107-0.392
	c-0.418-1.529,0.143-2.612,0.639-3.567c0.157-0.302,0.313-0.6,0.43-0.909c0.528-1.386,1.601-1.95,3.212-1.718
	c3.117,0.451,6.028,1.531,8.983,2.692c0.95,0.374,1.526,1.093,1.582,1.971C117.719,79.62,117.884,80.21,118.06,80.835z
	 M206.149,77.426c-0.325,0.185-0.656,0.359-0.988,0.535c-0.74,0.393-1.507,0.798-2.203,1.306c-4.283,3.129-9.093,4.089-14.355,2.855
	c-1.689-0.391-2.872,0.223-3.528,1.824l-0.527,1.366l0.348,0.219c0.896,0.562,1.86,0.639,2.77,0.639l1.064-0.013l0.114,0.001
	c2.102,0.017,4.207,0.011,6.31,0.002c1.154-0.004,2.309-0.008,3.462-0.008c2.56,0,5.598,0.018,8.722,0.147
	c0.103,0.004,0.202,0.006,0.299,0.006c2.585,0,3.207-1.572,3.622-3.183l0.064-0.252l-4.813-5.649L206.149,77.426z M65.265,72.542
	l0.149,0.469l-0.466,0.156c-4.747,1.595-9.872,1.98-15.386,1.149c-3.268-0.489-6.286-0.07-9.825,1.398
	c0.012,0.147,0.14,0.193,0.562,0.287c0.145,0.032,0.301,0.036,0.438,0.036l0.338-0.003c0.44,0,1.471,0,1.714,1.216
	c0.127,0.633,0.013,1.235-0.332,1.741c-0.413,0.607-1.147,1.059-1.965,1.207c-1.758,0.318-3.574,0.421-5.329,0.52
	c-0.602,0.034-1.204,0.067-1.804,0.11c-1.315,0.093-2.631,0.18-3.947,0.266c-1.617,0.106-3.233,0.213-4.848,0.332
	c-0.259,0.019-0.346,0.117-0.464,0.774l-0.058,0.32l-0.316,0.076c-0.159,0.039-0.32,0.059-0.479,0.059
	c-0.609,0-1.096-0.28-1.525-0.528c-0.128-0.073-0.257-0.148-0.388-0.214l-0.254-0.126l-0.022-0.283
	c-0.068-0.883-0.008-1.768,0.051-2.623c0.117-1.711,0.228-3.326-0.605-4.967l-0.293-0.578l0.633-0.137
	c0.881-0.191,1.703-0.29,2.498-0.386c1.122-0.136,2.182-0.263,3.149-0.641c0.237-0.093,0.497-0.16,0.756-0.227
	c0.623-0.16,1.013-0.28,1.18-0.609c1.256-2.46,3.416-3.858,5.503-5.211c0.825-0.534,1.677-1.087,2.447-1.691l0.146-0.115l0.186,0.01
	c2.046,0.098,4.112,0.105,6.054,0.105l1.58-0.001c5.863,0,11.139,0.129,16.334,1.711l0.127,0.039l0.411,0.434
	C62.819,68.308,64.477,70.057,65.265,72.542z M31.817,75.608c-0.343-0.016-0.647-0.051-0.956-0.087
	c-0.913-0.109-1.838-0.341-2.848,0.457h3.779c0.311,0.024,0.584,0.061,0.859,0.097c0.439,0.059,0.854,0.113,1.266,0.113c0,0,0,0,0,0
	c0.671,0,1.202-0.153,1.681-0.499c-0.806-0.299-1.805-0.263-2.769-0.164C32.49,75.56,32.152,75.595,31.817,75.608z M83.531,71.485
	c-0.318-0.133-0.635-0.265-0.941-0.409c-1.324-0.624-2.688-1.211-4.006-1.778c-0.577-0.248-1.155-0.497-1.73-0.749l-0.112-0.034
	c-0.137-0.024-0.277-0.042-0.418-0.059c-0.255-0.03-0.497-0.06-0.679-0.141l-0.351-0.16c-0.511-0.238-1.04-0.485-1.56-0.485
	c-0.807,0-1.351,0.565-1.616,1.681c-0.207,0.869-0.142,1.493,0.204,1.962c0.485,0.657,1.426,0.799,2.191,0.849
	c2.065,0.134,4.049,0.91,5.967,1.66c0.6,0.234,1.2,0.47,1.804,0.687c0.254,0.091,0.505,0.19,0.757,0.289
	c0.912,0.36,1.855,0.732,2.906,0.732c0.343,0,0.685-0.041,1.017-0.121l0.524-0.128l-0.167-0.514
	C86.681,72.802,85.008,72.102,83.531,71.485z M151.464,79.131c-2.238-0.942-4.549-1.8-6.783-2.628l-0.638-0.237
	c-2.074-0.772-3.787-0.515-5.197,0.763l-0.104,0.134c-1.611,2.996-5.769,6.937-7.48,8.491l-0.948,0.86l12.558,0.088
	c4.362,0.03,8.62,0.059,12.262,0.087l0.486,0.004l0.018-0.486C155.768,82.383,154.637,80.465,151.464,79.131z M176.807,85.543
	l0.026,0.524l-13.93,0.003h-0.031c-1.056,0-2.652,0-2.813-2.104c-0.135-1.804,0.626-2.729,2.47-3
	c2.354-0.348,4.774-0.809,7.398-1.409c2.931-0.664,4.667,0.22,5.58,2.72c0.087,0.238,0.233,0.471,0.403,0.74
	C176.285,83.605,176.749,84.339,176.807,85.543z M162.873,85.57L162.873,85.57L162.873,85.57L162.873,85.57z M228.61,89.044
	c-0.173-2.281-0.983-3.446-2.796-4.021c-1.164-0.369-2.455-0.564-3.731-0.564c-1.825,0-3.539,0.392-4.956,1.134l-1.896,0.994
	l2.366-0.054c2.192,0,3.992,0.752,5.897,1.547c1.414,0.591,2.877,1.202,4.53,1.494l0.634,0.112L228.61,89.044z" class="color c2"/>
  <path fill="#706B68" d="M35.307,62.85l-0.521,0.308l-1.182-3.33c-0.671-1.898-1.333-3.769-2.014-5.633
	c-1.916-5.238-3.648-9.964-5.45-14.75c-0.319-0.849-0.34-1.402-0.069-1.794c0.31-0.447,0.866-0.447,1.048-0.447
	c0.198,0,0.417,0.022,0.638,0.046c0.186,0.021,0.373,0.042,0.543,0.042h0.145l0.162,0.077l1.036,0.658
	c3.297,2.097,6.706,4.265,10.348,5.878l0.135,0.06l0.233,0.354c0.733,1.105,1.492,2.249,0.923,3.98
	c-0.88,2.665-1.622,5.429-2.339,8.103l-0.487,1.807C37.957,60.028,37.376,61.632,35.307,62.85z M69.24,38.7
	c0.318-0.337,0.619-0.655,0.945-0.875c0.512-0.343,0.798-0.74,0.851-1.18c0.085-0.709-0.431-1.273-0.886-1.771
	c-0.15-0.164-0.297-0.322-0.406-0.478c-1.731-2.455-3.492-4.888-5.357-7.466l-2.627-3.637l-0.382,0.688
	c-1.346,2.421-1.331,4.626-1.317,6.571c0.004,0.538,0.007,1.068-0.017,1.594c-0.243,5.463,0.355,5.915,5.108,7.811
	c0.486,0.194,0.932,0.289,1.362,0.289C67.78,40.247,68.556,39.425,69.24,38.7z M28.352,63.109l-0.26,0.854
	c-0.089,0.294-0.2,0.584-0.311,0.875c-0.423,1.115-0.903,2.378-0.313,4.023l0.267,0.742l0.558-0.558
	c2.583-2.583,2.762-2.891,0.651-5.27L28.352,63.109z M56.32,60.861c-3.758-4.572-7.644-9.299-12.695-13.044l-0.493-0.365
	l-0.258,0.556c-1.332,2.86-1.856,5.505-2.363,8.063l-0.073,0.366c-0.69,3.49-1.992,6.041-4.097,8.027l-0.855,0.807l1.174,0.056
	c2.077,0.1,4.182,0.108,6.16,0.108l1.485-0.001c4.726,0,10.606,0,16.083,1.668l1.706,0.52l-1.187-1.331
	C59.334,64.528,57.802,62.664,56.32,60.861z M204.13,75.215c-0.646-0.294-1.738-1.598-2.795-2.859
	c-1.73-2.066-3.365-4.019-4.748-4.019c-0.225,0-0.436,0.05-0.628,0.149l-0.317,0.163l0.051,0.353
	c0.448,3.098,1.273,5.155,3.273,8.154c0.753,1.127,1.438,1.878,2.342,1.878c0.646,0,1.286-0.367,2.21-1.269
	c0.533-0.524,0.838-1.743,0.894-1.982l0.093-0.399L204.13,75.215z M105.652,37.972c-0.415-0.9-0.829-1.8-1.234-2.746
	c-0.86-2.008-1.292-3.016-2.489-3.016c-0.674,0-1.508,0.354-2.924,0.981c-0.19,0.083-0.434,0.139-0.691,0.198
	c-0.818,0.188-1.938,0.444-2.198,1.93l-0.049,0.283l0.22,0.186c3.901,3.278,7.647,7.188,11.79,12.303l1.11,1.371l-0.225-1.75
	C108.503,44.16,107.053,41.014,105.652,37.972z M77.16,45.038c-0.153-0.146-0.307-0.292-0.451-0.439l-0.162-0.092
	c-0.538-1.096-1.228-2.106-1.897-3.086c-0.363-0.531-0.726-1.062-1.064-1.606c-0.491-0.786-1.222-1.219-2.06-1.219
	c-0.791,0-1.591,0.389-2.251,1.094c-0.531,0.565-0.768,1.131-0.705,1.684c0.094,0.819,0.819,1.389,1.356,1.746
	c0.693,0.461,1.361,1.004,2.006,1.529c0.958,0.779,1.947,1.584,3.086,2.185c0.583,0.796,1.162,1.594,1.735,2.391l0.321,0.446
	l0.414-0.361c0.733-0.64,1.097-1.265,1.111-1.912C78.62,46.43,77.878,45.722,77.16,45.038z M98.652,32.245
	c1.658-0.738,2.69-1.234,3.022-2.102c0.326-0.851-0.081-1.833-0.827-3.497c-3.091-6.895-6.243-12.775-9.636-17.979
	c-0.663-1.016-1.424-1.944-2.229-2.927c-0.371-0.452-0.749-0.913-1.126-1.395l-0.477-0.608L87.02,4.422
	c-0.106,0.203-0.204,0.36-0.282,0.485c-0.166,0.267-0.309,0.498-0.274,0.796c0.685,5.444,0.741,11.018,0.795,16.408
	c0.017,1.673,0.034,3.346,0.068,5.018l0.002,0.244c0.001,0.601,0.002,1.282,0.426,1.686c1.55,1.486,3.658,3.339,6.225,4.491
	c0.347,0.156,0.71,0.235,1.08,0.235c0.944,0,1.769-0.495,2.566-0.974C97.983,32.595,98.321,32.392,98.652,32.245z" class="color c3"/>
  <path fill="#F2EBDE" d="M122.715,84.098c0.156,1.366-0.652,1.701-1.147,1.779c-0.098,0.016-0.194,0.022-0.289,0.022
	c-0.759,0-1.378-0.498-1.539-1.239c-0.421-1.935-0.824-3.829-1.117-5.719c-0.262-1.703-1.013-2.563-2.679-3.067
	c-1.014-0.307-2.022-0.63-3.03-0.954c-2.154-0.69-4.382-1.405-6.62-1.935c-0.395-0.093-0.735-0.138-1.04-0.138
	c-0.696,0-1.467,0.197-1.908,1.656c-0.292,0.978-0.744,1.904-1.181,2.802l-0.333,0.69c-0.098,0.208-0.165,0.475-0.236,0.757
	c-0.222,0.88-0.52,2.28-2.487,1.929c-0.187-0.033-0.376-0.063-0.564-0.092c-1.474-0.229-3.144-0.487-3.875-2.582
	c-1.691-4.846-3.948-9.394-5.725-12.814c-6.576-12.652-13.781-25.992-23.154-37.789c-0.727-0.917-1.378-1.903-2.009-2.856
	c-0.18-0.273-0.36-0.546-0.542-0.817l-0.011,0.009l-0.284-0.444c-0.003-0.005-0.006-0.009-0.01-0.014l-0.078-0.114
	c-0.009-0.013-0.019-0.025-0.028-0.039c-0.173-0.234-0.699-0.945,0.055-1.51c0.463-0.347,1.089-0.29,1.632,0.148
	c0.324,0.057,0.651,0.107,0.978,0.158c0.878,0.136,1.787,0.277,2.661,0.535c0.332,0.099,0.591,0.146,0.793,0.146
	c0.297,0,0.58-0.064,0.772-0.835c0.26-1.032,0.835-1.248,1.273-1.248c0.477,0,0.955,0.27,1.366,0.522
	c1.456,0.901,2.918,1.789,4.381,2.677c7.862,4.773,15.991,9.709,22.604,16.509c6.568,6.753,11.351,12.941,15.054,19.477l1.12,2.941
	c2.479,6.543,5.043,13.309,7.127,20.123l0.021,0.128l0.01,0.412C122.682,83.576,122.686,83.838,122.715,84.098z M156.455,76.448
	c-1.78-3.518-3.678-7.048-5.513-10.463c-3.772-7.019-7.673-14.277-10.739-21.774c-0.199-0.489-0.477-0.935-0.744-1.366
	c-0.105-0.169-0.21-0.339-0.31-0.509c-6.112-10.522-14.278-19.715-24.963-28.104c-6.028-4.739-12.724-8.465-19.903-11.075
	c-0.207-0.076-0.415-0.155-0.625-0.236c-1.048-0.403-2.131-0.82-3.435-0.82c-0.549,0-1.083,0.074-1.631,0.226l-0.722,0.2l0.461,0.59
	c4.237,5.426,7.505,10.515,9.991,15.557c6.483,13.152,12.142,27.095,16.84,41.495c3.038,6.656,6.114,13.801,7.424,21.509
	l0.058,0.161c0.201,0.357,0.264,0.854,0.331,1.381c0.135,1.059,0.302,2.376,1.86,2.646c0.806,0.14,1.596,0.265,2.414,0.265
	c1.364,0,2.521-0.368,3.533-1.127c2.937-2.199,5.434-4.712,7.943-7.308l0.077-0.104c1.178-2.104,2.668-2.548,4.939-1.549
	c2.962,1.302,5.991,2.482,9.003,3.511c2.307,0.784,3.251,2.138,3.063,4.387c-0.037,0.434,0.047,0.845,0.129,1.243
	c0.034,0.166,0.068,0.333,0.092,0.498l0.091,0.431h0.435c0.614,0,1.491-0.069,2.019-0.665c0.376-0.424,0.511-1.02,0.413-1.818
	C158.67,81.003,157.562,78.641,156.455,76.448z M60.569,39.08c-8.242-3.61-17.706-5.766-25.315-5.766
	c-4.02,0-7.209,0.612-9.224,1.772l-0.706,0.406l2.776,1.813l0.107,0.053c4.659,1.647,8.973,4.036,12.834,7.107
	c9.616,7.16,17.296,16.27,24.338,24.988c0.245,0.303,0.432,0.724,0.628,1.169c0.499,1.124,1.113,2.571,3.121,2.264
	c1.831-0.276,1.97-1.766,2.072-2.854c0.042-0.448,0.082-0.871,0.209-1.202c0.744-1.938,1.045-2.248,1.628-2.248
	c0.484,0,1.233,0.249,1.967,0.517c0.315,0.117,0.621,0.292,0.944,0.477c0.16,0.092,0.321,0.184,0.483,0.269l0.176,0.055
	c2.267,0.26,4.23,1.222,6.309,2.24c1.064,0.521,2.164,1.061,3.298,1.489c1.147,0.435,1.639,1.799,1.831,2.574l0.045,0.183
	l0.154,0.107c0.369,0.257,0.625,0.73,0.896,1.232c0.511,0.943,1.147,2.118,2.831,2.118c0.09,0,0.183-0.003,0.279-0.01l0.615-0.045
	l-0.171-0.593C87.423,58.931,76.614,46.107,60.569,39.08z M33.622,62.779c-0.488-2.141-1.263-4.21-2.011-6.21
	c-0.438-1.168-0.89-2.376-1.275-3.576c-0.799-2.488-2.333-3.646-4.827-3.646c-0.173,0-0.351,0.005-0.625,0.03
	c-0.148,0.037-0.317,0.054-0.484,0.073c-0.497,0.055-1.114,0.123-1.378,0.641c-0.267,0.523,0.034,1.165,0.282,1.602
	c0.412,0.725,0.857,1.433,1.303,2.141c0.925,1.468,1.881,2.987,2.48,4.63l0.095,0.159c0.711,0.804,1.267,1.72,1.855,2.69
	c0.884,1.456,1.797,2.962,3.275,4.048l0.313,0.229l0.3-0.246c1.1-0.9,0.874-1.832,0.724-2.448L33.622,62.779z M252.276,68.404
	c-1.233-1.283-2.571-1.38-3.751-1.466l-0.313-0.023c-4.225-0.341-7.531-0.206-10.665,0.412c-4.292,0.846-8.581,1.7-12.872,2.555
	l-2.5,0.504l-1.01,0.367c-0.718,0.259-1.436,0.518-2.143,0.796c-1.146,0.444-1.71,1.19-1.725,2.278
	c-0.038,2.579-0.147,5.206-0.249,7.434c-0.071,1.501,0.622,2.272,2.119,2.357c1.23,0.07,2.485,0.192,3.698,0.31
	c0.724,0.07,1.447,0.141,2.172,0.201c2.558,0.216,3.995,1.435,4.525,3.837c0.7,3.147,2.796,5.127,6.23,5.882l0.391,0.086l0.17-0.362
	c0.631-1.346,10.894-18.597,15.941-24.495l0.295-0.345L252.276,68.404z M187.773,47.714c-4.326-0.797-7.91-1.168-11.28-1.168
	c-2.727,0-5.266,0.243-7.765,0.742c-5.687,1.137-11.181,3.037-16.494,4.875c-1.497,0.518-2.993,1.035-4.496,1.537l-0.172,0.099
	c-1.304,1.147-0.606,2.268-0.146,3.009c0.1,0.159,0.198,0.318,0.279,0.477c1.123,2.192,2.256,4.38,3.388,6.568
	c2.457,4.746,4.998,9.654,7.392,14.525c0.692,1.412,1.568,2.042,2.841,2.042c0.387,0,0.823-0.057,1.376-0.177
	c1.215-0.265,2.469-0.482,3.682-0.693c1.792-0.313,3.646-0.636,5.437-1.117c1.735-0.47,2.58-0.122,3.438,1.593
	c0.846,1.695,1.787,3.28,2.797,4.71c0.646,0.917,1.694,1.443,2.875,1.443c1.438,0,2.74-0.792,3.318-2.019
	c1.247-2.646,2.043-5.471,2.813-8.203l0.268-0.963l0.953-6.169c0.865-5.591,1.73-11.184,2.586-16.778
	C191.381,48.661,191.15,48.337,187.773,47.714z M214.377,70.692c-3.195-1.748-14.662-4.893-16.624-4.893
	c-0.141,0-0.515,0-0.684,0.323l-0.128,0.33l0.172,0.249c0.65,0.941,14.997,18.575,16.114,19.485
	c0.503,0.409,1.035,0.635,1.499,0.635c0.377,0,1.267-0.159,1.395-1.635c0.323-3.786,0.604-7.493,0.493-11.21
	C216.56,72.135,215.507,71.309,214.377,70.692z" class="color c4"/>
  <path fill="#1B222C" d="M216.185,101.446c-1.521,0.03-2.432-0.395-2.197-2.119c0.27-1.979-0.854-2.73-2.708-2.793
	c-1.635-0.054-2.797,0.421-2.722,2.278c0.09,2.1-1.305,2.005-2.808,1.979c-4.067-0.065-8.141-0.056-12.211-0.076
	c-4.231-0.192-8.446-0.784-12.698-0.601c-1.298,1.52,0.286-3.465-1.697-0.707c-0.718,0.998-2.108,0.357-3.196,0.416
	c-5.536,0.294-10.988-0.804-16.508-0.942c-13.531-0.338-27.062-0.857-40.584-1.367c-18.051-0.684-36.121,0.509-54.164-0.641
	c-1.498-0.094-2.843,0.038-2.938-1.996c-0.105-2.184-1.845-2.254-3.397-2.081c-1.525,0.17-3.769-0.275-3.638,2.332
	c0.104,2.11-1.204,2.081-2.713,2.137c-1.816,0.063-3.76-0.371-5.916,0.793c1.425,1.085,2.546,1.002,3.608,0.937
	c15.229-0.908,30.453,0.598,45.692,0.12c18.633-0.584,37.227,1.118,55.849,1.307c9.877,0.102,19.705,1.435,29.599,1.075
	c4.233,0.174,8.47,0.349,12.703,0.523c9.775,0.263,19.557,0.878,29.327-0.177C220.641,101.434,218.413,101.403,216.185,101.446z
	 M59.688,96.182c-0.146,0.978-0.987,1.065-1.866,1.002c-0.792-0.063-1.341-0.488-1.246-1.324c0.13-1.119,1.064-1.139,1.903-1.116
	C59.271,94.767,59.78,95.171,59.688,96.182z M211.6,101.221c-1.143-0.014-1.587-0.488-1.65-1.224
	c-0.061-0.714,0.229-1.375,1.011-1.538c0.93-0.195,1.15,0.47,1.201,1.19C212.205,100.347,211.993,100.925,211.6,101.221z
	 M31.793,76.478c-1.492,0-2.985,0-4.909,0c1.515-2.17,3.302-1.448,4.914-1.372C31.798,75.562,31.794,76.021,31.793,76.478z
	 M33.398,95.833c-5.337,0-10.673,0-16.402,0C20.407,93.858,29.671,93.613,33.398,95.833z M21.628,87.325
	c4.923-1.158,9.847-2.298,14.775,0C31.478,87.325,26.554,87.325,21.628,87.325z M86.846,74.923
	c-0.013,0.002-0.023,0.002-0.035,0.005c-0.001-0.009-0.002-0.017-0.003-0.026c0.011,0.003,0.021,0.008,0.033,0.012
	C86.843,74.917,86.845,74.919,86.846,74.923z M36.487,75.558c-1.506,1.644-3.152,1.048-4.694,0.92
	c0.001-0.457,0.005-0.916,0.005-1.372C33.263,75.052,34.77,74.564,36.487,75.558z M223.021,91.336
	c-3.602,2.445-23.339,1.934-28.528-0.648C204.609,90.862,213.816,91.07,223.021,91.336z M127.021,91.392
	c2.1-1.052,2.1-1.034,3.939-0.953c7.886,0.369,15.784,0.248,23.664,0.83c2.498,0.188,5.046-0.354,7.578-0.486
	c1.036-0.052,2.207-0.286,3.577,1.431C152.385,92.927,139.754,91.982,127.021,91.392z M102.266,90.087
	c3.141-1.313,9.04-1.476,12.976-0.113C110.899,90.604,106.579,90.621,102.266,90.087z M95.742,89.09
	c-2.733,0.97-5.495,1.617-8.415,0.736C90.081,88.859,92.794,87.372,95.742,89.09z M137.629,96.834
	c1.788-1.171,2.958-0.984,4.775-0.04C140.628,97.708,139.428,97.638,137.629,96.834z M106.841,88.094
	c-0.53-0.062-1.161-0.044-1.157-0.787c0.002-0.46,0.396-0.655,0.835-0.65c0.565,0.007,1.142,0.109,1.155,0.81
	C107.682,87.927,107.297,88.1,106.841,88.094z M253.349,66.785c-1.8-0.857-3.725-1.198-5.707-1.313
	c-8.704-0.51-17.01,1.485-25.269,3.808c-3.597,1.584-7.026,0.221-10.131-1.075c-3.104-1.296-15.828-4.376-16.934-4.515
	c-2.854-0.361-3.121-0.048-2.38,2.825c1.209,4.688,3.063,9.107,5.846,13.123c-0.008,0.213-5.432,3.552-11.263,0.52
	c0.289-1.736,0.584-3.499,0.88-5.258c2.023-8.068,2.582-16.377,4.24-24.504c0.399-1.941-0.396-3.191-2.44-3.638
	c-10.144-2.82-25.49-1.571-42.702,5.475c-1.019-0.079-1.843,0.263-2.208-0.535c-1.56-3.402-17.656-32.165-37.162-43.433
	c-5.993-3.696-12.401-6.598-19.393-7.996c-3.452-0.691-3.981-0.188-3.813,3.289c0.27,5.527,1.336,21.109,0.853,23.825
	c-4.108-2.466-7.684-4.632-11.278-6.768c-1.201-0.72-2.415-1.429-3.682-2.03c-0.79-0.375-2.024-0.446-2.206,0.449
	c-0.489,2.422-1.867,1.712-3.396,1.3c-5.573-1.501-5.604-1.479-6.172,4.37c-0.369,3.798-0.646,7.608-0.995,11.782
	c-4.892-1.578-9.572-2.52-14.239-3.524c-6.305-1.358-12.611-1.31-18.842,0.428c-2.57,0.72-2.605,0.945-1.6,3.492
	c1.226,3.095,2.34,6.238,3.747,9.248c1.214,2.588-3.153,2.116-3.691,2.099c-2.942-0.099-3.269,0.334-1.873,2.919
	c1.544,2.858,2.945,5.809,4.961,8.405c1.494,2.434,0.178,4.857-0.111,7.246c-0.486,3.983-0.597,3.973-4.787,4.696
	c-2.537,0.439-3.251,1.246-2.452,3.669c0.604,1.833,0.426,2.005,0.042,5.244c-0.384,3.238-5.357,13.027-7.12,16.002
	c-0.811,1.371-1.83,2.761-2.364,2.449c-1.425-0.206-2.033,0.667-2.168,1.94c-0.158,1.514-0.248,5.801-0.248,5.801H0v3.882h253.844
	V106.6h-6.95c-0.021-1.372-0.511-2.667-1.708-3.769c-0.745-0.685-1.531-1.201-2.579-1.266c-0.69-0.041-1.701-0.047-1.604-0.902
	c0.355-3.101-2.127-4.567-3.676-6.581c0.675-1.391,11.052-18.603,16.641-24.671C254.991,68.302,254.611,67.385,253.349,66.785z
	 M214.137,71.131c1.196,0.655,1.935,1.395,1.978,2.861c0.11,3.735-0.175,7.443-0.491,11.153c-0.136,1.563-1.242,1.337-2.079,0.654
	c-0.882-0.719-15.206-18.202-16.02-19.382C196.962,65.606,210.557,69.173,214.137,71.131z M196.187,68.93
	c1.608-0.183,6.403,6.404,7.553,7.521c-0.149,0.359-0.314,0.704-0.572,0.957c-1.685,1.644-2.427,1.506-3.785-0.529
	C197.439,73.966,196.624,71.958,196.187,68.93z M188.489,82.609c5.376,1.257,10.299,0.32,14.764-2.938
	c0.61-0.445,1.538-0.868,2.405-1.268c1.198,1.988,4.507,5.771,4.507,5.771s-0.982,1.701-2.81,1.625
	c-6.162-0.256-12.339-0.09-18.51-0.142c-1.242-0.012-2.545,0.165-3.687-0.55c0.126-0.327,0.253-0.652,0.38-0.982
	C186.084,82.801,187.001,82.263,188.489,82.609z M147.896,54.174c22.25-8.631,33.54-7.118,39.786-5.968
	c3.159,0.583,3.151,0.715,2.685,3.766c-1.171,7.65-2.358,15.3-3.539,22.946c-0.868,3.06-1.675,6.137-3.038,9.029
	c-0.961,2.036-4.015,2.369-5.333,0.5c-1.038-1.469-1.956-3.037-2.758-4.646c-0.872-1.742-1.916-2.417-4.015-1.852
	c-2.977,0.799-6.075,1.146-9.095,1.805c-1.71,0.372-2.771,0.223-3.661-1.597c-3.481-7.085-7.183-14.07-10.783-21.102
	C147.68,56.147,146.683,55.241,147.896,54.174z M176.308,85.567c-4.692,0-9.051-0.003-13.405,0.003
	c-1.194,0.001-2.223-0.049-2.344-1.643c-0.117-1.559,0.473-2.236,2.043-2.467c2.495-0.369,4.979-0.854,7.438-1.417
	c2.396-0.543,4.111-0.028,4.999,2.404C175.354,83.315,176.229,83.96,176.308,85.567z M94.112,3.627
	c37.262,12.559,62.424,74.528,64.377,80.062c0.323,1.695-0.652,1.93-1.966,1.924c-0.076-0.544-0.264-1.096-0.218-1.629
	c0.213-2.554-0.931-4.063-3.4-4.903c-3.034-1.035-6.03-2.206-8.963-3.495c-3.502-2.014-5.019,0.652-5.019,0.652
	s-5.65,6.272-8.442,8.365c-1.824,1.366-3.771,1.08-5.562,0.771c-1.849-0.321-1.138-2.53-1.841-3.78
	c-1.294-7.607-4.277-14.651-7.463-21.634c-4.636-14.219-10.227-28.078-16.847-41.508c-2.685-5.446-6.06-10.54-10.045-15.644
	C90.903,2.206,92.527,3.051,94.112,3.627z M154.334,85.609c-6.808-0.051-13.621-0.105-21.396-0.165
	c2.369-2.151,7.029-8.109,7.029-8.109c0.008,0.006,0.014,0.014,0.021,0.021c1.405-1.274,2.479-0.219,4.15,0.405
	c2.479,0.922,4.966,1.832,7.399,2.858C154.483,81.856,154.463,81.906,154.334,85.609z M108.466,47.778
	c-3.63-4.481-7.482-8.695-11.856-12.371c0.273-1.568,1.701-1.364,2.598-1.757c3.369-1.491,3.383-1.425,4.769,1.811
	C105.683,39.455,107.884,43.27,108.466,47.778z M87.463,4.654c1.188,1.515,2.377,2.826,3.33,4.286
	c3.716,5.699,6.823,11.721,9.599,17.91c1.438,3.207,1.383,3.458-1.942,4.938c-1.36,0.606-2.711,2.004-4.264,1.305
	c-2.296-1.03-4.27-2.656-6.084-4.396c-0.318-0.303-0.264-1.041-0.274-1.578c-0.148-7.167,0.03-14.342-0.867-21.479
	C86.937,5.446,87.165,5.221,87.463,4.654z M63.185,22.02c0.356-0.267,0.782-0.085,1.108,0.22c1.244,0.221,2.519,0.346,3.722,0.701
	c1.164,0.346,1.875,0.225,2.192-1.048c0.322-1.286,1.125-0.893,1.892-0.421c9.382,5.807,19.113,11.114,26.889,19.109
	c5.745,5.908,10.923,12.219,14.978,19.374c2.871,7.607,5.825,15.188,8.204,22.963c0.016,0.411,0.004,0.823,0.05,1.232
	c0.067,0.599-0.05,1.125-0.729,1.23c-0.616,0.098-1.132-0.233-1.261-0.829c-0.411-1.888-0.815-3.78-1.111-5.688
	c-0.279-1.819-1.11-2.89-3.028-3.47c-3.222-0.976-6.391-2.119-9.679-2.896c-1.792-0.42-2.975-0.014-3.541,1.86
	c-0.354,1.184-1.73,6.174-3.672,5.83c-1.612-0.285-3.338-0.292-4.055-2.347c-1.55-4.442-3.581-8.699-5.753-12.88
	C82.555,51.81,75.48,38.793,66.185,27.094c-1.03-1.298-1.896-2.726-2.835-4.095C63.153,22.692,62.753,22.344,63.185,22.02z
	 M117.851,84.631c-5.303-0.685-9.325-4.515-14.531-4.201c-0.495-1.811,0.573-2.907,1.054-4.168c0.476-1.247,1.37-1.591,2.673-1.4
	c3.102,0.448,5.993,1.53,8.872,2.663c0.701,0.276,1.22,0.81,1.266,1.536C117.291,80.829,118.431,82.461,117.851,84.631z
	 M77.058,47.828c-0.224-0.312-0.447-0.625-0.675-0.938c-2.441-0.854-4.107-2.808-6.181-4.187c-1.101-0.731-1.628-1.54-0.564-2.671
	c1.137-1.213,2.683-1.301,3.522,0.047c1.306,2.101,2.992,4.013,3.64,6.473C77.161,46.925,77.696,47.265,77.058,47.828z
	 M60.544,32.17c0.112-2.45-0.368-4.996,1.271-7.944c2.693,3.736,5.135,7.077,7.521,10.46c0.566,0.806,2.055,1.732,0.571,2.725
	c-1.354,0.907-2.097,3.074-4.569,2.084C60.71,37.648,60.314,37.311,60.544,32.17z M60.367,39.539
	c16.697,7.313,26.832,20.426,31.847,37.797c-2.133,0.155-2.361-1.729-3.235-2.82c0,0-1.237-1.98-2.586-3.354
	c-3.251-1.229-10.694-4.338-11.214-4.531c-2.791-1.017-3.167-0.763-4.236,2.021c-0.504,1.307,0.181,3.428-1.889,3.74
	c-2.288,0.345-2.321-2.061-3.286-3.253c-7.262-8.989-14.732-17.767-24.071-24.802l-3.21-2.363
	c-2.202-1.484-10.662-5.444-10.662-5.444c-0.51-0.332-1.021-0.667-1.545-1.009C31.861,32.306,46.873,33.628,60.367,39.539z
	 M86.367,73.956v1.04c-1.403,0.155-2.633-0.498-3.913-0.958c-2.595-0.933-5.121-2.194-7.907-2.375
	c-1.647-0.107-2.321-0.601-1.941-2.195c0.481-2.023,1.686-1.201,2.839-0.693c0.365,0.161,5.048,1.866,6.934,2.755
	C83.802,72.199,85.445,72.624,86.367,73.956z M26.606,39.267c-0.594-1.583,0.1-1.084,0.901-1.003L40.702,45.9
	c0.282,0.648,0.395,1.356,0.104,2.244c-1.08,3.27-3.777,13.111-5.753,14.275C34.033,59.557,28.454,44.175,26.606,39.267z
	 M23.739,51.444c-0.954-1.675,0.434-1.375,1.266-1.583c2.488-0.145,4.034,0.73,4.854,3.284c1.047,3.256,2.511,6.388,3.275,9.744
	c0.15,0.645,0.39,1.318-0.525,2.067C30.275,63.244,25.028,53.715,23.739,51.444z M27.939,68.693
	c-0.675-1.878,0.201-3.174,0.631-4.584C30.428,66.203,30.428,66.203,27.939,68.693z M14.635,95.917
	c1.433-3.472,6.037-13.098,6.922-14.451c-0.197-2.559,0.731-5.142-0.607-7.778c2.142-0.465,4.01-0.38,5.723-1.049
	c0.775-0.303,1.808-0.303,2.2-1.075c1.686-3.301,5.107-4.61,7.813-6.735c2.41-2.273,3.617-5.121,4.245-8.294
	c0.532-2.676,1.03-5.375,2.398-8.313c6.996,5.187,11.669,12.196,17.205,18.404c1.689,1.789,3.452,3.534,4.257,6.069
	c-5.128,1.722-10.22,1.871-15.152,1.129c-3.825-0.575-7.078,0.145-10.354,1.542c-0.193,0.893,0.401,1.013,0.929,1.13
	c0.755,0.17,1.857-0.297,2.088,0.854c0.281,1.4-0.939,2.186-1.896,2.358c-2.318,0.42-4.714,0.456-7.079,0.623
	c-2.932,0.208-5.866,0.382-8.797,0.599c-0.703,0.051-0.82,0.633-0.92,1.182c4.489,0.13,8.97-0.274,13.467,0.009
	c3.247,0.201,5.212,2.883,3.192,5.395c-1.916,2.378-1.786,4.802-1.832,7.354c-0.03,1.665-0.488,2.591-2.353,2.639
	c-6.609,0.161-13.186,1.138-19.817,0.877C14.041,98.293,13.838,97.85,14.635,95.917z M238.997,101.079
	c0.101,1.455,0.653,2.351,2.313,2.275c0.854-0.04,1.69,0.101,2.354,0.722c0.771,0.723,1.435,1.531,1.397,2.523
	c0,0-235.417-0.021-235.54-0.011c-0.271,0.025-0.046-3.367,0.063-4.434c0.104-0.991,0.694-1.433,1.687-1.438
	c0.845-0.004,1.693-0.014,2.538-0.054c7.743-0.375,15.488-0.721,23.228-1.147c3.033-0.167,3.202-0.37,3.32-3.078
	c0.123-2.851-0.447-5.845,2.128-8.088c0.249-0.221,0.297-0.786,0.267-1.179c-0.234-3.167,0.077-6.107,1.517-9.133
	c0.774-1.633,1.015-2.59,2.992-2.269c8.088,1.321,16.008-0.184,23.906-1.582c2.897-0.515,5.557-0.247,8.239,0.839
	c4.561,1.845,9.176,3.556,13.737,5.394c2.63,1.061,5.331,2.094,8.148,1.974c3.541-0.156,6.648,0.874,9.723,2.306
	c4.41,2.058,9.018,2.722,13.924,2.713c24.959-0.056,49.916,0.075,74.873,0.211c6.343,0.036,12.687,0.335,19.029,0.505
	c0.999,0.028,1.928,0.246,2.858,0.638c5.203,2.176,10.037,5.009,14.907,7.803C238.511,97.661,238.876,99.247,238.997,101.079z
	 M217.359,86.036c2.521-1.32,5.779-1.336,8.304-0.536c1.575,0.499,2.288,1.468,2.448,3.582
	C224.272,88.401,221.471,85.938,217.359,86.036z M235.9,93.358c-3.082-0.679-5.161-2.405-5.85-5.502
	c-0.587-2.658-2.264-3.999-4.972-4.227c-1.964-0.164-3.921-0.398-5.884-0.512c-1.265-0.072-1.704-0.657-1.648-1.835
	c0.113-2.481,0.213-4.967,0.25-7.449c0.015-1.005,0.578-1.499,1.405-1.82c24.021-6.855,31.51-4.515,32.713-3.263
	C246.877,74.638,236.624,91.817,235.9,93.358z" class="color c5"/>
</svg>