<svg version="1.1" id="图层_1" x="0px" y="0px" width="154.262px" height="163.693px" viewBox="0 0 154.262 163.693" enable-background="new 0 0 154.262 163.693" xml:space="preserve" xmlns="http://www.w3.org/2000/svg" xmlns:xlink="http://www.w3.org/1999/xlink" xmlns:xml="http://www.w3.org/XML/1998/namespace">
  <polygon fill="#EF2020" points="84.045,98.05 97.23,98.05 97.23,83.586 110.137,83.586 110.137,70.493 97.23,70.493 97.23,57.493 
	84.045,57.493 84.045,70.493 69.49,70.493 69.49,83.586 84.045,83.586 " class="color c1"/>
  <polygon fill="none" points="84.045,98.05 97.23,98.05 97.23,83.586 110.137,83.586 110.137,70.493 97.23,70.493 97.23,57.493 
	84.045,57.493 84.045,70.493 69.49,70.493 69.49,83.586 84.045,83.586 "/>
  <path fill="#EF2020" d="M69.49,70.493h14.555v-13H97.23v13h12.906v13.093H97.23V98.05H84.045V83.586H69.49V70.493z" class="color c1"/>
  <path fill="#003161" d="M51.268,131.832c-4.391,0-8.146,1.558-11.256,4.671c-3.055,3.052-4.578,6.772-4.578,11.167
	c0,4.455,1.523,8.21,4.578,11.262c3.109,3.174,6.865,4.76,11.256,4.76c4.516,0,8.271-1.556,11.262-4.669
	c3.176-3.052,4.76-6.835,4.76-11.353c0-4.395-1.557-8.147-4.666-11.26C59.508,133.359,55.725,131.832,51.268,131.832z
	 M56.121,152.613c-1.277,1.282-2.896,1.923-4.852,1.923c-1.893,0-3.477-0.673-4.76-2.014c-1.281-1.221-1.922-2.838-1.922-4.853
	c0-1.892,0.641-3.479,1.922-4.76c1.223-1.281,2.809-1.926,4.76-1.926c2.016,0,3.633,0.645,4.852,1.926
	c1.348,1.342,2.016,2.929,2.016,4.76C58.137,149.622,57.465,151.271,56.121,152.613z M33.051,34.789L29.484,0H0v9.155h21.15
	l2.746,26.092h-0.094l9.707,91.825h111.051l9.701-92.283H33.051z M139.25,89.354h-9.063v3.661h8.697l-2.656,24.9H41.842
	l-0.551-5.493h86.607v-3.661H40.924l-3.479-32.317h9.246v-3.662h-9.613l-3.111-28.838h110.135L139.25,89.354z M128.08,131.832
	c-4.455,0-8.238,1.558-11.354,4.671c-3.111,3.11-4.666,6.834-4.666,11.17c0,4.33,1.555,8.116,4.666,11.352
	c3.115,3.112,6.898,4.669,11.354,4.669c4.578,0,8.328-1.557,11.262-4.669c3.174-3.052,4.76-6.836,4.76-11.352
	c0-4.336-1.588-8.06-4.76-11.17C136.41,133.39,132.658,131.832,128.08,131.832z M132.936,152.522l-0.188,0.091
	c-1.219,1.282-2.775,1.923-4.668,1.923c-1.891,0-3.512-0.673-4.852-2.014c-1.342-1.281-2.014-2.9-2.014-4.853
	c0-1.771,0.641-3.355,1.922-4.76c1.346-1.281,2.992-1.926,4.945-1.926c1.955,0,3.541,0.645,4.762,1.926
	c1.404,1.404,2.105,2.989,2.105,4.76C134.949,149.562,134.275,151.181,132.936,152.522z" class="color c2"/>
</svg>