<svg version="1.1" id="图层_1" x="0px" y="0px" width="134.287px" height="107.266px" viewBox="0 0 134.287 107.266" enable-background="new 0 0 134.287 107.266" xml:space="preserve" xmlns="http://www.w3.org/2000/svg" xmlns:xlink="http://www.w3.org/1999/xlink" xmlns:xml="http://www.w3.org/XML/1998/namespace">
  <path fill="#542F0B" d="M70.452,23.847c0-1.66-1.487-3.036-3.144-3.036h-5.344c-1.656,0-3.052,1.376-3.052,3.036v32.98H16.601
	v22.357c0,11.291,3.103,18.799,9.065,22.512c5.98,3.713,12.571,5.569,19.666,5.569c3.555-0.163,35.782,0,39.488,0
	c6.949-0.325,13.272-2.34,19.006-6.052c5.731-3.717,8.587-11.06,8.587-22.029V56.827H70.452V23.847z" class="color c1"/>
  <path fill="#B79570" d="M19.604,40.995c-5.079-6.631-3.913-16.057,2.531-21.282c0.913,0.741,1.759,1.584,2.503,2.561
	c5.073,6.629,3.912,16.062-2.531,21.284C21.194,42.813,20.352,41.968,19.604,40.995z M19.74,44.704
	C15.026,38.547,6.569,36.957,0,40.661c0.077,0.104,0.139,0.214,0.215,0.313c4.721,6.161,13.175,7.744,19.74,4.04
	C19.883,44.909,19.819,44.806,19.74,44.704z M17.024,54.38h23.249c0-6.295-5.205-11.623-11.624-11.623
	C22.231,42.757,17.024,48.085,17.024,54.38z M99.386,54.38c4.175-16.784,7.333-35.256,8.981-53.861
	c-2.883-0.353-7.037-0.738-10.549-0.368c-1.229,16.902-1.882,36.396-4.383,54.229H99.386z M107.288,34.46
	c-1.483,3.468-3.553,6.771-4.504,10.128c-0.952,3.349-1.604,6.645-2.282,9.792h2.8c8.505-15.735,16.494-31.754,23.845-48.589
	c-2.51-1.264-4.872-2.619-7.445-3.823c-3.432,6.638-5.654,14.246-8.384,21.757C110.065,27.183,108.796,30.916,107.288,34.46z
	 M117.063,4.51c-0.751-0.251-2.227-1.836-2.796-0.77c-3.266,11.315-8.538,21.459-9.773,34.288
	C109.262,27.443,112.867,15.682,117.063,4.51z M128.545,21.271c-2.538,4.141-5.769,7.8-8.533,11.796
	c-2.681,3.864-5.68,7.341-8.539,11.211c-2.274,3.081-4.5,6.954-6.656,10.102h7.444c6.217-9.092,13.209-17.687,22.026-24.377
	C132.922,26.501,131.352,23.325,128.545,21.271z M42.362,50.421c-9.619-24.49-13.648-45.71-8.991-47.538
	c4.17-1.633,14.001,12.96,22.743,33.625V54.38H44.023C43.471,53.33,42.902,51.802,42.362,50.421z M45.877,51.872
	c0.814,0.879,2.392-3.025,3.513-8.72c1.121-5.69,1.373-11.015,0.557-11.88c-0.817-0.881-2.39,3.031-3.514,8.72
	C45.308,45.684,45.058,51.004,45.877,51.872z M42.729,27.397c1.038-5.243,1.212-10.198,0.396-11.07
	c-0.817-0.88-2.315,2.67-3.355,7.913c-1.03,5.241-1.215,10.2-0.393,11.066C40.191,36.184,41.69,32.642,42.729,27.397z
	 M82.445,39.771c0.064,3.717,0.414,9.303,0.798,14.722c0.015,0,0.03-0.113,0.047-0.113h8.497c0.522-4.896,1.079-10.736,1.478-14.725
	c0.981-9.896-2.425-11.37-5.41-11.37C84.868,28.285,82.278,30.766,82.445,39.771z M79.354,43.696c0.848-7.203-2.137-8.26-4.719-8.26
	c-0.594,0-1.037,0.168-1.735,0.388v18.024c0,0.26,0.035,0.531,0.005,0.531h5.172C78.53,50.533,79.011,46.598,79.354,43.696z
	 M88.457,26.755l2.595-11.902l-2.781,3.038l1.299-8.489l-2.746,4.744L84.563,1.272l-0.972,9.643l-2.269-3.294l4.54,19.134H88.457z
	 M75.381,34.563l4.118-6.329l-3.298,1.554l2.662-5.501l-2.661,1.987l0.763-6.389l-2.602,4.51l-1.464-8.959v19.315
	C74.299,34.351,75.381,34.563,75.381,34.563z" class="color c2"/>
</svg>