<svg version="1.1" id="图层_1" x="0px" y="0px" width="35.623px" height="33.559px" viewBox="0 0 35.623 33.559" enable-background="new 0 0 35.623 33.559" xml:space="preserve" xmlns="http://www.w3.org/2000/svg" xmlns:xlink="http://www.w3.org/1999/xlink" xmlns:xml="http://www.w3.org/XML/1998/namespace">
  <path fill="#F06755" d="M1.955,21.504C0.875,21.504,0,20.629,0,19.549v-7.818c0-1.08,0.875-1.955,1.955-1.955
	c1.078,0,1.955,0.875,1.955,1.955v7.818C3.91,20.629,3.033,21.504,1.955,21.504z M10.209,27.696V4.888
	c0-1.08-0.875-1.955-1.955-1.955S6.299,3.808,6.299,4.888v22.807c0,1.078,0.875,1.955,1.955,1.955S10.209,28.774,10.209,27.696z
	 M16.507,24.328V11.73c0-1.08-0.875-1.955-1.955-1.955c-1.079,0-1.954,0.875-1.954,1.955v12.598c0,1.08,0.875,1.955,1.954,1.955
	C15.632,26.283,16.507,25.408,16.507,24.328z M33.666,13.685c-1.078,0-1.953,0.875-1.953,1.953V26.5
	c0,1.078,0.875,1.955,1.953,1.955c1.082,0,1.957-0.877,1.957-1.955V15.638C35.623,14.56,34.748,13.685,33.666,13.685z M27.369,0.001
	c-1.08,0-1.955,0.875-1.955,1.954v29.649c0,1.08,0.875,1.955,1.955,1.955c1.078,0,1.953-0.875,1.953-1.955V1.956
	C29.322,0.876,28.447,0.001,27.369,0.001z M21.068,28.457c1.08,0,1.955-0.877,1.955-1.955V7.657c0-1.079-0.875-1.955-1.955-1.955
	s-1.955,0.876-1.955,1.955v18.845C19.113,27.58,19.988,28.457,21.068,28.457z" class="color c1"/>
</svg>