<svg version="1.1" id="图层_1" x="0px" y="0px" width="181.183px" height="136.19px" viewBox="0 0 181.183 136.19" enable-background="new 0 0 181.183 136.19" xml:space="preserve" xmlns="http://www.w3.org/2000/svg" xmlns:xlink="http://www.w3.org/1999/xlink" xmlns:xml="http://www.w3.org/XML/1998/namespace">
  <g>
    <path fill="#ED1C24" d="M90.698,70.64c-28.976,0-57.952,0-86.928-0.001c-0.645,0-1.47,0.246-1.896-0.091
		C1.079,69.919,0.003,68.948,0,68.116c-0.003-0.827,1.101-1.749,1.863-2.443c0.307-0.28,0.997-0.074,1.513-0.074
		c58.146-0.001,116.291-0.001,174.437,0c0.516,0,1.206-0.205,1.513,0.075c0.76,0.692,1.857,1.61,1.857,2.437
		c0,0.829-1.066,1.803-1.856,2.432c-0.425,0.338-1.251,0.096-1.895,0.096C148.52,70.64,119.609,70.64,90.698,70.64z" class="color c1"/>
    <path fill="#ED1C24" d="M31.814,107.013c0-8.53-0.003-17.06,0.002-25.59c0.002-2.344,0.865-3.592,2.4-3.524
		c1.443,0.064,2.242,1.285,2.243,3.513c0.005,17.13,0.006,34.259-0.001,51.389c-0.001,2.244-0.81,3.384-2.329,3.389
		c-1.524,0.005-2.31-1.116-2.312-3.378C31.809,124.212,31.814,115.612,31.814,107.013z" class="color c1"/>
    <path fill="#ED1C24" d="M31.814,29.061c0-8.535-0.004-17.069,0.002-25.604c0.002-2.347,0.695-3.4,2.23-3.455
		c1.597-0.058,2.412,1.096,2.413,3.491c0.005,17.069,0.006,34.139-0.001,51.208c-0.001,2.51-1.094,3.821-2.828,3.394
		c-1.587-0.39-1.83-1.693-1.826-3.22C31.825,46.271,31.814,37.666,31.814,29.061z" class="color c1"/>
    <path fill="#ED1C24" d="M94.657,105.946c0-8.042-0.006-16.084,0.009-24.125c0.001-0.759-0.103-1.719,0.263-2.228
		c0.531-0.737,1.514-1.663,2.182-1.561c0.782,0.119,1.545,1.166,2.094,1.986c0.282,0.42,0.097,1.221,0.097,1.849
		c0.003,16.014,0.003,32.027,0.001,48.041c0,0.559,0.182,1.272-0.065,1.647c-0.575,0.874-1.252,2.015-2.086,2.261
		c-1.253,0.37-2.163-0.655-2.426-2.073c-0.113-0.608-0.069-1.253-0.069-1.881C94.656,121.89,94.657,113.918,94.657,105.946z" class="color c1"/>
    <path fill="#ED1C24" d="M99.305,30.308c0.001,7.909,0.002,15.818,0,23.726c0,0.63,0.023,1.264-0.037,1.888
		c-0.134,1.385-0.943,2.397-2.137,2.148c-0.878-0.184-1.731-1.132-2.34-1.96c-0.324-0.441-0.13-1.35-0.131-2.048
		C94.656,38.175,94.657,22.287,94.657,6.4c0-0.35-0.01-0.7,0.004-1.05c0.074-1.969,1.03-3.262,2.431-3.107
		c1.655,0.184,2.227,1.365,2.222,3.079C99.292,13.651,99.304,21.98,99.305,30.308z" class="color c1"/>
    <path fill="#ED1C24" d="M74.108,105.522c0,7.835,0.001,15.67-0.003,23.505c0,0.629,0.175,1.421-0.106,1.85
		c-0.506,0.773-1.256,1.774-1.978,1.85c-0.722,0.076-1.733-0.697-2.245-1.411c-0.401-0.559-0.306-1.597-0.306-2.423
		c-0.015-15.67-0.011-31.34-0.01-47.011c0-0.49-0.033-0.985,0.02-1.468c0.167-1.531,0.976-2.525,2.394-2.479
		c1.405,0.046,2.214,1.014,2.223,2.612c0.011,1.889,0.01,3.778,0.011,5.666C74.108,92.65,74.108,99.086,74.108,105.522z" class="color c1"/>
    <path fill="#ED1C24" d="M74.108,30.787c0,7.974,0.005,15.949-0.003,23.923c-0.002,2.332-0.716,3.412-2.226,3.457
		c-1.575,0.047-2.416-1.141-2.417-3.51c-0.008-15.949-0.006-31.897-0.008-47.846c0-0.28-0.01-0.56,0.006-0.839
		c0.096-1.617,0.802-2.72,2.371-2.7c1.567,0.019,2.274,1.093,2.274,2.754c-0.001,4.757,0.002,9.513,0.003,14.27
		C74.108,23.792,74.108,27.289,74.108,30.787z" class="color c1"/>
    <path fill="#ED1C24" d="M107.287,103.202c-0.001-7.208-0.004-14.416,0.001-21.624c0.002-2.468,0.729-3.646,2.246-3.683
		c1.504-0.037,2.396,1.264,2.397,3.59c0.007,14.556,0.001,29.112,0.008,43.667c0.001,1.646-0.197,3.155-2.028,3.492
		c-1.584,0.291-2.61-0.866-2.616-2.979C107.276,118.178,107.288,110.69,107.287,103.202z" class="color c1"/>
    <path fill="#ED1C24" d="M111.935,32.984c0,7.13,0.005,14.259-0.008,21.389c-0.001,0.691,0.124,1.606-0.218,2.024
		c-0.61,0.744-1.567,1.681-2.313,1.618c-0.734-0.062-1.436-1.219-2.045-1.994c-0.196-0.249-0.063-0.811-0.063-1.23
		c-0.002-14.609-0.002-29.217-0.001-43.826c0-0.349-0.004-0.7,0.015-1.048c0.084-1.487,0.825-2.342,2.184-2.413
		c1.379-0.072,2.185,0.797,2.382,2.211c0.133,0.958,0.064,1.952,0.065,2.93C111.937,19.424,111.936,26.204,111.935,32.984z" class="color c1"/>
    <path fill="#ED1C24" d="M11.31,102.223c-0.001,6.92,0.004,13.841-0.004,20.761c-0.002,2.247-0.788,3.429-2.258,3.47
		c-1.533,0.042-2.381-1.203-2.382-3.562c-0.005-13.841-0.005-27.681,0-41.522c0.001-2.208,0.819-3.426,2.276-3.47
		c1.534-0.046,2.365,1.186,2.367,3.562C11.315,88.383,11.311,95.303,11.31,102.223z" class="color c1"/>
    <path fill="#ED1C24" d="M11.309,34.097c-0.001,6.996,0.01,13.991-0.008,20.987c-0.006,2.117-1.007,3.294-2.578,3.049
		c-1.705-0.266-2.073-1.583-2.067-3.221c0.021-6.156,0.008-12.312,0.008-18.468c0-7.765-0.045-15.531,0.054-23.295
		c0.013-1.032,0.503-2.405,1.213-3.007c1.505-1.276,3.349,0.164,3.367,2.549c0.039,4.897,0.012,9.794,0.012,14.691
		C11.31,29.619,11.31,31.858,11.309,34.097z" class="color c1"/>
    <path fill="#ED1C24" d="M56.957,101.524c0-6.722-0.005-13.445,0.003-20.167c0.003-2.265,0.782-3.434,2.26-3.46
		c1.458-0.026,2.378,1.236,2.38,3.391c0.01,13.655,0.014,27.309-0.004,40.964c-0.003,2.402-1.342,3.693-3.072,3.077
		c-1.358-0.484-1.578-1.648-1.575-3.008C56.966,115.389,56.957,108.456,56.957,101.524z" class="color c1"/>
    <path fill="#ED1C24" d="M56.957,34.321c0-6.716-0.005-13.432,0.002-20.148c0.002-2.303,0.73-3.448,2.2-3.523
		c1.506-0.077,2.441,1.241,2.442,3.533c0.007,13.502,0.008,27.003,0,40.505c-0.002,2.432-0.974,3.697-2.64,3.443
		c-1.609-0.245-2.017-1.454-2.012-3.033C56.968,48.172,56.957,41.247,56.957,34.321z" class="color c1"/>
    <path fill="#ED1C24" d="M170.08,101.167c-0.001-6.57-0.006-13.141,0.001-19.711c0.002-2.415,0.81-3.593,2.386-3.536
		c1.449,0.052,2.259,1.272,2.26,3.49c0.006,13.21,0.007,26.421-0.001,39.631c-0.001,2.284-0.773,3.382-2.312,3.396
		c-1.545,0.015-2.326-1.081-2.33-3.351C170.076,114.448,170.082,107.808,170.08,101.167z" class="color c1"/>
    <path fill="#ED1C24" d="M174.73,35.135c0,6.65,0.015,13.301-0.009,19.951c-0.008,2.184-1.159,3.401-2.794,3.016
		c-1.588-0.374-1.858-1.662-1.856-3.198c0.019-10.081,0.008-20.161,0.008-30.242c0-3.29-0.016-6.581,0.006-9.871
		c0.014-2.047,0.882-3.166,2.391-3.056c1.712,0.125,2.256,1.347,2.255,3.027C174.727,21.554,174.73,28.344,174.73,35.135z" class="color c1"/>
    <path fill="#ED1C24" d="M19.238,41.068c0-4.476-0.016-8.951,0.007-13.427c0.012-2.257,0.835-3.383,2.391-3.28
		c1.869,0.124,2.252,1.532,2.252,3.236c-0.004,9.091,0.009,18.182-0.009,27.273c-0.005,2.25-0.849,3.387-2.395,3.282
		c-1.868-0.127-2.252-1.527-2.248-3.238C19.244,50.299,19.238,45.683,19.238,41.068z" class="color c1"/>
    <path fill="#ED1C24" d="M19.238,94.693c0-4.474-0.015-8.948,0.006-13.421c0.01-2.194,0.899-3.493,2.361-3.356
		c1.782,0.166,2.29,1.498,2.287,3.247c-0.013,9.157,0.007,18.314-0.018,27.471c-0.005,2.031-0.942,3.262-2.361,3.139
		c-1.801-0.157-2.287-1.498-2.281-3.239C19.249,103.92,19.238,99.307,19.238,94.693z" class="color c1"/>
    <path fill="#ED1C24" d="M162.152,41.556c0,4.542,0.031,9.085-0.014,13.626c-0.021,2.114-1.075,3.212-2.669,2.946
		c-1.403-0.234-1.944-1.28-1.946-2.681c-0.016-9.224-0.013-18.448-0.006-27.672c0.001-1.646,0.766-2.773,2.287-2.781
		c1.648-0.009,2.345,1.225,2.346,2.935C162.155,32.471,162.152,37.014,162.152,41.556z" class="color c1"/>
    <path fill="#ED1C24" d="M157.512,94.373c0.001-4.542-0.069-9.087,0.061-13.624c0.025-0.871,0.663-1.99,1.336-2.484
		c0.505-0.37,1.715-0.2,2.254,0.242c0.555,0.456,0.942,1.531,0.948,2.338c0.063,9.154,0.047,18.308,0.03,27.462
		c-0.003,1.603-0.656,2.758-2.263,2.779c-1.718,0.023-2.359-1.181-2.363-2.878C157.504,103.597,157.511,98.985,157.512,94.373z" class="color c1"/>
    <path fill="#ED1C24" d="M82.089,95.219c0-4.691-0.012-9.381,0.005-14.072c0.008-2.082,0.838-3.222,2.27-3.231
		c1.408-0.009,2.357,1.197,2.362,3.203c0.021,9.521,0.023,19.043-0.002,28.564c-0.006,2.057-0.923,3.172-2.425,3.067
		c-1.733-0.121-2.223-1.352-2.217-3.039C82.102,104.881,82.089,100.05,82.089,95.219z" class="color c1"/>
    <path fill="#ED1C24" d="M82.09,40.593c-0.001-4.616-0.011-9.232,0.003-13.847c0.007-2.273,0.793-3.385,2.316-3.364
		c1.481,0.02,2.319,1.207,2.322,3.428c0.013,9.371,0.005,18.743,0.005,28.114c0,1.713-0.443,3.149-2.288,3.209
		c-1.704,0.056-2.363-1.116-2.36-2.853C82.096,50.384,82.091,45.489,82.09,40.593z" class="color c1"/>
    <path fill="#ED1C24" d="M124.437,95.089c0,4.613-0.026,9.226,0.013,13.839c0.015,1.773-0.481,3.071-2.261,3.243
		c-1.464,0.141-2.393-1.18-2.396-3.329c-0.014-9.226,0.002-18.452-0.018-27.678c-0.004-1.775,0.563-3.052,2.307-3.242
		c1.475-0.16,2.344,1.124,2.35,3.328C124.447,85.863,124.437,90.476,124.437,95.089z" class="color c1"/>
    <path fill="#ED1C24" d="M124.437,41.162c0,4.618,0.012,9.237-0.006,13.855c-0.008,2.098-0.819,3.158-2.316,3.144
		c-1.482-0.013-2.315-1.099-2.319-3.185c-0.017-9.237-0.003-18.473-0.016-27.71c-0.002-1.741,0.471-3.081,2.275-3.247
		c1.517-0.14,2.372,1.072,2.378,3.287C124.447,31.925,124.438,36.543,124.437,41.162z" class="color c1"/>
    <path fill="#ED1C24" d="M149.578,90.483c-0.001,3.072-0.012,6.143,0.003,9.215c0.008,1.707-0.59,2.926-2.286,2.951
		c-1.693,0.025-2.358-1.167-2.36-2.878c-0.004-6.283,0.007-12.566-0.008-18.849c-0.004-1.731,0.687-2.947,2.304-2.974
		c1.622-0.027,2.36,1.152,2.352,2.901C149.567,84.06,149.579,87.272,149.578,90.483z" class="color c1"/>
    <path fill="#ED1C24" d="M149.578,45.875c-0.001,3.071,0.017,6.142-0.007,9.213c-0.016,2.038-0.89,3.18-2.38,3.065
		c-1.687-0.13-2.264-1.318-2.261-3.011c0.01-6.212-0.009-12.424,0.011-18.635c0.006-1.962,0.98-3.241,2.395-3.093
		c1.637,0.172,2.27,1.316,2.253,3.039C149.557,39.593,149.579,42.735,149.578,45.875z" class="color c1"/>
    <path fill="#ED1C24" d="M48.98,47.328c0,2.651-0.001,5.303,0,7.954c0,1.72-0.655,2.882-2.36,2.858
		c-1.607-0.023-2.259-1.199-2.269-2.78c-0.032-5.512-0.036-11.024-0.004-16.536c0.009-1.589,0.707-2.742,2.299-2.755
		c1.709-0.014,2.338,1.173,2.335,2.886C48.977,41.746,48.98,44.537,48.98,47.328z" class="color c1"/>
    <path fill="#ED1C24" d="M48.98,89.053c0,2.724,0.002,5.447-0.002,8.171c-0.002,1.606-0.591,2.775-2.193,2.839
		c-1.71,0.068-2.423-1.131-2.434-2.814c-0.036-5.447-0.023-10.895-0.018-16.342c0.002-1.7,0.709-2.953,2.34-2.965
		c1.639-0.011,2.326,1.205,2.313,2.939C48.966,83.606,48.981,86.329,48.98,89.053z" class="color c1"/>
    <path fill="#ED1C24" d="M132.418,50.77c-0.001-1.533,0.001-3.067-0.001-4.6c-0.002-1.577,0.741-2.591,2.152-2.673
		c1.53-0.089,2.417,0.969,2.452,2.586c0.071,3.204,0.075,6.413-0.013,9.616c-0.042,1.51-0.877,2.495-2.356,2.452
		c-1.469-0.043-2.199-1.009-2.226-2.571C132.397,53.976,132.419,52.373,132.418,50.77z" class="color c1"/>
    <path fill="#ED1C24" d="M132.414,85.193c-0.002-1.532-0.006-3.064-0.001-4.595c0.005-1.575,0.769-2.581,2.171-2.657
		c1.53-0.083,2.403,0.989,2.437,2.601c0.068,3.201,0.078,6.407-0.017,9.606c-0.045,1.501-0.878,2.484-2.367,2.429
		c-1.478-0.054-2.185-1.029-2.215-2.58C132.393,88.396,132.416,86.794,132.414,85.193z" class="color c1"/>
  </g>
</svg>