<svg version="1.1" id="图层_1" x="0px" y="0px" width="148.477px" height="120.561px" viewBox="0 0 148.477 120.561" enable-background="new 0 0 148.477 120.561" xml:space="preserve" xmlns:xml="http://www.w3.org/XML/1998/namespace" xmlns="http://www.w3.org/2000/svg" xmlns:xlink="http://www.w3.org/1999/xlink">
  <path fill="#F9F1E9" d="M148.474,7.666c-0.558-1.314-3.008-1.457-4.035-1.457c-0.996,0-3.381,0.139-4.033,1.415
	c-0.146,0.271-0.375,0.688,0.281,8.301c0.654,7.594,0.797,7.724,1.06,7.954c0.17,0.148,0.481,0.433,2.809,0.433
	c2.33,0,2.569-0.295,2.757-0.524C147.974,22.975,148.524,7.806,148.474,7.666z M139.181,96.997l-2.596-1.502
	c-0.7-0.408-1.646-0.195-2.032,0.469l-2.676,4.615c-0.396,0.686-0.122,1.578,0.599,1.991l2.599,1.509
	c0.248,0.145,0.521,0.219,0.801,0.219c0.519,0,0.978-0.258,1.233-0.693l2.656-4.6c0.188-0.313,0.24-0.688,0.146-1.053
	C139.814,97.559,139.548,97.212,139.181,96.997z M134.843,106.585l-4.277-2.484c-0.918-0.522-2.146-0.219-2.662,0.668l-4.733,8.179
	c-0.524,0.901-0.188,2.084,0.751,2.639l4.271,2.475c0.313,0.183,0.662,0.273,1.019,0.273c0.688,0,1.306-0.349,1.646-0.937l4.74-8.18
	C136.115,108.305,135.78,107.128,134.843,106.585z M144.98,74.907c-0.604-1.152-1.362-2.597-1.442-4.673
	c-0.201-8.381-0.588-24.335-0.591-24.751c0.003-0.527-0.01-0.978-0.021-1.367c-0.049-1.607-0.058-1.896,1.214-3.086
	c0.192-0.2,0.402-0.392,0.613-0.583c1.011-0.917,2.271-2.063,2.235-4.608c0.097-5.225,0.102-6.957,0.021-7.622h0.006
	c-0.021-0.816-0.823-1.23-2.384-1.23c-0.775,0-1.795,0.1-2.25,0.568l-0.296,0.368l0.012,0.345h0.001
	c-0.063,0.658-0.061,2.322-0.006,7.116c-0.027,0.713-0.41,1.134-1.355,2.095c-0.396,0.408-0.854,0.874-1.373,1.479
	c-1.43,1.811-1.398,3.39-1.338,6.618c0.009,0.326,0.602,24.968,0.602,24.987c0.179,3.558,1.341,5.574,2.035,6.781
	c0.168,0.291,0.31,0.529,0.408,0.781c1.943,4.102,1.502,5.154-0.492,8.537l-0.229,0.385c-2.061,3.428-2.751,4.611-2.919,5.166
	c-0.123,0.328-0.083,0.707,0.117,1.061c0.492,0.867,2.096,1.785,3.121,1.785c0.636,0,0.954-0.332,1.084-0.531
	c0.359-0.473,1.104-1.771,3.303-5.733l0.43-0.771c1.899-3.354,2.938-5.998,0.099-11.864
	C145.429,75.772,145.218,75.365,144.98,74.907z M60.28,0c33.292,0,60.28,26.988,60.28,60.28c0,33.291-26.988,60.279-60.28,60.279
	C26.989,120.56,0,93.572,0,60.281C0,26.989,26.989,0,60.28,0z" class="color c1"/>
  <path fill="#B8915D" d="M60.278,116.089c-30.771,0-55.808-25.037-55.808-55.812c0-30.771,25.035-55.809,55.808-55.809
	c30.773,0,55.813,25.036,55.813,55.809C116.089,91.052,91.053,116.089,60.278,116.089z M60.278,9.471
	c-28.016,0-50.808,22.792-50.808,50.81s22.792,50.809,50.808,50.809c28.02,0,50.813-22.791,50.813-50.809
	C111.089,32.263,88.296,9.471,60.278,9.471z M60.278,83.852c-12.803,0-23.375-10.537-23.563-23.339
	c-0.021-1.382,1.082-2.657,2.463-2.657c0.013,0,0.025,0,0.038,0c1.363,0,2.479,1.215,2.499,2.583
	c0.147,10.087,8.479,18.355,18.563,18.355c10.089,0,18.418-8.297,18.565-18.386c0.021-1.366,1.136-2.554,2.499-2.554
	c0.014,0,0.024,0,0.038,0c1.381,0,2.481,1.275,2.463,2.657C83.655,73.315,73.084,83.852,60.278,83.852z M60.278,94.913
	c-18.905,0-34.438-15.504-34.624-34.412c-0.014-1.381,1.097-2.646,2.478-2.646c0.009,0,0.017,0,0.023,0
	c1.369,0,2.485,1.227,2.499,2.598C30.811,76.629,44.1,89.852,60.278,89.852c16.181,0,29.47-13.252,29.625-29.43
	c0.017-1.373,1.132-2.565,2.5-2.565c0.011,0,0.019,0,0.024,0c1.382,0,2.489,1.267,2.476,2.646
	C94.72,79.409,79.187,94.913,60.278,94.913z M60.28,106.149c-25.105,0-45.682-20.428-45.861-45.536
	c-0.011-1.381,1.102-2.508,2.48-2.518c1.42,0.021,2.509,1.103,2.52,2.482c0.161,22.37,18.493,40.568,40.861,40.568
	c22.369,0,40.701-18.317,40.861-40.689c0.01-1.375,1.127-2.604,2.5-2.604c0.006,0,0.012,0,0.021,0c1.381,0,2.489,1.257,2.479,2.641
	C105.961,85.602,85.388,106.149,60.28,106.149z M80.066,32.906c-3.685-6.361-11.914-9.44-12.269-9.595l-0.655-0.253
	c-1.16-0.453-2.425,0.455-2.425,1.667v29.839c-2.069-1.062-4.493-1.36-6.917-0.908c-2.525,0.507-4.746,1.817-6.261,3.688
	c-1.616,2.021-2.223,4.392-1.769,6.765c0.81,4.091,4.694,6.867,9.239,6.867c0.707,0,1.413-0.053,2.121-0.203
	c2.521-0.504,4.746-1.813,6.262-3.688c1.262-1.515,1.918-3.332,1.918-5.101V29.22c2.271,1.263,5.199,3.332,6.768,6.059
	c1.515,2.627,0.253,5.304-0.909,6.917c-0.656,0.909-0.558,2.12,0.202,2.931l0,0c1.011,1.061,2.727,0.959,3.584-0.253
	C80.925,41.893,82.591,37.349,80.066,32.906z M63.76,64.159c-0.86,1.063-2.12,1.768-3.536,2.069
	c-2.878,0.556-5.553-0.809-5.957-2.979c-0.203-1.013,0.104-2.07,0.858-2.98c0.856-1.063,2.121-1.77,3.534-2.069
	c0.451-0.103,0.855-0.151,1.262-0.151c1.012,0,1.971,0.254,2.775,0.707c1.012,0.556,1.718,1.414,1.919,2.424
	S64.517,63.251,63.76,64.159z" class="color c2"/>
</svg>