<svg version="1.1" id="图层_1" x="0px" y="0px" width="58.099px" height="47px" viewBox="0 0 58.099 47" enable-background="new 0 0 58.099 47" xml:space="preserve" xmlns="http://www.w3.org/2000/svg" xmlns:xlink="http://www.w3.org/1999/xlink" xmlns:xml="http://www.w3.org/XML/1998/namespace">
  <path fill="#00C189" d="M55.334,19.202c-0.245-0.054-0.496-0.082-0.746-0.082c-1.717,0-3.151,1.251-3.321,2.82
	c-2.15,10.474-11.518,18.076-22.274,18.076c-10.585,0-19.686-7.136-22.128-17.337c-0.349-1.573-1.728-2.714-3.279-2.714
	c-0.349,0-0.696,0.057-0.958,0.148c-1.834,0.456-2.953,2.237-2.543,4.076C3.363,37.62,15.25,47,28.993,47
	c14.023,0,26.248-9.989,29.08-23.83C58.273,21.563,57.304,19.639,55.334,19.202z" class="color c1"/>
  <path fill="#00C189" d="M18.421,11.816c3.243,0,5.983-2.74,5.983-5.983C24.405,2.617,21.72,0,18.421,0
	c-3.3,0-5.984,2.617-5.984,5.833C12.437,9.076,15.177,11.816,18.421,11.816z" class="color c1"/>
  <path fill="#00C189" d="M38.959,11.816c3.245,0,5.985-2.74,5.985-5.983C44.945,2.617,42.259,0,38.959,0s-5.983,2.617-5.983,5.833
	C32.976,9.076,35.716,11.816,38.959,11.816z" class="color c1"/>
</svg>