<svg version="1.1" id="图层_1" x="0px" y="0px" width="54.205px" height="76.807px" viewBox="0 0 54.205 76.807" enable-background="new 0 0 54.205 76.807" xml:space="preserve" xmlns="http://www.w3.org/2000/svg" xmlns:xlink="http://www.w3.org/1999/xlink" xmlns:xml="http://www.w3.org/XML/1998/namespace">
  <path fill="#EFECD9" d="M27.36,39.557c0.201-0.01,0.402-0.017,0.602-0.026c2.008-0.098,3.965-0.274,6.008-0.658
	c2.035-0.391,4.156-0.938,6.258-2.228c2.098-1.328,3.814-3.341,4.504-6.063c0.705-2.673-0.291-6.105-3.021-7.749
	c-1.324-0.829-2.973-1.104-4.41-0.871c-0.729,0.11-1.393,0.325-2.01,0.614c-0.451,0.227-0.795,0.342-1.336,0.651
	c-2.158,1.173-3.727,2.709-5.029,4.406c-1.281,1.679-2.277,3.414-3.153,5.119l-0.501,0.966c-2.86-0.017-5.872-0.065-8.934,0.221
	c-2.004,0.18-4.063,0.486-6.153,1.128c-2.079,0.633-4.232,1.651-6.05,3.264c-1.819,1.618-3.185,3.672-3.943,5.948
	c-0.067,0.186-0.115,0.383-0.172,0.574v10.167c0.981,3.036,2.8,5.748,5.037,7.808c1.078,0.96,2.232,1.826,3.468,2.57l-2.019,3.688
	c-0.038,0.078-0.081,0.161-0.115,0.246c-0.078,0.198-0.256,0.558-0.406,0.822C5.825,70.443,5.65,70.72,5.465,70.98
	c-0.366,0.516-0.775,0.945-1.155,1.215c-0.392,0.268-0.688,0.346-0.982,0.354c-0.153-0.007-0.324-0.042-0.519-0.107
	c-0.101-0.044-0.201-0.073-0.312-0.137c-0.015-0.006-0.112-0.057-0.116-0.06l-0.22-0.142l-0.242-0.161l-0.106-0.101
	C1.743,71.79,1.66,71.711,1.559,71.61c-0.189-0.18-0.357-0.388-0.493-0.6c-0.28-0.416-0.438-0.866-0.469-1.231
	c-0.026-0.373,0.046-0.657,0.235-0.954c0.095-0.148,0.209-0.311,0.396-0.45c0.151-0.161,0.395-0.291,0.602-0.443l0.286-0.207
	c0.945-0.693,1.179-2.017,0.517-2.994c-0.587-0.868-1.681-1.175-2.613-0.807v-5.077C0.013,58.829,0.006,58.813,0,58.795v13.86
	c0.006-0.003,0.013-0.003,0.019-0.006v3.129l0.104,0.067c0.274,0.166,0.29,0.161,0.449,0.246c0.241,0.133,0.522,0.244,0.796,0.351
	c0.564,0.198,1.188,0.339,1.841,0.361c1.326,0.044,2.613-0.449,3.538-1.104c0.94-0.658,1.624-1.437,2.195-2.232
	c0.285-0.393,0.541-0.802,0.774-1.211c0.216-0.396,0.395-0.73,0.593-1.193l2.126-3.864c1.43,0.475,2.927,0.781,4.484,0.886
	c1.148,0.064,2.337,0.01,3.535-0.26c1.146-0.229,2.587-0.83,3.464-1.409c1.832-1.184,3.622-2.759,4.804-4.888
	c1.215-2.106,1.662-4.658,1.369-6.962c-0.281-2.32-1.123-4.429-2.332-6.287c-0.615-0.928-1.314-1.804-2.214-2.615
	c-0.353-0.317-0.707-0.582-1.061-0.816l2.661-4.913C27.216,39.806,27.29,39.68,27.36,39.557z M32.694,30.588
	c0.994-1.268,2.25-2.332,3.41-2.926c0.271-0.169,0.82-0.361,1.215-0.545c0.234-0.104,0.479-0.163,0.682-0.179
	c0.416-0.041,0.729,0.05,0.996,0.233c0.531,0.36,0.869,1.216,0.584,2.156c-0.254,0.929-1.125,2.023-2.223,2.636
	c-1.693,0.963-4.146,1.414-6.693,1.618C31.308,32.495,31.974,31.479,32.694,30.588z M11.245,60.283
	c-0.77-0.522-1.491-1.104-2.139-1.743c-2.257-2.173-3.72-4.994-3.816-7.896c-0.049-1.46,0.154-2.904,0.707-4.39
	c0.464-1.276,1.209-2.478,2.197-3.348c1.971-1.816,5.241-2.648,8.704-2.974c1.718-0.169,3.467-0.226,5.266-0.259l-1.807,3.423
	c-1.433-0.347-2.914-0.47-4.438-0.354c-1.146,0.109-2.336,0.387-3.483,0.963c-0.581,0.301-1.084,0.598-1.696,1.169
	c-0.138,0.128-0.306,0.285-0.401,0.39l-0.226,0.271l-0.33,0.412l-0.271,0.422c-0.74,1.135-1.068,2.667-0.916,4.044
	c0.198,1.4,0.622,2.521,1.456,3.699c0.044,0.071,0.107,0.145,0.161,0.209c0.814,0.905,2.209,0.979,3.116,0.16
	c0.906-0.813,0.979-2.206,0.163-3.112l-0.016-0.016c-1.687-1.876-0.236-4.132,2.786-4.24c0.617-0.028,1.265,0.015,1.912,0.119
	l-0.262,0.495L11.245,60.283z M24.283,58.956c-0.685,1.151-1.815,2.128-3.153,2.929c-0.72,0.398-1.059,0.476-1.757,0.623
	c-0.634,0.128-1.347,0.138-2.066,0.069c-0.714-0.069-1.435-0.216-2.153-0.429l6.621-12.307l0.472-0.867
	c0.042,0.04,0.095,0.085,0.133,0.131c0.482,0.46,0.953,1.076,1.351,1.726C25.359,53.499,25.727,56.737,24.283,58.956z M5.789,28.874
	c-0.938-1.12-0.896-2.795-0.053-4.288c0.336-0.593,0.797-1.16,1.38-1.648c0.116-0.099,0.239-0.194,0.363-0.285
	c1.873-1.351,4.181-1.448,5.476-0.229l0.112-1.31l0.309-3.496l0.195-2.209l0.254-2.899l0.194-2.218l0.069-0.772l0.132,0.012
	l16.298-2.869l-0.381,4.341l-0.006,0.07l-0.178,2.044l-0.279,3.164l-0.186,2.108l-0.342,3.898l-0.109,1.226
	c-0.012,0.286-0.063,0.577-0.139,0.869c-0.262,1.028-0.898,2.063-1.877,2.882c-0.121,0.101-0.244,0.195-0.367,0.284
	c-1.991,1.438-4.474,1.46-5.709-0.017c-0.951-1.132-0.896-2.841-0.019-4.347c0.334-0.572,0.782-1.115,1.344-1.588
	c0.118-0.101,0.241-0.193,0.365-0.283c0.089-0.063,0.184-0.111,0.273-0.17c1.823-1.175,3.972-1.222,5.206-0.057l0.26-2.95
	l0.184-2.104l0.277-3.154l0.143-1.605l-5.469,0.964l-8.658,1.524l-0.132,1.52l-0.194,2.222l-0.311,3.517l-0.194,2.207l-0.136,1.545
	c-0.003,0.155-0.018,0.314-0.041,0.474l-0.02,0.21l-0.017-0.004c-0.216,1.116-0.881,2.261-1.943,3.151
	c-0.121,0.102-0.242,0.196-0.366,0.286C9.506,30.324,7.025,30.347,5.789,28.874z M53.233,55.522c-0.451,0.702-1.074,1.446-1.9,2.237
	c-0.072,0.067-0.135,0.136-0.209,0.204c-0.111,0.103-0.207,0.185-0.289,0.242c-0.396,0.287-0.455,0.067-0.164-0.604
	c0.029-0.074,0.059-0.148,0.09-0.225c0.387-0.968,0.676-2.211,0.303-3.326c-0.414-1.24-1.666-2.303-4.529-2.636
	c-0.162-0.017-0.313-0.042-0.482-0.057c0,0-0.111,1.345-0.248,3.043c-0.143,1.759-0.318,3.897-0.438,5.326
	c-0.076,0.882-0.242,2.323-0.672,3.095c-0.346,0.623-0.822,1.153-1.391,1.563c-0.895,0.646-2.012,0.985-3.193,0.891
	c-2.643-0.213-4.613-2.529-4.4-5.171c0.117-1.461,0.879-2.716,1.98-3.51c0.891-0.645,2.008-0.988,3.191-0.894
	c0.58,0.048,1.121,0.2,1.621,0.432l0.27-3.323l0.246-3.094l0.217-2.683c0.035-0.445,0.252-0.817,0.564-1.045
	c0.309-0.221,0.705-0.305,1.125-0.199c0.449,0.115,0.977,0.26,1.541,0.437c2.461,0.764,5.695,2.126,7.076,4.261
	C54.417,51.842,54.534,53.505,53.233,55.522z M37.843,11.049c0.088-1.125,0.674-2.09,1.521-2.701
	c0.686-0.495,1.547-0.76,2.455-0.686c0.447,0.036,0.863,0.153,1.248,0.33l0.207-2.556l0.189-2.38l0.166-2.064
	c0.027-0.344,0.193-0.629,0.436-0.804c0.236-0.17,0.541-0.235,0.865-0.153c0.346,0.089,0.752,0.199,1.186,0.335
	c1.893,0.589,4.383,1.638,5.443,3.278c0.674,1.042,0.764,2.322-0.236,3.875c-0.348,0.539-0.826,1.112-1.461,1.721
	c-0.057,0.051-0.105,0.104-0.162,0.157c-0.086,0.078-0.16,0.142-0.223,0.186c-0.307,0.221-0.35,0.052-0.127-0.464
	c0.023-0.058,0.045-0.115,0.07-0.175c0.297-0.743,0.52-1.7,0.232-2.558c-0.318-0.954-1.281-1.771-3.484-2.028
	c-0.125-0.014-0.24-0.032-0.373-0.044c0,0-0.084,1.035-0.189,2.342c-0.109,1.354-0.244,2.998-0.336,4.097
	c-0.059,0.68-0.186,1.789-0.518,2.381c-0.266,0.481-0.633,0.889-1.068,1.204c-0.689,0.496-1.549,0.758-2.457,0.685
	C39.192,14.862,37.677,13.081,37.843,11.049z" class="color c1"/>
</svg>