<svg version="1.1" id="图层_1" x="0px" y="0px" width="71.931px" height="60.803px" viewBox="0 0 71.931 60.803" enable-background="new 0 0 71.931 60.803" xml:space="preserve" xmlns="http://www.w3.org/2000/svg" xmlns:xlink="http://www.w3.org/1999/xlink" xmlns:xml="http://www.w3.org/XML/1998/namespace">
  <path fill="#161616" d="M68.536,20.366H55.667h-0.118h-5.903H18.654l30.932-2.479V6.671C49.586,3.01,46.547,0,42.887,0H6.582
	C2.922,0,0,3.01,0,6.671v47.373c0,3.661,2.922,6.759,6.582,6.759h36.305c3.66,0,6.699-3.099,6.699-6.759V27.155h18.95
	c1.859,0,3.395-1.535,3.395-3.395C71.959,21.872,70.425,20.366,68.536,20.366z" class="color c1"/>
  <path fill="#FFFFFF" d="M43.389,54.044c0,0.236-0.266,0.561-0.502,0.561H6.582c-0.236,0-0.384-0.325-0.384-0.561V27.155h37.19
	V54.044z" class="color c2"/>
  <circle fill="#161616" cx="17.473" cy="34.829" r="4.132" class="color c1"/>
  <circle fill="#161616" cx="31.051" cy="34.829" r="4.132" class="color c1"/>
  <path fill="#161616" d="M18.064,44.954l14.167,0.205l-12.87,5.875c-1.594,0.737-3.482,0.03-4.219-1.565
	c-0.738-1.593-0.03-3.482,1.563-4.22C17.119,45.041,17.592,44.954,18.064,44.954z" class="color c1"/>
</svg>