<svg version="1.1" id="图层_1" x="0px" y="0px" width="54.559px" height="236.484px" viewBox="0 0 54.559 236.484" enable-background="new 0 0 54.559 236.484" xml:space="preserve" xmlns="http://www.w3.org/2000/svg" xmlns:xlink="http://www.w3.org/1999/xlink" xmlns:xml="http://www.w3.org/XML/1998/namespace">
  <path fill="#0C0C0C" d="M54.495,3.359c0.041-0.854,0.055-1.22-0.515-1.624C52.948,1.007,50.537-0.009,45.389,0
	C32.83,0.026,27.121,7.272,16.968,7.292c-3.16,0.01-11.591-1.442-13.39-1.906C1.206,4.771,1.329,5.429,1.13,5.932
	C0.9,6.511,0.221,8.823,0.113,10.292c-0.366,5.042-0.168,4.308,5.652,5.34c8.706,1.55,9.124,6.077,9.136,10.917l0.744,199.248
	c-1.426,3.321-0.396,8.484-0.395,9.085c0.001,0.893,2.079,1.608,4.643,1.604c2.56-0.005,4.635-0.731,4.629-1.621
	c-0.001-0.624,1.089-6.161-0.6-9.443L23.829,26.532c-0.025-13.113,8.512-14.97,13.896-14.979c5.381-0.013,10.309,1.877,11.708,2.497
	c0.333,0.145,0.835,0.425,1.154,0.041C55.476,8.196,54.456,4.212,54.495,3.359z M51.508,4.517c-0.369,0.287-0.966,1-1.138,1.2
	c-0.171,0.2-0.322,0.855-1.558,0.402c-1.232-0.453-1.688-1.056-4.141-1.045C36.6,5.106,26.361,11.75,17.646,11.767
	c-9.186,0.02-11.915-1.92-12.608-2.28C4.367,9.136,3.741,8.764,3.541,8.25C3.354,7.771,3.624,7.608,4.224,7.736
	c0.599,0.127,8.079,1.992,13.459,1.98c12.604-0.026,17.46-6.929,28.182-6.95c1.878-0.003,4.84,0.472,5.413,0.814
	C51.847,3.918,51.879,4.231,51.508,4.517z" class="color c1"/>
</svg>