<svg version="1.1" id="图层_1" x="0px" y="0px" width="208.137px" height="90.531px" viewBox="0 0 208.137 90.531" enable-background="new 0 0 208.137 90.531" xml:space="preserve" xmlns="http://www.w3.org/2000/svg" xmlns:xlink="http://www.w3.org/1999/xlink" xmlns:xml="http://www.w3.org/XML/1998/namespace">
  <path fill="#020202" d="M14.142,65.982L9.041,87.023c-0.322,1.363-1.622,2.788-3.712,3.303c-2.504,0.618-4.863-0.218-5.269-1.865
	c-0.406-1.647,1.294-3.483,3.798-4.102c1.803-0.443,3.526-0.133,4.503,0.689l4.687-19.332c0.023-0.094,0.118-0.151,0.212-0.129
	l0.752,0.183C14.107,65.794,14.165,65.889,14.142,65.982z M44.513,32.771l-0.752-0.182c-0.094-0.023-0.188,0.034-0.212,0.129
	l-4.687,19.331c-0.978-0.821-2.701-1.133-4.504-0.688c-2.504,0.617-4.205,2.453-3.798,4.101c0.406,1.648,2.765,2.484,5.269,1.867
	c2.09-0.516,3.39-1.939,3.712-3.304l5.101-21.041C44.665,32.889,44.607,32.794,44.513,32.771z M22.263,10.438l-0.752-0.183
	c-0.094-0.022-0.188,0.035-0.212,0.13l-4.687,19.331c-0.978-0.822-2.701-1.134-4.503-0.689c-2.504,0.617-4.205,2.453-3.798,4.101
	c0.406,1.648,2.765,2.483,5.269,1.866c2.09-0.515,3.39-1.939,3.712-3.303l5.101-21.041C22.415,10.556,22.357,10.461,22.263,10.438z
	 M208.003,0.188l-0.752-0.183c-0.094-0.022-0.188,0.035-0.212,0.13l-4.688,19.331c-0.978-0.822-2.701-1.134-4.504-0.689
	c-2.504,0.617-4.203,2.453-3.798,4.101c0.406,1.648,2.767,2.483,5.269,1.866c2.091-0.515,3.392-1.939,3.713-3.303L208.132,0.4
	C208.155,0.306,208.098,0.211,208.003,0.188z" class="color c1"/>
</svg>