<svg version="1.1" id="图层_1" x="0px" y="0px" width="110px" height="136.894px" viewBox="0 0 110 136.894" enable-background="new 0 0 110 136.894" xml:space="preserve" xmlns="http://www.w3.org/2000/svg" xmlns:xlink="http://www.w3.org/1999/xlink" xmlns:xml="http://www.w3.org/XML/1998/namespace">
  <path fill="#1A1A1A" d="M86.229,66.355c0,0-15.847,39.035-26.567,40.434c-4.341,0.566-8.224-14.004-12.453-32.502l6.321-2.063v-4.02
	l-7.287,1.822c-0.62-2.75-1.248-5.564-1.887-8.409l5.003-1.632v-4.02l-5.943,1.486c-0.565-2.493-1.14-4.995-1.726-7.487l2.118-0.691
	v-4.02l-3.057,0.765C36.064,26.602,30.663,8.622,23.771,2.849C6.525-11.6,0,33.611,0,33.611l3.264,2.331
	c0,0,1.859-22.374,13.051-25.637c4.336-1.264,8.46,16.299,12.754,38.636l-11.852,2.964l3.02,5.062l9.753-3.183
	c0.416,2.208,0.833,4.447,1.253,6.714l-8.475,2.119l3.02,5.059l6.396-2.087c0.466,2.524,0.935,5.063,1.407,7.603l-6.653,1.664
	l3.021,5.061l4.609-1.504c5.236,27.775,10.916,54.078,17.637,56.809C67.118,141.281,110,128.93,110,128.93L86.229,66.355z" class="color c1"/>
</svg>