<svg version="1.1" id="图层_1" x="0px" y="0px" width="26.014px" height="44.687px" viewBox="0 0 26.014 44.687" enable-background="new 0 0 26.014 44.687" xml:space="preserve" xmlns="http://www.w3.org/2000/svg" xmlns:xlink="http://www.w3.org/1999/xlink" xmlns:xml="http://www.w3.org/XML/1998/namespace">
  <path fill="#FDE05A" d="M25.849,15.832c0.171-0.193,0.213-0.471,0.106-0.706c-0.106-0.236-0.342-0.387-0.599-0.387h-8.702
	c-0.137,0-0.264-0.076-0.33-0.196c-0.068-0.119-0.064-0.268,0.01-0.384L24.053,1.76c0.221-0.354,0.232-0.804,0.029-1.168
	C23.878,0.226,23.492,0,23.074,0H12.559c-0.432,0-0.828,0.242-1.025,0.625L0.049,22.984c-0.07,0.136-0.064,0.3,0.016,0.433
	c0.081,0.132,0.223,0.211,0.377,0.211h7.184c0.219,0,0.422,0.108,0.545,0.292c0.122,0.182,0.146,0.411,0.064,0.614L0.168,44.406
	c-0.039,0.092-0.003,0.198,0.081,0.251c0.085,0.051,0.194,0.034,0.261-0.039L25.849,15.832z" class="color c1"/>
</svg>