<svg version="1.1" id="图层_1" x="0px" y="0px" width="71.202px" height="232.61px" viewBox="0 0 71.202 232.61" enable-background="new 0 0 71.202 232.61" xml:space="preserve" xmlns="http://www.w3.org/2000/svg" xmlns:xlink="http://www.w3.org/1999/xlink" xmlns:xml="http://www.w3.org/XML/1998/namespace">
  <path id="XMLID_2_" fill="#E6241F" d="M1.916,232.594c0,0-6.728,1.825,5.03-33.507c11.755-35.331,29.996-75.531,29.996-75.531
	l2.285-74.409l-3.702-4.295L36.9,0L53.21,39.033l-5.309,10.016l-2.297,74.776l24.457,83.313c0,0,2.763,7.72-0.314,10.171
	c-3.075,2.45-30.018-23.467-33.369-21.93C33.025,196.913,11.348,229.529,1.916,232.594z" class="color c1"/>
  <path fill="#9C1916" d="M37.921,129.314c0,0-26.421,56.69-21.463,59.771c4.956,3.082,4.219-2.729,10.109-4.366
	c5.888-1.637,23.362,0.718,23.362,0.718s5.643,12.085,9.919,6.783c4.277-5.303-15.621-61.125-15.621-61.125L37.921,129.314z" class="color c2"/>
  <path fill="#020304" d="M40.23,186.292l5.096-166.127L43.377,15.5l-5.241,170.714c-6.085-0.126-10.965,0.645-10.965,0.645
	l0.388,3.435c8.754-2.68,22.429,0.688,22.429,0.688l0.093-3.07C46.919,186.935,43.47,186.471,40.23,186.292z" class="color c3"/>
</svg>