<svg version="1.1" id="图层_1" x="0px" y="0px" width="200px" height="102.548px" viewBox="0 0 200 102.548" enable-background="new 0 0 200 102.548" xml:space="preserve" xmlns="http://www.w3.org/2000/svg" xmlns:xlink="http://www.w3.org/1999/xlink" xmlns:xml="http://www.w3.org/XML/1998/namespace">
  <path fill="#FFDC48" d="M200,102.548h-17v-11.25h17V102.548z M200,76.173h-17v11.25h17V76.173z M200,61.049h-17v11.25h17V61.049z
	 M200,45.924h-17v11.25h17V45.924z M200,30.798h-17v11.25h17V30.798z M200,15.674h-17v11.25h17V15.674z M179.666,91.298h-16.998
	v11.25h16.998V91.298z M179.666,76.173h-16.998v11.25h16.998V76.173z M179.666,61.049h-16.998v11.25h16.998V61.049z M179.666,45.924
	h-16.998v11.25h16.998V45.924z M159.333,91.298h-17v11.25h17V91.298z M139,91.298h-17v11.25h17V91.298z M139,76.173h-17v11.25h17
	V76.173z M139,61.049h-17v11.25h17V61.049z M139,45.924h-17v11.25h17V45.924z M139,30.798h-17v11.25h17V30.798z M118.667,91.298
	h-17.002v11.25h17.002V91.298z M118.667,76.173h-17.002v11.25h17.002V76.173z M118.667,61.049h-17.002v11.25h17.002V61.049z
	 M98.333,91.298h-17v11.25h17V91.298z M98.333,76.173h-17v11.25h17V76.173z M98.333,61.049h-17v11.25h17V61.049z M98.333,45.924h-17
	v11.25h17V45.924z M98.333,30.798h-17v11.25h17V30.798z M98.333,15.674h-17v11.25h17V15.674z M78,91.298H61v11.25h17V91.298z
	 M78,76.173H61v11.25h17V76.173z M78,61.049H61v11.25h17V61.049z M78,45.924H61v11.25h17V45.924z M78,30.798H61v11.25h17V30.798z
	 M78,15.674H61v11.25h17V15.674z M57.667,91.298h-17v11.25h17V91.298z M57.667,76.173h-17v11.25h17V76.173z M57.667,61.049h-17
	v11.25h17V61.049z M57.667,45.924h-17v11.25h17V45.924z M37.333,91.298h-17v11.25h17V91.298z M37.333,76.173h-17v11.25h17V76.173z
	 M37.333,61.049h-17v11.25h17V61.049z M17,91.298H0v11.25h17V91.298z M17,76.173H0v11.25h17V76.173z M17,61.049H0v11.25h17V61.049z
	 M17,45.924H0v11.25h17V45.924z M17,30.798H0v11.25h17V30.798z M17,15.674H0v11.25h17V15.674z M17,0H0v11.25h17V0z" class="color c1"/>
</svg>