<svg version="1.1" id="图层_1" x="0px" y="0px" width="95.006px" height="95.005px" viewBox="0 0 95.006 95.005" enable-background="new 0 0 95.006 95.005" xml:space="preserve" xmlns="http://www.w3.org/2000/svg" xmlns:xlink="http://www.w3.org/1999/xlink" xmlns:xml="http://www.w3.org/XML/1998/namespace">
  <path fill="#FFFFFF" d="M35.389,47.274L31.774,60.76l-9.873-9.871L35.389,47.274z M21.38,48.939l3.614-13.486l9.872,9.874
	L21.38,48.939z M26.418,34.026l13.49-3.613L36.294,43.9L26.418,34.026z M18.526,51.793l-3.613,13.485L5.04,55.407L18.526,51.793z
	 M20.477,52.315l9.871,9.87l-13.488,3.615L20.477,52.315z M30.869,64.136l-3.613,13.485l-9.871-9.87L30.869,64.136z M32.818,64.658
	l9.871,9.871l-13.484,3.613L32.818,64.658z M37.337,47.796l9.872,9.872l-13.487,3.613L37.337,47.796z M38.76,46.369l13.491-3.614
	L48.636,56.24L38.76,46.369z M3.616,56.83l9.872,9.87L0,70.32L3.616,56.83z M0.522,72.265l13.489-3.614L10.395,82.14L0.522,72.265z
	 M15.958,69.172l9.873,9.876l-13.487,3.614L15.958,69.172z M12.865,84.611l13.488-3.62l-3.615,13.491L12.865,84.611z M24.686,95.005
	L28.3,81.52l9.872,9.87L24.686,95.005z M39.598,89.964l-9.87-9.872l13.484-3.613L39.598,89.964z M34.243,63.23l13.488-3.613
	l-3.615,13.484L34.243,63.23z M46.063,73.624l3.615-13.485l9.874,9.871L46.063,73.624z M60.974,68.589L51.1,58.712l13.493-3.614
	L60.974,68.589z M55.1,39.907l3.612-13.492l9.873,9.877L55.1,39.907z M70.013,34.865l-9.875-9.871l13.491-3.616L70.013,34.865z
	 M76.478,18.527L80.09,5.041l9.874,9.871L76.478,18.527z M91.393,13.485l-9.876-9.872L95.006,0L91.393,13.485z" class="color c1"/>
</svg>