<svg version="1.1" id="图层_1" x="0px" y="0px" width="153.276px" height="170px" viewBox="0 0 153.276 170" enable-background="new 0 0 153.276 170" xml:space="preserve" xmlns="http://www.w3.org/2000/svg" xmlns:xlink="http://www.w3.org/1999/xlink" xmlns:xml="http://www.w3.org/XML/1998/namespace">
  <path fill="#F3701F" d="M79.628,13.649C44.505,13.804,16.067,45.933,16.24,85.267c0.173,39.331,28.891,71.212,64.014,71.057
	c35.125-0.154,63.558-32.284,63.386-71.616C143.467,45.373,114.754,13.495,79.628,13.649z M86.908,115.011
	c-7.929,0.034-14.974-4.21-19.52-10.805l42.23-27.769c1.145,3.218,1.799,6.722,1.815,10.4
	C111.503,102.333,100.521,114.951,86.908,115.011z M113.536,73.861c-4.587-11.362-14.923-19.295-26.893-19.242
	C70.489,54.69,57.416,69.25,57.493,87.075c0.033,7.384,2.342,14.162,6.158,19.596l-25.114,16.514
	c-7.419-10.443-11.898-23.708-11.961-38.171C26.428,51.221,50.371,23.72,80.055,23.59c22.931-0.101,42.571,16.17,50.39,39.154
	L113.536,73.861z M76.267,0.001C33.945,0.187-0.205,38.394,0.001,85.336c0.205,46.941,34.689,84.849,77.012,84.663
	c42.321-0.186,76.469-38.395,76.263-85.336C153.069,37.721,118.589-0.185,76.267,0.001z M80.273,160.582
	c-37.684,0.165-68.488-33.609-68.671-75.296C11.419,43.602,41.927,9.554,79.608,9.389c37.683-0.165,68.488,33.613,68.671,75.298
	C148.462,126.373,117.955,160.417,80.273,160.582z" class="color c1"/>
</svg>