<svg version="1.1" id="图层_1" x="0px" y="0px" width="121.436px" height="71.534px" viewBox="0 0 121.436 71.534" enable-background="new 0 0 121.436 71.534" xml:space="preserve" xmlns="http://www.w3.org/2000/svg" xmlns:xlink="http://www.w3.org/1999/xlink" xmlns:xml="http://www.w3.org/XML/1998/namespace">
  <g>
    <path fill="#190C28" d="M20.856,18.704c0.1-0.221,0.103-0.46,0.027-0.668c-0.019-0.052-0.043-0.102-0.071-0.149
		c-0.086-0.142-0.213-0.26-0.375-0.333c-0.431-0.194-0.942,0.004-1.142,0.445c-0.15,0.33-0.083,0.703,0.142,0.951
		c0.037,0.041,0.079,0.079,0.125,0.113c0.046,0.034,0.096,0.063,0.15,0.088C20.143,19.345,20.656,19.146,20.856,18.704z" class="color c1"/>
    <path fill="#190C28" d="M18.528,19.674c-0.429-0.196-0.937,0.005-1.133,0.444c-0.098,0.22-0.101,0.458-0.025,0.666
		c0.038,0.104,0.095,0.2,0.17,0.283c0.037,0.041,0.079,0.079,0.125,0.113c0.046,0.034,0.095,0.063,0.149,0.087
		c0.428,0.195,0.935,0,1.134-0.44C19.146,20.385,18.958,19.869,18.528,19.674z" class="color c1"/>
    <path fill="#190C28" d="M20.396,16.347c0.175-0.381,0.053-0.815-0.266-1.044c-0.045-0.033-0.095-0.061-0.148-0.085
		c-0.427-0.19-0.934,0.006-1.135,0.438c-0.05,0.108-0.077,0.221-0.081,0.332c-0.004,0.112,0.013,0.221,0.05,0.324
		c0.019,0.051,0.042,0.101,0.07,0.147c0.056,0.094,0.131,0.177,0.222,0.243c0.046,0.033,0.095,0.062,0.149,0.086
		C19.685,16.982,20.197,16.783,20.396,16.347z" class="color c1"/>
    <path fill="#190C28" d="M17.857,17.181c-0.037-0.103-0.093-0.198-0.167-0.28c-0.073-0.081-0.164-0.149-0.27-0.196
		c-0.423-0.189-0.925,0.012-1.124,0.449c-0.1,0.219-0.105,0.455-0.032,0.66c0.073,0.206,0.223,0.381,0.434,0.477
		c0.422,0.192,0.929-0.008,1.129-0.447c0.05-0.11,0.076-0.224,0.08-0.337C17.911,17.395,17.894,17.284,17.857,17.181z" class="color c1"/>
    <path fill="#190C28" d="M16.189,19.427c-0.421-0.193-0.916,0.006-1.107,0.441c-0.191,0.436-0.009,0.945,0.41,1.14
		c0.418,0.195,0.915,0.002,1.11-0.436c0.073-0.164,0.092-0.339,0.066-0.504c-0.026-0.165-0.099-0.319-0.209-0.443
		C16.385,19.544,16.294,19.476,16.189,19.427z" class="color c1"/>
    <path fill="#190C28" d="M17.186,23.465c0.024-0.054,0.041-0.108,0.054-0.163c0.024-0.111,0.026-0.223,0.008-0.332
		c-0.046-0.271-0.22-0.516-0.485-0.638c-0.424-0.197-0.919-0.004-1.104,0.424c-0.023,0.054-0.04,0.108-0.052,0.163
		c-0.012,0.055-0.018,0.111-0.019,0.166c-0.005,0.331,0.181,0.65,0.495,0.796C16.502,24.076,16.995,23.892,17.186,23.465z" class="color c1"/>
    <path fill="#190C28" d="M22.876,14.053c0.047-0.104,0.071-0.214,0.073-0.321c0.001-0.054-0.003-0.107-0.012-0.159
		c-0.019-0.105-0.058-0.205-0.114-0.295c-0.085-0.135-0.211-0.248-0.369-0.318c-0.422-0.187-0.919-0.009-1.115,0.407
		c-0.024,0.052-0.043,0.105-0.056,0.159c-0.013,0.054-0.02,0.108-0.021,0.162c-0.003,0.108,0.015,0.215,0.053,0.315
		c0.075,0.2,0.228,0.371,0.442,0.467C22.183,14.659,22.686,14.471,22.876,14.053z" class="color c1"/>
    <path fill="#190C28" d="M19.905,13.265c-0.028-0.045-0.06-0.087-0.097-0.126c-0.073-0.078-0.164-0.142-0.269-0.188
		c-0.421-0.181-0.922,0.008-1.123,0.427c-0.151,0.315-0.089,0.67,0.129,0.906c0.073,0.079,0.163,0.144,0.269,0.191
		c0.423,0.186,0.931-0.009,1.13-0.432c0.075-0.159,0.096-0.326,0.07-0.483C19.998,13.454,19.96,13.354,19.905,13.265z" class="color c1"/>
    <path fill="#190C28" d="M16.991,14.231c-0.044-0.032-0.092-0.059-0.144-0.081c-0.415-0.18-0.911,0.021-1.113,0.447
		c-0.051,0.107-0.078,0.217-0.084,0.327c-0.009,0.164,0.03,0.324,0.11,0.46c0.053,0.091,0.125,0.171,0.213,0.235
		c0.044,0.032,0.092,0.06,0.144,0.083c0.415,0.184,0.918-0.016,1.12-0.448C17.413,14.877,17.3,14.451,16.991,14.231z" class="color c1"/>
    <path fill="#190C28" d="M15.24,17.481c0.148-0.327,0.086-0.692-0.126-0.931c-0.071-0.08-0.158-0.146-0.26-0.191
		c-0.409-0.183-0.894,0.02-1.089,0.452c-0.024,0.054-0.043,0.109-0.056,0.164c-0.053,0.221-0.019,0.448,0.086,0.632
		c0.052,0.092,0.123,0.174,0.209,0.239c0.043,0.032,0.09,0.061,0.141,0.084C14.551,18.117,15.043,17.917,15.24,17.481z" class="color c1"/>
    <path fill="#190C28" d="M14.053,19.272c-0.043-0.033-0.091-0.062-0.142-0.085c-0.407-0.19-0.883,0.008-1.067,0.438
		c-0.114,0.269-0.089,0.566,0.045,0.798c0.08,0.139,0.199,0.255,0.351,0.328c0.403,0.194,0.883,0.003,1.071-0.43
		C14.475,19.94,14.358,19.503,14.053,19.272z" class="color c1"/>
    <path fill="#190C28" d="M14.607,23.258c0.09-0.211,0.088-0.443,0.012-0.647c-0.038-0.102-0.094-0.197-0.167-0.278
		c-0.073-0.081-0.161-0.15-0.264-0.199c-0.411-0.196-0.884-0.008-1.058,0.413c-0.13,0.316-0.058,0.674,0.158,0.916
		c0.072,0.081,0.16,0.149,0.261,0.198C13.953,23.857,14.427,23.68,14.607,23.258z" class="color c1"/>
    <path fill="#190C28" d="M14.556,25.073c-0.171,0.409,0.024,0.891,0.434,1.085c0.41,0.194,0.885,0.028,1.063-0.379
		c0.044-0.101,0.066-0.209,0.066-0.315c0-0.107-0.02-0.213-0.059-0.312c-0.078-0.199-0.23-0.372-0.439-0.47
		C15.206,24.486,14.728,24.664,14.556,25.073z" class="color c1"/>
    <path fill="#190C28" d="M22.404,11.694c0.047-0.099,0.07-0.202,0.072-0.304c0.001-0.051-0.003-0.101-0.012-0.151
		c-0.019-0.099-0.057-0.194-0.113-0.279c-0.028-0.043-0.06-0.083-0.097-0.12c-0.073-0.075-0.162-0.137-0.266-0.182
		c-0.414-0.179-0.903-0.012-1.096,0.38c-0.048,0.098-0.073,0.201-0.076,0.303c-0.011,0.307,0.17,0.607,0.485,0.744
		C21.721,12.269,22.217,12.091,22.404,11.694z" class="color c1"/>
    <path fill="#190C28" d="M19.589,11.515c0.005-0.103-0.012-0.204-0.048-0.298c-0.071-0.188-0.219-0.346-0.425-0.431
		c-0.412-0.171-0.905,0.01-1.107,0.409c-0.025,0.05-0.045,0.101-0.059,0.152c-0.055,0.205-0.022,0.418,0.085,0.591
		c0.08,0.129,0.201,0.237,0.357,0.303c0.416,0.176,0.918-0.013,1.116-0.417C19.558,11.722,19.584,11.618,19.589,11.515z" class="color c1"/>
    <path fill="#190C28" d="M16.772,12.868c0.127-0.261,0.109-0.542-0.021-0.757c-0.078-0.129-0.197-0.234-0.348-0.297
		c-0.405-0.166-0.893,0.03-1.097,0.439c-0.025,0.051-0.045,0.103-0.06,0.156c-0.1,0.368,0.065,0.749,0.42,0.9
		C16.07,13.483,16.569,13.284,16.772,12.868z" class="color c1"/>
    <path fill="#190C28" d="M14.259,13.731c-0.042-0.03-0.087-0.056-0.137-0.077c-0.395-0.168-0.871,0.037-1.07,0.456
		c-0.05,0.105-0.077,0.214-0.085,0.32c-0.022,0.32,0.137,0.623,0.432,0.755c0.393,0.174,0.879-0.028,1.08-0.455
		c0.025-0.053,0.044-0.107,0.058-0.162C14.622,14.243,14.51,13.912,14.259,13.731z" class="color c1"/>
    <path fill="#190C28" d="M12.943,16.727c-0.007-0.053-0.019-0.105-0.035-0.155c-0.066-0.199-0.203-0.367-0.397-0.455
		c-0.388-0.176-0.85,0.029-1.038,0.453c-0.07,0.159-0.093,0.327-0.073,0.485c0.033,0.263,0.184,0.496,0.424,0.61
		c0.384,0.182,0.855-0.017,1.047-0.448C12.942,17.057,12.964,16.886,12.943,16.727z" class="color c1"/>
    <path fill="#190C28" d="M12.107,20.069c0.023-0.053,0.039-0.108,0.051-0.163c0.012-0.055,0.018-0.11,0.02-0.166
		c0.005-0.165-0.035-0.327-0.113-0.465c-0.026-0.046-0.056-0.089-0.09-0.129c-0.068-0.08-0.151-0.146-0.248-0.193
		c-0.387-0.186-0.838,0.01-1.013,0.433c-0.174,0.422-0.009,0.916,0.373,1.106C11.47,20.684,11.928,20.497,12.107,20.069z" class="color c1"/>
    <path fill="#190C28" d="M12.262,22.987c0.063-0.156,0.076-0.324,0.048-0.483c-0.019-0.106-0.056-0.208-0.11-0.301
		c-0.054-0.092-0.124-0.174-0.208-0.24c-0.042-0.033-0.088-0.062-0.137-0.086c-0.392-0.195-0.839-0.011-1.001,0.403
		c-0.081,0.207-0.076,0.432-0.003,0.631c0.073,0.198,0.215,0.369,0.408,0.467C11.644,23.574,12.094,23.404,12.262,22.987z" class="color c1"/>
    <path fill="#190C28" d="M13.307,25.672c0.161-0.397-0.032-0.887-0.432-1.084c-0.4-0.197-0.85-0.027-1.003,0.371
		c-0.154,0.399,0.042,0.872,0.434,1.069C12.698,26.225,13.145,26.07,13.307,25.672z" class="color c1"/>
    <path fill="#190C28" d="M15.112,27.867c0.081-0.189,0.073-0.402-0.006-0.592c-0.08-0.19-0.231-0.356-0.435-0.453
		c-0.408-0.194-0.866-0.033-1.02,0.348c-0.038,0.095-0.055,0.195-0.051,0.295c0.003,0.099,0.027,0.198,0.067,0.291
		c0.081,0.186,0.231,0.347,0.431,0.443C14.496,28.39,14.949,28.245,15.112,27.867z" class="color c1"/>
    <path fill="#190C28" d="M28.089,27.992c-0.051,0.101-0.08,0.203-0.09,0.304c-0.005,0.05-0.005,0.099,0,0.147
		c0.024,0.24,0.166,0.445,0.397,0.533c0.37,0.141,0.827-0.064,1.029-0.458c0.025-0.049,0.045-0.099,0.06-0.149
		c0.045-0.15,0.046-0.301,0.007-0.434c-0.053-0.178-0.177-0.325-0.361-0.4C28.764,27.384,28.293,27.589,28.089,27.992z" class="color c1"/>
    <path fill="#190C28" d="M30.074,26.67c0.361,0.149,0.803-0.061,0.996-0.468c0.072-0.152,0.1-0.312,0.087-0.46
		c-0.021-0.247-0.154-0.462-0.378-0.561c-0.357-0.159-0.814,0.048-1.01,0.464c-0.098,0.208-0.112,0.426-0.057,0.612
		C29.768,26.443,29.893,26.595,30.074,26.67z" class="color c1"/>
    <path fill="#190C28" d="M30.749,23.426c0.012,0.103,0.041,0.201,0.087,0.288c0.023,0.043,0.049,0.084,0.08,0.121
		c0.061,0.074,0.137,0.135,0.227,0.176c0.358,0.163,0.789-0.044,0.971-0.458c0.023-0.052,0.04-0.104,0.053-0.157
		c0.026-0.106,0.033-0.212,0.023-0.314c-0.005-0.051-0.015-0.1-0.028-0.148c-0.055-0.191-0.177-0.352-0.354-0.438
		c-0.354-0.172-0.797,0.028-0.983,0.451C30.755,23.105,30.732,23.271,30.749,23.426z" class="color c1"/>
    <path fill="#190C28" d="M31.18,20.07c-0.022,0.053-0.038,0.107-0.049,0.161c-0.023,0.108-0.026,0.218-0.012,0.323
		c0.022,0.158,0.083,0.305,0.178,0.422c0.032,0.039,0.067,0.074,0.106,0.106c0.039,0.031,0.081,0.059,0.126,0.081
		c0.363,0.178,0.789-0.018,0.957-0.434c0.168-0.416,0.019-0.897-0.34-1.083C31.788,19.461,31.353,19.648,31.18,20.07z" class="color c1"/>
    <path fill="#190C28" d="M24.702,10.043c0.125-0.274,0.046-0.585-0.172-0.798c-0.073-0.071-0.16-0.131-0.261-0.176
		C23.865,8.892,23.4,9.03,23.225,9.39c-0.022,0.045-0.038,0.091-0.049,0.138c-0.033,0.141-0.017,0.289,0.041,0.424
		c0.038,0.09,0.095,0.175,0.168,0.248c0.073,0.073,0.162,0.135,0.265,0.181C24.061,10.564,24.535,10.408,24.702,10.043z" class="color c1"/>
    <path fill="#190C28" d="M21.931,9.526C22,9.387,22.017,9.241,21.99,9.103c-0.045-0.23-0.212-0.437-0.465-0.541
		c-0.404-0.168-0.882-0.017-1.072,0.347c-0.048,0.091-0.072,0.187-0.076,0.282c-0.006,0.143,0.035,0.285,0.116,0.407
		c0.081,0.122,0.202,0.225,0.357,0.29C21.261,10.06,21.748,9.894,21.931,9.526z" class="color c1"/>
    <path fill="#190C28" d="M17.632,9.137c-0.201,0.374-0.041,0.817,0.365,0.981c0.406,0.164,0.9-0.016,1.097-0.396
		c0.074-0.143,0.096-0.293,0.073-0.433c-0.007-0.047-0.02-0.092-0.037-0.136c-0.068-0.175-0.212-0.323-0.412-0.402
		C18.317,8.592,17.834,8.762,17.632,9.137z" class="color c1"/>
    <path fill="#190C28" d="M14.947,10.083c-0.103,0.195-0.117,0.403-0.057,0.583c0.06,0.18,0.195,0.331,0.392,0.411
		c0.394,0.159,0.885-0.036,1.089-0.432c0.128-0.248,0.113-0.513-0.011-0.714c-0.05-0.081-0.117-0.151-0.2-0.205
		c-0.042-0.027-0.087-0.051-0.136-0.07C15.631,9.505,15.153,9.694,14.947,10.083z" class="color c1"/>
    <path fill="#190C28" d="M12.582,11.69c-0.076,0.151-0.104,0.309-0.089,0.456c0.024,0.245,0.166,0.46,0.403,0.559
		c0.379,0.159,0.858-0.046,1.061-0.456c0.102-0.205,0.115-0.421,0.056-0.605c-0.03-0.092-0.078-0.176-0.142-0.246
		c-0.064-0.07-0.145-0.127-0.24-0.165C13.249,11.083,12.784,11.287,12.582,11.69z" class="color c1"/>
    <path fill="#190C28" d="M12.016,14.419c0.049-0.105,0.077-0.213,0.085-0.319c0.008-0.105-0.003-0.208-0.032-0.303
		c-0.058-0.189-0.187-0.345-0.371-0.423c-0.368-0.156-0.817,0.054-1.01,0.465c-0.048,0.103-0.076,0.209-0.085,0.313
		c-0.022,0.26,0.073,0.506,0.265,0.653c0.038,0.029,0.08,0.055,0.126,0.075C11.359,15.045,11.82,14.839,12.016,14.419z" class="color c1"/>
    <path fill="#190C28" d="M9.69,17.449c0.357,0.175,0.801-0.023,0.984-0.446c0.092-0.212,0.101-0.438,0.041-0.633
		c-0.015-0.049-0.034-0.095-0.057-0.139c-0.069-0.132-0.175-0.239-0.311-0.302c-0.361-0.167-0.793,0.038-0.973,0.454
		c-0.067,0.156-0.09,0.32-0.073,0.474c0.005,0.051,0.015,0.101,0.03,0.149c0.028,0.096,0.073,0.185,0.134,0.261
		C9.526,17.343,9.601,17.405,9.69,17.449z" class="color c1"/>
    <path fill="#190C28" d="M10.018,19.826c0.043-0.105,0.064-0.214,0.067-0.322c0.003-0.108-0.012-0.215-0.044-0.314
		c-0.064-0.198-0.194-0.366-0.375-0.456c-0.361-0.18-0.783,0.013-0.947,0.427c-0.041,0.103-0.062,0.211-0.066,0.317
		c-0.01,0.319,0.142,0.625,0.409,0.764C9.419,20.43,9.848,20.246,10.018,19.826z" class="color c1"/>
    <path fill="#190C28" d="M10.091,22.698c0.058-0.153,0.07-0.318,0.042-0.474c-0.046-0.261-0.201-0.498-0.431-0.617
		c-0.368-0.191-0.785-0.012-0.934,0.392c-0.112,0.303-0.044,0.649,0.15,0.885c0.064,0.079,0.143,0.145,0.234,0.194
		C9.514,23.272,9.936,23.105,10.091,22.698z" class="color c1"/>
    <path fill="#190C28" d="M10.885,25.42c0.036-0.097,0.051-0.2,0.048-0.303c-0.007-0.206-0.088-0.412-0.226-0.569
		c-0.069-0.079-0.152-0.146-0.246-0.195c-0.379-0.197-0.796-0.033-0.932,0.355c-0.086,0.243-0.043,0.516,0.091,0.735
		c0.027,0.044,0.058,0.085,0.091,0.124c0.068,0.077,0.149,0.143,0.242,0.193C10.324,25.956,10.741,25.809,10.885,25.42z" class="color c1"/>
    <path fill="#190C28" d="M27.701,32.006c0.36,0.121,0.811-0.071,1.017-0.433c0.206-0.361,0.09-0.76-0.27-0.888
		c-0.359-0.128-0.826,0.069-1.032,0.437c-0.026,0.046-0.046,0.093-0.062,0.139c-0.031,0.092-0.042,0.184-0.034,0.271
		c0.004,0.043,0.013,0.085,0.026,0.125C27.398,31.816,27.521,31.945,27.701,32.006z" class="color c1"/>
    <path fill="#190C28" d="M30.519,28.815c-0.342-0.13-0.793,0.079-0.996,0.466c-0.102,0.194-0.122,0.394-0.073,0.561
		c0.012,0.042,0.028,0.081,0.049,0.118c0.041,0.074,0.098,0.137,0.17,0.184c0.036,0.024,0.076,0.043,0.119,0.059
		c0.345,0.121,0.778-0.088,0.979-0.468c0.075-0.142,0.107-0.289,0.1-0.424C30.855,29.088,30.733,28.896,30.519,28.815z" class="color c1"/>
    <path fill="#190C28" d="M32.164,26.551c-0.327-0.14-0.76,0.071-0.955,0.473c-0.122,0.251-0.121,0.515-0.022,0.709
		c0.02,0.039,0.044,0.075,0.071,0.108c0.055,0.065,0.125,0.116,0.208,0.149c0.332,0.13,0.747-0.087,0.938-0.478
		c0.024-0.049,0.043-0.099,0.058-0.148C32.564,27.017,32.451,26.673,32.164,26.551z" class="color c1"/>
    <path fill="#190C28" d="M32.343,25.067c0.049,0.183,0.161,0.332,0.324,0.405c0.326,0.145,0.727-0.068,0.905-0.468
		c0.067-0.15,0.094-0.307,0.084-0.452c-0.009-0.145-0.055-0.279-0.134-0.384c-0.052-0.07-0.119-0.127-0.199-0.166
		c-0.321-0.155-0.738,0.049-0.922,0.461C32.31,24.668,32.295,24.884,32.343,25.067z" class="color c1"/>
    <path fill="#190C28" d="M33.95,21.273c-0.323-0.171-0.73,0.02-0.9,0.434c-0.106,0.259-0.094,0.54,0.011,0.755
		c0.063,0.129,0.159,0.233,0.282,0.294c0.328,0.162,0.721-0.039,0.886-0.444C34.394,21.906,34.273,21.444,33.95,21.273z" class="color c1"/>
    <path fill="#190C28" d="M33.11,18.878c-0.059,0.153-0.074,0.317-0.052,0.472c0.022,0.155,0.081,0.299,0.17,0.415
		c0.06,0.077,0.132,0.141,0.217,0.186c0.338,0.18,0.729-0.008,0.88-0.411c0.15-0.402,0.008-0.875-0.326-1.06
		C33.666,18.293,33.265,18.468,33.11,18.878z" class="color c1"/>
    <path fill="#190C28" d="M32.943,17.186c0.354,0.191,0.748,0.019,0.884-0.375c0.051-0.148,0.059-0.306,0.032-0.457
		c-0.047-0.251-0.194-0.48-0.411-0.602c-0.347-0.194-0.746-0.038-0.888,0.36c-0.018,0.05-0.031,0.101-0.039,0.152
		C32.462,16.626,32.634,17.019,32.943,17.186z" class="color c1"/>
    <path fill="#190C28" d="M24.194,7.908c0.06-0.123,0.07-0.254,0.039-0.38c-0.032-0.125-0.104-0.244-0.211-0.342
		c-0.071-0.065-0.156-0.121-0.254-0.162c-0.392-0.167-0.842-0.052-1.012,0.271c-0.021,0.04-0.037,0.082-0.047,0.124
		c-0.073,0.296,0.11,0.631,0.463,0.78C23.573,8.371,24.034,8.235,24.194,7.908z" class="color c1"/>
    <path fill="#190C28" d="M20.275,7.798c0.043,0.027,0.089,0.051,0.139,0.071c0.401,0.162,0.878,0.011,1.057-0.324
		c0.045-0.084,0.067-0.171,0.07-0.257c0.007-0.258-0.167-0.506-0.461-0.624c-0.392-0.156-0.857-0.024-1.045,0.307
		c-0.024,0.041-0.042,0.084-0.054,0.127C19.905,7.356,20.02,7.635,20.275,7.798z" class="color c1"/>
    <path fill="#190C28" d="M17.236,7.753c0.016,0.041,0.035,0.081,0.06,0.118c0.074,0.112,0.187,0.205,0.335,0.262
		c0.394,0.151,0.879-0.018,1.074-0.369c0.024-0.044,0.043-0.089,0.057-0.133c0.027-0.089,0.033-0.179,0.019-0.265
		c-0.007-0.043-0.018-0.085-0.035-0.125c-0.032-0.081-0.083-0.155-0.15-0.218c-0.067-0.063-0.15-0.115-0.247-0.152
		c-0.389-0.145-0.861,0.011-1.061,0.357C17.187,7.4,17.174,7.589,17.236,7.753z" class="color c1"/>
    <path fill="#190C28" d="M14.552,8.496c0.009,0.089,0.037,0.174,0.083,0.249c0.069,0.113,0.177,0.205,0.32,0.258
		c0.381,0.143,0.863-0.045,1.067-0.416c0.128-0.232,0.118-0.478-0.001-0.663c-0.024-0.037-0.052-0.072-0.084-0.103
		c-0.032-0.032-0.068-0.06-0.108-0.085c-0.04-0.025-0.084-0.046-0.131-0.063c-0.379-0.136-0.847,0.045-1.053,0.409
		C14.568,8.219,14.539,8.362,14.552,8.496z" class="color c1"/>
    <path fill="#190C28" d="M12.246,9.502c-0.204,0.381-0.083,0.804,0.281,0.943c0.364,0.14,0.833-0.063,1.038-0.452
		c0.051-0.097,0.081-0.196,0.092-0.293c0.01-0.096,0.001-0.189-0.026-0.275c-0.054-0.17-0.179-0.309-0.362-0.374
		C12.904,8.92,12.45,9.12,12.246,9.502z" class="color c1"/>
    <path fill="#190C28" d="M10.204,11.405c-0.025,0.049-0.044,0.099-0.059,0.149c-0.03,0.099-0.042,0.199-0.035,0.293
		c0.006,0.094,0.03,0.183,0.07,0.262c0.04,0.078,0.096,0.147,0.168,0.199c0.036,0.026,0.075,0.049,0.119,0.067
		c0.345,0.143,0.795-0.066,0.995-0.469c0.2-0.402,0.071-0.839-0.277-0.973C10.834,10.798,10.4,11.011,10.204,11.405z" class="color c1"/>
    <path fill="#190C28" d="M8.596,13.685c-0.023,0.05-0.042,0.101-0.055,0.152c-0.028,0.102-0.038,0.204-0.031,0.3
		c0.003,0.049,0.011,0.096,0.022,0.141c0.023,0.09,0.062,0.173,0.116,0.243c0.054,0.07,0.123,0.126,0.205,0.165
		c0.331,0.152,0.76-0.054,0.949-0.465c0.189-0.412,0.063-0.864-0.272-1.007C9.194,13.071,8.781,13.283,8.596,13.685z" class="color c1"/>
    <path fill="#190C28" d="M8.655,16.822c0.022-0.052,0.039-0.105,0.052-0.157c0.075-0.317-0.015-0.638-0.223-0.81
		c-0.035-0.029-0.073-0.053-0.114-0.073c-0.328-0.158-0.725,0.048-0.896,0.452c-0.064,0.152-0.087,0.311-0.074,0.46
		c0.004,0.05,0.012,0.098,0.024,0.145c0.024,0.093,0.064,0.179,0.118,0.252C7.569,17.127,7.6,17.16,7.633,17.19
		c0.034,0.029,0.071,0.055,0.112,0.076C8.069,17.432,8.48,17.236,8.655,16.822z" class="color c1"/>
    <path fill="#190C28" d="M8.071,19.592c0.02-0.051,0.035-0.104,0.046-0.156C8.169,19.172,8.11,18.9,7.966,18.71
		c-0.029-0.038-0.061-0.073-0.096-0.103c-0.035-0.031-0.074-0.057-0.115-0.079c-0.331-0.174-0.717,0.018-0.872,0.421
		c-0.154,0.403-0.021,0.871,0.305,1.052C7.514,20.183,7.912,20.003,8.071,19.592z" class="color c1"/>
    <path fill="#190C28" d="M7.725,21.334c-0.34-0.187-0.722-0.012-0.859,0.382c-0.086,0.247-0.056,0.522,0.059,0.74
		c0.023,0.044,0.05,0.085,0.079,0.124c0.06,0.077,0.132,0.142,0.216,0.19c0.335,0.191,0.724,0.031,0.866-0.368
		C8.228,22.004,8.065,21.521,7.725,21.334z" class="color c1"/>
    <path fill="#190C28" d="M30.031,32.656c0.102-0.173,0.129-0.352,0.089-0.5c-0.04-0.149-0.147-0.267-0.314-0.321
		c-0.333-0.106-0.78,0.094-0.986,0.447c-0.155,0.265-0.13,0.536,0.034,0.698c0.055,0.054,0.125,0.095,0.208,0.12
		C29.398,33.201,29.827,33.003,30.031,32.656z" class="color c1"/>
    <path fill="#190C28" d="M31.774,29.974c-0.312-0.108-0.738,0.106-0.939,0.479c-0.202,0.373-0.099,0.756,0.217,0.855
		c0.316,0.099,0.722-0.118,0.919-0.482C32.169,30.463,32.087,30.082,31.774,29.974z" class="color c1"/>
    <path fill="#190C28" d="M33.565,28.682c0.187-0.377,0.112-0.773-0.182-0.891c-0.293-0.117-0.698,0.098-0.89,0.486
		c-0.121,0.242-0.128,0.491-0.044,0.669c0.05,0.107,0.134,0.189,0.246,0.228C32.995,29.281,33.378,29.058,33.565,28.682z" class="color c1"/>
    <path fill="#190C28" d="M34.607,25.371c-0.283-0.134-0.67,0.076-0.851,0.473c-0.136,0.298-0.115,0.611,0.025,0.801
		c0.047,0.063,0.107,0.113,0.179,0.143c0.289,0.121,0.654-0.096,0.83-0.482C34.966,25.921,34.89,25.505,34.607,25.371z" class="color c1"/>
    <path fill="#190C28" d="M35.416,22.783c-0.282-0.154-0.657,0.043-0.824,0.445c-0.021,0.05-0.038,0.101-0.05,0.152
		c-0.013,0.051-0.021,0.102-0.026,0.153c-0.009,0.101-0.003,0.199,0.018,0.288c0.031,0.135,0.094,0.251,0.185,0.331
		c0.03,0.027,0.063,0.049,0.099,0.067c0.288,0.142,0.643-0.065,0.806-0.456c0.122-0.293,0.104-0.612-0.033-0.817
		C35.545,22.877,35.487,22.821,35.416,22.783z" class="color c1"/>
    <path fill="#190C28" d="M35.956,20.269c-0.049-0.073-0.111-0.133-0.184-0.176c-0.292-0.173-0.66,0.007-0.812,0.409
		c-0.019,0.05-0.034,0.101-0.045,0.153c-0.021,0.103-0.026,0.207-0.016,0.306c0.025,0.248,0.143,0.468,0.328,0.57
		c0.296,0.163,0.649-0.029,0.797-0.421C36.137,20.815,36.103,20.487,35.956,20.269z" class="color c1"/>
    <path fill="#190C28" d="M35.144,18.802c0.313,0.18,0.667,0.006,0.8-0.382c0.033-0.097,0.049-0.199,0.05-0.299
		c0.001-0.1-0.014-0.2-0.042-0.293c-0.056-0.187-0.168-0.348-0.322-0.441c-0.308-0.187-0.673-0.026-0.809,0.368
		c-0.034,0.098-0.05,0.202-0.051,0.305C34.769,18.367,34.91,18.667,35.144,18.802z" class="color c1"/>
    <path fill="#190C28" d="M35.346,15.795c0.029-0.094,0.04-0.193,0.036-0.292c-0.014-0.296-0.169-0.588-0.414-0.733
		c-0.327-0.193-0.69-0.053-0.812,0.326c-0.031,0.095-0.042,0.195-0.038,0.295c0.004,0.101,0.025,0.201,0.059,0.295
		c0.017,0.047,0.038,0.093,0.062,0.137c0.073,0.131,0.174,0.242,0.299,0.314C34.87,16.329,35.23,16.171,35.346,15.795z" class="color c1"/>
    <path fill="#190C28" d="M26.215,6.756c0.032-0.071,0.044-0.145,0.037-0.22c-0.007-0.075-0.032-0.15-0.073-0.221
		c-0.041-0.071-0.098-0.139-0.168-0.199c-0.07-0.06-0.153-0.113-0.246-0.154c-0.374-0.165-0.787-0.089-0.93,0.187
		c-0.018,0.034-0.031,0.07-0.038,0.107c-0.015,0.074-0.011,0.152,0.011,0.229c0.022,0.077,0.062,0.153,0.118,0.223
		c0.055,0.071,0.126,0.135,0.21,0.189c0.042,0.027,0.088,0.051,0.136,0.073C25.66,7.141,26.086,7.038,26.215,6.756z" class="color c1"/>
    <path fill="#190C28" d="M22.348,6.026c0.079,0.103,0.195,0.192,0.342,0.252c0.39,0.161,0.837,0.047,0.99-0.236
		c0.058-0.107,0.067-0.222,0.036-0.332c-0.051-0.184-0.214-0.354-0.45-0.451c-0.378-0.155-0.811-0.068-0.977,0.212
		C22.186,5.644,22.216,5.854,22.348,6.026z" class="color c1"/>
    <path fill="#190C28" d="M19.672,5.797c0.025,0.034,0.054,0.066,0.087,0.096c0.066,0.06,0.149,0.111,0.246,0.148
		c0.388,0.149,0.852,0.018,1.028-0.28c0.132-0.223,0.069-0.475-0.131-0.648c-0.067-0.058-0.148-0.106-0.243-0.143
		c-0.379-0.145-0.83-0.034-1.016,0.26C19.529,5.414,19.547,5.627,19.672,5.797z" class="color c1"/>
    <path fill="#190C28" d="M16.978,5.482c-0.1,0.157-0.115,0.329-0.057,0.479c0.029,0.075,0.076,0.144,0.139,0.203
		c0.032,0.03,0.068,0.056,0.108,0.08c0.04,0.024,0.084,0.045,0.132,0.062c0.381,0.137,0.854-0.018,1.048-0.337
		c0.049-0.08,0.075-0.162,0.082-0.242c0.021-0.241-0.136-0.468-0.417-0.567C17.637,5.027,17.178,5.166,16.978,5.482z" class="color c1"/>
    <path fill="#190C28" d="M14.393,6.252c-0.026,0.042-0.046,0.085-0.062,0.128c-0.031,0.086-0.043,0.172-0.036,0.254
		c0.004,0.041,0.012,0.081,0.025,0.119c0.038,0.115,0.117,0.214,0.231,0.284c0.038,0.023,0.08,0.043,0.126,0.059
		c0.367,0.127,0.839-0.053,1.042-0.395c0.102-0.171,0.119-0.35,0.064-0.5c-0.055-0.151-0.181-0.273-0.363-0.334
		C15.055,5.744,14.599,5.915,14.393,6.252z" class="color c1"/>
    <path fill="#190C28" d="M12.002,7.524c-0.205,0.357-0.098,0.745,0.25,0.865c0.348,0.12,0.805-0.079,1.012-0.444
		c0.077-0.137,0.109-0.276,0.099-0.403c-0.017-0.212-0.147-0.388-0.365-0.459C12.649,6.97,12.208,7.167,12.002,7.524z" class="color c1"/>
    <path fill="#190C28" d="M9.901,9.234c-0.198,0.372-0.104,0.77,0.221,0.89c0.326,0.119,0.762-0.092,0.964-0.474
		c0.127-0.239,0.13-0.484,0.035-0.662c-0.038-0.071-0.092-0.131-0.161-0.176c-0.034-0.022-0.072-0.041-0.113-0.055
		C10.518,8.648,10.099,8.862,9.901,9.234z" class="color c1"/>
    <path fill="#190C28" d="M8.147,11.293c-0.047,0.096-0.077,0.193-0.09,0.288c-0.041,0.283,0.064,0.537,0.292,0.632
		c0.305,0.127,0.718-0.087,0.911-0.481c0.072-0.148,0.103-0.299,0.097-0.436c-0.011-0.228-0.124-0.417-0.318-0.49
		C8.728,10.69,8.334,10.91,8.147,11.293z" class="color c1"/>
    <path fill="#190C28" d="M6.967,14.567c0.29,0.14,0.682-0.067,0.862-0.468c0.135-0.301,0.111-0.62-0.034-0.815
		c-0.048-0.065-0.11-0.116-0.184-0.148c-0.296-0.129-0.668,0.088-0.843,0.476c-0.131,0.292-0.117,0.604,0.021,0.801
		C6.834,14.479,6.894,14.532,6.967,14.567z" class="color c1"/>
    <path fill="#190C28" d="M6.001,17.111c0.286,0.158,0.66-0.036,0.826-0.439c0.104-0.252,0.099-0.522,0.011-0.726
		c-0.053-0.122-0.137-0.22-0.246-0.275c-0.291-0.147-0.647,0.058-0.808,0.45c-0.08,0.196-0.097,0.404-0.059,0.583
		C5.764,16.882,5.858,17.032,6.001,17.111z" class="color c1"/>
    <path fill="#190C28" d="M5.487,19.771c0.291,0.174,0.653,0,0.802-0.401c0.037-0.1,0.057-0.204,0.062-0.306
		c0.014-0.307-0.112-0.6-0.334-0.724c-0.295-0.167-0.643,0.023-0.788,0.413c-0.072,0.195-0.081,0.406-0.035,0.59
		C5.24,19.527,5.341,19.684,5.487,19.771z" class="color c1"/>
    <path fill="#190C28" d="M6.253,22.108c0.098-0.291,0.039-0.63-0.126-0.857c-0.027-0.038-0.058-0.073-0.091-0.104
		c-0.033-0.031-0.069-0.058-0.108-0.081c-0.307-0.183-0.654-0.012-0.78,0.372c-0.127,0.384,0.012,0.839,0.316,1.027
		C5.767,22.652,6.123,22.496,6.253,22.108z" class="color c1"/>
    <path fill="#190C28" d="M32.882,30.996c-0.277-0.083-0.674,0.137-0.872,0.495c-0.149,0.268-0.14,0.533-0.006,0.681
		c0.045,0.049,0.103,0.085,0.174,0.104c0.285,0.074,0.659-0.151,0.85-0.501c0.048-0.087,0.08-0.174,0.097-0.257
		C33.175,31.269,33.09,31.059,32.882,30.996z" class="color c1"/>
    <path fill="#190C28" d="M37.158,21.596c-0.245-0.154-0.576,0.03-0.727,0.42c-0.133,0.341-0.081,0.719,0.101,0.903
		c0.026,0.026,0.055,0.049,0.086,0.066c0.249,0.142,0.559-0.055,0.707-0.433C37.471,22.176,37.403,21.751,37.158,21.596z" class="color c1"/>
    <path fill="#190C28" d="M37.503,19.156c-0.044-0.072-0.099-0.132-0.165-0.175c-0.263-0.174-0.592-0.008-0.727,0.379
		c-0.017,0.048-0.03,0.098-0.039,0.148c-0.065,0.348,0.051,0.714,0.283,0.858c0.265,0.165,0.578-0.015,0.711-0.392
		C37.664,19.69,37.635,19.371,37.503,19.156z" class="color c1"/>
    <path fill="#190C28" d="M37.069,16.373c-0.285-0.186-0.614-0.041-0.731,0.336c-0.029,0.094-0.042,0.194-0.041,0.293
		c0.001,0.099,0.017,0.198,0.046,0.29c0.057,0.185,0.164,0.346,0.308,0.437c0.287,0.181,0.606,0.021,0.721-0.351
		c0.029-0.093,0.042-0.19,0.041-0.287C37.411,16.799,37.283,16.513,37.069,16.373z" class="color c1"/>
    <path fill="#190C28" d="M35.593,14.16c-0.05,0.179-0.031,0.383,0.038,0.565c0.07,0.183,0.19,0.345,0.345,0.44
		c0.31,0.192,0.636,0.049,0.733-0.309c0.048-0.179,0.029-0.377-0.039-0.555c-0.069-0.178-0.188-0.336-0.341-0.432
		C36.021,13.678,35.692,13.802,35.593,14.16z" class="color c1"/>
    <path fill="#190C28" d="M34.842,12.777c0.33,0.195,0.663,0.07,0.743-0.266c0.04-0.167,0.009-0.356-0.072-0.525
		s-0.213-0.322-0.375-0.417c-0.325-0.191-0.655-0.089-0.74,0.244C34.313,12.145,34.511,12.583,34.842,12.777z" class="color c1"/>
    <path fill="#190C28" d="M24.306,4.48c-0.017,0.028-0.029,0.057-0.036,0.088c-0.049,0.213,0.134,0.48,0.461,0.619
		c0.374,0.159,0.78,0.088,0.899-0.14c0.06-0.115,0.039-0.245-0.041-0.366c-0.06-0.091-0.154-0.176-0.272-0.246
		c-0.04-0.023-0.082-0.045-0.127-0.064C24.833,4.218,24.441,4.257,24.306,4.48z" class="color c1"/>
    <path fill="#190C28" d="M21.84,3.904c-0.06,0.087-0.074,0.188-0.049,0.286c0.017,0.066,0.052,0.131,0.103,0.192
		c0.025,0.03,0.055,0.06,0.088,0.087c0.066,0.055,0.147,0.103,0.241,0.14c0.376,0.149,0.807,0.064,0.953-0.173
		c0.073-0.119,0.065-0.252-0.008-0.373c-0.072-0.121-0.208-0.231-0.389-0.305C22.417,3.615,22.001,3.671,21.84,3.904z" class="color c1"/>
    <path fill="#190C28" d="M19.287,3.692c-0.183,0.255-0.035,0.583,0.339,0.72C20,4.549,20.45,4.44,20.623,4.183
		c0.172-0.257,0.01-0.561-0.353-0.696C19.906,3.352,19.47,3.437,19.287,3.692z" class="color c1"/>
    <path fill="#190C28" d="M16.705,3.908c-0.074,0.105-0.103,0.218-0.089,0.325c0.022,0.178,0.158,0.338,0.388,0.416
		c0.367,0.124,0.829-0.014,1.02-0.297c0.096-0.141,0.108-0.292,0.051-0.422C18.046,3.864,18,3.803,17.939,3.752
		c-0.061-0.051-0.138-0.094-0.228-0.125C17.35,3.506,16.903,3.626,16.705,3.908z" class="color c1"/>
    <path fill="#190C28" d="M14.184,4.593c-0.154,0.231-0.13,0.483,0.041,0.641c0.057,0.053,0.13,0.095,0.218,0.123
		c0.353,0.11,0.813-0.058,1.016-0.369c0.026-0.039,0.046-0.078,0.061-0.117c0.107-0.274-0.029-0.541-0.336-0.636
		C14.834,4.127,14.39,4.284,14.184,4.593z" class="color c1"/>
    <path fill="#190C28" d="M11.737,6.221c0.02,0.071,0.056,0.135,0.109,0.187c0.052,0.052,0.12,0.093,0.203,0.118
		c0.332,0.1,0.778-0.094,0.984-0.432c0.129-0.211,0.134-0.426,0.038-0.581c-0.019-0.031-0.042-0.06-0.07-0.085
		c-0.054-0.051-0.124-0.091-0.207-0.115c-0.334-0.095-0.762,0.096-0.967,0.428C11.725,5.908,11.698,6.079,11.737,6.221z" class="color c1"/>
    <path fill="#190C28" d="M9.719,7.301C9.669,7.389,9.637,7.477,9.621,7.562C9.574,7.815,9.675,8.035,9.904,8.107
		c0.306,0.096,0.729-0.117,0.932-0.475c0.127-0.224,0.136-0.449,0.05-0.608c-0.052-0.095-0.139-0.167-0.255-0.2
		C10.32,6.736,9.917,6.951,9.719,7.301z" class="color c1"/>
    <path fill="#190C28" d="M7.908,9.185C7.814,9.367,7.782,9.55,7.809,9.7c0.027,0.15,0.113,0.267,0.253,0.316
		c0.28,0.098,0.675-0.121,0.87-0.495c0.122-0.233,0.134-0.468,0.057-0.632C8.942,8.79,8.863,8.717,8.756,8.684
		C8.469,8.596,8.096,8.823,7.908,9.185z" class="color c1"/>
    <path fill="#190C28" d="M6.406,11.309c-0.044,0.092-0.074,0.186-0.09,0.275C6.3,11.674,6.298,11.76,6.31,11.838
		c0.012,0.078,0.037,0.148,0.075,0.205c0.038,0.057,0.09,0.102,0.155,0.129c0.258,0.108,0.627-0.107,0.811-0.491
		c0.069-0.144,0.101-0.289,0.101-0.419c-0.001-0.13-0.034-0.246-0.096-0.33c-0.042-0.056-0.096-0.099-0.162-0.123
		C6.929,10.712,6.583,10.939,6.406,11.309z" class="color c1"/>
    <path fill="#190C28" d="M5.341,14.51c0.245,0.127,0.594-0.08,0.764-0.468c0.171-0.388,0.095-0.8-0.156-0.914
		c-0.251-0.113-0.575,0.105-0.74,0.479C5.044,13.983,5.096,14.383,5.341,14.51z" class="color c1"/>
    <path fill="#190C28" d="M5.208,16.553c0.078-0.195,0.096-0.4,0.063-0.574c-0.008-0.043-0.019-0.085-0.034-0.124
		c-0.014-0.039-0.032-0.075-0.052-0.107c-0.04-0.066-0.092-0.118-0.154-0.152c-0.247-0.135-0.56,0.069-0.712,0.445
		c-0.038,0.094-0.063,0.191-0.075,0.286c-0.035,0.284,0.046,0.548,0.228,0.658C4.718,17.133,5.052,16.943,5.208,16.553z" class="color c1"/>
    <path fill="#190C28" d="M4.692,19.165c0.07-0.194,0.079-0.403,0.039-0.583c-0.04-0.18-0.129-0.331-0.257-0.41
		c-0.255-0.157-0.563,0.028-0.7,0.404c-0.103,0.282-0.081,0.597,0.043,0.808c0.041,0.07,0.094,0.129,0.157,0.171
		C4.227,19.723,4.553,19.552,4.692,19.165z" class="color c1"/>
    <path fill="#190C28" d="M38.693,17.947c-0.236-0.175-0.531-0.024-0.649,0.346c-0.118,0.371-0.015,0.814,0.22,0.98
		c0.235,0.167,0.513,0.001,0.632-0.361c0.03-0.091,0.047-0.185,0.052-0.279C38.963,18.353,38.87,18.079,38.693,17.947z" class="color c1"/>
    <path fill="#190C28" d="M38.341,15.441c-0.264-0.187-0.562-0.055-0.659,0.303c-0.098,0.359,0.041,0.806,0.304,0.988
		c0.263,0.183,0.551,0.035,0.65-0.319c0.074-0.266,0.02-0.575-0.123-0.792C38.465,15.55,38.407,15.488,38.341,15.441z" class="color c1"/>
    <path fill="#190C28" d="M37.54,13.051c-0.291-0.188-0.588-0.08-0.665,0.257c-0.019,0.084-0.023,0.175-0.013,0.266
		c0.03,0.274,0.182,0.556,0.4,0.699c0.29,0.191,0.586,0.062,0.663-0.276C38.003,13.659,37.831,13.24,37.54,13.051z" class="color c1"/>
    <path fill="#190C28" d="M36.111,11.991c0.313,0.191,0.614,0.082,0.67-0.23c0.056-0.313-0.153-0.704-0.463-0.89
		c-0.31-0.186-0.606-0.1-0.664,0.207c-0.044,0.23,0.059,0.521,0.246,0.733C35.961,11.882,36.033,11.943,36.111,11.991z" class="color c1"/>
    <path fill="#190C28" d="M26.041,3.913c-0.012,0.02-0.019,0.042-0.023,0.066c-0.015,0.117,0.078,0.267,0.245,0.393
		c0.067,0.051,0.146,0.097,0.234,0.136c0.353,0.156,0.711,0.128,0.79-0.041c0.079-0.169-0.138-0.407-0.473-0.556
		C26.48,3.761,26.139,3.75,26.041,3.913z" class="color c1"/>
    <path fill="#190C28" d="M23.89,3.059c-0.042,0.02-0.083,0.041-0.108,0.074c-0.127,0.167,0.052,0.439,0.408,0.588
		c0.357,0.149,0.743,0.114,0.852-0.057c0.07-0.11,0.014-0.246-0.124-0.368C24.593,3.215,24.249,3.136,23.89,3.059z" class="color c1"/>
    <path fill="#190C28" d="M21.778,3.191c0.36,0.14,0.773,0.086,0.914-0.101c0.061-0.08,0.06-0.171,0.016-0.26
		c-0.422-0.072-0.868-0.132-1.325-0.186c-0.044,0.091-0.027,0.196,0.042,0.294c0.035,0.049,0.082,0.097,0.141,0.14
		C21.626,3.121,21.697,3.159,21.778,3.191z" class="color c1"/>
    <path fill="#190C28" d="M19.279,2.981c0.359,0.128,0.795,0.045,0.964-0.168c0.034-0.043,0.055-0.089,0.063-0.135
		c0.008-0.046,0.004-0.093-0.011-0.138c-0.136-0.01-0.268-0.024-0.406-0.031c-0.324-0.019-0.656-0.028-0.992-0.03
		C18.845,2.668,18.987,2.878,19.279,2.981z" class="color c1"/>
    <path fill="#190C28" d="M16.554,3.072c0.052,0.037,0.115,0.069,0.189,0.092c0.353,0.114,0.801-0.005,0.991-0.252
		c0.079-0.103,0.1-0.211,0.074-0.312c-0.009-0.033-0.023-0.066-0.042-0.097c-0.449,0.024-0.907,0.07-1.368,0.127
		c-0.019,0.054-0.026,0.108-0.02,0.161C16.388,2.898,16.449,2.997,16.554,3.072z" class="color c1"/>
    <path fill="#190C28" d="M15.117,2.838c-0.369,0.077-0.74,0.166-1.109,0.273c-0.072,0.104-0.102,0.211-0.095,0.31
		c0.01,0.132,0.087,0.248,0.224,0.32c0.034,0.018,0.073,0.033,0.114,0.045c0.34,0.096,0.786-0.058,0.988-0.339
		c0.128-0.178,0.122-0.359,0.016-0.493C15.22,2.91,15.173,2.87,15.117,2.838z" class="color c1"/>
    <path fill="#190C28" d="M11.708,4.746c0.049,0.046,0.114,0.081,0.193,0.102c0.317,0.082,0.75-0.105,0.956-0.416
		c0.154-0.233,0.136-0.468-0.018-0.604c-0.051-0.046-0.118-0.08-0.198-0.1c-0.152-0.038-0.325-0.013-0.487,0.053
		c-0.02,0.01-0.042,0.02-0.062,0.03c-0.154,0.075-0.295,0.187-0.388,0.329c-0.05,0.077-0.083,0.155-0.099,0.229
		C11.573,4.517,11.61,4.653,11.708,4.746z" class="color c1"/>
    <path fill="#190C28" d="M9.619,5.577C9.424,5.907,9.487,6.231,9.776,6.302c0.288,0.072,0.697-0.14,0.898-0.474
		c0.202-0.334,0.117-0.66-0.177-0.727C10.202,5.034,9.815,5.248,9.619,5.577z" class="color c1"/>
    <path fill="#190C28" d="M8.751,7.565c0.097-0.176,0.128-0.348,0.102-0.484c-0.026-0.136-0.11-0.235-0.242-0.266
		C8.346,6.755,7.993,6.988,7.807,7.33C7.761,7.416,7.729,7.501,7.711,7.581c-0.018,0.08-0.022,0.156-0.012,0.223
		c0.02,0.134,0.095,0.234,0.224,0.269C8.179,8.142,8.557,7.917,8.751,7.565z" class="color c1"/>
    <path fill="#190C28" d="M6.179,9.562c-0.037,0.165-0.023,0.31,0.04,0.406c0.032,0.048,0.076,0.083,0.133,0.102
		c0.227,0.075,0.573-0.151,0.757-0.514c0.046-0.091,0.077-0.18,0.094-0.265c0.034-0.17,0.012-0.319-0.059-0.414
		C7.109,8.831,7.061,8.797,7.003,8.781c-0.236-0.064-0.555,0.174-0.73,0.524C6.228,9.393,6.197,9.48,6.179,9.562z" class="color c1"/>
    <path fill="#190C28" d="M5.744,11.732c0.087-0.184,0.118-0.368,0.102-0.516c-0.016-0.147-0.081-0.258-0.187-0.296
		c-0.213-0.077-0.504,0.157-0.67,0.51c-0.041,0.088-0.071,0.177-0.089,0.261c-0.055,0.253-0.007,0.47,0.147,0.538
		C5.252,12.32,5.572,12.101,5.744,11.732z" class="color c1"/>
    <path fill="#190C28" d="M4.646,14.043c0.04-0.093,0.068-0.188,0.083-0.278c0.031-0.18,0.013-0.345-0.047-0.457
		c-0.03-0.056-0.07-0.098-0.12-0.122c-0.199-0.097-0.472,0.122-0.628,0.479c-0.078,0.178-0.113,0.361-0.104,0.514
		c0.009,0.152,0.061,0.274,0.159,0.33C4.183,14.621,4.485,14.416,4.646,14.043z" class="color c1"/>
    <path fill="#190C28" d="M3.183,16.889c0.196,0.137,0.488-0.049,0.636-0.424c0.148-0.375,0.094-0.784-0.105-0.906
		c-0.199-0.122-0.464,0.078-0.61,0.438c-0.109,0.27-0.121,0.561-0.037,0.746C3.095,16.805,3.134,16.855,3.183,16.889z" class="color c1"/>
    <path fill="#190C28" d="M40.018,17.164c-0.036-0.069-0.081-0.128-0.135-0.172c-0.215-0.176-0.481-0.039-0.585,0.315
		c-0.026,0.089-0.04,0.182-0.042,0.275c-0.003,0.093,0.006,0.185,0.024,0.272c0.036,0.173,0.112,0.323,0.217,0.407
		c0.209,0.169,0.458,0.017,0.568-0.329c0.055-0.174,0.064-0.365,0.031-0.534C40.08,17.313,40.054,17.233,40.018,17.164z" class="color c1"/>
    <path fill="#190C28" d="M39.477,14.584c-0.249-0.185-0.52-0.067-0.601,0.273c-0.041,0.17-0.027,0.363,0.027,0.537
		c0.054,0.174,0.149,0.327,0.271,0.418c0.244,0.183,0.505,0.049,0.592-0.289c0.022-0.085,0.03-0.174,0.026-0.264
		c-0.007-0.179-0.062-0.358-0.153-0.499C39.594,14.691,39.539,14.63,39.477,14.584z" class="color c1"/>
    <path fill="#190C28" d="M38.624,12.307c-0.279-0.184-0.549-0.088-0.605,0.228c-0.028,0.157,0.002,0.341,0.074,0.509
		c0.036,0.084,0.082,0.164,0.136,0.234c0.054,0.071,0.117,0.132,0.186,0.179c0.275,0.188,0.544,0.073,0.605-0.247
		c0.03-0.16,0.001-0.34-0.07-0.502C38.877,12.545,38.763,12.399,38.624,12.307z" class="color c1"/>
    <path fill="#190C28" d="M37.358,10.253c-0.3-0.177-0.565-0.106-0.599,0.176c-0.025,0.211,0.088,0.484,0.272,0.685
		c0.061,0.067,0.131,0.126,0.206,0.173c0.299,0.186,0.572,0.09,0.606-0.2C37.878,10.797,37.658,10.43,37.358,10.253z" class="color c1"/>
    <path fill="#190C28" d="M5.462,9.998C5.524,9.92,5.583,9.832,5.632,9.732c0.012-0.025,0.022-0.049,0.032-0.074
		C5.66,9.665,5.655,9.672,5.65,9.679C5.581,9.783,5.523,9.891,5.462,9.998z" class="color c1"/>
    <path fill="#190C28" d="M40.517,13.79c-0.241-0.18-0.494-0.073-0.562,0.25c-0.017,0.081-0.022,0.168-0.015,0.255
		c0.013,0.175,0.071,0.353,0.158,0.492c0.044,0.07,0.096,0.13,0.153,0.175c0.23,0.182,0.475,0.059,0.555-0.265
		c0.02-0.081,0.027-0.167,0.023-0.253c-0.009-0.172-0.064-0.345-0.153-0.481C40.631,13.894,40.577,13.835,40.517,13.79z" class="color c1"/>
    <path fill="#190C28" d="M14.421,38.771c0.105,0.099,0.226,0.182,0.354,0.257c0.061,0.036,0.12,0.073,0.186,0.103l3.016,1.367
		c0.128,0.058,0.258,0.099,0.389,0.129c0.043,0.009,0.087,0.011,0.131,0.017c0.088,0.014,0.176,0.027,0.264,0.028
		c0.012,0,0.024,0.004,0.035,0.004c0.096,0,0.19-0.008,0.284-0.021c0.017-0.003,0.034-0.008,0.051-0.011
		c0.092-0.016,0.183-0.038,0.272-0.067c0.031-0.01,0.06-0.021,0.09-0.032c0.084-0.032,0.166-0.069,0.246-0.111
		c0.019-0.01,0.038-0.018,0.057-0.029c0.095-0.055,0.184-0.118,0.27-0.188c0.021-0.018,0.041-0.037,0.061-0.056
		c0.065-0.058,0.125-0.12,0.183-0.187c0.021-0.024,0.042-0.049,0.062-0.074c0.07-0.09,0.135-0.185,0.191-0.288
		c0.41,0.118,0.812,0.224,1.21,0.323c0.109,0.027,0.216,0.053,0.324,0.079c0.33,0.079,0.656,0.151,0.977,0.217
		c0.07,0.015,0.142,0.031,0.213,0.045c0.378,0.074,0.75,0.139,1.116,0.195c0.092,0.014,0.183,0.026,0.274,0.039
		c0.293,0.042,0.582,0.077,0.868,0.107c0.088,0.009,0.178,0.02,0.266,0.028c0.351,0.032,0.695,0.056,1.033,0.069
		c0.06,0.003,0.118,0.002,0.178,0.004c0.184,0.006,0.368,0.012,0.547,0.012c0.063,0,0.122-0.007,0.185-0.007
		c0.28-0.003,0.554-0.016,0.824-0.033c0.126-0.008,0.256-0.012,0.38-0.023c0.388-0.034,0.767-0.08,1.133-0.144
		c0.258,0.259,0.583,0.443,0.939,0.53c0.119,0.029,0.241,0.048,0.366,0.054l5.032,0.281l75.486,30.005c0.001,0,0.002,0,0.004,0.001
		c0.122,0.048,0.247,0.083,0.375,0.106c0.043,0.008,0.086,0.007,0.129,0.012c0.077,0.009,0.154,0.022,0.231,0.022
		c0.02,0,0.041,0,0.061-0.001c0.242-0.007,0.655-0.06,1.193-0.281c0.119-0.049,0.245-0.106,0.376-0.173
		c0.524-0.268,1.137-0.689,1.805-1.351c0.334-0.33,0.681-0.721,1.038-1.183c0.803-1.038,1.654-2.433,2.503-4.308
		c1.321-2.916,1.768-5.07,1.807-6.626c0.039-1.556-0.33-2.513-0.641-3.037c-0.089-0.15-0.173-0.264-0.241-0.347
		c-0.087-0.105-0.185-0.202-0.291-0.287c-0.106-0.085-0.221-0.16-0.343-0.222L95.455,41.217l-47.87-24.463l-3.529-3.598
		c-0.175-0.178-0.378-0.319-0.598-0.419c-0.221-0.101-0.458-0.161-0.701-0.176c-0.522-0.856-1.178-1.702-1.965-2.534
		c-1.311-1.386-2.985-2.734-5.002-4.027c0.093-0.245,0.135-0.498,0.13-0.747c-0.013-0.746-0.443-1.453-1.168-1.782l-1.508-0.683
		l-1.508-0.683c0,0-0.001,0-0.001,0c-0.121-0.054-0.243-0.092-0.367-0.121c-0.038-0.009-0.075-0.014-0.113-0.021
		c-0.089-0.015-0.178-0.025-0.267-0.028c-0.023-0.001-0.045-0.007-0.068-0.007c-0.017,0-0.033,0.005-0.05,0.005
		c-0.113,0.003-0.226,0.014-0.336,0.036c-0.014,0.003-0.028,0.003-0.041,0.006c-0.123,0.027-0.242,0.068-0.357,0.118
		c-0.033,0.014-0.063,0.031-0.095,0.046c-0.085,0.042-0.167,0.09-0.246,0.143c-0.031,0.021-0.061,0.041-0.091,0.063
		c-0.101,0.078-0.198,0.161-0.284,0.259c-0.428-0.191-0.856-0.367-1.285-0.537c-0.101-0.04-0.203-0.08-0.304-0.119
		c-0.425-0.164-0.851-0.321-1.276-0.464c-0.035-0.012-0.07-0.022-0.105-0.034c-0.398-0.133-0.796-0.255-1.193-0.37
		c-0.099-0.028-0.197-0.057-0.295-0.085c-0.421-0.117-0.841-0.226-1.26-0.323c-0.059-0.013-0.117-0.025-0.176-0.038
		c-0.376-0.084-0.749-0.159-1.122-0.227c-0.093-0.017-0.185-0.035-0.278-0.05c-0.412-0.07-0.821-0.131-1.228-0.181
		c-0.074-0.009-0.147-0.015-0.22-0.024c-0.357-0.04-0.711-0.072-1.063-0.096c-0.084-0.006-0.169-0.013-0.253-0.018
		c-0.398-0.023-0.792-0.035-1.182-0.036C18.153,0.002,18.125,0,18.097,0c-0.122,0-0.242,0.005-0.363,0.007
		c-0.12,0.002-0.24,0.003-0.358,0.007C17.208,0.02,17.043,0.03,16.878,0.04c-0.11,0.006-0.221,0.011-0.331,0.019
		c-0.182,0.014-0.362,0.033-0.542,0.052c-0.09,0.01-0.181,0.016-0.27,0.027c-0.262,0.031-0.521,0.068-0.778,0.11
		c-0.006,0.001-0.012,0.002-0.018,0.003c-1.089,0.18-2.133,0.456-3.127,0.825c-0.994,0.369-1.94,0.831-2.834,1.384
		C8.382,2.828,7.81,3.236,7.262,3.684C5.068,5.476,3.261,7.898,1.9,10.901c-0.34,0.751-0.635,1.498-0.883,2.242
		c-0.995,2.974-1.259,5.882-0.796,8.645c0.116,0.691,0.277,1.372,0.484,2.044c0.414,1.343,1.009,2.644,1.786,3.894
		c0.435,0.7,0.929,1.385,1.479,2.051c0.366,0.444,0.757,0.88,1.171,1.306c0.223,0.23,0.455,0.457,0.691,0.682
		c0.42,0.399,0.86,0.789,1.32,1.169c0.24,0.198,0.484,0.392,0.734,0.584c0.999,0.767,2.079,1.487,3.228,2.15
		c0.862,0.498,1.762,0.963,2.696,1.394c-0.013,0.106-0.018,0.212-0.015,0.317c0.007,0.21,0.047,0.417,0.116,0.613
		C14.017,38.284,14.189,38.553,14.421,38.771z M10.621,33.314c-1.144-0.673-2.445-1.556-3.763-2.735
		c-0.528-0.468-1.055-0.986-1.565-1.558c-0.51-0.572-1.002-1.197-1.459-1.878c-0.226-0.341-0.448-0.695-0.657-1.061
		c-0.209-0.367-0.406-0.747-0.584-1.143c-0.186-0.392-0.352-0.8-0.498-1.219c-0.146-0.42-0.273-0.851-0.379-1.291
		c-0.446-1.757-0.542-3.667-0.289-5.548c0.034-0.236,0.072-0.471,0.115-0.705c0.043-0.234,0.09-0.467,0.141-0.699
		c0.154-0.696,0.347-1.383,0.576-2.062c0.076-0.226,0.156-0.452,0.24-0.677c0.168-0.45,0.351-0.896,0.549-1.339
		c0.207-0.417,0.394-0.825,0.621-1.246c0.12-0.21,0.236-0.424,0.354-0.635c0.118-0.211,0.24-0.419,0.373-0.616
		c0.493-0.816,1.078-1.575,1.688-2.3c0.622-0.716,1.309-1.371,2.042-1.949c0.183-0.145,0.369-0.285,0.558-0.419
		c0.377-0.27,0.765-0.52,1.161-0.748c0.198-0.114,0.398-0.223,0.6-0.326c1.603-0.853,3.32-1.305,4.941-1.517
		c1.628-0.212,3.178-0.169,4.578,0.007c0.351,0.043,0.693,0.093,1.025,0.149c0.996,0.168,1.907,0.39,2.725,0.631
		c0.545,0.161,1.05,0.33,1.512,0.497c0.231,0.084,0.451,0.167,0.66,0.248c0.209,0.082,0.408,0.161,0.595,0.238
		c0.187,0.079,0.363,0.155,0.528,0.229c0.165,0.074,0.319,0.145,0.461,0.212c0.285,0.134,0.525,0.253,0.719,0.35
		c0.386,0.198,0.591,0.303,0.591,0.303s-0.103-0.038-0.284-0.104l-0.172,0.381c-0.054,0.021-0.097,0.052-0.117,0.101
		C28.19,4.93,28.192,4.983,28.21,5.039l-0.276,0.61c-0.059-0.111-0.163-0.219-0.299-0.306c-0.045-0.029-0.094-0.055-0.145-0.079
		c-0.354-0.161-0.722-0.126-0.832,0.1c-0.014,0.028-0.023,0.058-0.027,0.089c-0.008,0.062,0.002,0.129,0.028,0.196
		c0.026,0.067,0.068,0.135,0.125,0.199c0.084,0.095,0.2,0.182,0.338,0.245c0.207,0.094,0.415,0.112,0.577,0.071l-0.962,2.124
		c-0.083-0.16-0.229-0.301-0.42-0.388c-0.388-0.177-0.821-0.068-0.972,0.256c-0.076,0.162-0.065,0.348,0.015,0.517
		c0.06,0.126,0.159,0.243,0.289,0.332c0.043,0.03,0.09,0.056,0.14,0.079c0.191,0.087,0.391,0.101,0.564,0.057l-1.209,2.668
		c-0.042-0.082-0.098-0.158-0.165-0.224c-0.068-0.066-0.148-0.122-0.24-0.164c-0.412-0.188-0.89-0.028-1.072,0.365
		c-0.068,0.147-0.084,0.307-0.055,0.459c0.019,0.101,0.059,0.199,0.115,0.288c0.057,0.089,0.131,0.168,0.222,0.232
		c0.045,0.032,0.094,0.061,0.146,0.084c0.183,0.083,0.378,0.094,0.554,0.05l-1.364,3.011c-0.085-0.163-0.219-0.301-0.398-0.382
		c-0.427-0.193-0.931-0.004-1.129,0.428c-0.074,0.162-0.094,0.335-0.067,0.499c0.045,0.272,0.219,0.517,0.488,0.64
		c0.179,0.081,0.37,0.092,0.548,0.049l-1.431,3.159c-0.085-0.162-0.218-0.299-0.397-0.38c-0.432-0.195-0.944,0.003-1.144,0.445
		c-0.199,0.442-0.011,0.957,0.42,1.152c0.178,0.081,0.369,0.091,0.547,0.048l-0.429,0.947c-0.042-0.081-0.097-0.156-0.163-0.22
		c-0.066-0.065-0.145-0.119-0.234-0.16c-0.43-0.195-0.94,0.002-1.136,0.437c-0.024,0.054-0.043,0.11-0.055,0.166
		c-0.013,0.056-0.02,0.112-0.021,0.168c-0.005,0.168,0.04,0.332,0.125,0.472c0.057,0.094,0.133,0.177,0.224,0.243
		c0.046,0.033,0.095,0.062,0.149,0.086c0.179,0.081,0.371,0.091,0.55,0.047l-0.423,0.934c-0.042-0.081-0.097-0.156-0.163-0.221
		c-0.067-0.065-0.146-0.12-0.236-0.16c-0.427-0.193-0.928-0.004-1.117,0.417c-0.024,0.053-0.041,0.107-0.053,0.16
		c-0.084,0.379,0.109,0.776,0.479,0.943c0.181,0.082,0.375,0.091,0.553,0.048l-0.412,0.91c-0.084-0.162-0.219-0.301-0.403-0.383
		c-0.421-0.19-0.91-0.014-1.088,0.386c-0.022,0.05-0.039,0.101-0.05,0.153c-0.011,0.051-0.016,0.103-0.016,0.155
		c0,0.103,0.02,0.205,0.059,0.3c0.078,0.191,0.231,0.355,0.438,0.448c0.183,0.083,0.379,0.093,0.558,0.049l-0.396,0.875
		c-0.083-0.161-0.221-0.301-0.407-0.385c-0.413-0.186-0.885-0.028-1.048,0.342c-0.062,0.139-0.072,0.288-0.04,0.429
		c0.011,0.047,0.026,0.093,0.046,0.138c0.06,0.134,0.16,0.255,0.291,0.346c0.044,0.03,0.091,0.057,0.142,0.08
		c0.187,0.084,0.385,0.096,0.563,0.052l-0.215,0.474c-0.904-0.415-1.797-0.835-2.671-1.265c-0.076-0.082-0.168-0.154-0.276-0.206
		c-0.05-0.024-0.101-0.043-0.152-0.057c-0.051-0.014-0.102-0.022-0.152-0.026c-0.45-0.226-0.894-0.455-1.33-0.688
		c0.048-0.054,0.09-0.115,0.118-0.188c0.017-0.046,0.03-0.093,0.037-0.141c0.014-0.096,0.009-0.195-0.015-0.292
		c-0.012-0.049-0.028-0.096-0.048-0.143c-0.041-0.093-0.098-0.181-0.169-0.257c-0.071-0.077-0.157-0.143-0.254-0.191
		c-0.389-0.196-0.812-0.047-0.943,0.32c-0.02,0.056-0.03,0.114-0.034,0.173c-0.985-0.564-1.915-1.15-2.776-1.764
		c0.255,0.019,0.488-0.129,0.582-0.409c0.032-0.095,0.044-0.195,0.039-0.296c-0.01-0.202-0.088-0.404-0.218-0.56
		c-0.065-0.078-0.142-0.144-0.231-0.193c-0.353-0.196-0.736-0.037-0.856,0.34c-0.069,0.216-0.036,0.456,0.066,0.66
		c-0.252-0.192-0.496-0.386-0.733-0.584c-0.013-0.221-0.105-0.442-0.252-0.599c-0.049-0.053-0.104-0.098-0.165-0.134
		c-0.158-0.094-0.321-0.105-0.459-0.049c-0.269-0.257-0.526-0.52-0.768-0.788c-0.242-0.268-0.47-0.542-0.682-0.822
		c0.032-0.035,0.061-0.074,0.087-0.119c0.026-0.045,0.048-0.095,0.066-0.151c0.03-0.095,0.045-0.194,0.045-0.293
		c0.001-0.099-0.013-0.197-0.038-0.289c-0.051-0.184-0.151-0.342-0.287-0.43c-0.219-0.142-0.461-0.059-0.609,0.173
		c-0.148-0.257-0.282-0.519-0.403-0.786c-0.121-0.267-0.228-0.54-0.322-0.818c0.031-0.016,0.061-0.037,0.091-0.061
		c0.087-0.075,0.165-0.189,0.218-0.338c0.033-0.093,0.053-0.19,0.062-0.285c0.017-0.19-0.014-0.373-0.083-0.507
		c-0.035-0.067-0.079-0.121-0.132-0.158c-0.122-0.085-0.26-0.058-0.382,0.046C2.65,19.456,2.703,20.83,3.001,22.13
		c0.074,0.406,0.204,0.794,0.309,1.186c0.07,0.19,0.133,0.382,0.199,0.572c0.066,0.19,0.134,0.378,0.215,0.561
		c0.073,0.185,0.15,0.368,0.232,0.548c0.245,0.539,0.526,1.053,0.82,1.546c0.4,0.653,0.831,1.266,1.281,1.836
		c0.45,0.57,0.919,1.098,1.395,1.581c1.668,1.697,3.34,2.903,4.64,3.754c0.186,0.122,0.364,0.236,0.533,0.343
		c0.516,0.313,0.95,0.574,1.296,0.773c0.115,0.066,0.22,0.125,0.316,0.177c0.095,0.052,0.179,0.098,0.252,0.137
		c0.217,0.119,0.332,0.181,0.332,0.181s-0.215-0.085-0.618-0.245c-0.4-0.164-0.991-0.408-1.721-0.763
		C11.938,34.046,11.308,33.718,10.621,33.314z M43.032,19.524l1.411-3.115l1.941,1.979l72.622,37.113c0,0,0.182,0.165,0.357,0.557
		c0.085,0.195,0.171,0.442,0.231,0.734c0.06,0.291,0.105,0.626,0.115,0.991c0,0.182,0.007,0.374,0,0.57
		c-0.015,0.195-0.031,0.398-0.047,0.606c-0.057,0.411-0.112,0.848-0.226,1.285c-0.096,0.443-0.228,0.888-0.373,1.338
		c-0.164,0.441-0.314,0.897-0.505,1.333c-0.094,0.218-0.191,0.437-0.29,0.653c-0.099,0.216-0.201,0.429-0.302,0.634
		c-0.104,0.214-0.215,0.42-0.328,0.622c-0.114,0.201-0.229,0.398-0.343,0.59c-0.226,0.387-0.474,0.745-0.717,1.078
		c-0.24,0.335-0.489,0.637-0.733,0.903c-0.12,0.135-0.239,0.26-0.356,0.376c-0.35,0.347-0.677,0.61-0.935,0.788
		c-0.085,0.062-0.163,0.112-0.233,0.154c-0.07,0.042-0.13,0.076-0.178,0.104c-0.049,0.027-0.086,0.047-0.111,0.061
		c-0.025,0.014-0.038,0.021-0.038,0.021s0.094-0.096,0.25-0.277c0.052-0.06,0.111-0.13,0.176-0.209
		c0.196-0.235,0.437-0.557,0.699-0.95c0.087-0.131,0.177-0.27,0.269-0.416c0.091-0.146,0.184-0.299,0.277-0.46
		c0.281-0.481,0.569-1.022,0.858-1.599c0.198-0.383,0.371-0.794,0.568-1.195c0.197-0.422,0.371-0.837,0.546-1.266
		c0.098-0.209,0.185-0.421,0.268-0.634c0.084-0.212,0.164-0.425,0.248-0.635c0.047-0.143,0.101-0.282,0.153-0.422L44.095,25.533
		c0.197-0.502,0.382-0.988,0.556-1.46l74.052,35.562c0.081-0.274,0.158-0.544,0.227-0.804c0.04-0.19,0.08-0.375,0.116-0.555
		c0.036-0.18,0.069-0.354,0.092-0.522c0.006-0.046,0.009-0.087,0.014-0.131L45.745,20.881c0.1-0.322,0.189-0.615,0.264-0.872
		c0.227-0.773,0.34-1.231,0.34-1.231s-0.132,0.256-0.358,0.71c-0.016,0.038-0.034,0.08-0.055,0.127
		c-0.041,0.094-0.09,0.207-0.148,0.338c-0.029,0.066-0.06,0.135-0.093,0.21c-0.251,0.552-0.609,1.341-1.038,2.288
		c-0.434,0.941-0.939,2.039-1.482,3.215c-0.536,1.176-1.109,2.431-1.681,3.686c-0.283,0.629-0.566,1.257-0.845,1.877
		c-0.139,0.309-0.277,0.616-0.414,0.92c-0.136,0.303-0.272,0.603-0.404,0.898c-0.132,0.296-0.261,0.587-0.388,0.871
		c-0.253,0.569-0.496,1.114-0.723,1.624c-0.114,0.255-0.223,0.501-0.329,0.738c-0.428,0.947-0.785,1.737-1.035,2.289
		c-0.037,0.079-0.07,0.152-0.103,0.222c-0.037,0.09-0.069,0.17-0.097,0.24c-0.084,0.209-0.129,0.323-0.129,0.323
		s0.099-0.142,0.272-0.403c0.057-0.087,0.123-0.188,0.196-0.3l75.752,30.701c-0.189,0.086-0.338,0.132-0.44,0.155
		c-0.051,0.012-0.09,0.018-0.117,0.021c-0.026,0.003-0.04,0.004-0.04,0.004L36.862,39.407l-2.768-0.154l0.758-1.674l2.324,0.942
		c0.001-0.004,0.002-0.008,0.003-0.013c0.038-0.146,0.082-0.309,0.13-0.486c0.097-0.353,0.214-0.763,0.352-1.218
		c0.069-0.227,0.144-0.465,0.224-0.713c0.078-0.249,0.161-0.507,0.25-0.773c0.178-0.533,0.377-1.099,0.593-1.687
		c0.108-0.294,0.22-0.595,0.336-0.899c0.241-0.605,0.474-1.237,0.748-1.865c0.272-0.628,0.548-1.266,0.824-1.904
		c0.298-0.628,0.595-1.257,0.888-1.875c0.29-0.62,0.613-1.212,0.908-1.792c0.079-0.15,0.158-0.294,0.237-0.441l-1.689-0.803
		l0.648-1.43l1.796,0.863c0.13-0.229,0.258-0.452,0.385-0.668c0.126-0.216,0.25-0.424,0.371-0.622
		c0.185-0.311,0.363-0.599,0.53-0.865c0.167-0.266,0.325-0.509,0.469-0.73L43.032,19.524z M30.1,33.31
		c-0.107,0.177-0.13,0.353-0.086,0.492c-0.677,0.007-1.393-0.014-2.126-0.076c-0.002-0.049-0.012-0.097-0.029-0.142
		c-0.05-0.134-0.162-0.244-0.331-0.297c-0.312-0.1-0.707,0.029-0.937,0.285c-0.472-0.073-0.944-0.166-1.414-0.281l0.017-0.042
		c0.032,0.017,0.064,0.034,0.101,0.047c0.372,0.128,0.834-0.039,1.039-0.378c0.205-0.339,0.075-0.726-0.3-0.859
		c-0.106-0.038-0.219-0.048-0.332-0.04l0.513-1.243c0.001,0,0.002,0.001,0.002,0.001c0.381,0.141,0.851-0.049,1.057-0.426
		c0.18-0.33,0.099-0.698-0.181-0.884c-0.04-0.027-0.084-0.049-0.132-0.068c-0.052-0.02-0.107-0.033-0.162-0.04l0.721-1.746
		c0.184-0.084,0.346-0.23,0.443-0.427c0.117-0.235,0.114-0.488,0.019-0.693l0.527-1.276c0.007,0.003,0.012,0.008,0.019,0.011
		c0.386,0.166,0.85-0.04,1.045-0.459c0.146-0.315,0.1-0.663-0.094-0.89c-0.065-0.076-0.146-0.138-0.241-0.181
		c-0.029-0.013-0.059-0.02-0.089-0.029l0.489-1.184c0.305,0.005,0.604-0.188,0.744-0.512c0.108-0.251,0.097-0.522-0.009-0.741
		c-0.035-0.073-0.081-0.14-0.136-0.199l1.101-2.668c0.332,0.082,0.672-0.103,0.808-0.459c0.097-0.256,0.066-0.541-0.061-0.766
		c-0.042-0.075-0.096-0.143-0.158-0.202l1.387-3.361c0.034,0.027,0.069,0.052,0.106,0.073c0.35,0.196,0.717,0.055,0.82-0.302
		c0.077-0.266-0.012-0.575-0.203-0.797c-0.064-0.074-0.139-0.138-0.223-0.187l0.962-2.33c0.251,0.068,0.457-0.03,0.489-0.255
		c0.006-0.04,0.006-0.082,0-0.124c-0.017-0.127-0.082-0.261-0.175-0.383l0.162-0.392c0.022,0.046,0.05,0.093,0.081,0.139
		c0.031,0.046,0.067,0.09,0.106,0.133c0.078,0.085,0.17,0.162,0.273,0.22c0.316,0.179,0.588,0.106,0.6-0.145
		c0.01-0.189-0.129-0.418-0.33-0.591c-0.067-0.058-0.141-0.109-0.219-0.151c-0.312-0.166-0.57-0.124-0.587,0.116
		c-0.003,0.039,0.004,0.082,0.016,0.127c0.012,0.045,0.031,0.091,0.052,0.138l-0.184,0.371c-0.087-0.105-0.19-0.202-0.313-0.27
		c-0.086-0.047-0.169-0.077-0.247-0.09l0.464-1.025c0.261,0.171,0.514,0.341,0.76,0.512c0.246,0.171,0.485,0.342,0.716,0.514
		c0.463,0.343,0.896,0.686,1.302,1.03c0.008,0.126,0.064,0.272,0.152,0.408c0.044,0.068,0.096,0.133,0.154,0.191
		c0.058,0.058,0.122,0.11,0.191,0.152c0.161,0.099,0.305,0.109,0.409,0.06c0.303,0.288,0.592,0.577,0.856,0.865
		c-0.23-0.093-0.425-0.005-0.458,0.252c-0.038,0.296,0.144,0.695,0.409,0.878c0.264,0.184,0.517,0.077,0.566-0.226
		c0.009-0.057,0.008-0.116-0.001-0.175c-0.008-0.06-0.024-0.121-0.044-0.181c0.187,0.224,0.361,0.448,0.524,0.671
		c0.163,0.223,0.314,0.446,0.453,0.668c0.009,0.269,0.126,0.558,0.307,0.702c0.043,0.034,0.086,0.048,0.129,0.061
		c0.084,0.163,0.163,0.325,0.236,0.487c0.073,0.162,0.139,0.323,0.198,0.484c-0.151-0.017-0.298,0.106-0.366,0.344
		c-0.023,0.082-0.036,0.168-0.039,0.255c-0.009,0.26,0.068,0.522,0.201,0.65c0.039,0.037,0.08,0.055,0.121,0.065l-0.861,1.9
		c-0.148-0.054-0.328,0.089-0.425,0.377c-0.075,0.221-0.081,0.462-0.04,0.65l-1.063,2.346c-0.034,0.005-0.07,0.019-0.105,0.041
		c-0.036,0.022-0.071,0.052-0.106,0.09c-0.069,0.075-0.133,0.18-0.183,0.31c-0.083,0.213-0.106,0.437-0.081,0.609l-1.275,2.814
		c-0.004-0.057-0.014-0.109-0.031-0.154c-0.017-0.045-0.041-0.083-0.071-0.112l0.454-1.139c0.057-0.04,0.112-0.095,0.163-0.165
		c0.051-0.069,0.097-0.152,0.136-0.245c0.079-0.194,0.108-0.396,0.088-0.562l1.039-2.609c0.012,0.014,0.019,0.035,0.032,0.046
		c0.177,0.146,0.41-0.023,0.538-0.37c0.126-0.344,0.097-0.743-0.08-0.904l0.823-2.066c0.166,0.06,0.34-0.069,0.429-0.348
		c0.018-0.057,0.031-0.116,0.039-0.175c0.016-0.119,0.011-0.239-0.011-0.351c-0.011-0.056-0.026-0.109-0.046-0.159l0.44-1.103
		l-0.502,0.984c-0.025-0.04-0.049-0.083-0.082-0.111c-0.201-0.176-0.448-0.051-0.542,0.288c-0.021,0.073-0.032,0.149-0.036,0.225
		c-0.008,0.152,0.014,0.305,0.061,0.434c0.023,0.065,0.052,0.124,0.086,0.174l-1.766,3.463c-0.017-0.044-0.036-0.086-0.06-0.122
		c-0.023-0.037-0.051-0.068-0.083-0.092c-0.211-0.155-0.502,0.014-0.637,0.389c-0.068,0.188-0.084,0.388-0.056,0.56
		c0.014,0.086,0.038,0.164,0.073,0.231c0.034,0.066,0.078,0.12,0.131,0.156c0.016,0.011,0.033,0.016,0.049,0.023l-1.383,2.712
		c-0.016-0.179-0.088-0.328-0.214-0.398c-0.237-0.131-0.575,0.071-0.74,0.458c-0.021,0.048-0.038,0.097-0.051,0.146
		c-0.013,0.049-0.023,0.097-0.029,0.145c-0.012,0.095-0.011,0.187,0.003,0.271c0.007,0.042,0.017,0.081,0.031,0.118
		c0.04,0.111,0.107,0.197,0.198,0.24c0.096,0.047,0.203,0.04,0.308-0.007l-0.569,1.117c-0.021-0.018-0.044-0.034-0.07-0.045
		c-0.24-0.109-0.592,0.106-0.769,0.488c-0.022,0.048-0.041,0.095-0.055,0.143c-0.103,0.331-0.023,0.642,0.193,0.726
		c0.01,0.004,0.02,0.004,0.03,0.006l-0.517,1.014c-0.033-0.033-0.069-0.061-0.116-0.078c-0.255-0.092-0.626,0.13-0.815,0.502
		c-0.071,0.139-0.105,0.279-0.106,0.402c-0.001,0.124,0.031,0.232,0.091,0.31c0.041,0.052,0.094,0.09,0.16,0.11
		c0.046,0.014,0.095,0.015,0.145,0.011l-1.771,3.472c-0.333,0.03-0.688,0.055-1.062,0.074c0.051-0.053,0.101-0.107,0.139-0.17
		c0.149-0.249,0.145-0.501,0.005-0.646c-0.047-0.048-0.108-0.085-0.184-0.106C30.726,32.764,30.304,32.971,30.1,33.31z
		 M32.381,14.654l-1.034,2.09c-0.233,0.038-0.442,0.201-0.544,0.462c-0.041,0.105-0.06,0.215-0.06,0.325
		c0,0.109,0.02,0.217,0.057,0.318l-0.433,0.876c0.001-0.162-0.042-0.321-0.121-0.457l1.651-3.645
		C32.063,14.7,32.234,14.708,32.381,14.654z M29.254,20.975c-0.054,0.043-0.104,0.092-0.148,0.148
		c-0.044,0.056-0.083,0.12-0.113,0.19c-0.024,0.056-0.043,0.113-0.055,0.171c-0.012,0.058-0.019,0.116-0.021,0.173l-2.452,4.958
		l3.198-7.058c0.065-0.006,0.128-0.021,0.189-0.044c0.061-0.023,0.118-0.054,0.172-0.093L29.254,20.975z M32.988,12.639
		c-0.062,0.2-0.025,0.431,0.078,0.63l-0.298,0.602c-0.036-0.199-0.139-0.387-0.293-0.524l1.181-2.608
		c0.201-0.004,0.36-0.116,0.405-0.315c0.03-0.134-0.004-0.282-0.07-0.423l0.201-0.444c0.046,0.079,0.103,0.155,0.171,0.224
		c0.067,0.069,0.145,0.129,0.229,0.177c0.031,0.017,0.061,0.03,0.09,0.043l-1.123,2.27C33.303,12.234,33.071,12.368,32.988,12.639z
		 M18.803,38.675l-3.016-1.367L30.91,3.927l3.017,1.367L18.803,38.675z M37.173,26.598l-0.553,1.22
		c-0.011-0.04-0.028-0.074-0.049-0.104l0.415-1.042c0.03-0.002,0.061-0.009,0.092-0.022C37.11,26.638,37.141,26.62,37.173,26.598z
		 M36.141,28.875l-0.267,0.59l0.226-0.568C36.114,28.891,36.127,28.883,36.141,28.875z" class="color c1"/>
    <polygon fill="#190C28" points="18.925,31.236 16.268,37.103 18.622,38.17 21.345,32.16 	" class="color c1"/>
    <rect x="30.647" y="5.319" transform="matrix(0.4127 -0.9109 0.9109 0.4127 12.4786 32.5763)" fill="#190C28" width="1.708" height="2.585" class="color c1"/>
    <polygon fill="#190C28" points="29.574,7.733 22.711,22.88 25.123,23.821 31.928,8.8 	" class="color c1"/>
  </g>
</svg>