<svg version="1.1" baseProfile="tiny" id="图层_1" x="0px" y="0px" width="113.084px" height="120.455px" viewBox="0 0 113.084 120.455" xml:space="preserve" xmlns="http://www.w3.org/2000/svg" xmlns:xlink="http://www.w3.org/1999/xlink" xmlns:xml="http://www.w3.org/XML/1998/namespace">
  <path fill="#5C5D5D" d="M48.655,85.605C4.945,81.462,0,41.361,0,5.136c0-6.684,13.233-6.684,14.436-0.936
	c0.4,29.408,0.4,67.369,42.106,67.369c41.705,0,42.105-37.961,42.105-67.369c1.604-5.748,14.437-5.348,14.437,0.936
	c0,36.225-4.945,76.326-48.789,80.469v20.184h22.724c9.891,0,9.624,14.438,0,14.438H25.932c-9.089,0-9.357-14.438,0-14.438h22.724
	V85.605z" class="color c1"/>
  <path fill="#3E3E3F" d="M25.932,120.455c-9.089,0-9.357-14.438,0-14.438h22.724V85.833C4.945,81.689,0,41.589,0,5.365
	c0-6.684,13.233-6.684,14.436-0.936c0.4,29.408,0.4,67.369,42.106,67.369v48.428L25.932,120.455z" class="color c2"/>
</svg>