<svg version="1.1" id="图层_1" x="0px" y="0px" width="52.838px" height="16.228px" viewBox="0 0 52.838 16.228" enable-background="new 0 0 52.838 16.228" xml:space="preserve" xmlns="http://www.w3.org/2000/svg" xmlns:xlink="http://www.w3.org/1999/xlink" xmlns:xml="http://www.w3.org/XML/1998/namespace">
  <path fill-rule="evenodd" clip-rule="evenodd" fill="#DF5745" d="M0,16.228h52.838c-0.579-5.389-3.124-9.64-7.619-9.479
	l-2.054,0.185l-0.233-2.281c0.954-0.191,1.842-0.619,2.468-1.348l-0.47-2.566c-1.698-0.987-4.366-0.98-6.063,0.008l-0.473,2.584
	c0.627,0.728,1.516,1.186,2.47,1.376l-0.242,2.429l-8.164,0.293l-0.271-2.721c0.954-0.189,1.842-0.646,2.468-1.373l-0.47-2.582
	c-1.7-0.986-4.366-0.986-6.063,0l-0.472,2.582c0.626,0.728,1.514,1.183,2.468,1.373l-0.279,2.814L21.749,7.81L21.44,4.706
	c0.956-0.189,1.843-0.646,2.47-1.373l-0.473-2.582c-1.697-0.986-4.365-0.986-6.063,0l-0.471,2.582
	c0.626,0.728,1.514,1.183,2.468,1.373l-0.317,3.199L15.566,8.03c-4.232,0.15-5.861,5.699-10.412,5.636l-2.19-0.253L0,16.228z" class="color c1"/>
</svg>