<svg version="1.1" id="图层_1" x="0px" y="0px" width="160px" height="111.676px" viewBox="0 0 160 111.676" enable-background="new 0 0 160 111.676" xml:space="preserve" xmlns="http://www.w3.org/2000/svg" xmlns:xlink="http://www.w3.org/1999/xlink" xmlns:xml="http://www.w3.org/XML/1998/namespace">
  <path fill="#161616" d="M155,0c-2.762,0-5,2.239-5,5v7.564c0,38.599-31.402,70.001-70,70.001S10,51.163,10,12.564V5
	c0-2.761-2.238-5-5-5S0,2.239,0,5v7.564c0,42.432,33.21,77.237,75,79.829v9.283H55.941c-2.762,0-5,2.239-5,5s2.238,5,5,5h48.117
	c2.762,0,5-2.239,5-5s-2.238-5-5-5H85v-9.283c41.79-2.592,75-37.396,75-79.829V5C160,2.239,157.762,0,155,0z" class="color c1"/>
</svg>