<svg version="1.1" id="图层_1" x="0px" y="0px" width="55.377px" height="50.121px" viewBox="0 0 55.377 50.121" enable-background="new 0 0 55.377 50.121" xml:space="preserve" xmlns="http://www.w3.org/2000/svg" xmlns:xlink="http://www.w3.org/1999/xlink" xmlns:xml="http://www.w3.org/XML/1998/namespace">
  <path fill="#FFFFFF" d="M34.946,21.53V2.986c0-0.946-0.447-1.835-1.207-2.398C32.983,0.026,32-0.143,31.095,0.124L13.013,5.568
	c-1.264,0.38-2.127,1.543-2.127,2.862v10.479c-0.777-0.237-1.601-0.366-2.453-0.366C3.783,18.542,0,22.325,0,26.975
	c0,4.648,3.782,8.433,8.433,8.433c4.649,0,8.431-3.782,8.431-8.433V10.651l12.104-3.644v6.459c-0.775-0.238-1.599-0.366-2.454-0.366
	c-4.648,0-8.432,3.782-8.432,8.433c0,4.65,3.781,8.433,8.432,8.433C31.163,29.962,34.946,26.18,34.946,21.53z M8.433,29.426
	c-1.354,0-2.456-1.1-2.456-2.453c0-1.354,1.103-2.456,2.456-2.456s2.453,1.102,2.453,2.456C10.886,28.327,9.785,29.426,8.433,29.426
	z M26.514,23.985c-1.354,0-2.455-1.102-2.455-2.455c0-1.354,1.102-2.455,2.455-2.455s2.454,1.102,2.454,2.455
	C28.968,22.883,27.866,23.985,26.514,23.985z" class="color c1"/>
  <path fill="#FFFFFF" d="M51.528,17.596l-8.924,2.686c-1.265,0.38-2.127,1.542-2.127,2.862v10.479
	c-0.777-0.238-1.603-0.366-2.455-0.366c-4.648,0-8.433,3.782-8.433,8.433c0,4.647,3.783,8.433,8.433,8.433
	c4.648,0,8.432-3.782,8.432-8.433V25.366l6.795-2.044c1.582-0.476,2.477-2.145,2.002-3.723
	C54.776,18.016,53.106,17.123,51.528,17.596z M38.022,44.141c-1.353,0-2.453-1.1-2.453-2.453s1.102-2.455,2.453-2.455
	c1.354,0,2.457,1.102,2.457,2.455C40.479,43.042,39.375,44.141,38.022,44.141z" class="color c1"/>
</svg>