<svg version="1.1" id="图层_1" x="0px" y="0px" width="144px" height="141.131px" viewBox="0 0 144 141.131" enable-background="new 0 0 144 141.131" xml:space="preserve" xmlns="http://www.w3.org/2000/svg" xmlns:xlink="http://www.w3.org/1999/xlink" xmlns:xml="http://www.w3.org/XML/1998/namespace">
  <path fill="#141416" d="M139.61,56.076v-1.111c0-3.61-2.572-6.499-5.948-7.278C126.143,20.252,101.045,0,71.25,0
	C41.277,0,16.074,20.49,8.711,48.177c-2.534,1.234-4.317,3.781-4.317,6.789v1.111C1.966,56.076,0,58.037,0,60.454v15.03
	c0,2.42,1.966,4.391,4.395,4.391v1.101c0,4.202,3.405,7.604,7.607,7.604c4.191,0,7.596-3.401,7.596-7.604V54.965
	c0-2.553-1.329-4.691-3.26-6.071c2.32-7.969,6.311-15.224,11.593-21.356c4.244-5.158,9.487-9.516,15.713-12.816
	c0.394-0.217,0.811-0.424,1.203-0.631c0.79-0.385,1.558-0.784,2.377-1.139C54.54,9.542,62.667,7.582,71.25,7.582
	c6.418,0,12.567,1.109,18.338,3.071c19.83,5.837,32.11,21.311,36.914,39.112c-1.287,1.356-2.112,3.176-2.112,5.199v26.008
	c0,3.907,2.958,7.086,6.749,7.52c-1.295,11.608-8.877,40.919-52.15,43.769c-0.756-3.167-3.589-5.529-6.988-5.529
	c-3.975,0-7.2,3.222-7.2,7.199c0,3.979,3.226,7.2,7.2,7.2c3.563,0,6.501-2.593,7.078-5.989
	c46.199-2.963,53.772-34.909,54.979-46.879c3.195-0.901,5.553-3.805,5.553-7.29v-1.1c2.43,0,4.391-1.971,4.391-4.39V60.454
	C144.001,58.037,142.041,56.076,139.61,56.076z" class="color c1"/>
</svg>