<svg version="1.1" id="图层_1" x="0px" y="0px" width="11.95px" height="234.735px" viewBox="0 0 11.95 234.735" enable-background="new 0 0 11.95 234.735" xml:space="preserve" xmlns="http://www.w3.org/2000/svg" xmlns:xlink="http://www.w3.org/1999/xlink" xmlns:xml="http://www.w3.org/XML/1998/namespace">
  <path fill="#FFFFFF" d="M10.694,196.16l0.032-0.001c-0.283-8.441-0.455-16.882-0.591-25.328L9.755,147.74
	c-0.372,0.216-0.738,0.429-1.097,0.635l-0.112,0.065c-0.534,0.306-1.14,0.655-1.75,1.018c0.409,27.684,1.137,45.258,1.167,45.916
	c-0.009,0.013-0.009,0.013-0.009,0.013c-0.117,0.201-0.186,0.464-0.185,0.747c-0.021,2.134-0.053,8.447-0.072,10.205
	c0.005,1.743-3.88,1.716-3.867-0.025c-0.006-1.749,0.046-8.536,0.055-9.705c-0.003-0.805-0.625-1.231-1.282-1.256l0.268-42.977
	l-1.202,2.504l0.048,0.953l0.175,16.176l0.548,23.346l0.024-0.002c-0.655,0.038-1.295,0.491-1.306,1.434
	c-0.013,1.949-0.153,23.5-0.153,23.5l5.638,0.044l-0.089,14.389l3.894,0.016C10.447,234.735,10.672,198.862,10.694,196.16z
	 M1.813,207.957c0.058-3.469,0.098-6.938,0.307-10.412c0.14,3.473,0.117,6.941,0.105,10.417c-0.058,3.467-0.104,6.938-0.307,10.41
	C1.779,214.897,1.803,211.425,1.813,207.957z M7.631,214.974c0.185-6.181,0.351-12.358,0.833-18.535
	c0.207,6.188,0.088,12.373-0.004,18.554c-0.187,6.186-0.351,12.37-0.836,18.539C7.419,227.341,7.533,221.164,7.631,214.974z
	 M10.563,44.212C10.101,59.458,9.946,74.706,9.77,89.955c-0.977-0.623-2.014-1.196-3.098-1.719
	c0.508-36.494,2.326-77.261,2.326-77.261l-0.04,0.035c-1.077-1.1-2.355-2.061-3.831-2.449C3.664,8.154,2.008,8.56,0.935,9.584
	L0.738,9.775L0.668,9.508C0.291,7.953,0,6.355,0,4.725c0-0.816,0.079-1.644,0.327-2.429C0.59,1.494,0.937,0.699,1.789,0.188L2.096,0
	l0.082,0.403c0.179,0.882,1.081,1.535,2.036,1.694c0.96,0.217,1.993-0.006,3.108,0.031c1.08,0.041,2.255,0.244,3.199,0.992
	c0.95,0.769,1.336,1.978,1.429,3.083c-0.041,4.319-0.356,8.462-0.5,12.699C11.094,27.342,10.801,35.778,10.563,44.212z M3.771,8.643
	l-0.49,78.22c-0.49-0.165-0.985-0.32-1.491-0.458c0.111-10.365,0.218-20.731,0.434-31.097l0.552-23.335L3.605,8.639L3.771,8.643z" class="color c1"/>
</svg>