<svg version="1.1" id="图层_1" x="0px" y="0px" width="73.832px" height="199.727px" viewBox="21.826 0.137 73.832 199.727" enable-background="new 21.826 0.137 73.832 199.727" xml:space="preserve" xmlns="http://www.w3.org/2000/svg" xmlns:xlink="http://www.w3.org/1999/xlink" xmlns:xml="http://www.w3.org/XML/1998/namespace">
  <path fill="#CA1D21" d="M66.698,96.284V42.458l6.725-25.468L65.06,0.137L53.24,36.58c3.155,1.079,3.506,4.004,3.506,5.936h0.053
	v53.77h-0.656l-34.316,88.45l8.811,15.128h12.093l20.965-20.342l9.729,7.65L83.7,187.11l11.188-8.373l0.771-11.106L67.271,96.284
	H66.698z M63.889,11.354c0.646,0,1.172,0.523,1.172,1.172c0,0.646-0.524,1.172-1.172,1.172s-1.172-0.525-1.172-1.172
	C62.718,11.878,63.241,11.354,63.889,11.354z M62.532,15.819c0.646,0,1.172,0.523,1.172,1.171c0,0.646-0.525,1.172-1.172,1.172
	c-0.647,0-1.173-0.524-1.173-1.172S61.885,15.819,62.532,15.819z M61.175,20.284c0.646,0,1.172,0.523,1.172,1.172
	s-0.524,1.172-1.172,1.172s-1.172-0.523-1.172-1.172S60.525,20.284,61.175,20.284z M59.816,24.75c0.646,0,1.171,0.524,1.171,1.171
	c0,0.647-0.523,1.173-1.171,1.173c-0.646,0-1.172-0.524-1.172-1.173C58.644,25.274,59.171,24.75,59.816,24.75z M58.46,29.215
	c0.646,0,1.172,0.525,1.172,1.172c0,0.647-0.525,1.172-1.172,1.172c-0.647,0-1.172-0.523-1.172-1.172
	C57.288,29.74,57.812,29.215,58.46,29.215z M55.93,34.853c0-0.647,0.524-1.172,1.171-1.172s1.172,0.523,1.172,1.172
	c0,0.647-0.524,1.171-1.172,1.171C56.455,36.023,55.93,35.5,55.93,34.853z M77.501,178.244L63.12,165.416l-16.871,16.709
	l-12.545-3.082l22.519-62.33v2.17h11.049v-3.129l20.648,54.385L77.501,178.244z M55.085,140.291h13.326v9.266H55.085V140.291z
	 M55.085,150.504h13.326v3.074H55.085V150.504z M52.789,25.027c-0.066-0.129-0.053-0.284-0.032-0.43
	c0.119-0.857,0.386-1.694,0.785-2.464c0.021-0.037,0.042-0.076,0.079-0.098c0.044-0.025,0.101-0.018,0.15-0.008
	c0.723,0.138,1.412,0.437,2.006,0.868c0.072,0.054,0.146,0.11,0.191,0.189c0.079,0.14,0.051,0.313,0.021,0.472
	c-0.165,0.855-0.249,1.801-0.529,2.619c-0.757-0.416-1.667-0.415-2.409-0.901C52.951,25.21,52.845,25.135,52.789,25.027z
	 M51.261,29.669c-0.066-0.13-0.054-0.285-0.033-0.43c0.12-0.857,0.388-1.695,0.786-2.464c0.021-0.037,0.042-0.076,0.078-0.099
	c0.045-0.024,0.103-0.018,0.152-0.007c0.722,0.137,1.411,0.437,2.005,0.867c0.073,0.054,0.146,0.111,0.19,0.19
	c0.08,0.141,0.053,0.313,0.021,0.473c-0.165,0.854-0.249,1.799-0.529,2.619c-0.757-0.417-1.668-0.416-2.41-0.903
	C51.422,29.85,51.317,29.776,51.261,29.669z M49.162,34.26c-0.019-0.038-0.012-0.082-0.006-0.124
	c0.131-0.84,0.407-1.656,0.815-2.402c0.069-0.126,0.149-0.258,0.28-0.32c0.107-0.052,0.236-0.049,0.356-0.041
	c0.886,0.053,1.618,0.59,2.475,0.707c-0.257,0.811-0.745,1.604-1.115,2.377c-0.068,0.142-0.146,0.296-0.294,0.358
	c-0.083,0.036-0.177,0.039-0.268,0.038c-0.732-0.01-1.466-0.181-2.127-0.495C49.233,34.334,49.182,34.306,49.162,34.26z
	 M57.719,11.374c-0.065-0.13-0.053-0.285-0.033-0.43c0.119-0.858,0.388-1.695,0.787-2.463c0.021-0.038,0.041-0.077,0.076-0.1
	c0.045-0.024,0.103-0.017,0.154-0.008c0.721,0.138,1.41,0.438,2.004,0.868c0.072,0.054,0.146,0.111,0.19,0.19
	c0.08,0.141,0.052,0.313,0.021,0.472c-0.166,0.854-0.25,1.801-0.529,2.62c-0.756-0.417-1.668-0.416-2.41-0.902
	C57.88,11.555,57.775,11.482,57.719,11.374z M56.191,16.014c-0.066-0.13-0.053-0.284-0.032-0.43
	c0.119-0.858,0.387-1.695,0.786-2.463c0.02-0.037,0.041-0.077,0.077-0.098c0.048-0.026,0.103-0.019,0.152-0.01
	c0.721,0.139,1.412,0.438,2.006,0.868c0.072,0.055,0.146,0.111,0.191,0.191c0.08,0.14,0.051,0.313,0.02,0.471
	c-0.164,0.855-0.248,1.801-0.528,2.62c-0.757-0.417-1.666-0.416-2.408-0.902C56.351,16.196,56.247,16.123,56.191,16.014z
	 M54.092,20.606c-0.018-0.038-0.012-0.082-0.006-0.123c0.131-0.842,0.408-1.658,0.816-2.404c0.068-0.126,0.148-0.257,0.278-0.319
	c0.109-0.053,0.237-0.05,0.358-0.042c0.885,0.054,1.619,0.59,2.474,0.707c-0.258,0.813-0.746,1.605-1.116,2.376
	c-0.067,0.145-0.147,0.297-0.294,0.36c-0.083,0.036-0.177,0.038-0.269,0.037c-0.731-0.009-1.464-0.18-2.126-0.496
	C54.162,20.679,54.113,20.653,54.092,20.606z" class="color c1"/>
</svg>