<svg version="1.1" id="图层_1" x="0px" y="0px" width="119.981px" height="75.827px" viewBox="0 0 119.981 75.827" enable-background="new 0 0 119.981 75.827" xml:space="preserve" xmlns="http://www.w3.org/2000/svg" xmlns:xlink="http://www.w3.org/1999/xlink" xmlns:xml="http://www.w3.org/XML/1998/namespace">
  <g>
    <path fill="#E53939" d="M0,65.655h10.172v10.172H0V65.655z M0,53.084v10.172h10.172V53.084H0z" class="color c1"/>
    <path fill="#E5A638" d="M18.301,65.655h10.172v10.172H18.301V65.655z M18.301,63.256h10.172V53.084H18.301V63.256z M18.301,50.686
		h10.172V40.513H18.301V50.686z M18.301,38.115h10.172V27.942H18.301V38.115z M18.301,15.371v10.173h10.172V15.371H18.301z" class="color c2"/>
    <path fill="#E5E138" d="M36.603,65.655h10.172v10.172H36.603V65.655z M36.603,63.256h10.172V53.084H36.603V63.256z M36.603,50.686
		h10.172V40.513H36.603V50.686z M36.603,38.115h10.172V27.942H36.603V38.115z M36.603,15.371v2.716v7.457h10.172v-7.457v-2.716
		V9.998H36.603V15.371z M36.603,0v8.09h10.172V0H36.603z" class="color c3"/>
    <path fill="#6EE538" d="M54.904,65.655h10.172v10.172H54.904V65.655z M54.904,63.256h10.172V53.084H54.904V63.256z M54.904,50.686
		h10.172V40.513H54.904V50.686z M54.904,38.115h10.172V27.942H54.904V38.115z M54.904,9.998v5.374v2.716v7.457h10.172v-7.457v-2.716
		V9.998H54.904z" class="color c4"/>
    <path fill="#E53939" d="M109.809,65.53h10.173v10.173h-10.173V65.53z M109.809,63.132h10.173V52.959h-10.173V63.132z
		 M109.809,40.389v10.172h10.173V40.389H109.809z" class="color c1"/>
    <path fill="#2ED8E5" d="M73.206,65.655h10.173v10.172H73.206V65.655z M73.206,63.256h10.173V53.084H73.206V63.256z M73.206,50.686
		h10.173V40.513H73.206V50.686z M73.206,27.942v10.172h10.173V27.942H73.206z" class="color c5"/>
    <path fill="#3333DD" d="M91.507,65.655h10.172v10.172H91.507V65.655z M91.507,63.256h10.172V53.084H91.507V63.256z M91.507,50.686
		h10.172V40.513H91.507V50.686z M91.507,38.115h10.172V27.942H91.507V38.115z M91.507,15.371v10.173h10.172V15.371H91.507z" class="color c6"/>
  </g>
</svg>