<svg version="1.1" id="图层_1" x="0px" y="0px" width="85.473px" height="170.193px" viewBox="0 0 85.473 170.193" enable-background="new 0 0 85.473 170.193" xml:space="preserve" xmlns="http://www.w3.org/2000/svg" xmlns:xlink="http://www.w3.org/1999/xlink" xmlns:xml="http://www.w3.org/XML/1998/namespace">
  <path fill="#CCA77F" d="M53.433,53.232c-1.488,0.129-2.994,0.379-4.495,0.737c-0.458-4.523-0.84-9.045-1.087-13.559
	C62.501,29.648,75.645,17.548,69.497,6.238C64.434-3.198,51.364-0.86,45.351,6.161c-6.881,8.791-6.31,21.668-5.224,32.306
	C18.866,52.411-4.615,68.42,0.785,96.194c4.229,21.754,26.858,33.074,47.63,30.385c0.108,8.846-0.537,18.029-3.963,26.021
	c-4.054,9.452-16.175,15.786-25.265,8.633c-10.212-8.04-3.992-23.805,9.854-22.519c3.368,0.313,8.763,3.762,7.023,8.736
	c-0.867,2.483-2.306,3.576-5.728,3.134c2.15,2.032,7.035,1.823,8.119-3.202c1.819-8.435-6.444-13.521-12.484-12.964
	c-18.801,1.732-21.533,26.944-5.959,34.251c8.391,3.937,24.793,0.477,30.674-13.033c3.862-8.875,4.723-20.313,4.654-30.498
	c5.267-1.546,10.249-4.075,14.58-7.668C94.234,97.306,90.992,49.969,53.433,53.232z M53.388,12.277
	c4.318-2.005,11.266,0.521,9.773,6.437c-1.289,5.262-6.893,8.814-10.967,11.683c-1.487,1.047-3.025,2.096-4.598,3.147
	c-0.017-0.791-0.043-1.583-0.051-2.373C47.496,24.522,45.94,15.684,53.388,12.277z M46.872,116.539
	c-26.706,1.166-48.737-28.135-27.849-54.118c3.728-4.637,12.532-10.495,21.857-17.027c0.41,3.663,0.837,7.321,1.269,10.978
	c-7.735,3.633-14.439,10.051-16.894,17.892c-0.758,2.143-2.859,9.377-0.231,20.919c0.551-6.933,1.969-16.813,2.935-19.013
	c2.474-6.418,8.146-11.902,14.744-15.127c2.191,18.428,4.401,36.815,5.349,55.416C47.66,116.491,47.269,116.522,46.872,116.539z
	 M55.018,115.035c-0.176-3.32-0.379-6.272-0.5-8.654c-0.813-15.878-3.309-31.828-5.083-47.738c2.734-0.623,5.497-0.834,8.15-0.543
	C90.571,61.721,81.696,106.189,55.018,115.035z" class="color c1"/>
</svg>