<svg version="1.1" id="图层_1" x="0px" y="0px" width="84.059px" height="229.346px" viewBox="0 0 84.059 229.346" enable-background="new 0 0 84.059 229.346" xml:space="preserve" xmlns:xml="http://www.w3.org/XML/1998/namespace" xmlns="http://www.w3.org/2000/svg" xmlns:xlink="http://www.w3.org/1999/xlink">
  <path fill="#111111" d="M17.783,84.559l10.949,139.185c0,0,4.203,5.604,13.074,5.604c0.075,0,0.365,0,0.439,0
	c8.873,0,13.077-5.604,13.077-5.604L66.271,84.559H17.783z" class="color c1"/>
  <path fill="#CECECE" d="M42.028,84.611c-7.995,0-15.235,0.906-20.538,2.371l10.639,135.29c1.235,1.177,4.396,3.571,9.679,3.571
	h0.439c5.27,0,8.427-2.382,9.682-3.575L62.565,86.982C57.265,85.518,50.025,84.611,42.028,84.611z" class="color c2"/>
  <path fill="#111111" d="M46.021,225.39c1.466-0.357,2.687-0.89,3.646-1.448l7.525-130.269l-10.808,0.5L46.021,225.39z" class="color c1"/>
  <path fill="#FFFFFF" d="M34.366,223.931c0.647,0.378,1.411,0.743,2.286,1.054L32.123,85.107c-2.547,0.261-4.932,0.612-7.098,1.051
	L34.366,223.931z" class="color c3"/>
  <ellipse fill="#111111" cx="42.028" cy="77.186" rx="29.421" ry="8.324" class="color c1"/>
  <path fill="#111111" d="M71.414,92.821c-0.745,4.412-13.617,7.922-29.386,7.922c-16.249,0-29.421-3.728-29.421-8.325
	c0-0.146,0-15.094,0-15.094c0-0.022,0.012-0.045,0.014-0.066c0.135,4.565,13.242,8.255,29.407,8.255
	c16.164,0,29.27-3.689,29.408-8.255c0.001,0.021,0.013,0.044,0.013,0.066C71.449,77.323,71.438,92.688,71.414,92.821z" class="color c1"/>
  <path fill="#CECECE" d="M68.646,81.116L68.61,92.495c-0.366,0.689-2.284,1.833-5.778,2.896c-1.231,0.374-2.658-0.262-4.282,0.068
	s-3.444,1.626-5.462,1.866c-3.19,0.378-6.876,0.614-11.06,0.614c-5.66,0-10.408-0.431-14.253-1.067
	c-1.129-0.187-2.181-1.391-3.155-1.607c-1.307-0.291-2.474,0.397-3.502,0.078c-3.368-1.046-5.248-2.174-5.663-2.899l-0.046-11.327
	c1.72,0.835,3.743,1.528,5.936,2.096c0.872,0.226,1.77,1.433,2.687,1.621c1.041,0.214,2.105-0.596,3.18-0.428
	c5.132,0.802,10.519,1.106,14.816,1.106c3.324,0,7.301-0.182,11.308-0.636c1.72-0.195,3.444,0.56,5.125,0.258
	c1.258-0.226,2.49-1.484,3.678-1.777C64.552,82.762,66.778,82.024,68.646,81.116z" class="color c2"/>
  <path fill="#FFFFFF" d="M21.014,83.12c2.2,0.588,4.581,1.05,7.006,1.401v12.384c-2.804-0.453-5.142-1.014-7.006-1.6V83.12z" class="color c3"/>
  <path fill="#111111" d="M62.918,95.547c-2.764,0.844-6.167,1.521-9.836,1.954l-0.198,0.022V84.745l0.157-0.02
	c3.669-0.403,6.96-0.984,9.782-1.728l0.218-0.058V95.51L62.918,95.547z" class="color c1"/>
  <circle fill="#111111" cx="42.029" cy="42.03" r="42.029" class="color c1"/>
  <path fill="#CECECE" d="M42.028,4.202c-20.856,0-37.827,16.97-37.827,37.828c0,20.855,16.971,37.823,37.827,37.823
	s37.825-16.968,37.825-37.823C79.854,21.172,62.886,4.202,42.028,4.202z" class="color c2"/>
  <g>
    <path fill="#111111" d="M49.538,46.823c-0.739,0-1.345,0.603-1.345,1.346c0,0.741,0.604,1.344,1.345,1.344
		c0.741,0,1.346-0.603,1.346-1.344C50.884,47.425,50.279,46.823,49.538,46.823z" class="color c1"/>
    <circle fill="#111111" cx="56.765" cy="40.94" r="1.345" class="color c1"/>
    <path fill="#111111" d="M56.765,14.225c0.74,0,1.346-0.604,1.346-1.344c0-0.742-0.604-1.345-1.346-1.345
		c-0.74,0-1.345,0.603-1.345,1.345C55.421,13.621,56.024,14.225,56.765,14.225z" class="color c1"/>
    <circle fill="#111111" cx="56.765" cy="26.91" r="1.345" class="color c1"/>
    <path fill="#111111" d="M49.538,60.854c-0.739,0-1.345,0.603-1.345,1.345c0,0.741,0.604,1.345,1.345,1.345
		c0.741,0,1.346-0.604,1.346-1.345C50.884,61.456,50.279,60.854,49.538,60.854z" class="color c1"/>
    <path fill="#111111" d="M49.538,32.793c-0.739,0-1.345,0.603-1.345,1.346c0,0.74,0.604,1.345,1.345,1.345
		c0.741,0,1.346-0.604,1.346-1.345C50.884,33.396,50.279,32.793,49.538,32.793z" class="color c1"/>
    <circle fill="#111111" cx="42.028" cy="68.999" r="1.344" class="color c1"/>
    <circle fill="#111111" cx="42.028" cy="54.969" r="1.344" class="color c1"/>
    <circle fill="#111111" cx="42.028" cy="40.94" r="1.345" class="color c1"/>
    <path fill="#111111" d="M49.538,21.452c0.741,0,1.346-0.604,1.346-1.345s-0.604-1.346-1.346-1.346
		c-0.739,0-1.345,0.604-1.345,1.346C48.193,20.85,48.799,21.452,49.538,21.452z" class="color c1"/>
    <path fill="#111111" d="M71.503,28.255c0.742,0,1.349-0.604,1.349-1.345s-0.605-1.347-1.349-1.347
		c-0.738,0-1.342,0.604-1.342,1.347C70.161,27.652,70.764,28.255,71.503,28.255z" class="color c1"/>
    <path fill="#111111" d="M71.503,39.596c-0.738,0-1.342,0.604-1.342,1.344c0,0.741,0.604,1.347,1.342,1.347
		c0.742,0,1.349-0.604,1.349-1.347C72.851,40.198,72.245,39.596,71.503,39.596z" class="color c1"/>
    <circle fill="#111111" cx="71.503" cy="54.969" r="1.344" class="color c1"/>
    <circle fill="#111111" cx="64.276" cy="62.198" r="1.344" class="color c1"/>
    <circle fill="#111111" cx="64.276" cy="34.138" r="1.345" class="color c1"/>
    <circle fill="#111111" cx="64.276" cy="48.167" r="1.345" class="color c1"/>
    <circle fill="#111111" cx="64.276" cy="20.107" r="1.345" class="color c1"/>
    <circle fill="#111111" cx="56.765" cy="68.999" r="1.344" class="color c1"/>
    <circle fill="#111111" cx="56.765" cy="54.969" r="1.344" class="color c1"/>
    <path fill="#111111" d="M27.291,25.564c-0.744,0-1.347,0.604-1.347,1.347c0,0.741,0.603,1.345,1.347,1.345
		c0.74,0,1.342-0.604,1.342-1.345S28.031,25.564,27.291,25.564z" class="color c1"/>
    <circle fill="#111111" cx="20.062" cy="34.138" r="1.345" class="color c1"/>
    <circle fill="#111111" cx="20.062" cy="62.197" r="1.344" class="color c1"/>
    <path fill="#111111" d="M27.291,14.225c0.74,0,1.342-0.604,1.342-1.344c0-0.742-0.602-1.345-1.342-1.345
		c-0.744,0-1.347,0.603-1.347,1.345C25.944,13.621,26.547,14.225,27.291,14.225z" class="color c1"/>
    <circle fill="#111111" cx="20.062" cy="48.167" r="1.345" class="color c1"/>
    <circle fill="#111111" cx="20.062" cy="20.107" r="1.345" class="color c1"/>
    <circle fill="#111111" cx="12.551" cy="26.91" r="1.345" class="color c1"/>
    <circle fill="#111111" cx="12.551" cy="40.94" r="1.345" class="color c1"/>
    <circle fill="#111111" cx="12.551" cy="54.969" r="1.344" class="color c1"/>
    <circle fill="#111111" cx="42.028" cy="26.91" r="1.345" class="color c1"/>
    <path fill="#111111" d="M34.798,60.854c-0.739,0-1.343,0.603-1.343,1.345c0,0.741,0.604,1.345,1.343,1.345
		c0.745,0,1.348-0.604,1.348-1.345C36.145,61.456,35.543,60.854,34.798,60.854z" class="color c1"/>
    <path fill="#111111" d="M34.798,46.823c-0.739,0-1.343,0.603-1.343,1.346c0,0.741,0.604,1.344,1.343,1.344
		c0.745,0,1.348-0.603,1.348-1.344C36.145,47.425,35.543,46.823,34.798,46.823z" class="color c1"/>
    <circle fill="#111111" cx="42.028" cy="12.88" r="1.344" class="color c1"/>
    <path fill="#111111" d="M34.798,32.793c-0.739,0-1.343,0.603-1.343,1.346c0,0.74,0.604,1.345,1.343,1.345
		c0.745,0,1.348-0.604,1.348-1.345C36.145,33.396,35.543,32.793,34.798,32.793z" class="color c1"/>
    <path fill="#111111" d="M34.798,21.452c0.745,0,1.348-0.604,1.348-1.345s-0.603-1.346-1.348-1.346
		c-0.739,0-1.343,0.604-1.343,1.346C33.455,20.85,34.058,21.452,34.798,21.452z" class="color c1"/>
    <path fill="#111111" d="M27.291,39.596c-0.744,0-1.347,0.604-1.347,1.344c0,0.741,0.603,1.347,1.347,1.347
		c0.74,0,1.342-0.604,1.342-1.347C28.633,40.198,28.031,39.596,27.291,39.596z" class="color c1"/>
    <path fill="#111111" d="M27.291,53.625c-0.744,0-1.347,0.603-1.347,1.346c0,0.74,0.603,1.343,1.347,1.343
		c0.74,0,1.342-0.603,1.342-1.343C28.633,54.228,28.031,53.625,27.291,53.625z" class="color c1"/>
    <path fill="#111111" d="M27.291,67.654c-0.744,0-1.347,0.604-1.347,1.346s0.603,1.344,1.347,1.344c0.74,0,1.342-0.603,1.342-1.344
		S28.031,67.654,27.291,67.654z" class="color c1"/>
  </g>
  <path fill="#111111" d="M72.773,25.276c0.991,3.236,1.527,6.674,1.527,10.229c0,19.291-15.691,34.985-34.98,34.985
	c-12.922,0-24.219-7.045-30.277-17.488C13.428,67.318,26.766,77.76,42.5,77.76c19.291,0,34.984-15.694,34.984-34.985
	C77.484,36.403,75.761,30.428,72.773,25.276z" class="color c1"/>
  <g>
    <g>
      <circle fill="#FFFFFF" cx="20.936" cy="30.367" r="7.139" class="color c3"/>
      <circle fill="#FFFFFF" cx="27.312" cy="40.135" r="3.102" class="color c3"/>
    </g>
  </g>
</svg>