<svg version="1.1" id="图层_1" x="0px" y="0px" width="253.999px" height="62.969px" viewBox="0 0 253.999 62.969" enable-background="new 0 0 253.999 62.969" xml:space="preserve" xmlns="http://www.w3.org/2000/svg" xmlns:xlink="http://www.w3.org/1999/xlink" xmlns:xml="http://www.w3.org/XML/1998/namespace">
  <path fill="#054499" d="M51.434,31.485c0,3.558-2.884,6.441-6.441,6.441s-6.441-2.884-6.441-6.441s2.884-6.441,6.441-6.441
	S51.434,27.928,51.434,31.485z M82.579,0h-0.848H35.789c-3.558,0-6.441,2.883-6.441,6.44c0,3.558,2.884,6.441,6.441,6.441h43.701
	h3.089h27.997c3.557,0,6.441,2.885,6.441,6.441c0,3.558-2.884,6.44-6.441,6.44h-1.698h-31.63h-15.16
	c-3.557,0-6.441,2.884-6.441,6.441c0,3.559,2.884,6.441,6.441,6.441h42.601c3.546,0.012,6.418,2.891,6.418,6.44
	c0,3.558-2.884,6.44-6.441,6.44H73.139c0.773,6.443,6.249,11.441,12.899,11.441h146.266c7.182,0,13.002-5.822,13.002-13.004
	L253.999,0H82.579z M19.418,0H6.441C2.884,0,0,2.883,0,6.44c0,3.558,2.884,6.441,6.441,6.441h12.977
	c3.557,0,6.441-2.884,6.441-6.441C25.859,2.883,22.975,0,19.418,0z" class="color c1"/>
</svg>