<svg version="1.1" id="图层_1" x="0px" y="0px" width="160px" height="160px" viewBox="0 0 160 160" enable-background="new 0 0 160 160" xml:space="preserve" xmlns="http://www.w3.org/2000/svg" xmlns:xlink="http://www.w3.org/1999/xlink" xmlns:xml="http://www.w3.org/XML/1998/namespace">
  <path fill="#08353F" d="M13.344,82.669H0c0.662,20.065,8.729,38.274,21.567,51.988l9.432-9.433
	C20.572,113.938,13.993,99.057,13.344,82.669 M146.654,82.669c-0.647,16.388-7.228,31.271-17.654,42.556l9.432,9.434
	c12.84-13.713,20.906-31.924,21.568-51.988L146.654,82.669L146.654,82.669z M13.344,77.331c0.648-16.388,7.228-31.269,17.655-42.555
	l-9.432-9.433C8.729,39.057,0.662,57.267,0,77.331H13.344z M125.225,129.001c-11.285,10.426-26.17,17.005-42.556,17.653V160
	c20.063-0.661,38.274-8.73,51.988-21.566L125.225,129.001z M77.331,146.654c-16.387-0.648-31.269-7.228-42.556-17.653l-9.432,9.433
	C39.056,151.27,57.266,159.339,77.331,160V146.654z M34.774,31C46.061,20.574,60.945,13.995,77.33,13.345V0.001
	c-20.063,0.661-38.275,8.73-51.988,21.566L34.774,31z M129,34.775c10.428,11.285,17.007,26.171,17.654,42.556H160
	c-0.662-20.063-8.73-38.275-21.568-51.988L129,34.775z M82.668,0v13.345c16.389,0.649,31.27,7.229,42.557,17.655l9.432-9.433
	C120.943,8.73,102.734,0.661,82.668,0" class="color c1"/>
</svg>