<svg version="1.1" id="图层_1" x="0px" y="0px" width="168.182px" height="200px" viewBox="0 0 168.182 200" enable-background="new 0 0 168.182 200" xml:space="preserve" xmlns="http://www.w3.org/2000/svg" xmlns:xlink="http://www.w3.org/1999/xlink" xmlns:xml="http://www.w3.org/XML/1998/namespace">
  <path fill="#FFFFFF" d="M160.28,48.913c-0.017,3.556-1.125,6.86-3.004,9.595c-7.138-8.997-15.912-16.655-25.859-22.503
	c3.081-2.7,7.139-4.335,11.567-4.316C152.563,31.721,160.306,39.431,160.28,48.913z M6.623,48.913
	c0.016,3.556,1.125,6.86,3.003,9.595c7.139-8.997,15.912-16.655,25.86-22.503c-3.081-2.7-7.139-4.335-11.567-4.316
	C14.34,31.721,6.597,39.431,6.623,48.913z M102.04,198.142C96.079,199.376,90.033,200,84.063,200
	c-40.491,0-74.413-28.119-82.495-68.385c-4.307-21.498,0.329-43.701,13.083-62.5c12.607-18.576,32.092-31.475,53.451-35.38
	c0.521-0.097,1.038-0.21,1.559-0.33c0.614-0.139,1.192-0.269,1.791-0.356c6.999-1.08,7.433-2.463,6.705-9.714l-0.2-1.946H76
	c-1.245,0-2.499,0.01-3.763,0.01c-2.813,0.006-5.658,0.016-8.496-0.01c-5.71-0.062-7.95-2.266-7.985-7.892l-0.01-1.135
	c-0.02-2.153-0.036-4.387,0.042-6.549c0.129-3.443,2.257-5.684,5.425-5.709C68.5,0.036,75.948,0,83.969,0
	c7.222,0,14.768,0.026,23.057,0.087c3.495,0.016,4.268,2.68,4.413,4.264c0.391,4.19,0.371,8.237-0.068,12.036
	c-0.381,3.366-2.137,4.846-5.874,4.966c-1.306,0.045-2.699,0.062-4.403,0.062c-1.177,0-2.363-0.006-3.565-0.016
	c-1.235-0.006-2.492-0.016-3.763-0.016h-1.973l-0.181,1.956c-0.702,7.433-0.288,8.729,6.989,10.148
	c35.791,6.983,61.272,32.481,68.168,68.203C175.128,144.994,145.486,189.16,102.04,198.142z M152.786,116.8
	c0.078-18.577-6.931-35.969-19.736-48.972c-12.814-13.012-30.049-20.228-48.538-20.331l-0.388-0.01
	c-37.828,0-68.73,30.524-68.905,68.038c-0.175,37.99,30.524,69.18,68.437,69.527h0.624c0,0,0,0,0.01,0
	c18.084,0,35.199-7.129,48.201-20.074C145.503,152.025,152.709,134.914,152.786,116.8z" class="color c1"/>
</svg>