<svg version="1.1" id="图层_1" x="0px" y="0px" width="228.199px" height="152.748px" viewBox="0 0 228.199 152.748" enable-background="new 0 0 228.199 152.748" xml:space="preserve" xmlns="http://www.w3.org/2000/svg" xmlns:xlink="http://www.w3.org/1999/xlink" xmlns:xml="http://www.w3.org/XML/1998/namespace">
  <path fill="#F09D00" d="M18.61,89.824c0,0,23.953,11.977,26.947-8.982c0,0-5.988,5.988-11.977,2.994c0,0-5.988-5.988-17.965,2.994
	c0,0-0.514,0.258-1.368,0.783c-15.552,9.567-18.954,30.815-7.317,44.886c5.532,6.689,13.906,13.798,26.067,17.54
	c8.852,2.724,18.269,2.822,27.529,2.661c27.701-0.481,74.853-20.959,101.8-47.906c0,0,36.227-37.647,44.912-56.888l20.959,17.965
	L213.228,0l-47.906,44.912l27.966-1.464c0,0-27.966,37.393-42.937,49.37v-35.93h-20.959v53.894c0,0-7.202,6.396-14.971,8.982V80.841
	H93.463v47.906c0,0-6.821,4.231-14.971,5.988v-35.93H57.534v41.918c0,0-27.658,6.915-46.575-15.656
	C1.6,113.901,5.144,96.802,18.078,90.095C18.253,90.004,18.431,89.914,18.61,89.824z" class="color c1"/>
</svg>