<svg version="1.1" id="图层_1" x="0px" y="0px" width="61.453px" height="85.497px" viewBox="0 0 61.453 85.497" enable-background="new 0 0 61.453 85.497" xml:space="preserve" xmlns="http://www.w3.org/2000/svg" xmlns:xlink="http://www.w3.org/1999/xlink" xmlns:xml="http://www.w3.org/XML/1998/namespace">
  <path fill="#FFFFFF" d="M61.393,81.25l-2.128-9.654c-0.119-0.567-0.422-0.993-0.908-1.275c-0.527-0.284-1.055-0.322-1.58-0.121
	l-0.303,0.121l-0.73,0.182c-0.324,0.08-0.699,0.173-1.123,0.273c-0.426,0.102-0.921,0.202-1.488,0.302
	c-0.564,0.103-1.164,0.193-1.79,0.276c-0.627,0.077-1.306,0.151-2.034,0.211c-0.729,0.06-1.457,0.091-2.188,0.091
	c-5.141,0-9.766-1.387-13.875-4.159c-4.108-2.774-7.135-6.527-9.078-11.264h23.5c0.445,0,0.851-0.151,1.215-0.455
	s0.587-0.678,0.666-1.124l1.458-6.801c0.122-0.605,0-1.154-0.362-1.639c-0.406-0.487-0.913-0.73-1.52-0.73H21.253
	c-0.121-2.754-0.121-4.877,0-6.375h29.633c1.094,0,1.741-0.527,1.943-1.58l1.457-6.922c0.121-0.566-0.019-1.093-0.426-1.578
	c-0.361-0.486-0.868-0.731-1.516-0.731H23.926c2.024-4.534,5.059-8.095,9.108-10.686c4.049-2.592,8.622-3.887,13.723-3.887
	c0.163-0.081,0.76-0.061,1.791,0.061c1.033,0.12,1.62,0.172,1.762,0.151c0.14-0.02,0.669,0.042,1.578,0.183
	c0.911,0.141,1.366,0.213,1.366,0.213l1.063,0.212c0.305,0.061,0.537,0.111,0.697,0.151l0.244,0.061
	c0.525,0.162,1.011,0.112,1.457-0.151c0.446-0.265,0.73-0.658,0.852-1.185l2.611-9.655c0.12-0.526,0.059-1.013-0.182-1.458
	c-0.365-0.486-0.77-0.79-1.216-0.911C55.058,0.466,51.129,0,47.001,0c-9.069,0-17.176,2.592-24.32,7.772
	c-7.145,5.182-12.074,12.024-14.786,20.525H1.943c-0.567,0-1.032,0.181-1.397,0.547C0.184,29.208,0,29.673,0,30.239v6.924
	c0,0.566,0.183,1.031,0.546,1.396c0.365,0.364,0.831,0.547,1.397,0.547h4.069c-0.123,1.942-0.142,4.065-0.063,6.375H1.943
	c-0.526,0-0.981,0.192-1.365,0.577C0.193,46.441,0,46.897,0,47.424v6.862c0,0.527,0.193,0.979,0.578,1.366
	c0.384,0.385,0.839,0.575,1.365,0.575h5.769c2.551,8.946,7.369,16.062,14.453,21.345c7.085,5.283,15.363,7.925,24.836,7.925
	c0.77,0,1.549-0.019,2.339-0.062c0.79-0.039,1.528-0.101,2.216-0.181c0.688-0.081,1.367-0.172,2.035-0.272
	c0.666-0.103,1.275-0.202,1.82-0.306c0.547-0.099,1.063-0.2,1.549-0.301c0.486-0.103,0.921-0.213,1.307-0.335
	c0.384-0.121,0.706-0.213,0.97-0.271c0.265-0.061,0.477-0.134,0.638-0.212l0.305-0.062c0.445-0.162,0.789-0.457,1.032-0.882
	C61.454,82.191,61.513,81.735,61.393,81.25z" class="color c1"/>
</svg>