<svg version="1.1" id="图层_1" x="0px" y="0px" width="132.844px" height="180px" viewBox="0 0 132.844 180" enable-background="new 0 0 132.844 180" xml:space="preserve" xmlns="http://www.w3.org/2000/svg" xmlns:xlink="http://www.w3.org/1999/xlink" xmlns:xml="http://www.w3.org/XML/1998/namespace">
  <polygon fill="#AE9F44" points="2.293,57.827 31.667,45.819 45.544,56.635 17.202,73.673 " class="color c1"/>
  <polygon fill="#AE9F44" points="6.731,26.61 36.105,14.604 51.431,26.547 21.577,44.173 " class="color c1"/>
  <path id="SVGID_1_" fill="#7E660C" d="M39.12,69.754l29.373-12.006c-0.328,1.532-0.74,3.977-1.218,7.327
	c-0.493,3.492-0.802,6.096-0.928,7.771L33.172,91.25c0.125-1.676,3.005-10.591,3.5-14.083C37.149,73.814,38.788,71.287,39.12,69.754
	z" class="color c2"/>
  <polygon fill="#7E660C" points="76.202,152.695 112.4,142.093 116.805,166.557 87.432,178.563 " class="color c2"/>
  <path fill="#AE9F44" d="M96.98,142.83c-4.6-0.898-9.094-3.066-13.508-6.508c-0.262-0.201-0.506-0.426-0.762-0.635
	c-0.686-0.563-1.354-1.144-2.002-1.746c-0.264-0.244-0.52-0.496-0.777-0.746c-0.596-0.586-1.172-1.193-1.733-1.814
	c-0.214-0.238-0.435-0.467-0.644-0.711c-0.373-0.434-0.727-0.885-1.082-1.336c-0.254-0.322-0.516-0.637-0.762-0.967
	c-0.365-0.492-0.709-1.006-1.055-1.516c-0.209-0.312-0.43-0.607-0.631-0.925c-0.588-0.918-1.146-1.868-1.674-2.85
	c-0.136-0.248-0.259-0.513-0.39-0.767c-0.387-0.744-0.758-1.502-1.108-2.278c-0.33-0.729-0.656-1.461-0.955-2.222
	c-2.275-5.752-3.7-12.408-4.271-19.973c-0.188-2.523-0.283-5.145-0.282-7.87l-29.375,12.007c-3.02,9.321-1.676,21.649,1.355,29.321
	c0.243,0.609,0.494,1.213,0.756,1.806c0.062,0.141,0.136,0.27,0.199,0.409c0.353,0.781,0.727,1.541,1.113,2.289
	c0.13,0.252,0.251,0.513,0.385,0.761c0.529,0.979,1.086,1.93,1.675,2.85c0.023,0.035,0.044,0.076,0.067,0.111
	c0.179,0.278,0.378,0.537,0.563,0.811c0.346,0.512,0.689,1.025,1.057,1.516c0.244,0.332,0.506,0.646,0.76,0.969
	c0.355,0.449,0.71,0.9,1.083,1.334c0.067,0.08,0.128,0.164,0.195,0.242c0.142,0.162,0.303,0.31,0.448,0.472
	c0.561,0.62,1.138,1.227,1.734,1.813c0.255,0.255,0.515,0.503,0.776,0.748c0.648,0.603,1.315,1.183,2.003,1.744
	c0.149,0.121,0.285,0.263,0.436,0.381c0.108,0.086,0.217,0.173,0.326,0.257c4.414,3.44,11.447,6.092,16.049,6.991
	c4.588,0.89,11.625,1.625,16.074-2.694l29.375-12.011C106.709,143.47,101.57,143.72,96.98,142.83z" class="color c1"/>
  <polygon fill="#AE9F44" points="31.868,87.09 66.347,72.847 93.275,93.832 63.202,110.257 " class="color c1"/>
  <polygon fill="#7E660C" points="58.535,107.923 93.275,93.832 90.982,109.951 61.608,121.957 " class="color c2"/>
  <path fill="#7E660C" d="M71.689,39.367c0.24-0.604,0.484-1.2,0.734-1.764c0.141-0.315,0.285-0.614,0.43-0.92
	c0.238-0.497,0.479-0.979,0.726-1.439c0.151-0.291,0.312-0.575,0.469-0.851c0.281-0.494,0.572-0.971,0.867-1.418
	c0.094-0.144,0.187-0.294,0.283-0.434c0.399-0.578,0.807-1.114,1.227-1.608c0.091-0.106,0.183-0.197,0.273-0.3
	c0.344-0.385,0.69-0.741,1.049-1.069c0.127-0.12,0.256-0.236,0.387-0.348c0.328-0.281,0.662-0.526,1.003-0.761
	c0.151-0.105,0.305-0.226,0.461-0.323c0.487-0.304,0.983-0.569,1.491-0.778L51.712,39.361c-0.508,0.21-1.003,0.476-1.488,0.777
	c-0.157,0.098-0.309,0.218-0.463,0.324c-0.233,0.163-0.473,0.308-0.701,0.491c-0.103,0.082-0.201,0.183-0.301,0.271
	c-0.131,0.11-0.259,0.229-0.387,0.346c-0.355,0.328-0.705,0.686-1.047,1.069c-0.091,0.103-0.185,0.195-0.274,0.302
	c-0.42,0.493-0.829,1.029-1.227,1.608c-0.096,0.138-0.188,0.289-0.283,0.434c-0.186,0.28-0.374,0.55-0.554,0.85
	c-0.108,0.179-0.21,0.385-0.316,0.568c-0.157,0.275-0.314,0.558-0.468,0.847c-0.247,0.462-0.485,0.945-0.724,1.443
	c-0.144,0.304-0.29,0.603-0.43,0.919c-0.251,0.564-0.494,1.163-0.736,1.771c-0.113,0.289-0.231,0.562-0.345,0.859
	c-0.348,0.926-1.776,4.163-2.101,5.183L70.329,43.14c0.325-1.019,0.666-1.979,1.012-2.905
	C71.456,39.933,71.575,39.659,71.689,39.367z" class="color c2"/>
  <polygon fill="#7E660C" points="63.618,70.007 97.713,62.616 95.422,78.733 66.047,90.74 " class="color c2"/>
  <polygon fill="#AE9F44" points="39.702,56.007 71.266,42.678 97.547,63.16 68.338,74.623 " class="color c1"/>
  <polygon fill="#7E660C" points="97.827,58.423 132.844,53.748 123.057,67.148 93.684,79.155 " class="color c2"/>
  <path fill="#AE9F44" d="M95.702,54.253c1.026,1.845,0.69,3.363,1.614,5.258c0.047,0.096,0.091,0.193,0.136,0.287
	c1.002,2.068,5.141,3.833,6.021,5.958l29.373-12.009c-0.337-0.813-0.687-1.626-1.039-2.433c-0.572-1.3-1.177-2.582-1.793-3.859
	c-0.048-0.092-0.087-0.188-0.13-0.278c-0.926-1.896-1.918-3.762-2.946-5.61c-0.246-0.442-0.494-0.885-0.748-1.325
	c-1.035-1.807-2.103-3.599-3.236-5.361c-0.016-0.024-0.033-0.046-0.047-0.069c-1.32-2.045-2.705-4.061-4.16-6.044
	c-0.891-1.217-1.793-2.386-2.701-3.531c-0.254-0.323-0.512-0.639-0.768-0.956c-0.717-0.888-1.438-1.752-2.164-2.595
	c-0.152-0.179-0.303-0.374-0.457-0.55c-0.07-0.083-0.145-0.157-0.217-0.24c-0.853-0.967-1.705-1.912-2.564-2.821
	c-0.057-0.059-0.113-0.113-0.172-0.173c-0.805-0.847-1.617-1.663-2.434-2.459c-0.281-0.271-0.563-0.533-0.843-0.8
	c-0.608-0.576-1.221-1.141-1.834-1.688c-0.313-0.281-0.627-0.557-0.94-0.829c-0.617-0.533-1.24-1.053-1.863-1.561
	c-0.201-0.162-0.396-0.341-0.6-0.501c-0.195-0.156-0.394-0.311-0.59-0.463C89.529,0.973,79.747-1.845,71.259,1.167
	c-0.327,0.114-0.653,0.239-0.975,0.37L40.908,13.546c0.322-0.132,3.715,1.555,4.043,1.44c8.488-3.013,11.151-1.69,22.219,6.938
	c0.4,0.309,0.791,0.64,1.188,0.96c0.623,0.51,1.25,1.03,1.869,1.565c0.313,0.272,0.537,0.537,0.851,0.818
	c0.612,0.548,1.313,1.123,1.924,1.7c0.278,0.264,0.562,0.524,0.838,0.795c0.818,0.797,3.224,2.481,4.03,3.328
	c0.057,0.059,0.115,0.112,0.17,0.171c0.861,0.91,1.761,1.777,2.607,2.744c0.229,0.259,0.453,0.53,0.681,0.793
	c0.725,0.843,0.688,2.752,1.403,3.637c0.258,0.317,0.517,0.635,0.771,0.957c0.906,1.146,1.81,2.313,2.701,3.531
	c1.452,1.982,3.305,2.455,4.625,4.5c1.147,1.783,3.075,3.668,4.125,5.5C95.206,53.365,95.454,53.807,95.702,54.253z" class="color c1"/>
  <path fill="#E3DFB0" d="M71.223,21.608c6.353,4.948,12.396,11.324,18.148,19.166c5.748,7.842,10.449,16.169,14.1,24.982
	l-9.787,13.398C89.48,70.07,85.428,62.657,81.527,56.93c-3.911-5.732-8.063-10.306-12.479-13.746
	c-6.023-4.691-11.219-6.151-15.59-4.328c-4.38,1.799-7.973,7.073-10.758,15.785l25.637,19.98L66.047,90.74L39.12,69.754
	c-0.332,1.533-0.741,3.978-1.219,7.328c-0.495,3.492-0.804,6.096-0.929,7.771L63.9,105.837l-2.292,16.119l-25.637-19.979
	c-0.004,10.896,1.521,20.172,4.552,27.846c3.025,7.646,7.555,13.816,13.576,18.508c4.414,3.441,8.906,5.607,13.508,6.508
	c4.588,0.889,9.727,0.641,15.418-0.734l4.406,24.459c-5.045,1.879-10.937,1.922-17.668,0.101
	c-6.734-1.808-13.212-5.146-19.449-10.006c-11.069-8.628-19.622-20.099-25.646-34.418c-6.033-14.33-9.139-30.429-9.344-48.351
	L0,73.943l2.293-16.116l13.876,10.815c0.114-1.688,0.432-4.282,0.929-7.773c0.478-3.352,0.876-5.803,1.218-7.327L4.44,42.728
	L6.731,26.61l15.325,11.944c4.732-13.917,11.332-22.392,19.827-25.381C50.372,10.161,60.155,12.98,71.223,21.608z" class="color c3"/>
</svg>