<svg version="1.1" id="图层_1" x="0px" y="0px" width="161.393px" height="120.489px" viewBox="0 0 161.393 120.489" enable-background="new 0 0 161.393 120.489" xml:space="preserve" xmlns="http://www.w3.org/2000/svg" xmlns:xlink="http://www.w3.org/1999/xlink" xmlns:xml="http://www.w3.org/XML/1998/namespace">
  <path fill="#FFABAB" d="M145.912,59.269c0-29.173-28.906-52.823-64.563-52.823c-9.945,0-19.354,1.852-27.767,5.138
	C48.648,4.351,39.501,0.835,30.833,3.544l5.573,17.83c-10.937,8.69-18.135,20.514-19.401,33.708
	c-2.844,2.521-6.762,5.452-11.109,7.12c-1.505,0.577-2.482,2.055-2.449,3.666c0.107,5.176,1.438,16.195,10.122,24.057
	c0.982,0.889,2.356,1.244,3.662,1.019c2.374-0.409,6.317-1.36,9.545-3.462c4.064,5.252,9.245,9.861,15.245,13.644l5.225,19.188
	h23.886l1.369-8.722c2.894,0.324,5.845,0.502,8.849,0.502c3.162,0,6.268-0.195,9.309-0.555l1.375,8.774h23.886l5.302-19.513
	C136.249,91.128,145.912,76.126,145.912,59.269z" class="color c1"/>
  <g>
    <path fill="#FFFFFF" d="M79.302,5.221c-1.079,0-2.15,0.026-3.217,0.069c34.11,1.417,61.234,24.494,61.234,52.755
		c0,16.857-9.663,31.858-24.691,41.53l-5.302,19.514h6.546l5.302-19.514c15.028-9.672,24.692-24.673,24.692-41.53
		C143.866,28.872,114.96,5.221,79.302,5.221z" class="color c2"/>
    <path fill="#FFFFFF" d="M82.064,110.314c-1.984,0.235-3.999,0.392-6.037,0.478c1.085,0.046,2.176,0.077,3.274,0.077
		c0.953,0,1.898-0.023,2.841-0.058L82.064,110.314z" class="color c2"/>
  </g>
  <path fill="#2F3C72" d="M160.057,39.291c-0.836-0.165-1.675,0.328-1.903,1.149c-0.535,1.914-1.382,3.833-2.444,5.114
	c-0.447-1.834-1.648-3.896-3.307-4.906c-1.364-0.83-2.847-0.847-4.172-0.05c-0.874,0.522-1.558,1.4-1.93,2.47
	c-0.693,2.002-0.334,3.894,1.014,5.325c0.888,0.945,2.144,1.599,3.514,1.896c-0.431,0.369-0.903,0.669-1.366,0.882
	c-1.308,0.603-2.924,0.793-4.656,0.578c-3.809-26.941-31.724-47.928-65.504-47.928c-9.498,0-18.662,1.63-27.259,4.846
	C46.495,1.333,37.122-1.748,28.369,0.984l-1.336,0.418L32.74,19.66c-10.981,9.005-17.743,20.853-19.117,33.509
	c-3.464,3.007-7.008,5.249-10.275,6.504c-2.047,0.784-3.392,2.794-3.347,5c0.122,5.895,1.658,16.988,10.583,25.067
	c1.276,1.152,3.085,1.662,4.837,1.358c2.457-0.422,5.894-1.281,8.977-3.008c3.905,4.814,8.725,9.077,14.346,12.687l5.35,19.712
	h26.235l1.354-8.588c5.289,0.506,10.449,0.487,15.703-0.045l1.357,8.633h26.235l5.429-20.046
	c15.806-10.358,24.858-25.783,24.858-42.398c0-0.979-0.036-1.953-0.099-2.92c0.325,0.023,0.659,0.037,0.999,0.037
	c1.489,0,3.108-0.254,4.683-0.978c1.937-0.891,3.465-2.405,4.313-4.172c3.611-1.393,5.406-5.971,6.168-8.649
	C161.594,40.432,161.006,39.478,160.057,39.291z M118.417,98.399l-0.475,0.305l-5.176,18.986H91.229l-1.394-8.93l-1.389,0.164
	c-5.957,0.705-11.83,0.726-17.836,0.052l-1.382-0.154l-1.387,8.868H46.304l-5.101-18.668l-0.483-0.305
	c-5.933-3.74-10.939-8.221-14.884-13.317l-0.79-1.02l-1.081,0.703c-3.092,2.017-6.977,2.906-9.019,3.257
	c-0.913,0.161-1.842-0.096-2.485-0.677C4.316,80.292,2.912,70.058,2.8,64.615c-0.021-1.03,0.602-1.967,1.551-2.33
	c3.759-1.442,7.641-3.925,11.537-7.379l0.412-0.365l0.053-0.548c1.188-12.389,7.893-24.018,18.877-32.747l0.752-0.597L30.555,3.288
	c7.519-1.753,15.349,1.298,19.825,7.86l0.628,0.921l1.037-0.405c8.563-3.346,17.734-5.043,27.257-5.043
	c34.829,0,63.164,23.069,63.164,51.424C142.466,73.855,133.7,88.563,118.417,98.399z M152.573,47.151
	c-1.104-0.001-2.237-0.387-2.843-1.029c-0.308-0.326-0.671-0.885-0.295-1.97c0.113-0.323,0.298-0.589,0.502-0.712
	c0.101-0.06,0.194-0.106,0.317-0.106c0.11,0,0.243,0.04,0.421,0.146c1.095,0.667,1.963,2.713,1.904,3.597
	C152.58,47.103,152.577,47.126,152.573,47.151z M34.326,47.151c0,2.073-1.681,3.755-3.754,3.755s-3.754-1.682-3.754-3.755
	s1.681-3.754,3.754-3.754S34.326,45.078,34.326,47.151z" class="color c3"/>
</svg>