<svg version="1.1" id="图层_1" x="0px" y="0px" width="152.402px" height="142.158px" viewBox="0 0 152.402 142.158" enable-background="new 0 0 152.402 142.158" xml:space="preserve" xmlns="http://www.w3.org/2000/svg" xmlns:xlink="http://www.w3.org/1999/xlink" xmlns:xml="http://www.w3.org/XML/1998/namespace">
  <polygon fill="#C79A45" points="146.504,98.945 124.375,137.109 45.469,137.109 25.479,122.51 14.053,85.381 20.117,42.539 
	50.469,11.475 87.246,3.623 122.588,20.039 146.504,54.316 " class="color c1"/>
  <path fill="#4D2B2A" d="M125.977,15.488L88.506,0L45.107,6.152L8.203,42.373L0,86.113l15.029,43.057l17.773,12.988h87.48
	l14.355-8.242l17.764-33.105V51.943L125.977,15.488z M144.209,97.393l-21.191,36.523H47.5l-19.141-13.975L17.422,84.404
	l5.811-41.006l29.053-29.727l35.195-7.52l33.828,15.713l22.9,32.813V97.393z" class="color c2"/>
</svg>