<svg version="1.1" id="图层_1" x="0px" y="0px" width="64.229px" height="91.859px" viewBox="0 0 64.229 91.859" enable-background="new 0 0 64.229 91.859" xml:space="preserve" xmlns="http://www.w3.org/2000/svg" xmlns:xlink="http://www.w3.org/1999/xlink" xmlns:xml="http://www.w3.org/XML/1998/namespace">
  <path fill="#FFFFFF" d="M41.42,12.401c-0.421-0.046-0.791-0.086-1.097-0.128c0.021-2.187,0.116-11.571,0.116-11.571l0.007-0.499
	l-8.479-0.085l-0.121,12.031l-4.317-0.043l0.12-12.021L19.2,0.001l-0.121,12.09L0.71,11.904L0.573,25.328l5.447,0.056l-0.42,41.658
	l-5.464-0.055L0,80.533l18.411,0.186L18.3,91.615l8.492,0.088l0.111-10.883l4.321,0.045l-0.109,10.908l8.441,0.086l0.11-10.965
	c5.519-0.141,9.895-0.852,13.367-2.172c7.261-2.758,10.919-8.383,11.183-17.195c0.272-9.105-4.609-13.609-8.751-15.785
	c-1.17-0.616-2.214-1.107-2.921-1.434c0.698-0.319,1.697-0.806,2.747-1.442c4.014-2.437,5.85-6.489,5.956-13.138
	C61.58,14.636,46.933,13.012,41.42,12.401z M41.398,59.321c-0.098,4.941-3.083,6.811-4.853,7.48
	c-0.554,0.211-0.957,0.291-0.987,0.305c-0.001,0-0.002,0-0.002,0l-8.913-0.062L26.8,51.297c1.611,0.018,6.633,0.068,7.705,0.148
	C35.224,51.498,41.541,52.166,41.398,59.321z M38.537,32.76c-0.098,4.573-2.183,6.042-3.416,6.512
	c-0.407,0.154-0.702,0.191-0.712,0.194l0,0l-7.481-0.076l0.137-13.479l6.855,0.119C34.114,26.048,38.67,26.493,38.537,32.76z" class="color c1"/>
</svg>