<svg version="1.1" id="图层_1" x="0px" y="0px" width="140.566px" height="116.855px" viewBox="0 0 140.566 116.855" enable-background="new 0 0 140.566 116.855" xml:space="preserve" xmlns="http://www.w3.org/2000/svg" xmlns:xlink="http://www.w3.org/1999/xlink" xmlns:xml="http://www.w3.org/XML/1998/namespace">
  <path fill="#C22A3B" d="M35.328,17.292c-4.698,1.725-8.858,4.434-12.664,7.718c-5.824,5.029-10.112,11.172-13.46,18.024
	c-0.095,0.197-0.178,0.401-0.251,0.611c-0.003,0.003-0.006,0.01-0.006,0.013c-0.263,0.527-0.654,1.709-1.104,3.242
	c-2.777,9.444-4.62,17.466-4.376,27.306c0.788,10.121,4.774,24.507,19.781,30.008c4.712,2.122,9.781,3.34,14.933,3.736l14.393,1.107
	c0,0-18.154,3.046-35.273-5.574c-4.997-2.516-9.088-6.499-11.672-11.461c-2.08-3.995-3.502-8.586-3.821-11.132
	c-0.815-5.309-0.793-7.359-0.318-12.731c0.016-0.191,0.512-3.336,0.458-3.555c0.477-6.006,2.989-13.947,3.854-16.554
	c0.013-0.032,0.022-0.064,0.032-0.092c0.08-0.258,0.162-0.516,0.248-0.773c1.712-5.223,4.099-10.058,7.343-14.545
	c5.178-7.174,11.372-13.033,19.647-16.5c4.876-2.043,9.956-3.342,15.198-3.584c2.912-0.137,5.872,0.547,8.794,0.955
	c5.143,0.719,9.905,2.508,14.351,5.191c0.035,0.021,0.073,0.039,0.112,0.054c0.639,0.241,1.263-0.394,1.114-1.061
	c-0.027-0.119-0.06-0.236-0.103-0.349c-0.102-0.261-0.452-0.433-0.703-0.624c-2.015-1.556-4.225-2.56-6.617-3.625
	c-3.574-1.591-7.219-2.444-10.926-3.033c-3.31-0.525-6.821-0.516-10.15-0.057c-3.924,0.541-7.804,1.467-11.531,3.103
	c-3.682,1.62-7.152,3.466-10.411,5.821c-5.583,4.036-10.147,9.004-13.657,14.873c-1.938,3.237-3.348,6.786-5.038,10.172
	c-0.544,1.092-1.222,2.117-1.897,3.266c-1.349-1.187-0.904-2.301-0.729-3.447c0.115-0.754,0.181-1.856-0.245-2.282
	c-0.933-0.926-0.691-1.751-0.188-2.569c2.753-4.497,5.401-9.071,8.39-13.406c3.211-4.663,7.473-8.39,12.155-11.509
	c3.011-2.005,6.267-3.749,9.618-5.105c3.301-1.337,6.802-2.419,10.312-2.935c6.795-1.003,13.648-0.936,20.335,0.942
	c2.887,0.808,5.872,1.579,8.488,2.973c3.854,2.056,7.725,4.294,11.028,7.11c3.762,3.211,7.374,6.814,10.198,10.844
	c3.377,4.819,5.859,10.261,8.702,15.446c0.743,1.351,1.312,2.796,2.024,4.168c0.039-0.873,0.294-1.716,0.36-2.579
	c0.261-3.409-1.48-6.251-2.912-9.074c-1.763-3.469-4.007-6.697-6.05-10.026c-2.32-3.778-5.36-6.926-8.53-9.994
	C79.425,10.834,73.461,7.19,66.85,4.656c-3.03-1.162-6.254-1.964-9.466-2.486c-8.89-1.451-17.715-1.273-26.306,1.875
	c-0.885,0.325-1.814,0.544-2.68,0.917c-1.948,0.843-3.867,1.751-5.799,2.629c-0.086-0.15-0.172-0.299-0.258-0.446
	c0.617-0.442,1.19-0.98,1.865-1.308c1.808-0.882,3.6-1.849,5.5-2.46c3.555-1.143,7.149-2.231,10.799-3.005
	c2.152-0.458,4.437-0.328,6.662-0.356c5.089-0.06,10.172-0.019,15.102,1.55c1.458,0.465,3.027,0.624,4.434,1.197
	c2.384,0.971,4.66,2.206,7.018,3.246c6.149,2.712,10.968,7.25,15.529,11.926c3.297,3.374,6.155,7.324,8.523,11.413
	c3.167,5.471,5.662,11.327,8.457,17.015c2.705,5.5,5.293,11.06,8.186,16.458c1.283,2.397,3.097,4.535,4.835,6.655
	c3.829,4.663,8.256,8.644,13.769,11.242c2.091,0.987,4.29,1.735,6.397,2.693c0.477,0.216,0.77,0.84,1.149,1.279
	c-0.452,0.283-0.878,0.617-1.359,0.834c-0.271,0.121-0.627,0.048-0.945,0.051c-5.474,0.064-10.895-0.21-15.933-2.686
	c-2.683-1.318-5.408-2.581-7.97-4.109c-2.126-1.27-2.826-1.321-4.742,0.353c-1.423,1.248-2.814,2.699-4.494,3.444
	c-2.19,0.971-4.621,1.493-7.002,1.913c-3.087,0.541-4.898,2.082-5.64,5.108c-0.162,0.668-0.598,1.486-1.155,1.801
	c-1.216,0.684-2.549,1.334-3.908,1.56c-2.696,0.449-4.889-0.64-7.164-2.225c-2.887-2.015-4.039-6.28-3.065-9.185
	c1.302-3.899,1.951-7.887,2.473-11.932c0.837-6.496-0.194-12.785-2.378-18.855c-1.025-2.845-2.734-5.452-4.201-8.132
	c-3.237-5.901-8.673-8.982-14.736-11.07c-3.733-1.289-7.667-0.793-11.518-0.385c-1.305,0.137-3.963,1.018-3.963,1.018
	c-7.316,2.855-12.627,9.138-16.843,17.292c-0.901,2.027-1.782,4.074-2.511,6.168c-1.808,5.188-2.728,10.532-2.543,16.592
	c-0.468,3.893,0.821,7.989,2.868,11.792c1.486,2.766,3.711,5.013,6.703,6.305l0.087,0.037c2.067,0.891,4.273,1.413,6.52,1.543
	c9.181,1.392,18.216,2.058,27.05,1.718c2.489-0.096,4.988,0.223,7.353,1.007c0.207,0.069,0.414,0.141,0.619,0.216
	c0.535,0.197,1.06,0.414,1.569,0.663c6,2.947,7.12,9.987,4.777,16.235c-0.955,2.546-3.443,4.632-3.819,5.092
	c1.91-3.183,1.91-3.183,2.546-4.456c0.221-0.442,1.078-3.779,0.953-4.27c-0.135-0.53-0.856-0.606-1.098-0.116l-0.406,0.821
	c-1.2,2.502-3.1,4.259-5.506,5.528c-3.702,1.957-7.705,2.126-11.76,1.897c-0.627-0.035-2.887-0.201-3.507-0.36l8.297-2.954
	c1.674-0.596,3.023-1.923,3.518-3.63c0.204-0.704,0.248-1.39,0.092-1.933c-0.611-2.117-2.212-3.205-4.87-3.269
	c-1.483-0.032-2.973,0.045-4.456-0.035c-1.244-0.067-2.476-0.095-3.657,0.051c-3.908,0.051-32.776-0.025-41.188-12.884v-0.003
	c-0.105-0.283-0.293-0.592-0.426-0.863c-1.092-2.193-2.651-4.265-3.227-6.585c-1.814-7.304-1.665-14.73-0.843-22.155
	c1.16-5.25,2.78-10.343,4.903-15.263C17,39.553,21.223,33.335,26.611,28.215c0.247-0.235,0.496-0.467,0.747-0.697
	c2.123-1.941,4.564-3.679,7.139-4.949c5.077-2.502,10.516-3.772,16.248-3.727c5.544,0.041,10.936,0.882,15.809,3.546
	c3.027,1.658,5.774,3.854,8.533,5.958c1.327,1.015,2.368,2.397,3.584,3.565c0.04,0.038,0.084,0.071,0.133,0.099
	c0.493,0.293,1.156-0.028,1.193-0.601c0.006-0.09-0.005-0.17-0.04-0.237c-0.729-1.337-1.4-2.759-2.393-3.886
	c-3.09-3.517-6.592-6.493-10.869-8.609c-4.933-2.435-10.169-3.581-15.535-4.061C45.28,14.332,39.855,14.937,35.328,17.292z" class="color c1"/>
</svg>