<svg version="1.1" id="图层_1" x="0px" y="0px" width="129.947px" height="121.869px" viewBox="0 0 129.947 121.869" enable-background="new 0 0 129.947 121.869" xml:space="preserve" xmlns="http://www.w3.org/2000/svg" xmlns:xlink="http://www.w3.org/1999/xlink" xmlns:xml="http://www.w3.org/XML/1998/namespace">
  <path fill="#043767" d="M129.947,60.935c0,33.715-27.57,60.934-61.638,60.934c-2.106,0-4.215-0.176-6.322-0.351V0.351
	C64.095,0.176,66.203,0,68.31,0C102.377,0,129.947,27.219,129.947,60.935z M56.543,113.966v-31.08H37.228
	C42.847,100.27,53.735,111.508,56.543,113.966z M33.54,60.759c0,5.443,0.702,10.713,1.757,15.453h21.246V45.306H35.297
	C34.242,50.048,33.54,55.14,33.54,60.759z M30.028,38.633c6.496-21.951,20.896-34.594,21.6-35.297
	c0.175-0.175,1.054-1.053,2.283-1.932C31.258,3.688,12.468,18.438,4.39,38.633H30.028z M26.866,60.759
	c0-5.443,0.704-10.537,1.581-15.453H2.106C0.878,50.222,0,55.316,0,60.759c0,5.268,0.702,10.537,2.106,15.453h26.165
	C27.395,71.472,26.866,66.203,26.866,60.759z M56.543,8.078c-0.176,0.176-0.35,0.176-0.35,0.352
	c-0.176,0.175-12.819,11.238-18.966,30.38H56.72V8.078H56.543z M4.39,82.886c8.078,20.017,26.692,34.768,48.817,37.227l-0.525-0.526
	c-0.879-0.703-15.806-14.049-22.653-36.7H4.39z" class="color c1"/>
</svg>