<svg version="1.1" id="图层_1" x="0px" y="0px" width="126.937px" height="139.876px" viewBox="0 0 126.937 139.876" enable-background="new 0 0 126.937 139.876" xml:space="preserve" xmlns="http://www.w3.org/2000/svg" xmlns:xlink="http://www.w3.org/1999/xlink" xmlns:xml="http://www.w3.org/XML/1998/namespace">
  <path fill="#9742EA" d="M126.699,85.4c0-19.549-21.15-15.345-21.15-26.354c0-3.67,3.002-6.071,3.002-14.745
	c0-16.68-16.613-17.48-22.951-22.684C72.425,6.165,67.186,0,52.508,0C36.495,0,16.746,10.408,16.746,24.819
	C25.62,5.204,46.236,7.406,46.236,7.406c20.233,1.001,24.486,13.144,30.958,16.88c-1.868-0.334-5.137-1.401-11.209-4.737
	C52.107,9.541,42.9,10.675,42.9,10.675c-15.946,0.667-18.615,5.404-18.615,5.404c0.467,5.848,9.706,7.773,22.325,9.86
	c13.699,2.266,31.208,6.538,33.937,13.269c-5.003-7.004-26.839-8.652-41.183-10.92C25.02,26.02,23.485,17.614,23.485,17.614
	s-2.736,0.467-2.869,4.47c-0.133,4.003,8.14,17.547,36.095,16.88c27.955-0.667,29.49,21.417,29.49,21.417
	c1.123,11.436,4.371,17.044,10.542,18.214c14.812,2.202,15.412,6.672,15.412,6.672c-4.28-1.777-5.548-0.398-11.809-1.801
	C80.73,77.661,86.979,64.417,78.339,55.367c-13.377-12.643-18.464-6.14-36.272-10.232c-19.148-6.205-23.985-18.615-23.985-18.615
	c0,12.21,14.868,20.209,19.115,22.117c14.311,6.205,14.611,18.515,14.611,18.515c0.1,5.304-1.101,9.513-1.101,12.41
	c0.364,6.798,2.888,9.683,5.765,10.712c-0.055,0.452-0.094,0.883-0.094,1.264c0.134,11.809,10.809,14.945,15.464,15.078
	c4.656,0.133,9.038-2.836,9.139-9.191c0.1-6.355-6.305-5.854-7.406-4.353c3.052-0.751,2.902,2.502,2.902,2.502
	s0.1,6.555-7.656,6.455c-7.756-0.1-6.955-10.458-6.955-10.458c-0.003-0.308,0.013-0.666,0.043-1.061
	c2.183-0.424,3.81-1.241,3.81-1.241c-1.381,0.23-2.611,0.334-3.722,0.343c0.665-6.374,4.544-18.692,4.823-21.86
	c0.377-6.929-4.203-10.808-6.805-13.21c1.384-0.2,3.703,1.001,6.705,3.102c-0.2,4.003,3.503,22.618,13.611,31.725
	c10.108,9.107,24.069,8.006,24.269,18.514c0.2,10.508-14.796,24.236-15.697,26.137c0.45,4.053,6.505,5.855,8.657,5.855
	c2.152,0,5.655-0.851,6.655-2.102c-4.553-1.201-3.986-4.07-3.986-4.07c0-3.937,6.857-16.563,6.857-19.215
	c13.611,0,15.879-10.809,15.779-17.214C128.367,90.671,126.699,85.4,126.699,85.4z M61.315,68.804
	c-0.148,5.847-3.443,14.327-4.562,19.792c-3.974-1.959-4.378-6.293-4.445-9.034c-0.2-3.903,0.601-4.604,1.001-11.809
	c0.4-7.206-4.504-13.41-4.504-13.41C63.216,60.247,61.315,68.804,61.315,68.804z M81.03,27.221c0,0,12.41,5.004,16.513,17.714
	c1.824,4.303,0,14.011,0,14.011s-4.203-5.171-4.203-11.309C93.34,41.499,86.268,32.359,81.03,27.221z M77.127,70.255
	c3.469,8.34,6.272,13.611,11.809,16.48c5.538,2.869,21.817,5.671,24.419,9.874c1.768,2.135,7.139,11.642-5.571,16.613
	c0,0,1.134-5.338,0.901-6.972c0,0,0.3-7.272-8.807-12.443c-4.631-2.427-12.47-2.204-18.919-11.326
	C78.528,79.181,76.968,73.643,77.127,70.255z" class="color c1"/>
  <path fill="#9742EA" d="M26.348,100.172c0,0-3.464,2.575-3.864,7.78c-0.4,5.204,2.135,6.271,2.068,12.943c0,0,2.535-0.65,6.238-0.55
	s24.97,4.203,31.074,13.361c0,0,11.259-13.26,13.561-18.064c-0.1-1.501-7.909-7.425-19.716-7.756
	c-9.507-0.267-13.811,2.452-13.811,2.452C36.17,105.74,29.684,99.872,26.348,100.172z" class="color c1"/>
  <path fill="#9742EA" d="M10.875,41.633c0.064,3.979,1.601,7.106,1.601,7.106c2.852,5.476,3.963,8.607,3.903,10.608
	c0,0,0.367,7.056-5.654,8.056C1.118,68.954,0.639,72.353,0.567,76.46C0.117,75.159,0,72.657,0,72.657
	c0-8.14,14.144-5.204,14.144-14.344c-0.067-6.901-5.183-8.88-4.937-16.546c0.334-10.403,5.738-13.561,5.738-13.561
	C13.555,30.584,10.799,36.93,10.875,41.633z M12.476,41.699c0.194,7.039,7.539,17.814,7.539,21.543
	c-0.334,3.329-4.203,4.811-8.94,5.562c-4.737,0.751-8.54,4.854-8.54,9.124c0,4.27,3.403,13.01,3.403,13.01
	c0.6,6.605-1.268,6.005-3.403,7.339c9.074,0.133,8.206-6.739,8.206-6.739c0-4.07-2.446-9.448-0.712-12.25
	c3.047-5.457,13.255-3.98,13.255-3.98c6.255,0.66,11.209,3.086,13.811,2.819c2.602-0.267,6.005-5.604,6.405-6.005
	s1.068,6.805,1.068,6.805c4.07-4.804,1.735-10.125,1.735-10.125s-7.539,6.589-10.742,5.521c-3.202-1.067-2.736-5.204-2.736-5.204
	s-1.601,0-2.135-0.317c-0.534-0.317-0.534-2.552-0.534-2.552s-1.001-0.267-1.668-1.001c-0.667-0.734-0.4-3.653-0.4-3.653
	c-2.152-0.45-3.653-1.051-3.903-2.085c-0.25-1.034,0.901-4.937,0.901-6.772c0-5.404-8.34-18.414-8.34-24.536
	C14.869,32.59,12.462,36.841,12.476,41.699z M11.576,83.766c-0.239,2.01,0.864,6.392,0.7,12.71
	c-0.094,3.602-2.902,4.203-2.902,4.203s2.602,0.3,3.503,0s0.901-7.306,0.901-15.212s7.506-10.158,7.506-10.158
	C14.878,75.859,11.94,80.699,11.576,83.766z" class="color c1"/>
</svg>