<svg version="1.1" id="图层_1" x="0px" y="0px" width="102.639px" height="162.742px" viewBox="0 0 102.639 162.742" enable-background="new 0 0 102.639 162.742" xml:space="preserve" xmlns="http://www.w3.org/2000/svg" xmlns:xlink="http://www.w3.org/1999/xlink" xmlns:xml="http://www.w3.org/XML/1998/namespace">
  <path fill="#151C35" d="M12.671,41.023h77.297V11.158H12.671V41.023z M16.545,15.033h69.549v22.115H16.545V15.033z M92.555,0H10.086
	C4.523,0,0,4.523,0,10.084V47.35v4.039v80.516c0,5.563,4.523,10.085,10.086,10.085h7.059l10.944,20.753l7.425-20.753h57.041
	c5.56,0,10.084-4.522,10.084-10.085V51.389V47.35V10.084C102.639,4.523,98.114,0,92.555,0z M98.765,131.904
	c0,3.425-2.787,6.211-6.21,6.211H33.217l-0.778,1.149l-5.032,13.883l-7.217-13.692l-0.397-1.34h-9.706
	c-3.426,0-6.212-2.786-6.212-6.211V51.389h94.891V131.904z M3.874,47.35V10.084c0-3.424,2.786-6.21,6.212-6.21h82.469
	c3.423,0,6.21,2.786,6.21,6.21V47.35H3.874z M78.299,129.539h7.443c2.33,0,4.226-1.896,4.226-4.227V98.541
	c0-2.33-1.896-4.227-4.226-4.227h-7.443c-2.33,0-4.226,1.896-4.226,4.227v26.771C74.073,127.643,75.969,129.539,78.299,129.539z
	 M77.947,98.541c0-0.195,0.157-0.353,0.352-0.353h7.443c0.193,0,0.352,0.157,0.352,0.353v26.771c0,0.193-0.158,0.353-0.352,0.353
	h-7.443c-0.194,0-0.352-0.159-0.352-0.353V98.541z M53.936,78.65h7.443c2.329,0,4.225-1.896,4.225-4.227v-7.441
	c0-2.331-1.896-4.228-4.225-4.228h-7.443c-2.331,0-4.227,1.896-4.227,4.228v7.441C49.709,76.754,51.604,78.65,53.936,78.65z
	 M53.583,66.982c0-0.195,0.157-0.354,0.353-0.354h7.443c0.193,0,0.352,0.158,0.352,0.354v7.441c0,0.194-0.158,0.352-0.352,0.352
	h-7.443c-0.195,0-0.353-0.157-0.353-0.352V66.982z M53.936,102.823h7.443c2.329,0,4.225-1.896,4.225-4.227v-7.442
	c0-2.33-1.896-4.226-4.225-4.226h-7.443c-2.331,0-4.227,1.896-4.227,4.226v7.442C49.709,100.928,51.604,102.823,53.936,102.823z
	 M53.583,91.154c0-0.193,0.157-0.352,0.353-0.352h7.443c0.193,0,0.352,0.158,0.352,0.352v7.442c0,0.194-0.158,0.353-0.352,0.353
	h-7.443c-0.195,0-0.353-0.158-0.353-0.353V91.154z M61.701,112.394h-7.443c-2.33,0-4.226,1.896-4.226,4.226v7.441
	c0,2.332,1.896,4.227,4.226,4.227h7.443c2.33,0,4.226-1.895,4.226-4.227v-7.441C65.927,114.289,64.031,112.394,61.701,112.394z
	 M62.052,124.061c0,0.194-0.156,0.353-0.351,0.353h-7.443c-0.194,0-0.353-0.158-0.353-0.353v-7.441c0-0.193,0.158-0.352,0.353-0.352
	h7.443c0.194,0,0.351,0.158,0.351,0.352V124.061z M35.255,78.65h7.441c2.331,0,4.228-1.896,4.228-4.227v-7.441
	c0-2.331-1.896-4.228-4.228-4.228h-7.441c-2.33,0-4.226,1.896-4.226,4.228v7.441C31.029,76.754,32.925,78.65,35.255,78.65z
	 M34.903,66.982c0-0.195,0.157-0.354,0.352-0.354h7.441c0.194,0,0.354,0.158,0.354,0.354v7.441c0,0.194-0.159,0.352-0.354,0.352
	h-7.441c-0.194,0-0.352-0.157-0.352-0.352V66.982z M35.255,102.823h7.441c2.331,0,4.228-1.896,4.228-4.227v-7.442
	c0-2.33-1.896-4.226-4.228-4.226h-7.441c-2.33,0-4.226,1.896-4.226,4.226v7.442C31.029,100.928,32.925,102.823,35.255,102.823z
	 M34.903,91.154c0-0.193,0.157-0.352,0.352-0.352h7.441c0.194,0,0.354,0.158,0.354,0.352v7.442c0,0.194-0.159,0.353-0.354,0.353
	h-7.441c-0.194,0-0.352-0.158-0.352-0.353V91.154z M43.02,112.394h-7.442c-2.33,0-4.226,1.896-4.226,4.226v7.441
	c0,2.332,1.896,4.227,4.226,4.227h7.442c2.33,0,4.227-1.895,4.227-4.227v-7.441C47.246,114.289,45.35,112.394,43.02,112.394z
	 M43.371,124.061c0,0.194-0.158,0.353-0.352,0.353h-7.442c-0.194,0-0.353-0.158-0.353-0.353v-7.441c0-0.193,0.158-0.352,0.353-0.352
	h7.442c0.193,0,0.352,0.158,0.352,0.352V124.061z M16.574,78.65h7.44c2.33,0,4.227-1.896,4.227-4.227v-7.441
	c0-2.331-1.896-4.228-4.227-4.228h-7.44c-2.33,0-4.227,1.896-4.227,4.228v7.441C12.348,76.754,14.244,78.65,16.574,78.65z
	 M16.222,66.982c0-0.195,0.158-0.354,0.353-0.354h7.44c0.194,0,0.354,0.158,0.354,0.354v7.441c0,0.194-0.159,0.352-0.354,0.352
	h-7.44c-0.194,0-0.353-0.157-0.353-0.352V66.982z M16.574,102.823h7.44c2.33,0,4.227-1.896,4.227-4.227v-7.442
	c0-2.33-1.896-4.226-4.227-4.226h-7.44c-2.33,0-4.227,1.896-4.227,4.226v7.442C12.348,100.928,14.244,102.823,16.574,102.823z
	 M16.222,91.154c0-0.193,0.158-0.352,0.353-0.352h7.44c0.194,0,0.354,0.158,0.354,0.352v7.442c0,0.194-0.159,0.353-0.354,0.353
	h-7.44c-0.194,0-0.353-0.158-0.353-0.353V91.154z M24.338,112.394h-7.441c-2.33,0-4.226,1.896-4.226,4.226v7.441
	c0,2.332,1.896,4.227,4.226,4.227h7.441c2.33,0,4.227-1.895,4.227-4.227v-7.441C28.564,114.289,26.668,112.394,24.338,112.394z
	 M24.69,124.061c0,0.194-0.158,0.353-0.353,0.353h-7.441c-0.193,0-0.352-0.158-0.352-0.353v-7.441c0-0.193,0.158-0.352,0.352-0.352
	h7.441c0.194,0,0.353,0.158,0.353,0.352V124.061z M78.46,91.283h7.443c2.33,0,4.227-1.53,4.227-3.414V66.25
	c0-1.881-1.896-3.412-4.227-3.412H78.46c-2.33,0-4.226,1.531-4.226,3.412v21.619C74.234,89.753,76.13,91.283,78.46,91.283z
	 M78.108,66.25c0-0.156,0.157-0.283,0.352-0.283h7.443c0.194,0,0.352,0.127,0.352,0.283v21.619c0,0.158-0.157,0.286-0.352,0.286
	H78.46c-0.194,0-0.352-0.128-0.352-0.286V66.25z" class="color c1"/>
</svg>