<svg version="1.1" id="图层_1" x="0px" y="0px" width="151.901px" height="90.744px" viewBox="0 0 151.901 90.744" enable-background="new 0 0 151.901 90.744" xml:space="preserve" xmlns="http://www.w3.org/2000/svg" xmlns:xlink="http://www.w3.org/1999/xlink" xmlns:xml="http://www.w3.org/XML/1998/namespace">
  <path fill="#2D2B28" d="M5.844,60.382c2.606-8.639,7.302-16.044,14.021-22.085c1.636-1.471,3.433-2.966,6.675-2.396
	c-0.077,4.626,0.326,9.031-1.84,13.232c-3.051,5.908-6.736,11.332-11.696,15.781c-1.729,1.553-3.809,3.768-6.272,2.398
	C3.88,65.728,5.148,62.689,5.844,60.382z M78.638,78.808c-2.052,0.967-5.017,2.012-4.496,4.898c0.502,2.766,3.498,2.99,5.841,3.277
	c9.121,1.113,17.91-0.303,26.295-4.006c1.994-0.883,4.094-1.957,4.902-5.414c-3.701-1.146-7.188-3.004-10.75-3.166
	C92.905,74.054,85.515,75.574,78.638,78.808z M143.021,74.041c-6.895-3.039-14.334-4.289-21.916-3.756
	c-2.262,0.16-5.404,0.064-5.959,2.943c-0.531,2.762,2.18,4.053,4.262,5.166c8.105,4.332,16.813,6.186,25.967,5.76
	c2.18-0.102,4.525-0.346,6.527-3.279C148.864,78.47,146.284,75.478,143.021,74.041z M40.378,31.44
	c1.779-1.075,3.563-2.277,4.992-3.764c2.791-2.9,5.359-6.018,7.977-9.081c3.621-4.243,3.873-9.478,4.586-14.962
	c-3.651-0.537-3.734-0.665-5.645,0.555c-8.49,5.426-14.225,13.104-17.783,22.431c-0.674,1.765-1.199,4.007,0.512,5.472
	C36.792,33.609,38.751,32.424,40.378,31.44z M92.149,48.888c3.158,0.805,5.02-0.254,6.699-1.486
	c7.668-5.63,13.391-12.803,16.73-21.762c0.463-1.236,0.756-2.623,0.729-3.934c-0.041-2.074-1.342-3.132-3.281-2.467
	c-1.943,0.665-3.861,1.676-5.498,2.92c-4.824,3.664-8.418,8.455-11.902,13.363C92.735,39.595,93.132,44.253,92.149,48.888z
	 M92.149,68.964c2.338,2.27,4.48,2.277,6.551,2.043c9.451-1.066,17.984-4.441,25.34-10.549c1.016-0.844,1.961-1.902,2.59-3.051
	c0.996-1.82,0.395-3.385-1.619-3.773c-2.018-0.389-4.184-0.467-6.221-0.203c-6.01,0.777-11.51,3.146-16.975,5.668
	C97.282,61.195,95.308,65.433,92.149,68.964z M56.249,48.55c0.087,3.258,1.613,4.76,3.258,6.039
	c7.508,5.84,15.97,9.389,25.499,10.158c1.316,0.107,2.732,0.01,3.984-0.373c1.986-0.605,2.646-2.145,1.479-3.83
	c-1.17-1.689-2.666-3.258-4.309-4.492c-4.842-3.643-10.432-5.793-16.104-7.805C65.348,46.578,60.974,48.23,56.249,48.55z
	 M32.703,55.097c9.557-1.266,18.014-5.111,25.313-11.401c1.555-1.342,3.02-2.923,2.584-5.914c-4.053-0.103-8.078-1.506-12.2-0.176
	c-6.862,2.214-13.3,5.273-18.741,10.129c-1.664,1.484-3.854,3.113-2.873,5.553C27.789,55.789,30.546,55.382,32.703,55.097z
	 M78.372,46.097c1.318,1.797,2.732,4.133,5.256,3.387c2.582-0.762,2.441-3.545,2.361-5.72c-0.354-9.634-3.377-18.417-8.945-26.28
	c-1.187-1.676-2.623-3.283-5.64-3.135c-0.488,4.025-2.267,7.898-1.334,12.129C71.621,33.52,74.056,40.219,78.372,46.097z
	 M61.466,67.296c-7.552,3.551-13.926,8.629-18.92,15.336c-0.963,1.293-1.744,2.816-2.219,4.354
	c-0.742,2.404,0.406,3.904,2.867,3.746c1.604-0.102,3.258-0.529,4.749-1.15c6.294-2.615,11.622-6.703,16.386-11.484
	c3.021-3.031,4.006-7.148,5.475-11.492C66.431,65.298,63.876,66.162,61.466,67.296z M133.591,64.777
	c1.396,2.049,3.1,4.914,5.85,4.037c3.119-0.99,2.434-4.414,2.295-7.02c-0.318-6.053-2.457-11.633-4.59-17.241
	c-1.889-4.963-5.727-7.777-10.043-10.555c-2.398,1.882-2.098,4.101-2.018,6.116C125.446,49.173,128.534,57.345,133.591,64.777z
	 M66.433,8.425c8.211,4.211,16.982,5.647,26.115,4.834c2.316-0.205,5.381-0.293,6.014-2.99c0.736-3.131-2.385-4.165-4.549-5.289
	C88.216,1.966,81.882,0.872,75.46,0.103c-4.869-0.585-8.958,1.443-13.176,3.234C62.371,6.39,64.486,7.425,66.433,8.425z
	 M5.833,73.033c-1.379,0.543-2.756,1.221-3.935,2.104c-2.782,2.084-2.468,4.322,0.685,5.637c0.549,0.23,1.125,0.42,1.707,0.539
	c9.973,2.037,19.594,0.816,28.86-3.271c1.743-0.77,3.552-1.707,3.833-4.982c-3.559-1.193-6.996-3.146-10.538-3.367
	C19.427,69.253,12.455,70.425,5.833,73.033z" class="color c1"/>
</svg>