<svg version="1.1" id="图层_1" x="0px" y="0px" width="139.086px" height="135.382px" viewBox="0 0 139.086 135.382" enable-background="new 0 0 139.086 135.382" xml:space="preserve" xmlns="http://www.w3.org/2000/svg" xmlns:xlink="http://www.w3.org/1999/xlink" xmlns:xml="http://www.w3.org/XML/1998/namespace">
  <path fill="#FFE2C0" d="M0,78.492l88.513,44.455l29.142-14.835c10.87-12.772,18.231-28.62,20.604-46.058L89.208,41.082L0,78.492z" class="color c1"/>
  <path fill="#DA9E58" d="M122.879,101.349l-34.366,14.852l-8.531,11.411l3.578,5.368C99.495,126.365,113.118,115.307,122.879,101.349
	z" class="color c2"/>
  <path fill="#FFD08F" d="M0,78.492l0.001,23.021l77.068,33.867c3.941-1.289,7.764-2.84,11.444-4.637v-14.545L0,78.492z" class="color c3"/>
  <path fill="#452011" d="M2.382,37.41l88.514,44.455L138.758,57.5c0.214-2.532,0.328-5.091,0.328-7.678
	c0-11.281-2.082-22.074-5.871-32.024L91.59,0L2.382,37.41z" class="color c4"/>
  <path fill="#592213" d="M90.896,75.117l-8.535,11.412l8.535,12.799l42.521-18.01c3.162-8.463,5.09-17.527,5.558-26.978
	L90.896,75.117z" class="color c5"/>
  <polygon fill="#321208" points="2.382,37.41 2.382,60.431 90.896,99.328 90.896,75.117 " class="color c6"/>
</svg>