<svg version="1.1" id="图层_1" x="0px" y="0px" width="88.037px" height="72.15px" viewBox="0 0 88.037 72.15" enable-background="new 0 0 88.037 72.15" xml:space="preserve" xmlns="http://www.w3.org/2000/svg" xmlns:xlink="http://www.w3.org/1999/xlink" xmlns:xml="http://www.w3.org/XML/1998/namespace">
  <path fill="#5F3012" d="M86.965,53.768c-0.746,0.948-2.2,2.083-3.379,2.632c-1.315,0.615-2.317,1.179-3.063,1.716
	c-1.705,1.245-2.287,1.585-3.664,2.158c-0.256,0.104-0.516,0.213-0.725,0.301c0.041,0.076,0.061,0.163,0.045,0.267
	c-0.02,0.168-0.113,0.271-0.211,0.338c0.057,0.05,0.098,0.104,0.129,0.152c0.211,0.363,0.012,0.795-0.156,1.088
	c-0.371,0.639-1.106,1.331-2.19,2.059c-0.524,0.354-0.976,0.697-1.09,0.812c-0.304,0.301-1.554,0.838-2.545,1.24
	c-1.144,0.458-2.431,0.993-2.859,1.186c-2.182,0.996-8.151,2.61-10.469,2.829c-0.711,0.065-2.213,0.251-3.351,0.411
	c-2.215,0.321-6.367,0.689-11.395,1.016c-1.982,0.128-3.153,0.181-4.041,0.181c-0.785,0-1.416-0.042-2.103-0.142
	c-1.246-0.178-2.779-0.318-4.099-0.379c-1.141-0.044-4.876-0.651-5.705-0.927c-0.147-0.05-0.26-0.073-0.313-0.083h-0.05
	c-0.181,0-0.721-0.142-1.023-0.227c-0.442-0.124-1.285-0.315-1.879-0.421c-0.606-0.116-1.722-0.44-2.485-0.723
	c-0.822-0.31-1.493-0.479-1.627-0.484c-0.556-0.016-0.891-0.117-1.086-0.331c-0.045-0.056-0.084-0.11-0.112-0.174
	c-0.194-0.078-0.649-0.234-1.4-0.415c-1.81-0.438-1.909-0.53-1.988-0.604c-0.102-0.041-0.928-0.292-1.316-0.382
	c-0.022,0.03-0.047,0.065-0.071,0.113c-0.124,0.222-0.403,0.521-0.708,0.61l-0.176,0.023c-0.031,0-0.075-0.006-0.115-0.009
	c-0.354-0.221-0.706-0.443-1.06-0.662c-0.01-0.003-0.016-0.004-0.026-0.007c-0.74-0.464-1.481-0.928-2.22-1.394
	c0.004,0,0.007,0.001,0.012,0.002c-0.775-0.485-1.555-0.969-2.329-1.455c-0.009-0.12,0.006-0.255,0.05-0.411
	c-0.019-0.086-0.427-0.363-0.857-0.66c-1.553-1.065-1.809-1.308-2.302-2.677c-0.283-0.791-0.482-1.083-0.602-1.191
	c-0.191-0.18-0.446-0.488-0.624-0.729L0.56,57.704l0.498-0.302L0.334,57.03l0.401-0.499c-0.105-0.348-0.185-0.719-0.217-1.027
	L0,55.218l0.6-0.607c0.268-1.097,0.646-1.908,1.262-2.684L0.83,50.922l2.088-0.107c2.013-1.883,2.379-2.127,4.462-3.063
	c0.546-0.248,0.985-0.452,1.304-0.601L7.938,46.7l1.478-0.551l-0.773-1.332l1.781,0.783l-0.825-1.66l2.265,0.999
	c0.12,0.05,0.233,0.108,0.344,0.174l1.269-0.478l-0.41-1.444l1.748,0.925l0.268-0.332L14.813,43l1.42,0.578l0.013-0.009
	c0.479-0.483,1.114-0.688,1.742-0.55l0.27-0.283c-0.176-0.477-0.224-0.568-0.229-0.583c-0.185-0.23-0.277-0.675-0.688-3.368
	c-0.064-0.438-0.377-1.697-0.679-2.748c-0.596-2.063-0.535-2.362-0.506-2.503c0.024-0.112,0.032-0.136-0.149-0.376
	c-0.372-0.493-0.434-0.744-0.044-1.265c0.066-0.089,0.083-0.12,0.087-0.131c0.004-0.067-0.111-0.37-0.158-0.499
	c-0.203-0.55-0.289-1.096-0.275-1.771c0.019-0.951-0.461-3.086-1.508-6.719c-0.743-2.582-0.88-3.197-0.534-3.717l-0.032-0.021
	c-0.166-0.128-0.679-0.521-0.615-1.063c0.06-0.522,0.599-0.822,0.999-1.002c0.531-0.241,0.778-0.473,1.209-1.104
	c0.377-0.553,0.655-0.717,1.571-1.073c0.53-0.207,1.343-0.591,1.773-0.842c0.459-0.265,1.252-0.664,1.771-0.891
	c0.481-0.21,1.488-0.739,2.195-1.155c0.735-0.433,1.755-1.019,2.266-1.312c0.801-0.454,0.821-0.501,1.077-1.059
	c0.197-0.431,0.552-1.069,0.794-1.428c0.228-0.329,0.792-1.296,1.262-2.146c0.763-1.389,0.968-1.721,1.592-1.89
	c0.226-0.058,0.271-0.071,0.828-1.146c0.229-0.44,0.62-1.167,0.893-1.456c-0.016-0.033-0.036-0.081-0.065-0.146
	c-0.124-0.27-0.269-0.671-0.058-0.998c0.165-0.261,0.463-0.368,0.936-0.322c0.543,0.052,0.789,0.288,0.896,0.479
	c0.08,0.138,0.187,0.425,0.002,0.817c-0.005,0.011-0.01,0.016-0.018,0.008c0.115,0.205,0.096,0.49-0.066,0.741
	c0.01,0,0.01,0.15,0.078,0.362c0.194,0.627,0.103,1.14-0.334,2.712c-0.033,0.003,0,0.041,0.122,0.135
	c0.296,0.23,0.57,0.469,0.832,0.719c-0.167-0.385-0.271-0.771-0.349-1.228c-0.097-0.552-0.059-0.895,0.126-1.111l0.13-0.158
	l0.303-0.048c0.705,0,1.222,1.295,1.411,1.854c0.228,0.668,0.312,0.823,0.989,1.48c2.838,2.771,3.168,3.118,3.346,3.405
	c0.011,0.021,0.014,0.028,0.008,0.032c0.363,0.026,0.871,0.244,0.976,0.291c0.33,0.144,1.143,0.415,1.82,0.59
	c2.107,0.54,4.172,1.266,5.666,1.982c0.742,0.356,1.803,0.783,2.314,0.934c3.379,0.973,5.646,1.953,10.539,4.557
	c1.188,0.635,2.643,1.331,3.178,1.521c0.988,0.354,3.641,1.442,4.656,1.909c0.879,0.407,4.651,2.099,5.168,2.323
	c0.188,0.082,0.518,0.222,0.653,0.479c0.476-0.103,0.771,0.056,0.877,0.387c0.024,0.081,0.035,0.165,0.031,0.244
	c0.389,0.031,0.864,0.28,1.055,0.716c0.07,0.16,0.177,0.397,0.06,0.648c-0.111,0.242-0.351,0.331-0.568,0.397
	c0.414,0.482,0.727,1.25,1.219,2.881c0.592,1.965,0.65,2.813,0.252,3.635c-0.092,0.19-0.105,0.221,0.42,1.813
	c0.807,2.426,1.023,4.281,0.66,5.681c-0.197,0.761-0.172,1.377,0.068,1.685c0.158,0.208,0.438,0.287,0.813,0.228
	c1.264-0.168,4.068,1,6.344,2.693c1.617,1.207,1.869,1.476,2.189,2.889C88.286,50.669,87.974,52.472,86.965,53.768z" class="color c1"/>
  <path fill="#FFFFFF" d="M73.138,62.949l0.649-0.765c0.494-0.581,0.819-0.932,1.142-1.093c-0.017-0.011-0.031-0.021-0.048-0.034
	H74.87c-0.264,0-1.168,0.285-2.645,0.752c-1.539,0.484-3.324,1.057-3.979,1.267c-1.851,0.601-4.496,1.141-6.746,1.373
	c-1.045,0.1-2.438,0.309-3.051,0.45c-0.625,0.148-1.537,0.302-2.029,0.337c-0.444,0.035-1.385,0.17-2.094,0.304
	c-2.101,0.39-3.781,0.547-9.457,0.896c-0.451,0.026-0.889,0.053-1.309,0.076c0.236,0.054,0.402,0.163,0.537,0.378
	c0.049,0.079,0.199,0.322,0.072,0.595c-0.059,0.127-0.133,0.215-0.287,0.285c1.088-0.065,1.914-0.098,2.512-0.098
	c1.101,0,1.646,0.081,1.785,0.532l0.063,0.208l-0.14,0.229c-0.311,0.44-1.789,0.684-2.352,0.709c-0.408,0.017-2.094,0.13-3.75,0.25
	c-2.75,0.199-4.591,0.276-6.564,0.276c-1.365,0-2.859-0.036-4.938-0.124c0.796,0.105,1.529,0.175,2.184,0.204
	c0.703,0.03,1.83,0.129,2.517,0.218c0.663,0.092,1.608,0.186,2.103,0.222c0.127,0.01,0.307,0.011,0.525,0.011
	c1.701,0,5.341-0.209,7.638-0.445c1.166-0.111,2.678-0.237,3.369-0.274c0.717-0.038,2.197-0.184,3.232-0.315l3.106-0.391
	c1.945-0.241,2.521-0.33,4.08-0.662c2.097-0.437,6.353-1.78,7.72-2.436c0.653-0.312,1.842-0.806,2.646-1.099
	c1.571-0.574,1.889-0.838,2.002-1.217c0.194-0.688,0.646-0.79,0.894-0.79c0.186,0,0.381,0.053,0.596,0.16L73.138,62.949z" class="color c2"/>
  <path fill="#FFFFFF" d="M18.424,35.873c0.006-0.017,0.013-0.031,0.021-0.047c0.168-0.316,0.413-0.363,0.546-0.363
	c0.378,0,0.648,0.304,1.328,1.271c1.448,2.053,3.171,4.795,3.434,5.644c0.092,0.304,0.061,0.575-0.081,0.771
	c-0.118,0.161-0.304,0.251-0.506,0.251c-0.16,0-0.326-0.054-0.492-0.162c-0.227-0.146-0.717-0.907-0.992-1.354
	c-0.364-0.598-1.044-1.682-1.504-2.406c-0.6-0.948-1.011-1.626-1.287-2.122c0.458,1.405,0.88,2.547,1.018,2.795
	c0.193,0.352,0.423,0.908,0.467,1.246c0.024,0.167,0.201,0.783,0.445,1.39l0.312,0.812l0.662,0.097
	c0.52,0.066,1.181,0.053,1.657-0.04c1.247-0.24,1.897-0.137,4.754,0.699c1.76,0.518,4.067,0.961,4.812,0.98
	c-0.016-0.056-0.05-0.137-0.103-0.247c-0.078-0.156-0.316-0.638-0.064-1.047c0.262-0.418,0.846-0.418,1.037-0.418
	c0.064,0,0.137,0,0.211,0.003c1.045,0.058,2.822,0.435,5.439,1.155c1.99,0.549,3.365,0.902,4.328,1.115
	c0.25-0.371,0.598-0.529,1.084-0.529c0.982,0,2.994,0.623,7.422,2.115c1.229,0.413,2.379,0.681,2.855,0.722
	c-0.037-0.287-0.031-0.626,0.207-0.904c0.25-0.295,0.664-0.421,1.379-0.421c0.639,0,1.569,0.099,3.205,0.336l1.953,0.283l1.416-0.42
	c1.692-0.503,2.672-0.529,5.219-0.162l1.336,0.192l1.133-0.379c1.854-0.625,3.814-0.69,4.676-0.136
	c0.123,0.082,0.412,0.271,0.33,0.607c-0.063,0.263-0.264,0.347-0.518,0.39c0.098,0.132,0.201,0.272,0.303,0.407
	c0.23,0.313,0.688,0.842,1,1.156c0.057,0.061,0.24,0.247,0.412,0.456c-0.021-0.224-0.023-0.42,0.002-0.55
	c0.131-0.71,0.15-1.146,0.139-1.293c-0.082-0.136-0.145-0.404-0.031-1.006c0.076-0.418,0.051-0.646-0.336-1.994
	c-0.543-1.9-0.615-2.936-0.275-3.951c0.111-0.346,0.156-1.03,0.115-1.883c-0.059-1.256-0.115-1.524-0.666-3.197
	c-0.559-1.696-0.66-2.101-0.475-2.503c0.293-0.654,0.268-1.122-0.473-3.384l-0.301-0.93l-2.076-0.625
	c-2.512-0.76-3.738-0.955-5.248-0.91c-1.439,0.055-1.682-0.01-4.232-0.757c-2.299-0.67-2.809-0.79-4.063-0.79l-0.605,0.007
	c-0.25,0.006-0.496,0.007-0.723,0.007c-0.34,0-0.939-0.003-1.129-0.036c-0.199-0.039-2.816-0.688-5.234-1.294
	c-2.693-0.677-5.781-1.357-6.881-1.522c-1.113-0.164-2.525-0.454-3.143-0.643c-2.347-0.728-4.335-1.145-9.25-1.937
	c-1.195-0.192-2.623-0.472-3.117-0.61c-0.923-0.264-2.05-0.519-2.681-0.609c-2.431-0.344-7.637-0.64-10.198-0.64
	c-0.566,0-0.908,0.017-1.114,0.03c0.138,0.249,0.163,0.502-0.01,0.838c-0.03,0.057-0.059,0.105-0.078,0.149
	c0.018,0.126,0.044,0.34,0.09,0.699c0.053,0.413,0.316,1.469,0.578,2.309c0.232,0.751,0.513,1.792,0.545,2.49
	c0.016,0.417,0.125,0.915,0.211,1.106c0.312,0.67,0.66,2.449,0.68,3.46c0.005,0.438,0.104,0.875,0.317,1.414l0.247,0.615
	l2.334,0.448c4.027,0.771,6.181,1.104,6.971,1.174c-0.087-0.329-0.053-0.604,0.105-0.818c0.276-0.374,0.814-0.374,0.992-0.374
	c0.952,0,2.791,0.444,6.785,1.649c1.694,0.508,2.47,0.741,2.79,0.741c0.097,0,0.145-0.018,0.312-0.097
	c1.106-0.536,2.671-0.337,6.511,0.828l0.373,0.11c1.447,0.441,2.176,0.66,2.477,0.66c0.086,0,0.088,0,0.262-0.169
	c0.449-0.438,0.802-0.622,1.283-0.71c1.201-0.225,3.631,0.335,7.433,1.795c1.061,0.406,1.727,0.59,2.045,0.632
	c0.01-0.063,0.022-0.146,0.032-0.233c0.103-1.067,0.703-1.293,1.58-1.3c0.873,0,2.084,0.387,3.734,1.177
	c0.545,0.26,1.328,0.568,1.713,0.676c0.662,0.182,0.699,0.143,1.646-0.151c1.09-0.332,1.377-0.368,2.629-0.277
	c1.127,0.079,1.139,0.115,2.356-0.346c1.703-0.635,2.224-0.696,2.937-0.417c0.228,0.088,0.756,0.294,0.688,0.905
	c-0.01,0.074,0.004,0.18,0.017,0.213c0.073,0.146,0.067,0.345-0.031,0.507c-0.142,0.227-0.42,0.337-0.86,0.337
	c-0.41,0-0.845-0.095-1.158-0.253c-0.217-0.109-0.394-0.127-0.576-0.03c-1.461,0.728-1.672,0.824-3.227,0.712
	c-1.498-0.112-1.775-0.109-2.566,0.323c-0.426,0.234-0.689,0.368-1.109,0.368c-0.16,0-0.352-0.021-0.623-0.056
	c-0.479-0.062-1.121-0.241-1.451-0.407c-2.432-1.219-3.412-1.497-3.805-1.513c-0.029,0.202-0.092,0.455-0.148,0.633
	c-0.135,0.422-0.479,0.926-1.379,0.926c-0.695,0-1.686-0.278-3.311-0.929c-2.518-1.003-4.721-1.628-5.75-1.628
	c-0.186,0-0.285,0.021-0.328,0.035c-0.17,0.052-0.266,0.134-0.352,0.303c-0.176,0.365-0.476,0.786-1.188,0.786
	c-0.481,0-1.137-0.188-2.104-0.499c-2.544-0.823-4.317-1.313-5.417-1.501c-0.512-0.085-0.861-0.106-0.984-0.097
	c-0.141,0.27-0.51,0.411-0.675,0.465c-0.097,0.03-0.206,0.044-0.338,0.044c-0.694,0-2.313-0.428-5.778-1.519
	c-1.252-0.388-2.633-0.77-3.081-0.849L29.11,33.86l-0.109,0.268c-0.273,0.646-0.442,0.836-1.104,0.942
	c-0.308,0.051-1.273-0.041-2.14-0.218c-0.803-0.165-2.12-0.429-2.92-0.583c-0.581-0.112-1.093-0.211-1.555-0.298
	c0.011,0.025,0.029,0.048,0.038,0.074c0.035,0.081,0.327,0.568,0.76,1.229c0.916,1.391,1.995,3.139,2.682,4.351
	c0.27,0.484,0.662,1.155,0.865,1.497c0.479,0.805,0.422,0.996,0.385,1.11c-0.07,0.286-0.328,0.484-0.647,0.484
	c-0.263,0-0.536-0.135-0.758-0.371c-0.21-0.216-0.656-0.928-0.97-1.488c-1.066-1.893-1.476-2.582-2.188-3.693
	c-1.634-2.577-1.798-3.02-1.591-3.417c0.007-0.012,0.021-0.018,0.03-0.03c-0.736-0.125-1.234-0.189-1.547-0.189
	c-0.232,0-0.289,0.038-0.291,0.038c-0.023,0.027-0.06,0.181-0.071,0.229C17.909,34.078,17.927,34.263,18.424,35.873z" class="color c2"/>
  <path fill="#FFFFFF" d="M38.45,68.188c-0.129-0.109-1.497-0.122-1.556-0.016c-0.017,0.04,0.229,0.117,0.553,0.174
	C38.061,68.453,38.647,68.359,38.45,68.188z" class="color c2"/>
  <path fill="#FFFFFF" d="M75.569,54.81c-0.027,0.066-0.08,0.152-0.176,0.226c0.299-0.038,0.59-0.077,0.832-0.113
	c0.791-0.117,1.258-0.2,1.334-0.223c0.274-0.138,0.401-0.274,0.504-0.448c0.057-0.1,0.071-0.203-0.031-0.751
	c-0.115,0.092-0.244,0.155-0.4,0.155c-0.252,0-0.523-0.128-0.865-0.416c-0.021,0.213-0.141,0.399-0.34,0.512l-0.1,0.06l-0.186,0.013
	c-0.285,0-0.627-0.183-1.185-0.635c-0.926-0.741-2.095-1.599-3.565-2.617c-0.56-0.39-1.289-0.924-1.541-1.153
	c-0.67-0.602-1.285-0.805-2.863-0.954c-1.437-0.129-1.426-0.168-2.965,0.277c-1.672,0.479-1.982,0.5-4.853,0.112
	c-1.041-0.142-1.83-0.213-2.067-0.188c-0.097,0.919-0.869,1.431-2.066,1.321c-0.604-0.055-3.125-0.835-4.371-1.324
	c-0.432-0.171-1.115-0.415-1.521-0.552c-1.811-0.594-2.858-0.938-3.231-0.98c-0.164,0.36-0.388,0.665-1.006,0.665
	c-0.756,0-2.273-0.433-6.958-1.8c-0.951-0.274-2.338-0.541-3.004-0.604c0.021,0.205,0.013,0.435-0.023,0.621
	c0.055,0.197,0.786,0.661,1.164,0.898c0.836,0.159,1.598,0.324,2.301,0.498c0.005-0.06,0.026-0.118,0.059-0.18
	c0.066-0.128,0.244-0.351,0.666-0.351c0.359,0,0.833,0.168,1.24,0.438c1.307,0.869,1.535,1.022,1.621,1.192
	c0.027,0.028,0.063,0.067,0.109,0.111c0.406,0.181,0.797,0.37,1.162,0.581l0.328,0.189l-0.186,0.489
	c0.566,0.572,0.609,0.707,0.631,0.784l0.068,0.215l-0.264,0.442l-0.258,0.016c-0.152,0-0.301-0.065-0.475-0.167
	c-0.092-0.052-0.172-0.084-0.213-0.097l-0.049,0.003c-0.193,0-0.371-0.108-0.484-0.279c-0.508-0.111-1.014-0.234-1.506-0.358
	l-0.201,0.075c0.02,0.146,0.02,0.329-0.113,0.484l-0.098,0.109c0.264,0.166,0.498,0.305,0.637,0.372
	c0.582,0.286,0.922,0.715,0.889,1.112c-0.023,0.271-0.203,0.486-0.486,0.574l-0.184,0.026c-0.285,0-0.592-0.181-0.951-0.551
	c-0.15-0.16-0.275-0.264-0.338-0.31c-0.258-0.036-0.695-0.252-1.029-0.433l-0.927-0.509c0.128,0.087,0.235,0.156,0.313,0.206
	c0.346,0.219,2.115,1.78,2.251,2.229c0.061,0.199,0.059,0.374-0.008,0.52l0.133,0.063c0.326,0.027,0.631,0.054,0.879,0.073
	c1.42,0.104,2.355,0.174,2.305,0.986c-0.031,0.494-0.432,0.745-1.186,0.745c-0.193,0-0.428-0.012-0.705-0.037
	c-0.479-0.049-0.953-0.015-1.184,0.067c-0.408,0.147-0.717,0.26-0.984,0.342c0.375,0.188,0.714,0.367,1.019,0.55l0.338,0.065
	c0.277,0.023,0.578,0.052,0.869,0.085c0.002-0.034,0.008-0.074,0.02-0.109c0.135-0.547,0.814-0.646,2.662-0.646h0.548
	c2.559,0,4.739-0.104,8.34-0.4c2.875-0.239,3.649-0.269,4.104-0.086c0.127,0.054,0.512,0.104,0.799,0.061
	c0.859-0.129,2.496-0.227,3.896-0.227c0.473,0,0.906,0.013,1.244,0.035c1.824,0.126,3.801,0.037,6.524-0.307
	c1.326-0.174,2.927-0.351,3.563-0.398c0.213-0.017,0.482-0.044,0.763-0.076c-0.117-0.021-0.238-0.056-0.365-0.1
	c-0.596-0.206-2.668-1.419-3.166-1.854c-0.12-0.106-0.467-0.342-0.793-0.527c-0.493-0.282-3.705-2.627-3.868-3.155
	c-0.056-0.186-0.056-0.515,0.563-0.702c0.479-0.151,1.133,0.126,1.735,0.743c0.14,0.142,0.633,0.524,1.08,0.828
	c0.467,0.312,1.17,0.815,1.568,1.113c1.055,0.797,2.549,1.783,3.199,2.108c0.227,0.113,0.709,0.376,0.9,0.563
	C75.679,54.431,75.612,54.706,75.569,54.81z" class="color c2"/>
  <path fill="#FFFFFF" d="M37.115,52.844l-0.039,0.181c0.347,0.121,0.678,0.234,0.985,0.343c-0.743-0.584-1.248-0.929-2.313-1.599
	c-0.105-0.064-0.223-0.145-0.345-0.229c-0.127-0.006-0.253-0.012-0.382-0.021c0.511,0.388,0.958,0.74,1.33,1.057L37.115,52.844z" class="color c2"/>
  <path fill="#5F3012" d="M31.479,47.51c0.158,0.093,0.309,0.183,0.461,0.269c0.143,0.009,0.288,0.018,0.436,0.027
	c-0.165-0.085-0.315-0.164-0.459-0.238c-0.165-0.027-0.327-0.058-0.488-0.084C31.444,47.496,31.459,47.503,31.479,47.51z" class="color c1"/>
  <path fill="#FFFFFF" d="M26.952,56.997c-0.502-0.104-1.071-0.242-1.498-0.364c0.701,0.228,1.382,0.434,2.011,0.604
	C27.271,57.152,27.104,57.072,26.952,56.997z" class="color c2"/>
  <path fill="#FFFFFF" d="M32.229,58.809c0.477,0.139,0.894,0.269,1.105,0.352c0.316,0.122,1.312,0.439,2.172,0.693
	c0.16,0.05,0.313,0.095,0.463,0.144l0.006-0.22c-1.04-0.413-2.343-0.782-3.176-0.883C32.634,58.875,32.441,58.846,32.229,58.809z" class="color c2"/>
  <path fill="#FFFFFF" d="M34.471,53.83c0.993,0.273,1.793,0.479,1.854,0.459c0.04-0.013,0.046-0.044,0.025-0.092
	c-0.243-0.082-0.485-0.167-0.741-0.252C35.224,53.91,34.847,53.87,34.471,53.83z" class="color c2"/>
  <path fill="#FFFFFF" d="M6.873,50.573c-0.108-0.152-0.212-0.302-0.306-0.448c-0.32,0.199-0.612,0.41-0.906,0.662l0.186,0.057
	c0.31-0.114,0.643-0.19,0.987-0.227C6.848,50.6,6.86,50.587,6.873,50.573z" class="color c2"/>
  <path fill="#FFFFFF" d="M73.026,59.686c3.781-1.236,4.086-1.354,4.682-1.797c0.176-0.137,0.777-0.577,1.012-0.649
	c0.055-0.029,0.439-0.293,0.91-0.658c0.568-0.442,1.504-0.993,2.504-1.464c1.092-0.52,1.676-0.873,2.145-1.296
	c0.354-0.316,0.82-0.715,1-0.838c0.187-0.137,0.502-0.966,0.445-1.265c-0.086-0.468,0.057-0.798,0.43-1.016
	c0.017,0,0.021-0.084-0.024-0.359c-0.055-0.36-0.088-0.866-0.035-1.129c0.039-0.188-0.204-0.762-0.409-0.892
	c-0.179-0.107-0.347-0.293-0.412-0.508c-0.021-0.009-0.051-0.021-0.084-0.029c-0.381-0.112-0.621-0.325-0.664-0.572
	c-0.357-0.402-2.213-1.583-2.603-1.644c0.009,0.005-0.037,0.007-0.088,0.007c-0.313,0-1.36-0.214-1.647-0.681
	c-0.15-0.069-0.574-0.158-0.998-0.158c-0.103,0-0.181,0.004-0.236,0.01c0.016,0.047,0.041,0.106,0.08,0.193
	c0.148,0.318,0.156,0.331,0.691,0.483c0.239,0.069,0.45,0.104,0.567,0.109l0.035-0.027l0.239-0.024c0.205,0,0.439,0.095,0.644,0.26
	c0.101,0.087,0.524,0.306,0.99,0.479c1.026,0.37,1.983,1.128,2.495,1.975c0.168,0.274,0.449,0.681,0.623,0.901
	c0.377,0.479,0.509,0.953,0.359,1.303c-0.094,0.228-0.293,0.375-0.549,0.401c-0.098-0.028-0.197-0.011-0.316-0.063
	c-0.02,0.642-0.35,1.128-0.899,1.296c-0.578,0.176-0.892-0.077-0.988-0.227c-0.141-0.227-0.129-0.518,0.041-0.863
	c0.072-0.146,0.082-0.191,0.082-0.206c-0.021-0.064-0.262-0.313-0.34-0.392c-0.403-0.417-2.724-1.699-3.483-1.996
	c-0.029,0.085-0.064,0.216-0.099,0.403c-0.092,0.532-0.074,0.854,0.295,2.576c0.619,2.861,0.709,3.636,0.146,4.072
	c-0.076,0.061-0.14,0.135-0.154,0.161c-0.189,0.746-2.313,1.055-2.402,1.066c-0.52,0.077-2.107,0.253-3.611,0.397
	c-0.059,0.005-0.117,0.014-0.176,0.017c0.117,0.211,0.062,0.433,0.041,0.51c-0.141,0.517-0.619,0.552-2.646,0.703
	c-1.203,0.092-3.148,0.25-4.322,0.354c-1.063,0.094-2.248,0.169-2.698,0.169l-0.188-0.001c-0.373,0-1.078,0.054-1.644,0.125
	c-0.184,0.022-1.1,0.136-1.342,0.136l-0.135-0.012c-0.018,0.011-0.572,0.064-1.473,0.184c-0.887,0.117-1.826,0.168-2.084,0.12
	c-0.191-0.039-0.572-0.026-0.832,0.017c-0.328,0.057-0.855,0.087-1.197,0.066c-0.322-0.014-0.666,0.038-0.846,0.091
	c-0.853,0.257-2.584,0.423-4.127,0.373c-0.519-0.017-1.017-0.017-1.623,0.004l-0.039,0.323l-3.277-0.11l-0.949,0.076
	c-0.176,0.018-0.369,0.026-0.564,0.036c0.705,0.089,1.412,0.183,2.115,0.276l0.41,0.057l-0.107,1.653l1.273,0.627l-3.404,0.199
	c-1.484,0.086-2.971,0.109-4.495,0.129c-1.122,0.019-2.199,0.035-3.255,0.074l-2.967,0.122l1.105-0.803
	c-0.775-0.145-1.555-0.311-2.24-0.481c-0.849-0.211-1.395-0.332-1.54-0.356h-0.03c-0.433,0-3.316-0.728-4.681-1.136
	c-0.879-0.259-1.888-0.549-2.244-0.64c-0.38-0.102-0.983-0.338-1.37-0.538c-1.03-0.541-3.481-2-4.828-2.844l-0.294,0.417
	c0.438,0.341,0.913,0.689,1.388,0.998l0.36,0.236l-0.942,1.521l-0.119-0.072l-0.297,0.559l-0.361-0.135
	c-0.303-0.111-0.604-0.232-0.909-0.357l-0.34,0.668l-0.397-0.206c-0.041-0.021-0.082-0.042-0.123-0.062l2.466,1.978l-3.31-0.505
	c-2.523-0.388-5.004-1.979-7.189-3.384c-0.227-0.148-0.439-0.286-0.646-0.416c-0.021,0.006-0.043,0.013-0.063,0.02l0.1,0.183
	l-0.252,0.17l0.605,0.74L4.73,58.997c-0.033,0-0.068-0.001-0.103-0.001c0.012,0.015,0.025,0.03,0.035,0.046
	c0.111,0.136,0.887,0.698,1.882,1.309c1.301,0.795,1.834,1.046,2.38,1.137c1.545,0.252,2.129,0.403,2.973,0.77
	c1.555,0.675,5.502,1.864,6.278,1.939c0.329,0.032,0.841,0.136,1.168,0.233c0.235,0.067,1.687,0.225,3.393,0.336
	c1.616,0.104,3.329,0.223,3.796,0.266c0.457,0.043,2.102,0.023,3.635-0.04c1.573-0.063,4.334-0.07,6.127-0.014
	c1.646,0.05,3.154,0.066,3.405,0.03c0.249-0.082,3.305-0.225,3.915-0.253c4.159-0.192,6.067-0.329,8.159-0.59
	c2.799-0.352,5.711-0.802,6.771-1.042c0.623-0.142,1.924-0.322,2.894-0.404c0.963-0.079,2.412-0.294,3.225-0.468
	c0.844-0.184,2.135-0.528,2.873-0.771c0.676-0.225,2.709-0.887,4.748-1.553L73.026,59.686z" class="color c2"/>
  <path fill="#5F3012" d="M72.618,30.535c-1.102-0.395-2.305-0.682-2.861-0.682c-0.477,0-0.607,0.252-0.641,0.4
	c-0.1,0.433,0.373,0.666,0.629,0.793c1.633,0.81,2.357,1.137,2.934,1.137c0.377,0,0.646-0.142,0.881-0.294
	c0.232-0.149,0.334-0.333,0.312-0.549C73.825,30.967,73.521,30.859,72.618,30.535z" class="color c1"/>
  <path fill="#5F3012" d="M56.377,29.141l-0.164,0.021c-0.276,0.084-0.45,0.317-0.455,0.608c-0.006,0.536,0.619,1.249,1.289,1.473
	c0.272,0.089,0.578,0.14,0.853,0.14c0.408,0,0.692-0.106,0.848-0.313l0.148-0.287l-0.064-0.214
	C58.672,30.055,56.795,29.141,56.377,29.141z" class="color c1"/>
  <path fill="#5F3012" d="M66.528,30.896c0.646-0.204,0.709-0.477,0.727-0.558c0.146-0.611-0.609-0.913-1.658-1.331
	c-0.666-0.263-1.707-0.506-2.029-0.059c-0.121,0.16-0.151,0.36-0.086,0.567c0.033,0.106,0.109,0.362,1.302,0.962
	c0.61,0.306,1.008,0.474,1.373,0.474C66.278,30.953,66.397,30.936,66.528,30.896z" class="color c1"/>
  <path fill="#5F3012" d="M26.999,37.371c0.311,0.855,1.69,2.601,1.71,2.622l0.424,0.521c0.108,0.138,0.229,0.357,0.256,0.444
	c0.091,0.294,1.064,1.952,1.634,1.952l0.354-0.104l0.084-0.187c0.036-0.073,0.139-0.297-0.11-0.83
	c-0.459-1.005-1.836-3.205-2.63-4.207c-2.039-2.57-2.528-2.57-2.711-2.57l-0.337,0.039l-0.122,0.238
	c-0.141,0.271,0.017,0.554,0.074,0.659C25.75,36.177,26.443,37.14,26.999,37.371z" class="color c1"/>
  <path fill="#5F3012" d="M27.229,42.519c0.219,0.413,0.509,0.501,0.715,0.501l0.217-0.031c0.383-0.119,0.589-0.417,0.495-0.736
	c-0.036-0.107-0.222-0.406-0.554-0.89c-0.732-1.059-1.351-2.081-2.276-3.771c-0.164-0.298-0.469-0.817-0.632-0.916
	c-0.024-0.025-0.082-0.134-0.122-0.261c-0.1-0.317-0.597-1.504-1.246-1.504l-0.16,0.024c-0.171,0.052-0.308,0.182-0.37,0.35
	c-0.093,0.241-0.107,0.659,0.575,1.787c0.21,0.352,0.462,0.792,0.558,0.989c0.105,0.218,0.309,0.54,0.475,0.703
	c0.028,0.028,0.048,0.052,0.06,0.068c0.077,0.308,0.437,0.948,1.581,2.612C26.883,41.936,27.161,42.382,27.229,42.519z" class="color c1"/>
  <path fill="#5F3012" d="M33.675,38.522c0.082,0.074,0.249,0.219,0.424,0.371l0.285,0.247c0.207,0.177,0.391,0.347,0.406,0.347
	c0.065,0.106,0.441,0.521,0.553,0.645c0.239,0.27,0.606,0.59,0.974,0.59l0.322-0.046l0.132-0.18c0.128-0.17,0.148-0.395,0.065-0.659
	c-0.161-0.522-1.181-1.497-1.788-1.897c-0.212-0.142-0.364-0.269-0.418-0.321c-0.21-0.402-0.957-0.816-1.299-0.816l-0.198,0.015
	l-0.317,0.272l-0.007,0.212C32.802,37.446,32.79,37.75,33.675,38.522z" class="color c1"/>
  <path fill="#5F3012" d="M38.144,40.401c0.113,0.247,0.325,0.705,0.828,0.705l0.136-0.013c0.079-0.013,0.481-0.092,0.646-0.388
	c0.257-0.484-0.078-1.021-0.785-1.834c-0.355-0.416-0.6-0.779-0.631-0.847c-0.195-0.634-1.077-0.75-1.438-0.192
	c-0.382,0.576,0.078,1.082,0.659,1.716C37.765,39.778,38.038,40.179,38.144,40.401z" class="color c1"/>
  <path fill="#5F3012" d="M30.046,37.16c0.004,0.001,0.006,0.002,0.009,0.004c0.09,0.434,0.58,0.943,0.776,1.094
	c0.127,0.104,0.393,0.384,0.557,0.611c0.04,0.052,0.396,0.533,0.637,0.69c0.318,0.223,0.848,0.767,0.912,0.887
	c0.084,0.259,0.331,0.427,0.632,0.427l0.235-0.033c0.242-0.075,0.402-0.194,0.482-0.352l0.086-0.188l-0.057-0.17
	c-0.025-0.084-0.059-0.185-0.623-0.744c-0.857-0.848-1.792-1.903-1.88-2.029c-0.087-0.282-0.541-0.572-0.907-0.715
	c-0.008-0.022-0.014-0.049-0.02-0.066c-0.167-0.561-0.976-0.767-1.256-0.253C29.511,36.564,29.594,36.918,30.046,37.16z" class="color c1"/>
  <path fill="#5F3012" d="M77.668,51.768c-0.017-0.074-0.03-0.146-0.049-0.225c-0.035,0.029-0.068,0.04-0.104,0.061
	C77.567,51.659,77.62,51.713,77.668,51.768z" class="color c1"/>
  <path fill="#5F3012" d="M64.504,53.06c-0.119-0.069-0.269-0.205-0.291-0.243c-0.06-0.085-0.258-0.348-0.553-0.37
	c-0.086-0.047-0.281-0.166-0.541-0.369c-0.445-0.336-0.815-0.509-1.099-0.509l-0.194,0.032c-0.173,0.051-0.459,0.14-0.517,0.449
	c-0.063,0.343,0.158,0.513,0.742,0.969c0.322,0.246,0.703,0.55,0.854,0.673c0.453,0.366,2.312,1.443,2.839,1.646
	c0.225,0.083,0.354,0.118,0.475,0.118c0.169,0,0.318-0.075,0.412-0.2l0.136-0.271l-0.068-0.212
	C66.551,54.302,64.717,53.188,64.504,53.06z" class="color c1"/>
  <path fill="#5F3012" d="M52.573,49.555c-0.498-0.296-0.951-0.272-1.174,0.03c-0.07,0.096-0.176,0.302-0.082,0.605
	c0.225,0.736,3.106,2.625,3.981,3.185c0.14,0.087,0.408,0.234,0.683,0.234c0.197,0,0.369-0.086,0.469-0.234l0.131-0.281
	l-0.086-0.218C56.282,52.336,53.265,49.965,52.573,49.555z" class="color c1"/>
  <path fill="#5F3012" d="M64.728,49.98l-0.134,0.179c-0.114,0.155-0.133,0.351-0.063,0.582c0.076,0.245,0.115,0.367,3.527,2.817
	c0.666,0.472,2.196,1.396,2.727,1.396l0.164-0.022c0.291-0.088,0.445-0.396,0.465-0.651c0.031-0.532-0.223-0.708-3.574-2.846
	c-2.016-1.282-2.475-1.491-2.801-1.491L64.728,49.98z" class="color c1"/>
  <path fill="#5F3012" d="M53.858,54.425c-0.508,0-1.199,0.016-2.16,0.047c-1.373,0.05-3.467,0.096-4.656,0.101
	c-2.02,0.015-2.498,0.02-2.654,0.563c-0.037,0.146-0.111,0.419,0.045,0.661c0.164,0.262,0.464,0.314,0.707,0.358
	c0.096,0.02,0.379,0.071,1.973,0.071c2.451,0,7.625-0.146,8.259-0.342c0.188-0.06,0.476-0.144,0.549-0.446
	c0.072-0.3-0.137-0.504-0.25-0.613C55.319,54.478,54.849,54.425,53.858,54.425z" class="color c1"/>
  <path fill="#5F3012" d="M49.308,54.521c1.026-0.077,1.401-0.154,1.592-0.435l0.129-0.26l-0.062-0.203
	c-0.114-0.389-0.383-0.43-0.491-0.43h-0.011c-0.049-0.003-0.161-0.012-0.31-0.023c0.13-0.09,0.234-0.213,0.283-0.395
	c0.063-0.246-0.016-0.423-0.09-0.524c-0.229-0.311-0.668-0.354-1.967-0.413c-0.781-0.031-1.34-0.088-1.387-0.096
	c-0.066-0.022-0.215-0.088-1.023-0.088c-0.313,0-0.867,0.011-1.09,0.082c-0.158,0.05-0.287,0.159-0.363,0.311
	c-0.074,0.146-0.085,0.314-0.039,0.469c0.027,0.083,0.074,0.226,0.4,0.371c-0.127-0.007-0.221-0.012-0.27-0.016
	c-0.437,0-0.799,0.376-0.887,0.728c-0.074,0.292,0.039,0.568,0.293,0.706c0.434,0.229,4.084,0.245,4.119,0.245
	C48.62,54.551,49.036,54.543,49.308,54.521z" class="color c1"/>
  <path fill="#5F3012" d="M48.226,32.343c0.047,0.333-0.142,0.708-0.349,0.917c-0.396,0.397-1.317,0.612-1.983,0.612
	c-0.195,0-0.375-0.02-0.527-0.055c-0.572-0.134-0.816-0.449-0.924-0.688l-0.469-1.042l1.404,0.182
	c0.174,0.021,0.351,0.027,0.494,0.021c-0.078-0.116-0.106-0.24-0.106-0.352c0.006-0.323,0.254-0.598,0.646-0.718
	C46.987,31.035,48.118,31.667,48.226,32.343z" class="color c1"/>
  <path fill="#5F3012" d="M44.756,30.125c0.134-0.252,0.048-0.52-0.006-0.692c-0.199-0.641-1.242-1.549-2.098-2.021
	c-0.523-0.291-0.773-0.324-0.916-0.324c-0.305,0-0.48,0.182-0.547,0.354c-0.066,0.174-0.223,0.583,1.068,1.74
	c0.488,0.436,0.9,0.853,0.984,0.962c0.199,0.255,0.439,0.384,0.715,0.384c0.098,0,0.199-0.018,0.303-0.047
	C44.381,30.44,44.631,30.364,44.756,30.125z" class="color c1"/>
  <path fill="#5F3012" d="M37.081,28.299c-0.28,0.026-0.841,0.063-1.25,0.08c-0.406,0.02-0.952,0.082-1.211,0.161
	c-0.145,0.045-0.416,0.13-0.532,0.39c-0.112,0.252-0.002,0.49,0.049,0.596c0.173,0.369,0.683,0.555,1.513,0.555
	c0.721,0,1.718-0.153,2.148-0.582c0.111-0.112,0.448-0.45,0.291-0.835C37.962,28.359,37.68,28.245,37.081,28.299z" class="color c1"/>
  <path fill="#5F3012" d="M35.375,24.494l0.089-0.227l-0.045-0.168c-0.052-0.183-0.228-0.38-0.57-0.38
	c-0.115,0-0.244,0.022-0.464,0.072c-0.098,0-0.216-0.036-0.319-0.097c-0.406-0.239-0.988-0.363-1.355-0.363
	c-0.295,0-0.505,0.073-0.642,0.232c-0.146,0.165-0.202,0.383-0.158,0.595c0.06,0.273,0.274,0.51,0.591,0.659
	c0.195,0.095,0.586,0.143,1.162,0.143c0.205,0,0.906-0.009,1.277-0.123C35.133,24.78,35.292,24.651,35.375,24.494z" class="color c1"/>
  <path fill="#5F3012" d="M50.679,28.542c-1.326-1.11-1.49-1.263-1.902-1.803c-0.351-0.443-0.625-0.696-0.818-0.753
	c-0.117-0.035-0.221-0.052-0.309-0.052l-0.387,0.037l-0.113,0.273c-0.092,0.227-0.021,0.462,0.219,0.695
	c0.035,0.042,0.117,0.224,0.141,0.399c0.119,1.072,2.168,2.864,3.27,2.864c0.103,0,0.197-0.014,0.287-0.041
	c0.568-0.176,0.621-0.47,0.56-0.703C51.586,29.338,51.565,29.276,50.679,28.542z" class="color c1"/>
  <path fill="#FFFFFF" d="M29.418,6.837c-0.443,0.773-1.069,1.785-1.393,2.254c-0.354,0.507-0.567,0.971-0.636,1.375
	c-0.104,0.621-0.063,1.814,0.043,2.371c0.032-0.14,0.067-0.311,0.099-0.505c0.229-1.388,0.491-2.295,0.878-3.035
	c0.171-0.32,0.426-0.827,0.571-1.127c0.152-0.319,0.473-0.833,0.721-1.165c0.197-0.254,0.547-1.029,0.822-1.735
	c-0.067,0.063-0.132,0.118-0.193,0.155C30.265,5.494,29.87,6.046,29.418,6.837z" class="color c2"/>
  <path fill="#FFFFFF" d="M36.944,9.978c-0.568-0.538-1.047-1.001-1.45-1.408c0.2,0.332,0.402,0.692,0.61,1.075
	c0.213,0.399,0.712,1.119,1.088,1.567c0.292,0.354,0.487,0.604,0.636,0.858c0.122-0.105,0.274-0.188,0.435-0.236
	c-0.029-0.076-0.062-0.162-0.094-0.249C37.94,10.993,37.78,10.782,36.944,9.978z" class="color c2"/>
  <path fill="#FFFFFF" d="M45.508,17.146c0.043-0.173-0.594-0.396-0.721-0.249c-0.052,0.057,0.037,0.185,0.198,0.278
	C45.304,17.362,45.454,17.354,45.508,17.146z" class="color c2"/>
  <path fill="#FFFFFF" d="M41.016,13.921c-0.305-0.172-0.645-0.278-0.75-0.245c-0.127,0.038,0.02,0.167,0.406,0.354
	C41.461,14.41,41.745,14.323,41.016,13.921z" class="color c2"/>
  <path fill="#FFFFFF" d="M39.922,14.971c-0.115,0.215,0.012,0.287,0.564,0.333c0.65,0.055,0.699,0.047,0.656-0.095
	C41.1,15.064,39.991,14.841,39.922,14.971z" class="color c2"/>
  <path fill="#FFFFFF" d="M38.612,13.472c-0.014,0.017-0.074-0.03-0.287-0.111c0.09,0.313,0.164,0.527,0.219,0.669
	c0.008-0.086,0.019-0.167,0.031-0.235C38.618,13.565,38.618,13.494,38.612,13.472z" class="color c2"/>
  <path fill="#FFFFFF" d="M37.749,17.236c-0.152-0.083-0.305-0.093-0.343-0.027c-0.034,0.067,0.036,0.152,0.157,0.187
	C37.927,17.491,38.045,17.394,37.749,17.236z" class="color c2"/>
  <path fill="#FFFFFF" d="M34.015,13.748c-0.113-0.238-0.377-0.844-0.586-1.345c-0.194-0.463-0.605-1.197-0.898-1.604
	c-0.292-0.403-0.649-0.984-0.737-1.262c-0.104-0.337-0.479-1.01-0.68-1.295c-0.107,0.135-0.393,0.522-0.873,1.584
	c-0.738,1.628-1.135,3.594-0.967,4.135c0.165,0.527,0.646,1.08,0.893,1.256c0.222-0.169,0.533-0.316,0.646-0.368
	c0.322-0.144,0.414-0.221,0.632-0.698c0.219-0.477,0.219-0.578,0.123-0.891c-0.152-0.49-0.121-0.918,0.089-1.201
	c0.146-0.203,0.369-0.313,0.625-0.313l0.063,0.002c0.127,0.011,0.313,0.066,0.484,0.287c0.328,0.425,0.549,1.398,0.444,1.969
	c-0.062,0.352-0.253,0.891-0.507,1.361c0.105-0.013,0.225-0.023,0.356-0.039c0.756-0.067,0.756-0.067,1.059-0.378
	C34.457,14.663,34.463,14.656,34.015,13.748z" class="color c2"/>
  <path fill="#FFFFFF" d="M36.003,12.366c-0.546-0.619-1.152-1.528-1.475-2.214c-0.396-0.854-1.762-2.814-2.144-3.146
	c-0.085-0.069-0.175-0.145-0.259-0.204c-0.016,0.1-0.036,0.182-0.058,0.249c0.622,0.397,1.207,1.711,1.237,1.774
	c0.198,0.452,0.599,1.192,0.895,1.647c0.839,1.305,1.459,2.59,1.793,3.721l0.178,0.608l0.033-0.004
	c0.436-0.045,0.451-0.063,0.56-0.182C36.946,14.423,36.781,13.241,36.003,12.366z" class="color c2"/>
  <path fill="#5F3012" d="M26.499,26.82c-0.127,0-0.255,0.003-0.385,0.009c-0.908,0.05-1.466,0.242-1.705,0.588
	c-0.129,0.186-0.164,0.406-0.094,0.624c0.154,0.5,0.723,0.5,1.139,0.5c0.197,0,0.447-0.004,0.761-0.021
	c1.588-0.073,2.003-0.161,2.222-0.471c0.104-0.15,0.133-0.334,0.077-0.521C28.319,26.911,27.167,26.82,26.499,26.82z" class="color c1"/>
  <path fill="#5F3012" d="M25.064,21.998c-0.007-0.17-0.087-0.412-0.43-0.594c-0.516-0.275-0.943-0.097-2.239,0.717
	c-1.32,0.828-1.241,1.544-1.075,1.896c0.134,0.281,0.448,0.465,0.796,0.465c0.353,0,0.626-0.192,0.707-0.468
	c0.112-0.104,0.409-0.332,0.848-0.606C24.648,22.797,25.081,22.448,25.064,21.998z" class="color c1"/>
</svg>