<svg version="1.1" id="图层_1" x="0px" y="0px" width="131.559px" height="93.517px" viewBox="0 0 131.559 93.517" enable-background="new 0 0 131.559 93.517" xml:space="preserve" xmlns="http://www.w3.org/2000/svg" xmlns:xlink="http://www.w3.org/1999/xlink" xmlns:xml="http://www.w3.org/XML/1998/namespace">
  <path fill="#9D4291" d="M120.7,14.379c-30-3-24.8,37.2-60.7,38.4c-36,1.2-59.1,3.9-60,25.3c1.4,19.2,72.4,16.3,97.2,2.2
	C121.3,64.479,143.2,16.679,120.7,14.379z" class="color c1"/>
  <path fill="#8E2D85" d="M120.7,14.379c-9.2-0.9-15.1,2.2-19.8,7c2.7-0.7,7.1-1.6,11.2-1.8c0,0-0.7,2,0.6,5.3c0,0,3.9-2.4,8.2-5.3
	c0,0,1.9,3.5,3.5,7.7c0,0,1.5-0.8,3.5-4.3c0,5.6-10.7,43.7-45.6,56.7c-30.4,11.4-71.5,8.2-82.3-1.1c0.2,20.9,73.6,17.7,98.2,3.7
	C122.9,68.179,143.2,16.679,120.7,14.379z" class="color c2"/>
  <path fill="#86BA00" d="M130.9,3.879c-0.2-3.1-2.2-4.2-3.8-3.8c-4.9,2.1-7,12-10.1,12.6s-12.6,3.4-15.2,7.9
	c7.087-3.595,13.8-3.7,13.8-3.7c-3.3,2.7-2.4,6.6-2.4,6.6c5.6-3.5,8.106-6.012,8.106-6.012c3.1,3.2,4.055,7.606,4.055,7.606
	c0.816-4.315,1.881-6.154,1.881-6.154c2.2,2.9,3.591,10.88,3.191,13.28c1.583-6.764-0.733-14.421-3.433-17.321
	C123.7,11.479,128.6,5.579,130.9,3.879z" class="color c3"/>
  <path fill="#548C12" d="M101.7,20.679c6.4-2.8,13.5-3.7,13.5-3.7l0.5-0.2c1.2-0.8,2.3-1.4,2.3-1.4s-6.4,0.3-15.3,3.9
	C102.3,19.679,101.9,20.279,101.7,20.679z" class="color c4"/>
  <path fill="#548C12" d="M131.1,3.979c-0.1-0.7-0.2-1.3-0.5-1.9c-2.6,2.6-4.1,5.5-5,8.4c-1,3,1.4,4.7,1.7,6.3
	c0.3,1.6-1.3,2.4-2.4,4.8c0,0-1-2.8-3.2-5.7c-0.5,1.4-8.5,7.6-8.5,7.6c5.7-3.3,7.9-5.2,7.9-5.2c3.1,3.2,4.1,7.9,4.1,7.9
	c1.1-4,2-6.1,2-6.1c2.2,2.9,3.1,11,2.8,13.5c3.7-6.7,0-16-2.7-18.9C124.3,11.679,128.8,5.679,131.1,3.979z" class="color c4"/>
</svg>