<svg version="1.1" id="图层_1" x="0px" y="0px" width="81.536px" height="96.031px" viewBox="0 0 81.536 96.031" enable-background="new 0 0 81.536 96.031" xml:space="preserve" xmlns="http://www.w3.org/2000/svg" xmlns:xlink="http://www.w3.org/1999/xlink" xmlns:xml="http://www.w3.org/XML/1998/namespace">
  <path fill="#FF5A34" d="M75.726,40.586l-1.082-2.303l-2.841,1.094l-6.938,2.678c3.951-24.361-20.821-38.35-21.088-38.496L37.32,0
	l2.09,5.907c0.088,0.292,2.25,8.058-14.694,17.769c-15.55,8.906-14.473,23.857-12.943,30.826l-6.268-1.449l-2.903-0.672
	l-0.665,2.281C-5.05,78.674,8.192,88.904,20.529,93.258l6.162,2.174l-2.333-4.906c-2.137-4.498-2.675-10.387-1.619-17.524
	l2.664,0.907l4.981,1.699l-1.067-4.119c-0.042-0.166-4.167-16.771,5.43-24.882c5.312-4.49,7.771-8.711,8.871-11.991
	c3.756,5.176,8.337,14.502,5.807,27.232l-1.035,5.219l5.508-3.134l3.184-1.812c1.521,6.221,4.092,20.027-0.189,29.336l-2.106,4.574
	l5.83-1.824C95.347,83.347,76.544,42.328,75.726,40.586z" class="color c1"/>
</svg>