<svg version="1.1" id="图层_1" x="0px" y="0px" width="40.16px" height="127.682px" viewBox="0 0 40.16 127.682" enable-background="new 0 0 40.16 127.682" xml:space="preserve" xmlns="http://www.w3.org/2000/svg" xmlns:xlink="http://www.w3.org/1999/xlink" xmlns:xml="http://www.w3.org/XML/1998/namespace">
  <path fill="#5F3018" d="M26.019,127.626V29.983c-1.645-1.653-2.914-3.729-3.701-6.055c-2.719-8.022,0.838-17.015,7.943-20.084
	C33.526,2.436,36.828,1.156,40.16,0c-6.289,1.741-12.488,3.925-18.563,6.547c-7.106,3.068-10.663,12.061-7.945,20.084
	c0.787,2.323,2.057,4.4,3.701,6.055v94.967" class="color c1"/>
  <path fill="#5F3018" d="M13.279,127.656v-95.98c-1.646-1.642-2.914-3.701-3.701-6.008c-2.719-7.959,0.839-16.88,7.945-19.924
	c3.264-1.398,6.564-2.669,9.896-3.815C21.13,3.656,14.931,5.821,8.857,8.424C1.751,11.467-1.805,20.388,0.913,28.349
	c0.787,2.304,2.056,4.364,3.701,6.007v93.326" class="color c1"/>
</svg>