<svg version="1.1" id="图层_1" x="0px" y="0px" width="150.9px" height="157px" viewBox="0 0 150.9 157" enable-background="new 0 0 150.9 157" xml:space="preserve" xmlns="http://www.w3.org/2000/svg" xmlns:xlink="http://www.w3.org/1999/xlink" xmlns:xml="http://www.w3.org/XML/1998/namespace">
  <path fill="#FFFFFF" d="M150.9,72.9l-17.3-9.6C121.7,87.6,95.1,88,95.1,88c-4.9,0.4-9.8,0.5-14.8,0.1c-1.9-0.1-3.7-0.9-5.6-1.2
	c-4.3-0.7-6.1-1.6-6.5-5.8c-0.4-4.5-0.9-9-0.5-13.5c0.3-4.5,0.6-11.4,0.8-15.9l0.2-2.2c0-4.6,1.1-9,0.9-13.6c-0.1-3.2,0.5-5.7-1-8.6
	l0.8-1.1c-0.1-0.1-0.1-0.2-0.2-0.4c-2.1-4.1-6.1-6.8-8.5-10.8c-0.2-0.3-0.5-0.6-0.9-0.6c-2.3,0.1-4.6,0.3-6.9,0.4
	c-2,0.1-5.4-0.4-7.2,0.4c-1.2,0.5-1.7,2-2.5,3c-1.8,2.6-3.5,5.2-5.2,7.8c-4.2,6.4-8.2,12.9-12.1,19.6C19.2,57.1,13.4,69,8.5,81.5
	C5.9,88,3.5,94.6,1,101.1c-0.3,0.9-0.7,1.8-1,2.7C16.1,135.3,49,157,86.9,157c23.4,0,44.8-8.2,61.6-21.9c-0.5-4.9-1-9.9-1-14.8
	c0.1-4.8,0.5-9.5,1-14.3L150.9,72.9z M56.4,56.3c-0.6,5-1.3,10.3-2.1,15.3c-0.3,1.7-0.9,3.6-1.2,5.5c-4.2-4-8.7-7.6-12.5-12.1
	c-1.6-1.9-2.3-2.6-3.2-5.1c-1.2-3.3-0.9-6,0.6-9c0,0,8-14.7,14.1-22.7c0.4-0.4,0.8-0.9,1.2-1.3c3.4,6,4,12.8,3.5,19.6
	C57,49.9,56.8,53.1,56.4,56.3z" class="color c1"/>
  <path fill="#E4E4E4" d="M148.8,58.6c-0.2,9.8-0.1,19.6-0.8,29.4c-0.7,10-2.4,20-2.7,30.1c-0.2,6.2,0.6,12.4,1.2,18.8
	c-6.1,4.7-12.8,8.7-19.9,11.9c2.3-10,2-20.5,1.6-30.8c-0.2-5.1,0.1-12.9-3.9-16.1c-10.4-8.4-42-9.7-43.1-9.5
	c4.3-0.9,9.3-0.5,13.8-0.8c4.5-0.4,9.1-0.9,13.6-1.6c8-1.3,14.2-3.5,21.2-7.8c8.9-5.4,14-13.1,14.8-22.8c0.8-10.9,2.2-21.9,0.9-32.8
	c-1.1-9.6-4.4-19.1-10.4-26.5c2.2,0.5,3.9,2,5.2,4.2c2.2,3.8,4.7,7.6,6.6,11.5c2.3,4.6,1.4,9.1,1.9,14C149.7,39.4,149,49,148.8,58.6
	z M51.4,25.7c0.7-0.8,1.4-1.2,1.5-1.4c-1.7-1.6-7.2-3.3-9.1-3.4c-1,1.5-2,3-3,4.5c-3.5,5.2-6.8,10.5-10,15.9
	C23,54.5,16.1,67.9,10.5,82.2c-2.5,6.5-4.9,13-7.4,19.5c-0.6,1.5-1.2,3-1.8,4.5c9,16.3,22.4,29.8,38.8,38.8
	c1.3-9.7,2.9-19.4,4.9-28.9c2.7-12.2,5.7-24.2,7.9-36.5c-0.2,0-0.4-0.1-0.6-0.3c-4.9-4.4-9.5-9.2-13.7-14.2
	c-1.9-2.2-4.2-4.3-4.6-7.3c-0.5-3.7,1.8-7.2,3.4-10.3C41.3,40.4,45.5,31.6,51.4,25.7z" class="color c2"/>
</svg>