<svg version="1.1" id="图层_1" x="0px" y="0px" width="96.519px" height="196.928px" viewBox="0 0 96.519 196.928" enable-background="new 0 0 96.519 196.928" xml:space="preserve" xmlns="http://www.w3.org/2000/svg" xmlns:xlink="http://www.w3.org/1999/xlink" xmlns:xml="http://www.w3.org/XML/1998/namespace">
  <path fill="#FFDC02" d="M84.429,89.272L83.7,87.313c0.859-0.708,1.361-1.569,1.491-2.568c0.253-1.924-1.027-3.713-1.558-4.36
	l-0.072-0.546l0.112-3.618c1.305-3.11,0.303-5.09-0.239-5.848l-0.113-6.137l-0.055-0.305c-1.365-3.9-5.285-4.914-7.383-5.176
	L96.519,5.004l-0.266-0.416C93.834,0.796,90.787,0,88.656,0c-1.851,0-3.191,0.606-3.247,0.633l-0.356,0.164L62.817,57.32
	l-1.127-0.146c-4.796-0.479-9.708-0.722-14.598-0.722c-17.479,0-29.577,3.112-29.644,3.131c-2.595,0.522-4.342,1.548-5.193,3.047
	c-0.761,1.336-0.551,2.592-0.428,3.062l0.016,1.591c-0.296,0.164-0.501,0.378-0.636,0.566c-0.415,0.581-0.456,1.297-0.415,1.804
	c-1.101,1.247-0.594,3.021-0.024,4.044l-0.104,6.77c-1.507,2.141-0.837,4.924-0.648,5.579l0.174,3.29
	c0.119,1.455-2.158,2.481-2.179,2.491l-0.118,0.059c-9.801,5.835-7.773,27.172-7.617,28.674l0.001,47.216
	c0.372,7.411,5.863,14.046,6.129,14.361c9.069,9.814,22.455,14.791,39.786,14.791c18.072,0,34.132-5.625,34.224-5.661
	c11.777-3.232,12.807-22.298,12.846-23.128l0.539-20.039l-0.003-40.341C92.768,94.074,86.243,90.114,84.429,89.272z" class="color c1"/>
</svg>