<svg version="1.1" id="图层_1" x="0px" y="0px" width="155.699px" height="155.699px" viewBox="0 0 155.699 155.699" enable-background="new 0 0 155.699 155.699" xml:space="preserve" xmlns="http://www.w3.org/2000/svg" xmlns:xlink="http://www.w3.org/1999/xlink" xmlns:xml="http://www.w3.org/XML/1998/namespace">
  <path fill="#8DA537" d="M79.678,8.807c0,1.01-0.818,1.828-1.828,1.828l0,0c-1.01,0-1.828-0.818-1.828-1.828V1.828
	C76.021,0.817,76.84,0,77.85,0l0,0c1.01,0,1.828,0.817,1.828,1.828V8.807z M79.678,146.893c0-1.01-0.818-1.828-1.828-1.828l0,0
	c-1.01,0-1.828,0.818-1.828,1.828v6.979c0,1.009,0.818,1.828,1.828,1.828l0,0c1.01,0,1.828-0.819,1.828-1.828V146.893z
	 M153.871,81.506c1.01,0,1.828-0.819,1.828-1.828l0,0c0-1.01-0.818-1.828-1.828-1.828h-6.979c-1.01,0-1.828,0.818-1.828,1.828l0,0
	c0,1.009,0.818,1.828,1.828,1.828H153.871z M8.807,81.506c1.01,0,1.827-0.819,1.827-1.828l0,0c0-1.01-0.817-1.828-1.827-1.828H1.827
	C0.817,77.85,0,78.668,0,79.678l0,0c0,1.009,0.817,1.828,1.827,1.828H8.807z M130.312,132.898c0.714,0.714,1.871,0.714,2.585,0l0,0
	c0.714-0.714,0.715-1.87,0-2.585l-4.935-4.935c-0.714-0.714-1.871-0.714-2.586-0.001l0,0c-0.714,0.714-0.714,1.871,0,2.586
	L130.312,132.898z M27.736,30.32c0.714,0.715,1.871,0.715,2.585,0l0,0c0.713-0.713,0.714-1.87,0-2.584l-4.935-4.935
	c-0.715-0.713-1.872-0.713-2.586,0l0,0c-0.714,0.714-0.714,1.871,0.001,2.586L27.736,30.32z M125.377,29.565
	c-0.714,0.714-0.714,1.871,0,2.585l0,0c0.715,0.714,1.872,0.714,2.586-0.001l4.935-4.934c0.715-0.715,0.714-1.871,0-2.586l0,0
	c-0.714-0.713-1.871-0.713-2.585,0L125.377,29.565z M22.802,132.141c-0.715,0.714-0.715,1.871-0.001,2.585l0,0
	c0.714,0.714,1.871,0.714,2.586,0l4.935-4.935c0.714-0.714,0.713-1.871,0-2.584l0,0c-0.714-0.715-1.871-0.715-2.585,0
	L22.802,132.141z" class="color c1"/>
</svg>