<svg version="1.1" id="图层_1" x="0px" y="0px" width="177.537px" height="200px" viewBox="0 0 177.537 200" enable-background="new 0 0 177.537 200" xml:space="preserve" xmlns="http://www.w3.org/2000/svg" xmlns:xlink="http://www.w3.org/1999/xlink" xmlns:xml="http://www.w3.org/XML/1998/namespace">
  <g>
    <path fill="#895D3A" d="M172.566,101.837c-2.484-0.176-3.227-0.479-5.074-1.42s1.925-4.006,1.525-7.56
		c-0.368-3.284-5.645-2.561-6.625-0.462c-0.651,1.393-1.499,5.977-3.376,9.662c-1.563,3.065-1.98,3.631-2.993,4.917
		c-1.435-1.549-3.011-0.876-3.387-0.592c-0.333,0.252-0.993,2.475-0.941,5.066c-1.965,0.513-4.72,1.368-7.126,1.918
		c-1.531,0.35-6.711,1.813-11.392,3.2c1.762-2.458,3.377-5.028,4.822-7.704c9.368-5.161,11.631-24.306,11.631-34.983
		C149.631,33.077,116.136,0,74.816,0S0,33.077,0,73.88c0,15.322,2.58,21.119,6.358,22.506c4.031,12.809,11.561,24.064,21.463,32.655
		c-0.264,2.575-1.194,9.018-1.956,15.602c-0.706,6.086-1.39,10.563-1.78,12.946c-2.773,0.354-3.341,1.919-3.341,3.465
		c0,0.923,0.281,1.81,1.316,2.364c-1.644,1.827-4.316,5.316-4.801,7.633c-0.718,3.436-0.534,9.186,1.144,12.303
		c1.675,3.115,5.268,5.042,9.334,5.042c4.068,0,10.093-5.234,12.016-7.449s2.432-6.468-0.335-9.896
		c-2.011-2.494-4.326-2.109-5.851-2.139c-0.766,0.682-4.247,1.207-5.979,3.981c-2.028,3.245-0.648,6.47-1.55,6.353
		c-2.568-0.336-1.056-5.168,0.413-7.517c0.973-1.556,3.563-3.224,5.384-3.661c-1.557-1.9-1.122-3.446-0.987-4.906
		c1.553-0.607,1.557-1.517,1.557-2.992c0-0.95-0.58-1.573-1.546-1.975c0.166-2.381,0.491-6.004,1.133-10.748
		c0.466-3.448,1.275-9.811,1.789-13.766c7.941,5.548,17.056,9.528,26.899,11.496c-0.184,3.698-0.204,8.271-0.314,9.393
		c-0.414,4.199-0.254,11.806-0.117,16.087c-3.35,0.147-6.273,0.616-6.838,1.499c-1.365,2.137,0,9.216,0,11.18
		c0,1.963-5.712,7.119-7.323,8.857c-1.61,1.738-1.648,5.123-0.832,5.716c0.816,0.595,10.598,1.493,16.118,1.569
		c4.599,0.063,13.962-1.229,13.962-1.229s0.477-3.362-0.37-6.057c-0.849-2.695-2.956-6.262-2.956-9.35s1.238-9.729-0.412-11.133
		c-0.438-0.373-1.829-0.666-3.661-0.857c-0.244-3.67-0.604-9.732-0.495-12.032c0.128-2.773,0.586-8.843,1.085-12.521
		c2.073,0.181,4.171,0.278,6.291,0.278c4.847,0,9.577-0.489,14.154-1.405c-0.084,4.449-0.228,12.108-0.479,16.696
		c-0.214,3.898-0.51,7.026-0.798,9.409c-1.938,0.183-3.434,0.483-3.897,0.878c-1.648,1.404-1.253,7.695-1.253,10.784
		S81.069,196.645,82,198.293c0.932,1.649,9.477,1.758,14.075,1.693c5.521-0.076,15.396-1.463,16.213-2.057
		c0.816-0.594,1.014-4.242-0.599-5.98c-1.609-1.738-9.711-7.575-9.711-9.539c0-1.963,0.917-7.613-0.446-9.749
		c-0.525-0.821-3.025-1.293-5.995-1.483c-0.029-3.542-0.032-7.898,0.073-10.773c0.124-3.393,0.474-11.81,0.781-17.134
		c11.317-3.564,21.42-9.859,29.546-18.11c0.115,0.451,0.228,0.688,0.338,0.551c3.029-1.404,8.681-3.383,13.564-4.922
		c5.878-1.854,10.886-2.037,13.38-2.611c0.616,1.534,1.39,2.819,2.271,3.175c1.397,0.564,2.265-0.752,2.629-1.823
		c2.241,1.578,5.977,2.471,8.718,2.725c4.942,0.459,8.801,0.766,9.586-2.595c1.307-5.599,0.972-5.032,0.931-7.471
		C177.313,109.75,179.055,102.297,172.566,101.837z M74.816,97.719c-12.648,0-22.903-10.255-22.903-22.903
		c0-12.647,10.255-22.902,22.903-22.902s22.902,10.255,22.902,22.902C97.719,87.464,87.465,97.719,74.816,97.719z M89.919,74.835
		c0,8.234-6.676,14.909-14.909,14.909c-8.234,0-14.91-6.675-14.91-14.909s6.676-14.909,14.91-14.909
		C83.243,59.926,89.919,66.601,89.919,74.835z" class="color c1"/>
    <path fill="#FFFFFF" d="M120.733,63.859c-1.162,1.22-3.096,1.27-4.318,0.108L105.35,53.445c-1.223-1.161-1.27-3.094-0.107-4.317
		c1.161-1.222,3.095-1.271,4.317-0.108l11.065,10.521C121.848,60.703,121.896,62.636,120.733,63.859z M94.742,36.568
		c1.192,1.192,3.127,1.192,4.319,0l10.796-10.797c1.19-1.193,1.19-3.127,0-4.319c-1.193-1.192-3.127-1.192-4.319,0L94.742,32.249
		C93.55,33.441,93.55,35.375,94.742,36.568z M62.013,15.296l14.194,5.625c1.568,0.62,3.342-0.148,3.963-1.715
		c0.623-1.569-0.146-3.344-1.715-3.966L64.263,9.615c-1.568-0.619-3.343,0.149-3.965,1.716
		C59.677,12.898,60.444,14.675,62.013,15.296z M52.677,43.254c1.044,1.325,2.964,1.555,4.289,0.512l11.998-9.444
		c1.322-1.042,1.552-2.963,0.509-4.288c-1.042-1.325-2.964-1.555-4.289-0.51l-11.997,9.443
		C51.863,40.011,51.634,41.93,52.677,43.254z M17.658,50.016c0.666,1.551,2.459,2.269,4.01,1.604l14.035-6.015
		c1.549-0.664,2.269-2.46,1.604-4.01c-0.667-1.551-2.46-2.269-4.011-1.604l-14.033,6.015C17.714,46.67,16.995,48.467,17.658,50.016z
		 M34.674,75.748l-9.649-11.832c-1.065-1.306-2.989-1.501-4.294-0.438c-1.307,1.067-1.502,2.991-0.437,4.299l9.649,11.831
		c1.066,1.306,2.991,1.501,4.296,0.437C35.546,78.979,35.743,77.056,34.674,75.748z M130.349,109.773
		c-7.506-2.718-4.562-18.115-14.301-18.115c-9.168,0-9.168,21.171-21.373,21.171c-12.585,0-6.117-10.263-21.386-10.263
		c-13.313,0-13.742,17.989-22.903,17.989c-13.741,0-12.214-30.502-22.9-30.501c-4.446,0-9.943,3.963-14.852,5.783
		c8.787,25.92,33.332,44.633,62.183,44.633C98.176,140.471,118.709,128.199,130.349,109.773z M140.395,70.312
		c-1.192-1.192-3.128-1.192-4.319,0l-10.797,10.796c-1.19,1.193-1.19,3.128,0,4.318c1.192,1.192,3.127,1.192,4.319,0l10.797-10.795
		C141.585,73.438,141.585,71.504,140.395,70.312z M68.11,61.219c-2.856,0-5.173,2.316-5.173,5.174s2.316,5.173,5.173,5.173
		c2.858,0,5.174-2.315,5.174-5.173S70.969,61.219,68.11,61.219z" class="color c2"/>
  </g>
</svg>