<svg version="1.1" id="图层_1" x="0px" y="0px" width="66.117px" height="29.242px" viewBox="0 0 66.117 29.242" enable-background="new 0 0 66.117 29.242" xml:space="preserve" xmlns="http://www.w3.org/2000/svg" xmlns:xlink="http://www.w3.org/1999/xlink" xmlns:xml="http://www.w3.org/XML/1998/namespace">
  <path fill="#FFFFFF" d="M15.095,27.598c-0.658,0-1.309-0.295-1.74-0.854L0.458,10.003c-0.74-0.958-0.563-2.338,0.396-3.077
	c0.959-0.743,2.338-0.565,3.08,0.396l12.898,16.736c0.743,0.961,0.563,2.342-0.398,3.08C16.035,27.448,15.563,27.598,15.095,27.598z
	 M29.359,24.029c-0.963,0-1.844-0.639-2.115-1.609L23.219,7.875c-0.324-1.169,0.361-2.377,1.529-2.701
	c1.166-0.32,2.379,0.359,2.701,1.532l4.027,14.542c0.32,1.171-0.365,2.38-1.535,2.702C29.751,24.004,29.554,24.029,29.359,24.029z
	 M41.984,22.658c-0.129,0-0.264-0.012-0.396-0.037c-1.188-0.219-1.981-1.364-1.76-2.557L43.18,1.799
	c0.225-1.189,1.35-1.986,2.561-1.761c1.191,0.221,1.979,1.364,1.76,2.554l-3.357,18.266C43.948,21.917,43.025,22.658,41.984,22.658z
	 M53.234,29.242c-0.506,0-1.014-0.174-1.43-0.523c-0.923-0.789-1.027-2.177-0.24-3.099l10.688-12.484
	c0.793-0.918,2.18-1.023,3.1-0.24c0.922,0.79,1.025,2.176,0.236,3.096L54.9,28.477C54.466,28.98,53.852,29.242,53.234,29.242z" class="color c1"/>
</svg>