<svg version="1.1" id="图层_1" x="0px" y="0px" width="70.576px" height="35.412px" viewBox="0 0 70.576 35.412" enable-background="new 0 0 70.576 35.412" xml:space="preserve" xmlns="http://www.w3.org/2000/svg" xmlns:xlink="http://www.w3.org/1999/xlink" xmlns:xml="http://www.w3.org/XML/1998/namespace">
  <path fill="#9DBA5D" d="M4.676,35.289c0-8.207,3.174-15.881,8.998-21.615c5.734-5.822,13.408-8.998,21.613-8.998
	s15.878,3.176,21.612,8.998c5.822,5.734,8.998,13.408,8.998,21.615c0,0.041,0,0.08-0.002,0.123h4.676
	c0-0.043,0.005-0.082,0.005-0.123C70.576,15.793,54.783,0,35.287,0C15.789,0,0,15.793,0,35.289c0,0.041,0,0.08,0,0.123h4.678
	C4.676,35.369,4.676,35.33,4.676,35.289z" class="color c1"/>
  <path fill="#FDFDC6" d="M13.055,18.791c-2.645,3.617-4.496,7.851-5.205,12.438c-0.176,1.498,1.059,2.912,2.561,2.912h21.965
	L16.762,18.524C15.703,17.467,13.938,17.557,13.055,18.791z M51.696,13.057c-3.53-2.646-7.854-4.41-12.438-5.117
	c-1.5-0.176-2.823,0.971-2.823,2.471v21.966L51.958,16.85C53.106,15.703,52.931,13.939,51.696,13.057z M31.229,7.939
	c-4.588,0.707-8.82,2.471-12.352,5.117c-1.234,0.883-1.322,2.646-0.264,3.793L34.14,32.376V10.41
	C34.141,8.91,32.729,7.676,31.229,7.939z M62.634,31.317c-0.707-4.588-2.471-8.909-5.117-12.438
	c-0.883-1.234-2.646-1.322-3.705-0.264L38.285,34.142h21.879C61.662,34.142,62.81,32.815,62.634,31.317z" class="color c2"/>
</svg>