<svg version="1.1" id="图层_1" x="0px" y="0px" width="183.635px" height="109.577px" viewBox="0 0 183.635 109.577" enable-background="new 0 0 183.635 109.577" xml:space="preserve" xmlns="http://www.w3.org/2000/svg" xmlns:xlink="http://www.w3.org/1999/xlink" xmlns:xml="http://www.w3.org/XML/1998/namespace">
  <g>
    <g>
      <path fill="#FECD19" d="M19.885,94.123h147.257c-4.645-36.493-35.894-64.799-73.628-64.799S24.53,57.63,19.885,94.123z" class="color c1"/>
      <path fill="#FBAC1E" d="M76.743,35.453c38.218-0.168,59.376,21.45,67.679,57.588l16.438,0.185
			C156.094,53.162,115.212,24.883,76.743,35.453z" class="color c2"/>
    </g>
    <path fill="#FFFFFF" d="M115.01,52.322c-0.996,2.356-3.625,3.605-6.058,2.817c-5.103-1.651-10.424-2.485-15.874-2.485
		c-0.728,0-1.456,0.015-2.184,0.046c-2.574,0.107-4.799-1.777-5.131-4.332l0,0c-0.377-2.904,1.821-5.502,4.746-5.623
		c0.856-0.035,1.713-0.053,2.569-0.053c6.456,0,12.764,0.984,18.818,2.929C114.701,46.523,116.158,49.607,115.01,52.322
		L115.01,52.322z" class="color c3"/>
    <path fill="#FFFFFF" d="M41.089,82.485L41.089,82.485c-2.72-1.14-3.834-4.367-2.453-6.973c5.945-11.219,15.319-20.436,26.635-26.19
		c2.629-1.337,5.837-0.168,6.93,2.571v0c0.947,2.373-0.041,5.107-2.321,6.259c-9.57,4.838-17.492,12.629-22.493,22.118
		C46.196,82.531,43.446,83.473,41.089,82.485z" class="color c3"/>
    <path fill="#613011" d="M183.635,101.038c0-4-2.821-7.348-6.624-8.275c-4.006-42.791-40.113-76.398-83.934-76.398
		c-43.732,0-79.785,33.468-83.914,76.135H8.745C3.915,92.5,0,96.323,0,101.038c0,4.716,3.915,8.538,8.745,8.538h166.146
		c0.865,0,1.699-0.127,2.488-0.356h0.016v-0.004C181.003,108.165,183.635,104.904,183.635,101.038z M93.077,33.442
		c34.184,0,62.493,25.643,66.701,58.702H26.377C30.585,59.085,58.893,33.442,93.077,33.442z" class="color c4"/>
    <ellipse transform="matrix(0.7071 -0.7071 0.7071 0.7071 19.0942 68.1551)" fill="#613011" cx="91.818" cy="11.029" rx="11.029" ry="11.029" class="color c4"/>
  </g>
</svg>