<svg version="1.1" id="图层_1" x="0px" y="0px" width="270.953px" height="249.4px" viewBox="0 0 270.953 249.4" enable-background="new 0 0 270.953 249.4" xml:space="preserve" xmlns="http://www.w3.org/2000/svg" xmlns:xlink="http://www.w3.org/1999/xlink" xmlns:xml="http://www.w3.org/XML/1998/namespace">
  <path fill="#8F5DAF" d="M270.947,63.011c-0.113-2.225-1.636-3.311-3.94-2.795c-0.348-3.486-0.427-3.543-3.88-3.46
	c-1.526,0.037-3.322,0.655-3.773-1.764c-0.04-0.213-0.969-0.393-1.47-0.358c-1.039,0.072-2.099,0.193-3.095,0.484
	c-1.902,0.556-3.247,0.209-3.629-2.233c-3.249,1.115-6.285,2.158-9.38,3.22c-0.429-3.163-0.922-3.535-3.642-2.576
	c-1.81,0.638-3.502,1.609-5.274,2.364c-0.607,0.259-1.292,0.372-1.953,0.455c-1.084,0.137-2.314-0.096-3.241,0.34
	c-2.809,1.32-5.503,2.887-8.304,4.391c-0.189-0.443-0.325-0.646-0.359-0.864c-0.144-0.947-0.259-1.898-0.384-2.847
	c-0.941,0.466-1.972,0.81-2.807,1.42c-2.325,1.698-4.57,3.507-6.847,5.271c-0.226-0.192-0.452-0.384-0.678-0.576
	c0.953-2.09,1.76-4.263,2.896-6.248c1.437-2.511,3.197-4.836,4.691-7.317c0.34-0.564,0.159-1.441,0.217-2.174
	c-0.657,0.092-1.361,0.069-1.961,0.306c-0.695,0.275-1.298,0.779-1.942,1.183c-0.157-0.119-0.313-0.239-0.47-0.358
	c2.125-4.187,4.213-8.393,6.385-12.556c2.013-3.857,1.953-4.401-0.972-6.713c0.792-1.882,2.497-3.918,2.124-5.446
	c-0.881-3.607,0.477-6.376,1.987-9.233c0.706-1.336,0.875-2.376,0.036-3.78c-0.494-0.826-0.552-2.231-0.219-3.167
	c0.665-1.869,0.916-3.174-2.186-2.917c0.94-1.37,1.669-2.308,2.245-3.331c0.26-0.461,0.215-1.093,0.308-1.648
	c-0.6,0.004-1.371-0.227-1.763,0.06c-0.755,0.554-1.299,1.398-1.924,2.127c-0.816,0.951-1.625,1.907-2.554,2.997
	c-0.62-1.845,1.852-3.503-0.419-5.164c-2.446,2.761-4.818,5.437-7.24,8.171c-1.215-2.054-1.811-2.083-2.9-0.364
	c-1.276,2.013-2.54,4.033-3.746,5.949c-0.621-0.944-1.097-1.669-1.574-2.394c-0.642,0.691-1.432,1.295-1.901,2.088
	c-1.856,3.143-3.611,6.346-5.46,9.628c-0.749-1.158-1.202-1.859-1.656-2.56c-0.589,0.603-1.354,1.111-1.733,1.825
	c-1.128,2.128-2.139,4.319-3.122,6.519c-0.461,1.031-0.795,1.81-2.274,1.465c-0.503-0.118-1.553,0.816-1.886,1.497
	c-1.046,2.14-1.871,4.388-2.806,6.656c-1.064-0.49-1.818-0.837-2.998-1.38c-0.918,2.982-1.745,5.72-2.612,8.445
	c-0.209,0.657-0.521,1.288-0.84,1.902c-0.662,1.274-1.569,2.464-1.99,3.81c-0.524,1.674-0.623,3.478-0.984,5.209
	c-0.104,0.499-0.474,1.344-0.733,1.348c-2.762,0.044-2.112,2.12-2.19,3.647c-0.251,4.908-0.396,9.821-0.625,14.73
	c-0.055,1.185,0.057,2.283-1.971,2.141c-4.871-0.34-9.804-0.712-14.649-0.307c-8.206,0.684-14.264,5.095-18.224,12.281
	c-0.962,1.746-1.595,3.684-2.285,5.568c-0.754,2.058-2.147,3.228-4.341,3.157c-2.003-0.065-4.036-0.153-5.99-0.553
	c-7.393-1.513-14.404-0.826-20.948,3.174c-0.42,0.256-1.013,0.278-1.532,0.314c-4.065,0.287-8.222,0.113-12.177,0.926
	c-5.657,1.163-11.201,2.927-16.731,4.637c-16.147,4.993-31.723,11.19-45.144,21.846c-6.028,4.786-9.901,10.89-11.733,18.355
	c-0.862,3.513-1.843,7.002-2.918,10.455c-0.258,0.829-1.005,1.599-1.706,2.181c-2.028,1.681-2.883,3.747-2.698,6.376
	c0.129,1.832-0.015,3.682-0.014,5.524c0,0.635-0.184,1.575,0.151,1.856c2.351,1.969,1.315,3.791,0.011,5.729
	c-0.335,0.498-0.557,1.267-0.446,1.837c0.402,2.058,0.969,4.084,1.528,6.345c-2.166,2.915-5.325,5.916-2.669,10.515
	c0.186,0.322,0.135,0.786,0.175,1.187c0.398,3.988,1.875,5.324,5.79,5.274c0.468-0.006,0.938,0.144,0.718,0.108
	c0.656,1.557,1.036,2.727,1.626,3.779c0.506,0.904,1.259,1.668,1.889,2.503c5.601,7.417,12.307,13.553,20.408,18.209
	c9.272,5.328,19.91,6.649,29.705,10.421c0.809,0.312,1.733,0.34,2.608,0.466c9.558,1.376,19.118,2.74,28.676,4.119
	c9.4,1.357,18.765,3.036,28.203,4.019c13.275,1.382,26.552,0.365,39.798-0.948c6.408-0.635,12.864-0.87,19.238-1.734
	c10.457-1.418,20.588-4.249,30.717-7.236c13.127-3.871,25.433-9.216,36.161-17.744c2.894-2.3,5.219-5.419,7.428-8.438
	c1.311-1.792,1.822-4.189,3.823-4.031c0.815-1.915,1.432-3.313,2-4.73c0.198-0.495,0.482-1.087,0.375-1.553
	c-0.818-3.539,0.461-6.544,2.433-9.284c3.009-4.18,3.718-8.285,0.876-12.954c-1.902-3.126-1.683-3.39,1.587-5.337
	c2.524-1.503,3.734-3.414,3.057-6.387c-0.231-1.014-0.223-2.08-0.344-3.12c-0.387-3.332-1.652-6.07-5.383-7.343
	c2.1-6.401,0.99-12.247-1.235-18.141c-3.35-8.875-7.778-16.944-15.073-23.235c-6.2-5.347-13.574-8.212-21.311-10.36
	c-3-0.833-6.002-1.66-8.824-2.441c-0.193-2.597,1.057-3.006,3.149-2.922c2.293,0.092,5.303,0.516,6.751-0.696
	c2.321-1.943,4.765-2.256,7.379-2.859c1.439-0.332,2.705-1.365,4.094-1.979c1.737-0.769,3.526-1.42,5.282-2.148
	c0.632-0.262,1.744-0.562,1.769-0.909c0.231-3.092,2.547-3.211,4.772-3.738c3.657-0.867,3.76-1.149,2.854-4.721
	c1.854-0.631,3.719-1.302,5.608-1.896c1.523-0.479,2.447-1.176,1.73-2.982c-0.154-0.388,0.025-1.195,0.338-1.437
	c2.395-1.858,4.84-3.654,7.316-5.402c0.906-0.64,2.844-1.339,2.774-1.605C269.243,67.751,271.073,65.473,270.947,63.011z
	 M169.905,62.706c1.724-6.229,3.408-12.299,5.084-18.371c0.396-1.435,0.62-2.969,2.829-1.994c0.322,0.142,1.361-0.672,1.655-1.253
	c0.974-1.924,1.759-3.943,2.685-6.083c2.085,0.964,3.078,0.094,3.61-1.894c0.37-1.381,1.03-2.693,1.647-3.994
	c0.223-0.47,0.712-1.178,1.06-1.167c3.335,0.107,4.03-2.814,5.509-4.753c1.548-2.03,2.239-4.962,5.664-4.774
	c0.315,0.017,0.696-0.383,0.976-0.661c3.337-3.308,6.661-6.63,10.163-10.122c2.647,4.074,3.912-0.87,6.129-0.372
	c0.149,0.378,0.615,0.957,0.493,1.352c-0.557,1.798,0.215,3.11,0.942,4.685c0.398,0.863-0.531,2.683-1.346,3.67
	c-0.895,1.083-1.533,1.89-1.045,3.372c0.225,0.684,0.136,1.714-0.247,2.306c-0.887,1.372-1.302,2.474,0.893,3.234
	c-1.014,1.425-1.968,2.515-2.621,3.763c-0.501,0.957-0.622,2.113-0.912,3.18c1.021,0.129,2.041,0.268,3.063,0.383
	c0.307,0.035,0.62,0.005,1.536,0.005c-1.655,2.449-3.145,4.5-4.45,6.663c-0.512,0.848-0.607,1.948-0.893,2.932
	c-0.169,0.584-0.245,1.221-0.534,1.737c-0.43,0.766-1.063,1.416-1.522,2.168c-1.986,3.26-1.708,4.202,1.877,5.914
	c-2.355,5.388-7.492,8.255-11.255,12.693c-0.99-1.904-1.864-1.19-2.972-0.184c-2.373,2.155-4.879,4.163-7.481,6.358
	c-1.239-1.692-2.514-0.997-3.655,0.204c-3.318,3.492-6.731,6.908-9.829,10.587c-1.461,1.735-2.552,1.861-4.131,0.488
	c-0.666-0.579-1.346-1.177-2.11-1.604c-2.045-1.144-4.361-2.066-2.341-5.106c0.235-0.353-0.099-1.076-0.151-1.629
	c-0.363-3.804-0.721-7.608-1.099-11.599C168.492,62.773,169.326,62.734,169.905,62.706z M132.366,92.754
	c1.652-2.264,2.966-4.847,4.915-6.806c4.798-4.824,10.974-6.066,17.559-6.069c2.477,0.247,4.974,0.369,7.427,0.764
	c11.522,1.854,18.312,14.277,13.502,24.97c-0.913,2.028-2.714,3.739-4.355,5.341c-4.26,4.158-9.066,7.409-15.09,8.541
	c-5.367,1.009-10.569,0.134-15.724-1.199c-1.014-0.262-2.217-0.992-2.712-1.861c-2.726-4.784-6.373-9.116-7.406-14.764
	C129.886,98.412,130.394,95.455,132.366,92.754z M111.359,100.381c4.616-0.043,9.006,1.211,12.855,3.516
	c1.933,1.157,3.272,3.611,4.397,5.734c1.342,2.533,2.037,5.399,3.246,8.013c1.671,3.613,1.724,7.108-0.052,10.669
	c-4.424,8.873-11.535,14.053-21.341,15.435c-6.058,0.854-14.29-1.579-17.868-9.413c-2.923-6.4-4.228-12.561-2.085-19.32
	C93.528,105.496,100.415,100.657,111.359,100.381z M5.872,202.712c-0.912-0.059-2.237-1.254-2.486-2.17
	c-0.318-1.169,0.183-2.603,0.519-3.873c0.073-0.278,1.137-0.632,1.398-0.451c0.52,0.361,1.019,1.025,1.141,1.64
	c0.55,2.785,3.076,3.856,6.361,2.143c-1.39-0.396-2.358-0.507-3.147-0.943c-0.779-0.429-1.9-1.136-1.964-1.807
	c-0.276-2.902-2.057-2.842-4.137-2.469c-0.371,0.067-0.737,0.168-1.105,0.253c-0.192-0.164-0.384-0.328-0.576-0.491
	c1.046-1.474,2.025-3.006,3.199-4.37c0.21-0.244,1.323,0.051,1.849,0.374c0.81,0.497,1.491,1.214,2.194,1.872
	c4.987,4.665,11.036,6.82,17.629,8.271c6.957,1.531,13.681,4.096,20.593,5.87c5.658,1.452,11.437,2.436,17.177,3.556
	c1.274,0.249,2.44,0.108,2.625,2.019c0.132,1.359,1.396,1.817,2.786,1.189c0.488-0.221,1.37-0.621,1.457-0.499
	c0.385,0.537,0.689,1.22,0.755,1.878c0.115,1.134,0.032,2.288,0.032,3.78c-4.269-2.391-7.886,0.085-11.397,1.992
	c-0.356-0.525-0.518-0.653-0.522-0.787c-0.151-4.21-0.164-4.293-4.46-4.932c-1.577-0.234-3.208-0.082-4.808-0.199
	c-2.685-0.196-5.366-0.659-8.047-0.654c-2.945,0.005-5.642-2.162-8.852-0.459c-2.113,1.121-4.044-0.479-5.363-2.219
	c-1.404-1.853-3.117-2.152-5.372-2.401c-3.087-0.341-6.184-1.517-9.028-2.861C11.569,204.66,9.096,202.92,5.872,202.712z
	 M250.842,212.803c-1.966,2.213-3.814,4.616-6.113,6.432c-10.324,8.159-22.148,13.239-34.768,16.744
	c-9.525,2.645-18.852,6.08-28.735,7.235c-7.034,0.822-14.093,1.456-21.155,1.985c-8.828,0.661-17.663,1.339-26.507,1.626
	c-10.114,0.328-20.01-1.777-29.961-3.271c-11.937-1.792-23.94-3.146-35.872-4.969c-4.338-0.663-8.559-2.106-12.822-3.236
	c-2.952-0.783-5.86-1.744-8.831-2.445c-12.303-2.904-22.159-9.635-30.239-19.172c-1.592-1.879-3.105-3.826-4.655-5.742
	c0.186-0.279,0.373-0.559,0.559-0.838c0.847,0.436,1.793,0.748,2.522,1.331c2.549,2.038,5.081,3.385,8.629,2.391
	c1.206-0.338,3.568,0.667,4.251,1.77c1.997,3.226,4.879,3.31,8.002,3.211c0.157-0.005,0.372-0.154,0.46-0.092
	c2.539,1.778,5.438-0.498,8.064,0.727c0.732,0.341,1.711,0.182,2.578,0.197c3.782,0.062,7.564,0.097,11.346,0.167
	c0.285,0.005,0.565,0.215,0.981,0.383c-0.172,0.6-0.288,1.131-0.476,1.635c-0.926,2.483,0.007,3.712,2.661,3.246
	c1.321-0.232,2.64-0.738,3.838-1.356c3.486-1.798,7.551-1.425,10.187,1.443c1.301,1.415,2.598,1.715,4.269,1.333
	c3.604-0.824,7.227-1.581,10.795-2.54c1.571-0.422,2.664-0.171,3.967,0.83c0.969,0.744,2.438,1.07,3.708,1.14
	c3.269,0.181,6.552,0.162,9.828,0.133c1.736-0.016,3.545,0.049,5.188-0.405c2.176-0.601,3.682-0.175,5.08,1.582
	c0.539,0.678,1.739,1.401,2.472,1.257c3.435-0.675,6.875-1.46,10.18-2.593c1.513-0.518,2.395-0.737,3.523,0.606
	c0.511,0.608,1.761,0.956,2.6,0.847c1.493-0.194,2.926-0.839,4.392-1.269c0.527-0.155,1.222-0.501,1.593-0.301
	c2.487,1.339,4.424-0.044,6.574-0.984c2.028-0.886,4.21-1.57,6.392-1.911c1.944-0.304,3.531,0.367,4.818,2.345
	c1.664,2.557,4.732,3.141,7.617,3.399c0.724,0.065,1.661-0.848,2.299-1.505c1.843-1.899,3.962-2.715,6.553-1.982
	c2.07,0.586,3.722,0.19,5.175-1.535c0.405-0.481,1.74-0.655,2.377-0.368c1.31,0.592,2.075,0.578,3.108-0.594
	c0.546-0.619,2.039-0.921,2.881-0.656c1.858,0.585,3.343,0.469,4.998-0.627c0.697-0.462,2.283-0.507,2.886-0.021
	c2.145,1.725,4.367,1.784,6.824,1.102c3.4-0.945,6.816-1.83,10.221-2.756c0.541-0.147,1.132-0.277,1.575-0.591
	c2.361-1.675,4.586-2.899,7.716-1.343c0.956,0.475,3.015-0.74,4.305-1.584c2.184-1.427,3.947-1.541,5.626,0.662
	c1.098,1.44,2.251,1.151,3.785,0.358c1.63-0.842,3.593-1.476,5.398-1.444c3.013,0.053,3.998-0.322,5.25-3.03
	c0.33-0.713,1.197-1.177,1.817-1.756c0.414,0.877,1.065,1.729,1.164,2.641C251.82,211.331,251.345,212.237,250.842,212.803z
	 M73.359,218.512c2.898-0.883,3.887,0.793,4.938,2.354c-0.138,0.239-0.276,0.479-0.414,0.718
	C76.513,220.654,75.145,219.724,73.359,218.512z M257.637,198.43c0.083,2.269,0.844,4.538-1.699,6.102
	c-0.255,0.157,0.105,1.315,0.214,2.322c-1.698-0.245-3.208-0.337-4.649-0.701c-2.011-0.508-3.242,0.218-4.057,2.018
	c-1.381,3.049-1.774,3.059-5.225,2.654c-1.432-0.168-3.2,0.268-4.405,1.057c-1.276,0.834-2.035,0.775-2.843-0.254
	c-1.892-2.409-4.008-2.236-6.324-0.71c-1.998,1.316-4.054,1.454-6.442,0.926c-1.347-0.298-2.994,0.536-4.452,1.022
	c-2.23,0.744-4.405,1.652-6.621,2.44c-0.96,0.341-1.951,0.63-2.951,0.817c-3.352,0.626-6.736,2.608-10.01-0.336
	c-1.21-1.088-2.552-0.943-3.601,0.332c-1.346,1.636-2.704,1.836-4.646,0.816c-0.843-0.442-2.26,0.197-3.413,0.362
	c-0.843,0.12-1.789,0.582-2.499,0.337c-1.4-0.482-2.319-0.239-3.067,0.988c-1.064,1.744-2.678,2.335-4.572,1.807
	c-3.104-0.866-5.593-0.367-7.679,2.343c-1.251,1.625-4.59,1.177-6.482-1.293c-1.616-2.109-3.523-2.977-5.875-3.586
	c-1.059-0.274-1.977-1.057-3.008-1.492c-0.583-0.246-1.285-0.387-1.897-0.306c-0.254,0.034-0.677,1.04-0.571,1.144
	c0.447,0.44,1.065,0.707,1.672,1.069c-3.175,1.725-6.332,3.617-10.345,2.524c-0.821-0.224-1.89,0.129-2.754,0.456
	c-2.686,1.019-5.023,0.66-7.091-1.396c-2.18-2.167-3.237-1.992-4.608,0.692c-1.477,2.894-4.962,3.897-7.565,1.936
	c-2.367-1.784-4.798-2.28-7.695-1.787c-1.866,0.317-3.839-0.045-5.761,0.006c-3.037,0.081-6.071,0.252-9.106,0.386
	c-0.478,0.021-1.063,0.238-1.41,0.037c-0.563-0.325-0.97-0.919-1.442-1.4c0.47-0.323,0.925-0.669,1.412-0.963
	c1.136-0.686,2.287-1.346,3.431-2.016c-0.096-0.314-0.193-0.628-0.289-0.942c-0.782-0.072-1.57-0.103-2.344-0.227
	c-0.72-0.115-1.615-0.113-2.099-0.54c-1.163-1.026-1.999-0.716-2.412,0.503c-1.645,4.86-6.161,4.685-9.933,5.492
	c-1.03,0.22-2.695-1.15-3.619-2.191c-0.993-1.118,0.144-2.746,1.989-2.87c2.569-0.173,5.151-0.143,7.726-0.242
	c0.754-0.029,1.503-0.201,2.255-0.307c-0.014-0.178-0.028-0.357-0.041-0.535c-1.503,0-3.022,0.138-4.504-0.037
	c-1.608-0.19-3.409,0.978-4.901-0.786c-0.239-0.283-1.879,0.5-2.795,0.946c-0.71,0.345-1.256,1.015-1.955,1.395
	c-1.747,0.951-3.245,0.077-3.523-1.863c-0.154-1.079-0.578-2.12-0.927-3.341c5.847-1.012,11.807-0.543,17.777-0.026
	c5.052,0.438,10.112,1.05,15.172,1.089c13.287,0.101,26.61,0.51,39.855-0.282c15.405-0.921,30.743-2.98,46.109-4.561
	c6.721-0.692,13.492-1.095,20.144-2.207c13.076-2.186,26.096-4.719,39.114-7.242c2.935-0.569,5.765-1.685,8.643-2.549
	c0.104,0.185,0.208,0.369,0.312,0.554C258.749,196.82,257.608,197.647,257.637,198.43z M261.909,188.828
	c-1.692,2.932-4.452,4.523-7.476,5.358c-6.891,1.904-13.82,3.751-20.833,5.11c-8.6,1.667-17.269,3.087-25.966,4.127
	c-17.411,2.081-34.897,3.562-52.282,5.829c-8.708,1.135-17.334,0.784-26.018,0.649c-11.27-0.176-22.547-0.015-33.814-0.283
	c-9.803-0.234-19.598-0.82-29.393-1.331c-6.801-0.355-13.284-2.114-19.747-4.246c-7.468-2.464-15.07-4.579-22.713-6.435
	c-7.679-1.865-13.407-6.386-18.394-12.163c-1.292-1.497-1.559-3.173-0.516-4.907c1.156-1.922,2.178-4.172,4.96-3.942
	c2.085,0.172,3.807,0.921,4.558,3.273c0.763,2.389,5.073,4.149,7.813,3.287c2.761-0.869,5.175-1.296,7.319,1.489
	c1.124,1.46,3.128,1.368,4.607,0.175c2.076-1.675,4.152-1.789,6.526-0.771c0.836,0.358,1.932,0.493,2.808,0.291
	c1.817-0.419,2.979,0.105,3.674,1.792c0.747,1.813,2.158,2.408,4.044,2.403c2.17-0.006,4.354,0.05,6.506,0.301
	c2.461,0.287,4.813,0.358,7.048,2.301c1.211,1.053,4.478,0.702,6.318-0.126c3.776-1.698,7.383-2.36,11.453-1.429
	c1.385,0.317,3.22-0.138,4.507-0.855c2.173-1.212,3.984-1.286,6.044,0.131c0.868,0.597,2.052,0.809,3.126,1.018
	c1.784,0.346,3.716,0.193,4.626,2.391c0.17,0.411,1.379,0.633,2.055,0.541c1.181-0.16,2.341-0.574,3.472-0.986
	c1.285-0.468,2.292-0.628,3.457,0.563c0.543,0.555,1.993,0.215,3.031,0.296c1.354,0.105,2.903-0.155,4.016,0.422
	c1.921,0.996,3.465,1.073,5.024-0.446c0.058-0.056,0.106-0.123,0.169-0.172c0.872-0.679,8.227-0.165,8.874,0.722
	c1.012,1.389,2.352,1.788,3.819,1.197c2.137-0.861,4.244-1.845,6.237-2.996c1.244-0.718,2.089-0.872,3.135,0.279
	c2.577,2.837,5.221,2.667,7.616-0.388c0.397-0.506,0.67-1.27,1.182-1.485c0.669-0.281,1.931-0.47,2.217-0.116
	c1.25,1.549,2.338,1.207,3.711,0.247c1.418-0.992,2.759-1.014,4.012,0.539c0.408,0.506,1.555,0.796,2.228,0.631
	c1.612-0.395,3.144-1.12,4.86-1.769c0.612,2.01,1.882,1.95,3.596,1.575c2.023-0.442,4.162-0.319,6.233-0.584
	c1.409-0.18,2.791-0.589,4.178-0.928c0.534-0.131,1.19-0.652,1.544-0.482c2.313,1.112,3.331,0.137,4.046-2.034
	c0.499-1.517,1.914-1.449,3.023-0.77c2.527,1.547,4.63,1.512,6.471-1.061c0.247-0.346,1.356-0.557,1.642-0.32
	c3.247,2.69,6.677,2.204,10.263,0.883c3.469-1.278,7.007-1.524,10.688-0.774c1.397,0.285,2.964-0.263,4.454-0.437
	c2.034-0.238,4.087-0.377,6.095-0.755c1.639-0.308,3.59-0.481,4.743-1.477c1.541-1.33,2.564-1.317,3.931-0.134
	c0.425,0.368,0.883,0.702,1.347,1.021c2.066,1.421,2.277,1.25,3.319-1.037c0.294-0.646,1.508-1.013,2.371-1.231
	c1.721-0.434,3.486-0.902,5.243-0.945c2.509-0.062,5.473-0.536,7.435,0.583C263.189,182.011,263.415,186.218,261.909,188.828z
	 M264.225,160.94c3.947,3.579,2.949,10.766-1.669,13.372c-0.931,0.526-1.738,1.397-2.389,2.269
	c-1.338,1.793-2.933,2.284-4.789,1.047c-1.344-0.895-2.143-1.07-3.427,0.332c-0.781,0.853-2.582,1.148-3.888,1.072
	c-3.42-0.201-3.412-0.337-5.411,2.172c-0.428-0.323-0.881-0.622-1.286-0.977c-2.794-2.451-2.9-2.299-5.634,0.172
	c-0.952,0.86-2.827,1.308-4.11,1.061c-2.297-0.443-4.26-0.238-6.23,0.957c-2.19,1.328-4.353,1.201-6.144-0.693
	c-0.987-1.044-1.68-0.884-2.898-0.329c-2.685,1.225-5.481,2.253-8.311,3.097c-2.192,0.654-4.299,0.092-6.103-1.419
	c-1.722-1.442-3.294-1.596-4.581,0.594c-0.784,1.333-1.821,1.519-3.281,0.905c-3.843-1.616-3.742-1.441-6.553,1.608
	c-0.63,0.684-2.481,0.242-4.223,0.346c-2.326,3.622-6.674,1.584-10.32,2.26c-0.073,0.014-0.2-0.003-0.229-0.05
	c-1.967-3.212-4.002-0.868-6.097-0.17c-0.82,0.273-2.106,0.311-2.71-0.155c-1.643-1.267-3.246-0.898-5.038-0.675
	c-1.341,0.167-2.759-0.417-4.145-0.435c-0.971-0.012-2.032,0.198-2.889,0.632c-0.563,0.285-0.825,1.152-1.242,1.744
	c-1.84,2.618-2.605,2.691-4.867,0.478c-2.006-1.962-3.747-2.087-5.965-0.364c-2.176,1.691-4.472,3.031-7.6,3.146
	c0.154-1.124,0.266-1.946,0.413-3.021c-1.187,0-2.278,0.007-3.369-0.002c-2.123-0.018-4.25-0.12-6.368-0.027
	c-0.774,0.034-1.552,0.474-2.285,0.82c-0.8,0.377-1.551,0.859-2.594,1.448c0.047-3.216,0.004-3.241-2.39-2.309
	c-0.974,0.379-1.986,0.67-2.937,1.097c-1.12,0.503-1.71,0.275-2.242-0.906c-0.222-0.492-1.248-0.798-1.935-0.851
	c-0.582-0.045-1.229,0.34-1.8,0.629c-2.34,1.182-4.087,1.224-6.615-0.576c-2.763-1.967-6.581-2.587-10.036-3.373
	c-1.206-0.274-2.677,0.796-4.062,1.085c-1.499,0.312-3.204,0.945-4.525,0.52c-2.547-0.819-4.876-0.748-7.299,0.133
	c-1.436,0.522-2.863,1.292-4.34,1.417c-1.659,0.141-3.526,0.048-5.023-0.595c-2.676-1.149-5.263-1.523-8.185-1.345
	c-3.094,0.189-6.368-0.02-8.789-2.56c-1.613-1.692-3.219-3.169-5.859-1.973c-0.537,0.243-1.449-0.038-2.069-0.331
	c-2.454-1.159-4.603-0.806-6.774,0.795c-0.601,0.443-2.318,0.5-2.569,0.114c-2.06-3.169-5.087-2.824-7.993-2.224
	c-3.984,0.822-5.143,0.386-7.205-3.184c-0.502-0.87-1.544-1.671-2.506-1.983c-2.132-0.691-4.361-1.101-6.569-1.53
	c-1.472-0.286-2.265-0.735-1.974-2.55c0.262-1.633-0.104-3.359-0.106-5.043c-0.004-3.242,1.853-5.527,4.69-5.026
	c1.786,0.316,3.653,1.607,4.923,2.98c1.082,1.17,1.646,1.683,3.105,0.778c1.616-1.002,3.386-2.615,5.06,0.042
	c0.126,0.2,0.67,0.358,0.874,0.253c2.397-1.231,3.214,0.67,4.623,1.961c1.337,1.224,3.332,1.705,4.978,2.62
	c2.086,1.158,3.691,0.023,5.37-0.94c1.246-0.714,2.061-0.399,2.629,0.975c1.094,2.644,0.186,5.023-2.493,6.1
	c-0.892,0.358-1.82,0.662-2.76,0.857c-1.171,0.244-2.37,0.351-4.02,0.582c0.648-0.819,1.026-1.298,1.605-2.031
	c-1.074-0.358-2.013-0.671-2.899-0.966c0.316-1.242,0.64-2.513,0.964-3.784c-1.342,0.102-2.684,0.205-4.191,0.32
	c-0.181-0.631-0.385-1.344-0.709-2.474c-1.84,1.465-3.476,2.715-5.033,4.056c-0.265,0.228-0.193,0.847-0.277,1.285
	c0.495,0.019,1.006,0.128,1.482,0.041c1.841-0.337,3.671-0.737,6.04-1.224c-0.757,2.034-1.277,3.43-1.892,5.084
	c7.989,2.408,14.019-1.083,19.548-6.5c0.734,2.381-0.589,5.283,2.608,5.156c-0.15-1.251-0.572-2.474-0.369-3.584
	c0.337-1.852,1.312-3.366,3.624-2.948c2.547,0.46,0.704,2.259,0.829,3.161c3.617,0.931,7.001,1.802,10.886,2.801
	c-1.821,1.29-3.387,2.4-4.954,3.51c0.131,0.255,0.262,0.509,0.393,0.764c1.449-0.698,2.898-1.397,4.48-2.159
	c0.948,0.99,1.215,1.907-0.409,2.655c-0.146,0.067-0.311,0.116-0.43,0.217c-1.075,0.92-3.414,1.126-2.719,3.106
	c0.757,2.158,2.732,1.037,4.194,0.675c3.895-0.964,7.74-2.132,11.649-3.03c1.555-0.357,3.443-1.547,4.685,0.822
	c0.125,0.238,1.411,0.186,1.843-0.144c0.439-0.336,0.822-1.596,0.649-1.736c-0.847-0.687-1.861-1.516-2.864-1.585
	c-1.777-0.122-3.597,0.216-5.383,0.473c-0.68,0.098-1.353,0.435-1.966,0.777c-3.404,1.898-7.022,3.037-11.122,2.904
	c2.703-1.494,5.405-2.988,8.108-4.481c-0.117-0.258-0.235-0.515-0.352-0.773c-0.933,0.242-1.867,0.484-3.092,0.802
	c-0.215-0.954-0.412-1.827-0.719-3.188c2.461,1.694,4.32,0.835,6.157-0.273c1.301-0.785,2.531-1.156,3.404,0.605
	c0.132,0.266,0.42,0.494,0.688,0.648c1.195,0.687,6.704-0.184,7.967-0.844c1.42-0.742,3.046-1.218,4.634-1.443
	c0.556-0.079,1.575,0.802,1.851,1.466c1.121,2.693,1.551,2.971,4.424,1.644c1.703-0.787,3.27-1.468,4.797,0.513
	c-1.043,0.537-2.031,1.046-3.019,1.554c0.082,0.282,0.163,0.563,0.245,0.845c0.819-0.128,1.702-0.101,2.445-0.41
	c2.878-1.197,2.855-1.234,4.042,1.521c0.179,0.416,0.447,0.794,0.576,1.021c-1.281,0.739-2.457,1.418-3.889,2.244
	c1.993,2.086,3.763,2.456,5.777,1.537c0.059-0.283,0.117-0.565,0.176-0.848c-0.91-0.186-1.82-0.371-3.388-0.691
	c1.512-0.936,2.753-1.666,3.947-2.465c0.42-0.281,0.726-0.734,1.084-1.109c-0.365-0.225-0.784-0.7-1.087-0.634
	c-1.832,0.397-2.2-0.563-2.347-2.098c-0.065-0.678-0.695-1.301-1.328-2.399c0.91,0.147,1.552,0.135,2.097,0.359
	c2.813,1.154,2.913,1.118,3.821-1.805c0.136-0.439,0.391-0.841,0.823-1.746c1.051,1.343,1.94,2.401,2.74,3.522
	c1.004,1.408,2.208,2.103,3.925,1.364c2.018-0.868,4.103-1.616,6.02-2.669c1.462-0.803,2.352-0.423,3.341,0.675
	c1.354,1.503,2.809,2.915,4.51,4.664c-1.683,1.412-3.707,3.111-6.182,5.188c-0.109-1.524-0.157-2.195-0.218-3.048
	c-1.448,0.297-2.715,0.557-3.982,0.817c-0.146-1.113-0.293-2.225-0.5-3.795c-3.347,1.161-6.765,2.347-10.205,3.54
	c0.846,1.549,0.86,1.581,3.593,0.326c1.288-0.592,2.508-1.335,3.753-2.007c2.155,3.9,2.155,3.9,0.835,5.9
	c2.35,0.808,9.142-0.975,10.711-3.073c1.187-1.587,2.289-2.534,4.415-1.878c0.72,0.222,1.678-0.338,2.531-0.526
	c0.529-0.117,1.064-0.207,1.477-0.286c-0.324,1.438-1.175,3.104-0.723,3.612c1.233,1.387,2.978,1.311,4.306,0.118
	c-0.078-0.722-0.127-1.269-0.201-1.814c-0.054-0.394-0.019-0.874-0.233-1.159c-1.469-1.954-0.73-3.77,1.825-4.287
	c2.048-0.414,4.099-0.833,6.167-1.119c1.978-0.273,3.134-1.181,2.992-3.254c3.708-1.095,8.137-0.37,11.314,1.95
	c-1.965,1.173-3.829,2.285-5.692,3.397c0.075,0.247,0.15,0.494,0.224,0.742c0.568-0.059,1.231,0.051,1.686-0.207
	c1.537-0.874,2.938-2.004,4.514-2.79c1.087-0.542,2.378-0.675,3.579-0.991c-0.85,3.954-1.503,4.51-5.365,5.406
	c1.511,2.852,4.583,3.53,6.822,3.824c3.028,0.398,5.372-2.298,7.456-4.689c-0.683,0.28-1.375,0.538-2.046,0.845
	c-1.237,0.566-2.417,1.313-3.707,1.687c-0.792,0.229-2.407,0.104-2.5-0.208c-0.291-0.968-0.306-2.215,0.078-3.145
	c0.649-1.573,1.687-2.985,2.832-4.925c-1.654-0.161-2.684-0.261-3.714-0.361c-0.05-0.198-0.099-0.396-0.149-0.594
	c0.528-0.191,1.1-0.621,1.577-0.534c2.305,0.419,4.04-0.474,5.659-2.004c2.361-2.231,5.269-2.813,8.316-2.011
	c2.112,0.556,3.76,0.376,5.168-1.385c1.105-1.382,2.193-1.202,3.011,0.309c0.606,1.12,1.279,1.613,2.697,1.359
	c0.629-0.113,1.828,0.692,2.117,1.362c0.951,2.204,2.254,2.217,4,1.087c0.81-0.524,1.624-1.049,2.477-1.495
	c0.483-0.252,1.108-0.582,1.569-0.469c2.763,0.681,5.497,1.48,8.503,2.313c1.437-1.984,3.522-3.023,6.287-2.826
	c0.819,0.058,1.739-0.724,2.547-1.227c1.698-1.057,3.152-1.102,4.811,0.298c2.788,2.353,6.062,2.166,8.721-0.358
	c0.97-0.921,1.752-1.265,3.176-0.92c0.816,0.198,2.246-0.573,2.829-1.341c0.897-1.182,1.718-1.5,3.065-1.065
	c0.826,0.267,1.803,0.604,2.565,0.388c0.797-0.225,1.487-1.011,2.089-1.674c0.382-0.42,0.524-1.52,0.764-1.518
	c0.639,0.007,1.319,0.374,1.891,0.741c0.381,0.245,0.63,0.719,0.894,1.119c1.124,1.701,2.061,1.206,3.905,0.609
	c2.906-0.941,5.053-2.441,7.178-4.42C261.712,159.714,263.519,160.299,264.225,160.94z M132.257,176.517
	c0.112-0.645,1.487-1.495,2.273-1.476c0.745,0.017,1.849,0.908,2.123,1.659c0.684,1.876-0.569,3.025-3.968,3.858
	C132.502,179.198,132.035,177.798,132.257,176.517z M233.542,111.813c10.835,4.16,18.487,12.057,22.822,22.968
	c2.253,5.67,4.766,11.214,4.734,17.566c-0.02,3.995-1.599,6.911-4.52,9.421c-1.455-0.304-3.239-2.535-4.21,0.802
	c-1.14-0.953-2.111-1.912-3.222-2.663c-2.11-1.427-3.531-0.962-4.073,1.45c-0.42,1.871-1.256,2.194-2.905,1.502
	c-1.659-0.696-3.268-0.483-4.249,1.135c-0.833,1.373-1.744,1.368-3.028,0.811c-1.222-0.531-2.148-0.452-2.91,1.051
	c-1.026,2.025-5.528,2.461-7.107,0.802c-1.582-1.663-3.253-1.911-5.192-0.776c-0.278,0.163-0.534,0.391-0.833,0.483
	c-3.33,1.03-6.631,2.193-10.02,2.971c-1.211,0.278-2.753-0.139-3.944-0.68c-1.942-0.881-3.627-0.977-5.448,0.242
	c-1.973,1.32-3.871,1.61-5.29-0.909c-0.231-0.41-0.872-0.598-1.337-0.865c-0.999-0.576-2.137-0.99-2.983-1.736
	c-1.737-1.532-3.356-1.628-4.727,0.228c-1.162,1.574-2.393,1.89-4.337,1.65c-3.658-0.452-7.364-0.601-10.125,2.818
	c-0.475,0.588-2.112,0.64-3.045,0.367c-1.655-0.486-2.839-0.242-3.733,1.208c-0.825,1.337-1.929,1.351-3.345,1.052
	c-3.063-0.646-6.168-1.098-9.257-1.617c-1.372-0.23-2.39,0.064-2.589,1.699c-0.055,0.451-0.302,0.928-0.59,1.292
	c-1.563,1.978-8.546,2.422-10.429,0.69c-2.783-2.558-4.201-2.44-6.508,0.526c-0.753,0.969-1.239,2.434-2.988,1.583
	c-1.542-0.75-2.007-1.983-1.732-3.589c0.066-0.388,0.142-0.774,0.358-1.941c-2.609,1.196-4.961,1.928-6.903,3.258
	c-2.167,1.483-5.183,1.848-7.239,0.187c-0.561-0.454-1.04-1.008-1.571-1.501c-2.499-2.321-2.669-2.255-4.298,0.643
	c-0.256,0.455-1.34,0.85-1.857,0.686c-2.913-0.921-2.894-0.982-4.06,0.736c-2.902,0-5.384,0-8.085,0
	c-1.407-2.847-5.243-4.078-8.94-2.074c-3.157,1.711-5.877,2.323-8.777-0.46c-0.49-0.471-2.285-0.096-3.14,0.433
	c-1.84,1.139-3.454,2.541-5.52,0.463c-0.24-0.241-0.823-0.415-1.11-0.294c-2.735,1.153-5.175,0.132-7.567-1.009
	c-1.055-0.503-2.409-1.032-2.892-1.941c-0.941-1.767-2.218-2.057-3.942-1.911c-2.466,0.209-4.939,0.423-7.41,0.437
	c-0.684,0.004-1.531-0.552-2.026-1.101c-1.054-1.168-2.278-1.844-3.576-0.836c-3.171,2.462-5.91,1.062-8.613-0.732
	c-0.992-0.659-1.754-1.656-2.714-2.375c-0.515-0.386-1.39-0.876-1.818-0.684c-1.372,0.615-2.057,0.21-3.067-0.817
	c-0.535-0.543-2.316-0.468-3.139,0.01c-1.705,0.99-2.814,1.837-4.215-0.572c-0.694-1.194-2.746-1.52-3.898-2.557
	c-0.616-0.555-1.029-1.881-0.835-2.693c0.743-3.119,1.779-6.169,2.686-9.25c2.407-8.177,7.441-14.38,14.514-18.935
	c10.383-6.687,21.192-12.503,33.208-15.801c9.681-2.658,19.316-5.483,29.003-8.119c1.318-0.359,2.818-0.049,4.734-0.049
	c-0.756,1.092-1.238,1.775-1.706,2.468c-7.866,11.646-6.446,22.127,1.586,32.792c5.12,6.798,12.58,7.501,20.378,5.842
	c9.689-2.062,16.262-8.092,20.624-16.726c1.764-3.491,1.767-5.644,0.567-10.53c0.507,0.106,0.982,0.083,1.308,0.293
	c7.222,4.638,14.969,4.807,22.91,2.53c6.628-1.901,11.905-5.958,16.351-11.111c1.471-1.705,3.091-2.665,5.395-2.584
	c3.776,0.133,7.558,0.178,11.336,0.136c0.845-0.009,1.673-0.569,2.528-0.805c0.963-0.266,1.97-0.704,2.919-0.622
	c2.404,0.207,4.578,0.054,6.625-1.51c0.767-0.586,2.212-0.817,3.161-0.55C216.354,106.557,225.175,108.6,233.542,111.813z
	 M263.759,70.907c-0.945,0.633-1.691,1.568-2.512,2.383c-0.637,0.632-1.178,1.398-1.908,1.888c-0.713,0.478-1.64,0.623-2.422,1.015
	c-2.431,1.218-2.472,1.501-0.596,3.648c-6.729,2.335-7.691,3.186-7.102,6.335c-2.086,0.511-4.169,1.082-6.279,1.52
	c-1.879,0.39-3.142,1.036-1.743,3.389c-1.922,0.088-3.595,0.091-5.248,0.27c-0.892,0.096-1.751,0.493-2.625,0.755
	c0.342,0.797,0.684,1.593,1.066,2.481c-2.253,1.331-4.84,1.324-7.53,0.946c-1.014-0.142-2.087,0.133-3.133,0.218
	c0.304,0.955,0.607,1.91,1.044,3.283c-0.89,0.113-2.006,0.426-3.1,0.359c-2.246-0.139-4.473-0.571-6.719-0.7
	c-0.954-0.055-1.934,0.347-2.902,0.542c0.465,0.72,0.938,1.435,1.392,2.161c0.158,0.252,0.273,0.531,0.657,1.29
	c-1.722,0-3.113,0.095-4.487-0.021c-2.485-0.21-4.957-0.575-7.44-0.818c-1.744-0.171-3.645-0.466-3.153,2.511
	c-1.97-0.357-3.618-0.676-5.274-0.948c-1.68-0.277-3.452-0.629-2.844,2.215c-4.035,0.192-7.862,0.373-11.269,0.535
	c0-3.387,0.194-6.503-0.065-9.581c-0.186-2.205-0.717-4.468-1.568-6.507c-1.034-2.477-1.11-4.784,0.461-6.853
	c2.132-2.809,4.5-5.444,6.865-8.066c0.383-0.425,1.508-0.761,1.885-0.516c2.357,1.536,3.539-0.096,4.801-1.588
	c0.775-0.916,1.504-1.87,2.282-2.842c1.586,2.627,2.365,2.681,4.463,0.341c2.184-2.435,4.331-4.903,6.991-7.103
	c-0.069,0.57-0.204,1.142-0.19,1.71c0.018,0.724,0.158,1.445,0.245,2.167c0.884-0.112,1.992,0.075,2.612-0.389
	c2.057-1.542,3.924-3.334,5.897-4.991c0.459-0.385,1.048-0.615,1.644-0.955c0.51,3.149,1.316,3.515,3.934,2.011
	c1.325-0.761,2.634-1.557,4.003-2.23c0.527-0.259,1.405-0.518,1.774-0.266c1.919,1.312,3.242,0.181,4.791-0.774
	c2.495-1.537,5.122-2.859,7.952-4.414c-0.433,3.239,0.525,4.057,3.246,3.258c1.077-0.316,2.114-0.77,3.171-1.157
	c1.854-0.679,3.696-2.22,5.556,0.093c0.258,0.321,1.057,0.238,1.61,0.278c0.397,0.028,0.953-0.238,1.18-0.054
	c2.995,2.424,6.422,1.569,9.851,1.018c-0.748,3.033-0.67,3.137,2.218,3.731c0.237,1.101,0.451,2.1,0.64,2.977
	c-0.807,0.804-1.653,1.646-2.498,2.489c1.024,0.461,2.048,0.922,3.567,1.606C265.751,70.045,264.646,70.313,263.759,70.907z
	 M241.93,130.303c0.625,0.135,1.404,0.082,1.846,0.441c1.114,0.906,2.239,1.882,3.074,3.037c4.637,6.415,6.835,13.758,7.917,21.496
	c0.065,0.468-0.004,0.965-0.077,1.439c-0.032,0.206-0.23,0.387-0.645,1.038c-0.498-2.76-0.917-5.095-1.34-7.428
	c-0.972-5.359-2.964-10.324-5.683-15.03c-1.047-1.812-2.226-3.336-4.437-3.737C242.272,131.501,242.019,131.118,241.93,130.303z
	 M199.568,163.342c6.587-0.902,13.174-1.804,19.761-2.706c0.04,0.269,0.079,0.539,0.119,0.808
	c-6.578,0.958-13.156,1.916-19.735,2.874C199.664,163.994,199.616,163.668,199.568,163.342z M244.578,154.645
	c-1.243-3.255-2.352-6.562-3.508-9.85c0.189-0.081,0.378-0.162,0.567-0.244c1.671,3.754,3.343,7.508,5.014,11.262
	c-0.174,0.204-0.349,0.408-0.523,0.612C245.598,155.837,244.841,155.335,244.578,154.645z M235.247,157.735
	c-0.529-3.456-0.952-6.928-1.408-10.396c0.215-0.049,0.431-0.098,0.646-0.146c0.863,3.845,1.727,7.691,2.59,11.536
	c-0.27,0.126-0.541,0.253-0.811,0.379C235.912,158.653,235.323,158.233,235.247,157.735z M15.628,146.859
	c0.329,0.109,0.657,0.218,0.986,0.327c-1.347,3.166-2.695,6.333-4.042,9.499c-0.262-0.11-0.524-0.219-0.785-0.329
	C13.067,153.191,14.348,150.025,15.628,146.859z M73.326,199.868c4.956,0.916,9.912,1.833,14.867,2.749
	c-0.047,0.153-0.094,0.306-0.14,0.46c-4.948-0.84-9.895-1.68-14.843-2.52C73.249,200.327,73.287,200.097,73.326,199.868z
	 M229.598,226.493c1.95-2.955,3.946-5.979,5.781-8.757C235.26,221.989,232.873,225.617,229.598,226.493z M220.541,228.322
	c1.309-1.571,2.529-3.035,3.748-4.499C223.662,227.841,222.898,228.72,220.541,228.322z M242.696,173.441
	c1.969-0.111,3.856-0.218,6.362-0.359c-2.597,2.797-5.267,2.511-7.708,1.934c-0.804-0.19-1.213-2.049-2.073-3.648
	c-3.414,2.438-6.989,5.067-10.666,7.544c-0.636,0.429-1.801,0.468-2.532,0.189c-0.343-0.131-0.322-1.449-0.296-2.223
	c0.015-0.432,0.379-0.853,0.719-1.553c-1.933-0.165-3.665-0.415-5.395-0.408c-0.647,0.003-1.304,0.584-1.934,0.94
	c-0.433,0.245-0.794,0.7-1.248,0.812c-1.47,0.36-2.566,0.88-2.218,2.742c0.061,0.326-0.52,1.096-0.779,1.085
	c-0.448-0.019-1.275-0.548-1.244-0.763c0.148-1.034,0.215-2.387,0.884-2.988c3.083-2.771,6.519-4.737,10.949-3.366
	c1.222,0.378,2.53,0.843,3.758,0.747c1.581-0.124,3.188-0.612,4.661-1.233c2.118-0.892,4.048-2.261,6.201-3.028
	c2.487-0.886,3.012-0.257,2.571,2.378C242.632,172.683,242.696,173.145,242.696,173.441z M214.05,173.841
	c0.054,0.626-0.251,1.442-0.694,1.899c-0.312,0.321-1.326,0.457-1.643,0.2c-2.802-2.266-4.791-0.742-6.96,1.132
	c-1.746,1.509-3.727,2.797-5.755,3.906c-0.832,0.455-2.061,0.185-3.11,0.245c0-0.926,0-1.851,0-3.368
	c-0.785,0.087-1.758,0.185-2.728,0.304c-1.879,0.231-3.753,0.52-5.639,0.669c-0.328,0.026-0.7-0.514-1.052-0.793
	c0.327-0.391,0.632-1.099,0.985-1.124c3.044-0.213,6.104-0.455,9.142-0.32c0.74,0.033,1.42,1.422,2.284,2.357
	c2.991-0.053,5.095-2.001,4.789-5.041c2.993-0.341,5.992-0.73,9.003-0.977C213.133,172.894,214.02,173.484,214.05,173.841z
	 M16.324,172.429c0.464,0.404,0.901,0.785,1.509,1.314c-2.009,1.14-3.298,0.591-4.462-0.963c-0.971-1.296-2.092-2.48-3.211-3.789
	c1.317-0.322,2.958-0.722,4.198-1.025c1.186,1.013,1.901,1.624,2.808,2.398C16.96,170.871,16.639,171.657,16.324,172.429z
	 M183.406,175.217c-0.283,0.57-0.52,1.17-0.858,1.705c-0.777,1.23-1.592,2.437-2.417,3.636c-0.272,0.396-0.621,0.739-0.935,1.105
	c-0.28-0.336-0.851-0.738-0.793-0.999c0.517-2.304-1.17-3.306-2.711-4.415c0.006-0.265,0.011-0.53,0.017-0.795
	c0.854-0.18,2.03-0.799,2.5-0.454c1.258,0.923,2.257,0.831,3.514,0.167C182.155,174.939,182.838,175.186,183.406,175.217z
	 M254.694,166.708c0.635,0.48,1.049,1.254,1.702,2.119c1.213-0.845,2.477-1.806,3.838-2.598c0.226-0.132,0.877,0.466,2.111,1.173
	c-2.535,1.198-4.454,2.206-6.461,2.985c-0.526,0.204-1.578-0.092-1.94-0.53c-0.486-0.587-0.707-1.538-0.69-2.326
	C253.261,167.224,254.502,166.563,254.694,166.708z M49.392,180.117c1.49,0.092,2.981,0.184,4.598,0.283
	c-1.459,1.661-5.971,1.896-6.974,0.406c-0.674-1.002-1.176-2.311,0.8-2.689c1.727-0.33,3.456-0.652,5.399-0.493
	c-1.304,0.647-2.608,1.294-3.912,1.941C49.333,179.749,49.362,179.933,49.392,180.117z M87.353,180.871
	c2.155-0.292,3.861-0.524,5.973-0.81c-1.682,1.911-5.924,2.937-7.331,2.075c-0.304-0.187-0.607-0.552-0.69-0.89
	c-0.319-1.297,1.796-3.415,3.482-3.342C88.393,178.719,88.031,179.468,87.353,180.871z M153.225,181.734
	c-1.425,0.812-2.467,1.654-3.721-0.206c-0.913-1.353-3.808-0.911-4.804,0.526c-0.307,0.442-0.521,0.949-0.778,1.426
	c0.305-2.501,1.796-3.914,4.228-4.407C150.53,178.591,151.855,179.928,153.225,181.734z M146.419,183.518
	c1.675,0.51,3.35,1.019,5.397,1.642C149.167,186.709,147.694,186.368,146.419,183.518z M233.029,76.356
	c-7.652,2.944-15.303,5.888-22.955,8.832c-0.013,0.315-0.025,0.63-0.038,0.944c3.266,1.117,6.531,2.233,9.797,3.35
	c0.024,0.128,0.049,0.256,0.073,0.385c-0.742,0.081-1.531,0.366-2.216,0.205c-2.185-0.515-4.297-1.429-6.501-1.751
	c-2.399-0.351-5.034-0.792-7.269-0.153c-3.433,0.981-6.612,2.851-10.169,4.466c6.018,1.305,11.688,2.535,17.357,3.765
	c-0.038,0.33-0.075,0.659-0.113,0.989c-0.863-0.045-1.734-0.025-2.586-0.146c-4.763-0.671-9.8-0.632-14.205-2.277
	c-4.477-1.672-6.963,1.297-10.295,2.392c-0.986,0.324-2.049,0.413-3.077,0.609c-0.113-0.4-0.226-0.8-0.339-1.201
	c17.404-7.1,34.493-14.979,52.191-21.35C232.8,75.728,232.915,76.042,233.029,76.356z M206.47,82.307
	c4.017-4.222,8.035-8.444,12.052-12.667C219.155,71.577,210.217,80.891,206.47,82.307z M237.855,83.6
	c-2.918-1.107-5.836-2.214-8.962-3.4C231.452,78.605,235.4,79.892,237.855,83.6z M237.808,66.943
	c-3.111,2.484-6.221,4.967-9.332,7.451c2.225-3.918,7.103-8.152,8.908-8.062C237.525,66.536,237.667,66.739,237.808,66.943z
	 M195.956,85.215c-0.138-0.137-0.275-0.275-0.413-0.412c1.894-2.28,3.789-4.56,5.683-6.839c0.194,0.165,0.388,0.331,0.582,0.496
	C199.857,80.712,197.906,82.963,195.956,85.215z M180.455,75.536c-0.31-0.165-0.62-0.329-0.929-0.494
	c0.216-0.664,0.363-1.36,0.658-1.988c3.246-6.911,6.168-14.006,9.908-20.64c2.227-3.951,2.45-8.164,3.52-12.273
	c0.385-1.477,0.623-2.991,0.991-4.473c0.136-0.546,0.452-1.048,0.686-1.57c0.174,0.085,0.348,0.171,0.522,0.256
	c-0.4,2.432-0.8,4.864-1.255,7.631c5.688-5.67,4.54-13.872,8.06-20.079c0.27,0.102,0.541,0.205,0.811,0.307
	c-0.379,1.071-0.79,2.133-1.129,3.216c-0.339,1.083-1.213,2.395,0.869,2.512c-1.764,3.92-3.476,7.724-5.188,11.528
	c0.222,0.112,0.444,0.223,0.665,0.335c1.723-1.529,3.427-3.081,5.18-4.575c0.669-0.57,1.392-1.211,2.199-1.447
	c0.737-0.215,1.621,0.074,2.441,0.14c-0.514,0.546-0.953,1.203-1.557,1.618c-1.646,1.129-3.705,1.848-4.99,3.278
	c-4.79,5.327-10.334,10.204-11.751,17.827c2.54-2.205,5.14-4.461,7.739-6.718c0.16,0.144,0.319,0.287,0.479,0.431
	C190.802,57.583,183.72,65.171,180.455,75.536z M185.024,59.23c-0.286-0.028-0.573-0.055-0.859-0.083
	c0.631-4.827,1.262-9.655,1.892-14.482C188.352,49.775,186.004,54.427,185.024,59.23z M253.003,203.58
	c-0.383,0.439-0.677,1.083-1.09,1.172c-0.527,0.113-1.186-0.141-1.723-0.383c-0.926-0.418-1.801-0.948-2.697-1.432
	c-0.254,0.847-0.364,1.781-0.812,2.509c-0.302,0.491-1.05,0.893-1.649,0.98c-1.712,0.247-3.459,0.482-5.176,0.395
	c-1.321-0.067-2.911-0.271-3.854-1.052c-1.439-1.191-2.181-1.476-3.008,0.44c-0.189,0.439-0.911,0.648-1.387,0.963
	c-0.272-0.611-0.941-1.532-0.748-1.778c0.833-1.062,1.783-2.277,2.962-2.73c0.691-0.266,2.149,0.572,2.803,1.316
	c0.918,1.044,1.603,1.443,3.046,1.023c2.415-0.703,5.041-0.777,6.356-3.532c0.203-0.424,1.339-0.7,1.947-0.575
	c1.459,0.301,2.882,0.826,4.269,1.387C252.573,202.418,252.704,203.045,253.003,203.58z M172.775,212.793
	c1.79,0.328,3.485,1.175,5.228,1.797c-1.821,2.717-3.905,2.899-7.171,0.926c-0.873-0.527-2.103-0.44-3.149-0.713
	c-0.578-0.151-1.114-0.462-1.669-0.701c0.425-0.491,0.822-1.372,1.28-1.405C169.115,212.564,170.997,212.467,172.775,212.793z
	 M149.246,217.581c-0.989-0.055-2.24,0.257-2.923-0.229c-2.982-2.124-5.828-0.617-8.725,0.002c-1.023,0.219-2.042,0.458-3.715,0.834
	C138.071,214.373,144.816,214.107,149.246,217.581z M123.009,217.64c-1.401,1.12-2.33,2.437-3.246,2.427
	c-0.855-0.009-2.098-1.284-2.44-2.258c-0.408-1.16,1.934-3.178,3.248-2.784C121.352,215.26,121.872,216.366,123.009,217.64z
	 M193.699,214.119c-3.477,1.017-4.391,0.689-7.863-2.887c1.504-0.246,2.622-0.512,3.754-0.591c1.29-0.09,2.459,0.012,2.047,1.95
	C191.573,212.888,192.77,213.452,193.699,214.119z M210.3,208.106c1.006-0.662,2.334-0.836,3.762-1.281
	c-0.944,1.774-1.497,2.885-2.127,3.951c-0.177,0.299-0.673,0.713-0.858,0.643c-0.464-0.176-1.148-0.574-1.177-0.929
	C209.833,209.68,209.826,208.417,210.3,208.106z M222.936,206.705c0.114,0.199,0.228,0.397,0.342,0.596
	c-1.119,0.87-2.178,1.842-3.391,2.551c-0.405,0.236-1.204-0.202-1.823-0.332c0.252-0.557,0.369-1.44,0.782-1.612
	C220.15,207.364,221.564,207.086,222.936,206.705z M207.427,208.886c-2.466,0.965-4.695,1.837-7.323,2.865
	C202.203,208.569,204.53,207.681,207.427,208.886z M105.664,128.798c0.595,2.151,1.471,4.228,2.327,6.296
	c0.119,0.288,0.783,0.54,1.162,0.5c1.943-0.203,3.892-0.426,5.801-0.823c0.595-0.124,1.054-0.837,1.605-1.239
	c2.262-1.649,4.234-3.419,5.958-5.79c1.128-1.55,2.385-2.105,1.082-4.067c-0.349-0.525-0.116-1.407-0.275-2.096
	c-0.112-0.485-0.34-1.02-0.686-1.362c-1.064-1.054-2.21-2.025-3.623-3.299c-0.659,0.524-1.555,0.996-2.113,1.727
	c-1.522,1.994-2.942,2.252-4.669,0.238c-0.666-0.777-5.914,1.063-6.137,2.084c-0.063,0.289-0.04,0.76,0.141,0.915
	c1.713,1.463,0.728,2.712-0.108,4.148C105.683,126.8,105.434,127.967,105.664,128.798z M108.273,129.379
	c0.351-2.266,1.128-4.497,2.005-6.626c0.185-0.45,1.8-0.783,2.44-0.487c2.192,1.014,3.493,0.85,3.878-1.841
	c0.088-0.617,0.758-1.151,1.347-1.989c0.544,0.905,0.751,1.446,1.122,1.83c0.979,1.013,2.375,1.732,1.834,3.569
	c-0.702,2.387-1.19,4.885-3.646,6.213c-1.619,0.875-3.215,1.849-4.933,2.473C110.033,133.354,107.905,131.757,108.273,129.379z
	 M118.84,138.229c3.457-4.432,6.55-8.396,9.535-12.223c0.58,2.32-2.036,6.589-6.892,10.734
	C120.803,137.32,119.902,137.642,118.84,138.229z M95.994,115.52c-0.194-0.201-0.389-0.402-0.583-0.603
	c1.664-1.447,3.328-2.893,4.992-4.34c0.19,0.214,0.381,0.427,0.571,0.641C99.313,112.652,97.654,114.086,95.994,115.52z
	 M141.227,104.708c1.294,0.518,2.761,0.997,3.688,1.946c1.3,1.33,2.174,1.178,3.457,0.124c0.764-0.627,1.865-1.347,2.727-1.25
	c1.977,0.223,2.986-0.559,3.734-2.231c0.314-0.703,0.941-1.289,1.499-1.856c2.106-2.143,2.124-2.531,0.128-4.717
	c-0.251-0.275-0.418-0.626-0.62-0.935c2.728-2.029,2.646-3.535-0.164-4.949c-0.213-0.107-0.505-0.11-0.667-0.261
	c-0.879-0.817-1.729-1.666-3.038-2.941c-1.137-0.368-2.797-0.995-4.508-1.418c-0.704-0.174-1.723-0.187-2.244,0.202
	c-2.18,1.628-4.284,3.372-6.3,5.2c-1.347,1.221-1.982,2.822-0.922,4.544c1.301,2.115,1.024,3.907-0.71,5.606
	c-0.306,0.3-0.401,0.817-0.621,1.294c0.428,0.271,0.732,0.564,1.093,0.674C138.906,104.09,140.119,104.264,141.227,104.708z
	 M141.528,93.051c1.036-0.663,2.288-0.989,3.595-1.515c-0.469-0.784-0.829-1.388-1.238-2.071c1.099-1.691,2.332-2.069,4.113-0.741
	c1.858,1.386,3.876,2.556,6.05,3.967c-1.868,2.588-0.106,4.43,1.413,6.253c-4.169,5.117-8.975,6.619-14.528,2.789
	c-0.175-2.184-0.45-4.449-0.48-6.718C140.443,94.348,140.962,93.413,141.528,93.051z M153.781,116.338
	c8.548-3.937,14.272-10.659,18.654-19.08C173.762,102.116,162.536,113.588,153.781,116.338z M155.451,112.941
	c-3.64,0.623-7.274,1.284-10.927,1.814c-0.402,0.058-0.915-0.64-1.376-0.988c0.332-0.26,0.65-0.725,0.998-0.748
	c3.701-0.25,7.408-0.43,11.112-0.629C155.322,112.573,155.386,112.757,155.451,112.941z M171.094,105.094
	c0.218,0.239,0.436,0.479,0.654,0.718c-2.347,2.127-4.694,4.254-7.041,6.38c-0.18-0.196-0.36-0.393-0.539-0.589
	C166.477,109.434,168.786,107.264,171.094,105.094z M23.309,204.666c-1.617,0.257-3.239,0.483-5.163,0.768
	c2.668-3.341,8.712-2.648,13.967,1.173c-0.327,0.623-0.571,1.265-0.969,1.79c-0.328,0.432-0.855,1.023-1.262,0.999
	c-0.419-0.024-1.064-0.653-1.157-1.11C27.941,204.469,27.323,204.029,23.309,204.666z M113.415,126.309
	c0.625-1.02,1.568-2.021,2.633-2.506c0.399-0.181,1.445,1.062,2.196,1.656c0.004,0.349,0.008,0.698,0.012,1.046
	c-0.998,0.633-1.946,1.595-3.016,1.758C114.708,128.344,113.272,126.542,113.415,126.309z M145.915,96.681
	c-0.492-1.282-0.159-1.841,1.245-1.633c0.783,0.116,1.62,0.098,2.332,0.389c0.666,0.272,1.198,0.872,2.151,1.606
	c-1.042,1.424-1.679,2.598-2.613,3.442c-0.454,0.411-1.524,0.396-2.196,0.188c-0.278-0.086-0.219-1.189-0.355-1.82
	C146.32,98.123,146.181,97.376,145.915,96.681z" class="color c1"/>
</svg>