<svg version="1.1" id="图层_1" x="0px" y="0px" width="170px" height="185.3px" viewBox="0 0 170 185.3" enable-background="new 0 0 170 185.3" xml:space="preserve" xmlns:xml="http://www.w3.org/XML/1998/namespace" xmlns="http://www.w3.org/2000/svg" xmlns:xlink="http://www.w3.org/1999/xlink">
  <path fill="#F78E26" d="M61.5,146.201L61.5,146.201c-13.2,0-23.9-10.701-23.9-23.9V60.2c0-13.2,10.7-23.9,23.9-23.9l0,0
	c13.2,0,23.9,10.7,23.9,23.9v62.2C85.4,135.5,74.7,146.201,61.5,146.201z" class="color c1"/>
  <path fill="#632511" d="M61.5,152c-16.4,0-29.7-13.299-29.7-29.699V60.2c0-16.4,13.3-29.7,29.7-29.7s29.7,13.3,29.7,29.7v62.2
	C91.1,138.701,77.8,152,61.5,152z M61.5,42.1c-10,0-18.1,8.1-18.1,18.1v62.2c0,10,8.1,18.1,18.1,18.1s18.1-8.1,18.1-18.1V60.2
	C79.6,50.2,71.5,42.1,61.5,42.1z" class="color c2"/>
  <path fill="#F78E26" d="M109.2,146.201L109.2,146.201c-13.2,0-23.9-10.701-23.9-23.9V60.2c0-13.2,10.7-23.9,23.9-23.9l0,0
	c13.2,0,23.899,10.7,23.899,23.9v62.2C133.1,135.5,122.4,146.201,109.2,146.201z" class="color c1"/>
  <path fill="#632511" d="M109.2,152c-16.4,0-29.7-13.299-29.7-29.699V60.2c0-16.4,13.3-29.7,29.7-29.7c16.399,0,29.7,13.3,29.7,29.7
	v62.2C138.9,138.701,125.6,152,109.2,152z M109.2,42.1c-10,0-18.101,8.1-18.101,18.1v62.2c0,10,8.101,18.1,18.101,18.1
	s18.1-8.1,18.1-18.1V60.2C127.3,50.2,119.2,42.1,109.2,42.1z" class="color c2"/>
  <path fill="#F78E26" d="M29.7,162.201L29.7,162.201c-13.2,0-23.9-10.701-23.9-23.9V76.1c0-13.2,10.7-23.9,23.9-23.9l0,0
	c13.2,0,23.9,10.7,23.9,23.9v62.2C53.5,151.5,42.8,162.201,29.7,162.201z" class="color c1"/>
  <path fill="#632511" d="M29.7,167.9C13.3,167.9,0,154.6,0,138.3V76.1c0-16.4,13.3-29.7,29.7-29.7c16.4,0,29.7,13.3,29.7,29.7v62.2
	C59.3,154.6,46,167.9,29.7,167.9z M29.7,58c-10,0-18.1,8.1-18.1,18.1v62.2c0,10,8.1,18.1,18.1,18.1s18.1-8.1,18.1-18.1V76.1
	C47.7,66.1,39.6,58,29.7,58z" class="color c2"/>
  <path fill="#F78E26" d="M140.3,162.201L140.3,162.201c-13.2,0-23.899-10.701-23.899-23.9V76.1c0-13.2,10.699-23.9,23.899-23.9l0,0
	c13.2,0,23.9,10.7,23.9,23.9v62.2C164.2,151.5,153.5,162.201,140.3,162.201z" class="color c1"/>
  <path fill="#632511" d="M140.3,167.9c-16.399,0-29.7-13.3-29.7-29.699V76.1c0-16.4,13.301-29.7,29.7-29.7
	c16.4,0,29.7,13.3,29.7,29.7v62.2C170,154.6,156.7,167.9,140.3,167.9z M140.3,58c-10,0-18.1,8.1-18.1,18.1v62.2
	c0,10,8.1,18.1,18.1,18.1s18.101-8.1,18.101-18.1V76.1C158.4,66.1,150.3,58,140.3,58z" class="color c2"/>
  <path fill="#F78E26" d="M109.2,179.5L109.2,179.5C96,179.5,85.3,168.8,85.3,155.6V93.4c0-13.2,10.7-23.9,23.9-23.9l0,0
	c13.2,0,23.899,10.7,23.899,23.9v62.2C133.1,168.8,122.4,179.5,109.2,179.5z" class="color c1"/>
  <path fill="#632511" d="M109.2,185.3c-16.4,0-29.7-13.301-29.7-29.7V93.4c0-16.4,13.3-29.7,29.7-29.7c16.399,0,29.7,13.3,29.7,29.7
	v62.2C138.9,172,125.6,185.3,109.2,185.3z M109.2,75.3c-10,0-18.101,8.1-18.101,18.1v62.2c0,10,8.101,18.101,18.101,18.101
	s18.1-8.101,18.1-18.101V93.4C127.3,83.5,119.2,75.3,109.2,75.3z" class="color c2"/>
  <path fill="#F78E26" d="M61.5,179.5L61.5,179.5c-13.2,0-23.9-10.699-23.9-23.898V93.4c0-13.2,10.7-23.9,23.9-23.9l0,0
	c13.2,0,23.9,10.7,23.9,23.9v62.2C85.4,168.8,74.7,179.5,61.5,179.5z" class="color c1"/>
  <path fill="#632511" d="M61.5,185.3c-16.4,0-29.7-13.301-29.7-29.7V93.4c0-16.4,13.3-29.7,29.7-29.7S91.2,77,91.2,93.4v62.2
	C91.1,172,77.8,185.3,61.5,185.3z M61.5,75.3c-10,0-18.1,8.1-18.1,18.1v62.2c0,10,8.1,18.101,18.1,18.101S79.6,165.6,79.6,155.6
	V93.4C79.6,83.5,71.5,75.3,61.5,75.3z" class="color c2"/>
  <path fill="#632511" d="M65.5,2.5L66,2.1c4.6-3.6,11.3-2.3,14.4,2.7C89.9,20.4,91,42,91,71.9l-11.5-0.5c0.1-15.8-3.7-41-15.3-54.8
	C60.6,12.3,61.1,5.9,65.5,2.5z" class="color c2"/>
  <path fill="#632511" d="M151.4,6.4c-0.7-1.2-2-2.1-3.4-2.3c-2.5-0.5-5,1-5.7,3.5c-1.5,5-5,9.2-9.6,11.8C131.1,13.3,127,8.2,121,4.9
	c-2.7-1.5-5.6-2-8.4-1.4c-4,0.8-7.398,3.7-8.8,7.5c-1.5,4.2-0.6,8.8,2.601,12.8c3.899,5,9.801,7.9,16,8.2
	c-2.199,6.4-7.5,12.2-13.399,14.4c-6.8,2.5-13.5,0.5-19.8-6L87.4,38.6l-7.101,7l1.8,1.8c6.4,6.5,13.8,10,21.4,10c3,0,6-0.5,9-1.6
	c10.6-3.9,19-14.3,20.7-25.6c8.899-3.4,16-10.9,18.7-19.8C152.3,9,152.1,7.6,151.4,6.4z M144.7,8.3L144.7,8.3L144.7,8.3L144.7,8.3z
	 M114.3,17.6c-1-1.2-1.399-2.4-1.1-3.2c0.2-0.6,0.8-1,1.399-1.1c0.101,0,0.199,0,0.199,0c0.4,0,0.801,0.1,1.2,0.4
	c3.601,2,6,4.9,7,8.4c0,0,0,0-0.101,0C119.7,21.9,116.4,20.2,114.3,17.6z" class="color c2"/>
</svg>