<svg version="1.1" id="图层_1" x="0px" y="0px" width="111.553px" height="110.254px" viewBox="0 0 111.553 110.254" enable-background="new 0 0 111.553 110.254" xml:space="preserve" xmlns="http://www.w3.org/2000/svg" xmlns:xlink="http://www.w3.org/1999/xlink" xmlns:xml="http://www.w3.org/XML/1998/namespace">
  <path fill="#412A5A" d="M111.219,67.213c-0.326-0.53-0.855-0.914-1.475-1.063c-1.926-0.469-3.474-1.752-4.246-3.521
	c-0.785-1.799-0.623-3.873,0.432-5.551c0.471-0.748,0.467-1.688-0.009-2.432c-0.474-0.746-1.335-1.164-2.233-1.089
	c-4.631,0.393-8.979-2.175-10.779-6.31c-2.165-4.968-0.021-10.807,4.885-13.292c0.617-0.313,1.064-0.872,1.225-1.53
	c0.154-0.657,0.012-1.354-0.4-1.897c-0.276-0.37-0.512-0.774-0.698-1.206c-1.033-2.37-0.415-5.124,1.538-6.851
	c0.955-0.846,1.047-2.274,0.209-3.229C88.895,7.015,73.211,0,56.639,0c-7.604,0-15.033,1.479-22.092,4.393
	C20.624,10.141,9.832,20.823,4.159,34.473C-1.51,48.12-1.38,63.102,4.528,76.652c8.896,20.41,29.371,33.602,52.157,33.602
	c0,0,0.001,0,0.003,0c7.601,0,15.034-1.477,22.09-4.391c16.304-6.73,28.224-20.172,32.698-36.879
	C111.637,68.385,111.544,67.748,111.219,67.213z M48.372,36.106c2.647-1.092,5.434-1.646,8.28-1.646
	c8.543,0,16.219,4.945,19.557,12.599c2.214,5.08,2.266,10.695,0.138,15.813c-2.126,5.119-6.173,9.123-11.394,11.277
	c-2.646,1.094-5.43,1.646-8.279,1.646c-8.543,0-16.219-4.945-19.555-12.601C32.548,52.709,37.594,40.556,48.372,36.106z" class="color c1"/>
  <path fill="#CE8129" d="M34.912,64.104C29.826,52.42,35.43,38.926,47.434,33.971c12.005-4.958,25.861,0.503,30.956,12.186
	c5.092,11.678-0.511,25.172-12.516,30.128C53.869,81.238,40.003,75.789,34.912,64.104z M103.608,64.148
	c-0.119-0.199-0.212-0.404-0.309-0.619c-1.137-2.592-0.82-5.432,0.59-7.658c-0.501,0.043-0.994,0.06-1.485,0.043
	c-4.96-0.125-9.634-3.022-11.704-7.76c-2.535-5.835-0.26-12.487,5.071-15.748c0.297-0.182,0.603-0.347,0.917-0.513
	c-0.391-0.513-0.711-1.064-0.979-1.667c-1.467-3.367-0.5-7.147,2.139-9.476c-14.975-17-40.067-23.437-62.379-14.227
	C7.893,17.914-4.981,48.904,6.713,75.754c1.67,3.838,3.758,7.379,6.184,10.599c14.535,19.33,41.308,27.137,64.949,17.373
	c16.118-6.652,27.212-20.009,31.313-35.326C106.83,67.838,104.778,66.338,103.608,64.148z" class="color c2"/>
  <path fill="#F09ABF" d="M103.887,55.869c-5.5,0.471-10.91-2.506-13.184-7.719c-2.545-5.831-0.27-12.481,5.067-15.744
	c-0.931-3.24-1.327-7.254-3.002-9.821c-3.878-5.905-8.399-6.278-15.12-6.278h-3.178C72.182,7.145,59.793,5.17,52.125,8.155
	c-4.979,1.942-9.256,5.577-12.625,9.613c-1.977,2.366-2.852,4.802-6.037,5.119c-2.885,0.286-5.633-2.104-8.678-1.957
	c-4.026,0.186-7.595,2.745-9.526,6.187c-1.646,2.923-2.551,7.237-1.67,10.479c0.661,2.443,1.66,2.775,0.914,4.888
	C12.246,48.879-1.92,53.767,5.628,62.436c4.902,5.639,13.824,2.449,10.83,11.482c-2.731,8.229-1.827,12.998,7.874,13.834
	c3.281,0.276,4.977-0.363,6.932,2.289c2.018,2.729,1.168,6.418,3.764,8.938c7.59,7.349,14.82-5.313,22.367-5.274
	c4.076,0.024,5.361,3.666,8.844,4.987c3.965,1.502,6.578-1.06,9.422-3.504c3.125-2.666,5.539-5.127,9.448-6.479
	c3.29-1.145,5.935-1.36,8.827-3.485c4.92-3.611,8.032-11.229-0.34-12.148c0.896-2.422,4.23-3.981,6.387-5.715
	c1.23-0.987,2.471-2.057,3.623-3.209c-0.119-0.201-0.215-0.401-0.313-0.619C102.162,60.939,102.479,58.104,103.887,55.869z
	 M65.875,76.281c-12.007,4.957-25.872-0.492-30.964-12.178c-5.086-11.686,0.518-25.18,12.521-30.137
	c12.005-4.958,25.861,0.504,30.956,12.187C83.482,57.832,77.88,71.324,65.875,76.281z" class="color c3"/>
  <path fill="#FFFFFF" d="M45.497,24.95h-7.202c-0.806,0-1.461,0.632-1.461,1.408s0.655,1.41,1.461,1.41h7.203
	c0.806,0,1.459-0.634,1.459-1.41C46.957,25.583,46.303,24.951,45.497,24.95z" class="color c4"/>
  <path fill="#FFFFFF" d="M35.838,83.889c-0.25-0.174-0.543-0.266-0.849-0.266c-0.476,0-0.923,0.225-1.197,0.598
	c-0.22,0.303-0.308,0.672-0.245,1.037c0.063,0.373,0.272,0.699,0.59,0.918l5.869,4.063c0.639,0.442,1.598,0.281,2.047-0.334
	c0.22-0.302,0.308-0.67,0.245-1.035c-0.063-0.373-0.271-0.699-0.59-0.92L35.838,83.889z" class="color c4"/>
  <path fill="#FFFFFF" d="M87.799,73.211c-0.219-0.119-0.468-0.185-0.721-0.185c-0.529,0-1.02,0.274-1.278,0.72l-3.554,6.096
	c-0.188,0.32-0.235,0.695-0.139,1.052c0.102,0.366,0.346,0.674,0.688,0.862c0.681,0.375,1.616,0.123,2-0.533l3.554-6.098
	c0.187-0.32,0.235-0.693,0.138-1.052C88.384,73.707,88.141,73.4,87.799,73.211z" class="color c4"/>
  <path fill="#412A5A" d="M20.729,42.333c-0.439,0-0.851,0.188-1.126,0.515l-4.598,5.397c-0.244,0.287-0.359,0.649-0.325,1.02
	c0.034,0.374,0.219,0.713,0.518,0.955c0.599,0.481,1.572,0.394,2.069-0.188l4.592-5.396c0.245-0.286,0.36-0.648,0.326-1.02
	c-0.035-0.375-0.22-0.714-0.519-0.955C21.404,42.449,21.071,42.333,20.729,42.333z" class="color c1"/>
  <path fill="#412A5A" d="M70.016,17.227c-0.439,0-0.854,0.188-1.134,0.515l-4.591,5.396c-0.245,0.288-0.36,0.651-0.326,1.022
	c0.034,0.374,0.219,0.711,0.516,0.951c0.601,0.484,1.575,0.396,2.069-0.187l4.595-5.396c0.245-0.288,0.359-0.651,0.325-1.023
	c-0.035-0.374-0.221-0.711-0.519-0.95C70.69,17.343,70.358,17.227,70.016,17.227z" class="color c1"/>
  <path fill="#412A5A" d="M85.543,35.666c0.221-0.302,0.309-0.67,0.245-1.036c-0.063-0.373-0.271-0.698-0.59-0.918l-5.87-4.06
	c-0.25-0.173-0.543-0.264-0.849-0.264c-0.477,0-0.923,0.223-1.196,0.597c-0.222,0.303-0.31,0.67-0.248,1.036
	c0.063,0.373,0.271,0.699,0.59,0.919l5.869,4.061C84.134,36.442,85.094,36.28,85.543,35.666z" class="color c1"/>
  <path fill="#412A5A" d="M54.727,80.084c-0.221-0.121-0.471-0.186-0.724-0.186c-0.528,0-1.018,0.275-1.274,0.719l-3.556,6.098
	c-0.188,0.32-0.236,0.694-0.139,1.051c0.102,0.367,0.345,0.673,0.688,0.861c0.684,0.375,1.615,0.121,2.001-0.533l3.552-6.096
	c0.188-0.322,0.237-0.693,0.139-1.051C55.313,80.58,55.069,80.272,54.727,80.084z" class="color c1"/>
  <path fill="#FCD000" d="M26.711,67.104c-0.438,0-0.849,0.188-1.126,0.515l-4.595,5.396c-0.246,0.288-0.362,0.649-0.328,1.021
	c0.035,0.374,0.219,0.713,0.519,0.954c0.601,0.485,1.57,0.396,2.066-0.187l4.594-5.397c0.244-0.286,0.36-0.647,0.325-1.019
	c-0.035-0.374-0.219-0.713-0.517-0.952C27.387,67.221,27.054,67.104,26.711,67.104z" class="color c5"/>
  <path fill="#FCD000" d="M49.864,17.966l4.599-5.396c0.243-0.287,0.358-0.649,0.323-1.021c-0.036-0.375-0.22-0.713-0.519-0.954
	c-0.263-0.213-0.595-0.328-0.936-0.328c-0.438,0-0.851,0.188-1.13,0.515l-4.594,5.397c-0.246,0.287-0.361,0.65-0.327,1.021
	c0.035,0.374,0.218,0.712,0.516,0.952C48.397,18.635,49.371,18.545,49.864,17.966z" class="color c5"/>
  <path fill="#FCD000" d="M69,81.461c-0.249-0.172-0.542-0.264-0.848-0.264c-0.478,0-0.925,0.225-1.199,0.6
	c-0.221,0.303-0.309,0.67-0.247,1.035c0.063,0.373,0.273,0.698,0.592,0.918l5.868,4.063c0.639,0.441,1.597,0.282,2.047-0.333
	c0.222-0.302,0.31-0.669,0.248-1.034c-0.063-0.374-0.271-0.701-0.592-0.922L69,81.461z" class="color c5"/>
  <path fill="#FCD000" d="M24.701,29.43c0.639,0.442,1.597,0.28,2.044-0.334c0.222-0.304,0.311-0.672,0.249-1.037
	c-0.063-0.373-0.271-0.7-0.591-0.92l-5.871-4.062c-0.249-0.172-0.542-0.263-0.847-0.263c-0.477,0-0.924,0.224-1.199,0.599
	c-0.22,0.303-0.308,0.672-0.246,1.039c0.063,0.371,0.273,0.697,0.59,0.916L24.701,29.43z" class="color c5"/>
  <path fill="#FCD000" d="M86.789,59.233c-0.251-0.174-0.545-0.267-0.852-0.267c-0.477,0-0.923,0.226-1.197,0.6
	c-0.221,0.303-0.308,0.668-0.247,1.033c0.063,0.372,0.272,0.697,0.591,0.919l5.869,4.063c0.641,0.439,1.6,0.279,2.049-0.336
	c0.221-0.301,0.309-0.666,0.247-1.031c-0.063-0.373-0.272-0.701-0.592-0.924L86.789,59.233z" class="color c5"/>
  <path fill="#FCD000" d="M32.877,42.581c-0.221-0.122-0.471-0.187-0.724-0.187c-0.528,0-1.016,0.274-1.274,0.718l-3.555,6.097
	c-0.188,0.322-0.237,0.696-0.138,1.054c0.101,0.366,0.344,0.671,0.684,0.858c0.684,0.377,1.619,0.125,2.002-0.533l3.554-6.097
	c0.187-0.321,0.234-0.694,0.137-1.051C33.462,43.075,33.219,42.771,32.877,42.581z" class="color c5"/>
  <path fill="#FFFFFF" d="M66.414,9.018c-4.006-0.896-8.068-1.35-12.077-1.35c-12.154,0-23.352,4.13-31.527,11.631
	C11.276,29.882,2.155,50.119,11.146,75.174c0.202,0.57,0.745,0.953,1.353,0.953c0.168,0,0.333-0.028,0.485-0.086
	c0.362-0.129,0.652-0.394,0.815-0.742c0.163-0.348,0.182-0.735,0.052-1.094C5.335,50.474,13.9,31.376,24.752,21.417
	c7.646-7.014,18.149-10.877,29.577-10.877c3.799,0,7.653,0.432,11.458,1.282c0.775,0.169,1.542-0.325,1.715-1.091
	C67.672,9.96,67.185,9.191,66.414,9.018z" class="color c4"/>
  <path fill="#FFFFFF" d="M82.988,15.468c-0.121-0.363-0.376-0.658-0.719-0.831c-3.457-1.738-7.188-3.211-11.089-4.375
	c-0.736-0.225-1.567,0.225-1.79,0.966c-0.226,0.759,0.209,1.561,0.966,1.787c3.74,1.116,7.313,2.525,10.624,4.189
	c0.201,0.102,0.418,0.152,0.643,0.152c0.547,0,1.039-0.303,1.284-0.791C83.079,16.224,83.109,15.833,82.988,15.468z" class="color c4"/>
  <path opacity="0.3" fill="#412A5A" enable-background="new    " d="M110.242,68.336c-4.104,15.316-15.527,29.275-31.646,35.929
	c-23.644,9.764-51.067,2.129-65.604-17.201c23.582,12.455,62.488,19.467,90.635-31.498c0.492,0.017,0.688,0.667,1.188,0.625
	c-1.408,2.229-1.9,5.291-0.764,7.881c0.095,0.216,0.188,0.42,0.307,0.619C105.528,66.877,107.912,67.773,110.242,68.336z" class="color c1"/>
</svg>