<svg version="1.1" id="图层_1" x="0px" y="0px" width="109.529px" height="80.829px" viewBox="0 0 109.529 80.829" enable-background="new 0 0 109.529 80.829" xml:space="preserve" xmlns="http://www.w3.org/2000/svg" xmlns:xlink="http://www.w3.org/1999/xlink" xmlns:xml="http://www.w3.org/XML/1998/namespace">
  <path fill="#38312D" d="M109.515,30.532c-0.188-4.693-4.744-9.33-11.16-12.457l0.01-0.01l-0.525-0.275
	C86.084,11.567,46.996,0,30.705,0c-0.695,0-1.346,0.054-1.941,0.065C14.088,0.365,4.459,9.703,2.271,14.978
	c-0.549,1.322-1.309,3.502-1.698,5.27c-0.764,3.488-0.388,5.869-0.524,8.559c-0.203,4.043,0.216,7.838,1.447,14.182
	c0.328,1.686,0.454,3.666,0.585,5.76c0.35,5.597,0.748,11.942,5.604,13.328c2.423,0.694,9.994,3.607,18.759,6.986
	c13.499,5.203,28.8,11.098,31.744,11.351l0.076,0.007c1.068,0.265,2.446,0.41,4.233,0.41c11.472,0,37.552-5.94,39.863-9.078
	c2.427-3.287,1.532-25.387,1.355-29.262C105.021,41.733,109.828,38.405,109.515,30.532z" class="color c1"/>
  <path fill="none" d="M108.409,30.683c0.004,0.044,0.002,0.087,0.005,0.131c-0.002-0.144,0.013-0.285,0.005-0.43
	c-0.112-0.919-0.489-1.867-1.054-2.817C107.923,28.587,108.287,29.632,108.409,30.683z"/>
  <path fill="#F9F5E6" d="M107.365,27.566c-2.871-4.838-11.127-9.746-20.308-11.241c-1.748-0.26-3.525-0.412-5.306-0.412
	c-0.955,0-1.905,0.043-2.825,0.123c-14.292,1.268-26.351,8.725-29.324,18.136c-0.103,0.323-0.188,0.64-0.264,0.949
	c-0.022,0.09-0.038,0.177-0.058,0.267c-0.05,0.226-0.097,0.45-0.134,0.669c-0.013,0.08-0.024,0.158-0.036,0.237
	c-0.035,0.235-0.064,0.469-0.084,0.696c-0.004,0.049-0.008,0.098-0.012,0.146c-0.02,0.271-0.032,0.536-0.033,0.794
	c0,0.01,0,0.02,0,0.029c0.001,0.055-0.001,0.113,0.002,0.168c0.003,0.096,0.021,0.18,0.024,0.273
	c0.433,4.111,3.279,6.604,5.101,7.793c7.629,2.795,15.011,0.402,15.159,1.328c0.129,0.811-8.411,1.801-13.212,0.921
	c0.011,0.153,0.016,0.341,0.024,0.513c0.135,1.632,0.05,4.473-0.082,7.96c-0.003,0.094-0.007,0.189-0.011,0.284
	c-0.015,0.392-0.03,0.789-0.046,1.195c-0.164,4.203-0.368,9.563-0.215,13.85c0.058,1.26,0.146,2.43,0.283,3.407
	c8.508,3.596,35.846-2.772,42.138-11.97c2.912-4.256,3.552-17.299,3.679-21.188c-0.422,0.303-0.869,0.605-1.35,0.903
	c-4.156,2.361-6.301,0.622-4.152,0.394c1.395-0.15,3.359-1.073,5.533-2.369c0-0.014,0-0.066,0-0.066
	c0.106-0.027,0.213-0.093,0.316-0.127c0.844-0.512,1.711-1.072,2.591-1.666c2.063-1.979,3.687-5.256,3.648-8.75
	c-0.003-0.044-0.001-0.087-0.005-0.131C108.287,29.632,107.923,28.587,107.365,27.566z M51.757,36.852
	c1.32-4.626,5.283-17.05,28.947-19.298C58.765,20.198,51.757,36.852,51.757,36.852z M57.256,32.196
	c3.356-9.089,15.068-11.164,15.068-11.164S61.16,24.754,57.256,32.196z M99.47,52.052c1.059,21.061-35.071,22.91-35.071,22.91
	S95.769,71.878,99.47,52.052z M96.737,55.224C91.892,68.353,74.973,71.35,74.973,71.35S91.099,65.975,96.737,55.224z" class="color c2"/>
  <path fill="#F9F5E6" d="M4.658,29.144C2.722,15.527,7.923,7.612,16.05,3.676C-1.277,10.179,1.456,26.294,1.131,28.685
	c-0.287,2.099-0.195,4.264,0.138,6.798c27.704,5.569,44.809,16.901,45.686,13.927C47.835,46.412,5.355,34.032,4.658,29.144z" class="color c2"/>
  <path fill="#F9F5E6" d="M32.327,1.431c0,0,28.152,4.889,53.132,12.557C57.239,3.28,32.327,1.431,32.327,1.431z" class="color c2"/>
  <path fill="#F9F5E6" d="M7.878,18.927c0.199-0.469,0.385-0.926,0.527-1.373C8.178,18.019,8.014,18.475,7.878,18.927z" class="color c2"/>
  <path fill="#F9F5E6" d="M7.878,18.927c-2.397,5.624-6.866,12.901,36.08,24.891C25.83,36.884,4.677,29.546,7.878,18.927z" class="color c2"/>
</svg>