<svg version="1.1" id="图层_1" x="0px" y="0px" width="53.318px" height="106.424px" viewBox="0 0 53.318 106.424" enable-background="new 0 0 53.318 106.424" xml:space="preserve" xmlns="http://www.w3.org/2000/svg" xmlns:xlink="http://www.w3.org/1999/xlink" xmlns:xml="http://www.w3.org/XML/1998/namespace">
  <path fill="#020202" d="M42.776,4.915C42.482,4.712,35.489,0,25.205,0C19.166,0,13.258,1.636,7.642,4.862
	c-0.351,0.202-0.58,0.565-0.609,0.971L0.003,98.166c-0.03,0.408,0.146,0.808,0.468,1.06c0.376,0.295,9.39,7.198,24.649,7.198l0,0
	c8.977,0,18.238-2.415,27.53-7.176c0.452-0.231,0.717-0.72,0.659-1.224L43.301,5.792C43.263,5.438,43.072,5.116,42.776,4.915z" class="color c1"/>
  <path fill="#C9CACA" d="M25.204,2.951c-4.576,0-9.118,1.055-13.513,3.136c2.787,1.572,7.712,3.731,13.734,3.731
	c4.604,0,9.077-1.268,13.308-3.77C36.007,4.74,31.185,2.951,25.204,2.951z" class="color c2"/>
  <path fill="#C9CACA" d="M25.583,13.197c-6.972,0-12.686-2.524-15.826-4.287L7.67,36.38c0.944,0.677,3.056,2.055,6.08,3.244
	l0.869,0.326c3.343,1.201,6.834,1.809,10.383,1.809c6.199,0,12.468-1.861,18.637-5.532L40.669,8.892
	C35.894,11.749,30.823,13.197,25.583,13.197z" class="color c2"/>
  <path fill="#F39800" d="M37.655,42.36l3.147,59.125c-2.506,0.777-4.996,1.356-7.471,1.771l-1.883-59.192
	C33.428,43.699,35.5,43.148,37.655,42.36z M20.104,44.29l-1.883,59.156c-2.794-0.43-5.262-1.077-7.388-1.799l3.131-58.85
	c0.907,0.312,1.868,0.606,2.896,0.863C17.854,43.907,18.949,44.118,20.104,44.29z M6.933,39.432
	c1.094,0.699,2.659,1.586,4.625,2.434l-3.131,58.886c-3.003-1.231-5.032-2.487-5.927-3.091L6.933,39.432z M25.121,103.972
	c-1.555,0-3.04-0.076-4.458-0.214l1.886-59.195c0.806,0.061,1.636,0.099,2.499,0.099c1.263,0,2.586-0.073,3.958-0.232l1.884,59.186
	C28.956,103.844,27.03,103.972,25.121,103.972z M43.212,100.664l-3.153-59.27c1.438-0.628,2.904-1.364,4.398-2.22l6.323,58.273
	C48.252,98.707,45.727,99.767,43.212,100.664z" class="color c3"/>
  <ellipse fill="#020202" cx="31.185" cy="5.618" rx="1.612" ry="0.919" class="color c1"/>
  <ellipse fill="#020202" cx="25.167" cy="8.23" rx="1.615" ry="0.919" class="color c1"/>
  <ellipse fill="#020202" cx="25.167" cy="4.06" rx="1.615" ry="0.919" class="color c1"/>
  <ellipse fill="#020202" cx="19.517" cy="5.925" rx="1.616" ry="0.919" class="color c1"/>
</svg>