<svg version="1.1" id="图层_1" x="0px" y="0px" width="141.502px" height="200px" viewBox="0 0 141.502 200" enable-background="new 0 0 141.502 200" xml:space="preserve" xmlns="http://www.w3.org/2000/svg" xmlns:xlink="http://www.w3.org/1999/xlink" xmlns:xml="http://www.w3.org/XML/1998/namespace">
  <path fill="#FFFFFF" d="M141.232,85.075c-0.217-0.866-0.865-2.166-0.217-3.248c0.434-0.866,0.65-1.949-0.216-2.816
	c-1.083-0.866-3.032-0.649-3.466,0c-1.299,1.733-2.382,1.3-3.898,0.434c0.65-0.866,1.3-0.649,2.166-0.649c0.434,0,0.65,0,0.65-0.65
	c0-0.649-0.434-0.649-0.867-0.433c-0.217,0-0.433,0-0.649,0c-1.3,1.083-3.032,0.433-4.765,1.083
	c1.299,0.649,2.166,0.433,3.032,0.433c0.142,0,0.205,0.077,0.282,0.142c-0.035,0.054-0.066,0.138-0.066,0.292
	c-3.465,1.516-6.93,2.815-10.396,4.331c-4.114,1.733-8.446,2.6-12.778,2.816c-3.682,0.216-7.363,0-11.045-0.65
	c-6.715-1.299-13.429-2.599-20.143-3.682c-1.949-0.433-2.6-1.516-3.249-3.032c-0.217-0.649,0.216-1.083,0.649-1.3
	c3.033-1.516,5.198-3.898,8.014-5.631c0.217-0.216,0.434-0.216,0.867,0c-0.217,1.517-1.733,1.949-2.6,2.815
	c-0.866,0.65-1.732,1.3-1.299,2.166c0.433,0.433,1.732,0,2.382-0.65c2.165-2.165,4.114-4.331,5.415-7.146
	c0.433-1.083,1.299-1.3,2.165-0.649c1.949,1.516,4.331,2.599,6.497,3.898c3.898,2.382,8.014,3.897,12.563,4.765
	c4.115,0.866,8.014,1.732,12.129,1.949c1.299,0,2.382,0,3.682-0.217c-4.549,0-8.664-1.732-12.779-2.599
	c4.059,0.427,8.326,0.844,12.598,0.233c1.725,1.064,3.66,1.278,5.813,0.633c0.866-0.434,1.949-0.649,2.815,0
	c0.217-0.649,0.649-1.083,1.517-1.3c2.599-0.433,3.248-2.599,4.332-4.548c0.216-0.649,0.216-1.3-0.65-1.517
	c-2.166-0.649-3.248-1.949-3.898-4.114c-0.217-0.65-0.866-1.301-1.3-1.733c-1.516-1.3-3.032-2.599-4.331-3.898
	c-0.867-0.866-1.732-1.299-2.816-1.516c-3.031-0.65-5.848-1.949-8.662-3.032c-0.217,0-0.434-0.217-0.434-0.434
	c0,0,0.217-0.434,0.434-0.434c2.598-0.433,4.331-2.599,6.713-3.248c1.517-0.434,2.816-1.517,3.898-3.032
	c1.733-2.166,2.816-4.548,3.682-7.147c0.217-0.649,1.084-1.083,0.434-1.949c-0.434-0.649-1.299-0.433-1.949-0.433
	c-2.815,0-5.414,1.083-7.797,2.382c-1.083,0.65-1.949,1.083-3.248,0.866c-1.3-0.216-1.732-0.433-0.867-1.732
	c1.084-1.732,2.166-3.682,3.249-5.414c1.3-2.383,0.649-5.198,0.866-7.798c0.434-3.248-0.217-6.497-1.949-9.529
	c-0.65-1.083-1.516-2.166-0.65-3.682c0.217-0.434,0-0.649-0.216-0.866c-0.649-1.083-0.433-1.949-0.433-3.032
	c0-0.866,0.433-1.732,0-2.6c-0.217-0.433-0.867-1.299-1.517-0.866c-1.083,0.65-2.599,0.65-2.815,2.383
	c0,1.3-0.217,2.599-0.434,3.682c-0.434,2.166-1.299,3.898-3.031,5.415c-0.217-2.166-0.867-4.332-2.166-6.281
	c-0.867-1.083-1.517-2.382-1.084-3.682c0.65-2.383,0.217-4.765,1.084-6.931c0.217-0.65,0.217-1.3-0.434-1.517
	c-0.65-0.433-1.083,0-1.299,0.65c-0.867,0.866-1.301,1.949-1.517,3.032c-0.217,0.649-0.649,1.516-1.517,1.083
	c-1.949-1.083-2.599,0-3.248,1.516c-1.3,3.682-1.516,7.797-3.898,11.046c-1.084,1.516-1.732,3.032-2.383,4.765
	c-0.65,1.3-1.083,2.815-2.383,3.466c-0.865,0.433-1.299,1.083-1.516,1.732c-0.65,1.732-1.083,1.949-2.383,0.433
	c-0.217-0.217-0.433-0.649-0.649-0.866c-2.815-3.249-5.848-6.497-10.612-6.497c-1.083,0-1.299-0.217-1.516-1.3
	c-0.217-1.516-0.434-3.249-1.517-4.548c-1.083-1.083-2.166-1.949-3.249-2.816c-4.332-3.248-9.096-5.197-14.511-4.98
	c-1.3,0-2.815,0.216-3.898,1.082c-3.249,2.383-6.281,4.766-8.88,8.014c-0.866,1.3-2.382,2.383-2.815,4.115
	c-0.866,3.032-1.732,6.064-1.949,9.097c0,1.732-0.434,3.249,0.434,4.765c1.516,3.032,3.682,5.631,6.497,7.797
	c1.3,0.866,1.949,1.083,0.866,3.032c-3.032,5.631-6.714,10.612-11.263,15.161c-2.599,2.599-5.631,4.332-8.229,6.714
	c-0.434,0.217-1.083,0.433-1.733,0.433c-1.516,0-2.599,0.65-3.682,1.3c-1.083,0.65-2.165,1.3-3.248,1.733
	c-3.249,1.732-6.064,3.682-8.447,6.28c-4.115,4.332-7.147,9.313-8.88,15.161c-1.3,4.981-2.815,9.746-2.599,14.944
	c0.217,4.98,2.815,9.313,6.931,10.396c1.299,0.217,2.815,0.434,4.115,0.434c0.216,0,1.082-0.217,0.866,0.649
	c-0.65,1.949,0.216,3.898-0.217,5.848c-0.434,1.083-0.217,2.383,0.433,3.466c1.95,2.815,3.898,5.847,6.064,8.663
	c0.434,0.866,0.866,1.3,0.65,2.382c-0.217,1.517-0.217,3.032,0,4.549c0.433,2.599,1.083,5.414,0.649,7.797
	c-0.649,3.465-0.434,7.147-0.217,10.612c0.434,4.765,0.65,9.53,1.3,14.295c0.217,0.649,0.217,1.299,0,1.732
	c-0.866,0.866-0.217,1.732,0.217,2.382c1.949,2.816,4.548,4.981,7.363,6.498c4.332,2.166,8.663,4.331,13.429,5.631
	c5.631,1.516,11.045,3.682,16.676,5.198c3.898,1.083,7.58,1.949,11.479,1.732c1.516-0.217,3.032-0.866,4.548-0.433
	c1.3,0.216,2.816,0.433,4.115,0c0.434-0.217,1.083-0.217,1.516,0.433c0.867,1.733,1.517,1.516,2.383,0
	c0.217-0.433,0.65-0.433,1.083-0.433c3.898,0,7.797-0.867,11.695-1.083c4.981-0.434,9.313-2.599,13.861-3.683
	c2.599-0.649,4.765-2.165,7.147-2.815c1.299-0.217,2.6-0.217,3.465-1.083c2.166-1.732,4.332-3.032,6.715-4.331
	c2.166-1.083,3.682-2.383,2.166-4.981c-0.217-0.434-0.217-1.083,0-1.517c0.216-1.3,0.216-2.599,0.216-3.682
	c-0.433-6.064,0-11.912,0-17.977c0-3.032,0.649-6.064,0.649-9.096c-0.217-3.683,0.434-7.364,0.65-11.046
	c0-1.949,1.299-3.683,0.866-5.632c-0.217-1.299,0-2.382,1.083-3.248c2.166-1.949,3.682-4.115,4.549-6.714
	c0.865-2.816,3.465-5.198,2.165-8.664c0,0,0.216,0,0.216-0.217c0.217-0.866,0-1.949-0.216-2.815
	c-0.433-1.299-1.083-2.599-1.732-3.897c-1.3-2.383-1.733-4.549,0.216-6.932c1.084-1.083,1.732-2.599,2.383-4.115
	c0.434-1.299,0.217-2.815,1.083-4.114C141.666,88.973,141.666,87.024,141.232,85.075z M132.136,82.043
	c-2.6,2.382-5.848,2.382-9.097,3.248C126.072,83.559,129.103,82.909,132.136,82.043z M103.546,73.379
	c1.517,0.434,3.033,1.083,4.549,1.517C106.363,75.112,104.846,74.896,103.546,73.379z M136.251,72.297
	c1.299,1.082,1.082,2.814-0.65,3.248c-2.383,0.649-4.548,1.517-7.146,1.299c-0.82-0.204-1.641,0.162-2.461,0.203
	c-3.01-0.637-6.23-0.854-9.451-1.068c-2.6-0.217-5.199-0.867-7.797-1.949c-2.383-1.083-4.982-2.166-7.364-3.249
	c-1.517-0.649-2.815-1.3-3.683-2.815c-0.433-0.867-1.516-1.517-3.031-0.867c1.732,1.517,3.465,2.816,4.98,4.116
	c0.217,0.216,0.867,0.433,0.434,0.866c-0.217,0.433-0.649,0.217-1.082,0c-1.733-0.866-3.467-1.732-4.982-2.6
	c-1.299-0.649-1.299-2.599-1.949-3.898c-0.649,0.434-0.866,1.3-1.732,1.3c0.65-1.517,0.65-1.3,2.166-1.95
	c1.299-0.648,1.299-1.948,1.516-3.031c0.434-1.732,1.084-3.249,1.3-4.981c0.216-1.517,1.732-1.949,3.249-1.517
	c3.031,0.65,4.98,2.816,6.93,4.766c3.466,3.465,7.797,5.848,12.346,7.797c1.3,0.649,2.816,1.083,3.898,1.949
	c3.682,3.032,7.797,3.465,12.346,2.383C134.735,72.081,135.601,71.647,136.251,72.297z M98.349,48.256
	c-0.867,0.866-1.949,1.299-2.6,2.383c-0.217,0.433-0.648,0.433-1.082,0.216c-0.434-0.216,0-0.649,0.217-0.866
	c0.865-1.732,1.732-3.466,2.382-5.414c0.649-2.383,3.032-3.466,4.981-5.198c-0.65,1.516-0.866,3.032-1.516,4.114
	c-0.217,0-0.217,0.217-0.217,0.434C101.814,46.307,99.432,46.957,98.349,48.256z M99.865,53.454c0-0.433,0.217-0.649,0.65-0.866
	c0.649-0.216,1.299-0.433,1.949-0.866c0.866-0.649,1.732-0.433,2.383,0.217c1.082,1.083,2.165,1.732,3.682,1.083
	c0.865-0.217,1.299,0,1.516,0.649c0.217,0.866-0.65,0.434-1.083,0.65c-0.649,0.433-1.517,0-2.382,0.216
	c-1.733-0.216-3.682-0.649-5.848-0.433C100.515,54.104,100.082,54.104,99.865,53.454z M125.205,60.168
	c3.898,1.299,6.715,4.115,9.313,7.146c0.434,0.65,1.083,1.083,0.866,1.949c-0.433,0.867-1.299,0.217-1.949,0.434
	c-1.732,0.217-3.248-1.083-5.414-0.866c-1.949,0-3.898-0.65-5.848-0.434c-1.516,0-2.6-1.516-3.898-2.165
	c-3.249-1.949-6.064-4.549-9.529-6.064c-1.517-0.65-2.6-1.733-3.683-2.816c-0.649-0.649-0.217-1.083,0.433-1.083
	c1.084,0,1.949,0.217,2.816,0.217c1.516,0,2.815,0.217,4.332-0.217c1.516-0.433,2.814-0.216,4.331,0.65
	C119.574,58.435,122.39,59.302,125.205,60.168z M112.86,53.021c-0.216-0.217-0.649-0.217-0.649-0.649c0,0,0.434-0.434,0.649-0.434
	c2.815-0.649,5.632-1.299,8.663-2.166C119.574,52.587,115.458,54.104,112.86,53.021z M120.441,46.307
	c0.649-1.732,1.949-1.732,3.248-1.732c1.516,0,3.032,0.433,4.766,0.433c-1.084,0.649,0.648,2.383-1.301,2.383
	c0.434,1.299-0.865,2.815-2.165,2.599c-0.217,0-0.433-0.217-0.217-0.434c0-0.433-0.649-1.082,0.217-1.299s1.3-0.866,2.165-0.866
	c-0.433-0.217,0.65-0.867-0.216-1.517c-0.433-0.217-0.866-0.434-1.517,0c-1.732,1.083-3.682,1.949-5.631,2.383
	c-1.732,0.433-3.248-0.434-4.765-0.217c-0.649,0.217-1.949-0.434-1.3,1.299c0,0.217-0.217,0.65-0.649,0.65
	c-2.382,0.65-4.981,0.866-7.798,1.083c2.383-2.383,5.199-2.815,7.798-3.898c0.433-0.217,0.866-0.434,1.3-0.65
	c1.516-0.866,2.599-1.732,3.898,0.434C118.924,48.04,120.224,47.173,120.441,46.307z M119.141,22.049c0.433-0.866,1.3,0,1.517,0.65
	c1.516,3.898,1.516,7.797-0.434,11.479c-2.166,3.682-5.415,6.281-8.664,9.313c-3.248,3.249-8.229,3.683-11.479,7.148
	c-0.434,0.433-1.299,1.082-1.949,0.216c-0.434-0.866,0.434-1.3,0.867-1.732c1.516-1.517,3.682-2.6,4.98-4.548
	c0.217-0.434,1.083-0.65,0.65-1.301c-0.434-0.433-0.867,0.217-1.3,0.434s-0.649,0.217-1.083,0.217c0-3.465,2.599-5.414,4.115-8.23
	c0.434-0.433,1.082-0.866,1.299,0.217c0,0.217,0.217,0.65,0.65,0.65s0.434-0.434,0.649-0.867c0.649-2.166,1.949-3.898,3.466-5.631
	c-0.867,2.166-1.084,4.548-2.6,6.498c-0.866,0.866-1.949,2.382-1.299,3.031c0.649,0.867,1.732-0.865,2.599-1.299
	c1.083-0.434,1.949-1.083,2.382-2.166h-0.217c-0.648,0-1.516,1.083-1.732,0.217c-0.217-0.65,0.434-1.949,1.084-2.383
	c1.949-1.083,3.031-3.032,5.197-3.898c0.434-0.217,0.65-0.433,0.65-0.866c0-0.433-0.65-0.649-0.867-0.649
	c-1.516,0.433-1.299-0.434-1.082-1.3C116.975,25.298,118.275,23.782,119.141,22.049z M103.114,35.694
	c0.433-1.732,1.732-3.031,3.466-4.114C105.929,33.745,104.414,34.611,103.114,35.694z M112.644,25.732
	c2.165-3.249,3.465-6.498,4.764-10.396c0.217,0.866,0.434,1.732,0.867,2.599c0.649,1.083,1.082,2.166-0.65,2.816
	c-0.649,0.433-0.865,1.082-0.865,1.949c-0.217,1.516-1.95,3.898-3.25,4.115c-0.433,0-0.865,0.216-1.082-0.217
	C112.21,26.165,112.427,25.948,112.644,25.732z M92.501,33.095c0.434-0.217,0.866-0.649,0.434-1.083
	c-1.084-0.866-0.217-1.299,0-2.166c0.433-0.649,0-1.516,1.516-0.866c1.082,0.434,1.732-1.083,1.732-1.949
	c0.217-3.249,1.732-5.848,3.898-8.229c1.516-1.733,1.3-4.115,1.949-6.064c0.65-1.732,0.65-3.466,1.732-5.198
	c0.434,1.3,0.434,2.383,0.217,3.466c-0.217,0.433-0.217,0.865,0.217,1.082c0.65,0.434,0.866-0.217,1.299-0.433
	c0.867-0.649,1.084-1.732,1.949-2.383c0.867,2.166,2.383,4.115,3.033,6.498c0.865,3.682,0.649,7.146-1.949,10.179
	c-1.949,2.166-3.682,4.549-5.198,7.147c-0.649,0.866-1.517,0.866-2.166,1.949c0-1.3,0-2.166,0.649-2.599
	c1.517-1.083,1.517-2.815,2.166-4.115c0.65-1.516-0.866-1.083-2.166-1.3c1.949-1.083,2.6-2.815,3.465-4.548
	c1.084-2.383-0.216-4.981,0.434-7.364c0.217-0.433-0.434-0.866-0.865-0.866c-0.434,0-0.65,0.434-0.65,0.866
	c0,0.866-0.217,1.3-0.866,1.517c-0.866,0.216-0.649,0.866-0.649,1.299c0,1.949,0.217,3.898-1.949,4.981
	c-0.867,0.434-0.434,1.733-0.65,2.816s-0.217,2.165-0.434,3.248s-0.433,1.733-1.516,2.166c-1.083,0.434-2.166,1.732-1.299,3.249
	c0.216,1.732,0.216,3.249,0,4.981c0,0.649,1.299,1.516,0,2.382c-0.434,0-0.65,0.65-1.084,0.434c-0.433-0.217-0.217-0.65-0.217-1.083
	c0.217-2.166,0.65-4.548,1.301-6.714c-1.949,0.433-2.383,1.732-2.383,3.465c0.217,1.083,0,2.383-0.217,3.466
	c-0.217,1.299-0.434,2.382,0,3.465c0.434,0.649,0,1.517-0.866,1.517c-0.866,0.216-0.866-0.434-0.866-1.083
	c0.217-2.815-0.217-5.415-1.3-8.014C90.769,35.694,90.986,33.961,92.501,33.095z M78.423,22.049
	c2.166-0.434,3.898,0.434,5.631,1.517c2.166,1.516,4.115,3.465,5.415,5.848c0.433,0.866,0.866,1.732,0.649,2.599
	s0,2.383-1.732,1.083c-0.217,0-0.217,0-0.434,0c-0.649-0.217-1.732,0.433-1.949-0.433c0-0.434,0.65-1.083,1.084-1.733
	c0.216-0.649,0.865-1.083,0.432-1.949c-0.432-0.649-1.082-0.433-1.732-0.433c-0.433,0-1.082,0-1.299-0.434
	c-0.65-1.083-1.516-0.866-2.815-0.217c0.866-1.299,1.3-1.949,2.165-3.248c-1.949,0.433-3.031,0-3.898-1.3
	c-0.217-0.217-0.865-0.434-1.299-0.217s-0.867,0.866-1.083-0.217C77.557,22.266,77.773,22.049,78.423,22.049z M84.921,47.606
	c0,2.6-2.6,3.898-6.932,3.466C80.806,51.072,82.105,48.04,84.921,47.606z M81.672,42.841c1.3,0,2.815,1.517,2.815,2.383
	c-0.217,0.649-0.867,1.299-1.516,1.083c-1.084-0.217-1.732-0.867-1.732-1.949C81.24,43.708,81.023,43.058,81.672,42.841z
	 M84.921,36.561c0.217-0.867,1.082-1.083,1.732-1.3c0.434,0,0.649,0.649,0.649,0.866c-0.216,0.649-0.866,1.083-1.3,1.517
	C85.354,37.21,84.705,36.994,84.921,36.561z M77.773,33.528c0.434-0.433,1.517,0,2.383,0c0.65,0.217,0.434,0.65,0.217,1.083
	c-0.217,0.65,0,1.083,0.434,1.3c1.299,0.866,0.649,1.949,0.434,3.032c0,0.649-0.65,1.083-1.084,0.866
	c-0.866-0.433-1.949,0.217-2.383-0.649c-0.216-0.866-0.432-1.949-0.648-2.815C77.341,35.261,77.341,34.178,77.773,33.528z
	 M76.474,28.114c-0.866,1.3-0.65,3.466-2.815,3.682c-0.217,0-0.433,0.217-0.649,0.434c-0.434,0.217-0.434,1.732-1.517,0.649
	c-0.866-0.866-1.083-2.165-0.433-3.032c0.433-0.433,1.299-2.382,2.382-0.216c0.217,0.649,0.866,0.433,1.3,0
	C75.391,29.197,75.824,28.547,76.474,28.114z M71.925,36.561c-0.649,0.216-0.649-0.65-0.649-1.083c0-0.65,0-1.3,0.649-1.517
	c0.867-0.217,1.301,0.649,1.517,1.3C73.659,36.127,72.359,36.344,71.925,36.561z M68.677,27.248
	c-0.65,0.433-1.299,0.866-2.166,1.517c-0.217-1.3,0.867-1.733,1.516-2.383c0.217-0.434,0.65-0.217,0.867,0
	S68.894,27.031,68.677,27.248z M67.811,49.123c-0.649,0-1.3-0.434-1.517-1.083c-0.217-0.434-0.434-1.083-0.649-1.732
	c-0.216-0.65,0-1.083,0.433-1.3c0.867-0.433,0.65,0.217,0.867,0.649c0.217,0.434,0.434,0.434,0.866,0.434
	c0.866,0,0.866,0.649,0.866,1.3C68.677,47.823,68.894,48.689,67.811,49.123z M69.76,36.994c0.649,0,1.083,0.434,1.083,1.083
	c0,0.65-0.434,0.65-1.083,0.65c-0.433,0-0.649,0-0.866-0.65C68.894,37.427,69.111,36.994,69.76,36.994z M73.659,18.801
	c0.433,0.216,0.649,0.866,0.866,1.299c0.217,0.65-0.217,0.866-0.65,1.083c-0.865,0.433-1.732,1.083-2.599,1.083
	c-1.732,0.217-2.815,1.3-4.114,2.383c-0.65,0.433-1.301,0.866-1.301-0.65c0-0.866-0.865-1.516-0.865-2.599c0,0,0-0.217,0.217-0.217
	c0.217-0.433,0.648-0.217,0.865,0c0.434,0.433,0.867,0.866,1.517,1.083c1.3,0.866,1.949,0,2.166-1.083
	c0.216-0.866,0.433-1.3,1.516-1.083c0.649,0.217,1.083-0.217,1.733-0.649C73.226,19.234,73.009,18.368,73.659,18.801z
	 M73.009,17.068c0,0.866-0.434,0.866-0.867,0.65c-0.866-0.434-0.649-1.733-1.516-2.383c-0.217,0,0.217-0.649,0.649-0.433
	C72.142,15.335,72.576,16.418,73.009,17.068z M62.396,8.838c0,0,0.434-0.217,0.434,0c2.815,1.299,6.064,1.732,8.23,4.331
	c0.216,0,0,0,0,0.217c-1.517-1.3-3.033-1.083-4.332,0.217c-0.217,0.217-0.867,0.866-1.299,0.217c-0.217-0.434,0-0.867,0.432-1.3
	c0.434-0.434,0.867-0.866,0.217-1.516c-0.648-0.65-1.299,0-1.516,0.649c-0.65,1.083-0.866,1.083-1.083,0
	c-0.216-1.3-1.083-0.217-1.083-0.217c-0.434,0.433-0.434,1.083-1.299,1.3C60.88,11.004,61.962,10.137,62.396,8.838z M61.53,31.363
	c0.217-0.217,0.433-0.434,0.649-0.866c0.65-1.732,0.65-1.732,2.383-2.816c-0.434,1.733-1.732,2.816-1.949,4.332
	c0,0.434-0.65,0.65-1.299,0.65c-0.217,0-0.434,0-0.434-0.217C60.664,31.795,61.097,31.58,61.53,31.363z M60.88,28.114
	c0.217-1.299,1.082-1.949,1.516-2.815c0.217-0.434,0.434-0.866,0.867-0.434c0.216,0.217,0.433,0.867,0,1.3
	C62.613,26.815,61.962,27.248,60.88,28.114z M61.962,21.616c0,0,0.217,0,0.434,0.217s0.867,1.083,0.217,1.083
	c-1.299,0-1.299,1.733-2.599,1.517c-0.217,0-0.217,0-0.217-0.217C59.797,23.782,61.53,21.616,61.962,21.616z M53.733,20.1
	c0.65-2.166,2.166-3.465,3.898-4.981c0.433-0.433,1.083,0,1.517,0.217c0.433,0.217,0.217,0.866,0,1.083
	c-0.65,1.083,0.217,1.949-0.217,3.032c-0.65,1.949-2.816,0.866-3.898,2.165C54.816,20.75,53.517,21.4,53.733,20.1z M56.332,26.815
	c-0.649,1.732-0.865,3.465-2.165,4.765C52.867,30.28,53.083,29.414,56.332,26.815z M52.65,25.298c0-0.434,0.867-0.217,1.517,0
	c0.866,0.434,0.649,1.083,0.217,1.517c-0.434,1.082-1.733,1.516-2.166,2.599C51.568,28.114,52.867,27.031,52.65,25.298z M52,12.303
	c-0.649,0.866,0,3.249-2.599,1.949C50.268,13.386,51.134,12.737,52,12.303z M45.287,22.266c0.217-0.434,0.649-0.65,1.083-0.434
	c0.433,0,0.433,0.65,0.217,0.867c-0.434,1.299-1.083,2.382-2.166,3.248C44.853,24.649,44.853,23.349,45.287,22.266z M44.204,36.561
	c-0.433-0.867-1.083-1.517-0.866-2.6c0.866,0,1.3,0.434,1.3,0.866c0.216,1.517,1.299,2.383,2.599,3.249s2.599,1.516,3.682,2.383
	c0.866,0.649,2.383,0.216,3.466,0c0.649,0,1.083-0.217,1.299,0.433c0,0.649-0.649,0.649-1.082,0.866
	c-1.517,0.434-3.032,0.434-4.549-0.649C47.885,39.809,45.719,38.51,44.204,36.561z M28.393,68.181
	c-0.434,1.733-1.517,2.166-2.599,3.249C26.01,69.481,26.876,68.832,28.393,68.181z M26.661,74.03
	c2.815-3.683,5.848-6.932,8.663-10.396c1.516-1.732,3.249-3.248,5.198-4.548c0.649-0.434,1.299-1.083,1.949-0.434
	c0.649,0.65,0.433,1.517,0,2.166c-0.866,1.732-1.3,3.466-2.166,4.981c-2.166,4.115-3.032,8.663-3.898,13.211
	c-1.083,4.981-0.434,9.963,0.433,14.945c0.867,4.764,3.683,8.446,7.364,11.695c1.3,1.082,2.166,2.165,3.249,3.248
	c0.216,0.434,1.083,0.65,0.649,1.3c-0.217,0.433-1.083,0.649-1.732,0.433c-0.65-0.217-1.517-0.433-2.166-0.866
	c-1.949-1.083-3.898-1.949-6.281-1.299c-1.083,0.216-2.382-0.434-3.248-0.217c-1.949,0.217-4.115-0.866-5.848,0.866
	c-0.65,0.649-1.3,0.434-1.733,0c-1.299-1.516-3.248-1.949-4.548-3.248c-3.249-3.466-4.115-7.365-3.249-11.912
	c0.217-1.95,0.217-3.899,0.866-6.064c1.517,6.28,1.517,12.345,4.332,18.626c0.217-1.733-0.434-3.032-0.649-4.332
	c-0.434-5.415-1.517-10.612-1.733-15.811C21.896,81.61,23.845,77.711,26.661,74.03z M1.32,102.185
	c1.3,3.032,1.083,6.281,1.733,9.529C0.887,108.899,1.753,105.434,1.32,102.185z M4.569,110.415
	c-0.649-2.599-1.516-5.197-1.732-8.013C2.62,97.42,3.486,92.873,5.435,88.324c2.6-5.631,6.714-9.313,11.695-12.562
	c1.3-1.083,2.816-1.949,4.115-3.032c0.434-0.433,0.866-0.433,1.3-0.217c0.434,0.434,0,0.866-0.217,1.3
	c-3.249,7.147-4.765,14.728-4.765,22.524c0,5.848,2.599,10.396,7.797,13.428c0.649,0.434,1.083,1.083,0.434,1.517
	c-2.383,1.516-4.765,3.032-7.581,3.898c-0.649,0-1.299-0.217-1.732-0.217c-0.866-0.217-1.516-0.217-2.382,0.217
	C9.767,116.913,5.652,115.397,4.569,110.415z M22.762,125.36c3.032,1.299,6.064,2.599,9.313,3.031
	c1.517,0.217,1.3,2.166,2.383,2.816c-0.434,0.433-0.649,0.216-1.083,0.216c-1.732-0.433-3.249-1.299-5.198-0.866
	c-0.433,0-0.866-0.217-1.3-0.433c-2.165-1.517-4.548-3.032-7.146-3.898c-0.866-0.217-1.517-1.083-1.949-1.949
	c-0.434-0.867-1.3-1.3-2.166-1.517c-2.383-0.649-3.032-2.166-2.166-4.548c0.65-1.3,1.732-1.083,2.166-0.65
	c2.166,2.166,5.415,3.032,7.364,5.848c-1.083-0.216-2.383-0.216-4.115-1.083C19.513,124.709,21.462,124.709,22.762,125.36z
	 M19.296,118.862c-0.649,0-1.083-0.649-1.299-1.3c0-0.216,0-0.433,0.433-0.433c0.649-0.217,1.083,0.433,1.3,1.083
	C19.947,118.428,19.73,118.862,19.296,118.862z M19.513,135.539c-2.599-3.032-4.765-6.064-6.497-9.529
	c-0.217-0.434-0.217-0.866-0.217-1.3c0-1.3,0.866-1.3,1.516-0.649c2.815,2.383,6.064,4.115,9.313,5.848
	c1.732,1.083,3.465,1.732,5.414,2.599c-1.299,0.866-2.166,1.949-3.248,3.032C24.061,137.705,21.246,137.488,19.513,135.539z
	 M23.845,178.206c-0.65-0.65-0.866-1.949-0.866-2.815c-0.217-4.115-1.517-8.014-1.083-12.129c0.433-4.115,0.216-8.014,0.216-11.912
	c0-0.866-0.216-1.949-0.433-2.815c-0.866-2.599-0.217-5.198-0.217-7.797c0-0.434,0-1.083,0.649-1.083
	c0.867-0.217,0.65,0.433,0.867,0.866c0.866,2.166,1.299,4.332,1.516,6.714c0.434,3.249,1.949,6.498,2.166,9.963
	c0.433,7.147,1.949,14.078,2.382,21.226c0,1.299,0.217,2.815,0.434,4.548C26.876,181.887,25.361,179.938,23.845,178.206z
	 M45.719,190.334c-0.433-0.217-0.866-0.217-1.299-0.217c-2.6-0.434-2.6-1.3-3.466-3.682c-1.299-3.249-0.866-6.715-1.732-9.963
	c-0.649-2.383-0.866-4.981-2.166-7.364c-0.649-0.866-0.866-1.949-0.649-3.032c0-6.497-1.517-12.778-1.732-19.275
	c-0.217-2.816-0.866-5.848-1.3-8.664c0-0.216-0.217-0.433-0.217-0.649c-0.217-0.866-0.433-2.166-1.732-1.732
	s-0.434,1.517-0.217,2.382c0.434,3.249,1.949,6.281,2.6,9.53c0.433,2.815,0.649,5.631,0.866,8.446
	c0.866,7.581,1.949,14.944,3.465,22.309c0.649,2.815,0.217,5.414,0.434,8.014c0,0.649-0.217,1.299-1.083,0.649
	c-0.217-0.217-0.65-0.434-0.866-0.434c-2.383-0.649-3.898-1.732-4.115-4.98c-0.434-3.683-1.3-7.364-1.732-11.046
	c-0.65-4.332-1.733-8.88-1.949-13.429c-0.217-2.815-1.083-5.631-1.517-8.446c-0.217-0.434-0.217-1.083-0.217-1.517
	c0.217-2.599-0.649-4.548-1.516-6.714c-0.649-1.299-0.434-2.166,0.433-3.032c0.866-1.083,1.949-1.732,2.6-3.032
	c0.217-0.649,1.083-0.649,1.516-0.433c1.517,0.433,3.032,0.866,4.115,1.732c1.083,0.649,2.166,1.517,3.466,1.949
	c1.516,0.433,1.949,1.517,1.949,3.032c0.216,6.281,1.516,12.345,3.465,18.193c0.434,1.732,0.434,3.682,0.65,5.631
	c0.649,5.198,1.299,10.612,1.948,15.811c0.434,3.032,0.867,6.064,0.867,9.096C46.586,190.334,46.586,190.767,45.719,190.334z
	 M37.49,129.691c2.382,0.217,5.848,2.599,6.714,5.198c-0.866-0.217-1.732-0.217-2.383-0.434c-0.866,0-5.197-3.465-5.197-4.115
	C36.407,129.691,36.839,129.691,37.49,129.691z M55.033,191.85c0.217,0.866-0.217,0.866-0.866,0.866
	c-1.517-0.216-3.032-0.649-4.548-1.299c-1.733-0.65-1.083-2.383-1.3-3.683c0-0.216,0.433-0.866,0.217-1.299
	c-1.517-4.115-1.949-8.447-2.6-12.563c-0.649-3.682-2.165-7.363-1.949-11.045c0-4.332-0.866-8.447-1.083-12.779
	c0-3.031-0.216-6.28-1.299-9.313c-0.217-1.083,0-1.516,1.083-1.083c1.949,0.649,4.114,1.3,6.063,1.949
	c0.434,0,0.866,0.217,0.65,0.649c-0.434,1.949,0.433,3.466,1.083,5.198c0.649,1.3-0.434,2.383,0,3.466
	c0.433,1.516,0.866,3.248,1.299,4.765c1.3,4.765,0.866,9.746,1.517,14.728c0.433,3.032,0.649,5.848,1.3,8.88
	c0.433,1.949,0.433,3.898,0.649,6.064C55.033,187.519,54.816,189.684,55.033,191.85z M80.806,168.243
	c0.434,9.313,0,18.409-0.65,27.506c0,0.434,0,0.866-0.434,0.866c-1.949-0.433-4.331,0-6.713-1.299
	c2.166-0.649,2.166-1.733,0.865-3.466c-0.433-1.3-0.216-3.032-0.216-4.548c0.216-2.6-0.433-5.198-0.433-8.014
	c0-3.682,0-7.364-0.217-11.046c0-1.949-0.217-3.898-0.434-5.631c0-0.65-0.867-0.65-1.3-0.65c-0.866,0-0.433,0.434-0.433,0.867
	c-0.217,8.014,0.865,15.811,0.649,23.823c0,1.95,0.433,3.683-0.433,5.632c-0.434,1.082,0.216,2.383,0.648,3.682
	c-2.814,0-5.631-0.434-8.445-1.083c-1.517-0.433-3.033-0.866-4.549-1.083c-1.299,0-1.732-1.083-1.299-1.732
	c1.516-1.949,0.648-3.465,0.216-5.198c-0.866-3.465-1.3-7.147-1.949-10.612c-1.083-5.414-1.949-10.829-2.382-16.243
	c-0.434-5.415-3.032-10.396-1.517-16.028c0.434-1.299,0.866-1.732,1.949-1.516c1.3,0.217,2.815,0.434,4.115,0.434
	s1.732,0.649,1.949,1.732c0.866,7.363,1.949,14.511,2.599,21.658c0.434,4.549,0.434,9.097,0.867,13.645
	c0.433,3.898,0,8.014,0.648,11.912c0.217,1.732,1.518,1.732,2.6,2.166c0.65,0.434,0.867-0.65,0.867-1.3
	c-0.65-4.548-1.084-9.313-1.949-13.861c-0.65-3.682-0.434-7.147-1.084-10.829c-0.866-5.414-1.299-11.046-1.516-16.46
	c0-2.382,0.434-4.548,0.434-6.931c0-0.866,0.433-1.083,1.299-1.083c1.732,0.217,3.249,0.866,4.766,0.866
	c0.865,0,1.299,0.866,1.299,1.517c-0.217,1.516,0.434,2.815,0.434,4.114c0,0.217,0,0.65,0.216,0.867
	c0.433,0.433,1.3,0.433,1.517,1.082c0.434-0.433,0.434-1.082,0.434-1.732c0-1.516,0.648-2.815,0.433-4.331
	c0-0.65,0.433-1.083,0.866-1.083c1.516-0.217,3.248-0.434,4.765-0.65s1.733,0.65,1.95,1.949
	C81.888,153.515,80.589,160.879,80.806,168.243z M91.418,166.726c-0.217,1.733,0,3.683,0,5.632c0,6.064-1.083,11.912-0.866,17.977
	c0,1.299,0,2.382-0.217,4.115c0.217,1.082,0,1.516-1.083,1.732c-0.217,0-0.433,0.217-0.649,0.217
	c-4.549,0.866-4.549,0.649-4.766-3.898c-0.217-4.766-0.433-9.313-0.217-14.078c0.217-3.032,0.867-6.064,0.434-9.097
	c-0.217-1.732,0.434-3.682-1.516-4.981c-0.65-0.434-0.217-0.866,0.434-1.083c0.216-0.217,0.433,0,0.433-0.217
	c0-0.216,0-0.433,0-0.649c0.216-3.032,0.216-5.848,0.433-8.88c0.217-2.383,0.434-4.981,0.217-7.58c0-1.083,0.217-1.733,1.517-1.95
	c1.732-0.433,3.249-0.216,4.981-0.433s2.166,1.3,2.166,2.599C92.285,153.082,92.285,159.796,91.418,166.726z M102.248,181.021
	c0.217,3.249-0.866,6.281-0.65,9.313c0.217,2.382-0.865,3.031-2.814,3.031c-1.517,0-2.383,1.301-3.683,1.517
	c-1.517,0.217-1.949-0.433-2.165-1.732c-0.217-2.383,0.216-4.548,0-6.931c-0.217-6.714,1.299-13.429,0.865-20.143
	c-0.433-3.682,0.434-7.363,0.217-11.045c-0.217-3.466,0.217-6.715,0.65-10.18c0.217-1.732,0.865-2.6,2.599-2.815
	c1.733,0,3.249-0.434,4.981-0.866c1.516-0.434,1.732,0.433,1.949,1.516c0,1.083,0,2.166,0,3.249
	c0.217,2.815-0.217,5.631-0.434,8.663c-0.433,2.815-0.217,5.415-0.217,8.23c0.217,3.465-0.648,6.714-0.865,10.179
	C102.464,175.607,102.031,178.422,102.248,181.021z M111.994,179.072c-0.434,1.3-0.434,2.815-0.217,4.115
	c0.217,0.866,0.217,1.732,0,2.599c-0.434,1.3,0.217,3.032-0.866,3.466c-1.949,0.866-3.682,2.166-6.28,2.382
	c-1.084,0.217-1.3-0.866-1.3-2.165c0.216-3.249,0.649-6.281,0.649-9.53c0.217-3.898,0.867-8.014,1.299-11.912
	c0.434-3.682,0.65-7.58,0-11.479c-0.432-2.166,0-4.549,0.65-6.714c0.65-2.383,0.217-4.981,0.434-7.364
	c0.217-1.516,0.434-2.383,1.949-2.815c2.599-0.866,5.414-1.949,8.014-2.815c1.299-0.434,1.732,0,1.516,1.299
	c-0.866,5.415-1.732,10.83-2.815,16.244c-0.649,3.466-0.649,7.147-0.866,10.612C113.943,169.759,113.726,174.524,111.994,179.072z
	 M126.938,146.801c-0.433,5.848-1.517,11.695-1.733,17.543c0,3.465-1.732,6.931-1.949,10.396c-0.216,2.815-0.865,5.849-0.433,8.664
	c0.217,0.649,0,0.866-0.433,1.083c-2.166,0.866-4.332,1.949-6.498,3.032c-1.083,0.433-1.732,0.216-1.516-1.3
	c0.217-1.083-0.434-2.383,0.865-3.465c0.217-0.217,0.434-0.867,0-1.083c-1.516-0.867-0.648-1.733-0.648-2.816
	c0.216-3.465,1.299-6.714,1.732-10.179c0.433-3.683,0.649-7.364,0.649-11.046c0-3.032,1.083-6.064,1.083-9.097
	c0.217-1.949,0.65-3.682,1.083-5.414c0.649-2.383,1.3-4.766,1.732-7.147c0.216-1.3,2.166-1.083,3.032-1.949
	c0.65-0.65,1.949-1.083,3.032-1.517C127.804,137.272,127.154,142.037,126.938,146.801z M135.818,118.862
	c-0.434,1.083-0.65,2.383-1.949,3.249c-0.217-0.649-0.434-1.517-1.516-1.517c-0.434,2.815-3.466,2.815-5.199,4.549
	c-0.216,0.217-0.433,0-0.648-0.217c-0.217-0.434,0-0.649,0.216-0.866c2.382-2.166,4.548-5.198,8.014-6.064
	c0.217,0,0.649-0.217,0.866,0C136.035,118.212,135.818,118.645,135.818,118.862z M121.957,122.76
	c1.299-1.083,2.815-1.732,4.765-1.949c-0.216,1.3-1.3,2.166-2.165,3.032c-4.115,4.115-6.715,5.198-11.912,5.848
	C116.109,127.309,119.141,125.143,121.957,122.76z M121.523,119.512c0-1.517,1.732-1.3,2.383-2.166
	c0.217,1.732-1.083,2.166-1.949,2.815c0,0-0.434,0-0.65-0.217C120.874,119.728,121.523,119.728,121.523,119.512z M126.505,118.862
	c0.216-1.949,0.216-1.949,6.28-4.331C132.353,116.696,130.187,118.428,126.505,118.862z M136.468,113.014
	c0.216,0.649,0.433,1.3,0,1.949c-0.217,0.217-0.434,0.434-0.867,0.65c-0.434-0.867-0.217-1.083,0-1.517
	c0-0.434-0.217-1.083,0.434-1.3C136.251,112.797,136.468,112.797,136.468,113.014z M135.818,108.899c0,0.434,0.866,0.866,0,1.3
	c-1.949,0.649-3.249,2.599-6.064,2.815c1.516-1.949,3.465-3.249,5.198-4.548C135.384,108.033,135.818,108.466,135.818,108.899z
	 M139.066,83.125c-0.865,1.949-1.299,3.898-1.949,5.848c-0.217,0.217,0,0.65-0.648,0.65c-2.6,0.217-3.899,2.166-5.415,3.682
	c-0.649,0.65-1.517,1.3-2.383,1.949c-3.898,3.249-8.446,4.332-13.429,3.898c-2.382-0.217-4.547,0-6.93,0.217
	c-3.033,0.433-6.281-0.217-9.313-0.434c-7.147-0.217-13.86-2.815-20.792-3.898c-3.465-0.649-6.931-2.165-10.18-3.682
	c-1.299-0.649-3.031-0.866-3.898-2.815c-0.433-1.083-2.599-1.3-3.682-2.166c-0.434-0.217-1.082,0-1.516,0.434
	c-0.217,0.433,0.434,0.649,0.649,1.083c0.866,0.649,1.733,1.516,1.733,2.815c0,1.083,1.082,1.516,1.949,2.166
	c2.598,1.516,5.631,1.516,8.445,2.815c6.932,3.031,14.512,3.465,21.875,4.331c5.415,0.65,10.83,0.866,16.244,0.65
	c6.281-0.217,12.778-0.217,19.06-2.166c1.949-0.65,3.898-1.083,5.415-3.032c0.433-0.65,1.299-1.732,2.598-1.949
	c0.65,0,1.084-0.217,0.867,0.866c-0.866,3.032-2.815,5.631-4.766,8.014c-3.248,3.898-8.014,5.414-12.777,7.147
	c-4.982,1.732-10.18,2.382-15.378,3.248c-5.631,1.083-11.479,0.217-17.11-1.516c-1.516-0.434-2.814-0.65-4.331-0.65
	c-2.815,0-5.415-1.299-8.014-1.949c-1.732-0.433-2.815-1.732-4.115-2.814c-0.649-0.65-1.516-1.084-2.382-1.301
	c-3.249-0.649-5.415-2.814-7.364-5.414c-1.517-1.949-1.732-4.115-2.599-6.064c-1.083-2.599-1.3-5.197-1.732-7.797
	c-0.65-3.465-0.867-6.714-0.867-10.18c0-0.216-0.217-0.216-0.649-0.433c0,1.516,0,3.249,0,4.765c0,3.465-0.216,6.714,0,10.18
	c0.217,3.032,0.866,5.848,1.733,8.663c1.949,5.848,6.496,8.663,11.695,10.829c4.115,1.732,8.014,3.682,12.129,5.198
	c3.465,1.3,6.93,1.949,10.611,1.516c3.033-0.216,5.848,0.434,8.881,0.217c3.248-0.217,6.28-0.649,9.529-1.516
	c2.166-0.65,4.332-0.65,6.497-1.083c5.632-1.3,11.046-3.032,15.595-6.498c0.648-0.433,1.082-1.082,1.732-1.732
	c0.433-0.217,0.649-0.217,0.866,0.217c0.216,0.217,0.649,0.649,0,0.866c-2.383,1.083-3.898,3.249-6.064,4.548
	c-3.249,1.949-6.714,3.249-10.396,4.549c-2.816,0.866-5.415,1.949-8.014,2.815c0.217,0.216,0.217,0.216,0.217,0.433
	c3.465-0.866,7.146-1.732,10.828-2.599c0.217,0.649-0.434,1.083-0.866,1.083c-2.382,0.433-4.548,1.516-6.931,1.732
	c-0.434,0-0.649,0-1.082,0.217c-0.434,0.217-1.301,0.434-0.867,1.3s1.3,0.433,1.732,0.216c1.3-1.082,2.816-0.866,4.115-1.516
	c0.434-0.217,0.867,0,1.084,0.434c0.216,0.433-0.217,0.649-0.434,0.866c-1.084,1.948-2.816,2.165-4.549,2.382
	s-3.465,0.649-4.98,1.517c1.516,1.299,3.465-0.65,4.764,0.866c-2.814,2.815-5.848,5.414-8.879,7.797
	c2.599-1.517,5.414-2.815,7.58-4.981c2.166-1.949,4.332-4.115,7.363-4.981c-2.166,3.682-6.281,5.414-9.313,8.23
	c2.383,1.516,4.332-0.867,6.497-0.434c0,0.649-0.433,1.083-0.866,2.166c3.898-2.6,7.363-4.549,11.695-5.414
	c-0.866,1.732-2.166,2.814-3.682,3.897c-0.217,0-2.166,0.217-0.434,1.3c0.434,0.433-0.433,0.649-0.649,0.866
	c-3.032,1.517-6.064,2.383-9.313,3.032c-1.732,0.434-3.682,0.866-5.414,1.3c-5.414,1.3-10.613,3.249-16.244,3.898
	c-3.898,0.433-8.014,0.649-11.912,1.083c-4.115,0.433-8.446,0-12.561-0.65c-3.899-0.649-7.798-0.866-11.696-1.082
	c-3.898-0.217-7.146-1.733-10.612-2.816c-1.516-0.433-3.249-0.649-4.981-1.299c-0.649-0.217-1.516-0.434-1.732-1.3
	c1.516-0.217,2.815,0,4.115,0.217c1.083,0.217,2.166,0.649,3.465,0c0.866-0.217,1.517,0.649,2.383,1.083
	c1.299,0.433,2.166,1.949,3.898,0.866c-1.949-1.517-3.898-2.815-5.631-4.332c-0.434-0.217-1.3-0.649-0.867-1.3
	c0.217-0.649,1.083-0.217,1.517-0.217c2.166,0,4.115,0.867,5.631,2.383c0.434,0.434,1.083,0.65,1.732,0.866
	c0.65,0.217,1.3,0.217,0.65-0.866c-0.65-0.866-0.217-1.083,0.649-1.083c1.3,0.217,2.599,0.217,3.898,0c0.433,0,0.866,0,1.083-0.433
	c0.217-0.434-0.217-0.65-0.434-0.867c-0.434-0.433-0.649-0.865-1.299-1.082c-0.217,0-0.65-0.434-0.65,0
	c0,2.599-1.732,0.866-2.383,0.866c-2.598,0.433-4.98,0-6.713-2.166c-2.166-2.599-5.198-4.548-5.632-8.229
	c0-0.025-0.011-0.049-0.013-0.074c0.567,0.305,1.577,0.356,2.179,0.507c4.765,0.433,9.746,1.083,14.511,1.516
	c1.3,0.217,2.6,0,3.898-1.083c-1.082-0.433-1.949-0.433-3.031-0.433c-4.982,0-10.18-0.649-15.161-1.516
	c-0.99,0-2.332-0.528-2.721,0.208c-0.217-0.209-0.535-0.314-0.961-0.208c-0.65,0.216-0.866,1.083-0.65,1.732
	c0.65,2.382,2.166,4.115,3.683,5.848c0.433,0.649,1.732,1.3,1.083,2.166c-0.65,0.649-1.733,0-2.6-0.434
	c-4.548-1.949-6.28-5.848-8.014-9.963c-0.433-1.083-0.866-2.166-1.299-3.249c0-0.216-0.434-0.433-0.434-0.433
	c-1.083,0.433-0.866,2.382-2.383,1.949c0.217,0.866,0.434,1.3,1.3,1.732c0.65,0.217,1.517,0.434,1.732,1.517
	c0,1.082-1.516,0.217-1.516,1.299c3.465,0.217,3.898,3.899,6.064,6.281c-2.166-0.649-4.115-0.866-6.064-1.949
	c-1.3-0.649-3.032-0.866-4.548-1.083c-1.733-0.217-3.466-0.433-2.816-2.815c0-0.434-0.216-0.434-0.433-0.65
	c-1.732-1.082-2.599-2.814-3.682-4.331c-0.434-0.649-0.217-1.083,0.216-1.3c1.949-1.299,2.6-1.082,3.249,1.083
	c0.866,3.249,3.249,4.115,6.281,4.115c0.216,0,0.433,0,0.433-0.433c0-0.217,0-0.434-0.217-0.434
	c-0.216-0.217-0.649-0.434-0.866-0.434c-2.165-0.649-3.898-1.732-4.331-4.331c-0.217-0.217-0.434-0.649-0.434-0.866
	c0-0.866-1.516-0.866-0.649-1.949c1.083-1.083,2.166-1.733,3.465-1.517c0.866,0.217,1.733,0.649,2.6-0.217
	c-0.217-0.649-1.733-0.433-1.083-1.516c0.649-0.866,1.516-0.434,2.166-0.217c1.299,0.433,2.815,0.433,4.331,0.217
	c2.6-0.434,4.981,0,7.364,1.083c4.765,1.949,9.746,1.732,14.511,0c0.649-0.217,1.299-0.434,1.299-1.3
	c0-0.649-0.865-0.649-1.299-0.866c-0.867-0.217-1.732-0.649-2.166-1.516c-1.732-3.033-4.331-5.415-6.497-8.23
	c-1.083-1.3-1.517-3.032-2.166-4.549c-1.083-3.031-3.249-5.631-3.465-8.879c-0.217-1.733-0.217-3.466-0.434-5.415
	c-1.083,1.3-0.434,2.599-0.434,3.682c0,3.249,0.65,6.498,1.083,9.747c0.217,0.865,0.434,1.732,1.517,1.948
	c0.866,0.217,1.083,1.083,1.299,2.383c-0.866-0.866-1.299-1.3-1.732-1.949c0.217,3.248,0.866,4.765,3.032,6.714
	c2.6,2.383,5.415,4.332,8.23,6.714c0.865,0.866,0.433,0.866-0.217,1.083c-1.949,0.434-3.898,0.217-5.848-0.434
	c-3.032-1.299-4.115-4.114-6.281-6.063c-5.848-5.415-7.363-12.346-7.797-19.926c-0.217-5.198,1.517-9.963,3.249-14.728
	c0.434-1.517,0.866-3.032,1.516-4.332c0.434-0.866,0.866-0.866,1.733-0.434c1.083,0.434,0.866,0.867,0.216,1.517
	c-0.216,0.217-0.216,0.434-0.216,0.434c1.516,1.299,0.866,2.815,0,4.115c-0.217,0.217-0.217,0.433,0,0.649
	c1.083,1.083,1.299,1.732,0.433,3.032c0,0.217,0,0.217,0,0.217c-0.433,0.649-0.216,1.516-0.216,2.382l0.433,0.217
	c0.866-0.433,0.649-1.516,0.866-2.166c0.866-3.465,0.866-7.147,0.866-10.829c0-3.249,0.866-6.28,1.083-9.313
	c0.217-3.465,0.866-6.93,2.599-9.962c0.434-0.649,0-1.083,0-1.733c2.816,0.217,3.683,1.084,3.683,3.899c0,2.165,0,4.114,0,6.063
	c0,3.032,0.649,5.849,1.3,8.664c0.216-1.083,0.216-2.166,0-3.249c-0.65-3.466-0.217-6.714,0-9.963c0-1.3-0.217-2.599-0.434-3.898
	c-0.217-0.866,0.217-1.517,0.866-1.517c3.031,0.434,3.031-1.949,3.031-3.031c0.434-2.383,2.166-3.466,3.467-5.415
	c0,3.032,0.216,5.415,0,7.797c0,1.083-1.301,1.733-2.166,2.383c-1.301,1.299-3.25,2.382-3.466,4.548
	c-0.433,3.249,0.433,6.281,2.382,8.88c1.517,2.166,4.115,2.383,6.281,3.032c2.6,0.866,5.414,0.649,8.014-0.217
	c3.898-1.299,8.014-1.516,11.912-3.032c1.732-0.649,3.465-1.299,4.765-2.599c-6.28,2.383-12.778,3.466-19.492,3.032
	c-3.898-0.217-7.364-2.166-10.396-4.548c-1.949-1.517-2.166-2.6-1.084-4.982c0.867-1.732,1.733-3.031,3.25-3.898
	c1.082-0.649,2.598,0.65,3.465,2.383c1.732,3.898,5.197,5.848,9.313,6.064c2.816,0.217,5.631,0,8.447-1.3
	c1.732-0.866,2.815-2.382,4.115-3.682c0.433-0.433,0.433-1.083-0.217-1.3c-1.083-0.433-0.867-0.866-0.434-1.516
	c0.217-0.434,1.083-0.65,0.65-1.516c-0.434-0.867-1.084-0.217-1.949-0.217c0.649-3.249,2.166-6.064,3.898-8.88
	c0.865,1.299,1.299,2.382,1.082,3.682c0,1.516,0.217,3.032,0.65,4.548c0.866,2.6,0.217,5.631,0.866,8.447
	c0.433,1.299-0.866,2.382-1.733,3.465c0.434-0.217,0.867-0.649,1.301-0.217c0.433,0.434,0,1.083-0.217,1.517
	c-1.084,2.166-2.6,3.898-5.198,4.981c-1.95,0.649-3.466,2.166-5.198,3.248c-1.949,1.3-4.115,1.517-6.281,1.733
	c-1.949,0.216-3.898,0.649-5.848,0.649c-3.248,0-6.714,0.434-9.096-2.6c-1.3-1.516-1.949-3.031-0.867-5.197
	c-1.516,0.65-2.166,1.949-1.299,3.465c0.649,0.867,0.434,1.3-0.434,1.732c-0.434,0-0.866,0.217-0.866,0.65
	c-0.216,1.732-0.649,0.434-0.866,0c0,0.313,0.124,0.533,0.269,0.783c-0.585-0.322-1.097-0.273-0.701,0.517
	c0.217,2.382,0.433,4.981,0.866,7.363c1.053-2.526,0.268-5.052,0.023-7.578c1.067-0.194,1.716,0.868,2.575,1.298
	c0.866,1.299,2.166,1.949,3.682,1.949c3.466,0,6.714,0,9.963-1.3c2.599-1.083,5.415-1.083,7.797-2.166
	c6.281-2.815,9.097-5.198,14.078-10.829c0.649,1.083,0,1.949-0.433,2.6c-1.949,3.031-4.115,6.064-6.281,9.313
	c-2.166,3.249-5.198,5.631-8.447,7.58c-0.434,0.217-1.082,0.434-1.082,1.3c0,0.433-0.867,1.083-1.301,0.433
	c-0.648-0.865-1.299-0.649-1.949-0.433c-2.814,0.866-5.414,0.65-8.229,0.65c-0.649,0-1.3-0.218-1.733-0.65
	c-0.648-0.649-1.516-1.083-2.382-1.083s-1.3-0.433-1.517-1.083c-0.216-0.216-0.433-0.649-0.865-0.433
	c-0.434,0-0.434,0.433-0.434,0.866c0,0.649,0.434,1.083,1.083,1.516c4.331,3.032,8.88,4.766,13.861,5.849
	c4.981,1.082,9.962,2.165,14.944,2.599c3.031,0.433,6.064,1.3,9.096,2.166c2.816,0.866,5.632,0.649,8.23,0.649
	c2.6,0,5.198,0.866,8.014,1.083c3.032,0.216,5.848,0.216,8.663-0.866c2.815-1.083,5.632-1.517,8.23-2.383
	c2.382-0.649,4.331-2.166,6.497-3.465c0.65-0.217,1.083-0.65,1.516-0.217C139.283,82.043,139.283,82.476,139.066,83.125z
	 M87.736,113.88c-2.814,0-5.414,0.217-8.446-1.3C82.539,111.931,85.138,113.014,87.736,113.88z M70.843,108.466
	c-1.516,0-2.6-0.65-3.682-1.733C69.328,106.083,69.76,107.816,70.843,108.466z M57.416,53.454c4.331,3.683,8.662,6.281,14.077,5.849
	c-3.682,1.732-7.364,0.433-10.612-1.083C59.365,57.569,57.199,56.703,57.416,53.454z M63.696,68.181
	c-1.733,1.083-4.331,0.434-5.632-1.299c-0.216-0.217-0.433-0.217-0.216-0.649c0.216-0.434,0.649-0.217,0.866,0
	C60.447,66.882,61.747,68.181,63.696,68.181z" class="color c1"/>
</svg>