<svg version="1.1" id="图层_1" x="0px" y="0px" width="92.8px" height="100.771px" viewBox="0 0 92.8 100.771" enable-background="new 0 0 92.8 100.771" xml:space="preserve" xmlns="http://www.w3.org/2000/svg" xmlns:xlink="http://www.w3.org/1999/xlink" xmlns:xml="http://www.w3.org/XML/1998/namespace">
  <path fill="#FFFFFF" d="M44.879,71.219c-0.264-2.361-0.416-4.734-0.471-7.111c-0.101-4.255,0.112-8.525,0.574-12.756
	c0.539-4.908,1.385-8.964,1.989-11.804c0.627-2.832,1.11-4.414,1.11-4.414c0.068-0.224-0.035-0.473-0.25-0.582
	c-0.242-0.118-0.533-0.021-0.658,0.221c0,0-3.082,6.05-5.606,15.95c-0.639,2.47-1.202,5.183-1.729,8.084
	c-1.799,9.893-1.394,20.108,1.12,29.833c0.133,0.517,0.275,1.028,0.42,1.543c0.529,1.868,1.114,3.722,1.703,5.572
	c0.113,0.354,1.367,5.017,1.576,5.017c3.475,0,6.953-0.001,10.428,0c-2.987-6.717-6.637-13.152-8.51-20.31
	C45.78,77.429,45.226,74.334,44.879,71.219z M60.6,59.094c-7.218,5.701-10.751,14.316-10.298,22.854
	c8.199,2.419,17.398,0.976,24.615-4.723c7.217-5.701,10.752-14.317,10.299-22.854C77.016,51.952,67.816,53.396,60.6,59.094z
	 M0.925,43.885c-1.576,9.185,1.156,18.963,8.244,26.055c7.088,7.088,16.87,9.819,26.055,8.244
	c1.576-9.187-1.156-18.965-8.244-26.055C19.888,45.039,10.11,42.308,0.925,43.885z M53.164,54.959
	c7.746-1.038,14.883-5.67,18.778-13.112c3.896-7.445,3.629-15.95,0.072-22.899c-7.739,1.038-14.88,5.67-18.772,13.113
	C49.347,39.504,49.608,48.009,53.164,54.959z M18.142,40.597c0.982-4.896-0.33-10.164-4.018-14.063
	c-3.683-3.901-8.874-5.508-13.808-4.802c-0.987,4.886,0.33,10.161,4.015,14.061C8.017,39.688,13.206,41.297,18.142,40.597z
	 M92.582,31.234c-4.908-0.87-10.15,0.563-13.963,4.338c-3.812,3.776-5.3,9.001-4.484,13.919c4.914,0.869,10.154-0.563,13.967-4.339
	C91.917,41.378,93.401,36.153,92.582,31.234z M37.087,15.876c2.013-2.44,2.857-5.777,1.967-9.06C38.162,3.534,35.743,1.082,32.774,0
	c-2.015,2.437-2.856,5.776-1.967,9.059C31.702,12.338,34.122,14.791,37.087,15.876z M68.208,14.37c2-2.751,2.396-6.173,1.375-9.165
	c-3.158-0.042-6.289,1.396-8.289,4.147c-1.996,2.751-2.39,6.176-1.375,9.165C63.083,18.557,66.212,17.121,68.208,14.37z
	 M56.804,16.218c1.168-5.877-0.723-11.642-4.551-15.684C47.166,2.8,43.213,7.402,42.042,13.278
	c-1.17,5.875,0.717,11.644,4.545,15.684C51.675,26.696,55.63,22.094,56.804,16.218z M39.347,27.435
	c-2.918-7.345-9.141-12.374-16.277-14.104c-4.012,6.154-5.092,14.085-2.172,21.433c2.917,7.343,9.138,12.377,16.269,14.105
	C41.181,42.713,42.263,34.781,39.347,27.435z" class="color c1"/>
</svg>