<svg version="1.1" id="图层_1" x="0px" y="0px" width="200px" height="114.383px" viewBox="0 0 200 114.383" enable-background="new 0 0 200 114.383" xml:space="preserve" xmlns:xml="http://www.w3.org/XML/1998/namespace" xmlns="http://www.w3.org/2000/svg" xmlns:xlink="http://www.w3.org/1999/xlink">
  <path fill="#3F3A36" d="M200,83.95l-6.057-2.14l-4.568-3.744l2.375-4.625l5.964-4.656L178.29,55.933l-7.628-25.452l-4.295,0.668
	l5.893,21.063l-29.795-1.354l0.01-16.002l-31.974,4.963L8.142,38.499L4.534,57.117l3.035,30.049L2.008,88.18L0,99.57l40.445-0.444
	c0.009-0.026,0.009-0.056,0.018-0.084c0.184-0.717,0.446-1.435,0.806-2.142c3.627-7.155,15.312-11.963,19.925-10.436
	c0.055-0.01,0.105-0.012,0.16-0.021c-5.408,1.022-12.697,5.072-15.423,10.455c-0.361,0.707-0.625,1.426-0.808,2.143
	c-1.694,6.635,3.739,13.168,6.635,14.439c5.802,2.555,13.446-0.414,19.655-7.646c2.001-2.334,2.858-4.867,2.884-7.328l53.145-0.973
	c0.01-0.029,0.015-0.064,0.021-0.096c1.063-3.547,3.424-6.726,7.368-8.349c4.358-1.791,8.435-2.385,11.815-1.846
	c-2.113,0.28-4.364,0.885-6.701,1.846c-3.945,1.623-6.309,4.802-7.371,8.349c-1.27,4.235-0.68,9.012,1.369,12.33
	c2.459,3.981,14.508,5.682,21.242,0.766c4.438-3.236,5.59-8.928,5.357-13.289l35.271,0.633L200,83.95z M64.74,101.686
	c-0.479,1.263-3.005,4.127-5.62,4.271c-0.28,0.017-0.563,0-0.846-0.056c-2.891-0.549-4.885-4.627-4.188-6.532
	c0.725-1.978,2.6-3.953,4.626-4.554c0.968-0.282,1.966-0.256,2.894,0.232C64.486,96.57,65.703,99.15,64.74,101.686z M118.712,83.92
	l-28.866,1.664l26.628-3.434l2.918-12.803L118.712,83.92z M112.182,57.47l-13.005,0.195L88.893,57.82L77.38,57.995l-10.499,0.159
	l-13.307,0.201l-8.467,0.129L32.459,58.67l4.979-14.087l8.051,0.064l11.659,0.096l10.628,0.086l13.104,0.109l8.885,0.074l12.568,0.1
	l10.849,0.092l8.271,0.068l2.514,12.021L112.182,57.47z M150.837,101.443c-0.147,0.416-0.55,1.043-1.108,1.666
	c-1.082,1.205-2.768,2.406-4.438,2.138c-2.537-0.408-4.373-3.896-3.811-5.563c0.471-1.392,1.588-2.791,2.92-3.584
	c1.117-0.664,2.382-0.898,3.543-0.332C150.495,97.018,151.617,99.227,150.837,101.443z M190.721,18.724L170.764,6.692L128.092,0
	l-65.92,3.055L23.117,15.68L0,33.891l15.447-0.144l4.34-0.039l16.341-0.153l3.905-0.035l22.296-0.207l3.845-0.035l21.254-0.195
	l3.752-0.036l20.447-0.189l0.292-0.004l3.401-0.609l16.699-2.995l3.447-0.617l21.408-3.84l3.322-0.595l17.604-3.158l3.503-0.628
	L190.721,18.724z" class="color c1"/>
  <path fill="#FF8A57" d="M187.57,79.667l6.373,2.144l3.771-13.022l-6.968,3.834L187.57,79.667z M37.438,44.583L32.459,58.67
	l12.648-0.188c0.103-3.99,0.277-10.576,0.381-13.836L37.438,44.583z M80.88,44.938l-3.5,13.057l11.513-0.175l0.872-12.808
	L80.88,44.938z M57.147,44.743l-3.573,13.612l13.307-0.201l0.894-13.325L57.147,44.743z M102.333,45.112l-3.156,12.554l13.005-0.196
	l1-12.266L102.333,45.112z M177.802,21.04l0.445,11.173l5.358-2.716l-2.301-9.085L177.802,21.04z M155.073,36.725l5.638-1.738
	l-0.514-10.789l-3.322,0.595L155.073,36.725z M131.232,39.342l5.608,0.289l-1.374-10.998l-3.447,0.617L131.232,39.342z
	 M111.627,32.858l-1.811,10.047l5.662-1.582l-0.158-9.078l-3.401,0.609L111.627,32.858z M33.947,41.067l5.246,1.473l0.84-9.02
	l-3.905,0.035L33.947,41.067z M12.901,40.161l5.702-0.407l1.184-6.046l-4.34,0.039L12.901,40.161z M83.938,42.446l5.71-0.533
	l1.532-8.866l-3.752,0.036L83.938,42.446z M60.014,41.124l5.232,1.501l0.928-9.347l-3.845,0.035L60.014,41.124z" class="color c2"/>
</svg>