<svg version="1.1" id="图层_1" x="0px" y="0px" width="147.6px" height="146px" viewBox="0 0 147.6 146" enable-background="new 0 0 147.6 146" xml:space="preserve" xmlns="http://www.w3.org/2000/svg" xmlns:xlink="http://www.w3.org/1999/xlink" xmlns:xml="http://www.w3.org/XML/1998/namespace">
  <path fill="#94B64B" d="M144.6,70.5c0,37.3-31.7,72.5-70.8,72.5S3,107.8,3,70.5S34.7,3,73.8,3S144.6,33.2,144.6,70.5z" class="color c1"/>
  <path fill="#FCE9D3" d="M108.9,94c-8.4,11.6-23.4,16.7-36.2,16c-19.4-1.1-40.9-16.1-41.4-38.5c-0.7-28,31.2-40,40.9-40.5
	c6.5-0.3,11.5,1,11.5,1c5.7,1.5,6.1,3.2,10.5,4c5.6,1,12.3-3,14.7-1c1.5,1.3,0.7,4.8,0,8c-0.7,2.9-1.6,4-1,6c0.5,2,2.1,3.1,3.1,4
	c3.1,2.8,3.6,6.9,4.2,13C117,82.9,108.9,94,108.9,94z" class="color c2"/>
  <path fill="#3B3D40" d="M73.8,0C33.1,0,0,31.6,0,70.5C0,110.7,34.5,146,73.8,146s73.8-35.3,73.8-75.5C147.6,31.6,114.5,0,73.8,0z
	 M73.8,140C37.7,140,6,107.5,6,70.5C6,34.9,36.4,6,73.8,6c37.4,0,67.8,28.9,67.8,64.5C141.6,107.5,109.9,140,73.8,140z M113.2,50.7
	c-0.2-0.2-0.4-0.3-0.6-0.5c-0.9-0.7-1.5-1.3-1.7-2c-0.2-0.4-0.1-0.7,0.3-2c0.2-0.7,0.5-1.5,0.7-2.6c0.8-3.9,1.9-8.4-1-10.9
	c-2.4-2.1-5.6-1.3-9-0.5c-2.3,0.5-5,1.2-7.1,0.8c-1.8-0.3-2.6-0.7-3.9-1.4c-1.5-0.7-3.2-1.7-6.4-2.5C84.3,29,79,27.7,72.1,28
	c-9.5,0.5-44.6,12.6-43.8,43.6C29,95.7,51.8,111.8,72.6,113c0.9,0.1,1.7,0.1,2.6,0.1c14.4,0,28.4-6.7,36.4-17.4
	c0.3-0.5,8.7-12.3,6.8-30.1C117.7,59.3,117.2,54.3,113.2,50.7z M106.5,92.2C97.9,104,83,107.6,72.9,107c-18.1-1-38-14.9-38.6-35.6
	c-0.6-26.2,30.2-37,38.1-37.4c0.7,0,1.3,0,1.9,0c5,0,8.7,0.9,8.7,1c2.5,0.6,3.8,1.3,5.1,2c1.5,0.7,3,1.5,5.7,2
	c3.3,0.6,6.7-0.3,9.5-0.9c1.1-0.3,2.6-0.7,3.5-0.7c0.1,1.1-0.5,3.5-0.8,4.9c-0.2,0.8-0.4,1.5-0.6,2.1c-0.5,1.5-1,3.1-0.4,5.3
	c0.7,2.7,2.5,4.2,3.6,5.1c0.1,0.2,0.3,0.3,0.4,0.4c2.2,2,2.6,5,3.2,11.1C113.8,81.6,106.6,92,106.5,92.2z" class="color c3"/>
  <path fill="#FFFFFF" d="M135.3,83c-5,26.1-25.9,48.7-48,53c-6.3,1.2-15.6,1.5-25,0c-13.4-2.2-22.8-7.5-23-7s8.6,7,21,10
	c21.1,5,39-3.5,42-5c11.4-5.6,18-13.2,22-18c4.9-5.7,14-16.8,17-34c0.8-4.9,3.5-21.3-5-38c-2.9-5.6-7.8-11.5-8.2-12
	c-5-6.1-10.6-11.2-10.8-11c-0.2,0.2,3.1,4,4,5C127.1,32.9,140.4,56,135.3,83z" class="color c4"/>
</svg>