<svg version="1.1" id="图层_1" x="0px" y="0px" width="200px" height="181.819px" viewBox="0 0 200 181.819" enable-background="new 0 0 200 181.819" xml:space="preserve" xmlns="http://www.w3.org/2000/svg" xmlns:xlink="http://www.w3.org/1999/xlink" xmlns:xml="http://www.w3.org/XML/1998/namespace">
  <g>
    <path fill="#1D2128" d="M180.974,172.557c-2.36-2.791-21.196-19.659-21.982-20.443c-0.785-0.783-2.603-1.122-5.741-2.291
		C150.105,148.65,40.657,38.214,40.139,37.695c-1.024-1.024-4.123-4.572-4.505-8.381c-0.296-1.06-0.615-2.104-1.736-3.499
		c-0.774-0.963-3.358-3.63-6.662-6.95c-3.428-3.451-5.552-5.53-9.312-9.226C12.553,4.349,8.083,0,8.083,0s1.799,4.972,7.761,11.101
		c5.957,6.128,13.729,13.728,13.738,15.574c0,0-0.018,0.981-0.971,1.938c-0.959,0.955-1.938,0.975-1.938,0.975
		c-1.849-0.014-9.448-7.784-15.575-13.741C4.968,9.887,0,8.081,0,8.081s2.938,3.023,6.924,7.084
		c4.241,4.322,7.584,7.745,11.901,12.04c3.34,3.317,6.022,5.918,6.991,6.694c1.392,1.12,2.435,1.441,3.494,1.738
		c3.804,0.38,7.358,3.479,8.384,4.503c0.517,0.517,110.952,109.97,112.122,113.114c1.171,3.139,1.509,4.955,2.294,5.74
		c0.784,0.785,17.651,19.622,20.442,21.977c2.787,2.357,6.004-0.954,6.004-0.954l0.723-0.721l0.015-0.018l0.722-0.721
		C180.016,178.559,183.327,175.341,180.974,172.557z" class="color c1"/>
    <path fill="#1D2128" d="M188.902,15.847c-6.127,5.957-13.727,13.728-15.575,13.741c0,0-0.979-0.02-1.938-0.975
		c-0.953-0.957-0.971-1.938-0.971-1.938c0.009-1.847,7.781-9.446,13.738-15.574C190.118,4.972,191.917,0,191.917,0
		s-4.47,4.349-9.841,9.64c-3.76,3.695-5.884,5.774-9.312,9.226c-3.304,3.32-5.889,5.987-6.662,6.95
		c-1.121,1.396-1.44,2.439-1.736,3.499c-0.382,3.809-3.48,7.356-4.505,8.381C159.343,38.214,49.895,148.65,46.75,149.822
		c-3.139,1.169-4.956,1.508-5.741,2.291c-0.786,0.784-19.622,17.652-21.982,20.443c-2.354,2.784,0.958,6.002,0.958,6.002
		l0.722,0.721l0.015,0.018l0.723,0.721c0,0,3.217,3.312,6.004,0.954c2.791-2.354,19.658-21.191,20.442-21.977
		c0.785-0.785,1.123-2.602,2.294-5.74c1.17-3.145,111.605-112.598,112.122-113.114c1.025-1.024,4.58-4.123,8.384-4.503
		c1.06-0.297,2.103-0.618,3.494-1.738c0.969-0.776,3.651-3.377,6.991-6.694c4.317-4.295,7.66-7.718,11.901-12.04
		C197.063,11.104,200,8.081,200,8.081S195.032,9.887,188.902,15.847z" class="color c1"/>
  </g>
</svg>