<svg version="1.1" id="图层_1" x="0px" y="0px" width="77.156px" height="148.537px" viewBox="0 0 77.156 148.537" enable-background="new 0 0 77.156 148.537" xml:space="preserve" xmlns="http://www.w3.org/2000/svg" xmlns:xlink="http://www.w3.org/1999/xlink" xmlns:xml="http://www.w3.org/XML/1998/namespace">
  <path fill="#CD0E16" d="M77.151,15.697c-0.015-1.029-0.061-2.07-0.145-3.13c-0.061-0.772-0.139-1.528-0.213-2.288
	c-0.031-0.322-0.056-0.648-0.089-0.968C76.077,7.689,72.328,0,57.584,0C39.043,0,37.442,18.999,20.274,18.999
	c-11.142,0-19.149-8.545-19.855-9.323C0.403,9.83,0.39,9.986,0.375,10.141c-0.079,0.805-0.161,1.608-0.225,2.426
	c-0.084,1.06-0.132,2.101-0.144,3.13c-0.006,0.343-0.009,0.685-0.006,1.025c0.002,0.228,0.008,0.454,0.014,0.681
	c0.004,0.167,0.008,0.333,0.015,0.498c0.358,10.348,4.346,19.041,11.746,26.069c0.367,0.369,0.736,0.736,1.119,1.098
	c1.036,0.984,2.149,1.832,3.304,2.605c0.596,0.441,1.201,0.877,1.828,1.303c2.155,1.461,4.548,2.463,6.798,3.768
	c0.552,0.35,1.096,0.716,1.629,1.102c0.698,0.507,1.362,1.032,1.997,1.572c0.147,0.143,0.294,0.284,0.436,0.436
	c3.895,4.145,6.803,8.464,7.155,14.119c0.021,0.433,0.031,0.873,0.026,1.32c-0.083,7.916-0.335,44.846-0.507,52.76
	c-0.068,3.137-0.756,5.841-2.024,8.1c-2.039,3.633-5.581,6.11-10.516,7.34c-3.995,0.994-7.977,2.055-11.936,3.193
	c-0.991,0.372-1.978,0.76-2.959,1.162c-0.409,0.167-0.816,0.33-1.221,0.501c-0.342,0.168-2.782,1.38-4.181,2.458
	c-0.088,0.068-0.168,0.134-0.246,0.2c-0.401,0.338-0.674,0.654-0.717,0.91c-0.003,0.016,0,0.028,0,0.043
	c-0.026,0.348,0.402,0.579,1.583,0.579c1.321,0,2.642,0,3.964,0c20.846,0,41.691,0,62.537,0c1.321,0,2.642,0,3.963,0
	c1.181,0,1.609-0.231,1.585-0.579c-0.001-0.015,0.003-0.027,0-0.043c-0.044-0.256-0.318-0.572-0.718-0.91
	c-0.078-0.066-0.16-0.132-0.248-0.2c-1.396-1.079-3.838-2.29-4.179-2.458c-0.406-0.171-0.813-0.334-1.221-0.501
	c-0.98-0.402-1.968-0.79-2.961-1.162c-3.957-1.138-7.939-2.199-11.936-3.193c-4.935-1.229-8.478-3.706-10.515-7.34
	c-1.268-2.259-1.957-4.963-2.023-8.1c-0.172-7.915-0.424-44.844-0.506-52.76c-0.005-0.447,0.006-0.887,0.028-1.32
	c0.35-5.655,3.258-9.974,7.153-14.119c0.142-0.152,0.289-0.293,0.434-0.436c0.636-0.541,1.3-1.065,1.999-1.572
	c0.531-0.386,1.077-0.751,1.629-1.102c2.248-1.305,4.642-2.306,6.797-3.768c0.627-0.426,1.232-0.861,1.829-1.303
	c1.153-0.773,2.268-1.621,3.304-2.605c0.381-0.362,0.751-0.729,1.117-1.098c7.402-7.028,11.39-15.722,11.747-26.069
	c0.007-0.165,0.011-0.331,0.015-0.498c0.006-0.227,0.012-0.453,0.014-0.681C77.157,16.382,77.154,16.04,77.151,15.697z" class="color c1"/>
</svg>