<svg version="1.1" id="图层_1" x="0px" y="0px" width="59.928px" height="130.841px" viewBox="0 0 59.928 130.841" enable-background="new 0 0 59.928 130.841" xml:space="preserve" xmlns="http://www.w3.org/2000/svg" xmlns:xlink="http://www.w3.org/1999/xlink" xmlns:xml="http://www.w3.org/XML/1998/namespace">
  <path fill="#F2E2E2" d="M28.046,25.6c0.337,0.337,0.098,0.913-0.378,0.913h-4.951l-3.567-5.35l1.483,4.45
	c0.148,0.443-0.182,0.9-0.649,0.9h-3.389c-0.559,0-1.012-0.453-1.012-1.012v-4.338l-1.488,4.463
	c-0.177,0.53-0.672,0.887-1.231,0.887H9.341c-0.362,0-0.566-0.417-0.344-0.703l5.695-7.322v-1.841
	c0-7.216,4.413-13.785,11.191-16.26c0.401-0.146,0.76-0.261,1.067-0.351c0.561-0.164,1.117,0.256,1.117,0.84v4.237
	C16.475,6.004,19.15,17.596,19.15,17.596C21.788,21.201,24.5,22.946,28.046,25.6z M57.231,130.789
	c-1.733-0.181-3.398-0.778-4.914-1.637l-10.023-5.679c-9.317-5.279-17.551-12.327-23.985-20.888
	C4.164,83.765-2.048,61.892,0.595,36.589c0.633-6.126,3.531-8.943,9.942-9.14c5.19-0.169,10.406-0.08,15.586,0.294
	c6.598,0.482,9.8,3.816,9.487,10.424c-0.49,10.37-1.213,20.74-2.301,31.066c-2.22,21.133,5.163,38.734,19.251,53.929
	c1.703,1.837,3.709,3.558,5.823,5.002C61.059,130.17,59.988,131.077,57.231,130.789z M10.234,53.143
	c0-1.245-1.906-1.351-1.975-0.108c-0.484,8.65,0.205,13.239,1.975,23.144V53.143z M9.568,41.683c-0.49-0.05-0.988,0.902-1.113,2.127
	s0.171,2.258,0.661,2.308c0.49,0.05,0.988-0.902,1.113-2.127C10.354,42.766,10.058,41.733,9.568,41.683z" class="color c1"/>
</svg>