<svg version="1.1" id="图层_1" x="0px" y="0px" width="49.379px" height="63.128px" viewBox="0 0 49.379 63.128" enable-background="new 0 0 49.379 63.128" xml:space="preserve" xmlns="http://www.w3.org/2000/svg" xmlns:xlink="http://www.w3.org/1999/xlink" xmlns:xml="http://www.w3.org/XML/1998/namespace">
  <path fill="#FF6B6C" d="M24.689,61.719c0,0,5.834,2.001,8.641,1.234c5.082-1.387,9.498-5.439,12.344-9.875
	c2.748-4.283,3.756-9.724,3.703-14.813c-0.051-4.69-0.648-10.019-3.703-13.578c-2.641-3.074-7.059-4.816-11.109-4.938
	c-3.514-0.104-9.875,3.703-9.875,3.703s-6.361-3.808-9.875-3.703c-4.051,0.119-8.471,1.863-11.109,4.938
	c-3.057,3.56-3.654,8.888-3.703,13.578c-0.055,5.089,0.953,10.529,3.703,14.813c2.846,4.436,7.26,8.488,12.344,9.875
	C18.855,63.72,24.689,61.719,24.689,61.719z" class="color c1"/>
  <path fill="#D4DF8B" d="M30.861,12.344c0,0,1.049-7.568,3.703-9.875C37.428-0.019,45.674,0,45.674,0s-1.398,6.52-3.703,8.641
	C39.098,11.284,30.861,12.344,30.861,12.344z" class="color c2"/>
  <path fill="#9C1F36" d="M17.033,6.293c-1.359,0.085-2.395,1.259-2.309,2.619c0.055,0.845,0.535,1.603,1.277,2.01l1.176,0.665
	c3.85,2.199,6.221,6.29,6.221,10.724v2.507c-0.02,1.363,1.07,2.484,2.434,2.504s2.484-1.07,2.504-2.434c0-0.023,0-0.047,0-0.07
	v-2.507c0-6.198-3.326-11.931-8.707-15.005L18.451,6.63C18.023,6.378,17.529,6.261,17.033,6.293L17.033,6.293z" class="color c3"/>
</svg>