<svg version="1.1" id="图层_1" x="0px" y="0px" width="167.912px" height="193.897px" viewBox="0 0 167.912 193.897" enable-background="new 0 0 167.912 193.897" xml:space="preserve" xmlns="http://www.w3.org/2000/svg" xmlns:xlink="http://www.w3.org/1999/xlink" xmlns:xml="http://www.w3.org/XML/1998/namespace">
  <path fill="#733D33" d="M55.471,0.499l87.954,33.982c0,0-0.999,5.997,5.997,12.993c-10.494,0.5-27.486,35.481,8.995,41.978
	c0,0-10.495,21.489,9.495,30.484l-28.984,73.961L0,138.927L55.471,0.499z" class="color c1"/>
  <path fill="#915348" d="M138.927,193.897L0,138.927L54.971,0l22.403,35.732l-4.413,3.247l-33.982,83.955l83.956,32.982l4.939-0.018
	L138.927,193.897z" class="color c2"/>
  <path fill="#54251F" d="M158.916,88.953c-8.994,24.986,8.996,30.983,8.996,30.983l-28.984,73.961l-1.35-3.205l-13.486-32.028
	l-1.156-2.747l26.301-69.113C149.236,86.804,155.417,89.452,158.916,88.953z M54.971,0l17.99,38.979l63.585,25.506
	c0,0,3.379-12.514,13.375-16.511c-4.498-4.498-5.998-13.993-5.998-13.993L54.971,0z" class="color c3"/>
  <path fill="#B27F59" d="M40.479,122.435c0,0,60.968,18.99,81.957,32.982C116.439,156.417,40.479,122.435,40.479,122.435z
	 M73.461,38.479l-33.982,83.955C50.474,105.444,73.461,38.479,73.461,38.479z M124.435,153.419l18.989-50.973
	C143.424,102.446,120.437,151.42,124.435,153.419z" class="color c4"/>
</svg>