<svg version="1.1" id="图层_1" x="0px" y="0px" width="91.531px" height="264.107px" viewBox="0 0 91.531 264.107" enable-background="new 0 0 91.531 264.107" xml:space="preserve" xmlns="http://www.w3.org/2000/svg" xmlns:xlink="http://www.w3.org/1999/xlink" xmlns:xml="http://www.w3.org/XML/1998/namespace">
  <g>
    <path fill="#EB384D" d="M91.478,123.108c-1.7,32.2-5.3,97.9-22.6,125.2c0,0-3.9,7.8-9.7,11.6c-4.8,3.2-11.4,4.9-16.3,1.8
		c-5.2-3.3-11.7-9.2-16.7-19.2c0,0-25.8-60.7-21-116.3c1.4-16.3,11.7-30.7,26.9-36.7c10.6-4.1,24-6,38.5,0.1
		C83.878,95.208,92.278,108.708,91.478,123.108z" class="color c1"/>
    <path fill="#3FA764" d="M85.578,11.608c-11.2,0.5-19.5,4.2-24.5,7.3c-3.6,2.2-7.4,5.9-7.7,10.1v23.3l17,8.5c2,1,4,2.3,5.6,3.8
		c8.6,8.1,0.6,12.9,0.6,12.9c7.5,2.5,6.8,6.8,5.6,13.3s-3.5,6.3-4.6,5.1c-1.1-1.2-3.4-2.9-4.9-3.8c-24.2-14.6-47.6-2-51.4-0.1
		c0,0-3-0.4-3.3-0.4c-8-5.9,0.6-14.3,4.2-16.1c-1.6-0.5-2.7-1.2-3.6-1.9c-2.1-1.7-2.4-4.7-0.9-6.9c5.7-8.2,25.8-14.4,25.8-14.4
		l1.5-25.5c0.3-4.7,2.9-8.9,6.9-11.3l24.4-14.3c1.7-1,3.8-1.2,5.6-0.3c3.7,1.8,5.3,5,6,7.5
		C88.178,9.908,87.178,11.508,85.578,11.608z" class="color c2"/>
    <path fill="#050505" d="M79.083,97.438l0.495,0.47c1.9-1.9,5.4-12.1,3.3-15.5c-1.3-2.1-2.6-4-5.3-5c1-0.8,2.5-2.4,2.8-4.8
		c0.3-2.7-1.1-5.4-4.1-8.3c-1.6-1.5-3.5-2.8-5.7-3.9l-16.8-8.4v-23c0.3-5,5.8-8.7,7.5-9.7c4.9-3,13.1-6.7,24.2-7.2
		c0.9,0,1.7-0.5,2.3-1.2c0.5-0.8,0.7-1.7,0.4-2.6c-0.7-2.5-2.3-5.8-6.2-7.7c-1.9-0.9-4.1-0.8-6,0.3l-24.2,14.1
		c-4.2,2.5-6.9,6.9-7.2,11.7l-1.4,25.2c-2.7,0.9-20.4,6.7-25.8,14.5c-1.7,2.5-1.3,5.7,1,7.6c0.8,0.6,1.7,1.2,2.8,1.6
		c-2,1.3-4.7,3.8-6,6.7c-0.9,2-0.8,4.4,0.1,6.4c0.843,1.874,2.046,3.568,3.838,4.926c-10.413,7.363-17.43,19.251-18.538,32.474
		c-4.7,55.2,20.8,116.1,21.1,116.7c5.2,10.4,12.1,16.3,17,19.5c1.9,1.3,4.1,1.8,6.3,1.8c3.9,0,7.9-1.6,10.8-3.5
		c5.9-4,9.8-11.6,9.9-11.9c17.5-27.7,21-93.8,22.7-125.6C88.836,113.433,85.343,104.245,79.083,97.438z M15.378,85.808
		c-0.2-4.2,4.6-8.7,7.2-10l1-0.5l-1.1-0.4c-1.4-0.4-2.5-1.1-3.4-1.8c-1.9-1.6-2.2-4.3-0.8-6.3c5.5-8,25.4-14.2,25.6-14.2l0.3-0.1
		l1.5-25.8c0.3-4.5,2.8-8.6,6.7-10.9l24.1-14.1c0.9-0.6,1.9-0.8,2.9-0.8c0.8,0,1.5,0.2,2.2,0.5c3.6,1.7,5.1,4.8,5.7,7.1
		c0.2,0.6,0.1,1.2-0.3,1.7s-0.9,0.8-1.5,0.9c-11.3,0.5-19.7,4.3-24.7,7.4c-1.8,1.1-7.6,5-7.9,10.5v23.6l17.3,8.7
		c2.2,1.1,4,2.3,5.5,3.7c2.8,2.6,4.1,5.1,3.8,7.5c-0.3,3-3,4.7-3.1,4.7l-0.9,0.5l1,0.3c2.8,0.9,4.2,2.8,5.5,4.8
		c1.882,2.972-2.512,11.136-4.345,13.136c-3.034-2.927-6.612-5.342-10.655-7.036c-12.5-5.3-25.7-5.3-39-0.1
		c-2.4,0.948-4.676,2.132-6.837,3.483c0.181-0.205,0.311-0.357,0.337-0.383C21.478,91.908,15.678,91.908,15.378,85.808z
		 M86.878,123.008c-1.7,31.6-5.2,97.5-22.5,124.9c-0.1,0.1-3.9,7.7-9.5,11.4c-4.2,2.8-10.7,4.9-15.5,1.8
		c-4.7-3.1-11.4-8.8-16.4-18.9c-0.3-0.6-25.7-61.2-21-116c1.4-16.1,11.8-30.3,26.5-36c13-5.1,25.8-5.1,37.9,0
		C79.378,95.608,87.678,108.808,86.878,123.008z M62.378,150.508v0.1c-0.7,0.7-1.4,0.9-2,0.9s-1.2-0.3-1.6-0.5
		c0-0.1-0.1-0.1-0.1-0.1l-0.03-0.02l0.03,0.12c0,0-0.1,0-0.1-0.1l-0.3-0.2c-0.1-0.1-0.2-0.2-0.2-0.2c-2.4-1.9-4.9-2.7-7.5-2.2
		c-4,0.8-7.1,4.4-8.6,6.5c-0.3,0.4-0.5,0.9-0.7,1.3c-0.2,0.4-0.5,0.8-0.9,0.9c-0.1,0-0.2,0-0.3,0c-0.4,0-0.9-0.2-1.4-0.7
		c-1.2-1.2-1.8-2.6-1.4-3.4c0.2-0.6,0.8-0.9,1.6-0.9c1.7,0,2.2,1.4,2.2,2.2v0.1l-0.1,0.1c-0.2,0.2-1.2,1.2-1.9,0.9
		c-0.3-0.1-0.5-0.5-0.5-1h0.5c0,0.3,0.1,0.6,0.2,0.6c0.3,0.1,0.9-0.3,1.3-0.7c0-0.4-0.2-1.6-1.7-1.6c-0.4,0-1,0.1-1.1,0.6
		c-0.3,0.7,0.2,1.8,1.3,2.9c0.5,0.5,0.9,0.7,1.2,0.6c0.2-0.1,0.6-0.4,0.6-0.4c5.6-9.8-4-67.3-4.1-67.9l0.5-0.1
		c0.4,2.2,8.6,52,4.7,65.9c1.6-2.2,4.7-5.5,8.7-6.3c2.5-0.5,4.9,0.2,7.3,1.9c-0.7-2.8-3.3-13.7-4.5-25.6c-1.9-18.6,0.4-30.7,6.7-36
		l0.3,0.4c-14.7,12-2.6,59.2-2,61.6c0.3,0.3,1.9,1.6,3.5,0c0.8-2.1,1.1-3.5,0.1-3.5c-0.8,0-2,0.2-2.2,0.6c-0.1,0.3,0.4,0.9,0.8,1.3
		h-0.7c-0.5-0.5-0.7-1-0.5-1.4c0.4-0.9,2.5-0.9,2.7-0.9c0.5,0,0.8,0.2,0.9,0.4C63.678,147.708,62.478,150.208,62.378,150.508z
		 M48.978,159.008h1v13.6h-1V159.008z M39.346,162.711l0.894,0.447l-3.891,7.781l-0.894-0.447L39.346,162.711z M63.564,162.71
		l1.929,5.787l-0.949,0.316l-1.929-5.787L63.564,162.71z" class="color c3"/>
  </g>
</svg>