<svg version="1.1" id="图层_1" x="0px" y="0px" width="170.133px" height="153.055px" viewBox="0 0 170.133 153.055" enable-background="new 0 0 170.133 153.055" xml:space="preserve" xmlns="http://www.w3.org/2000/svg" xmlns:xlink="http://www.w3.org/1999/xlink" xmlns:xml="http://www.w3.org/XML/1998/namespace">
  <path fill="#F7E9B0" d="M168.856,134.884c-0.231-0.522-0.918-0.92-1.479-1.197c-0.994-0.496-2.032-0.078-3.097,0.099
	c-0.059,0.356-0.081,0.698-0.146,1.035c-0.36,1.655-0.702,3.304-1.107,4.954c-0.118,0.481-0.43,0.949-0.684,1.396
	c-0.22,0.372-0.523,0.398-0.818,0.046c-0.009-0.081-0.035-0.154-0.019-0.223c0.004-0.105,0.051-0.206,0.08-0.3
	c0.951-2.789,1.449-5.621,1.024-8.578c-0.031-0.26-0.014-0.559,0.034-0.827c0.432-1.806-0.55-2.786-2.409-2.384
	c-1.352,1.973-2.194,4.199-2.937,6.473c-0.126,0.4-0.141,1.053-0.739,0.957c-0.704-0.1-0.467-0.77-0.391-1.195
	c0.521-2.652,1.205-5.26,2.984-7.492c-0.637-2.045-0.73-4.204-0.712-6.403c0.001-0.689-0.087-1.389-0.185-2.062
	c-0.203-1.368-0.814-2.42-2.276-2.767c-0.525-0.123-1.089-0.295-1.635-0.305c-1.528-0.01-3.05-0.001-4.567,0.131
	c-1.196,0.1-2.381,0.403-3.573,0.627c-0.451,0.08-0.765-0.036-0.9-0.467c-0.129-0.413,0.12-0.649,0.464-0.794
	c0.092-0.033,0.203-0.074,0.296-0.107c3.804-1.545,7.688-2.118,11.773-0.989c0.861-1.021,1.475-2.267,1.887-3.607
	c0.611-2.059,0.613-4.127-0.271-6.104c-0.652-1.455-1.684-2.689-2.844-3.814c-0.706-0.684-1.525-1.098-2.466-1.215
	c-2.635-0.298-5.246-0.187-7.796,0.612c-0.469,0.148-1.055,0.548-1.376-0.107c-0.296-0.645,0.362-0.904,0.778-1.138
	c1.143-0.707,2.453-0.952,3.739-1.147c2.023-0.295,4.052-0.403,6.208-0.099c0.163-0.645,0.526-1.256,0.413-1.8
	c-0.255-1.452-1.074-2.617-2.465-3.283c-0.527-0.247-1.091-0.419-1.638-0.659c-1.305-0.55-2.601-1.124-3.634-2.191
	c-2.476-2.569-3.209-5.686-2.739-9.113c0.411-3.073,1.241-6.025,2.603-8.837c0.653-1.364,1.15-2.818,1.679-4.241
	c0.493-1.348,0.37-2.724-0.001-4.093c-0.117-0.438-0.252-0.869-0.388-1.3c-0.764-2.396-2.179-4.055-4.844-4.321
	c-0.48-0.056-0.967-0.13-1.456-0.099c-2.448,0.157-4.891,0.332-7.345,0.532c-0.509,0.038-1.014,0.201-1.536,0.202
	c-0.168-0.002-0.396-0.232-0.5-0.403c-0.046-0.068,0.176-0.378,0.324-0.431c0.51-0.206,1.038-0.418,1.581-0.532
	c3.287-0.668,6.562-1.083,10.094-1.131c-0.307-2.75-0.533-5.445-0.931-8.099c-0.356-2.48-1.139-4.87-2.547-6.97
	c-0.497-0.739-1.159-1.355-1.791-2.003c-0.568-0.588-1.178-1.119-1.98-1.892c-3.147-0.447-6.616-0.797-10.009,0.558
	c-0.185,0.067-0.418,0.172-0.6,0.134c-0.205-0.051-0.445-0.193-0.549-0.365c-0.065-0.122,0.021-0.405,0.116-0.543
	c0.107-0.164,0.309-0.3,0.493-0.367c1.163-0.421,2.316-0.985,3.534-1.197c2.78-0.507,5.568-0.536,8.387,0.384
	c0.756-0.795,1.821-1.37,1.837-2.711c0.005-1.484-0.292-2.88-0.941-4.211c-0.25-0.515-0.632-0.878-1.214-1.043
	c-0.589-0.184-1.167-0.454-1.708-0.738c-2.312-1.251-4.744-2.144-7.415-2.136c-0.168-0.002-0.384,0.035-0.504-0.068
	c-0.215-0.13-0.482-0.347-0.512-0.545c-0.023-0.179,0.198-0.49,0.388-0.6c0.258-0.156,0.586-0.171,0.9-0.222
	c1.894-0.31,3.733-0.016,5.525,0.607c1.196,0.422,2.365,0.939,3.59,1.435c0.327-0.307,0.659-0.657,1.024-0.977
	c0.83-0.76,1.146-1.731,0.938-2.825c-0.128-0.643-0.281-1.297-0.575-1.879c-1.432-2.739-3.59-4.776-6.476-5.88
	c-3.569-1.379-6.873-3.293-10.057-5.396c-1.125-0.741-2.289-1.301-3.589-1.603c-2.455-0.551-4.884-0.568-7.139,0.813
	c-0.238,0.149-0.497,0.242-0.748,0.355c-1.62,0.774-3.22,1.604-4.611,2.777c-1.373,1.166-2.676,2.411-3.699,3.909
	c-0.796,1.145-1.9,1.67-3.327,1.478c-0.443-0.069-0.886-0.139-1.346-0.139c-2.279-0.009-3.406,0.797-3.832,2.851
	c-0.259,1.242-0.294,2.529-0.416,3.805c-0.054,0.542-0.064,1.089-0.103,1.792c1.974,2.104,2.005,4.724,1.287,7.468
	c-0.204,0.764-0.545,1.493-0.817,2.239c-0.104,0.289-0.271,0.579-0.332,0.872c-0.312,1.387-0.598,2.785-0.917,4.154
	c-0.38,1.6-0.277,3.149,0.384,4.685c0.667,1.554,1.572,2.958,2.843,4.043c1.874,1.598,3.873,3.023,5.812,4.513
	c0.031,0.031,0.123-0.002,0.186-0.004c0.731-1.268,1.443-2.528,2.199-3.783c1.216-2.006,2.679-3.789,4.676-5.078
	c0.372-0.24,0.792-0.809,1.236-0.218c0.366,0.494-0.184,0.818-0.506,1.082c-2.512,2.059-4.068,4.794-5.334,7.695
	c-0.347,0.773-0.687,1.732-0.513,2.504c0.317,1.451,0.167,2.821,0.004,4.216c-0.159,1.52,0.121,2.984,0.888,4.293
	c0.339,0.587,0.937,1.143,1.554,1.462c0.724,0.385,1.566,0.519,2.372,0.727c0.444,0.131,0.789-0.014,1.057-0.425
	c0.382-0.619,0.789-1.226,1.227-1.802c0.618-0.83,1.287-1.636,1.937-2.435c0.198-0.26,0.522-0.461,0.767-0.132
	c0.115,0.146-0.03,0.492-0.093,0.724c-0.041,0.118-0.175,0.208-0.259,0.323c-0.821,1.362-1.643,2.726-2.464,4.088
	c-0.097,0.139-0.11,0.332-0.155,0.494c-0.163,0.644-0.265,1.287-0.479,1.907c-0.519,1.504-0.661,3.017-0.564,4.61
	c0.064,1.271,0.012,2.564-0.117,3.822c-0.105,0.978-0.767,1.573-1.714,1.896c-1.115,0.383-2.152,0.112-3.093-0.466
	c-4.051-2.479-6.903-5.913-8.192-10.562c-0.451-1.591-0.964-3.18-1.6-4.704c-0.312-0.743-0.948-1.348-1.485-1.967
	c-0.776-0.93-0.724-1.763,0.251-2.472c0.33-0.245,0.652-0.507,1.013-0.722c1.17-0.633,1.466-1.658,1.372-2.898
	c-0.101-1.258-0.146-2.536-0.226-3.907c-0.701-0.665-1.465-1.39-2.268-2.164c-0.99,1.069-1.495,2.212-1.278,3.616
	c0.067,0.415,0.133,0.829,0.157,1.238c0.032,0.781-0.296,1.318-0.849,1.519c-0.555,0.2-1.174-0.013-1.643-0.615
	c-0.231-0.292-0.439-0.635-0.603-0.972c-0.797-1.507-1.336-3.108-1.615-4.803c-0.184-1.081-0.528-2.147-0.866-3.194
	c-0.316-0.93-1.024-1.445-1.997-1.594c-0.312-0.055-0.629-0.064-0.917-0.168c-0.526-0.185-0.891-0.554-0.899-1.157
	c-0.021-0.577,0.216-1.019,0.756-1.255c0.326-0.14,0.64-0.252,0.979-0.354c1.621-0.421,2.832-1.403,3.76-2.763
	c0.893-1.283,1.784-2.567,2.626-3.875c0.984-1.547,1.655-3.21,1.625-5.079c-0.036-1.657-0.639-3.088-2.255-3.631
	c-1.523-0.513-3.205-0.717-4.792-0.142c-2.48,0.877-4.92,1.867-7.366,2.836c-2.446,0.97-4.749,2.223-6.894,3.793
	c-0.115,0.083-0.231,0.168-0.354,0.233c-0.319,0.157-0.705,0.36-0.915-0.045c-0.091-0.196,0.067-0.567,0.21-0.806
	c0.131-0.215,0.406-0.377,0.612-0.556c2.748-2.271,5.925-3.818,9.142-5.256c1.799-0.798,3.631-1.504,5.327-2.181
	c0.411-1.402,0.744-2.671,1.146-3.924c0.449-1.353,0.575-2.735,0.105-4.089c-0.356-1.04-0.744-2.11-1.278-3.065
	c-1.034-1.817-1.866-3.708-2.52-5.685c-0.189-0.579-0.446-1.175-0.784-1.701c-0.946-1.515-3.585-1.539-4.471-0.008
	c-0.63,1.085-1.205,2.15-2.745,2.394c1.795,1.668,3.583,2.857,5.816,3.258c0.311,0.055,0.617,0.09,0.912,0.212
	c0.151,0.071,0.351,0.333,0.328,0.445c-0.057,0.188-0.25,0.404-0.428,0.489c-0.203,0.074-0.472,0.025-0.72,0.031
	c-1.771-0.047-3.454-0.544-4.86-1.6c-1.798-1.332-3.508-2.821-5.233-4.243c-0.235-0.186-0.404-0.48-0.541-0.744
	c-0.851-1.654-2.157-2.956-3.263-4.393c-0.553-0.718-1.343-0.996-2.21-0.912c-2.44,0.237-4.695,0.929-6.371,2.874
	c-2.194,2.528-3.954,5.337-5.202,8.462c-1.2,3.025-2.427,6.038-4.596,8.577c-1.014,1.183-2.204,1.697-3.665,1.412
	c-1.186-0.217-2.327-0.66-3.479-1.015c-0.701-0.205-1.366-0.486-2.09-0.642c-1.037-0.208-1.28-0.016-1.234,1.033
	c0.016,0.62,0.057,1.252,0.19,1.852c0.366,1.642,0.22,3.198-0.56,4.733c-0.764,1.467-0.556,3.02,0.306,4.358
	c0.939,1.497,2.043,2.872,3.08,4.292c0.244,0.33,0.576,0.668,0.666,1.032c0.066,0.353-0.015,0.883-0.263,1.118
	c-0.229,0.231-0.744,0.312-1.136,0.266c-0.306-0.035-0.592-0.308-0.877-0.518c-0.633-0.48-1.225-1.017-1.858-1.498
	c-0.74-0.547-1.586-0.804-2.534-0.71c-2.775,0.233-5.531,0.292-8.147-0.994c-0.283-0.148-0.843-0.134-1.024,0.058
	c-0.199,0.198-0.106,0.687-0.096,1.059c0.017,0.161,0.132,0.307,0.211,0.467c0.964,1.738,1.657,3.596,1.877,5.584
	c0.206,1.951,1.097,3.486,2.41,4.806c1.385,1.399,2.816,2.759,4.298,4.08c0.674,0.591,1.445,1.105,2.237,1.507
	c1.41,0.721,2.972,0.823,4.559,0.707c-0.023-0.179-0.026-0.304-0.06-0.396c-0.972-2.508-0.847-5.102-0.424-7.677
	c0.259-1.534,0.844-2.915,1.957-4.05c0.271-0.287,0.556-0.598,0.968-0.267c0.388,0.319,0.211,0.696-0.029,1.012
	c-0.63,0.855-0.996,1.802-1.181,2.851c-0.299,1.654-0.349,3.3-0.126,4.953c0.372,2.872,1.538,5.164,4.335,6.489
	c1.435,0.671,2.684,1.7,3.975,2.61c1.044,0.75,2.027,1.562,3.06,2.336c0.178,0.144,0.397,0.231,0.48,0.286
	c0.678-1.353,1.258-2.691,1.978-3.933c1.756-2.933,4.095-5.41,6.391-7.892c0.079-0.07,0.138-0.196,0.218-0.204
	c0.242-0.025,0.532-0.088,0.733,0.006c0.1,0.047,0.148,0.468,0.06,0.625c-0.184,0.358-0.46,0.689-0.712,1.03
	c-1.696,2.349-3.537,4.645-5.07,7.1c-1.979,3.181-2.39,6.713-1.198,10.291c1.105,3.336,3.234,5.927,6.124,7.907
	c0.557,0.383,1.19,0.633,1.75,0.911c0.546-0.97,0.92-1.9,1.502-2.653c2.368-3.03,4.775-6.011,7.175-9.012
	c0.144-0.177,0.319-0.386,0.534-0.485c0.159-0.079,0.433-0.073,0.554,0.029c0.114,0.084,0.185,0.393,0.132,0.537
	c-0.117,0.313-0.325,0.598-0.536,0.883c-1.942,2.708-3.858,5.429-5.839,8.088c-1.98,2.66-2.261,5.747-2.446,8.863
	c-0.016,0.36,0.088,0.762,0.197,1.119c1.181,3.894,3.919,6.264,7.596,7.708c0.145,0.052,0.312,0.054,0.469,0.081
	c0.088-0.158,0.143-0.24,0.171-0.333c1.313-3.692,3.574-6.787,6.259-9.577c0.254-0.28,0.544-0.574,0.863-0.73
	c0.215-0.099,0.547,0.01,0.839,0.009c-0.013,0.255,0.026,0.534-0.055,0.771c-0.058,0.188-0.258,0.324-0.365,0.488
	c-0.596,0.779-1.229,1.51-1.748,2.324c-1.511,2.281-3.042,4.569-3.83,7.235c-0.113,0.376-0.257,0.845-0.148,1.202
	c0.249,0.746,0.08,1.433,0.024,2.143c-0.073,0.777-0.188,1.612-0.001,2.359c0.687,2.758,2.521,4.475,5.188,5.324
	c1.56,0.5,3.111,0.981,4.417,1.99c0.032,0.03,0.118-0.021,0.217-0.037c0.281-0.665,0.518-1.336,0.842-1.996
	c1.234-2.473,2.486-4.952,3.745-7.413c0.16-0.309,0.401-0.563,0.656-0.781c0.128-0.109,0.438-0.117,0.559-0.014
	c0.114,0.084,0.196,0.367,0.151,0.53c-0.05,0.268-0.218,0.496-0.329,0.766c-1.082,2.543-2.208,5.082-3.26,7.655
	c-0.694,1.713-0.828,3.474-0.217,5.277c0.249,0.746,0.351,1.544,0.508,2.323c0.275,1.508,0.507,3.011,0.812,4.487
	c0.269,1.26,0.806,2.339,2.262,2.667c0.55,0.136,1.099,0.438,1.572,0.767c0.595,0.432,0.717,1.286,0.365,1.872
	c-0.315,0.511-0.804,0.604-1.562,0.357c-1.504-0.52-3.015-1.058-4.53-1.553c-1.141-0.38-2.208-0.85-3.104-1.652
	c-2.428-2.148-4.57-4.545-6.093-7.418c-0.456-0.857-0.962-1.676-1.475-2.515c-0.591-0.996-1.482-1.613-2.607-1.894
	c-2-0.507-4.01-0.864-6.062-0.476c-1.762,0.325-3.507,0.812-5.192,1.402c-1.077,0.369-2.021,1.046-2.622,2.098
	c-0.167,0.291-0.393,0.644-0.811,0.356c-0.385-0.257-0.221-0.609-0.043-0.924c0.06-0.125,0.144-0.239,0.202-0.365
	c0.719-1.242,1.834-2.085,3.131-2.596c1.567-0.631,3.168-1.169,4.755-1.745c0.006,0.019-0.015-0.099-0.078-0.159
	c-2.305-2.381-3.56-5.267-4.096-8.476c-0.345-2.047-1.359-3.579-2.957-4.817c-1.173-0.932-2.38-1.497-3.892-0.886
	c-0.129,0.046-0.278,0.038-0.415,0.067c-1.38,0.396-2.903,0.342-4.133,1.268c-1.134,0.849-2.312,1.632-3.425,2.536
	c-1.611,1.315-2.817,2.942-3.492,4.94c-0.105,0.289-0.221,0.602-0.414,0.818c-0.337,0.394-0.892,0.302-0.99-0.142
	c-0.037-0.216,0.012-0.485,0.074-0.716c0.563-2.188,1.48-4.211,3.161-5.739c1.541-1.394,3.197-2.642,4.816-3.938
	c0.809-0.648,1.77-0.935,2.784-1.072c1.151-0.166,2.308-0.377,3.514-0.563c0.094-2.622,0.114-5.158-0.628-7.665
	c-0.729-2.471-1.974-4.525-4.125-6.023c-1.953-1.358-4.104-1.644-6.224-0.981c-2.272,0.699-4.543,1.521-6.576,2.823
	c-2.065,1.332-4.147,2.672-5.534,4.782c-0.119,0.189-0.326,0.369-0.533,0.486c-0.497,0.242-0.939-0.057-0.867-0.605
	c0.031-0.261,0.16-0.539,0.285-0.771c0.647-1.321,1.486-2.523,2.662-3.43c1.411-1.117,2.868-2.166,4.37-3.149
	c0.843-0.556,1.827-0.892,2.754-1.332c-0.658-0.952-1.333-1.835-1.923-2.77c-0.589-0.936-1.081-1.947-1.652-2.888
	c-1.557-2.568-4.792-3.776-7.244-2.532c-2.753,1.394-4.401,3.641-4.518,6.836c-0.009,0.379,0.025,0.763-0.026,1.138
	c-0.134,1.072-0.984,1.547-1.972,1.069c-0.353-0.165-0.644-0.393-0.973-0.608c-2.02-1.252-4.161-1.916-6.531-1.371
	c-1.68,0.379-3.206,1.12-4.519,2.223c-1.253,1.038-2.019,2.38-2.018,4.051c-0.003,0.856,0.056,1.712,0.794,2.364
	c0.921,0.814,0.692,1.794-0.489,2.223c-0.185,0.067-0.401,0.104-0.599,0.134c-1.106,0.234-1.923,0.802-2.461,1.853
	c-0.857,1.668-1.765,3.312-2.786,4.873c-0.711,1.093-1.598,2.103-2.524,3.003c-1.296,1.263-2.938,1.92-4.684,2.345
	C1.113,93.738,0.438,93.774,0,94.351c1.399,2.709,8.763,6.722,11.811,6.432c-0.205-1.199-0.422-2.374-0.583-3.568
	c-0.262-1.932-0.454-3.845-0.051-5.788c0.094-0.431,0.225-0.875,0.363-1.3c0.115-0.376,0.418-0.632,0.796-0.456
	c0.208,0.113,0.335,0.463,0.417,0.747c0.048,0.191-0.083,0.406-0.09,0.618c-0.022,0.863-0.142,1.742-0.027,2.577
	c0.273,1.906,0.572,3.824,1.024,5.705c0.571,2.382,1.579,4.586,3.333,6.372c0.261,0.26,0.527,0.477,0.84,0.761
	c0.316-1.2,0.512-2.274,0.889-3.308c0.683-1.918,1.428-3.838,2.205-5.728c0.443-1.079,1.025-2.125,1.545-3.17
	c0.171-0.333,0.341-0.729,1.014-0.43c-0.108,0.394-0.191,0.8-0.323,1.182c-1.003,2.765-2.074,5.512-3.008,8.294
	c-0.328,0.996-0.387,2.102-0.526,3.156c-0.043,0.287,0.053,0.607,0.159,0.902c0.336,0.985,0.783,1.93,1.038,2.922
	c0.796,3.116,2.615,5.485,5.292,7.167c1.976,1.247,4.042,1.187,6.137,0.282c0.006-0.212,0.016-0.361-0.007-0.478
	c-0.038-0.278-0.077-0.558-0.108-0.817c-0.358-2.313-0.149-4.561,0.826-6.71c1.058-2.325,2.151-4.663,3.278-6.972
	c0.637-1.296,1.367-2.562,2.099-3.83c0.22-0.371,0.457-0.813,1.177-0.552c-0.102,0.35-0.161,0.706-0.295,1.026
	c-1.067,2.413-2.168,4.794-3.21,7.219c-0.773,1.784-1.565,3.574-1.731,5.535c-0.199,2.39-0.324,4.753,1.412,6.776
	c0.793,0.924,1.604,1.548,2.839,1.727c1.739,0.247,3.481,0.618,5.073,1.44c0.101,0.046,0.262,0.03,0.35,0.04
	c0.335-1.437,0.596-2.847,1.034-4.175c0.431-1.347,1.056-2.617,1.649-3.918c0.142-0.302,0.348-0.711,0.853-0.414
	c0.003,0.124,0.024,0.242-0.004,0.335c-0.093,0.264-0.21,0.515-0.328,0.767c-1.205,2.379-1.777,4.946-2.145,7.564
	c-0.042,0.287-0.002,0.627,0.098,0.904c0.28,0.713,0.589,1.395,0.942,2.081c0.392,0.735,0.783,1.47,1.29,2.121
	c0.541,0.682,1.094,0.711,1.904,0.354c0.082-0.928,0.05-1.877,0.244-2.782c0.389-1.749,0.834-3.518,1.411-5.209
	c0.456-1.335,1.15-2.588,1.75-3.871c0.177-0.377,0.422-0.738,1.1-0.482c-0.091,0.325-0.107,0.686-0.241,1.006
	c-1.184,2.497-1.829,5.152-2.336,7.842c-0.316,1.722-0.296,3.448,0.524,5.072c0.386,0.779,0.698,1.584,1.03,2.383
	c0.663,1.597,1.779,2.779,3.351,3.546c0.208,0.112,0.498,0.278,0.664,0.218c0.665-0.241,1.117,0.201,1.646,0.448
	c0.435,0.219,0.845,0.487,1.307,0.612c1.302,0.364,2.376,1.081,3.374,1.993c1.318,1.214,2.672,2.415,4.049,3.565
	c2,1.656,4.299,2.64,6.837,3.077c0.243,0.037,0.51,0.024,0.814,0.06c-0.066-0.185-0.088-0.302-0.14-0.387
	c-1.517-2.457-2.308-5.157-2.637-8.024c-0.041-0.403-0.108-0.817,0.342-0.959c0.523-0.167,0.629,0.294,0.756,0.645
	c0.08,0.222,0.186,0.455,0.229,0.69c0.396,1.61,0.921,3.175,1.656,4.683c1.101,2.232,2.672,3.917,4.786,5.198
	c2.296,1.381,4.91,1.854,7.434,2.651c0.766-0.884,1.597-0.725,2.459-0.244c0.764,0.433,1.513,0.83,2.274,1.264
	c4.205,2.38,10.116,2.097,13.679-2.014c0.706-0.82,1.229-1.678,1.028-2.753c-0.973-0.608-1.943-1.154-2.842-1.789
	c-1.765-1.24-3.116-2.838-4.067-4.77c-1.161-2.398-2.107-4.895-2.703-7.518c-0.47-2.043-0.771-4.085-0.359-6.177
	c0.087-0.449,0.142-0.991,0.759-0.901c0.573,0.084,0.407,0.604,0.412,1.02c0.025,0.993-0.005,2.006,0.127,3.002
	c0.394,2.99,1.559,5.741,2.724,8.493c1.178,2.789,3.152,4.954,5.746,6.521c0.265,0.154,0.6,0.388,0.84,0.301
	c1.072-0.326,2.129-0.751,3.236-1.152c-0.234-0.646-0.434-1.2-0.636-1.753c-0.798-2.259-1.669-4.49-1.794-6.909
	c-0.021-0.578,0.014-1.174,0.091-1.767c0.021-0.174,0.299-0.442,0.448-0.434c0.168,0.001,0.33,0.277,0.471,0.435
	c0.064,0.061,0.073,0.203,0.063,0.29c0.019,2.353,0.948,4.459,1.762,6.587c0.365,0.953,0.812,1.897,1.241,2.849
	c1.064-0.115,1.656,0.423,2.177,1.111c0.938,1.205,1.876,2.41,2.875,3.552c0.665,0.74,1.357,1.555,2.206,1.998
	c2.603,1.416,5.404,2.176,8.396,1.613c0.704-0.129,1.423-0.223,2.028-0.797c-0.492-0.783-0.96-1.553-1.42-2.305
	c-2.036-3.312-3.998-6.652-4.794-10.52c-0.092-0.426-0.373-0.971,0.218-1.185c0.627-0.228,0.712,0.41,0.834,0.804
	c0.844,2.847,2.149,5.465,3.777,7.944c0.969,1.466,1.97,2.899,2.933,4.345c1.133-0.327,1.95,0.024,2.771,0.562
	c1.396,0.914,2.793,1.828,4.271,2.566c3.215,1.612,6.404,1.312,9.654-0.325c-2.049-1.617-3.425-3.687-4.753-5.795
	c-2.021-3.214-3.426-6.63-3.668-10.468c-0.037-0.447-0.125-0.978,0.474-1.112c0.605-0.115,0.713,0.41,0.829,0.848
	c0.027,0.074,0.028,0.136,0.048,0.191c0.442,3.119,1.682,5.906,3.384,8.525c1.346,2.102,2.76,4.158,4.78,5.702
	c0.261,0.198,0.582,0.394,0.894,0.448c0.841,0.133,1.719,0.191,2.565,0.281c2.58,0.318,4.761-0.577,6.745-2.131
	c0.39-0.308,0.683-0.77,1.056-1.177c-1.351-0.846-2.177-2.029-2.874-3.322c-0.691-1.274-0.716-2.664-0.441-4.038
	c0.032-0.2,0.339-0.332,0.534-0.485c0.147,0.176,0.325,0.32,0.436,0.509c0.059,0.105,0.013,0.267,0.023,0.409
	c-0.093,2.456,1.223,4.067,3.071,5.423c0.332-0.121,0.619-0.308,0.911-0.31c1.136-0.036,2.256,0.06,3.372-0.031
	c0.812-0.065,1.618-0.316,2.413-0.542c1.196-0.329,1.858-1.153,2.076-2.339C170.446,139.675,169.849,137.218,168.856,134.884z
	 M98.319,20.232c0.798,0.588,1.178,2.33,0.714,3.584c-0.241-0.205-0.606-0.345-0.629-0.524c-0.129-0.934-0.204-1.889-0.278-2.843
	C98.125,20.386,98.26,20.296,98.319,20.232z M104.318,47.73c-0.111,0.499-0.536,0.654-0.974,0.541
	c-0.532-0.141-1.069-0.301-1.513-0.6c-1.909-1.292-2.829-3.255-3.364-5.421c-0.77-3.104-0.582-6.158,0.383-9.201
	c0.396-1.208,0.606-2.475,0.885-3.724c0.177-0.836,0.304-1.697-0.085-2.538c-0.059-0.104,0.012-0.254,0.01-0.379
	c0.085-0.052,0.163-0.123,0.268-0.181c0.212,0.299,0.549,0.594,0.626,0.921c0.134,0.599,0.219,1.236,0.122,1.835
	c-0.229,1.733-0.487,3.497-0.864,5.221c-0.756,3.448-0.415,6.749,1.102,9.895c0.59,1.227,1.487,2.259,2.793,2.809
	C104.077,47.065,104.424,47.274,104.318,47.73z M103.468,38.872c0.144-0.178,0.254-0.448,0.451-0.54
	c0.637-0.315,1.294-0.636,2.019-0.648C105.36,38.624,104.529,38.863,103.468,38.872z M109.803,61.654
	c-0.364,0.32-0.711,0.111-0.985-0.186c-1.247-1.364-1.843-4.218-1.205-5.744c0.108-0.332,0.217-0.726,0.82-0.443
	c-0.013,0.193,0.01,0.372-0.018,0.527c-0.41,1.862,0.233,3.466,1.223,4.987C109.825,61.082,110.186,61.327,109.803,61.654z
	 M39.483,50.097c-2.555-0.766-4.286-2.435-5.294-4.868c-0.411-1.021-0.866-2.046-1.277-3.066c-0.099-0.215-0.204-0.448-0.211-0.696
	c0.003-0.167,0.12-0.419,0.261-0.491c0.13-0.047,0.418,0.057,0.489,0.198c0.487,0.825,1,1.664,1.364,2.554
	c1.112,2.667,3.082,4.354,5.746,5.31c0.465,0.186,0.446,0.192,0.649,0.871C40.627,50.372,40.072,50.28,39.483,50.097z
	 M44.738,32.678c-0.109,0.102-0.425,0.153-0.538,0.069c-0.261-0.198-0.572-0.481-0.617-0.778c-0.257-1.286-0.451-2.572,0.205-3.813
	c0.123-0.294,0.201-0.657,0.536-0.423c-0.02,1.155-0.074,2.157-0.017,3.181c0.022,0.409,0.294,0.812,0.404,1.231
	C44.753,32.317,44.811,32.589,44.738,32.678z M56.158,55.601c-0.086,0.281-0.501,0.578-0.798,0.623
	c-0.371,0.072-0.845-0.027-1.197-0.193c-1.892-0.838-3.215-2.301-4.135-4.264c-0.474-2.459-0.875-5.008-0.651-7.616
	c0.02-0.174,0.034-0.367,0.111-0.499c0.096-0.14,0.314-0.344,0.426-0.322c0.139,0.034,0.324,0.259,0.341,0.42
	c0.048,0.65-0.003,1.316,0.082,1.954c0.181,1.48,0.3,2.96,0.691,4.385c0.645,2.355,2.19,4.029,4.492,4.907
	C55.859,55.124,56.296,55.174,56.158,55.601z M49.746,39.236c0.008-0.671,0.084-1.325,0.153-2.228
	c0.423,0.244,0.673,0.299,0.681,0.38c0.022,0.639,0.027,1.285-0.029,1.932c-0.017,0.131-0.304,0.318-0.435,0.303
	C49.968,39.615,49.749,39.36,49.746,39.236z M53.298,31.809c-0.736,0.559-1.485,1.145-2.151,1.783
	c-0.788,0.766-1.505,1.61-2.268,2.387c-0.139,0.134-0.398,0.166-0.584,0.233c-0.048-0.191-0.216-0.423-0.15-0.53
	c0.367-0.718,0.699-1.527,1.219-2.112c1.533-1.704,3.348-3.092,5.336-4.231c1.488-0.852,3.051-1.607,4.603-2.337
	c0.479-0.236,1.068-0.282,1.606-0.352c0.161-0.016,0.351,0.102,0.519,0.167c0.016,0.099,0.024,0.18,0.021,0.286
	c-0.264,0.137-0.521,0.293-0.779,0.386C57.931,28.459,55.594,30.079,53.298,31.809z M62.84,40.045
	c-1.779,1.083-3.564,2.148-5.326,3.224c-0.063-0.06-0.151-0.132-0.215-0.192c0.131-0.215,0.209-0.515,0.393-0.645
	c0.787-0.535,1.618-1.066,2.443-1.554c0.777-0.448,1.562-0.879,2.351-1.291c0.105-0.059,0.279-0.039,0.558-0.076
	C62.95,39.775,62.943,39.986,62.84,40.045z M64.583,55.282c0.262-0.429,0.287-0.417,1.086-0.519
	c-0.617,1.351-1.187,2.602-1.782,3.84c-0.065,0.108-0.332,0.121-0.652,0.216C63.158,57.344,63.965,56.342,64.583,55.282z
	 M66.771,73.303c-0.172,0.104-0.475,0.131-0.651,0.048c-0.245-0.099-0.438-0.342-0.628-0.523c-1.914-1.938-3.012-4.275-3.189-7.009
	c-0.081-1.203-0.056-2.402,0.013-3.596c0.02-0.696,0.107-0.686,0.811-0.816c-0.004,0.795-0.058,1.567-0.025,2.349
	c0.138,2.915,1.106,5.529,3.003,7.765c0.301,0.371,0.523,0.812,0.739,1.235C66.916,72.896,66.875,73.245,66.771,73.303z
	 M58.181,83.767c0.291,0.458,0.536,1.017-0.007,1.881c-0.316-0.699-0.541-1.203-0.81-1.773
	C57.591,83.521,57.89,83.309,58.181,83.767z M8.82,98.754c-1.768-0.383-3.407-1.104-4.684-2.437
	c-0.204-0.218-0.307-0.557-0.45-0.839c0.079-0.071,0.158-0.141,0.236-0.211c0.897,0.573,1.77,1.196,2.721,1.687
	c0.95,0.491,1.99,0.824,2.994,1.233c-0.003,0.105,0.006,0.186,0.001,0.292C9.362,98.579,9.07,98.81,8.82,98.754z M15.956,99.948
	c-0.694-0.876-0.914-1.945-1.028-3.01c-0.229-2.131-0.254-4.272,0.108-6.387c0.123-0.754,0.201-1.576,1.034-2.275
	c0.04,0.341,0.139,0.556,0.074,0.725c-0.709,2.366-0.689,4.781-0.36,7.188c0.144,0.972,0.528,1.919,0.814,2.879
	c0.129,0.413,0.288,0.794,0.448,1.237C16.443,100.543,16.193,100.258,15.956,99.948z M20.735,75.455
	c-1.516,1.176-1.984,2.766-1.563,4.617c-0.635,0.146-0.775-0.24-0.884-0.597c-0.22-0.777-0.253-1.559,0.025-2.348
	c0.811-2.257,3.46-3.991,5.856-3.835c0.972,0.087,1.185,0.217,1.53,1.053C23.716,73.769,22.136,74.363,20.735,75.455z
	 M23.395,87.688c-0.602-0.68-0.361-1.227-0.096-1.761c0.834-1.618,1.845-3.091,3.135-4.373c0.58-0.586,1.175-1.135,1.762-1.703
	c0.095,0.029,0.163,0.045,0.258,0.073c0.018,0.224,0.104,0.463,0.028,0.658c-0.099,0.245-0.35,0.419-0.524,0.628
	c-1.68,1.82-3.232,3.698-4.084,6.074C23.797,87.417,23.582,87.516,23.395,87.688z M29.391,115.584
	c-1.446,0.732-2.837,0.297-3.995-0.536c-1.835-1.319-3.288-3.026-4.256-5.118c-0.111-0.252-0.168-0.524-0.238-0.832
	c0.812-0.524,0.997,0.16,1.285,0.495c0.858,0.983,1.654,2.031,2.574,2.952c1.172,1.162,2.592,1.795,4.31,1.694
	c0.384-0.034,0.805-0.083,0.942,0.411C30.138,115.167,29.776,115.381,29.391,115.584z M34.296,89.48
	c-1.803,2.574-3.63,5.136-5.451,7.717c-1.461,2.076-2.357,4.384-2.883,6.851c-0.066,0.337-0.226,0.646-0.342,0.959
	c-0.119-0.04-0.257-0.074-0.376-0.115c0.019-0.466-0.023-0.931,0.039-1.391c0.265-2.206,0.963-4.255,2.271-6.064
	c2.128-2.944,4.314-5.845,6.448-8.77c0.19-0.278,0.374-0.636,0.889-0.197C34.701,88.811,34.536,89.163,34.296,89.48z M48.399,76.078
	c0.145-0.177,0.389-0.308,0.617-0.369c1.09-0.333,2.243-0.438,3.228,0.145c1.866,1.119,3.561,2.51,4.611,4.489
	c0.138,0.263,0.115,0.605,0.143,0.909c-0.105-0.003-0.198,0.03-0.291,0.063c-0.165-0.169-0.38-0.3-0.473-0.497
	c-0.719-1.41-1.989-2.264-3.181-3.19c-1.102-0.853-2.38-0.516-3.596-0.471c-0.205,0.011-0.432,0.135-0.612,0.097
	c-0.275-0.067-0.657-0.201-0.731-0.404C48.048,76.665,48.231,76.306,48.399,76.078z M43.837,80.947
	c-0.858,0.688-1.587,1.327-2.367,1.882c-0.737,0.559-1.229,1.447-2.376,1.739C39.509,83.122,42.602,80.707,43.837,80.947z
	 M40.172,106.268c-0.622,1.395-1.326,2.736-1.88,4.148c-0.569,1.479-0.653,3.035-0.197,4.582c0.217,0.715,0.495,1.366,1.104,1.834
	c0.14,0.096,0.316,0.241,0.345,0.376c0.037,0.216,0.064,0.52-0.076,0.654c-0.084,0.114-0.463,0.105-0.62,0.016
	c-0.952-0.553-1.477-1.365-1.729-2.464c-0.686-2.926,0.254-5.521,1.573-8.046c0.396-0.749,0.875-1.445,1.329-2.152
	c0.126,0.059,0.276,0.13,0.402,0.188C40.337,105.687,40.302,105.992,40.172,106.268z M43.811,110.837
	c-0.467,0.9-1.003,1.783-1.521,2.66c-0.075-0.035-0.181-0.039-0.274-0.067c0.005-0.273-0.109-0.587,0.011-0.777
	c0.88-1.488,1.792-2.946,2.698-4.423c0.042-0.057,0.185-0.067,0.442-0.161C45.024,109.229,44.248,109.969,43.811,110.837z
	 M41.602,91.258c-0.845,0.954-1.568,2.009-2.35,3.023c-0.084,0.114-0.129,0.277-0.233,0.336c-0.208,0.117-0.461,0.167-0.701,0.254
	c-0.068-0.246-0.237-0.54-0.161-0.735c0.233-0.564,0.504-1.143,0.889-1.637c0.775-0.971,1.608-1.899,2.498-2.785
	c1.162-1.172,2.381-2.303,3.6-3.435c0.255-0.218,0.606-0.345,0.918-0.521c0.42,0.642-0.046,0.852-0.318,1.138
	C44.37,88.355,42.941,89.771,41.602,91.258z M67.664,113.677c0.229-0.291,0.525-0.566,0.825-0.779
	c0.146-0.116,0.407-0.085,0.617-0.14c0.045,0.067,0.091,0.134,0.154,0.195c-0.222,0.31-0.438,0.639-0.659,0.949
	c-2.222,2.914-4.526,5.775-6.642,8.755c-0.813,1.151-1.224,2.615-1.81,3.935c-0.2,0.427-0.346,0.835-0.52,1.274
	c-0.904-0.132-0.699-0.604-0.586-1.041c0.426-1.763,1.04-3.468,2.139-4.931C63.284,119.107,65.481,116.411,67.664,113.677z
	 M58.194,93.138c0.672-0.682,1.876-0.701,2.504,0.053c0.853,1.028,1.578,2.164,2.333,3.269c0.31,0.451,0.517,0.962,0.74,1.465
	c0.138,0.326,0.291,0.688-0.407,0.836c-0.389-0.611-0.76-1.29-1.199-1.925c-0.567-0.817-1.153-1.628-1.733-2.42
	c-0.456-0.627-1.035-0.899-1.789-0.5c-0.141,0.073-0.314,0.052-0.698,0.086C58.04,93.633,58.024,93.304,58.194,93.138z
	 M69.646,140.689c-0.864-0.48-1.744-0.892-2.522-1.425c-1.081-0.736-2.139-1.521-3.124-2.396c-1.119-1.014-2.326-1.809-3.738-2.362
	c-1.926-0.763-3.437-2.053-4.484-3.845c-0.538-0.912-0.962-1.906-1.416-2.869c-0.111-0.252-0.167-0.524-0.188-0.809
	c-0.042-0.403-0.021-0.807,0.46-0.918c0.512-0.145,0.61,0.3,0.793,0.631c0.621,1.194,1.223,2.396,1.93,3.539
	c0.777,1.222,1.893,2.112,3.213,2.699c1.275,0.582,2.365,1.398,3.354,2.397c1.627,1.665,3.368,3.185,5.422,4.299
	C69.886,139.913,69.874,139.938,69.646,140.689z M72.851,45.771c2.549-1.321,5.061-2.628,7.433-3.864
	c0.586-0.108,0.999-0.236,1.397-0.234c0.254,0.011,0.502,0.235,0.742,0.378c-0.144,0.239-0.246,0.589-0.461,0.688
	c-1.196,0.56-2.426,1.026-3.629,1.566c-1.756,0.803-3.504,1.625-5.271,2.454c-0.122,0.066-0.243,0.193-0.374,0.177
	c-0.192-0.014-0.399-0.064-0.525-0.185c-0.07-0.079-0.022-0.347,0.062-0.461C72.398,46.081,72.617,45.876,72.851,45.771z
	 M71.117,22.553c-0.182-0.039-0.495-0.155-0.484-0.242c-0.012-0.204,0.099-0.474,0.252-0.571c0.287-0.187,0.626-0.289,0.96-0.348
	c1.966-0.337,3.918-0.251,5.816,0.377c0.582,0.165,0.607,0.176,0.699,0.832c-0.312-0.054-0.622-0.045-0.904-0.132
	c-1.97-0.539-3.954-0.425-5.937-0.019C71.382,22.478,71.248,22.568,71.117,22.553z M76.139,55.479
	c-1.461,0.634-2.609,1.615-3.488,2.935c-0.149,0.222-0.395,0.352-0.698,0.608c-0.145-1.722,2.925-4.317,5.087-4.286
	C76.638,55.069,76.428,55.354,76.139,55.479z M72.956,76.658c-0.015-0.329-0.148-0.697-0.044-0.986
	c0.36-0.965,0.625-2.022,1.225-2.845c1.997-2.729,4.083-5.385,6.188-8.047c0.402-0.501,0.945-0.907,1.469-1.305
	c0.146-0.116,0.401-0.104,0.61-0.159c0.009,0.081,0.023,0.18,0.057,0.272c-3.521,4.053-7.012,8.137-9.268,13.089
	C73.105,76.666,73.044,76.668,72.956,76.658z M82.129,77.134c-1.815,2.078-3.655,4.144-5.471,6.221
	c-0.736,0.852-1.238,1.827-1.32,2.984c-0.015,0.131,0.009,0.311-0.082,0.406c-0.152,0.159-0.363,0.381-0.537,0.361
	c-0.132-0.015-0.362-0.307-0.367-0.494c-0.022-1.099,0.267-2.143,0.934-3.011c0.907-1.185,1.852-2.321,2.855-3.415
	c1.123-1.221,2.292-2.376,3.472-3.555c0.249-0.237,0.6-0.364,0.893-0.532c0.103,0.109,0.18,0.206,0.257,0.303
	C82.557,76.645,82.335,76.893,82.129,77.134z M82.004,32.598c-1.175,0.676-2.196,1.548-3.044,2.607
	c-0.229,0.292-0.539,0.529-0.825,0.779c-0.094-0.028-0.182-0.101-0.282-0.148c0.086-0.281,0.121-0.586,0.264-0.827
	c0.897-1.327,2.056-2.394,3.418-3.243c1.686-1.05,3.486-1.848,5.385-2.37c0.795-0.226,1.705-0.137,2.548-0.172
	c0.124-0.003,0.254,0.18,0.495,0.385c-0.535,0.194-0.933,0.422-1.336,0.463c-1.388,0.147-2.699,0.561-3.924,1.213
	C83.826,31.75,82.866,32.098,82.004,32.598z M86.113,101.896c-0.549-0.073-1.101-0.04-1.547-0.233
	c-1.091-0.418-2.071-1.107-2.528-2.195c-0.636-1.524-1.105-3.107-1.537-4.705c-0.146-0.573-0.008-1.229,0.081-1.847
	c0.032-0.199,0.301-0.38,0.464-0.564c0.136,0.202,0.402,0.418,0.382,0.593c-0.107,1.834,0.525,3.463,1.397,5.005
	c0.686,1.256,1.714,2.136,3.139,2.496c0.275,0.067,0.693,0.354,0.687,0.566C86.694,101.31,86.353,101.579,86.113,101.896z
	 M86.88,59.709c0.354-0.525,0.694-1.024,1.104-1.506c0.113-0.146,0.413-0.129,0.629-0.166c0.036,0.216,0.181,0.498,0.109,0.649
	c-0.351,0.586-0.752,1.149-1.211,1.67c-0.101,0.121-0.471,0.025-0.824,0.028C86.79,60.034,86.785,59.847,86.88,59.709z
	 M87.073,70.497c-0.286-0.731,0.258-1.075,0.589-1.487c1.034-1.293,1.997-2.039,2.849-1.992c-0.959,1.098-1.918,2.198-2.89,3.26
	C87.5,70.405,87.276,70.424,87.073,70.497z M93.931,82.274c-1.266,1.461-2.563,2.892-3.772,4.395
	c-0.566,0.686-0.947,1.534-1.406,2.285c-0.15,0.221-0.306,0.424-0.479,0.695c-0.562-0.63-0.235-1.167,0.053-1.584
	c0.836-1.263,1.691-2.534,2.673-3.684c0.935-1.111,2.003-2.082,3.032-3.103c0.169-0.166,0.416-0.234,0.623-0.352
	c0.071,0.078,0.142,0.158,0.211,0.237C94.558,81.524,94.257,81.905,93.931,82.274z M77.731,120.886
	c-1.814,2.079-3.037,4.526-4.359,6.926c-0.225,0.415-0.343,0.897-0.562,1.331c-0.124,0.233-0.312,0.405-0.56,0.704
	c-0.551-2.097,3.637-9.211,5.716-9.693C77.87,120.461,77.864,120.734,77.731,120.886z M81.822,142.603
	c-0.579-0.333-1.345-0.661-1.361-1.511c0.103-0.12,0.205-0.241,0.326-0.369c0.185,0.163,0.361,0.308,0.546,0.47
	c1.116,0.891,2.419,1.316,3.825,1.454c0.431,0.032,0.956-0.013,0.985,0.812C84.524,144.066,83.159,143.351,81.822,142.603z
	 M83.076,117.885c-1.763-2.326-3.864-4.322-6.025-6.252c-0.216-0.194-0.542-0.284-0.795-0.464c-0.171-0.126-0.288-0.334-0.41-0.498
	c0.194-0.154,0.453-0.478,0.572-0.438c0.47,0.144,1.015,0.322,1.328,0.667c1.837,1.901,3.633,3.861,5.447,5.814
	c2.473,2.675,5.14,5.133,8.269,7.026c0.505,0.298,1.146,0.399,1.728,0.502c0.337,0.066,0.844-0.265,0.901,0.299
	c0.079,0.16-0.349,0.419-0.645,0.756c-0.599-0.097-1.201-0.087-1.716-0.297c-0.734-0.298-1.44-0.689-2.097-1.119
	C87.149,122.213,84.9,120.271,83.076,117.885z M101.6,147.045c0.473-0.192,0.886-0.55,1.359-0.743
	c0.216-0.099,0.594-0.089,0.728,0.049c0.159,0.151,0.244,0.56,0.162,0.735c-0.23,0.459-0.484,0.969-0.888,1.24
	c-0.671,0.453-1.454,0.883-2.239,1.021c-2.026,0.401-4.108,0.591-6.014-0.347c-1.882-0.926-3.675-2.072-5.455-3.181
	c-0.572-0.314-0.526-0.415-0.415-1.145c0.225,0.044,0.462,0.062,0.662,0.157c1.234,0.639,2.438,1.309,3.672,1.947
	C95.936,148.241,98.747,148.162,101.6,147.045z M98.317,98.35c-1.824,2.227-2.798,4.897-3.065,7.792
	c-0.013,0.193-0.197,0.49-0.358,0.506c-0.161,0.017-0.502-0.173-0.519-0.334c-0.114-0.606-0.262-1.241-0.14-1.828
	c0.384-1.936,0.979-3.864,2.181-5.448c2.317-3.053,4.909-5.871,7.811-8.406c0.3-0.212,0.612-0.618,1.153-0.104
	c-0.32,0.325-0.648,0.631-0.933,0.943C102.395,93.76,100.255,95.977,98.317,98.35z M106.019,117.755
	c-0.439,1.955-0.974,3.882-1.346,5.854c-0.5,2.708-1.188,5.421-0.991,8.21c0.179,2.567,0.611,5.083,2.077,7.287
	c0.077,0.097,0.093,0.196,0.126,0.288c-0.291,0.523-0.661,0.365-0.948,0.093c-0.369-0.388-0.778-0.825-0.996-1.31
	c-1.035-2.339-1.751-4.773-1.415-7.359c0.568-4.424,1.442-8.812,2.753-13.087c0.11-0.332,0.281-0.667,0.428-1.011
	C106.396,117.012,106.091,117.437,106.019,117.755z M146.339,124.607c0.18-0.483,0.354-0.984,0.634-1.42
	c0.977-1.565,2.204-2.908,3.709-3.996c0.359-0.276,0.739-0.498,1.201,0.087c-1.294,0.636-2.206,1.634-3.017,2.68
	c-0.812,1.046-1.527,2.183-2.274,3.289c-0.081,0.008-0.144,0.01-0.205,0.012C146.368,125.036,146.263,124.802,146.339,124.607z
	 M142.934,65.954c1.192-0.224,2.352-0.079,3.439,0.445c0.46,0.23,0.867,0.604,1.501,1.084c-0.516,0.25-0.784,0.431-1.074,0.494
	c-0.298,0.045-0.628-0.002-0.916-0.106c-1.902-0.584-3.783-0.299-5.614,0.238c-2.279,0.681-4.571,1.386-6.792,2.232
	c-1.296,0.512-2.479,1.337-3.686,2.045c-0.293,0.169-0.563,0.518-0.884,0.154c-0.377-0.407,0.006-0.733,0.287-0.939
	c0.853-0.643,1.692-1.323,2.609-1.844C135.282,67.83,139.053,66.713,142.934,65.954z M128.56,56.254
	c-1.32,1.252-2.642,2.503-3.963,3.755c-0.14,0.134-0.315,0.282-0.507,0.33c-0.413,0.129-0.765-0.265-0.613-0.654
	c0.099-0.245,0.292-0.461,0.499-0.64c1.438-1.273,2.902-2.535,4.348-3.789c0.104-0.06,0.189-0.111,0.317-0.22
	c0.119,0.041,0.324,0.03,0.4,0.127c0.084,0.115,0.127,0.351,0.043,0.464C128.96,55.859,128.767,56.075,128.56,56.254z
	 M128.308,46.052c2.771-0.65,5.611-1.053,8.466-1.126c0.54-0.008,1.177-0.155,1.568,0.58c-2.192,0.23-4.332,0.379-6.436,0.683
	c-2.133,0.334-4.308,0.558-6.139,2.016c-0.586-0.351-0.182-0.79,0.143-0.991C126.661,46.752,127.463,46.253,128.308,46.052z
	 M125.685,29.942c0.537-0.132,1.073-0.264,1.626-0.297c0.446-0.037,0.902,0.07,0.878,0.58c-0.988,0.212-1.902,0.397-2.81,0.601
	c-1.939,0.473-3.869,0.964-5.814,1.418c-0.246,0.068-0.503-0.006-0.776-0.012c-0.04-0.11-0.062-0.228-0.077-0.326
	c0.227-0.125,0.421-0.278,0.675-0.328C121.484,31.026,123.581,30.475,125.685,29.942z M121.914,39.933
	c-0.262,0.199-0.485,0.448-0.774,0.573c-1.345,0.55-2.697,1.082-4.057,1.595c-0.185,0.067-0.443-0.069-0.66-0.094
	c0.038-0.181,0.019-0.467,0.141-0.532c1.621-0.942,3.344-1.546,5.194-1.798C121.81,39.762,121.862,39.847,121.914,39.933z
	 M111.005,27.119c-0.397,0.227-0.86,0.333-1.304,0.494c-0.059-0.104-0.129-0.183-0.192-0.243c0.119-0.19,0.193-0.446,0.364-0.55
	c1.128-0.576,2.234-1.269,3.442-1.624c2.04-0.593,4.141-1.02,6.235-1.404c0.687-0.123,1.405,0.076,2.114,0.132
	c0.137,0.661-0.122,0.754-0.58,0.816c-1.561,0.19-3.152,0.349-4.696,0.638C114.533,25.735,112.675,26.138,111.005,27.119z
	 M114.716,48.994c-0.07-0.079-0.159-0.151-0.229-0.23c0.191-0.279,0.331-0.642,0.588-0.798c2.254-1.444,4.539-2.857,6.807-4.263
	c0.135-0.09,0.321-0.096,0.475-0.13c0.053,0.085,0.104,0.17,0.156,0.256C120.118,45.867,117.266,47.213,114.716,48.994z
	 M119.25,134.905c0.118-0.021,0.217-0.036,0.315-0.052c0.664,0.679,0.374,1.723,0.749,2.527c0.375,0.803,0.597,1.704,0.916,2.528
	c0.333,0.861,0.715,1.684,1.152,2.715c-0.363-0.078-0.623-0.046-0.769-0.16c-0.279-0.253-0.592-0.538-0.73-0.863
	c-0.737-1.863-1.53-3.705-1.683-5.738C119.174,135.56,119.24,135.222,119.25,134.905z M118.991,106.705
	c-0.16,0.08-0.426,0.154-0.558,0.077c-0.126-0.059-0.22-0.316-0.243-0.496c-0.017-0.161,0.041-0.349,0.111-0.5
	c0.583-1.213,1.433-2.211,2.614-2.869c0.227-0.123,0.532-0.088,0.792-0.12c0.04,0.11,0.073,0.203,0.107,0.295
	c-0.107,0.164-0.17,0.396-0.323,0.492c-1,0.697-1.627,1.676-2.208,2.722C119.195,106.464,119.112,106.64,118.991,106.705z
	 M114.076,72.174c0.779-1.995,1.728-3.925,2.736-5.816c0.42-0.799,1.206-1.397,1.858-2.072c0.224-0.248,0.541-0.467,0.773-0.113
	c0.104,0.171-0.01,0.609-0.172,0.793c-2.067,2.19-3.008,4.954-3.886,7.715c-0.395,1.271-0.398,2.587-0.234,3.905
	c0.041,0.341,0.124,0.686,0.083,1.035c-0.03,0.262-0.235,0.504-0.371,0.762c-0.265-0.155-0.53-0.31-0.688-0.398
	C113.701,75.923,113.341,74.007,114.076,72.174z M116.784,119.804c-0.683,1.688-1.354,3.352-2.024,5.015
	c-0.047,0.101-0.289,0.126-0.614,0.264c0.12-1.798,0.885-3.203,1.682-4.577C116.006,120.191,116.152,119.616,116.784,119.804z
	 M106.604,88.664c0.115-1.064,1.639-1.93,3.808-2.111c-0.171,0.334-0.226,0.646-0.414,0.756c-0.999,0.53-2.024,0.984-3.044,1.458
	C106.899,88.787,106.786,88.703,106.604,88.664z M107.325,111.163c0.766-1.113,1.538-2.207,2.337-3.29
	c0.438-0.577,0.908-1.123,1.397-1.675c0.15-0.159,0.383-0.265,0.592-0.382c0.063,0.061,0.102,0.109,0.159,0.152
	c-0.039,0.181-0.039,0.41-0.135,0.549c-1.414,1.975-2.847,3.956-4.31,5.968C106.787,111.984,107.061,111.53,107.325,111.163z
	 M110.204,123.254c-0.506,1.311-0.768,2.722-1.148,4.091c-0.084,0.344-0.219,0.664-0.357,1.09c-0.731-0.465-0.646-0.977-0.608-1.45
	c0.239-2.509,1.028-4.883,2.163-7.111c1.578-3.078,3.313-6.067,4.993-9.098c0.188-0.339,0.475-0.589,0.722-0.887
	c0.101,0.047,0.201,0.094,0.302,0.141c-0.062,0.294-0.046,0.622-0.189,0.861C113.855,114.894,111.856,119,110.204,123.254z
	 M123.534,148.742c-0.24,0.087-0.49,0.261-0.708,0.235c-0.399-0.063-0.8-0.189-1.177-0.367c-2.119-1.007-3.707-2.623-5.132-4.424
	c-1.472-1.869-2.586-3.908-2.989-6.288c-0.292-1.669-0.757-3.297-1.066-4.959c-0.129-0.643-0.097-1.302-0.101-1.948
	c-0.013-0.496,0.093-0.953,0.641-1.401c0.113,0.314,0.224,0.503,0.247,0.683c0.076,1.016,0.024,2.079,0.234,3.067
	c0.702,3.317,1.605,6.56,3.672,9.382c1.616,2.212,3.442,4.14,5.945,5.342C123.302,148.158,123.411,148.516,123.534,148.742z
	 M129.757,117.17c-1.545,3.629-3.134,7.254-4.603,10.918c-0.461,1.149-0.59,2.407-0.9,3.626c-0.095,0.369-0.285,0.709-0.467,1.13
	c-0.784-0.552-0.814-1.21-0.774-1.85c0.106-1.897,0.556-3.71,1.356-5.42c1.318-2.816,2.729-5.604,4.174-8.361
	c0.277-0.56,0.526-1.256,1.368-1.353C130.347,116.435,129.927,116.774,129.757,117.17z M130.769,99.68
	c-0.109-0.127-0.099-0.445-0.049-0.65c0.069-0.213,0.283-0.373,0.445-0.559c1.679-2.111,3.381-4.211,5.041-6.316
	c0.402-0.5,0.691-1.086,1.037-1.629c0.689,0.23,0.614,0.655,0.419,1.039c-0.336,0.686-0.672,1.372-1.116,1.992
	c-1.132,1.6-2.301,3.214-3.516,4.761c-0.444,0.558-1.067,0.972-1.646,1.39C131.249,99.798,130.871,99.79,130.769,99.68z
	 M136.119,123.258c0.04-0.349,0.205-0.701,0.297-1.026c0.715,0.012,0.532,0.433,0.496,0.739c-0.173,2.171-0.352,4.325-0.545,6.503
	c-0.115,1.294,0.146,2.536,0.489,3.769c0.096,0.321,0.129,0.643,0.187,0.977c-0.055,0.02-0.148,0.053-0.246,0.069
	c-0.575-0.376-0.869-0.958-0.991-1.583c-0.17-0.816-0.385-1.636-0.344-2.445C135.619,127.928,135.882,125.599,136.119,123.258z
	 M133.42,112.584c-0.082-0.054-0.164-0.107-0.246-0.161c0.094-0.201,0.131-0.444,0.282-0.604c0.898-1.035,1.941-1.727,2.751-1.686
	C135.354,111.236,134.531,112.077,133.42,112.584z M142.169,149.86c0.324,0.029,0.619,0.152,0.981,0.229
	c-0.17,0.626-0.553,0.722-0.975,0.771c-1.714,0.225-3.278-0.231-4.524-1.367c-2.362-2.193-4.455-4.628-6.025-7.463
	c-0.182-0.331-0.347-0.668-0.511-1.005c-0.014-0.037,0.059-0.126,0.198-0.49c0.377,0.407,0.708,0.684,0.915,1.026
	c1.321,2.09,2.928,3.929,4.662,5.661C138.362,148.692,140.095,149.61,142.169,149.86z M135.506,81.467
	c-3.669,0.766-7.278,1.698-10.523,3.689c-0.446,0.266-0.816,0.63-1.263,0.896c-0.219,0.143-0.505,0.163-0.752,0.23
	c-0.058-0.104-0.11-0.189-0.162-0.275c0.217-0.266,0.382-0.619,0.669-0.806c1.086-0.748,2.127-1.564,3.312-2.098
	c2.265-1.009,4.614-1.903,7.061-2.413c1.142-0.247,2.274-0.637,3.434-0.722c1.116-0.091,2.28,0.071,3.396,0.21
	c0.399,0.064,0.785,0.383,1.135,0.654c0.089,0.073,0.078,0.389,0.014,0.559c-0.046,0.1-0.318,0.157-0.455,0.123
	C139.408,81.056,137.452,81.075,135.506,81.467z M141.092,115.087c-0.041,0.057-0.19,0.048-0.457,0.061
	c0.289-1.504,1.136-2.625,1.984-3.684c0.602-0.761,1.181-1.639,2.179-1.938c0.114,0.084,0.247,0.161,0.367,0.263
	c-0.128,0.109-0.273,0.225-0.401,0.334C143.18,111.511,142.253,113.393,141.092,115.087z M144.749,127.71
	c0.268,0.279,0.532,0.434,0.518,0.565c-0.039,0.641,0.419,1.33-0.209,2.017C144.361,129.521,144.532,128.728,144.749,127.71z
	 M150.879,147.101c-2.176-1.738-3.748-3.946-4.735-6.553c-0.466-1.23-0.914-2.467-1.338-3.691c-0.162-0.505-0.274-1.049,0.129-1.779
	c0.24,0.434,0.508,0.713,0.534,1.017c0.198,1.641,1.133,2.951,1.761,4.395c1.134,2.554,3.048,4.492,5.058,6.352
	c0.21,0.174,0.334,0.401,0.579,0.73C151.925,147.912,151.373,147.485,150.879,147.101z M165.913,142.549
	c-0.208,0.348-0.504,0.684-1.064,0.407c-0.165-0.629,0.403-0.96,0.634-1.42c0.266-0.535,0.563-1.04,0.835-1.556
	c0.236-0.441,0.102-1.102,0.938-1.446C167.417,140.187,166.659,141.381,165.913,142.549z" class="color c1"/>
</svg>