<svg version="1.1" id="图层_1" x="0px" y="0px" width="188.076px" height="155.214px" viewBox="0 0 188.076 155.214" enable-background="new 0 0 188.076 155.214" xml:space="preserve" xmlns="http://www.w3.org/2000/svg" xmlns:xlink="http://www.w3.org/1999/xlink" xmlns:xml="http://www.w3.org/XML/1998/namespace">
  <path fill="#FF4081" d="M2,155.214c-0.867,0-1.665-0.567-1.92-1.441c-0.309-1.061,0.301-2.171,1.361-2.479
	c0.799-0.232,81.088-23.434,184.34-38.83c1.098-0.164,2.11,0.591,2.273,1.683c0.162,1.093-0.591,2.11-1.684,2.273
	C83.401,131.773,3.356,154.901,2.56,155.134C2.373,155.188,2.185,155.214,2,155.214z M138.573,112.313
	c0-8.49-4.052-16.604-10.838-21.705l-12.933-9.72c-5.044-3.791-9.241-33.603-9.241-43.659V26.604
	c4.224-0.377,7.546-3.936,7.546-8.255c0-4.57-3.719-8.288-8.288-8.288H67.091c-4.569,0-8.288,3.718-8.288,8.288
	c0,4.319,3.322,7.878,7.546,8.255v10.771c0,10.02-4.12,39.736-9.07,43.529l-12.675,9.711c-6.494,4.977-10.437,12.76-10.631,20.923
	c-0.005,0.21-0.007,21.419-0.007,21.63c0,1.104,0.896,2,2,2s2-0.896,2-2c0-0.211,0.003-21.42,0.009-21.63
	c0.192-6.927,3.549-13.523,9.062-17.748l12.675-9.711c7.572-5.802,10.638-41.209,10.638-46.704V24.637c0-1.104-0.896-2-2-2h-1.258
	c-2.364,0-4.288-1.924-4.288-4.288s1.924-4.288,4.288-4.288h37.729c2.364,0,4.288,1.924,4.288,4.288s-1.924,4.288-4.288,4.288
	h-1.258c-1.104,0-2,0.896-2,2v12.592c0,5.518,3.123,41.058,10.838,46.856l12.933,9.72c5.787,4.35,9.241,11.269,9.241,18.508
	c0,1.104,0.896,2,2,2S138.573,113.417,138.573,112.313z" class="color c1"/>
  <path fill="#00BCD4" d="M146.634,114.313c-1.104,0-2-0.896-2-2c0-10.385-4.956-20.31-13.257-26.55l-12.933-9.72
	c-5.237-3.938-6.822-38.478-6.822-38.814v-5.109c0-0.682,0.347-1.316,0.921-1.684c4.148-2.661,6.625-7.18,6.625-12.087
	C119.168,10.437,112.73,4,104.819,4H67.091c-7.911,0-14.349,6.437-14.349,14.349c0,4.907,2.477,9.426,6.625,12.087
	c0.574,0.367,0.921,1.002,0.921,1.684v5.255c0,0.336-1.556,34.778-6.695,38.718l-12.675,9.712
	c-7.981,6.115-12.813,15.696-13.007,25.733c-0.004,0.21-0.006,21.419-0.006,21.63c0,1.104-0.896,2-2,2s-2-0.896-2-2
	c0-0.211,0.002-21.42,0.005-21.63c0.195-11.273,5.612-22.042,14.575-28.908l12.674-9.712c2.57-2.521,5.129-28.906,5.129-35.543
	v-4.201c-4.745-3.457-7.546-8.92-7.546-14.824C48.742,8.23,56.974,0,67.091,0h37.729c10.117,0,18.349,8.23,18.349,18.349
	c0,5.904-2.801,11.367-7.546,14.824v4.056c0,6.66,2.606,33.112,5.251,35.638l12.907,9.699c9.301,6.991,14.854,18.111,14.854,29.747
	C148.634,113.417,147.738,114.313,146.634,114.313z M125.997,111.537c0-1.104-0.896-2-2-2H48.542c-1.104,0-2,0.896-2,2s0.896,2,2,2
	h75.455C125.102,113.537,125.997,112.642,125.997,111.537z M99.941,85.333c0.883-0.663,1.062-1.916,0.398-2.8
	c-0.664-0.884-1.916-1.063-2.8-0.399c-11.079,8.313-22.07,0.349-22.544-0.002c-0.884-0.661-2.135-0.481-2.797,0.401
	c-0.663,0.884-0.484,2.137,0.398,2.8c0.092,0.068,6.176,4.531,14.217,4.531C90.865,89.864,95.413,88.731,99.941,85.333z
	 M98.33,24.764c0-1.104-0.896-2-2-2H76.209c-1.104,0-2,0.896-2,2s0.896,2,2,2H96.33C97.435,26.764,98.33,25.868,98.33,24.764z" class="color c2"/>
</svg>