<svg version="1.1" id="图层_1" x="0px" y="0px" width="195px" height="131.969px" viewBox="0 0 195 131.969" enable-background="new 0 0 195 131.969" xml:space="preserve" xmlns="http://www.w3.org/2000/svg" xmlns:xlink="http://www.w3.org/1999/xlink" xmlns:xml="http://www.w3.org/XML/1998/namespace">
  <path fill="#FF8F13" d="M81.353,11.56C50.34,26.332,46.552,123.879,79.346,131.969C8.606,131.969,15.63,5.038,81.353,11.56z
	 M43.224,125.447C12.118,92.334,13.195,32.546,57.271,8.048C-11.462-0.982-20.994,119.426,43.224,125.447z M113.647,11.56
	c31.013,14.771,34.801,112.318,2.007,120.409C186.394,131.969,179.37,5.038,113.647,11.56z M137.729,8.048
	c44.077,24.498,45.153,84.286,14.048,117.398C215.994,119.426,206.462-0.982,137.729,8.048z M55.014,0.774
	c4.65,0.879,9.186,1.871,12.041,4.515h7.024C69.045-0.738,62.206-0.588,55.014,0.774z M121.74,5.289h5.519
	c4.033-1.642,8.132-3.146,12.543-4.014C133.294,0.096,126.946-0.256,121.74,5.289z" class="color c1"/>
</svg>