<svg version="1.1" id="图层_1" x="0px" y="0px" width="43.9px" height="53.262px" viewBox="0 0 43.9 53.262" enable-background="new 0 0 43.9 53.262" xml:space="preserve" xmlns="http://www.w3.org/2000/svg" xmlns:xlink="http://www.w3.org/1999/xlink" xmlns:xml="http://www.w3.org/XML/1998/namespace">
  <path fill="#DCD4B6" d="M39.6,14.462c-3.6,8.1-6.6,17.6-8.2,27.8c-0.5,3.3-0.9,6.7-1,10v0.4l-4.1,0.6l-16.2-31.1
	c-1.1-2.1-2.8-3.7-4.8-4.7c6.9-6.1,17-12.2,28.9-9.7C37,8.962,38.8,11.562,39.6,14.462z M2.2,16.562c8.4-8,17.4-12.1,26.4-12.1
	c2.1,0,4.2,0.2,6.2,0.7c0.1,0,0.1,0,0.2,0.1c2.9,1.1,5,3.3,6.2,5.8c0.9-1.7,1.7-3.3,2.7-4.9c-0.2-0.5-0.5-0.9-0.8-1.3
	c-3.1-4.5-10.1-5.9-20.9-4.1c-7.8,1.2-16.5,3.7-20.4,8.7c-1.1,1.9-1.7,3.9-1.8,6c0.5,0.2,0.9,0.4,1.3,0.6
	C1.6,16.162,2,16.462,2.2,16.562z" class="color c1"/>
</svg>