<svg version="1.1" id="图层_1" x="0px" y="0px" width="73.758px" height="76.13px" viewBox="0 0 73.758 76.13" enable-background="new 0 0 73.758 76.13" xml:space="preserve" xmlns="http://www.w3.org/2000/svg" xmlns:xlink="http://www.w3.org/1999/xlink" xmlns:xml="http://www.w3.org/XML/1998/namespace">
  <path fill="#FBD7B5" d="M58.595,19.573h-6.132v0.405c0,0.671-0.543,1.215-1.213,1.215v1.644h7.345c5.222,0,9.47,4.248,9.47,9.469
	v18.07c0,5.222-4.248,9.469-9.47,9.469h-6.132v0.405c0,0.671-0.543,1.215-1.213,1.215v1.644h7.345
	c7.021,0,12.733-5.712,12.733-12.733v-18.07C71.328,25.285,65.615,19.573,58.595,19.573z" class="color c1"/>
  <path fill="#FFFFFF" d="M47.675,12.283C45.389,6.411,39.672,2.43,33.26,2.43c-4.547,0-8.847,1.993-11.797,5.469
	c-0.348,0.41-0.922,0.542-1.414,0.326c-1.181-0.518-2.431-0.78-3.715-0.78c-3.455,0-6.549,1.889-8.146,4.839H47.675z" class="color c2"/>
  <path fill="#FFFFFF" d="M50.034,19.978v-5.265H6.357c-0.009,0-0.688,0-0.688,0v12.983h44.365v-3.646c0-0.67,0.544-1.214,1.216-1.214
	v-1.645C50.578,21.193,50.034,20.649,50.034,19.978z" class="color c2"/>
  <path fill="#F59B45" d="M50.034,60.25V30.126H5.669v43.575h44.365v-9.377c0-0.671,0.544-1.214,1.216-1.214v-1.644
	C50.578,61.465,50.034,60.922,50.034,60.25z M10.529,70.056c0,0.671-0.544,1.215-1.215,1.215c-0.672,0-1.215-0.544-1.215-1.215
	V43.489c0-0.671,0.543-1.215,1.215-1.215c0.671,0,1.215,0.544,1.215,1.215V70.056z M10.529,38.63c0,0.671-0.544,1.215-1.215,1.215
	c-0.672,0-1.215-0.544-1.215-1.215v-4.859c0-0.671,0.543-1.215,1.215-1.215c0.671,0,1.215,0.544,1.215,1.215V38.63z M17.645,62.505
	c-0.715,0-1.297-0.581-1.297-1.295c0-0.715,0.582-1.296,1.297-1.296c0.713,0,1.295,0.582,1.295,1.296
	C18.939,61.924,18.359,62.505,17.645,62.505z M20.883,57.646c-0.714,0-1.295-0.581-1.295-1.296c0-0.714,0.581-1.295,1.295-1.295
	c0.715,0,1.297,0.581,1.297,1.295C22.18,57.065,21.598,57.646,20.883,57.646z M40.321,43.068c-0.715,0-1.296-0.582-1.296-1.296
	c0-0.715,0.581-1.296,1.296-1.296c0.714,0,1.295,0.581,1.295,1.296C41.616,42.487,41.035,43.068,40.321,43.068z" class="color c3"/>
  <g>
    <path fill="#34150C" d="M58.595,17.143h-6.132v-3.644c0-0.671-0.543-1.216-1.213-1.216h-0.994C47.855,5.007,40.996,0,33.26,0
		c-4.97,0-9.684,2.057-13.066,5.672c-1.242-0.437-2.536-0.657-3.859-0.657c-4.8,0-9.045,2.886-10.83,7.268H4.455
		c-0.672,0-1.215,0.544-1.215,1.216v60.202H1.215C0.545,73.701,0,74.244,0,74.916c0,0.671,0.545,1.214,1.215,1.214h53.273
		c0.671,0,1.215-0.543,1.215-1.214c0-0.671-0.544-1.215-1.215-1.215h-2.025v-8.162h6.132c8.361,0,15.163-6.802,15.163-15.163v-18.07
		C73.758,23.946,66.955,17.143,58.595,17.143z M71.328,50.376c0,7.021-5.713,12.733-12.733,12.733H51.25
		c-0.672,0-1.216,0.543-1.216,1.214v9.377H5.669V30.126h44.365V60.25c0,0.671,0.544,1.215,1.216,1.215
		c0.67,0,1.213-0.543,1.213-1.215v-0.405h6.132c5.222,0,9.47-4.248,9.47-9.469v-18.07c0-5.222-4.248-9.469-9.47-9.469H51.25
		c-0.672,0-1.216,0.544-1.216,1.214v3.645H5.669V14.714h0.68c0.009,0,43.686,0,43.686,0v5.264c0,0.671,0.544,1.215,1.216,1.215
		c0.67,0,1.213-0.544,1.213-1.215v-0.405h6.132c7.021,0,12.733,5.711,12.733,12.733V50.376L71.328,50.376z M52.463,25.266h6.132
		c3.882,0,7.04,3.158,7.04,7.04v18.07c0,3.881-3.158,7.04-7.04,7.04h-6.132V25.266z M16.334,7.444c1.284,0,2.534,0.262,3.715,0.78
		c0.492,0.216,1.066,0.083,1.414-0.326c2.95-3.476,7.25-5.469,11.797-5.469c6.412,0,12.129,3.981,14.415,9.854H8.188
		C9.785,9.333,12.877,7.444,16.334,7.444z" class="color c4"/>
    <path fill="#34150C" d="M40.321,40.476c-0.715,0-1.296,0.581-1.296,1.296c0,0.714,0.581,1.296,1.296,1.296
		c0.714,0,1.295-0.582,1.295-1.296C41.616,41.057,41.035,40.476,40.321,40.476z" class="color c4"/>
    <path fill="#34150C" d="M20.883,55.055c-0.714,0-1.295,0.581-1.295,1.295c0,0.715,0.581,1.296,1.295,1.296
		c0.715,0,1.297-0.581,1.297-1.296C22.18,55.636,21.598,55.055,20.883,55.055z" class="color c4"/>
    <path fill="#34150C" d="M17.645,59.914c-0.715,0-1.297,0.582-1.297,1.296c0,0.714,0.582,1.295,1.297,1.295
		c0.713,0,1.295-0.581,1.295-1.295C18.939,60.495,18.359,59.914,17.645,59.914z" class="color c4"/>
  </g>
  <path fill="#FFFFFF" d="M9.314,42.274c-0.672,0-1.215,0.544-1.215,1.215v26.566c0,0.671,0.543,1.215,1.215,1.215
	c0.671,0,1.215-0.544,1.215-1.215V43.489C10.529,42.818,9.984,42.274,9.314,42.274z" class="color c2"/>
  <path fill="#FFFFFF" d="M9.314,32.555c-0.672,0-1.215,0.544-1.215,1.215v4.859c0,0.671,0.543,1.215,1.215,1.215
	c0.671,0,1.215-0.544,1.215-1.215v-4.859C10.529,33.1,9.984,32.555,9.314,32.555z" class="color c2"/>
</svg>