<svg version="1.1" id="图层_1" x="0px" y="0px" width="200px" height="86.691px" viewBox="0 0 200 86.691" enable-background="new 0 0 200 86.691" xml:space="preserve" xmlns="http://www.w3.org/2000/svg" xmlns:xlink="http://www.w3.org/1999/xlink" xmlns:xml="http://www.w3.org/XML/1998/namespace">
  <path fill="#EE3641" d="M118.129,46.639l0.146,0.325c0.074,0.164,0.074,0.164-0.09,0.238l-17.045,9.348L82.9,47.097
	c-0.165-0.069-0.165-0.069-0.094-0.235l0.139-0.33L0,1.828c5.628,43.515,67.254,71.548,67.254,71.548l9.487-16.136
	c0,0,5.442,2.741,12.041,6.089l-5.675,3.112c0,0,0,0-0.163,0.073c-18.882,14.401,5.125,22.026,12.581,19.792
	c-3.564-1.285-11.327-4.157-5.604-10.256c0.525-0.413,5.425-3.11,11.381-6.342c5.572,2.86,10.028,5.187,10.533,5.564
	c5.865,5.961-1.827,9.016-5.36,10.384c7.506,2.059,31.326-6.128,12.112-20.082c-0.164-0.069-0.164-0.069-0.164-0.069l-4.755-2.465
	c6.066-3.257,10.915-5.844,10.915-5.844l9.862,15.907c0,0,60.951-29.473,65.555-73.105L118.129,46.639z" class="color c1"/>
  <path fill="#D8DCDE" d="M67.253,37.594l33.829,21.208l32.813-20.949C133.896,37.852,104.708,57.197,67.253,37.594z" class="color c2"/>
</svg>