<svg version="1.1" id="图层_1" x="0px" y="0px" width="194.6px" height="171.7px" viewBox="0 0 194.6 171.7" enable-background="new 0 0 194.6 171.7" xml:space="preserve" xmlns:xml="http://www.w3.org/XML/1998/namespace" xmlns="http://www.w3.org/2000/svg" xmlns:xlink="http://www.w3.org/1999/xlink">
  <path fill="#111111" d="M44,162.1c-3.3-1.301-10.5-4.9-17.7-13.4L0,154.1l46.399,9.4C45.6,163.1,44.8,162.6,44,162.1z M153.3,157.4
	c-2.2,1.5-4,2.8-5.5,3.899c-1.5,1.101-3,2.201-4.5,3.201l51.3-10.4l-30.1-6.1C161.3,151.4,157.5,154.6,153.3,157.4z M67.3,20.1
	L67.3,20.1L67.3,20.1c0.1,0,0.2,0,0.2,0l0,0c0.1,0,0.2,0,0.3,0c0,0,0,0,0.1,0c0.101,0,0.2,0,0.4,0l0,0h0.1c0.101,0,0.101,0,0.2,0
	c0.101,0,0.101,0,0.2,0s0.3,0,0.4,0c0.1,0,0.1,0,0.199,0c0.2,0,0.4,0,0.7,0l0,0l0,0c0.7,0,1.601,0.1,2.5,0.1l0,0
	c0.101,0,0.101,0,0.2,0c0.2,0,0.4,0,0.6,0.1c0.101,0,0.2,0,0.301,0c0.199,0,0.399,0,0.6,0.1c0.1,0,0.2,0,0.3,0c1,0.1,1.9,0.3,3,0.5
	c0.101,0,0.3,0,0.4,0.1c0.2,0,0.399,0.1,0.6,0.1c0.101,0,0.3,0.1,0.4,0.1c0.2,0,0.399,0.1,0.6,0.2c0.101,0,0.3,0.1,0.4,0.1
	c0.2,0.1,0.399,0.1,0.7,0.2c0.1,0,0.199,0.1,0.399,0.1c0.3,0.1,0.5,0.2,0.8,0.3c0.101,0,0.101,0,0.2,0.1c0.3,0.1,0.7,0.2,1,0.4
	c0.101,0,0.2,0.1,0.3,0.1c0.2,0.1,0.5,0.2,0.7,0.3c0.101,0.1,0.2,0.1,0.3,0.2c0.2,0.1,0.4,0.2,0.601,0.3c0.1,0.1,0.2,0.1,0.3,0.2
	c0.2,0.1,0.4,0.2,0.5,0.3s0.2,0.1,0.3,0.2c0.2,0.1,0.3,0.2,0.5,0.4c0.101,0.1,0.2,0.1,0.3,0.2c0.2,0.1,0.4,0.3,0.5,0.4
	c0.101,0.1,0.101,0.1,0.2,0.2c0.2,0.2,0.5,0.4,0.7,0.7l0.1,0.1c0.2,0.2,0.301,0.4,0.5,0.6C89,26.9,89,27,89.1,27.1
	c0.5,0.7,0.9,1.4,1.101,2.3c0,0.1,0.1,0.2,0.1,0.4c0.1,0.2,0.1,0.4,0.1,0.7c0,0.1,0,0.2,0.101,0.3c0,0.3,0.1,0.7,0.1,1
	c0,0.4,0,0.7,0,1.1c-1.1-0.1-2.2-0.2-3.3-0.2l0,0c-0.1,0-0.2,0-0.3,0c-1.101,0-2.2,0.1-3.2,0.2l0,0c-2.9,0.3-5.3,0.9-7.1,1.6
	c-0.2,0-0.301-0.1-0.5-0.1c-0.301-0.1-0.601-0.2-1-0.2C74.9,34.1,74.7,34.1,74.4,34c-0.5-0.1-1.1-0.2-1.699-0.3
	c-0.101,0-0.101,0-0.2,0c-0.9-0.1-1.9-0.2-3-0.2c-1.8,0-3.8,0.2-5.8,0.5s-4.2,0.8-6.4,1.4c-1.5,0.4-3,0.9-4.6,1.5
	c-2.4,0.8-4.801,1.9-7.301,3.2c-4.199,2.2-8.6,5.1-12.6,8.6c-1.4,1.2-2.7,2.4-4,3.7c-1.6,1.6-3.2,3.4-4.7,5.3
	c-3.3,4.1-6.1,8.8-8.399,13.9c-0.4,0.9-0.801,1.9-1.2,2.9C13.9,76,13.4,77.5,13,79c-0.4,1.5-0.8,3.1-1.2,4.7c-0.6,2.7-1,5.5-1.2,8.4
	c-0.1,1.699-0.2,3.5-0.2,5.3c0,5.399,0.7,11.2,2.101,17.2c8.1,34.3,27,43.8,32.6,45.9c9.3,6.5,25.8,7.399,31.101,7.6
	c6.5,2.699,13.8,4.1,21.5,4.1c7.899,0,14.3-1.5,17.1-2.199c0.9,0.1,2.2,0.1,3.6,0.1l0,0l0,0c2.5,0,4.801-0.2,7-0.6
	c0.4-0.101,0.9-0.201,1.301-0.301c0.8-0.199,1.699-0.4,2.399-0.6c1.7-0.5,3.3-1.1,4.601-1.6c0.5-0.201,0.899-0.301,1.3-0.5
	c5-2.101,7.7-4.101,11.2-6.601c0.199-0.101,0.399-0.3,0.6-0.399c1.4-1,3-2.201,5-3.601c15-10.101,24.1-24.2,27.2-42.101
	c0.2-1.1,0.399-2.199,0.5-3.299c0.1-0.5,0.1-1.101,0.2-1.601l0,0c0.1-0.7,0.199-1.5,0.199-2.2l0,0C180.7,98.1,180.3,90,178.7,82.5
	l0,0c-0.101-0.7-0.301-1.3-0.4-1.9l0,0c-0.3-1.2-0.6-2.4-1-3.6l0,0c-0.2-0.7-0.4-1.4-0.7-2.1l0,0c-0.1-0.3-0.2-0.6-0.3-0.9
	c-1.3-3.6-2.9-7.1-4.7-10.4c-0.399-0.8-0.899-1.5-1.399-2.3c-0.5-0.7-0.9-1.4-1.4-2.1l0,0c-3.5-5-7.3-9-11.2-12.3l0,0
	c-0.8-0.7-1.6-1.3-2.399-1.9l0,0c-2.801-2.2-5.601-4-8-5.3c-1.4-0.8-2.9-1.6-4.5-2.2l0,0c-1.7-0.7-3.4-1.3-5.2-1.9l0,0
	c-2.8-0.8-5.8-1.4-8.8-1.8l0,0c-0.5-0.1-1.101-0.1-1.601-0.2l0,0c-1.2-0.1-2.399-0.2-3.6-0.2l0,0c-0.5,0-1,0-1.601,0l0,0l0,0
	c-1.399,0-2.6,0-3.8,0.1c-0.399,0-0.8,0.1-1.1,0.1c-0.4,0-0.7,0.1-1.101,0.1l0,0c-1,0.1-1.899,0.2-2.699,0.3
	c-0.2-0.1-0.4-0.2-0.5-0.2l0,0c-0.601-0.3-1.2-0.5-1.9-0.7l0,0c-1.3-0.4-2.6-0.8-3.9-1c0-0.5-0.1-1-0.1-1.6
	c-0.1-0.4-0.1-0.9-0.2-1.3v-0.1l0,0c-0.2-1-0.399-2-0.7-3.1c-0.3-1.1-0.8-2.3-1.3-3.4c-0.2-0.4-0.399-0.8-0.6-1.1
	c-0.101-0.3-0.3-0.5-0.4-0.7c-0.2-0.2-0.3-0.5-0.5-0.7c-0.5-0.8-1.1-1.5-1.8-2.3l0,0c-2.6-3-6.3-6-10-8.5l0,0
	c-0.5-0.3-0.9-0.6-1.4-0.9l0,0C83.2,3.2,76.5,0,76.5,0s0,0-0.101,0l0,0c-0.199,0-0.8,0.2-1.6,0.5l0,0c-0.2,0.1-0.3,0.1-0.5,0.2l0,0
	c-0.5,0.2-1.2,0.5-1.8,0.9l0,0c-0.101,0-0.101,0.1-0.2,0.1c-0.2,0.1-0.5,0.3-0.7,0.5c-0.1,0.1-0.2,0.2-0.399,0.3
	C70.9,2.7,70.6,3,70.3,3.2c-0.2,0.2-0.5,0.4-0.7,0.6C66.6,6.7,64.3,11.7,67.3,20.1z M95.5,39.6c0.2,0.5,0.5,1,0.7,1.5
	c0.3,0.5,0.6,1,0.899,1.5s0.601,1,1,1.4c0.4,0.4,0.7,0.9,1.101,1.3c0.399,0.4,0.699,0.8,1.1,1.1c0.4,0.3,0.7,0.6,1.1,0.9
	c0.4,0.2,0.7,0.5,1,0.7c0.301,0.2,0.601,0.3,0.801,0.4c0.5,0.3,0.699,0.4,0.699,0.4s-0.3-0.1-0.8-0.2c-0.3-0.1-0.6-0.1-1-0.2
	c-0.399-0.1-0.8-0.3-1.2-0.5c-0.5-0.2-0.899-0.4-1.3-0.7c-0.5-0.3-0.899-0.6-1.399-1c-0.5-0.4-0.9-0.8-1.301-1.3
	c-0.399-0.5-0.699-1-1.1-1.5c-0.6-1.1-1.2-2.2-1.6-3.3C93.8,39,93.6,37.9,93.5,37c-0.3-1.8-0.101-3.1-0.101-3.1s0.301,1.2,0.9,2.9
	c0.2,0.4,0.3,0.9,0.5,1.4C95,38.6,95.3,39.1,95.5,39.6z M122.2,39.9c3.1,0,6.699,0.3,10.5,1.1c-0.101,0-0.301,0-0.4,0
	c-0.6,0-1.2,0-1.8,0c-0.601,0-1.2,0.1-1.8,0.1c-0.601,0-1.2,0.1-1.7,0.1c-0.601,0.1-1.101,0.2-1.601,0.3c-1.1,0.2-2.1,0.3-3,0.6
	c-0.899,0.2-1.699,0.5-2.5,0.6c-0.699,0.3-1.3,0.5-1.8,0.7c-1,0.4-1.6,0.6-1.6,0.6s0.6-0.1,1.7-0.4c0.5-0.1,1.199-0.3,1.899-0.4
	c0.7-0.1,1.601-0.2,2.5-0.3c0.9-0.1,1.9-0.2,2.9-0.2c0.5,0,1.1,0,1.6,0s1.101,0.1,1.7,0.1s1.1,0.1,1.7,0.1c0.6,0.1,1.2,0.2,1.8,0.2
	c1.2,0.1,2.4,0.4,3.5,0.6c1.2,0.2,2.3,0.6,3.5,0.9c1.1,0.3,2.2,0.7,3.3,1.1c1,0.4,2.101,0.8,3,1.2c0.9,0.4,1.8,0.8,2.601,1.2
	c1,0.5,1.899,1,2.6,1.4c7.2,5.4,14.4,13.4,18.8,24.6c-0.6-1-1.2-2-1.8-3c-1.6-2.4-3.4-4.6-5.3-6.6c-2-2-4.101-3.7-6.3-5.2
	c-2.301-1.4-4.5-2.7-6.801-3.6c-2.199-1-4.399-1.6-6.5-2.1c-2.1-0.4-4-0.8-5.699-0.9c-1.7-0.2-3.2-0.2-4.4-0.2
	c-2.4,0.1-3.8,0.2-3.8,0.2s1.399,0.1,3.8,0.4c1.2,0.2,2.7,0.3,4.3,0.7c1.601,0.3,3.5,0.7,5.4,1.3c1.899,0.6,4,1.4,6.1,2.4
	c2.101,1,4.2,2.3,6.2,3.8s3.9,3.3,5.6,5.2c1.7,2,3.301,4.1,4.601,6.4c1.399,2.3,2.5,4.7,3.399,7.1c1,2.4,1.7,4.9,2.301,7.299
	c0.6,2.4,1,4.801,1.399,7.101c0.3,2.3,0.5,4.399,0.601,6.399c0.1,2,0.1,3.801,0.1,5.4c0,1.5-0.1,2.9-0.1,3.9
	c-3.101,18-12.2,28.1-16.2,31.699C157.6,137.9,158.4,133.5,158.9,129c0.301-3,0.5-6.201,0.601-9.4l-6.8,13.6
	c-0.801,3.801-1.9,7.4-3.101,10.301c0,0.1-0.1,0.1-0.1,0.199c-10,16.801-27,18.7-31.5,18.9c0.5-1.4,0.899-3,1.399-4.801
	c0.4-1.799,0.801-3.799,1.101-6l-5.7-4.899c-0.2,1-0.3,1.899-0.5,2.8c-0.4,2.301-0.9,4.4-1.3,6.2c-7.9,12.101-28.3,7.2-30.3,6.601
	c-0.101,0-0.2-0.101-0.4-0.101c-0.3-0.5-0.6-1.2-0.9-2.2c-0.399-1.199-1-2.699-1.5-4.4c-0.5-1.799-1-3.799-1.5-6
	c-0.3-1.199-0.5-2.6-0.699-3.899l-5.9,2.899c0.1,0.801,0.2,1.5,0.3,2.201c0.3,1.6,0.601,3.1,0.9,4.6c-3.601,6.6-17.2,1.5-22.4-0.7
	c-0.1-0.101-0.1-0.101-0.2-0.2c-0.399-0.5-0.8-1.199-1.3-1.8c-0.399-0.7-0.899-1.5-1.3-2.399c-0.8-1.801-1.7-3.9-2.4-6.301
	c-0.699-2.4-1.3-5.1-1.899-7.9c-0.2-1.399-0.601-2.899-0.8-4.399c-0.2-1.5-0.4-3.101-0.601-4.7c0-0.1,0-0.199,0-0.3L37.7,115
	c0,0.699,0,1.5,0,2.199c-0.101,3.5,0.1,6.9,0.199,10.2c0.101,1.7,0.301,3.3,0.4,4.899c0.1,1.601,0.4,3.101,0.6,4.701
	c0.2,1.5,0.5,3,0.801,4.399c0.199,1.399,0.6,2.8,1,4.101c0.5,2,1.1,3.799,1.8,5.5c-4.9-3.201-11.9-9.601-17.5-21.9
	c0-0.1-0.101-0.2-0.101-0.2c-1.8-5.3-3.1-11.7-3.3-18.8c-0.1-3.5,0.101-7.2,0.5-10.9C22.5,95.5,23.2,91.7,24.1,88
	C25.8,80.6,28.5,73.4,32.2,67.3c1.899-3,4-5.7,6.3-8c2.3-2.3,4.7-4.2,7.2-5.6c4.899-2.9,9.6-4,12.899-4.5c1.7-0.2,3-0.4,3.9-0.4
	c0.899,0,1.399-0.1,1.399-0.1s-0.5-0.1-1.399-0.3c-0.9-0.1-2.3-0.4-4-0.4c-1.8,0-3.9,0.1-6.3,0.7c-2.4,0.5-5,1.5-7.7,2.9
	s-5.4,3.3-7.9,5.7c-2.5,2.4-4.899,5.2-7,8.3C25.4,71.8,22.3,79.3,20.2,87c-1,3.899-1.801,7.699-2.4,11.6c-0.1,0.6-0.1,1.1-0.2,1.699
	C15.6,66.7,40.4,48.1,55,43c6.5-2.3,11.2-3,14.5-3c5.1,0,7.1,1.6,7.1,1.6s4.3-2.3,10.5-2.3c1.101,0,2.4,0.1,3.601,0.3
	c-0.4,7.1-2.9,10.3-13.4,7.2c0,0,4.4,5-7.2,7c0,0,15.7-1.3,18.5,6.4c0,0,9.601-5.6,22.5,0.3c0,0,0.601-7,17.7-3.8
	c0,0-13.9-3.4-3.6-7.5c0,0-14.5,1.6-10.2-5.2c0,0-6.7,4.4-7.8,0.8c-0.4-1.2-0.2-3.4,0-6.1c1.8,0.4,3.5,1.1,5.1,2.2
	C112.2,40.8,116.3,39.9,122.2,39.9z M95,22.1l0.5,0.3c0.3,0.2,0.6,0.4,0.899,0.7c2.2,1.9,3.9,4.4,5,6.8c1.101,2.4,1.7,4.9,2.101,7
	c0.399,2.1,0.5,3.8,0.6,5.1c0.101,1.2,0,1.9,0,1.9s-0.1-0.7-0.3-1.9s-0.6-2.9-1.1-4.9s-1.4-4.3-2.5-6.6c-1.2-2.3-2.7-4.6-4.7-6.4
	c-0.3-0.2-0.5-0.4-0.8-0.6l-0.4-0.3l-0.4-0.3c-0.6-0.4-1.199-0.8-1.699-1.1c-0.601-0.3-1.2-0.7-1.7-1c-0.601-0.3-1.2-0.6-1.8-0.9
	c-0.601-0.3-1.2-0.5-1.801-0.8c-0.6-0.2-1.199-0.4-1.699-0.6C84.1,18.2,83,17.9,81.9,17.7c-1-0.2-2-0.3-2.8-0.4
	c-0.8-0.1-1.6-0.1-2.2-0.1C75.7,17.2,75,17.3,75,17.3s0.7-0.2,1.899-0.4c1.2-0.1,3-0.3,5.2,0c1.101,0.1,2.2,0.4,3.4,0.6
	c0.6,0.2,1.2,0.3,1.8,0.5s1.2,0.4,1.9,0.7c0.6,0.3,1.199,0.6,1.899,0.9c0.601,0.3,1.2,0.7,1.9,1c0.6,0.3,1.2,0.7,1.8,1.1L95,22.1z
	 M75.2,1.9C73.1,13.2,68,17.3,68,17.3C65.4,5.7,75.2,1.9,75.2,1.9z M145.6,77.3c2.5,4,4.8,9,6.4,14.6c0.8,2.8,1.399,5.8,1.899,8.8
	c0.4,3,0.7,6.2,0.801,9.2c0,2.8,0,5.5-0.2,8.2c1.1-1.2,2.3-2.4,3.399-3.6c0.5-0.5,1-1,1.5-1.5c0-1.101-0.1-2.201-0.1-3.301
	c-0.2-3.3-0.7-6.6-1.3-9.8c-0.601-3.2-1.4-6.3-2.5-9.2c-2-5.8-4.9-10.9-7.8-14.9c-1.5-2-3-3.7-4.4-5.1c-1.4-1.4-2.8-2.5-3.9-3.3
	c-2.3-1.7-3.8-2.3-3.8-2.3s1.3,1,3.2,3c1,1,2.1,2.3,3.3,3.8C143.1,73.5,144.3,75.3,145.6,77.3z M56.8,60.3c-2.7,1.6-6,4.8-8.8,9.3
	c-2.9,4.5-5.3,10.3-6.9,16.7c-0.8,3.201-1.5,6.6-2,10c-0.5,3.4-0.899,6.9-1.1,10.5c0,0.4,0,0.701-0.101,1.101
	c0.7,0.899,1.5,1.8,2.2,2.7c0.4,0.5,0.8,1,1.2,1.5c0-1.7,0-3.5,0-5.2c0-3.399,0.3-6.899,0.6-10.2c0.4-3.4,0.9-6.6,1.5-9.8
	c1.4-6.3,3.5-11.9,6-16.4C52,66.1,55,63,57.3,61c1.2-0.9,2.2-1.6,2.8-2c0.7-0.4,1.101-0.6,1.101-0.6s-0.4,0.1-1.2,0.3
	C59.2,59,58.1,59.5,56.8,60.3z M67.8,108.6l-0.5,4.8l4.1-5.5c3.9-2,12.5-6,22.2-14.899c0,0-1.399,0.1-3.7,0
	c-3.1-0.101-8.399-0.201-14.3-0.9c0.101-1.1,0.2-2.2,0.3-3.2c0.301-2.7,0.601-5.2,0.9-7.5c0.7-4.6,1.7-8.4,2.3-11.1
	c0.3-1.3,0.601-2.4,0.8-3.1c0.2-0.7,0.301-1.1,0.301-1.1S80.1,66.2,80,66.3C79.9,66.4,79.7,66.7,79.4,67c-0.5,0.6-1.1,1.6-1.699,2.8
	c-0.601,1.3-1.301,2.9-1.9,4.7s-1.1,4-1.7,6.3c-0.5,2.3-1,4.9-1.5,7.6c-0.2,1-0.3,2.101-0.5,3.2c-8-1.301-16.8-3.9-23.7-9.5
	C51.4,89.4,53,97.2,67.8,108.6z M64.2,111.9c-0.601-0.5-1.101-1.101-1.7-1.7c-0.601-0.6-1.3-1.3-2-2.1c-0.601-0.801-1.4-1.5-2-2.4
	c-0.601-0.9-1.4-1.8-2-2.699c-0.601-1-1.3-1.9-1.8-3l-0.9-1.5C53.6,98,53.3,97.4,53.1,96.9c-0.5-1-0.899-2.101-1.3-3.101
	s-0.8-2-1.1-3C50.4,89.799,50.1,88.9,49.9,88.1c-0.5-1.7-0.8-3.2-1-4.2c-0.199-1-0.3-1.6-0.3-1.6s-0.1,0.6-0.2,1.7
	c0,1.1-0.1,2.6,0.2,4.4c0.101,0.899,0.3,1.899,0.5,2.899s0.5,2.101,0.8,3.201c0.4,1.1,0.7,2.199,1.2,3.299
	c0.2,0.601,0.5,1.101,0.7,1.701l0.9,1.6c0.6,1.1,1.3,2.1,2,3.1c0.6,1,1.5,1.9,2.199,2.801c0.7,0.899,1.601,1.6,2.4,2.299
	c0.7,0.801,1.6,1.301,2.3,1.9c0.7,0.5,1.4,1.1,2.101,1.4c0.699,0.4,1.199,0.699,1.699,0.9c0.9,0.5,1.5,0.799,1.5,0.799
	s-0.5-0.399-1.199-1.1C65.3,112.799,64.8,112.4,64.2,111.9z M75.1,118.1v-2.4c0-1.6-0.1-3.199-0.1-4.699c0-0.101,0-0.201,0-0.301
	c0.6-0.4,1.2-0.699,1.8-1.199c0.8-0.601,1.7-1.201,2.5-1.9c0.8-0.7,1.7-1.301,2.5-2c0.8-0.7,1.6-1.4,2.4-2.2
	c0.8-0.7,1.5-1.5,2.199-2.2c1.4-1.4,2.7-2.8,3.801-4.1c1.1-1.2,1.899-2.301,2.5-3c0.6-0.7,0.899-1.2,0.899-1.2S92,94.4,89.7,96.6
	c-1.2,1.1-2.601,2.4-4,3.699C84.2,101.6,82.6,103.1,81,104.5c-1.601,1.399-3.3,2.699-4.8,4C75.4,109.1,74.6,109.7,73.9,110.2
	c-0.699,0.5-1.5,1-2.1,1.4c-0.3,0.199-0.6,0.4-0.9,0.6c-0.1,0-0.199,0.1-0.3,0.1l0,0c-0.2,0.101-0.5,0.301-0.7,0.4
	c-0.6,0.301-1.1,0.6-1.5,0.801c-0.899,0.399-1.3,0.6-1.3,0.6s0.5-0.1,1.4-0.4c0.5-0.1,1-0.3,1.6-0.6c0.101-0.1,0.3-0.1,0.4-0.2
	c0,0.899-0.101,1.7-0.101,2.601l-0.1,2.399v2.399c0,1.601,0,3.201,0,4.701c0,1,0,2,0,3l5.2-2.4c0-0.301,0-0.5-0.101-0.801
	c-0.1-1.5-0.1-3.1-0.199-4.6L75.1,118.1z M121.9,118.4c0-1.8-0.199-3.399-0.199-5.101c0-0.199,0-0.299,0-0.5
	c0.6,0.301,1.1,0.5,1.699,0.701c0.801,0.399,1.601,0.6,2.2,0.799c0.3,0.101,0.601,0.201,0.9,0.301s0.6,0.1,0.8,0.199
	c1,0.201,1.6,0.301,1.6,0.301s-0.5-0.301-1.399-0.7c-0.5-0.2-1-0.5-1.601-0.8c-0.6-0.4-1.3-0.7-2-1.2c-0.699-0.5-1.5-0.899-2.3-1.5
	s-1.6-1.101-2.5-1.7c-1.7-1.199-3.5-2.5-5.3-3.9c-1.8-1.299-3.5-2.799-5.2-4.1c-1.5-1.199-3-2.4-4.2-3.4
	c8.5,6.101,15.5,9.101,19.101,10.801l4.899,5.6l-1-4.9c13.801-12,14.601-20,16.7-27.5l0,0c-7,6.5-16.6,9.4-25.1,10.8
	c-0.3-1.301-0.5-2.5-0.8-3.7c-0.4-1.5-0.7-3-1.2-4.4c-0.8-2.8-1.7-5.5-2.7-7.8c-1.8-4.8-4-8.5-5.9-10.9
	c-0.899-1.2-1.699-2.1-2.3-2.6c-0.6-0.6-0.899-0.8-0.899-0.8s0.199,0.4,0.6,1.1s0.9,1.7,1.5,3c0.3,0.7,0.7,1.4,1,2.2
	c0.4,0.8,0.7,1.7,1.1,2.6c0.801,1.9,1.601,4,2.4,6.3c0.8,2.4,1.5,4.9,2.1,7.7c0.301,1.4,0.601,2.8,0.9,4.3
	c0.2,1.199,0.4,2.3,0.6,3.5c-5,0.6-9.3,0.8-12,1c-2.3,0.199-3.699,0.1-3.699,0.1s1.3,1.9,3.6,4.4c1.2,1.3,2.6,2.699,4.1,4.1
	c0.801,0.7,1.601,1.5,2.5,2.2c0.9,0.7,1.7,1.399,2.601,2.101c0.899,0.699,1.8,1.399,2.8,2c0.5,0.399,1,0.699,1.5,1
	c0,1.1,0,2.199,0,3.399c0,1.7,0,3.399,0,5c0,1.7-0.1,3.3-0.1,5c0,0.899-0.101,1.7-0.101,2.601l5.4,4.799c0-2.399,0.1-4.899,0-7.299
	C121.9,121.799,121.9,120.1,121.9,118.4z M144.1,83.4c0,1-0.2,2.5-0.399,4.3c-0.101,0.9-0.301,1.801-0.5,2.801c-0.2,1-0.5,2-0.7,3.1
	c-0.3,1.1-0.601,2.199-1,3.199c-0.4,1.101-0.8,2.201-1.3,3.301c-0.4,1.1-1,2.1-1.601,3.1c-0.5,1-1.2,2-1.8,2.9s-1.3,1.699-1.9,2.6
	c-0.6,0.801-1.3,1.5-1.899,2.2c-0.601,0.601-1.101,1.3-1.7,1.8c-0.5,0.5-1,0.9-1.4,1.301c-0.8,0.699-1.199,1.1-1.199,1.1
	s0.5-0.301,1.399-0.9c0.4-0.3,1-0.699,1.601-1.1c0.6-0.4,1.199-1,1.899-1.6c0.7-0.601,1.4-1.301,2.101-2.101
	c0.699-0.8,1.5-1.601,2.1-2.5s1.4-1.899,1.9-2.899c0.6-1,1.199-2.101,1.699-3.201c0.5-1.1,0.9-2.299,1.301-3.399
	c0.399-1.101,0.6-2.3,0.899-3.399c0.2-1.101,0.4-2.201,0.5-3.201c0.101-1,0.2-2,0.2-2.899c0.1-1.8,0-3.3-0.1-4.4
	c-0.101-1-0.2-1.6-0.2-1.6C144.1,81.8,144.1,82.4,144.1,83.4z M158.5,115.1c-2.5,2.699-5,5.3-7.601,7.8l-0.3,0.3l-0.2-0.4
	l-2.399-4.5c-7,6-14,11.9-21.101,17.801l-0.399,0.4l-0.4-0.4l-12.6-11.2L97.1,137l-0.5,0.299L96.2,136.9L81.1,124.7l-15.1,6.6
	l-0.4,0.201l-0.3-0.301l-11.6-14.4l-6.9,3.4l-0.2,0.1l-0.2-0.199c-2.5-2.9-4.899-5.9-7.199-9c-1.2-1.5-2.301-3.1-3.5-4.6
	c-1.101-1.601-2.2-3.101-3.301-4.701L47.7,132.7l6.8-4.1L67,145.9l13.7-6.601L96.3,151.9l15.4-12.601l13,11.101l16.5-20.101l5.899,7
	L165.7,107c-1.101,1.399-2.301,2.799-3.5,4.199C161,112.5,159.7,113.799,158.5,115.1z M144.5,139.4c0.6,0.5,1.1,0.899,1.7,1.399
	c0.6,0.4,1.199,0.801,1.899,1.201c-0.399-0.601-0.8-1.301-1.3-1.801c-0.5-0.6-0.9-1.1-1.4-1.699c-1-1.101-2-2.101-3.199-3.101
	l-0.5-0.5l-0.4,0.5c-2.8,3.3-5.6,6.601-8.4,9.899c-1.399,1.701-2.8,3.301-4.1,5c-1.4,1.701-2.7,3.4-4.1,5.101
	c1.5-1.601,3-3.101,4.5-4.7s3-3.199,4.399-4.8c2.8-3,5.5-6,8.2-9.101C142.7,137.799,143.6,138.6,144.5,139.4z M96.2,155.5
	L80.6,144.299l14.9,13.4l0.7,0.6l0.699-0.6l14.7-13.4L96.2,155.5z M60.9,142.1c-1-1.4-2.199-2.801-3.199-4.301
	C56.6,136.4,55.5,135,54.3,133.6l-0.4-0.5l-0.5,0.3C52.2,134.2,51,135,49.9,135.799C48.7,136.6,47.6,137.5,46.5,138.4
	c1.3-0.601,2.6-1.2,3.8-1.8c1.1-0.6,2.2-1.1,3.2-1.7c1,1.3,1.899,2.601,2.899,3.8c1.101,1.4,2.2,2.801,3.301,4.2
	c1.1,1.399,2.3,2.7,3.5,4.101c1.199,1.299,2.399,2.699,3.6,3.899c-0.9-1.5-1.9-3-2.9-4.5C63,145,62,143.6,60.9,142.1z" class="color c1"/>
</svg>