<svg version="1.1" id="图层_1" x="0px" y="0px" width="166.282px" height="92.896px" viewBox="0 0 166.282 92.896" enable-background="new 0 0 166.282 92.896" xml:space="preserve" xmlns:xml="http://www.w3.org/XML/1998/namespace" xmlns="http://www.w3.org/2000/svg" xmlns:xlink="http://www.w3.org/1999/xlink">
  <path fill="#070707" d="M157.528,44.447c-0.15-4.057-0.295-7.889,1.079-12.59c0.608-2.086,1.509-3.086,2.869-4.604
	c1.354-1.509,3.038-3.386,4.278-6.424c0.908-2.223,0.636-4.994-0.769-7.799c-1.461-2.926-4.705-6.748-9.04-7.887
	c-1.632-0.431-3.242-0.438-4.794-0.03c-4.094,1.08-6.985,3.124-9.228,5.579c-0.057,0.06-0.113,0.115-0.166,0.18
	c-2.35,2.635-3.965,5.724-5.479,8.616c-0.234,0.446-0.479,0.903-0.715,1.357c-1.995,2.978-4.051,5.755-6.158,8.352
	c-3.072,2.792-7.207,5.451-12.365,7.945c-10.603,5.121-19.354,8.021-30.24,6.65c-2.35-0.294-4.694-0.747-6.973-1.346
	c-14.875-3.91-26.798-14.102-36.501-23.557l-0.573-0.562C37.655,13.35,28.166,4.078,16.193,0.221
	c-1.377-0.446-2.836-0.206-3.992,0.618L3.385,7.137C2.546,7.735,1.94,8.602,1.664,9.593c-3.447,12.43-1.515,25.535,5.59,37.899
	C18.373,66.84,41.193,82.647,68.301,89.776l0.02,0.006c28.451,7.476,66.229,2.092,83.383-22.666
	C158.04,57.967,157.779,51.094,157.528,44.447z" class="color c1"/>
  <path fill="#F8C600" d="M161.145,15.877c-0.554-2.272-3.175-6.038-6.528-6.919c-0.394-0.097-0.78-0.146-1.149-0.146l-0.487,0.001
	l-0.557,0.133c-1.436,0.379-2.707,0.917-3.887,1.646l-3.272,2.02l1.889,3.35c2.213,3.922,5.476,6.139,9.188,6.243l2.163,0.061
	l1.234-1.778c0.307-0.443,0.762-1.132,1.159-2.002l0.576-1.261L161.145,15.877z" class="color c2"/>
  <path fill="#E99C0C" d="M103.086,48.652c-3.486,0.66-6.75,0.933-10.233,0.823c-2.631-0.08-5.274-0.336-7.856-0.761
	C68.441,46,54.802,36.446,43.647,27.463l-0.635-0.513c-4.265-3.442-14.203-14.849-23.418-18.07l-8.442-2.155l7.045,11.777
	c18.776,25.25,44.002,40.113,67.479,39.763c0.003,0,0.005,0,0.006,0c1.341-0.021,2.688-0.093,4.007-0.209
	c5.084-0.458,10.156-1.693,15.076-3.674c0,0,13.612-4.918,24.157-18.576C115.597,47.507,103.086,48.652,103.086,48.652z" class="color c3"/>
  <path fill="#F8C600" d="M151.833,26.774c-1.763-0.786-3.381-2.035-4.813-3.713l-2.202-2.58l-1.813,2.867
	c-0.61,0.967-1.224,1.903-1.838,2.826l-0.123,0.208c-0.64,1.198-1.156,2.12-1.68,2.984c-1.172,1.939-2.761,3.885-4.721,5.783
	l-0.203,0.223c-18.781,23.19-38.645,28.104-52.091,28.104c-0.091,0-0.182-0.001-0.272-0.001c-4.905-0.025-9.917-0.703-14.897-2.015
	C46.274,55.966,26.083,39.346,11.784,15.86l-3.408-5.597L7.19,16.71c-1.79,9.729,0.179,19.944,5.694,29.544
	C23.156,64.129,44.49,78.798,69.953,85.495l0.019,0.005c7.025,1.848,14.786,2.829,22.674,2.829
	c20.882-0.002,42.622-6.895,53.72-22.911c5.104-7.367,4.905-12.628,4.676-18.726c-0.156-4.192-0.336-8.943,1.334-14.653
	c0.19-0.65,0.424-1.281,0.729-1.979l0.997-2.275L151.833,26.774z" class="color c2"/>
</svg>