<svg version="1.1" id="图层_1" x="0px" y="0px" width="133.026px" height="124.102px" viewBox="0 0 133.026 124.102" enable-background="new 0 0 133.026 124.102" xml:space="preserve" xmlns="http://www.w3.org/2000/svg" xmlns:xlink="http://www.w3.org/1999/xlink" xmlns:xml="http://www.w3.org/XML/1998/namespace">
  <path id="XMLID_932_" fill="#121212" d="M132.386,34.523c-0.494-2.47-1.324-4.9-2.385-7.222c-1.042-2.279-2.397-4.427-3.943-6.462
	c-3.045-4.017-6.961-7.495-11.307-10.392c-2.248-1.497-4.633-2.814-7.096-4.007c-2.444-1.184-5.012-2.159-7.625-2.997
	c-0.475-0.152-0.961-0.273-1.438-0.415c-0.5-0.185-0.981-0.41-1.491-0.571c-1.203-0.377-2.441-0.66-3.695-0.871
	c-0.338-0.057-0.68-0.091-1.02-0.134c-0.179-0.037-0.354-0.086-0.532-0.122c-2.747-0.548-5.533-0.906-8.334-1.124
	C81.778,0.071,80.026,0,78.274,0c-2.396,0-4.793,0.132-7.166,0.407c-1.986,0.23-3.961,0.561-5.911,0.98
	c-0.516-0.014-1.032-0.022-1.547-0.022c-5.986,0-11.95,0.915-17.679,2.431c-6.413,1.695-12.563,4.134-18.295,7.2
	c-5.387,2.881-10.436,6.302-14.786,10.352c-0.97,0.902-1.907,1.835-2.786,2.811c-0.91,1.008-1.755,2.065-2.555,3.146
	c-1.822,2.461-3.387,5.082-4.666,7.801c-1.309,2.777-2.27,5.709-2.696,8.702c-0.202,1.426-0.239,2.868-0.12,4.3
	c0.063,0.75,0.188,1.492,0.371,2.222c0.088,0.731,0.225,1.457,0.417,2.179c0.152,0.575,0.337,1.148,0.558,1.708
	c0.237,0.596,0.606,1.144,1.003,1.666c0.413,0.542,0.897,1.049,1.405,1.521c0.496,0.462,1.029,0.896,1.6,1.285
	c0.936,0.64,2.004,1.144,3.101,1.521c0.031,0.011,0.065,0.015,0.097,0.026c0.045,0.04,0.088,0.084,0.133,0.125
	c1.131,1,2.24,2.01,3.248,3.11c0.512,0.559,0.988,1.139,1.422,1.747c0.525,0.79,0.963,1.615,1.282,2.489
	c0.22,0.699,0.339,1.411,0.421,2.129c-0.057,1.771-0.176,3.542-0.37,5.307c-0.278,2.526-0.638,5.045-0.981,7.564
	c-0.697,5.133-1.334,10.287-1.106,15.468c0.103,2.353,0.431,4.698,1.111,6.977c0.175,0.584,0.44,1.142,0.662,1.713
	c0.415,1.81,1.01,3.586,1.875,5.265c0.651,1.26,1.48,2.464,2.435,3.559c0.98,1.122,2.177,2.108,3.436,2.975
	c1.295,0.891,2.73,1.622,4.198,2.26c1.405,0.608,2.877,1.095,4.374,1.492c3.285,0.873,6.699,1.347,10.115,1.556
	c3.552,0.215,7.123,0.148,10.672-0.043c3.295-0.178,6.574-0.504,9.844-0.896c2.318-0.276,4.629-0.598,6.941-0.915
	c3.493-0.091,6.983-0.262,10.463-0.552c7.27-0.605,14.564-1.739,21.375-4.153c3.287-1.167,6.43-2.697,9.273-4.574
	c1.45-0.96,2.761-2.07,3.928-3.301c1.096-1.155,1.977-2.466,2.727-3.819c0.682-1.226,1.178-2.527,1.557-3.852
	c0.427-1.483,0.73-2.979,0.91-4.503c0.359-3.034,0.27-6.11,0.135-9.154c-0.104-2.297-0.258-4.593-0.33-6.892
	c-0.084-3.273-0.046-6.611,0.773-9.816c0.59-2.013,1.504-3.91,2.613-5.735c0.532-0.837,1.134-1.635,1.726-2.438
	c0.562-0.662,1.074-1.354,1.534-2.078c0.607-0.785,1.217-1.567,1.813-2.358c1.842-2.448,3.52-5.027,4.576-7.833
	c0.568-1.508,0.927-3.072,1.186-4.643c0.223-1.326,0.354-2.664,0.409-4.003C133.108,39.774,132.906,37.118,132.386,34.523z" class="color c1"/>
  <path id="XMLID_931_" fill="#FFFFFF" d="M95.32,18.464c2.312,3.394,4.165,7.032,5.537,10.808c0.516,2.053,0.84,4.14,0.931,6.246
	c0.028,2.104-0.184,4.2-0.71,6.254c-0.417,1.394-0.955,2.763-1.706,4.044c-0.422,0.635-0.901,1.229-1.457,1.777
	c-0.686,0.593-1.445,1.1-2.25,1.557c-0.918,0.484-1.872,0.915-2.818,1.356c0.814-0.996,1.604-2.006,2.307-3.068
	c0.896-1.349,1.623-2.794,2.089-4.307c0.476-1.551,0.641-3.179,0.488-4.778c-0.021-0.22-0.188-0.404-0.453-0.404
	c-0.231,0-0.474,0.184-0.452,0.404c0.081,0.865,0.064,1.732-0.054,2.596c-0.167,1.071-0.503,2.108-0.968,3.106
	c-0.721,1.486-1.704,2.859-2.803,4.142c-1.227,1.398-2.615,2.672-4.01,3.936c-0.373,0.336-0.75,0.668-1.127,1.001
	c-0.387,0.234-0.787,0.451-1.158,0.703c-0.178,0.12-0.333,0.264-0.505,0.39c-0.241,0.135-0.486,0.266-0.715,0.416
	c-0.565,0.374-1.054,0.844-1.517,1.313c-0.402,0.407-0.761,0.844-1.096,1.295c-0.065,0.089-0.117,0.188-0.182,0.278
	c-0.561,0.642-1.14,1.274-1.611,1.97c-3.035,4.469-4.222,9.686-4.797,14.825c-0.544,4.874-0.531,9.777-0.738,14.666
	c-0.198,4.725-0.541,9.475-1.775,14.085c-0.673,2.366-1.603,4.666-2.915,6.813c-0.968,1.502-2.115,2.896-3.443,4.161
	c-1.372,1.242-2.911,2.32-4.567,3.245c-0.467,0.249-0.959,0.45-1.439,0.675c-3.66,0.747-7.41,1.128-11.166,1.229
	c-5.736,0.109-11.5-0.395-17.084-1.593c-2.762-0.618-5.504-1.373-8.019-2.579c-1.015-0.514-1.954-1.122-2.853-1.78
	c-0.701-1.206-1.301-2.456-1.754-3.759c-1.174-3.636-1.609-7.405-1.745-11.177c-0.175-6.52,0.532-13.02,0.946-19.522
	c0.185-2.89,0.244-5.773,0.002-8.663c-0.131-1.575-0.299-3.177-0.746-4.71c-0.345-1.179-0.846-2.245-1.621-3.25
	c-0.053-0.068-0.127-0.121-0.184-0.187c-0.652-1.568-1.363-3.116-2-4.689c-0.773-1.913-1.416-3.875-1.738-5.889
	c-0.219-1.596-0.224-3.201-0.006-4.797c0.039-0.242,0.081-0.485,0.127-0.726c0.079-0.417-0.118-0.835-0.609-0.955
	c-0.068-0.017-0.141-0.025-0.215-0.025c-0.38,0-0.789,0.218-0.855,0.567c-0.417,2.137-0.475,4.281-0.245,6.438
	c0.217,2.073,0.676,4.119,1.217,6.14c0.035,0.134,0.079,0.265,0.115,0.399c-0.61-0.474-1.235-0.932-1.823-1.429
	c-1.359-1.186-2.604-2.439-3.633-3.868C6.834,52.11,6.28,51.03,5.87,49.889c-0.364-1.179-0.567-2.379-0.625-3.601
	c-0.017-1.635,0.21-3.243,0.62-4.835c0.789-2.761,2.078-5.381,3.611-7.875c0.525-0.832,1.084-1.645,1.659-2.448
	c1.702-2.247,3.592-4.375,5.693-6.345c3.59-3.281,7.654-6.11,12.029-8.511c6.918-3.72,14.457-6.406,22.177-8.499
	c-0.04,0.011-0.079,0.021-0.119,0.031c0.085-0.022,0.17-0.045,0.255-0.068c0.076-0.021,0.15-0.041,0.227-0.061
	c-0.035,0.01-0.069,0.019-0.104,0.029c0.508-0.135,1.02-0.261,1.531-0.393c0.105-0.016,0.21-0.04,0.316-0.055
	C56.155,6.81,59.229,6.6,62.283,6.51c2.616-0.049,5.237,0.039,7.845,0.231c2.604,0.192,5.211,0.489,7.758,1.019
	c2.721,0.631,5.343,1.537,7.822,2.723c2.258,1.149,4.352,2.52,6.248,4.105c0.572,0.503,1.082,1.054,1.608,1.591
	C94.159,16.936,94.776,17.68,95.32,18.464z" class="color c2"/>
  <path fill="#FBDD0D" d="M127.567,30.954c-1.021-2.965-2.479-5.812-4.287-8.463c-1.924-2.732-4.236-5.224-6.838-7.463
	c-1.625-1.369-3.35-2.632-5.155-3.798c0.621,0.549,1.243,1.098,1.858,1.654c0.814,0.736,1.629,1.473,2.41,2.237
	c0.256,0.251,0.278,0.633,0,0.882c-0.26,0.231-0.73,0.249-0.987,0c-1.104-1.075-2.278-2.082-3.563-2.982l-0.001,0
	c-0.005-0.003-0.009-0.006-0.014-0.009c-1.711-1.157-3.532-2.148-5.438-3.026c-1.865-0.862-3.779-1.65-5.712-2.389
	c-0.751-0.281-1.508-0.553-2.267-0.82c1.193,0.477,2.387,0.957,3.546,1.499c2.891,1.355,5.704,2.897,8.179,4.812
	c2.191,1.695,4.154,3.646,5.485,5.96c0.26,0.451-0.026,1.033-0.528,1.23c-0.541,0.218-1.121-0.018-1.383-0.469
	c-0.158-0.275-0.326-0.546-0.506-0.813c-0.727-1.019-1.593-1.938-2.555-2.785c-1.793-1.511-3.828-2.761-5.974-3.844
	c-0.493-0.242-1.011-0.44-1.513-0.666c0.088,0.092,0.197,0.165,0.283,0.258c0.9,0.978,1.757,1.995,2.444,3.104
	c0.661,1.066,1.224,2.192,1.747,3.316c0.27,0.573,0.526,1.153,0.743,1.744c0.231,0.631,0.426,1.275,0.623,1.917
	c0.446,1.446,0.88,2.893,1.224,4.363c0.1,0.417-0.129,0.846-0.616,0.966c-0.44,0.106-0.981-0.131-1.081-0.549
	c-0.361-1.505-0.79-3.004-1.445-4.431c-0.735-1.503-1.641-2.975-2.746-4.29c-0.652-0.72-1.385-1.391-2.134-2.028
	c-0.722-0.612-1.474-1.191-2.255-1.741c-0.492-0.332-1.016-0.627-1.525-0.94c0.859,0.889,1.68,1.807,2.404,2.786
	c1.252,1.692,2.376,3.461,3.248,5.333c0.992,2.124,1.777,4.343,2.348,6.586c0.601,2.359,0.93,4.736,0.999,7.155
	c0.065,2.277-0.122,4.569-0.729,6.787c-0.33,1.193-0.686,2.375-1.204,3.517c-0.263,0.578-0.608,1.121-0.936,1.672
	c-0.389,0.777-0.823,1.537-1.36,2.237c-0.391,0.509-0.814,1-1.286,1.45c-0.54,0.518-1.094,1.033-1.744,1.442
	c-0.74,0.464-1.532,0.871-2.375,1.168c-0.722,0.255-1.468,0.455-2.218,0.633c-1.293,0.577-2.578,1.162-3.821,1.823
	c-1.525,0.856-2.97,1.818-4.239,2.961c-1.12,1.079-2.084,2.269-2.906,3.542c-0.863,1.429-1.5,2.944-2.047,4.487
	c-0.25,1.242-0.463,2.489-0.613,3.743c-0.255,2.14-0.406,4.289-0.488,6.439c-0.152,4.081-0.08,8.162-0.09,12.243
	c-0.003,1.112-0.008,2.226-0.045,3.341c-0.041,1.186-0.128,2.37-0.18,3.559c-0.107,2.494-0.13,4.996-0.369,7.483
	c-0.107,1.098-0.246,2.195-0.488,3.277c-0.239,1.075-0.538,2.152-0.987,3.176c-0.434,0.996-0.989,1.964-1.673,2.844
	c-0.712,0.918-1.564,1.762-2.508,2.492c-1.067,0.829-2.256,1.531-3.5,2.131c-0.123,0.06-0.255,0.105-0.379,0.163
	c1.693-0.192,3.389-0.379,5.08-0.595c0.941-0.12,1.881-0.254,2.82-0.385c1.283-1.418,2.463-2.908,3.469-4.495
	c0.805-1.311,1.527-2.66,2.127-4.055c0.602-1.398,1.102-2.824,1.508-4.275c0.546-2.021,0.95-4.061,1.266-6.121
	c0.332-2.146,0.576-4.304,0.73-6.465c0.291-4.109,0.381-8.226,0.658-12.335c0.025-0.39,0.439-0.682,0.86-0.682
	c0.028,0,0.056,0.001,0.084,0.004c0.483,0.047,0.787,0.426,0.76,0.842c-0.292,4.482-0.319,8.977-0.525,13.462
	c-0.12,2.639-0.274,5.275-0.646,7.897c-0.371,2.616-0.902,5.209-1.689,7.755c-0.607,1.969-1.39,3.891-2.43,5.708
	c0.328-0.197,0.676-0.367,0.994-0.578c1.568-1.109,3.018-2.376,4.261-3.777c0.431-0.51,0.844-1.036,1.199-1.588
	c0.354-0.552,0.666-1.118,0.948-1.699c0.359-0.777,0.666-1.569,0.895-2.384c0.227-0.812,0.389-1.633,0.521-2.461
	c0.362-2.481,0.422-4.998,0.385-7.498c-0.037-2.523-0.225-5.043-0.371-7.562c-0.016-0.287,0.281-0.524,0.591-0.524
	c0.333,0,0.57,0.237,0.588,0.524c0.104,1.69,0.236,3.381,0.361,5.071c0.124,1.655,0.265,3.314,0.327,4.974
	c0.086,2.353,0.068,4.714-0.17,7.063c-0.23,2.234-0.531,4.489-1.307,6.635c-0.4,1.115-0.914,2.229-1.614,3.221
	c-0.216,0.308-0.486,0.582-0.733,0.873c0.219-0.056,0.441-0.1,0.659-0.157c0.208-0.057,0.412-0.124,0.62-0.183
	c0.124-0.079,0.25-0.157,0.373-0.238c1.459-2.544,2.627-5.216,3.395-7.992c2.147-8.057,1.669-16.438,3.336-24.562
	c0.049-0.242,0.255-0.433,0.535-0.433c0.02,0,0.041,0.001,0.063,0.004c0.277,0.026,0.533,0.273,0.481,0.533
	c-0.808,3.982-1.044,8.037-1.264,12.073c-0.237,4.36-0.413,8.748-1.286,13.053c-0.24,1.18-0.535,2.357-0.886,3.521
	c0.046-0.046,0.095-0.091,0.141-0.138c0.573-0.58,1.153-1.152,1.71-1.746c0.477-0.503,0.932-1.022,1.386-1.541
	c0.376-0.444,0.737-0.903,1.036-1.392c0.286-0.466,0.537-0.944,0.773-1.431c0.437-0.948,0.805-1.917,1.078-2.912
	c0.273-1.001,0.465-2.018,0.622-3.038c0.301-2.085,0.437-4.188,0.532-6.287c0.102-2.279,0.167-4.559,0.289-6.838
	c0.015-0.257,0.231-0.471,0.531-0.471c0.275,0,0.54,0.214,0.527,0.471c-0.1,1.948-0.135,3.899-0.146,5.85
	c-0.018,2.607,0.008,5.218-0.133,7.823c-0.064,1.191-0.162,2.384-0.304,3.57c-0.142,1.197-0.316,2.396-0.613,3.572
	c-0.144,0.575-0.296,1.152-0.46,1.724c-0.15,0.521-0.3,1.053-0.517,1.557c-0.131,0.309-0.313,0.596-0.467,0.896
	c0.788-0.472,1.56-0.961,2.295-1.495c0.68-1.318,1.245-2.68,1.649-4.087c0.462-1.72,0.768-3.467,0.991-5.223
	c0.241-1.877,0.413-3.754,0.491-5.645c0.164-4.121,0.018-8.248-0.078-12.369c-0.041-1.844-0.094-3.686-0.069-5.529
	c0.022-1.539,0.072-3.083,0.286-4.613c0.038-0.281,0.308-0.496,0.623-0.496c0.021,0,0.041,0.001,0.063,0.003
	c0.337,0.033,0.596,0.313,0.554,0.613c-0.278,2.046-0.276,4.117-0.22,6.175c0.077,2.557,0.26,5.109,0.444,7.662
	c0.196,2.708,0.349,5.418,0.429,8.131c0.105,3.65,0.092,7.33-0.592,10.938c0.385-0.507,0.775-1.009,1.117-1.545
	c0.984-1.637,1.722-3.369,2.237-5.17c0.321-1.225,0.517-2.47,0.655-3.722c0.051-1.601,0.044-3.203-0.001-4.799
	c-0.021-0.615-0.042-1.23-0.066-1.846c-0.116-3.095-0.271-6.195-0.126-9.292c0.146-3.099,0.605-6.213,1.841-9.133
	c1.177-2.783,2.95-5.315,4.862-7.741c1.562-1.982,3.158-3.941,4.56-6.016c0.395-1.23,0.715-2.479,0.913-3.748
	c0.648-4.496,0.242-9.041-0.346-13.524c-0.051-0.378,0.394-0.695,0.782-0.695c0.207,0,0.406,0.073,0.554,0.202
	c0.159,0.144,0.201,0.302,0.227,0.493c0.473,3.564,0.877,7.176,0.848,10.776c0.313-1.343,0.532-2.708,0.664-4.073
	c0.135-1.406,0.193-2.815,0.167-4.225C129.007,36.747,128.491,33.803,127.567,30.954z M120.627,42.93
	c-0.44,2.181-1.131,4.318-1.956,6.409c-0.822,2.088-1.77,4.134-2.666,6.198c-0.92,2.112-1.793,4.236-2.478,6.422
	c-0.079,0.245-0.438,0.349-0.683,0.262c-0.287-0.1-0.371-0.362-0.297-0.608c1.473-4.727,3.363-9.343,4.695-14.106
	c0.001-0.001,0.001-0.002,0.001-0.003v0l0.001-0.001c0.418-1.542,0.781-3.098,1.02-4.671c0.237-1.573,0.355-3.156,0.326-4.746
	c-0.066-1.983-0.374-3.939-0.854-5.875c-0.138-0.549,0.361-1.096,0.954-1.182c0.061-0.009,0.122-0.013,0.184-0.013
	c0.245,0,0.49,0.07,0.689,0.202c0.162,0.107,0.283,0.243,0.366,0.407c0.526,1.484,0.897,2.999,1.052,4.552
	C121.2,38.432,121.078,40.702,120.627,42.93z" class="color c3"/>
  <g>
    <path fill="#121212" d="M59.034,13.025c0.071-0.598-0.128-1.202-0.549-1.67c-0.387-0.426-1.074-0.835-1.715-0.835
		c-0.707,0-1.303,0.08-1.874,0.489c-0.525,0.378-0.864,0.931-0.937,1.528c-0.072,0.598,0.127,1.202,0.548,1.67
		c0.386,0.427,1.074,0.835,1.715,0.835c0.708,0,1.304-0.08,1.874-0.489C58.622,14.176,58.962,13.623,59.034,13.025z" class="color c1"/>
    <path fill="#121212" d="M76.103,22.901c-0.387-0.426-1.074-0.835-1.714-0.835c-0.708,0-1.304,0.08-1.874,0.489
		c-0.526,0.377-0.865,0.931-0.938,1.528s0.127,1.202,0.548,1.67c0.387,0.427,1.075,0.835,1.715,0.835
		c0.708,0,1.304-0.08,1.874-0.489c0.526-0.377,0.865-0.931,0.938-1.528S76.524,23.37,76.103,22.901z" class="color c1"/>
    <path fill="#121212" d="M73.413,40.158c-0.708,0-1.304,0.08-1.874,0.489c-0.526,0.378-0.865,0.931-0.938,1.528
		s0.127,1.202,0.548,1.67c0.387,0.427,1.074,0.835,1.715,0.835c0.708,0,1.304-0.08,1.875-0.489c0.525-0.377,0.864-0.931,0.937-1.528
		s-0.127-1.202-0.548-1.67C74.741,40.566,74.054,40.158,73.413,40.158z" class="color c1"/>
    <path fill="#121212" d="M40.798,34.341c-0.428,0-0.79,0.049-1.137,0.298c-0.318,0.227-0.522,0.562-0.567,0.924
		c-0.045,0.362,0.077,0.729,0.334,1.013c0.231,0.258,0.65,0.507,1.037,0.507c0.429,0,0.79-0.049,1.136-0.298
		c0.319-0.227,0.523-0.562,0.568-0.924c0.045-0.362-0.077-0.729-0.334-1.013C41.604,34.59,41.185,34.341,40.798,34.341z" class="color c1"/>
    <path fill="#121212" d="M48.515,58.161c0.072-0.598-0.127-1.202-0.549-1.67c-0.387-0.426-1.074-0.835-1.715-0.835
		c-0.707,0-1.303,0.08-1.874,0.489c-0.525,0.378-0.864,0.931-0.937,1.528s0.127,1.202,0.548,1.67
		c0.387,0.427,1.075,0.835,1.715,0.835c0.708,0,1.304-0.08,1.874-0.489C48.103,59.312,48.442,58.759,48.515,58.161z" class="color c1"/>
    <path fill="#121212" d="M31.765,62.746c-0.709,0-1.305,0.08-1.875,0.488c-0.525,0.378-0.864,0.932-0.937,1.529
		c-0.073,0.597,0.127,1.201,0.548,1.67c0.387,0.427,1.074,0.836,1.715,0.836c0.708,0,1.304-0.08,1.874-0.489
		c0.526-0.378,0.864-0.931,0.937-1.528s-0.126-1.202-0.547-1.671C33.093,63.155,32.404,62.746,31.765,62.746z" class="color c1"/>
    <path fill="#121212" d="M69.168,52.227c-0.708,0-1.304,0.08-1.874,0.489c-0.525,0.377-0.864,0.931-0.938,1.528
		c-0.072,0.598,0.127,1.202,0.549,1.671c0.387,0.426,1.074,0.835,1.715,0.835c0.707,0,1.303-0.08,1.873-0.488
		c0.526-0.378,0.865-0.931,0.938-1.528s-0.127-1.202-0.548-1.67C70.497,52.635,69.809,52.227,69.168,52.227z" class="color c1"/>
    <path fill="#121212" d="M64.971,86.189c-0.468,0-0.862,0.053-1.238,0.324c-0.349,0.249-0.573,0.615-0.62,1.009
		c-0.048,0.396,0.084,0.795,0.363,1.104c0.254,0.282,0.708,0.554,1.131,0.554c0.469,0,0.863-0.054,1.239-0.324
		c0.349-0.249,0.573-0.615,0.62-1.009c0.048-0.396-0.084-0.795-0.363-1.104C65.849,86.46,65.395,86.189,64.971,86.189z" class="color c1"/>
    <path fill="#121212" d="M48.836,109.581c-0.386,0-0.715,0.044-1.026,0.269c-0.289,0.207-0.477,0.511-0.516,0.84
		c-0.041,0.326,0.069,0.66,0.301,0.915c0.212,0.235,0.591,0.46,0.942,0.46c0.386,0,0.715-0.045,1.026-0.269
		c0.289-0.207,0.477-0.511,0.517-0.84c0.039-0.327-0.07-0.66-0.302-0.915C49.566,109.806,49.188,109.581,48.836,109.581z" class="color c1"/>
    <path fill="#121212" d="M58.216,108.254c-0.437,0-0.809,0.049-1.159,0.303c-0.327,0.232-0.536,0.577-0.581,0.945
		c-0.045,0.369,0.08,0.745,0.339,1.033c0.239,0.265,0.665,0.518,1.062,0.518c0.437,0,0.808-0.049,1.159-0.302
		c0.327-0.233,0.536-0.577,0.581-0.946s-0.08-0.744-0.34-1.033C59.038,108.507,58.612,108.254,58.216,108.254z" class="color c1"/>
    <path fill="#121212" d="M21.954,41.158c-1.391,0-2.553,1.036-2.553,2.275c0,1.24,1.162,2.275,2.553,2.275s2.552-1.035,2.552-2.275
		C24.506,42.194,23.345,41.158,21.954,41.158z" class="color c1"/>
  </g>
</svg>