<svg version="1.1" id="图层_1" x="0px" y="0px" width="158.133px" height="86.482px" viewBox="0 0 158.133 86.482" enable-background="new 0 0 158.133 86.482" xml:space="preserve" xmlns="http://www.w3.org/2000/svg" xmlns:xlink="http://www.w3.org/1999/xlink" xmlns:xml="http://www.w3.org/XML/1998/namespace">
  <path fill="#FFA723" d="M96.374,18.806c-1.924-0.425-3.322-2.074-3.322-4.043v-0.135c0-7.317-5.322-13.851-12.588-14.559
	C72.13-0.746,65.082,5.813,65.082,13.984v0.728c0,1.994-1.416,3.671-3.365,4.102C29.253,26.022,4.254,53.007,0,86.482h158.133
	C153.879,52.992,128.86,25.999,96.374,18.806z M85.538,17.18c-2.136-0.171-4.291-0.283-6.471-0.283
	c-2.183,0-4.334,0.112-6.471,0.283v-3.196c0-3.567,2.902-6.471,6.471-6.471c3.566,0,6.471,2.904,6.471,6.471V17.18z" class="color c1"/>
</svg>