<svg version="1.1" id="图层_1" x="0px" y="0px" width="122.74px" height="146.93px" viewBox="0 0 122.74 146.93" enable-background="new 0 0 122.74 146.93" xml:space="preserve" xmlns="http://www.w3.org/2000/svg" xmlns:xlink="http://www.w3.org/1999/xlink" xmlns:xml="http://www.w3.org/XML/1998/namespace">
  <g>
    <path fill="#2D318D" d="M112.421,106.991c-2.5-1.816-3.807-3.547-4.482-5.372c9.169-10.779,14.756-24.84,14.801-40.232
		C122.846,27.34,95.785,0.096,61.771,0C27.881-0.095,0.282,27.128,0.002,60.927c-0.214,25.673,15.158,47.46,37.531,56.89
		c2.157,3.951-1.968,8.643-1.968,8.643c-6.51,9.655-1.562,16.646,0.315,18.753c1.88,1.297,4.235,1.673,6.148,1.718
		c5.453-0.617,11.924-4.862,6.893-15.093c-0.035-0.071-0.07-0.142-0.104-0.21c-1.412-2.944-1.736-5.191-1.399-6.929l-0.029,0.003
		l0.043-0.075c0.113-0.548,0.274-1.06,0.511-1.507h-0.004c0,0,0.866-2.251,3.211-3.629c0.222-0.14,0.471-0.268,0.741-0.391
		c0.023-0.012,0.041-0.024,0.064-0.034c0.033-0.014,0.052-0.017,0.083-0.029c0.59-0.254,1.299-0.456,2.143-0.578l-0.003-0.008
		c0,0,1.309-0.351,2.505-0.079c0.032,0.003,0.062,0.003,0.096,0.004c0,0,0.098,0.031,0.245,0.1c0.409,0.142,0.771,0.389,1.055,0.757
		c0.058,0.064,0.111,0.133,0.165,0.207c0.013,0.022,0.032,0.034,0.044,0.057c0.003,0.002,0.003,0.004,0.004,0.008
		c0.453,0.668,0.651,1.678-0.117,3.159c-5.006,19.102,6.895,16.831,6.895,16.831c7.898-3.258,5.558-10.863,3.488-15.07
		c-0.007-0.015-0.003-0.025-0.013-0.039c-0.01-0.014-0.018-0.032-0.027-0.047c-0.144-0.286-0.281-0.556-0.417-0.81
		c-0.352-0.815-0.579-1.684-0.58-1.692c-0.019-1.315,0.336-3.879,3.399-3.906c0,0,1.942-0.153,3.535,2.397l0.009,0.003l1.651,2.449
		v0.001c1.027,1.491,2.085,3.717,3.199,7.283c0.993,3.83,4.177,8.991,8.757,3.606c0.695-1.835,0.64-3.936-2.715-7.21
		c-6.219-6.013,1.581-11.331,5.14-7.288c2.969,3.21,4.868,7.994,7.171,13.322c3.318,8.943,7.663,12.63,13.697,7.591
		c3.487-2.976,4.192-7.504-4.154-14.004c-5.144-3.748-9.096-8.146-12.244-12.984c-0.434-0.668-0.854-1.343-1.258-2.026
		c-2.178-4.102,1.625-10.024,7.144-5.714c0.613,0.528,1.174,1.161,1.697,1.858c4.011,5.321,5.843,14.45,11.924,10.442
		C117.634,115.07,118.873,111.996,112.421,106.991z" class="color c1"/>
    <path fill-rule="evenodd" clip-rule="evenodd" fill="#FFFFFF" d="M96.652,35.274c-3.629,4.019-11.401,2.92-17.358-2.459
		c-5.959-5.38-7.846-12.997-4.218-17.017c3.629-4.02,11.4-2.918,17.358,2.458C98.392,23.635,100.28,31.255,96.652,35.274z" class="color c2"/>
    <path fill-rule="evenodd" clip-rule="evenodd" fill="#FFFFFF" d="M109.096,44.627c0,3.829-3.103,6.933-6.932,6.933
		s-6.933-3.104-6.933-6.933c0-3.83,3.104-6.933,6.933-6.933S109.096,40.797,109.096,44.627z" class="color c2"/>
    <path fill="#FFFFFF" d="M19.285,79.726C9.425,59.298,12.123,36.2,24.373,17.958C6.943,33.863,1.469,59.921,12.527,82.83
		c10.406,21.557,33.796,32.808,56.786,29.243C47.812,110.42,28.541,98.904,19.285,79.726z" class="color c2"/>
  </g>
</svg>