<svg version="1.1" id="图层_1" x="0px" y="0px" width="123.327px" height="128.398px" viewBox="0 0 123.327 128.398" enable-background="new 0 0 123.327 128.398" xml:space="preserve" xmlns="http://www.w3.org/2000/svg" xmlns:xlink="http://www.w3.org/1999/xlink" xmlns:xml="http://www.w3.org/XML/1998/namespace">
  <path fill="#A40A00" d="M10.406,100.25l8.815-29.517c1.469-4.394,3.617-5.804,9.75-2.671c4.007,1.469,11.398,0.628,19.5-3.863
	c6.371-4.843,6.802-1.515,5.743,3.863c-0.663,5.209-1.66,7.425-4.942,9.884c-10.415,6.586-18.811,15.821-25.644,27.112
	C19.221,111.87,8.122,108.137,10.406,100.25z M28.169,49.898c-3.473,7.88-1.603,10.15,6.812,7.613
	c13.53-4.008,24.419-9.001,23.773-18.298c-1.335-11.486-6.599-21.038-12.822-14.959C40.206,30.785,34.3,39.166,28.169,49.898z
	 M66.367,60.983c-1.609,6.489-0.143,9.419,5.877,7.079c14.477-9.4,22.571-25.51,23.105-42.605
	c-0.384-13.32-14.157-15.359-30.051-13.891c-8.155,1.409-8.402,5.195-5.209,10.018C69.439,32,72.11,43.22,66.367,60.983z
	 M31.544,102.216c-4.394,6.576-8.809,10.746-13.258,10.855c-11.881-0.031-12.822-8.814-10.551-20.168
	c0.46-1.685,0.926-3.336,1.395-4.959c-2.223-1.798-4.225-3.609-5.946-5.409c-3.109,10.899-4.185,20.394-2.126,26.262
	c3.022,6.652,11.137,11.492,21.236,15.627c8.458,5.253,17.229,5.343,22.705,0c2.978-4.564,5.976-8.833,9.005-12.663
	C47.512,109.734,39.5,106.35,31.544,102.216z M85.867,2.751C64.265-5.136,49.869,5.09,36.851,18.779
	c-8.557,9.779-17.237,23.994-24.026,38.513c1.35,2.184,2.846,4.308,4.49,6.362C30.035,31.371,45.01,16.021,61.025,8.495
	c12.956-6.011,41.966-0.896,39.133,20.435c-3.041,28.5-24.441,46.078-36.329,47.414c-6.241,1.823-12.547,5.164-17.953,9.236
	c8.364,4.003,17.919,7.156,28.567,9.316c16.618-7.225,36.489-11.666,47.885-51.142C128.206,17.843,107.103,12.368,85.867,2.751z" class="color c1"/>
</svg>