<svg version="1.1" id="图层_1" x="0px" y="0px" width="158.041px" height="113.305px" viewBox="0 0 158.041 113.305" enable-background="new 0 0 158.041 113.305" xml:space="preserve" xmlns="http://www.w3.org/2000/svg" xmlns:xlink="http://www.w3.org/1999/xlink" xmlns:xml="http://www.w3.org/XML/1998/namespace">
  <g>
    <polygon fill="#F2F2F4" points="102.906,0.542 102.364,0 99.52,2.843 96.677,0 96.135,0.542 98.979,3.385 96,6.364 96.542,6.906 
		99.52,3.927 102.499,6.906 103.041,6.364 100.062,3.385 	" class="color c1"/>
    <polygon fill="#F2F2F4" points="155.062,62.385 157.906,59.542 157.364,59 154.52,61.843 151.677,59 151.135,59.542 
		153.979,62.385 151,65.364 151.542,65.906 154.52,62.927 157.499,65.906 158.041,65.364 	" class="color c1"/>
    <polygon fill="#F2F2F4" points="6.906,71.542 6.364,71 3.521,73.843 0.677,71 0.135,71.542 2.979,74.385 0,77.364 0.542,77.906 
		3.52,74.927 6.499,77.906 7.041,77.364 4.062,74.385 	" class="color c1"/>
    <polygon fill="#F2F2F4" points="55.906,106.942 55.364,106.4 52.52,109.243 49.677,106.4 49.135,106.942 51.979,109.785 
		49,112.764 49.542,113.305 52.52,110.327 55.499,113.305 56.041,112.764 53.062,109.785 	" class="color c1"/>
  </g>
</svg>