<svg version="1.1" id="图层_1" x="0px" y="0px" width="81.717px" height="176.194px" viewBox="0 0 81.717 176.194" enable-background="new 0 0 81.717 176.194" xml:space="preserve" xmlns="http://www.w3.org/2000/svg" xmlns:xlink="http://www.w3.org/1999/xlink" xmlns:xml="http://www.w3.org/XML/1998/namespace">
  <path fill="#231815" d="M67.868,162.468c0,7.583-11.863,13.727-26.499,13.727c-14.632,0-26.496-6.144-26.496-13.727
	c0-2.686,1.495-5.189,4.07-7.305c-1.224,1.36-1.901,2.854-1.901,4.421c0,6.293,10.895,11.391,24.327,11.391
	c13.439,0,24.33-5.098,24.33-11.391c0-1.567-0.677-3.061-1.9-4.419C66.373,157.28,67.868,159.783,67.868,162.468z M58.575,0
	c0,0,19.107,45.494,17.468,63.271c0,0-1.338,13.317-17.191,18.913l-1.513,0.496c-4.326,1.315-9.65,2.075-16.189,1.919
	c-6.539,0.156-11.86-0.604-16.189-1.919c0,0-0.265-0.026-1.513-0.496C7.589,76.588,6.259,63.271,6.259,63.271
	C4.612,45.494,23.142,0,23.142,0S-3.548,42.677,0.397,69.348c0,0,3.462,16.197,23.366,22.106l1.845,0.507
	c1.878,0.473,3.9,0.85,6.059,1.125h-0.082c0.504,0.013,8.147,0.862,5.38,40.535l-2.403,29.253c0,0,6.296,3.556,12.59,0
	l-2.403-29.253c-2.768-39.673,4.877-40.522,5.381-40.535h-0.081c2.157-0.275,4.179-0.652,6.058-1.125c0,0,0.518-0.09,1.848-0.507
	c19.904-5.909,23.366-22.106,23.366-22.106C85.265,42.677,58.575,0,58.575,0z M50.129,93.086h0.026
	C50.155,93.086,50.146,93.085,50.129,93.086z M31.559,93.086h0.026C31.568,93.085,31.559,93.086,31.559,93.086z" class="color c1"/>
</svg>