<svg version="1.1" id="图层_1" x="0px" y="0px" width="173.482px" height="101.573px" viewBox="0 0 173.482 101.573" enable-background="new 0 0 173.482 101.573" xml:space="preserve" xmlns="http://www.w3.org/2000/svg" xmlns:xlink="http://www.w3.org/1999/xlink" xmlns:xml="http://www.w3.org/XML/1998/namespace">
  <path fill="#26287F" d="M63.477,15.965l3.174,84.106c-3.174,0-7.935-1.502-12.695-3.004L34.912,18.969
	C31.738,6.953,55.542-2.058,63.477,15.965z M111.083,15.965l-4.762,85.608c4.762-1.502,9.521-1.502,14.283-3.004l19.043-79.601
	C142.822,6.953,117.431-0.556,111.083,15.965z M147.582,12.961l-15.869,82.604c7.936-1.502,12.695-4.505,12.695-4.505l28.564-82.605
	C177.732-2.058,147.582-5.062,147.582,12.961z M0,8.455l28.564,81.104c3.174,1.502,7.935,3.003,11.108,4.505L25.391,14.463
	C25.391-0.556,0-5.062,0,8.455z M72.998,18.969l7.934,82.604c4.761,0,9.521,0,12.695,0c4.761-24.03,6.347-55.57,7.935-81.103
	C103.148,8.455,77.758,2.448,72.998,18.969z" class="color c1"/>
</svg>