<svg version="1.1" id="图层_1" x="0px" y="0px" width="128.82px" height="78.585px" viewBox="0 0 128.82 78.585" enable-background="new 0 0 128.82 78.585" xml:space="preserve" xmlns="http://www.w3.org/2000/svg" xmlns:xlink="http://www.w3.org/1999/xlink" xmlns:xml="http://www.w3.org/XML/1998/namespace">
  <path fill="#98A407" d="M125.513,53.57c-1.5-1.535-2.498-3.369-2.998-5.311l-1.865-8.547l-0.002-0.002
	c-0.461-2.125-1.502-4.151-3.133-5.819c-0.369-0.379-0.762-0.73-1.166-1.049l-26.36-22.521c-0.403-0.337-1.01-0.321-1.395,0.056
	c-0.414,0.403-0.422,1.064-0.018,1.479l22.743,22.903c0.554,0.568,0.543,1.479-0.024,2.033c-0.566,0.555-1.478,0.543-2.031-0.024
	L86.331,14.049c-0.404-0.413-1.064-0.421-1.478-0.019c-0.414,0.405-0.422,1.064-0.018,1.479l22.559,23.084
	c0.556,0.566,0.545,1.478-0.021,2.032c-0.568,0.556-1.479,0.545-2.033-0.022L82.78,17.518c-0.401-0.414-1.063-0.421-1.477-0.019
	c-0.412,0.403-0.422,1.065-0.02,1.479l22.188,23.452c0.553,0.565,0.543,1.478-0.022,2.03c-0.568,0.555-1.479,0.545-2.033-0.022
	L79.04,21.172c-0.402-0.413-1.063-0.423-1.476-0.019c-0.387,0.377-0.414,0.979-0.088,1.393l21.906,26.875
	c0.313,0.406,0.648,0.808,1.021,1.188c1.63,1.668,3.636,2.756,5.746,3.266l0.002,0.002l8.505,2.063
	c1.926,0.546,3.741,1.58,5.241,3.115l5.259,6.076c1.401-2.756,2.629-5.612,3.663-8.562L125.513,53.57z" class="color c1"/>
  <path fill="#98A407" d="M32.515,58.166c2.665-0.568,4.582-0.906,7.51-1.943c5.998-2.122,10.972-6.795,15.144-12.165
	c7.042-9.064,9.769-20.112,8.504-30.678C63.199,9.492,61.235,5.79,57.9,3.2c-3.334-2.591-7.406-3.575-11.289-3.074
	c-10.55,1.389-20.577,6.766-27.616,15.829c-4.173,5.37-7.47,11.344-8.041,17.682c-0.281,3.092-0.135,5.034-0.025,7.758
	c0.303,7.614-2.382,16.177-8.733,23.371L0,67.294c2.221,4.019,4.82,7.797,7.753,11.291l4.277-6.178
	C17.427,64.473,25.059,59.753,32.515,58.166z" class="color c1"/>
</svg>