<svg version="1.1" id="图层_1" x="0px" y="0px" width="183.249px" height="152.564px" viewBox="0 0 183.249 152.564" enable-background="new 0 0 183.249 152.564" xml:space="preserve" xmlns="http://www.w3.org/2000/svg" xmlns:xlink="http://www.w3.org/1999/xlink" xmlns:xml="http://www.w3.org/XML/1998/namespace">
  <g>
    <path opacity="0.8" fill="#ED0000" d="M104.403,73.235c-14.24,17.174-41.992,17.659-61.984,1.084
		C22.425,57.742,17.76,30.381,32,13.205C46.24-3.97,73.992-4.455,93.985,12.123C113.978,28.699,118.643,56.059,104.403,73.235z" class="color c1"/>
    <path opacity="0.4" fill="#ED0000" d="M181.953,62.575c6.42,24.648-11.634,50.687-40.324,58.162
		c-28.693,7.475-57.157-6.448-63.578-31.094c-6.421-24.647,11.633-50.686,40.323-58.161
		C147.068,24.007,175.531,37.928,181.953,62.575z" class="color c1"/>
    <path opacity="0.6" fill="#ED0000" d="M105.974,49.753c20.398,17.921,20.024,51.698-0.836,75.445
		c-20.861,23.746-54.31,28.471-74.709,10.549c-20.4-17.92-20.025-51.698,0.835-75.443C52.127,36.556,85.573,31.833,105.974,49.753z" class="color c1"/>
    <path opacity="0.6" fill="#ED0000" d="M94.815,41.09c26.02-7.761,54.438,10.501,63.474,40.789
		c9.036,30.29-4.732,61.139-30.753,68.899c-26.02,7.762-54.438-10.5-63.473-40.788C55.028,79.7,68.795,48.853,94.815,41.09z" class="color c1"/>
    <path opacity="0.7" fill="#ED0000" d="M105.198,60.051c6.42,24.648-11.633,50.688-40.324,58.161
		c-28.693,7.477-57.157-6.444-63.578-31.093C-5.125,62.471,12.93,36.432,41.62,28.957C70.313,21.483,98.776,35.404,105.198,60.051z" class="color c1"/>
    <path opacity="0.3" fill="#ED0000" d="M164.364,22.05c13.198,21.785,3.34,51.898-22.017,67.262
		c-25.358,15.363-56.614,10.159-69.812-11.624c-13.199-21.784-3.34-51.897,22.016-67.26C119.91-4.937,151.166,0.268,164.364,22.05z" class="color c1"/>
  </g>
</svg>