<svg version="1.1" id="图层_1" x="0px" y="0px" width="49.231px" height="24.676px" viewBox="0 0 49.231 24.676" enable-background="new 0 0 49.231 24.676" xml:space="preserve" xmlns:xml="http://www.w3.org/XML/1998/namespace" xmlns="http://www.w3.org/2000/svg" xmlns:xlink="http://www.w3.org/1999/xlink">
  <g>
    <path fill="#E91E28" d="M47.751,0.287c-2.081,0.746-4.212,0.731-6.364,0.538c-2.849-0.256-5.688-0.472-8.521,0.216
		c-2.765,0.671-5.587,0.991-8.43,0.971C20.02,1.98,15.59,2.081,11.195,1.743c-3.56-0.274-7.079-1.1-10.611-1.715
		C0.058-0.064-0.045,0.06,0.015,0.549c0.242,1.944,0.461,3.89,0.689,5.836c0.287,2.45,1.068,4.716,2.542,6.712
		c3.947,5.344,9.059,9.028,16.274,11.069c0.974,0.113,2.746,0.453,4.528,0.501c7.23,0.19,13.036-2.809,17.731-8.161
		c2.613-2.979,4.454-6.428,6.012-10.044c0.687-1.594,1.338-3.198,1.438-4.962C49.281,0.583,48.603-0.019,47.751,0.287z" class="color c1"/>
    <path fill="#FCD2C5" d="M48.011,1.643c-0.401,1.156-0.763,2.212-1.132,3.265c-1.57,4.467-3.945,8.453-7.234,11.863
		c-3.768,3.906-8.3,6.262-13.801,6.47c-4.717,0.179-9.075-1.113-13.135-3.446c-3.788-2.176-6.969-4.999-9.135-8.856
		C2.791,9.544,2.288,8.051,2.037,6.468C1.733,4.543,1.392,2.625,1.078,0.76c0.417,0.109,0.959,0.231,1.488,0.391
		c6.051,1.821,12.26,2.35,18.546,2.348C25.04,3.496,28.94,3.312,32.79,2.474c2.975-0.648,5.967-0.442,8.961-0.149
		c0.828,0.082,1.664,0.109,2.497,0.107C45.52,2.429,46.78,2.318,48.011,1.643z" class="color c2"/>
    <path fill="#E91E28" d="M42.012,10.211c-0.303,0.511-0.678,1.034-1.144,1.387c-2.454,1.866-4.904,3.745-7.451,5.479
		c-0.937,0.638-2.105,1.036-3.225,1.288c-2.176,0.489-3.652-0.606-3.907-2.815c-0.123-1.07-0.067-2.162-0.075-3.243
		c-0.01-1.394-0.003-2.787-0.003-4.174c-0.256-0.02-0.421-0.033-0.587-0.047c0.016-0.176-0.01-0.367,0.054-0.523
		c1.002-2.472,2.931-3.781,5.797-3.714c3.189,0.074,6.201,0.982,9.086,2.314c0.262,0.121,0.504,0.295,0.735,0.472
		C42.554,7.604,42.825,8.841,42.012,10.211z M20.716,15.2c0.259-1.308,0.492-2.623,0.679-3.943c0.146-1.028,0.297-2.069,0.28-3.102
		c-0.019-1.152-0.648-1.977-1.818-2.247c-0.748-0.173-1.515-0.334-2.279-0.367c-3.394-0.147-6.789-0.246-10.184-0.358
		C7.264,5.178,7.133,5.231,7.15,5.227c0.076,0.392,0.208,0.724,0.187,1.048c-0.074,1.297,0.183,2.51,0.95,3.557
		c0.626,0.854,1.273,1.721,2.049,2.432c1.781,1.633,3.618,3.208,5.49,4.735c0.597,0.487,1.348,0.841,2.085,1.09
		c1.009,0.34,1.828-0.064,2.255-1.04C20.423,16.464,20.591,15.829,20.716,15.2z" class="color c1"/>
    <path fill="#FFFFFF" d="M29.353,8.359c-0.105,0.244-0.21,0.489-0.315,0.734c-0.143-0.087-0.285-0.175-0.428-0.261
		c0.166-0.21,0.332-0.42,0.498-0.63C29.189,8.254,29.271,8.307,29.353,8.359z M12.162,8.409c-0.267,0.292-0.407,0.504-0.602,0.636
		c-0.126,0.086-0.355,0.115-0.491,0.059c-0.107-0.044-0.217-0.276-0.192-0.395c0.027-0.125,0.203-0.285,0.335-0.305
		C11.479,8.36,11.759,8.401,12.162,8.409z M18.412,15.293c-0.291,0.115-0.477,0.261-0.588,0.217
		c-0.152-0.06-0.246-0.266-0.366-0.408c0.135-0.085,0.29-0.258,0.4-0.233C18.023,14.906,18.154,15.083,18.412,15.293z M36.145,8.318
		l0.402,0.105l-0.105,0.402L36.04,8.719L36.145,8.318z" class="color c3"/>
  </g>
</svg>