<svg version="1.1" id="图层_1" x="0px" y="0px" width="145.579px" height="107.262px" viewBox="0 0 145.579 107.262" enable-background="new 0 0 145.579 107.262" xml:space="preserve" xmlns="http://www.w3.org/2000/svg" xmlns:xlink="http://www.w3.org/1999/xlink" xmlns:xml="http://www.w3.org/XML/1998/namespace">
  <path fill="#F3B50E" d="M30.333,19.688C24.782,12.552,0,0,0,0h145.579c0,0-55.607,18.975-55.453,32.087s4.898,15.82,3.238,20.523
	s-14.486,10.261-13.203-4.703c1.283-14.965,4.275-18.222-2.139-22.792c-6.412-4.572-15.576,8.255-11.209,27.923
	c4.369,19.667,8.217,49.169,0.094,53.445c-8.125,4.275-14.185-8.551-9.016-50.879c5.166-42.329-9.844-42.866-11.991-42.457
	c-3.392,0.646-9.739,9.513-5.812,18.493c3.927,8.979-8.501,22.604-12.347,9.854C26.156,36.237,36.431,27.528,30.333,19.688z" class="color c1"/>
  <path fill="#FFFFFF" d="M68.573,91.895c0,0,0.309,0.799,0.545,2.048c0.125,0.623,0.223,1.358,0.289,2.151
	c0.057,0.793,0.068,1.645,0.021,2.498c-0.066,0.852-0.164,1.708-0.385,2.492c-0.076,0.396-0.227,0.768-0.355,1.117
	c-0.109,0.354-0.305,0.664-0.453,0.952c-0.135,0.296-0.35,0.524-0.506,0.735c-0.15,0.219-0.316,0.379-0.473,0.494
	c-0.291,0.243-0.459,0.365-0.459,0.365s0.109-0.182,0.301-0.498c0.105-0.145,0.205-0.336,0.295-0.572
	c0.092-0.233,0.225-0.47,0.297-0.77c0.08-0.295,0.199-0.594,0.258-0.939c0.07-0.34,0.154-0.691,0.201-1.07
	c0.068-0.373,0.105-0.763,0.146-1.161c0.053-0.396,0.074-0.803,0.096-1.211c0.068-0.813,0.074-1.635,0.104-2.407
	c0.012-0.777,0.021-1.502,0.031-2.123C68.538,92.746,68.573,91.895,68.573,91.895z M91.345,47.211
	c0.051,0.401,0.109,0.868,0.174,1.369c0.047,0.499,0.119,1.028,0.139,1.556c0.02,0.264,0.041,0.527,0.033,0.785
	c0.002,0.259,0.008,0.512-0.016,0.756c-0.004,0.247-0.041,0.478-0.068,0.701c-0.018,0.227-0.09,0.426-0.127,0.621
	c-0.035,0.197-0.125,0.357-0.18,0.513c-0.053,0.157-0.119,0.287-0.195,0.387c-0.131,0.215-0.205,0.338-0.205,0.338
	s0.129-0.089,0.352-0.263c0.121-0.083,0.246-0.196,0.352-0.346c0.111-0.145,0.271-0.305,0.355-0.504
	c0.098-0.195,0.234-0.405,0.291-0.64c0.076-0.233,0.17-0.48,0.197-0.74c0.111-0.518,0.113-1.075,0.088-1.627
	c-0.039-0.553-0.129-1.1-0.252-1.607c-0.129-0.507-0.281-0.974-0.445-1.367c-0.314-0.79-0.65-1.286-0.65-1.286
	S91.237,46.407,91.345,47.211z M29.762,35.779c0,0-0.334,0.495-0.649,1.286c-0.166,0.394-0.316,0.861-0.445,1.367
	c-0.124,0.508-0.213,1.055-0.253,1.607c-0.023,0.553-0.022,1.11,0.089,1.628c0.028,0.26,0.119,0.507,0.196,0.74
	c0.058,0.234,0.193,0.446,0.291,0.64c0.085,0.198,0.245,0.358,0.356,0.503c0.105,0.149,0.231,0.263,0.351,0.346
	c0.225,0.174,0.352,0.263,0.352,0.263s-0.073-0.123-0.205-0.338c-0.075-0.099-0.141-0.229-0.194-0.386
	c-0.055-0.156-0.145-0.316-0.179-0.514c-0.039-0.194-0.11-0.394-0.128-0.62c-0.027-0.223-0.064-0.454-0.068-0.701
	c-0.023-0.244-0.018-0.497-0.015-0.756c-0.009-0.257,0.014-0.522,0.031-0.785c0.021-0.528,0.093-1.057,0.14-1.556
	c0.063-0.501,0.123-0.968,0.173-1.369C29.712,36.33,29.762,35.779,29.762,35.779z" class="color c2"/>
</svg>