<svg version="1.1" id="图层_1" x="0px" y="0px" width="200px" height="121.977px" viewBox="0 0 200 121.977" enable-background="new 0 0 200 121.977" xml:space="preserve" xmlns="http://www.w3.org/2000/svg" xmlns:xlink="http://www.w3.org/1999/xlink" xmlns:xml="http://www.w3.org/XML/1998/namespace">
  <path fill="#F0891A" d="M176.91,21.031C157.933,6.784,197.78,36.694,176.91,21.031L176.91,21.031z M199.849,53.653
	c-0.348,2.276-1.334,4.491-3.001,6.107c-0.377,0.365-0.784,0.694-1.223,0.979c-0.37,0.239-0.348,0.22-0.314,0.646
	c0.058,0.722,0.106,1.445,0.143,2.169c0.082,1.699,0.929,19.637-9.635,30.259c-6.893,6.931-36.219,28.165-84.508,28.163
	c-59.706,0.001-91.206-29.035-94.244-47.838c-0.583-3.607-0.952-11.079-0.89-12.138c0.012-0.251,0.031-0.499,0.051-0.75
	c0.031-0.432-0.176-0.331-0.538-0.482c-0.558-0.234-1.073-0.558-1.532-0.943c-2.916-2.473-4.202-7.216-4.156-10.903
	c0.051-4.038,1.677-7.874,4.313-10.903c1.643-1.885,3.628-3.453,5.771-4.733c2.296-1.38,4.03-3.076,5.825-5.062
	c1.139-1.261,2.272-2.529,3.442-3.761c2.545-2.665,5.283-5.143,8.258-7.316c9.579-7.001,21.127-10.826,32.641-13.202
	c9.42-1.942,19.019-2.95,28.617-3.469c10.469-0.569,21.047-0.825,31.48,0.381c10.03,1.158,19.972,3.357,29.541,6.586
	c9.553,3.223,18.929,7.509,27.021,13.588c5.968,4.479,11.776,9.408,16.444,15.272c2.699,3.392,5.119,7.228,6.16,11.482
	C199.985,49.699,200.147,51.699,199.849,53.653z M187.39,83.449C186.284,85.483,185.398,87.115,187.39,83.449L187.39,83.449z
	 M187.788,82.713c3.51-6.468,4.623-13.523,4.073-20.791c-1.814,0.268-3.649,0.388-5.454,0.712c-0.384,0.066-2.438,6.298-2.566,6.586
	c-1.687,3.742-5.291,5.524-9.062,6.622c-4.204,1.223-8.597,1.59-12.814,2.74c-1.982,0.541-3.439,1.209-4.711,2.866
	c-0.767,1.003-1.464,2.06-2.217,3.075c-5.254,7.068-13.41,10.658-21.903,12.262c-5.995,1.132-12.042,0.825-17.986-0.461
	c-5.912-1.282-11.755-3.415-17.885-3.246c-5.201,0.145-10.356,1.425-15.434,2.455c-2.852,0.581-5.71,0.92-8.622,0.643
	c-2.598-0.251-5.353-0.725-7.592-2.15c-1.558-0.991-2.749-2.409-3.564-4.057c-0.787-1.58-1.117-3.334-1.872-4.921
	c-0.932-1.955-3.382-1.565-5.172-1.284c-3.057,0.482-6.036,1.414-9.027,2.188c-5.065,1.308-12.027,3.228-16.681-0.21
	c-3.623-2.676-4.668-7.667-5.531-11.815c-0.357-1.721-1.127-8.456-1.675-9.988c-0.197-0.558-0.35-1.03-0.919-1.257
	c-1.216-0.48-2.473-0.861-3.736-1.191c-1.257-0.331-6.15-0.84-6.793-0.72c-1.165,0.218-1.04,4.036-1.011,4.577
	c0.34,6.537,3.616,12.316,7.692,17.281c6.583,8.021,14.766,14.669,24.231,18.946c9.442,4.268,19.67,6.642,29.874,8.211
	c10.729,1.653,21.677,2.602,32.532,2.765c20.024,0.307,40.59-2.596,58.952-10.918c5.891-2.673,11.586-5.91,16.645-9.965
	c3.108-2.491,6.288-5.39,8.216-8.934c0.003-0.005,0.005-0.009,0.008-0.014C190.047,78.552,188.977,80.523,187.788,82.713z
	 M75.668,93.315c0-0.019-0.001-0.03-0.001-0.047c-0.004,0-0.009,0-0.014,0C75.659,93.285,75.662,93.297,75.668,93.315z
	 M127.844,94.47c-0.001-0.015-0.006-0.04-0.009-0.062c-0.006,0-0.012,0-0.017,0.001C127.827,94.431,127.834,94.447,127.844,94.47z
	 M196.304,53.723C196.247,54.059,196.228,54.175,196.304,53.723L196.304,53.723z M196.382,53.264
	c0.461-2.714-0.31-5.515-1.428-7.968c-3.378-7.435-9.966-13.361-16.183-18.401c-8.055-6.53-16.989-11.354-26.711-14.927
	c-17.012-6.256-35.133-9.056-53.232-8.359c-5.401,0.207-10.807,0.336-16.191,0.782C76.594,4.893,70.616,5.684,64.639,6.68
	c-12.667,2.108-25.585,6.265-35.934,14.045c-3.399,2.554-6.381,5.584-9.222,8.734c-1.166,1.286-2.312,2.601-3.559,3.812
	c-1.677,1.629-3.636,2.62-5.524,3.961c-3.507,2.487-6.276,6.122-6.798,10.481c-0.212,1.762-0.048,3.559,0.478,5.251
	c0.28,0.9,0.66,1.76,1.132,2.574c1.852,3.195,4.685,1.916,5.237,1.373c1.423-1.39,1.362-3.93,1.606-5.782
	c0.448,2.159,1.095,4.397,0.701,6.622c3.25,0.332,6.779,0.596,9.853,1.769c3.175,1.213,3.64,6.183,4.212,9.007
	c0.697,3.43,1.232,7.459,3.454,10.303c1.966,2.517,5.36,2.475,8.265,2.12c3.242-0.405,6.4-1.323,9.556-2.154
	c3.241-0.849,6.682-1.922,10.068-1.664c2.415,0.092,4.306,1.524,5.271,3.687c0.774,1.734,1.087,3.669,2.099,5.302
	c1.242,2.017,3.411,2.577,5.587,3.245c3.608,1.108,11.137-0.471,12.387-0.729c3.348-0.693,6.693-1.308,10.088-1.729
	c4.358-0.536,8.575-0.213,12.853,0.732c3.278,0.725,6.536,1.521,9.782,2.361c5.374,1.393,17.931,0.042,19.388-0.347
	c4.525-1.206,9.056-2.957,12.693-5.98c2.507-2.081,4.183-4.721,6.135-7.282c1.667-2.184,3.618-3.313,6.24-4.064
	c2.909-0.835,5.925-1.26,8.89-1.841c2.729-0.53,5.522-1.194,8.014-2.484c5.266-2.727,5.249-7.987,4.827-8.474
	c-3.188-3.68-3.125-6.264-3.125-6.264s2.219,4.24,5.25,4.865c3.885,0.801,6.489,0.659,8.627-0.023
	C195.04,57.51,196.09,54.999,196.382,53.264z M196.597,51.996c-0.03,0.178-0.082,0.482-0.137,0.805
	C196.528,52.402,196.572,52.141,196.597,51.996z M122.551,50.898c-4.776,1.428-9.671,2.532-14.636,3.045
	c-5.266,0.537-10.563,0.212-15.791-0.534c-7.234-1.029-14.343-2.924-21.112-5.681c-4.576-1.86-9.147-3.723-13.721-5.582
	c1.52,0.479,6.496,0.876,10.001,0.536c0.789-0.078,1.235-0.37,1.455-0.631c0.031-0.033,0.058-0.069,0.085-0.11
	c0.058-0.087,0.086-0.145,0.086-0.145h-0.002c0.19-0.435,0.12-1.035,0.137-1.547c0.037-1.112,0.051-2.229,0.193-3.331
	c0.22-1.744,0.823-3.398,2.77-3.618c2.174-0.244,4.441,0.243,6.603,0.453c1.645,0.159,3.782,0.594,5.312-0.231
	c2.128-1.148,3.592-3.057,5.99-3.783c2.798-0.844,5.599-0.055,8.206,1.033c1.453,0.605,2.888,1.306,4.422,1.677
	c1.428,0.345,2.917,0.207,4.371,0.138c2.888-0.136,5.766-0.48,8.658-0.565c2.767-0.079,5.521,0.203,8.144,1.127
	c2.398,0.845,4.778,1.884,5.787,4.371c0.396,0.978,0.507,2.14,1.06,3.037c0.395,0.644,1.664,0.763,2.332,0.979
	c1.529,0.492,3.068,0.979,4.588,1.518c0.853,0.287,1.701,0.576,2.56,0.858C134.404,46.719,128.596,49.088,122.551,50.898z
	 M127.074,47.053c-15.68-5.39-33.488-4.058-49.096,0.829c7.454,2.374,15.245,3.805,23.069,4.074
	C109.898,52.268,118.795,50.005,127.074,47.053z M135.111,14.063c-1.713,2.511-4.689,3.746-5.895,6.771
	C132.992,20.914,137.604,16.886,135.111,14.063z M98.188,69.474c1.784,3.328,7.558,5.367,8.793,1.81
	C103.952,71.025,101.415,69.039,98.188,69.474z M57.291,19.148c-0.645-1.206-12.418,8.804-11.386,10.236
	C46.938,30.817,57.937,20.354,57.291,19.148z M158.614,64.492c4.33-2.865,11.389-8.722,9.262-10.038S158.979,60.506,158.614,64.492z
	 M148.56,30.862c-0.58,0.518,7.504,9.809,8.399,8.538S149.14,30.344,148.56,30.862z M17.093,41.12
	c3.105,1.545,7.813,1.251,12.244,1.278C27.054,40.277,20.675,39.857,17.093,41.12z M167.787,38.017
	c3.319-0.345,3.313-4.082,5.42-5.659C170.721,31.58,168.248,35.005,167.787,38.017z M52.689,63.052c-0.266,3.326,3.41,4,4.578,6.359
	C58.485,67.108,55.566,64.053,52.689,63.052z M36.25,54.513c1.818,2.424,11.288,3.979,13.242,0.696
	C46.593,54.454,40.471,55.312,36.25,54.513z M107.604,9.251c-2.19-0.57-8.75-2.489-10-0.524S106.128,11.729,107.604,9.251z
	 M132.518,57.399c0.024,0.855,9.489,1.75,12.174-0.918C142.104,55.342,132.493,56.543,132.518,57.399z M120.838,74.79
	c0.964,2.664,5.678,2.229,9.212,1.917c2.34-0.205,6.569-0.057,6.537-2.395C132.613,71.584,125.606,74.794,120.838,74.79z
	 M88.797,22.463c2.34-0.205,6.569-0.057,6.537-2.395c-3.974-2.728-10.98,0.482-15.749,0.478
	C80.549,23.21,85.263,22.776,88.797,22.463z M74.332,72.996c-0.936,1.438-2.926,3.801-1.568,4.835
	c3.358-1.055,4.67-6.527,6.821-9.266C77.619,67.918,75.746,70.824,74.332,72.996z" class="color c1"/>
</svg>