<svg version="1.1" id="图层_1" x="0px" y="0px" width="180.6px" height="198px" viewBox="0 0 180.6 198" enable-background="new 0 0 180.6 198" xml:space="preserve" xmlns="http://www.w3.org/2000/svg" xmlns:xlink="http://www.w3.org/1999/xlink" xmlns:xml="http://www.w3.org/XML/1998/namespace">
  <path fill="#2F211E" d="M102,42.9c0.5-1.7,1.1-3.3,1.4-4.9c0.5-2.8,2.1-4.7,4.2-6.1c9.6-6.5,19.3-13,29.1-19.2
	c6.5-4.1,13.3-7.7,20-11.5c1.4-0.8,2.9-1.8,4.5-0.7c0.7,0.5,1.4,1.4,1.5,2.2s-0.3,2.1-0.9,2.5c-5.5,3.6-11,7.1-16.5,10.6
	c-6.5,4.2-13.1,8.2-19.4,12.6c-4,2.8-7.8,6-11.6,9.1c-1.6,1.3-2.6,3-2.6,5.3c0,0.5-0.1,0.9-0.2,1.8c2,0.4,3.9,1,6,1.1
	c3.8,0.3,7.7,0.4,11.5,0.4c4.1,0,8,1.2,11.7,3.1c6.2,3,12,6.9,17.8,10.7c3.6,2.3,7.4,4.3,11.1,6.4c2.4,1.4,4.4,3.1,6,5.5
	c2,2.9,3.1,6,3.7,9.4c0.5,2.4,1.3,4.9,1.4,7.3c0.2,5.2,0.1,10.3-0.1,15.5c-0.1,2.5-0.4,4.9-0.8,7.4c-0.8,4.6-1.6,9.2-2.6,13.8
	c-0.7,3-1.5,6-2.5,9c-2.1,6.3-4.5,12.5-7.6,18.3c-2.9,5.4-6.2,10.4-10,15.1c-5.4,6.6-11.6,12.2-18.5,16.8
	c-13.3,8.8-27.9,13.2-43.6,13.8c-9.3,0.4-18.4-0.8-27.5-3.2c-7.6-2.1-15-5-21.9-9.1c-4.1-2.4-8-5.3-11.9-8.2
	c-4.2-3.1-8.1-6.8-11.4-11c-2.3-3-4.7-5.9-6.8-9c-2-2.9-3.7-6.1-5.4-9.2c-2.4-4.4-4-9.1-5.6-13.9c-3.2-9.9-4.3-20-4.2-30.3
	c0.1-5.4,0.8-10.7,1.7-16c0.7-4.5,2.2-8.7,4.4-12.6c2.8-5.1,6.3-9.6,10.6-13.3c4.5-3.7,8.9-7.4,13.6-10.9c5.1-3.8,10.4-7,16.6-8.5
	c4-0.9,7.9-0.7,11.6,1.1c4.1,1.9,8.1,1.5,12.3,0.7c4.9-0.9,9.8-1.9,14.8-2.2c4.8-0.3,9.6,0.3,14.4,0.5
	C100.6,42.9,101.4,42.9,102,42.9z" class="color c1"/>
  <path fill="#2F211E" d="M151.3,93c0.4-3,0.9-5.9,1.2-8.8c0.1-0.6-0.3-1.4-0.7-1.8c-0.8-0.7-1.8-1.2-2.6-1.9c-4.8-3.6-9.8-6.6-15.2-9
	c-8.3-3.7-16.9-5.1-25.7-3.6c-1.3,0.2-1.8,0.8-1.9,2.1c-0.7,4.7-1.5,9.4-2.2,14c-0.5,3.5-1,7.1-1.6,10.6c-0.4,2.5-0.8,5-1.4,7.4
	c-0.8,3.4-2.9,4.5-5.8,3.1c-1-0.5-1.4-1.2-1.3-2.3c0.6-3.8,1.2-7.5,1.7-11.3c0.6-4.1,1.2-8.3,1.8-12.4c0-0.3,0.1-0.6,0.1-0.9
	c0.5-3.9,0.9-7.8,1.4-11.6c0.1-0.9-0.3-1.2-1.1-1.2c-2.4-0.1-4.7-0.4-7.1-0.5c-4.7-0.2-9.5-0.1-13.9,1.7c-2.4,1-4.7,2.5-7.1,3.6
	c-2.8,1.4-5.6,2.5-8.7,1.3c-1.7-0.6-3.3-1.4-5-2.2c-2.8-1.2-5.6-1.8-8.6-0.7c-5.6,2.1-10.1,5.9-14,10.5c-2.4,2.8-4.4,5.9-5.6,9.7
	c-0.8,2.8-0.8,5.4,0.5,7.8c1.6,3,4.1,5.1,6.7,7c3.7,2.6,7.7,4.6,11.9,5.8c5.9,1.8,11.8,2.4,17.8,0.5c3.7-1.2,7.4-2.4,11.2-3.4
	c4.9-1.3,9.9-1.1,14.4,1.9c4,2.7,7.7,5.8,11.6,8.6c0.9,0.7,1.6,2,3.1,1.5c5.1-1.6,10.2-3,15.2-4.7c2.7-0.9,5.1-2.5,6.3-5.4
	c1-2.2,1.7-4.6,2.5-7c0.6-1.8,0.9-3.7,1.7-5.4c0.5-1.1,1.5-2.2,2.5-2.9c2.7-2,5.9-2,9-1.7C145.4,92,148.3,92.5,151.3,93z" class="color c1"/>
  <path fill="#663F33" d="M101.1,47.5c-0.3,2.5-0.6,4.6-0.9,6.9c-0.1,0.3-0.8,0.7-1.2,0.7c-2.1-0.2-4.2-0.3-6.3-0.7
	c-9.3-1.8-17.9,0.1-25.8,5.6c-2.8,2-5.6,1-8.4-0.1c-2.2-0.9-4.4-2-6.6-2.8c-3.5-1.3-6.5,0.1-9.6,1.7c-6,3.1-11.4,7.2-16,12.4
	c-2.6,2.9-4.8,6.2-6.4,9.9c-2.4,5.4-3.1,10.8-0.8,16.4c1.2,3.2,3.2,6.1,5.8,8.1c3.2,2.4,6.3,5,9.7,7c9,5.6,18.5,7.3,28.5,4.7
	c5-1.3,9.9-2.8,15-3.6c5.2-0.8,10.1,1,14.2,4.7c1.5,1.3,2.8,3.2,4.1,5.1c0.9,1.3,2,2.2,3.5,2.5c3.1,0.8,6,0.4,8.9-0.5
	c6.2-2,12.3-3.9,18.4-6.1c4.4-1.5,6.9-5,8.1-9.8c0.9-3.6,2.6-6.8,4-10.3c0.5-1.2,1.4-1,2.2-0.9c2.6,0.3,5.2,0.8,7.8,1
	c1.8,0.1,3.8-0.1,5.7-0.3c1.9-0.2,3.1-2,4-3.5c2.6-4.5,3.9-9.4,3.1-15c-0.4-2.7-2.1-4.3-3.9-5.7c-3.3-2.7-6.6-5.2-10.2-7.4
	c-5.4-3.4-10.9-7-16.9-8.7c-3.9-1.1-7.9-1-11.9-1.3c-1.9-0.1-3.9,0.1-5.7,0c-1.5-0.1-3.1-0.7-4.6-1.1c0.4-2.2,0.7-4.1,1-6.2
	c2.4,0,4.9-0.1,7.3,0.1c5.3,0.4,10.6,0.8,15.8,1.5c3.6,0.4,6.7,2.2,9.8,4.2c4,2.7,8,5.2,12,7.8c4.5,3,9,6.1,13.3,9.4
	c1.1,0.8,2.2,2.4,2.7,3.7c1.1,3.1,2.3,6.3,2.6,9.5c0.4,4.3,0.1,8.7-0.1,13.1c-0.1,2.8-0.4,5.6-0.8,8.3c-0.7,5-1.5,9.9-2.5,14.8
	c-0.6,3.2-1.4,6.4-2.5,9.4c-1.9,5.4-3.9,10.8-6.4,15.9c-2.3,4.7-5.2,9.2-8.2,13.3c-6.7,8.9-14.9,15.9-24.4,21
	c-9.7,5.2-19.9,8.1-30.7,9c-10.9,0.8-21.6-0.4-32.2-3.7c-6.2-2-12.2-4.6-17.9-8c-3.5-2.1-6.6-4.5-9.9-6.9
	c-4.7-3.5-8.7-7.9-12.5-12.4c-0.9-1-1.8-2.3-2.6-3.5c-2.3-3.8-4.6-7.6-6.7-11.6c-3-5.1-4.7-10.5-6.3-16.1c-2.2-7.4-3-15.1-3.2-22.7
	c-0.1-4.3,0-8.7,0.5-12.9c0.4-3.8,1.1-7.5,2-11.2c1-3.8,3.1-7.2,5.6-10c3.8-4,7.6-7.9,11.7-11.6c5.6-5,11.4-9.5,18.1-12.4
	c4.2-1.8,8.1-1.7,11.9,1.1c3.4,2.5,6.8,2.4,10.5,1.3c9.2-2.7,18.5-3.7,28-3.3C96.8,47.6,98.7,47.5,101.1,47.5z" class="color c2"/>
  <path fill="#9BE2FB" d="M125.3,111c-1.3,1.5-3,2.4-4.8,3c-5,1.6-10.1,3.1-15.2,4.7c-1.5,0.5-2.2-0.9-3.1-1.5
	c-3.9-2.8-7.6-5.9-11.6-8.6c-4.5-3-9.4-3.2-14.4-1.9c-3.8,1-7.5,2.2-11.2,3.4c-5.9,1.8-11.9,1.2-17.8-0.5c-4.2-1.3-8.2-3.2-11.9-5.8
	c-2.6-1.8-5.1-4-6.7-7c-1.3-2.4-1.4-5-0.5-7.8c1.1-3.8,3.2-6.9,5.6-9.7c3.9-4.7,8.4-8.4,14-10.5c2.9-1.1,5.8-0.6,8.6,0.7
	c1.7,0.7,3.3,1.5,5,2.2c3.1,1.2,6,0.1,8.7-1.3c2.4-1.2,4.6-2.7,7.1-3.6C81.6,65,86.3,65,91,65.1c2.4,0.1,4.7,0.4,7.1,0.5
	c0.8,0,1.2,0.3,1.1,1.2c-0.4,3.9-0.9,7.8-1.4,11.6c0,0.3-0.1,0.6-0.1,0.9c-0.6,4.1-1.2,8.3-1.8,12.4c-0.6,3.8-1.2,7.5-1.7,11.3
	c-0.2,1.1,0.2,1.8,1.3,2.3c2.9,1.3,5,0.3,5.8-3.1c0.6-2.5,1-4.9,1.4-7.4c0.6-3.5,1-7.1,1.6-10.6c0.7-4.7,1.5-9.4,2.2-14
	c0.2-1.3,0.7-1.9,1.9-2.1c8.9-1.5,17.4-0.1,25.7,3.6c5.4,2.4,10.4,5.4,15.2,9c0.9,0.7,1.9,1.1,2.6,1.9c0.4,0.4,0.8,1.2,0.7,1.8
	c-0.3,2.9-0.8,5.8-1.2,8.8c-3-0.4-5.9-1-8.9-1.2c-3.1-0.3-6.3-0.3-9,1.7c-1,0.7-1.9,1.7-2.5,2.9c-0.8,1.7-1.1,3.6-1.7,5.4
	c-0.8,2.3-1.5,4.7-2.5,7C126.4,109.6,125.9,110.3,125.3,111" class="color c3"/>
  <path fill="#FFFFFF" d="M104.7,121.8c-2,0-3.3-1.3-3.9-1.9c-0.1-0.1-0.2-0.2-0.4-0.3c-1.7-1.2-3.3-2.4-4.9-3.7
	c-2.1-1.6-4.4-3.4-6.6-4.8c-3.4-2.3-7.3-2.8-11.9-1.5c-2.7,0.7-5.5,1.6-8.2,2.4c-0.9,0.3-1.9,0.6-2.8,0.9
	c-5.9,1.8-12.3,1.7-19.5-0.5c-4.6-1.4-8.9-3.5-12.8-6.3c-2.3-1.6-5.5-4.1-7.6-8c-1.6-3-1.9-6.3-0.8-10.1c1.4-4.7,4-8.3,6.1-10.8
	c4.6-5.5,9.6-9.3,15.2-11.4c4.4-1.7,8.3-0.4,10.8,0.7c0.5,0.2,0.9,0.4,1.4,0.6c1.2,0.5,2.3,1,3.4,1.5c1.9,0.7,3.8,0.1,6.3-1.2
	c0.8-0.4,1.7-0.9,2.5-1.3c1.5-0.8,3.1-1.7,4.8-2.4c5.1-2,10.3-2,15.2-1.9c1.4,0,2.8,0.2,4.1,0.3c1,0.1,2,0.2,3,0.2
	c1.3,0.1,2.3,0.5,3.1,1.4c0.5,0.6,1,1.6,0.9,3.1c-0.3,2.8-0.7,5.6-1,8.3l-0.4,3.6c0,0.2-0.1,0.5-0.1,0.7l-0.5,3.3
	c-0.4,3.1-0.9,6.1-1.3,9.2c-0.3,2-0.6,3.9-0.9,5.9c-0.2,1.6-0.5,3.2-0.7,4.8c0.4,0.1,0.5,0.1,0.6,0.1c0,0,0.3-0.3,0.5-1.3
	c0.5-2.4,1-4.9,1.3-7.2c0.3-1.9,0.6-3.9,0.9-5.9c0.2-1.6,0.4-3.1,0.7-4.7c0.3-1.8,0.6-3.7,0.9-5.5c0.4-2.8,0.9-5.7,1.3-8.5
	c0.5-3.3,2.7-4.4,4.4-4.7c9.1-1.5,18.3-0.3,27.5,3.8c5.5,2.4,10.8,5.6,15.8,9.4c0.3,0.2,0.6,0.4,0.9,0.6c0.6,0.4,1.3,0.8,2,1.5
	c0.9,0.9,1.8,2.6,1.7,4.3c-0.2,2.2-0.6,4.5-0.9,6.6c-0.1,0.8-0.2,1.5-0.3,2.3l-0.4,3l-3-0.4c-0.9-0.1-1.9-0.3-2.8-0.4
	c-2.1-0.3-4-0.6-6-0.8c-3-0.3-5.2-0.2-7,1.1c-0.7,0.5-1.2,1.1-1.5,1.7c-0.4,0.8-0.6,1.8-0.9,2.9c-0.2,0.7-0.4,1.5-0.6,2.2l-0.4,1.3
	c-0.6,1.9-1.3,3.9-2.1,5.9c-0.5,1.1-1.2,2.2-2,3.1l0,0c-1.5,1.8-3.6,3.1-6.2,3.9c-3.1,1-6.2,1.9-9.2,2.8c-2,0.6-4,1.2-6,1.8
	C105.7,121.7,105.2,121.8,104.7,121.8z M95.7,108.5c1.2,0.9,2.4,1.8,3.6,2.7c1.5,1.2,3.1,2.4,4.7,3.5c0.4,0.3,0.8,0.6,1,0.9l0,0
	c1.8-0.6,3.7-1.1,5.5-1.7c3-0.9,6.1-1.8,9.1-2.8c1.5-0.5,2.7-1.2,3.5-2.2c0.4-0.5,0.7-1,1-1.6c0.7-1.7,1.3-3.5,1.9-5.3l0.4-1.4
	c0.2-0.6,0.4-1.2,0.5-1.9c0.3-1.3,0.7-2.5,1.3-3.8c0.7-1.5,1.9-2.9,3.4-4.1c3.5-2.6,7.4-2.6,11.1-2.3c2.1,0.2,4.1,0.5,6.1,0.8
	c0.3-1.8,0.5-3.5,0.7-5.2c-0.2-0.2-0.5-0.4-0.8-0.5c-0.4-0.3-0.9-0.5-1.3-0.9c-4.6-3.5-9.5-6.4-14.6-8.7c-8-3.5-15.7-4.7-23.5-3.4
	c-0.4,2.8-0.8,5.5-1.3,8.3c-0.3,1.8-0.6,3.7-0.9,5.5c-0.2,1.5-0.5,3.1-0.7,4.6c-0.3,2-0.6,4-0.9,5.9c-0.4,2.5-0.8,5.1-1.4,7.6
	c-0.7,3.3-2.4,4.8-3.7,5.4C99.4,108.7,97.8,109.1,95.7,108.5z M50.9,71c-0.8,0-1.5,0.1-2.2,0.4c-4.6,1.8-8.8,4.9-12.8,9.7
	c-2.6,3.1-4.1,5.8-5,8.6c-0.6,2.2-0.6,4,0.3,5.5c1.2,2.1,3,4,5.8,6c3.4,2.4,7.1,4.2,11.1,5.4c6.1,1.9,11.2,2,16,0.6
	c0.9-0.3,1.9-0.6,2.8-0.9c2.8-0.9,5.6-1.8,8.5-2.5c6.1-1.6,11.5-0.9,16.1,1.9c-0.5-0.9-0.7-2-0.5-3.2c0.3-1.8,0.5-3.6,0.8-5.5
	s0.6-3.9,0.9-5.8c0.4-3,0.9-6.1,1.3-9.2l0.5-3.3c0-0.2,0-0.3,0.1-0.5l0.4-3.7c0.3-2.1,0.5-4.2,0.7-6.3c-0.4,0-0.9-0.1-1.3-0.1
	c-1.3-0.1-2.5-0.2-3.8-0.3c-4.2-0.1-8.7-0.1-12.7,1.4c-1.4,0.5-2.7,1.3-4.1,2.1c-0.9,0.5-1.8,1-2.7,1.5c-3.3,1.7-7,3-11.1,1.4
	c-1.3-0.5-2.6-1.1-3.8-1.6c-0.4-0.2-0.9-0.4-1.3-0.6C53.4,71.3,52.1,71,50.9,71z" class="color c4"/>
</svg>