<svg version="1.1" id="图层_1" x="0px" y="0px" width="116.5px" height="89.664px" viewBox="0 0 116.5 89.664" enable-background="new 0 0 116.5 89.664" xml:space="preserve" xmlns="http://www.w3.org/2000/svg" xmlns:xlink="http://www.w3.org/1999/xlink" xmlns:xml="http://www.w3.org/XML/1998/namespace">
  <path fill="#2F2F30" d="M9.538,43.871c0,0-1.154-10.391,10.775-5.387l-2.309-8.852c0,0-10.775-5.003-16.549,4.617
	c-5.771,9.621,6.158,26.939,26.17,26.553C27.626,60.804,10.31,55.031,9.538,43.871z M26.856,24.394
	c31.172,14.35,78.505,3.229,78.505,3.229c3.851-1.076,22.32-10.044,1.156-21.165c0,0,8.096,5.222,4.146,10.409
	c-1.398-5.545-20.722-9.94-44.361-9.94c-19.679,0-36.361,3.047-42.208,7.267C22.788,8.639,31.271,2.732,46.483,0
	C46.483,0-5.085,6.816,26.856,24.394z M99.965,68.353c7.35-7.346,8.818-19.48,8.818-19.48c-5.343,4.39-13.16,4.008-13.16,4.008
	c-12.779,0-16.213,13.541-15.068,16.211c10.682,2.861,21.744-9.729,21.744-9.729c-6.295,12.971-19.646,14.115-19.646,14.115
	c7.408,1.246,12.754-0.953,16.607-4.465c4.783,2.115,13.795,7.713-8.178,13.238c-26.217,6.596-78.811-4.765-46.378-12.838
	c7.26,4.774,16.634,7.274,28.716,5.244c0,0-26.938-2.31-39.636-28.478c0,0,22.32,25.399,43.871,19.627
	c2.309-5.39-4.619-32.712-30.402-32.712c0,0-15.779,0.771-26.553-8.081c0,0,3.635,30.049,23.016,43.719
	c-8.52,1.166-20.715,3.944-20.402,10.306c0.479,9.75,62.634,16.358,84.854,3.465C126.204,72.039,107.612,69.091,99.965,68.353z" class="color c1"/>
</svg>