<svg version="1.1" id="图层_1" x="0px" y="0px" width="138.123px" height="93.414px" viewBox="0 0 138.123 93.414" enable-background="new 0 0 138.123 93.414" xml:space="preserve" xmlns="http://www.w3.org/2000/svg" xmlns:xlink="http://www.w3.org/1999/xlink" xmlns:xml="http://www.w3.org/XML/1998/namespace">
  <path fill="#8C6441" d="M126.364,53.672c-4.816,6.842-13.063,12.439-24.521,13.936c-1.211,1.716-4.569,4.183-4.569,4.183
	S122.584,71.531,126.364,53.672z" class="color c1"/>
  <path fill="#63411D" d="M131.631,26.96c-12.476-6.534-22.153,2.344-25.528,7.951l5.862,3.546c0.668-1.089,6.813-10.494,16.486-5.428
	c2.655,1.391,3.549,6.133,2.176,11.534c-0.791,3.117-2.229,6.218-4.265,9.108c-9.512,14.958-26.432,16.362-26.432,16.362
	s0.702-0.711,1.914-2.426c-2.185,0.285-4.474,0.434-6.888,0.399l-0.104,6.853c0.309,0.004,0.612,0.006,0.918,0.006
	c23.631,0,37.854-14.289,41.498-28.613C139.495,37.493,137.284,29.92,131.631,26.96z" class="color c2"/>
  <path fill="#EFBB7B" d="M0.014,11.292c0,0.12-0.006,0.237-0.006,0.357c0,43.55,24.54,79.134,55.476,81.615
	c-0.524-1.095-1.073-2.269-1.667-3.56c-0.639-1.563-1.327-3.259-2.063-5.063c-0.653-1.843-1.336-3.818-2.017-5.927
	c-0.561-2.139-1.289-4.364-1.755-6.778c-0.547-2.394-0.946-4.939-1.312-7.601c-0.116-1.342-0.234-2.707-0.354-4.094
	c-0.063-1.396-0.108-2.824-0.127-4.271c0.032-1.446,0.098-2.924,0.169-4.418c0.163-1.485,0.239-3.014,0.489-4.531
	c0.462-3.043,1.115-6.138,1.999-9.197c0.923-3.038,2-6.085,3.229-9.007c0.99-2.355,2.063-4.656,3.12-6.912
	C24.571,21.556,0.297,16.947,0.014,11.292z" class="color c3"/>
  <path fill="#63411D" d="M70.286,21.729c-0.742,1.549-1.495,3.06-2.259,4.517c-1.443,2.748-2.785,5.36-4.034,7.935
	c-1.29,2.558-2.367,5.071-3.326,7.579c-1.913,4.994-3.201,9.979-3.854,14.905c-0.691,4.916-0.813,9.733-0.648,14.229
	c0.098,4.504,0.547,8.687,0.962,12.416c0.25,1.869,0.483,3.621,0.698,5.238c0.259,1.625,0.495,3.117,0.71,4.465
	c0.02,0.137,0.04,0.254,0.06,0.389c0.114,0.002,0.227,0.013,0.34,0.013c32.542,0,58.925-36.604,58.925-81.765
	c0-0.104-0.006-0.206-0.006-0.311C117.474,16.496,97.149,20.773,70.286,21.729z" class="color c2"/>
  <path fill="#8C6441" d="M59.044,0c-32.48,0-58.81,5.317-58.81,11.876s26.33,11.876,58.81,11.876c32.48,0,58.811-5.317,58.811-11.876
	S91.524,0,59.044,0z M58.819,18.159c-26.553,0-48.078-3.093-48.078-6.909s21.525-6.909,48.078-6.909
	c26.553,0,48.079,3.093,48.079,6.909S85.372,18.159,58.819,18.159z" class="color c1"/>
</svg>