<svg version="1.1" id="图层_1" x="0px" y="0px" width="131.571px" height="332.371px" viewBox="0 0 131.571 332.371" enable-background="new 0 0 131.571 332.371" xml:space="preserve" xmlns="http://www.w3.org/2000/svg" xmlns:xlink="http://www.w3.org/1999/xlink" xmlns:xml="http://www.w3.org/XML/1998/namespace">
  <path fill="#001D47" d="M71.243,3.806c-0.295,0.851-0.523,1.781-0.683,2.785c-0.209-0.608-0.371-1.194-0.476-1.748
	c-0.471-2.525-2.359-3.504-3.836-3.575c-1.767-0.084-5.058-0.241-15.826,19.036c-6.394,11.447-11.668,23.36-14.115,31.867
	c-4.77,16.611-6.085,31.03-6.412,35.919L6.958,103.433L0,108.088l8.228,1.506c0.338,0.064,0.786,0.167,1.298,0.304l3.611-1.7
	l-1.566,2.343c2.358,0.854,5.13,2.249,6.497,4.241c2.189,3.186,5.74,10.457,8.592,16.299c2.006,4.109,3.747,7.676,4.918,9.678
	c0,0.018,0.001,0.039,0.001,0.064c0,2.938-4.482,10.868-7.755,16.66c-2.73,4.83-5.309,9.395-6.803,13.128
	c-4.132,10.327-4.484,18.147-4.498,18.475l-0.698,17.558l6.847-15.279l1.5-7.683l0.621,3.181c4.066-8.133,9.339-16.016,12.15-16.834
	c1.123,0.386,4.918,3.805,10.578,15.787c4.535,9.604,8.695,21.414,11.125,31.592c0.59,2.473,1.195,4.93,1.79,7.35
	c2.821,11.461,5.489,22.286,5.489,30.454c0,5.029-1.005,8.572-3.072,10.832c-1.893,2.069-4.988,4.31-8.57,6.903
	c-10.765,7.794-27.031,19.571-34.219,44.436l-4.331,14.99l10.167-11.837c0.239-0.275,24.231-27.791,50.133-27.791
	c29.922,0,50.384,25.515,50.585,25.773l8.953,11.356l-2.963-14.151c-0.199-0.957-5.111-23.57-22.584-34.955
	c-2.317-1.509-4.516-2.889-6.641-4.224c-11.833-7.433-18.01-11.634-18.01-18.522c0-10.53,12.354-47.448,15.851-56.954
	c0.263-0.718,0.532-1.484,0.811-2.279c0.008-0.025,0.018-0.053,0.025-0.077c0.165,1.502,0.369,2.915,0.581,4.053
	c0.157,0.864,0.309,1.574,0.434,2.07c0.114,0.494,0.181,0.774,0.181,0.774s0.022-0.288,0.062-0.794
	c0.029-0.504,0.1-1.222,0.205-2.076c0.213-1.712,0.609-3.964,1.139-6.175c0.52-2.212,1.168-4.383,1.693-5.984
	c0.261-0.803,0.496-1.461,0.662-1.913c0.113-0.298,0.188-0.499,0.228-0.605c0.397-0.385,0.803-0.679,1.22-0.824
	c0.284-0.101,1.155-0.404,3.062,0.79c8.678,5.437,13.542,10.059,13.588,10.105l0.285,0.272l-0.525-3.338l2.854,5.565l5.061,4.846
	l-1.99-10.432c-0.086-0.459-2.209-11.317-7.77-17.934c-2.084-2.478-3.809-4.305-5.193-5.771c-3.428-3.636-4.142-4.392-4.142-7.848
	c0-1.682,0.209-3.994,0.691-7.726c1.477-11.416,1.699-36.127,1.699-49.842c0-1.638-0.004-3.031-0.008-4.111
	c0.477-0.098,1.041-0.178,1.654-0.232l1.512-2.324l0.299,2.285c0.299,0.012,0.6,0.02,0.918,0.053c4.83,0.502,7.473,1.65,7.498,1.662
	l5.852,2.594l-1.117-6.291c-0.094-0.534-1.094-5.352-6.269-9.754c-3.416-2.902-8.459-4.765-11.393-5.674
	c-0.879-7.281-4.252-30.025-13.929-50.412C83.814,5.721,80.504-0.26,75.622,0.009C74.453,0.074,72.333,0.653,71.243,3.806z
	 M14.3,102.469c0.783-0.635,1.716-1.345,2.735-2.075c1.014-0.74,2.129-1.476,3.242-2.217c1.132-0.71,2.262-1.425,3.353-2.044
	c1.086-0.631,2.119-1.188,3.02-1.64c1.791-0.917,3.07-1.403,3.07-1.403s-0.968,0.966-2.543,2.223
	c-0.782,0.635-1.716,1.347-2.736,2.074c-1.013,0.742-2.129,1.476-3.242,2.215c-1.133,0.711-2.262,1.424-3.352,2.044
	c-1.089,0.629-2.118,1.186-3.021,1.638c-1.793,0.918-3.069,1.405-3.069,1.405S12.724,103.725,14.3,102.469z M19.191,108.154
	c1.08-0.951,2.59-2.109,4.188-3.136c1.592-1.035,3.268-1.936,4.58-2.526c1.305-0.604,2.258-0.879,2.258-0.879
	s-0.643,0.755-1.73,1.696c-1.078,0.952-2.591,2.11-4.188,3.134c-1.592,1.032-3.271,1.934-4.583,2.525
	c-1.304,0.604-2.255,0.881-2.255,0.881S18.103,109.096,19.191,108.154z M23.386,114.943c0.673-0.69,1.642-1.499,2.697-2.176
	c1.047-0.684,2.182-1.234,3.09-1.563c0.896-0.341,1.58-0.439,1.58-0.439s-0.374,0.579-1.052,1.259
	c-0.674,0.689-1.642,1.497-2.7,2.172c-1.049,0.682-2.184,1.232-3.09,1.562c-0.899,0.341-1.578,0.441-1.578,0.441
	S22.706,115.621,23.386,114.943z M26.698,122.469c0.442-0.455,1.081-0.982,1.772-1.433c0.694-0.444,1.437-0.813,2.034-1.028
	c0.592-0.221,1.043-0.287,1.043-0.287s-0.242,0.385-0.69,0.834c-0.44,0.455-1.084,0.981-1.774,1.432
	c-0.694,0.443-1.438,0.811-2.035,1.025c-0.592,0.223-1.042,0.287-1.042,0.287S26.251,122.918,26.698,122.469z M31.067,151.831
	c0.113-0.503,0.195-0.79,0.195-0.79s0.065,1.184-0.004,2.952c-0.069,1.764-0.305,4.111-0.701,6.431
	c-0.213,1.157-0.434,2.314-0.698,3.385c-0.253,1.075-0.53,2.068-0.794,2.912c-0.254,0.846-0.525,1.536-0.697,2.023
	c-0.182,0.482-0.305,0.752-0.305,0.752s0.024-0.296,0.093-0.806c0.067-0.51,0.163-1.238,0.279-2.111
	c0.248-1.74,0.615-4.046,1.007-6.347c0.402-2.298,0.817-4.596,1.17-6.319C30.802,153.052,30.958,152.335,31.067,151.831z
	 M16.78,185.672c-0.269,1.062-0.493,1.947-0.649,2.566c-0.157,0.615-0.218,0.982-0.218,0.982s-0.041-0.366,0-1.015
	c0.042-0.64,0.092-1.56,0.231-2.652c0.126-1.093,0.324-2.362,0.573-3.714c0.251-1.352,0.573-2.782,0.927-4.205
	c0.371-1.419,0.76-2.834,1.197-4.139c0.416-1.312,0.863-2.515,1.278-3.535c0.4-1.025,0.802-1.855,1.069-2.436
	c0.274-0.582,0.444-0.907,0.444-0.907s-0.077,0.361-0.237,0.981c-0.158,0.617-0.387,1.504-0.658,2.565
	c-0.552,2.116-1.291,4.929-2,7.747C18.025,180.734,17.313,183.556,16.78,185.672z M23.104,174.487
	c-0.313,0.982-0.619,1.79-0.807,2.363c-0.199,0.569-0.328,0.892-0.328,0.892s0.145-1.379,0.504-3.414
	c0.364-2.035,0.971-4.72,1.698-7.374c0.731-2.651,1.577-5.27,2.296-7.206c0.353-0.972,0.695-1.766,0.914-2.328
	c0.232-0.557,0.38-0.871,0.38-0.871s-0.052,0.343-0.169,0.936c-0.125,0.589-0.276,1.441-0.504,2.445
	c-0.442,2.016-1.106,4.678-1.827,7.323C24.532,169.898,23.745,172.526,23.104,174.487z M50.521,188.411
	c-0.31-0.747-0.783-1.838-1.312-3.248c-0.548-1.406-1.184-3.122-1.877-5.104c-0.672-1.988-1.478-4.221-2.215-6.696
	c-0.381-1.234-0.779-2.521-1.192-3.852c-0.397-1.334-0.763-2.727-1.163-4.152c-0.812-2.85-1.58-5.878-2.334-9.021
	c-0.388-1.569-0.717-3.179-1.088-4.8c-0.359-1.625-0.744-3.264-1.05-4.934c-0.596-3.342-1.301-6.72-1.821-10.13
	c-0.5-3.415-1.033-6.824-1.401-10.204c-0.44-3.37-0.728-6.701-0.951-9.934c-0.112-1.614-0.257-3.199-0.337-4.754
	c-0.09-1.555-0.096-3.084-0.145-4.566c-0.077-2.967-0.184-5.766-0.064-8.359c0.054-2.59,0.152-4.961,0.242-7.059
	c0.129-2.1,0.34-3.925,0.48-5.427c0.297-3.003,0.521-4.709,0.521-4.709s0.17,1.724,0.379,4.724c0.096,1.496,0.213,3.312,0.348,5.396
	c0.206,2.081,0.434,4.424,0.627,6.977c0.168,2.555,0.568,5.311,0.836,8.228c0.266,2.917,0.7,5.981,1.078,9.153
	c0.204,1.585,0.366,3.2,0.612,4.828c0.253,1.625,0.491,3.273,0.708,4.936c0.41,3.328,0.998,6.689,1.531,10.056
	c0.464,3.379,1.111,6.73,1.648,10.044c0.59,3.307,1.173,6.561,1.736,9.711c0.639,3.135,1.126,6.198,1.72,9.075
	c0.563,2.887,1.095,5.614,1.587,8.133c2.029,10.098,3.381,16.83,3.381,16.83S50.837,189.155,50.521,188.411z M85.12,277.632
	c0.699,0.374,1.691,0.924,2.808,1.701c0.567,0.376,1.184,0.785,1.789,1.274c0.606,0.482,1.292,0.955,1.914,1.532
	c0.626,0.571,1.328,1.112,1.947,1.759c0.63,0.633,1.295,1.253,1.905,1.926c1.227,1.339,2.395,2.73,3.397,4.105
	c0.521,0.671,0.962,1.37,1.399,2.012c0.424,0.657,0.817,1.277,1.146,1.874c1.374,2.351,1.969,4.077,1.969,4.077
	s-1.09-1.445-2.77-3.531c-0.84-1.041-1.83-2.241-2.914-3.504c-1.088-1.258-2.248-2.599-3.471-3.878
	c-0.586-0.666-1.216-1.286-1.817-1.919c-0.615-0.619-1.218-1.229-1.804-1.818c-0.582-0.597-1.182-1.131-1.725-1.669
	c-0.546-0.535-1.08-1.022-1.572-1.476c-0.493-0.456-0.943-0.876-1.342-1.246c-0.407-0.364-0.765-0.683-1.057-0.944
	c-0.582-0.533-0.904-0.853-0.904-0.853S84.425,277.255,85.12,277.632z M75.595,285.261c-0.143-0.742-0.261-1.724-0.338-2.701
	c-0.062-0.978-0.099-1.951-0.096-2.699c-0.008-0.742,0.03-1.273,0.03-1.273s0.327,0.424,0.608,1.15
	c0.286,0.722,0.513,1.729,0.586,2.74c0.07,1.015,0,2.028-0.145,2.783c-0.131,0.755-0.342,1.246-0.342,1.246
	S75.731,286.002,75.595,285.261z M67.201,287.472c0,0-0.118-0.573-0.099-1.419c0.007-0.847,0.149-1.961,0.425-3.045
	c0.28-1.082,0.694-2.128,1.099-2.87c0.391-0.752,0.766-1.198,0.766-1.198s-0.02,0.582-0.15,1.403
	c-0.126,0.823-0.354,1.891-0.62,2.946c-0.275,1.054-0.598,2.099-0.885,2.88C67.458,286.953,67.201,287.472,67.201,287.472z
	 M64.55,278.714c-0.24,0.323-0.573,0.793-0.972,1.348c-0.797,1.115-1.835,2.594-2.834,4.102c-0.517,0.745-0.995,1.513-1.472,2.222
	c-0.467,0.714-0.904,1.383-1.277,1.955c-0.75,1.147-1.285,1.914-1.285,1.914s0.189-0.921,0.713-2.212
	c0.509-1.296,1.347-2.96,2.381-4.505c0.525-0.767,1.066-1.523,1.645-2.18c0.555-0.672,1.127-1.255,1.643-1.726
	c0.509-0.48,0.964-0.842,1.299-1.078c0.331-0.235,0.523-0.369,0.523-0.369S64.781,278.378,64.55,278.714z M85.563,288.341
	c-0.375-0.572-0.811-1.241-1.277-1.955c-0.475-0.709-0.955-1.477-1.471-2.222c-1-1.509-2.037-2.987-2.833-4.102
	c-0.399-0.555-0.731-1.024-0.974-1.348c-0.231-0.336-0.363-0.528-0.363-0.528s0.191,0.134,0.523,0.369
	c0.334,0.236,0.791,0.598,1.299,1.078c0.514,0.471,1.088,1.054,1.646,1.726c0.575,0.656,1.116,1.413,1.642,2.18
	c1.035,1.545,1.872,3.209,2.381,4.505c0.525,1.291,0.713,2.212,0.713,2.212S86.315,289.488,85.563,288.341z M60.71,277.907
	c-0.295,0.262-0.649,0.58-1.057,0.944c-0.399,0.37-0.852,0.79-1.342,1.246c-0.493,0.453-1.025,0.94-1.574,1.476
	c-0.541,0.538-1.143,1.072-1.723,1.669c-0.584,0.589-1.189,1.199-1.803,1.818c-0.604,0.633-1.235,1.253-1.818,1.919
	c-1.225,1.279-2.382,2.62-3.474,3.878c-1.081,1.263-2.071,2.463-2.913,3.504c-1.678,2.086-2.768,3.531-2.768,3.531
	s0.596-1.726,1.967-4.077c0.331-0.597,0.727-1.217,1.147-1.874c0.44-0.642,0.879-1.341,1.4-2.012
	c1.002-1.375,2.17-2.767,3.398-4.105c0.609-0.673,1.274-1.293,1.905-1.926c0.619-0.646,1.319-1.188,1.948-1.759
	c0.624-0.577,1.304-1.05,1.913-1.532c0.606-0.489,1.22-0.898,1.789-1.274c1.113-0.777,2.109-1.327,2.808-1.701
	c0.695-0.377,1.102-0.577,1.102-0.577S61.29,277.374,60.71,277.907z M54.291,277.299c-0.728,0.627-1.543,1.332-2.449,2.077
	c-0.916,0.728-1.835,1.611-2.839,2.503c-0.494,0.45-1.006,0.911-1.529,1.381c-0.505,0.49-1.022,0.99-1.549,1.499
	c-0.525,0.508-1.06,1.021-1.602,1.543c-0.514,0.548-1.045,1.095-1.587,1.639c-1.095,1.073-2.143,2.227-3.189,3.384
	c-1.088,1.116-2.084,2.321-3.105,3.466c-0.996,1.172-1.976,2.325-2.924,3.44c-0.898,1.156-1.841,2.218-2.656,3.287
	c-0.83,1.061-1.616,2.064-2.342,2.988c-1.438,1.864-2.613,3.44-3.434,4.55c-0.818,1.117-1.285,1.755-1.285,1.755
	s1.186-2.957,3.649-7.031c0.604-1.026,1.284-2.121,2.048-3.251c0.738-1.149,1.582-2.312,2.453-3.521
	c0.908-1.18,1.812-2.427,2.821-3.624c1.021-1.186,2.015-2.427,3.106-3.586c1.084-1.165,2.174-2.321,3.312-3.403
	c0.557-0.551,1.113-1.09,1.676-1.615c0.58-0.504,1.152-1.002,1.716-1.491c0.566-0.487,1.12-0.966,1.664-1.435
	c0.573-0.434,1.132-0.859,1.678-1.273c1.086-0.835,2.114-1.613,3.132-2.241c0.996-0.658,1.922-1.238,2.738-1.752
	c0.854-0.458,1.599-0.857,2.211-1.185c1.231-0.644,1.939-0.989,1.939-0.989s-0.613,0.512-1.695,1.366
	C55.706,276.201,55.048,276.713,54.291,277.299z M97.323,191.457c-0.541,1.318-1.172,3.254-1.93,5.575
	c-0.772,2.322-1.672,5.032-2.632,7.935c-0.978,2.896-1.993,5.994-2.988,9.097c-1.042,3.089-2.065,6.185-2.994,9.097
	c-0.948,2.905-1.831,5.618-2.591,7.943c-1.512,4.656-2.52,7.76-2.52,7.76s0.178-0.798,0.488-2.192
	c0.334-1.388,0.781-3.384,1.424-5.747s1.373-5.126,2.262-8.056c0.887-2.931,1.861-6.047,2.857-9.156
	c1.043-3.096,2.109-6.181,3.134-9.066c1.007-2.895,2.112-5.531,2.958-7.825c0.855-2.297,1.701-4.168,2.33-5.452
	c0.639-1.284,1.08-1.974,1.08-1.974S97.849,190.133,97.323,191.457z M109.625,171.624c0.566,0.572,1.439,1.33,2.426,2.302
	c0.986,0.974,2.16,2.097,3.33,3.383c0.584,0.655,1.197,1.281,1.772,2.023c0.596,0.722,1.127,1.503,1.633,2.298
	c0.488,0.808,0.928,1.638,1.338,2.463c0.396,0.831,0.75,1.667,1.064,2.484c0.637,1.629,1.072,3.202,1.432,4.546
	c0.361,1.347,0.539,2.497,0.682,3.294c0.129,0.801,0.166,1.262,0.166,1.262s-0.137-0.44-0.379-1.212
	c-0.232-0.772-0.621-1.858-1.074-3.158c-0.451-1.301-1.061-2.787-1.744-4.353c-0.334-0.788-0.734-1.574-1.125-2.379
	c-0.408-0.794-0.844-1.588-1.322-2.355c-0.477-0.765-0.971-1.52-1.523-2.208c-0.533-0.695-1.123-1.396-1.666-2.051
	c-1.109-1.315-2.133-2.562-3.043-3.601c-0.912-1.039-1.627-1.957-2.129-2.594c-0.496-0.644-0.742-1.037-0.742-1.037
	S109.049,171.056,109.625,171.624z M108.793,101.73c0.051,1.534,0.17,3.724,0.213,6.353c0.043,2.628,0.133,5.694,0.125,8.981
	c-0.025,3.286-0.053,6.792-0.078,10.297c-0.096,3.505-0.209,7.01-0.359,10.295c-0.056,1.643-0.165,3.229-0.276,4.733
	c-0.095,1.502-0.209,2.925-0.323,4.236c-0.096,1.311-0.225,2.512-0.359,3.574c-0.129,1.062-0.221,1.99-0.344,2.748
	c-0.236,1.515-0.371,2.382-0.371,2.382s0.057-0.876,0.154-2.406c0.105-1.533,0.189-3.714,0.288-6.338
	c0.122-2.622,0.159-5.686,0.255-8.966c0.1-3.279,0.16-6.78,0.209-10.282c0.074-3.5,0.149-7.001,0.223-10.282
	c0.047-3.282,0.172-6.347,0.222-8.973c0.083-2.629,0.154-4.818,0.202-6.351c0.062-1.533,0.099-2.409,0.099-2.409
	S108.716,100.199,108.793,101.73z M115.338,89.039c0.812,0.295,1.748,0.689,2.705,1.214c0.475,0.265,0.969,0.54,1.439,0.877
	c0.49,0.343,0.939,0.676,1.385,1.079c0.873,0.777,1.676,1.645,2.309,2.545c0.639,0.893,1.129,1.8,1.463,2.609
	c0.344,0.805,0.506,1.52,0.615,2.012c0.098,0.498,0.1,0.788,0.1,0.788s-0.391-1.091-1.291-2.505
	c-0.445-0.709-1.008-1.502-1.674-2.295c-0.326-0.402-0.705-0.781-1.07-1.182c-0.385-0.383-0.777-0.771-1.199-1.126
	c-0.389-0.37-0.85-0.729-1.268-1.035c-0.439-0.316-0.877-0.633-1.318-0.911c-0.875-0.568-1.727-1.06-2.467-1.48
	c-1.49-0.83-2.486-1.386-2.486-1.386S113.711,88.457,115.338,89.039z M82.672,12.137c0,0,0.644,1.062,1.696,2.961
	c1.043,1.904,2.537,4.625,4.211,7.95c1.672,3.324,3.642,7.196,5.65,11.389c0.506,1.048,0.981,2.14,1.482,3.229
	c0.506,1.09,1.002,2.202,1.446,3.343c0.455,1.137,0.94,2.274,1.382,3.435c0.425,1.164,0.852,2.333,1.277,3.503
	c0.779,2.363,1.568,4.725,2.221,7.084c0.699,2.348,1.285,4.686,1.867,6.942c0.545,2.268,1.031,4.467,1.435,6.565
	c0.425,2.093,0.772,4.082,1.08,5.92c0.317,1.835,0.544,3.527,0.745,5.028c0.185,1.502,0.344,2.812,0.454,3.893
	c0.222,2.161,0.288,3.399,0.288,3.399l0,0v-0.001c0-0.009-0.165-1.237-0.507-3.37c-0.325-2.145-0.882-5.193-1.605-8.836
	c-0.362-1.82-0.771-3.791-1.259-5.861c-0.464-2.076-1.037-4.244-1.581-6.499c-0.602-2.239-1.208-4.558-1.929-6.881
	c-0.67-2.34-1.48-4.677-2.276-7.014c-0.412-1.164-0.825-2.329-1.235-3.488c-0.422-1.155-0.893-2.287-1.335-3.419
	c-0.429-1.138-0.908-2.244-1.398-3.33c-0.487-1.089-0.944-2.17-1.437-3.222c-1.955-4.22-3.777-8.157-5.339-11.531
	c-1.583-3.364-2.872-6.182-3.833-8.128c-0.91-1.854-1.443-2.941-1.491-3.041c-0.234-0.426-0.462-0.838-0.685-1.235
	c0.223,0.394,0.447,0.801,0.679,1.224C82.676,12.145,82.672,12.137,82.672,12.137z M79.185,6.359
	c0.102,0.244,8.42,20.4,14.875,49.133c-0.309,0.457-0.646,0.927-1.014,1.405c-1.496,1.956-3.516,4.054-6.1,5.762
	c-1.289,0.853-2.717,1.607-4.253,2.198c-1.552,0.59-3.144,1.038-4.912,1.262c-1.716,0.234-3.442,0.333-5.181,0.293
	c-1.726-0.039-3.431-0.215-5.07-0.504c-3.278-0.572-6.273-1.592-8.743-2.692c-2.476-1.102-4.433-2.274-5.757-3.156
	c-1.326-0.885-2.023-1.479-2.023-1.479s0.622,0.671,1.846,1.713c1.224,1.042,3.051,2.452,5.443,3.871
	c2.385,1.418,5.347,2.84,8.734,3.853c1.691,0.506,3.484,0.909,5.34,1.17c1.843,0.261,3.778,0.38,5.705,0.343
	c1.871-0.031,3.902-0.189,5.797-0.613c1.92-0.412,3.769-1.041,5.486-1.823c2.41-1.099,4.519-2.492,6.328-3.943
	c2.844,14.161,5.08,29.996,5.663,46.332c-0.113-1.646-0.239-3.271-0.378-4.86c-0.354-4.188-0.861-8.128-1.404-11.747
	c-0.518-3.624-1.129-6.922-1.699-9.836c-0.562-2.915-1.146-5.437-1.637-7.51c-0.48-2.075-0.924-3.692-1.211-4.793
	c-0.305-1.1-0.465-1.688-0.465-1.688s0.207,2.421,0.57,6.657c0.169,2.114,0.371,4.68,0.606,7.621
	c0.209,2.941,0.409,6.258,0.618,9.869c0.186,3.613,0.312,7.525,0.418,11.655c0.089,4.112,0.061,8.53-0.037,12.933
	c-0.084,2.271-0.172,4.578-0.261,6.916c-0.044,1.168-0.087,2.344-0.132,3.523c-0.078,1.161-0.154,2.329-0.232,3.502
	c-0.168,2.343-0.275,4.7-0.497,7.076c-0.228,2.374-0.458,4.758-0.687,7.142c-0.561,4.755-1.156,9.504-1.939,14.149
	c-0.338,2.333-0.809,4.62-1.225,6.893c-0.393,2.276-0.902,4.501-1.372,6.696c-0.243,1.098-0.455,2.192-0.716,3.264
	c-0.262,1.073-0.52,2.138-0.771,3.189c-0.479,2.112-1.021,4.163-1.554,6.161c-0.507,2.004-1.089,3.933-1.603,5.813
	c-0.5,1.884-1.033,3.699-1.53,5.444c-1.014,3.483-1.925,6.7-2.684,9.572c-0.394,1.427-0.741,2.777-1.029,4.032
	c-0.308,1.247-0.567,2.401-0.768,3.455c-0.21,1.048-0.408,1.979-0.54,2.798c-0.113,0.822-0.209,1.521-0.289,2.089
	c-0.145,1.132-0.223,1.735-0.223,1.735s0.189-0.581,0.541-1.665c0.173-0.54,0.383-1.208,0.633-1.992
	c0.278-0.773,0.602-1.662,0.963-2.659c0.345-0.997,0.764-2.089,1.246-3.272c0.469-1.185,0.976-2.468,1.52-3.837
	c1.1-2.735,2.392-5.811,3.707-9.212c1.338-3.391,2.774-7.088,4.096-11.075c0.221-0.65,0.445-1.316,0.667-1.977
	c-4.464,14.968-9.224,25.892-11.11,35.69c-3.959,20.555-2.963,36.785-2.963,36.785c0-0.919,0.082-2.005,0.232-3.227
	c-0.15,1.222-0.232,2.308-0.232,3.227c0,4.214,1.732,7.555,4.738,10.655c-0.061-0.062-0.127-0.123-0.186-0.187
	c0,0-1.174,6.633-10.227,6.633c-9.051,0-10.948-6.787-10.948-6.787c2.86-3.128,3.963-7.64,3.963-13.124
	c0-0.411-0.017-0.835-0.03-1.255c0.008,0.265,0.024,0.536,0.026,0.797c0,0,2.307-9.207-5.613-54.183
	c-2.911-16.521-6.026-27.58-8.87-37.51c0.557,1.659,1.109,3.29,1.635,4.881c0.607,1.868,1.198,3.685,1.768,5.442
	c0.556,1.763,1.092,3.466,1.604,5.101c0.516,1.635,0.93,3.223,1.391,4.719c0.456,1.498,0.877,2.92,1.229,4.269
	c0.705,2.694,1.428,5.023,1.893,6.983c0.485,1.951,0.917,3.475,1.188,4.517c0.28,1.043,0.427,1.599,0.427,1.599
	s-0.064-0.571-0.188-1.645c-0.128-1.068-0.285-2.646-0.547-4.639c-0.225-1.997-0.637-4.413-1.092-7.188
	c-0.44-2.782-1.076-5.885-1.797-9.271c-0.385-1.686-0.789-3.444-1.205-5.262c-0.466-1.807-0.948-3.672-1.444-5.589
	c-1.031-3.819-2.138-7.841-3.31-11.956c-1.198-4.118-2.211-8.393-3.252-12.73c-0.471-2.178-0.943-4.372-1.357-6.588
	c-0.352-2.229-0.81-4.443-1.08-6.694c-0.686-4.479-1.184-8.993-1.584-13.449c-0.158-2.234-0.338-4.448-0.537-6.637
	c-0.127-2.197-0.254-4.368-0.379-6.5c-0.057-1.062-0.113-2.116-0.169-3.157c-0.036-1.053-0.073-2.096-0.11-3.127
	c-0.059-2.022-0.076-4.027-0.054-5.978c0.058-3.9,0.212-7.597,0.434-11.009c0.48-6.824,1.115-12.523,1.557-16.519
	c0.434-4,0.679-6.286,0.679-6.286s-0.616,2.217-1.567,6.131c-0.469,1.958-1.039,4.338-1.588,7.092
	c-0.568,2.752-1.169,5.87-1.664,9.302c-0.185,1.241-0.357,2.536-0.522,3.856c2.187-41.572,15.804-66.912,15.904-67.099
	c4.981-8.084,9.128-12.994,9.655-10.164c1.211,6.492,8.362,15.295,8.362,15.295s-1.444-5.142-1.444-10.277
	c0-1.95,0.209-3.901,0.784-5.568C75.312,2.423,76.866,3.072,79.185,6.359z M68.464,77.843c0.96-1.982,1.974-3.937,3.164-5.785
	c-0.686,2.083-1.304,4.17-1.873,6.265c-0.277,1.049-0.562,2.093-0.822,3.143c-0.259,1.049-0.484,2.105-0.721,3.154
	c-0.471,2.1-0.861,4.211-1.166,6.325c-0.338,2.107-0.6,4.22-0.73,6.33c-0.07,1.054-0.11,2.109-0.148,3.157
	c-0.039,1.051-0.031,2.097-0.002,3.141c0.047,1.041,0.08,2.082,0.203,3.11c0.091,1.033,0.256,2.05,0.399,3.068
	c0.091,0.478,0.179,0.958,0.271,1.435c0.044-0.226,0.081-0.453,0.136-0.678l0.335-1.481l0.422-1.464
	c0.251-0.982,0.667-1.926,0.996-2.887c0.417-0.934,0.815-1.875,1.325-2.766c0.516-0.89,0.999-1.789,1.625-2.611
	c0.299-0.416,0.586-0.841,0.896-1.247l1.013-1.163l0.507-0.575l0.473-0.499l0.991-1.04c0.652-0.698,1.195-1.36,1.782-2.077
	c0.55-0.732,1.109-1.468,1.607-2.239c0.268-0.378,0.506-0.772,0.73-1.171c0.23-0.398,0.471-0.797,0.657-1.214
	c0.202-0.413,0.42-0.825,0.579-1.257c0.182-0.425,0.365-0.852,0.504-1.293c0.322-0.873,0.526-1.783,0.691-2.71
	c0.195-0.926,0.162-1.882,0.299-2.848c0.119,0.94,0.345,1.9,0.371,2.886c0.036,0.979-0.008,1.976-0.162,2.956
	c-0.125,0.987-0.364,1.96-0.67,2.909c-0.135,0.483-0.315,0.947-0.496,1.412c-0.172,0.471-0.361,0.935-0.58,1.381
	c-0.393,0.924-0.896,1.782-1.395,2.649c-0.523,0.841-1.099,1.734-1.662,2.512l-1.691,2.305l-0.784,1.078
	c-0.235,0.377-0.448,0.769-0.675,1.152c-0.477,0.748-0.823,1.577-1.199,2.381c-0.377,0.803-0.625,1.674-0.96,2.493
	c-0.237,0.868-0.561,1.698-0.733,2.585l-0.306,1.313l-0.224,1.335c-0.164,0.883-0.234,1.789-0.332,2.687
	c-0.072,0.902-0.147,1.803-0.167,2.708c-0.027,0.906-0.027,1.812,0.007,2.714c0.025,0.88,0.079,1.844,0.175,2.61l1.501,11.99
	l-5.83-10.463c-0.574-1.027-1.195-2.031-1.658-3.111c-0.521-1.056-0.9-2.164-1.312-3.257c-0.341-1.114-0.708-2.224-0.936-3.36
	c-0.283-1.128-0.439-2.271-0.621-3.408c-0.143-1.14-0.259-2.283-0.295-3.426c-0.072-1.141-0.05-2.279-0.041-3.415
	c0.049-2.267,0.243-4.519,0.598-6.735c0.338-2.22,0.812-4.404,1.358-6.561c0.589-2.148,1.259-4.264,2.007-6.344
	C66.666,81.868,67.521,79.832,68.464,77.843z M67.437,26.869c0.111-0.444,0.207-0.707,0.207-0.707s0.144,0.23,0.338,0.647
	c0.096,0.209,0.219,0.464,0.329,0.762c0.11,0.299,0.269,0.634,0.347,1.014c0.181,0.758,0.396,1.655,0.406,2.647
	c0.025,0.494,0.04,1.008-0.034,1.533c-0.048,0.526-0.112,1.056-0.261,1.586c-0.129,0.528-0.28,1.055-0.516,1.552
	c-0.187,0.508-0.482,0.976-0.76,1.417c-0.301,0.433-0.623,0.831-0.976,1.166c-0.348,0.339-0.709,0.62-1.07,0.84
	c-0.354,0.224-0.711,0.381-1.03,0.492c-0.312,0.124-0.608,0.176-0.841,0.214c-0.482,0.067-0.752,0.016-0.752,0.016
	s0.755-0.652,1.435-1.727c-0.661,0.221-1.351,0.345-2.034,0.339c-1.199,0.005-2.357-0.368-3.309-0.954
	c-0.475-0.294-0.91-0.635-1.266-1.032l-0.168-0.183l-0.097-0.129l-0.195-0.257c-0.146-0.217-0.316-0.463-0.437-0.685
	c-0.484-0.876-0.688-1.81-0.705-2.647c-0.041-1.696,0.672-2.946,1.258-3.61c0.288-0.346,0.563-0.565,0.754-0.702
	c0.191-0.133,0.295-0.204,0.295-0.204s-0.062,0.108-0.174,0.31c-0.117,0.192-0.255,0.502-0.396,0.882
	c-0.28,0.759-0.457,1.916-0.135,3.121c0.169,0.599,0.466,1.19,0.872,1.718c0.104,0.128,0.196,0.214,0.304,0.337l0.236,0.22
	l0.119,0.111c-0.041-0.043,0.049,0.031,0.068,0.041c0.279,0.201,0.557,0.405,0.875,0.547c1.253,0.588,2.859,0.529,4.051-0.252
	c0.156-0.103,0.221-0.142,0.395-0.278l0.269-0.239c-0.526,0.333-1.06,0.46-1.435,0.464c-0.266,0.018-0.475-0.03-0.611-0.06
	c-0.131-0.034-0.203-0.051-0.203-0.051s0.295-0.081,0.695-0.323c0.4-0.23,0.865-0.688,1.139-1.306
	c0.133-0.311,0.209-0.66,0.232-1.015l-0.01-0.237c-0.014-0.093-0.01-0.316-0.034-0.305c-0.042-0.18-0.069-0.358-0.142-0.527
	c-0.259-0.676-0.844-1.219-1.49-1.36c-0.092-0.02-0.076-0.026-0.205-0.042l-0.209-0.014c0.051-0.002-0.06,0.004-0.08,0.004
	c-0.168,0.005-0.333,0.026-0.492,0.079c-0.318,0.098-0.636,0.269-0.888,0.525c-0.239,0.26-0.451,0.562-0.581,0.898l-0.078,0.219
	c-0.017,0.096-0.038,0.271-0.059,0.298c-0.035,0.175-0.051,0.349-0.054,0.52c0.003,0.685,0.247,1.292,0.502,1.682
	c0.252,0.399,0.479,0.598,0.479,0.598s-0.07-0.014-0.204-0.043c-0.13-0.038-0.344-0.086-0.573-0.22
	c-0.467-0.242-1.13-0.791-1.47-1.754c-0.083-0.238-0.149-0.496-0.188-0.77c-0.01-0.128-0.021-0.256-0.029-0.387
	c0.002-0.152,0.009-0.324,0.025-0.479c0.069-0.598,0.268-1.244,0.676-1.801c0.404-0.552,0.967-1.067,1.68-1.342
	c0.353-0.14,0.73-0.24,1.118-0.26c0.116-0.004,0.146-0.017,0.335-0.011l0.209,0.008c0.144,0.008,0.435,0.047,0.613,0.091
	c0.406,0.098,0.787,0.266,1.132,0.483c-0.039-0.036-0.069-0.082-0.109-0.115c-0.947-0.812-2.069-1.14-2.878-1.218
	c-0.408-0.04-0.736-0.039-0.965-0.026c-0.231,0.018-0.357,0.027-0.357,0.027s0.108-0.063,0.31-0.181
	c0.209-0.1,0.527-0.269,0.962-0.375c0.851-0.236,2.282-0.351,3.802,0.42c0.372,0.192,0.742,0.434,1.104,0.721
	c0.218,0.204,0.307,0.271,0.48,0.454c0.052,0.061,0.106,0.124,0.162,0.188c0.037-0.204,0.069-0.398,0.109-0.578
	C67.312,27.358,67.385,27.09,67.437,26.869z M55.403,55.971c0.757,0.735,1.69,1.365,2.645,1.967c0.96,0.596,1.985,1.115,3.024,1.571
	c1.028,0.479,2.071,0.894,3.102,1.251c2.057,0.733,4.044,1.271,5.767,1.678c1.726,0.403,3.188,0.684,4.22,0.869
	c1.033,0.186,1.626,0.293,1.626,0.293s-0.599,0.076-1.653,0.135c-1.055,0.058-2.568,0.083-4.385-0.062
	c-1.814-0.135-3.929-0.46-6.152-1.051c-2.217-0.603-4.545-1.473-6.705-2.764c-1.089-0.629-2.113-1.396-3.036-2.309
	c-0.229-0.231-0.454-0.467-0.663-0.727c-0.189-0.22-0.467-0.604-0.592-0.814c-0.34-0.58-0.601-1.152-0.797-1.725
	c-0.416-1.141-0.676-2.249-0.811-3.304c-0.158-1.052-0.238-2.043-0.262-2.958c-0.107-3.658,0.414-6.038,0.414-6.038
	s0.089,0.596,0.242,1.638c0.164,1.037,0.387,2.511,0.719,4.246c0.354,1.718,0.781,3.751,1.611,5.641
	C54.155,54.469,54.62,55.247,55.403,55.971z M56.326,73.111c0.29-1.364,0.476-2.084,0.476-2.084s-0.562,2.926-1.065,8.097
	c-0.255,2.585-0.487,5.731-0.596,9.344c-0.093,3.612-0.123,7.688,0.055,12.124c0.183,4.438,0.569,9.234,1.253,14.271
	c0.715,5.027,1.667,10.301,2.96,15.683c0.662,2.687,1.404,5.401,2.257,8.116c0.848,2.71,1.791,5.479,2.639,8.286
	c1.711,5.642,3.266,11.408,4.494,17.261c2.478,11.693,3.991,23.573,4.664,34.742c0.368,5.584,0.43,10.995,0.43,16.117
	c-0.016,5.123-0.154,9.964-0.354,14.426c-0.185,4.464-0.492,8.546-0.771,12.162c-0.305,3.612-0.572,6.76-0.793,9.354
	c-0.51,5.18-0.8,8.141-0.8,8.141s0.135-2.97,0.374-8.169c0.264-5.197,0.566-12.623,0.745-21.528
	c0.087-4.451,0.104-9.273-0.007-14.372c-0.1-5.095-0.394-10.46-0.762-16.002c-0.762-11.08-2.361-22.844-4.911-34.401
	c-1.275-5.771-2.695-11.53-4.359-17.099c-0.819-2.801-1.729-5.536-2.569-8.311c-0.838-2.767-1.567-5.529-2.213-8.26
	c-1.283-5.469-2.182-10.827-2.726-15.939c-0.551-5.11-0.806-9.965-0.868-14.442c-0.143-8.964,0.678-16.403,1.4-21.559
	C55.644,76.488,56.04,74.477,56.326,73.111z M84.079,34.243c-0.089-0.716-0.117-1.137-0.117-1.137s0.208,0.355,0.547,0.998
	c0.164,0.322,0.371,0.713,0.582,1.171c0.208,0.461,0.492,0.965,0.682,1.559c0.208,0.586,0.43,1.227,0.636,1.914
	c0.239,0.678,0.411,1.419,0.536,2.199c0.129,0.777,0.342,1.572,0.35,2.417c0.035,0.837,0.138,1.684,0.035,2.547
	c-0.062,0.86-0.12,1.721-0.352,2.555c-0.145,0.846-0.477,1.638-0.777,2.402c-0.129,0.388-0.355,0.736-0.549,1.08
	c-0.206,0.341-0.383,0.685-0.631,0.975c-0.234,0.298-0.449,0.594-0.68,0.862c-0.257,0.244-0.505,0.479-0.744,0.705
	c-0.491,0.428-0.975,0.781-1.439,1.025c-0.445,0.272-0.879,0.43-1.22,0.564c-0.709,0.235-1.126,0.268-1.126,0.268
	s0.361-0.217,0.91-0.66c0.268-0.231,0.584-0.509,0.912-0.858c0.174-0.161,0.34-0.354,0.502-0.568
	c0.157-0.215,0.363-0.395,0.51-0.649c0.16-0.237,0.325-0.484,0.496-0.74c0.143-0.27,0.293-0.548,0.449-0.835
	c0.171-0.272,0.27-0.598,0.395-0.912c0.104-0.324,0.287-0.616,0.357-0.969c0.096-0.339,0.191-0.685,0.288-1.033
	c0.105-0.346,0.118-0.727,0.197-1.089c0.158-0.725,0.198-1.491,0.243-2.255c0.107-0.757,0.01-1.54,0.029-2.302
	c0.02-0.763-0.07-1.522-0.129-2.259c-0.062-0.734-0.096-1.454-0.217-2.129c-0.104-0.677-0.177-1.325-0.238-1.929
	c-0.065-0.602-0.192-1.145-0.257-1.637C84.177,35.035,84.127,34.601,84.079,34.243z M69.251,137.372
	c-0.541-1.657-0.85-2.604-0.85-2.604s0.46,0.883,1.265,2.429c0.389,0.779,0.864,1.727,1.407,2.814
	c0.561,1.081,1.097,2.342,1.664,3.726c0.572,1.382,1.23,2.868,1.818,4.481c0.568,1.619,1.172,3.327,1.76,5.108
	c0.555,1.789,1.077,3.657,1.588,5.56c0.5,1.906,0.883,3.874,1.329,5.826c0.36,1.971,0.665,3.951,0.966,5.9
	c0.107,0.98,0.215,1.954,0.32,2.914c0.107,0.961,0.199,1.911,0.24,2.851c0.053,0.938,0.107,1.86,0.158,2.764
	c0.027,0.902,0.021,1.789,0.029,2.649c0.052,1.72-0.078,3.35-0.135,4.848c-0.123,1.499-0.223,2.868-0.408,4.075
	c-0.143,1.212-0.348,2.258-0.506,3.115c-0.351,1.714-0.652,2.666-0.652,2.666s0.026-0.249,0.072-0.712
	c0.053-0.463,0.076-1.147,0.136-2.011c0.036-0.868,0.081-1.916,0.09-3.121c0.04-1.202-0.023-2.563-0.023-4.037
	c-0.087-1.48-0.108-3.078-0.255-4.765c-0.066-0.843-0.113-1.712-0.201-2.593c-0.092-0.883-0.188-1.785-0.285-2.702
	c-0.147-1.836-0.523-3.712-0.742-5.633c-0.321-1.906-0.644-3.847-1.023-5.775c-0.419-1.921-0.764-3.86-1.233-5.739
	c-0.502-1.87-0.887-3.742-1.379-5.521c-0.525-1.771-0.996-3.496-1.447-5.131c-0.506-1.621-0.988-3.151-1.434-4.566
	c-0.447-1.415-0.83-2.725-1.252-3.855C69.875,139.19,69.534,138.193,69.251,137.372z M72.89,81.617
	c-0.17,0.6-0.336,1.477-0.604,2.486c-0.107,0.516-0.221,1.073-0.371,1.65c-0.135,0.582-0.242,1.209-0.407,1.834
	c-0.272,1.274-0.563,2.635-0.854,3.993c-0.149,0.681-0.296,1.36-0.443,2.032c-0.155,0.669-0.305,1.329-0.45,1.969
	c-0.296,1.279-0.577,2.477-0.856,3.504c-0.522,2.055-1.001,3.436-1.001,3.436s-0.276-1.442-0.282-3.596
	c-0.008-1.076,0.036-2.33,0.18-3.664c0.125-1.338,0.346-2.754,0.644-4.158c0.3-1.403,0.696-2.789,1.149-4.064
	c0.45-1.274,0.975-2.434,1.477-3.395c0.263-0.479,0.523-0.906,0.756-1.281c0.215-0.383,0.475-0.683,0.659-0.939
	c0.385-0.507,0.624-0.779,0.624-0.779S73.038,81.008,72.89,81.617z M77.052,83.867c0.289-0.499,0.572-0.911,0.766-1.207
	c0.207-0.293,0.344-0.459,0.344-0.459s0.049,0.205,0.094,0.564c0.053,0.361,0.084,0.874,0.041,1.479
	c-0.053,1.217-0.445,2.78-1.107,4.22c-0.66,1.439-1.585,2.743-2.449,3.592c-0.42,0.432-0.82,0.755-1.124,0.962
	c-0.138,0.103-0.296,0.188-0.374,0.229c-0.087,0.035-0.133,0.057-0.133,0.057s0.02-0.053,0.053-0.148
	c0.031-0.102,0.039-0.222,0.089-0.396c0.086-0.338,0.204-0.824,0.384-1.373c0.328-1.123,0.885-2.513,1.5-3.867
	C75.757,86.17,76.437,84.851,77.052,83.867z" class="color c1"/>
</svg>