<svg version="1.1" id="图层_1" x="0px" y="0px" width="154.51px" height="146.053px" viewBox="-8.459 0.001 154.51 146.053" enable-background="new -8.459 0.001 154.51 146.053" xml:space="preserve" xmlns="http://www.w3.org/2000/svg" xmlns:xlink="http://www.w3.org/1999/xlink" xmlns:xml="http://www.w3.org/XML/1998/namespace">
  <g>
    <path fill="#0F0E0E" d="M50.645,28.378L22.27,0.001c0,0-6.588,0.24-16.829,10.484l-3.417,3.414
		C-8.219,24.14-8.459,30.728-8.459,30.728l28.373,28.375c0,0,2.648,2.648,16.813-10.502l5.846,5.846
		c1.411-0.981,2.822-1.849,4.223-2.605l-6.65-6.65C53.29,31.024,50.645,28.378,50.645,28.378z M23.462,52.407
		c-0.943,0.941-2.414,1-3.284,0.13L-1.91,30.451c-0.871-0.871-0.811-2.342,0.132-3.285c0.942-0.941,2.413-1.001,3.285-0.13
		l22.085,22.088C24.461,49.993,24.404,51.464,23.462,52.407z M30.289,45.578c-0.943,0.943-2.412,1.001-3.285,0.129L4.918,23.624
		c-0.871-0.871-0.812-2.342,0.131-3.285c0.943-0.942,2.415-1.001,3.285-0.13L30.42,42.293
		C31.292,43.166,31.232,44.637,30.289,45.578z M37.115,38.749c-0.941,0.943-2.412,1.003-3.285,0.131L11.746,16.796
		c-0.869-0.871-0.813-2.345,0.131-3.285c0.943-0.942,2.414-1.002,3.285-0.13l22.085,22.084
		C38.117,36.335,38.059,37.806,37.115,38.749z M43.945,31.922c-0.943,0.941-2.414,1.001-3.286,0.13L18.576,9.965
		c-0.87-0.871-0.813-2.342,0.13-3.284c0.942-0.941,2.414-1.001,3.286-0.131l22.08,22.086C44.945,29.508,44.889,30.979,43.945,31.922
		z M136.887,141.932c0.941,0.942,0.941,2.472-0.002,3.415c-0.941,0.94-2.471,0.942-3.412,0L103.4,115.275
		c1.033-1.207,1.869-2.701,2.436-4.395L136.887,141.932z" class="color c1"/>
    <path fill="#0F0E0E" d="M32.66,116.807l-28.539,28.54c-0.943,0.942-2.475,0.94-3.414,0c-0.943-0.943-0.943-2.473,0-3.415
		l28.848-28.85C30.371,114.608,31.43,115.884,32.66,116.807z M145.343,14.364c-0.942-0.94-2.471-0.94-3.413,0l-31.857,31.861
		c-1.204-0.258-3.364-2.215-3.991-2.84l-3.414-3.412c-0.626-0.629-2.582-2.786-2.839-3.992l31.859-31.859
		c0.943-0.942,0.943-2.471,0-3.414c-0.942-0.942-2.472-0.942-3.412,0L95.838,33.142c0,0-3.413,3.417,3.414,10.243l-9.598,9.599
		c1.469,0.827,2.863,1.716,4.176,2.653l8.836-8.837c6.83,6.828,10.244,3.414,10.244,3.414l32.433-32.436
		C146.286,16.837,146.286,15.307,145.343,14.364z" class="color c1"/>
    <path fill="#F7AE00" d="M34.197,85.776c0.236,0.077,0.486,0.12,0.736,0.12h21.81h6.827h10.452h6.828h18.996
		c0.039,0,0.079,0,0.118-0.002c0.379-0.02,3.757-0.283,5.777-3.458c1.989-3.125,1.762-7.753-0.673-13.75
		c-1.838-4.52-5.834-9.191-11.239-13.051c-1.313-0.937-2.707-1.825-4.177-2.652c-6.541-3.684-14.522-6.14-23.016-6.14
		c-5.534,0-12.567,1.072-19.843,4.998c-1.4,0.757-2.812,1.624-4.223,2.605c-3.612,2.512-7.225,5.797-10.688,10.081
		c-0.638,0.895-6.15,8.939-4.049,15.359C28.47,81.821,30.086,84.407,34.197,85.776z M35.604,67.347
		c3.344-4.135,6.843-7.233,10.327-9.543c1.452-0.964,2.901-1.786,4.337-2.49c6.018-2.955,11.777-3.798,16.37-3.798
		c7.047,0,13.853,1.951,19.562,4.922c1.508,0.785,2.94,1.638,4.28,2.548c4.951,3.366,8.64,7.474,10.258,11.458
		c2.384,5.864,1.705,8.428,1.09,9.438c-0.669,1.097-1.837,1.307-2.094,1.342H76.178H69.35h-1.107h-6.827H35.332
		c-1.642-0.612-2.641-1.525-3.055-2.784C31.105,74.876,34.348,69.139,35.604,67.347z M104.326,102.231h-7.141h-6.83h-43.12h-6.828
		H30.119c-1.29,0-2.336,1.044-2.336,2.336v1.168c0,2.739,0.66,5.271,1.771,7.348c0.816,1.525,1.875,2.801,3.105,3.725
		c1.381,1.035,2.971,1.634,4.665,1.634h59.797c2.404,0,4.6-1.201,6.277-3.165c1.033-1.207,1.869-2.701,2.437-4.395
		c0.526-1.574,0.826-3.313,0.826-5.146v-1.168C106.662,103.275,105.618,102.231,104.326,102.231z M101.93,106.976
		c-0.205,2.076-0.91,3.803-1.832,4.997c-0.879,1.14-1.953,1.796-2.976,1.796H37.325c-0.448,0-0.887-0.113-1.306-0.321
		c-1.234-0.611-2.3-2.05-2.937-3.892c-0.282-0.817-0.481-1.715-0.572-2.653h3.225h6.828h52.466h6.828h0.082
		C101.938,106.927,101.932,106.951,101.93,106.976z M111.939,89.929c0.037,1.289-0.978,2.366-2.269,2.403
		c-1.218,0.035-1.894,0.633-3.295,1.99c-0.487,0.469-1.002,0.962-1.576,1.453c-3.495,2.967-7.614,3.979-11.229,2.841
		c-0.344-0.109-0.686-0.229-1.02-0.377c-1.822-0.815-3.455-2.043-5.031-3.235c-0.619-0.465-1.229-0.928-1.84-1.35
		c-1.295-0.893-2.631-1.009-4.266-0.366c-0.162,0.064-0.325,0.127-0.494,0.207c-1.098,0.517-2.25,1.245-3.473,2.021
		c-2.731,1.727-5.554,3.513-8.779,3.652c-0.217,0.013-0.439,0.018-0.658,0.018c-3.505,0-7.02-1.217-10.459-3.625
		c-0.78-0.547-1.52-1.021-2.227-1.421c-1.854-1.055-3.487-1.613-5.068-1.76c-0.236-0.021-0.471-0.042-0.703-0.045
		c-1.505-0.023-2.341-0.021-2.969,0.396c-0.391,0.26-0.741,0.603-1.099,0.937c-0.514,0.483-1.032,0.958-1.591,1.344
		c-6.966,4.852-14.373,3.692-20.852-3.262c-0.878-0.943-0.826-2.422,0.117-3.301c0.943-0.88,2.42-0.827,3.303,0.117
		c4.967,5.333,9.66,6.162,14.769,2.604c0.381-0.262,0.715-0.589,1.056-0.911c0.493-0.46,1.049-0.985,1.713-1.425
		c1.873-1.24,3.852-1.206,5.442-1.178c1.7,0.024,3.271,0.341,4.708,0.827c1.717,0.579,3.244,1.398,4.583,2.245
		c0.528,0.334,1.03,0.672,1.499,1.002c2.789,1.955,5.551,2.895,8.232,2.771c1.98-0.086,4.27-1.535,6.481-2.937
		c0.966-0.612,1.955-1.238,2.963-1.782c0.339-0.183,0.679-0.356,1.021-0.517c1.44-0.678,2.86-1.027,4.234-1.057
		c1.829-0.038,3.575,0.494,5.172,1.599c0.663,0.46,1.327,0.959,1.995,1.464c1.369,1.033,2.784,2.101,4.121,2.695
		c2.155,0.955,4.896,0.302,7.321-1.759c0.498-0.42,0.938-0.846,1.357-1.252c1.559-1.504,3.324-3.207,6.4-3.298
		C110.732,87.687,111.902,88.638,111.939,89.929z M46.391,70.912c0-1.373,1.16-2.485,2.589-2.485c1.43,0,2.589,1.113,2.589,2.485
		s-1.159,2.485-2.589,2.485C47.551,73.397,46.391,72.285,46.391,70.912z M80.918,70.912c0-1.373,1.158-2.485,2.588-2.485
		s2.588,1.113,2.588,2.485s-1.158,2.485-2.588,2.485S80.918,72.285,80.918,70.912z M64.025,61.005c0-1.675,1.412-3.031,3.154-3.031
		c1.741,0,3.153,1.356,3.153,3.031s-1.412,3.032-3.153,3.032C65.438,64.037,64.025,62.68,64.025,61.005z" class="color c2"/>
  </g>
</svg>