<svg version="1.1" id="图层_1" x="0px" y="0px" width="51.1px" height="55.2px" viewBox="0 0 51.1 55.2" enable-background="new 0 0 51.1 55.2" xml:space="preserve" xmlns="http://www.w3.org/2000/svg" xmlns:xlink="http://www.w3.org/1999/xlink" xmlns:xml="http://www.w3.org/XML/1998/namespace">
  <path fill="#DCD4B6" d="M3.4,14.3c0,0.1,0.1,0.1,0.2,0.1l14.2-7.3c0.1,0,0.1-0.1,0.1-0.2l-3.5-6.8L14.3,0l0,0L0.1,7.3
	c0,0-0.1,0-0.1,0.1v0.1L3.4,14.3z M6,15.8l2.1,3.5l11.3-5.8L17.3,10L6,15.8z M1.3,28.5c-0.6,2-0.5,4.2,0.5,6.1l10.7,20.6l10.9-4
	c0.1,0,0.2-0.1,0.3-0.1l27.4-3.8L35.4,17.2c-1-1.9-2.6-3.3-4.6-3.9s-4.2-0.5-6.1,0.5L5.2,23.9C3.3,24.9,1.9,26.5,1.3,28.5z" class="color c1"/>
</svg>