<svg version="1.1" id="图层_1" x="0px" y="0px" width="141.232px" height="37.649px" viewBox="0 0 141.232 37.649" enable-background="new 0 0 141.232 37.649" xml:space="preserve" xmlns="http://www.w3.org/2000/svg" xmlns:xlink="http://www.w3.org/1999/xlink" xmlns:xml="http://www.w3.org/XML/1998/namespace">
  <path fill="#6A903B" d="M3.598,10.22c-2.258,2.292-3.636,5.447-3.597,8.917c0.037,3.469,1.487,6.594,3.795,8.835
	c6.288,6.078,14.875,9.778,24.308,9.674c5.588-0.063,11.118-0.996,15.488-3.867c2.132-1.402,3.307-2.489,5.003-3.952
	c4.746-4.087,11.627-6.74,19.504-6.334l64.576,2.813c4.784-0.054,8.61-3.971,8.557-8.747l0,0c-0.053-4.778-3.966-8.607-8.749-8.554
	l-64.497,4.252c-7.865,0.586-14.806-1.913-19.641-5.896c-1.727-1.424-2.925-2.484-5.089-3.834
	c-4.433-2.775-9.982-3.588-15.571-3.525C18.253,0.108,9.748,4.004,3.598,10.22z" class="color c1"/>
</svg>