<svg version="1.1" id="图层_1" x="0px" y="0px" width="42.552px" height="68.708px" viewBox="0 0 42.552 68.708" enable-background="new 0 0 42.552 68.708" xml:space="preserve" xmlns="http://www.w3.org/2000/svg" xmlns:xlink="http://www.w3.org/1999/xlink" xmlns:xml="http://www.w3.org/XML/1998/namespace">
  <path fill="#FFFFFF" d="M41.889,6.824l-0.025-0.016c-0.767-0.494-1.794-0.156-2.118,0.697L26.765,41.699
	c-0.313,0.825-1.269,1.202-2.061,0.812c-0.704-0.346-1.022-1.178-0.727-1.905L38.129,5.632c0.209-0.517,0.003-1.108-0.481-1.384
	l-0.02-0.011c-0.579-0.329-1.315-0.078-1.572,0.536L21.762,38.931c-0.355,0.848-1.314,1.311-2.176,0.991
	c-0.938-0.348-1.367-1.409-0.96-2.301L34.123,3.64c0.267-0.586,0.021-1.279-0.556-1.566l-0.022-0.011
	c-0.603-0.299-1.333-0.041-1.614,0.57l-14.98,32.603c-0.49,1.067-1.851,1.939-3.025,1.939l0,0c-0.896,0-1.478-0.943-1.077-1.744
	l16.953-33.81c0.289-0.577,0.03-1.278-0.566-1.527l-0.02-0.009c-0.524-0.22-1.129-0.011-1.405,0.485L8.79,34.686
	C6.607,38.6,6.976,43.244,9.348,46.704c0.896,1.306,0.984,3.004,0.228,4.395L0,68.708h8.177l7.196-14.696
	c0.681-1.392,2.071-2.324,3.62-2.357c4.458-0.097,8.687-2.812,10.418-7.321L42.465,8.528C42.696,7.896,42.455,7.189,41.889,6.824z" class="color c1"/>
</svg>