<svg version="1.1" id="图层_1" x="0px" y="0px" width="167.455px" height="53.958px" viewBox="0 0 167.455 53.958" enable-background="new 0 0 167.455 53.958" xml:space="preserve" xmlns="http://www.w3.org/2000/svg" xmlns:xlink="http://www.w3.org/1999/xlink" xmlns:xml="http://www.w3.org/XML/1998/namespace">
  <g>
    <path fill="#F5E4CE" d="M0.202,51.278C3.652,37.58,5.37,26.632,6.306,19.035c0.929-7.536,1.243-13.033,5.135-16.123
		c4.821-3.827,11.903-1.396,16.662-0.016c1.558,0.452,2.569,0.705,3.597,0.843c4.77,0.638,8.495,0.218,9.346,0.11
		c3.629-0.463,16.94-0.463,55.518,1.13c22.003-1.096,44.005-2.193,66.008-3.288c0.78,0.645,1.828,1.681,2.722,3.221
		c0.952,1.641,1.358,3.215,1.546,4.297c-0.103,0.677-0.926,5.533-5.238,8.602c-2.773,1.973-5.497,2.145-6.516,2.155
		c-17.659,0.141-26.524,0.11-31.241,0.031c-1.082-0.018-2.11-0.011-4.166,0.004c-10.314,0.074-12.231,0.559-13.672,1.088
		c-1.599,0.587-4.041,1.755-6.785,4.305c-0.784,0.718-1.567,1.434-2.351,2.152c-2.406,5.375-4.812,10.75-7.218,16.125
		c-1.264,1.792-2.53,3.584-3.794,5.376c-13.672,1.088-27.343,2.176-41.016,3.264c-6.005,0.696-12.693,1.141-19.92,1.094
		C15.572,53.34,7.279,52.465,0.202,51.278z" class="color c1"/>
    <path fill="#FFFFFF" d="M95.577,3.599l1.946-0.027l0.238-0.007l38.213-1.067c4.197-0.117,8.496-0.757,12.653-1.375
		c3.551-0.528,6.904-1.027,9.723-1.106c0.162-0.004,0.346-0.009,0.546-0.013c0.004,0,0.008,0,0.013-0.001
		c0.197-0.003,0.412-0.005,0.638-0.002c0.011,0,0.021,0,0.032,0.001c0.223,0.002,0.459,0.009,0.704,0.021
		c0.015,0.001,0.03,0.001,0.045,0.003c0.242,0.013,0.493,0.031,0.75,0.057c0.02,0.002,0.039,0.004,0.06,0.007
		c0.254,0.026,0.511,0.061,0.773,0.105c0.024,0.004,0.047,0.009,0.071,0.013c0.259,0.045,0.518,0.1,0.778,0.165
		c0.027,0.006,0.052,0.014,0.078,0.021c0.256,0.067,0.511,0.145,0.762,0.236c0.029,0.01,0.057,0.022,0.085,0.033
		c0.247,0.093,0.491,0.199,0.727,0.319c0.013,0.006,0.027,0.011,0.041,0.018c0.017,0.008,0.031,0.02,0.048,0.029
		c0.222,0.118,0.438,0.247,0.646,0.392c0.027,0.019,0.053,0.04,0.081,0.06c0.206,0.15,0.404,0.313,0.589,0.495
		c0.023,0.022,0.044,0.045,0.066,0.068c0.184,0.187,0.358,0.389,0.516,0.61c0.018,0.025,0.033,0.051,0.051,0.077
		c0.156,0.228,0.3,0.474,0.424,0.742c0.012,0.026,0.023,0.054,0.034,0.08c0.123,0.276,0.229,0.57,0.312,0.89
		c0.007,0.025,0.011,0.052,0.017,0.078c0.081,0.329,0.144,0.678,0.18,1.057c0.002,0.021,0.001,0.045,0.004,0.066
		c0.034,0.388,0.044,0.802,0.024,1.246c-0.001,0.013-0.003,0.027-0.003,0.04c-0.023,0.457-0.073,0.942-0.159,1.461
		c-1.022,6.195-4.431,10.511-7.647,13.304c-0.402,0.348-0.801,0.674-1.192,0.977c-1.173,0.906-2.272,1.605-3.164,2.114
		c-1.188,0.679-2.005,1.021-2.128,1.072l-2.162,0.884l-0.269-2.234c0-0.003-0.006-0.042-0.012-0.079
		c-0.002-0.013-0.005-0.029-0.007-0.044c-0.011-0.061-0.028-0.143-0.052-0.242c-0.003-0.013-0.008-0.029-0.011-0.042
		c-0.023-0.094-0.054-0.201-0.089-0.317c-0.008-0.024-0.014-0.047-0.022-0.073c-0.042-0.13-0.094-0.27-0.155-0.416
		c-0.012-0.03-0.027-0.06-0.04-0.09c-0.062-0.141-0.133-0.285-0.215-0.43c-0.009-0.016-0.016-0.03-0.024-0.046
		c-0.089-0.152-0.193-0.303-0.307-0.451c-0.026-0.034-0.053-0.067-0.081-0.1c-0.123-0.148-0.255-0.29-0.407-0.42
		c-0.013-0.011-0.029-0.021-0.042-0.031c-0.143-0.119-0.304-0.224-0.477-0.32c-0.05-0.028-0.098-0.057-0.151-0.082
		c-0.048-0.023-0.098-0.044-0.148-0.065c-0.087-0.036-0.178-0.069-0.271-0.098c-0.054-0.016-0.109-0.034-0.164-0.048
		c-0.103-0.026-0.212-0.046-0.322-0.063c-0.053-0.008-0.104-0.019-0.16-0.025c-0.169-0.018-0.345-0.028-0.531-0.023
		c-1.829,0.052-3.935,0.486-6.374,0.99c-3.492,0.721-7.836,1.62-13.269,1.771c-2.042,0.057-3.692,0.038-5.07-0.024
		c-1.379-0.062-2.486-0.167-3.44-0.284c-0.636-0.077-1.204-0.16-1.739-0.237c-0.744-0.108-1.411-0.205-2.113-0.268
		c-0.26-0.024-0.526-0.042-0.803-0.055c-0.164-0.008-0.285-0.011-0.294-0.012c-0.629-0.021-4.523-1.52-5.372-1.736
		c-3.207-0.818-8.344,5.119-11.213,8.436c-2.013,2.327-3.053,3.529-3.997,5.523c-2.434,5.142-0.64,7.965-2.472,11.052
		c-2.254,3.8-7.959,4.557-10.733,4.891c-16.655,1.999-39.606,2.652-43.9,2.768l-0.007,0c-0.194,0.005-4.434,0.126-8.769,0.141
		c-1.34,0.005-2.618-0.001-3.839-0.013c-0.611-0.007-1.206-0.014-1.787-0.024c-1.744-0.029-3.358-0.075-4.849-0.131
		c-0.497-0.019-0.98-0.039-1.451-0.061c-1.88-0.085-3.544-0.189-5.01-0.302c-1.465-0.113-2.731-0.234-3.813-0.354
		c-0.812-0.09-1.519-0.179-2.129-0.265c-2.035-0.284-2.99-0.515-3.106-0.544L0,51.891l0.197-1.193l0.09-0.55l6.497-39.399
		c0.036-0.218,0.074-0.448,0.115-0.688C6.981,9.582,7.075,9.064,7.19,8.527c0.229-1.074,0.54-2.226,1.003-3.311
		c0.231-0.542,0.5-1.068,0.815-1.558c0.157-0.245,0.327-0.481,0.508-0.707c1.091-1.352,2.635-2.306,4.866-2.368
		c0.498-0.014,1.035,0.02,1.596,0.1c0.375,0.054,0.753,0.107,1.148,0.159c0.396,0.053,0.809,0.104,1.256,0.157
		c0.446,0.052,0.926,0.105,1.454,0.159c0.587,0.059,1.239,0.121,1.965,0.185c0.287,0.025,0.585,0.05,0.897,0.076
		c0.319,0.026,0.647,0.053,0.997,0.08c4.414,0.342,11.33,0.758,23.475,1.366C52.259,3.121,95.506,3.599,95.577,3.599z M8.825,10.693
		c-0.63,3.286-1.233,6.571-1.832,9.855c-0.594,3.285-1.219,6.57-1.786,9.854L1.75,50.107l-0.089,0.506l0.429,0.094
		c1.745,0.381,3.464,0.612,5.22,0.809c1.747,0.21,3.509,0.344,5.272,0.477c1.768,0.111,3.535,0.228,5.315,0.281
		c1.774,0.084,3.555,0.126,5.34,0.149c0.891,0.022,1.783,0.036,2.676,0.041c0.894,0.005,1.789,0.001,2.687-0.017
		c0.896-0.009,1.792-0.016,2.689-0.03s1.794-0.033,2.695-0.066l5.394-0.166l5.406-0.255c1.8-0.072,3.607-0.195,5.414-0.311
		c1.806-0.113,3.613-0.23,5.421-0.368l5.434-0.479c1.812-0.167,3.621-0.307,5.435-0.495c1.814-0.188,3.628-0.372,5.441-0.564
		c1.814-0.193,3.629-0.394,5.446-0.617c3.635-0.459,7.268-0.908,10.905-1.403c-3.615,0.264-7.233,0.575-10.85,0.876L66.59,49.381
		c-1.806,0.141-3.607,0.233-5.41,0.351l-5.407,0.335c-1.797,0.078-3.597,0.174-5.397,0.276c-1.8,0.1-3.601,0.207-5.395,0.263
		l-5.386,0.207l-5.37,0.119c-0.896,0.025-1.79,0.037-2.682,0.043c-0.892,0.005-1.783,0.005-2.674,0.006
		c-1.784,0.005-3.568,0.024-5.343-0.008c-1.781-0.007-3.557-0.034-5.324-0.101c-1.773-0.038-3.532-0.137-5.292-0.233
		c-1.754-0.115-3.507-0.233-5.239-0.425c-1.583-0.16-3.172-0.373-4.683-0.666l0.47-3.047c1.671,0.272,5.057,0.711,10.673,0.974
		c1.123,0.053,2.336,0.099,3.641,0.135c3.917,0.108,8.673,0.13,14.381-0.009c0.951-0.024,1.929-0.052,2.933-0.084
		c3.013-0.097,6.27-0.239,9.781-0.432c4.683-0.257,9.821-0.609,15.447-1.074c4.22-0.35,8.714-0.764,13.497-1.253
		c4.783-0.489,9.855-1.05,15.229-1.696l6.141-37.238c0,0-5.817,0.081-14.268,0.054c-1.127-0.004-2.301-0.009-3.514-0.017
		c-0.606-0.004-1.223-0.008-1.848-0.013c-1.876-0.015-3.831-0.038-5.841-0.066c-0.67-0.009-1.346-0.02-2.028-0.031
		c-1.363-0.022-2.746-0.049-4.141-0.079c-2.094-0.045-4.216-0.1-6.342-0.164C53.656,5.4,50.102,5.263,46.657,5.091
		C24.605,3.982,19.605,3.507,15.304,2.89c-0.464-0.067-0.892-0.095-1.29-0.083C13.4,2.823,12.863,2.933,12.39,3.134
		c-0.316,0.134-0.601,0.308-0.863,0.521c-0.393,0.32-0.729,0.731-1.023,1.228C9.721,6.21,9.244,8.159,8.825,10.693z M135.607,4.721
		c-8.356,0.233-19.402,0.542-27.468,0.767c-1.344,0.037-2.606,0.072-3.758,0.105c-0.768,0.022-1.488,0.042-2.152,0.06
		c-2.987,0.083-4.834,0.135-4.834,0.135l-3.148,19.09l3.628-17.656l-2.45,19.716c2.177-0.463,3.889-1.727,5.604-3.14
		c0.858-0.706,1.717-1.448,2.636-2.146c0.613-0.465,1.252-0.91,1.935-1.311c0.683-0.401,1.411-0.758,2.2-1.046
		c1.184-0.432,2.506-0.711,4.024-0.753c5.783-0.162,6.966,1.742,16.832,1.467c9.865-0.275,12.678-3.489,18.462-3.651
		c3.775-0.105,5.952,1.77,7.014,3.088c0.4-0.195,0.871-0.437,1.404-0.737c1.589-0.895,3.693-2.291,5.418-4.158
		c0.217-0.231,0.425-0.471,0.625-0.716c0.2-0.245,0.391-0.496,0.575-0.749c0.177-0.257,0.351-0.514,0.513-0.777
		c0.161-0.261,0.311-0.525,0.441-0.793c0.278-0.528,0.488-1.065,0.656-1.581c0.082-0.258,0.155-0.512,0.215-0.758
		c0.06-0.247,0.108-0.487,0.141-0.717c0.047-0.232,0.072-0.453,0.088-0.663c0.017-0.21,0.026-0.41,0.044-0.6
		c-0.006-0.369,0.006-0.7-0.013-0.964c-0.048-0.528-0.076-0.83-0.076-0.83s0.07,0.286,0.193,0.788
		c0.056,0.253,0.091,0.575,0.151,0.941c0.008,0.188,0.028,0.388,0.04,0.6s0.02,0.439,0.003,0.68
		c-0.005,0.477-0.063,1.008-0.168,1.572c-0.107,0.564-0.262,1.166-0.491,1.774c-0.212,0.616-0.512,1.231-0.838,1.846
		c-0.169,0.304-0.348,0.608-0.538,0.907c-0.19,0.299-0.39,0.593-0.6,0.879c-0.612,0.844-1.288,1.625-1.979,2.337
		c-0.23,0.237-0.462,0.467-0.694,0.688c2.308-1.73,3.906-3.939,4.869-6.143c1.605-3.673,1.448-7.33-0.121-8.732
		c-0.046-0.037-0.087-0.079-0.136-0.115c-0.046-0.035-0.096-0.067-0.144-0.099c-1.295-0.882-3.276-1.154-5.724-1.085
		c-1.099,0.031-2.292,0.129-3.556,0.271c-0.843,0.095-1.718,0.207-2.619,0.333c-0.901,0.125-1.829,0.261-2.775,0.402
		c-2.841,0.422-5.86,0.881-8.891,1.178C138.626,4.572,137.108,4.68,135.607,4.721z" class="color c2"/>
    <path fill="#35211C" d="M18.064,9.605c-0.131,0.792-0.474,1.535-0.954,2.158c-0.8,1.037-1.982,1.738-3.194,1.771
		c-1.939,0.054-3.234-1.621-2.885-3.733c0.348-2.112,2.21-3.874,4.149-3.929C17.119,5.819,18.413,7.493,18.064,9.605z
		 M14.136,12.205c1.001-0.028,1.959-0.753,2.434-1.735c-0.084,0.127-0.169,0.254-0.276,0.373c-0.073,0.075-0.129,0.148-0.22,0.228
		c-0.073,0.064-0.121,0.12-0.216,0.191c-0.176,0.142-0.345,0.256-0.531,0.346c-0.367,0.187-0.762,0.296-1.144,0.313
		c-0.381,0.005-0.744-0.083-1.052-0.251c-0.31-0.161-0.555-0.433-0.719-0.711c-0.07-0.117-0.114-0.242-0.158-0.367
		C12.409,11.555,13.135,12.233,14.136,12.205z M12.681,8.653c-0.033,0.124-0.06,0.253-0.078,0.388
		c-0.051,0.371-0.013,0.784,0.134,1.141c0.049,0.119,0.109,0.231,0.184,0.334c0.156,0.228,0.357,0.384,0.59,0.509
		c0.235,0.119,0.508,0.177,0.792,0.167c0.284-0.006,0.579-0.079,0.855-0.213c0.138-0.064,0.275-0.15,0.389-0.227
		c0.055-0.03,0.136-0.107,0.202-0.158c0.049-0.035,0.111-0.105,0.166-0.153c0.335-0.332,0.57-0.737,0.709-1.129
		c0.047-0.13,0.082-0.26,0.106-0.384c0.027-0.134,0.042-0.262,0.05-0.384c-0.24-0.814-0.918-1.364-1.82-1.339
		c-0.451,0.012-0.892,0.167-1.285,0.423c-0.196,0.127-0.381,0.281-0.548,0.453C12.959,8.252,12.809,8.445,12.681,8.653z
		 M99.28,23.792c0.801-0.459,1.735-1.119,2.762-1.905c0.515-0.39,1.057-0.806,1.632-1.221c0.574-0.415,1.18-0.828,1.82-1.212
		c0.641-0.384,1.321-0.721,2.031-0.996c0.711-0.275,1.452-0.489,2.215-0.626c0.751-0.141,1.538-0.19,2.342-0.183
		c0.804,0.006,1.625,0.068,2.441,0.148c0.815,0.088,1.633,0.245,2.47,0.42s1.694,0.369,2.586,0.529
		c1.783,0.313,3.647,0.506,5.522,0.573c0.937,0.038,1.904,0.031,2.822,0.007l0.695-0.015c0.254-0.005,0.48-0.023,0.72-0.034
		c0.474-0.029,0.945-0.044,1.419-0.084c1.89-0.134,3.787-0.457,5.614-0.919c1.829-0.455,3.575-1.084,5.173-1.67
		c1.594-0.587,3.081-1.011,4.42-1.234c0.163-0.034,0.336-0.058,0.508-0.077c0.173-0.019,0.347-0.034,0.514-0.055l0.252-0.027
		l0.104-0.011l0.118-0.007c0.157-0.009,0.312-0.018,0.464-0.027c0.608-0.01,1.181,0.016,1.713,0.075
		c1.058,0.137,1.937,0.421,2.631,0.719c0.692,0.302,1.202,0.617,1.543,0.84c0.338,0.227,0.509,0.367,0.509,0.367
		s-0.075-0.099-0.231-0.278c-0.053-0.06-0.113-0.128-0.184-0.205c-0.141-0.152-0.319-0.339-0.542-0.542
		c-0.223-0.203-0.491-0.423-0.814-0.643c-0.636-0.453-1.492-0.899-2.576-1.211c-0.271-0.076-0.557-0.144-0.856-0.199
		c-0.299-0.055-0.612-0.099-0.938-0.128c-0.164-0.01-0.33-0.018-0.498-0.028l-0.127-0.007l-0.032-0.002l-0.05,0.001l-0.062,0.001
		l-0.249,0.004c-0.339,0.01-0.663-0.004-1.047,0.038c-0.373,0.023-0.754,0.065-1.139,0.122c-0.772,0.115-1.567,0.293-2.377,0.506
		c-0.405,0.107-0.813,0.223-1.223,0.345c-1.64,0.474-3.311,1.012-5.038,1.378c-0.863,0.181-1.739,0.331-2.626,0.449
		c-0.886,0.119-1.782,0.206-2.685,0.268c-0.893,0.055-1.808,0.082-2.724,0.092c-0.916,0.009-1.832-0.001-2.73-0.024
		c-1.816-0.04-3.589-0.199-5.311-0.475c-1.288-0.203-2.583-0.46-3.903-0.629c-0.44-0.056-0.883-0.104-1.33-0.135
		c-0.445-0.029-0.887-0.048-1.329-0.052c-1.325-0.014-2.637,0.099-3.96,0.417c-0.434,0.101-0.861,0.23-1.278,0.38
		c-1.251,0.45-2.413,1.096-3.417,1.805c-1.013,0.706-1.879,1.466-2.654,2.171c-0.259,0.235-0.507,0.464-0.747,0.682
		c-0.962,0.875-1.791,1.629-2.525,2.167c-0.73,0.542-1.337,0.914-1.764,1.129c-0.107,0.056-0.201,0.103-0.283,0.142
		c-0.082,0.04-0.151,0.073-0.208,0.098c-0.111,0.052-0.171,0.076-0.171,0.076s0.134-0.031,0.388-0.111
		c0.085-0.027,0.183-0.059,0.294-0.097C97.824,24.52,98.483,24.263,99.28,23.792z M106.438,10.072
		c-0.225,0.212-0.417,0.462-0.569,0.739c-0.151,0.276-0.26,0.579-0.312,0.894c-0.208,1.262,0.562,2.259,1.721,2.226
		c1.159-0.033,2.267-1.081,2.475-2.343c0.208-1.262-0.563-2.258-1.721-2.226C107.452,9.377,106.886,9.648,106.438,10.072z
		 M129.917,8.578c-0.145,0.004-0.289,0.024-0.43,0.058c-0.283,0.069-0.557,0.195-0.807,0.365c-0.626,0.426-1.107,1.132-1.237,1.92
		c-0.208,1.262,0.562,2.259,1.721,2.226c0.145-0.004,0.289-0.024,0.43-0.058c0.991-0.24,1.862-1.181,2.044-2.285
		C131.846,9.542,131.075,8.546,129.917,8.578z M149.514,9.002c-0.208,1.262,0.562,2.259,1.721,2.226
		c0.145-0.004,0.289-0.024,0.43-0.058c0.991-0.24,1.862-1.181,2.044-2.285c0.208-1.262-0.562-2.259-1.721-2.226
		c-0.145,0.004-0.289,0.024-0.43,0.058C150.567,6.956,149.696,7.899,149.514,9.002z M81.047,7.089
		c-3.758-0.08-8.141-0.173-12.837-0.273c-2.349-0.046-4.774-0.102-7.236-0.171c-2.462-0.069-4.96-0.15-7.454-0.246
		c-2.498-0.08-4.996-0.161-7.448-0.269c-2.453-0.112-4.867-0.221-7.203-0.328c-4.674-0.206-9.036-0.398-12.776-0.563
		c-1.4-0.072-2.713-0.136-3.921-0.198C21.77,5.021,21.379,5,20.999,4.979c-1.515-0.082-2.834-0.164-3.913-0.257
		c-0.811-0.065-1.49-0.125-2.022-0.175c-0.888-0.084-1.366-0.138-1.366-0.138s0.301,0.052,0.866,0.151
		c0.141,0.023,0.3,0.049,0.474,0.078c0.522,0.087,1.188,0.196,1.989,0.299c2.136,0.278,5.202,0.637,8.914,0.927
		c3.712,0.29,8.041,0.636,12.704,0.901c4.66,0.266,9.635,0.556,14.634,0.743c1.252,0.036,2.504,0.067,3.753,0.096
		c1.248,0.028,2.492,0.054,3.727,0.075c2.469,0.044,4.902,0.076,7.257,0.098c2.354,0.035,4.638,0.01,6.804-0.003
		c2.167-0.022,4.217-0.044,6.107-0.064c3.783-0.045,6.952-0.168,9.165-0.229c0.278-0.012,0.54-0.022,0.787-0.032
		c0.741-0.03,1.342-0.054,1.788-0.072c0.594-0.024,0.911-0.037,0.911-0.037s-0.314-0.006-0.901-0.018
		c-0.587-0.011-1.449-0.03-2.546-0.051c-0.823-0.017-1.777-0.036-2.847-0.057C85.502,7.179,83.396,7.137,81.047,7.089z" class="color c3"/>
  </g>
</svg>