<svg version="1.1" id="图层_1" x="0px" y="0px" width="353.082px" height="330.427px" viewBox="0 0 353.082 330.427" enable-background="new 0 0 353.082 330.427" xml:space="preserve" xmlns="http://www.w3.org/2000/svg" xmlns:xlink="http://www.w3.org/1999/xlink" xmlns:xml="http://www.w3.org/XML/1998/namespace">
  <g>
    <path fill="#C90044" d="M234.402,301.823c-1.477,0.424-2.234,2.283-1.699,4.156c0.537,1.871,2.172,3.045,3.648,2.619l22.996-6.605
		c1.475-0.428,2.236-2.285,1.697-4.158c-0.537-1.873-2.168-3.045-3.645-2.621L234.402,301.823z" class="color c1"/>
    <path fill="#09FFD6" d="M58.659,64.737c-1.124,1.051-0.95,3.054,0.38,4.475s3.319,1.721,4.441,0.673l17.46-16.361
		c1.119-1.052,0.95-3.055-0.38-4.477c-1.332-1.418-3.32-1.721-4.443-0.669L58.659,64.737z" class="color c2"/>
    <path fill="#A4C2FE" d="M136.009,301.671c-1.893,0.467-3.124,2.055-2.756,3.545l5.751,23.229c0.373,1.49,2.2,2.32,4.09,1.852
		c1.893-0.471,3.126-2.055,2.755-3.545l-5.751-23.227C139.729,302.034,137.897,301.202,136.009,301.671z" class="color c3"/>
    <path fill="#F89424" d="M181.23,20.125c1.229-1.51,1.264-3.52,0.072-4.491L162.754,0.517c-1.19-0.972-3.15-0.532-4.382,0.978
		c-1.229,1.507-1.265,3.519-0.073,4.49l18.549,15.117C178.037,22.07,179.998,21.634,181.23,20.125z" class="color c4"/>
    <path fill="#F89424" d="M351.119,147.385c1.686-0.978,2.43-2.845,1.658-4.175l-11.994-20.705c-0.77-1.331-2.758-1.614-4.445-0.636
		c-1.682,0.974-2.428,2.843-1.658,4.173l11.994,20.704C347.443,148.074,349.433,148.36,351.119,147.385z" class="color c4"/>
    <path fill="#F89424" d="M2.423,145.164c1.333,1.421,3.321,1.719,4.441,0.665l17.432-16.395c1.116-1.05,0.94-3.055-0.392-4.471
		c-1.336-1.419-3.323-1.717-4.441-0.665L2.031,140.692C0.913,141.746,1.09,143.749,2.423,145.164z" class="color c4"/>
    <path fill="#B8FF75" d="M336.742,206.489l6.846,22.928c0.436,1.471,2.307,2.213,4.172,1.656s3.023-2.199,2.584-3.672l-6.844-22.928
		c-0.439-1.475-2.309-2.215-4.176-1.655C337.458,203.374,336.302,205.017,336.742,206.489z" class="color c5"/>
    <path fill="#09FFD6" d="M68.218,273.085l-19.852,13.361c-1.274,0.855-1.426,2.859-0.338,4.477c1.087,1.615,3,2.23,4.276,1.375
		l19.85-13.361c1.276-0.857,1.426-2.863,0.336-4.479C71.403,272.843,69.492,272.226,68.218,273.085z" class="color c2"/>
    <path fill="#09FFD6" d="M256.369,41.926c0.957,1.696,2.816,2.458,4.156,1.702l20.836-11.763c1.336-0.754,1.645-2.743,0.688-4.437
		c-0.957-1.697-2.816-2.457-4.152-1.705l-20.838,11.765C255.72,38.246,255.412,40.229,256.369,41.926z" class="color c2"/>
    <path fill="#08048D" d="M296,272.38c-0.605,1.85,0.088,3.738,1.549,4.217l22.74,7.441c1.459,0.479,3.133-0.635,3.736-2.484
		c0.607-1.854-0.084-3.736-1.541-4.215l-22.744-7.443C298.279,269.419,296.607,270.528,296,272.38z" class="color c6"/>
    <path fill="#C90044" d="M26.954,209.829L3.16,207.334c-1.529-0.16-2.933,1.279-3.136,3.218c-0.203,1.934,0.872,3.633,2.4,3.793
		l23.794,2.496c1.529,0.16,2.932-1.279,3.136-3.215C29.557,211.69,28.484,209.991,26.954,209.829z" class="color c1"/>
  </g>
</svg>