<svg version="1.1" id="图层_1" x="0px" y="0px" width="182.3px" height="112.4px" viewBox="0 0 182.3 112.4" enable-background="new 0 0 182.3 112.4" xml:space="preserve" xmlns="http://www.w3.org/2000/svg" xmlns:xlink="http://www.w3.org/1999/xlink" xmlns:xml="http://www.w3.org/XML/1998/namespace">
  <path fill="#FFFFFF" d="M53.8,66.6l0.9,42.1l-28.2,3.7l-9.9-41l4.8-11.8l-0.7-5.2l24.8-3.2l0.7,5.2L53.8,66.6z M90.6,73.9
	c-9.1-6.7-23.1-2.1-32.3-8.5c-5.5-3.8-8-11.1-6.7-17.6c1.4-7,6.8-12.7,13.4-15.1C88.3,24,110.3,47,108.4,69.8
	c-0.2,2.3-0.6,4.6-1.8,6.6c-1.1,2-3.1,3.6-5.4,3.8C97,80.4,94,76.3,90.6,73.9z M95,68c3,0.6,5.9-1.3,6.6-4.3c0.6-3-1.3-5.9-4.3-6.6
	c-3-0.6-5.9,1.3-6.6,4.3S92,67.4,95,68z M17.3,6.2c-0.2,1.9-0.4,3.7-0.6,5.6l12.1,4.5c0.9-2.3,1.8-4.5,2.8-6.8
	c-0.2,2.5-0.4,5.1-0.6,7.6l2.6,1c4.5,1.7,9.4-0.5,11.3-4.8c6.3,6.3,16.8,12,24.9,13.4c-3.3-4-8.5-8-14.1-11
	c6.2,1.4,12.8,1.7,17.9,0.8c-4.4-2.7-10.7-4.6-17-5.6c6.3-0.8,12.6-2.7,17.1-5.3c-8.1-1.6-19.8,0.1-28,3.7c-0.2-4.6-4-8.4-8.8-8.4
	H26.7c-0.9,1.4-1.9,2.8-3.2,3.9c-0.1-1.3,0-2.6,0.2-3.9H12.1c-0.3,0.8-0.7,1.6-1,2.4c-0.2-0.8-0.4-1.6-0.5-2.4H2.9
	c-3.1,0-3.9,4.3-1,5.3l12.6,4.7C15.1,9.1,16,7.5,17.3,6.2z M104.8,30.5l0.3-2c0.2-1.3-1.2-2.2-2.3-1.5l-3,1.9
	c-1.1,0.7-0.9,2.3,0.3,2.7l1.8,0.6c-2.1,2.2-2.3,5.7-0.2,8.1c7.8,9.1,11.9,21.2,11.2,33.1c-0.2,3.8-0.9,6.8-2.1,9.2
	c-1.2,2.4-3.1,4.2-5.1,4.8c-2.3,0.7-5.5,0.1-8.4-1.7c-3.3-2-6.2-5.3-9-8.4c-1.8-2-4.7-2.5-7-1.5l0.3-2.7c0.2-1.3-1.2-2.2-2.3-1.5
	l-3,1.9c-1.1,0.7-0.9,2.3,0.3,2.7l2.8,0.9c-2.1,2.3-2.2,5.8-0.1,8.2C82.6,88.9,86.2,93,91,96c4.3,2.7,9,3.9,13.4,3.8
	c1.7-0.1,3.4-0.4,5-0.9c5.1-1.6,9.5-5.6,12.2-10.8c2-3.9,3.1-8.4,3.4-13.9c0.8-15.1-4.3-30.3-14.1-41.7
	C109.3,30.6,107,30,104.8,30.5z M182,8.7c-0.2-0.6-0.5-1.1-1-1.7c-0.4-0.5-1-1.1-1.7-1.6c-0.7-0.6-1.5-1-2.4-1.4s-1.9-0.7-3-1
	c-2.2-0.5-4.7-0.7-7.4-0.5c0,0,0,0-0.1,0c1.7,1.3,3.1,3.1,3.8,5.1c0.3,0.7-0.6,1.3-1.2,0.8c-2.5-2.4-5.7-4-9.1-4.6
	c-3.4,1-6.8,2.6-10.1,4.7c-0.4,0.2-0.8,0.5-1.1,0.8c1.9,0.9,3.6,2.2,5,3.7c1.3,1.4,2.4,3,3.2,4.6c0.4,0.8-0.5,1.5-1.2,1
	c-1.8-1.4-3.7-2.7-5.7-3.7c-2-0.9-4.3-1.5-6.5-1.4c-0.5,0.4-1,0.9-1.5,1.4c-2.4,2.5-4.7,5.3-6.7,8.3c-0.4,0.6-0.8,1.3-1.1,1.9
	c2-0.3,4.1-0.3,6.1,0c3,0.5,5.8,1.6,8.3,3.3c0.9,0.6,0.3,2-0.7,1.8c-5.5-1-11.2-0.8-16.6,0.5c-2.5,5.7-3.8,11.5-4.1,16.8
	c4.2-1.2,8.7-1.4,13-0.5c0.6,0.1,0.6,1.1,0,1.2c-4.6,0.7-9.1,2.5-13,5.1c0.1,1.7,0.4,3.4,0.7,5c1,4.8,3.1,8.5,5.4,10.7
	c1.1,1.1,2.3,1.8,3.4,2.1c1.1,0.3,2.1,0.3,3.1-0.1c1-0.3,1.9-0.9,2.7-1.7c0.8-0.8,1.5-1.6,2.2-2.6c1.4-2,2.8-4.3,4.3-7.1
	c1.5-2.7,3.2-5.9,5.1-9.5c0.4-0.9,1-1.7,1.5-2.6c0.5-0.9,1-1.8,1.6-2.7c1-1.8,2.2-3.6,3.3-5.4c1.2-1.8,2.3-3.5,3.5-5.1
	s2.3-3.1,3.5-4.5c2.3-2.9,4.4-5.2,6.2-7.3c2-2.3,3.6-4.1,4.8-5.5c0.4-0.4,0.7-0.8,1.1-1.3c0.4-0.4,0.7-0.8,1-1.2
	c0.7-0.8,1.3-1.7,1.6-2.7C182.4,10.8,182.4,9.8,182,8.7z M56.1,33.4c-1.8-5.1-5.9-9.7-10.8-12c-1.3-0.6-2.7-1-4.1-1.3
	c-1.4,1.3-3.3,2.3-5.2,2.6c-2.2,0.3-4.4-0.1-6.3-1.2c-1.7,1.2-2.8,3-1.8,5.3c0.8,1.8,2.6,2.9,4.4,3.6c1.8,0.6,3.8,0.9,5.6,1.6
	c0.1,0,0.2,0.1,0.3,0.1c-0.9,2.6-2.6,4.9-4.8,6.5c-1.5,1.1-3.2,1.9-4.3,3.4c-1,1.2-1.4,2.9-1.2,4.4c0.2,1.5,1.1,3,2.3,3.9
	c0.9,0.6,2,1,3,0.9c1.5-0.2,2.6-1.5,3.2-2.8c0.6-1.4,0.8-2.9,1.1-4.3c0.8-3.4,2.6-6.6,5.1-9.1c0.6,0.6,1.2,1.2,1.6,1.8
	c1,1.3,1.7,2.9,2.7,4.2c0.7,0.9,1.6,1.7,2.6,2.2C49.7,43.2,51.3,37.4,56.1,33.4z M105.9,5.6c1.3,0.4,2.4,1.1,3.5,1.9
	c-1.9,1.7-3.3,4.2-3.6,6.7c-0.2,1.3-0.1,2.7,0.4,3.9c1.6,4,5.6,6.6,6.5,10.9c4.8,5.2,8.2,11.6,9.8,18.5c0.5,0,1,0,1.5,0
	c0.4-4.5,1-8.9,2.2-13.3c1.2-4.3,2.9-8.4,5.5-12c-1.9-1.5-3.9-3-4.4-5.6c-0.2-1.2-0.3-2.5-0.6-3.8c-0.7-3.1-3-5.9-5.9-7.2
	c-2.8-1.3-6.1-1.2-8.9,0.1c-2.5-3-7.2-5.1-11.2-5.1c-1.5,1-2.5,3.2-2.3,5C100.9,4.9,103.5,4.8,105.9,5.6z M167.3,63
	c-0.2-0.9-0.3-2.1-0.5-3c-1.4,0.5-2.7,1.2-3.7,2.2c-0.3-1-0.5-2-0.8-3c-0.9,0.7-2,1.3-2.9,2c-0.3-0.9-0.6-1.8-0.9-2.7
	c-0.9,0.7-1.9,1.1-2.8,1.8c-0.2-0.9-0.4-1.8-0.6-2.7c-0.5,0.2-0.9,0.5-1.4,0.8c-1.9,3.2-3.8,6.3-5.6,9.5c-1.4,2.3-2.7,4.6-4.7,6.3
	c-1.6,1.3-3.6,2.3-5.6,2.3c-2.4,7.1-4,14.5-4.7,21.8c0,1.6-0.1,3.4-0.1,5c0.6-0.5,1.3-1,1.9-1.4c-0.1,1.5,0.1,3,0.8,4.3
	c0.8-0.7,1.6-1.4,2.4-2.1c0.4,1.4,0.8,2.9,1.3,4.3c0.9-0.8,1.8-1.5,2.7-2.3c0.4,1.2,0.9,2.4,1.3,3.6c1.1-1,2.3-1.7,3.7-2.2
	c0.3,1.2,0.9,2.2,1.8,3c1-0.8,2-1.6,3-2.4c0.3,1,0.8,2,1.5,2.8c0.8-0.9,1.6-1.8,2.4-2.7c0.8,0.9,1.6,1.7,2.4,2.6
	c1.3-1.7,2.5-3.9,2.5-3.9l9.8-39.8c0,0,0.5-3.9,0.1-5.8C169.3,61.9,168.2,62.2,167.3,63z M109.3,102c-6.7,2-14.1,0.3-20.1-3.4
	c-5.6-3.5-10.1-8.5-13.9-13.9c0,0,0,0-0.1,0l-2.5,1c-1.5,0.6-2.5,2-2.7,3.5L69.7,92L62,91.2c-0.8-0.1-1.5,0.5-1.6,1.3L60,98
	c-0.1,0.8,0.5,1.5,1.3,1.6l7.7,0.8l-0.3,2.8c-0.2,1.6,0.5,3.1,1.9,4l2.2,1.5c1.8,1.2,3.9,1.9,6.1,1.9l37.4,0.2
	c1.8,0,3.4-1.4,3.6-3.2l1.3-11.8c0.1-0.6,0-1.1-0.2-1.6C117.7,97.8,113.8,100.7,109.3,102z M24,43.8l3.2-3.8
	c-3.5,0.5-8.4-1.3-12.9-5.1C9.7,31.2,7,26.7,6.8,23.2L3.7,27C1.3,29.9,4,35.9,9.6,40.6C15.2,45.2,21.6,46.7,24,43.8z M24.4,22.8
	c-5.6-4.6-12-6.1-14.4-3.3c-2.3,2.8,0.3,8.9,5.9,13.5s12,6.1,14.4,3.3c0.7-0.8,0.9-2,0.8-3.2c-1.4-0.7-3-1.1-4.2-2.1
	c-1.2-0.9-2-2.4-2.1-3.9c-0.1-1.2,0.1-2.4,0.7-3.4C25.1,23.4,24.8,23.1,24.4,22.8z M78.5,4.8L78.5,4.8l0.7,2.5h-0.1
	c-0.7,0.2-1.2,0.9-1,1.6c0.2,0.7,0.9,1.2,1.6,1h0.1l3.1,12.8c-1.6,1.3-2.9,2.9-3.6,4.9c5.9,1.1,11.5,3.4,16.5,6.8
	c0.3-3.1,1.4-6.4,3.3-8.9c-1.7-2.6-4.4-4.3-7.4-4.9L88.5,7.7h0.1c0.7-0.2,1.2-0.9,1-1.6s-0.9-1.2-1.6-1h-0.1l-0.6-2.5h0.1
	c0.7-0.2,1.2-0.9,1-1.6s-0.9-1.2-1.6-1h-0.1l-8.8,2.1h-0.1c-0.7,0.2-1.2,0.9-1,1.6S77.7,5,78.5,4.8z M60.5,72.7
	c-1,0.7-2,1.4-2.9,2.1l0.1,8.2l6.7,4.4l3.3,0.3l0.2-1.6c0.1-1.2,0.8-2.2,1.7-2.9L70.3,72c-1.1-0.1-2.3-0.2-3.4-0.3
	c-1.3-0.1-2.7-0.2-3.9-0.8C62.1,71.5,61.3,72.1,60.5,72.7z M129.7,10.5c1.4,0.4,2.8,0.1,4.2-0.3c0,0.6-0.2,1.2-0.4,1.8
	c-0.4,1.2-1,2.4-1.1,3.7s0.5,2.8,1.7,3.2c1.3,0.4,2.7-0.5,3.3-1.7s0.5-2.6,0.5-4c-0.1-1.2-0.1-2.3-0.2-3.5c1.5,0.2,2.9,1,4.3,0.8
	c1.5-0.2,2.7-1.6,2.9-3.2s-0.5-3.1-1.6-4.1s-2.5-1.7-4-2.1c-1.2-0.3-2.5-0.4-3.7-0.3C132.2,1,125.4,3.4,127,8
	C127.4,9.1,128.4,10.1,129.7,10.5z M181,25.5c-0.5-0.3-1.1-0.4-1.6-0.2c-0.4,0.1-0.9,0.4-1.1,0.8c0.1-0.7-0.2-1.4-0.7-1.7
	s-1.3-0.4-1.9,0c-0.6,0.3-0.9,1-0.8,1.7c0.1,0.7,0.8,1.8,1.3,2.3c-1.1,3.5-3.1,6.4-5.2,9.4c-0.1,0.1-0.2,0.1-0.3,0.2
	c-3,1.8-6.5,3-8.9,5.6c-2.1,2.3-3.2,5.7-2.3,8.8c0.8,3,3.7,5.5,6.9,5.5c3,0,5.7-2,7.1-4.6c1.4-2.6,1.7-5.7,1.6-8.6
	c-0.1-1.9-0.2-3.9-0.5-5.8c1.6-3.1,2.8-6.5,3.9-9.9c0.8,0.1,2.1,0.1,2.8-0.3c0.5-0.4,0.8-1,0.7-1.7C181.8,26.3,181.5,25.8,181,25.5z
	 M125.7,91.9c-0.5,5.2,0.4,10.5,2.3,14.2c1-4,3.1-9.6,3.6-14.5s0.8-9.8,0.6-13.9C129.6,80.9,126.1,86.7,125.7,91.9z M45.3,43.2
	c-2.3,0-2.3,3.6,0,3.6S47.6,43.2,45.3,43.2z M19.5,50.5c1.4,0,1.4-2.2,0-2.2C18.1,48.4,18.1,50.5,19.5,50.5z M13.2,46.7
	c-2.3,0-2.3,3.6,0,3.6C15.6,50.3,15.6,46.7,13.2,46.7z M76.5,26.7c1.4,0,1.4-2.2,0-2.2C75.1,24.6,75.1,26.7,76.5,26.7z M97.4,19.1
	c3.2,0,3.2-5,0-5C94.2,14.1,94.2,19.1,97.4,19.1z M101.9,12.3c2.3,0,2.3-3.6,0-3.6C99.6,8.7,99.6,12.3,101.9,12.3z M95.1,10.1
	c1.4,0,1.4-2.2,0-2.2C93.7,7.9,93.7,10.1,95.1,10.1z M59.5,102c-3.2,0-3.2,5,0,5C62.7,107.1,62.7,102,59.5,102z M57.3,88.2
	c-2.3,0-2.3,3.6,0,3.6C59.6,91.8,59.6,88.2,57.3,88.2z M48.7,53.5c-1.4,0-1.4,2.2,0,2.2C50.1,55.6,50.1,53.5,48.7,53.5z" class="color c1"/>
</svg>