<svg version="1.1" id="图层_1" x="0px" y="0px" width="189.718px" height="169.801px" viewBox="0 0 189.718 169.801" enable-background="new 0 0 189.718 169.801" xml:space="preserve" xmlns="http://www.w3.org/2000/svg" xmlns:xlink="http://www.w3.org/1999/xlink" xmlns:xml="http://www.w3.org/XML/1998/namespace">
  <path fill="#7CBE60" d="M189.347,5.792c-0.293-0.212-0.311-0.346-0.045-1.09c0.271-0.813,0.264-1.316-0.062-2.726
	c-0.104-0.421-0.246-0.571-0.73-0.708c-0.326-0.093-0.801-0.117-1.046-0.038c-0.645,0.19-1.292,0.176-1.234-0.031
	c0.073-0.258,1.523-0.518,2.052-0.369c0.314,0.089,0.456,0.036,0.529-0.222c0.141-0.497-0.938-0.762-2.154-0.515
	c-1.963,0.372-3.488,0.85-3.634,1.106c-0.151,0.271-1.146,0.307-1.073,0.049c0.078-0.276-0.678-0.361-1.42-0.164
	c-0.992,0.28-2.559,1.099-2.642,1.388c-0.034,0.12-0.277,0.254-0.541,0.275c-0.263,0.018-0.494,0.118-0.518,0.205
	c-0.025,0.088-0.571,0.36-1.197,0.61c-0.625,0.25-1.175,0.557-1.209,0.676c-0.029,0.106-0.256,0.301-0.491,0.417
	c-0.237,0.122-0.452,0.285-0.476,0.368c-0.063,0.225-1.781,1.372-3.143,2.12c-0.782,0.409-1.198,0.754-1.281,1.048
	c-0.068,0.239-0.447,0.668-0.826,0.953c-0.399,0.293-0.728,0.608-0.748,0.677c-0.024,0.087-0.198,0.242-0.375,0.341
	c-0.18,0.113-0.394,0.405-0.464,0.648c-0.131,0.465-0.167,0.455-1.021,0.193c-0.493-0.16-1.616-0.716-2.471-1.241
	c-0.875-0.507-1.756-0.939-1.96-0.942c-0.221-0.008-0.732-0.227-1.141-0.492c-0.491-0.303-1.129-0.538-1.971-0.707
	c-0.811-0.155-1.217-0.304-1.183-0.425c0.03-0.106,0.148-0.182,0.263-0.188c0.11-0.003,0.369-0.393,0.537-0.866
	c0.274-0.703,0.309-1.011,0.134-1.576c-0.371-1.313-1.39-2.232-1.832-1.652c-0.094,0.122-0.315,0.189-0.486,0.141
	c-0.188-0.053-0.461-0.022-0.602,0.087c-0.159,0.105-0.497,0.178-0.773,0.174c-0.573-0.014-1.447,0.384-1.539,0.711
	c-0.035,0.124-0.132,0.207-0.215,0.183c-0.088-0.025-0.431,0.325-0.754,0.75l-0.604,0.812l-1.027-0.157
	c-2.893-0.466-4.408-0.434-4.562,0.114c-0.064,0.226-0.329,0.3-0.957,0.291c-1.384-0.024-2.508,0.139-2.577,0.383
	c-0.034,0.12-0.27,0.236-0.534,0.256l-0.878,0.009c0.393-0.981-0.47-2.004-2.411-2.887c-1.297-0.591-3.359,0.325-4.052,1.783
	c-0.195,0.427-0.223,0.738-0.093,0.997c0.095,0.191,0.153,0.635,0.139,0.948c-0.039,0.526-0.115,0.599-0.513,0.635
	c-0.249,0.019-1.115,0.256-1.932,0.525c-0.812,0.253-1.651,0.516-1.827,0.56c-0.186,0.057-0.92,0.297-1.634,0.522
	c-0.715,0.225-1.358,0.395-1.409,0.381c-0.05-0.014-0.258-0.46-0.467-0.966c-0.189-0.522-0.471-0.968-0.609-1.007
	c-0.15-0.043-0.47-0.303-0.725-0.578c-0.637-0.702-1.665-0.805-2.752-0.317c-1.219,0.569-2.717,2.39-2.758,3.322
	c0,0.263-0.081,0.424-0.187,0.394c-0.119-0.034-0.25,0.302-0.352,0.978c-0.17,1.009-0.204,1.055-0.901,1.414
	c-0.414,0.215-0.81,0.367-0.911,0.338c-0.345-0.098-5.404,3.016-5.505,3.374c-0.039,0.138-0.318,0.283-0.657,0.355
	c-0.314,0.075-0.607,0.18-0.632,0.268c-0.018,0.063-0.285,0.287-0.597,0.477c-0.988,0.594-2.212,1.584-2.276,1.809
	c-0.038,0.133-0.187,0.206-0.325,0.167c-0.138-0.039-0.271-0.023-0.291,0.047c-0.024,0.087-0.267,0.277-0.555,0.453
	c-0.436,0.289-0.638,0.287-1.604,0.013c-0.942-0.267-1.127-0.265-1.49,0.021c-0.216,0.182-0.837,0.603-1.383,0.949
	c-1.825,1.152-3.188,3.067-2.658,3.759c0.182,0.214,0.179,0.417-0.042,0.802c-0.139,0.294-0.345,0.499-0.429,0.476
	c-0.104-0.03-0.348,0.179-0.573,0.448c-0.23,0.288-0.553,0.569-0.729,0.664c-0.187,0.081-0.359,0.236-0.388,0.337
	c-0.034,0.12-0.407,0.386-0.826,0.62c-0.42,0.234-0.797,0.515-0.832,0.639c-0.034,0.12-0.132,0.201-0.233,0.173
	c-0.244-0.069-1.429,1.045-1.493,1.396c-0.026,0.161-0.141,0.446-0.264,0.616c-0.391,0.52-1.146,1.344-1.272,1.402
	c-0.083,0.031-0.247,0.224-0.385,0.448c-0.382,0.633-3.18,3.759-3.669,4.103c-0.233,0.173-0.587,0.633-0.749,1.01
	c-0.181,0.376-0.714,1.208-1.173,1.843c-0.456,0.632-1.437,1.988-2.153,3.007c-0.717,1.023-1.401,1.998-1.537,2.163
	c-0.141,0.169-0.334,0.446-0.433,0.603c-0.185,0.265-0.244,0.209-0.466-0.444c-0.199-0.613-0.353-0.792-0.834-0.928
	c-0.309-0.087-0.655-0.11-0.736-0.019c-0.074,0.068-0.292,0.101-0.462,0.053c-0.344-0.097-2.464,1.105-3.296,1.868
	c-0.403,0.388-0.735,0.964-1.177,2.121c-0.551,1.438-0.616,1.718-0.531,2.611c0.106,1.257,0.218,1.512,0.72,1.654
	c0.206,0.058,0.466,0.316,0.551,0.544c0.128,0.389,0.094,0.508-0.376,1.065c-0.281,0.328-1.063,1.334-1.739,2.215
	c-0.679,0.886-1.383,1.725-1.561,1.899c-0.173,0.153-0.409,0.46-0.508,0.69c-0.163,0.362-0.279,0.388-1.324,0.202
	c-1.484-0.251-1.864-0.155-3.166,0.832c-1.228,0.929-1.85,2.074-1.5,2.804c0.108,0.215,0.124,0.422,0.039,0.458
	c-0.074,0.049-0.185,0.653-0.248,1.335l-0.12,1.268l-1.028,1.14c-0.564,0.62-1.124,1.426-1.258,1.76
	c-0.12,0.354-0.418,0.826-0.67,1.053c-0.244,0.208-0.468,0.404-0.492,0.437c-0.005,0.018-0.343-0.227-0.74-0.542
	c-1.224-0.978-2.15-1.056-4.304-0.274c-1.73,0.622-2.468,1.382-3.094,3.207c-0.396,1.136-0.427,1.439-0.288,2.388l0.169,1.105
	l-0.985,0.723c-0.542,0.405-1.109,0.71-1.262,0.667c-0.312-0.088-1.313,0.498-2.267,1.306c-0.346,0.311-1.339,1.066-2.185,1.7
	c-0.87,0.631-2.116,1.559-2.801,2.085c-0.682,0.513-2.142,1.529-3.233,2.243c-1.095,0.709-2.065,1.383-2.153,1.502
	c-0.105,0.104-0.514,0.376-0.952,0.603l-0.776,0.394l-0.275-0.466c-0.365-0.625-1.417-1.032-2.255-0.897
	c-0.878,0.158-3.694,1.643-4.085,2.167c-0.212,0.293-0.42,1.027-0.681,2.405c-0.471,2.593-0.621,3.052-1.195,3.5
	c-0.262,0.206-0.5,0.472-0.53,0.577c-0.028,0.102-0.141,0.162-0.228,0.138c-0.101-0.028-0.288,0.104-0.434,0.285
	c-0.15,0.199-0.655,0.614-1.153,0.935c-0.486,0.329-1.507,1.059-2.245,1.63c-0.762,0.584-1.447,1.041-1.548,1.013
	c-0.088-0.024-0.209,0.144-0.277,0.383c-0.146,0.517-0.378,0.489-0.831-0.14c-0.429-0.591-1.063-0.771-1.889-0.535
	c-0.83,0.227-2.066,1.193-2.218,1.727c-0.059,0.207-0.2,0.372-0.301,0.343c-0.119-0.033-0.267,0.351-0.419,1.217l-0.249,1.284
	l-1.425,1.084c-0.797,0.589-1.642,1.222-1.898,1.408c-0.496,0.363-1.001,1.168-0.861,1.393c0.112,0.199,1.143-0.105,1.154-0.34
	c0.016-0.125,0.096-0.195,0.197-0.168c0.258,0.074,0.128,0.336-0.233,0.49c-0.167,0.082-0.34,0.217-0.364,0.303
	c-0.025,0.09-0.533,0.707-1.133,1.389c-0.596,0.666-1.113,1.299-1.142,1.4c-0.03,0.107-0.26,0.338-0.516,0.525
	c-0.275,0.18-0.64,0.559-0.834,0.842c-0.183,0.262-0.717,0.834-1.177,1.281c-0.478,0.441-0.891,0.916-0.93,1.055
	c-0.044,0.154-0.237,0.434-0.424,0.639c-0.577,0.598-1.41,2.367-1.281,2.682c0.153,0.322-0.258,0.596-0.69,0.475
	c-0.41-0.115-1.265,1.203-1.605,2.457c-0.156,0.553-0.622,2.143-1.062,3.562c-0.44,1.432-0.754,2.664-0.702,2.809
	c0.143,0.338-0.176,2.398-0.703,4.645C0.178,132.36,0,133.444,0,133.762c0,1.838,0.116,3.797,0.26,4.733
	c0.092,0.582,0.131,1.164,0.092,1.303c-0.04,0.139,0.07,0.928,0.248,1.758c0.173,0.828,0.28,1.625,0.237,1.777
	c-0.087,0.309,0.393,3.137,0.71,4.176c0.696,2.332,0.787,2.801,0.595,3.213c-0.412,0.807,0.863,3.303,2.919,5.742
	c1.603,1.885,4.847,4.656,6.171,5.295c0.913,0.443,1.292,0.734,1.585,1.209c0.763,1.234,3.415,2.432,8.759,3.945
	c1.875,0.531,4.356,1.139,5.511,1.377c1.165,0.217,2.741,0.551,3.513,0.717c1.506,0.311,5.375,0.756,5.736,0.654
	c0.121-0.041,0.341-0.031,0.484-0.012c0.52,0.131,2.468,0.197,3.032,0.117c0.324-0.035,1.003-0.068,1.497-0.057
	c1.688,0.07,7.416-0.945,7.518-1.309c0.038-0.133,0.156-0.215,0.274-0.182c0.103,0.029,0.753-0.045,1.435-0.15
	c0.666-0.123,1.281-0.193,1.35-0.174c0.051,0.014,0.412-0.086,0.788-0.238c0.382-0.154,0.965-0.248,1.293-0.23
	c0.754,0.086,3.79-0.543,4.432-0.896c0.951-0.531,2.74-1.102,5.27-1.701c0.775-0.172,1.966-0.521,2.687-0.766
	c0.718-0.24,1.325-0.42,1.375-0.404c0.102,0.027,2.29-0.803,3.451-1.309c0.53-0.223,1.041-0.393,1.16-0.357
	c0.107,0.029,0.222-0.066,0.261-0.203c0.04-0.139,0.143-0.238,0.248-0.209c0.221,0.062,1.619-0.418,1.96-0.693
	c0.279-0.197,0.331-0.183,0.738,0.412c0.401,0.602,0.497,0.666,1.455,0.824c1.156,0.18,1.554,0.145,3.389-0.301
	c1.613-0.398,2-0.641,2.542-1.695c0.546-1.018,1.053-3.527,0.82-4.02c-0.144-0.277,0.011-0.426,1.18-1.15
	c0.737-0.443,1.366-0.895,1.4-1.016c0.028-0.1,0.229-0.213,0.45-0.203c0.209-0.016,0.572-0.246,0.798-0.535
	c0.229-0.289,0.529-0.483,0.666-0.443c0.138,0.039,0.291-0.045,0.33-0.184c0.035-0.125,0.19-0.283,0.348-0.314
	c0.139-0.035,0.396-0.221,0.581-0.406c0.162-0.18,0.38-0.307,0.467-0.281c0.189,0.053,1.01-0.283,1.055-0.439
	c0.014-0.051,0.676-0.496,1.481-0.973c0.788-0.482,1.594-1.055,1.783-1.258c0.759-0.844,1.79-1.535,2.154-1.434
	c0.22,0.062,0.494-0.047,0.697-0.305c0.333-0.387,0.356-0.398,0.434-0.025c0.329,1.523,1.296,1.982,2.706,1.269
	c1.27-0.625,2.331-1.809,2.634-2.951c0.209-0.74,0.202-1.096-0.079-1.879c-0.28-0.787-0.291-1.01-0.067-1.221
	c0.156-0.146,0.432-0.402,0.609-0.576c0.165-0.174,0.496-0.434,0.739-0.57c0.768-0.486,3.06-2.545,3.143-2.838
	c0.073-0.26,0.816-1.107,1.1-1.27c0.312-0.17,1.182-0.961,1.617-1.451c0.283-0.332,0.614-0.592,0.767-0.602
	c0.135-0.016,0.275-0.125,0.315-0.266c0.039-0.137,0.244-0.336,0.466-0.457c0.22-0.125,0.589-0.375,0.802-0.553
	c0.389-0.318,0.407-0.312,0.545,0.039c0.121,0.312,0.309,0.42,0.979,0.541c0.466,0.074,1.011,0.043,1.208-0.049
	c0.195-0.115,0.589-0.188,0.877-0.16c0.279,0.006,0.52-0.057,0.544-0.145c0.025-0.088,0.146-0.127,0.283-0.088
	c0.137,0.039,0.585-0.223,1-0.586c0.708-0.6,0.792-0.76,1.172-2.102c0.398-1.408,0.394-1.465,0.003-2.172l-0.419-0.75l1.105-1.225
	c1.461-1.609,1.942-2.014,2.338-1.902c0.189,0.053,0.645-0.17,1.068-0.49c0.618-0.479,0.749-0.684,0.818-1.256
	c0.033-0.363,0.146-0.648,0.235-0.623c0.082,0.023,0.307-0.174,0.504-0.414c0.201-0.258,0.456-0.48,0.553-0.51
	c0.101-0.025,0.437,0.363,0.754,0.881c0.564,0.902,0.637,0.959,1.446,1.113c0.991,0.172,1.532-0.027,2.308-0.867
	c0.64-0.674,2.312-3.705,2.584-4.668c0.205-0.721,0.043-1.92-0.381-2.727c-0.13-0.258-0.136-0.502-0.032-0.531
	c0.101-0.023,0.324-0.293,0.468-0.605c0.178-0.361,0.42-0.572,0.649-0.582c0.183-0.002,0.451-0.225,0.596-0.476
	c0.128-0.26,0.392-0.525,0.564-0.605c0.166-0.061,0.335-0.271,0.385-0.447c0.054-0.189,0.179-0.303,0.262-0.279
	c0.107,0.031,0.22-0.102,0.273-0.289c0.055-0.195,0.164-0.326,0.247-0.303c0.107,0.031,0.523-0.334,0.955-0.807
	c0.426-0.457,0.949-0.863,1.185-0.906c0.256-0.045,0.905-0.578,1.553-1.291c0.621-0.678,1.209-1.252,1.289-1.27
	c0.1-0.025,0.199-0.18,0.244-0.336c0.048-0.172,0.369-0.582,0.729-0.947c0.365-0.359,0.872-0.902,1.127-1.221
	c0.408-0.516,0.512-0.56,0.882-0.361c0.219,0.137,0.916,0.428,1.537,0.679c1.778,0.667,2.146,0.344,3.49-3.155
	c0.836-2.158,0.876-2.37,0.903-3.787c0.026-1.463,0.041-1.514,0.54-2.092c0.277-0.335,0.695-0.882,0.902-1.23
	c0.223-0.33,0.689-0.923,1.017-1.292c0.344-0.365,0.789-0.943,1.018-1.292c0.226-0.344,0.587-0.832,0.814-1.104
	c0.2-0.257,0.401-0.573,0.43-0.674c0.034-0.12,0.591-0.91,1.243-1.765c0.632-0.864,1.566-2.195,2.042-2.968
	c1.598-2.553,1.551-2.511,2.427-2.393c0.677,0.098,0.77,0.159,0.806,0.56c0.048,0.55,0.425,0.657,1.53,0.433
	c0.741-0.122,0.946-0.268,1.338-0.862c0.416-0.608,0.461-0.838,0.493-1.812c0.008-0.609,0.14-1.332,0.26-1.634
	c0.199-0.441,0.162-0.695-0.256-1.593c-0.258-0.594-0.625-1.126-0.798-1.174c-0.396-0.112-0.465-0.594-0.134-0.833
	c0.136-0.091,0.395-0.484,0.576-0.86c0.182-0.376,0.409-0.719,0.491-0.751c0.103-0.025,0.22-0.196,0.274-0.39
	c0.054-0.188,0.37-0.784,0.726-1.314c0.338-0.535,0.904-1.617,1.244-2.415c0.601-1.404,0.946-1.902,2.405-3.586
	c0.385-0.447,0.749-0.94,0.792-1.092c0.123-0.433-0.368-0.478-0.829-0.091l1.334-1.813c0.193-0.109,0.734-0.363,1.202-0.584
	c0.708-0.341,0.868-0.499,1.17-1.248c0.176-0.487,0.39-0.853,0.457-0.834c0.189,0.054,0.562-0.546,0.887-1.424
	c0.225-0.602,0.21-0.938,0.011-1.666c-0.34-1.174-0.859-1.689-1.604-1.621c-0.384,0.036-0.572-0.018-0.671-0.19
	c-0.208-0.377-0.041-0.702,0.335-0.596c0.346,0.098,0.577-0.19,0.838-1.059c0.068-0.244,0.396-1.061,0.71-1.841
	c0.679-1.611,1.14-3.115,1.625-5.426c0.35-1.55,0.369-1.619,0.93-1.962c0.33-0.185,0.676-0.494,0.784-0.671
	c0.123-0.169,0.278-0.329,0.362-0.36c0.101-0.026,0.379-0.692,0.644-1.486l0.465-1.448l-0.918-0.354
	c-0.771-0.293-0.939-0.43-1.01-0.843c-0.051-0.271-0.044-0.678,0.025-0.921c0.145-0.516,0.383-3.196,0.325-3.45
	c-0.063-0.187-0.068-2.399-0.021-3.662c0.029-0.439-0.075-0.916-0.222-1.066c-0.136-0.167-0.163-0.398-0.059-0.573
	c0.085-0.165,0.117-0.414,0.047-0.563c-0.058-0.125-0.093-0.453-0.059-0.702c0.061-0.354,0.16-0.436,0.479-0.386
	c0.214,0.026,0.428-0.062,0.467-0.201c0.039-0.138,0.265-0.353,0.506-0.488c0.33-0.184,0.507-0.471,0.682-1.088
	c0.21-0.741,0.19-0.93-0.178-1.481c-0.696-1.012-1.34-1.417-2.699-1.729l-1.238-0.295l-0.975-1.925
	c-0.558-1.052-0.963-2.036-0.924-2.174c0.039-0.137,0.358-0.42,0.739-0.645c0.364-0.235,0.704-0.525,0.744-0.663
	c0.044-0.156-0.169-0.773-0.461-1.393c-0.569-1.199-0.913-1.426-1.88-1.218c-0.315,0.06-0.695,0.082-0.832,0.043
	c-0.233-0.087-0.991-1.081-0.943-1.25c0.015-0.051,0.403-0.314,0.873-0.588c0.452-0.285,1.091-0.714,1.412-0.936
	c1.666-1.216,8.455-4.476,9.002-4.321c0.088,0.025,0.27-0.034,0.374-0.138c0.222-0.196,1.809-0.546,2.102-0.463
	c0.119,0.033,0.651-0.019,1.183-0.127c0.547-0.088,1.068-0.16,1.151-0.137c0.107,0.03,0.439-0.084,0.764-0.25
	c0.325-0.166,0.668-0.273,0.773-0.243c0.083,0.023,0.205-0.072,0.244-0.209c0.123-0.433,0.859-0.741,1.287-0.545
	C189.624,7.058,190.087,6.334,189.347,5.792z" class="color c1"/>
</svg>