<svg version="1.1" id="图层_1" x="0px" y="0px" width="116.96px" height="60.09px" viewBox="0 0 116.96 60.09" enable-background="new 0 0 116.96 60.09" xml:space="preserve" xmlns="http://www.w3.org/2000/svg" xmlns:xlink="http://www.w3.org/1999/xlink" xmlns:xml="http://www.w3.org/XML/1998/namespace">
  <path fill="#2A7BCE" d="M36.474,8.584h-8.558c-4.533,0-8.284,3.528-8.567,8.052L16.636,60.09h16.619L36.474,8.584z" class="color c1"/>
  <path fill="#2A7BCE" d="M10.713,17.177c-4.515,0.018-8.25,3.528-8.533,8.044L0,60.09h8.035L10.713,17.177z" class="color c1"/>
  <path fill="#2A7BCE" d="M100.332,60.09l-2.713-43.454c-0.281-4.524-4.033-8.052-8.565-8.052h-8.55l3.22,51.506H100.332z" class="color c1"/>
  <path fill="#2A7BCE" d="M116.96,60.09l-2.182-34.869c-0.283-4.516-4.018-8.026-8.531-8.044l2.687,42.913H116.96z" class="color c1"/>
  <path fill="#2A7BCE" d="M71.867,8.052C71.583,3.528,67.832,0,63.3,0h-9.631c-4.532,0-8.284,3.528-8.567,8.052L41.848,60.09h33.263
	L71.867,8.052z" class="color c1"/>
</svg>