<svg version="1.1" id="图层_1" x="0px" y="0px" width="164.689px" height="170.242px" viewBox="0 0 164.689 170.242" enable-background="new 0 0 164.689 170.242" xml:space="preserve" xmlns="http://www.w3.org/2000/svg" xmlns:xlink="http://www.w3.org/1999/xlink" xmlns:xml="http://www.w3.org/XML/1998/namespace">
  <path fill="#DDA800" d="M82.344,0C36.867,0,0,38.11,0,85.121c0,10.684,1.922,20.898,5.398,30.32
	c6.952-33.967,33.256-37.945,33.256-37.945c-21.833,13.097-28.817,49.975-15.266,67.023c14.957,15.859,35.837,25.723,58.954,25.723
	c45.479,0,82.347-38.111,82.347-85.121C164.689,38.11,127.822,0,82.344,0z" class="color c1"/>
  <path fill="#C49205" d="M74.162,41.318c0,0-3.67,3.221-1.942,7.708c1.729,4.488,6.909,2.171,13.102,2.606
	c6.188,0.434,6.262-1.05,4.822-4.958C88.703,42.766,81.828,34.514,74.162,41.318z" class="color c2"/>
  <path fill="#C49205" d="M135.176,71.275c-1.405-2.052-3.366-2.589-5.747-2.396c-1.226,0.099-2.31,0.695-3.06,1.572
	c-1.158,1.255-1.395,3.068-1.061,4.928c-0.107,0.398-0.211,0.786-0.257,1.124c-0.143,1.104-0.254,2.377-0.118,3.475
	c0.297,2.415,2.317,3.728,4.375,4.589c4.778,2.002,7.713-3.113,7.811-7.127C137.172,75.274,136.383,73.037,135.176,71.275z" class="color c2"/>
  <path fill="#C49205" d="M54.512,90.775c0.524-2.096-0.253-3.689-1.74-5.141c-0.767-0.746-1.773-1.114-2.771-1.103
	c-1.477-0.041-2.787,0.843-3.801,2.128c-0.32,0.156-0.631,0.311-0.875,0.475c-0.797,0.539-1.686,1.195-2.322,1.912
	c-1.395,1.578-1.088,3.656-0.467,5.496c1.439,4.281,6.437,3.272,9.094,1.039C53.061,94.375,54.059,92.576,54.512,90.775z" class="color c2"/>
  <path fill="#C49205" d="M106.486,102.802c-1.057-1.719-2.738-2.979-4.514-3.936c-0.759-0.683-1.75-1.041-2.744-1.037
	c-1.539-0.181-3.056,0.395-3.939,1.912c-0.401,0.69-0.565,1.549-0.508,2.393c-0.42,2.068,0.191,4.285,1.154,6.371
	c1.578,3.416,5.377,5.244,8.813,3.336C107.902,110.089,108.221,105.625,106.486,102.802z" class="color c2"/>
  <path fill="#C49205" d="M60.412,137.125c-0.953-2.813-4.164-4.515-6.475-2.041c-0.16,0.172-0.281,0.351-0.386,0.529
	c-1.135,1.443-1.938,3.107-2.34,4.885c-0.508,1.016-0.811,2.164-0.768,3.289c0.106,2.92,3.42,4.543,5.998,4.42
	c2.602-0.125,4.936-2.813,5.106-5.354c0.009-0.106,0.005-0.211,0.002-0.315C61.734,140.734,60.92,138.626,60.412,137.125z" class="color c2"/>
  <path fill="#C49205" d="M130.752,126.654c-0.686-2.572-3.385-4.254-5.985-4.039c-2.957,0.242-5.035,2.51-5.453,5.313
	c-0.281,0.91-0.183,1.943,0.237,2.906C122.09,136.666,132.346,132.632,130.752,126.654z" class="color c2"/>
  <path fill="#C49205" d="M31.107,62.478c0.496-1.432,0.432-3.012,0.147-4.498c0.037-0.766-0.225-1.514-0.694-2.091
	c-0.623-0.981-1.67-1.59-2.968-1.384c-0.592,0.094-1.166,0.405-1.627,0.84c-1.396,0.739-2.393,2.147-3.146,3.699
	c-1.232,2.542-0.498,5.622,2.229,6.715C27.555,66.763,30.293,64.828,31.107,62.478z" class="color c2"/>
  <path fill="#563C00" d="M139.541,69.682c-1.403-2.052-3.367-2.588-5.746-2.396c-1.227,0.1-2.311,0.696-3.061,1.573
	c-1.158,1.255-1.394,3.068-1.06,4.928c-0.106,0.398-0.213,0.786-0.256,1.124c-0.145,1.104-0.256,2.377-0.119,3.475
	c0.298,2.415,2.316,3.729,4.373,4.589c4.781,2.001,7.716-3.113,7.813-7.127C141.537,73.682,140.748,71.445,139.541,69.682z" class="color c3"/>
  <path fill="#563C00" d="M58.975,90.292c0.524-2.097-0.25-3.689-1.738-5.141c-0.768-0.747-1.773-1.115-2.773-1.104
	c-1.477-0.041-2.784,0.844-3.799,2.127c-0.319,0.158-0.631,0.312-0.877,0.476c-0.797,0.539-1.686,1.195-2.32,1.913
	c-1.395,1.578-1.088,3.654-0.469,5.496c1.441,4.279,6.438,3.273,9.094,1.038C57.525,93.892,58.523,92.093,58.975,90.292z" class="color c3"/>
  <path fill="#563C00" d="M109.799,101.548c-1.059-1.719-2.739-2.98-4.514-3.938c-0.76-0.68-1.752-1.039-2.746-1.034
	c-1.539-0.182-3.053,0.393-3.938,1.911c-0.404,0.69-0.568,1.548-0.511,2.392c-0.42,2.068,0.191,4.287,1.154,6.373
	c1.578,3.416,5.377,5.242,8.813,3.334C111.215,108.835,111.531,104.371,109.799,101.548z" class="color c3"/>
  <path fill="#563C00" d="M63.146,138.33c-0.951-2.812-4.164-4.514-6.476-2.039c-0.157,0.17-0.28,0.35-0.385,0.528
	c-1.135,1.444-1.938,3.106-2.338,4.884c-0.51,1.016-0.811,2.164-0.77,3.289c0.106,2.92,3.422,4.545,5.997,4.422
	c2.604-0.125,4.938-2.813,5.109-5.354c0.008-0.106,0.004-0.212,0-0.315C64.471,141.94,63.656,139.833,63.146,138.33z" class="color c3"/>
  <path fill="#563C00" d="M132.912,125.351c-0.686-2.572-3.387-4.254-5.988-4.04c-2.954,0.243-5.032,2.51-5.45,5.312
	c-0.281,0.912-0.185,1.945,0.235,2.908C124.25,135.363,134.504,131.33,132.912,125.351z" class="color c3"/>
  <path fill="#563C00" d="M76.514,38.181c0,0-3.67,3.221-1.943,7.708c1.729,4.488,6.91,2.171,13.102,2.606
	c6.189,0.434,6.263-1.05,4.822-4.958C91.055,39.629,84.18,31.377,76.514,38.181z" class="color c3"/>
  <path fill="#563C00" d="M33.699,62.181c0.496-1.432,0.432-3.011,0.148-4.499c0.034-0.764-0.226-1.513-0.697-2.089
	c-0.623-0.982-1.67-1.591-2.967-1.384c-0.593,0.093-1.164,0.405-1.625,0.84c-1.396,0.738-2.394,2.147-3.146,3.699
	c-1.233,2.542-0.498,5.622,2.229,6.715C30.146,66.466,32.885,64.53,33.699,62.181z" class="color c3"/>
</svg>