<svg version="1.1" id="图层_1" x="0px" y="0px" width="198.369px" height="112.621px" viewBox="0 0 198.369 112.621" enable-background="new 0 0 198.369 112.621" xml:space="preserve" xmlns="http://www.w3.org/2000/svg" xmlns:xlink="http://www.w3.org/1999/xlink" xmlns:xml="http://www.w3.org/XML/1998/namespace">
  <g>
    <path fill="#FB895B" d="M36.108,37.02c-4.406-5.382-3.588-9.676,2.453-12.881c15.947-7.974,34.656-7.79,26.988,2.454
		c-4.487,6.912-7.954,13.72-8.587,20.241c0,6.747-5.52,7.36-9.2,3.68L36.108,37.02z M180.859,27.819
		c-9.216-2.852-17.514-1.885-25.148,1.84c-5.541,3.114-11.781,4.753-19.014,4.294c-8.182-0.371-14.527,0.939-19.476,3.526
		c1.433,7.793,3.285,14.996,5.982,21.009c1.764,4.787,1.98,9.667,0.644,14.1c-1.362,4.52-1.854,9.257-1.854,13.978v11.134
		c0,2.446-1.943,4.45-4.388,4.527l-4.635,0.145c-2.338,0.073-4.195,1.989-4.195,4.328v2.309c0,2.113-1.814,3.803-3.969,3.597
		c-1.879-0.179-3.259-1.865-3.259-3.753V98.784c0-2.053-1.762-3.694-3.856-3.494c-1.825,0.174-3.166,1.812-3.166,3.645v2.431
		c0,2.234-1.917,4.02-4.196,3.803c-1.987-0.189-3.446-1.971-3.446-3.967v-2.957c0-1.641-1.33-2.972-2.972-2.972h-2.081
		c-2.342,0-4.241-1.899-4.241-4.241v-1.289c-7.406-2.436-12.741-8.274-15.108-18.988c-3.68-17.787-3.68-50.908,34.961-54.589
		c9.345-2.198,14.746,0.042,17.533,9.359l-0.492-7.216c-0.273-3.998,2.537-7.548,6.491-8.201l59.884-9.889
		c10.161-1.356,15.086,3.714,17.174,12.267C200.226,31.723,191.345,31.202,180.859,27.819z M184.54,12.792
		c0-2.202-1.785-3.987-3.987-3.987c-2.202,0-3.987,1.785-3.987,3.987s1.785,3.987,3.987,3.987
		C182.755,16.779,184.54,14.994,184.54,12.792z M59.561,93.441c-1.806,1.717-2.731,4.166-2.731,6.658v4.607
		c0,1.717-1.437,3.098-3.174,3.007c-1.628-0.085-2.85-1.547-2.85-3.178v-0.331c0-1.431-1.197-2.582-2.645-2.506
		c-1.357,0.071-2.375,1.289-2.375,2.648v2.862c0,2.644-2.268,4.758-4.964,4.504c-2.349-0.222-4.078-2.325-4.085-4.684l-0.014-4.477
		c-0.005-1.674-1.509-2.947-3.16-2.668c-1.92,0.325-3.917,0.651-6.043,0.925C11.041,103.398,6.667,92.835,3.6,80.568
		C1.146,70.141,0.533,59.714,0.226,56.954c-2.855-34.888,21.979-32.79,36.801-12.881c4.6,6.44,7.667,10.12,12.88,14.721
		C60.884,69.302,68.108,85.314,59.561,93.441z M21.387,46.22c0-3.726-3.02-6.747-6.747-6.747c-3.726,0-6.747,3.021-6.747,6.747
		c0,3.726,3.021,6.747,6.747,6.747C18.366,52.967,21.387,49.946,21.387,46.22z" class="color c1"/>
    <path opacity="0.8" fill="#FFFFFF" d="M92.829,22.304c-7.838,0.002-20.073,10.227-22.094,19.792
		c-0.424,2.009,1.014,3.919,2.986,3.919h0.08c0.993,0,1.912-0.522,2.479-1.372c4.969-7.451,10.765-12.689,17.6-15.138
		c1.697-0.608,2.692-2.434,2.257-4.25l-0.06-0.25C95.704,23.443,94.373,22.303,92.829,22.304z" class="color c2"/>
  </g>
</svg>