<svg version="1.1" id="图层_1" x="0px" y="0px" width="30.971px" height="5.23px" viewBox="0 0 30.971 5.23" enable-background="new 0 0 30.971 5.23" xml:space="preserve" xmlns="http://www.w3.org/2000/svg" xmlns:xlink="http://www.w3.org/1999/xlink" xmlns:xml="http://www.w3.org/XML/1998/namespace">
  <path fill="#4C0000" d="M30.971,3.891c0,0-0.121-0.049-0.348-0.142c-0.225-0.093-0.567-0.202-0.99-0.341
	c-0.426-0.138-0.953-0.259-1.545-0.4c-0.595-0.135-1.276-0.232-2.008-0.321c-0.735-0.081-1.528-0.129-2.362-0.138
	c-0.835-0.005-1.712,0.046-2.611,0.128c-0.45,0.058-0.905,0.116-1.367,0.176c-0.457,0.086-0.921,0.172-1.389,0.259
	c-0.468,0.081-0.906,0.219-1.364,0.323C16.758,3.492,16.54,3.538,16.3,3.605l-0.736,0.227c-0.477,0.143-1.018,0.319-1.438,0.435
	c-0.521,0.149-1.039,0.299-1.553,0.446c-1.058,0.223-2.101,0.437-3.15,0.477C8.906,5.248,8.387,5.233,7.879,5.208
	C7.625,5.2,7.375,5.19,7.129,5.171C6.881,5.134,6.636,5.097,6.395,5.06C5.914,5.005,5.451,4.879,5.008,4.745
	C4.563,4.642,4.151,4.448,3.76,4.282c-0.396-0.147-0.742-0.397-1.077-0.58C2.355,3.496,2.074,3.25,1.806,3.044
	C1.291,2.585,0.901,2.142,0.642,1.733C0.36,1.346,0.218,0.99,0.119,0.762C0.024,0.524,0,0.396,0,0.396S0.373,0.79,1.11,1.265
	c0.365,0.239,0.84,0.47,1.37,0.705c0.556,0.196,1.172,0.39,1.866,0.497c0.347,0.056,0.7,0.115,1.08,0.123
	c0.187,0.013,0.377,0.025,0.57,0.037c0.194-0.005,0.393-0.01,0.593-0.014C6.788,2.607,6.99,2.605,7.194,2.6
	C7.399,2.577,7.608,2.553,7.82,2.53c0.209-0.021,0.421-0.043,0.635-0.064c0.214-0.029,0.431-0.085,0.65-0.117
	c0.872-0.131,1.773-0.382,2.685-0.62c0.455-0.142,0.913-0.283,1.374-0.427c0.504-0.148,1.01-0.296,1.515-0.445l0.74-0.214
	c0.255-0.065,0.543-0.114,0.812-0.171c0.546-0.096,1.094-0.241,1.629-0.29c0.535-0.055,1.065-0.108,1.589-0.162
	c0.528-0.006,1.051-0.013,1.563-0.02c1.028,0.04,2.016,0.131,2.938,0.315c0.921,0.177,1.777,0.42,2.54,0.707
	c1.528,0.574,2.682,1.292,3.416,1.869C30.644,3.469,30.971,3.891,30.971,3.891" class="color c1"/>
</svg>