<svg version="1.1" id="图层_1" x="0px" y="0px" width="243.7px" height="331.5px" viewBox="0 0 243.7 331.5" enable-background="new 0 0 243.7 331.5" xml:space="preserve" xmlns:xml="http://www.w3.org/XML/1998/namespace" xmlns="http://www.w3.org/2000/svg" xmlns:xlink="http://www.w3.org/1999/xlink">
  <g>
    <g>
      <g>
        <g>
          <path fill="#FFFFFF" d="M101.363,153.082l-6.899,23.6c0,0-4.7-6.8-19-15.3l0,0c-1.899-1.1-4.101-2.3-6.399-3.5
					c-19.301-10-24.601-16.8-22.9-20.5c-2.6-1.1-16.801-9.6-23.2-19.1c-5.899-0.3-7.601-3.601-7.399-6.9c-0.9-0.8-2-1.8-3.101-3
					c-0.7-0.7-1.3-1.5-2-2.3c-0.101-0.2-0.3-0.3-0.399-0.5l0,0c-2.5-3.5-5-7.9-6.601-13.5c-1.8-6.2-3.601-17.4-1.601-30.3
					c1.101-7.2,3.301-14.9,7.301-22.5c11.3-21.3,42-34.7,46.3-36.601c4.3-1.899,6.5-2.199,10.5-1.1c0,0-7.101,15.4-10.7,20.5
					c-3.6,5.2-9,14.1-11.8,21.3c3.899-0.2,6.3-4.1,7.7-5.6s2.199-4.3,3.199-8.7c0.101,1,1.201,1.8,1.201,1.8
					c2.799-3.2,3.699-8.899,3.699-8.899l1,1.5c0,0,3.9-7.2,4.1-9c0.201-1.7,0.201-8.301,0.201-8.301c1.699,0.2,3.5,0.9,4.799,2.601
					c3.201,4.399,1.601,17.399-1,24c-2.6,6.6-4,19.3-4.899,23.899c-0.899,4.601-5.2,10.801-5.2,10.801s3.6-1.301,5.6-0.801
					c-0.1,3.101-2.799,6-2.799,6s3.899,0.4,4.6,1c-1.5,3.2-10.6,7.301-10.6,7.301s4.199-0.301,6.299,0.5
					c-0.799,2.199-5.5,4.3-10.6,5.399c3.301,0.601,5.4,3.101,5.4,3.101c-3,2.699-9.4,4.3-9.4,4.3c-1.5,3.899-4.4,6.2-4.4,6.2
					s17,15.8,21.4,18.5c4.4,2.699,2.801,2.6,13.4,14.5c3.699,4.1,7.699,7.699,11.4,10.6l0.199,0.2l0,0
					C95.664,149.882,101.363,153.082,101.363,153.082z" class="color c1"/>
        </g>
      </g>
    </g>
  </g>
  <g>
    <g>
      <g>
        <g>
          <path fill="#0D1822" d="M101.363,153.082l-6.899,23.6c0,0-4.7-6.8-19-15.3l0,0c-0.399-2.399-6.601-7.7-6.601-7.7
					c1.4-1.3,1.5-3.399,1.5-3.399s6.201-1.101,9.9-2.3c3.7-1.2,7.9-4.101,7.9-4.101l0.4,0.3l0.199,0.2l0,0
					C95.664,149.882,101.363,153.082,101.363,153.082z" class="color c2"/>
        </g>
      </g>
    </g>
  </g>
  <path fill="#0D1822" d="M55.463,129.082c-7.3-1.9-15.899-9-18.601-12.7c0.601-5.399,6.5-10.399,7.201-10.5
	c0.699-0.2,3.5,0.7,5.1,2.2s4.3,2.6,4.3,2.6l-11.101-10.1l2-2.1c0,0,0.201-1.2-0.399-1.5c-0.7-0.301-7.5,2.699-9.8,2.399
	c5,3.7,6.5,2.4,6.5,2.4s-6.7,8.7-7.4,9.399c-0.699,0.7-2.6,0.801-5.3,0.2c-0.899-0.2-1.601-0.6-2.2-1c1.2-0.3,2.801-0.7,3.7-1.3
	c-1-2-5.899-2.1-5.899-2.1s-6.801-10.2-8.201-21c0-0.301-0.1-0.601-0.1-0.9c0-0.5-0.1-1-0.1-1.6c0-0.5-0.1-1.101-0.1-1.601
	c0-2.1,0-4.3,0.199-6.5c0.2-2.2,0.5-4.399,0.801-6.6c-1.201,1.899-2.201,3.899-3.101,6c-0.2,0.5-0.399,1.1-0.601,1.6
	c0.101-2.399,0.201-4.8,0.4-7.1c0.301-4.2,0.9-8.4,2-12.5c1.1-4.101,2.7-8.101,4.7-11.8c2-3.801,4.399-7.4,6.899-10.9
	c-2.899,3.2-5.6,6.6-8.1,10.2c-2.4,3.6-4.5,7.5-6.1,11.7c-0.7,1.8-1.301,3.699-1.801,5.6c0.4-2.8,0.9-5.7,1.801-8.4
	c1.199-3.8,2.8-7.5,4.8-11s4.2-6.899,6.601-10.199c-2.701,3-5.4,6.199-7.801,9.5c-2.4,3.3-4.6,6.899-6.199,10.8
	c-0.801,1.8-1.5,3.7-2,5.6c0-0.1,0-0.2,0-0.3c0.1-0.9,0.299-1.8,0.5-2.7c0.199-0.899,0.399-1.8,0.699-2.7
	c0.301-0.899,0.5-1.8,0.801-2.6c1.199-3.5,2.899-6.9,4.899-10.1c2-3.301,4.101-6.4,6.3-9.601c-2.6,2.8-5.1,5.7-7.5,8.8
	c-2.4,3-4.6,6.301-6.3,9.801c-0.5,0.899-0.8,1.8-1.2,2.699c-0.4,0.9-0.699,1.9-1.1,2.801c-0.301,0.899-0.6,1.899-0.9,2.8
	c-0.199,1-0.5,1.899-0.699,2.899c-0.201,1-0.4,2.101-0.601,3.101l-0.7-0.8c-1.9,12.699-0.1,24,1.7,30.1c1.601,5.5,4.101,10,6.7,13.4
	l0,0c0.1,0.1,0.3,0.3,0.4,0.5l0,0c0.399,0.8,1.1,1.6,2,2.3c3.1,2.6,8.399,4.5,11.299,2.5l1.301,1.2c0,0-1,2.399-2.6,3.3
	c-1.701,0.899-4.5,0.5-5.301-0.7v1.4c2.2,2.3,5.801,2.199,5.801,2.199l1,1.4c1.199,2.4,11,8.5,15.299,8.6c2.5,3.9,7.9,6.7,11.5,6.2
	c-1.6-0.3-5.799-1.899-7.399-5.899c2.5,2.5,7.3,4.699,10.2,3.8c-3.5-0.5-6.4-3.101-7.4-5.101
	C47.963,128.382,51.664,129.282,55.463,129.082z M3.664,89.382c-0.301-1.399-0.6-2.8-0.801-4.2c-0.199-1.399-0.399-2.8-0.5-4.199
	c-0.1-1.4-0.199-2.801-0.299-4.2c0-1.4,0-2.8,0-4.2c0.1-2.8,0.399-5.7,0.899-8.4c0.101,2.7,0.101,5.5,0.2,8.301
	c0.1,2.8,0.3,5.6,0.5,8.399c0.1,1.4,0.3,2.8,0.4,4.2c0.199,1.4,0.399,2.8,0.6,4.2c0.4,2.8,1,5.5,1.699,8.2
	C5.164,94.882,4.263,92.182,3.664,89.382z" class="color c2"/>
  <path fill="#C40A0A" d="M53.664,142.982c1.8,0.199,3.5,0.3,5.3,0.3c0.899,0,1.8,0,2.601,0c0.899,0,1.799,0,2.6,0
	c1.8,0,3.5-0.101,5.3-0.101c1.8-0.1,3.5-0.1,5.3-0.199c-1.699,0.699-3.4,1-5.199,1.3c-1.801,0.3-3.601,0.399-5.4,0.399
	c-1.801,0-3.6-0.1-5.4-0.3C57.064,144.182,55.363,143.782,53.664,142.982z M64.064,148.482c2.199,0.1,4.399,0,6.6-0.301
	c2.199-0.3,4.3-0.8,6.4-1.399c1-0.3,2.1-0.7,3.1-1.101c0.5-0.199,1-0.399,1.5-0.699c0.5-0.301,1-0.5,1.4-0.9l-3.301,0.2
	c-1.1,0.1-2.199,0.2-3.199,0.3c-2.101,0.2-4.301,0.5-6.4,0.8l-6.301,0.9c-2.1,0.3-4.199,0.6-6.399,0.899
	C59.664,147.982,61.863,148.382,64.064,148.482z M68.363,151.582h0.9c0.301,0,0.6,0,0.9,0c0.6,0,1.199,0,1.8-0.1
	c0.601-0.101,1.2-0.2,1.8-0.2c0.6-0.101,1.2-0.2,1.801-0.4c2.399-0.6,4.699-1.399,6.799-2.6c0.5-0.3,1.101-0.601,1.601-0.9
	s1-0.7,1.5-1c1-0.7,1.899-1.5,2.8-2.3c-0.6,0.1-1.199,0.3-1.8,0.5s-1.101,0.4-1.7,0.6l-1.699,0.601l-0.801,0.3l-0.8,0.3
	c-2.2,0.7-4.399,1.3-6.601,1.9c-0.6,0.1-1.1,0.3-1.699,0.399c-0.6,0.101-1.1,0.2-1.7,0.301c-0.601,0.1-1.101,0.199-1.7,0.3l-0.8,0.1
	l-0.899,0.101c-2.301,0.399-4.601,0.5-7,0.8C63.463,150.982,65.863,151.482,68.363,151.582z" class="color c3"/>
  <path fill="#FFFFFF" d="M88.363,176.982h-0.1c-14.9-0.601-37.1-6.801-37.1-6.801s-0.1,0.2-0.301,0.5l0,0
	c-5.799-4.6-19.5-23.1-19.5-23.1s0.4-4.9,2.601-8.7c-2.2,0.3-5.601,2.7-5.601,2.7l0.101-5.2c-2.399,2.4-3.101,7.601-3.101,7.601
	l-3.1-2.9c0,0-0.8,3.2,4.7,12.5s17,19.2,22.2,21.9l0,0c0,0.5,0.1,0.898,0.199,1.3c8.9,4,23.701,5.8,33.9,6.7
	c6.5,0.6,11.2,0.699,11.2,0.699v-7.399C92.664,176.982,90.564,176.982,88.363,176.982z" class="color c1"/>
  <path fill="#C40A0A" d="M94.463,177.282v6.899c0,0-4.601-0.101-11.2-0.699c-1.9-2.4,1.6-5.801,5-6.5l0,0h0.1L94.463,177.282z
	 M54.363,178.582l6.4-1.6c-3.9-1.801-9-1.602-9.9,0.398L54.363,178.582z M23.963,149.982c0.399,0.6,0.7,1,1.101,1.5
	c0.199,0.199,0.399,0.399,0.5,0.6c0.199,0.2,0.399,0.4,0.5,0.6c0.199,0.2,0.399,0.4,0.5,0.601c0.199,0.2,0.399,0.399,0.5,0.7
	c0.299,0.5,0.5,1.1,0.799,1.6c0.301,0.5,0.701,0.9,1.201,1.1c0.5,0.301,1,0.5,1.5,0.7s1.1,0.3,1.699,0.4c0.6,0.1,1.2,0.1,1.9,0
	c-0.801-0.7-1.6-1.4-2.4-2.101c-0.8-0.699-1.6-1.399-2.3-2.199c-0.399-0.4-0.8-0.7-1.101-1.101l-1.1-1.1
	c-0.699-0.7-1.4-1.5-1.699-2.2L23.963,149.982z" class="color c3"/>
  <path fill="#FFFFFF" d="M89.263,190.282L89.263,190.282c-9.9,0.1-21.199-1.101-23.9-3.3c-3.299-2.7-5-3.5-7.1-1.7
	c-3,0.5-23.6-8.9-23.6-8.9s-0.801,1.2-1.1,3l0,0c-0.4-0.1-0.801-0.2-1.201-0.399c-13.399-4.301-26.5-11.7-26.5-11.7
	s0.5,2.1,1.701,4.399c1.199,2.5,3.199,5.301,6.1,5.899c2.9,0.7,6.699,1.7,10.6,2.899c2.4,0.699,4.801,1.601,7,2.5
	c1.1,0.399,2.1,0.899,3,1.301v-0.1c0.301,0.801,0.801,1.7,1.5,2.5c0,0,13.801,5.2,23.801,7.5c0.399,0.102,0,1.5,0.799,1.801
	c1.801,0.699,2.201-1.199,2.9-1c5.9,1,15.4,1.5,22.6,1.699c4.801,0.102,8.601,0.102,9.701,0v-6.6
	C93.463,190.182,91.463,190.282,89.263,190.282z" class="color c1"/>
  <path fill="#C40A0A" d="M24.064,180.682c-3.9-1.199-7.701-2.199-10.601-2.898c-2.8-0.7-4.8-3.5-6.101-5.9
	c2.601,2,11.801,6.602,15.4,7.5C23.564,179.582,23.963,180.082,24.064,180.682z M89.263,190.282L89.263,190.282
	c-3.6,1.2-3.6,6.5-3.6,6.5c4.8,0.1,8.6,0.1,9.699,0v-6.7C93.463,190.182,91.463,190.282,89.263,190.282z M65.463,194.982
	c0.601-0.102,1.101-0.301,1.7-0.4c1-0.4,2.1-0.6,3.3-0.7c1.101-0.1,2.3-0.1,3.5-0.1s2.399,0.1,3.7,0.2c-1.1-0.7-2.301-1.2-3.5-1.602
	c-1.2-0.398-2.5-0.6-3.801-0.699c-1.299,0-2.699,0.101-4,0.601c-1.299,0.5-2.399,1.399-2.899,2.8
	C64.164,195.282,64.863,195.082,65.463,194.982z M35.963,183.582c0.899,1.3,1.7,4.5,7.7,3.1l15.9,7.301c0,0-0.4,2,1,2.301
	c1.399,0.3,2.1-1.9,2.1-1.9s-0.1-2.1-4.1-4c-3.9-1.8-15.9-5.898-17.601-6.3C39.363,183.782,35.963,183.582,35.963,183.582z" class="color c3"/>
  <path fill="#FFFFFF" d="M94.463,200.082c-9.399,3.1-9.899,3.4-20,4.2s-29.5,1.5-34.3,1.399c-4.7-0.101-5.9,0.601-7.4-1.199
	c-0.4,0.8-0.699,2-0.8,3.3c-7.101,1.8-20.8,5.399-26.399,3.8c-2.601,3.6-3.9,7.5-3.601,10c4.601-3.2,6-3.6,10.601-4.3
	c4.399-0.7,15.199-2.4,20.299-3.4c0.301,0.7,0.701,1.2,1.201,1.5c0.5-0.6,2.199-0.899,4.299-1c2.201,0,17.601-0.399,24.201-1.399
	c3.899-0.601,10-1.601,15.1-2.301c3.6-0.5,6.699-0.898,8.1-1.1c3.5-0.4,10-3.6,10-3.6L94.463,200.082z" class="color c1"/>
  <path fill="#C40A0A" d="M13.463,217.182l-2.2,0.301c-4.9,0.101-5.699-0.199-5.5-1c0.2-0.801,0.9-1.5,2.4-1.5
	C11.263,214.982,13.463,217.182,13.463,217.182z M94.463,200.082c-12.101,5.9-15.7,7.9-16.8,10.7c3.6-0.5,6.699-0.9,8.1-1.101
	c3.5-0.399,10-3.601,10-3.601L94.463,200.082z M46.363,214.282c-2.799-1.8-3.199-3-5.799-3.9c-2.5-0.899-6.301-0.6-6.301-0.6
	s-0.1,3.399,4.9,4.8L46.363,214.282z" class="color c3"/>
  <path fill="#FFFFFF" d="M96.664,210.482c-0.801,0.3-1.7,0.6-2.5,0.898l0,0c-7.6,2.801-15,6.102-15.1,6.7c0,0.2,0.1,0.601,0.399,1.3
	l0,0c-0.399,0-0.899,0.102-1.399,0.2c-5.101,1-17.101,4.399-19.5,6.3l0,0l0,0c-2.301-0.699-5.301-0.898-6.301,0
	c-0.3,0.301,0,1.2,0.7,2.2c-4.601,2.3-13.8,8.3-14.5,9.7c-0.2,0.5,0,1.398,0.5,2.398c-1,1-1.8,2.102-2.601,3.102
	c-2.799,3.6-4.399,7-5.5,10.398c-1.399,4.5-1.1,5.9-0.699,6.5c0.1,0.2,0.8,0.801,1.699,1.4l0,0c-0.199,4.1,3.601,8.1,6.801,8.9
	c-2.2-2.602-3.5-3.5-3.801-7.5l0,0c0.4,0.1,0.801,0.1,1.101,0c0.101,0,0.2-0.102,0.3-0.2c1.2-1.4-2-2.7-1.3-6.102
	c0.5-2.3,1.7-6.3,3.7-9.698c0.5-0.802,1-1.602,1.5-2.302c0.4-0.5,0.8-1,1.199-1.399c0.601,0.5,1.201,0.899,1.701,0.899
	c1.899-0.1,1.399-1.698,4-3.698c2.299-1.802,9.299-6.5,10.399-7.302c1,0.101,3.101-2,3.101-2.1c0.199,0.2,0.299,0.3,0.299,0.3
	c1.4-1.1,5.201-2.7,9.301-4.2c4.8-1.696,9.9-3.196,11.9-3.196l0,0c0.5,0.6,1,1,1.399,1c0.101,0,0.3,0,0.399-0.102
	c1.5-0.699,2.801-4.5,2.801-4.5l12.699-4.898L96.664,210.482z" class="color c1"/>
  <path fill="#C40A0A" d="M36.263,262.882c-0.1,0.101-0.199,0.2-0.3,0.2c-2.2-1.3-3.899-2.9-3.7-4.8c0.5-5.101,4.6-10.3,5.801-12.101
	c0,0,0.1,0.399,0.5,0.899c-1.9,3.399-3.201,7.3-3.701,9.7C34.263,260.182,37.463,261.482,36.263,262.882z M56.763,232.782
	c-1.4-0.101-2.699,0.1-4,0.399c-1.3,0.301-2.5,0.801-3.699,1.399c-1.201,0.599-2.301,1.2-3.4,2s-2.1,1.601-2.9,2.601
	c1.2-0.5,2.4-1,3.5-1.5c1.2-0.5,2.301-0.899,3.5-1.301c1.2-0.398,2.301-0.8,3.5-1.1c1.2-0.301,2.301-0.5,3.5-0.7V232.782z
	 M79.463,219.382c-0.399,0-0.899,0.101-1.399,0.2c0,0-0.201,2.1,0.299,3.6c-5.199-0.3-11,0-14,4.301c1.9-0.601,4-0.801,5.9-0.199
	c4.801-1.7,9.9-3.2,11.9-3.2C82.164,224.182,83.164,218.982,79.463,219.382z M96.664,210.482c-0.801,0.3-1.7,0.6-2.5,0.898l0,0
	c-2.2,1.301,0.3,3.9,1.3,4.301c0,0-9.101,2-10.101,3.301c-1,1.3,0,1.8,0,1.8s-0.799,0.6-0.6,1.2c0,0-1.9,1.5-0.699,3.1
	c1.5-0.7,2.799-4.5,2.799-4.5l12.701-4.9L96.664,210.482z" class="color c3"/>
  <path fill="#FFFFFF" d="M241.963,61.782c-1.101-7.2-3.3-14.9-7.3-22.5c-11.301-21.3-42-34.7-46.301-36.601
	c-4.299-1.899-6.5-2.199-10.5-1.1c0,0,7.101,15.4,10.701,20.5c3.6,5.2,9,14.1,11.799,21.3c-3.899-0.2-6.299-4.1-7.699-5.6
	s-2.2-4.3-3.2-8.7c-0.101,1-1.2,1.8-1.2,1.8c-2.8-3.2-3.699-8.899-3.699-8.899l-1,1.5c0,0-3.899-7.2-4.101-9
	c-0.2-1.7-0.2-8.301-0.2-8.301c-1.699,0.2-3.5,0.801-4.699,2.5c-3.201,4.4-1.601,17.4,1,24c2.601,6.601,4,19.301,4.899,23.9
	s5.2,10.8,5.2,10.8s-3.6-1.3-5.6-0.8c0.1,3.1,2.799,6,2.799,6s-3.899,0.4-4.6,1c1.301,3.1,10.399,7.1,10.399,7.1s-4.2-0.3-6.302,0.5
	c0.802,2.2,5.5,4.301,10.602,5.4c-3.3,0.6-5.398,3.1-5.398,3.1c3,2.7,9.398,4.301,9.398,4.301c1.5,3.899,4.398,6.199,4.398,6.199
	s-17,15.801-21.398,18.5c-3.398,2.101-3.199,2.5-7.699,7.9c-1-2.6-1.9-3.1-2.4-3.1c-0.6,0-2.6,0.8-2.399,8.699
	c-0.3,0.301-0.601,0.7-1,1.101c-3.7,4.1-7.7,7.7-11.399,10.6l-0.201,0.2l0,0c-6.898,5.5-12.6,8.8-12.6,8.8l6.9,23.601
	c0,0,4.699-6.801,19-15.299l0,0c1.9-1.101,4.1-2.301,6.4-3.5c19.299-10,24.6-16.801,22.898-20.5
	c2.602-1.101,16.801-9.601,23.2-19.101c5.899-0.3,7.601-3.601,7.399-6.899c0.899-0.801,2-1.801,3.101-3c0.698-0.701,1.3-1.5,2-2.301
	c0.101-0.199,0.3-0.3,0.399-0.5l0,0c2.601-3.4,5.101-7.8,6.699-13.4C242.164,85.982,243.963,74.682,241.963,61.782z" class="color c1"/>
  <path fill="#FFFFFF" d="M221.564,141.082l-3.102,2.9c0,0-0.699-5.2-3.102-7.601l0.102,5.2c0,0-3.3-2.4-5.602-2.7
	c2.201,3.8,2.602,8.7,2.602,8.7s-13.699,18.5-19.5,23.1l0,0c-0.199-0.3-0.3-0.5-0.3-0.5s-22.101,6.2-37.101,6.801h-0.099
	c-2.2,0.101-4.3,0-6-0.199v7.398c0,0,4.601-0.1,11.2-0.699c10.199-0.899,25-2.801,33.9-6.699c0.199-0.4,0.199-0.9,0.199-1.301l0,0
	c5.199-2.699,16.699-12.5,22.199-21.899C222.263,144.282,221.564,141.082,221.564,141.082z" class="color c1"/>
  <path fill="#C40A0A" d="M155.463,176.982h0.101l0,0c3.399,0.699,6.799,4.1,5,6.5c-6.5,0.6-11.201,0.699-11.201,0.699v-6.899
	L155.463,176.982z M192.963,177.382c-0.899-2-6-2.2-9.899-0.399l6.399,1.601L192.963,177.382z M218.164,149.182
	c-0.1,0.4-0.301,0.801-0.6,1.2c-0.301,0.4-0.701,0.7-1,1.101c-0.4,0.3-0.801,0.699-1.301,0.8c-0.5,0.2-1.101,0.3-1.601,0.399
	c-0.5,0.101-1,0.4-1.302,0.801c-0.398,0.399-0.698,0.699-1.1,1.199c-0.3,0.4-0.699,0.9-0.9,1.4c-0.299,0.5-0.6,1-0.799,1.7
	c1-0.4,1.899-0.9,2.899-1.4c0.899-0.5,1.899-1,2.8-1.6c0.9-0.601,1.801-1.2,2.6-2c0.4-0.4,0.802-0.8,1.201-1.2s0.699-1,0.899-1.6
	L218.164,149.182z" class="color c3"/>
  <path fill="#FFFFFF" d="M211.463,179.182c-0.399,0.102-0.8,0.2-1.2,0.4l0,0c-0.3-1.9-1.1-3-1.1-3s-20.6,9.4-23.6,8.9
	c-2.102-1.801-3.801-0.9-7.102,1.699c-2.699,2.199-14,3.399-23.898,3.301l0,0c-2.102,0-4.201-0.102-6.102-0.2v6.7
	c1.102,0.1,4.898,0.199,9.7,0c7.198-0.2,16.8-0.7,22.601-1.7c0.699-0.101,1.1,1.7,2.899,1c0.8-0.3,0.3-1.7,0.8-1.8
	c9.898-2.301,23.801-7.5,23.801-7.5c0.699-0.9,1.199-1.7,1.5-2.5v0.1c1-0.5,2-0.9,3-1.3c2.199-0.9,4.6-1.7,7-2.5
	c3.899-1.2,7.699-2.2,10.6-2.9c2.801-0.7,4.801-3.5,6.101-5.899c1.101-2.301,1.7-4.399,1.7-4.399S224.963,174.882,211.463,179.182z" class="color c1"/>
  <path fill="#C40A0A" d="M156.564,190.282L156.564,190.282c3.6,1.2,3.6,6.5,3.6,6.5c-4.801,0.1-8.6,0.1-9.7,0v-6.7
	C152.363,190.182,154.363,190.282,156.564,190.282z M179.564,192.382c-1.301-0.5-2.701-0.6-4-0.6c-1.301,0-2.602,0.3-3.801,0.7
	c-1.199,0.398-2.4,0.898-3.5,1.6c1.301,0,2.5-0.1,3.699-0.2c1.2,0,2.398,0,3.5,0.101s2.2,0.301,3.301,0.699
	c0.5,0.2,1.1,0.301,1.699,0.4s1.2,0.2,2,0.2C181.863,193.782,180.763,192.882,179.564,192.382z M204.763,184.182
	c-1.699,0.4-13.699,4.5-17.6,6.301c-3.9,1.8-4.1,4-4.1,4s0.699,2.199,2.1,1.898c1.4-0.3,1-2.3,1-2.3l15.9-7.3
	c6,1.398,6.799-1.9,7.699-3.102C209.863,183.582,206.463,183.782,204.763,184.182z" class="color c3"/>
  <path fill="#0D1822" d="M238.564,166.682c-0.301-0.199-0.701-0.3-1-0.1c-0.102,0.1-13.201,7.5-26.4,11.6c-0.1,0-0.2,0.102-0.2,0.102
	c-0.399-1.5-1-2.4-1-2.4c-0.3-0.398-0.7-0.5-1.101-0.3c-8.199,3.7-20.399,8.8-22.899,8.8c-2.7-2.1-5-0.5-8.101,1.9
	c-2.299,1.8-12.5,3.199-23.299,3.1c-2.102,0-4.102-0.1-6-0.199c-0.301,0-0.5,0.101-0.701,0.199c-0.199,0.2-0.299,0.4-0.299,0.7v6.7
	c0,0.5,0.299,0.898,0.799,0.898c0.701,0.101,2.301,0.101,4.301,0.101c1.6,0,3.5,0,5.5-0.101c3.4-0.101,15.199-0.399,22.6-1.601
	c0.1,0,0.1,0.101,0.2,0.2c0.5,0.5,1.399,1.5,3.101,0.8c0.899-0.399,1-1.3,1.101-1.899c9.8-2.399,23.3-7.399,23.399-7.399
	c0.199-0.101,0.299-0.2,0.399-0.3c0.601-0.801,1.101-1.602,1.5-2.301c0.899-0.399,1.8-0.801,2.7-1.199c2-0.801,4.3-1.602,6.9-2.5
	c4.1-1.301,8-2.301,10.5-2.9c2.6-0.6,4.898-2.8,6.699-6.4c1.199-2.398,1.699-4.5,1.699-4.6
	C239.064,167.282,238.863,166.882,238.564,166.682z M183.164,195.382c-0.4,0.101-0.6,0-1-0.399c-0.301-0.301-0.801-0.801-1.6-0.699
	c-7.201,1.199-19,1.6-22.5,1.699c-4.201,0.101-7.301,0.101-8.701,0v-4.9c1.601,0.1,3.4,0.2,5.201,0.2c9.898,0.1,21.5-1,24.5-3.5
	c2.799-2.3,4-2.8,5.1-2.3c-2.4,2.898-1.7,6.699-0.801,8.898c-0.1,0.2-0.1,0.5-0.1,0.7
	C183.263,195.082,183.263,195.282,183.164,195.382z M207.664,186.182c-1.801,0.7-13.7,5-22.6,7.2c-0.5-1.399-1.4-4.8,1-7.1
	c3.898-0.2,18.299-6.5,22.898-8.601c0.2,0.399,0.398,1.101,0.602,1.899l-0.602,4.7C208.564,184.882,208.164,185.482,207.664,186.182
	z M235.564,171.382c-0.201,0.5-0.5,1-0.801,1.5c-3.199,1.9-8.699,4.7-12.199,5.9c-1,0.3-2,0.6-3.102,0.899
	c-2.398,0.801-4.602,1.5-6.5,2.301c0-0.7-0.3-1.5-0.699-2.2c10.1-3.3,20.1-8.3,24.199-10.5
	C236.263,169.982,235.963,170.682,235.564,171.382z" class="color c2"/>
  <path fill="#FFFFFF" d="M238.263,211.682c-5.6,1.602-19.3-2-26.4-3.8c-0.1-1.3-0.398-2.5-0.799-3.3c-1.5,1.8-2.701,1-7.399,1.2
	c-4.7,0.2-24.2-0.601-34.302-1.4c-10.1-0.8-10.6-1.2-20-4.2l-1.299,5.9c0,0,6.6,3.2,10,3.6c1.398,0.2,4.5,0.602,8.1,1.102
	c5.1,0.699,11.3,1.699,15.1,2.3c6.6,1.101,22,1.399,24.2,1.399s3.8,0.399,4.3,1c0.5-0.301,0.9-0.801,1.2-1.5
	c5.101,1,15.8,2.699,20.3,3.399c4.6,0.7,6,1.2,10.6,4.3C242.263,219.182,240.863,215.282,238.263,211.682z" class="color c1"/>
  <path fill="#C40A0A" d="M235.564,215.082c1.5,0,2.199,0.7,2.398,1.5c0.2,0.8-0.5,1.2-5.5,1l-2.199-0.3
	C230.363,217.182,232.564,214.982,235.564,215.082z M148.064,205.982c0,0,6.6,3.199,10,3.6c1.398,0.2,4.5,0.6,8.1,1.1
	c-1.1-2.8-4.801-4.699-16.9-10.699L148.064,205.982z M204.564,214.482c5-1.301,4.898-4.801,4.898-4.801s-3.699-0.301-6.3,0.601
	c-2.5,0.899-2.899,2.2-5.802,3.899L204.564,214.482z" class="color c3"/>
  <path fill="#FFFFFF" d="M212.963,253.782c-1.101-3.5-2.7-6.9-5.5-10.4c-0.8-1-1.7-2-2.601-3.1c0.5-1,0.801-1.9,0.5-2.4
	c-0.699-1.399-9.799-7.399-14.5-9.7c0.701-1,1.101-1.898,0.701-2.199c-1-0.899-4-0.699-6.301,0l0,0l0,0
	c-2.4-1.899-14.4-5.399-19.5-6.301c-0.601-0.1-1.101-0.199-1.4-0.199l0,0c0.301-0.601,0.4-1.101,0.4-1.301
	c-0.101-0.6-7.4-3.898-15.101-6.699l0,0c-0.802-0.301-1.7-0.601-2.5-0.899l-2.899,5.2l12.699,4.898c0,0,1.398,3.9,2.801,4.5
	c0.1,0.102,0.301,0.102,0.399,0.102c0.399,0,0.899-0.4,1.399-1l0,0c2,0,7.101,1.5,11.899,3.199c4.101,1.5,7.899,3.101,9.3,4.199
	c0,0,0.1-0.1,0.301-0.3c0,0,2.101,2.2,3.101,2.101c1.101,0.801,8.101,5.5,10.399,7.301c2.5,2,2.101,3.6,4,3.699
	c0.5,0,1.101-0.301,1.699-0.899c0.4,0.399,0.801,0.899,1.2,1.399c0.5,0.699,1.101,1.5,1.5,2.301c1.899,3.398,3.2,7.3,3.7,9.699
	c0.699,3.399-2.5,4.699-1.301,6.101c0.101,0.101,0.201,0.2,0.301,0.2c1.5,0.699,5.4-2.301,5.8-2.801
	C214.064,259.582,214.363,258.182,212.963,253.782z" class="color c1"/>
  <path fill="#C40A0A" d="M209.064,257.082c-0.5-2.3-1.701-6.3-3.701-9.7c0.4-0.5,0.5-0.899,0.5-0.899
	c1.201,1.801,5.301,7,5.801,12.101c0.199,1.899-1.5,3.5-3.7,4.8c-0.101,0-0.2-0.1-0.3-0.199
	C206.564,261.882,209.763,260.482,209.064,257.082z M187.164,234.982c1.199,0.1,2.3,0.398,3.5,0.699
	c1.199,0.301,2.3,0.699,3.5,1.101c1.199,0.399,2.3,0.8,3.5,1.3c1.199,0.5,2.3,1,3.5,1.5c-0.801-1-1.801-1.9-2.9-2.6
	c-1.1-0.801-2.199-1.4-3.4-2c-1.198-0.602-2.398-1-3.698-1.4c-1.302-0.3-2.601-0.5-4-0.4L187.164,234.982L187.164,234.982z
	 M161.863,224.482c2,0,7.101,1.5,11.9,3.199c1.899-0.601,4-0.399,5.899,0.199c-3-4.3-8.802-4.6-14-4.3c0.5-1.5,0.3-3.601,0.3-3.601
	c-0.602-0.101-1.102-0.199-1.398-0.199C160.863,219.382,161.863,224.482,161.863,224.482z M144.463,216.082l12.7,4.9
	c0,0,1.4,3.898,2.8,4.5c1.2-1.602-0.7-3.102-0.7-3.102c0.2-0.6-0.6-1.199-0.6-1.199s1-0.399,0-1.801c-1-1.3-10.1-3.3-10.1-3.3
	c1-0.399,3.398-3,1.299-4.3l0,0c-0.799-0.301-1.699-0.602-2.5-0.9L144.463,216.082z" class="color c3"/>
  <g>
    <g>
      <g>
        <path fill="#FFFFFF" d="M64.463,137.782c3.601-2.2,4.8-3.601,6.101-8.3c1.299-4.801,2.6-5.601,3.199-5.601s3.2,1.101,2.1,13
				L64.463,137.782z" class="color c1"/>
      </g>
    </g>
  </g>
  <path fill="#0D1822" d="M101.863,152.282c-0.1,0-5.699-3.3-12.5-8.7c0,0,0,0-0.1,0l-0.199-0.2c-4.301-3.399-8-7-11.301-10.5
	c-0.4-0.399-0.699-0.8-1-1.1c0.1-1,0.1-1.9,0.1-2.9c0-0.3,0-0.7-0.1-1c0-0.3-0.1-0.7-0.1-1c-0.1-0.7-0.301-1.399-0.6-2.1
	c-0.201-0.4-0.4-0.7-0.701-1.101c-0.299-0.3-0.699-0.699-1.399-0.8c-0.399-0.1-0.7,0-1,0.101c-0.3,0.1-0.5,0.3-0.7,0.399
	c-0.4,0.3-0.6,0.601-0.8,0.9s-0.3,0.6-0.5,0.899c-0.601-0.699-1.101-1.3-1.5-1.899c-2.2-2.7-2.8-3.4-5.5-5.101
	c-3.8-2.3-17.2-14.699-20.5-17.699c1-0.9,2.601-2.801,3.7-5.4c1.6-0.4,6.699-2,9.4-4.4c0.399-0.3,0.399-0.899,0.1-1.3
	c-0.1-0.1-1.1-1.399-3-2.399c3.9-1.2,7.5-3,8.3-5.301c0.2-0.5-0.101-1-0.5-1.199c-0.7-0.301-1.7-0.4-2.601-0.5
	c2.801-1.5,6.4-3.801,7.301-5.801c0.199-0.399,0.1-0.8-0.2-1c-0.601-0.5-2.101-0.899-3.5-1.1c0.899-1.2,1.899-3.2,1.899-5.3
	c0-0.4-0.299-0.8-0.699-0.9c-1.1-0.3-2.5-0.1-3.7,0.101c1.399-2.301,3.399-6,4-9.101c0.3-1.2,0.5-3.1,0.899-5.2
	c0.9-5.8,2.101-13.8,4-18.6c2.701-6.8,4.4-20.1,0.9-24.9c-1.1-1.6-2.8-2.5-4.8-2.899c0.899-1.9,1.5-3.2,1.601-3.4
	c0.1-0.2,0.1-0.5,0-0.8c-0.101-0.2-0.301-0.4-0.601-0.5c-4.101-1.1-6.5-0.9-11.101,1.1c-8.199,3.5-36,16.601-46.799,37
	c-3.701,7-6.201,14.7-7.4,22.801c-2.1,15.5,0.9,27.6,1.9,30.899c1.5,5,3.799,9.601,6.899,13.7l0,0l0.101,0.1
	c0.1,0.101,0.199,0.301,0.299,0.4c0.601,0.8,1.301,1.6,2,2.4c0.9,1,1.9,1.899,2.801,2.699c0,2.4,1,6.9,7.8,7.4
	c6.2,9,18.7,16.8,22.5,18.7c-1.101,5.1,7,12.3,23.601,20.899c2.199,1.101,4.199,2.301,6.199,3.5c0,0,0,0,0.1,0
	c13.9,8.301,18.601,15,18.701,15c0.199,0.301,0.5,0.4,0.799,0.4h0.101c0.399-0.1,0.601-0.3,0.7-0.7l6.9-23.6
	C102.363,152.982,102.164,152.582,101.863,152.282z M73.164,125.382c0.199-0.2,0.3-0.399,0.5-0.5c0.1-0.1,0.1-0.1,0.199-0.1
	c0,0,0.101,0.1,0.201,0.2c0.1,0.1,0.299,0.399,0.399,0.6c0.101,0.1,0.101,0.3,0.2,0.4c0.1,0.1,0.1,0.3,0.1,0.399l0.1,0.4
	l0.101,0.399c0.101,0.301,0.101,0.601,0.2,0.9s0.1,0.6,0.199,0.9c0.101,0.399,0.101,0.8,0.101,1.199c-1.2-1.399-2.2-2.5-3-3.5
	C72.664,126.182,72.863,125.782,73.164,125.382z M63.363,51.482c-0.299,2.1-0.6,3.899-0.799,5.1c-0.301,1.7-1.101,3.6-2,5.3
	l-5.201-2.1c0,0-7.299-7.4-9.299-8.7c0,0-0.9-5.4-0.101-6.6c0.8-1.2,1.601-1.4,2.3-2h-0.1c0.9-0.801,1.699-1.601,2.3-2.4l0,0
	l-0.399,1.9c-0.101,0.3-0.201,0.6-0.201,1c-0.1,0.3-0.199,0.699-0.199,1c0.8-1.101,1.5-2.2,2.1-3.4c0.6-1.1,1-2.3,1.301-3.7
	c0.699-1.3,1.199-3,1.799-5.399c0.101,0.1,0.201,0.1,0.201,0.199c0.199,0.301,0.399,0.7,0.6,1c0.199,0.5,0.4,1.101,0.5,1.801
	c0.199-0.601,0.4-1.2,0.4-1.9c0-0.4,0.1-0.9,0-1.4c1.699-2.1,2.699-5,3.199-6.899l0,0c0.4,0.399,0.7,0.899,0.9,1.5
	c0.3,0.7,0.5,1.399,0.699,2.2c0.101-0.801,0.201-1.601,0.201-2.4c0-0.4,0-0.8-0.101-1.3c0-0.2-0.101-0.5-0.2-0.7
	c0.9-1.8,3.801-7.2,4-8.9c0.1-0.5,0.1-1.3,0.1-2.199c1.5-0.801,2.9-1.601,2.9-1.601s1.301,0.9,1.7,2.7c0.3,1.8-0.101,5.3-2.399,10.7
	c-2.301,5.399-5.201,12.1-6.101,17.8c-1,5.7-1.2,10.7-2.3,14.1c1.6-3.3,2-9.199,3.8-12.8c0.8-1.7,2.2-4.899,3.7-8.3
	C65.064,39.982,64.064,46.482,63.363,51.482z M56.064,22.682c2.1-3,5.199-9.1,7.6-14c0,2-0.1,4.801-0.2,5.801s-1.899,4.5-3.3,7.3
	l-0.2-0.2c-0.2-0.3-0.601-0.5-1-0.4c-0.399,0.101-0.7,0.4-0.7,0.801c0,0-0.8,4.6-2.8,7.6c-0.101-0.1-0.2-0.3-0.2-0.4
	c0-0.5-0.4-0.8-0.9-0.899c-0.5,0-0.899,0.3-1,0.7c-1,4.5-1.799,7-3,8.3c-0.199,0.3-0.5,0.6-0.799,0.899
	c-1.101,1.4-2.701,3.301-4.701,4.101C47.664,35.782,52.363,27.882,56.064,22.682z M46.664,136.582L46.664,136.582
	c-2.5-1-16.6-9.4-22.801-18.9c-0.199-0.199-0.399-0.399-0.699-0.399c-4.4-0.2-6.7-2.3-6.5-6c0-0.3-0.1-0.601-0.301-0.8
	c-1-0.9-2-1.801-3-2.9c-0.699-0.8-1.299-1.5-1.899-2.3c-0.101-0.101-0.2-0.3-0.3-0.4l-0.1-0.1l0,0c-3-3.9-5.201-8.3-6.601-13.101
	c-0.899-3.199-3.8-15-1.601-29.899c1.101-7.7,3.5-15.2,7.101-22c10.8-20.4,40.101-33.7,45.899-36.2c3.801-1.6,5.801-2,8.801-1.3
	c-1.6,3.5-7.1,15.1-10.1,19.399c-0.4,0.5-0.801,1.101-1.101,1.7c-0.101,0.101-0.3,0.2-0.399,0.3c-0.701,0.5-1.5,1-2.101,1.601
	c-1.399,1.1-2.7,2.399-3.899,3.6c-1.201,1.3-2.301,2.7-3.4,4.101c-1.1,1.399-2.1,2.8-3.1,4.3c-2,2.899-3.801,5.899-5.5,9
	c-0.801,1.5-1.601,3.1-2.4,4.7c-0.801,1.6-1.5,3.199-2.1,4.8c0.6-0.7,1.1-1.4,1.6-2.101c0.5-0.699,1.1-1.399,1.6-2.1
	c1.1-1.4,2.1-2.8,3.1-4.2c2.101-2.8,4.101-5.6,6.201-8.399c1-1.4,2.1-2.801,3.1-4.101c0.4-0.6,0.9-1.1,1.3-1.7
	c-1.5,2.801-3,5.601-4.101,8.2l0,0c-2.699,5.2-6.899,12-5.6,13.9c0.2,0.3,0.5,0.399,0.801,0.3c0,0.1,0.1,0.2,0.1,0.3
	c0.199,0.601,0.3,1.2,0.3,1.9s-0.101,1.399-0.2,2c-0.1,0.7-0.4,1.399-0.6,2c0.4-0.601,0.8-1.2,1.199-1.8
	c0.301-0.7,0.601-1.4,0.801-2.101c0.199-0.7,0.3-1.5,0.199-2.3c0-0.5-0.1-1-0.199-1.6c1.199-1.7,2.3-4.101,2.3-4.101l15.399,16.601
	c-0.199,0.399-0.399,0.6-0.399,0.6c-0.2,0.3-0.2,0.8,0,1.1c0.2,0.301,0.7,0.4,1.101,0.301c1.1-0.4,2.899-0.9,4.199-0.9l0,0
	c-0.1,0.8-0.5,1.6-0.8,2.2c-1-0.8-2.601-1.3-4,0.2c-1.8,2-0.8,3.8,1.2,3.6c-0.1,1,0,1.5,0.4,1.6
	c0.299,0.101,1.199-0.399,1.899-1.399c1,0.1,2.101,0.3,2.7,0.5c-1,1.2-3.1,2.6-5.301,3.8c0.201-0.6,0.101-1.1-0.5-1.5
	c-1.5-0.8-4.199,0-4.799,1.7c-0.5,1.2-0.101,2,0.699,2.3c-0.1,0.2-0.1,0.4,0,0.5c0.1,0.4,0.5,0.7,1,0.7c0.9-0.101,3-0.101,4.7,0.1
	c-0.7,0.7-1.899,1.4-3.399,2.101c0-0.9-0.701-1.601-1.701-1.7c-1.399-0.101-2.199,1.399-2.199,1.399s-0.2-2.699-5.1-0.6
	c1.699,0,3.6,0.6,3.899,1.1s-1.3,1.2-1.3,1.2s-2-1.2-3.7,0.3s-2.5,3.2-2.5,3.2l3.2-0.3l-3,2.3c0,0,4.199-1.3,7-3.1
	c1.699,0.399,3,1.3,3.699,2c-0.6,0.399-1.199,0.8-1.899,1.1c-0.8-1-2.5-1.2-4.101-0.7c-1.699,0.5-2.899,1.5-2,3.101
	c-0.1,0-0.199,0.1-0.199,0.1c-0.301,0.101-0.5,0.3-0.6,0.601c-1.4,3.6-4.101,5.8-4.101,5.8c-0.2,0.2-0.3,0.399-0.399,0.7
	c0,0.3,0.1,0.5,0.299,0.699c0.701,0.601,17.101,15.9,21.5,18.601c2.5,1.5,2.9,2.1,5,4.7c0.601,0.699,1.301,1.6,2.101,2.6
	c-0.899-0.1-1.7,0-2.601,0.2c-1,0.2-1.899,0.5-2.799,0.7l-1.4,0.5c-0.5,0.199-0.9,0.3-1.4,0.5c-0.9,0.399-1.8,0.8-2.699,1.3
	l2.899,0.2l1.5,0.1l1.399,0.1c0.5,0,1,0,1.5,0c-1.6,1.101-3.5,2.301-5.6,3.7C55.963,138.082,50.664,138.782,46.664,136.582
	L46.664,136.582z M94.064,174.782c-2.101-2.5-7.5-7.8-18-14.101c0,0,0,0-0.101-0.1c-2-1.2-4.2-2.4-6.399-3.6
	c-19.9-10.4-22.701-16-22.601-18.4c1.5,0.6,3.101,1,4.8,1c3.301,0,7-1.3,10.5-3.7c1.4-1,2.7-1.899,3.9-2.7l-1.7,4.4
	c1.2-0.6,2.399-1.2,3.399-2.1c1-0.9,1.801-2.101,2.4-3.301c0.301-0.6,0.5-1.199,0.7-1.899l0.101-0.3
	c0.5-0.301,0.899-0.601,1.199-0.801c0.9,1.101,2,2.4,3.301,3.801c0,0.8,0.1,1.6,0.199,2.399c-0.5,1.2-1.4,1.3-1.4,1.3
	c1.801,1.101,3.101-0.1,3.801-1c2.9,3,6.1,6,9.8,8.9l0.2,0.2c0,0,0,0,0.1,0c5.6,4.399,10.4,7.399,12.1,8.399L94.064,174.782z" class="color c2"/>
  <path fill="#0D1822" d="M40.763,32.382c-1.9,2.2-3.5,4.5-4.9,6.9c-1.399,2.399-2.699,4.899-3.899,7.399
	c-1.2,2.601-2.2,5.2-3.101,7.801c-0.899,2.699-1.699,5.399-2.399,8.199c-0.3-2.899,0-5.8,0.7-8.699c0.6-2.801,1.6-5.601,2.8-8.301
	c1.2-2.699,2.7-5.199,4.5-7.5C36.164,35.982,38.263,33.782,40.763,32.382z M27.963,43.682c1-2.199,2.2-4.3,3.601-6.3
	c-1.9,1.601-3.4,3.7-4.601,5.8c-1.2,2.2-2.2,4.5-2.899,6.9c-0.701,2.4-1.301,4.8-1.5,7.3c-0.201,2.5-0.201,5,0.399,7.4
	c0-2.5,0.2-4.9,0.601-7.3l0.199-0.9c0.1-0.3,0.1-0.6,0.2-0.9c0.101-0.6,0.3-1.199,0.399-1.8l0.5-1.8l0.5-1.7l0.601-1.7
	c0.2-0.6,0.399-1.1,0.601-1.699C26.963,45.982,27.463,44.882,27.963,43.682z M32.963,65.082c-0.2,0.7-0.399,1.4-0.7,2.1
	c0.6-0.5,1-1.199,1.301-1.899c0.299-0.7,0.5-1.5,0.6-2.2c0.1-0.8,0-1.5-0.1-2.3c-0.101-0.8-0.4-1.5-0.801-2.101
	c0,0.801,0.1,1.5,0.1,2.2s0,1.4-0.1,2.101C33.164,63.682,33.064,64.382,32.963,65.082z" class="color c2"/>
  <path fill="#C40A0A" d="M31.763,105.682c0.5,0.101,1.1,0.301,1.7,0.4c-0.5,0.5-1.2,0.6-1.8,0.7c-0.6,0.1-1.301,0-1.9-0.2
	s-1.199-0.4-1.699-0.8c-0.5-0.4-1-1-1-1.601c0.5,0.4,1,0.5,1.5,0.7s1,0.3,1.5,0.4L31.763,105.682z M30.664,94.982
	c-0.6,0-1.2,0-1.801,0c-0.6,0-1.199-0.101-1.899-0.4c0.2,0.7,0.899,1.2,1.601,1.5c0.699,0.3,1.399,0.4,2.199,0.3
	c0.7,0,1.4-0.2,2.1-0.5c0.601-0.3,1.301-0.7,1.701-1.3c-0.701,0.2-1.301,0.2-2,0.3C31.863,94.982,31.263,94.982,30.664,94.982z
	 M49.463,71.182c-0.2-0.199-0.5-0.3-0.7-0.399c-0.5-0.101-1,0-1.3,0.1c-0.7,0.3-1.3,0.7-1.8,1.2s-0.9,1-1.301,1.6
	c0.601-0.3,1.201-0.6,1.801-0.899s1.199-0.5,1.699-0.601c0.301-0.1,0.5-0.1,0.601,0c0.101,0,0.101,0.101,0.2,0.301c0,0,0,0,0,0.1
	c-1.301,0.3-2.801,1-2.6,2.1c0.199,1.2,1.6,0.801,2,0.5c0.399-0.199,1.199-0.899,1.6-1.5v-0.1c0.1-0.1,0.1-0.3,0.199-0.4
	c0.101-0.399,0.101-0.8,0-1.199C49.863,71.582,49.664,71.282,49.463,71.182z M54.263,75.282c0-0.101,0-0.101,0-0.2s0-0.2-0.1-0.2
	c0-0.2-0.2-0.3-0.301-0.5c-0.199-0.1-0.299-0.2-0.5-0.3c-0.199-0.1-0.299,0-0.5,0c-0.1,0-0.299,0.1-0.399,0.1
	c-0.5,0.2-0.899,0.5-1.3,0.801c-0.4,0.3-0.7,0.699-1,1.1c0.4-0.2,0.9-0.4,1.3-0.7c0.399-0.2,0.8-0.399,1.2-0.5c0.1,0,0.199,0,0.3,0
	s0.2,0,0.2,0c0.1,0,0.1,0,0.1,0.101c0,0.1,0.1,0.1,0.1,0.199c0,0,0,0,0,0.101c-0.899,0.2-2.1,0.7-1.899,1.5
	c0.2,0.899,1.2,0.6,1.5,0.399c0.2-0.1,0.601-0.399,0.899-0.8c0.101-0.1,0.201-0.2,0.201-0.3l0,0c0,0,0,0,0-0.1
	c0-0.101,0.1-0.2,0.1-0.301C54.164,75.582,54.263,75.482,54.263,75.282z M45.963,78.182c-0.101-0.199-0.3-0.399-0.601-0.5
	c-0.299-0.1-0.5-0.199-0.799-0.199c-0.5,0-0.9,0.3-1.201,0.5c-0.6,0.5-1,1-1.399,1.6c-0.3,0.6-0.601,1.2-0.8,1.9
	c0.5-0.5,1-0.9,1.4-1.4c0.5-0.4,0.899-0.8,1.399-1.1c0.2-0.101,0.5-0.2,0.601-0.2c0.1,0,0.199,0,0.299,0.2c0,0,0,0,0,0.1
	c-1.199,0.6-2.399,1.8-1.799,2.8c0.6,1.101,1.799,0.3,2.1-0.1c0.3-0.3,0.9-1.2,1.1-1.9v-0.1c0-0.101,0-0.3,0-0.4
	C46.363,78.982,46.263,78.582,45.963,78.182z M39.064,85.682c-0.9,0.2-1.601,0.801-1.5,1.301c0.1,0.5,1,0.699,1.899,0.5
	c0.899-0.2,1.601-0.801,1.5-1.301C40.863,85.582,40.064,85.382,39.064,85.682z M42.763,70.582c0.301-0.1,0.6-0.2,0.9-0.4
	c-0.301-0.199-0.6-0.3-0.9-0.399c-0.3-0.101-0.6-0.101-0.9,0c-0.299,0-0.6,0.1-0.899,0.3c-0.101,0.1-0.3,0.2-0.399,0.3
	c-0.101,0.101-0.101,0.2-0.101,0.2c0,0.1,0,0.2,0,0.3c0.3-0.2,0.5-0.1,0.8-0.1c0.301,0,0.5,0,0.801-0.101
	C42.263,70.682,42.564,70.682,42.763,70.582z M51.763,66.382c0.301-0.1,0.5-0.2,0.801-0.2c0.299-0.1,0.6-0.1,1-0.1
	c-0.201-0.4-0.601-0.6-0.9-0.7c-0.4-0.1-0.801-0.1-1.2,0c-0.399,0.101-0.7,0.3-1,0.601c-0.3,0.3-0.399,0.699-0.399,1.1
	c0.299-0.2,0.6-0.4,0.899-0.5C51.263,66.582,51.564,66.482,51.763,66.382z" class="color c3"/>
  <path fill="#0D1822" d="M95.064,176.082c-0.201-0.2-0.5-0.3-0.701-0.2c-1.699,0.2-3.6,0.3-5.899,0.2h-0.101
	c-14.699-0.6-36.6-6.7-36.899-6.7c-0.2-0.1-0.5,0-0.7,0.101c-5.5-4.899-16.8-19.799-18.5-22c0.1-1.1,0.7-5,2.5-8
	c0.2-0.299,0.2-0.699,0-1c-0.199-0.299-0.5-0.5-0.9-0.399c-1.5,0.2-3.199,1.101-4.5,1.899l0.101-3.399c0-0.399-0.2-0.7-0.601-0.899
	c-0.299-0.101-0.699-0.101-1,0.199c-1.699,1.7-2.6,4.6-3,6.4l-1.899-1.7c-0.2-0.2-0.601-0.3-0.899-0.2
	c-0.301,0.1-0.601,0.301-0.601,0.7c-0.101,0.399-0.7,3.8,4.8,13.2c5.2,8.9,16.301,18.699,22.1,21.898c0,0.4,0.101,0.7,0.301,1.102
	c0.1,0.199,0.3,0.398,0.5,0.5c8.9,4,23.5,5.898,34.199,6.8c6.5,0.601,11.201,0.7,11.201,0.7l0,0c0.199,0,0.5-0.102,0.6-0.301
	c0.199-0.199,0.3-0.399,0.3-0.699v-7.4C95.363,176.482,95.263,176.282,95.064,176.082z M27.763,153.082c-2.8-4.8-3.9-7.9-4.4-9.7
	l1.301,1.2c0.3,0.2,0.6,0.3,0.9,0.2c0.299-0.101,0.6-0.4,0.6-0.7c0,0,0.3-2.3,1.199-4.4v1.9c0,0.4,0.201,0.7,0.5,0.8
	c0.301,0.2,0.701,0.101,1-0.1c0.601-0.4,1.9-1.3,3.201-1.9c-1.4,3.4-1.701,6.9-1.701,7.101v0.1c0,0.5,0,1.1,0.101,1.6
	c0.101,0.601,0.3,1.2,0.5,1.7c0.5,1.101,1.101,2,1.8,2.9c0.1-0.7,0.1-1.3,0-1.8c0-0.4-0.1-0.801-0.1-1.101
	c3.9,5.101,12.3,15.9,16.9,19.9c-0.5,0.8-1,1.899-1.201,3.1C42.763,170.482,32.664,161.382,27.763,153.082z M93.463,183.182
	c-1.7-0.1-5.399-0.3-10.101-0.699c-10.399-0.899-24.5-2.699-33.199-6.5c0-0.199,0-0.301-0.1-0.5l1.5-4.301
	c3.899,1.102,23.199,6.102,36.6,6.602h0.1c1.9,0.1,3.6,0,5.2-0.102V183.182L93.463,183.182z" class="color c2"/>
  <g>
    <g>
      <g>
        <g>
          <g>
            <path fill="#0D1822" d="M34.164,184.482c-1-0.5-2-0.9-3-1.301l0,0c-0.5-0.801,0-3.101,1.199-4l1.201,0.601L34.164,184.482z" class="color c2"/>
          </g>
        </g>
      </g>
    </g>
  </g>
  <path fill="#0D1822" d="M96.064,189.382c-0.201-0.2-0.4-0.3-0.701-0.2c-1.899,0.102-3.899,0.2-6,0.2
	c-10.799,0.101-21.1-1.2-23.299-3.1c-3-2.4-5.4-4-8.101-1.9c-2.5,0-14.7-5.1-22.899-8.8c-0.4-0.2-0.9-0.1-1.101,0.3
	c0,0-0.601,0.9-1,2.4c-0.101,0-0.2,0-0.2-0.101c-13.3-4.1-26.4-11.5-26.5-11.6c-0.3-0.2-0.699-0.2-1,0.1c-0.3,0.2-0.4,0.602-0.3,1
	c0,0.102,0.601,2.2,1.7,4.602c1.8,3.6,4.1,5.8,6.699,6.398c2.601,0.602,6.5,1.602,10.5,2.9c2.601,0.8,4.9,1.6,6.9,2.5
	c0.9,0.4,1.801,0.8,2.7,1.2c0.399,0.8,0.8,1.5,1.5,2.3c0.101,0.1,0.2,0.2,0.399,0.3c0.101,0.101,13.601,5.101,23.4,7.4
	c0.1,0.5,0.2,1.5,1.1,1.899c1.701,0.699,2.701-0.301,3.101-0.801c0,0,0.101-0.1,0.2-0.199c7.4,1.199,19.1,1.601,22.6,1.601
	c2,0.1,3.9,0.1,5.5,0.1c2.1,0,3.7,0,4.301-0.1c0.5-0.101,0.799-0.5,0.799-0.9v-6.8C96.363,189.782,96.164,189.582,96.064,189.382z
	 M31.463,182.282c-2.101-0.8-4.399-1.7-7.101-2.5c-4.1-1.3-8.1-2.3-10.6-2.9c-2.6-0.6-4.4-3.3-5.4-5.5
	c-0.399-0.7-0.699-1.399-0.899-2.1c4.2,2.3,14.399,7.399,24.7,10.7c0.199,0,0.3,0.1,0.5,0.1c-0.1,0.8,0,1.7,0.1,2.6
	C32.263,182.582,31.863,182.482,31.463,182.282z M35.064,184.182l-0.601-4.6v-0.1c0.101-0.801,0.399-1.4,0.601-1.801
	c4.5,2,18.899,8.399,22.899,8.601c2.399,2.3,1.5,5.7,1,7.1c-9-2.2-20.8-6.5-22.7-7.2C35.664,185.482,35.263,184.882,35.064,184.182z
	 M94.463,195.982c-1.5,0.1-4.5,0.1-8.7,0c-3.5-0.102-15.3-0.5-22.5-1.7c-0.1,0-0.199,0-0.199,0c-0.601,0-1.101,0.399-1.4,0.7
	c-0.4,0.398-0.6,0.6-1,0.398c0-0.1,0-0.3-0.1-0.398c0-0.2,0-0.4-0.101-0.7c0.899-2.101,1.601-6-0.8-8.9c1.1-0.5,2.3,0,5.1,2.3
	c3,2.4,14.6,3.602,24.5,3.5c1.801,0,3.5-0.1,5.1-0.199L94.463,195.982L94.463,195.982z" class="color c2"/>
  <path fill="#0D1822" d="M96.664,205.782l-1.301-5.9c-0.1-0.3-0.199-0.5-0.399-0.6c-0.2-0.101-0.5-0.2-0.7-0.101l-1.8,0.601
	c-7.7,2.5-8.7,2.899-18,3.6c-10.3,0.8-29.601,1.5-34.2,1.4c-1.3,0-2.4,0-3.3,0c-2.2,0.1-2.7,0.1-3.5-0.9c-0.2-0.2-0.5-0.399-0.8-0.3
	c-0.301,0-0.6,0.2-0.7,0.5c-0.399,0.7-0.601,1.8-0.8,3c-7.1,1.8-20.1,5.1-25.301,3.6c-0.399-0.1-0.799,0-1,0.301
	c-2.699,3.699-4.1,7.8-3.799,10.699c0,0.301,0.199,0.602,0.5,0.7c0.1,0.101,0.299,0.101,0.399,0.101c0.2,0,0.399-0.101,0.5-0.199
	c4.399-3.102,5.8-3.5,10.2-4.2c4.6-0.7,14.5-2.3,19.6-3.3c0.301,0.5,0.7,0.898,1.2,1.199c0.2,0.101,0.3,0.101,0.5,0.101
	c0.3,0,0.5-0.101,0.7-0.3c0.1-0.2,1.1-0.602,3.6-0.7c3.5,0,18.1-0.399,24.301-1.5c3.6-0.601,9.5-1.5,15.1-2.3
	c3.5-0.5,6.6-0.9,8.1-1.102c3.6-0.398,10.1-3.6,10.301-3.699C96.564,206.682,96.763,206.282,96.664,205.782z M12.363,216.482
	c-4.199,0.6-5.899,1.1-9.5,3.5c0.301-2.102,1.4-4.801,3.101-7.2c5.8,1.2,17.5-1.7,25-3.601c0,1.399,0.101,2.899,0.5,4.199
	C26.263,214.282,16.763,215.782,12.363,216.482z M85.564,208.782c-1.5,0.2-4.601,0.6-8.101,1.1c-5.601,0.8-11.5,1.7-15.101,2.3
	c-6.1,1-20.5,1.4-24,1.4c-1.399,0-3.1,0.2-4.199,0.7l0,0c0.1-0.2,0.1-0.3,0.1-0.5l-0.8-6.101c0-0.199-0.2-0.5-0.399-0.601
	c0-0.3,0.1-0.601,0.199-0.899c1,0.601,2.1,0.601,3.801,0.5c0.799,0,1.899-0.101,3.199,0c4.6,0.101,24-0.601,34.4-1.399
	c9.5-0.8,10.699-1.2,18.4-3.7l0.799-0.3l0.9,4.2C92.963,206.282,88.263,208.482,85.564,208.782z" class="color c2"/>
  <g>
    <g>
      <g>
        <g>
          <g>
            <path fill="#0D1822" d="M57.863,205.282l0.201,8.3l9.299-1.3c0,0-3.699-1.601-3-7.3L57.863,205.282z" class="color c2"/>
          </g>
        </g>
      </g>
    </g>
  </g>
  <g>
    <g>
      <g>
        <g>
          <path fill="#0D1822" d="M41.363,272.182l-2.899-0.699c-3.7-1-7.7-5.399-7.5-9.899l0.101-1.399l4.699,2.301v0.5
					c0.301,3.199,1.1,4.1,2.801,6c0.299,0.3,0.5,0.6,0.799,1L41.363,272.182z M32.963,263.182c0.3,1.301,1,2.602,1.899,3.602
					c-0.399-0.801-0.6-1.801-0.799-3.102L32.963,263.182z" class="color c2"/>
        </g>
      </g>
    </g>
  </g>
  <path fill="#0D1822" d="M100.363,215.182l-2.899-5.199c-0.2-0.399-0.7-0.601-1.101-0.399c-0.799,0.3-1.699,0.601-2.5,0.899h-0.1
	c-3.699,1.399-7.4,2.899-10.3,4.199c-5.101,2.301-5.2,2.7-5.3,3.2c0,0.2,0,0.4,0.1,0.7c-0.1,0-0.199,0-0.4,0.1
	c-4.399,0.801-16.1,4-19.5,6.2c-1.899-0.5-5.299-1-6.799,0.3c-0.301,0.301-0.4,0.602-0.4,1c0,0.4,0.199,0.9,0.5,1.4
	c-4.6,2.5-13.2,7.9-14,9.7c-0.4,0.8-0.1,1.8,0.3,2.7c-0.8,0.898-1.601,1.8-2.3,2.699c-2.6,3.399-4.5,6.899-5.7,10.699
	c-1.5,4.801-1.101,6.4-0.601,7.301c0.4,0.699,3.801,3.399,6.101,3.399c0.3,0,0.601-0.101,0.899-0.2c0.201-0.1,0.5-0.3,0.701-0.5
	c1-1.1,0.199-2.3-0.301-3.199c-0.6-0.899-1.199-1.899-0.8-3.301c0.5-2.3,1.7-6.1,3.601-9.398c0.5-0.801,1-1.602,1.5-2.2
	c0.199-0.3,0.399-0.5,0.6-0.7c0.5,0.3,1,0.5,1.6,0.5h0.1c1.5-0.1,2-0.9,2.601-1.8c0.399-0.601,0.899-1.3,1.899-2.101
	c2.201-1.699,8.5-6,10.201-7.101c1-0.101,2.1-0.899,2.899-1.7c0.101,0,0.101,0,0.2,0c0.199,0,0.4-0.1,0.6-0.199
	c1.2-0.899,4.7-2.5,9.1-4.101c4.801-1.7,9.201-2.899,11.201-3.101c0.6,0.699,1.199,1,1.799,1c0.301,0,0.5-0.101,0.801-0.199
	c1.5-0.7,2.699-3.5,3.199-4.7l12.301-4.7c0.3-0.1,0.4-0.3,0.5-0.5C100.564,215.782,100.463,215.482,100.363,215.182z
	 M57.664,226.682c0.199,1.7,1.1,3.301,1.8,4.4c-0.5,0.5-1,0.9-1.399,1.1l-4.101-4.8c-0.2-0.2-0.399-0.3-0.7-0.3
	c-0.1-0.2-0.199-0.4-0.3-0.5C53.763,226.182,55.664,226.182,57.664,226.682z M34.064,256.582c-0.4,2.2,0.5,3.7,1.1,4.7
	c0.199,0.3,0.5,0.8,0.5,0.899l0,0c-0.7,0.301-4-1.801-4.6-2.5c-0.201-0.399-0.5-1.699,0.799-5.699c1.101-3.7,2.801-6.9,5.301-10.102
	l0,0c0.5,0.301,1.199,0.7,1.9,0.801c-0.4,0.601-0.801,1.199-1.301,2C35.863,250.082,34.564,254.182,34.064,256.582z M46.564,239.782
	c-1.301,1-1.9,1.899-2.301,2.6c-0.5,0.7-0.6,0.9-1.1,0.9l0,0c-0.1,0-0.301-0.101-0.5-0.2c0-0.2-0.1-0.4-0.2-0.6l-2.5-3
	c-0.101-0.102-0.2-0.2-0.3-0.301c-0.2-0.5-0.301-0.899-0.301-1c0.601-1.101,8.4-6.301,13.301-8.899c1.1,1.5,2.5,3,3.4,3.899
	C53.664,234.782,48.463,238.282,46.564,239.782z M69.963,226.482c-1.5,0.5-6.2,2.3-8.7,3.699l-1.6-3.899c3.1-1.8,13.3-4.8,18.5-5.8
	c0.199,0,0.5-0.102,0.699-0.102c0.4,1,1,2.102,1.601,3C77.664,223.882,73.263,225.182,69.963,226.482z M86.463,219.682
	c-0.3,0.102-0.5,0.301-0.5,0.602c-0.5,1.5-1.601,3.6-2.399,4c-0.101-0.102-0.301-0.2-0.5-0.4c0.1-1,0.199-3.199-0.9-4.5
	c-0.4-0.4-1.1-0.9-2.1-0.9l0,0c1.399-0.9,7-3.5,14.399-6.2h0.101c0.6-0.2,1.1-0.4,1.699-0.601l2,3.601L86.463,219.682z" class="color c2"/>
  <g>
    <g>
      <g>
        <g>
          <path fill="#C40A0A" d="M226.564,114.582c-0.801,1.2-3.701,1.6-5.301,0.7c-1.601-0.9-0.4-2.8-0.4-2.8l0,0
					c0.201-1.301-1-2.4-2.199-2c-0.9,0.3-1.9,0.6-2.801,0.8c-2.699,0.6-4.5,0.399-5.299-0.2c-0.801-0.7-7.4-9.4-7.4-9.4
					s1.5,1.301,6.5-2.399c-2.301,0.3-9.1-2.7-9.801-2.4c-0.699,0.3-0.399,1.5-0.399,1.5l2,2.101l-11.101,10.1
					c0,0,2.701-1.1,4.301-2.6s4.4-2.4,5.1-2.2c0.7,0.2,6.6,5.2,7.2,10.5c-2.7,3.7-11.3,10.8-18.601,12.7
					c3.801,0.199,7.5-0.601,9.201-1.9c-1,2-3.9,4.7-7.4,5.1c3,1,7.699-1.3,10.199-3.8c-1.6,4.101-5.799,5.601-7.399,5.9
					c3.7,0.5,9.101-2.3,11.5-6.2c4.3-0.1,14.101-6.3,15.3-8.6l1-1.4c0,0,3.6,0.2,5.801-2.2V114.582L226.564,114.582z" class="color c3"/>
        </g>
      </g>
    </g>
  </g>
  <path fill="#0D1822" d="M197.164,136.582c-4,2.2-9.301,1.5-14.5-2.1c-2-1.4-4-2.7-5.6-3.7c0.5,0,1,0,1.5,0l1.398-0.101l1.5-0.1
	l2.898-0.2c-0.898-0.5-1.799-0.899-2.698-1.3c-0.5-0.2-0.899-0.4-1.399-0.5l-1.4-0.5c-0.899-0.3-1.899-0.6-2.799-0.7
	c-0.9-0.2-1.801-0.3-2.701-0.2c-0.299-0.899-0.6-1.8-1.199-2.699c-0.2-0.301-0.5-0.601-0.801-0.9c-0.199-0.1-0.399-0.3-0.699-0.4
	c-0.301-0.1-0.6-0.199-1-0.1c-0.7,0.1-1.1,0.5-1.4,0.8c-0.3,0.3-0.5,0.7-0.699,1.101c-0.301,0.699-0.5,1.399-0.601,2.1
	c-0.101,0.3-0.101,0.7-0.101,1s-0.1,0.7-0.1,1c0,1.3,0,2.7,0.199,4l-1.898,2.3c0,0,1.5,3.5,4.199,1.8c0,0-0.9-0.1-1.4-1.3
	c0.201-2.3,0.201-4.5,0.5-6.6c0-0.3,0.101-0.601,0.201-0.9c0-0.3,0.1-0.6,0.199-0.899l0.1-0.4l0.101-0.4
	c0-0.1,0.101-0.3,0.101-0.399c0.101-0.101,0.101-0.3,0.199-0.4c0.1-0.2,0.2-0.399,0.4-0.6c0.1-0.101,0.199-0.2,0.199-0.2
	s0.101,0,0.201,0.1c0.1,0.101,0.299,0.301,0.5,0.5c0.398,0.601,0.799,1.301,1.1,2.101l-0.9,1.6c0,0,0.7,0.4,1.9,1.101l0.1,0.3
	c0.2,0.6,0.5,1.3,0.7,1.899c0.5,1.2,1.3,2.4,2.399,3.301c1,0.899,2.201,1.5,3.4,2.1l-1.699-4.4c1.199,0.801,2.6,1.7,3.898,2.7
	c3.602,2.5,7.2,3.7,10.5,3.7c2.102,0,4.102-0.5,5.898-1.5L197.164,136.582z" class="color c2"/>
  <path fill="#C40A0A" d="M190.164,142.982c-1.6,0.8-3.4,1.199-5.2,1.399c-1.8,0.3-3.601,0.3-5.399,0.3
	c-1.801,0-3.601-0.199-5.399-0.399c-1.802-0.3-3.5-0.601-5.2-1.3c1.801,0.1,3.602,0.199,5.301,0.199
	c1.801,0.101,3.5,0.101,5.301,0.101c0.898,0,1.799,0,2.6,0c0.9,0,1.8,0,2.6,0C186.564,143.282,188.363,143.182,190.164,142.982z
	 M179.863,146.282l-6.299-0.9c-2.102-0.3-4.201-0.6-6.4-0.8c-1.1-0.1-2.1-0.2-3.2-0.3l-3.3-0.2c0.5,0.3,0.9,0.6,1.4,0.9
	c0.5,0.3,1,0.5,1.5,0.699c1,0.4,2.1,0.801,3.1,1.101c2.1,0.6,4.199,1.1,6.4,1.399c2.199,0.301,4.398,0.4,6.6,0.301
	c2.199-0.101,4.4-0.4,6.5-1.301C184.064,146.882,181.963,146.582,179.863,146.282z M175.564,149.382l-0.9-0.1l-0.9-0.101
	c-0.6-0.1-1.1-0.199-1.699-0.3c-0.601-0.1-1.101-0.2-1.701-0.3c-0.6-0.1-1.1-0.3-1.698-0.4c-2.2-0.5-4.399-1.1-6.601-1.899
	l-0.801-0.3l-0.8-0.301l-1.7-0.6c-0.6-0.2-1.1-0.4-1.699-0.6c-0.601-0.2-1.101-0.4-1.801-0.5c0.9,0.8,1.801,1.6,2.801,2.3
	c0.5,0.3,1,0.7,1.5,1s1,0.6,1.601,0.899c2.101,1.101,4.5,2,6.8,2.601c0.602,0.1,1.2,0.3,1.801,0.399c0.6,0.101,1.199,0.2,1.801,0.2
	c0.6,0.101,1.199,0.101,1.799,0.101c0.301,0,0.601,0,0.9,0h0.899c2.399-0.101,4.899-0.5,7.101-1.4
	C180.164,149.882,177.863,149.682,175.564,149.382z" class="color c3"/>
  <g>
    <g>
      <g>
        <g>
          <path fill="#C40A0A" d="M142.463,153.082l6.899,23.6c0,0,4.701-6.8,19-15.3l0,0c0.4-2.399,6.601-7.7,6.601-7.7
					c-1.399-1.3-1.5-3.399-1.5-3.399s-6.2-1.101-9.899-2.3c-3.701-1.2-7.899-4.101-7.899-4.101l-0.399,0.3l-0.201,0.2l0,0
					C148.164,149.882,142.463,153.082,142.463,153.082z" class="color c3"/>
        </g>
      </g>
    </g>
  </g>
  <path fill="#0D1822" d="M216.763,54.082c0.6,2.8,0.9,5.8,0.7,8.7c-0.7-2.8-1.5-5.5-2.399-8.2s-2-5.3-3.101-7.8
	c-1.2-2.5-2.399-5-3.899-7.4c-1.399-2.399-3-4.7-4.899-6.899c2.5,1.399,4.601,3.6,6.399,5.899s3.299,4.9,4.5,7.5
	C215.164,48.382,216.164,51.182,216.763,54.082z M219.763,50.082c-0.8-2.4-1.699-4.7-2.9-6.9c-1.198-2.199-2.698-4.199-4.6-5.8
	c1.5,2,2.6,4.101,3.6,6.3c0.5,1.101,1,2.2,1.4,3.301c0.2,0.6,0.4,1.1,0.6,1.699l0.602,1.7l0.5,1.7l0.5,1.8
	c0.2,0.601,0.301,1.2,0.398,1.8c0.102,0.301,0.102,0.601,0.201,0.9l0.199,0.9c0.4,2.399,0.7,4.8,0.6,7.3
	c0.602-2.4,0.701-4.9,0.4-7.4C221.064,54.882,220.564,52.482,219.763,50.082z M210.763,71.382c-0.5-1.3-1-2.5-1.3-3.7
	c-0.3-1.199-0.5-2.399-0.601-3.699c-0.1-1.2-0.199-2.5-0.1-3.801c0-1.3,0.1-2.6,0.199-3.899c-0.8,1.1-1.3,2.399-1.602,3.8
	c-0.297,1.3-0.397,2.7-0.297,4.1c0.1,1.4,0.5,2.801,1.1,4C208.763,69.382,209.664,70.582,210.763,71.382z M213.564,105.282
	l-1.602,0.399c-0.5,0.101-1.102,0.301-1.699,0.4c0.5,0.5,1.199,0.6,1.801,0.7c0.6,0.1,1.299,0,1.898-0.2s1.2-0.4,1.7-0.8
	c0.5-0.4,1-1,1-1.601c-0.5,0.4-1,0.5-1.5,0.7C214.664,104.982,214.164,105.082,213.564,105.282z M213.164,94.982
	c-0.6,0-1.2-0.101-1.9-0.101c-0.6-0.1-1.3-0.1-2-0.3c0.4,0.6,1,1.1,1.7,1.3c0.7,0.3,1.399,0.4,2.101,0.5c0.699,0,1.5-0.1,2.199-0.3
	c0.7-0.3,1.4-0.8,1.6-1.5c-0.698,0.3-1.299,0.4-1.898,0.4C214.363,95.082,213.763,95.082,213.164,94.982z M195.164,72.382
	C195.164,72.382,195.164,72.282,195.164,72.382c0.1-0.2,0.199-0.3,0.3-0.3s0.3,0,0.601,0c0.5,0.1,1.101,0.4,1.699,0.6
	c0.6,0.301,1.2,0.601,1.801,0.9c-0.399-0.6-0.801-1.1-1.301-1.6s-1.1-0.9-1.8-1.2c-0.399-0.101-0.8-0.2-1.3-0.101
	c-0.301,0.101-0.5,0.2-0.7,0.4s-0.3,0.4-0.399,0.7c-0.101,0.399-0.101,0.8,0,1.2c0,0.1,0.101,0.3,0.199,0.399v0.101
	c0.301,0.6,1.2,1.3,1.6,1.5c0.4,0.199,1.802,0.699,2-0.5C197.963,73.382,196.463,72.582,195.164,72.382z M191.463,74.182
	c-0.101-0.1-0.3-0.1-0.399-0.1c-0.201,0-0.301,0-0.5,0c-0.201,0-0.4,0.2-0.5,0.3c-0.102,0.101-0.201,0.3-0.301,0.5
	c0,0.101-0.101,0.2-0.101,0.2c0,0.1,0,0.1,0,0.2c0,0.1,0,0.3,0.101,0.399c0,0.101,0.1,0.2,0.1,0.301c0,0,0,0,0,0.1l0,0
	c0.101,0.1,0.101,0.2,0.201,0.3c0.299,0.4,0.699,0.7,0.898,0.8c0.301,0.2,1.301,0.5,1.5-0.399c0.2-0.8-1-1.3-1.898-1.5
	c0,0,0,0,0-0.101c0-0.1,0.1-0.1,0.1-0.199l0.1-0.101c0,0,0.1,0,0.2,0s0.2,0,0.3,0c0.4,0.101,0.801,0.3,1.2,0.5s0.8,0.4,1.3,0.7
	c-0.3-0.4-0.6-0.8-1-1.1C192.363,74.682,191.963,74.382,191.463,74.182z M200.463,77.982c-0.3-0.2-0.7-0.4-1.2-0.5
	c-0.3,0-0.6,0.1-0.8,0.199c-0.2,0.101-0.399,0.301-0.601,0.5c-0.299,0.4-0.399,0.801-0.399,1.2c0,0.101,0,0.3,0,0.4v0.1
	c0.2,0.7,0.8,1.601,1.101,1.9c0.299,0.3,1.5,1.2,2.101,0.1c0.5-1-0.7-2.1-1.802-2.8c0,0,0,0,0-0.1c0.102-0.101,0.201-0.2,0.302-0.2
	s0.3,0.1,0.601,0.2c0.5,0.3,0.899,0.699,1.399,1.1s0.899,0.9,1.399,1.4c-0.201-0.7-0.399-1.301-0.801-1.9
	C201.463,78.982,201.064,78.482,200.463,77.982z M204.763,85.682c-0.9-0.199-1.8,0-1.9,0.5c-0.1,0.5,0.5,1.101,1.5,1.301
	c0.9,0.199,1.802,0,1.9-0.5C206.363,86.482,205.664,85.882,204.763,85.682z M203.463,70.682c0-0.1-0.101-0.199-0.101-0.199
	c-0.1-0.101-0.299-0.2-0.399-0.301c-0.3-0.199-0.601-0.3-0.899-0.3c-0.301,0-0.601,0-0.899,0c-0.302,0.101-0.601,0.2-0.899,0.4
	c0.301,0.2,0.6,0.3,0.899,0.399c0.3,0.101,0.601,0.101,0.8,0.2c0.301,0,0.5,0.101,0.801,0.101s0.5,0,0.801,0.1
	C203.463,70.882,203.463,70.782,203.463,70.682z M192.263,65.482c-0.4-0.101-0.8-0.101-1.199,0c-0.399,0.1-0.801,0.3-0.899,0.699
	c0.399,0,0.698,0,1,0.101c0.3,0.1,0.601,0.1,0.8,0.2c0.301,0.1,0.5,0.199,0.801,0.3c0.301,0.1,0.5,0.3,0.899,0.5
	c0-0.4-0.101-0.8-0.399-1.101C193.064,65.782,192.664,65.582,192.263,65.482z" class="color c2"/>
  <path fill="#0D1822" d="M242.863,61.682c-1.199-8.1-3.699-15.8-7.399-22.8c-10.8-20.399-38.5-33.5-46.8-37c-4.6-2-7-2.2-11.1-1.1
	c-0.301,0.1-0.5,0.3-0.601,0.5s-0.101,0.5,0,0.8c0.101,0.2,0.7,1.5,1.601,3.4c-2,0.3-3.701,1.3-4.801,2.899
	c-3.5,4.8-1.8,18.101,0.9,24.9c1.9,4.8,3.1,12.8,4,18.6c0.3,2.101,0.6,3.9,0.9,5.2c0.6,3.1,2.6,6.8,4,9.1
	c-1.201-0.3-2.602-0.399-3.701-0.1c-0.399,0.1-0.699,0.5-0.699,0.9c0,2.1,1.1,4,1.9,5.3c-1.4,0.2-2.9,0.6-3.4,1.1
	c-0.301,0.3-0.4,0.7-0.2,1c0.899,2.101,4.5,4.3,7.3,5.8c-0.9,0.101-1.9,0.2-2.6,0.5c-0.5,0.2-0.7,0.7-0.5,1.2
	c0.8,2.2,4.5,4.101,8.3,5.3c-1.8,1-2.899,2.301-3,2.4c-0.3,0.4-0.3,0.9,0.101,1.3c2.699,2.4,7.799,4,9.399,4.4
	c1.101,2.6,2.7,4.5,3.7,5.399c-3.301,3.101-16.7,15.4-20.5,17.7c-2.7,1.7-3.301,2.4-5.5,5.101c-1.5,1.899-3.801,4.699-8.2,9.6
	c-3.2,3.6-7,7.1-11.3,10.5l-0.2,0.2c0,0,0,0-0.101,0c-6.799,5.399-12.5,8.7-12.5,8.7c-0.399,0.199-0.6,0.699-0.399,1.1l6.899,23.6
	c0.101,0.301,0.4,0.602,0.701,0.7h0.1c0.3,0,0.6-0.1,0.8-0.399c0-0.101,4.8-6.801,18.7-15h0.1c2-1.199,4.1-2.299,6.2-3.5
	c16.601-8.6,24.7-15.799,23.601-20.899c3.899-2,16.399-9.7,22.5-18.7c6.899-0.6,7.799-5,7.799-7.4c1-0.799,1.9-1.799,2.802-2.699
	c0.698-0.801,1.399-1.6,2-2.4c0.101-0.1,0.198-0.3,0.399-0.5l0,0c3.101-4.1,5.399-8.699,6.899-13.699
	C242.263,89.082,245.263,76.982,242.863,61.682z M183.363,61.882c-0.899-1.7-1.699-3.6-2-5.3c-0.199-1.2-0.5-3-0.799-5.1
	c-0.801-5-1.801-11.5-3.301-16.4c1.399,3.4,2.899,6.7,3.699,8.3c1.7,3.601,2.2,9.5,3.801,12.8c-1.199-3.5-1.301-8.399-2.301-14.1
	s-3.898-12.5-6.102-17.8c-2.297-5.4-2.697-8.9-2.397-10.7s1.7-2.7,1.7-2.7s1.4,0.8,2.9,1.601c0,0.899,0.1,1.699,0.1,2.199
	c0.199,1.7,3.1,7.2,4,8.9c-0.1,0.2-0.1,0.5-0.2,0.7c-0.101,0.399-0.101,0.8-0.101,1.3c0,0.8,0.101,1.6,0.201,2.4
	c0.199-0.801,0.398-1.5,0.699-2.2c0.301-0.601,0.6-1.101,0.899-1.5l0,0c0.5,1.899,1.5,4.8,3.198,6.899c-0.1,0.5,0,0.9,0,1.4
	c0.102,0.7,0.201,1.3,0.4,1.9c0.1-0.601,0.301-1.2,0.5-1.801c0.2-0.399,0.4-0.699,0.6-1c0,0,0.102-0.1,0.201-0.199
	c0.601,2.3,1.101,4,1.699,5.3c0,0.7,0.1,1.3,0.301,1.899c0.199,0.7,0.5,1.301,0.799,2c0.302,0.601,0.701,1.2,1.102,1.801
	c0.2,0.3,0.398,0.5,0.602,0.8c0.199,0.3,0.5,0.5,0.699,0.7c-0.5-1.2-1-2.5-1.301-3.7c0-0.2-0.102-0.4-0.102-0.601
	c0.701,0.9,1.602,2,2.802,2.9h-0.101c0.699,0.7,1.5,0.8,2.299,2c0.802,1.2-0.1,6.6-0.1,6.6c-2,1.2-9.3,8.7-9.3,8.7L183.363,61.882z
	 M180.164,8.682c2.4,4.801,5.5,11,7.6,14c3.7,5.2,8.301,13.101,11.1,19.5c-2.1-0.8-3.6-2.699-4.698-4.1
	c-0.302-0.4-0.601-0.7-0.802-0.9c-1.198-1.3-1.898-3.8-3-8.3c-0.1-0.399-0.5-0.7-0.898-0.7c0,0,0,0-0.102,0
	c-0.5,0-0.799,0.4-0.898,0.9c0,0.1-0.102,0.3-0.199,0.4c-2.101-3-2.801-7.601-2.801-7.601c-0.102-0.399-0.3-0.7-0.699-0.8
	c-0.4-0.1-0.801,0.1-1,0.4l-0.199,0.199c-1.4-2.699-3.201-6.3-3.301-7.3C180.263,13.482,180.164,10.782,180.164,8.682z
	 M239.463,91.882c-1.399,4.8-3.601,9.2-6.601,13.101l0,0c-0.1,0.199-0.199,0.3-0.399,0.399c-0.601,0.8-1.2,1.5-1.899,2.3
	c-0.899,1-1.801,1.9-2.801,2.7c-0.199,0-0.4,0-0.699,0c-0.399,0-0.801,0.101-1.201,0.101c-0.799,0.1-1.6,0.3-2.299,0.8
	c0.399,0.1,0.799,0.2,1.199,0.3s0.7,0.3,1,0.4c0.301,0.1,0.7,0.199,1,0.399c0.1,0,0.2,0.101,0.4,0.101c-0.301,3-2.5,4.699-6.5,4.899
	c-0.301,0-0.6,0.2-0.7,0.4c-6.2,9.399-20.3,17.8-22.7,18.8c-0.199,0.1-0.4,0.3-0.5,0.5s-0.1,0.5,0,0.7c0.7,1.5,1,7.1-22.4,19.3
	c-2.198,1.1-4.398,2.3-6.398,3.6h-0.102c-10.6,6.301-15.898,11.601-18,14.101l-6.198-21.2c1.698-1,6.5-4,12.101-8.4c0,0,0,0,0.1,0
	l0.201-0.199c4.299-3.5,8.199-7.101,11.5-10.7c4.398-4.9,6.699-7.8,8.199-9.7c2.1-2.6,2.6-3.2,5-4.7c4.399-2.7,20.801-18,21.5-18.6
	c0.199-0.2,0.301-0.4,0.301-0.7s-0.102-0.5-0.4-0.7c0,0-2.7-2.1-4.1-5.8c-0.102-0.3-0.301-0.5-0.602-0.6c0,0-0.102,0-0.199-0.101
	c0.801-1.6-0.301-2.6-2-3.1c-1.601-0.4-3.301-0.2-4.101,0.7c-0.7-0.301-1.302-0.7-1.899-1.101c0.699-0.7,2-1.6,3.699-2
	c2.801,1.8,7,3.101,7,3.101l-3-2.301l3.2,0.301c0,0-0.802-1.7-2.601-3.2c-1.701-1.5-3.701-0.3-3.701-0.3s-1.6-0.7-1.299-1.2
	c0.299-0.5,2.299-1.101,3.899-1.101c-4.899-2.1-5.101,0.601-5.101,0.601s-0.899-1.5-2.199-1.4c-1,0.101-1.7,0.7-1.7,1.7
	c-1.5-0.7-2.7-1.4-3.399-2.1c1.601-0.301,3.799-0.2,4.699-0.101c0.5,0,0.9-0.3,1-0.7c0-0.199,0-0.399,0-0.5
	c0.801-0.3,1.1-1.1,0.7-2.3c-0.601-1.7-3.3-2.5-4.8-1.7c-0.6,0.301-0.7,0.9-0.5,1.5c-2.2-1.199-4.301-2.6-5.301-3.8
	c0.701-0.2,1.701-0.399,2.701-0.5c0.699,1,1.6,1.5,1.898,1.4c0.398-0.101,0.602-0.7,0.398-1.601c2,0.301,3-1.6,1.201-3.6
	c-1.399-1.5-3-1-4-0.2c-0.399-0.7-0.701-1.399-0.801-2.2l0,0c1.301,0,3.1,0.5,4.2,0.9c0.399,0.1,0.8,0,1.101-0.3
	c0.199-0.3,0.299-0.8,0-1.101c0,0-0.201-0.199-0.399-0.6l15.399-16.6c0,0,1.101,2.399,2.299,4.1c-0.1,0.5-0.198,1-0.198,1.6
	c0,0.801,0,1.601,0.198,2.301c0.201,0.699,0.5,1.399,0.802,2.1c0.3,0.7,0.698,1.3,1.198,1.8c-0.198-0.7-0.5-1.3-0.6-2
	s-0.199-1.399-0.199-2c0-0.7,0.101-1.3,0.299-1.899c0-0.101,0.102-0.2,0.102-0.301c0.301,0.101,0.602,0.101,0.801-0.3
	c1.301-1.899-3-8.7-5.601-13.899l0,0c-1.101-2.601-2.5-5.5-4.101-8.301c0.399,0.601,0.899,1.101,1.299,1.7
	c1.102,1.4,2.102,2.7,3.102,4.101c2.102,2.8,4.102,5.6,6.2,8.399c1,1.4,2.101,2.8,3.101,4.2c0.5,0.7,1,1.4,1.6,2.1
	c0.5,0.7,1.101,1.4,1.601,2.101c-0.601-1.601-1.399-3.3-2.101-4.8c-0.799-1.601-1.6-3.2-2.399-4.7c-1.7-3.101-3.5-6.101-5.5-9
	c-1-1.5-2-2.9-3.101-4.3c-1.1-1.4-2.199-2.801-3.399-4.101s-2.5-2.5-3.899-3.6c-0.701-0.601-1.399-1.101-2.101-1.601
	c-0.101-0.1-0.3-0.199-0.399-0.3c-0.399-0.6-0.801-1.1-1.101-1.7c-3-4.3-8.5-15.899-10.2-19.399c3-0.7,5-0.3,8.801,1.3
	c5.799,2.5,35.101,15.8,45.899,36.2c3.601,6.8,6.101,14.3,7.2,22.2C243.363,76.882,240.463,88.582,239.463,91.882z" class="color c2"/>
  <g>
    <g>
      <g>
        <g>
          <g>
            <path fill="#C40A0A" d="M202.064,11.782c-0.602-0.601-1.301-1.101-1.9-1.7c0.5,0.3,1,0.6,1.6,0.9
						c1.801,1.1,3.5,2.199,5.2,3.399s3.399,2.4,5.101,3.7c1.699,1.3,3.299,2.6,4.799,4c-1.398-1.6-2.898-3.1-4.398-4.5
						c-1.5-1.5-3.102-2.9-4.699-4.3c-1-0.9-2.101-1.8-3.101-2.601c-2.601-1.1-5.101-2.699-7.601-4l-0.301,0.5
						c-0.8-0.6-1.5-1.199-2.3-1.8c-0.2-0.1-0.399-0.2-0.601-0.2c-4.199-1.699-8.1-3.6-12.5-4.399l-2.699,1c1.4,0.5,5,1.7,6.3,2.5
						s2.601,1.7,3.899,2.7c2.601,1.899,5.101,4,7.601,6.199c1.2,1.101,2.5,2.2,3.7,3.301l3.6,3.3l7.2,6.8
						c-1.899-2.7-4-5.3-6.101-7.9c-1.1-1.3-2.1-2.5-3.299-3.8c-1.102-1.2-2.201-2.5-3.4-3.6c-0.801-0.8-1.5-1.5-2.301-2.3
						c1.801,1.199,3.5,2.5,5.301,3.699c2.199,1.601,4.3,3.301,6.4,5.101c2.1,1.8,4.1,3.6,5.898,5.6c-1.602-2.2-3.5-4.2-5.5-6.1
						C206.064,15.482,204.064,13.582,202.064,11.782z" class="color c3"/>
          </g>
        </g>
      </g>
    </g>
  </g>
  <g>
    <g>
      <g>
        <g>
          <path fill="#FFFFFF" d="M142.242,218.084h-40.858c-7.45-8.024-9.354-25.417-8.688-40.113c0.106-2.391,0.283-4.67,0.51-6.848
					v-0.004c1.766-17.027,6.802-27.674,9.994-32.914c1.63-2.674,2.779-3.943,2.779-3.943l5.17,6.566l3.243-6.496
					c5.671-9.498,7.117-23.587,7.423-27.511c0.301,3.924,1.746,18.013,7.413,27.511l3.242,6.496l5.176-6.566
					c0,0,11.893,13.131,13.283,43.709C151.596,192.667,149.687,210.06,142.242,218.084z" class="color c1"/>
        </g>
      </g>
    </g>
  </g>
  <path fill="#0D1822" d="M222.463,140.882c-0.101-0.3-0.3-0.6-0.601-0.7c-0.299-0.1-0.699,0-0.899,0.2l-1.899,1.7
	c-0.4-1.8-1.301-4.7-3-6.4c-0.301-0.3-0.701-0.3-1-0.199c-0.301,0.1-0.602,0.5-0.602,0.899l0.102,3.4c-1.201-0.8-3-1.7-4.5-1.9
	c-0.4,0-0.701,0.101-0.9,0.4c-0.2,0.3-0.2,0.7,0,1c1.8,3,2.3,6.8,2.5,8c-1.7,2.3-12.9,17.2-18.5,22c-0.2-0.101-0.4-0.101-0.7-0.101
	c-0.2,0.101-22.2,6.199-36.8,6.699h-0.2c-2.3,0.102-4.2,0-5.899-0.199c-0.301,0-0.5,0.101-0.701,0.199
	c-0.198,0.2-0.299,0.4-0.299,0.7v7.399c0,0.301,0.101,0.5,0.299,0.699c0.201,0.2,0.4,0.301,0.602,0.301l0,0
	c0,0,4.7-0.101,11.2-0.699c10.698-0.9,25.3-2.801,34.198-6.801c0.201-0.101,0.4-0.301,0.5-0.5c0.102-0.399,0.201-0.699,0.302-1.101
	c5.698-3.2,16.8-13,22.101-21.899C223.164,144.682,222.463,141.182,222.463,140.882z M160.463,182.582c-4.7,0.4-8.5,0.6-10.101,0.7
	v-5.4c1.5,0.101,3.201,0.101,5.101,0.101h0.2c13.4-0.5,32.699-5.601,36.6-6.601l1.5,4.3c0,0.2,0,0.301-0.1,0.5
	C184.963,179.782,170.863,181.682,160.463,182.582z M216.064,153.082c-4.9,8.3-14.9,17.4-20.602,20.8c-0.3-1.2-0.8-2.3-1.199-3.1
	c5-4.4,14.399-16.5,17.801-21c0,0.3,0,0.6-0.102,0.899c-0.199,1-0.5,2.101-0.898,3.2c0.6-0.3,1.1-0.7,1.5-1.1
	c0.398-0.4,0.799-1,1-1.5c0.199-0.601,0.398-1.3,0.398-1.9c0-0.7-0.199-1.3-0.5-1.8c0-0.5-0.398-3.8-1.699-7
	c1.301,0.6,2.6,1.5,3.199,1.9c0.301,0.199,0.7,0.199,1,0.1c0.301-0.2,0.5-0.5,0.5-0.8v-1.9c0.898,2.101,1.2,4.4,1.2,4.4
	c0,0.3,0.3,0.6,0.601,0.7c0.301,0.1,0.699,0,0.899-0.2l1.3-1.2C219.963,145.282,218.763,148.382,216.064,153.082z" class="color c2"/>
  <path fill="#0D1822" d="M239.064,211.082c-0.201-0.3-0.602-0.5-1-0.3c-5.201,1.5-18.201-1.8-25.301-3.601
	c-0.199-1.199-0.4-2.199-0.801-3c-0.102-0.301-0.398-0.5-0.699-0.5s-0.601,0.101-0.801,0.301c-0.699,0.898-1.199,0.898-3.5,0.898
	c-0.898,0-1.898-0.1-3.3,0c-4.5,0.102-23.899-0.6-34.2-1.398c-9.3-0.7-10.3-1.102-18-3.602l-1.8-0.6c-0.2-0.102-0.5-0.102-0.7,0.1
	c-0.199,0.102-0.398,0.4-0.398,0.602l-1.301,5.899c-0.1,0.4,0.1,0.8,0.5,1c0.301,0.101,6.801,3.3,10.301,3.7
	c1.5,0.2,4.6,0.6,8.1,1.1c5.6,0.801,11.5,1.7,15.1,2.301c6.2,1,20.801,1.399,24.301,1.5c2.5,0,3.5,0.5,3.601,0.699
	c0.198,0.2,0.399,0.301,0.698,0.301c0.201,0,0.302,0,0.5-0.101c0.5-0.3,0.9-0.7,1.201-1.2c5.199,1,15.101,2.602,19.601,3.301
	c4.399,0.699,5.8,1.101,10.198,4.199c0.201,0.102,0.302,0.2,0.5,0.2c0.102,0,0.302,0,0.4-0.1c0.301-0.101,0.5-0.4,0.5-0.7
	C243.164,218.982,241.763,214.882,239.064,211.082z M205.564,213.582c-3.5,0-17.9-0.4-24-1.4c-3.602-0.6-9.5-1.5-15.102-2.3
	c-3.602-0.5-6.699-0.899-8.199-1.1c-2.699-0.3-7.4-2.4-9.101-3.2l0.899-4.2l0.799,0.3c7.701,2.5,8.9,2.9,18.4,3.7
	c10.301,0.8,29.801,1.5,34.4,1.4c1.3,0,2.3,0,3.1,0c1.7,0.1,2.801,0.1,3.801-0.5c0.101,0.3,0.101,0.6,0.199,0.899
	c-0.199,0.199-0.3,0.399-0.4,0.601l-0.799,6.1c0,0.2,0,0.3,0.101,0.5l0,0C208.664,213.682,206.963,213.582,205.564,213.582z
	 M231.463,216.482c-4.399-0.7-13.899-2.2-19.101-3.2c0.4-1.3,0.5-2.7,0.5-4.2c7.5,1.9,19.201,4.8,25,3.6
	c1.701,2.5,2.801,5.102,3.101,7.2C237.363,217.582,235.664,217.082,231.463,216.482z" class="color c2"/>
  <g>
    <g>
      <g>
        <g>
          <g>
            <path fill="#0D1822" d="M185.963,205.282l-0.2,8.3l-9.3-1.3c0,0,3.7-1.601,3-7.3L185.963,205.282z" class="color c2"/>
          </g>
        </g>
      </g>
    </g>
  </g>
  <g>
    <g>
      <g>
        <path fill="#FFFFFF" d="M211.963,261.582c0.2,4.1-3.601,8.1-6.8,8.9c2.199-2.602,3.5-3.5,3.8-7.5L211.963,261.582z" class="color c1"/>
      </g>
    </g>
  </g>
  <path fill="#0D1822" d="M213.863,253.482c-1.199-3.801-3-7.301-5.699-10.7c-0.7-0.9-1.4-1.8-2.301-2.7c0.4-0.9,0.601-1.9,0.301-2.7
	c-0.801-1.7-9.4-7.2-14-9.7c0.3-0.5,0.5-1,0.5-1.398c0-0.4-0.1-0.801-0.4-1c-1.4-1.301-4.8-0.801-6.8-0.301
	c-3.399-2.199-15.101-5.399-19.5-6.199c-0.101,0-0.3,0-0.399-0.102c0.101-0.3,0.101-0.5,0.101-0.699c-0.101-0.5-0.2-1-5.302-3.199
	c-2.898-1.301-6.698-2.801-10.299-4.2h-0.101c-0.8-0.3-1.7-0.601-2.5-0.899c-0.399-0.199-0.899,0-1.101,0.399l-2.899,5.2
	c-0.101,0.199-0.2,0.5-0.101,0.8c0.101,0.3,0.301,0.5,0.5,0.5l12.301,4.7c0.5,1.199,1.699,4,3.199,4.699
	c0.301,0.101,0.5,0.199,0.801,0.199c0.6,0,1.199-0.3,1.8-1c2,0.2,6.399,1.4,11.2,3.102c4.4,1.6,7.9,3.1,9.1,4.1
	c0.2,0.102,0.4,0.2,0.6,0.2c0.102,0,0.102,0,0.201,0c0.799,0.8,1.899,1.601,2.899,1.7c1.601,1.1,8,5.398,10.2,7.1
	c1,0.801,1.5,1.5,1.9,2.102c0.5,0.8,1.1,1.699,2.6,1.8h0.1c0.5,0,1.1-0.2,1.6-0.5c0.201,0.2,0.4,0.5,0.602,0.7
	c0.5,0.6,1,1.398,1.5,2.199c1.898,3.301,3.102,7.101,3.602,9.399c0.299,1.5-0.301,2.399-0.801,3.3c-0.5,0.801-1.199,2-0.301,3.2
	c0.2,0.2,0.398,0.399,0.7,0.5c0.101,0.101,0.3,0.101,0.399,0.101c-0.399,2.399-1.201,3.301-2.701,5c-0.299,0.301-0.5,0.601-0.799,1
	l-1.899,2.199l2.899-0.699c3.601-0.899,7.399-5.101,7.5-9.301c0.799-0.6,1.399-1.1,1.601-1.398
	C214.963,259.882,215.363,258.282,213.863,253.482z M190.763,226.482c-0.1,0.1-0.1,0.3-0.3,0.5c-0.2,0-0.5,0.1-0.7,0.3l-4.1,4.8
	c-0.4-0.2-0.9-0.6-1.4-1.1c0.7-1,1.6-2.7,1.801-4.4C188.164,226.182,190.064,226.182,190.763,226.482z M160.164,224.282
	C160.164,224.282,160.263,224.282,160.164,224.282c-0.7-0.3-1.7-2.3-2.301-4c-0.1-0.3-0.299-0.5-0.5-0.601l-11.699-4.5l2-3.601
	c0.6,0.2,1.1,0.399,1.699,0.601h0.101c7.399,2.699,13,5.301,14.399,6.199l0,0c-1.1,0.102-1.699,0.5-2.1,0.9
	c-1.199,1.3-1.101,3.5-0.9,4.5C160.463,224.082,160.363,224.182,160.164,224.282z M163.363,223.382c0.601-0.899,1.201-2,1.601-3
	c0.2,0,0.399,0.101,0.7,0.101c5.199,1,15.4,4,18.5,5.801l-1.6,3.898c-2.5-1.5-7.201-3.199-8.701-3.699
	C170.564,225.182,166.164,223.882,163.363,223.382z M200.763,243.282c-0.5,0-0.699-0.2-1.1-0.9s-1.1-1.6-2.301-2.6
	c-2-1.5-7.1-5-9.399-6.601c0.8-0.801,2.3-2.399,3.399-3.899c5,2.6,12.701,7.8,13.301,8.899c0,0.199,0,0.5-0.2,1.101
	c-0.101,0.1-0.2,0.1-0.3,0.2l-2.5,3c-0.1,0.199-0.2,0.398-0.2,0.6C201.064,243.282,200.863,243.282,200.763,243.282L200.763,243.282
	z M209.064,266.782c0.299-0.8,0.6-1.8,0.799-3c0.301-0.101,0.701-0.3,1-0.4C210.564,264.582,209.863,265.782,209.064,266.782z
	 M212.863,259.682c-0.199,0.301-0.699,0.7-1.299,1.102l-2.9,1.5c-0.1,0-0.301,0-0.4,0l0,0c0-0.102,0.301-0.602,0.5-0.9
	c0.6-1,1.5-2.5,1.1-4.699c-0.5-2.399-1.799-6.5-3.799-9.899c-0.399-0.7-0.801-1.4-1.301-2c0.801-0.2,1.4-0.5,1.9-0.8l0,0
	c2.5,3.199,4.199,6.5,5.3,10.1C213.363,258.082,213.064,259.382,212.863,259.682z" class="color c2"/>
  <g>
    <g>
      <g>
        <g>
          <g>
            <path fill="#C40A0A" d="M137.763,146.782c0.4,3.899,0.301,7.6,0.1,11.3c-0.198,3.7-0.5,7.4-0.898,11
						c-0.398,3.7-0.8,7.3-1.3,10.9c-0.302,1.8-0.5,3.6-0.802,5.398c-0.299,1.801-0.6,3.602-0.898,5.4c0.2-1.801,0.2-3.7,0.301-5.5
						c0.1-1.801,0.1-3.7,0.199-5.5c0.102-3.7,0.102-7.301,0.102-11c0-3.6-0.201-7.301-0.4-10.9c-0.2-3.6-0.6-7.199-1.301-10.6
						L137.763,146.782z" class="color c3"/>
          </g>
        </g>
      </g>
    </g>
  </g>
  <path fill="#C40A0A" d="M150.963,178.482c-1.399-30.602-13.3-43.7-13.3-43.7l-5.801,7.399l0.4,0.9c1.5-1.6,3-3.2,4.6-4.8l1-1.101
	l0.701,1.4c1.199,2.5,2.199,5,3.199,7.5c0.899,2.5,1.801,5.1,2.5,7.7c1.399,5.2,2.5,10.6,3.1,16
	c0.601,5.399,0.601,10.899,0.101,16.2c-0.601,5.398-1.8,10.699-3.7,15.699c1.301-5.199,2.1-10.5,2.4-15.801
	c0.199-3.699,0.1-7.5-0.2-11.199c-0.7,0.899-1.5,1.399-2.101,1.199c-0.799-0.398-1-1.898-0.299-3.5c0.5-1.199,1.299-2,2-2.199v-0.1
	c-0.701-5.3-1.801-10.5-3.301-15.6c-0.699-2.601-1.5-5.101-2.5-7.601c-0.699-2-1.601-4-2.4-6c-1.399,1.3-2.699,2.7-4.1,4l0,0
	c0,0-0.9,0.7-0.5,2.7c0.399,2,4.6,9.7,5.199,17.8c0.602,8,1.5,19.9-4.398,34.601c-2.201,5.399-1.5,6.5-5.701,5.601
	c0,0,9.201,6.2,11.301,10.2l2.6,2.8h0.6C149.763,210.582,151.664,193.182,150.963,178.482z M142.863,182.882
	c-0.399-0.2-0.6-0.8-0.399-1.3c0.2-0.6,0.8-0.9,1.2-0.7s0.6,0.8,0.3,1.3C143.863,182.782,143.263,183.082,142.863,182.882z" class="color c3"/>
  <g>
    <g>
      <g>
        <g>
          <path fill="#0D1822" d="M112.664,211.782c4.5-3.101,10.199-6.4,16.4-1.7c-1.4,0.9-4.201,2.4-6.801,2.3
					C119.763,212.182,115.263,210.782,112.664,211.782z" class="color c2"/>
        </g>
      </g>
    </g>
  </g>
  <g>
    <g>
      <g>
        <path fill="#FFFFFF" d="M164.064,317.582c-0.5,3.7-8,8.3-15.4,9.6c-2.301,0.4-3.9-0.3-5-1.5c-6,3.2-12,4.102-13.801,3.801
				c-1.899-0.301-3.6-1.899-3.6-1.899s-2.101,3-4.201,3c-2.1,0-4.199-3-4.199-3s-1.801,1.601-3.6,1.899
				c-1.9,0.301-7.801-0.601-13.801-3.801c-1.1,1.2-2.699,1.9-5,1.5c-7.5-1.398-14.9-5.898-15.4-9.6s1.801-5.3,4.701-7.5
				c-0.301-1.9,1.5-1.9,4.799-3.6c3.301-1.801,7.4-4.4,11.9-7.2c0-0.2,0-0.4,0-0.601c0.1-2.699,2.301-4.899,5-4.899h0.1h15.701h11.5
				h4.199c2.801-0.101,5,2.3,5,5.1c0,0.101,0,0.2,0,0.4c4.5,2.8,8.602,5.399,11.898,7.2c3.302,1.8,5.102,1.699,4.802,3.6
				C162.263,312.282,164.664,313.882,164.064,317.582z" class="color c1"/>
      </g>
    </g>
  </g>
  <g>
    <g>
      <g>
        <g>
          <g>
            <path fill="#0D1822" d="M89.763,307.182c2.301-1.199,5.2-1.1,6.6-1.6c1.5-0.5,4.601-3.2,4.701-3.7
						c0.1-0.5-4.301,0.101-4.301,0.101l-6.699,4.1L89.763,307.182z" class="color c2"/>
          </g>
        </g>
      </g>
    </g>
  </g>
  <g>
    <g>
      <g>
        <path fill="#FFFFFF" d="M129.164,131.582c0.6,3.3,1.6,6.9,3.1,10.9l5.1-3.801c-0.1-0.199-0.198-0.5-0.299-0.699l0,0
				c-3.399-8.601-3.301-13.101-3.301-13.101s18,19.101,26.801,34.4c8.799,15.3,12.699,21.3,18.601,43.3s-0.2,46.9-0.802,48.2
				c0,0,3.201,5.2,5.302-10.7s1.698-27.5-0.802-38.3c-3.6-15.8-8.6-32-23.5-53.4c-11.699-16.8-18.899-19.5-24.199-31.399
				c-2.6-2-6.301,0-6.301,0S127.664,122.682,129.164,131.582z" class="color c1"/>
      </g>
    </g>
  </g>
  <g>
    <g>
      <g>
        <path fill="#FFFFFF" d="M114.463,131.582c-0.601,3.3-1.601,6.9-3.101,10.9l-5.1-3.801c0.1-0.199,0.2-0.5,0.301-0.699l0,0
				c3.399-8.601,3.299-13.101,3.299-13.101s-18,19.101-26.799,34.4c-8.801,15.3-12.701,21.3-18.601,43.3s0.2,46.9,0.8,48.2
				c0,0-3.199,5.2-5.3-10.7s-1.7-27.5,0.8-38.3c3.6-15.8,8.6-32,23.5-53.4c11.7-16.8,18.9-19.5,24.2-31.399c2.601-2,6.3,0,6.3,0
				S116.064,122.682,114.463,131.582z" class="color c1"/>
      </g>
    </g>
  </g>
  <g>
    <path fill="#0D1822" d="M160.363,309.682c0-1.6-1.399-2.199-2.899-2.898c-0.7-0.301-1.5-0.602-2.399-1.102
		c-2.601-1.398-5.899-3.398-9.301-5.5c-0.699-0.398-1.4-0.898-2.1-1.3c0-1.6-0.7-3.1-1.801-4.3c-1.1-1.1-2.6-1.7-4.1-1.6h-15.801
		h-15.699h-0.101c-3.101-0.102-5.8,2.5-6,5.699c0,0.101,0,0.101,0,0.199c-0.7,0.4-1.399,0.9-2.101,1.301
		c-3.399,2.101-6.6,4.101-9.299,5.5c-0.9,0.5-1.701,0.801-2.4,1.101c-1.5,0.7-2.9,1.2-2.9,2.899c-2.9,2.101-5.3,4-4.699,8.101
		c0.699,4.5,9.1,9.1,16.199,10.399c2.1,0.399,3.9-0.101,5.301-1.301c5.699,2.9,11.699,4,13.799,3.602c1.301-0.2,2.601-1,3.301-1.5
		c0.9,1,2.6,2.6,4.4,2.6c1.799,0,3.5-1.6,4.399-2.6c0.8,0.6,2,1.3,3.3,1.5c2.2,0.398,8.102-0.7,13.801-3.602
		c1.399,1.2,3.301,1.7,5.301,1.301c7.1-1.301,15.5-5.899,16.199-10.399C165.564,313.682,163.164,311.782,160.363,309.682z
		 M142.664,300.382c0.699,0.4,1.4,0.9,2.1,1.3c0,0,0.1,0,0.1,0.102c-1.1-0.102-2.198-0.102-2.198,0.1c0.101,0.5,3.198,3.2,4.698,3.7
		c1.4,0.5,3.9,0.5,6.201,1.399c0.199,0.101,0.399,0.199,0.601,0.301c1,0.5,1.899,0.898,2.601,1.199
		c1.399,0.601,1.699,0.801,1.801,1.101c-1,0.8-2.102,1.5-3.201,2.3c-1.199,0.801-2.399,1.602-3.699,2.5c-0.6,0.5-1.2,1-1.7,1.4
		l-1.7,1.398c-0.699,0.602-1.3,1.102-2,1.7c-0.199-1-0.5-2.1-1-3.3c-0.699-1.8-1.6-3.7-2.399-5.5c2.2,2.1,5.5,5,5.899,4.7
		c0.7-0.5-0.5-3.4-1-4.7c-0.399-1.2-5.199-5.3-7.899-6.4c0.2-0.8,0.2-1.8,0.101-2.8
		C141.064,300.882,141.963,300.782,142.664,300.382z M139.463,297.182c0,0,0.5,1.102,0.8,1.801c-0.8,0-1.8,0-2.8-0.101
		C138.863,298.082,139.463,297.182,139.463,297.182z M104.263,295.882c1.2,0.5,2.301,2.101,2.801,3c-1.801,0.2-3.801,0.3-4.801,0
		C102.564,298.082,103.164,296.982,104.263,295.882z M87.164,308.482c0.699-0.301,1.6-0.7,2.6-1.2c2.7-1.4,5.9-3.5,9.4-5.601
		c0.699-0.399,1.4-0.899,2.1-1.301c0.7,0.4,1.7,0.5,2.801,0.5c-0.101,1-0.101,2,0.1,2.801c-2.7,1.101-7.4,5.301-7.9,6.399
		c-0.5,1.3-1.699,4.3-1,4.7c0.5,0.3,3.7-2.602,5.9-4.7c-0.9,1.7-1.7,3.601-2.4,5.5c-0.5,1.2-0.8,2.3-1,3.3
		c-0.699-0.5-1.3-1.1-2-1.699l-1.699-1.399c-0.601-0.5-1.101-1-1.701-1.4c-1.199-0.899-2.399-1.7-3.699-2.5
		c-1.1-0.7-2.1-1.5-3.2-2.3C85.363,309.282,85.763,309.082,87.164,308.482z M95.363,326.382c-7.799-1.399-14.299-6-14.699-8.899
		c-0.4-3,1.3-4.301,3.9-6.301c1.1,0.602,2.199,1.2,3.299,1.801c1.201,0.699,2.5,1.5,3.601,2.399c1.101,0.9,2.101,1.9,3.101,3
		c0.899,1,1.899,2,2.699,3.101c0,2.101,0.7,3.399,1.5,4.301C97.763,326.382,96.664,326.582,95.363,326.382z M113.863,328.682
		c-1.6,0.301-7.299-0.6-13.199-3.699c-1.9-1.199-2-4.301-0.4-8.699c1.7-4.301,4.301-9,5.301-10.801c0.1,0,0.1,0,0.199,0
		c0.4,0,1.301-0.199,3.5-1.301c-0.199,1.5,0,2.9,0.6,4.301c0-0.399,0.601-0.899,1.101-1.199c0.101,2.8,0.601,6.199,1.5,9.898
		c-0.399,4.301,0.101,9,2.101,11.2C114.363,328.582,114.164,328.582,113.863,328.682z M125.363,327.182
		c-0.5,0.7-2.1,2.602-3.5,2.602c-1.301,0-2.9-1.9-3.5-2.602c-5.4-9.898-6.301-21.398-5.2-25c0.899-0.5,1.899-1.1,2.899-1.8l-1-1.6
		c-3.699,2.2-8.1,4.7-9.199,4.899c-0.2-0.199-0.5-1.301-0.2-2.801c1-0.1,2-0.199,3.101-0.3h0.5l-0.201-1.8h-0.5
		c-0.1,0-0.299,0-0.399,0l1-1.602l-2.2-2.5h14.9h11.5l0,0l0.101,4.102l1,0.3l-0.2,1.399h0.5c1.1,0.101,2.1,0.199,3.1,0.301
		c0.302,1.5,0,2.6-0.198,2.8c-1.101-0.2-5.5-2.601-9.2-4.899l-1,1.601c1.102,0.7,2.102,1.2,2.898,1.8c0.302,1.1,0.5,2.9,0.4,5.2
		c-0.3-2.2-1.5-3.5-2.8-4.7c-2.101-1.9-7.101-1.4-10.5-0.9c1.2-0.1,5.3,0.4,6,6.4s-0.399,9.4-1.7,11.3c-1.4,1.9-1,5.101,0.9,7.601
		c-0.5-2.5,4.3-3.5,7.5-14.301C129.564,317.182,127.963,322.382,125.363,327.182z M143.164,324.982c-5.9,3.1-11.6,4-13.2,3.699
		c-0.3,0-0.5-0.101-0.8-0.199c2-2.2,2.4-6.9,2.1-11.2c1-3.601,1.4-7.101,1.5-9.9c0.6,0.3,1.2,0.8,1.1,1.2c0.201-0.3,0.302-0.7,0.4-1
		c0.9,2.9,2.4,6.2,3.801,8c0-1.5,1.601-4.3,1.899-6.8c1.2,2.2,2.5,5,3.601,7.6C145.164,320.682,145.064,323.782,143.164,324.982z
		 M163.164,317.482c-0.4,2.898-6.9,7.398-14.7,8.898c-1.3,0.2-2.399,0.102-3.399-0.6c0.799-0.801,1.5-2.2,1.5-4.301
		c0.899-1.101,1.799-2.101,2.699-3.101c1-1.1,2-2.1,3.1-3c1.102-0.899,2.4-1.6,3.602-2.399c1.102-0.601,2.2-1.199,3.301-1.801
		C161.863,313.082,163.564,314.482,163.164,317.482z" class="color c2"/>
    <path fill="#0D1822" d="M105.564,317.382c1.199,0.7,1.199-1.8,3.1-2.8C106.564,315.082,104.363,316.682,105.564,317.382z" class="color c2"/>
    <path fill="#0D1822" d="M135.164,314.582c1.9,1,1.8,3.5,3.1,2.8C139.463,316.682,137.263,315.082,135.164,314.582z" class="color c2"/>
    <path fill="#0D1822" d="M118.263,311.382c1.2,1.101,2.4-1.2,2.301-1.899c0-0.801,0.699-1.601,0.699-1.601
		C118.564,308.682,116.863,310.082,118.263,311.382z" class="color c2"/>
    <path fill="#0D1822" d="M115.463,306.082c-0.101,0.4-0.2,0.8-0.101,1.2c0,0.399,0.101,0.8,0.4,1.1c0-0.399,0-0.7,0-1.1
		c0-0.3,0.1-0.7,0.2-1c0.2-0.7,0.5-1.3,0.899-1.9C116.164,304.682,115.664,305.382,115.463,306.082z" class="color c2"/>
  </g>
  <g>
    <path fill="#0D1822" d="M116.963,147.382c-0.5-0.399-0.899-0.7-1.399-1.1c-0.5-0.4-0.9-0.8-1.4-1.4c-0.2,0.7-0.1,1.5,0.199,2.2
		c0.301,0.7,0.801,1.3,1.4,1.7c0.6,0.5,1.301,0.8,2,0.899c0.7,0.101,1.5,0.101,2.2-0.3c-0.7-0.399-1.2-0.7-1.7-1.1
		C117.963,148.082,117.463,147.782,116.963,147.382z" class="color c2"/>
    <path fill="#0D1822" d="M183.863,201.582c-3.199-14.2-8-31.3-23.6-53.7c-5.301-7.7-9.801-12.5-13.4-16.399
		c-4.399-4.7-7.799-8.5-10.699-14.9c-0.1-0.1-0.2-0.3-0.301-0.4c-3-2.3-7.1-0.199-7.299-0.1c-0.201,0.1-0.4,0.3-0.5,0.6
		c-0.102,0.2-1.301,5.5,0,13.801c-3.9-8.9-5.102-19.7-5.301-23.301c0-0.6,0.1-1,0.1-1c0-0.3-0.1-0.5-0.299-0.699
		c-0.201-0.2-0.4-0.301-0.701-0.301h-0.1c-0.301,0-0.5,0.101-0.701,0.301c-0.199,0.199-0.299,0.399-0.299,0.699c0,0,0,0.4,0.1,1
		c-0.301,3.601-1.4,14.301-5.301,23.101c1.301-8.2,0.101-13.4,0-13.7c-0.1-0.3-0.199-0.5-0.5-0.6c-0.199-0.101-4.299-2.2-7.299,0.1
		c-0.101,0.1-0.201,0.2-0.301,0.4c-2.9,6.399-6.3,10.1-10.699,14.899c-3.601,3.9-8.101,8.7-13.4,16.4
		c-15.6,22.399-20.4,39.5-23.6,53.7c-2.601,11.3-2.801,23.199-0.801,38.6c1.4,10.4,3.301,12,4.6,12.3c0.101,0,0.301,0,0.4,0
		c1,0,1.7-0.7,2-1.2c0.2-0.3,0.2-0.6,0.1-0.898c-0.699-1.7-6.5-26.2-0.799-47.602c5.5-20.5,9.299-27.1,16.899-40.3
		c0.5-0.899,1.101-1.8,1.601-2.8c7-12.1,19.899-26.9,24.799-32.2c-0.299,1.601-0.799,3.9-1.799,6.9l-0.9-1.101l-0.7,0.801
		c0,0.1-1.2,1.399-2.899,4.1c-3,4.9-8.301,15.8-10.101,33.3l0,0c-0.2,2.3-0.399,4.601-0.5,6.9c-0.3,7-0.601,30.5,8.899,40.8
		l0.301,0.3h41.701l0.299-0.3c9.5-10.3,9.301-33.8,8.9-40.8c-1.4-30.601-13-43.7-13.5-44.3l-0.699-0.801l-0.801,1.101
		c-1-3-1.5-5.2-1.699-6.8c4.799,5.3,17.799,20.1,24.799,32.199c0.601,1,1.101,1.9,1.601,2.801c7.601,13.199,11.399,19.8,16.899,40.3
		c5.701,21.3-0.1,45.899-0.799,47.6c-0.102,0.3-0.102,0.601,0.1,0.9c0.3,0.5,1.1,1.2,2,1.2c0.1,0,0.3,0,0.4,0
		c1.299-0.301,3.199-1.9,4.6-12.301C186.664,224.782,186.463,212.882,183.863,201.582z M132.963,125.882c0.101,0.7,0.2,1.7,0.399,3
		c-0.1,0-0.299,0.101-0.399,0.101c-0.399,0-0.899,0-1.399-0.2c-0.701-0.2-1.301-0.5-1.899-0.9c-0.2-1.8-0.2-3.3-0.2-4.7
		C130.463,124.382,131.963,125.282,132.963,125.882z M110.763,125.882c1-0.5,2.5-1.5,3.6-2.7c0,1.4-0.1,2.9-0.199,4.7
		c-0.6,0.4-1.301,0.7-1.9,0.9c-0.5,0.1-0.9,0.2-1.4,0.2c-0.199,0-0.299,0-0.399-0.101
		C110.564,127.482,110.664,126.482,110.763,125.882z M100.664,133.882c-5.9,7-13.5,16.5-18.301,24.9c-0.6,1-1.1,1.899-1.6,2.8
		c-7.699,13.3-11.6,20-17.1,40.8c-5.5,20.601-0.6,44,0.699,48.2c-0.1,0.1-0.199,0.1-0.199,0.1c-0.1,0-1.801-0.5-3.1-10.699
		c-2-15.101-1.701-26.801,0.799-37.9c3.201-14.1,7.9-30.9,23.301-53.1c5.3-7.601,9.5-12.101,13.3-16.2
		c4.399-4.8,8-8.601,10.899-15.101h0.101c0.399,0.4,0.899,1.2,0.8,2.4l-17.1,21L100.664,133.882z M109.963,130.482
		c0.3,0,0.601,0,0.899,0c0.601-0.101,1.201-0.301,1.701-0.5c0.5-0.2,0.899-0.5,1.299-0.801c-0.1,0.7-0.199,1.5-0.399,2.301
		c-0.101,0.399-0.101,0.699-0.2,1.1l-4.9,4l-0.199-0.3C109.064,133.882,109.564,131.982,109.963,130.482z M105.963,136.282l0.2,0.2
		c-0.1,0.399-0.301,0.699-0.4,1.1v0.1l-0.3,0.7c-0.2-0.3-0.3-0.5-0.399-0.7C105.363,137.082,105.763,136.582,105.963,136.282z
		 M103.263,140.582v5.4c0,0-5.5,7.6-8.9,24.3C96.064,155.382,100.363,145.682,103.263,140.582z M98.164,209.082
		c-1.301-3-2.2-6.1-2.801-9.2c-0.6-3.2-0.899-6.399-0.899-9.6c0-3.201,0.3-6.4,0.8-9.5c0.2,3.2,0.301,6.3,0.6,9.5
		c0.301,3.1,0.701,6.2,1.301,9.3s1.4,6.1,2.3,9.1c1,3,2.101,5.9,3.2,8.9C100.863,214.882,99.363,211.982,98.164,209.082z
		 M138.263,138.382l-0.3-0.7v-0.1c-0.101-0.4-0.3-0.7-0.399-1.1l0.199-0.2c2.5,3.399,11.2,16.7,12.4,42.3
		c0.8,17.8-2.2,32.4-8.2,39.1h-39l1.7-1.898c2.199-4.102,11.3-10.2,11.3-10.2c-4,0.8-2.601-0.7-5.3-5.101
		c-0.6,0.601-1.301,0.801-1.7,0.399c-0.5-0.399-0.399-1.3,0.2-2c0.1-0.1,0.199-0.2,0.3-0.3c-1.8-2.9-3.2-6.1-4.3-9.3
		c-0.2,0.3-0.5,0.5-0.801,0.5c-0.6,0-1.1-0.8-1.1-1.7s0.4-1.6,1-1.7c-2.5-8.6-3.199-17.3-3.1-22c0.699,4.5,1,8.8,3.6,8.5
		c3.4-0.399,3-7.5,2.2-13.8l4,7.3l-2.8-8.899l-1.9-6.2c0.5,0.8,2.1,3.5,2.6,4.2c0.5,0.699,2.101,3.5,2.5,4.199
		c0.5,0.7,2.101,3.601,2.5,4.301c-0.299-0.801-1.399-4.2-1.699-5c-0.2-0.601-1.1-3.2-1.4-3.801c-0.1-0.199-0.4-1-0.4-1.199
		c-0.299-0.801-1.5-4.2-1.899-5c-0.101-0.2-0.2-0.5-0.399-0.9c0.1,0.1,0.1,0.1,0.199,0.2c1,1.399,2,2.899,2.9,4.3
		c1,1.5,1.9,2.9,2.8,4.4s1.8,3,2.7,4.5c-0.5-1.7-1.2-3.301-1.9-4.9c-0.699-1.6-1.3-3.2-2-4.9c-0.699-1.6-1.4-3.199-2.199-4.8
		c-0.301-0.6-0.601-1.2-0.9-1.8v-0.1c-0.4-0.9-1.801-3.2-3-5.101l4.3,3.2c0.2,0.2,0.5,0.2,0.8,0.1c0.301-0.1,0.5-0.3,0.6-0.5
		c0.701-1.6,1.201-3.3,1.701-4.899l0,0l0,0c0.299,0.8,0.699,1.6,1.1,2.399c0.4,0.801,0.9,1.5,1.4,2.2s1.1,1.3,1.699,1.9
		c-0.5-0.7-0.9-1.4-1.199-2.2c-0.301-0.8-0.601-1.6-0.801-2.4c-0.199-0.8-0.4-1.6-0.5-2.399s-0.199-1.601-0.199-2.4l0,0
		c0.799-1.3,1.399-2.7,2-4.1c0.1,3.3,1,6.3,2.799,10.1c-0.6-1.399-0.199-5.8,0.5-8.6c0.601-2.4,0.301-5.9-0.799-9
		c0.799-3,1.399-5.9,1.799-8.5c0.4,2.399,0.9,5.1,1.701,7.899c0.199,4.301,1.299,25.7,2.899,30.9c-0.5-9.5-0.5-15.8,0.399-21.7
		c0.5,1.101,1.101,2.2,1.701,3.2l1.398,2.8c0.5,1.601,1,3.2,1.7,4.8c0.101,0.301,0.3,0.5,0.601,0.5c0.301,0.101,0.6,0,0.801-0.1
		l5-3.8C138.263,139.182,138.363,138.782,138.263,138.382z M135.463,136.082l-0.2,0.3l-4.8-3.899c-0.101-0.4-0.2-0.7-0.2-1.101l0,0
		c-0.1-0.8-0.3-1.5-0.4-2.3c0.4,0.3,0.9,0.6,1.302,0.8c0.5,0.2,1.101,0.4,1.698,0.5c0.302,0,0.602,0,0.9,0
		C134.064,131.982,134.664,133.882,135.463,136.082z M182.863,239.882c-1.299,10.2-3.1,10.7-3.1,10.7c-0.101,0-0.101,0-0.199-0.1
		c1.199-4.2,6.199-27.602,0.699-48.2c-5.601-20.7-9.4-27.4-17.101-40.8c-0.5-0.9-1.101-1.801-1.601-2.801
		c-4.801-8.399-12.399-18-18.301-24.899l7.7,7.1l-17.101-21c0-1.2,0.399-2,0.801-2.399h0.1c3,6.5,6.5,10.3,10.9,15.1
		c3.8,4,8,8.6,13.3,16.2c15.399,22.1,20.101,39,23.3,53.1C184.564,213.082,184.863,224.782,182.863,239.882z" class="color c2"/>
  </g>
  <g>
    <g>
      <g>
        <path fill="#FFFFFF" d="M146.263,240.982c-0.1-2-1.699-2.4-2.3-4.2c-0.601-1.9,0.5-6.601-0.2-7.8c1.5-0.7,1.301-2.801,0.5-4.4
				c-0.8-1.6-1.9-6-1.9-6l-3.698-3.1c-5.399-1.9-16.8-1.5-16.8-1.5s-11.4-0.4-16.801,1.5l-3.699,3.1c0,0-1,4.4-1.9,6s-1,3.7,0.5,4.4
				c-0.8,1.199,0.4,5.898-0.199,7.8c-0.601,1.899-2.301,2.2-2.301,4.2s2.4,1.699,2.4,2.3c0.1,0.6-1.6,11.1-0.1,13.8
				c0.5,0.9,1,1.3,1.399,1.4c-1.8,2.5-0.8,3.3-0.7,6.1s-0.1,4.7,1.301,5.9c0.199,1-0.801,1.898-0.9,3.5c-0.1,1.6,0.6,3.898,1,6.699
				c0,0,0.6,0.899,1.9,1.399c-1,1.399-1.101,2.8-0.9,3.601c0.199,0.899,3.1,9.699,6.199,14h12.701h12.699
				c3.102-4.301,5.898-13.101,6.2-14c0.198-0.899,0.198-2.301-0.899-3.601c1.199-0.5,1.899-1.399,1.899-1.399
				c0.399-2.801,1.198-5.199,1-6.699c-0.2-1.602-1.2-2.5-0.899-3.5c1.399-1.2,1.199-3.102,1.301-5.9c0.1-2.8,1.1-3.6-0.701-6.1
				c0.4-0.102,0.9-0.5,1.4-1.4c1.5-2.7-0.101-13.2-0.101-13.8C143.963,242.682,146.363,242.982,146.263,240.982z" class="color c1"/>
      </g>
    </g>
  </g>
  <path fill="#C40A0A" d="M127.963,223.482c3.2,1,11.101,5.1,12.101,6.6s0.899,4.6-0.201,5.2c1.4,0.8,1.5,2,0.9,2.899
	s-7.699-2.801-7.699-2.801s-2-0.5-2.101-2.199s1.8-3.601,0.899-5.699C131.064,225.382,130.164,224.882,127.963,223.482z
	 M133.463,243.882c0.8,3.4-1.601,3.2-1.7,4.7c-0.099,1.5,5.2,5.9,6.7,6.3c1.5,0.4,2.601,0.2,3-0.3s0.2-1-0.601-1.6
	c0.4-3.102,0.301-5.4,0.201-6.9c-0.201-1.6-1.102-3.1-2.5-3.9c-6.102-3.8-10-3.1-12.301-2.699
	C126.363,239.482,132.664,240.482,133.463,243.882z M132.564,256.782c-0.602,2.3-0.5,8.899,1.699,11c1.399,0.2,3.5,0.6,5,0
	c1.5-0.601,2.1-1.5,0-3.2c0.5-3.1,0.399-5-0.699-6.1C137.463,257.482,134.064,256.482,132.564,256.782z M140.664,275.182
	c0,0-1.4-2.8-5.301-3.5c-3.899-0.699-6.199,0.7-6.199,0.7l2.5,0.7c0,0-0.7,2.6-0.9,4.8c-0.199,2.2,0.5,3.2,1.7,3
	c1,2.101,2.5,0.9,3,0.101c0.5-0.699,3.2-5.601,2.5-7.399L140.664,275.182z" class="color c3"/>
  <path fill="#0D1822" d="M115.863,223.482c-2.1,1.398-3.1,2-3.899,4.1c-0.899,2.1,1,4,0.899,5.7c-0.1,1.7-2.1,2.2-2.1,2.2
	s-7.1,3.699-7.699,2.8c-0.601-0.9-0.4-2.101,0.899-2.9c-1.2-0.6-1.3-3.6-0.2-5.2C104.763,228.582,112.564,224.382,115.863,223.482z
	 M117.463,239.482c-2.3-0.4-6.2-1.102-12.3,2.699c-1.4,0.899-2.301,2.301-2.5,3.899c-0.2,1.5-0.2,3.8,0.199,6.899
	c-0.699,0.601-1,1.199-0.6,1.601c0.4,0.5,1.5,0.7,3,0.3c1.5-0.398,6.7-4.699,6.7-6.3c-0.101-1.5-2.5-1.3-1.7-4.7
	C111.164,240.482,117.463,239.482,117.463,239.482z M105.263,258.582c-1.1,1.1-1.199,3-0.699,6.1c-2.101,1.7-1.5,2.602,0,3.2
	c1.5,0.601,3.6,0.2,5,0c2.199-2.1,2.299-8.7,1.699-11C109.763,256.482,106.363,257.482,105.263,258.582z M108.463,271.682
	c-3.899,0.7-5.3,3.5-5.3,3.5l2.8-1.398c-0.7,1.8,2,6.6,2.5,7.398c0.5,0.7,1.899,1.9,3-0.1c1.2,0.1,1.899-0.8,1.7-3
	c-0.2-2.2-0.9-4.8-0.9-4.8l2.5-0.7C114.664,272.382,112.363,270.882,108.463,271.682z" class="color c2"/>
  <path fill="#0D1822" d="M147.263,240.982c0-1.5-0.8-2.301-1.4-3c-0.398-0.5-0.799-0.9-1-1.5c-0.299-0.7-0.1-2.301,0-3.7
	c0.102-1.5,0.201-2.601,0-3.4c0.302-0.3,0.602-0.7,0.802-1.2c0.399-1.1,0.198-2.6-0.5-4c-0.601-1.3-1.5-4.6-1.802-5.8
	c0-0.2-0.198-0.399-0.299-0.5l-3.701-3.1c-0.1-0.101-0.198-0.101-0.299-0.2c-5.5-1.9-16.301-1.5-17.101-1.5s-11.601-0.3-17.101,1.5
	c-0.1,0-0.199,0.1-0.299,0.2l-3.701,3.1c-0.199,0.101-0.299,0.3-0.299,0.5c-0.301,1.2-1.201,4.601-1.801,5.8
	c-0.699,1.4-0.9,2.9-0.5,4c0.2,0.5,0.4,0.9,0.801,1.2c-0.201,0.8-0.101,1.9,0,3.4c0.1,1.399,0.199,2.899,0,3.7
	c-0.201,0.6-0.601,1-1,1.5c-0.601,0.699-1.301,1.5-1.4,3c-0.1,2,1.699,2.6,2.4,2.8l0,0c0,0.3-0.101,0.6-0.101,0.899
	c-0.601,5.399-1,10.801,0.2,12.899c0.3,0.5,0.6,0.899,0.9,1.2c-0.9,1.6-0.701,2.699-0.5,4c0.1,0.5,0.199,1.1,0.199,1.898
	c0,0.4,0,0.9,0,1.301c0,2,0.1,3.801,1.301,5c0,0.199-0.201,0.5-0.301,0.801c-0.199,0.6-0.5,1.199-0.6,2.1
	c-0.1,1.102,0.199,2.4,0.5,4c0.199,0.9,0.4,1.9,0.6,3c0,0.102,0.1,0.301,0.2,0.4s0.5,0.699,1.3,1.199c-0.6,1.199-0.8,2.399-0.5,3.5
	c0.301,1,3.2,9.899,6.301,14.301c0.199,0.199,0.5,0.398,0.799,0.398h25.301c0.3,0,0.6-0.1,0.8-0.398c3.101-4.4,6-13.2,6.3-14.301
	c0.301-1.101,0.1-2.399-0.5-3.5c0.801-0.5,1.2-1.101,1.301-1.199c0.101-0.102,0.101-0.301,0.199-0.4c0.2-1.1,0.4-2.1,0.6-3
	c0.302-1.5,0.602-2.898,0.5-4c-0.1-0.898-0.398-1.6-0.6-2.1c-0.1-0.301-0.3-0.602-0.3-0.801c1.2-1.199,1.3-3,1.3-5
	c0-0.399,0-0.801,0-1.301c0-0.699,0.1-1.3,0.2-1.898c0.2-1.301,0.399-2.4-0.5-4c0.3-0.301,0.601-0.7,0.899-1.2
	c1.201-2.101,0.801-7.399,0.201-12.899c0-0.301-0.102-0.601-0.102-0.899l0,0C145.564,243.482,147.263,242.982,147.263,240.982z
	 M139.863,285.382c-0.199,0.7-2.199,6.7-4.5,11.2c0.5-2.4,1-5.8,0.4-8.5c2.5-1,2.301-2.9,2.301-2.9c-2.301,1.2-3.5,0.801-3.5,0.801
	s-5-0.199-5.602,0.601c-0.602,0.7,3.2,5.899-1,12.101h-12c-4.199-6.199-0.5-11.399-1-12.101c-0.6-0.8-5.6-0.601-5.6-0.601
	s-1.2,0.399-3.5-0.801c0,0-0.1,1.9,2.3,2.9c-0.601,2.6-0.2,6,0.399,8.5c-2.299-4.4-4.299-10.5-4.5-11.2
	c-0.1-0.3-0.199-1.1,0.301-2.2c2.6,1.301,4.3,1.5,7.1,1.2c2.801-0.3,10.4,0.101,10.4,0.101h0.1c0.1,0,7.602-0.5,10.398-0.101
	c0.802,0.101,1.4,0.101,2.102,0.101c1.7,0,3.102-0.399,5.102-1.301C140.064,284.282,139.863,285.082,139.863,285.382z
	 M141.363,277.382c-0.199,0.9-0.399,1.8-0.5,2.8c-0.199,0.2-0.699,0.602-1.299,0.9c0,0,0,0-0.102,0l0,0c-2.8,1.4-4.102,1.7-6.8,1.4
	c-2.899-0.301-9.899,0.1-10.7,0.1c-0.8,0-7.8-0.5-10.699-0.1c-2.801,0.3-4,0.1-6.801-1.4l0,0c0,0,0,0-0.1,0
	c-0.7-0.3-1.1-0.7-1.301-0.9c-0.199-1-0.399-2-0.5-2.8c-0.299-1.399-0.5-2.6-0.5-3.399c0.101-0.601,0.301-1.101,0.5-1.601
	c0.101-0.2,0.201-0.399,0.301-0.6c2,0.5,4.6-0.5,7-1.3c1-0.4,2-0.7,2.9-0.9c1.699-0.4,2.699-0.2,4.399,0.2
	c1.2,0.3,2.7,0.6,4.899,0.7h0.101c2.101-0.102,3.601-0.4,4.899-0.7c1.601-0.3,2.699-0.601,4.399-0.2c0.8,0.2,1.8,0.6,2.899,0.9
	c1.9,0.699,4,1.5,5.801,1.5c0.4,0,0.8-0.102,1.199-0.102c0.101,0.2,0.201,0.4,0.301,0.602c0.199,0.5,0.4,1,0.5,1.6
	C141.963,274.782,141.664,275.982,141.363,277.382z M142.463,262.382c-0.101,0.601-0.2,1.2-0.2,2.101c0,0.5,0,0.899,0,1.301
	c0,2.1-0.1,3.199-0.9,3.898l0,0l0,0c-1.198,1-4.198-0.1-6.6-1c-1.1-0.398-2.1-0.8-3-1c-2.1-0.5-3.5-0.199-5.199,0.102
	c-1.201,0.3-2.601,0.5-4.5,0.6c-2-0.1-3.299-0.398-4.5-0.6c-1.699-0.4-3.1-0.7-5.199-0.102c-0.9,0.2-2,0.602-3,1
	c-2.4,0.9-5.4,2-6.6,1l0,0l0,0c-0.801-0.699-0.9-1.8-0.9-3.898c0-0.4,0-0.9,0-1.301c0-0.801-0.1-1.5-0.2-2.101
	c-0.2-1.3-0.3-1.899,0.601-3.2c2.1-0.699,3.5-1.5,4.6-2.1c1.3-0.7,2.199-1.3,3.8-1.4c3.899-0.398,8.2-0.8,11.601-0.8
	c3.399,0,7.799,0.4,11.598,0.8c1.602,0.2,2.5,0.7,3.802,1.4c1.101,0.6,2.5,1.4,4.601,2.1
	C142.763,260.482,142.664,261.082,142.463,262.382z M144.263,241.982c-0.1,0-0.3,0.1-0.4,0.1c-1-0.8-2.1-1.5-3.299-2.1
	c-1.301-0.7-2.701-1.301-4.201-1.801c-1.398-0.5-2.898-0.899-4.398-1.101s-3-0.3-4.5-0.2c1.5,0.4,2.898,0.801,4.301,1.2
	c1.399,0.5,2.801,1,4.1,1.601c1.301,0.601,2.601,1.301,3.9,2c1.1,0.699,2.199,1.399,3.199,2.199c0,0.2,0.102,0.602,0.102,1.102
	c0.299,2.398,1.1,9.898,0,11.8c-0.301,0.5-0.5,0.7-0.602,0.8c-1.898-0.6-3.199-1.3-4.199-1.9c-1.4-0.8-2.5-1.5-4.5-1.699
	c-3.9-0.399-8.301-0.801-11.801-0.801c-3.4,0-7.9,0.4-11.8,0.801c-2,0.199-3.2,0.899-4.5,1.699c-1.101,0.602-2.3,1.301-4.2,1.9
	c-0.1-0.1-0.4-0.3-0.6-0.8c-1-1.9-0.2-9.3,0-11.8c0.1-0.5,0.1-0.801,0.1-1.102c1-0.8,2.1-1.5,3.2-2.199c1.2-0.699,2.5-1.399,3.899-2
	c1.301-0.601,2.701-1.101,4.101-1.601c1.399-0.399,2.8-0.8,4.3-1.2c-1.5-0.1-3,0-4.5,0.2s-2.9,0.601-4.4,1.101
	c-1.399,0.5-2.799,1.101-4.199,1.801c-1.1,0.6-2.2,1.3-3.301,2.1c-0.1-0.1-0.299-0.1-0.399-0.1c-0.899-0.301-1.101-0.4-1.101-0.9
	c0-0.8,0.4-1.2,0.9-1.8c0.5-0.5,1-1.2,1.4-2.101c0.4-1.101,0.199-2.801,0.1-4.399c-0.1-0.8-0.1-2-0.1-2.7l0,0c0.1,0,0.3,0,0.4-0.1
	l0.399-0.102c0.5-0.1,0.899-0.3,1.3-0.5c0.801-0.398,1.6-0.8,2.301-1.3c0.699-0.5,1.399-1,2.1-1.5c0.699-0.5,1.3-1,2-1.399
	c1.4-0.899,2.8-1.601,4.4-2.199c1.5-0.602,3.1-1.102,4.799-1.4c-1.699,0-3.399,0.2-5,0.6c-1.6,0.4-3.299,1-4.799,1.9
	c-0.801,0.4-1.5,0.9-2.201,1.4c-0.699,0.5-1.399,0.898-2.1,1.3c-0.699,0.399-1.4,0.8-2.1,1.1c-0.4,0.2-0.7,0.3-1.1,0.4
	c-0.301,0.1-0.5,0.1-0.701,0.1c-0.199-0.1-0.399-0.3-0.5-0.5c-0.199-0.6-0.1-1.6,0.4-2.6c0.7-1.5,1.6-4.9,1.9-5.9l3.3-2.8
	c0.3-0.1,0.7-0.2,1.101-0.3c-2,2.2-3.101,4.8-3,6.1c0.199,1.5,0.5,3.3,3.899,1.4c3.399-1.9,4.7-1.9,5.8-3.3
	c0.801-0.9,1.1-3.7,1.2-5.2c3.8-0.2,7.101-0.101,7.2-0.101c0,0,0,0,0.1,0s3.398-0.101,7.2,0.101c0.101,1.5,0.399,4.3,1.198,5.2
	c1.102,1.3,2.4,1.3,5.802,3.3c3.399,1.899,3.8,0.1,3.899-1.4c0.101-1.3-1-3.899-3-6.1c0.399,0.1,0.799,0.2,1.101,0.3l3.3,2.8
	c0.301,1,1.102,4.5,1.898,5.9c0.5,0.899,0.602,2,0.4,2.6c-0.1,0.2-0.199,0.4-0.5,0.5c-0.1,0-0.4,0-0.699-0.1
	c-0.301-0.101-0.701-0.2-1.101-0.4c-0.7-0.3-1.399-0.7-2.101-1.1c-0.699-0.4-1.399-0.8-2.1-1.3c-0.699-0.5-1.4-1-2.199-1.4
	c-1.5-0.8-3.102-1.4-4.801-1.9c-1.601-0.398-3.301-0.6-5-0.6c1.699,0.3,3.301,0.8,4.801,1.4c1.5,0.6,3,1.3,4.398,2.199
	c0.7,0.399,1.301,0.899,2,1.399c0.7,0.5,1.398,1,2.102,1.5c0.699,0.5,1.5,0.899,2.299,1.3c0.4,0.2,0.801,0.4,1.301,0.5l0.4,0.102
	c0.1,0,0.299,0,0.398,0.1l0,0c0.102,0.7,0,1.8-0.102,2.7c-0.1,1.6-0.198,3.3,0.102,4.399c0.301,1,0.898,1.601,1.398,2.101
	c0.5,0.6,0.9,1,0.9,1.8C145.363,241.482,145.164,241.682,144.263,241.982z" class="color c2"/>
</svg>