<svg version="1.1" id="图层_1" x="0px" y="0px" width="129.007px" height="133.981px" viewBox="0 0 129.007 133.981" enable-background="new 0 0 129.007 133.981" xml:space="preserve" xmlns="http://www.w3.org/2000/svg" xmlns:xlink="http://www.w3.org/1999/xlink" xmlns:xml="http://www.w3.org/XML/1998/namespace">
  <path fill="#1E7889" d="M15.472,70.218C43.742,32.029,64.23,6.147,72.327,3.966c7.388-1.989,10.89,0.861,12.321,2.734
	c2.644,3.461,2.471,8.912-0.44,13.884c-1.331,2.273-7.157,10.18-15.223,20.979c-0.846-0.101-1.702-0.168-2.576-0.168
	c-0.958,0-1.895,0.084-2.819,0.206c8.558-11.446,15.593-20.942,16.908-23.189c1.993-3.408,2.29-7.065,0.734-9.103
	c-1.345-1.759-4.109-2.181-7.787-1.192c-8.309,2.238-41.88,47.586-54.518,64.658c-2.186,2.952-4.002,5.404-5.406,7.275
	c-1.79-0.226-3.569-0.261-5.315-0.121C9.604,78.143,12.215,74.619,15.472,70.218z M31.922,91.352
	c4.52-6.19,9.619-13.072,14.747-19.952c-0.707-1.638-1.196-3.388-1.477-5.206c-5.983,8.02-11.417,15.344-16.066,21.702
	C30.154,88.971,31.093,90.125,31.922,91.352z M4.529,70.621c10.416-17.512,31.343-53.269,31.569-53.657
	c0.601-1.024,0.255-2.342-0.771-2.941c-1.023-0.599-2.341-0.256-2.941,0.77C32.171,15.163,13.1,47.753,2.315,65.929
	C3.21,67.374,3.959,68.945,4.529,70.621z M127.757,77.569c-1.488-2.566-4.185-3.984-8.012-4.215
	c-5.546-0.348-15.366,11.348-35.276,37.662c-5.987,7.915-11.159,14.751-13.388,16.813c-2.052,1.896-4.059,2.343-5.656,1.248
	c-1.84-1.257-2.982-4.472-1.718-7.676c2.051-5.191,29.641-41.09,44.463-60.375c5.47-7.114,9.787-12.734,12.019-15.727
	c5.846-7.849,2.439-12.986,0.701-14.833c-3.926-4.173-11.435-5.175-16.071-2.146c-2.312,1.512-9.052,9.303-20.4,22.853
	c0.85,1.302,1.551,2.706,2.104,4.183c9.938-11.882,18.682-22.152,20.648-23.436c2.867-1.876,8.112-1.138,10.588,1.494
	c2.73,2.902,0.953,6.668-1.02,9.317c-2.21,2.967-6.521,8.575-11.978,15.676c-22.546,29.333-42.954,56.101-45.052,61.415
	c-1.873,4.736-0.461,10.241,3.282,12.805c1.329,0.908,2.781,1.355,4.278,1.355c2.245,0,4.587-1.013,6.731-2.996
	c2.508-2.321,7.531-8.963,13.896-17.373c6.071-8.023,12.954-17.121,19.048-24.283c9.457-11.11,12.11-11.682,12.541-11.682
	c3.465,0.207,4.281,1.616,4.551,2.08c0.959,1.65,1.679,6.219-4.261,18.234c-7.802,15.779-24.837,26.316-25.007,26.421
	c-1.011,0.619-1.332,1.941-0.713,2.954c0.616,1.014,1.939,1.334,2.952,0.716c0.743-0.451,18.258-11.269,26.622-28.185
	C128.987,89.034,130.298,81.949,127.757,77.569z M58.051,82.706c-7.788,9.228-15.399,18.081-21.711,24.999
	c-0.1,1.484-0.319,2.979-0.685,4.475c-0.341,1.388-0.812,2.702-1.353,3.976c7.465-7.72,17.639-19.515,28.261-32.125
	C60.996,83.746,59.481,83.309,58.051,82.706z" class="color c1"/>
  <path fill="#FFFFFF" d="M45.12,60.062c-0.122,0.929-0.207,1.869-0.207,2.831c0,1.401,0.145,2.768,0.4,4.094
	c-5.481,7.35-10.965,14.745-15.777,21.34c-0.97-1.061-2.034-2.041-3.177-2.936C31.671,78.118,38.042,69.54,45.12,60.062z
	 M5.799,76.915c0.086,1.084,0.124,2.184,0.079,3.303c1.001-0.172,2.02-0.278,3.046-0.332c0.033-0.041,0.067-0.075,0.101-0.117
	c1.333-1.666,4.007-5.281,7.711-10.281C29.373,52.415,62.943,7.066,71.253,4.829c3.677-0.989,6.441-0.567,7.787,1.192
	c1.556,2.038,1.258,5.694-0.735,9.103c-1.5,2.563-10.445,14.56-20.602,28.125c2.076-0.922,4.32-1.53,6.681-1.751
	c9.302-12.436,16.171-21.709,17.632-24.203c2.91-4.973,3.084-10.423,0.439-13.884c-1.432-1.874-4.933-4.724-12.321-2.735
	C62.037,2.857,41.549,28.74,13.278,66.929C9.85,71.562,7.131,75.231,5.799,76.915z M54.632,80.868
	c-6.563,7.76-12.955,15.191-18.503,21.359c0.295,2.027,0.355,4.108,0.155,6.21c6.404-6.945,14.17-15.953,22.272-25.546
	C57.173,82.346,55.858,81.672,54.632,80.868z M125.563,74.28c-1.488-2.566-4.185-3.984-8.012-4.216
	c-5.546-0.347-15.366,11.349-35.276,37.663c-5.986,7.914-11.158,14.75-13.387,16.813c-2.052,1.896-4.06,2.342-5.657,1.248
	c-1.84-1.258-2.982-4.473-1.718-7.677c2.051-5.191,29.641-41.09,44.463-60.375c5.47-7.114,9.787-12.734,12.019-15.727
	c5.846-7.849,2.439-12.986,0.701-14.833c-3.925-4.173-11.435-5.175-16.071-2.146c-2.325,1.521-9.134,9.398-20.61,23.105
	c1.009,1.067,1.905,2.237,2.681,3.493c9.787-11.696,18.341-21.73,20.282-22.998c2.867-1.876,8.112-1.138,10.588,1.494
	c2.73,2.902,0.953,6.668-1.02,9.317c-2.21,2.967-6.52,8.575-11.978,15.675c-22.546,29.333-42.954,56.101-45.052,61.415
	c-1.873,4.736-0.461,10.24,3.283,12.805c1.329,0.908,2.78,1.356,4.277,1.356c2.246,0,4.588-1.015,6.731-2.997
	c2.508-2.322,7.532-8.964,13.896-17.374c6.071-8.023,12.955-17.121,19.049-24.282c9.456-11.111,12.109-11.682,12.54-11.683
	c3.465,0.208,4.282,1.616,4.551,2.081c0.959,1.65,1.679,6.219-4.261,18.234c-7.802,15.779-24.836,26.315-25.006,26.42
	c-1.012,0.619-1.333,1.941-0.714,2.955c0.617,1.013,1.939,1.333,2.952,0.715c0.743-0.451,18.259-11.268,26.622-28.184
	C126.794,85.745,128.104,78.659,125.563,74.28z M2.738,66.656c10.541-17.737,30.943-52.598,31.167-52.981
	c0.601-1.024,0.255-2.342-0.771-2.941c-1.024-0.599-2.341-0.256-2.941,0.77C29.977,11.875,10.761,44.713,0,62.847
	C1.044,63.985,1.952,65.271,2.738,66.656z" class="color c2"/>
</svg>