<svg version="1.1" id="图层_1" x="0px" y="0px" width="91.211px" height="54.309px" viewBox="0 0 91.211 54.309" enable-background="new 0 0 91.211 54.309" xml:space="preserve" xmlns="http://www.w3.org/2000/svg" xmlns:xlink="http://www.w3.org/1999/xlink" xmlns:xml="http://www.w3.org/XML/1998/namespace">
  <path fill="#E2C591" d="M0.617,7.756c0,0-2.676,6.202,3.117,20.796c5.794,14.592,16.49,35.752,12.926,20.43
	C13.093,33.66,4.851-7.429,0.617,7.756z" class="color c1"/>
  <path fill="#E2C591" d="M89.295,7.435c0,0-8.539,7.572-15.479,20.722c-6.939,13.147-10.332,30.813-1.195,18.407
	C81.76,34.156,96.491,5.627,89.295,7.435z" class="color c1"/>
  <path fill="#E2C591" d="M34.821,6.935c0,0-1.003-12.449-7.855-3.01c-6.854,9.441,3.008,48.706,5.681,47.61
	C35.32,50.441,33.649,39.635,34.821,6.935z" class="color c1"/>
  <path fill="#E2C591" d="M64.234,1.19c0,0-5.685,2.463-10.698,16.417c-5.012,13.954-9.691,39.403-4.344,32.288
	C54.54,42.779,73.258-8.385,64.234,1.19z" class="color c1"/>
</svg>