<svg version="1.1" id="图层_1" x="0px" y="0px" width="110.844px" height="81.721px" viewBox="0 0 110.844 81.721" enable-background="new 0 0 110.844 81.721" xml:space="preserve" xmlns="http://www.w3.org/2000/svg" xmlns:xlink="http://www.w3.org/1999/xlink" xmlns:xml="http://www.w3.org/XML/1998/namespace">
  <path fill="#50A73C" d="M108.274,32.935l-0.206,0.207c-0.823,1.029-1.853,2.264-3.087,3.294c-1.236,1.029-2.676,1.852-4.117,2.675
	c-1.441,0.823-3.294,1.441-4.941,2.058c-1.646,0.618-3.499,1.029-5.351,1.441c-3.706,0.824-7.412,1.236-10.911,1.441
	c-2.882,0.206-5.764,0.206-8.234,0.206c0.206-0.411,0.412-1.029,0.824-1.441c0.411-0.617,0.618-1.44,1.029-2.057
	c0.412-0.618,0.618-1.442,1.03-2.06c0.412-0.824,0.617-1.44,1.029-2.263c0.412-0.824,0.618-1.647,1.029-2.265
	c0.206-0.412,0.412-0.824,0.412-1.236c0.206-0.411,0.412-0.822,0.412-1.234c0.618-1.647,1.236-3.294,1.853-4.941
	c0.412-0.823,0.618-1.647,1.029-2.469c0.412-0.824,0.618-1.647,0.823-2.471c0.206-0.823,0.618-1.647,0.824-2.676
	c1.02-3.437,2.47-7.204,2.47-7.204c0.412-1.235,0.823-2.47,1.029-3.705c0.206-0.618,0.411-1.235,0.618-1.854
	c0-0.411,0.206-1.028,0.206-1.44c0.206-1.03,0.618-1.853,0.823-2.676C87.277,0.824,87.483,0,87.483,0s-0.411,0.824-1.234,2.059
	c-0.412,0.617-0.824,1.44-1.236,2.47c-0.206,0.411-0.617,1.028-0.823,1.44c-0.206,0.617-0.618,1.029-0.824,1.646
	c-0.617,1.029-1.441,2.265-2.059,3.706c0,0.109-0.057,0.161-0.111,0.216l-0.094,0.196l-4.529,7.204
	c-0.206,0.206-0.206,0.412-0.412,0.618c-0.412,0.617-0.823,1.441-1.44,2.264c-0.412,0.618-1.029,1.441-1.441,2.059
	c-1.029,1.441-1.853,2.881-2.881,4.323c-0.206,0.411-0.412,0.617-0.618,1.029c-0.206,0.412-0.412,0.617-0.823,1.029
	c-0.412,0.617-1.029,1.234-1.441,2.059c-0.206,0.412-0.412,0.617-0.823,1.029c0.206-4.116,0.411-8.439,0.823-12.557
	c0.258-2.921-0.206-7.615-0.206-7.615c-2.058-3.5-7.204-3.5-9.263-0.412c0,0-0.544,5.77-0.411,7.41
	c0.618,5.147-0.618,11.94-2.059,17.702c-0.206-0.411-0.618-0.616-0.824-1.028c-0.822-1.03-1.646-2.059-2.264-3.294
	c-0.412-0.617-0.824-1.234-1.029-1.852c-0.412-0.618-0.618-1.236-1.029-2.059c-0.412-0.617-0.617-1.441-1.029-2.059l-0.411-1.029
	l-0.412-1.029c-0.618-1.441-1.03-2.882-1.441-4.528c-0.206-1.029-0.412-1.647-0.412-2.471l-1.029-8.027v-0.206
	c0-0.618,0-1.235,0-1.852c0-1.235,0-2.265,0-3.293c0-1.029,0-1.854,0.206-2.676c0.206-1.441,0.206-2.265,0.206-2.265
	s-0.206,0.824-0.824,2.059c-0.206,0.617-0.412,1.44-0.823,2.471c-0.412,1.028-0.618,2.057-0.824,3.292
	c-0.206,0.617-0.206,1.029-0.412,1.646c0,0-0.64,5.899-0.618,8.028c0,0.618,0,1.441-0.205,2.058c0,0.824,0,1.647,0,2.47
	c0,1.647,0.205,3.499,0.412,5.147l0.205,1.235c0,0.412,0.206,0.822,0.206,1.234c0.206,0.824,0.412,1.646,0.412,2.676
	c0.206,0.823,0.412,1.647,0.618,2.47c0.206,0.823,0.411,1.646,0.823,2.47c0.412,1.234,0.824,2.47,1.441,3.705
	c-1.441-0.411-2.882-0.823-4.324-1.029c-1.852-0.412-3.911-0.617-5.969-0.617c-2.059-0.207-4.117-0.207-5.97,0
	c-3.911,0.205-7.822,0.823-11.528,1.44c-1.851,0.412-3.5,0.824-5.146,1.029c-1.646,0.412-3.087,0.824-4.528,1.235
	c-1.441,0.411-2.676,0.823-3.705,1.235c-1.028,0.412-2.058,0.617-2.881,1.029C0.823,46.11,0,46.315,0,46.315
	s1.029-0.205,2.676-0.412c0.823,0,1.852-0.206,3.087-0.412c1.235-0.205,2.47-0.205,3.911-0.412c1.441-0.206,2.882-0.206,4.529-0.206
	c1.647,0,3.293,0,5.146,0c3.499,0,7.205,0.412,10.704,0.824c1.853,0.206,3.5,0.617,5.146,1.029c1.647,0.411,3.293,1.029,4.734,1.646
	c1.441,0.619,2.882,1.236,4.117,2.058c1.235,0.617,2.471,1.441,3.499,2.265c0.824,0.618,1.648,1.236,2.471,1.853L46.169,64.67
	l0.005,0c-0.021,0.058-0.046,0.111-0.065,0.17c-0.618,1.029-1.03,2.058-1.647,3.294c-0.618,1.029-1.236,2.059-1.854,3.087
	c-0.617,1.029-1.234,1.853-1.852,2.882c-0.618,0.822-1.236,1.646-1.647,2.47c-0.618,0.824-1.029,1.441-1.44,2.058
	c-0.412,0.618-0.823,1.029-1.235,1.648c-0.618,0.824-1.03,1.441-1.03,1.441s0.412-0.412,1.441-1.029
	c0.412-0.412,1.029-0.618,1.646-1.235c0.618-0.412,1.235-1.029,2.059-1.646c0.823-0.618,1.646-1.236,2.47-1.853
	c0.824-0.618,1.646-1.44,2.676-2.265c0.824-0.822,1.852-1.646,2.676-2.47c0.823-0.822,1.853-1.852,2.675-2.675
	c0.824-1.03,1.647-1.853,2.471-2.882c0.233-0.232,0.465-0.53,0.697-0.819v-0.001l2.477-3.17c0.048-0.074,0.106-0.15,0.148-0.221
	l2.703-3.554l0.149,0.15c0.618,1.029,1.853,1.853,2.883,2.47c1.028,0.412,1.852,0.824,2.47,1.029
	c1.44,0.412,2.882,0.617,4.323,0.824c1.44,0.206,2.676,0.411,4.117,0.617c2.676,0.617,5.763,1.235,8.44,2.265
	c2.882,1.029,5.764,2.263,8.234,3.706c2.676,1.441,4.94,2.675,6.998,4.116c2.059,1.236,3.5,2.47,4.735,3.294
	c0.618,0.412,1.029,0.823,1.235,1.029c-0.206-0.207-0.617-0.824-1.029-1.236c-0.823-1.029-2.059-2.675-3.705-4.323
	c-2.264-3.087-4.116-5.146-6.381-7.205c-2.264-2.058-4.94-4.117-7.616-5.969c-1.441-1.029-2.881-1.852-4.323-2.675
	c-1.235-0.824-2.676-1.442-3.911-2.059c1.647-0.412,3.293-0.824,4.941-1.236c3.705-1.028,7.616-2.265,11.527-3.911
	c1.852-0.824,3.705-1.853,5.558-2.882c1.852-1.029,3.5-2.265,4.94-3.5c1.441-1.235,2.882-2.676,4.117-4.117
	c1.235-1.44,2.058-2.882,2.676-4.323c0-0.205,0-0.205,0.206-0.412c0.019,0.012,0.038,0.025,0.057,0.036
	c0.537-3.41,0.659-5.294,0.659-5.294C109.778,30.846,108.274,32.935,108.274,32.935z" class="color c1"/>
</svg>