<svg version="1.1" id="图层_1" x="0px" y="0px" width="146.732px" height="133.348px" viewBox="0 0 146.732 133.348" enable-background="new 0 0 146.732 133.348" xml:space="preserve" xmlns="http://www.w3.org/2000/svg" xmlns:xlink="http://www.w3.org/1999/xlink" xmlns:xml="http://www.w3.org/XML/1998/namespace">
  <g>
    <g>
      <path fill="#F6B400" d="M144.514,40.693c-0.022-0.06-0.071-0.1-0.096-0.158c-0.546-2.106-1.181-4.156-1.966-6.111l-7.066,5.795
			c1.019,1.842,1.963,3.716,2.833,5.616l3.267,9.366c-0.244,1.749-0.701,3.392-1.428,4.897c-2.869,5.96-8.68,8.039-8.867,8.109
			L86.414,86.36c-0.064-1.693-0.297-3.516-0.746-5.496c-0.051-0.231-0.082-0.462-0.098-0.691l50.948-21.179
			c0.291-0.123,0.548-0.296,0.829-0.435l-3.787-10.853c-0.995-2.176-2.083-4.355-3.307-6.501c-0.005-0.005-0.014-0.007-0.018-0.012
			c-0.045-0.055-0.055-0.121-0.096-0.179c-2.181-3.794-4.822-7.481-8.282-10.843c-0.091-0.045-0.187-0.07-0.271-0.128
			c-0.319-0.213-0.558-0.498-0.743-0.807c-3.544-3.231-7.894-6.134-13.392-8.508c-0.233-0.025-0.47-0.045-0.698-0.144
			c-0.212-0.087-0.373-0.233-0.545-0.369c-4.479-1.814-9.666-3.302-15.764-4.337c-0.094,0.01-0.18,0.041-0.271,0.041
			c-0.302,0-0.605-0.053-0.904-0.169c-0.038-0.012-0.063-0.045-0.101-0.063c-9.135-1.435-20.209-1.915-33.749-1.121
			c-0.045,0.003-0.085,0.028-0.13,0.028c-0.028,0-0.05-0.015-0.077-0.017c-10.754,0.64-23.031,2.068-37.138,4.46l-3.162,0.369
			l-3.538,45.193C6.801,67.518-2.853,75.424,0.813,88.38c1.291,4.569,3.407,7.255,6.284,7.976c0.527,0.133,1.382,0.568,1.257,1.37
			c-0.973,6.151-2.619,17.5-2.742,24.405c-0.06,3.166,0.88,5.757,2.79,7.705c3.003,3.058,7.523,3.513,9.954,3.513
			c0.857,0,1.419-0.055,1.422-0.058c0.943-0.063,8.73-0.754,11.308-6.147c1.576-3.297,0.746-7.317-2.442-11.938l41.2-16.706
			c0.008,0.005,0.019,0.007,0.025,0.01c0.49,0.261,1.016,0.462,1.559,0.628c0.088,0.027,0.166,0.07,0.254,0.095
			c0.628,0.174,1.287,0.29,1.978,0.337c0.331,0.022,0.681,0.036,1.038,0.036c0.1,0,0.188-0.025,0.286-0.028
			c0.767-0.018,1.535-0.073,2.302-0.216c0.299-0.056,0.57-0.151,0.857-0.224c0.432-0.111,0.856-0.233,1.273-0.392
			c0.354-0.133,0.695-0.279,1.027-0.442c0.33-0.164,0.639-0.357,0.951-0.551c0.313-0.199,0.638-0.376,0.924-0.605
			c0.508-0.403,0.98-0.86,1.417-1.375c0.054-0.063,0.124-0.108,0.173-0.171c0.803-1.005,1.393-2.179,1.815-3.488
			c0.007-0.022,0.02-0.04,0.028-0.063l47.186-19.135c0.316-0.106,7.782-2.702,11.609-10.552
			C147.471,56.366,147.461,49.074,144.514,40.693z M46.982,53.861c0.714-1.628,1.998-2.897,3.608-3.57
			c1.656-0.699,3.463-0.686,5.079,0.024c0.754,0.332,1.681-0.1,2.065-0.964c0.714-1.626,1.995-2.895,3.606-3.568
			c1.654-0.696,3.457-0.686,5.08,0.027c0.463,0.199,0.895,0.083,1.111-0.007c0.416-0.179,0.754-0.518,0.949-0.96
			c0.561-1.274,2.041-1.852,3.313-1.289c1.271,0.558,1.847,2.043,1.289,3.309c-0.717,1.629-1.996,2.897-3.606,3.571
			c-1.659,0.699-3.463,0.687-5.081-0.025c-0.462-0.204-0.895-0.085-1.11,0.008c-0.42,0.176-0.757,0.518-0.952,0.957
			c-1.498,3.405-5.396,4.999-8.688,3.543c-0.465-0.201-0.895-0.085-1.113,0.008c-0.417,0.175-0.756,0.517-0.949,0.957
			c-0.415,0.942-1.338,1.502-2.302,1.502c-0.337,0-0.682-0.068-1.011-0.214C47,56.613,46.423,55.13,46.982,53.861z M26.18,110.78
			c-0.54-1.442-0.696-2.683-0.392-3.684c0.502-1.664,2.332-3.119,5.488-4.345l33.305-13.848c0.131,1.773,0.528,3.836,1.496,5.702
			L26.18,110.78z M73.106,66.602c-0.118,0.002-0.287,0.19-0.279,0.482c0.065,3.033-2.267,5.553-5.196,5.622
			c-0.186,0.003-0.284,0.294-0.281,0.479c0.032,1.39-1.068,2.538-2.455,2.571h-0.059c-1.361,0-2.479-1.091-2.51-2.457
			c-0.033-1.44,0.47-2.813,1.414-3.868c0.988-1.096,2.33-1.721,3.779-1.751c0.121-0.003,0.289-0.194,0.282-0.488
			c-0.065-3.033,2.264-5.551,5.194-5.616c0.12-0.002,0.289-0.194,0.281-0.485c-0.03-1.387,1.072-2.538,2.46-2.568
			c1.454,0.073,2.538,1.073,2.565,2.46C78.368,64.016,76.036,66.534,73.106,66.602z M80.607,34.374
			c-1.528-0.948-2.566-2.422-2.923-4.156c-0.103-0.496-0.452-0.777-0.651-0.9c-0.387-0.241-0.856-0.324-1.331-0.219
			c-3.649,0.736-7.2-1.51-7.923-5.028c-0.104-0.495-0.453-0.776-0.651-0.899c-0.384-0.241-0.862-0.327-1.331-0.218
			c-1.373,0.276-2.691-0.596-2.971-1.953c-0.281-1.357,0.59-2.688,1.949-2.97c1.734-0.364,3.516-0.053,5.001,0.87
			c1.528,0.944,2.565,2.422,2.925,4.156c0.166,0.809,1.053,1.319,1.983,1.121c1.736-0.362,3.513-0.053,4.997,0.872
			c1.528,0.944,2.566,2.422,2.926,4.153c0.101,0.498,0.449,0.779,0.648,0.902c0.387,0.236,0.854,0.319,1.332,0.216
			c1.361-0.271,2.688,0.596,2.97,1.953c0.281,1.36-0.593,2.689-1.95,2.97c-0.475,0.101-0.952,0.146-1.424,0.146
			C82.921,35.389,81.685,35.042,80.607,34.374z" class="color c1"/>
    </g>
    <path fill="#F6B400" d="M32.673,11.75V2.519c-1.973,0.271-3.859,0.542-5.54,0.806c-5.868,0.925-10.401,5.31-11.655,10.958
		l1.884-0.218C22.708,13.158,27.803,12.391,32.673,11.75z" class="color c1"/>
    <path fill="#F6B400" d="M128.156,15.686c-3.863-2.996-8.311-5.581-13.374-7.727l-3.832,9.124c4.433,2.076,8.229,4.485,11.481,7.169
		L128.156,15.686z" class="color c1"/>
    <path fill="#F6B400" d="M52.777,0.49c-5.406,0.344-10.489,0.836-15.078,1.385v9.265C43,10.522,48.033,10.049,52.777,9.74V0.49z" class="color c1"/>
    <path fill="#F6B400" d="M91.964,1.765C86.783,0.967,81.275,0.42,75.392,0.171v9.27c4.729,0.226,9.089,0.653,13.133,1.254
		L91.964,1.765z" class="color c1"/>
    <path fill="#F6B400" d="M110.1,6.124c-4.033-1.407-8.405-2.563-13.087-3.485l-3.438,8.925c4.711,0.938,8.947,2.131,12.748,3.559
		L110.1,6.124z" class="color c1"/>
    <path fill="#F6B400" d="M70.367,9.275V0.065C69.321,0.051,68.314,0,67.248,0c-3.203,0-6.352,0.091-9.445,0.224v9.248
		C62.228,9.275,66.421,9.208,70.367,9.275z" class="color c1"/>
    <path fill="#F6B400" d="M132.761,35.871l7.488-6.142c-2.161-3.97-4.926-7.548-8.258-10.739l-5.814,8.702
		C128.708,30.258,130.873,33.001,132.761,35.871z" class="color c1"/>
  </g>
  <g>
    <path fill="#AA0F0F" d="M48.661,20.417c3.538,0,11.728,0,11.728,9.584c0,8.456-8.642,15.336-19.266,15.336
		c-8.989,0-16.754,0-16.754-10.313C24.369,25.503,44.708,20.417,48.661,20.417z" class="color c2"/>
    <path fill="#AA0F0F" d="M18.544,75.798c0-9.524,20.336-14.607,24.29-14.607c3.535,0,11.728,0,11.728,9.582
		c0,8.456-8.642,15.338-19.267,15.338C26.306,86.111,18.544,86.111,18.544,75.798z" class="color c2"/>
    <path fill="#AA0F0F" d="M80.417,47.489c0-9.527,20.338-14.613,24.293-14.613c2.008,0,4.736,0,7.091,1.133
		c2.116,1.015,4.634,3.309,4.634,8.451c0,8.458-8.642,15.336-19.264,15.336C88.181,57.796,80.417,57.796,80.417,47.489z" class="color c2"/>
  </g>
  <g>
    <circle fill="#FFFFFF" cx="91.728" cy="48.182" r="2.513" class="color c3"/>
    <circle fill="#FFFFFF" cx="104.84" cy="41.528" r="2.513" class="color c3"/>
    <circle fill="#FFFFFF" cx="101.544" cy="47.85" r="2.513" class="color c3"/>
    <circle fill="#FFFFFF" cx="35.822" cy="36.203" r="2.513" class="color c3"/>
    <circle fill="#FFFFFF" cx="50.477" cy="32.876" r="2.513" class="color c3"/>
    <circle fill="#FFFFFF" cx="42.378" cy="30.363" r="2.513" class="color c3"/>
    <circle fill="#FFFFFF" cx="30.167" cy="76.57" r="2.513" class="color c3"/>
    <circle fill="#FFFFFF" cx="38.335" cy="70.73" r="2.513" class="color c3"/>
    <circle fill="#FFFFFF" cx="42.378" cy="75.755" r="2.513" class="color c3"/>
  </g>
</svg>