<svg version="1.1" id="图层_1" x="0px" y="0px" width="153.816px" height="131.023px" viewBox="0 0 153.816 131.023" enable-background="new 0 0 153.816 131.023" xml:space="preserve" xmlns="http://www.w3.org/2000/svg" xmlns:xlink="http://www.w3.org/1999/xlink" xmlns:xml="http://www.w3.org/XML/1998/namespace">
  <path fill="#D56100" d="M9.098,98.683c-0.037,0.594-0.051,1.201-0.051,1.811c0,14.568,9.837,26.84,23.229,30.53l37.573-52.247
	L9.098,98.683z" class="color c1"/>
  <path fill="#F1CA8B" d="M144.702,98.406L83.972,78.712l38.089,52.159c13.124-3.856,22.706-16.003,22.706-30.375
	C144.767,99.79,144.745,99.094,144.702,98.406z" class="color c2"/>
  <g>
    <path fill="#EFBC75" d="M146.758,53.776l-60.903,19.84l60.694,20.281c4.538-5.477,7.269-12.514,7.269-20.187
		C153.813,66.153,151.173,59.219,146.758,53.776z" class="color c3"/>
    <path fill="#EFBC75" d="M121.475,17.468l-0.037-0.087L83.705,68.679c8.802-2.693,48.7-15.397,61.034-19.327
		c0.022-0.439,0.028-0.889,0.028-1.338C144.767,33.421,134.901,21.136,121.475,17.468z" class="color c3"/>
  </g>
  <path fill="#EFA055" d="M93.193,0.059c-5.125,0-10.076-0.536-14.354,1.629l0.604,63.698l37.877-51.271
	C111.55,6.35,103.61,0.059,93.193,0.059z" class="color c4"/>
  <path fill="#F49346" d="M73.86,2.181c-3.547-1.368-7.397-2.12-11.428-2.12c-10.734,0-20.219,5.341-25.942,13.507l37.69,51.805
	L73.86,2.181z" class="color c5"/>
  <g>
    <path fill="#EA7A1B" d="M7.013,53.834C2.627,59.269,0,66.182,0,73.71c0,7.723,2.766,14.801,7.363,20.303L68.585,73.71L7.013,53.834
		z" class="color c6"/>
    <path fill="#EA7A1B" d="M32.37,17.459C18.928,21.116,9.048,33.413,9.048,48.012c0,0.521,0.016,1.042,0.035,1.556L69.85,69.001
		L32.37,17.459z" class="color c6"/>
  </g>
</svg>