<svg version="1.1" id="图层_1" x="0px" y="0px" width="119.738px" height="122.016px" viewBox="0 0 119.738 122.016" enable-background="new 0 0 119.738 122.016" xml:space="preserve" xmlns="http://www.w3.org/2000/svg" xmlns:xlink="http://www.w3.org/1999/xlink" xmlns:xml="http://www.w3.org/XML/1998/namespace">
  <polygon fill="#BB6A32" points="59.802,55.428 0,80.506 59.337,110.308 118.142,80.374 " class="color c1"/>
  <polygon fill="#592213" points="118.142,80.374 59.337,105.785 53.616,113.434 59.337,122.016 118.075,97.137 " class="color c2"/>
  <polygon fill="#763317" points="0,80.506 0,95.94 59.337,122.016 59.337,105.785 " class="color c3"/>
  <polygon fill="#EEE9D9" points="59.802,29.085 0,54.165 59.337,83.965 118.142,54.031 " class="color c4"/>
  <polygon fill="#DA9E58" points="118.142,54.031 59.337,79.442 53.616,87.092 59.337,95.674 118.075,70.794 " class="color c5"/>
  <polygon fill="#FFD08F" points="0,54.165 0,69.597 59.337,95.674 59.337,79.442 " class="color c6"/>
  <polygon fill="#BB6A32" points="61.399,1.546 1.597,26.625 60.934,56.426 119.738,26.491 " class="color c1"/>
  <polygon fill="#592213" points="119.738,26.491 60.934,51.902 55.213,59.553 60.934,68.133 119.672,43.254 " class="color c2"/>
  <polygon fill="#763317" points="1.597,26.625 1.597,42.057 60.934,68.133 60.934,51.902 " class="color c3"/>
  <path fill="#592213" d="M63.146,46.353c-0.024,0-0.05,0-0.074-0.001c-1.619-0.035-2.926-0.596-3.871-1.664
	c-3.325-3.95-0.968-14.403,1.234-24.515c1.566-7.41,3.294-15.808,2.257-17.702c-0.127-0.238-0.282-0.332-0.533-0.314
	c-2.121,0.155-4.365,11.588-5.95,19.937c-1.869,10.157-3.571,19.75-7.8,22.417c-0.827,0.509-2.166,1.026-3.806,0.605
	c-6.138-1.604-1.534-11.844,2.695-21.75c2.735-6.691,5.714-14.277,4.771-16.362c-0.123-0.284-0.377-0.65-1.229-0.533
	c-3.738,0.505-6.346,9.483-8.529,17.405c-1.791,6.809-3.272,12.688-6.599,15.044c-1.157,0.802-2.417,1.135-3.729,0.982
	c-1.358-0.154-2.231-0.755-2.588-1.78c-1.011-3.16,3.134-9.792,6.997-16.208c2.571-4.408,5.68-9.896,5.278-11.145
	c-0.024-0.08-0.083-0.265-0.558-0.205c-2.594,0.332-5.646,7.354-8.324,13.551c-2.465,5.732-4.583,10.684-7.596,12.723
	c-0.951,0.632-1.962,0.955-2.898,0.936c-4.776-0.103-1.475-7.027,1.48-13.138c1.65-3.38,3.723-7.586,3.3-8.448
	c-0.04-0.082-0.109-0.13-0.309-0.098c-1.73,0.283-3.474,3.555-5.543,7.804c-1.791,3.729-3.462,7.25-6.28,8.116
	c-0.872,0.266-1.622,0.215-2.164-0.143c-2.348-1.594,0.076-9.562,0.386-10.465c0.194-0.555,0.857-1.168,1.479-1.37
	c0.619-0.205,0.968,0.083,0.782,0.639c-0.987,3.09-1.936,8.337-0.596,9.255c0.229,0.152,0.429,0.119,0.579,0.073
	c0.959-0.297,2.701-3.806,3.751-5.9c2.15-4.24,4.868-9.518,8.529-10.127c0.706-0.117,1.195,0.072,1.42,0.55
	c0.716,1.456-1.158,5.41-3.309,9.988c-2.288,4.928-5.103,11.062-2.408,11.12c0.339,0.006,0.64-0.088,0.971-0.309
	c2.063-1.39,4.387-6.578,6.446-11.154c3.377-7.471,6.892-15.193,11.04-15.735c1.102-0.145,1.504,0.398,1.652,0.879
	c0.673,2.038-1.952,6.874-5.39,12.996c-3.312,5.688-7.199,12.133-6.4,14.542c0.191,0.542,0.627,0.835,1.371,0.922
	c0.834,0.097,1.334-0.173,1.639-0.384c2.321-1.637,4.016-7.834,5.566-13.302c2.639-8.915,5.796-19.018,11.09-19.751
	c1.135-0.16,1.9,0.229,2.294,1.156c1.296,2.819-1.333,9.916-4.518,18.13c-3.484,8.574-7.63,18.293-3.387,19.416
	c0.787,0.207,1.27-0.003,1.599-0.208c3.156-1.99,5.207-12.338,6.904-20.652c2.475-11.752,4.684-21.9,8.244-22.171
	c0.655-0.048,1.185,0.271,1.528,0.93c1.418,2.559-0.021,10.325-1.741,19.318c-1.824,9.22-3.969,19.669-1.174,22.961
	c0.564,0.641,1.305,0.962,2.256,0.983c0.123-0.002,0.164-0.021,0.229-0.083c1.518-1.444,1.026-9.354,0.768-15.71
	c-0.155-9.508-0.032-19.336,2.627-22.836c0.638-0.875,1.41-1.36,2.246-1.405c4.326-0.245,4.136,9.844,4.015,20.516
	c-0.037,7.949-0.021,17.837,3.638,17.835c0.011,0,0.022,0,0.034,0c0.569-0.01,1-0.189,1.349-0.566
	c2.08-2.304,0.896-10.508,0.054-17.1c-0.926-8.334-1.334-13.539,0.247-15.475c0.335-0.421,0.924-0.881,1.842-0.681
	c3.883,0.84,4.635,9.608,5.375,18.089c0.346,3.9,0.995,11.161,2.338,11.16c0.076,0,0.118-0.013,0.186-0.089
	c1.013-1.181,0.012-7.083-0.69-11.393c-1.14-7.297-1.699-11.853-0.363-13.588c0.404-0.541,0.966-0.769,1.634-0.659
	c3.184,0.521,3.973,6.239,4.721,11.769c0.479,3.599,1.014,7.676,2.326,8.853c0.229,0.202,0.459,0.288,0.772,0.287
	c0.516,0,0.723-0.191,0.844-0.357c0.878-1.208-0.108-5.058-0.887-8.151c-0.871-3.521-1.552-6.302-0.74-7.578
	c0.278-0.452,0.717-0.669,1.268-0.656c2.349,0.1,3.513,3.727,4.659,7.233c1.411,4.224,2.604,7.228,4.604,7.083
	c1.102-0.063,1.731-0.407,1.928-1.051c0.407-1.395-1.125-4.013-1.738-4.902c-0.373-0.549-0.33-1.188,0.095-1.431
	c0.42-0.241,1.066,0.003,1.448,0.551c0.306,0.434,3.019,4.304,2.307,6.912c-0.376,1.279-1.505,1.981-3.345,2.087
	c-4.26,0.232-5.894-4.897-7.193-9.027c-0.648-2.094-1.612-5.257-2.386-5.29c-0.418,0.465,0.484,3.877,1.031,5.916
	c1.051,3.876,2.158,7.884,0.797,9.781c-0.506,0.683-1.309,1.044-2.314,1.046c-0.901,0.001-1.747-0.324-2.445-0.94
	c-2.032-1.83-2.497-6-2.997-10.417c-0.479-4.146-1.086-9.309-2.727-9.573c-0.174-0.027-0.23,0.024-0.28,0.089
	c-0.886,1.156,0.169,7.343,0.968,11.859c1.279,6.939,1.979,11.279,0.494,13.021c-0.442,0.508-1.058,0.776-1.775,0.776
	c-3.615,0.003-4.03-5.866-4.547-13.295c-0.442-6.518-1.039-15.444-3.586-15.984c-0.291-0.063-0.379,0.048-0.426,0.105
	c-1.039,1.279-0.221,8.135,0.514,13.645c1.203,8.102,2.476,15.756-0.233,18.785c-0.775,0.838-1.848,1.291-3.092,1.313
	c-0.031,0-0.063,0-0.093,0c-5.982,0.002-5.823-9.669-5.586-19.904c0.265-8.719,0.607-18.588-2.209-18.452
	c-0.397,0.021-0.705,0.208-0.994,0.607c-2.055,2.742-1.957,12.93-1.65,21.12c0.604,9.467,1.001,15.378-1.192,17.481
	C64.669,46.068,63.944,46.353,63.146,46.353z" class="color c2"/>
  <path fill="#EEE9D9" d="M57.347,8.901c0,0-0.05,0.48-0.163,1.315c-0.129,0.833-0.265,2.032-0.517,3.454
	c-0.254,1.421-0.506,3.088-0.863,4.856c-0.341,1.773-0.738,3.656-1.167,5.535c-0.431,1.876-0.883,3.749-1.369,5.49
	c-0.444,1.75-0.981,3.355-1.424,4.733c-0.224,0.688-0.415,1.32-0.646,1.866c-0.231,0.543-0.433,1.018-0.599,1.406
	c-0.343,0.771-0.538,1.209-0.538,1.209s0.129-0.465,0.354-1.28c0.118-0.401,0.262-0.891,0.425-1.45
	c0.159-0.561,0.274-1.217,0.458-1.911c0.17-0.699,0.354-1.455,0.549-2.256c0.178-0.807,0.364-1.655,0.56-2.534
	c0.398-1.755,0.823-3.628,1.249-5.5c0.438-1.871,0.874-3.742,1.283-5.496c0.43-1.751,0.832-3.384,1.176-4.785
	C56.819,10.757,57.347,8.901,57.347,8.901z" class="color c4"/>
  <path fill="#EEE9D9" d="M36.293,35.509c0,0,0.202-0.506,0.512-1.404c0.33-0.889,0.726-2.188,1.219-3.736
	c0.496-1.548,1.014-3.372,1.561-5.328c0.572-1.952,1.102-4.042,1.692-6.144c0.287-1.043,0.611-2.088,0.951-3.119
	c0.344-1.023,0.726-2.015,1.127-2.964c0.803-1.896,1.75-3.593,2.746-4.921c0.992-1.333,2.083-2.237,2.92-2.711
	c0.415-0.247,0.769-0.384,1.006-0.476c0.241-0.085,0.37-0.129,0.37-0.129s-0.121,0.063-0.348,0.179
	c-0.224,0.12-0.542,0.314-0.922,0.59c-0.379,0.277-0.81,0.651-1.244,1.137c-0.44,0.479-0.87,1.075-1.318,1.736
	c-0.437,0.671-0.859,1.431-1.255,2.262c-0.395,0.832-0.768,1.729-1.134,2.667c-0.368,0.937-0.688,1.931-1.024,2.934
	c-0.32,1.003-0.626,2.036-0.908,3.09c-0.297,1.045-0.596,2.088-0.889,3.117c-0.282,1.034-0.611,2.037-0.924,3.009
	c-0.305,0.975-0.625,1.909-0.953,2.787c-0.321,0.88-0.616,1.714-0.922,2.472c-0.583,1.527-1.164,2.763-1.571,3.625
	C36.574,35.042,36.293,35.509,36.293,35.509z" class="color c4"/>
  <path fill="#EEE9D9" d="M25.633,33.93c0,0,0.194-0.331,0.535-0.909c0.342-0.577,0.789-1.422,1.312-2.437
	c0.243-0.518,0.545-1.056,0.803-1.654c0.263-0.597,0.569-1.21,0.821-1.874c0.263-0.658,0.552-1.331,0.774-2.038
	c0.247-0.711,0.497-1.434,0.749-2.157c0.268-0.718,0.511-1.438,0.856-2.137c0.32-0.701,0.642-1.393,1.004-2.018
	c0.352-0.636,0.685-1.251,1.052-1.806c0.358-0.558,0.686-1.094,1.03-1.559c1.333-1.892,2.388-3.017,2.388-3.017
	s-0.194,0.332-0.536,0.909c-0.347,0.574-0.807,1.414-1.361,2.414c-0.288,0.493-0.553,1.056-0.868,1.626
	c-0.32,0.57-0.593,1.203-0.916,1.835c-0.336,0.631-0.585,1.31-0.893,1.979c-0.317,0.656-0.553,1.393-0.812,2.113
	c-0.262,0.72-0.524,1.438-0.783,2.148c-0.234,0.73-0.584,1.399-0.879,2.063c-0.282,0.671-0.652,1.271-0.964,1.857
	c-0.304,0.593-0.67,1.106-0.972,1.601c-0.628,0.973-1.233,1.728-1.647,2.258C25.9,33.654,25.633,33.93,25.633,33.93z" class="color c4"/>
  <path fill="#EEE9D9" d="M22.141,18.862c0,0-0.225,0.672-0.634,1.623c-0.202,0.478-0.458,1.021-0.748,1.593
	c-0.282,0.575-0.591,1.186-0.91,1.789c-0.168,0.297-0.336,0.595-0.501,0.889c-0.157,0.297-0.355,0.568-0.5,0.852
	c-0.307,0.561-0.613,1.074-0.894,1.509c-0.55,0.872-1.003,1.426-1.003,1.426s0.141-0.687,0.48-1.672
	c0.164-0.495,0.377-1.064,0.626-1.667c0.252-0.6,0.589-1.202,0.904-1.815c0.343-0.6,0.668-1.209,1.028-1.749
	c0.356-0.542,0.707-1.036,1.022-1.45C21.631,19.354,22.141,18.862,22.141,18.862z" class="color c4"/>
  <path fill="#EEE9D9" d="M65.03,11.561c0,0-0.033,0.441-0.094,1.213c-0.034,0.774-0.146,1.863-0.166,3.185
	c-0.022,0.657-0.046,1.37-0.071,2.124c-0.047,0.752,0,1.548,0.003,2.369c0.04,1.646-0.012,3.384,0.086,5.149
	c0.043,1.764,0.107,3.519,0.127,5.173c0.031,1.653,0.001,3.2-0.02,4.526c0.002,0.662-0.049,1.272-0.083,1.811
	c-0.024,0.538-0.1,1.011-0.136,1.396c-0.022,0.386-0.132,0.686-0.171,0.887c-0.049,0.201-0.075,0.309-0.075,0.309
	s0.008-0.11,0.021-0.318c0.008-0.208,0.049-0.502,0.03-0.89c-0.015-0.387,0.001-0.849-0.045-1.386
	c-0.032-0.534-0.069-1.138-0.108-1.796c-0.088-1.317-0.19-2.854-0.301-4.502c-0.104-1.646-0.182-3.415-0.246-5.175
	c-0.021-0.88-0.057-1.763-0.028-2.638c0.021-0.873,0.044-1.732,0.064-2.564c0.017-0.831,0.046-1.633,0.15-2.39
	c0.084-0.757,0.164-1.474,0.238-2.133c0.058-0.661,0.16-1.264,0.273-1.793c0.102-0.53,0.188-0.991,0.264-1.372
	c0.063-0.381,0.16-0.671,0.205-0.873C65.003,11.668,65.03,11.561,65.03,11.561z" class="color c4"/>
  <path fill="#EEE9D9" d="M77.603,12.826c0,0,0.049,0.457,0.134,1.256c0.063,0.8,0.206,1.939,0.304,3.311
	c0.117,1.368,0.254,2.964,0.4,4.675c0.072,0.854,0.145,1.736,0.221,2.633c0.084,0.895,0.144,1.808,0.25,2.711
	c0.105,0.899,0.172,1.814,0.308,2.69c0.155,0.859,0.262,1.744,0.432,2.591c0.182,0.831,0.254,1.689,0.327,2.493
	c0.025,0.806,0.071,1.561,0.005,2.262c-0.012,0.7-0.157,1.336-0.264,1.892c-0.164,0.549-0.285,1.027-0.476,1.394
	c-0.145,0.383-0.336,0.644-0.459,0.821c-0.119,0.178-0.184,0.274-0.184,0.274s0.048-0.105,0.137-0.303
	c0.095-0.192,0.223-0.477,0.322-0.861c0.139-0.371,0.196-0.854,0.29-1.392c0.029-0.551,0.093-1.164,0.064-1.84
	c0.016-0.673-0.086-1.406-0.169-2.17c-0.129-0.759-0.261-1.549-0.466-2.395c-0.192-0.833-0.357-1.704-0.524-2.62
	c-0.148-0.905-0.229-1.819-0.347-2.738c-0.096-0.917-0.145-1.834-0.217-2.738c-0.078-0.901-0.094-1.792-0.135-2.652
	c-0.082-1.722-0.061-3.329-0.081-4.705C77.485,14.662,77.603,12.826,77.603,12.826z" class="color c4"/>
  <path fill="#EEE9D9" d="M87.698,12.526c0,0-0.098,0.025-0.225,0.139c-0.075,0.036-0.117,0.148-0.191,0.242
	c-0.078,0.092-0.133,0.221-0.182,0.374c-0.138,0.283-0.188,0.669-0.241,1.106c-0.076,0.429-0.009,0.947-0.037,1.485
	c0.003,0.544,0.103,1.142,0.139,1.765c0.025,0.625,0.195,1.283,0.276,1.965c0.193,1.354,0.461,2.837,0.686,4.299
	c0.22,1.47,0.433,2.94,0.568,4.333c0.154,1.39,0.281,2.688,0.32,3.81c0.069,1.116,0.072,2.052,0.037,2.71
	c-0.025,0.654-0.055,1.022-0.055,1.022s-0.061-0.374-0.142-1.018c-0.046-0.322-0.071-0.711-0.154-1.157
	c-0.084-0.446-0.178-0.949-0.262-1.498c-0.168-1.098-0.4-2.375-0.625-3.747c-0.219-1.374-0.451-2.839-0.686-4.305
	c-0.205-1.478-0.451-2.923-0.567-4.339c-0.06-0.703-0.168-1.372-0.146-2.027c0.004-0.65-0.026-1.261,0.033-1.83
	c0.082-0.568,0.095-1.087,0.246-1.538c0.127-0.45,0.24-0.838,0.434-1.126c0.073-0.15,0.154-0.276,0.265-0.361
	c0.102-0.085,0.159-0.183,0.254-0.211C87.606,12.528,87.698,12.527,87.698,12.526z" class="color c4"/>
</svg>