<svg version="1.1" id="图层_1" x="0px" y="0px" width="73.943px" height="103.461px" viewBox="0 0 73.943 103.461" enable-background="new 0 0 73.943 103.461" xml:space="preserve" xmlns:xml="http://www.w3.org/XML/1998/namespace" xmlns="http://www.w3.org/2000/svg" xmlns:xlink="http://www.w3.org/1999/xlink">
  <g>
    <path fill="#FFFFFF" d="M63.596,36.552c-0.012-0.959,0.461-1.846,0.93-2.661c-0.232,0.021-0.984-0.029-1.215-0.024
		c-0.787,0.015-1.555-0.091-2.291-0.284c-1.584-0.414-3.021-1.271-4.145-2.516c-1.137,0.867-2.521,1.356-3.938,1.457
		c-0.65,0.045-1.307-0.004-1.943-0.125c-0.783-0.148-1.545-0.414-2.242-0.818c-0.975,1.093-2.34,1.724-3.826,1.753
		c-0.293,0.002-0.586-0.019-0.879-0.063c-0.529,2.321-2.596,4.039-5.033,4.084c-1.408,0.029-2.743-0.498-3.754-1.474
		c-1.01-0.978-1.58-2.292-1.605-3.698c-0.012-0.918,0.215-1.82,0.645-2.619c-1.047-0.223-2.057-0.602-3.002-1.104l-0.885,0.017
		c-0.928,1.486-2.563,2.459-4.369,2.49c-1.188,0.021-2.348-0.37-3.291-1.09c-0.254,0.578-0.617,1.087-1.049,1.529
		c-0.84,0.863-2.543,1.306-3.783,1.444l0.093,0.396c0.131,5.819,0.413,15.846,0.511,21.479c0.156,9-1.031,39.781-1.031,39.781
		c0.074,4.352,4.09,7.869,8.441,7.789l33.327-0.568c4.352-0.076,8.496-3.213,8.42-7.564c0,0-2.469-30.691-2.625-39.688
		c-0.061-3.664-0.342-9.531-0.375-14.646c0-0.002-0.146-0.271-0.146-0.271C63.917,38.719,63.618,37.671,63.596,36.552z" class="color c1"/>
    <path fill="none" d="M33.115,48.917c-0.488,0.008-0.881,0.412-0.871,0.901c0.008,0.488,0.412,0.877,0.902,0.869
		c0.486-0.006,0.881-0.412,0.865-0.899C34.008,49.302,33.608,48.911,33.115,48.917z"/>
    <path fill="none" d="M31.024,36.521c-0.01-0.492-0.416-0.879-0.906-0.875c-0.49,0.008-0.879,0.414-0.869,0.901
		c0.006,0.488,0.408,0.881,0.9,0.872C30.633,37.41,31.03,37.007,31.024,36.521z"/>
    <path fill="none" d="M33.104,40.576c-0.004-0.486-0.41-0.882-0.902-0.871c-0.49,0.008-0.877,0.409-0.871,0.903
		c0.01,0.492,0.414,0.879,0.9,0.871C32.723,41.474,33.114,41.064,33.104,40.576z"/>
    <path fill="none" d="M36.508,44.259c-0.01-0.76-0.639-1.365-1.396-1.354c-0.766,0.008-1.371,0.643-1.361,1.406
		c0.02,0.758,0.646,1.361,1.412,1.354C35.916,45.652,36.524,45.021,36.508,44.259z"/>
    <path fill="none" d="M31.838,46.546c-0.016-0.894-0.75-1.604-1.645-1.588c-0.889,0.02-1.602,0.752-1.586,1.643
		s0.752,1.604,1.645,1.592C31.147,48.171,31.86,47.439,31.838,46.546z"/>
    <path fill="none" d="M49.889,61.415c-0.023,0.531,0.396,0.984,0.938,1.008c0.537,0.021,0.988-0.395,1.006-0.938l1.105-28.96
		c-0.65,0.045-1.305-0.004-1.941-0.125L49.889,61.415z"/>
    <path fill="none" d="M30.84,33.892c0.807-0.014,1.441-0.675,1.43-1.477c-0.016-0.805-0.68-1.438-1.479-1.43
		c-0.803,0.017-1.438,0.679-1.43,1.48C29.377,33.265,30.039,33.902,30.84,33.892z"/>
    <circle fill="none" cx="45.95" cy="36.656" r="0.887"/>
    <path fill="none" d="M43.626,40.269c-0.027-1.705-1.438-3.07-3.143-3.037c-1.705,0.029-3.069,1.438-3.038,3.141
		c0.032,1.701,1.436,3.064,3.143,3.035C42.296,43.376,43.657,41.964,43.626,40.269z"/>
    <circle fill="none" cx="35.537" cy="39.643" r="0.888"/>
    <path fill="#E5B621" d="M56.876,31.066c-1.137,0.867-2.52,1.356-3.938,1.457l-1.105,28.962c-0.02,0.539-0.471,0.955-1.008,0.938
		c-0.537-0.021-0.959-0.477-0.936-1.01l1.104-29.015c-0.783-0.148-1.545-0.414-2.242-0.818c-0.975,1.093-2.34,1.724-3.826,1.753
		c-0.293,0.002-0.586-0.019-0.879-0.063c-0.527,2.321-2.596,4.039-5.031,4.084c-1.408,0.029-2.743-0.498-3.754-1.474
		c-1.01-0.978-1.141-2.183-1.162-3.589c-0.014-0.918,0.24-1.732,0.672-2.531c-1.293-0.274-3.002-0.972-4.125-1.673
		c-0.871,1.708-2.645,2.841-4.604,2.876c-1.188,0.021-2.348-0.371-3.291-1.09c-0.254,0.578-0.617,1.087-1.049,1.529
		c0.117,5.115,0.295,13.177,0.373,17.701c0.131,7.724-1.176,40.438-1.176,40.438c0.063,3.732,3.145,6.711,6.879,6.646l28.625-0.498
		c3.729-0.057,6.707-3.141,6.643-6.875c0,0-1.756-32.664-1.887-40.389c-0.066-3.75-0.111-9.929-0.139-14.847
		C59.434,33.168,57.997,32.313,56.876,31.066z M45.061,36.67c-0.006-0.486,0.385-0.893,0.875-0.9
		c0.49-0.009,0.895,0.381,0.898,0.869c0.01,0.491-0.383,0.896-0.873,0.903C45.475,37.55,45.071,37.16,45.061,36.67z M29.364,32.466
		c-0.01-0.803,0.625-1.465,1.43-1.479c0.799-0.01,1.461,0.625,1.477,1.429c0.016,0.801-0.623,1.462-1.43,1.476
		C30.039,33.902,29.377,33.265,29.364,32.466z M30.252,48.189c-0.893,0.013-1.627-0.701-1.645-1.592
		c-0.016-0.89,0.697-1.623,1.586-1.642c0.895-0.018,1.629,0.695,1.645,1.588C31.86,47.439,31.147,48.171,30.252,48.189z
		 M34.014,49.788c0.016,0.487-0.379,0.896-0.867,0.899c-0.49,0.008-0.896-0.381-0.902-0.869c-0.008-0.489,0.383-0.896,0.871-0.901
		C33.608,48.911,34.008,49.302,34.014,49.788z M29.246,36.546c-0.01-0.489,0.379-0.896,0.869-0.901
		c0.492-0.004,0.896,0.383,0.906,0.875c0.006,0.487-0.391,0.891-0.875,0.897C29.656,37.427,29.254,37.035,29.246,36.546z
		 M32.231,41.48c-0.486,0.008-0.893-0.379-0.9-0.871c-0.006-0.494,0.381-0.896,0.871-0.904c0.492-0.01,0.898,0.385,0.902,0.871
		C33.114,41.064,32.723,41.474,32.231,41.48z M35.16,45.665c-0.768,0.01-1.396-0.599-1.412-1.354
		c-0.012-0.765,0.598-1.397,1.359-1.406c0.762-0.012,1.391,0.597,1.396,1.356C36.524,45.021,35.916,45.652,35.16,45.665z
		 M50.522,83.146c0.006,0.488-0.385,0.895-0.875,0.902c-0.488,0.01-0.896-0.381-0.902-0.871c-0.01-0.488,0.383-0.895,0.873-0.9
		C50.108,82.267,50.51,82.657,50.522,83.146z M36.424,39.626c0.01,0.492-0.383,0.896-0.869,0.903c-0.49,0.01-0.896-0.383-0.902-0.87
		c-0.008-0.491,0.383-0.896,0.873-0.904C36.01,38.747,36.414,39.14,36.424,39.626z M40.591,43.402
		c-1.701,0.031-3.109-1.332-3.143-3.033c-0.031-1.702,1.333-3.11,3.038-3.143c1.703-0.033,3.109,1.334,3.143,3.037
		C43.657,41.964,42.296,43.376,40.591,43.402z M58.149,84.169c0.01,0.488-0.379,0.896-0.869,0.906
		c-0.486,0.006-0.896-0.387-0.902-0.873c-0.01-0.492,0.381-0.896,0.871-0.902C57.737,83.292,58.143,83.681,58.149,84.169z
		 M58.962,79.522c0.018,1.021-0.795,1.859-1.813,1.879c-1.021,0.02-1.859-0.791-1.877-1.813c-0.021-1.023,0.793-1.859,1.811-1.879
		C58.102,77.692,58.94,78.507,58.962,79.522z" class="color c2"/>
    <polygon fill="#603813" points="30.035,26.57 30.393,26.564 30.11,26.361 	" class="color c3"/>
    <path fill="none" d="M30.41,28.476l0.885-0.017c-0.221-0.119-0.439-0.235-0.652-0.37C30.573,28.226,30.49,28.349,30.41,28.476z"/>
    <path fill="#FFFFFF" d="M71.907,33.413c-0.869-0.842-2.027-1.307-3.352-1.307c0,0-0.002,0-0.004,0
		c-0.219,0.007-0.434,0.033-0.637,0.07l-0.271,0.047l0.221-0.152c2.092-1.515,3.313-3.951,3.268-6.518
		c-0.066-4.265-3.604-7.733-7.879-7.733l-0.445,0.021l0.066-0.1c0.813-1.164,1.229-2.525,1.199-3.935
		c-0.061-3.639-3.072-6.6-6.715-6.6l-0.115,0.001c-1.283,0.025-2.52,0.413-3.582,1.12L53.55,8.4l0.02-0.127
		c0.045-0.356,0.063-0.663,0.061-0.965c-0.064-3.69-3.121-6.692-6.816-6.692L46.69,0.618c-2.234,0.042-4.307,1.18-5.543,3.041
		l-0.035,0.053l-0.053-0.038c-1.156-0.81-2.508-1.237-3.911-1.237L37.02,2.438c-2.301,0.045-4.406,1.241-5.633,3.195l-0.041,0.064
		l-0.055-0.052c-0.971-0.931-2.248-1.444-3.691-1.444c0,0-0.002,0-0.004,0c-2.867,0.054-5.16,2.43-5.111,5.301
		c0.01,0.396,0.066,0.793,0.172,1.216l0.023,0.09l-0.09-0.019c-0.533-0.112-1.078-0.169-1.617-0.169l-0.135,0.001
		c-4.334,0.083-7.797,3.675-7.719,8.007c0.037,2.075,0.873,4.021,2.355,5.479l0.049,0.047l-0.059,0.038
		c-1.322,0.882-2.098,2.357-2.07,3.946c0.041,2.27,1.771,4.209,4.063,4.515c0.203,0.027,0.406,0.053,0.662,0.053
		c0.002,0,0.004,0,0.006,0c0.17-0.003,0.336-0.023,0.502-0.045c1.557-0.204,2.895-1.165,3.58-2.573
		c0.154-0.315,0.266-0.606,0.34-0.896l0.025-0.099l0.07,0.076c0.883,0.947,2.125,1.49,3.494,1.49c0.002,0,0.002,0,0.004,0
		c1.934-0.037,3.658-1.289,4.293-3.112l0.025-0.077l0.064,0.045c1.414,1.011,3.08,1.667,4.814,1.897l0.105,0.014l-0.064,0.078
		c-0.682,0.862-1.029,1.894-1.012,2.98c0.021,1.239,0.523,2.4,1.422,3.269c0.873,0.839,2.022,1.301,3.235,1.301l0.086-0.001
		c2.326-0.045,4.271-1.823,4.529-4.141l0.008-0.065l0.063,0.017c1.832,0.494,3.861-0.22,4.975-1.742l0.035-0.046l0.047,0.031
		c0.656,0.448,1.42,0.769,2.264,0.952c0.689,0.151,1.398,0.197,2.09,0.137c1.467-0.129,2.848-0.712,3.889-1.644l0.047-0.041
		l0.037,0.048c1.002,1.266,2.342,2.182,3.867,2.649c0.76,0.234,1.541,0.354,2.322,0.354l0.119-0.001
		c0.344-0.009,0.697-0.04,1.051-0.095c0.355-0.057,0.697-0.135,1.104-0.256l0.174-0.051l-0.193,0.176
		c-0.188,0.17-0.344,0.365-0.492,0.558c-0.676,0.85-1.037,1.896-1.018,2.946c0.02,1.029,0.383,2.011,1.055,2.839
		c0.9,1.101,2.213,1.732,3.602,1.732l0.08-0.001c2.559-0.049,4.604-2.173,4.563-4.733C73.305,35.437,72.802,34.277,71.907,33.413z
		 M39.026,36.545L39.026,36.545v0.007V36.545z M68.682,40.904c0,0,0,0,0.002,0l-0.002,0.004V40.904z" class="color c1"/>
    <path fill="#603813" d="M21.52,16.423c-1.992,0.038-3.586,1.683-3.555,3.677c0.01,0.217,0.021,0.437,0.063,0.643
		c0.213,1.042,1.596,1.25,1.596,1.25c-0.48-0.491-0.799-1.16-0.813-1.905c-0.027-1.528,1.189-2.798,2.727-2.823
		c0.988-0.015,1.859,0.491,2.365,1.264c0,0,0.166-1.02-0.563-1.646C22.875,16.48,22.182,16.416,21.52,16.423z" class="color c3"/>
    <path fill="#603813" d="M71.757,25.545c-0.08-4.415-3.533-8-7.854-8.318c0.541-1.06,0.813-2.229,0.791-3.429
		c-0.068-4.042-3.412-7.275-7.455-7.206c-1.043,0.021-2.063,0.257-2.988,0.699c-0.08-4.091-3.465-7.358-7.559-7.289
		c-2.258,0.042-4.357,1.105-5.732,2.868c-1.188-0.713-2.537-1.073-3.928-1.048c-2.309,0.044-4.428,1.136-5.797,2.957
		c-1.039-0.797-2.311-1.217-3.631-1.193c-3.219,0.062-5.781,2.719-5.729,5.923c0,0.184,0.016,0.364,0.035,0.547
		c-5.113-0.578-9.488,3.56-9.402,8.58c0.039,2.023,0.775,3.931,2.104,5.438c-1.18,1.015-1.855,2.496-1.828,4.074
		c0.047,2.65,2.068,4.787,4.633,5.102c0.021,0.982,0.043,1.998,0.066,3.042c-0.924-0.002-1.936,0.001-3.049,0.021
		C9.301,36.4,0.729,36.552,0.25,48.476c-0.463,11.621-1.324,33.256,8.324,34.916c3.521,0.604,6.328,0.746,8.582,0.77
		c-0.217,6.41-0.4,11.191-0.4,11.191c0.082,4.557,3.832,8.186,8.395,8.105l34.915-0.604c4.555-0.078,8.184-3.84,8.104-8.396
		c0,0-2.504-32.215-2.668-41.639c-0.049-2.93-0.094-7.406-0.131-12.014c0.039,0.03,0.074,0.066,0.115,0.1
		c0.914,0.705,2.047,1.134,3.285,1.113h0.006c2.895-0.055,5.219-2.459,5.168-5.357c-0.025-1.409-0.6-2.721-1.607-3.696
		c-0.813-0.782-1.828-1.274-2.924-1.427C70.934,29.939,71.792,27.789,71.757,25.545z M8.713,82.563
		C-0.205,81.036,0.668,59.06,1.09,48.507c0.408-10.273,6.82-11.24,13.352-11.355c1.119-0.019,2.131-0.021,3.055-0.021
		c0.035,1.563,0.068,3.163,0.105,4.746c-0.43,0.016-0.871,0.024-1.363,0.043l-0.365,0.011C8.117,42.167,4.987,42.896,5.258,58.702
		c0.314,18.289,3.629,19.158,9.006,19.064l3.104-0.055c-0.061,1.938-0.123,3.828-0.182,5.607
		C14.934,83.3,12.215,83.163,8.713,82.563z M17.615,42.716c0.088,4.221,0.17,8.232,0.215,10.936
		c0.08,4.516-0.164,14.273-0.438,23.223l-3.146,0.055c-4.549,0.076-7.838,0.141-8.145-18.238
		c-0.273-15.611,2.676-15.706,9.795-15.92l0.365-0.012C16.75,42.741,17.194,42.729,17.615,42.716z M63.407,36.849
		c0.018,1.041,0.354,1.993,0.893,2.803c0.033,5.033,0.078,10.537,0.145,14.127c0.154,8.996,2.543,39.752,2.543,39.752
		c0.076,4.352-3.395,7.938-7.738,8.014l-33.333,0.57c-4.348,0.074-7.936-3.387-8.01-7.734c0,0,0.166-4.326,0.365-10.211
		c0.01-0.273,0.02-0.561,0.025-0.84c0.063-1.779,0.121-3.678,0.186-5.635c0.01-0.279,0.018-0.563,0.023-0.84
		c0.268-8.572,0.5-17.959,0.428-22.291c-0.057-3.064-0.146-7.518-0.238-11.877c-0.006-0.279-0.014-0.561-0.021-0.838
		c-0.031-1.623-0.066-3.217-0.104-4.709c-0.006-0.283-0.012-0.564-0.021-0.842c-0.02-1.088-0.047-2.091-0.063-3.018
		c0.035-0.004,0.07-0.008,0.104-0.012c1.24-0.137,2.371-0.688,3.217-1.553c0.43-0.441,0.793-0.951,1.049-1.529
		c0.938,0.719,2.1,1.112,3.291,1.092c1.959-0.036,3.727-1.168,4.6-2.877c1.121,0.699,2.365,1.201,3.656,1.477
		c-0.438,0.799-0.66,1.702-0.648,2.62c0.025,1.405,0.602,2.721,1.609,3.696c0.982,0.949,2.268,1.461,3.631,1.466
		c-0.938,0.545-1.573,1.555-1.547,2.713c0.034,1.701,1.436,3.063,3.143,3.035c1.703-0.027,3.064-1.439,3.033-3.14
		c-0.021-1.529-1.168-2.776-2.631-2.996c1.566-0.638,2.771-2,3.156-3.688c0.295,0.045,0.586,0.064,0.879,0.063
		c1.488-0.03,2.852-0.662,3.828-1.754c0.697,0.406,1.459,0.67,2.242,0.818c0.639,0.123,1.291,0.17,1.939,0.125
		c1.414-0.1,2.801-0.587,3.939-1.456c1.121,1.244,2.557,2.101,4.139,2.515c0.74,0.193,1.506,0.299,2.293,0.285
		c0.232-0.006,0.465-0.021,0.699-0.043C63.643,34.949,63.395,35.89,63.407,36.849z M40.499,38.064
		c1.24-0.021,2.27,0.978,2.289,2.211c0.021,1.242-0.973,2.267-2.213,2.289c-1.238,0.021-2.264-0.97-2.287-2.209
		C38.268,39.113,39.255,38.091,40.499,38.064z M71.561,33.771c0.795,0.771,1.246,1.806,1.264,2.912
		c0.039,2.285-1.787,4.18-4.072,4.224c-1.322,0.022-2.506-0.593-3.279-1.548c-0.568-0.695-0.932-1.566-0.945-2.53
		c-0.02-0.961,0.316-1.881,0.908-2.626c0.139-0.176,0.271-0.35,0.438-0.499l0.9-0.825l1.225-0.209
		c0.189-0.031,0.377-0.059,0.568-0.063C69.714,32.587,70.762,33,71.561,33.771z M67.579,31.668l-1,0.723l-1.156,0.342l-0.086,0.024
		c-0.313,0.095-0.635,0.165-0.957,0.218c-0.328,0.051-0.652,0.082-0.98,0.088c-0.787,0.012-1.557-0.105-2.279-0.33
		c-1.41-0.434-2.674-1.28-3.625-2.483l-0.369-0.464l-0.438,0.396c-1.012,0.897-2.287,1.4-3.602,1.518
		c-0.646,0.058-1.307,0.013-1.938-0.127c-0.74-0.162-1.455-0.444-2.088-0.877l-0.449-0.305l-0.32,0.437
		c-1.008,1.377-2.771,2.005-4.439,1.554l-0.631-0.17l-0.068,0.65c-0.227,2.063-1.963,3.652-4.041,3.692
		c-1.115,0.019-2.167-0.394-2.963-1.161c-0.797-0.772-1.25-1.807-1.27-2.916c-0.018-0.972,0.297-1.896,0.904-2.662l0.611-0.771
		l-0.98-0.128c-1.645-0.218-3.23-0.841-4.59-1.809L30.5,26.878l-0.354,0.006l-0.174,0.496c-0.566,1.63-2.105,2.747-3.83,2.78
		c-1.184,0.021-2.316-0.465-3.123-1.332l-0.699-0.752l-0.25,0.994c-0.07,0.281-0.178,0.543-0.301,0.799
		c-0.607,1.244-1.813,2.115-3.197,2.295c-0.148,0.02-0.295,0.037-0.447,0.041c-0.213,0.003-0.42-0.023-0.625-0.053
		c-1.998-0.269-3.561-1.95-3.598-4.023c-0.023-1.417,0.668-2.732,1.848-3.521l0.572-0.379l-0.49-0.479
		c-1.389-1.368-2.17-3.19-2.205-5.13c-0.066-4.057,3.18-7.419,7.229-7.498c0.545-0.008,1.094,0.043,1.639,0.158l0.879,0.185
		l-0.225-0.87C23.049,10.21,23,9.85,22.992,9.492c-0.045-2.589,2.029-4.739,4.621-4.789c1.258-0.023,2.438,0.442,3.34,1.306
		l0.496,0.473l0.367-0.579c1.139-1.815,3.092-2.922,5.221-2.963c1.352-0.025,2.639,0.372,3.741,1.146l0.471,0.331l0.322-0.478
		c1.145-1.726,3.066-2.78,5.135-2.819c3.488-0.061,6.369,2.72,6.428,6.2c0.008,0.305-0.018,0.6-0.057,0.893l-0.152,1.207l1.02-0.672
		c0.982-0.656,2.135-1.014,3.314-1.037c3.434-0.058,6.268,2.684,6.32,6.105c0.023,1.306-0.354,2.566-1.104,3.642l-0.646,0.935
		l1.131-0.056l0.127-0.45l0.041,0.025l0.008,0.41c4.076-0.07,7.439,3.179,7.514,7.242C70.68,27.97,69.532,30.253,67.579,31.668z" class="color c3"/>
    <path fill="#603813" d="M50.094,13.587c-1.098,0.021-2.113,0.341-2.982,0.874c-1.176-4.134-5.006-7.147-9.504-7.069
		c-4.118,0.07-7.606,2.696-8.942,6.342c-0.459,1.252,0.27,2.627,0.27,2.627c0.371-4.481,4.098-8.05,8.684-8.128
		c4.215-0.073,7.793,2.819,8.764,6.746c0.078,0.318,0.146,0.639,0.189,0.967c0.227-0.229,0.475-0.437,0.746-0.621
		c0.797-0.549,1.758-0.879,2.797-0.899c2.822-0.044,5.156,2.21,5.207,5.033c-0.002,0.001-0.002,0.001,0,0.002
		c0,0,0.811-1.209,0.168-2.665C54.602,14.796,52.427,13.548,50.094,13.587z" class="color c3"/>
  </g>
</svg>