<svg version="1.1" id="图层_1" x="0px" y="0px" width="79.168px" height="43.801px" viewBox="0 0 79.168 43.801" enable-background="new 0 0 79.168 43.801" xml:space="preserve" xmlns="http://www.w3.org/2000/svg" xmlns:xlink="http://www.w3.org/1999/xlink" xmlns:xml="http://www.w3.org/XML/1998/namespace">
  <path fill="#B9C95C" d="M25.551,41.732c1.088,0.317,2.229-0.321,2.425-1.358c1.25-6.679,3.734-28.931-16.917-35.785
	c-1.482-0.491-3.016-0.854-4.569-1.1C6.47,3.487,6.45,3.483,6.43,3.48C3.356,2.985,0.453,4.983,0.173,7.851
	C-0.747,17.314,1.214,34.606,25.551,41.732z" class="color c1"/>
  <path fill="#895D2C" d="M35.938,43.784c0.631,0.09,1.339-0.14,1.617-0.715c9.591-19.873,28.371-22.345,32.486-23.858
	c1.015-0.373,2.012-0.779,2.951-1.313c6.69-3.798,6.682-10.13,5.715-14.385c-0.572-2.521-3.17-4.055-5.652-3.334
	C38.302,10.267,34.741,35.515,34.492,42.038C34.458,42.907,35.078,43.661,35.938,43.784z" class="color c2"/>
</svg>