<svg version="1.1" id="图层_1" x="0px" y="0px" width="113.652px" height="100.568px" viewBox="0 0 113.652 100.568" enable-background="new 0 0 113.652 100.568" xml:space="preserve" xmlns="http://www.w3.org/2000/svg" xmlns:xlink="http://www.w3.org/1999/xlink" xmlns:xml="http://www.w3.org/XML/1998/namespace">
  <path fill="#3F3F3F" d="M108.897,10.585C103.38,3.462,93.489,0,78.658,0l0,0v3.519L78.657,0c-3.992,0-8.379,0.261-13.128,0.779
	C61.966,1.168,58.2,1.7,54.245,2.377c-1.319,0.225-2.658,0.467-4.019,0.724c-8.708,1.646-16.248,3.543-22.647,5.703
	c-2.56,0.864-4.937,1.77-7.133,2.72C10.561,15.796,4.337,20.94,1.612,27.037c-0.793,1.775-1.26,3.532-1.473,5.256
	c-0.071,0.574-0.113,1.145-0.13,1.711c-0.119,3.964,1.014,7.712,2.478,11.031c0.418,0.948,0.864,1.861,1.314,2.735
	c0.676,1.31,1.365,2.53,1.993,3.644c0.208,0.368,0.41,0.727,0.604,1.075c0.356,0.638,0.713,1.259,1.071,1.861
	c1.429,2.409,2.861,4.53,4.219,6.368c3.734,5.054,6.906,7.97,7.929,8.857c0.019,0.463,0.044,1.094,0.074,1.849
	c0.21,5.288,0.649,16.699,0.649,19.839c0,4.567,7.077,6.991,16.352,8.208c1.953,0.256,4.003,0.458,6.105,0.616
	c1.051,0.079,2.115,0.147,3.186,0.204c3.749,0.201,7.588,0.278,11.271,0.278c0.928,0,1.839-0.003,2.733-0.009
	c1.789-0.012,3.51-0.035,5.166-0.069c4.969-0.104,9.347-0.315,13.171-0.64c1.912-0.163,3.687-0.355,5.327-0.576
	c2.187-0.295,4.136-0.644,5.859-1.048c6.89-1.617,10.15-4.123,10.48-7.684c0.086-0.932,0.148-1.971,0.189-3.08
	c0.021-0.554,0.037-1.126,0.048-1.711c0.011-0.585,0.018-1.182,0.021-1.787c0.003-0.606,0.002-1.218-0.002-1.835
	c-0.004-0.616-0.012-1.236-0.022-1.855c-0.02-1.237-0.052-2.468-0.089-3.656c-0.151-4.752-0.403-8.811-0.465-9.77
	c0.529-1.441,1.078-2.704,1.646-3.863c0.379-0.773,0.765-1.499,1.159-2.201c0.197-0.351,0.396-0.696,0.596-1.037
	c0.401-0.683,0.808-1.353,1.221-2.031c2.726-4.478,5.545-9.109,7.756-19.086c1.323-5.967,2.388-13.045,0.827-19.595
	C112.167,16.058,110.915,13.19,108.897,10.585z M61.504,94.917c-2.236,0.03-4.519,0.085-6.717,0.039
	c-2.209-0.008-4.392-0.099-6.499-0.199c-2.108-0.106-4.143-0.266-6.071-0.442c-1.927-0.191-3.745-0.411-5.42-0.647
	c-0.836-0.125-1.637-0.252-2.397-0.381s-1.48-0.26-2.155-0.392c-1.348-0.27-2.52-0.531-3.479-0.775
	c-0.48-0.12-0.906-0.235-1.276-0.339c-0.185-0.052-0.356-0.102-0.512-0.148c-0.312-0.092-0.566-0.172-0.759-0.234
	c-0.289-0.093-0.439-0.148-0.439-0.148s1.048,0.439,2.948,1.014c0.948,0.292,2.11,0.609,3.45,0.946
	c1.341,0.331,2.864,0.664,4.532,0.997c0.835,0.16,1.707,0.317,2.61,0.47s1.84,0.302,2.803,0.445c1.929,0.271,3.968,0.53,6.084,0.741
	c2.116,0.203,4.303,0.402,6.538,0.518c2.244,0.155,4.48,0.209,6.76,0.289c2.267,0.033,4.536,0.077,6.771,0.044
	c1.546-0.004,3.065-0.045,4.566-0.097c-4.386,0.236-9.539,0.368-15.587,0.368c-8.676,0-15.194-0.441-20.057-1.085
	c-1.459-0.193-2.768-0.404-3.943-0.627c-0.783-0.149-1.505-0.303-2.172-0.46c-0.999-0.236-1.872-0.479-2.632-0.723
	c-0.76-0.244-1.407-0.489-1.955-0.729c-2.008-0.88-2.678-1.686-2.678-2.102c0-2.51-0.264-9.908-0.481-15.59
	c-0.073-1.894-0.14-3.597-0.191-4.865c2.177,0.309,4.45,0.581,6.816,0.814c2.366,0.233,4.824,0.429,7.372,0.585
	c5.096,0.313,10.549,0.472,16.334,0.472c2.874,0,5.645-0.041,8.289-0.107c-0.132,0.007-0.262,0.016-0.394,0.023
	c-8.938,0.477-17.883,0.702-24.601,0.626c-3.358-0.029-6.156-0.122-8.113-0.22c-0.49-0.024-0.926-0.048-1.307-0.071
	c-0.57-0.034-1.012-0.066-1.311-0.089c-0.1-0.008-0.184-0.014-0.251-0.02c-0.135-0.011-0.205-0.018-0.205-0.018
	s0.623,0.098,1.758,0.242c0.378,0.048,0.814,0.101,1.301,0.157c0.975,0.113,2.161,0.239,3.522,0.367
	c1.362,0.128,2.899,0.26,4.578,0.384c6.712,0.517,15.696,0.879,24.676,0.988c8.987,0.108,17.991-0.092,24.756-0.515
	c1.96-0.118,3.725-0.251,5.255-0.382c0.272,1.63,0.546,3.661,0.7,5.88c0.154,2.219,0.187,4.627-0.024,7.009
	c-0.141,1.588-0.39,3.165-0.784,4.668c-0.771,0.175-1.615,0.356-2.524,0.537c-0.909,0.181-1.883,0.363-2.915,0.54
	c-3.304,0.57-7.195,1.089-11.386,1.473c-2.095,0.192-4.266,0.369-6.476,0.483C66.002,94.774,63.754,94.84,61.504,94.917z
	 M90.852,4.574c-3.276,0.436-6.661,0.995-10.034,1.618c-1.783,0.325-3.563,0.651-5.315,0.965c-1.752,0.314-3.475,0.617-5.145,0.899
	c-3.344,0.534-6.465,1.033-9.141,1.461c-2.679,0.433-4.903,0.862-6.47,1.153c-0.782,0.155-1.396,0.286-1.815,0.378
	c-0.209,0.046-0.37,0.082-0.478,0.107c-0.108,0.024-0.164,0.038-0.164,0.038s0.912,0.081,2.504,0.16
	c0.796,0.051,1.76,0.042,2.871,0.065c1.112,0.032,2.359-0.003,3.722-0.033c5.442-0.196,12.695-0.791,19.908-1.431
	c1.803-0.152,3.601-0.32,5.361-0.468c1.76-0.148,3.484-0.278,5.137-0.352c3.287-0.141,6.333-0.067,8.501,0.5
	c1.084,0.283,1.92,0.682,2.54,1.126c0.615,0.454,1.073,0.909,1.389,1.393c0.128,0.178,0.236,0.346,0.33,0.502
	c0.094,0.157,0.173,0.303,0.243,0.44c0.353,1.018,0.666,2.162,0.904,3.436c0.357,1.91,0.543,4.114,0.438,6.624
	c-0.035,0.837-0.103,1.708-0.207,2.614c-0.209,1.812-0.566,3.763-1.107,5.858c-2.626,10.167-13.547,15.706-14.756,34.428
	c-0.774,0.745-2.116,1.14-4.409,0.429c-0.28-1.537-0.429-3.583-0.459-5.685c-0.036-2.2-0.012-4.416-0.007-6.075
	c0.008-1.66,0.013-2.767,0.013-2.767s-0.058,0.429-0.155,1.151c-0.058,0.433-0.131,0.973-0.213,1.589
	c-0.109,0.823-0.241,1.781-0.377,2.81c-0.136,1.029-0.275,2.129-0.4,3.235c-0.125,1.086-0.221,2.187-0.272,3.232
	c-0.025,0.522-0.04,1.03-0.042,1.516c-0.001,0.485,0.01,0.947,0.035,1.378c-1.6,0.829-5.021,1.896-10.078-0.228
	c-0.002-0.013-0.004-0.023-0.006-0.037c-0.045-0.643-0.155-1.384-0.124-2.202c-0.005-0.408,0.007-0.837,0.033-1.285
	c0.051-0.896,0.155-1.868,0.289-2.9c0.067-0.516,0.141-1.047,0.22-1.592c0.159-1.086,0.316-2.222,0.452-3.383
	s0.253-2.346,0.333-3.529c0.1-1.183,0.13-2.37,0.166-3.535c0.019-0.582,0.02-1.16,0.015-1.731c-0.004-0.57-0.013-1.134-0.011-1.686
	c-0.044-1.104-0.087-2.172-0.128-3.184c-0.043-1.011-0.145-1.963-0.207-2.842c-0.029-0.439-0.064-0.86-0.101-1.26
	c-0.112-1.199-0.248-2.208-0.327-2.974c-0.116-1.019-0.182-1.601-0.182-1.601s0.013,0.587,0.035,1.612
	c0.003,0.257,0.01,0.54,0.017,0.849c0.023,0.926,0.057,2.078,0.023,3.395c-0.018,0.877-0.003,1.827-0.052,2.829
	c-0.051,1.001-0.105,2.056-0.16,3.148c-0.103,1.088-0.168,2.212-0.309,3.346c-0.07,0.567-0.138,1.138-0.215,1.71
	c-0.076,0.572-0.16,1.144-0.262,1.714c-0.366,2.287-0.867,4.53-1.382,6.665c-0.254,1.065-0.498,2.118-0.697,3.139
	c-0.199,1.022-0.354,2.012-0.432,2.954c-0.117,0.934-0.079,1.808-0.089,2.588c0.005,0.068,0.009,0.133,0.013,0.199
	c-1.527,0.717-4.067,1.215-7.318-0.577c-0.01-1.946,0.101-4.328,0.171-6.739c0.031-1.492,0.055-2.986,0.006-4.389
	c-0.034-1.401-0.135-2.705-0.24-3.816c-0.032-0.278-0.064-0.543-0.095-0.796c-0.092-0.757-0.178-1.394-0.269-1.873
	c-0.081-0.479-0.135-0.804-0.157-0.936c-0.007-0.044-0.011-0.067-0.011-0.067s0.008,0.37,0.022,1.018
	c0.013,0.322,0.015,0.715,0.01,1.164c-0.006,0.45-0.019,0.956-0.034,1.507c-0.055,1.103-0.141,2.384-0.306,3.749
	c-0.15,1.365-0.384,2.814-0.626,4.261c-0.431,2.47-0.907,4.932-1.187,7.047c-1.982,1.275-6.37,2.96-13.768,0.388
	c-0.062-0.352-0.12-0.729-0.178-1.126c-0.127-0.787-0.237-1.65-0.335-2.57c-0.098-0.92-0.185-1.897-0.264-2.912
	c-0.158-2.031-0.286-4.217-0.42-6.411c-0.074-1.098-0.15-2.197-0.239-3.28c-0.089-1.082-0.191-2.147-0.319-3.176
	c-0.122-1.029-0.275-2.021-0.429-2.957c-0.095-0.466-0.176-0.921-0.262-1.359c-0.086-0.438-0.176-0.859-0.289-1.259
	c-0.197-0.804-0.385-1.537-0.614-2.169c-0.212-0.636-0.377-1.194-0.584-1.63c-0.094-0.22-0.177-0.417-0.25-0.587
	c-0.218-0.513-0.338-0.796-0.338-0.796s0.163,0.521,0.449,1.434c0.161,0.448,0.271,1.02,0.418,1.666
	c0.082,0.321,0.152,0.667,0.215,1.033c0.064,0.366,0.121,0.753,0.179,1.157c0.145,0.801,0.192,1.688,0.289,2.614
	c0.061,0.932,0.116,1.915,0.137,2.934c0.052,2.037-0.007,4.218-0.072,6.401c-0.039,1.092-0.081,2.187-0.118,3.269
	c-0.074,2.163-0.128,4.27-0.11,6.188c0.009,0.959,0.036,1.87,0.087,2.717c0.016,0.34,0.037,0.663,0.059,0.983
	c-1.431,0.615-3.801,1.228-6.385,0.264c-0.122-0.355-0.252-0.733-0.395-1.149c-0.546-1.571-1.217-3.525-1.854-5.599
	c-0.212-0.691-0.421-1.396-0.62-2.104c-0.8-2.83-1.448-5.713-1.859-7.895c-0.156-0.818-0.284-1.535-0.384-2.113
	c-0.1-0.577-0.171-1.015-0.212-1.272c-0.027-0.171-0.041-0.263-0.041-0.263s0.063,1.483,0.242,3.706
	c0.131,1.667,0.353,3.751,0.666,5.932c0.104,0.727,0.219,1.465,0.343,2.201c0.247,1.474,0.536,2.941,0.824,4.31
	c0.289,1.37,0.578,2.641,0.828,3.726c0.01,0.043,0.018,0.08,0.028,0.122c-1.985,0.423-6.326,1.093-9.026-0.366
	c-0.034-0.119-0.066-0.235-0.103-0.36c-0.346-1.194-0.854-2.653-1.464-4.144c-0.204-0.497-0.418-0.997-0.642-1.492
	c-0.444-0.993-0.93-1.961-1.411-2.852c-0.481-0.891-0.957-1.705-1.385-2.387c-0.414-0.691-0.796-1.241-1.057-1.63
	c-0.261-0.387-0.411-0.609-0.411-0.609s0.03,0.06,0.085,0.173c0.056,0.113,0.138,0.278,0.242,0.488
	c0.207,0.42,0.512,1.015,0.829,1.753c0.661,1.459,1.442,3.449,2.045,5.486c0.14,0.468,0.272,0.937,0.394,1.4
	c0.366,1.39,0.648,2.732,0.833,3.86c-0.526,0.177-1.388,0.247-2.767-0.036c-1.746-1.618-5.809-5.736-10.011-12.503
	c-0.6-0.967-1.203-1.988-1.803-3.063c-1.236-2.216-2.8-4.849-4.011-7.738c-2.019-4.814-3.057-10.336,0.041-15.817
	c0.026-0.031,0.414-0.482,1.061-1.288c0.305-0.454,0.816-0.838,1.306-1.34c0.126-0.121,0.256-0.246,0.389-0.374
	c0.155-0.106,0.314-0.215,0.477-0.327c0.33-0.213,0.639-0.484,1.007-0.695c0.379-0.185,0.774-0.378,1.182-0.578
	c0.415-0.18,0.875-0.305,1.325-0.468c0.929-0.272,1.937-0.47,3.015-0.622c0.53-0.095,1.083-0.155,1.647-0.209
	c0.565-0.055,1.141-0.104,1.718-0.179c1.172-0.127,2.362-0.257,3.552-0.386c0.597-0.09,1.195-0.177,1.791-0.27
	c0.596-0.094,1.189-0.194,1.776-0.311c1.178-0.215,2.323-0.495,3.422-0.812c0.549-0.157,1.095-0.287,1.617-0.46
	c0.517-0.188,1.024-0.371,1.516-0.551c0.491-0.18,0.968-0.355,1.43-0.525c0.448-0.206,0.881-0.404,1.297-0.595
	c0.828-0.384,1.589-0.726,2.238-1.087c0.648-0.362,1.202-0.699,1.658-0.971c0.91-0.551,1.416-0.884,1.416-0.884
	s-0.59,0.154-1.598,0.456c-0.499,0.157-1.105,0.347-1.801,0.566c-0.694,0.216-1.497,0.394-2.348,0.65
	c-0.851,0.258-1.784,0.483-2.772,0.71c-0.982,0.251-2.024,0.472-3.106,0.678c-1.072,0.249-2.204,0.385-3.341,0.592
	c-1.138,0.202-2.31,0.333-3.48,0.488c-1.181,0.156-2.362,0.311-3.525,0.465c-0.582,0.065-1.172,0.17-1.749,0.271
	c-0.576,0.09-1.149,0.201-1.717,0.337c-0.565,0.109-1.121,0.256-1.663,0.428c-0.541,0.172-1.066,0.369-1.567,0.58
	c-0.007,0.004-0.015,0.007-0.023,0.011c3.449-2.605,8.2-5.126,14.626-7.475c3.213-1.174,6.844-2.306,10.941-3.384
	c4.096-1.078,8.658-2.102,13.73-3.061c2.793-0.528,5.46-0.982,8.006-1.366c2.546-0.384,4.972-0.699,7.283-0.947
	c4.621-0.497,8.782-0.73,12.522-0.73C83.363,3.519,87.386,3.899,90.852,4.574z M46.096,38.401c-0.352-1.058-0.68-2.109-1.039-3.118
	c-0.697-2.022-1.361-3.925-1.86-5.583c-0.516-1.652-0.873-3.055-1.093-4.043c-0.209-0.99-0.328-1.557-0.328-1.557
	s0.234,0.524,0.643,1.44c0.306,0.687,0.712,1.595,1.191,2.669c0.16,0.358,0.328,0.734,0.503,1.127c0.7,1.565,1.53,3.386,2.348,5.387
	c0.403,1,0.834,2.038,1.196,3.123c0.381,1.078,0.717,2.195,1.048,3.313c0.277,1.136,0.561,2.269,0.765,3.403
	c0.252,1.124,0.34,2.257,0.503,3.338c0.097,1.089,0.201,2.141,0.228,3.14c0.029,1,0.074,1.941,0.042,2.815
	c-0.016,1.311-0.074,2.449-0.149,3.359c-0.025,0.304-0.052,0.582-0.079,0.833c-0.053,0.503-0.095,0.899-0.124,1.169
	c-0.029,0.27-0.044,0.413-0.044,0.413s-0.015-0.144-0.044-0.413c-0.029-0.269-0.072-0.665-0.126-1.168
	c-0.022-0.252-0.047-0.53-0.074-0.833c-0.027-0.303-0.056-0.631-0.087-0.982c-0.074-0.694-0.157-1.477-0.248-2.332
	c-0.073-0.852-0.232-1.771-0.332-2.744c-0.109-0.974-0.315-1.985-0.448-3.04c-0.101-0.522-0.196-1.053-0.297-1.59
	s-0.208-1.079-0.333-1.62c-0.215-1.092-0.509-2.182-0.795-3.274C46.754,40.547,46.451,39.459,46.096,38.401z M70.49,27.91
	c0.119,1.141,0.287,2.319,0.391,3.523c0.114,1.206,0.23,2.43,0.346,3.655c0.079,1.232,0.157,2.464,0.234,3.676
	c0.086,1.212,0.072,2.417,0.105,3.577c0.003,1.163-0.016,2.29-0.063,3.357c-0.047,1.067-0.122,2.076-0.233,3.005
	c-0.088,0.928-0.207,1.778-0.355,2.53c-0.128,0.751-0.25,1.4-0.398,1.919c-0.137,0.523-0.25,0.933-0.329,1.212
	c-0.079,0.28-0.123,0.428-0.123,0.428s-0.001-0.039-0.001-0.114c-0.002-0.226-0.006-0.779,0.007-1.591
	c0.028-0.542-0.015-1.198-0.02-1.938c0-0.369-0.011-0.763-0.028-1.179c-0.017-0.416-0.037-0.855-0.056-1.312
	c-0.023-0.911-0.116-1.901-0.163-2.944c-0.076-1.044-0.156-2.144-0.239-3.282c-0.195-2.282-0.402-4.715-0.609-7.149
	c-0.09-1.223-0.18-2.447-0.268-3.651c-0.052-0.603-0.086-1.202-0.115-1.795c-0.029-0.593-0.053-1.181-0.084-1.758
	c-0.027-0.577-0.049-1.146-0.064-1.703c-0.047-1.672-0.042-3.242,0.014-4.638c0.021-0.466,0.04-0.911,0.064-1.335
	c0.024-0.423,0.055-0.825,0.099-1.203c0.038-0.377,0.072-0.73,0.108-1.055c0.036-0.325,0.075-0.623,0.124-0.892
	c0.181-1.075,0.306-1.68,0.306-1.68s0.017,0.156,0.043,0.446c0.027,0.289,0.064,0.713,0.104,1.249
	c0.028,0.535,0.131,1.187,0.187,1.929c0.059,0.741,0.189,1.579,0.272,2.489C69.965,23.507,70.218,25.632,70.49,27.91z M90.688,53.05
	c-0.109,0.333-0.206,0.641-0.264,0.931c-0.286,1.14-0.469,1.789-0.469,1.789s-0.005-0.675,0.023-1.852
	c-0.007-0.587,0.108-1.303,0.2-2.131c0.077-0.841,0.285-1.737,0.478-2.741c0.435-1.982,1.08-4.265,1.863-6.637
	c0.387-1.184,0.787-2.407,1.194-3.65c0.42-1.232,0.813-2.488,1.182-3.747c0.377-1.255,0.756-2.509,1.044-3.761
	c0.14-0.627,0.29-1.246,0.449-1.856c0.119-0.617,0.237-1.227,0.354-1.827c0.13-0.6,0.219-1.194,0.299-1.777
	c0.08-0.584,0.151-1.156,0.246-1.713c0.103-1.124,0.201-2.187,0.291-3.168c0.016-0.495,0.032-0.97,0.046-1.422
	c0.015-0.452,0.029-0.88,0.042-1.283c0.048-0.812-0.021-1.514-0.014-2.101c-0.017-1.171-0.007-1.852-0.007-1.852
	s0.179,0.644,0.456,1.793c0.058,0.288,0.146,0.606,0.228,0.954c0.083,0.348,0.162,0.726,0.205,1.136
	c0.056,0.408,0.119,0.844,0.18,1.304c0.061,0.461,0.121,0.946,0.171,1.455c0.04,1.017,0.116,2.128,0.098,3.302
	c-0.078,1.167-0.045,2.422-0.259,3.685c-0.084,0.636-0.169,1.282-0.256,1.937c-0.118,0.647-0.248,1.301-0.39,1.957
	c-0.277,1.314-0.64,2.626-1.009,3.929c-0.407,1.292-0.835,2.572-1.287,3.813c-0.433,1.249-0.941,2.442-1.387,3.606
	c-0.464,1.153-0.912,2.268-1.337,3.325c-0.205,0.528-0.404,1.043-0.597,1.54c-0.193,0.497-0.379,0.978-0.558,1.439
	c-0.302,0.934-0.669,1.784-0.878,2.548C90.918,52.362,90.797,52.718,90.688,53.05z M27.463,59.897
	c-0.467-0.801-1.11-1.943-1.929-3.284c-0.815-1.342-1.811-2.869-2.84-4.577c-0.502-0.863-1.044-1.756-1.502-2.729
	c-0.462-0.971-0.881-1.993-1.236-3.041c-0.144-0.511-0.324-1.097-0.433-1.599c-0.126-0.497-0.235-1.064-0.335-1.61
	c-0.201-1.082-0.221-2.192-0.223-3.2c-0.004-1.012,0.031-1.942,0.006-2.832c-0.043-0.887-0.078-1.732-0.159-2.515
	c-0.075-0.783-0.155-1.504-0.231-2.145c-0.075-0.641-0.147-1.203-0.205-1.665c-0.122-0.925-0.174-1.462-0.174-1.462
	s0.013,0.031,0.039,0.09c0.076,0.179,0.259,0.617,0.515,1.272c0.083,0.219,0.173,0.462,0.268,0.728
	c0.19,0.532,0.399,1.155,0.603,1.862c0.102,0.353,0.203,0.727,0.299,1.121c0.417,1.554,0.682,3.512,0.772,5.488
	c0.026,0.491,0.071,0.974,0.132,1.456c0.061,0.482,0.138,0.963,0.228,1.45c0.1,0.479,0.195,0.945,0.34,1.47
	c0.127,0.528,0.278,0.95,0.426,1.458c0.599,1.936,1.493,3.769,2.374,5.526c0.891,1.75,1.729,3.429,2.333,4.92
	c0.314,0.739,0.569,1.432,0.78,2.052c0.105,0.31,0.199,0.602,0.284,0.872c0.084,0.27,0.159,0.519,0.226,0.744
	c0.06,0.226,0.113,0.428,0.158,0.604c0.091,0.352,0.151,0.601,0.181,0.727c0.015,0.063,0.023,0.096,0.023,0.096
	S27.912,60.711,27.463,59.897z" class="color c1"/>
</svg>