<svg version="1.1" id="图层_1" x="0px" y="0px" width="44.995px" height="44.995px" viewBox="0 0 44.995 44.995" enable-background="new 0 0 44.995 44.995" xml:space="preserve" xmlns="http://www.w3.org/2000/svg" xmlns:xlink="http://www.w3.org/1999/xlink" xmlns:xml="http://www.w3.org/XML/1998/namespace">
  <path fill="#7A350E" d="M44.995,22.476c0.022,12.383-10.075,22.499-22.477,22.519C10.133,45.016,0.02,34.921,0,22.518
	C-0.019,10.129,10.07,0.021,22.476,0C34.862-0.021,44.973,10.071,44.995,22.476z M1.683,21.655c6.658,0,13.315,0,19.963,0
	c0-6.684,0-13.339,0-19.996C10.179,2.131,1.889,11.637,1.683,21.655z M43.322,21.657C42.947,10.273,33.297,1.808,23.346,1.698
	c0,6.656,0,13.313,0,19.959C30.028,21.657,36.674,21.657,43.322,21.657z M1.68,23.335c0.279,10.901,9.528,19.773,19.972,19.969
	c0-6.657,0-13.313,0-19.969C14.973,23.335,8.327,23.335,1.68,23.335z M23.336,43.315c11.401-0.329,19.917-10.143,19.949-19.976
	c-6.648,0-13.295,0-19.949,0C23.336,30.017,23.336,36.666,23.336,43.315z M18.615,20.464c1.208-0.007,1.844-0.634,1.849-1.833
	c0.006-1.491,0.006-2.981,0-4.472c-0.005-1.18-0.639-1.82-1.81-1.825c-1.506-0.007-3.011-0.007-4.517,0
	c-1.151,0.005-1.796,0.643-1.802,1.786c-0.008,1.521-0.008,3.041,0,4.562c0.006,1.123,0.646,1.766,1.763,1.781
	c0.753,0.01,1.506,0.002,2.258,0.002C17.109,20.465,17.862,20.469,18.615,20.464z M10.976,14.119
	c-0.012-1.142-0.654-1.777-1.803-1.785c-1.038-0.007-2.076,0.01-3.114-0.009c-0.296-0.005-0.465,0.089-0.606,0.347
	c-1.073,1.974-1.975,4.011-2.439,6.227c-0.1,0.478,0.029,0.82,0.359,1.129c0.35,0.328,0.774,0.439,1.243,0.438
	c1.519-0.003,3.039,0.005,4.558-0.003c1.149-0.006,1.79-0.645,1.802-1.786c0.008-0.752,0.001-1.504,0.001-2.256
	C10.978,15.653,10.984,14.886,10.976,14.119z M18.661,10.977c1.149-0.01,1.795-0.646,1.802-1.787c0.009-1.519,0.004-3.039,0-4.558
	c0-0.18-0.012-0.363-0.049-0.538c-0.149-0.698-0.787-1.214-1.366-1.101c-2.296,0.448-4.411,1.368-6.432,2.517
	c-0.142,0.081-0.27,0.321-0.274,0.49c-0.025,1.068-0.02,2.136-0.01,3.204c0.01,1.117,0.654,1.759,1.771,1.773
	c0.767,0.009,1.534,0.002,2.302,0.002C17.157,10.978,17.909,10.983,18.661,10.977z M9.199,10.976c1.12-0.012,1.762-0.65,1.777-1.763
	c0.01-0.736,0.004-1.473,0-2.209c-0.001-0.106-0.028-0.213-0.057-0.413c-1.597,1.344-3.007,2.736-4.364,4.386
	C7.529,10.978,8.364,10.985,9.199,10.976z M26.384,12.333c-0.015,0-0.03,0-0.045,0c-1.153,0.013-1.8,0.643-1.806,1.784
	c-0.008,1.521-0.008,3.041,0,4.562c0.006,1.126,0.643,1.776,1.759,1.784c1.536,0.011,3.071,0.011,4.607,0
	c1.097-0.008,1.751-0.651,1.76-1.737c0.013-1.551,0.013-3.102,0-4.652c-0.009-1.088-0.663-1.725-1.759-1.738
	c-0.768-0.009-1.536-0.002-2.304-0.002C27.859,12.333,27.121,12.333,26.384,12.333z M30.864,10.977
	c1.147-0.011,1.788-0.647,1.797-1.791c0.008-1.023-0.016-2.046,0.012-3.069c0.01-0.358-0.122-0.542-0.419-0.702
	c-1.94-1.039-3.936-1.918-6.103-2.39c-0.672-0.146-1.097,0.136-1.331,0.56c-0.167,0.302-0.273,0.676-0.279,1.02
	c-0.029,1.534-0.02,3.069-0.01,4.603c0.007,1.115,0.656,1.755,1.775,1.768c0.752,0.009,1.504,0.002,2.257,0.002
	C29.329,10.978,30.096,10.984,30.864,10.977z M34.018,18.608c0.006,1.229,0.632,1.852,1.869,1.856
	c1.474,0.004,2.948,0.003,4.423-0.001c0.195-0.001,0.392-0.013,0.583-0.048c0.542-0.097,1.257-0.742,1.114-1.408
	c-0.482-2.257-1.373-4.345-2.481-6.354c-0.133-0.241-0.291-0.334-0.569-0.33c-1.053,0.016-2.106,0-3.159,0.008
	c-1.121,0.009-1.765,0.65-1.778,1.764c-0.009,0.767-0.002,1.534-0.002,2.302C34.017,17.134,34.015,17.871,34.018,18.608z
	 M34.085,6.61c0,1.125-0.074,2.175,0.028,3.207c0.06,0.611,0.579,1.063,1.215,1.106c0.982,0.066,1.971,0.017,3.09,0.017
	C37.063,9.324,35.668,7.914,34.085,6.61z M12.333,30.81c0.006,1.21,0.631,1.847,1.83,1.852c1.491,0.006,2.981,0.006,4.472,0
	c1.181-0.005,1.823-0.637,1.829-1.808c0.007-1.506,0.007-3.011,0-4.517c-0.006-1.152-0.644-1.798-1.785-1.805
	c-1.521-0.008-3.041-0.008-4.562,0c-1.141,0.006-1.774,0.653-1.783,1.806c-0.006,0.738-0.001,1.475-0.001,2.213
	C12.333,29.304,12.33,30.057,12.333,30.81z M10.977,26.363c-0.008-1.199-0.641-1.828-1.847-1.832
	c-1.399-0.005-2.798-0.003-4.197,0.001c-0.27,0.001-0.545-0.002-0.809,0.046c-0.743,0.135-1.248,0.794-1.121,1.427
	c0.45,2.248,1.36,4.317,2.452,6.316c0.141,0.258,0.308,0.354,0.605,0.349c1.038-0.019,2.076-0.001,3.114-0.009
	c1.149-0.008,1.791-0.645,1.803-1.785c0.008-0.752,0.002-1.504,0.002-2.256C10.978,27.867,10.982,27.115,10.977,26.363z
	 M14.194,34.017c-0.03,0-0.06,0-0.09,0c-1.117,0.018-1.759,0.654-1.769,1.773c-0.009,1.038,0.009,2.076-0.009,3.113
	c-0.006,0.309,0.085,0.495,0.361,0.644c1.963,1.062,3.985,1.957,6.184,2.424c0.565,0.12,0.974-0.043,1.24-0.477
	c0.194-0.316,0.33-0.72,0.339-1.089c0.037-1.548,0.025-3.098,0.012-4.647c-0.009-1.088-0.662-1.726-1.755-1.739
	c-0.767-0.009-1.534-0.002-2.301-0.002C15.668,34.017,14.931,34.017,14.194,34.017z M10.913,35.286
	c-0.048-0.629-0.52-1.13-1.137-1.186c-1.02-0.093-2.054-0.025-3.174-0.025c1.311,1.594,2.72,2.988,4.331,4.338
	C10.933,37.285,10.989,36.28,10.913,35.286z M26.338,24.532c-1.153,0.009-1.799,0.642-1.805,1.783c-0.008,1.521-0.008,3.041,0,4.562
	c0.006,1.126,0.644,1.775,1.76,1.783c1.536,0.011,3.071,0.011,4.607,0c1.096-0.008,1.751-0.651,1.76-1.737
	c0.013-1.551,0.013-3.102,0-4.652c-0.009-1.088-0.663-1.725-1.759-1.738c-0.753-0.009-1.506-0.002-2.258-0.002
	C27.874,24.53,27.106,24.526,26.338,24.532z M35.797,24.532c-1.122,0.011-1.77,0.648-1.777,1.763c-0.01,1.534-0.01,3.069,0,4.603
	c0.007,1.114,0.655,1.753,1.777,1.763c1.038,0.009,2.076-0.011,3.114,0.01c0.315,0.006,0.493-0.099,0.639-0.369
	c1.063-1.962,1.956-3.986,2.422-6.185c0.115-0.543-0.028-0.951-0.447-1.209c-0.328-0.202-0.741-0.334-1.126-0.361
	c-0.763-0.055-1.533-0.016-2.3-0.016C37.331,24.531,36.564,24.524,35.797,24.532z M24.538,38.078c0,0.842-0.028,1.686,0.008,2.527
	c0.037,0.879,0.726,1.53,1.418,1.393c2.279-0.45,4.383-1.357,6.389-2.501c0.153-0.087,0.292-0.341,0.297-0.52
	c0.028-1.067,0.022-2.136,0.011-3.204c-0.012-1.093-0.656-1.744-1.742-1.752c-1.549-0.011-3.099-0.012-4.648,0
	c-1.086,0.008-1.725,0.661-1.738,1.756c-0.009,0.767-0.002,1.534-0.002,2.301C24.533,38.078,24.535,38.078,24.538,38.078z
	 M38.185,34.025c-0.811-0.005-1.622-0.016-2.433-0.005c-1.082,0.015-1.719,0.664-1.733,1.757c-0.009,0.736-0.004,1.472,0,2.208
	c0.001,0.107,0.027,0.214,0.054,0.415c1.601-1.337,3.008-2.733,4.292-4.296C38.264,34.058,38.225,34.026,38.185,34.025z" class="color c1"/>
</svg>