<svg version="1.1" id="图层_1" x="0px" y="0px" width="176.812px" height="175.424px" viewBox="0 0 176.812 175.424" enable-background="new 0 0 176.812 175.424" xml:space="preserve" xmlns="http://www.w3.org/2000/svg" xmlns:xlink="http://www.w3.org/1999/xlink" xmlns:xml="http://www.w3.org/XML/1998/namespace">
  <g>
    <path fill="#8DD5D8" d="M57.903,121.227c-13.079,0-23.686,10.606-23.686,23.686c0,13.078,10.606,23.686,23.686,23.686
		c13.081,0,23.688-10.607,23.688-23.686C81.591,131.833,70.984,121.227,57.903,121.227z M60.907,128.473
		c-11.134,0-19.971,9.016-19.971,19.975c0,0.352,0,0.53,0,0.885c-0.532-1.768-0.884-3.537-0.884-5.482
		c0-9.366,7.6-16.969,16.967-16.969c3.007,0,5.657,0.708,8.132,2.123C63.738,128.65,62.325,128.473,60.907,128.473z M123.724,72.883
		c-11.273,0-20.416,9.141-20.416,20.416c0,11.275,9.143,20.417,20.416,20.417c11.277,0,20.42-9.142,20.42-20.417
		C144.144,82.024,135.001,72.883,123.724,72.883z M126.314,79.129c-9.598,0-17.215,7.771-17.215,17.217c0,0.306,0,0.459,0,0.764
		c-0.459-1.523-0.764-3.051-0.764-4.724c0-8.078,6.555-14.629,14.629-14.629c2.59,0,4.877,0.61,7.008,1.83
		C128.755,79.283,127.537,79.129,126.314,79.129z M48.087,99.328c-4.637,0-8.398,3.76-8.398,8.398s3.762,8.398,8.398,8.398
		c4.641,0,8.4-3.76,8.4-8.398S52.728,99.328,48.087,99.328z M49.152,101.896c-3.948,0-7.083,3.197-7.083,7.084
		c0,0.125,0,0.189,0,0.313c-0.187-0.626-0.313-1.255-0.313-1.942c0-3.324,2.696-6.018,6.018-6.018c1.065,0,2.006,0.249,2.885,0.75
		C50.157,101.959,49.654,101.896,49.152,101.896z M168.183,59.894c-3.279,0-5.939,2.659-5.939,5.939c0,3.28,2.66,5.939,5.939,5.939
		c3.281,0,5.941-2.659,5.941-5.939C174.125,62.553,171.464,59.894,168.183,59.894z M168.935,61.71c-2.791,0-5.008,2.26-5.008,5.01
		c0,0.087,0,0.132,0,0.221c-0.133-0.442-0.221-0.888-0.221-1.374c0-2.351,1.908-4.254,4.254-4.254c0.754,0,1.42,0.176,2.041,0.529
		C169.648,61.754,169.292,61.71,168.935,61.71z M99.716,29.683c-4.951,0-8.969,4.016-8.969,8.97c0,4.954,4.018,8.969,8.969,8.969
		c4.955,0,8.973-4.016,8.973-8.969C108.689,33.699,104.671,29.683,99.716,29.683z M100.853,32.427c-4.215,0-7.563,3.415-7.563,7.565
		c0,0.132,0,0.202,0,0.334c-0.199-0.668-0.334-1.339-0.334-2.075c0-3.549,2.879-6.425,6.426-6.425c1.137,0,2.143,0.267,3.08,0.801
		C101.929,32.494,101.39,32.427,100.853,32.427z M161.861,107.727c-4.951,0-8.969,4.016-8.969,8.97s4.018,8.97,8.969,8.97
		c4.955,0,8.973-4.016,8.973-8.97S166.816,107.727,161.861,107.727z M162.998,110.471c-4.215,0-7.563,3.414-7.563,7.564
		c0,0.133,0,0.202,0,0.334c-0.199-0.668-0.334-1.339-0.334-2.074c0-3.55,2.879-6.426,6.426-6.426c1.137,0,2.143,0.268,3.08,0.801
		C164.074,110.537,163.535,110.471,162.998,110.471z M27.582,25.25c-4.952,0-8.97,4.016-8.97,8.97c0,4.954,4.018,8.969,8.97,8.969
		c4.955,0,8.972-4.016,8.972-8.969C36.554,29.266,32.537,25.25,27.582,25.25z M28.719,27.994c-4.215,0-7.563,3.415-7.563,7.565
		c0,0.133,0,0.202,0,0.334c-0.2-0.668-0.334-1.339-0.334-2.075c0-3.549,2.878-6.425,6.425-6.425c1.138,0,2.143,0.267,3.081,0.801
		C29.794,28.062,29.255,27.994,28.719,27.994z" class="color c1"/>
    <path fill="#14B9B9" d="M71.418,0C60.747,0,52.092,8.655,52.092,19.326c0,10.672,8.655,19.327,19.326,19.327
		c10.674,0,19.33-8.655,19.33-19.327C90.748,8.655,82.092,0,71.418,0z M73.869,5.913c-9.085,0-16.294,7.357-16.294,16.298
		c0,0.289,0,0.432,0,0.721c-0.435-1.441-0.723-2.885-0.723-4.47c0-7.646,6.201-13.847,13.845-13.847c2.453,0,4.615,0.577,6.636,1.73
		C76.179,6.057,75.026,5.913,73.869,5.913z M162.556,75.156c-7.871,0-14.254,6.384-14.254,14.256
		c0,7.873,6.383,14.255,14.254,14.255c7.873,0,14.256-6.382,14.256-14.255C176.812,81.541,170.429,75.156,162.556,75.156z
		 M164.367,79.52c-6.703,0-12.021,5.425-12.021,12.02c0,0.213,0,0.319,0,0.531c-0.32-1.063-0.533-2.127-0.533-3.297
		c0-5.637,4.574-10.213,10.211-10.213c1.811,0,3.406,0.425,4.896,1.278C166.068,79.624,165.216,79.52,164.367,79.52z M17.107,81.48
		C7.66,81.48,0,89.141,0,98.588s7.66,17.107,17.107,17.107c9.449,0,17.11-7.66,17.11-17.107S26.557,81.48,17.107,81.48z
		 M19.278,86.713c-8.043,0-14.427,6.512-14.427,14.427c0,0.256,0,0.384,0,0.639c-0.384-1.277-0.639-2.556-0.639-3.958
		c0-6.769,5.49-12.258,12.259-12.258c2.169,0,4.085,0.51,5.872,1.533C21.321,86.841,20.301,86.713,19.278,86.713z M95.203,112.85
		c-7.077,0-12.816,5.739-12.816,12.816c0,7.076,5.739,12.816,12.816,12.816c7.078,0,12.818-5.74,12.818-12.816
		C108.021,118.589,102.281,112.85,95.203,112.85z M96.828,116.77c-6.023,0-10.805,4.881-10.805,10.809c0,0.191,0,0.289,0,0.48
		c-0.286-0.958-0.478-1.915-0.478-2.966c0-5.071,4.111-9.183,9.181-9.183c1.625,0,3.061,0.383,4.398,1.146
		C98.361,116.867,97.595,116.77,96.828,116.77z M105.119,145.371c-7.814,0-14.15,6.336-14.15,14.149s6.336,14.149,14.15,14.149
		s14.15-6.336,14.15-14.149S112.933,145.371,105.119,145.371z M106.914,149.699c-6.65,0-11.932,5.388-11.932,11.933
		c0,0.211,0,0.319,0,0.53c-0.316-1.057-0.527-2.114-0.527-3.273c0-5.6,4.539-10.139,10.137-10.139c1.795,0,3.379,0.422,4.857,1.266
		C108.605,149.807,107.759,149.699,106.914,149.699z M110.076,54.415c-3.963,0-7.176,3.21-7.176,7.174s3.213,7.174,7.176,7.174
		s7.176-3.21,7.176-7.174S114.039,54.415,110.076,54.415z M110.984,56.609c-3.371,0-6.049,2.733-6.049,6.05c0,0.106,0,0.163,0,0.267
		c-0.158-0.534-0.268-1.07-0.268-1.659c0-2.837,2.301-5.14,5.141-5.14c0.91,0,1.713,0.213,2.465,0.643
		C111.845,56.661,111.412,56.609,110.984,56.609z M48.082,31.721c-3.827,0-6.931,3.102-6.931,6.932c0,3.827,3.104,6.931,6.931,6.931
		c3.83,0,6.934-3.104,6.934-6.931C55.016,34.823,51.912,31.721,48.082,31.721z M48.962,33.842c-3.259,0-5.844,2.638-5.844,5.846
		c0,0.102,0,0.156,0,0.258c-0.154-0.517-0.259-1.035-0.259-1.604c0-2.742,2.223-4.964,4.965-4.964c0.879,0,1.656,0.206,2.381,0.619
		C49.793,33.895,49.376,33.842,48.962,33.842z M132.968,11.388c-3.828,0-6.932,3.102-6.932,6.931c0,3.827,3.104,6.932,6.932,6.932
		s6.934-3.104,6.934-6.932C139.902,14.49,136.796,11.388,132.968,11.388z M133.847,13.509c-3.258,0-5.844,2.637-5.844,5.846
		c0,0.102,0,0.156,0,0.258c-0.154-0.517-0.258-1.035-0.258-1.604c0-2.742,2.223-4.965,4.965-4.965c0.879,0,1.656,0.207,2.381,0.619
		C134.679,13.561,134.261,13.509,133.847,13.509z" class="color c2"/>
    <path fill="#A2DAE9" d="M67.615,41.991c-16.077,0-29.117,13.04-29.117,29.117s13.04,29.117,29.117,29.117
		c16.078,0,29.119-13.04,29.119-29.117S83.693,41.991,67.615,41.991z M71.308,50.898c-13.687,0-24.55,11.084-24.55,24.556
		c0,0.434,0,0.653,0,1.087c-0.653-2.173-1.087-4.346-1.087-6.736c0-11.518,9.341-20.863,20.856-20.863
		c3.694,0,6.955,0.873,9.996,2.609C74.787,51.117,73.051,50.898,71.308,50.898z M142.859,26.438c-12.336,0-22.336,10-22.336,22.335
		c0,12.334,10,22.335,22.336,22.335c12.334,0,22.336-10.001,22.336-22.335C165.195,36.438,155.193,26.438,142.859,26.438z
		 M145.693,33.271c-10.502,0-18.836,8.5-18.836,18.835c0,0.332,0,0.5,0,0.834c-0.498-1.667-0.83-3.334-0.83-5.169
		c0-8.833,7.164-16,15.998-16c2.834,0,5.336,0.667,7.668,1.999C148.361,33.438,147.027,33.271,145.693,33.271z M134.322,114.695
		c-11.678,0-21.15,9.471-21.15,21.151s9.473,21.151,21.15,21.151c11.684,0,21.154-9.471,21.154-21.151
		S146.005,114.695,134.322,114.695z M137.005,121.166c-9.941,0-17.834,8.051-17.834,17.837c0,0.317,0,0.476,0,0.79
		c-0.475-1.578-0.791-3.158-0.791-4.893c0-8.366,6.789-15.156,15.154-15.156c2.684,0,5.051,0.634,7.262,1.895
		C139.533,121.324,138.271,121.166,137.005,121.166z M108.685,0.805c-7.076,0-12.814,5.74-12.814,12.816s5.738,12.816,12.814,12.816
		c7.08,0,12.818-5.74,12.818-12.816S115.765,0.805,108.685,0.805z M110.312,4.726c-6.023,0-10.807,4.88-10.807,10.809
		c0,0.191,0,0.289,0,0.479c-0.287-0.957-0.477-1.915-0.477-2.965c0-5.071,4.111-9.182,9.18-9.182c1.625,0,3.061,0.382,4.4,1.146
		C111.845,4.823,111.078,4.726,110.312,4.726z M22.409,123.406c-4.952,0-8.97,4.016-8.97,8.969c0,4.954,4.018,8.971,8.97,8.971
		c4.955,0,8.972-4.017,8.972-8.971C31.381,127.422,27.364,123.406,22.409,123.406z M23.546,126.15c-4.215,0-7.563,3.414-7.563,7.564
		c0,0.133,0,0.202,0,0.334c-0.2-0.668-0.334-1.339-0.334-2.074c0-3.55,2.878-6.426,6.425-6.426c1.138,0,2.143,0.267,3.08,0.801
		C24.621,126.217,24.082,126.15,23.546,126.15z M41.149,12.395c-3.827,0-6.932,3.102-6.932,6.931c0,3.827,3.104,6.932,6.932,6.932
		c3.829,0,6.933-3.104,6.933-6.932C48.082,15.497,44.979,12.395,41.149,12.395z M42.028,14.516c-3.259,0-5.844,2.637-5.844,5.846
		c0,0.102,0,0.156,0,0.258c-0.154-0.517-0.259-1.036-0.259-1.604c0-2.742,2.224-4.965,4.965-4.965c0.879,0,1.656,0.207,2.382,0.619
		C42.859,14.568,42.442,14.516,42.028,14.516z M71.418,103.667c-4.14,0-7.499,3.355-7.499,7.499c0,4.14,3.359,7.498,7.499,7.498
		c4.143,0,7.501-3.358,7.501-7.498C78.919,107.022,75.561,103.667,71.418,103.667z M72.369,105.961
		c-3.525,0-6.322,2.854-6.322,6.325c0,0.11,0,0.169,0,0.279c-0.166-0.559-0.279-1.12-0.279-1.735c0-2.967,2.405-5.371,5.371-5.371
		c0.95,0,1.792,0.223,2.576,0.669C73.269,106.018,72.818,105.961,72.369,105.961z M81.588,161.562c-3.827,0-6.931,3.103-6.931,6.931
		s3.104,6.932,6.931,6.932c3.829,0,6.934-3.104,6.934-6.932S85.417,161.562,81.588,161.562z M82.468,163.682
		c-3.259,0-5.844,2.639-5.844,5.847c0,0.103,0,0.156,0,0.259c-0.154-0.518-0.259-1.036-0.259-1.605c0-2.74,2.223-4.964,4.965-4.964
		c0.879,0,1.656,0.206,2.381,0.618C83.299,163.734,82.882,163.682,82.468,163.682z M16.337,48.773
		c-7.076,0-12.816,5.739-12.816,12.816s5.74,12.816,12.816,12.816c7.079,0,12.818-5.74,12.818-12.816S23.416,48.773,16.337,48.773z
		 M17.963,52.693c-6.023,0-10.806,4.88-10.806,10.808c0,0.191,0,0.289,0,0.479C6.87,63.024,6.68,62.066,6.68,61.016
		c0-5.071,4.111-9.183,9.18-9.183c1.626,0,3.061,0.382,4.4,1.146C19.495,52.791,18.729,52.693,17.963,52.693z" class="color c3"/>
  </g>
</svg>