<svg version="1.1" id="图层_1" x="0px" y="0px" width="191px" height="166.592px" viewBox="0 0 191 166.592" enable-background="new 0 0 191 166.592" xml:space="preserve" xmlns="http://www.w3.org/2000/svg" xmlns:xlink="http://www.w3.org/1999/xlink" xmlns:xml="http://www.w3.org/XML/1998/namespace">
  <path fill="#FFFFFF" d="M175.808,29H137V17.037C137,7.905,130.397,0,122.385,0H14.78C6.766,0,0,7.905,0,17.037v111.392L25,99h20
	v18.2c0,9.684,7.196,17.8,15.59,17.8h104.414L191,166.592V46.752C191,37.07,184.205,29,175.808,29z M20.533,89L10,102.065V17.037
	C10,13.209,12.052,10,14.78,10h107.604c2.728,0,4.615,3.209,4.615,7.037V29H60.59C52.196,29,45,37.07,45,46.752V89H20.533z M127,39
	v42.984c0,3.827-1.888,7.016-4.615,7.016H55V46.752C55,42.384,57.488,39,60.59,39H127z M182,139.967L169.507,125H60.59
	c-3.102,0-5.59-3.431-5.59-7.8V99h67.385C130.397,99,137,91.116,137,81.984V39h38.808c3.104,0,6.192,3.384,6.192,7.752V139.967z
	 M67.166,66.165c0-2.781,2.253-5.035,5.035-5.035c2.781,0,5.035,2.254,5.035,5.035c0,2.779-2.254,5.036-5.035,5.036
	C69.419,71.201,67.166,68.944,67.166,66.165z M86.549,65.731c0-2.781,2.254-5.035,5.036-5.035c2.779,0,5.036,2.254,5.036,5.035
	c0,2.78-2.257,5.036-5.036,5.036C88.803,70.767,86.549,68.511,86.549,65.731z M105.933,65.297c0-2.781,2.254-5.035,5.036-5.035
	c2.781,0,5.036,2.254,5.036,5.035c0,2.782-2.255,5.037-5.036,5.037C108.187,70.334,105.933,68.08,105.933,65.297z" class="color c1"/>
</svg>