<svg version="1.1" id="图层_1" x="0px" y="0px" width="307.282px" height="230.306px" viewBox="0 0 307.282 230.306" enable-background="new 0 0 307.282 230.306" xml:space="preserve" xmlns="http://www.w3.org/2000/svg" xmlns:xlink="http://www.w3.org/1999/xlink" xmlns:xml="http://www.w3.org/XML/1998/namespace">
  <path fill="#FFFFFF" d="M158.841,230.306l-0.002-1c0.98-0.003,1.973-0.027,2.978-0.072l0.045,0.998
	C160.843,230.278,159.835,230.303,158.841,230.306z M153.811,230.137c-0.998-0.07-2.01-0.165-3.008-0.281l0.115-0.994
	c0.983,0.115,1.98,0.208,2.963,0.277L153.811,230.137z M306.403,230.027l-1.428-2.639l0.879-0.477l1.428,2.639L306.403,230.027z
	 M166.877,229.84l-0.108-0.994l0.609-0.069c0.791-0.092,1.573-0.195,2.348-0.31l0.145,0.99c-0.783,0.114-1.576,0.22-2.377,0.313
	L166.877,229.84z M302.396,229.171l-2.863-0.893l0.297-0.955l2.863,0.893L302.396,229.171z M145.827,229.078
	c-0.996-0.194-1.989-0.414-2.952-0.652l0.24-0.971c0.947,0.234,1.924,0.45,2.904,0.643L145.827,229.078z M174.821,228.571
	l-0.207-0.979c0.982-0.208,1.951-0.432,2.904-0.672l0.244,0.971C176.797,228.134,175.817,228.361,174.821,228.571z M138.037,227.03
	c-0.948-0.314-1.906-0.657-2.846-1.02l0.359-0.934c0.926,0.357,1.868,0.694,2.801,1.004L138.037,227.03z M294.759,226.791
	l-2.863-0.893l0.297-0.955l2.863,0.893L294.759,226.791z M182.599,226.504l-0.308-0.951c0.955-0.309,1.894-0.633,2.815-0.972
	l0.346,0.938C184.518,225.863,183.566,226.191,182.599,226.504z M287.12,224.41l-2.863-0.893l0.297-0.955l2.863,0.893L287.12,224.41
	z M130.564,224.02c-0.909-0.434-1.816-0.893-2.697-1.362l0.471-0.883c0.868,0.464,1.762,0.915,2.657,1.343L130.564,224.02z
	 M190.114,223.626l-0.408-0.914c0.917-0.408,1.816-0.831,2.696-1.268l0.444,0.896C191.954,222.783,191.043,223.212,190.114,223.626z
	 M302.597,222.991l-1.428-2.639l0.879-0.477l1.428,2.639L302.597,222.991z M279.483,222.03l-2.863-0.893l0.297-0.955l2.863,0.893
	L279.483,222.03z M123.516,220.123c-0.859-0.544-1.699-1.101-2.518-1.669l0.57-0.822c0.808,0.561,1.635,1.109,2.483,1.646
	L123.516,220.123z M197.278,219.958l-0.502-0.865c0.867-0.504,1.715-1.021,2.545-1.549l0.537,0.844
	C199.017,218.923,198.157,219.446,197.278,219.958z M271.845,219.649l-2.863-0.893l0.297-0.955l2.863,0.893L271.845,219.649z
	 M264.208,217.27l-2.863-0.893l0.297-0.955l2.863,0.893L264.208,217.27z M298.79,215.955l-1.428-2.639l0.879-0.477l1.428,2.639
	L298.79,215.955z M204.011,215.548l-0.59-0.807c0.811-0.594,1.602-1.196,2.371-1.807l0.621,0.783
	C205.634,214.336,204.833,214.946,204.011,215.548z M116.962,215.444c-0.796-0.636-1.57-1.281-2.321-1.932l0.654-0.756
	c0.742,0.643,1.505,1.278,2.291,1.906L116.962,215.444z M256.569,214.89l-2.863-0.893l0.297-0.955l2.863,0.893L256.569,214.89z
	 M248.933,212.509l-2.863-0.893l0.297-0.955l2.863,0.893L248.933,212.509z M210.253,210.47l-0.67-0.743
	c0.75-0.675,1.477-1.354,2.18-2.037l0.695,0.719C211.747,209.099,211.011,209.786,210.253,210.47z M241.294,210.129l-2.863-0.893
	l0.297-0.955l2.863,0.893L241.294,210.129z M110.942,210.101c-0.731-0.717-1.437-1.436-2.116-2.153l0.726-0.688
	c0.671,0.708,1.368,1.419,2.09,2.128L110.942,210.101z M294.983,208.918l-1.428-2.639l0.879-0.477l1.428,2.639L294.983,208.918z
	 M74.323,207.837c-0.736,0-1.468-0.01-2.198-0.029l0.027-1c0.72,0.02,1.444,0.029,2.171,0.029l0.81-0.004l0.011,1L74.323,207.837z
	 M233.657,207.748l-2.863-0.893l0.297-0.955l2.863,0.893L233.657,207.748z M80.168,207.636l-0.068-0.998
	c0.985-0.066,1.976-0.151,2.973-0.253l0.102,0.994C82.167,207.482,81.164,207.567,80.168,207.636z M67.103,207.515
	c-1.007-0.092-2.007-0.202-3.001-0.332l0.13-0.992c0.98,0.128,1.967,0.238,2.962,0.328L67.103,207.515z M88.158,206.735
	l-0.154-0.988c0.975-0.152,1.956-0.321,2.942-0.507l0.185,0.982C90.135,206.41,89.144,206.581,88.158,206.735z M59.134,206.358
	c-0.992-0.2-1.975-0.42-2.949-0.66l0.239-0.971c0.961,0.236,1.93,0.454,2.907,0.65L59.134,206.358z M226.019,205.368l-2.863-0.893
	l0.297-0.955l2.863,0.893L226.019,205.368z M96.044,205.178l-0.23-0.973c0.961-0.228,1.927-0.47,2.897-0.728l0.257,0.967
	C97.989,204.704,97.015,204.948,96.044,205.178z M215.964,204.801l-0.738-0.676c0.686-0.747,1.344-1.493,1.977-2.234l0.215-0.251
	l1.262,0.393l-0.297,0.955l-0.633-0.197C217.175,203.458,216.579,204.128,215.964,204.801z M51.342,204.318
	c-0.956-0.311-1.916-0.646-2.853-0.998l0.352-0.936c0.923,0.346,1.869,0.677,2.81,0.982L51.342,204.318z M105.474,204.197
	c-0.375-0.445-0.741-0.888-1.096-1.325l-0.585,0.184l-0.296-0.955l1.23-0.389l0.215,0.268c0.417,0.519,0.85,1.044,1.296,1.573
	L105.474,204.197z M291.177,201.882l-1.428-2.639l0.879-0.476l1.428,2.638L291.177,201.882z M43.842,201.379
	c-0.91-0.422-1.823-0.869-2.713-1.332l0.461-0.887c0.877,0.455,1.776,0.896,2.672,1.311L43.842,201.379z M36.752,197.562
	c-0.849-0.525-1.701-1.08-2.533-1.647l0.563-0.826c0.819,0.56,1.659,1.105,2.496,1.623L36.752,197.562z M287.37,194.845
	l-1.428-2.639l0.879-0.476l1.428,2.639L287.37,194.845z M30.171,192.926c-0.784-0.624-1.558-1.269-2.321-1.932l0.656-0.755
	c0.752,0.654,1.514,1.289,2.288,1.904L30.171,192.926z M283.563,187.809l-1.428-2.639l0.879-0.476l1.428,2.639L283.563,187.809z
	 M24.171,187.562c-0.71-0.711-1.406-1.438-2.089-2.181l0.736-0.677c0.673,0.732,1.36,1.449,2.06,2.15L24.171,187.562z
	 M18.805,181.565c-0.628-0.782-1.242-1.579-1.842-2.391l0.804-0.595c0.592,0.801,1.199,1.587,1.819,2.359L18.805,181.565z
	 M279.757,180.772l-1.426-2.639l0.879-0.476l1.426,2.639L279.757,180.772z M14.1,175.042c-0.544-0.842-1.075-1.696-1.592-2.563
	l0.859-0.512c0.51,0.855,1.034,1.699,1.572,2.531L14.1,175.042z M275.952,173.736l-1.428-2.639l0.879-0.476l1.428,2.639
	L275.952,173.736z M10.065,168.088c-0.461-0.891-0.908-1.791-1.34-2.701l0.903-0.43c0.428,0.9,0.87,1.791,1.325,2.671
	L10.065,168.088z M272.146,166.699l-1.428-2.639l0.879-0.476l1.428,2.639L272.146,166.699z M6.701,160.788
	c-0.378-0.928-0.741-1.864-1.09-2.811l0.938-0.346c0.345,0.936,0.705,1.861,1.078,2.779L6.701,160.788z M268.339,159.663
	l-0.996-1.84l0.268-0.264c0.301-0.295,0.602-0.596,0.902-0.902l0.713,0.701c-0.215,0.22-0.43,0.437-0.646,0.65l0.639,1.179
	L268.339,159.663z M272.618,153.632l-0.766-0.644c0.639-0.759,1.264-1.54,1.859-2.322l0.795,0.606
	C273.901,152.066,273.267,152.86,272.618,153.632z M4.001,153.22c-0.295-0.957-0.576-1.922-0.842-2.894l0.965-0.265
	c0.264,0.962,0.542,1.916,0.833,2.863L4.001,153.22z M277.39,147.135l-0.844-0.535c0.533-0.843,1.045-1.702,1.521-2.553l0.873,0.489
	C278.456,145.402,277.933,146.276,277.39,147.135z M1.958,145.449c-0.214-0.978-0.414-1.963-0.599-2.953l0.983-0.184
	c0.183,0.98,0.38,1.955,0.592,2.923L1.958,145.449z M281.198,140.024l-0.914-0.405c0.4-0.904,0.777-1.829,1.123-2.749l0.936,0.351
	C281.991,138.159,281.606,139.103,281.198,140.024z M0.567,137.532c-0.131-1.012-0.238-2.014-0.322-3.005l0.996-0.085
	c0.083,0.978,0.188,1.965,0.318,2.962L0.567,137.532z M283.876,132.413l-0.967-0.256c0.254-0.956,0.48-1.929,0.676-2.892l0.98,0.198
	C284.366,130.446,284.134,131.438,283.876,132.413z M0.003,129.497L0,128.819c0-0.788,0.014-1.569,0.042-2.344l0.999,0.035
	C1.014,127.273,1,128.043,1,128.819l0.003,0.667L0.003,129.497z M285.323,124.475l-0.994-0.102c0.084-0.824,0.148-1.66,0.193-2.508
	l0.023-0.457l0.998,0.051l-0.023,0.458C285.476,122.782,285.409,123.635,285.323,124.475z M1.412,121.566l-0.993-0.113
	c0.114-0.996,0.253-2.004,0.415-2.994l0.987,0.161C1.662,119.595,1.524,120.586,1.412,121.566z M284.653,116.438
	c-0.006-1.003-0.029-1.997-0.07-2.982l1-0.04c0.041,0.996,0.064,2.001,0.07,3.016L284.653,116.438z M2.81,113.762l-0.972-0.237
	c0.239-0.978,0.504-1.96,0.788-2.919l0.959,0.283C3.306,111.833,3.045,112.8,2.81,113.762z M284.229,108.502
	c-0.104-0.996-0.225-1.982-0.363-2.957l0.99-0.142c0.141,0.987,0.264,1.986,0.367,2.996L284.229,108.502z M5.169,106.188
	l-0.935-0.354c0.354-0.935,0.737-1.877,1.136-2.801l0.918,0.396C5.896,104.34,5.519,105.268,5.169,106.188z M282.991,100.66
	c-0.207-0.966-0.439-1.939-0.689-2.896l0.967-0.254c0.254,0.97,0.49,1.959,0.701,2.939L282.991,100.66z M8.418,98.946l-0.888-0.461
	C8,97.583,8.482,96.699,8.978,95.834l0.868,0.497C9.357,97.185,8.88,98.057,8.418,98.946z M280.856,93.021
	c-0.326-0.933-0.68-1.869-1.049-2.783l0.928-0.375c0.375,0.929,0.734,1.881,1.064,2.829L280.856,93.021z M12.457,92.106
	l-0.833-0.554c0.563-0.848,1.137-1.676,1.718-2.482l0.812,0.584C13.58,90.451,13.014,91.269,12.457,92.106z M277.753,85.731
	c-0.447-0.881-0.926-1.759-1.418-2.611l0.865-0.501c0.502,0.868,0.988,1.763,1.443,2.658L277.753,85.731z M17.179,85.71
	l-0.775-0.632c0.647-0.793,1.298-1.562,1.948-2.305l0.753,0.658C18.461,84.167,17.818,84.927,17.179,85.71z M22.484,79.782
	l-0.715-0.699c0.724-0.739,1.44-1.446,2.146-2.121l0.691,0.723C23.909,78.352,23.2,79.052,22.484,79.782z M273.661,78.953
	c-0.564-0.798-1.164-1.596-1.783-2.372l0.781-0.623c0.631,0.791,1.242,1.604,1.818,2.418L273.661,78.953z M268.616,72.859
	c-0.68-0.707-1.395-1.407-2.121-2.082l0.68-0.732c0.742,0.688,1.469,1.401,2.162,2.121L268.616,72.859z M25.898,72.804l-0.998-0.06
	c0.06-1,0.147-2.014,0.261-3.015l0.993,0.112C26.043,70.825,25.957,71.822,25.898,72.804z M262.714,67.58
	c-0.779-0.6-1.586-1.188-2.402-1.748l0.566-0.824c0.83,0.57,1.654,1.169,2.445,1.78L262.714,67.58z M26.931,64.949l-0.979-0.2
	c0.201-0.988,0.431-1.98,0.683-2.948l0.968,0.252C27.354,63.004,27.129,63.978,26.931,64.949z M256.11,63.206
	c-0.852-0.482-1.734-0.954-2.623-1.401l0.449-0.894c0.904,0.455,1.801,0.935,2.666,1.425L256.11,63.206z M248.974,59.756l-0.242-0.1
	l-0.195-0.313c-0.199-0.91-0.428-1.833-0.678-2.741l0.965-0.265c0.254,0.925,0.486,1.864,0.689,2.792l-0.342,0.074l-0.008,0.089
	L248.974,59.756z M29.057,57.316l-0.942-0.335c0.339-0.952,0.706-1.902,1.091-2.823l0.923,0.386
	C29.75,55.448,29.39,56.382,29.057,57.316z M246.345,51.883c-0.344-0.927-0.711-1.857-1.098-2.767l0.92-0.391
	c0.393,0.924,0.768,1.869,1.115,2.811L246.345,51.883z M32.242,50.063l-0.884-0.467c0.231-0.439,0.469-0.874,0.712-1.306
	c0.253-0.449,0.512-0.894,0.776-1.333l0.857,0.515c-0.259,0.432-0.514,0.868-0.762,1.31C32.702,49.206,32.469,49.633,32.242,50.063z
	 M243.136,44.624l-0.113-0.217c-0.416-0.796-0.863-1.595-1.33-2.375l0.857-0.514c0.479,0.797,0.936,1.613,1.357,2.424l0.119,0.228
	L243.136,44.624z M36.446,43.348l-0.807-0.592c0.598-0.813,1.223-1.618,1.86-2.39l0.771,0.637
	C37.646,41.76,37.032,42.549,36.446,43.348z M238.938,37.925c-0.588-0.786-1.211-1.568-1.85-2.324l0.764-0.646
	c0.652,0.771,1.287,1.569,1.887,2.371L238.938,37.925z M41.598,37.336L40.89,36.63c0.71-0.712,1.45-1.412,2.2-2.081l0.666,0.746
	C43.02,35.951,42.293,36.639,41.598,37.336z M47.604,32.181l-0.591-0.807c0.81-0.593,1.649-1.171,2.494-1.718l0.543,0.84
	C49.221,31.032,48.398,31.599,47.604,32.181z M233.716,31.976c-0.707-0.691-1.441-1.37-2.182-2.018l0.658-0.753
	c0.754,0.659,1.502,1.351,2.223,2.055L233.716,31.976z M54.329,28.011l-0.46-0.888c0.888-0.461,1.806-0.903,2.726-1.315l0.409,0.912
	C56.101,27.125,55.201,27.559,54.329,28.011z M227.659,26.868c-0.797-0.578-1.621-1.145-2.451-1.683l0.545-0.839
	c0.844,0.548,1.684,1.124,2.494,1.713L227.659,26.868z M61.61,24.91l-0.322-0.947c0.946-0.321,1.919-0.622,2.891-0.894l0.27,0.963
	C63.494,24.299,62.539,24.595,61.61,24.91z M69.276,22.907l-0.188-0.982c0.989-0.19,1.992-0.359,2.98-0.503l0.144,0.989
	C71.238,22.553,70.25,22.72,69.276,22.907z M220.937,22.675c-0.873-0.463-1.768-0.908-2.664-1.324l0.422-0.906
	c0.912,0.423,1.822,0.877,2.711,1.347L220.937,22.675z M93.22,22.398l-0.742-0.67c0.668-0.741,1.371-1.479,2.087-2.192l0.705,0.709
	C94.567,20.946,93.877,21.67,93.22,22.398z M88.027,22.209c-0.977-0.124-1.972-0.223-2.958-0.294l0.072-0.997
	c1.003,0.072,2.017,0.173,3.012,0.299L88.027,22.209z M77.144,21.895l-0.065-0.998c1.009-0.065,2.026-0.106,3.023-0.121l0.015,1
	C79.136,21.789,78.136,21.83,77.144,21.895z M213.692,19.459c-0.93-0.337-1.879-0.652-2.82-0.938l0.291-0.957
	c0.957,0.291,1.924,0.612,2.869,0.955L213.692,19.459z M206.073,17.298c-0.973-0.201-1.957-0.377-2.926-0.521l0.148-0.989
	c0.988,0.147,1.99,0.326,2.98,0.531L206.073,17.298z M98.935,16.912l-0.64-0.769c0.77-0.641,1.569-1.271,2.375-1.874l0.599,0.801
	C100.477,15.663,99.692,16.282,98.935,16.912z M189.944,16.32c-0.738-0.657-1.502-1.304-2.271-1.922l0.627-0.779
	c0.781,0.629,1.559,1.286,2.31,1.954L189.944,16.32z M198.224,16.277c-0.883-0.047-1.775-0.071-2.652-0.071l-0.317,0.001l-0.005-1
	l0.322-0.001c0.896,0,1.805,0.024,2.705,0.072L198.224,16.277z M105.358,12.27l-0.53-0.848c0.848-0.53,1.722-1.05,2.6-1.542
	l0.489,0.872C107.053,11.236,106.192,11.747,105.358,12.27z M183.687,11.454c-0.824-0.557-1.667-1.096-2.506-1.604l0.518-0.855
	c0.854,0.516,1.71,1.064,2.547,1.63L183.687,11.454z M112.332,8.49l-0.423-0.906c0.896-0.418,1.817-0.823,2.765-1.217l0.383,0.924
	C114.123,7.679,113.215,8.078,112.332,8.49z M176.835,7.465c-0.88-0.436-1.787-0.857-2.697-1.253l0.398-0.917
	c0.926,0.401,1.848,0.83,2.744,1.274L176.835,7.465z M119.705,5.548l-0.319-0.947c0.937-0.316,1.896-0.62,2.877-0.91l0.283,0.959
	C121.577,4.936,120.63,5.235,119.705,5.548z M169.514,4.427c-0.925-0.314-1.881-0.613-2.839-0.889l0.275-0.961
	c0.974,0.279,1.945,0.583,2.886,0.903L169.514,4.427z M127.352,3.385l-0.226-0.974c0.962-0.224,1.946-0.435,2.949-0.633l0.193,0.981
	C129.276,2.955,128.304,3.164,127.352,3.385z M161.858,2.361c-0.964-0.195-1.949-0.373-2.93-0.527l0.154-0.988
	c0.996,0.157,1.996,0.337,2.975,0.536L161.858,2.361z M135.17,1.926l-0.143-0.99c0.887-0.128,1.788-0.245,2.704-0.353l0.287-0.033
	l0.112,0.993l-0.283,0.033C136.94,1.683,136.048,1.799,135.17,1.926z M154.002,1.242c-0.974-0.082-1.965-0.146-2.973-0.189
	l0.043-0.999c1.021,0.045,2.026,0.108,3.014,0.192L154.002,1.242z M143.084,1.116l-0.058-0.998c1.021-0.059,2.025-0.098,3.016-0.118
	l0.021,1C145.085,1.021,144.092,1.059,143.084,1.116z" class="color c1"/>
</svg>