<svg version="1.1" id="图层_1" x="0px" y="0px" width="147.4px" height="147.458px" viewBox="0 0 147.4 147.458" enable-background="new 0 0 147.4 147.458" xml:space="preserve" xmlns="http://www.w3.org/2000/svg" xmlns:xlink="http://www.w3.org/1999/xlink" xmlns:xml="http://www.w3.org/XML/1998/namespace">
  <path fill="#137DB2" d="M141.294,44.447c-7.819-18.07-22.209-32.013-40.519-39.257C92.075,1.746,82.955,0,73.666,0
	C56.328,0,40.142,5.941,27.344,16.279c0.852,2.205,1.337,4.591,1.337,7.096c0,10.893-8.84,19.726-19.734,19.726
	c-0.77,0-1.525-0.055-2.271-0.141c-0.548,1.196-1.077,2.405-1.566,3.64C2.076,54.265,0.387,62.232,0,70.231
	c6.539,1.237,11.49,6.973,11.49,13.872c0,5.545-3.208,10.332-7.861,12.643c0.697,2.109,1.48,4.201,2.373,6.264
	c2.015,4.656,4.474,9.032,7.316,13.096c0.802-0.214,1.641-0.339,2.511-0.339c5.368,0,9.723,4.354,9.723,9.723
	c0,1.255-0.246,2.452-0.681,3.554c6.31,5.557,13.6,10.039,21.649,13.225c8.702,3.443,17.821,5.19,27.11,5.19
	c30.441,0,57.351-18.292,68.558-46.601C149.433,82.548,149.117,62.516,141.294,44.447z M120.668,92.34
	c-7.688,19.424-26.149,31.976-47.037,31.976c-6.358,0-12.615-1.2-18.591-3.566c-12.562-4.971-22.436-14.535-27.801-26.932
	c-5.366-12.396-5.582-26.141-0.609-38.7c7.688-19.424,26.15-31.976,47.036-31.976c6.358,0,12.615,1.201,18.593,3.566
	c12.56,4.971,22.434,14.536,27.8,26.932C125.425,66.036,125.64,79.781,120.668,92.34z" class="color c1"/>
</svg>