<svg version="1.1" id="图层_1" x="0px" y="0px" width="24.906px" height="24.892px" viewBox="0 0 24.906 24.892" enable-background="new 0 0 24.906 24.892" xml:space="preserve" xmlns="http://www.w3.org/2000/svg" xmlns:xlink="http://www.w3.org/1999/xlink" xmlns:xml="http://www.w3.org/XML/1998/namespace">
  <path fill="#FFFFFF" d="M12.452,0C5.576,0,0,5.575,0,12.442c0,6.875,5.576,12.449,12.452,12.449c6.88,0,12.454-5.574,12.454-12.449
	C24.906,5.575,19.332,0,12.452,0z M12.452,21.403c-4.95,0-8.966-4.013-8.966-8.961c0-4.956,4.016-8.953,8.966-8.953
	s8.968,3.997,8.968,8.953C21.42,17.394,17.402,21.403,12.452,21.403z M12.807,7.649c0.044,0.539-0.231,1.113-0.809,1.241
	c-0.576,0.128-1.252,0.149-2.072,0.691c-0.816,0.541-0.852,0.954-0.957,1.337c-0.1,0.377-0.39,0.85-0.951,0.976
	c-0.565,0.126-1.049-0.244-1.256-0.611c-0.209-0.364-0.059-0.988,0.182-1.587C7.186,9.098,7.786,8.374,8.36,7.867
	c0.573-0.506,2.603-1.241,3.245-1.206C12.251,6.696,12.759,7.11,12.807,7.649z" class="color c1"/>
</svg>