<svg version="1.1" id="图层_1" x="0px" y="0px" width="189px" height="189px" viewBox="0 0 189 189" enable-background="new 0 0 189 189" xml:space="preserve" xmlns="http://www.w3.org/2000/svg" xmlns:xlink="http://www.w3.org/1999/xlink" xmlns:xml="http://www.w3.org/XML/1998/namespace">
  <path fill="#D52C25" d="M98.287,3.785c0,2.088-1.701,3.787-3.789,3.787c-2.086,0-3.781-1.699-3.781-3.787S92.412,0,94.498,0
	C96.586,0,98.287,1.697,98.287,3.785z M94.498,181.426c-2.086,0-3.781,1.699-3.781,3.789c0,2.086,1.695,3.785,3.781,3.785
	c2.088,0,3.789-1.699,3.789-3.785C98.287,183.125,96.586,181.426,94.498,181.426z M22.674,23.746c1.475-1.477,1.475-3.879,0-5.355
	c-0.715-0.715-1.664-1.107-2.676-1.107c-1.01,0-1.961,0.393-2.676,1.107c-0.713,0.713-1.105,1.664-1.105,2.676
	c0,1.016,0.395,1.967,1.107,2.68C18.75,25.174,21.244,25.174,22.674,23.746z M167.93,162.855c-1.01,0-1.959,0.393-2.672,1.105
	c-0.719,0.719-1.113,1.67-1.113,2.682c0,1.01,0.395,1.963,1.111,2.678c1.43,1.43,3.926,1.428,5.357-0.002
	c1.473-1.475,1.471-3.879-0.006-5.357C169.895,163.248,168.943,162.855,167.93,162.855z M3.785,90.717
	C1.697,90.717,0,92.412,0,94.498c0,2.088,1.697,3.789,3.785,3.789s3.787-1.701,3.787-3.789C7.572,92.412,5.873,90.717,3.785,90.717z
	 M185.215,90.717c-2.09,0-3.789,1.695-3.789,3.781c0,2.088,1.699,3.789,3.789,3.789c2.086,0,3.785-1.701,3.785-3.789
	C189,92.412,187.301,90.717,185.215,90.717z M21.068,162.855c-1.01,0-1.961,0.393-2.674,1.107c-1.477,1.477-1.475,3.883,0.002,5.361
	c1.422,1.42,3.92,1.422,5.346-0.002c0.717-0.717,1.113-1.67,1.113-2.68c0-1.012-0.395-1.963-1.111-2.678
	C23.029,163.25,22.08,162.855,21.068,162.855z M170.609,25.033c0.713-0.715,1.105-1.664,1.105-2.678
	c0-1.012-0.393-1.961-1.105-2.674c-0.717-0.719-1.668-1.113-2.68-1.113c-1.008,0-1.955,0.393-2.668,1.107
	c-0.723,0.721-1.117,1.67-1.117,2.68s0.393,1.959,1.109,2.674C166.691,26.469,169.182,26.459,170.609,25.033z" class="color c1"/>
</svg>