<svg version="1.1" id="图层_1" x="0px" y="0px" width="35.449px" height="34px" viewBox="0 0 35.449 34" enable-background="new 0 0 35.449 34" xml:space="preserve" xmlns="http://www.w3.org/2000/svg" xmlns:xlink="http://www.w3.org/1999/xlink" xmlns:xml="http://www.w3.org/XML/1998/namespace">
  <path fill="#54514C" d="M19.621,2.174c0.033,0,0.064-0.002,0.093-0.006c-0.112,0.278-0.203,0.545-0.285,0.785
	c-0.113,0.336-0.255,0.755-0.374,0.875c-0.921,0.917-0.921,2.033-0.921,2.93c0,0.193,0,0.388-0.009,0.583l-0.064,1.431l0.903-0.447
	l-0.549,1.142c-0.514,1.068,0.518,5.718,3.305,10.577c1.68,2.923,0.304,5.54-0.912,7.851l-0.254,0.483
	c-1.198,2.314-1.992,3.927-2.53,5.019c-0.106,0.213-0.206,0.417-0.299,0.604c-0.093-0.189-0.192-0.392-0.299-0.604
	c-0.538-1.092-1.331-2.704-2.532-5.019l-0.253-0.483c-1.215-2.311-2.592-4.928-0.914-7.851c2.787-4.859,3.823-9.509,3.308-10.577
	l-0.55-1.14l0.901,0.449l-0.063-1.435c-0.009-0.195-0.009-0.39-0.009-0.583c0.003-0.896,0.003-2.013-0.921-2.929
	c-0.119-0.121-0.263-0.54-0.374-0.876c-0.081-0.24-0.172-0.507-0.285-0.785c0.028,0.004,0.06,0.006,0.093,0.006
	c0.68,0,0.912-0.27,1.897-2.174C18.703,1.9,18.936,2.174,19.621,2.174z M27.759,4.406c0.498,0.722,0.568,1.562,0.212,2.5
	c-0.321,0.845-1.042,1.417-1.954,1.567c0.07-0.203,0.139-0.436,0.186-0.702c0.197-1.072-0.166-1.778-0.505-2.182
	c-0.498-0.6-1.288-0.944-2.165-0.944c-1.423,0-2.567,0.863-2.849,2.146c-0.106,0.481,0.033,0.81,0.173,1
	c0.201,0.28,0.514,0.443,0.926,0.486c0.818,0.088,1.177,0.296,1.266,0.296c0.009,0,0.016-0.004,0.02-0.006
	c-0.035,0.074-0.312,0.288-0.949,0.288c-0.004,0-0.004,0-0.009,0c-0.648,0-0.963,0.292-1.111,0.534
	c-0.332,0.544-0.035,1.124,0.063,1.315c1.569,3.043,4.289,4.127,6.317,4.127c1.479,0,2.789-0.564,3.595-1.552
	c0.522-0.641,1.069-1.74,0.83-3.416c2.651,1.01,3.927,2.638,3.595,4.61c-0.425,2.493-3.524,5.282-7.037,5.282
	c-2.366,0-6.594-1.31-8.358-10.092l-0.35-1.737c0.374-0.331,0.412-0.761,0.427-0.95c0.603-3.807,3.486-4.103,4.354-4.103
	C25.813,2.875,27.114,3.478,27.759,4.406z M15.371,7.016c0.016,0.158,0.054,0.583,0.425,0.912l-0.35,1.737
	c-1.288,6.415-4.334,10.092-8.358,10.092c-3.515,0-6.613-2.788-7.036-5.282c-0.332-1.973,0.942-3.599,3.592-4.61
	C3.405,11.54,3.954,12.64,4.477,13.28c0.806,0.987,2.116,1.552,3.595,1.552c2.027,0,4.75-1.084,6.317-4.131
	c0.098-0.188,0.394-0.768,0.06-1.312c-0.146-0.242-0.458-0.533-1.222-0.533c-0.002,0-0.007,0-0.007,0
	c-0.469,0-0.741-0.173-0.823-0.173c-0.011,0-0.021,0.006-0.024,0.01c0.051-0.076,0.392-0.318,1.297-0.416
	c0.41-0.043,0.72-0.206,0.923-0.486c0.138-0.19,0.279-0.519,0.175-1c-0.283-1.282-1.43-2.146-2.853-2.146
	c-0.875,0-1.663,0.345-2.163,0.944C9.412,5.993,9.052,6.701,9.246,7.771c0.049,0.267,0.115,0.501,0.187,0.704
	C8.527,8.329,7.799,7.755,7.478,6.906c-0.356-0.938-0.285-1.778,0.213-2.5c0.642-0.929,1.945-1.531,3.324-1.531
	C11.883,2.875,14.767,3.171,15.371,7.016z" class="color c1"/>
</svg>