<svg version="1.1" id="图层_1" x="0px" y="0px" width="194.644px" height="74.445px" viewBox="0 0 194.644 74.445" enable-background="new 0 0 194.644 74.445" xml:space="preserve" xmlns="http://www.w3.org/2000/svg" xmlns:xlink="http://www.w3.org/1999/xlink" xmlns:xml="http://www.w3.org/XML/1998/namespace">
  <path fill="#CCCAE0" d="M185.97,6.834c0,3.773-3.061,6.836-6.834,6.836h-4.531c-0.254-0.064-0.514-0.107-0.787-0.107h-36.514
	c-0.273,0-0.533,0.043-0.787,0.107c-1.414,0.354-2.467,1.623-2.467,3.146s1.049,2.793,2.463,3.146
	c0.254,0.064,0.518,0.109,0.791,0.109h19.666c5.232,0.707,9.268,5.178,9.268,10.602c0,4.828-3.197,8.909-7.588,10.245h-31.43h-9.297
	c-3.406,0-6.166,2.761-6.166,6.165s2.76,6.166,6.166,6.166h6.32h8.787c4.869,1.008,8.527,5.318,8.527,10.486
	c0,5.914-4.795,10.709-10.709,10.709H10.711C4.795,74.445,0,69.65,0,63.736c0-4.842,3.215-8.93,7.624-10.254h27.681h9.983
	c3.405,0,6.166-2.762,6.166-6.166s-2.761-6.165-6.166-6.165h-0.887H33.173c-4.851-1.021-8.493-5.323-8.493-10.477
	c0-5.916,4.795-10.711,10.71-10.711h34.229c0.312,0.1,0.637,0.168,0.982,0.168h36.511c0.346,0,0.67-0.068,0.982-0.168
	c1.314-0.418,2.273-1.635,2.273-3.088c0-1.633-1.207-2.973-2.775-3.205c-0.156-0.025-0.316-0.049-0.48-0.049h-5.43
	c-3.404-0.391-6.049-3.279-6.049-6.787c0-3.775,3.059-6.834,6.834-6.834h76.668C182.91,0,185.97,3.059,185.97,6.834z
	 M194.644,63.443c0-5.883-4.77-10.65-10.652-10.65H161.64c-5.883,0-10.652,4.768-10.652,10.65l0,0
	c0,5.883,4.77,10.652,10.652,10.652h22.352C189.875,74.095,194.644,69.326,194.644,63.443L194.644,63.443z" class="color c1"/>
</svg>