<svg version="1.1" id="图层_1" x="0px" y="0px" width="124.074px" height="96.674px" viewBox="0 0 124.074 96.674" enable-background="new 0 0 124.074 96.674" xml:space="preserve" xmlns="http://www.w3.org/2000/svg" xmlns:xlink="http://www.w3.org/1999/xlink" xmlns:xml="http://www.w3.org/XML/1998/namespace">
  <path fill="#E8C534" d="M123.285,53.54l-0.922,2.71l1.711,2.296l-2.862-0.038l-1.654,2.336l-0.848-2.734l-2.733-0.852l2.338-1.652
	l-0.033-2.861l2.293,1.713L123.285,53.54z M17.156,52.547l-1.475-1.714l-0.463,2.213l-2.085,0.872l1.96,1.125l0.186,2.253
	l1.675-1.518l2.2,0.521l-0.925-2.063l1.174-1.932L17.156,52.547z M59.845,94.692l0.211,1.981l1.444-1.373l1.949,0.41l-0.859-1.797
	l0.993-1.727l-1.975,0.262l-1.335-1.479l-0.361,1.959l-1.819,0.814L59.845,94.692z M72.736,2.562l-2.827,0.41l2.046,1.994
	L71.472,7.78L74,6.451l2.528,1.329l-0.483-2.814l2.046-1.994l-2.827-0.41L74,0L72.736,2.562z" class="color c1"/>
  <path fill="#332E1A" d="M19.43,82.657l-0.477,1.406l0.888,1.189l-1.484-0.019L17.5,86.447l-0.441-1.418l-1.418-0.441l1.212-0.857
	l-0.019-1.484l1.189,0.889L19.43,82.657z M57,8.551c-0.552,0-1,0.448-1,1c0,0.553,0.448,1,1,1s1-0.447,1-1
	C58,8.999,57.552,8.551,57,8.551z M96.375,31.301c-0.76,0-1.375,0.616-1.375,1.375c0,0.76,0.615,1.375,1.375,1.375
	s1.375-0.615,1.375-1.375C97.75,31.917,97.135,31.301,96.375,31.301z M94,42.363c-0.38,0-0.688,0.308-0.688,0.688
	S93.62,43.738,94,43.738s0.688-0.308,0.688-0.688S94.38,42.363,94,42.363z M16.75,35.801c-1.243,0-2.25,1.008-2.25,2.25
	c0,1.243,1.007,2.25,2.25,2.25S19,39.294,19,38.051C19,36.809,17.993,35.801,16.75,35.801z M29.125,69.895
	c-0.432,0-0.781,0.35-0.781,0.781s0.35,0.781,0.781,0.781s0.781-0.35,0.781-0.781S29.557,69.895,29.125,69.895z M91.125,85.801
	c-0.897,0-1.625,0.728-1.625,1.625s0.728,1.625,1.625,1.625s1.625-0.728,1.625-1.625S92.022,85.801,91.125,85.801z M1.5,56.551
	c-0.829,0-1.5,0.672-1.5,1.5s0.671,1.5,1.5,1.5s1.5-0.672,1.5-1.5S2.329,56.551,1.5,56.551z" class="color c2"/>
</svg>