<svg version="1.1" id="图层_1" x="0px" y="0px" width="166.324px" height="203.848px" viewBox="0 0 166.324 203.848" enable-background="new 0 0 166.324 203.848" xml:space="preserve" xmlns="http://www.w3.org/2000/svg" xmlns:xlink="http://www.w3.org/1999/xlink" xmlns:xml="http://www.w3.org/XML/1998/namespace">
  <path fill="#491768" d="M41.146,192.059c-0.225,0-0.445-0.107-0.584-0.307c-0.465-0.674-0.904-1.377-1.311-2.094
	c-0.82,0.021-1.642,0.014-2.455-0.021c-0.391-0.018-0.694-0.348-0.678-0.738c0.018-0.391,0.327-0.699,0.739-0.678
	c0.919,0.039,1.85,0.043,2.775,0.006c0.26-0.023,0.521,0.133,0.649,0.369c0.439,0.807,0.927,1.598,1.447,2.352
	c0.222,0.322,0.141,0.764-0.182,0.986C41.426,192.018,41.285,192.059,41.146,192.059z M31.918,188.361
	c0.082-0.383-0.162-0.76-0.545-0.84c-1.792-0.383-3.573-0.92-5.293-1.598c-0.364-0.145-0.775,0.035-0.918,0.4
	c-0.145,0.363,0.035,0.775,0.398,0.918c1.793,0.705,3.648,1.266,5.518,1.664c0.049,0.012,0.1,0.016,0.148,0.016
	C31.554,188.922,31.848,188.695,31.918,188.361z M21.36,184.465c0.198-0.338,0.087-0.771-0.25-0.971
	c-1.571-0.928-3.099-1.996-4.539-3.172c-0.304-0.246-0.749-0.201-0.997,0.102s-0.203,0.75,0.101,0.996
	c1.495,1.221,3.081,2.33,4.715,3.295c0.113,0.066,0.237,0.098,0.36,0.098C20.992,184.813,21.229,184.689,21.36,184.465z
	 M12.5,177.518c0.288-0.266,0.307-0.713,0.043-1.002c-1.24-1.352-2.404-2.811-3.461-4.34c-0.223-0.322-0.665-0.4-0.986-0.18
	c-0.322,0.223-0.402,0.664-0.18,0.986c1.094,1.582,2.299,3.094,3.582,4.492c0.141,0.152,0.331,0.229,0.522,0.229
	C12.191,177.703,12.363,177.643,12.5,177.518z M5.925,168.361c0.349-0.179,0.486-0.604,0.308-0.954
	c-0.837-1.637-1.58-3.353-2.206-5.1c-0.132-0.37-0.539-0.561-0.906-0.428c-0.368,0.131-0.56,0.537-0.428,0.906
	c0.647,1.804,1.413,3.576,2.278,5.268c0.126,0.244,0.375,0.386,0.632,0.386C5.711,168.439,5.821,168.414,5.925,168.361z
	 M1.945,157.813c0.383-0.085,0.623-0.464,0.539-0.846c-0.4-1.797-0.693-3.646-0.87-5.493c-0.038-0.391-0.39-0.67-0.773-0.638
	c-0.39,0.037-0.675,0.384-0.638,0.773c0.184,1.905,0.484,3.812,0.896,5.665c0.074,0.33,0.367,0.555,0.691,0.555
	C1.842,157.829,1.895,157.823,1.945,157.813z M1.418,145.914c0.045-1.856,0.203-3.722,0.471-5.543
	c0.057-0.387-0.211-0.747-0.598-0.804c-0.391-0.052-0.748,0.211-0.805,0.598c-0.275,1.878-0.439,3.801-0.486,5.714
	c-0.01,0.392,0.301,0.716,0.691,0.726c0.006,0,0.012,0,0.018,0C1.093,146.604,1.408,146.299,1.418,145.914z M3.034,134.931
	c0.494-1.788,1.105-3.556,1.816-5.254c0.151-0.361-0.019-0.776-0.38-0.928c-0.363-0.15-0.777,0.02-0.928,0.381
	c-0.734,1.753-1.365,3.577-1.875,5.423c-0.104,0.377,0.117,0.768,0.494,0.872c0.063,0.018,0.127,0.025,0.189,0.025
	C2.662,135.45,2.947,135.244,3.034,134.931z M7.323,124.701c0.935-1.608,1.979-3.159,3.106-4.607c0.24-0.31,0.184-0.755-0.125-0.995
	s-0.754-0.184-0.994,0.125c-1.166,1.499-2.246,3.102-3.213,4.766c-0.197,0.338-0.082,0.771,0.257,0.969
	c0.112,0.064,0.234,0.096,0.355,0.096C6.954,125.054,7.191,124.928,7.323,124.701z M14.131,115.957
	c1.336-1.295,2.766-2.493,4.25-3.562c0.318-0.229,0.391-0.672,0.162-0.989c-0.229-0.319-0.674-0.392-0.989-0.161
	c-1.542,1.108-3.024,2.352-4.409,3.694c-0.281,0.273-0.288,0.722-0.016,1.003c0.139,0.143,0.324,0.215,0.509,0.215
	C13.815,116.157,13.994,116.091,14.131,115.957z M23.111,109.516c1.651-0.837,3.373-1.542,5.115-2.097
	c0.373-0.118,0.58-0.517,0.461-0.89c-0.118-0.372-0.515-0.58-0.891-0.461c-1.814,0.577-3.607,1.312-5.326,2.184
	c-0.35,0.177-0.489,0.604-0.313,0.952c0.125,0.247,0.375,0.389,0.633,0.389C22.898,109.593,23.008,109.568,23.111,109.516z
	 M33.676,106.177c0.91-0.128,1.839-0.219,2.762-0.271c0.363-0.021,0.652-0.314,0.668-0.679c0.035-0.89,0.182-1.771,0.434-2.619
	c0.111-0.375-0.102-0.77-0.477-0.881c-0.373-0.112-0.77,0.102-0.882,0.477c-0.226,0.758-0.376,1.538-0.449,2.328
	c-0.755,0.057-1.51,0.138-2.253,0.242c-0.387,0.055-0.657,0.413-0.603,0.801c0.05,0.354,0.353,0.61,0.7,0.61
	C33.609,106.185,33.643,106.182,33.676,106.177z M41.07,97.339c1.688-1.369,3.722-2.184,5.88-2.354
	c0.39-0.031,0.681-0.373,0.65-0.763c-0.03-0.391-0.378-0.682-0.763-0.65c-2.445,0.193-4.748,1.116-6.66,2.667
	c-0.305,0.247-0.352,0.693-0.104,0.997c0.14,0.173,0.345,0.262,0.551,0.262C40.781,97.497,40.938,97.445,41.07,97.339z
	 M57.268,94.438l0.785-2.724c0.107-0.377-0.109-0.77-0.485-0.878c-0.375-0.107-0.769,0.108-0.878,0.485l-0.637,2.212h-2.301
	c-0.393,0-0.709,0.316-0.709,0.708s0.316,0.709,0.709,0.709h2.834C56.902,94.95,57.18,94.741,57.268,94.438z M59.634,86.226
	l1.581-5.488c0.108-0.376-0.109-0.77-0.484-0.878c-0.376-0.105-0.77,0.109-0.878,0.485l-1.581,5.488
	c-0.108,0.376,0.109,0.769,0.484,0.877c0.066,0.019,0.133,0.028,0.197,0.028C59.261,86.738,59.544,86.536,59.634,86.226z
	 M62.797,75.249l1.58-5.488c0.108-0.376-0.108-0.77-0.484-0.878c-0.375-0.107-0.769,0.109-0.877,0.485l-1.582,5.488
	c-0.107,0.376,0.109,0.769,0.485,0.877c0.065,0.019,0.132,0.028,0.196,0.028C62.424,75.762,62.707,75.56,62.797,75.249z
	 M65.959,64.272l1.581-5.488c0.108-0.376-0.108-0.77-0.485-0.878c-0.375-0.105-0.768,0.109-0.877,0.485l-1.581,5.488
	c-0.108,0.376,0.108,0.769,0.485,0.877c0.064,0.019,0.131,0.028,0.196,0.028C65.586,64.785,65.869,64.583,65.959,64.272z
	 M69.121,53.295l0.074-0.258c0.47-1.628,1.34-3.145,2.516-4.384c0.27-0.284,0.257-0.732-0.027-1.002
	c-0.283-0.268-0.732-0.257-1.002,0.026c-1.331,1.403-2.316,3.121-2.848,4.968l-0.074,0.258c-0.108,0.377,0.109,0.77,0.484,0.877
	c0.066,0.019,0.132,0.028,0.197,0.028C68.748,53.809,69.032,53.605,69.121,53.295z M76.193,45.817
	c1.7-0.557,3.524-0.671,5.287-0.337c0.383,0.069,0.756-0.18,0.828-0.564s-0.18-0.756-0.564-0.828
	c-1.994-0.378-4.063-0.247-5.991,0.382c-0.372,0.122-0.575,0.522-0.454,0.895c0.098,0.299,0.376,0.488,0.674,0.488
	C76.046,45.853,76.12,45.841,76.193,45.817z M90.204,47.727c0.166-0.094,0.287-0.249,0.336-0.432
	c0.242-0.887,0.494-1.793,0.764-2.713c0.109-0.376-0.107-0.77-0.482-0.879c-0.377-0.108-0.77,0.106-0.879,0.482
	c-0.201,0.689-0.395,1.371-0.578,2.043l-2.035-0.586c-0.377-0.105-0.768,0.108-0.877,0.484s0.109,0.77,0.484,0.878l2.725,0.785
	c0.064,0.019,0.131,0.027,0.195,0.027C89.977,47.817,90.096,47.786,90.204,47.727z M93.188,38.692
	c0.719-2.031,1.488-3.959,2.283-5.73c0.16-0.356,0.002-0.776-0.355-0.937c-0.355-0.16-0.775-0.001-0.938,0.355
	c-0.811,1.807-1.594,3.771-2.326,5.838c-0.131,0.369,0.063,0.773,0.43,0.904c0.08,0.028,0.158,0.041,0.238,0.041
	C92.811,39.164,93.084,38.982,93.188,38.692z M98.278,27.491c1.068-1.821,2.227-3.527,3.441-5.068
	c0.242-0.308,0.189-0.753-0.119-0.995c-0.307-0.242-0.752-0.189-0.994,0.118c-1.256,1.592-2.449,3.351-3.551,5.229
	c-0.197,0.337-0.084,0.771,0.254,0.97c0.113,0.065,0.236,0.098,0.357,0.098C97.911,27.842,98.147,27.716,98.278,27.491z
	 M105.87,17.951c1.516-1.378,3.15-2.609,4.859-3.66c0.334-0.205,0.438-0.642,0.232-0.975c-0.205-0.334-0.643-0.438-0.975-0.232
	c-1.783,1.097-3.49,2.382-5.07,3.818c-0.291,0.264-0.313,0.712-0.049,1.001c0.141,0.154,0.332,0.232,0.525,0.232
	C105.563,18.136,105.733,18.075,105.87,17.951z M116.211,11.6c0.857-0.326,1.744-0.622,2.635-0.88c0.184-0.053,0.34-0.18,0.428-0.35
	c0.416-0.785,0.926-1.517,1.52-2.175c0.264-0.29,0.24-0.738-0.051-1c-0.289-0.263-0.738-0.24-1,0.051
	c-0.605,0.67-1.135,1.408-1.576,2.196c-0.83,0.248-1.656,0.527-2.459,0.832c-0.365,0.139-0.549,0.548-0.41,0.914
	c0.107,0.283,0.377,0.457,0.662,0.457C116.043,11.646,116.127,11.631,116.211,11.6z M142.706,44.445l5.695-0.13
	c0.391-0.009,0.701-0.333,0.691-0.725c-0.008-0.391-0.328-0.703-0.725-0.692l-5.695,0.13c-0.391,0.009-0.701,0.333-0.691,0.725
	c0.008,0.386,0.324,0.692,0.707,0.692C142.694,44.445,142.7,44.445,142.706,44.445z M154.1,44.186l0.424-0.01
	c1.893-0.043,3.697-0.512,5.363-1.391c0.346-0.183,0.479-0.611,0.297-0.957c-0.184-0.347-0.615-0.479-0.959-0.297
	c-1.471,0.776-3.063,1.189-4.732,1.228l-0.426,0.01c-0.391,0.01-0.701,0.334-0.691,0.726c0.01,0.386,0.324,0.691,0.709,0.691
	C154.09,44.186,154.094,44.186,154.1,44.186z M137.721,43.525c0.086-0.383-0.156-0.761-0.539-0.845l-5.549-1.22
	c-0.383-0.089-0.76,0.157-0.844,0.539c-0.086,0.383,0.156,0.761,0.539,0.845l5.549,1.22c0.051,0.012,0.104,0.018,0.152,0.018
	C137.356,44.082,137.649,43.856,137.721,43.525z M164.323,38.79c1.123-1.678,1.814-3.623,1.998-5.627
	c0.035-0.39-0.252-0.734-0.641-0.771c-0.389-0.035-0.734,0.251-0.771,0.642c-0.162,1.768-0.771,3.485-1.764,4.967
	c-0.219,0.325-0.131,0.765,0.193,0.983c0.121,0.081,0.258,0.119,0.395,0.119C163.961,39.104,164.186,38.994,164.323,38.79z
	 M165.577,28.128c0.391-0.009,0.701-0.333,0.691-0.725l-0.129-5.68c-0.01-0.392-0.357-0.677-0.725-0.692
	c-0.393,0.009-0.701,0.334-0.693,0.725l0.131,5.68c0.008,0.386,0.324,0.692,0.707,0.692
	C165.565,28.128,165.571,28.128,165.577,28.128z M165.317,16.769c0.391-0.009,0.701-0.334,0.691-0.725l-0.096-4.218
	c-0.012-0.515-0.057-1.035-0.133-1.546c-0.061-0.387-0.416-0.652-0.807-0.595c-0.387,0.059-0.654,0.419-0.596,0.807
	c0.068,0.451,0.107,0.91,0.117,1.366l0.098,4.218c0.008,0.386,0.324,0.692,0.707,0.692
	C165.305,16.769,165.311,16.769,165.317,16.769z M163.317,5.773c0.313-0.237,0.371-0.682,0.135-0.993
	c-0.391-0.514-0.828-1.003-1.301-1.455c-0.994-0.945-2.127-1.709-3.369-2.268c-0.355-0.16-0.777-0.001-0.938,0.356
	c-0.16,0.356-0.002,0.776,0.355,0.937c1.096,0.493,2.096,1.166,2.973,2c0.418,0.399,0.807,0.833,1.152,1.288
	c0.139,0.183,0.35,0.279,0.564,0.279C163.038,5.918,163.188,5.871,163.317,5.773z M125.19,5.274c0.256-0.09,0.516-0.171,0.781-0.241
	l4.646-1.247c0.377-0.102,0.602-0.49,0.5-0.868s-0.492-0.604-0.867-0.501l-4.646,1.247c-0.299,0.08-0.596,0.172-0.885,0.273
	c-0.369,0.13-0.563,0.534-0.432,0.903c0.102,0.292,0.375,0.474,0.668,0.474C125.034,5.314,125.112,5.302,125.19,5.274z
	 M136.104,2.314l0.848-0.228c0.803-0.219,1.682-0.345,2.545-0.362l2.07-0.048c0.393-0.009,0.701-0.333,0.693-0.725
	c-0.01-0.392-0.377-0.687-0.725-0.692l-2.07,0.048c-0.975,0.021-1.973,0.163-2.883,0.411l-0.846,0.227
	c-0.377,0.102-0.602,0.49-0.5,0.868c0.084,0.316,0.371,0.525,0.684,0.525C135.981,2.339,136.043,2.331,136.104,2.314z
	 M147.264,1.547l5.697-0.13c0.391-0.009,0.701-0.333,0.693-0.725c-0.01-0.392-0.328-0.683-0.725-0.692l-5.699,0.13
	c-0.391,0.009-0.701,0.333-0.691,0.725c0.008,0.386,0.324,0.692,0.707,0.692C147.252,1.547,147.258,1.547,147.264,1.547z
	 M122.481,42.551c0.373-0.687,0.742-1.279,1.121-1.794c0.713,0.359,1.461,0.648,2.232,0.861c0.379,0.104,0.768-0.117,0.871-0.494
	s-0.117-0.768-0.494-0.872c-0.857-0.236-1.682-0.579-2.451-1.019c-0.301-0.171-0.682-0.102-0.898,0.167
	c-0.563,0.685-1.094,1.494-1.627,2.475c-0.186,0.344-0.059,0.774,0.285,0.961c0.107,0.059,0.223,0.086,0.338,0.086
	C122.11,42.922,122.352,42.788,122.481,42.551z M119.797,49.071c0.41-1.228,0.82-2.35,1.215-3.335
	c0.146-0.363-0.031-0.775-0.393-0.922c-0.367-0.146-0.777,0.031-0.922,0.394c-0.406,1.012-0.824,2.16-1.244,3.414
	c-0.125,0.371,0.076,0.772,0.447,0.896c0.074,0.024,0.15,0.037,0.225,0.037C119.422,49.556,119.698,49.368,119.797,49.071z
	 M120.672,55.987c0.109-0.376-0.107-0.77-0.484-0.878l-2.049-0.59c0.199-0.709,0.395-1.389,0.588-2.041
	c0.111-0.375-0.102-0.77-0.477-0.881c-0.375-0.112-0.77,0.102-0.881,0.478c-0.258,0.864-0.518,1.777-0.785,2.742
	c-0.104,0.374,0.115,0.762,0.488,0.87l2.723,0.784c0.066,0.019,0.133,0.028,0.197,0.028C120.299,56.5,120.583,56.298,120.672,55.987
	z M129.362,85.657l1.742-6.049c0.107-0.376-0.109-0.769-0.484-0.877c-0.377-0.106-0.77,0.108-0.877,0.484L128,85.265
	c-0.109,0.377,0.107,0.77,0.484,0.878c0.066,0.019,0.131,0.027,0.197,0.027C128.989,86.17,129.272,85.968,129.362,85.657z
	 M132.846,73.561l0.582-2.018c0.314-1.095,0.475-2.222,0.475-3.35c0-0.355-0.016-0.709-0.047-1.061
	c-0.033-0.39-0.379-0.674-0.768-0.644c-0.391,0.035-0.678,0.379-0.645,0.769c0.029,0.31,0.043,0.621,0.041,0.935
	c0,0.996-0.141,1.991-0.42,2.959l-0.58,2.017c-0.109,0.376,0.109,0.769,0.484,0.877c0.066,0.019,0.133,0.028,0.197,0.028
	C132.473,74.073,132.756,73.871,132.846,73.561z M131.362,61.957c0.314-0.233,0.381-0.677,0.148-0.991
	c-1.338-1.808-3.143-3.203-5.223-4.035c-0.363-0.146-0.775,0.029-0.922,0.395c-0.145,0.363,0.031,0.775,0.395,0.921
	c1.836,0.734,3.43,1.967,4.611,3.563c0.139,0.188,0.354,0.287,0.57,0.287C131.088,62.096,131.235,62.051,131.362,61.957z
	 M129.694,94.241c0-0.392-0.316-0.708-0.709-0.708h-1.893l0.525-1.819c0.107-0.377-0.109-0.77-0.486-0.878
	c-0.375-0.107-0.768,0.108-0.877,0.485l-0.785,2.724c-0.061,0.214-0.018,0.444,0.115,0.623c0.135,0.178,0.344,0.282,0.566,0.282
	h2.834C129.377,94.95,129.694,94.633,129.694,94.241z M115.766,203.139c0-0.391-0.316-0.707-0.707-0.707H109.5
	c-0.391,0-0.709,0.316-0.709,0.707c0,0.393,0.318,0.709,0.709,0.709h5.559C115.45,203.848,115.766,203.531,115.766,203.139z
	 M104.651,203.139c0-0.391-0.316-0.707-0.707-0.707h-5.559c-0.391,0-0.707,0.316-0.707,0.707c0,0.393,0.316,0.709,0.707,0.709h5.559
	C104.334,203.848,104.651,203.531,104.651,203.139z M93.538,203.139c0-0.391-0.318-0.707-0.709-0.707H87.27
	c-0.391,0-0.707,0.316-0.707,0.707c0,0.393,0.316,0.709,0.707,0.709h5.559C93.219,203.848,93.538,203.531,93.538,203.139z
	 M82.422,203.139c0-0.391-0.317-0.707-0.709-0.707h-5.558c-0.392,0-0.708,0.316-0.708,0.707c0,0.393,0.316,0.709,0.708,0.709h5.558
	C82.104,203.848,82.422,203.531,82.422,203.139z M71.307,203.139c0-0.391-0.317-0.707-0.709-0.707H65.04
	c-0.392,0-0.708,0.316-0.708,0.707c0,0.393,0.316,0.709,0.708,0.709h5.558C70.989,203.848,71.307,203.531,71.307,203.139z
	 M120.674,203.746c1.895-0.164,3.775-0.523,5.59-1.072c0.375-0.113,0.586-0.508,0.473-0.883c-0.111-0.375-0.508-0.586-0.883-0.473
	c-1.721,0.518-3.504,0.859-5.303,1.016c-0.389,0.033-0.678,0.377-0.645,0.766c0.031,0.369,0.342,0.648,0.705,0.648
	C120.631,203.748,120.653,203.748,120.674,203.746z M60.197,202.955c0.057-0.387-0.211-0.746-0.598-0.805
	c-1.778-0.264-3.538-0.715-5.23-1.344c-0.365-0.137-0.774,0.051-0.911,0.418c-0.136,0.365,0.051,0.773,0.418,0.91
	c1.784,0.662,3.64,1.141,5.516,1.418c0.035,0.006,0.07,0.008,0.104,0.008C59.842,203.561,60.145,203.309,60.197,202.955z
	 M131.514,200.477c1.664-0.908,3.242-1.994,4.691-3.225c0.297-0.254,0.334-0.701,0.08-1c-0.254-0.297-0.701-0.334-0.998-0.08
	c-1.375,1.168-2.873,2.197-4.451,3.061c-0.344,0.188-0.471,0.617-0.283,0.961c0.129,0.236,0.371,0.369,0.623,0.369
	C131.292,200.563,131.407,200.535,131.514,200.477z M49.748,199.391c0.209-0.33,0.109-0.768-0.223-0.977
	c-1.525-0.957-2.959-2.076-4.264-3.322c-0.282-0.27-0.73-0.26-1.002,0.023c-0.27,0.281-0.26,0.73,0.023,1.002
	c1.373,1.313,2.883,2.488,4.488,3.498c0.117,0.072,0.248,0.107,0.377,0.107C49.383,199.723,49.613,199.605,49.748,199.391z
	 M140.143,193.145c1.168-1.5,2.186-3.123,3.023-4.824c0.172-0.352,0.027-0.775-0.324-0.949c-0.352-0.172-0.775-0.027-0.947,0.324
	c-0.795,1.615-1.76,3.154-2.869,4.576c-0.242,0.309-0.188,0.754,0.121,0.994c0.131,0.102,0.283,0.15,0.436,0.15
	C139.793,193.416,140.002,193.322,140.143,193.145z M145.137,182.98c0.469-1.836,0.748-3.73,0.83-5.631
	c0.018-0.393-0.285-0.723-0.676-0.74c-0.383-0.021-0.723,0.287-0.74,0.678c-0.078,1.805-0.344,3.602-0.787,5.342
	c-0.096,0.379,0.133,0.766,0.512,0.861c0.059,0.016,0.117,0.023,0.176,0.023C144.768,183.514,145.055,183.301,145.137,182.98z
	 M145.995,171.762v-5.56c0-0.391-0.316-0.708-0.709-0.708c-0.391,0-0.709,0.317-0.709,0.708v5.56c0,0.391,0.318,0.707,0.709,0.707
	C145.678,172.469,145.995,172.152,145.995,171.762z M145.995,160.646v-5.558c0-0.392-0.316-0.709-0.709-0.709
	c-0.391,0-0.709,0.317-0.709,0.709v5.558c0,0.392,0.318,0.708,0.709,0.708C145.678,161.354,145.995,161.037,145.995,160.646z
	 M145.995,149.53v-5.558c0-0.392-0.316-0.708-0.709-0.708c-0.391,0-0.709,0.316-0.709,0.708v5.558c0,0.392,0.318,0.709,0.709,0.709
	C145.678,150.239,145.995,149.922,145.995,149.53z M145.995,138.415v-5.558c0-0.392-0.316-0.708-0.709-0.708
	c-0.391,0-0.709,0.316-0.709,0.708v5.558c0,0.392,0.318,0.709,0.709,0.709C145.678,139.124,145.995,138.807,145.995,138.415z
	 M145.995,127.3v-5.558c0-0.392-0.316-0.708-0.709-0.708c-0.391,0-0.709,0.316-0.709,0.708v5.558c0,0.392,0.318,0.709,0.709,0.709
	C145.678,128.009,145.995,127.691,145.995,127.3z M145.995,116.185v-5.558c0-0.392-0.316-0.708-0.709-0.708
	c-0.391,0-0.709,0.316-0.709,0.708v5.558c0,0.392,0.318,0.709,0.709,0.709C145.678,116.894,145.995,116.576,145.995,116.185z
	 M145.307,105.778c0.391-0.02,0.691-0.353,0.672-0.744c-0.102-1.968-0.689-3.9-1.701-5.591c-0.201-0.335-0.635-0.443-0.973-0.243
	c-0.336,0.201-0.445,0.636-0.244,0.972c0.895,1.492,1.414,3.198,1.502,4.935c0.02,0.379,0.332,0.673,0.707,0.673
	C145.282,105.779,145.295,105.779,145.307,105.778z M140.399,96.271c0.203-0.334,0.098-0.77-0.236-0.974
	c-1.682-1.025-3.611-1.629-5.578-1.743c-0.402-0.021-0.727,0.275-0.748,0.666c-0.023,0.391,0.275,0.726,0.666,0.749
	c1.734,0.102,3.438,0.633,4.922,1.538c0.115,0.07,0.242,0.104,0.369,0.104C140.032,96.611,140.266,96.49,140.399,96.271z" class="color c1"/>
</svg>