<svg version="1.1" id="图层_1" x="0px" y="0px" width="121.737px" height="95.549px" viewBox="0 0 121.737 95.549" enable-background="new 0 0 121.737 95.549" xml:space="preserve" xmlns="http://www.w3.org/2000/svg" xmlns:xlink="http://www.w3.org/1999/xlink" xmlns:xml="http://www.w3.org/XML/1998/namespace">
  <path fill="#232323" d="M108.39,12.898c1.102,0,1.994,0.893,1.994,1.993c0,1.102-0.893,1.994-1.994,1.994
	c-1.101,0-1.993-0.893-1.993-1.994C106.396,13.791,107.289,12.898,108.39,12.898z M25.677,91.562c-1.1,0-1.991,0.895-1.991,1.99
	c0,1.103,0.892,1.997,1.991,1.997c1.101,0,1.992-0.895,1.992-1.997C27.669,92.456,26.777,91.562,25.677,91.562z M117.751,32.106
	c0,1.101,0.892,1.993,1.993,1.993c1.101,0,1.993-0.893,1.993-1.993c0-1.102-0.893-1.994-1.993-1.994
	C118.643,30.112,117.751,31.005,117.751,32.106z M79.224,2.93c0,1.618,1.312,2.931,2.93,2.931c1.619,0,2.931-1.313,2.931-2.931
	S83.772,0,82.153,0C80.535,0,79.224,1.312,79.224,2.93z M81.525,32.191c0,1.62,1.313,2.932,2.933,2.932s2.932-1.312,2.932-2.932
	c0-1.619-1.313-2.932-2.932-2.932S81.525,30.572,81.525,32.191z M0,65.916c0,1.618,1.312,2.931,2.93,2.931
	c1.619,0,2.931-1.313,2.931-2.931s-1.312-2.931-2.931-2.931C1.312,62.985,0,64.298,0,65.916z" class="color c1"/>
</svg>