<svg version="1.1" id="图层_1" x="0px" y="0px" width="79.223px" height="78.592px" viewBox="0 0 79.223 78.592" enable-background="new 0 0 79.223 78.592" xml:space="preserve" xmlns="http://www.w3.org/2000/svg" xmlns:xlink="http://www.w3.org/1999/xlink" xmlns:xml="http://www.w3.org/XML/1998/namespace">
  <path fill="#002F4F" d="M0.213,2.385C0.213,1.068,1.279,0,2.596,0C3.914,0,4.98,1.068,4.98,2.385c0,1.317-1.066,2.384-2.385,2.384
	C1.279,4.769,0.213,3.702,0.213,2.385z M2.385,73.489C1.068,73.489,0,74.558,0,75.875c0,1.315,1.068,2.384,2.385,2.384
	S4.77,77.19,4.77,75.875C4.77,74.558,3.701,73.489,2.385,73.489z M76.84,73.824c-1.318,0-2.385,1.067-2.385,2.384
	c0,1.317,1.066,2.384,2.385,2.384c1.316,0,2.383-1.066,2.383-2.384C79.223,74.892,78.156,73.824,76.84,73.824z M76.84,4.769
	c1.316,0,2.383-1.066,2.383-2.384C79.223,1.068,78.156,0,76.84,0c-1.318,0-2.385,1.068-2.385,2.385
	C74.455,3.702,75.521,4.769,76.84,4.769z" class="color c1"/>
</svg>