<svg version="1.1" id="图层_1" x="0px" y="0px" width="173.781px" height="118.854px" viewBox="0 0 173.781 118.854" enable-background="new 0 0 173.781 118.854" xml:space="preserve" xmlns:xml="http://www.w3.org/XML/1998/namespace" xmlns="http://www.w3.org/2000/svg" xmlns:xlink="http://www.w3.org/1999/xlink">
  <path fill="#F89B02" d="M17.666,6.134c0.003-7.057,6.264-8.674,12.752-1.406c0.46,0.516,0.616,1.236,0.418,1.898l0,0
	c-0.489,1.63-2.127,2.65-3.798,2.331c-2.403-0.461-4.924-0.727-7.519-0.869C18.483,8.031,17.666,7.172,17.666,6.134z M3.843,61.005
	C1.721,61.005,0,62.273,0,63.837c0,1.563,1.721,2.832,3.843,2.832c2.122,0,3.843-1.269,3.843-2.832
	C7.686,62.273,5.966,61.005,3.843,61.005z M163.635,110.359c-2.346,0-4.248,1.902-4.248,4.248c0,2.347,1.902,4.248,4.248,4.248
	s4.248-1.901,4.248-4.248C167.882,112.26,165.98,110.359,163.635,110.359z M165.758,62.222c-0.552,2.915,0.223,5.865,1.793,8.836
	c0.76,1.438,2.784,2.146,4.856,1.674l0,0c0.94-0.214,1.551-0.978,1.329-1.672c-0.851-2.662-1.233-5.67-0.76-9.314
	c0.037-0.286,0.034-0.581-0.053-0.851c-0.672-2.084-2.466-2.347-4.134-1.796C167.158,59.639,166.008,60.898,165.758,62.222z" class="color c1"/>
</svg>