<svg version="1.1" id="图层_1" x="0px" y="0px" width="179.994px" height="180px" viewBox="0 0 179.994 180" enable-background="new 0 0 179.994 180" xml:space="preserve" xmlns="http://www.w3.org/2000/svg" xmlns:xlink="http://www.w3.org/1999/xlink" xmlns:xml="http://www.w3.org/XML/1998/namespace">
  <path fill="#B28247" d="M102.501,163.66c1.634-1.262,3.257-2.535,5.011-3.676c-1.142,1.752-2.415,3.375-3.677,5.01
	c-1.29,1.605-2.601,3.191-3.957,4.73c-2.684,3.105-5.512,6.068-8.42,8.953L90.124,180l-1.306-1.322
	c-2.659-2.693-5.255-5.449-7.717-8.338c-0.614-0.723-1.249-1.426-1.84-2.174c-0.598-0.74-1.207-1.469-1.793-2.219
	c-1.164-1.514-2.327-3.025-3.384-4.645c1.617,1.057,3.13,2.221,4.643,3.385c0.752,0.586,1.479,1.197,2.221,1.793
	c0.746,0.59,1.449,1.225,2.171,1.84c2.421,2.061,4.734,4.229,7.007,6.438c2.476-2.453,5-4.857,7.643-7.141
	C99.31,166.26,100.896,164.949,102.501,163.66z M12.247,97.361c-2.24-2.597-4.597-5.078-7.004-7.509
	c2.186-2.25,4.331-4.539,6.37-6.935c1.241-1.414,2.423-2.885,3.599-4.361c1.151-1.5,2.303-3,3.347-4.609
	c-1.607,1.045-3.107,2.195-4.608,3.35c-1.476,1.176-2.947,2.355-4.359,3.598c-2.867,2.439-5.6,5.01-8.269,7.648L0,89.852
	l1.322,1.332c2.84,2.861,5.761,5.643,8.819,8.281c1.518,1.334,3.079,2.621,4.663,3.889c1.609,1.238,3.21,2.488,4.94,3.609
	c-1.12-1.729-2.372-3.328-3.611-4.939C14.868,100.441,13.579,98.879,12.247,97.361z M178.672,88.82
	c-2.53-2.543-5.16-4.99-7.891-7.332c-1.361-1.178-2.778-2.297-4.196-3.416c-1.454-1.084-2.896-2.18-4.46-3.152
	c0.972,1.564,2.066,3.008,3.152,4.459c1.12,1.418,2.237,2.838,3.416,4.197c1.942,2.265,3.974,4.443,6.056,6.571
	c-2.016,2.072-3.986,4.192-5.87,6.398c-1.145,1.334-2.237,2.721-3.326,4.107c-0.526,0.715-1.068,1.41-1.578,2.141
	c-0.515,0.725-1.022,1.457-1.495,2.223c0.763-0.475,1.495-0.982,2.222-1.496c0.729-0.51,1.426-1.053,2.141-1.578
	c1.388-1.09,2.773-2.182,4.108-3.326c2.671-2.285,5.24-4.672,7.722-7.148l1.322-1.318L178.672,88.82z M78.564,15.234l2.205-1.773
	c0.739-0.588,1.435-1.217,2.154-1.824c2.396-2.042,4.685-4.19,6.931-6.381c0.914,0.896,1.823,1.798,2.761,2.672
	c1.391,1.287,2.781,2.574,4.237,3.795c0.728,0.613,1.435,1.244,2.174,1.842l2.228,1.791c1.522,1.156,3.035,2.32,4.67,3.363
	c-1.045-1.635-2.208-3.146-3.364-4.67l-1.791-2.225c-0.598-0.742-1.229-1.449-1.842-2.174c-1.223-1.457-2.509-2.848-3.794-4.24
	c-1.296-1.385-2.615-2.742-3.952-4.082L89.853,0l-1.319,1.328c-2.647,2.66-5.221,5.391-7.661,8.256
	c-0.607,0.719-1.236,1.414-1.824,2.154l-1.774,2.207c-0.565,0.758-1.153,1.496-1.707,2.27c-0.557,0.77-1.108,1.545-1.625,2.354
	c0.808-0.518,1.583-1.068,2.352-1.627C77.066,16.389,77.806,15.803,78.564,15.234z" class="color c1"/>
</svg>