<svg version="1.1" id="图层_1" x="0px" y="0px" width="92.734px" height="88.276px" viewBox="0 0 92.734 88.276" enable-background="new 0 0 92.734 88.276" xml:space="preserve" xmlns="http://www.w3.org/2000/svg" xmlns:xlink="http://www.w3.org/1999/xlink" xmlns:xml="http://www.w3.org/XML/1998/namespace">
  <path fill="#A7A7A7" d="M32.1,87.83c0,0.246-0.399,0.446-0.892,0.446c-0.492,0-0.892-0.2-0.892-0.446
	c0-0.246,0.399-0.446,0.892-0.446C31.701,87.384,32.1,87.584,32.1,87.83z M82.48,15.158c-0.246,0-0.446,0.399-0.446,0.892
	c0,0.492,0.2,0.892,0.446,0.892s0.446-0.399,0.446-0.892C82.926,15.558,82.726,15.158,82.48,15.158z M66.43,69.551
	c-0.246,0-0.446,0.399-0.446,0.892c0,0.492,0.2,0.892,0.446,0.892c0.246,0,0.446-0.399,0.446-0.892
	C66.876,69.95,66.676,69.551,66.43,69.551z M77.576,62.417c-0.492,0-0.892,0.2-0.892,0.446s0.399,0.446,0.892,0.446
	c0.492,0,0.892-0.2,0.892-0.446S78.068,62.417,77.576,62.417z M74.455,74.009c-0.246,0-0.446,0.399-0.446,0.892
	c0,0.492,0.2,0.892,0.446,0.892s0.446-0.399,0.446-0.892C74.901,74.408,74.701,74.009,74.455,74.009z M0.446,0
	C0.2,0,0,0.599,0,1.338c0,0.739,0.2,1.337,0.446,1.337s0.446-0.599,0.446-1.337C0.892,0.599,0.692,0,0.446,0z M90.951,19.617
	c-0.985,0-1.783,0.399-1.783,0.892c0,0.492,0.798,0.892,1.783,0.892s1.783-0.399,1.783-0.892
	C92.734,20.016,91.936,19.617,90.951,19.617z M71.78,8.917c-0.246,0-0.446,0.399-0.446,0.892s0.2,0.892,0.446,0.892
	c0.246,0,0.446-0.399,0.446-0.892S72.026,8.917,71.78,8.917z M8.025,16.05c-0.492,0-0.892,0.2-0.892,0.446s0.399,0.446,0.892,0.446
	c0.492,0,0.892-0.2,0.892-0.446S8.518,16.05,8.025,16.05z M11.146,33.884c-0.246,0-0.446,0.399-0.446,0.892
	c0,0.492,0.2,0.892,0.446,0.892c0.246,0,0.446-0.399,0.446-0.892C11.592,34.283,11.392,33.884,11.146,33.884z M14.713,47.259
	c-0.246,0-0.446,0.798-0.446,1.783c0,0.985,0.2,1.783,0.446,1.783s0.446-0.798,0.446-1.783
	C15.159,48.057,14.959,47.259,14.713,47.259z M59.296,42.8c-0.246,0-0.446,0.399-0.446,0.892c0,0.492,0.2,0.892,0.446,0.892
	s0.446-0.399,0.446-0.892C59.742,43.2,59.543,42.8,59.296,42.8z M66.43,35.667c-0.246,0-0.446,0.2-0.446,0.446
	s0.2,0.446,0.446,0.446c0.246,0,0.446-0.2,0.446-0.446S66.676,35.667,66.43,35.667z" class="color c1"/>
</svg>