<svg version="1.1" id="图层_1" x="0px" y="0px" width="204.697px" height="176.343px" viewBox="0 0 204.697 176.343" enable-background="new 0 0 204.697 176.343" xml:space="preserve" xmlns="http://www.w3.org/2000/svg" xmlns:xlink="http://www.w3.org/1999/xlink" xmlns:xml="http://www.w3.org/XML/1998/namespace">
  <g>
    <path fill="#1A3666" d="M149.161,107.032c-2.726,0-4.943,2.227-4.943,4.963c0,2.737,2.218,4.964,4.943,4.964
		c2.725,0,4.942-2.227,4.942-4.964C154.104,109.259,151.886,107.032,149.161,107.032z M149.161,115.981
		c-2.188,0-3.967-1.788-3.967-3.986c0-2.197,1.779-3.986,3.967-3.986c2.187,0,3.966,1.789,3.966,3.986
		C153.127,114.193,151.348,115.981,149.161,115.981z" class="color c1"/>
    <path fill="#1A3666" d="M183.554,83.298c-0.191-0.191-0.5-0.191-0.691,0c-0.19,0.19-0.19,0.499,0,0.69l6.301,6.3
		c0.096,0.096,0.221,0.144,0.346,0.144s0.25-0.048,0.346-0.144c0.191-0.19,0.191-0.499,0-0.69L183.554,83.298z" class="color c1"/>
    <path fill="#1A3666" d="M198.255,97.998c-0.191-0.19-0.5-0.19-0.691,0c-0.189,0.19-0.189,0.5,0,0.69l6.301,6.3
		c0.094,0.096,0.219,0.143,0.344,0.143s0.25-0.047,0.346-0.143c0.191-0.191,0.191-0.5,0-0.69L198.255,97.998z" class="color c1"/>
    <path fill="#1A3666" d="M197.909,90.432c0.125,0,0.25-0.048,0.346-0.144l6.299-6.3c0.191-0.191,0.191-0.5,0-0.69
		c-0.191-0.191-0.5-0.191-0.689,0l-6.301,6.3c-0.189,0.191-0.189,0.5,0,0.69C197.659,90.384,197.784,90.432,197.909,90.432z" class="color c1"/>
    <path fill="#1A3666" d="M189.163,97.998l-6.301,6.3c-0.19,0.19-0.19,0.499,0,0.69c0.096,0.096,0.221,0.143,0.346,0.143
		s0.25-0.047,0.346-0.143l6.301-6.3c0.191-0.19,0.191-0.5,0-0.69S189.354,97.808,189.163,97.998z" class="color c1"/>
    <path fill="#1A3666" d="M127.127,142.694c-0.191-0.19-0.5-0.19-0.691,0c-0.19,0.191-0.19,0.5,0,0.691l6.3,6.299
		c0.096,0.096,0.221,0.144,0.346,0.144s0.25-0.048,0.345-0.144c0.191-0.19,0.191-0.5,0-0.69L127.127,142.694z" class="color c1"/>
    <path fill="#1A3666" d="M141.826,157.395c-0.19-0.191-0.5-0.191-0.69,0c-0.191,0.19-0.191,0.5,0,0.69l6.3,6.301
		c0.096,0.095,0.221,0.143,0.346,0.143s0.25-0.048,0.346-0.143c0.19-0.191,0.19-0.5,0-0.691L141.826,157.395z" class="color c1"/>
    <path fill="#1A3666" d="M147.436,142.694l-6.3,6.3c-0.191,0.19-0.191,0.5,0,0.69c0.095,0.096,0.22,0.144,0.345,0.144
		s0.25-0.048,0.346-0.144l6.301-6.299c0.19-0.191,0.19-0.5,0-0.691C147.936,142.504,147.627,142.504,147.436,142.694z" class="color c1"/>
    <path fill="#1A3666" d="M132.735,157.395l-6.3,6.3c-0.19,0.191-0.19,0.5,0,0.691c0.096,0.095,0.221,0.143,0.346,0.143
		s0.25-0.048,0.346-0.143l6.299-6.301c0.191-0.19,0.191-0.5,0-0.69C133.235,157.203,132.926,157.203,132.735,157.395z" class="color c1"/>
    <path fill="#1A3666" d="M186.771,55.568c0-2.736-2.218-4.963-4.942-4.963c-2.726,0-4.943,2.227-4.943,4.963
		c0,2.737,2.218,4.964,4.943,4.964C184.554,60.532,186.771,58.306,186.771,55.568z M181.829,59.555
		c-2.188,0-3.967-1.788-3.967-3.986c0-2.197,1.779-3.986,3.967-3.986c2.187,0,3.966,1.789,3.966,3.986
		C185.795,57.767,184.016,59.555,181.829,59.555z" class="color c1"/>
    <path fill="#1A3666" d="M162.764,0.143c-0.19-0.19-0.499-0.19-0.69,0c-0.19,0.19-0.19,0.5,0,0.69l6.301,6.3
		c0.096,0.096,0.221,0.143,0.346,0.143s0.249-0.047,0.345-0.143c0.191-0.191,0.191-0.5,0-0.69L162.764,0.143z" class="color c1"/>
    <path fill="#1A3666" d="M183.419,21.977c0.125,0,0.25-0.048,0.346-0.144c0.19-0.19,0.19-0.5,0-0.69l-6.3-6.301
		c-0.191-0.19-0.5-0.19-0.69,0c-0.191,0.191-0.191,0.5,0,0.69l6.299,6.301C183.169,21.929,183.294,21.977,183.419,21.977z" class="color c1"/>
    <path fill="#1A3666" d="M177.119,7.275c0.125,0,0.25-0.047,0.346-0.143l6.3-6.3c0.19-0.19,0.19-0.5,0-0.69
		c-0.191-0.19-0.5-0.19-0.691,0l-6.299,6.3c-0.191,0.19-0.191,0.499,0,0.69C176.869,7.229,176.994,7.275,177.119,7.275z" class="color c1"/>
    <path fill="#1A3666" d="M168.374,14.842l-6.301,6.301c-0.19,0.19-0.19,0.5,0,0.69c0.096,0.096,0.221,0.144,0.346,0.144
		s0.25-0.048,0.345-0.144l6.301-6.301c0.191-0.19,0.191-0.499,0-0.69C168.874,14.651,168.564,14.651,168.374,14.842z" class="color c1"/>
    <path fill="#1A3666" d="M36.307,78.311c2.725,0,4.942-2.227,4.942-4.963c0-2.737-2.218-4.964-4.942-4.964
		c-2.726,0-4.943,2.227-4.943,4.964C31.363,76.084,33.581,78.311,36.307,78.311z M36.307,69.361c2.187,0,3.966,1.788,3.966,3.986
		c0,2.197-1.779,3.986-3.966,3.986c-2.188,0-3.967-1.789-3.967-3.986C32.34,71.149,34.119,69.361,36.307,69.361z" class="color c1"/>
    <path fill="#1A3666" d="M0.834,28.335c-0.191-0.19-0.5-0.19-0.691,0c-0.19,0.19-0.19,0.5,0,0.69l6.3,6.3
		c0.096,0.096,0.221,0.143,0.346,0.143s0.25-0.047,0.345-0.143c0.191-0.191,0.191-0.5,0-0.69L0.834,28.335z" class="color c1"/>
    <path fill="#1A3666" d="M15.683,43.184c-0.19-0.191-0.5-0.191-0.69,0c-0.19,0.19-0.19,0.5,0,0.69l6.3,6.301
		c0.095,0.095,0.22,0.143,0.345,0.143s0.25-0.048,0.346-0.143c0.19-0.191,0.19-0.5,0-0.691L15.683,43.184z" class="color c1"/>
    <path fill="#1A3666" d="M21.292,28.335l-6.3,6.3c-0.19,0.19-0.19,0.499,0,0.69c0.096,0.096,0.221,0.143,0.346,0.143
		s0.25-0.047,0.345-0.143l6.3-6.3c0.19-0.19,0.19-0.5,0-0.69S21.482,28.145,21.292,28.335z" class="color c1"/>
    <path fill="#1A3666" d="M6.442,43.184l-6.3,6.3c-0.19,0.191-0.19,0.5,0,0.691c0.096,0.095,0.221,0.143,0.346,0.143
		s0.25-0.048,0.346-0.143l6.299-6.301c0.191-0.19,0.191-0.5,0-0.69C6.942,42.992,6.633,42.992,6.442,43.184z" class="color c1"/>
    <path fill="#1A3666" d="M35.062,110.026c-0.191-0.19-0.5-0.19-0.69,0c-0.191,0.191-0.191,0.5,0,0.69l6.299,6.3
		c0.096,0.096,0.221,0.144,0.346,0.144s0.25-0.048,0.346-0.144c0.19-0.19,0.19-0.5,0-0.69L35.062,110.026z" class="color c1"/>
    <path fill="#1A3666" d="M40.67,124.727l-6.299,6.3c-0.191,0.191-0.191,0.5,0,0.69c0.095,0.096,0.22,0.144,0.345,0.144
		s0.25-0.048,0.346-0.144l6.3-6.3c0.19-0.191,0.19-0.5,0-0.69C41.17,124.535,40.861,124.535,40.67,124.727z" class="color c1"/>
    <path fill="#1A3666" d="M49.761,124.727c-0.19-0.191-0.5-0.191-0.69,0c-0.191,0.19-0.191,0.499,0,0.69l6.301,6.3
		c0.095,0.096,0.22,0.144,0.345,0.144s0.25-0.048,0.346-0.144c0.19-0.19,0.19-0.499,0-0.69L49.761,124.727z" class="color c1"/>
    <path fill="#1A3666" d="M55.371,110.026l-6.301,6.3c-0.191,0.19-0.191,0.5,0,0.69c0.096,0.096,0.221,0.144,0.346,0.144
		c0.124,0,0.249-0.048,0.345-0.144l6.301-6.3c0.19-0.19,0.19-0.499,0-0.69C55.87,109.836,55.562,109.836,55.371,110.026z" class="color c1"/>
    <path fill="#1A3666" d="M36.307,166.416c-2.726,0-4.943,2.227-4.943,4.963c0,2.737,2.218,4.964,4.943,4.964
		c2.725,0,4.942-2.227,4.942-4.964C41.249,168.643,39.031,166.416,36.307,166.416z M36.307,175.365
		c-2.188,0-3.967-1.788-3.967-3.986c0-2.197,1.779-3.986,3.967-3.986c2.187,0,3.966,1.789,3.966,3.986
		C40.272,173.577,38.493,175.365,36.307,175.365z" class="color c1"/>
    <path fill="#1A3666" d="M63.035,29.816c-2.726,0-4.943,2.227-4.943,4.963c0,2.737,2.218,4.963,4.943,4.963s4.943-2.226,4.943-4.963
		C67.979,32.043,65.761,29.816,63.035,29.816z M63.035,38.766c-2.188,0-3.966-1.788-3.966-3.986c0-2.197,1.778-3.986,3.966-3.986
		s3.967,1.789,3.967,3.986C67.002,36.978,65.223,38.766,63.035,38.766z" class="color c1"/>
    <path fill="#1A3666" d="M80.854,77.334c-2.725,0-4.942,2.227-4.942,4.963s2.218,4.963,4.942,4.963c2.726,0,4.943-2.227,4.943-4.963
		S83.579,77.334,80.854,77.334z M80.854,86.283c-2.187,0-3.966-1.788-3.966-3.986s1.779-3.986,3.966-3.986
		c2.188,0,3.967,1.788,3.967,3.986S83.041,86.283,80.854,86.283z" class="color c1"/>
  </g>
</svg>