<svg version="1.1" id="图层_1" x="0px" y="0px" width="300px" height="158.667px" viewBox="0 0 300 158.667" enable-background="new 0 0 300 158.667" xml:space="preserve" xmlns="http://www.w3.org/2000/svg" xmlns:xlink="http://www.w3.org/1999/xlink" xmlns:xml="http://www.w3.org/XML/1998/namespace">
  <path fill="#FFFFFF" d="M8,14.999c0,2.209-1.791,4-4,4s-4-1.791-4-4s1.791-4,4-4S8,12.79,8,14.999z M274,0
	c-2.576,0-4.666,2.089-4.666,4.667c0,2.577,2.09,4.666,4.666,4.666c2.578,0,4.668-2.089,4.668-4.666C278.667,2.089,276.578,0,274,0z
	 M246.333,27.333c-0.92,0-1.666,0.746-1.666,1.666c0,0.921,0.746,1.667,1.666,1.667S248,29.92,248,28.999
	C248,28.079,247.253,27.333,246.333,27.333z M195.333,45.333c-1.473,0-2.666,1.193-2.666,2.666s1.193,2.667,2.666,2.667
	S198,49.472,198,47.999S196.806,45.333,195.333,45.333z M173,25.333c-0.92,0-1.666,0.746-1.666,1.666
	c0,0.921,0.746,1.667,1.666,1.667c0.922,0,1.668-0.746,1.668-1.667C174.667,26.079,173.921,25.333,173,25.333z M148.334,38
	c-1.289,0-2.334,1.045-2.334,2.333c0,1.289,1.045,2.334,2.334,2.334c1.288,0,2.333-1.045,2.333-2.334
	C150.667,39.045,149.622,38,148.334,38z M127.668,28.666c-1.289,0-2.334,1.045-2.334,2.333c0,1.289,1.045,2.334,2.334,2.334
	c1.288,0,2.333-1.045,2.333-2.334C130.001,29.711,128.956,28.666,127.668,28.666z M298.333,94c-0.92,0-1.666,0.746-1.666,1.667
	c0,0.92,0.746,1.666,1.666,1.666S300,96.587,300,95.667C300,94.746,299.253,94,298.333,94z M142.667,120.666
	c-1.473,0-2.667,1.194-2.667,2.667s1.194,2.667,2.667,2.667s2.667-1.194,2.667-2.667S144.14,120.666,142.667,120.666z M54.334,104
	c-1.657,0-3,1.343-3,3s1.343,3,3,3s3-1.343,3-3S55.991,104,54.334,104z M226.667,138c-1.842,0-3.334,1.492-3.334,3.333
	c0,1.842,1.492,3.334,3.334,3.334s3.334-1.492,3.334-3.334C230.001,139.492,228.509,138,226.667,138z M103,154
	c-1.288,0-2.333,1.045-2.333,2.333c0,1.289,1.045,2.334,2.333,2.334c1.289,0,2.334-1.045,2.334-2.334
	C105.334,155.045,104.289,154,103,154z M7.334,96c-2.209,0-4,1.791-4,4s1.791,4,4,4s4-1.791,4-4S9.543,96,7.334,96z" class="color c1"/>
</svg>