<svg version="1.1" id="图层_1" x="0px" y="0px" width="34.581px" height="13.779px" viewBox="0 0 34.581 13.779" enable-background="new 0 0 34.581 13.779" xml:space="preserve" xmlns="http://www.w3.org/2000/svg" xmlns:xlink="http://www.w3.org/1999/xlink" xmlns:xml="http://www.w3.org/XML/1998/namespace">
  <path fill="#FFFFFF" d="M2.473,5.036C1.716,4.93,4.06,5.251,2.473,5.036L2.473,5.036z M32.597,10.222
	c-1.155-0.438-2.344-0.697-3.514-1.043c-1.106-0.323-2.186-0.754-3.233-1.275c-0.825-0.414-1.828-1.425-2.689-1.615
	c-1.851-0.409-3.81,0.753-5.659,0.824c-2.287,0.086-4.648-0.108-6.812-1.11c0.625,0.424,1.774-0.795,1.977-2.114
	c0.231-1.496,0.019-3.382-1.601-3.836C9.779-0.298,8.454,1.19,9.444,2.433c0.802,1.015,2.376,0.482,2.144-0.104
	c1.769,4.585-7.414,2.936-9.115,2.707C1.716,4.93-0.46,4.691,0.087,5.213C1.43,6.476,5.729,6.468,7.542,6.762
	c1.266,0.208,4.876,2.566,3.198,4.676c0.212-0.218-1.392-2.103-2.545-0.743c-0.96,1.14,0.154,2.877,1.348,3.059
	c1.393,0.213,2.507-0.908,2.698-2.513c0.217-1.851-0.513-2.776-1.511-3.641c2.254,0.107,4.458,1.104,6.525,2.124
	c1.579,0.779,3.315,2.194,4.975,2.629c1.792,0.469,4.172-0.531,5.973-0.759c1.061-0.137,5.083,0.249,5.79,0.091
	C35.853,11.275,32.716,10.27,32.597,10.222z" class="color c1"/>
</svg>