<svg version="1.1" id="图层_1" x="0px" y="0px" width="277.63px" height="263.857px" viewBox="0 0 277.63 263.857" enable-background="new 0 0 277.63 263.857" xml:space="preserve" xmlns="http://www.w3.org/2000/svg" xmlns:xlink="http://www.w3.org/1999/xlink" xmlns:xml="http://www.w3.org/XML/1998/namespace">
  <path fill="#FCD3C1" d="M225.133,231.375c-11.262,9.239-18.955,20.305-32.703,26.559c-22.332,10.159-43.917,5.732-66.125-1.922
	c-17.245-5.943-35.687-8.678-50.479-19.796c-13.074-9.825-25.858-20.034-39.036-29.72c-11.402-8.381-23.528-15.626-30.505-28.494
	c-6.132-11.309-7.265-24.791-5.577-37.543c1.688-12.753,6.017-24.985,10.32-37.108c3.287-9.262,4.351-19.662,8.602-28.324
	C24.697,64.7,33.334,55.38,41.84,47.809c11.138-9.911,23.522-18.38,34.391-28.19C97.3,0.599,131.625-2.929,158.682,2.015
	c19.127,3.495,38.947,11.185,55.234,21.894c10.035,6.597,14.146,17.406,20.068,27.272c7.484,12.468,19.24,17.028,29.25,26.802
	c12.883,12.581,16.426,30.352,13.361,47.572c-6.932,38.936-16.133,79.224-49.137,103.991
	C226.664,230.145,225.891,230.754,225.133,231.375z" class="color c1"/>
</svg>