<svg version="1.1" id="图层_1" x="0px" y="0px" width="145.852px" height="93.094px" viewBox="0 0 145.852 93.094" enable-background="new 0 0 145.852 93.094" xml:space="preserve" xmlns="http://www.w3.org/2000/svg" xmlns:xlink="http://www.w3.org/1999/xlink" xmlns:xml="http://www.w3.org/XML/1998/namespace">
  <path fill="#111010" d="M114.729,26.236c0,0.878-0.713,1.586-1.588,1.586l0,0h-1.064v1.068c0,0.877-0.713,1.588-1.59,1.588
	c-0.875,0-1.588-0.713-1.588-1.588v-1.072h-1.07c-0.877,0-1.588-0.713-1.588-1.591s0.713-1.587,1.588-1.587l0,0h1.068v-1.064
	c0-0.879,0.713-1.589,1.588-1.589s1.588,0.713,1.588,1.589v1.069h1.068C114.02,24.646,114.729,25.355,114.729,26.236z
	 M101.307,87.262h-1.068v-1.07c0-0.877-0.713-1.588-1.588-1.588c-0.877,0-1.588,0.709-1.588,1.588v1.064h-1.068l0,0
	c-0.875,0-1.588,0.709-1.588,1.586c0,0.879,0.711,1.592,1.588,1.592h1.07v1.072c0,0.875,0.711,1.588,1.588,1.588
	s1.588-0.711,1.588-1.588v-1.068h1.066l0,0c0.875,0,1.588-0.707,1.588-1.586S102.184,87.262,101.307,87.262z M6.522,5.83h1.072
	v1.074c0,0.875,0.713,1.588,1.588,1.588c0.877,0,1.59-0.711,1.59-1.588V5.83h1.066c0.875,0,1.588-0.711,1.588-1.589
	s-0.713-1.588-1.588-1.588h-1.066V1.588C10.772,0.712,10.059,0,9.182,0C8.307,0,7.594,0.709,7.594,1.588v1.065H6.522
	c-0.876,0-1.588,0.71-1.588,1.588S5.646,5.83,6.522,5.83z M2.096,38.569c0.551,0,1.08-0.222,1.478-0.616
	c0.396-0.398,0.617-0.904,0.617-1.478c0-0.552-0.221-1.081-0.617-1.479c-0.772-0.772-2.184-0.772-2.956,0
	C0.22,35.395,0,35.924,0,36.476c0,0.573,0.22,1.103,0.595,1.478C0.992,38.351,1.521,38.569,2.096,38.569z M142.277,12.63
	c-0.396,0.397-0.617,0.927-0.617,1.479c0,0.573,0.221,1.103,0.617,1.478c0.396,0.398,0.926,0.618,1.479,0.618
	c0.572,0,1.104-0.222,1.479-0.618c0.396-0.375,0.617-0.904,0.617-1.478c0-0.552-0.221-1.081-0.617-1.479
	C144.461,11.858,143.051,11.858,142.277,12.63z" class="color c1"/>
</svg>