<svg version="1.1" id="图层_1" x="0px" y="0px" width="157.715px" height="105.508px" viewBox="0 0 157.715 105.508" enable-background="new 0 0 157.715 105.508" xml:space="preserve" xmlns="http://www.w3.org/2000/svg" xmlns:xlink="http://www.w3.org/1999/xlink" xmlns:xml="http://www.w3.org/XML/1998/namespace">
  <path fill="#292500" d="M19.734,55.622c0,0.862-0.699,1.563-1.563,1.563c-0.863,0-1.563-0.7-1.563-1.563
	c0-0.863,0.7-1.563,1.563-1.563C19.035,54.059,19.734,54.758,19.734,55.622z M103.868,87.592c-0.729,0-1.322,0.592-1.322,1.322
	s0.594,1.322,1.322,1.322c0.73,0,1.322-0.592,1.322-1.322S104.598,87.592,103.868,87.592z M104.59,4.179
	c-0.73,0-1.322,0.592-1.322,1.322s0.592,1.322,1.322,1.322c0.729,0,1.322-0.592,1.322-1.322S105.319,4.179,104.59,4.179z
	 M156.393,58.145c-0.73,0-1.322,0.592-1.322,1.322s0.592,1.322,1.322,1.322s1.322-0.592,1.322-1.322S157.124,58.145,156.393,58.145z
	 M6.761,62.76l4.553-1.104l-4.553-1.104L5.657,56l-1.104,4.554L0,61.657l4.553,1.104l1.104,4.553L6.761,62.76z M38.658,7.342
	l2.809-2.58l-3.679,1.007L35.209,2.96l1.006,3.679l-2.809,2.579l3.679-1.006l2.58,2.809L38.658,7.342z M126.081,101.809l2.875,3.699
	l-0.863-4.605l3.699-2.877l-4.605,0.863l-2.877-3.697l0.863,4.605l-3.697,2.877L126.081,101.809z M113.581,6.617l2.875,3.699
	l-0.863-4.605l3.699-2.877l-4.605,0.864L111.809,0l0.863,4.604l-3.697,2.877L113.581,6.617z M131.768,78.971l-2.08,4.198l3.771-2.78
	l4.199,2.08l-2.781-3.771l2.08-4.197l-3.771,2.779l-4.197-2.08L131.768,78.971z" class="color c1"/>
</svg>