<svg version="1.1" id="图层_1" x="0px" y="0px" width="152.466px" height="82.409px" viewBox="0 0 152.466 82.409" enable-background="new 0 0 152.466 82.409" xml:space="preserve" xmlns="http://www.w3.org/2000/svg" xmlns:xlink="http://www.w3.org/1999/xlink" xmlns:xml="http://www.w3.org/XML/1998/namespace">
  <path fill="#353535" d="M152.365,81.394c-0.405-0.3-0.717-0.719-1.115-1.032c-0.61-0.48-1.16-1.043-1.728-1.571
	c-0.943-0.879-1.912-1.729-2.89-2.569c-1.078-0.924-2.166-1.849-3.217-2.803c-0.453-0.412-0.93-0.794-1.378-1.212
	c-0.199-0.187-0.346-0.434-0.586-0.533c-0.028-0.044-0.071-0.079-0.121-0.103c-0.617-0.297-1.292-0.499-1.946-0.709
	c-0.331-0.106-0.694-0.226-1.054-0.309c-1.854-0.753-3.757-1.399-5.642-2.065c-2.193-0.775-4.357-1.654-6.527-2.493
	c-4.153-1.607-8.262-3.373-12.357-5.123c-1.861-0.795-3.765-1.533-5.666-2.229c-0.9-0.33-1.792-0.809-2.677-1.188
	c-1.078-0.462-2.171-0.88-3.268-1.293c-2.096-0.788-4.124-1.816-6.25-2.504c-2.205-0.712-4.385-1.531-6.561-2.333
	c-2.825-1.04-5.639-2.133-8.434-3.253c-2.788-1.116-5.614-2.112-8.346-3.366c-1.314-0.604-2.673-1.081-3.979-1.706
	c-1.393-0.665-2.805-1.262-4.223-1.87c-1.304-0.561-2.616-1.093-3.943-1.594c-0.604-0.228-1.235-0.373-1.837-0.608
	c-0.035-0.014-0.069-0.029-0.104-0.047c-0.049-0.027-0.1-0.055-0.148-0.081c-0.146-0.085-0.297-0.179-0.445-0.234
	c-1.671-0.851-3.419-1.515-5.085-2.377c-0.952-0.493-1.951-0.87-2.904-1.355c-0.969-0.494-1.904-1.048-2.895-1.501
	c-0.905-0.413-1.799-0.879-2.723-1.247c-1.146-0.457-2.338-0.828-3.443-1.38c-1.852-0.926-3.771-1.719-5.666-2.552
	c-1.006-0.441-2.008-0.887-3.005-1.352c-0.223-0.104-0.441-0.219-0.658-0.333c-0.285,0.307-0.602,0.592-0.937,0.865
	c-0.044-0.05-0.086-0.1-0.128-0.15c0.287-0.265,0.589-0.542,0.9-0.8c-0.747-0.404-1.475-0.853-2.229-1.238
	c-0.845-0.432-1.607-1.011-2.452-1.428c-0.32-0.157-0.643-0.311-0.965-0.463c-0.251,0.106-0.501,0.24-0.733,0.38
	c-0.023-0.056-0.051-0.109-0.075-0.165c0.156-0.127,0.316-0.25,0.478-0.373c-0.544-0.258-1.086-0.518-1.617-0.797
	C22.82,21.786,21.86,21.26,20.9,20.73c-0.097,0.062-0.213,0.135-0.334,0.211c-0.001-0.007-0.004-0.014-0.006-0.021
	c0.083-0.055,0.176-0.115,0.285-0.188c0.01-0.006,0.016-0.013,0.023-0.021c-0.114-0.063-0.227-0.124-0.34-0.187
	c-0.022,0.013-0.046,0.027-0.067,0.041c-0.01-0.032-0.019-0.063-0.029-0.095c-0.78-0.43-1.56-0.859-2.344-1.282
	c-0.854-0.458-1.688-0.918-2.526-1.402c-0.393-0.228-0.797-0.447-1.201-0.673c0.063,0.047,0.127,0.095,0.191,0.14
	c-0.058-0.019-0.116-0.038-0.174-0.057c-0.065-0.021-0.131-0.041-0.197-0.062c-0.02-0.054-0.04-0.105-0.062-0.157
	c-0.573-0.326-1.136-0.667-1.647-1.064c-0.677-0.525-1.436-0.923-2.129-1.426c-0.833-0.603-1.675-1.219-2.459-1.883
	c-0.757-0.641-1.453-1.357-2.184-2.028c-0.454-0.419-0.81-0.91-1.162-1.407c-0.156-0.29-0.406-0.547-0.555-0.837
	C3.516,7.423,3.905,6.556,4.469,5.789c0.02-0.025,0.04-0.05,0.061-0.074C4.527,5.713,4.525,5.712,4.524,5.711
	C4.523,5.708,4.523,5.705,4.522,5.702c0.006,0.001,0.012-0.001,0.017-0.001c0.062-0.076,0.126-0.15,0.193-0.224
	C4.788,5.42,4.843,5.364,4.9,5.309c0.059-0.057,0.118-0.113,0.181-0.168c0.038-0.032,0.076-0.066,0.115-0.1
	C5.574,4.733,6.007,4.47,6.455,4.243C6.333,3.831,6.232,3.407,6.143,2.987C6.167,2.949,6.19,2.911,6.215,2.874
	C6.299,3.32,6.394,3.78,6.468,4.236C6.952,3.992,7.452,3.792,7.92,3.632c0.026-0.009,0.046-0.026,0.063-0.047
	C8.008,3.577,8.034,3.569,8.06,3.562C8.055,3.473,8.05,3.383,8.04,3.293c0.183-0.064,0.297-0.252,0.198-0.471
	C8.222,2.786,8.2,2.755,8.183,2.721C8.216,2.664,8.25,2.606,8.278,2.555c0.043-0.078,0.083-0.157,0.125-0.235
	c0.006,0.017,0.01,0.035,0.015,0.052C8.453,2.632,8.475,2.89,8.476,3.139C8.349,3.275,8.225,3.413,8.099,3.551
	c0.699-0.216,1.42-0.381,2.131-0.52c2.024-0.396,4.016-0.722,6.069-0.913c0.972-0.091,1.944-0.154,2.918-0.216
	c0.003-0.154,0.003-0.311,0-0.468c0.117,0.053,0.236,0.106,0.354,0.16c0.001,0.007,0.001,0.015,0.002,0.022
	c0.011,0.069,0.019,0.137,0.025,0.203c-0.017,0.02-0.029,0.04-0.045,0.06c1.068-0.065,2.138-0.127,3.204-0.209
	c0.325-0.024,0.653-0.046,0.984-0.066c-0.002-0.006-0.002-0.011-0.003-0.017c0.011-0.009,0.02-0.018,0.028-0.026
	c0.026,0.012,0.052,0.024,0.078,0.036c0.394-0.023,0.789-0.041,1.187-0.055c-0.026-0.13-0.055-0.252-0.089-0.363
	c0.069,0.037,0.14,0.074,0.21,0.11c0.013,0.083,0.025,0.165,0.039,0.248c0.893-0.027,1.786-0.023,2.658,0.023
	c-0.021-0.095-0.044-0.188-0.062-0.284c0.067,0.025,0.133,0.053,0.2,0.077c0.007,0.07,0.012,0.144,0.018,0.215
	c0.002,0,0.003,0,0.004,0c1.155,0.07,2.315,0.001,3.473-0.03c-0.095-0.063-0.193-0.12-0.291-0.179
	c0.003-0.148,0.005-0.295,0.005-0.44c0.126,0.05,0.25,0.102,0.375,0.151c0.018,0.116,0.032,0.232,0.044,0.348
	c-0.042,0.04-0.085,0.079-0.127,0.12c0.629-0.017,1.258-0.022,1.882,0.014c0.865,0.049,1.751-0.033,2.617-0.049
	c0.089-0.002,0.18,0,0.27,0c-0.023-0.014-0.051-0.027-0.074-0.041c-0.006-0.096-0.012-0.191-0.017-0.287
	c0.105,0.057,0.211,0.113,0.316,0.169c0.006,0.055,0.012,0.108,0.019,0.159c0.699,0.006,1.404,0.037,2.097,0.001
	c0.918-0.049,1.854,0.104,2.776,0.096c0.852-0.007,1.714,0.021,2.567,0.053c1.087,0.041,2.174,0.026,3.261,0.031
	c-0.009-0.024-0.017-0.051-0.024-0.076c0.053,0.025,0.106,0.052,0.16,0.077c0.68,0.005,1.359,0.019,2.037,0.061
	c0.768,0.046,1.553,0.059,2.323,0.051c0.337-0.003,0.671,0.021,1.005,0.044c0.051-0.048,0.101-0.096,0.15-0.144
	c0.012,0.052,0.023,0.104,0.036,0.155c0.205,0.014,0.409,0.024,0.615,0.025c0.718,0.141,1.557,0.06,2.246,0.065
	c1.183,0.012,2.347,0.059,3.53,0.132c1.199,0.072,2.41,0.071,3.612,0.124c0.371,0.017,0.769,0.056,1.166,0.074
	c-0.002-0.008-0.005-0.018-0.008-0.027c0.027,0.011,0.055,0.021,0.082,0.031c0.479,0.021,0.956,0.009,1.396-0.111
	c0.129,0.01,0.259,0.02,0.388,0.028c-0.022-0.008-0.045-0.017-0.066-0.024c-0.041-0.104-0.076-0.208-0.11-0.315
	c0.069,0.037,0.141,0.073,0.211,0.11c0.018,0.078,0.035,0.157,0.052,0.235c0.321,0.022,0.642,0.037,0.959,0.022
	c0.846-0.04,1.732-0.014,2.578,0.038c0.758,0.047,1.518,0.057,2.28,0.06c-0.093-0.04-0.186-0.08-0.276-0.119
	c0.026-0.063,0.052-0.126,0.074-0.194c0.019-0.01,0.037-0.021,0.055-0.031c0.203,0.068,0.407,0.135,0.612,0.198
	c-0.067,0.048-0.135,0.098-0.202,0.147c0.978,0,1.955-0.004,2.928,0.038c0.039-0.061,0.08-0.121,0.119-0.183
	c0.057,0.03,0.113,0.061,0.169,0.093c0.009,0.035,0.017,0.07,0.025,0.105c0.051,0.002,0.103,0.004,0.152,0.007
	c0.751,0.047,1.536,0.056,2.286,0.019c1.018-0.049,2.044,0.133,3.063,0.08c0.603-0.03,1.239-0.04,1.862-0.025
	c0.006-0.003,0.012-0.007,0.018-0.011c0.025-0.014,0.051-0.028,0.075-0.043c0.007,0.02,0.013,0.036,0.018,0.055
	c0.243,0.007,0.484,0.017,0.72,0.031c0.678,0.042,1.423,0.077,2.145,0.039c0.266,0.042,0.577,0.013,0.784-0.002
	c0.166-0.012,0.331-0.02,0.497-0.024c-0.037-0.02-0.075-0.04-0.111-0.06c-0.04-0.132-0.073-0.268-0.104-0.405
	c0.08-0.044,0.159-0.09,0.239-0.136c0.021,0.203,0.035,0.402,0.04,0.598c0.493-0.017,0.987-0.018,1.482-0.049
	c0.756-0.048,1.537,0.119,2.306,0.082c0.386-0.019,0.794,0.062,1.178,0.099c0.429,0.042,0.876-0.022,1.307-0.037
	c0.012,0,0.024,0,0.036,0c0.001-0.048,0.001-0.095,0.001-0.142c0.016-0.014,0.034-0.027,0.05-0.041
	c0.06-0.053,0.121-0.104,0.183-0.157c0.024,0.134,0.046,0.242,0.065,0.308c0.001,0.007,0.004,0.017,0.006,0.024
	c1.557-0.045,3.119-0.062,4.676-0.083c0.422-0.006,0.842-0.022,1.262-0.045c-0.02-0.008-0.04-0.016-0.061-0.023
	c0.022-0.012,0.045-0.024,0.067-0.036c0.013,0.005,0.025,0.012,0.037,0.018c0,0.015-0.001,0.026-0.002,0.041
	c1.371-0.073,2.736-0.206,4.109-0.257c0.177-0.005,0.199-0.267,0.017-0.277c-0.226-0.014-0.452-0.02-0.679-0.021
	c0.003,0.087,0.006,0.173,0.008,0.259c-0.036-0.014-0.07-0.027-0.105-0.04c-0.014-0.073-0.027-0.146-0.04-0.221
	c-0.405-0.002-0.81,0.008-1.213,0.026c-0.051,0.001-0.101,0.001-0.15,0.004c-0.382,0.021-0.768-0.016-1.15-0.032
	c-0.005-0.001-0.008-0.004-0.013-0.004c-0.932-0.056-1.852,0.089-2.781,0.047c-0.756-0.035-1.509-0.074-2.266-0.116
	c-0.008,0.005-0.016,0.009-0.024,0.014c-0.011-0.006-0.021-0.012-0.033-0.017c-0.247-0.015-0.495-0.027-0.744-0.042
	c-1.953-0.12-3.922,0.003-5.876-0.116c-0.395-0.024-0.82,0.037-1.219,0.047c-0.483,0.012-0.971-0.051-1.46-0.038
	c-1.05,0.029-2.131,0.062-3.179-0.003c-1.32-0.081-2.637-0.185-3.956-0.283c0.002,0.008,0.004,0.016,0.007,0.024
	C78.835,1.399,78.818,1.39,78.8,1.38c-0.729-0.054-1.46-0.107-2.191-0.152c0.017,0.07,0.035,0.141,0.052,0.211
	c-0.021-0.008-0.044-0.016-0.065-0.024c-0.006-0.063-0.01-0.126-0.015-0.188c-0.02-0.002-0.039-0.002-0.058-0.004
	c-2.025-0.124-4.059,0.042-6.073-0.129c-0.935-0.078-1.871-0.053-2.807-0.11c-0.33-0.021-0.658-0.037-0.986-0.053
	c-0.333-0.023-0.665-0.047-0.997-0.067c-1.142-0.069-2.289-0.092-3.435-0.127c0.004,0.022,0.007,0.045,0.01,0.064
	c0.005,0.032,0.01,0.065,0.015,0.098c-0.1-0.032-0.198-0.067-0.299-0.098c-0.006-0.024-0.013-0.049-0.018-0.073
	c-0.56-0.018-1.117-0.039-1.674-0.073c-0.734-0.045-1.529-0.115-2.272-0.08c0.008,0.026,0.016,0.054,0.023,0.08
	c-0.008,0.006-0.017,0.013-0.026,0.019c-0.005-0.032-0.009-0.064-0.016-0.098c-0.078,0.004-0.158,0.003-0.235,0.01
	c-1.049,0.09-2.121-0.118-3.178-0.069c-0.338,0.017-0.668-0.093-1.01-0.063c-0.347,0.029-0.698,0.009-1.049-0.019
	c0.003,0.007,0.006,0.013,0.008,0.02c-0.024-0.008-0.048-0.016-0.071-0.023c-0.177-0.015-0.354-0.029-0.53-0.04
	c-0.482-0.028-0.998-0.029-1.481,0.002c-0.085,0.006-0.171,0.004-0.256,0c0.006,0.034,0.012,0.068,0.018,0.102
	c-0.049-0.034-0.095-0.07-0.142-0.105c-0.297-0.018-0.594-0.059-0.887-0.034c-0.167,0.014-0.339,0.021-0.51,0.028
	c0.002,0.141,0.005,0.282,0.011,0.423c-0.135-0.057-0.27-0.112-0.403-0.169c-0.003-0.014-0.006-0.028-0.009-0.042
	c-0.013-0.055-0.025-0.123-0.039-0.196c-0.682,0.013-1.377-0.008-2.032-0.047c-1.039-0.063-2.079-0.07-3.118-0.124
	c-0.018,0-0.035-0.001-0.052-0.002c0.042,0.164,0.081,0.329,0.114,0.499c-0.081-0.034-0.162-0.068-0.242-0.104
	c0.013-0.141,0.031-0.272,0.052-0.398c-0.27-0.014-0.541-0.023-0.813-0.033c0,0.022,0,0.047,0,0.069
	C42.1,0.25,42.086,0.242,42.071,0.234c0.014-0.016,0.027-0.031,0.039-0.047c-0.596-0.021-1.193-0.037-1.786-0.034
	c-0.364,0.001-0.741,0.016-1.119,0.026c0.005,0.197,0.009,0.365,0.002,0.432c-0.002,0.009-0.003,0.018-0.004,0.027
	c-0.113-0.047-0.228-0.095-0.341-0.143c0.092-0.105,0.187-0.21,0.279-0.314c-0.592,0.017-1.188,0.021-1.75-0.055
	c-0.892-0.119-1.84-0.004-2.738,0.015c-0.804,0.017-1.608-0.039-2.413-0.055c-0.005,0.213-0.005,0.421-0.005,0.604
	c-0.06-0.025-0.117-0.051-0.177-0.078c-0.03-0.178-0.069-0.354-0.111-0.529c-0.083-0.001-0.166-0.004-0.249-0.003
	C30.785,0.033,29.874-0.003,28.96,0c-0.776,0.003-1.553,0.019-2.33,0.035c-0.001,0.05-0.004,0.099-0.004,0.147
	c-0.013,0.016-0.027,0.031-0.041,0.047c-0.082-0.031-0.162-0.06-0.244-0.091c-0.005-0.032-0.014-0.063-0.02-0.097
	c-1.672,0.037-3.346,0.075-5.013,0.012c-0.046-0.002-0.08,0.013-0.109,0.033c-0.863-0.014-1.726-0.046-2.591-0.028
	c-0.018,0.152-0.032,0.307-0.042,0.463c-0.024,0.024-0.049,0.049-0.075,0.073c-0.044-0.019-0.089-0.037-0.135-0.056
	c-0.009-0.036-0.018-0.072-0.027-0.11C18.315,0.369,18.3,0.31,18.284,0.25c0.075-0.064,0.15-0.127,0.226-0.188
	c-0.41,0.01-0.825,0.036-1.242,0.069c0,0,0,0-0.001,0c-0.544,0.045-1.09,0.103-1.625,0.162c-1.285,0.144-2.574,0.263-3.859,0.417
	c-0.071,0.06-0.141,0.12-0.213,0.179c-0.008-0.046-0.019-0.097-0.027-0.145C10.325,0.906,9.16,1.191,7.954,1.415
	C7.327,1.531,6.688,1.687,6.063,1.878v0.001c-0.001,0-0.002,0-0.002-0.001C5.474,2.059,4.895,2.269,4.348,2.514
	C4.002,2.668,3.682,2.846,3.376,3.041c0.027,0.009,0.053,0.02,0.081,0.027C3.346,3.175,3.236,3.287,3.136,3.406
	c-0.06-0.027-0.121-0.054-0.181-0.081c-0.01,0.007-0.021,0.014-0.029,0.021c-0.853,0.516-1.659,1.19-2.204,2
	C0.729,5.458,0.736,5.57,0.743,5.684c-0.032,0.02-0.064,0.041-0.096,0.061C0.61,5.71,0.575,5.676,0.539,5.641
	C0.376,5.929,0.244,6.231,0.156,6.549C0.155,6.556,0.152,6.563,0.15,6.568C0.132,6.639,0.117,6.71,0.103,6.781
	C0.094,6.823,0.08,6.865,0.073,6.908C0.072,6.915,0.075,6.921,0.075,6.929c-0.006,0.032-0.016,0.066-0.02,0.1
	c-0.001,0.007,0.002,0.01,0.002,0.015C0.068,7.036,0.08,7.028,0.092,7.021c0.003,0.118,0.005,0.235,0.004,0.353
	c-0.021-0.011-0.043-0.02-0.064-0.029C0.017,7.544,0.006,7.74,0,7.932c0.024,0.01,0.048,0.02,0.072,0.028
	C0.058,8.124,0.04,8.286,0.013,8.446C0.011,8.448,0.008,8.45,0.006,8.452C0.031,8.967,0.12,9.467,0.342,9.981
	c0.826,1.916,2.145,3.381,3.519,4.915c0.007,0.008,0.013,0.015,0.02,0.021c0.001-0.013,0.002-0.025,0.004-0.037
	c0.098,0.052,0.194,0.105,0.293,0.155c-0.003,0.067-0.005,0.135-0.006,0.202c0.633,0.7,1.292,1.396,1.967,2.048
	c0.333,0.321,0.639,0.763,1.022,1.021c0.464,0.314,0.932,0.646,1.36,1.013c0.005-0.005,0.011-0.01,0.016-0.014
	c0.003,0.011,0.004,0.021,0.006,0.031c0.058,0.05,0.117,0.097,0.173,0.147c0.33,0.301,0.676,0.583,1.026,0.857
	c0.048,0.012,0.096,0.024,0.143,0.036c-0.012,0.015-0.025,0.03-0.039,0.046c1.331,1.029,2.767,1.918,4.116,2.932
	c3.503,2.631,7.479,4.667,11.233,6.913c0.927,0.554,1.909,1.01,2.848,1.543c1.02,0.578,2.023,1.182,3.046,1.756
	c0.789,0.443,1.524,0.925,2.395,1.194c0.435,0.136,0.904,0.514,1.302,0.737c0.482,0.271,0.977,0.5,1.477,0.735
	c1.062,0.498,2.043,1.156,3.072,1.714c1.032,0.559,2.096,1.055,3.131,1.606c2.01,1.072,4.068,2.021,6.056,3.143
	c3.766,2.127,7.709,3.932,11.539,5.941c1.886,0.988,3.921,1.71,5.746,2.81c1.917,1.156,4.081,1.904,6.086,2.9
	c4.213,2.091,8.526,3.958,12.755,6.017c2.412,1.176,4.837,2.314,7.296,3.39c0.054,0.038,0.119,0.084,0.162,0.109
	c0.268,0.156,0.57,0.247,0.862,0.361c0.937,0.365,1.885,0.69,2.811,1.084c1.819,0.772,3.624,1.585,5.44,2.367
	c1.798,0.774,3.543,1.632,5.305,2.477c1.711,0.822,3.507,1.454,5.232,2.243c7.259,3.315,14.465,6.744,21.815,9.844
	c0.029,0.012,0.056,0.015,0.08,0.012c0.013,0.004,0.022,0.011,0.037,0.013c1.289,0.191,2.72,0.151,4.02,0.104
	c1.604-0.06,3.189-0.283,4.791-0.375c0.681-0.038,1.372,0.02,2.056,0.001c0.76-0.021,1.514-0.088,2.274-0.055
	c1.678,0.076,3.415-0.01,5.092-0.104c0.04-0.002,0.072-0.018,0.1-0.037c0.06,0.027,0.127,0.035,0.194,0.045
	C152.473,81.884,152.548,81.527,152.365,81.394z M55.23,42.723C55.23,42.723,55.23,42.722,55.23,42.723
	C55.23,42.722,55.23,42.722,55.23,42.723L55.23,42.723z" class="color c1"/>
</svg>