<svg version="1.1" id="图层_1" x="0px" y="0px" width="236.702px" height="268.588px" viewBox="0 0 236.702 268.588" enable-background="new 0 0 236.702 268.588" xml:space="preserve" xmlns="http://www.w3.org/2000/svg" xmlns:xlink="http://www.w3.org/1999/xlink" xmlns:xml="http://www.w3.org/XML/1998/namespace">
  <g>
    <path fill="#EF9E62" d="M71.911,5.849c-0.272-0.341-0.562-0.668-0.853-0.994c-0.14-0.157-0.277-0.315-0.414-0.475
		c-0.017-0.02-0.022-0.025-0.036-0.041c-0.016-0.023-0.024-0.038-0.05-0.074c-0.776-1.116-2.175-1.627-3.42-0.897
		c-1.106,0.648-1.677,2.3-0.897,3.42c0.476,0.683,1.019,1.304,1.57,1.925c0.097,0.109,0.192,0.22,0.287,0.331
		c0.039,0.045,0.058,0.067,0.082,0.093c0.02,0.028,0.033,0.048,0.065,0.092c0.126,0.176,0.232,0.363,0.337,0.551
		c0.006,0.012,0.008,0.013,0.014,0.024c0.006,0.034,0.019,0.087,0.042,0.169c0.376,1.309,1.751,2.11,3.075,1.746
		c1.303-0.358,2.122-1.766,1.746-3.075C73.152,7.573,72.598,6.708,71.911,5.849z" class="color c1"/>
    <path fill="#EF9E62" d="M53.554,11.438c-3.109-0.877-4.427,3.947-1.329,4.821c2.283,0.645,5.045,1.09,6.841,2.762
		c2.356,2.194,5.9-1.334,3.535-3.535C60.095,13.152,56.761,12.343,53.554,11.438z" class="color c1"/>
    <path fill="#EF9E62" d="M58.044,259.832c-0.666,2.041-1.181,4.182-1.224,6.338c-0.064,3.227,4.936,3.221,5,0
		c0.034-1.713,0.517-3.389,1.045-5.01C63.869,258.086,59.041,256.779,58.044,259.832z" class="color c1"/>
    <path fill="#EF9E62" d="M47.405,245.406c3.214-0.121,3.226-5.121,0-5c-2.261,0.084-4.241,1.066-6.339,1.791
		c-1.287,0.443-2.125,1.697-1.746,3.074c0.344,1.252,1.786,2.191,3.075,1.746C43.987,246.469,45.772,245.467,47.405,245.406z" class="color c1"/>
    <path fill="#EF9E62" d="M35.344,43.032c0.088-4.762,0.314-10.212-4.608-9.193c-1.715,0.355-3.174,2.403-4.266,3.567
		c-0.684,0.739-1.398,1.447-2.145,2.123c-0.335,0.317-0.598,0.578-0.825,0.808c0.179-2.637,1.141-6.276-0.252-8.645
		c-1.407-2.393-3.543-2.504-6.016-1.716c-1.304,0.416-2.399,1.353-3.478,2.153c-0.604,0.456-1.217,0.899-1.839,1.329
		c-0.305,0.197-0.608,0.393-0.912,0.589c-0.025,0.007-0.042,0.013-0.065,0.021c0.027-2.5,0.864-4.32-1.616-6.266
		c-2.507-1.967-5.604,0.261-8.008,1.29c-2.956,1.266-0.406,5.572,2.523,4.317c0.16-0.068,2.148-1.033,2.573-1.399
		c-0.164,0.538-0.429,2.647-0.45,2.897c-0.141,1.648,0.747,3.347,2.163,4.177c3.571,2.092,7.81-2.566,10.491-4.28
		c0.145-0.092-0.068,5.12-0.134,5.824c-0.148,1.58,0.002,3.423,1.188,4.61c3.689,3.689,7.562-2.143,10.695-5.144
		c-0.096,1.593-0.295,3.525-0.305,3.936c-0.054,2.553,0.303,4.975,1.566,7.208c0.652,1.154,2.281,1.619,3.42,0.897
		c2.51-1.591,2.904-3.856,2.94-6.698C38.009,43.748,36.651,42.953,35.344,43.032z" class="color c1"/>
    <path fill="#EF9E62" d="M50.369,253.797c-1.255-0.734-2.633-0.211-3.421,0.898c0.296-0.416-0.18,0.184-0.212,0.219
		c-0.233,0.244-0.494,0.463-0.751,0.684c-0.473,0.404-0.964,0.785-1.433,1.195c-1.111,0.969-1.981,2.184-2.396,3.605
		c-0.905,3.104,3.921,4.418,4.821,1.33c0.026-0.09,0.042-0.152,0.051-0.195c0.022-0.035,0.047-0.078,0.085-0.148
		c0.043-0.08,0.071-0.134,0.088-0.171c0.029-0.03,0.071-0.076,0.131-0.146c0.403-0.469,0.893-0.867,1.368-1.262
		c0.964-0.799,1.831-1.559,2.563-2.588C52.056,256.105,51.465,254.439,50.369,253.797z" class="color c1"/>
    <path fill="#EF9E62" d="M190.399,231.326c-3.225-0.002-3.224,4.998,0,5c0.3,0,0.6,0.002,0.898,0.006
		c0.197,0.004,0.393,0.012,0.59,0.023c0.219,0.025,0.309,0.032,0.288,0.022c0.24,0.041,0.477,0.099,0.71,0.167
		c-0.348-0.102,0.505,0.385,0.286,0.184c1.004,0.92,2.54,0.996,3.535,0c0.932-0.932,1.005-2.615,0-3.535
		C194.922,231.561,192.723,231.328,190.399,231.326z" class="color c1"/>
    <path fill="#EF9E62" d="M232.325,37.427c-2.51,2.089-3.887,2.822-7.215,2.194c-1.594-0.301-3.046-0.881-4.621-0.174
		c-1.383,0.62-2.701,2.08-2.993,3.622c-0.497,2.625,0.073,2.905-2.347,0.812c-1.885-1.629-5.559-3.797-7.791-1.348
		c-2.513,2.756-1.953,6.821-1.868,10.279c0.079,3.219,5.079,3.226,5,0c-0.032-1.293-0.083-2.583-0.087-3.876
		c-0.008-3.075,2.263-0.503,3.418,0.316c2.475,1.753,5.082,2.058,7.307-0.262c0.877-0.914,0.971-2.26,1.068-3.449
		c0.192-2.318,3.477-0.748,5.135-0.583c3.42,0.341,6.096-1.97,8.529-3.996C238.34,38.897,234.784,35.379,232.325,37.427z" class="color c1"/>
    <path fill="#EF9E62" d="M195.633,242.449c-1.495-0.746-2.969-1.418-4.666-1.477c-1.363-0.047-2.5,1.174-2.5,2.5
		c0,1.398,1.139,2.453,2.5,2.5c0.077,0.003,0.122,0.003,0.163,0.002c0.039,0.011,0.076,0.021,0.145,0.035
		c0.212,0.047,0.417,0.122,0.622,0.195c0.016,0.015,0.495,0.207,0.482,0.201c0.246,0.115,0.488,0.238,0.73,0.359
		c1.219,0.609,2.698,0.336,3.42-0.896C197.184,244.754,196.852,243.057,195.633,242.449z" class="color c1"/>
    <path fill="#EF9E62" d="M79.749,0c-1.363,0-2.5,1.137-2.5,2.5c0,0.756,0,1.513,0,2.27c0,1.363,1.137,2.5,2.5,2.5
		c1.362,0,2.5-1.137,2.5-2.5c0-0.756,0-1.513,0-2.27C82.249,1.137,81.111,0,79.749,0z" class="color c1"/>
    <path fill="#EF9E62" d="M178.924,6.961c-2.258,1.517-4.435,3.187-6.004,5.437c-0.781,1.119-0.208,2.773,0.896,3.42
		c1.247,0.73,2.643,0.218,3.42-0.897c1.004-1.439,2.71-2.634,4.211-3.643c1.129-0.758,1.617-2.189,0.896-3.42
		C181.688,6.738,180.056,6.2,178.924,6.961z" class="color c1"/>
    <path fill="#EF9E62" d="M191.407,17.175c-2.076,1.296-4.604,1.78-6.809,2.837c-1.229,0.589-1.543,2.318-0.896,3.42
		c0.729,1.246,2.191,1.486,3.42,0.897c2.219-1.063,4.705-1.524,6.809-2.837C196.659,19.79,194.151,15.463,191.407,17.175z" class="color c1"/>
  </g>
</svg>