<svg version="1.1" id="图层_1" x="0px" y="0px" width="136.83px" height="175.258px" viewBox="0 0 136.83 175.258" enable-background="new 0 0 136.83 175.258" xml:space="preserve" xmlns="http://www.w3.org/2000/svg" xmlns:xlink="http://www.w3.org/1999/xlink" xmlns:xml="http://www.w3.org/XML/1998/namespace">
  <polygon fill="#1D1D1E" points="10.304,29.453 17.65,30.537 10.348,32.032 9.256,41.657 6.793,32.115 0,31.35 6.693,29.635 
	8.22,19.353 " class="color c1"/>
  <polygon fill="#1D1D1E" points="130.001,168.013 128.597,163.679 128.372,168.18 122.194,170.193 128.573,170.516 129.856,175.258 
	130.267,170.381 136.83,168.594 " class="color c1"/>
  <polygon fill="#1D1D1E" points="125.833,67.357 131.033,71.739 127.628,65.791 130.396,62.17 126.565,64.547 121.396,60.61 
	124.758,66.041 121.587,69.794 " class="color c1"/>
  <circle fill="#1D1D1E" cx="134.627" cy="80.099" r="1.435" class="color c1"/>
  <circle fill="#1D1D1E" cx="102.442" cy="160.398" r="1.435" class="color c1"/>
  <circle fill="#1D1D1E" cx="3.186" cy="140.164" r="1.753" class="color c1"/>
  <circle fill="#1D1D1E" cx="13.223" cy="53.651" r="2.708" class="color c1"/>
  <circle fill="#1D1D1E" cx="79.819" cy="2.51" r="2.51" class="color c1"/>
</svg>