<svg version="1.1" id="图层_1" x="0px" y="0px" width="187.949px" height="156.748px" viewBox="0 0 187.949 156.748" enable-background="new 0 0 187.949 156.748" xml:space="preserve" xmlns:xml="http://www.w3.org/XML/1998/namespace" xmlns="http://www.w3.org/2000/svg" xmlns:xlink="http://www.w3.org/1999/xlink">
  <path fill="#E21020" d="M177.294,34.447l-0.067,0.6c-0.068,0.609-6.966,58.209-45.646,89.276l1.584-0.634l-7.986,5.325
	c-2.763,1.838-5.65,3.53-8.599,5.039l-19.963,11.697c-0.032,0.028-0.061,0.051-0.089,0.072c-0.002,0.004-0.056,0.045-0.112,0.086
	l-0.275,0.184c-0.09,0.055-0.145,0.088-0.201,0.117l-0.162,0.075c-0.037,0.02-0.11,0.053-0.184,0.081l-0.309,0.109
	c-0.072,0.021-0.143,0.038-0.21,0.053l-0.512,0.088c-0.116,0.011-0.234,0.016-0.352,0.016s-0.234-0.005-0.351-0.016l-0.501-0.085
	c-0.077-0.017-0.152-0.034-0.228-0.059c-0.061-0.019-0.122-0.04-0.184-0.064c-0.049-0.014-0.119-0.039-0.188-0.072
	c0.018,0.012-0.034-0.013-0.083-0.035c-0.131-0.062-0.182-0.086-0.23-0.114c0.018,0.014-0.055-0.028-0.119-0.066l-0.294-0.192
	c-0.072-0.051-0.13-0.095-0.186-0.142c-0.005-0.002-0.057-0.046-0.106-0.091l-20.636-12.527c-2.469-1.313-5.028-2.867-7.559-4.593
	c-8.834-6.021-17.637-14.35-26.164-24.753c-0.184-0.221-19.057-23.25-26.653-68.722l-0.098-0.588l0.471-0.366
	C11.447,33.879,46.013,7.43,94.542,7.43c28.506,0,56.179,8.976,82.252,26.678L177.294,34.447z" class="color c1"/>
  <path fill="#19151D" d="M187.949,30.281C87.598-37.852,0,30.281,0,30.281c8.727,52.245,30.206,77.977,30.206,77.977
	c10.594,12.925,20.597,21.888,29.651,28.06l0,0l0.001,0.002c2.968,2.021,5.833,3.746,8.584,5.211l23.661,14.365
	c0.021,0.02,0.044,0.039,0.064,0.059c0.038,0.033,0.074,0.066,0.112,0.098c0.038,0.032,0.079,0.062,0.12,0.09
	c0.044,0.033,0.089,0.066,0.135,0.099c0.038,0.022,0.078,0.047,0.117,0.067c0.049,0.029,0.098,0.062,0.148,0.086
	c0.04,0.021,0.081,0.039,0.123,0.06c0.05,0.022,0.101,0.049,0.152,0.069c0.045,0.019,0.091,0.031,0.137,0.047
	c0.049,0.019,0.097,0.037,0.146,0.052c0.052,0.017,0.104,0.026,0.157,0.039c0.044,0.01,0.089,0.022,0.134,0.032
	c0.063,0.013,0.125,0.019,0.188,0.027c0.035,0.004,0.071,0.012,0.106,0.014c0.1,0.011,0.199,0.017,0.3,0.017
	c0.099,0,0.199-0.006,0.299-0.017c0.036-0.002,0.072-0.01,0.107-0.014c0.063-0.01,0.125-0.016,0.188-0.027
	c0.045-0.01,0.089-0.022,0.135-0.032c0.051-0.013,0.104-0.022,0.156-0.039c0.049-0.015,0.098-0.033,0.146-0.052
	c0.045-0.016,0.092-0.028,0.137-0.047c0.052-0.021,0.104-0.047,0.154-0.071c0.039-0.019,0.08-0.035,0.119-0.056
	c0.053-0.026,0.103-0.059,0.151-0.088c0.038-0.022,0.076-0.045,0.113-0.067c0.048-0.031,0.093-0.066,0.139-0.101
	c0.04-0.029,0.079-0.057,0.117-0.088s0.076-0.066,0.114-0.1l22.953-13.447c3.392-1.736,6.619-3.635,9.693-5.682l0.018-0.008
	l-0.006,0.002C179.779,103.01,187.949,30.281,187.949,30.281z M124.616,128.187l0.005-0.002l-0.016,0.01
	c-2.688,1.789-5.516,3.451-8.484,4.971l-20.091,11.77c-0.033,0.029-0.066,0.062-0.101,0.086c-0.033,0.029-0.066,0.054-0.103,0.078
	c-0.04,0.031-0.081,0.062-0.122,0.088c-0.032,0.021-0.064,0.039-0.1,0.06c-0.043,0.026-0.088,0.055-0.133,0.078
	c-0.035,0.018-0.07,0.032-0.104,0.049c-0.044,0.021-0.089,0.043-0.136,0.062c-0.039,0.018-0.078,0.028-0.117,0.043
	c-0.045,0.014-0.086,0.03-0.131,0.045c-0.045,0.014-0.092,0.022-0.137,0.033c-0.039,0.01-0.078,0.02-0.117,0.028
	c-0.056,0.01-0.109,0.017-0.164,0.022c-0.031,0.004-0.063,0.011-0.095,0.015c-0.087,0.008-0.175,0.012-0.262,0.012
	c-0.088,0-0.175-0.004-0.263-0.012c-0.03-0.004-0.062-0.011-0.093-0.015c-0.055-0.008-0.11-0.014-0.164-0.022
	c-0.041-0.01-0.078-0.021-0.117-0.028c-0.047-0.011-0.093-0.021-0.139-0.033c-0.043-0.015-0.085-0.029-0.128-0.045
	c-0.04-0.015-0.08-0.025-0.119-0.043c-0.046-0.019-0.09-0.039-0.134-0.06c-0.036-0.019-0.073-0.033-0.106-0.053
	c-0.046-0.021-0.089-0.05-0.132-0.074c-0.034-0.021-0.068-0.039-0.102-0.062c-0.04-0.026-0.079-0.057-0.118-0.086
	c-0.036-0.024-0.071-0.051-0.104-0.08c-0.033-0.024-0.065-0.055-0.098-0.084c-0.019-0.018-0.039-0.033-0.057-0.051l-20.711-12.572
	c-2.408-1.282-4.916-2.793-7.514-4.563h-0.001h0.001c-7.926-5.401-16.682-13.248-25.954-24.562c0,0-18.802-22.521-26.44-68.251
	c0,0,76.676-59.637,164.514,0C176.23,34.936,169.08,98.594,124.616,128.187z" class="color c2"/>
</svg>