<svg version="1.1" baseProfile="tiny" id="图层_1" x="0px" y="0px" width="114.639px" height="58.882px" viewBox="0 0 114.639 58.882" xml:space="preserve" xmlns="http://www.w3.org/2000/svg" xmlns:xlink="http://www.w3.org/1999/xlink" xmlns:xml="http://www.w3.org/XML/1998/namespace">
  <g>
    <path fill-rule="evenodd" fill="#FFFADC" d="M51.129,26.531c0-0.467,0.445-0.847,0.99-0.847c0.546,0,0.991,0.38,0.991,0.847
		s-0.445,0.847-0.991,0.847C51.574,27.378,51.129,26.998,51.129,26.531z M1.372,52.63c0.757,0,1.373-0.602,1.373-1.342
		c0-0.738-0.616-1.34-1.373-1.34C0.617,49.949,0,50.55,0,51.289C0,52.029,0.617,52.63,1.372,52.63z M10.703,58.882
		c0.458,0,0.831-0.338,0.831-0.752s-0.373-0.752-0.831-0.752c-0.457,0-0.831,0.338-0.831,0.752S10.246,58.882,10.703,58.882z" class="color c1"/>
    <path fill-rule="evenodd" fill="#ED8322" d="M33.461,49.019c0-0.672,0.709-1.221,1.578-1.221c0.868,0,1.577,0.549,1.577,1.221
		s-0.709,1.219-1.577,1.219C34.17,50.238,33.461,49.691,33.461,49.019z M53.156,35.31c0.868,0,1.578-0.549,1.578-1.221
		s-0.71-1.219-1.578-1.219c-0.869,0-1.577,0.547-1.577,1.219S52.287,35.31,53.156,35.31z M70.67,5.038c0.915,0,1.66-0.673,1.66-1.5
		s-0.745-1.501-1.66-1.501c-0.914,0-1.66,0.674-1.66,1.501S69.756,5.038,70.67,5.038z M103.982,24.166
		c0.867,0,1.577-0.548,1.577-1.22s-0.71-1.22-1.577-1.22c-0.869,0-1.578,0.548-1.578,1.22S103.113,24.166,103.982,24.166z
		 M113.063,35.275c0.867,0,1.576-0.547,1.576-1.219s-0.709-1.221-1.576-1.221c-0.869,0-1.578,0.549-1.578,1.221
		S112.193,35.275,113.063,35.275z M96.088,27.089c0.563,0,1.023-0.355,1.023-0.791c0-0.437-0.461-0.793-1.023-0.793
		c-0.564,0-1.025,0.356-1.025,0.793C95.063,26.733,95.523,27.089,96.088,27.089z" class="color c2"/>
    <path fill-rule="evenodd" fill="#E7556C" d="M32.372,34.88c0-0.455,0.424-0.828,0.943-0.828c0.519,0,0.942,0.373,0.942,0.828
		c0,0.457-0.424,0.828-0.942,0.828C32.796,35.708,32.372,35.337,32.372,34.88z M43.122,23.631c0.901,0,1.637-0.722,1.637-1.607
		c0-0.885-0.735-1.607-1.637-1.607s-1.636,0.723-1.636,1.607C41.486,22.909,42.221,23.631,43.122,23.631z M36.138,16.818
		c0-0.395,0.326-0.715,0.727-0.715c0.401,0,0.728,0.32,0.728,0.715c0,0.393-0.326,0.713-0.728,0.713
		C36.464,17.531,36.138,17.211,36.138,16.818z M61.856,13.781c0-0.703,0.584-1.276,1.3-1.276s1.299,0.573,1.299,1.276
		s-0.583,1.276-1.299,1.276S61.856,14.484,61.856,13.781z M51.894,1.235C51.894,0.555,52.628,0,53.529,0s1.636,0.555,1.636,1.235
		s-0.734,1.233-1.636,1.233S51.894,1.916,51.894,1.235z M15.122,32.13c0-0.885,0.734-1.607,1.636-1.607
		c0.902,0,1.637,0.723,1.637,1.607s-0.734,1.607-1.637,1.607C15.856,33.738,15.122,33.015,15.122,32.13z M107.107,40.82
		c0-0.701,0.581-1.271,1.294-1.271c0.712,0,1.294,0.57,1.294,1.271c0,0.697-0.582,1.27-1.294,1.27
		C107.688,42.089,107.107,41.517,107.107,40.82z M93.122,40.38c0-0.811,0.673-1.471,1.499-1.471s1.498,0.66,1.498,1.471
		c0,0.813-0.672,1.473-1.498,1.473S93.122,41.193,93.122,40.38z" class="color c3"/>
    <path fill-rule="evenodd" fill="#00D1CB" d="M17.122,43.88c0-0.688,0.575-1.25,1.28-1.25c0.704,0,1.278,0.563,1.278,1.25
		c0,0.689-0.574,1.25-1.278,1.25C17.697,45.13,17.122,44.57,17.122,43.88z M44.316,12.38c0.705,0,1.278-0.458,1.278-1.019
		c0-0.563-0.573-1.02-1.278-1.02s-1.28,0.457-1.28,1.02C43.036,11.922,43.611,12.38,44.316,12.38z M50.132,49.375
		c0.546,0,0.99-0.447,0.99-0.994c0-0.549-0.444-0.994-0.99-0.994c-0.545,0-0.989,0.445-0.989,0.994
		C49.143,48.927,49.587,49.375,50.132,49.375z M66.151,42.9c0.705,0,1.279-0.457,1.279-1.02c0-0.561-0.574-1.02-1.279-1.02
		c-0.704,0-1.279,0.459-1.279,1.02C64.872,42.443,65.447,42.9,66.151,42.9z M82.872,51.88c0.705,0,1.279-0.561,1.279-1.248
		c0-0.689-0.574-1.25-1.279-1.25c-0.704,0-1.279,0.561-1.279,1.25C81.593,51.32,82.168,51.88,82.872,51.88z M83.366,31.089
		c0.867,0,1.577-0.549,1.577-1.221c0-0.672-0.71-1.22-1.577-1.22c-0.869,0-1.578,0.548-1.578,1.22
		C81.788,30.541,82.497,31.089,83.366,31.089z M71.585,11.765c0.756,0,1.373-0.531,1.373-1.182s-0.617-1.182-1.373-1.182
		c-0.757,0-1.372,0.531-1.372,1.182S70.828,11.765,71.585,11.765z" class="color c4"/>
  </g>
</svg>