<svg version="1.1" id="图层_1" x="0px" y="0px" width="81.064px" height="85.681px" viewBox="0 0 81.064 85.681" enable-background="new 0 0 81.064 85.681" xml:space="preserve" xmlns="http://www.w3.org/2000/svg" xmlns:xlink="http://www.w3.org/1999/xlink" xmlns:xml="http://www.w3.org/XML/1998/namespace">
  <path fill="#070707" d="M76.953,20.999c-1.342-1.713,6.135-6.034,3.168-9.977c-2.388-3.174-13.577,1.496-17.709,0.644
	c-4.619-0.953-8.798-2.86-11.657-6.159c-2.769-3.196-6.518-5.948-10.709-4.642c-5.109,1.592-7.192,7.227-12.114,9.216
	c-3.599,1.454-9.512,2.275-13.415,1.565c-2.199-0.4-8.376-3.118-8.376-3.118c-5.537-0.382-7.909,5.241-3.777,7.537
	c1.979,1.1-0.133,4.902,5.06,4.62c-4.128,0.627-4.255,1.587-3.959,5.499c0.227,2.995,3.628,2.561,6.158,4.179
	c-6.628,2.75-4.678,7.083-1.319,12.758c1.431,2.418,3.176,4.996,3.519,7.699c0.262,2.065-0.329,4.964-0.22,7.039
	c0.22,4.179,6.308,10.234,9.457,12.977c6.819,5.939,11.698,8.704,21.557,14.297c4.149-9.292,11.263-12.115,20.676-17.817
	c4.595-2.782,10.992-8.137,11.128-13c0.041-1.467-0.469-2.927-0.294-4.386c0.226-1.89,1.567-3.546,2.034-5.404
	c0.466-1.856-0.578-4.325-2.767-4.358c1.104-2.36,0.653-4.683,2.655-6.286c1.102-0.88,2.859-4.399,0.854-6.581
	C75.431,25.703,80.667,25.744,76.953,20.999z" class="color c1"/>
  <path fill="#FFFFFF" d="M81.06,12.843c-0.151-3.612-3.714-3.675-6.473-3.34c-3.695,0.447-7.43,1.824-11.175,1.717
	c-2.346-0.066-4.872-1.054-6.965-2.056c-2.531-1.212-4.376-2.906-6.284-4.919c-1.679-1.77-3.688-3.398-6.095-4.017
	c-2.329-0.599-4.657,0.026-6.62,1.338C33.685,4.078,31.51,8.3,27.061,9.851c-4.287,1.495-9.718,2.255-14.111,0.815
	c-1.761-0.577-3.481-1.284-5.188-2.001C6.437,8.108,5.668,7.781,4.155,8.113c-3.279,0.719-5.64,4.741-3.055,7.552
	c0.554,0.602,1.46,0.871,1.834,1.617c0.292,0.582,0.334,1.278,0.546,1.89c0.274,0.797,0.746,1.295,1.334,1.61
	C4.417,20.969,4.06,21.211,3.79,21.55c-0.736,0.922-0.696,2.286-0.648,3.396c0.063,1.456,0.12,2.938,1.425,3.844
	c1.147,0.796,2.578,1.059,3.886,1.573c-1.424,0.752-2.712,1.787-3.223,3.375c-0.51,1.578-0.193,3.272,0.362,4.792
	c0.872,2.392,2.298,4.562,3.592,6.738c0.823,1.384,1.646,2.815,2.112,4.366c0.504,1.675,0.335,3.372,0.195,5.086
	c-0.181,2.225-0.245,4.209,0.728,6.265c0.991,2.098,2.474,3.959,4.009,5.682c3.147,3.531,6.818,6.623,10.639,9.4
	c4.962,3.607,10.357,6.573,15.685,9.595c0.112,0.063,0.195-0.052,0.235-0.142c1.729-3.814,4.281-7.021,7.579-9.597
	c3.28-2.562,6.979-4.539,10.562-6.635c3.743-2.19,7.373-4.566,10.285-7.828c1.256-1.407,2.395-3.001,3.011-4.8
	c0.259-0.756,0.42-1.545,0.438-2.346c0.032-1.415-0.469-2.831-0.303-4.24c0.292-2.462,2.377-4.371,2.127-6.963
	c-0.152-1.588-1.044-3.064-2.608-3.413c0.339-1.053,0.522-2.14,0.865-3.2c0.43-1.324,1.465-1.932,2.182-3.034
	c1.07-1.642,1.589-3.989,0.668-5.812c-0.104-0.206-0.234-0.404-0.369-0.589c-0.051-0.07-0.152-0.239-0.234-0.323
	c0.097-0.094,0.229-0.26,0.295-0.327c0.366-0.365,0.745-0.7,0.979-1.172c0.814-1.644-0.199-3.418-1.188-4.718
	c-0.312-0.459,2.064-3.018,2.395-3.478C80.352,15.815,81.124,14.405,81.06,12.843z M52.663,39.599c0.002-0.009,0-0.019,0.003-0.028
	c0.03-0.144,0.042-0.293,0.087-0.432c0.051-0.138,0.083-0.282,0.147-0.415c0.073-0.171,0.167-0.332,0.27-0.488
	C52.918,38.698,52.759,39.171,52.663,39.599z M77.113,25.395c-0.159-0.023-0.368-0.039-0.637-0.042
	c0.27-0.045,0.537-0.088,0.807-0.121C77.225,25.287,77.167,25.342,77.113,25.395z M76.831,21.475
	c0.532,0.701,1.48,1.836,1.174,2.798c-0.123,0.384-0.428,0.68-0.721,0.958c-0.393,0.029-0.781,0.073-1.172,0.125
	c-0.135,0.004-0.271,0.008-0.43,0.02c-0.406,0.029-1.068,0.18-1.833,0.402c-0.129,0.031-0.259,0.058-0.388,0.091
	c-1.258,0.324-2.496,0.752-3.662,1.354c-0.58,0.302-1.139,0.653-1.66,1.06c-0.26,0.203-0.512,0.418-0.746,0.653
	c-0.238,0.226-0.459,0.492-0.665,0.731c-0.828,0.983-1.717,1.914-2.67,2.768c-0.953,0.854-1.979,1.627-3.079,2.25
	c-0.553,0.3-1.123,0.573-1.716,0.746c-0.148,0.043-0.298,0.072-0.447,0.109c-0.148,0.04-0.299,0.043-0.447,0.068
	c-0.151,0.028-0.298,0.009-0.446,0.016l-0.11,0.001l-0.128-0.003l-0.255-0.006c-0.679-0.004-1.355,0.099-2.005,0.298
	c-0.649,0.201-1.274,0.501-1.824,0.923c-0.549,0.42-1.017,0.975-1.3,1.625c-0.075,0.16-0.118,0.333-0.178,0.499
	c-0.053,0.168-0.07,0.345-0.106,0.518c-0.021,0.087-0.023,0.174-0.027,0.261l-0.012,0.263c-0.004,0.088-0.011,0.173,0.003,0.272
	c0.014,0.096,0.011,0.194,0.042,0.286c0.084,0.381,0.288,0.73,0.547,0.993c0.258,0.266,0.556,0.467,0.863,0.634
	c0.619,0.321,1.277,0.507,1.937,0.622c1.32,0.229,2.662,0.207,3.974-0.014c0.655-0.113,1.304-0.288,1.928-0.543
	c0.621-0.249,1.235-0.617,1.716-1.109c0.479-0.486,0.868-1.029,1.217-1.586c0.257-0.412,0.491-0.832,0.72-1.254
	c4.641-6.474,7.826-6.915,7.826-6.915s-2.199,1.467-2.346,3.373c-0.146,1.906-2.275,5.553-2.275,5.553s1.835-1.887,2.715-3.94
	c0.88-2.053,2.786-3.667,2.786-3.667c-1.906,2.933-0.88,5.426-0.88,5.426s-0.189-2.701,2.199-4.692
	c3.52-2.933,1.613-4.986,1.613-4.986s-0.674-0.356-1.949-0.284c0.086-0.012,0.168-0.036,0.253-0.044
	c0.319-0.026,0.646-0.032,0.964,0.036c-0.314-0.083-0.643-0.096-0.967-0.085c-0.325,0.013-0.649,0.052-0.969,0.118
	c-0.436,0.089-0.859,0.226-1.277,0.379c-0.457,0.152-0.947,0.348-1.48,0.614c-0.23,0.116-0.459,0.26-0.684,0.421
	c-0.051,0.029-0.102,0.056-0.152,0.085c-0.563,0.348-1.061,0.793-1.506,1.275c-0.885,0.978-1.572,2.099-2.219,3.225
	c-0.644,1.131-1.23,2.287-1.854,3.415c-0.312,0.562-0.634,1.118-0.983,1.65c-0.346,0.532-0.722,1.043-1.159,1.474
	c-0.431,0.429-0.954,0.736-1.534,0.962c-0.576,0.228-1.186,0.387-1.808,0.485c-1.24,0.196-2.524,0.216-3.754-0.005
	c-0.613-0.109-1.215-0.286-1.744-0.563c-0.441-0.237-0.82-0.57-0.991-0.976c0.641-0.911,2.295-2.356,2.295-2.356
	c-0.33,0.66-0.33,2.64-0.33,2.64c0.139-1.179,2.529-3.189,2.529-3.189c-0.989,0.99-0.11,2.31-0.11,2.31
	c0.33-0.88,3.3-3.189,4.15-2.453c0.852,0.736-2.5,3.003-2.5,3.003c2.859-0.66,4.839-2.86,5.829-4.729
	c0.989-1.87,3.188-5.059,5.829-7.149c2.639-2.089,5.771-1.732,5.771-1.732l0.187-0.198c0,0.23,0.051,0.469,0.184,0.717
	c0.189,0.353,0.497,0.615,0.682,0.979c0.373,0.738,0.367,1.539,0.168,2.324c-0.287,1.133-0.883,1.98-1.705,2.772
	c-1.718,1.657-1.595,4.137-2.504,6.204c-0.049,0.111-0.096,0.416-0.055,0.648c-0.726,0.87-1.496,1.697-2.311,2.474
	c-0.895,0.859-1.845,1.655-2.842,2.381c-1.003,0.715-2.047,1.373-3.158,1.886c-0.552,0.266-1.12,0.488-1.695,0.69
	c-0.58,0.182-1.166,0.354-1.765,0.454c-0.297,0.065-0.6,0.096-0.899,0.139c-0.303,0.034-0.599,0.047-0.911,0.072
	c-0.318,0.023-0.637,0.035-0.953,0.079c-0.317,0.031-0.632,0.083-0.946,0.142c-1.252,0.243-2.475,0.668-3.588,1.292
	c-1.113,0.623-2.113,1.434-2.958,2.374c-0.42,0.473-0.806,0.974-1.143,1.504c-0.337,0.53-0.637,1.086-0.857,1.67
	c0.139-0.279,0.301-0.546,0.471-0.806c0.169-0.26,0.348-0.514,0.537-0.76c0.375-0.492,0.782-0.958,1.225-1.385
	c0.878-0.864,1.884-1.585,2.967-2.143c1.092-0.542,2.256-0.934,3.458-1.131c0.6-0.104,1.207-0.164,1.816-0.191
	c0.309-0.022,0.638-0.034,0.953-0.068c0.317-0.042,0.638-0.071,0.95-0.14c0.631-0.11,1.244-0.295,1.851-0.491
	c0.599-0.218,1.194-0.448,1.76-0.739c0.568-0.283,1.121-0.596,1.652-0.939c0.537-0.334,1.047-0.71,1.544-1.098
	c0.993-0.778,1.911-1.642,2.763-2.565c0.756-0.834,1.469-1.709,2.093-2.642c0.032,0.128,0.097,0.225,0.213,0.233
	c0.985,0.063,1.806,0.559,2.267,1.447c0.623,1.194,0.289,2.342-0.229,3.501c-0.71,1.588-1.445,3.011-1.553,4.695
	c-0.271,0.574-0.554,1.142-0.858,1.697c-0.463,0.844-0.961,1.666-1.492,2.465c-1.064,1.598-2.27,3.101-3.618,4.458
	c-1.344,1.36-2.838,2.572-4.471,3.555c-0.816,0.479-1.679,0.925-2.521,1.388l-2.536,1.384c-1.691,0.924-3.365,1.878-5.034,2.84
	c-1.669,0.966-3.328,1.947-4.965,2.972c-0.817,0.513-1.63,1.038-2.43,1.584c-0.798,0.55-1.587,1.115-2.335,1.76
	c-0.732,0.666-1.42,1.4-1.921,2.277c-0.254,0.434-0.467,0.897-0.615,1.385c-0.07,0.246-0.135,0.494-0.17,0.75
	c-0.015,0.085-0.021,0.173-0.028,0.261c-1.286-0.602-2.553-1.277-3.781-2.003c-1.371-0.808-2.698-1.691-3.977-2.637
	c-0.321-0.234-0.636-0.476-0.947-0.724l-0.948-0.744c-0.642-0.491-1.299-0.957-1.963-1.411c-1.327-0.91-2.694-1.748-4.041-2.612
	c-2.688-1.722-5.375-3.486-7.63-5.738c-1.133-1.115-2.108-2.384-2.942-3.742c-0.408-0.682-0.779-1.394-0.995-2.158
	c-0.106-0.38-0.174-0.778-0.126-1.172c0.042-0.385,0.233-0.789,0.602-0.966c-0.378,0.159-0.596,0.563-0.657,0.958
	c-0.065,0.402-0.017,0.813,0.077,1.206c0.194,0.787,0.548,1.522,0.937,2.225c0.396,0.702,0.834,1.377,1.309,2.029
	c0.478,0.652,1.001,1.268,1.559,1.851c2.25,2.326,4.933,4.15,7.598,5.922c1.338,0.883,2.676,1.76,3.992,2.662
	c0.655,0.453,1.302,0.917,1.93,1.403l0.938,0.745c0.313,0.252,0.632,0.501,0.957,0.739c1.291,0.966,2.63,1.867,4.014,2.692
	c1.386,0.828,2.795,1.597,4.274,2.275l0.494,0.227l-0.049-0.557c-0.007-0.076-0.003-0.201,0.003-0.304
	c0.009-0.109,0.02-0.219,0.039-0.329c0.032-0.221,0.09-0.439,0.153-0.657c0.134-0.433,0.329-0.849,0.564-1.244
	c0.453-0.8,1.091-1.497,1.776-2.127c0.706-0.617,1.482-1.18,2.266-1.726c0.787-0.544,1.59-1.069,2.4-1.583
	c3.244-2.055,6.591-3.958,9.932-5.867l2.51-1.425c0.838-0.478,1.679-0.931,2.515-1.439c1.651-1.032,3.149-2.29,4.486-3.69
	c1.335-1.406,2.504-2.958,3.531-4.592c0.828-1.325,1.568-2.705,2.184-4.138c-0.011,0.256-0.008,0.517,0.012,0.787
	c0.094,1.222,0.436,2.442,0.238,3.671c-0.167,1.034-0.623,2.021-1.156,2.914c-1.067,1.789-2.528,3.346-4.069,4.735
	c-5.751,5.183-13.23,7.834-19.204,12.713c-3.081,2.516-5.465,5.624-7.136,9.225c-8.331-4.728-16.661-9.483-23.58-16.21
	c-1.676-1.63-3.277-3.362-4.657-5.254c-1.241-1.703-2.477-3.646-2.482-5.821c-0.005-2.481,0.619-4.973,0.073-7.437
	c-0.58-2.618-2.133-4.889-3.479-7.162c-1.202-2.02-2.704-4.329-2.949-6.72c-0.254-2.48,1.809-3.946,3.827-4.87
	c0.634,0.361,2.772,1.705,5.785,4.817l2.167,3.104l1.138,1.604l0.574,0.8c0.203,0.264,0.394,0.539,0.608,0.795
	c0.852,1.027,1.801,1.976,2.853,2.794c1.053,0.817,2.181,1.532,3.373,2.115c0.597,0.29,1.201,0.563,1.82,0.798
	c0.619,0.232,1.247,0.441,1.883,0.621c1.271,0.347,2.571,0.611,3.885,0.68c-1.295-0.213-2.559-0.559-3.788-0.988
	c-1.231-0.425-2.424-0.951-3.563-1.566c-2.277-1.231-4.331-2.869-5.95-4.87c-0.207-0.246-0.394-0.508-0.593-0.762l-0.578-0.793
	l-1.153-1.591c-0.358-0.486-0.714-0.974-1.071-1.46c-0.958-1.95-3.786-6.665-7.366-7.506c-1.107-0.592-2.304-0.9-3.474-1.348
	c-0.501-0.192-1.023-0.417-1.432-0.775c-0.689-0.605-0.735-1.406-0.785-2.264c-0.055-0.93-0.212-2.135,0.487-2.877
	c0.691-0.734,1.868-0.936,2.866-1.087c0.63-0.025,3.383-0.097,4.935,0.485c0.323,0.121,0.725,0.242,1.164,0.359
	c1.494,0.958,2.932,2.379,4.335,4.37c1.589,2.253,1.563,5.686,3.53,7.617c0,0-1.142-3.846-1.11-5.638c0,0,1.539,4.509,3.959,5.939
	s3.079,3.3,3.079,3.3s-0.329-4.069-2.199-5.719c-1.87-1.649-2.859-4.619-2.859-4.619s3.047,1.398,3.778,2.294
	c0,0-3.155-5.3-8.728-6.913l-0.489-0.139c-0.473-0.229-1.047-0.565-1.71-1.071c-1.87-1.43-7.259-1.43-7.259-1.43
	c-1.763,0.066-3.221-0.26-3.695-2.104c-0.044-0.173-0.087-0.337-0.131-0.498c0.413,0.51,0.965,1.117,1.517,1.503
	c1.1,0.77,5.829,0.66,7.809,1.1s2.645,1.697,4.289,1.87c2.09,0.22,5.466,1.959,5.466,1.959s-1.837-1.959-3.815-2.619
	c-1.981-0.66-4.62-2.42-4.62-2.42c2.859,0.11,7.479-0.733,7.479-0.733S16,18.486,12.775,16.725c-2.769-1.51-7.152,0.211-9.824-0.657
	c-0.165-0.214-0.367-0.414-0.635-0.599c-1.572-1.082-2.404-2.692-1.148-4.407c0.989-1.35,3.24-2.388,4.929-1.995
	c1.083,0.252,2.196,0.938,3.228,1.354c1.541,0.62,3.109,1.271,4.725,1.67c2.015,0.499,4.202,0.429,6.254,0.244
	c2.332-0.211,4.674-0.651,6.888-1.423c4.217-1.47,6.379-5.282,9.794-7.864c1.853-1.4,4.097-2.26,6.439-1.859
	c2.678,0.457,4.953,2.319,6.738,4.265c1.57,1.713,3.183,3.188,5.244,4.305c2.153,1.167,4.591,2.029,7.006,2.457
	c1.437,0.255,2.934,0.017,4.356-0.217c1.855-0.305,3.691-0.716,5.544-1.046c1.805-0.322,3.723-0.671,5.561-0.437
	c1.828,0.232,3.188,1.607,2.502,3.549c-0.31,0.872-0.822,1.638-1.387,2.373l-0.282,0.228c-0.214,0.172-0.413,0.359-0.636,0.519
	c-0.225,0.156-0.443,0.319-0.664,0.477l-0.165,0.119l-0.175,0.106l-0.346,0.218c-0.229,0.146-0.456,0.295-0.7,0.417l-0.712,0.396
	l-0.736,0.355c-0.239,0.129-0.496,0.224-0.744,0.338l-0.375,0.164l-0.381,0.148c-0.504,0.213-1.023,0.383-1.541,0.568
	c-1.04,0.348-2.098,0.657-3.181,0.924c1.119,0.003,2.233-0.17,3.323-0.432c0.547-0.129,1.085-0.292,1.615-0.478l0.399-0.14
	l0.39-0.162c0.258-0.113,0.524-0.206,0.775-0.335c1.011-0.468,1.957-1.072,2.824-1.77c-0.091,0.121-0.184,0.242-0.271,0.364
	C76.805,19.308,76.156,20.481,76.831,21.475z M63.292,21.247c-0.8,0.228-1.585,0.497-2.348,0.816
	c-0.762,0.322-1.495,0.703-2.198,1.134c-1.411,0.853-2.68,1.916-4.003,2.931c-0.661,0.508-1.335,1.008-2.04,1.465
	c-0.177,0.114-0.353,0.229-0.533,0.337l-0.268,0.165l-0.284,0.159c-0.382,0.206-0.782,0.378-1.196,0.507
	c-0.825,0.274-1.695,0.372-2.555,0.369c-0.86-0.014-1.715-0.138-2.541-0.351c-3.308-0.891-6.163-3.014-8.269-5.608
	c-1.045-1.229-2.438-2.182-4.024-2.572c-1.578-0.407-3.29-0.299-4.861,0.233c0.759-0.343,1.58-0.548,2.413-0.643
	c0.834-0.094,1.688-0.069,2.521,0.094c0.832,0.169,1.639,0.481,2.372,0.918c0.74,0.43,1.39,1.001,1.967,1.627
	c0.559,0.625,1.109,1.212,1.721,1.762c0.606,0.548,1.253,1.051,1.93,1.505c0.677,0.455,1.382,0.867,2.117,1.213
	c0.736,0.345,1.5,0.626,2.28,0.833c0.781,0.206,1.583,0.327,2.384,0.346c0.801,0.01,1.602-0.085,2.361-0.316
	c0.77-0.214,1.454-0.62,2.158-1.06c0.695-0.438,1.375-0.904,2.046-1.39c1.337-0.972,2.671-1.996,4.148-2.798
	C60.066,22.126,61.66,21.56,63.292,21.247z M50.896,64.537c-1.2,0.743-2.543,1.222-3.899,1.503c-0.673,0.18-1.368,0.246-2.057,0.35
	l-1.045,0.056l-0.262,0.014c-0.087,0.003-0.174-0.005-0.262-0.007l-0.523-0.02c-1.394-0.072-2.784-0.34-4.093-0.834
	c-1.307-0.501-2.531-1.193-3.644-2.026c-1.113-0.832-2.125-1.792-3.024-2.841c-0.236-0.253-0.444-0.528-0.662-0.797
	c-0.217-0.269-0.434-0.537-0.628-0.822l-0.599-0.835l-0.295-0.404l-0.315-0.39c-0.862-1.026-1.874-1.932-2.95-2.751
	c-1.075-0.823-2.222-1.557-3.396-2.24c-2.348-1.375-4.829-2.527-7.374-3.509c1.3,0.416,2.576,0.908,3.832,1.449
	c1.257,0.539,2.493,1.13,3.699,1.78c0.603,0.328,1.195,0.672,1.776,1.037c0.584,0.362,1.154,0.745,1.711,1.15
	c1.111,0.808,2.167,1.711,3.086,2.756l0.338,0.397l0.317,0.417l0.611,0.814c0.104,0.134,0.199,0.274,0.306,0.404l0.321,0.391
	c0.215,0.26,0.421,0.527,0.654,0.771c0.889,1.014,1.88,1.933,2.962,2.721c1.08,0.789,2.251,1.453,3.499,1.923
	c1.248,0.466,2.57,0.715,3.898,0.779l0.499,0.021c0.083,0.002,0.167,0.011,0.25,0.008l0.25-0.012l0.999-0.049
	c0.661-0.098,1.329-0.157,1.979-0.329c1.314-0.265,2.58-0.723,3.71-1.407c1.134-0.681,2.081-1.634,2.837-2.733
	c0.759-1.101,1.353-2.324,2.024-3.524c0.666-1.197,1.436-2.389,2.492-3.318c0.135-0.112,0.266-0.228,0.404-0.335
	c0.14-0.103,0.279-0.211,0.422-0.31l0.872-0.559l0.904-0.503c0.31-0.149,0.617-0.304,0.93-0.448c1.26-0.557,2.569-0.982,3.899-1.308
	c1.33-0.325,2.683-0.559,4.046-0.646c-0.679,0.076-1.352,0.192-2.019,0.332c-0.665,0.141-1.33,0.292-1.982,0.483
	c-1.309,0.372-2.59,0.84-3.808,1.432l-0.903,0.463l-0.874,0.512l-0.839,0.564c-0.136,0.098-0.264,0.203-0.396,0.304
	c-0.128,0.105-0.25,0.219-0.376,0.328c-0.983,0.904-1.695,2.058-2.326,3.251c-0.633,1.197-1.209,2.451-1.993,3.608
	C53.106,62.756,52.099,63.796,50.896,64.537z M55.415,47.153c1.926-0.71,3.795-1.578,5.667-2.453
	c0.938-0.432,1.881-0.861,2.841-1.25c0.958-0.393,1.943-0.726,2.951-0.955c-1.981,0.599-3.818,1.547-5.65,2.497
	c-1.835,0.943-3.688,1.881-5.624,2.643c-1.931,0.773-3.941,1.359-5.989,1.755c-2.051,0.381-4.136,0.557-6.223,0.559
	c-2.104-0.014-4.193-0.396-6.181-1.047c-1.987-0.658-3.883-1.562-5.659-2.646c-1.781-1.078-3.449-2.33-5.014-3.69
	c-0.778-0.685-1.53-1.397-2.257-2.136c-0.726-0.737-1.426-1.502-2.069-2.31c1.405,1.514,2.924,2.915,4.532,4.2
	c1.602,1.292,3.292,2.471,5.067,3.495c1.779,1.015,3.643,1.887,5.59,2.494c1.941,0.614,3.964,0.98,5.994,0.981
	c1.021-0.004,2.047-0.031,3.065-0.119c1.02-0.087,2.033-0.221,3.041-0.396C51.514,48.423,53.49,47.859,55.415,47.153z
	 M52.735,56.878c-1.594,1.4-3.81,2.11-5.981,1.945c-1.088-0.077-2.15-0.382-3.145-0.815c-0.491-0.229-0.975-0.481-1.429-0.773
	l-1.337-0.837c-0.448-0.266-0.901-0.526-1.36-0.776c-0.467-0.234-0.925-0.486-1.402-0.7l-0.71-0.334l-0.722-0.307
	c-0.239-0.105-0.482-0.203-0.728-0.296l-0.731-0.288c-1.97-0.72-3.989-1.324-6.063-1.742c2.115,0.147,4.202,0.619,6.231,1.257
	c2.023,0.659,3.991,1.52,5.826,2.62l1.341,0.857c0.43,0.285,0.886,0.522,1.346,0.75c0.465,0.215,0.941,0.409,1.433,0.553
	c0.491,0.141,0.992,0.252,1.501,0.317C48.837,58.554,50.976,58.053,52.735,56.878z M61.792,16.707
	c-4.131,1.134-6.495,5.028-9.846,7.38c-2.682,1.882-6.237,3.266-9.138,0.978c-0.043-0.034-0.018-0.164,0.043-0.12
	c1.681,1.184,3.859,1.204,5.757,0.551c1.869-0.644,3.276-1.931,4.649-3.303c2.457-2.456,4.908-5.121,8.512-5.68
	C61.849,16.501,61.863,16.688,61.792,16.707z M30.738,41.285c0.047,0,0.047,0.152,0,0.152S30.691,41.285,30.738,41.285z
	 M13.994,15.307c0.726,0.348,1.483,0.62,2.301,0.687c-0.406,0.034-0.821,0.015-1.229-0.06c-0.407-0.072-0.804-0.196-1.191-0.327
	c-0.773-0.274-1.524-0.57-2.288-0.813c-0.191-0.062-0.384-0.119-0.575-0.175c-0.197-0.062-0.36-0.097-0.55-0.125
	c-0.369-0.05-0.754-0.034-1.14,0.011c-0.775,0.087-1.559,0.281-2.364,0.444c-0.805,0.15-1.646,0.287-2.511,0.195
	c-0.431-0.048-0.863-0.156-1.264-0.342c-0.401-0.182-0.763-0.444-1.066-0.753c-0.297-0.307-0.576-0.635-0.765-1.045
	c-0.093-0.203-0.154-0.43-0.161-0.665c-0.007-0.236,0.056-0.477,0.175-0.674c0.244-0.396,0.626-0.628,1.004-0.794
	c0.383-0.165,0.783-0.267,1.188-0.321c-0.389,0.121-0.763,0.282-1.105,0.483c-0.336,0.202-0.654,0.458-0.802,0.784
	c-0.156,0.32-0.092,0.679,0.088,0.997c0.182,0.317,0.446,0.608,0.732,0.863c0.284,0.253,0.602,0.454,0.945,0.597
	c0.344,0.144,0.712,0.222,1.09,0.25c0.757,0.061,1.541-0.062,2.325-0.222c0.789-0.148,1.588-0.344,2.431-0.42
	c0.421-0.031,0.855-0.036,1.289,0.04c0.212,0.038,0.444,0.1,0.63,0.17c0.194,0.07,0.388,0.141,0.579,0.217
	C12.528,14.6,13.263,14.968,13.994,15.307z M9.039,32.583c-0.218-0.113-0.435-0.226-0.664-0.314c0.479,0.119,0.937,0.31,1.391,0.5
	c0.228,0.095,0.452,0.198,0.675,0.302l0.334,0.157l0.167,0.08l0.168,0.093c0.45,0.249,0.834,0.572,1.214,0.896
	c0.374,0.33,0.726,0.68,1.07,1.036c1.373,1.43,2.584,2.988,3.768,4.561c0.58,0.795,1.155,1.593,1.716,2.401l0.416,0.608l0.423,0.587
	c0.135,0.2,0.298,0.378,0.444,0.57s0.306,0.373,0.466,0.553c0.642,0.72,1.347,1.388,2.116,1.979
	c0.768,0.592,1.596,1.118,2.496,1.513c-0.952-0.258-1.846-0.718-2.682-1.249c-0.833-0.544-1.608-1.179-2.305-1.893
	c-0.705-0.702-1.316-1.522-1.883-2.309c-0.576-0.792-1.151-1.584-1.738-2.367c-0.58-0.789-1.17-1.567-1.77-2.338
	c-0.593-0.777-1.214-1.529-1.847-2.268c-0.317-0.369-0.648-0.723-0.986-1.068c-0.341-0.339-0.693-0.676-1.086-0.934
	c-0.395-0.267-0.835-0.503-1.256-0.746C9.472,32.814,9.257,32.696,9.039,32.583z M54.148,51.754c-0.937,0.5-1.833,1.091-2.661,1.777
	c0.729-0.794,1.588-1.467,2.5-2.056c0.921-0.575,1.922-1.045,2.99-1.329l0.198-0.057l0.204-0.041l0.408-0.082
	c0.271-0.05,0.552-0.062,0.827-0.093l0.793-0.061l0.787-0.094c1.047-0.142,2.086-0.356,3.102-0.649
	c1.019-0.282,2.017-0.64,2.97-1.084c0.953-0.439,1.875-0.97,2.625-1.672c1.504-1.507,3.023-3.047,4.592-4.516
	c-0.682,0.834-1.383,1.648-2.084,2.463c-0.711,0.81-1.398,1.618-2.144,2.416c-0.78,0.816-1.745,1.379-2.72,1.871
	c-0.984,0.48-2.013,0.854-3.062,1.156c-1.05,0.289-2.12,0.508-3.204,0.632l-0.814,0.073l-0.816,0.038
	c-0.258,0.023-0.518,0.027-0.774,0.063l-0.385,0.058l-0.193,0.029l-0.19,0.044C56.078,50.871,55.085,51.258,54.148,51.754z
	 M72.654,44.189c0.479-0.81,1.02-1.596,1.709-2.242c-0.469,0.812-0.867,1.642-1.252,2.479l-0.279,0.631
	c-0.05,0.107-0.081,0.205-0.146,0.321l-0.184,0.34c-0.285,0.418-0.621,0.789-0.993,1.094c-0.743,0.622-1.562,1.113-2.415,1.513
	c-0.852,0.402-1.732,0.736-2.648,0.953c0.812-0.47,1.617-0.927,2.404-1.403l0.584-0.365c0.191-0.127,0.385-0.249,0.57-0.381
	c0.371-0.26,0.746-0.519,1.076-0.817c0.348-0.282,0.643-0.605,0.902-0.941l0.165-0.263c0.058-0.081,0.109-0.203,0.165-0.302
	C72.416,44.597,72.535,44.392,72.654,44.189z M73.656,44.602c0.395-0.657,0.834-1.286,1.354-1.855
	c-0.285,0.714-0.594,1.403-0.895,2.091l-0.439,1.032c-0.077,0.175-0.133,0.337-0.219,0.523l-0.146,0.287
	c-0.056,0.089-0.116,0.174-0.177,0.26c-0.248,0.333-0.537,0.618-0.851,0.859c-0.31,0.248-0.641,0.457-0.981,0.642
	c-0.682,0.37-1.4,0.659-2.154,0.823c0.646-0.415,1.277-0.822,1.879-1.256c0.295-0.223,0.59-0.443,0.855-0.688
	c0.273-0.237,0.519-0.496,0.721-0.77c0.047-0.069,0.1-0.138,0.145-0.208l0.115-0.218c0.081-0.152,0.155-0.346,0.242-0.513
	C73.275,45.266,73.454,44.928,73.656,44.602z M14.659,48.097c-0.775-0.372-1.519-0.816-2.207-1.333
	c-0.675-0.526-1.331-1.122-1.731-1.883c0.518,0.675,1.207,1.176,1.913,1.618c0.711,0.441,1.464,0.809,2.234,1.131
	c0.778,0.307,1.562,0.599,2.37,0.823l0.603,0.177c0.201,0.059,0.406,0.103,0.609,0.156l1.232,0.309l0.622,0.164
	c0.207,0.054,0.41,0.126,0.615,0.188l0.614,0.192c0.202,0.072,0.405,0.145,0.605,0.222c0.805,0.3,1.59,0.655,2.349,1.058
	c0.757,0.407,1.482,0.872,2.163,1.395c0.67,0.532,1.317,1.109,1.813,1.805c-0.604-0.597-1.291-1.091-2-1.54
	c-0.709-0.45-1.45-0.842-2.207-1.199c-0.767-0.337-1.533-0.672-2.331-0.93l-0.593-0.205l-0.601-0.181
	c-0.201-0.059-0.399-0.125-0.603-0.176l-0.609-0.154l-1.232-0.324c-0.415-0.104-0.826-0.227-1.234-0.361
	C16.237,48.783,15.434,48.47,14.659,48.097z M18.448,35.044c1.011,2.833,2.457,5.511,4.273,7.908
	c-3.626-2.898-6.245-7.035-7.312-11.554c0.036,0.781,0.071,1.562,0.106,2.342c-1.359-2.361-3.694-3.965-5.894-4.991
	c-0.962-0.449-2.316-0.99-3.372-1.1c-2.268-0.233-2.142-3.104-2.142-3.104s1.042,1.417,2.068,1.564
	c1.613-1.1,3.588-1.436,5.225-0.136c-1.059-0.131-2.147-0.02-3.156,0.323c2.246,0.338,4.378,1.402,5.997,2.997
	c-0.314-1.104-0.923-2.122-1.746-2.92c1.774,0.459,3.142,1.918,4.01,3.533C17.372,31.521,17.832,33.318,18.448,35.044z
	 M69.56,20.135c-2.749,0.55-5.954,2.432-5.954,2.432l2.655-2.432c-6.049-0.22-11.878,4.508-11.878,4.508s3.409-4.289,5.829-5.168
	c2.419-0.88,4.18-0.66,6.269-1.1c2.089-0.44,4.729-2.969,4.729-2.969l-1.649,3.08c0,0,1.32-1.21,2.53-2.53s4.289-2.64,4.289-2.64
	l-2.2,2.31c0,0,1.43-0.22,3.3-1.76c1.87-1.539-0.44-2.639-0.44-2.639c3.299,0,2.97,1.87,1.76,4.069
	C77.588,17.496,72.31,19.585,69.56,20.135z M75.939,20.025c0,0,0.037,1.384,0.811,2.321c1.168,1.418,0.07,2.188,0.07,2.188
	s-5.61,0.77-6.93,1.87c0,0,2.2-2.2,4.949-2.53c2.1-0.252-0.22-1.649-1.65-0.879s-2.309,1.319-2.309,1.319s0-0.88,0.77-1.539
	c0,0-3.629,0.33-4.068-0.44C67.581,22.335,73.74,21.565,75.939,20.025z M65.858,27.87c-0.88,1.528-1.998,2.928-3.322,4.126
	c-0.659,0.602-1.389,1.139-2.189,1.569c-0.794,0.43-1.7,0.727-2.578,0.871c-0.885,0.15-1.772,0.216-2.633,0.311
	c-0.86,0.086-1.7,0.236-2.422,0.631c-0.722,0.392-1.282,1.056-1.692,1.81c-0.425,0.75-0.722,1.58-1,2.414
	c0.138-0.87,0.351-1.735,0.71-2.56c0.181-0.411,0.405-0.809,0.688-1.173c0.281-0.366,0.634-0.685,1.032-0.934
	c0.396-0.252,0.833-0.429,1.276-0.549c0.443-0.122,0.89-0.196,1.33-0.259c0.884-0.115,1.751-0.185,2.597-0.341
	c0.859-0.131,1.641-0.39,2.403-0.774c0.187-0.102,0.382-0.185,0.562-0.301l0.545-0.338c0.349-0.251,0.703-0.493,1.037-0.769
	C63.547,30.517,64.754,29.24,65.858,27.87z M6.762,37.841c-1.466-3.519,0.587-4.839,0.587-4.839s0,1.32,1.319,3.226
	c1.32,1.906,6.159,4.252,6.159,4.252c-1.906,0.587-5.173-1.276-5.173-1.276c1.573,1.217,8.106,5.236,8.106,5.236
	c-1.319,0.293-6.012-1.467-6.012-1.467s3.226,2.2,5.865,2.787c2.639,0.586,6.306,4.106,6.306,4.106s-1.32-0.733-3.667-1.466
	c-2.346-0.733-6.012-1.613-7.625-2.64C11.015,44.734,8.228,41.361,6.762,37.841z M47.675,66.876c0,0-4.986,3.373-8.799,2.787
	c-3.812-0.587-6.893-4.692-6.893-4.692l1.76,3.665c0,0-3.96-2.933-5.132-6.452c-1.174-3.519-2.934-4.839-2.934-4.839
	s2.347,4.986,2.347,6.6c0,0-4.247-6.557-5.937-7.825c-1.688-1.268-5.501-0.534-5.501-0.534s1.151-1.605,3.349-1.567
	c-1.54-0.268-4.728-1.261-6.938-4.97c0,0,3.59,1.258,7.696,3.164c4.104,1.906,5.647,2.765,7.918,5.425
	c2.27,2.66,4.538,6.77,8.505,8.505C41.809,68.196,47.675,66.876,47.675,66.876z M73.336,48.4c0,0,0,2.493-1.173,3.959
	c-1.174,1.466-3.227,5.425-6.306,7.332c-3.079,1.906-4.985,1.613-4.985,1.613s6.012-3.373,6.745-5.426c0,0-2.053-0.293-3.959,1.466
	c-1.907,1.76-3.227,2.787-3.227,2.787s0.586-2.787,3.812-4.839c0,0-3.014-0.137-4.366,2.644c-1.352,2.782-1.352,4.542-1.352,4.542
	s-1.32-1.613-0.587-3.373c0,0-1.906,4.253-5.426,5.133c0,0,2.786-2.053,4.106-5.572c1.319-3.52,6.858-6.979,11.054-7.229
	C71.87,51.185,73.336,48.4,73.336,48.4z M58.453,44.99c0,0-6.599,3.41-15.287,3.41c-8.689,0-14.188-6.049-14.188-6.049
	c3.959,2.53,4.729,1.76,4.729,1.76c-2.75-2.2-1.32-5.609-1.32-5.609s-0.439,4.51,5.939,7.259s15.1-0.253,15.1-0.253
	c-1.617-0.473-2.123-2.716-2.123-2.716C53.173,45.321,58.453,44.99,58.453,44.99z M56.033,27.137l3.666-1.907
	c0,0-2.51,2.537-4.7,3.762c-2.191,1.225-4.789,4.511-10.182,3.472c-5.392-1.038-8.154-6.53-10.053-8.055
	c-1.9-1.524-5.09-0.954-5.09-0.954s1.137-1.01,3.19-0.57c0,0-0.544-1.152-3.571-1.529c0,0,2.985-0.963,5.331,0.795
	c2.347,1.76,6.6,7.919,13.052,7.773c6.451-0.148,6.305-2.933,9.53-4.986c3.227-2.053,4.986-2.493,4.986-2.493
	S56.473,25.964,56.033,27.137z M40.343,78.167c0,0-5.133-2.493-7.479-4.986s-5.773-4.332-10.411-7.039
	c-5.279-3.079-7.625-8.359-7.625-8.359s4.253,4.84,7.332,7.04c3.079,2.2,8.798,4.399,11.145,7.479
	C35.65,75.381,40.343,78.167,40.343,78.167z M49.874,73.621c-1.76,1.76-6.746,6.599-6.746,6.599s1.467-5.132,7.039-8.358
	s12.024-6.159,13.931-7.625c1.906-1.467,4.839-3.959,4.839-3.959s-3.372,4.399-5.132,5.132
	C62.045,66.143,51.634,71.862,49.874,73.621z M33.451,12.913c0.44,1.466,3.08,1.466,3.08,1.466s-1.027-0.44-1.027-2.053
	s1.106-3.949,1.106-3.949c-1.389,0.891-2.463,3.033-2.463,3.033c0.072-1.307,1.126-3.558,1.808-4.893
	c0.623-0.664,1.265-1.308,1.97-1.861c0.767-0.602,1.618-1.096,2.535-1.296c0.229-0.049,0.462-0.081,0.694-0.093
	c0.229-0.009,0.475-0.002,0.716,0.013c0.48,0.033,0.956,0.115,1.422,0.238c1.281,0.346,2.458,1.004,3.53,1.82
	c0.361,0.741,1.18,2.543,1.294,3.908c0,0-1.026-0.732-2.639-1.319c0,0,2.119,2.182,2.159,4.904s-0.357,3.333-0.357,3.333
	s2.003-1.402,1.933-3.207c0,0,3.009,2.155,6.235,2.155c0,0-4.399-2.199-4.547-3.665c0,0,2.493,1.759,5.573,1.759
	c0,0-0.109-0.064-0.29-0.173c0.547,0.206,1.1,0.395,1.658,0.557c0.974,0.276,1.964,0.483,2.959,0.642s1.999,0.268,3.005,0.294
	c-1.997-0.221-3.971-0.629-5.864-1.262c-0.947-0.311-1.873-0.684-2.758-1.132c-0.885-0.444-1.729-0.969-2.485-1.593
	c-0.376-0.313-0.735-0.647-1.062-1.008c-0.163-0.181-0.319-0.367-0.467-0.56l-0.464-0.6c-0.629-0.796-1.295-1.568-2.028-2.279
	c-0.733-0.71-1.524-1.371-2.393-1.929c-0.864-0.562-1.815-1.012-2.827-1.275c-0.507-0.13-1.024-0.216-1.547-0.25
	c-0.263-0.016-0.519-0.022-0.791-0.009c-0.269,0.016-0.535,0.053-0.798,0.111c-1.055,0.236-1.97,0.811-2.768,1.454
	c-1.596,1.309-2.84,2.93-4.084,4.493c-1.242,1.537-2.898,2.712-4.69,3.576c-0.898,0.433-1.838,0.784-2.799,1.062
	c-0.459,0.131-0.923,0.249-1.39,0.35c-0.424,0.051-0.687,0.065-0.687,0.065c0.025,0.016,0.066,0.025,0.1,0.039
	c-0.32,0.058-0.641,0.123-0.965,0.16c0.357-0.023,0.713-0.073,1.067-0.121c1.267,0.33,5.824-0.613,5.824-0.613
	c-1.613,1.32-4.692,1.76-4.692,1.76s1.32,0.293,4.106-0.293C32.13,14.086,33.451,12.913,33.451,12.913z M26.373,13.362
	c0.855-0.229,1.699-0.506,2.516-0.86c0.456-0.196,0.903-0.415,1.341-0.656C28.96,12.628,27.546,13.092,26.373,13.362z" class="color c2"/>
</svg>