<svg version="1.1" id="图层_1" x="0px" y="0px" width="180px" height="165.332px" viewBox="0 0 180 165.332" enable-background="new 0 0 180 165.332" xml:space="preserve" xmlns="http://www.w3.org/2000/svg" xmlns:xlink="http://www.w3.org/1999/xlink" xmlns:xml="http://www.w3.org/XML/1998/namespace">
  <path fill="#004064" d="M21.393,102.261c0,0,5.885,31.895,22.915,44.59c17.031,12.695,39.637,16.723,52.951,14.555
	c13.315-2.168-66.537,25.453-93.826-40.564C-9.031,90.687,16.051,78.03,21.393,102.261z" class="color c1"/>
  <path fill="#00AF93" d="M103.712,23.313c0,0-31.964-5.491-49.761,6.107C36.156,41.02,24.572,60.845,22.008,74.089
	c-2.564,13.244-0.91-71.234,70.47-74.046C125.081-1.242,128.297,26.669,103.712,23.313z" class="color c2"/>
  <path fill="#FF8D1F" d="M150.667,128.663c0,0,13.781-28.193,8.805-48.846c-4.975-20.65-17.688-38.29-29.309-45.14
	c-11.623-6.848,67.432,22.981,46.193,91.187C165.658,160.226,137.985,153.218,150.667,128.663z" class="color c3"/>
</svg>