<svg version="1.1" id="图层_1" x="0px" y="0px" width="199.994px" height="113.723px" viewBox="0 0 199.994 113.723" enable-background="new 0 0 199.994 113.723" xml:space="preserve" xmlns:xml="http://www.w3.org/XML/1998/namespace" xmlns="http://www.w3.org/2000/svg" xmlns:xlink="http://www.w3.org/1999/xlink">
  <path fill="#FFFFFF" d="M172.533,22.128c0.054-0.384-0.104-0.773-0.41-1.015c-1.855-1.447-3.132-3.435-3.689-5.747
	c-1.073-4.483,1.101-9.301,5.168-11.458c0.216-0.115,0.438-0.222,0.666-0.322l-0.118-0.059l1.535-0.457
	c0.326-0.09,0.601-0.156,0.879-0.208l0.16-0.031c0.354-0.061,0.652-0.099,0.952-0.121l0.104-0.01
	c0.225-0.016,0.456-0.023,0.688-0.023l0.443,0.012c0.338,0.02,0.591,0.04,0.844,0.072l0.314,0.046
	c0.233,0.038,0.466,0.083,0.69,0.137c0.096,0.021,0.2,0.043,0.306,0.07c0.27,0.07,0.54,0.153,0.807,0.247
	c0.072,0.021,0.111,0.032,0.15,0.046c0.482,0.175,0.992,0.416,1.553,0.733c2.03,1.154,3.622,2.967,4.481,5.106
	c0.05,0.125,0.093,0.25,0.136,0.375l0.052,0.15c0.712,2.081,0.745,4.281,0.098,6.369c-1.091,3.53,0.414,7.34,3.579,9.058
	c2.477,1.342,4.262,3.592,5.026,6.335c0.157,0.563,0.267,1.146,0.324,1.731c0.111,1.142,0.029,2.294-0.243,3.425
	c-0.576,2.365-1.969,4.455-3.921,5.887c-0.417,0.307-0.807,0.556-1.19,0.762c-0.326,0.174-0.659,0.328-0.995,0.468l-0.106,0.039
	c-0.311,0.123-0.605,0.229-0.902,0.317c-0.076,0.022-0.146,0.039-0.217,0.055c-0.325,0.084-0.566,0.146-0.809,0.192
	c-0.085,0.015-0.165,0.026-0.246,0.037l-0.131,0.019c-0.272,0.04-0.467,0.068-0.664,0.085c-0.093,0.008-0.186,0.012-0.28,0.015
	l-0.138,0.005c-0.199,0.008-0.359,0.014-0.519,0.014l-0.11-0.001c-0.096-0.002-0.191-0.008-0.286-0.015l-0.159-0.009
	c-0.234-0.016-0.419-0.028-0.604-0.053c-0.15-0.019-0.303-0.045-0.453-0.071c-0.209-0.035-0.397-0.07-0.581-0.113
	c-0.158-0.035-0.319-0.081-0.48-0.127l-0.141-0.037c-0.072-0.018-0.145-0.036-0.216-0.059l-1.459-0.468l0.146-0.048
	c-2.328-1.109-4.172-3.057-5.14-5.465c-0.673-1.668-0.893-3.503-0.634-5.305c0.055-0.385-0.103-0.774-0.408-1.015
	c-0.301-0.236-0.725-0.297-1.082-0.155l-29.691,11.943l-0.02-0.718c-0.049-1.788-0.244-3.592-0.58-5.363
	c-0.064-0.35-0.137-0.694-0.213-1.036c-0.145-0.643-0.264-1.29-0.367-1.931l-0.063-0.395l27.493-11.058
	C172.222,22.844,172.479,22.515,172.533,22.128z M3.542,38.282C2.7,36.347,2.468,34.244,2.87,32.201
	c0.051-0.257,0.108-0.513,0.179-0.768c0.764-2.742,2.55-4.993,5.028-6.335c1.455-0.79,2.584-2.029,3.266-3.583
	c0.221-0.502,0.386-1.01,0.492-1.507c0.278-1.312,0.215-2.684-0.182-3.968c-0.494-1.603-0.591-3.247-0.289-4.886
	c0.129-0.705,0.322-1.38,0.571-2.005c0.903-2.244,2.587-4.108,4.741-5.251c0.489-0.258,0.902-0.446,1.3-0.591l0.107-0.033
	c0.303-0.105,0.573-0.188,0.845-0.259l0.25-0.058c0.283-0.066,0.516-0.112,0.75-0.148l0.299-0.045
	c0.262-0.033,0.518-0.053,0.772-0.067l0.514-0.018c0.234,0,0.468,0.008,0.702,0.023l0.108,0.011c0.296,0.022,0.591,0.06,0.885,0.109
	l0.232,0.043c0.27,0.053,0.542,0.117,0.812,0.191l1.744,0.523l-0.153,0.061c0.188,0.085,0.37,0.175,0.548,0.27
	c4.067,2.159,6.24,6.978,5.165,11.458c-0.555,2.31-1.83,4.298-3.688,5.749c-0.307,0.24-0.464,0.628-0.409,1.013
	c0.054,0.387,0.311,0.716,0.671,0.86L55.63,34.05l-0.065,0.396c-0.105,0.64-0.224,1.286-0.367,1.929
	c-0.076,0.342-0.146,0.687-0.211,1.034c-0.335,1.761-0.532,3.564-0.585,5.363l-0.021,0.717L24.692,31.547
	c-0.353-0.14-0.78-0.082-1.08,0.155c-0.306,0.242-0.462,0.631-0.407,1.016c0.258,1.796,0.04,3.631-0.633,5.304
	c-0.983,2.444-2.867,4.414-5.24,5.512l0.106,0.042l-1.32,0.427c-0.071,0.023-0.142,0.041-0.214,0.059l-0.102,0.026
	c-0.173,0.05-0.352,0.1-0.531,0.141c-0.173,0.04-0.348,0.072-0.523,0.102c-0.208,0.036-0.36,0.063-0.513,0.082
	c-0.15,0.02-0.301,0.03-0.453,0.041L13.55,44.47c-0.12,0.008-0.239,0.017-0.359,0.02l-0.087,0c-0.14,0-0.279-0.005-0.417-0.011
	l-0.186-0.007c-0.118-0.004-0.237-0.008-0.354-0.018c-0.187-0.015-0.374-0.042-0.56-0.07l-0.219-0.032
	c-0.085-0.011-0.171-0.023-0.255-0.038c-0.244-0.047-0.479-0.106-0.712-0.168l-0.12-0.03c-0.065-0.015-0.13-0.031-0.194-0.049
	c-0.308-0.092-0.609-0.201-0.909-0.32l-0.115-0.042c-0.319-0.132-0.654-0.286-0.982-0.462c-0.612-0.329-1.215-0.747-1.792-1.24
	C5.106,40.988,4.157,39.701,3.542,38.282z M13.104,43.99l0-0.002c0,0,0,0,0,0V43.99z M191.911,70.482
	c-0.32-0.172-0.646-0.326-0.977-0.461c-0.11-0.045-0.222-0.083-0.334-0.122l-0.26-0.092c-0.135-0.05-0.269-0.1-0.403-0.14
	c-0.134-0.042-0.269-0.073-0.403-0.105l-0.286-0.068c-0.113-0.028-0.228-0.057-0.336-0.077c-0.177-0.033-0.354-0.057-0.531-0.078
	l-0.062,0.496l-0.062-0.514c-0.128-0.019-0.257-0.037-0.384-0.049c-0.169-0.016-0.337-0.02-0.561-0.024l-0.113-0.004
	c-0.103-0.004-0.196-0.009-0.384-0.007c-0.133,0.003-0.266,0.012-0.399,0.021l-0.221,0.015c-0.145,0.011-0.289,0.021-0.432,0.039
	c-0.179,0.022-0.354,0.053-0.528,0.084c-0.172,0.029-0.344,0.061-0.514,0.1c-0.178,0.04-0.356,0.091-0.523,0.14l-0.102,0.025
	c-0.075,0.019-0.149,0.037-0.224,0.061l-1.439,0.474l0.128,0.043c-2.327,1.107-4.173,3.057-5.143,5.468
	c-0.672,1.671-0.891,3.504-0.632,5.301c0.055,0.387-0.103,0.776-0.409,1.018c-0.301,0.237-0.726,0.296-1.08,0.154l-40.831-16.425
	l-0.208,0.113c-1.562,0.853-3.227,1.452-4.949,1.779c-2.321,0.438-4.724,0.38-7.074-0.17c-0.427-0.102-0.896,0.001-1.223,0.266
	c-0.155,0.12-0.517,0.465-0.517,1.065v1.112l0.094,0.537l0.539-0.042c0.138,0,0.269,0.024,0.391,0.073l50.339,20.246
	c0.359,0.145,0.617,0.474,0.672,0.858c0.055,0.384-0.103,0.772-0.408,1.013c-1.856,1.45-3.133,3.438-3.69,5.75
	c-1.074,4.481,1.1,9.3,5.168,11.457c0.096,0.052,0.193,0.101,0.292,0.149l-0.176,0.044l1.628,0.543l0.135,0.036
	c0.129,0.04,0.258,0.075,0.386,0.109c0.204,0.056,0.413,0.104,0.618,0.146c0.11,0.023,0.221,0.046,0.331,0.064
	c0.274,0.046,0.547,0.079,0.864,0.107l0.101,0.012c0.233,0.016,0.469,0.022,0.705,0.022l0.495-0.018
	c0.259-0.013,0.516-0.034,0.771-0.066c0.11-0.014,0.217-0.029,0.319-0.047c0.221-0.035,0.439-0.078,0.686-0.135
	c0.109-0.023,0.22-0.048,0.328-0.077c0.208-0.056,0.419-0.122,0.617-0.189l0.104-0.031c0.07-0.021,0.141-0.042,0.208-0.066
	c1.511-0.552,2.904-1.485,4.03-2.7c0.873-0.942,1.549-1.999,2.006-3.139c0.106-0.26,0.196-0.523,0.278-0.786
	c0.626-1.992,0.629-4.105,0.007-6.108c-0.998-3.23,0.206-6.79,2.926-8.656c0.211-0.143,0.427-0.28,0.652-0.403
	c0.257-0.141,0.505-0.295,0.741-0.452c2.088-1.367,3.61-3.458,4.287-5.888c0.157-0.565,0.267-1.147,0.326-1.732
	c0.185-1.864-0.16-3.764-0.995-5.492C195.316,73.083,193.809,71.5,191.911,70.482z M78.985,67.746
	c-0.339-0.271-0.78-0.373-1.23-0.271c-2.349,0.55-4.752,0.606-7.073,0.171c-1.739-0.333-3.409-0.93-4.965-1.774l-0.207-0.112
	L24.691,82.175c-0.356,0.142-0.78,0.082-1.081-0.154c-0.306-0.241-0.462-0.631-0.407-1.016c0.259-1.798,0.04-3.632-0.634-5.303
	c-1-2.489-2.935-4.487-5.368-5.573l0.102-0.051l-1.194-0.363c-0.063-0.019-0.127-0.035-0.19-0.051l-0.116-0.03
	c-0.177-0.051-0.354-0.101-0.534-0.142c-0.144-0.033-0.288-0.06-0.513-0.101l-0.104-0.018c-0.142-0.024-0.284-0.049-0.423-0.065
	c-0.151-0.019-0.302-0.029-0.453-0.039l-0.034,0.498l-0.082-0.507c-0.161-0.013-0.321-0.024-0.554-0.028
	c-0.106,0-0.212,0.004-0.319,0.008l-0.26,0.009c-0.132,0.004-0.264,0.009-0.4,0.02c-0.133,0.013-0.265,0.03-0.397,0.049
	l-0.252,0.033c-0.129,0.017-0.257,0.033-0.387,0.058c-0.151,0.028-0.301,0.066-0.451,0.104l-0.248,0.062
	c-0.109,0.025-0.219,0.051-0.33,0.084c-0.191,0.059-0.38,0.128-0.641,0.225l-0.127,0.045c-0.078,0.026-0.156,0.054-0.235,0.086
	c-0.331,0.137-0.659,0.29-0.982,0.463c-0.256,0.138-0.505,0.285-0.75,0.447l-0.108,0.078c-0.949,0.638-1.777,1.426-2.462,2.341
	c-1.921,2.56-2.561,5.9-1.71,8.938c0.639,2.287,1.982,4.225,3.885,5.604c0.42,0.306,0.784,0.539,1.145,0.734
	c0.635,0.344,1.223,0.79,1.747,1.326c1.977,2.021,2.678,4.984,1.83,7.732c-0.501,1.623-0.595,3.288-0.278,4.947
	c0.128,0.678,0.317,1.331,0.561,1.945c0.551,1.367,1.379,2.583,2.46,3.614c1.039,0.989,2.243,1.739,3.581,2.229
	c0.064,0.023,0.13,0.043,0.279,0.086c0.22,0.074,0.44,0.146,0.656,0.201c0.098,0.025,0.195,0.048,0.333,0.078
	c0.226,0.052,0.454,0.098,0.679,0.133c0.103,0.017,0.205,0.032,0.304,0.045c0.263,0.034,0.526,0.058,0.855,0.073l0.436,0.013
	c0.231,0,0.462-0.008,0.692-0.023l0.148-0.018c0.272-0.022,0.542-0.056,0.816-0.102c0.111-0.02,0.223-0.042,0.331-0.064
	c0.205-0.041,0.409-0.089,0.611-0.143c0.132-0.035,0.264-0.07,0.428-0.121l0.381-0.132c0.119-0.041,0.235-0.084,0.349-0.127
	l0.99-0.363l-0.106-0.023c0.078-0.038,0.154-0.078,0.23-0.118c4.069-2.159,6.242-6.979,5.167-11.459
	c-0.554-2.308-1.829-4.295-3.688-5.747c-0.307-0.24-0.464-0.629-0.409-1.015c0.054-0.385,0.311-0.713,0.671-0.857l50.771-20.42
	c0.066-0.026,0.134-0.043,0.2-0.058l0.392-0.087V68.8C79.496,68.205,79.134,67.862,78.985,67.746z" class="color c1"/>
  <path fill="#301331" d="M21.5,113.717c-1.502,0-3.006-0.26-4.44-0.783c-3.459-1.264-6.231-3.945-7.605-7.36
	c-1.11-2.76-1.238-5.845-0.36-8.686c0.716-2.314-0.248-4.8-2.293-5.906c-3.123-1.694-5.372-4.526-6.334-7.976
	C-1.15,77.219,1.52,70.959,6.814,68.119c3.277-1.758,7.146-2.042,10.615-0.786c3.472,1.26,6.254,3.945,7.632,7.371
	c0.521,1.299,0.827,2.673,0.908,4.065l38.629-15.536c0.815-0.326,1.743,0.068,2.07,0.884c0.328,0.814-0.067,1.741-0.882,2.069
	L24.879,82.639c-0.527,0.213-1.127,0.127-1.576-0.225c-0.448-0.353-0.674-0.914-0.593-1.479c0.245-1.711,0.037-3.456-0.602-5.047
	c-1.041-2.585-3.142-4.614-5.765-5.564c-2.659-0.967-5.508-0.752-8.026,0.599C4.324,73.065,2.312,77.786,3.53,82.15
	c0.729,2.611,2.428,4.754,4.786,6.033c3.375,1.827,4.98,5.883,3.817,9.645c-0.672,2.176-0.578,4.442,0.272,6.558
	c1.038,2.579,3.131,4.605,5.745,5.56c2.648,0.968,5.492,0.764,8.006-0.569c3.87-2.056,5.938-6.641,4.915-10.901
	c-0.527-2.197-1.741-4.089-3.51-5.473c-0.448-0.351-0.675-0.913-0.595-1.477c0.08-0.563,0.454-1.041,0.981-1.254l50.77-20.42
	c0.816-0.326,1.742,0.068,2.07,0.883c0.328,0.815-0.067,1.742-0.882,2.07L31.417,92.305c1.323,1.548,2.259,3.388,2.749,5.424
	c1.355,5.651-1.386,11.73-6.517,14.455C25.734,113.201,23.618,113.717,21.5,113.717z M178.493,113.716
	c-2.118,0-4.233-0.516-6.149-1.532c-5.131-2.725-7.87-8.803-6.517-14.454c0.488-2.037,1.425-3.877,2.748-5.425l-48.059-19.326
	c-0.815-0.328-1.211-1.255-0.884-2.069c0.328-0.814,1.255-1.212,2.07-0.884l50.34,20.244c0.526,0.213,0.901,0.69,0.981,1.254
	s-0.147,1.126-0.596,1.477c-1.769,1.383-2.982,3.274-3.51,5.473c-1.021,4.262,1.046,8.847,4.915,10.901
	c2.517,1.335,5.358,1.536,8.008,0.569c2.613-0.953,4.707-2.979,5.743-5.56c0.852-2.114,0.943-4.382,0.271-6.558
	c-1.162-3.761,0.441-7.815,3.815-9.645c2.356-1.278,4.058-3.421,4.788-6.034c1.219-4.362-0.796-9.085-4.788-11.226
	c-2.519-1.353-5.368-1.564-8.026-0.599c-2.623,0.95-4.724,2.979-5.763,5.565c-0.64,1.59-0.849,3.334-0.603,5.046
	c0.08,0.563-0.146,1.126-0.594,1.479c-0.447,0.351-1.045,0.438-1.576,0.225L134.239,66.2c-0.815-0.328-1.211-1.256-0.883-2.07
	s1.252-1.213,2.069-0.883l38.597,15.521c0.082-1.394,0.389-2.769,0.91-4.065c1.377-3.425,4.157-6.11,7.629-7.37
	c3.471-1.259,7.34-0.973,10.617,0.785c5.293,2.84,7.963,9.101,6.348,14.887c-0.965,3.45-3.215,6.282-6.336,7.975
	c-2.043,1.108-3.008,3.593-2.293,5.907c0.879,2.841,0.752,5.925-0.358,8.686c-1.372,3.413-4.144,6.098-7.604,7.36
	C181.501,113.456,179.996,113.716,178.493,113.716z M13.015,47.163c-2.137,0-4.271-0.524-6.201-1.56
	C1.52,42.761-1.15,36.501,0.466,30.717c0.963-3.451,3.212-6.282,6.333-7.973c2.045-1.108,3.01-3.594,2.293-5.908
	c-0.878-2.841-0.75-5.925,0.36-8.687c1.374-3.415,4.146-6.099,7.606-7.36c3.456-1.264,7.316-0.988,10.59,0.75
	c5.13,2.726,7.871,8.803,6.516,14.452c-0.488,2.036-1.424,3.876-2.749,5.425l26.076,10.486c0.815,0.328,1.21,1.255,0.882,2.07
	s-1.253,1.21-2.07,0.882L27.947,23.451c-0.527-0.212-0.902-0.69-0.981-1.253c-0.08-0.563,0.147-1.126,0.595-1.478
	c1.77-1.384,2.983-3.276,3.51-5.472c1.022-4.26-1.044-8.844-4.914-10.899c-2.515-1.337-5.359-1.54-8.006-0.572
	c-2.614,0.954-4.708,2.981-5.746,5.562c-0.851,2.114-0.945,4.382-0.272,6.557c1.163,3.761-0.442,7.816-3.817,9.646
	C5.958,26.818,4.26,28.96,3.53,31.573C2.312,35.935,4.326,40.656,8.318,42.8c2.518,1.35,5.369,1.562,8.027,0.598
	c2.623-0.952,4.723-2.98,5.764-5.566c0.639-1.59,0.847-3.335,0.603-5.045c-0.081-0.563,0.145-1.126,0.593-1.478
	c0.447-0.352,1.049-0.436,1.576-0.225l31.016,12.473c0.815,0.328,1.21,1.254,0.882,2.07c-0.327,0.814-1.252,1.21-2.07,0.882
	L25.97,34.952c-0.083,1.393-0.388,2.767-0.909,4.064c-1.378,3.426-4.159,6.112-7.631,7.372
	C16.004,46.907,14.509,47.163,13.015,47.163z M186.978,47.163c-1.494,0-2.988-0.256-4.416-0.774
	c-3.472-1.26-6.252-3.947-7.629-7.372c-0.521-1.297-0.826-2.671-0.908-4.064l-28.58,11.496c-0.816,0.326-1.742-0.068-2.068-0.883
	c-0.328-0.814,0.066-1.741,0.882-2.069l30.857-12.412c0.526-0.211,1.128-0.126,1.575,0.225c0.447,0.352,0.674,0.915,0.594,1.479
	c-0.246,1.711-0.037,3.456,0.602,5.044c1.04,2.587,3.141,4.617,5.762,5.567c2.66,0.966,5.511,0.752,8.028-0.599
	c3.992-2.142,6.007-6.864,4.788-11.227c-0.73-2.614-2.432-4.756-4.787-6.03c-3.375-1.832-4.979-5.89-3.816-9.647
	c0.674-2.174,0.578-4.44-0.271-6.558c-1.035-2.579-3.13-4.605-5.742-5.56c-2.648-0.968-5.494-0.764-8.009,0.572
	c-3.868,2.056-5.937,6.64-4.915,10.899c0.527,2.197,1.741,4.09,3.51,5.472c0.447,0.351,0.676,0.913,0.596,1.477
	c-0.079,0.563-0.454,1.041-0.981,1.253l-28.728,11.555c-0.815,0.327-1.742-0.068-2.068-0.882c-0.328-0.815,0.066-1.742,0.882-2.07
	l26.445-10.637c-1.323-1.548-2.261-3.389-2.748-5.425c-1.354-5.649,1.386-11.729,6.517-14.452c3.273-1.739,7.133-2.014,10.592-0.75
	c3.459,1.263,6.23,3.945,7.604,7.36c1.108,2.763,1.237,5.848,0.358,8.686c-0.715,2.313,0.248,4.799,2.293,5.909
	c3.119,1.688,5.369,4.52,6.336,7.972c1.615,5.787-1.055,12.047-6.35,14.887C191.249,46.638,189.114,47.163,186.978,47.163z" class="color c2"/>
</svg>