<svg version="1.1" id="图层_1" x="0px" y="0px" width="163px" height="120px" viewBox="0 0 163 120" enable-background="new 0 0 163 120" xml:space="preserve" xmlns:xml="http://www.w3.org/XML/1998/namespace" xmlns="http://www.w3.org/2000/svg" xmlns:xlink="http://www.w3.org/1999/xlink">
  <path fill="#111111" d="M15.768,78.632c-1.113,0.073-2.003,0.954-2.102,2.065C13.435,83.266,13,85,12.5,85s-0.935-1.734-1.166-4.303
	c-0.1-1.111-0.99-1.992-2.102-2.065C6.16,78.43,4,77.953,4,77.395c0-0.551,2.104-1.022,5.111-1.229
	c1.139-0.078,2.051-0.996,2.106-2.138C11.384,70.54,11.895,68,12.5,68s1.116,2.54,1.283,6.027c0.055,1.142,0.967,2.06,2.106,2.138
	C18.896,76.372,21,76.844,21,77.395C21,77.953,18.84,78.43,15.768,78.632z M156,112.395c0-0.551-2.104-1.022-5.111-1.229
	c-1.14-0.078-2.052-0.996-2.106-2.138c-0.167-3.487-0.677-6.027-1.283-6.027s-1.116,2.54-1.283,6.027
	c-0.055,1.142-0.967,2.06-2.106,2.138c-3.006,0.206-5.11,0.679-5.11,1.229c0,0.559,2.16,1.037,5.231,1.238
	c1.113,0.073,2.004,0.954,2.104,2.065C146.564,118.266,147,120,147.5,120s0.936-1.734,1.166-4.303c0.1-1.111,0.99-1.992,2.102-2.065
	C153.84,113.43,156,112.953,156,112.395z M34.643,15.581c0-0.248-0.946-0.46-2.298-0.553c-0.512-0.035-0.922-0.448-0.947-0.961
	c-0.075-1.568-0.305-2.71-0.577-2.71s-0.502,1.142-0.577,2.71c-0.024,0.513-0.434,0.925-0.947,0.961
	C27.946,15.121,27,15.333,27,15.581c0,0.251,0.971,0.466,2.352,0.556c0.5,0.033,0.9,0.429,0.945,0.928
	c0.104,1.156,0.3,1.935,0.524,1.935c0.225,0,0.42-0.779,0.524-1.934c0.045-0.499,0.445-0.896,0.945-0.928
	C33.671,16.047,34.643,15.832,34.643,15.581z M9.357,87.171c0-0.303-1.158-0.563-2.814-0.677c-0.627-0.043-1.129-0.549-1.159-1.176
	C5.293,83.398,5.012,82,4.679,82s-0.614,1.398-0.706,3.318c-0.03,0.627-0.532,1.133-1.159,1.176C1.158,86.607,0,86.868,0,87.171
	c0,0.308,1.189,0.57,2.88,0.681c0.612,0.041,1.102,0.525,1.157,1.138c0.127,1.413,0.366,2.368,0.642,2.368
	c0.275,0,0.515-0.955,0.642-2.368c0.055-0.611,0.545-1.097,1.157-1.138C8.168,87.741,9.357,87.479,9.357,87.171z M117.357,5.171
	c0-0.303-1.158-0.563-2.814-0.677c-0.627-0.043-1.129-0.548-1.159-1.176C113.293,1.398,113.012,0,112.68,0
	c-0.334,0-0.615,1.398-0.707,3.318c-0.029,0.628-0.531,1.133-1.158,1.176C109.158,4.608,108,4.868,108,5.171
	c0,0.307,1.189,0.57,2.88,0.681c0.613,0.04,1.103,0.525,1.157,1.137c0.127,1.414,0.367,2.368,0.643,2.368
	c0.274,0,0.514-0.954,0.641-2.368c0.056-0.611,0.546-1.096,1.158-1.137C116.168,5.741,117.357,5.478,117.357,5.171z M128.357,13.542
	c0-0.421-1.609-0.782-3.909-0.94c-0.871-0.06-1.569-0.762-1.61-1.634c-0.128-2.667-0.518-4.61-0.98-4.61s-0.854,1.942-0.981,4.61
	c-0.042,0.872-0.739,1.574-1.61,1.634c-2.301,0.158-3.91,0.519-3.91,0.94c0,0.427,1.652,0.792,4.002,0.946
	c0.851,0.056,1.531,0.73,1.607,1.579c0.176,1.964,0.51,3.29,0.893,3.29c0.382,0,0.715-1.326,0.891-3.29
	c0.076-0.849,0.757-1.523,1.607-1.579C126.705,14.334,128.357,13.969,128.357,13.542z M12,107.357c-1.657,0-3,1.343-3,3
	c0,1.656,1.343,3,3,3s3-1.344,3-3S13.657,107.357,12,107.357z M136.5,80.357c-1.381,0-2.5,1.119-2.5,2.5s1.119,2.5,2.5,2.5
	s2.5-1.119,2.5-2.5S137.881,80.357,136.5,80.357z M159,87.357c-2.209,0-4,1.791-4,4s1.791,4,4,4s4-1.791,4-4
	S161.209,87.357,159,87.357z" class="color c1"/>
</svg>