<svg version="1.1" id="图层_1" x="0px" y="0px" width="200px" height="133.643px" viewBox="0 0 200 133.643" enable-background="new 0 0 200 133.643" xml:space="preserve" xmlns="http://www.w3.org/2000/svg" xmlns:xlink="http://www.w3.org/1999/xlink" xmlns:xml="http://www.w3.org/XML/1998/namespace">
  <path fill="#F6BA26" d="M8.081,114.139c0.358,5.385,4.561,9.49,9.383,9.166c-4.822,0.324-8.435,4.951-8.078,10.338
	c-0.356-5.387-4.565-9.49-9.386-9.168C4.82,124.153,8.439,119.524,8.081,114.139z M158.064,10.336
	c4.82-0.322,9.026,3.782,9.388,9.168c-0.361-5.386,3.254-10.014,8.079-10.335c-4.825,0.321-9.024-3.785-9.386-9.169
	C166.507,5.384,162.885,10.014,158.064,10.336z M9.745,23.593c4.819-0.32,9.021,3.784,9.38,9.166
	c-0.359-5.382,3.264-10.01,8.084-10.333c-4.82,0.323-9.026-3.782-9.389-9.167C18.183,18.645,14.564,23.273,9.745,23.593z
	 M86.707,78.136c4.825-0.322,9.027,3.779,9.386,9.166c-0.358-5.387,3.261-10.013,8.083-10.334c-4.822,0.321-9.025-3.783-9.388-9.169
	C95.15,73.185,91.532,77.814,86.707,78.136z" class="color c1"/>
  <path fill="#0D161D" d="M35.119,53.711c0.229,3.416,2.895,6.023,5.958,5.817c-3.063,0.206-5.356,3.144-5.129,6.561
	c-0.228-3.417-2.899-6.023-5.955-5.818C33.049,60.066,35.349,57.127,35.119,53.711z M108.193,99.48
	c3.061-0.205,5.73,2.398,5.96,5.818c-0.229-3.42,2.065-6.355,5.124-6.561c-3.059,0.205-5.729-2.4-5.958-5.816
	C113.549,96.337,111.254,99.275,108.193,99.48z M189.768,89.837c2.822-0.189,5.289,2.218,5.5,5.373
	c-0.211-3.155,1.908-5.87,4.732-6.06c-2.824,0.189-5.287-2.212-5.5-5.372C194.713,86.939,192.59,89.648,189.768,89.837z" class="color c2"/>
</svg>