<svg version="1.1" id="图层_1" x="0px" y="0px" width="500px" height="214.551px" viewBox="0 0 500 214.551" enable-background="new 0 0 500 214.551" xml:space="preserve" xmlns="http://www.w3.org/2000/svg" xmlns:xlink="http://www.w3.org/1999/xlink" xmlns:xml="http://www.w3.org/XML/1998/namespace">
  <path fill="#FFF0A9" d="M483.296,97.625c0,3.154-2.412,5.567-5.567,5.567c-3.154,0-5.567-2.413-5.567-5.567
	c0-3.156,2.413-5.568,5.567-5.568C480.884,92.057,483.296,94.469,483.296,97.625z M384.93,27.098c-3.154,0-5.567,2.412-5.567,5.568
	c0,3.154,2.413,5.567,5.567,5.567c3.155,0,5.567-2.413,5.567-5.567C390.497,29.51,388.085,27.098,384.93,27.098z M19.302,203.416
	c-3.155,0-5.568,2.412-5.568,5.566c0,3.156,2.413,5.568,5.568,5.568c3.155,0,5.568-2.412,5.568-5.568
	C24.87,205.828,22.458,203.416,19.302,203.416z" class="color c1"/>
  <path fill="#CEAC7C" d="M43.43,140.313c0,5.195-4.083,9.279-9.28,9.279c-5.197,0-9.28-4.084-9.28-9.279
	c0-5.197,4.083-9.281,9.28-9.281C39.347,131.031,43.43,135.115,43.43,140.313z" class="color c2"/>
  <path fill="#EB8E6C" d="M78.693,53.082c0,3.154-2.413,5.567-5.568,5.567s-5.568-2.413-5.568-5.567c0-3.156,2.413-5.568,5.568-5.568
	S78.693,49.926,78.693,53.082z M494.432,203.416c-3.153,0-5.566,2.412-5.566,5.566c0,3.156,2.413,5.568,5.566,5.568
	c3.155,0,5.568-2.412,5.568-5.568C500,205.828,497.587,203.416,494.432,203.416z" class="color c3"/>
  <path fill="#FFFFFF" d="M272.828,2.784c0,1.484-1.299,2.784-2.783,2.784s-2.783-1.299-2.783-2.784S268.561,0,270.045,0
	S272.828,1.299,272.828,2.784z M2.784,89.088C1.299,89.088,0,90.387,0,91.871c0,1.485,1.299,2.784,2.784,2.784
	c1.484,0,2.784-1.299,2.784-2.784C5.568,90.387,4.269,89.088,2.784,89.088z M136.414,8.353c-3.155,0-5.568,2.413-5.568,5.567
	c0,3.155,2.413,5.568,5.568,5.568c3.155,0,5.568-2.413,5.568-5.568C141.982,10.766,139.569,8.353,136.414,8.353z M390.683,103.006
	c-3.153,0-5.566,2.414-5.566,5.567c0,3.156,2.413,5.568,5.566,5.568c3.155,0,5.568-2.412,5.568-5.568
	C396.251,105.42,393.838,103.006,390.683,103.006z" class="color c4"/>
</svg>