<svg version="1.1" id="图层_1" x="0px" y="0px" width="94.487px" height="161.54px" viewBox="0 0 94.487 161.54" enable-background="new 0 0 94.487 161.54" xml:space="preserve" xmlns="http://www.w3.org/2000/svg" xmlns:xlink="http://www.w3.org/1999/xlink" xmlns:xml="http://www.w3.org/XML/1998/namespace">
  <path fill="#B87860" d="M65.398,11.239C68.15,4.084,70.14,0,70.14,0C53.138,24.014,42.345,52.059,36.71,81.339
	c-0.969,3.288-1.752,6.326-2.28,8.978c-0.216,1.512-0.429,3.124-0.676,5.115v0.007l-0.086,0.702
	c-0.117,0.956-0.231,1.912-0.347,2.868c-0.149,1.242-0.298,2.482-0.452,3.722c-0.096,0.772,0.055,1.887,0.327,3.14
	c0.362,1.663,0.939,3.568,1.447,5.241l0.362,1.199c0.685,2.282,1.082,4.546,1.226,6.758c0.383,5.94-1.129,11.5-4.307,15.965
	c-1.79,2.514-4.102,4.684-6.899,6.378c-2.686,1.625-5.703,2.681-8.865,3.125c-1.124,0.158-2.266,0.243-3.42,0.243
	c-4.578,0-8.979-1.245-12.74-3.515c6.611,5.975,15.805,13.317,27.406,20.276c0,0,5.419-3.84,10.986-7.97
	c39.824-26.633,56.145-77.472,56.095-126.204C81.959,20.419,85.059,22.137,65.398,11.239z M52.078,127.802
	c-8.003-42.146,1.845-83.111,9.836-106.872L84.24,33.308C83.231,71.653,72.048,104.617,52.078,127.802z" class="color c1"/>
</svg>