<svg version="1.1" id="图层_1" x="0px" y="0px" width="182.004px" height="120.604px" viewBox="0 0 182.004 120.604" enable-background="new 0 0 182.004 120.604" xml:space="preserve" xmlns="http://www.w3.org/2000/svg" xmlns:xlink="http://www.w3.org/1999/xlink" xmlns:xml="http://www.w3.org/XML/1998/namespace">
  <path fill="#FFB87A" d="M32.011,78.166l1.185-1.051l-0.367,1.54c-0.433,1.818-1.163,3.51-2.168,5.028
	c-2.948,4.446-7.916,7.102-13.289,7.102c-3.097,0-6.107-0.896-8.706-2.589c-3.554-2.315-5.982-5.866-6.837-9.999
	c-0.851-4.113-0.039-8.311,2.287-11.82c0.733-1.108,1.643-2.147,2.705-3.09l1.186-1.052L7.64,63.776
	c-1.435,6.017,1.096,12.335,6.295,15.723c2.43,1.583,5.244,2.421,8.138,2.421C25.749,81.92,29.278,80.586,32.011,78.166z
	 M158.772,12.98c-1.921-6.76-8.203-11.48-15.278-11.48c-1.454,0-2.907,0.2-4.319,0.595c-1.759,0.491-3.428,1.294-4.959,2.388
	l-1.302,0.93l1.819-0.025c6.631,0,12.519,4.414,14.316,10.733c1.688,5.937-0.576,12.354-5.637,15.967l-1.303,0.931l1.602-0.024
	c1.421-0.021,2.796-0.215,4.084-0.576c4.105-1.149,7.507-3.819,9.577-7.519C159.421,21.241,159.918,17.007,158.772,12.98z" class="color c1"/>
  <path fill="#5BEFEF" d="M155.614,50.598c0,2.376-1.941,4.302-4.338,4.302l0,0c-2.396,0-4.34-1.926-4.34-4.302l0,0
	c0-2.376,1.943-4.302,4.34-4.302l0,0C153.672,46.295,155.614,48.221,155.614,50.598L155.614,50.598z M42.111,109.336
	c0-1.806-1.477-3.27-3.298-3.27l0,0c-1.821,0-3.298,1.464-3.298,3.27l0,0c0,1.806,1.477,3.27,3.298,3.27l0,0
	C40.635,112.605,42.111,111.142,42.111,109.336L42.111,109.336z M161.862,115.475c0-2.281-1.863-4.131-4.164-4.131l0,0
	c-2.301,0-4.166,1.85-4.166,4.131l0,0c0,2.28,1.865,4.13,4.166,4.13l0,0C159.999,119.604,161.862,117.755,161.862,115.475
	L161.862,115.475z M51.831,24.727c0-2.027-1.658-3.671-3.703-3.671l0,0c-2.044,0-3.701,1.644-3.701,3.671l0,0
	c0,2.027,1.657,3.671,3.701,3.671l0,0C50.173,28.398,51.831,26.754,51.831,24.727L51.831,24.727z" class="color c2"/>
  <path fill="#E8D78E" d="M49.026,50.153l2.033,4.085l4.548,0.655l-3.291,3.18l0.777,4.491l-4.067-2.12l-4.066,2.12l0.776-4.491
	l-3.29-3.18l4.547-0.655L49.026,50.153z M168.647,75.925l-7.131-4.161l1.008,8.144l-6.197,5.439l8.125,1.567l3.303,7.522
	l4.012-7.176l8.238-0.79l-5.645-6.002l1.787-8.011L168.647,75.925z M93.314,15.733l0.639-5.122l-4.491,2.612l-4.714-2.186
	l1.118,5.041l-3.554,3.771l5.181,0.503l2.52,4.517l2.083-4.73l5.111-0.98L93.314,15.733z" class="color c3"/>
  <path fill="#110E0D" d="M7.153,63.661c-1.445,6.063,0.953,12.638,6.509,16.257c2.598,1.693,5.521,2.502,8.411,2.502
	c3.732,0,7.412-1.348,10.27-3.881c-0.401,1.686-1.083,3.335-2.099,4.867c-2.956,4.459-7.865,6.879-12.872,6.879
	c-2.898,0-5.83-0.812-8.433-2.508c-7.1-4.626-9.072-14.084-4.406-21.124C5.285,65.516,6.178,64.526,7.153,63.661 M32.343,78.539
	h0.005 M7.154,61.661c-0.478,0-0.953,0.171-1.328,0.504c-1.16,1.029-2.156,2.168-2.961,3.386c-2.547,3.843-3.437,8.443-2.504,12.952
	c0.936,4.525,3.595,8.416,7.487,10.951c2.843,1.853,6.137,2.832,9.525,2.832c5.877,0,11.312-2.906,14.539-7.773
	c1.083-1.635,1.875-3.452,2.351-5.401c0.054-0.181,0.083-0.372,0.083-0.571c0-1.102-0.889-1.995-1.99-2c-0.004,0-0.008,0-0.012,0
	c-0.017,0-0.034,0-0.051,0c-0.492,0.012-0.939,0.202-1.281,0.508c-2.458,2.175-5.631,3.372-8.938,3.372
	c-2.603,0-5.133-0.754-7.319-2.178c-4.67-3.042-6.943-8.716-5.655-14.118c0.203-0.849-0.169-1.731-0.918-2.18
	C7.862,61.754,7.507,61.661,7.154,61.661L7.154,61.661z M143.494,2c6.715,0,12.887,4.393,14.798,11.117
	c2.307,8.105-2.455,16.532-10.631,18.821c-1.32,0.37-2.648,0.538-3.957,0.557c5.098-3.64,7.631-10.167,5.826-16.51
	c-1.912-6.722-8.081-11.097-14.797-11.097c-0.075,0-0.151,0-0.227,0.001c1.418-1.013,3.021-1.816,4.803-2.313
	C140.706,2.186,142.111,2,143.494,2 M143.494,0L143.494,0c-1.59,0-3.179,0.219-4.724,0.65c-1.927,0.538-3.753,1.417-5.426,2.612
	c-0.712,0.508-1.011,1.42-0.738,2.251c0.271,0.822,1.037,1.376,1.9,1.376c0.01,0,0.02,0,0.029,0l0.197-0.001
	c5.964,0,11.258,3.965,12.873,9.644c1.516,5.329-0.52,11.089-5.064,14.335c-0.712,0.508-1.011,1.42-0.738,2.252
	c0.271,0.822,1.037,1.375,1.9,1.375c0.01,0,0.02,0,0.03,0c1.551-0.023,3.053-0.236,4.466-0.631c4.492-1.257,8.215-4.18,10.481-8.23
	c2.245-4.01,2.79-8.65,1.534-13.063C158.112,5.169,151.236,0,143.494,0L143.494,0L143.494,0z M49.026,50.153l2.033,4.085
	l4.548,0.655l-3.291,3.18l0.777,4.491l-4.067-2.12l-4.066,2.12l0.776-4.491l-3.29-3.18l4.547-0.655L49.026,50.153 M49.026,48.153
	c-0.759,0-1.453,0.43-1.791,1.109l-1.566,3.146l-3.509,0.506c-0.755,0.109-1.383,0.638-1.618,1.364
	c-0.235,0.727-0.036,1.523,0.513,2.053l2.529,2.444l-0.596,3.448c-0.129,0.75,0.177,1.508,0.792,1.956
	c0.349,0.255,0.763,0.385,1.179,0.385c0.316,0,0.634-0.075,0.925-0.227l3.142-1.638l3.143,1.638
	c0.291,0.152,0.608,0.227,0.924,0.227c0.416,0,0.831-0.13,1.18-0.385c0.614-0.449,0.921-1.207,0.791-1.957l-0.597-3.447l2.529-2.444
	c0.549-0.531,0.748-1.327,0.514-2.053c-0.235-0.727-0.863-1.256-1.618-1.365l-3.51-0.506l-1.566-3.146
	C50.479,48.583,49.785,48.153,49.026,48.153L49.026,48.153z M161.516,71.764l7.131,4.161l7.5-3.467l-1.787,8.011l5.645,6.002
	l-8.238,0.79l-4.012,7.176l-3.303-7.522l-8.125-1.567l6.197-5.439L161.516,71.764 M161.516,69.764c-0.384,0-0.768,0.11-1.101,0.33
	c-0.635,0.418-0.978,1.161-0.884,1.916l0.877,7.094l-5.401,4.742c-0.574,0.503-0.811,1.289-0.611,2.026
	c0.2,0.737,0.803,1.296,1.552,1.44l7.095,1.367l2.881,6.563c0.305,0.695,0.977,1.157,1.735,1.193
	c0.032,0.002,0.064,0.002,0.096,0.002c0.722,0,1.392-0.389,1.746-1.023l3.5-6.262l7.194-0.689c0.76-0.073,1.412-0.572,1.682-1.286
	c0.269-0.714,0.107-1.52-0.415-2.075l-4.919-5.23l1.557-6.977c0.165-0.743-0.104-1.515-0.696-1.992
	c-0.362-0.292-0.808-0.443-1.256-0.443c-0.285,0-0.571,0.061-0.839,0.185l-6.554,3.029l-6.23-3.636
	C162.212,69.854,161.864,69.764,161.516,69.764L161.516,69.764z M93.953,10.611l-0.639,5.122l3.893,3.426l-5.111,0.98l-2.083,4.73
	l-2.52-4.517l-5.181-0.503l3.554-3.771l-1.118-5.041l4.714,2.186L93.953,10.611 M93.953,8.611c-0.346,0-0.693,0.09-1.005,0.271
	l-3.59,2.088l-3.768-1.748c-0.269-0.125-0.556-0.186-0.841-0.186c-0.448,0-0.892,0.15-1.254,0.441
	c-0.593,0.477-0.864,1.249-0.699,1.992l0.889,4.007l-2.827,3c-0.523,0.555-0.685,1.36-0.417,2.074
	c0.268,0.715,0.919,1.214,1.679,1.288l4.138,0.402l2.009,3.602c0.354,0.635,1.024,1.026,1.746,1.026c0.032,0,0.063,0,0.094-0.002
	c0.758-0.035,1.431-0.497,1.737-1.191l1.66-3.77l4.079-0.782c0.75-0.144,1.353-0.702,1.554-1.438c0.2-0.736-0.035-1.523-0.609-2.027
	l-3.098-2.727l0.508-4.072c0.095-0.754-0.246-1.497-0.881-1.917C94.722,8.722,94.337,8.611,93.953,8.611L93.953,8.611z
	 M151.276,55.9c-2.944,0-5.34-2.378-5.34-5.302s2.396-5.302,5.34-5.302c2.943,0,5.338,2.378,5.338,5.302S154.219,55.9,151.276,55.9z
	 M151.276,47.295c-1.842,0-3.34,1.481-3.34,3.302s1.498,3.302,3.34,3.302c1.841,0,3.338-1.481,3.338-3.302
	S153.117,47.295,151.276,47.295z M38.813,113.605c-2.37,0-4.298-1.916-4.298-4.27s1.928-4.27,4.298-4.27s4.298,1.916,4.298,4.27
	S41.183,113.605,38.813,113.605z M38.813,107.066c-1.267,0-2.298,1.018-2.298,2.27s1.031,2.27,2.298,2.27s2.298-1.018,2.298-2.27
	S40.081,107.066,38.813,107.066z M157.698,120.604c-2.849,0-5.166-2.302-5.166-5.13c0-2.83,2.317-5.131,5.166-5.131
	c2.848,0,5.164,2.301,5.164,5.131C162.862,118.303,160.545,120.604,157.698,120.604z M157.698,112.344
	c-1.746,0-3.166,1.404-3.166,3.131c0,1.726,1.42,3.13,3.166,3.13c1.745,0,3.164-1.404,3.164-3.13
	C160.862,113.748,159.443,112.344,157.698,112.344z M48.128,29.398c-2.592,0-4.701-2.096-4.701-4.671s2.109-4.671,4.701-4.671
	c2.593,0,4.703,2.095,4.703,4.671S50.721,29.398,48.128,29.398z M48.128,22.056c-1.489,0-2.701,1.198-2.701,2.671
	c0,1.473,1.212,2.671,2.701,2.671c1.491,0,2.703-1.198,2.703-2.671C50.831,23.254,49.619,22.056,48.128,22.056z" class="color c4"/>
</svg>