<svg version="1.1" baseProfile="tiny" id="图层_1" x="0px" y="0px" width="195.945px" height="102.295px" viewBox="0 0 195.945 102.295" xml:space="preserve" xmlns="http://www.w3.org/2000/svg" xmlns:xlink="http://www.w3.org/1999/xlink" xmlns:xml="http://www.w3.org/XML/1998/namespace">
  <path fill="#FFFFFF" d="M179.766,100l16.18-0.203l-15.975,2.252L179.766,100z M178.447,79.66l15.331-5.027l-15.893,3.047
	L178.447,79.66z M171.57,55.683l12.676-9.982l-13.883,8.314L171.57,55.683z M154.903,37.57l9.379-13.128l-11.003,11.865
	L154.903,37.57z M129.211,22.355l4.45-15.509l-6.403,14.861L129.211,22.355z M104.227,16.077L102.863,0l-0.692,16.168
	L104.227,16.077z M79.216,16.099L72.087,1.626l5.248,15.308L79.216,16.099z M56.299,24.041L44.693,12.834l10.118,12.629
	L56.299,24.041z M35.708,39.805l-14.157-7.739l13.098,9.504L35.708,39.805z M23.347,57.525L7.669,53.714l15.112,5.789L23.347,57.525
	z M16.469,76.435L0.334,76.361l16.042,2.131L16.469,76.435z M15.708,98.612L0,102.295l16.097-1.662L15.708,98.612z" class="color c1"/>
</svg>