<svg version="1.1" id="图层_1" x="0px" y="0px" width="499.896px" height="211.785px" viewBox="0 0 499.896 211.785" enable-background="new 0 0 499.896 211.785" xml:space="preserve" xmlns:xml="http://www.w3.org/XML/1998/namespace" xmlns="http://www.w3.org/2000/svg" xmlns:xlink="http://www.w3.org/1999/xlink">
  <path id="XMLID_8_" fill="#0E6165" d="M437.72,124.613c-2.428,14.924-11.567,16.215-11.567,16.215
	c-15.079-37.439-48.646-31.502-48.646-31.502c31.037,21.64,20.967,62.023,20.967,62.023
	c-54.533-32.482-110.308-28.559-110.308-28.559c8.262-34.445,38.163-41.365,38.163-41.365c-26.286-24.635-53.708-8.883-53.708-8.883
	s16.216-17.403,11.723-37.75C279.334,31.761,256.974,30.211,250.001,0c-6.972,30.211-29.333,31.761-34.394,54.845
	c-4.493,20.347,11.723,37.75,11.723,37.75s-27.422-15.751-53.708,8.882c0,0,29.901,6.92,38.164,41.366
	c0,0-55.773-3.925-110.308,28.558c0,0-10.07-40.384,20.967-62.021c0,0-33.567-5.887-48.647,31.503c0,0-9.141-1.291-11.568-16.218
	C56.755,90.633,25.976,110.67,0,92.595l80.51,119.19h169.438h169.438l80.511-119.19C473.973,110.67,443.193,90.633,437.72,124.613z" class="color c1"/>
</svg>