<svg version="1.1" id="图层_1" x="0px" y="0px" width="84.744px" height="95.128px" viewBox="0 0 84.744 95.128" enable-background="new 0 0 84.744 95.128" xml:space="preserve" xmlns="http://www.w3.org/2000/svg" xmlns:xlink="http://www.w3.org/1999/xlink" xmlns:xml="http://www.w3.org/XML/1998/namespace">
  <path fill="#BC9E20" d="M51.39,1.482c-1.152-1.597-3.381-1.95-4.979-0.799c-0.123,0.077-0.215,0.169-0.322,0.26
	c-2.15,1.982-5.438,1.982-7.574,0C37.042-0.392,34.8-0.3,33.462,1.16c-0.107,0.107-0.184,0.215-0.275,0.322
	c-2.658,3.686-4.549,7.879-5.529,12.318c6.742,2.733,14.115,3.531,21.286,2.287l-1.551-6.404l6.527,0.154l1.045,4.699
	c0.66-0.229,1.318-0.475,1.965-0.734C55.933,9.362,54.062,5.169,51.39,1.482z M19.563,17.81l8.047-1.167
	c9.416,3.841,19.954,3.841,29.368,0l8.049,1.167c0.34,0.047,0.631,0.246,0.801,0.553c0.262,0.539,0.061,1.184-0.461,1.444
	c-14.699,6.48-31.441,6.48-46.141,0c-0.309-0.154-0.506-0.446-0.568-0.783C18.579,18.439,18.981,17.886,19.563,17.81z
	 M30.731,25.122c-1.432,2.458-0.617,5.637,1.855,7.08c2.229,1.306,5.07,0.784,6.666-1.243l1.814-2.273
	c0.078-0.076,0.154-0.171,0.246-0.247c0.676-0.521,1.658-0.431,2.18,0.247l1.813,2.273c1.784,2.242,5.036,2.61,7.28,0.828
	c2.013-1.598,2.535-4.439,1.242-6.667C46.21,26.642,38.362,26.626,30.731,25.122z M1.349,57.759
	c-2.354-3.641-1.322-8.492,2.316-10.844L0.04,26.257c-0.092-0.553-0.029-1.105,0.201-1.613c0.613-1.396,2.242-2.01,3.637-1.396
	l38.494,17.094l38.49-17.094c0.506-0.217,1.061-0.292,1.598-0.199c1.504,0.262,2.504,1.689,2.242,3.209l-3.625,20.66
	c1.705,1.105,2.918,2.826,3.381,4.792c0.967,4.224-1.645,8.433-5.854,9.414l-2.533,14.408c-0.139,0.828-0.662,1.535-1.398,1.934
	L42.372,95.128L10.073,77.466c-0.74-0.398-1.262-1.105-1.4-1.934L6.151,61.125C4.173,60.664,2.452,59.451,1.349,57.759z
	 M44.368,44.198v44.895l26.727-14.606c0.537-0.293,0.906-0.799,0.998-1.383l2.148-12.226c-3.178-1.09-5.297-4.116-5.266-7.481
	c0.043-4.313,3.606-7.786,7.94-7.74l2.362-13.624c0.199-1.06-0.522-2.09-1.582-2.272c-0.401-0.063-0.78-0.016-1.151,0.137
	L44.368,44.198z M8.196,29.898c-0.998-0.445-2.166,0.016-2.611,1.014c-0.152,0.354-0.197,0.737-0.121,1.122L7.843,45.66
	c3.348-0.049,6.373,2.072,7.479,5.251c1.43,4.084-0.721,8.555-4.822,9.967l2.152,12.229c0.092,0.583,0.459,1.09,0.98,1.383
	l26.742,14.606V44.198L8.196,29.898z M24.433,29.238c-0.568-1.857-0.445-3.855,0.305-5.652c0.848,0.261,1.676,0.492,2.521,0.721
	c-1.137,2.289-0.6,5.037,1.273,6.758L24.433,29.238z M56.21,31.064c1.889-1.721,2.412-4.5,1.26-6.788
	c0.844-0.23,1.674-0.477,2.521-0.737c0.768,1.813,0.891,3.824,0.307,5.697L56.21,31.064z" class="color c1"/>
</svg>