<svg version="1.1" id="图层_1" x="0px" y="0px" width="194.8px" height="173.2px" viewBox="0 0 194.8 173.2" enable-background="new 0 0 194.8 173.2" xml:space="preserve" xmlns="http://www.w3.org/2000/svg" xmlns:xlink="http://www.w3.org/1999/xlink" xmlns:xml="http://www.w3.org/XML/1998/namespace">
  <path fill-rule="evenodd" clip-rule="evenodd" fill="#D32A14" d="M194.3,3.2l-1.8-1.6c-0.2-0.2-0.4-0.4-0.6-0.6
	c-0.2-0.1-0.3-0.3-0.5-0.4c-0.7-0.6-1.7-0.8-2.4,0c-0.8,0.8-0.4,1.6-0.1,2.4c-1,1.1-2.1,2.1-3.1,3.2c-1.9,1.9-3.8,3.9-5.7,5.8
	c-5.1,5.2-10.1,10.4-15,15.8c-0.5,0.6-0.6,1.3-0.6,2c0,0,0,0.1,0,0.2c-3.3,3.6-6.6,7.2-10,10.7c-0.5-0.1-1.1,0-1.5,0.5
	c-1.5,1.6-3.1,3.1-4.6,4.8c-0.4,0.5-0.4,0.9-0.5,1.4c-1.2,1.2-2.4,2.4-3.6,3.6c-0.7-0.3-1.4-0.3-2,0.3c-0.4,0.4-0.7,0.9-1.1,1.3
	c-1.4,1.4-2.8,2.9-4.2,4.3c-0.3,0.3-1.2,1.2-1.7,1.7c-1.7-0.8-3.5-1.5-5.2-2.3c-0.4-1.8-1.4-3.8-2.7-4.9c-1-0.8-2.3-1.4-3.6-1.8
	l-0.1-2.3c0.4-0.9,0.8-2.1,0.8-3.1c0.2-0.2,0.5-0.4,0.7-0.6c0.6-0.4,1.2-0.9,1.7-1.4c1.6-1.5,2.5-3.2,2.6-5.4
	c0.1-1.8,0.3-3.6,0.4-5.4c0.1-1.4,0.2-3-1.1-3.9c-0.2-0.1-0.4-0.3-0.7-0.5l-0.1-1.5c1.4-1.3,3.2-3.4,2.5-5.2
	c-0.2-0.5-0.5-0.9-0.9-1.2c-0.5-0.3-1-0.7-1.6-1c0.1-0.4,0.2-0.7,0.3-1.1c0.1-0.5,0.3-1.1,0.5-1.6c0.2-0.4,0.4-0.7,0.6-1.1
	c0.3-0.6,0.6-1.2,0.8-1.9c0.1-0.5,0.2-0.9,0.2-1.4c0-0.7-0.1-1.4-0.4-2c-0.8-1.8-2.4-3.4-4-4.5c-2.9-2-6.3-2.8-9.8-3
	c-4.5-0.2-8.9-0.2-13.1,0.7l-1.068,0.945L103.1,165.1c0.2,0,0.5,0,0.7,0l62.3-23.3c6-4.7,7.8-5.8,12.4-11.1c0-1-0.3-14.5-0.3-15.5
	c0-0.7,0-1.4,0.1-2.1c0-0.3,0-0.7,0.1-1c0-0.3,0-0.5-0.1-0.8c-0.7-2-1.5-3.9-2.3-5.9c-1.7-4.2-3.6-8.4-5.6-12.5
	c-1.1-2.1-2.2-4.2-3.5-6.3c-0.9-1.4-1.2-3-1.4-4.7c-0.3-1.7-0.5-3.5-1.3-5c-0.4-0.7-1.6-1.6-2.3-2.1l-0.1-0.1c0.2,0,0.4,0.1,0.6,0.1
	c1.1,0.3,2.4,0.6,3.5,0.7c2.4,0.2,4.6-3.6,5.5-5.4c0.7-1.3,1.3-2.7,1.7-4c0.4-1.2,0.7-3-0.6-3.9c-0.3-0.2-0.6-0.3-0.9-0.3
	c-0.4,0-0.8-0.1-1.1-0.2c-0.7-0.1-1.4-0.3-2.2-0.4c-2-0.4-4-0.8-6-1.2c-1.6-0.3-3.2-0.7-4.8-1c3.4-4,6.8-8.6,8.7-13.2
	c0.6-1.5,2-2.8,3.2-3.9c0.7-0.7,1.5-1.4,2.1-2.1c0.7-0.8,1.5-1.5,1.8-2.6c0.3-1.3-0.4-2.5-1.3-3.6l6.5-7.1c0.2-0.2,0.3-0.5,0.4-0.8
	l0.3-1.5l14.3-18.2c0.3-0.1,0.6-0.3,0.8-0.5l0.4-0.5C195,4.6,194.9,3.7,194.3,3.2z" class="color c1"/>
  <path fill-rule="evenodd" clip-rule="evenodd" fill="#0A0C9D" d="M96.5,4.6c-1.2,0.6-3,2.7-3.9,3.7c-1.8,2.1-3.6,4.2-5.4,6.4
	c-1.9,2.4-3.8,4.8-5.7,7.2c-0.6,0.8-1.2,1.6-1.9,2.4c-0.4,0.5-1,1.2-1,1.9c0,0.7-0.1,1.5-0.1,2.2c-2.3,0.5-4.7,1.3-6.7,2.2
	c-1.9,0.9-3.8,2-5.7,3c-1.8,1-3.6,2.1-5.4,3.2l-4.6-6.4c-0.3-0.4-0.6-0.6-1.1-0.6c-0.5-0.1-0.9,0.1-1.2,0.4c-2.5,2-4.9,4-7.4,6
	c-1.5,1.2-3,2.4-4.5,3.6c-0.9,0.7-1.8,1.4-2.7,2.1c-0.5,0.4-1.5,0.7-2.1,1c-1.2,0.5-2.5,0.9-3.7,1.3c-1.1,0.4-2.3,0.8-3.4,1.2
	c-0.9,0.3-1.8,0.6-2.7,1.1c-1,0.5-2,1.4-2.8,2.1c-1.1,1-2.1,2-3.2,3c-0.8,0.8-4.1,4-5.1,4.4c-2.6,0-7.3,2.8-8.2,5.1
	c-0.1,0.2-0.3,0.5-0.4,0.7c-0.3,0.5-0.6,1-0.8,1.4C6,64.5,5.2,65.7,4.4,67c-0.8,1.2-1.5,2.4-2.3,3.5c-0.5,0.8-1.1,1.7-1.5,2.6
	c-1.5,3,0.5,8,2.1,10.7c0.6,1,1.4,2,2.2,2.9C5.9,87.9,7,89,8.1,90c1.9,1.7,4.9,4.2,7.5,4.5c3.2,0.5,6.4,2.7,9.1,4.4
	c0.3,0.2,0.4,0.4,0.6,0.6c0.6,0.7,1.3,1,2.2,1.1c1.3,0.2,3,0.2,4.3,0.1c2.8-0.1,5.8,0,8.6,0.2c3.5,0.2,7.1,0.4,10.6,0.7
	c0.4,0.5,0.7,1.1,1,1.5c0.7,1.1,1.3,2.3,1.8,3.6c0.5,1.1,0.9,2.5,0.9,3.8s-0.3,2.5-0.6,3.8c-0.5,2.4-0.7,4.2-0.2,6.6
	c0.3,1.3,1.2,2.7,1.9,3.8c0.5,0.7,1.3,1.9,1.5,2.7c1.1,3.8,1.3,7.4,1.2,11.3c0,0.9-1.3,9.7-1.3,10.5c2.1,1.1,3.6,4.2,5.8,5.2
	l39.9,10.5l0.2-162.7C101,2.7,98.6,3.5,96.5,4.6z M95.1,52c-1.6,0.9-3.4,2.3-4,3.9c-0.3,0.4-1.8,1-2.3,1.1c-0.8,0.3-1.6,0.5-2.5,0.7
	c-0.7-0.8-1.6-1.4-2.6-1.5c-0.8-0.1-2,0.1-2.8,0.2c-1.3,0.2-2.5,0.4-3.8,0.6c-1.2,0.2-2.3,0.4-3.5,0.6c-0.6,0.1-1.5,0.2-2.1,0.2
	c-0.8,0-1.8-0.4-2.5-0.9c-0.2-0.2-0.5-0.3-0.8-0.4l-7-1.1c0.3-0.2,0.7-0.5,1-0.7c0.7-0.4,1.5-1,2.1-1.5c0.5-0.5,1.1-1.1,1.6-1.8
	c2.4-0.1,5.5-0.7,7.2-2.1c1.1-1,2-2.2,2.3-3.6c0-0.1,0.1-0.2,0.1-0.4c2.4-0.5,5.8-1.4,7.2-2.7c0.5-0.5,1-1.1,1.6-1.6
	c0.7-0.7,1.9-1.9,2.5-3.1c0.2,0.7,0.6,1.4,1,2c0.3,0.3,0.5,0.7,0.7,1c0.7,1.2,1.3,2.8,2.8,3.2c0.1,0,0.1,0,0.2,0
	c0.2,0.6,0.4,1.7,0.5,2c0.3,1.1,0.7,2.2,1.5,3c0.5,0.5,1.2,1.3,1.6,2L95.1,52z" class="color c2"/>
  <path fill-rule="evenodd" clip-rule="evenodd" fill="#FFFFFF" d="M191.4,2.7c0,0-1.1-1.1-1.2-1.1c-0.1,0.1,0.8,1.5,0.4,1.9
	c-3.1,3.3-13.7,13.7-24.3,25.3c-0.4,0.4,0,1.5-0.4,1.9c-3.7,4-7.4,8-10.9,11.7c-0.1,0.1-0.8-0.3-0.9-0.2c-1.6,1.6-3.2,3.2-4.5,4.8
	c-0.2,0.3,0,1-0.2,1.2c-1.7,1.7-3.2,3.3-4.7,4.7c-0.2,0.2-1.1-0.7-1.3-0.5c0,0-0.9,1.1-1.1,1.3c-4.1,4-6.3,6.9-7.1,6.6
	c-3.8-1.7-6.5-2.8-6.5-2.8s-0.5-3.4-2.3-4.8c-1.8-1.4-4.2-1.8-4.2-1.8L122,47c0,0,0.9-1.7,0.9-3.1c0-1.4,4.8-2.6,5-7.1
	c0.1-4.5,1-7.3,0-8c-1-0.7-1.3-0.8-1.3-0.8l-0.1-3.1c0,0,3.9-3.3,2.3-4.4c-1.6-1.1-2.5-1.5-2.5-1.5s0.6-3.1,1.1-4.1s2.1-3.2,1.2-5.1
	c-0.9-1.9-4.3-6.1-12.4-6.6c-5.2-0.3-9.4-0.1-13,0.7C101,4.3,99.1,5,97.3,6c-2.6,1.4-17,20.1-17,20.2c0,1.2-0.3,3.5-0.3,3.5
	s-4,0.7-7.5,2.4C69,33.7,60.3,39,60.3,39l-5.5-7.6c0,0-12.8,10.5-14.6,11.8c-1.8,1.3-9.6,3.4-12.2,4.7c-2.5,1.2-9.7,9.7-11.7,9.7
	c-2.1-0.1-6.2,2.5-6.8,4.1C8.8,63.3,3.1,71.8,2,73.9c-1.1,2.2,0.4,6.5,2.1,9.2c1.6,2.7,8,9.5,11.8,10s8.2,3.6,9.8,4.6
	c1.5,0.9,0.3,1.9,6.2,1.6s20.1,0.9,20.1,0.9c0.6,0.4,4.6,6.3,4.6,10.3c0,3.7-1.7,5.7-0.7,10c0.4,1.9,2.9,4.6,3.4,6.5
	c2.5,8.8,0.6,15.8,0.8,20.5c0.1,1.2,2.7,2.9,2.8,3.7l0.1-0.1v0.1c0.6,2.3,23,19.6,42.3,21.8c3.4,0.4,8.2-3.2,11.4-3.4
	c10.7-0.7,18.6-13.1,21.8-13.4c6.1-0.5,15.9-10.4,22.6-14.9c8.3-5.6,12.9-5.1,14.8-12c1-3.5,0.8-16,1.1-17.6c0,0-5.2-14.5-11.3-24.3
	c-2.1-3.4-1.4-7.4-2.8-9.6c-0.7-1.2-11.4-8.1-11.3-8.1c3.3,1.6,12.1,4.2,14.4,4.4c2.3,0.2,7.3-10.3,5.5-10.5
	c-1.4-0.2-12.2-2.5-16.8-3.5c4.1-4.7,8.2-9.9,10.1-14.7c1-2.6,3.7-4.3,5.6-6.5c1.5-1.7,2.6-2.1-0.5-5.1l7.5-8.2l0.4-1.9l15-19h0.4
	l0.4-0.5L191.4,2.7z M96.7,52.9c0,0-3.4,1.6-4.1,3.5c-0.6,1.9-7.1,3.1-7.1,3.1s-0.5-1.5-2-1.7s-10,1.6-12,1.6S68,58.1,68,58.1
	l-8.4-1.4l-2.1,2H53c0,0,8.9-5.4,10.3-6.6c1.4-1.2,1.7-2.2,1.7-2.2s4.9,0.1,7.1-1.8C74.4,46.2,74,44,74,44s6-0.9,7.6-2.5
	c1.5-1.6,4-3.9,4-4.7s0.7-1.9,2.5-1.6c0,0-0.1,2.4,1,3.7c1.2,1.4,1.7,3.8,3.1,3.7c1.3-0.1,1,3.9,2.5,5.4s2.1,2.8,2.1,2.8L96.7,52.9z
	" class="color c3"/>
</svg>