<svg version="1.1" id="图层_1" x="0px" y="0px" width="110.023px" height="104.86px" viewBox="0 0 110.023 104.86" enable-background="new 0 0 110.023 104.86" xml:space="preserve" xmlns="http://www.w3.org/2000/svg" xmlns:xlink="http://www.w3.org/1999/xlink" xmlns:xml="http://www.w3.org/XML/1998/namespace">
  <path fill="#FFFFFF" d="M105.311,36.451c-2.496,0-4.533,1.944-4.697,4.399l-32.869-1.23L56.545,9.089
	c1.738-0.695,2.967-2.39,2.967-4.375C59.512,2.112,57.4,0,54.797,0s-4.714,2.112-4.714,4.714c0,1.991,1.234,3.689,2.98,4.381
	L41.865,39.62L9.41,40.835c-0.17-2.448-2.204-4.384-4.697-4.384C2.109,36.451,0,38.563,0,41.165c0,2.604,2.109,4.714,4.713,4.714
	c1.457,0,2.76-0.661,3.623-1.7l25.533,20.055l-8.916,31.385c-0.412-0.119-0.848-0.186-1.299-0.186c-2.604,0-4.713,2.111-4.713,4.714
	c0,2.604,2.109,4.714,4.713,4.714c2.604,0,4.715-2.109,4.715-4.714c0-0.915-0.266-1.765-0.715-2.488l27.15-18.214l27.24,18.274
	c-0.426,0.71-0.678,1.538-0.678,2.428c0,2.604,2.11,4.714,4.713,4.714s4.713-2.109,4.713-4.714c0-2.603-2.11-4.714-4.713-4.714
	c-0.494,0-0.969,0.077-1.416,0.219l-8.923-31.418l25.793-20.256c0.859,1.152,2.228,1.901,3.776,1.901
	c2.603,0,4.713-2.11,4.713-4.714C110.025,38.563,107.914,36.451,105.311,36.451z" class="color c1"/>
</svg>