<svg version="1.1" id="图层_1" x="0px" y="0px" width="164.7px" height="202.4px" viewBox="0 0 164.7 202.4" enable-background="new 0 0 164.7 202.4" xml:space="preserve" xmlns="http://www.w3.org/2000/svg" xmlns:xlink="http://www.w3.org/1999/xlink" xmlns:xml="http://www.w3.org/XML/1998/namespace">
  <path fill="#015676" d="M152,137.5c-0.5-0.1-1.9-0.5-2.3-0.8c-0.6-0.4-1.2-0.9-1.8-1.2c-1.3-0.8-2.7-1.5-4-2.2
	c-0.5-0.3-0.7-0.1-0.9,0.4c-0.4,0.8-0.7,1.6-1.2,2.3c-1.1,1.9-2.5,3.6-4.3,4.9c0.1-0.2,0.3-0.5,0.4-0.7c1.5-2.8,1.6-5.7,0.3-8.7
	c-0.7-1.5-1.7-2.8-2.8-3.9c-1-1-2-2-3.1-2.8c-3.1-2.2-6.6-3.8-10.1-5.3c-0.2-0.1-0.4-0.4-0.4-0.6c0-0.7,0-1.3,0.1-2
	c0.4-4.1,0.8-8.2,1.3-12.3c0-0.4,0.2-0.7,0.4-1c1-1.4,2.1-2.7,3.1-4.2c1-1.4,1.6-3,2-4.7c0.9-3.8,1.9-7.6,2.8-11.4
	c0.1-0.5,0.5-0.9,0.9-1.1c3.4-1.5,6.7-3.2,9.6-5.6c2.6-2.1,4.5-4.6,4.9-8c0.3-2.9-0.3-5.7-1.5-8.4c-0.2-0.4-0.3-1-0.4-1.5
	c-0.2-4.8-0.8-9.6-2-14.3c-3.4-13.1-10.1-24.1-20.6-32.6c-12.3-9.9-26.3-13.6-41.9-11C69.9,2.6,60.7,7.6,53,15.1
	C40.7,27,34.8,41.7,34.1,58.7c0,0.4-0.1,0.9-0.3,1.3c-3.1,7.3-1.9,12.5,3.6,16.8c1.4,1.1,2.9,2,4.4,2.9C30.5,85.6,14.5,96.2,4,102.1
	c-2,1.1-3.8,9.5-4,11.3c0,0,4.8,19,16.4,36.7c7.9,16.9,38.9,36.6,52.5,44.2c9.3,6.2,21.8,8.2,21.8,8.2c11.8,0,34.6-13.2,34.6-13.2
	c8.6-4.9,32.5-29.2,38.3-37.2C167,147.6,161.8,138.8,152,137.5z M44.8,98.4c1.4-0.3,2.5-2.5,3.5-4c0.5-0.8,1.1-1.4,1.7-1.8v0.1
	c0.7,3.7,2.3,6.8,4.7,9.6c0.3,0.4,0.7,0.8,1,1.2c0.2,0.3,0.3,0.6,0.4,0.9c0.2,1.7,0.3,3.5,0.5,5.2c-0.5,3-3.1,4.7-5,7.3
	c-8.3,11.1-5.1,3.4-16.8,5.4c-1.5-3.3-13.3,5.3-15.2,1.3C30.1,117.4,31.4,101.6,44.8,98.4z" class="color c1"/>
  <path fill="#FFFFFF" d="M115.5,117.5c-0.1,0.7-0.1,1.5-0.2,2.2c-0.7,7.3-1.4,14.5-2.1,21.8c0,0.4-0.3,1-0.7,1.3
	c-2.2,1.5-4.3,3.2-6.7,4.5c-5.6,3.1-11.5,5.6-17.5,7.8c-0.3,0.1-0.8,0.2-1.1,0.1c-7.3-2.7-14.4-5.7-21.1-9.8
	c-1.2-0.8-2.3-1.7-3.4-2.6c-0.3-0.2-0.5-0.7-0.6-1c-0.6-6.2-1.2-12.5-1.8-18.7c-0.1-1.5-0.3-2.9-0.4-4.4c0-0.3-0.1-0.7-0.1-1
	c0.1,0,0.2-0.1,0.2-0.1c2.5,2.7,2,3.2,7.1,8.5l9.1,6.3c7.6,1.2,15.2,1.2,22.8,0l7.8-4.3c3.2-3.2,3.8-4.4,5.6-6.9
	C113.3,119.9,114.3,118.5,115.5,117.5z M141.5,63.3c-1.6-1.9-3.4-3.5-5.5-4.9c-4.7-3.1-10-4.5-15.5-5.1c-5.4-0.6-10.7-0.6-16.1-0.3
	c-9,0.5-17.9,0.6-26.9,0.1c-3.4-0.2-6.8-0.3-10.2-0.3c-5.2,0-10.4,0.4-15.5,1.8c-5.5,1.5-10.3,4.1-14.1,8.5
	c-0.2,0.2-0.4,0.5-0.6,0.8c0.3,0,0.4-0.1,0.5-0.2c4.6-3.4,9.7-5.5,15.3-6.5c4.1-0.7,8.2-1,12.4-0.8c1.9,0.1,3.9,0,5.8,0.1
	c3.7,0.1,7.4,0.3,11.2,0.4c1.7,0.1,3.4,0.2,5.2,0.2c2.7,0,5.4-0.1,8.2-0.2c2.5-0.1,5.1-0.2,7.6-0.3c3.3-0.1,6.6-0.3,9.9-0.3
	c2.1,0,4.1,0,6.2,0.1c4.7,0.3,9.3,1,13.8,2.7c3.1,1.2,6,2.8,8.7,4.7C141.8,63.7,141.7,63.5,141.5,63.3z M103.9,79.1
	c0.1,0.6,0.3,1.2,0.5,2.1c-5.6-1-6.1-1.4-13.5-7.7c-1-0.8-2.7-1.4-3.9-1.1c-0.9,0.2-2.1,1.9-2.4,3c-0.6,2.6-0.8,4.9-0.8,8
	c0.1,4.6,1.7,9.3,5.7,9.4c6.9,0.1,7-4,6.9-9.1c4.1,3.1,7,8.9,13.4,5.3c3.8-2.2,6.4-7.5,5.9-11.8C111.8,77.9,107.9,78.5,103.9,79.1z
	 M78.4,79.3c-2.5,0-5,0.1-7.6,0c-2.5-0.1-5-0.4-7.4-0.6c-0.7,5.7,1.1,8.7,5.3,9.3C74.1,88.6,77.5,85.6,78.4,79.3z M82,7.1
	c-33.4,7.4-41,46.2-41,46.2c5-3.4,12.7-5.8,12.7-5.8C60.2,15,82,7.1,82,7.1z" class="color c2"/>
</svg>