<svg version="1.1" id="图层_1" x="0px" y="0px" width="82.132px" height="77.307px" viewBox="0 0 82.132 77.307" enable-background="new 0 0 82.132 77.307" xml:space="preserve" xmlns="http://www.w3.org/2000/svg" xmlns:xlink="http://www.w3.org/1999/xlink" xmlns:xml="http://www.w3.org/XML/1998/namespace">
  <path id="XMLID_64_" fill="#072689" d="M39.249,77.307H2.763v-44.94h36.486V77.307z M6.062,74.012h29.895V35.664H6.062V74.012z" class="color c1"/>
  <path fill="#072689" d="M82.132,0H59.71l0.146,1.649h-17.51c0,0-34.33,14.333-35.768,15.563c-2.168,1.856-5.053,18.325-6.082,24.739
	c-2.268,14.122,3.961,4.732,3.961,4.732l11.395-12.668C32.86,20.409,44.3,23.71,43.374,29.066
	c-1.086,6.283-5.461,12.269-5.461,12.269l-0.313,11.441c0,0,15.457-7.535,25.235-23.915h19.296V0z M78.831,25.563H65.294
	L63.317,3.298h15.514V25.563z" class="color c1"/>
</svg>