<svg version="1.1" id="图层_1" x="0px" y="0px" width="157.448px" height="20.316px" viewBox="0 0 157.448 20.316" enable-background="new 0 0 157.448 20.316" xml:space="preserve" xmlns="http://www.w3.org/2000/svg" xmlns:xlink="http://www.w3.org/1999/xlink" xmlns:xml="http://www.w3.org/XML/1998/namespace">
  <rect id="XMLID_822_" fill="#072689" width="157.448" height="20.316" class="color c1"/>
  <polygon id="XMLID_1033_" fill="#FFFFFF" points="22.202,4.962 23.891,8.383 27.665,8.932 24.935,11.594 25.579,15.353 
	22.202,13.578 18.826,15.353 19.471,11.594 16.74,8.932 20.514,8.383 " class="color c2"/>
  <polygon id="XMLID_1032_" fill="#FFFFFF" points="58.576,4.962 60.265,8.383 64.039,8.932 61.308,11.594 61.953,15.353 
	58.576,13.578 55.2,15.353 55.846,11.594 53.113,8.932 56.889,8.383 " class="color c2"/>
  <polygon id="XMLID_1061_" fill="#FFFFFF" points="97.002,4.962 98.69,8.383 102.465,8.932 99.734,11.594 100.379,15.353 
	97.002,13.578 93.627,15.353 94.271,11.594 91.54,8.932 95.313,8.383 " class="color c2"/>
  <polygon id="XMLID_1060_" fill="#FFFFFF" points="135.246,4.962 136.934,8.383 140.709,8.932 137.978,11.594 138.622,15.353 
	135.246,13.578 131.87,15.353 132.515,11.594 129.783,8.932 133.559,8.383 " class="color c2"/>
</svg>