<svg version="1.1" id="图层_1" x="0px" y="0px" width="121.933px" height="80.24px" viewBox="0 0 121.933 80.24" enable-background="new 0 0 121.933 80.24" xml:space="preserve" xmlns="http://www.w3.org/2000/svg" xmlns:xlink="http://www.w3.org/1999/xlink" xmlns:xml="http://www.w3.org/XML/1998/namespace">
  <path fill="#111111" d="M24.397,31.756c28.092-4.809,52.883-13.129,72.564-21.422c3.357,15.992-3.942,32.943-19.041,41.143
	c-5.766,3.131-11.984,4.611-18.12,4.604c4.24-3.826,5.506-10.164,2.658-15.406c-3.332-6.139-11.01-8.416-17.154-5.08
	c-5.243,2.848-7.63,8.854-6.158,14.369C34,46.629,29.587,41.998,26.455,36.23C25.66,34.766,24.983,33.27,24.397,31.756z
	 M86.011,66.367c-26.604,14.447-60.003,4.555-74.449-22.051c-1.777-3.273-3.182-6.65-4.236-10.08
	c-0.247,0.045-0.492,0.09-0.741,0.135c-1.552,0.154-3.077,0.287-4.568,0.396C1.352,34.814,0.678,34.857,0,34.898
	c1.23,4.383,2.946,8.699,5.209,12.867c16.349,30.107,54.144,41.303,84.252,24.953C115.823,58.404,127.684,27.645,119.25,0
	c-2.086,1.061-4.284,2.15-6.593,3.262C119.441,27.387,108.942,53.916,86.011,66.367z" class="color c1"/>
</svg>