<svg version="1.1" id="图层_1" x="0px" y="0px" width="65.44px" height="73.509px" viewBox="0 0 65.44 73.509" enable-background="new 0 0 65.44 73.509" xml:space="preserve" xmlns="http://www.w3.org/2000/svg" xmlns:xlink="http://www.w3.org/1999/xlink" xmlns:xml="http://www.w3.org/XML/1998/namespace">
  <g>
    <path fill="#EFCC60" d="M63.626,23.055c-0.017-0.123-0.012-0.253-0.009-0.384c0.01-0.479,0.024-1.205-0.736-1.694
		c-0.348-0.224-0.733-0.229-1.043-0.233c-0.457-0.006-0.525-0.033-0.606-0.238l-0.12-0.302l-0.324-0.013
		c-1.147-0.048-2.246,0.188-3.305,0.413c-0.787,0.167-1.53,0.326-2.292,0.379c-0.171,0.012-0.285,0.1-0.346,0.157
		c-1.572,0.888-2.729,1.771-3.641,2.775c-0.164,0.182-0.394,0.336-0.637,0.5c-0.533,0.359-1.197,0.805-1.499,1.778l-0.345,1.167
		l1.083-0.592c0.882-0.482,1.519-0.83,2.282-0.969c0.354-0.064,0.714-0.085,1.096-0.107c0.269-0.015,0.536-0.031,0.8-0.062
		c0.428-0.049,0.861-0.129,1.295-0.21c1.085-0.202,2.138-0.351,2.942-0.116c0.481,0.141,0.941,0.209,1.407,0.209
		c0.833,0,1.64-0.216,2.688-0.734C62.857,24.515,63.76,24.072,63.626,23.055z" class="color c1"/>
    <path fill="#EFCC60" d="M43.938,20.75c0.005-0.108,0.016-0.324-0.099-0.526c0.056-0.038,0.099-0.079,0.131-0.117
		c0.2-0.235,0.167-0.52,0.142-0.731c0.346-3.148,0.327-6.044-0.058-8.854c-0.013-0.094-0.002-0.214,0.01-0.342
		c0.03-0.335,0.071-0.795-0.273-1.246c-0.542-0.712-0.859-1.55-1.194-2.437l-0.238-0.618c-0.574-1.452-1.263-2.593-2.108-3.489
		c-0.522-0.554-1.182-0.784-1.84-0.644c-0.37,0.079-0.985,0.39-0.947,1.589c0.013,0.396-0.055,0.797-0.133,1.26
		c-0.074,0.437-0.157,0.933-0.187,1.517l-0.004,0.086l0.025,0.083c0.082,0.27,0.151,0.576,0.225,0.9
		c0.197,0.86,0.42,1.834,0.936,2.678c0.426,0.696,0.818,1.412,1.21,2.126c0.399,0.728,0.798,1.456,1.231,2.165
		c0.8,1.307,1.23,2.859,1.646,4.361c0.095,0.341,0.189,0.682,0.288,1.075c0.004,0.141,0.026,0.255,0.062,0.35l-0.441,0.143
		l0.174,0.544c0.055,0.234,0.156,0.671,0.818,0.904l1.089,0.386l-0.464-1.056C43.934,20.841,43.936,20.787,43.938,20.75z" class="color c1"/>
  </g>
  <path fill="#432918" d="M31.06,34.826c0.015-0.032,0.022-0.077,0.011-0.108c-0.37-1.031,0.13-1.993,0.23-2.987
	c0.127-1.256,0.222-2.502,0.18-3.781c-0.036-1.095,0.224-2.189,0.098-3.338c-0.192-1.758-1.147-3.182-1.78-4.733
	c-0.942-2.305-2.47-4.225-4.511-5.718c-1.267-0.927-2.73-1.051-4.197-1.201c-1.436-0.146-2.816,0.311-4.106,0.759
	c-1.243,0.431-2.27,1.389-3.169,2.45c-1.327,1.563-2.103,3.42-2.922,5.235c-0.521,1.156-0.141,2.549-0.428,3.786
	c-0.354,1.525,0.495,2.697,1.084,3.866c0.396,0.783,1.405,1.265,2.159,1.858c1.535,1.209,3.205,0.513,4.799,0.233
	c1.575-0.276,2.669-1.252,3.338-2.751c0.367-0.822,0.283-3.012-0.325-3.581c-0.906-0.846-2.8-0.278-3.354,0.585
	c-0.256,0.397-0.336,0.96-0.968,0.682c-0.643-0.283-0.916-0.803-0.698-1.525c0.314-1.042,1.128-1.736,1.932-2.287
	c1.548-1.061,4.982-0.146,6.015,1.452c2.06,3.188,1.136,6.598-2.044,8.753c-1.187,0.804-2.312,1.503-3.689,1.863
	c-1.549,0.404-2.975,0.222-4.434-0.441c-1.542-0.7-2.86-1.703-3.888-2.965c-1.073-1.318-2.114-2.793-1.966-4.647
	c0.094-1.166-0.208-2.286-0.181-3.444c0.041-1.707,0.081-3.374,1.498-4.594c0.413-0.356,0.086-0.803,0.341-1.237
	c1.196-2.032,2.918-3.52,4.664-5.032c1.253-1.086,2.594-1.682,4.231-1.619c1.102,0,2.25,0.098,3.214,0.394
	c1.951,0.599,4.033,0.732,5.716,2.391c1.435,1.413,2.954,2.704,3.89,4.493c0.665,1.27,1.156,2.62,1.531,4.038
	c0.294,1.11,0.37,2.333,1.063,3.354c0.353,0.519,0.202,1.221-0.012,1.748c-0.167,0.41-0.187,0.705-0.057,1.094
	c0.519,1.549-0.502,3.022-0.325,4.489c0.242,1.997-0.676,3.755-0.79,5.679c-0.087,1.489-0.307,3.122-1.169,4.485
	c-1.19,1.882-1.746,4.151-3.359,5.761c-0.885,0.881-0.771,2.188-1.476,3.043c-1.152,1.398-1.908,3.059-3.556,4.164
	c-1.246,0.836-2.251,2.154-3.519,3.096c-1.281,0.949-2.513,1.967-3.814,2.887c-0.265,0.188-0.671,0.426-0.729,0.602
	c-0.298,0.92-1.265,0.855-1.847,1.355c-1.379,1.18-3.321,1.492-4.701,2.664c-0.744,0.633-1.628,0.559-2.41,0.893
	c-1.148,0.492-2.216,1.348-3.571,1.305c-0.311-0.01-0.754,0.09-0.901-0.072c-0.247-0.275-0.761-0.42-0.7-0.887
	c0.056-0.428,0.38-0.746,0.798-0.813c1.746-0.279,3.247-1.205,4.878-1.777c0.599-0.211,0.942-0.688,1.441-0.951
	c1.68-0.889,2.869-2.49,4.642-3.209c1.007-0.408,1.803-1.137,2.761-1.625c0.553-0.281,0.796-1.084,1.282-1.59
	c0.218-0.227,0.437-0.502,0.677-0.43c0.958,0.285,1.406-0.451,1.718-1.002c0.557-0.979,1.537-1.465,2.229-2.268
	c0.755-0.877,1.53-1.654,1.813-2.9c0.21-0.92,1.362-1.42,1.761-2.367c0.524-1.244,1.82-2.072,1.917-3.563
	c0.011-0.174,0.392-0.297,0.532-0.492c1.142-1.587,1.689-3.422,2.308-5.252C30.693,37.687,30.445,36.178,31.06,34.826z
	 M57.953,35.97c-0.031-0.018,0.016-0.144-0.01-0.204c-0.463-1.085-1.168-2.008-2.107-2.696c-2.254-1.65-4.807-0.886-7.213-0.637
	c-1.813,0.187-3.139,1.692-4.723,2.535c-0.699,0.373-1.397,0.78-1.772,1.505c-1.059,2.049-3.037,3.298-4.387,5.104
	c-0.984,1.317-2.23,2.456-2.717,4.078c-0.434,1.441-1.483,2.539-2.212,3.779c-0.676,1.152-1.771,2.23-2.775,3.25
	c-0.975,0.99-1.996,1.951-2.931,2.965c-0.95,1.027-1.951,2.082-2.676,3.283c-0.864,1.43-2.548,1.949-3.415,3.387
	c-0.229,0.379-0.77,1.082-1.395,1.1c-0.725,0.023-1.373,0.451-1.688,0.797c-0.799,0.875-1.884,1.232-2.766,1.924
	c-0.966,0.758-2.068,1.295-3.2,1.828c-1.671,0.789-3.245,1.775-5.07,2.205c-0.748,0.178-1.595,0.141-2.242,0.49
	c-1.164,0.627-2.404,0.822-3.657,1.039c-0.358,0.063-0.868-0.252-0.98,0.379c-0.109,0.613,0.354,0.771,0.799,1
	c1.683,0.857,3.391,0.234,4.947-0.17c1.979-0.516,3.778-1.68,5.763-2.273c1.383-0.414,2.46-1.461,3.85-1.789
	c1.963-0.463,3.517-1.529,4.791-3.029c0.521-0.615,0.88-1.391,1.886-1.258c0.042,0.006,0.099-0.152,0.161-0.225
	c0.466-0.543,1.014-0.988,1.573-1.434c0.723-0.578,1.452-1.191,2.014-1.918c0.638-0.822,1.25-1.646,2.062-2.311
	c0.868-0.711,1.563-1.609,2.373-2.359c1.055-0.979,1.751-2.188,2.543-3.32c0.775-1.107,1.463-2.393,2.566-3.055
	c1.47-0.883,1.843-2.496,2.978-3.584c0.841-0.807,1.117-2.17,1.827-3.153c1.16-1.607,2.118-3.373,3.579-4.755
	c0.733-0.693,1.562-1.331,2.377-1.846c1.062-0.67,2.323-1.127,3.599-1.431c1.414-0.336,2.932-0.764,4.174,0.078
	c2.006,1.356,2.635,3.548,3.031,5.859c0.123,0.713-0.711,0.317-0.545,0.806c0.596,1.75-0.621,2.598-1.646,3.699
	c-0.951,1.021-2.008,1.758-3.215,2.348c-1.189,0.584-2.947-0.031-3.059-1.072c-0.27-2.533,0.586-3.63,2.887-4.861
	c0.359-0.193,1.049-0.07,0.959-0.818c-0.078-0.64-0.494-0.95-1.07-1.094c-1.316-0.33-3.681,0.728-4.43,1.89
	c-1.169,1.814-1.163,3.75-0.588,5.703c0.733,2.49,0.92,2.578,3.303,2.727c1.406,0.086,2.777,0.162,4.158-0.375
	c1.877-0.729,2.797-2.459,3.795-3.879c1.133-1.613,2.193-3.563,1.734-5.833C58.814,38.905,59.779,37.041,57.953,35.97z
	 M35.313,6.596c-0.237-1.279-0.414-2.57,0.092-3.872c0.317-0.814,0.901-1.431,1.327-2.16c0.303-0.52,0.857-0.655,1.523-0.511
	c1.14,0.246,2.346,0.116,3.386,0.862c1.266,0.909,1.908,2.234,2.6,3.542c0.015,0.029-0.003,0.075,0.012,0.103
	c0.842,1.536,1.055,3.298,1.694,4.917c0.269,0.679,0.581,1.656,0.334,2.688c-0.257,1.069,0.212,2.285,0.278,3.457
	c0.139,2.404-0.328,4.613-1.221,6.838c-0.428,1.063-0.728,2.171-1.374,3.135c-0.522,0.779-1.031,1.572-1.613,2.306
	c-0.259,0.327-0.692,0.339-1.12,0.185c-0.681-0.246-0.427-0.837-0.544-1.234c0.15-1.639,0.195-3.212,0.189-4.796
	c-0.004-0.947-0.397-1.74-0.634-2.544c-0.463-1.577-0.849-3.209-1.626-4.692c-0.234-0.446-0.375-0.955-0.48-1.451
	c-0.121-0.574-0.47-1.024-0.693-1.518C36.662,10.133,35.662,8.479,35.313,6.596z M43.479,21.055
	c-0.129-0.293,0.106-0.567-0.234-0.706c-0.079-0.032-0.194,0.027-0.293,0.045C43.021,20.612,42.993,20.884,43.479,21.055z
	 M37.643,6.137c0.291,0.966,0.442,2.371,1.108,3.461c0.859,1.405,1.582,2.886,2.441,4.291c1.018,1.665,1.44,3.625,1.987,5.501
	c0.056,0.191-0.058,0.474,0.234,0.46c0.338-0.015,0.179-0.338,0.2-0.529c0.32-2.913,0.342-5.83-0.056-8.732
	c-0.061-0.442,0.177-0.904-0.166-1.354c-0.72-0.945-1.065-2.077-1.499-3.174c-0.476-1.203-1.096-2.363-2.006-3.329
	c-0.381-0.404-0.858-0.608-1.372-0.498c-0.535,0.114-0.563,0.729-0.552,1.084C37.991,4.167,37.703,4.965,37.643,6.137z
	 M65.38,22.813c-0.568,2.56-2.445,3.61-4.691,4.459c-2.104,0.796-4.184,0.234-6.271,0.31c-2.402,0.087-4.822,0.087-7.123,0.975
	c-0.321,0.124-0.631,0.313-1.025,0.284c-0.351-0.026-0.722,0.359-1.034-0.158c-0.321-0.532-0.194-1.018,0.124-1.434
	c1.82-2.375,3.752-4.68,6.117-6.507c0.75-0.58,1.912-0.809,2.865-1.226c1.691-0.739,3.387-1.361,5.492-1.406
	c1.152-0.27,2.43,0.364,3.744,0.578C64.761,18.881,65.689,21.427,65.38,22.813z M63.13,23.12c-0.074-0.571,0.188-1.267-0.52-1.723
	c-0.58-0.374-1.49,0.184-1.844-0.707c-1.896-0.077-3.676,0.662-5.543,0.792c-0.029,0.002-0.055,0.049-0.086,0.066
	c-1.313,0.737-2.551,1.585-3.563,2.702c-0.602,0.665-1.65,0.869-2.029,2.09c0.922-0.504,1.604-0.879,2.453-1.033
	c0.645-0.117,1.297-0.101,1.928-0.173c1.477-0.17,3.02-0.723,4.436-0.309c1.393,0.407,2.512,0.111,3.662-0.458
	C62.535,24.114,63.222,23.814,63.13,23.12z" class="color c2"/>
</svg>