<svg version="1.1" id="图层_1" x="0px" y="0px" width="176.161px" height="166.671px" viewBox="0 0 176.161 166.671" enable-background="new 0 0 176.161 166.671" xml:space="preserve" xmlns="http://www.w3.org/2000/svg" xmlns:xlink="http://www.w3.org/1999/xlink" xmlns:xml="http://www.w3.org/XML/1998/namespace">
  <g>
    <path fill="#FFC43C" d="M63.178,164.694c5.086,1.464,13.963,4.455,18.883-2.026C76.508,162.533,65.307,158.877,63.178,164.694z" class="color c1"/>
    <path fill="#FFC43C" d="M66.402,154.322c0.365,6.583,9.875,7.314,15.725,8.046C80.863,156.717,72.652,155.885,66.402,154.322z" class="color c1"/>
    <path fill="#FFC43C" d="M47.885,158.645c4.754,2.394,12.932,6.948,18.916,1.463C61.383,158.977,51.043,153.325,47.885,158.645z" class="color c1"/>
    <path fill="#FFC43C" d="M66.936,159.841c-0.201-5.784-8.145-8.111-13.996-10.805C52.074,155.619,61.316,158.046,66.936,159.841z" class="color c1"/>
    <path fill="#FFC43C" d="M33.822,149.602c4.189,3.225,11.303,9.31,18.252,5.054C46.955,152.494,37.912,144.947,33.822,149.602z" class="color c1"/>
    <path fill="#FFC43C" d="M52.24,154.389c0.898-5.718-6.416-9.508-11.635-13.264C38.51,147.408,47.055,151.563,52.24,154.389z" class="color c1"/>
    <path fill="#FFC43C" d="M38.811,146.443c-4.656-3.025-12.268-12.001-17.09-8.145C25.279,142.222,31.23,149.435,38.811,146.443z" class="color c1"/>
    <path fill="#FFC43C" d="M39.01,146.211c1.861-5.452-4.654-10.472-9.145-15.093C26.707,136.936,34.422,142.52,39.01,146.211z" class="color c1"/>
    <path fill="#FFC43C" d="M27.008,135.972c-3.922-3.923-9.475-14.295-14.994-11.536C14.674,129.022,18.996,137.335,27.008,135.972z" class="color c1"/>
    <path fill="#FFC43C" d="M21.49,119.116c-4.322,5.054,2.061,12.101,5.783,16.689C30.232,130.852,24.914,124.568,21.49,119.116z" class="color c1"/>
    <path fill="#FFC43C" d="M5.199,109.309c1.762,4.987,4.488,13.931,12.6,14.096C14.674,118.851,11.15,107.614,5.199,109.309z" class="color c1"/>
    <path fill="#FFC43C" d="M15.471,105.818c-5.152,4.188-0.197,12.3,2.596,17.487C21.922,118.983,17.832,111.835,15.471,105.818z" class="color c1"/>
    <path fill="#FFC43C" d="M11.316,109.708c-2.359-4.953-4.023-16.456-10.074-15.791C2.174,99.069,3.404,108.213,11.316,109.708z" class="color c1"/>
    <path fill="#FFC43C" d="M11.783,92.222c-5.654,3.225-2.129,11.901-0.201,17.419C16.004,106.052,13.145,98.438,11.783,92.222z" class="color c1"/>
    <path fill="#FFC43C" d="M6.861,94.848c-1.33-5.319-0.732-16.855-6.814-17.354C-0.053,82.713-0.586,91.923,6.861,94.848z" class="color c1"/>
    <path fill="#FFC43C" d="M10.75,77.826C4.533,79.92,6.328,89.063,7.16,94.814C12.182,92.155,10.852,84.176,10.75,77.826z" class="color c1"/>
    <path fill="#FFC43C" d="M5.465,79.555C5.1,74.104,7.693,62.799,1.775,61.271C0.777,66.39-1.35,75.366,5.465,79.555z" class="color c1"/>
    <path fill="#FFC43C" d="M12.279,63.465c-6.48,0.964-6.316,10.339-6.516,16.123C11.184,77.826,11.283,69.715,12.279,63.465z" class="color c1"/>
    <path fill="#FFC43C" d="M6.961,45.412C4.9,50.233,0.943,58.544,6.762,64.097C7.525,58.677,12.414,48.139,6.961,45.412z" class="color c1"/>
    <path fill="#FFC43C" d="M16.768,49.734c-6.547-0.399-8.344,8.81-9.74,14.428C12.713,63.597,14.475,55.652,16.768,49.734z" class="color c1"/>
    <path fill="#FFC43C" d="M14.84,31.083c-2.893,4.355-8.344,11.803-3.656,18.319C12.945,44.215,19.693,34.774,14.84,31.083z" class="color c1"/>
    <path fill="#FFC43C" d="M11.447,49.534c5.688,0.467,8.879-6.98,12.236-12.399C17.332,35.539,13.875,44.249,11.447,49.534z" class="color c1"/>
    <path fill="#FFC43C" d="M25.014,18.451c-3.625,3.757-10.307,10.105-6.85,17.354C20.824,31.018,29.135,22.973,25.014,18.451z" class="color c1"/>
    <path fill="#FFC43C" d="M18.365,36.004c5.518,1.497,10.006-5.286,14.26-10.007C26.676,23.305,21.721,31.25,18.365,36.004z" class="color c1"/>
    <path fill="#FFC43C" d="M37.346,7.912c-4.221,3.059-11.934,8.111-9.84,15.858C30.965,19.548,40.605,13.065,37.346,7.912z" class="color c1"/>
    <path fill="#FFC43C" d="M27.705,24.003c5.154,2.427,10.771-3.424,15.793-7.314C38.111,12.966,31.828,19.881,27.705,24.003z" class="color c1"/>
    <path fill="#FFC43C" d="M51.643,0c-4.721,2.161-13.299,5.651-12.734,13.63C43.133,10.14,53.836,5.685,51.643,0z" class="color c1"/>
    <path fill="#FFC43C" d="M39.076,13.896c4.586,3.392,11.236-1.263,16.889-4.122C51.441,5.086,43.896,10.672,39.076,13.896z" class="color c1"/>
    <path fill="#FFC43C" d="M64.076,1.695C61.15,0.066,52.773,1.063,50.412,6.882C53.969,7.846,61.883,6.017,64.076,1.695z" class="color c1"/>
    <path fill="#FFC43C" d="M94.096,162.668c4.92,6.481,13.797,3.49,18.883,2.026C110.852,158.877,99.646,162.533,94.096,162.668z" class="color c1"/>
    <path fill="#FFC43C" d="M109.754,154.322c-6.25,1.563-14.463,2.395-15.725,8.046C99.881,161.637,109.387,160.905,109.754,154.322z" class="color c1"/>
    <path fill="#FFC43C" d="M109.355,160.107c5.982,5.485,14.195,0.931,18.916-1.463C125.146,153.325,114.775,158.977,109.355,160.107z
		" class="color c1"/>
    <path fill="#FFC43C" d="M123.219,149.036c-5.852,2.693-13.799,5.021-13.996,10.805
		C114.873,158.046,124.082,155.619,123.219,149.036z" class="color c1"/>
    <path fill="#FFC43C" d="M124.082,154.655c6.949,4.256,14.096-1.829,18.252-5.054C138.246,144.947,129.203,152.494,124.082,154.655z
		" class="color c1"/>
    <path fill="#FFC43C" d="M135.553,141.125c-5.221,3.756-12.533,7.546-11.637,13.264
		C129.102,151.563,137.646,147.408,135.553,141.125z" class="color c1"/>
    <path fill="#FFC43C" d="M137.348,146.443c7.58,2.991,13.563-4.222,17.086-8.145C149.615,134.442,142.002,143.418,137.348,146.443z" class="color c1"/>
    <path fill="#FFC43C" d="M146.289,131.118c-4.486,4.621-11.004,9.641-9.141,15.093C141.736,142.52,149.447,136.936,146.289,131.118z
		" class="color c1"/>
    <path fill="#FFC43C" d="M149.148,135.972c8.012,1.363,12.334-6.949,14.994-11.536C158.625,121.677,153.072,132.049,149.148,135.972
		z" class="color c1"/>
    <path fill="#FFC43C" d="M154.668,119.116c-3.393,5.452-8.744,11.735-5.783,16.689C152.605,131.217,158.99,124.17,154.668,119.116z" class="color c1"/>
    <path fill="#FFC43C" d="M158.357,123.404c8.146-0.165,10.873-9.108,12.633-14.096C165.039,107.614,161.482,118.851,158.357,123.404
		z" class="color c1"/>
    <path fill="#FFC43C" d="M160.684,105.818c-2.359,6.017-6.447,13.165-2.592,17.487C160.885,118.118,165.838,110.007,160.684,105.818
		z" class="color c1"/>
    <path fill="#FFC43C" d="M164.875,109.708c7.879-1.495,9.109-10.639,10.039-15.791C168.863,93.252,167.201,104.755,164.875,109.708z
		" class="color c1"/>
    <path fill="#FFC43C" d="M164.576,109.641c1.928-5.518,5.451-14.194-0.201-17.419C163.014,98.438,160.154,106.052,164.576,109.641z" class="color c1"/>
    <path fill="#FFC43C" d="M169.295,94.848c7.48-2.925,6.916-12.135,6.816-17.354C170.061,77.992,170.625,89.528,169.295,94.848z" class="color c1"/>
    <path fill="#FFC43C" d="M165.404,77.826c-0.098,6.35-1.428,14.329,3.592,16.988C169.828,89.063,171.623,79.92,165.404,77.826z" class="color c1"/>
    <path fill="#FFC43C" d="M170.691,79.555c6.816-4.188,4.688-13.165,3.691-18.284C168.465,62.799,171.057,74.104,170.691,79.555z" class="color c1"/>
    <path fill="#FFC43C" d="M170.393,79.588c-0.199-5.784-0.033-15.159-6.518-16.123C164.875,69.715,164.975,77.826,170.393,79.588z" class="color c1"/>
    <path fill="#FFC43C" d="M169.428,64.097c5.785-5.553,1.828-13.863-0.232-18.685C163.744,48.139,168.631,58.677,169.428,64.097z" class="color c1"/>
    <path fill="#FFC43C" d="M159.422,49.734c2.26,5.918,4.021,13.862,9.707,14.428C167.732,58.544,165.938,49.335,159.422,49.734z" class="color c1"/>
    <path fill="#FFC43C" d="M161.316,31.083c-4.854,3.691,1.895,13.132,3.658,18.319C169.662,42.886,164.209,35.438,161.316,31.083z" class="color c1"/>
    <path fill="#FFC43C" d="M164.707,49.534c-2.428-5.285-5.885-13.995-12.234-12.399C155.832,42.554,159.023,50.001,164.707,49.534z" class="color c1"/>
    <path fill="#FFC43C" d="M151.145,18.451c-4.123,4.521,4.221,12.566,6.848,17.354C161.451,28.557,154.768,22.208,151.145,18.451z" class="color c1"/>
    <path fill="#FFC43C" d="M157.793,36.004c-3.359-4.754-8.311-12.699-14.264-10.007C147.785,30.718,152.273,37.501,157.793,36.004z" class="color c1"/>
    <path fill="#FFC43C" d="M148.65,23.771c2.096-7.747-5.617-12.8-9.842-15.858C135.553,13.065,145.193,19.548,148.65,23.771z" class="color c1"/>
    <path fill="#FFC43C" d="M148.451,24.003c-4.123-4.122-10.406-11.037-15.791-7.314C137.68,20.579,143.299,26.43,148.451,24.003z" class="color c1"/>
    <path fill="#FFC43C" d="M137.246,13.63c0.566-7.979-7.977-11.469-12.73-13.63C122.32,5.685,133.025,10.14,137.246,13.63z" class="color c1"/>
    <path fill="#FFC43C" d="M137.082,13.896c-4.82-3.224-12.369-8.81-16.889-4.122C125.844,12.633,132.492,17.287,137.082,13.896z" class="color c1"/>
    <path fill="#FFC43C" d="M125.746,6.882c-2.361-5.818-10.74-6.815-13.664-5.187C114.275,6.017,122.221,7.846,125.746,6.882z" class="color c1"/>
    <circle fill="#FFC43C" cx="88.342" cy="162.508" r="4.163" class="color c1"/>
  </g>
</svg>