<svg version="1.1" id="图层_1" x="0px" y="0px" width="283.934px" height="149.246px" viewBox="0 0 283.934 149.246" enable-background="new 0 0 283.934 149.246" xml:space="preserve" xmlns="http://www.w3.org/2000/svg" xmlns:xlink="http://www.w3.org/1999/xlink" xmlns:xml="http://www.w3.org/XML/1998/namespace">
  <path fill="#82462A" d="M141.918,133.204c6.009-3.86,11.838-7.695,15.54-14.088c1.725-2.979,3.013-5.943,2.567-9.283
	c-1.011-7.571,2.72-12.337,8.778-15.928c3.964-2.35,8.091-4.252,12.734-4.743c0.942-0.1,1.981-0.167,2.843,0.132
	c0.705,0.245,1.53,0.975,1.705,1.645c0.129,0.493-0.558,1.548-1.134,1.823c-5.243,2.506-9.061,6.642-12.44,11.132
	c-4.661,6.195-9.009,12.625-13.816,19.413c13.426-3.323,26.025-6.925,37.309-13.876c1.97-1.214,3.538-3.551,4.574-5.712
	c2.211-4.611,4.077-9.402,5.854-14.204c2.085-5.634,5.124-10.579,8.945-15.24c3.27-3.988,5.693-8.663,8.624-12.943
	c0.502-0.734,1.675-1.008,2.538-1.495c0.337,0.876,1.13,1.87,0.94,2.611c-1.973,7.677-4.042,15.331-6.207,22.957
	c-3.271,11.524-10.934,19.553-20.802,25.777c-1.548,0.976-3.115,1.922-4.581,3.207c0.547-0.105,1.115-0.148,1.638-0.325
	c4.17-1.408,8.396-2.679,12.484-4.298c11.209-4.441,19.54-12.489,27.333-21.437c6.836-7.848,10.164-16.777,10.5-26.955
	c0.367-11.113,3.589-21.245,9.675-30.535c2.326-3.55,4.513-7.205,6.547-10.93c2.964-5.428,4.861-11.141,4.061-17.502
	c-0.092-0.732,0.871-1.598,1.346-2.401c0.73,0.675,1.938,1.243,2.116,2.041c1.43,6.429,1.164,12.929,0.136,19.372
	c-3.715,23.271-13.533,43.961-26.948,63.102c-0.414,0.591-0.844,1.17-1.255,1.762c-0.08,0.115-0.108,0.266-0.3,0.758
	c0.816-0.511,1.406-0.827,1.938-1.222c7.932-5.884,15.914-11.768,22.17-19.493c2.892-3.572,5.067-7.736,7.45-11.701
	c0.67-1.115,1.179-2.263,2.671-1.625c1.441,0.616,1.34,1.872,0.752,3.062c-4.5,9.116-8.839,18.319-13.596,27.3
	c-3.578,6.754-9.7,10.076-17.208,10.747c-7.417,0.663-13.542,3.76-19.036,8.752c-7.999,7.268-17.792,11.283-28.017,14.332
	c-0.765,0.228-1.532,0.45-2.489,0.732c3.862,2.275,7.843,3.449,12.124,3.682c2.723,0.148,5.471,0.175,8.157,0.586
	c2.75,0.421,5.469,1.138,8.147,1.916c3.981,1.156,7.934,2.424,11.85,3.782c0.751,0.261,1.282,1.158,1.914,1.761
	c-0.611,0.635-1.216,1.815-1.836,1.822c-7.518,0.09-15.075,0.428-22.541-0.223c-3.294-0.287-6.864-2.099-9.511-4.216
	c-6.876-5.5-14.437-6.836-22.842-5.472c-8.956,1.453-17.87,3.143-26.176,6.89c-4.269,1.926-8.204,4.594-12.341,6.956
	c3.319,3.651,6.326,6.87,9.202,10.202c0.535,0.62,0.912,1.793,0.714,2.539c-0.381,1.434-2.112,1.326-3.434-0.115
	c-2.972-3.24-5.941-6.483-9.192-10.032c-2.732,2.86-5.211,5.442-7.671,8.043c-0.605,0.64-1.151,1.337-1.714,2.017
	c-0.863,1.042-2.031,1.75-3.004,0.57c-0.461-0.559-0.334-2.219,0.178-2.855c2.108-2.619,4.438-5.062,6.746-7.514
	c0.758-0.805,1.695-1.442,2.977-2.512c-4.079-2.429-7.485-4.91-11.244-6.611c-10.609-4.803-21.836-7.306-33.453-8.041
	c-5.59-0.354-10.634,1.114-15.03,4.648c-5.897,4.74-12.681,6.692-20.173,6.396c-4.409-0.174-8.823-0.283-13.219-0.63
	c-0.879-0.069-2.224-0.95-2.408-1.69c-0.365-1.476,0.947-1.821,2.251-2.101c2.497-0.535,5.141-0.911,7.377-2.039
	c5.985-3.019,12.359-3.804,18.884-4.021c4.721-0.157,9.183-1.194,13.517-3.717c-2.304-0.73-4.46-1.39-6.601-2.097
	c-9.465-3.125-18.261-7.499-25.54-14.432c-5.38-5.125-12.041-6.768-19.049-7.633c-6.876-0.849-11.956-4.397-15.443-10.243
	c-1.884-3.159-3.553-6.452-5.198-9.746c-2.433-4.87-4.769-9.79-7.124-14.699c-0.553-1.153-1.251-2.312-1.443-3.537
	c-0.127-0.808,0.53-1.739,0.835-2.615c0.827,0.42,2.004,0.624,2.419,1.298c1.506,2.445,2.347,5.401,4.183,7.519
	c4.553,5.253,9.313,10.367,14.379,15.122c3.951,3.708,8.487,6.791,13.146,9.821c-0.444-0.674-0.868-1.361-1.334-2.019
	C26.409,66.405,16.967,46.58,12.75,24.467c-1.298-6.805-1.77-13.677-0.755-20.584C12.1,3.17,12.06,2.322,12.442,1.792
	c0.522-0.725,1.384-1.206,2.1-1.792c0.462,0.813,1.404,1.685,1.311,2.428c-0.751,6.006,0.892,11.475,3.645,16.643
	c2.107,3.956,4.416,7.822,6.868,11.575c6.116,9.363,9.412,19.553,9.772,30.752c0.328,10.185,3.903,18.95,10.488,26.971
	c10.629,12.946,23.631,21.697,39.863,25.696c0.528,0.13,1.059,0.248,1.738,0.069c-0.546-0.361-1.097-0.714-1.637-1.085
	c-3.233-2.225-6.55-4.339-9.677-6.703c-8.169-6.176-12.692-14.7-15.3-24.387c-1.728-6.419-3.463-12.837-5.036-19.294
	c-0.201-0.827,0.553-1.887,0.864-2.838c0.863,0.486,2.031,0.76,2.541,1.492c3.236,4.649,6.028,9.639,9.551,14.049
	c3.413,4.272,5.977,8.869,7.927,13.912c1.847,4.778,3.761,9.532,5.774,14.242c1.433,3.35,3.856,5.766,7.17,7.457
	c8.168,4.168,16.601,7.579,25.512,9.798c2.867,0.714,5.684,1.625,8.831,2.534c-0.361-0.68-0.58-1.215-0.901-1.68
	c-4.104-5.932-8.069-11.969-12.386-17.742c-3.364-4.5-7.19-8.632-12.436-11.134c-0.575-0.274-1.26-1.331-1.131-1.823
	c0.177-0.67,1.06-1.58,1.691-1.622c1.81-0.122,3.705-0.108,5.462,0.301c5.314,1.239,10.007,3.781,14.206,7.274
	c3.237,2.693,5.058,6.045,4.68,10.29c-0.898,10.077,4.706,16.501,12.124,21.939C137.987,130.53,139.981,131.856,141.918,133.204z
	 M251.469,67.055c7.884-14.252,13.969-29.399,16.641-45.997C258.362,35.075,249.971,49.381,251.469,67.055z M32.486,67.018
	c1.531-17.783-6.969-32.032-16.632-46.022C18.526,37.577,24.607,52.742,32.486,67.018z M220.57,74.533
	c-8.894,7.416-10.999,18.121-15.299,28.302C214.971,95.511,217.761,85.169,220.57,74.533z M63.385,74.518
	c2.857,10.598,5.55,20.875,14.821,27.588C74.294,92.485,72.263,81.86,63.385,74.518z M19.236,74.979
	c2.731,9.401,10.12,15.303,19.09,15.355C32.005,85.249,25.69,80.17,19.236,74.979z M264.741,74.997
	c-6.448,5.181-12.764,10.257-19.089,15.339C254.63,90.279,261.978,84.411,264.741,74.997z M175.088,94.952
	c-9.379,4.007-12.729,8.544-11.039,13.596C167.689,104.066,171.36,99.544,175.088,94.952z M120.046,108.678
	c0.913-6.087-3.775-11.718-11.008-13.556C112.611,99.523,116.311,104.078,120.046,108.678z M57.704,128.318
	c5.611,0.122,10.51,0.181,14.875-2.689C67.736,125.873,62.781,125.502,57.704,128.318z M210.986,125.413
	c3.568,2.502,10.234,3.601,14.797,2.595C221.157,125.541,216.246,125.828,210.986,125.413z" class="color c1"/>
  <path fill="#82462A" d="M49.106,122.64c-2.792-0.103-6.211-1.074-9.185-3.305c-3.225-2.419-4.405-5.766-3.368-9.257
	c1.002-3.374,4.05-5.941,7.991-5.661c3.333,0.237,6.8,1.044,9.834,2.423c4.182,1.9,5.644,5.783,4.527,9.743
	C57.755,120.663,54.772,122.694,49.106,122.64z M45.891,107.515c-3.246,0.513-5.206,1.609-5.837,3.687
	c-0.66,2.174,0.37,4.614,3.159,5.776c2.444,1.018,5.167,1.531,7.817,1.834c2.087,0.239,3.689-0.987,4.271-3.125
	c0.59-2.168,0.04-4.145-1.974-5.171C50.954,109.31,48.379,108.498,45.891,107.515z" class="color c1"/>
  <path fill="#82462A" d="M234.639,122.651c-5.502-0.006-8.416-2.04-9.558-6.054c-1.102-3.876,0.385-7.473,4.268-9.71
	c3.842-2.213,7.968-3.362,12.413-2.141c6.13,1.684,8.092,8.669,3.711,13.288C242.312,121.366,238.198,122.481,234.639,122.651z
	 M238.348,108.062c-0.09-0.212-0.181-0.423-0.272-0.635c-2.662,1.151-5.433,2.106-7.948,3.518c-1.799,1.01-1.997,3.012-1.404,4.927
	c0.55,1.776,1.866,3.075,3.688,2.882c2.806-0.297,5.698-0.727,8.301-1.746c2.804-1.098,3.852-3.579,3.218-5.745
	C243.317,109.157,241.375,108.044,238.348,108.062z" class="color c1"/>
  <path fill="#82462A" d="M56.756,74.566c0.145,4.198-1.276,6.54-4.013,7.877c-2.744,1.34-5.536,1.053-7.849-1.044
	c-3.362-3.049-5.237-6.854-5.091-11.479c0.088-2.787,1.371-4.887,3.913-6.152c2.571-1.278,5.038-0.905,7.25,0.728
	C54.682,67.238,56.338,71.136,56.756,74.566z M53.213,76.362c-0.43-3.838-1.527-6.611-3.999-8.453
	c-0.96-0.716-2.878-1.082-3.846-0.592c-0.989,0.501-1.882,2.249-1.876,3.447c0.014,2.964,1.292,5.681,3.624,7.527
	c0.934,0.739,2.783,1.045,3.884,0.642C52.069,78.542,52.713,76.99,53.213,76.362z" class="color c1"/>
  <path fill="#82462A" d="M244.197,71.312c-0.201,3.564-1.886,7.199-5.077,10.047c-2.307,2.059-5.008,2.436-7.826,1.072
	c-2.797-1.354-4.238-3.634-4.101-6.756c0.189-4.298,1.959-7.917,5.195-10.716c2.285-1.976,4.93-2.615,7.809-1.215
	C243.047,65.13,244.198,67.52,244.197,71.312z M230.748,76.343c0.494,0.626,1.13,2.179,2.198,2.579
	c1.097,0.411,2.954,0.125,3.884-0.609c2.335-1.841,3.621-4.554,3.645-7.52c0.009-1.202-0.867-2.955-1.854-3.466
	c-0.961-0.497-2.884-0.143-3.848,0.567C232.287,69.726,231.2,72.507,230.748,76.343z" class="color c1"/>
  <path fill="#82462A" d="M196.652,100.924c-0.535,1.4-0.894,2.902-1.637,4.181c-1.97,3.391-4.991,5.627-8.668,6.839
	c-5.015,1.653-9.082-2.165-7.952-7.335c1.017-4.655,7.312-9.829,12.083-9.931C193.932,94.604,196.431,97.203,196.652,100.924z
	 M189.778,98.469c-2.178-0.005-7.178,3.979-7.762,6.725c-0.389,1.826,0.496,3.348,1.989,3.421c2.997,0.146,8.332-4.45,8.589-7.428
	C192.727,99.643,192.351,98.444,189.778,98.469z" class="color c1"/>
  <path fill="#82462A" d="M105.754,105.081c0.107,5.393-3.454,8.256-7.785,6.938c-4.226-1.286-7.547-3.837-9.532-7.865
	c-1.427-2.897-1.079-5.917,0.839-7.833c2.189-2.185,4.941-2.237,7.32-0.851c2.704,1.575,5.198,3.636,7.431,5.843
	C105.118,102.391,105.409,104.277,105.754,105.081z M102.037,105.457c-0.244-0.497-0.499-1.733-1.255-2.415
	c-1.699-1.533-3.546-2.972-5.54-4.074c-0.845-0.467-2.808-0.408-3.198,0.153c-0.579,0.832-0.617,2.504-0.172,3.5
	c1.385,3.102,4.097,4.871,7.241,5.881C100.865,109.065,101.996,108.003,102.037,105.457z" class="color c1"/>
  <path fill="#82462A" d="M268.609,40.728c0.48-3.749,2.277-7.605,5.883-10.383c3.415-2.631,7.634-1.183,9.05,2.93
	c1.646,4.782-2.137,13.155-6.823,15.104C272.681,50.057,268.501,46.501,268.609,40.728z M280.218,37.005
	c0.123-3.288-1.22-4.758-3.079-3.944c-2.635,1.155-5.452,7.078-4.683,9.844c0.599,2.151,2.338,2.771,3.924,1.271
	C278.584,42.092,279.932,39.517,280.218,37.005z" class="color c1"/>
  <path fill="#82462A" d="M15.374,40.908c0.028,3.867-1.661,6.569-4.293,7.572c-2.303,0.877-4.825,0.024-6.953-2.513
	c-2.476-2.951-4.185-6.275-4.126-10.238c0.042-2.857,1.219-5.217,3.963-6.318c2.625-1.053,4.869,0.045,6.715,1.951
	C13.44,34.213,15.089,37.604,15.374,40.908z M11.753,42.263c-0.368-3.74-1.664-6.292-3.826-8.318c-0.647-0.606-2-1.125-2.683-0.843
	c-0.717,0.296-1.349,1.566-1.441,2.47c-0.316,3.073,1.123,5.631,3.074,7.821c0.696,0.781,2.283,1.698,2.911,1.397
	C10.788,44.311,11.326,42.866,11.753,42.263z" class="color c1"/>
</svg>