<svg version="1.1" id="图层_1" x="0px" y="0px" width="220px" height="219.997px" viewBox="0 0 220 219.997" enable-background="new 0 0 220 219.997" xml:space="preserve" xmlns="http://www.w3.org/2000/svg" xmlns:xlink="http://www.w3.org/1999/xlink" xmlns:xml="http://www.w3.org/XML/1998/namespace">
  <path fill="#AD9569" d="M215.776,116.456c-1.957-1.572-3.985-2.578-5.481-2.831c-0.192-0.138-0.427-0.206-0.691-0.219
	c0.038-1.132,0.064-2.267,0.064-3.407c0-7.371-0.812-14.554-2.337-21.473c0.104-0.435,0.186-0.859,0.248-1.269
	c0.868,0.541,1.887,1.049,3.013,1.476c3.791,1.436,7.313,1.418,7.865-0.039c0.551-1.459-2.072-3.806-5.862-5.241
	c-2.346-0.889-4.585-1.221-6.085-1c-0.223-0.07-0.463-0.063-0.715,0.003c-2.331-8.096-5.666-15.769-9.855-22.882
	c-0.037-0.472-0.092-0.925-0.162-1.357c0.992,0.246,2.118,0.415,3.32,0.473c4.048,0.193,7.392-0.911,7.466-2.468
	c0.074-1.559-3.145-2.979-7.193-3.173c-2.508-0.122-4.743,0.256-6.102,0.93c-0.243,0.004-0.479,0.091-0.706,0.245
	c-4.672-6.894-10.188-13.169-16.391-18.688c-0.187-0.457-0.386-0.888-0.595-1.292c1.02-0.073,2.143-0.261,3.304-0.576
	c3.909-1.065,6.749-3.15,6.341-4.655c-0.412-1.504-3.914-1.86-7.823-0.794c-2.423,0.66-4.432,1.709-5.516,2.771
	c-0.233,0.079-0.434,0.238-0.604,0.459c-6.537-5.111-13.728-9.421-21.421-12.791c-0.298-0.348-0.599-0.671-0.9-0.97
	c0.947-0.384,1.957-0.91,2.964-1.568c3.388-2.224,5.446-5.082,4.592-6.387c-0.857-1.305-4.296-0.561-7.687,1.662
	c-2.1,1.376-3.686,2.996-4.389,4.34c-0.186,0.14-0.321,0.337-0.414,0.58c-7.723-2.813-15.888-4.694-24.359-5.513
	c-0.385-0.234-0.766-0.446-1.139-0.634c0.781-0.658,1.58-1.47,2.335-2.408c2.535-3.161,3.607-6.515,2.393-7.492
	c-1.219-0.975-4.26,0.795-6.796,3.956c-1.57,1.955-2.575,3.981-2.83,5.476c-0.139,0.194-0.207,0.431-0.22,0.697
	c-1.131-0.038-2.266-0.064-3.405-0.064c-7.37,0-14.553,0.811-21.472,2.336c-0.436-0.103-0.861-0.186-1.271-0.249
	c0.541-0.867,1.049-1.886,1.477-3.011c1.435-3.79,1.417-7.311-0.04-7.865c-1.461-0.55-3.806,2.072-5.24,5.863
	c-0.89,2.344-1.222,4.583-1.002,6.084c-0.07,0.223-0.063,0.463,0.004,0.716c-8.095,2.331-15.768,5.665-22.88,9.854
	c-0.473,0.037-0.927,0.091-1.359,0.162c0.246-0.992,0.415-2.118,0.474-3.32c0.193-4.047-0.912-7.391-2.468-7.468
	c-1.56-0.072-2.979,3.146-3.173,7.195c-0.122,2.506,0.255,4.74,0.929,6.1c0.003,0.244,0.091,0.481,0.245,0.709
	c-6.894,4.672-13.169,10.188-18.688,16.391c-0.456,0.187-0.887,0.386-1.29,0.594c-0.073-1.019-0.261-2.142-0.578-3.303
	c-1.065-3.911-3.15-6.751-4.655-6.341c-1.506,0.409-1.86,3.913-0.793,7.826c0.659,2.422,1.709,4.43,2.771,5.513
	c0.08,0.233,0.238,0.433,0.458,0.603c-5.111,6.537-9.421,13.727-12.791,21.42c-0.348,0.298-0.672,0.599-0.97,0.9
	c-0.384-0.946-0.91-1.956-1.569-2.962c-2.223-3.391-5.082-5.447-6.388-4.592c-1.304,0.854-0.559,4.297,1.664,7.688
	c1.376,2.099,2.996,3.684,4.341,4.386c0.139,0.186,0.337,0.32,0.578,0.414c-2.813,7.723-4.695,15.89-5.514,24.362
	c-0.234,0.385-0.445,0.764-0.632,1.137c-0.658-0.782-1.47-1.58-2.409-2.333c-3.161-2.538-6.516-3.61-7.494-2.394
	c-0.975,1.216,0.798,4.258,3.959,6.797c1.955,1.569,3.98,2.573,5.475,2.827c0.193,0.139,0.43,0.207,0.696,0.22
	c-0.038,1.131-0.064,2.266-0.064,3.407c0,7.371,0.812,14.556,2.337,21.476c-0.103,0.435-0.185,0.857-0.247,1.267
	c-0.868-0.54-1.886-1.048-3.012-1.475c-3.792-1.438-7.313-1.42-7.867,0.039c-0.553,1.459,2.074,3.805,5.865,5.24
	c2.344,0.89,4.583,1.22,6.084,1c0.222,0.069,0.462,0.063,0.713-0.004c2.331,8.096,5.667,15.77,9.856,22.883
	c0.037,0.472,0.091,0.925,0.162,1.356c-0.991-0.246-2.117-0.414-3.319-0.472c-4.048-0.194-7.392,0.91-7.469,2.469
	c-0.074,1.557,3.146,2.977,7.198,3.171c2.508,0.122,4.743-0.257,6.101-0.933c0.242-0.004,0.477-0.091,0.703-0.243
	c4.672,6.895,10.188,13.171,16.393,18.689c0.187,0.456,0.386,0.887,0.594,1.29c-1.02,0.073-2.142,0.262-3.304,0.578
	c-3.911,1.064-6.75,3.148-6.341,4.654c0.41,1.505,3.913,1.86,7.825,0.793c2.423-0.66,4.432-1.711,5.515-2.772
	c0.232-0.079,0.431-0.237,0.601-0.457c6.538,5.111,13.729,9.422,21.422,12.792c0.297,0.347,0.598,0.671,0.899,0.969
	c-0.947,0.385-1.956,0.91-2.963,1.57c-3.391,2.223-5.446,5.08-4.592,6.386c0.855,1.304,4.296,0.561,7.687-1.663
	c2.099-1.377,3.684-2.995,4.387-4.339c0.186-0.14,0.321-0.338,0.415-0.58c7.723,2.813,15.889,4.694,24.362,5.514
	c0.384,0.233,0.764,0.444,1.137,0.632c-0.782,0.658-1.58,1.471-2.334,2.409c-2.537,3.162-3.609,6.517-2.394,7.491
	c1.216,0.976,4.259-0.794,6.797-3.955c1.57-1.956,2.575-3.983,2.829-5.479c0.137-0.193,0.206-0.429,0.219-0.693
	c1.132,0.038,2.268,0.064,3.409,0.064c7.37,0,14.554-0.812,21.473-2.337c0.435,0.103,0.857,0.185,1.267,0.247
	c-0.54,0.868-1.049,1.888-1.476,3.014c-1.436,3.791-1.419,7.312,0.041,7.864c1.458,0.552,3.802-2.072,5.239-5.863
	c0.891-2.346,1.222-4.586,1.001-6.087c0.068-0.222,0.062-0.461-0.004-0.711c8.097-2.332,15.771-5.667,22.885-9.857
	c0.471-0.037,0.924-0.092,1.354-0.162c-0.245,0.992-0.414,2.118-0.473,3.321c-0.193,4.048,0.912,7.392,2.47,7.467
	s2.976-3.146,3.171-7.195c0.122-2.509-0.256-4.744-0.931-6.103c-0.004-0.242-0.091-0.478-0.244-0.703
	c6.895-4.673,13.17-10.188,18.689-16.393c0.455-0.188,0.887-0.386,1.289-0.594c0.073,1.02,0.262,2.144,0.578,3.307
	c1.064,3.906,3.149,6.746,4.654,6.337c1.505-0.41,1.86-3.914,0.794-7.824c-0.66-2.423-1.711-4.433-2.772-5.516
	c-0.079-0.232-0.237-0.432-0.457-0.601c5.11-6.538,9.421-13.729,12.791-21.422c0.348-0.298,0.671-0.599,0.969-0.899
	c0.385,0.946,0.91,1.957,1.569,2.964c2.223,3.388,5.082,5.445,6.387,4.59s0.56-4.296-1.662-7.686
	c-1.376-2.099-2.994-3.684-4.338-4.387c-0.14-0.188-0.339-0.322-0.582-0.416c2.813-7.723,4.694-15.888,5.514-24.359
	c0.234-0.386,0.445-0.766,0.634-1.139c0.658,0.781,1.47,1.58,2.408,2.335c3.161,2.536,6.516,3.607,7.492,2.392
	C220.707,122.033,218.938,118.993,215.776,116.456z M181.178,171.353c-3.879,1.184-6.652,3.351-6.198,4.844
	c0.389,1.275,3.021,1.639,6.199,0.979c-5.063,5.362-10.724,10.153-16.874,14.269c-1.335-0.633-3.33-1.057-5.569-1.099
	c-4.057-0.073-7.363,1.131-7.392,2.691c-0.025,1.34,2.391,2.506,5.646,2.852c-6.424,3.528-13.281,6.357-20.474,8.383
	c-1.071-1.024-2.854-2.059-4.994-2.799c-3.835-1.321-7.353-1.199-7.863,0.275c-0.438,1.272,1.516,3.138,4.525,4.475
	c-5.894,1.111-11.97,1.699-18.182,1.699c-1.315,0-2.622-0.034-3.925-0.086c-0.704-1.302-2.076-2.829-3.876-4.189
	c-3.238-2.442-6.622-3.412-7.563-2.167c-0.811,1.073,0.473,3.453,2.925,5.656c-7.469-0.951-14.676-2.75-21.526-5.291
	c-0.265-1.457-1.1-3.339-2.394-5.192c-2.323-3.321-5.243-5.292-6.522-4.397c-1.101,0.769-0.621,3.414,1.018,6.255
	c-6.727-3.193-13.035-7.131-18.815-11.707c0.187-1.465-0.026-3.488-0.678-5.626c-1.183-3.878-3.351-6.652-4.844-6.197
	c-1.275,0.388-1.64,3.02-0.978,6.198c-5.362-5.063-10.154-10.724-14.269-16.875c0.633-1.334,1.056-3.329,1.098-5.568
	c0.075-4.053-1.13-7.362-2.689-7.392c-1.341-0.025-2.506,2.39-2.853,5.646c-3.528-6.423-6.357-13.28-8.382-20.473
	c1.025-1.07,2.059-2.854,2.798-4.994c1.323-3.834,1.2-7.353-0.273-7.862c-1.272-0.438-3.139,1.515-4.475,4.524
	c-1.111-5.895-1.7-11.972-1.7-18.184c0-1.314,0.034-2.621,0.085-3.922c1.303-0.704,2.831-2.077,4.19-3.877
	c2.443-3.236,3.413-6.62,2.167-7.561c-1.075-0.812-3.454,0.472-5.656,2.924c0.951-7.469,2.75-14.676,5.291-21.525
	c1.458-0.265,3.338-1.1,5.192-2.395c3.322-2.322,5.292-5.241,4.398-6.521c-0.769-1.101-3.413-0.621-6.255,1.017
	c3.194-6.727,7.131-13.035,11.708-18.815c1.465,0.187,3.487-0.027,5.624-0.678c3.879-1.183,6.655-3.352,6.2-4.844
	c-0.39-1.275-3.019-1.639-6.199-0.978c5.063-5.362,10.724-10.154,16.875-14.268c1.336,0.632,3.33,1.056,5.569,1.098
	c4.054,0.073,7.361-1.131,7.392-2.692c0.024-1.337-2.39-2.504-5.645-2.851c6.423-3.528,13.281-6.356,20.472-8.382
	c1.071,1.025,2.854,2.059,4.994,2.798c3.835,1.322,7.351,1.2,7.862-0.275c0.438-1.27-1.515-3.135-4.523-4.474
	c5.894-1.111,11.971-1.699,18.183-1.699c1.313,0,2.62,0.034,3.921,0.085c0.705,1.303,2.077,2.831,3.877,4.19
	c3.238,2.441,6.62,3.413,7.563,2.167c0.81-1.074-0.473-3.453-2.926-5.656c7.469,0.951,14.676,2.749,21.526,5.29
	c0.265,1.458,1.1,3.339,2.394,5.192c2.323,3.322,5.241,5.293,6.521,4.397c1.1-0.768,0.62-3.413-1.018-6.255
	c6.727,3.194,13.034,7.131,18.815,11.707c-0.187,1.465,0.026,3.489,0.677,5.627c1.184,3.877,3.351,6.653,4.845,6.197
	c1.274-0.388,1.639-3.019,0.979-6.199c5.362,5.063,10.153,10.724,14.268,16.875c-0.633,1.336-1.057,3.331-1.1,5.571
	c-0.071,4.053,1.132,7.361,2.693,7.392c1.339,0.023,2.505-2.391,2.853-5.646c3.527,6.422,6.356,13.28,8.382,20.472
	c-1.025,1.071-2.06,2.854-2.8,4.993c-1.321,3.834-1.199,7.353,0.276,7.863c1.271,0.438,3.136-1.515,4.474-4.524
	c1.111,5.894,1.699,11.97,1.699,18.182c0,1.314-0.034,2.621-0.086,3.923c-1.302,0.704-2.829,2.077-4.189,3.877
	c-2.441,3.237-3.412,6.62-2.167,7.562c1.074,0.812,3.454-0.472,5.656-2.924c-0.951,7.469-2.75,14.676-5.29,21.525
	c-1.458,0.266-3.34,1.1-5.193,2.394c-3.321,2.323-5.291,5.241-4.396,6.521c0.768,1.101,3.413,0.621,6.254-1.018
	c-3.194,6.728-7.131,13.035-11.707,18.815C185.339,170.488,183.315,170.702,181.178,171.353z" class="color c1"/>
</svg>