<svg version="1.1" id="图层_1" x="0px" y="0px" width="145.728px" height="99.715px" viewBox="0 0 145.728 99.715" enable-background="new 0 0 145.728 99.715" xml:space="preserve" xmlns="http://www.w3.org/2000/svg" xmlns:xlink="http://www.w3.org/1999/xlink" xmlns:xml="http://www.w3.org/XML/1998/namespace">
  <path fill="#262626" d="M145.162,25.612c0.188,0.205,0.376,0.41,0.565,0.615c-0.319,0.907-0.515,1.883-0.98,2.705
	c-1.108,1.957-2.38,3.82-3.529,5.756c-2.816,4.755-6.932,7.66-12.274,9.005c-0.759,0.19-1.617,1.107-1.896,1.881
	c-1.397,3.853-2.487,7.823-3.946,11.653c-1.21,3.188-2.779,6.236-4.339,9.67c0.355-0.115,0.709-0.215,1.063-0.316
	c0.106-0.029,0.215-0.066,0.321-0.096c0.15-0.041,0.301-0.074,0.453-0.113c0.307-0.078,0.615-0.154,0.922-0.221
	c0.18-0.039,0.357-0.072,0.537-0.107c0.278-0.055,0.558-0.109,0.837-0.156c0.187-0.031,0.372-0.059,0.56-0.086
	c0.271-0.041,0.542-0.078,0.813-0.111c0.188-0.021,0.375-0.043,0.563-0.063c0.271-0.029,0.543-0.053,0.814-0.076
	c0.184-0.014,0.365-0.029,0.548-0.041c0.282-0.018,0.563-0.031,0.845-0.045c0.17-0.006,0.342-0.016,0.513-0.021
	c0.312-0.01,0.623-0.014,0.935-0.016c0.139-0.002,0.277-0.006,0.416-0.006c0.17-0.002,0.34,0.004,0.51,0.004
	c0.34,0.004,0.68,0.008,1.021,0.016c0.201,0.006,0.404,0.014,0.605,0.02c0.309,0.012,0.616,0.023,0.925,0.037
	c0.214,0.01,0.429,0.021,0.644,0.033c0.299,0.018,0.598,0.033,0.896,0.051c0.229,0.016,0.457,0.029,0.687,0.045
	c0.296,0.02,0.593,0.039,0.89,0.061c0.275,0.02,0.551,0.037,0.826,0.059c0.381,0.027,0.762,0.055,1.144,0.082
	c0.339,0.023,0.677,0.047,1.016,0.07c0.212,0.014,0.422,0.029,0.634,0.043c0.352,0.023,0.705,0.043,1.059,0.064
	c0.176,0.01,0.352,0.021,0.529,0.029c0.525,0.029,1.054,0.053,1.584,0.072c-0.886,1.092-1.281,1.709-1.801,2.195
	c-0.377,0.354-0.758,0.688-1.143,1.012c-0.105,0.09-0.213,0.178-0.319,0.266c-0.313,0.258-0.63,0.506-0.948,0.746
	c-0.081,0.061-0.162,0.125-0.243,0.186c-0.391,0.287-0.784,0.559-1.181,0.818c-0.092,0.061-0.184,0.115-0.275,0.174
	c-0.322,0.205-0.647,0.4-0.975,0.588c-0.107,0.061-0.215,0.123-0.323,0.184c-0.409,0.225-0.82,0.439-1.235,0.637
	c-0.03,0.014-0.061,0.027-0.092,0.041c-0.387,0.182-0.779,0.35-1.172,0.506c-0.115,0.047-0.23,0.092-0.346,0.135
	c-0.36,0.137-0.722,0.266-1.086,0.383c-0.071,0.023-0.143,0.049-0.215,0.072c-0.43,0.133-0.862,0.25-1.299,0.355
	c-0.105,0.025-0.211,0.047-0.317,0.07c-0.352,0.08-0.704,0.15-1.06,0.213c-0.112,0.02-0.225,0.041-0.338,0.059
	c-0.443,0.068-0.891,0.129-1.342,0.17c-0.062,0.006-0.124,0.008-0.186,0.014c-0.395,0.033-0.793,0.057-1.193,0.068
	c-0.127,0.004-0.254,0.008-0.381,0.01c-0.255,0.004-0.512-0.004-0.768-0.008c-0.351-0.006-0.703-0.018-1.057-0.041
	c-0.227-0.014-0.453-0.029-0.681-0.051c-0.36-0.033-0.722-0.074-1.085-0.123c-0.221-0.029-0.441-0.057-0.662-0.092
	c-0.398-0.064-0.799-0.141-1.2-0.223c-0.188-0.039-0.377-0.07-0.567-0.113c-0.592-0.135-1.189-0.283-1.791-0.457
	c-0.239-0.07-0.461-0.121-0.674-0.162c-0.063-0.012-0.124-0.02-0.184-0.027c-0.155-0.023-0.304-0.037-0.446-0.043
	c-0.036-0.002-0.079-0.01-0.115-0.01c-0.034,0-0.067,0.004-0.103,0.004c-0.033,0.002-0.068,0.004-0.102,0.006
	c-0.136,0.01-0.268,0.027-0.396,0.059c-0.001,0-0.003,0-0.003,0c-0.126,0.031-0.247,0.078-0.367,0.131
	c-0.029,0.014-0.061,0.027-0.092,0.043c-0.119,0.059-0.236,0.127-0.352,0.209c-0.002,0.002-0.004,0.004-0.006,0.006
	c-0.115,0.082-0.228,0.184-0.34,0.291c-0.029,0.027-0.059,0.057-0.088,0.088c-0.113,0.115-0.228,0.24-0.342,0.385
	c-1.334,1.678-2.722,3.367-4.346,4.748c-4.239,3.598-8.621,7.027-13.07,10.627c0.176,0.117,0.312,0.271,0.471,0.301
	c4.898,0.91,9.841,1.639,14.688,2.773c2.58,0.604,2.86,2.697,0.604,4.199c-1.584,1.055-3.529,2.08-5.354,2.158
	c-0.428,0.02-0.853,0.027-1.276,0.029c-0.213,0-0.424-0.004-0.637-0.008c-0.142-0.002-0.284-0.002-0.426-0.006
	c-0.244-0.008-0.486-0.021-0.729-0.035c-0.116-0.006-0.233-0.012-0.349-0.018c-0.356-0.025-0.712-0.057-1.065-0.094
	c-0.039-0.004-0.078-0.01-0.117-0.014c-0.314-0.035-0.626-0.074-0.937-0.121c-0.126-0.018-0.252-0.041-0.378-0.061
	c-0.223-0.037-0.446-0.072-0.668-0.113c-0.144-0.027-0.285-0.059-0.428-0.088c-0.203-0.041-0.406-0.084-0.606-0.129
	c-0.15-0.035-0.3-0.074-0.449-0.111c-0.192-0.047-0.386-0.096-0.576-0.148c-0.152-0.041-0.304-0.086-0.454-0.129
	c-0.188-0.057-0.374-0.113-0.56-0.172c-0.152-0.049-0.304-0.1-0.455-0.15c-0.185-0.064-0.368-0.129-0.551-0.195
	c-0.149-0.055-0.3-0.111-0.448-0.17c-0.183-0.072-0.363-0.145-0.544-0.221c-0.147-0.061-0.296-0.123-0.442-0.189
	c-0.182-0.08-0.361-0.162-0.541-0.248c-0.145-0.066-0.288-0.133-0.431-0.203c-0.184-0.092-0.364-0.186-0.546-0.281
	c-0.139-0.072-0.275-0.143-0.412-0.217c-0.189-0.105-0.377-0.215-0.564-0.324c-0.127-0.072-0.254-0.145-0.38-0.221
	c-0.206-0.125-0.411-0.258-0.616-0.389c-0.104-0.068-0.21-0.133-0.314-0.201c-0.307-0.205-0.612-0.418-0.916-0.637
	c-0.062-0.047-0.137-0.086-0.218-0.121c-0.026-0.012-0.056-0.02-0.083-0.031c-0.059-0.021-0.117-0.041-0.181-0.059
	c-0.036-0.01-0.072-0.018-0.109-0.025c-0.061-0.012-0.121-0.023-0.184-0.033c-0.04-0.006-0.079-0.008-0.12-0.012
	c-0.063-0.006-0.123-0.01-0.186-0.012c-0.022-0.002-0.044-0.004-0.066-0.004c-0.023,0-0.047,0.002-0.07,0.002
	c-0.035,0.002-0.071,0.004-0.107,0.006c-0.053,0.004-0.103,0.01-0.153,0.018c-0.033,0.004-0.065,0.008-0.097,0.016
	c-0.053,0.01-0.103,0.023-0.151,0.037c-0.024,0.008-0.051,0.014-0.075,0.021c-0.069,0.025-0.134,0.055-0.189,0.088
	c-1.485,0.928-2.783,2.152-4.237,3.137c-0.89,0.602-1.894,1.193-2.92,1.377c-0.086,0.016-0.173,0.018-0.262,0.018
	c-0.036,0-0.073-0.006-0.11-0.01c-0.056-0.004-0.111-0.008-0.168-0.018c-0.04-0.008-0.081-0.018-0.122-0.025
	c-0.055-0.014-0.11-0.025-0.165-0.041c-0.041-0.012-0.083-0.025-0.125-0.039c-0.057-0.018-0.113-0.037-0.171-0.057
	c-0.041-0.016-0.083-0.031-0.124-0.047c-0.063-0.023-0.124-0.049-0.187-0.072c-0.043-0.018-0.086-0.035-0.129-0.053
	c-0.083-0.033-0.165-0.068-0.247-0.102c-0.063-0.025-0.125-0.049-0.188-0.074c-0.039-0.014-0.078-0.029-0.116-0.045
	c-0.099-0.037-0.196-0.07-0.292-0.1c0.32-0.713,0.455-1.648,0.995-2.092c1.431-1.176,3.001-2.199,4.58-3.178
	c5.36-3.314,10.77-6.553,16.09-9.932c0.493-0.313,0.903-1.678,0.636-2.133c-3.529-6.037-3.791-12.525-2.752-19.174
	c0.354-2.264,1.086-4.469,1.646-6.699c5.139,7.334,7.687,14.873,5.602,23.51c7.457-6.732,13.223-14.52,16.887-23.813
	c-5.51-2.736-10.928-18.532-8.074-24.272c5.203,4.816,8.756,10.425,10.813,17.866c0.861-3.867,1.867-6.989,2.193-10.18
	c0.508-4.977,1.699-10.285,0.527-14.93c-1.658-6.576,0.148-11.93,2.822-17.414c0.943-1.933,2.352-3.639,3.891-5.965
	c0.467,2.586,0.896,4.467,1.135,6.374c0.779,6.263,0.785,12.345-4.361,17.126c-0.348,0.323-0.49,0.993-0.522,1.512
	c-0.209,3.344-0.359,6.688-0.529,10.016c2.534-2.01,4.825-4.229,7.487-5.826C139.306,27.784,142.315,26.834,145.162,25.612z
	 M46.456,83.203c-0.494-0.314-0.903-1.676-0.636-2.133c3.529-6.039,3.79-12.525,2.751-19.174c-0.354-2.264-1.086-4.469-1.646-6.701
	c-5.138,7.334-7.687,14.875-5.601,23.512c-7.457-6.732-13.224-14.52-16.887-23.814c5.51-2.736,10.929-18.531,8.074-24.271
	c-5.204,4.816-8.757,10.425-10.813,17.867c-0.86-3.869-1.868-6.99-2.193-10.181c-0.509-4.974-1.699-10.284-0.527-14.929
	c1.658-6.576-0.149-11.932-2.822-17.414C15.214,4.032,13.804,2.326,12.266,0c-0.469,2.585-0.897,4.469-1.136,6.374
	c-0.778,6.264-0.783,12.347,4.361,17.127c0.348,0.324,0.49,0.992,0.522,1.512c0.209,3.343,0.359,6.688,0.529,10.016
	c-2.534-2.011-4.823-4.23-7.487-5.826c-2.634-1.578-5.645-2.526-8.49-3.749C0.377,25.658,0.188,25.864,0,26.069
	c0.316,0.906,0.512,1.884,0.979,2.704c1.11,1.957,2.383,3.821,3.53,5.757c2.816,4.752,6.931,7.658,12.273,9.004
	c0.76,0.191,1.616,1.107,1.896,1.881c1.399,3.855,2.488,7.824,3.945,11.654c1.209,3.188,2.779,6.238,4.338,9.672
	c-0.463-0.152-0.923-0.289-1.383-0.414c-0.15-0.039-0.3-0.074-0.45-0.111c-0.31-0.078-0.618-0.154-0.926-0.221
	c-0.179-0.039-0.357-0.074-0.535-0.107c-0.279-0.057-0.56-0.109-0.838-0.156c-0.187-0.031-0.373-0.061-0.56-0.088
	c-0.162-0.023-0.324-0.043-0.486-0.064c-0.108-0.016-0.218-0.031-0.326-0.045c-0.188-0.023-0.375-0.045-0.563-0.064
	c-0.272-0.027-0.544-0.053-0.814-0.074c-0.183-0.014-0.365-0.029-0.549-0.041c-0.28-0.02-0.563-0.033-0.843-0.045
	c-0.172-0.008-0.343-0.018-0.514-0.021c-0.312-0.01-0.623-0.014-0.935-0.018c-0.139-0.002-0.277-0.006-0.417-0.006
	c-0.169,0-0.339,0.004-0.509,0.006c-0.34,0.002-0.681,0.006-1.021,0.016c-0.203,0.004-0.406,0.012-0.608,0.02
	c-0.308,0.01-0.614,0.021-0.922,0.037c-0.216,0.01-0.432,0.021-0.647,0.033c-0.297,0.016-0.595,0.031-0.893,0.051
	c-0.229,0.014-0.459,0.029-0.689,0.043c-0.296,0.02-0.591,0.041-0.888,0.061c-0.274,0.02-0.549,0.039-0.824,0.059
	c-0.382,0.027-0.765,0.055-1.148,0.082c-0.335,0.025-0.67,0.047-1.007,0.07c-0.213,0.016-0.427,0.029-0.642,0.043
	c-0.349,0.023-0.7,0.043-1.051,0.064c-0.179,0.01-0.356,0.021-0.536,0.031c-0.524,0.027-1.054,0.053-1.584,0.07
	c0.888,1.092,1.282,1.711,1.802,2.195c0.376,0.354,0.758,0.688,1.143,1.014c0.105,0.09,0.212,0.178,0.318,0.264
	c0.314,0.26,0.632,0.51,0.95,0.75c0.081,0.061,0.161,0.123,0.241,0.184c0.391,0.287,0.785,0.559,1.182,0.818
	c0.091,0.061,0.184,0.115,0.274,0.174c0.323,0.205,0.647,0.4,0.976,0.588c0.107,0.061,0.214,0.123,0.323,0.184
	c0.407,0.225,0.818,0.439,1.233,0.637c0.034,0.014,0.068,0.029,0.103,0.045c0.384,0.18,0.771,0.346,1.16,0.502
	c0.116,0.047,0.233,0.092,0.351,0.135c0.357,0.137,0.718,0.264,1.079,0.381c0.073,0.023,0.146,0.051,0.22,0.074
	c0.429,0.133,0.86,0.25,1.295,0.355c0.108,0.025,0.216,0.047,0.325,0.072c0.349,0.078,0.7,0.148,1.054,0.209
	c0.113,0.021,0.226,0.041,0.34,0.061c0.443,0.068,0.89,0.127,1.34,0.17c0.063,0.006,0.127,0.008,0.19,0.014
	c0.394,0.033,0.79,0.055,1.189,0.068c0.127,0.004,0.254,0.008,0.381,0.01c0.152,0.002,0.307-0.004,0.46-0.006
	c0.102,0,0.204,0,0.307-0.002c0.351-0.006,0.703-0.02,1.057-0.041c0.228-0.014,0.454-0.031,0.682-0.051
	c0.359-0.033,0.721-0.074,1.083-0.123c0.222-0.029,0.443-0.057,0.666-0.092c0.396-0.064,0.795-0.141,1.194-0.223
	c0.191-0.039,0.381-0.072,0.572-0.115c0.593-0.133,1.189-0.283,1.791-0.457c0.239-0.068,0.46-0.119,0.673-0.16
	c0.063-0.012,0.124-0.02,0.186-0.029c0.154-0.023,0.302-0.037,0.445-0.041c0.036-0.002,0.078-0.012,0.114-0.012
	c0.035,0,0.067,0.004,0.103,0.006c0.034,0,0.068,0.004,0.103,0.006c0.136,0.01,0.269,0.025,0.396,0.057c0,0,0,0,0.001,0
	c0.127,0.031,0.249,0.078,0.369,0.131c0.029,0.014,0.061,0.029,0.089,0.043c0.24,0.119,0.472,0.287,0.7,0.508
	c0.029,0.027,0.058,0.055,0.086,0.084c0.115,0.117,0.229,0.242,0.345,0.387c1.332,1.678,2.72,3.369,4.345,4.75
	c4.238,3.598,8.62,7.027,13.07,10.627c-0.175,0.115-0.312,0.271-0.472,0.301c-4.898,0.91-9.841,1.639-14.688,2.771
	c-2.579,0.604-2.859,2.695-0.604,4.201c1.583,1.053,3.529,2.078,5.354,2.158c0.426,0.018,0.85,0.027,1.272,0.029
	c0.217,0,0.433-0.004,0.648-0.008c0.138-0.002,0.277-0.004,0.416-0.006c0.251-0.01,0.501-0.023,0.751-0.037
	c0.107-0.006,0.217-0.01,0.324-0.018c0.358-0.023,0.716-0.055,1.07-0.092c0.019-0.002,0.036-0.006,0.054-0.008
	c0.335-0.037,0.67-0.078,1.002-0.127c0.115-0.018,0.229-0.039,0.344-0.057c0.235-0.037,0.47-0.076,0.703-0.119
	c0.134-0.025,0.268-0.055,0.401-0.082c0.212-0.043,0.424-0.086,0.634-0.135c0.144-0.033,0.284-0.07,0.427-0.105
	c0.2-0.049,0.4-0.1,0.6-0.154c0.145-0.039,0.289-0.082,0.436-0.125c0.193-0.057,0.387-0.115,0.578-0.176
	c0.147-0.049,0.293-0.098,0.439-0.146c0.188-0.064,0.377-0.131,0.565-0.201c0.146-0.053,0.291-0.107,0.436-0.164
	c0.187-0.072,0.373-0.148,0.558-0.227c0.145-0.059,0.287-0.121,0.431-0.184c0.186-0.082,0.37-0.166,0.554-0.254
	c0.14-0.064,0.28-0.131,0.42-0.199c0.186-0.092,0.371-0.188,0.556-0.285c0.135-0.07,0.271-0.141,0.403-0.213
	c0.191-0.105,0.379-0.215,0.569-0.324c0.126-0.074,0.252-0.145,0.377-0.221c0.206-0.125,0.411-0.258,0.616-0.389
	c0.104-0.068,0.21-0.133,0.314-0.203c0.308-0.203,0.612-0.416,0.916-0.637c0.063-0.045,0.137-0.084,0.219-0.121
	c0.025-0.012,0.057-0.02,0.084-0.029c0.059-0.021,0.115-0.043,0.179-0.061c0.036-0.01,0.074-0.016,0.112-0.023
	c0.059-0.014,0.119-0.025,0.181-0.033c0.041-0.006,0.081-0.01,0.122-0.014c0.062-0.006,0.121-0.01,0.184-0.012
	c0.021,0,0.045-0.004,0.066-0.004c0.025,0,0.049,0.004,0.072,0.004c0.035,0,0.07,0.002,0.104,0.004
	c0.054,0.004,0.105,0.01,0.157,0.018c0.031,0.006,0.063,0.01,0.094,0.016c0.055,0.01,0.104,0.023,0.153,0.039
	c0.024,0.006,0.05,0.012,0.073,0.021c0.069,0.023,0.135,0.053,0.189,0.088c1.486,0.928,2.783,2.152,4.238,3.135
	c0.889,0.602,1.893,1.195,2.92,1.377c0.086,0.016,0.174,0.02,0.264,0.018c0.033,0,0.068-0.004,0.103-0.008
	c0.058-0.004,0.116-0.01,0.175-0.02c0.039-0.006,0.078-0.016,0.117-0.023c0.056-0.014,0.113-0.027,0.17-0.043
	c0.041-0.01,0.08-0.023,0.12-0.037c0.06-0.018,0.117-0.037,0.177-0.059c0.039-0.014,0.079-0.029,0.119-0.045
	c0.064-0.023,0.127-0.049,0.191-0.074c0.041-0.016,0.081-0.031,0.122-0.049c0.085-0.035,0.169-0.07,0.253-0.104
	c0.06-0.025,0.119-0.049,0.178-0.07c0.043-0.018,0.084-0.033,0.125-0.049c0.098-0.037,0.195-0.072,0.292-0.102
	c-0.32-0.711-0.456-1.646-0.995-2.092c-1.43-1.176-2.999-2.199-4.578-3.178C57.186,89.818,51.776,86.582,46.456,83.203z" class="color c1"/>
</svg>