<svg version="1.1" id="图层_1" x="0px" y="0px" width="19.602px" height="51.135px" viewBox="0 0 19.602 51.135" enable-background="new 0 0 19.602 51.135" xml:space="preserve" xmlns="http://www.w3.org/2000/svg" xmlns:xlink="http://www.w3.org/1999/xlink" xmlns:xml="http://www.w3.org/XML/1998/namespace">
  <path fill="#1D3749" d="M9.826,21.953c-5.371-0.025-9.705-4.403-9.679-9.776C5.52,12.206,9.852,16.582,9.826,21.953
	c0.026-5.371,4.405-9.705,9.776-9.679C19.574,17.647,15.197,21.981,9.826,21.953z M9.728,41.408
	c-5.374-0.027-9.706-4.402-9.679-9.774C5.421,31.66,9.754,36.036,9.728,41.408c0.026-5.372,4.404-9.705,9.775-9.678
	C19.476,37.102,15.101,41.437,9.728,41.408z M9.677,51.135C4.306,51.11-0.026,46.733,0,41.358
	C5.372,41.387,9.706,45.763,9.677,51.135c0.029-5.372,4.405-9.706,9.778-9.679C19.427,46.829,15.051,51.16,9.677,51.135z M9.936,0
	c3.781,3.819,3.75,9.976-0.069,13.757C6.086,9.939,6.117,3.781,9.936,0z M9.778,31.681c-5.374-0.027-9.707-4.405-9.681-9.775
	C5.47,21.931,9.803,26.311,9.778,31.681c0.025-5.371,4.403-9.706,9.775-9.678C19.526,27.376,15.149,31.707,9.778,31.681z" class="color c1"/>
</svg>