<svg version="1.1" id="图层_1" x="0px" y="0px" width="220px" height="220.001px" viewBox="0 0 220 220.001" enable-background="new 0 0 220 220.001" xml:space="preserve" xmlns="http://www.w3.org/2000/svg" xmlns:xlink="http://www.w3.org/1999/xlink" xmlns:xml="http://www.w3.org/XML/1998/namespace">
  <path fill="#A5A5A5" d="M203.904,145.816c-0.998-0.382-1.73-1.17-2.114-2.112c-0.411-0.954-0.492-2.07-0.129-3.147
	c0.759-2.125,2.854-3.446,4.935-2.867c2.041,0.566,3.242,2.985,2.415,5.316c-0.394,1.166-1.159,2.078-2.077,2.587
	C205.985,146.094,204.903,146.199,203.904,145.816z M199.755,129.631c0.682-3.207-1.498-6.198-4.667-6.64
	c-3.187-0.445-6.105,1.437-6.686,4.167c-0.58,2.732,1.26,5.646,4.333,6.563C195.811,134.642,199.068,132.84,199.755,129.631z
	 M189.989,146.74c0.425-0.945,0.415-1.976,0.045-2.858c-0.398-0.897-1.148-1.642-2.139-2.045s-2.031-0.401-2.905-0.092
	c-0.905,0.298-1.653,0.898-2.04,1.756c-0.731,1.723,0.038,3.839,1.956,4.841C186.781,149.322,189.167,148.658,189.989,146.74z
	 M212.75,128.163c0.236-1.35-0.516-2.581-1.707-2.756c-1.16-0.171-2.308,0.728-2.531,2.011c-0.229,1.283,0.527,2.515,1.691,2.754
	C211.367,130.41,212.51,129.512,212.75,128.163z M194.959,158.701c0.917-1.549,0.396-3.47-1.091-4.248
	c-1.462-0.766-3.283-0.191-4.135,1.246c-0.819,1.457-0.377,3.333,1.018,4.208C192.176,160.8,194.075,160.27,194.959,158.701z
	 M181.54,134.228c0.463-1.31-0.504-2.769-2.116-3.247c-1.579-0.465-3.17,0.129-3.592,1.315c-0.387,1.197,0.524,2.64,2.061,3.228
	C179.463,136.125,181.11,135.549,181.54,134.228z M201.783,113.477c0.05-1.933-1.454-3.49-3.355-3.477
	c-1.9,0.013-3.481,1.455-3.524,3.22c-0.015,1.768,1.325,3.314,3.247,3.47C200.019,116.844,201.764,115.412,201.783,113.477z
	 M182.565,123.39c0.217-1.242-0.826-2.427-2.369-2.652c-1.514-0.219-2.937,0.513-3.134,1.646c-0.178,1.134,0.841,2.313,2.338,2.644
	C180.92,125.363,182.367,124.637,182.565,123.39z M173.101,148.361c0.435-0.756,0.031-1.803-0.896-2.337
	c-0.928-0.534-2.006-0.389-2.412,0.321c-0.447,0.686-0.075,1.714,0.824,2.294C171.518,149.217,172.627,149.093,173.101,148.361z
	 M181.09,158.963c0.735-1.007,0.343-2.465-0.742-3.164c-1.113-0.72-2.466-0.466-3.155,0.473c-0.677,0.951-0.368,2.35,0.685,3.126
	C178.93,160.172,180.367,159.978,181.09,158.963z M215.052,115.711c0.063-1.238-0.797-2.267-1.86-2.297
	c-1.075-0.031-1.947,0.905-2.008,2.089c-0.086,1.184,0.705,2.211,1.771,2.295S214.962,116.948,215.052,115.711z M208.798,161.187
	c0.532-1.037,0.267-2.221-0.587-2.64c-0.854-0.419-1.959,0.053-2.47,1.054c-0.513,1-0.256,2.18,0.579,2.637
	C207.154,162.696,208.266,162.227,208.798,161.187z M170.733,194.986c2.032-1.402,2.479-4.057,1.159-5.72
	c-1.343-1.69-3.814-1.864-5.673-0.587c-1.817,1.334-2.414,3.782-1.264,5.574C166.12,196.066,168.742,196.445,170.733,194.986z
	 M171.086,178.725c2.423-2.203,2.443-5.879,0.118-8.129c-2.29-2.217-5.782-2.441-7.848-0.561c-2.081,1.865-2.299,5.313-0.353,7.862
	C164.956,180.454,168.644,180.908,171.086,178.725z M153.149,186.824c1.816-1.025,2.332-3.37,1.179-5.201
	c-1.132-1.792-3.354-2.477-4.982-1.559c-1.603,0.965-2.221,3.125-1.25,5.069C149.036,187.024,151.361,187.895,153.149,186.824z
	 M182.452,185.2c0.996-0.937,1.088-2.399,0.23-3.239c-0.84-0.825-2.271-0.752-3.22,0.137c-0.939,0.9-1.053,2.339-0.252,3.219
	C180.013,186.195,181.465,186.145,182.452,185.2z M150.171,199.431c1.646-0.729,2.356-2.571,1.606-4.079
	c-0.734-1.475-2.555-2.1-4.081-1.423c-1.512,0.708-2.26,2.472-1.642,4.003C146.685,199.49,148.54,200.194,150.171,199.431z
	 M153.642,171.722c1.144-0.796,1.223-2.54,0.197-3.876c-1.005-1.306-2.646-1.764-3.684-1.047c-1.014,0.752-1.131,2.445-0.229,3.827
	C150.844,172.033,152.522,172.547,153.642,171.722z M182.215,166.859c1.213-1.504,0.868-3.682-0.685-4.799
	c-1.537-1.103-3.616-0.838-4.727,0.534c-1.065,1.405-0.845,3.486,0.593,4.726C178.841,168.566,181.043,168.398,182.215,166.859z
	 M160.854,163.542c0.919-0.865,0.758-2.458-0.36-3.55c-1.092-1.07-2.658-1.298-3.496-0.509c-0.822,0.806-0.682,2.375,0.332,3.522
	C158.363,164.174,159.95,164.424,160.854,163.542z M138.522,178.205c0.801-0.34,1.08-1.44,0.644-2.412
	c-0.439-0.982-1.391-1.484-2.142-1.164c-0.76,0.295-1.06,1.346-0.671,2.344S137.713,178.521,138.522,178.205z M138.786,191.487
	c1.187-0.376,1.721-1.791,1.253-2.995c-0.48-1.236-1.721-1.822-2.833-1.477c-1.102,0.373-1.671,1.689-1.273,2.936
	C136.329,191.199,137.607,191.885,138.786,191.487z M191.621,176.493c0.768-0.974,0.701-2.298-0.145-2.953
	c-0.847-0.654-2.125-0.429-2.859,0.503c-0.729,0.938-0.729,2.203,0.092,2.908C189.511,177.641,190.858,177.471,191.621,176.493z
	 M159.925,209.576c1.037-0.529,1.515-1.646,1.069-2.484c-0.446-0.843-1.617-1.106-2.617-0.598c-0.999,0.513-1.479,1.627-1.075,2.476
	C157.715,209.84,158.886,210.106,159.925,209.576z M109.263,214.521c2.46,0.014,4.382-1.822,4.291-3.949
	c-0.091-2.155-1.988-3.797-4.237-3.81c-2.249-0.054-4.17,1.632-4.289,3.771C104.906,212.674,106.802,214.466,109.263,214.521z
	 M114.877,200.197c1.092,0.973,2.605,1.512,4.222,1.388c3.251-0.373,5.43-3.315,4.871-6.515c-0.547-3.134-3.237-5.391-6.008-5.068
	c-1.409,0.104-2.632,0.852-3.522,1.978c-0.887,1.097-1.443,2.55-1.39,4.16C113.104,197.739,113.779,199.195,114.877,200.197z
	 M99.836,197.554c2.065,0.277,3.87-1.415,4.005-3.526c0.141-2.166-1.269-3.93-3.119-4.182c-1.853-0.238-3.643,1.295-3.988,3.38
	C96.38,195.368,97.769,197.291,99.836,197.554z M124.479,213.517c1.357-0.156,2.287-1.319,2.09-2.491
	c-0.195-1.176-1.391-1.925-2.683-1.779c-1.29,0.166-2.229,1.258-2.099,2.44C121.917,212.869,123.123,213.691,124.479,213.517z
	 M90.028,206.022c1.765,0.345,3.426-0.751,3.699-2.389c0.274-1.648-0.839-3.202-2.476-3.521c-1.626-0.375-3.269,0.631-3.671,2.248
	C87.181,203.979,88.275,205.621,90.028,206.022z M109.106,185.63c1.392,0.063,2.485-1.394,2.44-3.036
	c-0.045-1.689-1.106-2.938-2.37-2.998c-1.266-0.038-2.358,1.293-2.442,2.958C106.651,184.217,107.713,185.591,109.106,185.63z
	 M135.066,198.541c1.866-0.502,2.864-2.465,2.261-4.284c-0.596-1.795-2.435-2.808-4.137-2.353c-1.686,0.511-2.725,2.326-2.292,4.174
	C131.335,197.938,133.216,199.098,135.066,198.541z M119.752,183.267c1.254-0.136,2.051-1.551,1.792-3.087
	c-0.256-1.516-1.38-2.59-2.522-2.47c-1.141,0.142-1.944,1.522-1.799,3.056C117.371,182.314,118.501,183.422,119.752,183.267z
	 M93.058,181.949c0.847,0.195,1.71-0.492,1.928-1.541s-0.248-2.054-1.043-2.235c-0.794-0.183-1.66,0.515-1.93,1.55
	C91.742,180.761,92.21,181.754,93.058,181.949z M85.479,192.871c1.196,0.338,2.436-0.412,2.768-1.678
	c0.331-1.266-0.307-2.554-1.426-2.87c-1.126-0.296-2.341,0.38-2.752,1.628C83.661,191.189,84.274,192.553,85.479,192.871z
	 M137.024,211.874c1.193-0.337,1.917-1.446,1.617-2.475s-1.468-1.599-2.61-1.276c-1.139,0.336-1.888,1.352-1.636,2.408
	C134.64,211.559,135.832,212.223,137.024,211.874z M91.976,219.96c1.146,0.218,2.191-0.447,2.322-1.387
	c0.134-0.946-0.664-1.808-1.768-2.018c-1.105-0.194-2.143,0.402-2.316,1.339S90.829,219.756,91.976,219.96z M48.063,194.127
	c2.008,1.436,4.6,1.144,5.784-0.645c1.181-1.782,0.651-4.289-1.183-5.599c-1.804-1.348-4.314-1.166-5.676,0.501
	C45.641,190.035,46.089,192.65,48.063,194.127z M61.032,185.834c0.31,1.434,1.178,2.828,2.599,3.611
	c2.812,1.682,6.358,0.475,7.757-2.398c1.418-2.903,0.51-6.205-1.882-7.646c-2.413-1.401-5.752-0.557-7.594,2.11
	C61.013,182.844,60.726,184.387,61.032,185.834z M50.409,174.852c1.538,1.408,3.951,1.15,5.312-0.486
	c1.376-1.656,1.316-3.959-0.063-5.222c-1.35-1.296-3.692-1.117-5.21,0.378C48.914,171.031,48.905,173.41,50.409,174.852z
	 M60.976,202.288c1.215,0.627,2.632,0.267,3.161-0.798c0.529-1.066,0.02-2.41-1.137-3.006c-1.161-0.588-2.529-0.316-3.124,0.73
	C59.295,200.235,59.755,201.671,60.976,202.288z M37.51,175.912c1.235,1.307,3.207,1.414,4.393,0.247
	c1.188-1.169,1.215-3.093,0.067-4.306c-1.092-1.262-3.01-1.416-4.284-0.346C36.411,172.579,36.331,174.553,37.51,175.912z
	 M64.9,170.688c1.137,0.803,2.816,0.346,3.759-1.028c0.941-1.374,0.876-3.085-0.156-3.81c-0.992-0.779-2.641-0.363-3.688,0.934
	C63.771,168.078,63.806,169.83,64.9,170.688z M78.321,196.416c1.826,0.63,3.777-0.347,4.352-2.159
	c0.575-1.817-0.312-3.743-1.977-4.313c-1.637-0.65-3.561,0.252-4.296,2.008C75.665,193.709,76.525,195.709,78.321,196.416z
	 M74.882,175.042c1.124,0.569,2.589-0.086,3.275-1.472c0.687-1.387,0.418-2.939-0.607-3.454c-0.994-0.576-2.437,0.038-3.222,1.374
	C73.543,172.82,73.791,174.412,74.882,175.042z M54.097,158.225c0.569,0.66,1.672,0.613,2.466-0.105
	c0.792-0.719,1.003-1.808,0.467-2.428c-0.536-0.618-1.645-0.566-2.473,0.112C53.729,156.482,53.524,157.566,54.097,158.225z
	 M41.553,162.592c0.769,0.979,2.212,1.103,3.224,0.273s1.25-2.246,0.529-3.162c-0.738-0.904-2.114-1.077-3.182-0.305
	C41.07,160.158,40.764,161.625,41.553,162.592z M72.101,208.324c1.153,0.459,2.385-0.002,2.75-1.021
	c0.355-0.996-0.252-2.158-1.354-2.598c-1.104-0.436-2.332,0.012-2.741,1.001C70.344,206.695,70.945,207.869,72.101,208.324z
	 M30.892,188.323c0.802,0.845,2.044,0.917,2.696,0.241c0.669-0.691,0.523-1.851-0.249-2.666c-0.775-0.811-1.962-0.938-2.652-0.283
	C29.996,186.269,30.086,187.482,30.892,188.323z M10.518,141.6c0.785,2.346,3.06,3.635,5.063,2.886c2.005-0.75,3.04-3.09,2.321-5.23
	c-0.665-2.155-2.808-3.486-4.887-2.94C10.956,136.856,9.788,139.237,10.518,141.6z M25.866,146.972
	c1.302,3.012,4.865,4.125,7.689,2.617c2.839-1.515,4.051-4.73,2.948-7.298c-1.118-2.556-4.34-3.825-7.38-2.752
	C26.111,140.598,24.555,143.968,25.866,146.972z M23.722,127.382c0.43,2.041,2.521,3.258,4.583,2.734
	c2.083-0.528,3.399-2.426,3.013-4.256c-0.324-1.842-2.312-3.079-4.427-2.766C24.774,123.408,23.356,125.327,23.722,127.382z
	 M16.194,155.815c0.62,1.222,1.979,1.76,3.032,1.209c1.054-0.551,1.426-1.939,0.835-3.101c-0.581-1.166-1.862-1.744-2.954-1.248
	C16.034,153.164,15.585,154.589,16.194,155.815z M12.687,120.627c0.224,1.786,1.744,3.038,3.39,2.794
	c1.646-0.243,2.81-1.784,2.6-3.441c-0.185-1.661-1.591-2.922-3.263-2.807C13.766,117.285,12.488,118.837,12.687,120.627z
	 M37.888,132.539c0.449,1.315,2.078,1.931,3.646,1.372c1.568-0.558,2.517-1.978,2.105-3.168c-0.338-1.211-1.92-1.841-3.527-1.409
	C38.506,129.767,37.51,131.202,37.888,132.539z M33.686,161.249c1.098,1.591,3.26,1.94,4.785,0.812
	c1.534-1.134,1.934-3.208,0.93-4.658c-0.948-1.486-3.038-1.886-4.661-0.896C33.115,157.498,32.643,159.621,33.686,161.249z
	 M43.416,141.917c0.564,1.126,2.147,1.449,3.512,0.731c1.371-0.72,2.048-2.13,1.532-3.155c-0.466-1.05-2-1.395-3.417-0.778
	C43.627,139.334,42.902,140.765,43.416,141.917z M36.478,116.122c0.069,0.871,0.972,1.486,2.048,1.371
	c1.05-0.113,1.878-0.869,1.813-1.687c-0.061-0.818-0.98-1.431-2.048-1.371C37.223,114.495,36.414,115.251,36.478,116.122z
	 M23.781,112.247c0.033,1.248,1.112,2.2,2.422,2.125c1.301-0.072,2.341-1.079,2.31-2.246c-0.029-1.169-1.115-2.12-2.422-2.126
	C24.783,109.995,23.75,111,23.781,112.247z M21.67,167.234c0.671,1.044,1.927,1.402,2.82,0.789c0.871-0.598,1.072-1.9,0.43-2.898
	c-0.64-1-1.896-1.358-2.809-0.797C21.199,164.888,21,166.189,21.67,167.234z M0.022,126.759c0.183,1.151,1.118,1.949,2.053,1.788
	c0.938-0.165,1.528-1.193,1.351-2.303c-0.146-1.114-1.024-1.919-1.968-1.799C0.516,124.566-0.13,125.603,0.022,126.759z
	 M13.067,74.408c-0.918,0.51-1.685,1.422-2.077,2.587c-0.828,2.332,0.374,4.75,2.415,5.317c2.081,0.578,4.174-0.742,4.934-2.867
	c0.365-1.077,0.282-2.192-0.129-3.147c-0.384-0.943-1.115-1.73-2.114-2.113S14.016,73.907,13.067,74.408z M20.246,90.37
	c-0.683,3.207,1.497,6.198,4.667,6.639c3.186,0.446,6.105-1.436,6.686-4.167c0.58-2.732-1.262-5.645-4.334-6.563
	C24.189,85.359,20.931,87.162,20.246,90.37z M30.012,73.261c-0.427,0.945-0.415,1.975-0.045,2.858
	c0.398,0.897,1.147,1.642,2.139,2.045c0.99,0.403,2.031,0.401,2.905,0.092c0.905-0.298,1.652-0.898,2.04-1.757
	c0.73-1.722-0.039-3.838-1.958-4.84C33.22,70.679,30.834,71.343,30.012,73.261z M7.25,91.838c-0.235,1.35,0.517,2.582,1.707,2.756
	c1.161,0.171,2.308-0.729,2.532-2.012c0.229-1.282-0.528-2.515-1.692-2.754C8.633,89.591,7.491,90.49,7.25,91.838z M25.041,61.3
	c-0.916,1.55-0.396,3.47,1.091,4.248c1.462,0.766,3.284,0.19,4.136-1.247c0.818-1.456,0.375-3.332-1.019-4.208
	C27.824,59.2,25.925,59.73,25.041,61.3z M38.462,85.773c-0.465,1.311,0.502,2.77,2.114,3.246c1.58,0.466,3.171-0.127,3.592-1.313
	c0.387-1.198-0.523-2.64-2.062-3.228C40.536,83.875,38.892,84.452,38.462,85.773z M18.217,106.524
	c-0.049,1.934,1.454,3.49,3.355,3.477s3.481-1.455,3.525-3.22c0.014-1.768-1.325-3.314-3.249-3.471
	C19.982,103.157,18.237,104.59,18.217,106.524z M37.436,96.611c-0.218,1.243,0.825,2.427,2.369,2.652
	c1.514,0.22,2.937-0.513,3.133-1.645c0.179-1.136-0.84-2.313-2.336-2.644C39.08,94.638,37.635,95.365,37.436,96.611z M46.899,71.641
	c-0.434,0.755-0.031,1.803,0.896,2.336c0.929,0.534,2.008,0.39,2.414-0.32c0.445-0.686,0.073-1.714-0.826-2.294
	S47.373,70.908,46.899,71.641z M38.91,61.039c-0.734,1.006-0.341,2.464,0.742,3.164c1.113,0.719,2.467,0.467,3.156-0.474
	c0.677-0.949,0.368-2.35-0.685-3.125C41.07,59.829,39.632,60.023,38.91,61.039z M4.949,104.29c-0.063,1.237,0.797,2.267,1.859,2.297
	c1.075,0.031,1.947-0.905,2.007-2.089c0.088-1.185-0.704-2.211-1.771-2.295S5.038,103.053,4.949,104.29z M11.204,58.813
	c-0.534,1.039-0.269,2.222,0.585,2.64c0.854,0.419,1.958-0.053,2.471-1.054c0.512-1,0.255-2.18-0.58-2.637
	C12.847,57.306,11.735,57.775,11.204,58.813z M49.267,25.016c-2.031,1.402-2.479,4.056-1.158,5.718
	c1.342,1.691,3.814,1.865,5.673,0.588c1.816-1.333,2.414-3.783,1.264-5.575C53.88,23.935,51.259,23.557,49.267,25.016z
	 M48.914,41.278c-2.423,2.201-2.443,5.878-0.119,8.127c2.29,2.216,5.784,2.442,7.849,0.563c2.082-1.867,2.299-5.314,0.353-7.865
	C55.046,39.548,51.356,39.093,48.914,41.278z M66.851,33.178c-1.815,1.024-2.332,3.369-1.178,5.2
	c1.131,1.792,3.354,2.476,4.982,1.559c1.601-0.965,2.219-3.125,1.25-5.07C70.964,32.978,68.64,32.107,66.851,33.178z M37.549,34.801
	c-0.997,0.937-1.087,2.398-0.23,3.24c0.84,0.824,2.271,0.751,3.219-0.138c0.939-0.899,1.054-2.338,0.253-3.218
	C39.988,33.807,38.535,33.856,37.549,34.801z M69.83,20.57c-1.646,0.729-2.358,2.571-1.607,4.079c0.734,1.475,2.556,2.1,4.082,1.423
	c1.512-0.708,2.259-2.472,1.642-4.002C73.316,20.51,71.46,19.807,69.83,20.57z M66.357,48.281c-1.143,0.794-1.22,2.54-0.195,3.874
	c1.005,1.307,2.646,1.766,3.683,1.047c1.015-0.75,1.131-2.444,0.23-3.827C69.156,47.967,67.478,47.455,66.357,48.281z
	 M37.787,53.142c-1.216,1.504-0.87,3.682,0.684,4.798c1.536,1.104,3.616,0.838,4.727-0.534c1.065-1.404,0.843-3.485-0.593-4.725
	C41.16,51.435,38.957,51.602,37.787,53.142z M59.146,56.459c-0.918,0.867-0.756,2.457,0.361,3.551
	c1.092,1.069,2.658,1.297,3.496,0.508c0.822-0.806,0.681-2.375-0.333-3.522C61.637,55.826,60.051,55.577,59.146,56.459z
	 M81.477,41.795c-0.799,0.341-1.079,1.441-0.643,2.413c0.44,0.982,1.393,1.483,2.142,1.165c0.761-0.294,1.061-1.347,0.671-2.345
	C83.258,42.03,82.289,41.48,81.477,41.795z M81.215,28.514c-1.188,0.375-1.721,1.79-1.253,2.995
	c0.479,1.237,1.721,1.824,2.833,1.476c1.102-0.372,1.671-1.688,1.273-2.935C83.67,28.802,82.394,28.116,81.215,28.514z
	 M28.381,43.509c-0.769,0.973-0.703,2.296,0.144,2.952c0.846,0.655,2.125,0.429,2.858-0.502c0.729-0.938,0.731-2.204-0.091-2.909
	C30.489,42.361,29.142,42.53,28.381,43.509z M60.076,10.424c-1.038,0.531-1.517,1.646-1.069,2.488
	c0.446,0.84,1.616,1.106,2.616,0.593c1-0.511,1.479-1.625,1.076-2.473C62.285,10.161,61.114,9.895,60.076,10.424z M110.738,5.479
	c-2.461-0.014-4.383,1.823-4.291,3.95c0.091,2.155,1.987,3.796,4.237,3.809c2.249,0.054,4.169-1.631,4.29-3.771
	C115.095,7.328,113.198,5.534,110.738,5.479z M105.123,19.804c-1.091-0.973-2.605-1.512-4.221-1.388
	c-3.251,0.373-5.431,3.315-4.871,6.515c0.548,3.133,3.236,5.391,6.008,5.068c1.409-0.103,2.632-0.851,3.521-1.977
	c0.887-1.097,1.442-2.549,1.389-4.161C106.896,22.261,106.221,20.805,105.123,19.804z M120.164,22.448
	c-2.064-0.278-3.87,1.415-4.005,3.526c-0.142,2.166,1.268,3.929,3.12,4.182c1.853,0.237,3.641-1.295,3.987-3.38
	C123.622,24.633,122.23,22.71,120.164,22.448z M95.522,6.484c-1.357,0.156-2.287,1.32-2.091,2.492
	c0.196,1.176,1.392,1.925,2.683,1.779c1.29-0.166,2.229-1.257,2.099-2.441C98.083,7.131,96.878,6.31,95.522,6.484z M129.972,13.979
	c-1.765-0.344-3.427,0.749-3.698,2.388c-0.274,1.649,0.838,3.202,2.476,3.521c1.626,0.375,3.269-0.631,3.67-2.249
	C132.82,16.022,131.727,14.38,129.972,13.979z M110.895,34.371c-1.393-0.063-2.486,1.394-2.441,3.036
	c0.045,1.69,1.107,2.938,2.371,2.998c1.266,0.037,2.358-1.294,2.44-2.958C113.349,35.784,112.287,34.41,110.895,34.371z
	 M84.934,21.46c-1.865,0.502-2.864,2.464-2.261,4.285c0.596,1.794,2.437,2.807,4.137,2.353c1.686-0.511,2.726-2.326,2.293-4.173
	C88.665,22.063,86.784,20.904,84.934,21.46z M100.248,36.735c-1.253,0.135-2.05,1.55-1.791,3.087c0.255,1.515,1.38,2.59,2.523,2.469
	c1.139-0.142,1.942-1.523,1.797-3.056C102.63,37.687,101.5,36.579,100.248,36.735z M126.942,38.051
	c-0.846-0.195-1.709,0.493-1.928,1.542c-0.218,1.049,0.248,2.052,1.044,2.235c0.794,0.183,1.659-0.515,1.93-1.549
	C128.26,39.24,127.791,38.247,126.942,38.051z M134.523,27.13c-1.197-0.339-2.437,0.411-2.769,1.677
	c-0.332,1.268,0.305,2.553,1.425,2.871c1.126,0.295,2.342-0.379,2.753-1.629C136.341,28.812,135.727,27.45,134.523,27.13z
	 M82.977,8.128c-1.194,0.335-1.918,1.446-1.618,2.474c0.301,1.029,1.469,1.599,2.611,1.276c1.14-0.335,1.886-1.353,1.635-2.408
	C85.36,8.442,84.168,7.779,82.977,8.128z M128.024,0.042c-1.145-0.219-2.19,0.446-2.323,1.386c-0.132,0.946,0.666,1.806,1.77,2.018
	c1.104,0.195,2.142-0.402,2.315-1.338C129.961,1.17,129.173,0.244,128.024,0.042z M171.937,25.875
	c-2.006-1.436-4.599-1.144-5.783,0.644c-1.182,1.783-0.652,4.289,1.181,5.597c1.806,1.349,4.315,1.167,5.678-0.5
	C174.359,29.968,173.912,27.351,171.937,25.875z M158.968,34.167c-0.308-1.434-1.178-2.828-2.599-3.61
	c-2.812-1.683-6.357-0.475-7.758,2.396c-1.417,2.905-0.508,6.206,1.884,7.646c2.413,1.402,5.751,0.559,7.593-2.111
	C158.988,37.157,159.274,35.614,158.968,34.167z M169.591,45.149c-1.537-1.408-3.95-1.15-5.311,0.487
	c-1.378,1.656-1.316,3.957,0.063,5.22c1.348,1.297,3.692,1.118,5.211-0.377C171.087,48.972,171.097,46.591,169.591,45.149z
	 M159.025,17.713c-1.216-0.627-2.633-0.269-3.162,0.798c-0.529,1.065-0.02,2.41,1.138,3.006c1.161,0.585,2.528,0.317,3.124-0.731
	C160.705,19.766,160.245,18.331,159.025,17.713z M182.49,44.089c-1.234-1.308-3.205-1.415-4.393-0.248
	c-1.188,1.168-1.214,3.093-0.067,4.306c1.093,1.262,3.011,1.418,4.284,0.345C183.589,47.422,183.67,45.449,182.49,44.089z
	 M155.1,49.313c-1.137-0.802-2.816-0.345-3.759,1.028c-0.941,1.374-0.876,3.085,0.156,3.81c0.992,0.779,2.642,0.364,3.689-0.934
	C156.23,51.923,156.195,50.171,155.1,49.313z M141.679,23.585c-1.826-0.631-3.777,0.346-4.352,2.16
	c-0.574,1.817,0.313,3.743,1.978,4.315c1.637,0.649,3.562-0.253,4.296-2.009C144.335,26.293,143.476,24.292,141.679,23.585z
	 M145.118,44.958c-1.124-0.569-2.588,0.086-3.275,1.472c-0.686,1.387-0.417,2.939,0.608,3.454c0.993,0.576,2.436-0.039,3.222-1.373
	C146.457,47.181,146.21,45.589,145.118,44.958z M165.905,61.776c-0.572-0.661-1.674-0.613-2.467,0.105
	c-0.792,0.719-1.003,1.808-0.467,2.428c0.535,0.619,1.645,0.567,2.472-0.112S166.475,62.436,165.905,61.776z M178.448,57.41
	c-0.771-0.98-2.213-1.103-3.225-0.273c-1.012,0.829-1.25,2.246-0.529,3.163c0.739,0.902,2.115,1.076,3.183,0.305
	C178.93,59.843,179.235,58.376,178.448,57.41z M147.899,11.677c-1.153-0.46-2.386,0.001-2.749,1.021
	c-0.356,0.998,0.251,2.158,1.354,2.598c1.104,0.435,2.331-0.011,2.742-1.001C149.656,13.305,149.054,12.131,147.899,11.677z
	 M189.109,31.677c-0.801-0.845-2.044-0.917-2.697-0.24c-0.669,0.692-0.522,1.85,0.249,2.665c0.775,0.81,1.963,0.938,2.653,0.284
	C190.004,33.732,189.915,32.518,189.109,31.677z M209.482,78.401c-0.785-2.346-3.061-3.635-5.063-2.886
	c-2.003,0.75-3.039,3.091-2.32,5.23c0.664,2.155,2.807,3.487,4.887,2.94C209.043,83.145,210.212,80.764,209.482,78.401z
	 M194.134,73.029c-1.301-3.011-4.865-4.123-7.688-2.616c-2.84,1.515-4.053,4.731-2.95,7.298c1.118,2.557,4.34,3.825,7.381,2.752
	C193.889,79.403,195.446,76.034,194.134,73.029z M196.279,92.618c-0.431-2.04-2.52-3.256-4.584-2.733
	c-2.082,0.528-3.398,2.426-3.012,4.254c0.323,1.843,2.31,3.081,4.426,2.767C195.226,96.593,196.645,94.674,196.279,92.618z
	 M203.806,64.186c-0.62-1.22-1.979-1.761-3.032-1.209c-1.053,0.552-1.425,1.939-0.834,3.101c0.58,1.166,1.862,1.744,2.953,1.247
	C203.966,66.836,204.416,65.412,203.806,64.186z M207.314,99.375c-0.225-1.787-1.745-3.039-3.391-2.795
	c-1.645,0.243-2.81,1.784-2.6,3.442c0.184,1.661,1.592,2.922,3.263,2.807C206.235,102.715,207.511,101.164,207.314,99.375z
	 M182.114,87.461c-0.451-1.314-2.079-1.93-3.647-1.372c-1.567,0.559-2.517,1.978-2.104,3.168c0.338,1.211,1.919,1.842,3.526,1.408
	C181.495,90.234,182.49,88.799,182.114,87.461z M186.315,58.752c-1.098-1.59-3.26-1.94-4.785-0.813
	c-1.534,1.134-1.935,3.208-0.931,4.657c0.948,1.487,3.038,1.887,4.662,0.897C186.885,62.503,187.358,60.38,186.315,58.752z
	 M176.585,78.084c-0.565-1.127-2.148-1.45-3.513-0.732c-1.37,0.721-2.048,2.13-1.53,3.155c0.464,1.05,1.999,1.395,3.414,0.778
	C176.373,80.667,177.099,79.236,176.585,78.084z M183.521,103.879c-0.067-0.87-0.97-1.486-2.046-1.371
	c-1.051,0.113-1.877,0.87-1.813,1.687c0.061,0.818,0.98,1.432,2.048,1.371C182.777,105.506,183.587,104.751,183.521,103.879z
	 M196.22,107.754c-0.034-1.247-1.113-2.199-2.422-2.125c-1.301,0.072-2.341,1.078-2.312,2.246c0.03,1.168,1.117,2.12,2.424,2.125
	C195.218,110.006,196.251,109,196.22,107.754z M198.331,52.767c-0.673-1.043-1.927-1.402-2.821-0.79
	c-0.871,0.598-1.071,1.901-0.43,2.899c0.641,1,1.897,1.357,2.809,0.798C198.8,55.114,199,53.812,198.331,52.767z M219.978,93.242
	c-0.183-1.152-1.118-1.95-2.052-1.787c-0.94,0.164-1.528,1.193-1.351,2.302c0.145,1.115,1.024,1.919,1.967,1.798
	C219.485,95.435,220.131,94.398,219.978,93.242z" class="color c1"/>
</svg>