<svg version="1.1" id="图层_1" x="0px" y="0px" width="300px" height="300.209px" viewBox="0 0 300 300.209" enable-background="new 0 0 300 300.209" xml:space="preserve" xmlns="http://www.w3.org/2000/svg" xmlns:xlink="http://www.w3.org/1999/xlink" xmlns:xml="http://www.w3.org/XML/1998/namespace">
  <path fill="#0060AA" d="M46.687,58.028c0.108,1.441,0.684,2.801,1.644,3.928c3.125-3.605,6.492-7.096,10.028-10.393
	c2.404-2.246,2.812-5.953,1.124-8.889c-3.838,3.242-7.536,6.72-11.008,10.354C47.194,54.366,46.542,56.189,46.687,58.028z
	 M27.005,86.633c0.467,1.371,1.361,2.545,2.57,3.397c2.127-4.261,4.524-8.478,7.134-12.547c1.772-2.772,1.248-6.465-1.11-8.891
	c-2.93,4.11-5.652,8.396-8.103,12.756C26.587,82.96,26.41,84.886,27.005,86.633z M40.241,52.896c2.102,0,4.14-0.871,5.596-2.39
	c3.576-3.74,7.381-7.318,11.324-10.648c-1.118-0.953-2.495-1.509-3.982-1.59c-0.132-0.008-0.263-0.011-0.393-0.011
	c-1.824,0-3.588,0.708-4.967,1.994c-3.955,3.688-7.737,7.611-11.256,11.676C37.669,52.564,38.919,52.896,40.241,52.896z
	 M134.567,0.797c0.945,3.111,3.9,5.329,7.331,5.329c0.132,0,0.264-0.003,0.396-0.009c2.56-0.14,5.178-0.21,7.777-0.21
	c2.562,0,5.167,0.069,7.765,0.204c-0.164-1.46-0.787-2.809-1.814-3.885c-1.332-1.406-3.25-2.215-5.262-2.223L150.02,0
	C144.925,0,139.733,0.268,134.567,0.797z M101.159,12.199c1.036,0.473,2.131,0.712,3.252,0.712c0.78,0,1.557-0.119,2.304-0.355
	c4.891-1.545,9.951-2.843,15.061-3.863c-0.519-1.372-1.457-2.526-2.721-3.319c-1.118-0.706-2.433-1.079-3.8-1.079
	c-0.619,0-1.241,0.078-1.852,0.23c-5.171,1.296-10.379,2.912-15.508,4.811C98.643,10.567,99.771,11.563,101.159,12.199z
	 M69.775,28.854c1.453,0,2.871-0.405,4.103-1.171c4.428-2.758,9.002-5.279,13.614-7.505c-0.847-1.2-2.044-2.082-3.462-2.53
	c-0.686-0.218-1.399-0.328-2.13-0.328c-1.227,0-2.457,0.318-3.558,0.918c-4.734,2.582-9.37,5.446-13.801,8.526
	C65.914,28.105,67.763,28.854,69.775,28.854z M14.085,136.195c-0.963-1.13-2.213-1.946-3.599-2.364
	c-0.58,5.061-0.894,10.13-0.929,15.09c-0.018,1.855,0.756,3.629,2.119,4.871c1.06,0.971,2.417,1.574,3.889,1.74
	c-0.189-4.862-0.126-9.716,0.19-14.448C15.87,139.338,15.276,137.601,14.085,136.195z M18.899,99.612
	c-1.828,4.759-3.395,9.59-4.66,14.38c-0.475,1.797-0.166,3.707,0.848,5.24c0.794,1.212,1.955,2.125,3.337,2.647
	c1.017-4.749,2.282-9.428,3.77-13.93c0.547-1.653,0.405-3.48-0.398-5.147C21.148,101.467,20.141,100.365,18.899,99.612z
	 M3.403,118.788c1.407,0,2.803-0.423,4.036-1.224c1.62-1.058,2.785-2.658,3.272-4.504c1.303-4.931,2.915-9.901,4.796-14.791
	c-0.448-0.091-0.9-0.138-1.357-0.138c-1.009,0-1.984,0.222-2.901,0.66c-1.746,0.828-3.108,2.403-3.743,4.322
	c-1.674,5.07-3.095,10.336-4.23,15.673C3.317,118.787,3.361,118.788,3.403,118.788z M16.905,188.115
	c0.968,0.515,2.07,0.786,3.195,0.786c0.335,0,0.669-0.023,1.003-0.07c-1.389-4.65-2.526-9.363-3.388-14.025
	c-0.599-3.209-3.468-5.568-6.896-5.723c0.678,5.008,1.626,9.996,2.824,14.845C14.086,185.728,15.275,187.254,16.905,188.115z
	 M17.589,83.501c0.816,0,1.635-0.134,2.433-0.4c1.83-0.614,3.356-1.873,4.294-3.542c2.523-4.49,5.324-8.9,8.336-13.122
	c-0.92-0.45-1.92-0.684-2.948-0.684c-0.434,0-0.873,0.043-1.301,0.127c-1.906,0.372-3.62,1.555-4.706,3.248
	c-2.934,4.578-5.626,9.321-8.016,14.115C16.296,83.415,16.933,83.501,17.589,83.501z M178.355,8.668
	c5,0.988,10.061,2.282,15.063,3.85c0.205-1.454-0.063-2.915-0.791-4.213c-0.938-1.693-2.598-2.954-4.551-3.462
	c-5.188-1.354-10.529-2.44-15.9-3.233C172.335,4.994,174.855,7.969,178.355,8.668z M254.324,50.428
	c0.881-1.176,1.352-2.587,1.34-4.075c-0.01-1.939-0.852-3.842-2.313-5.225c-3.895-3.691-8.045-7.221-12.354-10.505
	c-1.496,3.038-0.73,6.86,1.994,9.167C246.964,43.138,250.773,46.712,254.324,50.428z M224.303,30.703
	c-4.234-2.638-8.683-5.086-13.24-7.289c-0.892-0.429-1.838-0.647-2.821-0.647c-0.855,0-1.691,0.166-2.486,0.493
	c-1.336,0.549-2.451,1.515-3.226,2.778c4.425,1.872,8.781,3.998,12.97,6.33c0.979,0.543,2.108,0.832,3.26,0.832
	C220.873,33.2,222.873,32.285,224.303,30.703z M212.648,20.128c4.688,2.263,9.264,4.782,13.619,7.497
	c0.563-1.357,0.668-2.839,0.289-4.279c-0.492-1.878-1.783-3.514-3.537-4.489c-4.723-2.627-9.625-5.016-14.594-7.112
	c-0.297,1.406-0.158,2.904,0.414,4.324C209.57,17.852,210.923,19.295,212.648,20.128z M247.466,54.19
	c1.492,0,2.945-0.446,4.193-1.271c-3.459-3.614-7.16-7.088-11.018-10.342c-1.176-0.991-2.662-1.536-4.189-1.536
	c-0.305,0-0.613,0.021-0.912,0.064c-1.436,0.199-2.758,0.857-3.819,1.885c3.854,2.947,7.549,6.091,10.995,9.36
	C243.971,53.537,245.658,54.19,247.466,54.19z M6.867,133.379c-1.467,0.075-2.873,0.625-3.99,1.567
	c-1.488,1.245-2.416,3.108-2.545,5.116c-0.354,5.297-0.426,10.742-0.21,16.207c3.295-0.783,5.751-3.809,5.788-7.377
	C5.947,143.773,6.269,138.561,6.867,133.379z M45.991,235.515c-1.295-1.574-3.27-2.476-5.414-2.476
	c-1.181,0-2.331,0.272-3.388,0.795c3.023,4.069,6.264,7.979,9.646,11.634c1.229,1.334,2.971,2.098,4.78,2.098h0.097
	c1.447-0.021,2.841-0.508,4.024-1.396C52.325,242.817,49.051,239.239,45.991,235.515z M177.646,12.25
	c-0.426-0.084-0.857-0.126-1.285-0.126c-1.395,0-2.779,0.462-3.895,1.302c-1.156,0.869-1.996,2.085-2.428,3.499
	c4.77,0.708,9.522,1.676,14.141,2.88c0.539,0.14,1.094,0.211,1.648,0.211c1.18,0,2.377-0.324,3.465-0.936
	c1.291-0.732,2.326-1.807,2.998-3.09C187.425,14.466,182.505,13.209,177.646,12.25z M157.602,9.751
	c-2.521-0.13-5.052-0.196-7.537-0.196c-2.533,0-5.082,0.069-7.577,0.203c-1.852,0.097-3.573,0.979-4.728,2.418
	c-0.911,1.124-1.425,2.509-1.495,3.99c4.606-0.468,9.229-0.705,13.759-0.705l0.671,0.002C153.99,15.463,156.82,13.039,157.602,9.751
	z M286.626,183.788c1.215-4.948,2.158-9.938,2.812-14.854c0.246-1.843-0.301-3.697-1.498-5.093
	c-0.942-1.104-2.207-1.864-3.646-2.209c-0.412,4.824-1.078,9.63-1.983,14.3c-0.33,1.715,0.041,3.51,1.045,5.059
	C284.166,182.233,285.305,183.198,286.626,183.788z M277.248,194.642c-1.602,4.566-3.447,9.047-5.498,13.342
	c-0.748,1.58-0.84,3.414-0.252,5.16c0.476,1.406,1.334,2.627,2.469,3.527c2.369-4.396,4.533-8.992,6.438-13.68
	c0.699-1.715,0.636-3.646-0.178-5.301C279.591,196.39,278.557,195.335,277.248,194.642z M275.141,95.304
	c-0.632,0-1.259,0.084-1.873,0.253c1.967,4.432,3.688,8.962,5.133,13.486c0.529,1.656,1.72,3.053,3.349,3.934
	c1.104,0.59,2.352,0.903,3.602,0.903c0.205,0,0.41-0.008,0.613-0.025c-1.316-4.929-2.887-9.757-4.678-14.373
	c-0.668-1.732-2.039-3.097-3.763-3.745C276.766,95.449,275.962,95.304,275.141,95.304z M289.498,112.948
	c1.336-0.604,2.428-1.614,3.14-2.924c0.928-1.695,1.106-3.77,0.489-5.695c-1.635-5.112-3.576-10.209-5.783-15.17
	c-1.18,0.823-2.104,2.009-2.647,3.435c-0.692,1.807-0.692,3.786-0.004,5.568C286.537,102.928,288.15,107.896,289.498,112.948z
	 M293.359,133.27c0.592,5.063,0.918,10.274,0.971,15.51c1.445-0.255,2.752-0.961,3.767-2.051c1.317-1.411,2.008-3.375,1.891-5.391
	c-0.303-5.339-0.907-10.756-1.805-16.124c-1.349,0.502-2.537,1.421-3.429,2.665C293.637,129.448,293.141,131.364,293.359,133.27z
	 M287.027,129.122c-1.145-0.812-2.52-1.24-3.98-1.24c-0.03,0-0.063,0-0.094,0.001c0.791,4.774,1.328,9.594,1.598,14.348
	c0.197,3.288,2.793,5.968,6.13,6.542c-0.052-5.079-0.367-10.147-0.943-15.084C289.523,131.85,288.537,130.185,287.027,129.122z
	 M255.809,66.665c2.998,3.797,5.799,7.756,8.338,11.787c0.933,1.479,2.433,2.534,4.224,2.973c0.592,0.144,1.203,0.216,1.813,0.216
	c0.851,0,1.69-0.143,2.487-0.419c-2.45-4.351-5.178-8.635-8.118-12.753c-1.08-1.51-2.748-2.489-4.576-2.688
	c-0.248-0.027-0.494-0.041-0.74-0.041C258.055,65.74,256.871,66.063,255.809,66.665z M275.867,79.461
	c1.143-0.921,1.947-2.171,2.312-3.617c0.469-1.88,0.12-3.934-0.951-5.633c-2.854-4.536-6.004-8.983-9.371-13.238
	c-2.2,2.574-2.403,6.467-0.334,9.375C270.546,70.58,273.35,74.986,275.867,79.461z M212.393,273.856
	c0.428-1.383,0.392-2.859-0.088-4.26c-4.216,2.2-8.627,4.209-13.138,5.975c-1.625,0.637-2.94,1.912-3.711,3.591
	c-0.617,1.351-0.822,2.828-0.612,4.264c4.817-1.62,9.538-3.493,14.049-5.575C210.574,277.075,211.85,275.62,212.393,273.856z
	 M215.98,280.815c-0.764-0.239-1.555-0.361-2.344-0.361c-1.113,0-2.195,0.238-3.213,0.709c-4.646,2.145-9.502,4.07-14.453,5.734
	c0.688,1.295,1.764,2.319,3.117,2.944c0.914,0.429,1.942,0.65,2.977,0.65c0.932,0,1.852-0.175,2.736-0.521
	c5.064-1.982,10.027-4.244,14.775-6.729C218.68,282.116,217.439,281.271,215.98,280.815z M240.048,250.353
	c-3.604,3.236-7.381,6.281-11.245,9.063c-2.666,1.926-3.529,5.556-2.224,8.681c4.229-2.746,8.332-5.736,12.213-8.898
	c1.439-1.172,2.312-2.898,2.396-4.738C241.262,253.011,240.859,251.589,240.048,250.353z M179.678,285.452
	c0.76-1.23,1.094-2.668,0.979-4.146c-4.722,1.094-9.496,1.932-14.216,2.496c-3.267,0.4-5.778,3.158-6.146,6.525
	c5.043-0.363,10.08-0.996,14.996-1.885C177.115,288.114,178.712,287.024,179.678,285.452z M181.404,293.082
	c-1.238-0.769-2.654-1.175-4.094-1.175c-0.457,0-0.92,0.041-1.375,0.123c-5.061,0.916-10.24,1.566-15.422,1.938
	c0.342,1.426,1.129,2.688,2.283,3.633c1.258,1.037,2.883,1.606,4.578,1.606c0.305,0,0.612-0.019,0.92-0.056
	c5.307-0.635,10.678-1.582,15.983-2.814C183.693,295.024,182.703,293.896,181.404,293.082z M264.292,228.53
	c-0.291-1.418-1.03-2.695-2.123-3.693c-2.688,4.018-5.592,7.9-8.651,11.561c-2.11,2.527-2.052,6.256-0.011,8.961
	c3.414-3.705,6.65-7.616,9.636-11.646C264.246,232.224,264.664,230.335,264.292,228.53z M293.055,169.421
	c-0.675,5.07-1.646,10.203-2.89,15.273c0.172,0.012,0.342,0.02,0.512,0.02c1.298,0,2.558-0.373,3.644-1.074
	c1.634-1.049,2.787-2.783,3.168-4.76c1.021-5.262,1.769-10.66,2.226-16.068C296.328,163.179,293.531,165.897,293.055,169.421z
	 M290.873,199.548c-1.104,0-2.233,0.264-3.272,0.764c-1.736,0.842-3.093,2.283-3.813,4.056c-1.965,4.825-4.19,9.551-6.623,14.063
	c0.703,0.239,1.439,0.362,2.174,0.362c0.718,0,1.431-0.114,2.115-0.342c1.84-0.606,3.391-1.998,4.256-3.813
	c2.306-4.828,4.381-9.873,6.181-15.015C291.555,199.573,291.214,199.548,290.873,199.548z M272.273,232.757
	c-2.428,0-4.746,1.17-6.203,3.129c-3.064,4.145-6.393,8.168-9.906,11.977c1.096,0.716,2.369,1.101,3.687,1.101
	c0.153,0,0.31-0.006,0.465-0.017c1.933-0.131,3.778-1.092,5.067-2.637c3.443-4.115,6.705-8.479,9.716-12.988
	C274.208,232.95,273.25,232.757,272.273,232.757z M245.986,260.294c-1.779,0-3.516,0.615-4.893,1.732
	c-3.973,3.238-8.195,6.313-12.563,9.149c0.99,1.084,2.289,1.81,3.755,2.078c0.409,0.076,0.832,0.115,1.256,0.115
	c1.535,0,3.024-0.49,4.307-1.416c4.346-3.129,8.588-6.55,12.625-10.181C249.201,260.812,247.648,260.294,245.986,260.294z
	 M71.801,271.235c-4.298-2.779-8.523-5.852-12.574-9.139c-0.726,1.273-1.016,2.731-0.82,4.209c0.248,1.918,1.322,3.7,2.948,4.895
	c4.374,3.211,8.938,6.197,13.58,8.888c0.474-1.362,0.523-2.864,0.131-4.341C74.568,273.882,73.409,272.278,71.801,271.235z
	 M66.479,257.45c-1.804,0-3.539,0.66-4.916,1.842c3.938,3.195,8.045,6.18,12.224,8.884c1.061,0.688,2.283,1.052,3.541,1.052
	c0.574,0,1.149-0.076,1.704-0.228c1.395-0.379,2.623-1.198,3.552-2.351c-4.12-2.393-8.177-5.049-12.076-7.909
	C69.354,257.896,67.961,257.45,66.479,257.45z M34.231,235.976c-1.018,1.056-1.658,2.396-1.836,3.877
	c-0.235,1.92,0.364,3.912,1.646,5.472c3.438,4.187,7.118,8.204,10.948,11.961c1.866-2.83,1.583-6.716-0.837-9.341
	C40.667,244.173,37.333,240.151,34.231,235.976z M7.199,169.528c-1.403,0.432-2.611,1.297-3.481,2.506
	c-1.134,1.568-1.573,3.604-1.205,5.588c0.966,5.234,2.249,10.536,3.819,15.777c1.276-0.668,2.34-1.729,3.063-3.075
	c0.913-1.703,1.163-3.665,0.708-5.522C8.868,179.808,7.893,174.675,7.199,169.528z M16.495,204.468
	c-1.251,0.77-2.206,1.909-2.742,3.297c-0.706,1.81-0.621,3.891,0.23,5.713c2.303,4.931,4.873,9.738,7.643,14.313
	c2.507-2.281,3.197-6.119,1.504-9.263C20.678,213.989,18.451,209.265,16.495,204.468z M32.105,220.22
	c0.912,0,1.823-0.186,2.685-0.541c-2.463-4.074-4.746-8.352-6.792-12.731c-0.74-1.585-2.097-2.82-3.815-3.48
	c-0.879-0.334-1.802-0.504-2.737-0.504c-0.527,0-1.047,0.056-1.558,0.163c1.902,4.663,4.07,9.257,6.454,13.671
	c0.878,1.632,2.411,2.812,4.205,3.238C31.055,220.157,31.579,220.22,32.105,220.22z M97.552,274.677
	c-0.914,0-1.827,0.184-2.713,0.545c-1.373,0.563-2.537,1.495-3.365,2.687c4.573,2.103,9.297,3.971,14.058,5.562
	c0.674,0.227,1.372,0.34,2.072,0.34c1.126,0,2.235-0.295,3.208-0.854c1.26-0.716,2.244-1.814,2.853-3.164
	c-4.679-1.316-9.27-2.876-13.661-4.643C99.223,274.835,98.398,274.677,97.552,274.677z M103.837,19.551
	c-0.598,1.319-0.747,2.789-0.448,4.237c4.555-1.682,9.185-3.117,13.784-4.27c1.688-0.423,3.155-1.521,4.136-3.093
	c0.781-1.26,1.175-2.699,1.146-4.149c-4.979,0.996-9.899,2.258-14.645,3.757C106.04,16.594,104.59,17.876,103.837,19.551z
	 M139.835,293.976c-5.104-0.354-10.287-1-15.425-1.924c-0.02,1.471,0.431,2.887,1.315,4.08c1.147,1.566,2.95,2.607,4.948,2.864
	c5.288,0.685,10.72,1.092,16.167,1.213C146.265,296.87,143.399,294.231,139.835,293.976z M75.808,30.779
	c-1.571,0.979-2.652,2.584-2.969,4.402c-0.253,1.424-0.034,2.884,0.62,4.214c3.954-2.742,8.081-5.289,12.287-7.582
	c1.535-0.84,2.684-2.271,3.229-4.029c0.441-1.418,0.46-2.911,0.071-4.307C84.545,25.653,80.098,28.105,75.808,30.779z
	 M104.375,286.933c-4.897-1.638-9.754-3.561-14.458-5.723c-0.385,1.415-0.303,2.898,0.252,4.283
	c0.723,1.795,2.208,3.256,4.076,4.008c4.949,1.988,10.115,3.74,15.376,5.216c0.118-1.436-0.209-2.903-0.958-4.235
	C107.709,288.797,106.186,287.535,104.375,286.933z M131.821,283.606c-1.465,0-2.899,0.488-4.145,1.414
	c-1.188,0.892-2.081,2.086-2.584,3.442c5,0.897,10.039,1.524,15,1.87c0.157,0.011,0.312,0.018,0.465,0.018
	c1.708,0,3.316-0.65,4.526-1.828c1.041-1.006,1.722-2.316,1.979-3.773c-4.855-0.113-9.694-0.479-14.403-1.09
	C132.383,283.624,132.101,283.606,131.821,283.606z" class="color c1"/>
</svg>