<svg version="1.1" id="图层_1" x="0px" y="0px" width="199.059px" height="200.586px" viewBox="0 0 199.059 200.586" enable-background="new 0 0 199.059 200.586" xml:space="preserve" xmlns="http://www.w3.org/2000/svg" xmlns:xlink="http://www.w3.org/1999/xlink" xmlns:xml="http://www.w3.org/XML/1998/namespace">
  <path fill="#F8C7C5" d="M53.323,178.531c-0.572-0.33-1.142-0.666-1.705-1.008c-0.472-0.287-1.087-0.137-1.374,0.336
	c-0.286,0.474-0.135,1.088,0.337,1.373c0.577,0.351,1.158,0.693,1.744,1.031c0.157,0.09,0.329,0.133,0.498,0.133
	c0.346,0,0.683-0.18,0.867-0.5C53.967,179.418,53.802,178.807,53.323,178.531z M45.83,173.716c-0.451-0.319-1.074-0.215-1.396,0.233
	c-0.32,0.449-0.217,1.074,0.232,1.395c0.55,0.393,1.104,0.777,1.661,1.157c0.172,0.117,0.368,0.173,0.563,0.173
	c0.319,0,0.634-0.152,0.827-0.438c0.312-0.456,0.192-1.078-0.265-1.389C46.908,174.477,46.366,174.1,45.83,173.716z M47.633,19.066
	c-0.563,0.369-1.12,0.745-1.675,1.126c-0.455,0.313-0.569,0.936-0.258,1.391c0.194,0.281,0.507,0.433,0.825,0.433
	c0.195,0,0.393-0.057,0.564-0.176c0.542-0.373,1.09-0.74,1.641-1.102c0.462-0.304,0.59-0.924,0.287-1.386
	C48.714,18.892,48.094,18.765,47.633,19.066z M31.35,32.583c-0.469,0.486-0.931,0.976-1.388,1.471
	c-0.375,0.406-0.35,1.038,0.057,1.413c0.191,0.178,0.436,0.266,0.679,0.266c0.27,0,0.538-0.108,0.734-0.322
	c0.446-0.484,0.898-0.964,1.356-1.439c0.384-0.397,0.372-1.03-0.025-1.414C32.367,32.175,31.733,32.186,31.35,32.583z
	 M35.188,164.867c-0.397-0.383-1.03-0.372-1.414,0.023c-0.384,0.397-0.373,1.03,0.022,1.414c0.485,0.469,0.976,0.932,1.471,1.389
	c0.191,0.18,0.436,0.268,0.679,0.268c0.269,0,0.537-0.107,0.734-0.32c0.375-0.406,0.351-1.039-0.057-1.414
	C36.141,165.779,35.661,165.326,35.188,164.867z M53.675,15.411c-0.588,0.326-1.173,0.659-1.753,0.998
	c-0.477,0.278-0.638,0.891-0.359,1.367c0.187,0.318,0.521,0.496,0.864,0.496c0.172,0,0.346-0.044,0.504-0.136
	c0.567-0.331,1.14-0.657,1.716-0.977c0.481-0.268,0.657-0.876,0.39-1.359C54.766,15.317,54.16,15.145,53.675,15.411z
	 M40.342,169.489c-0.427-0.354-1.057-0.296-1.407,0.13c-0.354,0.424-0.296,1.055,0.129,1.408c0.519,0.431,1.041,0.854,1.567,1.274
	c0.185,0.146,0.404,0.218,0.622,0.218c0.294,0,0.586-0.129,0.783-0.377c0.344-0.432,0.272-1.061-0.159-1.404
	C41.361,170.327,40.849,169.911,40.342,169.489z M36.439,27.677c-0.501,0.449-0.998,0.903-1.491,1.362
	c-0.403,0.377-0.426,1.01-0.049,1.413c0.197,0.211,0.464,0.318,0.73,0.318c0.244,0,0.489-0.089,0.684-0.269
	c0.48-0.45,0.969-0.896,1.46-1.335c0.411-0.369,0.445-1.001,0.078-1.412C37.483,27.342,36.85,27.31,36.439,27.677z M41.877,23.162
	c-0.534,0.411-1.063,0.827-1.588,1.248c-0.43,0.347-0.498,0.976-0.151,1.406c0.196,0.246,0.486,0.373,0.779,0.373
	c0.221,0,0.441-0.072,0.626-0.221c0.514-0.412,1.03-0.819,1.554-1.221c0.438-0.337,0.52-0.965,0.184-1.402
	C42.942,22.907,42.314,22.826,41.877,23.162z M85.863,189.855c-0.653-0.097-1.305-0.199-1.954-0.31
	c-0.545-0.097-1.061,0.272-1.153,0.818c-0.092,0.545,0.274,1.061,0.819,1.153c0.663,0.111,1.328,0.217,1.995,0.315
	c0.05,0.008,0.099,0.011,0.146,0.011c0.488,0,0.915-0.355,0.988-0.854C86.787,190.445,86.409,189.938,85.863,189.855z
	 M79.059,188.589c-0.646-0.146-1.285-0.298-1.925-0.456c-0.536-0.134-1.078,0.193-1.212,0.729c-0.133,0.537,0.194,1.078,0.729,1.213
	c0.652,0.16,1.309,0.316,1.967,0.466c0.074,0.017,0.147,0.024,0.221,0.024c0.457,0,0.87-0.315,0.976-0.78
	C79.936,189.245,79.598,188.71,79.059,188.589z M30.39,159.879c-0.37-0.414-1.001-0.449-1.412-0.081
	c-0.412,0.367-0.449,0.999-0.082,1.411c0.449,0.504,0.902,1.001,1.361,1.494c0.197,0.211,0.465,0.318,0.731,0.318
	c0.244,0,0.489-0.09,0.682-0.27c0.404-0.377,0.428-1.01,0.051-1.413C31.271,160.857,30.827,160.371,30.39,159.879z M59.456,181.766
	c-0.597-0.285-1.188-0.578-1.777-0.877c-0.496-0.25-1.096-0.053-1.345,0.439c-0.25,0.492-0.053,1.095,0.439,1.344
	c0.603,0.305,1.207,0.604,1.814,0.896c0.141,0.066,0.288,0.099,0.434,0.099c0.373,0,0.729-0.209,0.901-0.565
	C60.163,182.604,59.953,182.005,59.456,181.766z M99.662,191.219h-0.133c-0.617,0-1.233,0-1.848,0c-0.008,0-0.015,0-0.021,0
	c-0.544,0-0.989,0.336-1,0.881c-0.011,0.553,0.428,0.909,0.98,0.922c0.628,0.012,1.256,0.197,1.887,0.197h0.133c0.553,0,1-0.447,1-1
	C100.662,191.667,100.215,191.219,99.662,191.219z M92.743,190.613c-0.659-0.049-1.316-0.104-1.973-0.164
	c-0.541-0.057-1.037,0.353-1.089,0.902c-0.052,0.549,0.354,1.037,0.902,1.088c0.67,0.063,1.341,0.119,2.015,0.168
	c0.023,0.002,0.049,0.002,0.072,0.002c0.521,0,0.958-0.4,0.996-0.928C93.708,191.132,93.294,190.652,92.743,190.613z M66.49,9.508
	c-0.632,0.236-1.261,0.479-1.886,0.727c-0.515,0.204-0.765,0.785-0.562,1.299c0.156,0.392,0.532,0.631,0.931,0.631
	c0.123,0,0.248-0.022,0.368-0.071c0.613-0.243,1.229-0.479,1.848-0.711c0.518-0.193,0.78-0.77,0.587-1.286
	C67.584,9.577,67.006,9.314,66.49,9.508z M59.971,12.22c-0.611,0.281-1.22,0.569-1.821,0.863c-0.497,0.241-0.703,0.84-0.462,1.337
	c0.174,0.355,0.528,0.562,0.899,0.562c0.146,0,0.296-0.032,0.438-0.101c0.591-0.287,1.185-0.569,1.782-0.845
	c0.502-0.23,0.722-0.824,0.489-1.326C61.065,12.209,60.472,11.988,59.971,12.22z M72.369,186.813
	c-0.634-0.193-1.265-0.395-1.893-0.603c-0.529-0.175-1.09,0.112-1.264,0.638c-0.174,0.523,0.111,1.09,0.637,1.262
	c0.642,0.213,1.285,0.418,1.934,0.615c0.098,0.029,0.196,0.045,0.293,0.045c0.429,0,0.824-0.276,0.956-0.707
	C73.194,187.534,72.897,186.975,72.369,186.813z M73.205,7.29c-0.646,0.188-1.293,0.381-1.936,0.582
	c-0.526,0.165-0.82,0.726-0.655,1.253c0.134,0.428,0.528,0.702,0.954,0.702c0.099,0,0.199-0.016,0.299-0.046
	c0.629-0.197,1.261-0.387,1.896-0.57c0.529-0.154,0.836-0.708,0.683-1.239C74.291,7.442,73.739,7.138,73.205,7.29z M65.815,184.533
	c-0.616-0.241-1.229-0.488-1.841-0.743c-0.504-0.21-1.096,0.028-1.308,0.539c-0.213,0.51,0.028,1.096,0.539,1.308
	c0.623,0.26,1.25,0.514,1.88,0.76c0.12,0.047,0.243,0.068,0.364,0.068c0.399,0,0.777-0.242,0.932-0.637
	C66.584,185.314,66.33,184.734,65.815,184.533z M9.648,71.851c0.097,0.029,0.194,0.044,0.291,0.044c0.429,0,0.825-0.278,0.957-0.709
	c0.191-0.635,0.393-1.266,0.6-1.894c0.172-0.524-0.113-1.09-0.638-1.262c-0.523-0.175-1.09,0.112-1.263,0.637
	c-0.212,0.642-0.415,1.287-0.613,1.936C8.822,71.131,9.12,71.689,9.648,71.851z M11.872,65.197c0.119,0.046,0.242,0.068,0.363,0.068
	c0.398,0,0.777-0.242,0.932-0.637c0.24-0.617,0.487-1.231,0.74-1.842c0.212-0.511-0.03-1.096-0.541-1.307
	c-0.508-0.21-1.096,0.029-1.307,0.541c-0.26,0.623-0.511,1.25-0.756,1.881C11.104,64.417,11.357,64.996,11.872,65.197z
	 M26.637,37.856c-0.432,0.519-0.854,1.043-1.274,1.57c-0.344,0.433-0.271,1.062,0.161,1.405c0.184,0.146,0.402,0.217,0.621,0.217
	c0.295,0,0.587-0.129,0.784-0.378c0.409-0.517,0.825-1.029,1.246-1.537c0.354-0.425,0.295-1.056-0.131-1.408
	C27.62,37.372,26.988,37.434,26.637,37.856z M106.58,190.594c-0.656,0.049-1.313,0.092-1.976,0.129
	c-0.553,0.029-0.975,0.502-0.943,1.053c0.028,0.533,0.47,0.945,0.997,0.945c0.019,0,0.037,0,0.056-0.002
	c0.676-0.037,1.348-0.08,2.018-0.131c0.551-0.041,0.963-0.521,0.922-1.072S107.136,190.559,106.58,190.594z M14.59,58.734
	c0.141,0.066,0.287,0.098,0.433,0.098c0.373,0,0.729-0.209,0.901-0.567c0.286-0.597,0.578-1.19,0.876-1.78
	c0.249-0.493,0.052-1.094-0.44-1.343c-0.493-0.249-1.095-0.051-1.344,0.441c-0.305,0.602-0.603,1.208-0.895,1.817
	C13.882,57.898,14.092,58.495,14.59,58.734z M17.786,52.497c0.156,0.09,0.328,0.133,0.497,0.133c0.347,0,0.683-0.18,0.868-0.501
	c0.329-0.573,0.665-1.143,1.006-1.709c0.285-0.473,0.133-1.087-0.34-1.372c-0.477-0.285-1.089-0.133-1.373,0.34
	c-0.349,0.578-0.69,1.159-1.027,1.744C17.142,51.61,17.307,52.222,17.786,52.497z M15.292,136.823
	c-0.23-0.503-0.825-0.724-1.326-0.492c-0.502,0.229-0.723,0.823-0.491,1.326c0.279,0.61,0.566,1.219,0.859,1.821
	c0.173,0.356,0.529,0.563,0.9,0.563c0.146,0,0.295-0.032,0.436-0.101c0.497-0.241,0.704-0.84,0.463-1.338
	C15.846,138.016,15.566,137.421,15.292,136.823z M18.405,142.988c-0.268-0.483-0.878-0.658-1.359-0.391
	c-0.482,0.268-0.657,0.877-0.391,1.358c0.326,0.588,0.657,1.173,0.995,1.754c0.186,0.319,0.521,0.497,0.865,0.497
	c0.171,0,0.344-0.043,0.502-0.135c0.477-0.278,0.64-0.891,0.36-1.367C19.049,144.137,18.724,143.564,18.405,142.988z
	 M25.979,154.549c-0.336-0.438-0.962-0.521-1.402-0.186c-0.438,0.336-0.521,0.964-0.186,1.402c0.409,0.533,0.824,1.063,1.246,1.588
	c0.196,0.246,0.486,0.375,0.78,0.375c0.22,0,0.439-0.071,0.624-0.22c0.432-0.345,0.501-0.975,0.155-1.405
	C26.786,155.59,26.379,155.072,25.979,154.549z M22.327,43.468c-0.391,0.55-0.775,1.104-1.154,1.662
	c-0.311,0.457-0.19,1.079,0.267,1.389c0.172,0.117,0.367,0.173,0.561,0.173c0.32,0,0.635-0.153,0.828-0.438
	c0.371-0.546,0.748-1.088,1.131-1.626c0.319-0.45,0.214-1.074-0.235-1.395C23.273,42.912,22.647,43.018,22.327,43.468z
	 M21.974,148.907c-0.305-0.462-0.925-0.591-1.386-0.286c-0.462,0.303-0.59,0.923-0.287,1.385c0.37,0.563,0.744,1.12,1.123,1.674
	c0.194,0.283,0.509,0.436,0.826,0.436c0.194,0,0.393-0.057,0.564-0.176c0.456-0.313,0.571-0.935,0.26-1.391
	C22.702,150.006,22.336,149.459,21.974,148.907z M13.354,132.285c-0.242-0.612-0.479-1.229-0.708-1.848
	c-0.191-0.519-0.768-0.78-1.286-0.59c-0.519,0.192-0.781,0.769-0.589,1.285c0.234,0.633,0.476,1.262,0.724,1.889
	c0.155,0.393,0.532,0.631,0.93,0.631c0.123,0,0.247-0.021,0.368-0.069C13.306,133.38,13.557,132.799,13.354,132.285z
	 M161.754,169.193c0.236,0,0.475-0.084,0.664-0.254c0.504-0.446,1.002-0.899,1.496-1.357c0.404-0.375,0.428-1.008,0.053-1.413
	c-0.377-0.405-1.009-0.428-1.413-0.053c-0.482,0.448-0.972,0.892-1.464,1.329c-0.413,0.367-0.449,1-0.083,1.412
	C161.204,169.08,161.479,169.193,161.754,169.193z M158.515,26.783c0.187,0.155,0.411,0.23,0.637,0.23
	c0.288,0,0.573-0.124,0.771-0.362c0.353-0.426,0.293-1.056-0.133-1.408c-0.52-0.43-1.044-0.854-1.573-1.272
	c-0.434-0.344-1.063-0.27-1.403,0.163c-0.343,0.434-0.271,1.063,0.164,1.405C157.494,25.948,158.007,26.363,158.515,26.783z
	 M113.458,189.816c-0.65,0.1-1.305,0.189-1.96,0.274c-0.548,0.07-0.935,0.571-0.864,1.119c0.065,0.505,0.496,0.872,0.991,0.872
	c0.042,0,0.086-0.002,0.129-0.008c0.669-0.088,1.336-0.18,2.001-0.28c0.547-0.082,0.924-0.592,0.842-1.138
	C114.513,190.111,114.006,189.73,113.458,189.816z M153.016,22.572c0.175,0.124,0.377,0.184,0.576,0.184
	c0.313,0,0.622-0.146,0.816-0.421c0.319-0.451,0.214-1.075-0.237-1.395c-0.55-0.39-1.104-0.774-1.663-1.152
	c-0.458-0.31-1.078-0.188-1.389,0.268c-0.31,0.458-0.188,1.079,0.269,1.389C151.935,21.814,152.478,22.19,153.016,22.572z
	 M163.684,31.391c0.193,0.187,0.442,0.278,0.691,0.278c0.264,0,0.525-0.103,0.723-0.308c0.382-0.398,0.368-1.031-0.029-1.414
	c-0.486-0.467-0.978-0.928-1.473-1.384c-0.404-0.373-1.039-0.348-1.412,0.059c-0.374,0.406-0.35,1.039,0.059,1.413
	C162.727,30.481,163.207,30.934,163.684,31.391z M171.481,159.146c0.287,0,0.57-0.123,0.77-0.359
	c0.432-0.518,0.857-1.039,1.277-1.566c0.345-0.432,0.273-1.062-0.157-1.404c-0.432-0.346-1.062-0.273-1.405,0.158
	c-0.411,0.516-0.828,1.025-1.252,1.532c-0.354,0.425-0.296,1.056,0.129,1.408C171.029,159.07,171.256,159.146,171.481,159.146z
	 M168.494,36.367c0.197,0.221,0.471,0.332,0.744,0.332c0.238,0,0.477-0.084,0.668-0.256c0.411-0.369,0.445-1.001,0.076-1.412
	c-0.45-0.501-0.904-0.997-1.364-1.488c-0.378-0.403-1.011-0.424-1.414-0.047s-0.424,1.01-0.047,1.413
	C167.607,35.391,168.054,35.877,168.494,36.367z M166.804,164.354c0.261,0,0.521-0.103,0.718-0.306
	c0.47-0.483,0.934-0.973,1.392-1.467c0.375-0.405,0.353-1.038-0.054-1.413c-0.406-0.376-1.038-0.354-1.413,0.055
	c-0.448,0.481-0.902,0.961-1.36,1.435c-0.385,0.396-0.375,1.028,0.021,1.413C166.302,164.259,166.553,164.354,166.804,164.354z
	 M150.655,177.684c0.188,0,0.377-0.054,0.546-0.164c0.563-0.367,1.123-0.74,1.678-1.121c0.456-0.312,0.572-0.935,0.262-1.39
	c-0.312-0.454-0.933-0.573-1.391-0.261c-0.543,0.371-1.091,0.736-1.643,1.098c-0.462,0.303-0.593,0.922-0.29,1.385
	C150.009,177.521,150.329,177.684,150.655,177.684z M172.921,41.684c0.197,0.256,0.493,0.39,0.793,0.39
	c0.213,0,0.429-0.067,0.609-0.208c0.438-0.337,0.519-0.965,0.182-1.402c-0.409-0.533-0.826-1.062-1.25-1.586
	c-0.346-0.429-0.974-0.497-1.405-0.151c-0.431,0.347-0.497,0.977-0.15,1.406C172.111,40.646,172.519,41.162,172.921,41.684z
	 M126.438,9.549c0.635,0.192,1.267,0.392,1.895,0.597c0.104,0.034,0.208,0.05,0.312,0.05c0.421,0,0.813-0.268,0.95-0.689
	c0.172-0.525-0.114-1.09-0.641-1.262c-0.642-0.209-1.287-0.413-1.936-0.609c-0.53-0.161-1.087,0.14-1.247,0.667
	C125.611,8.831,125.91,9.389,126.438,9.549z M131.971,187.086c0.114,0,0.231-0.021,0.347-0.063c0.633-0.233,1.263-0.475,1.889-0.722
	c0.515-0.202,0.767-0.782,0.563-1.297c-0.202-0.515-0.782-0.766-1.298-0.563c-0.612,0.242-1.229,0.478-1.849,0.705
	c-0.519,0.191-0.783,0.768-0.591,1.285C131.182,186.836,131.564,187.086,131.971,187.086z M125.319,189.261
	c0.092,0,0.184-0.013,0.275-0.038c0.649-0.187,1.296-0.377,1.938-0.576c0.527-0.164,0.822-0.725,0.659-1.252
	c-0.163-0.525-0.72-0.824-1.251-0.658c-0.629,0.193-1.261,0.382-1.896,0.563c-0.53,0.152-0.839,0.705-0.688,1.236
	C124.484,188.975,124.885,189.261,125.319,189.261z M132.999,11.812c0.617,0.238,1.231,0.484,1.842,0.736
	c0.125,0.052,0.255,0.076,0.383,0.076c0.393,0,0.765-0.233,0.924-0.618c0.211-0.511-0.031-1.096-0.542-1.307
	c-0.624-0.258-1.252-0.509-1.883-0.753c-0.518-0.2-1.096,0.057-1.295,0.571C132.229,11.031,132.484,11.611,132.999,11.812z
	 M144.666,181.281c0.163,0,0.329-0.04,0.481-0.124c0.59-0.325,1.175-0.655,1.756-0.992c0.478-0.276,0.642-0.89,0.364-1.366
	c-0.277-0.479-0.891-0.643-1.366-0.363c-0.569,0.328-1.144,0.651-1.719,0.971c-0.484,0.267-0.66,0.875-0.395,1.357
	C143.972,181.096,144.313,181.281,144.666,181.281z M145.508,17.778c0.574,0.328,1.145,0.662,1.709,1.003
	c0.161,0.097,0.34,0.144,0.516,0.144c0.339,0,0.67-0.173,0.856-0.484c0.285-0.473,0.134-1.087-0.341-1.372
	c-0.577-0.349-1.16-0.69-1.746-1.025c-0.48-0.276-1.092-0.108-1.364,0.371C144.862,16.893,145.028,17.504,145.508,17.778z
	 M138.43,184.421c0.139,0,0.279-0.028,0.415-0.091c0.61-0.279,1.219-0.564,1.822-0.857c0.497-0.24,0.705-0.838,0.465-1.336
	c-0.239-0.496-0.835-0.705-1.336-0.465c-0.591,0.286-1.186,0.566-1.783,0.84c-0.503,0.229-0.724,0.822-0.493,1.325
	C137.688,184.204,138.05,184.421,138.43,184.421z M139.366,14.56c0.597,0.285,1.19,0.576,1.78,0.874
	c0.145,0.072,0.298,0.106,0.449,0.106c0.365,0,0.718-0.201,0.894-0.55c0.249-0.493,0.051-1.095-0.442-1.343
	c-0.604-0.304-1.209-0.602-1.818-0.893c-0.499-0.238-1.096-0.027-1.333,0.472C138.657,13.725,138.868,14.322,139.366,14.56z
	 M156.362,173.646c0.212,0,0.425-0.067,0.605-0.207c0.535-0.408,1.064-0.822,1.592-1.242c0.432-0.346,0.502-0.975,0.156-1.405
	c-0.344-0.431-0.973-0.503-1.404-0.158c-0.516,0.412-1.034,0.817-1.559,1.218c-0.438,0.336-0.521,0.965-0.187,1.402
	C155.764,173.51,156.062,173.646,156.362,173.646z M189.334,124.844c-0.532-0.162-1.088,0.133-1.251,0.661
	c-0.194,0.634-0.396,1.265-0.604,1.894c-0.174,0.523,0.109,1.09,0.635,1.263c0.104,0.034,0.211,0.052,0.313,0.052
	c0.421,0,0.812-0.268,0.949-0.688c0.212-0.642,0.419-1.284,0.618-1.932C190.157,125.564,189.861,125.006,189.334,124.844z
	 M120.257,188.529c-0.641,0.146-1.284,0.287-1.933,0.421c-0.54,0.11-0.889,0.641-0.777,1.182c0.099,0.474,0.515,0.798,0.979,0.798
	c0.065,0,0.135-0.006,0.203-0.021c0.661-0.136,1.318-0.279,1.975-0.431c0.539-0.123,0.875-0.658,0.752-1.196
	C121.332,188.743,120.793,188.404,120.257,188.529z M187.09,131.49c-0.513-0.2-1.095,0.051-1.296,0.566
	c-0.242,0.614-0.489,1.229-0.745,1.838c-0.213,0.508,0.027,1.095,0.537,1.308c0.126,0.053,0.257,0.077,0.387,0.077
	c0.391,0,0.762-0.229,0.923-0.613c0.261-0.623,0.515-1.25,0.761-1.88C187.857,132.271,187.604,131.691,187.09,131.49z
	 M184.353,137.945c-0.496-0.239-1.095-0.031-1.335,0.467c-0.286,0.596-0.58,1.188-0.88,1.775c-0.25,0.492-0.055,1.096,0.438,1.346
	c0.146,0.074,0.3,0.107,0.452,0.107c0.364,0,0.716-0.199,0.893-0.547c0.307-0.602,0.605-1.205,0.899-1.813
	C185.06,138.782,184.851,138.186,184.353,137.945z M180.524,53.223c0.183,0.329,0.522,0.514,0.875,0.514
	c0.164,0,0.331-0.04,0.483-0.126c0.483-0.268,0.657-0.877,0.39-1.359c-0.327-0.588-0.66-1.173-1-1.753
	c-0.28-0.477-0.896-0.637-1.368-0.357c-0.478,0.279-0.637,0.892-0.358,1.368C179.878,52.076,180.205,52.647,180.524,53.223z
	 M175.762,153.607c0.312,0,0.618-0.146,0.813-0.418c0.393-0.549,0.779-1.103,1.159-1.66c0.312-0.455,0.192-1.078-0.263-1.389
	c-0.457-0.313-1.078-0.195-1.391,0.262c-0.372,0.546-0.749,1.087-1.134,1.623c-0.321,0.449-0.218,1.074,0.231,1.396
	C175.357,153.547,175.561,153.607,175.762,153.607z M176.939,47.313c0.191,0.292,0.511,0.45,0.836,0.45
	c0.188,0,0.38-0.053,0.549-0.165c0.461-0.304,0.589-0.924,0.285-1.385c-0.37-0.563-0.746-1.12-1.128-1.674
	c-0.314-0.454-0.938-0.569-1.393-0.254c-0.454,0.313-0.567,0.937-0.255,1.391C176.209,46.217,176.577,46.763,176.939,47.313z
	 M183.658,59.381c0.169,0.365,0.53,0.58,0.908,0.58c0.141,0,0.283-0.03,0.419-0.093c0.501-0.231,0.72-0.826,0.487-1.327
	c-0.282-0.61-0.57-1.217-0.865-1.82c-0.243-0.496-0.841-0.7-1.338-0.459c-0.496,0.243-0.701,0.842-0.459,1.338
	C183.1,58.19,183.382,58.784,183.658,59.381z M179.102,147.617c0.161,0.099,0.34,0.145,0.517,0.145c0.338,0,0.668-0.171,0.856-0.48
	c0.349-0.576,0.692-1.156,1.03-1.74c0.277-0.479,0.114-1.09-0.363-1.366c-0.478-0.278-1.089-0.114-1.366,0.363
	c-0.332,0.573-0.669,1.142-1.012,1.707C178.478,146.717,178.629,147.331,179.102,147.617z M185.607,63.914
	c0.244,0.611,0.48,1.226,0.713,1.844c0.148,0.402,0.531,0.65,0.937,0.65c0.116,0,0.234-0.021,0.351-0.063
	c0.518-0.193,0.78-0.77,0.587-1.286c-0.235-0.633-0.479-1.261-0.729-1.887c-0.205-0.514-0.788-0.761-1.3-0.558
	C185.652,62.819,185.402,63.4,185.607,63.914z M187.929,70.434c0.196,0.629,0.388,1.261,0.572,1.896
	c0.128,0.437,0.526,0.72,0.96,0.72c0.094,0,0.188-0.014,0.281-0.041c0.529-0.155,0.834-0.711,0.679-1.24
	c-0.188-0.647-0.384-1.291-0.585-1.933c-0.165-0.526-0.724-0.822-1.253-0.655C188.057,69.345,187.764,69.906,187.929,70.434z
	 M99.529,198.586c-44.931,0-83.059-29.677-95.816-70.458h-2.09c12.826,41.899,51.862,72.458,97.906,72.458
	s85.08-30.559,97.906-72.458h-2.09C182.588,168.909,144.46,198.586,99.529,198.586z M71.793,1.753l-1.366-1.68
	C35.632,10.409,8.536,38.787,0,74.311h2.056C10.614,39.427,37.446,11.644,71.793,1.753z M128.386,0l-1.4,1.67
	c34.48,9.818,61.436,37.661,70.018,72.641h2.056C190.502,38.703,163.299,10.274,128.386,0z" class="color c1"/>
</svg>