<svg version="1.1" id="图层_1" x="0px" y="0px" width="210.768px" height="210.761px" viewBox="0 0 210.768 210.761" enable-background="new 0 0 210.768 210.761" xml:space="preserve" xmlns="http://www.w3.org/2000/svg" xmlns:xlink="http://www.w3.org/1999/xlink" xmlns:xml="http://www.w3.org/XML/1998/namespace">
  <path fill="#C9983F" d="M105.255,12.952c-0.047-3.693-0.399-6.679-1.197-6.671c-0.799,0.012-1.069,3.015-1.019,6.703
	c0.048,3.693,0.534,16.822,1.334,16.81C105.17,29.785,105.306,16.651,105.255,12.952z M105.099,0.965
	c-0.01-0.54-0.326-0.982-1.127-0.964c-0.797,0.006-1.104,0.453-1.095,0.995c0.007,0.551,0.341,2.481,1.143,2.468
	C104.819,3.456,105.103,1.516,105.099,0.965z M59.062,25.397c-1.892-3.178-3.691-5.588-4.376-5.181
	c-0.687,0.414,0.577,3.146,2.469,6.318c1.889,3.174,8.873,14.301,9.559,13.893C67.4,40.019,60.952,28.571,59.062,25.397z
	 M52.931,15.102c-0.281-0.474-0.773-0.693-1.461-0.282c-0.687,0.408-0.727,0.952-0.451,1.415c0.282,0.47,1.54,1.974,2.227,1.566
	C53.934,17.394,53.208,15.566,52.931,15.102z M25.273,59.279c-3.222-1.804-5.989-2.992-6.374-2.302
	c-0.394,0.7,2.07,2.431,5.291,4.239c3.223,1.805,14.835,7.948,15.226,7.248C39.809,67.765,28.499,61.082,25.273,59.279z
	 M14.816,53.424c-0.478-0.265-1.012-0.213-1.405,0.487c-0.388,0.695-0.155,1.186,0.323,1.45c0.474,0.267,2.314,0.941,2.707,0.243
	C16.83,54.914,15.292,53.688,14.816,53.424z M12.956,105.508c-3.692,0.047-6.684,0.4-6.674,1.198
	c0.013,0.806,3.009,1.067,6.704,1.021c3.692-0.049,16.819-0.533,16.81-1.34C29.785,105.59,16.649,105.455,12.956,105.508z
	 M0.969,105.666c-0.547,0.009-0.981,0.323-0.969,1.125c0.008,0.802,0.456,1.103,1,1.099c0.548-0.01,2.48-0.348,2.466-1.143
	C3.457,105.941,1.515,105.659,0.969,105.666z M25.404,151.704c-3.173,1.891-5.587,3.686-5.181,4.371
	c0.409,0.693,3.139-0.572,6.315-2.463c3.171-1.89,14.297-8.874,13.892-9.561C40.019,143.358,28.577,149.815,25.404,151.704z
	 M15.102,157.837c-0.468,0.274-0.69,0.77-0.28,1.456c0.409,0.688,0.947,0.729,1.417,0.447c0.468-0.277,1.972-1.537,1.566-2.224
	C17.394,156.834,15.57,157.556,15.102,157.837z M59.281,185.487c-1.804,3.227-2.996,5.992-2.3,6.379
	c0.701,0.387,2.431-2.072,4.237-5.293c1.803-3.225,7.946-14.836,7.246-15.225C67.768,170.954,61.085,182.268,59.281,185.487z
	 M53.425,195.95c-0.269,0.475-0.211,1.008,0.486,1.402c0.7,0.388,1.185,0.154,1.45-0.316c0.265-0.484,0.938-2.32,0.245-2.712
	C54.907,193.93,53.689,195.476,53.425,195.95z M105.51,197.809c0.05,3.687,0.399,6.679,1.2,6.671c0.8-0.012,1.068-3.007,1.021-6.708
	c-0.054-3.688-0.536-16.816-1.335-16.804C105.595,180.975,105.462,194.11,105.51,197.809z M105.67,209.796
	c0.007,0.541,0.323,0.982,1.126,0.964c0.8-0.001,1.1-0.453,1.092-1c-0.006-0.545-0.344-2.477-1.147-2.465
	C105.945,207.303,105.661,209.25,105.67,209.796z M151.708,185.363c1.89,3.172,3.687,5.589,4.374,5.175
	c0.688-0.407-0.579-3.141-2.468-6.313c-1.891-3.177-8.875-14.301-9.561-13.886C143.369,170.747,149.819,182.186,151.708,185.363z
	 M157.84,195.659c0.275,0.473,0.772,0.688,1.456,0.281c0.688-0.408,0.727-0.941,0.449-1.415c-0.279-0.464-1.543-1.974-2.227-1.565
	C156.831,193.371,157.556,195.199,157.84,195.659z M185.488,151.481c3.228,1.805,5.992,2.992,6.382,2.299
	c0.388-0.697-2.072-2.434-5.297-4.236c-3.224-1.803-14.832-7.943-15.223-7.242C170.958,143.002,182.267,149.679,185.488,151.481z
	 M195.95,157.337c0.477,0.264,1.014,0.212,1.403-0.481c0.393-0.7,0.154-1.191-0.321-1.456c-0.474-0.267-2.314-0.937-2.709-0.243
	C193.936,155.854,195.474,157.073,195.95,157.337z M197.811,105.252c3.689-0.047,6.679-0.401,6.673-1.203
	c-0.014-0.795-3.008-1.067-6.704-1.01c-3.691,0.043-16.821,0.527-16.81,1.33C180.981,105.164,194.115,105.306,197.811,105.252z
	 M209.796,105.097c0.545-0.006,0.984-0.325,0.971-1.126c-0.006-0.803-0.455-1.1-0.998-1.094c-0.547,0.004-2.48,0.342-2.47,1.136
	C207.31,104.82,209.253,105.101,209.796,105.097z M185.363,59.057c3.173-1.885,5.589-3.694,5.182-4.376
	c-0.412-0.684-3.144,0.577-6.317,2.468c-3.173,1.89-14.299,8.878-13.891,9.56C170.745,67.397,182.189,60.948,185.363,59.057z
	 M195.662,52.923c0.47-0.275,0.69-0.768,0.282-1.457c-0.408-0.688-0.948-0.728-1.415-0.447c-0.47,0.276-1.976,1.538-1.568,2.223
	C193.372,53.928,195.194,53.207,195.662,52.923z M151.485,25.274c1.805-3.228,2.994-5.992,2.296-6.38
	c-0.698-0.387-2.433,2.067-4.233,5.298c-1.799,3.221-7.945,14.832-7.244,15.22C143,39.802,149.681,28.492,151.485,25.274z
	 M157.341,14.811c0.265-0.474,0.212-1.014-0.486-1.402c-0.694-0.392-1.184-0.154-1.448,0.322c-0.271,0.474-0.943,2.314-0.245,2.712
	C155.862,16.832,157.075,15.284,157.341,14.811z M87.399,4.863c-0.355-1.852-0.944-3.301-1.728-3.15
	c-0.788,0.151-0.806,1.714-0.457,3.563c0.355,1.852,1.914,8.383,2.699,8.237C88.697,13.363,87.753,6.719,87.399,4.863z
	 M39.547,27.318c-1.231-1.424-2.464-2.38-3.067-1.86c-0.609,0.526,0.155,1.882,1.389,3.319c1.233,1.421,5.843,6.299,6.447,5.772
	C44.923,34.029,40.778,28.748,39.547,27.318z M9.339,70.703c-1.783-0.628-3.327-0.838-3.591-0.083
	c-0.262,0.756,1.077,1.554,2.859,2.176c1.782,0.613,8.215,2.533,8.478,1.776C17.349,73.818,11.119,71.313,9.339,70.703z
	 M4.863,123.368c-1.854,0.352-3.296,0.936-3.148,1.723c0.151,0.791,1.709,0.806,3.564,0.458c1.851-0.356,8.382-1.912,8.232-2.697
	C13.362,122.063,6.717,123.011,4.863,123.368z M27.321,171.223c-1.428,1.224-2.38,2.457-1.858,3.063
	c0.52,0.604,1.879-0.156,3.308-1.393c1.429-1.229,6.306-5.842,5.782-6.45C34.034,165.837,28.75,169.987,27.321,171.223z
	 M70.698,201.427c-0.622,1.777-0.83,3.323-0.077,3.589c0.756,0.265,1.553-1.084,2.173-2.857c0.623-1.784,2.536-8.221,1.783-8.485
	C73.821,193.418,71.318,199.65,70.698,201.427z M123.369,205.903c0.353,1.846,0.944,3.297,1.726,3.146
	c0.785-0.151,0.808-1.711,0.453-3.561c-0.35-1.849-1.908-8.388-2.692-8.241C122.068,197.397,123.011,204.045,123.369,205.903z
	 M171.216,183.438c1.235,1.434,2.469,2.385,3.072,1.865c0.604-0.523-0.158-1.883-1.391-3.304c-1.229-1.433-5.844-6.315-6.447-5.792
	C165.839,176.731,169.985,182.012,171.216,183.438z M201.429,140.069c1.783,0.617,3.328,0.832,3.592,0.072
	c0.266-0.756-1.078-1.547-2.863-2.168c-1.78-0.626-8.214-2.541-8.476-1.784C193.417,136.944,199.65,139.444,201.429,140.069z
	 M205.899,87.4c1.859-0.353,3.305-0.95,3.153-1.73c-0.149-0.785-1.708-0.805-3.563-0.446c-1.851,0.342-8.384,1.902-8.233,2.687
	C197.403,88.697,204.049,87.745,205.899,87.4z M183.442,39.549c1.43-1.239,2.384-2.468,1.863-3.078
	c-0.521-0.599-1.881,0.161-3.313,1.392c-1.427,1.233-6.306,5.847-5.778,6.451C176.733,44.923,182.017,40.778,183.442,39.549z
	 M140.069,9.333c0.622-1.773,0.831-3.328,0.076-3.587c-0.754-0.265-1.55,1.082-2.171,2.861c-0.628,1.778-2.54,8.215-1.782,8.48
	C136.948,17.341,139.45,11.118,140.069,9.333z M70.394,9.98c-0.74-1.957-1.632-3.433-2.378-3.148
	c-0.75,0.287-0.439,1.98,0.305,3.937c0.743,1.961,3.668,8.808,4.417,8.518C73.487,19.004,71.139,11.937,70.394,9.98z M27.385,40.257
	c-1.621-1.328-3.131-2.158-3.637-1.538c-0.507,0.621,0.612,1.937,2.231,3.255c1.622,1.328,7.577,5.793,8.085,5.173
	C34.571,46.524,29.006,41.58,27.385,40.257z M5.271,87.989c-2.065-0.342-3.789-0.313-3.915,0.479c-0.13,0.79,1.495,1.369,3.56,1.707
	c2.064,0.335,9.455,1.218,9.585,0.427C14.631,89.817,7.337,88.319,5.271,87.989z M9.985,140.371
	c-1.956,0.735-3.431,1.632-3.15,2.382c0.286,0.744,1.983,0.432,3.937-0.307c1.956-0.747,8.802-3.67,8.519-4.42
	C19.009,137.278,11.943,139.624,9.985,140.371z M40.262,183.375c-1.325,1.626-2.155,3.135-1.539,3.639
	c0.623,0.504,1.934-0.607,3.256-2.232c1.328-1.619,5.792-7.571,5.171-8.082C46.528,176.196,41.586,181.756,40.262,183.375z
	 M87.983,205.496c-0.334,2.06-0.301,3.79,0.49,3.908c0.791,0.13,1.364-1.488,1.705-3.552c0.333-2.07,1.221-9.466,0.431-9.587
	C89.821,196.135,88.319,203.43,87.983,205.496z M140.372,200.781c0.742,1.957,1.635,3.429,2.379,3.144
	c0.748-0.283,0.438-1.977-0.309-3.934c-0.74-1.955-3.664-8.806-4.41-8.515C137.28,191.756,139.63,198.825,140.372,200.781z
	 M183.382,170.504c1.622,1.32,3.131,2.157,3.636,1.536c0.507-0.625-0.61-1.931-2.228-3.259c-1.623-1.322-7.584-5.785-8.091-5.164
	C176.198,164.232,181.763,169.181,183.382,170.504z M205.493,122.777c2.066,0.337,3.794,0.308,3.918-0.483
	c0.127-0.797-1.494-1.371-3.562-1.705c-2.065-0.338-9.458-1.229-9.588-0.43C196.136,120.943,203.428,122.441,205.493,122.777z
	 M200.782,70.391c1.955-0.737,3.43-1.632,3.146-2.376c-0.285-0.75-1.978-0.442-3.935,0.304c-1.955,0.743-8.799,3.666-8.521,4.421
	C191.761,73.479,198.824,71.133,200.782,70.391z M170.511,27.385c1.319-1.626,2.152-3.139,1.532-3.643
	c-0.622-0.504-1.931,0.616-3.254,2.23c-1.326,1.625-5.792,7.588-5.171,8.092C164.236,34.564,169.184,29,170.511,27.385z
	 M122.781,5.27c0.337-2.064,0.302-3.789-0.484-3.913c-0.791-0.135-1.37,1.493-1.704,3.558c-0.338,2.069-1.226,9.456-0.437,9.585
	C120.947,14.634,122.446,7.33,122.781,5.27z" class="color c1"/>
</svg>