<svg version="1.1" id="图层_1" x="0px" y="0px" width="210px" height="208.441px" viewBox="0 0 210 208.441" enable-background="new 0 0 210 208.441" xml:space="preserve" xmlns="http://www.w3.org/2000/svg" xmlns:xlink="http://www.w3.org/1999/xlink" xmlns:xml="http://www.w3.org/XML/1998/namespace">
  <path fill="#A9A8AC" d="M202,137.203c-1.809-0.458-2.795-2.296-2.357-4.128c0.33-1.865,2.068-3.111,3.896-2.807
	c1.819,0.307,3.006,2.164,2.633,4.175C205.795,136.45,203.756,137.645,202,137.203z M188.232,140.519
	c-1.76-0.628-2.601-2.364-2.228-4.001c0.431-1.61,2.226-2.514,4.011-2.04c1.784,0.477,2.846,2.264,2.36,4.018
	c-0.252,0.867-0.799,1.557-1.563,1.92C190.025,140.767,189.105,140.826,188.232,140.519z M207.447,123.424
	c-1.287-0.13-2.244-1.348-2.141-2.709c0.103-1.361,1.237-2.41,2.539-2.352c1.295,0.057,2.262,1.259,2.145,2.692
	C209.875,122.49,208.734,123.557,207.447,123.424z M196.365,150.346c-1.328-0.539-1.961-2.105-1.42-3.486
	c0.541-1.379,2.082-2.116,3.447-1.658c1.366,0.458,2.012,2.007,1.434,3.468C199.246,150.131,197.691,150.887,196.365,150.346z
	 M198.723,117.858c-1.639-0.112-2.881-1.473-2.774-3.017c0.174-1.538,1.331-2.806,3.004-2.808c1.598-0.01,3.101,1.346,2.961,3.008
	C201.791,116.702,200.361,117.971,198.723,117.858z M185.408,150.285c-1.018-0.487-1.459-1.655-0.98-2.601
	c0.494-0.934,1.555-1.426,2.619-0.977c1.021,0.426,1.582,1.644,1.117,2.654C187.662,150.356,186.426,150.772,185.408,150.285z
	 M205.887,107.718c-0.924,0.044-1.693-0.692-1.723-1.638c-0.027-0.947,0.701-1.772,1.627-1.854c0.924-0.082,1.697,0.646,1.725,1.629
	C207.541,106.838,206.814,107.674,205.887,107.718z M192,124.975c-0.809-0.131-1.367-0.838-1.242-1.572s0.891-1.241,1.707-1.141
	c0.818,0.104,1.373,0.802,1.244,1.565C193.578,124.592,192.813,125.108,192,124.975z M172.377,180.911
	c-1.32-1.279-1.322-3.441-0.025-4.814c1.297-1.378,3.51-1.51,4.92-0.354c1.451,1.194,1.472,3.319,0.066,4.802
	C175.928,182.018,173.697,182.188,172.377,180.911z M158.746,176.917c-1.195-1.396-1.139-3.439,0.109-4.546
	c0.623-0.561,1.459-0.776,2.281-0.728c0.795,0.021,1.616,0.354,2.268,1.005c1.297,1.282,1.397,3.459-0.004,4.612
	C162.033,178.459,159.941,178.311,158.746,176.917z M184.025,171.682c-1.06-0.76-1.211-2.238-0.396-3.331
	c0.742-1.152,2.222-1.519,3.313-0.825c1.094,0.693,1.348,2.232,0.559,3.443C186.695,172.166,185.061,172.426,184.025,171.682z
	 M160.906,189.52c-0.904-1.162-0.57-2.69,0.549-3.68c1.125-0.98,2.799-0.9,3.75,0.172c0.949,1.068,0.758,2.766-0.441,3.795
	C163.596,190.883,161.773,190.627,160.906,189.52z M179.328,162.563c-1.357-0.91-1.777-2.729-0.951-4.049
	c0.826-1.32,2.65-1.713,4.078-0.895c1.426,0.815,1.865,2.611,0.965,4.024C182.521,163.057,180.684,163.475,179.328,162.563z
	 M151.42,184.024c-0.637-0.924-0.447-2.184,0.414-2.811c0.861-0.625,2.107-0.399,2.791,0.494c0.686,0.895,0.508,2.145-0.402,2.801
	C153.314,185.162,152.055,184.948,151.42,184.024z M190.625,157.334c-0.82-0.422-1.133-1.451-0.701-2.299
	c0.43-0.848,1.457-1.213,2.297-0.826c0.838,0.391,1.158,1.414,0.707,2.293S191.445,157.754,190.625,157.334z M169.893,165.366
	c-0.633-0.517-0.774-1.421-0.322-2.019c0.457-0.596,1.355-0.676,2.011-0.182c0.653,0.493,0.801,1.392,0.323,2.011
	C171.43,165.794,170.527,165.881,169.893,165.366z M124.727,204.138c-0.254-0.884-0.096-1.777,0.349-2.498
	c0.438-0.757,1.146-1.407,2.053-1.708c1.804-0.611,3.769,0.293,4.412,2.017c0.644,1.723-0.396,3.645-2.347,4.293
	c-0.971,0.321-1.963,0.26-2.771-0.105C125.615,205.76,124.98,205.011,124.727,204.138z M114.949,193.924
	c-0.33-1.796,0.746-3.586,2.373-3.985c1.631-0.396,3.32,0.729,3.799,2.505s-0.561,3.554-2.338,3.974
	C117.004,196.834,115.277,195.721,114.949,193.924z M139.451,201.856c-0.529-1.174,0.064-2.587,1.314-3.151
	c1.252-0.564,2.739-0.092,3.338,1.059c0.6,1.146,0.024,2.556-1.293,3.148C141.492,203.502,139.982,203.031,139.451,201.856z
	 M110.436,205.766c-0.19-1.414,0.859-2.714,2.336-2.904c1.476-0.186,2.892,0.802,3.168,2.156c0.285,1.422-0.737,2.781-2.309,2.955
	C112.066,208.169,110.629,207.18,110.436,205.766z M139.986,191.649c-0.732-1.495-0.119-3.132,1.242-3.897
	c1.35-0.797,3.1-0.289,3.926,1.119c0.824,1.41,0.324,3.229-1.137,4.073c-0.718,0.443-1.554,0.486-2.297,0.216
	C140.982,192.908,140.352,192.383,139.986,191.649z M105.006,196.444c-0.084-1.111,0.713-2.135,1.773-2.279
	c1.063-0.146,2.029,0.638,2.17,1.749c0.141,1.11-0.646,2.133-1.762,2.278C106.072,198.336,105.09,197.557,105.006,196.444z
	 M152.439,192.776c-0.513-0.789-0.217-1.747,0.547-2.332c0.779-0.555,1.836-0.395,2.367,0.355c0.53,0.748,0.307,1.82-0.504,2.391
	C154.053,193.792,152.941,193.553,152.439,192.776z M130.418,189.431c-0.289-0.768,0.053-1.584,0.76-1.833
	c0.682-0.322,1.49,0.027,1.807,0.775c0.316,0.752,0,1.624-0.713,1.955C131.549,190.632,130.705,190.182,130.418,189.431z
	 M71.773,200.5c0.459-1.797,2.311-2.773,4.156-2.341c1.879,0.326,3.133,2.054,2.826,3.862c-0.305,1.81-2.18,2.988-4.205,2.616
	C72.527,204.265,71.326,202.241,71.773,200.5z M68.43,186.834c0.631-1.748,2.381-2.578,4.029-2.211
	c1.627,0.426,2.535,2.207,2.057,3.98c-0.478,1.774-2.277,2.823-4.043,2.345c-0.875-0.248-1.57-0.792-1.936-1.553
	C68.18,188.615,68.123,187.702,68.43,186.834z M85.652,205.906c0.131-1.278,1.357-2.229,2.73-2.124
	c1.369,0.104,2.426,1.23,2.367,2.521c-0.055,1.288-1.264,2.245-2.713,2.13C86.594,208.318,85.521,207.183,85.652,205.906z
	 M58.529,194.905c0.545-1.316,2.125-1.941,3.512-1.407c1.391,0.537,2.133,2.067,1.672,3.422c-0.461,1.358-2.02,1.998-3.492,1.423
	C58.746,197.767,57.982,196.224,58.529,194.905z M91.262,197.247c0.115-1.625,1.482-2.859,3.039-2.753
	c1.549,0.173,2.828,1.32,2.828,2.979c0.01,1.586-1.357,3.077-3.029,2.938C92.426,200.292,91.146,198.874,91.262,197.247z
	 M58.592,184.031c0.49-1.012,1.668-1.446,2.619-0.976c0.939,0.493,1.436,1.544,0.984,2.602c-0.43,1.016-1.656,1.571-2.676,1.108
	C58.521,186.268,58.1,185.042,58.592,184.031z M101.477,204.358c-0.045-0.914,0.697-1.68,1.648-1.709
	c0.953-0.025,1.789,0.697,1.869,1.613c0.082,0.919-0.65,1.684-1.641,1.712C102.365,205.999,101.521,205.276,101.477,204.358z
	 M84.092,190.575c0.131-0.805,0.844-1.355,1.584-1.233c0.738,0.125,1.25,0.883,1.148,1.694c-0.104,0.811-0.807,1.362-1.578,1.233
	C84.479,192.139,83.959,191.381,84.092,190.575z M27.736,171.097c1.287-1.312,3.467-1.313,4.85-0.023
	c1.389,1.286,1.523,3.483,0.359,4.883c-1.205,1.439-3.35,1.461-4.84,0.064C26.619,174.624,26.451,172.409,27.736,171.097z
	 M31.762,157.569c1.404-1.188,3.467-1.131,4.58,0.105c0.564,0.62,0.781,1.449,0.73,2.266c-0.021,0.791-0.357,1.607-1.012,2.252
	c-1.293,1.286-3.484,1.392-4.646-0.004C30.207,160.831,30.355,158.753,31.762,157.569z M37.035,182.659
	c0.766-1.051,2.254-1.2,3.354-0.392c1.162,0.734,1.533,2.204,0.834,3.289c-0.699,1.082-2.25,1.334-3.471,0.553
	C36.547,185.31,36.283,183.686,37.035,182.659z M19.063,159.711c1.17-0.896,2.713-0.564,3.709,0.543
	c0.986,1.118,0.904,2.779-0.174,3.725c-1.08,0.941-2.787,0.754-3.826-0.438C17.689,162.381,17.947,160.573,19.063,159.711z
	 M46.223,177.998c0.918-1.35,2.752-1.766,4.078-0.944c1.33,0.821,1.725,2.629,0.902,4.046c-0.824,1.417-2.633,1.854-4.057,0.961
	C45.725,181.167,45.303,179.342,46.223,177.998z M24.6,150.296c0.93-0.632,2.201-0.444,2.83,0.409
	c0.631,0.854,0.404,2.094-0.496,2.771c-0.902,0.68-2.16,0.503-2.822-0.398C23.451,152.176,23.668,150.926,24.6,150.296z
	 M51.49,189.209c0.422-0.814,1.461-1.125,2.314-0.697s1.223,1.447,0.832,2.28c-0.391,0.833-1.422,1.148-2.307,0.702
	C51.443,191.049,51.066,190.022,51.49,189.209z M43.398,168.632c0.518-0.629,1.43-0.771,2.029-0.318
	c0.604,0.452,0.684,1.345,0.188,1.992c-0.498,0.649-1.402,0.796-2.027,0.323C42.967,170.157,42.877,169.26,43.398,168.632z
	 M4.334,123.803c0.893-0.254,1.791-0.098,2.518,0.342c0.762,0.438,1.416,1.142,1.721,2.041c0.617,1.789-0.295,3.738-2.031,4.377
	c-1.736,0.64-3.672-0.392-4.322-2.326c-0.326-0.963-0.264-1.95,0.104-2.752C2.699,124.684,3.455,124.053,4.334,123.803z
	 M14.623,114.097c1.811-0.327,3.613,0.739,4.016,2.356c0.403,1.616-0.732,3.295-2.521,3.768c-1.789,0.475-3.58-0.554-4.002-2.319
	C11.694,116.137,12.814,114.422,14.623,114.097z M6.633,138.417c1.184-0.525,2.607,0.063,3.176,1.304
	c0.572,1.24,0.092,2.721-1.063,3.314c-1.156,0.594-2.578,0.024-3.176-1.285C4.975,140.44,5.451,138.942,6.633,138.417z
	 M2.693,109.618c1.426-0.192,2.736,0.852,2.928,2.317c0.188,1.464-0.809,2.867-2.17,3.144c-1.436,0.282-2.807-0.733-2.979-2.29
	C0.273,111.235,1.27,109.809,2.693,109.618z M16.916,138.946c1.508-0.725,3.156-0.116,3.93,1.236
	c0.805,1.339,0.293,3.074-1.129,3.894c-1.42,0.818-3.254,0.323-4.104-1.125c-0.447-0.711-0.492-1.539-0.217-2.279
	C15.65,139.936,16.178,139.308,16.916,138.946z M12.086,104.228c1.123-0.085,2.152,0.71,2.299,1.762
	c0.148,1.054-0.643,2.012-1.764,2.151c-1.119,0.14-2.146-0.641-2.295-1.75C10.178,105.283,10.967,104.312,12.086,104.228z
	 M15.781,151.308c0.797-0.508,1.762-0.213,2.35,0.542c0.559,0.773,0.398,1.824-0.357,2.351c-0.754,0.527-1.834,0.307-2.41-0.498
	C14.756,152.911,14.998,151.807,15.781,151.308z M19.154,129.45c0.77-0.288,1.596,0.053,1.844,0.753
	c0.326,0.68-0.027,1.479-0.781,1.794c-0.756,0.314-1.635,0-1.969-0.705C17.941,130.576,18.393,129.734,19.154,129.45z M8,71.24
	c1.809,0.458,2.795,2.297,2.357,4.127c-0.33,1.865-2.068,3.109-3.893,2.806C4.643,77.868,3.457,76.009,3.83,74
	C4.207,71.992,6.246,70.797,8,71.24z M21.768,67.922c1.76,0.626,2.6,2.366,2.229,4.001c-0.432,1.612-2.227,2.515-4.012,2.041
	c-1.787-0.478-2.848-2.262-2.361-4.016c0.25-0.867,0.799-1.56,1.563-1.92C19.975,67.675,20.895,67.617,21.768,67.922z M2.555,85.018
	c1.285,0.13,2.242,1.349,2.139,2.709c-0.105,1.361-1.238,2.41-2.537,2.352c-1.301-0.058-2.264-1.256-2.146-2.691
	C0.125,85.953,1.266,84.888,2.555,85.018z M13.637,58.096c1.326,0.541,1.959,2.107,1.418,3.486
	c-0.539,1.379-2.082,2.117-3.447,1.659c-1.367-0.458-2.012-2.007-1.432-3.469C10.754,58.311,12.309,57.555,13.637,58.096z
	 M11.277,90.584c1.641,0.113,2.883,1.473,2.775,3.018c-0.176,1.538-1.332,2.807-3.004,2.809c-1.598,0.008-3.1-1.348-2.959-3.009
	C8.211,91.741,9.639,90.469,11.277,90.584z M24.592,58.158c1.02,0.486,1.457,1.655,0.982,2.599
	c-0.496,0.932-1.557,1.428-2.621,0.979c-1.023-0.428-1.582-1.644-1.117-2.657C22.338,58.084,23.574,57.669,24.592,58.158z
	 M4.113,100.724c0.922-0.043,1.693,0.693,1.721,1.638c0.029,0.946-0.699,1.774-1.625,1.854c-0.924,0.08-1.697-0.646-1.723-1.627
	C2.461,101.605,3.188,100.767,4.113,100.724z M17.998,83.466c0.811,0.131,1.369,0.839,1.244,1.574
	c-0.123,0.734-0.889,1.242-1.707,1.139c-0.818-0.101-1.373-0.8-1.242-1.563C16.424,83.851,17.188,83.335,17.998,83.466z
	 M37.625,27.532c1.32,1.277,1.322,3.439,0.023,4.813c-1.297,1.378-3.51,1.51-4.92,0.355c-1.451-1.197-1.471-3.322-0.066-4.804
	C34.07,26.423,36.303,26.254,37.625,27.532z M51.254,31.527c1.195,1.396,1.141,3.438-0.105,4.546
	c-0.625,0.56-1.463,0.773-2.285,0.725c-0.795-0.022-1.617-0.354-2.266-1.004c-1.299-1.284-1.4-3.459,0.002-4.613
	C47.965,29.984,50.059,30.131,51.254,31.527z M25.975,36.759c1.059,0.762,1.207,2.239,0.396,3.333
	c-0.742,1.153-2.225,1.519-3.314,0.825c-1.092-0.694-1.346-2.234-0.559-3.443C23.303,36.277,24.941,36.016,25.975,36.759z
	 M49.094,18.923c0.902,1.16,0.57,2.688-0.549,3.68c-1.125,0.979-2.797,0.897-3.748-0.172c-0.951-1.069-0.762-2.768,0.439-3.797
	C46.404,17.559,48.229,17.814,49.094,18.923z M30.67,45.879c1.361,0.911,1.781,2.732,0.953,4.051
	c-0.83,1.318-2.648,1.711-4.078,0.895c-1.428-0.817-1.863-2.612-0.967-4.026C27.477,45.384,29.314,44.967,30.67,45.879z
	 M58.58,24.418c0.637,0.924,0.449,2.183-0.414,2.81c-0.861,0.625-2.107,0.402-2.791-0.493c-0.686-0.895-0.506-2.146,0.402-2.8
	C56.686,23.281,57.945,23.495,58.58,24.418z M19.375,51.108c0.82,0.42,1.135,1.451,0.701,2.3c-0.428,0.846-1.455,1.212-2.295,0.823
	c-0.84-0.387-1.158-1.413-0.709-2.292C17.523,51.062,18.555,50.687,19.375,51.108z M40.107,43.077
	c0.635,0.516,0.773,1.421,0.318,2.017c-0.455,0.596-1.354,0.676-2.008,0.182c-0.65-0.493-0.799-1.392-0.32-2.009
	C38.57,42.647,39.473,42.561,40.107,43.077z M85.273,4.303c0.254,0.885,0.096,1.777-0.348,2.5c-0.438,0.756-1.148,1.404-2.055,1.706
	c-1.803,0.612-3.764-0.292-4.41-2.015c-0.645-1.724,0.395-3.646,2.346-4.293c0.969-0.321,1.963-0.26,2.77,0.104
	C84.385,2.681,85.02,3.43,85.273,4.303z M95.051,14.518c0.328,1.796-0.746,3.585-2.375,3.984c-1.627,0.399-3.32-0.729-3.797-2.503
	c-0.479-1.776,0.559-3.554,2.338-3.973C92.996,11.607,94.721,12.72,95.051,14.518z M70.549,6.585
	c0.529,1.174-0.064,2.586-1.314,3.151c-1.252,0.565-2.74,0.092-3.34-1.056c-0.598-1.148-0.025-2.558,1.295-3.149
	C68.51,4.939,70.02,5.411,70.549,6.585z M99.563,2.675c0.193,1.415-0.859,2.714-2.334,2.905c-1.477,0.186-2.889-0.803-3.168-2.155
	c-0.283-1.423,0.74-2.783,2.307-2.955C97.934,0.272,99.371,1.261,99.563,2.675z M70.016,16.793c0.729,1.494,0.119,3.133-1.244,3.898
	c-1.35,0.798-3.1,0.29-3.924-1.118c-0.826-1.41-0.324-3.231,1.133-4.074c0.717-0.444,1.551-0.488,2.299-0.216
	C69.018,15.535,69.65,16.059,70.016,16.793z M104.994,11.999c0.084,1.111-0.715,2.134-1.773,2.279
	c-1.063,0.146-2.029-0.638-2.17-1.75c-0.141-1.111,0.645-2.132,1.762-2.277C103.928,10.104,104.91,10.886,104.994,11.999z
	 M57.561,15.666c0.512,0.79,0.215,1.748-0.549,2.332c-0.775,0.555-1.834,0.396-2.367-0.354c-0.529-0.749-0.305-1.818,0.504-2.393
	C55.947,14.649,57.059,14.889,57.561,15.666z M79.58,19.013c0.293,0.765-0.051,1.583-0.758,1.831
	c-0.682,0.323-1.49-0.026-1.807-0.775c-0.316-0.75,0-1.624,0.711-1.956C78.451,17.809,79.295,18.259,79.58,19.013z M138.229,7.941
	c-0.461,1.796-2.313,2.775-4.158,2.343c-1.879-0.329-3.135-2.057-2.827-3.865c0.307-1.811,2.182-2.987,4.205-2.616
	C137.473,4.176,138.674,6.199,138.229,7.941z M141.57,21.607c-0.633,1.747-2.381,2.579-4.031,2.21
	c-1.625-0.426-2.533-2.208-2.057-3.98c0.479-1.773,2.281-2.823,4.047-2.342c0.875,0.247,1.57,0.791,1.936,1.55
	C141.82,19.826,141.877,20.74,141.57,21.607z M124.35,2.536c-0.135,1.277-1.358,2.227-2.729,2.124
	c-1.373-0.104-2.429-1.23-2.371-2.52c0.06-1.29,1.269-2.246,2.715-2.131C123.406,0.125,124.479,1.258,124.35,2.536z M151.471,13.537
	c-0.543,1.315-2.125,1.942-3.514,1.406c-1.389-0.535-2.133-2.064-1.67-3.422c0.463-1.354,2.02-1.997,3.494-1.422
	C151.254,10.676,152.014,12.218,151.471,13.537z M118.74,11.194c-0.115,1.627-1.484,2.861-3.041,2.755
	c-1.551-0.173-2.828-1.322-2.828-2.981c-0.008-1.586,1.357-3.077,3.029-2.938C117.574,8.15,118.855,9.569,118.74,11.194z
	 M151.41,24.411c-0.492,1.011-1.67,1.444-2.621,0.975c-0.939-0.492-1.438-1.544-0.984-2.6c0.43-1.018,1.656-1.574,2.676-1.11
	C151.48,22.173,151.9,23.4,151.41,24.411z M108.523,4.083c0.045,0.917-0.697,1.682-1.648,1.708
	c-0.955,0.026-1.789-0.694-1.869-1.612c-0.082-0.917,0.65-1.684,1.641-1.711C107.637,2.442,108.48,3.165,108.523,4.083z
	 M125.91,17.866c-0.133,0.804-0.846,1.356-1.586,1.233c-0.738-0.124-1.25-0.883-1.148-1.692c0.104-0.813,0.809-1.365,1.578-1.235
	C125.521,16.301,126.043,17.062,125.91,17.866z M182.262,37.346c-1.285,1.312-3.467,1.313-4.848,0.023
	c-1.389-1.286-1.521-3.483-0.359-4.883c1.205-1.438,3.348-1.46,4.84-0.064C183.381,33.819,183.551,36.034,182.262,37.346z
	 M178.238,50.875c-1.404,1.185-3.465,1.132-4.58-0.108c-0.564-0.621-0.779-1.447-0.73-2.265c0.021-0.791,0.357-1.607,1.012-2.25
	c1.291-1.289,3.486-1.393,4.646,0.003C179.793,47.611,179.645,49.688,178.238,50.875z M172.967,25.783
	c-0.766,1.05-2.258,1.199-3.357,0.391c-1.161-0.735-1.53-2.205-0.832-3.287c0.701-1.084,2.252-1.337,3.472-0.553
	C173.451,23.131,173.715,24.755,172.967,25.783z M190.936,48.731c-1.168,0.896-2.709,0.563-3.707-0.543
	c-0.983-1.119-0.901-2.78,0.174-3.724c1.076-0.945,2.787-0.756,3.824,0.436C192.311,46.063,192.053,47.87,190.936,48.731z
	 M163.779,30.445c-0.918,1.348-2.754,1.766-4.08,0.945c-1.33-0.822-1.725-2.629-0.9-4.047c0.82-1.417,2.629-1.852,4.055-0.961
	C164.275,27.274,164.699,29.098,163.779,30.445z M185.398,58.146c-0.928,0.63-2.199,0.445-2.828-0.411
	c-0.631-0.854-0.408-2.091,0.498-2.771c0.896-0.68,2.16-0.503,2.817,0.398C186.547,56.267,186.332,57.515,185.398,58.146z
	 M158.51,19.232c-0.424,0.814-1.461,1.125-2.316,0.697c-0.854-0.428-1.223-1.447-0.83-2.28c0.394-0.833,1.425-1.149,2.308-0.704
	C158.557,17.394,158.936,18.419,158.51,19.232z M166.602,39.81c-0.52,0.629-1.43,0.771-2.028,0.318
	c-0.604-0.452-0.685-1.343-0.187-1.992c0.496-0.648,1.402-0.795,2.023-0.322C167.035,38.286,167.123,39.181,166.602,39.81z
	 M205.666,84.64c-0.893,0.253-1.791,0.096-2.518-0.344c-0.762-0.434-1.414-1.139-1.724-2.039c-0.614-1.789,0.298-3.738,2.033-4.378
	c1.735-0.637,3.672,0.393,4.324,2.328c0.323,0.964,0.262,1.951-0.105,2.751C207.301,83.759,206.545,84.391,205.666,84.64z
	 M195.375,94.347c-1.809,0.324-3.609-0.741-4.014-2.357c-0.404-1.617,0.731-3.295,2.521-3.771c1.791-0.472,3.58,0.555,4.002,2.321
	C198.307,92.306,197.186,94.021,195.375,94.347z M203.365,70.024c-1.182,0.527-2.605-0.063-3.174-1.302
	c-0.57-1.242-0.092-2.72,1.063-3.314c1.154-0.597,2.576-0.025,3.172,1.283C205.025,68.002,204.549,69.5,203.365,70.024z
	 M207.307,98.825c-1.426,0.19-2.736-0.854-2.928-2.319c-0.188-1.464,0.809-2.869,2.17-3.144c1.436-0.281,2.807,0.733,2.979,2.29
	C209.727,97.208,208.73,98.634,207.307,98.825z M193.084,69.496c-1.506,0.726-3.156,0.116-3.93-1.234
	c-0.803-1.341-0.291-3.078,1.127-3.897c1.422-0.816,3.254-0.32,4.105,1.129c0.446,0.71,0.491,1.538,0.217,2.279
	C194.35,68.505,193.822,69.135,193.084,69.496z M197.914,104.215c-1.121,0.083-2.152-0.708-2.301-1.763
	c-0.146-1.054,0.645-2.012,1.764-2.151c1.123-0.138,2.148,0.641,2.295,1.75C199.82,103.157,199.035,104.131,197.914,104.215z
	 M194.217,57.136c-0.793,0.506-1.762,0.213-2.348-0.545c-0.561-0.773-0.398-1.821,0.357-2.349c0.754-0.528,1.834-0.307,2.412,0.5
	C195.24,55.532,195.002,56.637,194.217,57.136z M190.846,78.993c-0.771,0.285-1.594-0.054-1.846-0.753
	c-0.324-0.681,0.027-1.48,0.783-1.795s1.635,0,1.971,0.707C192.059,77.868,191.605,78.707,190.846,78.993z" class="color c1"/>
</svg>