<svg version="1.1" id="图层_1" x="0px" y="0px" width="213.068px" height="119.352px" viewBox="0 0 213.068 119.352" enable-background="new 0 0 213.068 119.352" xml:space="preserve" xmlns="http://www.w3.org/2000/svg" xmlns:xlink="http://www.w3.org/1999/xlink" xmlns:xml="http://www.w3.org/XML/1998/namespace">
  <path fill="#FFFFFF" d="M180.419,117.5c0,0-0.438-0.703-0.913-1.93c-2.831-7.246-0.909-14.097,3.61-20.433
	C186.885,98.228,189.79,107.455,180.419,117.5z M191.296,79.714c-5.045,9.262-3.166,17.667,0.144,21.94
	C198.911,92.141,196.673,82.592,191.296,79.714z M170.001,0c2.803,10.87,9.855,16.463,15.279,16.923
	C184.301,5.094,174.572,0.032,170.001,0z M191.566,61.005c-0.935,9.467,2.828,16.165,8.112,19.418
	C203.194,69.023,197.383,61.715,191.566,61.005z M188.652,44.857c1.849,10.006,8.331,14.138,12.521,15.084
	C200.788,48.474,193.289,44.24,188.652,44.857z M182.901,30.549c2.83,8.521,8.811,12.273,14.16,12.363
	C194.919,32.948,187.604,29.229,182.901,30.549z M176.788,18.154c3.633,7.744,9.718,9.916,13.947,9.294
	C186.829,17.834,179.782,16.944,176.788,18.154z M181.211,118.316c0,0,0.735,0.357,2.017,0.652
	c8.518,1.949,15.898-3.758,19.946-12.412C195.493,104.371,186.522,112.066,181.211,118.316z M193.237,102.717
	c7.039,1.234,16.102-5.186,17.044-18.234C202.382,85.18,196.407,95.494,193.237,102.717z M201.037,80.678
	c7.453-0.564,14.07-9.791,11.445-21.605C205.273,61.73,202.285,73.127,201.037,80.678z M202.965,59.834c0,0,0.669-0.287,1.611-0.984
	c5.946-4.352,6.479-12.86,2.62-20.456C201.364,42.438,201.8,52.805,202.965,59.834z M198.522,41.992
	c4.99-3.217,7.181-11.63,1.473-20.557C194.86,25.766,196.317,35.404,198.522,41.992z M192.265,26.421
	c2.721-2.841,4.704-10.271-2.471-17.74C185.987,13.346,188.927,21.128,192.265,26.421z M32.649,117.5c0,0,0.438-0.703,0.913-1.93
	c2.831-7.246,0.909-14.097-3.61-20.433C26.184,98.228,23.278,107.455,32.649,117.5z M21.629,101.654
	c3.31-4.273,5.188-12.679,0.144-21.94C16.396,82.592,14.157,92.141,21.629,101.654z M27.788,16.923
	C33.212,16.463,40.265,10.87,43.067,0C38.496,0.032,28.768,5.094,27.788,16.923z M13.39,80.423
	c5.284-3.253,9.047-9.951,8.112-19.418C15.686,61.715,9.874,69.023,13.39,80.423z M11.896,59.941
	c4.189-0.946,10.672-5.078,12.521-15.084C19.779,44.24,12.28,48.474,11.896,59.941z M16.007,42.912
	c5.35-0.09,11.33-3.843,14.16-12.363C25.464,29.229,18.149,32.948,16.007,42.912z M22.333,27.448
	c4.229,0.622,10.314-1.55,13.947-9.294C33.286,16.944,26.239,17.834,22.333,27.448z M9.895,106.557
	c4.048,8.654,11.429,14.361,19.946,12.412c1.281-0.295,2.017-0.652,2.017-0.652C26.546,112.066,17.575,104.371,9.895,106.557z
	 M2.787,84.482c0.942,13.049,10.005,19.469,17.044,18.234C16.661,95.494,10.687,85.18,2.787,84.482z M0.586,59.072
	c-2.625,11.814,3.992,21.041,11.445,21.605C10.783,73.127,7.795,61.73,0.586,59.072z M5.872,38.394
	c-3.859,7.596-3.326,16.104,2.62,20.456c0.942,0.697,1.611,0.984,1.611,0.984C11.269,52.805,11.704,42.438,5.872,38.394z
	 M13.073,21.436c-5.708,8.927-3.518,17.34,1.473,20.557C16.751,35.404,18.208,25.766,13.073,21.436z M23.274,8.681
	c-7.175,7.47-5.191,14.899-2.471,17.74C24.142,21.128,27.081,13.346,23.274,8.681z" class="color c1"/>
</svg>