<svg version="1.1" id="图层_1" x="0px" y="0px" width="60.778px" height="96.597px" viewBox="0 0 60.778 96.597" enable-background="new 0 0 60.778 96.597" xml:space="preserve" xmlns="http://www.w3.org/2000/svg" xmlns:xlink="http://www.w3.org/1999/xlink" xmlns:xml="http://www.w3.org/XML/1998/namespace">
  <path fill="#404042" d="M0.198,95.265c1.411-1.709,1.501-11.359,9.135-16.296C9.582,85.683,6.056,91.968,0.198,95.265z
	 M9.378,87.519c5.594-3.694,8.666-10.196,7.959-16.863C10.329,75.872,10.756,85.729,9.378,87.519z M17.99,79.187
	c5.311-4.079,7.856-10.807,6.591-17.384C18.156,67.757,19.104,77.324,17.99,79.187z M25.854,70.16
	c4.403-3.793,6.727-8.612,5.211-17.798C25.208,59.012,26.878,68.207,25.854,70.16z M32.912,60.541
	c5.875-5.857,4.998-11.527,3.749-18.124C31.556,49.471,33.687,58.659,32.912,60.541z M0,96.597
	c2.933-1.298,12.186,0.321,19.224-8.471C13.126,90.791,8.832,87.742,0,96.597z M27.498,79.599
	c-4.905,2.252-11.757,1.119-18.339,9.448C11.579,87.748,20.897,88.774,27.498,79.599z M35.033,70.399
	c-5.196,2.677-10.297,1.168-17.277,10.472C19.892,79.568,29.758,79.545,35.033,70.399z M41.887,60.652
	c-3.798,2.09-11.079,2.412-16.263,11.395C26.7,71.23,37.716,69.685,41.887,60.652z M47.8,50.367
	c-5.918,2.797-11.356,4.242-15.061,12.266C33.724,61.72,44.085,59.755,47.8,50.367z M53.242,2.725l-0.543-0.063
	c-1.74,13.728-5.863,27.047-12.172,39.36l0.503,0.228C47.359,29.881,51.49,16.51,53.242,2.725z M56.077,5.47
	c-2.308,15.555-7.509,30.541-15.341,44.186l0.472,0.271C49.095,36.23,54.33,21.164,56.64,5.524L56.077,5.47z M47.081,45.457
	l0.483,0.237c6.73-13.184,12.553-31.506,13.214-45.68L60.236,0C59.632,13,54.374,31.123,47.081,45.457z" class="color c1"/>
</svg>