<svg version="1.1" id="图层_1" x="0px" y="0px" width="210px" height="151.153px" viewBox="0 0 210 151.153" enable-background="new 0 0 210 151.153" xml:space="preserve" xmlns="http://www.w3.org/2000/svg" xmlns:xlink="http://www.w3.org/1999/xlink" xmlns:xml="http://www.w3.org/XML/1998/namespace">
  <path fill="#FFFFFF" d="M44.17,121.776c2.646-8.506,0.221-17.775-6.253-23.894C32.434,107.03,38.221,117.576,44.17,121.776z
	 M28.724,84.21c-2.847,2.916-7,14.676,2.333,24.219C34.021,101.547,34.674,90.977,28.724,84.21z M20.464,0
	C8.658,11.831,7.095,21.164,10.455,32.667C15.681,27.907,20.068,13.954,20.464,0z M20.09,91.49c4.27-5.693,7.374-12.763,1.89-21.491
	C15.611,73.64,16.334,85.377,20.09,91.49z M20.815,55.767C13.79,59.18,10.46,67.336,13.091,74.69
	C17.991,70.91,23.894,62.768,20.815,55.767z M20.535,39.784c-2.847,0.77-10.967,7.256-9.497,18.829
	C16.334,55.697,22.75,50.145,20.535,39.784z M21.98,24.243c-5.086,1.471-11.502,10.524-11.198,19.134
	C15.822,41.043,23.333,31.734,21.98,24.243z M45.361,123.713c-7.605-7-19.74-9.52-25.479-7.257
	c4.751,8.959,15.865,12.373,24.825,7.62C44.927,123.961,45.145,123.839,45.361,123.713z M49.724,112.582
	c-1.914,3.501-2.333,13.464,9.8,19.461C60.224,125.626,57.564,114.66,49.724,112.582z M35.328,131.81
	c7.313,6.984,18.496,7.954,26.902,2.334C56.771,131.414,43.658,127.727,35.328,131.81z M76.347,139.159
	c-0.583-6.51-4.153-14.979-14-17.009C61.344,125.696,62.72,135.332,76.347,139.159z M79.1,140.747
	c-6.067-1.634-22.634-3.571-29.843,2.029C58.425,149.271,70.897,148.424,79.1,140.747z M79.333,129.804
	c-0.606,8.305,8.167,12.973,17.57,13.648C95.107,135.099,86.333,131.367,79.333,129.804z M96.833,144.597
	c-6.3-0.515-21.35-1.377-25.012,3.64C89.599,154.909,96.763,148.587,96.833,144.597z M31.688,111.02
	c-2.334-2.986-14.794-13.813-21.841-13.533C9.194,111.696,24.5,110.927,31.688,111.02z M21,95.013
	C18.015,89.436,10.292,78.82,1.822,77.91C1.331,89.391,11.294,95.2,21,95.013z M12.998,77.444
	c-1.33-4.994-3.221-13.837-11.596-18.201C-1.749,69.697,7.515,76.767,12.998,77.444z M10.408,61.018
	c-0.443-5.414-3.99-16.194-9.333-17.897C-3.265,55.837,6.699,59.989,10.408,61.018z M9.917,47.182
	c0.421-4.948,0.934-16.498-5.902-23.335C-0.838,39.48,7.257,45.896,9.917,47.182z M165.831,121.776
	c5.948-4.293,11.665-14.746,6.252-23.894C165.609,104.001,163.183,113.271,165.831,121.776z M181.277,84.21
	c-5.951,6.767-5.297,17.337-2.334,24.219C188.393,98.91,184.123,87.243,181.277,84.21z M189.537,0
	c0.396,14.001,4.666,28,10.01,32.667C203,21.164,201.343,11.831,189.537,0z M188.019,69.999c-5.482,8.729-2.333,15.798,1.89,21.491
	C193.667,85.377,194.39,73.64,188.019,69.999z M189.187,55.767c-3.081,7.001,2.822,15.097,7.722,18.924
	C199.54,67.336,196.211,59.18,189.187,55.767z M189.466,39.784c-2.334,10.36,4.153,15.913,9.497,18.829
	C200.432,47.04,192.313,40.578,189.466,39.784z M188.019,24.243c-1.376,7.584,6.16,16.894,11.2,19.134
	C199.522,34.673,193.106,25.62,188.019,24.243z M190.12,116.456c-5.741-2.332-17.873,0.328-25.48,7.257
	c8.76,5.111,20.004,2.156,25.116-6.603C189.881,116.894,190.002,116.677,190.12,116.456z M150.477,132.043
	c12.063-5.997,11.666-15.96,9.799-19.461C152.436,114.66,149.776,125.626,150.477,132.043z M174.673,131.81
	c-8.33-4.083-21.444-0.396-26.902,2.334C156.176,139.764,167.359,138.794,174.673,131.81z M133.653,139.159
	c13.627-3.827,15.003-13.463,13.999-17.009C137.806,124.181,134.237,132.649,133.653,139.159z M130.901,140.747
	c8.202,7.677,20.674,8.524,29.842,2.029C153.534,137.176,136.967,139.113,130.901,140.747z M130.667,129.804
	c-7,1.563-15.843,5.295-17.57,13.648C122.57,142.776,131.344,138.108,130.667,129.804z M113.167,144.597
	c0,3.99,7.233,10.313,25.012,3.64C134.516,143.242,119.466,144.082,113.167,144.597z M200.153,97.486
	c-7-0.28-19.577,10.547-21.84,13.533C185.5,110.927,200.806,111.696,200.153,97.486z M208.179,77.91
	c-8.47,1.004-16.193,11.666-19.086,17.196C198.706,95.2,208.669,89.391,208.179,77.91z M208.599,59.243
	c-8.376,4.293-10.243,13.137-11.666,18.131C202.485,76.767,211.75,69.697,208.599,59.243z M208.926,43.12
	c-5.344,1.703-8.891,12.483-9.333,17.897C203.302,59.989,213.265,55.837,208.926,43.12z M200.083,47.182
	c2.66-1.285,10.757-7.701,5.903-23.335C199.15,30.684,199.663,42.233,200.083,47.182z" class="color c1"/>
</svg>