<svg version="1.1" id="图层_1" x="0px" y="0px" width="241.044px" height="203.828px" viewBox="0 0 241.044 203.828" enable-background="new 0 0 241.044 203.828" xml:space="preserve" xmlns="http://www.w3.org/2000/svg" xmlns:xlink="http://www.w3.org/1999/xlink" xmlns:xml="http://www.w3.org/XML/1998/namespace">
  <path fill="#E2B55A" d="M209.105,130.252c0.23-2.811,0.401-4.893,0.573-6.977c0.391-0.313,1.064-0.586,1.127-0.947
	c0.847-4.877,4.76-6.135,9.308-6.709c1.602-0.205,3.219-0.396,4.779-0.764c9.986-2.355,17.591-12.705,15.921-21.598
	c-9.703-0.104-14.34,2.389-26.111,14.148c0.093-1.918,0.407-3.6,0.212-5.232c-0.828-6.879-0.539-7.791,7.988-11.045
	c11.666-4.449,16.672-14.799,12.76-26.43c-11.183,2.918-17.578,10.012-20.965,20.277c-4.242-12.145-5.218-12.176,4.494-19.066
	c0.107-0.076,0.203-0.164,0.304-0.246c8.171-6.551,9.542-18.547,3.058-26.793c-8.479,3.697-12.396,9.986-15.013,24.365
	c-1.296-2.004-2.253-3.887-3.604-5.496c-3.248-3.871-2.733-7.477,0.474-11.057c0.683-0.766,1.291-1.582,1.916-2.385
	c6.735-8.678,5-20.537-4.196-27.676c-8.107,7.627-9.67,16.75-7.732,27.158c-1.832-1.148-2.824-2.867-4.347-3.971
	c-4.442-3.223-4.972-7.025-2.797-11.514c0.653-1.346,1.158-2.764,1.588-4.182c2.856-9.434-2.455-19.82-12.454-24.084
	c-5.492,9.281-4.693,18.477,0.335,27.785c-4.457-3.816-8.26-8.002-12.63-11.617c-3.646-3.018-7.731-5.742-12.046-7.889
	c-3.325-1.652-7.31-2.246-11.083-0.402c1.008,6.65,4.84,11.184,11.155,13.814c4.157,1.732,8.57,2.945,12.833,4.475
	c3.209,1.154,6.36,2.438,9.538,3.66c-11.58-0.342-20.65,4.58-23.754,14.16c5.143-0.232,9.98,0.008,14.603-0.797
	c3.899-0.676,7.518-2.641,11.315-3.895c6.037-1.99,12.159,0.543,14.679,5.961c-11.944-2.904-21.423-0.359-25.76,6.994
	c7.487,4.406,15.56,3.875,23.813,2.596c7.797-1.211,13.035,2.217,14.877,9.422c-10.109-6.271-19.183-6.287-28.109,0.545
	c4.267,2.125,8.035,4.574,12.229,5.922c3.869,1.244,8.2,1.291,12.323,1.887c6.663,0.963,10.81,6.008,10.044,12.191
	c-8.101-8.104-17.345-10.279-26.398-5.982c6.371,9.6,15.464,14.732,28.421,14.627c-0.248,4.811-0.479,9.285-0.708,13.76
	c-5.272-9.848-13.591-14.361-24.168-12.76c0.573,5.664,4.146,10.611,11.864,15.414c4.907,3.051,8.92,6.371,8.771,12.303
	c-0.837,2.012-1.672,4.023-2.759,6.641c-2.415-11.609-9.551-18.145-19.564-18.354c-0.384,7.938,3.61,14.088,9.076,19.834
	c5.54,5.826,4.897,11.797-1.386,17.027c1.452-10.447-3.419-18.479-13.63-21.951c-2.706,10.898-0.588,20.471,8.785,28.635
	c-3.868,3.279-7.47,6.334-11.073,9.387c3.835-10.559,0.936-20.422-7.813-24.783c-0.625,1.223-1.275,2.422-1.861,3.645
	c-2.921,6.09-1.726,12.301-0.744,18.535c1.097,6.977-2.243,11.176-10.101,13.035c6.358-9.777,6.217-18.342-0.406-24.729
	c-5.614,4.523-8.041,9.83-8.274,18.092c-0.258,9.1-4.449,12.824-14.502,12.887c9.022-7.041,11.688-16.457,6.665-24.209
	c-4.681,3.088-7.221,7.561-9.771,12.027c-1.931,3.381-3.644,6.883-5.817,10.131c-3.064,4.58-6.259,4.498-9.455-0.078
	c-1.227-1.76-2.176-3.682-3.276-5.518c-2.391-3.994-4.624-8.078-7.275-11.92c-1.287-1.867-3.372-3.273-5.48-5.25
	c-3.802,10.457-2.127,18.748,8.195,25.385c-2.216-0.371-3.413-0.533-4.587-0.779c-8.291-1.748-10.522-4.158-11.037-11.859
	c-0.123-1.846-0.166-3.699-0.401-5.533c-0.696-5.414-3.296-9.898-8.061-13.793c-5.892,8.637-7.204,16.84,0.377,25.443
	c-9.382-3.172-11.803-6.883-10.333-14.83c0.314-1.699,0.669-3.402,0.821-5.117c0.495-5.6-0.394-10.904-4.196-15.908
	c-8.3,6.963-11.614,14.717-6.806,24.59c-7.919-4.082-9.886-9.352-6.334-16.074c0.819-1.553,1.733-3.068,2.473-4.65
	c2.553-5.467,3.03-11.023,0.946-16.771c-10.357,3.865-14.885,11.205-13.732,21.885c-5.852-5.422-6.297-11.213-1.297-17.033
	c1.416-1.648,2.957-3.213,4.274-4.924c3.415-4.424,5.237-9.291,4.892-14.785c-9.893,0.105-17.403,7.078-19.289,17.66
	c-4.317-6.395-3.232-12.074,3.052-16.389c2.584-1.775,5.225-3.523,7.563-5.549c3.733-3.23,6.359-7.104,7.423-11.859
	c-11.48-1.092-18.062,2.396-23.924,12.406c-2.286-8.066,0.446-12.734,8.92-15.416c2.54-0.805,5.121-1.607,7.484-2.75
	c4.703-2.273,8.332-5.568,10.717-10.041c-10.542-3.814-17.969-1.887-26.823,6.717c0.99-9.111,4.232-12.182,13.907-13.145
	c1.074-0.107,2.16-0.102,3.231-0.225c6.7-0.758,12.541-3.063,17.25-7.707c-9.033-6.178-17.024-6.143-27.337-0.078
	c1.803-6.979,7.086-10.367,14.59-9.346c1.735,0.236,3.459,0.545,5.199,0.738c6.687,0.744,13.082,0.174,18.884-3.404
	c-5.907-7.807-14.021-9.813-26.585-6.74c5.512-7.129,10.105-8.348,18.573-4.949c2.099,0.842,4.169,1.783,6.343,2.422
	c5.348,1.57,10.735,1.775,16.202,0.205c-3.488-8.848-10.763-12.781-23.451-13.078c3.101-1.414,6.29-2.643,9.498-3.83
	c4.864-1.799,9.968-3.189,14.556-5.453c5.459-2.693,8.704-7.107,9.029-13.148c-4.937-1.354-9.57-0.676-13.325,1.813
	c-4.972,3.295-9.434,7.252-13.964,11.072c-2.677,2.254-5.064,4.797-7.581,7.209C69.647,18.217,70.479,9.172,64.875,0
	c-11.32,5.488-16.426,16.947-13.077,28.627c1.679,5.865-0.24,10.965-5.769,15.066c3.137-10.254,0.916-19.256-6.75-27.195
	c-9.415,7.742-11.521,19.967-4.586,30.471c3.761,5.693,1.846,10.404-0.886,15.57c-0.71-10.277-5.086-18.514-14.902-23.99
	c-6.589,9.188-5.124,21.258,3.42,29.822c5.715,5.73,6.506,8.654,4.454,16.473c-5.56-12.549-12.506-18.98-21.348-19.76
	C1.642,75.369,7.778,88.629,18.492,93.313c5.975,2.611,8.388,6.916,7.48,13.717C19.783,98.318,11.505,93.266,0.01,93.104
	c-0.344,11.582,7.937,21.596,20.868,24.41c7.019,1.529,8.914,6.203,11.033,11.268c-8.538-6.57-17.875-9.736-29.06-7.014
	c3.32,11.561,13.2,18.744,26.713,18.609c7.218-0.068,10.825,3.578,14.284,8.336c-10.09-4.43-20.041-5.115-30.103-0.102
	c5.571,9.977,18.459,15.365,30.419,12.025c7.518-2.098,12.332,1.104,17.451,4.957c-11.07-2.539-20.877-0.787-29.204,6.545
	c8.199,8.629,21.634,10.141,33.595,3.861c5.435-2.855,11.565-2.371,16.748,1.447c-11.63,0.041-20.619,4.186-26.79,13.229
	c10.842,5.975,23.903,5.164,32.649-3.232c5.629-5.406,11.613-4.916,18.387-4.115c-11.161,2.965-18.85,9.082-22.21,19.297
	c0.48,0.355,0.661,0.57,0.894,0.641c0.508,0.154,1.035,0.266,1.564,0.336c7.854,1.057,13.991-1.625,18.748-7.236
	c2.559-3.018,4.838-6.256,7.63-9.078c4.627-4.674,9.595-4.58,14.207,0.047c1.63,1.631,2.938,3.525,4.491,5.227
	c2.413,2.643,4.648,5.484,7.426,7.768c4.834,3.967,10.63,4.014,16.999,2.738c-3.562-10.781-11.524-16.699-22.993-19.68
	c13.443-3.434,13.297-5.023,21.91,4.525c6.911,7.66,19.994,8.555,29.715,2.693c-6.125-9.07-15.316-13.076-26.967-13.217
	c7.352-6.203,13.819-6.971,21.76-1.08c8.409,6.238,21.376,3.838,29.308-4.186c-8.617-7.082-18.536-9.115-29.942-6.252
	c0.309-0.58,0.338-0.715,0.426-0.793c9.99-8.717,7.293-9.48,20.941-5.145c10.194,3.236,22.677-2.381,26.525-11.396
	c-10.225-5.08-20.319-4.15-31.015,1.068c1.794-2.887,3.204-4.957,4.401-7.127c1.74-3.158,4.5-4.42,8.263-4.119
	c1.48,0.119,2.966,0.17,4.447,0.27c12.577,0.836,21.692-5.289,24.892-16.932C226.753,118.684,217.347,122.52,209.105,130.252z" class="color c1"/>
</svg>