<svg version="1.1" id="图层_1" x="0px" y="0px" width="184.648px" height="103.729px" viewBox="0 0 184.648 103.729" enable-background="new 0 0 184.648 103.729" xml:space="preserve" xmlns="http://www.w3.org/2000/svg" xmlns:xlink="http://www.w3.org/1999/xlink" xmlns:xml="http://www.w3.org/XML/1998/namespace">
  <path fill="#E0A246" d="M183.173,0.439c-1.724,3.823-3.925,7.363-6.477,10.705c-1.634,2.134-3.349,4.211-4.819,6.451
	c-0.138-0.239-0.443-0.383-0.769-0.197c-4.195,2.393-9.54,4.642-12.623,8.458c-2.818,3.484-3.878,7.484-4.728,11.753
	c-0.143,0.722,0.64,1.209,1.221,1.032c-0.326,0.473-0.58,0.977-0.705,1.514c-1.064,0.866-2.109,1.772-3.176,2.623
	c0.098-0.414,0.16-0.751,0.183-0.967c0.585-6.016,2.076-12.884-1.022-18.609c1.862-2.261,4.076-4.254,6.513-5.891
	c0.249-0.166-0.011-0.548-0.26-0.381c-2.522,1.694-5.027,3.338-7.292,5.18c-0.395-0.051-0.826,0.135-1.011,0.514
	c-0.082,0.173-0.146,0.344-0.2,0.513c-2.872,2.542-5.255,5.509-6.634,9.481c-1.832,5.267-1.311,11.644-0.467,17.25
	c-1.648,1.072-3.298,2.141-4.954,3.194c0.673-1.309,1.269-2.664,1.664-4.08c0.888-3.173,0.784-6.038-1.185-8.76
	c-0.888-1.225-2.531-0.231-2.263,1.104c0.546,2.691-0.029,5.538-1.107,8.156c-0.089-0.075-0.221-0.102-0.348-0.022
	c-0.971,0.583-1.746,1.444-2.677,2.076c0.288-0.321,0.57-0.641,0.849-0.96c0.422-0.481-0.349-1.108-0.77-0.624
	c-0.451,0.517-1.017,0.868-1.574,1.23l0,0c1.141-1.506,2.625-2.747,3.647-4.355c0.194-0.305-0.321-0.617-0.536-0.333
	c-0.455,0.604-1.018,1.101-1.616,1.563c-0.062-0.095-0.156-0.172-0.263-0.217c0.729-0.844,1.379-1.752,2.205-2.513
	c0.382-0.35-0.046-0.998-0.486-0.667c-0.794,0.596-1.534,1.268-2.326,1.868c0.115-0.321,0.243-0.632,0.375-0.942
	c0.563-0.641,1.098-1.301,1.623-1.999c0.189-0.254,0.016-0.526-0.22-0.572c0.37-0.538,0.771-1.04,1.217-1.501
	c2.055-2.127,4.135-4.157,5.521-6.803c1.317-2.514,2.194-5.303,2.723-8.078c0.14-0.721-0.94-0.916-1.122-0.216
	c-1.84,7.063-9.629,9.497-13.004,15.558c-3.032,5.443-3.346,11.788-0.368,17.232c-1.306,0.76-2.618,1.509-3.942,2.24
	c-1.446,0.797-2.902,1.572-4.364,2.326c0.032-0.07,0.066-0.141,0.097-0.209c0.995-2.224,2.24-4.357,2.631-6.794
	c0.447-2.768,0.206-5.516,0.165-8.301c-0.008-0.55-0.872-0.598-0.966-0.061c-0.377,2.174-0.677,4.398-1.228,6.535
	c-0.605,2.349-1.738,3.845-3.125,5.77c-0.69,0.957-1.376,1.955-2.119,2.892c-0.077,0.054-0.151,0.109-0.229,0.161
	c-0.494,0.336-1.028,0.729-1.594,1.026c-0.061-0.034-0.127-0.05-0.199-0.044c0.151-0.115,0.302-0.236,0.473-0.307
	c0.235-0.101,0.369-0.293,0.412-0.504c0.797-0.762,1.544-1.574,2.448-2.209c0.373-0.26-0.026-0.781-0.408-0.559
	c-0.69,0.402-1.347,0.85-2.022,1.26c1.085-1.035,2.223-2.014,3.373-2.996c0.556-0.477-0.069-1.381-0.679-0.929
	c-1.154,0.854-2.396,1.585-3.601,2.359c0.356-0.308,0.726-0.603,1.051-0.917c1.072-1.034,2.17-2.029,3.267-3.039
	c0.408-0.377-0.075-1.089-0.522-0.713c-0.621,0.522-1.291,1-1.976,1.458c0.185-0.214,0.368-0.43,0.563-0.638
	c1.016-1.104,2.23-2.05,3.478-2.886c0.626-0.421-0.047-1.303-0.681-0.928c-0.24,0.14-0.484,0.285-0.73,0.432
	c0.512-0.537,1.035-1.056,1.58-1.549c0.463-0.418,0.114-1.137-0.364-1.133c0.163-0.128,0.322-0.26,0.483-0.392
	c0.444-0.369-0.064-1.087-0.531-0.727c-0.826,0.633-1.695,1.207-2.564,1.778c0.024-0.171-0.046-0.327-0.164-0.436
	c0.152-0.346,0.307-0.689,0.472-1.025c0.196-0.405,0.409-0.797,0.636-1.18c0.701-0.724,1.446-1.397,2.232-2.057
	c0.398-0.335,0.229-0.877-0.118-1.061c0.729-0.982,1.47-1.958,2.147-2.977c1.276-1.922,2.067-3.904,2.717-6.092
	c0.063-0.21-0.266-0.305-0.359-0.118c-1.444,2.921-4.489,4.924-6.904,7.022c-2.375,2.062-4.3,4.526-5.485,7.457
	c-1.919,4.751-4.913,10.626-2.005,15.503c0.249,0.414,0.61,0.621,1,0.678c-0.327,0.106-0.66,0.197-1.014,0.26
	c-1.115,0.197-1.806,1.057-1.945,1.959c-1.231,0.52-2.467,1.033-3.712,1.531c-0.342,0.136-0.683,0.276-1.022,0.414
	c0.818-1.028,1.215-2.404,1.188-4.152c-0.052-3.277-0.25-8.879-4.284-9.979c-0.506-0.139-1.131,0.28-1.194,0.793
	c-0.135,1.116,0.268,2.139,0.795,3.147c-0.549-0.496-1.103-0.982-1.873-1.019c0.625-1.989,1.467-3.973,2.565-5.451
	c1.261-1.702,3.193-3.059,3.776-5.136c0.123-0.434-0.604-0.675-0.757-0.248c-0.556,1.572-2.017,2.177-3.191,3.205
	c-0.958,0.835-1.787,1.895-2.554,2.903c-1.491,1.961-3.083,4.259-3.942,6.569c-0.505,1.35-0.942,2.726-1.096,4.162
	c-0.152,1.4,0.111,2.984-0.152,4.344c-0.374,1.918-0.882,3.838-1.218,5.756c-1.226,0.484-2.455,0.957-3.692,1.41
	c0.639-1.552,0.984-3.469,1.128-4.609c0.287-2.287,0.571-4.662-0.21-6.871c-0.408-1.154-1.315-2.072-2.248-2.828
	c-0.415-0.336-0.983-0.461-1.522-0.62c-0.311-0.468-0.634-0.921-0.955-1.381c-0.088-0.127-0.175-0.255-0.262-0.376
	c1.406-1.416,3.031-2.707,4.784-4.103c0.518-0.412,0.013-1.135-0.564-0.833c-2.467,1.29-5.461,2.237-7.59,4.063
	c-2.333,1.997-3.55,4.02-4.59,6.863c-1.561,4.265-3.052,10.344-1.194,14.814c-3.363,0.897-6.762,1.701-10.173,2.452
	c1.362-1.303,2.507-2.792,3.161-4.589c1.335-3.662,1.436-8.118-1.433-10.939c1.587-1.216,3.285-2.317,4.859-3.5
	c0.704-0.529,0.004-1.524-0.757-1.107c-4.353,2.371-9.184,3.696-12.146,7.906c-1.613,2.291-3.851,6.586-2.566,9.496
	c-0.011,0.01-0.022,0.021-0.036,0.033c-0.283,0.324-0.141,0.738,0.146,0.944c-0.003,0.19,0.044,0.378,0.129,0.538
	c-0.022,0.074-0.046,0.146-0.065,0.22c-0.052,0.208-0.108,0.55-0.106,0.886c-0.42,0.568-0.496,1.365-0.192,1.959
	c-4.065,0.775-8.128,1.492-12.157,2.183c-12.864,2.208-26.379,3.016-39.254,0.555c-1.01-0.192-1.61,1.394-0.586,1.731
	c12.977,4.268,26.691,4.104,40.119,2.164c5.021-0.725,10.027-1.611,15.004-2.624c0.062,0.036,0.127,0.072,0.193,0.109
	c-0.25,0.117-0.444,0.364-0.438,0.681c0.132,5.804,5.391,10.008,10.427,11.881c5.411,2.011,9.737,0.155,14.287-2.909
	c0.533-0.358,0.546-0.933,0.288-1.35c0.287-0.281-0.133-0.803-0.526-0.563c-0.039,0.024-0.079,0.046-0.117,0.07
	c-0.245-0.063-0.525-0.034-0.803,0.144c-0.286,0.182-0.579,0.367-0.876,0.546c-1.094,0.267-2.226,0.181-3.359-0.319
	c-0.286-0.129-0.568-0.273-0.845-0.436c-0.054-0.135-0.11-0.27-0.178-0.4c-0.585-1.159-1.291-2.279-2.001-3.366
	c-1.329-2.034-2.404-3.847-4.413-5.284c-0.508-0.364-1.101-0.688-1.747-0.966c2.75-0.618,5.512-1.241,8.257-1.919
	c0.215,2.694,0.859,5.225,2.931,7.17c2.158,2.029,5.053,3.473,7.968,4.09c6.492,1.379,12.122-1.444,16.734-5.791
	c0.542-0.511-0.141-1.487-0.822-1.203c-0.356,0.152-0.723,0.301-1.093,0.45c0.1-0.216-0.11-0.54-0.418-0.452
	c-1.637,0.479-3.102,0.841-4.815,0.476c-0.215-0.046-0.424-0.102-0.627-0.163c-0.493-1.086-1.132-2.1-1.604-2.779
	c-1.557-2.219-3.673-4.118-6.087-5.445c2.613-0.947,5.201-1.965,7.777-3.009c0.695,0.862,1.491,1.653,2.254,2.369
	c2.125,2.005,4.497,3.862,7.136,5.173c5.324,2.639,10.876,2.691,15.773-0.846c0.804-0.579,0-1.719-0.851-1.246
	c-0.026,0.014-0.054,0.029-0.08,0.043c-0.134-0.043-0.281-0.021-0.411,0.096c-0.467,0.424-1.272,0.328-1.86,0.281
	c-0.606-0.047-1.164-0.192-1.751-0.32c-0.23-0.047-0.444-0.122-0.647-0.211c-0.026-2.086-1.944-4.602-2.911-6.051
	c-1.217-1.82-2.491-3.281-4.556-4.177c2.056-0.823,4.092-1.704,6.107-2.636c2.491,5.521,8.522,9.355,14.63,9.906
	c2.936,0.262,5.559-0.33,8.211-1.591c2.464-0.83,4.359-2.177,6.056-4.114c0.134-0.027,0.259-0.066,0.342-0.133
	c0.541-0.428,1.041-0.904,1.474-1.44c0.07-0.089-0.051-0.229-0.143-0.149c-0.19,0.17-0.398,0.308-0.617,0.425
	c0.312-0.237,0.63-0.466,0.958-0.685c0.384-0.258-0.017-0.847-0.401-0.59c-1.021,0.678-2.172,1.35-3.371,1.967
	c-0.103,0.016-0.205,0.032-0.305,0.049c-0.895,0.145-1.751,0.233-2.638,0.02c0.003-0.053-0.001-0.104-0.009-0.156
	c-0.727-4.938-5.383-7.744-9.753-9.176c-0.778-0.256-1.536-0.435-2.292-0.56c0.191-0.108,0.386-0.214,0.578-0.321
	c1.75-0.984,3.487-1.998,5.212-3.039c3.634,4.918,10.92,7.467,16.9,7.771c8.41,0.425,13.182-5.285,18.124-11.1
	c0.601-0.708-0.449-1.581-1.093-0.928c-1.687,1.716-3.536,3.425-5.544,4.854c-2.365-3.836-5.46-6.844-10.425-7.31
	c-2.556-0.24-5.069-0.057-7.617,0.195c-0.126,0.012-0.251,0.022-0.381,0.031c1.212-0.853,2.418-1.713,3.602-2.597
	c0.195-0.073,0.372-0.202,0.517-0.385c0.065-0.043,0.128-0.092,0.188-0.138c0.154-0.115,0.307-0.228,0.46-0.341
	c0.039,0.532,0.437,1.052,1.019,1.215c1.165,0.324,2.313,0.347,3.438,0.16c0.054,0.079,0.116,0.154,0.191,0.221
	c3.079,2.608,7.858,2.749,11.718,2.6c2.061-0.078,4.616-1.536,6.368-2.538c1.927-1.101,3.857-2.274,5.63-3.611
	c4.8-3.624,9.522-9.215,8.595-15.484c-0.047-0.319-0.557-0.286-0.507,0.034c0.58,3.924-2.828,7.528-6.36,10.208
	c-1.205-3.639-7.953-3.973-10.929-2.771c-3.179,1.282-6.144,2.756-9.065,4.554c-1.616,0.995-3.29,1.974-5.109,2.564
	c-0.736,0.24-1.457,0.462-2.158,0.718c1.721-1.324,3.393-2.709,4.857-4.309c0.774-0.848,1.5-1.734,2.229-2.616
	c5.601,1.912,12.211-2.943,15.377-7.24c3.398-4.612,4.985-10.133,3.367-15.721c-0.14-0.487-0.551-0.634-0.933-0.554
	c5.262-5.102,9.489-12.029,12.244-18.74C184.961,0.193,183.586-0.482,183.173,0.439z M74.545,100.06
	c0.259,0.085,0.524,0.153,0.797,0.208c-0.252,0.104-0.506,0.203-0.765,0.289c-0.055-0.178-0.104-0.359-0.148-0.536
	C74.47,100.033,74.508,100.049,74.545,100.06z M55.27,82.9c0.611-0.525,1.126-1.197,1.691-1.729
	c0.267-0.253,0.597-0.596,0.956-0.924c0.493-0.289,0.976-0.604,1.438-0.94c0.04-0.01,0.081-0.023,0.122-0.029
	c0.246-0.047,0.394-0.215,0.454-0.402c0.116-0.107,0.087-0.264,0-0.355c-0.067-0.211-0.255-0.377-0.56-0.34
	c-0.095,0.012-0.188,0.027-0.282,0.045c0.089-0.327-0.366-0.726-0.667-0.45c-0.404,0.365-0.846,0.67-1.304,0.948
	c0.035-0.15,0.073-0.302,0.109-0.457c0.903-0.816,1.859-1.578,2.83-2.34c0.373-0.291,0.043-0.828-0.351-0.711
	c0.254-0.23,0.527-0.426,0.879-0.508c0.64-0.15,0.378-1.199-0.263-1.105c-0.087,0.014-0.169,0.032-0.252,0.053
	c0.391-0.484,0.022-1.322-0.671-1.084c0.771-1.025,1.678-1.929,2.657-2.762c0.469,2.994,0.317,6.006-1.427,8.664
	C59.356,80.414,57.386,81.869,55.27,82.9z M57.448,91.664c-0.189-0.287-0.378-0.577-0.567-0.866
	c0.325,0.125,0.651,0.236,0.958,0.339C57.573,91.151,57.408,91.408,57.448,91.664z M63.67,98.064
	c-0.415-0.141-0.819-0.297-1.221-0.47c-0.166-0.134-0.333-0.275-0.495-0.416c0.916,0.45,1.874,0.829,2.834,1.209
	C64.408,98.29,64.033,98.188,63.67,98.064z M72.078,100.209c0.114,0.213,0.234,0.426,0.362,0.631
	c-1.825-0.086-3.679-0.596-5.44-1.013c-0.491-0.118-1.012-0.234-1.459-0.474c0.882,0.133,1.768,0.248,2.645,0.389
	C69.44,100.185,70.729,100.468,72.078,100.209z M65.772,91.642c1.971,1.44,3.149,3.647,4.603,5.563
	c0.525,0.69,0.903,1.442,1.283,2.19c-0.695-0.116-1.354-0.299-1.998-0.525c-0.046-0.068-0.114-0.127-0.213-0.156
	c-0.597-0.181-1.173-0.406-1.732-0.665c0.63,0.117,1.028-0.82,0.37-1.072c-1.843-0.694-3.693-1.383-5.484-2.203
	c-0.831-0.38-1.654-0.774-2.454-1.22c-0.756-0.42-1.457-0.908-2.261-1.234c-0.061-0.088-0.118-0.177-0.177-0.264
	c0.632,0.568,1.592,0.85,2.336,1.236c1.145,0.592,2.297,1.219,3.487,1.711c1.019,0.424,2.079,0.641,3.108,1.01
	c0.802,0.283,1.637,0.67,2.508,0.609c0.313-0.02,0.348-0.539,0.022-0.553c-0.983-0.038-1.8-0.715-2.72-0.986
	c-1.033-0.303-2.054-0.721-2.996-1.237c-1.072-0.589-2.129-1.198-3.207-1.78c-0.108-0.059-0.216-0.109-0.322-0.162
	c1.629,0.611,3.279,1.17,4.94,1.688c0.389,0.125,0.663-0.445,0.27-0.571c-1.944-0.622-3.837-1.349-5.694-2.189
	c-0.236-0.106-0.476-0.212-0.714-0.318c0.544-0.097,1.119-0.212,1.764-0.192C62.321,90.383,64.245,90.524,65.772,91.642z
	 M94.387,91.959c1.402,0.096,2.643-0.227,3.924-0.628c-1.29,0.495-2.631,0.953-3.992,1.308c-0.048-0.229-0.11-0.466-0.184-0.699
	C94.217,91.946,94.303,91.954,94.387,91.959z M77.001,66.933c0.286-0.178,0.551-0.394,0.836-0.615
	c0.491-0.388,1.155-1.079,1.614-0.351c-0.262,0.497-1.127,0.955-1.544,1.219c-0.396,0.108-0.777,0.266-1.152,0.439
	C76.831,67.389,76.916,67.159,77.001,66.933z M75.182,75.418c0.073,0.01,0.145,0.013,0.213,0.011
	c-0.072,0.044-0.146,0.089-0.219,0.132C75.177,75.512,75.179,75.465,75.182,75.418z M75.565,79.512
	c-0.141,0.109-0.281,0.203-0.422,0.295c0.005-0.051,0.006-0.104,0.01-0.156c0.256-0.237,0.51-0.484,0.763-0.727
	c0.971-0.461,1.757-1.3,2.553-2.008c0.161-0.143,0.317-0.289,0.474-0.436c0.438-0.18,0.878-0.336,1.292-0.471
	c0.543-0.175,0.532-0.752,0.23-1.074c0.553-0.572,1.104-1.15,1.694-1.69c0.519-0.478-0.118-1.377-0.651-0.893
	c-1.164,1.049-2.272,2.153-3.605,2.998c-0.326,0.118-0.651,0.241-0.971,0.374c0.614-0.393,1.226-0.786,1.842-1.176
	c0.544-0.346-0.038-1.127-0.583-0.798c-0.429,0.259-0.859,0.515-1.288,0.773c0.649-0.769,1.219-1.761,2.129-1.912
	c0.462-0.077,0.594-0.549,0.44-0.864c0.018-0.383-0.422-0.763-0.842-0.475c-0.966,0.667-2.04,1.167-3.08,1.719
	c1.272-1.15,2.564-2.327,4.042-3.184c0.273-0.16,0.025-0.553-0.252-0.461c-1.201,0.397-2.337,0.867-3.448,1.411
	c0.042-0.17,0.087-0.339,0.133-0.507c0.01-0.01,0.019-0.016,0.032-0.021c0.473-0.334,0.931-0.709,1.373-1.103
	c0.52-0.407,1.031-0.847,1.666-1.021c0.434-0.12,0.441-0.571,0.22-0.852c0.317-0.356,0.597-0.75,0.672-1.21
	c0.12-0.113,0.181-0.295,0.076-0.473c-0.44-0.746-1.127-0.908-1.943-0.736c-0.055,0.012-0.108,0.023-0.159,0.041
	c0.259-0.467,0.542-0.914,0.841-1.34c0.009,0.014,0.012,0.025,0.021,0.035c1.187,1.539,3.641,1.696,4.286,3.65
	c0.591,1.795,0.282,4.27-0.146,6.105c-0.139,0.59-0.278,1.157-0.45,1.691c-1.252,0.773-2.484,1.572-3.694,2.406
	c0.029-0.035,0.061-0.07,0.09-0.105c0.141-0.171-0.116-0.376-0.265-0.213C77.758,78.062,76.599,78.725,75.565,79.512z
	 M82.264,75.715c-0.428,1.058-1.049,1.973-2.138,2.68c-0.512,0.332-0.985,0.654-1.429,0.998c0.213-0.289,0.421-0.578,0.634-0.836
	C80.15,77.551,81.187,76.522,82.264,75.715z M88.139,88.99c0.446,0.574,2.509,2.746,3.283,4.227c-1.964,0.26-3.933,0.219-5.822-0.32
	c-0.354-0.102-0.711-0.217-1.069-0.354c2,0.219,3.954,0.188,4.584,0.042c0.563-0.136,0.451-1.07-0.108-1.115
	c-1.207-0.098-2.478-0.391-3.701-0.65c0.427,0.067,0.853,0.136,1.279,0.203c0.636,0.106,0.8-0.844,0.174-0.969
	c-2.038-0.41-4.022-1.031-6.041-1.523c-0.633-0.152-1.207-0.151-1.763-0.375c-0.163-0.066-0.261-0.172-0.246-0.029
	c-0.025-0.139-0.08-0.268-0.165-0.387c-0.079-0.105-0.181-0.189-0.288-0.267c1.892,0.505,3.809,0.946,5.663,1.556
	c0.4,0.131,0.69-0.436,0.281-0.6c-0.933-0.373-1.971-0.602-2.906-1.003c0.269,0.054,0.539,0.101,0.812,0.138
	c0.485,0.061,0.613-0.646,0.133-0.74c-1.136-0.221-2.203-0.611-3.295-0.971c-0.471-0.154-0.962-0.441-1.462-0.667
	c0.549-0.15,1.099-0.305,1.646-0.463c0.229,0.055,0.454,0.11,0.673,0.169c0.259,0.072,0.343-0.275,0.157-0.41
	c0.027-0.008,0.055-0.018,0.085-0.025C83.043,85.534,86.201,86.5,88.139,88.99z M94.522,62.721c0.23-0.332,0.478-0.695,0.836-0.781
	c0.106-0.023,0.274,0.083,0.441,0.222c-0.449,0.322-0.903,0.638-1.366,0.939C94.461,62.975,94.491,62.848,94.522,62.721z
	 M95.821,72.845c-0.593,0.328-1.162,0.689-1.764,0.974c-0.007-0.01-0.011-0.021-0.015-0.031c0.014-0.094,0.022-0.188,0.037-0.283
	c1.688-1.664,2.9-3.818,4.922-5.137c0.394-0.254-0.032-0.834-0.428-0.58c-1.109,0.711-2.057,1.651-2.944,2.617
	c-0.423,0.458-0.897,0.875-1.386,1.281c0.003-0.081,0.002-0.167,0.004-0.247c0.228-0.233,0.456-0.462,0.687-0.69
	c1.18-1.162,2.329-2.407,3.395-3.67c0.388-0.461-0.333-1.047-0.723-0.589c-1.034,1.212-2.178,2.227-3.407,3.22
	c-0.005-0.063-0.007-0.12-0.01-0.186c0.211-0.191,0.423-0.391,0.626-0.6c0.899-0.916,1.526-2.031,2.578-2.803
	c0.384-0.283-0.026-0.818-0.428-0.584c-0.63,0.365-1.164,0.842-1.695,1.32c-0.064-0.105-0.17-0.188-0.288-0.225
	c0.427-0.719,0.998-1.75,1.742-1.917c0.688-0.155,0.638-1.203-0.105-1.111c-0.499,0.062-0.934,0.275-1.328,0.557
	c0.47-0.468,0.984-0.909,1.482-1.329c0.377,0.016,0.708-0.288,0.774-0.647c0.582,1.046,1.175,2.108,1.318,3.281
	c0.155,1.284,0.695,2.931,0.463,4.23c-0.154-0.013-0.309,0.054-0.364,0.224c-0.269,0.803-0.857,1.43-1.54,1.94
	c-0.364,0.156-0.756,0.284-1.154,0.409C95.987,72.357,95.845,72.594,95.821,72.845z M107.63,80.205
	c0.286,0.34,1.394,1.516,2.354,2.727c0.024,0.777,0.209,1.486,0.772,2.126c0.224,0.253,0.469,0.489,0.734,0.696
	c-0.012,0.057-0.033,0.109-0.064,0.152c-1.067-0.308-2.143-0.594-3.21-0.896c0.366-0.156,0.118-0.746-0.294-0.625
	c-0.98,0.281-2.214-0.378-3.086-0.762c-0.754-0.334-1.509-0.715-2.298-0.963c-0.24-0.077-0.485-0.141-0.731-0.202
	c-0.116-0.089-0.231-0.178-0.344-0.265c1.593,0.249,3.189,0.469,4.783,0.713c0.186,0.037,0.376,0.08,0.567,0.127
	c0.714,0.17,1.4,0.289,2.137,0.201c0.438-0.053,0.356-0.651-0.065-0.658c-0.189-0.004-0.379-0.022-0.57-0.047
	c-0.039-0.164-0.159-0.309-0.379-0.351c-2.057-0.391-4.122-0.728-6.179-1.114c-0.863-0.258-1.714-0.555-2.562-0.864
	c-0.129-0.123-0.256-0.239-0.381-0.362c1.977,0.572,4.01,0.932,6.026,1.354c0.396,0.081,0.495-0.517,0.105-0.61
	c-2.039-0.486-4.115-0.888-6.075-1.646c-0.446-0.174-0.884-0.318-1.337-0.449c-0.096-0.107-0.193-0.219-0.29-0.33
	c0.066,0.014,0.129,0.022,0.193,0.035c0.94,0.168,1.862,0.434,2.807,0.534c1.694,0.179,3.485,0.651,5.192,0.565
	c0.679-0.037,0.564-1.032-0.099-1.023c-1.467,0.018-2.999-0.449-4.451-0.808c0.655-0.022,1.338-0.06,2.083-0.037
	C105.164,77.488,106.318,78.658,107.63,80.205z M126.787,78.087c1.088,0.001,2.279,0.003,3.312,0.298
	C128.994,78.443,127.885,78.357,126.787,78.087z M124.938,70.561c2.031,0.617,4.248,1.248,5.767,2.785
	c0.117,0.119,0.236,0.241,0.353,0.364c0.5,1.119,1.466,1.97,2.596,2.528c0.211,0.156,0.431,0.303,0.662,0.438
	c0.246,0.141,0.527,0.164,0.795,0.104c0.248,0.063,0.496,0.115,0.745,0.152c0.057,0.01,0.114,0.015,0.171,0.021
	c-0.678,0.27-1.351,0.51-1.999,0.707c-1.122,0.34-2.268,0.586-3.42,0.688c0.195-0.16,0.236-0.484-0.063-0.58
	c-0.049-0.016-0.099-0.027-0.147-0.041c0.331-0.012,0.664-0.035,0.998-0.069c0.449-0.046,0.382-0.719-0.066-0.688
	c-2.749,0.19-5.204-0.589-7.883-0.966c-0.735-0.102-1.469-0.217-2.2-0.338c-0.32-0.197-0.635-0.404-0.947-0.615
	c0.651-0.006,1.292-0.016,1.951,0.082c1.558,0.228,3.122,0.374,4.69,0.494c0.386,0.028,0.5-0.545,0.106-0.596
	c-0.471-0.057-0.942-0.115-1.412-0.179c0.901-0.007,1.803-0.022,2.703-0.021c0.358,0,0.385-0.605,0.025-0.627
	c-2.351-0.133-4.679-0.443-6.993-0.85c-0.88-0.156-1.745-0.365-2.609-0.57c0.299,0.018,0.598,0.036,0.899,0.049
	c1.075,0.042,2.163,0.091,3.234,0.209c0.928,0.102,1.795-0.213,2.73,0.061c0.444,0.133,0.681-0.615,0.243-0.766
	c-0.793-0.267-1.617-0.266-2.449-0.229c-0.582,0.025-1.198-0.203-1.768-0.303c-0.491-0.079-0.979-0.158-1.466-0.26
	c-0.164-0.036-0.326-0.069-0.492-0.101c1.459,0.009,2.918,0.036,4.372,0.177c0.635,0.06,0.817-0.881,0.174-0.971
	c-1.22-0.166-2.438-0.328-3.658-0.49C122.042,70.073,123.441,70.104,124.938,70.561z M129.008,57.258
	c-0.032,0.057-0.062,0.116-0.094,0.174c-0.277,0.169-0.559,0.329-0.838,0.497c-0.044-0.297-0.082-0.603-0.114-0.91
	c0.668-0.498,1.286-1.068,1.926-1.6C129.602,56.029,129.33,56.648,129.008,57.258z M130.858,53.628
	c-0.273,0.144-0.545,0.295-0.81,0.459c-0.747,0.468-1.462,0.957-2.196,1.414c-0.009-0.185-0.011-0.37-0.016-0.557
	c0.29-0.149,0.503-0.389,0.661-0.667c0.696-0.688,1.441-1.354,2.168-1.997c0.763-0.678,1.328-1.502,2.114-2.146
	C132.222,51.375,131.56,52.555,130.858,53.628z M149.506,66.508c0.704-0.127,1.41-0.242,2.118-0.347
	C150.934,66.33,150.227,66.445,149.506,66.508z M146.376,58.055c4.673,0.211,7.885,2.491,10.807,5.648
	c-1.483,0.945-3.052,1.721-4.699,2.225c0.165-0.232,0.031-0.641-0.341-0.61c-1.339,0.106-2.659,0.339-3.985,0.539
	c1.208-0.231,2.416-0.476,3.62-0.716c0.548-0.109,0.476-0.969-0.084-0.861c-2.865,0.539-5.778,0.622-8.682,0.804
	c-0.568,0.038-1.143,0.089-1.719,0.128c-0.085-0.026-0.167-0.058-0.247-0.084c3.075-0.41,6.134-0.872,9.224-1.195
	c0.592-0.06,0.504-0.955-0.087-0.903c-2.927,0.257-5.847,0.38-8.775,0.554c-0.736,0.045-1.474,0.09-2.21,0.134
	c-0.262,0.013-0.804,0.122-1.184,0.153c-0.003-0.002-0.009-0.004-0.013-0.008c3.229-0.458,6.401-1.531,9.646-1.857
	c0.879-0.088,0.75-1.438-0.131-1.346c-3.507,0.369-6.919,1.186-10.418,1.534c0.08-0.019,0.16-0.037,0.235-0.055
	c2.55-0.552,5.181-0.942,7.764-1.304c0.38-0.051,0.327-0.605-0.057-0.585c-2.521,0.134-5.075,0.009-7.593,0.225
	c-0.561,0.048-1.227,0.158-1.88,0.185c-0.007-0.018-0.016-0.035-0.022-0.053c1.981-0.365,3.951-0.83,5.94-1.111
	c0.419-0.061,0.361-0.667-0.062-0.645c-2.166,0.125-4.322,0.324-6.486,0.35c0.148-0.095,0.296-0.189,0.442-0.287
	c1.422,0.138,3.069-0.244,4.336-0.386C141.916,58.279,144.157,57.954,146.376,58.055z M155.333,51.433
	c1.818-1.193,3.662-2.345,5.678-3.191c0.272-0.114,0.116-0.526-0.165-0.427c-0.792,0.275-1.561,0.6-2.324,0.938
	c0.775-0.542,1.529-1.05,2.261-1.483c2.019-1.195,4.267-2.552,6.673-2.695c1.906-0.113,4.878-0.181,6.376,1.298
	c-1.225,0.877-2.427,1.636-3.439,2.251c-0.164,0.098-0.331,0.2-0.499,0.305c0.22-0.317,0.398-0.658,0.519-1.027
	c0.217-0.672-0.782-1.154-1.027-0.469c-0.491,1.371-1.893,2.172-3.194,2.858c0.109-0.073,0.216-0.144,0.324-0.217
	c0.452-0.308-0.043-0.983-0.496-0.679c-1.555,1.041-3.174,1.94-4.893,2.691c-0.756,0.33-1.522,0.641-2.302,0.919
	c0.448-0.283,0.897-0.56,1.357-0.804c0.792-0.425,1.544-0.917,2.292-1.412c0.021-0.004,0.043-0.011,0.063-0.017
	c0.13-0.025,0.215-0.102,0.26-0.195c1.103-0.735,2.207-1.463,3.424-1.986c0.281-0.123,0.121-0.548-0.17-0.438
	c-2.123,0.796-4.08,2.054-6.234,2.758c-0.313,0.103-0.618,0.216-0.924,0.334c-0.46,0.089-0.921,0.183-1.359,0.329
	c-0.862,0.293-1.76,0.478-2.661,0.648C155.026,51.628,155.18,51.532,155.333,51.433z M148.541,39.16
	c-0.287,1.722-0.113,2.538-0.375,4.205c-0.096,0.621-0.223,1.235-0.359,1.847c-0.58,0.413-1.167,0.819-1.757,1.222
	c0.545-0.667,1.061-1.356,1.514-2.059c0.438-0.68-0.352-1.797-1.08-1.135c-0.467,0.422-0.955,0.847-1.442,1.281
	c-0.013-0.183-0.025-0.361-0.04-0.542c0.815-1.356,1.482-2.799,2.636-3.937c0.463-0.454-0.322-1.086-0.779-0.633
	c-0.414,0.406-0.818,0.828-1.218,1.258c0.715-1.207,1.408-2.423,2.259-3.547c0.226-0.297,0.23-0.642-0.02-0.366
	c-0.654,0.73-0.37,1.483-1.513,2.227c0,0,0,0,0-0.002c0-0.409-0.932-0.719-1.198-0.351c-0.042,0.058-0.3,0.116-0.34,0.171
	c-0.007-0.163-0.118-0.325-0.121-0.49c1.291-1.554,1.843-3.717,3.613-4.824c0.422-0.266,0.004-1.007-0.447-0.771
	c-1.314,0.694-2.232,1.799-3.152,2.89c0.04-0.355,0.085-0.712,0.146-1.067c0.033-0.175,0.063-0.352,0.098-0.529
	c0.237-0.545,0.455-0.977,0.879-1.472c0.559-0.647,1.096-1.279,1.736-1.854c0.281-0.254-0.032-0.724-0.357-0.488
	c-0.505,0.36-1.014,0.7-1.512,1.057c0.272-0.801,0.591-1.58,0.944-2.349c0.272-0.106,0.365-0.385,0.29-0.607
	c0.349-0.7,0.728-1.386,1.139-2.055c0.332,1.25,0.851,2.499,0.9,3.802C149.102,33.09,149.041,36.141,148.541,39.16z M155.583,37.89
	c0.03-0.079,0.062-0.16,0.093-0.24c0.016,0.031,0.032,0.061,0.051,0.089C155.678,37.789,155.629,37.838,155.583,37.89z
	 M165.005,23.127c-1.044,1.2-2.347,2.258-3.588,3.19C162.479,25.164,163.707,24.118,165.005,23.127z M165.98,34.332
	c-0.342,0.31-0.69,0.617-1.043,0.912c0.047-0.052,0.093-0.103,0.139-0.155c0.198-0.231-0.17-0.534-0.366-0.298
	c-0.575,0.684-1.179,1.344-1.794,1.992c-0.376,0.255-0.76,0.498-1.152,0.728c1.365-1.955,2.683-3.942,4.043-5.907
	c0.193-0.28-0.218-0.617-0.412-0.336c-0.295,0.426-0.589,0.847-0.886,1.267c-0.049-0.142-0.243-0.231-0.351-0.076
	c-1.148,1.648-2.407,3.293-3.83,4.722c-0.585,0.588-1.146,1.198-1.703,1.809c-0.083,0.034-0.161,0.067-0.244,0.097
	c0.263-0.452,0.525-0.9,0.811-1.339c0.09-0.135,0.179-0.27,0.268-0.406c0.982-1.287,1.923-2.608,3.017-3.823
	c1.563-1.735,3.247-3.346,5.056-4.835c0.203-0.168-0.025-0.492-0.243-0.335c-0.844,0.614-1.684,1.249-2.5,1.911
	c0.351-0.357,0.712-0.7,1.085-1.025c0.257-0.218-0.036-0.642-0.313-0.429c0.921-0.786,1.863-1.538,2.87-2.182
	c0.34-0.218-0.024-0.706-0.366-0.498c-0.606,0.364-1.196,0.768-1.776,1.192c0.005-0.206-0.188-0.411-0.415-0.402
	c1.221-1.283,2.529-2.481,4.029-3.464c0.41-0.271-0.031-0.861-0.444-0.608c-1.245,0.758-2.431,1.657-3.558,2.625
	c-0.126-0.3-0.59-0.479-0.912-0.176c-0.068,0.063-0.138,0.126-0.206,0.192c0.298-0.296,0.6-0.589,0.901-0.881
	c0.109-0.107,0.146-0.233,0.136-0.356c0.21-0.185,0.418-0.371,0.627-0.559c0.579-0.523,1.029-1.59,1.798-1.83
	c0.386-0.12,0.155-0.652-0.217-0.563c-0.585,0.139-1.011,0.633-1.411,1.103c-0.021-0.122-0.101-0.233-0.208-0.31
	c1.601-1.149,3.244-2.243,4.764-3.377c-0.082,0.142-0.169,0.28-0.253,0.421c-0.369,0.641,0.282,1.147,0.866,1.05
	c-0.16,0.196-0.241,0.46-0.16,0.766C172.977,25.993,169.609,31.031,165.98,34.332z" class="color c1"/>
</svg>