<svg version="1.1" id="图层_1" x="0px" y="0px" width="169.535px" height="163.719px" viewBox="0 0 169.535 163.719" enable-background="new 0 0 169.535 163.719" xml:space="preserve" xmlns="http://www.w3.org/2000/svg" xmlns:xlink="http://www.w3.org/1999/xlink" xmlns:xml="http://www.w3.org/XML/1998/namespace">
  <path fill="#BC9030" d="M12.531,93.293c1.172,0.172,1.602,0.916,1.229,2.289c-0.114,0.4-0.342,0.973-0.6,1.775
	c-0.373,0.801-0.572,1.371-0.63,1.658c-0.887-0.4-1.145-1.316-0.802-2.662C12.243,94.122,12.531,93.093,12.531,93.293L12.531,93.293
	z M14.219,109.491c-0.371-0.975-1.602-2.061-3.72-3.235c-1.888-1.028-2.805-2.374-2.805-4.063c0.656,0.173,1.718,1.173,3.234,2.976
	c1.231,1.545,2.347,1.889,3.29,1.087c-1.658-2.087-2.489-3.435-2.489-4.063c2.489-0.429,4.007-2.575,4.578-6.526
	c0.6-3.719,0.172-6.666-1.315-8.813c-2.29,0.486-3.75,2.061-4.379,4.838c-0.486,1.773-0.658,4.721-0.457,8.898
	c-5.523-2.632-7.986-4.008-7.327-4.064c-0.914,3.264-0.056,6.411,2.662,9.56C8.182,109.175,11.07,110.32,14.219,109.491
	L14.219,109.491z M14.219,50.454c0.801,0.602,0.744,1.402-0.2,2.461c-1.775,1.975-2.519,2.805-2.289,2.375
	C13.104,56.205,13.903,54.631,14.219,50.454L14.219,50.454z M8.466,64.19c0-0.516-0.6-1.975-1.828-4.379
	c-0.889-1.859-0.803-3.348,0.257-4.521c0.456,0.486,0.742,1.803,0.887,3.979c0.113,1.917,0.628,3.061,1.485,3.32v-4.836
	c5.469-0.803,9.018-4.865,10.562-12.164c-2.719-0.057-4.949,0.973-6.581,3.092c-0.486,0.543-1.117,1.488-1.947,2.918
	c-0.83,1.289-1.518,2.232-2.033,2.92c0.116-1.06-0.085-2.176-0.627-3.377c-0.574-1.316-0.889-2.404-0.945-3.177
	c-1.43,0.257-2.519,1.202-3.261,2.919c-0.717,1.573-1.062,3.434-1.002,5.552c0.057,2.117,0.515,3.92,1.345,5.38
	C5.721,63.417,6.951,64.19,8.466,64.19L8.466,64.19z M100.671,150.757c-1.517,0.684-3.862,1.315-7.039,1.857
	c-3.922,0.632-6.438,1.118-7.501,1.374c0.347,1.089,2.063,2.574,5.096,4.52c3.321,2.119,5.381,3.866,6.268,5.211
	c0.114-0.915,1.001-1.372,2.546-1.517c1.775-0.112,2.804-0.431,3.092-0.945c-1.346-0.973-3.777-2.173-7.298-3.606
	c-3.434-1.372-5.837-2.573-7.209-3.662C95.348,153.56,99.383,152.472,100.671,150.757L100.671,150.757z M133.896,129.694
	c-0.117,0.516-0.603,1.658-1.487,3.434c-0.658,1.344-0.975,2.634-0.975,3.863c2.117-0.915,3.721-2.747,4.838-5.466
	c1.142-2.919,1.142-5.693,0-8.271c-3.292,0.06-5.753,1.977-7.415,5.809c-1.486,3.748-1.43,6.957,0.201,9.533
	c-0.259,0.171-1.258,0.37-3.089,0.601c-1.288,0.171-1.89,0.801-1.775,1.857c1.002,0.202,2.774,0.172,5.296-0.087
	c2.173-0.226,3.375-0.197,3.632,0.087c-1.316,1.545-3.091,2.148-5.294,1.834c-2.002-0.261-3.777-1.175-5.294-2.634
	c1.001-1.229,1.688-2.635,2.118-4.121c0.572-1.946,0.431-3.52-0.458-4.78c-3.434,0.061-6.351,1.747-8.697,5.037
	c-2.351,3.29-2.722,6.209-1.06,8.729l2.46-5.467c1.23-2.033,2.574-2.632,4.064-1.861c-2.032,5.839-3.379,8.271-4.064,7.328
	c0.544-0.486,1.459-1.174,2.833-2.031c1.288-0.832,2.231-1.519,2.804-2.034c0.288,2.063,1.404,3.492,3.348,4.324
	c1.69,0.712,3.778,0.856,6.183,0.426c2.347-0.342,4.348-1.085,6.065-2.26c1.861-1.259,2.892-2.632,3.006-4.177
	c-0.772-0.918-2.776-1.461-6.096-1.576c-3.289-0.172-5.039-0.429-5.18-0.8c0.199-0.285,0.63-1.776,1.229-4.378
	C131.49,130.724,132.436,129.75,133.896,129.694L133.896,129.694z M143.625,127.318c1.488-1.43,2.575-3.863,3.146-7.326
	c0.716-3.862-0.086-6.267-2.375-7.24c-2.287,0.373-3.893,2.72-4.751,7.07c-0.944,4.404-0.142,7.153,2.379,8.27
	c0.425-0.744,0.513-2.434,0.34-5.008c-0.17-2.003,0.487-3.291,2.032-3.893C144.341,125.03,144.053,127.689,143.625,127.318
	L143.625,127.318z M35.969,129.694c1.343,0.169,2.289,1.171,2.719,2.977c0.801,2.633,1.229,4.092,1.345,4.32
	c-0.945,0.716-1.718-0.027-2.377-2.176C36.598,131.497,36.026,129.807,35.969,129.694L35.969,129.694z M25.495,119.191
	c1.803,0,2.432,1.976,1.831,5.924c-0.2,1.372-0.457,2.119-0.688,2.119c-0.313,0-0.43-1.062-0.37-3.205
	c0-0.458-0.202-1.202-0.602-2.205C25.322,121.022,25.236,120.134,25.495,119.191L25.495,119.191z M46.555,141.053
	c-1.172,1.061-3.291,1.545-6.352,1.517c-3.091,0-4.234-0.771-3.434-2.316c0.83,0.542,2.317,0.858,4.492,1.002
	c2.346,0.056,3.807-0.289,4.407-1.002c-0.286-0.287-1.171-0.602-2.634-0.974c-1.171-0.343-1.917-0.831-2.201-1.489
	c1.059-3.231,0.912-6.378-0.458-9.415c-1.405-3.346-3.663-5.063-6.784-5.122c-0.685,0.918-0.685,4.18,0,9.676
	c-3.03,0.083-5.122-0.031-6.266-0.259c-1.917-0.4-3.062-1.374-3.436-2.977c0.717,0.573,2.034,1.03,3.892,1.315
	c2.091,0.403,3.492,0.771,4.151,1.145c0.172-1.175-0.345-2.002-1.518-2.46c-1.46-0.542-2.289-1.061-2.46-1.603
	c2.289-1.347,2.946-4.207,2.029-8.528c-0.943-4.322-2.717-6.58-5.293-6.812c-2.06,1.231-2.659,3.722-1.858,7.5
	c1.172,5.093,1.801,7.438,1.858,7.066c-1.83-0.716-4.521-0.974-8.098-0.831c-0.259,3.893,2.003,6.641,6.781,8.215
	c4.694,1.603,8.387,1.004,11.017-1.772c-0.058,0.684,0.518,1.602,1.747,2.832c1.031,1.001,1.202,1.688,0.63,2.029
	c-2.834,0-4.607,0.086-5.38,0.259c-1.72,0.428-2.575,1.431-2.663,3.004c0.974,2.776,4.379,4.35,10.244,4.75
	c2.463,0.202,4.409-0.086,5.812-0.771C46.383,144.145,46.986,142.8,46.555,141.053L46.555,141.053z M151.693,115.928
	c0-0.828-0.344-2.432-1.03-4.835c-0.431-1.46-0.084-2.833,1.03-4.065c0.602,0.373,0.859,1.605,0.744,3.721
	c-0.143,2.09,0.145,3.291,0.859,3.605c0.944-2.89,1.345-5.549,1.229-7.954c-0.172-3.147-1.401-5.122-3.69-5.81
	c-2.291,1.488-3.319,4.236-3.007,8.271c0.288,3.633,1.289,6.494,3.007,8.726c-0.716,0.058-1.519,0.545-2.375,1.432
	c-0.858,0.945-0.858,1.518,0,1.776c4.376-2.489,6.811-3.521,7.297-3.208c-0.486,1.232-1.573,2.175-3.32,2.747
	c-0.485,0.174-1.287,0.402-2.377,0.632c-1.144,0.313-1.943,0.516-2.43,0.687c2.831,2.146,5.951,1.975,9.271-0.516
	c3.063-2.261,4.808-5.008,5.294-8.386c-1.717-0.8-3.548-0.685-5.552,0.373c-0.513,0.229-1.401,0.715-2.574,1.487
	C153.096,115.241,152.295,115.7,151.693,115.928L151.693,115.928z M150.061,33.456c-0.198-0.314-0.999-2.461-2.43-6.438
	C149.492,27.76,150.264,29.907,150.061,33.456L150.061,33.456z M109.57,5.955c-0.457-0.429-1.574-0.915-3.347-1.431
	c-1.575-0.543-2.606-1.116-3.092-1.773c1.944-0.059,3.692,0.486,5.208,1.602c0.458,0.372,1.087,0.889,1.831,1.66
	c0.859,0.715,1.458,1.23,1.891,1.574c0.343-0.058-1.318-0.085-4.953-0.085c-1.946,0-3.003,0.571-3.177,1.688
	c2.061,1.487,6.212,2.203,12.507,2.203c5.84,0,9.472,0.858,10.961,2.634c-0.716,0.143-2.062-0.086-3.978-0.602
	c-1.346-0.344-2.433-0.143-3.292,0.602c1.603,2.117,4.063,3.805,7.409,5.036c3.694,1.344,6.612,1.288,8.732-0.172
	c-0.088,0.915,0.6,1.918,2.146,2.919c1.344,0.857,1.715,1.518,1.144,1.918c-2.606-1.346-4.722-1.861-6.439-1.575
	c0.802,2.747,2.689,4.98,5.639,6.611c2.919,1.63,5.895,2.146,8.871,1.487c-0.086,1.431,0.343,2.604,1.347,3.521
	c0.227,0.314,0.685,0.657,1.315,1.087c0.657,0.459,1.114,0.801,1.4,1.06c1.061-3.206,0.802-6.325-0.857-9.444
	c-1.545-2.947-3.664-4.95-6.439-6.01c-0.172,1.545,0.116,3.404,0.858,5.639c0.601,1.717,0.571,2.804-0.085,3.291
	c-0.372-0.43-1.545-0.974-3.52-1.689c-1.604-0.571-2.547-1.402-2.891-2.375c0.771-0.058,1.946,0.457,3.519,1.488
	c1.375,0.887,2.318,0.943,2.892,0.2c-0.199-0.259-0.945-0.744-2.205-1.431c-0.972-0.545-1.602-1.146-1.83-1.859
	c0.829-3.035,0.145-5.896-2.119-8.559c-2.174-2.518-4.978-3.977-8.383-4.377c0.085,1.287,0.687,2.574,1.859,3.891
	c1.23,1.375,1.975,2.547,2.204,3.407c-0.058-0.058-1.46-0.144-4.235-0.259c-2.118-0.113-3.406-0.857-3.893-2.203
	c4.837-0.285,7.012,0,6.553,0.889c-0.43-0.432-1.287-0.803-2.575-1.146c-1.174-0.429-1.945-0.857-2.374-1.344
	c0.37-2.634-0.946-5.01-3.979-7.127c-2.749-2.002-6.011-3.118-9.757-3.348c0-0.716,1.344,0.916,4.063,4.865
	c-1.059-0.172-4.663-2.146-10.789-5.838c-4.694-2.834-8.928-3.32-12.677-1.517C103.617,4.553,108.483,6.155,109.57,5.955
	L109.57,5.955z M23.033,30.25c2.575,0.602,5.323-0.028,8.185-1.831c2.689-1.718,4.551-3.778,5.552-6.268
	c-1.116-0.343-2.576-0.172-4.405,0.515c-1.577,0.66-2.549,0.744-2.807,0.287c0.688-2.405,1.116-3.777,1.229-4.063
	c0.632-1.373,1.577-2.147,2.805-2.374c0.116-0.316-0.542,0.713-2.03,3.004c-0.858,1.344-1,2.231-0.427,2.632
	c0.999-1.003,4.175-2.06,9.528-3.177c4.807-0.943,7.812-2.604,9.042-4.949c-0.746-0.688-2.005-0.802-3.751-0.345
	c-1.658,0.43-2.803,0.259-3.461-0.429c0.429-0.172,1.145-1.088,2.229-2.748c0.976-1.516,2.121-2.49,3.437-2.918
	c-0.315,0.744-0.974,1.516-2.06,2.403c-1.061,0.945-1.719,1.774-2.003,2.46c1.172-0.686,4.892-1.058,11.188-1.058
	c5.581,0,9.129-1.002,10.673-2.976c-0.598-0.488-1.976-0.716-4.148-0.716c-2.117,0-3.433-0.343-3.979-0.974
	c1.289,0.373,2.634-0.371,3.979-2.117c1.174-1.574,2.548-1.946,4.148-1.059c-2.202,0.343-3.775,1.173-4.864,2.403
	c6.696-1.23,11.275-3.147,13.765-5.666c-3.435-0.63-7.27-0.172-11.561,1.402c-4.405,1.66-6.755,3.635-7.068,5.896
	c-0.802-0.115-2.117,0.257-3.921,1.059C50.82,9.36,49.962,9.56,49.705,9.189c3.69-3.263,5.579-5.181,5.75-5.638
	c-4.12,0.4-7.523,1.517-10.217,3.348c-3.119,2.175-4.291,4.838-3.519,7.928c-1.057-0.145-2.06,0.057-3.032,0.715
	c-0.974,0.631-1.891,0.975-2.719,0.975c1.287-1.748,2.404-3.691,3.262-5.725c-3.577,0.2-6.583,1.917-8.985,5.121
	c-2.463,3.149-2.977,6.039-1.519,8.615c-2.401,1.258-3.747,2.317-4.034,3.262c0.774,0.114,1.946-0.4,3.55-1.517
	c1.345-0.859,2.319-0.888,2.893-0.085c-2.607,1.287-4.754,2.116-6.442,2.375c0-0.259-0.114-0.573-0.341-0.859
	c-0.317-0.314-0.461-0.515-0.461-0.687c1.06-3.205,1.604-5.065,1.604-5.667c-2.52-0.342-4.607,1.002-6.27,4.063
	c-1.515,3.006-2.116,6.497-1.859,10.504c1.288-0.315,2.405-1.117,3.377-2.376C22.604,30.995,23.376,29.907,23.033,30.25
	L23.033,30.25z M82.099,153.131c-1.603,0.284-3.979,0.056-7.184-0.687c-2.719-0.657-4.665-0.687-5.695-0.087
	c0.859,0.314,2.634,0.717,5.295,1.116c2.462,0.371,4.178,0.802,5.179,1.346c-7.354,2.747-12.189,5.178-14.535,7.21
	c1.116-0.171,2.202-0.085,3.348,0.286c1.315,0.373,2.318,0.602,3.092,0.602c-0.145,0.112,3.66-2.605,11.359-8.098
	C81.354,154.875,81.095,154.302,82.099,153.131L82.099,153.131z M107.996,146.692c0.715,0.773,2.26,1.229,4.665,1.403
	c2.632,0.199,4.321,0.544,5.009,1.059c-0.631,0.115-0.631,0.657,0,1.604c-1.86,0-3.98-0.487-6.239-1.433
	c-2.72-1.03-4.635-1.66-5.812-1.83c0,1.743,0.946,3.202,2.921,4.319c1.744,0.916,3.92,1.487,6.496,1.66
	c2.575,0.144,4.893-0.173,6.897-0.859c2.146-0.827,3.433-1.975,3.863-3.461c-1.402-1.633-4.064-2.748-7.929-3.234
	C114.091,145.432,110.83,145.689,107.996,146.692L107.996,146.692z M97.494,149.154c4.007-0.63,7.182-1.974,9.529-4.035
	c2.832-2.434,3.663-5.379,2.547-8.899c-4.121,0.688-7.671,2.229-10.675,4.576c-3.518,2.691-4.55,5.497-3.062,8.358
	c-0.058,0.054,1.545-1.659,4.751-5.209c1.976-2.232,3.662-3.176,5.034-2.892c0.173,1.231-0.885,2.576-3.203,3.979
	C99.697,146.779,98.035,148.151,97.494,149.154L97.494,149.154z M73.169,149.154c1.317-0.115,1.831-0.659,1.688-1.659
	c-0.771-3.292-2.719-5.982-5.922-8.015c-3.033-1.947-6.239-2.774-9.501-2.489c-0.058,3.718,1.344,6.694,4.205,8.929
	c2.719,2.145,5.641,2.977,8.729,2.375c-0.571-0.429-1.573-1.029-2.975-1.889c-1.49-0.805-2.491-1.402-3.092-1.833
	c-2.118-1.514-2.776-2.975-1.945-4.319C68.648,143.258,71.598,146.234,73.169,149.154L73.169,149.154z M52.222,148.294
	c4.98,0.345,8.214-0.458,9.675-2.375c-3.893-1.116-5.782-1.401-5.668-0.801c0.688-3.434-0.114-6.497-2.262-9.271
	c-2.29-2.949-5.352-4.435-9.098-4.495c-0.402,6.953,2.545,11.507,8.9,13.767c-0.117-1.202-1.09-2.691-2.894-4.608
	c-1.571-1.66-2.261-2.892-1.944-3.52c1.059-0.058,2.204,0.915,3.434,2.921c0.288,0.4,0.829,1.313,1.602,2.658
	c0.604,1.172,1.059,2.003,1.488,2.549c0.488-0.231-1.803,0.199-6.81,1.287c-2.574,0.601-4.092,1.775-4.549,3.575
	c1.63,2.719,5.349,3.894,11.1,3.407c5.869-0.458,8.93-2.433,9.16-5.894c0.114,0-2.003,0.656-6.353,2.029
	C55.485,150.326,53.539,149.923,52.222,148.294L52.222,148.294z M137.072,132.154c0.886,0,2.573-0.458,5.037-1.317
	c1.973-0.714,3.289-0.801,3.891-0.285c-1.487,1.976-4.721,2.748-9.729,2.378c2.198,2.889,5.522,3.434,10.044,1.686
	c4.491-1.717,6.81-4.149,6.981-7.297c-2.892-1.058-5.982-1.029-9.358,0.174C140.906,128.547,138.615,130.123,137.072,132.154
	L137.072,132.154z M14.219,116.817c3.52,2.003,5.638,3.062,6.439,3.175c-1.116,1.116-2.491,1.203-4.063,0.26
	C15.051,119.306,14.277,118.161,14.219,116.817L14.219,116.817z M18.454,115.928c-0.314,0.086-0.399,0.086-0.287,0
	c0,0.086,0-0.143,0-0.627c-1.63-3.207-1.344-5.983,0.889-8.273c0.17,1.375,0.087,2.805-0.287,4.324
	c-0.428,1.687-0.657,3.031-0.602,3.949C18.255,115.5,18.341,115.7,18.454,115.928c2.346-0.543,3.463-3.147,3.348-7.84
	c-0.142-4.693-1.343-7.184-3.635-7.498c-2.001,0.944-3.033,3.146-3.088,6.525c-0.116,2.918,0.4,5.607,1.516,8.014
	c-0.486-0.146-1.144-0.518-2.033-1.061c-1.086-0.687-1.801-1.145-2.231-1.317c-1.801-0.942-3.348-0.942-4.636,0
	c1.175,7.412,6.009,10.933,14.509,10.502C22.147,122.769,20.916,120.334,18.454,115.928L18.454,115.928z M155.758,93.293
	c1.058,0.172,1.746,0.973,2.032,2.46c0.054,0.43,0.113,1.089,0.171,2.003c0.058,0.973,0.116,1.633,0.172,2.061
	c-1.03-0.857-1.688-1.773-1.832-2.832C155.872,94.524,155.7,93.293,155.758,93.293L155.758,93.293z M158.133,101.392
	c1.657-1.946,2.088-4.694,1.344-8.299c-0.829-3.577-2.345-5.637-4.576-6.239c-1.719,2.09-2.233,5.208-1.519,9.273
	c0.688,4.148,2.29,6.438,4.751,6.838c-0.688,0.2-1.346,0.83-1.918,1.974c-0.656,1.116-0.543,1.806,0.344,2.089
	c0.456-0.17,1.46-1.086,3.006-2.717c1.229-1.374,2.087-1.774,2.631-1.346c-0.401,1.287-2.547,2.948-6.438,4.952
	c-0.058,0.772,0.229,1.545,0.801,2.374c7.269-2.29,10.788-6.868,10.504-13.766c-1.862-0.172-3.436,0.516-4.867,2.061
	C160.68,100.276,159.306,101.221,158.133,101.392L158.133,101.392z M161.396,86.854c-0.06-0.258-0.774-1.631-2.206-4.149
	c-0.915-1.688-1.029-3.005-0.258-3.978c0.487,0.545,0.975,1.688,1.49,3.463c0.485,1.488,1.06,2.547,1.772,3.063
	c-0.059-7.412-2.174-11.477-6.438-12.162c-1.345,3.348-0.771,6.926,1.687,10.759c2.749,4.292,4.064,7.183,3.952,8.612
	c2.06-3.376,3.69-5.264,4.863-5.607c-0.172,1.402-1.114,2.805-2.718,4.15c-1.719,1.457-2.691,2.775-2.92,3.977
	c6.152-0.801,9.129-5.637,8.9-14.565c-1.889,0-3.465,0.83-4.753,2.548C163.056,85.195,161.939,86.482,161.396,86.854L161.396,86.854
	z M158.133,64.962c0.828,0.372,1.657,1.315,2.489,2.833c0.746,1.604,1.546,2.547,2.376,2.834c-0.63,0.514-1.602,0.057-2.834-1.403
	C158.933,67.795,158.275,66.393,158.133,64.962L158.133,64.962z M154.069,59.354c-0.315,4.006,0.944,7.412,3.807,10.301
	c3.177,3.178,4.863,5.667,5.122,7.498c-0.144,0.315,0.229-0.857,1.03-3.461c0.429-1.317,1.145-2.063,2.231-2.176
	c0,1.459-0.599,2.919-1.772,4.32c-1.348,1.547-2.089,2.775-2.292,3.692c1.231,0.399,2.49,0,3.72-1.231
	c1.118-1.115,1.976-2.689,2.633-4.75c1.546-4.865,1.03-8.271-1.485-10.131c-0.603,0.573-1.947,2.719-4.064,6.439
	c-0.314-0.658-0.744-1.803-1.347-3.463c-0.571-1.516-1.059-2.689-1.487-3.434C158.875,60.555,156.844,59.354,154.069,59.354
	L154.069,59.354z M10.156,78.727c1.402,0.545,1.601,1.746,0.629,3.635c-0.859,1.574-1.859,2.805-3.091,3.69
	c-0.313,0.231-0.058-0.458,0.771-2.116C9.698,81.589,10.271,79.872,10.156,78.727L10.156,78.727z M10.929,64.19
	c1.031,1.115,0.915,2.404-0.315,3.892c-1.974,2.29-2.919,3.435-2.919,3.435c-0.487-0.659-0.171-1.746,0.945-3.349
	C10.07,66.221,10.843,64.905,10.929,64.19L10.929,64.19z M9.267,94.981c0-1.088-1.085-2.49-3.261-4.148
	c-1.803-1.488-2.347-2.807-1.572-3.979c0.569,0.402,1.343,1.402,2.289,3.006c0.801,1.4,1.687,2.287,2.544,2.602
	c-0.055,0.488-0.6-1.143-1.572-4.834c2.805-0.315,4.751-2.231,5.781-5.637c0.915-2.635,1.145-5.61,0.743-8.9
	c-1.773-0.172-3.176,0.516-4.148,2.031c-1.488,2.347-2.262,3.577-2.376,3.605c-1.888-2.289-2.891-3.52-3.034-3.691
	c-1.028-1.746-1.145-3.234-0.227-4.406c1.229,3.947,2.318,6.095,3.261,6.523c0.286-2.23,1.86-4.979,4.636-8.298
	c2.549-2.978,3.691-6.153,3.462-9.501c-2.803-0.114-4.92,1.146-6.324,3.777c-2.488,4.75-3.605,6.982-3.376,6.725
	c-0.516-3.32-1.857-5.466-4.034-6.439c-1.832,2.861-2.148,6.326-0.917,10.275c1.232,4.006,3.435,6.266,6.554,6.724
	c-0.201,0.286-0.4,1.174-0.63,2.634c-0.17,1.115-0.484,1.858-0.973,2.203c-1.432-2.405-2.061-3.52-1.946-3.35
	c-0.857-1.116-2.088-1.602-3.69-1.487c-0.858,3.318-0.516,6.524,1.145,9.53C3.345,93.093,5.893,94.782,9.267,94.981L9.267,94.981z
	 M155.758,53.688c0-1.288-0.573-2.09-1.688-2.461c1.603-0.287,3.263,0.828,4.949,3.377c0.603,0.801,0.659,1.23,0.172,1.23
	C158.674,55.834,157.533,55.119,155.758,53.688L155.758,53.688z M150.061,45.588c-0.143,3.578,1.461,6.697,4.84,9.244
	c3.806,3.004,5.979,5.607,6.496,7.756c0.112-0.516,0.284-1.804,0.543-3.863c0.171-1.688,0.543-2.834,1.059-3.436
	c0.6,1.174,0.629,2.52,0.085,4.064c-1.058,2.69-1.632,4.32-1.687,4.836c3.004-0.486,4.576-3.033,4.691-7.755
	c0.057-4.636-1.229-7.47-3.893-8.471c-0.486,0.544-0.858,1.661-1.143,3.349c-0.345,1.602-0.802,2.661-1.317,3.205
	C157.274,49.022,154.014,46.077,150.061,45.588L150.061,45.588z M156.559,39.953c1.001,0.056,1.546,0.857,1.689,2.402
	c0,0.315-0.057,1.03-0.115,2.005c-0.056,0.943-0.056,1.631,0,2.03C156.901,45.274,156.358,43.127,156.559,39.953L156.559,39.953z
	 M154.069,39.953c-4.207-5.466-7.957-7.613-11.275-6.497c0.916,2.918,2.631,5.41,5.206,7.469c2.521,1.946,5.125,2.947,7.758,3.092
	c-0.486,1.229-0.259,2.202,0.601,3.004c0.916,0.744,1.23,1.631,1.001,2.633c2.861-1.173,3.893-4.064,2.977-8.613
	c-0.916-4.551-2.776-7.098-5.436-7.584c-0.659,1.173-0.859,2.918-0.546,5.266c0.372,2.118,0.259,3.32-0.285,3.634
	c-0.115-0.2-1.289-0.973-3.519-2.317c-1.518-1.002-1.947-1.832-1.318-2.574C153.468,37.777,155.071,38.577,154.069,39.953
	L154.069,39.953z M12.531,39.953c0.601,0.285,0.688,1.229,0.257,2.831c-0.486,2.004-0.571,3.435-0.257,4.408
	C11.101,45.96,11.101,43.557,12.531,39.953L12.531,39.953z M11.729,49.653c0.201-0.344,0.457-0.803,0.888-1.316
	c0.486-0.602,0.773-1.029,0.858-1.316c0.686-1.117,0.915-2.404,0.743-3.893c2.634,0.744,5.438-0.199,8.355-2.918
	c2.893-2.575,4.122-5.122,3.694-7.584c-2.462,0.545-4.724,1.574-6.756,3.119c-2.315,1.66-3.29,3.348-2.918,5.01
	c3.748-1.404,5.378-2.491,4.836-3.291c0.229-0.574-1.889,1.057-6.438,4.892c0.37-0.485,0.401-1.688,0.087-3.634
	c-0.286-2.348-0.316-4.093-0.087-5.266c-2.775,0.201-4.607,2.604-5.524,7.125C8.553,45.016,9.326,48.079,11.729,49.653
	L11.729,49.653z" class="color c1"/>
</svg>