<svg version="1.1" id="图层_1" x="0px" y="0px" width="129.453px" height="142.234px" viewBox="0 0 129.453 142.234" enable-background="new 0 0 129.453 142.234" xml:space="preserve" xmlns="http://www.w3.org/2000/svg" xmlns:xlink="http://www.w3.org/1999/xlink" xmlns:xml="http://www.w3.org/XML/1998/namespace">
  <path fill="#EDE8BE" d="M128.333,66.837c-0.379-0.582-0.998-0.998-1.553-1.396c-0.986-0.722-1.902-1.967-2.654-2.937
	c-1.185-1.522-2.678-3.262-4.392-4.203c-0.63-0.346-1.312-0.282-1.989-0.178c-0.222,0.035-1.861,0.717-1.787,0.693
	c-0.69,0.238-1.392,0.311-2.078,0.594c-1.342,0.557-3.303,2.074-3.965,3.389c-0.781,1.552-0.797,2.451,0.465,3.832
	c0.451,0.494,1.123,0.752,1.729,0.998c1.107,0.451,2.375-0.155,3.379,0.629c0.686,0.535,1.445,1.447,2.201,1.802
	c0.516,0.244,1.005,0.434,1.48,0.637c-0.254,1.83-0.898,3.674-1.619,5.369c-1.098,2.59-3.438,5.266-5.663,6.979
	c-1.884,1.447-4.582,1.711-6.501,3.203c-0.485,0.381-0.969,0.767-1.424,1.168c-0.023-0.115-0.049-0.227-0.072-0.342
	c-0.491-2.221-1.102-3.766-2.816-5.33c-1.363-1.236-3.21-2.063-4.902-2.736c-0.635-0.254-1.297-0.401-1.965-0.479
	c-0.009-0.08-0.009-0.162-0.018-0.242c-0.118-1.119-0.311-2.701-0.798-3.74c-0.744-1.582-1.937-2.979-2.954-4.395
	c-0.43-0.599-0.887-1.17-1.354-1.736c-0.504-0.608-1.308-0.916-1.838-1.526c-0.393-0.449-1.119-0.673-1.637-0.929
	c-0.402-0.203-0.686-0.694-1.111-0.842c-1.736-0.609-2.83-0.9-4.69-0.811c-0.073,0.004-0.147,0.01-0.222,0.014
	c1.273,1.43,2.543,2.867,3.711,4.379c1.851,2.4,3.603,4.881,5.291,7.395c1.037,1.539,1.89,3.201,2.8,4.82
	c1.374,2.445,1.251,2.648-0.833,4.711c-0.852,0.842-1.744,1.547-2.725,2.101c-0.17,0-0.348,0.024-0.531,0.129
	c-0.286,0.155-0.592,0.303-0.896,0.453c-0.36,0.157-0.733,0.286-1.11,0.401c-0.129,0.031-0.254,0.068-0.388,0.095
	c-0.12,0.022-0.235,0.079-0.354,0.118c-1.088,0.287-2.207,0.504-3.262,0.836c-0.679-0.139-1.381,0.398-2.052,0.482
	c-3.295,0.41-6.573,1.193-9.876,1.256c-2.385,0.043-4.825-0.695-7.174-1.34c-2.946-0.811-5.838-1.072-8.814-0.25
	c-1.075,0.297-2.204,0.404-3.307,0.609c-2.442,0.457-4.889,0.893-7.319,1.399c-0.705,0.148-1.02,0.689-0.761,1.441
	c0.435,1.258,0.882,2.51,1.297,3.774c0.309,0.943,0.629,1.894,0.844,2.859c0.321,1.465-0.272,2.703-1.206,3.768
	c-0.93,1.064-1.898,2.104-2.928,3.074c-1.775,1.666-2.026,3.961-2.556,6.113c-0.596,2.416-1.127,4.863-1.419,7.33
	c-0.155,1.303,0.006,2.768,0.464,3.992c1.64,4.396,3.324,8.781,5.156,13.099c4.872,1.82,9.868,3.281,14.96,4.194
	c1.399,0.25,2.804,0.473,4.207,0.672c2.416-0.703,4.817-1.451,7.235-2.146c-0.086-0.194-0.158-0.393-0.25-0.59
	c-0.531-1.11-0.802-2.348-1.291-3.488c-0.442-1.043-1.013-1.979-1.535-2.981c-0.452-0.855-1.153-1.637-1.666-2.467
	c1.504-3.086,2.242-6.504,1.161-9.853c-0.341-1.055-0.997-1.969-1.332-3.035c-0.022-0.075-0.04-0.153-0.059-0.231h-0.394
	c0.251-2.482,1.192-4.992,1.889-7.328c0.88-2.941,1.25-5.883,1.293-8.846c1.166-0.191,2.331-0.338,3.501-0.513
	c1.349-0.198,2.581-0.866,3.794-1.471c1.04-0.518,1.913-1.297,2.682-2.184c0.883,0.905,1.858,1.705,2.943,2.395
	c1.747,1.109,3.559,2.23,5.42,3.135c1.777,0.865,3.65,1.595,5.268,2.742c1.098,0.779,3.002,1.146,4.277,1.541
	c1.555,0.484,2.846,1.248,4.496,1.432c1.742,0.193,3.383,0.609,5.156,0.599h0.413c0.038,0.041,0.071,0.084,0.112,0.119
	c0.877,0.657,1.812,1.239,2.735,1.817c1.552,0.965,3.104,0.035,4.277-1.043c1.717-1.582,3.226-3.219,4.808-4.934
	c1.619-1.756,2.576-4.396,3.583-6.535c1.078-2.297,1.843-4.744,2.528-7.182c0.665-2.375,1.811-4.601,2.299-7.039
	c0.23-1.146,0.678-2.201,1.094-3.287c0.396-1.035,0.883-2.174,1.34-3.189c0.834-1.846,2.863-3.674,2.867-5.782
	C129.458,70.109,129.317,68.361,128.333,66.837z M11.925,36.785c0.592,2.6,2.786,3.228,4.806,1.502
	c1.789-1.533,3.913-2.301,6.204-2.883c3.736-0.949,7.26-0.203,10.774,0.828c1.526,0.444,2.778,1.373,3.655,2.819
	c0.932,1.533,2.147,2.894,3.078,4.427c1.376,2.266,2.165,4.668,1.822,7.44c-0.173,1.402-0.167,2.795-0.623,4.183
	c-0.518,1.565,0.019,3.018,0.984,4.328c0.312,0.426,0.642,0.897,0.748,1.396c0.15,0.688,0.068,1.256-0.969,1.295
	c-1.518,0.062-1.604,0.342-1.439,1.838c0.037,0.318-0.361,0.849-0.688,1.006c-0.632,0.302-0.918,0.568-0.667,1.322
	c0.089,0.275-0.227,0.984-0.412,1.004c-1.382,0.156-1.633,1.178-1.757,2.221c-0.215,1.757-1.304,2.337-2.91,1.521
	c-1.513-0.766-3.041-1.498-4.581-2.201c-1.097-0.498-1.727-0.129-2.103,1.014c-1.199,3.668,1.805,6.187,5.211,5.744
	c2.62-0.34,5.19-1.143,7.813-1.385c2.499-0.229,5.05-0.147,7.55,0.088c1.135,0.105,2.239,0.846,3.294,1.418
	c2.405,1.301,4.864,1.373,7.384,0.451c3.606-1.313,7.025-0.639,10.378,0.912c0.749,0.35,1.497,0.729,2.285,0.959
	c0.442,0.129,0.985,0.066,1.446-0.055c0.67-0.179,1.31-0.488,2.09-0.791c-0.18-0.679-0.324-1.394-0.561-2.08
	c-0.951-2.791-1.783-5.638-2.936-8.345c-1.348-3.166-2.991-6.217-5.254-8.844c-0.896-1.039-2.228-1.586-3.6-1.385
	c-2.944,0.432-5.873,0.996-8.794,1.58c-0.43,0.084-0.788,0.561-1.173,0.859c-0.389,0.299-0.729,0.692-1.161,0.889
	c-1.388,0.625-2.256,0.158-2.528-1.313c-0.098-0.535,0.109-1.188-0.754-1.325c-0.137-0.023-0.298-0.582-0.258-0.869
	c0.316-2.425,0.674-4.843,1.029-7.265c0.04-0.272,0.175-0.537,0.22-0.813c0.181-1.123,1.025-1.818,2.198-1.883
	c3.333-0.181,6.536,0.516,9.713,1.403c1.103,0.31,2.382,0.351,3.278,0.959c1.93,1.313,3.71,2.859,5.463,4.414
	c2.058,1.826,3.645,4.023,5.059,6.402c0.82,1.377,2.242,2.389,3.336,3.617c0.143,0.16,0.285,0.319,0.428,0.479
	c0.166-0.051,0.332-0.104,0.481-0.166c0.378-0.16,0.447-0.651,0.496-1.002c0.118-0.811,2.567-1.059,3.134-1.432
	c0.107-0.07,0.143-0.176,0.121-0.305c-0.176-1.08,0.514-1.408,1.377-1.722c0.08-0.026,0.148-0.098,0.145-0.186
	c-0.032-0.773-0.113-1.556-0.322-2.293c0.396-0.039,0.77-0.076,1.086-0.076c0.836-0.002,2.271,0.229,2.791-0.66
	c0.455-0.777-0.332-2.598-0.564-3.322c-0.235-0.729-1.479-2.979,0.439-3.215c0.508-0.063,0.829-0.119,1.195-0.483
	c0.982-0.982,0.992-2.468,1.369-3.705c0.189-0.623,0.117-1.345,0.059-2.004c1.195,0.161,2.428,0.254,3.648,0.241
	c0.427,0.22,0.863,0.412,1.32,0.554c0.123,0.037,0.17-0.146,0.051-0.191c-0.287-0.1-0.567-0.229-0.843-0.371
	c0.29-0.008,0.581-0.029,0.868-0.053c0.297,0.022,0.6,0.037,0.898,0.031c0.084-0.002,0.096-0.089,0.055-0.134
	c0.246-0.034,0.492-0.071,0.736-0.12c0.146-0.027,0.086-0.255-0.061-0.224c-0.277,0.06-0.559,0.104-0.84,0.146
	c0.014-0.103-0.045-0.218-0.175-0.226c-0.482-0.022-0.954-0.108-1.416-0.233c0.188-0.011,0.375-0.021,0.562-0.027
	c0.059-0.006,0.084-0.039,0.098-0.076c0.158-0.008,0.314-0.016,0.473-0.021c0.148-0.009,0.148-0.226,0-0.23
	c-0.053-0.004-0.104-0.006-0.154-0.008c0.026-0.057,0.023-0.127-0.021-0.178c-0.112-0.111-0.133-0.111-0.299-0.103c0,0,0,0-0.002,0
	c-0.18-0.059-0.33-0.213-0.451-0.397c0.005,0,0.012-0.002,0.019-0.002c0.354,0.209,0.579,0.403,1.019,0.282
	c0.067-0.02,0.041-0.12-0.027-0.104c-0.277,0.074-0.612-0.014-0.967-0.184c0.148-0.033,0.298-0.07,0.445-0.111
	c0.168-0.045,0.099-0.293-0.07-0.256c-0.18,0.037-0.356,0.063-0.538,0.09c-0.015-0.004-0.029-0.006-0.046-0.01
	c-0.002-0.002-0.004-0.007-0.004-0.009c0.07-0.086,0.05-0.243-0.066-0.305c0.105-0.033,0.199-0.08,0.293-0.125
	c0.037,0.012,0.078,0.021,0.117,0.031c0.43,0.324,0.814,0.668,1.098,1.047c0.034,0.045,0.109,0.004,0.077-0.047
	c-0.233-0.365-0.563-0.693-0.931-0.992c0.018-0.035,0.013-0.086-0.039-0.098c-0.047-0.011-0.09-0.027-0.131-0.039
	c-0.006-0.004-0.01-0.006-0.016-0.01c0.035-0.021,0.072-0.041,0.104-0.066c0.047-0.033,0.053-0.104,0.043-0.154
	c-0.022-0.09-0.043-0.182-0.063-0.272c-0.025-0.104-0.117-0.125-0.195-0.097c-0.06-0.082-0.111-0.168-0.17-0.252
	c-0.006-0.02-0.015-0.037-0.031-0.047c-0.034-0.053-0.072-0.106-0.104-0.16c0.004-0.026,0.004-0.057,0.004-0.086
	c0.047-0.018,0.088-0.041,0.131-0.063c0.42,0.653,0.83,1.305,1.367,1.879c0.11,0.119,0.284-0.06,0.176-0.176
	c-0.068-0.072-0.133-0.148-0.203-0.224c0.035-0.028,0.051-0.071,0.018-0.123c-0.381-0.553-0.727-1.116-1.059-1.684l-0.006-0.012
	c0.08,0.135,0.158,0.262,0.252,0.379c0.607,0.752,1.358,1.461,1.633,2.418c0.15,0.541,0.389,1.016,0.682,1.492
	c0.092,0.145,0.318,0.014,0.232-0.138c-0.643-1.104-0.78-2.184-1.59-3.217c-0.4-0.51-0.758-1.039-1.115-1.559
	c-0.162-0.562-0.521-1.115-0.942-1.623c0.755,0.475,1.521,0.891,2.371,1.022c0.089,0.015,0.13-0.112,0.04-0.137
	c-1.135-0.293-2.064-1.102-3.04-1.807c0.185-0.091,0.144-0.431-0.116-0.455c-0.135-0.017-0.267-0.039-0.393-0.074
	c-0.033-0.049-0.068-0.096-0.102-0.146c0.133,0.021,0.266,0.035,0.399,0.037c0.095,0.006,0.144-0.063,0.144-0.137
	c0.472,0.279,0.969,0.516,1.539,0.66c0.137,0.035,0.188-0.164,0.055-0.207c-0.6-0.193-1.131-0.498-1.635-0.846
	c0.321,0.129,0.664,0.219,1.037,0.254c0.08,0.004,0.077-0.117,0-0.125c-0.604-0.074-1.125-0.299-1.608-0.59
	c0.028,0,0.059,0.006,0.089,0.006c0.148,0.002,0.148-0.228,0-0.23c-0.252-0.008-0.502-0.098-0.751-0.242
	c-0.183-0.139-0.364-0.28-0.552-0.418c-0.397-0.352-0.779-0.799-1.137-1.244c0.104,0.056,0.205,0.107,0.31,0.166
	c0.323,0.271,0.64,0.556,0.938,0.859c0.065,0.066,0.163-0.033,0.102-0.1c-0.182-0.203-0.367-0.4-0.559-0.593
	c0.01-0.028,0.01-0.065-0.027-0.086c-0.051-0.03-0.105-0.061-0.157-0.092c-0.474-0.457-0.974-0.887-1.495-1.283
	c-0.094-0.112-0.188-0.221-0.271-0.309c-0.102-0.105-0.213-0.205-0.324-0.307c0.207,0.088,0.408,0.176,0.602,0.266
	c0.482,0.225,0.871,0.537,1.403,0.621c0.09,0.012,0.128-0.123,0.038-0.141c-0.814-0.142-1.678-0.757-2.444-1.169
	c0.058-0.03,0.07-0.131,0.005-0.176c-0.18-0.125-0.382-0.274-0.595-0.379c-0.006-0.01-0.015-0.018-0.021-0.029
	c1.094,0.613,2.271,1.173,3.401,1.591c0.065,0.021,0.093-0.078,0.026-0.104c-0.497-0.201-1.021-0.434-1.551-0.688
	c0.008-0.033,0.006-0.072-0.03-0.103c-0.332-0.238-0.667-0.483-1.011-0.735c0.002-0.003,0.004,0,0.008,0
	c0.812,0.485,1.679,0.961,2.572,1.077c0.08,0.013,0.1-0.129,0.019-0.141c-0.806-0.117-1.654-0.553-2.461-1.043
	c0.017-0.074-0.022-0.16-0.124-0.162c-0.055-0.002-0.111-0.01-0.169-0.018c-0.489-0.306-0.96-0.619-1.394-0.875
	c-0.115-0.068-0.234-0.127-0.352-0.188c-0.1-0.068-0.195-0.137-0.294-0.203c-0.022-0.022-0.043-0.047-0.065-0.067
	c1.115,0.643,2.229,1.354,3.396,1.838c0.075,0.033,0.127-0.095,0.057-0.127c-0.415-0.197-0.821-0.422-1.221-0.662
	c0.024-0.029,0.03-0.078-0.015-0.101c-0.307-0.155-0.606-0.315-0.908-0.479c-0.811-0.525-1.614-1.07-2.455-1.525
	c-0.039-0.021-0.083-0.037-0.125-0.061c-0.188-0.146-0.381-0.285-0.574-0.42c0.938,0.313,1.885,0.598,2.885,0.709
	c0.04,0.002,0.063-0.035,0.059-0.07c0.015,0,0.023,0,0.037,0c0.117-0.006,0.117-0.178,0-0.18c-1.035-0.008-2.146-0.644-3.183-1.037
	c0.002-0.029-0.012-0.063-0.049-0.064c-0.08-0.012-0.159-0.026-0.239-0.037c-0.094-0.028-0.188-0.065-0.279-0.09
	c-0.119-0.032-0.237-0.061-0.357-0.086c0.162,0.002,0.326,0.002,0.497-0.008c0.101-0.006,0.153-0.146,0.056-0.201
	c-0.682-0.358-1.438-0.602-2.197-0.819c0.006,0,0.006-0.007,0.01-0.009c0.203-0.012,0.406-0.016,0.611-0.024
	c0.127-0.004,0.127-0.191,0-0.197c-0.199-0.004-0.396-0.012-0.603-0.016c-0.019-0.013-0.033-0.025-0.063-0.027
	c-1.42-0.117-2.734-0.617-4.113-0.889c0.214-0.058,0.422-0.121,0.625-0.205c0.113-0.049,0.072-0.228-0.051-0.191
	c-0.424,0.142-0.885,0.207-1.357,0.25c-0.352-0.07-0.76-0.16-1.145-0.182c-0.012-0.013-0.021-0.023-0.041-0.023
	c-0.688-0.072-1.369,0.039-2.037,0.213c0.646-0.51,1.479-0.758,2.42-0.688c0.041,0.006,0.063-0.064,0.021-0.082
	c-1.175-0.558-2.603-0.002-3.293,1.027c-0.251,0.081-0.692,0.317-0.896,0.61c-1.146,0.26-2.262,0.625-3.31,1.101
	c-3.174,1.444-5.379,3.196-6.935,6.424c-0.77,1.6-1.333,3.256-1.66,4.955c-2.184,1.657-2.758,4.356-5.897,4.676
	c-1.685,0.172-3.305,0.475-4.989,0.561c-0.007-0.012-0.009-0.016-0.014-0.022c-0.69-1.074-1.372-2.129-2.166-3.137
	c-2.014-2.548-4.111-4.81-6.635-6.822c-0.883-0.705-2.174-1.301-3.194-1.787c-1.222-0.58-2.256-1.381-3.551-1.791
	c-1.213-0.389-2.598-0.613-4-0.721c-0.808-1.31-1.864-2.461-3.061-3.408c-1.051-0.83-2.239-1.359-3.473-1.779
	c0.206-0.199,0.416-0.391,0.631-0.568c1.305-1.079,2.55-2.956,3.293-4.442c1.051-2.111,2.939-4.104,4.521-5.84
	c0.666-0.73,1.127-1.642,1.934-2.234c0.21-0.154,0.411-0.264,0.603-0.373c0.526,0.229,1.05,0.465,1.568,0.715
	c0.625,0.299,1.224,0.648,1.81,1.019c1.396,0.869,1.52,2.313,1.919,3.731c0.442,1.576,3.064,1.715,4.593,1.988
	c0.103,1.381,0.355,3.363,1.381,4.006c1.604,1,3.09,0.183,4.785,0.197c3.775,0.045,3.961-4.348,4.578-7.055
	c0.483-2.121-0.416-4.22-0.855-6.298c-0.186-0.873-0.869-1.897-1.19-2.774c-0.25-0.695-0.838-1.105-1.449-1.461
	c-1.8-1.047-3.975-1.263-5.985-1.597c-1.038-0.174-2.13-0.551-3.141-0.838c-1.293-0.371-2.716-0.258-4.042-0.26
	c-2.242-0.004-4.268-0.268-6.529,0.131c-2.785,0.482-5.623,1.238-8.324,2.068c-2.116,0.645-4.124,1.752-6.132,2.672
	c-2.397,1.096-4.471,2.818-6.749,4.145c-1.833,1.066-3.518,2.845-4.823,4.488c-0.558,0.697-0.945,1.447-1.468,2.162
	c-0.675,0.922-2.021,1.639-2.561,2.588c-0.43,0.765-1.515,1.67-1.702,2.564c-0.218,1.037-0.397,2.004-0.287,3.063
	c0.096,0.978,0.854,1.761,1.229,2.64c0.462,1.082,1.225,1.858,2.111,2.58c0.258,0.609,0.544,1.215,0.814,1.804
	c0.037,0.016,0.08,0.018,0.12,0.022C11.287,31.919,11.925,36.785,11.925,36.785z M93.716,39.867
	c-0.113-0.006-0.227-0.027-0.334-0.064c-0.059-0.051-0.114-0.102-0.174-0.151c0.164,0.02,0.324,0.029,0.479,0.031
	c0.067,0.063,0.136,0.123,0.206,0.186c-0.044,0.004-0.092,0.006-0.139,0.01C93.746,39.873,93.732,39.869,93.716,39.867z
	 M95.102,42.89c-0.406-0.091-0.812-0.188-1.218-0.289c0.103-0.007,0.205-0.013,0.307-0.019
	C94.489,42.699,94.792,42.802,95.102,42.89z M95.261,41.869c-0.059-0.004-0.12,0.004-0.188,0.023
	c-0.342-0.021-0.682-0.06-1.021-0.109c-0.006-0.02-0.02-0.037-0.051-0.039c-0.021,0-0.045-0.004-0.067-0.006
	c0.003-0.021,0.011-0.039,0.011-0.064c0.352-0.026,0.7-0.077,1.049-0.143C95.074,41.656,95.16,41.773,95.261,41.869z M94.039,40.158
	c-0.016-0.008-0.029-0.01-0.041-0.018c0.055-0.009,0.109-0.021,0.164-0.031c0.077,0.127,0.152,0.256,0.23,0.383
	c-0.048,0.004-0.089,0.01-0.143,0.01c-0.054-0.041-0.106-0.08-0.16-0.123C94.145,40.316,94.143,40.197,94.039,40.158z
	 M95.184,40.363c-0.017,0.004-0.028,0.014-0.05,0.02c-0.176-0.125-0.355-0.243-0.536-0.362c0.087-0.017,0.168-0.039,0.25-0.06
	C94.955,40.094,95.065,40.228,95.184,40.363z M94.837,39.224c-0.252-0.42-0.486-0.854-0.721-1.295
	c0.156,0.192,0.314,0.381,0.461,0.584c0.153,0.213,0.301,0.432,0.443,0.649C94.96,39.187,94.901,39.21,94.837,39.224z
	 M94.917,38.777c-0.404-0.572-0.807-1.139-1.25-1.674c-0.145-0.306-0.287-0.607-0.447-0.906c-0.018-0.023-0.029-0.051-0.043-0.076
	C93.813,36.949,94.373,37.835,94.917,38.777z M93.669,34.988c-0.168-0.021-0.336-0.049-0.496-0.094
	c-0.106-0.166-0.215-0.33-0.324-0.474C93.123,34.617,93.392,34.806,93.669,34.988z M93.14,36.873
	c0.031,0.064,0.068,0.133,0.104,0.195c0.084,0.166,0.164,0.332,0.244,0.498c-0.119-0.058-0.24-0.109-0.355-0.17
	c-0.069-0.107-0.143-0.209-0.215-0.308c-0.025-0.045-0.053-0.088-0.078-0.133C92.947,37.025,93.078,36.974,93.14,36.873z
	 M92.343,38.75c0.154,0.121,0.324,0.238,0.504,0.357c-0.126-0.035-0.252-0.072-0.373-0.117c-0.064-0.057-0.126-0.115-0.191-0.174
	c-0.064-0.09-0.13-0.181-0.191-0.271C92.175,38.611,92.259,38.683,92.343,38.75z M93.25,43.107c0.064,0.018,0.127,0.041,0.189,0.059
	c-0.886-0.018-1.768-0.08-2.639-0.17c-0.006-0.094-0.016-0.182-0.021-0.27C91.607,42.853,92.421,43.064,93.25,43.107z" class="color c1"/>
</svg>