<svg version="1.1" id="图层_1" x="0px" y="0px" width="169.378px" height="169.377px" viewBox="0 0 169.378 169.377" enable-background="new 0 0 169.378 169.377" xml:space="preserve" xmlns="http://www.w3.org/2000/svg" xmlns:xlink="http://www.w3.org/1999/xlink" xmlns:xml="http://www.w3.org/XML/1998/namespace">
  <path fill="#D82149" d="M2.5,86.189H0v-3h2.5V86.189z M161.896,83.189h-4.98v3h4.98V83.189z M151.935,83.189h-4.981v3h4.981V83.189z
	 M141.972,83.189h-4.98v3h4.98V83.189z M132.01,83.189h-4.981v3h4.981V83.189z M122.048,83.189h-4.981v3h4.981V83.189z
	 M112.085,83.189h-4.981v3h4.981V83.189z M102.123,83.189h-4.981v3h4.981V83.189z M92.161,83.189H87.18v3h4.981V83.189z
	 M82.199,83.189h-4.981v3h4.981V83.189z M72.236,83.189h-4.981v3h4.981V83.189z M62.274,83.189h-4.981v3h4.981V83.189z
	 M52.312,83.189h-4.981v3h4.981V83.189z M42.35,83.189h-4.981v3h4.981V83.189z M32.387,83.189h-4.981v3h4.981V83.189z
	 M22.425,83.189h-4.981v3h4.981V83.189z M12.462,83.189H7.481v3h4.981V83.189z M169.378,83.189h-2.5v3h2.5V83.189z M86.189,0h-3v2.5
	h3V0z M86.189,156.916h-3v4.981h3V156.916z M86.189,146.953h-3v4.981h3V146.953z M86.189,136.991h-3v4.981h3V136.991z
	 M86.189,127.029h-3v4.981h3V127.029z M86.189,117.066h-3v4.981h3V117.066z M86.189,107.104h-3v4.981h3V107.104z M86.189,97.142h-3
	v4.981h3V97.142z M86.189,87.18h-3v4.981h3V87.18z M86.189,77.217h-3v4.981h3V77.217z M86.189,67.255h-3v4.981h3V67.255z
	 M86.189,57.293h-3v4.981h3V57.293z M86.189,47.331h-3v4.981h3V47.331z M86.189,37.368h-3v4.981h3V37.368z M86.189,27.406h-3v4.981
	h3V27.406z M86.189,17.444h-3v4.981h3V17.444z M86.189,7.481h-3v4.981h3V7.481z M86.189,166.877h-3v2.5h3V166.877z" class="color c1"/>
</svg>