<svg version="1.1" id="图层_1" x="0px" y="0px" width="22.602px" height="228.252px" viewBox="0 0 22.602 228.252" enable-background="new 0 0 22.602 228.252" xml:space="preserve" xmlns="http://www.w3.org/2000/svg" xmlns:xlink="http://www.w3.org/1999/xlink" xmlns:xml="http://www.w3.org/XML/1998/namespace">
  <path fill="#910500" d="M6.014,0.152l4.844-0.075L15.711,0c0,0,6.149,0.221,6.277,8.306c0.13,8.086,0.612,38.09,0.612,38.09
	s-0.34,19.41-0.804,31.062c-0.459,11.653-3.632,67.332-3.778,77.68c-0.135,9.465,0.864,57.317,1.032,65.438
	c1.908,0.104,3.436,1.661,3.465,3.597l0.004,0.211c0.032,2.03-1.586,3.695-3.605,3.729l-8.838,0.141
	c-2.024,0.031-3.693-1.581-3.726-3.609l-0.005-0.207c-0.028-1.938,1.448-3.547,3.354-3.711c-0.089-8.121-0.613-55.983-1.051-65.438
	c-0.474-10.34-5.417-65.891-6.251-77.521c-0.834-11.632-1.79-31.025-1.79-31.025S0.129,16.739,0.002,8.655
	C-0.129,0.572,6.014,0.152,6.014,0.152z" class="color c1"/>
  <path fill="#FFFFFF" d="M16.8,105.706c0.658-12.519,0.417-95.824-1.212-99.202S7.01,2.166,7.01,2.166l8.753-0.137
	c0.736,0.057,4.095,0.641,4.183,6.199l0.611,38.089c-0.004,0.121-0.345,19.451-0.8,30.942c-0.176,4.46-0.744,15.271-1.403,27.789
	c-1.07,20.404-2.286,43.531-2.377,49.948C15.894,160.737,15.727,126.108,16.8,105.706z" class="color c2"/>
</svg>