<svg version="1.1" id="图层_1" x="0px" y="0px" width="181.013px" height="162.594px" viewBox="0 0 181.013 162.594" enable-background="new 0 0 181.013 162.594" xml:space="preserve" xmlns="http://www.w3.org/2000/svg" xmlns:xlink="http://www.w3.org/1999/xlink" xmlns:xml="http://www.w3.org/XML/1998/namespace">
  <path fill="#E90014" d="M102.182,64.682l35.502-60.429c0.192-0.33,0.403-0.635,0.622-0.925c0.068-0.09,0.141-0.173,0.211-0.26
	c0.16-0.197,0.326-0.386,0.498-0.563c0.08-0.083,0.162-0.167,0.245-0.246c0.19-0.181,0.386-0.349,0.587-0.507
	c0.064-0.051,0.127-0.106,0.191-0.155c0.269-0.198,0.545-0.378,0.828-0.538c0.063-0.036,0.129-0.065,0.193-0.099
	c0.226-0.12,0.454-0.23,0.688-0.327c0.096-0.04,0.193-0.077,0.291-0.113c0.215-0.08,0.433-0.15,0.652-0.211
	c0.093-0.026,0.186-0.054,0.279-0.077c0.293-0.071,0.59-0.129,0.889-0.167c0.014-0.002,0.027-0.005,0.042-0.007
	c0.315-0.039,0.633-0.055,0.95-0.059c0.079,0,0.158,0.004,0.238,0.006c0.283,0.005,0.566,0.024,0.848,0.058
	c0.082,0.01,0.166,0.017,0.248,0.029c0.34,0.05,0.679,0.117,1.012,0.208c0.054,0.014,0.105,0.034,0.158,0.05
	c0.285,0.083,0.566,0.182,0.842,0.295c0.087,0.035,0.173,0.07,0.258,0.108c0.32,0.142,0.635,0.297,0.938,0.479
	c3.398,1.888,5.665,6.798,3.021,11.33c-5.665,9.819-23.416,40.411-34.746,60.429c-0.114,0.228-0.25,0.421-0.395,0.597
	c-0.042,0.051-0.087,0.096-0.131,0.143c-0.113,0.12-0.231,0.226-0.355,0.316c-0.049,0.035-0.096,0.073-0.145,0.104
	c-0.344,0.215-0.718,0.329-1.096,0.34c-0.055,0.001-0.109-0.003-0.165-0.006c-0.14-0.007-0.278-0.028-0.415-0.063
	c-0.055-0.014-0.109-0.025-0.164-0.044c-0.184-0.063-0.363-0.142-0.534-0.255c-0.091-0.045-0.36-0.181-0.757-0.379
	c-2.095-1.053-7.766-3.91-9.613-4.934c-0.013-0.007-0.023-0.013-0.035-0.02c-0.066-0.037-0.131-0.073-0.187-0.104
	c-0.018-0.01-0.03-0.018-0.047-0.027c-0.045-0.026-0.09-0.052-0.126-0.074c-0.023-0.014-0.04-0.024-0.06-0.037
	c-0.021-0.013-0.046-0.028-0.063-0.039c-0.031-0.021-0.054-0.038-0.065-0.05C102.182,67.703,101.427,65.814,102.182,64.682z
	 M99.917,100.184c4.154-7.177,8.687-14.729,12.841-22.661c0,0,0,0-0.377,0l-10.198-5.665L92.741,87.72l1.133,1.889L99.917,100.184z
	 M179.518,130.146c-0.036-0.077-0.073-0.155-0.11-0.232c-0.162-0.339-0.33-0.683-0.505-1.028c-0.025-0.051-0.053-0.102-0.079-0.152
	c-0.16-0.315-0.326-0.633-0.498-0.95c-0.036-0.067-0.072-0.136-0.108-0.203c-0.19-0.349-0.387-0.698-0.589-1.047
	c-0.041-0.07-0.083-0.14-0.124-0.21c-0.191-0.324-0.388-0.648-0.589-0.969c-0.026-0.041-0.051-0.082-0.076-0.122
	c-0.219-0.345-0.445-0.685-0.678-1.021c-0.051-0.075-0.104-0.149-0.155-0.224c-0.237-0.34-0.479-0.676-0.73-1.002
	c-0.011-0.016-0.023-0.029-0.035-0.045c-0.24-0.312-0.487-0.614-0.739-0.911c-0.057-0.067-0.114-0.136-0.172-0.202
	c-0.26-0.3-0.526-0.592-0.799-0.872c-0.045-0.046-0.092-0.091-0.137-0.137c-0.248-0.25-0.502-0.49-0.76-0.722
	c-0.053-0.047-0.105-0.097-0.158-0.144c-0.286-0.249-0.578-0.485-0.876-0.708c-0.065-0.048-0.131-0.094-0.196-0.142
	c-0.285-0.204-0.574-0.398-0.869-0.575c-0.029-0.019-0.059-0.039-0.09-0.057c-0.314-0.186-0.637-0.35-0.963-0.5
	c-0.077-0.035-0.154-0.069-0.23-0.103c-0.331-0.142-0.666-0.271-1.008-0.374c-0.034-0.01-0.069-0.017-0.104-0.026
	c-0.318-0.092-0.643-0.162-0.971-0.217c-0.079-0.013-0.157-0.028-0.236-0.039c-0.353-0.048-0.71-0.077-1.073-0.079
	c-0.085-0.002-0.172,0.004-0.259,0.006c-0.098,0.002-0.194,0.002-0.293,0.008c-0.055,0.003-0.109,0.002-0.164,0.007
	c-0.254,0.019-0.512,0.05-0.771,0.093c-0.055,0.01-0.109,0.023-0.164,0.033c-0.205,0.039-0.41,0.082-0.619,0.135
	c-0.089,0.023-0.18,0.051-0.27,0.077c-0.176,0.05-0.354,0.104-0.532,0.167c-0.101,0.034-0.2,0.071-0.3,0.109
	c-0.176,0.066-0.353,0.14-0.529,0.217c-0.102,0.045-0.201,0.088-0.302,0.136c-0.19,0.089-0.382,0.188-0.574,0.291
	c-0.089,0.048-0.177,0.091-0.266,0.141c-0.28,0.158-0.563,0.327-0.851,0.515l16.619,25.304c0.377-0.378,1.133-1.133,1.51-1.511
	c3.021-3.021,3.777-7.553,1.889-11.708C179.835,130.823,179.679,130.486,179.518,130.146z M66.764,74.063
	c0.03-0.02,0.065-0.042,0.109-0.068c0.008-0.004,0.019-0.01,0.027-0.015c0.1-0.06,0.23-0.134,0.389-0.221
	c0.007-0.004,0.015-0.009,0.022-0.013c1.722-0.95,6.501-3.366,8.919-4.582c0.029-0.015,0.058-0.029,0.086-0.043
	c0.154-0.078,0.297-0.149,0.43-0.216c0.493-0.248,0.819-0.411,0.899-0.452c-0.005,0.003-0.004,0.002-0.012,0.006
	c1.133-0.755,1.889-2.266,1.133-3.776L43.265,4.253c-0.169-0.31-0.363-0.598-0.567-0.874c-0.061-0.082-0.126-0.16-0.19-0.239
	c-0.158-0.195-0.323-0.381-0.497-0.558c-0.071-0.072-0.141-0.146-0.214-0.215c-0.226-0.212-0.462-0.414-0.71-0.597
	c-0.02-0.015-0.039-0.032-0.059-0.047c-0.271-0.197-0.558-0.372-0.851-0.534c-0.08-0.044-0.163-0.083-0.244-0.125
	c-0.223-0.114-0.451-0.219-0.683-0.313c-0.092-0.037-0.183-0.075-0.276-0.109c-0.273-0.1-0.552-0.188-0.834-0.261
	c-0.041-0.011-0.081-0.025-0.122-0.035c-0.325-0.08-0.655-0.138-0.986-0.181c-0.085-0.011-0.17-0.016-0.256-0.025
	c-0.252-0.025-0.504-0.041-0.757-0.046c-0.099-0.001-0.197-0.003-0.296-0.001c-0.299,0.004-0.597,0.022-0.893,0.056
	c-0.043,0.005-0.086,0.005-0.129,0.011c-0.334,0.043-0.664,0.11-0.989,0.191c-0.088,0.022-0.175,0.05-0.262,0.075
	c-0.244,0.07-0.485,0.151-0.721,0.244c-0.092,0.036-0.184,0.07-0.274,0.109c-0.308,0.133-0.609,0.28-0.897,0.453
	c-3.399,1.888-5.288,7.175-3.022,11.33c5.666,9.819,23.417,40.411,34.747,60.429c0.126,0.189,0.281,0.351,0.444,0.498
	c0.041,0.036,0.081,0.071,0.124,0.105c0.34,0.272,0.736,0.461,1.15,0.565c0.05,0.013,0.1,0.024,0.15,0.034
	c0.208,0.042,0.42,0.071,0.628,0.071c0.15,0,0.298-0.012,0.443-0.034c0.158-0.024,0.312-0.059,0.459-0.108
	c0.012-0.012,0.034-0.029,0.066-0.05C66.752,74.07,66.759,74.065,66.764,74.063z M87.453,118.312l-6.42-10.575l-16.618,28.326
	c0,0-1.888,3.021-5.287,3.021c-0.378,0-0.755,0-1.133,0l-12.841,23.038c0.655,0.094,1.292,0.17,1.908,0.23
	c0.012,0.002,0.025,0.003,0.037,0.004c0.611,0.061,1.202,0.107,1.766,0.143c0.005,0,0.01,0,0.015,0.001
	c1.142,0.07,2.178,0.094,3.073,0.094c1.794,0,3.021-0.094,3.399-0.094c2.644,0,8.687-1.134,14.729-10.575
	c2.266-3.398,9.442-15.862,18.506-31.725C88.208,119.444,87.831,119.067,87.453,118.312z M40.999,161.366
	c-6.798-1.133-24.549-7.175-33.991-14.352l16.617-25.304c5.288,3.776,10.953,7.176,16.24,9.819
	c6.043,3.021,11.708,4.909,14.729,6.043L40.999,161.366z M22.664,133.253c0.018-0.018,0.037-0.033,0.055-0.049
	c0.05-0.045,0.103-0.087,0.157-0.125c0.015-0.011,0.029-0.022,0.044-0.033c0.067-0.043,0.138-0.079,0.213-0.106
	c0.017-0.007,0.035-0.009,0.052-0.015c0.063-0.019,0.131-0.029,0.202-0.033c0.024-0.001,0.047-0.004,0.072-0.002
	c0.056,0.001,0.115,0.011,0.176,0.023c0.026,0.006,0.051,0.008,0.079,0.016c0.091,0.025,0.187,0.061,0.291,0.112l24.926,10.575
	l-25.305-13.219c-0.141-0.07-0.281-0.123-0.419-0.164c-0.025-0.008-0.05-0.016-0.075-0.022c-0.133-0.035-0.263-0.055-0.389-0.058
	c-0.009,0-0.019-0.004-0.028-0.004c-0.021,0-0.041,0.006-0.062,0.008c-0.061,0.003-0.121,0.01-0.178,0.021
	c-0.034,0.007-0.066,0.016-0.098,0.025c-0.055,0.018-0.107,0.04-0.159,0.066c-0.03,0.016-0.06,0.031-0.088,0.049
	c-0.052,0.035-0.1,0.078-0.146,0.124c-0.022,0.022-0.046,0.04-0.068,0.065c-0.065,0.076-0.125,0.162-0.177,0.266l-5.288,8.31
	l6.043-5.665C22.549,133.362,22.606,133.307,22.664,133.253z M20.604,119.067c-0.275-0.188-0.547-0.355-0.817-0.514
	c-0.087-0.051-0.173-0.096-0.26-0.143c-0.184-0.103-0.368-0.201-0.549-0.289c-0.098-0.049-0.195-0.092-0.293-0.137
	c-0.171-0.078-0.34-0.15-0.509-0.217c-0.097-0.038-0.194-0.075-0.291-0.109c0,0-0.001,0-0.001-0.001
	c-0.172-0.062-0.343-0.116-0.513-0.166c-0.087-0.026-0.175-0.054-0.261-0.077c-0.202-0.053-0.401-0.096-0.6-0.135
	c-0.053-0.01-0.106-0.023-0.159-0.033c-0.252-0.043-0.501-0.074-0.749-0.093c-0.053-0.005-0.106-0.004-0.159-0.007
	c-0.18-0.011-0.359-0.016-0.537-0.014c-0.354,0.002-0.702,0.031-1.046,0.08c-0.076,0.01-0.151,0.024-0.226,0.037
	c-0.325,0.056-0.646,0.127-0.96,0.221c-0.029,0.008-0.059,0.014-0.088,0.022c-0.337,0.104-0.668,0.233-0.994,0.378
	c-0.072,0.031-0.144,0.063-0.215,0.098c-0.323,0.151-0.643,0.316-0.955,0.504c-0.023,0.014-0.046,0.031-0.07,0.045
	c-0.297,0.182-0.588,0.381-0.875,0.591c-0.06,0.044-0.121,0.087-0.181,0.133c-0.297,0.225-0.588,0.463-0.873,0.716
	c-0.048,0.042-0.094,0.086-0.142,0.129c-0.261,0.238-0.519,0.484-0.77,0.742c-0.04,0.041-0.081,0.08-0.12,0.121
	c-0.273,0.283-0.539,0.58-0.8,0.884c-0.053,0.062-0.105,0.124-0.158,0.187c-0.256,0.305-0.507,0.615-0.751,0.936
	c-0.006,0.008-0.013,0.017-0.02,0.025c-0.251,0.33-0.494,0.669-0.732,1.012c-0.049,0.07-0.098,0.141-0.146,0.212
	c-0.232,0.34-0.46,0.683-0.68,1.031c-0.022,0.035-0.043,0.071-0.066,0.106c-0.205,0.326-0.404,0.656-0.598,0.986
	c-0.039,0.067-0.079,0.133-0.117,0.2c-0.203,0.351-0.4,0.701-0.591,1.052c-0.036,0.066-0.071,0.133-0.106,0.198
	c-0.173,0.321-0.341,0.643-0.503,0.962c-0.024,0.047-0.049,0.095-0.073,0.142c-0.176,0.347-0.344,0.691-0.507,1.032
	c-0.037,0.077-0.074,0.154-0.11,0.232c-0.161,0.34-0.317,0.676-0.465,1.005c-1.889,4.155-1.133,9.442,3.399,13.219L20.604,119.067z
	 M122.955,138.706c-0.756,0-1.133,0-1.511,0c-3.399,0-5.287-3.021-5.287-3.021l-18.884-32.103l-6.798-12.086L78.767,71.857
	l-10.197,5.665c4.91,9.064,10.197,17.751,15.107,26.438c2.644,4.532,4.91,8.687,7.175,12.464
	c10.197,17.75,18.129,31.724,20.395,35.501c6.043,9.441,11.708,10.575,14.729,10.575c0.049,0,0.114,0.002,0.191,0.005
	c0.517,0.018,1.647,0.089,3.207,0.089c0.896,0,1.933-0.023,3.074-0.094c0.004-0.001,0.008-0.001,0.012-0.001
	c0.564-0.035,1.156-0.082,1.77-0.143c0.011-0.001,0.021-0.002,0.033-0.003c0.617-0.062,1.254-0.138,1.91-0.231L122.955,138.706z
	 M173.941,147.015c-6.043,4.91-16.617,9.82-31.725,13.975c-0.756,0-1.511,0.377-2.266,0.377l-13.597-23.793
	c3.021-1.134,8.687-3.021,14.729-6.043c5.287-2.644,10.953-6.043,16.24-9.819L173.941,147.015z M164.5,139.084l-5.288-8.31
	c-0.054-0.107-0.116-0.204-0.185-0.294c-0.02-0.026-0.043-0.049-0.063-0.074c-0.052-0.06-0.104-0.114-0.161-0.163
	c-0.027-0.023-0.055-0.043-0.084-0.064c-0.058-0.041-0.117-0.074-0.18-0.103c-0.029-0.013-0.058-0.028-0.088-0.038
	c-0.078-0.027-0.16-0.041-0.243-0.045c-0.014-0.001-0.026-0.008-0.04-0.008c-0.003,0-0.006,0.001-0.008,0.001
	c-0.012,0-0.023,0.003-0.034,0.004c-0.069,0.003-0.139,0.015-0.21,0.036c-0.025,0.007-0.051,0.017-0.076,0.026
	c-0.061,0.022-0.122,0.053-0.185,0.089c-0.024,0.016-0.05,0.028-0.075,0.045c-0.085,0.058-0.17,0.125-0.256,0.211l-25.305,13.219
	l24.926-10.575c0.379,0,1.134,0,1.512,0.378L164.5,139.084z" class="color c1"/>
</svg>