<svg version="1.1" id="图层_1" x="0px" y="0px" width="220px" height="150.393px" viewBox="0 0 220 150.393" enable-background="new 0 0 220 150.393" xml:space="preserve" xmlns="http://www.w3.org/2000/svg" xmlns:xlink="http://www.w3.org/1999/xlink" xmlns:xml="http://www.w3.org/XML/1998/namespace">
  <path fill="#CD5D38" d="M110,144.52c2.992,0.035,6.352,7.516,9.068,5.541c0,0.002,0,0.002,0.002,0.003
	c0.004-0.003,0.008-0.009,0.012-0.011c0.01-0.008,0.02-0.013,0.029-0.021c0-0.001-0.002-0.004-0.002-0.005
	c4.945-4.326,8.459-11.632,9.492-22.997c1.143-12.568,5.715-14.421,8.992-28.06h0.004c11.156-6.429,13.33-12.886,9.852-22.336
	c0.002-0.003,0.006-0.005,0.01-0.008C200.096,60.633,242.256,38.18,207.051,0c20.063,34.135-31.258,57.383-67.363,55.139
	c-16.717-25.775-8.143,11.712-29.971,11.779c-21.83-0.067-12.686-37.555-29.404-11.779C44.209,57.383-7.113,34.135,12.949,0
	c-35.205,38.18,6.955,60.633,59.594,76.627c0.002,0.003,0.006,0.005,0.008,0.008c-3.477,9.45-1.305,15.907,9.852,22.336h0.004
	c3.277,13.639,7.85,15.491,8.992,28.06c1.033,11.365,4.547,18.671,9.494,22.997c-0.002,0.001-0.004,0.004-0.004,0.005
	c0.01,0.008,0.02,0.013,0.029,0.021c0.006,0.002,0.008,0.008,0.014,0.011c0-0.001,0-0.001,0-0.003
	C103.65,152.035,107.008,144.555,110,144.52z" class="color c1"/>
</svg>