<svg version="1.1" id="图层_1" x="0px" y="0px" width="202.145px" height="151.889px" viewBox="0 0 202.145 151.889" enable-background="new 0 0 202.145 151.889" xml:space="preserve" xmlns="http://www.w3.org/2000/svg" xmlns:xlink="http://www.w3.org/1999/xlink" xmlns:xml="http://www.w3.org/XML/1998/namespace">
  <g>
    <path fill="#003656" d="M106.381,26.777c-0.109-0.146-0.205-0.272-0.285-0.377c-0.041-0.055-0.076-0.102-0.107-0.143
		c0.027-0.13,0.059-0.257,0.088-0.386c0.135-0.629,0.27-1.258,0.395-1.891c0.129,0.076,0.256,0.152,0.412,0.227
		c0.223,0.107,0.447,0.248,0.713,0.347c0.133,0.053,0.279,0.108,0.418,0.166c-0.313,0.887-0.611,1.852-0.854,2.854
		c-0.133-0.117-0.256-0.233-0.361-0.352C106.644,27.058,106.494,26.919,106.381,26.777z" class="color c1"/>
    <path fill="#003656" d="M105.955,28.189c0.201,0.166,0.43,0.328,0.689,0.477c0.082,0.052,0.168,0.103,0.254,0.152
		c-0.109,0.602-0.193,1.205-0.24,1.809c-0.127-0.151-0.254-0.303-0.359-0.469c-0.141-0.229-0.264-0.469-0.363-0.717
		c-0.098-0.248-0.184-0.5-0.244-0.758c-0.027-0.129-0.055-0.258-0.07-0.388c-0.016-0.094-0.023-0.192-0.027-0.276
		c0.008-0.033,0.014-0.066,0.021-0.099C105.72,28.008,105.836,28.094,105.955,28.189z" class="color c1"/>
    <path fill="#003656" d="M106.763,22.478c0.148-0.764,0.291-1.533,0.426-2.301c0.168,0.078,0.338,0.151,0.516,0.205l0.744,0.26
		l0.76,0.19c0.133,0.039,0.27,0.058,0.402,0.082c-0.299,0.607-0.748,1.58-1.211,2.765c-0.086-0.054-0.182-0.107-0.264-0.156
		c-0.221-0.121-0.402-0.281-0.584-0.404C107.207,22.886,106.955,22.644,106.763,22.478z" class="color c1"/>
    <path fill="#003656" d="M0,149.634c1.915-1.99,6.435-3.41,6.435-3.41c0.004-0.004,0.004-0.008,0.008-0.012
		c3.431,0.885,6.737-2.018,9.17-4.469c2.292-2.314,4.901-4.434,7.097-6.809c0.91-0.994,1.457-1.912,1.76-2.893
		c3.925-3.945,9.063-7.059,13.457-10.307c1.891-1.395,3.728-3.354,5.153-5.215c0.539-0.689,0.842-1.426,1.04-2.186
		c1.138-0.896,2.262-1.82,3.528-2.535c1.928-1.094,3.803-2.262,5.479-3.719c2.421-2.109,3.847-4.258,4.963-6.738
		c1.988-0.525,4.159-0.973,5.616-2.051c1.775-1.313,3.841-3.84,5.26-5.563c3.544-4.287,9.115-8.182,14.898-10.307
		c0.82-0.313,1.654-0.576,2.48-0.807c1.436,0.797,2.793,1.715,4.021,2.822c2.147,1.951,5.215,2.961,7.72,4.334
		c1.806,0.988,2.952,2.627,4.593,3.658c1.471,0.928,2.975,1.73,4.492,2.574c1.213,0.676,2.102,1.547,3.133,2.246
		c-1.129,2.125-1.729,4.629-1.836,6.93c-0.205,4.098-0.631,7.961-0.447,12.09c0.15,3.309-0.068,6.002-1.184,9.16
		c-0.799,2.262-1.967,4.35-2.314,6.74c-0.229,1.594-1.275,3.551-0.857,5.168c0.242,0.953,0.787,1.574,1.459,2.092
		c-0.574,1.369-1.738,3.969-2.547,4.602c-1.112,0.869-5.166-2.221-5.166-2.221l-0.531,1.109c0,0-2.654-0.529,11.394,5.553
		c14.047,6.082,14.434-1.256,14.434-1.256c-0.096,1.014-1.109,1.932-4.248,1.4c-2.41-0.408-1.604-2.32-1.1-3.188
		c1.436,0.643,2.814,0.977,3.709-0.086c2.201-2.625-0.016-4.566-1.83-6.617c-1.168-1.328-1.883-1.828-1.898-3.758
		c-0.006-0.936-0.006-1.865-0.014-2.809c0-0.104-0.016-0.213-0.023-0.326c0.184-0.158,0.365-0.324,0.563-0.479
		c1.273-0.973,0.439-1.791,1.26-3.15c1.617-2.67,2.939-5.092,3.848-8.121c1.004-3.314,2.777-6.479,3.195-9.957
		c0.121-1.01,0.873-3.898,0.912-6.094c0.094-0.412,0.174-0.828,0.248-1.246c14.572,10.754,45.842,33.557,50.234,34.627
		c5.754,1.404,22.313-5.191,23.717-7.018c1.404-1.824,1.107-6.713-0.982-7.156c-4.631-0.982-13.191,6.736-21.473,7.578
		c-6.84,0.695-39.736-23.227-50.965-31.564c0.018-0.113,0.033-0.234,0.053-0.346c0.646-3.711,1.775-6.701,1.533-10.541
		c-0.184-2.885-1.617-5.654-2.785-8.266c-0.379-0.852-0.691-1.783-0.934-2.748c2.77-2.262,5.41-5.487,6.396-8.272
		c0.455-1.319,0.631-2.225-0.311-3.393c-1.018-1.26-1.77-2.377-2.193-3.621c2.42-2.488,3.271-5.357,2.762-9.539
		c-0.355-2.861-0.084-5.715-0.084-8.584c0.623-1.1,1.893-1.951,2.309-3.098c0.586-1.631-0.342-2.777-1.807-3.361
		c-0.008-0.008-0.021,0.008-0.021,0.014l-0.023,0.019c-0.426-0.715-0.934-1.42-1.152-2.164c-0.684-2.285-0.857-3.059-2.414-4.873
		c-1.92-2.23-4.842-3.385-6.77-5.578c-0.76-0.856-1.572-1.836-2.467-2.602c0.234-1.078,0.371-2.164,0.416-3.287
		c0.92-0.41,1.693-0.873,2.422-1.783c0.949-1.191,0.889-3.158,0.918-4.607c0.031-1.653,0.107-2.487-1.457-3.399
		c-0.145-0.082-0.289-0.183-0.432-0.273c-0.881-1.721-1.891-3.285-3.061-4.733c-1.084-1.359-2.32-2.611-3.74-3.789
		c-0.807-0.668-2.059-1.427-3.119-1.427c-1.115,0-2.262,1.16-3.416,1.64c-0.65-0.045-1.297-0.068-1.941-0.076
		c-1.086-0.021-2.277-0.34-3.354-0.045c-0.752,0.205-1.23,1.541-1.604,2.049c-0.949,1.291-1.7,2.627-2.452,4.039
		c-0.592,1.123-0.387,2.406-0.651,3.604c-0.114,0.485-0.735,1.524-0.427,2.057c0.198,0.342,0.569,0.736,1.019,1.078
		c-0.12,0.242-0.235,0.485-0.326,0.715c-0.106,0.234-0.183,0.484-0.258,0.727c-2.05-1.221-4.434-1.659-6.634-2.608
		c-2.231-0.974-4.638-1.625-6.976-2.293c-1.207-0.351-5.077-2.359-6.14-1.662c-1.077,0.715-2.104,1.57-3.065,2.481
		c-5.653-1.313-12.334,0.752-16.455,4.47c-1.54,1.396-2.755,3.112-4.288,4.485c-0.341,0.312-1.023,0.836-0.856,1.42
		c0.417,1.474,1.691,3.377,3.027,4.818c-0.395,3.396-0.479,7.035-0.479,10.217c0.007,1.631-0.061,4.129,0.281,6.392
		c-0.806,0.5-1.631,1.198-1.558,1.881c0.244,2.18,2.636,4.645,1.579,6.762c-1.161,2.338,0,4.918,1.641,6.854
		c-0.987,1.7-1.412,3.666-0.744,5.723c0.387,1.19,0.818,2.521,1.375,3.803c-0.139,0.168-0.251,0.303-0.328,0.402
		c-0.751,0.994-1.509,2.08-2.17,3.166c-0.523-0.062-0.994,0.082-1.557,0.674c-1.473,1.557-2.004,4.35-3.104,6.178
		c-2.299,3.803-6.542,5.951-6.58,10.498c-1.101,1.023-2.095,2.246-3.013,3.301c-0.267,0.303-0.547,0.637-0.827,0.986
		c-2.574,0.547-4.563,2.096-5.813,4.744c-1.966,4.174-5.845,6.17-8.705,9.66c-2.885,3.52-6.209,6.604-8.735,10.414
		c-1.092,1.639-2.55,2.58-3.126,4.469c-0.327,1.078-0.25,2.527-0.101,3.947c-1.123,1.197-2.116,2.609-3.043,3.666
		c-1.988,2.275-4.22,4.16-6.672,5.92c-2.314,1.656-3.676,4.828-2.317,7.232C2.554,146.825,0,149.634,0,149.634z M112.568,144.572
		l-1.543,3.748l-3.188-1.498l1.127-3.746C110.129,143.546,111.437,144.406,112.568,144.572z M104.39,27.967l0.014-0.105
		c0.094-0.748,0.211-1.492,0.326-2.236c0.113-0.743,0.223-1.487,0.357-2.229c0.25-1.484,0.521-2.965,0.82-4.441l0.188-0.934
		l0.898,0.428c0.418,0.197,0.813,0.445,1.244,0.613l0.643,0.271l0.666,0.211c0.223,0.078,0.449,0.136,0.678,0.183
		c0.23,0.045,0.455,0.115,0.689,0.153l0.701,0.115c0.232,0.041,0.471,0.045,0.709,0.07c0.234,0.025,0.475,0.039,0.713,0.047
		c0.24,0.008,0.48,0.029,0.721,0.018c0.482,0,0.965-0.026,1.451-0.057c0.969-0.084,1.943-0.223,2.912-0.453
		c-0.873,0.484-1.826,0.836-2.805,1.09c-0.49,0.127-0.988,0.229-1.494,0.298c-0.252,0.045-0.506,0.061-0.76,0.088
		c-0.256,0.03-0.512,0.047-0.77,0.043c-0.258-0.002-0.516,0.018-0.771-0.002l-0.775-0.045c-0.115-0.009-0.232-0.029-0.348-0.046
		c-0.287,0.572-0.793,1.646-1.318,3.003c0.17,0.081,0.336,0.165,0.514,0.241c0.273,0.099,0.547,0.22,0.834,0.302
		c0.287,0.075,0.572,0.174,0.863,0.219c0.289,0.065,0.578,0.108,0.861,0.137c0.279,0.043,0.555,0.035,0.816,0.057
		c0.262-0.008,0.512,0.003,0.738-0.021c0.92-0.055,1.518-0.244,1.518-0.244s-0.561,0.279-1.482,0.48
		c-0.23,0.059-0.482,0.088-0.752,0.137c-0.27,0.02-0.555,0.072-0.854,0.072c-0.299,0.016-0.607,0.018-0.922-0.004
		c-0.316-0.003-0.633-0.058-0.955-0.093c-0.318-0.041-0.633-0.123-0.945-0.184c-0.197-0.053-0.389-0.113-0.58-0.172
		c-0.344,0.969-0.666,2.039-0.914,3.135c0.053,0.037,0.1,0.076,0.154,0.109c0.236,0.159,0.48,0.33,0.756,0.463
		c0.264,0.149,0.543,0.283,0.832,0.395c0.572,0.248,1.182,0.412,1.762,0.543c0.582,0.113,1.137,0.189,1.617,0.213
		c0.963,0.063,1.607-0.026,1.607-0.026s-0.627,0.182-1.604,0.264c-0.488,0.049-1.064,0.055-1.686,0.027
		c-0.615-0.047-1.281-0.123-1.934-0.297c-0.328-0.076-0.652-0.175-0.963-0.295c-0.268-0.085-0.516-0.199-0.758-0.316
		c-0.125,0.725-0.209,1.449-0.23,2.16c0.008,0.006,0.014,0.014,0.021,0.02l0.34,0.25l0.367,0.217
		c0.238,0.164,0.518,0.248,0.779,0.38c0.271,0.108,0.555,0.194,0.838,0.295c-0.295-0.023-0.598-0.033-0.896-0.07
		c-0.293-0.07-0.605-0.1-0.891-0.213c-0.297-0.086-0.584-0.207-0.857-0.357c-0.146-0.063-0.277-0.147-0.408-0.237
		c-0.129-0.093-0.273-0.164-0.391-0.275c-0.25-0.199-0.479-0.426-0.689-0.672c-0.203-0.25-0.393-0.515-0.557-0.797
		c-0.164-0.279-0.291-0.582-0.4-0.89c-0.053-0.157-0.102-0.313-0.141-0.475c-0.041-0.166-0.072-0.314-0.098-0.521L104.39,27.967z
		 M99.406,20.312l0.007-0.633c0-0.424,0.016-0.847,0.026-1.269c0.049,0.42,0.102,0.838,0.139,1.258l0.063,0.632
		c0.025,0.209,0.029,0.422,0.073,0.627c0.102,0.405,0.2,0.809,0.286,1.211l0.134,0.604c0.063,0.195,0.147,0.385,0.221,0.578
		l0.223,0.576c0.082,0.186,0.13,0.391,0.247,0.561l0.308,0.527c0.107,0.172,0.193,0.357,0.31,0.523
		c0.259,0.307,0.472,0.657,0.765,0.928c0.146,0.135,0.281,0.283,0.432,0.406c0.01,0.006,0.02,0.014,0.027,0.021
		c0.26-1.418,0.525-2.834,0.811-4.248c0.311-1.553,0.635-3.104,0.988-4.649c-0.609-0.601-1.229-1.188-1.826-1.802
		c-0.633-0.649-1.276-1.289-1.892-1.951c0.719,0.56,1.412,1.144,2.113,1.718c0.703,0.571,1.377,1.17,2.064,1.754l0.109,0.092
		l-0.023,0.154c-0.246,1.612-0.523,3.221-0.814,4.823c-0.291,1.604-0.6,3.203-0.918,4.804l-0.102,0.498l-0.43-0.244
		c-0.232-0.133-0.385-0.279-0.568-0.422c-0.172-0.148-0.314-0.316-0.475-0.476c-0.318-0.313-0.537-0.701-0.807-1.049
		c-0.12-0.182-0.206-0.383-0.308-0.576l-0.29-0.586c-0.111-0.188-0.149-0.405-0.223-0.608l-0.195-0.619
		c-0.062-0.205-0.136-0.408-0.187-0.617l-0.101-0.639c-0.069-0.427-0.127-0.853-0.181-1.273
		C99.391,20.734,99.41,20.523,99.406,20.312z M66.585,38.851c1.757-2.23,1.506-5.381,1.506-5.381h6.079
		c-5.187,2.621-3.067,8.141-3.067,8.141C68.9,38.181,66.585,38.851,66.585,38.851z" class="color c1"/>
  </g>
</svg>