<svg version="1.1" id="图层_1" x="0px" y="0px" width="118.784px" height="119.228px" viewBox="0 0 118.784 119.228" enable-background="new 0 0 118.784 119.228" xml:space="preserve" xmlns="http://www.w3.org/2000/svg" xmlns:xlink="http://www.w3.org/1999/xlink" xmlns:xml="http://www.w3.org/XML/1998/namespace">
  <path fill="#FF914E" d="M2.677,49.895c-0.409-0.352-0.882-0.753-1.396-1.067c0.392-1.969,0.861-3.867,1.375-5.549
	c0.03-0.098,0.053-0.198,0.067-0.3c0.029-0.121,0.135-0.436,0.207-0.647c0.055-0.166,0.113-0.338,0.165-0.499
	c0.215-0.656,0.368-1.158,0.449-1.568l0.055-0.128c0.175-0.405,0.302-0.699,0.467-1.168c0.127-0.22,0.207-0.424,0.257-0.553
	c0.089-0.142,0.162-0.296,0.215-0.461c0.033-0.102,0.072-0.206,0.112-0.309c0.038-0.084,0.078-0.166,0.116-0.245l0.05-0.104
	c0.178-0.371,0.315-0.67,0.396-0.985c0.062-0.099,0.114-0.203,0.158-0.311L5.5,35.667c0.09-0.23,0.195-0.496,0.304-0.754
	c0.259-0.539,0.356-0.69,0.373-0.715c0.12-0.176,0.21-0.366,0.269-0.565c0.011-0.019,0.021-0.039,0.033-0.059
	c0.139-0.253,0.312-0.568,0.424-0.907c0.022-0.066,0.04-0.133,0.055-0.201c0.06-0.104,0.126-0.216,0.187-0.315
	c0.154-0.256,0.313-0.52,0.442-0.804c0.012-0.027,0.024-0.054,0.035-0.082c0.011-0.018,0.022-0.037,0.034-0.057
	c0.087-0.082,0.173-0.175,0.257-0.281c0.179-0.228,0.301-0.483,0.368-0.75c0.073-0.159,0.152-0.332,0.212-0.53
	c0.055,0.076,0.115,0.149,0.181,0.217c0.004,0.014,0.009,0.027,0.013,0.041c0.004,0.016,0.009,0.032,0.014,0.048
	c0.015,0.5,0.126,0.829,0.232,1.1c0.007,0.02,0.018,0.041,0.026,0.07c0.021,0.077,0.048,0.152,0.078,0.224
	c-0.566,0.415-0.89,1.11-0.806,1.841c0.06,0.523,0.203,0.991,0.352,1.42c-0.001,0.021-0.001,0.04-0.002,0.057
	c-0.032,0.38,0.046,0.763,0.225,1.102c0.046,0.088,0.098,0.172,0.155,0.252c0.201,0.336,0.501,0.615,0.876,0.789
	c0.015,0.006,0.029,0.013,0.044,0.02c0.044,0.296,0.156,0.583,0.331,0.837l0.073,0.105c0.086,0.125,0.185,0.237,0.292,0.336
	c0.004,0.011,0.008,0.022,0.012,0.033c0.015,0.042,0.03,0.083,0.044,0.124c-0.111,0.305-0.149,0.641-0.097,0.982
	c0.095,0.626,0.366,1.098,0.718,1.427c0.066,0.146,0.146,0.288,0.241,0.428c0.166,0.245,0.379,0.444,0.623,0.591
	c-0.005,0.201,0.019,0.38,0.053,0.532c0.018,0.292,0.1,0.583,0.248,0.848c0.011,0.02,0.022,0.04,0.034,0.059
	c0.012,0.052,0.024,0.104,0.038,0.156c0.063,0.236,0.128,0.46,0.195,0.679c0.046,0.152,0.094,0.303,0.144,0.458
	c-0.011,0.153-0.005,0.309,0.02,0.465c0.039,0.238,0.105,0.432,0.161,0.576c0.042,0.191,0.11,0.375,0.206,0.547
	c0.036,0.065,0.074,0.127,0.115,0.187c0.021,0.354,0.137,0.695,0.333,0.988c0.022,0.187,0.07,0.367,0.142,0.537
	c-0.048,0.397,0.023,0.805,0.213,1.168c0.135,0.258,0.291,0.462,0.454,0.623c0.03,0.417,0.191,0.817,0.462,1.141
	c0.019,0.248,0.078,0.52,0.206,0.796c-0.046,0.146-0.076,0.3-0.087,0.459c-0.028,0.389,0.047,0.761,0.226,1.113
	c0.002,0.023,0.004,0.046,0.008,0.069c0.085,0.65,0.284,1.247,0.59,1.774c0.121,0.207,0.273,0.386,0.45,0.532
	c0.074,0.239,0.192,0.464,0.351,0.663c0.003,0.198,0.036,0.399,0.102,0.597c0.09,0.271,0.232,0.51,0.413,0.71
	c0.044,0.14,0.102,0.273,0.173,0.397c-0.325-0.11-0.688-0.214-1.094-0.282c-0.326-0.138-0.713-0.259-1.092-0.326
	c-0.161-0.075-0.324-0.141-0.488-0.205c-0.108-0.042-0.222-0.082-0.338-0.124c-0.125-0.044-0.253-0.09-0.414-0.154
	c-0.137-0.053-0.336-0.132-0.507-0.231c-0.083-0.047-0.12-0.077-0.122-0.077v0c-0.389-0.438-0.938-0.671-1.496-0.671
	c-0.044,0-0.09,0.001-0.135,0.004c-0.031-0.006-0.063-0.012-0.097-0.018c-0.11-0.066-0.228-0.122-0.352-0.166
	c-0.516-0.185-0.943-0.475-1.271-0.863c-0.234-0.277-0.546-0.484-0.89-0.602c-0.104-0.075-0.215-0.14-0.332-0.194
	c-0.274-0.196-0.588-0.317-0.912-0.359c-0.121-0.108-0.235-0.229-0.305-0.338c-0.256-0.396-0.634-0.677-1.06-0.816
	c-0.224-0.162-0.48-0.275-0.753-0.333c-0.104-0.022-0.309-0.088-0.65-0.282c-0.197-0.288-0.465-0.518-0.774-0.669
	C4.25,51.03,4.215,51,4.179,50.972L3.963,50.8C3.588,50.5,3.17,50.165,2.677,49.895z M68.19,117.81
	c-0.03,0.001-0.06,0.002-0.09,0.002c-0.168,0-0.339-0.021-0.507-0.065c-0.03-0.008-0.061-0.016-0.09-0.025
	c-0.064,0.009-0.13,0.016-0.196,0.019c-0.03,0.001-0.06,0.002-0.09,0.002c-0.639,0-1.231-0.305-1.603-0.805
	c-0.078-0.045-0.176-0.099-0.251-0.14c-0.193-0.105-0.38-0.209-0.54-0.312c-0.286-0.184-0.511-0.432-0.667-0.714
	c-0.215-0.117-0.403-0.27-0.558-0.449c-0.201-0.023-0.4-0.077-0.593-0.164c-0.541-0.245-0.956-0.547-1.242-0.904
	c0.007,0.206,0,0.398-0.021,0.587c-0.058,0.537-0.326,1.007-0.719,1.331c0.005,0.066,0.007,0.135,0.007,0.208
	c0.034,0.057,0.064,0.116,0.093,0.177c0.105,0.228,0.166,0.471,0.181,0.716c0.075,0.414,0.031,0.767-0.056,1.049
	c0.063,0.201,0.093,0.408,0.091,0.612c0.02,0.078,0.037,0.155,0.049,0.233c0.321-0.068,0.697-0.121,1.124-0.158
	c0.612-0.042,1.201-0.065,1.78-0.088c1.03-0.041,2.095-0.083,2.791-0.215c0.057-0.011,0.115-0.019,0.173-0.025
	c0.162-0.016,0.445-0.055,0.767-0.099c0.386-0.053,0.805-0.109,1.18-0.152c-0.138-0.066-0.269-0.148-0.39-0.246
	C68.663,118.063,68.428,117.935,68.19,117.81z M19.962,17.495c0.004,0.063,0.005,0.125,0.004,0.187
	c0.126,0.388,0.131,0.808,0.012,1.201c0.119,0.497,0.251,0.786,0.354,0.951c0.162,0.261,0.26,0.554,0.29,0.855
	c0.237,0.46,0.295,1.008,0.126,1.531c-0.054,0.167-0.087,0.42-0.089,0.683c0.246,0.301,0.403,0.672,0.442,1.071
	c0,0.003,0.001,0.005,0.001,0.008c0.055,0.162,0.088,0.331,0.1,0.5c0.175,0.384,0.235,0.821,0.152,1.234
	c-0.032,0.16-0.054,0.323-0.065,0.485c-0.004,0.148,0.003,0.305,0.021,0.477c0.038,0.35,0.126,0.712,0.264,1.072
	c0.059,0.154,0.097,0.313,0.116,0.474c0.037,0.056,0.072,0.115,0.106,0.177c0.512,0.46,0.762,1.164,0.628,1.864
	c-0.005,0.025-0.018,0.125,0.013,0.35c0.033,0.227,0.088,0.458,0.16,0.674l0.129,0.396c0.146,0.441,0.295,0.893,0.379,1.355
	c0.102,0.198,0.194,0.418,0.276,0.657c0.095,0.269,0.169,0.521,0.22,0.759c0.39,0.788,0.567,1.556,0.687,2.184
	c0.129,0.25,0.223,0.463,0.302,0.645c0.085,0.194,0.147,0.334,0.239,0.497c0.111,0.198,0.188,0.413,0.226,0.634
	c0.106,0.215,0.2,0.455,0.281,0.718l0.034,0.109c0.023,0.067,0.042,0.134,0.058,0.202c0.231,0.488,0.427,1.056,0.519,1.621
	c0.064,0.128,0.117,0.261,0.158,0.396c0.069,0.151,0.119,0.312,0.149,0.478c0.006,0.011,0.011,0.023,0.017,0.034
	c0.134,0.273,0.358,0.731,0.391,1.335c0.002,0.04,0.003,0.079,0.003,0.118c0.252,0.251,0.434,0.567,0.524,0.916
	c0.01,0.039,0.02,0.079,0.029,0.12c0.162,0.255,0.267,0.547,0.3,0.857c0.011,0.042,0.024,0.083,0.037,0.125
	c0.05,0.167,0.097,0.333,0.13,0.503c0.037,0.183,0.047,0.366,0.034,0.545c0.034,0.06,0.069,0.12,0.104,0.18
	c0.12,0.198,0.201,0.41,0.246,0.626c0.044,0.087,0.082,0.177,0.112,0.268c0.033,0.059,0.062,0.119,0.088,0.181
	c0.219,0.316,0.313,0.636,0.351,0.887c0.02,0.134,0.027,0.269,0.02,0.402c0.034,0.097,0.066,0.185,0.091,0.233
	c0.176,0.209,0.306,0.45,0.384,0.707c0.11,0.194,0.188,0.407,0.229,0.631c0.084,0.178,0.152,0.361,0.205,0.544
	c0.119,0.192,0.205,0.403,0.253,0.625c0.069,0.313,0.171,0.655,0.313,1.042c0.098,0.261,0.239,0.557,0.388,0.87l0.103,0.217
	l0.123,0.255c0.221,0.458,0.447,0.925,0.657,1.412c0.003-0.002,0.007-0.004,0.011-0.006c0.173-0.179,0.378-0.325,0.605-0.428
	c0.084-0.082,0.174-0.157,0.271-0.223c0.004-0.003,0.008-0.007,0.012-0.011c0.135-0.125,0.286-0.23,0.449-0.313
	c0.218-0.111,0.463-0.301,0.657-0.458c0.253-0.219,0.521-0.447,0.811-0.666c0.079-0.095,0.164-0.182,0.253-0.255
	c2.045-1.684,4.013-3.811,6.015-6.504c1.726-2.323,3.292-4.782,5.132-7.725c0.084-0.25,0.203-0.46,0.317-0.624
	c0.01-0.021,0.021-0.041,0.031-0.06c0.095-0.177,0.216-0.338,0.358-0.478c0.144-0.265,0.282-0.508,0.419-0.752
	c0.187-0.331,0.374-0.66,0.577-1.053c0.013-0.024,0.025-0.048,0.039-0.071c0.043-0.099,0.094-0.194,0.152-0.285
	c0.448-0.698,0.862-1.438,1.3-2.22c0.415-0.741,0.844-1.507,1.317-2.261c0.345-0.675,0.722-1.381,1.201-2.054
	c0.096-0.213,0.203-0.379,0.284-0.498c0.093-0.259,0.239-0.498,0.429-0.7c0.031-0.052,0.057-0.107,0.085-0.162
	c0.111-0.214,0.264-0.508,0.5-0.808c0.282-0.565,0.605-1.065,0.896-1.514c0.266-0.411,0.517-0.799,0.704-1.182
	c0.101-0.208,0.237-0.396,0.401-0.557c0.208-0.361,0.437-0.692,0.647-0.994c0.196-0.283,0.419-0.604,0.492-0.775
	c0.104-0.241,0.253-0.458,0.438-0.639c0.047-0.083,0.111-0.189,0.195-0.304c0.107-0.228,0.257-0.434,0.442-0.607
	c0.006-0.011,0.013-0.021,0.019-0.032c0.078-0.13,0.162-0.268,0.26-0.409c0.166-0.236,0.378-0.512,0.585-0.78l0.172-0.223
	c0.096-0.124,0.153-0.203,0.187-0.25c0.069-0.171,0.162-0.332,0.276-0.479c0.306-0.392,0.604-0.793,0.903-1.195
	c0.572-0.768,1.16-1.559,1.821-2.322c0.08-0.156,0.181-0.302,0.301-0.433l0.464-0.507c0.164-0.174,0.307-0.328,0.446-0.485
	c0.255-0.286,0.491-0.583,0.724-0.914c0.146-0.207,0.33-0.384,0.54-0.521c0.084-0.104,0.168-0.199,0.25-0.284
	c0.042-0.069,0.087-0.136,0.137-0.199c0.202-0.258,0.423-0.432,0.586-0.543c0.306-0.39,0.606-0.728,0.915-1.031
	c0.191-0.19,0.386-0.374,0.568-0.542c0.122-0.208,0.282-0.396,0.477-0.553c0.327-0.263,0.665-0.566,1.033-0.928
	c0.39-0.381,0.783-0.757,1.174-1.129c0.09-0.085,0.187-0.162,0.291-0.229c0.201-0.29,0.475-0.522,0.795-0.673
	c0.069-0.059,0.155-0.129,0.258-0.202c0.283-0.305,0.606-0.555,0.903-0.785c0.139-0.107,0.278-0.212,0.39-0.316
	c0.152-0.141,0.321-0.254,0.5-0.339c0.073-0.066,0.152-0.138,0.238-0.209c0.159-0.225,0.364-0.414,0.601-0.557
	c0.164-0.174,0.36-0.319,0.579-0.425c0.227-0.11,0.5-0.332,0.79-0.567c0.054-0.044,0.113-0.086,0.174-0.127
	C69.523,0.904,64.736,0.167,59.887,0c-0.214,0.853-0.964,1.471-1.852,1.51c-0.625,0.027-0.901,0.03-1.22,0.034
	c-0.25,0.007-0.571,0.029-1.279,0.078c-0.046,0.003-0.092,0.005-0.138,0.005c-0.098,0-0.193-0.007-0.288-0.021
	c-0.022,0.001-0.044,0.002-0.066,0.003c-0.156,0.035-0.321,0.058-0.497,0.068c-0.08,0.006-0.166,0.012-0.253,0.015
	c-0.076,0.021-0.156,0.04-0.239,0.054c-0.103,0.018-0.206,0.028-0.31,0.03c-0.118,0.002-0.442,0.038-0.636,0.059
	c-0.353,0.039-0.565,0.061-0.764,0.062c-0.149,0.041-0.312,0.073-0.49,0.096C51.767,2.004,51.68,2.01,51.594,2.01
	c-0.08,0-0.159-0.004-0.236-0.014c-0.107,0.01-0.203,0.018-0.268,0.02c-0.011,0-0.022,0.001-0.033,0.001
	c-0.135,0.027-0.283,0.052-0.449,0.077c-0.099,0.015-0.197,0.022-0.295,0.022c-0.181,0-0.359-0.024-0.53-0.072
	c-0.853-0.176-1.255-0.764-1.396-1.027c-0.053-0.1-0.097-0.202-0.132-0.308c-0.933,0.147-1.861,0.315-2.786,0.505
	c-0.124,0.274-0.311,0.522-0.556,0.723c-0.65,0.532-1.959,0.687-2.014,0.693c-0.077,0.008-0.153,0.013-0.229,0.013
	c-0.406,0-0.792-0.124-1.117-0.342c-0.024,0.008-0.049,0.016-0.074,0.023c-0.503,0.465-1.203,0.673-1.683,0.765
	c-0.632,0.348-1.346,0.472-1.689,0.513c-0.177,0.128-0.575,0.364-1.688,0.764c-0.223,0.08-0.451,0.118-0.676,0.118
	c-0.193,0-0.384-0.028-0.566-0.082c-0.02,0.127-0.051,0.252-0.095,0.373c0.019,0.065,0.035,0.131,0.047,0.199
	c0.285,1.551-1.101,2.199-1.623,2.443c-0.108,0.051-0.218,0.1-0.289,0.138c-0.079,0.042-0.16,0.079-0.243,0.11
	c-0.074,0.046-0.146,0.089-0.216,0.13c-0.105,0.065-0.289,0.172-0.49,0.286L32.026,8.22c-0.266,0.151-0.543,0.307-0.752,0.438
	c-0.329,0.204-0.694,0.302-1.054,0.302c-0.087,0-0.174-0.006-0.26-0.017c-0.063,0.125-0.139,0.244-0.229,0.355
	c-0.198,0.283-0.469,0.514-0.791,0.665c-0.114,0.054-0.209,0.093-0.295,0.125c-0.062,0.046-0.126,0.094-0.192,0.142
	c-0.166,0.122-0.343,0.248-0.447,0.339c-0.079,0.069-0.176,0.143-0.264,0.199c-0.184,0.116-0.408,0.242-0.674,0.327
	c-0.106,0.075-0.205,0.14-0.293,0.198c-0.146,0.096-0.251,0.165-0.353,0.254c-0.123,0.107-0.258,0.2-0.403,0.274
	c-0.076,0.039-0.146,0.073-0.215,0.106c-0.141,0.067-0.226,0.108-0.521,0.321c-0.257,0.186-0.544,0.301-0.837,0.35
	c-0.061,0.058-0.125,0.113-0.194,0.163l-0.331,0.244c-0.201,0.147-0.359,0.263-0.508,0.376c-0.056,0.081-0.119,0.159-0.188,0.233
	c-0.159,0.17-0.307,0.284-0.45,0.395c-0.07,0.054-0.163,0.126-0.292,0.232c-0.202,0.165-0.432,0.288-0.679,0.363
	c-0.03,0.017-0.073,0.043-0.125,0.078c-0.063,0.06-0.119,0.123-0.174,0.181c-0.122,0.129-0.264,0.28-0.437,0.431
	c-0.1,0.162-0.223,0.309-0.367,0.438c-0.168,0.231-0.387,0.458-0.656,0.682c-0.04,0.033-0.081,0.066-0.118,0.097
	c-0.009,0.011-0.018,0.021-0.027,0.032c0.021,0.214,0.036,0.45,0.051,0.691L19.962,17.495z M114.846,39.349
	c-0.02,0.01-0.039,0.019-0.059,0.028c0.145,0.397,0.168,0.839,0.055,1.25c-0.123,0.446-0.396,0.834-0.773,1.101
	c-0.119,0.096-0.291,0.232-0.525,0.356c-0.01,0.005-0.02,0.01-0.029,0.015c-0.07,0.081-0.145,0.162-0.227,0.241l-0.049,0.047
	c-0.047,0.053-0.096,0.104-0.148,0.151c-0.133,0.205-0.328,0.438-0.621,0.642c-0.08,0.085-0.154,0.154-0.213,0.208l-0.02,0.019
	c-0.213,0.274-0.494,0.489-0.814,0.622c-0.027,0.011-0.053,0.021-0.08,0.031c-0.219,0.332-0.535,0.597-0.914,0.752
	c-0.039,0.016-0.076,0.03-0.115,0.043c-0.02,0.013-0.039,0.026-0.059,0.038c-0.068,0.076-0.143,0.146-0.223,0.211
	c-0.115,0.166-0.271,0.352-0.488,0.527c-0.213,0.346-0.457,0.557-0.584,0.666c-0.295,0.301-0.668,0.493-1.063,0.566
	c-0.333,0.547-0.812,0.889-1.168,1.14c-0.271,0.42-0.604,0.649-0.758,0.756c-0.164,0.121-0.343,0.215-0.529,0.28
	c-0.142,0.285-0.35,0.532-0.605,0.72c-0.082,0.079-0.168,0.151-0.262,0.219c-0.304,0.337-0.658,0.577-0.949,0.772
	c-0.064,0.043-0.128,0.084-0.184,0.125c-0.164,0.172-0.354,0.321-0.566,0.44c-0.002,0.001-0.004,0.003-0.007,0.005
	c-0.188,0.173-0.38,0.303-0.528,0.401c-0.168,0.202-0.375,0.371-0.611,0.494c-0.294,0.264-0.641,0.48-1.038,0.647
	c-0.146,0.124-0.307,0.225-0.477,0.301c-0.012,0.012-0.023,0.023-0.034,0.035c-0.082,0.079-0.156,0.148-0.23,0.216
	c-0.05,0.046-0.102,0.09-0.145,0.135c-0.146,0.189-0.321,0.345-0.514,0.466c-0.15,0.166-0.33,0.31-0.534,0.426
	c-0.13,0.127-0.276,0.237-0.438,0.326c-0.117,0.065-0.266,0.178-0.417,0.3c-0.066,0.147-0.15,0.288-0.252,0.418
	c-0.003,0.012-0.007,0.023-0.011,0.035c-0.2,0.615-0.679,1.085-1.273,1.282c-0.045,0.038-0.091,0.079-0.136,0.118
	c-0.145,0.124-0.287,0.243-0.419,0.34c-0.239,0.176-0.506,0.293-0.783,0.35c-0.127,0.102-0.265,0.187-0.409,0.253
	c-0.072,0.126-0.16,0.246-0.261,0.357c-0.322,0.352-0.807,0.757-1.417,0.907c-0.012,0.009-0.023,0.017-0.036,0.026
	c-0.108,0.282-0.278,0.533-0.495,0.737c-0.249,0.33-0.589,0.568-0.969,0.693c-0.11,0.051-0.248,0.103-0.408,0.14
	c-0.082,0.042-0.166,0.08-0.252,0.11c-0.093,0.096-0.204,0.203-0.333,0.308c-0.141,0.241-0.334,0.455-0.575,0.625
	c-0.187,0.132-0.397,0.265-0.644,0.369c-0.177,0.231-0.402,0.422-0.66,0.557c-0.205,0.215-0.454,0.38-0.728,0.486
	c-0.083,0.049-0.168,0.091-0.256,0.126c-0.15,0.159-0.325,0.294-0.521,0.401c-0.019,0.019-0.039,0.037-0.058,0.055
	c-0.279,0.292-0.643,0.497-1.048,0.58c-0.052,0.063-0.107,0.123-0.166,0.179c-0.077,0.115-0.166,0.222-0.266,0.32
	c-0.202,0.196-0.411,0.332-0.598,0.428c-0.159,0.155-0.342,0.283-0.542,0.378c-0.151,0.088-0.396,0.213-0.716,0.271
	c-0.209,0.37-0.528,0.658-0.904,0.832c-0.044,0.027-0.09,0.053-0.135,0.077c-0.052,0.046-0.107,0.09-0.165,0.131
	c-0.117,0.105-0.29,0.254-0.525,0.389c-0.137,0.123-0.291,0.227-0.457,0.308c-0.022,0.048-0.045,0.095-0.071,0.14
	c-0.181,0.325-0.449,0.592-0.774,0.773c-0.147,0.082-0.372,0.207-0.667,0.287c-0.118,0.116-0.246,0.219-0.38,0.309
	c-0.267,0.381-0.6,0.667-0.992,0.852c-0.107,0.051-0.217,0.091-0.329,0.121c-0.291,0.366-0.703,0.621-1.167,0.715
	c-0.024,0.005-0.049,0.01-0.075,0.014c-0.115,0.151-0.252,0.285-0.407,0.398c-0.248,0.23-0.547,0.391-0.869,0.473
	c-0.007,0.006-0.014,0.013-0.021,0.019c-0.14,0.121-0.279,0.229-0.419,0.322c-0.115,0.11-0.244,0.207-0.383,0.288
	c-0.141,0.099-0.293,0.18-0.456,0.241c-0.02,0.023-0.04,0.046-0.06,0.069c-0.238,0.259-0.534,0.445-0.854,0.549
	c-0.057,0.033-0.116,0.063-0.176,0.091c-0.104,0.063-0.214,0.115-0.329,0.158c-0.179,0.132-0.381,0.235-0.599,0.302
	c-0.019,0.014-0.038,0.027-0.056,0.039c-0.236,0.243-0.53,0.423-0.854,0.521c-0.143,0.118-0.302,0.215-0.474,0.29
	c-0.089,0.039-0.181,0.074-0.272,0.108l-0.058,0.021c-0.074,0.037-0.15,0.069-0.227,0.096c-0.202,0.21-0.449,0.376-0.726,0.482
	c-0.129,0.112-0.273,0.208-0.43,0.285c-0.091,0.088-0.202,0.186-0.338,0.284c-0.216,0.303-0.514,0.54-0.86,0.684
	c-0.12,0.081-0.242,0.157-0.369,0.223c-0.211,0.109-0.438,0.179-0.668,0.208c-0.196,0.164-0.494,0.393-0.91,0.549
	c-0.07,0.038-0.142,0.072-0.214,0.101c-0.172,0.131-0.368,0.259-0.589,0.362c-0.121,0.154-0.265,0.29-0.429,0.404
	c-0.187,0.13-0.393,0.226-0.608,0.285c-0.083,0.065-0.17,0.123-0.263,0.174c-0.174,0.097-0.341,0.166-0.485,0.219
	c-0.152,0.111-0.304,0.196-0.45,0.26c-0.216,0.176-0.484,0.362-0.781,0.5c-0.027,0.017-0.054,0.033-0.083,0.048
	c-0.315,0.176-0.659,0.415-0.962,0.625c-0.075,0.053-0.154,0.1-0.235,0.141c-0.415,0.641-1.138,1.002-1.778,1.051
	c-0.038,0.017-0.077,0.033-0.117,0.049c-0.137,0.053-0.279,0.09-0.423,0.112c-0.276,0.18-0.606,0.386-0.997,0.55
	c-0.077,0.058-0.158,0.11-0.242,0.156c-0.039,0.021-0.082,0.043-0.128,0.066c-0.109,0.069-0.225,0.128-0.345,0.175
	c-0.042,0.039-0.085,0.076-0.131,0.111c-0.01,0.009-0.02,0.019-0.03,0.027c-0.169,0.232-0.392,0.431-0.661,0.577l-0.059,0.037
	c-0.149,0.093-0.399,0.249-0.727,0.362c-0.08,0.028-0.161,0.05-0.242,0.067c-0.121,0.071-0.25,0.129-0.384,0.174
	c-0.269,0.345-0.652,0.65-1.149,0.913c-0.209,0.11-0.432,0.181-0.658,0.212c-0.036,0.013-0.068,0.023-0.097,0.032
	c-0.041,0.013-0.082,0.024-0.123,0.033c-0.021,0.014-0.042,0.027-0.062,0.04c-0.102,0.118-0.216,0.222-0.341,0.313l0.119,0.121
	c0.606,0.613,1.355,1.371,2.051,2.167c0.636,0.536,1.294,1.119,1.881,1.822c0.202,0.152,0.35,0.308,0.454,0.425
	c0.26,0.16,0.481,0.379,0.645,0.639c0.029,0.022,0.059,0.044,0.088,0.067c0.202,0.154,0.503,0.383,0.782,0.72
	c0.043,0.032,0.087,0.064,0.129,0.096c0.074-0.062,0.15-0.123,0.228-0.184l0.079-0.063c0.188-0.151,0.379-0.302,0.575-0.434
	c0.159-0.107,0.318-0.211,0.478-0.311c0.221-0.195,0.438-0.338,0.628-0.456c0.088-0.054,0.175-0.104,0.261-0.152
	c0.231-0.231,0.516-0.402,0.829-0.498c0.15-0.135,0.319-0.246,0.5-0.33c0.028-0.02,0.058-0.04,0.088-0.059
	c0.129-0.083,0.268-0.15,0.412-0.202c0.33-0.116,0.675-0.275,1.041-0.443c0.457-0.21,0.962-0.442,1.513-0.623
	c0.116-0.068,0.239-0.126,0.362-0.169c1.552-0.537,3.195-0.987,5.17-1.417c1.48-0.321,3.065-0.613,4.846-0.892
	c2.705-0.419,5.535-0.767,8.88-1.092c0.209-0.072,0.434-0.115,0.667-0.126c0.013-0.002,0.026-0.004,0.038-0.006
	c0.107-0.018,0.216-0.026,0.324-0.026c0.091,0,0.181,0.006,0.271,0.019c0.255-0.04,0.494-0.072,0.732-0.104
	c0.322-0.043,0.642-0.086,1.011-0.152c0.02-0.003,0.04-0.007,0.06-0.01c0.11-0.027,0.223-0.045,0.336-0.053
	c0.771-0.054,1.549-0.168,2.374-0.288c0.646-0.094,1.313-0.191,1.991-0.26c0.598-0.122,1.251-0.25,1.943-0.291
	c0.165-0.043,0.312-0.063,0.428-0.075c0.211-0.074,0.434-0.112,0.659-0.112c0.031,0,0.063,0,0.094,0.002
	c0.016-0.004,0.031-0.008,0.047-0.012c0.194-0.047,0.478-0.116,0.82-0.131c0.459-0.121,0.893-0.188,1.284-0.248
	c0.409-0.063,0.762-0.118,1.054-0.217c0.208-0.071,0.425-0.106,0.642-0.106c0.019,0,0.037,0,0.055,0
	c0.283-0.067,0.557-0.112,0.809-0.154c0.196-0.033,0.494-0.082,0.59-0.118c0.252-0.119,0.52-0.179,0.789-0.184
	c0.055-0.015,0.113-0.03,0.176-0.042c0.208-0.079,0.43-0.122,0.652-0.128c0.105-0.033,0.217-0.065,0.334-0.092
	c0.193-0.042,0.391-0.079,0.592-0.115c0.141-0.025,0.355-0.064,0.49-0.094c0.172-0.089,0.355-0.154,0.548-0.19
	c0.265-0.051,0.522-0.119,0.782-0.188l0.134-0.035c0.239-0.063,0.479-0.127,0.718-0.197c0.506-0.149,0.986-0.282,1.453-0.401
	c0.164-0.088,0.342-0.153,0.528-0.192c0.611-0.13,1.154-0.256,1.59-0.471c0.232-0.114,0.48-0.182,0.734-0.201
	c0.041-0.015,0.082-0.029,0.121-0.042c0.045-0.025,0.09-0.048,0.137-0.07c0.264-0.121,0.51-0.173,0.707-0.196
	c0.463-0.216,0.92-0.37,1.348-0.5c0.203-0.14,0.438-0.244,0.689-0.3c0.445-0.101,0.938-0.321,1.459-0.553
	c0.164-0.073,0.328-0.146,0.492-0.217c0.059-0.025,0.117-0.047,0.178-0.067c0.266-0.187,0.574-0.307,0.898-0.348
	c0.029-0.012,0.063-0.023,0.096-0.035c0.107-0.062,0.213-0.118,0.318-0.168C120.023,64.541,119.381,51.315,114.846,39.349z
	 M49.364,104.637c-0.048-0.052-0.092-0.104-0.132-0.156c-0.072-0.052-0.141-0.109-0.207-0.171c-0.148-0.109-0.363-0.272-0.568-0.515
	c-0.181-0.129-0.339-0.288-0.468-0.47c-0.085-0.012-0.168-0.029-0.247-0.049c-0.382-0.102-0.726-0.314-0.987-0.611
	c-0.237-0.269-0.401-0.529-0.51-0.776c-0.188-0.122-0.354-0.265-0.5-0.418c-0.011-0.004-0.021-0.008-0.032-0.013
	c-0.479-0.204-0.861-0.506-1.134-0.9c-0.087-0.126-0.159-0.259-0.214-0.397c-0.481-0.223-0.857-0.63-1.039-1.133
	c-0.025-0.07-0.047-0.14-0.065-0.211c-0.225-0.104-0.43-0.25-0.604-0.43c-0.304-0.239-0.529-0.559-0.653-0.917
	c-0.17-0.135-0.334-0.285-0.483-0.449c-0.142-0.104-0.271-0.226-0.383-0.364c-0.148-0.148-0.272-0.318-0.368-0.505
	c-0.08-0.042-0.157-0.09-0.232-0.144c-0.295-0.213-0.519-0.495-0.659-0.812c-0.057-0.073-0.109-0.15-0.156-0.23
	c-0.09-0.115-0.167-0.241-0.229-0.373c-0.182-0.188-0.324-0.409-0.42-0.651c-0.033-0.035-0.063-0.068-0.09-0.1
	c-0.245-0.178-0.447-0.41-0.589-0.677c-0.368,0.203-0.759,0.354-1.166,0.452c-0.007,0.002-0.015,0.003-0.022,0.005
	c-0.304,0.183-0.633,0.284-0.983,0.303c-0.035,0.002-0.071,0.003-0.106,0.003c-0.087,0-0.174-0.006-0.259-0.017
	c-0.201,0.11-0.401,0.179-0.589,0.222c-0.257,0.244-0.564,0.408-0.89,0.489c-0.138,0.16-0.309,0.311-0.518,0.448
	c-0.306,0.201-0.656,0.311-1.012,0.326c-0.127,0.067-0.263,0.121-0.404,0.16c-0.223,0.176-0.481,0.303-0.759,0.371
	c-0.041,0.035-0.083,0.068-0.127,0.1c-0.142,0.104-0.297,0.19-0.461,0.253c-0.119,0.066-0.282,0.148-0.486,0.215
	c-0.129,0.042-0.259,0.07-0.39,0.085c-0.321,0.158-0.641,0.308-1.006,0.458c-0.006,0.005-0.013,0.01-0.019,0.014
	c-0.221,0.168-0.472,0.286-0.733,0.351c-0.107,0.042-0.231,0.082-0.371,0.11c-0.109,0.206-0.255,0.394-0.435,0.554
	c-0.096,0.086-0.195,0.164-0.298,0.233c-0.252,0.343-0.625,0.635-1.13,0.819c-0.225,0.082-0.456,0.121-0.683,0.121
	c-0.062,0-0.124-0.003-0.184-0.009c-0.015,0.009-0.03,0.017-0.045,0.025c-0.002,0.001-0.005,0.003-0.007,0.004
	c-0.067,0.091-0.143,0.177-0.227,0.257L25.01,99.59c-0.173,0.166-0.373,0.297-0.588,0.39c-0.114,0.334-0.313,0.625-0.567,0.85
	c-0.062,0.062-0.126,0.121-0.196,0.176c-0.281,0.224-0.616,0.367-0.97,0.417c-0.3,0.177-0.689,0.384-1.145,0.532
	c-0.204,0.065-0.411,0.097-0.615,0.097c-0.387,0-0.763-0.113-1.083-0.319c-0.018,0.01-0.037,0.021-0.055,0.03
	c-0.252,0.163-0.514,0.311-0.892,0.419c-0.001,0-0.002,0.001-0.002,0.001c-0.002,0.001-0.004,0.002-0.006,0.003
	c-0.194,0.266-0.452,0.482-0.752,0.627c0.247,0.205,0.524,0.478,0.851,0.837c0.225,0.247,0.379,0.541,0.458,0.851
	c0.088,0.068,0.182,0.139,0.279,0.209c0.23,0.167,0.417,0.375,0.554,0.607c0.297,0.167,0.586,0.409,0.946,0.713l0.341,0.285
	c0.09,0.074,0.171,0.155,0.245,0.241c0.248,0.217,0.431,0.485,0.544,0.775c0.152,0.116,0.267,0.203,0.298,0.227l0.246,0.19
	c0.05,0.039,0.114,0.088,0.187,0.15c0.259,0.185,0.459,0.352,0.633,0.498l0.14,0.116l0.167,0.137
	c0.071,0.059,0.138,0.115,0.209,0.17c0.181,0.093,0.407,0.215,0.689,0.42l0.735,0.533l0.438,0.313l0.277,0.175l0.205,0.13
	l0.174,0.107c0.645,0.4,1.311,0.814,1.868,1.099c0.094,0.048,0.184,0.103,0.269,0.165c0.098,0.071,0.179,0.141,0.246,0.206
	c0.026,0.02,0.052,0.04,0.076,0.061c0.051,0.018,0.102,0.038,0.151,0.06c0.1-0.016,0.203-0.024,0.306-0.024c0,0,0.001,0,0.001,0
	c0.468,0,0.764,0.146,1.051,0.286c0.116,0.057,0.444,0.218,0.601,0.285c0.25,0.072,0.484,0.192,0.689,0.355
	c0.072,0.05,0.219,0.14,0.298,0.181c0.308,0.111,0.584,0.297,0.805,0.541c0.014,0.015,0.027,0.031,0.04,0.046
	c0.118,0.076,0.228,0.164,0.328,0.262c0.089,0.019,0.176,0.042,0.262,0.073c0.109,0.005,0.22,0.02,0.331,0.044
	c0.044,0.01,0.1,0.024,0.16,0.042c0.245,0.038,0.485,0.122,0.708,0.253c0.287,0.169,0.506,0.354,0.672,0.546
	c0.039-0.002,0.079-0.003,0.118-0.003c0.204,0,0.411,0.031,0.613,0.097c0.161,0.028,0.32,0.075,0.473,0.143
	c0.349,0.155,0.586,0.24,0.886,0.347c0.319,0.114,0.668,0.24,1.186,0.455c0.402,0.167,0.723,0.453,0.937,0.801
	c0.044-0.05,0.091-0.098,0.141-0.143c0.005-0.005,0.01-0.009,0.016-0.014c0.044-0.041,0.091-0.079,0.139-0.115l0,0
	c0.347-0.259,0.776-0.403,1.211-0.403c0.283,0,0.485,0.052,0.765,0.125l0.079,0.021c0.204,0.053,0.392,0.135,0.563,0.242
	c0.129,0.041,0.25,0.082,0.335,0.116c0.516,0.207,0.903,0.608,1.103,1.09c0.056,0.003,0.111,0.009,0.167,0.017
	c0.796,0.113,1.885,0.4,2.462,0.561c0.087,0.024,0.171,0.054,0.252,0.088c0.041-0.002,0.082-0.003,0.124-0.003
	c0.331,0,0.642,0.062,0.916,0.116c0.031,0.006,0.063,0.013,0.093,0.019c0.037-0.002,0.074-0.003,0.111-0.003
	c0.339,0,0.584,0.084,0.73,0.135l0.245,0.083c0.171,0.057,0.329,0.136,0.473,0.231c0.076,0.011,0.148,0.028,0.235,0.052
	c0.179,0.049,0.342,0.117,0.489,0.198c-0.028-0.235-0.016-0.475,0.041-0.706c0.122-0.5,0.122-1.02,0.001-1.589
	c-0.031-0.146-0.045-0.292-0.044-0.438c-0.013-0.034-0.025-0.069-0.036-0.105c-0.331-0.509-0.421-1.155-0.209-1.754
	c0.039-0.114,0.047-0.411,0.026-0.883l-0.008-0.162c-0.022-0.442-0.046-0.896-0.007-1.342c-0.069-0.444-0.068-0.921-0.019-1.329
	c-0.033-0.363-0.031-0.731,0.005-1.116c0.025-0.307,0.073-0.607,0.123-0.879c-0.011-0.289,0-0.521,0.009-0.716
	c0.006-0.124,0.013-0.248,0.006-0.399c-0.01-0.218,0.016-0.436,0.076-0.644c0.005-0.214,0.029-0.448,0.075-0.703l0.014-0.08
	c0.01-0.06,0.022-0.118,0.038-0.175c0.017-0.213,0.045-0.406,0.073-0.565c0.005-0.028,0.011-0.057,0.017-0.085
	c-0.014-0.034-0.026-0.068-0.038-0.102C50.099,105.352,49.655,105.051,49.364,104.637z M108.814,93.083
	c-0.051,0-0.104-0.002-0.154-0.006c-0.016,0-0.031,0-0.045,0c-0.113,0-0.225-0.01-0.332-0.028c-0.041,0.002-0.082,0.003-0.121,0.003
	c-0.012,0-0.021,0-0.031,0c-0.09,0.037-0.188,0.075-0.293,0.108c-0.222,0.159-0.479,0.274-0.761,0.333
	c-0.231,0.047-0.43,0.071-0.622,0.074c-0.23,0.117-0.482,0.188-0.739,0.209c-0.228,0.086-0.468,0.129-0.708,0.129
	c-0.04,0-0.08-0.001-0.121-0.003c-0.053,0.004-0.105,0.006-0.158,0.006c-0.004,0-0.009,0-0.014,0
	c-0.164,0.062-0.336,0.103-0.515,0.121c-0.009,0.003-0.017,0.006-0.025,0.009c-0.241,0.099-0.499,0.15-0.761,0.15
	c-0.119,0-0.237-0.01-0.355-0.032c-0.025,0.011-0.051,0.021-0.076,0.03c-0.112,0.069-0.232,0.126-0.357,0.172
	c-0.217,0.079-0.443,0.125-0.678,0.138c-0.202,0.066-0.412,0.1-0.624,0.1c-0.005,0-0.011,0-0.017,0
	c-0.063,0.004-0.121,0.006-0.167,0.006c-0.144,0-0.286-0.016-0.425-0.045c-0.313,0.187-0.668,0.281-1.023,0.281
	c-0.017,0-0.033,0-0.049,0c-0.032,0.002-0.065,0.004-0.1,0.005c-0.044,0.011-0.089,0.02-0.134,0.027
	c-0.136,0.039-0.339,0.09-0.586,0.105c-0.116,0.029-0.235,0.048-0.354,0.056c-0.319,0.239-0.703,0.378-1.102,0.397
	c-0.077,0.004-0.147,0.006-0.21,0.006c-0.148,0-0.289-0.013-0.421-0.036c-0.093,0.026-0.189,0.047-0.287,0.063
	c-0.364,0.194-0.746,0.292-1.137,0.292c-0.034,0-0.083-0.001-0.117-0.003c-0.074-0.004-0.147-0.012-0.218-0.023
	c-0.232,0.09-0.478,0.136-0.725,0.136c-0.176,0-0.352-0.023-0.524-0.07c-0.127,0.049-0.26,0.084-0.396,0.106
	c-0.167,0.044-0.338,0.066-0.509,0.066c-0.141,0-0.282-0.015-0.42-0.044c-0.113,0.026-0.224,0.047-0.332,0.062
	c-0.145,0.042-0.295,0.068-0.447,0.077c-0.088,0.012-0.177,0.018-0.267,0.018c-0.048,0-0.097-0.002-0.145-0.005
	c-0.022,0.008-0.043,0.016-0.065,0.023c-0.208,0.069-0.423,0.103-0.634,0.103c-0.109,0-0.218-0.009-0.325-0.026
	c-0.008,0-0.015,0-0.022,0c-0.039,0-0.078-0.001-0.117-0.003c-0.025,0.001-0.05,0.001-0.076,0.001c-0.074,0-0.148-0.004-0.222-0.012
	c-0.079,0.009-0.159,0.014-0.238,0.014c-0.105,0-0.209-0.008-0.313-0.024c-0.185,0.055-0.376,0.082-0.568,0.082
	c-0.113,0-0.226-0.01-0.338-0.029c-0.103,0.016-0.207,0.024-0.311,0.024c-0.058,0-0.117-0.002-0.175-0.008
	c-0.1-0.009-0.199-0.023-0.298-0.039c-0.004-0.001-0.001-0.001,0.007-0.001c0.01,0,0.028,0,0.047,0
	c-0.064-0.001-0.127-0.005-0.189-0.012c-0.174,0.048-0.354,0.073-0.536,0.073c-0.065,0-0.131-0.003-0.197-0.01
	c-0.111,0.021-0.224,0.033-0.338,0.035c-0.081,0.024-0.171,0.047-0.27,0.067c-0.281,0.142-0.591,0.216-0.905,0.216
	c-0.046,0-0.092-0.001-0.138-0.005c-0.128,0.014-0.24,0.022-0.353,0.022c-0.21,0-0.417-0.033-0.613-0.096
	c-0.152,0.03-0.341,0.056-0.556,0.056c-0.109,0-0.219-0.007-0.328-0.021c-0.038-0.001-0.076-0.002-0.113-0.005
	c-0.149,0.025-0.311,0.042-0.481,0.042c-0.155,0.065-0.318,0.111-0.487,0.135c-0.096,0.014-0.192,0.021-0.288,0.021
	c-0.119,0-0.237-0.011-0.354-0.032c-0.083,0.012-0.168,0.019-0.253,0.021c-0.01,0-0.034,0-0.044,0c-0.121,0-0.231-0.007-0.33-0.018
	c-0.116,0.018-0.232,0.027-0.348,0.027c-0.009,0-0.017,0-0.025,0c-0.226,0.054-0.483,0.094-0.748,0.094c-0.012,0-0.023,0-0.035,0
	c-0.021,0.002-0.042,0.003-0.063,0.005c-0.231,0.014-0.511,0.063-0.807,0.116c-0.049,0.009-0.099,0.016-0.15,0.021
	c-0.342,0.207-0.744,0.321-1.164,0.321c-0.281,0-0.55-0.051-0.796-0.145c-0.003,0-0.005,0-0.008,0
	c-0.115-0.009-0.228-0.028-0.338-0.056c-0.202,0.033-0.451,0.065-0.727,0.069c-0.08,0.019-0.162,0.033-0.244,0.042
	c-0.038,0.004-0.073,0.007-0.104,0.009c-0.076,0.013-0.152,0.021-0.228,0.025c-0.241,0.158-0.52,0.266-0.823,0.307
	c-0.145,0.032-0.374,0.08-0.664,0.08c-0.039,0-0.111-0.002-0.149-0.004c-0.056-0.003-0.111-0.009-0.166-0.017
	c-0.026,0.003-0.053,0.005-0.08,0.007c-0.319,0.193-0.702,0.327-1.139,0.396c-0.103,0.016-0.207,0.024-0.309,0.024
	c-0.1,0-0.198-0.007-0.295-0.022c-0.165,0.091-0.341,0.158-0.524,0.2c-0.115,0.043-0.25,0.083-0.403,0.11
	c-0.081,0.014-0.161,0.022-0.242,0.026c-0.11,0.056-0.224,0.102-0.34,0.137c-0.19,0.113-0.39,0.194-0.587,0.249
	c-0.076,0.031-0.154,0.058-0.234,0.08c-0.18,0.061-0.391,0.131-0.641,0.165c-0.029,0.009-0.057,0.017-0.084,0.024
	c-0.221,0.088-0.458,0.137-0.698,0.143c0.336,0.245,0.683,0.489,1.041,0.741l0.23,0.162c0.59,0.379,1.171,0.756,1.747,1.171
	c0.197,0.071,0.383,0.172,0.552,0.303l0.579,0.45c0.122,0.092,0.267,0.185,0.412,0.28l0.061,0.04
	c0.355,0.229,0.664,0.396,0.961,0.519c0.288,0.119,0.542,0.303,0.745,0.535c0.09,0.049,0.173,0.1,0.251,0.151
	c0.05,0.017,0.1,0.035,0.149,0.056c0.34,0.145,0.585,0.342,0.753,0.504c0.399,0.172,0.804,0.378,1.227,0.627
	c0.215,0.126,0.427,0.258,0.637,0.396c0.259,0.055,0.509,0.161,0.736,0.32c0.316,0.223,0.688,0.438,1.205,0.7
	c0.41,0.206,0.906,0.449,1.406,0.663c0.116,0.05,0.227,0.11,0.331,0.181c0.388,0.071,0.748,0.255,1.034,0.532
	c0.076,0.039,0.159,0.083,0.246,0.138c0.256,0.084,0.484,0.189,0.687,0.282l0.087,0.04l0.262,0.123
	c0.17,0.081,0.364,0.172,0.469,0.208c0.227,0.077,0.432,0.192,0.609,0.335c0.055,0.018,0.111,0.037,0.17,0.059
	c0.302,0.018,0.598,0.104,0.864,0.252c0.276,0.063,0.54,0.184,0.771,0.36c0.11,0.083,0.411,0.18,0.676,0.266l0.143,0.046
	c0.206,0.067,0.398,0.167,0.571,0.295c0.296,0.061,0.592,0.142,0.92,0.248c0.158,0.051,0.308,0.121,0.446,0.208
	c0.466,0.089,1.124,0.284,1.629,0.709c0.083-0.01,0.168-0.015,0.254-0.015c0.031,0,0.088,0.001,0.12,0.002
	c0.281,0.013,0.555,0.085,0.806,0.212c0.105,0.024,0.208,0.057,0.308,0.097c0.141,0.026,0.27,0.063,0.388,0.105
	c0.542-0.369,1.077-0.746,1.601-1.128c6.557-4.774,11.966-10.638,16.129-17.473c-0.305,0.182-0.656,0.281-1.018,0.282
	C108.818,93.083,108.816,93.083,108.814,93.083z M53.145,71.055l2.999-1.943l1.51-0.979c1.486-0.996,2.874-1.905,4.211-2.758
	c0.195-0.203,0.407-0.35,0.589-0.453c0.021-0.017,0.043-0.033,0.063-0.048c0.157-0.114,0.329-0.204,0.511-0.268
	c0.289-0.217,0.559-0.411,0.829-0.605c0.311-0.223,0.622-0.446,0.972-0.716c0.023-0.018,0.046-0.035,0.07-0.052
	c0.083-0.073,0.171-0.14,0.265-0.199c0.88-0.553,1.73-1.16,2.631-1.803c0.6-0.428,1.199-0.855,1.806-1.266
	c0.608-0.492,1.26-1,2.001-1.434c0.177-0.159,0.346-0.269,0.472-0.347c0.194-0.207,0.43-0.37,0.693-0.479
	c0.048-0.035,0.093-0.074,0.14-0.112c0.188-0.153,0.444-0.36,0.779-0.54c0.456-0.401,0.924-0.732,1.344-1.03
	c0.416-0.294,0.809-0.572,1.127-0.872c0.176-0.166,0.379-0.297,0.6-0.39c0.311-0.251,0.628-0.47,0.918-0.67
	c0.275-0.189,0.617-0.424,0.738-0.555c0.182-0.196,0.401-0.353,0.642-0.461c0.072-0.062,0.163-0.136,0.272-0.211
	c0.169-0.172,0.37-0.312,0.591-0.413c0.003-0.002,0.006-0.005,0.009-0.008c0.112-0.1,0.232-0.205,0.367-0.308
	c0.202-0.155,0.452-0.328,0.701-0.5c0.168-0.116,0.408-0.28,0.539-0.381c0.119-0.15,0.259-0.283,0.417-0.395
	c0.55-0.388,1.086-0.8,1.654-1.237c0.573-0.44,1.163-0.893,1.778-1.328c0.112-0.132,0.241-0.25,0.385-0.349l0.216-0.149
	c0.613-0.422,1.191-0.821,1.642-1.282c0.189-0.194,0.416-0.346,0.665-0.449c0.088-0.076,0.175-0.145,0.259-0.206
	c0.044-0.051,0.092-0.1,0.141-0.146c0.243-0.229,0.494-0.368,0.681-0.454c0.527-0.493,1.082-0.906,1.604-1.266
	c0.147-0.191,0.33-0.357,0.544-0.487c0.53-0.323,1.049-0.766,1.599-1.235c0.209-0.179,0.419-0.357,0.631-0.532
	c0.082-0.067,0.168-0.128,0.259-0.181c0.215-0.278,0.5-0.497,0.828-0.63c0.067-0.052,0.145-0.109,0.233-0.166
	c0.271-0.274,0.573-0.501,0.851-0.71c0.14-0.105,0.283-0.208,0.395-0.31c0.156-0.142,0.329-0.255,0.512-0.34
	c0.049-0.045,0.101-0.094,0.157-0.143c0.157-0.235,0.362-0.434,0.603-0.585c0.174-0.19,0.385-0.346,0.623-0.458
	c0.104-0.048,0.308-0.237,0.487-0.404l0.145-0.134c0.141-0.129,0.3-0.237,0.471-0.321c0.199-0.221,0.425-0.442,0.705-0.682
	c0.109-0.092,0.226-0.172,0.35-0.239c0.318-0.352,0.799-0.782,1.375-0.991c0.062-0.116,0.134-0.229,0.218-0.338
	c0.147-0.19,0.327-0.353,0.532-0.479c0.004-0.002,0.007-0.005,0.011-0.007c0.073-0.071,0.151-0.136,0.233-0.196
	c0.364-0.376,0.761-0.553,0.924-0.626c0.033-0.015,0.066-0.028,0.099-0.041c0.013-0.012,0.026-0.025,0.039-0.037
	c0.156-0.15,0.333-0.271,0.523-0.361c0.032-0.023,0.06-0.044,0.085-0.063c0.007-0.012,0.015-0.024,0.022-0.036
	c0.099-0.15,0.216-0.284,0.347-0.4c0.184-0.232,0.443-0.47,0.805-0.638c0.057-0.041,0.114-0.08,0.174-0.115
	c0.121-0.1,0.279-0.209,0.479-0.302c0.084-0.117,0.18-0.223,0.283-0.316c0.088-0.11,0.188-0.21,0.299-0.3
	c0.041-0.056,0.086-0.11,0.133-0.162c0.274-0.429,0.695-0.774,1.18-0.956c0.162-0.135,0.326-0.243,0.48-0.321
	c0.109-0.055,0.221-0.1,0.336-0.133c0.076-0.09,0.16-0.172,0.252-0.246c0.045-0.047,0.09-0.089,0.131-0.127
	c0.119-0.105,0.25-0.196,0.391-0.271c0.004-0.004,0.008-0.009,0.01-0.013c-0.838-1.367-1.711-2.677-2.613-3.915
	c-5.144-7.063-11.556-12.8-19.086-17.079c-0.128,0.09-0.268,0.165-0.416,0.223c-0.11,0.051-0.27,0.123-0.477,0.18
	c-0.059,0.043-0.121,0.085-0.186,0.127c-0.005,0.003-0.007,0.004-0.007,0.004c-0.002,0,0.013-0.011,0.025-0.021
	c-0.049,0.038-0.099,0.073-0.15,0.106c-0.158,0.165-0.371,0.339-0.653,0.476c-0.064,0.047-0.121,0.086-0.167,0.117
	c-0.251,0.234-0.559,0.4-0.894,0.48c-0.257,0.256-0.583,0.442-0.949,0.53c-0.016,0.003-0.032,0.007-0.049,0.011
	c-0.051,0.041-0.104,0.079-0.158,0.114c-0.109,0.12-0.247,0.247-0.419,0.365c-0.223,0.288-0.46,0.459-0.584,0.546
	c-0.286,0.237-0.624,0.384-0.975,0.438c-0.303,0.378-0.67,0.621-0.958,0.795c-0.268,0.367-0.576,0.566-0.709,0.653
	c-0.122,0.084-0.25,0.154-0.384,0.208c-0.133,0.229-0.31,0.43-0.521,0.589c-0.065,0.063-0.134,0.123-0.208,0.179
	c-0.197,0.22-0.414,0.393-0.609,0.533c-0.043,0.033-0.127,0.094-0.209,0.153c-0.042,0.029-0.083,0.058-0.121,0.086
	c-0.146,0.161-0.317,0.303-0.506,0.419c-0.134,0.128-0.267,0.23-0.376,0.311c-0.146,0.192-0.328,0.357-0.537,0.487
	c-0.299,0.296-0.614,0.488-0.861,0.611c-0.114,0.107-0.239,0.199-0.372,0.276c-0.036,0.042-0.07,0.081-0.102,0.118
	c-0.033,0.038-0.066,0.074-0.096,0.112c-0.116,0.2-0.263,0.374-0.431,0.518c-0.116,0.162-0.257,0.31-0.42,0.438
	c-0.111,0.138-0.241,0.262-0.388,0.367c-0.042,0.03-0.113,0.104-0.187,0.184c-0.03,0.105-0.07,0.208-0.118,0.308
	c-0.003,0.021-0.006,0.042-0.009,0.063c-0.096,0.617-0.471,1.141-0.996,1.437c-0.023,0.029-0.047,0.059-0.07,0.088
	c-0.096,0.119-0.191,0.233-0.28,0.331c-0.191,0.209-0.419,0.37-0.666,0.48c-0.068,0.076-0.142,0.145-0.22,0.208
	c-0.041,0.111-0.091,0.22-0.152,0.326c-0.308,0.528-0.653,0.859-0.993,1.062c-0.04,0.248-0.127,0.485-0.253,0.699
	c-0.154,0.38-0.42,0.697-0.752,0.916c-0.102,0.083-0.204,0.151-0.306,0.208c-0.046,0.042-0.095,0.082-0.145,0.119
	c-0.044,0.078-0.09,0.152-0.137,0.224c-0.066,0.271-0.189,0.533-0.372,0.765c-0.142,0.181-0.283,0.334-0.43,0.464
	c-0.095,0.239-0.235,0.458-0.413,0.643c-0.13,0.255-0.312,0.478-0.533,0.655c-0.037,0.04-0.076,0.078-0.115,0.114
	c-0.081,0.168-0.184,0.326-0.31,0.469c-0.004,0.009-0.009,0.018-0.014,0.027c-0.152,0.344-0.399,0.642-0.719,0.855
	c-0.017,0.043-0.035,0.085-0.054,0.127c-0.029,0.12-0.07,0.238-0.122,0.353c-0.11,0.243-0.249,0.438-0.382,0.592
	c-0.093,0.195-0.216,0.375-0.366,0.53c-0.152,0.182-0.31,0.323-0.469,0.433c-0.072,0.387-0.255,0.74-0.521,1.018
	c-0.021,0.027-0.042,0.054-0.064,0.079c-0.027,0.052-0.056,0.104-0.088,0.154c-0.062,0.125-0.159,0.312-0.313,0.51
	c-0.064,0.131-0.144,0.254-0.235,0.367c-0.001,0.027-0.003,0.053-0.006,0.08c-0.035,0.373-0.174,0.728-0.401,1.025
	c-0.079,0.104-0.225,0.294-0.446,0.48c-0.05,0.121-0.11,0.239-0.18,0.354c-0.089,0.438-0.273,0.821-0.547,1.139
	c-0.065,0.075-0.135,0.145-0.208,0.208c-0.123,0.435-0.392,0.82-0.766,1.086c-0.003,0.002-0.006,0.004-0.009,0.006
	c-0.043,0.162-0.106,0.318-0.189,0.465c-0.127,0.299-0.324,0.56-0.571,0.763c-0.057,0.13-0.123,0.26-0.196,0.385
	c-0.056,0.148-0.13,0.291-0.22,0.423c-0.078,0.138-0.172,0.267-0.28,0.383c-0.007,0.025-0.014,0.05-0.022,0.075
	c-0.103,0.324-0.283,0.608-0.517,0.833c-0.035,0.051-0.073,0.1-0.113,0.147c-0.063,0.094-0.135,0.184-0.213,0.266
	c-0.1,0.183-0.229,0.351-0.385,0.497c-0.01,0.017-0.019,0.034-0.028,0.049c-0.108,0.305-0.29,0.579-0.528,0.799
	c-0.076,0.155-0.171,0.3-0.286,0.433c-0.066,0.076-0.136,0.149-0.207,0.222l-0.04,0.041c-0.046,0.058-0.095,0.113-0.147,0.164
	c-0.093,0.26-0.241,0.501-0.436,0.705c-0.064,0.138-0.144,0.27-0.239,0.392c-0.042,0.113-0.098,0.242-0.174,0.38
	c-0.068,0.354-0.232,0.686-0.476,0.957c-0.071,0.118-0.146,0.233-0.228,0.341c-0.14,0.184-0.31,0.34-0.499,0.464
	c-0.11,0.224-0.284,0.549-0.59,0.858c-0.001,0-0.001,0.001-0.002,0.002c-0.044,0.057-0.089,0.11-0.135,0.159
	c-0.103,0.188-0.231,0.387-0.394,0.573c-0.049,0.179-0.124,0.352-0.223,0.514c-0.119,0.195-0.27,0.366-0.443,0.507
	c-0.055,0.098-0.117,0.191-0.188,0.279c-0.104,0.13-0.211,0.242-0.306,0.333c-0.093,0.164-0.199,0.306-0.315,0.431
	c-0.127,0.239-0.297,0.507-0.508,0.744c-0.014,0.02-0.028,0.039-0.042,0.058c-0.208,0.275-0.428,0.59-0.67,0.961
	c-0.055,0.085-0.117,0.165-0.184,0.241c-0.085,0.39-0.28,0.758-0.572,1.075c-0.201,0.218-0.432,0.39-0.681,0.51
	c-0.035,0.035-0.071,0.07-0.11,0.104c-0.112,0.1-0.233,0.185-0.362,0.256c-0.198,0.261-0.438,0.566-0.75,0.853
	c-0.053,0.08-0.112,0.156-0.176,0.227c-0.032,0.036-0.063,0.07-0.096,0.102c-0.085,0.108-0.181,0.208-0.286,0.297
	c-0.033,0.06-0.068,0.117-0.106,0.173c-0.011,0.02-0.022,0.04-0.034,0.059c-0.091,0.256-0.235,0.497-0.434,0.706l-0.047,0.055
	c-0.112,0.132-0.299,0.354-0.57,0.561c-0.078,0.06-0.16,0.112-0.244,0.159c-0.105,0.114-0.223,0.216-0.354,0.304
	c0,0-0.001,0.001-0.001,0.001c-0.17,0.404-0.467,0.798-0.892,1.189c-0.165,0.151-0.351,0.271-0.548,0.359
	c-0.031,0.022-0.061,0.042-0.089,0.06c-0.048,0.031-0.098,0.06-0.148,0.086c-0.027,0.029-0.053,0.057-0.078,0.082
	c-0.132,0.253-0.316,0.475-0.541,0.651c-0.084,0.094-0.192,0.2-0.329,0.304c-0.121,0.092-0.249,0.168-0.383,0.229
	c-0.031,0.037-0.059,0.07-0.076,0.094c-0.142,0.207-0.315,0.378-0.511,0.512c-0.164,0.211-0.363,0.4-0.583,0.557
	c-0.06,0.06-0.125,0.116-0.193,0.168l-0.067,0.053c-0.208,0.167-0.457,0.367-0.769,0.514c-0.082,0.063-0.16,0.116-0.229,0.158
	c-0.256,0.219-0.566,0.373-0.904,0.441c-0.133,0.121-0.282,0.225-0.444,0.307c-0.033,0.024-0.066,0.048-0.101,0.072
	c-0.188,0.154-0.4,0.271-0.628,0.348c-0.072,0.057-0.15,0.112-0.234,0.166c-0.226,0.219-0.478,0.389-0.754,0.508
	c-0.073,0.032-0.147,0.059-0.222,0.081c-0.122,0.101-0.278,0.228-0.473,0.351l0.831,1.35c0.178,0.299,0.358,0.563,0.538,0.828
	l0.238,0.355l0.823,1.22c0.154,0.225,0.312,0.46,0.47,0.696c0.39,0.582,0.759,1.132,1.154,1.656l1.034,1.428l0.731,1.01l0.417,0.581
	l0.434,0.561l0.713,0.93l0.199,0.259l0.131,0.173l0.321-0.184c1.319-0.755,2.565-1.468,3.79-2.245l0.441-0.273l1.859-1.154
	l1.141-0.708c0.208-0.132,0.429-0.276,0.649-0.421L53.145,71.055z M20.167,88.964c0.299-0.205,0.627-0.392,0.996-0.568
	c0.267-0.133,0.546-0.252,0.832-0.367c0.229-0.162,0.423-0.281,0.587-0.381c0.129-0.079,0.256-0.155,0.404-0.264
	c0.166-0.123,0.349-0.219,0.542-0.285c0.173-0.117,0.371-0.231,0.596-0.34l0.096-0.047c0.06-0.031,0.12-0.059,0.182-0.083
	c0.157-0.099,0.325-0.194,0.503-0.287c0.222-0.118,0.538-0.268,0.893-0.386c0.116-0.079,0.237-0.147,0.364-0.205
	c0.122-0.074,0.254-0.136,0.393-0.184c0.013-0.009,0.026-0.018,0.039-0.026c0.227-0.147,0.606-0.395,1.122-0.514
	c0.063-0.015,0.125-0.026,0.187-0.034c0.211-0.24,0.478-0.427,0.779-0.544c0.032-0.013,0.065-0.025,0.099-0.037
	c0.213-0.165,0.46-0.287,0.73-0.354c-0.001-0.003,0.042-0.024,0.085-0.044c0.142-0.064,0.285-0.127,0.431-0.18
	c0.171-0.062,0.347-0.098,0.521-0.112c0.068-0.044,0.135-0.09,0.202-0.137c0.165-0.116,0.342-0.203,0.525-0.263
	c0.001-0.001,0.003-0.002,0.005-0.003c-0.138-0.169-0.269-0.358-0.375-0.561c-0.024-0.034-0.047-0.069-0.07-0.106
	c-0.21-0.341-0.469-0.681-0.787-1.088c-0.071-0.091-0.134-0.188-0.188-0.29c-0.755-0.383-1.221-1.184-1.273-1.937
	c-0.025-0.051-0.05-0.104-0.073-0.159c-0.066-0.159-0.112-0.325-0.135-0.493l-0.092-0.128c-0.211-0.314-0.423-0.656-0.591-1.037
	c-0.074-0.087-0.141-0.181-0.199-0.28c-0.029-0.05-0.056-0.099-0.08-0.147c-0.087-0.125-0.16-0.261-0.217-0.403
	c-0.055-0.052-0.106-0.106-0.155-0.164c-0.017-0.016-0.033-0.032-0.049-0.048c-0.269-0.167-0.502-0.399-0.673-0.69l-0.051-0.076
	c-0.12-0.178-0.302-0.446-0.434-0.817c-0.033-0.092-0.059-0.185-0.077-0.279c-0.107-0.165-0.19-0.347-0.245-0.539
	c-0.371-0.257-0.746-0.667-1.078-1.304c-0.122-0.234-0.194-0.485-0.217-0.738c-0.016-0.044-0.028-0.084-0.038-0.119
	c-0.013-0.044-0.023-0.088-0.033-0.133c-0.025-0.036-0.047-0.069-0.068-0.102c-0.253-0.192-0.457-0.443-0.594-0.729
	c-0.086-0.112-0.178-0.252-0.259-0.423c-0.082-0.173-0.138-0.354-0.167-0.539c-0.042-0.053-0.076-0.095-0.095-0.116
	c-0.084-0.084-0.159-0.173-0.225-0.267c-0.092-0.024-0.183-0.054-0.271-0.091c-0.057,0.005-0.114,0.007-0.172,0.007
	c-0.161,0-0.322-0.02-0.481-0.059c-0.126,0.024-0.253,0.037-0.381,0.037c-0.206,0-0.412-0.032-0.61-0.095
	c-0.085,0.016-0.172,0.026-0.26,0.033c-0.047,0.003-0.095,0.005-0.143,0.005c-0.13,0-0.26-0.013-0.388-0.038
	c-0.143-0.011-0.316-0.027-0.518-0.074c-0.149-0.035-0.291-0.086-0.424-0.151c-0.155-0.022-0.294-0.046-0.434-0.071l-0.1-0.018
	c-0.285-0.046-0.563-0.107-0.824-0.172c-0.014,0-0.027,0-0.041,0c-0.264,0-0.523-0.052-0.763-0.15
	c-0.157-0.04-0.344-0.106-0.541-0.217c-0.019-0.002-0.038-0.005-0.056-0.009c-0.231,0.092-0.481,0.141-0.738,0.141
	c-0.028,0-0.055,0-0.083-0.001c-0.134-0.006-0.265-0.02-0.392-0.042c-0.12,0.02-0.244,0.031-0.37,0.031
	c-0.328,0-0.666-0.073-1.004-0.217c-0.282-0.12-0.523-0.298-0.715-0.515c-0.085-0.025-0.167-0.048-0.249-0.071
	c-0.08,0.01-0.161,0.015-0.243,0.015c-0.057,0-0.113-0.002-0.17-0.007l-0.109-0.009c-0.255-0.021-0.501-0.092-0.726-0.204
	c-0.245,0.101-0.502,0.149-0.758,0.149c-0.111,0-0.222-0.009-0.332-0.027c-0.085-0.009-0.172-0.021-0.247-0.037
	c-0.316-0.067-0.61-0.209-0.858-0.414c-0.016-0.012-0.033-0.025-0.05-0.039c-0.44-0.156-0.823-0.33-1.169-0.531
	c-0.546-0.317-0.892-0.859-0.976-1.448c-0.063-0.021-0.125-0.047-0.187-0.075c-0.026-0.012-0.046-0.019-0.065-0.026
	c-0.228-0.085-0.496-0.196-0.827-0.444c-0.021-0.009-0.042-0.019-0.064-0.029C6.001,64.741,6,64.74,5.998,64.739
	c-0.365-0.007-0.725-0.113-1.038-0.313c-0.257-0.114-0.654-0.335-0.968-0.782c-0.033-0.028-0.066-0.057-0.097-0.087
	c-0.058-0.018-0.117-0.036-0.176-0.056c-0.26-0.086-0.492-0.222-0.688-0.393c-0.427-0.177-0.873-0.474-1.159-0.976
	c-0.245-0.141-0.579-0.382-0.834-0.798c-0.23-0.083-0.446-0.208-0.634-0.373c-0.066-0.048-0.154-0.115-0.251-0.203
	c0.024,0.231,0.032,0.49,0.001,0.754c0.018,0.295,0.023,0.632,0.024,1.018c0.008,0.468,0.048,0.957,0.064,1.144
	C0.278,64.085,0.187,64.48,0,64.818c0.006,0.117,0.016,0.233,0.032,0.346c0.007,0.052,0.013,0.104,0.016,0.156
	c0.097,0.473,0.168,1.075,0.249,1.864l0.02,0.187c0.029,0.269,0.072,0.666,0.107,0.833c0.054,0.132,0.094,0.27,0.118,0.41
	c0.115,0.653,0.185,1.203,0.246,1.688l0.026,0.202c0.033,0.259,0.062,0.479,0.098,0.704c0.05,0.231,0.107,0.472,0.177,0.733
	c0.036,0.131,0.057,0.263,0.065,0.395c0.037,0.103,0.066,0.209,0.086,0.317c0.145,0.781,0.301,1.422,0.49,2.018
	c0.134,0.456,0.257,0.882,0.375,1.323c0.048,0.18,0.095,0.365,0.141,0.552C2.283,76.692,2.32,76.84,2.36,76.99
	c0.045,0.076,0.089,0.159,0.129,0.247c0.029,0.063,0.055,0.128,0.077,0.194c0.258,0.771,0.415,1.289,0.54,1.705l0.054,0.177
	c0.027,0.089,0.051,0.173,0.08,0.252c0.044,0.117,0.097,0.248,0.158,0.386c0.078,0.179,0.129,0.369,0.153,0.563
	c0.022,0.068,0.07,0.207,0.167,0.45c0.052,0.13,0.089,0.264,0.112,0.398c0.023,0.065,0.046,0.13,0.069,0.196
	c0.142,0.262,0.232,0.572,0.25,0.926c0.021,0.084,0.035,0.168,0.044,0.252c0.065,0.156,0.113,0.298,0.159,0.431
	c0.009,0.025,0.018,0.052,0.028,0.08c0.09,0.094,0.167,0.193,0.233,0.293c0.045,0.051,0.087,0.104,0.127,0.161
	c0.075,0.104,0.564,0.82,0.579,1.674c0.13,0.248,0.279,0.549,0.459,0.921c0.132,0.271,0.274,0.562,0.421,0.847l0.065,0.126
	c0.096,0.185,0.194,0.375,0.263,0.473c0.042,0.06,0.082,0.122,0.117,0.186c0.271-0.132,0.573-0.203,0.885-0.203
	c0.013,0,0.026,0,0.039,0c1.116,0.021,1.688,0.881,1.904,1.205c0.05,0.076,0.104,0.162,0.161,0.253l0.068,0.109l0.09,0.134
	l0.129,0.193c0.577,0.866,0.392,2.03-0.424,2.676c-0.029,0.023-0.058,0.044-0.088,0.066l0.546,0.819
	c0.046,0.069,0.087,0.139,0.124,0.211c0.051,0.056,0.104,0.116,0.163,0.185c0.058,0.069,0.111,0.142,0.16,0.218
	c0.008-0.002,0.016-0.004,0.024-0.006c0.22-0.261,0.506-0.466,0.836-0.587c0.003-0.001,0.006-0.002,0.008-0.003
	c0.13-0.081,0.269-0.146,0.414-0.196c0.297-0.226,0.656-0.372,1.027-0.408c0.306-0.029,0.61-0.096,0.905-0.199
	c0.313-0.11,0.59-0.246,0.843-0.416c0.133-0.089,0.276-0.162,0.424-0.216c0.055-0.053,0.111-0.102,0.166-0.146
	c0.339-0.493,0.89-0.821,1.514-0.863c0.113-0.007,0.373-0.081,0.966-0.387l0.278-0.153c0.366-0.202,0.74-0.409,1.132-0.567
	C19.315,89.366,19.763,89.125,20.167,88.964z" class="color c1"/>
</svg>