<svg version="1.1" id="图层_1" x="0px" y="0px" width="180px" height="55.568px" viewBox="0 0 180 55.568" enable-background="new 0 0 180 55.568" xml:space="preserve" xmlns:xml="http://www.w3.org/XML/1998/namespace" xmlns="http://www.w3.org/2000/svg" xmlns:xlink="http://www.w3.org/1999/xlink">
  <g>
    <path fill="#FFFFFF" d="M168.049,1.182c-1.094-1.021-2.811-0.964-3.834,0.131c-1.021,1.094-0.963,2.811,0.131,3.833
		c6.502,6.07,10.231,14.651,10.231,23.542c0,8.352-3.183,16.268-8.963,22.291c-1.037,1.08-1.001,2.798,0.079,3.834
		c0.523,0.504,1.201,0.755,1.877,0.755c0.713,0,1.425-0.279,1.957-0.834C176.281,47.696,180,38.446,180,28.688
		C180,18.301,175.645,8.275,168.049,1.182z" class="color c1"/>
    <path fill="#FFFFFF" d="M5.424,26.882c0-8.353,3.183-16.269,8.962-22.292c1.038-1.081,1.002-2.798-0.078-3.834
		c-1.082-1.038-2.799-1.003-3.834,0.078C3.72,7.873,0,17.123,0,26.882c0,10.386,4.356,20.411,11.954,27.505
		c0.522,0.486,1.187,0.729,1.85,0.729c0.726,0,1.448-0.29,1.982-0.861c1.022-1.094,0.964-2.81-0.132-3.833
		C9.152,44.351,5.424,35.769,5.424,26.882z" class="color c1"/>
  </g>
</svg>