<svg version="1.1" id="图层_1" x="0px" y="0px" width="87.152px" height="204px" viewBox="0 0 87.152 204" enable-background="new 0 0 87.152 204" xml:space="preserve" xmlns="http://www.w3.org/2000/svg" xmlns:xlink="http://www.w3.org/1999/xlink" xmlns:xml="http://www.w3.org/XML/1998/namespace">
  <path fill="#DBB767" d="M69.676,28.245c-1.07,13.457-12.322,24.046-26.054,24.046c-14.44,0-26.146-11.706-26.146-26.146
	C17.476,11.706,29.182,0,43.622,0c2.424,0,4.768,0.337,6.995,0.954c-1.227-0.2-2.484-0.309-3.768-0.309
	c-12.835,0-23.241,10.405-23.241,23.241c0,12.835,10.405,23.241,23.241,23.241C58.194,47.127,67.635,38.996,69.676,28.245z
	 M0,38.411c0,0,45.835,57.133,22.272,165.589c0,0,22.595-86.506,37.12-113.943c0,0-19.044,50.032,5.165,112.652
	c0,0-26.284-88.766,22.595-163.652c0,0-32.094,35.184-45.19,77.468l-6.456,21.949C35.506,138.475,42.285,86.829,0,38.411z" class="color c1"/>
</svg>