<svg version="1.1" id="图层_1" x="0px" y="0px" width="130.961px" height="130.96px" viewBox="0 0 130.961 130.96" enable-background="new 0 0 130.961 130.96" xml:space="preserve" xmlns="http://www.w3.org/2000/svg" xmlns:xlink="http://www.w3.org/1999/xlink" xmlns:xml="http://www.w3.org/XML/1998/namespace">
  <circle fill="#0D2463" cx="65.48" cy="65.48" r="65.48" class="color c1"/>
  <path fill="#EF930E" d="M125.148,65.479c0,0.368,0,0.717,0,1.071c-5.621,2.331-11.535,3.877-17.58,4.59
	c-1.082-25.318-13.131-48.909-32.996-64.637C103.652,11.022,125.112,36.048,125.148,65.479z" class="color c2"/>
  <path fill="#EF930E" d="M118.309,93.172c-23.709,12.736-52.197,12.883-76.033,0.379C47.789,83.497,55.838,75.06,65.62,69.074
	c10.521,5.686,22.294,8.656,34.253,8.644c8.443-0.009,16.814-1.5,24.739-4.404C123.702,80.253,121.567,86.978,118.309,93.172z" class="color c2"/>
  <path fill="#EF930E" d="M36.599,13.296c4.822,3.7,9.112,8.054,12.742,12.929C27.979,39.807,13.574,62.006,9.873,87.051
	C-0.941,59.243,10.48,27.723,36.599,13.296z" class="color c2"/>
  <path fill="#FFFFFF" d="M101.434,71.599c-11.473,0.249-22.813-2.512-32.892-8.002C67.922,42.99,58.52,23.631,42.703,10.404
	c6.452-2.718,13.336-4.275,20.332-4.591C85.979,19.992,100.372,44.65,101.434,71.599z" class="color c3"/>
  <path fill="#FFFFFF" d="M15.089,97.438c0.789-26.937,14.909-51.722,37.68-66.139c6.005,9.809,9.334,21.018,9.653,32.512
	c-17.569,10.816-29.67,28.637-33.243,48.959c-5.56-4.275-10.328-9.49-14.09-15.408V97.438z" class="color c3"/>
  <path fill="#FFFFFF" d="M65.482,125.146c-10.839,0.012-21.476-2.945-30.751-8.553c0.797-6.012,2.419-11.887,4.82-17.457
	c12.451,6.525,26.301,9.926,40.357,9.916c10.965-0.009,21.826-2.086,32.021-6.123C100.614,116.991,83.531,125.157,65.482,125.146z" class="color c3"/>
</svg>