<svg version="1.1" id="图层_1" x="0px" y="0px" width="162.9px" height="118.3px" viewBox="0 0 162.9 118.3" enable-background="new 0 0 162.9 118.3" xml:space="preserve" xmlns:xml="http://www.w3.org/XML/1998/namespace" xmlns="http://www.w3.org/2000/svg" xmlns:xlink="http://www.w3.org/1999/xlink">
  <path fill="#FFFFFD" d="M161.7,5.2c-0.9-3.3-3.1-5.2-6.4-5.2c-0.6,0-1.3,0.1-2,0.2c-0.198,0-0.398,0.1-0.6,0.1h-0.1l-2.7,0.6
	c-2,0.4-3.9,0.8-5.9,1.3c-3.3,0.7-6.6,1.5-10,2.2c-8.8,1.9-17.898,3.9-26.898,5.9C99.4,12,91.6,13.9,84,15.7
	c-4.1,0.9-8.1,1.9-12.2,2.8c-0.698,0.2-1.5,0.3-2.3,0.5c-0.398,0.1-0.8,0.1-1.2,0.2h-0.1h-0.1c-1.5,0.4-14.9,3.6-19.302,5.4h-0.1
	l-0.1,0.1c-8.1,3.8-14.499,7.5-20.1,11.5C17.7,44,9.9,53.9,5.3,65.8C3.5,70.5,2.5,75.3,1.6,80.1L1.5,80.701
	c-0.6,2.899-0.8,5.699-1.1,8.5C0.3,90.3,0.2,91.4,0.1,92.4c-0.302,2.801,1,5.2,3.398,6.2l0.4,0.2c1.5,0.6,3.2,1.3,5.2,1.5
	c0.1,0,0.198,0,0.398,0.1c-0.1,0.9,0,1.7,0,2.1v0.102c0.102,1,0.3,2.102,0.602,3.199c0.198,1,0.1,1.601-0.2,2.101
	C9.3,109,8.8,110.3,8.5,111.701C8.1,113.4,8.5,115,9.4,116.3c1,1.199,2.398,1.9,4,1.9c0.3,0,0.7,0,1-0.102
	c0.8-0.102,1.6-0.398,2.398-0.898c3.802-2.201,4.802-5.9,5.4-8.5c0.4-1.4,0.9-2.9,1.5-4.5c0.3-0.602,0.9-2.302,0.6-4.302
	c1.9-0.899,3.802-1.8,5.5-2.5c2.102-0.899,3.2-2.698,3.302-4.899c0-1,0.1-2.101,0.1-3.199c0-0.7,0.1-1.301,0.1-2
	c0.4-7.801,2.102-14.5,5.2-20.4c0.102-0.199,0.2-0.4,0.3-0.6c0.102,0.1,0.302,0.199,0.5,0.3C40.5,67.4,41.9,68.3,43.4,69
	c2.398,1.102,4.898,1.701,7.2,1.701c3.5,0,8.5-1.301,12.6-7.301c2.2-3.199,3.6-7,4.3-11.7c1-0.3,1.9-0.6,2.9-0.9
	c1.5-0.5,3.1-0.9,4.6-1.4c6.5-1.8,13-3.7,19.5-5.5c10.102-2.8,20.602-5.8,30.8-8.7c3.802-1.1,7.602-2.2,11.2-3.3
	c2.8-0.8,5.5-1.6,8.3-2.4c2.102-0.6,3.5-2.1,4-4.2c0.102-0.6,0.302-1.1,0.4-1.7c0.2-0.9,0.4-1.9,0.7-2.8c2.5-0.7,5.1-1.4,7.898-2.3
	c3.4-1,5.102-3.3,4.9-6.8C162.6,9.2,162.2,7.1,161.7,5.2z" class="color c1"/>
  <path fill="#0A0A0A" d="M158.8,12.4c-0.099-1.9-0.398-3.8-0.898-5.6c-0.701-2.6-1.602-3-4.102-2.6c-0.198,0-0.3,0.1-0.5,0.1
	c-2.8,0.6-5.698,1.2-8.5,1.8c-12.198,2.7-24.5,5.3-36.8,8.1c-11.8,2.7-23.5,5.5-35.3,8.2c-1.201,0.3-2.401,0.5-3.6,0.7
	c0,0-14.5,3.5-18.801,5.2c-6.8,3.2-13.3,6.8-19.5,11.2c-9.8,7-17.3,16.2-22.1,27.9c-1.701,4.5-2.6,9.4-3.6,14.2
	C4.4,85.3,4.1,89.201,3.7,93c-0.1,0.801,0.099,1.701,0.9,2C6,95.5,7.5,96.201,9,96.3c1.3,0.1,2.2,0.699,3.2,1.4
	c1.1,0.699,1.6,1.699,1,3.1c-0.2,0.4-0.1,0.9,0,1.3c0.1,1,0.3,2,0.5,2.899c0.5,1.701,0.3,3.299-0.5,4.899
	c-0.4,0.802-0.8,1.802-1,2.802c-0.3,1.1,0.4,1.698,1.4,1.5c0.398,0,0.8-0.201,1.198-0.4c2.2-1.301,2.9-3.6,3.5-6
	c0.5-1.7,1-3.4,1.7-5c0.401-1,0.602-1.9,0.102-2.9c-0.7-1.5-0.601-2,0.899-2.699C23.4,96.1,25.8,95,28.2,93.9
	c0.599-0.199,0.9-0.6,0.9-1.3c0.1-1.7,0.198-3.5,0.3-5.2c0.3-7.8,2-15.199,5.7-22.1c1.899-3.6,3.199-3.9,6.5-1.701
	c1.199,0.701,2.3,1.5,3.6,2.102c5.901,2.698,11.1,1.198,14.8-4.201C62.3,58.1,63.3,54.2,63.8,50.2c0.102-0.9,0.5-1.4,1.302-1.6
	c3-0.8,5.898-1.8,8.898-2.6c16.8-4.7,33.601-9.4,50.401-14.2c6.5-1.8,13-3.8,19.5-5.7c0.7-0.2,1-0.6,1.2-1.3
	c0.399-1.9,0.899-3.9,1.3-5.8c0.099-0.8,0.5-1.1,1.2-1.3c3.099-0.8,6.099-1.7,9.198-2.6C158.401,14.6,158.901,14.1,158.8,12.4z
	 M14.3,113.3c-0.198,0.099-0.698-0.301-0.698-0.6c-0.201-0.9,0.5-2.5,1.398-2.9c0.299-0.1,0.601,0,0.9,0
	C16.2,110.8,15,113.3,14.3,113.3z M57.1,62.4C53.5,66,48.9,66.3,44.8,63C43.6,62,42.6,60.8,41.499,59.701
	c-0.5-0.401-0.6-0.901,0-1.301c1.901-1.4,3.8-2.8,5.8-4.1c1.102-0.6,1.901-0.2,2.302,1c0.3,1,0.5,2,0.6,3c0.2,1.7,1.2,2.8,2.6,3.5
	c0.2,0.1,0.5,0.1,0.801,0c0.198-0.301,0.1-0.6,0-0.801C53,59.8,52.4,58.8,51.9,57.6c-1.2-2.9-0.5-5.2,2.3-6.3
	c2.599-1.1,5.5-1.6,8.4-2.4C62.1,54.2,60.6,58.8,57.1,62.4z" class="color c2"/>
</svg>