<svg version="1.1" id="图层_1" x="0px" y="0px" width="119.631px" height="119.633px" viewBox="0 0 119.631 119.633" enable-background="new 0 0 119.631 119.633" xml:space="preserve" xmlns="http://www.w3.org/2000/svg" xmlns:xlink="http://www.w3.org/1999/xlink" xmlns:xml="http://www.w3.org/XML/1998/namespace">
  <circle fill="#254169" cx="59.816" cy="59.816" r="59.816" class="color c1"/>
  <path fill="#EBBF61" d="M27.245,16.498C14.111,26.387,5.616,42.111,5.616,59.816c0,29.936,24.265,54.2,54.198,54.2
	c8.106,0,15.791-1.791,22.693-4.98C64.16,95.277,30.863,35.568,27.245,16.498z M47.795,78.523c1.31-0.813,3.038-0.412,3.854,0.897
	c0.991,1.597,1.973,3.136,2.942,4.625c0.844,1.293,0.479,3.024-0.814,3.869c-0.473,0.31-1.001,0.455-1.526,0.455
	c-0.914,0-1.81-0.449-2.346-1.271c-0.992-1.521-1.994-3.093-3.007-4.724C46.08,81.064,46.483,79.34,47.795,78.523z M43.988,66.406
	c0.879,1.566,1.785,3.158,2.723,4.777c0.775,1.336,0.32,3.047-1.017,3.821c-0.442,0.256-0.924,0.377-1.401,0.377
	c-0.965,0-1.904-0.498-2.424-1.393c-0.951-1.644-1.872-3.259-2.764-4.851c-0.755-1.348-0.274-3.055,1.075-3.807
	C41.523,64.58,43.232,65.057,43.988,66.406z M36.898,53.068c0.8,1.592,1.635,3.219,2.506,4.883c0.717,1.369,0.189,3.059-1.178,3.777
	c-0.416,0.217-0.859,0.317-1.297,0.317c-1.008,0-1.981-0.543-2.48-1.498c-0.888-1.693-1.737-3.352-2.551-4.971
	c-0.693-1.381-0.137-3.063,1.245-3.756C34.523,51.129,36.205,51.688,36.898,53.068z M30.495,39.418
	c0.697,1.607,1.441,3.273,2.237,4.998c0.646,1.404,0.032,3.066-1.37,3.715c-0.381,0.174-0.779,0.256-1.17,0.256
	c-1.057,0-2.071-0.604-2.543-1.629c-0.813-1.762-1.575-3.469-2.288-5.115c-0.614-1.416,0.036-3.064,1.454-3.678
	C28.233,37.351,29.879,38.002,30.495,39.418z M21.563,23.672c1.468-0.482,3.049,0.316,3.531,1.785
	c0.527,1.604,1.134,3.324,1.806,5.111c0.542,1.447-0.189,3.061-1.635,3.602c-0.324,0.125-0.656,0.182-0.983,0.182
	c-1.131,0-2.197-0.693-2.62-1.814c-0.698-1.863-1.332-3.66-1.883-5.336C19.295,25.734,20.094,24.154,21.563,23.672z M15.678,39.24
	c-0.648-1.736-1.236-3.4-1.746-4.945c-0.466-1.408,0.298-2.924,1.704-3.389c1.411-0.467,2.925,0.299,3.39,1.703
	c0.49,1.482,1.054,3.084,1.678,4.756c0.518,1.391-0.188,2.934-1.577,3.451c-0.309,0.115-0.625,0.17-0.936,0.17
	C17.103,40.988,16.079,40.32,15.678,39.24z M23.617,54.051c-1.021,0-1.996-0.588-2.445-1.576c-0.738-1.631-1.438-3.221-2.096-4.764
	c-0.582-1.363,0.051-2.939,1.414-3.521c1.363-0.58,2.939,0.053,3.521,1.414c0.644,1.508,1.327,3.063,2.049,4.654
	c0.612,1.348,0.014,2.939-1.335,3.551C24.364,53.973,23.987,54.051,23.617,54.051z M29.809,66.768c-0.969,0-1.905-0.526-2.383-1.447
	c-0.812-1.561-1.597-3.104-2.353-4.629c-0.658-1.33-0.117-2.938,1.211-3.595c1.327-0.654,2.938-0.119,3.595,1.211
	c0.742,1.492,1.511,3.007,2.308,4.537c0.684,1.316,0.172,2.936-1.142,3.619C30.648,66.668,30.226,66.768,29.809,66.768z
	 M38.025,78.762c-0.429,0.254-0.898,0.371-1.362,0.371c-0.918,0-1.812-0.471-2.313-1.316c-0.889-1.506-1.753-3.006-2.594-4.502
	c-0.728-1.289-0.271-2.926,1.021-3.651c1.29-0.728,2.927-0.271,3.654,1.019c0.825,1.465,1.672,2.934,2.541,4.403
	C39.725,76.363,39.301,78.008,38.025,78.762z M45.551,90.732c-0.451,0.291-0.957,0.43-1.456,0.43c-0.879,0-1.741-0.43-2.255-1.223
	c-0.9-1.394-1.825-2.851-2.779-4.377c-0.785-1.258-0.402-2.912,0.854-3.699c1.256-0.779,2.911-0.4,3.697,0.857
	c0.938,1.5,1.849,2.936,2.735,4.303C47.15,88.266,46.795,89.928,45.551,90.732z M53.717,102.273
	c-0.481,0.358-1.042,0.531-1.599,0.531c-0.819,0-1.628-0.373-2.155-1.082c-0.974-1.31-1.992-2.718-3.051-4.229
	c-0.85-1.216-0.556-2.89,0.658-3.738c1.214-0.849,2.887-0.555,3.737,0.656c1.029,1.469,2.016,2.836,2.962,4.108
	C55.153,99.709,54.906,101.389,53.717,102.273z M56.082,91.305c1.258-0.897,3.004-0.604,3.903,0.65c1.089,1.523,2.178,3,3.237,4.389
	c0.936,1.23,0.698,2.984-0.531,3.922c-0.506,0.387-1.103,0.574-1.691,0.574c-0.844,0-1.678-0.381-2.228-1.104
	c-1.092-1.437-2.215-2.957-3.336-4.527C54.534,93.951,54.825,92.203,56.082,91.305z M63.144,112.795
	c-0.524,0.529-1.215,0.795-1.906,0.795c-0.682,0-1.364-0.256-1.887-0.775c-1.167-1.155-2.393-2.471-3.643-3.905
	c-0.973-1.117-0.855-2.813,0.263-3.785c1.118-0.972,2.813-0.854,3.786,0.267c1.161,1.334,2.294,2.549,3.369,3.612
	C64.176,110.041,64.187,111.742,63.144,112.795z M72.829,111.621c-0.545,0.537-1.254,0.805-1.962,0.805
	c-0.724,0-1.446-0.279-1.993-0.834c-1.246-1.266-2.551-2.678-3.873-4.188c-1.018-1.164-0.898-2.93,0.264-3.949
	c1.166-1.018,2.932-0.898,3.949,0.266c1.252,1.43,2.479,2.756,3.648,3.943C73.944,108.768,73.933,110.537,72.829,111.621z
	 M83.909,105.469c0.643,0.521,1.464,1.137,2.328,1.668c16.57-9.272,27.779-26.981,27.779-47.32c0-29.932-24.269-54.197-54.2-54.197
	c-10.831,0-20.911,3.189-29.376,8.66C30.621,25.553,64.942,90.086,83.909,105.469z M55.237,50.34
	c-0.429,0.24-0.896,0.355-1.355,0.355c-0.967,0-1.907-0.506-2.416-1.41c-0.952-1.691-1.858-3.338-2.718-4.938
	C48.025,43,48.53,41.32,49.877,40.594c1.347-0.723,3.026-0.217,3.75,1.131c0.843,1.568,1.731,3.184,2.666,4.844
	C57.043,47.9,56.57,49.59,55.237,50.34z M63.163,63.488c-0.451,0.272-0.947,0.406-1.439,0.406c-0.934,0-1.845-0.474-2.366-1.328
	l-0.114-0.183c-0.975-1.563-1.91-3.092-2.812-4.588c-0.79-1.311-0.368-3.012,0.942-3.801c1.311-0.787,3.014-0.365,3.801,0.939
	c0.889,1.475,1.811,2.979,2.766,4.516l0.145,0.232C64.881,60.99,64.47,62.693,63.163,63.488z M71.315,76.496
	c-0.457,0.285-0.965,0.422-1.467,0.422c-0.923,0-1.824-0.463-2.351-1.301l-2.959-4.734c-0.812-1.299-0.413-3.006,0.883-3.816
	c1.298-0.811,3.005-0.414,3.815,0.884l2.955,4.729C73.004,73.975,72.612,75.684,71.315,76.496z M79.549,89.453
	c-0.462,0.299-0.981,0.441-1.495,0.441c-0.91,0-1.801-0.449-2.33-1.273c-0.955-1.484-1.959-3.057-3.014-4.723
	c-0.818-1.291-0.436-3,0.857-3.818s3-0.436,3.82,0.855c1.047,1.653,2.043,3.217,2.99,4.688
	C81.209,86.912,80.836,88.625,79.549,89.453z M88.235,102.105c-0.489,0.356-1.06,0.526-1.623,0.526
	c-0.855,0-1.701-0.396-2.242-1.143c-0.98-1.354-2.043-2.873-3.245-4.65c-0.856-1.269-0.524-2.987,0.741-3.844
	c1.266-0.859,2.988-0.527,3.844,0.739c1.17,1.726,2.195,3.199,3.145,4.505C89.749,99.477,89.474,101.209,88.235,102.105z
	 M90.493,89.059c1.271-0.854,2.988-0.522,3.846,0.742c1.112,1.646,2.143,3.125,3.064,4.395c0.896,1.238,0.619,2.97-0.617,3.867
	c-0.492,0.355-1.061,0.527-1.622,0.527c-0.856,0-1.704-0.396-2.245-1.145c-0.957-1.32-2.021-2.851-3.167-4.543
	C88.896,91.637,89.226,89.916,90.493,89.059z M82.397,76.449c1.291-0.818,3.002-0.436,3.819,0.857
	c1.023,1.61,1.996,3.137,2.923,4.573c0.826,1.289,0.457,3.004-0.832,3.83c-0.463,0.297-0.982,0.438-1.496,0.438
	c-0.908,0-1.802-0.448-2.33-1.271c-0.935-1.446-1.91-2.983-2.94-4.608C80.724,78.979,81.106,77.268,82.397,76.449z M74.446,63.748
	c1.295-0.811,3.005-0.414,3.816,0.885l2.885,4.619c0.811,1.297,0.416,3.002-0.879,3.816c-0.457,0.285-0.965,0.422-1.465,0.422
	c-0.925,0-1.826-0.461-2.351-1.303l-2.892-4.623C72.752,66.268,73.149,64.559,74.446,63.748z M66.59,50.99
	c1.306-0.793,3.011-0.371,3.8,0.941c0.87,1.441,1.769,2.908,2.701,4.406c0.807,1.293,0.479,3.1-0.814,3.912
	c-0.484,0.306-1.021,0.453-1.543,0.453c-0.866,0-1.697-0.414-2.205-1.219c-0.002-0.006-0.071-0.111-0.073-0.117
	c-1.011-1.625-1.923-3.117-2.806-4.576C64.858,53.48,65.28,51.781,66.59,50.99z M63.028,39.039c0.822,1.531,1.688,3.107,2.602,4.727
	c0.75,1.332,0.275,3.02-1.057,3.771c-0.428,0.24-0.895,0.355-1.354,0.355c-0.969,0-1.906-0.508-2.416-1.412
	c-0.931-1.65-1.813-3.258-2.653-4.822c-0.724-1.348-0.218-3.025,1.128-3.75C60.625,37.186,62.306,37.691,63.028,39.039z
	 M56.45,25.791c0.701,1.553,1.46,3.174,2.28,4.861c0.67,1.379,0.096,3.033-1.279,3.703c-0.39,0.189-0.803,0.279-1.209,0.279
	c-1.026,0-2.013-0.576-2.491-1.561c-0.845-1.736-1.627-3.406-2.348-5.004c-0.629-1.393-0.009-3.037,1.385-3.664
	C54.178,23.777,55.82,24.395,56.45,25.791z M47.683,10.326c1.463-0.451,3.012,0.365,3.465,1.824c0.487,1.568,1.065,3.252,1.72,5.004
	c0.535,1.432-0.192,3.027-1.625,3.563c-0.318,0.119-0.646,0.176-0.967,0.176c-1.123,0-2.18-0.688-2.594-1.799
	c-0.69-1.85-1.304-3.633-1.822-5.303C45.406,12.328,46.223,10.779,47.683,10.326z M46.888,28.148
	c0.717,1.592,1.494,3.252,2.337,4.982c0.668,1.377,0.096,3.033-1.28,3.701c-0.39,0.189-0.803,0.281-1.208,0.281
	c-1.026,0-2.013-0.576-2.493-1.563c-0.865-1.781-1.665-3.486-2.404-5.123c-0.629-1.395-0.009-3.033,1.386-3.664
	C44.618,26.131,46.258,26.752,46.888,28.148z M37.993,12.338c1.467-0.453,3.013,0.367,3.465,1.826
	c0.497,1.607,1.089,3.332,1.76,5.131c0.535,1.436-0.194,3.029-1.626,3.563c-0.319,0.121-0.646,0.176-0.967,0.176
	c-1.124,0-2.18-0.688-2.595-1.801c-0.708-1.898-1.334-3.725-1.863-5.428C35.716,14.34,36.533,12.789,37.993,12.338z" class="color c2"/>
</svg>