<svg version="1.1" id="图层_1" x="0px" y="0px" width="79.2px" height="85.5px" viewBox="0 0 79.2 85.5" enable-background="new 0 0 79.2 85.5" xml:space="preserve" xmlns="http://www.w3.org/2000/svg" xmlns:xlink="http://www.w3.org/1999/xlink" xmlns:xml="http://www.w3.org/XML/1998/namespace">
  <g transform="translate(-222.35841,-307.16979)">
    <path fill="#FFFFFF" d="M230.9,307.3c-4.4-0.4-4.4,0.1-5.6,1.8c-1.2,1.6-0.7,3.4-1.9,9.9c-1.2,6.4-1.5,15.4,0.3,19.6s4,12.6,6.2,21
		s12.1,27.5,14.8,31.1s2,1.2,7.1,1.8c5.1,0.6,7.8-3,14.8-8.1c7-5.2,19-18.7,21.5-23.4c1.3-2.4,4.4-7.4,7.2-11.8
		c0.5-0.8,1.5-2,2.1-2.7c1.5-1.7,2.7-3.7,3.4-5.9c0.7-2,1-4.1,0.9-6.3c-0.4-8.6-6.9-15.4-15.5-16.3c-10.1-1-18.7,6.8-19,16.7
		c-0.1,2.4,0.4,4.7,1.2,6.7c-6.2,1-10.9,6.3-11.1,12.8c0,0.7,0,1.4,0.1,2.1c-0.1,0.3-0.3,0.5-0.4,0.8c-1,1.7-1.3,3.7-1.1,5.7
		c0.3,2.4,0.1,4.8,0.1,4.8c0-5.3-6-9.4-10.4-13.6c-4.5-4.2-9.3-12.3-12.5-18.1c-3.1-5.8,0.6-8,2.1-8.6s2.8-5,6.1-8.6
		s-1.4-5.5-1.4-5.5c0.9-2,0-3.9-1.9-5C236.1,307,235.3,307.7,230.9,307.3L230.9,307.3z" class="color c1"/>
  </g>
</svg>