<svg version="1.1" id="图层_1" x="0px" y="0px" width="183.861px" height="170.879px" viewBox="0 0 183.861 170.879" enable-background="new 0 0 183.861 170.879" xml:space="preserve" xmlns="http://www.w3.org/2000/svg" xmlns:xlink="http://www.w3.org/1999/xlink" xmlns:xml="http://www.w3.org/XML/1998/namespace">
  <path fill="#0E142D" d="M175.726,154.195c0,0-28.406-2.254-37.425-3.156c-4.509,1.803-16.684-10.371-16.684-10.371L99.946,117.69
	c18.368-19.517,39.325-42.514,47.374-52.324c14.43-17.585,14.43-47.346-11.273-60.873c-25.702-13.527-43.738,9.019-43.738,9.019
	S72.918-9.936,46.317,4.945C11.145,30.196,37.75,66.268,37.75,66.268l48.11,50.883C74.722,128.952,65.541,138.73,63,141.57
	c-7.666,8.567-15.781,10.372-15.781,10.372s-33.367,2.705-38.328,2.705c-4.96,0-7.215,3.607-7.215,3.607l-1.352,6.764
	c-1.803,4.508,4.509,5.861,4.509,5.861s34.721-4.51,43.738-6.313c9.018-1.804,20.291-15.331,20.291-15.331
	c3.019-2.348,12.648-12.118,24.295-24.367l30.715,32.484c5.862,3.607,13.979,7.214,13.979,7.214s27.505,2.705,36.071,4.959
	c8.566,2.256,9.469-1.803,9.469-1.803s0-1.803,0.452-7.215C184.293,155.097,175.726,154.195,175.726,154.195z M46.767,61.309
	c0,0-23.447-30.663,4.058-47.345C81.035-3.171,92.308,32,92.308,32s13.979-34.27,39.681-18.938
	c28.857,17.135,6.764,48.248,6.764,48.248s-24.76,26.072-46.1,48.65L46.767,61.309z" class="color c1"/>
</svg>