<svg version="1.1" id="图层_1" x="0px" y="0px" width="95.7px" height="143.9px" viewBox="0 0 95.7 143.9" enable-background="new 0 0 95.7 143.9" xml:space="preserve" xmlns="http://www.w3.org/2000/svg" xmlns:xlink="http://www.w3.org/1999/xlink" xmlns:xml="http://www.w3.org/XML/1998/namespace">
  <path fill="#333581" d="M16.2,0C16.3,3.2,17,6.8,15,6.8c-1.6,0-6.5,1.3-8.1,3.4c-1.8,2.6-3.2,5.4-2.5,9.3c-0.6,0-1.2-0.1-1.8-0.2
	c-0.3-1.9-0.8-3.9-1-5.8C1.4,9.6,2.8,5.2,0,1.9C5.2,0.7,10.7,0.1,16.2,0z M41,3.7c0.1,0.1,0.3,0.2,0.4,0.3c-1.7,0.2-2.3,0.3-3.9,0.6
	c1.3,0.6,2.1,1,3.6,1.8c-1.5,0.2-1.9,0.3-2.2,0.2c-1.3-0.5-2.5-1.1-3.7-1.6c-1-0.4-1.9-1-2.9-1.3c-0.1,0-1.1,1.4-0.9,1.7
	c0.5,0.9,1.5,1.6,2.4,2.5c-0.7,0.3-1.5,0.5-2.3,0.9c-2.7,1.3-5.4,2.5-8,3.9c-0.4,0.2-0.8,1.1-0.7,1.5c1.4,4.6,0.1,8.7-1.9,12.9
	c-0.5,1,0.2,3.1,1,4.2c1.1,1.4,2.8,2.6,4.5,3.4c4.8,2.5,7.3,6.4,9.5,11.2c1.7,3.9,5.3,6.9,8,10.4c1.9,2.4,4.3,4.7,5.7,7.4
	c2.7,5.5,2.5,5.6,8.7,4.5c-3.7,2.6-4.3,8-9.7,7.1c-3.6-0.6-7.1-1.5-10.7-2.3c0-0.3,0-0.6,0.1-1c2.5-0.3,5-0.6,8.8-1
	c-3.4-3.7-5.8-6.5-8.6-9c-0.9-0.8-2.8-0.9-4.1-0.6c-0.6,0.1-0.9,2.1-1,3.2c-0.5,5.8,1.9,10.8,4.8,15.5c1.8,3,4,5.8,5.5,9
	c2.4,5.2,1.5,10.4-1.2,15.2c-2.2,3.8-4.9,7.3-7.5,11.3c7.1,3.2,10.1,9.9,13.9,16c1.4,2.2,3.5,4.1,5.6,5.5c2.8,1.9,5.5,3.6,6.5,6.9
	c21.2-14.1,35.2-38.1,35.2-65.4C95.7,43.4,72.7,13.8,41,3.7z" class="color c1"/>
</svg>