<svg version="1.1" id="图层_1" x="0px" y="0px" width="200.548px" height="185.86px" viewBox="0 0 200.548 185.86" enable-background="new 0 0 200.548 185.86" xml:space="preserve" xmlns="http://www.w3.org/2000/svg" xmlns:xlink="http://www.w3.org/1999/xlink" xmlns:xml="http://www.w3.org/XML/1998/namespace">
  <path fill="#110901" d="M71.854,174.267l46.483-62.618c-6.364-6.463-12.19-13.003-12.486-15.895
	c-0.271-2.633-1.277-8.002-2.376-13.465c0.919-1.046,1.485-2.47,1.485-4.047c0-2.513-1.441-4.629-3.448-5.434
	c-0.542-2.556-0.868-8.453-1.074-9.377c-1.582-7.105-8.112-24.667-33.112-27.405v-0.738c0-0.829-2.634-1.282-3.696-1.282h-0.052
	c0.137-1,0.357-0.756,0.485-1.268c2.027-0.723,9.142-3.612,8.987-7.726c-0.005-0.106-0.027-0.254-0.036-0.363
	c0,0,8.097,6.637,16.11,5.944c15.018-1.295,19.106-29.725,8.05-30.581c-1.556-0.119-6.102,0.521-6.931,4.708
	c-0.762,3.856,4.955,6.511,4.955,6.511s-1.574-2.588-0.671-4.24c0.673-1.234,2.616-1.944,3.992-0.671
	c3.214,2.978-4.655,8.78-7.19,9.406c-0.605-0.505-12.042-11.344-23.407-10.42s-16.659,6.932-17.077,16
	c-0.297,5.547,4.726,9.699,7.706,12.699h-0.729c-1.063,0-0.497,0.453-0.497,1.282v0.334c-1-0.002-2.15-0.005-2.816-0.01
	c-0.023,0.002,0.332,0.002,0.314,0.005c0.791,0.004,1.502,0.007,2.502,0.009v0.135c-30,1.712-38.211,28.201-38.691,30.497
	c-0.15,0.737-1.027,3.286-1.688,6.629c-1.889,0.869-3.397,2.938-3.397,5.357c0,1.544,0.456,2.936,1.339,3.975
	c-1.022,5.485-2.015,10.896-2.281,13.541C12.309,98.664,6.401,105.264,0,111.761l46.56,62.686c3.068,4.124,7.791,6.56,12.646,6.56
	h0.006C63.908,181.006,68.752,178.44,71.854,174.267z" class="color c1"/>
  <path fill="#FFFFFF" d="M98.82,136.843c-0.756-6.936-2.458-14.563-6.349-21.478c3.297-2.74,5.854-4.605,5.854-4.605v-0.522
	c0,0-30.86,26.175-37.575,26.931c-0.004,0.002-0.06,0.005-0.052,0.007c-0.008-0.001,0.076-0.001,0.074-0.002
	c-6.725-0.752-39.447-26.935-39.447-26.935v0.524c0,0,1.761,1.78,5.21,4.416c-4.027,7.088-6.032,14.939-6.868,22.037l16.843,22.673
	c10.664,1.229,18.713,5.585,19.641,10.897c0.447,0.958,0.702,1.913,0.702,3.005c0,1.176-0.326,2.215-0.842,3.215h5.748
	c-0.523-1-0.824-2.037-0.824-3.215c0-1.463,0.49-2.775,1.266-3.968c1.654-4.898,9.43-8.801,19.492-9.95L98.82,136.843z" class="color c2"/>
  <path fill="#FFFFFF" d="M58.899,47.758c-0.818,0.292-2.196,0.82-2.75,1.023c-9.765,3.615-34.823,13.95-34.823,24.431v0.878
	c0-12.326,34.855-23.601,38.466-24.739c3.52,1.139,37.534,12.413,37.534,24.739v-0.878c0-11.286-36.767-25.343-36.993-25.422
	C60.068,47.697,59.236,47.639,58.899,47.758z" class="color c2"/>
  <g>
    <path fill="#FFFFFF" d="M58.326,103.129c0,1.589-1.288,2.877-2.877,2.877h-0.246c-1.589,0-2.877-1.288-2.877-2.877V69.883
		c0-1.589,1.288-2.877,2.877-2.877h0.246c1.589,0,2.877,1.288,2.877,2.877V103.129z" class="color c2"/>
    <path fill="#FFFFFF" d="M68.326,103.129c0,1.589-1.288,2.877-2.878,2.877h-0.244c-1.59,0-2.878-1.288-2.878-2.877V69.883
		c0-1.589,1.288-2.877,2.878-2.877h0.244c1.59,0,2.878,1.288,2.878,2.877V103.129z" class="color c2"/>
    <path fill="#FFFFFF" d="M78.326,98.128c0,1.59-1.288,2.878-2.878,2.878h-0.244c-1.59,0-2.878-1.288-2.878-2.878V73.884
		c0-1.59,1.288-2.878,2.878-2.878h0.244c1.59,0,2.878,1.288,2.878,2.878V98.128z" class="color c2"/>
    <path fill="#FFFFFF" d="M47.326,98.128c0,1.59-1.288,2.878-2.877,2.878h-0.246c-1.589,0-2.877-1.288-2.877-2.878V73.884
		c0-1.59,1.288-2.878,2.877-2.878h0.246c1.589,0,2.877,1.288,2.877,2.878V98.128z" class="color c2"/>
  </g>
  <path fill="#110901" d="M199.242,64.345c-0.323-0.183-0.681-0.294-1.054-0.325c0,0-24.105-1.969-39.187-3.146
	c-6.268-0.486-12.607,1.381-17.878,4.407c-6.035,3.472-9.689,9.265-13.516,13.774c-27.575,32.483-75.49,102.221-75.49,102.221
	c-0.803,1.162-0.071,2.817,1.088,3.616c0.383,0.268,0.641,0.396,1.723,0.516l-0.003,0.011l7.108,0.437
	c0.87,0.059,1.488-0.359,2.006-1.062l37.045-50.212c0.007-0.015-0.042-0.041-0.036-0.057c0,0,23.333-32.209,36.567-44.081
	c2.305-2.068,5.813-6.134,14.043-6.417c7.557-0.259,36.771,0.643,36.928,0.666l0.119,0.017c0.969,0.142,1.873-0.184,2.361-1.036
	l9.148-15.965C200.917,66.48,200.469,65.045,199.242,64.345z" class="color c1"/>
  <polygon fill="#FFFFFF" points="61.082,180.699 57.983,181.045 81.409,148.868 85.259,149.405 " class="color c2"/>
  <path fill="#FFFFFF" d="M187.339,80.081c-0.844-0.062-5.205-0.367-10.9-0.645l6.862-11.479c4.917,0.398,8.79,0.717,10.458,0.854
	L187.339,80.081z" class="color c2"/>
  <path fill="#BE8F53" d="M162.804,66.28c-1.427-0.114-2.831-0.225-4.196-0.332c-4.963-0.389-10.416,1.119-14.923,3.71
	c-4.603,2.646-8.043,7.711-12.168,12.571c-11.868,13.978-32.941,42.542-46.544,61.452l3.729,0.95c0,0,42.848-57.814,53.23-63.426
	c4.407-2.383,11.854-2.134,13.185-2.169L162.804,66.28z" class="color c3"/>
  <path fill="#FFFFFF" d="M168.143,66.71l-7.391,12.268c3.268,0.011,6.651,0.093,9.873,0.207l6.995-11.705
	C174.583,67.234,171.36,66.97,168.143,66.71z" class="color c2"/>
</svg>