<svg version="1.1" id="图层_1" x="0px" y="0px" width="88.321px" height="88.321px" viewBox="0 0 88.321 88.321" enable-background="new 0 0 88.321 88.321" xml:space="preserve" xmlns="http://www.w3.org/2000/svg" xmlns:xlink="http://www.w3.org/1999/xlink" xmlns:xml="http://www.w3.org/XML/1998/namespace">
  <path fill="#16467B" d="M44.161,0C19.811,0,0,19.813,0,44.162c0,24.351,19.811,44.159,44.161,44.159
	c24.35,0,44.16-19.809,44.16-44.159C88.321,19.813,68.511,0,44.161,0z" class="color c1"/>
  <path fill="#FFFFFF" d="M42.156,10.425l9.116-4.993c6.789,0.605,10.58,2.294,10.58,2.294s3.282,1.917,7.463,6.611l1.396,10.235
	l-9.118,3.073l0.008-0.051l-15.95-8.394l-3.52-8.778L42.156,10.425z" class="color c2"/>
  <polygon fill="#FFFFFF" points="59.112,28.995 57.471,40.73 56.354,30.014 47.431,22.74 " class="color c2"/>
  <polygon fill="#FFFFFF" points="41.246,10.379 44.958,19.632 31.875,29.435 31.926,29.517 20.08,29.197 14.955,21.739 28.077,9.723 
	" class="color c2"/>
  <polygon fill="#FFFFFF" points="20.485,30.014 32.43,30.336 41.352,44.814 34.359,58.874 17.757,59.122 11.725,44.974 " class="color c2"/>
  <polygon fill="#FFFFFF" points="9.416,25.288 14.074,24.21 18.043,29.517 13.729,26.863 " class="color c2"/>
  <path fill="#FFFFFF" d="M12.477,17.341c3.834-4.524,8.618-8.217,14.048-10.769l0.29,0.698l0.373,0.9l0.383,0.924L13.637,21.853
	l0.112,0.123l-5.234,1.11C9.661,21.063,10.988,19.143,12.477,17.341z" class="color c2"/>
  <path fill="#FFFFFF" d="M6.355,59.008c-2.008-4.836-3.014-9.837-3.135-14.772l7.894,1.357l5.772,13.544l-0.142,0.001l-0.472,12.441
	l-0.869,0.906C11.633,68.756,8.519,64.223,6.355,59.008z" class="color c2"/>
  <path fill="#FFFFFF" d="M15.988,73.041l0.711-0.742l17.664,9.327l0.426,1.584C27.801,81.571,21.284,78.076,15.988,73.041z" class="color c2"/>
  <path fill="#FFFFFF" d="M59.042,81.256c-7.656,3.182-15.766,3.766-23.363,2.163l-0.537-2.004l11.756-7.671l11.697-1.616l7.662,5.214
	C64.035,78.864,61.627,80.184,59.042,81.256z" class="color c2"/>
  <polygon fill="#FFFFFF" points="58.447,71.336 46.645,72.966 34.949,59.5 41.907,45.503 58.415,44.374 67.077,56.447 " class="color c2"/>
  <polygon fill="#FFFFFF" points="59.274,44.194 61.47,28.538 71.104,25.288 80.021,37.158 77.704,53.162 67.868,56.172 " class="color c2"/>
  <polygon fill="#FFFFFF" points="74.173,56.172 77.348,55.592 80.021,61.59 " class="color c2"/>
  <path fill="#FFFFFF" d="M78.433,53.747l2.383-16.457c1.396-0.33,1.121-0.265,2.17-0.515c1.443,8.022,0.429,16.115-2.648,23.307
	L78.433,53.747z" class="color c2"/>
</svg>