<svg version="1.1" id="图层_1" x="0px" y="0px" width="120.391px" height="120.389px" viewBox="0 0 120.391 120.389" enable-background="new 0 0 120.391 120.389" xml:space="preserve" xmlns="http://www.w3.org/2000/svg" xmlns:xlink="http://www.w3.org/1999/xlink" xmlns:xml="http://www.w3.org/XML/1998/namespace">
  <path fill="#391F30" d="M60.193,0C27.002,0,0,27.003,0,60.194c0,33.192,27.002,60.195,60.193,60.195
	c33.193,0,60.197-27.003,60.197-60.195C120.39,27.003,93.386,0,60.193,0z" class="color c1"/>
  <path fill="#FFFFFF" d="M60.195,8.066c17.146,0,32.38,8.324,41.888,21.141c-2.51,0.908-5.219,1.723-8.084,2.446l-1.647-4.729
	c-0.494-1.419-2.054-2.164-3.47-1.673c-1.42,0.496-2.168,2.047-1.674,3.469l1.445,4.142c-3.109,0.623-6.354,1.147-9.709,1.559
	l-0.486-3.923c-0.186-1.492-1.543-2.55-3.037-2.369c-1.491,0.185-2.551,1.544-2.364,3.037l0.471,3.813
	c-3.381,0.29-6.836,0.475-10.332,0.54V31.71c0-1.505-1.221-2.724-2.724-2.724s-2.724,1.218-2.724,2.724v3.813
	c-3.686-0.056-7.326-0.24-10.887-0.545l0.473-3.813c0.187-1.492-0.875-2.853-2.367-3.037c-1.489-0.187-2.854,0.875-3.038,2.369
	l-0.484,3.923c-3.354-0.413-6.598-0.936-9.707-1.559l1.445-4.142c0.493-1.42-0.254-2.974-1.675-3.469
	c-1.42-0.491-2.973,0.254-3.469,1.673l-1.649,4.729c-2.863-0.724-5.574-1.541-8.082-2.446C27.814,16.391,43.051,8.066,60.195,8.066z
	 M15.246,33.845c2.904,1.112,6.017,2.111,9.342,2.976l-1.241,3.558c-0.492,1.419,0.254,2.974,1.674,3.468
	c0.297,0.104,0.6,0.153,0.896,0.153c1.125,0,2.181-0.704,2.572-1.827l1.432-4.105c3.468,0.72,7.09,1.322,10.851,1.777l-0.463,3.771
	c-0.188,1.491,0.873,2.852,2.364,3.036c0.115,0.015,0.229,0.021,0.341,0.021c1.354,0,2.526-1.01,2.696-2.389l0.482-3.894
	c3.758,0.319,7.623,0.497,11.555,0.553v3.884c0,1.504,1.219,2.723,2.726,2.723c1.503,0,2.722-1.218,2.722-2.723v-3.894
	c3.742-0.065,7.422-0.238,11.004-0.543l0.482,3.894c0.172,1.379,1.346,2.389,2.698,2.389c0.111,0,0.226-0.006,0.34-0.021
	c1.49-0.185,2.552-1.544,2.365-3.036l-0.465-3.769c3.76-0.458,7.383-1.059,10.853-1.779l1.434,4.105
	c0.391,1.124,1.443,1.827,2.568,1.827c0.299,0,0.602-0.049,0.896-0.153c1.42-0.495,2.17-2.047,1.674-3.468L95.8,36.821
	c3.322-0.864,6.439-1.863,9.345-2.976c4.553,7.738,7.178,16.741,7.178,26.35c0,9.61-2.625,18.613-7.178,26.354
	c-2.908-1.113-6.021-2.114-9.345-2.979l1.242-3.559c0.496-1.418-0.254-2.973-1.674-3.466c-1.412-0.497-2.971,0.253-3.465,1.674
	l-1.434,4.105c-3.47-0.721-7.093-1.321-10.853-1.778l0.465-3.771c0.188-1.489-0.873-2.85-2.365-3.034
	c-1.489-0.189-2.852,0.875-3.038,2.366l-0.482,3.896c-3.582-0.306-7.262-0.478-11.004-0.545v-3.896c0-1.503-1.221-2.723-2.722-2.723
	c-1.503,0-2.726,1.22-2.726,2.723v3.884c-3.932,0.057-7.797,0.235-11.555,0.557l-0.484-3.896c-0.184-1.489-1.545-2.553-3.037-2.366
	c-1.489,0.186-2.551,1.545-2.367,3.034l0.466,3.771c-3.763,0.457-7.384,1.059-10.849,1.776l-1.434-4.104
	c-0.496-1.421-2.047-2.173-3.471-1.674c-1.418,0.493-2.166,2.048-1.673,3.466l1.242,3.557c-3.324,0.867-6.438,1.863-9.344,2.979
	c-4.549-7.74-7.174-16.743-7.174-26.354C8.068,50.585,10.693,41.583,15.246,33.845z M60.193,112.324
	c-17.146,0-32.381-8.324-41.887-21.142c2.508-0.908,5.219-1.721,8.082-2.449l1.647,4.729c0.394,1.124,1.445,1.826,2.574,1.826
	c0.297,0,0.6-0.047,0.895-0.153c1.42-0.493,2.17-2.048,1.675-3.466l-1.443-4.144c3.106-0.623,6.352-1.146,9.707-1.555l0.486,3.924
	c0.17,1.377,1.344,2.388,2.696,2.388c0.113,0,0.228-0.009,0.34-0.021c1.492-0.186,2.552-1.545,2.367-3.037l-0.473-3.813
	c3.559-0.303,7.203-0.488,10.889-0.542v3.812c0,1.504,1.219,2.723,2.724,2.723c1.503,0,2.722-1.219,2.722-2.723v-3.806
	c3.5,0.064,6.951,0.251,10.332,0.536l-0.471,3.813c-0.187,1.492,0.873,2.853,2.366,3.037c0.115,0.014,0.228,0.021,0.341,0.021
	c1.354,0,2.526-1.012,2.696-2.388l0.484-3.926c3.354,0.411,6.6,0.934,9.709,1.555l-1.445,4.144c-0.494,1.42,0.254,2.973,1.674,3.467
	c0.295,0.105,0.601,0.152,0.896,0.152c1.125,0,2.178-0.702,2.57-1.826L94,88.732c2.863,0.728,5.574,1.541,8.082,2.449
	C92.578,104,77.339,112.324,60.193,112.324z" class="color c2"/>
</svg>