<svg version="1.1" id="图层_1" x="0px" y="0px" width="157.916px" height="97.771px" viewBox="0 0 157.916 97.771" enable-background="new 0 0 157.916 97.771" xml:space="preserve" xmlns="http://www.w3.org/2000/svg" xmlns:xlink="http://www.w3.org/1999/xlink" xmlns:xml="http://www.w3.org/XML/1998/namespace">
  <path fill="#2D303F" d="M1.125,77.421c0.751,0.637,1.517,1.25,2.18,1.769c0.287,0.215,0.63,0.416,0.996,0.595
	c0.703,0.201,1.401,0.405,2.103,0.551c0.014-0.001,0.028-0.001,0.042-0.001c0.087,0,0.172,0.008,0.259,0.013
	c3.029-0.559,9.927-1.938,13.68-3.515c4.899-2.059,2.813-4.084,4.901-9.342c2.085-5.258,11.872-15.757,11.068-22.798
	c0,0,0.702-0.276,1.805-0.583c1.568,0.691,2.961,1.176,4.002,1.25c0.144,0.011,0.268-0.001,0.393-0.01
	c0.078-0.005,0.157-0.01,0.229-0.021c0.088-0.016,0.168-0.038,0.248-0.063c0.064-0.019,0.13-0.037,0.19-0.062
	c0.075-0.031,0.144-0.07,0.209-0.109c0.054-0.031,0.108-0.059,0.157-0.093c0.062-0.045,0.117-0.097,0.175-0.148
	c0.041-0.039,0.087-0.076,0.125-0.117c0.052-0.058,0.098-0.121,0.144-0.184c0.032-0.044,0.067-0.085,0.098-0.131
	c0.044-0.069,0.081-0.142,0.119-0.215c0.023-0.044,0.05-0.087,0.071-0.133c0.039-0.083,0.072-0.169,0.104-0.255
	c0.015-0.037,0.031-0.073,0.044-0.111c0.043-0.124,0.081-0.248,0.114-0.37c0.625,0.042,1.25,0.127,1.859,0.272
	c4.609,1.096,8.033,0.975,9.431,1.727c1.397,0.751,4.122,5.169,9.967,5.647c0.229,0.02,0.471,0.031,0.723,0.041
	c0.069,0.003,0.143,0.005,0.215,0.008c0.206,0.006,0.419,0.009,0.639,0.01c0.06,0,0.118,0.002,0.178,0.001
	c0.189,0,0.383-0.002,0.58-0.006c0.053-0.001,0.103-0.001,0.154-0.002c0.257-0.006,0.521-0.014,0.79-0.023
	c0.007,0,0.012-0.001,0.018-0.001c0.263-0.01,0.529-0.021,0.803-0.035c0.072-0.003,0.146-0.008,0.218-0.012
	c0.209-0.011,0.419-0.022,0.632-0.034c0.092-0.005,0.188-0.012,0.282-0.018c0.2-0.013,0.402-0.024,0.607-0.037
	c0.097-0.006,0.194-0.014,0.292-0.021c0.21-0.015,0.42-0.028,0.634-0.043c0.094-0.007,0.19-0.014,0.286-0.02
	c0.237-0.018,0.477-0.034,0.718-0.052c0.065-0.005,0.13-0.01,0.196-0.015c0.311-0.022,0.626-0.046,0.94-0.067
	c0.184-0.014,0.364-0.026,0.547-0.04c0.132-0.01,0.265-0.02,0.396-0.028c0.312-0.022,0.624-0.043,0.937-0.065
	c0.078-0.005,0.154-0.01,0.229-0.015c0.239-0.016,0.479-0.032,0.716-0.046c0.109-0.007,0.219-0.013,0.328-0.021
	c0.205-0.013,0.41-0.023,0.616-0.035c0.12-0.008,0.241-0.014,0.361-0.02c0.193-0.01,0.386-0.02,0.578-0.029
	c0.123-0.006,0.245-0.011,0.368-0.016c0.189-0.008,0.379-0.015,0.568-0.021c0.119-0.005,0.24-0.009,0.359-0.013
	c0.189-0.006,0.377-0.01,0.563-0.015c0.117-0.001,0.232-0.005,0.35-0.007c0.193-0.003,0.386-0.004,0.578-0.005
	c0.08,0,0.164-0.001,0.244-0.001c0.019,0,0.035,0,0.055,0c0.335,0,0.667,0.004,0.99,0.013c0.074,0.001,0.146,0.005,0.223,0.007
	c0.257,0.008,0.512,0.02,0.759,0.033c0.089,0.005,0.173,0.009,0.259,0.016c0.311,0.021,0.612,0.042,0.904,0.074
	c0.006,0,0.012,0.001,0.018,0.001c0.283,0.03,0.554,0.066,0.818,0.107c0.076,0.012,0.15,0.022,0.227,0.035
	c0.211,0.036,0.418,0.077,0.617,0.12c0.055,0.013,0.111,0.023,0.166,0.036c0.24,0.058,0.471,0.121,0.688,0.191
	c0.049,0.016,0.095,0.034,0.144,0.051c0.17,0.059,0.33,0.123,0.483,0.191c0.056,0.023,0.108,0.049,0.159,0.073
	c0.186,0.091,0.361,0.187,0.518,0.292c3.98,2.718,14.375,17.264,16.988,18.486c0,0-6.016,2.781-7.896,6.217
	c-1.877,3.438-3.226,9.411,1.254,14.91c4.478,5.499,10.168,4.099,11.494,5.252c0.096,0.084,0.185,0.166,0.271,0.247
	c0.03,0.027,0.057,0.054,0.085,0.081c0.053,0.053,0.105,0.105,0.154,0.156c0.031,0.031,0.061,0.06,0.09,0.09
	c0.043,0.046,0.086,0.09,0.126,0.133c0.151,0.163,0.28,0.304,0.391,0.416c0.009,0.011,0.019,0.02,0.027,0.028
	c0.036,0.037,0.069,0.068,0.103,0.098c0.012,0.01,0.021,0.021,0.034,0.029c0.03,0.025,0.06,0.046,0.085,0.062
	c0.01,0.005,0.016,0.012,0.023,0.017c0.031,0.017,0.063,0.026,0.091,0.026c0.001,0,0.002,0,0.002,0c0.002,0,0.005-0.003,0.008-0.003
	c0.026-0.001,0.052-0.015,0.075-0.036c0.007-0.006,0.014-0.013,0.021-0.021c0.023-0.029,0.047-0.068,0.068-0.124
	c0.001-0.005,0.002-0.012,0.004-0.017c0.02-0.056,0.037-0.125,0.055-0.205c0.004-0.023,0.01-0.048,0.015-0.073
	c0.019-0.094,0.034-0.198,0.052-0.324c0.203-1.55,1.587-3.569,2.979-4.261c1.391-0.691,3.778-4.674,4.244-4.819
	c0.057-0.017,0.123-0.05,0.196-0.091c0.03-0.016,0.065-0.038,0.099-0.058c0.064-0.038,0.129-0.076,0.205-0.122
	c0.067-0.041,0.137-0.082,0.213-0.126c0.045-0.027,0.093-0.053,0.141-0.079c0.068-0.039,0.141-0.075,0.216-0.114
	c0.011-0.004,0.019-0.008,0.026-0.013c0,0,0,0,0-0.001c0.044-0.021,0.085-0.04,0.13-0.062c0.08-0.037,0.164-0.068,0.251-0.103
	c0.055-0.021,0.107-0.042,0.165-0.062c0.099-0.032,0.204-0.057,0.312-0.081c0.049-0.011,0.096-0.024,0.146-0.035
	c0.156-0.026,0.32-0.044,0.492-0.044c0.002,0,0.004,0.001,0.007,0.001c0.186,0,0.38,0.019,0.583,0.061
	c0.088,0.018,0.164,0.021,0.236,0.017c0.037-0.002,0.067-0.009,0.102-0.017c0.038-0.008,0.078-0.017,0.111-0.031
	c0.029-0.013,0.055-0.03,0.078-0.047c0.031-0.02,0.062-0.042,0.084-0.067c0.022-0.021,0.041-0.048,0.062-0.074
	c0.021-0.031,0.039-0.063,0.058-0.1c0.016-0.031,0.027-0.063,0.037-0.1c0.014-0.04,0.026-0.08,0.034-0.124
	c0.011-0.038,0.017-0.078,0.022-0.12c0.006-0.047,0.01-0.095,0.015-0.146c0.002-0.043,0.005-0.089,0.006-0.136
	c0-0.053-0.002-0.106-0.005-0.162c-0.002-0.048-0.004-0.097-0.008-0.146c-0.006-0.059-0.014-0.117-0.02-0.177
	c-0.006-0.051-0.013-0.103-0.021-0.153c-0.011-0.063-0.021-0.124-0.032-0.187c-0.009-0.052-0.02-0.104-0.027-0.156
	c-0.015-0.063-0.029-0.127-0.045-0.192c-0.013-0.051-0.023-0.102-0.037-0.153c-0.017-0.064-0.035-0.13-0.053-0.194
	c-0.014-0.048-0.025-0.098-0.04-0.146c-0.021-0.065-0.041-0.13-0.062-0.193c-0.016-0.045-0.028-0.09-0.043-0.134
	c-0.021-0.063-0.045-0.126-0.066-0.188c-0.013-0.039-0.027-0.079-0.042-0.116c-0.022-0.063-0.047-0.121-0.069-0.179
	c-0.014-0.032-0.025-0.067-0.039-0.098c-0.024-0.061-0.051-0.113-0.076-0.168c-0.008-0.021-0.02-0.048-0.03-0.067
	c-0.034-0.072-0.065-0.135-0.099-0.19c-0.502-0.882-1.813-2.851-0.555-2.958c1.262-0.107,2.52-0.302,2.67-0.907
	c0.148-0.604,0.359-2.563-0.173-3.636c-0.053-0.106-0.098-0.211-0.14-0.313c-0.008-0.019-0.018-0.035-0.023-0.054
	c-0.041-0.101-0.078-0.197-0.115-0.291s-0.074-0.184-0.112-0.268c-0.003-0.008-0.009-0.016-0.011-0.024
	c-0.037-0.078-0.076-0.151-0.117-0.219c-0.006-0.006-0.008-0.013-0.012-0.02c-0.043-0.067-0.092-0.126-0.146-0.182
	c-0.011-0.01-0.021-0.02-0.03-0.029c-0.054-0.052-0.115-0.097-0.188-0.135c-0.014-0.007-0.027-0.013-0.039-0.019
	c-0.075-0.037-0.16-0.068-0.258-0.088c-0.006-0.001-0.012-0.001-0.019-0.002c-0.096-0.02-0.206-0.028-0.327-0.03
	c-0.021,0-0.039-0.001-0.063-0.001c-0.059,0-0.122,0.004-0.188,0.009c-0.033,0.003-0.064,0.003-0.1,0.006
	c-0.104,0.012-0.214,0.025-0.333,0.044c-0.103,0.018-0.199,0.025-0.288,0.025c-0.005,0-0.009-0.002-0.014-0.002
	c-0.043,0-0.077-0.007-0.115-0.012c-0.053-0.005-0.105-0.009-0.155-0.021c-0.038-0.008-0.071-0.022-0.104-0.035
	c-0.045-0.015-0.088-0.028-0.129-0.05c-0.032-0.017-0.062-0.037-0.092-0.057c-0.035-0.024-0.072-0.048-0.105-0.077
	c-0.027-0.024-0.053-0.052-0.078-0.08c-0.03-0.033-0.061-0.064-0.086-0.101c-0.023-0.031-0.044-0.065-0.064-0.1
	c-0.023-0.04-0.049-0.08-0.07-0.124c-0.018-0.037-0.033-0.078-0.051-0.117c-0.02-0.047-0.037-0.094-0.054-0.144
	c-0.015-0.044-0.026-0.089-0.04-0.134c-0.015-0.054-0.027-0.107-0.04-0.162c-0.01-0.049-0.021-0.098-0.028-0.149
	c-0.01-0.058-0.02-0.118-0.025-0.179c-0.008-0.053-0.014-0.107-0.02-0.161c-0.006-0.063-0.011-0.128-0.016-0.194
	c-0.002-0.057-0.007-0.113-0.009-0.172c-0.003-0.066-0.004-0.137-0.004-0.208c-0.001-0.059-0.003-0.117-0.003-0.179
	c0.002-0.072,0.003-0.146,0.006-0.22c0.001-0.063,0.003-0.124,0.005-0.188c0.004-0.074,0.009-0.149,0.013-0.226
	c0.004-0.064,0.008-0.128,0.012-0.193c0.006-0.082,0.015-0.165,0.021-0.248c0.006-0.06,0.011-0.118,0.017-0.179
	c0.008-0.089,0.018-0.181,0.027-0.272c0.006-0.056,0.012-0.109,0.016-0.166c0.019-0.144,0.037-0.289,0.054-0.435
	c0.3-2.41-1.085-10.752-1.085-10.752s10.21-3.729,15.423-4.939c5.214-1.212,14.003-4.72,17.601-4.788
	c0.521-0.011,1.027-0.185,1.5-0.461c0.291-0.396,0.614-0.773,0.91-1.184c0.365-0.505,0.751-0.983,1.135-1.464
	c0.018-0.08,0.047-0.159,0.114-0.234c0.158-0.172,0.304-0.396,0.401-0.635c0.059-0.293,0.07-0.567,0.031-0.81
	c-0.016-0.035-0.01-0.073-0.029-0.108c-0.045-0.076-0.063-0.15-0.065-0.223c-0.021-0.045-0.034-0.097-0.059-0.138l-0.214-0.199
	c-0.031-0.029-0.047-0.063-0.068-0.096c-0.059-0.032-0.115-0.046-0.177-0.048c-0.027-0.001-0.058,0.004-0.087,0.01
	c-0.021,0.003-0.041,0.004-0.063,0.012c-0.033,0.011-0.068,0.029-0.104,0.05c-0.018,0.009-0.033,0.015-0.051,0.025
	c-0.105,0.068-0.215,0.167-0.33,0.29c-0.021,0.02-0.039,0.041-0.058,0.063c-0.04,0.044-0.081,0.088-0.124,0.138
	c-0.023,0.029-0.051,0.061-0.074,0.089c-0.041,0.05-0.082,0.097-0.123,0.147c-0.051,0.06-0.1,0.122-0.152,0.186
	c-0.035,0.043-0.07,0.085-0.105,0.129c-0.041,0.048-0.08,0.097-0.123,0.144c-0.033,0.039-0.064,0.077-0.099,0.115
	c-0.042,0.047-0.085,0.095-0.127,0.143c-0.035,0.038-0.07,0.075-0.104,0.112c-0.043,0.046-0.09,0.092-0.136,0.138
	c-0.036,0.037-0.071,0.073-0.11,0.108c-0.047,0.045-0.097,0.087-0.145,0.13c-0.039,0.034-0.078,0.067-0.117,0.1
	c-0.051,0.042-0.104,0.081-0.158,0.12c-0.039,0.03-0.08,0.061-0.119,0.087c-0.059,0.038-0.117,0.073-0.178,0.106
	c-0.041,0.022-0.078,0.048-0.121,0.069c-0.066,0.035-0.14,0.064-0.209,0.094c-0.037,0.014-0.072,0.031-0.108,0.046
	c-0.109,0.039-0.224,0.07-0.341,0.094c-0.176,0.034-0.342,0.059-0.502,0.078c-0.041,0.005-0.084,0.009-0.125,0.013
	c-0.145,0.015-0.281,0.023-0.41,0.023c-0.012,0-0.021,0.002-0.03,0.002c-0.003,0-0.004-0.001-0.007-0.001
	c-0.15,0-0.288-0.014-0.418-0.031c-0.027-0.005-0.055-0.008-0.081-0.013c-0.122-0.022-0.233-0.053-0.331-0.094
	c-0.018-0.007-0.031-0.016-0.047-0.022c-0.088-0.041-0.165-0.088-0.23-0.146c-0.01-0.009-0.021-0.016-0.031-0.025
	c-0.066-0.063-0.117-0.139-0.154-0.22c-0.01-0.019-0.018-0.037-0.023-0.057c-0.031-0.087-0.054-0.181-0.058-0.287
	c0-0.012,0.003-0.024,0.003-0.037c0-0.101,0.016-0.212,0.042-0.331c0.007-0.021,0.01-0.045,0.019-0.068
	c0.033-0.128,0.086-0.268,0.154-0.413c0.014-0.031,0.03-0.063,0.046-0.093c0.076-0.156,0.166-0.319,0.28-0.496
	c0.064-0.1,0.117-0.189,0.162-0.276c0.015-0.027,0.025-0.053,0.039-0.079c0.025-0.058,0.051-0.112,0.07-0.164
	c0.01-0.026,0.019-0.053,0.027-0.078c0.016-0.047,0.025-0.091,0.035-0.133c0.002-0.021,0.008-0.044,0.012-0.063
	c0.006-0.045,0.006-0.085,0.004-0.124c-0.002-0.012,0-0.025-0.002-0.036c-0.007-0.047-0.021-0.089-0.039-0.125
	c-0.004-0.007-0.011-0.012-0.016-0.021c-0.02-0.026-0.038-0.05-0.063-0.069c-0.012-0.008-0.022-0.016-0.035-0.021
	c-0.023-0.015-0.049-0.026-0.077-0.036c-0.015-0.005-0.028-0.009-0.044-0.013c-0.032-0.006-0.067-0.011-0.104-0.012
	c-0.015,0-0.028-0.002-0.044-0.001c-0.066,0-0.137,0.01-0.213,0.025c-0.018,0.003-0.033,0.009-0.051,0.014
	c-0.07,0.018-0.146,0.042-0.225,0.071c-0.013,0.005-0.022,0.009-0.035,0.014c-0.086,0.035-0.178,0.081-0.271,0.131
	c-0.021,0.012-0.043,0.024-0.064,0.038c-0.098,0.055-0.194,0.116-0.295,0.186c-0.274,0.335-0.529,0.685-0.765,1.053
	c-0.013,0.025-0.015,0.051-0.032,0.076c-0.08,0.117-0.164,0.246-0.252,0.379c-0.121,0.21-0.257,0.419-0.432,0.587
	c-0.295,0.348-0.648,0.623-1.105,0.634c-0.734,0.016-1.492-0.002-2.234,0.029c-5.389,1.222-15.354,1.987-20.131,2.537
	c-6.432,0.74-7.725,1.299-7.725,1.299s-3.378-6.681-8.572-9.868c-5.196-3.188-11.565-5.593-11.565-5.593s3.13-6.852,11.174-9.618
	c4.894-1.684,7.538-2.145,8.865-2.249c0.493-0.063,0.995-0.097,1.498-0.118c0.173-0.007,0.338-0.008,0.508-0.013
	c0.241-0.005,0.483-0.017,0.718-0.017c0.143,0,0.28,0.001,0.42,0.003c0.315-0.036,0.646-0.08,0.979-0.134
	c0.945-0.258,1.783-0.868,2.607-1.445c-0.01-0.013-0.021-0.02-0.031-0.034c-0.033-0.054-0.068-0.098-0.106-0.136
	c-0.013-0.013-0.026-0.021-0.04-0.033c-0.025-0.021-0.053-0.043-0.081-0.06c-0.015-0.01-0.032-0.016-0.05-0.024
	c-0.025-0.011-0.051-0.021-0.077-0.029c-0.021-0.006-0.039-0.009-0.06-0.012c-0.025-0.004-0.053-0.008-0.08-0.009
	c-0.018,0-0.035,0-0.055,0c-0.045,0.002-0.093,0.007-0.142,0.018c-0.011,0.002-0.022,0.003-0.035,0.006
	c-0.059,0.013-0.12,0.031-0.182,0.052c-0.017,0.006-0.034,0.013-0.052,0.02c-0.049,0.02-0.098,0.038-0.146,0.06
	c-0.018,0.008-0.034,0.015-0.052,0.022c-0.063,0.027-0.124,0.058-0.187,0.085c-0.061,0.028-0.117,0.055-0.176,0.081
	c-0.018,0.009-0.033,0.017-0.051,0.023c-0.059,0.025-0.115,0.049-0.171,0.071c-0.007,0.002-0.015,0.005-0.021,0.008
	c-0.06,0.021-0.117,0.039-0.173,0.053c-0.014,0.003-0.028,0.006-0.043,0.009c-0.045,0.01-0.09,0.015-0.131,0.018
	c-0.011,0-0.021,0.003-0.028,0.003c-0.011,0-0.021,0-0.031,0c-0.818-0.043-1.321-0.63-2.059-0.888
	c-0.089-0.03-0.154-0.083-0.209-0.143c-0.322-0.117-0.924-0.482,0.117-1.311c1.413-0.077,2.71-0.452,4.021-0.978
	c0.125-0.003,0.229-0.012,0.27-0.043c0.263-0.19,0.805-0.907,0.029-1.586c0,0-0.014,0-0.037,0.002c-0.01,0-0.016,0.001-0.031,0.001
	c-0.068,0.003-0.189,0.008-0.354,0.014c-0.012,0-0.021,0-0.035,0.001c-0.07,0.003-0.149,0.006-0.233,0.009
	c-0.021,0.001-0.038,0.001-0.06,0.002c-0.205,0.006-0.435,0.013-0.676,0.018c-0.01,0.001-0.018,0.001-0.026,0.001
	c-0.107,0.002-0.216,0.004-0.324,0.005c-0.024,0-0.049,0.001-0.071,0.001c-0.232,0.003-0.46,0.004-0.672,0
	c-0.025,0-0.048-0.001-0.072-0.001c-0.072-0.001-0.145-0.003-0.211-0.005c-0.031-0.001-0.063-0.002-0.094-0.004
	c-0.061-0.002-0.113-0.006-0.167-0.01c-0.026-0.001-0.055-0.002-0.08-0.005c-0.071-0.006-0.14-0.013-0.196-0.021
	c-0.787-0.11,0.168-0.733,1.209-0.963c0.25-0.055,0.484-0.103,0.705-0.146c0.198-0.094,0.412-0.151,0.633-0.222
	c0.004-0.001,0.007-0.002,0.009-0.004c0.006-0.001,0.013-0.002,0.021-0.005c0.067-0.021,0.129-0.057,0.195-0.084
	c0.09-0.065,0.184-0.128,0.262-0.208c0.125-0.131,0.211-0.272,0.285-0.418c0.021-0.264,0.021-0.497-0.146-0.74
	c-0.234-0.344-0.789-0.432-1.17-0.449c-0.215-0.013-0.432-0.006-0.646,0.005c-0.07,0.003-0.141,0.003-0.21,0.008
	c-0.231,0.015-0.463,0.037-0.694,0.063c-0.056-0.004-0.109-0.017-0.166-0.021c-0.166-0.013-0.33-0.014-0.494-0.013
	c-0.188,0-0.373,0.007-0.562,0.013c-0.101,0.003-0.216,0.016-0.336,0.025c-0.093-0.036-0.185-0.073-0.276-0.107
	c-0.086-0.254,0.029-0.525,0.705-0.817c0.67-0.29,1.447-0.647,2.014-1.045c0.047-0.226-0.014-0.412-0.133-0.569
	c-0.048-0.052-0.092-0.105-0.142-0.155c-0.28-0.255-0.694-0.439-0.995-0.62c-0.701,0.126-1.484,0.321-2.201,0.512
	c-0.929,0.33-1.888,0.594-2.85,0.741c-0.321,0.05-0.58,0.091-0.814,0.135c-0.492,0.156-1.025,0.391-1.623,0.791
	c-0.229,0.222-0.486,0.505-0.803,0.883c-0.475,0.567-0.982,1.075-1.511,1.573c-0.265,0.278-0.533,0.55-0.821,0.799
	c-0.703,0.609-1.541,1.001-2.345,1.437c-5.459,4.213-15.086,10.714-19.39,12.083c-0.328,0.104-0.651,0.188-0.974,0.259
	c-0.104,0.023-0.206,0.039-0.308,0.059c-0.219,0.042-0.434,0.08-0.645,0.107c-0.117,0.016-0.23,0.027-0.345,0.039
	c-0.199,0.02-0.396,0.035-0.588,0.043c-0.113,0.005-0.224,0.01-0.332,0.012c-0.063,0.001-0.13,0.007-0.192,0.007
	c-0.148,0-0.291-0.008-0.436-0.014c-0.073-0.002-0.148-0.002-0.223-0.007c-0.276-0.016-0.549-0.041-0.814-0.074
	c-0.043-0.006-0.084-0.014-0.127-0.02c-0.221-0.032-0.438-0.066-0.648-0.108c-0.08-0.016-0.16-0.033-0.24-0.052
	c-0.17-0.037-0.336-0.076-0.502-0.118c-0.078-0.021-0.153-0.041-0.229-0.061c-0.178-0.051-0.35-0.103-0.518-0.157
	c-0.047-0.017-0.096-0.029-0.141-0.045c-0.211-0.071-0.412-0.145-0.603-0.22c-0.048-0.019-0.091-0.038-0.136-0.057
	c-0.145-0.058-0.28-0.115-0.412-0.174c-0.059-0.025-0.112-0.051-0.168-0.076c-0.114-0.054-0.223-0.104-0.326-0.157
	c-0.047-0.022-0.096-0.046-0.141-0.069c-0.119-0.063-0.23-0.121-0.334-0.18c-0.016-0.009-0.035-0.019-0.052-0.026
	c-0.119-0.066-0.222-0.128-0.315-0.185c-0.029-0.018-0.052-0.032-0.079-0.049c-0.061-0.037-0.115-0.072-0.162-0.103
	c-0.025-0.017-0.045-0.029-0.067-0.043c-0.04-0.027-0.071-0.049-0.098-0.066c-0.014-0.01-0.022-0.016-0.032-0.023
	c-0.024-0.018-0.041-0.027-0.041-0.027S71.265,15.146,62.76,7.218c-0.473-0.44-0.916-0.85-1.351-1.247
	c-0.094-0.087-0.189-0.173-0.282-0.258c-0.423-0.386-0.83-0.753-1.217-1.098c-0.054-0.049-0.104-0.092-0.158-0.138
	c-0.348-0.309-0.683-0.598-1.006-0.873c-0.066-0.057-0.134-0.117-0.2-0.172C58.2,3.142,57.871,2.87,57.554,2.617
	c-0.063-0.051-0.124-0.098-0.186-0.146c-0.291-0.228-0.568-0.439-0.836-0.635c-0.035-0.026-0.073-0.054-0.106-0.079
	c-0.286-0.206-0.557-0.389-0.82-0.558c-0.059-0.038-0.115-0.074-0.173-0.11c-0.261-0.163-0.516-0.313-0.756-0.438
	c-0.01-0.005-0.018-0.007-0.025-0.012c-0.233-0.121-0.456-0.218-0.672-0.304c-0.05-0.02-0.098-0.039-0.145-0.058
	C53.617,0.2,53.408,0.135,53.207,0.09c-0.033-0.007-0.064-0.011-0.096-0.017c-0.182-0.036-0.357-0.059-0.53-0.067
	C52.545,0.004,52.508,0,52.472,0c-0.192-0.004-0.381,0.008-0.565,0.039c-0.039,0.006-0.077,0.018-0.116,0.024
	c-0.147,0.03-0.293,0.07-0.437,0.121c-0.055,0.02-0.108,0.039-0.161,0.063c-0.149,0.062-0.298,0.133-0.444,0.216
	c-0.03,0.017-0.061,0.03-0.09,0.048c-0.176,0.104-0.352,0.227-0.527,0.361c-0.047,0.036-0.094,0.077-0.142,0.114
	c-0.138,0.111-0.274,0.229-0.413,0.357c-0.053,0.048-0.104,0.095-0.157,0.146c-0.181,0.173-0.364,0.355-0.552,0.558
	c-3.387,3.633-16.334,27.824-19.608,29.74c-0.211,0.123-0.406,0.217-0.593,0.297c-0.063,0.025-0.118,0.044-0.179,0.066
	c-0.121,0.046-0.241,0.088-0.353,0.117c-0.064,0.018-0.123,0.028-0.184,0.04c-0.101,0.021-0.198,0.038-0.291,0.046
	c-0.057,0.006-0.112,0.012-0.165,0.014c-0.034,0-0.072,0.008-0.105,0.008c-0.084,0-0.164-0.004-0.244-0.012
	c-0.105-0.084-0.209-0.175-0.313-0.272c-0.273-0.255-0.563-0.688-0.959-0.771c-0.087-0.019-0.171-0.024-0.251-0.023
	c-0.027,0-0.051,0.005-0.077,0.008c-0.053,0.004-0.106,0.01-0.156,0.022c-0.029,0.007-0.057,0.018-0.085,0.027
	c-0.044,0.016-0.088,0.031-0.13,0.052c-0.029,0.014-0.056,0.029-0.082,0.045c-0.039,0.022-0.078,0.047-0.116,0.074
	c-0.024,0.019-0.05,0.038-0.075,0.06c-0.036,0.03-0.071,0.062-0.104,0.095c-0.023,0.022-0.046,0.044-0.068,0.067
	c-0.034,0.037-0.066,0.077-0.1,0.115c-0.019,0.023-0.038,0.046-0.055,0.069c-0.035,0.046-0.069,0.094-0.102,0.143
	c-0.013,0.02-0.026,0.037-0.039,0.058c-0.044,0.068-0.086,0.138-0.125,0.208c-0.893,1.592,0.331,3.984,1.494,5.208
	c-1.806,5.455-2.536,13.292-4.634,17.661c-2.635,5.49-6.911,10.61-6.911,10.61s-3.521,7.15-13.91,8.972
	C0.347,74.792-0.819,75.775,1.125,77.421z M47.174,28.65c0.056-0.102,0.091-0.2,0.129-0.299c1.658-2.048,5.11-6.523,5.551-8.788
	c0,0,3.423,8.049,3.975,9.115c0.021,0.043,0.02,0.083,0.001,0.122c-0.007,0.013-0.021,0.024-0.033,0.037
	c-0.021,0.023-0.045,0.049-0.083,0.072c-0.021,0.013-0.05,0.025-0.076,0.039c-0.044,0.021-0.093,0.039-0.149,0.059
	c-0.036,0.012-0.075,0.023-0.115,0.035c-0.064,0.018-0.136,0.034-0.211,0.051c-0.048,0.01-0.094,0.02-0.144,0.03
	c-0.091,0.016-0.188,0.032-0.29,0.047c-0.049,0.007-0.095,0.016-0.146,0.021c-0.148,0.02-0.306,0.037-0.472,0.056
	c-0.014,0.001-0.023,0.003-0.037,0.004c-0.183,0.019-0.378,0.034-0.579,0.049c-0.062,0.004-0.125,0.009-0.187,0.013
	c-0.146,0.011-0.295,0.021-0.45,0.028c-0.077,0.004-0.155,0.008-0.235,0.012c-0.146,0.008-0.294,0.016-0.447,0.021
	c-0.08,0.003-0.163,0.006-0.247,0.009c-0.159,0.006-0.321,0.012-0.483,0.017c-0.078,0.002-0.153,0.004-0.23,0.008
	c-0.188,0.004-0.378,0.009-0.567,0.013c-0.053,0.001-0.105,0.002-0.159,0.003c-0.51,0.009-1.025,0.014-1.532,0.016
	c-0.009,0-0.016,0-0.025,0c-0.187,0.001-0.374,0.001-0.558,0.001c-0.044,0-0.084,0-0.128,0c-0.142,0-0.276,0-0.413-0.001
	c-0.123,0-0.247,0-0.367-0.001c-0.254-0.001-0.501-0.003-0.737-0.005C47.278,29.293,46.89,29.168,47.174,28.65z" class="color c1"/>
</svg>