<svg version="1.1" id="图层_1" x="0px" y="0px" width="47.033px" height="31.227px" viewBox="0 0 47.033 31.227" enable-background="new 0 0 47.033 31.227" xml:space="preserve" xmlns="http://www.w3.org/2000/svg" xmlns:xlink="http://www.w3.org/1999/xlink" xmlns:xml="http://www.w3.org/XML/1998/namespace">
  <path fill="#CC2127" d="M47.033,7.718c0,4.264-10.529,7.718-23.517,7.718S0,11.981,0,7.718C0,3.458,10.529,0,23.517,0
	S47.033,3.458,47.033,7.718z M47.033,12.402c-3.481,3.371-12.682,5.784-23.517,5.784c-10.836,0-20.035-2.413-23.517-5.784v8.005
	h0.037C0.028,20.51,0,20.591,0,20.701c0,5.813,10.529,10.525,23.517,10.525s23.517-4.713,23.517-10.525
	c0-0.11-0.03-0.191-0.038-0.294h0.038V12.402z" class="color c1"/>
</svg>