<svg version="1.1" id="图层_1" x="0px" y="0px" width="151.746px" height="151.746px" viewBox="0 0 151.746 151.746" enable-background="new 0 0 151.746 151.746" xml:space="preserve" xmlns:xml="http://www.w3.org/XML/1998/namespace" xmlns="http://www.w3.org/2000/svg" xmlns:xlink="http://www.w3.org/1999/xlink">
  <path fill="#0A0A0A" d="M75.873,0C33.969,0,0,33.969,0,75.872s33.969,75.874,75.873,75.874c41.904,0,75.873-33.971,75.873-75.874
	S117.777,0,75.873,0z M127.88,32.915c-5.479-4.936-10.121-8.06-11.223-8.784c-1.013-1.435-3.166-3.574-5.728-5.896
	C117.365,22.155,123.091,27.117,127.88,32.915z M115.427,26.494c2.183,1.465,12.369,8.563,20.554,18.737
	c0.479,0.931,0.936,1.888,1.371,2.851c0.563,4.74,1.821,15.621,1.821,19.104l-0.012,0.263c-1.847,2.074-5.375,5.68-9.236,7.744
	c-5.209-6.882-15.051-12.688-18.913-14.807c-0.418-6.433-1.097-16.995-7.339-25.492L115.427,26.494z M100.846,35.568
	c6.424,7.995,7.082,18.208,7.516,24.975l0.014,0.162c-3.922,3.973-18.055,16.475-20.676,18.792
	c-8.342-4.905-24.497-8.297-27.439-8.889c-2.063-6.648-5.311-18.076-6.042-26.296l-0.023-0.274
	c1.843-2.6,8.884-11.685,20.614-16.958C77.807,27.141,92.832,29.383,100.846,35.568z M27.087,33.09
	c0.523-0.967,2.597-3.973,10.76-12.935c5.184-3.544,10.823-6.339,16.765-8.313c0.677-0.01,1.38-0.012,2.086-0.012
	c5.978,0,11.48,0.292,13.666,0.428l2.644,12.733c-7.183,3.37-12.565,8.04-15.867,11.434c-2.49,2.561-4.173,4.758-5.045,5.981
	c-1.329-0.549-3.118-0.818-5.416-0.818c-6.43,0-15.108,2.114-18.18,2.92C26.659,39.803,26.994,34.259,27.087,33.09z M8.589,80.682
	c-0.111-1.603-0.17-3.218-0.17-4.81c0-13.53,3.996-26.58,11.554-37.747c2.021-1.529,3.423-2.498,4.371-3.11
	c-0.029,2.676,0.231,7.109,1.926,11.044c-4.655,9.437-7.31,16.989-7.895,22.453c-0.251,2.348-0.068,3.884,0.204,4.862
	c-3.692,2.324-7.225,6.327-8.977,8.461C9.301,81.453,8.961,81.064,8.589,80.682z M33.981,125.509l-5.488-1.649
	c-6.14-6.063-10.993-13.104-14.425-20.938c-3.884-12.738-3.452-17.381-3.301-18.279c0.859-1.112,4.943-6.264,9.07-8.923
	c2.079,3.097,8.471,11.771,16.617,14.798c-0.165,6.847,1.94,13.646,3.781,18.221c1.461,3.636,2.957,6.425,3.736,7.793
	C41.413,118.939,35.443,124.223,33.981,125.509z M46.703,115.939c-0.765-1.271-7.999-13.629-7.594-25.619
	c1.196-1.119,4.962-4.615,9.012-8.162c7.848-6.875,10.603-8.569,11.545-8.968c2.697,0.546,20.391,4.259,27.789,9.28
	c1.834,4.859,5.588,22.66,6.168,25.427c-2.682,3.115-10.918,12.203-19.661,16.889c-10.568-0.697-17.417-3.066-21.316-4.941
	C48.85,118.02,47.055,116.3,46.703,115.939z M75.873,143.328c-0.904,0-1.808-0.021-2.711-0.059c2.77-0.713,4.559-1.513,5.496-1.998
	c0.688,0.254,1.393,0.524,2.125,0.811c0.723,0.277,1.477,0.57,2.262,0.861C80.664,143.201,78.266,143.328,75.873,143.328z
	 M122.035,119.73l-0.146,0.854c-0.432,2.502-1.711,5.158-3.805,7.9c-8.434,6.774-18.467,11.457-29.037,13.555
	c-2.73-0.648-5.059-1.549-7.305-2.42c-0.805-0.313-1.568-0.609-2.334-0.891c-3.086-4.861-3.506-10.222-3.559-11.953
	c9.064-5.08,17.396-14.359,19.934-17.324c3.334,0.477,6.477,0.717,9.354,0.717c8.207,0,12.621-1.959,14.563-3.17
	c1.238,2.52,2.716,6.74,2.773,12.627L122.035,119.73z M128.902,117.561c-1.389,0.555-2.721,1.004-3.793,1.334
	c-0.185-6.357-1.908-10.898-3.262-13.521c7.834-6.778,8.92-24.101,9.061-27.705c3.965-2.049,7.555-5.541,9.68-7.843
	c0.768,1.509,1.799,4.061,2.705,8.076c-0.217,7.358-1.615,14.561-4.152,21.41C136.701,105.891,133.257,112.027,128.902,117.561z" class="color c1"/>
</svg>