<svg version="1.1" id="图层_1" x="0px" y="0px" width="128.4px" height="92.9px" viewBox="0 0 128.4 92.9" enable-background="new 0 0 128.4 92.9" xml:space="preserve" xmlns="http://www.w3.org/2000/svg" xmlns:xlink="http://www.w3.org/1999/xlink" xmlns:xml="http://www.w3.org/XML/1998/namespace">
  <path fill="#FFFFFF" d="M87.4,0c-1.8,3.7-3.9,7.2-6.4,10.4C76.2,6.3,71.3,2.8,66.3,0H87.4z M93.6,0h24.7c-8.1,25-23.9,41-49.1,49.9
	c-2.1-6.1-3.2-12.5-3.2-19c0.2-0.2,0.4-0.3,0.5-0.6C78.6,23.4,88,12.8,93.6,0z M58.9,0c6.8,3.1,13.5,7.5,19.9,13
	c-4.2,4.8-9.1,9-14.7,12.2c-19-11.2-43-11.6-64-1.2c0.7-8.6,3-16.7,6.6-24H58.9z M18.7,74.1C7,62.3,0.4,47,0,30.4
	c4.1-2.3,8.3-4.1,12.6-5.4c-4,15.4-0.3,35.7,8.9,51.8C20.6,75.9,19.7,75,18.7,74.1z M29.9,83.1c-6.2-7.8-11-18-13.5-28.6
	c-2.6-11.1-2.5-21.9,0.1-30.5c7.6-1.9,15.4-2.3,22.9-1.3c-5,27.2,1.2,49.7,19.5,70.1C48.5,91.8,38.6,88.5,29.9,83.1z M64.2,92.9
	c-0.2,0-0.4,0-0.6,0c-19.3-20.2-26-42.5-20.9-69.8c6.2,1.2,12.2,3.3,17.7,6.5C60,52.2,71.7,73.7,91.7,86.7
	C83.2,90.7,73.9,92.9,64.2,92.9z M109.5,74.1c-3.7,3.7-7.8,6.9-12.1,9.5c-4.3-2.5-8.2-5.5-11.7-8.7c16.1-4.2,32.6-18.5,41.7-35.5
	C125.2,52.5,119,64.6,109.5,74.1z M128.4,28.7v0.1c-3.5,10.1-10.2,20-18.8,28.1c-8.4,8-18,13.3-26.8,15.2C77.5,66.5,73.3,60,70.4,53
	c26.6-9.5,43-26.3,51.4-53l0,0C126.2,8.8,128.5,18.6,128.4,28.7z" class="color c1"/>
</svg>