<svg version="1.1" id="图层_1" x="0px" y="0px" width="71.573px" height="112.041px" viewBox="0 0 71.573 112.041" enable-background="new 0 0 71.573 112.041" xml:space="preserve" xmlns="http://www.w3.org/2000/svg" xmlns:xlink="http://www.w3.org/1999/xlink" xmlns:xml="http://www.w3.org/XML/1998/namespace">
  <path fill="#C2E7F8" d="M0.282,105.688c0.328,0.311,0.399,0.635,0.244,1.089c-0.092,0.264-0.124,0.55-0.156,0.83
	c-0.014,0.118-0.028,0.243-0.046,0.362c-0.022,0.143,0.006,0.272,0.037,0.399c0.074,0.337,0.135,0.626,0.146,0.931
	c0.005,0.138-0.007,0.27-0.04,0.396c-0.095,0.386-0.128,0.817-0.102,1.352c0.011,0.237,0.127,0.408,0.336,0.504
	c0.067,0.031,0.135,0.066,0.203,0.098c0.268,0.126,0.543,0.258,0.832,0.33c0.106,0.024,0.21,0.045,0.313,0.054
	c0.331,0.033,0.638-0.015,0.919-0.148c0.144-0.068,0.253-0.082,0.374-0.045c0.127,0.038,0.248,0.067,0.332,0.003
	c0.088-0.064,0.098-0.193,0.099-0.369c0.17,0.054,0.324,0.158,0.467,0.263c0.264,0.192,0.316,0.188,0.54-0.063l0.034-0.036
	c0.085-0.095,0.167-0.188,0.266-0.251c0.106-0.071,0.209-0.095,0.291-0.067c0.082,0.021,0.15,0.095,0.199,0.208
	c0.082,0.187,0.208,0.259,0.395,0.229c0.089-0.015,0.178-0.034,0.265-0.054c0.071-0.015,0.142-0.028,0.214-0.042
	c0.53-0.095,1.094-0.19,1.659-0.244c0.127-0.01,0.209-0.018,0.257-0.083c0.047-0.065,0.03-0.143,0.001-0.285
	c-0.039-0.188-0.044-0.386-0.05-0.576c-0.001-0.065-0.003-0.133-0.007-0.201c-0.016-0.353-0.145-0.646-0.402-0.93
	c-0.38-0.414-0.852-0.672-1.308-0.926l-0.108-0.059c-0.234-0.129-0.387-0.307-0.495-0.566c-0.21-0.513-0.451-1.05-0.714-1.592
	c-0.117-0.238-0.088-0.416,0.097-0.618c0.085-0.093,0.169-0.192,0.252-0.287c0.064-0.074,0.128-0.15,0.193-0.223
	c0.258-0.288,0.263-0.322,0.12-0.694l-0.013-0.03c-0.014-0.037-0.026-0.072-0.044-0.103c-0.085-0.158-0.094-0.329-0.027-0.574
	c0.463-1.699,0.891-3.429,1.272-5.141c0.306-1.373,0.569-2.851,0.805-4.527c0.118-0.836,0.264-1.685,0.406-2.507
	c0.06-0.353,0.122-0.705,0.18-1.058c0.163-0.978,0.386-2.264,0.664-3.54c0.213-0.99,0.147-1.996,0.065-2.759l-0.043-0.402
	c-0.023-0.231-0.049-0.459-0.073-0.688c-0.028-0.242,0.027-0.456,0.169-0.646c0.137-0.19,0.309-0.485,0.212-0.871
	c-0.224-0.888-0.209-1.825,0.046-3.051c0.393-1.875,0.594-3.453,0.634-4.969l0-0.073c0.001-0.087,0.004-0.174,0.017-0.255
	c0.639,2.087,1.222,3.933,1.777,5.642c0.034,0.103,0.066,0.21,0.099,0.312c0.149,0.467,0.303,0.95,0.522,1.405
	c0.275,0.571,0.671,1.06,1.051,1.508c0.144,0.17,0.285,0.342,0.426,0.515c0.347,0.428,0.708,0.869,1.106,1.262
	c0.132,0.13,0.202,0.299,0.252,0.453c0.103,0.315,0.251,0.61,0.396,0.895c0.106,0.211,0.216,0.431,0.305,0.652
	c0.282,0.701,0.747,1.266,1.195,1.811c0.094,0.114,0.188,0.229,0.28,0.346c0.508,0.631,1.036,1.267,1.545,1.879
	c0.607,0.728,1.234,1.479,1.829,2.237l0.466,0.588c0.816,1.036,1.662,2.111,2.45,3.192c0.165,0.228,0.329,0.458,0.489,0.688
	c0.234,0.328,0.472,0.67,0.719,0.997c0.215,0.285,0.294,0.56,0.241,0.842c-0.083,0.441,0.029,0.848,0.353,1.273
	c0.083,0.114,0.125,0.243,0.122,0.406c-0.001,0.036,0,0.073,0.001,0.108c0.002,0.04,0.003,0.079,0.002,0.117
	c-0.016,0.447,0.167,0.714,0.553,0.813c0.164,0.044,0.325,0.119,0.48,0.192l0.071,0.034c0.188,0.087,0.258,0.214,0.221,0.4
	c-0.035,0.181-0.008,0.362,0.082,0.557c0.067,0.148,0.136,0.297,0.204,0.447c0.148,0.327,0.301,0.663,0.464,0.988l0.125,0.248
	c0.182,0.356,0.371,0.728,0.503,1.114c0.082,0.237,0.205,0.43,0.367,0.572c0.073,0.063,0.09,0.127,0.063,0.234
	c-0.086,0.34-0.071,0.712,0.046,1.16c0.033,0.126,0.07,0.25,0.107,0.368c0.097,0.314,0.187,0.61,0.198,0.933
	c0.006,0.169,0.108,0.27,0.282,0.279c0.095,0.007,0.318,0.018,0.399-0.22c0.069-0.201,0.162-0.398,0.283-0.603
	c0.009-0.017,0.019-0.033,0.026-0.053c-0.009,0.062-0.028,0.126-0.049,0.19l-0.021,0.064c-0.009,0.034-0.021,0.063-0.034,0.095
	c-0.011,0.031-0.022,0.059-0.032,0.088c-0.061,0.187-0.084,0.31-0.018,0.4s0.197,0.104,0.397,0.103h0.026
	c0.134-0.005,0.263-0.008,0.374,0.051c0.066,0.033,0.133,0.044,0.193,0.024c0.04-0.014,0.098-0.048,0.139-0.131
	c0.019-0.039,0.031-0.049,0.034-0.049c0,0,0.018,0.007,0.051,0.041c0.01,0.01,0.019,0.022,0.028,0.035
	c0.019,0.023,0.039,0.048,0.063,0.067c0.079,0.068,0.154,0.096,0.223,0.072c0.068-0.017,0.117-0.079,0.148-0.179
	c0.03-0.101,0.049-0.202,0.066-0.303c0.009-0.048,0.019-0.099,0.028-0.148c0.001-0.008,0.003-0.014,0.005-0.021
	c0.112,0.106,0.19,0.243,0.238,0.413c0.048,0.169,0.095,0.272,0.189,0.312c0.097,0.039,0.208-0.009,0.366-0.102
	c0.155-0.093,0.306-0.195,0.451-0.295c0.042-0.026,0.082-0.053,0.123-0.083c0.009,0.11,0.028,0.186,0.089,0.231
	c0.072,0.052,0.167,0.032,0.285-0.002c0.685-0.192,1.079-0.643,1.14-1.303c0.136-1.486-0.054-2.769-0.581-3.929
	c-0.075-0.162-0.163-0.325-0.248-0.478l-0.224-0.414c-0.318-0.588-0.647-1.196-0.931-1.816c-0.115-0.25-0.223-0.496-0.282-0.762
	c-0.063-0.277-0.135-0.553-0.205-0.823c-0.107-0.409-0.219-0.831-0.294-1.253c-0.132-0.738-0.439-1.314-0.944-1.763
	c-0.14-0.126-0.274-0.243-0.454-0.299c-0.143-0.046-0.2-0.121-0.217-0.274c-0.013-0.132-0.041-0.256-0.07-0.379
	c-0.017-0.075-0.034-0.151-0.047-0.227c-0.042-0.241-0.167-0.438-0.368-0.584c-0.223-0.158-0.418-0.358-0.608-0.552
	c-0.097-0.1-0.194-0.199-0.296-0.294c-0.083-0.078-0.141-0.18-0.181-0.318c-0.447-1.549-1.058-3.069-1.598-4.408
	c-0.447-1.111-0.917-2.291-1.522-3.827c-0.423-1.069-0.999-2.082-1.709-3.004c-0.56-0.724-1.187-1.41-1.792-2.073
	c-0.27-0.293-0.54-0.588-0.803-0.889c-0.194-0.218-0.364-0.409-0.428-0.675c-0.028-0.114-0.103-0.199-0.17-0.274l-0.088-0.103
	c-0.06-0.065-0.118-0.137-0.181-0.199c-0.418-0.447-0.564-1.004-0.443-1.704c0.061-0.355,0.063-0.732,0.006-1.153
	c-0.343-2.526-0.586-5.019-0.72-7.406c-0.077-1.356-0.147-2.818-0.149-4.296c-0.002-1.426,0.025-2.699,0.084-3.9
	c0.023-0.48,0.057-0.97,0.09-1.443c0.035-0.5,0.07-1.018,0.094-1.525c0.007-0.151,0.031-0.282,0.079-0.399
	c0.024-0.059,0.028-0.063,0.095-0.046c0.093,0.032,0.198,0.052,0.291,0.003c0.092-0.05,0.135-0.161,0.163-0.26
	c0.071-0.251,0.073-0.487,0.005-0.708c-0.063-0.195-0.054-0.385-0.038-0.596c0.046-0.594,0.141-1.197,0.234-1.777
	c0.041-0.266,0.084-0.531,0.122-0.797c0.042-0.297,0.138-0.61,0.293-0.963c0.262-0.59,0.53-1.192,0.876-1.74
	c0.103-0.164,0.142-0.33,0.125-0.523c-0.021-0.217-0.033-0.438-0.048-0.655l-0.017-0.273c-0.022-0.339,0.065-0.602,0.283-0.847
	l0.219-0.248c1.1-1.241,2.237-2.522,3.453-3.676c0.448-0.424,0.813-0.967,1.148-1.704c0.095-0.207,0.228-0.347,0.419-0.432
	c0.051-0.022,0.101-0.047,0.151-0.069c0.143-0.064,0.289-0.13,0.437-0.177c0.251-0.075,0.446-0.224,0.58-0.436
	c0.109-0.172,0.261-0.274,0.463-0.313c0.493-0.087,0.882-0.339,1.189-0.771c0.126-0.18,0.275-0.351,0.418-0.515
	c0.059-0.069,0.118-0.137,0.175-0.204c0.082-0.096,0.182-0.174,0.287-0.254l0.041-0.031c0.094-0.073,0.165-0.079,0.251-0.015
	c0.068,0.049,0.142,0.084,0.212,0.118c0.643,0.305,1.326,0.151,1.698-0.381c0.2-0.285,0.428-0.411,0.757-0.42
	c0.509-0.011,1.169-0.59,1.174-1.18c0.002-0.353,0.005-0.712-0.05-1.078c-0.074-0.479-0.183-1.105-0.386-1.719
	c-0.054-0.162-0.101-0.327-0.146-0.493c-0.018-0.063-0.038-0.139-0.033-0.158c0.011-0.015,0.096-0.044,0.151-0.062
	c0.065-0.022,0.129-0.05,0.193-0.077c0.127-0.054,0.247-0.104,0.387-0.119c0.214-0.021,0.39-0.235,0.507-0.374
	c0.095-0.115,0.205-0.2,0.348-0.268c0.242-0.114,0.431-0.295,0.567-0.532c0.065-0.117,0.093-0.229,0.084-0.353
	c-0.015-0.241-0.015-0.241,0.226-0.339c0.451-0.18,0.853-0.393,1.229-0.653c0.733-0.506,1.375-1.2,2.022-2.187
	c0.417-0.637,0.423-1.361,0.375-1.988c-0.042-0.528-0.162-1.082-0.383-1.743l-0.01-0.029c-0.041-0.119-0.078-0.23-0.058-0.337
	c0.043-0.24-0.011-0.478-0.168-0.736c-0.154-0.25-0.335-0.512-0.552-0.805c-0.261-0.351-0.617-0.649-1.086-0.919
	c-1.403-0.808-2.765-1.04-4.162-0.713c-1.259,0.293-2.296,0.719-3.174,1.299c-0.109,0.072-0.221,0.103-0.374,0.098
	c-1.125-0.032-2.098,0.056-2.972,0.273l-0.03,0.006c-0.02,0.005-0.038,0.008-0.058,0.012c-0.107,0.022-0.251,0.053-0.3,0.21
	c-0.063,0.209,0.104,0.327,0.203,0.396l0.019,0.013c0.37,0.263,0.607,0.632,0.858,1.021l0.075,0.114
	c0.069,0.104,0.063,0.148-0.034,0.213c-0.075,0.053-0.139,0.115-0.199,0.176c-0.024,0.026-0.049,0.052-0.074,0.073
	c-0.068,0.065-0.09,0.073-0.098,0.075c-0.001-0.002-0.022-0.012-0.078-0.095c-0.09-0.127-0.177-0.26-0.266-0.392
	c-0.171-0.255-0.351-0.523-0.546-0.773l-0.242-0.311c-0.311-0.404-0.635-0.82-0.979-1.206c-0.325-0.366-0.452-0.705-0.422-1.136
	c0.021-0.31,0.023-0.623,0.025-0.924c0.004-0.335,0.008-0.679,0.033-1.018c0.045-0.551,0.16-0.988,0.36-1.377
	c0.546-1.058,1.009-2.218,1.46-3.658l0.074-0.237c0.379-1.214,0.771-2.468,1.246-3.667c0.134-0.336,0.292-0.67,0.446-0.991
	c0.072-0.152,0.145-0.303,0.212-0.453c0.031-0.065,0.074-0.12,0.141-0.163c0.056-0.044,0.111-0.087,0.167-0.129
	c0.11-0.086,0.214-0.165,0.327-0.23c0.495-0.292,0.958-0.662,1.415-1.131c0.18-0.185,0.326-0.21,0.556-0.09
	c1.819,0.931,3.68,1.853,5.321,2.664c1.347,0.666,2.816,1.39,4.492,2.208c2.822,1.373,5.434,2.632,7.986,3.839
	c1.954,0.928,3.949,1.855,5.667,2.653c2.708,1.261,4.97,2.301,7.119,3.273c1.413,0.642,2.833,1.275,4.222,1.892
	c0.248,0.111,0.467,0.257,0.717,0.441c0.448,0.333,0.952,0.57,1.517,0.82c0.273,0.122,0.273,0.122,0.221,0.38
	c-0.027,0.133-0.057,0.266-0.086,0.4c-0.027,0.122-0.055,0.245-0.081,0.366c-0.17,0.827-0.114,1.685,0.172,2.545
	c0.133,0.402,0.313,0.705,0.568,0.944c0.205,0.195,0.395,0.288,0.588,0.277c0.176-0.009,0.343-0.106,0.499-0.289
	c0.592-0.686,0.836-1.516,0.729-2.468c-0.069-0.617-0.208-1.229-0.322-1.691c-0.091-0.37-0.287-0.628-0.615-0.82
	c-0.879-0.513-1.749-0.999-2.7-1.34c-0.77-0.271-1.517-0.63-2.237-0.973c-0.246-0.116-0.49-0.233-0.737-0.347
	c-2.108-0.979-4.216-1.989-6.195-2.94c-1.395-0.674-2.894-1.402-4.719-2.295c-2.25-1.102-4.283-2.11-6.218-3.081
	c-1.688-0.847-3.333-1.683-4.721-2.39c-2.264-1.155-4.268-2.188-6.125-3.159c-0.935-0.486-1.868-0.979-2.801-1.471l-0.999-0.529
	c-0.063-0.033-0.098-0.06-0.104-0.081s0.008-0.056,0.038-0.102c0.143-0.223,0.142-0.475,0.121-0.693
	c-0.03-0.321-0.194-0.548-0.473-0.654c-0.353-0.138-0.776-0.267-1.242-0.193c-0.211,0.033-0.211,0.033-0.298-0.179
	c-0.097-0.233-0.223-0.479-0.384-0.748c-0.234-0.392-0.408-0.467-0.843-0.365c-0.077,0.017-0.108,0.007-0.158-0.062
	c-0.105-0.141-0.249-0.337-0.51-0.334c-0.021-0.009-0.031-0.05-0.036-0.068c-0.035-0.133-0.075-0.239-0.122-0.329
	c-0.218-0.419-0.626-0.568-1.037-0.387c-0.13,0.06-0.163,0.054-0.221-0.039c-0.231-0.356-0.555-0.52-0.958-0.491
	c-0.065,0.008-0.092-0.014-0.116-0.051c-0.195-0.313-0.507-0.35-0.786-0.345c-0.308,0.004-0.637-0.003-0.964-0.09
	c-0.294-0.081-0.596,0-0.923,0.242c-0.116,0.089-0.203,0.135-0.328,0.129c-0.219-0.009-0.41,0.104-0.586,0.353
	c-0.162,0.226-0.366,0.405-0.545,0.548c-0.295,0.238-0.531,0.555-0.719,0.968l-0.011,0.019C21.82,2.591,21.68,2.898,21.56,3.21
	c-0.074,0.192-0.175,0.344-0.311,0.463c-0.047,0.041-0.097,0.091-0.148,0.158c-0.257,0.313-0.28,0.603-0.071,0.909
	c0.179,0.263,0.194,0.513,0.05,0.807c-0.028,0.059-0.051,0.132-0.07,0.217c-0.103,0.499-0.242,1-0.374,1.481
	c-0.12,0.431-0.245,0.882-0.343,1.329c-0.128,0.576-0.287,1.154-0.438,1.719c-0.108,0.398-0.221,0.813-0.322,1.222
	c-0.237,0.957-0.479,1.98-0.618,3.019c-0.119,0.896-0.18,1.699-0.185,2.464c-0.007,1.329,0.237,2.646,0.75,4.014
	c0.123,0.329,0.239,0.67,0.35,0.995c0.075,0.22,0.149,0.439,0.229,0.661c0.045,0.129,0.041,0.18-0.032,0.235
	c-0.133,0.117-0.182,0.283-0.224,0.432l-0.018,0.06c-0.273,0.917-0.43,1.772-0.478,2.613c-0.007,0.13-0.017,0.259-0.028,0.385
	c-0.019,0.23-0.039,0.469-0.039,0.703c0.001,0.221-0.097,0.35-0.247,0.474c-0.158,0.131-0.315,0.266-0.472,0.396
	c-0.189,0.16-0.377,0.318-0.566,0.474c-0.843,0.693-1.544,1.559-2.135,2.318c-1.739,2.227-3.358,4.508-4.813,6.786
	c-0.544,0.851-1.094,1.699-1.646,2.55c-1.012,1.559-2.058,3.171-3.054,4.793c-0.186,0.305-0.367,0.621-0.543,0.927
	c-0.13,0.226-0.26,0.453-0.394,0.679C5.235,46.72,5.245,46.928,5.4,47.128c0.055,0.068,0.106,0.142,0.158,0.211
	c0.046,0.065,0.094,0.133,0.143,0.194c0.071,0.092,0.079,0.183,0.025,0.3c-0.243,0.521-0.519,1.15-0.703,1.823
	c-0.031,0.109-0.104,0.204-0.235,0.303c-0.239,0.179-0.482,0.358-0.726,0.533c-0.313,0.224-0.617,0.484-0.906,0.774
	c-0.282,0.287-0.37,0.688-0.412,0.959c-0.083,0.548-0.158,1.137-0.147,1.729c0.008,0.414-0.024,0.894-0.32,1.319
	c-0.316,0.452-0.418,0.995-0.516,1.521l-0.004,0.024c-0.089,0.472-0.153,0.955-0.214,1.423l-0.017,0.111
	c-0.075,0.567-0.167,1.147-0.256,1.704c-0.051,0.313-0.101,0.623-0.148,0.935l-0.039,0.254c-0.041,0.271-0.085,0.553-0.114,0.828
	c-0.031,0.294-0.073,0.594-0.112,0.879c-0.052,0.366-0.104,0.742-0.134,1.115c-0.017,0.204-0.042,0.405-0.067,0.609
	c-0.035,0.282-0.072,0.576-0.085,0.863c-0.008,0.202-0.02,0.406-0.031,0.608c-0.036,0.644-0.075,1.309-0.028,1.967
	c0.089,1.233,0.158,2.515,0.203,3.82l0.014,0.416c0.046,1.347,0.093,2.742,0.291,4.102c0.021,0.148,0.04,0.291,0.061,0.438
	c0.049,0.357,0.099,0.727,0.164,1.087c0.048,0.253,0.049,0.481,0.003,0.697c-0.369,1.752-0.655,3.496-0.91,5.121
	c-0.065,0.408-0.125,0.849-0.139,1.307c-0.01,0.464-0.041,0.938-0.071,1.397c-0.048,0.764-0.097,1.553-0.068,2.332
	c0.041,1.096,0.02,2.211,0,3.292c-0.018,1.021-0.036,2.076-0.003,3.114c0.031,0.948,0.083,1.8,0.162,2.598
	c0.033,0.326,0.055,0.655,0.078,0.978c0.028,0.402,0.057,0.818,0.104,1.227c0.112,0.962,0.139,1.904,0.151,2.622
	c0.005,0.281-0.037,0.544-0.125,0.794c-0.097,0.275-0.181,0.557-0.263,0.832c-0.032,0.104-0.062,0.21-0.094,0.313
	C-0.07,105.058,0.001,105.422,0.282,105.688z M24.232,9.624c0.014-0.075,0.029-0.149,0.045-0.225
	c0.043-0.225,0.09-0.456,0.117-0.688c0.041-0.351,0.061-0.708,0.08-1.054c0.013-0.188,0.022-0.382,0.037-0.572l0.004-0.071
	c0.019-0.25,0.033-0.468,0.234-0.619c0.06-0.045,0.09-0.116,0.116-0.179c0.008-0.02,0.017-0.037,0.025-0.056
	c0.037-0.073,0.071-0.148,0.107-0.222c0.046-0.098,0.093-0.194,0.14-0.289c0.095-0.19,0.095-0.19,0.29-0.146l0.059,0.014
	c0.284,0.066,0.577,0.136,0.876,0.151c0.077,0.004,0.095,0.014,0.096,0.018c-0.001,0,0,0.022-0.035,0.102
	c-0.123,0.272-0.162,0.569-0.122,0.903c0.022,0.186-0.026,0.322-0.167,0.473c-0.486,0.515-0.945,1.085-1.404,1.737
	C24.565,9.139,24.4,9.38,24.232,9.624z M6.947,45.728c5.449-9.536,9.82-14.682,11.558-16.563c0.316-0.371,0.591-0.66,0.812-0.838
	c0,0-0.286,0.272-0.812,0.838C15.302,32.936,7.762,45.533,7.762,45.533s0.955,3.109,3.968,5.028
	c3.011,1.921,4.853,4.143,4.853,4.143s-2.389-1.925-5.223-3.618C8.527,49.392,6.947,45.728,6.947,45.728z" class="color c1"/>
</svg>