<svg version="1.1" id="图层_1" x="0px" y="0px" width="149.943px" height="139.702px" viewBox="0 0 149.943 139.702" enable-background="new 0 0 149.943 139.702" xml:space="preserve" xmlns="http://www.w3.org/2000/svg" xmlns:xlink="http://www.w3.org/1999/xlink" xmlns:xml="http://www.w3.org/XML/1998/namespace">
  <path id="XMLID_2_" fill-rule="evenodd" clip-rule="evenodd" fill="#191919" d="M26.51,83.559c5.412-0.25,10.551,1.182,14.998,3.777
	l1.871-1.99c-0.05-0.03-0.084-0.057-0.087-0.069c-0.004-0.031,0.178-0.404,0.228-0.509l0.003-0.002v-0.003l0.001-0.004l0.002,0
	l0.004-0.008V84.75v-0.001l0.002-0.004v-0.001l0.001-0.002l0,0c0.151-0.303,0.368-0.563,0.647-0.78
	c0.087-0.011,0.158-0.007,0.218,0.01c0.535-0.757,1.012-1.528,1.471-2.32c-0.278-0.298-0.368-0.493-0.311-0.609
	c0.246-0.443,0.501-0.714,0.777-0.654l1.175-2.039c0.038-0.062,0.077-0.125,0.114-0.185c-2.152-3.295-5.764-8.417-7.368-11.791
	c-0.487-1.027-0.886-2.17-1.208-3.296c-1.28-0.721-2.695-1.681-2.716-2.198c-0.516,0.001-0.724,0.224-0.876-0.287
	c-0.389-0.072-0.503-0.375-0.415-0.851c-0.528-0.063-1.074-0.109-1.604-0.133c-0.187-0.456-0.282-1.061-0.104-2.192
	c0.402-2.504,1.558-6.334,1.558-6.334s-2.445-1.789-3.632-2.545c-1.187-0.757-2.249-3.877-2.667-4.084
	c-0.42-0.205-2.64,0.365-2.096-1.584c0.541-1.949,2.927-8.913,4.099-10.59c1.169-1.674,2.068-2.029,2.763-2.45
	c0.69-0.422,0.269-1.253,1.507-3.137c1.237-1.885,3.349-8.224,5.906-10.118c2.56-1.893,4.021-1.556,5.198-1.841
	c1.181-0.288,3.606-1.484,5.626-0.664c2.021,0.821,3.422,2.201,3.422,2.201s3.945-2.181,5.613-2.261
	c1.666-0.081,2.501-0.018,2.847-0.228c0.345-0.212,1.105-1.328,1.105-1.328s-2.553-2-2.98-3.593
	c-0.428-1.596-0.717-3.159-0.407-3.958c0.305-0.801,0.718-1.708,0.718-1.708s-1.263-1.59-0.571-2.116
	c0.691-0.524,8.467-1.447,12.157-0.915c3.685,0.531,6.831,3.219,8.197,4.983c1.368,1.764,2.714,5.75,2.65,6.237
	c-0.067,0.486-3.884,1.415-3.884,1.415s0.038,0.904-0.509,1.602c-0.553,0.698-0.517,1.081-0.517,1.081s0.985,1.488,0.569,1.838
	c-0.414,0.351-1.633,0.186-1.633,0.186s0.004,0.52-0.254,0.833c-0.258,0.315-1.109,0.287-1.109,0.287s0.403,0.569,0.248,0.918
	c-0.154,0.348-0.413,0.489-0.463,0.576c-0.053,0.087,0.506,0.501-0.029,1.216c-0.533,0.715-0.931,0.963-0.931,0.963
	s0.81,1.401,1.019,1.957c0.214,0.553,0.495,0.968,1.193,1.692c0.701,0.726,1.821,1.9,1.615,2.145
	c-0.206,0.244,3.296,4.355,5.32,6.009c2.027,1.656,2.863,1.789,5.522,4.62c2.661,2.832,6.442,7.323,6.442,7.323
	s0.835,0.132,1.393,0.408c0.559,0.274,1.607,1.412,1.607,1.412c0.559,0.483,3.071,1.717,3.978,2.127
	c0.905,0.412,3.13,0.604,2.932,1.789c-0.082,0.481-0.243,1.114-0.448,1.737c1.081,0.636,0.632,1.517,0.761,1.732
	c-0.054,0.07-0.109,0.135-0.161,0.206c0.063,0.158,0.044,0.32-0.025,0.472c0.016-0.025,0.028-0.052,0.041-0.08
	c0.163,0.277,0.386,0.506,0.668,0.687c0.228,0.087,0.372,0.222,0.48,0.375c0.128,0.228,0.327,0.454,0.555,0.68l0.009-0.002
	c1.235,0.671,2.885,0.657,2.604,3.111c0.794,0.75,0.347,1.627-0.365,1.276c0.012,0.007,0.021,0.014,0.031,0.019
	c-0.593,2.529-2.085,5.673-4.571,6.7c0.203,3.307,0.985,5.253,2.519,8.641c-0.007,0-0.009,0-0.012,0
	c0.113,0.009,0.229,0.039,0.345,0.1c0.278,0.319,0.303,0.627,0.067,0.927c-0.024,0.026-0.047,0.057-0.067,0.085
	c0.022-0.031,0.048-0.061,0.076-0.087l0.788,1.399c0.088-0.04,0.176-0.029,0.268,0.034c0.315,0.3,0.495,0.758,0.636,1.259
	l0.029,0.053l0.443-0.208c0.13-0.091,0.156-0.229,0.083-0.414l-0.47-0.915l0.415-0.212l0.482,0.974
	c0.074,0.44-0.021,0.74-0.288,0.894l-0.485,0.231l1.002,1.945c2.313-0.684,4.741-1.092,7.234-1.189
	c15.797-0.598,29.826,11.7,30.426,27.496c0.6,15.798-12.468,28.876-28.266,29.478c-15.798,0.598-29.822-11.576-30.421-27.374
	c-0.407-10.75,5.035-20.009,13.839-25.202c-0.211-0.064-0.245-0.219-0.137-0.518c-0.325-0.043-0.388-0.203-0.246-0.571l0.022-0.012
	l-0.037-0.071l-0.013,0.008c-0.303-0.041-0.366-0.184-0.248-0.507l-0.021-0.039l-0.025,0.015c-0.304-0.042-0.364-0.188-0.24-0.522
	l-0.013-0.029l-0.038,0.019c-0.304-0.041-0.367-0.189-0.235-0.531l-0.034-0.062c-0.116,0.035,0.24-0.22,0.116-0.189
	c-0.476,0.25-0.979-0.3-0.583-0.685l-0.019-0.092c-0.513,0.096-0.804-0.567-0.352-0.843c-0.127-0.755-0.435-1.493-0.719-2.243
	l-0.004-0.011c-0.014-0.002-0.027-0.008-0.038-0.012c-0.144-0.038-0.261-0.102-0.338-0.189c-0.157-0.159-0.214-0.392-0.109-0.672
	c0.049-0.026,0.102-0.046,0.151-0.071c-0.073-0.2-0.146-0.399-0.219-0.596c-0.141-0.095-0.287-0.118-0.443-0.07l-18.718,19.67
	c0.31,0.437,0.316,0.965-0.171,1.764c-0.289,0.478-1.376,0.921-2.745,1.299l-8.406,8.834l-0.231,0.246
	c0.019,0.082,0.039,0.166,0.062,0.25l0.634,0.019c0.094,0.006,0.111,0.06,0.052,0.167l-0.357,0.375
	c-0.021,0.136-0.006,0.248,0.066,0.332l0.63,0.133c0.091,0.052,0.101,0.11,0.033,0.167l-0.438,0.317
	c-0.066,0.112-0.067,0.263,0.004,0.368l0.615,0.232c0.066,0.063,0.07,0.128,0.011,0.197l-0.493,0.229
	c-0.065,0.118-0.066,0.232-0.005,0.346l0.514,0.296c0.059,0.065,0.06,0.134,0.007,0.205l-0.54,0.151
	c-0.098,0.117-0.142,0.237-0.065,0.364l0.472,0.379c0.079,0.069,0.068,0.126-0.027,0.169l-0.569,0.118
	c-0.097,0.092-0.133,0.193-0.104,0.296l0.441,0.459c0.039,0.06,0.059,0.118-0.045,0.168l-0.548-0.006
	c-0.115,0.082-0.192,0.188-0.181,0.343l0.37,0.444c0.073,0.102,0.054,0.168-0.063,0.195l-0.635-0.055
	c-0.115,0.056-0.214,0.122-0.211,0.284l0.278,0.485c0.042,0.09-0.004,0.175-0.107,0.157l-0.584-0.107
	c-0.127,0.04-0.194,0.132-0.226,0.247l0.144,0.55c0.03,0.099-0.038,0.154-0.137,0.117l-0.44-0.237
	c-0.143,0.014-0.241,0.087-0.301,0.224l0.084,0.587c-0.024,0.065-0.068,0.11-0.161,0.083l-0.418-0.264
	c-0.141-0.018-0.245,0.033-0.32,0.153l-0.009,0.488c-0.011,0.099-0.093,0.125-0.188,0.066l-0.39-0.249
	c-0.148-0.034-0.272,0.021-0.383,0.112l0.005,0.6c-0.024,0.091-0.117,0.104-0.211,0.042l-0.367-0.418
	c-0.133-0.034-0.254-0.003-0.369,0.059l-0.119,0.472c-0.074,0.093-0.136,0.098-0.231,0.017l-0.32-0.357
	c-0.104-0.059-0.235-0.055-0.396,0.014l-0.132,0.465c-0.068,0.064-0.141,0.068-0.214,0.008l-0.263-0.441
	c-0.135-0.035-0.218-0.037-0.351,0.007l-0.231,0.314c0.74,0.458,1.817,1.167,2.166,1.981c0.508,1.178-0.179,1.663,1.432,2.701
	c1.612,1.04,2.581,2.057,4.073,2.836c1.493,0.777,2.555,0.788,1.943,2.036c-0.534,1.09-7.707,2.466-11.188,1.936l-0.01,0.094
	l-0.396,0.907l-0.163,0.005l-0.006-0.167l-0.003,0.02l-1.998-0.114c-0.554,0.233-1.091,0.206-1.61-0.132l-1.81-0.261l0.081-0.631
	l-0.137-0.041l0.068-0.745l0.243-0.14l0.021-0.348l0.265,0.056l0.387-0.673l0.261-0.012l-0.086-0.145v-0.024
	c-1.241-0.683-2.282-1.225-2.78-1.316c-0.143-0.025-0.272-0.053-0.388-0.082c-0.16-0.474-0.324-0.958-0.487-1.453
	c0.492-1.443,1.509-4.442,1.857-5.228c0.044-0.102,0.084-0.193,0.12-0.281c-0.072,0.015-0.146,0.04-0.218,0.073
	c-0.132,0.197-0.326,0.23-0.588,0.103c-0.023-0.007-0.054-0.008-0.08-0.01c-3.435,10.581-13.331,18.223-25.197,18.675
	c-17.277,0.591-29.435-12.418-30.008-27.547C-0.554,97.006,10.62,84.295,26.51,83.559L26.51,83.559z M68.652,37.827
	c-1.037,0.724-1.859,1.295-1.859,1.295s-1.069-1.354-2.444-2.832c-1.23,2.126-2.775,4.321-3.363,4.747
	c-0.97,0.703-2.614,3.91-2.885,4.886c-0.273,0.974,0.994,3.467,0.994,3.467s7.383,2.312,11.354,3.746
	c3.973,1.431,8.992,4.109,9.552,4.591c0.56,0.483,5.087,2.05,6.139,3.154c1.047,1.106,2.309,2.626,1.9,3.741
	c-0.202,0.555-1.071,2.743-2.275,5.159l9.958-2.117l0.021-0.004l-0.009,0.002l1.647-0.349L97.3,66.989
	c-0.063-0.164-0.117-0.329-0.157-0.493l-0.301,0.108l-0.427-1.193l0.069-0.893c0.011-0.005,0.055-0.021,0.12-0.045l-0.472-1.155
	c-0.199-0.104-0.385-0.252-0.557-0.449c-0.706-0.043-1.002-0.371-0.883-0.979c0.114-0.411,0.136-0.74,0.062-0.986
	c-0.931,0.031-2.775,0.035-3.29-0.754c-0.633-0.968-0.782-2.358-1.27-2.841c-0.49-0.483-1.261-1.034-1.122-1.452
	c0.135-0.417,0.063-0.765,0.063-0.765l-1.882-1.028l-1.54-1.727c0,0-8.582-5.017-10.894-7.64
	C72.923,42.542,70.133,39.273,68.652,37.827L68.652,37.827z M99.984,56.314l0.53-0.254c-0.227-0.011-0.458-0.031-0.687-0.065
	C99.904,56.09,99.96,56.196,99.984,56.314L99.984,56.314z M98.272,55.217c-0.586-0.964-0.738-2.281-1.212-2.748
	c-0.489-0.483-1.26-1.036-1.122-1.453c0.134-0.418,0.063-0.766,0.063-0.766l-1.881-1.027l-1.54-1.728c0,0-8.583-5.015-10.894-7.64
	s-5.954-6.909-6.932-7.527c-0.977-0.62-2.23-1.305-2.579-1.165c-0.114,0.047-0.451,0.094-0.856,0.139
	c1.228,1.096,2.799,1.982,2.799,1.982s-0.196,0.357-0.588,0.816c1.103,1.406,3.19,3.704,4.584,4.841
	c2.028,1.653,2.864,1.787,5.523,4.618c2.66,2.832,6.441,7.325,6.441,7.325s0.838,0.133,1.395,0.407
	c0.559,0.272,1.606,1.413,1.606,1.413c0.561,0.483,3.071,1.716,3.978,2.127C97.361,54.968,97.813,55.082,98.272,55.217
	L98.272,55.217z M55.15,91.913l-1.493-4.138c-0.255,0.13-0.511,0.179-0.771,0.172c-0.009-0.021-0.02-0.042-0.031-0.061
	c-0.209-0.44-1.546-3.232-3.011-5.938l-5.3,7.419c5.87,4.467,10.111,11.075,11.493,18.292l0,0l0.114-0.008
	C55.301,103.501,54.443,97.55,55.15,91.913L55.15,91.913z M56.256,108.147l-0.126,0.008c0.202,1.174,0.329,2.363,0.374,3.561l0,0
	c0.022,0.569,0.025,1.135,0.011,1.697c0.288,0.012,0.582,0.027,0.88,0.043c-0.001-0.195-0.002-0.338,0.002-0.408
	c0.008-0.138-0.203-0.912-0.507-2.146c-0.117,0.01-0.234-0.042-0.356-0.154c-0.091-0.094-0.12-0.192-0.088-0.291
	c0.069-0.169,0.142-0.337,0.216-0.5C56.533,109.411,56.396,108.806,56.256,108.147L56.256,108.147z M57.415,115.46l-1.022-0.044
	c-0.169,1.711-0.496,3.371-0.971,4.965c0.133-0.047,0.27-0.048,0.417,0.024c0.144,0.032,0.284,0.027,0.421-0.061
	c0.03-0.031,0.061-0.061,0.09-0.085c0.165-0.392,0.299-0.612,0.668-0.817C57.361,119.25,57.417,117.196,57.415,115.46L57.415,115.46
	z M58.138,129.395c-0.013,0.036-0.016,0.08-0.01,0.129c0.151,0.054,0.309,0.096,0.467,0.125
	C58.441,129.563,58.288,129.479,58.138,129.395L58.138,129.395z M58.756,129.738c-0.236-0.03-0.45-0.085-0.646-0.163
	c0.22,0.098,0.44,0.143,0.648,0.165L58.756,129.738L58.756,129.738z M63.851,106.265c0.069,0.002,0.127-0.033,0.185-0.079
	l0.242-0.534c0.074-0.143,0.157-0.143,0.242-0.004l0.201,0.477c0.112,0.123,0.229,0.139,0.354,0.047l0.266-0.482
	c0.126-0.168,0.238-0.204,0.319,0.058l0.011,0.05c0.525-1.476,0.895-2.95,1.167-4.417c-0.981-0.056-1.996-0.125-2.86-0.208
	C63.938,102.845,63.895,104.571,63.851,106.265L63.851,106.265z M64.115,92.37c0.698-0.093,1.455-0.217,1.455-0.217
	s3.814-10.615,5.639-14.927c-1.128,0.213-2.293,0.432-3.502,0.66l-1.284,0.241l0.05,0.252l-0.595,0.123l-0.054-0.265
	c-0.924,0.175-1.876,0.354-2.866,0.542c1.07,3.089,2.029,5.421,2.442,5.313c0.236-0.06-0.218,0.084-1.072,0.352
	c0.091,0.373,0.127,0.698,0.085,0.961c-0.38,2.477-0.628,2.666-0.394,3.895C64.088,89.667,64.116,90.779,64.115,92.37L64.115,92.37z
	 M61.676,74.899L74,72.281c1.479-2.278,3.046-4.528,3.046-4.528l-2.16-0.68l-2.749,4.537c0,0-7.832-2.719-12.806-4.519
	C59.904,69.12,60.769,72.044,61.676,74.899L61.676,74.899z M47.85,78.513l-1.154,2.085c0.38,0.261,0.812,0.496,1.284,0.713
	l0.85-1.184C48.492,79.546,48.164,78.998,47.85,78.513L47.85,78.513z M62.795,78.299c1.005-0.19,1.979-0.375,2.929-0.552
	l-0.044-0.209l-2.931,0.633L62.795,78.299L62.795,78.299z M71.64,76.251l-5.365,1.159l0.047,0.225l1.293-0.244
	c1.33-0.249,2.604-0.488,3.837-0.721C71.518,76.518,71.58,76.377,71.64,76.251L71.64,76.251z M69.218,101.57
	c-0.445,1.208-0.892,2.615-1.361,5.243c-0.044,0.025-0.088,0.049-0.132,0.072c0.05,0.063,0.124,0.082,0.229,0.052l0.476-0.303
	c0.15-0.104,0.216-0.063,0.199,0.126l-0.022,0.122l4.679-4.928c-0.61,0.051-1.06,0.062-1.255,0.023
	C71.371,101.85,70.402,101.698,69.218,101.57L69.218,101.57z M78.183,96.497l8.174-8.305l13.295-13.998
	c-0.063-0.312-0.004-0.58,0.192-0.799L99,71.275c-0.118-0.269-0.276-0.441-0.463-0.546c-2.592,0.775-4.962,1.447-7.191,2.046
	l0.063,0.222l-0.586,0.165l-0.065-0.229c-2.842,0.754-5.462,1.39-8.045,1.967c-0.416,0.55-0.84,1.04-1.264,1.441
	c-3.109,2.939-6.755,8.315-7.992,10.34c-1.238,2.024-1.779,3.973-1.779,3.973s0.744,0.938,1.674,2.046c0,0,1.749,2.865,2.279,3.341
	c0.512,0.459,2.427,0.455,2.545,0.456l0.006,0L78.183,96.497L78.183,96.497z M83.16,74.283c2.393-0.543,4.835-1.137,7.463-1.835
	l-0.077-0.277l-6.979,1.507C83.433,73.885,83.298,74.086,83.16,74.283L83.16,74.283z M32.544,128.371
	c0.073,0.516,0.146,1.021,0.219,1.516c-0.077-0.034-0.147-0.068-0.209-0.103l0.639,2.861l0.129,0.138l0,0l0.125,1.01
	c1.242-0.255,2.449-0.609,3.604-1.058l-0.363-0.964l0.079-0.182l-3.6-7.397l-0.273,0.019c-0.218,0.164-0.44,0.153-0.667,0.066
	l-0.404,0.052c-0.146,0.113-0.297,0.169-0.456,0.158l0.957,4.278C32.386,128.655,32.46,128.523,32.544,128.371L32.544,128.371z
	 M32.19,129.004l-1.025-4.569c-0.014-0.007-0.024-0.01-0.036-0.015l-0.392,0.045c-0.187,0.208-0.396,0.189-0.616,0.063l-0.397,0.038
	c-0.227,0.175-0.46,0.18-0.698,0.065l-0.356,0.031c-0.181,0.138-0.367,0.212-0.577,0.06l-0.47,0.042
	c-0.075,0.047-0.149,0.077-0.224,0.094l1.344,8.242l0.125,0.142l0.122,0.837l0.021,0.18c0.226,0,0.451-0.007,0.675-0.014l0,0
	c1.134-0.043,2.246-0.169,3.33-0.368l-0.121-1.048l0.12-0.158l-0.679-3.021c-0.258-0.187-0.309-0.372-0.185-0.58
	C32.16,129.056,32.174,129.033,32.19,129.004L32.19,129.004z M43.495,85.416l-1.82,2.018c0.477,0.284,0.945,0.58,1.407,0.892
	c1.234-1.721,2.466-3.442,3.703-5.162c0.105-0.244,0.083-0.484-0.028-0.721c-0.339-0.272-0.604-0.501-0.794-0.694
	c-0.46,0.781-0.944,1.561-1.441,2.305c0.047,0.058,0.066,0.143,0.063,0.257c-0.128,0.302-0.298,0.567-0.497,0.801l0,0v0.001
	l-0.002,0.001l-0.003,0.003c-0.016,0.02-0.035,0.04-0.053,0.062l-0.003,0.002l-0.006,0.008l-0.004,0.003
	c-0.104,0.117-0.287,0.318-0.312,0.321C43.687,85.516,43.591,85.468,43.495,85.416L43.495,85.416z M91.211,72.291
	c1.344-0.362,2.74-0.75,4.205-1.171l-4.273,0.924L91.211,72.291L91.211,72.291z M107.847,82.524l0.014,0.002
	c0.036-0.111,0.13-0.161,0.282-0.153c-0.011-0.2,0.089-0.269,0.263-0.247c-0.076-0.14-0.152-0.278-0.227-0.417
	c-0.475-1.372-0.486-2.744,0.062-4.118c0.118-0.104,0.241-0.176,0.367-0.219c-0.049,0.013-0.092,0.03-0.135,0.051
	c-1.449-3.273-2.267-5.125-2.444-8.579c-1.205,0.449-2.148,0.802-3.717,0.962l2.974,7.563c0.011-0.004,0.025-0.011,0.036-0.015
	c0.585,0.167,0.655,0.526,0.229,1.084c-0.011,0.01-0.016,0.016-0.016,0.016l1.658,3.489c-0.007,0.007-0.014,0.012-0.02,0.016
	c0.382-0.074,0.449,0.172,0.332,0.489l-0.032,0.017l0.015,0.021c0.132-0.023,0.226-0.003,0.284,0.045
	C107.792,82.527,107.82,82.525,107.847,82.524L107.847,82.524z M108.14,83.182l-0.009,0.008c0.015,0.077,0.004,0.168-0.027,0.272
	l0.054,0.089l0.037-0.018c0.412-0.086,0.488,0.174,0.364,0.511c0.352-0.038,0.405,0.214,0.287,0.538l-0.021,0.012l0.006,0.009
	c0.018,0.006,0.037,0.012,0.051,0.017c0.235-0.101,0.472-0.201,0.711-0.296c-0.259-0.477-0.517-0.955-0.775-1.432
	c0,0.002,0.002,0.004,0.002,0.005c-0.033,0.131-0.187,0.208-0.354,0.147c-0.052,0.141-0.162,0.184-0.315,0.163
	C108.146,83.198,108.145,83.189,108.14,83.182L108.14,83.182z M107.797,58.618l-0.254,0.287c1.966,1.707,1.716,3.705-1.268,6.066
	c-0.025,0.649,0.106,2.732,0.138,3.39c2.456-1.017,3.834-4.134,4.3-6.569l0,0c-0.078-0.063-0.151-0.142-0.23-0.236
	c-0.787-0.732-1.536-1.476-2.017-2.313l-0.625-0.581l-0.041-0.044L107.797,58.618L107.797,58.618z M109.228,58.064l0.105,0.098
	l-0.029,0.442c0.652,0.479,1.228,1.118,1.782,1.785c0.15-1.263-0.599-1.819-1.848-2.324l-0.006-0.005L109.228,58.064L109.228,58.064
	z M103.424,58.384l-0.008-0.141l-0.093-0.048l-4.141,2.954c-0.174,0.333-0.271,0.664-0.252,0.99l0.518,1.264l0.021,0.035
	l0.126-0.045l0.949,0.855l0.33,0.901l-0.345,0.124l0.179,0.457c2.306-1.216,4.16-3.083,5.578-5.668l-0.035,0.013
	c-0.298,0.141-1.392,0.596-1.404,0.578c-0.01-0.011-0.193-0.27-0.368-0.512l-0.055,0.048l-0.383-0.381l-0.67,0.44l-0.91-1.191
	L103.424,58.384L103.424,58.384z M98.355,120.007L98.355,120.007c0.509,1.273,1.133,2.474,1.854,3.6l-0.004,0.002l0.076,0.126
	c-0.024-0.042-0.049-0.086-0.072-0.128l0.855-0.493l0.193,0.046l13.959-8.17l1.144-2.075l-2.033-0.162l-14.946,6.661l-0.095,0.164
	L98.355,120.007L98.355,120.007L98.355,120.007L98.355,120.007z M98.207,119.585l0.909-0.401l0.185,0.069l14.65-6.532l-5.626-0.453
	l-10.016,2.902l-0.115,0.147l-1.087,0.329c0.251,1.375,0.617,2.69,1.086,3.941L98.207,119.585L98.207,119.585z M106.709,130.141
	l0.002-0.003l0,0l0.465-0.827l0.19-0.058l4.896-8.897l-8.057,6.463l-0.048,0.18l-0.704,0.572c0.998,0.955,2.09,1.809,3.257,2.568
	L106.709,130.141L106.709,130.141z M115.682,133.621l-0.003,0.014c1.359,0.243,2.761,0.381,4.198,0.411l0,0l0,0l0.012,0.001
	c-0.004-0.001-0.008-0.001-0.012-0.001l0.102-0.979l0.149-0.129l1.081-11.242l-1.296-4.584l-4.063,15.415l0.068,0.176
	L115.682,133.621L115.682,133.621z M115.247,133.554l0.001-0.015l0.259-0.949l0.171-0.104l4.137-15.717l-0.567-2.015l-2.322,1.864
	l-5.46,14.716l0.051,0.181l-0.324,0.888C112.485,132.894,113.84,133.281,115.247,133.554L115.247,133.554z M124.903,133.686
	l0.002,0.003l0,0L124.903,133.686L124.903,133.686z M144.187,110.906l0.086-0.003c-0.002-0.253,0.002-0.506-0.008-0.762
	c-0.044-1.145-0.161-2.261-0.349-3.343l-0.876,0.195l-0.172-0.103l-15.13,3.385l15.396,0.693l0.155-0.103L144.187,110.906
	L144.187,110.906z M27.791,88.982l-0.061,1.029l-0.144,0.129l-0.028,18.303c0.006,0,0.01-0.001,0.015-0.001l1.916-4.007
	l2.422-13.743l-0.102-0.159l0.164-1.021l0.006-0.125C30.617,89.119,29.218,88.978,27.791,88.982L27.791,88.982z M27.357,88.987
	c-0.17,0.002-0.342,0.001-0.511,0.01c-1.626,0.074-3.189,0.305-4.679,0.675l0.198,0.949l-0.107,0.167l4.985,18.081
	c0.053-0.076,0.099-0.167,0.134-0.273l0.028-18.458l-0.102-0.153L27.357,88.987L27.357,88.987z M32.447,89.484l-0.043,0.104
	l-0.168,0.973l-0.146,0.135l-2.314,13.142l5.857-12.233l-0.033-0.186l0.391-0.829C34.85,90.123,33.665,89.752,32.447,89.484
	L32.447,89.484z M48.889,102.99c-0.237-0.515-0.495-1.018-0.769-1.513l-0.545,0.232c0.003,0.015,0.009,0.03,0.012,0.045
	c-0.19,0.187-0.481,0.333-0.884,0.396c-0.19-0.101-0.338-0.34-0.303-0.596c0.212-0.228,0.509-0.382,0.856-0.46l0.017,0.025
	l0.513-0.231c-1.046-1.776-2.316-3.426-3.768-4.895l-0.635,0.748l0,0l-0.198,0.02l-9.908,11.785l2.014-0.701l10.486-7.819
	l0.055-0.179l0.825-0.622l0.221,0.382l-0.792,0.583l-0.198-0.025l-10.033,7.482l11.927-4.151l0.109-0.153l0.972-0.344L48.889,102.99
	L48.889,102.99z M48.957,103.425l-0.93,0.321l-0.181-0.084l-12.472,4.345l-1.082,0.807c0.085,0.003,0.168,0.026,0.247,0.068
	l0.565-0.054c0.143-0.063,0.288-0.075,0.437-0.043l13.64-1.345l0.144-0.124l1.025-0.107l0.033-0.01
	c-0.328-1.309-0.769-2.586-1.317-3.821L48.957,103.425L48.957,103.425z M50.341,107.648l-0.979,0.094l-0.155-0.125l-9.496,0.936
	c0.066,0.011,0.134,0.027,0.203,0.052l0.33-0.022c0.211-0.115,0.422-0.125,0.626-0.029l0.394-0.043
	c0.176-0.123,0.405-0.114,0.659-0.043l0.322-0.016c0.21-0.099,0.448-0.112,0.715-0.041l0.416-0.012
	c0.22-0.159,0.462-0.144,0.715-0.05l0.329-0.021c0.192-0.167,0.41-0.161,0.677-0.051l0.425-0.036
	c0.197-0.103,0.408-0.13,0.645-0.044l0.375-0.02c0.208-0.132,0.421-0.146,0.643-0.044l0.4-0.028
	c0.215-0.177,0.449-0.221,0.717-0.067l0.313-0.014c0.219-0.18,0.472-0.186,0.746-0.074l0.36-0.027
	c0.219-0.174,0.455-0.174,0.707-0.05l0.111-0.014c-0.018-0.076-0.033-0.15-0.052-0.224L50.341,107.648L50.341,107.648z
	 M51.044,112.33l-0.035,0.004l0,0l-0.006-0.001l0,0l0,0l-0.978-0.001l-0.143-0.139l-18.316,0.023l0.304,0.144l19.165,0.817
	C51.044,112.895,51.046,112.614,51.044,112.33L51.044,112.33z M48.823,122.075l-0.013-0.007l-0.259,0.011
	c-0.176,0.215-0.387,0.244-0.638,0.086l-0.328,0.06c-0.21,0.198-0.451,0.232-0.718,0.097l-0.389,0.07
	c-0.216,0.151-0.447,0.19-0.691,0.113l-0.359,0.061c-0.176,0.176-0.402,0.198-0.679,0.081l-0.167,0.025l1.938,1.12l0.188-0.02
	l0.861,0.491C48.031,123.56,48.447,122.831,48.823,122.075L48.823,122.075z M49.085,121.422l0.047,0.004
	c0.08-0.176,0.159-0.356,0.235-0.535c-0.041-0.018-0.078-0.033-0.078-0.033l-0.889-0.421l-0.07-0.184l-12.148-5.679l-4.917-0.206
	c0.165,0.264,0.31,0.562,0.416,0.87l12.166,7.011c0.15-0.059,0.308-0.058,0.471,0.004l0.398-0.054c0.2-0.191,0.434-0.248,0.71-0.112
	l0.311-0.035c0.208-0.195,0.459-0.218,0.739-0.124l0.361-0.052c0.205-0.187,0.442-0.203,0.7-0.097l0.367-0.069
	c0.18-0.151,0.374-0.177,0.585-0.078l0.265-0.034L49.085,121.422L49.085,121.422z M49.521,120.484l0.011,0.003
	c0.499-1.252,0.882-2.563,1.139-3.92l0,0l-0.96-0.132l-0.124-0.156l-12.614-1.675l-0.325-0.013l11.754,5.496l0.184-0.036
	L49.521,120.484L49.521,120.484z M20.562,132.542l-0.013,0.035c1.178,0.482,2.39,0.868,3.628,1.147l0,0l0.17-0.902l0.163-0.116
	l0.908-8.252c-0.331-0.288-0.596-0.675-0.795-1.171c-0.285-0.092-0.55-0.222-0.795-0.387l-3.015,8.667l0.041,0.185L20.562,132.542
	L20.562,132.542z M24.66,133.744l-0.012,0.083c1.271,0.26,2.564,0.406,3.87,0.431l0.001-0.059l-0.081-0.92l0.127-0.153l-1.347-8.251
	c-0.101-0.006-0.2-0.033-0.3-0.073l-0.446,0.031c-0.176,0.16-0.304,0.095-0.425,0l0.472-0.403l0.382-0.054
	c0.06-0.054,0.124-0.094,0.188-0.122c-0.068,0.027-0.133,0.067-0.188,0.121l-0.362,0.038l-0.505,0.424
	c-0.161-0.067-0.311-0.152-0.45-0.252l-0.897,8.148l0.08,0.171L24.66,133.744L24.66,133.744z M12.842,127.564
	c0.994,0.946,2.068,1.813,3.204,2.585l0,0l0.557-0.674l0.197-0.021l8.964-12.683l0.09-0.254l-0.028-0.169
	c-0.126,0.036-0.24-0.004-0.304-0.133c0.042-0.229,0.033-0.42-0.038-0.569c-0.163-0.039-0.28-0.133-0.371-0.263
	c-0.163-0.004-0.362,0.091-0.587,0.266c-0.151,0.021-0.234-0.046-0.255-0.199c0.023-0.045,0.046-0.092,0.066-0.137l-2.092,0.632
	l-8.867,10.706l-0.012,0.189l-0.501,0.682L12.842,127.564L12.842,127.564z M9.574,123.777l0.027-0.02l0.73-0.568l0.195,0.023
	l7.912-6.116l-9.74,2.945l-0.116,0.149l-0.794,0.293l-0.126,0.05C8.211,121.663,8.852,122.747,9.574,123.777L9.574,123.777z
	 M9.954,124.088l-0.096,0.087c0.792,1.085,1.676,2.105,2.634,3.049l0.547-0.66l0.196-0.021l8.695-10.502l-3.01,0.91l-8.276,6.4
	l-0.054,0.179L9.954,124.088L9.954,124.088z M5.856,106.932l0.176,0.047l0.882,0.278l0.093,0.175l10.976,3.491l3.476-0.164
	l-13.69-7.104l-0.186,0.028l-0.745-0.332C6.417,104.504,6.087,105.699,5.856,106.932L5.856,106.932z M5.962,107.455l-0.186-0.049
	c-0.213,1.291-0.316,2.618-0.303,3.969l0.014-0.001l0.924-0.044l0.149,0.131l10.903-0.514l-10.506-3.344l-0.178,0.06L5.962,107.455
	L5.962,107.455z M5.586,111.847l-0.102,0.01l0.006,0.179l0,0c0.05,1.299,0.225,2.577,0.511,3.823l0.146-0.026l0.918-0.114
	l0.158,0.12l15.261-1.869l0.908-0.703c-0.109-0.034-0.24-0.059-0.392-0.077c-0.082-0.093-0.1-0.25-0.026-0.348
	c0.071-0.026,0.141-0.05,0.206-0.077l-1.014-0.321c-0.179,0.005-0.357,0.007-0.544,0.004c-0.25,0.01-0.417-0.076-0.471-0.328
	l-3.195-1.016l-11.381,0.534l-0.147,0.119L5.586,111.847L5.586,111.847z M6.281,116.296l-0.167,0.032
	c0.33,1.295,0.781,2.555,1.339,3.767l0.124-0.044v-0.001l0.014-0.004l0.002,0l0,0l0.87-0.264l0.176,0.091l10.198-3.083l3.367-2.603
	l-14.954,1.83l-0.137,0.128L6.281,116.296L6.281,116.296z M110.872,81.637L110.872,81.637l-0.818,0.391l0.011,0.3l-0.262,0.032
	c0.262,0.528,0.524,1.057,0.791,1.585c0.416-0.151,0.84-0.293,1.269-0.428L110.872,81.637L110.872,81.637z M113.713,88.945
	L113.713,88.945l-0.006-0.187c-0.212,0.059-0.421,0.122-0.63,0.187c0.108,0.214,0.215,0.428,0.321,0.643
	c0.169-0.007,0.327-0.035,0.426-0.201c-0.196-0.066-0.224-0.223-0.231-0.393c0.123-0.042,0.252-0.069,0.377-0.08
	C113.886,88.917,113.799,88.928,113.713,88.945L113.713,88.945z M114.005,89.56L114.005,89.56c0.141,0,0.258-0.037,0.288-0.201
	C114.254,89.465,114.159,89.533,114.005,89.56L114.005,89.56z M115.494,91.161L115.494,91.161c0.016,0.039,0.033,0.08,0.051,0.122
	c-0.081,0.302-0.267,0.404-0.558,0.304c0.001,0.006,0.004,0.01,0.003,0.016c-0.294,0.167-0.589,0.271-0.887,0.281
	c-0.435,0.349-0.912,0.556-1.415,0.663l0.049,0.102c-0.015,0.018-0.03,0.032-0.045,0.047l6.504,13.351l0.177-3.268l-3.041-11.715
	c-0.224,0.184-0.479,0.273-0.771,0.249L115.494,91.161L115.494,91.161z M121.169,108.973L121.169,108.973l0.023,0.095l0.714,0.207
	c0.018-0.32,0.021-0.642,0.008-0.966L121.169,108.973L121.169,108.973z M121.898,108.08L121.898,108.08
	c-0.007-0.095-0.012-0.191-0.021-0.288l-0.891,0.473l0.132,0.512L121.898,108.08L121.898,108.08z M121.763,110.006L121.763,110.006
	l0.099-0.15c0.013-0.132,0.025-0.263,0.036-0.396l-0.553-0.158c0.136,0.201,0.231,0.432,0.293,0.7L121.763,110.006L121.763,110.006z
	 M121.703,110.433L121.703,110.433c0.009,0.115,0.016,0.237,0.009,0.364c0.039-0.174,0.068-0.347,0.095-0.523L121.703,110.433
	L121.703,110.433z M121.55,113.741L121.55,113.741c-0.171,0.062-0.357,0.1-0.563,0.114c-0.074,0.004-0.145,0-0.216-0.003
	l-0.279,1.068l1.146,2.303l0.324-3.356L121.55,113.741L121.55,113.741z M119.362,106.373L119.362,106.373l-0.003,0.006l0.985,2.021
	l0.429-0.229l-0.894-3.448L119.362,106.373L119.362,106.373z M119.791,104.394L119.791,104.394l-0.268-1.039l-0.124,2.292
	L119.791,104.394L119.791,104.394z M120.181,113.771L120.181,113.771c-0.108-0.026-0.212-0.06-0.313-0.101l0.128,0.255
	L120.181,113.771L120.181,113.771z M120.075,114.09L120.075,114.09l0.294,0.584l0.217-0.832c-0.058-0.006-0.118-0.013-0.177-0.022
	L120.075,114.09L120.075,114.09z M120.448,108.548L120.448,108.548c0.188,0.089,0.356,0.192,0.506,0.315l-0.133-0.511
	L120.448,108.548L120.448,108.548z M120.421,115.184L120.421,115.184l-0.418,1.584l1.256,4.435l0.35-3.64L120.421,115.184
	L120.421,115.184z M120.298,114.939L120.298,114.939l-0.364-0.733l-0.536,0.425l0.509,1.796L120.298,114.939L120.298,114.939z
	 M119.849,114.041L119.849,114.041l-0.249-0.501c-0.187-0.109-0.361-0.243-0.518-0.407l-0.109-0.01l0.372,1.32L119.849,114.041
	L119.849,114.041z M118.782,113.112L118.782,113.112l-0.713,0.417l-1.023,2.759l2.147-1.722L118.782,113.112L118.782,113.112z
	 M117.593,110.675L117.593,110.675l0.27-0.489l-0.343-0.58l-0.694,0.202L117.593,110.675L117.593,110.675z M117.528,111.325
	L117.528,111.325l0.502,0.117l-0.216-0.245L117.528,111.325L117.528,111.325z M117.603,109.395L117.603,109.395l0.135-0.039
	l-0.173-0.334l-0.229-0.077L117.603,109.395L117.603,109.395z M117.697,109.556L117.697,109.556l0.269,0.449l0.009-0.015
	l0.015,0.008c-0.004-0.065-0.016-0.128-0.021-0.196l-0.145-0.282L117.697,109.556L117.697,109.556z M117.972,110.368
	L117.972,110.368l-0.251,0.452l0.14,0.159l0.242-0.109c-0.02-0.121-0.039-0.247-0.058-0.376L117.972,110.368L117.972,110.368z
	 M117.986,111.12L117.986,111.12l0.228,0.255c-0.027-0.105-0.051-0.212-0.074-0.323L117.986,111.12L117.986,111.12z
	 M117.361,111.472L117.361,111.472l-0.707,1.285l1.466,0.118l0.308-0.823c-0.036-0.089-0.067-0.179-0.097-0.272l-0.094-0.106
	L117.361,111.472L117.361,111.472z M118.17,113.263L118.17,113.263l0.304-0.178l-0.231-0.019L118.17,113.263L118.17,113.263z
	 M118.308,112.89L118.308,112.89l0.42,0.034l-0.149-0.532c-0.016-0.033-0.033-0.064-0.049-0.098L118.308,112.89L118.308,112.89z
	 M117.825,113.673L117.825,113.673l-2.472,1.448l-2.495,4.526l3.915-3.141L117.825,113.673L117.825,113.673z M117.923,113.407
	L117.923,113.407l0.132-0.357l-1.496-0.118l-1.036,1.88L117.923,113.407L117.923,113.407z M117.142,111.497L117.142,111.497
	l-2.473,1.103l1.786,0.143L117.142,111.497L117.142,111.497z M116.961,111.38L116.961,111.38l-3.095-0.716l-5.055,1.465l5.483,0.441
	L116.961,111.38L116.961,111.38z M117.234,111.257L117.234,111.257l0.051-0.023l0.219-0.391l-0.869-0.98l-2.412,0.699
	L117.234,111.257L117.234,111.257z M116.693,109.658L116.693,109.658l0.73-0.212l-0.354-0.593l-1.568-0.542L116.693,109.658
	L116.693,109.658z M116.929,108.614L116.929,108.614l-1.134-1.914l-3.312-1.793l2.775,3.13L116.929,108.614L116.929,108.614z
	 M117.192,108.703L117.192,108.703l0.25,0.087l-0.87-1.67l-0.468-0.252L117.192,108.703L117.192,108.703z M120.054,87.793
	L120.054,87.793c-0.088,0.002-0.176,0.004-0.265,0.008c-1.049,0.038-2.077,0.139-3.086,0.298c0.01,0.064,0.014,0.131,0.014,0.202
	c-0.126,0.14-0.277,0.248-0.49,0.284l-0.023,0.166l0.256,0.536c0.521-0.03,0.701,0.635,0.463,0.926
	c-0.13,0.29-0.276,0.527-0.443,0.708l2.928,11.266l0.698-12.988l-0.101-0.157L120.054,87.793L120.054,87.793z M125.231,88.159
	L125.231,88.159l-0.375-0.064l-0.071-0.013l-0.001,0.002c-1.383-0.213-2.814-0.315-4.28-0.298v-0.001l-0.219,0.002
	c0.071,0,0.146-0.001,0.219-0.001l-0.073,1.281l-0.143,0.136l-0.732,13.56l0.339,1.307l4.589-14.601l-0.061-0.179l0.361-1.207
	c0.025,0.002,0.049,0.007,0.072,0.011c0.126,0.019,0.248,0.044,0.372,0.067l-0.398,1.26l-0.173,0.095l-4.679,14.883l0.959,3.686
	l0.92-0.487c-0.006-0.048-0.01-0.099-0.019-0.151c-0.021-0.298,0.443-0.398,0.821-0.273l0.632-0.333l0.318-0.283l5.536-16.227
	l-0.057-0.18l0.299-0.895c-1.327-0.484-2.718-0.847-4.16-1.095L125.231,88.159L125.231,88.159z M125.292,114.702L125.292,114.702
	l-2.238-2.481l-0.082,0.041l1.208,2.097L125.292,114.702L125.292,114.702z M124.312,114.587L124.312,114.587l0.102,0.176
	l1.968,1.141l-0.853-0.942L124.312,114.587L124.312,114.587z M122.864,110.237L122.864,110.237c-0.09,0.294-0.199,0.57-0.339,0.822
	c0.009,0.069,0.012,0.129,0.018,0.193l3.146-0.703l-0.765-0.221L122.864,110.237L122.864,110.237z M124.181,110.115L124.181,110.115
	l-1.196-0.344c-0.021,0.096-0.039,0.193-0.067,0.287L124.181,110.115L124.181,110.115z M122.186,108.067L122.186,108.067
	c0.008,0.054,0.025,0.104,0.045,0.154c0.169,0.111,0.343,0.164,0.526,0.13c0.051-0.192,0.041-0.385-0.02-0.573
	c-0.045-0.033-0.089-0.06-0.132-0.084L122.186,108.067L122.186,108.067z M122.423,107.616L122.423,107.616
	c-0.051-0.016-0.099-0.027-0.145-0.036l-0.057,0.03c-0.023,0.077-0.035,0.148-0.04,0.221L122.423,107.616L122.423,107.616z
	 M122.548,112.278L122.548,112.278l0.172-0.09l-0.147-0.261C122.567,112.051,122.561,112.167,122.548,112.278L122.548,112.278z
	 M122.58,111.431L122.58,111.431l0.514,0.566l2.361-1.212L122.58,111.431L122.58,111.431z M122.812,112.346L122.812,112.346
	l-0.299,0.152c-0.062,0.311-0.167,0.563-0.312,0.759l-0.02,0.212l1.01,0.585l0.734,0.226L122.812,112.346L122.812,112.346z
	 M122.976,107.362L122.976,107.362c0.125,0.126,0.193,0.302,0.151,0.532l0.061-0.102l0.291-0.846l-0.08,0.043L122.976,107.362
	L122.976,107.362z M123.596,107.165L123.596,107.165l0.271-0.425l-0.154,0.085L123.596,107.165L123.596,107.165z M129.798,89.408
	L129.798,89.408l-0.303,0.883l-0.179,0.091l-5.433,15.931l0.606-0.538l8.685-13.479l-0.011-0.19l0.497-0.779
	C132.449,90.576,131.159,89.932,129.798,89.408L129.798,89.408z M134.025,91.563L134.025,91.563l-0.13-0.087
	C133.939,91.504,133.981,91.534,134.025,91.563l-0.504,0.781l-0.192,0.045l-8.337,12.94l11.662-10.379l0.04-0.185l0.642-0.575
	C136.32,93.213,135.216,92.334,134.025,91.563L134.025,91.563L134.025,91.563z M137.646,94.493L137.646,94.493l-0.011-0.01
	C137.64,94.486,137.643,94.489,137.646,94.493l-0.669,0.595l-0.199-0.01l-12.151,10.815l-0.234,0.365l15.005-7.932l0.081-0.17
	l0.828-0.438C139.519,96.557,138.629,95.476,137.646,94.493L137.646,94.493L137.646,94.493z M141.813,100.289L141.813,100.289
	l-0.846,0.304l-0.247-0.644l0.761-0.292c-0.293-0.542-0.606-1.063-0.938-1.574V98.08l-0.194-0.306
	c0.066,0.101,0.127,0.205,0.194,0.307l-0.863,0.456l-0.192-0.055l-15.293,8.087l-0.839,1.305l-0.23,0.669
	c-0.011,0.372-0.044,0.723-0.102,1.052l1.931,0.555l1.604,0.071l15.084-7.738l0.084-0.167l0.809-0.418
	C142.313,101.347,142.073,100.812,141.813,100.289L141.813,100.289z M125.698,110.363L125.698,110.363l0.355,0.105l0.042-0.01
	l0.135-0.069L125.698,110.363L125.698,110.363z M142.69,102.299L142.69,102.299l-0.772,0.397l-0.19-0.057l-14.81,7.599l0.133,0.005
	l15.774-3.526l0.122-0.142l0.894-0.205C143.574,104.953,143.188,103.594,142.69,102.299L142.69,102.299z M144.271,111.339
	L144.271,111.339l-1.003-0.046l-0.137-0.146l-16.065-0.723l-0.65,0.145l16.428,4.723l0.179-0.065l0.881,0.254
	C144.14,114.15,144.26,112.764,144.271,111.339L144.271,111.339z M142.464,120.307l-0.956-0.294l-0.098-0.174l-15.545-4.772
	l1.024,1.133l12.524,7.255l0.188-0.017l0.898,0.517C141.261,122.813,141.918,121.597,142.464,120.307L142.464,120.307
	L142.464,120.307z M142.626,119.907c0.509-1.274,0.918-2.604,1.196-4.001l-0.922-0.267l-0.101-0.173l-16.711-4.801l-2.871,1.474
	l2.41,2.667l15.832,4.86l0.179-0.062L142.626,119.907L142.626,119.907z M140.252,124.312L140.252,124.312L140.252,124.312
	l0.201-0.285C140.388,124.124,140.32,124.214,140.252,124.312l-0.869-0.506l-0.053-0.192l-12.044-6.978l9.298,10.289l0.186,0.04
	l0.626,0.689C138.464,126.643,139.415,125.52,140.252,124.312L140.252,124.312z M133.621,130.523L133.621,130.523L133.621,130.523
	c1.238-0.755,2.398-1.611,3.454-2.573l-0.627-0.7l0.008-0.198l-9.682-10.711l-2.182-1.266l8.373,14.542l0.173,0.078L133.621,130.523
	c-0.106,0.061-0.202,0.128-0.308,0.189L133.621,130.523L133.621,130.523z M133.245,130.75L133.245,130.75l-0.479-0.844l0.051-0.193
	l-8.535-14.818l-1.161-0.672l-0.984-0.302l-0.344,3.606l6.989,14.008l0.165,0.087l0.46,0.912
	C130.758,132.047,132.041,131.451,133.245,130.75L133.245,130.75z M120.317,134.053L120.317,134.053
	c0.408,0.002,0.814-0.002,1.226-0.019c0.997-0.04,1.968-0.146,2.923-0.287l-0.257-0.931l0.096-0.175l-2.962-10.467l-1.034,10.775
	l0.094,0.163L120.317,134.053L120.317,134.053z M124.903,133.686l-0.001-0.001c1.414-0.232,2.784-0.563,4.086-1.004l-0.427-0.871
	l0.06-0.19l-6.863-13.755l-0.367,3.815l3.083,10.906l0.147,0.116l0.251,0.871l0.03,0.111L124.903,133.686L124.903,133.686z
	 M110.775,132.244L110.775,132.244l0.34-0.881l0.177-0.086l5.359-14.439l-4.019,3.222l-5.107,9.274l0.024,0.188l-0.466,0.858
	C108.244,131.102,109.479,131.726,110.775,132.244L110.775,132.244z M103.139,127.259L103.139,127.259l0.753-0.595l0.198,0.017
	l8.401-6.74l2.557-4.644l-13.693,8.017l-0.075,0.171l-0.833,0.496C101.235,125.166,102.137,126.261,103.139,127.259L103.139,127.259
	z M96.729,112.183L96.729,112.183c0.039,1.034,0.143,2.042,0.302,3.021h-0.002l0.028,0.156c-0.009-0.051-0.017-0.104-0.026-0.156
	l1.048-0.297L98.252,115l9.566-2.771l-9.939-0.796l-0.159,0.098l-1.007-0.069C96.716,111.701,96.72,111.94,96.729,112.183
	L96.729,112.183z M96.717,111.011L96.717,111.011l-0.004,0v0.08C96.715,111.064,96.714,111.037,96.717,111.011l1.042,0.093
	l0.13,0.15l10.416,0.834l5.203-1.508l-15.133-3.496l-0.173,0.073l-1.11-0.241C96.855,108.238,96.728,109.607,96.717,111.011
	L96.717,111.011z M98.333,102.528L98.333,102.528v0.002c-0.492,1.26-0.886,2.576-1.157,3.945l1.127,0.267l0.108,0.167l15.451,3.569
	l2.639-0.764l-1.349-1.522l-15.559-5.36l-0.181,0.055l-1.08-0.356c0.041-0.105,0.08-0.211,0.119-0.313L98.333,102.528
	L98.333,102.528z M100.399,98.497L100.399,98.497l0.004,0c-0.736,1.139-1.38,2.345-1.908,3.617l1.062,0.369l0.09,0.178l15.265,5.257
	l-2.889-3.262l-10.41-5.641l-0.188,0.026l-1.021-0.543c0.015-0.024,0.029-0.05,0.046-0.075L100.399,98.497L100.399,98.497z
	 M100.647,98.126L100.647,98.126l-0.003-0.001l-0.026,0.042C100.628,98.151,100.637,98.139,100.647,98.126l0.983,0.541l0.063,0.189
	l9.978,5.406l-7.509-8.479l-0.183-0.04l-0.736-0.807C102.282,95.917,101.416,96.986,100.647,98.126L100.647,98.126z M103.563,94.617
	L103.563,94.617l0.737,0.844l-0.008,0.197l7.844,8.854l3.479,1.885l-7.99-13.473l-0.174-0.075l-0.575-0.936
	C105.685,92.714,104.574,93.619,103.563,94.617L103.563,94.617z M108.135,91.127L108.135,91.127
	c-0.299,0.174-0.593,0.353-0.881,0.54l0.569,0.969l-0.047,0.193l8.146,13.736l0.498,0.27l-6.588-12.618
	c0.03-0.002,0.061-0.008,0.091-0.012c-0.058,0.006-0.115,0.013-0.173,0.015L108.135,91.127L108.135,91.127z M109.111,80.964
	L109.111,80.964c0.11,0.228,0.225,0.454,0.337,0.682l0.274-0.14l0.169,0.156l0.777-0.368l-0.085-0.141
	c-0.349-0.326-0.558-0.772-0.611-1.349l-0.774-1.234c0.023-0.033,0.038-0.066,0.063-0.101c-0.024,0.035-0.047,0.068-0.063,0.1v0.001
	C108.769,79.233,108.778,80.046,109.111,80.964L109.111,80.964z M7.01,102.903L7.01,102.903l0.771,0.401l0.065,0.189l13.973,7.25
	l1.992-0.095c-0.054-0.091-0.132-0.184-0.228-0.278c-0.018-0.083,0.004-0.159,0.065-0.22L9.628,99.807l-0.188-0.001l-0.668-0.433
	C8.082,100.487,7.493,101.67,7.01,102.903L7.01,102.903z M21.834,111.223L21.834,111.223c0.162-0.018,0.323-0.021,0.489-0.016
	l-0.547-0.282l-3.302,0.154l2.658,0.847C21.128,111.417,21.387,111.211,21.834,111.223L21.834,111.223z M21.615,112.05
	L21.615,112.05c0.164,0.061,0.325,0.068,0.484,0.017c0.053-0.152,0.065-0.304,0.039-0.454c-0.123-0.073-0.243-0.067-0.362-0.027
	C21.62,111.734,21.587,111.889,21.615,112.05L21.615,112.05z M23.368,114.306L23.368,114.306c-0.005-0.01-0.013-0.022-0.018-0.033
	c0.059-0.042,0.108-0.087,0.153-0.132l0.107-0.126l-1.058,0.128l-3.233,2.499l2.819-0.851L23.368,114.306L23.368,114.306z
	 M22.453,115.696L22.453,115.696l1.855-0.561c-0.089-0.051-0.176-0.108-0.259-0.177c-0.129-0.138-0.152-0.302-0.129-0.475
	c-0.116,0.004-0.252,0.026-0.408,0.063c-0.013-0.023-0.029-0.051-0.047-0.076L22.453,115.696L22.453,115.696z M23.718,113.82
	L23.718,113.82c0.022-0.077,0.035-0.157,0.025-0.239c-0.022-0.101-0.079-0.174-0.165-0.23l-0.745,0.577L23.718,113.82L23.718,113.82
	z M23.552,112.372L23.552,112.372c-0.28,0.013-0.568,0.03-0.863,0.049l0.707,0.226C23.479,112.579,23.533,112.493,23.552,112.372
	L23.552,112.372z M22.815,111.26L22.815,111.26c0.18,0.032,0.363,0.073,0.547,0.131c0.198-0.011,0.365-0.059,0.449-0.212
	c0.084-0.116,0.102-0.234,0.073-0.354l-1.749,0.083L22.815,111.26L22.815,111.26z M9.026,98.971L9.026,98.971l0.671,0.493
	l0.032,0.195l14.193,10.47c0.266,0.088,0.498,0.108,0.648-0.076c0.12-0.079,0.155-0.202,0.139-0.35l-0.254-0.8L12.201,96.445
	l-0.185-0.031l-0.573-0.519C10.547,96.845,9.738,97.874,9.026,98.971L9.026,98.971z M25.044,109.244L25.044,109.244
	c0.173,0.128,0.346,0.193,0.518,0.145l-1.522-2.398l0.575,1.816L25.044,109.244L25.044,109.244z M11.771,95.555L11.771,95.555
	l0.552,0.563l0.002,0.198l12.01,12.207l-0.676-2.13l-8.078-12.715l-0.168-0.081l-0.45-0.708
	C13.808,93.679,12.738,94.571,11.771,95.555L11.771,95.555z M18.911,91.789L18.911,91.789l-0.244-0.939
	c-1.163,0.501-2.269,1.097-3.307,1.775l0.429,0.767l-0.054,0.192l7.709,12.138l-4.388-13.813L18.911,91.789L18.911,91.789z
	 M21.946,90.708L21.946,90.708l-0.201-0.926c-0.918,0.245-1.809,0.546-2.668,0.896l0.249,1.009l-0.099,0.173l4.597,14.457
	l1.902,2.996c0.16-0.114,0.205-0.344,0.193-0.631c0.038-0.16,0.144-0.204,0.313-0.132c0.175,0.329,0.359,0.569,0.571,0.556
	c0.114-0.003,0.213-0.036,0.292-0.092l-5.011-18.18L21.946,90.708L21.946,90.708z M27.875,121.974L27.875,121.974l0.084,0.128
	l0.313,0.018l0.034,0.145l0.02,0.032l-0.008,0.015l0.002,0.008l-0.18,0.3l0.001,0.001l0.015,0.19l0.077,0.055l0.132,0.081
	l-0.002,0.018l0,0v0.002l-0.008,0.136l-0.014,0.006l-0.011,0.067l-0.274,0.108L28,123.428l0.066,0.28l-0.005,0.01l0.009,0.033
	l-0.092,0.165l-0.221,0.008l-0.044,0.378l0.398-0.076c0.186-0.206,0.384-0.155,0.583-0.068l0.352-0.053
	c0.229-0.147,0.464-0.159,0.704-0.034l0.352-0.036c0.175-0.14,0.366-0.216,0.616-0.064l0.332-0.032l-1.212-5.399
	c-0.224,0.119-0.383,0.301-0.488,0.534l0.07,0.437l-0.463,0.032l-1.383,1.808l0.066,0.168l0.304,0.028l0.09,0.159L27.875,121.974
	L27.875,121.974z M31.802,116.929L31.802,116.929c-0.122,0.187-0.264,0.338-0.426,0.454l7.144,5.592
	c0.156-0.08,0.355-0.08,0.573-0.035l0.318-0.037c0.203-0.112,0.439-0.143,0.711-0.089l0.413-0.04
	c0.209-0.172,0.452-0.175,0.71-0.098l0.328-0.043c0.18-0.179,0.397-0.187,0.669-0.096l0.423-0.064
	c0.19-0.116,0.398-0.158,0.64-0.087l0.348-0.043l-11.893-6.852C31.899,115.995,31.935,116.508,31.802,116.929L31.802,116.929z
	 M31.211,117.482L31.211,117.482c-0.024,0.015-0.053,0.028-0.082,0.04l4.609,5.816c0.065,0,0.131,0.009,0.203,0.027l0.506-0.059
	c0.176-0.16,0.4-0.164,0.647-0.096l0.327-0.043c0.205-0.129,0.413-0.152,0.625-0.071l0.274-0.048L31.211,117.482L31.211,117.482z
	 M39.199,109.119L39.199,109.119l-0.423,0.034c-0.185,0.116-0.404,0.164-0.708,0.067l-0.378,0.051
	c-0.209,0.128-0.414,0.117-0.619,0.014l-0.32,0.014c-0.214,0.152-0.422,0.101-0.628,0.02l-0.47,0.004
	c-0.227,0.148-0.448,0.123-0.668,0.02l-0.408,0.027c-0.229,0.152-0.458,0.184-0.698,0.044l-0.391,0.019
	c-0.061,0.056-0.119,0.092-0.179,0.114l-2.344,1.747l-0.031,0.038c-0.004,0.013-0.007,0.028-0.016,0.041
	c-0.014,0.01-0.027,0.018-0.039,0.027l-0.302,0.355l0.604,0.283l18.695-0.023l0.15-0.112l1.009-0.005
	c-0.003-0.066-0.004-0.132-0.007-0.2c-0.044-1.145-0.181-2.281-0.399-3.399l-0.185,0.021c-0.226,0.184-0.467,0.201-0.724,0.049
	l-0.393,0.045c-0.225,0.135-0.46,0.158-0.7,0.064l-0.36,0.037c-0.183,0.165-0.41,0.171-0.684,0.036l-0.384,0.036
	c-0.236,0.17-0.465,0.153-0.691,0.051l-0.338,0.021c-0.186,0.173-0.41,0.153-0.652,0.052l-0.408,0.02
	c-0.208,0.172-0.453,0.196-0.738,0.074l-0.3,0.022c-0.232,0.168-0.463,0.181-0.688,0.035l-0.377,0.036
	c-0.194,0.154-0.436,0.194-0.748,0.074l-0.331,0.021c-0.207,0.126-0.424,0.127-0.649,0.004l-0.377,0.037
	c-0.233,0.154-0.463,0.133-0.691,0.035l-0.305,0.022C39.688,109.236,39.454,109.246,39.199,109.119L39.199,109.119z M39.382,108.586
	L39.382,108.586l-0.73,0.071c0.032,0.006,0.066,0.013,0.098,0.024l0.511-0.024C39.3,108.626,39.339,108.604,39.382,108.586
	L39.382,108.586z M30.037,110.854L30.037,110.854c0.166,0.259,0.495,0.222,0.819,0.217c0.014,0.01,0.02,0.024,0.031,0.036
	l1.284-1.526c-0.138,0.015-0.271-0.019-0.403-0.095l-0.361,0.006c-0.168,0.111-0.334,0.173-0.509,0.073l-0.744,0.259
	c0.062,0.033,0.095,0.097,0.101,0.205C30.042,110.309,29.876,110.588,30.037,110.854L30.037,110.854z M31.474,110.69L31.474,110.69
	l1.548-1.154c-0.051-0.019-0.104-0.047-0.156-0.082l-0.361,0.011L31.474,110.69L31.474,110.69z M33.499,108.94L33.499,108.94
	l0.337-0.013l0.974-0.724l-1.759,0.613l-0.075,0.087C33.133,108.819,33.304,108.8,33.499,108.94L33.499,108.94z M31.141,112.218
	L31.141,112.218l-0.603,0.002c0.03,0.031,0.066,0.061,0.106,0.088l0.758,0.032L31.141,112.218L31.141,112.218z M30.948,117.583
	L30.948,117.583c-0.103,0.024-0.21,0.041-0.323,0.042c-0.109,0.079-0.108,0.155,0.008,0.226c0.168,0.069,0.157,0.164-0.032,0.284
	l-0.126,0.085l2.658,5.472l0.146-0.014c0.223-0.119,0.444-0.171,0.671-0.081l0.36-0.044c0.212-0.177,0.429-0.133,0.649-0.058
	l0.341-0.051c0.073-0.039,0.148-0.066,0.227-0.084L30.948,117.583L30.948,117.583z M30.314,118.326L30.314,118.326l-0.14,0.094
	c-0.056,0.012-0.105,0.025-0.155,0.04l1.209,5.401c0.19-0.092,0.377-0.094,0.561,0l0.421-0.049c0.214-0.146,0.443-0.176,0.687-0.095
	l0.038-0.004L30.314,118.326L30.314,118.326z M28.883,107.886L28.883,107.886l0.491-2.791l-1.645,3.435
	c0.003,0.002,0.007,0.004,0.01,0.006c0.004,0.261,0.06,0.479,0.203,0.619C28.258,108.731,28.57,108.309,28.883,107.886
	L28.883,107.886z M27.788,119.045L27.788,119.045c0.353-0.429,0.631-0.883,0.913-1.309l-0.021-0.173
	c-0.204,0.039-0.376-0.044-0.482-0.404c-0.259,0.002-0.766-0.304-0.947-0.603c-0.079,0.041-0.158,0.019-0.242-0.067
	c-0.074-0.268-0.17-0.51-0.398-0.6l-0.08,0.118l-0.233,2.103l0.345,2.104C27.024,119.789,27.454,119.453,27.788,119.045
	L27.788,119.045z M26.353,115.94L26.353,115.94l0.011-0.084c-0.036,0.006-0.067,0.018-0.098,0.031l-0.125,0.356L26.353,115.94
	L26.353,115.94z M26.063,116.667L26.063,116.667l0.125,0.779l0.125-1.135L26.063,116.667L26.063,116.667z M26.222,118.779
	L26.222,118.779l-0.226,2.056c0.113-0.083,0.227-0.169,0.34-0.254c0.049-0.066,0.099-0.13,0.149-0.192L26.222,118.779
	L26.222,118.779z M26.113,118.115L26.113,118.115l-0.199-1.222l-1.683,4.839c0.049,0.02,0.097,0.043,0.146,0.074
	c0.137,0.156,0.322,0.161,0.527,0.1l0.737-0.807c0.053-0.038,0.104-0.078,0.156-0.115L26.113,118.115L26.113,118.115z
	 M37.492,91.264L37.492,91.264l-0.131,0.154l-0.002,0.001l0.052,0.579c0.078-0.046,0.152-0.09,0.229-0.136
	c0.065-0.139,0.145-0.273,0.231-0.406C37.743,91.39,37.619,91.327,37.492,91.264L37.492,91.264z M38.711,91.909L38.711,91.909
	c-0.151,0.204-0.313,0.39-0.497,0.547c-0.115,0.312-0.104,0.604,0.031,0.875l0,0c0.574,0.724,0.11,1.44-0.855,1.186
	c0-0.001,0-0.001,0.001-0.003c-0.208,0.156-0.279,0.097-0.209-0.181l-0.119-0.061l-0.149,0.045
	c-0.373-0.091-0.609-0.353-0.785-0.692c-0.115-0.11-0.145-0.242-0.09-0.394l-0.114-0.068c-0.004,0.001-0.008,0.002-0.013,0.003
	c-0.165-0.588,0.03-0.896,0.646-0.864c0.025,0.08,0.034,0.155,0.037,0.227c0.002-0.065-0.001-0.133-0.015-0.206
	c0.099,0.077,0.196,0.075,0.29,0.001l-0.063-0.969l-0.003,0l-0.284-0.163l0.009-0.181l0.108-0.152
	c-0.081-0.036-0.163-0.07-0.242-0.106l-0.411,0.85l-0.187,0.069L29.661,104.5l-0.541,3.066c3.685-4.967,7.275-9.93,10.84-14.894
	C39.553,92.405,39.134,92.151,38.711,91.909L38.711,91.909z M41.436,93.716L41.436,93.716l-10.97,15.355l0.415-0.052
	c0.201-0.193,0.396-0.13,0.588-0.03l0.354-0.03c0.163-0.088,0.323-0.114,0.483-0.077l0.641-0.222l10.1-12.011l0.014-0.189
	l0.649-0.776C42.991,94.983,42.233,94.326,41.436,93.716L41.436,93.716z M106.3,64.512L106.3,64.512
	c2.67-2.213,2.75-3.924,1.008-5.284C106.738,60.96,106.408,62.725,106.3,64.512L106.3,64.512z M102.18,69.472L102.18,69.472
	c1.635-0.155,2.618-0.508,3.836-0.958c-0.023-0.6-0.151-2.634-0.127-3.248c-1.108,0.826-2.546,1.696-4.336,2.611L102.18,69.472
	L102.18,69.472z M101.446,67.607L101.446,67.607c1.895-1.006,3.366-1.932,4.467-2.787c0.099-1.606,0.37-3.256,0.838-4.969
	c-1.528,3.068-3.539,5.051-5.885,6.274L101.446,67.607L101.446,67.607z M66.438,114.73L66.438,114.73
	c0.229,0.003,0.431-0.018,0.601-0.059c0.008-0.002,0.016-0.004,0.024-0.007c0.033-0.008,0.066-0.018,0.095-0.029
	c0.014-0.007,0.027-0.012,0.04-0.016c0.096-0.041,0.178-0.093,0.241-0.155c0.009-0.008,0.015-0.016,0.022-0.025
	c0.024-0.023,0.046-0.049,0.064-0.077c0.025-0.035,0.045-0.074,0.062-0.115c0.007-0.015,0.012-0.032,0.015-0.047
	c0.015-0.036,0.021-0.075,0.029-0.112c0-0.012,0-0.024,0.004-0.034c0.003-0.045,0.003-0.09,0.002-0.136
	c-0.003-0.025-0.004-0.052-0.009-0.081c-0.001-0.015-0.004-0.031-0.007-0.049c-0.011-0.074-0.025-0.149-0.046-0.229l-1.14,1.172
	L66.438,114.73L66.438,114.73z M64.695,110.221L64.695,110.221c0.119-0.022,0.233-0.033,0.342-0.033
	c0.008,0,0.015-0.001,0.022-0.002c0.129,0.002,0.247,0.016,0.36,0.048l0.379-0.398c-0.192-0.18-0.39-0.293-0.591-0.338
	c-0.034-0.008-0.069-0.015-0.104-0.018c-0.023-0.003-0.047-0.003-0.073-0.004c-0.033,0.001-0.069,0.003-0.105,0.006
	c-0.033,0.003-0.063,0.008-0.096,0.015c-0.018,0.003-0.033,0.009-0.051,0.014c-0.032,0.01-0.067,0.023-0.104,0.037
	c-0.022,0.008-0.045,0.017-0.069,0.029c-0.043,0.022-0.085,0.044-0.128,0.07L64.695,110.221L64.695,110.221z M50.886,115.188
	L50.886,115.188l-11.915-0.498l10.636,1.412l0.162-0.091l0.979,0.127C50.801,115.824,50.846,115.506,50.886,115.188L50.886,115.188z
	 M47.329,124.627L47.329,124.627l-0.834-0.488l-0.056-0.189l-2.109-1.216c-0.211,0.155-0.429,0.153-0.649,0.071l-0.335,0.044
	c-0.176,0.183-0.4,0.181-0.648,0.095l-0.405,0.046c-0.197,0.187-0.44,0.226-0.731,0.123l-0.297,0.042
	c-0.223,0.185-0.453,0.211-0.688,0.082l-0.373,0.061c-0.183,0.166-0.42,0.225-0.738,0.122l-0.322,0.044l4.612,3.61l0.19,0.007
	l0.814,0.632C45.707,126.762,46.571,125.734,47.329,124.627L47.329,124.627z M41.489,130.412L41.489,130.412l-0.002-0.002
	c1.056-0.713,2.049-1.507,2.962-2.386v0l0.002-0.002l-0.002,0.001l-0.772-0.608l-0.027-0.199l-4.684-3.666
	c-0.153,0.053-0.312,0.039-0.479-0.039l-0.375,0.062c-0.224,0.168-0.453,0.162-0.688,0.081l-0.302,0.044
	c-0.209,0.159-0.444,0.182-0.705,0.073l-0.302,0.044l4.547,5.738l0.182,0.05l0.643,0.806c-0.077,0.052-0.148,0.114-0.229,0.167
	L41.489,130.412L41.489,130.412z M37.46,132.572L37.46,132.572c1.289-0.525,2.516-1.168,3.667-1.912l-0.621-0.794l0.021-0.195
	l-4.592-5.796c-0.164,0.099-0.366,0.139-0.638,0.071l-0.372,0.078c-0.204,0.14-0.411,0.144-0.619,0.055l-0.319,0.035
	c-0.199,0.165-0.411,0.129-0.617,0.063l3.562,7.341l0.158,0.103L37.46,132.572L37.46,132.572z M20.107,132.389L20.107,132.389
	l0.354-0.816l0.185-0.076l3.029-8.713c-0.071-0.057-0.143-0.115-0.209-0.179c-0.086-0.23-0.039-0.465,0.068-0.7
	c0.172-0.161,0.345-0.231,0.523-0.217l1.494-4.297l-8.61,12.177l-0.013,0.186l-0.485,0.662
	C17.608,131.174,18.836,131.837,20.107,132.389z" class="color c1"/>
</svg>