<svg version="1.1" id="图层_1" x="0px" y="0px" width="82.695px" height="121.796px" viewBox="0 0 82.695 121.796" enable-background="new 0 0 82.695 121.796" xml:space="preserve" xmlns="http://www.w3.org/2000/svg" xmlns:xlink="http://www.w3.org/1999/xlink" xmlns:xml="http://www.w3.org/XML/1998/namespace">
  <path fill-rule="evenodd" clip-rule="evenodd" fill="#D6AF00" d="M10.757,101.114l53.171-26.894L18.279,92.747l0.438-0.275
	c-5.184,2.195-10.07-4.856-4.483-8.72l68.462-37.074L36.629,68.473c-0.324,0.112-0.686,0.253-1.122,0.454
	c-4.632,2.146-8.749,3.517-9.864-0.257s0-5.49,3.174-7.462l-0.556,0.244l22.747-12.094l-12.324,5.265
	c-3.155,1.11-6.446,0.935-6.973-2.809c-0.562-3.997,3.119-8.893,6.688-10.942l28.453-14.913l-20.924,8.783
	c-13.455,4.515-15.486-7.77-9.443-10.977l-0.029,0.01l6.145-3.666l-7.643,3.177l0.003-0.003c-11.548,3.442-11.524-9.53-5.424-12.77
	l-0.086,0.003L47.719,0L19.255,11.754c2.172,1.227,3.737,2.882,4.667,4.975c0.791,1.777,1.559,5.044-0.852,8.742
	c-0.016,1.948,0.312,4.467,1.95,5.487l11.027,6.861l-6.241,2.586c0.369,3.103,0.063,6.752-0.92,10.936
	c-1.212,5.154-3.423,10.846-5.631,14.573c-1.028,3.264-3.254,8.206-7.723,10.834c-2.367,1.395-6.449,2.377-13.791,3.973L0,82.801
	c4.319,15.996,4.369,29.641,3.445,38.996l37.916-21.785l-26.994,11.902C9.398,113.971,2.328,106.268,10.757,101.114z" class="color c1"/>
</svg>