<svg version="1.1" id="图层_1" x="0px" y="0px" width="109.893px" height="69.883px" viewBox="0 0 109.893 69.883" enable-background="new 0 0 109.893 69.883" xml:space="preserve" xmlns="http://www.w3.org/2000/svg" xmlns:xlink="http://www.w3.org/1999/xlink" xmlns:xml="http://www.w3.org/XML/1998/namespace">
  <path fill="#186F45" d="M102.431,11.602C96.628,2.223,91.462,0.361,89.719,0.233C85.85-0.052,78.11-0.337,77.56,1.086
	c-0.553,1.42-0.553,6.252,0,7.957c0.551,1.705,7.462,1.705,8.29,0.854c0.828-0.854,2.21-2.275,3.869-2.275s3.869,5.116,3.869,8.527
	c0,3.412,1.364,8.545,1.364,8.545s-3.661-1.014-7.184-0.145s-4.647,3.912-4.647,3.912s-5.919-1.306-10.145,0.143
	c-4.226,1.45-4.93,3.045-4.93,3.045s-4.085-2.752-5.916-3.768c-1.832-1.014-0.846-6.375-0.846-6.375s2.448-0.287,2.536-2.754
	c0.141-4.055-1.128-3.187-1.128-3.187s0.846-4.347,0.422-6.376c-0.422-2.027-3.382-5.651-8.169-5.651
	c-4.79,0-7.748,3.624-8.172,5.651c-0.422,2.029,0.424,6.376,0.424,6.376s-1.268-0.868-1.127,3.187
	c0.084,2.467,2.534,2.754,2.534,2.754s0.987,5.361-0.844,6.375c-1.831,1.016-5.917,3.768-5.917,3.768s-0.705-1.595-4.931-3.045
	c-4.227-1.448-10.142-0.143-10.142-0.143s-1.128-3.043-4.649-3.912s-7.185,0.145-7.185,0.145s1.365-5.133,1.365-8.545
	c0-3.411,2.21-8.527,3.868-8.527s3.04,1.422,3.867,2.275c0.832,0.852,7.738,0.852,8.293-0.854c0.552-1.705,0.552-6.537,0-7.957
	c-0.555-1.424-8.293-1.139-12.16-0.854c-1.743,0.128-6.909,1.99-12.711,11.369C1.656,20.98,0,29.508,0,29.508
	c2.402,1.995,4.846,6.209,10.288,9.676c5.03,3.201,13.476,3.115,13.476,3.115c3.148,13.402,13.314,27.584,13.314,27.584h35.732
	c0,0,10.167-14.182,13.316-27.584c0,0,8.446,0.086,13.473-3.115c5.444-3.467,7.89-7.681,10.293-9.676
	C109.893,29.508,108.233,20.98,102.431,11.602z" class="color c1"/>
</svg>