<svg version="1.1" id="图层_1" x="0px" y="0px" width="229.165px" height="229.166px" viewBox="0 0 229.165 229.166" enable-background="new 0 0 229.165 229.166" xml:space="preserve" xmlns:xml="http://www.w3.org/XML/1998/namespace" xmlns="http://www.w3.org/2000/svg" xmlns:xlink="http://www.w3.org/1999/xlink">
  <path fill="#FDB726" d="M219.948,137.091l-26.562,26.561c-8.087-4.941-19.582-12.711-34.269-23.533
	c0.029-0.129,0.06-0.26,0.088-0.389c0.621-2.766,1.265-5.625,1.039-9.18c-0.225-3.55-1.631-6.628-2.873-9.344l-0.192-0.426
	c2.276-2.352,4.507-5.354,5.604-8.449c0.496-1.441,1.66-4.813-1.16-8.317c-0.074-0.091-0.145-0.179-0.211-0.265
	c1.803-3.07,2.402-6.64,1.875-10.978c-0.213-1.707-0.16-3.547-0.104-5.494c0.009-0.363,0.021-0.726,0.029-1.088
	c0.705-0.778,1.598-1.823,2.145-3.326c1.266-3.529-0.004-7.021-3.102-9.008l-0.062-0.203c-0.752-2.531-1.28-4.084-3.422-6.579
	c-1.433-1.662-3.073-2.802-4.521-3.808c-1.027-0.714-2-1.389-2.604-2.076l-0.369-0.421c-0.023-0.028-0.049-0.055-0.072-0.083
	c0.336-0.321,0.67-0.683,0.998-1.092c1.965-2.47,2.01-5.462,2.041-7.441l0.01-0.581c0.033-1.749,0.096-4.896-3.184-7.251
	c-0.918-1.638-1.938-3.147-3.088-4.572c-1.355-1.698-2.871-3.232-4.627-4.688c-1.189-0.988-3.611-2.644-6.453-2.644
	c-2.099,0-3.691,0.963-4.773,1.651c-0.246-0.008-0.488-0.013-0.729-0.016c-0.229-0.005-0.465-0.036-0.703-0.061
	c-0.502-0.053-1.127-0.118-1.818-0.118c-0.864,0-1.651,0.101-2.405,0.308c-2.624,0.717-3.821,2.919-4.396,3.977l-0.092,0.167
	c-1.072,1.478-1.918,2.951-2.859,4.719c-0.705,1.339-0.918,2.635-1.014,3.64c-0.059-0.024-0.117-0.048-0.174-0.073
	c-2.449-1.067-4.925-1.77-7.32-2.45l-0.535-0.151c-0.25-0.083-0.604-0.237-1.012-0.405c-2.329-0.962-4.26-1.698-6.188-1.698
	c-1.274,0-2.418,0.327-3.422,0.986c-0.659,0.437-1.312,0.92-1.973,1.456c-0.726-0.072-1.463-0.108-2.208-0.108
	c-6.102,0-12.387,2.384-16.825,6.386c-0.996,0.903-1.848,1.863-2.598,2.71c-0.65,0.732-1.262,1.424-1.86,1.959l-0.087,0.081
	c-2.728,2.412-2.737,4.867-2.273,6.492c0.566,1.993,2.023,3.892,3.05,5.255c-0.284,3.402-0.056,6.739-0.056,9.124v0.805
	c0,1.09-0.27,2.425-0.19,3.842c-1.384,1.757-1.639,3.482-1.522,4.536c0.185,1.674,0.785,3.095,1.314,4.238
	c0.121,0.263,0.252,0.609,0.369,0.89c-1.123,2.891-0.808,6.085,0.889,9.144c-0.656,2.295-0.627,4.651,0.119,6.948
	c0.17,0.524,0.346,1.076,0.541,1.647c-0.045,0.065-0.09,0.13-0.135,0.194c-0.69,0.348-1.403,0.853-2.094,1.582
	c-1.59,1.68-2.41,3.762-3.07,5.435c-0.287,0.726-0.584,1.478-0.824,1.876c-0.58,0.96-1.462,1.913-2.396,2.922
	c-1.836,1.984-4.244,4.588-4.982,8.361c-0.572,0.618-1.1,1.232-1.588,1.805l-0.498,0.575c-3.422,1.212-6.08,3.675-7.754,7.213
	c-0.84,1.782-2.396,3.181-4.197,4.8c-1.344,1.207-2.865,2.573-4.252,4.266c-1.024,1.251-2.114,2.453-3.268,3.728
	c-2.105,2.323-4.281,4.726-6.16,7.558c-0.227,0.341-0.549,0.705-0.92,1.125c-0.303,0.343-0.643,0.731-0.984,1.168L9.22,137.092
	c-12.293-12.294-12.293-32.226,0-44.52L92.323,9.47c12.293-12.294,32.224-12.294,44.519,0l83.105,83.101
	C232.243,104.865,232.243,124.797,219.948,137.091z M154.479,162.163c-0.459,1.167-0.891,2.27-1.211,3.326
	c-1.02,3.398-2.461,6.185-4.305,9.259c-0.074,0.761-0.279,2.215-1.375,3.655l0.004,1.012c0.074,0.082,0.154,0.166,0.238,0.257
	c0.155,0.173,0.323,0.356,0.5,0.558l0.469,0.521c1.484,1.635,5.799,6.391,2.367,11.771l2.033,0.149
	c-0.181,3.447-3.128,8.575-10.507,8.575c-3.226,0-7.008-0.959-11.565-2.934c-4.797-2.076-8.283-3.655-10.365-4.693
	c-2.053-1.023-5.486-2.735-4.666-6.693l0.826-3.984l1.119-0.01l1.854-3.875l3.299,2.514c-0.066-1.733,0.393-3.281,0.75-4.491
	c0.119-0.399,0.268-0.899,0.297-1.108c0.342-2.336,1.156-4.299,1.875-6.031c0.271-0.65,0.545-1.303,0.779-1.973
	c0.848-2.396,1.107-4.479,0.959-7.687c-0.15-3.421,0.061-6.63,0.264-9.733c0.074-1.119,0.148-2.244,0.205-3.388
	c0.08-1.742,0.369-3.5,0.844-5.177l-0.453-0.25c-1.338-0.738-2.721-1.5-4.11-2.375c-1.183-0.743-2.084-1.58-2.879-2.316
	c-0.634-0.586-1.181-1.092-1.66-1.354c-0.692-0.381-1.483-0.754-2.321-1.147c-2.164-1.017-4.618-2.169-6.714-4.072
	c-0.457-0.413-0.961-0.81-1.516-1.194c-0.053,0.02-0.104,0.039-0.156,0.059c-5.17,1.9-10.324,5.453-13.494,9.287l-0.105,0.129
	c-1.676,2.034-3.969,4.82-6.275,6.523c-1.674,1.238-3.584,1.894-5.395,2.391c-1.404,2.514-3.111,4.592-5.354,6.548
	c-2.211,1.919-4.551,3.336-6.551,4.47c-0.621,0.351-1.26,0.816-1.92,1.33c-0.367,0.848-0.826,1.621-1.385,2.336
	c-1.928,2.514-4.195,4.797-6.355,6.396c-1.344,0.993-2.752,1.974-4.113,2.924c-2.881,2.009-5.832,4.083-8.289,6.33L92.324,220.2
	c12.293,12.294,32.225,12.294,44.52,0l46.324-46.325c-6.518-4.551-15.094-10.687-26.467-19.021
	C156.288,157.56,155.331,159.995,154.479,162.163z" class="color c1"/>
</svg>