<svg version="1.1" id="图层_1" x="0px" y="0px" width="102.6px" height="102.6px" viewBox="0 0 102.6 102.6" enable-background="new 0 0 102.6 102.6" xml:space="preserve" xmlns="http://www.w3.org/2000/svg" xmlns:xlink="http://www.w3.org/1999/xlink" xmlns:xml="http://www.w3.org/XML/1998/namespace">
  <path fill="#020202" d="M51.3,0C23,0,0,23,0,51.3s23,51.3,51.3,51.3s51.3-23,51.3-51.3l0,0C102.5,23,79.6,0,51.3,0z" class="color c1"/>
  <path fill="#FFFFFF" d="M51.3,25.1c-14.5,0-26.2,11.7-26.2,26.2s11.7,26.2,26.2,26.2s26.2-11.7,26.2-26.2S65.8,25.1,51.3,25.1z
	 M51.3,72.2c-11.6,0-21-9.4-21-21s9.4-21,21-21s21,9.4,21,21C72.2,62.8,62.9,72.2,51.3,72.2z M58.3,53.1c-0.3-0.4-0.6-0.8-1.1-1.1
	c-0.4-0.3-0.9-0.6-1.4-0.7c0.4-0.2,0.8-0.5,1.1-0.8s0.6-0.7,0.9-1.1c0.2-0.4,0.4-0.8,0.5-1.2c0.1-0.5,0.2-0.9,0.2-1.4
	c0-0.8-0.2-1.6-0.5-2.3s-0.8-1.3-1.4-1.8c-0.7-0.5-1.4-0.9-2.3-1.2c-2-0.6-4.1-0.6-6.1,0c-0.8,0.3-1.6,0.7-2.3,1.2
	c-0.6,0.5-1.1,1.1-1.4,1.8C44.2,45.2,44,46,44,46.8c0,0.5,0.1,0.9,0.2,1.4c0.1,0.4,0.3,0.9,0.5,1.2c0.2,0.4,0.5,0.7,0.9,1.1
	c0.3,0.3,0.7,0.6,1.1,0.8c-0.5,0.2-1,0.4-1.4,0.7s-0.8,0.7-1,1.1c-0.3,0.4-0.5,0.9-0.6,1.4s-0.2,1.1-0.2,1.6c0,0.8,0.1,1.5,0.3,2.3
	c0.2,0.6,0.5,1.2,0.9,1.8c0.4,0.5,0.8,0.9,1.3,1.3c0.5,0.3,1.1,0.6,1.6,0.8c0.6,0.2,1.2,0.4,1.8,0.5s1.2,0.1,1.8,0.1
	s1.2-0.1,1.8-0.1c0.6-0.1,1.2-0.3,1.8-0.5s1.1-0.5,1.6-0.8c0.5-0.4,1-0.8,1.3-1.3c0.4-0.5,0.7-1.1,0.9-1.8s0.3-1.5,0.3-2.3
	c0-0.6-0.1-1.1-0.2-1.6C58.8,54,58.6,53.6,58.3,53.1z M48.4,45.9c0.2-0.3,0.4-0.6,0.7-0.9c0.3-0.2,0.6-0.4,1-0.5
	c0.8-0.2,1.7-0.2,2.5,0c0.4,0.1,0.7,0.3,1,0.5s0.5,0.5,0.7,0.9s0.3,0.8,0.2,1.2c0,0.4-0.1,0.8-0.2,1.2c-0.2,0.3-0.4,0.6-0.7,0.9
	c-0.3,0.2-0.6,0.4-1,0.5c-0.8,0.2-1.7,0.2-2.5,0c-0.4-0.1-0.7-0.3-1-0.5s-0.5-0.5-0.7-0.9s-0.3-0.8-0.2-1.2
	C48.1,46.7,48.2,46.3,48.4,45.9z M54.6,57.6c-0.2,0.4-0.4,0.7-0.7,1s-0.7,0.5-1.1,0.6c-0.5,0.2-0.9,0.2-1.4,0.2s-1-0.1-1.4-0.2
	c-0.4-0.1-0.8-0.4-1.1-0.6c-0.3-0.3-0.6-0.6-0.7-1c-0.2-0.4-0.3-0.9-0.3-1.4c0-0.4,0.1-0.7,0.2-1.1c0.1-0.4,0.3-0.8,0.6-1.1
	c0.3-0.4,0.7-0.7,1.1-0.9c1.1-0.5,2.3-0.5,3.4,0c0.4,0.2,0.8,0.5,1.1,0.9c0.3,0.3,0.5,0.7,0.6,1.1c0.1,0.3,0.2,0.7,0.2,1.1
	C54.8,56.7,54.7,57.2,54.6,57.6z" class="color c2"/>
</svg>