<svg version="1.1" id="图层_1" x="0px" y="0px" width="23.711px" height="321.212px" viewBox="0 0 23.711 321.212" enable-background="new 0 0 23.711 321.212" xml:space="preserve" xmlns="http://www.w3.org/2000/svg" xmlns:xlink="http://www.w3.org/1999/xlink" xmlns:xml="http://www.w3.org/XML/1998/namespace">
  <path id="XMLID_6565_" fill="#132E8A" d="M4.509,312.676c0.811-0.336,1.271-0.942,1.532-1.496c0.231-0.488,0.338-1.026,0.34-1.565
	l0.568-109.108c0.101-5.942-2.357-35.728-2.355-36.116c0.003-0.387-3.231-39.415-3.231-39.415
	C0.047,113.604,0.65,74.409,0.65,74.409L1.166,4.202c0.044-2.88,6.832-3.856,10.961-4.189c0.224-0.018,0.444-0.017,0.667,0.003
	c4.127,0.375,10.902,1.423,10.917,4.305l-0.213,70.207c0,0,0.193,39.199-1.241,50.557c0,0-3.639,38.99-3.642,39.378
	c-0.003,0.388-2.768,30.146-2.731,36.088l-0.566,109.11c-0.005,0.539,0.097,1.078,0.322,1.568c0.255,0.556,0.709,1.167,1.517,1.512
	c1.736,0.741,4.479,2.348,4.471,3.683c-0.016,3.315-2.449,4.72-10.839,4.788C2.4,321.058-0.017,319.626,0,316.312
	C0.007,314.976,2.764,313.398,4.509,312.676z" class="color c1"/>
  <path id="XMLID_6564_" fill="#FFFFFF" d="M3.235,5.349C8.425,0.64,20.592,4.32,20.592,4.32S7.633,4.167,6.244,6.398l-0.671,128.7
	c0,0-3.098-17.162-2.888-24.157L3.235,5.349z" class="color c2"/>
</svg>