<svg version="1.1" id="图层_1" x="0px" y="0px" width="150.6px" height="150.6px" viewBox="0 0 150.6 150.6" enable-background="new 0 0 150.6 150.6" xml:space="preserve" xmlns="http://www.w3.org/2000/svg" xmlns:xlink="http://www.w3.org/1999/xlink" xmlns:xml="http://www.w3.org/XML/1998/namespace">
  <ellipse fill="#FFFFFF" cx="75.3" cy="75.3" rx="73.1" ry="73.1" class="color c1"/>
  <path fill="#020202" d="M75.3,4c39.4,0,71.3,31.9,71.3,71.3s-31.9,71.3-71.3,71.3S4,114.7,4,75.3S35.9,4,75.3,4 M75.3,0
	C33.8,0,0,33.8,0,75.3s33.8,75.3,75.3,75.3s75.3-33.8,75.3-75.3S116.8,0,75.3,0L75.3,0z" class="color c2"/>
  <path fill="#880100" d="M138.4,90c1,1.3,1.6,2.2,1.6,2.3c0,0.4-0.9,3.3-1.3,4.7c-1.3,3.8-3.5,8.3-5.8,12c-1.3,2.1-4.3,6.5-4.5,6.6
	c-0.1,0.1-0.2,0.1-1.3-1.9c-4.2-6.8-10-13.8-16-19.4c-9.6-8.9-21.4-16-33.4-20.1c-1-0.4-2-0.7-2.1-0.7c-0.2-0.1-0.2,0.1-1.1-4.7
	c-1.2-5.9-1.7-10.8-1.7-14.6c0-1.6,0.2-4.9,0.4-5c0.1-0.1,3.1,0.5,5.4,0.9c20.3,4.3,35.1,11.6,45.9,23c0.7,0.7,1.7,1.8,2.3,2.4
	c2.2,2.2,4.9,5.5,8.4,10.1C136,86.9,137.5,88.8,138.4,90z M50.4,118.4c13.8-3,27.2-11,40.3-24.3c2.7-2.7,6.4-6.8,6.4-7
	c0-0.1-0.5-0.4-1.3-1l0,0c-4.9-3-10.6-5.8-17.3-8.3c-1.2-0.5-2.6-1-3-1.2c-0.5-0.2-0.9-0.3-1-0.3s-0.7,0.4-1.2,0.8
	c-0.6,0.4-2.2,1.7-3.6,2.7c-1.4,1.1-3.2,2.4-4,3.1c-3.5,2.7-6,4.4-8.9,6.1c-10.6,6.2-22.9,9.9-35.5,10.5c-1.7,0.1-4.5,0.1-6.7,0.1
	c-0.9,0-1.1,0-1.3,0.2H13l0.8,1.8c3.3,7.6,7.5,14.1,12.3,18.7c0.6,0.5,1.1,1,1.2,1c0.2,0,4.5-0.3,7.8-0.7
	C40.8,120.1,46,119.3,50.4,118.4z M45.9,49.9c-0.3,4.7-0.4,6.7-0.1,10.5c0.4,5.5,1.2,9.7,3,15.5c1.7,5.4,4.2,11.5,4.7,11.6
	c0.1,0,2.9-1.6,4.2-2.5c3.5-2.3,8.4-5.8,11.9-8.6c0.8-0.6,1.8-1.4,2.2-1.7c0.9-0.7,0.9-0.8,0.5-2c-1.1-3.8-2.1-9.5-2.2-13.3
	c0-0.5,0-1.2-0.1-1.6c-0.1-2.3,0.2-8.2,0.6-11.6c0.7-5.1,2-10.9,3.7-16.1c2.1-6.4,5.2-13.4,8.5-19c0.5-0.8,0.8-1.5,0.8-1.6
	s-0.2-0.2-0.4-0.2l0,0c-0.7-0.2-6.5-0.6-8.2-0.6c-5.4,0-10.8,0.7-16.2,2c-1.3,0.3-1.7,0.5-1.8,0.6s-0.5,0.9-0.9,1.7
	c-4.3,8.6-7.5,17.9-9.2,27.1C46.4,44,46.2,45.3,45.9,49.9z M141.9,68.4c-0.2-1.8-0.6-4.3-0.7-4.7c0-0.1-0.5-0.8-1-1.5
	c-2.6-3.5-6.6-7.9-13.1-14.7c-6.2-6.4-13.9-11.9-22.3-15.9c-7.1-3.4-15.4-6.1-23.5-7.5c-1.3-0.2-1.5-0.2-1.6-0.1
	c-0.2,0.2-1.2,2.7-2.2,5.4c-1.7,4.6-2.8,8.4-3.5,12.4c-0.3,1.9-0.6,4.5-0.5,4.6c0.1,0,0.8,0.2,2.1,0.5c7.8,1.5,7.9,1.7,10.2,2.4
	c9.5,2.7,15.2,4.9,23,8.8c5.3,2.7,8,4.5,12.3,8.2c4.9,4.3,8.6,8.3,19.1,21.1c0.5,0.6,0.6,0.7,0.7,0.6c0.2-0.1,0.6-2.2,0.9-4.2
	c0.3-2.1,0.5-4.2,0.5-6.2l0,0C142.4,74.4,142.3,71.6,141.9,68.4z M83.3,21.8c5.3,1,11.8,2.8,16.1,4.5c0.8,0.3,1.6,0.7,1.9,0.7
	c1,0.4,4.6,2.1,6.4,3c3.7,1.9,8,4.6,11.1,6.8c3,2.2,7.1,5.6,9.1,7.5c0.4,0.4,1.1,1.1,1.7,1.6c2.5,2.4,5.9,6.1,8.2,8.9
	c0.8,1,1.5,1.8,1.5,1.8c0.2,0.1,0.2-0.1-0.1-1c-0.1-0.4-0.5-1.5-0.7-2.3c-3.1-9.2-8.5-17.8-15.7-25c-8.4-8.4-18.6-14.5-29.4-17.5
	c-2.8-0.8-6.3-1.5-6.5-1.3C86.8,9.6,81,20.8,81,21C81.1,21.4,81.3,21.4,83.3,21.8z M122.9,113.1c-1.8-2.7-3.5-5.1-3.7-5.4
	c-0.4-0.6-0.5-0.7-0.8-0.7c-0.1,0-0.8,0.7-1.6,1.6c-14.9,16.2-36.1,27.4-57.9,30.5c-1,0.1-1.9,0.3-2,0.3c-0.1,0.1,0.2,0.3,1.4,0.6
	c4.1,1,7.6,1.6,11.9,1.9c6.5,0.5,12.4,0.1,18.8-1.3c13.1-2.8,25.2-9.7,34.8-19.7c1.5-1.6,2.3-2.4,2.3-2.6
	C126.2,118,125.1,116.3,122.9,113.1L122.9,113.1z M75.6,132.3c0.6-0.2,2.1-0.7,3.2-1.2c9.6-3.7,19.2-9.5,27.6-16.6
	c1.7-1.4,5.1-4.5,6.5-5.9c0.6-0.6,1.4-1.4,1.9-1.9s1-1.1,1.2-1.5s0.4-0.7,0.4-0.7s-1.1-1.4-2.5-3l0,0c-3.4-3.9-5.8-6.4-8.7-8.7
	c-2-1.7-5.5-4.1-5.8-4c-0.1,0-2.4,2.4-5.2,5.4c-2.8,2.9-5.5,5.8-6,6.3c-6.9,7.2-14.9,12.5-24.9,16.6c-8.9,3.6-19.9,6-31.3,7
	c-1.4,0.1-2,0.2-2,0.3c-0.1,0.2,5.2,4.4,7.9,6.4c2.5,1.8,4.7,3.1,7.2,4.4c1.9,1,4.3,2,4.7,2.1c0.2,0,1.3,0,2.4-0.1
	c6-0.4,12.3-1.4,18.1-3C72.3,133.3,72.9,133.2,75.6,132.3z M22.9,56.8c-0.3,3.5-0.4,5.6-0.3,9.3c0.1,8.3,1.5,16.7,4.1,24.5
	c0.6,1.9,1.9,5.1,2,5.1s0.8-0.1,1.6-0.2c5.9-0.9,11.7-2.6,16.2-4.6c1.7-0.8,4-2,4-2.1c0,0-0.3-0.7-0.6-1.6l0,0
	c-1.8-4.5-2.8-7.7-4.1-12.7c-0.9-3.3-2.1-8.9-2.4-11.1c-0.8-5.5-0.9-11.4-0.2-16.9c1.2-9.6,3.8-18.6,8.8-31c0.7-1.7,1.1-2.8,1.1-2.9
	C53,12.4,48.8,14,46,15.3c-5,2.4-10.2,5.7-14,9l-1,0.9l-2.4,7.1c-3,9-3.7,11.2-4.6,15.8C23.5,51.1,23.2,53.2,22.9,56.8z M14.3,96.7
	c1.3,0,2.7,0,3.1,0c1.7,0,4.9-0.1,5.8-0.1c0.6,0,1-0.1,1.2-0.2s0.4-0.2,0.6-0.1c0.4,0,0.5,0,0.5-0.1c0,0-0.2-0.8-0.4-1.6l0,0
	c-0.2-0.9-0.9-3.1-1.5-5c-1.4-4.5-1.8-5.8-2.3-7.8c-2.2-9.8-2.3-21.3-0.2-33c1.1-6.1,3-13,4.9-18c0.2-0.5,0.3-1,0.3-1
	c-0.3-0.3-4.4,4.7-6.5,7.9C12.9,47.9,8.9,60,8.3,72.4C8,79,8.5,84.8,9.9,90.7c0.7,2.7,1.7,5.9,1.9,6C11.9,96.7,13,96.8,14.3,96.7z" class="color c3"/>
</svg>