<svg version="1.1" id="图层_1" x="0px" y="0px" width="128.604px" height="141.648px" viewBox="0 0 128.604 141.648" enable-background="new 0 0 128.604 141.648" xml:space="preserve" xmlns:xml="http://www.w3.org/XML/1998/namespace" xmlns="http://www.w3.org/2000/svg" xmlns:xlink="http://www.w3.org/1999/xlink">
  <path fill="#C1D72D" d="M45.011,0.372l-2.539,1.507c-1.378,0.815-2.839,1.798-4.013,2.586c-0.703,0.473-1.279,0.858-1.628,1.068
	c-2.173,1.313-3.77,2.918-4.742,4.771c-2.374,4.52-0.854,10.679,3.871,15.694c8.718,9.256,19.987,10.812,29.86,11.112
	c2.719,0.083,6.204-0.063,9.896-0.222c3.816-0.161,7.763-0.329,11.262-0.259c10.646,0.56,17.959,4.288,18.833,5.396l0.28,0.355
	l-0.053,0.514l-0.146,0.783l-0.796,0.033c-2.119,0.091-6.083-0.014-11.101-0.146c-9.525-0.252-22.569-0.597-30.237,0.3l-1.613,0.19
	c-3.178,0.38-6.462,0.773-9.722,0.818c-8.258,0.113-14.848-2.131-20.74-7.065c-3.69-3.09-6.421-5.994-7.75-10.122
	c-1.727-5.362-1.255-11.025,1.329-15.945c2.431-4.63,6.604-8.391,11.746-10.594c0.128-0.055,3.176-1.347,5.068-1.122L45.011,0.372z
	 M8.632,61.902l-1.59-2.485c-2.385-3.729-3.045-6.662-1.965-8.721c0.445-0.849,1.214-1.581,2.284-2.179
	c3.006-1.675,6.763-2.759,10.58-3.052c3.869-0.297,6.58,2.063,6.932,4.462c-0.138,0.979-1.499,8.778-11.325,8.311l-4.621-0.22
	l4.117,2.108c12.963,6.64,18.738-1.922,20.199-4.704c0.396-0.757,0.584-1.276,0.592-1.298l0.033-0.116
	c1.075-4.749-2.647-9.342-6.162-11.831c-6.78-4.802-20.627-1.08-25.138,3.883c-2.477,2.728-3.221,6.464-1.978,9.678
	c0.929,2.398,2.848,4.277,5.267,5.156L8.632,61.902z M94.128,46.948l0.679,0.342c0.724,0.364,0.899,1.012-0.06,3.697
	c-0.429,1.048-0.878,1.931-1.182,2.508c-0.198,0.379-0.397,0.743-0.592,1.102c-0.18,0.332-0.355,0.656-0.523,0.975
	c-1.071,2.039-1.576,3.519-1.185,5.481c0.457,2.292,2.831,4.591,5.126,6.815c1.426,1.382,2.902,2.811,4.025,4.316
	c11.765,15.77,23.26,33.052,27.658,52.573c0.791,3.517,0.693,7.239-0.279,10.768c-0.162,0.586-0.383,1.146-0.656,1.667
	c-1.03,1.96-2.849,3.4-5.124,4.055c-3.082,0.885-6.723,0.3-9.991-1.605C78.818,120.281,79.439,81.728,79.45,81.34
	c0.048-2.937,0.331-5.035,0.604-7.064c0.205-1.521,0.417-3.096,0.532-5.043c0.082-1.378-0.134-2.291-0.658-2.793
	c-3.012-2.896-7.075-4.397-11.149-4.126c-3.862,0.261-7.292,2.039-9.652,5.013c-0.964,1.213-1.807,2.5-2.502,3.824
	c-2.954,5.624-3.163,11.603-3.125,17.241c0.033,4.801,0.159,14.379,0.159,14.379c-0.435,6.948-0.855,12.274-2.358,18.258
	c-0.492,1.946-1.443,3.983-2.725,5.83c-2.229,3.209-5.647,5.259-9.624,5.771c-4.313,0.555-8.753-0.81-12.186-3.742
	c-6.317-5.394-8.389-12.408-9.396-17.215c-1.796-8.573-0.18-18.973,4.326-27.817l0.193-0.371c2.997-5.708,6.195-7.784,6.331-7.869
	l3.017-1.92L29.652,76.9c-4.331,8.762-7.904,21.456-4.943,30.815c0.732,2.327,1.842,4.171,3.294,5.479
	c1.587,1.434,4.373,2.899,6.106,2.771c1.641-0.123,3.934-1.964,5.048-3.606c1.159-1.71,1.765-3.763,1.922-6.235
	c0.213-3.37,0.297-6.811,0.377-10.138c0.143-5.904,0.291-12.012,1.168-18.013c1.096-7.499,3.355-14.41,6.753-20.588
	c2.779-5.053,6.892-8.354,11.896-9.551c6.019-1.438,13.03,0.295,19.744,4.879c1.146,0.783,2.212,1.591,3.446,2.526
	c0.521,0.396,1.073,0.813,1.668,1.258c0.884-0.622,2.9-3.233,4.271-5.012c1.117-1.445,2.272-2.942,3.216-3.979L94.128,46.948z
	 M87.307,72.022c-0.001,0.005-0.093,0.073-0.216,0.309c-0.241,0.46-0.547,1.455-0.64,3.587c-0.198,4.604,0.308,9.247,1.502,13.799
	c3.277,12.485,8.437,21.279,16.729,28.516c2.927,2.396,7.622,5.098,8.941,4.025c0.078-0.219,0.681-2.049-1.181-7.503
	c-4.256-13.953-13.021-26.773-20.905-37.698c-0.852-1.18-1.868-2.351-2.853-3.481c-0.44-0.51-0.883-1.018-1.313-1.528
	C87.351,72.035,87.323,72.024,87.307,72.022z" class="color c1"/>
</svg>