<svg version="1.1" id="图层_1" x="0px" y="0px" width="102.257px" height="104.607px" viewBox="0 0 102.257 104.607" enable-background="new 0 0 102.257 104.607" xml:space="preserve" xmlns="http://www.w3.org/2000/svg" xmlns:xlink="http://www.w3.org/1999/xlink" xmlns:xml="http://www.w3.org/XML/1998/namespace">
  <path fill="#FFFFFF" d="M86.229,45.733c-2.297,0-4.302,1.994-4.301,4.279l0.001,1.038H68.391
	c-0.138-10.294-1.925-20.438-5.358-30.162L57.156,4.247c-0.316-0.896-0.839-1.721-1.51-2.389c-2.491-2.479-6.545-2.479-9.035,0
	c-0.674,0.67-1.196,1.496-1.51,2.389l-5.876,16.642c-3.434,9.727-5.224,19.867-5.359,30.162H20.329l0.001-1.038
	c-0.002-1.145-0.449-2.219-1.26-3.026c-0.812-0.806-1.892-1.253-3.04-1.253H4.301C2.004,45.733,0,47.729,0,50.012v4.583
	c0,1.146,0.449,2.219,1.26,3.025c0.811,0.809,1.892,1.254,3.04,1.254h11.729c1.148,0,2.228-0.443,3.041-1.254
	c0.813-0.81,1.26-1.884,1.26-3.025l-0.001-1.037h13.537c0.136,10.293,1.926,20.437,5.358,30.16l5.877,16.643
	c0.315,0.896,0.838,1.72,1.51,2.39c2.491,2.479,6.544,2.479,9.035,0c0.674-0.672,1.195-1.498,1.509-2.39l5.876-16.643
	c3.436-9.725,5.225-19.867,5.359-30.16h13.537v1.037c0.001,1.146,0.447,2.219,1.259,3.025c0.812,0.806,1.892,1.254,3.041,1.254
	h11.729c1.148,0,2.228-0.443,3.041-1.254c0.813-0.81,1.26-1.884,1.26-3.025v-4.583c-0.002-1.144-0.448-2.218-1.26-3.025
	c-0.812-0.807-1.893-1.253-3.041-1.253L86.229,45.733L86.229,45.733z M16.03,56.368L4.301,56.366c-0.478,0-0.924-0.185-1.26-0.519
	c-0.337-0.336-0.521-0.779-0.521-1.254v-4.582c-0.001-0.475,0.185-0.918,0.522-1.254c0.335-0.334,0.781-0.521,1.258-0.519
	l11.729,0.001c0.477-0.001,0.923,0.184,1.26,0.518c0.336,0.335,0.521,0.779,0.521,1.253v4.583
	C17.812,55.542,16.981,56.368,16.03,56.368z M41.601,21.721l5.878-16.642V5.077c0.189-0.54,0.506-1.039,0.913-1.445
	c1.511-1.502,3.964-1.501,5.475,0c0.405,0.405,0.723,0.904,0.914,1.445l5.877,16.642c3.34,9.457,5.079,19.319,5.215,29.33
	l-3.688,0.002V45.69c-0.001-2.354-0.922-4.568-2.597-6.233c-1.672-1.665-3.897-2.582-6.266-2.582l-4.39-0.001
	c-2.366-0.001-4.591,0.918-6.264,2.583c-1.674,1.665-2.597,3.878-2.595,6.233v5.361h-3.689
	C36.521,41.039,38.263,31.177,41.601,21.721z M42.592,51.051V45.69c0-1.687,0.66-3.271,1.858-4.462
	c1.197-1.191,2.789-1.849,4.483-1.849h4.391c1.693,0.001,3.285,0.656,4.483,1.849c1.196,1.191,1.856,2.775,1.856,4.462v5.361H42.592
	z M59.666,53.557v5.361c0,1.686-0.66,3.27-1.857,4.461c-1.198,1.19-2.79,1.848-4.484,1.848h-4.392c-1.691,0-3.284-0.656-4.481-1.848
	c-1.198-1.191-1.857-2.775-1.858-4.461v-5.361H59.666z M60.656,82.885l-5.878,16.646c-0.188,0.538-0.505,1.038-0.913,1.444
	c-0.431,0.428-0.939,0.719-1.477,0.902V96.61h-2.52v5.269c-0.54-0.185-1.047-0.476-1.478-0.902
	c-0.406-0.403-0.724-0.903-0.915-1.444L41.599,82.89c-3.339-9.457-5.079-19.32-5.216-29.332h3.689l-0.001,5.361
	c0.001,2.354,0.922,4.567,2.596,6.231c1.673,1.666,3.899,2.584,6.265,2.584h4.392c2.365,0,4.59-0.918,6.264-2.582
	c1.674-1.666,2.597-3.879,2.595-6.233l0.001-5.361h3.688C65.736,63.569,63.996,73.43,60.656,82.885z M99.737,50.013v4.582
	c0.003,0.947-0.827,1.773-1.78,1.771H86.228c-0.477,0-0.923-0.185-1.26-0.519c-0.336-0.336-0.521-0.779-0.521-1.254v-4.583
	c-0.001-0.474,0.186-0.917,0.521-1.253c0.337-0.334,0.783-0.521,1.26-0.519h11.729c0.479,0,0.924,0.185,1.26,0.519
	C99.554,49.095,99.737,49.538,99.737,50.013z M49.869,91.293h2.519v3.543h-2.519V91.293z M93.873,52.303l1.78-1.771l1.783,1.771
	l-1.782,1.774L93.873,52.303z M4.822,52.303l1.782-1.771l1.78,1.771l-1.78,1.774L4.822,52.303z" class="color c1"/>
</svg>