<svg version="1.1" id="图层_1" x="0px" y="0px" width="92.839px" height="170px" viewBox="0 0 92.839 170" enable-background="new 0 0 92.839 170" xml:space="preserve" xmlns="http://www.w3.org/2000/svg" xmlns:xlink="http://www.w3.org/1999/xlink" xmlns:xml="http://www.w3.org/XML/1998/namespace">
  <path fill="#FFFFFF" d="M52.462,58.293l5.723-3.339c0.634-3.499,2.544-5.084,6.359-4.292c0.791-3.342,2.543-5.401,6.355-4.134
	c0-2.701,2.862-5.245,6.676-3.499c-1.111-1.746,3.658-5.56,6.518-3.654l5.406-3.024l3.338,5.089
	c-1.904,1.271-3.975,2.545-5.883,3.821c-0.317,4.133-3.021,4.926-6.675,4.448c0.478,2.385-2.704,4.924-5.724,3.652
	c-0.635,3.025-2.543,4.774-6.678,3.343c-0.635,3.813-2.859,5.567-6.992,4.289L55.8,63.858L52.462,58.293z" class="color c1"/>
  <path fill="#FFFFFF" d="M83.891,59.353h1.43c3.021,0,5.406,2.543,5.406,5.406v94.747L83.732,170l-6.52-10.494V65.873
	C77.212,62.371,80.234,59.353,83.891,59.353L83.891,59.353z" class="color c1"/>
  <path fill="#FFFFFF" d="M31.747,60.625l1.431-0.318c3.021-0.475,5.883,1.589,6.359,4.452l16.534,93.32l-5.088,11.438l-8.266-9.216
	L26.503,68.094C25.864,64.598,28.252,61.26,31.747,60.625L31.747,60.625z" class="color c1"/>
  <path fill="#FFFFFF" d="M3.339,27.724l5.723,3.181c3.337-1.115,5.724-0.318,6.834,3.178c3.501-0.796,6.2-0.318,6.838,3.499
	c2.385-1.272,6.042-0.161,6.359,3.97c1.112-1.589,6.677,0.475,6.519,3.817l5.403,3.181l-3.021,5.397
	c-2.067-1.109-4.135-2.059-6.198-3.172c-3.817,1.588-5.883-0.158-7.155-3.5c-1.907,1.591-5.883,0-6.041-3.174
	c-3.18,0.949-5.561,0.313-6.357-4.139c-3.815,1.428-6.36,0.479-7.154-3.816L0,33.286L3.339,27.724z" class="color c1"/>
  <path fill="#FFFFFF" d="M66.812,6.392c-1.613,6.619-5.029,12.675-9.896,17.534c-4.871,4.863-10.942,8.278-17.581,9.889
	c-1.08-1.003-2.103-2.185-2.995-3.457C49.16,26.43,59.393,16.205,63.326,3.383C64.652,4.268,65.798,5.259,66.812,6.392z
	 M71.927,19.466c0-3.439-0.906-6.802-2.631-9.808C65.291,22.28,55.264,32.306,42.676,36.275c2.973,1.724,6.338,2.628,9.816,2.628
	h0.055C63.234,38.904,71.927,30.185,71.927,19.466z M52.458,0c-10.73,0-19.462,8.731-19.462,19.466c0,2.752,0.584,5.425,1.74,7.952
	c12.367-3.527,22.146-13.306,25.706-25.701C57.867,0.577,55.183,0,52.458,0z" class="color c1"/>
  <path fill="#FFFFFF" d="M14.26,64.759c0-2.863-2.544-5.406-5.563-5.406H7.266c-3.656,0-6.517,3.018-6.517,6.52v93.633L7.107,170
	l7.153-10.494V64.759z" class="color c1"/>
</svg>