<svg version="1.1" id="图层_1" x="0px" y="0px" width="53.602px" height="300.82px" viewBox="0 0 53.602 300.82" enable-background="new 0 0 53.602 300.82" xml:space="preserve" xmlns="http://www.w3.org/2000/svg" xmlns:xlink="http://www.w3.org/1999/xlink" xmlns:xml="http://www.w3.org/XML/1998/namespace">
  <path fill="#240A54" d="M49.007,12.218l-0.396-0.577C45.387,6.908,36.817-0.098,26.407,0.001L26.08,0.008
	c-0.016,0-0.026,0.004-0.046,0.001C15.678,0.361,7.422,7.692,4.397,12.543l-0.371,0.583c-1.859,2.946-4.173,6.615-4.019,14.186
	c0.117,5.943,2.826,10.766,5.009,14.646c0.748,1.333,1.459,2.601,1.945,3.714c2.385,5.476,4.432,17.843,4.848,24.302
	c0.071,1.1,0.481,6.736,1.582,9.3c0.777,1.814,2.278,4.016,4.375,5.879c0.073,0.079,0.153,0.154,0.248,0.219
	c0.438,0.374,0.896,0.734,1.382,1.069c0.063,0.054,0.131,0.101,0.204,0.141c1.791,1.207,3.888,2.111,6.243,2.435
	c-0.003,0.059-0.015,0.116-0.014,0.176l4.248,209.438c0.023,1.235,1.045,2.217,2.281,2.191c1.236-0.022,2.216-1.049,2.19-2.283
	L30.301,89.099c-0.001-0.063-0.016-0.121-0.021-0.182c2.287-0.41,4.309-1.358,6.02-2.593c0.075-0.043,0.147-0.098,0.217-0.156
	c0.437-0.326,0.85-0.671,1.245-1.023c0.164-0.094,0.302-0.226,0.407-0.379c2.037-1.955,3.455-4.229,4.164-6.083
	c0.996-2.608,1.179-8.25,1.204-9.355c0.05-2.087,0.241-4.797,0.559-7.69c0.003-0.026,0.006-0.048,0.006-0.078
	c0.659-6.067,1.834-12.949,3.293-16.711c0.441-1.131,1.101-2.422,1.795-3.791c2.021-3.959,4.528-8.892,4.41-14.834
	C53.442,18.654,50.982,15.083,49.007,12.218z M50.022,19.308c0.289,0.857,0.534,1.808,0.719,2.886
	c-0.766-0.586-1.648-1.157-2.676-1.702C48.709,20.073,49.361,19.679,50.022,19.308z M45.488,19.223
	c-0.743-1.354-1.514-2.683-2.304-3.986c2.459,0.625,4.192,1.356,5.392,2.02C47.524,17.86,46.492,18.517,45.488,19.223z
	 M28.278,82.392c0.028,1.408,0.099,2.829,0.198,4.238c-0.168,0.014-0.34,0.021-0.514,0.028c0,0,0,0-0.004-0.001
	c-0.169,0.003-0.336,0-0.501-0.005c0.046-1.411,0.057-2.833,0.026-4.239c-0.165-8.007-1.511-15.698-3.839-22.66
	c0.926-4.035,2.109-7.917,3.54-11.591c1.573,3.611,2.918,7.441,4.003,11.433C29.147,66.647,28.115,74.384,28.278,82.392z
	 M26.565,13.757c1.212-0.023,2.359-0.021,3.459-0.006c0.488,0.617,0.971,1.24,1.445,1.877c-0.332,0.368-0.662,0.743-0.991,1.121
	c-1.225-0.033-2.513-0.042-3.858-0.012c-1.396,0.026-2.725,0.088-3.984,0.178c-0.346-0.367-0.693-0.733-1.045-1.087
	c0.445-0.657,0.902-1.301,1.363-1.93C24.096,13.831,25.297,13.785,26.565,13.757z M24.918,11.309
	c0.486-0.613,0.979-1.217,1.481-1.812c0.526,0.576,1.047,1.156,1.558,1.75c-0.472,0.005-0.955,0.008-1.443,0.02
	C25.971,11.276,25.438,11.291,24.918,11.309z M35.565,17.078c-0.274-0.407-0.561-0.812-0.842-1.213
	c0.579-0.603,1.167-1.188,1.762-1.762c1.2,0.121,2.315,0.271,3.331,0.437c0.765,1.203,1.52,2.435,2.245,3.688
	C40.174,17.737,38.02,17.34,35.565,17.078z M42.989,21.109c-1.09,0.875-2.146,1.812-3.174,2.805
	c-0.782-1.391-1.598-2.752-2.432-4.076C39.538,20.162,41.391,20.599,42.989,21.109z M38,25.763
	c-1.305,1.389-2.547,2.871-3.736,4.431c-0.767-0.441-1.575-0.819-2.424-1.12c-1.131-1.853-2.323-3.634-3.563-5.342
	c1.084-1.543,2.218-3.028,3.388-4.443c0.871,0.042,1.7,0.095,2.498,0.166C35.507,21.473,36.785,23.579,38,25.763z M26.74,26.014
	c0.533,0.752,1.057,1.519,1.568,2.31c-0.48-0.04-0.974-0.063-1.476-0.051c-0.54,0.01-1.068,0.05-1.574,0.116
	C25.742,27.585,26.236,26.792,26.74,26.014z M24.769,19.293c0.619-0.026,1.249-0.051,1.9-0.063c0.604-0.009,1.189-0.016,1.771-0.012
	c-0.61,0.771-1.204,1.563-1.789,2.368C26.035,20.801,25.408,20.039,24.769,19.293z M26.882,30.768
	c1.128-0.021,2.188,0.11,3.194,0.375c0.542,0.905,1.065,1.826,1.577,2.766c-1.678,2.583-3.212,5.35-4.589,8.267
	c-1.496-2.856-3.142-5.555-4.922-8.068c0.467-0.949,0.953-1.882,1.452-2.801C24.618,30.981,25.711,30.793,26.882,30.768z
	 M25.113,23.8c-1.18,1.767-2.302,3.607-3.364,5.52c-0.819,0.339-1.599,0.748-2.332,1.221c-1.259-1.531-2.574-2.972-3.942-4.319
	c1.123-2.225,2.318-4.375,3.572-6.443c0.798-0.104,1.634-0.196,2.505-0.275C22.78,20.867,23.968,22.3,25.113,23.8z M17.54,17.461
	c-2.445,0.373-4.583,0.863-6.45,1.437c0.68-1.285,1.379-2.546,2.099-3.786c1.024-0.214,2.135-0.412,3.345-0.588
	c0.613,0.541,1.215,1.097,1.816,1.676C18.076,16.613,17.81,17.039,17.54,17.461z M15.839,20.297
	c-0.779,1.35-1.532,2.736-2.258,4.147c-1.051-0.935-2.135-1.821-3.236-2.643C11.901,21.231,13.715,20.712,15.839,20.297z
	 M14.325,28.583c1.074,1.09,2.106,2.242,3.11,3.451c-2.271,1.986-4.056,4.556-5.442,7.173c-0.473-0.518-0.948-1.018-1.437-1.502
	C11.694,34.546,12.95,31.505,14.325,28.583z M18.986,33.991c0.07,0.095,0.145,0.189,0.215,0.284
	c-1.389,2.934-2.644,5.998-3.755,9.189c-0.551-0.766-1.12-1.508-1.705-2.229C15.045,38.589,16.766,35.955,18.986,33.991z
	 M20.916,36.682c1.767,2.615,3.39,5.423,4.846,8.4c-1.419,3.351-2.639,6.883-3.642,10.549c-1.391-3.404-3.028-6.604-4.893-9.532
	C18.311,42.838,19.544,39.691,20.916,36.682z M28.482,45.023c1.334-3.033,2.843-5.912,4.504-8.589
	c1.495,2.951,2.854,6.042,4.063,9.256c-1.739,3.001-3.247,6.264-4.502,9.729C31.393,51.794,30.035,48.318,28.482,45.023z
	 M34.605,33.957c0.075-0.115,0.157-0.227,0.233-0.343c2.308,1.86,4.137,4.414,5.556,7.007c-0.575,0.762-1.123,1.552-1.665,2.357
	C37.488,39.841,36.109,36.83,34.605,33.957z M36.311,31.6c0.942-1.229,1.918-2.409,2.931-3.523c1.489,2.861,2.874,5.852,4.141,8.959
	c-0.451,0.48-0.888,0.977-1.316,1.487C40.562,35.964,38.668,33.483,36.311,31.6z M41.059,26.176
	c1.157-1.148,2.354-2.224,3.593-3.216c1.51,2.923,2.911,5.966,4.214,9.132c-1.239,0.918-2.438,1.925-3.587,3.013
	C43.981,32.011,42.576,29.031,41.059,26.176z M46.554,13.049l0.396,0.582c0.058,0.08,0.111,0.165,0.169,0.243
	c-1.516-0.571-3.421-1.128-5.785-1.581c-0.336-0.516-0.677-1.019-1.021-1.523c0.799-0.639,1.614-1.245,2.44-1.818
	C44.413,10.372,45.71,11.813,46.554,13.049z M40.707,7.349c-0.618,0.439-1.228,0.895-1.834,1.364
	c-1.045-1.456-2.114-2.871-3.224-4.241C37.499,5.282,39.204,6.277,40.707,7.349z M31.8,3.766c1.793,2.071,3.509,4.25,5.146,6.532
	c-0.468,0.4-0.93,0.809-1.383,1.226c-1.338-0.111-2.778-0.196-4.321-0.239c-1.037-1.271-2.099-2.492-3.189-3.679
	C29.267,6.264,30.516,4.982,31.8,3.766z M26.147,2.501c0.006,0,0.009-0.001,0.019-0.001l0.279-0.008
	c0.982-0.011,1.943,0.06,2.891,0.183c-1.024,1.003-2.028,2.046-3.01,3.123c-1.015-1.031-2.057-2.025-3.114-2.982
	C24.166,2.644,25.146,2.533,26.147,2.501z M24.678,7.677c-1.044,1.227-2.056,2.496-3.041,3.806c-1.531,0.11-2.959,0.251-4.284,0.424
	c-0.48-0.404-0.965-0.8-1.451-1.181c1.543-2.347,3.168-4.594,4.877-6.738C22.114,5.157,23.411,6.384,24.678,7.677z M16.903,4.925
	c-1.032,1.389-2.03,2.826-2.995,4.298c-0.604-0.436-1.215-0.854-1.829-1.26C13.505,6.854,15.131,5.806,16.903,4.925z M6.14,14.461
	l0.376-0.602c0.779-1.253,2.005-2.74,3.581-4.211c0.831,0.532,1.652,1.094,2.459,1.682c-0.332,0.527-0.658,1.063-0.981,1.602
	c-2.301,0.548-4.146,1.173-5.609,1.808C6.023,14.643,6.08,14.551,6.14,14.461z M9.837,15.963C9.111,17.279,8.411,18.62,7.73,19.99
	c-1.009-0.646-2.037-1.244-3.081-1.794C5.795,17.49,7.459,16.689,9.837,15.963z M3.286,20.297c0.665,0.346,1.322,0.712,1.977,1.102
	c-0.988,0.578-1.839,1.178-2.566,1.789C2.834,22.118,3.039,21.165,3.286,20.297z M2.502,27.261C2.499,27.156,2.5,27.053,2.497,26.95
	c0.697-0.882,1.748-1.925,3.339-2.953c-1.021,2.267-1.98,4.602-2.877,6.995C2.695,29.802,2.525,28.556,2.502,27.261z M7,40.4
	c-0.801-1.431-1.63-2.931-2.354-4.524c1.041,0.771,2.048,1.606,3.026,2.511C7.441,39.049,7.219,39.721,7,40.4z M4.88,32.986
	c1.167-3.212,2.447-6.313,3.834-9.296c1.278,0.945,2.517,1.968,3.724,3.069c-1.403,2.913-2.689,5.947-3.854,9.096
	C7.391,34.81,6.154,33.853,4.88,32.986z M9.245,44.671c-0.174-0.396-0.373-0.812-0.585-1.228c0.318-1.048,0.646-2.086,0.986-3.108
	c0.398,0.418,0.79,0.85,1.172,1.286c-0.54,1.216-0.989,2.412-1.375,3.521C9.379,44.983,9.313,44.825,9.245,44.671z M12.302,54.384
	c-0.126-0.208-0.25-0.408-0.374-0.612c-0.35-1.591-0.724-3.13-1.124-4.549c0.39-1.473,0.977-3.386,1.8-5.423
	c0.642,0.834,1.265,1.703,1.864,2.599C13.655,48.992,12.931,51.654,12.302,54.384z M15.683,78.289
	c-0.682-1.587-1.189-5.405-1.387-8.479c-0.129-2.004-0.41-4.599-0.818-7.401c2.273,5.708,3.627,12.117,3.917,18.731
	C16.638,80.161,16.06,79.169,15.683,78.289z M19.094,73.437c-0.942-5.622-2.62-10.95-4.963-15.696
	c0.591-2.898,1.296-5.734,2.115-8.493c1.889,3.258,3.512,6.833,4.825,10.643C20.101,64.259,19.433,68.792,19.094,73.437z
	 M24.968,86.32c-1.292-0.321-2.482-0.852-3.549-1.514c-0.033-0.752-0.06-1.51-0.077-2.272c-0.12-6.006,0.321-11.9,1.268-17.542
	c1.434,5.498,2.257,11.385,2.379,17.469C25.016,83.74,25.008,85.034,24.968,86.32z M30.948,86.205
	c-0.091-1.288-0.15-2.581-0.178-3.863c-0.123-6.085,0.461-12.003,1.667-17.553c1.176,5.605,1.858,11.476,1.979,17.479
	c0.014,0.777,0.02,1.551,0.019,2.323C33.393,85.279,32.229,85.841,30.948,86.205z M36.298,73.083
	c-0.527-4.623-1.382-9.13-2.528-13.454c1.163-3.864,2.638-7.5,4.395-10.834c0.929,2.729,1.749,5.537,2.459,8.411
	C38.471,62.037,37.006,67.431,36.298,73.083z M41.042,69.266c-0.071,3.08-0.424,6.912-1.041,8.529
	c-0.356,0.934-0.93,1.999-1.696,3.052c0.008-6.814,1.146-13.441,3.283-19.361c0.001,0.011,0.004,0.016,0.004,0.026
	C41.281,64.453,41.089,67.18,41.042,69.266z M42.8,52.909c-0.165,0.285-0.325,0.574-0.486,0.864
	c-0.737-2.703-1.566-5.337-2.489-7.895c0.577-0.952,1.186-1.867,1.817-2.757c0.925,2.036,1.597,3.959,2.054,5.433
	C43.376,49.922,43.074,51.39,42.8,52.909z M45.066,43.948c-0.06,0.15-0.115,0.314-0.175,0.476c-0.437-1.12-0.955-2.315-1.559-3.541
	c0.35-0.422,0.7-0.845,1.059-1.262c0.396,1.054,0.785,2.122,1.156,3.197C45.373,43.2,45.211,43.579,45.066,43.948z M47.079,39.696
	c-0.258-0.703-0.521-1.403-0.789-2.097c0.983-0.98,2.006-1.9,3.069-2.744C48.671,36.562,47.862,38.172,47.079,39.696z
	 M47.488,23.043c1.713,0.979,2.854,2.009,3.607,2.891c0.001,0.112,0.005,0.225,0.008,0.34c0.028,1.358-0.098,2.662-0.334,3.908
	C49.739,27.736,48.645,25.352,47.488,23.043z" class="color c1"/>
</svg>