<svg version="1.1" id="图层_1" x="0px" y="0px" width="22.417px" height="22.542px" viewBox="0 0 22.417 22.542" enable-background="new 0 0 22.417 22.542" xml:space="preserve" xmlns="http://www.w3.org/2000/svg" xmlns:xlink="http://www.w3.org/1999/xlink" xmlns:xml="http://www.w3.org/XML/1998/namespace">
  <path fill-rule="evenodd" clip-rule="evenodd" fill="#1A1915" d="M13.724,2.413c-0.821-0.881-1.885-1.37-2.726-2.191
	c0.454-0.67,3.424,0.376,4.043,0.554c1.231,0.354,2.605,1.218,3.562,2.057c1.073,0.942,2.394,2.435,2.797,3.832
	c0.353,1.219-2.337,2.744-3.254,3.215c-0.438-0.753-0.623-1.766-0.978-2.579c-0.359-0.833-0.924-2.114-1.604-2.717
	c-0.334-0.297-0.436-0.748-0.762-1.065C14.432,3.157,14.079,2.791,13.724,2.413z M22.122,8.731
	c-0.271-1.213-0.579-0.509-1.286,0.129c-0.644,0.583-1.288,1.104-2.068,1.49c-1.326,0.654-2.544,1.261-4.073,1.445
	c-0.893,0.108-1.795,0.072-2.688-0.018c-0.738-0.073-0.801-0.077-1.243,0.541c-0.202,0.283-0.392,0.574-0.559,0.881
	c-0.561,1.021-1.33,2.836-1.158,4.035c3.049,1.473,7.344,0.766,10.358-0.457c0.666-0.271,1.727-0.641,2.191-1.217
	c0.321-0.396,0.469-1.271,0.572-1.764C22.521,12.128,22.494,10.396,22.122,8.731z M7.203,5.583c1.337,0.891,2.505,2.123,3.341,3.492
	c0.381,0.623,0.696,1.29,0.908,1.989c0.651,0.143,1.32,0.207,1.988,0.193c1.38-0.031,2.729-0.408,3.973-0.995
	c-0.501-3.653-2.994-6.588-5.747-8.844C10.202,0.22,9.261,0.148,7.483,0.738C5.738,1.315,4.133,2.41,2.912,3.777
	c0.652,0.426,1.583,0.471,2.301,0.767C5.904,4.833,6.579,5.165,7.203,5.583z M17.228,18.133c-1.243,0.311-2.527,0.449-3.808,0.443
	c-1.294-0.008-2.626-0.004-3.854-0.441c-0.771-0.275-0.563,0.322-0.546,0.846c0.021,0.637,0.084,1.273,0.214,1.9
	c0.093,0.451,0.204,1.475,0.782,1.564c0.47,0.076,0.98,0.092,1.453,0.096c1.359,0.008,2.726-0.328,3.981-0.836
	c1.288-0.52,2.407-1.273,3.421-2.215c0.3-0.279,2.49-2.439,1.957-2.814C19.988,17.45,18.312,17.862,17.228,18.133z M8.53,15.706
	c0.4-1.748,1.368-3.029,2.295-4.502C10.499,9.661,9.292,8.232,8.14,7.221C7.854,6.968,7.478,6.53,7.059,6.533
	C6.753,6.799,6.445,7.068,6.152,7.351C5.618,7.868,5.204,8.457,4.815,9.089c-1.647,2.686-2.836,6.113-2.427,9.296
	c1.157,1.285,2.599,2.439,4.18,3.162c0.585,0.268,1.343,0.619,1.99,0.686c0.633,0.066,0.003-1.02-0.069-1.305
	C8.071,19.29,8.155,17.34,8.53,15.706z M6.432,6.114c-0.02-0.707-2.957-1.408-3.593-1.514C1.736,4.42,0.899,6.777,0.63,7.625
	c-0.936,2.946-0.993,6.799,0.956,9.399c0.297-0.053,0.325-2.443,0.429-2.848c0.248-0.961,0.559-1.908,0.946-2.821
	C3.787,9.41,4.964,7.633,6.432,6.114z" class="color c1"/>
</svg>