<svg version="1.1" id="图层_1" x="0px" y="0px" width="37.697px" height="176.33px" viewBox="0 0 37.697 176.33" enable-background="new 0 0 37.697 176.33" xml:space="preserve" xmlns="http://www.w3.org/2000/svg" xmlns:xlink="http://www.w3.org/1999/xlink" xmlns:xml="http://www.w3.org/XML/1998/namespace">
  <path fill="#F0FFE1" d="M35.779,155.769L35.779,155.769L35.779,155.769c0.001,11.498-4.638,21.719-20.937,20.455
	C5.572,175.504,0.002,169.419,0,163.472c0.001-5.943,5.142-12.306,15.512-7.029c7.411,3.77,13.018,5.581,17.345,2.477l-1.078-99.648
	h4.762L35.779,155.769z M31.065,57.926h6.204l0.069-8.799c-2.146-2.145-4.292-4.291-6.439-6.439L31.065,57.926z M30.877,40.764
	c2.16,2.16,4.319,4.318,6.478,6.477l0.085-10.628l-6.607-0.003L30.877,40.764z M30.818,35.265l6.63,0.003l0.053-6.771
	c-2.274-2.276-4.553-4.555-6.829-6.83L30.818,35.265z M30.652,19.746l6.864,6.863L37.651,9.59l-7.11-0.002L30.652,19.746z M34.087,0
	c-2.01-0.002-3.626,1.623-3.609,3.609l0.05,4.636h7.135l0.036-4.635C37.711,1.623,36.097,0,34.087,0z" class="color c1"/>
</svg>