<svg version="1.1" id="图层_1" x="0px" y="0px" width="115.781px" height="119.368px" viewBox="0 0 115.781 119.368" enable-background="new 0 0 115.781 119.368" xml:space="preserve" xmlns="http://www.w3.org/2000/svg" xmlns:xlink="http://www.w3.org/1999/xlink" xmlns:xml="http://www.w3.org/XML/1998/namespace">
  <path fill="#003669" d="M60.404,70.034c0.789-5.579,5.951-9.464,11.531-8.676c5.58,0.787,9.465,5.949,8.676,11.529
	c-0.787,5.58-5.949,9.465-11.529,8.677S59.617,75.614,60.404,70.034z M115.26,12.814l-9.209,8.948
	c-0.863,0.838-1.869,1.475-2.996,1.893l-9.063,3.372c-0.203,0.076-0.416,0.111-0.625,0.108c-0.447-0.007-0.887-0.188-1.209-0.521
	l-0.467-0.479l-15.48,15.354c15.223,9.615,36.296,31.787,24.207,77.88l-28.086-2.578c0,0-24.598-22.962-31.126-40.643L26.487,90.479
	l0.471,0.483c0.475,0.489,0.617,1.213,0.36,1.845l-3.628,8.955c-0.452,1.12-1.124,2.113-1.993,2.954l-9.247,8.944
	c-0.327,0.316-0.766,0.489-1.221,0.483c-0.002,0-0.003,0-0.004,0c-0.457-0.008-0.892-0.196-1.208-0.524l-9.533-9.859
	c-0.66-0.683-0.643-1.77,0.037-2.431l9.208-8.947c0.863-0.838,1.87-1.476,2.997-1.894l9.062-3.371
	c0.641-0.239,1.359-0.077,1.834,0.412l0.467,0.481l15.965-15.771c-0.631-2.969-0.593-5.704,0.358-8.048c0,0,0.163,2.355,2.007,5.711
	l28.532-28.183c-2.459-2.418-5.228-4.668-8.314-6.659c0,0,4.452,1.239,10.436,4.563l12.58-12.427l0.012,0.012l3.629-3.544
	l-0.471-0.485c-0.475-0.489-0.615-1.213-0.359-1.845l3.627-8.955c0.453-1.12,1.125-2.114,1.992-2.954l9.25-8.944
	c0.324-0.315,0.764-0.489,1.219-0.483c0.002,0,0.004,0,0.004,0c0.455,0.008,0.893,0.197,1.209,0.525l9.533,9.859
	C115.957,11.066,115.939,12.153,115.26,12.814z M73.392,44.284L44.448,72.989c3.133,4.08,8.682,8.863,18.532,12.711
	C88.87,95.813,91.989,65.24,73.392,44.284z" class="color c1"/>
</svg>