<svg version="1.1" id="图层_1" x="0px" y="0px" width="113.795px" height="154.015px" viewBox="0 0 113.795 154.015" enable-background="new 0 0 113.795 154.015" xml:space="preserve" xmlns="http://www.w3.org/2000/svg" xmlns:xlink="http://www.w3.org/1999/xlink" xmlns:xml="http://www.w3.org/XML/1998/namespace">
  <path fill="#281672" d="M113.168,33.522c0,0-3.51-3.403-8.771-5.104c0,0-4.573-4.627-6.967-3.351c0,0-1.913-0.213-4.039-0.585
	c0,0-4.68-5.901-10.952-5.848l-2.5-0.001c0,0-3.987-1.967-9.038-2.233l0.053-3.881c0,0,0.531-9.41-4.36-11.696
	c0,0-3.349-2.021-7.602,0.266c0,0-4.146,2.18-3.03,9.941c0,0-2.181,0-0.32,4.147c0,0,0.66,1.224,1.181,1.116l0.085,2.446
	c0,0-6.478,1.382-8.444,3.296c0,0-10.207,1.117-10.633,14.249c0,0-4.414,4.201-7.019,8.188c0,0-0.64-0.319-1.862-0.958
	c0,0-1.755-0.957-3.775,0.798c0,0-1.913,0.799-2.445,0.851c0,0-0.798,0.373-0.692,2.074c0,0-3.508,2.871-2.498,5.157
	c0,0-1.198,1.728-0.494,2.309c-0.318,1.066-0.492,2.194-0.492,3.364c0,6.476,5.25,11.725,11.728,11.725
	c6.476,0,11.727-5.249,11.727-11.725c0-2.722-0.929-5.222-2.483-7.211c0.95-1.446,4.88-7.494,5.907-10.105
	c0,0,2.02-3.297,3.03-3.189l1.808,14.248c0,0,0.106,2.977,0.797,3.615c0,0-1.01,1.275-0.639,1.807c0,0-1.063,0.799-0.851,1.171
	c0,0-6.912,7.336-6.912,11.165c0,0,0,1.114,0.372,1.678c-0.116-0.082-0.445,0.011-1.276,1.99l-1.117,2.181l-0.478,1.572
	l-4.094,6.614c0,0-2.021,3.137,0.532,2.979c0,0-1.118,2.817-1.544,5.157c0,0-5.315,5.955-6.751,9.092c0,0-5.743,3.562-7.763,11.482
	c0,0-6.7,20.577-9.518,24.457c0,0-1.384-0.531-2.447,3.351c0,0-2.338,4.465-4.306,5.794c0,0-4.628,1.038-4.255,4.374l9.636,3.725
	l3.168-1.863v-1.861l2.244-3.036c0,0,4.941-6.756,2.284-8.034c0,0,3.935-9.25,7.656-13.557c0,0,3.244-4.147,4.361-5.264
	c0,0,5.105-6.752,5.743-12.813l1.862-1.649c0,0,2.126-2.021,3.881-5.424l6.433-6.806l3.617-2.551c0,0,0.053,1.01,1.168,0.744
	c0,0,2.287-0.266,7.072,7.283c0,0-1.543,3.775-1.489,8.083c0,0-1.755,1.808-2.021,2.922c0,0-5.902-2.976-6.486,5.478
	c0,0-1.703,5.545-2.979,6.918c0,0-4.997,3.557-2.87,11.158c0,0,1.436,3.084,4.679,0.798c0,0,6.062-4.784,6.913-12.972
	c0,0,3.349-1.011,3.402-3.935l5.317-1.437c0,0,3.243-1.595,3.988-5.477c0,0,0.744-2.179,1.648-3.508L69.886,107
	c0,0,6.062-9.517,6.913-13.397c0,0,3.617-5.797,3.775-8.72c0,0,2.5-4.041,2.606-10.952c0,0,0.798-3.244-0.266-7.871l0.053-1.594
	c0,0,1.637-2.393,0.5-4.465c0,0,0.457-0.427-0.446-1.648c0,0,0.851-0.798,0.106-2.34l0.741-4.253c0,0,1.705-2.713,1.332-4.308
	c0,0,0.213-10.687,0.639-14.886c0,0,6.857,4.679,15.629,4.679c0,0,0.8,1.383,2.021,1.117c0,0-0.956,4.944-4.412,8.665l-0.373,1.116
	c0,0-1.596,2.766-4.572,5.689c0,0,0.318,4.52-1.223,6.061c0,0,0.318,1.701,2.338-0.532c0,0,1.117-1.381,1.383-3.774l0.851,0.054
	c0,0-0.318,6.327-0.425,9.41c0,0,0.16,0.691,0.957,0.584c0,0,0.744,0.107,0.798-0.851c0,0,0.159-6.113,0.797-7.496l0.48,0.106
	l0.105,7.656c0,0-0.053,1.169,1.063,1.169c0,0,0.957,0.319,0.957-1.329l0.054-7.336c0,0-0.159-0.479,0.532-0.106l0.213,1.646
	l0.477,3.563c0,0,0.214,3.083,1.384,2.87c0,0,1.595,0.106,0.425-2.765c0,0,1.488,0.532,1.33-2.977l-0.213-4.094
	c0,0,0.318-3.563-1.33-5.369l-0.053-1.437c0,0,1.383,0.212,3.243-2.18c0,0,3.458-3.723,3.563-4.68l0.851-1.914
	C112.69,40.114,114.816,36.499,113.168,33.522z" class="color c1"/>
</svg>