<svg version="1.1" id="图层_1" x="0px" y="0px" width="164.476px" height="164.475px" viewBox="0 0 164.476 164.475" enable-background="new 0 0 164.476 164.475" xml:space="preserve" xmlns="http://www.w3.org/2000/svg" xmlns:xlink="http://www.w3.org/1999/xlink" xmlns:xml="http://www.w3.org/XML/1998/namespace">
  <path fill="#FF390B" d="M78.948,30.367V0.083C80.041,0.04,81.135,0,82.238,0s2.197,0.04,3.29,0.083v30.284H78.948z M78.948,134.108
	v30.284c1.093,0.043,2.186,0.083,3.29,0.083s2.197-0.04,3.29-0.083v-30.284H78.948z M30.367,78.948H0.083
	C0.04,80.041,0,81.134,0,82.238c0,1.103,0.04,2.197,0.083,3.29h30.284V78.948z M134.108,85.527h30.284
	c0.043-1.093,0.083-2.186,0.083-3.289c0-1.103-0.04-2.197-0.083-3.29l-30.284,0V85.527z" class="color c1"/>
</svg>