<svg version="1.1" id="图层_1" x="0px" y="0px" width="117.736px" height="113.471px" viewBox="0 0 117.736 113.471" enable-background="new 0 0 117.736 113.471" xml:space="preserve" xmlns="http://www.w3.org/2000/svg" xmlns:xlink="http://www.w3.org/1999/xlink" xmlns:xml="http://www.w3.org/XML/1998/namespace">
  <path fill="#001F7A" d="M117.489,76.187c-0.982-6.785-4.748-12.479-9.971-16.098c-4.756-3.294-10.718-4.868-16.894-3.975
	c-3.334,0.482-6.403,1.643-9.095,3.311c-0.033-0.362-0.108-0.646-0.207-0.857c-0.229-0.492-0.572-0.635-0.743-0.675
	c-0.066-0.017-0.107-0.017-0.107-0.017c0.706-1.729-2.085-5.153-2.449-6.344c-0.264-0.869-0.835-1.387-1.125-1.604
	c-0.106-0.08-0.177-0.122-0.177-0.122l-1.68-3.01c-0.213-0.383,0.188-0.774,0.399-0.943c0.07-0.057,0.12-0.089,0.12-0.089
	c0.661,1.914,2.485,3.275,3.892,3.455s5.302-0.766,6.718-0.971c1.146-0.165,2.211-0.759,3.318-2.153
	c0.009,0.037,0.02,0.073,0.036,0.106c0.316,0.646,0.89-0.015,0.931-1.061c0.024-0.555,0.694-1.451,1.308-2.367
	c2.292,0.849,1.951,2.309,1.128,3.675c-0.846,1.403-2.202,2.676-1.905,3.398c0.294,0.724,0.964,0.053,1.087-1.08
	c0.123-1.133,2.855-3.414,2.839-4.848c-0.013-1.181-1.793-2.081-2.424-2.361c0.178-0.372,0.287-0.72,0.272-1.019
	c0.024-0.047,0.048-0.093,0.072-0.137c0.452-0.12,0.899-0.383,0.502-0.957c0.023-0.042,0.043-0.084,0.066-0.126
	c0.362-0.075,1.28-0.356,0.681-1.208c0,0,1.368,0.103,0.476-1.021l0,0c0,0,0.988-0.141,0.483-0.935
	c0.09-0.174,0.163-0.317,0.219-0.42c0.512-0.971-0.145-1.839-0.905-1.818c0.701-0.303,1.229-1.299,0.114-1.704
	c-0.773-0.282-1.272,0.188-1.826,0.529c0.222-0.818-0.383-1.454-1.022-1.391c0.623-0.323,1.045-1.272-0.002-1.573
	c-1.244-0.356-1.609,1.24-2.893,0.89c-1.28-0.348-2.441,0.262-3.45,1.279c-1.009,1.02-6.341,1.279-9.874,1.771
	c-1.829,0.253-3.097,0.669-4.189-0.216c-0.644-1.272-1.201-3.334-1.767-6.644c-0.088-0.518-0.192-2.869-0.556-5.323
	c0.798-0.062,1.555-0.263,2.16-0.478c0.813-0.289,1.354-0.597,1.354-0.597s3.184,2.827,6.734,2.394
	c2.538-0.311,2.64-4.977,2.64-4.977s2.023,0.132,2.116-0.168c0.086-0.281-0.428-1.085-1.049-1.81
	c-0.048-0.054-0.095-0.11-0.145-0.164c-0.193-0.219-0.234-0.545-0.196-0.901c0.491-0.693,0.513-1.598,0.513-1.606l0,0
	c0.33,0.094,0.615,0.176,0.844,0.243c0.314,0.091,0.527,0.153,0.622,0.189c3.2,1.163,1.618-6.837-1.639-10.003
	C79.587,0.495,67.323-0.603,66.978,0.31c-0.08,0.208-0.055,0.408,0.026,0.597c0.127,0.287,0.391,0.542,0.645,0.738
	c0.314,0.243,0.616,0.393,0.616,0.393c-0.101,0.332-0.307,0.555-0.545,0.753c-0.53,0.436-1.219,0.73-1.247,1.724
	c-0.001,0.05-0.001,0.098-0.001,0.151c0.055,1.595-0.918,1.689,0.452,3.116c0.328,0.344,0.829,0.639,1.451,0.911
	c-0.006,0-0.012-0.002-0.012-0.002s-2.54-1.133-2.562,0.03c-0.016,0.761,0.896,1.699,1.529,2.259
	c-0.408-0.277-0.94-0.513-1.297-0.199c-0.354,0.311-0.02,0.83,0.359,1.241c-0.34-0.198-0.76-0.267-1.143,0.17
	c-0.386,0.443-0.341,0.735,0.069,1.107c-0.139-0.055-0.281-0.107-0.433-0.152c-4.077-1.228-14.604,0.963-24.394,7.932
	c-8.505,6.05-13.635,13.268-10.599,17.804c-0.005,0-0.01-0.002-0.017-0.002c-2.424-0.222-5.41-0.365-4.55,1.615
	c0.023,0.055,0.05,0.108,0.078,0.158c0.987,1.829,4.592,1.978,6.691,2.977c1.135,0.542,1.766,1.63,2.11,2.542
	c0.312,0.822,0.388,1.5,0.388,1.5l1.593,4.727l3.94,11.695l-3.878,5.535c-4.585-2.86-10.164-4.177-15.932-3.343
	C7.358,68.162-1.629,80.188,0.248,93.151c1.079,7.463,5.526,13.61,11.579,17.122c4.457,2.588,9.787,3.747,15.285,2.951
	c9.704-1.404,17.18-8.5,19.537-17.417l2.636-0.259c1.489,0.617,3.206,1.325,4.204,2.308c0.258,0.255,0.611,0.446,1.024,0.585
	c0.016,0.035,0.032,0.07,0.048,0.104c-2.126,0.189-3.934,0.269-3.977,1.266c-0.062,1.41,3.555,0.893,5.103,0.613
	c0.005-0.001,0.05-0.005,0.126-0.016c0.731,0.351,1.396,0.167,1.761-0.281c2.363-0.419,6.077-1.257,5.818-2.373
	c-0.039-0.164-0.613-0.226-1.495-0.191c0.673-0.337,1.148-0.719,1.288-1.109c0.041-0.116,0.05-0.224,0.034-0.32
	c-0.165,0.063-0.332,0.127-0.498,0.195c0.166-0.067,0.333-0.132,0.498-0.195c-0.169-1.108-3.779-1.097-6.176-2.976
	c0.045-0.045,0.09-0.094,0.133-0.141c0.088-0.092,0.176-0.186,0.258-0.282c0.067-0.078,0.132-0.155,0.195-0.236
	c0.078-0.098,0.154-0.195,0.226-0.295c0.063-0.088,0.12-0.176,0.179-0.265c0.066-0.101,0.131-0.203,0.192-0.307
	c0.056-0.097,0.107-0.194,0.159-0.292c0.054-0.102,0.108-0.206,0.159-0.312c0.049-0.105,0.092-0.212,0.135-0.318
	s0.087-0.209,0.126-0.318c0.041-0.113,0.072-0.227,0.109-0.346c0.031-0.104,0.064-0.209,0.093-0.317
	c0.029-0.124,0.053-0.247,0.077-0.373c0.021-0.104,0.044-0.206,0.06-0.312c0.022-0.134,0.031-0.27,0.044-0.406
	c0.011-0.099,0.023-0.197,0.03-0.296c0.007-0.156,0.004-0.311,0.002-0.467c-0.001-0.085,0.005-0.167,0.001-0.251
	c-0.011-0.242-0.032-0.484-0.068-0.729c-0.191-1.32-0.727-2.501-1.495-3.478c6.877-8.778,19.37-24.659,19.775-24.716
	c0.28-0.042,0.471,0.286,0.592,0.626c0.123,0.342,0.175,0.697,0.175,0.697c-0.021,0.398,0.16,0.926,0.443,1.513
	c-5.984,5.107-9.302,13.08-8.092,21.443c1.079,7.463,5.527,13.611,11.58,17.123c4.459,2.586,9.787,3.746,15.284,2.95
	C110.378,101.176,119.364,89.151,117.489,76.187z M78.651,43.719c-0.021-0.299-0.053-0.592-0.117-0.861
	c-0.003-0.005-0.003-0.008-0.005-0.01c-0.066-0.277-0.285-0.473-0.604-0.605c-0.083-0.55-0.118-1.151-0.274-1.654
	c0.408-0.068,0.798-0.147,1.147-0.24c2.579-0.688,6.653-2.95,8.254-1.819c0.116,0.083,0.229,0.169,0.339,0.26l-0.444,0.926l0,0
	c-0.563,1.17-1.004,2.062-1.177,2.297c-0.621,0.849-4.422,1.846-6.287,1.89C79.131,43.911,78.86,43.842,78.651,43.719z
	 M80.278,46.613c-0.397-0.017-0.689-0.119-0.909-0.279c1.539-0.135,4.479-1.052,5.633-1.301c1.288-0.277,2.42-1.145,3.567-3.266
	c0.201-0.371,0.441-0.849,0.699-1.391c0.168,0.109,0.342,0.203,0.525,0.276l-1.084,1.912c-0.714,1.26-1.275,2.222-1.484,2.468
	C86.492,45.905,82.301,46.703,80.278,46.613z M93.347,34.7c-0.286-0.047-0.634-0.069-1.067-0.063c0,0,0.833-0.623,1.677-0.625
	C93.831,34.07,93.617,34.321,93.347,34.7z M91.261,31.463c-0.113,0.063-0.292,0.305-0.518,0.669
	c-0.267-0.024-0.588-0.023-0.984,0.009C89.759,32.142,90.485,31.518,91.261,31.463z M57.454,97.884c0,0-0.001-0.003,0-0.004
	c0.054,0,0.109,0,0.165-0.003C57.563,97.88,57.509,97.884,57.454,97.884z M43.651,63.299l1.654-0.417
	c-0.059,0.083-0.119,0.178-0.177,0.255c-0.218,0.301-0.429,0.558-0.625,0.759c-0.145,0.147-0.305,0.301-0.464,0.457
	c-0.164-0.442-0.282-0.764-0.343-0.929C43.668,63.343,43.651,63.299,43.651,63.299z M26.188,106.836
	c-3.956,0.573-7.792-0.245-11.017-2.086c-4.46-2.545-7.743-7.046-8.535-12.523c-1.365-9.435,5.175-18.187,14.609-19.552
	c4.071-0.589,8.017,0.298,11.295,2.252l-7.633,10.889l-1.463,0.291l-0.003,0.003c-0.083,0.004-0.167,0.011-0.249,0.022
	c-1.795,0.26-3.039,1.925-2.779,3.719c0.016,0.117,0.041,0.233,0.068,0.344c0.004,0.017,0.012,0.033,0.016,0.049
	c0.026,0.099,0.056,0.193,0.09,0.285c0.003,0.009,0.007,0.017,0.01,0.022c0.05,0.132,0.108,0.257,0.174,0.377
	c-0.315,0.322-0.623,0.667-0.874,1.011c-0.321,0.436-0.553,0.87-0.59,1.242c-0.121,1.233,3.608,0.643,5.77,1.897
	c0.741,0.69,1.423,1.321,1.895,1.747c0.159,0.214,0.36,0.39,0.593,0.517c0.021,0.017,0.037,0.026,0.047,0.031
	c0.007,0.004,0.015,0.006,0.021,0.011c0.025,0.013,0.052,0.021,0.079,0.031c0.074,0.035,0.15,0.064,0.229,0.086
	c0.035,0.012,0.071,0.019,0.108,0.028c0.076,0.017,0.152,0.029,0.231,0.035c0.035,0.005,0.069,0.009,0.106,0.01
	c0.112,0.004,0.227,0.002,0.343-0.013l10.878-1.065C37.325,101.86,32.38,105.939,26.188,106.836z M27.001,85.403
	c1.97-2.475,5.309-6.565,7.34-9.249c2.249,1.758,4.066,4.069,5.228,6.767L27.001,85.403z M54.169,80.984
	c-0.228-0.075-0.459-0.139-0.695-0.189c-0.029-0.995-0.051-2.079-0.054-3.165c1.621,0.569,3.006,0.673,3.645-0.101
	c-1.081,1.314-1.887,2.287-2.254,2.72C54.577,80.525,54.366,80.763,54.169,80.984z M55.743,77.341c0.041-0.001,0.08,0,0.122-0.002
	C55.823,77.341,55.784,77.34,55.743,77.341z M53.68,77.095c0.057,0.018,0.115,0.031,0.171,0.044
	C53.795,77.126,53.736,77.113,53.68,77.095z M54.287,77.237c0.062,0.011,0.123,0.024,0.185,0.034
	C54.41,77.262,54.349,77.248,54.287,77.237z M55.043,77.332c0.062,0.004,0.122,0.005,0.183,0.007
	C55.164,77.337,55.104,77.335,55.043,77.332z M52.296,51.225c-0.396-1.348-0.762-2.667-1.045-3.83
	c-0.149-0.612-0.275-1.18-0.373-1.684c0.2-0.001,0.393,0.001,0.594,0c2.044-0.025,4.239-0.152,6.612-0.385
	C58.084,45.326,54.703,48.174,52.296,51.225z M40.044,54.097l-2.998-7.355c0,0-0.195-0.409-0.354-0.958
	c0.875,1.659,1.827,3.414,2.676,4.865c0.711,1.217,1.348,2.218,1.802,2.77c1.302,1.579,3.396,4.109,4.681,6.997
	c-0.271,0.073-0.469,0.128-0.583,0.162c-1.929,0.565-2.733-0.372-2.733-0.372L40.044,54.097z M41.314,66.986
	c0.011,0.002,0.028,0.02,0.042,0.029c-0.869,0.951-1.513,1.861-1.461,2.533c0.015,0.179,0.075,0.343,0.195,0.485
	c0.477,0.563,1.131,0.711,1.957,0.925c-0.733,0.778,0.854,2.099,2.255,3.042c0.493,1.359,0.991,2.773,1.45,4.112
	c0.113,0.513,0.264,1.032,0.465,1.559c0.213,0.565,0.428,1.182,0.636,1.811l-0.853,0.168c-1.59-4.392-4.419-8.116-8.013-10.826
	C39.418,68.729,40.811,66.876,41.314,66.986z M61.54,96.803c0.055-0.022,0.11-0.043,0.165-0.065
	C61.65,96.759,61.595,96.78,61.54,96.803z M57.832,97.857c0.1-0.009,0.197-0.018,0.296-0.03
	C58.029,97.84,57.932,97.849,57.832,97.857z M58.343,97.794c0.1-0.017,0.197-0.031,0.297-0.052
	C58.54,97.763,58.442,97.777,58.343,97.794z M58.857,97.693c0.099-0.022,0.195-0.044,0.294-0.068
	C59.053,97.649,58.956,97.671,58.857,97.693z M59.375,97.563c0.096-0.026,0.191-0.054,0.289-0.082
	C59.566,97.51,59.471,97.537,59.375,97.563z M59.896,97.407c0.093-0.029,0.186-0.059,0.279-0.09
	C60.082,97.348,59.989,97.378,59.896,97.407z M60.423,97.229c0.089-0.033,0.177-0.063,0.265-0.096
	C60.6,97.166,60.512,97.196,60.423,97.229z M60.962,97.028c0.079-0.027,0.156-0.059,0.234-0.088
	C61.118,96.97,61.041,97.001,60.962,97.028z M73.761,57.124c0,0-11.514,14.11-16.694,20.403c0.105-0.128,0.183-0.257,0.236-0.383
	c0.632-1.48-2.047-2.863-3.687-4.481c0.075-0.728,0.178-1.353,0.314-1.813c0.854-2.895,1.946-7.139,1.182-10.439l17.989-4.53
	C74.728,55.472,73.761,57.124,73.761,57.124z M56.495,77.283c0.053-0.008,0.104-0.014,0.156-0.023
	C56.598,77.269,56.548,77.275,56.495,77.283z M74.597,51.645c-0.241,0.991-1.378,1.73-1.378,1.73s-8.544,2.182-16.203,4.148
	c1.987-2.126,3.987-4.141,5.06-5.12c2.365-2.16,7.41-8.325,5.572-11.419c-1.167-1.966-6.209-4.102-10.233-5.522
	c-0.989-0.347-1.916-0.652-2.712-0.901c-1.059-0.332-1.877-0.562-2.29-0.663c0,0,0.001-0.013,0.003-0.03
	c0.047-0.229,0.438-1.734,3.073-1.85c1.679-0.075,4.729-0.746,7.382-2.105c0.764,1.411,1.476,2.657,1.971,3.572
	c0.186,0.399,0.352,0.762,0.493,1.08c1.416,3.193,3.925,7.527,5.15,6.963c0.054-0.026,0.113-0.048,0.178-0.07
	c0.297-0.101,0.716-0.179,1.209-0.246c-0.087,0.061-0.17,0.122-0.243,0.186c-1.045,0.915-0.882,1.731-0.407,2.719
	c-0.519,0.926-0.012,1.897,0.54,3.151c0.714,1.621,1.476,0.936,1.476,0.936s1.284,1.967,1.378,3.089
	C74.625,51.424,74.62,51.542,74.597,51.645z M96.492,96.664c-3.956,0.572-7.794-0.246-11.016-2.085
	c-4.46-2.546-7.744-7.048-8.538-12.523c-0.826-5.718,1.253-11.182,5.116-14.906c1.771,2.526,6.146,7.932,7.264,9.541
	c0.708,1.019,1.536,1.936,2.31,2.435c-0.009,0.128-0.006,0.255,0.014,0.386c0.142,0.982,1.055,1.664,2.038,1.524
	c0.983-0.143,1.666-1.055,1.523-2.04c-0.124-0.846-0.816-1.468-1.634-1.534c-0.023-0.05-0.046-0.097-0.069-0.145
	c-0.214-0.448-0.471-0.781-0.471-0.781s-5.159-6.431-8.562-11.33c2.065-1.376,4.462-2.325,7.082-2.706
	c4.544-0.657,8.931,0.521,12.41,2.974c3.742,2.636,6.435,6.748,7.141,11.637C112.467,86.546,105.925,95.299,96.492,96.664z" class="color c1"/>
</svg>