<svg version="1.1" id="图层_1" x="0px" y="0px" width="42px" height="239.5px" viewBox="0 0 42 239.5" enable-background="new 0 0 42 239.5" xml:space="preserve" xmlns="http://www.w3.org/2000/svg" xmlns:xlink="http://www.w3.org/1999/xlink" xmlns:xml="http://www.w3.org/XML/1998/namespace">
  <path fill="#31B96D" d="M35,179h-5.5v55.5c0,2.757-2.243,5-5,5h-7c-2.757,0-5-2.243-5-5V179H7c-3.859,0-7-3.14-7-7V7
	c0-3.86,3.141-7,7-7h28c3.859,0,7,3.14,7,7v165C42,175.86,38.859,179,35,179z" class="color c1"/>
  <path fill="#FFFFFF" d="M35,176h-8.57c0.041,0.16,0.07,0.326,0.07,0.5v58c0,1.104-0.895,2-2,2H21V13h0.709
	c0,0,2.365,54.46,4.492,84.606C30.283,155.439,39,172,39,172C39,174.209,37.209,176,35,176z" class="color c2"/>
</svg>