<svg version="1.1" id="图层_1" x="0px" y="0px" width="174.328px" height="170.41px" viewBox="0 0 174.328 170.41" enable-background="new 0 0 174.328 170.41" xml:space="preserve" xmlns="http://www.w3.org/2000/svg" xmlns:xlink="http://www.w3.org/1999/xlink" xmlns:xml="http://www.w3.org/XML/1998/namespace">
  <path fill="#0C906F" d="M173.702,111.327l-38.418-35.574c-0.8-0.741-2.062-0.678-2.818,0.14l-1.883,2.035
	c-0.062-0.069-0.121-0.14-0.188-0.205l-7.229-6.693l0.959-1.886c0.414-1.095,0.439-2.12,0.063-3.057
	c-0.783-1.934-2.936-2.585-3.137-2.64c-1.324-0.422-2.787-0.413-4.121-0.23l-1.359-0.859c-0.014-0.076,0.017-0.151-0.01-0.225
	l-1.574-4.557c-0.106-0.301-0.332-0.548-0.627-0.677l-9.569-4.222L85.117,36.272l-13.066-10.25c0.271-0.475,0.51-0.977,0.724-1.502
	c0.079,0.002,0.152,0.016,0.227,0.016c1.974,0,3.583-0.559,4.793-1.664c0.656-0.602,1.182-1.078-2.739-6.725l0.163-4.475
	C75.218,5.238,69.114,0,61.615,0c-3.161,0-6.228,0.991-8.635,2.792c-1.23,0.917-2.229,2.133-3.054,3.718
	c-0.922,1.771-1.474,3.701-2.012,5.567l-0.366,1.262c-0.102,0.332-0.115,0.711-0.089,1.098c-0.221-0.063-0.462-0.083-0.693,0.004
	c-0.902,0.32-22.035,8.36-15.361,51.896l0.992,3.471c-1.058,1.654-4.215,7.307-3.069,14.321c0.937,5.71,4.473,10.83,10.518,15.219
	l4.966,24.139L7.768,146.355c-0.044,0.015-0.087,0.026-0.133,0.043c-0.156-0.047-0.323-0.069-0.5-0.045l-3.168,0.438
	c-0.521,0.071-0.932,0.492-0.99,1.017l-0.597,5.43L0.024,164.93c-0.112,0.557,0.191,1.105,0.717,1.31L8,169.032
	c0.133,0.051,0.274,0.077,0.413,0.077c0.234,0,0.464-0.069,0.662-0.209c0.313-0.221,0.5-0.58,0.494-0.961l-0.063-5.377
	c0-0.004,0.004-0.008,0.006-0.01c0.007-0.014,0.007-0.031,0.019-0.043l4.25-7.77c0.031-0.041,0.08-0.061,0.099-0.109
	c0.025-0.046,0.025-0.098,0.041-0.145l0.117-0.217c0.11-0.197,0.133-0.41,0.121-0.617l46.36-16.424
	c0.387-0.138,0.672-0.47,0.748-0.875l4.025-21.224l35.342,46.781c-0.12,0.284-0.12,0.592-0.012,0.86
	c-0.049,0.158-0.074,0.326-0.049,0.502l0.438,3.17c0.076,0.523,0.49,0.929,1.021,0.986l5.428,0.6l11.69,2.354
	c0.078,0.016,0.154,0.024,0.234,0.024c0.467,0,0.898-0.288,1.07-0.741l2.795-7.256c0.135-0.359,0.088-0.764-0.131-1.075
	c-0.215-0.31-0.568-0.495-0.945-0.495c-0.004,0-0.012,0-0.018,0l-5.371,0.068c-0.004,0-0.01-0.008-0.01-0.008
	c-0.021-0.01-0.033-0.01-0.047-0.02l-7.705-4.217c-0.056-0.042-0.103-0.098-0.168-0.132c-0.047-0.025-0.101-0.025-0.146-0.041
	l-0.215-0.119c-0.207-0.114-0.432-0.138-0.65-0.115L70.913,85.503c0.033-0.188,0.024-0.384-0.036-0.559
	c-0.275-0.843-2.598-7.744-5.866-10.762l2.663-4.061l2.091,0.465c1.175,0.98,6.3,4.737,16.411,5.184
	c2.78,0.119,30.583-0.926,31.665-0.973c0.517,0.025,1.148-0.01,1.78-0.131l7.327,6.784c0.067,0.064,0.143,0.116,0.217,0.17
	l-1.888,2.035c-0.756,0.818-0.721,2.083,0.08,2.821l38.418,35.573c0.802,0.742,2.063,0.679,2.82-0.139l7.188-7.763
	C174.538,113.329,174.504,112.064,173.702,111.327z M96.682,65.745l-13.021-3.636L75.29,52.083c-0.045-0.18-0.116-0.353-0.25-0.5
	l-0.196-0.214l-0.164-4.283l24.878,12.766l5.617,6.215L96.682,65.745z M164.885,114.848L141.35,93.057l1.726-1.863l23.534,21.791
	L164.885,114.848z" class="color c1"/>
</svg>