<svg version="1.1" id="图层_1" x="0px" y="0px" width="333.594px" height="335.676px" viewBox="0 0 333.594 335.676" enable-background="new 0 0 333.594 335.676" xml:space="preserve" xmlns:xml="http://www.w3.org/XML/1998/namespace" xmlns="http://www.w3.org/2000/svg" xmlns:xlink="http://www.w3.org/1999/xlink">
  <path fill="#FFFFFF" d="M310.418,119.792l23.176,21.094c-3.385,3.906-35.938,36.197-114.061,4.427
	c-5.99-2.344-11.98-4.166-17.711-5.469c4.166,10.938,6.25,22.396,6.25,34.114c0,6.511-0.779,13.021-2.084,19.53
	c57.033,16.406,97.396,63.281,97.396,116.928c0,8.594-1.041,16.928-2.863,25.26l-30.469-7.291c1.301-5.99,2.082-11.979,2.082-17.969
	c0-40.365-32.291-75.781-77.344-87.5C175,257.031,135.417,280.469,89.583,280.469c-34.375,0-67.188-13.543-89.583-36.98
	l22.656-21.612c16.667,17.446,41.146,27.344,66.927,27.344c47.917,0,86.978-33.854,86.978-75.521c0-12.76-3.645-25-10.676-36.197
	c-48.698,5.469-82.031,42.707-83.854,44.791l-23.438-20.572c3.125-3.386,75.521-84.896,172.658-45.572
	c57.551,23.438,79.426,3.385,79.686,3.125C310.418,119.531,310.418,119.792,310.418,119.792z M171.355,51.042
	C171.355,22.917,194.271,0,222.396,0s51.041,22.917,51.041,51.042s-22.916,51.042-51.041,51.042
	C194.271,102.083,171.355,79.167,171.355,51.042z M202.605,51.042c0,10.938,8.854,19.792,19.791,19.792s19.791-8.854,19.791-19.792
	s-8.854-19.792-19.791-19.792S202.605,40.104,202.605,51.042z" class="color c1"/>
</svg>