<svg version="1.1" id="图层_1" x="0px" y="0px" width="202.484px" height="188.646px" viewBox="0 0 202.484 188.646" enable-background="new 0 0 202.484 188.646" xml:space="preserve" xmlns:xml="http://www.w3.org/XML/1998/namespace" xmlns="http://www.w3.org/2000/svg" xmlns:xlink="http://www.w3.org/1999/xlink">
  <path fill="#FFDECA" d="M28.65,150.973c0.489,4.398-1.989,13.615-1.712,22.5c0.248,7.793,2.829,8.211,2.934,10.76
	c0.135,3.184-1.468,5.141-9.295,4.158c-7.826-0.977-19.319,0.99-20.299-0.486c-0.58-0.879-0.356-2.984,1.667-4.172
	c1.402-0.824,2.888-0.189,6.381-0.893c8.556-1.703,11.322-3.5,11.568-6.678c0.239-3.182-7.631-33.75-7.631-33.75L28.65,150.973z" class="color c1"/>
  <path fill="#FFDECA" d="M154.198,139.064c4.965,4.877,21.225,24.709,26.492,28.854c4.916,3.871,9.808,7.055,16.348,8.324
	c6.533,1.273,5.794,1.973,4.787,3.396c-1.006,1.424-4.346,2.497-13.446,0.622c-9.102-1.88-12.547,1.491-15.07-0.019
	c-2.521-1.508-1.038-8.297-2.354-10.557c-1.31-2.266-22.8-16.693-26.124-21.254L154.198,139.064z" class="color c1"/>
  <path fill="#F4F8FB" d="M96.271,99.662c0,0,12.789,10.455,20.232,15.498c8.316,5.623,19.268,10.379,28.068,15.76
	c8.805,5.373,13.448,9.291,13.448,9.291s-4.889,16.881-18.097,23.973c0,0-12.112-5.385-16.695-10.029
	c-4.58-4.65-22.679-12.719-26.104-14.674c-3.426-1.957-16.289-3.811-26.361-3.129c-10.075,0.682-13.018,2.137-19.863,4.83
	c-6.846,2.688-16.382,7.836-17.36,8.813c-0.979,0.98-2.936,8.314-2.936,8.314s-11.983-1.705-21.521-9.537c0,0,0-17.119,3.667-20.789
	c3.669-3.662,27.175-12.82,38.15-25.219L96.271,99.662z" class="color c2"/>
  <path fill="#C7D3DD" d="M32.895,146.863c-2.726,2.826-3.974,7.602-4.537,7.375c-0.567-0.225-13.612-3.631-19.238-7.375
	c-0.03,1.164-0.035,1.906-0.035,1.906c9.538,7.832,21.521,9.537,21.521,9.537s1.955-7.334,2.936-8.314
	c0.979-0.977,10.517-6.125,17.36-8.813c6.848-2.693,9.788-4.148,19.863-4.83C54.979,135.76,35.617,144.031,32.895,146.863z" class="color c3"/>
  <path fill="#C7D3DD" d="M37.153,32.369c-0.134-2.811,8.622-15.912,17.174-18.285l-0.372,7.104c0,0-8.002,10.635-8.216,10.758
	c-0.221,0.127-6.881,3-6.881,3L37.153,32.369z" class="color c3"/>
  <path fill="#C7D3DD" d="M96.271,99.662h-0.005l-45.364,3.102c-1.573,1.781-3.433,3.492-5.438,5.137c0.008,0,0.014,0,0.021,0
	c37.646,0.455,49.78-3.441,53.085-6.377C97.15,100.381,96.271,99.662,96.271,99.662z" class="color c3"/>
  <path fill="#FFDECA" d="M54.491,14.084c0,0,8.598-0.268,21.768-5.254c13.171-4.979,12.476,0.537,24.949-1.662
	c12.468-2.199,10.76-3.91,0-6.354c-10.763-2.449-7.975,1.494-16.547,0.701C76.09,0.719,44.89,3.766,43.056,6.574
	c-1.2,1.83-1.509,13.48,2.563,28.369l10.613-14.18L54.491,14.084z" class="color c1"/>
  <path fill="#0C0C0C" d="M96.285,96.055c0,0-37.796-2.608-41.712-0.19c-3.913,2.427-3.673,6.896-3.673,6.896
	c1.258,0.958,8.836,1.214,16.411,1.43c-2.159,3.216-4.382,42.345-5.071,45.473c-0.691,3.18,6.466,7.336,6.466,7.336
	s-0.579-43.631,2.151-52.708c1.227,0.037,2.427,0.074,3.571,0.117c4.441,11.534,5.186,56.062,5.919,55.873
	c0.752-0.193,6.088-10.037,6.153-11.01c0.065-0.944-5.066-38.332-8.27-44.791c8.694-0.09,18.755-1.854,19.411-3.022
	C98.374,100.157,96.285,96.055,96.285,96.055z" class="color c4"/>
  <path fill="#FFDECA" d="M129.099,62.881c6.613-0.791,14.254,0.451,21.155,0.223c6.5-0.223,9.792-1.139,14.066-0.873
	c3.496,0.211,1.979,4.793,9.29,3.754c7.318-1.043,12.93-0.859,5.646,2.076c-3.277,1.318-5.158,3.68-8.477,3.553
	c-4.067-0.148-7.246-2.836-8.622-2.707c-2.502,0.232-33.062,4.934-33.062,4.934V62.881H129.099z" class="color c1"/>
  <path fill="#EAEFF5" d="M76.095,43.254c0.979,1.117,9.295,2.066,18.829,2.066c9.535,0,17.098,9.609,24.947,13.455
	c5.379,2.629,16.866,2.131,16.866,3.354c0,1.225,2.94,13.762-10.753,22.566c0,0-16.875-4.646-26.409-13.695
	c0,0-0.135,10.74-3.292,25.436c0,0-1.035,2.203-12.813,2.688c-11.781,0.492-16.673-2.93-22.054-1.711
	c-5.381,1.227-8.561,0.734-8.561,0.734s-2.258-2.777-1.959-6.463c0.979-12.033-3.865-32.652-7.336-41.959
	c-4.641-12.479-6.412-17.355-6.412-17.355s1.265-0.043,2.859-0.703c5.87-2.412,13.482-11.756,14.313-17.582
	c0,0,6.171,15.1,7.642,17.582c1.471,2.488,2.508,5.795,7.28,7.459C76.291,41.578,76.095,43.254,76.095,43.254z" class="color c5"/>
  <path fill="#FFDECA" d="M82.066,60.844c-2.852-2.361-10.661-17.846-10.661-17.846l4.689,0.256l10.979,1.85l2.213,3.639
	l-5.163,12.104L82.066,60.844L82.066,60.844z" class="color c1"/>
  <path fill="#C7D3DD" d="M85.788,43.254c4.361,1.221,5.008,1.707,5.008,1.707s-0.551,12.348-4.882,18.045l-3.848-2.162
	c0,0,6.345-9.09,5.034-13.338L85.788,43.254z" class="color c3"/>
  <path fill="#C7D3DD" d="M99.442,81.74c0-0.01-0.007-0.012-0.007-0.014c-0.935-2.984-5.936-12.678-13.521-18.723
	C78.31,56.96,72.222,43.058,72.222,43.058l2.396-1.479l0.066-0.039l-1.693-2.568c0,0-1.118,0-1.777,0
	c-0.165,0-1.046,0.143-1.554,0.42c-1.268,0.705-4.636,1.867-5.186,2.238c-0.098,0.061,11.795,18.771,19.081,24.736
	c7.688,6.297,14.468,16.111,14.508,20.646c0,0.006,0.003,0.018,0.003,0.023C98.066,87.041,100.36,84.713,99.442,81.74z" class="color c3"/>
  <path fill="#FFDECA" d="M71.708,31.666c0.914,3.115,1.373,9.607,0.516,11.395c-0.306,0.627,4.372,4.43,8.904,5.324
	c3.088,0.611,5.818,0.52,5.975-0.879c0.146-1.322-2.438-5.389-1.262-6.664c1.179-1.273-12.323-9.115-12.323-9.115L71.708,31.666z" class="color c1"/>
  <path fill="#E5B6A2" d="M85.788,43.254c-0.293-1.004-0.404-1.92,0.053-2.412c1.179-1.273-12.323-9.115-12.323-9.115l-1.81-0.061
	c0.325,1.111,0.584,2.662,0.756,4.27h0.001c0,0.006,0,0.01,0,0.018c0.063,0.578,0.111,1.162,0.142,1.742
	C73.48,40.135,77.407,42.859,85.788,43.254z" class="color c6"/>
  <path fill="#FFDECA" d="M75.034,27.198c-1.114-1.5-3.326-1.252-4.625-0.167c-1.298,1.096-1.459,4.048-0.708,5.708
	c1.563,3.465,4.676,3.791,5.875,3.539c0,0,0.271,2.115,2.618,3.664c2.35,1.547,8.677,4.535,10.531,4.607
	c1.851,0.07,2.983-1.512,3.021-2.85c0.036-1.332,0.799-0.967,1.406-1.842c0.604-0.871-0.159-1.229-0.159-1.229
	s1.29-0.299,1.086-0.791c-0.202-0.482-0.687-1.875-0.26-2.117c0.429-0.238,2.158-0.604,1.841-1.617
	c-0.314-1.016-1.904-3.574-1.743-4.908c0.155-1.326,1.652-2.457,1.925-3.117c0.264-0.668,0.201-4.455-0.3-6.221
	c0,0-2.866-5.396-10.544-1.684C77.32,21.895,75.034,27.198,75.034,27.198z" class="color c1"/>
  <path fill="#0C0C0C" d="M97.55,20.14c0,0-1.423-3.323-3.544-5.084c-0.606-0.66-1.243-1.339-1.796-1.995
	c-1.56-1.852-5.591-3.395-8.652-4.59C80.493,7.27,73.394,8.098,71.32,12.338c0,0-4.885,0.953-5.761,7.018
	c-0.888,6.07,1.979,13.193,4.369,15.664c2.382,2.461,4.524,2.021,4.524,2.021s0.191-0.271,0.513-0.728
	c-1.231-0.084-2.981-1.087-4.309-4.026c-0.751-1.66-0.713-3.187,0.585-4.281c1.299-1.086,3.179,0.012,4.293,1.512
	c0,0,0.216-0.896,0.793-2.209c0.079,2.421,0.469,4.339,0.469,4.339c0.596-2.941,7.477-6.398,13.079-8.107
	c3.645-1.113,3.942-3.939,3.942-3.939c0.684,0.854,1.425,1.451,2.035,2.038c0.077,0.705,0.122,1.461,0.135,2.149
	c0.191-0.118,0.702-0.482,0.837-0.92c0.123,0.237,0.226,0.486,0.278,0.771L97.55,20.14z" class="color c4"/>
  <path fill="#C7D3DD" d="M59.664,91.17c0,4.451-2.226,6.242-4.643,5.783c-2.021-0.387-3.658-4.047-4.004-8.209
	c-0.01,1.018-0.042,2.012-0.116,2.939c-0.299,3.686,1.959,6.463,1.959,6.463s2.697,0.668,8.143-0.238
	c4.063-0.676,7.207-0.139,12.279,0.643c-3.52-0.488-7.267-1.422-10.246-1.877C60.009,96.211,59.664,91.17,59.664,91.17z" class="color c3"/>
  <path fill="#C7D3DD" d="M79.052,99.119c1.141,0.047,2.38,0.047,3.688,0.01c1.352-2.063-0.673-7.816-0.673-7.816
	C82.492,97.719,81.364,98.898,79.052,99.119z" class="color c3"/>
  <path fill="#C7D3DD" d="M139.927,164.182c13.208-7.092,18.097-23.973,18.097-23.973c-6.413,10.627-18.772,18.098-18.772,18.098
	c-10.762-7.471-35.46-17.473-42.121-18.828c3.427,1.955,21.521,10.021,26.104,14.674
	C127.813,158.799,139.927,164.182,139.927,164.182z" class="color c3"/>
  <path fill="#C7D3DD" d="M136.896,68.02c-0.049,0.072-7.683,12.404-11.34,11.676c-3.676-0.732-14.359-2.461-25.979-8.695
	c9.534,9.051,26.409,13.695,26.409,13.695C134.238,79.389,136.44,72.742,136.896,68.02z" class="color c3"/>
  <path fill="#C7D3DD" d="M119.873,58.775c0,0-2.072,7.301-5.922,9.229c0,0,4.938-1.146,7.952-8.457L119.873,58.775z" class="color c3"/>
  <path fill="#C7D3DD" d="M117.925,57.705c0,0-1.662,3.809-4.965,5.686c0,0,4.412-1.088,6.913-4.613L117.925,57.705z" class="color c3"/>
</svg>