<svg version="1.1" id="图层_1" x="0px" y="0px" width="72.455px" height="91.414px" viewBox="0 0 72.455 91.414" enable-background="new 0 0 72.455 91.414" xml:space="preserve" xmlns="http://www.w3.org/2000/svg" xmlns:xlink="http://www.w3.org/1999/xlink" xmlns:xml="http://www.w3.org/XML/1998/namespace">
  <path fill="#0A1932" d="M72.365,6.023c-1.098-5.867-7.33-5.867-7.33-5.867c-36.105-2.015-52.481,16.13-52.481,16.13
	s-6.719,5.743-9.775,11.609c-3.055,5.864-3.664,22.726-1.465,27.735c2.176,4.955,8.408,6.539,15.404,8.714
	c-4.387,17.032-0.551,25.132-0.551,25.132c6.458,1.521,24.54,1.165,26.961,1.119c2.559,0.922,6.563,0.934,8.805,0.668
	c2.252-0.267,2.254-3.303,1.422-4.119c-1.063-1.04-1.988-0.77-3.264-0.709c-1.275,0.059-1.68,0.016-1.68,0.016
	c2.354-0.93,1.551-1.341,1.166-1.467c-0.387-0.125-1.1,0.008-3.254,0.255c-2.518,0.286-3.23,0.56-3.23,0.56v0.039
	c-5.367,0.422-19.451-2.266-19.451-2.266c-0.301-2.281,2.238-15.729,4.908-20.801c0.107-0.203,0.205-0.404,0.295-0.6
	c0.109,0.934,0.33,1.758,0.768,2.134c1.02,0.868,3.012-0.345,3.674,0.035c0.66,0.38,0.879-0.464,1.17-0.317
	c0.291,0.144,0.502,0.197,1.023,0.055c0.52-0.139,0.582-0.521,0.965,0.268c0.385,0.792,0.764,1.505,1.27,1.294
	c0.506-0.21,2.527-3.472,3.209-3.433c0.598,0.034,3.832-0.479,6.24-2.337c-0.576-0.335-1.098-0.788-1.57-1.298
	c0.461,0.494,0.973,0.93,1.533,1.254c0,0,2.152,1.142,3.313-1.996c1.158-3.137,1.064-8.313-1.789-11.505s-5.564-4.327-7.674-4.062
	c0,0-1.279-4.599-5.24-3.242c-3.963,1.357-6.813,4.355-4.369,7.06c0,0-0.928,3.505-3.521,4.259l0.039,0.044
	c0.002,0.001,0.004-0.001,0.004-0.001c-0.762,0.035-1.789-0.259-2.617-0.559c-1.039-0.681-3.223-2.424-5.018-5.924
	c-2.446-4.766-4.155-8.43-1.1-12.463c10.201,1.955,14.355-3.42,18.848-8.645c4.666-5.428,25.018-11.82,25.018-11.82
	c-7.607,5.313-5.779,30.855-5.779,30.855l0.365,0.143c-0.393,0.943-1.195,1.113-2.621,2.684c-1.654,1.819-0.332,4.571,1.816,7.16
	c2.15,2.59,3.471,5.676,3.91,8.1c0.443,2.422,1.875,1.597,1.875,1.597c1.813-0.571,1.521-13.566,1.41-17.046l0.123,0.049
	C64.119,35.898,73.467,11.887,72.365,6.023z" class="color c1"/>
</svg>