<svg version="1.1" id="图层_1" x="0px" y="0px" width="89.535px" height="89.536px" viewBox="0 0 89.535 89.536" enable-background="new 0 0 89.535 89.536" xml:space="preserve" xmlns="http://www.w3.org/2000/svg" xmlns:xlink="http://www.w3.org/1999/xlink" xmlns:xml="http://www.w3.org/XML/1998/namespace">
  <circle fill="#0A0A0A" cx="44.768" cy="44.768" r="44.768" class="color c1"/>
  <path fill="#C29D6C" d="M47.661,85.214c-2.135,0.215-4.212,0.215-5.632-0.012c-11.615-1.249-21.395-6.019-28.728-15.182
	C5.978,60.871,2.989,50.309,4.797,38.75C8.09,17.642,26.246,3.027,47.047,4.23C67.384,5.4,83.576,21.388,85.132,41.624
	C86.72,62.05,72.346,82.658,47.661,85.214z M64.908,41.736c-0.183-0.271-0.441-0.977-0.953-1.384
	c-2.965-2.408-5.952-4.792-9.014-7.052c-0.548-0.408-1.648-0.431-2.354-0.204c-3.496,1.147-6.914,2.531-10.425,3.655
	c-1.36,0.431-1.894,1.17-2.075,2.498c-0.58,4.18-1.272,8.346-1.817,12.536c-0.081,0.592,0.183,1.488,0.61,1.862
	c3.114,2.646,6.304,5.223,9.519,7.745c0.454,0.353,1.316,0.646,1.771,0.453c3.816-1.611,7.597-3.314,11.353-5.074
	c0.454-0.217,0.931-0.832,1.021-1.328C63.353,51.036,64.079,46.608,64.908,41.736z M52.964,23.194
	c0.056-0.782,0.045-1.998,0.26-3.18c0.252-1.43-0.307-2.167-1.555-2.815c-2.624-1.34-5.135-2.884-7.743-4.236
	c-0.715-0.362-1.715-0.635-2.443-0.431c-3.144,0.875-6.255,1.908-9.354,2.941c-2.203,0.738-3.69,2.032-3.497,4.667
	c0.068,0.978-0.242,1.987-0.362,2.987c-0.66,4.893-0.66,4.904,3.553,7.232c2.394,1.329,4.746,3.485,7.244,3.69
	c2.566,0.205,5.313-1.464,7.958-2.386C52.69,29.666,52.69,29.654,52.964,23.194z M33.887,76.515
	c3.591-0.555,6.904-1.033,10.197-1.646c0.455-0.079,0.999-0.794,1.135-1.317c0.637-2.464,1.045-4.973,1.728-7.427
	c0.329-1.202-0.068-1.827-0.942-2.52c-3.045-2.407-6.007-4.929-9.095-7.289c-0.648-0.501-1.715-0.772-2.523-0.671
	c-3.247,0.397-6.495,0.932-9.705,1.543c-0.604,0.115-1.398,0.796-1.578,1.375c-0.754,2.43-1.386,4.895-1.854,7.394
	c-0.124,0.669,0.286,1.759,0.819,2.179c3.362,2.646,6.812,5.178,10.264,7.699C32.829,76.208,33.503,76.357,33.887,76.515z
	 M71.087,62.902c2.486-1.271,4.85-2.385,7.106-3.668c0.614-0.352,1.114-1.124,1.375-1.816c2.247-5.871,2.86-11.934,1.93-18.157
	c-0.16-1.033-4.873-4.416-5.893-4.155c-0.421,0.102-0.772,0.511-1.114,0.818c-1.703,1.509-3.462,2.963-5.053,4.587
	c-0.69,0.704-1.306,1.715-1.499,2.668c-0.782,3.94-1.44,7.903-2.032,11.866c-0.113,0.761,0.057,1.783,0.498,2.373
	C67.815,59.279,69.429,60.983,71.087,62.902z M25.678,17.856c-1.305-0.215-2.295-0.329-3.271-0.545
	c-1.713-0.385-2.985,0.057-4.233,1.409c-3.839,4.144-6.781,8.799-8.575,14.159c-1.601,4.804-1.588,4.758,3.124,6.598
	c1.068,0.419,1.658,0.273,2.385-0.591c2.803-3.338,5.689-6.609,8.526-9.912c0.294-0.341,0.625-0.761,0.682-1.192
	C24.803,24.545,25.223,21.297,25.678,17.856z M7.714,41.066c0,1.521-0.01,2.85,0,4.167c0.104,7.075,2.138,13.559,5.918,19.507
	c0.826,1.295,3.883,1.841,4.223,0.727c0.943-3.054,1.623-6.188,2.316-9.312c0.082-0.351-0.353-0.839-0.568-1.248
	c-1.521-2.895-3.315-5.689-4.521-8.721C13.756,42.804,10.896,42.1,7.714,41.066z M44.687,7.523
	c-0.193,0.217-0.398,0.432-0.591,0.647c0.545,0.682,0.954,1.59,1.658,2.022c2.86,1.726,5.801,3.327,8.729,4.915
	c0.56,0.308,1.25,0.41,1.899,0.5c3.304,0.42,6.608,0.84,9.925,1.181c0.602,0.058,1.235-0.283,1.862-0.432
	C61.208,10.352,53.451,7.49,44.687,7.523z M33.988,80.126c8.107,2.295,15.547,2.124,23.074-0.545
	C49.396,78.355,41.928,77.367,33.988,80.126z M70.95,18.322c-0.261,0.081-0.512,0.148-0.772,0.228
	c0.2,0.625,0.308,1.307,0.613,1.875c1.796,3.349,3.77,6.608,5.395,10.037c0.816,1.715,2.066,2.316,3.938,2.974
	C78.193,27.406,75.139,22.513,70.95,18.322z M64.979,75.597c3.383-1.408,10.251-8.403,10.979-11.65
	c-1.467,0.886-3.146,1.43-4.112,2.566C69.292,69.533,67.055,72.804,64.979,75.597z" class="color c2"/>
</svg>