<svg version="1.1" id="图层_1" x="0px" y="0px" width="108.202px" height="122.106px" viewBox="0 0 108.202 122.106" enable-background="new 0 0 108.202 122.106" xml:space="preserve" xmlns="http://www.w3.org/2000/svg" xmlns:xlink="http://www.w3.org/1999/xlink" xmlns:xml="http://www.w3.org/XML/1998/namespace">
  <path fill="#FFFFFF" d="M108.194,15.581c-0.039-0.129-0.293-0.26-0.459-0.266c-0.336-0.014-0.676,0.065-1.012,0.092
	c-1.119,0.088-2.188,0.289-2.945,1.24c-0.146,0.185-0.361,0.316-0.531,0.483c-0.63,0.603-1.325,0.987-2.243,0.827
	c-0.301-0.054-0.629-0.047-0.934,0.007c-0.35,0.062-0.717,0.153-1.027,0.323c-0.441,0.24-0.836,0.565-1.252,0.854
	c-0.979,0.683-1.924,1.424-2.949,2.029c-0.879,0.518-1.846,0.885-2.777,1.307c-1.166,0.526-2.385,0.877-3.639,1.094
	c-1.661,0.285-3.333,0.497-4.985,0.824c-2.175,0.429-4.219,1.247-6.115,2.391c-1.191,0.719-2.339,1.51-3.497,2.279
	c-0.254,0.17-0.492,0.201-0.791,0.152c-0.341-0.057-0.71-0.094-1.04-0.021c-1.079,0.229-2.145,0.514-3.216,0.771
	c-1.539,0.368-3.102,0.659-4.617,1.108c-1.951,0.58-3.934,0.792-5.954,0.822c-0.327,0.004-0.397-0.132-0.442-0.414
	c-0.048-0.295-0.119-0.612-0.276-0.859c-0.448-0.713-0.789-1.469-0.941-2.292c-0.058-0.302-0.05-0.664,0.066-0.94
	c0.196-0.469,0.195-0.922,0.041-1.366c-0.369-1.071-0.901-2.065-1.634-2.934c-0.374-0.443-0.696-0.866-0.496-1.494
	c0.045-0.142,0.015-0.312,0.008-0.467c-0.057-1.208-0.643-2.072-1.765-2.493c-0.643-0.24-1.334-0.381-2.016-0.475
	c-1.986-0.272-3.861,0.072-5.534,1.219c-1.451,0.992-2.516,2.366-3.574,3.738c-0.77,1-1.11,2.141-1.115,3.395
	c-0.002,0.397,0.008,0.803-0.07,1.188c-0.208,1.05,0.103,1.991,0.545,2.904c0.815,1.679,1.991,3.089,3.301,4.401
	c0.144,0.145,0.267,0.383,0.268,0.579c0.002,0.665-0.09,1.331-0.078,1.995c0.015,0.651-0.337,1.014-0.84,1.306
	c-0.39,0.226-0.778,0.456-1.173,0.673c-0.118,0.064-0.254,0.117-0.386,0.129c-2.388,0.224-4.739,0.595-7.005,1.443
	c-1.192,0.445-2.439,0.723-3.728,0.752c-1.973,0.043-3.945,0.059-5.916,0.148c-0.786,0.035-1.381-0.217-1.942-0.735
	c-0.794-0.732-1.581-1.491-2.463-2.109c-1.079-0.757-2.265-1.36-3.381-2.066c-0.624-0.395-1.32-0.696-1.787-1.313
	c-0.577-0.764-1.162-1.521-1.768-2.26c-0.276-0.337-0.327-0.666-0.249-1.09c0.2-1.076,0.329-2.16-0.018-3.242
	c-0.049-0.152-0.005-0.407,0.099-0.523c1.002-1.133,2.06-2.218,3.035-3.371c1.716-2.031,3.735-3.742,5.669-5.547
	c1.729-1.613,3.472-3.213,5.201-4.826c0.196-0.183,0.34-0.127,0.514,0.006c2.163,1.66,4.461,1.803,6.863,0.569
	c2.288-1.177,4.041-2.919,5.296-5.157c1.004-1.785,1.576-3.689,1.373-5.762c-0.09-0.918-0.338-1.805-0.907-2.56
	C39.895,0.601,38.373,0.013,36.627,0c-2.699-0.022-5.098,0.89-7.201,2.552c-0.941,0.745-1.76,1.6-2.411,2.655
	c-0.388,0.627-0.804,1.231-1.05,1.919c-0.009,0.022-0.019,0.045-0.026,0.068c-0.054,0.156-0.186,0.564-0.288,1.111
	c-0.15,0.807-0.23,1.912,0.095,2.959c0.02,0.075,0.043,0.149,0.07,0.224c0.008,0.023,0.016,0.047,0.025,0.071
	c0,0,0.001,0.002,0.001,0.003c0.043,0.111,0.091,0.22,0.137,0.329c0.228,0.516,0.502,1.01,0.811,1.623
	c-0.076,0.045-0.202,0.095-0.293,0.18c-2.039,1.922-4.068,3.849-6.106,5.77c-1.32,1.244-2.617,2.515-3.985,3.703
	c-0.75,0.65-1.64,1.135-2.439,1.73c-0.521,0.391-0.996,0.848-1.51,1.289c-0.083-0.125-0.141-0.203-0.191-0.286
	c-0.229-0.38-0.437-0.458-0.782-0.176c-0.22,0.181-0.399,0.46-0.494,0.731c-0.117,0.332-0.167,0.572-0.623,0.644
	c-0.429,0.065-0.842,0.349-1.224,0.595c-0.54,0.35-1.055,0.742-1.555,1.146C7.437,28.96,7.3,29.175,7.277,29.359
	c-0.066,0.548-0.025,1.11-0.115,1.651c-0.135,0.826,0.206,1.463,0.724,2.023c0.718,0.779,1.698,1.145,2.645,1.546
	c0.508,0.216,0.94,0.49,1.175,1.021c0.435,0.977,0.859,1.961,1.331,2.92c0.627,1.272,1.169,2.615,1.982,3.763
	c0.898,1.265,2.033,2.366,3.118,3.488c0.563,0.583,1.18,1.159,1.877,1.554c1.371,0.779,2.852,1.354,4.393,1.709
	c0.949,0.218,1.921,0.342,2.886,0.484c0.322,0.047,0.418,0.178,0.406,0.5c-0.024,0.637,0.253,1.151,0.862,1.366
	c0.375,0.132,0.806,0.15,1.212,0.159c3.063,0.061,6.127,0.098,9.191,0.162c1.024,0.021,1.312,0.341,1.332,1.348
	c0.004,0.128-0.013,0.258,0.008,0.383c0.07,0.431,0.088,0.883,0.242,1.283c0.264,0.691,0.813,1.172,1.412,1.584
	c0.662,0.455,1.38,0.863,1.649,1.688c0.246,0.753,0.747,1.317,1.293,1.851c0.647,0.629,1.321,1.229,1.968,1.859
	c0.472,0.461,0.858,0.986,0.9,1.678c0.08,1.303,0.202,2.605,0.201,3.908c0,1.145,0.028,2.336-0.266,3.422
	c-0.54,1.986-1.412,3.863-2.435,5.661c-0.214,0.376-0.445,0.765-0.541,1.177c-0.413,1.723-0.47,3.486-0.436,5.244
	c0.026,1.4,0.145,2.803,0.304,4.195c0.182,1.596,0.444,3.178-0.132,4.748c-0.189,0.517-0.419,1.035-0.497,1.572
	c-0.265,1.821-0.479,3.65-0.693,5.479c-0.071,0.599-0.082,1.204-0.123,1.843c-0.126-0.063-0.229-0.104-0.32-0.161
	c-1.003-0.622-1.984-1.282-3.01-1.862c-1.698-0.959-3.444-1.836-5.354-2.293c-1.546-0.371-3.132-0.279-4.704-0.246
	c-1.616,0.035-3.232,0.119-4.849,0.141c-0.849,0.014-1.712,0.02-2.547-0.113c-1.337-0.213-2.396-1.012-3.402-1.867
	c-0.059-0.053-0.152-0.15-0.137-0.194c0.213-0.585-0.291-0.821-0.562-1.165c-0.192-0.246-0.424-0.418-0.648-0.188
	c-0.4-0.734-0.768-1.449-1.784-1.477c0.077-0.129,0.147-0.246,0.262-0.436c-0.731-0.631-1.444-1.289-2.203-1.885
	c-0.572-0.448-0.942-0.445-1.476,0.037c-1.797,1.624-3.559,3.283-4.587,5.547c-0.102,0.225-0.222,0.412-0.525,0.412
	c-0.999,0.003-1.875,0.395-2.673,0.955c-1.313,0.921-2.218,2.214-3.141,3.492c-0.875,1.211-1.443,2.518-1.384,4.049
	c0.008,0.205-0.07,0.414-0.108,0.621c0,0.568,0,1.135,0,1.703c0.234,0.365,0.428,0.773,0.913,0.874
	c0.946,0.194,1.86,0.274,2.725-0.339c1.1-0.781,2.227-1.523,3.357-2.26c0.893-0.582,1.842-1.064,2.921-1.164
	c1.596-0.146,3.193-0.28,4.793-0.367c0.728-0.039,1.134-0.398,1.38-1.028c0.025-0.065,0.056-0.13,0.078-0.194
	c0.099-0.291,0.262-0.49,0.604-0.492c0.535-0.004,1.079-0.094,1.603-0.02c0.936,0.132,1.864,0.326,2.785,0.551
	c2.168,0.527,4.261,1.289,6.303,2.185c1.041,0.456,2.042,0.997,3.072,1.472c0.206,0.094,0.468,0.063,0.702,0.09
	c0.845,0.643,0.925,0.679,1.372,0.59c0.214,0.168,0.343,0.32,0.509,0.39c1.063,0.447,2.142,0.865,3.204,1.315
	c1.283,0.543,2.558,1.104,3.834,1.661c0.525,0.229,1.049,0.462,1.588,0.702c-0.032,0.104-0.055,0.168-0.072,0.233
	c-0.261,0.952-0.615,1.891-0.76,2.86c-0.297,1.99-0.118,3.986,0.095,5.981c0.14,1.293,0.643,2.345,1.725,3.093
	c0.502,0.346,0.931,0.374,1.37,0.027c0.24-0.188,0.447-0.424,0.636-0.666c0.399-0.51,0.42-1.145,0.563-1.746
	c0.366-1.541,1.337-2.74,2.363-3.889c0.918-1.027,1.896-2.003,2.804-3.039c0.749-0.858,1.196-1.844,0.964-3.035
	c-0.017-0.086,0.104-0.245,0.199-0.297c0.596-0.321,1.19-0.649,1.811-0.922c1.106-0.486,2.209-0.998,3.354-1.379
	c1.124-0.374,2.296-0.593,3.445-0.889c2.312-0.596,4.626-1.18,6.932-1.801c1.428-0.385,2.859-0.781,4.26-1.262
	c0.885-0.303,1.725-0.746,2.563-1.168c1.272-0.639,2.526-1.328,3.522-2.365c1.319-1.376,1.555-2.431,0.734-4.063
	c-0.645-1.278-1.418-2.491-2.144-3.728c-0.06-0.103-0.184-0.233-0.279-0.235c-0.416-0.004-0.342-0.227-0.25-0.475
	c-0.407,0.091-0.576-0.044-0.748-0.64c0.251,0.221,0.467,0.41,0.683,0.601c-0.201-0.286-0.429-0.557-0.594-0.861
	c-0.14-0.256-0.259-0.187-0.42-0.058l0.027,0.017c-0.322-0.104-0.641-0.207-0.472-0.675c0.123,0.071,0.231,0.133,0.451,0.259
	c-0.116-0.211-0.153-0.316-0.22-0.398c-0.801-0.982-1.596-1.968-2.411-2.936c-0.194-0.232-0.295-0.43-0.218-0.748
	c0.111-0.449,0.196-0.917-0.117-1.348c-0.604-0.83-1.198-1.668-1.787-2.507c-1.271-1.808-2.535-3.618-3.801-5.429
	c-0.241-0.346-0.609-0.665-0.688-1.045c-0.025-0.119-0.061-0.232-0.1-0.341c0.547-0.294,1.033-0.574,1.463-0.84
	c0.003,0.002,0.006,0.003,0.009,0.005c0.005-0.007,0.011-0.014,0.017-0.02c3.448-2.142,3.268-3.362,3.268-3.362
	c-0.146-0.286-0.25-0.53-0.388-0.753c-0.344-0.563-0.749-1.092-1.047-1.678c-0.654-1.285-0.877-2.699-1.17-4.098
	c-0.2-0.95-0.229-1.879-0.11-2.824c0.063-0.505,0.176-1.006,0.238-1.512c0.207-1.645,0.405-3.291,0.594-4.938
	c0.281-2.464,0.245-4.922-0.078-7.383c-0.182-1.375-0.277-2.762-0.377-4.146c-0.015-0.208,0.1-0.483,0.249-0.636
	c0.539-0.553,1.092-1.104,1.694-1.586c0.666-0.532,1.404-0.908,2.317-0.891c0.768,0.016,1.53-0.113,2.07-0.813l0.593-0.341
	c0.037-0.019,0.071-0.039,0.101-0.059c0.533-0.353,0.861-0.875,0.99-1.478c0.282-1.32,1.141-2.178,2.213-2.856
	c1.355-0.857,2.852-1.395,4.394-1.824c0.142-0.041,0.288-0.078,0.432-0.124c0.073-0.023,0.146-0.05,0.218-0.078v0.001
	c0,0,0.633-0.133,1.614-0.563c0.075-0.031,0.152-0.066,0.23-0.103c0.235-0.107,0.483-0.229,0.749-0.37
	c0.174-0.094,0.353-0.195,0.539-0.304c0.171-0.101,0.35-0.209,0.528-0.325c0.54-0.346,1.108-0.758,1.69-1.252
	c0.07-0.061,0.143-0.123,0.215-0.186c0.469-0.412,0.943-0.874,1.416-1.396c0.188-0.095,0.545-0.225,0.842-0.438
	c0.871-0.618,1.688-1.32,2.588-1.891c0.605-0.383,1.295-0.744,1.986-0.854c1.029-0.162,2.094-0.06,3.141-0.133
	c0.67-0.048,1.355-0.135,1.994-0.336c1.246-0.393,2.508-0.662,3.8-0.845c0.537-0.077,1.158,0.01,1.549-0.529
	c0.074,0.053,0.127,0.115,0.189,0.129c0.195,0.045,0.438,0.156,0.574,0.082c0.158-0.085,0.266-0.332,0.313-0.527
	c0.039-0.166-0.014-0.367-0.068-0.541c-0.207-0.673-0.469-1.332-0.643-2.015c-0.111-0.437-0.375-0.708-0.713-0.948
	s-0.674-0.479-1.057-0.75c0.949-0.818,1.805-1.652,2.965-2.063c0.238-0.084,0.486-0.184,0.676-0.34
	C108.103,15.96,108.235,15.712,108.194,15.581z M27.099,8.835c0.014-0.278,0.073-0.555,0.116-0.861c3.062-4.861,6.123-5.9,6.123-5.9
	c1.088-0.35,2.212-0.537,3.365-0.452c1.395,0.101,2.844,0.921,3.324,2.368c0.298,0.9,0.341,1.842,0.167,2.775
	c-0.593,3.205-2.459,5.508-5.188,7.161c-2.426,1.468-4.48,0.87-6.384-1.138C27.575,11.681,27.022,10.377,27.099,8.835z
	 M65.269,95.255c0.116,0.038,0.227,0.095,0.45,0.191c-4.423,1.201-7.826,4.018-11.488,6.369c-0.031-0.029-0.064-0.06-0.097-0.09
	c0.259-0.359,0.52-0.717,0.774-1.075c0.473-0.664,0.961-1.318,1.407-1.999c0.184-0.276,0.39-0.389,0.701-0.341
	c0.373,0.057,0.625-0.081,0.85-0.396c0.887-1.235,1.809-2.441,2.692-3.678c0.242-0.339,0.446-0.43,0.864-0.277
	C62.693,94.421,63.985,94.826,65.269,95.255z M105.11,22.153c-0.01,0.005-0.053,0.046-0.102,0.048
	c-0.893,0.036-1.783,0.079-2.677,0.099c-0.555,0.012-0.656-0.142-0.551-0.699c0.07-0.371,0.115-0.748,0.176-1.143
	C103.313,20.544,104.677,20.479,105.11,22.153z" class="color c1"/>
</svg>