<svg version="1.1" id="图层_1" x="0px" y="0px" width="163.096px" height="162.977px" viewBox="0 0 163.096 162.977" enable-background="new 0 0 163.096 162.977" xml:space="preserve" xmlns:xml="http://www.w3.org/XML/1998/namespace" xmlns="http://www.w3.org/2000/svg" xmlns:xlink="http://www.w3.org/1999/xlink">
  <g>
    <path fill="#EE746C" d="M151.542,58.927l0.127,0.417l0.431-0.069c0.572-0.091,1.137-0.175,1.695-0.252l0.587-0.082l-0.179-0.564
		c-5.32-16.807-16.423-31.352-31.261-40.956l-0.296-0.191l-0.28,0.215c-0.372,0.286-0.813,0.626-1.319,1.022l-0.564,0.44
		l0.607,0.378C135.734,28.413,146.548,42.492,151.542,58.927z" class="color c1"/>
    <path fill="#EE746C" d="M40.926,17.613l-0.231-0.549l-0.5,0.323c-9.515,6.134-17.692,14.518-23.647,24.245l-0.197,0.322
		l0.256,0.278c0.467,0.507,1.756,1.901,3.63,3.882l0.476,0.502l0.328-0.609c5.085-9.455,12.406-17.786,21.17-24.093l0.308-0.221
		l-0.13-0.356C41.931,20.085,41.439,18.832,40.926,17.613z" class="color c1"/>
    <path fill="#EE746C" d="M143.175,119.119l-0.394-0.197l-0.246,0.365c-9.747,14.479-24.37,24.838-41.174,29.167l-0.583,0.15
		l0.255,0.546c0.845,1.806,1.565,3.402,2.202,4.881l0.177,0.411l0.428-0.13c17.696-5.394,32.816-17.066,42.576-32.87l0.272-0.441
		l-0.451-0.256C145.63,120.4,144.607,119.839,143.175,119.119z" class="color c1"/>
    <path fill="#EE746C" d="M96.065,149.955l-0.162-0.341l-0.372,0.063c-3.989,0.675-8.002,1.018-11.927,1.018
		c-13.581,0-26.799-3.868-38.225-11.188l-0.633-0.405l-0.129,0.74c-0.598,3.424-1.006,5.991-1.196,7.217l-0.053,0.339l0.298,0.171
		c11.512,6.601,24.587,10.089,37.811,10.089c3.007,0,6.054-0.181,9.056-0.538c2.499-0.296,5.043-0.729,7.563-1.288l0.595-0.132
		l-0.245-0.559C97.726,153.508,96.925,151.763,96.065,149.955z M46.299,148.44c-0.802-0.422-1.598-0.855-2.384-1.306
		C44.701,147.585,45.497,148.018,46.299,148.44z M47.07,148.835c0.556,0.285,1.115,0.565,1.679,0.837
		C48.185,149.4,47.626,149.12,47.07,148.835z M49.647,150.095c0.544,0.254,1.093,0.5,1.644,0.74
		C50.74,150.595,50.192,150.349,49.647,150.095z M52.179,151.221c0.629,0.265,1.263,0.52,1.899,0.768
		C53.442,151.741,52.808,151.486,52.179,151.221z M54.719,152.243c0.85,0.323,1.707,0.631,2.57,0.924
		C56.427,152.874,55.57,152.566,54.719,152.243z M57.905,153.365c0.666,0.22,1.334,0.433,2.007,0.634
		C59.239,153.798,58.571,153.585,57.905,153.365z M60.836,154.264c0.585,0.167,1.173,0.328,1.764,0.48
		C62.009,154.593,61.421,154.431,60.836,154.264z M63.575,154.992c0.612,0.149,1.227,0.289,1.843,0.424
		C64.802,155.281,64.187,155.141,63.575,154.992z M66.291,155.607c0.85,0.175,1.703,0.337,2.561,0.482
		C67.994,155.944,67.141,155.782,66.291,155.607z M69.018,156.12c0.914,0.153,1.834,0.286,2.757,0.406
		C70.852,156.407,69.932,156.273,69.018,156.12z M72.618,156.625c0.651,0.077,1.304,0.148,1.959,0.209
		C73.922,156.773,73.269,156.702,72.618,156.625z M75.573,156.917c0.626,0.049,1.254,0.09,1.883,0.123
		C76.827,157.007,76.199,156.966,75.573,156.917z M78.435,157.089c0.704,0.028,1.41,0.044,2.118,0.053
		C79.845,157.133,79.139,157.117,78.435,157.089z M81.282,157.154c0.913,0.002,1.829-0.013,2.747-0.044
		c-0.853,0.028-1.703,0.047-2.552,0.047C81.412,157.157,81.348,157.154,81.282,157.154z M87.664,156.898
		c0.936-0.076,1.872-0.164,2.811-0.275C89.536,156.734,88.6,156.822,87.664,156.898z M84.683,157.081
		c0.736-0.031,1.475-0.073,2.213-0.126C86.156,157.009,85.419,157.05,84.683,157.081z" class="color c1"/>
    <path fill="#EE746C" d="M157.728,78.943c-0.163-4.984-0.82-9.984-1.954-14.859l-0.103-0.441l-0.449,0.059
		c-0.595,0.078-1.196,0.16-1.813,0.255l-0.524,0.081l0.112,0.519c1.073,4.972,1.618,10.044,1.618,15.077
		c0,12.146-3.131,24.149-9.055,34.714l-0.255,0.454l0.466,0.236c1.028,0.521,1.988,1.03,2.852,1.514l0.451,0.252l0.237-0.459
		C155.241,104.847,158.152,91.914,157.728,78.943z" class="color c1"/>
    <path fill="#EE746C" d="M13.735,92.276l-0.083-0.483c-0.702-4.068-1.057-8.159-1.057-12.159c0-9.716,1.933-19.144,5.745-28.023
		l0.13-0.302l-0.227-0.239c-1.359-1.435-2.704-2.872-3.888-4.154l-0.488-0.529l-0.325,0.643C6.31,61.313,3.779,77.212,6.218,93.006
		l0.075,0.487l0.489-0.068c2.487-0.351,4.604-0.695,6.471-1.056L13.735,92.276z" class="color c1"/>
    <path fill="#EE746C" d="M14.844,97.448l-0.118-0.456l-0.462,0.091c-1.953,0.382-4.078,0.735-6.496,1.08L7.227,98.24l0.124,0.531
		c4.315,18.493,15.297,34.615,30.924,45.396l0.65,0.449l0.127-0.78c0.4-2.453,0.835-4.986,1.293-7.527l0.054-0.298l-0.24-0.187
		C27.734,126.189,18.743,112.56,14.844,97.448z" class="color c1"/>
    <path fill="#EE746C" d="M46.435,18.392l0.213,0.557l0.511-0.307c10.986-6.588,23.588-10.07,36.444-10.07
		c11.241,0,22.016,2.571,32.024,7.642l0.284,0.144l0.251-0.198c0.505-0.398,0.978-0.767,1.408-1.103l0.605-0.473l-0.677-0.362
		c-9.918-5.306-20.655-8.3-31.914-8.897c-0.902-0.012-1.707-0.514-2.122-1.311l-0.137-0.264l-0.298-0.005
		c-0.198-0.003-0.396-0.01-0.594-0.017c-0.296-0.01-0.592-0.02-0.891-0.02c-0.732,0-1.467,0.026-2.177,0.051l-0.452,0.016
		l-0.296,0.01l-0.133,0.265c-0.401,0.793-1.192,1.304-2.066,1.333c-2.425,0.164-4.872,0.449-7.289,0.849
		C69,6.251,68.868,6.261,68.738,6.261c-0.717,0-1.396-0.325-1.864-0.892l-0.19-0.23L66.39,5.197
		c-1.579,0.313-3.116,0.665-4.568,1.046l-0.291,0.076l-0.069,0.293c-0.2,0.852-0.836,1.53-1.662,1.77
		c-4.98,1.482-9.861,3.504-14.512,6.012l-0.404,0.217l0.182,0.421C45.531,16.102,45.99,17.232,46.435,18.392z M69.212,6.722
		c-0.149,0.024-0.296,0.035-0.442,0.036C68.916,6.757,69.064,6.747,69.212,6.722z M66.902,6.092
		c-0.149-0.122-0.291-0.255-0.414-0.405C66.611,5.837,66.752,5.97,66.902,6.092z M68.683,6.755c-0.191-0.003-0.378-0.024-0.56-0.064
		C68.304,6.731,68.492,6.752,68.683,6.755z M68.076,6.682c-0.187-0.044-0.365-0.111-0.537-0.19
		C67.711,6.571,67.889,6.638,68.076,6.682z M67.445,6.448c-0.166-0.083-0.322-0.181-0.469-0.293
		C67.122,6.266,67.28,6.364,67.445,6.448z" class="color c1"/>
  </g>
  <path fill="#FB9761" d="M117.686,69.78c11.558-5.447,23.967-9.336,34.335-10.998c-5.086-16.734-16.133-30.861-30.667-39.921
	c-4.175,3.246-12.75,10.056-22.246,18.428c-13.371,11.79-28.54,26.792-35.435,38.564c-1.083,1.848-2.136,3.965-3.159,6.272
	c6.134,3.902,15.519,8.017,25.704,11.813C92.453,84.121,104.501,75.993,117.686,69.78z M123.647,26.438L123.647,26.438
	c0.687-0.005,1.352,0.232,1.878,0.671c5.86,4.745,10.917,10.408,14.971,16.768c0.862,1.357,0.463,3.158-0.894,4.021
	c-1.356,0.864-3.158,0.465-4.021-0.894c-3.714-5.83-8.347-11.019-13.72-15.369c-0.692-0.548-1.102-1.382-1.107-2.267
	C120.744,27.76,122.039,26.448,123.647,26.438z M58.282,87.59c6.604,4.068,15.631,8.05,25.276,11.664
	c-3.342,8.927-1.703,18.549,1.614,27.758c2.85,7.915,6.917,15.751,10.44,23.158c-3.906,0.662-7.914,1.024-12.009,1.024
	c-14.177,0-27.379-4.146-38.494-11.267c0.899-5.146,2.205-12.097,3.888-19.696C51.376,109.485,54.563,97.427,58.282,87.59z
	 M101.487,148.938c-3.729-7.984-8.019-16.1-10.831-23.906c-3.111-8.639-4.395-16.579-1.646-23.794
	c9.945,3.515,20.17,6.6,28.788,8.96c12.093,3.314,20.565,7.065,25.153,9.369C133.316,133.878,118.65,144.516,101.487,148.938z
	 M44.52,77.174c2.993,2.568,5.959,4.967,8.785,7.038c-4.173,10.602-7.474,23.368-9.995,34.756
	c-1.425,6.435-2.582,12.414-3.455,17.251c-12.34-9.566-21.477-23.071-25.494-38.646c7.06-1.385,11.913-3.173,16.3-5.94
	C36.14,88.175,40.871,83.233,44.52,77.174z M41.917,21.508C47.561,37.01,48.31,53.922,42.74,67.74
	c-8.82-8.097-17.381-16.938-22.142-21.97C25.776,36.144,33.099,27.853,41.917,21.508z M40.074,73.26
	c-3.29,5.774-7.608,10.349-12.52,13.446c-3.729,2.354-7.806,3.898-14.396,5.17c-0.687-3.98-1.064-8.066-1.064-12.244
	c0-10.022,2.067-19.561,5.785-28.221C23.1,56.923,31.445,65.472,40.074,73.26z M46.903,18.214
	c10.73-6.435,23.282-10.142,36.701-10.142c11.607,0,22.558,2.785,32.25,7.695c-4.651,3.66-12.278,9.814-20.602,17.153
	c-13.554,11.95-28.947,26.906-36.608,39.987c-1.04,1.774-2.033,3.728-2.99,5.793c-2.657-2.017-5.473-4.347-8.332-6.848
	C54.664,55.622,53.686,35.897,46.903,18.214z M145.997,114.591c5.797-10.339,9.118-22.257,9.118-34.958
	c0-5.212-0.571-10.288-1.629-15.184c-9.733,1.511-22.062,5.29-33.32,10.596c-12.057,5.683-22.886,13.205-28.33,20.93
	c9.507,3.35,19.304,6.354,27.511,8.603C132.084,108.069,141.159,112.141,145.997,114.591z M147.832,69.836l-0.001,0.002
	c1.53-0.069,2.854,1.061,3.025,2.583c0.549,4.223,0.715,8.479,0.49,12.73c-0.086,1.606-1.458,2.843-3.067,2.757
	c-1.607-0.085-2.844-1.458-2.758-3.066c0.208-3.896,0.061-7.802-0.443-11.672c-0.014-0.098-0.023-0.196-0.028-0.295
	C144.98,71.268,146.225,69.907,147.832,69.836z" class="color c2"/>
  <path fill="#5A3392" d="M163.052,78.777c-1.38-42.284-34.938-76.528-77.185-78.767c-0.1-0.005-0.198-0.005-0.297,0V0
	c-1.608,0.016-2.9,1.33-2.886,2.938c0.004,0.473,0.132,0.913,0.336,1.306c0.479,0.924,1.429,1.565,2.539,1.58
	c11.443,0.606,22.184,3.745,31.704,8.839c-0.432,0.337-0.904,0.707-1.41,1.104c-4.651,3.66-12.278,9.814-20.602,17.153
	c-13.554,11.95-28.947,26.906-36.608,39.987c-1.04,1.774-2.033,3.728-2.99,5.793c-2.657-2.017-5.473-4.347-8.332-6.848
	c7.342-16.231,6.362-35.956-0.42-53.64c-0.436-1.135-0.893-2.263-1.375-3.38c4.511-2.433,9.32-4.456,14.414-5.972
	c1.045-0.304,1.776-1.146,2.01-2.136c0.11-0.474,0.118-0.978-0.027-1.478c-0.451-1.545-2.067-2.432-3.613-1.981
	c-0.009,0.003-0.02,0.006-0.03,0.009C17.732,15.346-6.864,56.503,1.697,97.935c8.562,41.432,47.461,69.455,89.472,64.467
	C133.18,157.413,164.432,121.062,163.052,78.777z M63.673,75.854c6.896-11.772,22.063-26.775,35.435-38.564
	c9.497-8.373,18.071-15.182,22.246-18.428c0.506-0.395,0.946-0.733,1.316-1.02c14.601,9.449,25.704,23.781,31.056,40.687
	c-0.563,0.078-1.13,0.162-1.706,0.254c-10.368,1.661-22.777,5.551-34.335,10.998c-13.185,6.213-25.232,14.341-31.468,24.16
	c-10.186-3.797-19.569-7.911-25.704-11.813C61.537,79.819,62.591,77.702,63.673,75.854z M40.464,17.806
	c0.515,1.223,0.999,2.458,1.452,3.701c5.644,15.502,6.393,32.414,0.822,46.232c-8.818-8.097-17.379-16.938-22.14-21.97
	c-1.869-1.976-3.146-3.356-3.626-3.877C22.834,32.318,30.809,24.032,40.464,17.806z M13.987,47.254
	c0.937,1.014,2.254,2.43,3.893,4.159c5.221,5.51,13.565,14.06,22.195,21.848c-3.29,5.774-7.608,10.349-12.52,13.446
	c-3.729,2.354-7.806,3.898-14.396,5.17c-1.914,0.369-4.055,0.715-6.446,1.051C4.226,76.833,7.047,60.965,13.987,47.254z
	 M7.838,98.658c2.372-0.338,4.538-0.696,6.521-1.085c7.06-1.385,11.913-3.173,16.3-5.94c5.479-3.458,10.21-8.399,13.858-14.459
	c2.993,2.568,5.959,4.967,8.785,7.038c-4.173,10.602-7.474,23.368-9.995,34.756c-1.425,6.435-2.582,12.414-3.455,17.251
	c-0.543,3.012-0.976,5.578-1.295,7.537C23.525,133.384,12.261,117.613,7.838,98.658z M90.475,156.623
	c-16.73,1.987-32.903-1.659-46.56-9.488c0.235-1.519,0.638-4.014,1.194-7.207c0.899-5.146,2.205-12.097,3.888-19.696
	c2.379-10.746,5.564-22.805,9.283-32.642c6.605,4.068,15.632,8.05,25.277,11.664c-3.342,8.927-1.703,18.549,1.614,27.758
	c2.85,7.915,6.917,15.751,10.44,23.158c0.833,1.751,1.626,3.476,2.375,5.173C95.53,155.885,93.025,156.32,90.475,156.623z
	 M103.696,153.834c-0.7-1.624-1.442-3.257-2.208-4.896c-3.729-7.984-8.019-16.1-10.83-23.906
	c-3.112-8.639-4.396-16.579-1.646-23.794c9.945,3.515,20.17,6.6,28.788,8.96c12.093,3.314,20.566,7.065,25.153,9.369
	c1.355,0.681,2.371,1.233,3.04,1.613C136.489,136.568,121.599,148.378,103.696,153.834z M148.867,116.115
	c-0.673-0.377-1.636-0.898-2.87-1.523c-4.838-2.45-13.913-6.521-26.651-10.014c-8.207-2.249-18.004-5.252-27.511-8.603
	c5.444-7.725,16.273-15.248,28.33-20.93c11.259-5.306,23.586-9.085,33.32-10.596c0.612-0.095,1.209-0.177,1.801-0.254
	c1.107,4.765,1.776,9.7,1.941,14.763C157.664,92.297,154.608,104.984,148.867,116.115z" class="color c3"/>
  <path fill="#5A3392" d="M69.214,6.722c2.395-0.396,4.801-0.678,7.224-0.842c1.104-0.036,2.031-0.687,2.496-1.607
	c0.213-0.421,0.338-0.895,0.321-1.399c-0.053-1.607-1.398-2.87-3.007-2.816c-0.001,0-0.003,0-0.004,0v0.011
	c-0.064-0.002-0.129-0.002-0.192,0c-2.609,0.175-5.213,0.472-7.792,0.898c-1.59,0.265-2.665,1.767-2.4,3.355
	c0.086,0.522,0.317,0.982,0.632,1.365C67.13,6.466,68.148,6.899,69.214,6.722z" class="color c3"/>
  <path fill="#FFFFFF" d="M121.861,31.635c5.373,4.351,10.006,9.539,13.72,15.369c0.863,1.358,2.665,1.758,4.021,0.894
	c1.356-0.864,1.756-2.664,0.894-4.021c-4.053-6.359-9.109-12.022-14.971-16.768c-0.526-0.438-1.191-0.676-1.878-0.672v0.001
	c-1.607,0.01-2.902,1.321-2.894,2.931C120.759,30.253,121.167,31.087,121.861,31.635z" class="color c4"/>
  <path fill="#FFFFFF" d="M145.522,84.842c-0.085,1.608,1.15,2.98,2.758,3.066c1.608,0.086,2.981-1.149,3.067-2.757
	c0.227-4.251,0.061-8.508-0.49-12.73c-0.172-1.522-1.495-2.651-3.025-2.583l0.001-0.002c-1.607,0.071-2.853,1.433-2.782,3.038
	c0.005,0.1,0.015,0.198,0.028,0.295C145.582,77.04,145.73,80.944,145.522,84.842z" class="color c4"/>
</svg>