<svg version="1.1" id="图层_1" x="0px" y="0px" width="180px" height="137.616px" viewBox="0 0 180 137.616" enable-background="new 0 0 180 137.616" xml:space="preserve" xmlns="http://www.w3.org/2000/svg" xmlns:xlink="http://www.w3.org/1999/xlink" xmlns:xml="http://www.w3.org/XML/1998/namespace">
  <g>
    <g>
      <path fill="#0094DF" d="M138.65,137.616c-0.023,0-0.047,0-0.07,0c-13.587-0.022-21.568-5.631-28.17-11.688l-0.264-0.256
			l-20.221-20.946l-19.284,19.64c-0.349,0.327-0.703,0.667-1.067,1.016c-4.928,4.72-12.374,11.852-28.165,11.852
			C18.576,137.232,0,118.655,0,95.822s18.576-41.409,41.409-41.409c8.772,0,17.155,2.71,24.244,7.836l-7.111,9.833
			c-5.006-3.62-10.931-5.534-17.133-5.534c-16.142,0-29.274,13.133-29.274,29.274c0,16.143,13.133,29.274,29.274,29.274
			c10.917,0,15.419-4.311,19.771-8.479c0.364-0.349,0.719-0.688,1.067-1.016l51.433-52.402l0.075-0.071
			c7.621-7.249,18.831-8.331,24.835-8.331c22.833,0,41.409,18.576,41.409,41.409c0,11.082-4.319,21.496-12.161,29.325
			C160.032,133.326,149.668,137.615,138.65,137.616z M118.747,117.108c4.831,4.418,10.019,8.356,19.854,8.372
			c0.017,0,0.033,0,0.05,0c7.78,0,15.099-3.03,20.615-8.536c5.545-5.537,8.6-12.901,8.6-20.738
			c0-16.142-13.133-29.274-29.274-29.274c-4.173,0-11.831,0.642-16.404,4.925L98.429,96.063L118.747,117.108z" class="color c1"/>
      <path fill="#0094DF" d="M57.963,127.605" class="color c1"/>
      <polygon fill="#0094DF" points="112.948,15.176 78.971,38.96 122.656,39.445 52.273,106.916 91.349,48.425 27.033,45.513 		" class="color c1"/>
      <path fill="#0094DF" d="M129.224,0c0,0,3.958,11.53,2.01,17.787c-1.949,6.257-9.36,8.892-9.36,8.892s12.872,0.988,17.935,5.449
			c0,0,6.964-4.284,5.362-11.922C143.567,12.568,139.471,4.565,129.224,0z" class="color c1"/>
    </g>
  </g>
</svg>