<svg version="1.1" id="图层_1" x="0px" y="0px" width="600px" height="600px" viewBox="0 0 600 600" enable-background="new 0 0 600 600" xml:space="preserve" xmlns="http://www.w3.org/2000/svg" xmlns:xlink="http://www.w3.org/1999/xlink" xmlns:xml="http://www.w3.org/XML/1998/namespace">
  <path fill="#8EC91F" d="M49.5,441.6c12.9,4.5,28.5,5.7,45,4.801c4.2-0.301,8.4-0.601,12.6-1.2c2.1-0.3,4.2-0.601,6.6-0.9l3.3-0.3
	h0.9h0.3c0.3,0-0.6,0-0.3,0h0.3l1.8-0.3c7.2-1.5,15-4.8,23.1-8.101c62.1-24,126.6-80.1,130.2-84.6c3.6-4.5,7.5-9.3,10.5-14.1
	c3.3-4.801,6.3-9.9,8.7-15c2.7-5.101,4.8-10.5,6.9-15.9c0.899-2.7,1.8-5.4,2.699-8.1c0.601-2.7,1.5-5.4,2.101-8.4
	c1.5-5.7,2.1-11.1,3-16.8c0.3-2.7,0.899-5.7,0.899-8.1c0.301-12.6-14.399-32.7-22.5-40.8c-1.5-1.5-3-3-4.5-4.5l-2.1-2.1l-2.4-2.1
	c-3.3-2.7-6.6-5.7-9.9-8.4c-6.6-5.4-13.8-10.5-20.7-15c-14.1-9-29.4-15.9-44.1-18.3c-14.7-2.4-29.1-0.6-41.4,6
	c-12.6,6.3-23.1,17.1-30.6,29.4c-3.9,6-7.2,12.3-9.6,18.9c-2.7,6.6-4.5,12.9-6,19.5c-2.7,12.9-3.3,25.2-2.1,36
	c1.2,10.8,3.9,20.1,7.2,27.3c3.3,7.2,7.2,12.6,9.9,15.9c1.5,1.8,2.7,3,3.3,3.899c0.9,0.9,1.2,1.2,1.2,1.2s-0.6-0.3-1.5-0.9
	c-0.9-0.6-2.4-1.5-4.5-2.699c-3.9-2.7-9-6.9-14.4-13.801c-2.7-3.6-5.4-7.5-7.8-12.3s-4.8-9.9-6.6-15.9c-3.6-11.7-5.7-25.8-5.1-41.1
	c0.3-7.8,1.5-15.6,3.3-24c1.8-8.1,4.5-16.5,8.4-24.9c7.5-17.1,19.8-33.9,37.8-45.9c4.5-3,9.3-5.7,14.4-7.8
	c5.1-2.1,10.5-4.2,15.9-5.4c10.8-2.7,22.5-3.3,33.6-2.4c22.5,2.1,42.9,10.5,61.2,20.7c9.3,5.1,17.7,11.1,25.8,17.1
	c4.2,3,8.101,6.3,12,9.3l3,2.4l3,2.7c2.101,1.8,3.9,3.6,5.7,5.4c14.7,14.1,26.4,28.8,37.5,42.3c5.4,6.9,10.8,13.5,15.9,19.8
	c5.1,6.3,10.199,12.3,15.3,18c5.1,5.4,10.2,10.5,15,15c5.1,4.5,9.899,8.4,15,11.4c2.399,1.5,5.1,3,7.5,4.2
	c2.399,1.2,5.1,2.399,7.5,3c5.1,1.8,10.2,2.7,15,3.3c9.899,0.9,19.5-0.6,27.3-2.1c7.8-1.801,14.1-3.9,18.3-5.4s6.601-2.4,6.601-2.4
	s-0.301,0.6-1.2,1.2c-0.9,0.9-1.8,2.101-3.601,3.9c-3.3,3.3-8.1,8.1-15.6,12.899c-3.6,2.4-7.8,5.101-12.9,7.5
	c-5.1,2.4-10.8,4.5-17.399,5.7c-6.601,1.5-13.8,2.101-21.601,1.5c-7.8-0.6-15.6-2.1-23.699-5.1c-7.801-3-15.601-6.601-22.801-11.4
	c-3.6-2.399-7.199-4.8-10.8-7.2c-3.6-2.699-6.899-5.399-10.2-8.1c-3.3-3-6.6-5.7-9.899-8.7c-1.8-1.8-3.9-3.9-5.7-5.7
	c0.3,2.1,0.3,4.5,0.3,6.6c0.3,8.1-0.6,16.5-2.399,24.6c-1.801,8.4-4.801,16.8-9,24.601c-2.101,4.199-4.801,8.399-7.5,12.3
	c2.399-0.3,4.5-0.9,6.899-1.2c5.7-0.9,11.4-1.5,16.8-1.8C360,350.1,371.1,350.1,382.2,351.6c22.2,2.7,42.899,9.601,60.6,19.5
	c8.7,4.801,16.8,10.2,24.3,16.2c3.601,3,7.2,6,10.5,9c3.301,3,6.301,6,9.301,9.3c5.699,6.301,10.8,12.601,15.3,18.601
	s8.399,12.3,11.7,18c6.899,11.7,11.399,22.2,14.699,31.2c2.101,5.699,3.601,10.5,4.801,14.399c41.399-51.6,66.3-117,66.3-188.1
	C600,134.4,465.6,0,300,0C134.4,0,0,134.4,0,300c0,47.1,10.8,91.8,30.3,131.4C36,435.6,42.3,439.2,49.5,441.6z M350.7,79.8
	c24.6,0,44.7,20.1,44.7,44.7s-20.101,44.7-44.7,44.7c-24.601,0-44.7-20.1-44.7-44.7C306.3,99.9,326.1,79.8,350.7,79.8z" class="color c1"/>
  <path fill="#161324" d="M530.1,492.3C475.2,558,392.4,600,300,600c-103.5,0-194.7-52.2-248.4-132c13.2,5.1,27.9,8.1,42.9,9
	c4.8,0.3,9.9,0.6,14.7,0.6c2.4,0,5.1,0,7.5,0h3.9h0.9h0.3h0.6h0.3h1.8c11.7-0.899,22.2-3.899,32.7-7.5c10.2-3.6,19.8-7.8,29.4-12
	c9.6-4.199,18.9-9,27.9-13.5c18.6-9,36.9-18,55.5-25.5c9.3-3.899,18.6-7.5,28.2-10.8l3.6-1.2l0.9-0.3l0,0h0.3h0.6l1.801-0.6l3.6-1.2
	l3.3-0.9l3.3-0.899l3.301-0.9c2.399-0.6,4.5-1.2,6.899-1.8c9-2.1,18-3.6,27-4.8c9-0.9,17.7-1.2,26.4-0.601
	c8.7,0.301,17.1,1.801,25.2,3.301c8.1,1.8,15.899,4.199,23.399,7.199s14.7,6.601,21.3,10.2c6.601,3.9,13.2,8.1,18.9,12.3
	c3,2.101,5.7,4.5,8.7,6.601c2.7,2.1,5.399,4.5,8.1,6.899c5.101,4.5,9.9,9,14.101,13.5c8.699,9,15.899,17.4,21.3,24.601
	C524.1,483.9,527.4,488.7,530.1,492.3z" class="color c2"/>
</svg>