<svg version="1.1" id="图层_1" x="0px" y="0px" width="177.957px" height="159.473px" viewBox="0 0 177.957 159.473" enable-background="new 0 0 177.957 159.473" xml:space="preserve" xmlns="http://www.w3.org/2000/svg" xmlns:xlink="http://www.w3.org/1999/xlink" xmlns:xml="http://www.w3.org/XML/1998/namespace">
  <path fill="#5C0631" d="M83.027,101.915c-1.011-0.387-1.979-0.931-2.794-1.628c-0.542-0.31-1.083-0.697-1.474-1.201
	c-0.349-0.426-0.583-0.852-0.851-1.357c-1.011-0.426-1.668-1.202-2.289-2.134c-0.543-0.774-0.97-1.55-1.435-2.327
	c-1.011-1.666-2.019-3.37-3.025-5.038c-2.056-3.528-4.149-7.06-6.516-10.436c-0.813-1.123-1.589-2.207-2.441-3.335
	c-0.116-0.19-0.232-0.347-0.425-0.541l0,0c-0.159-0.232-0.354-0.504-0.585-0.735c-0.389-0.506-0.775-0.969-1.201-1.474
	c-1.743-1.9-3.568-3.684-5.583-5.234c-0.157-0.117-0.545-0.426-0.659-0.503c-0.272-0.194-0.504-0.353-0.813-0.505
	c-0.505-0.351-1.011-0.66-1.552-0.972c-1.089-0.62-2.212-1.201-3.335-1.822c-0.542-0.31-1.089-0.62-1.71-0.891
	c-0.23-0.118-0.502-0.233-0.813-0.35c-0.075-0.078-0.194-0.116-0.27-0.155c-0.08-0.039-0.426-0.192-0.506-0.192
	c-1.125-0.62-2.324-1.166-3.566-1.166c-0.737,0-0.737-1.046-0.041-1.046c1.05-0.039,2.019-0.27,3.066-0.506
	c1.047-0.19,2.054-0.27,3.1-0.19c1.087,0.115,2.288,0.231,3.373,0.502c1.087,0.271,2.094,0.775,3.181,1.24
	c1.902,0.972,3.648,2.289,5.272,3.646c1.552,1.281,3.066,2.717,4.384,4.189c3.762,4.266,6.98,9.037,9.929,13.923
	c1.436,2.287,2.792,4.612,4.15,6.979c0.035,0.036,0.075,0.036,0.075,0.075c0.155-0.696,0.502-1.396,0.813-2.017
	c1.552-2.519,3.803-4.612,6.362-6.164c2.327-1.473,5.467-2.638,8.374-2.328c1.514,0.156,2.989,0.466,4.267,1.318
	c1.241,0.895,2.366,2.094,2.792,3.645c0.311,0.971-0.814,1.978-1.782,1.396c-0.74-0.466-1.281-0.929-2.095-1.317
	c-0.156-0.04-0.156-0.079-0.271-0.155c0.311,0.155,0.23,0.115-0.274-0.039c0.505,0.194-0.116-0.037-0.191-0.037
	c-0.388-0.157-0.736-0.233-1.123-0.272c-0.117-0.038-0.159-0.038-0.233-0.038c-0.118,0-0.235,0-0.351,0
	c-0.312-0.042-0.657-0.042-0.931,0c-0.153,0-0.427,0.038-0.621,0.038c-0.036,0-0.657,0.077-0.772,0.115
	c-0.661,0.194-1.281,0.389-1.941,0.659c-0.037,0-0.037,0-0.078,0c-0.116,0.077-0.232,0.118-0.428,0.194
	c-0.27,0.116-0.62,0.271-0.813,0.387c-0.695,0.35-1.28,0.737-1.861,1.163c-0.191,0.157-0.425,0.31-0.62,0.467
	c-0.076,0.038-0.502,0.428-0.581,0.503c-0.465,0.466-1.01,0.932-1.437,1.477c-0.23,0.231-0.386,0.462-0.581,0.696
	c-0.076,0.115-0.191,0.234-0.27,0.349c-0.156,0.272-0.312,0.506-0.506,0.815c0,0.077-0.036,0.117-0.079,0.153
	c-0.152,0.505-0.269,0.971-0.426,1.472c-0.038,0.311-0.116,0.622-0.152,0.933c0,0.042,0,0.118,0,0.194c0,0.039,0,0.115-0.041,0.115
	c-0.039,0.543-0.075,1.126-0.075,1.71c-0.042,0.31-0.042,0.657,0,1.006c0,0.116,0.036,0.542,0.036,0.618
	c0.08,0.389,0.232,0.816,0.39,1.205c0.038,0.078,0.038,0.194,0.038,0.271c0.039,0.039,0.078,0.115,0.115,0.154
	c0.039,0.039,0.039,0.115,0.078,0.194c0.037,0,0.08,0.076,0.116,0.076c0,0.04,0.078,0.077,0.115,0.155
	c0.234,0.154,0.505,0.274,0.778,0.391c0.116,0.074,0.269,0.151,0.388,0.23c0.075,0.04,0.075,0.04,0.115,0.04c0,0,0,0,0.039,0
	c0.581,0.191,1.084,0.386,1.668,0.544c0.194,0,0.271,0.037,0.389,0.037c0.268,0.039,0.736,0.078,0.502,0.039
	c-0.425-0.039,0.351,0,0.466,0c0.271,0,0.542,0,0.815-0.076c0,0,0.271-0.042,0.194,0c0.076,0,0.152-0.042,0.269-0.042
	c0.504-0.152,0.66-0.152,1.125-0.502c0.776-0.661,1.979,0.116,1.473,1.123C89.54,102.615,85.819,103.004,83.027,101.915z
	 M130.914,61.354c-1.667-0.312-3.409,0.118-4.923,0.659c-1.745,0.58-3.374,1.396-4.847,2.327c-2.792,1.862-5.156,4.11-7.019,6.942
	c-1.746,2.635-2.986,5.659-4.15,8.648c-0.581,1.436-1.085,2.944-1.627,4.417c-0.271,0.699-0.581,1.397-0.814,2.135
	c-0.116,0.311-0.271,0.657-0.388,1.007c-0.039,0.077-0.039,0.077-0.039,0.119c0,0-0.039,0-0.039,0.036
	c-0.116,0.232-0.231,0.466-0.311,0.699c-0.696,1.705-1.473,3.336-2.443,4.888c-0.465,0.772-1.008,1.55-1.55,2.323
	c-0.117,0.116-0.194,0.231-0.31,0.391c0.115-0.08-0.273,0.386-0.311,0.462c-0.35,0.391-0.659,0.895-1.046,1.32
	c-0.353,0.39-0.665,0.776-0.932,1.162c-0.194,0.234-0.389,0.468-0.544,0.737c0,0-0.387,0.425-0.427,0.505
	c-0.62,0.852-1.317,1.707-1.978,2.561c-0.696,0.889-1.316,1.705-2.018,2.636c-0.541,0.775-0.851,1.552-1.319,2.327
	c-0.347,0.581,0.312,1.086,0.815,0.813c0.736-0.31,1.357-0.541,1.978-0.968c0.815-0.507,1.552-1.047,2.327-1.631
	c1.317-1.162,2.675-2.403,3.995-3.682c1.317-1.32,2.404-2.792,3.566-4.266c0.894-1.24,1.785-2.599,2.561-3.954
	c1.553-2.873,2.559-6.012,3.414-9.115c0.426-1.511,0.813-3.025,1.278-4.536c0.194-0.697,0.426-1.397,0.62-2.133
	c0.154-0.391,0.311-0.697,0.426-1.047c0.079-0.195,0.079-0.391,0.193-0.542c0-0.116,0.038-0.234,0.156-0.351
	c0-0.038,0.041-0.116,0.041-0.116c1.24-3.179,3.1-6.01,5.621-8.375c1.317-1.319,2.83-2.521,4.381-3.607
	c1.668-1.126,3.646-1.589,5.544-1.668C131.343,62.4,131.577,61.472,130.914,61.354z M80.623,106.839
	c0.036,0.388,0,0.893-0.078,1.242c-0.037,0.311-0.08,0.35-0.196,0.582c0.08-0.232-0.036,0.078-0.036,0.078
	c-0.079,0.077-0.115,0.194-0.155,0.311c0,0,0,0-0.039,0.037c-0.079,0.193-0.195,0.349-0.271,0.544c0,0-0.041,0-0.041,0.039l0,0
	c-0.078,0.077-0.115,0.151-0.271,0.232c-0.119,0.155-0.233,0.31-0.386,0.465c-0.119,0.076-0.195,0.116-0.274,0.194
	c-0.077,0.04-0.465,0.388-0.116,0.116c-0.115,0.116-0.309,0.271-0.503,0.387l0,0c-0.155,0.157-0.387,0.31-0.542,0.426
	c-0.466,0.31-0.895,0.583-1.32,0.895c-0.931,0.542-1.784,1.162-2.637,1.745c-1.746,1.24-3.567,2.906-4.498,4.962
	c-1.163,2.791-0.542,5.699,1.086,8.222c0.699,0.971,1.396,1.901,2.208,2.79c0.311,0.389,0.663,0.779,0.972,1.166
	c-0.076,0,0.311,0.425,0.311,0.501c0.154,0.235,0.35,0.469,0.464,0.701c0.155,0.193,0.275,0.388,0.351,0.58
	c0.039,0,0.076,0.076,0.115,0.117c-0.115-0.078,0.041,0.231,0.041,0.312c0.078,0.268,0.193,0.502,0.271,0.813
	c0.039,0.077,0.039,0.233,0.075,0.312c0,0.039,0.042,0.154,0.042,0.232c0.077,0.541,0.077,1.084,0.038,1.629
	c0,0.311,0,0.581-0.038,0.852c0.038-0.192-0.078,0.544-0.117,0.62c-0.234,1.241-0.622,2.443-0.972,3.605
	c-0.502,1.398-0.889,2.289-1.433,3.688c0,0.037-0.039,0.076-0.077,0.192c-0.157,0.271-0.273,0.543-0.389,0.813
	c-0.079,0.31-0.156,0.582-0.273,0.894c-0.231,0.622-0.502,1.241-0.657,1.86c-0.271,1.085-0.62,2.174-0.892,3.296
	c-0.311,1.242,1.473,1.979,2.019,0.856c0.735-1.321,1.508-2.522,2.323-3.803c0.779-1.474,1.551-2.909,2.211-4.498
	c1.281-3.063,2.479-6.398,2.213-9.811c-0.235-3.296-2.058-5.815-4.034-8.338c0.311,0.427-0.039,0-0.08-0.076
	c-0.151-0.118-0.229-0.233-0.347-0.389c-0.158-0.271-0.39-0.542-0.584-0.815c-0.152-0.311-0.309-0.541-0.463-0.853
	c-0.039-0.154-0.117-0.31-0.233-0.426c0,0-0.039-0.039-0.039-0.079c-0.037-0.079-0.037-0.114-0.037-0.195
	c-0.158-0.31-0.234-0.619-0.31-0.967c0-0.039,0-0.194-0.079-0.311c0-0.039,0-0.115,0-0.154c-0.037-0.234-0.037-0.467,0-0.697
	c0-0.118,0.079-0.195,0.079-0.311c0.037-0.194,0.115-0.35,0.151-0.505c0-0.039,0-0.078,0.042-0.115
	c0.153-0.311,0.386-0.62,0.58-0.895c0.039-0.036,0.039-0.077,0.114-0.116c0.079-0.154,0.274-0.311,0.389-0.465
	c0.311-0.308,0.585-0.582,0.853-0.853c1.242-1.165,2.641-2.172,3.879-3.337c1.202-1.084,2.327-2.324,2.908-3.837
	c0.697-1.628,0.621-3.219-0.271-4.73C81.358,106.104,80.545,106.296,80.623,106.839z M113.777,153.723
	c-0.736-1.436-1.743-2.752-2.791-3.994c-2.02-2.482-4.575-4.69-7.214-6.474c-1.241-0.854-2.558-1.631-3.8-2.445
	c-0.66-0.388-1.241-0.816-1.825-1.242c-0.269-0.194-0.502-0.426-0.852-0.657c0,0-0.116-0.079-0.194-0.155
	c-0.116-0.118-0.231-0.233-0.427-0.388c-0.462-0.467-0.932-1.048-1.395-1.55c0-0.039-0.039-0.079-0.039-0.079s0,0-0.04-0.037
	c-0.077-0.158-0.193-0.31-0.27-0.468c-0.271-0.387-0.387-0.773-0.546-1.163c0-0.038-0.035-0.155-0.114-0.231
	c-0.078-0.157-0.078-0.311-0.115-0.467c-0.04-0.27-0.116-0.544-0.116-0.813c0,0-0.039-0.271-0.039-0.35c0-0.194,0-0.389,0-0.542
	c0-0.426,0.039-0.852,0.039-1.279c0.036-0.156,0.076-0.352,0.116-0.546l0,0c0-0.038,0-0.038,0-0.077
	c0.078-0.426,0.229-0.851,0.311-1.28c0.193-0.888,0.504-1.704,0.813-2.518c0.658-1.628,1.395-3.219,2.056-4.849
	c1.356-3.219,2.753-6.359,2.753-9.887c0-0.696-0.893-0.816-1.163-0.196c-0.584,1.318-1.357,2.56-2.171,3.802
	c-0.816,1.396-1.631,2.753-2.562,4.109c-1.784,2.754-3.413,5.818-4.342,9.037c-0.893,3.334-0.582,7.055,1.396,9.963
	c1.86,2.794,4.574,4.54,7.483,6.092c3.103,1.666,6.087,3.334,8.877,5.623c2.6,2.208,5.046,5.232,6.556,8.375
	c0.351,0.852,1.824,0.35,1.55-0.581C115.212,156.865,114.515,155.236,113.777,153.723z M67.399,36.654
	c-1.397,6.203-1.709,12.681-0.157,18.845c0.815,2.988,2.135,5.896,3.918,8.452c1.704,2.523,3.84,4.81,6.555,6.322
	c4.846,2.677,10.587,2.288,15.509,0.039c2.368-1.049,4.461-2.598,6.244-4.459c0.852-0.972,1.667-2.055,2.327-3.181
	c0.311-0.504,0.502-1.009,0.775-1.551c0.116-0.231,0.232-0.506,0.311-0.777c0-0.038,0.037-0.153,0.116-0.19
	c-0.116,0.076-0.116,0.115-0.155,0.19c0.234-0.426,0.35-0.851,0.465-1.278c0.195-0.622,0.311-1.2,0.39-1.821
	c0.037-0.272,0.037-0.544,0.076-0.777c-0.039,0.583,0.039-0.192,0.039-0.426c-0.039-0.349-0.039-0.657-0.078-0.969
	c-0.037-0.851-0.116-1.204-0.311-2.093c-0.155-0.7-0.389-1.357-0.658-1.978c-0.389-0.895-1.708-0.816-1.708,0.268
	c0,0.62-0.116,1.241-0.192,1.786c0,0.31,0,0.31-0.076,0.659c0,0.116-0.079,0.271-0.079,0.389c0,0.465,0,0.542,0,0.309
	c-0.039,0.076-0.078,0.194-0.078,0.271c-0.038,0.194-0.116,0.425-0.153,0.66c0,0-0.195,0.465-0.234,0.581s-0.076,0.231-0.118,0.389
	c-0.076,0.271-0.152,0.542-0.308,0.815c-0.039,0.037-0.039,0.152-0.076,0.23c-0.042,0.116-0.079,0.231-0.118,0.348
	c-0.271,0.504-0.502,1.01-0.812,1.515c-0.119,0.231-0.235,0.463-0.391,0.696c-0.116,0.155-0.194,0.235-0.311,0.351
	c-0.039,0.075-0.116,0.23-0.155,0.312c-0.076,0.035-0.115,0.115-0.154,0.151c-0.041,0.079-0.116,0.158-0.155,0.234
	c0,0-0.039,0.04-0.077,0.118c-0.232,0.192-0.389,0.427-0.543,0.657c-0.426,0.466-0.855,0.892-1.318,1.321
	c-0.194,0.191-0.427,0.387-0.66,0.577c-0.039,0-0.076,0.043-0.115,0.081c-0.039,0.077-0.154,0.153-0.234,0.194
	c-0.463,0.346-1.008,0.695-1.51,1.046c-0.506,0.271-1.009,0.58-1.515,0.852c-0.195,0.115-0.39,0.195-0.62,0.274
	c0,0-0.037,0.035-0.116,0.035c-0.156,0.08-0.347,0.158-0.505,0.234c-0.58,0.193-1.047,0.388-1.627,0.503
	c-0.312,0.079-0.545,0.157-0.813,0.193c-0.157,0.04-0.738,0.156-0.814,0.156c-1.086,0.155-2.174,0.155-3.22,0.076
	c-0.039,0-0.039,0-0.079,0c-0.075,0-0.152,0-0.271,0c-0.271-0.076-0.502-0.152-0.776-0.232c-0.619-0.114-1.162-0.27-1.782-0.503l0,0
	c-0.116-0.037-0.231-0.076-0.35-0.154c-0.234-0.115-0.502-0.273-0.813-0.388c-0.158-0.155-0.47-0.312-0.7-0.467
	c-0.155-0.075-0.271-0.154-0.388-0.271c-0.039,0-0.078-0.039-0.117-0.078c-0.505-0.387-0.967-0.774-1.394-1.242
	c-0.234-0.229-0.506-0.501-0.7-0.772c-0.154-0.115-0.271-0.274-0.388-0.39c-0.038-0.079-0.311-0.348-0.348-0.426
	c-0.892-1.125-1.667-2.367-2.327-3.646c-0.155-0.31-0.309-0.62-0.465-0.932c0-0.078-0.037-0.154-0.116-0.229
	c-0.08-0.158-0.08-0.236-0.116-0.39c-0.274-0.699-0.584-1.396-0.777-2.134c-0.233-0.659-0.386-1.356-0.543-2.053
	c-0.076-0.351-0.192-0.7-0.231-1.011c-0.036-0.194-0.036-0.388-0.116-0.541c0-0.079,0-0.158,0-0.234c0,0,0,0,0-0.039
	c-0.465-2.985-0.389-6.049-0.078-9.033c0.039-0.04,0.039-0.04,0.039-0.077v-0.043c0.039-0.151,0.039-0.346,0.039-0.541
	c0.08-0.347,0.116-0.736,0.155-1.085c0.116-0.775,0.308-1.55,0.465-2.364c0.348-1.516,0.773-3.024,1.127-4.5
	c0.463-1.473,0.929-2.985,1.509-4.381c0.159-0.35,0.273-0.697,0.391-1.007c0.036-0.039,0.078-0.158,0.078-0.235
	c0.076-0.155,0.192-0.271,0.192-0.426c0.31-0.737,0.62-1.434,0.892-2.134c2.946-6.515,7.213-12.291,10.934-18.302
	c0.505-0.736,1.01-1.514,1.436-2.248c0.195-0.271,0.426-0.582,0.582-0.932c0.697,0.892,1.396,1.782,2.096,2.715
	c1.008,1.474,2.015,3.023,2.908,4.575c1.819,3.142,3.488,6.438,5.039,9.771c1.591,3.374,3.182,6.709,4.81,10.007
	c1.549,3.178,3.14,6.358,4.267,9.73c0.66,2.018,1.085,4.113,1.279,6.242c0.152,2.289,0.312,4.693-0.078,6.943
	c-0.116,1.086,1.437,1.553,1.631,0.465c0.463-1.9,0.889-3.762,1.004-5.74c0.078-1.818-0.115-3.644-0.425-5.428
	c-0.579-3.489-1.785-6.825-3.178-10.083c-1.476-3.45-3.338-6.784-4.887-10.234c-1.552-3.298-3.104-6.633-4.771-9.852
	c-1.163-2.288-2.445-4.498-3.918-6.59c-1.474-2.137-3.024-4.267-4.885-5.976c-0.774-0.62-1.863-0.502-2.326,0.311
	c-0.468,0.778-1.126,1.437-1.706,2.135c-0.696,0.852-1.357,1.629-2.017,2.48c-1.358,1.628-2.678,3.295-3.877,5.005
	c-2.136,2.908-4.15,5.854-5.818,9.033C71.082,24.788,68.758,30.642,67.399,36.654z M102.957,60.191
	C102.997,60.111,102.997,60.074,102.957,60.191L102.957,60.191z M177.143,52.822c-0.235-0.387-0.426-0.736-0.701-1.084
	c-0.541-0.852-1.125-1.667-1.783-2.445c-1.161-1.395-2.481-2.555-3.917-3.645c-3.062-2.404-6.592-4.304-10.198-5.623
	c-7.291-2.674-15.315-1.666-22.491,0.778c-3.255,1.047-6.398,2.44-9.422,4.032c-2.949,1.512-5.894,3.063-8.57,4.926
	c-0.583,0.387-0.195,1.433,0.505,1.162c1.783-0.621,3.45-1.356,5.116-2.095c1.747-0.736,3.53-1.396,5.313-2.056
	c3.57-1.317,7.175-2.559,10.858-3.371c3.454-0.738,6.94-1.125,10.704-0.815c0.891,0.077,1.316,0.116,2.327,0.31
	c0.967,0.153,1.938,0.387,2.791,0.657c0.465,0.116,0.854,0.275,1.316,0.391c0.233,0.115,0.469,0.195,0.62,0.271
	c0,0,0.47,0.156,0.507,0.156c0.893,0.389,1.782,0.852,2.637,1.318c1.238,0.579,2.404,1.278,3.489,2.016
	c0.542,0.349,1.048,0.736,1.631,1.086c0.114,0.076,0.231,0.154,0.347,0.234c0,0.036,0.079,0.036,0.079,0.075
	c0.037,0,0.076,0.039,0.153,0.077c0.31,0.233,0.582,0.467,0.814,0.699c1.047,0.853,2.094,1.705,3.104,2.635
	c0.505,0.545,1.046,1.01,1.513,1.552c0.039,0,0.039,0,0.075,0c-5.698,2.327-10.47,6.322-15.355,9.93
	c-2.789,2.095-5.778,4.071-8.918,5.581c-3.142,1.437-6.552,2.02-9.929,2.096c-2.095,0-4.148-0.195-6.201-0.62
	c-2.174-0.466-4.15-1.318-6.323-1.708c-0.891-0.114-1.783,1.012-0.967,1.748c0.693,0.58,1.356,1.046,2.169,1.435
	c0.813,0.387,1.785,0.658,2.714,0.89c1.746,0.504,3.569,0.814,5.468,0.969c3.529,0.43,7.215,0.076,10.742-0.854
	c6.746-1.82,12.332-6.553,17.874-10.662c3.609-2.713,7.41-5.196,11.675-6.786c0.813-0.311,1.397-1.317,0.813-2.133
	C177.452,53.6,177.294,53.21,177.143,52.822z M50.764,69.341c-2.212,0.39-4.189,1.207-6.322,1.669
	c-2.056,0.389-4.109,0.62-6.203,0.62c-3.413-0.037-6.824-0.62-9.891-2.057c-3.219-1.51-6.164-3.486-8.918-5.581
	c-5.002-3.607-9.731-7.603-15.395-9.93h0.04c0.466-0.542,1.009-1.007,1.511-1.51c1.008-0.931,2.055-1.785,3.101-2.641
	c0.273-0.23,0.584-0.462,0.816-0.696c0.115-0.039,0.115-0.077,0.154-0.077c0.041-0.039,0.076-0.078,0.119-0.114
	c0.116-0.08,0.192-0.158,0.347-0.234c0.505-0.35,1.046-0.737,1.591-1.086c1.122-0.737,2.289-1.437,3.526-2.016
	c0.816-0.467,1.709-0.93,2.641-1.318c0,0,0.462-0.196,0.462-0.156c0.156-0.075,0.39-0.155,0.585-0.233
	c0.463-0.117,0.852-0.268,1.317-0.388c0.971-0.271,1.86-0.503,2.829-0.697c1.008-0.193,1.437-0.232,2.327-0.31
	c3.84-0.31,7.291,0.077,10.704,0.815c3.761,0.813,7.289,2.093,10.855,3.371c1.785,0.66,3.568,1.319,5.313,2.056
	c1.71,0.774,3.336,1.514,5.119,2.095c0.736,0.231,1.124-0.775,0.546-1.201c-2.757-1.824-5.665-3.375-8.574-4.887
	c-3.062-1.592-6.163-2.985-9.383-4.073c-7.25-2.442-15.278-3.451-22.569-0.737c-3.604,1.319-7.133,3.219-10.197,5.623
	c-1.436,1.09-2.714,2.25-3.916,3.645c-0.659,0.778-1.241,1.594-1.786,2.406c-0.268,0.387-0.502,0.697-0.696,1.123
	C0.662,53.21,0.545,53.6,0.235,53.948c-0.581,0.815,0,1.822,0.814,2.133c4.228,1.627,8.065,4.073,11.671,6.786
	c5.547,4.109,11.17,8.842,17.915,10.662c3.492,0.93,7.175,1.241,10.742,0.854c1.862-0.154,3.685-0.465,5.468-0.969
	c0.895-0.271,1.9-0.503,2.714-0.89c0.814-0.389,1.437-0.854,2.136-1.435C52.547,70.353,51.695,69.227,50.764,69.341z
	 M127.622,40.415c-0.429,1.01,0.968,1.587,1.625,0.968c2.678-2.521,4.113-6.125,4.887-9.694c0.778-3.604,0.621-7.25,0.079-10.854
	c-0.541-3.183-1.396-6.479-2.87-9.426c-0.62-1.202-1.511-2.289-2.713-3.024c-1.28-0.814-2.986-0.814-4.421-0.348
	c-1.473,0.387-2.792,1.278-4.034,2.132c-1.317,0.97-2.675,2.017-3.84,3.182c-1.163,1.083-2.364,2.247-3.449,3.41
	c-1.087,1.086-1.979,2.327-2.945,3.453c-0.431,0.542,0.19,1.278,0.812,0.931c3.064-1.746,5.777-3.919,8.725-5.976
	c1.397-0.967,2.907-1.897,4.458-2.674c0.158-0.115,0.312-0.191,0.507-0.27c0.039,0,0.078-0.04,0.114-0.04
	c0.041,0,0.041,0,0.158-0.041c0.31-0.151,0.657-0.229,0.93-0.31l0,0c0.037,0,0.037,0,0.037,0c0.155,0,0.311,0,0.466,0l0,0
	c0.077,0,0.195,0.04,0.234,0.04c-0.039,0,0.116,0.04,0.268,0.118c0.119,0.076,0.311,0.268,0.43,0.387c0,0,0,0.039,0.04,0.076
	c0.075,0.039,0.114,0.157,0.151,0.233c0.235,0.271,0.391,0.582,0.545,0.852c0.076,0.079,0.076,0.155,0.118,0.235
	c-0.042-0.08,0.076,0.231,0.115,0.31c0.116,0.312,0.231,0.62,0.387,0.931c0.195,0.736,0.467,1.473,0.661,2.209
	c1.083,3.491,1.666,6.555,1.743,10.043c0.117,2.288-0.116,4.111-0.696,6.323C129.558,35.954,128.511,38.164,127.622,40.415z
	 M52.353,11.833c0.116,0,0.273,0,0.464,0l0,0c0,0,0,0,0.041,0c0.31,0.08,0.656,0.158,0.968,0.273
	c0.039,0.036,0.115,0.036,0.158,0.036l0.037,0.041c0.231,0.075,0.389,0.155,0.583,0.233c1.474,0.853,2.983,1.783,4.419,2.75
	c2.948,2.057,5.661,4.229,8.804,5.976c0.581,0.348,1.162-0.389,0.736-0.895c-0.931-1.162-1.862-2.403-2.872-3.45
	c-1.122-1.162-2.288-2.327-3.487-3.413c-1.24-1.201-2.561-2.248-3.879-3.218c-1.24-0.854-2.558-1.745-4.072-2.132
	c-1.475-0.467-3.063-0.467-4.459,0.348c-1.122,0.735-2.017,1.822-2.637,3.024c-1.437,2.947-2.365,6.243-2.831,9.426
	c-0.582,3.644-0.736,7.251,0.037,10.854c0.778,3.53,2.212,7.174,4.851,9.694c0.696,0.619,2.056,0.042,1.703-0.931
	c-0.93-2.288-1.936-4.498-2.598-6.861c-0.542-2.212-0.772-4.035-0.657-6.323c0.115-3.488,0.657-6.552,1.703-10.043
	c0.273-0.736,0.429-1.473,0.7-2.209c0.155-0.311,0.231-0.619,0.35-0.931c0.04-0.078,0.191-0.39,0.156-0.31
	c0-0.08,0.113-0.156,0.113-0.235c0.156-0.27,0.313-0.58,0.543-0.852c0-0.076,0.042-0.155,0.118-0.233
	c0-0.037,0.04-0.076,0.077-0.076c0.078-0.119,0.31-0.311,0.426-0.387c0.116-0.078,0.39-0.118,0.273-0.118
	C52.197,11.874,52.273,11.833,52.353,11.833L52.353,11.833z" class="color c1"/>
</svg>