<svg version="1.1" id="图层_1" x="0px" y="0px" width="117.663px" height="75.813px" viewBox="0 0 117.663 75.813" enable-background="new 0 0 117.663 75.813" xml:space="preserve" xmlns="http://www.w3.org/2000/svg" xmlns:xlink="http://www.w3.org/1999/xlink" xmlns:xml="http://www.w3.org/XML/1998/namespace">
  <path fill="#1F2120" d="M105.96,41.473c-0.086-0.014-0.142-0.022-0.142-0.022c12.315-2.854,0.357-8.565,2.32-8.925
	c0.087-0.016,0.2-0.001,0.311,0.01c0.077,0.008,0.155,0.018,0.243,0.037c0.087,0.021,0.182,0.05,0.279,0.081s0.194,0.063,0.3,0.106
	c0.105,0.042,0.218,0.094,0.331,0.146c0.112,0.053,0.225,0.104,0.345,0.166c0.121,0.063,0.248,0.134,0.375,0.206
	c0.124,0.069,0.247,0.139,0.375,0.216c0.134,0.081,0.271,0.169,0.41,0.258c0.131,0.084,0.261,0.166,0.395,0.257
	c0.143,0.096,0.288,0.199,0.433,0.302c0.134,0.096,0.268,0.189,0.404,0.289c0.147,0.108,0.294,0.224,0.442,0.337
	c0.135,0.104,0.27,0.207,0.405,0.315c0.148,0.118,0.294,0.241,0.44,0.363c0.132,0.11,0.264,0.219,0.394,0.331
	c0.145,0.126,0.285,0.255,0.427,0.383c0.125,0.113,0.252,0.226,0.374,0.34c0.138,0.131,0.268,0.261,0.399,0.392
	c0.116,0.114,0.234,0.229,0.344,0.342c0.127,0.132,0.243,0.263,0.362,0.394c0.102,0.111,0.208,0.224,0.303,0.334
	c0.113,0.131,0.21,0.259,0.312,0.387c0.084,0.106,0.176,0.215,0.252,0.318c0.095,0.129,0.171,0.252,0.252,0.377
	c0.063,0.096,0.135,0.195,0.189,0.288c0.074,0.127,0.123,0.244,0.179,0.364c0.038,0.081,0.088,0.168,0.117,0.245
	c0.048,0.128,0.065,0.241,0.087,0.357c0.011,0.059,0.037,0.124,0.041,0.18c0.012,0.164-0.006,0.315-0.062,0.447
	c-0.037,0.09-0.098,0.17-0.169,0.246c-0.018,0.02-0.036,0.038-0.056,0.057c-0.077,0.071-0.164,0.139-0.27,0.199
	c-0.003,0.001-0.007,0.003-0.01,0.005c-0.105,0.06-0.228,0.11-0.359,0.159c-0.036,0.014-0.074,0.026-0.112,0.039
	c-0.13,0.043-0.268,0.083-0.417,0.117c-0.022,0.005-0.044,0.01-0.067,0.015c-0.146,0.031-0.303,0.058-0.466,0.082
	c-0.059,0.009-0.119,0.018-0.18,0.025c-0.151,0.02-0.307,0.036-0.468,0.05c-0.069,0.006-0.14,0.012-0.21,0.017
	c-0.151,0.011-0.306,0.02-0.464,0.025c-0.086,0.004-0.174,0.007-0.263,0.01c-0.143,0.004-0.287,0.006-0.434,0.007
	c-0.202,0.001-0.406,0.001-0.614-0.002c-0.031-0.001-0.061-0.001-0.091-0.001c-0.139-0.003-0.278-0.008-0.418-0.012
	c-0.053-0.002-0.105-0.004-0.159-0.006c-0.139-0.005-0.278-0.011-0.418-0.018c-0.046-0.002-0.093-0.005-0.14-0.008
	c-0.663-0.034-1.326-0.085-1.958-0.145c-0.028-0.002-0.056-0.005-0.083-0.008c-0.15-0.014-0.298-0.028-0.444-0.043
	c-0.02-0.002-0.039-0.004-0.059-0.006c-0.631-0.065-1.218-0.136-1.721-0.2c-0.01-0.002-0.021-0.003-0.031-0.004
	c-0.117-0.016-0.229-0.03-0.336-0.045c-0.024-0.003-0.048-0.006-0.072-0.01c-0.097-0.013-0.192-0.026-0.281-0.038
	c-0.013-0.002-0.024-0.004-0.037-0.006c-0.194-0.027-0.367-0.052-0.508-0.073l0,0c-0.066-0.01-0.123-0.019-0.175-0.026
	c-0.014-0.002-0.03-0.004-0.043-0.007C106.028,41.483,105.991,41.478,105.96,41.473z M0.29,41.396
	c0.077,0.071,0.164,0.139,0.27,0.199c0.003,0.001,0.007,0.003,0.01,0.005c0.105,0.06,0.228,0.11,0.359,0.159
	c0.036,0.014,0.074,0.026,0.112,0.039c0.13,0.043,0.268,0.083,0.417,0.117c0.022,0.005,0.044,0.01,0.067,0.015
	c0.146,0.031,0.303,0.058,0.466,0.082c0.059,0.009,0.119,0.018,0.18,0.025c0.151,0.02,0.307,0.036,0.468,0.05
	c0.069,0.006,0.14,0.012,0.21,0.017c0.151,0.011,0.306,0.02,0.464,0.025c0.086,0.004,0.174,0.007,0.263,0.01
	c0.143,0.004,0.287,0.006,0.434,0.007c0.202,0.001,0.406,0.001,0.614-0.002c0.031-0.001,0.061-0.001,0.091-0.001
	c0.139-0.003,0.278-0.008,0.418-0.012c0.053-0.002,0.105-0.004,0.159-0.006c0.139-0.005,0.278-0.011,0.418-0.018
	c0.046-0.002,0.093-0.005,0.14-0.008c0.663-0.034,1.326-0.085,1.958-0.145c0.028-0.002,0.056-0.005,0.083-0.008
	c0.15-0.014,0.298-0.028,0.444-0.043c0.02-0.002,0.039-0.004,0.059-0.006c0.631-0.065,1.218-0.136,1.721-0.2
	c0.01-0.002,0.021-0.003,0.031-0.004c0.117-0.016,0.229-0.03,0.336-0.045c0.024-0.003,0.048-0.006,0.072-0.01
	c0.097-0.013,0.192-0.026,0.281-0.038c0.013-0.002,0.024-0.004,0.037-0.006c0.188-0.026,0.353-0.05,0.491-0.07
	c0.006-0.001,0.014-0.002,0.02-0.003c0.064-0.01,0.12-0.019,0.172-0.026c0.015-0.002,0.031-0.004,0.044-0.007
	c0.042-0.006,0.078-0.012,0.109-0.017c0.086-0.014,0.142-0.022,0.142-0.022c-12.315-2.854-0.357-8.565-2.321-8.925
	c-0.087-0.016-0.2-0.001-0.311,0.01c-0.077,0.008-0.156,0.018-0.243,0.037c-0.088,0.021-0.183,0.05-0.28,0.081
	c-0.097,0.031-0.194,0.063-0.299,0.105c-0.106,0.043-0.219,0.095-0.333,0.147c-0.112,0.052-0.224,0.104-0.343,0.165
	c-0.122,0.063-0.249,0.135-0.377,0.207c-0.124,0.069-0.246,0.138-0.374,0.215c-0.134,0.081-0.272,0.17-0.411,0.259
	c-0.13,0.083-0.26,0.166-0.394,0.256c-0.143,0.096-0.288,0.199-0.434,0.303c-0.134,0.095-0.268,0.188-0.403,0.288
	c-0.147,0.108-0.295,0.224-0.443,0.338c-0.135,0.104-0.27,0.206-0.404,0.313c-0.148,0.119-0.294,0.242-0.441,0.365
	c-0.131,0.109-0.263,0.218-0.393,0.33c-0.146,0.126-0.286,0.255-0.428,0.384c-0.125,0.112-0.252,0.226-0.373,0.339
	c-0.138,0.131-0.268,0.261-0.399,0.392c-0.116,0.114-0.234,0.229-0.345,0.342c-0.127,0.132-0.243,0.263-0.362,0.394
	c-0.102,0.111-0.208,0.224-0.303,0.334c-0.113,0.132-0.21,0.259-0.313,0.388c-0.084,0.105-0.175,0.214-0.251,0.317
	c-0.095,0.129-0.171,0.252-0.252,0.377c-0.063,0.096-0.135,0.195-0.189,0.288c-0.074,0.127-0.123,0.244-0.179,0.364
	c-0.038,0.081-0.088,0.168-0.117,0.245c-0.048,0.128-0.065,0.241-0.087,0.357c-0.011,0.059-0.037,0.124-0.041,0.18
	c-0.012,0.164,0.006,0.315,0.062,0.447c0.037,0.09,0.098,0.17,0.169,0.246C0.251,41.358,0.27,41.377,0.29,41.396z M90.149,70.717
	c-0.959,0.376-1.952,0.729-2.961,1.065c-0.329,0.11-0.668,0.211-1.002,0.316c-0.7,0.222-1.407,0.437-2.127,0.64
	c-0.392,0.11-0.789,0.216-1.187,0.321c-0.704,0.185-1.417,0.359-2.137,0.526c-0.395,0.092-0.787,0.186-1.187,0.271
	c-0.834,0.181-1.682,0.345-2.536,0.5c-0.288,0.053-0.57,0.113-0.859,0.163c-1.136,0.195-2.288,0.368-3.452,0.521
	c-0.32,0.042-0.646,0.073-0.969,0.111c-0.863,0.104-1.73,0.198-2.605,0.277c-0.438,0.04-0.879,0.072-1.319,0.105
	c-0.784,0.06-1.571,0.109-2.362,0.149c-0.458,0.023-0.917,0.046-1.377,0.062c-0.83,0.03-1.664,0.045-2.5,0.053
	c-0.449,0.005-0.896,0.017-1.347,0.014c-0.216-0.001-0.432-0.005-0.648-0.008c-0.825-0.009-1.652-0.029-2.48-0.061
	c-0.208-0.008-0.415-0.013-0.622-0.022c-0.99-0.044-1.981-0.102-2.973-0.177c-0.169-0.013-0.339-0.03-0.509-0.044
	c-0.846-0.068-1.692-0.149-2.537-0.242c-0.238-0.025-0.477-0.051-0.715-0.079c-0.996-0.116-1.991-0.245-2.983-0.395
	c-0.064-0.01-0.128-0.021-0.193-0.031c-0.926-0.142-1.849-0.302-2.77-0.473c-0.245-0.046-0.49-0.092-0.734-0.14
	c-0.923-0.18-1.844-0.371-2.759-0.582c-0.061-0.014-0.123-0.025-0.184-0.04c-0.972-0.226-1.937-0.473-2.897-0.733
	c-0.231-0.063-0.462-0.129-0.693-0.193c-0.812-0.229-1.618-0.469-2.418-0.722c-0.166-0.053-0.333-0.102-0.498-0.155
	c-0.936-0.303-1.862-0.625-2.781-0.964c-0.199-0.074-0.396-0.151-0.594-0.227c-0.76-0.288-1.513-0.589-2.259-0.902
	c-0.205-0.086-0.411-0.17-0.615-0.258c-0.893-0.385-1.776-0.786-2.646-1.208c-0.14-0.067-0.276-0.141-0.416-0.209
	c-0.744-0.367-1.479-0.75-2.204-1.146c-0.214-0.117-0.429-0.233-0.642-0.353c-0.137-0.077-0.269-0.161-0.406-0.239
	c-0.702-0.401-1.402-0.802-2.084-1.229c-0.029-0.019-0.058-0.039-0.087-0.058c-0.78-0.492-1.542-1.007-2.293-1.535
	c-0.203-0.143-0.404-0.287-0.605-0.432c-0.689-0.498-1.366-1.01-2.028-1.54c-0.088-0.07-0.179-0.137-0.267-0.207
	c-0.732-0.595-1.443-1.213-2.14-1.847c-0.177-0.16-0.35-0.325-0.523-0.488c-0.569-0.533-1.125-1.079-1.667-1.64
	c-0.137-0.142-0.278-0.279-0.414-0.423c-0.644-0.683-1.267-1.386-1.87-2.108c-0.134-0.161-0.263-0.328-0.395-0.491
	c-0.488-0.602-0.961-1.218-1.42-1.848c-0.141-0.193-0.284-0.386-0.423-0.582c-0.547-0.777-1.075-1.571-1.575-2.391
	c-0.078-0.127-0.149-0.26-0.226-0.389c-0.427-0.714-0.833-1.445-1.223-2.191c-0.122-0.233-0.243-0.467-0.361-0.702
	c-0.441-0.882-0.865-1.776-1.253-2.702c0,0,0.029,0.005,0.07,0.011c0.008,0.002,0.009,0.002,0.019,0.003
	c0.053,0.009,0.127,0.02,0.231,0.034c0.008,0.001,0.016,0.002,0.024,0.003c0.097,0.014,0.216,0.03,0.352,0.047
	c0.016,0.002,0.028,0.004,0.045,0.006c0.147,0.019,0.314,0.039,0.502,0.06c0.023,0.003,0.046,0.005,0.07,0.008
	c0.39,0.043,0.861,0.089,1.405,0.132c0.034,0.003,0.067,0.006,0.102,0.008c0.555,0.044,1.182,0.083,1.874,0.113
	c0.038,0.002,0.074,0.004,0.112,0.005c0.346,0.015,0.705,0.026,1.081,0.036c0.036,0,0.074,0.001,0.11,0.002
	c0.363,0.008,0.739,0.013,1.127,0.015c0.03,0,0.059,0,0.088,0c0.042,0,0.082,0.001,0.124,0.001c0.364,0,0.741-0.005,1.125-0.012
	c0.072-0.001,0.146-0.003,0.218-0.005c0.377-0.008,0.764-0.02,1.159-0.036c0.07-0.003,0.139-0.005,0.21-0.008
	c0.451-0.02,0.913-0.045,1.384-0.076c0.071-0.005,0.143-0.011,0.214-0.016c0.412-0.029,0.832-0.063,1.257-0.102
	c0.097-0.009,0.193-0.017,0.291-0.026c0.492-0.047,0.991-0.1,1.498-0.161c0.058-0.007,0.117-0.016,0.175-0.022
	c0.454-0.057,0.915-0.12,1.38-0.189c0.112-0.017,0.225-0.033,0.338-0.051c0.526-0.081,1.058-0.169,1.597-0.269
	c0.024-0.004,0.048-0.01,0.072-0.014c0.507-0.094,1.02-0.199,1.536-0.311c0.125-0.026,0.248-0.053,0.373-0.081
	c1.09-0.243,2.197-0.525,3.313-0.854c0.128-0.037,0.255-0.075,0.383-0.114c0.519-0.156,1.039-0.321,1.56-0.498
	c0.044-0.016,0.088-0.028,0.133-0.044c0.56-0.191,1.121-0.398,1.682-0.614c0.127-0.05,0.254-0.101,0.381-0.15
	c0.489-0.194,0.978-0.396,1.466-0.61c0.085-0.037,0.171-0.071,0.256-0.109c0.557-0.248,1.113-0.511,1.667-0.785
	c0.12-0.06,0.239-0.121,0.358-0.182c0.47-0.239,0.938-0.487,1.405-0.747c0.109-0.061,0.218-0.119,0.327-0.181
	c0.546-0.31,1.089-0.635,1.628-0.975c0.107-0.067,0.212-0.139,0.319-0.207c0.454-0.292,0.904-0.596,1.352-0.91
	c0.123-0.086,0.246-0.17,0.367-0.258c0.527-0.38,1.05-0.773,1.566-1.186c0.085-0.067,0.168-0.14,0.253-0.209
	c0.442-0.359,0.88-0.732,1.313-1.117c0.126-0.112,0.253-0.224,0.379-0.339c0.501-0.456,0.996-0.927,1.482-1.419
	c0.051-0.052,0.101-0.107,0.151-0.159c0.438-0.449,0.868-0.917,1.293-1.396c0.122-0.139,0.244-0.277,0.365-0.418
	c0.467-0.543,0.928-1.099,1.376-1.681C61.197,6.468,54.771,1.112,59.59,0.042c0.125-0.028,0.247-0.04,0.365-0.042
	c0.066-0.001,0.129,0.007,0.193,0.014c0.041,0.005,0.083,0.005,0.124,0.013c0.068,0.013,0.134,0.035,0.2,0.057
	c0.035,0.012,0.071,0.02,0.105,0.033c0.071,0.029,0.14,0.067,0.209,0.106c0.027,0.016,0.056,0.027,0.083,0.045
	c0.076,0.048,0.15,0.106,0.224,0.167c0.019,0.016,0.038,0.027,0.056,0.043c0.086,0.075,0.171,0.16,0.254,0.252
	c0.005,0.005,0.01,0.01,0.015,0.016C62.821,2.306,63.875,6.176,65.653,11c0.017,0.045,0.033,0.089,0.049,0.134
	c0.088,0.238,0.179,0.479,0.271,0.721c0.028,0.076,0.056,0.15,0.085,0.226c0.086,0.225,0.174,0.451,0.263,0.679
	c0.037,0.095,0.073,0.188,0.11,0.282c0.084,0.213,0.171,0.428,0.258,0.644c0.046,0.113,0.091,0.226,0.138,0.34
	c0.083,0.203,0.169,0.407,0.255,0.612c0.054,0.128,0.107,0.255,0.162,0.383c0.085,0.199,0.172,0.398,0.26,0.599
	c0.06,0.136,0.119,0.271,0.18,0.407c0.087,0.195,0.177,0.392,0.268,0.588c0.066,0.145,0.132,0.288,0.2,0.434
	c0.09,0.191,0.182,0.383,0.275,0.575c0.072,0.15,0.145,0.302,0.22,0.453c0.092,0.188,0.188,0.376,0.283,0.564
	c0.081,0.158,0.161,0.316,0.243,0.476c0.096,0.185,0.194,0.37,0.293,0.555c0.086,0.161,0.172,0.322,0.26,0.484
	c0.101,0.185,0.205,0.37,0.309,0.556c0.092,0.163,0.184,0.327,0.279,0.49c0.105,0.184,0.213,0.366,0.322,0.549
	c0.099,0.167,0.199,0.333,0.3,0.5c0.11,0.181,0.223,0.361,0.336,0.543c0.106,0.168,0.212,0.336,0.321,0.504
	c0.116,0.18,0.234,0.359,0.353,0.538c0.113,0.17,0.227,0.339,0.342,0.508c0.121,0.177,0.245,0.354,0.369,0.53
	c0.121,0.171,0.242,0.341,0.366,0.511c0.127,0.176,0.257,0.351,0.388,0.525c0.128,0.17,0.257,0.34,0.388,0.51
	c0.133,0.173,0.269,0.345,0.406,0.517c0.136,0.171,0.274,0.341,0.414,0.511c0.139,0.169,0.28,0.339,0.424,0.508
	c0.145,0.17,0.291,0.34,0.439,0.509c0.076,0.087,0.149,0.175,0.226,0.262c0.071,0.079,0.146,0.157,0.217,0.236
	c0.153,0.169,0.31,0.338,0.467,0.507c0.152,0.162,0.306,0.325,0.462,0.486c0.163,0.168,0.328,0.336,0.495,0.503
	c0.16,0.159,0.32,0.318,0.483,0.477c0.172,0.166,0.347,0.331,0.523,0.496c0.167,0.155,0.334,0.312,0.505,0.466
	c0.182,0.164,0.368,0.327,0.554,0.49c0.173,0.15,0.347,0.302,0.524,0.451c0.193,0.162,0.39,0.322,0.587,0.482
	c0.181,0.146,0.361,0.293,0.545,0.438c0.203,0.159,0.41,0.316,0.618,0.473c0.189,0.143,0.378,0.285,0.571,0.426
	c0.213,0.155,0.431,0.308,0.649,0.461c0.197,0.137,0.394,0.275,0.595,0.41c0.224,0.151,0.454,0.3,0.683,0.448
	c0.205,0.133,0.41,0.266,0.619,0.396c0.236,0.147,0.479,0.292,0.721,0.437c0.212,0.126,0.423,0.253,0.64,0.378
	c0.249,0.143,0.504,0.282,0.76,0.422c0.22,0.121,0.439,0.242,0.664,0.36c0.261,0.138,0.529,0.271,0.795,0.405
	c0.23,0.115,0.458,0.231,0.692,0.344c0.274,0.132,0.555,0.259,0.834,0.388c0.238,0.108,0.475,0.219,0.717,0.325
	c0.288,0.125,0.583,0.247,0.877,0.369c0.246,0.103,0.49,0.205,0.741,0.305c0.301,0.119,0.61,0.233,0.917,0.349
	c0.256,0.097,0.509,0.193,0.77,0.286c0.316,0.113,0.641,0.221,0.964,0.328c0.263,0.089,0.523,0.179,0.791,0.264
	c0.333,0.106,0.674,0.206,1.014,0.308c0.271,0.08,0.54,0.164,0.815,0.241c0.347,0.098,0.704,0.189,1.059,0.282
	c0.28,0.073,0.557,0.149,0.842,0.22c0.368,0.091,0.746,0.175,1.121,0.26c0.284,0.064,0.564,0.132,0.853,0.193
	c0.386,0.082,0.783,0.157,1.178,0.233c0.292,0.057,0.579,0.117,0.876,0.17c0.403,0.073,0.819,0.138,1.231,0.204
	c0.3,0.049,0.595,0.102,0.899,0.147c0.43,0.063,0.872,0.119,1.311,0.177c0.3,0.039,0.593,0.083,0.897,0.119
	c0.462,0.055,0.938,0.101,1.41,0.148c0.294,0.029,0.583,0.063,0.881,0.091c0.503,0.046,1.021,0.081,1.536,0.118
	c0.281,0.02,0.554,0.045,0.838,0.063c0.568,0.036,1.151,0.061,1.734,0.085c0.244,0.011,0.48,0.026,0.727,0.035
	c0.834,0.03,1.682,0.05,2.545,0.058C117.458,44.48,117.458,60.009,90.149,70.717z M60.573,65.102
	c-0.357-7.496-1.071-59.258-1.071-59.258s-3.928,28.559-13.208,44.622c-9.281,16.063-37.125-4.284-23.561,7.14
	C36.297,69.028,60.929,72.599,60.573,65.102z" class="color c1"/>
</svg>