<svg version="1.1" id="图层_1" x="0px" y="0px" width="600px" height="600px" viewBox="0 0 600 600" enable-background="new 0 0 600 600" xml:space="preserve" xmlns="http://www.w3.org/2000/svg" xmlns:xlink="http://www.w3.org/1999/xlink" xmlns:xml="http://www.w3.org/XML/1998/namespace">
  <path fill="#31699C" d="M195.3,539.7c1.5,0.899,1.8,2.7,0.9,4.2c-0.3,0.6-4.2,6.6-9.3,6.6l0,0c-6,0-8.7-4.8-8.7-7.8
	c0-1.5,1.2-3,2.7-3c1.5-0.3,3,1.2,3,2.7c0,1.199,0.6,2.399,3,2.399l0,0c1.2,0,3.3-2.1,4.2-3.6C192,539.4,193.8,539.1,195.3,539.7z
	 M297,241.2c-10.8-1.2-15.3,3.6-16.5,5.4c2.4,3.6,6,5.7,11.1,6.6c5.1,0.9,9.3-0.3,13.2-2.4v-0.3c0,0,0.601-3.3-1.2-5.7
	C302.1,242.7,300,241.5,297,241.2z M396,439.8c-25.5-4.5-49.5,20.4-49.8,20.7c-0.9,1.2-2.7,1.2-3.9,0.3c-6-4.5-13.2-8.1-14.7-6.899
	c-1.199,0.899-2.699,3-4.199,5.699c1.8,1.5,3.899,3,6,4.5c3.3,2.4,6.3,4.5,9,7.2h0.3c1.2,0.9,12,7.8,12.899,16.8h15
	c4.2,0,8.101,0,12,0c15.301,0,36.301,0.301,39-2.399c1.5-1.5,1.801-2.7,1.5-3.601c-0.3-2.399-2.699-4.8-5.699-7.5
	c-10.5-2.699-17.101-0.6-23.101,1.5c-3,0.9-6,2.101-9,2.101c-0.6,0-1.2,0-1.8-0.3c-0.6,0-1.2-0.301-1.5-0.601l-8.4,3.601
	c-0.3,0.3-0.899,0.3-1.199,0.3c-1.2,0-2.101-0.601-2.7-1.8c-0.601-1.5,0-3.301,1.5-3.9l5.399-2.4c-0.6-0.899-0.899-1.8-1.5-3
	c-0.3-1.199-0.6-2.1-0.6-3.3l-7.2-0.899c-1.5-0.301-2.7-1.801-2.7-3.301c0.301-1.5,1.801-2.7,3.301-2.7l7.8,0.9
	c0.3-0.6,0.899-1.2,1.2-1.8c3.3-3.3,14.1-3.9,21-3.601c0.3-2.1,0.899-4.5,1.8-6.899c0.899-2.7,2.1-6.601,1.5-8.101
	C397.5,440.1,396.6,439.8,396,439.8z M130.5,223.2c2.7,0,5.1-2.4,5.1-5.1c0-2.7-2.4-5.1-5.1-5.1s-5.1,2.4-5.1,5.1
	C125.7,220.8,127.8,223.2,130.5,223.2z M321.6,119.4c1.5-1.5,3.301-2.7,4.801-4.2c10.8-9.6,29.699-26.1,39.3-38.1
	c-8.4,4.5-21.3,12.3-33.9,23.7c-9.6,9-10.8,14.4-10.8,16.8C321.3,118.2,321.3,118.8,321.6,119.4z M156.3,203.4
	c1.5,0,2.7-1.2,2.7-2.7s-1.2-2.7-2.7-2.7s-2.7,1.2-2.7,2.7C153.9,202.2,155.1,203.4,156.3,203.4z M496.2,74.4
	c2.399,1.2,4.2,3.3,4.5,5.7c2.1,8.7-3.3,18.9-16.8,31.8c-12.301,11.7-24.9,22.5-36.9,33c-16.8,14.7-32.7,28.5-45.6,42.6
	c-22.801,25.2-31.801,42.3-30.9,59.7c0.3,5.4,3.6,10.2,6.3,14.4c1.8,2.7,4.2,6.3,3.9,7.8c0,0.3-0.9,0.9-1.8,1.5
	c-4.5,1.8-13.801,2.1-25.5,2.1c-22.2,0.6-52.5,1.2-85.2,12c-12,3.9-20.7,7.5-29.4,11.1c-13.2,5.4-24.6,10.2-43.8,14.4
	c-1.5,0.3-3,0.6-4.5,0.9C178.8,312.6,165,311.1,161.4,297.3c-3.6-14.4,9.6-30.6,16.2-38.4c5.1-5.1,9.3-9.9,11.1-15
	c1.5-4.5,0-9-1.8-13.5c-2.7-6.9-5.4-15,0.3-25.8c9-16.8,21.6-24.3,34.8-32.1c10.5-6.3,12-12.9,13.2-19.2c0.6-3.3,1.2-6.9,3.6-10.5
	c5.1-8.7,13.2-14.1,23.4-20.7c2.7-1.8,5.4-3.6,8.4-5.4c3.3-2.4,6.9-4.8,10.5-7.2c13.5-9.3,28.8-20.1,46.2-30.6
	c21-12.6,35.101-17.7,43.5-20.1c4.2-1.2,8.101-1.8,11.4-1.8c3.899,0,7.5,0.9,9.899,2.4c2.4,1.5,3.9,4.2,4.5,7.2
	c1.801,13.5-24.899,39.9-46.199,61.2c-1.2,1.2-2.4,2.4-3.601,3.3l0,0c-21.899,21.6-33.6,34.5-30.3,42.6c2.4,5.4,10.2,5.1,12.6,5.1
	c26.7-0.6,69.301-26.7,100.2-48.3l6.601-4.8C461.1,108,478.2,96,483,86.7c0.3-0.3,0.6-0.9,0.9-1.5c0.899-2.4,1.199-4.2,0.3-6.3
	c-0.3-0.6-0.601-0.9-0.9-1.2l0,0c0,0-0.3,0-0.6-0.3l0,0c-1.5-0.9-6.601-2.1-17.7,4.5c-8.1,4.8-20.7,16.8-30,26.4
	c-20.1,13.8-39.6,29.4-41.4,38.4c-27.899,16.8-49.8,25.8-64.5,26.1c-6.3,0.3-6.899-1.2-7.199-1.5c-1.801-4.5,14.1-21,27.899-34.8
	c18,2.7,42.601-14.1,69-32.1c16.2-11.1,33-22.5,46.8-27.9C478.2,72,489.9,71.1,496.2,74.4z M322.8,204c0.601,0.9,1.5,1.2,2.4,1.2
	c0.6,0,1.2-0.3,1.8-0.6l15.9-11.1c1.5-0.9,1.8-2.7,0.899-4.2c-0.899-1.2-2.7-1.8-4.2-0.9L323.7,199.5
	C322.2,201,321.6,202.8,322.8,204z M250.8,155.7c0.6,2.4,2.7,5.1,8.1,6.3c1.2,0.3,2.4,0.3,3.9,0.3c13.2,0,33-12.6,67.5-42.6
	C363.9,90.3,381,72.6,376.8,61.8c-0.3-0.6-0.6-0.9-0.899-1.2l0,0c0,0-0.301,0-0.601-0.3c0,0,0,0-0.3,0c-1.8-0.9-6.6-1.8-17.7,4.8
	c-10.8,6.6-26.399,26.1-32.7,34.5c-6.899,6.9-9.899,13.2-9.6,18.6c0.3,2.4,0.9,3.9,1.8,5.1c-22.2,18.9-44.7,35.4-57,33
	c-2.1-0.3-3.3-1.2-3.6-2.1c-0.9-3.6,5.1-11.4,9.3-15.6c1.2-1.2,1.2-3,0-4.2c-1.2-1.2-3-1.2-4.2,0
	C259.5,136.2,248.7,147.6,250.8,155.7z M303.6,196.5l-9.6-20.4c-0.6-1.5-2.4-2.1-3.9-1.5s-2.1,2.4-1.5,3.9l9.6,20.4
	c0.6,1.2,1.5,1.8,2.7,1.8c0.3,0,0.899,0,1.199-0.3C303.6,199.8,304.2,198,303.6,196.5z M194.4,264.9c5.1,1.2,9.9,1.8,14.7,1.8
	c4.8,0,9-0.6,13.5-1.8c1.5-0.3,2.4-2.1,2.1-3.6c-0.3-1.5-2.1-2.4-3.6-2.1c-7.8,2.1-15.9,2.1-25.5,0c-1.5-0.3-3.3,0.6-3.6,2.4
	C191.7,263.1,192.6,264.6,194.4,264.9z M236.7,281.4c-0.6-1.5-2.4-2.1-3.9-1.5c-13.5,5.7-27.9,7.5-40.8,5.4c-1.5-0.3-3,0.9-3.3,2.4
	c-0.3,1.5,0.9,3,2.4,3.3c3.6,0.6,7.5,0.9,11.1,0.9c10.8,0,21.9-2.4,32.7-6.9C236.7,284.7,237.3,282.9,236.7,281.4z M241.5,232.5
	c0-4.8-3.9-8.7-8.7-8.7c-4.8,0-8.7,3.9-8.7,8.7s3.9,8.7,8.7,8.7C237.6,241.2,241.5,237.3,241.5,232.5z M284.7,214.2h0.3
	c0.9,0,2.1-0.6,2.7-1.5c0.6-0.9,0.6-2.4-0.3-3.3l-17.7-24c-0.9-1.2-2.7-1.5-4.2-0.6c-1.2,0.9-1.5,2.7-0.6,4.2l13.8,18.6l-36-4.8
	c-1.5-0.3-3,0.9-3.3,2.7c-0.3,1.5,0.9,3,2.7,3.3L284.7,214.2z M327.3,225c-0.6-0.6-1.2-1.2-2.1-1.2l-48.3-6
	c-1.5-0.3-2.7,0.6-3.3,2.1c-0.3,0.6-5.7,18,1.2,29.7c3.3,5.4,8.4,8.7,15.3,9.9c1.5,0.3,3,0.3,4.5,0.3c22.8,0,32.1-30.6,32.7-32.1
	C327.9,226.5,327.6,225.6,327.3,225z M369.3,258.6H348.9c-1.5,0-3,1.2-3,3c0,1.5,1.199,3,3,3H369.3c1.5,0,3-1.2,3-3
	C372,259.8,370.8,258.6,369.3,258.6z M370.2,193.2c-0.9-1.5-2.7-1.8-4.2-0.9l-36,21.9c-1.2,0.6-1.5,1.8-1.2,3
	c0.3,1.2,1.2,2.1,2.4,2.4l28.2,3.6h0.3c1.5,0,2.7-1.2,3-2.7s-0.9-3-2.7-3.3l-20.1-2.7l29.1-17.7
	C370.8,196.5,371.1,194.7,370.2,193.2z M95.1,178.8c-1.5,0-2.7,1.2-2.7,2.7s1.2,2.7,2.7,2.7s2.7-1.2,2.7-2.7S96.6,178.8,95.1,178.8z
	 M232.8,229.8c-1.5,0-2.7,1.2-2.7,2.7s1.2,2.7,2.7,2.7s2.7-1.2,2.7-2.7S234.3,229.8,232.8,229.8z M468.6,94.5
	c-18.899,10.8-51.3,32.1-63.899,45.6c6.899-4.5,14.1-9.3,21.6-14.4l6.601-4.8C444.3,113.1,459,102.9,468.6,94.5z M297.3,463.5
	c-0.9,0.9-1.2,3-0.6,4.8c0.6,1.5,1.8,3.3,3.6,3.601c2.101,0.3,4.8-0.601,8.101-1.5c3.899-1.2,9-3,15.3-3c-2.7-2.101-5.4-3.9-7.2-6
	C307.8,461.4,298.8,462,297.3,463.5z M313.8,371.4l9-1.801c0.601,0,1.5,0,2.101,0.301l9.3,5.399l9-6.899
	c0-1.801-0.3-3.601-0.601-5.4H330l-10.5-1.8c0,0.3,0,0.3,0,0.6c0.3,0.9,0,1.5-0.6,2.4L313.8,371.4z M321.3,451.8
	c0.9-0.899,1.5-1.8,2.4-2.7c0.899-0.6,2.1-0.899,3.3-1.199c3.6-12.601,9.9-23.7,15.9-34.2c9-15.3,17.399-29.7,16.199-48.3
	c-1.5-21.9-18.899-36.6-35.399-51c-5.101-4.2-9.9-8.4-14.4-12.9c2.4,3.3,5.7,6.9,9.601,11.1c7.5,8.101,16.8,18.601,23.1,30.601
	c8.1,15.6,9.3,32.1,4.2,49.8c-3.9,12.6-15,31.5-23.101,45c1.801,3.6,0.301,8.4-1.199,12.3C321.6,450.9,321.3,451.5,321.3,451.8z
	 M378,463.5c-0.9,0.9-1.2,3-0.3,4.8c0.6,1.5,1.8,3.3,3.6,3.601c2.101,0.3,4.8-0.601,8.101-1.5c3.899-1.2,9-3,15.3-3
	c-2.7-2.101-5.101-3.9-7.2-6C388.2,461.4,379.5,462,378,463.5z M428.7,540.9c-0.9,1.5-3,3.6-4.2,3.6c-2.1,0-2.7-1.2-3-2.4
	c0-1.5-1.5-3-3-2.699c-1.5,0-3,1.5-2.7,3c0.3,3.3,2.7,7.8,8.7,7.8l0,0c5.1,0,9-6,9.3-6.601c0.9-1.5,0.3-3.3-0.899-4.199
	C431.4,539.1,429.6,539.4,428.7,540.9z M210.6,534.9c-0.9,5.399-3.3,10.5-6,14.399c13.5-2.399,39-3,57.9-3.3
	c26.7-0.6,137.1-1.5,142.8-1.5c-0.6-3-0.6-6.3-0.3-9.6H210.6z M424.8,485.7c-0.6,1.5-1.5,2.7-2.7,4.2
	c-3.6,3.6-13.5,4.199-31.5,4.199c-3.6,0-7.5,0-12,0c-3.899,0-8.1,0-12,0H351c-0.6,2.101-1.8,3.9-3,5.4c21.9,0,49.2,0,58.2,0
	c12.6,0.3,19.8-1.5,20.1-9.9c0-1.199-0.3-2.399-0.899-3.6H424.8V485.7z M411,366.9l10.8-7.5c1.2-0.9,3-0.601,3.9,0.6l1.2,1.5
	c0-2.1,0-4.5,0-6.6l-9-3v3.6c0,0.9-0.601,1.8-1.2,2.4c-0.9,0.6-1.8,0.6-2.7,0.3l-7.2-2.7l4.5,4.5c0.601,0.9,0.9,1.8,0.9,2.7
	L411,366.9z M167.7,542.4c-6.3,0-30,0.3-38.1,0.899c-1.5,0-3,0.3-4.8,0.3C49.2,489.3,0,400.5,0,300C0,134.4,134.4,0,300,0
	c71.4,0,136.8,24.9,188.4,66.6c-7.2-0.3-15.601,1.2-24.9,4.8c-14.4,5.7-31.5,17.1-48,28.5c-21.9,15-44.4,30.3-59.7,31.2
	c24.3-24,48.9-48.9,46.8-65.1c-0.6-4.8-3-8.7-6.899-11.4c-6-3.9-15-4.5-26.101-1.5c-12.3,3.3-27.899,10.5-45,20.7
	c-17.699,10.5-33,21.3-46.5,30.9c-3.6,2.4-7.2,4.8-10.5,7.2c-2.7,2.1-5.7,3.6-8.1,5.4c-10.5,6.9-19.5,12.6-25.2,22.8
	c-2.7,4.5-3.6,8.7-4.2,12.3c-1.2,6-2.1,10.2-10.2,15.3c-13.2,8.1-26.4,16.8-36.9,34.5c-8.1,13.8-8.7,28.5-6,35.7
	c1.5,3.9,2.7,7.2,1.8,9.6c-1.5,4.8-1.8,5.1-7.8,11.1c-10.5,10.2-23.7,23.1-22.8,40.5c0.3,5.4,2.7,9.9,6.9,13.2c6,4.5,15,6.3,24,6.3
	c6.3,0,12.6-0.899,17.7-1.8c2.4-0.6,4.8-1.2,6.9-1.5c8.4,9.9,18.6,16.5,28.8,22.8c7.8,4.801,15,9.601,21.6,15.601
	c12.6,11.7,19.8,19.8,16.5,36.6c-0.6,3.601-2.1,6.9-3.3,10.2l-2.7,5.7c-1.8,3.6-3.9,7.2-6.3,10.5c-6,9.899-12.3,19.8-13.8,32.1
	c-0.3,0-0.6,0.3-0.9,0.3c-5.1,3.9-11.7,18.301-12.3,29.4c0,0.3-0.3,0.6-0.3,0.9h-45.9c-6,0-11.7-4.5-18-9.301
	c-7.2-5.699-14.7-11.399-24.3-11.399l0,0c-6.3,0-11.7,2.1-15.9,6.3c-4.8,4.8-7.5,12.3-7.5,20.7c0,18,12,45.899,45.6,48.6h3
	C167.4,537.6,167.4,540,167.7,542.4z M147.9,200.7c0,4.8,3.9,8.7,8.7,8.7c4.8,0,8.4-3.9,8.4-8.7c0-4.8-3.9-8.7-8.4-8.7
	C151.8,192,147.9,195.9,147.9,200.7z M181.5,429.3c0-1.5-1.2-3-3-3h-5.7c-1.5,0-3,1.2-3,3c0,1.5,1.2,3,3,3h5.7
	C180.3,432.3,181.5,430.8,181.5,429.3z M193.8,413.7c-1.5,0-3,1.2-3,3c0,1.5,1.2,3,3,3h23.1c1.5,0,3-1.2,3-3c0-1.5-1.2-3-3-3H193.8z
	 M135.6,378c-1.5,0-3,1.2-3,3c0,1.5,1.2,3,3,3h57.3c1.5,0,3-1.2,3-3c0-1.5-1.2-3-3-3H135.6z M119.7,218.1c0,6,4.8,11.1,11.1,11.1
	c6,0,11.1-4.8,11.1-11.1c0-6-4.8-11.1-11.1-11.1C124.5,207,119.7,212.1,119.7,218.1z M101.1,393.6c0-1.5-1.2-3-3-3H84
	c-1.5,0-3,1.2-3,3c0,1.5,1.2,3,3,3h14.4C99.9,396.6,101.1,395.4,101.1,393.6z M103.8,181.2c0-4.8-3.9-8.7-8.7-8.7
	c-4.8,0-8.7,3.9-8.7,8.7c0,4.8,3.9,8.7,8.7,8.7C99.9,189.9,103.8,186,103.8,181.2z M407.4,505.2c-0.301,0-0.601,0-0.9,0
	c-9.3,0-39,0-61.2,0h-18c0,0,0,0-0.3,0s-0.6,0-0.9,0c-0.3,0-0.3,0-0.6,0h-2.1c-11.4,0-38.101,0-58.8,0H246l-18.9-0.601
	c0,0-34.8,1.5-34.8-8.399c0-9.601,30-10.5,36.6-10.5h-43.8c-8.1,0-15-5.4-21.6-10.5c-6.3-5.101-13.2-10.2-20.7-10.2l0,0
	c-0.3,0-0.3,0-0.3,0c-0.9,1.2-2.1,3-3,5.4c-1.8,4.5-1.8,9.3-1.8,9.3l0,0c0,0.3,0,0.3,0,0.6c-0.6,8.7,3.6,19.8,10.5,27
	c3.9,4.2,10.2,9,18.9,9h19.8h259.8h19.8c18.9,0,39.9-22.5,44.4-37.2c0.6-1.5,2.1-2.399,3.6-2.1c1.5,0.6,2.4,2.1,2.1,3.6
	c-5.1,16.801-28.5,41.4-50.1,41.4h-19.8H186.9h-19.8c-8.7,0-16.5-3.9-23.4-11.1c-2.7-3-5.1-6.301-6.9-9.601c-0.9,7.8,3,15,6.6,19.8
	c5.7,3.9,12.9,6.9,21.9,7.5h17.1l0,0h281.4c30.601-2.399,51-27.6,57.3-43.8c2.7-6.899,3-12.899,0.601-16.5c-2.101-3-6-3.899-9-3.899
	l0,0c-7.8,0-16.5,5.399-25.2,10.5c-8.7,5.399-17.1,10.199-25.2,10.199H432c0.3,1.2,0.6,2.7,0.6,3.9
	C431.7,504.6,416.4,505.2,407.4,505.2z M507.3,83.1c0.3,9.9-5.7,20.4-19.2,33.3c-12.3,12-24.899,22.8-37.199,33.3
	c-16.801,14.4-32.4,28.2-45,42c-21.601,23.7-30.301,39.9-29.4,55.5c0.3,3.6,3,7.8,5.4,11.4c3,4.5,6,8.7,4.5,12.9
	c0,0.3-0.301,0.6-0.301,0.6c16.801,14.1,29.4,30,39,50.4c9.301,19.2,10.5,46.5,3.301,66.6c-4.801,13.2-10.2,21.9-15.301,30
	c-3.6,5.7-6.899,11.4-10.5,18.601c0,0,0.301,0,0.301,0.3c2.1,3.6,0.6,8.7-0.9,12.9c-0.6,1.8-1.8,5.1-1.5,6c1.8,2.1,5.4,4.8,9.3,7.5
	c3.3,2.399,6.3,4.5,9,6.899h0.3c0.9,0.601,6,3.601,9.301,8.4H462c6.3,0,14.1-4.5,21.9-9.601C493.2,464.4,502.8,458.7,512.1,458.7
	l0,0c6.301,0,11.101,2.1,13.801,6.3c2.399,3.6,4.5,10.5,0.3,21.9c-6.9,17.699-29.1,45-62.7,47.699h-15.899
	c-2.4,14.101-12.9,24.9-24.301,25.801l0.301,0.3c0,0-93.601,0.3-130.201-0.3c-32.1-0.301-82.2-1.2-95.1-5.101
	c-3.9,3.3-8.7,5.101-13.5,5.101l0,0c0,0-19.2,0.3-33.6,0C195.3,585.6,246,600,300,600c165.6,0,300-134.4,300-300
	C600,214.8,564.3,137.7,507.3,83.1z M420,325.2c3.3,6.899,5.4,15,6.6,23.399l-10.5-3.6c-0.899-0.3-1.8,0-2.699,0.3
	c-0.9,0.601-1.2,1.5-1.2,2.4v3.3l-15.9-6c-1.2-0.6-2.7,0-3.6,1.2c-0.9,1.2-0.601,2.7,0.3,3.6l13.2,13.2l-2.7,10.5
	c-0.3,1.2,0.3,2.4,1.2,3.3c0.6,0.3,1.2,0.601,1.8,0.601s1.2-0.301,1.8-0.601l15.3-10.5l3.601,3.9c-0.601,6-1.8,12-3.9,17.399
	c-4.5,12.601-9.6,20.4-14.7,28.801c-3.6,5.399-6.899,11.1-10.5,18.3c-0.3,0-0.6-0.3-0.899-0.3c-19.2-3.301-36.9,7.5-47.101,15.3
	c-0.3-0.9-0.899-1.8-1.8-2.1c-1.5-0.601-3.3,0.3-3.899,1.8c-0.601,1.8-1.2,3.6-1.5,5.1c-0.601-0.3-1.2-0.899-1.801-1.2
	c-0.3-3-0.3-8.699,2.101-16.8c3.6-11.1,9-18.9,12.6-28.199C360.6,396.6,363,388.2,363.9,381.6c0.899-5.1,1.5-10.199,1.199-15.899
	C364.2,351,357,339.301,347.4,329.1c-3-3.6-11.4-13.799-16.5-21.299C327,302.1,326.1,297.3,325.8,294.6c2.101,1.2,4.5,2.7,6.9,4.5
	c0.6,0.3,1.2,0.6,1.8,0.6c0.9,0,1.8-0.3,2.4-1.2c0.899-1.5,0.6-3.3-0.601-4.2c-3.899-3-7.5-5.1-10.2-6.3c-0.6-0.3-0.899-0.6-1.5-0.6
	c-3-0.3-18.6-0.9-23.1,5.4c-0.9,1.5-2.1,4.2-0.3,7.799c2.399,5.101,7.5,10.801,13.5,17.4c7.5,8.4,16.2,18,22.2,29.4
	c1.8,3.6,3.3,7.199,4.199,10.8h-10.8l-22.8-3.601c-1.5-0.299-2.7,0.601-3.3,1.801c-0.6,1.199,0,2.699,1.2,3.6l6.899,4.2l-7.8,10.8
	c-0.6,0.9-0.6,2.4,0,3.301c0.601,0.899,1.8,1.5,3,1.199l15-2.699l9.9,6c0.6,0.299,0.899,0.299,1.5,0.299c0.6,0,1.2-0.299,1.8-0.6
	l7.2-5.4c-0.3,5.101-1.2,10.201-2.7,15.601c-3.6,12-14.1,29.7-22.2,42.9c-0.6-0.301-0.899-0.601-1.5-0.601
	c-18.3-3.3-35.1,6.3-45.3,13.8c1.2-2.399,2.1-5.1,3.9-8.1l0,0l0,0c0.3-0.3,0.3-0.9,0.3-1.2c0-1.2-0.6-2.1-1.8-2.7
	c-1.5-0.6-3.3,0-3.9,1.5l0,0c-2.1,4.5-3.6,7.801-5.1,10.801c-0.3,0.899-0.3,1.5,0,2.399c0.3,0.601,0.9,1.2,1.5,1.5
	c-1.2,0.9-2.1,2.101-3,2.7c-2.1-1.5-4.5-3-7.5-4.5c0-2.4,0-6.9,2.4-14.4c3.6-11.1,9.6-17.999,13.5-27.3c3.9-9.3,5.1-16.5,5.4-21.3
	c1.8-16.8-6.9-26.399-18.9-37.8c-6.9-6.301-14.7-11.4-22.5-16.2c-1.2-0.601-2.1-1.5-3.3-2.101c-0.9-3.299-1.8-9.6,1.8-16.799
	c0.3-0.601,0.9-1.201,1.2-1.801c0.9,0.6,1.5,1.5,2.4,2.1c0.6,0.301,1.2,0.601,1.8,0.601c0.9,0,1.8-0.3,2.1-1.2
	c1.2-1.199,0.9-3-0.3-4.199c-0.9-0.601-1.5-1.5-2.4-2.101c1.8-1.5,3.6-3.3,5.7-4.8c3.3,4.199,4.2,8.1,3,13.8
	c-0.6,0.3-0.9,0.601-1.2,0.899c-0.3,0.601-0.6,1.201-0.6,1.801c0,0.9,0.3,1.8,1.2,2.4l0,0c2.1,1.799,4.2,3.299,6.6,4.799l3,2.101
	c0.6,0.3,1.2,0.601,1.8,0.601c0.9,0,1.8-0.601,2.4-1.201c0.9-1.199,0.6-3.299-0.6-4.199c-1.2-0.9-2.1-1.5-3.3-2.4
	c-1.2-0.9-2.4-1.8-3.9-3c2.1-7.8,0.9-13.8-3.3-19.5c1.8-1.2,3.9-2.1,5.7-3.3c4.5-1.8,9.3-3.6,14.7-5.4
	c32.101-10.5,61.8-11.1,83.4-11.7c12.899-0.3,22.2-0.6,27.6-2.7c0.3,0,0.3-0.3,0.601-0.3C398.1,289.8,410.4,305.4,420,325.2z
	 M281.4,350.4c0,0.6,0.3,1.5,0.6,1.8l0,0c2.4,3.3,4.5,6.3,6,9.3c0.6,0.9,1.5,1.8,2.7,1.8c0.6,0,0.9,0,1.2-0.3
	c0.6-0.3,1.2-0.9,1.5-1.8c0.3-0.601,0.3-1.5,0-2.4c-1.8-3.6-3.9-6.899-6.6-10.5c-0.9-1.2-3-1.5-4.2-0.6
	C282,348.6,281.7,349.5,281.4,350.4z M278.7,343.8c0.6-0.6,0.9-1.5,0.9-2.1c0-0.9-0.3-1.5-0.9-2.101c-2.7-2.399-5.7-5.1-9-7.8
	c-1.2-0.899-3-0.899-4.2,0.3c-0.3,0.601-0.6,1.2-0.6,1.801c0,0.899,0.3,1.8,1.2,2.399c3.3,2.7,6.3,5.101,8.7,7.8
	c0.6,0.601,1.2,0.9,2.1,0.9C277.2,344.7,278.1,344.4,278.7,343.8z M285.6,417c0-1.2-0.6-2.1-1.5-2.7c-1.5-0.6-3.3,0-3.9,1.5l0,0
	c-1.8,3.9-3.9,7.8-5.1,10.5c-0.3,0.601-0.3,1.5-0.3,2.4c0.3,0.899,0.9,1.5,1.5,1.8c0.3,0.3,0.9,0.3,1.5,0.3c1.2,0,2.1-0.6,2.7-1.5
	c2.1-4.199,3.9-7.5,5.4-10.8C285.6,417.9,285.6,417.6,285.6,417z M294.9,395.1c0-1.199-0.9-2.399-2.1-2.699
	c-1.5-0.601-3.3,0.6-3.6,2.1c-0.9,3.3-2.4,6.9-3.9,10.8c-0.6,1.5,0,3.3,1.5,3.9c0.3,0.3,0.6,0.3,1.2,0.3c1.2,0,2.1-0.6,2.7-1.8
	c1.5-3.9,3-7.8,4.2-11.4C294.6,395.7,294.9,395.4,294.9,395.1z M297.6,377.1c0-2.1,0-4.199-0.3-6c-0.3-1.5-1.8-2.699-3.3-2.699
	c-1.5,0.3-2.4,1.5-2.4,3c0,0.3,0,0.3,0,0.6c0.3,1.8,0.3,3.3,0.3,5.1c0,1.801,0,3.9-0.3,6c0,0.9,0,1.5,0.6,2.101
	c0.6,0.6,1.2,0.899,1.8,1.2h0.3c1.5,0,2.7-1.2,3-2.4C297.6,381.6,297.6,379.2,297.6,377.1z M371.7,339.3c0,0.601,0,0.9,0.3,1.5l0,0
	c1.8,3.601,3.3,7.2,4.2,10.5c0.3,1.2,1.5,2.101,3,2.101c0.3,0,0.6,0,0.899,0c1.5-0.601,2.4-2.101,2.101-3.601
	c-1.2-3.6-2.7-7.5-4.8-11.399c-0.9-1.5-2.7-2.101-3.9-1.2C372.3,337.2,371.7,338.1,371.7,339.3z M354.9,309c-3-2.7-6-5.4-9-8.1
	c-1.2-0.9-3.301-0.9-4.2,0.3c-0.601,0.6-0.601,1.2-0.601,1.8c0,0.9,0.301,1.8,0.9,2.4l0,0c3,2.399,6,5.1,8.7,7.8
	c0.6,0.6,1.2,0.899,2.1,0.899c0.9,0,1.5-0.3,2.101-0.899C356.1,312.3,356.1,310.2,354.9,309z M365.7,330.9
	c0.6,0.899,1.5,1.199,2.399,1.199c0.601,0,1.2-0.3,1.801-0.6c0.6-0.6,1.199-1.2,1.199-2.1c0.301-0.9,0-1.5-0.6-2.101
	c-2.1-3.3-4.8-6.3-7.5-9.6c-0.9-1.2-3-1.2-4.2-0.3c-0.6,0.6-0.899,1.199-0.899,2.1s0.3,1.5,0.6,2.1
	C361.2,324.9,363.6,327.9,365.7,330.9z M360,428.1c0-0.899-0.6-2.1-1.5-2.699c-1.5-0.601-3.3,0-3.9,1.199
	c-1.5,3-3.6,6.9-5.399,10.801c-0.3,0.6-0.3,1.5,0,2.1c0.3,0.9,0.899,1.5,1.5,1.8c0.3,0.3,0.899,0.3,1.2,0.3
	c1.199,0,2.1-0.6,2.699-1.8c1.5-3,3-6.3,5.101-10.5C360,429,360,428.7,360,428.1z M370.8,407.1c0-1.199-0.6-2.1-1.8-2.699
	c-1.5-0.601-3.3,0-3.9,1.5c-1.8,3.3-3.6,6.899-5.399,10.5c-0.3,0.6-0.3,1.5-0.3,2.1c0.3,0.9,0.899,1.5,1.5,1.8
	c0.6,0.3,0.899,0.3,1.5,0.3c1.199,0,2.1-0.6,2.699-1.5c1.801-3.6,3.601-6.899,5.4-10.5C370.8,408,370.8,407.4,370.8,407.1z
	 M380.1,385.2c0-1.2-0.899-2.4-2.1-2.7c-1.5-0.6-3.3,0.3-3.6,1.8c-1.2,3.3-2.4,6.9-4.2,10.8c-0.601,1.5,0,3.301,1.5,3.9
	c0.3,0.3,0.899,0.3,1.2,0.3c1.199,0,2.399-0.6,2.699-1.8c1.801-3.9,3.301-7.8,4.2-11.4C380.1,385.8,380.1,385.5,380.1,385.2z
	 M384,361.8c0-1.8-1.2-3-3-3c-0.9,0-1.5,0.3-2.1,0.9c-0.601,0.6-0.9,1.5-0.9,2.1c0,0.3,0,0.9,0,1.2c0,3.3-0.3,6.6-0.9,9.9
	c-0.3,1.5,0.9,3,2.4,3.3c0.3,0,0.3,0,0.6,0c1.5,0,2.7-1.2,3-2.4c0.601-3.899,0.9-7.5,0.9-11.1V361.8z M235.2,496.2
	c1.2,1.8,3.9,3,7.5,3h21.9c22.2,0,51.3,0,60.9,0h0.6c12.601,0,19.801-1.5,20.101-9.9c0-1.5-0.601-3-1.5-4.5
	c-0.601,1.8-1.5,3.3-3,4.8c-3.601,3.601-13.5,4.2-31.5,4.2c-3.601,0-7.5,0-12,0c-3.9,0-8.1,0-12,0h-10.8c-25.2,0-37.2,0-41.4-3.899
	C233.7,492.3,234,494.7,235.2,496.2z M315.3,439.8c-25.5-4.5-49.5,20.4-49.8,20.7c-1.2,1.2-2.7,1.2-3.9,0.3
	c-6-4.5-13.2-8.1-14.7-6.899l0,0c-4.2,3.3-9.6,16.5-9.9,25.5v0.3c0,2.7,0.3,4.8,1.2,6.3c2.4,2.1,21,2.1,37.2,2.1h10.8
	c4.2,0,8.1,0,12,0c15.3,0,36.3,0.301,39-2.399c1.5-1.8,1.8-2.7,1.5-3.601c-0.3-2.399-2.7-4.8-5.7-7.5c-10.5-2.699-17.1-0.6-23.1,1.5
	c-3,0.9-6,2.101-9,2.101c-0.601,0-1.2,0-1.801,0c-0.3,0-0.6-0.3-0.899-0.3l-8.7,3.899c-0.3,0.3-0.9,0.3-1.2,0.3
	c-1.2,0-2.1-0.6-2.7-1.8c-0.6-1.5,0-3.3,1.5-3.899l5.4-2.4c-0.6-0.9-1.5-2.1-1.8-3.6c-0.3-0.9-0.6-2.101-0.6-3l-8.4-0.9
	c-1.5-0.3-2.7-1.8-2.7-3.3c0.3-1.5,1.5-2.7,3.3-2.7l8.7,1.2c0.3-0.9,0.9-1.5,1.5-2.101c3.3-3.3,14.1-3.899,21-3.6
	c0.3-2.1,0.9-4.5,1.8-6.9c0.9-2.699,2.101-6.6,1.5-8.1C317.1,440.1,316.2,439.8,315.3,439.8z" class="color c1"/>
</svg>