<svg version="1.1" id="图层_1" x="0px" y="0px" width="85.744px" height="85.744px" viewBox="0 0 85.744 85.744" enable-background="new 0 0 85.744 85.744" xml:space="preserve" xmlns="http://www.w3.org/2000/svg" xmlns:xlink="http://www.w3.org/1999/xlink" xmlns:xml="http://www.w3.org/XML/1998/namespace">
  <path fill="#00AD9E" d="M42.872,0C19.194,0,0,19.194,0,42.872s19.194,42.872,42.872,42.872c23.679,0,42.872-19.194,42.872-42.872
	S66.551,0,42.872,0z M72.261,18.599c-3.098-2.789-5.72-4.555-6.342-4.964c-0.572-0.811-1.789-2.02-3.235-3.331
	C66.317,12.519,69.554,15.322,72.261,18.599z M65.223,14.971c1.233,0.827,6.99,4.838,11.614,10.587
	c0.27,0.526,0.527,1.067,0.774,1.611c0.319,2.679,1.029,8.826,1.029,10.795l-0.006,0.148c-1.044,1.172-3.038,3.21-5.219,4.376
	c-2.944-3.889-8.505-7.17-10.688-8.367c-0.235-3.635-0.619-9.603-4.146-14.404L65.223,14.971z M56.983,20.098
	c3.63,4.518,4.002,10.289,4.247,14.112l0.007,0.092c-2.217,2.245-10.201,9.31-11.683,10.618c-4.713-2.771-13.843-4.688-15.505-5.022
	c-1.166-3.756-3.001-10.213-3.414-14.858l-0.014-0.154c1.042-1.47,5.02-6.604,11.648-9.582
	C43.965,15.336,52.455,16.603,56.983,20.098z M15.306,18.697c0.296-0.546,1.468-2.245,6.08-7.309
	c2.929-2.003,6.115-3.582,9.473-4.696c0.383-0.006,0.78-0.007,1.179-0.007c3.378,0,6.487,0.165,7.723,0.242l1.494,7.194
	c-4.06,1.904-7.101,4.543-8.967,6.461c-1.406,1.447-2.357,2.688-2.851,3.38c-0.751-0.311-1.762-0.463-3.061-0.463
	c-3.633,0-8.537,1.195-10.272,1.65C15.063,22.491,15.253,19.358,15.306,18.697z M4.853,45.589c-0.063-0.904-0.096-1.817-0.096-2.717
	c0-7.646,2.258-15.02,6.528-21.329c1.142-0.864,1.935-1.412,2.47-1.758c-0.017,1.512,0.131,4.018,1.089,6.24
	c-2.631,5.332-4.131,9.6-4.461,12.688c-0.143,1.327-0.039,2.195,0.115,2.747c-2.087,1.313-4.083,3.575-5.072,4.782
	C5.255,46.025,5.063,45.807,4.853,45.589z M19.201,70.921L16.1,69.988c-3.469-3.426-6.211-7.405-8.15-11.832
	c-2.195-7.198-1.951-9.822-1.866-10.329c0.485-0.629,2.794-3.539,5.125-5.042c1.175,1.749,4.787,6.651,9.391,8.361
	c-0.094,3.869,1.096,7.711,2.136,10.296c0.826,2.055,1.671,3.631,2.111,4.403C23.4,67.207,20.027,70.193,19.201,70.921z
	 M26.39,65.513c-0.433-0.717-4.52-7.702-4.291-14.477c0.676-0.633,2.804-2.608,5.092-4.612c4.435-3.885,5.991-4.842,6.523-5.067
	c1.524,0.309,11.521,2.407,15.702,5.244c1.036,2.745,3.158,12.804,3.485,14.367c-1.514,1.76-6.169,6.896-11.109,9.542
	c-5.972-0.394-9.842-1.732-12.045-2.792C27.603,66.688,26.589,65.717,26.39,65.513z M42.872,80.987
	c-0.511,0-1.021-0.011-1.531-0.031c1.564-0.403,2.574-0.854,3.104-1.13c0.39,0.144,0.787,0.297,1.201,0.457
	c0.408,0.158,0.834,0.324,1.277,0.487C45.579,80.916,44.225,80.987,42.872,80.987z M68.956,67.654l-0.083,0.482
	c-0.244,1.413-0.967,2.914-2.149,4.465c-4.766,3.828-10.435,6.474-16.408,7.658c-1.543-0.366-2.856-0.876-4.127-1.368
	c-0.454-0.177-0.887-0.344-1.318-0.502c-1.744-2.748-1.981-5.775-2.011-6.755c5.122-2.87,9.83-8.114,11.263-9.789
	c1.884,0.27,3.659,0.404,5.286,0.404c4.638,0,7.132-1.106,8.228-1.79c0.7,1.423,1.534,3.809,1.568,7.135L68.956,67.654z
	 M72.837,66.428c-0.785,0.313-1.537,0.567-2.143,0.755c-0.104-3.594-1.079-6.159-1.843-7.64c4.426-3.83,5.039-13.618,5.118-15.654
	c2.24-1.158,4.27-3.131,5.47-4.433c0.434,0.853,1.017,2.295,1.528,4.563c-0.122,4.158-0.913,8.227-2.347,12.098
	C77.243,59.834,75.298,63.302,72.837,66.428z" class="color c1"/>
</svg>