<svg version="1.1" id="图层_1" x="0px" y="0px" width="130.217px" height="107.746px" viewBox="0 0 130.217 107.746" enable-background="new 0 0 130.217 107.746" xml:space="preserve" xmlns="http://www.w3.org/2000/svg" xmlns:xlink="http://www.w3.org/1999/xlink" xmlns:xml="http://www.w3.org/XML/1998/namespace">
  <g>
    <path fill="#B4BE00" d="M127.604,87.728c-3.637-9.461-13.512-33.16-14.031-37.629c-0.521-4.469-2.703-6.756-3.328-12.578
		c-0.623-5.82,0.416-7.482-4.053-10.082c-4.469-2.598-7.59-8.314-8.105-9.148C97.565,17.46,85.665,2.327,82.911,1.247
		c0,0-1.662-2.807-4.156,0c-2.496,2.807-10.914,17.15-13.307,23.906c-2.391,6.758-4.469,14.346-11.85,19.438
		c-7.379,5.094-8.73,7.588-7.482,17.773c1.248,10.188,2.391,14.137,2.184,14.656c-0.209,0.52-11.955,11.121-13.514,12.889
		c0,0-16.215-0.699-17.982,3.912s-1.766,7.314,0.416,9.082c0,0-16.527,2.928-17.15,3.74s3.117,1.52,6.029,0.813
		c2.91-0.707,6.547,0,7.898,0s6.861,0.229,8.732-1.539c0,0,4.053,0.936,6.236,0.936c2.182,0,30.248-0.209,33.678-0.313
		s18.084,0.729,19.125-0.311c1.039-1.041,1.143-1.666,1.143-1.666s0.625,0.209,3.639,0.938c3.01,0.729,37.729,3.639,41.055,0.104
		C130.93,102.071,131.243,97.185,127.604,87.728z M47.446,88.577c0,0,0.672-0.805,1.301-1.031c0.627-0.225,2.914-2.602,2.914-2.602
		l2.064,2.869L47.446,88.577z M90.612,87.96c-1.824-0.672-0.191-1.537-3.746-5.186c-3.551-3.652-11.813-3.363-14.887-6.822
		s-0.77-8.836,0.672-11.238c1.441-2.4,2.498-6.244,2.787-7.781c0.289-1.535,0.479-3.555,0.479-3.555
		c0,0.963,2.211,0.385,2.211,0.385c-0.768,2.113,0.385,3.076,1.633,5.475c1.25,2.402,9.125,3.266,11.428,1.441
		c2.307-1.824,1.633-4.803,1.633-4.803c1.443-0.385,7.396-2.689,8.742-9.893c1.344-7.207-1.152-8.455-3.65-10.951
		c-2.496-2.498-4.418-3.268-5.186-4.229c-0.77-0.961-0.865-2.783-1.539-3.266c-0.67-0.48-0.961,1.73-2.303,0.576
		c-1.346-1.15-2.307-0.77-5.281-1.729c-2.979-0.961-3.459,2.785-4.133,3.65c-0.672,0.863-5.475,4.611-5.475,4.611
		s0.193-1.922,0.672-4.227c0.48-2.305,4.611-14.025,6.148-17.771s12.678,8.357,14.215,9.414s3.938,5.092,3.842,6.594
		c-0.096,1.506,3.748,4.74,4.42,5.799c0.67,1.055,1.439,3.553,1.439,3.553c-2.016,3.459-0.191,4.994,0.385,6.438
		c0.576,1.439,0.863,3.168-2.498,7.971s0.385,5.381,3.842,7.879c3.459,2.496,5.379,5.859,5.477,18.826
		c0.096,12.969,3.842,14.699,3.842,14.699C114.338,93.917,92.436,88.632,90.612,87.96z" class="color c1"/>
  </g>
</svg>