<svg version="1.1" id="图层_1" x="0px" y="0px" width="500px" height="500px" viewBox="0 0 500 500" enable-background="new 0 0 500 500" xml:space="preserve" xmlns="http://www.w3.org/2000/svg" xmlns:xlink="http://www.w3.org/1999/xlink" xmlns:xml="http://www.w3.org/XML/1998/namespace">
  <circle fill="#22AE4E" cx="250" cy="250" r="250" class="color c1"/>
  <path fill="#FFFFFF" d="M413.428,115.724c0.441,0,0.441,0,0.883,0c2.65,0.442,4.417,3.092,3.976,5.742
	c-0.442,2.65-3.092,4.418-5.742,3.976c-2.649-0.441-4.417-3.092-3.976-5.742C409.01,117.491,411.219,115.724,413.428,115.724z
	 M334.806,234.54c7.067,1.325,13.692-3.533,15.018-10.6c0.441-3.534,0-7.068-2.208-9.718c-2.209-2.65-4.859-4.858-8.393-5.3
	c-0.884,0-1.768,0-2.209,0c-6.184,0-11.484,4.416-12.809,10.6C322.88,226.148,327.738,233.216,334.806,234.54z M375,167.403
	c-0.441,2.208,0,4.857,1.325,6.625c1.325,2.209,3.533,3.533,5.741,3.975c4.859,0.884,9.718-2.65,10.602-7.508
	c0.441-2.209,0-4.859-1.325-6.626c-1.325-2.208-3.534-3.534-5.742-3.976c-0.442,0-0.884,0-1.767,0
	C379.858,159.894,375.883,163.427,375,167.403z M234.982,356.448c2.208,3.092,5.742,5.301,9.717,6.184
	c8.393,1.325,15.901-3.975,17.227-11.926c1.324-7.95-3.976-15.9-11.926-17.226c-0.884,0-1.767-0.441-2.65-0.441
	c-7.067,0-13.251,5.3-14.576,12.367C231.89,349.382,232.773,353.356,234.982,356.448z M289.752,296.819
	c7.068,1.325,13.693-3.533,15.018-10.601c1.326-7.067-3.533-13.692-10.6-15.018c-0.884,0-1.768,0-2.209,0
	c-6.184,0-11.484,4.417-12.809,10.601C278.269,288.428,282.686,295.494,289.752,296.819z M85.247,353.799
	c-0.441,2.208,0,4.858,1.325,6.625c1.325,2.208,3.534,3.533,5.742,3.976c4.858,0.883,9.717-2.65,10.601-7.509
	c0.883-4.859-2.208-9.718-7.509-10.602c-0.442,0-0.883,0-1.767,0C89.664,346.731,86.13,349.823,85.247,353.799z M139.134,398.41
	c8.392,1.324,15.901-3.976,17.226-11.927c0.883-3.975,0-7.95-2.65-11.042c-2.208-3.092-5.742-5.301-9.717-6.184
	c-0.883,0-1.767-0.441-2.65-0.441c-7.067,0-13.25,5.3-14.576,12.367c-0.883,3.975,0,7.95,2.65,11.042
	C131.625,395.318,135.159,397.526,139.134,398.41z M184.629,329.505c7.067,1.325,13.692-3.533,15.018-10.601
	s-3.534-13.692-10.601-15.018c-0.883,0-1.767,0-2.208,0c-6.184,0-11.484,4.417-12.809,10.601c-0.442,3.533,0,7.067,2.208,9.718
	S181.095,329.063,184.629,329.505z M112.19,309.629c-0.441,1.325,0,2.65,0.884,3.533c0.883,0.884,1.767,1.767,3.092,2.209
	c2.65,0.441,5.3-1.325,5.742-3.976c0.441-2.65-1.325-5.301-3.976-5.742c-0.441,0-0.441,0-0.883,0
	C114.399,305.212,112.19,306.979,112.19,309.629z M196.555,446.113c1.767,0.441,3.092,0.441,4.858,0.441
	c13.251,0,24.293-9.275,26.502-22.526c2.65-14.576-7.067-28.71-22.085-31.36c-1.767-0.442-3.092-0.442-4.858-0.442
	c-13.251,0-24.293,9.276-26.502,22.527C172.261,429.328,181.979,443.463,196.555,446.113z M260.601,470.406
	c9.275,1.767,18.552-4.858,20.317-14.135c0.884-4.417,0-9.275-2.649-13.25c-2.65-3.976-6.626-6.185-11.042-7.067
	c-0.884,0-2.209-0.442-3.092-0.442c-8.393,0-15.46,6.185-17.227,14.135c-0.884,4.417,0,9.275,2.65,13.251
	C252.209,466.873,256.184,469.522,260.601,470.406z M412.103,368.374c8.392,1.325,15.901-3.975,17.226-11.926
	c1.325-7.95-3.975-15.9-11.926-17.226c-0.883,0-1.767-0.442-2.65-0.442c-7.066,0-13.25,5.301-14.575,12.368
	c-0.884,3.975,0,7.95,2.649,11.042C404.594,365.282,408.127,367.491,412.103,368.374z M286.66,186.396
	c-0.441,2.65,1.326,5.301,3.976,5.742c2.65,0.441,5.3-1.325,5.742-3.975c0.442-1.326,0-2.65-0.884-3.534
	c-0.883-0.884-1.766-1.767-3.092-2.208c-0.441,0-0.441,0-0.883,0C289.311,182.421,287.103,184.187,286.66,186.396z M445.672,305.212
	c8.392,1.325,15.9-3.976,17.226-11.926c0.884-3.976,0-7.95-2.65-11.043c-2.208-3.092-5.742-5.3-9.718-6.184
	c-0.883,0-1.766-0.441-2.649-0.441c-7.067,0-13.251,5.301-14.576,12.367c-0.884,3.976,0,7.95,2.65,11.043
	C438.162,302.12,441.695,304.328,445.672,305.212z M242.049,253.092c-0.442,2.65,1.325,5.3,3.975,5.742
	c2.65,0.441,5.3-1.325,5.742-3.976s-1.325-5.3-3.975-5.742c-0.442,0-0.442,0-0.883,0C244.7,249.116,242.491,250.883,242.049,253.092
	z M373.232,437.721c1.326,0,2.209,0.441,3.534,0.441c9.718,0,18.109-7.067,19.876-16.784c2.209-11.042-5.3-21.644-16.342-23.41
	c-1.326,0-2.209-0.441-3.534-0.441c-9.718,0-18.109,7.067-19.876,16.784c-0.884,5.301,0,10.601,3.533,15.018
	C363.516,433.745,367.933,436.837,373.232,437.721z M301.678,414.311c1.768,0.442,3.092,0.442,4.859,0.442
	c13.251,0,24.293-9.276,26.502-22.527c2.65-14.575-7.067-28.71-22.085-31.36c-1.767-0.441-3.092-0.441-4.858-0.441
	c-13.252,0-24.294,9.275-26.502,22.526C276.943,397.526,286.66,411.66,301.678,414.311z M436.396,187.278
	c-0.884,0-1.767-0.441-2.649-0.441c-7.068,0-13.252,5.301-14.576,12.367c-1.326,7.951,3.975,15.902,11.926,17.227
	c8.392,1.325,15.9-3.975,17.226-11.926C450.088,196.555,444.787,188.604,436.396,187.278z M381.184,269.876
	c3.092,4.417,7.951,7.509,13.251,8.393c11.042,1.767,21.644-5.742,23.409-16.343c1.768-11.043-5.3-21.644-16.342-23.41
	c-1.325,0-2.209-0.441-3.533-0.441c-9.718,0-18.11,7.067-19.877,16.784C376.767,260.159,378.092,265.459,381.184,269.876z
	 M346.731,346.29c1.767,0.441,3.092,0.441,4.858,0.441c13.251,0,24.293-9.275,26.502-22.526c1.325-7.067-0.441-14.576-4.417-20.318
	s-10.159-10.159-17.668-11.042c-1.767-0.442-3.092-0.442-4.858-0.442c-13.251,0-24.293,9.276-26.502,22.526
	c-1.325,7.067,0.441,14.135,4.417,20.318C333.48,340.989,339.664,344.965,346.731,346.29z" class="color c2"/>
</svg>