<svg version="1.1" id="图层_1" x="0px" y="0px" width="68.864px" height="72.984px" viewBox="0 0 68.864 72.984" enable-background="new 0 0 68.864 72.984" xml:space="preserve" xmlns="http://www.w3.org/2000/svg" xmlns:xlink="http://www.w3.org/1999/xlink" xmlns:xml="http://www.w3.org/XML/1998/namespace">
  <path fill="#FF5303" d="M61.78,16.625c-0.074,0.048-0.15,0.084-0.222,0.14c-0.152,0.153-0.305,0.309-0.457,0.612
	c-0.373,0.528-0.767,0.993-1.163,1.445c-0.172,0.195-0.345,0.388-0.521,0.571c-0.366,0.382-0.739,0.74-1.118,1.06
	c-0.152,0.127-0.31,0.234-0.463,0.354c-0.342,0.259-0.687,0.505-1.034,0.717c-0.103,0.063-0.205,0.13-0.308,0.188
	c-0.495,0.278-0.993,0.517-1.491,0.695c-0.024,0.024-0.045,0.032-0.068,0.049c-3.349,1.279-7.072,0.734-10.962-1.421h0.058
	c-0.152-0.15-0.459-0.303-0.612-0.303c-0.456-0.305-2.438-1.525-2.894-1.679c-3.374-2.022-6.745-3.128-10.002-3.438
	c-0.106-0.01-0.21-0.009-0.317-0.018c-1.782-0.141-3.532-0.062-5.226,0.257c0,0.031-0.028,0.043-0.04,0.064
	c-3.08,0.641-5.986,2.085-8.61,4.296c-0.163,0.129-0.332,0.229-0.495,0.366c-0.234,0.234-0.48,0.504-0.722,0.747
	c-0.389,0.377-0.771,0.774-1.146,1.187c-0.134,0.144-0.257,0.286-0.389,0.434c-0.641,0.737-1.268,1.511-1.861,2.354
	c-3.048,4.271,4.117,8.384,7.013,4.118c3.809-5.336,8.536-6.86,13.719-5.184c-2.592,4.727-5.029,9.296-8.232,15.7
	c-3.355,6.552-10.517,11.735-17.53,7.772c-5.027-3.047-9.449,4.27-4.569,7.165c9.601,5.486,20.729,2.134,26.367-5.031
	c0.15,0,0.456,0.15,0.607,0.15c4.726,1.679,10.823,5.943,12.653,7.472c1.827,1.524,5.029,9.298,6.857,13.26
	c0.156,0.303,0.334,0.569,0.526,0.808c0.134,0.167,0.281,0.301,0.432,0.438c0.069,0.065,0.135,0.136,0.207,0.193
	c0.147,0.116,0.304,0.211,0.461,0.301c0.094,0.057,0.189,0.109,0.286,0.155c0.141,0.063,0.283,0.121,0.43,0.168
	c0.14,0.044,0.282,0.08,0.425,0.11c0.114,0.023,0.226,0.046,0.342,0.061c0.199,0.022,0.396,0.029,0.595,0.022
	c0.074,0,0.148,0.003,0.221-0.003c0.231-0.016,0.46-0.056,0.686-0.107c0.058-0.015,0.117-0.019,0.176-0.034
	c0.021-0.005,0.043-0.017,0.066-0.024c0.551-0.153,1.081-0.393,1.55-0.716c0.067-0.067,0.108-0.157,0.172-0.231
	c1.197-1.047,1.799-2.723,0.897-4.647c-2.137-4.419-5.794-13.259-8.537-15.546c-1.674-1.229-4.493-3.351-7.317-5.178l0.001-0.004
	c-0.031-0.022-0.069-0.041-0.101-0.063c-0.999-0.646-2.001-1.253-2.949-1.766c2.592-4.877,5.184-9.603,7.927-14.328
	c0.773,0.23,1.544,0.401,2.312,0.542c0.116,0.021,0.23,0.044,0.347,0.063c1.574,0.264,3.13,0.337,4.659,0.228
	c0.032-0.006,0.067-0.006,0.101-0.008c3.146-0.246,6.159-1.282,8.928-3.094c0.025-0.016,0.052-0.031,0.076-0.05
	c0.643-0.424,1.275-0.886,1.89-1.394c0.043-0.035,0.09-0.063,0.133-0.098c0.045-0.041,0.083-0.091,0.13-0.133
	c1.59-1.355,3.082-2.98,4.443-4.898C70.952,17.515,65.063,13.679,61.78,16.625z M39.911,3.423c0.321-0.465,0.678-0.897,1.068-1.291
	c0.146-0.112,0.314-0.206,0.47-0.31C42.836,0.702,44.569,0,46.467,0c4.422,0,8.079,3.658,8.079,8.077c0,2.432-1.051,4.54-2.686,6
	c-0.126,0.13-0.23,0.279-0.363,0.401c-1.37,1.066-3.049,1.677-5.03,1.677c-4.419,0-8.075-3.504-8.075-8.078
	C38.393,6.348,38.966,4.746,39.911,3.423z" class="color c1"/>
</svg>