<svg version="1.1" id="图层_1" x="0px" y="0px" width="95.143px" height="64.495px" viewBox="0 0 95.143 64.495" enable-background="new 0 0 95.143 64.495" xml:space="preserve" xmlns:xml="http://www.w3.org/XML/1998/namespace" xmlns="http://www.w3.org/2000/svg" xmlns:xlink="http://www.w3.org/1999/xlink">
  <path fill="#CC5958" d="M57.707,31.111l-34.128,8.415c1.381,1.261,2.801,2.479,4.254,3.66l40.668-8.799L57.707,31.111z
	 M44.303,28.239l-25.981,6.104c1.34,1.425,2.723,2.808,4.147,4.15l33.182-7.002L44.303,28.239z M11.047,20.388l-2.441,1.834
	c2.641,3.897,5.558,7.59,8.723,11.054l24.713-4.854L11.047,20.388z M70.026,34.111L29.071,44.184c2.387,1.876,4.866,3.64,7.426,5.29
	l48.771-11.311L70.026,34.111z" class="color c1"/>
  <path fill="#2A2A2A" d="M93.768,60.718c0.044-0.018,0.091-0.031,0.135-0.052c0.1-0.046,0.194-0.102,0.285-0.163
	c0.013-0.011,0.03-0.017,0.044-0.028c0.103-0.074,0.2-0.159,0.288-0.253c0.026-0.026,0.046-0.055,0.07-0.083
	c0.059-0.069,0.118-0.141,0.168-0.216c0.028-0.041,0.052-0.085,0.076-0.128c0.041-0.07,0.078-0.142,0.111-0.216
	c0.02-0.05,0.041-0.1,0.059-0.15c0.026-0.078,0.048-0.155,0.068-0.235c0.011-0.052,0.024-0.104,0.033-0.155
	c0.015-0.091,0.022-0.183,0.026-0.275c0.002-0.037,0.011-0.07,0.011-0.107V37.675l-0.002-0.009c0-0.005,0.002-0.009,0.002-0.013
	c-0.002-0.137-0.017-0.27-0.041-0.399c-0.007-0.042-0.022-0.081-0.031-0.122c-0.022-0.091-0.046-0.179-0.078-0.264
	c-0.019-0.05-0.043-0.096-0.063-0.144c-0.033-0.074-0.068-0.144-0.109-0.213c-0.028-0.046-0.057-0.089-0.087-0.133
	c-0.045-0.065-0.092-0.126-0.144-0.185c-0.033-0.039-0.066-0.078-0.104-0.113c-0.057-0.057-0.118-0.109-0.183-0.161
	c-0.016-0.013-0.033-0.031-0.05-0.044V17.424c0-0.693-0.532-1.255-1.186-1.255c-0.655,0-1.186,0.562-1.186,1.255v2.041h-9.13
	c-0.38-0.446-0.924-0.732-1.536-0.732c-0.467,0-0.893,0.17-1.239,0.445L13.481,4.451c-0.153-0.386-0.408-0.715-0.729-0.954V1.255
	C12.752,0.562,12.221,0,11.566,0c-0.654,0-1.185,0.562-1.185,1.255v2.242C10.06,3.736,9.804,4.065,9.652,4.451L0,6.59
	c0.17,0.39,0.336,0.782,0.511,1.17l8.981-1.989v4.372L2.414,11.72c0.196,0.386,0.396,0.767,0.597,1.15l6.481-1.444v3.947
	l-4.535,1.031c0.22,0.379,0.445,0.756,0.669,1.131l3.866-0.88v0.299c0,0.194,0.031,0.379,0.076,0.558l-3.487,0.786
	c0.811,1.329,1.653,2.638,2.525,3.924l2.96-0.667l29.356,6.616l-23.593,5.106c0.328,0.359,0.66,0.713,0.994,1.066l25.501-5.518
	l10.714,2.414L22.47,38.492c0.368,0.346,0.736,0.691,1.11,1.033l33.803-7.645l9.653,2.176l-39.201,9.13
	c0.41,0.335,0.821,0.669,1.238,0.998l40.77-9.496l13.721,3.091L36.497,49.474c0.879,0.566,1.769,1.116,2.667,1.654
	c0.816,0.487,0.816,0.487,1.347,0.796c9.703,5.606,20.467,9.579,31.917,11.547l0.19-0.05c0.26,0.129,1.211,0.283,1.211,0.283
	c2.134,0.335,4.293,0.597,6.471,0.789l13.295-3.714C93.655,60.767,93.711,60.739,93.768,60.718z M13.641,5.771l64.643,14.315
	l-10.168,2.202L13.641,10.143V5.771z M13.641,11.425l51.554,11.492l-9.433,2.043l-42.12-9.588v-3.947
	C13.642,11.425,13.641,11.425,13.641,11.425z M51.094,25.969l-37.529-8.457c0.044-0.179,0.076-0.364,0.076-0.558v-0.299l39.228,8.93
	L51.094,25.969z M64.489,28.988l-10.493-2.364l1.76-0.381l10.401,2.368L64.489,28.988z M58.649,25.616l9.463-2.046l10.242,2.283
	l-9.366,2.118L58.649,25.616z M76.841,31.771l-9.507-2.142l1.653-0.373l9.436,2.148L76.841,31.771z M79.138,30.282l-7.32-1.667
	l7.32-1.654V30.282z M79.138,24.744l-8.105-1.806l8.105-1.754V24.744z M91.883,35.162l-8.599-1.939c0-0.016,0.004-0.031,0.004-0.048
	v-1.15h8.595V35.162z M91.883,30.768h-8.595v-4.292h8.595V30.768z M91.883,25.22h-8.595v-4.29c0-0.072-0.013-0.139-0.019-0.209
	h8.615L91.883,25.22L91.883,25.22z" class="color c2"/>
  <path fill="#FFFFFF" d="M72.619,63.423l-0.19,0.05c0.466,0.081,0.933,0.159,1.401,0.233c6.413-1.889,12.835-3.749,19.239-5.677
	C86.242,59.789,79.435,61.626,72.619,63.423z M72.758,43.666c6.77-1.789,13.548-3.536,20.31-5.364
	c-6.824,1.551-13.628,3.178-20.442,4.764l-20.414,4.893c-4.355,1.031-8.702,2.1-13.048,3.17c0.447,0.268,0.895,0.536,1.348,0.797
	c3.972-0.996,7.945-1.996,11.91-3.026L72.758,43.666z" class="color c3"/>
</svg>