<svg version="1.1" id="图层_1" x="0px" y="0px" width="114.412px" height="71.402px" viewBox="0 0 114.412 71.402" enable-background="new 0 0 114.412 71.402" xml:space="preserve" xmlns="http://www.w3.org/2000/svg" xmlns:xlink="http://www.w3.org/1999/xlink" xmlns:xml="http://www.w3.org/XML/1998/namespace">
  <path fill="#FFFFFF" d="M57.202,71.402h-0.015c-18.841-0.001-33.031-7.625-39.813-12.17C6.653,52.052-0.005,43.034,0,35.699
	c-0.005-7.33,6.652-16.35,17.372-23.532C24.158,7.623,38.354,0.001,57.202,0c18.73,0,32.921,7.667,39.714,12.236
	c10.791,7.262,17.495,16.254,17.496,23.467c-0.002,6.886-6.693,15.74-17.463,23.112C90.084,63.516,75.79,71.402,57.202,71.402z" class="color c1"/>
  <path fill="#DB2633" d="M94.962,15.141C88.497,10.791,74.995,3.498,57.202,3.5C39.279,3.501,25.775,10.752,19.32,15.074
	C9.709,21.515,3.496,29.612,3.5,35.701C3.496,41.79,9.708,49.886,19.322,56.325c6.453,4.324,19.958,11.581,37.88,11.577
	c17.636,0,31.232-7.499,37.771-11.976c9.682-6.627,15.938-14.565,15.939-20.223C110.911,29.728,104.646,21.657,94.962,15.141z" class="color c2"/>
  <path fill="#FFFFFF" d="M105.847,39.831c-2.151,8.816-23.064,25.013-48.54,25.013C33.762,64.841,14.115,51.848,9.574,42.267
	c-0.647-1.371,0.616-2.013,1.566-1.138c8.479,7.825,24.662,13.241,46.168,12.884c25.225-0.42,41.443-9.689,47.621-14.666
	C105.34,39.014,105.967,39.335,105.847,39.831z" class="color c1"/>
  <path fill="#FFFFFF" d="M108.825,38.226c-3.964-3.959-12.479-8.824-23.739-12.342L86.2,27.89c0.323,0.587,0.113,1.324-0.472,1.652
	c-0.587,0.322-1.325,0.114-1.648-0.473l-1.072-1.928l-0.929,2c-0.281,0.605-1.005,0.869-1.609,0.59
	c-0.612-0.285-0.874-1.004-0.596-1.613l1.534-3.305c-1.729-0.469-3.514-0.904-5.349-1.299l1.372,2.471
	c0.327,0.586,0.113,1.324-0.473,1.649c-0.586,0.326-1.322,0.11-1.647-0.474l-1.071-1.929l-0.93,2.003
	c-0.281,0.607-1.002,0.876-1.61,0.588c-0.604-0.279-0.872-1.004-0.588-1.607l1.562-3.371c-1.774-0.322-3.596-0.602-5.448-0.843
	l1.441,2.6c0.326,0.584,0.111,1.323-0.47,1.646c-0.588,0.325-1.326,0.113-1.652-0.472l-1.071-1.932l-0.931,2.005
	c-0.28,0.609-1.004,0.871-1.608,0.589c-0.606-0.281-0.872-1.004-0.589-1.612l1.483-3.197c-1.803-0.168-3.636-0.295-5.496-0.368
	l1.563,2.817c0.328,0.586,0.117,1.328-0.469,1.651c-0.585,0.327-1.324,0.112-1.648-0.474l-1.07-1.93l-0.932,2.003
	c-0.284,0.608-1.004,0.872-1.611,0.591c-0.607-0.286-0.868-1.004-0.586-1.612l1.449-3.126c-0.272-0.006-0.545-0.007-0.823-0.009
	c-1.592,0.005-3.166,0.042-4.724,0.104l1.647,2.977c0.326,0.587,0.116,1.323-0.469,1.647c-0.585,0.326-1.324,0.114-1.65-0.468
	l-1.069-1.929l-0.93,2c-0.284,0.609-1.004,0.87-1.612,0.59c-0.606-0.282-0.867-1.004-0.587-1.613l1.398-3.014
	c-1.832,0.135-3.629,0.311-5.386,0.529l1.542,2.775c0.324,0.59,0.112,1.323-0.469,1.65c-0.587,0.326-1.331,0.116-1.652-0.471
	l-1.069-1.931l-0.931,2.001c-0.285,0.609-1.001,0.873-1.612,0.592c-0.607-0.284-0.871-1.003-0.591-1.611l1.164-2.505
	c-13.738,2.161-24.896,6.606-31.748,10.845c-0.322,0.204-0.756,0.105-0.949-0.219c-0.079-0.115-0.111-0.239-0.105-0.365
	c-0.005-0.229,0.115-0.459,0.325-0.592c7.06-4.37,18.606-8.956,32.799-11.115l-1.738-3.128c-0.328-0.587-0.115-1.324,0.471-1.648
	c0.587-0.328,1.321-0.116,1.648,0.471l1.069,1.93l0.934-2.003c0.279-0.608,1-0.872,1.611-0.589c0.603,0.281,0.87,1.006,0.589,1.612
	l-1.354,2.912c1.728-0.208,3.492-0.385,5.29-0.516l-1.494-2.689c-0.327-0.585-0.114-1.324,0.474-1.651
	c0.585-0.325,1.319-0.11,1.646,0.476l1.072,1.929l0.93-2.002c0.281-0.608,1.005-0.872,1.612-0.592
	c0.607,0.284,0.871,1.004,0.588,1.613l-1.258,2.712c1.509-0.061,3.039-0.101,4.59-0.096c0.182-0.002,0.358,0,0.536,0l-1.424-2.563
	c-0.324-0.584-0.113-1.319,0.474-1.645c0.585-0.326,1.322-0.117,1.65,0.467l1.071,1.934l0.927-2.002
	c0.283-0.611,1.003-0.873,1.612-0.59c0.604,0.279,0.871,1.001,0.587,1.608l-1.333,2.869c1.76,0.07,3.47,0.183,5.141,0.33
	l-1.362-2.45c-0.325-0.586-0.113-1.325,0.473-1.646c0.587-0.326,1.324-0.117,1.649,0.469l1.072,1.932l0.929-2.004
	c0.281-0.609,1.001-0.874,1.608-0.588c0.608,0.279,0.874,1.002,0.591,1.609l-1.419,3.054c1.752,0.217,3.445,0.469,5.075,0.748
	l-1.213-2.189c-0.323-0.583-0.11-1.321,0.473-1.646c0.585-0.326,1.327-0.113,1.65,0.473l1.072,1.929l0.929-2.003
	c0.282-0.609,1.002-0.873,1.608-0.588c0.608,0.282,0.872,1.002,0.592,1.61l-1.45,3.111c1.797,0.377,3.498,0.773,5.098,1.192
	l-1.202-2.166c-0.325-0.589-0.119-1.329,0.471-1.653c0.59-0.323,1.322-0.119,1.646,0.469l1.075,1.93l0.926-2
	c0.285-0.605,1.007-0.87,1.612-0.594c0.61,0.286,0.874,1.008,0.593,1.615l-1.573,3.392c1.637,0.489,3.144,0.983,4.499,1.458
	c9.026,3.179,16.849,7.504,20.934,11.581c0.275,0.272,0.27,0.709,0,0.979C109.533,38.493,109.098,38.499,108.825,38.226z" class="color c1"/>
</svg>