<svg version="1.1" id="图层_1" x="0px" y="0px" width="153.46px" height="85.43px" viewBox="0 0 153.46 85.43" enable-background="new 0 0 153.46 85.43" xml:space="preserve" xmlns:xml="http://www.w3.org/XML/1998/namespace" xmlns="http://www.w3.org/2000/svg" xmlns:xlink="http://www.w3.org/1999/xlink">
  <path fill="#24435E" d="M153.367,40.853c0.033-0.443-0.109-1.023-0.371-2.075l-0.002-0.002l-0.002-0.013l0,0l-0.018-0.07
	c-0.004-0.014-0.008-0.025-0.012-0.04l-0.002-0.01c-1.076-4.175-4.08-7.506-6.729-10.444l-0.164-0.184
	c-3.803-4.215-8.187-8.069-13.026-11.46c-6.211-4.352-11.975-7.361-19.89-10.394C102.087,2.07,89.953,0,77.063,0
	C74.57,0,72.025,0.08,69.5,0.237c-13.819,0.86-26.543,4.146-37.818,9.767C19.533,16.06,10.174,23.856,3.866,33.179
	c-2.163,3.19-3.329,7.139-3.73,8.688c-1.08,4.136,4.649,12.089,4.708,12.166c1.567,2.063,3.368,4.129,5.35,6.137
	c4.735,4.805,10.235,9.053,16.346,12.625c12.29,7.177,26.58,11.343,42.473,12.383c2.553,0.167,5.136,0.253,7.677,0.253
	c25.658,0,48.774-8.434,65.095-23.743c3.188-2.99,5.825-5.919,8.069-8.951C152.621,49.01,153.817,44.938,153.367,40.853z" class="color c1"/>
  <path fill="#DE3743" d="M146.987,40.24c-0.192-0.767-0.475-1.486-0.842-2.101c0,0-1.235-2.051-3.899-5.115
	c-2.567-2.949-6.457-6.841-11.82-10.741c-3.67-2.662-8.037-5.342-13.146-7.706c-10.266-4.783-23.558-8.39-40.296-8.388
	c-16.8,0.002-30.09,3.554-40.348,8.296c-5.123,2.364-9.485,5.021-13.145,7.678c-5.339,3.881-9.201,7.757-11.756,10.719
	c-2.71,3.133-3.952,5.239-3.952,5.239c-0.343,0.581-0.608,1.25-0.788,1.96c-0.631,2.385-0.386,5.316,0.745,7.276
	c0,0,1.163,2.018,3.725,5.045c0,0,0.001,0.001,0.001,0.001c2.548,3.022,6.489,7.035,12.032,11.043
	c3.657,2.648,8.018,5.285,13.146,7.634c10.236,4.673,23.508,8.171,40.342,8.17c16.718,0,30.013-3.628,40.298-8.441
	c5.111-2.39,9.473-5.064,13.147-7.745c8.586-6.248,13.375-12.446,15.03-14.801c-0.191,0.14-0.369,0.269-0.555,0.404
	c0-0.001,0.001-0.002,0.002-0.004c0.186-0.135,0.362-0.264,0.553-0.402c0.445-0.632,0.66-0.986,0.66-0.986
	C147.274,45.372,147.567,42.577,146.987,40.24z" class="color c2"/>
  <path fill="#AE3938" d="M145.46,48.262c-1.655,2.354-6.444,8.553-15.03,14.801c-3.675,2.681-8.036,5.355-13.147,7.745
	c-10.285,4.813-23.58,8.441-40.298,8.441c-16.834,0.001-30.106-3.497-40.342-8.17c-5.128-2.349-9.489-4.985-13.146-7.634
	c-5.544-4.009-9.485-8.022-12.033-11.045c15.185,8.324,38.09,13.618,63.717,13.618C104.835,66.014,130.837,58.918,145.46,48.262z" class="color c3"/>
  <path fill="#FFFFFF" d="M146.987,40.235c-0.194-0.762-0.475-1.482-0.847-2.096c0,0-1.235-2.052-3.903-5.116
	c-3.358-1.856-7.299-3.771-11.812-5.586l-0.002-5.155c-3.452-2.563-7.84-5.355-13.146-7.706l0.001,8.442
	c-3.592-0.99-7.442-1.876-11.543-2.63l-0.001-3.021c0.003-1.841-1.49-3.33-3.33-3.33c-1.842,0.001-3.337,1.491-3.333,3.333v1.941
	c-1.17-0.159-2.372-0.298-3.579-0.435v-3.191c0-1.841-1.494-3.329-3.336-3.332c-1.837,0.003-3.33,1.492-3.33,3.335v2.574
	c-1.171-0.081-2.371-0.141-3.574-0.197v-3.981c-0.004-1.841-1.494-3.334-3.336-3.334c-1.84,0-3.33,1.494-3.33,3.334v3.791
	c-0.537-0.006-1.058-0.025-1.602-0.025c-0.673,0-1.315,0.023-1.979,0.031l0.001-3.796c0-1.84-1.493-3.332-3.333-3.332
	c-1.839,0-3.332,1.492-3.332,3.332v3.997c-1.206,0.061-2.405,0.123-3.579,0.207v-2.601c0-1.842-1.492-3.332-3.331-3.332
	c-1.839,0-3.331,1.494-3.331,3.334v3.218c-1.21,0.137-2.409,0.278-3.581,0.439v-1.977c0-1.839-1.487-3.329-3.332-3.332
	c-1.838,0.003-3.331,1.493-3.331,3.334v3.046c-3.98,0.731-7.721,1.59-11.216,2.544v-8.479c-5.128,2.362-9.49,5.021-13.146,7.68
	l0.001,5.184c-4.493,1.797-8.415,3.688-11.764,5.53C9.023,36.013,7.78,38.12,7.78,38.12c-0.34,0.578-0.609,1.242-0.791,1.954
	c1.452-0.969,3.012-1.946,4.7-2.924c3.278-1.902,7.208-3.902,11.806-5.813l0.003,32.104c3.655,2.652,8.017,5.288,13.145,7.635
	l-0.002-44.284c3.482-0.98,7.216-1.872,11.216-2.628v2.276c0,1.844,1.492,3.335,3.334,3.334c1.842-0.001,3.33-1.493,3.328-3.334
	v-3.368c1.174-0.165,2.367-0.318,3.581-0.46v2.147c0,1.84,1.489,3.334,3.332,3.331c1.842,0.003,3.333-1.491,3.331-3.331V21.99
	c1.178-0.087,2.367-0.163,3.579-0.226v1.391c0,1.842,1.493,3.333,3.332,3.332c1.84,0,3.333-1.491,3.33-3.332l0.001-1.59
	c0.658-0.007,1.314-0.018,1.982-0.018c0.538,0,1.066,0.01,1.599,0.015v1.591c0,1.843,1.49,3.333,3.33,3.333
	c1.848,0.001,3.336-1.49,3.336-3.331v-1.403c1.209,0.061,2.398,0.132,3.574,0.216v2.791c0,1.843,1.498,3.332,3.336,3.332
	c1.84,0,3.332-1.491,3.33-3.332v-2.17c1.213,0.14,2.406,0.29,3.579,0.454v3.396c0,1.841,1.493,3.333,3.333,3.333
	s3.333-1.494,3.333-3.335l-0.001-2.305c4.12,0.778,7.963,1.701,11.542,2.721l0.007,43.947c5.108-2.385,9.471-5.064,13.146-7.738
	l-0.006-31.627c4.507,1.885,8.373,3.854,11.613,5.728C143.817,38.192,145.468,39.221,146.987,40.235z" class="color c4"/>
</svg>