<svg version="1.1" id="图层_1" x="0px" y="0px" width="183px" height="226px" viewBox="0 0 183 226" enable-background="new 0 0 183 226" xml:space="preserve" xmlns="http://www.w3.org/2000/svg" xmlns:xlink="http://www.w3.org/1999/xlink" xmlns:xml="http://www.w3.org/XML/1998/namespace">
  <ellipse fill="#9F1C1D" cx="91.5" cy="134.5" rx="68.1" ry="68.1" class="color c1"/>
  <path fill="#020202" d="M91.5,43.1C41,43.1,0,84,0,134.5C0,185.1,41,226,91.5,226s91.5-41,91.5-91.5S142,43.1,91.5,43.1z
	 M153.5,83.3l2.3,2.6l3.101-1.4l-1.699,3l2.3,2.6l-3.399-0.7l-1.699,3L154,89l-3.3-0.7l3.1-1.4L153.5,83.3z M137.9,69l2.898,1.9
	l2.7-2.2L142.6,72l2.899,1.9l-3.399,0.2l-0.899,3.3l-1.2-3.2l-3.4,0.2l2.7-2.2L137.9,69z M119.5,58.9l3.3,1.1l2-2.8v3.4l3.3,1.1
	l-3.3,1.1v3.4l-2-2.8l-3.3,1.1l2-2.8L119.5,58.9z M102.6,54.3l1.2-3.2l0.9,3.3l3.399,0.2l-2.899,1.9l0.899,3.3l-2.699-2.2l-2.9,1.9
	l1.2-3.2L99,54.1L102.6,54.3z M81.2,54l0.2-3.6l1.7,3l3.4-0.7l-2.3,2.6l1.7,3l-3.1-1.4l-2.3,2.6l0.4-3.4l-3.1-1.4L81.2,54z
	 M60.2,55.8l2.4,2.4l3.1-1.6l-1.6,3.1l2.4,2.4l-3.4-0.5l-1.6,3.1L61,61.3l-3.4-0.5l3.1-1.6L60.2,55.8z M40.6,66.3l3,1.7l2.6-2.3
	l-0.7,3.4l3,1.7l-3.4,0.4l-0.7,3.4L43,71.5l-3.4,0.4l2.6-2.3L40.6,66.3z M28.2,82.8l1.9-2.9l0.2,3.4l3.3,0.9l-3.2,1.2l0.2,3.4
	l-2.2-2.7l-3.2,1.2l1.9-2.9l-2.2-2.7L28.2,82.8z M18,103.9l-2.8,2l1.1-3.3l-2.8-2h3.4l1.1-3.3l1,3.3h3.4l-2.8,2l1.1,3.3L18,103.9z
	 M91.5,204.6c-38.6,0-70.1-31.398-70.1-70.1c0-38.6,31.4-70.1,70.1-70.1c38.6,0,70.1,31.4,70.1,70.1S130.1,204.7,91.5,204.6z
	 M165.5,107.8l-2.4,2.4l0.5-3.4l-3.1-1.6l3.4-0.5l0.5-3.4l1.6,3.1l3.4-0.5l-2.4,2.4l1.6,3.1L165.5,107.8z M16.2,65.4
	c2.7-3,5.7-5.8,8.8-8.5l-8.8-30.6c0.1-6,2-9.6,4.7-11.9c2.8-2.4,6.9-3.6,11.4-3.6h118.3c4.5,0,8.602,1.2,11.4,3.6
	c2.7,2.3,4.6,5.8,4.7,11.9L158,56.9c3.1,2.7,6,5.5,8.8,8.5L177.4,28.3c0.199-0.4,0.199-0.9,0.199-1.4c0-9-3.301-16.2-8.5-20.7
	S157.2,0,150.7,0H32.3c-6.5,0-13.2,1.7-18.5,6.2c-5.2,4.5-8.5,11.7-8.5,20.7c0,0.5,0.1,0.9,0.2,1.4L16.2,65.4z" class="color c2"/>
</svg>