<svg version="1.1" id="图层_1" x="0px" y="0px" width="102.315px" height="102.175px" viewBox="0 0 102.315 102.175" enable-background="new 0 0 102.315 102.175" xml:space="preserve" xmlns="http://www.w3.org/2000/svg" xmlns:xlink="http://www.w3.org/1999/xlink" xmlns:xml="http://www.w3.org/XML/1998/namespace">
  <path fill="#FF1A42" d="M102.263,9.734c-0.002-0.018-0.006-0.037-0.009-0.056c-0.034-0.236-0.083-0.479-0.147-0.727
	c-0.007-0.027-0.015-0.054-0.022-0.081c-0.066-0.245-0.147-0.494-0.242-0.746c-0.011-0.028-0.021-0.056-0.032-0.083
	c-0.101-0.259-0.217-0.52-0.348-0.783c-0.01-0.021-0.02-0.041-0.03-0.062c-0.287-0.564-0.646-1.133-1.078-1.692
	c-0.014-0.018-0.028-0.036-0.042-0.054c-0.206-0.262-0.427-0.522-0.665-0.778c-0.024-0.025-0.049-0.051-0.073-0.077
	c-0.236-0.25-0.488-0.494-0.755-0.733c-0.028-0.025-0.056-0.05-0.084-0.075c-0.276-0.242-0.569-0.478-0.878-0.706
	c-0.023-0.017-0.044-0.034-0.067-0.05c-0.665-0.484-1.406-0.93-2.226-1.322c-0.026-0.012-0.054-0.024-0.081-0.037
	c-0.386-0.182-0.79-0.352-1.211-0.508c-0.044-0.016-0.089-0.032-0.133-0.048c-0.414-0.149-0.845-0.286-1.292-0.407
	c-0.05-0.014-0.1-0.027-0.149-0.041c-0.458-0.12-0.934-0.224-1.427-0.311c-0.041-0.007-0.08-0.015-0.121-0.022
	c-0.527-0.089-1.073-0.16-1.64-0.208c-0.006,0-0.012-0.001-0.018-0.002c-0.57-0.047-1.162-0.071-1.772-0.073
	c-0.055,0-0.112,0.002-0.168,0.002c-0.471,0.002-0.951,0.016-1.445,0.048c-0.012,0-0.023,0-0.036,0.001
	c-0.498,0.033-1.011,0.085-1.534,0.149c-0.07,0.009-0.139,0.016-0.209,0.025c-0.501,0.065-1.016,0.149-1.54,0.246
	c-0.096,0.018-0.191,0.035-0.288,0.054c-0.521,0.101-1.054,0.218-1.597,0.351c-0.099,0.024-0.198,0.05-0.297,0.075
	c-0.558,0.142-1.125,0.298-1.706,0.475c-0.075,0.023-0.152,0.048-0.228,0.072c-0.609,0.189-1.228,0.394-1.862,0.624
	c-0.01,0.003-0.02,0.007-0.03,0.01c-0.638,0.231-1.291,0.489-1.955,0.763c-0.085,0.035-0.169,0.068-0.255,0.104
	c-0.635,0.267-1.285,0.556-1.944,0.863c-0.116,0.054-0.231,0.107-0.349,0.163c-0.655,0.311-1.322,0.642-2.001,0.994
	c-0.119,0.062-0.239,0.125-0.358,0.188c-0.694,0.366-1.399,0.75-2.117,1.161c-0.092,0.052-0.185,0.108-0.277,0.161
	c-0.756,0.437-1.522,0.893-2.306,1.381c-0.005,0.003-0.011,0.006-0.016,0.01c-0.784,0.489-1.584,1.011-2.396,1.553
	c-0.101,0.067-0.201,0.132-0.302,0.201c-0.775,0.522-1.564,1.074-2.364,1.647c-0.139,0.1-0.277,0.198-0.417,0.299
	c-0.794,0.575-1.6,1.175-2.418,1.801c-0.141,0.108-0.283,0.218-0.425,0.328c-0.836,0.646-1.683,1.314-2.544,2.015
	c-0.109,0.088-0.22,0.181-0.329,0.27c-0.91,0.745-1.832,1.513-2.77,2.32c-0.944-0.812-1.87-1.584-2.786-2.333
	c-0.104-0.085-0.21-0.174-0.314-0.259c-0.867-0.705-1.72-1.378-2.562-2.028c-0.138-0.106-0.275-0.213-0.412-0.317
	c-0.826-0.632-1.639-1.237-2.44-1.817c-0.132-0.096-0.263-0.189-0.394-0.283c-0.808-0.58-1.605-1.137-2.388-1.666
	c-0.096-0.064-0.189-0.125-0.284-0.189c-0.818-0.548-1.626-1.075-2.417-1.568c-0.004-0.002-0.008-0.005-0.012-0.007
	c-0.802-0.501-1.588-0.97-2.362-1.416c-0.067-0.039-0.135-0.079-0.201-0.117c-0.739-0.423-1.463-0.819-2.176-1.195
	c-0.101-0.053-0.202-0.107-0.303-0.16c-0.695-0.361-1.377-0.701-2.048-1.019c-0.102-0.049-0.204-0.096-0.305-0.144
	c-0.673-0.314-1.335-0.61-1.984-0.882c-0.075-0.031-0.147-0.06-0.222-0.091c-0.674-0.279-1.337-0.541-1.984-0.776
	c-0.009-0.003-0.019-0.006-0.028-0.01c-0.656-0.238-1.297-0.452-1.927-0.646c-0.044-0.014-0.09-0.029-0.134-0.043
	c-0.603-0.185-1.191-0.347-1.769-0.493c-0.079-0.02-0.159-0.041-0.237-0.061c-0.558-0.138-1.104-0.257-1.639-0.361
	c-0.085-0.017-0.17-0.032-0.254-0.048c-0.531-0.099-1.051-0.183-1.559-0.25c-0.071-0.01-0.141-0.017-0.211-0.026
	c-0.52-0.064-1.029-0.116-1.525-0.149c-0.031-0.002-0.06-0.002-0.091-0.004c-0.491-0.031-0.97-0.046-1.438-0.048
	c-0.04,0-0.081-0.001-0.12-0.001c-0.608,0-1.196,0.025-1.763,0.072c-0.027,0.002-0.053,0.006-0.079,0.008
	c-0.543,0.047-1.066,0.114-1.572,0.2c-0.055,0.009-0.107,0.02-0.162,0.029c-0.476,0.084-0.937,0.185-1.38,0.301
	c-0.061,0.016-0.12,0.032-0.18,0.048C9.143,0.776,8.725,0.908,8.322,1.054c-0.053,0.019-0.107,0.038-0.16,0.057
	c-0.41,0.153-0.803,0.319-1.18,0.497c-0.035,0.016-0.07,0.031-0.104,0.048c-0.399,0.191-0.78,0.396-1.142,0.611
	C5.714,2.28,5.694,2.293,5.673,2.306C5.327,2.515,4.999,2.733,4.687,2.961C4.649,2.988,4.612,3.017,4.575,3.044
	c-0.292,0.217-0.57,0.442-0.832,0.672C3.705,3.751,3.667,3.785,3.628,3.819C3.373,4.05,3.131,4.286,2.905,4.527
	C2.873,4.561,2.841,4.594,2.81,4.627C2.58,4.876,2.366,5.129,2.167,5.385c-0.02,0.025-0.04,0.049-0.059,0.074
	C1.897,5.735,1.703,6.014,1.527,6.293c-0.006,0.01-0.012,0.02-0.018,0.029C1.337,6.598,1.183,6.874,1.044,7.148
	C1.031,7.174,1.019,7.2,1.006,7.226c-0.128,0.26-0.242,0.519-0.34,0.775C0.654,8.032,0.643,8.063,0.631,8.095
	C0.537,8.347,0.458,8.597,0.392,8.842C0.384,8.871,0.376,8.9,0.369,8.928c-0.064,0.25-0.112,0.496-0.146,0.735
	C0.22,9.683,0.216,9.702,0.214,9.721c-0.034,0.256-0.052,0.504-0.052,0.743c0,0.649,0,1.135,0,1.622C0.162,11.599,0,10.95,0,10.463
	V44.19c0,0.335,0.014,0.66,0.038,0.978c0.008,0.104,0.021,0.203,0.031,0.305c0.021,0.213,0.044,0.423,0.076,0.629
	c0.017,0.114,0.038,0.225,0.059,0.337c0.034,0.188,0.072,0.373,0.115,0.554c0.026,0.11,0.054,0.22,0.083,0.328
	c0.049,0.181,0.104,0.357,0.162,0.531c0.033,0.098,0.063,0.197,0.099,0.293c0.072,0.197,0.153,0.389,0.236,0.578
	c0.028,0.065,0.053,0.132,0.083,0.196c0.116,0.248,0.243,0.489,0.378,0.723c0.037,0.063,0.078,0.121,0.115,0.183
	c0.104,0.17,0.21,0.337,0.324,0.5c0.059,0.083,0.121,0.163,0.182,0.245c0.039,0.052,0.081,0.102,0.121,0.153
	c0.064,0.082,0.126,0.166,0.193,0.245c0.069,0.083,0.141,0.165,0.213,0.246c0.111,0.124,0.225,0.245,0.342,0.363
	C2.925,51.652,3,51.729,3.077,51.802c0.129,0.124,0.264,0.243,0.401,0.36c0.072,0.062,0.141,0.125,0.215,0.186
	c0.2,0.164,0.405,0.322,0.619,0.474c0.036,0.026,0.073,0.051,0.11,0.077c0.205,0.143,0.416,0.282,0.633,0.416
	c0.088,0.054,0.18,0.105,0.27,0.158c0.159,0.093,0.319,0.186,0.484,0.274c0.104,0.056,0.211,0.11,0.318,0.164
	c0.159,0.081,0.32,0.159,0.483,0.235c0.111,0.052,0.222,0.103,0.335,0.152c0.17,0.075,0.344,0.147,0.519,0.218
	c0.11,0.044,0.219,0.09,0.331,0.133c0.205,0.078,0.414,0.152,0.624,0.225c0.086,0.03,0.169,0.062,0.256,0.091
	c0.295,0.098,0.596,0.191,0.901,0.279c0.094,0.027,0.19,0.051,0.285,0.078c0.22,0.061,0.44,0.12,0.665,0.175
	c0.125,0.031,0.252,0.06,0.379,0.09c0.199,0.046,0.4,0.092,0.603,0.135c0.136,0.029,0.272,0.056,0.409,0.083
	c0.202,0.04,0.406,0.078,0.611,0.114c0.137,0.024,0.273,0.049,0.412,0.072c0.222,0.037,0.446,0.071,0.67,0.104
	c0.123,0.018,0.243,0.038,0.367,0.054c0.339,0.046,0.681,0.089,1.026,0.128c0.045,0.005,0.092,0.009,0.138,0.014
	c0.319,0.035,0.64,0.066,0.964,0.094c0.127,0.011,0.255,0.02,0.383,0.03c0.24,0.019,0.481,0.037,0.724,0.053
	c0.143,0.009,0.286,0.018,0.429,0.025c0.232,0.013,0.465,0.025,0.699,0.035c0.146,0.007,0.293,0.013,0.441,0.018
	c0.238,0.009,0.478,0.016,0.718,0.021c0.14,0.003,0.279,0.007,0.419,0.01c0.285,0.005,0.571,0.007,0.857,0.009
	c0.094,0,0.188,0.002,0.283,0.002c0.03,0,0.06,0,0.089,0c0.958,0,1.925-0.022,2.895-0.06c0.082-0.003,0.164-0.006,0.246-0.01
	c0.983-0.041,1.969-0.096,2.952-0.168L10.702,91.862c-0.074,0.167-0.127,0.323-0.168,0.472c-0.013,0.047-0.019,0.09-0.028,0.135
	c-0.021,0.1-0.037,0.196-0.042,0.286c-0.003,0.045-0.003,0.088-0.002,0.131c0.002,0.084,0.013,0.163,0.031,0.236
	c0.008,0.033,0.013,0.069,0.024,0.1c0.033,0.094,0.078,0.178,0.138,0.25c0.003,0.004,0.005,0.009,0.008,0.013
	c0.065,0.074,0.148,0.132,0.243,0.18c0.028,0.014,0.061,0.022,0.092,0.034c0.073,0.028,0.152,0.05,0.24,0.063
	c0.042,0.006,0.086,0.011,0.132,0.014c0.094,0.006,0.195,0.003,0.303-0.006c0.045-0.004,0.088-0.005,0.136-0.012
	c0.16-0.022,0.329-0.057,0.514-0.112l7.945-3.567c0.282-0.101,0.551-0.173,0.808-0.221c0.087-0.016,0.164-0.014,0.248-0.024
	c0.161-0.02,0.324-0.046,0.474-0.046c0.004,0,0.007,0.001,0.011,0.001c0.018,0,0.033,0.003,0.05,0.004
	c0.191,0.003,0.372,0.025,0.544,0.06c0.057,0.011,0.111,0.026,0.166,0.041c0.134,0.036,0.261,0.08,0.382,0.133
	c0.047,0.021,0.096,0.04,0.142,0.063c0.157,0.081,0.306,0.172,0.441,0.281c0.005,0.005,0.009,0.01,0.015,0.015
	c0.129,0.107,0.244,0.229,0.351,0.359c0.033,0.041,0.063,0.084,0.095,0.126c0.077,0.105,0.147,0.217,0.211,0.334
	c0.025,0.047,0.052,0.092,0.075,0.141c0.079,0.164,0.15,0.335,0.205,0.518l2.433,8.593c0.083,0.206,0.17,0.385,0.262,0.539
	c0.004,0.008,0.01,0.012,0.014,0.02c0.022,0.037,0.047,0.062,0.07,0.096c0.066,0.097,0.131,0.196,0.2,0.268
	c0.038,0.04,0.078,0.06,0.117,0.092c0.061,0.051,0.121,0.107,0.183,0.139c0.043,0.022,0.087,0.024,0.13,0.038
	c0.059,0.018,0.118,0.042,0.177,0.043c0.057,0.001,0.114-0.018,0.171-0.032c0.042-0.01,0.084-0.01,0.126-0.029
	c0.061-0.027,0.121-0.077,0.18-0.122c0.037-0.028,0.074-0.044,0.11-0.078c0.067-0.063,0.131-0.15,0.194-0.236
	c0.027-0.036,0.056-0.061,0.082-0.101c0.088-0.136,0.174-0.293,0.254-0.473l21.728-46.537l17.026,46.86
	c0.082,0.205,0.169,0.383,0.26,0.537c0.035,0.059,0.073,0.097,0.109,0.148c0.058,0.083,0.115,0.172,0.175,0.235
	c0.042,0.044,0.085,0.066,0.127,0.101c0.057,0.046,0.114,0.101,0.172,0.13c0.045,0.023,0.091,0.026,0.136,0.04
	c0.057,0.017,0.113,0.041,0.17,0.042c0.058,0.001,0.116-0.018,0.174-0.033c0.042-0.01,0.083-0.01,0.125-0.029
	c0.06-0.026,0.118-0.076,0.176-0.119c0.038-0.028,0.077-0.045,0.115-0.081c0.063-0.06,0.123-0.143,0.183-0.222
	c0.03-0.041,0.063-0.069,0.093-0.115c0.089-0.135,0.174-0.292,0.254-0.473l2.918-8.593c0.05-0.113,0.108-0.223,0.17-0.331
	c0.017-0.03,0.035-0.059,0.053-0.089c0.051-0.084,0.106-0.166,0.164-0.246c0.018-0.024,0.034-0.048,0.052-0.072
	c0.076-0.099,0.157-0.193,0.243-0.283c0.016-0.017,0.034-0.031,0.05-0.048c0.073-0.072,0.15-0.141,0.23-0.206
	c0.027-0.022,0.054-0.043,0.082-0.064c0.089-0.067,0.182-0.129,0.278-0.185c0.012-0.007,0.023-0.015,0.035-0.021
	c0.011-0.006,0.022-0.012,0.033-0.018c0.099-0.053,0.202-0.098,0.308-0.138c0.03-0.012,0.061-0.021,0.092-0.031
	c0.094-0.031,0.191-0.058,0.29-0.078c0.033-0.007,0.065-0.015,0.099-0.02c0.129-0.021,0.261-0.034,0.397-0.035
	c0.003,0,0.006-0.001,0.009-0.001c0.018,0,0.036,0.004,0.054,0.004c0.104,0.002,0.21,0.01,0.319,0.024
	c0.043,0.006,0.087,0.016,0.13,0.023c0.09,0.017,0.182,0.038,0.275,0.064c0.049,0.014,0.098,0.028,0.147,0.044
	c0.096,0.032,0.193,0.07,0.292,0.112c0.045,0.02,0.09,0.037,0.137,0.058c0.144,0.068,0.29,0.145,0.439,0.237l7.783,4.378
	c0.186,0.083,0.36,0.143,0.523,0.184c0.056,0.014,0.102,0.013,0.155,0.022c0.103,0.018,0.206,0.039,0.297,0.04
	c0.121,0.001,0.23-0.015,0.33-0.043c0.027-0.008,0.05-0.02,0.075-0.029c0.072-0.028,0.138-0.064,0.197-0.109
	c0.022-0.017,0.045-0.034,0.066-0.054c0.063-0.062,0.119-0.133,0.161-0.218c0.004-0.008,0.011-0.014,0.015-0.022
	c0.044-0.095,0.071-0.208,0.087-0.33c0.004-0.034,0.005-0.071,0.007-0.107c0.006-0.098,0.004-0.204-0.006-0.316
	c-0.004-0.043-0.007-0.086-0.014-0.131c-0.023-0.158-0.056-0.324-0.111-0.506L73.291,56.351c0.585,0.055,1.173,0.104,1.762,0.148
	c0.143,0.011,0.286,0.022,0.429,0.032c0.588,0.042,1.178,0.081,1.767,0.112c0.053,0.003,0.106,0.005,0.16,0.007
	c0.547,0.028,1.094,0.049,1.639,0.066c0.134,0.004,0.267,0.008,0.401,0.012c0.584,0.015,1.167,0.023,1.746,0.024
	c0.377,0,0.753-0.001,1.126-0.008c0.068-0.001,0.135-0.003,0.203-0.005c0.32-0.006,0.638-0.015,0.955-0.025
	c0.134-0.005,0.268-0.011,0.401-0.017c0.254-0.011,0.507-0.023,0.758-0.037c0.141-0.008,0.281-0.016,0.421-0.025
	c0.257-0.017,0.512-0.036,0.766-0.056c0.123-0.01,0.247-0.019,0.369-0.029c0.37-0.033,0.738-0.068,1.101-0.109
	c0.005-0.001,0.011-0.001,0.016-0.002c0.36-0.041,0.716-0.087,1.069-0.137c0.11-0.016,0.219-0.033,0.328-0.049
	c0.25-0.038,0.499-0.077,0.745-0.119c0.121-0.021,0.242-0.042,0.361-0.064c0.241-0.044,0.48-0.091,0.717-0.14
	c0.108-0.022,0.216-0.044,0.323-0.067c0.302-0.066,0.601-0.136,0.895-0.21c0.035-0.008,0.07-0.016,0.104-0.025
	c0.329-0.084,0.652-0.175,0.97-0.27c0.084-0.025,0.167-0.053,0.25-0.079c0.232-0.072,0.461-0.147,0.687-0.226
	c0.101-0.035,0.2-0.071,0.3-0.107c0.211-0.077,0.418-0.157,0.623-0.24c0.093-0.037,0.186-0.074,0.277-0.113
	c0.238-0.101,0.472-0.206,0.701-0.315c0.048-0.023,0.099-0.044,0.146-0.068c0.277-0.135,0.546-0.277,0.808-0.424
	c0.058-0.033,0.112-0.067,0.169-0.101c0.201-0.117,0.397-0.236,0.588-0.361c0.079-0.051,0.155-0.104,0.232-0.157
	c0.168-0.115,0.332-0.232,0.492-0.354c0.074-0.056,0.148-0.112,0.221-0.169c0.173-0.138,0.34-0.28,0.503-0.426
	c0.048-0.042,0.098-0.083,0.145-0.127c0.208-0.192,0.406-0.392,0.596-0.599c0.035-0.038,0.065-0.078,0.1-0.116
	c0.15-0.17,0.296-0.344,0.435-0.523c0.054-0.071,0.106-0.144,0.158-0.216c0.113-0.156,0.223-0.315,0.327-0.479
	c0.05-0.079,0.101-0.159,0.149-0.24c0.104-0.175,0.202-0.354,0.295-0.537c0.036-0.071,0.075-0.139,0.109-0.211
	c0.123-0.256,0.236-0.518,0.338-0.79c0.013-0.034,0.022-0.07,0.035-0.104c0.086-0.238,0.164-0.483,0.233-0.733
	c0.025-0.093,0.047-0.189,0.071-0.284c0.049-0.201,0.094-0.405,0.133-0.614c0.02-0.107,0.039-0.214,0.056-0.323
	c0.034-0.216,0.061-0.438,0.083-0.662c0.01-0.101,0.022-0.199,0.03-0.301c0.024-0.327,0.04-0.66,0.04-1.004V10.463
	c0.081,0.122,0.132,0.254,0.162,0.391c0,0,0,0,0,0c0-0.137,0-0.269,0-0.391C102.315,10.23,102.297,9.986,102.263,9.734z
	 M8.918,10.301c6.162-11.35,32.429,10.378,32.429,10.378S2.918,21.165,8.918,10.301z M51.238,49.217
	c-5.675,0-7.621-4.378-7.621-10.053c0-5.675,1.946-10.54,7.621-10.54c5.675,0,7.297,5.513,7.297,11.188
	C58.535,45.487,56.913,49.217,51.238,49.217z M61.129,20.679c0,0,27.241-21.728,33.402-10.54
	C100.531,21.003,61.129,20.679,61.129,20.679z" class="color c1"/>
</svg>