<svg version="1.1" id="图层_1" x="0px" y="0px" width="179.494px" height="129.733px" viewBox="0 0 179.494 129.733" enable-background="new 0 0 179.494 129.733" xml:space="preserve" xmlns="http://www.w3.org/2000/svg" xmlns:xlink="http://www.w3.org/1999/xlink" xmlns:xml="http://www.w3.org/XML/1998/namespace">
  <path fill="#00A9D5" d="M32.737,110.766c-17.27,1.696-31.622-5.383-32.677-16.117c-0.909-9.267,8.48-17.983,22.837-21.198
	c1.228-0.274,2.447,0.497,2.723,1.726c0.273,1.229-0.497,2.447-1.727,2.722C12.046,80.552,3.929,87.408,4.597,94.203
	c0.78,7.916,13.461,13.424,27.694,12.025c11.26-1.106,20.88-6.148,23.936-12.548c0.544-1.136,1.907-1.615,3.04-1.074
	c1.136,0.543,1.617,1.904,1.075,3.04C56.563,103.555,45.727,109.49,32.737,110.766z M157.146,31.612
	c13.549-1.815,23.134-9.598,22.297-18.105c-0.869-8.853-12.673-14.696-26.87-13.301c-14.197,1.395-24.636,9.422-23.768,18.276
	c0.108,1.096,1.083,1.898,2.182,1.79c1.097-0.107,1.896-1.083,1.788-2.18c-0.629-6.406,8.615-12.778,20.188-13.916
	c11.573-1.138,21.882,3.314,22.513,9.721c0.6,6.116-7.86,12.289-18.858,13.762c-1.091,0.146-1.858,1.15-1.712,2.241
	c0.145,1.068,1.107,1.825,2.173,1.72C157.099,31.617,157.123,31.614,157.146,31.612z M147.209,129.46
	c18.395-1.89,31.844-12.724,30.618-24.661c-1.026-9.988-12.319-17.448-27.464-18.143c-1.256-0.062-2.322,0.914-2.38,2.173
	c-0.058,1.258,0.914,2.324,2.172,2.382c12.629,0.578,22.359,6.487,23.136,14.053c0.933,9.084-11.223,18.087-26.548,19.661
	c-0.072,0.009-0.143,0.016-0.213,0.021c-7.659,0.753-15.01-0.364-20.714-3.155c-5.403-2.642-8.62-6.448-9.059-10.719
	c-0.276-2.68,0.537-5.367,2.412-7.989c0.733-1.023,0.499-2.447-0.527-3.18c-1.021-0.732-2.447-0.498-3.178,0.526
	c-2.507,3.502-3.629,7.344-3.242,11.11c0.604,5.892,4.723,10.988,11.591,14.346c6.455,3.158,14.673,4.433,23.163,3.6
	C147.055,129.476,147.131,129.469,147.209,129.46z M154.635,25.339c0.008-0.001,0.016-0.002,0.024-0.002
	c8.396-0.824,14.805-5.52,14.316-10.484c-0.486-4.967-7.688-8.324-16.082-7.499c-8.396,0.826-14.804,5.519-14.315,10.485
	c0.073,0.759,0.321,1.474,0.69,2.147c-13.982,9.017-43.608,25.317-75.154-3.372c0.972-0.912,1.488-1.906,1.39-2.901
	c-0.302-3.076-6.261-5.008-13.31-4.315s-12.517,3.747-12.213,6.821c0.237,2.437,4.031,4.148,9.097,4.415
	c5.522,3.752,17.26,8.339,13.828,25.853c-3.396,17.326-19.879,28.234-30.435,33.55c-1.322-0.041-2.685-0.003-4.079,0.133
	c-10.432,1.026-18.395,6.858-17.787,13.028c0.607,6.17,9.554,10.341,19.981,9.316c10.43-1.024,18.395-6.857,17.79-13.026
	c-0.006-0.051-0.021-0.099-0.027-0.148c18.552-9.277,47.303-20.496,79.729,13.715c-1.212,1.766-1.81,3.694-1.608,5.662
	c0.661,6.437,9.573,10.795,19.905,9.732c10.33-1.061,18.172-7.14,17.509-13.577c-0.547-5.329-6.758-9.224-14.741-9.807
	C138.016,82.018,117.984,51.177,154.635,25.339z M51.413,25.578c0.005-0.944-0.754-1.714-1.7-1.719
	c-8.614-0.054-15.409-3.118-15.803-7.128c-0.408-4.164,6.922-9.567,18.097-10.666c11.172-1.098,19.417,2.777,19.825,6.941
	c0.118,1.19-0.335,2.426-1.347,3.676c-0.592,0.734-0.48,1.81,0.253,2.404c0.735,0.593,1.811,0.481,2.405-0.253
	c1.574-1.944,2.297-4.075,2.093-6.162C74.563,5.827,64.212,1.429,51.673,2.662C39.131,3.894,29.835,10.22,30.508,17.065
	c0.583,5.946,8.474,10.146,19.184,10.212c0.062,0,0.122-0.002,0.18-0.009C50.732,27.184,51.409,26.461,51.413,25.578z" class="color c1"/>
</svg>