<svg version="1.1" id="图层_1" x="0px" y="0px" width="130.112px" height="180.04px" viewBox="0 0 130.112 180.04" enable-background="new 0 0 130.112 180.04" xml:space="preserve" xmlns="http://www.w3.org/2000/svg" xmlns:xlink="http://www.w3.org/1999/xlink" xmlns:xml="http://www.w3.org/XML/1998/namespace">
  <path fill="#D3D3D3" d="M113.91,169.336c-0.343,0.038-0.688,0.053-1.035,0.057c-0.079,0.001-0.157,0.003-0.236,0.002
	c-0.338-0.003-0.681-0.017-1.023-0.048c-0.048-0.005-0.098-0.013-0.146-0.017c-0.313-0.033-0.623-0.078-0.932-0.132
	c-0.07-0.012-0.139-0.022-0.209-0.035c-0.338-0.065-0.676-0.144-1.009-0.234c-0.068-0.018-0.138-0.039-0.204-0.058
	c-0.304-0.085-0.607-0.182-0.904-0.286c-0.046-0.016-0.097-0.032-0.141-0.048c-0.336-0.122-0.663-0.256-0.986-0.397
	c-0.082-0.037-0.162-0.076-0.245-0.115c-0.248-0.114-0.493-0.235-0.729-0.359c-0.087-0.046-0.178-0.093-0.265-0.141
	c-0.305-0.168-0.604-0.342-0.889-0.525c-0.164-0.104-0.321-0.22-0.476-0.343c-0.019-0.016-0.042-0.033-0.061-0.049
	c-0.145-0.12-0.288-0.248-0.428-0.381c-0.026-0.025-0.05-0.05-0.075-0.073c-0.137-0.136-0.273-0.276-0.404-0.424
	c-0.023-0.023-0.042-0.048-0.067-0.073c-0.137-0.155-0.272-0.313-0.403-0.477c-0.006-0.006-0.01-0.011-0.013-0.016
	c-0.133-0.165-0.266-0.335-0.397-0.508c-0.016-0.024-0.037-0.047-0.054-0.07c-0.127-0.169-0.252-0.342-0.376-0.514
	c-0.028-0.038-0.057-0.078-0.084-0.116c-0.122-0.167-0.242-0.338-0.364-0.509c-0.145-0.205-0.29-0.41-0.438-0.615
	c-0.004-0.004-0.005-0.007-0.009-0.01c-0.13-0.184-0.263-0.364-0.397-0.543c-0.017-0.021-0.029-0.041-0.045-0.06
	c-0.129-0.174-0.26-0.343-0.392-0.511c-0.022-0.029-0.047-0.058-0.07-0.088c-0.131-0.164-0.264-0.324-0.401-0.48
	c-0.022-0.025-0.046-0.051-0.066-0.075c-0.14-0.161-0.283-0.316-0.432-0.465c-0.008-0.01-0.02-0.02-0.029-0.029
	c-0.144-0.145-0.296-0.285-0.446-0.415c-0.015-0.015-0.031-0.03-0.048-0.043c-0.15-0.13-0.308-0.251-0.466-0.363
	c-0.028-0.021-0.056-0.041-0.084-0.059c-0.157-0.109-0.32-0.21-0.487-0.301c-0.028-0.014-0.058-0.029-0.087-0.045
	c-0.171-0.089-0.347-0.171-0.532-0.24c-0.003-0.001-0.009-0.004-0.012-0.006c-0.057-0.021-0.115-0.037-0.173-0.056
	c-0.05-0.016-0.104-0.035-0.156-0.051c-0.067-0.02-0.137-0.033-0.206-0.05c-0.052-0.012-0.105-0.026-0.158-0.036
	c-0.078-0.015-0.157-0.026-0.236-0.037c-0.045-0.006-0.094-0.015-0.141-0.02c-0.13-0.014-0.258-0.021-0.393-0.024
	c-0.534-0.01-1.018,0.096-1.457,0.286c-1.612-0.245-3.165-0.155-4.688,0.256c-3.554-0.711-6.601,2.534-9.699,5.152
	c-1.828,1.061-3.669,2.077-5.59,3.007c-0.487,0.045-0.983,0.029-1.488-0.082c-1.063-0.231-1.99,0.047-2.705,0.579
	c-0.252,0.052-0.504,0.097-0.755,0.123c-1.565,0.162-3.155-0.217-4.718-0.246c-0.393-0.008-0.794-0.013-1.2-0.02
	c-0.36-0.005-0.726-0.013-1.092-0.02c-0.064-0.001-0.128-0.002-0.194-0.004c-0.377-0.011-0.755-0.023-1.137-0.039
	c-0.002,0-0.004,0-0.004,0c-0.368-0.018-0.739-0.04-1.107-0.068c-0.071-0.006-0.14-0.01-0.207-0.014
	c-0.361-0.03-0.723-0.066-1.083-0.11c-0.062-0.008-0.127-0.017-0.191-0.025c-0.365-0.047-0.73-0.103-1.087-0.168
	c-0.012-0.002-0.02-0.003-0.031-0.005c-0.36-0.066-0.715-0.149-1.067-0.24c-0.064-0.016-0.131-0.033-0.197-0.052
	c-0.34-0.092-0.678-0.198-1.007-0.317c-0.072-0.026-0.142-0.055-0.212-0.081c-0.208-0.081-0.414-0.166-0.617-0.259
	c-0.079-0.035-0.156-0.068-0.229-0.105c-0.265-0.128-0.526-0.262-0.78-0.415c-4.539-2.712-0.739-6.668-0.142-10.876
	c0.491-3.45-0.903-7.575,2.78-9.191c3.107-1.365,6.673,0.035,9.667,1.031c3.419,1.138,9.553,3.76,12.097-0.064
	c1.394-2.094,1.679-5.035,2.159-7.456c0.03-0.16,0.049-0.32,0.061-0.48c0.006-0.045,0.004-0.091,0.009-0.139
	c0.005-0.115,0.006-0.231,0.002-0.345c-0.001-0.046-0.003-0.092-0.006-0.136c-0.01-0.146-0.025-0.289-0.048-0.429
	c-0.003-0.008-0.002-0.015-0.006-0.024c-0.024-0.147-0.062-0.294-0.104-0.436c-0.01-0.04-0.024-0.08-0.039-0.119
	c-0.032-0.105-0.073-0.21-0.114-0.312c-0.016-0.041-0.031-0.08-0.049-0.12c-0.056-0.121-0.114-0.239-0.18-0.354
	c-0.008-0.013-0.014-0.025-0.02-0.038c-0.073-0.125-0.157-0.247-0.243-0.365c-0.023-0.032-0.048-0.063-0.072-0.093
	c-0.068-0.087-0.137-0.17-0.211-0.252c-0.03-0.032-0.058-0.064-0.089-0.097c-0.087-0.091-0.175-0.174-0.27-0.258
	c-0.018-0.014-0.031-0.028-0.049-0.042c-0.109-0.093-0.227-0.18-0.347-0.262c-0.031-0.022-0.066-0.042-0.097-0.063
	c-0.093-0.059-0.187-0.115-0.282-0.166c-0.042-0.023-0.08-0.044-0.124-0.065c-0.107-0.055-0.214-0.103-0.329-0.146
	c-0.027-0.011-0.05-0.022-0.076-0.032c-0.007-0.003-0.013-0.005-0.02-0.008c-0.081-0.03-0.168-0.053-0.252-0.079
	c-0.065-0.019-0.13-0.042-0.196-0.06c-0.098-0.023-0.196-0.038-0.296-0.056c-0.065-0.011-0.128-0.026-0.191-0.035
	c-0.115-0.015-0.23-0.019-0.348-0.022c-0.053-0.002-0.106-0.011-0.159-0.009c-0.17-0.002-0.344,0.007-0.52,0.027
	c-0.208,0.024-0.421,0.047-0.635,0.068c-0.063,0.008-0.13,0.015-0.195,0.021c-0.149,0.015-0.297,0.032-0.444,0.045
	c-0.077,0.007-0.159,0.013-0.236,0.019c-0.134,0.013-0.269,0.024-0.404,0.036c-0.087,0.006-0.173,0.012-0.259,0.019
	c-0.129,0.01-0.255,0.019-0.382,0.026c-0.089,0.005-0.181,0.01-0.268,0.016c-0.125,0.006-0.25,0.012-0.375,0.018
	c-0.091,0.004-0.182,0.007-0.272,0.01c-0.122,0.003-0.245,0.008-0.368,0.01c-0.092,0.001-0.18,0.003-0.274,0.004
	c-0.123,0-0.244,0.002-0.368,0c-0.087,0-0.179-0.001-0.266-0.001c-0.125-0.003-0.251-0.008-0.375-0.012
	c-0.086-0.003-0.171-0.005-0.252-0.01c-0.133-0.006-0.267-0.017-0.398-0.025c-0.077-0.006-0.152-0.01-0.229-0.016
	c-0.157-0.013-0.312-0.029-0.468-0.046c-0.05-0.006-0.098-0.011-0.148-0.017c-0.204-0.023-0.404-0.052-0.607-0.086
	c-0.049-0.008-0.095-0.018-0.145-0.026c-0.15-0.026-0.301-0.053-0.452-0.084c-0.071-0.016-0.144-0.033-0.215-0.05
	c-0.125-0.028-0.248-0.056-0.373-0.088c-0.078-0.021-0.155-0.043-0.232-0.066c-0.115-0.031-0.229-0.065-0.343-0.102
	c-0.081-0.024-0.159-0.053-0.237-0.081c-0.098-0.033-0.195-0.068-0.289-0.103c-0.243-0.093-0.482-0.189-0.714-0.3
	c-4.138-1.954-1.203-5.682-1.04-9.354c0.131-3.016-1.416-6.451,1.619-8.154c2.559-1.436,5.75-0.528,8.418,0.078
	c1.388,0.313,9.595,1.652,10.173,0.503c0.018-0.036,0.035-0.072,0.054-0.108c-0.103-0.614-0.127-1.24-0.078-1.86
	c-0.023-0.027-0.043-0.053-0.048-0.083c-0.006-0.022-0.007-0.059-0.012-0.109c0-0.016,0.002-0.039-0.002-0.058
	c-0.001-0.041,0-0.08-0.001-0.133c0-0.029,0-0.066,0.001-0.098c-0.001-0.055,0-0.106,0.002-0.171c0.001-0.036,0-0.081,0.001-0.122
	c0.003-0.07,0.006-0.14,0.008-0.221c0-0.04,0.002-0.084,0.003-0.126c0.002-0.092,0.006-0.186,0.011-0.286
	c-0.001-0.037,0-0.078,0.003-0.115c0.004-0.118,0.009-0.238,0.011-0.368c0.002-0.018,0.004-0.039,0.004-0.056
	c0.016-0.416,0.035-0.891,0.054-1.404c0.001-0.027,0.002-0.056,0.002-0.086c0.006-0.157,0.013-0.317,0.017-0.481
	c0.005-0.059,0.007-0.12,0.008-0.18c0.005-0.144,0.01-0.287,0.016-0.433c0.003-0.087,0.005-0.173,0.008-0.261
	c0.003-0.138,0.009-0.277,0.013-0.418c0.005-0.094,0.005-0.189,0.01-0.286c0.003-0.134,0.006-0.271,0.011-0.408
	c0.005-0.104,0.008-0.212,0.009-0.319c0.002-0.135,0.005-0.269,0.01-0.404c0.003-0.111,0.004-0.222,0.005-0.335
	c0.005-0.133,0.007-0.267,0.009-0.402c0.002-0.113,0.006-0.226,0.006-0.338c0.004-0.136,0.006-0.27,0.007-0.405
	c0.001-0.116,0.002-0.231,0.001-0.348c0.001-0.133,0.002-0.265,0.001-0.398c0.001-0.117,0.002-0.233,0.004-0.351
	c-0.002-0.13,0-0.26-0.002-0.39c0-0.118-0.001-0.233-0.004-0.351c-0.001-0.128,0-0.254-0.002-0.379
	c-0.002-0.119-0.005-0.236-0.007-0.353c-0.001-0.122-0.006-0.245-0.007-0.365c-0.002-0.117-0.007-0.23-0.01-0.345
	c-0.003-0.117-0.008-0.233-0.012-0.348c-0.002-0.117-0.01-0.232-0.015-0.348c-0.004-0.107-0.012-0.217-0.015-0.321
	c-0.008-0.115-0.015-0.224-0.022-0.335c-0.006-0.103-0.012-0.205-0.02-0.304c-0.01-0.109-0.019-0.214-0.028-0.32
	c-0.009-0.094-0.016-0.189-0.026-0.28c-0.01-0.113-0.023-0.219-0.036-0.327c-0.009-0.076-0.018-0.155-0.028-0.229
	c-0.015-0.123-0.033-0.238-0.051-0.353c-0.007-0.05-0.018-0.105-0.024-0.155c-0.027-0.159-0.058-0.311-0.086-0.45
	c-0.013-0.043-0.023-0.079-0.033-0.12c-0.023-0.094-0.046-0.19-0.072-0.274c-0.014-0.046-0.03-0.083-0.045-0.125
	c-0.024-0.07-0.048-0.141-0.074-0.201c-0.016-0.041-0.036-0.072-0.054-0.108c-0.027-0.052-0.053-0.106-0.081-0.149
	c-0.02-0.032-0.043-0.053-0.064-0.08c-0.028-0.036-0.056-0.073-0.088-0.1c-0.02-0.02-0.047-0.031-0.071-0.045
	c-0.025-0.016-0.05-0.04-0.076-0.049c-0.009-0.003-0.02-0.002-0.027-0.005c-0.01-0.002-0.02-0.003-0.031-0.007
	c-0.057-0.011-0.11-0.012-0.173,0c-1.077,0.301-2.078,0.904-2.857,1.793c-0.876,0.999-1.358,2.193-1.467,3.409
	c-1.304,0.556-3.335,0.565-4.731,0.773c-0.239,0.037-0.486,0.075-0.733,0.114c-0.126,0.02-0.251,0.038-0.379,0.057
	c-0.036,0.006-0.07,0.01-0.104,0.017c-0.154,0.023-0.309,0.046-0.463,0.069c-0.062,0.009-0.123,0.018-0.185,0.027
	c-0.132,0.019-0.264,0.038-0.396,0.056c-0.068,0.01-0.136,0.018-0.204,0.027c-0.127,0.017-0.252,0.034-0.38,0.048
	c-0.07,0.01-0.144,0.018-0.216,0.027c-0.124,0.014-0.248,0.028-0.372,0.042c-0.074,0.008-0.145,0.016-0.22,0.02
	c-0.122,0.014-0.244,0.025-0.369,0.036c-0.078,0.007-0.158,0.01-0.235,0.016c-0.12,0.008-0.237,0.017-0.354,0.024
	c-0.081,0.004-0.163,0.007-0.245,0.009c-0.114,0.005-0.229,0.01-0.344,0.013c-0.084,0.002-0.167,0.001-0.252,0
	c-0.109,0.002-0.224,0.002-0.335,0.001c-0.085-0.001-0.171-0.006-0.255-0.008c-0.109-0.003-0.218-0.006-0.326-0.013
	c-0.087-0.005-0.172-0.013-0.257-0.02c-0.109-0.01-0.216-0.018-0.321-0.029c-0.086-0.009-0.173-0.022-0.258-0.033
	c-0.105-0.014-0.208-0.027-0.313-0.043c-0.086-0.015-0.171-0.033-0.257-0.049c-0.101-0.019-0.204-0.039-0.306-0.062
	c-0.086-0.02-0.169-0.042-0.253-0.063c-0.1-0.027-0.199-0.052-0.297-0.081c-0.084-0.024-0.169-0.056-0.252-0.083
	c-0.119-0.039-0.238-0.078-0.353-0.122c-3.92-1.526-1.467-5.134-1.558-8.515c-0.075-2.773-1.713-5.823,0.96-7.581
	c2.254-1.482,5.239-0.858,7.721-0.475c2.803,0.432,7.382,2.229,9.404-0.75c1.049-1.542,0.349-3.689,0.264-5.43
	c-0.065-1.293,0.14-3.425-0.658-4.53c-0.087-0.124-0.188-0.233-0.294-0.335c-0.034-0.032-0.074-0.061-0.11-0.091
	c-0.076-0.065-0.153-0.127-0.236-0.183c-0.045-0.03-0.091-0.057-0.141-0.086c-0.083-0.047-0.166-0.092-0.253-0.132
	c-0.049-0.024-0.101-0.047-0.153-0.069c-0.031-0.012-0.059-0.026-0.092-0.039c-0.07-0.026-0.144-0.046-0.215-0.068
	c-0.041-0.013-0.08-0.027-0.12-0.036c-0.149-0.041-0.299-0.074-0.457-0.099c-0.026-0.004-0.056-0.008-0.084-0.011
	c-0.13-0.02-0.266-0.035-0.401-0.045c-0.054-0.005-0.109-0.008-0.163-0.01c-0.119-0.006-0.231-0.01-0.35-0.012
	c-0.056,0-0.116-0.002-0.171,0c-0.131,0-0.263,0.007-0.395,0.014c-0.04,0.002-0.082,0.002-0.12,0.005
	c-0.173,0.012-0.346,0.028-0.519,0.046c-0.043,0.004-0.087,0.011-0.133,0.016c-0.131,0.017-0.26,0.034-0.39,0.052
	c-0.06,0.01-0.119,0.019-0.181,0.029c-0.117,0.019-0.231,0.039-0.344,0.059c-0.058,0.011-0.116,0.021-0.172,0.032
	c-0.138,0.025-0.271,0.054-0.405,0.082c-0.029,0.005-0.058,0.012-0.087,0.018c-0.161,0.035-0.318,0.071-0.47,0.106
	c-0.053,0.013-0.104,0.025-0.156,0.038c-0.103,0.024-0.201,0.049-0.298,0.074c-0.057,0.014-0.113,0.029-0.167,0.042
	c-0.097,0.025-0.188,0.048-0.279,0.073c-0.046,0.012-0.092,0.024-0.136,0.037c-0.122,0.031-0.238,0.063-0.346,0.092
	c-2.686,0.723-5.817,1.719-8.604,0.986c-0.204-0.053-0.386-0.119-0.559-0.187c-0.092-0.037-0.173-0.076-0.256-0.116
	c-0.097-0.046-0.193-0.093-0.28-0.145c-0.073-0.044-0.141-0.094-0.208-0.141c-0.077-0.056-0.152-0.111-0.219-0.172
	c-0.06-0.053-0.112-0.107-0.165-0.164c-0.058-0.063-0.115-0.127-0.166-0.194c-0.045-0.062-0.087-0.123-0.125-0.185
	c-0.043-0.071-0.083-0.142-0.121-0.217c-0.032-0.067-0.063-0.135-0.09-0.205c-0.03-0.077-0.057-0.155-0.082-0.235
	c-0.021-0.073-0.042-0.146-0.059-0.221c-0.02-0.083-0.036-0.167-0.049-0.252c-0.013-0.078-0.025-0.157-0.034-0.236
	c-0.011-0.088-0.017-0.178-0.021-0.267c-0.007-0.083-0.011-0.166-0.015-0.25c-0.002-0.092-0.002-0.185-0.002-0.279
	c0.002-0.088,0.002-0.175,0.004-0.264c0.002-0.096,0.007-0.192,0.012-0.29c0.005-0.091,0.008-0.184,0.014-0.277
	c0.006-0.1,0.014-0.202,0.021-0.303c0.012-0.173,0.024-0.352,0.038-0.53c0.006-0.088,0.013-0.174,0.019-0.262
	c0.008-0.118,0.015-0.238,0.022-0.356c0.004-0.085,0.01-0.167,0.015-0.252c0.003-0.119,0.006-0.238,0.009-0.356
	c0.001-0.08,0.005-0.158,0.005-0.238c0.001-0.132-0.005-0.262-0.01-0.393c-0.002-0.066-0.001-0.132-0.006-0.197
	c-0.011-0.195-0.029-0.39-0.056-0.582c-0.366-2.574-2.221-5.243,0.082-7.167c1.942-1.623,4.79-1.361,7.141-1.27
	c1.685,0.064,3.408-0.045,5.082-0.21c3.459-0.341,3.571-3.621,3.9-6.331c0.191-1.592,0.274-3.762-1.311-4.712
	c-0.1-0.061-0.199-0.106-0.295-0.143c-0.012-0.006-0.022-0.013-0.033-0.017c-0.028-0.011-0.054-0.014-0.082-0.025
	c-0.032-0.009-0.063-0.02-0.093-0.026c-0.044-0.011-0.087-0.018-0.129-0.023c-0.028-0.004-0.058-0.011-0.087-0.013
	c-0.044-0.003-0.087-0.003-0.132-0.003c-0.024,0.001-0.05-0.001-0.076-0.001c-0.052,0.003-0.104,0.012-0.157,0.021
	c-0.013,0.002-0.03,0.002-0.043,0.006c-0.066,0.013-0.132,0.031-0.197,0.052c-0.021,0.007-0.041,0.016-0.063,0.024
	c-0.043,0.016-0.087,0.032-0.129,0.051c-0.028,0.013-0.055,0.025-0.082,0.038c-0.037,0.018-0.073,0.035-0.109,0.056
	c-0.028,0.015-0.057,0.032-0.087,0.048c-0.033,0.02-0.067,0.038-0.101,0.06c-0.03,0.019-0.06,0.038-0.089,0.058
	c-0.033,0.02-0.065,0.042-0.1,0.063c-0.03,0.022-0.063,0.043-0.091,0.064c-0.033,0.022-0.064,0.043-0.095,0.066
	c-0.036,0.024-0.072,0.051-0.107,0.078c-0.029,0.02-0.056,0.039-0.085,0.06c-0.059,0.044-0.12,0.088-0.182,0.132
	c-0.024,0.018-0.047,0.035-0.071,0.05c-0.041,0.03-0.083,0.057-0.123,0.085c-0.025,0.016-0.048,0.034-0.073,0.051
	c-0.044,0.029-0.088,0.058-0.132,0.085c-0.021,0.013-0.042,0.027-0.062,0.041c-0.067,0.041-0.134,0.079-0.2,0.115
	c-0.89,0.482-1.932,0.647-2.869,1.015c-2.238,0.873-4.837,2.022-7.298,1.657c-0.188-0.028-0.356-0.066-0.516-0.111
	c-0.044-0.013-0.087-0.025-0.128-0.04c-0.103-0.034-0.198-0.071-0.289-0.111c-0.062-0.028-0.126-0.055-0.185-0.085
	c-0.077-0.042-0.149-0.089-0.219-0.136c-0.047-0.033-0.1-0.065-0.145-0.101c-0.068-0.054-0.126-0.114-0.184-0.174
	c-0.036-0.037-0.076-0.071-0.109-0.109c-0.061-0.073-0.114-0.152-0.164-0.232c-0.022-0.031-0.046-0.06-0.064-0.091
	c-0.065-0.115-0.121-0.234-0.169-0.359c-0.014-0.037-0.023-0.078-0.037-0.115c-0.032-0.093-0.063-0.185-0.086-0.281
	c-0.015-0.056-0.025-0.114-0.036-0.172c-0.019-0.083-0.037-0.166-0.05-0.252c-0.01-0.065-0.019-0.13-0.026-0.198
	c-0.011-0.082-0.022-0.166-0.032-0.252c-0.006-0.069-0.012-0.141-0.016-0.211c-0.007-0.087-0.013-0.175-0.02-0.263
	c-0.004-0.075-0.008-0.151-0.01-0.229c-0.005-0.095-0.009-0.192-0.013-0.289c-0.004-0.12-0.009-0.241-0.013-0.362
	c-0.004-0.091-0.007-0.182-0.011-0.273c-0.005-0.095-0.009-0.19-0.015-0.285c-0.004-0.077-0.008-0.153-0.012-0.229
	c-0.007-0.098-0.017-0.193-0.025-0.292c-0.005-0.07-0.012-0.141-0.018-0.211c-0.012-0.107-0.03-0.213-0.045-0.319
	c-0.008-0.058-0.014-0.117-0.024-0.176c-0.028-0.164-0.062-0.324-0.103-0.484c-0.557-2.178-2.401-4.292-0.604-6.163
	c1.515-1.577,3.985-1.619,6.014-1.762c2.317-0.166,6.618-0.111,7.194-3.016c0.315-1.592-0.24-3.413-0.549-4.975
	c-0.024-0.12-0.057-0.235-0.094-0.346c-0.013-0.038-0.031-0.072-0.045-0.109c-0.028-0.071-0.055-0.143-0.089-0.211
	c-0.021-0.041-0.043-0.079-0.066-0.118c-0.033-0.059-0.064-0.119-0.103-0.176c-0.027-0.04-0.055-0.076-0.083-0.114
	c-0.038-0.052-0.076-0.103-0.117-0.151c-0.032-0.036-0.065-0.07-0.098-0.105c-0.043-0.046-0.085-0.089-0.132-0.131
	c-0.036-0.033-0.07-0.063-0.108-0.093c-0.048-0.039-0.096-0.077-0.146-0.112c-0.04-0.028-0.078-0.056-0.118-0.08
	c-0.052-0.033-0.104-0.064-0.157-0.094c-0.042-0.023-0.084-0.045-0.126-0.066c-0.056-0.026-0.112-0.051-0.17-0.075
	c-0.026-0.011-0.05-0.024-0.08-0.035c-0.01-0.004-0.021-0.003-0.033-0.008c-0.155-0.055-0.316-0.096-0.481-0.123
	c-0.027-0.005-0.054-0.008-0.082-0.012c-0.166-0.021-0.333-0.029-0.505-0.019c-0.024,0.001-0.05,0.004-0.077,0.005
	c-0.172,0.016-0.346,0.043-0.518,0.092c-0.019,0.005-0.036,0.012-0.054,0.018c-0.181,0.055-0.359,0.126-0.532,0.223
	c-2.004,1.111-4.163,2.13-6.295,2.024c-0.182-0.009-0.35-0.028-0.503-0.06c-0.05-0.008-0.089-0.024-0.135-0.035
	c-0.1-0.024-0.202-0.048-0.292-0.082c-0.027-0.01-0.048-0.023-0.074-0.035c-0.093-0.039-0.184-0.081-0.264-0.13
	c-0.038-0.021-0.07-0.048-0.104-0.073c-0.061-0.042-0.122-0.087-0.178-0.136c-0.032-0.031-0.063-0.063-0.095-0.096
	c-0.047-0.05-0.093-0.103-0.135-0.156c-0.028-0.035-0.055-0.074-0.08-0.111c-0.04-0.058-0.075-0.118-0.108-0.179
	c-0.021-0.04-0.043-0.081-0.063-0.121c-0.032-0.066-0.061-0.136-0.086-0.206c-0.016-0.042-0.033-0.082-0.047-0.124
	c-0.029-0.081-0.053-0.167-0.077-0.253c-0.009-0.035-0.019-0.066-0.029-0.1c-0.028-0.123-0.056-0.249-0.08-0.378
	c-0.004-0.013-0.005-0.028-0.008-0.042c-0.021-0.118-0.041-0.236-0.06-0.359c-0.007-0.05-0.014-0.1-0.022-0.152
	c-0.013-0.095-0.026-0.19-0.039-0.285c-0.016-0.107-0.031-0.216-0.044-0.324c-0.009-0.069-0.02-0.136-0.028-0.205
	c-0.012-0.085-0.024-0.17-0.038-0.255c-0.009-0.059-0.019-0.119-0.029-0.18c-0.013-0.085-0.029-0.169-0.046-0.254
	c-0.01-0.057-0.02-0.114-0.034-0.17c-0.019-0.092-0.04-0.182-0.064-0.273c-0.012-0.048-0.022-0.095-0.035-0.142
	c-0.038-0.136-0.078-0.271-0.126-0.404c-0.664-1.828-2.431-3.495-1.042-5.257c1.172-1.484,3.298-1.73,5.036-2.025
	c0.905-0.153,6.124-1.375,6.186-2.202c0.001-0.026,0.004-0.053,0.005-0.078c-0.808-1.301-1.005-2.963-0.37-4.503
	c0.925-2.241,3.384-3.462,5.744-2.913c0.172,0.041,0.333,0.091,0.487,0.147C75.627,9.49,75.66,9.5,75.692,9.512
	c0.13,0.05,0.255,0.103,0.374,0.159c0.014,0.007,0.029,0.016,0.043,0.022c0.108,0.053,0.21,0.109,0.311,0.166
	c0.032,0.018,0.065,0.037,0.095,0.056c0.098,0.059,0.193,0.118,0.286,0.177c0.011,0.007,0.022,0.013,0.033,0.022
	c0.112,0.073,0.223,0.147,0.332,0.222c0.091,0.062,0.183,0.125,0.275,0.185c0.028,0.02,0.057,0.038,0.085,0.059
	c0.101,0.065,0.203,0.13,0.306,0.192c0.024,0.015,0.05,0.029,0.074,0.042c0.083,0.05,0.171,0.095,0.258,0.142
	c0.031,0.015,0.061,0.031,0.091,0.044c0.11,0.054,0.225,0.105,0.345,0.149c0.004,0.001,0.008,0.004,0.013,0.006
	c0.013,0.005,0.029,0.008,0.042,0.013c0.104,0.038,0.214,0.069,0.329,0.099c0.036,0.009,0.072,0.017,0.109,0.026
	c0.137,0.029,0.277,0.056,0.43,0.071c1.286,0.13,2.226-0.284,2.764-1.521c0.882-2.031-0.609-4.677,0.455-6.628
	c0.39-0.709,1.104-1.311,1.903-1.442C86.63,1.449,88.503,0.846,90.277,0C53.56-0.1,19.014,22.445,5.578,58.897
	c-17.19,46.639,6.682,98.383,53.32,115.573c24.216,8.926,49.796,6.759,71.214-3.893c-2.415-0.689-4.842-1.338-7.332-1.647
	C119.812,168.561,116.854,169.011,113.91,169.336z" class="color c1"/>
</svg>