<svg version="1.1" id="图层_1" x="0px" y="0px" width="197.355px" height="173.559px" viewBox="0 0 197.355 173.559" enable-background="new 0 0 197.355 173.559" xml:space="preserve" xmlns="http://www.w3.org/2000/svg" xmlns:xlink="http://www.w3.org/1999/xlink" xmlns:xml="http://www.w3.org/XML/1998/namespace">
  <path fill="#094C72" d="M187.549,0H9.807C4.413,0,0,4.413,0,9.807v120.864c0,5.148,4.413,9.562,9.807,9.562h177.742
	c5.394,0,9.807-4.413,9.807-9.562V9.807C197.355,4.413,192.942,0,187.549,0z M98.678,138.36c-1.471,0-2.941-1.472-2.941-2.942
	c0-1.716,1.471-3.187,2.941-3.187c1.716,0,2.941,1.471,2.941,3.187C101.619,136.889,100.394,138.36,98.678,138.36z M190.729,126.662
	c0,1.676-1.197,2.873-2.873,2.873H9.261c-1.437,0-2.634-1.197-2.634-2.873V10.072c0-1.438,1.197-2.873,2.634-2.873h178.595
	c1.676,0,2.873,1.436,2.873,2.873V126.662z M86.42,143.018h24.761l12.258,23.047H73.917L86.42,143.018z M41.361,168.76h114.633
	c0.406,0,0.735,0.221,0.735,0.49v3.818c0,0.271-0.329,0.49-0.735,0.49H41.361c-0.406,0-0.735-0.219-0.735-0.49v-3.818
	C40.626,168.98,40.955,168.76,41.361,168.76z" class="color c1"/>
</svg>