<svg version="1.1" id="Layer_1" x="0px" y="0px" width="295.521px" height="308.125px" viewBox="0 0 295.521 308.125" enable-background="new 0 0 295.521 308.125" xml:space="preserve" xmlns="http://www.w3.org/2000/svg" xmlns:xlink="http://www.w3.org/1999/xlink" xmlns:xml="http://www.w3.org/XML/1998/namespace">
  <path fill="#379FDE" d="M226.603,225.846c-0.021,0.008-0.044-0.002-0.053-0.022c-0.008-0.021,0.002-0.044,0.022-0.052
	c0.021-0.009,0.044,0.001,0.052,0.021C226.633,225.814,226.623,225.837,226.603,225.846z M252.228,221.464
	c-0.018-0.041-0.064-0.061-0.105-0.043c-0.041,0.017-0.061,0.063-0.043,0.104c0.017,0.041,0.063,0.061,0.104,0.044
	C252.225,221.552,252.244,221.505,252.228,221.464z M287.194,204.675c-0.018-0.041-0.064-0.061-0.105-0.043
	c-0.041,0.017-0.061,0.063-0.044,0.104c0.018,0.041,0.064,0.061,0.105,0.044C287.191,204.763,287.211,204.716,287.194,204.675z
	 M118.996,54.062c-0.009-0.021-0.032-0.03-0.053-0.021c-0.021,0.008-0.03,0.032-0.021,0.052c0.008,0.021,0.031,0.03,0.052,0.022
	C118.994,54.106,119.004,54.083,118.996,54.062z M113.349,65.754c-0.008-0.021-0.032-0.03-0.053-0.022
	c-0.02,0.008-0.029,0.032-0.021,0.053c0.009,0.021,0.032,0.03,0.053,0.021S113.357,65.774,113.349,65.754z M99.905,159.877
	c-0.017-0.041-0.063-0.061-0.104-0.044c-0.041,0.018-0.061,0.064-0.044,0.105c0.018,0.041,0.064,0.06,0.105,0.043
	S99.922,159.918,99.905,159.877z M105.49,171.603c-0.025-0.062-0.096-0.091-0.157-0.065s-0.091,0.096-0.065,0.157
	s0.096,0.091,0.157,0.065S105.516,171.665,105.49,171.603z M119.943,193.141c-0.026-0.061-0.097-0.091-0.157-0.064
	c-0.062,0.025-0.091,0.096-0.065,0.157s0.096,0.09,0.157,0.065C119.939,193.274,119.968,193.203,119.943,193.141z M295.518,216.503
	c-0.008-0.021-0.031-0.029-0.052-0.021c-0.021,0.009-0.03,0.032-0.021,0.053c0.008,0.021,0.031,0.03,0.052,0.021
	S295.526,216.524,295.518,216.503z M90.906,96.197c-0.042-0.102-0.16-0.151-0.263-0.109c-0.102,0.042-0.15,0.16-0.108,0.262
	s0.159,0.151,0.262,0.109C90.899,96.417,90.948,96.3,90.906,96.197z M90.126,109.177c-0.034-0.082-0.128-0.121-0.21-0.087
	c-0.082,0.034-0.121,0.127-0.087,0.209s0.128,0.121,0.21,0.087C90.121,109.353,90.16,109.259,90.126,109.177z M86.825,165.278
	c-0.085-0.205-0.319-0.303-0.524-0.218s-0.303,0.319-0.218,0.524c0.084,0.204,0.319,0.302,0.524,0.218
	C86.812,165.717,86.909,165.483,86.825,165.278z M92.351,177.032c-0.092-0.226-0.351-0.333-0.576-0.24
	c-0.225,0.094-0.332,0.352-0.239,0.577s0.351,0.333,0.577,0.239C92.337,177.515,92.444,177.257,92.351,177.032z M98.836,188.277
	c-0.084-0.205-0.319-0.303-0.523-0.218c-0.205,0.084-0.303,0.319-0.218,0.523c0.084,0.205,0.318,0.303,0.523,0.219
	C98.823,188.716,98.921,188.482,98.836,188.277z M106.339,198.876c-0.085-0.205-0.319-0.302-0.523-0.218
	c-0.205,0.085-0.303,0.319-0.219,0.524c0.085,0.205,0.319,0.303,0.524,0.218S106.424,199.082,106.339,198.876z M114.799,208.746
	c-0.094-0.225-0.352-0.332-0.577-0.239c-0.225,0.093-0.332,0.352-0.239,0.576c0.093,0.226,0.351,0.333,0.577,0.24
	C114.784,209.229,114.892,208.971,114.799,208.746z M124.073,217.835c-0.093-0.225-0.352-0.332-0.576-0.239
	c-0.226,0.093-0.333,0.352-0.24,0.576c0.094,0.226,0.352,0.333,0.577,0.24S124.166,218.061,124.073,217.835z M134.126,226.058
	c-0.094-0.226-0.352-0.333-0.577-0.24c-0.226,0.094-0.333,0.352-0.239,0.577c0.093,0.226,0.351,0.332,0.576,0.239
	S134.219,226.284,134.126,226.058z M144.837,233.361c-0.085-0.205-0.319-0.302-0.524-0.218c-0.204,0.085-0.302,0.319-0.218,0.524
	c0.085,0.205,0.319,0.302,0.524,0.218C144.824,233.8,144.922,233.566,144.837,233.361z M156.195,239.656
	c-0.084-0.205-0.319-0.302-0.523-0.218c-0.205,0.085-0.303,0.319-0.218,0.524c0.084,0.205,0.319,0.302,0.523,0.218
	C156.183,240.095,156.28,239.861,156.195,239.656z M168.222,244.846c-0.119-0.287-0.447-0.424-0.734-0.305
	c-0.287,0.118-0.423,0.446-0.305,0.733s0.447,0.423,0.733,0.305C168.203,245.461,168.34,245.133,168.222,244.846z M180.484,249.027
	c-0.11-0.267-0.415-0.394-0.682-0.283c-0.266,0.11-0.393,0.415-0.283,0.682c0.11,0.267,0.415,0.393,0.682,0.283
	C180.468,249.598,180.595,249.293,180.484,249.027z M193.071,252.088c-0.102-0.246-0.383-0.362-0.629-0.262
	c-0.246,0.102-0.363,0.384-0.262,0.629c0.102,0.246,0.384,0.363,0.629,0.262C193.056,252.616,193.173,252.334,193.071,252.088z
	 M205.844,254.022c-0.085-0.205-0.319-0.303-0.524-0.219c-0.205,0.085-0.303,0.319-0.218,0.524s0.319,0.303,0.524,0.218
	C205.83,254.461,205.928,254.226,205.844,254.022z M244.344,252.897c-0.009-0.021-0.032-0.03-0.053-0.021
	c-0.021,0.008-0.03,0.031-0.021,0.052s0.032,0.03,0.053,0.022C244.343,252.941,244.353,252.917,244.344,252.897z M257.039,250.164
	c-0.009-0.021-0.031-0.03-0.052-0.021s-0.03,0.032-0.022,0.053c0.009,0.021,0.032,0.03,0.053,0.021S257.048,250.184,257.039,250.164
	z M126.4,0.025c-0.009-0.021-0.032-0.03-0.053-0.022c-0.021,0.009-0.03,0.032-0.021,0.052c0.009,0.021,0.032,0.03,0.053,0.022
	S126.409,0.045,126.4,0.025z M100.551,28.936c-0.025-0.062-0.096-0.091-0.157-0.065s-0.091,0.096-0.065,0.157
	s0.096,0.09,0.157,0.065C100.547,29.068,100.576,28.997,100.551,28.936z M94.012,39.894c-0.084-0.205-0.319-0.302-0.523-0.218
	c-0.205,0.084-0.303,0.319-0.218,0.524c0.084,0.205,0.318,0.302,0.523,0.218S94.097,40.098,94.012,39.894z M88.53,51.401
	c-0.152-0.369-0.575-0.544-0.944-0.392c-0.368,0.152-0.544,0.575-0.392,0.943c0.152,0.369,0.574,0.544,0.943,0.393
	C88.507,52.192,88.682,51.77,88.53,51.401z M83.816,63.501c-0.152-0.369-0.574-0.544-0.943-0.392s-0.544,0.575-0.392,0.943
	c0.152,0.369,0.574,0.544,0.943,0.392C83.793,64.292,83.969,63.87,83.816,63.501z M80.17,75.991
	c-0.144-0.348-0.543-0.514-0.891-0.37c-0.349,0.144-0.515,0.543-0.371,0.891c0.145,0.348,0.543,0.514,0.892,0.371
	C80.147,76.739,80.313,76.34,80.17,75.991z M77.693,88.74c-0.145-0.349-0.543-0.514-0.892-0.371
	c-0.348,0.144-0.514,0.543-0.37,0.891c0.144,0.349,0.543,0.514,0.892,0.37C77.671,89.487,77.837,89.088,77.693,88.74z
	 M76.295,101.689c-0.127-0.308-0.479-0.454-0.786-0.327c-0.308,0.126-0.453,0.479-0.327,0.786c0.127,0.307,0.479,0.454,0.786,0.327
	C76.275,102.348,76.422,101.996,76.295,101.689z M76.06,114.705c-0.109-0.266-0.415-0.393-0.681-0.283
	c-0.267,0.11-0.394,0.415-0.283,0.681c0.109,0.267,0.415,0.393,0.681,0.283C76.043,115.276,76.17,114.971,76.06,114.705z
	 M77.026,127.667c-0.102-0.245-0.383-0.362-0.629-0.261c-0.245,0.102-0.362,0.383-0.261,0.629c0.102,0.245,0.383,0.362,0.629,0.261
	C77.011,128.195,77.128,127.914,77.026,127.667z M79.15,140.489c-0.094-0.226-0.352-0.333-0.577-0.24
	c-0.225,0.094-0.332,0.352-0.239,0.577s0.351,0.332,0.576,0.239S79.243,140.713,79.15,140.489z M82.413,153.064
	c-0.085-0.205-0.319-0.303-0.524-0.218s-0.303,0.319-0.218,0.524c0.084,0.204,0.319,0.302,0.523,0.218
	C82.399,153.503,82.497,153.269,82.413,153.064z M73.818,170.648c-0.169-0.41-0.639-0.605-1.049-0.436
	c-0.409,0.169-0.604,0.639-0.436,1.048c0.17,0.41,0.639,0.604,1.049,0.436C73.792,171.527,73.987,171.057,73.818,170.648z
	 M79.26,182.44c-0.169-0.41-0.639-0.604-1.048-0.436c-0.41,0.169-0.605,0.639-0.436,1.048c0.169,0.41,0.638,0.604,1.048,0.436
	S79.429,182.849,79.26,182.44z M85.645,193.75c-0.169-0.41-0.639-0.604-1.048-0.436c-0.41,0.169-0.605,0.638-0.436,1.048
	c0.169,0.41,0.638,0.604,1.048,0.436C85.618,194.628,85.813,194.159,85.645,193.75z M92.893,204.516
	c-0.161-0.39-0.606-0.574-0.996-0.414c-0.389,0.161-0.574,0.606-0.413,0.996c0.16,0.389,0.606,0.574,0.995,0.414
	C92.868,205.351,93.053,204.905,92.893,204.516z M100.993,214.653c-0.152-0.369-0.575-0.544-0.943-0.392
	c-0.369,0.151-0.545,0.574-0.393,0.943c0.152,0.368,0.574,0.544,0.943,0.392S101.146,215.022,100.993,214.653z M109.928,224.078
	c-0.151-0.368-0.574-0.544-0.943-0.392c-0.368,0.152-0.544,0.574-0.392,0.943c0.152,0.368,0.574,0.544,0.943,0.392
	C109.904,224.869,110.08,224.447,109.928,224.078z M119.639,232.727c-0.16-0.389-0.606-0.574-0.995-0.413
	c-0.39,0.16-0.575,0.606-0.414,0.996c0.16,0.389,0.606,0.574,0.996,0.413C119.614,233.563,119.8,233.117,119.639,232.727z
	 M129.949,240.59c-0.152-0.368-0.574-0.544-0.943-0.392c-0.368,0.152-0.544,0.574-0.392,0.943s0.574,0.544,0.943,0.392
	C129.927,241.382,130.102,240.959,129.949,240.59z M140.754,247.63c-0.118-0.287-0.446-0.424-0.733-0.305
	c-0.287,0.118-0.424,0.446-0.305,0.733c0.118,0.287,0.447,0.424,0.733,0.305C140.736,248.246,140.873,247.917,140.754,247.63z
	 M152.313,253.662c-0.135-0.327-0.511-0.483-0.838-0.349c-0.328,0.136-0.484,0.512-0.349,0.839c0.136,0.328,0.511,0.484,0.839,0.349
	C152.293,254.365,152.449,253.99,152.313,253.662z M164.515,258.661c-0.194-0.472-0.734-0.695-1.205-0.501
	c-0.472,0.194-0.695,0.734-0.501,1.205c0.194,0.472,0.734,0.696,1.205,0.501C164.485,259.671,164.71,259.131,164.515,258.661z
	 M176.759,262.807c-0.178-0.431-0.671-0.635-1.101-0.457c-0.431,0.177-0.636,0.67-0.458,1.1c0.178,0.431,0.671,0.636,1.101,0.458
	C176.731,263.73,176.937,263.237,176.759,262.807z M188.926,266.088c-0.076-0.185-0.287-0.271-0.472-0.195
	c-0.185,0.075-0.272,0.287-0.196,0.471c0.076,0.185,0.287,0.272,0.472,0.196S189.002,266.273,188.926,266.088z M201.562,268.225
	c-0.033-0.082-0.128-0.121-0.209-0.088c-0.082,0.034-0.121,0.128-0.087,0.21c0.033,0.082,0.127,0.121,0.209,0.087
	C201.558,268.401,201.597,268.307,201.562,268.225z M214.399,269.278c-0.008-0.02-0.032-0.03-0.053-0.021
	c-0.02,0.009-0.029,0.032-0.021,0.053c0.009,0.021,0.032,0.03,0.053,0.021S214.408,269.298,214.399,269.278z M81.094,32.985
	c-0.025-0.062-0.097-0.091-0.157-0.065c-0.062,0.025-0.091,0.096-0.065,0.157s0.096,0.09,0.157,0.065
	C81.09,33.117,81.119,33.047,81.094,32.985z M75.823,44.362c-0.152-0.369-0.574-0.544-0.943-0.392s-0.545,0.575-0.393,0.943
	s0.575,0.544,0.944,0.392C75.8,45.153,75.976,44.731,75.823,44.362z M71.407,56.221c-0.254-0.614-0.958-0.907-1.572-0.653
	c-0.615,0.254-0.907,0.958-0.653,1.572c0.254,0.615,0.957,0.907,1.572,0.653C71.368,57.54,71.661,56.836,71.407,56.221z
	 M67.544,68.621c-0.254-0.615-0.958-0.907-1.572-0.653c-0.615,0.253-0.907,0.958-0.654,1.572c0.254,0.615,0.958,0.907,1.572,0.653
	C67.505,69.939,67.797,69.235,67.544,68.621z M64.741,81.278c-0.263-0.635-0.99-0.938-1.625-0.675
	c-0.636,0.262-0.938,0.989-0.676,1.625c0.263,0.635,0.99,0.938,1.625,0.675S65.003,81.913,64.741,81.278z M62.869,94.171
	c-0.245-0.594-0.926-0.877-1.521-0.631c-0.594,0.245-0.877,0.925-0.631,1.52c0.245,0.594,0.926,0.877,1.52,0.632
	C62.831,95.445,63.114,94.765,62.869,94.171z M61.978,107.198c-0.212-0.512-0.798-0.756-1.311-0.544
	c-0.512,0.211-0.756,0.798-0.545,1.311c0.212,0.512,0.799,0.756,1.311,0.544C61.945,108.297,62.188,107.71,61.978,107.198z
	 M62.22,120.211c-0.195-0.471-0.734-0.695-1.206-0.5c-0.471,0.194-0.695,0.733-0.501,1.205c0.194,0.471,0.734,0.695,1.205,0.501
	C62.189,121.223,62.414,120.683,62.22,120.211z M63.519,133.157c-0.178-0.43-0.671-0.635-1.101-0.457
	c-0.431,0.178-0.635,0.67-0.458,1.101c0.178,0.43,0.671,0.635,1.102,0.457C63.491,134.08,63.696,133.587,63.519,133.157z
	 M65.902,145.932c-0.169-0.41-0.638-0.605-1.048-0.437c-0.41,0.17-0.604,0.639-0.436,1.049c0.169,0.409,0.639,0.604,1.048,0.436
	C65.877,146.811,66.071,146.341,65.902,145.932z M69.356,158.452c-0.17-0.41-0.639-0.605-1.049-0.436
	c-0.41,0.169-0.604,0.638-0.436,1.048c0.169,0.409,0.639,0.604,1.049,0.436C69.33,159.331,69.525,158.861,69.356,158.452z
	 M60.849,176.002c-0.262-0.636-0.989-0.938-1.625-0.676c-0.635,0.263-0.937,0.99-0.675,1.625c0.263,0.635,0.989,0.938,1.625,0.676
	C60.809,177.365,61.111,176.637,60.849,176.002z M66.25,187.813c-0.262-0.635-0.989-0.938-1.624-0.675s-0.938,0.989-0.676,1.625
	c0.263,0.635,0.99,0.937,1.625,0.675S66.513,188.449,66.25,187.813z M72.52,199.188c-0.262-0.636-0.989-0.938-1.625-0.676
	c-0.635,0.263-0.937,0.99-0.675,1.625s0.989,0.938,1.625,0.676C72.479,200.55,72.782,199.823,72.52,199.188z M79.658,210.046
	c-0.271-0.655-1.021-0.968-1.677-0.696c-0.655,0.271-0.968,1.021-0.697,1.677s1.021,0.968,1.678,0.697
	C79.617,211.453,79.929,210.703,79.658,210.046z M87.59,220.344c-0.279-0.676-1.053-0.998-1.729-0.719
	c-0.676,0.279-0.998,1.054-0.719,1.729s1.054,0.998,1.729,0.719C87.548,221.794,87.869,221.02,87.59,220.344z M96.159,230.069
	c-0.263-0.635-0.99-0.938-1.625-0.675c-0.635,0.262-0.938,0.989-0.675,1.625c0.262,0.635,0.989,0.937,1.624,0.675
	C96.119,231.432,96.421,230.705,96.159,230.069z M105.317,239.167c-0.221-0.532-0.831-0.786-1.363-0.565
	c-0.532,0.22-0.786,0.83-0.566,1.362c0.221,0.532,0.83,0.786,1.363,0.566C105.283,240.31,105.537,239.7,105.317,239.167z
	 M115.271,247.48c-0.212-0.513-0.799-0.756-1.311-0.545c-0.512,0.212-0.756,0.799-0.545,1.311c0.212,0.513,0.799,0.756,1.311,0.545
	C115.238,248.579,115.482,247.992,115.271,247.48z M125.78,255.039c-0.194-0.472-0.734-0.695-1.205-0.501
	c-0.472,0.194-0.695,0.734-0.501,1.205c0.194,0.472,0.734,0.695,1.205,0.501C125.751,256.049,125.976,255.509,125.78,255.039z
	 M136.823,261.785c-0.178-0.43-0.671-0.635-1.101-0.457c-0.431,0.178-0.636,0.67-0.458,1.101c0.178,0.43,0.671,0.635,1.101,0.457
	C136.796,262.708,137.001,262.215,136.823,261.785z M148.559,267.59c-0.212-0.513-0.798-0.756-1.311-0.545
	c-0.512,0.212-0.756,0.798-0.544,1.311c0.211,0.512,0.798,0.756,1.31,0.545C148.526,268.689,148.77,268.102,148.559,267.59z
	 M160.812,272.467c-0.271-0.656-1.021-0.968-1.678-0.697c-0.655,0.271-0.967,1.021-0.696,1.677c0.271,0.656,1.021,0.968,1.677,0.697
	C160.771,273.874,161.082,273.123,160.812,272.467z M173.218,276.51c-0.287-0.696-1.085-1.028-1.781-0.74
	c-0.697,0.287-1.028,1.085-0.741,1.781c0.288,0.697,1.086,1.028,1.782,0.741C173.174,278.004,173.506,277.207,173.218,276.51z
	 M185.152,279.927c-0.136-0.328-0.511-0.484-0.839-0.349c-0.327,0.135-0.483,0.511-0.348,0.838c0.135,0.328,0.511,0.484,0.838,0.349
	C185.132,280.63,185.288,280.254,185.152,279.927z M197.397,282.347c-0.008-0.021-0.031-0.03-0.052-0.021
	c-0.021,0.008-0.03,0.031-0.022,0.052c0.009,0.021,0.032,0.03,0.053,0.022C197.396,282.391,197.406,282.368,197.397,282.347z
	 M68.397,25.985c-0.017-0.041-0.063-0.061-0.104-0.043s-0.061,0.064-0.044,0.105c0.018,0.041,0.064,0.061,0.105,0.043
	C68.396,26.073,68.414,26.026,68.397,25.985z M63.273,37.266c-0.187-0.451-0.702-0.665-1.153-0.479s-0.665,0.702-0.479,1.153
	c0.187,0.451,0.702,0.666,1.153,0.479C63.245,38.233,63.459,37.717,63.273,37.266z M58.994,48.968
	c-0.347-0.84-1.31-1.24-2.149-0.893c-0.84,0.347-1.239,1.309-0.893,2.148s1.309,1.24,2.148,0.893
	C58.94,50.771,59.341,49.809,58.994,48.968z M54.957,61.286c-0.355-0.861-1.341-1.271-2.201-0.915s-1.271,1.341-0.915,2.201
	s1.341,1.27,2.201,0.915C54.903,63.131,55.312,62.146,54.957,61.286z M51.965,73.827c-0.39-0.943-1.469-1.391-2.411-1.002
	c-0.942,0.389-1.391,1.469-1.002,2.411s1.469,1.391,2.411,1.002S52.354,74.769,51.965,73.827z M49.886,86.582
	c-0.415-1.004-1.564-1.481-2.568-1.067c-1.004,0.415-1.481,1.564-1.067,2.568c0.415,1.004,1.564,1.482,2.568,1.067
	S50.3,87.586,49.886,86.582z M48.658,99.512c-0.415-1.004-1.564-1.482-2.568-1.067s-1.481,1.564-1.067,2.568
	s1.564,1.481,2.568,1.067C48.595,101.666,49.072,100.516,48.658,99.512z M48.141,112.604c-0.355-0.86-1.341-1.27-2.202-0.915
	c-0.859,0.355-1.27,1.34-0.914,2.201c0.355,0.86,1.341,1.27,2.201,0.915C48.086,114.45,48.495,113.464,48.141,112.604z
	 M48.594,125.679c-0.296-0.717-1.117-1.058-1.834-0.763c-0.718,0.297-1.059,1.118-0.763,1.835s1.117,1.059,1.834,0.763
	C48.549,127.217,48.89,126.396,48.594,125.679z M50.163,138.604c-0.271-0.655-1.021-0.968-1.678-0.697
	c-0.655,0.271-0.968,1.021-0.696,1.677c0.271,0.656,1.021,0.968,1.677,0.697S50.434,139.259,50.163,138.604z M52.801,151.321
	c-0.271-0.655-1.021-0.968-1.677-0.697c-0.656,0.271-0.968,1.021-0.697,1.678c0.271,0.655,1.021,0.968,1.677,0.696
	C52.76,152.727,53.071,151.976,52.801,151.321z M56.382,163.805c-0.271-0.655-1.021-0.968-1.677-0.697
	c-0.656,0.271-0.968,1.021-0.697,1.678c0.271,0.655,1.021,0.967,1.677,0.696C56.341,165.211,56.652,164.46,56.382,163.805z
	 M47.916,181.341c-0.363-0.881-1.372-1.3-2.253-0.937s-1.301,1.373-0.937,2.254c0.363,0.881,1.372,1.3,2.253,0.937
	C47.86,183.231,48.28,182.222,47.916,181.341z M53.321,193.153c-0.372-0.901-1.404-1.33-2.306-0.958s-1.331,1.404-0.959,2.306
	s1.405,1.331,2.307,0.959S53.693,194.054,53.321,193.153z M59.566,204.551c-0.389-0.942-1.468-1.392-2.411-1.002
	c-0.942,0.389-1.391,1.469-1.002,2.411c0.39,0.942,1.469,1.391,2.411,1.001C59.507,206.573,59.956,205.494,59.566,204.551z
	 M66.549,215.511c-0.397-0.963-1.501-1.421-2.464-1.023s-1.421,1.5-1.023,2.463s1.5,1.422,2.463,1.023
	C66.487,217.577,66.946,216.474,66.549,215.511z M74.308,225.951c-0.414-1.004-1.563-1.481-2.567-1.067
	c-1.004,0.415-1.481,1.564-1.067,2.568s1.564,1.481,2.568,1.067C74.245,228.104,74.723,226.955,74.308,225.951z M82.809,235.82
	c-0.439-1.065-1.659-1.572-2.725-1.133c-1.065,0.44-1.573,1.66-1.133,2.726c0.439,1.065,1.66,1.572,2.726,1.133
	C82.741,238.106,83.249,236.885,82.809,235.82z M91.714,245.194c-0.406-0.983-1.532-1.451-2.516-1.046
	c-0.983,0.406-1.451,1.532-1.045,2.517c0.406,0.983,1.532,1.451,2.516,1.045C91.651,247.303,92.12,246.177,91.714,245.194z
	 M101.018,254.013c-0.321-0.778-1.213-1.149-1.991-0.828c-0.779,0.321-1.149,1.213-0.828,1.992c0.321,0.778,1.213,1.148,1.992,0.827
	C100.969,255.683,101.339,254.792,101.018,254.013z M110.896,262.144c-0.236-0.574-0.894-0.847-1.467-0.61
	c-0.574,0.237-0.847,0.895-0.609,1.468c0.236,0.573,0.894,0.847,1.467,0.61C110.86,263.375,111.133,262.717,110.896,262.144z
	 M121.523,269.457c-0.204-0.491-0.767-0.726-1.259-0.522c-0.491,0.203-0.726,0.766-0.522,1.258c0.203,0.491,0.767,0.726,1.258,0.522
	C121.492,270.511,121.726,269.948,121.523,269.457z M132.587,276.024c-0.16-0.389-0.606-0.574-0.995-0.413
	c-0.39,0.16-0.575,0.606-0.414,0.995c0.16,0.39,0.606,0.575,0.996,0.414C132.562,276.859,132.748,276.414,132.587,276.024z
	 M144.073,281.8c-0.119-0.287-0.447-0.424-0.734-0.305c-0.287,0.118-0.424,0.446-0.305,0.733c0.118,0.287,0.447,0.423,0.733,0.305
	C144.055,282.416,144.191,282.086,144.073,281.8z M156.406,286.558c-0.187-0.451-0.703-0.665-1.153-0.479
	c-0.451,0.187-0.665,0.702-0.479,1.153c0.187,0.451,0.702,0.665,1.153,0.479C156.377,287.525,156.592,287.008,156.406,286.558z
	 M169.01,290.49c-0.245-0.595-0.926-0.877-1.52-0.632c-0.595,0.245-0.877,0.926-0.632,1.52c0.245,0.595,0.926,0.877,1.52,0.632
	C168.973,291.764,169.255,291.083,169.01,290.49z M181.047,293.896c-0.118-0.286-0.446-0.423-0.733-0.305s-0.424,0.447-0.305,0.733
	c0.118,0.287,0.446,0.424,0.733,0.306S181.165,294.183,181.047,293.896z M193.348,296.396c-0.009-0.021-0.032-0.03-0.053-0.021
	s-0.03,0.032-0.021,0.053s0.031,0.03,0.053,0.021C193.346,296.44,193.355,296.417,193.348,296.396z M55.851,18.924
	c-0.043-0.103-0.16-0.151-0.263-0.109c-0.103,0.042-0.151,0.16-0.108,0.262c0.042,0.103,0.159,0.151,0.262,0.109
	C55.844,19.144,55.893,19.026,55.851,18.924z M50.841,30.127c-0.246-0.594-0.926-0.877-1.521-0.632
	c-0.594,0.246-0.876,0.926-0.632,1.52c0.246,0.594,0.926,0.877,1.521,0.632C50.803,31.402,51.086,30.721,50.841,30.127z
	 M46.569,41.74c-0.432-1.045-1.629-1.542-2.674-1.111c-1.044,0.432-1.541,1.628-1.11,2.673c0.432,1.045,1.628,1.542,2.673,1.111
	C46.503,43.982,47,42.785,46.569,41.74z M42.43,53.967c-0.457-1.106-1.725-1.633-2.831-1.176c-1.105,0.457-1.633,1.724-1.176,2.83
	c0.457,1.106,1.724,1.633,2.83,1.176S42.886,55.073,42.43,53.967z M39.184,66.443c-0.491-1.188-1.852-1.754-3.04-1.263
	c-1.188,0.49-1.754,1.851-1.264,3.04c0.491,1.188,1.852,1.754,3.04,1.264C39.108,68.992,39.674,67.631,39.184,66.443z
	 M36.959,79.061c-0.558-1.352-2.106-1.995-3.459-1.437s-1.996,2.107-1.438,3.459s2.106,1.996,3.459,1.438
	S37.518,80.414,36.959,79.061z M35.397,91.916c-0.575-1.394-2.171-2.056-3.564-1.481c-1.393,0.575-2.056,2.171-1.48,3.564
	c0.575,1.394,2.17,2.057,3.563,1.481S35.973,93.309,35.397,91.916z M34.803,104.821c-0.609-1.475-2.299-2.177-3.774-1.568
	c-1.475,0.609-2.177,2.298-1.567,3.773c0.608,1.475,2.298,2.177,3.773,1.568C34.709,107.986,35.411,106.296,34.803,104.821z
	 M34.658,117.931c-0.541-1.311-2.043-1.935-3.354-1.394c-1.312,0.541-1.936,2.042-1.395,3.354c0.542,1.312,2.043,1.936,3.354,1.394
	C34.576,120.744,35.2,119.242,34.658,117.931z M35.337,131.03c-0.457-1.106-1.725-1.633-2.831-1.176
	c-1.106,0.456-1.633,1.724-1.176,2.83s1.724,1.633,2.83,1.176S35.793,132.136,35.337,131.03z M37.017,143.979
	c-0.397-0.962-1.501-1.421-2.464-1.023s-1.421,1.501-1.023,2.464s1.5,1.421,2.463,1.023S37.414,144.942,37.017,143.979z
	 M39.726,156.704c-0.372-0.901-1.404-1.33-2.307-0.958c-0.9,0.372-1.33,1.404-0.958,2.306s1.405,1.33,2.307,0.958
	S40.098,157.605,39.726,156.704z M43.377,169.172c-0.363-0.881-1.372-1.301-2.253-0.937c-0.881,0.363-1.301,1.372-0.938,2.254
	c0.364,0.881,1.373,1.3,2.254,0.937C43.321,171.062,43.741,170.053,43.377,169.172z M34.984,186.681
	c-0.466-1.127-1.756-1.664-2.883-1.198c-1.127,0.465-1.663,1.756-1.198,2.883c0.466,1.126,1.756,1.663,2.883,1.197
	C34.913,189.098,35.449,187.807,34.984,186.681z M40.546,198.429c-0.517-1.249-1.947-1.845-3.197-1.328
	c-1.25,0.516-1.845,1.947-1.329,3.196c0.517,1.25,1.947,1.845,3.197,1.329C40.467,201.11,41.062,199.679,40.546,198.429z
	 M46.854,209.812c-0.566-1.373-2.139-2.026-3.512-1.46c-1.372,0.567-2.025,2.139-1.459,3.512s2.139,2.026,3.512,1.459
	C46.768,212.756,47.421,211.184,46.854,209.812z M53.737,220.841c-0.583-1.413-2.202-2.086-3.616-1.503
	c-1.413,0.584-2.086,2.203-1.503,3.617c0.584,1.413,2.203,2.086,3.617,1.502C53.648,223.875,54.321,222.255,53.737,220.841z
	 M61.278,231.428c-0.592-1.435-2.234-2.117-3.668-1.525c-1.435,0.593-2.117,2.235-1.525,3.669c0.593,1.435,2.235,2.117,3.669,1.524
	C61.188,234.504,61.871,232.862,61.278,231.428z M69.521,241.497c-0.609-1.476-2.299-2.178-3.773-1.568
	c-1.476,0.609-2.178,2.299-1.568,3.773c0.609,1.476,2.299,2.178,3.773,1.568C69.428,244.661,70.13,242.971,69.521,241.497z
	 M78.318,251.051c-0.609-1.475-2.299-2.177-3.773-1.568c-1.476,0.609-2.178,2.299-1.568,3.773c0.609,1.476,2.299,2.178,3.773,1.568
	C78.226,254.215,78.928,252.527,78.318,251.051z M87.377,260.161c-0.533-1.29-2.012-1.904-3.302-1.372
	c-1.291,0.533-1.905,2.012-1.373,3.302c0.533,1.291,2.012,1.905,3.302,1.372C87.295,262.93,87.909,261.452,87.377,260.161z
	 M96.619,268.803c-0.372-0.901-1.404-1.33-2.306-0.958s-1.331,1.404-0.959,2.306c0.373,0.901,1.405,1.331,2.307,0.959
	C96.562,270.737,96.991,269.705,96.619,268.803z M106.414,276.776c-0.22-0.532-0.83-0.786-1.363-0.566
	c-0.532,0.221-0.786,0.83-0.565,1.363c0.22,0.532,0.829,0.786,1.362,0.566C106.38,277.919,106.634,277.309,106.414,276.776z
	 M116.939,283.956c-0.127-0.308-0.479-0.454-0.786-0.326c-0.308,0.126-0.453,0.479-0.326,0.785c0.126,0.308,0.479,0.454,0.786,0.327
	C116.92,284.615,117.066,284.263,116.939,283.956z M127.929,290.405c-0.042-0.103-0.159-0.151-0.262-0.109
	c-0.103,0.043-0.151,0.16-0.108,0.263c0.042,0.102,0.159,0.151,0.262,0.108C127.923,290.625,127.972,290.507,127.929,290.405z
	 M139.559,296.005c-0.017-0.041-0.063-0.061-0.104-0.043c-0.041,0.017-0.061,0.063-0.044,0.104s0.063,0.061,0.104,0.044
	C139.556,296.093,139.575,296.046,139.559,296.005z M151.668,300.782c-0.025-0.062-0.096-0.091-0.157-0.065
	s-0.091,0.096-0.065,0.157s0.096,0.091,0.157,0.065S151.693,300.843,151.668,300.782z M164.097,304.759
	c-0.042-0.103-0.159-0.151-0.262-0.108c-0.103,0.042-0.151,0.159-0.109,0.262c0.043,0.103,0.16,0.151,0.263,0.108
	C164.091,304.979,164.139,304.862,164.097,304.759z M176.571,308.014c-0.017-0.041-0.063-0.061-0.104-0.044
	s-0.061,0.063-0.044,0.104c0.018,0.041,0.064,0.061,0.105,0.044S176.589,308.055,176.571,308.014z M49.7,0.817
	c-0.009-0.021-0.032-0.031-0.053-0.022c-0.021,0.008-0.03,0.032-0.021,0.052c0.008,0.021,0.031,0.03,0.052,0.022
	C49.698,0.86,49.708,0.837,49.7,0.817z M43.488,11.786c-0.11-0.266-0.415-0.393-0.682-0.283c-0.267,0.11-0.394,0.415-0.283,0.682
	c0.11,0.266,0.415,0.393,0.682,0.283S43.599,12.052,43.488,11.786z M38.339,23.021c-0.288-0.696-1.086-1.028-1.782-0.74
	s-1.028,1.085-0.741,1.782c0.288,0.697,1.086,1.028,1.782,0.741S38.626,23.717,38.339,23.021z M33.57,34.765
	c-0.38-0.922-1.437-1.361-2.358-0.98c-0.922,0.381-1.36,1.437-0.98,2.358c0.381,0.922,1.437,1.361,2.359,0.98
	C33.513,36.743,33.951,35.687,33.57,34.765z M29.28,46.938c-0.406-0.983-1.533-1.451-2.517-1.045
	c-0.983,0.406-1.451,1.532-1.045,2.516s1.532,1.452,2.516,1.046C29.218,49.048,29.686,47.922,29.28,46.938z M25.262,59.584
	c-0.313-0.758-1.182-1.119-1.939-0.806s-1.119,1.181-0.806,1.939c0.312,0.758,1.182,1.119,1.939,0.806S25.574,60.342,25.262,59.584z
	 M22.124,72.404c-0.236-0.574-0.894-0.847-1.467-0.61c-0.574,0.237-0.847,0.894-0.61,1.467c0.237,0.574,0.894,0.847,1.468,0.61
	C22.088,73.635,22.361,72.978,22.124,72.404z M20.474,85.102c-0.313-0.758-1.182-1.119-1.939-0.806s-1.119,1.181-0.806,1.939
	c0.312,0.758,1.181,1.119,1.938,0.806S20.786,85.86,20.474,85.102z M20.354,97.61c-0.55-1.332-2.075-1.965-3.407-1.416
	c-1.331,0.55-1.965,2.075-1.415,3.407s2.074,1.966,3.406,1.416C20.27,100.467,20.903,98.942,20.354,97.61z M20.73,110.304
	c-0.71-1.721-2.681-2.541-4.402-1.83c-1.721,0.71-2.54,2.682-1.829,4.402c0.71,1.721,2.682,2.54,4.402,1.83
	S21.441,112.024,20.73,110.304z M21.014,123.375c-0.66-1.599-2.49-2.359-4.088-1.699c-1.599,0.66-2.358,2.49-1.699,4.088
	c0.66,1.599,2.49,2.358,4.088,1.699C20.913,126.802,21.673,124.972,21.014,123.375z M22.09,136.401
	c-0.601-1.454-2.267-2.146-3.722-1.546c-1.454,0.601-2.146,2.267-1.546,3.721c0.601,1.455,2.267,2.147,3.721,1.547
	C21.998,139.522,22.69,137.856,22.09,136.401z M23.88,149.362c-0.517-1.25-1.947-1.845-3.197-1.329
	c-1.25,0.517-1.845,1.947-1.329,3.197c0.517,1.25,1.947,1.845,3.197,1.329C23.801,152.042,24.396,150.612,23.88,149.362z
	 M26.708,162.066c-0.482-1.168-1.819-1.724-2.987-1.241c-1.168,0.481-1.724,1.819-1.241,2.986c0.481,1.168,1.819,1.725,2.987,1.242
	S27.19,163.234,26.708,162.066z M30.378,174.538c-0.457-1.106-1.725-1.633-2.83-1.176c-1.106,0.457-1.634,1.724-1.177,2.83
	s1.724,1.633,2.83,1.176S30.834,175.644,30.378,174.538z M22.386,191.882c-0.643-1.558-2.427-2.299-3.983-1.655
	c-1.557,0.643-2.298,2.426-1.655,3.982c0.643,1.558,2.426,2.299,3.983,1.656C22.287,195.222,23.028,193.439,22.386,191.882z
	 M28.07,203.581c-0.728-1.762-2.746-2.6-4.508-1.873c-1.762,0.728-2.601,2.746-1.873,4.508s2.745,2.601,4.508,1.873
	C27.959,207.361,28.798,205.343,28.07,203.581z M34.343,214.987c-0.787-1.905-2.969-2.812-4.874-2.025s-2.812,2.969-2.026,4.874
	c0.787,1.905,2.97,2.812,4.875,2.025C34.223,219.075,35.129,216.892,34.343,214.987z M41.145,226.074
	c-0.812-1.966-3.064-2.902-5.031-2.091c-1.967,0.812-2.903,3.064-2.091,5.031c0.812,1.967,3.064,2.903,5.031,2.092
	C41.021,230.293,41.957,228.041,41.145,226.074z M48.563,236.756c-0.829-2.008-3.129-2.963-5.137-2.135
	c-2.008,0.829-2.963,3.129-2.134,5.137s3.128,2.963,5.136,2.135C48.437,241.064,49.393,238.764,48.563,236.756z M56.387,247.072
	c-0.795-1.926-3.001-2.842-4.927-2.047s-2.842,3.001-2.047,4.927s3.001,2.842,4.927,2.047S57.183,248.998,56.387,247.072z
	 M64.698,256.939c-0.735-1.782-2.777-2.631-4.56-1.896c-1.782,0.736-2.631,2.777-1.895,4.561c0.735,1.782,2.777,2.631,4.56,1.895
	S65.435,258.721,64.698,256.939z M73.764,266.199c-0.719-1.741-2.714-2.57-4.455-1.852c-1.741,0.72-2.57,2.714-1.852,4.455
	c0.72,1.741,2.714,2.57,4.455,1.852S74.482,267.94,73.764,266.199z M82.733,275.156c-0.558-1.352-2.106-1.995-3.459-1.438
	c-1.352,0.559-1.995,2.107-1.438,3.46c0.559,1.352,2.107,1.995,3.459,1.437C82.648,278.057,83.292,276.508,82.733,275.156z
	 M91.834,283.672c-0.312-0.758-1.181-1.119-1.939-0.806c-0.758,0.312-1.118,1.181-0.806,1.939c0.312,0.758,1.182,1.118,1.939,0.806
	C91.786,285.298,92.146,284.43,91.834,283.672z M101.77,291.413c-0.152-0.369-0.574-0.544-0.943-0.393
	c-0.368,0.152-0.544,0.575-0.392,0.944c0.151,0.368,0.574,0.544,0.943,0.392C101.746,292.204,101.922,291.781,101.77,291.413z
	 M112.392,298.396c-0.051-0.123-0.191-0.182-0.314-0.131s-0.182,0.191-0.131,0.314s0.191,0.182,0.314,0.131
	S112.442,298.519,112.392,298.396z M123.696,304.583c-0.017-0.041-0.063-0.061-0.104-0.044c-0.041,0.018-0.061,0.064-0.044,0.105
	c0.018,0.041,0.064,0.061,0.105,0.043C123.694,304.67,123.714,304.624,123.696,304.583z M30.458,4.923
	c-0.025-0.062-0.096-0.09-0.157-0.065c-0.062,0.025-0.091,0.096-0.065,0.158c0.025,0.061,0.096,0.09,0.157,0.065
	S30.483,4.985,30.458,4.923z M24.69,16.391c-0.068-0.164-0.256-0.242-0.42-0.174c-0.163,0.068-0.241,0.255-0.174,0.419
	c0.067,0.164,0.256,0.242,0.42,0.174C24.68,16.743,24.758,16.555,24.69,16.391z M19.475,28.255
	c-0.075-0.185-0.287-0.272-0.471-0.196c-0.185,0.076-0.272,0.287-0.196,0.472s0.287,0.272,0.472,0.196
	C19.464,28.651,19.551,28.439,19.475,28.255z M15.091,40.366c-0.11-0.266-0.415-0.393-0.682-0.283
	c-0.266,0.11-0.393,0.415-0.283,0.681c0.11,0.267,0.416,0.394,0.682,0.283C15.074,40.938,15.201,40.633,15.091,40.366z
	 M11.184,52.833c-0.085-0.205-0.319-0.302-0.524-0.218c-0.205,0.085-0.303,0.319-0.218,0.524c0.085,0.205,0.319,0.302,0.524,0.218
	C11.17,53.273,11.268,53.039,11.184,52.833z M7.951,65.537c-0.043-0.103-0.16-0.151-0.263-0.109s-0.15,0.16-0.108,0.262
	s0.159,0.151,0.262,0.109S7.993,65.639,7.951,65.537z M5.925,78.215c-0.102-0.246-0.384-0.363-0.629-0.261
	c-0.246,0.102-0.363,0.383-0.262,0.629c0.102,0.246,0.383,0.363,0.629,0.261C5.909,78.743,6.025,78.461,5.925,78.215z M5.371,90.717
	C5.05,89.939,4.158,89.568,3.38,89.89c-0.778,0.321-1.149,1.213-0.828,1.992c0.321,0.778,1.213,1.149,1.992,0.828
	C5.322,92.387,5.692,91.496,5.371,90.717z M5.964,103.133c-0.626-1.516-2.363-2.237-3.879-1.612
	c-1.516,0.626-2.237,2.363-1.611,3.878c0.626,1.516,2.362,2.238,3.878,1.612C5.868,106.386,6.589,104.649,5.964,103.133z
	 M6.257,116.015c-0.686-1.66-2.586-2.449-4.245-1.765c-1.66,0.686-2.45,2.586-1.765,4.245c0.686,1.66,2.586,2.45,4.245,1.765
	S6.941,117.674,6.257,116.015z M6.918,129.04c-0.65-1.577-2.458-2.328-4.035-1.677s-2.328,2.458-1.677,4.035
	c0.65,1.578,2.458,2.329,4.035,1.678S7.569,130.618,6.918,129.04z M8.206,142.054c-0.584-1.414-2.203-2.087-3.617-1.503
	c-1.413,0.584-2.086,2.203-1.502,3.616c0.583,1.414,2.202,2.087,3.616,1.503C8.116,145.086,8.789,143.467,8.206,142.054z
	 M10.446,154.874c-0.558-1.352-2.106-1.995-3.459-1.437c-1.352,0.558-1.995,2.106-1.438,3.459c0.559,1.352,2.107,1.995,3.459,1.438
	C10.361,157.775,11.005,156.226,10.446,154.874z M13.707,167.423c-0.592-1.434-2.234-2.116-3.669-1.524
	c-1.434,0.592-2.116,2.234-1.524,3.669c0.592,1.434,2.234,2.116,3.669,1.524C13.616,170.5,14.299,168.858,13.707,167.423z
	 M17.642,179.794c-0.608-1.475-2.299-2.177-3.773-1.568c-1.476,0.609-2.177,2.299-1.568,3.773c0.609,1.476,2.299,2.178,3.774,1.568
	C17.549,182.959,18.251,181.27,17.642,179.794z" class="color c1"/>
</svg>