<svg version="1.1" id="图层_1" x="0px" y="0px" width="144px" height="168.569px" viewBox="0 0 144 168.569" enable-background="new 0 0 144 168.569" xml:space="preserve" xmlns="http://www.w3.org/2000/svg" xmlns:xlink="http://www.w3.org/1999/xlink" xmlns:xml="http://www.w3.org/XML/1998/namespace">
  <path fill="#209BD8" d="M57.706,14.29c0.003,1.785,0.344,3.554,1.003,5.213L33.215,35.993l2.857,4.409l25.425-16.456
	c5.347,5.784,14.372,6.137,20.155,0.79c5.784-5.348,6.137-14.372,0.79-20.156c-5.348-5.784-14.371-6.138-20.156-0.79
	c-2.924,2.704-4.584,6.506-4.58,10.488V14.29z M81.031,14.29c0,4.992-4.047,9.039-9.038,9.039s-9.039-4.047-9.039-9.039
	s4.048-9.038,9.039-9.038C76.981,5.257,81.024,9.3,81.031,14.29z M24.761,128.221L50.288,144.7l2.857-4.409l-25.54-16.526
	c2.854-7.35-0.792-15.62-8.142-18.473c-7.349-2.853-15.62,0.792-18.475,8.141c-2.852,7.35,0.793,15.62,8.143,18.473
	c5.278,2.049,11.267,0.787,15.266-3.22C24.537,128.535,24.666,128.373,24.761,128.221z M7.837,124.979
	c-3.517-3.542-3.495-9.266,0.047-12.782c3.543-3.517,9.266-3.496,12.782,0.046c3.499,3.525,3.499,9.211,0,12.736
	c-3.514,3.526-9.223,3.536-12.75,0.021c-0.006-0.007-0.014-0.014-0.021-0.021H7.837z M24.386,59.959
	c5.581-5.577,5.583-14.623,0.005-20.204c-5.578-5.581-14.623-5.583-20.203-0.005c-5.581,5.579-5.583,14.624-0.006,20.205
	c0.002,0.001,0.005,0.003,0.006,0.004l0,0c2.039,2.025,4.646,3.384,7.475,3.896V95.25h5.249V63.855
	C19.739,63.344,22.346,61.985,24.386,59.959z M7.896,56.251c-3.517-3.542-3.497-9.265,0.046-12.782s9.267-3.497,12.783,0.046
	c3.498,3.524,3.498,9.211,0,12.735c-3.526,3.543-9.257,3.556-12.799,0.03C7.915,56.271,7.906,56.262,7.896,56.251z M82.548,144.571
	c-5.345-5.832-14.404-6.226-20.235-0.881c-5.83,5.344-6.226,14.403-0.881,20.234c5.344,5.831,14.404,6.226,20.233,0.882
	c4.374-4.008,5.824-10.297,3.646-15.814l25.751-15.85l-2.752-4.467L82.548,144.571z M71.993,163.231
	c-4.991,0-9.039-4.047-9.039-9.039s4.048-9.039,9.039-9.039s9.038,4.047,9.038,9.039c-0.025,4.976-4.063,8.997-9.038,9.003V163.231z
	 M90.549,28.868l25.785,15.896c-2.776,7.372,0.948,15.599,8.319,18.375c7.372,2.777,15.6-0.948,18.376-8.32
	c2.777-7.372-0.949-15.598-8.321-18.375c-5.244-1.976-11.16-0.696-15.12,3.271c-0.187,0.187-0.351,0.385-0.513,0.571L93.301,24.401
	L90.549,28.868z M136.031,43.422c3.53,3.53,3.53,9.253,0,12.782c-3.53,3.53-9.253,3.53-12.782,0c-3.529-3.529-3.529-9.252,0-12.782
	c1.695-1.695,3.995-2.647,6.392-2.647c2.424-0.002,4.747,0.968,6.449,2.694L136.031,43.422z M132.323,73.186h-5.248v31.36
	c-7.763,1.45-12.881,8.917-11.432,16.679c1.449,7.763,8.918,12.881,16.68,11.432c7.763-1.45,12.88-8.917,11.432-16.681
	c-1.084-5.805-5.626-10.347-11.432-11.431V73.186z M136.09,112.185c3.529,3.529,3.529,9.252,0,12.782s-9.252,3.53-12.783,0
	c-3.528-3.531-3.528-9.253,0-12.783c1.696-1.695,3.995-2.646,6.392-2.646c2.399,0.005,4.698,0.96,6.392,2.659V112.185z
	 M71.386,86.795c-1.438-1.309-1.544-3.537-0.233-4.976c1.309-1.438,3.535-1.544,4.974-0.234c1.439,1.309,1.545,3.537,0.235,4.975
	C75.052,87.999,72.824,88.104,71.386,86.795z M76.355,98.842c-1.547,0.259-3.123,0.272-4.674,0.041
	c-8.158-1.221-13.784-8.825-12.564-16.985l0.373-2.601l5.19,0.758l-0.373,2.601c-0.144,0.991-0.134,1.997,0.032,2.985
	c0.879,5.279,5.871,8.846,11.152,7.966l2.588-0.432l0.863,5.178L76.355,98.842z M52.073,79.133
	c-0.636,2.823-0.714,5.742-0.236,8.595c2.039,12.177,13.564,20.397,25.742,18.357l2.589-0.431l0.863,5.178l-2.589,0.431
	c-3.52,0.589-7.119,0.49-10.601-0.292c-14.875-3.34-24.228-18.106-20.889-32.981l0.572-2.566l5.119,1.167l-0.571,2.565V79.133z
	 M39.886,76.439c-0.983,4.39-1.106,8.93-0.364,13.367c3.177,18.981,21.141,31.794,40.121,28.617l2.591-0.431l0.862,5.178
	l-2.59,0.431c-5.104,0.851-10.324,0.704-15.375-0.431c-21.604-4.854-35.184-26.304-30.33-47.909l0.571-2.566l5.12,1.167
	l-0.571,2.565L39.886,76.439z M71.188,69.605c1.523-0.253,3.076-0.27,4.605-0.047c8.164,1.188,13.819,8.769,12.632,16.934
	l-0.373,2.601l-5.189-0.758l0.374-2.601c0.143-0.991,0.133-1.997-0.032-2.985c-0.88-5.28-5.874-8.847-11.152-7.966l-2.59,0.432
	L68.6,70.037L71.188,69.605z M95.47,89.268c0.634-2.823,0.714-5.742,0.237-8.595c-2.04-12.178-13.565-20.397-25.743-18.357
	l-2.59,0.432l-0.862-5.179l2.589-0.432c3.519-0.588,7.119-0.489,10.601,0.293c14.875,3.338,24.228,18.104,20.888,32.98l-0.571,2.565
	l-5.12-1.166l0.572-2.566V89.268z M112.742,93.093l-0.572,2.566l-5.119-1.167l0.571-2.566c0.982-4.39,1.106-8.93,0.364-13.367
	c-3.177-18.982-21.14-31.795-40.122-28.618l-2.59,0.432l-0.863-5.179l2.671-0.396c2.188-0.363,4.401-0.545,6.619-0.542
	c22.139,0.028,40.061,17.998,40.032,40.135C113.721,87.321,113.39,90.238,112.742,93.093z M10.765,49.86
	c0-1.945,1.577-3.521,3.522-3.521c1.944,0,3.521,1.576,3.521,3.521s-1.577,3.522-3.521,3.522
	C12.342,53.382,10.765,51.806,10.765,49.86z M68.471,14.29c0-1.945,1.577-3.522,3.522-3.522c1.944,0,3.521,1.577,3.521,3.522
	c0,1.945-1.577,3.521-3.521,3.521C70.048,17.811,68.471,16.234,68.471,14.29z M68.471,153.878c0-1.945,1.577-3.523,3.522-3.523
	c1.944,0,3.521,1.578,3.521,3.523c0,1.945-1.577,3.521-3.521,3.521C70.048,157.4,68.471,155.823,68.471,153.878z M10.765,118.587
	c0-1.945,1.577-3.522,3.522-3.522c1.944,0,3.521,1.577,3.521,3.522c0,1.946-1.577,3.522-3.521,3.522
	C12.342,122.109,10.765,120.533,10.765,118.587z M126.177,49.86c0-1.945,1.577-3.521,3.521-3.521c1.946,0,3.522,1.576,3.522,3.521
	s-1.576,3.522-3.522,3.522C127.754,53.382,126.177,51.806,126.177,49.86z M126.177,118.587c0-1.945,1.577-3.522,3.521-3.522
	c1.946,0,3.522,1.577,3.522,3.522c0,1.946-1.576,3.522-3.522,3.522C127.754,122.109,126.177,120.533,126.177,118.587z" class="color c1"/>
</svg>