<svg version="1.1" id="图层_1" x="0px" y="0px" width="241.576px" height="237.054px" viewBox="0 0 241.576 237.054" enable-background="new 0 0 241.576 237.054" xml:space="preserve" xmlns="http://www.w3.org/2000/svg" xmlns:xlink="http://www.w3.org/1999/xlink" xmlns:xml="http://www.w3.org/XML/1998/namespace">
  <path fill="#0000FF" d="M240.867,154.242l-14.558-27.25c1.991-1.416,3.294-3.737,3.296-6.366c0.002-3.005-1.695-5.612-4.18-6.922
	c2.15-8.581,3.213-17.343,3.107-26.094c-0.188-15.551-3.902-28.053-9.549-38.11c1.5-1.49,2.431-3.554,2.432-5.835
	c0.002-4.546-3.681-8.233-8.226-8.235c-1.362-0.001-2.645,0.335-3.777,0.921c-7.973-8.64-17.376-14.611-26.054-18.689
	c-13.138-6.175-26.096-8.916-34.553-10.128c-0.892-4.299-4.698-7.531-9.262-7.534c-5.228-0.003-9.467,4.233-9.47,9.46
	c-0.003,5.228,4.233,9.467,9.46,9.47c1.687,0.001,3.268-0.445,4.64-1.218c4.901,4.891,12.982,14.087,19.601,27.082
	c1.897,3.725,3.742,7.931,5.369,12.575c-2.469,1.252-4.47,3.281-5.691,5.769c-3.022-0.932-5.963-1.685-8.781-2.29
	c-16.174-3.475-30.438-2.775-38.534-1.839c-1.146-2.297-3.512-3.878-6.253-3.88c-3.864-0.002-6.998,3.129-7,6.992
	c-0.002,3.864,3.129,6.998,6.992,7c0.685,0,1.345-0.102,1.97-0.285c3.801,5.185,9.246,14.438,12.64,28.243
	c0.286,1.164,0.549,2.332,0.793,3.504c-2.79,0.51-5.188,2.139-6.704,4.413c-15.201-6.178-30.199-11.484-40.522-14.978
	c0.073-0.515,0.124-1.036,0.125-1.571c0.003-6.137-4.969-11.114-11.105-11.117s-11.114,4.969-11.117,11.105
	s4.969,11.114,11.105,11.117c4.435,0.002,8.253-2.6,10.037-6.356c10.239,3.483,25.097,8.757,40.11,14.847
	c-0.225,0.846-0.357,1.73-0.358,2.647c-0.003,5.682,4.601,10.291,10.283,10.294c0.144,0,0.285-0.016,0.428-0.021
	c0.248,9.856-0.639,19.765-2.304,29.449c-7.493,1.693-16.04,3.168-25.737,4.252c-0.238-3.647-3.262-6.535-6.969-6.536
	c-3.864-0.002-6.998,3.129-7,6.992c-0.002,3.864,3.129,6.998,6.992,7c2.821,0.001,5.246-1.67,6.354-4.074
	c9.111-0.982,17.692-2.357,25.719-4.112c-3.322,17.307-8.994,33.766-14.898,47.741c-0.242-0.025-0.487-0.039-0.735-0.04
	c-3.864-0.002-6.998,3.129-7,6.992c-0.002,3.864,3.129,6.998,6.992,7c1.795,0.001,3.427-0.68,4.666-1.791l42.715,17.112
	c0.438,3.441,3.369,6.105,6.93,6.106c3.864,0.002,6.998-3.129,7-6.992c0.001-2.471-1.282-4.638-3.215-5.884l0.633-2.976
	c0.793-3.727,3.021-6.871,6.275-8.854c3.254-1.983,7.072-2.522,10.746-1.518l9.424,2.574l3.262,2.022l0.16,0.087
	c1.596,0.759,3.333,1.134,5.108,1.135c2.636,0.001,5.358-0.821,7.83-2.435c4.434-2.894,7.101-7.659,6.958-12.435l-0.172-5.783
	c-0.032-1.093,0.465-2.144,1.331-2.812l4.568-3.525c0.958-0.611,1.6-1.6,1.768-2.729c0.172-1.165-0.183-2.334-0.976-3.207
	l-3.862-4.253l5.602,0.003c1.244,0.001,2.382-0.573,3.121-1.573c0.74-1,0.954-2.256,0.589-3.445l-1.476-4.806
	c-0.302-0.982,0.141-2.038,1.052-2.512l8.422-4.377c1.66-0.539,2.993-1.762,3.671-3.378
	C241.807,157.712,241.72,155.839,240.867,154.242z M177.682,81.188c2.976-0.663,5.553-2.366,7.344-4.707
	c5.028,3.173,9.701,6.835,14.005,10.991c-0.942,1.191-1.51,2.693-1.511,4.33c-0.001,2.245,1.059,4.238,2.703,5.519
	c-5.424,9.957-13.144,20.141-24.093,29.536c-0.916-0.829-1.986-1.486-3.165-1.926C177.849,108.686,178.872,94.021,177.682,81.188z
	 M166.416,143.548c-0.807,6.86-1.852,20.162,0.068,33.13c0.186,1.256,0.439,2.493,0.724,3.719c-2.079,1.212-3.481,3.459-3.482,6.039
	c-0.001,1.064,0.243,2.068,0.668,2.971c-14.097,8.597-29.536,13.846-46.117,15.662c16.259-10.176,28.501-26.543,36.376-39.6
	c5-8.29,8.812-16.148,11.417-22.048C166.185,143.464,166.299,143.51,166.416,143.548z M170.725,179.444
	c-0.12,0-0.238,0.012-0.356,0.018c-0.245-1.078-0.465-2.164-0.628-3.266c-1.835-12.391-0.829-25.416-0.055-32.153
	c5.373-0.092,9.703-4.467,9.706-9.863c0.001-1.719-0.439-3.335-1.211-4.744c11.529-9.874,19.534-20.565,25.078-30.754
	c0.408,0.074,0.826,0.119,1.255,0.119c1.346,0.001,2.599-0.385,3.666-1.043c3.703,4.834,7.051,10.137,10.031,15.915
	c-2.517,1.298-4.241,3.917-4.243,6.944c-0.001,2.748,1.418,5.162,3.562,6.557c-2.022,4.922-4.418,9.741-7.204,14.404
	c-6.659,11.148-18.028,26.996-34.603,39.972C174.453,180.253,172.684,179.445,170.725,179.444z M225.24,87.65
	c0.102,8.44-0.919,16.894-2.988,25.176c-0.154-0.009-0.306-0.023-0.462-0.024c-0.116,0-0.229,0.012-0.344,0.017
	c-3.335-6.526-7.029-12.285-10.978-17.35c0.658-1.066,1.044-2.317,1.045-3.661c0.001-2.182-0.998-4.131-2.563-5.415
	c1.992-5.139,3.408-9.977,4.406-14.301c1.889-8.189,2.534-15.339,2.676-20.719c0.105-0.039,0.212-0.072,0.315-0.115
	C222.09,61.654,225.072,73.8,225.24,87.65z M166.707,43.3c-6.762-13.276-14.872-22.603-19.965-27.704
	c1.113-1.306,1.87-2.919,2.141-4.694c8.29,1.238,20.761,3.936,33.165,9.781c10.033,4.728,18.327,10.62,24.881,17.636
	c-1.228,1.437-1.974,3.298-1.975,5.336c-0.002,4.375,3.412,7.945,7.722,8.209c-0.285,8.024-1.729,19.931-6.752,33.085
	c-0.453-0.092-0.922-0.142-1.403-0.142c-1.073-0.001-2.086,0.248-2.996,0.679c-4.808-4.659-9.828-8.519-14.896-11.726
	c0.659-1.539,1.026-3.232,1.027-5.011c0.004-7.046-5.705-12.76-12.751-12.764c-0.912,0-1.801,0.099-2.659,0.28
	C170.568,51.479,168.664,47.142,166.707,43.3z M114.73,67.161c1.289-1.242,2.1-2.971,2.139-4.893
	c7.96-0.875,21.828-1.503,37.229,1.824c2.836,0.613,5.598,1.331,8.292,2.146c-0.161,0.809-0.249,1.643-0.249,2.499
	c-0.004,6.878,5.44,12.472,12.253,12.739c1.162,12.543,0.15,26.901-4.679,42.832c-0.066-0.001-0.13-0.01-0.196-0.01
	c-2.564-0.001-4.893,0.983-6.649,2.584c-6.941-4.65-15.956-9.366-25.715-13.868c0.172-0.744,0.271-1.516,0.272-2.313
	c0.003-5.179-3.825-9.454-8.805-10.175c-0.286-1.416-0.594-2.828-0.939-4.233C124.216,82.185,118.726,72.665,114.73,67.161z
	 M130.834,120.288c2.113-0.814,3.884-2.303,5.058-4.206c9.511,4.376,18.256,8.93,24.942,13.377c-0.762,1.4-1.195,3.004-1.196,4.71
	c-0.001,1.368,0.278,2.672,0.78,3.857c-6.838,3.642-17.119,7.993-31.685,11.566C130.314,139.954,131.124,130.099,130.834,120.288z
	 M128.117,153.136c8.267-1.963,15.916-4.342,22.89-7.139c4.445-1.783,8.144-3.552,11.202-5.192c0.306,0.338,0.629,0.66,0.979,0.952
	c-7.063,16.009-23.565,47.5-49.168,62.029c-0.361-0.375-0.761-0.711-1.198-0.999C118.937,188.287,124.8,171.157,128.117,153.136z
	 M172.267,209.536c-4.035,2.459-6.799,6.359-7.781,10.981l-0.548,2.578c-0.212-0.02-0.426-0.033-0.643-0.033
	c-2.985-0.002-5.527,1.869-6.533,4.501l-41.223-16.515c0.278-0.753,0.438-1.564,0.438-2.414c0-0.013-0.002-0.026-0.002-0.039
	c18.222-1.593,35.14-7.157,50.501-16.604c1.177,0.902,2.645,1.445,4.243,1.445c0.54,0,1.064-0.067,1.569-0.182
	c3.198,5.516,7.527,10.377,12.763,14.28C180.661,206.484,176.144,207.175,172.267,209.536z M238.071,158.108
	c-0.315,0.752-0.945,1.314-1.727,1.544l-8.847,4.564c-2.322,1.206-3.449,3.898-2.682,6.399l1.476,4.806
	c0.075,0.246-0.024,0.432-0.089,0.521c-0.065,0.089-0.214,0.238-0.472,0.238l-6.492-0.003c-1.164-0.001-2.18,0.66-2.652,1.725
	c-0.472,1.064-0.278,2.261,0.505,3.122l4.46,4.911c0.174,0.191,0.172,0.402,0.156,0.512c-0.016,0.109-0.076,0.312-0.297,0.444
	l-4.793,3.685c-1.698,1.31-2.674,3.373-2.61,5.517l0.172,5.783c0.108,3.638-1.987,7.309-5.467,9.58
	c-3.138,2.05-6.738,2.466-9.645,1.121l-8.844-5.482c-6.276-3.889-11.385-9.167-14.987-15.314c1.517-1.282,2.482-3.196,2.484-5.338
	c0-0.709-0.107-1.392-0.302-2.036c17.157-13.337,28.886-29.674,35.736-41.139c2.886-4.831,5.365-9.824,7.457-14.925
	c0.384,0.058,0.774,0.098,1.174,0.098c0.51,0,1.008-0.052,1.491-0.145l14.69,27.498
	C238.347,156.512,238.386,157.356,238.071,158.108z M27.984,65.786c-0.004,7.728-6.272,13.989-13.999,13.985S-0.004,73.499,0,65.772
	s6.272-13.989,13.999-13.985C21.727,51.791,27.988,58.059,27.984,65.786z M65.454,26.093c0.003-4.887,3.966-8.846,8.853-8.843
	c4.887,0.003,8.846,3.966,8.843,8.853s-3.966,8.846-8.853,8.843C69.411,34.943,65.452,30.98,65.454,26.093z M59.225,134.117
	c-0.002,4.546-3.689,8.229-8.235,8.226s-8.229-3.689-8.226-8.235c0.002-4.546,3.689-8.229,8.235-8.226
	C55.544,125.884,59.227,129.571,59.225,134.117z" class="color c1"/>
</svg>