<svg version="1.1" id="图层_1" x="0px" y="0px" width="95.418px" height="156.342px" viewBox="0 0 95.418 156.342" enable-background="new 0 0 95.418 156.342" xml:space="preserve" xmlns="http://www.w3.org/2000/svg" xmlns:xlink="http://www.w3.org/1999/xlink" xmlns:xml="http://www.w3.org/XML/1998/namespace">
  <path fill="#F1CB5D" d="M73.581,140.416c11.221-10.578,18.315-25.459,18.315-42.054c0-1.79,0.047-4.706-0.114-6.465
	c-5.07,3.328-10.39,6.634-15.933,9.873c-2.277,21.06-20.291,38.646-41.949,38.646c-15.521,0-33.901,0-33.901,0v15.926h95.418
	v-15.926C95.418,140.416,81.297,140.416,73.581,140.416z M35.683,104.334l-6.279-3.806l3.733-6.454l4.016,2.319l19.342-33.513
	c11.226,7.139,18.614,19.365,19.396,33.074c5.172-3.09,10.114-6.231,14.791-9.392c-3.103-14.91-11.97-27.929-24.455-36.317
	l-1.867-1.074l3.783-6.463l15.02-26.01l-2.938-1.703l4.627-8.014L72.75,0l-4.629,8.006l-3.104-1.785l-32.073,55.56l-6.382,11.057
	l-7.548,13.076l4.025,2.323l-3.61,6.25l-6.261-3.795l-3.895,6.429l22.512,13.642L35.683,104.334z" class="color c1"/>
</svg>