<svg version="1.1" id="图层_1" x="0px" y="0px" width="97.883px" height="98.109px" viewBox="0 0 97.883 98.109" enable-background="new 0 0 97.883 98.109" xml:space="preserve" xmlns="http://www.w3.org/2000/svg" xmlns:xlink="http://www.w3.org/1999/xlink" xmlns:xml="http://www.w3.org/XML/1998/namespace">
  <path fill="#F4C15A" d="M67.872,58.303c-16.969,0.954-13.005,14.437-13.005,14.437c-8.244-1.427-10.781,3.486-10.781,3.486
	c-3.804-6.027-10.468-4.12-10.468-4.12L97.883,5.671l-2.085-1.732L24.736,70.395l-5.867-6.989L94.371,1.595L92.783,0L14.486,56.804
	c-0.651-3.808-4.105-1.9-4.105-1.9c8.437-10.476-2.185-15.805-8.94-14.195C0.535,44.319,0,48.075,0,51.963
	c0,25.479,20.663,46.146,46.149,46.146c21.089,0,38.838-14.167,44.345-33.493c-8.59-0.321-13.265,3.362-13.265,3.362
	C78.021,57.991,67.872,58.303,67.872,58.303z" class="color c1"/>
</svg>