<svg version="1.1" id="图层_1" x="0px" y="0px" width="166.332px" height="141.48px" viewBox="0 0 166.332 141.48" enable-background="new 0 0 166.332 141.48" xml:space="preserve" xmlns="http://www.w3.org/2000/svg" xmlns:xlink="http://www.w3.org/1999/xlink" xmlns:xml="http://www.w3.org/XML/1998/namespace">
  <path fill="#113558" d="M117.48,121.834l-21.423-9.67l20.562,25.771l2.629-12.402C118.266,124.573,117.615,123.279,117.48,121.834z" class="color c1"/>
  <path fill="#44BFEA" d="M38.003,87.066c0.146,0,0.286,0.016,0.43,0.021l9.399-20.429c-0.217-0.235-0.417-0.484-0.594-0.751
	l-43.07,3.879c-0.325,1.022-0.923,1.92-1.703,2.618l25.071,22.353C28.929,90.301,33.088,87.066,38.003,87.066z" class="color c2"/>
  <path fill="#44BFEA" d="M93.257,40.574l32.48,11.882c0.963-1.08,2.172-1.929,3.545-2.461l-0.877-12.707
	c-0.951-0.422-1.768-1.086-2.379-1.915l-32.783,4.911C93.251,40.379,93.251,40.477,93.257,40.574z" class="color c2"/>
  <path fill="#113558" d="M106.205,5.351L89.003,32.596c0.877,0.674,1.647,1.474,2.285,2.378l33.916-5.081
	c0.146-0.416,0.334-0.811,0.564-1.178L111.558,4.367c-1.003,0.775-2.26,1.242-3.625,1.242
	C107.332,5.608,106.751,5.518,106.205,5.351z" class="color c1"/>
  <path fill="#113558" d="M52.193,56.688c0.965,0,1.873,0.234,2.678,0.643l16.768-13.619c-0.178-0.781-0.279-1.592-0.279-2.428
	c0-0.891,0.117-1.751,0.318-2.581L33.593,25.299c-0.376,0.74-0.898,1.394-1.536,1.914l20.002,29.481
	C52.104,56.693,52.148,56.688,52.193,56.688z" class="color c1"/>
  <path fill="#2F82B6" d="M74.271,48.708l-16.09,13.068l57.783,22.52L87.707,50.833c-1.59,0.898-3.424,1.417-5.38,1.417
	C79.138,52.25,76.275,50.881,74.271,48.708z" class="color c3"/>
  <path fill="#44BFEA" d="M113.087,91.748c0-0.865,0.111-1.701,0.301-2.509l-52.01-20.267L83.9,97.033
	c0.977-0.451,2.061-0.711,3.206-0.711c2.552,0,4.806,1.253,6.197,3.172l19.81-7.229C113.105,92.092,113.087,91.922,113.087,91.748z" class="color c2"/>
  <path fill="#113558" d="M123.396,58.577c0-0.357,0.025-0.709,0.064-1.056L92.18,46.077c-0.147,0.305-0.312,0.601-0.486,0.889
	l29.005,34.344c1.059-0.341,2.186-0.528,3.356-0.528c0.169,0,0.334,0.018,0.502,0.025l3.271-14.366
	C125.173,64.823,123.396,61.911,123.396,58.577z" class="color c1"/>
  <path fill="#2F82B6" d="M136.753,31.854c0,2.135-1.129,4.001-2.817,5.049l0.877,12.741c2.674,0.657,4.882,2.478,6.065,4.897
	l20.105-1.458c0.211-0.634,0.527-1.219,0.926-1.737l-39.438-39.26l8.076,13.838c0.086-0.004,0.172-0.013,0.26-0.013
	C134.093,25.911,136.753,28.571,136.753,31.854z" class="color c3"/>
  <path fill="#44BFEA" d="M74.352,33.77c2-2.122,4.829-3.454,7.975-3.454c0.508,0,1.004,0.046,1.493,0.113l18.401-29.152
	c-0.115-0.409-0.187-0.836-0.21-1.277L32.807,18.752c0.148,0.173,0.291,0.354,0.419,0.542L74.352,33.77z" class="color c2"/>
  <path fill="#2F82B6" d="M3.178,64.313l43.513-3.92c0.141-0.346,0.313-0.673,0.513-0.982L25.937,28.063
	c-1.579-0.686-2.803-2.034-3.315-3.697L0,62.234C1.277,62.564,2.386,63.306,3.178,64.313z" class="color c3"/>
  <path fill="#113558" d="M53.776,68.354c-0.226,0.063-0.457,0.109-0.692,0.146L43.78,88.723c3.112,1.936,5.191,5.376,5.191,9.311
	c0,1.191-0.196,2.336-0.548,3.411l31.309,0.507c0.082-0.303,0.179-0.599,0.297-0.885L53.776,68.354z" class="color c1"/>
  <path fill="#2F82B6" d="M122.1,102.532c-3.021-0.545-5.608-2.321-7.228-4.798l-20.203,7.375c-0.004,0.028-0.008,0.056-0.012,0.083
	l25.154,11.355c0.416-0.313,0.871-0.578,1.361-0.775L122.1,102.532z" class="color c3"/>
  <path fill="#44BFEA" d="M133.207,67.758l-3.35,14.695c2.792,1.747,4.746,4.705,5.105,8.146l19.5,5.209
	c0.289-0.717,0.715-1.361,1.242-1.906L135.97,67.146C135.105,67.485,134.177,67.695,133.207,67.758z" class="color c2"/>
  <path fill="#113558" d="M161.914,58.572l-20.223,1.467c-0.211,1.321-0.695,2.551-1.406,3.622l21.104,28.606
	c0.509,0.125,0.993,0.311,1.442,0.557l3.5-31.94C164.533,60.796,162.945,59.912,161.914,58.572z" class="color c1"/>
  <polygon fill="#44BFEA" points="121.531,141.48 130.775,141.48 124.13,129.217 " class="color c2"/>
  <path fill="#44BFEA" d="M134.119,96.105c-1.291,2.979-3.865,5.265-7.025,6.175l-0.961,13.729c0.164,0.086,0.324,0.18,0.479,0.278
	l17.789-9.208l11.349-4.865c-0.138-0.14-0.269-0.287-0.393-0.438L134.119,96.105z" class="color c2"/>
</svg>