<svg version="1.1" id="图层_1" x="0px" y="0px" width="159.953px" height="179.883px" viewBox="0 0 159.953 179.883" enable-background="new 0 0 159.953 179.883" xml:space="preserve" xmlns="http://www.w3.org/2000/svg" xmlns:xlink="http://www.w3.org/1999/xlink" xmlns:xml="http://www.w3.org/XML/1998/namespace">
  <circle fill="#1880BA" cx="147.943" cy="76.344" r="7.164" class="color c1"/>
  <circle fill="#1880BA" cx="60.076" cy="160.042" r="7.164" class="color c1"/>
  <circle fill="#1880BA" cx="23.833" cy="45.333" r="7.164" class="color c1"/>
  <path fill="#1880BA" d="M47.246,142.235c0.319,1.115,0.647,2.211,0.985,3.287c-15.519,3.5-27.75,2.6-33.312-3.354
	C21.776,145.851,33.316,145.726,47.246,142.235z M147.46,51.654c0.552,0.59,1.058,1.213,1.474,1.902
	c2.063,3.415,2.245,7.756,0.813,12.696c1.396,0.249,2.697,0.774,3.838,1.528c1.082-4.46,0.791-8.396-1.111-11.54
	C151.315,54.325,149.612,52.809,147.46,51.654z M154.009,45.269c-7.98-8.066-26.422-8.068-48.822-1.147
	c0.279,1.169,0.55,2.355,0.811,3.559C126.734,40.853,144.389,39.757,154.009,45.269z M40.376,83.94
	c0.034-1.882,0.092-3.748,0.171-5.597c-6.332,4.855-12.059,9.833-17.092,14.794c0.959,1.063,1.974,2.131,3.012,3.201
	C30.633,92.194,35.287,88.034,40.376,83.94z M22.096,100.875c-1.061-1.059-2.092-2.112-3.086-3.168
	c-15.803,17-22.894,33.299-16.889,43.234c1.321,2.186,3.225,3.943,5.606,5.309c-0.79-0.799-1.489-1.668-2.067-2.625
	C-0.288,133.786,6.607,117.7,22.096,100.875z M97.225,124.411c2.642-1.596,5.216-3.227,7.728-4.883
	c0.217-1.604,0.422-3.227,0.602-4.877c-3.365,2.307-6.873,4.57-10.51,6.768c-6.549,3.959-13.088,7.447-19.474,10.447
	c1.392,0.723,2.777,1.42,4.159,2.098C85.507,131.133,91.367,127.952,97.225,124.411z M68.643,134.956
	c-5.323,2.242-10.498,4.127-15.434,5.627c0.349,1.156,0.708,2.289,1.079,3.396c3.687-1.041,7.515-2.302,11.455-3.776
	c2.339-0.935,4.708-1.941,7.095-3.004C71.443,136.47,70.043,135.722,68.643,134.956z M133.018,97.379
	c4.147-3.955,7.653-7.719,10.874-11.607c-1.366-0.587-2.571-1.468-3.555-2.554c-2.937,3.793-6.246,7.509-10.256,11.445
	C131.083,95.567,132.062,96.474,133.018,97.379z M129.985,100.198c-0.929-0.9-1.882-1.801-2.862-2.703
	c-5.17,4.818-11.063,9.646-17.562,14.33c-0.147,1.66-0.315,3.301-0.5,4.922C116.796,111.397,123.817,105.815,129.985,100.198z
	 M60.971,64.425c-4.94,2.986-9.652,6.091-14.124,9.268c-0.126,1.804-0.228,3.631-0.308,5.477c5.584-4.152,11.591-8.204,17.971-12.06
	c2.904-1.755,5.808-3.412,8.701-4.994c-1.587-0.707-3.161-1.379-4.724-2.023C65.986,61.48,63.48,62.91,60.971,64.425z M77.412,59.88
	c8.489-4.41,16.849-8.072,24.81-10.909c-0.28-1.225-0.569-2.431-0.871-3.613c-9.092,3.066-18.754,7.239-28.575,12.412
	C74.314,58.449,75.859,59.149,77.412,59.88z" class="color c1"/>
  <path fill="#1880BA" d="M79.304,171.36c-0.682,0.129-1.367,0.221-2.062,0.229c-3.445,0.029-6.769-1.498-9.878-4.328
	c0.649-0.655,1.208-1.399,1.662-2.213C72.225,168.663,75.687,170.87,79.304,171.36z M77.45,9.257
	c-0.547-0.074-1.097-0.115-1.65-0.11C64.694,9.246,55.137,25.462,50.102,49.524c1.147,0.324,2.306,0.669,3.475,1.031
	C58.239,27.388,67.057,11.239,77.45,9.257z M102.087,149.577c1.113,0.365,2.218,0.715,3.313,1.047
	c-6.245,17.904-15.324,29.168-25.524,29.26c-0.518,0.005-1.032-0.024-1.545-0.077C87.861,178.228,96.271,166.854,102.087,149.577z
	 M76.112,0.196C76.827,0.078,77.548,0.007,78.276,0c18.285-0.163,33.617,35.648,35.627,81.495c-1.266-0.919-2.553-1.832-3.86-2.738
	C107.606,35.576,93.332,1.957,76.112,0.196z M56.64,150.383c-3.173-7.639-5.766-17-7.558-27.534
	c1.393,0.955,2.804,1.903,4.242,2.842c1.718,9.117,4.044,17.274,6.829,24.097c-0.026,0-0.052-0.004-0.078-0.004
	C58.869,149.782,57.715,150,56.64,150.383z M107.268,144.782c-1.115-0.324-2.241-0.668-3.38-1.031
	c3.029-10.715,5.14-23.268,6.04-36.906c0.026-0.383,0.051-0.768,0.075-1.151c0.002-0.032,0.004-0.067,0.006-0.103
	c0.32-5.055,0.472-10.27,0.425-15.608c-0.021-2.209-0.082-4.391-0.167-6.555c1.29,0.923,2.554,1.852,3.794,2.784
	c0.026,1.136,0.049,2.273,0.06,3.419C114.305,110.385,111.734,129.522,107.268,144.782z M51.979,117.521
	c-1.394-0.97-2.769-1.942-4.109-2.927c-0.938-7.567-1.479-15.612-1.553-23.959c-0.118-13.338,0.974-25.926,2.994-37.05
	c1.158,0.304,2.329,0.627,3.517,0.975c-1.896,10.852-2.915,23.053-2.8,35.959C50.112,99.991,50.795,109.077,51.979,117.521z" class="color c1"/>
  <path fill="#1880BA" d="M10.513,57.797c-3.809,15.281,19.685,42.971,55.52,64.391c38.149,22.801,75.933,29.92,84.954,16.123
	c-0.284,1.139-0.704,2.217-1.298,3.211c-8.559,14.318-46.711,7.27-85.217-15.746C25.968,102.76,1.693,72.497,10.25,58.177
	C10.329,58.044,10.429,57.926,10.513,57.797z M13.771,43.579c-4.675,1.439-8.223,3.867-10.311,7.36
	c-0.646,1.081-1.131,2.24-1.474,3.463c2.311-3.771,6.329-6.293,11.657-7.64c-0.044-0.388-0.072-0.779-0.072-1.179
	C13.572,44.897,13.642,44.227,13.771,43.579z M98.644,67.005C75.127,52.95,51.631,44.472,33.609,42.469
	c0.313,0.982,0.484,2.028,0.484,3.114c0,0.244-0.02,0.484-0.037,0.725c8.631,1.162,18.415,3.733,28.803,7.634
	c10.812,3.894,22.471,9.4,34.168,16.393c10.17,6.079,19.334,12.664,27.176,19.327c23.75,19.667,37.27,40.549,33.578,53.697
	c0.026-0.045,0.061-0.082,0.086-0.125C167.798,126.62,141.285,92.491,98.644,67.005z" class="color c1"/>
</svg>