<svg version="1.1" id="图层_1" x="0px" y="0px" width="159.916px" height="180px" viewBox="0 0 159.916 180" enable-background="new 0 0 159.916 180" xml:space="preserve" xmlns:xml="http://www.w3.org/XML/1998/namespace" xmlns="http://www.w3.org/2000/svg" xmlns:xlink="http://www.w3.org/1999/xlink">
  <path fill="#FFFFFF" d="M150.922,118.338V61.663c5.134-1.049,8.994-5.59,8.994-11.033c0-6.219-5.042-11.261-11.261-11.261
	c-3.078,0-5.852,1.252-7.883,3.254l-49.416-28.53c0.234-0.906,0.369-1.853,0.369-2.833c0-6.219-5.043-11.261-11.263-11.261
	c-6.219,0-11.261,5.042-11.261,11.261c0,0.606,0.068,1.194,0.164,1.773L18.76,42.251c-1.991-1.787-4.613-2.882-7.499-2.882
	C5.042,39.369,0,44.411,0,50.63c0,5.258,3.607,9.664,8.48,10.904v56.933C3.607,119.706,0,124.111,0,129.37
	c0,6.22,5.042,11.261,11.261,11.261c3.255,0,6.179-1.389,8.234-3.597l50.071,28.907c-0.229,0.896-0.364,1.83-0.364,2.798
	c0,6.22,5.042,11.261,11.261,11.261c6.22,0,11.261-5.041,11.261-11.261c0-1.15-0.175-2.261-0.494-3.306l49.19-28.399
	c2.058,2.208,4.979,3.597,8.235,3.597c6.219,0,11.261-5.041,11.261-11.261C159.916,123.927,156.056,119.387,150.922,118.338z
	 M14.994,118.756V61.244c1.127-0.396,2.169-0.965,3.1-1.678c0.042-0.001,0.149-0.006,0.363-0.016
	c0.262-0.006,0.651-0.016,1.159-0.029c1.07-0.004,2.665-0.01,4.725,0.089c4.11,0.187,10.054,0.674,17.123,1.922
	c3.542,0.586,7.347,1.431,11.358,2.401c3.996,1.029,8.199,2.202,12.476,3.658c2.153,0.686,4.291,1.528,6.487,2.306
	c2.151,0.884,4.372,1.693,6.541,2.667c2.18,0.953,4.384,1.903,6.541,2.978c1.084,0.528,2.182,1.033,3.26,1.582l3.216,1.689
	c4.292,2.255,8.461,4.748,12.502,7.309c0.363,0.229,0.713,0.473,1.071,0.708c0.998-0.881,2.005-1.787,3.015-2.713
	c-0.591-0.451-1.175-0.907-1.779-1.346c-3.959-2.876-8.063-5.699-12.319-8.294l-3.192-1.945c-1.072-0.635-2.166-1.227-3.248-1.841
	c-2.152-1.248-4.359-2.373-6.55-3.5c-2.178-1.148-4.414-2.131-6.587-3.188c-2.218-0.951-4.385-1.964-6.573-2.819
	c-4.346-1.795-8.644-3.297-12.752-4.637c-4.126-1.282-8.062-2.42-11.75-3.276c-7.36-1.788-13.648-2.715-18.105-3.203
	c-0.955-0.107-1.81-0.185-2.593-0.248c-0.037-0.521-0.101-1.033-0.206-1.531l47.708-27.544c-0.342,1.138-0.811,2.778-1.37,4.866
	c-1.116,4.217-2.603,10.242-3.992,17.535c-0.717,3.642-1.376,7.607-2.015,11.806c-0.024,0.165-0.047,0.335-0.07,0.5
	c2.309,0.833,4.439,1.654,6.48,2.497c0.245,0.097,0.497,0.208,0.745,0.309c0.133-0.648,0.266-1.301,0.401-1.938
	c0.882-4.035,1.767-7.836,2.688-11.316c1.798-6.972,3.604-12.683,4.926-16.633c0.666-1.973,1.214-3.508,1.597-4.535
	c0.254-0.67,0.422-1.111,0.511-1.344c0.193,0.01,0.384,0.029,0.58,0.029c2.896,0,5.528-1.103,7.522-2.899l49.654,28.667
	c-0.16,0.756-0.248,1.538-0.248,2.341c0,1.71,0.394,3.326,1.076,4.777c-0.132,0.19-0.279,0.407-0.464,0.677
	c-0.626,0.897-1.573,2.226-2.842,3.891c-2.521,3.338-6.324,8.022-11.246,13.354c-2.467,2.659-5.198,5.494-8.208,8.374
	c-2.979,2.916-6.273,5.828-9.719,8.805c-3.502,2.905-7.158,5.881-11.045,8.678c-3.844,2.857-7.913,5.53-12.033,8.133
	c-2.079,1.269-4.182,2.502-6.283,3.724c-2.14,1.142-4.24,2.356-6.39,3.426c-4.284,2.177-8.58,4.175-12.826,5.906
	c-4.237,1.76-8.422,3.244-12.428,4.552c-2.018,0.612-3.981,1.207-5.879,1.782c-1.924,0.492-3.782,0.967-5.567,1.422
	c-1.778,0.496-3.524,0.775-5.166,1.14c-1.65,0.315-3.204,0.711-4.689,0.916c-0.418,0.063-0.811,0.125-1.214,0.188
	c0.029-0.33,0.051-0.663,0.051-1.002C22.522,124.461,19.376,120.298,14.994,118.756z M22.385,131.229
	c0.472-0.045,0.938-0.088,1.431-0.131c1.508-0.111,3.087-0.408,4.768-0.623c1.673-0.259,3.454-0.429,5.274-0.813
	c1.83-0.347,3.735-0.706,5.708-1.079c1.956-0.46,3.978-0.938,6.057-1.425c4.137-1.065,8.481-2.304,12.901-3.819
	c4.43-1.486,8.937-3.246,13.454-5.189c2.267-0.955,4.486-2.059,6.755-3.09c2.227-1.109,4.461-2.238,6.675-3.404
	c4.392-2.396,8.747-4.881,12.887-7.567c4.181-2.624,8.138-5.448,11.944-8.219c3.748-2.843,7.348-5.641,10.621-8.462
	c3.305-2.785,6.326-5.545,9.065-8.148c5.472-5.221,9.765-9.87,12.673-13.249c0.685-0.789,1.282-1.499,1.81-2.134v55.102
	c-0.263,0.106-0.531,0.205-0.784,0.332c-0.542-0.678-1.102-1.375-1.686-2.119c-1.823-2.39-4.112-4.889-6.518-7.705
	c-1.211-1.4-2.568-2.77-3.924-4.236c-0.686-0.729-1.38-1.471-2.086-2.225c-0.732-0.724-1.479-1.459-2.236-2.205
	c-2.439-2.463-5.105-4.93-7.902-7.416c-0.791,0.658-1.584,1.307-2.385,1.947c3.067,2.392,6.012,4.771,8.709,7.166
	c0.793,0.688,1.574,1.368,2.346,2.037c0.744,0.698,1.478,1.387,2.197,2.063c1.432,1.364,2.863,2.635,4.148,3.944
	c2.555,2.635,4.988,4.978,6.949,7.231c0.591,0.66,1.156,1.281,1.707,1.885c-3.319,1.959-5.553,5.563-5.553,9.694
	c0,0.439,0.031,0.871,0.082,1.297L87.17,159.71c-1.873-1.397-4.19-2.231-6.707-2.231c-2.7,0-5.177,0.953-7.117,2.537
	c-0.086-0.231-0.171-0.451-0.258-0.688c-0.923-2.813-2.042-5.955-2.944-9.48c-0.242-0.875-0.49-1.771-0.742-2.681
	c-0.211-0.921-0.427-1.858-0.646-2.813c-0.427-1.91-0.917-3.871-1.248-5.929c-0.782-4.083-1.422-8.42-1.893-12.923
	c0-0.003,0-0.006-0.001-0.01c-1.014,0.398-2.014,0.781-3.005,1.152c0.749,4.287,1.633,8.41,2.635,12.282
	c0.47,2.056,1.093,4.015,1.649,5.919c0.283,0.949,0.562,1.883,0.834,2.801c0.314,0.902,0.622,1.789,0.924,2.658
	c1.138,3.496,2.469,6.596,3.578,9.359c0.07,0.159,0.138,0.309,0.207,0.461L22.385,131.229z M59.805,97.152
	c-0.082-2.467-0.027-4.93-0.047-7.388c0.06-2.454,0.097-4.903,0.205-7.329c0.131-2.423,0.216-4.835,0.416-7.207
	c0.088-1.187,0.175-2.368,0.262-3.54c0.06-0.628,0.119-1.246,0.179-1.869c1.172,0.364,2.308,0.731,3.415,1.108
	c1.003,0.32,2.016,0.683,3.051,1.061c-0.026,0.157-0.051,0.312-0.076,0.47c-0.157,1.134-0.315,2.277-0.475,3.426
	c-0.344,2.298-0.575,4.635-0.855,6.989c-0.257,2.356-0.445,4.736-0.658,7.127c-0.134,2.393-0.344,4.797-0.417,7.203
	c-0.076,2.406-0.2,4.818-0.179,7.217c-0.006,1.201-0.012,2.4-0.018,3.594c0.029,1.195,0.059,2.385,0.089,3.571
	c0.028,0.825,0.046,1.646,0.074,2.467c-1.26,0.623-2.506,1.224-3.733,1.796c-0.017-0.138-0.034-0.272-0.052-0.412
	c-0.144-1.193-0.229-2.396-0.348-3.604c-0.108-1.208-0.216-2.421-0.325-3.637c-0.072-1.219-0.145-2.44-0.218-3.665
	C59.917,102.079,59.884,99.617,59.805,97.152z" class="color c1"/>
</svg>