<svg version="1.1" id="图层_1" x="0px" y="0px" width="149.853px" height="94.784px" viewBox="0 0 149.853 94.784" enable-background="new 0 0 149.853 94.784" xml:space="preserve" xmlns="http://www.w3.org/2000/svg" xmlns:xlink="http://www.w3.org/1999/xlink" xmlns:xml="http://www.w3.org/XML/1998/namespace">
  <path fill="#A3A7A8" d="M149.792,24.689c0.012-0.025,0.047-0.043,0.053-0.071c0.169-0.765-2.553-2.01-6.078-2.784
	c-3.498-0.767-6.465-0.778-6.674-0.032l-0.01-0.002l-0.001,0.017c-0.001,0-0.001,0-0.001,0.001c0,0.001,0.001,0.002,0,0.004
	l-0.324,5.537c-2.729-0.115-16.717-0.597-36.385,0.611V27.97c0,0-0.01,0.001-0.012,0.002c-0.96,0.059-1.932,0.121-2.918,0.189
	c-5.076,0.131-15.361-0.536-19.47-7.621c-2.181-4.196-4.531-8.19-7.046-11.792l0.98-7.492c0-0.002,0.003-0.003,0.003-0.005
	c0-0.001-0.001-0.002-0.001-0.003l0.002-0.016l-0.01,0c-0.068-0.772-2.983-1.318-6.561-1.222c-3.608,0.098-6.515,0.811-6.494,1.594
	c0.001,0.028,0.032,0.053,0.04,0.081l-0.023,0.001l1.792,13.553l0.188-0.007c0.455,0.469,2.347,0.854,4.627,0.901
	c0.407,0.008,0.796,0.002,1.173-0.01l2.13,6.162c0.55,1.982,1.159,8.147-11.44,10.585c-0.021,0.004-0.038,0.007-0.06,0.013
	c-12.276,2.095-25.074,4.935-37.704,8.776c-0.511-3.641-4.685-6.479-9.759-6.479C4.393,35.18,0,38.417,0,42.413
	c0,0.519,0.077,1.024,0.219,1.513l-0.002,0.001l0.017,0.041c0.1,0.336,0.237,0.662,0.398,0.979l3.598,8.849l0.027-0.002
	c0.834,2.225,3.571,3.866,6.854,3.866c3.944,0,7.141-2.356,7.141-5.264l0.336-2.286c6.46-0.903,19.477-2.708,35.561-4.871
	C74.97,44.822,81.03,57.75,81.031,57.752l6.938,20.075c-0.182,0.548-0.287,1.119-0.287,1.709c0,0.206,0.019,0.408,0.041,0.61
	c-0.015,0.008-0.041,0.024-0.041,0.024l1.373,9.349c0,2.907,3.197,5.265,7.141,5.265c3.284,0,6.021-1.644,6.855-3.868l0.025,0.003
	l3.601-8.854c0.159-0.313,0.294-0.634,0.393-0.966l0.02-0.048l-0.002-0.002c0.141-0.488,0.219-0.994,0.219-1.514
	c0-3.994-4.393-7.233-9.813-7.233c-0.278,0-0.552,0.016-0.825,0.031c-0.922-3.688-2.539-9.789-4.818-17.05
	c-1.53-11.412,7.654-15.397,14.129-16.79c2.012-0.251,4.018-0.5,6.018-0.746c8.355-1.031,16.561-2.011,24.322-2.898l-0.039,0.68
	l0.008,0.002c-0.015,0.023-0.047,0.042-0.053,0.068c-0.119,0.551,1.863,1.454,4.428,2.016c2.51,0.551,4.634,0.568,4.841,0.054
	l0.007,0.001l0.006-0.02c0.002-0.005,0.01-0.009,0.012-0.014c0-0.004-0.004-0.007-0.002-0.011l4.289-12.932L149.792,24.689z" class="color c1"/>
</svg>