<svg version="1.1" id="图层_1" x="0px" y="0px" width="157.02px" height="158.967px" viewBox="0 0 157.02 158.967" enable-background="new 0 0 157.02 158.967" xml:space="preserve" xmlns="http://www.w3.org/2000/svg" xmlns:xlink="http://www.w3.org/1999/xlink" xmlns:xml="http://www.w3.org/XML/1998/namespace">
  <path fill="#FFFFFF" d="M3.553,95.415c-2.548,5.133,1.669,12.342,12.53,21.432c9.555,8.004,23.229,16.598,38.503,24.188
	c15.273,7.594,30.369,13.313,42.523,16.11c4.379,1.101,8.866,1.707,13.381,1.82c5.932,0,9.695-1.588,11.273-4.76
	c2.323-4.691-0.945-11.029-9.703-18.977c1.806-0.842,3.558-1.758,5.262-2.734c1.44-0.83,1.938-2.67,1.104-4.109
	c-0.829-1.441-2.671-1.938-4.111-1.104c-2.883,1.646-5.879,3.086-8.968,4.307l-4.75,1.888l3.954,3.237
	c11.125,9.121,12.32,13.88,11.839,14.841c-0.479,0.963-4.638,2.813-17.913-0.24c-11.702-2.689-26.333-8.236-41.191-15.635
	c-14.861-7.396-28.114-15.713-37.323-23.418C9.522,103.519,8.483,99.09,8.966,98.12c0.188-0.391,1.021-0.908,2.774-1.203l3.577-0.6
	l-1.257-3.406c-0.504-1.36-0.955-2.721-1.354-4.104c1.623,0.782,3.382,1.238,5.18,1.346h0.819c3.553-0.045,6.979-1.323,9.688-3.622
	c34.227,33.52,88.71,36.45,91.974,36.594h0.052c0.768,0.076,1.564,0.112,2.315,0.112c7.868,0,15.591-3.842,21.904-10.995
	c6.659-7.609,10.944-18.043,12.026-29.318c2.112-22.032-5.66-35.082-13.568-39.925c-12.057-7.344-44.629-17.62-59.542-11.604
	c-2.226,0.888-4.563,3.601-8.193,7.96c-2.201,2.646-5.833,7.029-7.337,7.615c-0.474,0.008-1.082,0.074-1.835,0.074
	c-5.787,0.271-19.063,0.902-31.933-6.675c-2.646-4.202-6.209-7.12-10.344-8.171C36.469,16.313,56.45,6.015,78.925,6.015
	c21.717,0,42.396,9.923,55.313,26.536c1.014,1.212,2.792,1.434,4.071,0.507c1.346-0.975,1.646-2.854,0.671-4.198
	C124.939,10.79,102.486,0.002,78.925,0.002c-26.182,0-49.251,12.907-62.594,32.398C7.663,35.09,0.889,46.013,0.078,59.808
	c-0.443,7.546,1.016,14.8,4.12,20.416c0.23,0.45,0.486,0.879,0.752,1.303c0.528,3.526,1.338,7.009,2.412,10.408
	C5.723,92.606,4.373,93.839,3.553,95.415z M32.479,82.101l0.158-0.203c3.735-5.217,6.043-12.28,6.486-19.8
	c0.287-4.46-0.138-8.938-1.256-13.268c12.187,4.963,23.71,4.443,28.609,4.211c0.723-0.065,1.301-0.065,1.724-0.065
	c3.457,0,6.732-3.707,11.785-9.774c1.896-2.275,4.767-5.72,5.817-6.239c2.93-1.008,6.017-1.469,9.11-1.367
	c14.063,0,35.045,6.448,45.059,12.517c6.096,3.76,12.538,14.93,10.711,34.219c-0.961,10.049-4.721,19.244-10.583,25.881
	c-5.623,6.367-12.448,9.518-19.215,8.871h-0.218C120.106,117.056,65.374,114.372,32.479,82.101z M9.447,77.32
	c-2.558-4.637-3.76-10.733-3.412-17.185c0.729-12.299,7.292-22.387,14.445-22.387h0.451c7.329,0.437,12.907,11.411,12.156,23.966
	c-0.377,6.434-2.285,12.343-5.376,16.642c-2.788,3.895-6.171,5.885-9.517,5.729c-3.347-0.157-6.466-2.577-8.779-6.766L9.447,77.32
	L9.447,77.32z" class="color c1"/>
</svg>