<svg version="1.1" id="图层_1" x="0px" y="0px" width="32.313px" height="65.962px" viewBox="0 0 32.313 65.962" enable-background="new 0 0 32.313 65.962" xml:space="preserve" xmlns="http://www.w3.org/2000/svg" xmlns:xlink="http://www.w3.org/1999/xlink" xmlns:xml="http://www.w3.org/XML/1998/namespace">
  <path fill="#C2C2C2" d="M3.832,40.313l-3.789,5.953c0,0-0.682,9.53,3.399,19.696c0,0,0.798-10.644,5.181-10.647l4.358,3.174
	l3.713-0.131l3.327-0.115l4.11-3.481c0.711-0.052,1.344,0.206,1.911,0.638c2.926,2.225,4.039,9.601,4.039,9.601
	c3.324-10.438,1.949-19.891,1.949-19.891l-4.212-5.659C32.072,15.334,14.377,0.013,14.377,0.013L14.357,0
	C14.357,0-2.171,16.57,3.832,40.313z M21.435,25.646c-2.148,3.375-6.627,4.376-10.005,2.226c-3.376-2.149-4.369-6.633-2.221-10.008
	c2.149-3.377,6.629-4.368,10.005-2.219C22.591,17.796,23.584,22.27,21.435,25.646z" class="color c1"/>
</svg>