<svg version="1.1" id="图层_1" x="0px" y="0px" width="35.986px" height="41.444px" viewBox="0 0 35.986 41.444" enable-background="new 0 0 35.986 41.444" xml:space="preserve" xmlns="http://www.w3.org/2000/svg" xmlns:xlink="http://www.w3.org/1999/xlink" xmlns:xml="http://www.w3.org/XML/1998/namespace">
  <path fill="#EE8A2E" d="M10.133,41.444C7.37,35.695,8.842,32.402,10.964,29.3c2.326-3.398,2.922-6.761,2.922-6.761
	s1.831,2.373,1.098,6.091c3.229-3.595,3.837-9.32,3.351-11.514c7.296,5.101,10.416,16.145,6.214,24.328
	c22.355-12.65,5.56-31.575,2.637-33.708c0.974,2.133,1.162,5.74-0.81,7.491C23.042,2.588,14.801,0,14.801,0
	c0.976,6.517-3.534,13.646-7.879,18.971c-0.156-2.601-0.316-4.394-1.683-6.879c-0.306,4.72-3.916,8.569-4.894,13.296
	C-0.978,31.799,1.337,36.488,10.133,41.444z" class="color c1"/>
</svg>