<svg version="1.1" id="图层_1" x="0px" y="0px" width="44.396px" height="65.449px" viewBox="0 0 44.396 65.449" enable-background="new 0 0 44.396 65.449" xml:space="preserve" xmlns="http://www.w3.org/2000/svg" xmlns:xlink="http://www.w3.org/1999/xlink" xmlns:xml="http://www.w3.org/XML/1998/namespace">
  <path fill="#020202" d="M22.197,0C9.957,0,0,9.959,0,22.199c0,10.587,7.451,19.46,17.383,21.665V65.45h8.095V44.152
	c10.691-1.59,18.919-10.827,18.919-21.953C44.396,9.959,34.437,0,22.197,0z" class="color c1"/>
  <path fill="#6DE1FF" d="M22.197,6.01c-8.926,0-16.189,7.262-16.189,16.189c0,8.926,7.265,16.189,16.189,16.189
	c8.928,0,16.189-7.265,16.189-16.189C38.387,13.271,31.125,6.01,22.197,6.01z" class="color c2"/>
  <circle fill="#FFFFFF" cx="15.629" cy="24.332" r="5.631" class="color c3"/>
</svg>