<svg version="1.1" id="图层_1" x="0px" y="0px" width="162.559px" height="168.392px" viewBox="0 0 162.559 168.392" enable-background="new 0 0 162.559 168.392" xml:space="preserve" xmlns="http://www.w3.org/2000/svg" xmlns:xlink="http://www.w3.org/1999/xlink" xmlns:xml="http://www.w3.org/XML/1998/namespace">
  <g>
    <path fill="#CCCCCC" d="M122.475,140.281c-1.828-0.629-2.539-0.564-4.439-0.533c0.093,0-0.193-1.994-0.231-2.166
		c-0.248-1.117-0.713-2.18-1.331-3.141c-1.365-2.061-3.465-3.525-5.88-4.078c3.062-2.027,1.462-6.469-1.142-9.029
		c-2.055-2.02-5.421-2.205-7.679-0.414c-0.377-2.268-1.584-4.365-3.361-5.822c-0.883-0.727-1.897,0.713-2.979,0.346
		c-0.662-0.225-1.348-0.375-2.043-0.451c-0.239-0.133-0.467-0.553-0.645-0.764c-0.222-0.264,0.755-2.301,0.875-2.813
		c0.154-0.619,0.075-2.318,0.622-2.689c0.34-0.23-0.368-2.262-0.452-2.682c-0.216-1.078-0.55-2.135-1.007-3.137
		c-0.854-1.869-1.155-4.531-2.765-5.807c-0.796-0.646-1.688-1.188-2.617-1.619c-0.555-0.264-1.117-0.213-0.941-0.881
		c0.146-0.557-1.675-0.104-1.475-0.641c1.898-5.109,5.157-9.74,8.146-14.256c0.872-1.316,1.748-2.629,2.618-3.947
		c-2.254-1-4.509-2-6.763-3c-0.389-0.174-0.776-0.346-1.165-0.518c-0.218-0.098-0.284,0.168-0.405,0.346
		c-0.63,0.928-1.236,1.871-1.829,2.822c-2.353,3.777-4.484,7.691-6.413,11.699c-1.3,2.701-2.504,5.449-3.6,8.238
		c-0.537,1.369-1.049,2.748-1.532,4.135c-0.274,0.789-0.24,0.676,0.351,1.195c0.482,0.424,0.93,0.891,1.341,1.383
		c1.292,1.525,2.21,3.361,2.686,5.299c0.141,0.574,0.677,2.264,0.255,2.75c-0.154,0.178-0.463,0.395-0.229,0.602
		c0.258,0.229,0.289,0.777,0.259,1.082c-0.378,3.744-2.299,7.088-5.326,9.326c2.229,0.957,4.04,2.771,5.001,4.996
		c0.401,0.936,0.654,1.941,0.737,2.955c0.022,0.291,0.297,0.707,0.167,0.971c-0.314,0.641-0.259,1.564-0.438,2.262
		c0.965-0.24,1.989-0.229,2.948,0.031c0.267,0.074,0.577,0.85,1.061,0.523c0.257-0.174,1.198,0.664,1.374,0.828
		c0.646,0.6,1.161,1.352,1.472,2.178c1.289,3.391-0.871,7.246-4.479,7.846c3.557,2.67,4.811,7.572,2.962,11.621
		c3.154,0.91,5.78,3.125,7.276,6.037c0.61,1.219,0.989,2.52,1.168,3.869c0.028,0.238,0.184,0.779-0.018,0.961
		c-0.158,0.141-0.276,0.387-0.276,0.59c0,0.148,0.146,0.369,0.223,0.502c0.158,0.27,0.065,0.805,0.022,1.105
		c9.317-1.648,18.342-4.875,26.594-9.504c1.955-1.098,3.867-2.271,5.729-3.52c0.929-0.623,1.845-1.266,2.749-1.924
		c0.539-0.393,1.835-1.465,1.766-2.156c-0.056-0.557-0.15-1.107-0.283-1.648C128.176,145.761,126.258,141.566,122.475,140.281
		C122.378,140.248,127.185,141.882,122.475,140.281z" class="color c1"/>
    <path fill="#32424A" d="M77.712,0c-26.709,0-50.53,12.343-66.083,31.636c-2.601,3.227-4.971,6.646-7.084,10.234
		c6.599,0.693,11.743,6.275,11.743,13.059c0,0.873-0.087,1.727-0.251,2.553c1.002-0.357,2.08-0.555,3.203-0.555
		c3.853,0,7.168,2.287,8.675,5.572c1.064-1.146,2.582-1.867,4.269-1.867c3.223,0,5.834,2.611,5.834,5.834
		c0,0.783-0.156,1.527-0.437,2.211c0.192-0.012,0.384-0.02,0.578-0.02c3.973,0,7.376,2.43,8.812,5.883
		c1.027-0.377,2.139-0.586,3.297-0.586c4.9,0,8.936,3.697,9.476,8.453c1.928-0.826,3.854-1.77,5.731-2.77
		c9.416-5.014,17.511-11.434,17.511-11.434l9.68,8.178c-4.762,7.209-7.133,14.41-8.314,19.662c0.297,0.107,0.585,0.229,0.868,0.355
		c0.062,0.027,0.122,0.055,0.182,0.082c0.275,0.129,0.545,0.264,0.808,0.408c0.04,0.021,0.077,0.045,0.117,0.066
		c0.239,0.137,0.473,0.279,0.701,0.428c0.044,0.029,0.089,0.057,0.133,0.086c0.246,0.164,0.484,0.338,0.718,0.518
		c0.047,0.037,0.094,0.074,0.141,0.113c0.222,0.176,0.438,0.357,0.646,0.545c0.016,0.014,0.031,0.027,0.047,0.041
		c0.218,0.201,0.427,0.408,0.63,0.621c0.045,0.047,0.088,0.094,0.132,0.141c0.198,0.215,0.392,0.432,0.575,0.658
		c0.019,0.025,0.035,0.049,0.054,0.072c0.17,0.213,0.331,0.43,0.486,0.652c0.033,0.047,0.068,0.094,0.101,0.143
		c0.162,0.236,0.315,0.479,0.461,0.725c0.029,0.049,0.056,0.098,0.083,0.146c0.132,0.229,0.257,0.461,0.373,0.695
		c0.018,0.037,0.037,0.072,0.055,0.107c0.125,0.258,0.24,0.521,0.348,0.787c0.026,0.061,0.05,0.123,0.074,0.184
		c0.104,0.271,0.204,0.545,0.292,0.82c0.005,0.016,0.008,0.031,0.014,0.047c0.082,0.266,0.154,0.535,0.22,0.807
		c0.016,0.064,0.032,0.129,0.046,0.193c0.064,0.277,0.119,0.559,0.164,0.842c0.009,0.053,0.014,0.104,0.022,0.156
		c0.038,0.256,0.067,0.514,0.089,0.771c0.005,0.055,0.012,0.107,0.016,0.162c0.021,0.287,0.032,0.576,0.033,0.867
		c0,0.027,0.003,0.055,0.003,0.084c0,0.088-0.003,0.178-0.004,0.266c-0.002,0.063-0.002,0.123-0.004,0.184
		c-0.007,0.182-0.017,0.363-0.029,0.545c-0.002,0.016-0.002,0.031-0.004,0.047c-0.016,0.199-0.037,0.398-0.062,0.598
		c-0.008,0.055-0.016,0.107-0.023,0.162c-0.021,0.143-0.042,0.287-0.067,0.432c-0.012,0.068-0.024,0.139-0.038,0.207
		c-0.025,0.133-0.052,0.264-0.081,0.395c-0.016,0.072-0.031,0.143-0.049,0.213c-0.032,0.137-0.068,0.273-0.106,0.412
		c-0.017,0.061-0.032,0.121-0.05,0.182c-0.057,0.197-0.117,0.395-0.184,0.59c-0.179,0.527-0.392,1.031-0.628,1.52l0.737,0.873
		c0.682,0.074,1.365,0.221,2.043,0.451c3.445,1.172,5.783,4.119,6.341,7.477c0.026-0.021,0.053-0.041,0.079-0.061
		c0.004-0.004,0.008-0.006,0.012-0.01c0.009-0.008,0.02-0.016,0.029-0.021c0.018-0.014,0.036-0.023,0.054-0.037
		c0.088-0.064,0.18-0.127,0.271-0.186c0.029-0.02,0.058-0.037,0.088-0.057c0.122-0.076,0.245-0.146,0.372-0.213
		c0.002-0.002,0.003-0.002,0.005-0.002c0.123-0.064,0.248-0.123,0.375-0.178c0.036-0.016,0.073-0.031,0.109-0.045
		c0.098-0.041,0.196-0.078,0.295-0.113c0.039-0.012,0.077-0.027,0.116-0.039c0.12-0.039,0.243-0.076,0.365-0.107
		c0.014-0.004,0.027-0.008,0.042-0.012c0.137-0.033,0.275-0.061,0.414-0.084c0.039-0.008,0.078-0.014,0.118-0.018
		c0.102-0.016,0.204-0.029,0.308-0.039c0.047-0.004,0.094-0.008,0.141-0.012c0.105-0.008,0.213-0.002,0.319-0.002
		c0.029,0,0.059,0.008,0.087,0.008c0.002,0,0.004,0,0.005,0c0.008,0,0.016-0.012,0.024-0.01c0.139,0,0.278-0.002,0.417,0.01
		c0.032,0.004,0.065,0.004,0.098,0.008c0.109,0.01,0.221,0.023,0.331,0.039c0.045,0.008,0.09,0.014,0.135,0.021
		c0.102,0.018,0.204,0.039,0.305,0.063c0.044,0.01,0.088,0.02,0.131,0.029c0.128,0.033,0.256,0.07,0.382,0.113
		c0.012,0.004,0.024,0.006,0.036,0.01c0.005,0.002,0.011,0.002,0.016,0.004c0.175,0.061,0.342,0.129,0.508,0.203
		c0.051,0.023,0.101,0.049,0.151,0.072c0.113,0.055,0.225,0.113,0.333,0.174c0.054,0.029,0.106,0.061,0.158,0.092
		c0.107,0.066,0.211,0.135,0.313,0.205c0.043,0.031,0.088,0.061,0.13,0.092c0.14,0.104,0.275,0.211,0.405,0.326
		c0.008,0.008,0.017,0.016,0.024,0.023c0.12,0.109,0.235,0.223,0.345,0.338c0.038,0.041,0.074,0.082,0.109,0.125
		c0.079,0.088,0.156,0.18,0.229,0.271c0.038,0.047,0.075,0.096,0.109,0.145c0.071,0.096,0.139,0.195,0.204,0.297
		c0.028,0.043,0.058,0.086,0.086,0.131c0.087,0.146,0.17,0.293,0.245,0.443c0.011,0.023,0.019,0.045,0.03,0.066
		c0.063,0.133,0.121,0.268,0.174,0.402c0.021,0.055,0.039,0.109,0.06,0.164c0.039,0.107,0.074,0.217,0.106,0.328
		c0.017,0.059,0.034,0.117,0.049,0.18c0.031,0.115,0.056,0.232,0.079,0.35c0.01,0.053,0.021,0.104,0.03,0.154
		c0.027,0.17,0.049,0.338,0.062,0.51c0.002,0.029,0.002,0.057,0.004,0.086c0.007,0.117,0.013,0.236,0.013,0.355
		c0,0.025-0.003,0.053-0.003,0.08c-0.001,0.061-0.005,0.119-0.008,0.18c-0.005,0.117-0.015,0.238-0.027,0.357
		c-0.006,0.063-0.015,0.125-0.022,0.188c-0.018,0.123-0.041,0.248-0.066,0.371c-0.012,0.055-0.021,0.109-0.034,0.164
		c-0.043,0.178-0.091,0.354-0.15,0.529c-0.433,1.271-1.265,2.293-2.304,2.98c0.325,0.074,0.65,0.164,0.976,0.275
		c1,0.34,1.907,0.83,2.705,1.436c0.154,0.119,0.305,0.24,0.451,0.367c0.004,0.004,0.008,0.006,0.012,0.01
		c0.131,0.113,0.258,0.229,0.382,0.35c0.028,0.027,0.055,0.055,0.084,0.084c0.098,0.098,0.196,0.197,0.29,0.297
		c0.006,0.008,0.013,0.014,0.019,0.021c0.042,0.045,0.08,0.092,0.121,0.139c0.071,0.08,0.143,0.16,0.211,0.242
		c0.05,0.061,0.097,0.123,0.145,0.184c0.062,0.078,0.123,0.156,0.183,0.236c0.048,0.064,0.094,0.131,0.14,0.197
		c0.056,0.08,0.109,0.158,0.162,0.24c0.045,0.068,0.089,0.139,0.133,0.209c0.05,0.08,0.099,0.162,0.146,0.242
		c0.041,0.072,0.081,0.145,0.12,0.217c0.046,0.084,0.09,0.168,0.132,0.252c0.038,0.072,0.074,0.146,0.109,0.223
		c0.041,0.086,0.079,0.172,0.117,0.258c0.033,0.076,0.065,0.15,0.097,0.227c0.037,0.09,0.071,0.18,0.104,0.27
		c0.028,0.076,0.057,0.152,0.084,0.229c0.031,0.092,0.061,0.186,0.089,0.279c0.024,0.076,0.049,0.15,0.07,0.229
		c0.027,0.098,0.052,0.197,0.077,0.297c0.018,0.072,0.038,0.145,0.055,0.219c0.024,0.111,0.045,0.223,0.065,0.336
		c0.013,0.063,0.026,0.125,0.036,0.188c0.029,0.174,0.054,0.348,0.072,0.521c0.008,0.066,0.011,0.133,0.018,0.199
		c0.009,0.111,0.02,0.223,0.025,0.334c0.005,0.086-0.115,0.682-0.113,0.768c0.002,0.078,0.391-0.078,0.516-0.109
		c0.033-0.008,0.26-0.094,0.26-0.059c0-0.063,0.566-0.053,1.02-0.064c0.018,0,0.024,0,0.032,0.002
		c-0.025-0.006-0.054-0.012-0.054-0.012c0.003,0,0.005,0,0.008,0c0.019,0,0.038-0.02,0.057-0.02c0.048,0.002,0.094-0.01,0.142-0.01
		c0.212,0.004,0.424,0.01,0.637,0.025c0.044,0.002,0.087,0.004,0.13,0.008c0.269,0.021,0.536,0.051,0.805,0.092
		c0.017,0.002,0.034,0.006,0.052,0.008c0.267,0.041,0.531,0.094,0.797,0.156c0.028,0.006,0.058,0.012,0.085,0.018
		c0.264,0.063,0.527,0.135,0.79,0.217c0.024,0.01,0.051,0.014,0.075,0.023c0.008,0.002,0.014,0.002,0.021,0.006
		c0.023,0.008,0.046,0.014,0.069,0.023c0.032,0.01,0.064,0.02,0.096,0.031c0.01,0.002,0.02,0.006,0.029,0.01
		c4.71,1.602,7.745,5.885,7.988,10.566c20.697-15.471,34.096-40.172,34.096-68C162.559,37.986,124.571,0,77.712,0z" class="color c2"/>
    <path fill="#CCCCCC" d="M29.34,89.695l-0.321-0.797c-0.105-0.293-0.269-0.514-0.434-0.75c-0.167-0.232-0.333-0.477-0.518-0.709
		l-0.651-0.598c-0.22-0.209-0.453-0.406-0.723-0.541l-0.802-0.457c-0.271-0.154-0.577-0.213-0.874-0.32
		c-0.301-0.08-0.602-0.215-0.916-0.244l-0.957-0.09c-0.325-0.043-0.645-0.021-0.967,0.021c-0.232,0.025-0.467,0.061-0.7,0.096
		l-0.036-0.115l-0.069-0.221l-0.129-0.299c-0.179-0.395-0.366-0.814-0.568-1.133c-0.385-0.689-0.858-1.336-1.41-1.904
		c-0.54-0.58-1.149-1.096-1.808-1.537c-0.668-0.426-1.37-0.797-2.11-1.076c-0.745-0.26-1.512-0.467-2.295-0.557
		c-0.388-0.068-0.783-0.068-1.176-0.076c-0.392-0.02-0.782,0.031-1.171,0.057c-0.244,0.023-0.481,0.078-0.721,0.123
		c-0.133-0.182-0.267-0.363-0.435-0.518l-0.644-0.623l-0.718-0.525c-0.229-0.18-0.507-0.297-0.765-0.43
		c-0.263-0.127-0.514-0.266-0.795-0.342c-0.274-0.092-0.55-0.168-0.82-0.244l-0.838-0.119c-0.273-0.045-0.555-0.027-0.829-0.016
		c-0.296,0.02-0.494,0.002-0.857,0.068l-0.686,0.172c-0.239,0.07-0.522,0.191-0.767,0.289c-0.257,0.092-0.479,0.223-0.693,0.359
		S0.711,76.9,0.53,77.08C0.343,77.246,0.165,77.414,0,77.585l0.71-0.092c0.221-0.047,0.467-0.008,0.684-0.025
		c0.221-0.012,0.437-0.014,0.639,0.027c0.21,0.033,0.376,0.045,0.594,0.092l0.691,0.148l0.51,0.207c0.367,0.117,0.683,0.359,1,0.518
		l0.426,0.342c0.148,0.092,0.264,0.236,0.386,0.359c0.258,0.229,0.438,0.531,0.646,0.781c0.148,0.305,0.335,0.564,0.433,0.873
		c0.057,0.148,0.133,0.283,0.153,0.443c0.032,0.152,0.069,0.301,0.116,0.443l0.538,1.645l2.056-0.264
		c0.464-0.061,0.922-0.08,1.373-0.064c0.226,0.023,0.449,0.01,0.67,0.061c0.222,0.031,0.44,0.068,0.655,0.125
		c0.436,0.08,0.853,0.238,1.253,0.414c0.407,0.166,0.788,0.385,1.151,0.625c0.166,0.143,0.359,0.25,0.522,0.395
		c0.161,0.146,0.343,0.273,0.484,0.439c0.156,0.152,0.305,0.313,0.438,0.484c0.151,0.16,0.279,0.338,0.401,0.521
		c0.148,0.189,0.21,0.332,0.312,0.486l0.077,0.111l0.096,0.209l0.192,0.42l0.048,0.105l0.013,0.027l0.006,0.012l0.001,0.004
		c0.002,0.006-0.001-0.004-0.006-0.018l0.041,0.117l0.119,0.316l0.197,0.662l1.028,3.445l2.522-1.977
		c0.09-0.07,0.174-0.152,0.256-0.246c0.058-0.049,0.047-0.098,0.16-0.156l0.327-0.188l0.326-0.191l0.163-0.107l0.041-0.053
		l0.021-0.07l0.007-0.092c0.13,0.012,0.261,0.111,0.392,0.051c0.161-0.082,0.328-0.154,0.504-0.168l0.534-0.115
		c0.184-0.059,0.364-0.02,0.555-0.039c0.187,0.004,0.39-0.035,0.579-0.004l0.587,0.086c0.209,0.012,0.399,0.076,0.593,0.145
		l0.608,0.197c0.19,0.092,0.376,0.201,0.574,0.305c0.19,0.109,0.425,0.199,0.575,0.34l0.543,0.416
		c0.201,0.129,0.354,0.361,0.53,0.547c0.17,0.197,0.341,0.393,0.524,0.584c-0.019-0.264-0.05-0.521-0.081-0.779
		C29.45,90.207,29.466,89.949,29.34,89.695z M17.236,87.355l0.001,0.004l0.013,0.037C17.233,87.347,17.217,87.3,17.236,87.355z
		 M22.322,88.693h0.004v0.002c-0.003,0-0.003-0.002-0.006-0.002H22.322z" class="color c1"/>
    <path fill="#CCCCCC" d="M55.81,124.027c-0.153-0.527-0.342-1.059-0.544-1.594c-0.273-0.49-0.563-0.992-0.888-1.475
		c-0.364-0.408-0.736-0.832-1.142-1.223l0.129-0.336c0.167-0.582,0.26-1.189,0.374-1.793l0.041-0.229l0.021-0.311l0.025-0.377
		c0.013-0.262,0.05-0.467,0.021-0.842l-0.066-1.016l-0.15-0.922c-0.118-0.609-0.276-1.221-0.508-1.803
		c-0.212-0.59-0.488-1.152-0.787-1.707c-0.317-0.539-0.656-1.072-1.063-1.551c-0.381-0.502-0.834-0.939-1.28-1.383
		c-0.48-0.406-0.967-0.805-1.503-1.137c-0.516-0.361-1.087-0.633-1.652-0.904c-0.581-0.244-1.171-0.449-1.781-0.602
		c-0.603-0.168-1.226-0.252-1.843-0.311l-0.931-0.02l-0.059,0.064l-0.184,0.133h-0.023l-0.096-0.127l-0.189-0.123l-0.38,0.027
		c-0.267,0.023-0.477,0.02-0.792,0.072l-1.005,0.189c-0.416,0.07-0.779,0.186-1.132,0.311c-0.076-0.191-0.161-0.381-0.239-0.568
		c-0.253-0.535-0.55-1.041-0.903-1.502c-0.355-0.457-0.747-0.877-1.176-1.244c-0.438-0.361-0.897-0.68-1.383-0.939l-0.746-0.344
		c-0.257-0.092-0.516-0.172-0.771-0.248c-0.523-0.127-1.043-0.207-1.559-0.23c-0.521,0.002-1.026,0.039-1.515,0.148l0.689,0.26
		l0.646,0.311l0.602,0.346l0.551,0.395l0.497,0.438l0.448,0.465c0.274,0.33,0.526,0.658,0.735,1.012
		c0.202,0.355,0.383,0.711,0.517,1.08c0.127,0.375,0.236,0.74,0.298,1.113c0.019,0.191,0.059,0.369,0.059,0.559
		c0.002,0.178,0.026,0.385,0.006,0.531c-0.02,0.18-0.03,0.246-0.06,0.504l-0.092,0.361l-0.106,0.154l0.178,0.029l-0.866,2.848
		l3.695-0.971c0.4-0.104,0.771-0.287,1.168-0.355c0.39-0.047,0.806-0.234,1.126-0.211c0.169-0.008,0.334-0.111,0.499-0.129
		c0.183-0.008,0.485-0.16,0.722-0.16h0.378l0.153,0.127c-0.015-0.057,0.046-0.127,0.004-0.127h0.005h0.009l0.031,0.168
		c-0.001,0-0.004,0-0.005,0l0.006,0.006l0.004,0.023l0.021,0.01l0.057,0.078l0.011-0.043l0.486,0.242
		c0.375,0.088,0.754,0.156,1.111,0.289c0.365,0.113,0.712,0.271,1.052,0.438c0.331,0.182,0.68,0.338,0.98,0.57
		c0.323,0.201,0.599,0.463,0.895,0.697c0.268,0.268,0.556,0.518,0.787,0.82c0.263,0.277,0.45,0.611,0.676,0.916
		c0.199,0.324,0.394,0.654,0.542,1.006c0.093,0.17,0.15,0.352,0.215,0.531s0.154,0.355,0.193,0.543l0.158,0.559l0.096,0.488
		c0.045,0.127,0.065,0.426,0.084,0.668l0.044,0.379l0.041,0.094l0.071,0.047c-0.001,0.027,0.138-0.209,0.138-0.105v0.004v0.01v0.018
		l-0.146,0.146l-0.186,1.199l-0.22,1.199l-0.341,1.857l1.33,0.592c0.317,0.141,0.646,0.271,0.992,0.402
		c0.298,0.195,0.6,0.396,0.929,0.59c0.272,0.248,0.533,0.52,0.836,0.777c0.232,0.305,0.447,0.629,0.713,0.949
		c0.172,0.355,0.367,0.723,0.551,1.107l0.165,0.607c0.052,0.205,0.14,0.42,0.186,0.629c0.042,0.408,0.104,0.842,0.141,1.314
		c-0.035,0.486-0.088,0.969-0.105,1.461c0.282-0.404,0.529-0.82,0.793-1.232c0.106-0.221,0.172-0.475,0.26-0.721l0.245-0.775
		c0.094-0.518,0.124-1.047,0.163-1.592C55.95,125.128,55.88,124.583,55.81,124.027z" class="color c1"/>
    <path fill="#CCCCCC" d="M46.634,147.759c-0.301-0.473-0.627-0.949-0.98-1.41c-0.3-0.295-0.624-0.58-0.947-0.863
		c0.063-0.326,0.1-0.656,0.122-0.99l0.032-0.697l-0.018-0.174l-0.051-0.088l-0.107-0.043v-0.021v-0.012l0.105-0.135l0.095-0.275
		c-0.009-0.184-0.022-0.365-0.041-0.549c-0.009-0.158-0.073-0.482-0.112-0.715c-0.048-0.25-0.092-0.514-0.15-0.75
		c-0.063-0.225-0.131-0.447-0.206-0.668c-0.13-0.447-0.343-0.863-0.525-1.289c-0.201-0.416-0.456-0.807-0.7-1.193
		c-0.277-0.367-0.526-0.754-0.857-1.072c-0.604-0.684-1.323-1.248-2.077-1.719c-0.377-0.238-0.788-0.42-1.178-0.613
		c-0.423-0.141-0.818-0.316-1.245-0.41c-0.427-0.09-0.837-0.197-1.27-0.215c-0.421-0.053-0.845-0.047-1.263-0.016
		c-0.412,0.008-0.829,0.127-1.222,0.197c-0.395,0.094-0.78,0.258-1.143,0.414l1.058,0.5c0.333,0.18,0.655,0.332,0.952,0.537
		c0.604,0.363,1.143,0.768,1.624,1.193c0.247,0.201,0.462,0.443,0.685,0.65c0.199,0.244,0.42,0.445,0.595,0.693
		c0.374,0.467,0.697,0.951,0.967,1.449c0.15,0.238,0.236,0.514,0.375,0.75l0.291,0.771c0.071,0.264,0.182,0.512,0.22,0.781
		c0.024,0.135,0.053,0.264,0.09,0.393l0.045,0.332c0.014,0.131,0.033,0.164,0.041,0.373c0.008,0.184-0.008,0.367,0.011,0.549
		l-0.027,0.207l0.101,0.043l-0.006,0.102l-0.017,0.402c-0.019,0.268,0.028,0.543-0.046,0.807c-0.043,0.27-0.091,0.535-0.109,0.816
		l-0.148,2.299l1.581,0.617c0.266,0.104,0.535,0.205,0.831,0.279c0.261,0.133,0.514,0.287,0.806,0.414
		c0.248,0.176,0.484,0.377,0.768,0.561c0.227,0.227,0.441,0.473,0.711,0.713c0.181,0.281,0.396,0.568,0.62,0.875
		c0.139,0.324,0.336,0.666,0.505,1.027l0.178,0.537c0.065,0.191,0.152,0.389,0.203,0.609c0.036,0.463,0.104,0.934,0.191,1.408
		c0.303-0.375,0.589-0.756,0.841-1.146c0.204-0.434,0.38-0.945,0.529-1.482c0.056-0.26,0.062-0.512,0.091-0.777
		c0.025-0.264,0.042-0.531,0.051-0.803c-0.045-0.527-0.138-1.068-0.242-1.617C47.083,148.8,46.865,148.281,46.634,147.759z" class="color c1"/>
  </g>
</svg>