<svg version="1.1" id="图层_1" x="0px" y="0px" width="97.326px" height="129.999px" viewBox="0 0 97.326 129.999" enable-background="new 0 0 97.326 129.999" xml:space="preserve" xmlns="http://www.w3.org/2000/svg" xmlns:xlink="http://www.w3.org/1999/xlink" xmlns:xml="http://www.w3.org/XML/1998/namespace">
  <path fill="#CCCCCC" d="M31.133,125.641l-19.218-14.525l54.968-2.994l10.954,8.279l7.362-2.158l-10.553-7.977
	c-2.736-2.072-13.87-3.279-24.738-2.688l-34.521,1.883c-10.865,0.592-17.513,2.771-14.769,4.846l22.056,16.666
	c1.503,1.137,5.531,2.01,10.643,2.473l16.452-4.822L31.133,125.641z M26.08,107.555l19.742-1.082
	c1.091-0.057,2.211,0.074,2.504,0.297c0.293,0.221-0.352,0.447-1.443,0.51l-19.744,1.072c-1.09,0.063-2.208-0.072-2.503-0.293
	C24.343,107.842,24.99,107.61,26.08,107.555z" class="color c1"/>
  <path fill="#1E2126" d="M96.709,96.118l-6.145-22.361c-0.68-2.6-3.338-4.158-5.938-3.479c-2.492,0.65-4.021,3.119-3.547,5.611
	l-0.023,0.002l5.045,18.783l-54.968,14.768L11.915,37.887l54.968-14.764l4.574,15.587c0.778,2.552,3.469,4.006,6.032,3.247
	c2.578-0.762,4.049-3.469,3.287-6.046l-2.669-9.035L74.647,14C71.911,3.791,60.777-2.179,49.909,0.742l-34.521,9.272
	C4.522,12.93-2.126,23.673,0.619,33.882l22.056,82.12c2.743,10.207,13.876,16.174,24.744,13.256l34.52-9.27
	C92.8,117.069,99.447,106.325,96.709,96.118z M26.08,20.326l19.742-5.305c1.091-0.291,2.211,0.356,2.504,1.448
	c0.293,1.088-0.352,2.208-1.443,2.504l-19.744,5.3c-1.09,0.292-2.208-0.353-2.503-1.442C24.343,21.741,24.99,20.618,26.08,20.326z" class="color c2"/>
</svg>