<svg version="1.1" id="图层_1" x="0px" y="0px" width="97.747px" height="87.242px" viewBox="0 0 97.747 87.242" enable-background="new 0 0 97.747 87.242" xml:space="preserve" xmlns:xml="http://www.w3.org/XML/1998/namespace" xmlns="http://www.w3.org/2000/svg" xmlns:xlink="http://www.w3.org/1999/xlink">
  <path fill="#11607E" d="M53.504,9.112c-3.094-3.077-3.853-4.13-4.511-6.263c0.009-0.29,0.063-0.686,0.011-0.972
	c0.504,0.253,1.178,0.592,1.684,0.841c0.689,0.552,1.721,1.281,2.076,2.09C53.601,6.71,53.598,6.801,53.504,9.112 M63.518,6.808
	c-5.042-1.85-7.467-2.687-12.352-4.26c-0.647-0.204-1.502-0.511-2.163-0.67c0.879,0.082,2.052,0.184,2.931,0.275
	C57.443,3.194,59.502,4.021,63.518,6.808 M56.944,1.574c3.957,0.576,4.032,0.587,7.9,1.769c-4.502-0.792-7.133-1.077-12.799-1.38
	c-0.912-0.028-2.129-0.1-3.042-0.085C51.715,1.513,54.37,1.418,56.944,1.574 M40.909,8.68c1.264-3.271,2.251-4.295,5.867-6.087
	c0.668-0.215,1.559-0.504,2.228-0.715c-0.228,0.28-0.568,0.63-0.741,0.947C46.287,4.821,45.05,5.807,40.909,8.68 M33.058,5.76
	c4.814-2.493,7.112-3.171,12.94-3.814c0.901-0.021,2.103-0.059,3.006-0.067c-0.771,0.152-1.807,0.319-2.567,0.517
	C40.895,3.607,38.27,4.269,33.058,5.76 M34.461,2.358c5.172-1.265,7.403-1.555,12.226-1.037c0.695,0.166,1.624,0.382,2.317,0.557
	c-0.963-0.047-2.246-0.132-3.209-0.128C40.478,1.689,38.146,1.816,34.461,2.358 M44.841,0.105l0.06-0.005
	c0.448-0.031,1.045-0.075,1.494-0.1c2.207,0.046,2.319,0.224,2.704,1.116c-0.033,0.228-0.114,0.531-0.095,0.762
	c-0.466-0.199-1.077-0.494-1.56-0.646C44.948,0.18,44.846,0.108,44.841,0.105 M70.122,21.921c-6.894-4.742-8.437-5.826-12.387-8.836
	c0.314-3.965-0.094-5.32-2.431-8.059c11.204,5.354,11.204,5.354,12.29,5.879C69.893,14.995,70.317,16.849,70.122,21.921
	 M82.245,15.595c-4.244-2.47-6.418-3.548-12.238-6.066C66.15,6.09,64.161,4.954,58.804,3.137c5.688,1.038,8.139,1.631,12.481,3.023
	C76.616,9.417,78.459,11.004,82.245,15.595 M70.848,5.148l-1.124-0.449l-1.968-0.862C68.812,4.229,69.84,4.665,70.848,5.148
	 M44.82,23.887c-3.063-4.908-3.835-6.73-4.589-10.835c4.07-3.405,5.547-4.864,7.53-7.438c0.737,2.831,1.517,4.156,4.636,7.878
	C50.379,17.294,48.892,19.335,44.82,23.887 M22.613,20.225c1.077-5.041,2.027-6.956,5.349-10.78
	c5.039-1.995,7.608-2.938,13.27-4.942c-3.482,2.526-4.42,3.825-5.576,7.723C34.436,12.986,34.436,12.986,22.613,20.225
	 M16.284,12.82c4.678-4.204,6.777-5.617,12.482-8.399c3.597-1.089,5.768-1.498,11.058-2.084C34.082,3.68,31.82,4.631,27.09,7.691
	C21.796,9.683,19.776,10.643,16.284,12.82 M41.318,0.529c0.782-0.041,0.865-0.046,1.989,0.112C39.882,0.8,37.674,0.984,32.13,2.902
	C37.911,0.936,40.986,0.566,41.318,0.529 M20.726,87.242C14.601,82.417,12.617,80.33,8.5,75.151
	c-0.16-3.116,0.252-4.458,2.589-8.446c4.244,5.887,6.522,8.465,12.184,13.785C21.021,83.798,20.616,84.871,20.726,87.242
	 M61.518,78.421c-6.887-6.116-7.934-7.078-12.464-11.435c5.987-5.944,8.913-9.178,13.212-14.175c9.43,8.665,9.43,8.665,12.91,12.084
	C70.452,70.351,68.027,72.753,61.518,78.421 M26.836,77.276c-5.688-5.592-7.966-8.256-12.194-14.253
	c3.801-4.428,5.553-6.242,11.024-11.418c4.161,6.045,6.731,9.268,11.957,14.992C29.91,74.042,29.91,74.042,26.836,77.276
	 M4.83,69.416c-2.359-4.883-3.026-6.403-4.241-12.31C0.391,55.544,0.113,53.464,0,51.896c0.052-2.625,0.092-4.697,2.441-8.587
	c0.726,7.099,1.537,9.978,4.827,17.112C4.907,64.599,4.543,65.943,4.83,69.416 M80.146,59.052
	c-4.259-4.36-5.832-5.768-12.748-11.717c4.388-6.279,5.863-9.052,7.896-14.831c6.256,4.835,8.207,6.468,12.274,10.285
	C85.608,49.451,84.36,52.187,80.146,59.052 M43.442,61.727c-5.795-6.356-7.931-8.956-12.02-14.642
	c6.973-6.402,8.547-7.903,12.941-12.353c4.136,5.06,6.296,7.398,12.165,13.173C51.972,53.057,50.258,54.865,43.442,61.727
	 M10.783,56.653c-3.342-7.18-4.2-9.995-5.109-16.741c3.479-3.442,5.377-5.03,11.274-9.441c0.937,6.039,1.771,8.583,4.958,15.122
	C16.064,50.841,14.298,52.599,10.783,56.653 M0.229,43.351l0.394-2.755c1.075-5.039,1.095-5.136,2.033-7.848
	c1.82-4.611,1.892-4.791,3.261-7.318l1.207-2.078l0.868-1.253c-3.411,5.954-4.325,8.489-5.433,15.072
	C1.256,39.475,0.603,40.63,0.229,43.351 M95.236,32.904c1.453,4.804,1.511,4.991,1.99,7.771c0.511,4.114,0.616,4.969,0.44,9.282
	c-0.854-3.869-1.533-5.429-5.018-9.824c0.102-6.668-0.334-9.24-2.587-15.298c2.589,2.682,3.209,3.45,4.504,6.251L95.236,32.904
	 M61.527,41.59c-5.937-5.426-8.116-7.615-12.285-12.324c4.075-5.024,5.562-7.303,7.583-11.608c3.973,3.471,4.928,4.249,12.559,9.973
	C67.511,32.502,66.185,35.063,61.527,41.59 M27.584,40.668c-3.17-6.238-3.997-8.64-4.924-14.282
	c8.835-6.221,8.835-6.221,12.975-9.282c0.892,4.631,1.711,6.65,4.87,12.011C36.151,33.22,34.702,34.516,27.584,40.668 M5.828,33
	c1.097-6.303,2.012-8.699,5.432-14.247c3.464-2.631,5.481-3.837,10.797-6.444c-3.281,4.464-4.133,6.495-5.062,12.075
	C10.995,28.406,9.327,29.694,5.828,33 M12.14,16.569l0.201-0.226l-0.172,0.192L12.14,16.569 M88.524,35.495
	c-4.113-3.581-6.052-5.083-12.197-9.453c0.094-5.522-0.356-7.573-2.68-12.182c5.841,3.1,7.992,4.382,12.117,7.219
	C88.083,26.729,88.547,29.156,88.524,35.495 M82.163,12.951c3.275,3.252,3.543,3.519,5.467,5.945
	c0.828,1.151,1.947,2.679,2.722,3.868c-1.543-2.104-1.572-2.145-3.647-4.005c-3.781-5.054-5.629-6.856-10.98-10.709
	c0.582,0.35,1.367,0.807,1.921,1.201C79.026,10.327,80.881,11.756,82.163,12.951 M43.282,71.791
	c-8.513,7.847-8.513,7.847-10.859,10.133c0.587,0.478,1.134,0.918,1.653,1.336c4.693-1.184,10.57-2.725,16.909-4.523
	C48.216,76.354,46.455,74.75,43.282,71.791z M96.571,56.391c-0.928-4.117-1.781-5.823-5.082-10.138
	c-1.867,6.922-3.142,9.865-7.169,16.564c1.086,1.456,1.902,2.616,2.546,3.654c2.787-1.227,5.35-2.471,7.598-3.725
	C95.213,60.899,95.836,58.938,96.571,56.391z" class="color c1"/>
</svg>