<svg version="1.1" id="图层_1" x="0px" y="0px" width="74.916px" height="145px" viewBox="0 0 74.916 145" enable-background="new 0 0 74.916 145" xml:space="preserve" xmlns="http://www.w3.org/2000/svg" xmlns:xlink="http://www.w3.org/1999/xlink" xmlns:xml="http://www.w3.org/XML/1998/namespace">
  <g>
    <g>
      <path fill="#FFA439" d="M59.478,1.291C52.642-1.106,45.076-0.128,39.075,3.93c-6.002,4.057-9.729,10.715-10.05,17.952
			c-0.571,0.063-1.132,0.159-1.689,0.267c-0.103,0.02-0.208,0.027-0.31,0.048c-0.684,0.14-1.354,0.315-2.013,0.519
			c-0.208,0.064-0.407,0.148-0.613,0.219c-0.446,0.152-0.892,0.306-1.324,0.485c-0.245,0.103-0.479,0.223-0.72,0.334
			c-0.379,0.175-0.759,0.347-1.126,0.542c-0.251,0.135-0.491,0.284-0.737,0.428c-0.34,0.198-0.681,0.397-1.009,0.614
			c-0.243,0.16-0.477,0.334-0.714,0.503c-0.313,0.225-0.625,0.452-0.926,0.692c-0.229,0.185-0.451,0.379-0.673,0.572
			c-0.287,0.25-0.57,0.503-0.844,0.767c-0.214,0.207-0.422,0.419-0.627,0.635c-0.261,0.273-0.516,0.552-0.763,0.839
			c-0.194,0.226-0.383,0.456-0.568,0.689c-0.235,0.297-0.46,0.6-0.681,0.909c-0.172,0.244-0.343,0.488-0.505,0.739
			c-0.208,0.32-0.403,0.646-0.595,0.978c-0.149,0.257-0.297,0.515-0.437,0.779c-0.18,0.343-0.343,0.693-0.505,1.046
			c-0.122,0.269-0.249,0.535-0.361,0.809c-0.15,0.367-0.281,0.744-0.411,1.121c-0.095,0.274-0.196,0.544-0.28,0.822
			c-0.12,0.399-0.217,0.81-0.314,1.219c-0.063,0.268-0.138,0.531-0.192,0.803c-0.091,0.46-0.152,0.93-0.214,1.399
			c-0.03,0.231-0.076,0.458-0.099,0.691c-0.069,0.708-0.109,1.424-0.109,2.15c-0.012,2.916,0.573,5.802,1.72,8.482
			c-0.151,0.094-0.283,0.211-0.433,0.308c-0.393,0.258-0.77,0.538-1.146,0.816c-0.869,0.64-1.694,1.336-2.471,2.084
			c-0.088,0.087-0.186,0.165-0.273,0.254c-0.454,0.452-0.874,0.932-1.288,1.417c-0.138,0.162-0.276,0.322-0.41,0.489
			c-0.402,0.498-0.788,1.007-1.149,1.535c-0.101,0.147-0.19,0.301-0.288,0.448c-1.046,1.605-1.895,3.331-2.528,5.139
			c-0.151,0.428-0.298,0.855-0.426,1.294c-0.115,0.401-0.219,0.807-0.313,1.216c-0.132,0.56-0.237,1.129-0.329,1.703
			c-0.052,0.331-0.112,0.657-0.151,0.992c-0.033,0.288-0.057,0.578-0.08,0.87c-0.008,0.049-0.037,0.088-0.041,0.138
			C0.004,71.291,0,71.894,0,72.5c0.01,6.951,3.007,13.56,8.227,18.149c-1.07,1.748-1.898,3.632-2.464,5.603
			c-0.032,0.11-0.065,0.222-0.097,0.334c-0.248,0.904-0.442,1.826-0.579,2.756c-0.021,0.154-0.036,0.31-0.056,0.464
			c-0.126,0.962-0.192,1.933-0.198,2.903c-0.047,10.694,7.333,19.99,17.76,22.371c0.068,0.269,0.163,0.523,0.24,0.791
			c0.075,0.258,0.151,0.514,0.234,0.77c0.189,0.584,0.402,1.156,0.631,1.721c0.074,0.182,0.14,0.364,0.217,0.543
			c0.977,2.27,2.266,4.393,3.83,6.303c0.096,0.117,0.197,0.229,0.295,0.344c0.419,0.496,0.855,0.976,1.309,1.439
			c0.149,0.152,0.302,0.303,0.455,0.45c0.423,0.413,0.859,0.81,1.309,1.19c0.181,0.154,0.359,0.309,0.544,0.459
			c0.457,0.369,0.93,0.717,1.411,1.056c0.183,0.13,0.36,0.267,0.547,0.392c0.657,0.438,1.329,0.854,2.024,1.23
			c0.127,0.068,0.262,0.124,0.39,0.193c0.571,0.297,1.15,0.582,1.745,0.84c0.293,0.129,0.599,0.238,0.899,0.354
			c0.446,0.175,0.893,0.345,1.35,0.495c0.33,0.109,0.664,0.207,1,0.305c0.455,0.129,0.916,0.248,1.379,0.354
			c0.332,0.076,0.66,0.15,0.996,0.214c0.521,0.099,1.047,0.174,1.578,0.242c0.285,0.034,0.567,0.082,0.856,0.108
			c0.825,0.078,1.658,0.125,2.502,0.125c3.49,0.002,7.128-0.717,10.171-2.031c3.043-1.313,5.788-3.342,5.788-3.342
			c6.681-5.006,10.615-12.86,10.623-21.209V106.21v-4.834V89.225v-4.886V60.661v-4.884V43.623V38.79V22.958
			c-0.001-6.92-3.129-13.469-8.511-17.819c0,0-1.452-1.08-3.125-2.143C61.528,1.883,59.478,1.291,59.478,1.291z M70.083,37.893
			L59.59,52.583l-8.877-3.896c0.007-0.12,0.036-0.232,0.036-0.354c0.035-3.537-2.463-6.594-5.938-7.265
			c-3.473-0.67-6.929,1.239-8.211,4.535c-1.284,3.297-0.027,7.04,2.986,8.894s6.919,1.29,9.284-1.34l8.777,3.852
			c0.606,0.266,1.262,0.403,1.924,0.403c1.566,0.002,3.037-0.751,3.951-2.021l6.56-9.183V65.25H50.304
			c-1.178-3.328-4.58-5.326-8.061-4.729c-3.48,0.598-6.024,3.614-6.024,7.146c0,3.531,2.543,6.547,6.024,7.146
			c3.479,0.597,6.883-1.401,8.061-4.73h19.779v9.667h-5.279c-1.178-3.328-4.58-5.326-8.062-4.729
			c-3.479,0.598-6.022,3.613-6.022,7.146c0,3.531,2.543,6.549,6.022,7.146s6.884-1.399,8.062-4.729h5.279v9.666h-19.77
			c-2.303,0.006-4.282,1.629-4.739,3.885l-1.706,8.529c-3.346,1.02-5.477,4.295-5.049,7.769c0.428,3.472,3.287,6.134,6.781,6.312
			s6.608-2.183,7.385-5.594c0.777-3.411-1.012-6.889-4.238-8.238l1.564-7.826h19.771v19.332
			c-0.013,12.008-9.742,21.734-21.749,21.75c-0.702,0-1.396-0.041-2.081-0.105c-0.247-0.021-0.489-0.064-0.733-0.098
			c-0.433-0.055-0.861-0.114-1.285-0.196c-0.291-0.056-0.576-0.126-0.861-0.192c-0.37-0.089-0.739-0.18-1.104-0.285
			c-0.293-0.086-0.584-0.179-0.873-0.276c-0.351-0.117-0.695-0.244-1.037-0.38c-0.277-0.109-0.555-0.223-0.827-0.344
			c-0.354-0.156-0.7-0.328-1.044-0.504c-0.241-0.121-0.484-0.242-0.721-0.375c-0.402-0.224-0.791-0.467-1.177-0.715
			c-0.162-0.105-0.33-0.199-0.489-0.311c-1.118-0.762-2.163-1.627-3.122-2.58c-0.03-0.031-0.059-0.064-0.089-0.098
			c-0.442-0.445-0.864-0.91-1.267-1.393c-0.072-0.086-0.139-0.177-0.21-0.266c-0.352-0.436-0.688-0.881-1.006-1.344
			c-0.082-0.119-0.16-0.24-0.239-0.361c-0.29-0.44-0.565-0.893-0.824-1.354c-0.081-0.146-0.161-0.291-0.239-0.439
			c-0.236-0.447-0.456-0.906-0.663-1.373c-0.073-0.168-0.149-0.334-0.219-0.504c-0.19-0.461-0.358-0.934-0.517-1.408
			c-0.061-0.184-0.127-0.361-0.184-0.545c-0.151-0.497-0.274-1.006-0.39-1.518c-0.039-0.164-0.086-0.328-0.12-0.496
			c-1.226-6.074,0.2-12.385,3.919-17.342c0.798-1.066,0.582-2.578-0.483-3.379c-1.065-0.8-2.577-0.587-3.38,0.477
			c-3.468,4.595-5.335,10.197-5.318,15.953c0,0.479,0.047,0.944,0.072,1.418c-7.302-2.517-12.188-9.403-12.155-17.125
			c0-0.996,0.081-1.99,0.242-2.973c0.017-0.104,0.056-0.199,0.074-0.304c0.508-2.828,1.692-5.491,3.454-7.761
			c0.017-0.022,0.02-0.049,0.035-0.071c2.28-2.953,5.421-5.126,8.988-6.222c1.275-0.394,1.993-1.744,1.601-3.021
			s-1.745-1.991-3.021-1.601c-3.743,1.148-7.131,3.232-9.841,6.062c-4.043-3.663-6.355-8.862-6.365-14.32
			c0.006-0.812,0.062-1.62,0.169-2.424c0.031-0.257,0.074-0.511,0.116-0.764c0.09-0.55,0.209-1.091,0.345-1.625
			c0.07-0.271,0.129-0.547,0.21-0.812c0.201-0.663,0.438-1.314,0.709-1.951c0.158-0.37,0.343-0.727,0.522-1.084
			c0.15-0.299,0.306-0.595,0.47-0.886c0.223-0.389,0.45-0.774,0.698-1.146c0.142-0.214,0.301-0.417,0.451-0.625
			c0.471-0.647,0.98-1.267,1.526-1.852c0.214-0.229,0.426-0.459,0.651-0.678c0.296-0.287,0.602-0.564,0.916-0.832
			c0.345-0.295,0.705-0.574,1.073-0.846c0.292-0.216,0.581-0.433,0.885-0.633c0.562-0.366,1.141-0.704,1.736-1.012
			c2.735-1.422,5.771-2.165,8.854-2.165c1.336,0,2.418-1.082,2.418-2.417s-1.083-2.417-2.418-2.417
			c-2.875,0.006-5.727,0.529-8.418,1.543c-0.832-2.022-1.256-4.189-1.249-6.376c0.002-7.657,5.146-14.358,12.543-16.339
			c7.396-1.981,15.201,1.252,19.029,7.884c0.433,0.748,1.23,1.208,2.094,1.207s1.662-0.462,2.093-1.211
			c0.433-0.748,0.431-1.669-0.002-2.417c-3.463-5.951-9.53-9.919-16.369-10.708C34.444,12.127,42.69,4.561,52.49,4.843
			c9.8,0.282,17.597,8.311,17.592,18.115L70.083,37.893L70.083,37.893z M45.916,48.333c0,1.334-1.081,2.417-2.416,2.417
			c-1.334,0-2.416-1.082-2.416-2.417s1.082-2.416,2.416-2.416C44.834,45.918,45.915,47,45.916,48.333z M45.916,67.667
			c0,1.335-1.081,2.416-2.416,2.416c-1.334,0-2.416-1.081-2.416-2.416s1.082-2.417,2.416-2.417
			C44.834,65.251,45.915,66.333,45.916,67.667z M60.417,82.167c0,1.334-1.083,2.416-2.417,2.416c-1.335,0-2.417-1.082-2.417-2.416
			c0-1.336,1.082-2.418,2.417-2.418C59.334,79.751,60.415,80.833,60.417,82.167z M48.333,113.583c0,1.336-1.082,2.416-2.417,2.416
			c-1.334,0-2.416-1.08-2.416-2.416c0-1.334,1.082-2.416,2.416-2.416C47.251,111.169,48.332,112.25,48.333,113.583z" class="color c1"/>
    </g>
  </g>
</svg>