<svg version="1.1" id="图层_1" x="0px" y="0px" width="228.107px" height="187.816px" viewBox="0 0 228.107 187.816" enable-background="new 0 0 228.107 187.816" xml:space="preserve" xmlns="http://www.w3.org/2000/svg" xmlns:xlink="http://www.w3.org/1999/xlink" xmlns:xml="http://www.w3.org/XML/1998/namespace">
  <g>
    <g>
      <circle fill="#FFFFFF" cx="14.106" cy="52" r="14.106" class="color c1"/>
      <circle fill="#FFFFFF" cx="97.127" cy="108.422" r="21.36" class="color c1"/>
      <circle fill="#FFFFFF" cx="29.42" cy="126.155" r="7.657" class="color c1"/>
      <ellipse transform="matrix(0.1602 -0.9871 0.9871 0.1602 9.4419 342.3976)" fill="#FFFFFF" cx="205.941" cy="165.65" rx="22.166" ry="22.166" class="color c1"/>
      <circle fill="#FFFFFF" cx="154.355" cy="72.957" r="30.226" class="color c1"/>
      <path fill="#00D4BD" d="M205.941,146.708c-3.632,0-7.024,1.024-9.907,2.797L166.38,96.227c8.416-4.358,14.171-13.14,14.171-23.271
			c0-14.468-11.728-26.196-26.196-26.196c-12.788,0-23.429,9.165-25.729,21.284L24.873,53.494c0.067-0.49,0.114-0.986,0.114-1.494
			c0-6.01-4.872-10.881-10.881-10.881S3.225,45.991,3.225,52c0,5.7,4.384,10.368,9.963,10.835l12.383,58.659
			c-1.341,1.109-2.196,2.785-2.196,4.661c0,3.339,2.707,6.045,6.045,6.045c2.73,0,5.036-1.811,5.786-4.297l152.082,34.462
			c-0.187,1.068-0.29,2.164-0.29,3.285c0,10.461,8.48,18.942,18.942,18.942c10.461,0,18.942-8.48,18.942-18.942
			C224.883,155.189,216.402,146.708,205.941,146.708z M195.024,150.176c-2.39,1.689-4.374,3.915-5.77,6.506l-75.347-41.379
			c0.871-2.122,1.355-4.445,1.355-6.881c0-3.597-1.051-6.946-2.858-9.766l19.489-12.217c4.582,7.617,12.925,12.713,22.461,12.713
			c3.905,0,7.608-0.861,10.937-2.393L195.024,150.176z M128.427,69.238c-0.173,1.215-0.267,2.456-0.267,3.719
			c0,4.499,1.135,8.733,3.134,12.432l-19.573,12.268c-3.303-4.471-8.609-7.371-14.594-7.371c-5.529,0-10.477,2.477-13.803,6.379
			L23.318,57.773c0.592-0.943,1.041-1.982,1.322-3.09L128.427,69.238z M14.429,62.865c3.319-0.098,6.262-1.675,8.193-4.103
			l59.942,38.852c-2.244,3.019-3.573,6.758-3.573,10.808c0,1.445,0.174,2.848,0.493,4.195L34.56,122.984
			c-1.065-1.723-2.966-2.875-5.14-2.875c-0.997,0-1.935,0.246-2.764,0.673L14.429,62.865z M35.437,126.715
			c0.017-0.185,0.028-0.372,0.028-0.561c0-0.722-0.133-1.412-0.366-2.055l44.698-10.315c2.287,7.398,9.18,12.772,17.329,12.772
			c7.149,0,13.33-4.138,16.284-10.149l75.308,41.358c-0.498,1.087-0.897,2.228-1.184,3.414L35.437,126.715z" class="color c2"/>
    </g>
    <circle fill="#00D4BD" cx="57.58" cy="45.894" r="2.947" class="color c2"/>
    <circle fill="#00D4BD" cx="104.738" cy="46.736" r="4.632" class="color c2"/>
    <circle fill="#00D4BD" cx="199.054" cy="70.315" r="2.947" class="color c2"/>
    <circle fill="#00D4BD" cx="98.423" cy="3.368" r="3.368" class="color c2"/>
    <circle fill="#00D4BD" cx="157.37" cy="5.894" r="2.526" class="color c2"/>
  </g>
</svg>