<svg version="1.1" id="图层_1" x="0px" y="0px" width="145.547px" height="99.542px" viewBox="0 0 145.547 99.542" enable-background="new 0 0 145.547 99.542" xml:space="preserve" xmlns="http://www.w3.org/2000/svg" xmlns:xlink="http://www.w3.org/1999/xlink" xmlns:xml="http://www.w3.org/XML/1998/namespace">
  <g>
    <path fill="#AEF938" d="M131.896,13.811l-8.854,8.232c7.078,7.611,10.766,17.525,10.389,27.912
		c-0.379,10.387-4.779,20.005-12.392,27.083c-7.617,7.062-17.524,10.767-27.912,10.389c-10.387-0.379-20.005-4.779-27.083-12.392
		c-13.129-14.122-13.726-35.472-2.31-50.258c3.642,0.564,7.496-0.475,10.405-3.179c5.043-4.688,5.33-12.577,0.642-17.62
		c-4.69-5.044-12.579-5.331-17.622-0.643c-3.956,3.678-4.971,9.32-2.968,14.018C39.197,36.735,39.97,64.744,57.19,83.266
		c9.276,9.977,21.883,15.746,35.497,16.241c13.003,0.474,25.438-3.915,35.222-12.392c0.46-0.399,0.915-0.807,1.363-1.223
		c9.977-9.276,15.745-21.883,16.241-35.497C146.009,36.782,141.172,23.788,131.896,13.811z" class="color c1"/>
    <path fill="#AEF938" d="M0.002,49.463L0.002,49.463C-0.116,43.439,4.67,38.46,10.694,38.342l25.355-0.5l0.43,21.811l-25.355,0.5
		C5.1,60.273,0.121,55.486,0.002,49.463z" class="color c1"/>
  </g>
</svg>