<svg version="1.1" id="图层_1" x="0px" y="0px" width="75.541px" height="156.965px" viewBox="0 0 75.541 156.965" enable-background="new 0 0 75.541 156.965" xml:space="preserve" xmlns="http://www.w3.org/2000/svg" xmlns:xlink="http://www.w3.org/1999/xlink" xmlns:xml="http://www.w3.org/XML/1998/namespace">
  <g>
    <path fill="#00A4F4" d="M35.736,8.262V8.207c-0.006,0.008-0.011,0.02-0.018,0.029c-0.005-0.01-0.011-0.021-0.017-0.029v0.055
		C-5.804,73.748,21.483,140.086,21.483,140.086h14.219h0.034h14.22C49.956,140.086,77.241,73.748,35.736,8.262z M37.75,80.179
		c-8.213,0-14.87-6.658-14.87-14.871c0-8.213,6.657-14.869,14.87-14.869c8.212,0,14.87,6.656,14.87,14.869
		C52.621,73.521,45.962,80.179,37.75,80.179z" class="color c1"/>
    <path fill="#323232" d="M15.276,156.965h-3.785c-18.386-33.797-9.192-59.752-9.192-59.752l6.264,4.566
		c0.649,9.055,1.928,17.207,3.397,24.191l-1.612-1.99C9.744,139.661,15.276,156.965,15.276,156.965z M60.264,156.965h3.785
		c18.386-33.797,9.193-59.752,9.193-59.752l-6.266,4.566c-0.648,9.055-1.927,17.207-3.396,24.191l1.612-1.99
		C65.795,139.661,60.264,156.965,60.264,156.965z M37.77,0c-0.58,0.291-2.183,2.773-2.183,2.773
		C11.07,38.295,7.951,73.976,9.67,97.708c1.874,25.852,9.528,43.029,9.854,43.75l0.574,1.271h35.344l0.575-1.271
		c0.325-0.721,7.979-17.898,9.853-43.75C67.59,73.976,64.47,38.295,39.954,2.773L37.77,0z M37.66,7.428l0.014,0.021l0.112-0.166
		c22.486,33.74,25.39,67.404,23.782,89.94c-1.515,21.229-7.19,36.766-8.962,41.18H22.937C19.148,128.901-2.552,67.884,37.66,7.428z
		 M37.77,58.021c-4.303,0-7.791,3.488-7.791,7.791c0,4.302,3.488,7.792,7.791,7.792s7.792-3.49,7.792-7.792
		C45.562,61.51,42.073,58.021,37.77,58.021z" class="color c2"/>
  </g>
</svg>