<svg version="1.1" id="图层_1" x="0px" y="0px" width="112.482px" height="77.502px" viewBox="0 0 112.482 77.502" enable-background="new 0 0 112.482 77.502" xml:space="preserve" xmlns="http://www.w3.org/2000/svg" xmlns:xlink="http://www.w3.org/1999/xlink" xmlns:xml="http://www.w3.org/XML/1998/namespace">
  <path fill="#515050" d="M47.089,54.411c-0.385,0.988-1.77,1.373-3.092,0.867c-1.324-0.508-2.079-1.734-1.696-2.723
	c0.386-0.99,1.771-1.373,3.094-0.865C46.718,52.196,47.473,53.422,47.089,54.411z M47.089,54.411
	c-0.385,0.988-1.77,1.373-3.092,0.867c-1.324-0.508-2.079-1.734-1.696-2.723c0.386-0.99,1.771-1.373,3.094-0.865
	C46.718,52.196,47.473,53.422,47.089,54.411z M47.089,54.411c-0.385,0.988-1.77,1.373-3.092,0.867
	c-1.324-0.508-2.079-1.734-1.696-2.723c0.386-0.99,1.771-1.373,3.094-0.865C46.718,52.196,47.473,53.422,47.089,54.411z
	 M21.064,30.7c0,0-0.296-0.074-0.83-0.246c-0.529-0.189-1.312-0.459-2.273-0.902c-0.953-0.461-2.115-1.055-3.329-1.918
	c-1.224-0.867-2.546-1.967-3.71-3.465c-0.582-0.742-1.138-1.584-1.57-2.521c-0.446-0.941-0.793-1.98-1.026-3.068
	c-0.234-1.102-0.271-2.262-0.209-3.428l0.037-0.432l0.012-0.223l0.014-0.111L8.2,14.237c0.04-0.271,0.088-0.545,0.124-0.818
	l0.038-0.209l0.048-0.223l0.113-0.457l0.11-0.457c0.036-0.148,0.086-0.295,0.136-0.434c0.1-0.283,0.174-0.582,0.298-0.877
	c0.109-0.285,0.234-0.57,0.345-0.855C9.684,9.35,9.957,8.782,10.291,8.25c0.656-1.076,1.437-2.104,2.353-3.008
	c0.914-0.902,1.939-1.705,3.065-2.385c1.126-0.668,2.326-1.188,3.589-1.584c0.309-0.086,0.629-0.186,0.938-0.26
	c0.299-0.063,0.57-0.137,0.879-0.207c0.619-0.139,1.225-0.25,1.831-0.363c1.225-0.209,2.448-0.344,3.675-0.404
	c1.226-0.064,2.46-0.051,3.66,0.047c1.213,0.088,2.399,0.273,3.563,0.557c1.149,0.283,2.274,0.619,3.325,1.088l0.396,0.162
	l0.383,0.184c0.26,0.125,0.506,0.25,0.754,0.373c0.484,0.283,0.979,0.531,1.424,0.852c0.914,0.584,1.732,1.264,2.486,1.941
	c0.358,0.361,0.716,0.709,1.049,1.066c0.162,0.186,0.324,0.357,0.485,0.543c0.161,0.174,0.308,0.359,0.443,0.547
	c1.15,1.455,2.016,2.93,2.634,4.275c0.174,0.338,0.312,0.67,0.444,0.979c0.14,0.322,0.275,0.621,0.386,0.93
	c0.212,0.604,0.409,1.148,0.567,1.654c0.15,0.51,0.285,0.967,0.385,1.35c0.101,0.395,0.173,0.742,0.234,1.016
	c0.125,0.545,0.188,0.84,0.188,0.84s-0.124-0.271-0.348-0.791c-0.113-0.26-0.233-0.58-0.409-0.951
	c-0.174-0.375-0.371-0.793-0.593-1.264c-0.224-0.469-0.508-0.965-0.793-1.521c-0.147-0.271-0.321-0.545-0.494-0.84
	c-0.174-0.285-0.333-0.596-0.543-0.881c-0.198-0.295-0.396-0.605-0.606-0.914c-0.223-0.295-0.457-0.604-0.691-0.928
	c-0.248-0.309-0.51-0.617-0.77-0.939c-0.123-0.16-0.27-0.311-0.419-0.471c-0.149-0.146-0.297-0.309-0.435-0.457
	c-0.284-0.318-0.63-0.592-0.939-0.916c-0.321-0.297-0.681-0.58-1.039-0.865c-0.74-0.543-1.494-1.1-2.361-1.543
	c-0.422-0.248-0.865-0.447-1.311-0.658c-0.224-0.1-0.458-0.188-0.693-0.283l-0.346-0.152l-0.357-0.121
	C35.326,3.6,34.324,3.34,33.297,3.155c-2.063-0.396-4.268-0.457-6.506-0.309c-1.111,0.072-2.239,0.246-3.365,0.43
	c-0.556,0.104-1.124,0.213-1.668,0.336c-0.274,0.049-0.569,0.135-0.854,0.209c-0.271,0.064-0.52,0.148-0.778,0.225
	c-1.025,0.309-2.027,0.729-2.956,1.273c-0.915,0.557-1.78,1.186-2.559,1.918c-0.78,0.73-1.447,1.545-2.019,2.424
	c-0.568,0.865-1.038,1.791-1.384,2.758c-0.049,0.125-0.099,0.234-0.136,0.359l-0.1,0.346l-0.1,0.346l-0.051,0.174l-0.037,0.197
	c-0.061,0.273-0.111,0.533-0.159,0.805l-0.013,0.051v0.022c-0.013,0.051,0-0.039,0-0.022L10.6,14.784l-0.023,0.184l-0.049,0.369
	c-0.111,0.98-0.138,1.941-0.015,2.871c0.223,1.855,0.902,3.551,1.808,4.973c0.445,0.715,0.938,1.371,1.458,1.965
	c0.508,0.596,1.039,1.139,1.572,1.609c1.052,0.951,2.052,1.705,2.919,2.277c0.862,0.568,1.569,0.988,2.053,1.258
	C20.793,30.575,21.064,30.7,21.064,30.7z M85.555,31.567c0.357-0.348,0.741-0.645,1.139-0.953c0.395-0.309,0.805-0.582,1.223-0.855
	c0.422-0.271,0.842-0.531,1.287-0.768c0.435-0.246,0.879-0.469,1.336-0.678c0.459-0.211,0.915-0.422,1.387-0.594
	c0.234-0.086,0.471-0.186,0.718-0.262c0.233-0.086,0.481-0.172,0.717-0.234c0.481-0.148,0.979-0.271,1.473-0.395
	c0.494-0.111,1.002-0.211,1.508-0.285c0.263-0.037,0.509-0.076,0.769-0.1c0.261-0.025,0.521-0.061,0.766-0.061l0.781-0.037h0.778
	c0.261,0,0.52,0.012,0.778,0.037c0.261,0.023,0.521,0.023,0.779,0.076l0.778,0.098l0.779,0.146c0.26,0.051,0.52,0.113,0.768,0.174
	c0.26,0.074,0.508,0.127,0.767,0.211c0.495,0.172,1.003,0.32,1.485,0.531c0.246,0.1,0.494,0.199,0.729,0.309l0.704,0.348
	c0.234,0.111,0.471,0.246,0.693,0.371l0.681,0.395l0.036,0.025l0.063,0.049c0.161,0.123,0.259,0.199,0.371,0.299
	c0.11,0.098,0.223,0.186,0.32,0.281c0.211,0.199,0.409,0.398,0.606,0.609c0.384,0.42,0.74,0.854,1.074,1.334
	c0.323,0.471,0.618,0.979,0.867,1.521c0.121,0.273,0.233,0.545,0.333,0.828c0.1,0.287,0.187,0.568,0.246,0.867
	c0.039,0.148,0.063,0.297,0.088,0.443c0.025,0.15,0.052,0.297,0.063,0.459c0.037,0.309,0.037,0.619,0.037,0.916
	c-0.014,0.309-0.025,0.617-0.074,0.914c-0.037,0.311-0.113,0.607-0.174,0.904c-0.087,0.283-0.162,0.58-0.285,0.852l-0.174,0.41
	l-0.197,0.396c-0.123,0.271-0.283,0.506-0.42,0.752c-0.147,0.25-0.32,0.473-0.482,0.709l0.111-0.188
	c-0.186,0.349-0.297,0.472-0.445,0.67c-0.147,0.175-0.282,0.334-0.433,0.494c-0.147,0.146-0.296,0.297-0.458,0.435l-0.471,0.395
	c-0.158,0.125-0.32,0.234-0.494,0.346c-0.16,0.111-0.334,0.234-0.496,0.322c-0.332,0.197-0.678,0.406-1.024,0.568
	c-0.347,0.174-0.694,0.348-1.052,0.471l-0.532,0.211l-0.26,0.1l-0.271,0.086l-1.077,0.332l-1.088,0.262
	c-0.186,0.037-0.359,0.087-0.545,0.121l-0.545,0.088l-1.089,0.175l-1.101,0.1c-0.37,0.023-0.729,0.074-1.089,0.087
	c-0.37,0.014-0.729,0.022-1.1,0.022c-0.357,0-0.73,0.024-1.089,0c-0.73-0.022-1.446-0.072-2.178-0.123
	c0.705-0.16,1.423-0.31,2.117-0.433c0.345-0.063,0.703-0.162,1.051-0.235c0.345-0.086,0.691-0.16,1.037-0.246
	c0.347-0.074,0.68-0.188,1.027-0.272l1.025-0.283l1.003-0.334l0.494-0.16c0.16-0.063,0.32-0.127,0.48-0.188l0.966-0.368l0.928-0.435
	l0.235-0.101l0.223-0.123l0.445-0.233c0.311-0.147,0.582-0.334,0.865-0.508c0.286-0.16,0.545-0.371,0.805-0.56
	c0.137-0.086,0.259-0.194,0.371-0.295c0.123-0.1,0.248-0.197,0.356-0.309l0.338-0.324c0.108-0.109,0.195-0.221,0.294-0.332
	c0.101-0.111,0.174-0.223,0.26-0.334l0.101-0.16l0.036-0.063l0.012-0.025l-0.012,0.012l-0.012,0.025l0.123-0.221
	c0.111-0.188,0.233-0.373,0.335-0.559c0.087-0.187,0.21-0.372,0.285-0.568l0.121-0.287l0.101-0.281
	c0.074-0.186,0.109-0.383,0.159-0.582c0.039-0.199,0.073-0.383,0.089-0.582c0.024-0.197,0.024-0.383,0.024-0.582
	c-0.014-0.195-0.014-0.383-0.049-0.58c-0.014-0.1-0.025-0.197-0.051-0.283c-0.015-0.1-0.039-0.188-0.063-0.287
	c-0.035-0.197-0.109-0.383-0.171-0.568c-0.075-0.186-0.148-0.371-0.235-0.555c-0.175-0.373-0.385-0.732-0.631-1.092
	c-0.235-0.344-0.508-0.691-0.806-1.012c-0.147-0.162-0.297-0.322-0.457-0.471l-0.235-0.209c-0.072-0.063-0.172-0.15-0.207-0.174
	l0.097,0.061c-0.384-0.223-0.755-0.482-1.163-0.689l-0.594-0.313c-0.198-0.111-0.408-0.182-0.604-0.283
	c-0.409-0.197-0.831-0.346-1.25-0.508c-0.211-0.072-0.422-0.135-0.645-0.209c-0.211-0.076-0.434-0.137-0.645-0.186l-0.654-0.174
	l-0.668-0.137c-0.222-0.049-0.446-0.072-0.667-0.111c-0.223-0.023-0.444-0.074-0.682-0.086l-0.682-0.063L97.9,28.67
	c-0.236-0.012-0.459,0-0.693-0.012c-0.234,0-0.459,0-0.692,0.012c-0.459,0.012-0.929,0.051-1.386,0.088
	c-0.459,0.051-0.928,0.098-1.397,0.186c-0.458,0.074-0.928,0.16-1.385,0.258c-0.235,0.049-0.458,0.102-0.693,0.162
	c-0.234,0.051-0.458,0.109-0.693,0.174c-0.455,0.123-0.914,0.26-1.371,0.408c-0.459,0.148-0.918,0.311-1.373,0.471
	c-0.458,0.174-0.902,0.359-1.35,0.543C86.432,31.145,85.988,31.344,85.555,31.567z M55.017,69.474c0,0,0.05,0.127,0.148,0.35
	c0.11,0.223,0.271,0.531,0.531,0.902c0.236,0.371,0.593,0.766,1.014,1.176c0.211,0.197,0.47,0.395,0.72,0.592
	c0.282,0.174,0.543,0.385,0.863,0.543c0.619,0.336,1.323,0.656,2.104,0.881c0.778,0.246,1.632,0.395,2.521,0.531
	c0.457,0.037,0.903,0.098,1.373,0.148c0.472,0.014,0.951,0.024,1.437,0.049l0.358,0.014l0.369-0.014
	c0.248-0.013,0.495-0.023,0.742-0.023l0.742-0.012h0.186h0.051H68.2h0.012c0.026,0-0.022,0-0.012,0l0.1-0.014
	c0.124-0.011,0.271-0.011,0.371-0.025c0.418-0.039,0.903-0.098,1.349-0.184c0.444-0.103,0.891-0.199,1.323-0.337
	c0.433-0.135,0.841-0.297,1.248-0.469c0.408-0.187,0.781-0.385,1.164-0.606c0.729-0.433,1.359-0.929,1.744-1.457
	c0.197-0.261,0.32-0.521,0.406-0.793c0.088-0.271,0.1-0.558,0.074-0.854c-0.023-0.297-0.123-0.595-0.232-0.879
	c-0.112-0.283-0.26-0.558-0.41-0.816c-0.309-0.506-0.643-0.938-0.928-1.284c-0.284-0.347-0.518-0.632-0.691-0.806
	c-0.16-0.187-0.246-0.283-0.246-0.283s0.121,0.05,0.345,0.148c0.11,0.049,0.26,0.108,0.421,0.194
	c0.161,0.074,0.347,0.177,0.558,0.299c0.406,0.234,0.891,0.558,1.41,1.015c0.506,0.455,1.063,1.063,1.422,1.979
	c0.174,0.457,0.271,0.989,0.234,1.561c-0.035,0.555-0.199,1.137-0.445,1.645c-0.521,1.025-1.311,1.83-2.188,2.486
	c-0.42,0.332-0.903,0.631-1.397,0.9c-0.495,0.272-1.015,0.508-1.545,0.707c-0.533,0.199-1.089,0.371-1.659,0.479
	c-0.567,0.123-1.125,0.214-1.729,0.263c-0.162,0.012-0.271,0.012-0.408,0.022h-0.099h-0.125h-0.21h-0.817c-0.271,0-0.543,0-0.815,0
	h-0.407l-0.406-0.037c-0.545-0.049-1.077-0.098-1.609-0.162c-0.53-0.098-1.05-0.209-1.559-0.317
	c-1.017-0.262-1.99-0.594-2.856-1.039c-0.878-0.434-1.646-0.979-2.275-1.559c-0.175-0.14-0.296-0.312-0.443-0.447
	c-0.138-0.146-0.275-0.295-0.397-0.445c-0.111-0.16-0.222-0.322-0.32-0.469c-0.101-0.148-0.209-0.285-0.285-0.445
	c-0.148-0.311-0.321-0.582-0.408-0.865c-0.049-0.137-0.098-0.273-0.147-0.396c-0.05-0.122-0.063-0.26-0.101-0.37
	c-0.023-0.123-0.06-0.224-0.074-0.334c-0.012-0.111-0.024-0.212-0.034-0.298c-0.025-0.186-0.025-0.348-0.038-0.471
	C55.003,69.61,55.017,69.474,55.017,69.474z M19.739,58.788c0,0-0.097,0.102-0.308,0.273c-0.212,0.16-0.533,0.407-0.978,0.668
	c-0.867,0.52-2.227,1.176-3.996,1.52c-0.88,0.176-1.869,0.262-2.917,0.236c-1.054-0.037-2.152-0.187-3.268-0.494
	c-0.271-0.074-0.558-0.162-0.828-0.248c-0.272-0.1-0.545-0.211-0.829-0.309c-0.271-0.109-0.545-0.234-0.817-0.357
	c-0.271-0.125-0.53-0.275-0.804-0.41c-0.52-0.297-1.051-0.592-1.545-0.939l-0.187-0.123l-0.098-0.063L3.04,58.454
	c-0.108-0.084-0.209-0.146-0.37-0.283c-0.147-0.123-0.286-0.246-0.406-0.359c-0.126-0.11-0.249-0.246-0.361-0.369
	c-0.927-1.026-1.582-2.325-1.805-3.688C0.037,53.409,0.012,53.063,0,52.729c0-0.174,0.013-0.349,0.013-0.521v-0.074v-0.014v-0.022
	l0.013-0.052l0.012-0.098l0.024-0.197l0.038-0.125l0.024-0.135l0.051-0.273l0.062-0.271C0.26,50.86,0.285,50.772,0.31,50.7
	c0.061-0.16,0.099-0.334,0.173-0.494c0.074-0.162,0.146-0.311,0.233-0.471c0.075-0.162,0.188-0.297,0.273-0.443
	c0.097-0.148,0.183-0.287,0.308-0.408c0.113-0.125,0.223-0.248,0.333-0.373c0.112-0.111,0.247-0.211,0.372-0.32
	c0.248-0.223,0.509-0.373,0.768-0.532l0.196-0.123c0.063-0.039,0.138-0.063,0.201-0.101c0.136-0.061,0.27-0.11,0.396-0.174
	c1.063-0.42,2.063-0.566,2.969-0.604c0.222-0.023,0.444-0.015,0.655-0.015c0.209,0,0.421,0.015,0.619,0.015
	c0.407,0.024,0.777,0.063,1.138,0.098c0.359,0.037,0.681,0.103,0.976,0.162c0.298,0.063,0.582,0.11,0.816,0.162
	c0.497,0.123,0.866,0.235,1.125,0.309c0.26,0.074,0.396,0.123,0.396,0.123s-0.146,0.013-0.405,0.05
	c-0.273,0.024-0.656,0.075-1.15,0.112c-0.248,0.022-0.52,0.062-0.817,0.099c-0.295,0.037-0.604,0.063-0.938,0.125
	c-0.334,0.061-0.694,0.098-1.052,0.17c-0.358,0.088-0.743,0.151-1.126,0.262c-0.186,0.064-0.385,0.111-0.582,0.174
	c-0.199,0.049-0.384,0.137-0.569,0.211c-0.097,0.037-0.198,0.072-0.284,0.109c-0.099,0.037-0.186,0.09-0.271,0.139
	c-0.174,0.098-0.383,0.172-0.531,0.281c-0.694,0.424-1.225,0.98-1.498,1.635c-0.025,0.088-0.063,0.172-0.088,0.258
	c-0.023,0.088-0.035,0.186-0.061,0.273c-0.015,0.049-0.024,0.088-0.038,0.135l-0.012,0.127L2.82,51.788
	c0,0.025-0.012,0.037-0.012,0.061v0.103L2.795,52.16v0.1v0.05v0.024v0.013c0.014-0.123,0-0.023,0-0.05
	c0.014,0.099,0.014,0.209,0.014,0.31c0.012,0.211,0.036,0.408,0.086,0.621c0.186,0.813,0.582,1.604,1.176,2.235
	c0.074,0.088,0.149,0.16,0.222,0.234c0.073,0.088,0.148,0.149,0.224,0.213c0.048,0.047,0.185,0.146,0.296,0.233l0.038,0.037
	l0.023,0.012l0.012,0.013c-0.061-0.049-0.012-0.013-0.022-0.013l0.075,0.048l0.16,0.112c0.421,0.297,0.854,0.595,1.284,0.853
	c0.446,0.262,0.878,0.51,1.324,0.729c0.224,0.103,0.446,0.213,0.669,0.31c0.223,0.088,0.443,0.198,0.681,0.287
	c0.901,0.346,1.807,0.606,2.685,0.768c0.877,0.173,1.731,0.244,2.536,0.271c1.605,0.037,2.968-0.174,3.931-0.383
	c0.483-0.11,0.856-0.199,1.115-0.272C19.604,58.838,19.739,58.788,19.739,58.788z M101.993,42.476
	c-0.161-0.138-0.347-0.285-0.531-0.447c-0.187-0.16-0.384-0.32-0.595-0.494c-0.211-0.172-0.42-0.346-0.643-0.518
	c-0.224-0.175-0.445-0.361-0.669-0.531c-0.225-0.174-0.444-0.359-0.653-0.547c-0.211-0.185-0.422-0.357-0.646-0.519
	c-0.222-0.147-0.443-0.285-0.652-0.396c-0.224-0.109-0.435-0.223-0.632-0.297c-0.024-0.012-0.05-0.023-0.088-0.039
	c0.594-0.752-0.37-1.223-0.805-1.396c-0.111-0.049-0.233-0.061-0.371-0.061h-1.174c-0.051-0.037-0.1-0.063-0.137-0.102
	c-0.174-0.121-0.373-0.248-0.581-0.383c-0.21-0.123-0.434-0.246-0.682-0.357c-0.246-0.111-0.507-0.197-0.778-0.285
	c-0.271-0.086-0.543-0.172-0.803-0.271c-0.273-0.1-0.531-0.197-0.808-0.295c-0.258-0.102-0.518-0.188-0.779-0.273
	c-0.243-0.086-0.491-0.174-0.727-0.248c-0.235-0.074-0.459-0.146-0.658-0.223c-0.813-0.271-1.358-0.432-1.358-0.432l-0.05,0.111
	c0,0,0.48,0.297,1.227,0.73c0.183,0.109,0.382,0.223,0.593,0.346c0.209,0.123,0.432,0.246,0.666,0.383
	c0.236,0.135,0.471,0.271,0.719,0.406c0.246,0.139,0.494,0.273,0.742,0.408c0.247,0.135,0.494,0.285,0.741,0.434
	c0.037,0.027,0.063,0.037,0.101,0.063H61.178c-5.605,0.285-10.938-3.191-11.529-3.588c-0.037-0.025-0.074-0.049-0.099-0.072
	l-22.092-19.42c0.136-0.074,0.284-0.137,0.435-0.225c0.321-0.158,0.653-0.355,0.989-0.568c0.333-0.209,0.666-0.457,0.998-0.705
	c0.339-0.246,0.683-0.494,1.03-0.74c0.346-0.25,0.69-0.484,1.038-0.721c0.346-0.232,0.68-0.467,1.001-0.701
	c0.323-0.234,0.631-0.459,0.928-0.668c0.296-0.213,0.569-0.408,0.829-0.596c1.027-0.742,1.707-1.248,1.707-1.248l-0.063-0.098
	c0,0-0.754,0.383-1.879,0.975c-0.283,0.148-0.582,0.313-0.904,0.482c-0.32,0.174-0.656,0.359-1.001,0.545
	c-0.35,0.188-0.706,0.385-1.075,0.582c-0.361,0.199-0.73,0.406-1.104,0.617c-0.369,0.197-0.742,0.41-1.111,0.594
	c-0.371,0.186-0.73,0.385-1.076,0.596c-0.332,0.209-0.656,0.418-0.939,0.643c-0.225,0.162-0.446,0.332-0.643,0.492l-1.621-1.42
	c-0.099-0.086-0.222-0.162-0.347-0.197c-2.251-0.719-2.397,1.346-1.743,4.18c-0.038,0.025-0.087,0.063-0.137,0.086
	c-0.258,0.186-0.545,0.385-0.83,0.605c-0.295,0.225-0.58,0.461-0.877,0.732c-0.296,0.27-0.58,0.555-0.865,0.863
	c-0.285,0.297-0.583,0.607-0.879,0.904c-0.297,0.297-0.605,0.592-0.903,0.891c-0.296,0.283-0.581,0.58-0.866,0.865
	c-0.282,0.283-0.543,0.557-0.803,0.816c-0.248,0.26-0.495,0.508-0.717,0.729c-0.892,0.916-1.46,1.535-1.46,1.535l0.087,0.1
	c0,0,0.68-0.508,1.681-1.287c0.247-0.199,0.521-0.406,0.805-0.629c0.285-0.225,0.582-0.461,0.903-0.707
	c0.31-0.246,0.631-0.494,0.953-0.766c0.32-0.262,0.654-0.531,0.976-0.793c0.336-0.26,0.668-0.52,0.989-0.779
	c0.335-0.246,0.656-0.506,0.952-0.768c0.297-0.258,0.569-0.531,0.816-0.789c0.161-0.162,0.31-0.322,0.444-0.482
	c1.188,4.18,3.661,9.359,3.945,9.93c0.014,0.037,0.039,0.063,0.052,0.1c0.471,0.744,6.418,10.168,4.205,13.854
	c-2.104,3.475-14.769,9.274-18.344,11.219c-0.048-0.039-0.11-0.088-0.161-0.125c-0.147-0.11-0.295-0.211-0.469-0.321
	c-0.174-0.111-0.36-0.209-0.557-0.281c-0.198-0.088-0.421-0.15-0.645-0.213c-0.224-0.062-0.447-0.125-0.669-0.197
	c-0.221-0.074-0.444-0.146-0.655-0.223c-0.223-0.076-0.433-0.136-0.644-0.209c-0.21-0.063-0.407-0.125-0.604-0.187
	c-0.186-0.063-0.37-0.113-0.544-0.162c-0.669-0.196-1.127-0.31-1.127-0.31l-0.05,0.111c0,0,0.396,0.246,1.002,0.605
	c0.148,0.088,0.309,0.184,0.482,0.285c0.175,0.098,0.359,0.209,0.545,0.309c0.186,0.111,0.383,0.223,0.581,0.334
	c0.197,0.111,0.408,0.221,0.606,0.334c0.209,0.111,0.407,0.234,0.604,0.359c0.199,0.123,0.385,0.234,0.596,0.32
	c0.196,0.088,0.396,0.161,0.592,0.209c0.025,0.014,0.063,0.014,0.086,0.024c-0.529,0.633-0.086,1.685,0.817,1.67l1.967-0.022
	c0.024,0.022,0.038,0.037,0.062,0.063c0.148,0.137,0.31,0.26,0.496,0.381c0.187,0.113,0.383,0.223,0.594,0.322
	c0.208,0.1,0.418,0.199,0.616,0.311c0.212,0.111,0.409,0.224,0.606,0.334c0.197,0.113,0.408,0.211,0.595,0.308
	c0.198,0.102,0.383,0.198,0.556,0.284c0.175,0.091,0.347,0.175,0.508,0.25c0.631,0.31,1.052,0.504,1.052,0.504l0.063-0.098
	c0,0-0.349-0.32-0.878-0.777c-0.139-0.11-0.272-0.235-0.436-0.37c-0.146-0.14-0.32-0.259-0.481-0.41
	c-0.172-0.135-0.346-0.283-0.521-0.435c-0.174-0.135-0.356-0.282-0.543-0.43c-0.11-0.088-0.223-0.174-0.322-0.271l20.148-0.3
	c0.569-0.012,1.027,0.433,1.039,1c0.022,0.793,0.309,1.97,1.547,3.205c1.895,1.881,7.496,0.931,9.115,0.595
	c0.284-0.063,0.58,0.014,0.816,0.186l12.84,9.611l0,0c-0.235,0.062-0.459,0.146-0.693,0.248c-0.236,0.096-0.47,0.186-0.717,0.271
	c-0.248,0.086-0.482,0.17-0.717,0.248c-0.238,0.072-0.472,0.172-0.693,0.248c-0.223,0.084-0.445,0.158-0.656,0.232
	s-0.395,0.148-0.582,0.223c-0.717,0.273-1.188,0.471-1.188,0.471l0.037,0.123c0,0,0.508-0.061,1.274-0.162
	c0.187-0.022,0.396-0.061,0.619-0.086c0.223-0.022,0.443-0.061,0.678-0.098c0.236-0.039,0.482-0.074,0.729-0.111
	c0.249-0.037,0.497-0.086,0.756-0.125c0.248-0.037,0.507-0.074,0.754-0.108c0.247-0.037,0.495-0.063,0.731-0.125
	c0.233-0.063,0.458-0.138,0.655-0.209c0.085-0.037,0.172-0.074,0.261-0.113l0.295,0.226c0.037,0.022,0.086,0.059,0.123,0.073
	c0.312,0.173,0.583,0.298,0.815,0.369c0.754,0.248,1.474-0.407,1.338-1.16c0.085,0.013,0.187,0.037,0.271,0.05
	c0.198,0.024,0.41,0.049,0.617,0.061c0.223,0.012,0.457,0.012,0.692-0.012c0.234-0.023,0.482-0.074,0.73-0.125
	c0.247-0.049,0.494-0.099,0.754-0.148c0.247-0.035,0.508-0.084,0.754-0.123c0.248-0.037,0.496-0.086,0.729-0.123
	c0.235-0.035,0.472-0.086,0.681-0.123c0.223-0.039,0.421-0.088,0.604-0.125c0.757-0.148,1.265-0.258,1.265-0.258l-0.016-0.125
	c0,0-0.52-0.037-1.283-0.061c-0.187,0-0.396-0.015-0.62-0.025c-0.225-0.014-0.458-0.014-0.692-0.014
	c-0.235,0-0.495-0.015-0.741-0.015c-0.248,0-0.509,0-0.769,0c-0.261,0-0.506-0.01-0.767-0.022c-0.248-0.01-0.496-0.023-0.741,0
	c-0.236,0.014-0.47,0.051-0.681,0.1c-0.223,0.049-0.422,0.098-0.604,0.148c-0.15,0.037-0.285,0.086-0.41,0.135
	c-4.392-17.191,1.227-17.762,1.227-17.762s22.547-8.756,27.382-10.572c0.731-0.273,1.274-0.533,1.673-0.768
	c0.072,0.086,0.157,0.172,0.247,0.258c0.148,0.162,0.32,0.311,0.506,0.471c0.187,0.16,0.385,0.32,0.604,0.471
	c0.224,0.146,0.471,0.283,0.72,0.408c0.247,0.123,0.508,0.258,0.754,0.408c0.247,0.148,0.495,0.285,0.729,0.432
	c0.247,0.137,0.482,0.271,0.716,0.408c0.235,0.125,0.46,0.262,0.668,0.373c0.225,0.123,0.422,0.232,0.608,0.332
	c0.754,0.408,1.262,0.67,1.262,0.67l0.073-0.1C103.068,43.403,102.636,43.021,101.993,42.476z M50.626,55.969
	c-0.581,1.509-3.734,1.683-7.052,0.396c-3.313-1.285-5.516-3.549-4.934-5.047c0.58-1.508,3.735-1.68,7.049-0.394
	C48.992,52.196,51.207,54.461,50.626,55.969z" class="color c1"/>
</svg>