<svg version="1.1" id="图层_1" x="0px" y="0px" width="193.822px" height="199.676px" viewBox="0 0 193.822 199.676" enable-background="new 0 0 193.822 199.676" xml:space="preserve" xmlns="http://www.w3.org/2000/svg" xmlns:xlink="http://www.w3.org/1999/xlink" xmlns:xml="http://www.w3.org/XML/1998/namespace">
  <g>
    <g>
      <path fill="#4B2D61" d="M105.657,155.095h4.951c0.92,0,1.664-0.744,1.664-1.664v-3.002c0-0.92-0.744-1.664-1.664-1.664h-4.951
			c-0.922,0-1.666,0.744-1.666,1.664v3.002C103.991,154.351,104.736,155.095,105.657,155.095z" class="color c1"/>
      <path fill="#4B2D61" d="M105.657,145.873h4.951c0.92,0,1.664-0.743,1.664-1.666v-3c0-0.922-0.744-1.668-1.664-1.668h-4.951
			c-0.922,0-1.666,0.746-1.666,1.668v3C103.991,145.13,104.736,145.873,105.657,145.873z M108.179,140.494
			c1.229,0,2.219,0.994,2.219,2.213c0,1.229-0.99,2.218-2.219,2.218c-1.223,0-2.215-0.99-2.215-2.218
			C105.964,141.488,106.956,140.494,108.179,140.494z" class="color c1"/>
      <g>
        <g>
          <path fill="#4B2D61" d="M193.595,132.574c0.164-7.358,0.229-14.707,0.229-22.069c0-16.756-2.736-31.6-8.52-47.33
					c-30.969-4.443-54.189-25.631-56.748-57.879c-10.613-3.479-20.455-5.295-31.642-5.295c-11.188,0-21.028,1.813-31.647,5.295
					c-2.556,32.248-25.78,53.436-56.744,57.879C2.741,78.907,0,93.747,0,110.505c0,7.358,0.068,14.711,0.229,22.069
					c1.584,0.615,3.158,1.209,4.729,1.777c0.016,1.449,0.037,2.871-0.104,4.215c-2.071-0.803-3.272,2.303-1.205,3.107l1.465,0.557
					l0.147,5.127l-0.407-0.158c-2.071-0.799-3.272,2.304-1.205,3.105l1.703,0.652c0.39,12.41,6.577,16.479,10.063,17.858
					c14.793,5.854,31.138,10.234,48.537,12.837l1.378,9.161c1.119,5.22,6.02,8.861,11.326,8.861l20.236-0.121l20.268,0.121
					c5.004,0,8.977-2.799,10.805-7.246c0.371-0.887,0.525-1.615,0.525-1.615l1.379-9.161c17.395-2.603,33.74-6.982,48.535-12.837
					c3.484-1.381,9.674-5.448,10.059-17.858l1.703-0.652c2.072-0.805,0.869-3.904-1.199-3.105l-0.41,0.158l0.152-5.127l1.461-0.557
					c2.072-0.807,0.867-3.912-1.375-3.041c0.031-1.41,0.051-2.832,0.064-4.281C190.433,133.783,192.011,133.19,193.595,132.574z
					 M174.784,91.742c1.682,0,3.043,1.826,3.043,4.084c0,2.254-1.361,4.082-3.043,4.082c-1.674,0-3.037-1.826-3.037-4.082
					S173.111,91.742,174.784,91.742z M83.074,16.517c4.25-0.758,8.692-1.152,13.318-1.152h1.039c4.627,0,9.068,0.395,13.316,1.152
					c2.055,8.457,5.48,16.361,10.035,23.506c-4.453-4.959-7.816-10.43-9.84-16.281c-4.27-0.535-8.738-0.813-13.387-0.813h-1.043
					c-4.65,0-9.116,0.277-13.388,0.813c-2.146,6.209-5.802,11.988-10.666,17.184C77.302,33.544,80.935,25.331,83.074,16.517z
					 M19.454,91.742c1.679,0,3.039,1.826,3.039,4.084c0,2.254-1.36,4.082-3.039,4.082c-1.678,0-3.038-1.826-3.038-4.082
					S17.777,91.742,19.454,91.742z M17.26,164.175c-1.649-0.656-5.928-2.808-6.777-11.365c10.715,3.718,22.149,6.69,34.149,8.802
					c9.426,2.446,9.462,6.274,10.448,13.461C41.626,172.478,28.934,168.791,17.26,164.175z M58.53,175.707
					c-1.413-9.282-1.521-14.352-13.195-17.352c-12.311-2.16-24.068-5.256-35.015-9.131l-0.154-5.16
					c13.193,4.596,27.489,8.053,42.558,10.176c2.198,0.308,2.662-2.992,0.464-3.297c-15.32-2.158-29.809-5.713-43.118-10.438
					c-0.035-1.447-0.063-2.908-0.087-4.39c13.164,4.451,26.072,7.476,40.253,9.56c2.574,0.285,8.433,1.896,8.941,4.946
					c0.793,4.779,2.561,16.349,4,25.857C61.617,176.238,60.069,175.979,58.53,175.707z M114.562,147.613
					c-0.904,5.44-2.998,19.09-4.453,29.575c-0.465,2.773-2.803,2.728-2.803,2.728H86.522c0,0-2.337,0.047-2.801-2.728
					c-1.453-10.485-3.545-24.135-4.45-29.575c-0.926-5.535-1.979-9.263-4.307-11.843c6.516,0.632,13.803,0.974,21.951,0.974
					c8.15,0,15.433-0.342,21.955-0.974C116.538,138.351,115.482,142.074,114.562,147.613z M96.914,133.41
					c-66.256,0-72.556-22.438-72.556-39.55c0-21.672,21.229-45.035,71.813-45.262h1.484c50.584,0.227,71.811,23.59,71.811,45.262
					C169.466,110.972,163.167,133.412,96.914,133.41z M176.57,164.175c-11.674,4.616-24.369,8.303-37.818,10.896
					c0.98-7.186,1.02-11.014,10.449-13.461c11.994-2.108,23.432-5.084,34.145-8.801C182.495,161.367,178.218,163.519,176.57,164.175
					z M183.759,140.501c-13.311,4.727-27.797,8.28-43.117,10.438c-2.201,0.309-1.736,3.605,0.461,3.297
					c15.068-2.121,29.363-5.58,42.559-10.176l-0.158,5.162c-10.941,3.875-22.703,6.971-35.014,9.131
					c-11.666,3.002-11.777,8.068-13.193,17.352c-1.539,0.271-3.084,0.529-4.639,0.771c1.436-9.51,3.199-21.08,3.994-25.856
					c0.51-3.056,6.369-4.662,8.939-4.947c14.18-2.084,27.09-5.107,40.258-9.559C183.823,137.597,183.794,139.054,183.759,140.501z" class="color c1"/>
        </g>
      </g>
      <path fill="#4B2D61" d="M92.834,141.207v3c0,0.923,0.745,1.666,1.665,1.666h4.954c0.92,0,1.666-0.743,1.666-1.666v-3
			c0-0.922-0.746-1.668-1.666-1.668h-4.954C93.579,139.539,92.834,140.285,92.834,141.207z" class="color c1"/>
      <path fill="#4B2D61" d="M106.874,157.845H93.443c-0.354,0-0.646,0.289-0.646,0.647v0.414c0,0.355,0.291,0.65,0.646,0.65h13.433
			c0.354,0,0.645-0.293,0.645-0.65v-0.414C107.519,158.136,107.232,157.845,106.874,157.845z" class="color c1"/>
      <path fill="#4B2D61" d="M159.13,38.286c-7.393-4.15-15.205-8.057-23.389-11.676c7.592,16.727,22.082,27.998,40.854,33.035
			c-9.531-20.894-25.104-37.265-45.078-45.974c0.301,1.404,0.646,2.779,1.021,4.125C142.716,22.644,151.675,29.626,159.13,38.286z" class="color c1"/>
      <path fill="#4B2D61" d="M33.752,38.286c7.391-4.15,15.204-8.057,23.389-11.676c-7.593,16.727-22.083,27.999-40.854,33.036
			c9.528-20.895,25.103-37.266,45.077-45.975c-0.301,1.404-0.646,2.779-1.021,4.125C50.164,22.644,41.207,29.626,33.752,38.286z" class="color c1"/>
      <path fill="#4B2D61" d="M106.874,166.4H93.443c-0.354,0-0.646,0.286-0.646,0.646v0.414c0,0.354,0.291,0.647,0.646,0.647h13.433
			c0.354,0,0.645-0.293,0.645-0.647v-0.414C107.519,166.69,107.232,166.4,106.874,166.4z" class="color c1"/>
      <path fill="#4B2D61" d="M106.874,170.673H93.443c-0.354,0-0.646,0.291-0.646,0.646v0.418c0,0.357,0.291,0.646,0.646,0.646h13.433
			c0.354,0,0.645-0.287,0.645-0.646v-0.418C107.519,170.966,107.232,170.673,106.874,170.673z" class="color c1"/>
      <path fill="#4B2D61" d="M106.874,162.119H93.443c-0.354,0-0.646,0.289-0.646,0.65v0.412c0,0.359,0.291,0.652,0.646,0.652h13.433
			c0.354,0,0.645-0.293,0.645-0.652v-0.412C107.519,162.412,107.232,162.119,106.874,162.119z" class="color c1"/>
      <path fill="#4B2D61" d="M106.874,174.945H93.443c-0.354,0-0.646,0.291-0.646,0.649v0.414c0,0.356,0.291,0.647,0.646,0.647h13.433
			c0.354,0,0.645-0.289,0.645-0.647v-0.414C107.519,175.238,107.232,174.945,106.874,174.945z" class="color c1"/>
      <path fill="#4B2D61" d="M94.499,155.095h4.954c0.92,0,1.666-0.744,1.666-1.664v-3.002c0-0.92-0.746-1.664-1.666-1.664h-4.954
			c-0.92,0-1.665,0.744-1.665,1.664v3.002C92.834,154.351,93.579,155.095,94.499,155.095z" class="color c1"/>
      <path fill="#4B2D61" d="M88.29,139.539h-4.952c-0.92,0-1.665,0.746-1.665,1.668v3c0,0.923,0.745,1.666,1.665,1.666h4.952
			c0.921,0,1.666-0.743,1.666-1.666v-3C89.956,140.285,89.211,139.539,88.29,139.539z M85.765,144.908
			c-1.223,0-2.213-0.992-2.213-2.211c0-1.226,0.99-2.218,2.213-2.218c1.226,0,2.215,0.992,2.215,2.218
			C87.98,143.916,86.99,144.908,85.765,144.908z" class="color c1"/>
      <path fill="#4B2D61" d="M97.708,51.126H96.24c-6.142,0.029-11.809,0.397-17.024,1.063c-24.023,1.838-39.597,15.934-39.597,15.934
			l-0.731,0.684l0.008,0.01c-7.736,7.414-11.142,16.17-11.142,24.244c0,13.771,3.59,33.854,58.976,36.029l20.116,0.014
			c55.746-2.1,59.355-22.243,59.355-36.043C166.198,74.093,147.472,51.354,97.708,51.126z M117.447,125.943
			c-0.063,0.006-0.109-0.013-0.166-0.017c-0.846,0.139-12.451,1.916-41.394-0.078c-0.061,0.006-0.113,0.022-0.182,0.019
			c-43.769-4.185-45.457-21.816-45.458-32.806c0-6.725,2.678-14.363,9.047-21.111l-0.004-0.002c0,0,0.044-0.045,0.106-0.109
			c0.058-0.061,0.107-0.119,0.164-0.178c0.041-0.041,0.082-0.076,0.124-0.107c2.705-2.617,19.532-17.619,50.177-17.756
			c2.074-0.096,4.198-0.158,6.395-0.168h1.458c49.137,0.227,65.988,22.498,65.988,39.434
			C163.702,104.123,161.991,121.896,117.447,125.943z" class="color c1"/>
      <path fill="#4B2D61" d="M122.454,81.743c0,0,4.668,4.094,5.471,7.152C127.925,88.896,128.499,83.425,122.454,81.743z" class="color c1"/>
      <path fill="#4B2D61" d="M115.896,110.81c0,0,2.277,1.996,2.668,3.488C118.564,114.298,118.843,111.63,115.896,110.81z" class="color c1"/>
      <path fill="#4B2D61" d="M99.581,91.888c0,0,2.398,2.104,2.813,3.676C102.394,95.563,102.689,92.753,99.581,91.888z" class="color c1"/>
      <path fill="#4B2D61" d="M97.71,55.294H96.26c-1.856,0.008-3.655,0.059-5.425,0.129c0,0-26.663-2.119-50.071,17.393
			c-6.285,6.523-8.85,13.877-8.85,20.246c0,10.091,0.996,27.039,43.95,31.146c0.013,0.003,0.021,0.009,0.032,0.011l0.004-0.037
			c0,0,25.71,1.392,41.437,0.08c0,0,0.016,0.008,0.039,0.021c43.662-3.99,44.656-21.078,44.656-31.218
			C162.032,77.468,146.427,55.519,97.71,55.294z M77.025,75.69c0,0-8.44,12.656-10.944,19.262c-0.013,0.031-0.023,0.063-0.035,0.092
			c-2.449,6.58-10.191,14.578-21.445,17.191c0,0-15.182-12.802-3.646-32.519c0,0,19.085-26.725,65.422-18.5
			C106.374,61.218,86.517,64.175,77.025,75.69z M103.152,99.839c-0.982-7.709-6.175-8.416-6.175-8.416
			c5.505-0.709,6.175-8.416,6.175-8.416c0.668,8.1,6.174,8.416,6.174,8.416C103.347,92.406,103.152,99.839,103.152,99.839z
			 M119.282,118.354c-0.934-7.313-5.859-7.985-5.859-7.985c5.225-0.672,5.859-7.986,5.859-7.986
			c0.635,7.688,5.857,7.986,5.857,7.986C119.47,111.302,119.282,118.354,119.282,118.354z M129.398,97.212
			c-1.912-14.996-12.012-16.373-12.012-16.373c10.711-1.379,12.012-16.373,12.012-16.373c1.303,15.762,12.014,16.373,12.014,16.373
			C129.781,82.751,129.398,97.212,129.398,97.212z" class="color c1"/>
    </g>
  </g>
</svg>