<svg version="1.1" id="图层_1" x="0px" y="0px" width="58.227px" height="72.604px" viewBox="0 0 58.227 72.604" enable-background="new 0 0 58.227 72.604" xml:space="preserve" xmlns="http://www.w3.org/2000/svg" xmlns:xlink="http://www.w3.org/1999/xlink" xmlns:xml="http://www.w3.org/XML/1998/namespace">
  <path fill="#2F16A8" d="M58.225,9.203C58.181,2.881,43.114,0,29.113,0S0.046,2.881,0.002,9.203H0v18.048v0.027v18.021v0.027v18.048
	c0,6.341,15.092,9.229,29.113,9.229s29.113-2.889,29.113-9.229V45.326v-0.027V27.278v-0.027V9.203H58.225z M29.113,4
	c16.089,0,24.864,3.647,25.107,5.214c-0.243,1.572-9.019,5.22-25.107,5.22c-16.086,0-24.858-3.645-25.106-5.215
	C4.255,7.645,13.027,4,29.113,4z M29.113,68.604c-16.134,0-24.916-3.668-25.113-5.229V50.313c5.417,2.889,15.515,4.243,25.113,4.243
	s19.696-1.354,25.113-4.243v13.058C54.028,64.936,45.246,68.604,29.113,68.604z M29.113,50.529c-16.129,0-24.914-3.668-25.113-5.23
	V32.266c5.417,2.889,15.515,4.243,25.113,4.243s19.696-1.354,25.113-4.243v13.03C54.026,46.861,45.241,50.529,29.113,50.529z
	 M29.113,32.48C12.979,32.48,4.197,28.813,4,27.251V14.218c5.417,2.889,15.515,4.243,25.113,4.243s19.696-1.354,25.113-4.243v13.03
	C54.028,28.813,45.246,32.48,29.113,32.48z" class="color c1"/>
</svg>