<svg version="1.1" id="图层_1" x="0px" y="0px" width="126.829px" height="185.429px" viewBox="0 0 126.829 185.429" enable-background="new 0 0 126.829 185.429" xml:space="preserve" xmlns="http://www.w3.org/2000/svg" xmlns:xlink="http://www.w3.org/1999/xlink" xmlns:xml="http://www.w3.org/XML/1998/namespace">
  <g>
    <g>
      <path fill="#0E78D0" d="M18.553,108.275C-6.184,83.538-6.184,43.29,18.552,18.553s64.986-24.737,89.723,0s24.737,64.986,0,89.723
			S43.29,133.012,18.553,108.275z M97.777,29.052c-18.948-18.948-49.776-18.948-68.724,0s-18.948,49.776,0,68.724
			s49.776,18.948,68.724,0S116.724,47.999,97.777,29.052z" class="color c1"/>
    </g>
    <path fill="#0E78D0" d="M66.851,185.429h-3.848c-3.038,0-5.5-2.462-5.5-5.5v-48.495h14.848v48.495
		C72.351,182.967,69.889,185.429,66.851,185.429z" class="color c1"/>
  </g>
</svg>