<svg version="1.1" id="图层_1" x="0px" y="0px" width="114.374px" height="114.375px" viewBox="0 0 114.374 114.375" enable-background="new 0 0 114.374 114.375" xml:space="preserve" xmlns="http://www.w3.org/2000/svg" xmlns:xlink="http://www.w3.org/1999/xlink" xmlns:xml="http://www.w3.org/XML/1998/namespace">
  <path fill="#D0D2D4" d="M99.668,89.483c-2.737-2.737-6.057-6.057-8.538-8.539c-13.121-13.121-13.125-34.395,0-47.516
	c2.481-2.481,5.801-5.801,8.538-8.538l9.05,9.05l5.656-5.656L86.091,0l-5.657,5.656l9.052,9.052
	c-2.737,2.737-6.057,6.057-8.538,8.538c-13.123,13.122-34.396,13.121-47.519-0.001c-2.481-2.482-5.801-5.801-8.538-8.539l9.051-9.05
	L28.284,0L0,28.284l5.657,5.656l9.051-9.051c2.737,2.737,6.057,6.057,8.539,8.539c13.121,13.122,13.121,34.396-0.001,47.519
	c-2.481,2.482-5.801,5.801-8.537,8.538l-9.052-9.052L0,86.089l28.284,28.285l5.657-5.656l-9.051-9.051
	c2.737-2.737,6.057-6.057,8.538-8.539c13.123-13.121,34.395-13.123,47.519,0c2.482,2.482,5.802,5.801,8.538,8.538l-9.052,9.052
	l5.657,5.656l28.283-28.285l-5.656-5.656L99.668,89.483z" class="color c1"/>
  <path fill="#FFFFFF" d="M71.315,43.059c7.79,7.791,7.791,20.468,0,28.258c-7.791,7.789-20.467,7.789-28.257-0.001
	c-7.791-7.789-7.792-20.467-0.001-28.259C50.849,35.267,63.524,35.268,71.315,43.059z" class="color c2"/>
  <circle fill="#FE3353" cx="57.187" cy="57.188" r="14.491" class="color c3"/>
</svg>