<svg version="1.1" id="图层_1" x="0px" y="0px" width="119.613px" height="120.055px" viewBox="0 0 119.613 120.055" enable-background="new 0 0 119.613 120.055" xml:space="preserve" xmlns="http://www.w3.org/2000/svg" xmlns:xlink="http://www.w3.org/1999/xlink" xmlns:xml="http://www.w3.org/XML/1998/namespace">
  <path fill="#51E5A5" d="M30.249,58.357c-10.638,0-20.828-1.914-30.249-5.41C3.505,23.135,28.842,0,59.598,0
	c17.167,0,32.638,7.218,43.579,18.77C87.667,42.599,60.799,58.357,30.249,58.357z M22.523,107.226
	c10.207,8.032,23.078,12.829,37.075,12.829c26.807,0,49.503-17.575,57.211-41.83C86.75,93.717,55.308,103.414,22.523,107.226z
	 M119.613,59.627c-0.062-9.377-2.273-18.241-6.167-26.129C92.875,57.293,62.468,72.35,28.545,72.35
	c-9.79,0-19.286-1.257-28.338-3.613c1.428,9.823,5.241,18.871,10.822,26.549C55.604,93.034,91.819,81.041,119.613,59.627z" class="color c1"/>
</svg>