<svg version="1.1" id="图层_1" x="0px" y="0px" width="116.557px" height="91.129px" viewBox="0 0 116.557 91.129" enable-background="new 0 0 116.557 91.129" xml:space="preserve" xmlns="http://www.w3.org/2000/svg" xmlns:xlink="http://www.w3.org/1999/xlink" xmlns:xml="http://www.w3.org/XML/1998/namespace">
  <path fill="#F9D13B" d="M65.402,71.525c-1.707,1.59-3.824,2.473-6.355,2.647H0.059V84.59l1.845,3.001
	c30.771,0.031,50.526,0.263,65.042,0.269l9.429-6.519l-8.381-15.016v-0.57C67.992,67.994,67.109,69.938,65.402,71.525z" class="color c1"/>
  <rect x="0" y="84.592" fill="#F8A93E" width="67.992" height="6.537" class="color c2"/>
  <polygon fill="#C7121E" points="48.683,16.954 110.966,15.197 116.557,6.537 116.557,0 0.059,0 0.052,6.537 13.091,46.718 
	10.478,50.686 10.714,50.744 10.655,50.744 41.029,50.79 45.488,24.551 44.571,18.718 " class="color c3"/>
  <path fill="#324395" d="M116.557,61.418c0-7.005-2.825-12.95-8.478-17.896c-5.709-5.003-12.599-7.477-20.662-7.477
	c-0.061,0-9.771,0-29.141-0.059c-2.647,0-4.887-0.765-6.711-2.354c-1.823-1.59-2.824-3.532-2.885-5.77l-20.404,5.521l6.084,21.745
	l14.32,2.197l9.713,0.012c2.649,0,4.945,0.824,6.829,2.474c1.824,1.647,2.769,3.649,2.769,5.944v21.026v4.34
	c12.837,0.006,19.313,0.006,19.426,0.006c7.24,0,13.657-2.061,19.133-6.182c5.354-4.063,8.594-9.185,9.712-15.305
	c0.177-0.531,0.295-1.826,0.295-3.888c0-0.634-0.031-1.256-0.077-1.873C116.529,63.243,116.557,62.423,116.557,61.418z" class="color c4"/>
  <polygon fill="#E20916" points="116.557,23.432 116.557,6.537 0.059,6.537 0,57.223 10.478,57.223 10.714,57.28 10.655,57.28 
	37.414,57.313 48,56.938 48.683,29.122 48.683,23.491 " class="color c5"/>
  <polygon fill="#243267" points="67.992,66.563 67.917,84.592 67.89,91.123 89.634,91.129 " class="color c6"/>
  <polygon fill="#C7121E" points="48.683,29.122 37.414,57.313 48.683,57.327 " class="color c3"/>
</svg>