<svg version="1.1" id="图层_1" x="0px" y="0px" width="96.837px" height="170.09px" viewBox="0 0 96.837 170.09" enable-background="new 0 0 96.837 170.09" xml:space="preserve" xmlns="http://www.w3.org/2000/svg" xmlns:xlink="http://www.w3.org/1999/xlink" xmlns:xml="http://www.w3.org/XML/1998/namespace">
  <path fill="#0092AE" d="M35.673,9.894c0.201,0.336,0.154,0.792,0.161,1.186c0.012,0.465-0.067,0.91-0.334,1.282
	c-0.453,0.627-1.269,0.959-2.046,0.974c-1.736,0.035-3.489,0.045-5.204,0.353c-1.643,0.29-3.145,1.02-4.66,1.68
	c-1.581,0.686-3.52,0.684-5.159,0.231c-0.119-0.034-0.235-0.072-0.348-0.113c-0.04-0.015-0.08-0.033-0.12-0.049
	c-0.073-0.029-0.145-0.057-0.216-0.09c-0.045-0.02-0.088-0.042-0.134-0.065c-0.063-0.029-0.126-0.061-0.189-0.094
	c-0.046-0.025-0.09-0.05-0.136-0.075c-0.059-0.034-0.119-0.067-0.177-0.103c-0.028-0.015-0.054-0.032-0.082-0.049
	c-0.165-0.1-0.329-0.208-0.49-0.317c-0.018-0.012-0.034-0.023-0.051-0.036c-0.166-0.114-0.331-0.23-0.495-0.347
	c-0.162-0.115-0.321-0.229-0.483-0.34c-0.019-0.013-0.036-0.026-0.054-0.038c-0.161-0.111-0.324-0.215-0.488-0.315
	c-0.016-0.009-0.03-0.021-0.047-0.032c-0.01-0.006-0.022-0.012-0.033-0.018c-0.057-0.034-0.117-0.066-0.174-0.1
	c-0.046-0.024-0.092-0.052-0.137-0.075c-0.061-0.032-0.124-0.063-0.185-0.093c-0.046-0.021-0.09-0.043-0.135-0.065
	c-0.069-0.031-0.14-0.058-0.209-0.086c-0.042-0.016-0.081-0.034-0.123-0.049c-0.11-0.041-0.226-0.079-0.342-0.109
	c-0.222-0.061-0.456-0.1-0.704-0.113c-0.154-0.009-0.312,0.003-0.467,0.033c-1.621,0.077-3.172,0.935-4.072,2.429
	c-0.403,0.669-0.633,1.396-0.698,2.127c-0.182,3.097,0.824,5.926,2.538,8.599c0.109,0.116,0.211,0.232,0.312,0.351
	c0.037,0.044,0.075,0.089,0.112,0.135c0.073,0.085,0.144,0.172,0.215,0.256c0.074,0.09,0.146,0.178,0.22,0.266
	c0.04,0.048,0.079,0.094,0.118,0.141c0.063,0.075,0.128,0.147,0.193,0.219c0.037,0.041,0.073,0.083,0.111,0.121
	c0.077,0.083,0.157,0.162,0.237,0.239c0.028,0.027,0.054,0.055,0.083,0.081c0.111,0.101,0.229,0.199,0.355,0.293
	c0.023,0.019,0.052,0.034,0.079,0.054c0.086,0.061,0.17,0.122,0.263,0.177c0.014,0.009,0.031,0.015,0.045,0.022
	c0.172,0.101,0.354,0.196,0.556,0.277c1.387,0.565,2.563,0.415,3.563-0.781c1.64-1.965,0.847-5.384,2.667-7.2
	c0.664-0.661,1.65-1.094,2.58-0.976c4.626,0.579,9.112-0.235,13.498-2.074c0.105-0.046,0.218-0.082,0.331-0.114
	c0.038-0.01,0.076-0.017,0.115-0.025c0.075-0.018,0.152-0.034,0.231-0.046c0.045-0.008,0.092-0.01,0.141-0.014
	c0.07-0.007,0.141-0.015,0.213-0.017c0.051-0.001,0.1,0,0.151,0.002c0.067,0.002,0.137,0.003,0.205,0.009
	c0.051,0.005,0.103,0.012,0.155,0.02c0.067,0.01,0.131,0.02,0.196,0.033c0.051,0.011,0.102,0.024,0.153,0.038
	c0.063,0.016,0.126,0.036,0.189,0.057c0.048,0.015,0.098,0.034,0.144,0.052c0.064,0.026,0.124,0.055,0.183,0.083
	c0.047,0.024,0.092,0.044,0.135,0.071c0.09,0.051,0.178,0.105,0.263,0.169c0.791,0.595,1.239,1.706,1.063,2.679
	c-0.912,4.9-0.646,9.68,1.524,14.257c0.197,0.411,0.089,0.928,0.056,1.382c-0.039,0.534-0.183,1.038-0.53,1.434
	c-0.59,0.673-1.568,0.96-2.461,0.891c-2.005-0.154-4.019-0.339-6.028-0.179c-1.918,0.153-3.729,0.819-5.547,1.408
	c-1.89,0.612-4.119,0.392-5.957-0.316c-0.128-0.049-0.255-0.111-0.38-0.175c-0.038-0.021-0.073-0.042-0.109-0.061
	c-0.076-0.043-0.149-0.088-0.222-0.134c-0.1-0.065-0.201-0.132-0.298-0.203c-0.054-0.039-0.106-0.074-0.161-0.116
	c-0.111-0.084-0.22-0.172-0.331-0.264c-0.037-0.03-0.076-0.06-0.111-0.091c-0.147-0.126-0.293-0.255-0.441-0.389
	c-0.047-0.042-0.092-0.085-0.139-0.129c-0.127-0.118-0.255-0.235-0.382-0.354c-0.111-0.104-0.221-0.204-0.333-0.307
	c-0.057-0.053-0.118-0.107-0.176-0.158c-0.097-0.089-0.196-0.175-0.295-0.26c-0.055-0.048-0.114-0.098-0.169-0.146
	c-0.11-0.09-0.22-0.176-0.331-0.261c-0.045-0.035-0.088-0.07-0.134-0.104c-0.157-0.114-0.314-0.221-0.471-0.316
	c-0.006-0.004-0.01-0.006-0.015-0.009c-0.119-0.072-0.239-0.136-0.363-0.196c-0.028-0.014-0.056-0.028-0.085-0.041
	c-0.13-0.061-0.261-0.115-0.395-0.158c-0.015-0.005-0.034-0.011-0.052-0.016c-0.125-0.04-0.248-0.069-0.379-0.094
	c-0.023-0.003-0.051-0.01-0.074-0.013c-0.136-0.02-0.278-0.031-0.421-0.032c-0.029,0-0.06,0-0.088,0.002
	c-0.148,0.003-0.301,0.015-0.453,0.044c-2.243,0.419-2.455,3.629-2.6,5.396c-0.181,2.178,0.124,4.42,1.022,6.422
	c0.057,0.125,0.11,0.252,0.168,0.38c0.018,0.046,0.038,0.092,0.057,0.137c0.034,0.083,0.071,0.166,0.105,0.249
	c0.05,0.121,0.104,0.243,0.155,0.364c0.022,0.055,0.046,0.11,0.069,0.166c0.033,0.077,0.066,0.155,0.099,0.232
	c0.022,0.054,0.047,0.107,0.069,0.162c0.036,0.077,0.067,0.153,0.103,0.229c0.021,0.052,0.046,0.105,0.069,0.158
	c0.034,0.075,0.068,0.151,0.104,0.225c0.026,0.055,0.054,0.112,0.08,0.167c0.033,0.07,0.068,0.141,0.103,0.211
	c0.026,0.055,0.056,0.111,0.084,0.166c0.036,0.069,0.07,0.137,0.107,0.204c0.029,0.055,0.059,0.108,0.091,0.163
	c0.038,0.066,0.074,0.131,0.112,0.196c0.032,0.052,0.064,0.104,0.097,0.157c0.04,0.063,0.083,0.128,0.122,0.188
	c0.035,0.052,0.07,0.103,0.104,0.152c0.045,0.062,0.086,0.122,0.129,0.179c0.04,0.051,0.076,0.098,0.115,0.146
	c0.045,0.057,0.091,0.113,0.138,0.168c0.041,0.046,0.083,0.092,0.125,0.137c0.046,0.052,0.098,0.107,0.146,0.155
	c0.044,0.045,0.091,0.088,0.135,0.128c0.055,0.049,0.108,0.097,0.16,0.143c0.048,0.041,0.098,0.08,0.146,0.117
	c0.058,0.044,0.114,0.086,0.175,0.13c0.052,0.035,0.104,0.07,0.156,0.104c0.035,0.022,0.064,0.045,0.096,0.064
	c0.059,0.035,0.115,0.067,0.175,0.1c1.522,0.823,2.896,0.799,4.196-0.452c2.138-2.05,1.658-6.086,3.983-7.944
	c0.842-0.679,2.033-1.051,3.088-0.8c5.249,1.25,10.516,0.882,15.793-0.685c0.125-0.037,0.25-0.064,0.379-0.085
	c0.041-0.007,0.083-0.011,0.125-0.015c0.09-0.009,0.179-0.02,0.268-0.024c0.047-0.003,0.097-0.002,0.144-0.003
	c0.088,0.001,0.175,0.004,0.262,0.011c0.046,0.003,0.094,0.007,0.138,0.01c0.1,0.012,0.2,0.028,0.298,0.046
	c0.03,0.007,0.064,0.011,0.094,0.018c0.129,0.029,0.256,0.066,0.377,0.108c0.032,0.011,0.063,0.027,0.097,0.039
	c0.089,0.034,0.18,0.071,0.265,0.113c0.042,0.021,0.083,0.044,0.123,0.064c0.08,0.044,0.157,0.091,0.233,0.139
	c0.033,0.022,0.062,0.041,0.093,0.062c0.102,0.074,0.203,0.151,0.292,0.237c0.833,0.788,1.213,2.12,0.882,3.215
	c-1.665,5.527-1.963,11.063-0.042,16.602c0.169,0.492-0.015,1.078-0.113,1.596c-0.114,0.609-0.34,1.169-0.79,1.584
	c-0.767,0.698-1.929,0.904-2.945,0.714c-2.288-0.434-4.58-0.899-6.913-0.97c-2.227-0.066-4.396,0.474-6.561,0.92
	c-2.253,0.463-4.792-0.069-6.813-1.115c-0.124-0.063-0.242-0.133-0.36-0.206c-0.215-0.13-0.417-0.273-0.611-0.423
	c-0.033-0.026-0.066-0.05-0.1-0.077c-0.19-0.15-0.369-0.308-0.547-0.474c-0.031-0.028-0.063-0.06-0.094-0.09
	c-0.176-0.167-0.347-0.339-0.517-0.515c-0.025-0.027-0.052-0.055-0.078-0.083c-0.168-0.179-0.334-0.357-0.503-0.54
	c-0.167-0.181-0.335-0.363-0.505-0.542c-0.027-0.03-0.055-0.06-0.083-0.089c-0.167-0.174-0.337-0.345-0.509-0.51
	c-0.035-0.033-0.065-0.062-0.097-0.092c-0.177-0.165-0.355-0.322-0.543-0.472c-0.031-0.024-0.061-0.046-0.094-0.071
	c-0.194-0.151-0.396-0.293-0.607-0.423c-0.006-0.004-0.012-0.01-0.019-0.014c-0.112-0.067-0.231-0.131-0.349-0.193
	c-0.273-0.14-0.569-0.255-0.89-0.342c-0.202-0.056-0.409-0.083-0.622-0.085c-4.65-0.748-5.396,4.833-4.769,9.371
	c0.123,2.683,1.135,5.478,1.737,8.085c0.034,0.145,0.074,0.291,0.114,0.436c0.012,0.037,0.021,0.071,0.032,0.105
	c0.045,0.148,0.09,0.293,0.145,0.438c0.002,0.004,0.003,0.009,0.005,0.014c0.05,0.137,0.109,0.273,0.168,0.409
	c0.017,0.033,0.03,0.068,0.046,0.101c0.063,0.137,0.132,0.272,0.208,0.405c0.006,0.009,0.012,0.018,0.018,0.027
	c0.07,0.122,0.145,0.24,0.225,0.354c0.022,0.031,0.043,0.06,0.064,0.09c0.087,0.12,0.179,0.236,0.277,0.346
	c0.01,0.01,0.021,0.019,0.032,0.03c0.089,0.099,0.188,0.192,0.29,0.28c0.027,0.023,0.051,0.044,0.079,0.066
	c0.113,0.092,0.232,0.178,0.359,0.256c0.005,0.003,0.007,0.004,0.01,0.006c0.045,0.027,0.097,0.051,0.143,0.077
	c0.045,0.024,0.087,0.049,0.133,0.071c0.055,0.026,0.115,0.048,0.173,0.071c0.045,0.019,0.088,0.039,0.134,0.054
	c0.066,0.023,0.136,0.04,0.206,0.06c0.042,0.011,0.083,0.024,0.127,0.035c0.114,0.026,0.232,0.047,0.352,0.06
	c0.976,0.113,2.33,0.398,3.221-0.018c0.953-0.45,1.602-1.637,2.049-2.531c0.961-1.914,1.477-4.379,3.413-5.593
	c0.979-0.615,2.285-0.864,3.369-0.472c5.409,1.963,11.032,2.216,16.814,1.202c0.188-0.032,0.378-0.044,0.57-0.046
	c0.05,0,0.104,0.001,0.157,0.004c0.159,0.007,0.316,0.023,0.476,0.049c0.037,0.007,0.072,0.01,0.108,0.017
	c0.187,0.038,0.372,0.091,0.552,0.158c0.045,0.016,0.086,0.036,0.13,0.054c0.143,0.059,0.28,0.125,0.415,0.201
	c0.045,0.026,0.093,0.05,0.136,0.077c0.094,0.06,0.184,0.126,0.271,0.194c0.042,0.032,0.087,0.063,0.128,0.098
	c0.123,0.106,0.242,0.219,0.343,0.343c0.789,0.935,1.029,2.394,0.546,3.514c-2.438,5.653-3.426,11.479-2.068,17.579
	c0.121,0.548-0.147,1.142-0.313,1.679c-0.194,0.632-0.502,1.201-1.03,1.577c-0.892,0.648-2.15,0.723-3.204,0.398
	c-2.369-0.737-4.744-1.512-7.204-1.868c-2.356-0.343-4.715-0.034-7.063,0.175c-0.294,0.026-0.593,0.034-0.891,0.029
	c-0.099-0.002-0.196-0.012-0.294-0.015c-0.201-0.011-0.401-0.02-0.602-0.042c-0.118-0.013-0.231-0.032-0.351-0.049
	c-0.18-0.027-0.363-0.053-0.543-0.09c-0.122-0.024-0.245-0.054-0.368-0.084c-0.173-0.039-0.346-0.081-0.518-0.129
	c-0.125-0.036-0.248-0.076-0.371-0.115c-0.167-0.055-0.333-0.109-0.498-0.169c-0.121-0.045-0.245-0.093-0.367-0.144
	c-0.16-0.065-0.32-0.132-0.477-0.205c-0.121-0.054-0.238-0.109-0.354-0.166c-0.156-0.077-0.306-0.157-0.459-0.24
	c-0.111-0.061-0.222-0.12-0.333-0.185c-0.224-0.132-0.445-0.265-0.659-0.408c-2.256-1.516-3.132-4.297-5.364-5.781
	c-0.059-0.039-0.118-0.077-0.176-0.113c-0.054-0.032-0.112-0.061-0.168-0.092c-0.042-0.024-0.084-0.046-0.125-0.068
	c-0.14-0.071-0.28-0.137-0.431-0.197c-0.206-0.083-0.424-0.136-0.647-0.167c-0.718-0.2-1.464-0.288-2.209-0.261
	c-5.382,1.834-0.819,16.353,0.289,19.349c0.098,0.265,0.175,0.488,0.246,0.682c0.364,0.729,0.834,1.427,1.613,2.058
	c0.173,0.141,0.346,0.263,0.52,0.379c0.036,0.023,0.075,0.049,0.109,0.071c0.033,0.021,0.065,0.044,0.095,0.063
	c0.109,0.065,0.219,0.118,0.327,0.173c0.051,0.026,0.097,0.055,0.144,0.075c0.182,0.084,0.366,0.154,0.551,0.209
	c0.045,0.013,0.087,0.019,0.133,0.03c0.141,0.035,0.283,0.064,0.425,0.082c0.068,0.008,0.133,0.009,0.202,0.013
	c0.122,0.006,0.245,0.009,0.371,0.002c0.073-0.003,0.144-0.013,0.218-0.021c0.122-0.017,0.243-0.04,0.366-0.07
	c0.075-0.016,0.147-0.033,0.221-0.056c0.135-0.038,0.268-0.093,0.402-0.148c0.064-0.027,0.128-0.05,0.192-0.081
	c0.2-0.097,0.4-0.206,0.604-0.34c2.87-1.883,3.187-6.585,6.231-8.209c1.109-0.588,2.545-0.759,3.691-0.25
	c5.72,2.545,11.8,3.247,18.152,2.589c0.189-0.019,0.379-0.02,0.572-0.008c0.058,0.002,0.117,0.01,0.177,0.016
	c0.133,0.013,0.27,0.033,0.404,0.06c0.063,0.013,0.125,0.026,0.188,0.043c0.145,0.037,0.286,0.082,0.424,0.132
	c0.044,0.018,0.09,0.032,0.131,0.048c0.181,0.074,0.353,0.159,0.519,0.258c0.125,0.074,0.242,0.152,0.354,0.237
	c0.027,0.02,0.052,0.043,0.078,0.063c0.093,0.073,0.179,0.15,0.26,0.23c0.032,0.03,0.06,0.057,0.087,0.087
	c0.103,0.106,0.199,0.215,0.283,0.332c0.781,1.072,0.933,2.675,0.325,3.855c-3.082,5.945-4.604,12.188-3.593,18.914
	c0.089,0.601-0.249,1.227-0.469,1.798c-0.256,0.671-0.634,1.264-1.237,1.637c-1.02,0.636-2.39,0.622-3.508,0.188
	c-2.514-0.978-5.028-2-7.672-2.578c-2.525-0.555-5.112-0.397-7.676-0.35c-0.307,0.006-0.613-0.008-0.923-0.034
	c-0.096-0.008-0.191-0.021-0.286-0.03c-0.216-0.024-0.431-0.053-0.646-0.09c-0.107-0.019-0.213-0.039-0.317-0.06
	c-0.217-0.045-0.432-0.096-0.645-0.151c-0.092-0.025-0.183-0.048-0.273-0.073c-0.303-0.088-0.603-0.185-0.895-0.295
	c-0.004-0.001-0.007-0.003-0.009-0.003c-0.293-0.111-0.58-0.234-0.863-0.365c-0.089-0.042-0.176-0.086-0.263-0.128
	c-0.201-0.098-0.396-0.197-0.588-0.302c-0.094-0.051-0.186-0.104-0.279-0.157c-0.192-0.11-0.379-0.226-0.563-0.345
	c-0.081-0.052-0.16-0.102-0.236-0.153c-0.258-0.173-0.509-0.351-0.747-0.536c-2.333-1.819-3.072-4.902-5.377-6.683
	c-0.148-0.114-0.305-0.221-0.472-0.322c-0.006-0.005-0.013-0.009-0.02-0.013c-0.146-0.088-0.295-0.169-0.451-0.243
	c-0.22-0.105-0.453-0.18-0.691-0.23c-2.368-0.847-5.101-0.536-7.274,1.073c-0.975,0.721-1.735,1.627-2.265,2.635
	c-2.091,4.331-2.325,8.984-1.45,13.831c0.733,1.933,0.879,3.798,2.6,5.495c0.198,0.194,0.398,0.373,0.6,0.534
	c0.004,0.004,0.009,0.008,0.015,0.013c0.197,0.156,0.399,0.295,0.599,0.417c0.009,0.005,0.016,0.012,0.022,0.016
	c0.003,0.002,0.007,0.003,0.009,0.004c0.146,0.088,0.292,0.164,0.439,0.232c0.034,0.015,0.07,0.032,0.104,0.046
	c0.137,0.06,0.276,0.114,0.417,0.158c0.013,0.005,0.028,0.011,0.036,0.013c0.152,0.046,0.305,0.08,0.46,0.106
	c0.038,0.006,0.075,0.012,0.11,0.017c0.147,0.021,0.296,0.035,0.447,0.038c0.009,0,0.02,0.001,0.031,0.002
	c0.155,0,0.318-0.01,0.482-0.028c0.041-0.004,0.079-0.009,0.12-0.017c0.159-0.022,0.32-0.051,0.483-0.094
	c0.008-0.002,0.013-0.003,0.019-0.005c0.168-0.044,0.34-0.103,0.512-0.169c0.042-0.017,0.087-0.034,0.129-0.052
	c0.176-0.072,0.351-0.151,0.531-0.245c3.517-1.845,4.405-7.215,8.088-8.742c1.342-0.554,3.013-0.592,4.274,0.126
	c6.288,3.566,13.206,5.062,20.583,5.018c0.195-0.002,0.393,0.014,0.589,0.039c0.067,0.01,0.132,0.028,0.196,0.039
	c0.13,0.022,0.259,0.047,0.391,0.082c0.076,0.022,0.15,0.05,0.226,0.075c0.114,0.038,0.228,0.076,0.341,0.123
	c0.077,0.032,0.154,0.07,0.231,0.108c0.103,0.049,0.208,0.102,0.308,0.159c0.09,0.052,0.177,0.108,0.26,0.163
	c0.065,0.043,0.129,0.084,0.19,0.13c0.092,0.068,0.174,0.139,0.258,0.212c0.057,0.046,0.112,0.09,0.164,0.14
	c0.088,0.084,0.167,0.176,0.246,0.265c0.042,0.046,0.084,0.088,0.122,0.135c0.112,0.14,0.218,0.29,0.311,0.446
	c0.776,1.322,0.768,3.18-0.066,4.467c-4.206,6.493-6.655,13.501-6.256,21.348c0.002,0.03-0.009,0.059-0.009,0.089
	c18.071-6.929,34.063-19.69,44.823-37.554C109.565,89.958,95.841,34.651,53.263,9.003C46.778,5.097,39.996,2.116,33.071,0
	C33.073,3.477,33.814,6.799,35.673,9.894z" class="color c1"/>
</svg>