<svg version="1.1" id="图层_1" x="0px" y="0px" width="61.968px" height="135.096px" viewBox="0 0 61.968 135.096" enable-background="new 0 0 61.968 135.096" xml:space="preserve" xmlns:xml="http://www.w3.org/XML/1998/namespace" xmlns="http://www.w3.org/2000/svg" xmlns:xlink="http://www.w3.org/1999/xlink">
  <path fill="#7C1D39" d="M51.691,4.338c0,12.563-0.252,22.134-0.758,28.699c-0.51,6.567-1.406,11.248-2.691,14.039
	c-1.289,2.795-3.16,4.314-5.619,4.569c0,0-8.518,0.353-9.051,10.998c0,0-0.514,30.737,3.736,52.177c0,0,1.209,4.613,9.5,9.862
	l3.469,2.19l0.615,0.352c4.205,2.01,11.076,7.868,11.076,7.868H0c0,0,6.87-5.858,11.075-7.868l0.615-0.352l3.468-2.19
	c8.291-5.249,9.5-9.862,9.5-9.862c4.25-21.438,3.736-52.177,3.736-52.177c-0.532-10.646-9.051-10.998-9.051-10.998
	c-2.458-0.255-4.329-1.774-5.618-4.569c-1.287-2.791-2.182-7.472-2.691-14.039c-0.506-6.565-0.724-20.009-0.724-32.572
	c0,0,8.635-3.043,25.396,6.44C35.707,6.906,46.322,13.65,51.691,4.338z" class="color c1"/>
  <path fill="#D1776F" d="M14.151,5.32c0,0,2.279-0.961,6.687,0.771c0,0-5.23,26.894-4.68,35.354
	C16.158,41.445,13.836,33.182,14.151,5.32z" class="color c2"/>
</svg>