<svg version="1.1" id="图层_1" x="0px" y="0px" width="138.346px" height="187.904px" viewBox="0 0 138.346 187.904" enable-background="new 0 0 138.346 187.904" xml:space="preserve" xmlns="http://www.w3.org/2000/svg" xmlns:xlink="http://www.w3.org/1999/xlink" xmlns:xml="http://www.w3.org/XML/1998/namespace">
  <path fill="#F055A8" d="M28.816,66.22c4.086,7.559,10.009,14.188,18.084,18.757c5.876,3.324,12.178,5.192,18.49,5.741l-0.036,97.184
	l7.167,0.002l0.038-97.126c14.664-1.049,28.55-9.177,36.376-23.011c0.423-0.744,0.843-1.49,1.142-2.306
	c-11.354,2.104-25.544,3.423-40.822,3.471C54.105,69.05,40.22,68.083,28.816,66.22z" class="color c1"/>
  <path fill="#F055A8" d="M115.798,33.611c7.841,4.108,16.1,10.092-1.216,13.739c0.656-16.517-7.521-32.782-22.8-41.426
	C69.92-6.442,42.178,1.147,29.743,23.132c-4.639,8.197-6.19,17.319-5.619,26.171c-18.475-2.418-13.045-7.379-2.456-14.504
	C7.647,37.849,0.107,41.615,0,46.148c0.002,8.692,31.149,15.655,69.259,15.243c38.481-0.202,69.336-7.506,69.084-16.339
	C138.326,40.454,129.652,36.365,115.798,33.611z" class="color c1"/>
</svg>