<svg version="1.1" id="图层_1" x="0px" y="0px" width="99.219px" height="99.141px" viewBox="0 0 99.219 99.141" enable-background="new 0 0 99.219 99.141" xml:space="preserve" xmlns:xml="http://www.w3.org/XML/1998/namespace" xmlns="http://www.w3.org/2000/svg" xmlns:xlink="http://www.w3.org/1999/xlink">
  <path fill="#0EAAC9" d="M99.092,78.668c0,11.312-9.17,20.48-20.48,20.48H57.172c-8.771-3.812-16.669-9.216-17.229-18.244l0.167-8.75
	c-0.53-5.35-1.89-10.724-1-14.084l1.508,0.107l37.994-0.002C89.922,58.177,99.092,67.347,99.092,78.668z" class="color c1"/>
  <path fill="#60B85B" d="M40.985,20.492v37.68c-0.01,0.012-0.01,0.012-0.01,0.021l-0.021,2.08l-22.302-0.786
	C9.202,59.209,0.685,48.063,0.065,41.822L0,41.351l0.005-20.859c0-11.32,9.17-20.49,20.49-20.49
	C31.804,0.002,40.974,9.172,40.985,20.492z" class="color c2"/>
  <polygon fill="#1CA394" points="40.985,58.172 41.074,58.172 40.985,58.172 40.985,58.072 " class="color c3"/>
  <path fill="#1CA394" d="M57.555,99.142h-0.25c-8.771-3.812-15.771-9.892-16.331-18.92v-8.222c-0.53-5.35-0.89-10.449,0-13.81V58.17
	h-21.97c-9.45-0.278-18.32-10.108-18.94-16.35v-0.66h0.04c0,0.14,0.02,0.3,0.03,0.46c0.01,0.061,0.02,0.13,0.03,0.19
	c0.31,3.12,2.66,7.08,6.13,10.35c2.27,2.13,6.94,5.74,12.72,5.91h21.97v0.1h0.09v0.052c-0.92,3.448-0.48,8.908,0,13.77v8.23
	c0.62,9.979,9.19,15.75,16.27,18.829L57.555,99.142z" class="color c3"/>
  <path fill="#1CA394" d="M40.975,80.222V58.191V58.17h-21.97C9.555,57.89,0.685,48.06,0.065,41.82v-0.66h-0.06l0.18,41.771
	c0,6.1,3.38,11.408,8.35,14.18c2.29,1.22,4.9,1.93,7.68,1.93l21.46,0.05l18.09,0.052h1.54
	C48.534,95.332,41.534,89.252,40.975,80.222z" class="color c3"/>
</svg>