<svg version="1.1" id="图层_1" x="0px" y="0px" width="122.988px" height="147.332px" viewBox="0 0 122.988 147.332" enable-background="new 0 0 122.988 147.332" xml:space="preserve" xmlns="http://www.w3.org/2000/svg" xmlns:xlink="http://www.w3.org/1999/xlink" xmlns:xml="http://www.w3.org/XML/1998/namespace">
  <path fill="#FFFFFF" d="M61.252,0c-6.06,0-10.989,4.925-10.989,10.979c0,5.195,3.633,9.549,8.489,10.685v125.625h5V21.663
	c4.853-1.137,8.479-5.49,8.479-10.685C72.23,4.925,67.306,0,61.252,0z M61.252,16.962c-3.303,0-5.989-2.684-5.989-5.983
	C55.262,7.682,57.949,5,61.252,5c3.296,0,5.979,2.682,5.979,5.979C67.23,14.278,64.548,16.962,61.252,16.962z M37.824,33.008
	c4.847-1.14,8.469-5.491,8.469-10.684c0-6.054-4.924-10.979-10.977-10.979c-6.058,0-10.984,4.925-10.984,10.979
	c0,5.198,3.635,9.556,8.492,10.688l0.105,27.834l15.182,15.12v38.162L32.162,99.352v-9.987c4.854-1.135,8.484-5.486,8.484-10.68
	c0-6.057-4.929-10.984-10.984-10.984c-6.053,0-10.977,4.928-10.977,10.984c0,5.191,3.627,9.543,8.477,10.68v5.354L13.48,82.042
	V56.765c4.854-1.136,8.481-5.491,8.481-10.688c0-6.053-4.925-10.978-10.979-10.978C4.928,35.1,0,40.024,0,46.077
	c0,5.194,3.628,9.548,8.48,10.686v27.463l39.631,36.72v26.343h5V73.89L37.922,58.763L37.824,33.008z M29.332,22.324
	c0-3.296,2.686-5.979,5.984-5.979c3.296,0,5.977,2.683,5.977,5.979c0,3.3-2.681,5.984-5.977,5.984
	C32.017,28.309,29.332,25.624,29.332,22.324z M5,46.077c0-3.296,2.686-5.978,5.984-5.978c3.297,0,5.979,2.682,5.979,5.978
	c0,3.3-2.682,5.984-5.979,5.984C7.685,52.062,5,49.377,5,46.077z M23.686,78.685c0-3.301,2.681-5.984,5.977-5.984
	c3.3,0,5.984,2.685,5.984,5.984c0,3.296-2.686,5.979-5.984,5.979C26.366,84.662,23.686,81.98,23.686,78.685z M112.004,35.141
	c-6.053,0-10.979,4.925-10.979,10.979c0,5.196,3.629,9.551,8.481,10.686v25.279L95.826,94.762v-5.354
	c4.85-1.137,8.478-5.488,8.478-10.681c0-6.057-4.925-10.984-10.978-10.984c-6.057,0-10.984,4.928-10.984,10.984
	c0,5.192,3.632,9.545,8.484,10.681v9.987l-15.949,14.778V76.009L90.058,60.89l0.104-27.835c4.857-1.134,8.492-5.49,8.492-10.688
	c0-6.053-4.928-10.978-10.984-10.978c-6.053,0-10.977,4.925-10.977,10.978c0,5.191,3.623,9.544,8.469,10.684l-0.098,25.754
	L69.876,73.933v73.398h5V120.99l39.631-36.722V56.805c4.854-1.138,8.481-5.492,8.481-10.685
	C122.988,40.066,118.06,35.141,112.004,35.141z M81.695,22.366c0-3.296,2.682-5.978,5.977-5.978c3.302,0,5.984,2.682,5.984,5.978
	c0,3.3-2.684,5.984-5.984,5.984C84.376,28.351,81.695,25.666,81.695,22.366z M87.341,78.727c0-3.3,2.687-5.984,5.984-5.984
	c3.297,0,5.977,2.684,5.977,5.984c0,3.296-2.68,5.979-5.977,5.979C90.027,84.705,87.341,82.022,87.341,78.727z M112.003,52.104
	c-3.297,0-5.979-2.685-5.979-5.983c0-3.297,2.682-5.979,5.979-5.979c3.302,0,5.984,2.682,5.984,5.979
	C117.988,49.419,115.304,52.104,112.003,52.104z" class="color c1"/>
</svg>