<svg version="1.1" id="图层_1" x="0px" y="0px" width="194.779px" height="154.259px" viewBox="0 0 194.779 154.259" enable-background="new 0 0 194.779 154.259" xml:space="preserve" xmlns="http://www.w3.org/2000/svg" xmlns:xlink="http://www.w3.org/1999/xlink" xmlns:xml="http://www.w3.org/XML/1998/namespace">
  <g>
    <path fill="#F15A24" d="M156.677,138.482l23.945,15.777l-25.462-13.189c-0.737-0.381-1.024-1.289-0.643-2.025
		c0.381-0.737,1.288-1.025,2.025-0.643C156.589,138.426,156.635,138.453,156.677,138.482z" class="color c1"/>
    <path fill="#F15A24" d="M166.104,99.801l28.675-0.101l-28.507,3.096c-0.825,0.09-1.566-0.506-1.656-1.331
		c-0.09-0.825,0.506-1.566,1.331-1.656C166,99.805,166.053,99.803,166.104,99.801z" class="color c1"/>
    <path fill="#F15A24" d="M123.752,41.1l15.777-23.945L126.34,42.617c-0.381,0.737-1.289,1.024-2.025,0.643
		c-0.737-0.381-1.024-1.289-0.643-2.025C123.696,41.189,123.723,41.143,123.752,41.1z" class="color c1"/>
    <path fill="#F15A24" d="M91.324,27.958L97.694,0L94.28,28.471c-0.098,0.824-0.847,1.412-1.67,1.312
		c-0.824-0.098-1.412-0.847-1.312-1.67C91.304,28.062,91.313,28.008,91.324,27.958z" class="color c1"/>
    <path fill="#F15A24" d="M58.117,32.221L46.802,5.873l14.006,25.022c0.405,0.724,0.147,1.639-0.577,2.044
		c-0.724,0.405-1.639,0.147-2.044-0.577C58.161,32.315,58.137,32.267,58.117,32.221z" class="color c1"/>
    <path fill="#F15A24" d="M36.552,58.683l-24-15.691L38.06,56.089c0.738,0.379,1.029,1.285,0.65,2.022
		c-0.379,0.737-1.285,1.029-2.022,0.65C36.642,58.737,36.596,58.711,36.552,58.683z" class="color c1"/>
    <path fill="#F15A24" d="M153.181,67.168l23.767-16.044l-21.96,18.44c-0.636,0.534-1.583,0.451-2.116-0.184
		c-0.534-0.636-0.451-1.583,0.184-2.116C153.096,67.23,153.138,67.197,153.181,67.168z" class="color c1"/>
    <path fill="#F15A24" d="M35.85,135.37L9.066,145.609l25.568-12.982c0.739-0.376,1.644-0.08,2.019,0.659
		c0.375,0.739,0.08,1.644-0.659,2.019C35.947,135.33,35.898,135.351,35.85,135.37z" class="color c1"/>
    <path fill="#F15A24" d="M27.997,94.648L0,88.449l28.491,3.241c0.824,0.093,1.417,0.838,1.322,1.662
		c-0.093,0.824-0.838,1.417-1.662,1.322C28.1,94.669,28.047,94.66,27.997,94.648z" class="color c1"/>
  </g>
</svg>