<svg version="1.1" id="图层_1" x="0px" y="0px" width="412.929px" height="500px" viewBox="0 0 412.929 500" enable-background="new 0 0 412.929 500" xml:space="preserve" xmlns:xml="http://www.w3.org/XML/1998/namespace" xmlns="http://www.w3.org/2000/svg" xmlns:xlink="http://www.w3.org/1999/xlink">
  <path fill="#FFFFFF" d="M353.525,348.864l44.848,57.95C352.361,463.891,282.181,500,203.845,500
	c-78.334,0-148.515-36.4-194.524-92.895l59.115-75.422c-26.208-19.804-48.34-45.138-65.23-75.424l-3.203-5.24l2.621-5.534
	c30.285-63.483,103.087-110.658,181.42-117.356c41.061-3.495,80.664,4.077,117.355,21.549l-15.434,19.22
	c-31.16-14.269-64.938-20.093-99.592-17.181c-67.561,5.824-130.752,44.846-158.708,98.136
	c14.852,25.044,34.071,46.011,55.912,62.317l80.373-102.504c9.9-12.522,24.752-19.22,39.895-19.22c8.736,0,17.473,2.33,25.336,6.698
	l21.258,12.231l-15.436,19.219l-18.637-10.192c-11.357-6.698-25.917-3.786-33.779,6.406l-79.5,100.757l0,0l-5.533,6.988
	l-57.659,72.803c41.351,43.39,99.301,70.472,163.658,70.472c64.355,0,122.305-26.791,163.365-70.181l-32.322-41.644L353.525,348.864
	z M407.982,243.448c-20.967-29.703-44.555-53.873-70.473-72.51l61.154-78.043C352.943,36.401,282.763,0,204.136,0
	C125.803,0,55.623,36.401,9.612,92.895l44.846,57.95l19.22-14.852L40.771,94.351c41.06-43.099,99.301-70.181,163.365-70.181
	c64.357,0,122.598,27.082,163.658,70.472l-50.086,63.483l-0.293-0.291l-15.143,19.22c0,0,0.291,0,0.291,0.291l-77.17,97.844
	c-8.152,10.191-22.713,13.104-33.779,6.406l-18.055-10.482l-15.143,19.22l21.258,12.229c7.861,4.66,16.599,6.697,25.334,6.697
	c15.144,0,29.994-6.697,39.896-19.219l78.044-99.884c22.131,15.725,42.516,36.109,60.861,60.862
	c-39.604,63.772-106,101.34-179.383,101.34c-0.293,0-0.875,0-1.166,0c-29.412-0.293-57.949-6.698-83.576-18.639l-15.143,19.512
	c30.286,14.852,63.774,23.006,98.718,23.297c0.584,0,0.875,0,1.457,0c84.74,0,161.037-44.846,204.426-120.27l3.785-6.698
	L407.982,243.448z" class="color c1"/>
</svg>