<svg version="1.1" id="图层_1" x="0px" y="0px" width="86.434px" height="144.996px" viewBox="0 0 86.434 144.996" enable-background="new 0 0 86.434 144.996" xml:space="preserve" xmlns="http://www.w3.org/2000/svg" xmlns:xlink="http://www.w3.org/1999/xlink" xmlns:xml="http://www.w3.org/XML/1998/namespace">
  <path fill="#FFA439" d="M85.333,85.003c-0.206,1.152-1.209,1.99-2.379,1.99h-12.88c-1.339,5.252-3.425,10.284-6.195,14.941
	l9.111,9.111c0.828,0.828,0.943,2.131,0.272,3.093c-4.806,6.892-10.793,12.878-17.685,17.683c-0.96,0.674-2.265,0.559-3.092-0.271
	l-9.111-9.111c-4.657,2.771-9.689,4.857-14.941,6.195v12.881c0,1.17-0.839,2.173-1.991,2.379c-8.273,1.468-16.741,1.468-25.018,0
	c-0.565-0.105-1.068-0.416-1.425-0.863c0.118-0.682,0.298-1.348,0.571-2.015c0.974-2.367,3.304-1.817,5.268-1.485
	c-0.038,0.029-0.073,0.061-0.112,0.09c5.938,0.739,11.949,0.688,17.873-0.16v-12.735c-0.001-1.136,0.79-2.117,1.897-2.358
	c6.016-1.314,11.747-3.691,16.928-7.021c0.956-0.614,2.211-0.479,3.015,0.323l9.012,9.011c5.198-3.863,9.804-8.47,13.668-13.667
	L59.108,104c-0.804-0.803-0.938-2.058-0.323-3.014c3.327-5.181,5.704-10.912,7.021-16.927c0.242-1.108,1.225-1.899,2.359-1.897
	h12.734c0.937-6.412,0.937-12.924,0-19.333H68.164c-1.136,0-2.117-0.789-2.359-1.897c-1.314-6.015-3.692-11.747-7.021-16.927
	c-0.614-0.957-0.479-2.211,0.323-3.015l9.012-9.011c-3.864-5.199-8.471-9.804-13.668-13.668l-9.013,9.011
	c-0.802,0.806-2.059,0.94-3.014,0.324c-5.181-3.328-10.913-5.706-16.928-7.02c-1.107-0.243-1.898-1.225-1.897-2.359V5.529
	C18.379,4.78,13.09,4.647,7.84,5.134C7.899,5.182,4.62,5.44,2.238,5.636C1.87,5.541,1.579,5.376,1.467,5.073
	c-0.25-0.679-0.213-1.446-0.204-2.155c0.007-0.557-0.098-1.302,0.16-1.824l0,0c8.276-1.46,16.743-1.46,25.019,0
	c1.151,0.207,1.99,1.209,1.99,2.379v12.881c5.252,1.337,10.285,3.424,14.941,6.195l9.111-9.112c0.828-0.828,2.132-0.943,3.093-0.272
	c6.892,4.805,12.879,10.792,17.685,17.684c0.67,0.96,0.556,2.263-0.273,3.091l-9.111,9.112c2.771,4.657,4.857,9.689,6.194,14.941
	h12.882c1.17,0,2.173,0.838,2.379,1.991C86.8,68.26,86.8,76.729,85.333,85.003z M16.35,60.655c5.626,1.149,9.667,6.098,9.667,11.84
	c0,5.742-4.041,10.691-9.667,11.838v4.885c8.313-1.204,14.485-8.322,14.501-16.723c-0.016-8.4-6.188-15.52-14.501-16.724V60.655z
	 M16.35,43.617c15.024,1.245,26.584,13.802,26.584,28.878c0,15.075-11.56,27.631-26.584,28.877v4.853v-0.019
	c17.697-1.25,31.416-15.971,31.416-33.711c0-17.741-13.719-32.462-31.416-33.71V43.617z" class="color c1"/>
</svg>