<svg version="1.1" id="图层_1" x="0px" y="0px" width="139.5px" height="158.598px" viewBox="0 0 139.5 158.598" enable-background="new 0 0 139.5 158.598" xml:space="preserve" xmlns="http://www.w3.org/2000/svg" xmlns:xlink="http://www.w3.org/1999/xlink" xmlns:xml="http://www.w3.org/XML/1998/namespace">
  <path fill="#FFFFFF" d="M12.216,128.246c0,3.528,1.235,5.823,3,7.233c4.059-3.881,17.293-16.938,19.058-18.703
	c6.704-7.409,15.88-20.645,14.645-37.76c-1.058-16.059-13.586-28.586-19.232-33.35l-8.117-6.354
	c-7.764,9.883-11.47,22.06-8.117,33.174c0.53,1.589,0.176,3.353-0.706,4.765C9.923,81.664,2.159,91.367,0.218,96.84
	c-0.706,2.115,0.353,4.232,2.47,4.762c0.705,0.179,4.765,1.767,5.294,1.941C13.274,105.309,12.216,117.309,12.216,128.246z
	 M54.918,9.672c0.882-0.178,1.765,0.174,1.939,1.059c0.178,0.884-0.175,1.765-1.058,1.939C43.8,16.201,33.213,22.904,24.92,32.08
	l46.936,37.408c1.767-1.06,3.883-1.765,6.178-1.765c0.529,0,1.059,0,1.588,0.176c6.881-19.586,14.646-42.348,19.232-55.936
	c0.883-2.822-0.353-5.822-3.176-6.883c-6.705-2.646-13.939-4.41-21.527-4.939C51.918-1.27,31.626,7.906,18.039,23.082
	c-0.353,0.354-0.706,0.705-0.882,0.881c-0.529,0.529-0.529,1.412,0.176,1.94l5.117,4.234C31.272,20.434,42.39,13.377,54.918,9.672z
	 M84.032,69.135c3.353,2.119,5.646,5.646,5.646,9.883c0,6.353-5.117,11.646-11.646,11.646c-1.765,0-3.53-0.353-5.117-1.234
	c-9.528,9.353-26.292,25.939-43.938,43.23h96.52v-9.353h-50.11c-0.884,0-1.589-0.705-1.589-1.588s0.705-1.588,1.589-1.588h41.995
	c14.293-13.234,22.938-32.469,22.058-53.818c-0.883-21.881-17.998-45.701-35.82-54.172C101.501,18.141,86.502,61.549,84.032,69.135z
	 M21.922,140.6c-0.53,0.176-1.06,0.529-1.589,0.705c-3.176,1.764-5.646,4.236-7.588,7.41c-1.588,2.824-2.646,6.176-2.646,9.705
	v0.178h115.399V139.01H29.509C26.862,139.01,24.216,139.539,21.922,140.6z M78.033,72.664c3.605,0,6.527,2.923,6.527,6.527
	c0,3.605-2.922,6.528-6.527,6.528s-6.528-2.923-6.528-6.528C71.505,75.587,74.428,72.664,78.033,72.664z" class="color c1"/>
</svg>