<svg version="1.1" id="图层_1" x="0px" y="0px" width="251.93px" height="163.86px" viewBox="0 0 251.93 163.86" enable-background="new 0 0 251.93 163.86" xml:space="preserve" xmlns="http://www.w3.org/2000/svg" xmlns:xlink="http://www.w3.org/1999/xlink" xmlns:xml="http://www.w3.org/XML/1998/namespace">
  <path fill="#00FFFF" d="M243.132,59.7l-5.04-5.04l-7.09,7.09l-0.38,0.4c0.88,1.67,1.38,3.58,1.38,5.6c0,6.63-5.37,12-12,12
	c-1.8,0-3.51-0.39-5.04-1.1l-37.27,37.27l0.59,0.83c1.34,1.86,2.04,4.06,2.04,6.37c0,6.08-4.94,11.02-11.02,11.02
	c-6.07,0-11.01-4.94-11.01-11.02c0-6.07,4.94-11.01,11.01-11.01c1.32,0,2.61,0.23,3.85,0.69l0.72,0.26l37.24-37.24
	c-1.93-2.13-3.11-4.96-3.11-8.07c0-1.76,0.38-3.43,1.06-4.94l-10.1-10.1h-52.09l-0.23,0.89c-1.38,5.26-6.14,8.93-11.59,8.93
	c-0.75,0-1.49-0.08-2.22-0.22l0.03-0.06l-1.3-0.39c-5.3-1.58-8.72-5.92-8.72-11.07c0-4.52,2.5-8.6,6.53-10.66l0.65-0.34l0.05-12.86
	l-0.85-0.26c-4.16-1.26-7.57-4.26-9.36-8.23l-0.32-0.7l-29.25-0.23L72.783,0L7.463,65.32c-9.95,9.95-9.95,26.14,0,36.09l4.5,4.5
	l5.94-6.16c-2.13-2.59-3.4-5.9-3.4-9.5c0-8.28,6.72-15,15-15c3.4,0,6.54,1.13,9.05,3.04l32.73-34.58l-0.45-0.77
	c-1.07-1.82-1.64-3.91-1.64-6.04c0-6.6,5.37-11.97,11.98-11.97c6.6,0,11.97,5.37,11.97,11.97c0,6.61-5.37,11.98-11.97,11.98
	c-2.12,0-4.19-0.56-6-1.61l-0.8-0.47l-33.36,33.84l-0.62,0.62l0.65,0.83c1.81,2.3,2.76,5.05,2.76,7.98c0,2.27-0.59,4.5-1.72,6.45
	l-0.43,0.75l0.67,0.77l9.8,11.19h46.36l0.2-0.95c1.22-5.83,6.45-10.07,12.42-10.07c1.46,0,2.87,0.25,4.23,0.73l0.13,0.05
	c4.99,1.82,8.34,6.61,8.34,11.92c0,5.9-4.01,10.98-9.74,12.34l-0.92,0.22V135l0.92,0.92l0.32,0.08c4.19,1.11,7.59,4.39,8.87,8.55
	l0.26,0.85h39.55l18.46,18.46l61.61-61.62C254.862,90.51,254.862,71.43,243.132,59.7z M150.523,84.75l-0.23-0.91h-28.71l-0.74,0.02
	l-17.66-0.02l-0.17,1c-1.05,6.08-6.31,10.5-12.5,10.5c-7,0-12.7-5.69-12.7-12.69s5.7-12.7,12.7-12.7c5.51,0,10.36,3.52,12.06,8.75
	l0.27,0.83h47.45l0.23-0.91c1.4-5.66,6.47-9.62,12.32-9.62c6.99,0,12.69,5.69,12.69,12.69s-5.7,12.69-12.69,12.69
	C156.992,94.38,151.922,90.42,150.523,84.75z M142.002,12.25c0,4.694-3.806,8.5-8.5,8.5s-8.5-3.806-8.5-8.5s3.806-8.5,8.5-8.5
	S142.002,7.556,142.002,12.25z M38.002,90.25c0,4.694-3.806,8.5-8.5,8.5s-8.5-3.806-8.5-8.5s3.806-8.5,8.5-8.5
	S38.002,85.556,38.002,90.25z M88.002,36.25c0,3.59-2.91,6.5-6.5,6.5s-6.5-2.91-6.5-6.5s2.91-6.5,6.5-6.5S88.002,32.66,88.002,36.25
	z M141.002,50.25c0,3.59-2.91,6.5-6.5,6.5s-6.5-2.91-6.5-6.5s2.91-6.5,6.5-6.5S141.002,46.66,141.002,50.25z M176.002,123.25
	c0,3.59-2.91,6.5-6.5,6.5s-6.5-2.91-6.5-6.5s2.91-6.5,6.5-6.5S176.002,119.66,176.002,123.25z M229.002,67.25
	c0,4.694-3.806,8.5-8.5,8.5s-8.5-3.806-8.5-8.5s3.806-8.5,8.5-8.5S229.002,62.556,229.002,67.25z M99.002,82.25
	c0,4.694-3.806,8.5-8.5,8.5s-8.5-3.806-8.5-8.5s3.806-8.5,8.5-8.5S99.002,77.556,99.002,82.25z M171.002,81.25
	c0,4.694-3.806,8.5-8.5,8.5s-8.5-3.806-8.5-8.5s3.806-8.5,8.5-8.5S171.002,76.556,171.002,81.25z M119.002,147.25
	c0,4.694-3.806,8.5-8.5,8.5s-8.5-3.806-8.5-8.5s3.806-8.5,8.5-8.5S119.002,142.556,119.002,147.25z M119.002,111.25
	c0,4.142-3.358,7.5-7.5,7.5s-7.5-3.358-7.5-7.5s3.358-7.5,7.5-7.5S119.002,107.108,119.002,111.25z" class="color c1"/>
</svg>