<svg version="1.1" id="图层_1" x="0px" y="0px" width="118.145px" height="200px" viewBox="0 0 118.145 200" enable-background="new 0 0 118.145 200" xml:space="preserve" xmlns="http://www.w3.org/2000/svg" xmlns:xlink="http://www.w3.org/1999/xlink" xmlns:xml="http://www.w3.org/XML/1998/namespace">
  <path fill="#00B8D2" d="M4.624,106.644c3.855,2.04,45.837,17.201,54.928,17c3.835,0.221,5.23-0.295,11.62-3.425
	c6.386-3.16,26.196-14.33,24.896-18.33v-0.505c0,0-16.211-18.586-51.348-14.961C32.165,87.268,9.185,96.858,3.179,101.908
	C1.484,103.344,0.749,104.613,4.624,106.644z" class="color c1"/>
  <path fill="#141212" d="M117.649,20.279c-2.79-9.396-10.756-21.855-34.422-20.115c-9.436,0.649-27.516,3.515-32.052,11.83
	c-4.569,8.306-4.295,18.321-1.449,34.446c2.81,16.181,3.689,29.252-0.096,36.392c1.58,0.075,3.285,0.32,4.686,0.485
	c0.92,0.01,1.8,0.025,2.66,0.075c0.22-2.54,1.525-18.431,0.92-23.706c0-1.92,2.516-2.9,5.58-1.99
	c3.08,0.945,16.981,5.625,29.316,4.186c2.936-0.341,5.03,2.49,6.365,5.314c-2.92,10.786-4.865,21.187-3.58,29.887
	c0.165,0.275,0.385,0.505,0.585,0.75c1.085,1.01,1.636,1.8,1.75,1.945c1.32,1.77,1.525,3.146-0.13,5.11
	c-4.165,6.945-21.44,15.705-25.441,17.65c-5.51,2.72-7.75,3.71-11.311,3.745c-0.494,0-0.989,0-1.524-0.035h-0.035
	c-9.971,0.105-52.063-15.19-56.083-17.275c-1.21-0.655-2.515-1.48-3.359-2.615c-0.256,3.995,1.229,8.315,1.564,9.621
	c-0.13,4.029-0.55,4.049,0.09,9.43c0.605,5.395,6.701,44.607,6.701,44.607s1.354,1.91,2.33,1.154
	c0.975-0.789-1.926-44.867-1.926-44.867s-0.604-2.115-2.13-3.215c-1.545-1.175-0.405-5.04,1.705-4.275
	c2.09,0.73,30.986,14.741,47.197,14.631c1.615,1.125,3.36,2.646,3.195,5.36c-0.2,2.681,1.835,59.628,1.835,59.628
	s1.98,2.311,2.905,1.32c0.99-0.95,2.59-59.479,2.59-59.479s-0.604-4.83,3.82-7.16c4.405-2.355,17.256-9,22.946-15.221
	c1.14-0.569,1.395,2.496,0.99,3.101c-0.365,0.59,2.399,35.171,8.85,43.437c2.315,1.506,4.226,0.9,2.641-4.48
	c-1.61-5.359-3.835-43.026-2.386-53.852c0.771-3.875,0.516-8.32-0.279-13.506c-0.825-5.195,0.665-13.28,4.41-25.041
	C110.804,55.776,120.425,29.69,117.649,20.279z M75.393,52.186c-2.516-0.119-5.141-0.01-7.546,0.48
	c-5.2,1.021-10.005-0.71-10.63-3.58c-0.57-2.87-8.905-29.177,5.91-33.172c4.59-0.205,11.42,3.205,12.025,11.841
	C75.688,34.675,75.497,47.351,75.393,52.186z M101.938,57.566c-2.975-0.015-8.595-0.295-10.96-1.625
	c-1.341-0.78-4.021-1.771-7.285-2.545c0-11.291-0.125-26.241,7.25-34.962c1.564-1.845,3.56-2.976,5.745-3.5
	c5.76-1.306,12.461,1.92,13.421,8.351c0.439,3.02-0.096,6.64-0.846,9.585C107.334,40.676,104.544,49.131,101.938,57.566z
	 M56.446,152.466c-0.604-0.61-1.45-1.801-2.22-4.261c-0.99-3.03-1.78-8.556-2.24-12.341c0.92,0.09,1.875,0.15,2.7,0.166
	c1.155,0.939,1.521,1.635,1.485,2.574C56.097,139.465,56.227,145.045,56.446,152.466z" class="color c2"/>
</svg>