<svg version="1.1" id="图层_1" x="0px" y="0px" width="6.043px" height="89.399px" viewBox="0 0 6.043 89.399" enable-background="new 0 0 6.043 89.399" xml:space="preserve" xmlns="http://www.w3.org/2000/svg" xmlns:xlink="http://www.w3.org/1999/xlink" xmlns:xml="http://www.w3.org/XML/1998/namespace">
  <path fill="#020202" d="M6.024,44.725c0,14.091,0.004,28.182-0.009,42.274c-0.001,1.038,0.528,2.391-2.955,2.4
	c-3.44,0.009-3.046-1.313-3.046-2.373c-0.001-28.231-0.001-56.461,0-84.692c0-0.386-0.022-1.033,0.092-1.137
	C0.846,0.701,1.991,0.01,2.996,0c0.975-0.009,2.251,0.668,2.893,1.171c0.128,0.132,0.133,0.942,0.133,1.425
	C6.025,16.639,6.024,30.682,6.024,44.725z" class="color c1"/>
</svg>