<svg version="1.1" id="图层_1" x="0px" y="0px" width="74.977px" height="138.363px" viewBox="0 0 74.977 138.363" enable-background="new 0 0 74.977 138.363" xml:space="preserve" xmlns="http://www.w3.org/2000/svg" xmlns:xlink="http://www.w3.org/1999/xlink" xmlns:xml="http://www.w3.org/XML/1998/namespace">
  <path fill="#4BA941" d="M74.977,37.489C74.977,16.785,58.193,0,37.488,0S0,16.785,0,37.489c0,15.87,9.865,29.427,23.796,34.897
	c2.146,18.363,3.337,50.07-10.849,65.977h24.344h0.395H62.03c-14.194-15.906-13.001-47.607-10.849-65.977
	C65.11,66.916,74.977,53.359,74.977,37.489z M37.488,20.248c9.579,0,17.241,7.661,17.241,17.238c0,9.582-7.662,17.246-17.241,17.246
	c-9.578,0-17.243-7.664-17.243-17.246C20.245,27.909,27.91,20.248,37.488,20.248z" class="color c1"/>
</svg>