<svg version="1.1" id="图层_1" x="0px" y="0px" width="159.285px" height="136px" viewBox="0 0 159.285 136" enable-background="new 0 0 159.285 136" xml:space="preserve" xmlns="http://www.w3.org/2000/svg" xmlns:xlink="http://www.w3.org/1999/xlink" xmlns:xml="http://www.w3.org/XML/1998/namespace">
  <path fill="#41231B" d="M158.818,30.166c1.197-2.661,0.01-5.788-2.652-6.984c-2.662-1.196-5.787-0.009-6.984,2.653l-18.59,41.362
	l-80.06-0.479c-0.011,0-0.021,0-0.032,0s-0.021,0.003-0.033,0.003L37.765,21.106L8.627,0.975c-2.498-1.726-5.924-1.1-7.651,1.398
	c-1.727,2.499-1.101,5.925,1.398,7.651l25.862,17.869l21.466,77.083c0.096,0.346,0.231,0.67,0.386,0.979
	c0.345,1.961,1.731,3.562,3.568,4.217c3.416-4.643,8.901-7.674,15.094-7.674c6.41,0,12.075,3.237,15.458,8.159l29.969,0.165
	c3.368-5.017,9.091-8.324,15.573-8.324c6.557,0,12.326,3.388,15.68,8.498l0.541,0.002c0.01,0,0.021,0,0.03,0
	c3.022,0,5.483-2.44,5.499-5.469c0.018-3.038-2.432-5.515-5.469-5.531l-86.429-0.478L53.414,77.3l83.996,0.503L158.818,30.166z
	 M78.96,110.63c-2.652-2.552-6.248-4.131-10.21-4.131c-3.903,0-7.446,1.535-10.087,4.019C55.801,113.21,54,117.02,54,121.25
	c0,8.134,6.617,14.75,14.75,14.75s14.75-6.616,14.75-14.75C83.501,117.08,81.753,113.314,78.96,110.63z M140.307,110.968
	c-2.682-2.752-6.42-4.469-10.557-4.469c-4.079,0-7.775,1.666-10.45,4.354c-2.653,2.668-4.299,6.344-4.299,10.396
	c0,8.134,6.616,14.75,14.749,14.75c8.134,0,14.75-6.616,14.75-14.75C144.5,117.253,142.896,113.628,140.307,110.968z" class="color c1"/>
</svg>