<svg version="1.1" id="图层_1" x="0px" y="0px" width="122.519px" height="122.518px" viewBox="0 0 122.519 122.518" enable-background="new 0 0 122.519 122.518" xml:space="preserve" xmlns="http://www.w3.org/2000/svg" xmlns:xlink="http://www.w3.org/1999/xlink" xmlns:xml="http://www.w3.org/XML/1998/namespace">
  <g>
    <g>
      <path fill="#161616" d="M34.638,108.583c0.24-0.416,0.098-0.949-0.318-1.189l0,0c-0.417-0.241-0.949-0.099-1.191,0.319
			l-2.675,4.632c-0.239,0.415-0.097,0.949,0.319,1.189l0,0c0.417,0.24,0.948,0.098,1.189-0.318L34.638,108.583z" class="color c1"/>
      <path fill="#161616" d="M87.88,13.934c-0.239,0.418-0.097,0.949,0.318,1.19l0,0c0.417,0.24,0.949,0.098,1.191-0.318l2.673-4.632
			c0.242-0.417,0.098-0.949-0.317-1.189l0,0c-0.417-0.242-0.949-0.099-1.191,0.317L87.88,13.934z" class="color c1"/>
    </g>
    <g>
      <path fill="#161616" d="M14.734,89.187c0.416-0.24,0.559-0.773,0.319-1.189l0,0c-0.242-0.417-0.774-0.558-1.19-0.317l-4.632,2.674
			c-0.418,0.241-0.56,0.774-0.318,1.189l0,0c0.239,0.417,0.771,0.559,1.188,0.319L14.734,89.187z" class="color c1"/>
      <path fill="#161616" d="M107.784,33.33c-0.416,0.24-0.559,0.771-0.319,1.19l0,0c0.241,0.415,0.774,0.559,1.19,0.317l4.632-2.674
			c0.416-0.241,0.559-0.773,0.318-1.19l0,0c-0.24-0.416-0.773-0.558-1.189-0.318L107.784,33.33z" class="color c1"/>
    </g>
    <g>
      <path fill="#161616" d="M34.638,13.934c0.24,0.418,0.098,0.949-0.318,1.19l0,0c-0.417,0.24-0.949,0.098-1.191-0.318l-2.675-4.632
			c-0.239-0.417-0.097-0.949,0.319-1.189l0,0c0.417-0.242,0.948-0.099,1.189,0.317L34.638,13.934z" class="color c1"/>
      <path fill="#161616" d="M87.88,108.583c-0.239-0.416-0.097-0.949,0.318-1.189l0,0c0.417-0.241,0.949-0.099,1.191,0.319
			l2.673,4.632c0.242,0.415,0.098,0.949-0.317,1.189l0,0c-0.417,0.24-0.949,0.098-1.191-0.318L87.88,108.583z" class="color c1"/>
    </g>
    <g>
      <path fill="#161616" d="M14.734,33.33c0.416,0.24,0.559,0.771,0.319,1.19l0,0c-0.242,0.415-0.774,0.559-1.19,0.317l-4.632-2.674
			c-0.418-0.241-0.56-0.773-0.318-1.19l0,0c0.239-0.416,0.771-0.558,1.188-0.318L14.734,33.33z" class="color c1"/>
      <path fill="#161616" d="M107.784,89.187c-0.416-0.24-0.559-0.773-0.319-1.189l0,0c0.241-0.417,0.774-0.558,1.19-0.317l4.632,2.674
			c0.416,0.241,0.559,0.774,0.318,1.189l0,0c-0.24,0.417-0.773,0.559-1.189,0.319L107.784,89.187z" class="color c1"/>
    </g>
    <g>
      <path fill="#161616" d="M63.312,8.27c0,1.134-0.92,2.053-2.053,2.053l0,0c-1.133,0-2.052-0.919-2.052-2.053V2.052
			C59.207,0.918,60.126,0,61.259,0l0,0c1.133,0,2.053,0.918,2.053,2.052V8.27z" class="color c1"/>
      <path fill="#161616" d="M63.312,120.466c0,1.134-0.92,2.052-2.053,2.052l0,0c-1.133,0-2.052-0.918-2.052-2.052v-6.219
			c0-1.134,0.919-2.053,2.052-2.053l0,0c1.133,0,2.053,0.919,2.053,2.053V120.466z" class="color c1"/>
    </g>
    <g>
      <path fill="#161616" d="M8.271,59.206c1.135,0,2.053,0.919,2.053,2.052l0,0c0,1.134-0.918,2.053-2.053,2.053H2.053
			C0.918,63.311,0,62.392,0,61.258l0,0c0-1.133,0.918-2.052,2.053-2.052H8.271z" class="color c1"/>
      <path fill="#161616" d="M120.466,59.206c1.134,0,2.053,0.919,2.053,2.052l0,0c0,1.134-0.919,2.053-2.053,2.053h-6.219
			c-1.134,0-2.052-0.919-2.052-2.053l0,0c0-1.133,0.918-2.052,2.052-2.052H120.466z" class="color c1"/>
    </g>
  </g>
</svg>