<svg version="1.1" id="图层_1" x="0px" y="0px" width="160.187px" height="151.401px" viewBox="0 0 160.187 151.401" enable-background="new 0 0 160.187 151.401" xml:space="preserve" xmlns="http://www.w3.org/2000/svg" xmlns:xlink="http://www.w3.org/1999/xlink" xmlns:xml="http://www.w3.org/XML/1998/namespace">
  <path fill="#73C5E5" d="M116.37,85.614c0.165-4.294,0.101-5.651,1.692-9.749c1.5-3.84,4.525-6.965,7.563-9.645
	c3.776-3.332,7.556-6.662,11.313-10.018c6.849-6.115,12.769-12.873,17.896-20.497c2.294-3.417,4.962-7.335,5.328-11.556
	c0.254-2.957-1.405-7.984-4.112-9.655c-4.108-2.532-8.434-0.468-11.938,2.136c-1.415,1.055-2.624,2.386-3.875,3.651
	c-3.241,3.304-6.307,6.788-9.692,9.935c-8.151,7.582-17.467,13.537-27.836,17.602c-19.65,7.703-40.859,9.467-61.4,13.558
	c-8.239,1.64-16.314,3.919-23.876,7.741c-1.419,0.717-2.224,1.264-0.381,2.381c12.415,2.919,24.908,5.283,37.711,5.657
	c2.93,0.087,5.312,1.292,5.697,4.538c2.898,24.369-4.052,51.149,2.46,68.551c5.833,2.771,26.538,1.345,54.018-12.924
	C115.706,127.495,116.251,88.837,116.37,85.614z M26.331,28.646c4.776,0,8.649-4.029,8.649-9.001c0-4.969-3.109-8.889-8.649-8.996
	c-4.245-0.087-9.35,4.041-8.641,8.996C18.395,24.567,21.562,28.646,26.331,28.646z M55.261,26.935
	c1.296,11.502,9.382,20.96,20.958,20.96c11.573,0,20.959-9.383,20.959-20.96c0-11.575-11.043-22.185-22.611-22.185
	C62.988,4.75,53.919,15.072,55.261,26.935z M105.076,18.696c5.037-0.379,9.148-4.187,9.148-9.349S110.127,0,105.076,0
	c-5.056,0-9.349,2.16-9.765,8.426C94.971,13.58,98.682,19.186,105.076,18.696z M99.392,21.348c0.475,1.818,0.76,3.689,0.76,5.59
	c0,4.813-1.438,9.289-3.9,13.049c0.015,1.676,0.031,4.154,0.047,6.99c1.791-0.6,3.564-1.24,5.322-1.928
	c6.257-2.451,12.173-5.65,17.699-9.548c-0.008-0.753-0.015-1.442-0.028-1.991c-0.059-2.826,1.287-4.39,3.109-5.754
	c8.178-6.123,10.714-10.64,10.409-14.591c-0.48-6.335-10.122,2.254-11.917,3.602c-2.256,1.683-4.925,3.134-7.609,3.987
	C108.707,22.215,104.018,22.172,99.392,21.348z M8.483,38.32c2.298,1.646,14.089,8.519,16.368,11.32
	c4.023,4.947,5.259,9.671,5.85,11.858c1.936-1.802,16.602-3.938,21.354-5.021c-1.241-4.063-3.31-11.21-4.63-15.251
	c-0.544-1.655-0.529-2.996,0.356-4.557c3.085-5.431,5.405-11.15,5.676-17.507c0.147-3.43-0.219-6.827-0.936-10.177
	c-0.261-1.233-1.053-2.192-2.002-3.012c-2.802-0.635-3.487-0.306-4.17,2.426c-0.717,2.871-1.176,5.809-1.911,8.681
	c-1.71,6.719-4.526,12.703-11.209,15.947c-1.138,0.553-2.463,0.938-3.69,1.225c-1.588,0.369-3.399,0.443-5.016,0.278
	c-6.267-0.634-11.285-4.994-16.373-8.252c-0.811-0.517-1.592-1.074-2.433-1.535c-1.416-0.771-2.815-1.079-4.171-0.036
	c-1.325,1.02-1.756,2.467-1.458,4.077c0.252,1.36,1.168,2.565,1.992,3.635C3.833,34.697,6.154,36.648,8.483,38.32z" class="color c1"/>
</svg>