<svg version="1.1" id="图层_1" x="0px" y="0px" width="271.17px" height="300.229px" viewBox="0 0 271.17 300.229" enable-background="new 0 0 271.17 300.229" xml:space="preserve" xmlns="http://www.w3.org/2000/svg" xmlns:xlink="http://www.w3.org/1999/xlink" xmlns:xml="http://www.w3.org/XML/1998/namespace">
  <g>
    <path fill="#CA1C58" d="M46.391,172.699l0.008-0.011c0.588-0.881,0.381-2.065-0.469-2.697
		c-5.583-4.157-24.621-19.689-27.425-40.017c-1.571-11.387,2.217-22.559,11.256-33.212c0.077-0.091,0.162-0.175,0.254-0.252
		c2.826-2.372,28.676-23.701,50.625-29.188l0.146-0.042c0.42-0.14,10.32-3.62,12.753-20.05c1.413-9.537,4.683-17.765,9.721-24.455
		c7.467-9.918,20.901-21.152,42.475-18.358c11.186,1.449,20.722,7.387,26.163,16.29c6.789,11.108,5.487,23.066-3.87,35.541
		l-0.114,0.17c-5.044,8.404-20.24,30.415-29.847,31.331c-1.721,0.167-3.09-0.395-4.312-1.759c-1.323-1.476-1.988-3.58-1.872-5.924
		c0.504-10.194,4.534-34.731,30.737-45.901c0.976-0.416,1.431-1.546,1.046-2.535l0,0c-0.41-1.053-1.614-1.546-2.653-1.102
		c-29.028,12.427-32.679,40.795-33.102,49.342c-0.168,3.395,0.856,6.511,2.883,8.772c2.049,2.286,4.691,3.342,7.651,3.064
		c13.144-1.254,30.42-29.167,32.785-33.09c0.029-0.048,0.058-0.09,0.091-0.135c12.858-17.253,9.262-31.188,3.969-39.85
		c-6.072-9.935-16.658-16.554-29.045-18.159c-23.468-3.039-38.059,9.15-46.161,19.91c-5.441,7.227-8.967,16.063-10.478,26.264
		c-1.895,12.791-8.609,16.239-9.879,16.782c-0.09,0.038-0.176,0.067-0.27,0.091C55.475,69.613,28.323,92.72,27.175,93.704
		l-0.216,0.215c-9.969,11.631-14.139,23.944-12.393,36.598c3.043,22.063,22.968,38.246,29.001,42.685
		C44.48,173.874,45.763,173.642,46.391,172.699z" class="color c1"/>
    <path fill="#CA1C58" d="M56.28,143.214c3.957-26.91,13.797-46.145,28.455-55.628c8.268-5.349,15.97-6.218,19.322-6.318
		c1.008-0.03,1.838-0.796,1.932-1.8l0.001-0.013c0.112-1.191-0.841-2.203-2.036-2.172c-3.841,0.098-12.126,1.057-21.138,6.81
		c-19.899,12.701-27.544,38.754-30.451,58.423c-0.005,0.036-0.01,0.064-0.018,0.1c-0.263,1.238-2.34,11.344-2.934,24.166
		c-0.841,18.168,1.651,32.326,7.406,42.079c0.995,1.687,2.799,2.64,4.658,2.64c0.818,0,1.646-0.184,2.422-0.573
		c1.258-0.628,2.206-1.698,2.672-3.013c2.436-6.862,24.26-65.806,53.174-63.273c1.031,0.09,1.965-0.606,2.145-1.625l0.001-0.003
		c0.202-1.142-0.614-2.227-1.769-2.332c-31.226-2.83-53.146,54.208-57.298,65.905c-0.122,0.345-0.365,0.617-0.702,0.785
		c-0.678,0.339-1.503,0.105-1.878-0.532c-12.841-21.761-4.077-63.079-3.987-63.494L56.28,143.214z" class="color c1"/>
    <path fill="#CA1C58" d="M197.269,215.319c13.274-29.037,11.192-61.355-6.02-93.462C180.39,101.601,166.949,87.584,162.5,83.23
		c-0.804-0.787-2.094-0.745-2.852,0.086l-0.008,0.008c-0.72,0.789-0.685,2.005,0.076,2.756c1.599,1.578,4.469,4.522,7.983,8.615
		l-0.032,0.006c1.454,7.286,2.346,20.258-1.444,24.05l-0.147,0.164c-0.364,0.455-8.768,11.337,3.938,28.279l0.062,0.078
		c0.073,0.087,7.302,8.883,11.094,21.548c5.018,16.754,1.952,32.062-9.159,45.558c-0.077,0.101-7.811,10.128-20.652,16.311
		c-17.097,8.233-34.641,5.954-52.155-6.786c-0.125-0.089-11.992-8.756-11.255-24.143c0.05-1.043-0.721-1.946-1.758-2.061
		l-0.005-0.001c-1.137-0.126-2.154,0.736-2.211,1.879c-0.864,17.502,12.333,27.144,12.904,27.552
		c12.581,9.15,24.206,12.296,34.245,12.296c8.623,0,16.077-2.321,21.96-5.153c13.691-6.592,21.753-17.043,22.043-17.426
		c14.936-18.136,13.579-36.821,9.811-49.303c-3.949-13.082-11.136-22-11.772-22.773c-10.133-13.537-4.925-22.035-4.085-23.235
		c0.038-0.054,0.077-0.099,0.122-0.147c4.174-4.433,4.037-14.125,3.348-20.775c4.901,6.253,10.378,14.126,15.247,23.227
		c16.788,31.377,18.757,61.599,5.823,89.897c-0.132,0.322-13.475,31.678-52.065,36.34c-1.079,0.13-1.867,1.08-1.764,2.161l0,0.005
		c0.107,1.12,1.121,1.917,2.239,1.782C182.911,249.086,197.157,215.594,197.269,215.319z" class="color c1"/>
    <path fill="#CA1C58" d="M132.251,221.564c5.395-0.001,10.541-1.649,14.224-3.229c0.473-0.181,11.645-4.585,16.333-15.694
		c3.037-7.197,2.626-15.447-1.223-24.527c-0.022-0.051-0.038-0.096-0.055-0.149c-0.43-1.384-3.005-8.641-10.839-12.834
		c-6.734-3.603-15.289-3.891-25.453-0.86c-1.081,0.322-1.692,1.471-1.335,2.541l0,0.001c0.337,1.01,1.414,1.584,2.434,1.279
		c9.104-2.724,16.639-2.552,22.417,0.513c6.995,3.711,8.987,10.565,9.005,10.627l0.091,0.26c3.475,8.107,3.916,15.364,1.311,21.567
		c-4.008,9.544-14.016,13.527-14.183,13.594c-15.465,6.627-23.569,0.886-27.644-5.099c-3.061-4.496-4.332-10.248-3.487-15.78
		c1.262-8.261,7.177-11.776,17.59-10.433c4.248,0.546,7.779,3.114,9.214,6.701c0.863,2.159,0.851,4.142-0.038,6.063
		c-1.866,4.034-7.018,6.715-9.706,7.883c-0.944,0.41-1.412,1.471-1.086,2.447l0.002,0.006c0.37,1.109,1.606,1.659,2.678,1.193
		c3.196-1.389,9.289-4.616,11.716-9.849c1.359-2.93,1.401-6.032,0.126-9.22c-1.971-4.926-6.722-8.439-12.399-9.168
		c-12.417-1.602-20.447,3.423-22.027,13.776c-1.01,6.61,0.457,13.222,4.131,18.618C119.13,219.256,125.864,221.564,132.251,221.564z
		" class="color c1"/>
    <path fill="#CA1C58" d="M129.145,276.681c-2.966-1.612-6.381-2.512-10.151-2.676l-42.813-1.86c-16.662,0-32.068-2.833-45.791-8.418
		C17.303,258.4,7.724,247.413,4.766,234.335c-1.749-7.733-0.556-14.059,3.546-18.8c9.759-11.278,33.158-11.325,39.976-11.083
		c1.061,0.038,1.961-0.771,2.044-1.829l0.001-0.012c0.089-1.124-0.767-2.096-1.894-2.141c-7.352-0.294-32.107-0.273-43.13,12.459
		c-4.978,5.75-6.466,13.247-4.421,22.283c3.244,14.346,13.713,26.382,28.003,32.198c14.197,5.779,30.101,8.709,47.187,8.709
		c0.005,0,0.011,0,0.016,0l42.726,1.858c3.161,0.138,5.995,0.877,8.426,2.198c3.154,1.714,5.122,3.933,5.848,6.596
		c0.798,2.925,0.116,6.463-2.026,10.536c-0.492,0.936-0.182,2.095,0.725,2.639l0,0c0.979,0.587,2.259,0.229,2.79-0.781
		c2.628-5.003,3.417-9.517,2.347-13.441C135.922,282.028,133.23,278.901,129.145,276.681z" class="color c1"/>
    <path fill="#CA1C58" d="M263.884,214.034c-15.327-13.523-50.113-7.642-58.917-5.878c-1.098,0.22-1.796,1.299-1.547,2.391
		l0.003,0.012c0.239,1.047,1.265,1.713,2.319,1.507c8.297-1.625,41.714-7.222,55.512,4.95c4.639,4.092,6.531,9.704,5.787,17.149
		c-0.031,0.297-3.686,29.8-51.684,35.156c-6.49,0.723-13.466,0.825-21.331,0.312c-11.142-0.727-31.204-0.356-40.372,10.336
		c-4.063,4.74-5.496,10.914-4.27,18.375c0.185,1.126,1.285,1.868,2.399,1.621l0.003-0.001c1.026-0.228,1.693-1.22,1.523-2.257
		c-1.025-6.257,0.103-11.347,3.363-15.15c8.342-9.73,28.72-9.504,37.094-8.956c8.101,0.527,15.306,0.421,22.031-0.329
		c14.66-1.635,34.685-6.652,46.832-21.265c7.393-8.892,8.329-17.082,8.366-17.437C271.865,225.874,269.472,218.964,263.884,214.034z
		" class="color c1"/>
  </g>
</svg>