<svg version="1.1" id="图层_1" x="0px" y="0px" width="104.996px" height="97.082px" viewBox="0 0 104.996 97.082" enable-background="new 0 0 104.996 97.082" xml:space="preserve" xmlns="http://www.w3.org/2000/svg" xmlns:xlink="http://www.w3.org/1999/xlink" xmlns:xml="http://www.w3.org/XML/1998/namespace">
  <path fill="#FFFFFF" d="M96.032,33.598c-0.283,1.063-1.246,1.801-2.345,1.801L11.305,35.4c-1.098-0.001-2.059-0.742-2.342-1.801
	L0,0.001v36.994c0.007,4.02,3.263,7.277,7.284,7.284l29.056-0.001l16.157-0.001l45.212-0.001c3.982-0.09,7.188-3.296,7.279-7.279
	L104.996,0L96.032,33.598z" class="color c1"/>
  <path fill="#FFFFFF" d="M52.497,49.131L41.193,49.13l0.003,36.511c-0.001,0.092-0.003,0.185-0.001,0.277
	c0.078,6.242,5.2,11.24,11.442,11.163c6.242-0.077,11.24-5.2,11.165-11.44L63.8,49.131H52.497z M58.372,84.042
	c-0.005,1.569-0.617,3.045-1.722,4.158c-1.11,1.11-2.588,1.722-4.154,1.721c-1.569,0-3.042-0.612-4.153-1.722
	c-1.109-1.109-1.719-2.584-1.719-4.153L46.622,68.29h11.75V84.042z" class="color c1"/>
</svg>