<svg version="1.1" id="图层_1" x="0px" y="0px" width="119.631px" height="76.991px" viewBox="0 0 119.631 76.991" enable-background="new 0 0 119.631 76.991" xml:space="preserve" xmlns="http://www.w3.org/2000/svg" xmlns:xlink="http://www.w3.org/1999/xlink" xmlns:xml="http://www.w3.org/XML/1998/namespace">
  <path fill="#194D70" d="M39.001,0.003C17.485-0.279,0.284,16.643,0.003,37.992c-0.28,21.346,16.642,38.715,37.988,38.996
	c16.473,0.215,30.555-9.688,36.292-24.07l36.874,0.484l8.474-13.541l-8.77-14.539l-36.211-0.476l-0.002,0.17
	C69.291,10.49,55.472,0.218,39.001,0.003z M57.843,38.749c-0.14,10.604-8.812,19.235-19.603,19.093
	c-10.787-0.141-19.232-8.996-19.094-19.599c0.141-10.605,8.998-19.233,19.603-19.096C49.352,19.285,57.982,28.144,57.843,38.749z" class="color c1"/>
</svg>