<svg version="1.1" id="图层_1" x="0px" y="0px" width="6.043px" height="199.009px" viewBox="0 0 6.043 199.009" enable-background="new 0 0 6.043 199.009" xml:space="preserve" xmlns="http://www.w3.org/2000/svg" xmlns:xlink="http://www.w3.org/1999/xlink" xmlns:xml="http://www.w3.org/XML/1998/namespace">
  <path fill="#020202" d="M6.024,99.067c0,31.524,0.004,63.049-0.009,94.573c-0.001,2.321,0.528,5.348-2.955,5.369
	c-3.44,0.021-3.046-2.936-3.046-5.308c-0.001-63.157-0.001-126.313,0-189.47c0-0.864,0.092-2.544,0.092-2.544
	c0.516-1.186,1.911-1.665,2.916-1.686C3.996-0.02,5.359,0.447,5.889,1.63c0.086,0.192,0.133,2.108,0.133,3.187
	C6.025,36.234,6.024,67.65,6.024,99.067z" class="color c1"/>
</svg>