<svg version="1.1" id="图层_1" x="0px" y="0px" width="200px" height="200px" viewBox="0 0 200 200" enable-background="new 0 0 200 200" xml:space="preserve" xmlns="http://www.w3.org/2000/svg" xmlns:xlink="http://www.w3.org/1999/xlink" xmlns:xml="http://www.w3.org/XML/1998/namespace">
  <path fill="#FFFFFF" d="M108.692,157.777c0.994-0.996,2.482-0.996,3.477,0c1.822,1.819,4.967,1.819,6.789,0
	c0.992-0.996,2.483-0.996,3.477,0c0.993,0.992,0.993,2.482,0,3.476c-1.988,1.822-4.471,2.814-6.954,2.814s-5.134-0.992-6.956-2.814
	C107.698,160.26,107.698,158.77,108.692,157.777z M110.347,152.808c1.281,0,2.318-1.036,2.318-2.315
	c0-1.281-1.037-2.319-2.318-2.319c-1.28,0-2.316,1.038-2.316,2.319C108.03,151.771,109.066,152.808,110.347,152.808z
	 M121.441,148.173c-1.279,0-2.319,1.038-2.319,2.319c0,1.279,1.04,2.315,2.319,2.315c1.278,0,2.317-1.036,2.317-2.315
	C123.759,149.211,122.72,148.173,121.441,148.173z M112.502,141.717c1.323,0,2.481-1.16,2.481-2.485
	c0-1.321-1.158-2.483-2.481-2.483c-0.829,0-1.492-0.661-1.492-1.489s0.663-1.49,1.492-1.49h0.495c3.477,0,6.292-2.814,6.292-6.291
	c0-1.49-1.161-2.482-2.483-2.482c-1.325,0-2.483,1.158-2.483,2.482c0,0.662-0.664,1.326-1.325,1.326h-0.495
	c-3.479,0-6.46,2.813-6.46,6.455S108.858,141.717,112.502,141.717z M117.466,135.259c0,3.478,2.814,6.293,6.293,6.293
	c1.324,0,2.484-1.159,2.484-2.485c0-1.323-1.16-2.484-2.484-2.484c-0.662,0-1.324-0.66-1.324-1.323c0-1.326-1.16-2.482-2.484-2.482
	S117.466,133.769,117.466,135.259z M102.234,132.776c-6.671-1.289-6.29,13.457-6.29,16.935v4.259
	c0,10.76,8.775,19.535,19.536,19.535c10.763,0,19.537-8.775,19.537-19.535v-3.372c0-0.258,0.002-0.589,0-0.962v-0.966
	c0-0.022-0.007-0.046-0.007-0.069c-0.067-5.302-0.688-16.507-6.287-15.824c-1.322,0-2.48,1.156-2.48,2.482
	c0,1.323,1.158,2.484,2.48,2.484c0.83,0,1.326,12.027,1.326,12.854v3.372c0,8.111-6.622,14.568-14.569,14.568
	c-8.113,0-14.57-6.624-14.57-14.568v-4.259c0-0.663,0.663-11.968,1.324-11.968c1.324,0,2.485-1.161,2.485-2.484
	C104.72,133.933,103.559,132.776,102.234,132.776z M98.427,181.453c-1.324,0-2.482,1.156-2.482,2.482v7.781
	c0,1.324,1.158,2.485,2.482,2.485s2.483-1.161,2.483-2.485v-7.781C100.91,182.609,99.751,181.453,98.427,181.453z M154.057,41.549
	c-1.324,0-2.483,1.158-2.483,2.483v37.584c0,10.431-8.444,18.874-18.875,18.874c-10.43,0-18.873-8.443-18.873-18.874V44.032
	c0-1.325-1.16-2.483-2.484-2.483s-2.482,1.158-2.482,2.483v37.584c0,13.079,10.761,23.842,23.84,23.842
	c13.246,0,23.843-10.763,23.843-23.842V44.032C156.541,42.707,155.381,41.549,154.057,41.549z M132.698,58.769
	c1.324,0,2.483-1.159,2.483-2.484V44.032c0-1.325-1.159-2.483-2.483-2.483s-2.481,1.158-2.481,2.483v12.252
	C130.217,57.609,131.374,58.769,132.698,58.769z M143.129,58.769c1.326,0,2.483-1.159,2.483-2.484V44.032
	c0-1.325-1.157-2.483-2.483-2.483c-1.323,0-2.484,0.993-2.484,2.483v12.252C140.645,57.609,141.642,58.769,143.129,58.769z
	 M122.103,58.769c1.325,0,2.483-1.159,2.483-2.484V44.032c0-1.325-1.158-2.483-2.483-2.483c-1.324,0-2.483,1.158-2.483,2.483v12.252
	C119.619,57.609,120.612,58.769,122.103,58.769z M122.765,75.159c0,1.555,1.262,2.814,2.814,2.814c1.557,0,2.815-1.26,2.815-2.814
	c0-1.554-1.259-2.815-2.815-2.815C124.026,72.344,122.765,73.605,122.765,75.159z M140.315,77.974c1.553,0,2.813-1.26,2.813-2.814
	c0-1.554-1.261-2.815-2.813-2.815c-1.557,0-2.814,1.262-2.814,2.815C137.501,76.714,138.759,77.974,140.315,77.974z M137.831,88.237
	c-2.813,2.815-7.449,2.815-10.264,0c-0.994-0.99-2.484-0.99-3.477,0c-0.994,0.995-0.994,2.484,0,3.479
	c2.316,2.318,5.463,3.643,8.607,3.643c3.146,0,6.293-1.159,8.611-3.643c0.992-0.994,0.992-2.483,0-3.479
	C140.315,87.247,138.825,87.412,137.831,88.237z M99.917,97.676c0,13.081-10.762,23.843-23.842,23.843
	c-13.078,0-23.842-10.598-23.842-23.843V85.591c0-5.962,4.803-10.763,10.764-10.763h12.748c2.98,0,5.297-2.316,5.297-5.298
	c0-1.324,1.16-2.484,2.484-2.484s2.484,1.16,2.484,2.484c0,3.146,2.482,5.629,5.629,5.629h3.311v-6.788
	c0-3.146-2.648-5.795-5.795-5.795H60.843c-7.779,0-14.072,6.291-14.072,14.072v24.836c0,5.463-4.47,10.098-10.1,10.098
	c-1.324,0-2.482-1.156-2.482-2.483c0-1.322,1.158-2.482,2.482-2.482c2.815,0,5.133-2.316,5.133-5.132V76.648
	c0-10.431,8.611-19.039,19.039-19.039h28.313c5.959,0,10.762,4.802,10.762,10.762V97.676z M94.95,80.126H91.64
	c-3.313,0-6.127-1.49-8.113-3.809c-1.988,2.154-4.637,3.477-7.781,3.477H62.997c-3.145,0-5.795,2.65-5.795,5.797v12.085
	c0,10.432,8.444,18.875,18.873,18.875c10.432,0,18.875-8.443,18.875-18.875V80.126z M68.792,94.034c1.555,0,2.813-1.261,2.813-2.816
	c0-1.553-1.259-2.814-2.813-2.814s-2.816,1.262-2.816,2.814C65.976,92.773,67.237,94.034,68.792,94.034z M83.69,88.403
	c-1.554,0-2.814,1.262-2.814,2.814c0,1.556,1.261,2.816,2.814,2.816c1.556,0,2.816-1.261,2.816-2.816
	C86.507,89.665,85.246,88.403,83.69,88.403z M81.208,104.465c-2.815,2.815-7.449,2.815-10.264,0c-0.994-0.994-2.484-0.994-3.478,0
	c-0.993,0.993-0.993,2.482,0,3.477c2.316,2.317,5.464,3.641,8.608,3.641c3.146,0,6.293-1.156,8.611-3.641
	c0.99-0.994,0.99-2.483,0-3.477C83.69,103.471,82.202,103.471,81.208,104.465z M200,99.999c0,27.518-11.174,52.477-29.221,70.575
	c-1.02,1.021-2.061,2.018-3.123,2.995c-3.289,3.026-6.783,5.835-10.453,8.404c-1.549,1.085-3.128,2.126-4.739,3.122
	c-2.959,1.83-6.016,3.518-9.168,5.038c-1.601,0.774-3.229,1.5-4.878,2.187c-11.834,4.942-24.813,7.68-38.419,7.68
	c-15.706,0-30.576-3.644-43.814-10.126c-1.334-0.65-2.652-1.328-3.951-2.04c-3.967-2.165-7.767-4.594-11.388-7.259
	c-0.575-0.424-1.143-0.854-1.709-1.287C15.356,160.989,0,132.257,0,99.999C0,44.858,44.858,0,99.999,0
	C155.142,0,200,44.858,200,99.999z M170.779,118.206v44.603c14.858-16.726,23.898-38.729,23.898-62.81
	c0-52.205-42.472-94.677-94.679-94.677c-52.205,0-94.678,42.472-94.678,94.677c0,28.903,13.021,54.816,33.502,72.198v-37.933
	c0-5.297,4.305-9.768,9.769-9.768h9.935c3.146,0,6.125,1.325,8.112,3.809c2.483,3.146,5.96,4.803,9.767,4.803
	c3.81,0,7.451-1.657,9.77-4.638c1.987-2.483,4.969-3.974,8.113-3.974c1.326,0,2.482,1.161,2.482,2.484
	c0,1.324-1.156,2.484-2.482,2.484c-1.655,0-3.311,0.662-4.307,1.985c-3.475,4.14-8.443,6.459-13.576,6.623
	c-5.295,0-10.263-2.318-13.575-6.458c-0.992-1.488-2.648-2.15-4.304-2.15h-9.935c-2.647,0-4.802,2.15-4.802,4.799v41.873
	c2.709,2.005,5.527,3.867,8.443,5.578v-39.504c0-1.323,1.16-2.482,2.485-2.482c1.323,0,2.483,1.159,2.483,2.482v42.227
	c9.817,4.996,20.619,8.325,32.027,9.625c-0.98-0.338-1.73-1.283-1.73-2.347v-14.57c0-4.8,3.809-8.608,8.611-8.608h2.152
	c1.324,0,2.482,1.16,2.482,2.482c0,1.326-1.158,2.484-2.482,2.484H96.11c-1.988,0-3.645,1.656-3.645,3.642v14.57
	c0,1.243-1.023,2.331-2.246,2.458c3.217,0.332,6.479,0.503,9.779,0.503c10.502,0,20.605-1.722,30.051-4.89v-5.853
	c0-1.326,1.159-2.482,2.483-2.482c1.489,0,2.484,1.156,2.484,2.482v4.027c1.114-0.446,2.216-0.912,3.311-1.397v-9.419
	c0-1.985-1.655-3.642-3.643-3.642h-2.152c-1.324,0-2.483-1.158-2.483-2.484c0-1.322,1.159-2.482,2.483-2.482h2.152
	c4.803,0,8.61,3.809,8.61,8.608v7.038c3.082-1.593,6.064-3.352,8.94-5.261v-52.771c0-1.325,1.159-2.483,2.483-2.483
	c1.325,0,2.483,0.993,2.483,2.483v49.239c3.016-2.295,5.891-4.765,8.609-7.398v-49.788c0-2.648-2.152-4.803-4.803-4.803h-10.099
	c-1.654,0-3.312,0.662-4.305,1.988c-3.311,4.138-8.278,6.457-13.576,6.457c-5.297,0-10.266-2.319-13.576-6.457
	c-0.992-1.49-2.648-2.153-4.305-2.153h-8.278c-1.324,0-2.483-1.158-2.483-2.481c0-1.327,1.159-2.485,2.483-2.485h8.278
	c3.145,0,6.125,1.324,8.111,3.809c2.484,3.146,5.961,4.802,9.77,4.802s7.449-1.655,9.768-4.635c1.988-2.483,4.969-3.976,8.113-3.976
	h10.099C166.309,108.271,170.779,112.577,170.779,118.206z" class="color c1"/>
</svg>