<svg version="1.1" id="图层_1" x="0px" y="0px" width="210px" height="199.191px" viewBox="0 0 210 199.191" enable-background="new 0 0 210 199.191" xml:space="preserve" xmlns="http://www.w3.org/2000/svg" xmlns:xlink="http://www.w3.org/1999/xlink" xmlns:xml="http://www.w3.org/XML/1998/namespace">
  <path fill="#FAD31E" d="M104.938,199.189c-22.406,0-44.812-0.005-67.218,0.002c-9.097,0.003-17.3-2.606-24.331-8.463
	c-13.747-11.45-17.361-30.745-8.73-46.702c10.705-19.791,21.477-39.546,32.22-59.316c11.768-21.656,23.513-43.325,35.317-64.961
	C78.025,9.065,86.929,2.441,98.979,0.494c15.785-2.55,30.693,4.919,38.476,19.056c6.121,11.118,12.16,22.28,18.235,33.423
	c16.493,30.253,33.01,60.493,49.468,90.765c8.39,15.433,5.711,33.316-6.756,45.255c-7.315,7.006-16.178,10.195-26.246,10.195
	C149.75,199.19,127.344,199.189,104.938,199.189z" class="color c1"/>
  <path fill="#010000" d="M65.507,183.461c-9.36,0-18.718-0.003-28.078-0.016c-6.234-0.008-11.894-2.369-15.937-6.648
	c-3.985-4.217-5.994-9.895-5.657-15.986c0.169-3.054,1.092-6.341,2.532-9.02c20.231-37.642,41.729-77.442,67.654-125.256
	c3.891-7.175,10.344-10.968,18.66-10.968c0.001,0,0.002,0,0.003,0c8.18,0.002,14.662,3.858,18.746,11.153
	c3.103,5.543,6.177,11.219,9.149,16.707c1.329,2.454,2.658,4.908,3.994,7.358l15.174,27.835
	c13.195,24.203,26.39,48.406,39.572,72.615c5.216,9.579,3.17,20.893-4.974,27.514c-3.893,3.165-8.511,4.703-14.12,4.703
	l-87.056,0.005C78.617,183.459,72.062,183.461,65.507,183.461z M104.682,18.567c-7.25,0-12.641,3.162-16.022,9.397
	c-25.924,47.811-47.42,87.608-67.649,125.246c-1.239,2.306-2.034,5.136-2.18,7.766c-0.291,5.261,1.428,10.147,4.842,13.761
	c3.472,3.674,8.358,5.701,13.76,5.708c15.913,0.02,31.825,0.015,47.738,0.013l87.056-0.005c4.892,0,8.891-1.318,12.227-4.031
	c7.005-5.694,8.745-15.461,4.231-23.75c-13.183-24.21-26.377-48.412-39.572-72.614L133.94,52.221
	c-1.337-2.452-2.667-4.908-3.998-7.365c-2.968-5.479-6.037-11.146-9.129-16.671c-3.571-6.38-8.998-9.616-16.128-9.618
	C104.684,18.567,104.683,18.567,104.682,18.567z" class="color c2"/>
</svg>