<svg version="1.1" id="图层_1" x="0px" y="0px" width="142.743px" height="152.098px" viewBox="0 0 142.743 152.098" enable-background="new 0 0 142.743 152.098" xml:space="preserve" xmlns="http://www.w3.org/2000/svg" xmlns:xlink="http://www.w3.org/1999/xlink" xmlns:xml="http://www.w3.org/XML/1998/namespace">
  <path fill="#FFFFFF" d="M132.936,2.813l-35.58,68.984c0.204,0.059,0.408,0.119,0.609,0.186c1.504,0.482,2.912,1.072,4.227,1.765
	c1.588,0.837,3.032,1.821,4.321,2.947l35.651-69.122c1.313-2.549,0.313-5.68-2.233-6.993C137.381-0.737,134.25,0.264,132.936,2.813z
	 M15.381,130.755c5.658,5.102,12.604,9.546,20.645,13.21c13.58,6.191,25.531,8.021,26.034,8.096
	c0.014,0.001,0.027,0.002,0.042,0.004c0.158,0.022,0.317,0.033,0.477,0.033c0.039,0,0.077,0,0.115-0.002
	c14.286-0.468,25.422-5.224,33.096-14.143c10.092-11.729,13.738-29.362,13.029-44.521c-0.203-4.343-1.75-8.771-4.783-11.934
	c-0.227-0.233-0.457-0.465-0.699-0.687c-1.066-0.971-2.258-1.779-3.523-2.45c-1.1-0.581-2.255-1.058-3.438-1.439
	c-0.492-0.157-0.983-0.277-1.475-0.364c-0.682-0.122-1.361-0.183-2.037-0.183c-5.01,0-9.811,3.148-13.479,6.363
	c-3.788,3.321-7.632,6.939-11.911,9.775c-4.689,3.105-9.839,4.672-15.201,6.197c-6.927,1.974-14.049,3.232-21.197,4.035
	c-6.359,0.714-12.802,1.129-19.228,1.129c-2.55,0-5.096-0.065-7.634-0.204c-0.148-0.008-0.295-0.015-0.441-0.024
	c-0.083-0.006-0.164-0.009-0.246-0.009c-1.092,0-2.128,0.507-2.797,1.38c-0.721,0.938-0.921,2.176-0.537,3.294
	C3.087,116.726,8.197,124.276,15.381,130.755z M10.439,110.906c0.001,0,0.005,0,0.007,0c0.356,0.001,0.726,0.002,1.104,0.002
	c5.193,0,12.43-0.23,20.549-1.152c17.178-1.956,31.181-6.136,41.78-12.454c0.304-0.181,0.641-0.27,0.979-0.27
	c0.32,0,0.64,0.081,0.929,0.24c6.162,3.384,15.737,8.402,22.565,10.841c0.847,0.301,1.368,1.146,1.267,2.038
	c-0.815,7.125-3.129,16.191-9.207,23.234c-6.224,7.216-15.416,11.128-27.329,11.638c-0.036,0.002-0.072,0.003-0.11,0.003
	c-0.153,0-0.31-0.016-0.461-0.04c-1.201-0.213-4.161-0.782-8.136-1.878c1.133-0.499,2.306-1.102,3.488-1.77
	c1.061-0.598,2.13-1.252,3.188-1.934c3.275-2.115,6.446-4.513,8.914-6.485c0.571-0.456,0.035-1.347-0.639-1.064
	c-5.395,2.263-12.285,3.774-18.451,4.77c-1.938,0.314-3.803,0.576-5.529,0.793c-2.019,0.254-3.843,0.448-5.367,0.597
	c-0.396-0.177-0.793-0.354-1.193-0.538c-3.43-1.571-6.633-3.293-9.594-5.15c1.293-0.118,2.65-0.333,4.027-0.611
	c1.251-0.255,2.517-0.563,3.762-0.9c3.667-0.997,7.154-2.254,9.539-3.182c0.454-0.176,0.292-0.853-0.192-0.808
	c-4.342,0.418-10.364,0.457-15.507,0.382c-1.684-0.025-3.274-0.063-4.679-0.103c-1.851-0.053-3.378-0.108-4.384-0.15
	c-0.59-0.494-1.169-0.994-1.729-1.501c-0.727-0.657-1.426-1.327-2.102-2.008c1.044-0.105,2.127-0.271,3.228-0.481
	c1.029-0.196,2.072-0.433,3.108-0.693c4.096-1.034,8.09-2.469,10.734-3.493c0.453-0.176,0.292-0.854-0.193-0.809
	c-4.076,0.394-9.633,0.45-14.554,0.394c-1.214-0.013-2.387-0.032-3.492-0.06c-1.228-0.026-2.369-0.059-3.378-0.09
	c-1.43-1.9-2.693-3.874-3.785-5.915C9.264,111.667,9.727,110.906,10.439,110.906z" class="color c1"/>
  <path fill="#FFFFFF" d="M124.331,120.357c4.604,0,8.334,3.732,8.334,8.337c0,4.6-3.73,8.331-8.334,8.331
	c-4.603,0-8.334-3.731-8.334-8.331C115.997,124.09,119.729,120.357,124.331,120.357z" class="color c1"/>
  <circle fill="#FFFFFF" cx="106.355" cy="147.778" r="4.211" class="color c1"/>
  <circle fill="#FFFFFF" cx="129.188" cy="146.806" r="4.209" class="color c1"/>
</svg>