<svg version="1.1" id="图层_1" x="0px" y="0px" width="59.5px" height="185.373px" viewBox="0 0 59.5 185.373" enable-background="new 0 0 59.5 185.373" xml:space="preserve" xmlns="http://www.w3.org/2000/svg" xmlns:xlink="http://www.w3.org/1999/xlink" xmlns:xml="http://www.w3.org/XML/1998/namespace">
  <path fill="#020202" d="M14.565,39.273c0.54-1.605,0.346-2.78-0.611-3.711c-1.185-1.152-2.376-2.289-3.615-3.481
	c1.936-6.766,3.837-13.408,5.799-20.264c4.109,26.376,8.181,52.514,12.254,78.651c-0.029,0.02-0.059,0.04-0.088,0.059
	c-0.103-0.267-0.21-0.53-0.308-0.803c-5.141-14.271-10.278-28.546-15.43-42.806c-0.233-0.644-0.251-1.104-0.016-1.756
	C13.247,43.226,13.902,41.245,14.565,39.273z M49.164,32.083c-1.926-6.731-3.831-13.386-5.799-20.266
	c-4.111,26.388-8.181,52.514-12.251,78.64c0.134-0.048,0.181-0.147,0.219-0.254c5.232-14.524,10.461-29.051,15.702-43.566
	c0.17-0.472,0.147-0.792-0.008-1.237c-0.683-1.953-1.345-3.926-2.013-5.894c-0.644-1.896-0.471-2.979,0.65-4.058
	C46.816,34.339,47.97,33.231,49.164,32.083z M29.753,11.824c1.92,3.597,3.772,7.07,5.578,10.454
	c2.869-4.744,5.699-9.423,8.549-14.136C42.726,5.459,41.56,2.751,40.376,0c-3.575,3.975-7.103,7.896-10.624,11.812
	C26.199,7.862,22.674,3.944,19.126,0c-1.198,2.784-2.355,5.472-3.473,8.072c2.859,4.727,5.699,9.422,8.553,14.141
	C26.006,18.842,27.868,15.354,29.753,11.824z M59.5,20.083c-4.49-3.41-8.95-6.79-13.53-10.27c0.13,0.49,0.2,0.78,0.28,1.06
	c1.97,6.9,3.93,13.79,5.9,20.68c0.51,1.8,0.31,2.85-0.73,3.84c-1.12,1.07-2.24,2.14-3.43,3.27c0.66,1.91,1.23,3.74,1.89,5.48
	c0.51,1.34,0.47,2.47-0.02,3.82c-6.04,16.7-12.05,33.44-18.06,50.16c-0.12,0.33-0.23,0.67-0.37,1.09h0.01l-1.69,5.15l-1.69-5.15
	c0.01,0,0.01,0,0.01,0c-0.14-0.42-0.24-0.76-0.36-1.08c-6.03-16.76-12.05-33.52-18.1-50.25c-0.46-1.28-0.5-2.37-0.03-3.65
	c0.68-1.8,1.28-3.67,1.93-5.57c-1.16-1.11-2.27-2.16-3.37-3.22c-1.12-1.06-1.31-2.05-0.76-3.97c1.96-6.86,3.91-13.72,5.87-20.59
	c0.08-0.28,0.15-0.57,0.29-1.08c-4.6,3.5-9.07,6.89-13.54,10.29c4.74,26.46,9.45,52.79,14.17,79.12c0,0,0.01,0,0.02,0l15.58,86.16
	l15.58-86.16h-0.01C50.06,72.863,54.77,46.503,59.5,20.083z" class="color c1"/>
</svg>