<svg version="1.1" id="图层_1" x="0px" y="0px" width="67.654px" height="51.919px" viewBox="0 0 67.654 51.919" enable-background="new 0 0 67.654 51.919" xml:space="preserve" xmlns="http://www.w3.org/2000/svg" xmlns:xlink="http://www.w3.org/1999/xlink" xmlns:xml="http://www.w3.org/XML/1998/namespace">
  <path fill="#FFFFFF" d="M11.757,38.449C3.71,35.408-1.358,25.631,0.321,16.599C2.122,6.933,10.425,0.031,20.302,0
	c9.727-0.031,18.025,6.783,19.93,16.364c1.805,9.082-3.205,18.909-11.432,22.129c-0.275-1.936-0.299-3.378,1.65-4.786
	c8.043-5.818,9.123-17.241,2.539-24.687c-6.504-7.359-18.053-7.553-24.89-0.417c-6.834,7.132-6.15,18.634,1.686,24.766
	C11.61,34.797,12.339,36.157,11.757,38.449z" class="color c1"/>
  <path fill="#FFFFFF" d="M28.188,15.116c-5.289,0.058-10.578,0.062-15.865,0.012c-1.834-0.019-2.586,0.805-2.574,2.563
	c0.021,2.921,0,5.841,0.002,8.764c0.006,3.577,0.008,3.577,3.66,4.254c0,3.64,0,7.324,0,11.233c4.621,0,9.039,0,13.67,0
	c0-3.325,0.025-6.545-0.014-9.765c-0.012-1.112,0.205-1.848,1.541-1.776c1.639,0.088,2.236-0.887,2.238-2.379
	c0.004-3.472-0.002-6.945,0.004-10.419C30.856,15.808,29.968,15.097,28.188,15.116z" class="color c1"/>
  <path fill="#FFFFFF" d="M49.448,47.427c0.697-1.403,1.312-2.64,1.996-4.006c-2.361-0.984-1.969-2.417-0.984-4.083
	c1.029-1.743,1.94-3.562,2.83-5.383c0.684-1.402,1.523-1.815,2.998-1.009c3.312,1.811,6.656,3.569,10.041,5.238
	c1.539,0.761,1.609,1.688,0.861,3.031c-1.014,1.833-2.023,3.677-2.912,5.572c-0.809,1.723-1.748,2.787-3.76,1.226
	c-0.764,1.398-1.422,2.61-2.125,3.905C55.419,50.425,52.513,48.969,49.448,47.427z" class="color c1"/>
</svg>