<svg version="1.1" id="图层_1" x="0px" y="0px" width="42.721px" height="185.659px" viewBox="0 0 42.721 185.659" enable-background="new 0 0 42.721 185.659" xml:space="preserve" xmlns="http://www.w3.org/2000/svg" xmlns:xlink="http://www.w3.org/1999/xlink" xmlns:xml="http://www.w3.org/XML/1998/namespace">
  <path fill="#93D4F9" d="M32.789,181.371c-3.877,0-5.183,0.267-7.935-2.235c-3.106-2.824-4.983-5.523-4.983-10.062v-0.033
	l-1.499-55.974c-0.649,0.095-1.398-0.354-2.067-0.354c-3.36,0-4.948-1.158-7.358-3.353c-2.713-2.473-3.762-4.758-3.762-8.672v-0.034
	L4.924,57.76v-0.034c0-6.738,1.451-12.201,6.128-16.95c3.904-3.966,9.244-6.962,14.659-7.693c-1.704-3.038-2.254-6.859-2.254-10.584
	c0-0.006,0-0.013,0-0.019c0-0.005,0-0.01,0-0.015c0-11.576,7.697-20.311,19.264-20.359V0c-11.5,0.051-21.225,9.917-21.583,21.604
	c-0.095,3.778,0.831,7.304,2.562,10.353c-5.656,0.84-10.927,3.499-15.142,7.612C3.52,44.494,0.586,50.914,0.425,57.656
	C0.077,72.013-0.057,86.36,0.022,100.708c0.021,3.916,1.657,7.449,4.586,9.964c2.597,2.229,6.004,3.488,9.594,3.522
	c0.714,0.007,1.422-0.034,2.115-0.123c0.164,18.581,0.544,37.164,1.142,55.753c0.149,4.584,2.036,8.741,5.244,11.686
	c2.847,2.61,6.525,4.093,10.4,4.148c3.551,0.051,6.914-1.099,9.618-3.234v-1.298C40.033,183.232,36.338,181.371,32.789,181.371z" class="color c1"/>
  <path fill="#46ADEE" d="M21.761,22.37c0.004,3.731,0.98,7.237,2.692,10.278c-0.005,0.001-0.01,0.002-0.016,0.002
	c0.006,0.011,0.011,0.021,0.016,0.031c-5.42,0.728-10.418,3.215-14.326,7.185c-4.676,4.749-7.25,11.076-7.25,17.814v42.99
	c0,3.914,1.494,7.432,4.208,9.905c2.409,2.194,5.587,3.403,8.946,3.403c0.669,0,1.332-0.048,1.982-0.142v0.033v55.182
	c0,4.539,1.709,8.594,4.814,11.417c2.754,2.502,6.403,3.881,10.28,3.881c3.548,0,6.924-1.151,9.612-3.258V106.52V39.47v-3.106V8.346
	V1.343C31.161,1.392,21.772,10.802,21.761,22.37z" class="color c2"/>
</svg>