<svg version="1.1" id="图层_1" x="0px" y="0px" width="104.001px" height="76.213px" viewBox="0 0 104.001 76.213" enable-background="new 0 0 104.001 76.213" xml:space="preserve" xmlns="http://www.w3.org/2000/svg" xmlns:xlink="http://www.w3.org/1999/xlink" xmlns:xml="http://www.w3.org/XML/1998/namespace">
  <g>
    <path fill="#FFFFFF" d="M53.252,4.731c0,0.557-0.455,1.01-1.01,1.01H51.83c-0.556,0-1.01-0.453-1.01-1.01V1.01
		c0-0.555,0.454-1.01,1.01-1.01h0.412c0.555,0,1.01,0.455,1.01,1.01V4.731z" class="color c1"/>
    <path fill="#FFFFFF" d="M1.01,39.059c-0.555,0-1.01-0.455-1.01-1.01v-0.412c0-0.555,0.455-1.01,1.01-1.01h3.721
		c0.556,0,1.01,0.455,1.01,1.01v0.412c0,0.555-0.454,1.01-1.01,1.01H1.01z" class="color c1"/>
    <path fill="#FFFFFF" d="M99.271,39.059c-0.556,0-1.01-0.455-1.01-1.01v-0.412c0-0.555,0.454-1.01,1.01-1.01h3.721
		c0.555,0,1.009,0.455,1.009,1.01v0.412c0,0.555-0.454,1.01-1.009,1.01H99.271z" class="color c1"/>
    <path fill="#FFFFFF" d="M53.252,75.205c0,0.553-0.455,1.008-1.01,1.008H51.83c-0.556,0-1.01-0.455-1.01-1.008v-3.723
		c0-0.555,0.454-1.008,1.01-1.008h0.412c0.555,0,1.01,0.453,1.01,1.008V75.205z" class="color c1"/>
    <path fill="#FFFFFF" d="M49.901,39.77c-0.549-0.088-0.925-0.607-0.837-1.154l0.118-0.742c0.087-0.547,0.607-0.924,1.155-0.838
		l28.297,4.52c0.547,0.088,0.924,0.609,0.836,1.156l-0.117,0.74c-0.088,0.549-0.608,0.924-1.156,0.838L49.901,39.77z" class="color c1"/>
    <path fill="#FFFFFF" d="M53.962,37.023V17.65c0-0.557-0.454-1.01-1.01-1.01h-1.834c-0.555,0-1.009,0.453-1.009,1.01v18.803
		c0.075-0.006,0.149-0.021,0.228-0.01L53.962,37.023z" class="color c1"/>
  </g>
</svg>