<svg version="1.1" id="图层_1" x="0px" y="0px" width="21.93px" height="18.823px" viewBox="0 0 21.93 18.823" enable-background="new 0 0 21.93 18.823" xml:space="preserve" xmlns="http://www.w3.org/2000/svg" xmlns:xlink="http://www.w3.org/1999/xlink" xmlns:xml="http://www.w3.org/XML/1998/namespace">
  <path fill="#4AB5C2" d="M21.894,7.259c-0.147,1.673-0.84,3.13-1.783,4.481c-1.656,2.362-3.632,4.404-6.075,5.963
	c-0.836,0.533-1.717,0.969-2.722,1.097c-0.779,0.096-1.494-0.129-2.193-0.439c-1.207-0.564-2.325-1.303-3.316-2.193
	c-1.718-1.467-3.207-3.182-4.417-5.09C0.499,9.73,0.017,8.155,0,6.54c0-1.954,0.553-3.695,1.998-5.064
	C3.7-0.136,6.119-0.441,8.273,0.625c0.963,0.482,1.808,1.171,2.474,2.018c0.055,0.07,0.112,0.136,0.169,0.204
	c0.016,0.01,0.034,0.018,0.053,0.022c0.248-0.279,0.485-0.57,0.748-0.836c0.926-0.985,2.138-1.656,3.465-1.917
	c2.212-0.46,4.475,0.52,5.654,2.448C21.758,3.998,22.04,5.579,21.894,7.259z" class="color c1"/>
</svg>