<svg version="1.1" id="图层_1" x="0px" y="0px" width="103.703px" height="104.417px" viewBox="0 0 103.703 104.417" enable-background="new 0 0 103.703 104.417" xml:space="preserve" xmlns="http://www.w3.org/2000/svg" xmlns:xlink="http://www.w3.org/1999/xlink" xmlns:xml="http://www.w3.org/XML/1998/namespace">
  <path fill="#D0EDFB" d="M103.582,55.424c0.992-14.614-4.097-29.561-15.269-40.732c-0.836-0.837-1.7-1.627-2.578-2.395
	c9.481,10.834,13.776,24.626,12.859,38.14c-0.912,12.104-6.018,24.344-15.27,33.598c-19.69,19.689-51.107,20.481-71.753,2.397
	c0.771,0.883,1.569,1.752,2.41,2.593c20.525,20.526,53.804,20.526,74.331-0.002C97.565,79.77,102.671,67.527,103.582,55.424z" class="color c1"/>
  <path fill="#D0EDFB" d="M51.756,5.346c0,0.248-0.2,0.45-0.449,0.45h-0.451c-0.248,0-0.451-0.202-0.451-0.45V0.45
	c0-0.248,0.203-0.45,0.451-0.45h0.451c0.249,0,0.449,0.202,0.449,0.45V5.346z" class="color c1"/>
  <path fill="#D0EDFB" d="M51.756,97.426c0,0.248-0.2,0.45-0.449,0.45h-0.451c-0.248,0-0.451-0.202-0.451-0.45V92.53
	c0-0.248,0.203-0.45,0.451-0.45h0.451c0.249,0,0.449,0.202,0.449,0.45V97.426z" class="color c1"/>
  <path fill="#D0EDFB" d="M92.53,49.481c-0.248,0-0.449-0.2-0.449-0.449v-0.451c0-0.248,0.201-0.451,0.449-0.451h4.897
	c0.248,0,0.451,0.203,0.451,0.451v0.451c0,0.249-0.203,0.449-0.451,0.449H92.53z" class="color c1"/>
  <path fill="#D0EDFB" d="M0.451,49.481c-0.248,0-0.451-0.2-0.451-0.449v-0.451c0-0.248,0.203-0.451,0.451-0.451h4.897
	c0.248,0,0.448,0.203,0.448,0.451v0.451c0,0.249-0.2,0.449-0.448,0.449H0.451z" class="color c1"/>
</svg>