<svg version="1.1" id="图层_1" x="0px" y="0px" width="86.367px" height="113.765px" viewBox="0 0 86.367 113.765" enable-background="new 0 0 86.367 113.765" xml:space="preserve" xmlns="http://www.w3.org/2000/svg" xmlns:xlink="http://www.w3.org/1999/xlink" xmlns:xml="http://www.w3.org/XML/1998/namespace">
  <path fill="#FFFFFF" d="M65.464,43.139L81.779,0l4.588,4.403L71.23,44.422c0.461,0.155,0.926,0.313,1.375,0.488
	c0.459,0.179,0.908,0.375,1.347,0.575c5.958,2.709,10.354,7.427,11.211,13.533c0.08,0.584,0.135,1.19,0.171,1.815l-16.048-3.007
	l-1.459-0.275l-1.46-0.273l-5.838-1.094l-1.463-0.276l-1.455-0.276l-17.96-3.365c6.257-6.71,14.773-9.527,22.766-9.339
	c0.513,0.011,1.028,0.031,1.538,0.069C64.46,43.035,64.963,43.08,65.464,43.139z M58.35,61.544l-22.551-4.229
	C27.543,70.067,24.553,85.931,17.127,93.94C14.362,96.931,8.81,104.306,0,105.744l48.024,5.659L61.18,92.526l-5.806,19.744
	l12.653,1.494c0,0,14.896-28.367,17.072-47.205l-19.146-3.589L58.35,61.544z" class="color c1"/>
</svg>