<svg version="1.1" id="图层_1" x="0px" y="0px" width="96.508px" height="96.509px" viewBox="0 0 96.508 96.509" enable-background="new 0 0 96.508 96.509" xml:space="preserve" xmlns="http://www.w3.org/2000/svg" xmlns:xlink="http://www.w3.org/1999/xlink" xmlns:xml="http://www.w3.org/XML/1998/namespace">
  <path fill="#EC990B" d="M48.713,5.272c0,0.245-0.135,0.444-0.305,0.444h-0.307c-0.168,0-0.307-0.2-0.307-0.444v-4.83
	C47.795,0.199,47.934,0,48.102,0h0.307c0.17,0,0.305,0.199,0.305,0.442L48.713,5.272L48.713,5.272z" class="color c1"/>
  <path fill="#EC990B" d="M48.713,96.066c0,0.244-0.135,0.442-0.305,0.442h-0.307c-0.168,0-0.307-0.198-0.307-0.442v-4.828
	c0-0.244,0.139-0.444,0.307-0.444h0.307c0.17,0,0.305,0.2,0.305,0.444V96.066z" class="color c1"/>
  <path fill="#EC990B" d="M27.16,10.802c0.123,0.21,0.103,0.453-0.041,0.537l-0.266,0.154c-0.146,0.084-0.365-0.023-0.488-0.233
	l-2.414-4.18c-0.121-0.21-0.101-0.452,0.043-0.537l0.269-0.153c0.143-0.084,0.361,0.019,0.483,0.23L27.16,10.802z" class="color c1"/>
  <path fill="#EC990B" d="M72.559,89.431c0.121,0.213,0.102,0.453-0.043,0.537l-0.266,0.154c-0.148,0.084-0.365-0.02-0.486-0.231
	L69.35,85.71c-0.123-0.212-0.105-0.453,0.041-0.538l0.268-0.153c0.146-0.085,0.363,0.021,0.486,0.232L72.559,89.431z" class="color c1"/>
  <path fill="#EC990B" d="M11.26,26.367c0.211,0.123,0.318,0.34,0.232,0.485l-0.154,0.267c-0.084,0.147-0.324,0.164-0.537,0.042
	l-4.182-2.414c-0.211-0.123-0.316-0.339-0.231-0.486l0.152-0.267c0.086-0.145,0.324-0.164,0.537-0.042L11.26,26.367z" class="color c1"/>
  <path fill="#EC990B" d="M89.889,71.764c0.213,0.122,0.316,0.34,0.232,0.484l-0.154,0.267c-0.084,0.147-0.324,0.166-0.537,0.043
	l-4.182-2.414c-0.207-0.122-0.314-0.341-0.23-0.488l0.152-0.266c0.086-0.145,0.326-0.164,0.539-0.041L89.889,71.764z" class="color c1"/>
  <path fill="#EC990B" d="M69.35,10.802c-0.121,0.21-0.104,0.453,0.041,0.537l0.266,0.154c0.148,0.084,0.365-0.023,0.488-0.233
	l2.414-4.181c0.121-0.21,0.102-0.452-0.043-0.537L72.248,6.39c-0.145-0.084-0.363,0.019-0.484,0.23L69.35,10.802z" class="color c1"/>
  <path fill="#EC990B" d="M23.953,89.431c-0.123,0.213-0.104,0.453,0.041,0.537l0.268,0.154c0.145,0.084,0.363-0.02,0.486-0.231
	l2.412-4.181c0.123-0.212,0.103-0.453-0.041-0.538l-0.268-0.153c-0.144-0.085-0.363,0.021-0.486,0.232L23.953,89.431z" class="color c1"/>
  <path fill="#EC990B" d="M85.25,26.367c-0.209,0.123-0.316,0.34-0.232,0.485l0.152,0.267c0.086,0.147,0.326,0.164,0.539,0.042
	l4.182-2.414c0.211-0.123,0.314-0.339,0.23-0.486l-0.154-0.267c-0.084-0.145-0.324-0.164-0.535-0.042L85.25,26.367z" class="color c1"/>
  <path fill="#EC990B" d="M6.621,71.764c-0.213,0.122-0.318,0.34-0.233,0.484l0.152,0.267c0.086,0.147,0.326,0.166,0.539,0.043
	l4.18-2.414c0.211-0.122,0.318-0.341,0.232-0.488l-0.154-0.266c-0.082-0.145-0.324-0.164-0.537-0.041L6.621,71.764z" class="color c1"/>
  <path fill="#EC990B" d="M5.271,47.797c0.244,0,0.443,0.136,0.443,0.304v0.308c0,0.168-0.199,0.305-0.443,0.305H0.443
	C0.199,48.714,0,48.577,0,48.409v-0.308c0-0.169,0.199-0.304,0.443-0.304H5.271z" class="color c1"/>
  <path fill="#EC990B" d="M96.064,47.797c0.244,0,0.443,0.136,0.443,0.304v0.308c0,0.168-0.199,0.305-0.443,0.305h-4.826
	c-0.244,0-0.445-0.137-0.445-0.305v-0.308c0-0.169,0.201-0.304,0.445-0.304H96.064z" class="color c1"/>
</svg>