<svg version="1.1" id="图层_1" x="0px" y="0px" width="190px" height="97.521px" viewBox="0 0 190 97.521" enable-background="new 0 0 190 97.521" xml:space="preserve" xmlns="http://www.w3.org/2000/svg" xmlns:xlink="http://www.w3.org/1999/xlink" xmlns:xml="http://www.w3.org/XML/1998/namespace">
  <path fill="#FBB536" d="M187.689,92.687h-42.813c0.012,0.438,0.034,0.874,0.034,1.314c0,1.059-0.047,2.105-0.112,3.146l42.892-0.045
	c1.26,0,2.311-1.053,2.311-2.313C190,93.737,188.949,92.687,187.689,92.687z" class="color c1"/>
  <path fill="#FBB536" d="M181.173,60.739c0.632-0.21,1.051-0.629,1.262-1.261c0.21-0.629,0.21-1.26,0-1.682
	c-0.422-0.839-1.262-1.47-2.103-1.47c-0.211,0-0.63,0-0.84,0.21l-39.188,16.777c0.638,1.357,1.216,2.745,1.729,4.166L181.173,60.739
	z" class="color c1"/>
  <path fill="#FBB536" d="M174.868,80.287c0.63-0.21,1.052-0.632,1.471-1.051c0.421-0.42,0.421-1.051,0.421-1.683
	c-0.211-1.26-1.471-2.101-2.732-1.68l-30.561,6.341c0.367,1.485,0.673,2.994,0.902,4.528L174.868,80.287z" class="color c1"/>
  <path fill="#FBB536" d="M132.281,61.27l29.977-30.165c0.838-0.841,0.838-2.311,0-3.151c-0.843-0.841-2.313-0.841-3.364,0
	L128.93,57.914C130.1,58.978,131.218,60.098,132.281,61.27z" class="color c1"/>
  <path fill="#FBB536" d="M160.575,52.754c0.632,0,0.84-0.632,1.051-1.263c0.212-0.629,0-1.261-0.419-1.68
	c-0.42-0.632-1.054-1.051-1.892-1.051c-0.422,0-0.843,0.21-1.263,0.419l-22.954,15.499c0.939,1.242,1.819,2.533,2.637,3.865
	L160.575,52.754z" class="color c1"/>
  <path fill="#FBB536" d="M141.029,28.162c0.631-1.05,0.42-2.522-0.631-3.151c-0.42-0.212-0.841-0.422-1.261-0.422
	c-0.842,0-1.471,0.422-1.892,1.051l-16.89,26.055c1.361,0.781,2.682,1.622,3.956,2.527L141.029,28.162z" class="color c1"/>
  <path fill="#FBB536" d="M131.781,9.878c0.421-1.263,0-2.523-1.26-2.942c-0.422-0.212-0.632-0.212-0.841-0.212
	c-0.842,0-1.683,0.631-2.102,1.472l-15.95,39.587c1.402,0.469,2.774,0.997,4.115,1.585L131.781,9.878z" class="color c1"/>
  <path fill="#FBB536" d="M111.813,18.914c0.211-0.631,0-1.261-0.419-1.682c-0.421-0.42-0.841-0.839-1.472-1.051
	c-1.261-0.21-2.521,0.631-2.732,1.894l-5.259,27.539c1.573,0.186,3.123,0.444,4.646,0.775L111.813,18.914z" class="color c1"/>
  <path fill="#FBB536" d="M97.102,45.288V2.312C97.102,1.049,96.051,0,94.789,0c-1.26,0-2.312,1.049-2.312,2.312v43.105
	c1.221-0.09,2.45-0.152,3.695-0.152C96.484,45.265,96.792,45.283,97.102,45.288z" class="color c1"/>
  <path fill="#FBB536" d="M80.289,15.131c-0.211-1.049-1.264-1.892-2.314-1.892c-0.209,0-0.421,0-0.421,0
	c-0.63,0.212-1.052,0.422-1.471,1.051c-0.419,0.422-0.419,1.051-0.209,1.682l6.415,31.313c1.549-0.461,3.13-0.843,4.737-1.149
	L80.289,15.131z" class="color c1"/>
  <path fill="#FBB536" d="M60.74,8.827c-0.421-0.841-1.262-1.473-2.102-1.473c-0.211,0-0.63,0-0.841,0.21
	c-0.63,0.21-1.051,0.841-1.262,1.263c-0.209,0.629-0.209,1.258,0,1.68l17.198,40.235c1.364-0.709,2.767-1.356,4.203-1.937
	L60.74,8.827z" class="color c1"/>
  <path fill="#FBB536" d="M52.964,29.423c-0.42-0.629-1.051-1.051-1.891-1.051c-0.421,0-0.841,0.21-1.261,0.422
	c-1.052,0.629-1.262,2.102-0.631,3.151L65.72,55.963c1.215-0.973,2.476-1.89,3.781-2.745L52.964,29.423z" class="color c1"/>
  <path fill="#FBB536" d="M62.345,58.937l-31.24-30.983c-0.841-0.841-2.312-0.841-3.362,0c-0.84,0.841-0.84,2.311,0,3.151
	l31.462,31.16C60.199,61.107,61.247,59.995,62.345,58.937z" class="color c1"/>
  <path fill="#FBB536" d="M27.953,49.18c-0.421-0.209-0.843-0.419-1.262-0.419c-0.841,0-1.472,0.419-1.892,1.051
	c-0.632,1.051-0.21,2.311,0.841,3.151l27.59,17.983c0.7-1.302,1.461-2.564,2.272-3.792L27.953,49.18z" class="color c1"/>
  <path fill="#FBB536" d="M9.879,58.219c-0.211-0.21-0.632-0.21-0.843-0.21c-0.841,0-1.892,0.629-2.101,1.47
	c-0.421,1.261,0,2.523,1.26,3.152L49.67,79.388c0.476-1.515,1.023-2.999,1.639-4.447L9.879,58.219z" class="color c1"/>
  <path fill="#FBB536" d="M18.915,78.186c-1.262-0.21-2.521,0.631-2.732,1.892c-0.21,0.629,0,1.26,0.42,1.682
	c0.421,0.42,0.842,0.839,1.472,1.051l29.691,5.603c0.177-1.533,0.418-3.047,0.731-4.535L18.915,78.186z" class="color c1"/>
  <path fill="#FBB536" d="M47.465,92.896H2.312C1.051,92.896,0,93.947,0,95.21c0,1.261,1.051,2.311,2.312,2.311h45.267
	c-0.083-1.163-0.141-2.333-0.141-3.52C47.438,93.631,47.457,93.267,47.465,92.896z" class="color c1"/>
</svg>