<svg version="1.1" id="图层_1" x="0px" y="0px" width="181.524px" height="132.576px" viewBox="0 0 181.524 132.576" enable-background="new 0 0 181.524 132.576" xml:space="preserve" xmlns="http://www.w3.org/2000/svg" xmlns:xlink="http://www.w3.org/1999/xlink" xmlns:xml="http://www.w3.org/XML/1998/namespace">
  <path fill="#309BFE" d="M102.323,61.348c0.533,0.5,0.559,1.328,0.035,1.887l-7.34,7.652c1.064,1.828,0.852,4.191-0.645,5.787
	c-0.244,0.26-0.514,0.494-0.81,0.68l4.81,14.383c0.225,0.697-0.141,1.451-0.852,1.689c-0.696,0.223-1.451-0.143-1.688-0.852
	l-4.809-14.359c-1.295,0.057-2.58-0.392-3.554-1.307c-1.104-1.033-1.629-2.477-1.524-3.889l-16.019-3.332
	c-0.38-0.062-0.617-0.434-0.53-0.814c0.063-0.375,0.444-0.613,0.813-0.531l16.033,3.346l0.012-0.014
	c0.22-0.598,0.553-1.162,1.016-1.656c1.532-1.637,3.938-1.99,5.82-0.982l7.342-7.652C100.935,60.85,101.777,60.836,102.323,61.348z
	 M181.524,23.594V126.84c0,3.166-2.567,5.736-5.737,5.736H5.736c-3.17,0-5.736-2.57-5.736-5.736V23.594
	c0-3.17,2.566-5.738,5.736-5.738h44.216c0.154-0.277,0.317-0.555,0.501-0.84l8.442-12.957C60.412,1.734,63.621,0,66.186,0h51.065
	c2.563,0,5.772,1.734,7.29,4.059l8.439,12.957c0.184,0.285,0.35,0.562,0.5,0.84h42.307
	C178.957,17.855,181.524,20.424,181.524,23.594z M61.221,16.256h60.995l-4.808-7.377c-0.109-0.096-0.302-0.211-0.453-0.271H66.48
	c-0.15,0.061-0.344,0.176-0.452,0.271L61.221,16.256z M34.697,120.717c-7.317-7.312-14.629-14.623-21.939-21.938v16.201
	c0,3.17,2.566,5.736,5.736,5.736H34.697z M169.092,98.451l-22.265,22.266h16.528c3.17,0,5.736-2.566,5.736-5.736V98.451z
	 M169.092,34.66c0-3.166-2.566-5.736-5.736-5.736H18.494c-3.17,0-5.736,2.57-5.736,5.736v18.646c0,3.17,2.566,5.736,5.736,5.736
	h29.316c-1.8,4.922-2.783,10.236-2.783,15.779c0,25.348,20.549,45.894,45.896,45.894c25.35,0,45.898-20.547,45.898-45.894
	c0-5.543-0.982-10.858-2.783-15.779h29.316c3.17,0,5.736-2.566,5.736-5.736V34.66z M157.998,36.006H132.4
	c-3.167,0-5.736,2.568-5.736,5.736v2.545c0,3.168,2.569,5.736,5.736,5.736h25.598c3.17,0,5.74-2.568,5.74-5.736v-2.545
	C163.738,38.574,161.168,36.006,157.998,36.006z M131.512,73.84c0,22.506-18.244,40.75-40.75,40.75
	c-22.506,0-40.75-18.244-40.75-40.75c0-22.506,18.244-40.75,40.75-40.75C113.268,33.09,131.512,51.334,131.512,73.84z
	 M123.429,75.402h-2.667c-0.863,0-1.562-0.699-1.562-1.562c0-0.863,0.699-1.562,1.562-1.562h2.667
	c-0.369-7.854-3.506-14.984-8.461-20.434l-1.889,1.889c-0.61,0.611-1.599,0.611-2.21,0c-0.609-0.609-0.609-1.6,0-2.209l1.889-1.889
	c-5.45-4.955-12.58-8.092-20.434-8.463v2.668c0,0.863-0.699,1.562-1.562,1.562c-0.863,0-1.562-0.699-1.562-1.562v-2.668
	c-7.854,0.371-14.984,3.508-20.435,8.463l1.889,1.889c0.61,0.609,0.61,1.598,0,2.209c-0.61,0.611-1.6,0.611-2.21,0l-1.888-1.889
	c-4.955,5.449-8.092,12.58-8.461,20.434h2.667c0.863,0,1.562,0.699,1.562,1.562c0,0.863-0.699,1.562-1.562,1.562h-2.667
	c0.369,7.854,3.506,14.984,8.461,20.434l1.888-1.887c0.61-0.611,1.6-0.611,2.21,0c0.61,0.611,0.61,1.6,0,2.209l-1.888,1.889
	c5.449,4.955,12.579,8.092,20.434,8.461v-2.668c0-0.863,0.699-1.562,1.562-1.562c0.863,0,1.562,0.699,1.562,1.562v2.668
	c7.853-0.369,14.983-3.508,20.433-8.463l-1.887-1.887c-0.61-0.609-0.61-1.598,0-2.209c0.61-0.611,1.6-0.611,2.21,0l1.887,1.887
	C119.922,90.387,123.06,83.256,123.429,75.402z" class="color c1"/>
</svg>