<svg version="1.1" id="图层_1" x="0px" y="0px" width="291.75px" height="139.003px" viewBox="0 0 291.75 139.003" enable-background="new 0 0 291.75 139.003" xml:space="preserve" xmlns="http://www.w3.org/2000/svg" xmlns:xlink="http://www.w3.org/1999/xlink" xmlns:xml="http://www.w3.org/XML/1998/namespace">
  <path fill="#00ACA9" d="M291.748,138.182c-0.482,0.522-98.217,0.821-98.217,0.821c-0.721,0-1.41-0.307-1.893-0.844
	c-0.484-0.537-0.718-1.254-0.644-1.974l6.243-59.325c0.14-1.297,1.232-2.283,2.535-2.283h9.783V45.331h-43.305
	c-1.035,0-1.969-0.626-2.361-1.583c-0.393-0.958-0.164-2.058,0.572-2.784l20.818-20.48L166.505,6.366l-18.19,33.635
	c-0.445,0.824-1.308,1.337-2.245,1.337c-0.934,0-1.794-0.513-2.24-1.337L125.639,6.366L106.86,20.485l20.818,20.48
	c0.738,0.726,0.965,1.825,0.572,2.784c-0.393,0.957-1.324,1.583-2.359,1.583H82.584V74.58h9.783c1.305,0,2.398,0.986,2.535,2.283
	l6.246,59.325c0.072,0.72-0.158,1.437-0.641,1.974c-0.486,0.537-1.174,0.844-1.896,0.844c0,0-98.129-0.293-98.609-0.809
	c-0.484-0.516,95.777-4.291,95.777-4.291L90.07,79.677H80.033c-1.408,0-2.549-1.141-2.549-2.549V42.782
	c0-1.408,1.141-2.55,2.549-2.55h39.629l-18.49-18.188c-0.527-0.521-0.803-1.246-0.754-1.987c0.049-0.741,0.418-1.423,1.012-1.869
	l23.508-17.676c0.594-0.445,1.354-0.611,2.078-0.453c0.727,0.158,1.344,0.626,1.699,1.278L146.07,33.43l17.36-32.093
	c0.354-0.652,0.975-1.12,1.698-1.278c0.724-0.159,1.481,0.008,2.076,0.453l23.51,17.676c0.593,0.446,0.961,1.128,1.011,1.869
	c0.049,0.741-0.228,1.466-0.754,1.987l-18.49,18.188h39.629c1.408,0,2.551,1.142,2.551,2.55v34.346c0,1.408-1.143,2.549-2.551,2.549
	h-10.037l-5.709,54.227C196.363,133.904,292.23,137.658,291.748,138.182z" class="color c1"/>
</svg>