<svg version="1.1" id="图层_1" x="0px" y="0px" width="123.596px" height="123.597px" viewBox="0 0 123.596 123.597" enable-background="new 0 0 123.596 123.597" xml:space="preserve" xmlns="http://www.w3.org/2000/svg" xmlns:xlink="http://www.w3.org/1999/xlink" xmlns:xml="http://www.w3.org/XML/1998/namespace">
  <path fill="#4B2F0A" d="M62.836,5.228c0,0.293-0.24,0.531-0.531,0.531h-1.014c-0.293,0-0.531-0.238-0.531-0.531V0.532
	C60.76,0.238,60.998,0,61.291,0h1.014c0.291,0,0.531,0.238,0.531,0.532V5.228z" class="color c1"/>
  <path fill="#4B2F0A" d="M62.836,123.065c0,0.293-0.24,0.532-0.531,0.532h-1.014c-0.293,0-0.531-0.238-0.531-0.532v-4.696
	c0-0.294,0.238-0.531,0.531-0.531h1.014c0.291,0,0.531,0.238,0.531,0.531V123.065z" class="color c1"/>
  <path fill="#4B2F0A" d="M22.529,21.062c0.207,0.208,0.207,0.545,0,0.751l-0.715,0.716c-0.209,0.208-0.545,0.208-0.752,0l-3.32-3.32
	c-0.209-0.208-0.209-0.544,0-0.752l0.715-0.716c0.207-0.207,0.545-0.208,0.752,0L22.529,21.062z" class="color c1"/>
  <path fill="#4B2F0A" d="M105.854,104.386c0.207,0.208,0.207,0.545,0,0.752l-0.715,0.716c-0.209,0.208-0.545,0.208-0.754,0
	l-3.32-3.32c-0.207-0.208-0.207-0.544,0-0.752l0.717-0.716c0.207-0.207,0.545-0.208,0.752,0L105.854,104.386z" class="color c1"/>
  <path fill="#4B2F0A" d="M102.533,22.53c-0.207,0.208-0.545,0.207-0.752,0l-0.715-0.716c-0.209-0.208-0.209-0.544,0-0.752l3.32-3.32
	c0.207-0.208,0.543-0.208,0.752,0l0.715,0.716c0.207,0.207,0.207,0.544,0,0.751L102.533,22.53z" class="color c1"/>
  <path fill="#4B2F0A" d="M19.209,105.854c-0.207,0.208-0.545,0.207-0.752,0l-0.715-0.715c-0.209-0.208-0.207-0.544,0-0.752l3.32-3.32
	c0.207-0.208,0.543-0.208,0.752,0l0.715,0.716c0.207,0.206,0.207,0.544,0,0.751L19.209,105.854z" class="color c1"/>
  <path fill="#4B2F0A" d="M5.227,60.761c0.293,0,0.531,0.238,0.531,0.532v1.012c0,0.294-0.238,0.532-0.531,0.532H0.531
	C0.236,62.836,0,62.598,0,62.304v-1.012c0-0.293,0.236-0.532,0.531-0.532h4.696V60.761z" class="color c1"/>
  <path fill="#4B2F0A" d="M123.064,60.761c0.293,0,0.531,0.238,0.531,0.532v1.012c0,0.294-0.238,0.532-0.531,0.532h-4.695
	c-0.295,0-0.531-0.238-0.531-0.532v-1.012c0-0.293,0.236-0.532,0.531-0.532H123.064z" class="color c1"/>
</svg>