<svg version="1.1" id="图层_1" x="0px" y="0px" width="154.131px" height="189.613px" viewBox="0 0 154.131 189.613" enable-background="new 0 0 154.131 189.613" xml:space="preserve" xmlns="http://www.w3.org/2000/svg" xmlns:xlink="http://www.w3.org/1999/xlink" xmlns:xml="http://www.w3.org/XML/1998/namespace">
  <path fill="#191919" d="M150.255,176.388c-4.072-13.787-3.336-27.742-1.317-41.717c0.169-1.164,0.803-2.352,1.494-3.336
	c3.123-4.453,2.778-7.678-1.302-11.4c-1.032-0.941-2.016-1.945-2.922-3.004c-0.528-0.617-0.859-1.402-1.397-2.311
	c1.045-0.795,1.989-1.512,2.936-2.229c0.726-0.551,1.061-1.941,1.061-1.941l-0.006,0.006c0.94-2.266,0.963-4.887,0.963-4.887
	c-1.025,4.207-3.839,5.84-4.767,6.273c-3.636-0.951-7.305-2.35-10.373,0.938c-0.183,0.231-0.334,0.525-0.338,0.533
	c-0.123,0.459-0.217,1.355,0.71,1.865c0.086,0.049,0.184,0.092,0.288,0.131c0.141,0.055,0.293,0.102,0.47,0.139
	c0.001,0,0.002,0.002,0.003,0.002c0.427,0.15,0.878,0.312,1.399,0.496c-4.752,1.172-8.425,1.215-9.841-3.998
	c-0.277-1.018-0.174-2.139-0.179-3.229h0.005c0.009-0.807,0.791-4.191,0.791-4.191c-1.41,1.027-1.926,2.84-2.092,3.652
	c-0.004,0-0.009,0-0.014-0.002c-0.279,2.416-1.637,5.623-0.583,7.059c1.52,2.068,4.792,2.85,8.161,4.627
	c-1.357,1.393-3.053,3.373-4.99,5.076c-5.223,4.592-10.55,9.064-15.09,12.947c0.7-1.168,2.054-3.428,3.478-5.807
	c-15.674,1.67-28.225-4.519-37.801-16.014c-10.687-12.826-8.115-26.49-0.321-40.129l-3.623,1.703
	c2.156-2.492,4.312-4.98,6.468-7.471l-6.197,3.717c0.835-1.678,1.327-2.67,2.215-4.455c-1.45,0.689-2.123,1.008-3.771,1.791
	l8.075-5.656c0.561-0.262,1.157-0.453,1.746-0.65c11.365-3.795,18.72-12.654,26.579-20.918c2.93-3.08,6.16-5.875,9.72-9.242
	c2.01,3.549,6.072,8.527,8.761,12.746c1.38,2.338,5.216,8.484,4.185,15.613c0,0,4.081-6.238,3.613-8.781
	c8.265-2.045,12.502-7.172,13.932-16.482c1.51-9.815-2.308-16.531-11.73-20.834c-1.071-0.49-2.171-1.242-2.871-2.166
	c-5.794-7.641-13.656-11.781-22.864-13.582C98.92-1.464,85.188,0.563,71.613,4.05c-5.141,1.32-10.137,3.205-15.898,5.059
	c1.726-1.684,2.939-2.869,4.126-4.027C56.93,0.368,51.19-1.235,46.155,1.147c-5.081,2.404-5.86,7.404-2.463,16.734
	c-0.702,0.482-1.187,0.869-1.72,1.17C27.244,27.333,15.647,38.89,6.544,53.022C0.143,62.962-1.474,73.69,1.307,85.169
	c1.257,5.193,8.074,13.703,10.452,18.281l0.014-0.008c1.335,2.666,2.732,5.314,4.153,7.957c3.048,5.674,6.22,11.318,8.73,17.234
	c1.9,4.473,3.341,9.277,4.064,14.076c0.715,4.752,0.274,9.68,0.333,14.029c5.228-6.285,7.342-13.975,6.243-22.594
	c-0.631-4.947-5.298-14.119-9.552-17.594c-4.34-3.547-6.762-8.481-7.43-14.197c-0.547-4.676,1.289-8.703,4.372-10.846l2.382-1.189
	c2.018-0.66,4.344-0.637,6.777,0.283c5.205,1.971,10.702,4.965,14.29,9.057c1.113,1.271,2.175,2.492,3.185,3.701
	c1.66,2.324,3.705,5.812,5.472,10.682c0.308,0.947,4.648,14.771,1.338,30.637c-0.123,0.408-0.371,1.314-0.593,2.566l-0.001,0.002
	c-0.982,5.572-1.354,18.037,12.843,24.506c0.005,0.002,0.009,0.004,0.014,0.006c9.209,5.584,19.212,9.131,29.672,11.605
	c17.832,4.219,36.012,5.324,54.217,6.246c0.518,0.027,1.047-0.16,1.849-0.295C152.802,184.886,151.512,180.642,150.255,176.388z
	 M134.5,24.505c4.585,0.455,8.551,2.848,10.073,7.715c1.105,3.537-1.017,7.688-6.125,11.881c0.601-1.41,0.952-2.209,1.284-3.018
	c2.473-6.014-0.351-10.742-6.797-11.412c-5.22-0.545-9.903,1.188-14.086,3.949c-3.808,2.514-7.464,5.387-10.729,8.57
	c-9.198,8.973-19.901,15.592-31.451,20.984l-1.595,0.48c11.746-6.193,20.501-16.17,28.84-26.061
	c4.697-5.574,10.157-10.49,17.403-12.254C125.546,24.312,130.16,24.077,134.5,24.505z M59.464,20.444
	c-2.663-0.504-5.002-0.947-7.961-1.508c5.953-2.746,10.883-5.728,16.228-7.352c13.637-4.143,27.601-6.537,41.928-4.445
	c8.397,1.227,15.806,4.383,20.464,12.066c0.249,0.412,0.408,0.879,0.682,1.484c-3.594,0.191-7.049,0.166-10.449,0.598
	c-8.35,1.059-14.754,5.559-19.983,11.91c-3.792,4.605-7.346,9.42-11.318,13.861l-9.293,6.943c1.522-1.57,3.043-3.139,4.914-5.068
	C70.89,43.671,61.313,35.19,59.464,20.444z M146.647,136.323c-0.379,0.432-1.078,1.055-2.281,1.557l-0.001-0.002
	c-0.158,0.076-0.318,0.143-0.485,0.189c-4.881,1.354-9.832,2.455-14.926,3.689c2.272-1.988,4.53-4.41,7.217-6.18
	c1.97-1.297,4.331-2.271,6.657-2.697l-0.002-0.006c0,0,3.499-1,4.113,2.225c0.001,0.008,0.003,0.018,0.004,0.027
	c0.004,0.023,0.005,0.051,0.009,0.074C146.978,135.442,146.971,135.907,146.647,136.323z" class="color c1"/>
</svg>