<svg version="1.1" id="图层_1" x="0px" y="0px" width="48.76px" height="171.636px" viewBox="0 0 48.76 171.636" enable-background="new 0 0 48.76 171.636" xml:space="preserve" xmlns="http://www.w3.org/2000/svg" xmlns:xlink="http://www.w3.org/1999/xlink" xmlns:xml="http://www.w3.org/XML/1998/namespace">
  <g>
    <path fill="#DB925F" d="M24.395,0.047" class="color c1"/>
    <path fill="#DB925F" d="M24.363,0" class="color c1"/>
    <path fill="#DB925F" d="M40.231,63.404c0,0-14.459-42.297-15.837-62.941V0.047c-0.002,0.068-0.01,0.139-0.014,0.211
		C24.375,0.172,24.369,0.084,24.363,0v0.512C22.985,21.154,8.528,63.451,8.528,63.451c-26.041,72.888,15.867,92.496,15.867,92.496
		v-0.063C25.67,155.266,65.86,135.141,40.231,63.404z" class="color c1"/>
  </g>
  <path fill="#EEE89B" d="M36.541,79.855c0,0-11.092-32.449-12.146-48.285v-0.316c-0.006,0.051-0.01,0.104-0.014,0.158
	c-0.004-0.064-0.008-0.133-0.014-0.195v0.391c-1.056,15.836-12.148,48.283-12.148,48.283
	c-19.977,55.914,12.175,70.955,12.175,70.955v-0.05C25.369,150.324,56.203,134.884,36.541,79.855z" class="color c2"/>
  <path fill="#020202" d="M28.957,144.773c2.914-13.598-2.692-17.178-2.692-17.178c-11.485-5.391-4.395,13.98-4.395,13.98
	c1.898,11.684-0.467,14.049-0.467,14.049c-4.656,6.389-3.594,13.047-3.594,13.047c3.463,6.256,13.249,0.664,13.249,0.664
	S25.155,162.529,28.957,144.773z" class="color c3"/>
</svg>