<svg version="1.1" id="图层_1" x="0px" y="0px" width="214.98px" height="214.879px" viewBox="0 0 214.98 214.879" enable-background="new 0 0 214.98 214.879" xml:space="preserve" xmlns="http://www.w3.org/2000/svg" xmlns:xlink="http://www.w3.org/1999/xlink" xmlns:xml="http://www.w3.org/XML/1998/namespace">
  <path fill="#E20000" d="M107.125,214.879c-20.415,0-40.421-5.873-57.988-17.25C24.87,181.913,8.237,157.638,2.302,129.276
	c-5.772-27.582-0.603-55.803,14.557-79.467C31.745,26.571,54.63,10.06,81.296,3.316c4.279-1.082,8.535-1.647,12.651-2.193
	c1.868-0.248,3.632-0.482,5.39-0.761c0.131-0.022,0.267-0.057,0.403-0.088L101.014,0h12.585l0.468,0.059
	c1.026,0.129,2.056,0.245,3.085,0.36c2.375,0.266,4.83,0.541,7.338,0.989c35.745,6.385,62.131,25.616,78.425,57.158
	c15.385,29.783,16.089,64.135,1.932,94.25c-14.4,30.631-41.613,52.339-74.661,59.559
	C122.514,214.05,114.789,214.879,107.125,214.879z M102.619,15c-0.309,0.066-0.618,0.127-0.929,0.176
	c-1.949,0.309-3.891,0.567-5.769,0.816c-3.863,0.513-7.513,0.997-10.949,1.866c-22.956,5.805-42.661,20.025-55.484,40.042
	c-13.025,20.334-17.467,44.591-12.505,68.303c5.109,24.416,19.424,45.31,40.307,58.834c20.779,13.457,45.53,17.959,69.693,12.682
	c28.455-6.216,51.888-24.909,64.287-51.286c12.158-25.86,11.544-55.377-1.683-80.984c-14.039-27.176-36.829-43.755-67.736-49.275
	c-2.026-0.362-4.137-0.599-6.37-0.849c-0.94-0.105-1.881-0.211-2.818-0.326H102.619z" class="color c1"/>
</svg>