<svg version="1.1" id="图层_1" x="0px" y="0px" width="202px" height="148.247px" viewBox="0 0 202 148.247" enable-background="new 0 0 202 148.247" xml:space="preserve" xmlns="http://www.w3.org/2000/svg" xmlns:xlink="http://www.w3.org/1999/xlink" xmlns:xml="http://www.w3.org/XML/1998/namespace">
  <path fill="#31210E" d="M185.679,7.299l-1.354,2.47l-19.608,14.133l-80.34,40.583l-7.453,21.791l-17.512,2.751
	c0.076-0.547,0.194-1.059,0.588-1.518c0.044-0.051,0.075-0.116,0.112-0.175l12.798-8.226l0.859-10.322l-6.195,2.31
	c-0.363-1.011,0.666-1.827,0.713-2.791c0.01-0.411,0.303-0.476,0.595-0.541c0.464-0.206,0.929-0.411,1.134-0.865
	c0.303-0.475,0.41-0.909,0.064-1.547c-1.309-1.75-2.693-3.383-4.671-4.474c-1.027-0.486-1.611-1.275-1.85-2.346
	c-0.173-0.778-0.466-1.632-0.444-2.454c0.032-1.232-0.573-2.12-1.375-2.962c-1.199-1.265-2.399-2.53-3.503-3.816
	c-0.681-0.768-1.243-1.459-1.655-2.389c-1.579-3.426-3.721-6.625-5.863-9.826c-1.936-2.734-3.85-5.372-5.959-7.966
	c-2.931-3.534-6.337-6.451-10.317-8.732c-3.049-1.771-6.228-3.209-9.277-4.981c-0.692-0.357-1.46-0.595-2.326-0.811
	c-0.042,0.724,0.38,1.244,0.682,1.687c1.125,1.384,2.077,2.908,3.029,4.432c0.79,1.254,0.92,2.757,2.055,3.729
	c0.119,0.076,0.184,0.369,0.012,0.509c-0.174,0.14-0.389,0.086-0.509,0.011c-1.611-0.356-3.168-0.928-4.628-1.524
	c-1.125-0.463-2.249-0.929-3.471-1.371c-0.768-0.238-1.524,0.031-2.216-0.324c-0.303,0.475,0.055,0.703,0.313,0.951
	c1.146,1.48,2.271,2.864,3.417,4.345c0.325,0.541,1.06,1.093,0.779,1.666c-0.475,0.615-1.287,0.183-1.935,0.021
	c-1.827-0.41-3.752-0.799-5.655-1.09c-0.529-0.086-1.177-0.248-1.654-0.551c-0.691-0.357-1.253-0.128-1.708,0.583
	c2.77,2.346,5.213,5.07,7.581,7.913c-0.324,0.377-0.659,0.249-0.972,0.216c-1.784-0.216-3.568-0.431-5.277-0.765
	c-1.059-0.173-2.086-0.66-3.091-1.047c-0.455-0.207-0.747-0.142-0.973,0.216c-0.303,0.475-0.163,0.647,0.216,0.973
	c1.319,1.34,2.639,2.68,3.958,4.021c0.26,0.248,0.497,0.399,0.369,0.735c-0.109,0.433-0.52,0.421-0.833,0.389
	c-1.621,0.055-3.167-0.01-4.79,0.045c-0.822-0.023-1.568-0.163-2.519,0.151c1.644,1.881,3.742,3.048,5.115,5.091
	c-2.464,0.854-4.918,1.299-7.502,2.078c2.011,1.697,4.358,2.605,6.315,4.519c-2.854,0.94-5.513,1.838-8.14,3.343
	c2.055,0.972,3.969,1.771,5.947,2.863c-2.205,1.103-4.487,1.406-6.507,2.877c1.806,1.232,3.946,1.675,5.849,2.885
	C4.378,66.085,2.097,67.308,0,68.899c2.174,1.046,4.422,1.057,6.65,1.89c-1.178,0.67-1.989,1.157-2.897,1.666
	c-0.172,0.14-0.368,0.184-0.54,0.324c-0.421,0.401-1.276,0.693-1.125,1.375c0.173,0.778,1.028,0.484,1.654,0.551
	c2.001,0.27,3.903,0.56,5.86,0.635c0.725,0.043,1.374,0.207,2.055,0.055c0.292-0.065,0.508-0.011,0.649,0.161
	c0.162,0.27-0.109,0.432-0.26,0.671c-1.438,1.341-2.875,2.682-4.291,4.121c-0.844,0.799-1.665,1.697-2.368,2.67
	c-0.248,0.259-0.183,0.552-0.021,0.821c0.141,0.173,0.358,0.228,0.552,0.185c2.531-0.563,5.211-0.445,7.892-1.247
	c-0.097,0.94-0.669,1.579-1.026,2.271c-0.454,0.712-1.005,1.448-1.557,2.184c-0.227,0.356-0.453,0.714-0.27,1.081
	c0.303,0.444,0.714,0.454,1.2,0.346c0.411,0.01,0.66-0.249,0.93-0.411c1.892-1.136,3.87-1.884,5.902-2.845
	c0.27-0.163,0.583-0.13,0.941,0.096c-0.595,1.46-0.929,3.168-1.837,4.595c-0.151,0.237-0.205,0.455-0.259,0.671
	c-0.162,0.649,0.119,0.994,0.778,0.746c0.487-0.108,0.833-0.389,1.178-0.67c1.824-1.031,3.522-2.268,5.155-3.451
	c0,0,3.181-1.938,5.966-3.719c-0.002,0.067-0.007,0.137-0.009,0.204c-0.075,1.958-0.053,3.892,0.066,5.806
	c0.065,0.293,0.033,0.606,0.195,0.875c0.087,0.391,0.001,0.92,0.531,1.007c0.529,0.086,0.713-0.466,0.822-0.897
	c0.345-1.2,0.951-2.152,1.848-3.168c0.584,0.974,0.863,2.052,1.286,3.091l-25.535,12.606l17.203,15.483l12.33-5.734
	c0,0,41.288,25.805,43.009,34.693c0.041,0.218,0.129,0.417,0.219,0.613h41.334c1.977-0.366,3.175-0.613,3.175-0.613
	s-14.336-46.162-25.805-60.673c1.523-1.359,54.62-48.742,66.073-58.963l19.618-14.139l2.784-0.512L202,0L185.679,7.299z
	 M37.602,89.624c0.086-0.827,0.225-1.636,0.807-2.314c0.588,0.374,0.666,0.932,0.922,1.461L37.602,89.624z" class="color c1"/>
</svg>