<svg version="1.1" id="图层_1" x="0px" y="0px" width="159.569px" height="127.274px" viewBox="0 0 159.569 127.274" enable-background="new 0 0 159.569 127.274" xml:space="preserve" xmlns="http://www.w3.org/2000/svg" xmlns:xlink="http://www.w3.org/1999/xlink" xmlns:xml="http://www.w3.org/XML/1998/namespace">
  <path fill-rule="evenodd" clip-rule="evenodd" fill="#293959" d="M110.788,53.377c1.277-0.048,2.328-0.755,3.393-1.444
	c0.213,1.655-1.01,1.702-2.018,1.979c-0.295,0.345-0.223,0.729-0.053,1.243c-0.969-0.081-1.867-0.155-2.766-0.229
	c-0.527-0.023-1.055-0.045-1.584-0.068c-0.604-0.055-1.211-0.109-1.816-0.164c-0.674,0.058-1.348,0.115-2.021,0.174
	c-1.057-0.02-2.113-0.117-3.168,0.009c0,0-0.002,0.001-0.002,0.001c-0.395-0.003-0.789-0.004-1.184-0.008
	c-0.803-0.002-1.607-0.004-2.41-0.008v0v0c-0.133,0.006-0.266,0.013-0.398,0.02c-0.322,0.018-0.645,0.035-0.967,0.053
	c-1.551,0.057-3.105,0.199-4.631-0.231c0.248-0.201,0.572-0.015,0.832-0.164c1.119-0.011,2.24-0.022,3.359-0.033
	c0.986-0.226,1.98-0.229,2.98-0.149c0.477-0.009,0.949-0.018,1.424-0.026c0.395-0.017,0.787-0.033,1.182-0.048
	c0.604-0.211,1.223-0.189,1.846-0.137c0.631-0.029,1.26-0.057,1.889-0.086c1.223-0.118,2.445-0.234,3.668-0.353
	C109.149,53.53,109.956,53.409,110.788,53.377z M49.954,72.49c0-0.017,0.002-0.033,0.002-0.049c-0.02,0.01-0.035,0.015-0.053,0.023
	C49.921,72.473,49.938,72.478,49.954,72.49z M49.966,78.685c0.002,0,0.004,0,0.006,0c0-0.002-0.002-0.004-0.002-0.007
	C49.968,78.681,49.968,78.683,49.966,78.685z M50.114,62.331c0.002-0.009,0.002-0.019,0.006-0.027
	c0.021-0.02,0.045-0.022,0.068-0.031c-0.039-0.119-0.07-0.238-0.092-0.357c-0.041,0.064-0.107,0.121-0.191,0.172
	c0.012,0.004,0.02,0.01,0.031,0.014C50.022,62.171,50.079,62.249,50.114,62.331z M45.185,78.318c0.004-0.01,0.008-0.019,0.012-0.029
	c-0.008,0.002-0.012,0-0.02,0.002C45.179,78.299,45.183,78.309,45.185,78.318z M50.392,85.974c0.025-0.006,0.053-0.014,0.076-0.019
	c-0.021-0.018-0.041-0.037-0.059-0.06C50.401,85.921,50.399,85.948,50.392,85.974z M47.987,76.701c0,0,0.002,0.001,0.002,0.002
	l0.002-0.002C47.991,76.701,47.989,76.701,47.987,76.701z M50.179,58.185c0,0.125,0,0.25-0.002,0.374
	c0.01,0.005,0.016,0.014,0.023,0.019C50.188,58.446,50.185,58.315,50.179,58.185z M48.005,76.69
	c-0.004,0.005-0.012,0.007-0.016,0.013c0.17,0.186,0.357,0.343,0.67,0.33c-0.215-0.162-0.49-0.133-0.656-0.317
	C48.003,76.706,48.007,76.699,48.005,76.69z M52.79,57.488c0.006,0,0.01-0.001,0.016-0.001c0-0.007-0.002-0.011-0.002-0.018
	C52.798,57.476,52.796,57.481,52.79,57.488z M50.69,80.533c-0.156,0.179-0.133,0.396-0.119,0.612
	c0.027,0.097,0.055,0.192,0.092,0.273c0.041,0.145-0.164,0.32-0.041,0.457c0.457-0.181,0.461-0.657,0.637-1.021
	c-0.182-0.105-0.379-0.182-0.553-0.303C50.7,80.544,50.696,80.538,50.69,80.533z M53.165,86.683
	c-0.008-0.011-0.018-0.014-0.027-0.023c-0.01,0.009-0.02,0.018-0.029,0.027c0.02,0.002,0.033-0.003,0.053,0
	C53.163,86.685,53.165,86.684,53.165,86.683z M52.37,67.859c-0.006,0.004-0.012,0.009-0.018,0.014
	c0.008,0.006,0.012,0.015,0.02,0.021C52.37,67.882,52.372,67.872,52.37,67.859z M53.479,73.298c-0.018-0.009-0.037-0.013-0.057-0.02
	c0.008,0.017,0.016,0.039,0.021,0.058C53.456,73.324,53.47,73.312,53.479,73.298z M52.372,70.142c0.029,0,0.061,0,0.088-0.003
	c-0.031-0.02-0.063-0.038-0.092-0.047C52.368,70.108,52.37,70.125,52.372,70.142z M54.53,65.5c0.025,0.417,0.053,0.834,0.07,1.25
	c0.014,0.317-0.166,0.379-0.434,0.307c-0.416-0.011-0.814,0.057-1.178,0.273c-0.061,0.231-0.121,0.463-0.18,0.695
	c0.268,0.149,0.533,0.299,0.801,0.447c0.596-0.033,0.512,0.439,0.514,0.764c0.008,1.49,0.107,2.999-0.08,4.469
	c-0.143,1.142,0.408,2.272-0.072,3.384c0.055,0.661,0.109,1.323,0.164,1.985c-0.002,2.142-0.004,4.282-0.006,6.424
	c0.014,0.396,0.027,0.791,0.041,1.186c0.221,2.507,0,5.016,0.033,7.523c0.012,0.827,0.092,1.653,0.139,2.479
	c0,0.199,0.002,0.398,0.004,0.598c-0.006,0.795-0.008,1.595-0.014,2.392c0.014,0.185,0.027,0.371,0.057,0.749
	c-0.404-0.522-0.73-0.863-0.885-1.324c-0.414-0.471-0.754-0.984-0.967-1.58c-0.25-0.414-0.5-0.828-0.75-1.242
	c-1.256-1.513-1.926-3.209-1.822-5.218c0.051-0.986-0.117-1.983-0.186-2.977c-0.006-0.658-0.01-1.315-0.016-1.974
	c-0.182-0.664-0.174-1.342-0.156-2.021c-0.014-0.732-0.029-1.467-0.043-2.199c-0.078-0.395-0.156-0.787-0.234-1.18
	c-0.654,0.049-1.307,0.098-1.959,0.145c-1.492,0.068-2.971-0.049-4.436-0.344c-0.316-0.045-0.643-0.054-0.945-0.141
	c-0.555-0.158-0.629-0.473-0.211-0.884c0.045-0.2-0.137-0.262-0.23-0.378c-0.123-0.014-0.248-0.027-0.375-0.04
	c-0.527-0.007-1.059-0.015-1.588-0.021c-0.594,0.025-0.871-0.374-0.629-0.805c0.391-0.686,0.039-1.188-0.176-1.753
	c-0.311-0.332-0.623-0.663-1.094-1.163c0.688,0,1.189,0,1.691,0c1.15,0.021,2.318-0.129,3.422,0.357
	c0.107-0.005,0.213-0.009,0.32-0.014c0.523-0.742,1.393-0.72,2.096-0.693c0.932,0.039,1.838-0.024,2.756-0.113
	c0.908-0.004,0.908-0.004,1.201-0.932c0.406-0.126,0.514-0.396,0.381-0.785c-0.926,0.029-0.902-0.461-0.607-1.104
	c0.002-0.421,0.002-0.843,0.002-1.265c-0.246-0.545-0.127-1.121-0.137-1.686c-0.002-0.065-0.004-0.131-0.004-0.195
	c-0.002-0.266-0.006-0.535-0.006-0.801c-0.014-0.126-0.027-0.251-0.039-0.377c-0.432-1.073-0.283-2.229-0.307-3.324
	c-0.027-1.317,0.176-2.642-0.035-3.969c-0.045-0.285-0.211-0.705,0.344-0.751c0.225-0.485-0.055-0.922-0.133-1.379
	c-0.729-1.741-0.186-3.409,0.303-5.077c0.127-0.429,0.369-0.389,0.631-0.098c0.258,0.277,0.416,0.589,0.357,0.98
	c0.006,0.065,0.014,0.131,0.021,0.197c0.033,0.055,0.059,0.114,0.074,0.178c0.371,0.5,0.242,1.083,0.207,1.623
	c-0.014,0.211-0.016,0.422-0.021,0.633c0.035-0.523,0.084-1.045,0.102-1.568c0.006-0.183-0.018-0.416,0.264-0.457
	c-0.07,1.333-0.141,2.666-0.213,3.997c0.004,0.663,0.006,1.327,0.008,1.991c-0.004,0.531-0.008,1.063-0.01,1.593
	c0.008,0.865,0.016,1.733,0.023,2.599c0.42,0.613-0.104,1.175-0.162,1.768c0-0.524,0-1.05,0-1.574
	c-0.072-0.053-0.141-0.105-0.211-0.158c-0.02,0.055-0.041,0.109-0.066,0.164c0,0.805-0.002,1.609-0.002,2.414
	c0.109,0.547,0.256,1.096,0.061,1.656c-0.002,0.57-0.004,1.141-0.006,1.711c0.223,0.529,0.156,1.083,0.148,1.632
	c0.002,0.261,0.004,0.521,0.008,0.781c0.006,0.271,0.014,0.541,0.021,0.811c-0.004,0.264-0.008,0.527-0.012,0.791
	c0.084,1.192,0.166,2.386,0.25,3.579c0.307,0.295-0.074,0.831,0.375,1.077c0.887-0.262,0.16-0.999,0.424-1.443
	c-0.137-1.268-0.271-2.536-0.408-3.804c0.066-0.411-0.299-0.964,0.387-1.171c0.479,0.007,0.16-0.477,0.385-0.628
	c-0.344-1.271-0.08-2.535,0.047-3.802c0.02-1.187,0.039-2.372,0.059-3.561c-0.455-1.2-0.023-2.418-0.074-3.628
	c-0.307-2.035-0.084-4.088-0.215-6.13c-0.021-0.331,0.012-0.333,0.412-0.287c0.734,0.399,1.467,0.798,2.199,1.198
	c0.291,0.115,0.76,0.177,0.691,0.539c-0.082,0.449-0.576,0.27-0.91,0.307c0.006,0.061-0.008,0.117-0.041,0.17
	c0.016,0.259,0.031,0.519,0.047,0.777c0.068,0.06,0.137,0.119,0.203,0.178c0.68,0.079,0.697,0.524,0.578,1.043
	c0.004,0.202,0.006,0.404,0.01,0.604c-0.273,0.797,0.371,1.594,0,2.394C54.562,63.362,54.546,64.431,54.53,65.5z M50.177,58.558
	c0.01,0.005,0.016,0.014,0.023,0.019c-0.012-0.131-0.016-0.262-0.021-0.393C50.179,58.309,50.179,58.434,50.177,58.558z
	 M49.905,62.087c0.012,0.004,0.02,0.01,0.031,0.014c0.086,0.07,0.143,0.147,0.178,0.229c0.002-0.009,0.002-0.019,0.006-0.027
	c0.021-0.02,0.045-0.022,0.068-0.031c-0.039-0.119-0.07-0.238-0.092-0.357C50.056,61.979,49.989,62.036,49.905,62.087z
	 M49.972,78.685c0-0.002-0.002-0.004-0.002-0.007c-0.002,0.002-0.002,0.004-0.004,0.007C49.968,78.685,49.97,78.685,49.972,78.685z
	 M51.259,80.853c-0.182-0.105-0.379-0.182-0.553-0.303c-0.006-0.005-0.01-0.011-0.016-0.017c-0.156,0.179-0.133,0.396-0.119,0.612
	c0.027,0.097,0.055,0.192,0.092,0.273c0.041,0.145-0.164,0.32-0.041,0.457C51.079,81.693,51.083,81.217,51.259,80.853z
	 M52.353,67.873c0.008,0.006,0.012,0.015,0.02,0.021c-0.002-0.012,0-0.022-0.002-0.035C52.364,67.864,52.358,67.869,52.353,67.873z
	 M52.806,57.487c0-0.007-0.002-0.011-0.002-0.018c-0.006,0.006-0.008,0.012-0.014,0.019C52.796,57.488,52.8,57.486,52.806,57.487z
	 M54.806,84.894c-0.002-0.402-0.008-0.804-0.012-1.206c-0.275-1.173-0.262-2.362-0.232-3.628c0.256,0.232,0.43,0.514,0.77,0.365
	c0.422-0.279,0.07-0.838,0.412-1.146c0.24-1.659,0.184-3.321,0.066-4.984c0.061-1.605-0.07-3.205-0.18-4.805
	c-0.08-0.65,0.275-0.396,0.57-0.274c0.07-0.009,0.127,0.015,0.17,0.07c0.299-0.032,0.547,0.112,0.797,0.237
	c0.252,0.357,0.75,0.256,1.033,0.555c0.238,0.033,0.451,0.092,0.396,0.41c0.074,1.6-0.02,3.189-0.236,4.773
	c-0.178,0.232-0.385,0.127-0.59,0.057c-0.139,0.038-0.275,0.076-0.414,0.113c-0.133,0.219-0.266,0.437-0.398,0.654
	c0.064,0.138,0.127,0.275,0.191,0.414c0.324,0.361,0.896-0.031,1.203,0.393c0.113,1.006-0.105,2.029,0.182,3.023
	c0.094,0.328-0.037,0.493-0.385,0.5c-0.326,0.005-0.65,0.031-0.975,0.049c-0.137,0.006-0.275,0.014-0.412,0.02
	c-0.117,0.078-0.234,0.156-0.354,0.232c-0.066,0.252-0.131,0.506-0.027,0.765c0.197,0.072,0.395,0.146,0.592,0.218
	c0.42-0.021,0.834-0.002,1.225,0.172c0.555-0.126,0.844,0.031,0.883,0.662c0.031,0.519,0.205,1.029,0.314,1.543
	c0.129,0.201,0.256,0.402,0.383,0.604c0.455,0.695-0.037,1.346-0.039,2.057c-1.652-0.524-3.158-1.302-4.84-1.517
	C54.724,85.197,54.813,85.011,54.806,84.894z M56.759,75.286c0.006,0,0.008,0.003,0.014,0.003c0-0.006,0-0.013,0-0.02
	C56.769,75.275,56.763,75.28,56.759,75.286z M116.073,52.688c0.635-0.255,1.074-0.268,1.107-0.878
	c0.023-0.461,0.363-0.661,0.766-0.336c0.604,0.49,1.076,0.174,1.76-0.172c-1.033-0.51-1.898-0.971-2.795-1.361
	c-0.299-0.129-0.764-0.486-0.977-0.128c-0.18,0.306-0.154,0.854,0.203,1.192C116.646,51.483,116.702,51.992,116.073,52.688z
	 M50.138,51.017c-0.23-0.642-0.527-1.313,0.434-1.717c0.408-0.172,0.699-0.596,1.191-0.645c0.17-0.184,0.389-0.18,0.611-0.158
	c0.047-0.044,0.1-0.053,0.156-0.021c0.293-0.158,0.574-0.094,0.852,0.041c0.527,0.008,1.055,0.014,1.582,0.021
	c0.068,0,0.135,0,0.203,0c0.4,0.065,0.803,0.132,1.203,0.197c0.738,0.165,0.525-0.565,0.795-0.841
	c0.613-0.936,0.982-1.017,2.594-0.566c0.199,0.004,0.4,0.01,0.6,0.015c0.668,0.005,1.334,0.013,2,0.019
	c0.07-0.008,0.143-0.017,0.213-0.025c0.535-0.004,1.07-0.008,1.605-0.011c0.051-0.03,0.105-0.046,0.166-0.046
	c0.066-0.117,0.135-0.235,0.203-0.354c-0.059-0.137-0.566-0.188-0.119-0.416c0.453-0.23,0.809-1.037,1.471-0.329
	c0.061,0.065,0.066,0.185,0.098,0.278c0.313,0.351,0.723,0.449,1.17,0.443c0.049-0.036,0.104-0.052,0.164-0.047
	c0.137-0.129,0.275-0.258,0.412-0.389c0.227-0.463,0.633-0.376,1.025-0.33c0.529-0.113,1.059-0.07,1.59-0.002
	c0.949,0.049,1.896,0.096,2.846,0.145c0.502-0.07,1.006-0.141,1.508-0.212c0.002,0,0.002,0,0.002,0
	c0.494-0.312,0.973-0.139,1.449,0.053c0.246-0.018,0.492-0.036,0.738-0.054c0.168-0.217,0.412-0.151,0.631-0.171
	c0.545-0.259,1.09-0.285,1.637-0.015c0.395-0.044,0.791-0.09,1.184-0.135c0.537-0.004,1.074-0.01,1.611-0.013
	c0.264-0.003,0.527-0.007,0.791-0.011c0.068,0.004,0.139,0.009,0.209,0.012c0.133,0.002,0.264,0.004,0.395,0.008
	c0,0,0.002,0,0.004,0c-0.002-0.001-0.004-0.001-0.004-0.003c0.871,0,1.742-0.001,2.613-0.002c0.73,0,1.463-0.001,2.195-0.001
	c0.035-0.01,0.07-0.008,0.105,0c0.229,0,0.455,0.001,0.682,0.001c0.654,0.178,1.318,0.256,1.996,0.219
	c1.338-0.139,1.518-0.018,1.635,1.103c0.723,0.151,1.443,0.302,2.166,0.452c0.617-0.074,1.221-0.018,1.807,0.193
	c0.973-0.202,1.563,0.037,1.516,1.187c-0.021,0.479,0.115,0.968,0.5,1.328c0.533,0.362,0.561,0.881,0.379,1.415
	c-0.17,0.498-0.6,0.674-1.098,0.711c-0.496,0.04-0.992,0.088-1.488,0.131c-0.334-0.001-0.668-0.001-1-0.001
	c-2.195,0.335-4.396,0.396-6.607,0.204c-1.404,0.053-2.809,0.154-4.211-0.007c-1.133-0.236-2.268,0.171-3.4-0.005
	c-0.4,0.139-0.764-0.065-1.143-0.127c-0.59,0.275-1.219,0.137-1.832,0.185c-0.111-0.007-0.227-0.005-0.34-0.002
	c0.117,0.023,0.229,0.077,0.336,0.161c0.332,0.085,0.705-0.063,1.01,0.177c0.605-0.013,1.205,0.031,1.781,0.231
	c0.467,0.004,0.934,0.009,1.4,0.014c0.195,0.006,0.393,0.012,0.59,0.019c0.479,0.007,0.975-0.137,1.42,0.161
	c0-0.001,0-0.001,0-0.002v-0.001l0.002,0.001c1.064,0.175,2.16-0.171,3.209,0.206c0.402,0.045,0.828-0.057,1.199,0.191
	c0.074,0.07,0.146,0.143,0.221,0.213c0.098,0.324,0.119,0.626-0.25,0.805c-0.117,0.013-0.234,0.025-0.354,0.039
	c-0.67,0.259-1.369,0.131-2.057,0.133c-0.703,0.061-1.455-0.033-1.979,0.607c-0.072,0.005-0.143,0.01-0.215,0.014
	c-0.332,0.061-0.664,0.119-0.996,0.178c-0.527,0.131-1.057,0.039-1.586,0.002c-0.203,0.002-0.406,0.002-0.607,0.004
	c-0.117,0.014-0.234,0.025-0.352,0.039c0.029,0.315,0.447,0.043,0.506,0.376c-1.078,0.314-2.109-0.028-3.146-0.222
	c-0.27-0.059-0.537-0.116-0.807-0.176c-0.129-0.006-0.262-0.011-0.393-0.018c-0.807-0.004-1.615-0.006-2.422-0.01
	c-1.459-0.066-2.918-0.131-4.377-0.197c-0.666-0.124-1.332-0.247-2-0.37c-0.643,0.285-1.25,0.144-1.842-0.163v0
	c-0.758-0.329-1.6,0.139-2.352-0.244c-0.943-0.259-1.885-0.518-2.826-0.776c-0.754,0.013-1.496-0.037-2.18-0.405
	c-1.078-0.09-1.986-0.707-3.008-0.979c-0.439-0.02-0.832-0.172-1.193-0.417c-0.293-0.007-0.637-0.005-0.621-0.409
	c0.014-0.326,0.326-0.345,0.586-0.373c0.125,0.045,0.248,0.089,0.373,0.133c0.008-0.003,0.014-0.007,0.021-0.01
	c0.145-0.051,0.291-0.053,0.438-0.02c0.049,0.031,0.1,0.057,0.152,0.081c0.553,0.053,1.107,0.107,1.662,0.159
	c0.127,0.025,0.256,0.052,0.383,0.078c0.854,0.144,1.705,0.288,2.559,0.431c0.148-0.075,0.309-0.128,0.492-0.14
	c0.596-0.016,1.195-0.057,1.732,0.287c0.047,0.036,0.068,0.075,0.105,0.112c0.174-0.141,0.377-0.142,0.594-0.076
	c0.08,0.041,0.127,0.097,0.154,0.16c0.262-0.021,0.525-0.059,0.748,0.133c0.02-0.018,0.027-0.043,0.051-0.06
	c0.473-0.219,0.908,0.01,1.357,0.105c0.021,0.006,0.098,0.077,0.084-0.014c-0.008-0.039-0.104-0.072-0.15-0.123
	c-0.008-0.03,0.002-0.05-0.002-0.079c-0.859,0.107-1.688-0.029-2.492-0.349c-0.023-0.073-0.027-0.148-0.033-0.224
	c-0.018,0.004-0.025,0.011-0.043,0.015c-0.391-0.07-0.822,0.086-1.174-0.211c0.002-0.001,0.002-0.002,0.002-0.003
	c0,0,0,0-0.002,0.001c-0.471,0.018-0.938-0.008-1.371-0.22c-0.129-0.017-0.256-0.033-0.385-0.048
	c-0.557-0.199-1.129-0.36-1.617-0.713c-0.594-0.113-1.123-0.385-1.646-0.664c-0.088,0.002-0.18-0.009-0.283-0.04
	c-0.064-0.004-0.121-0.032-0.18-0.055c0.334,0.471,0.955,0.674,1.174,1.253c-0.033,0.103-0.098,0.174-0.195,0.221
	c-0.557,0.162-1.068,0.137-1.484-0.327c-0.201-0.069-0.402-0.139-0.604-0.207c-0.129-0.011-0.256-0.021-0.385-0.032
	c-0.266,0.002-0.531,0.002-0.797,0.004c-0.584,0.016-1.168,0.031-1.754,0.049c-0.189,0.039-0.385,0.068-0.572,0.118
	C50.966,51.386,50.417,51.792,50.138,51.017z M63.78,53.5c-0.004-0.005-0.01-0.008-0.014-0.012c0,0.004-0.002,0.008-0.004,0.012
	l0.006,0.004C63.772,53.501,63.776,53.501,63.78,53.5z M90.312,46.679c0.002,0.008,0.004,0.015,0.006,0.023
	c0.014-0.001,0.025,0,0.039-0.001C90.341,46.694,90.327,46.687,90.312,46.679z M78.993,47.89c0-0.001,0-0.004,0-0.005
	C78.993,47.886,78.993,47.888,78.993,47.89L78.993,47.89z M77.907,46.69c0.016,0.001,0.029,0.004,0.045,0.005l0.014,0.023
	c0.004-0.001,0.008-0.001,0.012-0.002c-0.01-0.007-0.018-0.015-0.025-0.021c-0.004-0.01-0.012-0.016-0.016-0.025
	C77.927,46.677,77.917,46.683,77.907,46.69z M62.774,50.127c0.01-0.003,0.02-0.006,0.027-0.009
	c-0.008-0.002-0.018-0.008-0.027-0.009C62.774,50.115,62.774,50.121,62.774,50.127z M60.194,50.018
	c0.016,0.006,0.027,0.014,0.045,0.019c-0.018-0.016-0.023-0.032-0.039-0.048C60.2,50,60.196,50.008,60.194,50.018z M52.11,49.11
	c0.006,0.006,0.01,0.015,0.016,0.02c-0.004-0.01-0.002-0.016-0.006-0.025C52.116,49.106,52.114,49.109,52.11,49.11z M57.923,42.433
	c0.105-1.317,0.109-2.646,0.486-3.928c0.068-0.2,0.135-0.4,0.205-0.603c0.064-0.462-0.053-0.944,0.148-1.393
	c0.049-0.602-0.166-1.234,0.213-1.798c-0.02-0.696,0.35-1.31,0.432-1.985c-0.033-0.229-0.033-0.451,0.15-0.629
	c0.383-1.671,0.34-3.444,1.203-4.998c0.076-0.262,0.152-0.522,0.23-0.782c0.072-0.202,0.145-0.404,0.217-0.607
	c-0.01-0.551-0.119-1.111,0.139-1.641c0.367-2.205,0.654-4.428,1.445-6.539c0.031-0.074,0.063-0.147,0.094-0.221
	c0.416-1.828,1.24-3.473,2.256-5.031c0.246-0.658,0.74-1.137,1.195-1.645c0.223-0.348,0.469-0.674,0.838-0.887
	c0.746-0.771,1.574-1.424,2.637-1.686c0.871-0.217,1.012-0.043,0.791,0.889c0.521,1.613-0.555,2.813-1.074,4.156
	c0.025,0.168-0.025,0.311-0.16,0.418c-0.01,0.066-0.02,0.133-0.029,0.199c0.023,0.223,0.012,0.436-0.17,0.602
	c0.059,0.361-0.162,0.653-0.242,0.98c-0.168,0.551-0.201,1.146-0.549,1.637c-0.328,1.143-0.656,2.283-0.984,3.426
	c0.016,0.342-0.111,0.646-0.25,0.946c-0.203,0.802-0.408,1.603-0.613,2.404c0.004,0.436-0.033,0.858-0.346,1.204
	c0.006,0.556,0.039,1.113-0.199,1.641c0.068,1.142-0.164,2.242-0.453,3.336c-0.133,0.738-0.264,1.477-0.396,2.215
	c-0.322,3.152-0.58,6.313-1.342,9.401c-0.125,0.628,0.146,1.386-0.588,1.817c-1.348,0.416-2.691,0.168-4.035-0.014
	C57.872,43.759,57.817,43.712,57.923,42.433z M64.565,15.923c0.006,0,0.01-0.002,0.016-0.003c-0.004-0.003-0.01-0.006-0.016-0.009
	C64.565,15.915,64.565,15.919,64.565,15.923z M64.532,20.436c0.086-0.239,0.225-0.453,0.467-0.619
	c-0.002-0.002-0.002-0.004-0.002-0.007c0.004-0.308,0.096-0.595,0.184-0.883c0.039-0.09,0.096-0.169,0.168-0.236
	c0.029-0.007,0.053-0.001,0.078-0.001c-0.172-0.965,0.531-2.716,1.305-3.387c-0.004-0.021-0.006-0.042-0.01-0.063
	c0.025-0.414,0.191-0.775,0.422-1.113c0.039-0.052,0.066-0.11,0.102-0.164c-0.033,0.025-0.063,0.055-0.102,0.074
	c-0.146,0.049-0.262,0.136-0.322,0.29c-0.02,0.026-0.047,0.043-0.07,0.066c-0.52,1.247-1.205,2.423-1.588,3.728
	c-0.014,0.264-0.029,0.528-0.043,0.792c-0.055,0-0.107,0.002-0.16,0.006C64.815,19.424,64.677,19.931,64.532,20.436z M64.388,21.767
	c-0.033-0.054-0.066-0.108-0.111-0.16c0.072-0.269,0.104-0.557,0.16-0.832c-0.082,0.292-0.172,0.581-0.248,0.874
	C64.126,21.892,64.151,22.194,64.388,21.767z M62.618,42.574c-0.002,0.001,0.004,0.011,0.002,0.014
	c0.002-0.006,0.002-0.012,0.004-0.018C62.622,42.571,62.62,42.573,62.618,42.574z M55.771,63.494c0.004,0.8,0.008,1.6,0.01,2.4
	c-0.012,0.131-0.023,0.262-0.035,0.394c-0.518,1.403,0.619,0.886,1.189,1.026c0.059,0.033,0.111,0.082,0.172,0.098
	c1.662,0.475,1.662,0.475,1.656-1.154c0.084-0.107,0.096-0.197,0.078-0.276c0.203-0.703,0.188-1.41-0.045-2.119
	c-0.477-0.369-1.016-0.564-1.613-0.598c-0.404-0.502-0.947-0.762-1.658-1.019C55.622,62.746,55.698,63.121,55.771,63.494z
	 M55.726,116.919c-0.227-0.104-0.609-0.193-0.701,0.104c-0.307,1.003-1.223,1.217-2.096,1.682c1.475,0.986,1.676,0.945,2.535-0.447
	c0.139-0.225,0.256-0.463,0.404-0.684C56.054,117.296,56.007,117.046,55.726,116.919z M112.622,57.425
	c-0.355,0.139-0.713,0.51-1.117,0.082c-0.055-0.451-0.119-0.902-0.16-1.354c-0.035-0.375-0.186-0.652-0.59-0.631
	c-0.453,0.021-0.439,0.392-0.457,0.725c-0.033,0.615-0.078,1.23-0.115,1.848c-0.223,0.561-0.869,0.479-1.236,0.817
	c-2.512,0.442-5.043,0.733-7.578,1.004c-0.025,0-0.053,0.018-0.08,0.054c-0.027,0.037,0,0.074,0.08,0.109
	c2.625,0.41,5.096-0.339,7.578-0.996c1.273-0.137,2.57-0.133,3.791-0.593c0.455-0.118,0.313-0.499,0.352-0.798
	C113.212,57.109,112.923,57.309,112.622,57.425z M70.528,44.019c2.486,0.217,4.969,0.219,7.447-0.122
	c0.182,0.011,0.365,0.022,0.549,0.035c0.529,0.271,1.092,0.163,1.648,0.144c0.391,0.004,0.783,0.01,1.174,0.014
	c0.674-0.004,1.348-0.008,2.023-0.012c0.189,0.02,0.381,0.037,0.572,0.057c0.189-0.066,0.379-0.131,0.57-0.196
	c-0.381-0.001-0.762-0.001-1.143-0.002c-0.68-0.011-1.33-0.356-2.027-0.19c-0.734-0.003-1.467-0.005-2.199-0.007
	c-0.391-0.011-0.781-0.021-1.174-0.03C75.476,43.439,73.003,43.743,70.528,44.019z M126.698,111.044
	c-0.242,0.338-0.146,0.688-0.076,1.043c0.109-0.285,0.391-0.498,0.295-0.828c0.354-1.658,1.586-2.995,1.881-4.884
	C126.679,108.562,126.679,108.562,126.698,111.044z M58.452,56.02c-0.482-0.083-0.941-0.29-1.498-0.47
	c0.184,0.59-0.307,0.961-0.436,1.471c0.631,0.07,1.191,0.148,1.752,0.189c0.273,0.02,0.684,0.29,0.707-0.326
	C58.993,56.457,59.021,56.117,58.452,56.02z M159.556,67.076c-0.014,0.193,0.066,0.411-0.234,0.438
	c-0.064,0.402-0.127,0.805-0.191,1.208c-0.102,0.786,0.168,1.611-0.256,2.362c-0.131,0.404-0.264,0.807-0.395,1.211
	c0.033,0.351-0.023,0.684-0.184,0.998c-0.158,0.886-0.188,1.798-0.563,2.637c-0.094,1.763-0.67,3.385-1.451,4.947
	c-0.936,1.619-1.648,3.391-3.182,4.598c-0.078,0.18-0.188,0.328-0.4,0.357c-0.23,0.187-0.27,0.549-0.6,0.645
	c-0.893,0.959-1.953,1.686-3.135,2.242c-0.607,0.502-1.48,0.551-2.02,1.172c-0.697,1.205-1.984,1.734-3.008,2.555
	c-0.762,0.612-1.727,0.971-2.604,1.442c-0.584,0.546-1.252,0.947-2.029,1.151c-0.375,0.16-0.75,0.322-1.127,0.482
	c-0.438,0.305-0.895,0.564-1.445,0.594c-0.441,0.431-1.002,0.547-1.588,0.595c-0.736,0.459-1.475,0.919-2.211,1.378
	c-0.93,0.732-1.857,1.465-2.785,2.198c-0.143,0.122-0.285,0.243-0.428,0.366c-0.584,0.691-1.168,1.383-1.754,2.073
	c-0.133,0.144-0.24,0.334-0.404,0.422c-0.398,0.212-0.516,1.128-1.211,0.575c-0.357-0.281-0.01-1.496,0.463-1.841
	c0.182-0.134,0.373-0.254,0.561-0.38c0.354-0.855,0.896-1.579,1.543-2.232c0.332-0.407,0.666-0.814,0.998-1.222
	c0.475-0.618,1.254-1.046,1.246-1.97c-0.051-0.565,0.381-0.765,0.76-1.002c0.336-0.266,0.67-0.531,1.006-0.797
	c0.596-0.535,1.189-1.07,1.785-1.605c0.184-0.318,0.494-0.461,0.816-0.59v-0.001c0.908-0.74,1.814-1.479,2.723-2.218
	c0.32-0.427,0.816-0.561,1.271-0.765c0.264-0.149,0.527-0.299,0.791-0.448c0.328-0.201,0.656-0.402,0.984-0.604
	c0.16-0.238,0.293-0.512,0.623-0.565c0.852-0.54,1.125-1.71,2.189-2.021c0.068-0.059,0.139-0.119,0.207-0.18
	c0.135-0.134,0.268-0.268,0.4-0.399c0.119-0.216,0.295-0.363,0.523-0.45c0.318-0.356,0.619-0.731,1.047-0.969
	c0.064-0.063,0.127-0.125,0.189-0.189c0.57-0.716,1.27-1.287,2.018-1.803c0.344-0.318,0.688-0.639,1.033-0.957
	c0.531-0.537,1.064-1.074,1.596-1.611c0.246-0.226,0.49-0.451,0.734-0.678c0.412-0.326,0.822-0.652,1.232-0.978
	c0.162-0.249,0.322-0.498,0.482-0.746c0.096-0.149,0.189-0.297,0.285-0.446c0.072-0.143,0.145-0.283,0.215-0.426
	c0.264-0.603,0.527-1.203,0.791-1.804c0.16-0.444,0.32-0.888,0.479-1.331c0.066-0.27,0.131-0.539,0.197-0.808
	c0.1-1.379-0.002-2.755-0.061-4.132c-0.021-0.171-0.084-0.362-0.084-0.533c-0.172-1.089-0.346-2.178-0.518-3.266
	c-0.225-0.153-0.15-0.402-0.191-0.613c-0.465-0.491-0.604-1.216-1.158-1.643c-0.152-0.33-0.301-0.66-0.451-0.99
	c-0.184-0.408-0.504-0.617-0.947-0.641c-0.168,0.023-0.318-0.003-0.418-0.158c-0.268-0.039-0.469-0.176-0.615-0.398
	c-0.338-0.164-0.525-0.437-0.586-0.803c-0.133-0.337-0.262-0.675-0.395-1.011c-0.6-0.2-1.199-0.4-1.799-0.601
	c-0.068-0.004-0.137-0.008-0.207-0.013c-0.457-0.011-0.914-0.02-1.371-0.028c-0.176,0.041-0.322-0.02-0.447-0.141
	c-1.674-0.582-3.461-0.256-5.158-0.639c-0.393,0.016-0.785,0.033-1.176,0.049c-0.104,0.049-0.211,0.063-0.32,0.067
	c-0.834,0.18-1.686,0.015-2.525,0.072c-0.934,0.205-1.865,0.409-2.799,0.615c-1.238,0.387-2.514,0.6-3.789,0.811
	c-0.586,0.299-1.389,0.082-1.811,0.767c-0.199,0.091-0.119,0.294-0.18,0.438c-0.07,0.406-0.131,0.826-0.461,1.109
	c-0.189,0.159-0.432,0.427-0.686,0.229c-0.193-0.153-0.502-0.383-0.25-0.738c-0.164-0.383-0.234-0.781-0.197-1.197
	c-0.037-0.043-0.047-0.093-0.027-0.146c-1.232-0.28-0.084-0.842-0.148-1.26c-0.08-0.199,0.094-0.496-0.236-0.596
	c-0.311,0.271-0.697,0.543-0.98,0.079c-0.352-0.579,0.08-0.882,0.582-1.078c0.225-0.217,0.496-0.345,0.797-0.415
	c0.322-0.32,0.725-0.496,1.152-0.629c0.941-0.584,1.854-1.236,2.994-1.396c0.355-0.173,0.713-0.346,1.07-0.519
	c0.773-0.34,1.686-0.279,2.383-0.835c0.158-0.232,0.385-0.409,0.656-0.378c1.195,0.137,2.355-0.23,3.541-0.215
	c0.668,0.009,1.336,0.018,2.004,0.027c1.734-0.119,3.465-0.061,5.188,0.182c0.127,0.011,0.252,0.021,0.377,0.03
	c0.145,0.052,0.285-0.003,0.428-0.027c-0.088-0.04-0.168-0.092-0.219-0.197c-0.502-0.301-1.004-0.6-1.506-0.9
	c1.557,0.193,2.969,0.752,4.303,1.52c0.596,0.222,1.162,0.498,1.621,0.951c0.498,0.363,1.262,0.396,1.439,1.156
	c0.279,0.352,0.559,0.703,0.84,1.055c-0.539-0.023-0.791-0.451-1.111-0.783c-0.393-0.264-0.785-0.525-1.178-0.787
	c-0.318-0.154-0.637-0.31-0.955-0.463c-0.178-0.072-0.354-0.144-0.527-0.221c0.117,0.094,0.232,0.192,0.34,0.302
	c0.07,0.084,0.111,0.18,0.129,0.285c0.023-0.006,0.043-0.006,0.068-0.014c0.648,0.149,0.943,0.606,1.07,1.208
	c0.813-0.177,1.369,0.283,1.893,0.825c0.35,0.27,0.822,0.383,1.033,0.826c0.055,0.057,0.109,0.112,0.166,0.168
	c0.301,0.166,0.615,0.312,0.813,0.614c0.404,0.09,0.645,0.426,0.965,0.644c0.152,0.082,0.287,0.185,0.357,0.348
	c0.117,0.017,0.168,0.157,0.25,0.24c0.098,0.128,0.197,0.256,0.295,0.382c0.154-0.002,0.262,0.064,0.309,0.214
	c0.488,0.438,0.98,0.869,1.031,1.59c0.066,0.063,0.135,0.129,0.203,0.193c0.473,0.702,1.627,1.287,0.393,2.283
	c-0.086,0.249-0.098,0.497,0.004,0.744c-0.107-0.578-0.779-0.425-1.041-0.805l-0.004,0.007c0,0,0,0-0.002-0.001
	c-0.119-0.181-0.24-0.364-0.361-0.546c-0.01,0.003-0.016,0.007-0.025,0.01c-0.33,0-0.504-0.242-0.732-0.479
	c0.123,0.35,0.367,0.65,0.186,1.011c0.451,0.054,0.461,0.413,0.498,0.758c-0.014,0.063-0.02,0.127-0.027,0.191
	c0.324,0.504,0.488,1.077,0.664,1.643c0.074,0.131,0.148,0.262,0.223,0.393c0.498,0.075,0.551-0.222,0.643-0.626
	c0.1-0.458-0.26-0.958,0.148-1.37C159.169,64.681,159.653,65.826,159.556,67.076z M128.532,57.854
	c-0.012,0.002-0.023,0.006-0.035,0.008c0.012,0.012,0.021,0.028,0.035,0.039C128.532,57.884,128.532,57.869,128.532,57.854z
	 M129.954,56.714c-0.006-0.005-0.01-0.012-0.016-0.017c0.002,0.006,0,0.012,0.002,0.018
	C129.946,56.715,129.95,56.713,129.954,56.714z M131.229,56.443c-0.043,0.011-0.088,0.02-0.131,0.031
	c-0.225,0.034-0.445,0.053-0.643-0.062c-0.061,0.131-0.143,0.237-0.264,0.294C130.544,56.672,130.886,56.536,131.229,56.443z
	 M132.376,56.22c-0.068,0.008-0.135,0.022-0.195,0.052c-0.252,0.017-0.496,0.064-0.74,0.121c0.268-0.051,0.541-0.048,0.826,0.071
	C132.28,56.364,132.315,56.283,132.376,56.22z M139.124,54.107c-0.037-0.026-0.076-0.044-0.119-0.05
	c-0.004,0.01-0.008,0.021-0.012,0.031c0.045-0.005,0.088,0.006,0.131,0.032C139.122,54.115,139.124,54.112,139.124,54.107z
	 M148.667,51.952c-0.02-0.02-0.037-0.042-0.055-0.063c-0.02-0.001-0.037-0.002-0.055-0.003
	C148.595,51.907,148.63,51.931,148.667,51.952z M154.806,62.702c-0.008-0.087-0.096-0.018-0.027-0.001
	c0.002-0.007,0.002-0.015,0.004-0.022C154.79,62.689,154.798,62.693,154.806,62.702z M136.737,92.65
	c-0.014-0.07-0.031-0.129-0.041-0.205c-0.01,0.004-0.02,0.009-0.029,0.013c-0.016,0.058-0.037,0.101-0.057,0.153
	C136.651,92.609,136.694,92.622,136.737,92.65z M146.136,89.88c-0.004-0.003-0.006-0.006-0.01-0.009
	c-0.002,0.003,0,0.007-0.002,0.011C146.128,89.882,146.132,89.881,146.136,89.88z M148.503,83.886
	c-0.242,0.313-0.49,0.62-0.947,0.651c-0.117-0.018-0.133-0.266-0.184-0.195c-0.291,0.405-0.553,0.825-1.129,0.846
	c-0.057-0.019-0.088-0.069-0.125-0.11c0.016,0.021,0.031,0.041,0.049,0.061c-0.031,0.235-0.109,0.417-0.238,0.546
	c0.311-0.17,0.584-0.433,0.953-0.465c0.594,0.201,0.9-0.276,1.291-0.551c0.059-0.053,0.115-0.102,0.174-0.15
	c-0.006-0.155,0.01-0.306,0.146-0.436C148.497,84.016,148.499,83.951,148.503,83.886z M148.845,85.794
	c-0.012-0.004-0.021-0.016-0.033-0.017c0.002,0.013,0.004,0.025,0.006,0.038C148.825,85.808,148.835,85.801,148.845,85.794z
	 M149.687,82.48c-0.014-0.086-0.031-0.163-0.156-0.031c-0.189,0.198-0.355,0.421-0.633,0.461c-0.004,0.246-0.076,0.471-0.193,0.685
	c0.227-0.148,0.348-0.432,0.609-0.535c0.029-0.254,0.152-0.447,0.369-0.58C149.685,82.48,149.685,82.48,149.687,82.48z
	 M152.913,79.298c0.002-0.003,0.006-0.006,0.006-0.01v0.002c0-0.001,0.002-0.001,0.002-0.002c-0.002,0-0.002,0-0.002,0
	c-0.002-0.001-0.002-0.001-0.004-0.002C152.915,79.291,152.913,79.294,152.913,79.298z M155.45,79.161
	c-0.127-0.281-0.139-0.659-0.6-0.665c-0.01-0.002-0.018-0.008-0.025-0.011c-0.18,0.438-0.416,0.842-0.734,1.196
	c-0.42,1.61-1.564,2.809-2.381,4.193c-0.02,0.065-0.051,0.08-0.088,0.071c0.051,0.155-0.01,0.294-0.08,0.432
	c0.102-0.111,0.223-0.209,0.342-0.31c0.623-0.96,1.641-1.583,2.201-2.594c0.338-0.498,0.676-0.995,1.014-1.492
	c-0.004-0.095-0.004-0.187,0.008-0.275c0.023-0.197,0.092-0.371,0.248-0.501C155.386,79.186,155.419,79.178,155.45,79.161z
	 M156.909,66.707c-0.004-0.004-0.01-0.007-0.012-0.011c-0.004,0-0.006,0-0.008,0c0.004,0.007,0.008,0.014,0.014,0.021
	C156.905,66.713,156.907,66.709,156.909,66.707z M123.216,115.306c-0.289,0.137-0.576,0.271-0.865,0.41
	c-0.143,0.104-0.287,0.208-0.43,0.313c-0.191,0.148-0.383,0.297-0.572,0.445c-0.162,0.232-0.166,0.614-0.576,0.614
	c-0.748,0.392-1.494,0.784-2.242,1.177c-0.412,0.311-0.885,0.418-1.391,0.411c-0.4,0.489-0.293-0.454-0.605-0.215
	c-0.197,0.062-0.396,0.123-0.594,0.185c-0.27,0.125-0.539,0.248-0.809,0.373c-0.066,0.006-0.135,0.011-0.201,0.018
	c-0.385,0.316-0.818,0.498-1.324,0.466c-0.559,0.181-1.115,0.362-1.674,0.542c-1.15,0.475-2.336,0.8-3.588,0.824
	c-0.438,0.237-0.904,0.38-1.402,0.406l0.018-0.066c-0.02,0.006-0.033,0.004-0.051,0.009c0.012,0.019,0.023,0.038,0.033,0.058
	c-0.865,0.184-1.732,0.366-2.598,0.551c-1.145,0.045-2.285,0.115-3.4,0.409c-2.51,0.202-4.902,1.082-7.412,1.302
	c-0.406,0.035-0.787,0.039-1.166-0.109c-0.268-0.198-0.391-0.602-0.816-0.58c-0.199,0.256-0.322,0.589-0.656,0.712
	c-0.893,0.331-0.885,0.85-0.33,1.495c0.285,0.028,0.588-0.021,0.832,0.187c0.719,0.017,1.438,0.033,2.158,0.05
	c0.684-0.076,1.369-0.15,2.254-0.248c-0.621,0.481-0.668,0.979-0.355,1.549c-0.412,0.035-0.738,0.064-1.064,0.093
	c-1.992,0.466-3.988,0.858-6.037,0.354c-1.607,0.175-3.199-0.049-4.791-0.216c-0.414,0.015-0.832,0.078-1.217-0.147
	c0,0.002,0,0.004,0,0.006c-0.121,0.002-0.244,0.002-0.365,0.003c0-0.001-0.002-0.003-0.002-0.005
	c-0.555,0.286-1.109,0.234-1.666,0.006c-0.188-0.023-0.373-0.047-0.561-0.068c-0.805-0.08-1.635,0.232-2.422-0.143l-0.082,0.003
	l-0.078-0.037c-0.557-0.011-1.121,0.07-1.66-0.149c-0.25-0.018-0.502-0.032-0.752-0.05c-0.598,0.083-1.197,0.193-1.795-0.007
	c-0.268-0.066-0.533-0.131-0.799-0.195c-1.113,0.02-2.229,0.044-3.275-0.551c1.09,0,2.182,0,3.273,0
	c0.369-0.037,0.748-0.066,0.617-0.606c0.736,0.063,1.494-0.158,2.211,0.161c0.391,0.075,0.781,0.15,1.17,0.228
	c0.398,0.008,0.795,0.015,1.193,0.021c0.871,0.021,1.754-0.132,2.607,0.175c1.066-0.052,2.135-0.224,3.199,0.025
	c1.6-0.01,3.197-0.021,4.795-0.029c0.146-0.129,0.293-0.258,0.439-0.385c0.068-0.135,0.137-0.27,0.203-0.405
	c0.039-0.528-0.041-1.017-0.467-1.391c-0.385,0.049-0.697-0.179-1.041-0.281c-0.564-0.169-1.137-0.474-1.631,0.16
	c-0.063,0.083-0.25,0.135-0.355,0.106c-1.438-0.371-2.904,0.016-4.348-0.189c-0.396-0.018-0.791-0.035-1.188-0.053
	c-0.818,0.014-1.645,0.184-2.447-0.129c-1.885,0.052-3.727-0.288-5.561-0.659c-0.734-0.038-1.465-0.093-2.176-0.292
	c-0.082,0.004-0.164-0.014-0.244-0.066c-1.861-0.412-3.771-0.604-5.578-1.25c-0.953-0.004-1.914,0.063-2.816-0.349
	c-0.193-0.019-0.387-0.035-0.58-0.052c-0.346,0.033-0.682,0.012-1-0.14c-1.168,0.014-2.248-0.582-3.492-0.423
	c0.111-0.773,0.893-1.117,0.971-1.881c0.035-0.346,0.479-0.002,0.727,0.093c0.734,0.261,1.469,0.522,2.203,0.784
	c0.428,0.05,0.83,0.174,1.197,0.405c0.506,0.105,0.965,0.323,1.402,0.589c2.264,0.758,4.68,0.841,6.945,1.584
	c0.08-0.034,0.162-0.063,0.248-0.063c0.451-0.212,0.74-0.892,1.396-0.506c0.332,0.007,0.666,0.016,0.998,0.024
	c0.066,0,0.131,0,0.195,0.002c0.861,0.008,1.725,0.021,2.588,0.021c0.357,0,0.74,0.066,1.021-0.252c0-0.001,0.002-0.001,0.002-0.002
	c0.051-0.416-0.123-0.725-0.455-0.96c-0.117-0.02-0.234-0.039-0.352-0.06c-0.688-0.014-1.361-0.104-2-0.373
	c-0.066-0.011-0.133-0.021-0.199-0.031c-0.234,0.043-0.43-0.039-0.604-0.189c-1.594-0.418-3.279-0.469-4.791-1.211
	c-0.799-0.264-1.598-0.527-2.396-0.793c-0.07-0.041-0.145-0.081-0.217-0.123c-0.549-0.139-1.098-0.281-1.646-0.422l0,0
	c-0.787-0.274-1.629-0.395-2.361-0.821c-0.762-0.214-1.523-0.438-2.291-0.634c-0.275-0.071-0.395-0.17-0.332-0.478
	c0.064-0.316,0.174-0.478,0.527-0.389c0.93,0.232,1.908,0.299,2.738,0.846c0.586-0.06,1.002,0.468,1.574,0.46
	c0.607-0.064,0.988,0.512,1.561,0.548c0.004-0.914-0.789-0.918-1.354-1.181c-0.166,0.02-0.316,0.004-0.406-0.164
	c-0.525-0.268-0.479-0.738-0.43-1.21c-0.057-0.062-0.113-0.125-0.17-0.187c-0.613-0.059-1.227-0.119-1.842-0.178
	c-1.393,0.055-1.91-0.279-1.924-1.242c-0.01-0.801-0.02-1.602-0.027-2.403c-0.168-0.226-0.229-0.483-0.227-0.76
	c-0.193-0.165-0.18-0.4-0.213-0.62c-0.172-0.412-0.531-0.737-0.555-1.219c-0.07-0.469,0.057-0.961-0.158-1.414
	c-0.346-0.396-0.703-0.783-1.037-1.188c-0.279-0.339-0.281-0.655,0.158-0.878c0.264-0.374,0.377-0.719-0.172-0.942
	c-0.484-1.282-0.451-2.611-0.352-3.946c-0.018-0.402-0.037-0.805-0.055-1.207c-0.24-0.291-0.211-0.641-0.213-0.982
	c-0.18-0.532-0.129-1.085-0.133-1.631c-0.008-0.203-0.016-0.408-0.021-0.61c-0.348-1.513-0.279-3.048-0.248-4.581
	c-0.205-0.316-0.174-0.663-0.145-1.012c-0.018-0.264-0.035-0.529-0.053-0.791c-0.211-0.523-0.348-0.905,0.52-0.646
	c0.633,0.189,1.262,0.314,1.705,0.854c0.453-0.021,0.797,0.279,1.197,0.41c0.525,0.211,1.053,0.419,1.58,0.63
	c0.111,0.085,0.117,0.188,0.088,0.298c0.172,0.618,0.113,1.239-0.053,1.863c-0.014,1.127-0.029,2.256-0.043,3.381
	c-0.051,2.465-0.1,4.928-0.15,7.393c0.295,1.258,0.119,2.536,0.166,3.804c0.252,0.507-0.322,1.33,0.607,1.577
	c0.24-0.436-0.137-0.957,0.189-1.383c-0.098-0.273-0.264-0.547-0.02-0.828c0.014-0.122,0.027-0.243,0.039-0.364
	c0-0.333-0.004-0.667-0.004-1.001c-0.313-0.573-0.188-1.189-0.178-1.794c0.008-0.469,0.014-0.936,0.021-1.403
	c-0.131-1.273-0.037-2.539,0.16-3.8c0-0.132,0.004-0.264,0.004-0.396c0-0.47,0-0.938,0-1.405c-0.168-1.795-0.174-3.595-0.178-5.395
	c0.756-0.312,1.299,0.313,1.953,0.442c0.074,0.041,0.146,0.083,0.221,0.125c1.396,0.224,2.793,0.447,4.189,0.672
	c1.525-0.162,3.082,0.204,4.59-0.27c0.148-0.184,0.297-0.369,0.445-0.552c0.039-0.075,0.08-0.149,0.119-0.225
	c0.016-0.577-0.303-0.929-0.789-1.166c-0.467-0.062-0.957,0.035-1.395-0.209c-0.391-0.009-0.781-0.018-1.172-0.028
	c-1.145,0.048-2.303,0.361-3.424-0.154c-0.654-0.092-1.311-0.184-1.965-0.275c-0.223,0.008-0.451,0.043-0.633-0.137
	c-0.623,0.066-1.188-0.207-1.781-0.313c-0.27-0.049-0.51-0.148-0.385-0.509c0.146-0.794-0.574-1.661,0.205-2.403
	c-0.355-2.167-0.355-2.167,1.76-1.572c0.473,0.133,0.949,0.269,1.422,0.404c0.268,0.074,0.535,0.15,0.801,0.225
	c0.826,0.349,1.727,0.386,2.582,0.607c0.074,0.044,0.148,0.09,0.223,0.135c0.563,0.518,1.293,0.349,1.951,0.484
	c0.418,0.086,0.871,0.061,1.244,0.321c1.129,0.136,2.25,0.415,3.395,0.149c0.191-0.125,0.383-0.251,0.574-0.376v0
	c0.137-0.135,0.275-0.269,0.412-0.404c0.074-0.123,0.148-0.244,0.225-0.367c0.012-0.141,0.023-0.283,0.035-0.426
	c-0.066-0.809-0.639-0.83-1.244-0.798c-0.42,0.099-0.738-0.095-1.088-0.301c-0.531-0.315-0.789-0.077-0.76,0.514
	c0.145,0.331,0.02,0.425-0.303,0.341c-0.631-0.167-1.262-0.334-1.893-0.502c-0.18-0.025-0.361-0.051-0.541-0.076
	c-0.156,0.018-0.303,0.01-0.414-0.127c-0.477-0.112-0.955-0.225-1.434-0.338c-0.121-0.035-0.242-0.068-0.361-0.104
	c-0.293,0.014-0.58,0-0.836-0.166c-0.801-0.201-1.602-0.4-2.4-0.602c-0.703,0.08-1.336-0.15-1.957-0.439
	c-0.268-0.059-0.537-0.119-0.803-0.177c-0.936,0.171-1.32-0.188-1.225-1.157c0.053-0.549,0.008-1.123-0.09-1.67
	c-0.129-0.73,0.17-0.764,0.713-0.537c0.201,0.062,0.402,0.121,0.605,0.18c0.064,0.008,0.131,0.016,0.197,0.021
	c0.906,0.008,1.771,0.201,2.59,0.594c0.164-0.02,0.309,0.006,0.412,0.15c0.238-0.001,0.469,0.027,0.66,0.193
	c0.773,0.154,1.547,0.309,2.32,0.462c0.273,0.068,0.547,0.138,0.82,0.207c0.729,0.131,1.457,0.261,2.188,0.393
	c0.463,0.063,0.93,0.128,1.395,0.19c0.07,0,0.141,0.001,0.211,0.002c0.645-0.002,1.229-0.211,1.781-0.523
	c0.221-0.293,0.443-0.587,0.664-0.881c0.205-1.268-0.521-1.994-2.047-2.041c-0.131,0.141-0.262,0.279-0.395,0.418
	c-0.018-0.011-0.037-0.021-0.057-0.032c-0.002,0.013-0.002,0.03-0.004,0.042l0.061-0.01c-0.076,0.327,0.168,0.6,0.234,0.985
	c-0.871-0.14-1.656-0.266-2.441-0.393c-0.488-0.037-0.969-0.116-1.412-0.347c-1.047,0.037-2.057-0.117-2.992-0.617
	c-0.824-0.008-1.617-0.176-2.387-0.465c-0.203-0.055-0.406-0.109-0.607-0.164c-2.773,0.145-2.938-0.02-2.793-2.746
	c0.023-0.463,0.057-0.93,0.02-1.389c-0.064-0.852,0.197-1.119,0.975-0.628c0.668,0.065,1.336,0.131,2.004,0.198
	c0.359-0.025,0.721-0.051,1.053,0.138c0.646,0.018,1.291,0.028,1.938,0.052c0.27,0.01,0.625-0.098,0.615,0.377l-0.066-0.008
	c0,0.016-0.006,0.025-0.006,0.041c0.023-0.011,0.049-0.022,0.072-0.033c0.381,0.391,0.027,1.199,0.783,1.376
	c0.404-0.312,0.139-0.843,0.395-1.202c-0.064-0.423,0.217-0.393,0.48-0.356c0.473,0.065,0.955,0.092,1.381,0.345
	c0.533,0.087,1.066,0.172,1.547,0.443c0.133,0.016,0.268,0.031,0.402,0.047c0.594,0.063,1.186,0.203,1.789,0.078
	c0.389-0.119,0.777-0.24,1.168-0.36c0.143-0.195,0.285-0.39,0.43-0.585c-0.006-0.258-0.01-0.514-0.016-0.77
	c-0.26-0.451-0.521-0.902-0.783-1.354c-0.846-0.582-1.797-1.045-2.27-2.041c-0.174-0.076-0.348-0.152-0.52-0.229
	c-0.615,0.342-0.387,0.893-0.346,1.396c0.096,0.208,0.191,0.415,0.287,0.622c0.234,0.308,0.543,0.566,0.67,0.997
	c-0.945,0.116-1.777-0.196-2.621-0.441c-1.416-0.323-1.422-0.323-1.422-1.786c-0.002-0.393,0.031-0.787,0.047-1.18
	c-0.074-0.332-0.256-0.663-0.01-0.998h0.002c0,0-0.002-0.001-0.002-0.001c1.031-0.343,2.113-0.017,3.154-0.229
	c0.568-0.199,1.283-0.175,1.449-0.973c-0.139-0.263-0.275-0.526-0.412-0.79c-0.148-0.119-0.297-0.242-0.447-0.363
	c-0.205-0.037-0.426-0.031-0.557-0.239c-1.188-0.239-2.111-1.04-3.213-1.519c1.227-0.324,2.412,0.129,3.613,0.16
	c0.734,0.057,1.467,0.111,2.203,0.168c0.334,0.007,0.666,0.014,1,0.021c1.324-0.021,2.646-0.041,3.971-0.059
	c0.092-0.052,0.189-0.061,0.289-0.055c0.514-0.098,1.027-0.194,1.539-0.291c0.691-0.361,0.791-0.734,0.021-1.121
	c0-0.119,0.053-0.202,0.16-0.253c0.572-0.141,1.125-0.197,1.555,0.296c0.045-0.033,0.082-0.073,0.135-0.096
	c1.357-0.068,2.723-0.27,4.047,0.229c-0.004,0.082,0.004,0.149,0.018,0.208c0.025-0.024,0.053-0.045,0.066-0.08
	c0.059-0.02,0.119-0.028,0.182-0.023c0.09-0.034,0.178-0.059,0.266-0.076c0.305-0.085,0.609-0.12,0.912-0.101
	c0.26-0.055,0.521-0.06,0.787,0.005c0.092,0.032,0.166,0.091,0.23,0.164c0.01-0.038,0.012-0.072,0.035-0.118
	c0.619-0.64,1.523-0.373,2.139-0.667c-1.072,0.176-2.234,0.503-3.436,0.169c-0.061-0.032-0.105-0.082-0.152-0.13
	c-1.727,0.317-3.443-0.188-5.168-0.042c-0.619,0.005-1.25,0.153-1.838-0.166c-0.123-0.021-0.246-0.04-0.367-0.058
	c-0.408,0.039-0.811,0.044-1.188-0.152c-0.332-0.019-0.666-0.036-0.998-0.055c-0.189,0.005-0.381,0.008-0.57,0.012
	c-0.385-0.116-0.783-0.084-1.182-0.063c0.053,0.017,0.104,0.033,0.156,0.05c0.1,0.065,0.178,0.149,0.234,0.254
	c-0.002,0.004-0.004,0.005-0.004,0.009c0.395-0.182,0.752-0.114,1.082,0.146c0.059-0.061,0.131-0.109,0.217-0.145
	c0.807-0.243,1.578,0.029,2.354,0.182c0.207,0.041,0.471,0.15,0.309,0.479l0.02,0.021c-1-0.218-2.045,0.05-3.033-0.289
	c-0.492-0.038-1.004,0.085-1.467-0.181c-0.51-0.082-1.02-0.163-1.527-0.245c-1.748-0.017-3.447-0.414-5.17-0.627
	c-0.451,0.015-0.863-0.115-1.248-0.336c-0.178,0.002-0.344-0.016-0.404-0.223c0.018-0.111,0.049-0.184,0.088-0.232
	c-0.094-0.046-0.18-0.102-0.234-0.205c-0.236-0.179-0.518-0.163-0.791-0.185c-0.135-0.092-0.346-0.031-0.445-0.196
	c-0.178,0.14-0.314,0.128-0.389-0.129c0-0.001,0-0.003,0-0.005c-0.41,0.139-0.799,0.164-1.168,0.083
	c0.018,0.037,0.02,0.072,0.02,0.107c0.586,0.119,1.17,0.239,1.754,0.359c-0.664,0.558-1.223,0.085-1.801-0.185
	c-1.529-0.338-3.117,0.016-4.639-0.389c-0.477-0.104-0.232-0.387-0.156-0.627c0.07-0.842,0.498-0.297,0.807-0.211v0
	c0.947,0.088,1.764,0.759,2.76,0.63c0.195,0.045,0.404,0.035,0.607,0.048c-0.131-0.076-0.26-0.151-0.385-0.253l0.021-0.049
	c-1.029-0.318-2.043-0.68-3.014-1.153c-0.412-0.038-0.85,0.095-1.223-0.188c-0.621-0.354-0.523-0.692,0.02-1.022
	c0.467-0.254,0.807,0.122,1.197,0.242c1.131,0.343,2.338,0.407,3.41,0.955c0.545-0.026,1.078,0.036,1.594,0.216
	c0.678,0.085,1.365,0.109,2,0.401c0.439,0.267,0.947,0.06,1.404,0.204c0.557-0.026,1.119-0.076,1.652,0.152
	c0.732-0.076,1.426,0.178,2.139,0.252c0.352-0.03,0.699-0.026,1.014,0.164c0.328,0.016,0.658,0.031,0.986,0.045
	c0.934,0.09,1.885-0.154,2.809,0.138c0.195,0.021,0.391,0.04,0.586,0.062c1.402,0,2.807-0.002,4.207-0.004
	c1.266-0.018,2.531,0.148,3.795-0.026c0.268,0.009,0.535,0.017,0.803,0.026c0.404,0,0.805,0.002,1.207,0.004
	c0.262-0.006,0.523-0.014,0.785-0.021c1.148,0.1,2.283-0.061,3.422-0.174c0.309-0.026,0.617-0.053,0.926-0.079
	c0.607-0.239,1.238-0.105,1.861-0.125c0.73-0.003,1.463-0.005,2.197-0.009c0.863-0.246,1.729-0.316,2.598-0.013
	c0.461-0.079,0.924-0.158,1.385-0.237c0.641-0.571,1.045,0.34,1.609,0.254c0.197,0,0.396,0,0.596-0.002
	c0.6-0.006,1.199-0.011,1.801-0.016c0.201,0.005,0.404,0.01,0.605,0.014c0.064-0.021,0.127-0.018,0.186,0.014
	c0.604-0.012,1.205-0.023,1.809-0.035c0.477-0.253,0.945-0.037,1.543,0.021c-0.406,0.244-0.723,0.393-1.094,0.408
	c-0.734,0.237-1.535,0.009-2.26,0.319c-0.691,0.263-1.4,0.427-2.146,0.362c-0.215,0.014-0.43,0.027-0.646,0.041
	c-0.266,0.005-0.529,0.009-0.795,0.014c-0.363,0.261-0.773,0.281-1.197,0.234c-0.533,0.125-1.064,0.25-1.596,0.375
	c-0.637,0.372-1.332,0.186-2.004,0.209c-0.066,0.006-0.131,0.012-0.197,0.019c-1.059,0.142-2.117,0.282-3.176,0.423
	c-0.197,0.065-0.395,0.086-0.592,0.088c0.057,0.056,0.109,0.137,0.172,0.263c0.006,0.001,0.01,0,0.014,0.001
	c0.328-0.197,0.658-0.083,0.986-0.009c1.055,0.019,2.109,0.038,3.164,0.056c0.082,0.027,0.113,0.061,0.092,0.1
	c-0.021,0.043-0.047,0.064-0.07,0.064c-0.127,0.141-0.256,0.279-0.381,0.42c0.021,0.488-0.082,0.817-0.701,0.782
	c-0.691-0.04-1.387,0.009-2.082,0.019c-0.139,0.07-0.283,0.091-0.428,0.086c-0.789,0.14-1.598,0.042-2.395,0.109
	c-0.67,0.39-1.326,0.08-1.986-0.041c-0.271,0.003-0.543,0.006-0.814,0.008c-0.73,0.192-1.461,0.1-2.189-0.004
	c-1.744-0.086-3.484-0.057-5.215,0.174c-0.061,0.084-0.121,0.167-0.182,0.25c0.695,0.317,1.479,0.174,2.188,0.414
	c0.814-0.082,1.611,0.032,2.404,0.207c0.799,0.07,1.6,0.141,2.398,0.211c0.199,0.003,0.398,0.006,0.598,0.01
	c2.395,0.209,4.797,0.18,7.197,0.201c1.652-0.301,3.311-0.508,4.994-0.414c0.545-0.035,1.09-0.068,1.605,0.18
	c0.305,0,0.783-0.121,0.848,0.178c0.131,0.596-0.508,0.724-0.865,1.016c-0.074,0.131-0.152,0.262-0.227,0.395
	c0.006,0.135,0.014,0.27,0.02,0.406c0.303,0.463,0.873,0.316,1.273,0.557c0.85,0.134,1.721,0.148,2.537,0.467
	c0.918,0.319,1.881,0.02,2.809,0.211c0.479,0.056,0.686-0.16,0.631-0.637c-0.002-0.2-0.002-0.401-0.004-0.602
	c-0.176-0.475,0.252-1.359-0.828-1.222c-0.541-0.005-1.086-0.009-1.627-0.015c-0.75,0.053-1.498,0.107-2.246,0.151
	c-0.256,0.016-0.49-0.093-0.471-0.364c0.02-0.264,0.299-0.189,0.473-0.187c0.357,0.005,0.717,0.043,1.074,0.067
	c0.939-0.025,1.875-0.045,2.797,0.187c0.834,0.157,0.982-0.288,0.895-0.985c-0.053-0.416-0.158-0.84,0.004-1.258
	c-0.17-0.813,0.359-0.785,0.896-0.748c0.135-0.011,0.268-0.02,0.4-0.028c0.643,0.503,0.113,0.625-0.182,0.823
	c0.082,0.004,0.162,0.008,0.244,0.012c0.031-0.025,0.061-0.054,0.098-0.073c0.096-0.038,0.168-0.015,0.223,0.069
	c0.014,0.912,0.029,1.824,0.043,2.736c0.223,0.47,0.215,0.973,0.139,1.459c-0.088,0.561,0.25,0.586,0.637,0.604
	c0.131-0.001,0.262-0.002,0.395-0.003c0.35-0.068,0.352-0.349,0.375-0.616c-0.193-1.467,0.061-2.909,0.232-4.355
	c0.125-0.029,0.248-0.059,0.371-0.089c0.979-0.468,1.117-0.401,1.113,0.58c-0.002,0.312,0.084,0.641-0.063,0.94
	c0.066,0.102,0.131,0.203,0.17,0.318c-0.092,0.797,0.1,1.617-0.199,2.397c0.057,1.401,0.117,2.802,0.174,4.202
	c-0.092,0.799,0.299,1.59,0.039,2.393c0.051,0.866,0.102,1.733,0.154,2.6c0.109,0.602-0.313,1.16-0.141,1.766
	c0.066,0.592,0.129,1.184,0.193,1.775c0.807,0.085,0.615,0.816,0.771,1.279c0.152,0.447,0.256,0.824,0.814,0.817
	c0.125-0.161,0.248-0.323,0.373-0.483c0.016-0.453,0.031-0.906,0.047-1.357c-0.012-0.26-0.023-0.518-0.035-0.775
	c-0.162-0.461-0.158-0.939-0.154-1.42c0-1.332-0.002-2.665-0.002-3.998c-0.008-0.13-0.016-0.262-0.023-0.391
	c-0.178-0.475-0.063-0.942,0.027-1.41c-0.02-0.6-0.037-1.199-0.055-1.799l0.051,0.012c-0.004-0.016,0-0.031-0.004-0.046
	c-0.016,0.012-0.031,0.024-0.047,0.035c-0.121,0.143-0.244,0.285-0.365,0.428c0.039,0.299-0.148,0.416-0.395,0.426
	c-0.303,0.014-0.211-0.25-0.246-0.417c-0.123-0.679-0.246-1.358-0.367-2.038c-0.494-1.125-0.494-1.125,0.781-1.416
	c0.432,0.02,0.604,0.141,0.637,0.313c0.004-0.202,0.006-0.403,0.008-0.604c-0.021-0.015-0.041-0.023-0.063-0.039
	c-0.076-0.151-0.082-0.305-0.004-0.457c-0.053-0.936,0.369-1.859,0.07-2.801c-0.006-0.691-0.006-1.383-0.016-2.074
	c-0.004-0.283,0.143-0.431,0.406-0.457c0.35-0.037,0.334,0.229,0.348,0.459c0.023,0.36,0.043,0.721,0.063,1.083
	c-0.004,1.062-0.01,2.124-0.014,3.187c0.313,0.277,0,0.784,0.383,1.037c0.201-0.066,0.4-0.133,0.6-0.199
	c1.51-0.217,2.248-1.09,2.215-2.614c-0.027-1.217-0.787-0.399-1.236-0.444c-0.486,0.211-1.004,0.137-1.51,0.17
	c-0.293,0.021-0.303-0.139-0.281-0.347c0.369,0.122,0.688-0.038,1.006-0.189c0.127-0.134,0.254-0.269,0.381-0.404
	c0.156-0.786-0.01-1.485-0.619-2.116c0.637-0.24,1.232-0.463,1.826-0.688c0.199-0.139,0.398-0.279,0.598-0.418
	c0.129-0.27,0.354-0.437,0.6-0.584l0.002,0.008c0.043-0.526-0.24-0.373-0.557-0.305c-0.945,0.209-1.701,0.859-2.635,1.083
	c-0.254,0.146-0.516,0.253-0.818,0.174c-0.307,0.163-0.633,0.232-0.98,0.219c-0.457,0.024-0.914,0.048-1.371,0.073
	c-0.27,0.239-0.563,0.215-1.012,0.047c0.352-0.106,0.584-0.176,0.816-0.245c0.502-0.192,0.941-0.769,1.563-0.268
	c0.266-0.097,0.447-0.413,0.793-0.304c0.453-0.004,0.355-0.649,0.789-0.678c0.566-0.322,0.881-0.798,1.072-1.43
	c0.092-0.304,0.471-0.52,0.721-0.775c-0.148-0.506-0.191-0.506-0.977-0.003c-0.283,0.263-0.566,0.526-0.895,0.831
	c-0.121-0.466-0.219-0.836-0.314-1.206c-0.582,0.013-1.158-0.032-1.219-0.782c-0.059-0.726,0.463-0.82,1.02-0.828
	c-0.004-0.005-0.008-0.01-0.012-0.015c0.742-0.189,1.484-0.376,2.227-0.565c0.318-0.162,0.637-0.32,0.955-0.48v0.001
	c0,0,0-0.001,0-0.001c0.004-0.1,0.012-0.199,0.016-0.299c-0.148-0.063-0.414-0.105-0.428-0.193
	c-0.266-1.557-1.627-1.646-2.734-2.074c-0.455-0.094-1.09,0.243-1.332-0.307c-0.207-0.469,0.229-0.271,0.447-0.224
	c0.287,0.065,0.572,0.132,0.854,0.209c0.094,0.024,0.174,0.089,0.26,0.136c0.795-0.033,1.545,0.703,2.424,0.077
	c0.145-0.103,0.514,0.718,0.754,1.131c0.258,0.338,0.518,0.675,0.777,1.013c0.139,0.141,0.275,0.279,0.412,0.42
	c0.648,0.666,0.355,1.515-0.631,1.831c-0.795,0.02-0.33,0.886-0.768,1.147c0.037,0.242-0.006,0.463-0.186,0.641
	c0.078,0.443,0.322,0.76,0.787,0.751c0.641-0.011,0.559,0.415,0.563,0.811c0.201,0.999,0.402,1.998,0.604,2.997
	c0.492,1.031,0.039,2.083,0.059,3.124c0.229,0.946,0.156,1.905,0.137,2.861c0.002,0.138,0.006,0.274,0.008,0.409
	c-0.072,3.467,0.164,6.936-0.152,10.398c-0.02,0.328-0.041,0.654-0.061,0.984c0,0.4-0.002,0.803-0.002,1.205
	c0.252,1.27,0.053,2.539,0.004,3.809c0.002,0.398,0.004,0.797,0.004,1.195c0.01,0.125,0.023,0.25,0.035,0.375
	c0.297,0.543,0.174,1.08-0.023,1.618c-0.004,0.065-0.006,0.132-0.01,0.198c-0.137,1.458,0.248,2.92-0.02,4.379
	c0.004,0.805,0.008,1.611,0.014,2.418c0.283,0.664,0.254,1.329,0.01,1.996c-0.004,0.198-0.006,0.396-0.01,0.596
	c0.02,0.393,0.041,0.784,0.061,1.176c0.195,0.396,0.158,0.816,0.137,1.235c0.027,0.376,0.057,0.752,0.086,1.127
	c0.514,0.962-0.639,1.076-0.852,1.667c-0.053,0.193-0.104,0.384-0.156,0.578c0.186,0.08,0.371,0.162,0.559,0.243
	c0.055-0.032,0.111-0.053,0.172-0.063c0.105-0.27,0.18-0.563,0.498-0.707c0.227,0.215,0.133,0.48,0.139,0.727
	c0.375,0.844,0.117,1.732,0.182,2.599c0.014,0.164-0.029,0.362-0.227,0.371c-0.5,0.021-0.627-0.376-0.77-0.743l-0.094-0.011
	l-0.092,0.021c-0.158,0.777-0.412,1.521-0.789,2.219c-0.006,0.166-0.014,0.331-0.184,0.424c-0.234,0.184-0.289,0.667-0.73,0.498
	c-0.426-0.161-0.588-0.499-0.471-0.953c-0.066-0.264-0.131-0.529-0.195-0.796c-0.021-0.127-0.039-0.253-0.059-0.38
	c-0.193-0.54-0.412-1.073-0.574-1.623c-0.08-0.27-0.176-0.305-0.393-0.172c-0.018,0.58-0.02,1.16-0.057,1.738
	c-0.02,0.33-0.053,0.715-0.559,0.404c-0.271,0.057-0.545,0.114-0.814,0.172c-0.787,0.17-1.547,0.493-2.377,0.424
	c-0.145,0.078-0.289,0.157-0.436,0.236c0.041,0.596,0.127,1.19-0.002,1.787c0.012,0.268,0.023,0.534,0.033,0.803l-0.049,0.01
	c-0.002,0.002-0.002,0.002-0.004,0.004c0.018-0.004,0.035-0.01,0.053-0.014c0.266-0.006,0.529-0.01,0.793-0.014
	c0.434-0.463,0.986,0.264,1.426-0.145c0.104-0.078,0.199-0.174,0.313-0.232c0.561-0.286,1.131-0.998,1.748-0.496
	c0.521,0.423-0.037,1.111-0.098,1.684c0.246,0.289-0.615,1.039,0.414,1.002c0.152-0.213,0.373-0.217,0.602-0.196
	c0.178-0.076,0.355-0.158,0.535-0.23c0.367-0.147,0.646-0.024,0.803,0.321c0.166,0.367-0.018,0.665-0.324,0.822
	c-0.521,0.264-1.07,0.464-1.609,0.69c-0.182,0.079-0.363,0.157-0.545,0.235c-0.279,0.119-0.555,0.24-0.832,0.359
	c0.02,0.295,0.293,0.645-0.186,0.826c-0.129,0.129-0.258,0.258-0.385,0.387c-0.697,0.777-1.674,1.05-2.594,1.422
	c-0.201,0.135-0.402,0.268-0.604,0.401c-0.156,0.101-0.313,0.201-0.469,0.302c-0.412,0.299-0.865,0.477-1.379,0.471
	c-0.627,0.27-1.287,0.376-1.963,0.415c-0.664,0.248-1.359,0.136-2.041,0.189c-0.23,0.232-0.516,0.19-0.799,0.163
	c-0.137-0.001-0.271-0.002-0.406-0.003c-0.266,0.009-0.531,0.019-0.795,0.026c-0.074,0.039-0.15,0.065-0.229,0.092
	c0.08,0.014,0.16,0.035,0.24,0.066c-0.354,0.472-0.904,0.327-1.369,0.419c-0.381,0.077-0.781,0.044-1.174,0.06
	c-2.385,0.477-4.803,0.536-7.219,0.591c-0.32,0.367-1.252-0.09-1.152,0.591c0.096,0.65,0.891,0.338,1.367,0.35
	c1.777,0.048,3.557,0.029,5.336,0.035c0.469-0.051,0.938-0.104,1.404-0.154c0.07-0.006,0.141-0.01,0.211-0.016
	c0.838-0.164,1.684-0.266,2.541-0.264c0.773-0.385,1.621-0.43,2.457-0.533c0.523,0.121,1.146-0.582,1.592,0.191
	c0.598-0.204,1.193-0.41,1.791-0.613c0.047-0.044,0.102-0.057,0.164-0.039c0.172-0.2,0.404-0.187,0.635-0.176
	c0.26-0.078,0.52-0.154,0.781-0.23l0.039,0.064c0.002,0,0.004,0,0.006-0.001c-0.014-0.021-0.029-0.042-0.045-0.063
	c0.787-0.311,1.547-0.71,2.418-0.746c0.193-0.025,0.387-0.052,0.58-0.078c0.074-0.033,0.146-0.067,0.223-0.103
	c0.4-0.146,0.803-0.288,1.203-0.431c0.346-0.277,0.766-0.358,1.18-0.452c0.406-0.181,0.811-0.36,1.215-0.541
	c0.033-0.046,0.078-0.063,0.135-0.046c0.301-0.283,0.672-0.424,1.061-0.533c0.236-0.11,0.469-0.229,0.707-0.33
	c0.564-0.241,1.188-0.474,1.469,0.318C124.374,114.843,123.856,115.154,123.216,115.306z M118.771,99.078
	c-0.07-0.336-0.141-0.671-0.211-1.004c-0.141-0.061-0.281-0.121-0.42-0.181c-0.594,0.267-1.186,0.534-1.777,0.802
	c-0.078,0.66-0.156,1.318-0.234,1.98c0,0.05,0,0.102,0,0.152c0.029,0.016,0.057,0.033,0.086,0.048
	c0.078,0.157,0.074,0.308,0.014,0.455c0.057,0.003,0.115,0.003,0.17,0.011c0.02,0.001,0.037,0.008,0.055,0.01
	c0.234-0.26,0.576-0.338,0.895-0.43c0.762-0.222,1.344-0.551,1.195-1.494c-0.02-0.127,0.063-0.252,0.15-0.356
	C118.724,99.068,118.745,99.076,118.771,99.078z M120.849,76.16c-0.146-0.292-0.172-0.631-0.18-0.965
	c0.047-0.66-0.121-1.307-0.123-1.961c0.002-0.01,0.008-0.014,0.01-0.023c-0.145,0.07-0.303,0.074-0.477,0.021
	c-0.098-0.052-0.143-0.108-0.162-0.167c-0.061,0.006-0.121,0.011-0.18,0.018c-0.133,0.045-0.266,0.09-0.398,0.135
	c-0.02,0.041-0.027,0.078-0.051,0.121c-0.084,0.091-0.166,0.192-0.287,0.129c-0.086,0.241-0.301,0.38-0.449,0.574
	c-0.094,0.516-0.164,1.036-0.238,1.556c0.012,0.36,0.025,0.72,0.029,1.08c0.408,0.048,0.611-0.38,0.982-0.419
	c0.186-0.139,0.371-0.275,0.557-0.414c0.168-0.15,0.393-0.547,0.439,0.049c0.021,0.276-0.098,0.564-0.154,0.845
	c-0.016,0.116-0.033,0.231-0.051,0.346c0.039,0.421-0.064,0.817-0.205,1.208c-0.305,0.254,0.041,0.741-0.313,0.977
	c0,0.091-0.016,0.178-0.088,0.253c-0.85,0.902-0.961,1.859-0.258,2.854c0.43,0.608,0.291,1.018-0.299,1.365
	c-0.02-0.02-0.041-0.037-0.061-0.056c0.012,0.268,0.023,0.536,0.035,0.804c0.393,1.504,0.277,3.07,0.561,4.586
	c0.225,1.779,0.451,3.558,0.676,5.337c0.215,0.399,0.168,0.835,0.178,1.265c0.182,0.235,0.195,0.517,0.205,0.797
	c0.176,0.168,0.174,0.385,0.164,0.603c-0.008,0.005-0.016,0.013-0.023,0.019c0.064,0.018,0.121,0.029,0.193,0.05
	c0.352,0.46,0.332,0.979,0.244,1.511c-0.014,0.138-0.066,0.252-0.162,0.346c0.016,0.015,0.035,0.024,0.049,0.04
	c0.033,0.058,0.021,0.13,0.045,0.185c0.068,0.17,0.021-0.034,0.047-0.017c0.029-0.259-0.002-0.529,0.154-0.763
	c0.01-0.014,0.021-0.024,0.033-0.038c-0.008-0.004-0.014-0.009-0.021-0.013c-0.061-0.12-0.066-0.246-0.041-0.375
	c0.084-0.283,0.066-0.592,0.201-0.863c0.016-0.016,0.031-0.031,0.047-0.048c-0.049-0.103-0.096-0.208-0.148-0.311
	c-0.1-1.146-0.225-2.29,0.08-3.427c0.041-0.065,0.094-0.102,0.154-0.121c0.002-1.652,0.008-3.303,0.01-4.955
	c-0.018-0.463-0.035-0.925-0.051-1.385c-0.055-0.116-0.09-0.23-0.086-0.341c-0.037-0.173-0.063-0.347-0.072-0.522
	c-0.145-0.468-0.045-0.979-0.234-1.442c-0.055-0.44-0.146-0.888,0.164-1.276c-0.094-0.013-0.176-0.049-0.242-0.118
	c-0.334-0.75-0.154-1.531-0.162-2.303c0.033-0.259,0.057-0.523,0.119-0.779c0.008-0.031,0.023-0.056,0.035-0.084
	C120.897,78.754,120.794,77.46,120.849,76.16z M118.106,71.528c-0.016,0.297,0.193,0.273,0.4,0.252
	c0.004,0.002,0.008,0.004,0.012,0.007c0.402-0.111,0.805-0.221,1.205-0.332c0.33-0.15,0.656-0.301,0.984-0.45
	c-0.027-0.053-0.014-0.091,0.039-0.116c0.006-0.832,0.012-1.661,0.016-2.491c-0.039-0.017-0.082-0.028-0.121-0.048
	c-0.266-0.136-0.605,0.008-0.846-0.221c-0.02-0.018-0.041-0.036-0.061-0.054c0.021,0.046,0.047,0.09,0.037,0.157
	c-1.234,0.527-1.553,1.518-1.4,2.753c0.018,0.16-0.057,0.321-0.145,0.461C118.192,71.485,118.149,71.511,118.106,71.528z
	 M116.251,94.826c-0.035-0.071-0.049-0.142-0.076-0.213c-0.012,0.033-0.014,0.066-0.027,0.099c-0.018,0.322-0.033,0.644-0.049,0.966
	c0.021,0.636,0.045,1.27,0.066,1.904c0.594-0.357,1.199-0.531,1.838-0.18c0.033-0.189,0.107-0.363,0.217-0.523
	c0.021-0.025,0.049-0.045,0.07-0.07c-0.535-0.547-0.559-1.15-0.23-1.794C117.458,94.947,116.843,94.998,116.251,94.826z
	 M117.683,89.317c-0.451-0.077-0.846,0.219-1.287,0.202c-0.43,0.148-0.553,0.431-0.482,0.883c0.066,0.41,0.031,0.836,0.039,1.254
	c0.293,0.299-0.148,0.863,0.387,1.072c0.449-0.137,0.898-0.272,1.348-0.409c-0.002-0.01-0.008-0.019-0.008-0.028
	c0.021-0.05,0.055-0.084,0.088-0.119c0.002-0.428,0.004-0.854,0.006-1.282c-0.105-0.302-0.078-0.632-0.172-0.937
	c-0.025-0.142-0.021-0.282,0.02-0.42c0.037-0.037,0.076-0.071,0.115-0.106C117.71,89.394,117.694,89.356,117.683,89.317z
	 M117.396,85.269c-0.086-0.249-0.094-0.51-0.15-0.765c-0.32,0.199-0.664,0.34-1.066,0.328c-0.027-0.021-0.041-0.041-0.066-0.062
	c-0.063,0.271-0.268,0.291-0.494,0.275c0.037,0.944,0.061,1.89,0.125,2.832c0.053,0.749,0.547,0.074,0.797,0.217
	c0.836-0.234,1.041-0.703,1.068-1.239c-0.127-0.263-0.193-0.516-0.027-0.728c-0.014-0.178-0.021-0.354-0.018-0.526
	C117.499,85.497,117.442,85.387,117.396,85.269z M115.31,82.485c0.018,0.188,0.035,0.376,0.053,0.565
	c0.16,0.122,0.102,0.428,0.377,0.459c0.203-0.056,0.406-0.111,0.609-0.168c0.264-0.074,0.525-0.148,0.789-0.225
	c0.303-0.273,0.254-0.603,0.221-0.93c-0.08-0.143-0.148-0.294-0.189-0.471c-0.098-0.376-0.074-0.765-0.109-1.145
	c0.002-0.042-0.008-0.082-0.018-0.123c-0.445,0.218-0.926,0.278-1.43,0.219c-0.033-0.011-0.055-0.042-0.084-0.058
	c-0.014,0.017-0.027,0.033-0.039,0.05c-0.043,0.213-0.07,0.429-0.109,0.644c-0.018,0.11-0.043,0.201-0.068,0.28
	C115.343,81.889,115.397,82.197,115.31,82.485z M104.413,98.211c0.408,0.015,0.859-0.081,1.162,0.323
	c-0.012,0.043-0.029,0.074-0.045,0.108c0.018,0,0.035-0.001,0.051-0.001c0.18-0.133,0.354-0.128,0.525-0.004
	c0.016-0.031,0.012-0.065,0.037-0.098c1.039-0.465,2.143-0.588,3.266-0.602c0.049,0.058,0.082,0.116,0.109,0.176
	c0.008-0.007,0.01-0.014,0.018-0.02c0.131-0.355,0.389-0.419,0.721-0.318c-0.01,0.087-0.006,0.146,0.004,0.196
	c0.025-0.026,0.059-0.056,0.08-0.08c0.527-0.277,1.066-0.493,1.674-0.392c0.021-0.036,0.049-0.057,0.068-0.098
	c0.137-0.061,0.277-0.066,0.422-0.025c0.012,0.006,0.02,0.016,0.031,0.021c0.012-0.043,0.023-0.086,0.035-0.129
	c-0.018-0.653-0.035-1.306-0.055-1.959c-0.004-0.902-0.711-0.57-1.174-0.668c-0.662,0.1-1.324,0.197-1.986,0.296
	c-0.738,0.247-1.475,0.494-2.211,0.741c0,0,0,0,0,0.001c-0.342,0.304-0.775,0.23-1.178,0.276c-0.561,0.347-0.65-0.746-1.211-0.395
	c-0.318,0.479-0.771,0.809-1.252,1.106c-0.068,0.266-0.318,0.188-0.492,0.257c-0.25,0.225-0.285,0.5-0.279,0.784
	c0.088,0.05,0.176,0.108,0.277,0.196C103.438,98.195,103.927,98.192,104.413,98.211z M112.858,106.158
	c-0.033-0.043-0.084-0.07-0.125-0.105c-0.672,0.195-1.336,0.439-2.021,0.574c-0.563,0.109-0.277-0.444-0.416-0.674
	c-0.281-0.581-0.744-0.938-1.359-1.109c-0.33,0.006-0.662,0.012-0.994,0.019c-0.563,0.295-1.1,0.622-1.418,1.208
	c-0.359,0.553,0.357,1.418-0.527,1.821v0.001c0,0,0-0.001,0.002-0.001c-0.129,1.278,0.113,1.497,1.73,1.557
	c0.91-0.181,1.813-0.409,2.75-0.366c0.049-0.04,0.098-0.08,0.158-0.117c0.328-0.141,0.654-0.283,1.023-0.184
	c0.055,0.017,0.088,0.063,0.115,0.113c0.59-0.073,1.178-0.148,1.77-0.221c0.014-0.194,0.025-0.389,0.041-0.582
	c-0.045-0.013-0.092-0.039-0.148-0.095c-0.203-0.44-0.242-0.872,0.07-1.28C113.165,106.679,113.089,106.332,112.858,106.158z
	 M112.931,99.707c-0.484-0.135-0.918,0.192-1.391,0.154c-1.471,0.311-2.953,0.568-4.371,1.096c-0.787,0.752-0.756-0.479-1.221-0.507
	l-0.092,0.037l-0.1-0.004c-0.35,0.263-0.83,0.35-1.055,0.779c0.021,0.648-0.818,1.123-0.373,1.854
	c0.145,0.113,0.291,0.228,0.438,0.342c0.236,0.01,0.473,0.02,0.709,0.028c0.012-0.038,0.02-0.075,0.037-0.116
	c0.254-0.283,0.564-0.346,0.918-0.225c0.098,0.038,0.137,0.092,0.146,0.152c0.094-0.01,0.188-0.021,0.281-0.03
	c0.004-0.04,0.012-0.077,0.027-0.112c0.166-0.254,0.387-0.266,0.637-0.145c0.023,0.021,0.025,0.045,0.037,0.068
	c0.293-0.166,0.605-0.225,0.93-0.232c0.078-0.053,0.152-0.114,0.213-0.207c1.107-0.273,2.215-0.568,3.35-0.162
	c0.012-0.021,0.023-0.04,0.035-0.063c0.277-0.193,0.58-0.292,0.92-0.266c0.041,0.012,0.07,0.039,0.109,0.056
	c-0.049-0.576-0.1-1.152-0.148-1.729C112.956,100.219,112.942,99.962,112.931,99.707z M112.333,71.056
	c-0.072,0.078-0.123,0.163-0.172,0.248c0.189,0.203,0.313,0.417,0.289,0.662c0.637-0.824,0.559-1.663-0.234-2.149
	C112.458,70.202,112.423,70.625,112.333,71.056z M111.823,90.929c-0.141,0.082-0.291,0.099-0.449,0.059
	c-0.043-0.022-0.076-0.049-0.113-0.075c-0.295,0.108-0.576,0.264-0.912,0.19c-1.109,0.052-2.23,0.619-3.324-0.034
	c-0.002,0.001-0.002,0.002-0.002,0.003c-0.484,0.288-0.914,0.719-1.533,0.673c-0.256,0.556-0.209,1.101-0.01,1.64
	c0.252-0.109,0.471-0.018,0.67,0.193c0.004,0.031,0.012,0.063,0.016,0.095c0.289-0.005,0.58-0.021,0.832,0.169
	c0.332,0.019,0.666,0.037,1,0.055c0.1-0.092,0.205-0.17,0.336-0.205c0.336-0.064,0.666-0.092,0.947,0.139
	c0.533-0.608,1.273-0.389,1.947-0.428c0.172,0.045,0.305,0.083,0.422,0.121c0.129-0.027,0.262-0.035,0.396-0.039
	c-0.023-0.033-0.047-0.066-0.066-0.105c-0.129-0.521-0.238-1.041,0.186-1.494c0.033-0.03,0.063-0.067,0.088-0.108
	c-0.061,0.022-0.119,0.044-0.191,0.071c-0.119-0.164-0.152-0.354-0.164-0.551c-0.018-0.105,0.004-0.209,0.033-0.313
	c-0.021-0.034-0.049-0.062-0.082-0.086C111.839,90.907,111.835,90.92,111.823,90.929z M111.138,86.46
	c-0.393,0.111-0.777,0.259-1.199,0.199c-0.264,0.095-0.529,0.088-0.797,0.016c-0.91,0.129-1.82,0.151-2.732,0.037
	c-0.131,0.088-0.258,0.101-0.385,0.082c-0.346,0.06-0.688,0.065-1.025-0.126c-0.051-0.04-0.074-0.093-0.072-0.158
	c-0.291-0.222-0.549-0.524-0.979-0.425c-0.301,0.26-0.789,0.214-1,0.619c-0.135,0.177-0.27,0.354-0.404,0.531
	c0.027,0.023,0.047,0.048,0.08,0.07c0.096,0.173,0.098,0.348,0.01,0.524c-0.039,0.021-0.082,0.036-0.125,0.054
	c0.004,0.002,0.008,0.003,0.012,0.006c0.336,0.056,0.482,0.278,0.525,0.594c0,0,0,0.001,0,0.001
	c0.395,0.063,0.781,0.149,1.119,0.382c0.662,0.082,1.322,0.164,1.982,0.244c1.854-0.018,3.707-0.033,5.561-0.051
	c-0.047-0.042-0.1-0.08-0.129-0.139c-0.117-0.398-0.133-0.792,0.055-1.175c0.039-0.05,0.088-0.079,0.143-0.099
	c-0.02-0.175-0.039-0.351-0.059-0.527C111.487,86.933,111.677,86.376,111.138,86.46z M110.267,76.277c0-0.002,0-0.004,0-0.007
	c-0.559,0.141-1.119,0.262-1.699,0.235c-0.588,0.246-1.211,0.17-1.822,0.209c-0.42-0.221-0.738-0.801-1.326-0.444
	c0.004,0.023,0.025,0.039,0.027,0.063c-0.043,0.324-0.318,0.473-0.512,0.687c-0.619,0.685-0.479,1.145,0.41,1.391
	c0.301,0.083,0.672,0.007,0.846,0.374c0.023,0.03,0.037,0.062,0.059,0.092c0.367,0.013,0.732,0.026,1.1,0.039
	c0.797,0.005,1.594,0.009,2.393,0.014c0.135-0.007,0.271-0.013,0.406-0.02c0.047-0.024,0.096-0.043,0.139-0.077
	c0.082-0.035,0.168-0.051,0.258-0.055c0.051-0.004,0.094-0.017,0.143-0.023c0.016-0.016,0.033-0.031,0.049-0.047
	c-0.408-0.715-0.518-1.444-0.086-2.199c0.02-0.013,0.033-0.015,0.051-0.025C110.526,76.482,110.376,76.426,110.267,76.277z
	 M108.96,79.485c-0.002,0.005-0.006,0.005-0.01,0.01v0c0.008,0.002,0.014,0.004,0.02,0.006
	C108.968,79.496,108.964,79.491,108.96,79.485z M104.171,71.282c0.041,0.077,0.082,0.153,0.125,0.231
	c0.156,0.12,0.314,0.242,0.471,0.363c0.064-0.002,0.125,0.014,0.182,0.045c0.352-0.012,0.713-0.104,1.035,0.129
	c1.186,0.08,2.373,0.16,3.559,0.24c0.18-0.006,0.359-0.012,0.539-0.018c0.084-0.193,0.166-0.388,0.252-0.581
	c-0.004-0.324-0.006-0.646-0.008-0.97c0.002-0.003,0.002-0.007,0.004-0.01c-0.047,0.004-0.084,0.019-0.135,0.021
	c-0.361-0.626-1.066-0.529-1.615-0.763c-0.029-0.04-0.045-0.073-0.057-0.105c-0.225,0.006-0.449,0.011-0.674,0.017
	c-0.039,0.048-0.078,0.096-0.119,0.141c-0.73,0.431-1.336,0.393-1.727-0.457c0-0.008,0.002-0.014,0.002-0.021
	c-0.08-0.014-0.16-0.028-0.24-0.042C105.388,70.234,104.103,70.152,104.171,71.282z M101.755,83.409
	c0.002,0.001,0.004,0.001,0.006,0.002c0.271,0.293,0.697,0.426,0.869,0.825c0,0.013-0.004,0.025-0.004,0.038
	c0.041,0.008,0.084,0.016,0.125,0.024c0.338,0.005,0.674,0.012,1.012,0.016c0.49-0.037,0.975-0.021,1.445,0.139
	c0.111,0.011,0.223,0.021,0.336,0.032c0.51-0.009,1.021-0.019,1.531-0.028c0.096-0.038,0.193-0.052,0.293-0.06
	c0.908-0.203,1.846-0.124,2.76-0.265c0.258-0.023,0.518-0.048,0.775-0.074c0.016,0.005,0.029,0.011,0.045,0.016
	c-0.021-0.022-0.045-0.042-0.059-0.079c0.117-0.432,0.201-0.87,0.289-1.309c0.02-0.034,0.041-0.049,0.061-0.078
	c-0.162-0.607-0.566-0.902-1.316-0.752c-0.705,0.094-1.412,0.188-2.119,0.28c-0.467,0.228-0.969,0.128-1.459,0.157
	c-0.643,0.278-1.316,0.223-1.988,0.19c-0.029,0.042-0.055,0.079-0.086,0.126c-0.102,0.043-0.203,0.063-0.313,0.064
	c-0.037-0.008-0.055-0.023-0.088-0.032c-0.336,0.085-0.691,0.031-1.035,0.056C102.323,82.732,101.925,82.904,101.755,83.409z
	 M61.583,100.389c0.123,0.005,0.221,0.083,0.301,0.21c0.018,0.047,0.023,0.092,0.033,0.137c0.072,0.035,0.145,0.071,0.217,0.106
	c0.037-0.026,0.063-0.062,0.109-0.081c0.869,0.097,1.604,0.466,2.205,1.103c0.006,0.021,0.004,0.036,0.008,0.055
	c0.482,0.11,0.971,0.198,1.367,0.53c0.785,0.273,1.568,0.545,2.354,0.816c0.529,0.079,1.059,0.158,1.588,0.236
	c0.664-0.012,1.328-0.021,1.99-0.033c0.299-0.221,0.639-0.339,1.002-0.398c0.174-0.23,0.445-0.441,0.15-0.765h-0.002
	c-0.127-0.067-0.254-0.132-0.383-0.199c-0.531-0.2-1.061-0.4-1.592-0.601c-1.682-0.217-3.352-0.491-4.963-1.042
	c-0.615-0.06-1.24-0.081-1.799-0.394c-0.502-0.135-1.006-0.271-1.508-0.407c-0.041,0.036-0.07,0.084-0.113,0.118
	C62.202,99.947,61.706,99.889,61.583,100.389z M67.218,110.992c-0.297-0.23-0.598-0.463-0.896-0.696
	c-0.416-0.054-0.676-0.351-0.957-0.614c-0.658-0.547-1.527-0.269-2.246-0.573c0-0.001,0-0.001,0-0.001
	c-0.5,0.004-0.896-0.215-1.242-0.538c-0.018,0.001-0.035,0.001-0.053,0.003c-0.42-0.167-0.832-0.357-1.26-0.512
	c0.182,0.391,0.051,0.806,0.1,1.208c-0.006,0.03-0.02,0.057-0.029,0.086c0.723,0.362,1.422,0.763,2.025,1.313
	c0,0.002,0,0.004,0,0.006c0.957-0.095,1.83,0.124,2.602,0.702c0.037-0.014,0.072-0.012,0.109-0.031
	c0.184-0.065,0.369-0.088,0.561-0.049c0.053,0.014,0.094,0.047,0.141,0.072C66.427,111.19,66.909,111.372,67.218,110.992z
	 M75.688,108.257c-0.119-0.113-0.236-0.226-0.357-0.338c0.004-0.012,0.01-0.016,0.014-0.025c-0.744,0.012-1.383,0.582-2.16,0.396
	c-0.783,0.256-1.527,0.094-2.264-0.193l0,0c-1.332-0.459-2.66-0.916-3.992-1.373c-0.568-0.134-1.133-0.28-1.705-0.396
	c-0.205-0.041-0.461-0.127-0.559,0.067c0.854,0.274,1.58,0.739,2.141,1.449c0.004-0.005,0.008-0.008,0.014-0.013
	c0.121,0.074,0.242,0.15,0.365,0.226c0.277,0.19,0.555,0.381,0.83,0.571c0.184,0.066,0.365,0.134,0.547,0.2
	c0.084-0.031,0.166-0.066,0.254-0.086c0.391-0.017,0.758,0.037,0.992,0.405c0.006,0.037-0.002,0.065-0.006,0.096
	c0.002-0.001,0.004-0.002,0.006-0.002c0.316,0.083,0.631,0.168,0.947,0.254c0.348,0.058,0.693,0.117,1.041,0.176
	c0.068-0.086,0.152-0.15,0.27-0.156c0.689-0.142,1.359,0.174,2.057,0.068c0.76-0.115,1.322-0.388,1.434-1.228
	C75.601,108.317,75.646,108.289,75.688,108.257z M153.521,61.498c0.004,0.003,0.008,0.006,0.012,0.009
	c-0.002-0.001-0.002-0.003-0.002-0.005c-0.004-0.002-0.006-0.006-0.01-0.009C153.521,61.495,153.521,61.496,153.521,61.498z
	 M65.802,62.152c-0.389-0.18-0.789-0.334-1.184-0.5c-0.689-0.455-1.484-0.666-2.24-0.97c0,0,0,0,0,0.001
	c-0.725-0.462-1.516-0.771-2.342-0.993c-0.16-0.042-0.449-0.213-0.475,0.093c-0.059,0.719-0.188,1.486,0.002,2.15
	c0.109,0.388,0.844,0.375,1.336,0.398c0.463,0.22,0.959,0.287,1.463,0.32c0.064,0.006,0.131,0.012,0.197,0.018
	c0.068,0.007,0.139,0.014,0.209,0.021c0.311,0.163,0.641,0.244,0.992,0.218c0.178,0.151,0.383,0.202,0.609,0.152
	c0.396,0.015,0.795,0.012,1.188,0.045c0.33,0.03,0.477-0.125,0.559-0.418C66.198,62.387,66.015,62.25,65.802,62.152z M130.483,62.87
	c-1.082,0.251-1.426,1.241-1.996,2.001c-0.377,0.336-1.15,0.467-0.926,1.092c0.064,0.176,0.711-0.525,1.133-0.76
	c0.023-0.014,0.031-0.056,0.049-0.084c0.76-0.566,1.43-1.223,2.023-1.961c1.109-0.909,2.373-1.639,3.463-2.891
	C132.601,60.849,131.46,61.746,130.483,62.87z M135.638,90.126c-1.262,0.588-2.445,1.295-3.566,2.296
	C133.772,92.308,134.571,91.013,135.638,90.126z M66.011,66.045c-0.063,0.612-0.047,1.231-0.064,1.847
	c0.049,1.268-0.045,1.362-1.283,1.158c-1.098-0.182-2.191-0.391-3.285-0.589c-0.465-0.118-0.924-0.257-1.393-0.345
	c-0.385-0.072-0.467-0.281-0.387-0.617c0.004-0.87,0.008-1.739,0.012-2.609c-0.041-0.255-0.148-0.51,0.035-0.805
	c0.506,0.212,1.016,0.427,1.523,0.641c0.137,0.047,0.273,0.094,0.408,0.143c0.361-0.005,0.721,0.002,1.043,0.195
	c0.916,0.151,1.832,0.303,2.748,0.453C65.774,65.46,66.067,65.488,66.011,66.045z M61.284,66.419
	c-0.07,0.025-0.125,0.062-0.186,0.095c0.014,0.01,0.027,0.024,0.041,0.036C61.187,66.508,61.222,66.47,61.284,66.419z
	 M94.517,44.683c-0.561-0.355-1.166-0.15-1.756-0.143c-0.131-0.018-0.26-0.035-0.389-0.055c-0.857-0.249-1.729-0.196-2.611-0.077
	c0.553,0.021,1.029,0.405,1.607,0.281c0.465-0.005,0.928-0.012,1.393-0.017c1.131,0.089,2.225,0.473,3.375,0.41
	c0.285,0.082,0.566,0.196,0.855,0.229c0.174,0.019,0.498,0.277,0.533-0.141c0.02-0.268,0.051-0.687-0.396-0.646
	C96.257,44.609,95.368,44.325,94.517,44.683z M69.497,5.498c0.037-0.39,0.35-0.483,0.643-0.597c0,0,0-0.001,0-0.001
	c0.742-1.3,1.951-1.822,3.357-2.012c0.936-0.384,1.885-0.541,2.865-0.17c0.045-0.035,0.094-0.041,0.146-0.019
	c0.26-0.176,0.553-0.192,0.852-0.165c0.354-0.346-0.178-0.381-0.205-0.593c-0.066-0.015-0.133-0.031-0.201-0.044
	c-0.521-0.178-1.045-0.354-1.734-0.586c0.791-0.486,1.564-0.508,2.33-0.55c0.461-0.036,0.84,0.163,1.199,0.417
	c0.371,0.17,0.748,0.359,0.945-0.221c-0.176-0.229-0.352-0.457-0.58-0.756c1.574-0.447,3.023-0.035,4.479,0.107
	c0.953-0.06,1.861,0.134,2.746,0.475c0.742,0.33,1.424,0.811,2.258,0.914c0.648,0.223,1.297,0.445,1.943,0.667h0.002
	c2.969,1.37,5.543,3.237,7.445,5.946c0.318,0.405,0.637,0.811,0.957,1.217c0.287,0.197,0.49,0.459,0.605,0.789
	c0.256,0.274,0.34,0.623,0.418,0.974c0.131,0.187,0.264,0.372,0.395,0.56c0.289,0.141,0.494,0.36,0.609,0.663
	c0.385,0.399,0.516,0.933,0.742,1.415c0.182,0.316,0.475,0.588,0.418,1.006c0.396,0.426,0.715,0.896,0.84,1.525
	c-0.361,0.029-0.68,0.057-0.998,0.084c-0.074,0.037-0.145,0.052-0.209,0.056c-0.191,0.051-0.383,0.102-0.574,0.153
	c-0.609,0.331-1.295,0.029-1.984,0.246c0.248,0.621,0.709,1.068,1.145,1.535c0.738,0.199,1.463,0.199,2.211,0.004
	c0.332-0.088,0.717-0.074,1.039,0.151c0.445-0.062,0.563,0.207,0.582,0.576c0.104,0.274,0.223,0.544,0.309,0.825
	c0.074,0.246,0.227,0.574-0.025,0.738c-0.336,0.221-0.498-0.181-0.719-0.347c-0.309-0.014-0.617-0.036-0.848,0.229
	c-0.148,0.277-0.1,0.552,0.01,0.826c0.279,0.257,0.559,0.515,0.838,0.773c0.34,0.129,0.68,0.259,1.021,0.389
	c0.254,0.078,0.588-0.136,0.766,0.211c0.068,0.183,0.152,0.358,0.205,0.545c0.295,1.056,0.293,1.057-0.787,0.84
	c-0.4,0.068-0.801,0.135-1.201,0.203c-0.158,0.135-0.314,0.271-0.473,0.408c0.082,0.27,0.164,0.54,0.244,0.811
	c0.119,0.723,0.615,0.984,1.211,1.123c0.072-0.002,0.152,0.016,0.234,0.057c1.678-0.213,2.809,0.456,3.389,2.066
	c0.156,0.432,0.428,0.823,0.602,1.252c0.182,0.446,0.67,0.982,0.32,1.365c-0.402,0.441-1.08,0.619-1.732,0.311
	c-0.195-0.002-0.391-0.002-0.588-0.009c-0.578-0.022-0.979,0.23-1.02,0.817c-0.041,0.58,0.369,0.775,0.885,0.83
	c0.188,0.02,0.371,0.103,0.555,0.156c0.396-0.021,0.523,0.221,0.518,0.56c-0.023,1.412,0.529,2.7,0.865,4.034
	c0.184,0.18,0.188,0.404,0.162,0.637c0.098,0.393,0.291,0.769,0.223,1.193c0.146,0.66,0.291,1.322,0.438,1.984
	c0.25,0.717,0.428,1.443,0.352,2.21c0.008,0.255,0.018,0.511,0.025,0.765c0.227,0.31,0.176,0.672,0.199,1.019
	c0.061,0.136,0.123,0.268,0.184,0.404v0c0.408-0.012,0.752-0.168,0.977-0.511c0.307-0.47,0.441-0.063,0.629,0.104
	c0.506,0.201,0.902,0.442,0.824,1.121c-0.096,0.846,0.525,1.203,1.188,1.486c-0.174,1.045-0.816,1.683-1.777,2.047
	c-1.783,0.631-3.609,0.887-5.492,0.596c-0.723,0.125-0.504-0.543-0.713-0.85c-0.088-0.102-0.176-0.203-0.264-0.304
	c-0.205-0.149-0.41-0.301-0.617-0.452c-0.705-0.16-1.373-0.371-1.561-1.205c-0.541-0.8,0.229-1.468,0.225-2.215
	c-0.229-0.23-0.24-0.514-0.201-0.813c-0.137-1.061-0.275-2.121-0.195-3.195c-0.002-0.396-0.006-0.791-0.01-1.188
	c-0.398-1.289-0.365-1.322,0.912-1.086c0.553,0.104,1.113,0.172,1.67,0.254c0.27-0.124,0.537-0.248,0.807-0.374
	c0.885-0.728,0.074-0.928-0.385-1.235c-0.172,0.023-0.322-0.012-0.441-0.143c-0.266,0.041-0.531,0.082-0.795,0.125
	c-0.188,0.488-0.352,0.96-1.059,0.867c-0.627-0.083-0.83-0.44-0.828-0.998c0.002-0.309-0.379-0.465-0.303-0.797
	c-0.412-0.471-0.254-1.033-0.248-1.568c-0.326-0.635-0.58-1.29-0.555-2.019c-0.127-0.277-0.254-0.554-0.381-0.83
	c-0.172-0.38-0.299-0.793-0.527-1.134c-0.471-0.7-0.037-0.713,0.479-0.701c0.023-0.188,0.047-0.377,0.07-0.565
	c-0.031-0.413-0.033-0.848-0.631-0.831c-0.367,0.131-0.631,0.039-0.807-0.329c-0.449-0.95-0.912-1.891-1.371-2.837
	c-0.127-0.217-0.254-0.434-0.393-0.672c0.344-0.207,0.656-0.121,0.965-0.094c0.484-0.048,0.488-0.311,0.311-0.672
	c-0.186-0.377-0.354-0.764-0.529-1.145c-0.063,0-0.123-0.016-0.178-0.045c-1.342,0.347-1.689,0.184-2.047-0.962
	c-0.039-0.075-0.076-0.147-0.113-0.222c-0.42-0.654-0.84-1.308-1.258-1.962c-0.193-0.245-0.385-0.489-0.609-0.775
	c0.313-0.214,0.578,0.028,0.834-0.02c0.201-0.013,0.402-0.024,0.602-0.037c-0.01-0.19-0.021-0.38-0.031-0.569
	c-0.258-0.395-0.512-0.786-0.768-1.179c-0.4-0.015-0.799-0.029-1.199-0.042c-0.811-0.118-0.799-0.934-1.389-1.505
	c0.518-0.04,0.855-0.065,1.193-0.091c-0.004-0.133-0.008-0.264-0.012-0.396c-0.131-0.199-0.264-0.397-0.396-0.596
	c-0.371-0.922-1.348-0.639-2-1.003c-0.373-0.422-0.748-0.843-1.258-1.417c0.531,0,0.896,0,1.264,0
	c-0.504-0.652-1.053-1.251-1.859-1.541c-0.26,0.013-0.553,0.043-0.684-0.237c-0.346-0.735-1.096-0.958-1.684-1.382
	c-0.191-0.086-0.381-0.172-0.57-0.258c-0.49-0.314-0.98-0.629-1.471-0.945c-0.641-0.217-1.279-0.433-1.92-0.648
	c-0.703-0.171-1.344-0.498-1.986-0.818c-0.953-0.212-1.91-0.406-2.813-0.789c-0.316-0.031-0.615-0.113-0.863-0.326
	c-1.02-0.161-2.002-0.455-2.963-0.822c-0.658-0.137-1.316-0.273-1.977-0.41c-0.365-0.126-0.674,0.07-1.002,0.171
	c-0.131,0.079-0.26,0.155-0.393,0.233c-0.148,0.213-0.355,0.333-0.602,0.4c-0.467,0.334-1.02,0.203-1.502,0.156
	C69.142,6.242,69.345,5.814,69.497,5.498z M104.351,46.498c0-0.004-0.002-0.009-0.004-0.014c-0.006,0.004-0.012,0.003-0.018,0.007
	C104.337,46.493,104.345,46.495,104.351,46.498z M107.728,50.111c0.008,0.006,0.018,0.012,0.025,0.018
	c-0.002-0.01-0.008-0.013-0.008-0.024c0,0,0.002,0,0.004,0c-0.002-0.002-0.006-0.006-0.008-0.009c0,0.003,0,0.005,0,0.008
	C107.737,50.106,107.733,50.109,107.728,50.111z M106.745,37.91c0,0.005-0.002,0.009-0.002,0.014
	c0.004-0.002,0.006-0.004,0.01-0.006C106.751,37.915,106.749,37.912,106.745,37.91v-0.002c0,0,0,0,0,0
	C106.745,37.908,106.745,37.91,106.745,37.91z M106.747,29.303c0.002,0.003,0.002,0.005,0.002,0.008v0l0.002-0.004
	C106.751,29.305,106.749,29.304,106.747,29.303z M104.521,35.711c0.008,0.003,0.016,0.006,0.025,0.01
	c0-0.004-0.002-0.006-0.002-0.01C104.536,35.711,104.528,35.711,104.521,35.711z M102.753,26.111
	c0.002,0.022,0.002,0.05,0.002,0.075c0.027-0.01,0.051-0.025,0.074-0.041C102.804,26.133,102.782,26.129,102.753,26.111z
	 M102.739,24.711c0.002,0.001,0.004,0.005,0.006,0.007c0-0.005,0.002-0.008,0.004-0.013
	C102.745,24.707,102.741,24.709,102.739,24.711z M99.97,21.087c0.002,0.001,0.002,0.002,0.004,0.003
	c0.016-0.013,0.029-0.027,0.039-0.043c-0.004-0.004-0.008-0.01-0.012-0.014C99.991,21.051,99.983,21.071,99.97,21.087z
	 M99.55,11.721h0.002v0c0,0,0-0.001-0.002-0.001C99.55,11.72,99.55,11.721,99.55,11.721z M98.731,10.319
	c0.006,0.002,0.01,0.006,0.016,0.008c0-0.005,0-0.01,0-0.014c-0.002,0.002-0.002,0.005-0.006,0.007
	C98.737,10.32,98.735,10.319,98.731,10.319z M96.013,12.404c0.047,0.061,0.094,0.118,0.135,0.173
	C96.11,12.518,96.062,12.46,96.013,12.404L96.013,12.404z M95.595,9.785c0.002,0.002,0.002,0.003,0.004,0.005
	c0.002-0.002,0.002-0.005,0.002-0.007C95.599,9.783,95.597,9.784,95.595,9.785z M92.636,10.031c0.014,0.01,0.023,0.023,0.037,0.034
	c0,0.002,0.002,0.003,0.002,0.005c0.02,0.018,0.027,0.036,0.043,0.055c0.002,0.019-0.004,0.038-0.004,0.058
	c0.008-0.009,0.012-0.02,0.02-0.028c-0.006-0.01-0.008-0.02-0.016-0.029c-0.002-0.007,0-0.015-0.002-0.021
	c-0.016-0.012-0.027-0.027-0.043-0.039c-0.01-0.021-0.018-0.042-0.027-0.064C92.642,10.011,92.64,10.021,92.636,10.031z
	 M88.153,2.535c0.004,0.006,0.012,0.01,0.018,0.015c0-0.005,0-0.01,0.002-0.016C88.167,2.535,88.159,2.535,88.153,2.535z
	 M85.353,0.937c0.002,0.002,0.002,0.003,0.004,0.005c0-0.002,0-0.003,0-0.005C85.356,0.937,85.354,0.937,85.353,0.937z
	 M83.526,7.301c0.002,0.015,0.004,0.028,0.004,0.043c0.008-0.005,0.016-0.007,0.023-0.013C83.546,7.32,83.536,7.313,83.526,7.301z
	 M76.356,3.328c0,0.001,0.002,0.003,0.002,0.004c0.002-0.001,0.002-0.003,0.002-0.004C76.36,3.328,76.358,3.328,76.356,3.328z
	 M100.05,45.423c0.023-0.897,0.119-1.787,0.006-2.668c0.008-0.158-0.035-0.326-0.072-0.486c-0.092-0.854-0.182-1.708-0.271-2.561
	c0.012-0.414,0.035-0.83-0.156-1.219c-0.027-0.729,0.043-1.468-0.232-2.17c-0.031-0.82-0.535-1.465-0.805-2.197
	c-0.34-0.97-0.461-2.027-1.129-2.869c-0.285-0.64-0.279-1.437-1.123-2.006c0.219,0.68,0.375,1.175,0.533,1.672
	c0.311,1.553,0.541,3.127,1.127,4.611c0.012,0.406,0.037,0.811,0.244,1.178c0.055,0.777,0.055,1.566,0.533,2.242h0.004
	c0.076,0.254,0.156,0.508,0.234,0.76c0.029,1.099,0.332,2.144,0.611,3.193C99.493,43.789,99.509,44.659,100.05,45.423z
	 M56.175,60.676c0.291,0.224,0.602,0.407,0.971,0.474c0.549,0.304,1.141,0.477,1.764,0.576c0.152-2.244,0.152-2.245-1.523-2.653
	c-0.182-0.162-0.398-0.171-0.621-0.14c-1.215-0.249-1.217-0.249-1.193,0.961c0.002,0.131,0.027,0.264,0.041,0.396
	C55.692,60.572,55.942,60.612,56.175,60.676z M102.147,123.785c-1.088,0.161-2.154,0.4-3.164,0.875
	C100.149,124.809,101.163,124.356,102.147,123.785z M109.985,34.302c0.178-0.141,0.217-0.328,0.119-0.531
	c-0.113-0.243-0.279-0.199-0.479-0.094c-0.369,0.191-0.771,0.281-1.262,0.266C108.849,34.679,109.36,34.793,109.985,34.302z
	 M124.255,49.574c-0.563-0.211-1.039-0.536-1.641-0.453C123.183,50.4,123.446,50.488,124.255,49.574z M130.112,61.069
	c-0.387,0.206-0.752,0.442-1.008,0.815c-0.484,0.38-1.035,0.681-1.414,1.188c-0.443,0.582-0.234,1.197-0.131,1.944
	c0.322-0.358,0.557-0.62,0.793-0.881c0.643-0.471,0.793-1.315,1.385-1.823c0.205-0.18,0.408-0.36,0.613-0.54
	c0.521-0.437,1.045-0.872,1.566-1.307c0.314-0.056,0.539-0.229,0.641-0.587c-0.211,0.123-0.42,0.248-0.631,0.369
	C131.247,60.355,130.583,60.498,130.112,61.069z M155.073,55.763c0.02,0.272,0.189,0.434,0.412,0.556
	c0.217,0.327,0.432,0.653,0.648,0.979c0.029,0.04,0.063,0.051,0.1,0.048c0.043,0.125,0.117,0.202,0.275,0.143
	c0.283-0.925,0.236-1.8-0.391-2.588c-0.086-0.307-0.287-0.504-0.58-0.615c-0.504-0.531-1.188-0.63-1.857-0.737
	c-0.164-0.026-0.439-0.144-0.49,0.105c-0.027,0.129,0.182,0.308,0.285,0.465C153.778,54.892,154.571,55.185,155.073,55.763z
	 M15.589,49.5c0.203-0.209,0.432-0.373,0.674-0.518c-0.072,0.022-0.15,0.027-0.24,0.003c-0.018-0.021-0.039-0.034-0.059-0.052
	c-0.074,0.295-0.377,0.258-0.586,0.357l-0.1,0.004l-0.096-0.02c-0.342,0.112-0.428,0.322-0.236,0.633
	c0.121,0.375,0.043,0.668-0.336,0.842c-0.105,0.162-0.248,0.201-0.424,0.129c-0.127,0.08-0.258,0.16-0.387,0.239
	c-0.414,0.317-0.938,0.229-1.4,0.369c-0.57,0.226-1.156,0.396-1.771,0.44c-1.082,0.434-2.184-0.14-3.285,0.054
	c-0.354,0.062-0.762,0.095-1.148,0.091c-0.992,0.065-1.898-0.342-2.844-0.533c-0.52-0.084-1.037-0.166-1.557-0.249
	c-0.197-0.005-0.395-0.009-0.592-0.014c-1.236-0.167-1.441-0.633-0.969-2.168c0.109-0.487,0.219-0.976,0.328-1.464
	c0.002,0,0.002,0.001,0.002,0.002c0-0.001,0-0.001,0-0.002c-0.041-0.59,0.574-0.749,0.775-1.18c0.156-0.253,0.313-0.506,0.467-0.758
	c0.232-0.545,0.326-1.278,1.232-0.9c0.34,0.691-0.256,1.142-0.436,1.699c-0.191,0.549-0.383,1.097-0.574,1.644
	c-0.023,0.252-0.047,0.505-0.07,0.758c0.08,0.869,0.811,0.442,1.238,0.619c0.934,0.128,1.867,0.255,2.803,0.384
	c1.201,0,2.377,0.529,3.596,0.181c0.162-0.132,0.34-0.171,0.535-0.077c0.053,0.046,0.084,0.09,0.098,0.134
	c0.191-0.004,0.379-0.009,0.568-0.013c0.246-0.113,0.494-0.226,0.74-0.338c-0.008-0.047,0-0.084-0.012-0.132
	c0.359-0.438,0.773-0.769,1.383-0.73c0.047,0.037,0.094,0.047,0.141,0.063c0.502-0.282,1.006-0.565,1.508-0.848
	c-0.018-0.024-0.037-0.042-0.051-0.068c0.121-0.472,0.58-0.53,0.908-0.748c0.049-0.026,0.092-0.058,0.139-0.085
	c-0.313,0.098-0.594,0.314-0.947,0.276c0,0,0-0.001-0.002,0c0,0,0.002,0,0.002,0c-0.271,0.123-0.545,0.248-0.816,0.371
	c-0.693,0.639-1.566,0.978-2.377,1.416c-0.535,0.422-1.166,0.555-1.818,0.626c-0.225-0.024-0.447-0.05-0.672-0.074
	c1.002-0.259,1.719-1.059,2.691-1.336c0.658-0.276,1.316-0.551,1.973-0.827c0.26-0.137,0.518-0.275,0.775-0.414
	c0.613-0.601,1.414-0.871,2.17-1.223c0.262-0.492,1.086-0.49,1.074-1.225c-0.951,0.546-1.943,0.984-3.018,1.221
	c-0.355,0.098-0.707,0.18-1-0.147c-0.182-0.058-0.207-0.207-0.213-0.367c-0.188-1.043-0.77-0.274-1.188-0.259
	c-0.465,0.112-0.846,0.479-1.361,0.438c-0.064,0.034-0.125,0.054-0.182,0.063c-0.285,0.099-0.57,0.197-0.855,0.296
	c-0.457,0.162-0.916,0.324-1.373,0.488c-0.457,0.385-1.01,0.5-1.582,0.561c-0.502,0.201-1.127,0.16-1.445,0.729
	c-0.203,0.173-0.094,0.524-0.371,0.658c-0.152,0.248-0.391,0.196-0.619,0.176c-1.141-0.187-1.234-0.375-0.992-1.987
	c0.006-0.068,0.01-0.136,0.014-0.206c-0.033-0.681,0.42-1.141,0.754-1.654c0.396-1.195,1.309-1.973,2.219-2.756
	c0.373-0.613,0.912-1.048,1.521-1.408c0.723-0.641,1.57-1.059,2.473-1.375c1.191-0.676,2.42-1.254,3.789-1.462
	c1.094-0.427,2.197-0.822,3.373-0.956c0.422-0.113,0.842-0.226,1.26-0.34c1.305-0.467,2.656-0.479,4.014-0.415
	c0.311,0.015,0.58,0.113,0.768,0.38c0.664,0.41,1.344-0.17,2.014,0.031c0.125-0.001,0.252-0.003,0.379-0.004
	c0.201,0,0.4,0.001,0.602,0.001c0.35-0.03,0.705-0.089,1.008,0.165l-0.008,0.026c0.275,0.059,0.551,0.142,0.83,0.171
	c0.486,0.049,0.813,0.285,0.854,0.773c0.047,0.547-0.234,0.856-0.803,0.871c-0.268,0.188-0.574,0.137-0.873,0.137
	c-0.201,0.063-0.402,0.127-0.604,0.19c-0.195,0.016-0.391,0.03-0.586,0.044c-0.172,0.479-0.293,0.979-0.611,1.395
	c-0.082,0.325-0.166,0.65-0.248,0.978c-0.66,1.626-2.148,2.491-3.332,3.638c-0.199,0.204-0.398,0.408-0.598,0.611
	c-0.98,1.082-2.232,1.798-3.457,2.549c-0.049,0.248-0.248,0.338-0.447,0.426c-0.002,0-0.002,0-0.002,0
	c-0.385,0.608-1.094,0.822-1.584,1.316C15.722,50.234,15.733,49.675,15.589,49.5z M19.401,43.748
	c0.121-0.062,0.242-0.126,0.365-0.187c0.248-0.079,0.455-0.227,0.684-0.398c-0.25-0.001-0.428,0.302-0.682,0.128
	c-0.057,0.076-0.115,0.15-0.174,0.225c-0.021-0.001-0.039,0.003-0.059,0.004C19.499,43.608,19.452,43.681,19.401,43.748z
	 M7.267,45.63c-0.018,0.013-0.035,0.024-0.051,0.036c0.012,0.016,0.008,0.031,0.014,0.047C7.237,45.682,7.255,45.658,7.267,45.63z
	 M18.587,42.28c0.002,0.01,0.002,0.018,0.006,0.028l0.002,0C18.593,42.299,18.589,42.29,18.587,42.28z M17.308,39.768
	c-0.004-0.046,0.002-0.094,0.004-0.141c-0.002,0-0.002,0.002-0.004,0.003C17.286,39.645,17.294,39.701,17.308,39.768z M14.19,38.314
	c0.002,0,0.004,0,0.006,0l-0.002-0.004c0.002,0,0.006,0,0.01,0c-0.004-0.002-0.008-0.003-0.01-0.004c0,0.001,0,0.003,0,0.004
	C14.192,38.312,14.19,38.313,14.19,38.314z M8.55,42.058c-0.008,0-0.014-0.004-0.02-0.005c0.006,0.018,0.01,0.036,0.016,0.052
	C8.544,42.088,8.55,42.075,8.55,42.058z M8.673,44.583c-0.02,0.014-0.037,0.028-0.057,0.042c0.01,0,0.02,0.004,0.029,0.005
	c0.006-0.01,0.008-0.02,0.014-0.03C8.663,44.594,8.669,44.589,8.673,44.583z M15.134,42.007c0.939-0.894,2.002-1.556,3.264-1.843
	c-0.146-0.05-0.289-0.104-0.408-0.209c0.018-0.032,0.031-0.055,0.049-0.085c-0.016,0.016-0.029,0.024-0.045,0.041
	c-0.186,0.11-0.365,0.246-0.604,0.185c-0.633,0.31-1.311,0.466-1.998,0.584c-0.268,0.072-0.535,0.145-0.803,0.218
	c-0.301,0.214-0.635,0.341-1,0.391c-0.045,0.036-0.094,0.053-0.152,0.046v0c0,0.001,0,0.001,0,0.002
	c-0.4,0.196-0.803,0.394-1.205,0.59c-0.102,0.155-0.258,0.191-0.43,0.195c-0.205,0.113-0.412,0.226-0.619,0.338
	c-0.178,0.1-0.357,0.201-0.535,0.303c-0.408,0.328-0.816,0.658-1.227,0.988c-0.059,0.124-0.139,0.226-0.219,0.326
	c0.125-0.072,0.264-0.128,0.43-0.141c0.641-0.235,1.305-0.574,1.709,0.293c0.004-0.001,0.008-0.005,0.014-0.007
	c0.098,0.006,0.172,0.049,0.223,0.129c0.01-0.033,0.004-0.059,0.016-0.094c0.385-0.254,0.836-0.263,1.268-0.345
	c0.043,0.008,0.086,0.017,0.129,0.023c0.082-0.24,0.273-0.379,0.523-0.461c-0.004-0.016-0.002-0.026-0.006-0.043
	c0.08-0.25,0.223-0.414,0.516-0.373c0.006,0.004,0.01,0.008,0.016,0.012c0.369-0.301,0.74-0.602,1.111-0.902
	C15.144,42.115,15.151,42.063,15.134,42.007z M17.179,48.524c0.006,0,0.012,0,0.018,0c-0.006-0.005-0.012-0.009-0.018-0.015
	C17.181,48.514,17.179,48.519,17.179,48.524z M16.339,48.934c0.252-0.145,0.518-0.267,0.783-0.39
	c-0.195,0.054-0.393,0.107-0.59,0.16c-0.016,0.034-0.039,0.064-0.053,0.098C16.442,48.869,16.39,48.9,16.339,48.934z M78.372,7.294
	c-0.449-0.29-0.934-0.158-1.529-0.135c0.357,0.209,0.615,0.369,0.945,0.346c0.895,0.279,1.787,0.561,2.682,0.841
	C79.854,7.787,79.163,7.428,78.372,7.294z M52.757,112.261c0.016,0.171-0.021,0.322-0.168,0.43c0.084,0.947,0.084,0.947-0.656,0.657
	c-0.273-0.151-0.373-0.406-0.445-0.696c-0.172-0.672-0.346-0.028-0.52,0.007c-0.82,0.671-1.168,0.636-1.816-0.183
	c-0.445-0.377-0.816-0.809-0.992-1.381c-0.123-0.131-0.244-0.264-0.365-0.395c-0.002-0.002-0.002-0.002-0.002-0.004
	c0,0.002,0,0.002,0,0.004c-0.557,0.174-0.744-0.533-0.693-0.569c0.713-0.497,0.027-0.863-0.074-1.272
	c-0.457-0.58-0.424-1.32-0.643-1.979c-0.27-0.663-0.541-1.328-0.811-1.992c-0.045-0.06-0.068-0.123-0.086-0.189
	c-0.451-0.968-0.836-1.971-1.508-2.822c-0.074-0.121-0.148-0.243-0.223-0.363c0,0,0.002,0,0.002-0.001
	c-0.459-0.72-0.916-1.44-1.379-2.158c-0.117-0.183-0.205-0.458-0.514-0.301c-0.322,0.162,0,0.41-0.064,0.61
	c0.166,0.182,0.246,0.385,0.109,0.746c-0.123-0.23-0.211-0.396-0.301-0.564c-0.16-0.379-0.324-0.756-0.484-1.135
	c-0.516-0.73-1-1.477-1.174-2.376c-0.514-0.6-0.83-1.317-1.188-2.011c-0.641-0.896-0.834-2.004-1.398-2.936
	c-0.164-0.271-0.176-0.663-0.58-0.749c-0.314-0.037-0.336-0.31-0.424-0.528c-0.463-0.521-0.648-1.158-0.76-1.824
	c-0.836-1.25-1.523-2.572-1.969-4.015c-0.438-0.99-0.715-2.052-1.32-2.969c-0.135-0.171-0.275-0.34-0.406-0.513
	c0.049,0.141,0.1,0.28,0.17,0.406c-0.008,0.036-0.008,0.071-0.014,0.107c0.02,0.001,0.039,0.012,0.061,0.006
	c0.084,0.394,0.17,0.787,0.256,1.181v0.004c0.609,1.229,1.158,2.484,1.609,3.781c0.375,0.547,0.598,1.164,0.811,1.784
	c0.188,0.21,0.369,0.425,0.355,0.755c-0.281-0.041-0.344-0.237-0.391-0.447c-0.457-0.561-0.68-1.239-0.965-1.887
	c-0.836-1.009-1.141-2.293-1.764-3.412c-0.445-0.708-1.047-1.325-1.254-2.171c-0.199-0.403-0.4-0.806-0.6-1.206
	c-0.074-0.123-0.148-0.246-0.221-0.367c-0.221-0.217-0.338-0.485-0.393-0.783c-0.359-0.355-0.582-0.789-0.734-1.266
	c-0.283-0.5-0.523-1.018-0.652-1.581c-0.213-0.218-0.34-0.479-0.404-0.774c-0.463-1.145-0.926-2.289-1.387-3.434
	c-0.762-1.533-1.734-2.97-2.139-4.665c-0.07-0.302-0.203-0.551-0.418-0.771c-1.488-1.516-2.213-3.506-3.277-5.283
	c-0.324-0.662-1.146-1.145-0.76-2.067c0.336-1.044-0.771-1.384-1.035-2.134c-0.336-0.276-0.662-0.559-0.555-1.064
	c0.051-0.754-0.9-0.441-1.047-0.983c-0.402-0.677-0.814-1.349-1.203-2.034c-0.232-0.41-0.264-0.701,0.363-0.817
	c0.508-0.093,0.98-0.384,1.467-0.587c0.527,0.111,0.438,0.639,0.646,0.963c0.527,0.624,0.639,1.547,1.527,2.045
	c-0.164-0.979-0.508-1.779-1.08-2.502c-0.172-0.217-0.521-0.432-0.389-0.744c0.098-0.229,0.434-0.279,0.703-0.274
	c0.381,0.005,0.592,0.224,0.713,0.577c0.207,0.593,0.438,1.178,0.658,1.766c0.365,1.213,0.988,2.304,1.586,3.407
	c0.143,0.274,0.287,0.55,0.43,0.825c0.559,0.367,0.602,0.942,0.625,1.527c0.141,0.136,0.281,0.271,0.422,0.405
	c0.727,0.689,1.281,1.507,1.779,2.364c0.279,0.209,0.469,0.486,0.619,0.795c0.123,0.154,0.246,0.307,0.369,0.458
	c2.068,2.35,3.584,5.082,5.332,7.655c0.467,0.686,0.49,1.095-0.383,1.321c0.021,0.202,0.043,0.405,0.066,0.608
	c0.191,0.076,0.385,0.153,0.576,0.23c0.746,0.204,1.547,0.318,1.9,1.164c0.338,0.955,1.191,1.561,1.662,2.426
	c0.289,0.341,0.512,0.721,0.658,1.145c0.254,0.484,0.508,0.969,0.762,1.452c0.209,0.32,0.418,0.642,0.629,0.962
	c0.402,0.6,0.822,1.187,1.207,1.797c1.082,1.723,2.148,3.455,3.221,5.184c0.826,0.528,1.102,1.442,1.561,2.229
	c0.469,0.596,0.938,1.191,1.408,1.788c0.109,0.146,0.217,0.292,0.326,0.437c0.301,0.459,0.604,0.916,0.904,1.375
	c0.051,0.07,0.102,0.143,0.152,0.215c0.174,0.172,0.354,0.341,0.398,0.6c0.139,0.1,0.24,0.218,0.188,0.404
	c0.639,0.804,1.17,1.674,1.629,2.588c0.381,0.537,0.762,1.076,1.143,1.613c0.305,0.445,0.627,0.881,0.787,1.406
	c0.262,0.373,0.523,0.744,0.781,1.119c0.229,0.334,0.463,0.703,0.025,1.018c-0.416,0.299-0.725,0.026-0.971-0.316
	c-0.563-0.294-1.02-0.709-1.391-1.221c-0.199-0.203-0.396-0.408-0.594-0.611c-0.346,0.117-0.1,0.38-0.139,0.571
	c0.277,0.487-0.014,0.81-0.377,1.017c-0.402,0.23-0.736,0.047-0.932-0.369c-0.057-0.061-0.113-0.12-0.172-0.182
	c-0.254-0.268-0.508-0.536-0.762-0.805c-0.01,0.189-0.018,0.379-0.025,0.568c-0.057,0.342,0.313,0.502,0.342,0.805
	c0.291,0.728,0.582,1.453,0.873,2.18c0.088,0.192,0.172,0.386,0.258,0.578c0.277,0.385,0.613,0.732,0.75,1.205
	c0.139,0.254,0.277,0.508,0.414,0.762c0.131,0.219,0.262,0.437,0.391,0.656c0.053,0.003,0.104,0.003,0.156,0
	c0.07-0.273-0.105-0.607,0.205-0.819c0.865-0.187,0.768-0.993,1.016-1.576c0.127-0.421,1.186,0.094,0.682-0.874
	c0.455,0.132,0.594,0.391,0.744,0.637c0.328,0.209,0.131,0.549,0.199,0.822c0.652,0.517,1.135,1.158,1.424,1.943
	c0.297,0.437,0.527,0.898,0.576,1.434c0.186,0.191,0.17,0.422,0.127,0.659c0.186,0.935,0,1.759-0.717,2.429
	C53.188,111.368,52.974,111.814,52.757,112.261z M26.138,68.687c-0.033-0.005-0.064-0.005-0.09,0.004
	c0.027,0.002,0.057,0.003,0.09,0.002C26.138,68.69,26.138,68.688,26.138,68.687z M36.276,88.244
	c-0.01-0.028-0.023-0.054-0.041-0.079c-0.002,0.002-0.006,0.004-0.008,0.006C36.243,88.195,36.259,88.22,36.276,88.244z
	 M36.286,84.911c-0.555-0.888-1.125-1.767-1.354-2.821c0.016-0.015,0.021-0.035,0.035-0.051c-0.316-0.398-0.635-0.797-0.951-1.196
	c-0.137-0.813-0.809-1.303-1.186-1.972c-0.168-0.15-0.295-0.326-0.307-0.563c-0.061-0.134-0.119-0.27-0.18-0.405
	c-0.523-0.439-0.908-0.98-1.188-1.6c-0.264-0.297-0.521-0.598-0.641-0.988c-0.463-0.456-0.805-0.993-1.066-1.583
	c-0.016,0.008-0.027,0.013-0.045,0.021c-0.471-1.013-0.883-2.058-1.586-2.944c-0.068-0.269-0.158-0.528-0.295-0.748
	c0.057,0.207,0.262,0.408,0.123,0.67c0.111,0.037,0.197,0.107,0.258,0.212c0.633,1.074,0.908,2.297,1.406,3.427
	c0.002,0.09-0.014,0.174-0.033,0.258c0.492,0.697,0.719,1.517,1.053,2.288c0.004,0.001,0.006,0.004,0.008,0.006
	c0.07,0.063,0.129,0.139,0.174,0.221c0.031,0.086,0.051,0.177,0.068,0.269c0.271,0.495,0.543,0.989,0.813,1.483
	c-0.125-0.027-0.219-0.13-0.33-0.191c0.041,0.11,0.051,0.223,0.014,0.339c-0.033,0.047-0.074,0.068-0.109,0.103
	c0.016,0.04,0.033,0.08,0.025,0.124c0.182,0.152,0.188,0.365,0.209,0.574c0.084,0.033,0.158,0.072,0.221,0.12
	c-0.113-0.309-0.154-0.646-0.068-1.035c0.186-0.113,0.338-0.016,0.414,0.129c0.689,1.322,1.693,2.467,2.213,3.885
	c0.018,0.131,0.006,0.274,0.027,0.405c0.018,0.035,0.027,0.076,0.041,0.114c0.037,0.089,0.094,0.17,0.215,0.228
	c0.104,0.155,0.199,0.313,0.137,0.495c0.02,0.01,0.039,0.021,0.061,0.031c0.283,0.234,0.402,0.578,0.588,0.879
	c0.148,0.242,0.314,0.433,0.605,0.17C35.952,84.994,36.14,84.872,36.286,84.911z M36.87,85.896
	c-0.025-0.047-0.053-0.094-0.078-0.142c-0.039-0.072-0.086-0.141-0.127-0.212c0.023,0.075,0.047,0.147,0.074,0.237
	c0.002,0.023-0.004,0.044-0.002,0.067C36.784,85.848,36.827,85.863,36.87,85.896z M37.405,83.243
	c-0.02-0.042-0.029-0.091-0.043-0.136C37.288,83.123,37.267,83.159,37.405,83.243z M38.397,88.357
	c-0.063-0.528-0.711-0.814-0.598-1.393c-0.021-0.003-0.037,0-0.061-0.004c-0.191-0.119-0.338-0.271-0.469-0.438
	c0.031,0.106,0.053,0.218,0.051,0.34c-0.006,0.053-0.012,0.106-0.02,0.16c0.143,0.269,0.285,0.538,0.426,0.807
	c0.031,0.006,0.057,0.015,0.092,0.018c0.055,0.062,0.09,0.131,0.119,0.206C38.11,88.109,38.218,88.283,38.397,88.357z
	 M39.128,91.531c-0.016,0.008-0.033,0.009-0.049,0.018c0.02,0.018,0.031,0.037,0.049,0.054
	C39.128,91.579,39.126,91.552,39.128,91.531z M40.374,95.871c-0.006,0-0.012,0.002-0.02,0.004c0.008,0.002,0.012,0.002,0.02,0.006
	C40.376,95.876,40.374,95.875,40.374,95.871z M41.179,96.486c-0.002-0.002-0.002-0.004-0.004-0.005c0,0.001,0,0.003,0,0.005
	C41.177,96.486,41.177,96.486,41.179,96.486z M41.501,93.918c0-0.008-0.002-0.015-0.002-0.022c-0.006,0.002-0.012,0.005-0.018,0.008
	C41.489,93.909,41.495,93.914,41.501,93.918z M41.981,89.281c0.006-0.004,0.014-0.009,0.02-0.013c-0.006-0.001-0.012,0-0.02-0.001
	V89.281z M45.29,100.601c-0.561-0.496-0.725-1.098-0.498-1.806c-0.029-0.034-0.061-0.065-0.088-0.101
	c-0.072-0.197-0.023-0.366,0.111-0.516c0.035-0.032,0.043-0.053,0.066-0.08c-0.037-0.105-0.074-0.211-0.111-0.317
	c-0.043-0.01-0.082-0.021-0.133-0.026c-0.473-0.287-0.83-0.642-0.729-1.259c0.004-0.002,0.008-0.003,0.012-0.005
	c-0.002,0-0.004,0-0.006,0c-0.453,0.001-0.543-0.399-0.742-0.678c-0.338-0.469-0.533-1.057-1.113-1.318
	c-0.006-0.006-0.008-0.011-0.014-0.018c-0.359,0.461,0.059,0.922,0.174,1.384c0.381,0.501,0.703,1.036,0.947,1.619
	c0.178,0.215,0.33,0.444,0.393,0.719c0.045,0.001,0.084,0.013,0.131,0.007c0.715,0.652,1.123,1.457,1.203,2.424
	c-0.004,0.01-0.01,0.017-0.016,0.026c0.051,0.001,0.1,0.007,0.109-0.005C45.075,100.543,45.319,101.189,45.29,100.601z
	 M45.612,92.488c-0.014,0-0.029,0-0.043,0.001c0.014,0.015,0.018,0.029,0.029,0.044C45.603,92.517,45.606,92.501,45.612,92.488z
	 M47.005,105.331c0-0.024,0-0.048,0-0.073c-0.018,0.013-0.031,0.022-0.049,0.035C46.972,105.306,46.991,105.317,47.005,105.331z
	 M49.587,109.761c0,0-0.002,0.001-0.002,0.002c0,0,0,0,0,0.001C49.585,109.763,49.587,109.762,49.587,109.761z M49.778,105.677
	c-0.002-0.001-0.004-0.001-0.004-0.002c0,0.001,0,0.002,0,0.002S49.776,105.677,49.778,105.677z M50.815,108.166
	c-0.053-0.012-0.105-0.02-0.166-0.014c0.004,0.098,0.02,0.197,0.037,0.297C50.729,108.324,50.771,108.228,50.815,108.166z
	 M46.751,51.287c0.299,0,0.535-0.018,0.422-0.564c-0.045-0.123-0.059-0.551-0.381-0.535c-0.354,0.015-0.42,0.434-0.467,0.757
	C46.276,51.29,46.495,51.287,46.751,51.287z M112.077,44.642c0.393-0.054,0.168-0.423,0.258-0.692
	c-0.131-0.155,0.15-0.593-0.271-0.569c-0.377,0.02-0.32,0.435-0.34,0.718C111.704,44.361,111.683,44.697,112.077,44.642z
	 M114.938,59.898c-0.531-0.059-0.98,0.188-1.441,0.385C114.429,60.707,114.825,60.601,114.938,59.898z M127.034,97.542
	c-0.086,0.082-0.172,0.166-0.26,0.248c-0.014-0.004-0.023-0.02-0.039-0.021c-0.086,0.008-0.148,0.052-0.193,0.124
	c-0.443,0.723-0.102,1.464-0.156,2.207c0.496-0.046,0.465-0.502,0.74-0.659c0.83-0.498,1.109-1.431,1.686-2.13
	c0.252-0.324,0.504-0.649,0.756-0.974c0.316-0.367,0.633-0.734,0.949-1.1c0.781-0.224,1.07-0.918,1.453-1.521
	c0.787-0.624,1.887-0.818,2.389-1.852c-0.811,0.534-1.619,1.067-2.43,1.601c-0.557,0.321-1.113,0.644-1.672,0.967
	c-0.561,0.269-1.119,0.54-1.512,1.052c-0.377,0.363-0.758,0.723-1.014,1.188c-0.135,0.135-0.271,0.269-0.406,0.403
	C127.126,97.166,127.021,97.319,127.034,97.542z M56.534,107.207c-0.102,0.875,0.449,1.408,0.539,2.059
	C57.251,108.53,57.151,107.875,56.534,107.207z M127.206,62.148c0.541-0.268,0.914-0.496,1.232-1.078
	C127.653,61.185,127.296,61.434,127.206,62.148z M151.101,60.109c-0.398-0.354-0.871-0.445-1.385-0.391
	c-0.156,0.005-0.363-0.049-0.459,0.031c-0.137,0.113,0.064,0.197,0.143,0.266c0.297,0.25,0.605,0.484,0.908,0.725
	c0.139,0.184,0.275,0.367,0.414,0.551c0.072,0.129,0.145,0.256,0.217,0.385c0.127,0.259,0.186,0.564,0.557,0.781
	c-0.076-0.305-0.133-0.541-0.193-0.777c0.016-0.049,0.033-0.099,0.051-0.148c0.42-0.123,0.689,0.125,0.955,0.384
	c0.203,0.259,0.408,0.519,0.611,0.778c0.189,0.384,0.494,0.604,0.924,0.648c0.068-0.307,0.016-0.582-0.113-0.849
	c0.039-0.304-0.115-0.545-0.26-0.788c0.016-0.069,0.033-0.137,0.051-0.207c-0.762-0.538-1.502-1.106-2.412-1.384L151.101,60.109z
	 M106.157,122.453c-0.922,0.109-1.748,0.52-2.594,0.858c-0.291,0.179-0.717,0.077-0.988,0.538c0.438-0.111,0.814-0.207,1.184-0.302
	c0.074-0.01,0.156-0.04,0.232-0.06c0.787,0.016,1.457-0.366,2.162-0.633c0.42-0.287,1.072-0.119,1.424-0.735
	C106.999,122.029,106.579,122.24,106.157,122.453z M116.815,62.338c0.412-0.171,0.256-0.368-0.078-0.483
	c-0.375,0.235-0.855,0.279-1.162,0.637l0.094-0.009l0.084,0.044C116.11,62.468,116.489,62.474,116.815,62.338z M59.724,123.388
	c0.617-0.019,1.193,0.23,2.002,0.256C61.015,123.152,60.374,123.236,59.724,123.388z M98.931,124.669c0.01,0,0.021,0.001,0.031,0
	c0.008-0.004,0.016-0.006,0.021-0.01c-0.01-0.001-0.02,0-0.029-0.002C98.946,124.663,98.938,124.666,98.931,124.669z M97.38,125.1
	c0.68-0.124,1.143-0.17,1.551-0.431C98.466,124.693,97.952,124.518,97.38,125.1z M113.731,56.499
	c-0.238,0.233-0.168,0.526-0.148,0.808c-0.004,0.13-0.01,0.26-0.014,0.389c0.105,1.083,0.666,0.152,1,0.225
	c0.453-0.057,0.809-0.313,1.195-0.524c-0.201-0.397-0.67-0.171-0.846-0.488c0-0.28-0.01-0.556-0.391-0.579
	C114.261,56.375,113.921,56.083,113.731,56.499z M129.724,103.617c-0.504,0.322-0.898,0.751-1.258,1.219
	c-0.137,0.139-0.273,0.277-0.41,0.415c-0.502,0.822-1.004,1.646-1.506,2.466c0.074,0.045,0.148,0.088,0.221,0.131
	c0.666-0.844,1.51-1.54,2.025-2.512c0.322-0.474,0.643-0.945,0.965-1.42c0.244-0.203,0.488-0.406,0.547-0.777
	C129.96,103.165,129.847,103.399,129.724,103.617z M56.005,109.411c-0.254-0.178-0.201-0.475-0.279-0.719
	c-0.111-0.343-0.107-0.753-0.541-0.946c-0.061,0.481-0.055,0.922,0.193,1.328c0.008,0.064,0.016,0.13,0.023,0.194
	c0.002,0.334,0.004,0.667,0.006,1.001c0.014,0.416-0.467,0.809-0.059,1.242c0.082,0.478,0.164,0.955,0.281,1.627
	c0.291-0.938,0.43-1.688,0.34-2.467l0.025,0.021C56.192,110.267,56.271,109.838,56.005,109.411z M71.733,124.871
	c0.342,0,0.682,0,1.023,0C72.45,124.513,72.089,124.684,71.733,124.871z M72.757,124.871c0.004,0.006,0.01,0.006,0.014,0.011
	c0.002,0,0.004,0,0.006,0c0-0.005,0.002-0.006,0-0.011C72.771,124.871,72.763,124.871,72.757,124.871z M113.448,55.192
	c0.02-0.021-0.023-0.151-0.057-0.163c-0.205-0.066-0.381-0.004-0.619,0.275C113.091,55.283,113.29,55.367,113.448,55.192z
	 M90.308,54.531c-0.301,0.004-0.602,0.007-0.902,0.009C89.708,54.803,90.009,54.771,90.308,54.531z M107.745,50.105
	c-0.002-0.001-0.002-0.001-0.002-0.002c0,0,0,0-0.002,0.001c0,0,0,0,0,0.001C107.743,50.105,107.743,50.105,107.745,50.105z" class="color c1"/>
</svg>