<svg version="1.1" id="图层_1" x="0px" y="0px" width="26.876px" height="101.914px" viewBox="0 0 26.876 101.914" enable-background="new 0 0 26.876 101.914" xml:space="preserve" xmlns="http://www.w3.org/2000/svg" xmlns:xlink="http://www.w3.org/1999/xlink" xmlns:xml="http://www.w3.org/XML/1998/namespace">
  <polygon fill="#F3C92E" points="0,93.273 0.473,93.263 0.945,93.251 1.406,93.217 1.868,93.183 2.33,93.128 2.778,93.06 
	3.238,92.993 3.679,92.903 4.127,92.8 4.568,92.7 5.006,92.587 5.433,92.453 5.859,92.318 6.278,92.171 6.691,92.013 7.109,91.843 
	7.515,91.664 7.919,91.474 8.311,91.283 8.696,91.08 9.091,90.865 9.459,90.642 9.832,90.404 10.205,90.169 10.565,89.921 
	10.912,89.663 11.263,89.392 11.596,89.123 11.938,88.841 12.263,88.548 12.577,88.245 12.892,87.941 13.194,87.626 13.5,87.312 
	13.792,86.986 14.073,86.647 14.342,86.31 14.615,85.961 14.872,85.601 15.12,85.242 15.357,84.871 15.591,84.499 15.815,84.116 
	16.03,83.734 16.231,83.339 16.436,82.946 16.628,82.541 16.796,82.136 16.965,81.72 17.122,81.303 17.28,80.888 17.415,80.459 
	17.538,80.021 17.66,79.593 17.764,79.143 17.866,78.705 17.943,78.255 18.022,77.804 18.089,77.342 18.134,76.882 18.179,76.421 
	18.214,75.96 18.226,75.487 18.236,75.015 18.247,75.015 18.247,74.115 18.247,71.899 18.247,68.524 18.247,64.17 18.247,59.017 
	18.261,53.246 18.261,47.036 18.261,40.567 18.261,34.009 18.261,27.55 18.261,21.363 18.261,15.626 18.261,10.529 18.261,6.232 
	18.261,2.925 18.247,0.787 18.247,0 26.854,0 26.864,0.787 26.864,2.925 26.864,6.232 26.864,10.519 26.864,15.626 26.864,21.353 
	26.864,27.54 26.864,33.997 26.864,40.545 26.864,47.024 26.864,53.235 26.864,58.996 26.854,64.148 26.854,68.511 26.854,71.886 
	26.854,74.115 26.854,75.015 26.876,75.015 26.864,75.712 26.843,76.398 26.796,77.085 26.729,77.759 26.663,78.435 26.562,79.111 
	26.449,79.773 26.323,80.425 26.191,81.079 26.032,81.731 25.85,82.373 25.661,83.003 25.459,83.632 25.243,84.25 25.008,84.871 
	24.762,85.477 24.501,86.074 24.222,86.659 23.94,87.244 23.637,87.817 23.309,88.39 22.984,88.955 22.646,89.494 22.286,90.044 
	21.914,90.574 21.531,91.091 21.139,91.609 20.733,92.115 20.317,92.599 19.89,93.082 19.451,93.555 19.001,94.015 18.538,94.476 
	18.068,94.916 17.584,95.344 17.089,95.759 16.595,96.166 16.074,96.558 15.559,96.942 15.019,97.314 14.477,97.672 13.928,98.009 
	13.375,98.347 12.803,98.663 12.23,98.966 11.646,99.258 11.058,99.529 10.449,99.799 9.843,100.046 9.235,100.283 8.617,100.498 
	7.987,100.699 7.356,100.89 6.717,101.07 6.063,101.228 5.413,101.362 4.758,101.498 4.096,101.598 3.421,101.7 2.743,101.78 
	2.067,101.833 1.385,101.88 0.697,101.903 0,101.914 " class="color c1"/>
</svg>