<svg version="1.1" id="图层_1" x="0px" y="0px" width="140.368px" height="117.815px" viewBox="0 0 140.368 117.815" enable-background="new 0 0 140.368 117.815" xml:space="preserve" xmlns="http://www.w3.org/2000/svg" xmlns:xlink="http://www.w3.org/1999/xlink" xmlns:xml="http://www.w3.org/XML/1998/namespace">
  <path fill="#FFFFFF" d="M15.611,9.15c0.109,0.277,0.391,0.586,0.936,0.926c1.967,1.069,4.725,2.48,6.979,3.297
	c0.409,0.128,0.817,0.254,1.229,0.368c0.814,0.226,1.997,0.574,2.488-0.126c0.117-0.167,0.195-0.393,0.221-0.693
	c0.171-2.115,1.824-2.706,3.834-2.916c6.637-0.692,13.268-1.508,19.932-1.92c5.833-0.36,11.66-0.521,17.479-0.494
	c5.818-0.026,11.646,0.134,17.479,0.494c6.665,0.412,13.296,1.228,19.933,1.92c2.01,0.21,3.662,0.801,3.834,2.916
	c0.023,0.301,0.102,0.526,0.221,0.693c0.49,0.7,1.674,0.352,2.486,0.126c0.412-0.114,0.821-0.24,1.229-0.368
	c2.254-0.816,5.012-2.228,6.979-3.297c0.545-0.34,0.828-0.648,0.938-0.926c0.018-0.01,0.037-0.02,0.057-0.027
	c-0.016-0.006-0.029-0.011-0.045-0.017c0.272-0.81-0.943-1.334-1.369-1.489C106.03,2.833,88.925,0.043,70.568,0
	c-0.582,0-1.164,0.001-1.746,0.006c-0.037,0-0.076,0-0.113,0.001c-0.037-0.001-0.074-0.001-0.113-0.001
	C68.014,0.001,67.432,0,66.85,0C48.494,0.043,31.389,2.833,16.969,7.617c-0.426,0.155-1.641,0.68-1.369,1.489
	c-0.016,0.006-0.031,0.011-0.045,0.017C15.572,9.131,15.594,9.141,15.611,9.15z" class="color c1"/>
  <path fill="#FFFFFF" d="M127.33,41.359c8.662,7.498,9.699,14.258,3.684,24.216c-0.752,1.242-1.561,2.46-2.459,3.597
	c-9.027,11.394-20.856,19.019-33.601,25.372l-0.002,0.003c-0.869,0.472-1.744,0.907-2.618,1.35
	c-2.246-1.726-4.706-3.344-7.415-4.839c-3.495-1.928-6.796-4.135-9.988-6.406c-5.097-3.626-5.081-6.665,0.069-10.32
	c3.264-2.316,6.682-4.5,10.208-6.53c9.971-5.738,17.471-12.882,20.771-22.532c4.025,0.669,7.903,1.896,11.487,4.161
	c5.633,3.562,7.396,9.139,4.99,15.34c-0.412,1.055-0.902,2.081-1.607,3.708c9.574-10.057,7.363-21.937-4.795-26.704
	c-2.73-1.07-5.62-1.873-8.554-2.454c1.637-8.159,2.062-16.361,1.231-24.649c-0.211-2.096-1.062-2.703-3.385-2.832
	c-7.865-0.441-15.711-1.158-23.579-1.517c-16.32-0.743-32.579,0.171-48.807,1.602c-1.631,0.145-2.432,0.656-2.404,2.186
	c0.111,6.496-0.246,13.008,0.188,19.486c0.502,7.494,2.736,14.172,6.764,19.99c-5.316,2.986-10.368,6.475-15.065,10.627
	c-4.452,3.938-8.349,8.358-10.249,14.148C9.641,86.134,13.5,93.569,21.26,96.008c-6.674-6.453-7.213-11.969-1.902-19.76
	c0.664-0.971,1.373-1.92,2.152-2.799c5.707-6.444,12.539-11.188,19.938-15.062c3.635,3.818,8.186,7.195,13.709,10.097
	c3.242,1.704,6.203,3.817,9.125,5.906c5.068,3.622,5.051,6.686-0.099,10.323c-3.203,2.263-6.52,4.439-9.992,6.404
	c-8.827,4.993-15.512,11.128-19.369,18.881l-0.001,0c-7.957,0.081-15.768-0.764-22.869-4.726
	c-7.182-4.005-9.733-10.755-7.186-18.559c0.433-1.329,0.968-2.626,1.729-4.679c-11.116,13.041-7.586,27.528,7.717,32.576
	c6.002,1.979,12.547,2.951,18.883,3.154c16.184,0.516,31.775-3.08,46.913-8.567c17.812-6.456,34.378-15.114,48.025-28.585
	c5.219-5.152,9.717-10.864,11.668-18.127C142.316,52.736,137.059,43.837,127.33,41.359z M69.111,103.275c0-2.375,0-8.455,0-10.828
	c0.156,0,0.312,0,0.469,0c0,2.373,0,8.455,0,10.828C69.424,103.275,69.268,103.275,69.111,103.275z M62.368,69.436
	c-4.653-2.848-9.442-5.63-13.593-8.946c-1.483-1.186-2.871-2.417-4.17-3.69c-1.554-1.522-2.973-3.106-4.234-4.76
	c-3.794-4.969-6.213-10.541-6.869-16.809c-1.062-13.303,3.683-18.608,3.683-18.608l-0.393,4.935
	c-0.001,0.164-0.002,0.334-0.003,0.523c-0.064,9.092,1.734,17.88,5.938,26.31c0.309,0.618,0.683,1.267,1.094,1.928
	c1.021,1.643,2.321,3.385,3.771,5.084c3.326,3.9,7.394,7.562,10.455,9.193c-2.85-3.229-5.657-6.647-8.184-10.197
	c-1.229-1.725-2.393-3.48-3.456-5.264c-3.13-5.248-5.429-10.722-6.147-16.273c2.557,0,4.926-0.247,7.196,0.045
	c8.142,1.047,16.188,0.762,24.31-0.305c10.215-1.341,19.628,0.701,28.192,5.535c0.117,0.065,0.219,0.134,0.328,0.199
	c1.341,0.82,2.103,1.73,1.923,3.071c-0.003,0.021-0.004,0.042-0.007,0.063c-0.025,0.104-0.067,0.277-0.121,0.508
	c-0.298,1.246-0.955,3.996-1.092,4.584c0.276-0.602,0.531-1.204,0.773-1.81c0.797-2.001,1.414-4.023,1.912-6.062
	c1.723-7.044,1.953-14.283,2.662-21.501c0.07,0.528,0.149,1.057,0.223,1.586c0.129,1.475,0.2,4.06-0.168,8.048
	c-0.46,4.017-0.872,8.042-1.498,12.034c-0.273,1.741-0.59,3.477-0.967,5.201c-0.066,0.301-0.154,0.592-0.232,0.887
	c-2.189,8.205-9.17,13.936-16.659,19.142c-3.556,2.472-7.447,4.622-11.303,6.773c-3.938,2.195-5.599,5.222-5.647,9.087
	c-0.037,2.971-0.341,5.938-0.525,8.908c-0.121-0.003-0.243-0.007-0.364-0.01c0-2.771-0.168-5.553,0.039-8.312
	C69.598,75.637,66.924,72.223,62.368,69.436z M56.486,92.51c-2.927,1.277-5.31,3.221-6.963,5.631
	c-0.332,0.482-0.896,0.956-1.499,1.167c-3.632,1.262-5.848,3.686-7.618,6.501C41.917,101.438,50.664,94.834,56.486,92.51z" class="color c1"/>
</svg>