<svg version="1.1" id="图层_1" x="0px" y="0px" width="200.611px" height="194.583px" viewBox="0 0 200.611 194.583" enable-background="new 0 0 200.611 194.583" xml:space="preserve" xmlns="http://www.w3.org/2000/svg" xmlns:xlink="http://www.w3.org/1999/xlink" xmlns:xml="http://www.w3.org/XML/1998/namespace">
  <path fill="#C12056" d="M124.521,107.929c-4.451,12.48-17.783,17.783-26.908,21.389c-0.006-0.008,0-0.02-0.004-0.033
	c0,0.016-0.006,0.016-0.006,0.033c-10.326-5.906-20.82-13.404-24.523-25.684c-6.283-20.84,19.221-30.871,27.227-16.426
	C112.596,75.492,131.354,88.771,124.521,107.929z M30.641,71.699l-20.01-28.785c0,0-13.68,13.336-4.916,25.623
	C14.496,80.822,30.641,71.699,30.641,71.699z M42.07,27.88c0.01-0.015,2.389-2.025,5.492-2.692
	c5.453-1.171,9.762,0.899,12.832,6.125c2.748,4.694,2.74,10.769,2.732,18.462c-0.006,6.131-0.865,7.484,0.086,13.994
	c0.908,6.211,5.596,14.264,8.965,19.213c0,0,1.988-2.977,4.742-4.459c2.721-1.463,5.965-1.984,5.965-1.984
	c-2.115-1.943-5.514-5.797-6.086-9.719c-0.887-6.133-0.883-11.672-0.877-17.027c0.006-8.871,0.016-17.244-4.494-24.944
	c-5.199-8.888-12.172-11.851-17.959-12.563L45.553,0v12.555c-0.221,0.043-0.463,0.087-0.668,0.13
	c-6.393,1.363-10.811,5.195-11.295,5.628c-2.617,2.337-2.84,6.323-0.523,8.959C35.379,29.906,39.396,30.171,42.07,27.88z
	 M61.27,2.107l-3.08,7.717l6.162,2.274L61.27,2.107z M169.805,89.505c7.865,3.615,6.668,15.271,6.668,15.271l22.115-8.26
	c0,0-14.293-23.754-33.699-23.754c-14.035,0-22.113,10.422-22.113,10.422l12.992,9.559
	C155.768,92.744,159.822,84.919,169.805,89.505z M196.309,139.324c-3.869-2.027-8.688-0.527-10.764,3.324
	c-0.037,0.064-3,5.34-10.859,11.764l-16.814-29.805c0,0-0.545-17.486-4.906-25.975c-6.332-12.285-25.512-12.885-25.512-12.885
	s11.299,14.439-1.521,32.539c-6.939,9.795-16.848,12.281-16.848,12.281s21.059,7.369,28.08,16.848
	c4.889,6.607,8.24,16.598,9.826,22.061c-10.672,3.844-24.27,7.105-41.404,8.592c-23.443,2.023-41.859-1.979-55.807-7.891
	c1.811-6.471,4.988-16.068,9.455-23.109c7.383-11.582,29.844-17.205,29.844-17.205S75.74,121.8,70.826,111.621
	c-4.918-10.186-2.814-23.17-2.814-23.17s-6.664-10.52-9.822-21.762c-3.164-11.236-0.707-20.006-3.164-29.836
	c-2.451-9.827-11.232-3.862-17.193-3.507C31.865,33.695,28,30.537,28,30.537l-13.689,9.478l20.361,29.488l9.83-1.764
	c0,0,4.561,15.445,2.459,39.316c-1.551,17.578-13.57,39.324-19.793,49.58c-8.123-6.629-12.113-12.346-12.535-12.971
	c-2.447-3.658-7.398-4.641-11.051-2.209c-3.686,2.449-4.689,7.41-2.25,11.08c1.215,1.832,28.703,42.047,92.063,42.047
	c4.352,0,8.873-0.184,13.561-0.594c72.732-6.277,92-42.461,92.781-43.99C201.734,146.103,200.191,141.367,196.309,139.324z" class="color c1"/>
</svg>