<svg version="1.1" id="图层_1" x="0px" y="0px" width="51.576px" height="174.719px" viewBox="0 0 51.576 174.719" enable-background="new 0 0 51.576 174.719" xml:space="preserve" xmlns="http://www.w3.org/2000/svg" xmlns:xlink="http://www.w3.org/1999/xlink" xmlns:xml="http://www.w3.org/XML/1998/namespace">
  <path fill="#8C5AA5" d="M10.326,81.746v15.833l-0.048,77.14h12.517h14.927h3.477v-3.088c0.023-0.176,0.052-0.351,0.052-0.535V81.764
	c0-0.368,0.069-0.726,0.177-1.071H10.154C10.257,81.032,10.325,81.382,10.326,81.746z" class="color c1"/>
  <path fill="#743E93" d="M50.536,73.43c0.324-0.319,0.576-0.699,0.754-1.111H0.292c0.177,0.405,0.428,0.779,0.749,1.094l8.244,8.243
	c0.414,0.408,0.7,0.915,0.869,1.46h31.271c0.168-0.54,0.452-1.04,0.865-1.442L50.536,73.43z" class="color c2"/>
  <path fill="#66CCEF" d="M47.847,5.611C42.235,5.368,25.788,0,25.788,0v2.612v9.016v6.668h1.377v-7.043L47.847,5.611z" class="color c3"/>
  <path fill="#8C5AA5" d="M51.576,70.944V18.633c-0.104-1.905-1.657-3.409-3.563-3.454h-3.254c-1.921,0-3.486,1.535-3.525,3.454
	v33.104h-9.596V18.633c0.002-1.869-1.461-3.412-3.326-3.509v-0.185H23.01v0.239c-1.748,0.219-3.066,1.693-3.089,3.454v33.104h-9.613
	V18.633c0-1.948-1.579-3.527-3.527-3.527H3.527C1.579,15.105,0,16.685,0,18.633v52.294c-0.004,0.936,0.372,1.832,1.041,2.485
	l2.245,2.244h45.021l2.229-2.227C51.2,72.775,51.574,71.88,51.576,70.944z" class="color c1"/>
  <path fill="#FFFFFF" d="M31.728,113.405L31.728,113.405c0.012,1.475-1.177,2.682-2.652,2.689c-0.014,0-0.024,0-0.037,0h-5.12
	c-1.477,0.011-2.682-1.179-2.692-2.653c0-0.012,0-0.024,0-0.036v-12.989c0.012-2.542,1.853-4.706,4.362-5.122
	c0.296-0.028,0.594-0.028,0.89,0c2.891,0,5.233,2.345,5.233,5.231L31.728,113.405z" class="color c4"/>
</svg>