<svg version="1.1" id="图层_1" x="0px" y="0px" width="107.777px" height="53.915px" viewBox="0 0 107.777 53.915" enable-background="new 0 0 107.777 53.915" xml:space="preserve" xmlns="http://www.w3.org/2000/svg" xmlns:xlink="http://www.w3.org/1999/xlink" xmlns:xml="http://www.w3.org/XML/1998/namespace">
  <path fill="#7C6246" d="M88.977,16.314c-0.684,0-1.357,0.042-2.022,0.113c-5.451-6.252-13.285-11.003-22.333-13.75V0
	c-3.104,0-6.156,0.233-9.137,0.659C52.506,0.233,49.453,0,46.35,0v2.678C37.053,5.5,29.041,10.442,23.574,16.952
	c-1.527-0.402-3.121-0.638-4.773-0.638C8.434,16.314,0,24.745,0,35.114c0,10.367,8.434,18.801,18.801,18.801
	s18.801-8.434,18.801-18.801c0-7.212-4.085-13.478-10.058-16.63c6.505-7.145,16.548-12.071,27.94-13.8
	c10.857,1.647,20.484,6.202,26.997,12.811c-7.169,2.652-12.304,9.536-12.304,17.619c0,10.367,8.434,18.801,18.799,18.801
	c10.369,0,18.801-8.434,18.801-18.801C107.777,24.745,99.346,16.314,88.977,16.314z M32.463,35.114
	c0,7.533-6.129,13.663-13.662,13.663S5.139,42.647,5.139,35.114s6.129-13.662,13.662-13.662S32.463,27.581,32.463,35.114z
	 M88.977,48.777c-7.531,0-13.662-6.13-13.662-13.663s6.131-13.662,13.662-13.662c7.535,0,13.664,6.129,13.664,13.662
	S96.512,48.777,88.977,48.777z" class="color c1"/>
</svg>