<svg version="1.1" id="图层_1" x="0px" y="0px" width="46.347px" height="95.685px" viewBox="0 0 46.347 95.685" enable-background="new 0 0 46.347 95.685" xml:space="preserve" xmlns="http://www.w3.org/2000/svg" xmlns:xlink="http://www.w3.org/1999/xlink" xmlns:xml="http://www.w3.org/XML/1998/namespace">
  <path fill="#FED217" d="M46.019,54.72c-0.459-0.849-1.719-1.661-2.809-1.62c-0.387-3.124-2.81-6.326-4.962-8.494
	c-1.98-1.993-5.125-4.678-8.143-4.431c-0.193-0.528-0.393-1.059-0.604-1.578c3.124-0.729,6.064-2.104,8.162-4.593
	c1.443-1.712,2.419-3.772,2.875-5.938c3.417,0.883,5.877-3.56,2.793-5.692c-0.24-0.166-0.695-0.26-0.908-0.445
	c-0.418,0.056-0.52-0.047-0.305-0.312c0.035-0.257,0.063-0.515,0.081-0.775c0.099-1.252,0.056-2.511-0.121-3.754
	c-0.238-1.704-0.72-4.83-2.362-5.892c0.225,0.028,0.446,0.056,0.671,0.083c0.568,0.071,0.975-0.715,0.661-1.16
	c-1.868-2.662-4.41-4.755-7.346-6.155c-1.395-0.663-2.859-1.188-4.357-1.56c-0.621-0.156-1.549-0.457-2.361-0.462
	c0.201-0.248,0.389-0.504,0.568-0.779C27.883,0.664,27.445,0,26.882,0c-3.649,0.002-7.34,0.158-10.892,1.07
	c-2.485,0.64-5.8,1.688-7.487,3.807c-1.07-0.633-1.855-1.414-2.448-2.531C5.827,1.913,5.062,1.87,4.848,2.349
	C4.133,3.953,3.546,5.578,4.099,7.223c-2.88,1.714-3.793,5.834-4.096,8.923c-0.063,0.639,0.777,0.847,1.18,0.485
	c0.459-0.416,0.924-0.825,1.396-1.226c-0.241,1.076-0.42,2.165-0.514,3.268c-0.107,1.24-0.261,2.674,0.054,3.921
	c-0.297,0.09-0.57,0.219-0.784,0.386c-0.859,0.669-1.032,1.907-0.857,2.92c0.195,1.135,0.871,2.285,1.966,2.745
	c0.774,0.323,1.773,0.254,2.333-0.375c0.746,2.473,2.307,4.783,4.104,6.428c2.022,1.857,4.467,3.062,7.07,3.775
	c-0.188,0.692-0.365,1.387-0.539,2.083c-2.775,1.798-5.109,4.197-7.065,6.855c-1.92,2.607-4.199,6.217-4.641,9.543
	c-0.929-0.21-1.975,0.133-2.618,0.878c-1.022,1.182-0.652,3.033,0.462,4.021c1.201,1.063,3.03,0.822,4.091-0.32
	c1.378-1.486,0.689-3.539-0.56-4.856c-0.008-0.007-0.016-0.013-0.024-0.021c0.544-1.233,0.933-2.552,1.527-3.766
	c0.786-1.608,1.713-3.15,2.746-4.613c1.639-2.325,3.611-4.346,5.718-6.229c-1.683,7.104-2.752,14.403-3.838,21.588
	c-0.096,0.637,0.258,1.238,0.961,1.25c0.247,0.006,0.496,0.013,0.745,0.018c-0.622,5.492-0.529,11.149-0.755,16.657
	c-0.016,0.364,0.287,0.783,0.656,0.855c0.88,0.177,1.764,0.335,2.649,0.469c-0.164,1.498-0.244,3.004-0.258,4.512
	c-0.009,0.883-0.116,1.861-0.014,2.775c-1.66-0.976-3.914-1.559-5.639-0.876c-1.524,0.602-2.52,2.476-1.108,3.76
	c1.314,1.198,3.823,1.008,5.402,0.597c0.509-0.133,2.527-1.188,2.586-2.041c0.004-0.009,0.012-0.013,0.017-0.022
	c0.562-1.282,0.243-2.817,0.241-4.197c-0.002-1.445,0.02-2.893,0.021-4.338c0.362,0.042,0.725,0.082,1.088,0.111
	c0.956,0.078,2.51,0.431,3.151-0.543c0.617-0.941,0.123-2.71,0.068-3.758c-0.085-1.662-0.168-3.322-0.264-4.983
	c1.094-0.008,2.188-0.014,3.282-0.013c0.618,0.002,1.237,0.001,1.857,0.003c0.412,0.001,0.826,0.002,1.238,0.001
	c0.57-0.182,0.749-0.127,0.533,0.165c0.137,0.264,0.026,1.601,0.046,1.988c0.029,0.609,0.047,1.219,0.051,1.827
	c0.009,1.424-0.071,2.841-0.209,4.258c-0.065,0.671,0.668,1.027,1.22,0.923c1.031-0.197,2.071-0.319,3.115-0.381
	c-0.257,1.646-0.455,3.294-0.552,4.959c-0.096,1.632-0.323,3.482-0.07,5.138c-0.046,0.215,0.009,0.45,0.124,0.634
	c0.005,0.015,0.005,0.03,0.01,0.046c0.068,0.278,0.301,0.433,0.55,0.46c1.205,2.28,6.005,2.586,6.729-0.222
	c0.384-1.485-0.818-2.733-2.214-2.965c-1.095-0.18-2.439,0.142-3.562,0.713c0.033-1.171-0.06-2.372-0.055-3.495
	c0.007-1.771-0.033-3.539-0.097-5.307c1.24-0.037,2.484,0.009,3.72,0.124c0.535,0.048,1.106-0.531,1.057-1.062
	c-0.508-5.419-1.051-10.835-1.591-16.251c0.115,0.002,0.229,0.006,0.345,0.007c0.725,0.011,1.272-0.728,1.076-1.417
	c-1.237-4.302-2.511-8.596-3.829-12.874c-0.987-3.21-1.879-6.525-2.986-9.729c2.665,0.785,5.126,2.7,6.977,4.674
	c1.038,1.105,1.939,2.329,2.69,3.646c0.24,0.422,0.441,0.86,0.632,1.302c0.34,0.93,0.571,1.885,0.91,2.806
	c-1.108,0.603-1.779,1.874-1.401,3.198c0.483,1.696,2.515,2.651,4.127,1.94C46.032,58.294,46.843,56.246,46.019,54.72z" class="color c1"/>
</svg>