<svg version="1.1" id="图层_1" x="0px" y="0px" width="212.628px" height="204.6px" viewBox="0 0 212.628 204.6" enable-background="new 0 0 212.628 204.6" xml:space="preserve" xmlns="http://www.w3.org/2000/svg" xmlns:xlink="http://www.w3.org/1999/xlink" xmlns:xml="http://www.w3.org/XML/1998/namespace">
  <path opacity="0.3" fill="#39271C" enable-background="new    " d="M205.587,110.8c0.488-19.196,17.738-37.633-4.758-50.007
	c-2.311-1.271-4.789-2.218-7.369-2.968c1.334,5.419,2.039,11.013,2.039,16.736c0,48.567-50.256,87.939-112.25,87.939
	c-31.436,0-59.848-10.128-80.225-26.439c-2.044,12.758,3.873,27.636,16.182,31.351c3.838,1.155,7.915,1.155,11.902,1.562
	c10.439,1.063,20.563,5.036,28.937,11.354c6.896,5.204,12.578,11.915,19.681,16.835c33.69,23.347,40.026-14.684,64.541-26.413
	c10.569-5.055,22.968-2.574,34.655-1.771c2.684,0.186,5.47,0.212,8.248,0.021c9.33-0.637,18.512-3.732,22.923-11.611
	C217.887,143.458,205.183,126.759,205.587,110.8z" class="color c1"/>
  <path fill="#FFFFFF" d="M184.542,160.139c-2.777,0.188-5.563,0.162-8.246-0.022c-11.688-0.803-24.086-3.283-34.656,1.771
	c-24.514,11.729-30.85,49.76-64.541,26.412c-7.103-4.92-12.785-11.631-19.681-16.835c-8.374-6.316-18.497-10.29-28.937-11.354
	c-3.987-0.405-8.064-0.405-11.902-1.562c-12.716-3.838-18.61-19.589-15.953-32.607c1.672-8.193,5.884-15.802,10.935-22.398
	c3.509-4.582,10.652-8.188,13.303-12.865c6.864-12.096-6.899-28.43-5.397-41.361c1.724-14.841,18.656-23.157,33.589-23.625
	c10.7-0.338,22.938,1.393,30.718-5.967c12.145-11.49,37.89-29.858,53.728-12.771c7.013,7.572,6.984,19.6,13.435,27.652
	c11.354,14.191,32.666,9.29,47.269,17.326c22.496,12.374,5.246,30.81,4.758,50.007c-0.404,15.959,12.3,32.658,4.507,46.588
	C203.055,156.405,193.873,159.502,184.542,160.139z" class="color c2"/>
  <path fill="#FACF33" d="M92.697,23.98c-0.115-0.108-0.311-0.242-0.475-0.331c-0.144-0.071-0.157-0.05-0.242-0.079l-0.013-0.003
	c-0.055-0.024,0.103,0.051-0.125-0.058l-0.055-0.013l-0.109-0.021l-0.219-0.036c-0.146-0.015-0.295-0.006-0.438,0.002
	c-0.581,0.061-1.071,0.352-1.403,0.793c-0.084,0.109-0.212,0.309-0.221,0.36l-0.031,0.101l-0.016,0.049
	c-0.018,0.04,0.035-0.07-0.041,0.092l-0.002,0.008l-0.002,0.018c-0.018,0.096-0.05,0.232-0.087,0.352
	c-0.154,0.488-0.389,0.958-0.673,1.386c-0.548,0.875-1.388,1.521-2.27,1.957c-0.894,0.434-1.785,0.678-2.511,1.023
	c-0.374,0.155-0.725,0.319-1.051,0.51c-0.34,0.146-0.657,0.383-0.948,0.563c-0.294,0.175-0.553,0.399-0.86,0.608
	c-0.343,0.2-0.667,0.392-0.973,0.569c-0.07,0.044-0.166,0.089-0.211,0.13c-0.134,0.061-0.261,0.109-0.368,0.194
	c-0.223,0.146-0.39,0.335-0.5,0.531c-0.118,0.188-0.18,0.393-0.205,0.58c-0.035,0.204-0.018,0.424,0.019,0.509
	c0.165,0.668,0.588,0.913,0.903,1.051c0.262,0.064,0.392,0.075,0.392,0.074l0.048,0.003c-0.013,0.003,0.152,0.002,0.406-0.037
	c0.258-0.031,0.637-0.058,1.137-0.05c0.497-0.008,1.111-0.016,1.869,0.029c0.738-0.021,1.626-0.016,2.542-0.247
	c0.928-0.203,1.83-0.688,2.716-1.284c0.877-0.608,1.707-1.389,2.394-2.314c0.696-0.922,1.294-1.943,1.792-3.04
	c0.127-0.271,0.233-0.561,0.332-0.854c0.045-0.152,0.105-0.341,0.136-0.475c0-0.022,0.073-0.239,0.103-0.4
	c0.041-0.167,0.051-0.339,0.051-0.512C93.478,25.032,93.17,24.398,92.697,23.98z M72.998,33.206
	c-0.233-0.087-0.209-0.057-0.306-0.082l-0.162-0.032l-0.056-0.005l-0.112-0.01c-4.641-0.327-9.211-0.325-13.731-0.205
	c-4.511,0.188-8.962,0.461-13.273,1.271c-4.288,0.797-8.506,2.209-11.918,4.77c-0.419,0.331-0.833,0.639-1.236,1.003
	c-0.4,0.378-0.803,0.752-1.186,1.136c-0.312,0.359-0.621,0.717-0.928,1.069l-0.115,0.133l-0.08,0.097l-0.028,0.039l-0.057,0.077
	l-0.222,0.314l-0.439,0.625c-1.133,1.688-1.894,3.528-2.349,5.326c-0.917,3.628-0.56,6.992-0.056,9.786
	c0.565,2.807,1.32,5.14,1.998,7.029c0.659,1.902,1.249,3.356,1.642,4.347c0.093,0.244,0.169,0.471,0.32,0.688
	c0.153,0.188,0.316,0.318,0.493,0.382c0.325,0.126,0.429,0.084,0.44,0.104l0.067-0.002c0.019-0.011,0.1,0,0.452-0.101
	c0.29-0.119,0.753-0.497,0.72-1.19c-0.032-0.333-0.177-0.6-0.271-0.906c-0.107-0.308-0.226-0.645-0.353-1.009
	c-0.261-0.726-0.487-1.583-0.758-2.534c-0.487-1.914-0.928-4.295-0.998-7.001c-0.042-2.693,0.311-5.729,1.518-8.556
	c1.21-2.794,3.331-5.359,6.364-7.187c3.011-1.856,6.733-3.105,10.726-3.968c4.005-0.844,8.305-1.256,12.694-1.354
	c2.195-0.049,4.418-0.042,6.648,0.023c1.109,0.026,2.249,0.071,3.327,0.146l0.106,0.009l0.238,0.011
	c0.159,0.007,0.317-0.008,0.476-0.042c0.314-0.056,0.613-0.19,0.873-0.371c0.262-0.182,0.478-0.425,0.644-0.696
	c0.093-0.161,0.185-0.392,0.225-0.538l0.063-0.357c0.063-0.622-0.163-1.263-0.584-1.699C73.599,33.518,73.392,33.359,72.998,33.206z
	" class="color c3"/>
</svg>