<svg version="1.1" id="图层_1" x="0px" y="0px" width="84.214px" height="65.04px" viewBox="0 0 84.214 65.04" enable-background="new 0 0 84.214 65.04" xml:space="preserve" xmlns="http://www.w3.org/2000/svg" xmlns:xlink="http://www.w3.org/1999/xlink" xmlns:xml="http://www.w3.org/XML/1998/namespace">
  <path fill="#FFFFFF" d="M15.679,10.58C16.21-4.053,38.394-3.248,37.863,11.385c-0.172,4.721-7.729,4.446-7.557-0.275
	c0.18-4.955-7.139-5.221-7.318-0.266C22.816,15.566,15.507,15.3,15.679,10.58z M55.093,12.01c0.18-4.955,7.734-4.682,7.555,0.275
	c-0.172,4.721,7.145,4.986,7.316,0.266c0.531-14.633-21.658-15.439-22.189-0.807C47.603,16.466,54.921,16.732,55.093,12.01z
	 M76.789,31.732c-10.072,36.508-63.145,33.637-69.354-3.7c-0.402-1.904-2.238-3.392-4.377-2.992
	c-1.906,0.404-3.389,2.238-2.994,4.383c7.586,44.944,71.744,48.456,83.984,4.23C85.398,28.975,78.138,27.054,76.789,31.732z" class="color c1"/>
</svg>