<svg version="1.1" id="图层_1" x="0px" y="0px" width="394.829px" height="500px" viewBox="0 0 394.829 500" enable-background="new 0 0 394.829 500" xml:space="preserve" xmlns:xml="http://www.w3.org/XML/1998/namespace" xmlns="http://www.w3.org/2000/svg" xmlns:xlink="http://www.w3.org/1999/xlink">
  <g>
    <path fill="#DBC39F" d="M98.871,498.586C-38.735,303.959-59.47,0,211.501,0c227.146,13.195,227.614,278.511,86.71,500
		L98.871,498.586z" class="color c1"/>
    <path fill="#FFFFFF" d="M120.077,129.595l53.723,41.941c13.194,10.368,32.045,10.368,44.771-0.471l50.895-40.999
		c39.586-30.631,128.182,8.482,110.273,99.906c-11.311,62.206-81.057,124.411-178.135,134.778
		c-96.607-8.953-158.341-54.193-187.559-134.307C-2.92,178.134,52.688,92.366,120.077,129.595z" class="color c2"/>
    <path fill="#DBC39F" d="M93.688,255.891c-21.207,0-39.585-9.425-54.194-21.678c-6.126-5.184-6.597-14.609-0.471-20.264l0,0
		c5.184-4.713,12.724-4.713,17.908-0.471c24.034,20.264,48.068,20.735,76.343,0.471c5.655-4.241,13.667-2.828,17.908,2.356l0,0
		c5.185,6.126,3.771,15.081-2.827,19.793C128.56,250.236,110.181,255.891,93.688,255.891z" class="color c1"/>
    <path fill="#DBC39F" d="M162.02,276.626h73.516c3.77,0,5.654,4.241,3.299,7.069l-36.758,48.066c-1.885,2.356-5.185,2.356-6.598,0
		l-36.758-48.066C156.364,280.867,158.25,276.626,162.02,276.626z" class="color c1"/>
    <path fill="#DBC39F" d="M297.268,255.891c-21.205,0-39.584-9.425-54.193-21.678c-6.125-5.184-6.598-14.609-0.471-20.264l0,0
		c5.184-4.713,12.723-4.713,17.908-0.471c24.031,20.264,48.066,20.735,76.342,0.471c5.654-4.241,13.666-2.828,17.908,2.356l0,0
		c5.184,6.126,3.77,15.081-2.828,19.793C332.141,250.236,313.762,255.891,297.268,255.891z" class="color c1"/>
  </g>
</svg>