<svg version="1.1" id="图层_1" x="0px" y="0px" width="499.503px" height="294.609px" viewBox="0 0 499.503 294.609" enable-background="new 0 0 499.503 294.609" xml:space="preserve" xmlns:xml="http://www.w3.org/XML/1998/namespace" xmlns="http://www.w3.org/2000/svg" xmlns:xlink="http://www.w3.org/1999/xlink">
  <g>
    <path fill="#FFFFFF" d="M480.376,142.596L480.376,142.596L480.376,142.596c-2.615-3.401-5.494-6.804-8.635-9.682L367.085,14.13l0,0
		C359.236,5.495,347.986,0,335.166,0c-23.549,0-42.91,19.101-42.91,42.91c0,3.141,0.263,6.279,1.047,9.419l2.878,24.856h-92.621
		l2.878-24.856c0.785-3.14,1.046-6.278,1.046-9.419c0-23.81-19.1-42.91-42.909-42.91c-12.559,0-24.071,5.495-31.921,14.13l0,0
		L27.996,132.915c-3.14,3.141-5.756,6.279-8.634,9.682l0,0l0,0C7.326,158.555,0,178.442,0,200.156
		c0,52.33,42.386,94.453,94.453,94.453c48.927,0,89.22-37.152,93.93-85.033l0,0l5.756-50.76h111.198l5.756,50.76l0,0
		c4.709,47.619,45.004,85.033,93.932,85.033c52.328,0,94.451-42.385,94.451-94.453C500,178.442,492.673,158.555,480.376,142.596z" class="color c1"/>
    <circle fill="#94A2E7" cx="96.285" cy="202.772" r="62.271" class="color c2"/>
    <circle fill="#94A2E7" cx="405.808" cy="202.772" r="62.271" class="color c2"/>
    <polygon fill="#2D4AD2" points="286.761,123.758 214.809,123.758 217.164,112.245 284.667,112.245 	" class="color c3"/>
    <path fill="#2F4AD2" d="M66.196,257.457c-68.812-41.602-18.315-144.167,58.084-110.415
		C49.189,149.399,30.612,214.547,66.196,257.457z" class="color c4"/>
    <path fill="#2F4AD2" d="M375.982,257.457c-68.814-41.602-18.578-144.167,57.822-110.415
		C358.974,149.399,340.398,214.547,375.982,257.457z" class="color c4"/>
  </g>
</svg>