<svg version="1.1" id="图层_1" x="0px" y="0px" width="124.148px" height="119.171px" viewBox="0 0 124.148 119.171" enable-background="new 0 0 124.148 119.171" xml:space="preserve" xmlns="http://www.w3.org/2000/svg" xmlns:xlink="http://www.w3.org/1999/xlink" xmlns:xml="http://www.w3.org/XML/1998/namespace">
  <path fill="#F3F4F6" d="M74.098,47.674c0-5.404,4.381-9.786,9.785-9.786c5.405,0,9.786,4.381,9.786,9.786
	c0,5.405-4.381,9.786-9.786,9.786C78.479,57.46,74.098,53.079,74.098,47.674z M38.307,57.46c5.404,0,9.785-4.381,9.785-9.786
	c0-5.404-4.381-9.786-9.785-9.786c-5.405,0-9.786,4.381-9.786,9.786C28.521,53.079,32.902,57.46,38.307,57.46z M50.19,62.074
	c-0.698-1.119-1.957-1.818-3.354-1.818H29.779c-1.398,0-2.656,0.699-3.355,1.818L14.681,50.609c-0.937-0.792-2.02-1.168-3.063-1.144
	c-0.019-2.042,0.471-3.757,0.965-5.565c0.787-3.149,1.696-6.3,0.302-11.185h2.772c0.419,0,0.558-0.56,0.279-0.839l-2.748-2.748
	c3.513-1.543,11.417-10.576,11.417-16.825C24.606,5.593,19.014,0,12.304,0C5.593,0,0,5.593,0,12.303
	c0,6.077,7.679,15.131,11.311,16.791l-2.782,2.783c-0.28,0.279,0,0.839,0.419,0.839h2.55c1.433,4.702,0.633,7.671-0.173,10.765
	c-0.513,1.881-1.075,3.868-1.021,6.245c-0.492,0.192-0.953,0.482-1.355,0.884c-1.537,1.538-1.537,4.195,0,5.732l16.357,16.358
	v17.336v0.278v24.604c0,1.818,1.117,3.496,2.655,4.056c2.656,0.839,5.593-1.119,5.593-3.774V98.703c0-2.377,1.957-4.195,4.193-4.195
	h0.699c2.377,0,4.194,1.959,4.194,4.195v16.217c0,1.818,1.117,3.496,2.654,4.056c2.657,0.839,5.594-1.119,5.594-3.774V90.175V72.979
	l9.366-9.367l-5.731-5.732L50.19,62.074z M70.184,44.606c-2.12-2.506-5.591-2.506-7.902,0l-1.255,1.228l-1.06-1.035
	c-2.507-2.121-5.781-2.121-7.902,0c-2.12,2.119-2.12,5.782,0,7.903l4.337,4.337l4.531,4.529l8.673-8.674
	C72.111,50.581,72.111,46.918,70.184,44.606z M124.148,12.303c0-6.71-5.593-12.303-12.303-12.303
	c-6.711,0-12.304,5.593-12.305,12.303c0,6.077,7.68,15.132,11.312,16.791l-2.782,2.782c-0.279,0.279,0,0.839,0.418,0.839h2.551
	c1.435,4.702,0.633,7.671-0.173,10.765c-0.492,1.805-1.028,3.709-1.023,5.962c-0.827,0.123-1.629,0.546-2.331,1.307L95.768,62.354
	c-0.699-1.119-1.958-1.817-3.355-1.817H75.355c-1.397,0-2.656,0.698-3.355,1.817l-4.612-4.614l-5.872,5.872l9.366,9.367v6.711
	l-7.409,13.7c-0.279,0.699,0.279,1.117,0.698,1.117h9.928v20.553c0,2.236,1.816,4.055,4.055,4.055c2.236,0,4.054-1.816,4.054-4.055
	V94.371h1.817h1.816v20.551c0,2.236,1.817,4.055,4.056,4.055c2.237,0,4.055-1.816,4.055-4.055V94.369h9.926
	c0.698,0,1.119-0.699,0.698-1.119L97.026,79.55v-6.711l16.217-16.358c1.817-1.538,1.817-4.054,0-5.732
	c-0.654-0.655-1.364-1.064-2.082-1.248c-0.025-2.058,0.467-3.782,0.964-5.602c0.786-3.149,1.696-6.3,0.303-11.185h2.771
	c0.419,0,0.558-0.56,0.279-0.839l-2.748-2.748C116.244,27.584,124.148,18.552,124.148,12.303z" class="color c1"/>
</svg>