<svg version="1.1" id="图层_1" x="0px" y="0px" width="500px" height="298.768px" viewBox="0 0 500 298.768" enable-background="new 0 0 500 298.768" xml:space="preserve" xmlns:xml="http://www.w3.org/XML/1998/namespace" xmlns="http://www.w3.org/2000/svg" xmlns:xlink="http://www.w3.org/1999/xlink">
  <g>
    <path fill="#FC9B6B" d="M94.17,150.786c0-65.583,34.193-122.197,84.641-150.785C112.107,20.741,49.327,71.189,0,145.741
		c46.525,75.673,107.063,127.802,172.085,151.906C125.561,267.938,94.17,213.005,94.17,150.786z" class="color c1"/>
    <path fill="#FC9B6B" d="M500,154.71C451.794,75.673,393.498,26.346,332.399,3.924c47.085,29.708,78.475,84.641,78.475,147.42
		c0,36.436-10.649,70.629-28.587,98.094l-33.072-31.949c12.894-19.059,20.74-42.041,20.74-66.703
		c0-65.023-52.69-118.274-118.273-118.274c-65.583,0-118.272,52.69-118.272,118.274c0,65.021,52.69,118.271,118.272,118.271
		c22.422,0,43.723-6.166,61.659-17.377l35.313,35.314c-5.045,4.484-10.649,8.408-16.255,11.771
		c21.3-8.408,42.601-19.619,63.341-34.193l1.121-0.561l0,0C433.296,238.229,468.05,202.354,500,154.71z M251.121,219.171
		c-37.556,0-67.825-30.27-67.825-67.824c0-37.556,30.269-67.826,67.825-67.826c37.557,0,67.825,30.27,67.825,67.826
		C318.946,188.343,288.678,219.171,251.121,219.171z" class="color c1"/>
  </g>
</svg>