<svg version="1.1" id="图层_1" x="0px" y="0px" width="58.56px" height="93.048px" viewBox="0 0 58.56 93.048" enable-background="new 0 0 58.56 93.048" xml:space="preserve" xmlns="http://www.w3.org/2000/svg" xmlns:xlink="http://www.w3.org/1999/xlink" xmlns:xml="http://www.w3.org/XML/1998/namespace">
  <path fill="#FED217" d="M58.075,10.652c-2.715-0.973-2.137-4.878-2.933-7.082c-0.597-1.649-1.89-2.894-3.586-3.374
	c-1.614-0.458-3.407-0.109-4.675,1.009c-0.977,0.861-1.898,2.427-1.627,3.787c-0.795-0.074-1.589,0.18-2.085,0.843
	c-0.526-0.542-1.09-1.047-1.688-1.51c-3.606-2.796-8.32-3.739-12.799-3.406c-4.402,0.326-9.014,1.765-12.227,4.914
	c-0.048,0.047-0.094,0.096-0.14,0.143c-0.016-0.044-0.037-0.088-0.068-0.131c-0.35-0.476-1.029-0.614-1.657-0.594
	c0.242-3.436-3.588-5.646-6.705-4.299C6.108,1.719,4.89,3.326,4.294,5.132c-0.742,2.249-0.168,7.229-3.546,7.366
	c-0.651,0.027-1.078,0.936-0.414,1.314c3.779,2.146,10.136,1.74,12.324-2.556c0.094,0.06,0.192,0.114,0.295,0.163
	c-0.142,0.432-0.263,0.871-0.36,1.315c-0.097,0.049-0.183,0.135-0.247,0.269c-0.642,1.331-0.766,2.873-0.46,4.314
	c-0.036,0.157-0.071,0.316-0.098,0.479c-1.398-0.33-2.962,0.896-2.573,2.472c0.191,0.777,0.873,1.379,1.628,1.596
	c0.308,0.087,0.783,0.12,1.195,0.029c0.32,1.38,0.818,2.684,1.311,3.678c1.841,3.715,5.1,6.44,8.871,8.063
	c0.859,0.369,1.748,0.682,2.652,0.944c-0.19,0.424-0.372,0.853-0.551,1.283c-0.037,0.023-0.074,0.052-0.107,0.095
	c-1.963,2.481-4.132,4.838-6.685,6.722c-1.281,0.945-2.645,1.769-4.075,2.468c-1.169,0.574-2.574,0.905-3.726,1.536
	c-0.574-0.973-1.664-1.605-2.844-1.388c-1.51,0.276-2.68,1.923-2.363,3.445c0.331,1.594,2.543,1.911,3.845,1.463
	c0.917-0.314,1.756-1.327,1.735-2.301c1.298-0.166,2.667-0.874,3.786-1.413c1.464-0.703,2.849-1.564,4.161-2.521
	c1.957-1.428,3.699-3.107,5.105-5.051c-1.662,4.708-2.836,9.647-4.101,14.413c-1.753,6.61-3.368,13.26-4.884,19.93
	c-0.144,0.633,0.217,1.117,0.847,1.21c3.27,0.486,6.534,0.513,9.796,0.322c-0.656,2.319-1.041,4.725-1.456,7.093
	c-0.353,2.016-0.818,4.117-1.032,6.188c-0.984-0.87-2.288-1.383-3.617-1.292c-1.551,0.104-3.131,1.43-2.707,3.122
	c0.451,1.801,2.724,1.839,4.195,1.688c0.528-0.054,3.305-0.595,3.415-1.591c0.018-0.038,0.034-0.076,0.046-0.119
	c0.679-2.485,0.89-5.169,1.288-7.714c0.385-2.469,0.848-4.954,1.029-7.452c3.666-0.266,7.328-0.77,10.996-1.167
	c-0.622,5.776-0.41,12.003,0.418,17.73c0.061,0.421,0.467,0.577,0.824,0.507c1.257,0.929,2.88,1.665,4.434,1.02
	c1.247-0.517,2.023-1.915,1.491-3.229c-0.676-1.671-3.852-1.846-5.464-0.954c-0.111-2.168-0.278-4.334-0.351-6.501
	c-0.098-2.894-0.14-5.791-0.361-8.678c2.67-0.273,5.342-0.476,8.019-0.472c0.445,0.002,0.742-0.24,0.889-0.556
	c0.313,0.122,0.708-0.009,0.708-0.446c-0.002-3.178-0.783-6.407-1.493-9.489c-0.753-3.259-1.628-6.492-2.608-9.691
	c-0.915-2.991-1.927-5.954-3.038-8.879c-0.511-1.342-1.022-2.708-1.563-4.065c0.366,0.294,0.741,0.564,1.111,0.813
	c3.071,2.538,7.148,3.846,11.199,3.502c0.032,0.003,0.064,0.007,0.096,0.011c0.133,0.012,0.248-0.009,0.346-0.049
	c0.018-0.003,0.036-0.003,0.053-0.005c0.137,0.354,0.369,0.684,0.699,0.942c1.228,0.96,3.066,0.612,3.906-0.69
	c0.821-1.271,0.267-3.169-1.189-3.699c-0.844-0.307-2.921,0.167-2.931,1.271c-0.252,0.226-0.424,0.5-0.525,0.797
	c-0.085-0.044-0.183-0.073-0.296-0.082c-3.07-0.245-6.152-0.835-8.929-2.221c-1.252-0.626-2.467-1.383-3.485-2.351
	c-1.043-0.99-1.625-2.146-2.307-3.364c3.396-0.976,6.458-2.928,8.64-6.011c1.527-2.158,2.45-4.731,2.719-7.367
	c1.181,0.482,2.644,0.104,3.17-1.271c0.563-1.462-0.626-3.106-2.132-2.959c-0.388-0.109-0.801-0.145-1.205-0.141
	c-0.141-0.771-0.338-1.533-0.604-2.273c0.208-0.385,0.107-0.953-0.302-1.226c0.067-0.938-0.234-1.982-0.635-2.933
	c0.214-0.035,0.403-0.102,0.575-0.191c2.233,4.063,7.84,3.05,11.34,1.596C58.783,11.699,58.6,10.84,58.075,10.652z" class="color c1"/>
</svg>