<svg version="1.1" id="图层_1" x="0px" y="0px" width="61.217px" height="65.438px" viewBox="0 0 61.217 65.438" enable-background="new 0 0 61.217 65.438" xml:space="preserve" xmlns="http://www.w3.org/2000/svg" xmlns:xlink="http://www.w3.org/1999/xlink" xmlns:xml="http://www.w3.org/XML/1998/namespace">
  <path fill="#5FB45A" d="M29.193,15.213c0,0-0.17-0.236-1.982-2.458s-2.997-1.661-2.997-1.661S11.935,13.943,9.19,14.578
	c-3.725,0.865-3.346,5.365-3.346,5.365l-4.753,7.931l6.162-7.571L29.193,15.213z M22.563,13.89c0.354-0.084,0.713,0.139,0.796,0.498
	c0.086,0.359-0.142,0.715-0.495,0.798c-0.359,0.082-0.719-0.138-0.802-0.497C21.979,14.33,22.202,13.973,22.563,13.89z
	 M20.313,14.41c0.354-0.083,0.718,0.141,0.8,0.499c0.085,0.357-0.143,0.717-0.498,0.797c-0.357,0.083-0.716-0.14-0.801-0.497
	C19.73,14.853,19.956,14.494,20.313,14.41z M18.068,14.932c0.354-0.083,0.714,0.141,0.797,0.498
	c0.085,0.358-0.141,0.716-0.496,0.799c-0.359,0.084-0.717-0.138-0.801-0.498C17.485,15.373,17.707,15.015,18.068,14.932z
	 M15.82,15.455c0.358-0.084,0.717,0.138,0.798,0.496c0.084,0.358-0.139,0.715-0.495,0.798c-0.358,0.084-0.719-0.138-0.8-0.496
	C15.238,15.895,15.462,15.537,15.82,15.455z M13.57,15.974c0.359-0.082,0.718,0.143,0.8,0.5c0.083,0.359-0.139,0.716-0.497,0.798
	c-0.359,0.083-0.718-0.139-0.801-0.498C12.991,16.417,13.213,16.056,13.57,15.974z M11.327,16.496
	c0.358-0.082,0.714,0.14,0.796,0.499c0.084,0.357-0.139,0.715-0.494,0.797c-0.359,0.083-0.72-0.14-0.803-0.497
	C10.745,16.938,10.969,16.578,11.327,16.496z M13.5,7.268l1.513-0.349l1.037,4.469l5.854-1.36l-1.188-5.124
	c0,0-0.082-0.879-1.247-0.606c-1.163,0.269-6.097,1.414-6.097,1.414s-0.913,0.294-0.769,0.913c0.073,0.315,0.665,2.859,1.226,5.278
	l0.709-0.165L13.5,7.268z M57.584,28.505c0,0-7.271-3.2-14.663-0.363c-7.395,2.836-16.056,9.415-23.05,17.05
	C12.879,52.828,4.34,62.139,3.537,62.631c0,0,10.396,7.089,19.131-1.264c10.683-10.225,27.403-3.788,35.599-7.235
	c-1.815-1.804-7.221-8.403-6.31-22.338c0,0,0.858,14.587,8.381,21.07c0.31-0.268,0.606-0.553,0.87-0.881
	c0.247-0.31-4.861-5.09-5.129-10.63C55.812,35.808,57.584,28.505,57.584,28.505z M3.604,13.282l1.201-0.279l0.574,2.479
	c0.703-1.103,1.795-2.039,3.458-2.424l0.851-0.198L9.36,11.454c0,0-0.045-0.626-0.975-0.412c-0.926,0.216-4.857,1.127-4.857,1.127
	s-0.726,0.225-0.624,0.666c0.077,0.334,0.971,4.184,1.395,6.016c0.038-0.461,0.12-0.958,0.255-1.463L3.604,13.282z M51.705,8.195
	c-1.786-1.82-7.461-7.601-7.622-7.876c-0.188-0.333-1.307-0.815-2.348,0.987c-0.52,0.904-5.696,8.268-10.724,15.371L8.993,21.785
	L0,32.928l4.992,21.523c-1.354,2.457-2.281,4.184-2.281,4.184l0.271,2.483c1.241-0.796,14.324-15.145,18.351-19.745
	c4.026-4.604,13.652-14.071,21.982-16.82c8.336-2.75,14.246,0.772,14.246,0.772s1.006-6.653,0.914-12.748
	C58.433,9.44,55.788,8.044,51.705,8.195z M7.72,49.562c-0.682,1.212-1.347,2.397-1.953,3.491L3.133,41.7l2.188-2.485L7.72,49.562z
	 M5.113,38.316l-2.188,2.486L1.16,33.195l2.147-2.662L5.113,38.316z M10.412,44.902c-0.705,1.195-1.43,2.449-2.143,3.699
	L5.931,38.523l2.378-2.696L10.412,44.902z M8.099,34.93l-2.376,2.695l-1.817-7.833l2.331-2.891L8.099,34.93z M13.131,40.487
	c-0.646,0.99-1.385,2.185-2.164,3.487l-2.052-8.837l2.354-2.674L13.131,40.487z M11.062,31.565L8.707,34.24l-1.873-8.078l2.31-2.865
	L11.062,31.565z M18.768,40.441c-0.833,0.195-1.666-0.321-1.859-1.156c-0.193-0.83,0.324-1.665,1.16-1.858
	c0.832-0.193,1.666,0.328,1.857,1.158C20.121,39.417,19.603,40.25,18.768,40.441z M13.925,39.318
	c-0.072,0.101-0.148,0.207-0.22,0.316l-1.783-7.686l8.042-1.866C17.296,33.992,15.236,37.469,13.925,39.318z M20.912,28.717
	c-0.108,0.152-0.214,0.302-0.32,0.451l-8.838,2.049l-1.977-8.516l9.24-2.143L20.912,28.717z M19.744,20.393l10.092-2.341
	c-3.129,2.974-5.938,6.486-8.348,9.851L19.744,20.393z M25.06,33.362c-1.042,0.24-2.082-0.405-2.32-1.445
	c-0.243-1.041,0.405-2.08,1.446-2.321c1.039-0.24,2.076,0.405,2.319,1.447C26.746,32.081,26.098,33.12,25.06,33.362z M31.147,27.275
	c-1.229,0.286-2.461-0.482-2.749-1.712c-0.283-1.229,0.486-2.459,1.713-2.745c1.231-0.283,2.461,0.482,2.747,1.71
	C33.144,25.759,32.376,26.99,31.147,27.275z M42.711,3.571c0.159,1.047,0.358,4.681,0.454,6.486
	c-1.887,0.677-3.861,1.522-5.881,2.544c-1.463,0.737-2.876,1.652-4.246,2.697c3.773-5.26,7.332-10.246,7.736-10.913
	C41.665,2.922,42.498,2.16,42.711,3.571z M46.003,9.158l-0.529-2.811c0,0-0.387-2.293-0.416-2.552
	c-0.146-1.291,3.112,2.664,4.637,4.58C48.544,8.534,47.304,8.799,46.003,9.158z" class="color c1"/>
</svg>