<svg version="1.1" id="图层_1" x="0px" y="0px" width="239.004px" height="120.545px" viewBox="0 0 239.004 120.545" enable-background="new 0 0 239.004 120.545" xml:space="preserve" xmlns="http://www.w3.org/2000/svg" xmlns:xlink="http://www.w3.org/1999/xlink" xmlns:xml="http://www.w3.org/XML/1998/namespace">
  <path fill="#FFFFFF" d="M54.33,53.04C64.563,21.396,90.631,0,119.379,0c28.75,0,54.818,21.095,64.809,53.04
	c0.974,2.711-0.244,5.725-2.438,6.932c-2.192,1.205-4.628-0.302-5.604-3.014c-8.771-27.726-31.672-46.41-57.01-46.41
	s-48.238,18.685-57.011,46.41c-0.73,2.108-2.436,3.314-4.142,3.314c-0.488,0-0.975,0-1.463-0.301
	C54.33,58.766,53.355,55.753,54.33,53.04z M209.037,78.957c-8.04,0-15.592,4.219-20.708,10.849c0-1.809,0-3.918-0.244-5.727
	c-0.244-3.013-2.437-4.822-4.872-4.52c-2.438,0.301-3.9,3.014-3.655,6.026c0.244,3.015,0.486,5.728,0.486,8.739v20.794
	c0,3.014,1.95,5.426,4.386,5.426c2.437,0,4.387-2.412,4.387-5.426c0-14.162,9.257-25.615,20.708-25.615
	c11.45,0,20.708,11.453,20.708,25.615c0,3.014,1.95,5.426,4.386,5.426c2.437,0,4.386-2.412,4.386-5.426
	C238.272,95.23,225.116,78.957,209.037,78.957z M49.702,115.119c0,3.014,1.947,5.426,4.384,5.426c2.436,0,4.385-2.412,4.385-5.426
	V94.325c0-3.012,0.245-6.025,0.488-8.739c0.243-3.013-1.463-5.423-3.654-6.026c-2.437-0.303-4.629,1.808-4.872,4.52
	c-0.245,1.809-0.245,3.918-0.245,5.727c-5.359-6.63-12.668-10.849-20.951-10.849C13.156,78.957,0,95.23,0,115.119
	c0,3.014,1.949,5.426,4.386,5.426c2.436,0,4.385-2.412,4.385-5.426c0-14.162,9.259-25.615,20.709-25.615
	C40.442,89.806,49.702,101.257,49.702,115.119z M5.116,74.737h228.041c2.436,0,4.385-2.411,4.385-5.424
	c0-3.015-1.949-5.425-4.385-5.425H5.116c-2.437,0-4.385,2.41-4.385,5.425C0.731,72.326,2.68,74.737,5.116,74.737z" class="color c1"/>
</svg>