<svg version="1.1" id="图层_1" x="0px" y="0px" width="211.162px" height="194.557px" viewBox="0 0 211.162 194.557" enable-background="new 0 0 211.162 194.557" xml:space="preserve" xmlns="http://www.w3.org/2000/svg" xmlns:xlink="http://www.w3.org/1999/xlink" xmlns:xml="http://www.w3.org/XML/1998/namespace">
  <path fill="#461B00" d="M211.137,166.148c-0.031-14.817-0.051-24.834-0.031-24.942c0.023-0.225,0.049-0.621,0.049-0.497
	c0-0.112,0-0.173,0-0.173l-0.645-0.025c0,0,0,0.049-0.025,0.148c-0.023,0.074-0.074,0.224-0.123,0.422
	c-0.125,0.397-0.348,0.942-0.67,1.636c-0.348,0.694-0.844,1.513-1.512,2.381c-0.174,0.198-0.348,0.422-0.547,0.646
	c-0.172,0.223-0.422,0.445-0.619,0.669c-0.1,0.124-0.223,0.224-0.322,0.347c-0.125,0.125-0.248,0.224-0.373,0.348
	c-0.248,0.223-0.496,0.471-0.768,0.693c-1.066,0.894-2.381,1.737-3.869,2.555c-1.488,0.769-3.172,1.513-5.033,2.157
	c-0.471,0.173-0.941,0.297-1.438,0.445c-0.496,0.149-0.967,0.323-1.488,0.422c-1.016,0.248-2.057,0.521-3.174,0.695
	c-0.545,0.099-1.09,0.198-1.66,0.297c-0.57,0.074-1.166,0.174-1.736,0.247c-1.166,0.175-2.381,0.273-3.596,0.397
	c-0.297,0.05-0.619,0.074-0.916,0.1c-0.324,0-0.621,0.024-0.943,0.05c-0.619,0.049-1.264,0.074-1.908,0.123
	c-0.322,0-0.645,0.05-0.967,0.05c-0.348,0-0.67,0.025-0.992,0.025c-0.646,0.024-1.314,0.024-1.984,0.05
	c-0.668,0.024-1.338,0-2.033,0c-0.668,0-1.363,0-2.059,0c-0.346,0-0.693,0-1.041,0c-0.371-0.025-0.719-0.025-1.064-0.05
	c-0.721-0.025-1.414-0.05-2.133-0.075c-5.729-0.247-11.779-0.843-18.002-1.611c-1.537-0.223-3.1-0.445-4.66-0.645l-0.596-0.075
	l-0.596-0.099c-0.396-0.074-0.818-0.123-1.215-0.198c-0.818-0.124-1.637-0.248-2.455-0.372c-1.611-0.272-3.273-0.521-4.91-0.769
	c-0.842-0.124-1.686-0.248-2.529-0.372c-0.714-0.104-1.444-0.204-2.165-0.294h62.521c0,0,10.74-7.345,10.74-16.589h-30.301
	c-0.004,0.002-12.246,6.491-19.125,6.491s-63.82,0-63.82,0l-39.326-6.666L2.081,120.771l45.984,17.193l13.09,12.558
	c-3.946,0.469-7.794,1.002-11.492,1.593c-1.488,0.248-2.926,0.496-4.365,0.743c-1.438,0.248-2.826,0.496-4.215,0.769
	c-2.752,0.546-5.43,1.091-7.959,1.661c-1.264,0.273-2.504,0.57-3.719,0.868c-1.215,0.272-2.406,0.546-3.547,0.868
	c-2.305,0.596-4.463,1.19-6.494,1.761c-2.033,0.595-3.943,1.115-5.68,1.686c-1.734,0.571-3.322,1.092-4.76,1.586
	c-1.439,0.497-2.729,0.943-3.818,1.365c-1.115,0.396-2.059,0.768-2.803,1.065s-1.314,0.546-1.711,0.719
	C0.197,165.381,0,165.454,0,165.454v29.103h211.162L211.137,166.148z M117.871,188.656c-9.297-1.254-19.224-5.352-28.479-9.412
	c-5.524-2.42-25.015-7.863-34.288-8.271c0-0.002,17.476-0.177,25.772,1.443c17.432,3.397,23.759,8.196,42.046,10.762
	c18.297,2.568,33.622,0.295,48.596-8.109C171.518,175.068,155.928,193.777,117.871,188.656z M182.455,169.971
	c-14.89,5.931-31.896,9.579-55.404,7.021c-23.822-2.591-42.638-9.442-54.412-11.753c-16.544-3.239-29.018-3.712-43.869-1.195
	c0,0,22.875-5.719,39.472-4.414c17.28,1.357,44.662,9.995,67.629,11.544c14.248,0.957,35.218-1.316,52.986-8.863
	c11.445-4.868,16.973-8.15,16.973-8.15S194.041,165.358,182.455,169.971z M137.245,54.155
	c-15.684,2.151-30.514,12.891-30.514,12.891V0C106.731,27.506,137.245,54.155,137.245,54.155z M186.456,54.155
	c-15.688,2.151-30.51,12.891-30.51,12.891V0C155.946,27.506,186.456,54.155,186.456,54.155z M50.866,98.312
	c0,0-6.789-21.842,20.314-25.709v-6.225c-5.281,0.45-10.633,2.105-14.301,6.254c0,0-3.48-16.632,14.301-22.002v-6.12
	c-3.688,0.575-7.201,1.857-8.928,4.487c0,0-4.555-13.282,8.928-19.057v-14.9h1.721v14.247c2.484-0.854,5.479-1.49,9.121-1.783
	c0,0-3.869,9.672,1.506,16.979c0,0-5.23-0.738-10.629-0.191v5.869c3.482-0.846,7.682-1.294,12.775-1.163
	c0,0-5.375,12.89,3.221,19.336c0,0-7.674-2.379-16-2.063V72.4c4.895-0.537,10.781-0.537,17.934,0.235c0,0-5.156,14.615,1.719,22.136
	c0,0-9.348-1.348-19.652-1.156v6.424c6.146-0.48,13.668-0.319,22.875,0.743c0,0-6.875,18.268,3.227,29.014
	c0,0-11.506-4.065-26.102-5.73v10.372l-1.719-0.348v-10.208c-7.707-0.767-16.158-0.819-24.186,0.758c0,0-7.564-21.229,24.186-24.446
	v-6.535C63.571,93.923,55.702,95.103,50.866,98.312z M82.663,16.84c2.363,0,5.588-1.77,5.588-3.25c0-3.151,7.02-3.468,7.02-6.209
	c0-2.586,4.871-5.768,9.314-5.768V8.06c0,0-7.596-0.244-7.596,3.1c0,3.014-6.16,0.746-6.16,3.367
	C90.829,16.965,82.665,16.84,82.663,16.84z M131.655,24.375c2.373,0,5.59-1.769,5.59-3.25c0-3.144,7.02-3.462,7.02-6.208
	c0-2.587,4.877-5.769,9.311-5.769v6.446c0,0-7.588-0.236-7.588,3.1c0,3.014-6.156,0.746-6.156,3.367
	C139.831,24.5,131.655,24.375,131.655,24.375z M187.003,60.901c0,0-0.797,41.574,20.514,61.882c0,0-31.801-3.521-51.57,13.03
	v-11.189c1.629-0.124,2.594-0.154,2.637-0.154l6.201-0.161l-4.484-4.287c-1.611-1.533-3.039-3.168-4.352-4.863V70.861
	C155.948,70.861,174.261,67.869,187.003,60.901z M155.948,121.104c0,0-29.229,0.744-49.215,15.137V70.958
	c0,0,19.766-3.22,33.525-10.741C140.259,60.217,132.952,99.188,155.948,121.104z M48.929,81.659
	c-17.836,22.776-13.326,39.112-13.326,39.112c-4.08-5.154-19.77-1.936-19.77-1.936l6.764-7.594c0.311-0.01,0.619-0.023,0.934-0.023
	c1.947,0,3.74,0.177,5.32,0.538l3.402,0.758l-0.266-3.477c-0.008-0.079-0.221-3.997,1.498-10.03L48.929,81.659z M4.013,112.603
	l44.289-41.741l0.627-0.59C27.95,90.04,29.411,109.236,29.411,109.236C18.554,106.8,4.013,112.603,4.013,112.603z" class="color c1"/>
</svg>