<svg version="1.1" id="图层_1" x="0px" y="0px" width="187.709px" height="33.183px" viewBox="0 0 187.709 33.183" enable-background="new 0 0 187.709 33.183" xml:space="preserve" xmlns="http://www.w3.org/2000/svg" xmlns:xlink="http://www.w3.org/1999/xlink" xmlns:xml="http://www.w3.org/XML/1998/namespace">
  <path fill="#1C2D60" d="M126.766,30.759l60.943,0.15c-7.1-24.852-38.902-37.426-69.67-27.514C87.271,13.308,54.139,24.253,0,30.021
	c0,0,47.038,3.107,76.326-4.881c29.288-7.988,64.344-15.088,64.344-15.088l10.471,0.783c-14.994,1.023-38.166,12.385-47.303,15.637
	c-10.799,3.844-32.393,6.211-32.393,6.211s24.256,2.809,45.706-4.881c21.451-7.689,47.482-11.832,47.482-11.832
	s2.666-0.443,2.957,2.957C166.999,24.845,126.766,30.759,126.766,30.759z" class="color c1"/>
</svg>