<svg version="1.1" id="图层_1" x="0px" y="0px" width="41.984px" height="51.128px" viewBox="0 0 41.984 51.128" enable-background="new 0 0 41.984 51.128" xml:space="preserve" xmlns="http://www.w3.org/2000/svg" xmlns:xlink="http://www.w3.org/1999/xlink" xmlns:xml="http://www.w3.org/XML/1998/namespace">
  <path fill="#0A0A0A" d="M20.936,12.673c1.499,0,2.714,1.215,2.714,2.714c0,1.499-1.215,2.714-2.714,2.714s-2.714-1.215-2.714-2.714
	C18.222,13.888,19.437,12.673,20.936,12.673z M20.993,0C9.398,0,0,11.445,0,25.564s9.397,25.563,20.993,25.563
	c11.593,0,20.991-11.443,20.991-25.563S32.586,0,20.993,0z M32.621,14.999l0.516-1.598l0.519,1.598h1.688l-1.358,0.995l0.52,1.6
	l-1.366-0.988l-1.36,0.988l0.52-1.6l-1.366-0.995H32.621z M8.332,14.999l0.519-1.598l0.518,1.598h1.686l-1.354,0.995l0.516,1.6
	l-1.363-0.988l-1.359,0.988l0.516-1.6l-1.363-0.995H8.332z M23.981,43.069c-1.114,0.239-2.144,0.774-2.95,1.581l-0.095,0.092
	L20.84,44.65c-0.803-0.807-1.835-1.342-2.949-1.581c-5.843-1.253-10.373-6.038-11.249-12.011l2.722,1.498
	c1.181,0.648,1.621,2.117,0.999,3.309c-0.05,0.092-0.03,0.207,0.047,0.273c0.728,0.656,1.515,1.244,2.354,1.756
	c1.927,1.17,4.318,1.077,6.146-0.123l0.716-14.741h-3.207c-0.315,0.358-0.771,0.583-1.282,0.583c-0.946,0-1.71-0.764-1.71-1.709
	c0-0.945,0.764-1.711,1.71-1.711c0.512,0,0.966,0.226,1.282,0.58h3.314l0.038-0.721c-2.091-0.521-3.643-2.412-3.643-4.666
	c0-2.656,2.152-4.808,4.808-4.808c2.652,0,4.806,2.151,4.806,4.808c0,2.254-1.55,4.146-3.644,4.666l0.038,0.721h3.315
	c0.314-0.354,0.771-0.58,1.285-0.58c0.941,0,1.707,0.766,1.707,1.711c0,0.945-0.766,1.709-1.707,1.709
	c-0.514,0-0.971-0.225-1.285-0.583h-3.206l0.718,14.741c1.825,1.2,4.219,1.293,6.144,0.123c0.839-0.512,1.629-1.1,2.354-1.756
	c0.08-0.066,0.099-0.184,0.052-0.273c-0.624-1.189-0.181-2.66,0.993-3.309l2.724-1.498C34.356,37.031,29.821,41.816,23.981,43.069z" class="color c1"/>
</svg>