<svg version="1.1" id="图层_1" x="0px" y="0px" width="140px" height="77.292px" viewBox="0 0 140 77.292" enable-background="new 0 0 140 77.292" xml:space="preserve" xmlns="http://www.w3.org/2000/svg" xmlns:xlink="http://www.w3.org/1999/xlink" xmlns:xml="http://www.w3.org/XML/1998/namespace">
  <path fill="#1F5993" d="M140,38.794v7.904v30.594h-17.042v-8.374c0-12.272-9.947-22.22-22.218-22.22l0,0
	c-12.272,0-22.22,9.947-22.22,22.22v8.374H61.479v-8.374c0-12.272-9.949-22.22-22.221-22.22l0,0
	c-12.271,0-22.219,9.947-22.219,22.22v8.374H0V46.698v-7.904H140z M140,13.562v6.042v5.399H34.318c-3.763,0-7.185,2.183-8.765,5.599
	H140v4.976H19.692H6.821c-5.477,0-8.711-6.135-5.619-10.651l3.043-4.453h8.359c7.656,0,14.881-3.538,19.578-9.584l4.165-5.365
	H17.585C23.005,1.978,29.403,0,36.065,0H140v1.342v4.01h-7.66c-1.702,0-3.28,0.896-4.153,2.357l-3.571,5.986h14.288
	C139.277,13.695,139.644,13.645,140,13.562z M79.673,5.352h-34.58c-1.701,0-3.279,0.896-4.152,2.357l-3.572,5.986h34.578
	c1.704,0,3.281-0.896,4.154-2.358L79.673,5.352z M123.296,5.352h-34.58c-1.701,0-3.279,0.896-4.152,2.357l-3.572,5.985h34.579
	c1.703,0,3.28-0.896,4.154-2.357L123.296,5.352z" class="color c1"/>
</svg>