<svg version="1.1" id="图层_1" x="0px" y="0px" width="189.375px" height="189.375px" viewBox="0 0 189.375 189.375" enable-background="new 0 0 189.375 189.375" xml:space="preserve" xmlns="http://www.w3.org/2000/svg" xmlns:xlink="http://www.w3.org/1999/xlink" xmlns:xml="http://www.w3.org/XML/1998/namespace">
  <path fill="#B6B9BC" d="M115.918,90.375C114.2,81.873,107.503,75.176,99,73.457V0h-8.626v73.457
	c-8.503,1.719-15.199,8.416-16.917,16.918H0V99h73.457c1.718,8.504,8.414,15.199,16.917,16.918v73.457H99v-73.457
	c8.503-1.717,15.2-8.414,16.918-16.918h73.457v-8.625H115.918z M94.688,104.615c-5.474,0-9.927-4.453-9.927-9.926
	c0-5.475,4.453-9.928,9.927-9.928c5.473,0,9.926,4.453,9.926,9.928C104.614,100.162,100.161,104.615,94.688,104.615z" class="color c1"/>
</svg>