<svg version="1.1" id="图层_1" x="0px" y="0px" width="91.531px" height="115.724px" viewBox="0 0 91.531 115.724" enable-background="new 0 0 91.531 115.724" xml:space="preserve" xmlns="http://www.w3.org/2000/svg" xmlns:xlink="http://www.w3.org/1999/xlink" xmlns:xml="http://www.w3.org/XML/1998/namespace">
  <path fill="#2D2D2D" d="M89.578,11.434L62.148,0.259c-1.693-0.677-3.725,0-4.402,1.693c-5.08,11.852-2.032,8.466-19.302,22.012
	c-4.064,3.048-8.805,6.773-14.9,11.852c-3.725,2.709-4.741,5.757-7.111,11.514c-1.016,2.709-2.37,6.095-4.402,10.498
	c-3.048,2.032-6.434,4.741-7.789,8.805c-1.016,3.048-0.677,6.095,0.677,9.482l-4.741,28.107
	c-2.37,14.223,19.641,15.916,21.673,1.355l3.386-25.737c2.37-1.016,4.064-2.032,4.402-2.37c6.773-6.434,27.43-12.868,34.88-14.9
	c28.445-8.468,22.688-37.252,24.72-41.993l2.032-4.741C91.948,14.143,91.271,12.111,89.578,11.434z M15.416,104.221
	c-0.677,5.757-9.143,5.418-8.127,0.339l4.064-24.721c2.37,1.016,5.08,1.355,7.111,1.355L15.416,104.221z M82.467,18.206
	c-3.048,7.111,3.386,30.816-20.318,38.266C29.978,64.6,28.623,72.727,17.109,73.743c-4.741,0.339-7.789-0.339-6.434-5.08
	c1.355-3.725,6.434-6.434,8.466-7.45c4.741-2.032,29.462-13.207,33.864-20.996c1.016-1.693,0.339-3.725-1.355-4.741
	c-1.693-1.016-3.725-0.339-4.741,1.355c-2.032,3.725-14.9,10.836-25.737,15.916c0.339-1.355,1.016-2.37,1.355-3.386
	c2.032-5.418,2.709-6.773,4.741-8.466c6.095-4.741,11.175-8.466,14.9-11.514c19.302-14.9,15.916-11.852,19.98-21.673l20.996,8.805
	L82.467,18.206z" class="color c1"/>
</svg>