<svg version="1.1" id="图层_1" x="0px" y="0px" width="179.713px" height="180px" viewBox="0 0 179.713 180" enable-background="new 0 0 179.713 180" xml:space="preserve" xmlns="http://www.w3.org/2000/svg" xmlns:xlink="http://www.w3.org/1999/xlink" xmlns:xml="http://www.w3.org/XML/1998/namespace">
  <path fill="#045C9E" d="M114.418,35.673c21.104,9.182,35.864,30.211,35.864,54.692c0,6.234-0.959,12.24-2.733,17.889l12.11-6.525
	l20.054-11.363l-20.313-12.544c-4.864-26.83-25.034-48.314-51.145-55.091L114.418,35.673z" class="color c1"/>
  <path fill="#DB241A" d="M37.234,63.875c9.757-19.638,30.007-33.139,53.419-33.139c5.683,0,11.171,0.812,16.375,2.295l-5.979-12.555
	L89.759,0l-12.19,21.716c-25.854,4.899-46.647,24.035-53.955,48.948L37.234,63.875z" class="color c2"/>
  <path fill="#FA8E14" d="M62.521,143.221l0.264-0.143c-18.886-10.006-31.757-29.852-31.757-52.713c0-6.538,1.068-12.825,3.012-18.713
	l-12.104,6.036c-0.002,0.002-0.002,0.003-0.002,0.005L0,90.152l21.933,12.885c4.713,25.719,23.497,46.506,48.084,54.1
	L62.521,143.221z" class="color c3"/>
  <path fill="#80C426" d="M144.388,116.245c-9.636,19.971-30.074,33.748-53.732,33.748c-7.042,0-13.794-1.229-20.066-3.472
	l8.877,16.48L89.521,180l12.201-20.627c27.194-4.326,49.139-24.342,56.312-50.479L144.388,116.245z" class="color c4"/>
</svg>