<svg version="1.1" id="图层_1" x="0px" y="0px" width="200px" height="115.48px" viewBox="0 0 200 115.48" enable-background="new 0 0 200 115.48" xml:space="preserve" xmlns="http://www.w3.org/2000/svg" xmlns:xlink="http://www.w3.org/1999/xlink" xmlns:xml="http://www.w3.org/XML/1998/namespace">
  <path fill="#8A42F8" d="M135.943,25.646C117.713,3.031,98.007,0,72.752,0H16.631l0.627,1.474
	c6.182,14.521,20.076,23.58,37.068,24.172h34.895c17.08,0,32.988,4.419,46.179,12.827l17.433,11.109
	C152.832,49.582,140.532,31.338,135.943,25.646z" class="color c1"/>
  <path fill="#5C2BD0" d="M90.021,16.502h-61.42c6.896,5.545,15.779,8.797,25.725,9.144h34.895c17.08,0,32.988,4.419,46.179,12.827
	l17.433,11.109c0,0-10.463-15.519-15.687-22.394C123.279,18.055,108.066,16.502,90.021,16.502z" class="color c2"/>
  <path fill="#1CACFC" d="M157.631,55.252c-23.48-29.129-48.861-33.033-81.39-33.033H3.959l0.809,1.899
	C12.73,42.818,30.623,54.488,52.51,55.252h44.942c21.998,0,42.487,5.689,59.478,16.52l22.451,14.31
	C179.381,86.081,163.539,62.582,157.631,55.252z" class="color c3"/>
  <path fill="#1964D4" d="M98.484,43.474H19.377c8.884,7.143,20.323,11.33,33.133,11.778h44.942c21.998,0,42.487,5.689,59.479,16.52
	l22.449,14.31c0,0-13.477-19.989-20.203-28.844C141.318,45.474,121.727,43.474,98.484,43.474z" class="color c4"/>
  <path fill="#2CDBF6" d="M178.25,84.653C154.771,55.525,129.389,51.62,96.86,51.62H0l0.808,1.898
	c7.964,18.7,25.856,30.368,47.744,31.134h69.521c21.998,0,42.488,5.69,59.479,16.52l22.45,14.31
	C200,115.481,184.158,91.982,178.25,84.653z" class="color c5"/>
</svg>