<svg version="1.1" id="图层_1" x="0px" y="0px" width="145.484px" height="173.939px" viewBox="0 0 145.484 173.939" enable-background="new 0 0 145.484 173.939" xml:space="preserve" xmlns="http://www.w3.org/2000/svg" xmlns:xlink="http://www.w3.org/1999/xlink" xmlns:xml="http://www.w3.org/XML/1998/namespace">
  <path fill="#FFFFFF" d="M123.996,21.124C110.264,7.489,92.085,0,72.748,0c-0.175,0-0.352,0.001-0.528,0.002
	C32.198,0.283-0.199,33.081,0.001,73.108c0.003,0.581,0.013,1.159,0.029,1.74c0.49,17.146,7.583,33.422,19.973,45.831l17.6,17.627
	l7.02-7.01l-7.058-7.394l6.17-5.89l6.926,7.256l7.532-7.521l-17.6-17.627c-7.125-7.135-11.201-16.405-11.477-26.099
	c-0.01-0.349-0.016-0.699-0.017-1.054c-0.121-24.02,19.316-43.7,43.327-43.869c0.106-0.001,0.211-0.001,0.317-0.001
	c11.603,0,22.514,4.494,30.752,12.674c8.314,8.256,12.893,19.255,12.893,30.971c0,0.301-0.003,0.601-0.009,0.898
	c-0.174,8.644-3.697,16.958-9.922,23.409l-54.702,56.686l6.837,6.598l6.454-6.779l6.177,5.882l-6.493,6.82l7.963,7.684
	l54.702-56.686c11.335-11.747,17.755-27.029,18.075-43.033c0.01-0.492,0.015-0.985,0.015-1.479
	C145.484,53.215,137.852,34.883,123.996,21.124z M85.472,144.469l-6.177-5.882l14.165-14.876l6.177,5.882L85.472,144.469z
	 M14.642,46.491l7.81,3.43c-2.565,5.841-4.055,12.031-4.428,18.399l-8.515-0.499C9.941,60.439,11.668,53.262,14.642,46.491z
	 M29.762,103.281l-6.488,5.537c-4.863-5.698-8.529-12.139-10.899-19.143l8.08-2.734C22.475,92.913,25.607,98.411,29.762,103.281z
	 M32.984,34.168l-6.161-5.9c5.118-5.345,11.063-9.706,17.668-12.961l3.771,7.652C42.553,25.773,37.412,29.544,32.984,34.168z
	 M85.332,19.109c-4.339-1.103-8.834-1.662-13.358-1.662l-0.391,0.001c-1.713,0.012-3.442,0.106-5.139,0.28l-0.872-8.486
	c1.966-0.202,3.968-0.311,5.952-0.325l0.45-0.001c5.233,0,10.434,0.648,15.459,1.925L85.332,19.109z M116.066,40.231
	c-3.699-5.205-8.239-9.679-13.496-13.296l4.835-7.027c6.083,4.185,11.335,9.361,15.613,15.382L116.066,40.231z M119.312,108.926
	l-5.512,5.789l-6.177-5.882l5.531-5.809c2.683-2.781,4.995-5.857,6.893-9.164l7.399,4.246
	C125.2,102.02,122.463,105.661,119.312,108.926z M134.533,72.77c-0.028,1.404-0.116,2.835-0.26,4.249l-8.486-0.868
	c0.121-1.183,0.194-2.379,0.217-3.555c0.007-0.372,0.011-0.74,0.011-1.107c0-4.798-0.628-9.556-1.868-14.142l8.234-2.226
	c1.436,5.312,2.164,10.818,2.164,16.368C134.546,71.917,134.542,72.344,134.533,72.77z" class="color c1"/>
</svg>