<svg version="1.1" id="图层_1" x="0px" y="0px" width="220px" height="220px" viewBox="0 0 220 220" enable-background="new 0 0 220 220" xml:space="preserve" xmlns:xml="http://www.w3.org/XML/1998/namespace" xmlns="http://www.w3.org/2000/svg" xmlns:xlink="http://www.w3.org/1999/xlink">
  <path fill="#0274B4" d="M118.439,22.576c-4.459-0.537-8.85,0.465-12.324,3.207c-2.338-3.508-7.832-5.271-11.655-4.766
	c-0.73,0.098-0.766,1.107,0,1.165c2.319,0.177,4.6,0.884,6.383,2.435c1.5,1.307,2.221,3.104,3.454,4.609
	c0.354,0.431,1.068,0.566,1.581,0.418c0.134-0.039,0.271-0.089,0.388-0.164c0.135-0.086,0.251-0.194,0.357-0.311
	c0.069-0.052,0.145-0.076,0.211-0.145c3.119-3.236,7.036-5.355,11.605-5.409C119.126,23.607,119.087,22.653,118.439,22.576z
	 M84.381,59.713c-2.787-0.337-5.532,0.291-7.705,2.005c-1.462-2.193-4.897-3.296-7.286-2.979c-0.457,0.061-0.479,0.692,0,0.729
	c1.45,0.111,2.875,0.553,3.989,1.523c0.938,0.816,1.39,1.939,2.16,2.881c0.222,0.27,0.669,0.354,0.988,0.261
	c0.083-0.024,0.169-0.056,0.243-0.103c0.084-0.053,0.157-0.121,0.223-0.194c0.044-0.032,0.09-0.048,0.132-0.089
	c1.95-2.024,4.399-3.35,7.256-3.383C84.811,60.357,84.786,59.762,84.381,59.713z M71.836,41.031
	c0.083-0.025,0.168-0.057,0.242-0.104c0.085-0.053,0.157-0.121,0.224-0.193c0.044-0.033,0.089-0.048,0.131-0.09
	c1.95-2.024,4.399-3.35,7.256-3.383c0.43-0.005,0.405-0.602,0-0.65c-2.788-0.336-5.532,0.291-7.704,2.006
	c-1.463-2.193-4.897-3.297-7.287-2.979c-0.456,0.06-0.479,0.69,0,0.727c1.45,0.111,2.874,0.553,3.989,1.523
	c0.938,0.816,1.39,1.939,2.161,2.881C71.067,41.039,71.515,41.123,71.836,41.031z M103.257,43.229
	c-2.258-0.272-4.482,0.235-6.242,1.624c-1.186-1.776-3.969-2.67-5.904-2.414c-0.37,0.05-0.39,0.561,0,0.591
	c1.175,0.089,2.329,0.448,3.232,1.234c0.761,0.661,1.126,1.571,1.751,2.334c0.179,0.218,0.54,0.287,0.8,0.212
	c0.068-0.02,0.138-0.045,0.197-0.084c0.069-0.043,0.127-0.098,0.181-0.156c0.035-0.026,0.073-0.039,0.107-0.073
	c1.58-1.64,3.564-2.714,5.879-2.74C103.605,43.752,103.585,43.27,103.257,43.229z M117.188,126.001
	c0.344-1.568,1.827-2.744,3.613-2.744c2.04,0,3.706,1.535,3.706,3.438c0-1.902-1.666-3.438-3.706-3.438
	C119.015,123.258,117.531,124.434,117.188,126.001z M102.817,126.695c0-1.664-1.26-3.049-2.942-3.369
	C101.557,123.646,102.817,125.03,102.817,126.695z M100.904,135.316l-27.74,71.877l27.74-71.879l0.213-0.553l0.172-0.445h0.001
	l-0.173,0.447L100.904,135.316z M128.494,125.549L128.494,125.549c0,4.081-2.896,7.521-6.939,8.768h-2.86l-0.001-0.002h2.861
	C125.598,133.07,128.494,129.629,128.494,125.549z M120.684,157.926l-0.217-0.918L120.684,157.926L120.684,157.926z M63.202,186.643
	v-0.002h12.617l-0.001,0.002H63.202z M99.13,130.15c1.531,0,2.839-0.872,3.397-2.112C101.969,129.277,100.66,130.15,99.13,130.15z
	 M94.993,96.864c0.622-2.765,3.314-4.839,6.571-4.839C98.308,92.025,95.616,94.099,94.993,96.864z M100.453,153.107l-1.173,4.818h0
	L100.453,153.107z M108.978,147.156h-7.394l0.939-3.555l-0.937,3.553h7.393h2.035h7.391v0.002h-7.393H108.978z M110.729,207.448
	h24.383v0.001h-24.385h-1.439h-24.41l0-0.001h24.411H110.729z M102.817,126.695c0,0.476-0.103,0.93-0.29,1.343
	c-0.559,1.239-1.867,2.112-3.397,2.112c-2.041,0-3.688-1.553-3.688-3.455c0-1.664,1.261-3.049,2.943-3.369
	c0.241-0.045,0.49-0.069,0.745-0.069s0.504,0.024,0.745,0.069C101.557,123.646,102.817,125.031,102.817,126.695z M117.113,126.695
	c0-0.238,0.025-0.47,0.074-0.694c0.344-1.567,1.827-2.743,3.613-2.743c2.04,0,3.706,1.535,3.706,3.438
	c0,1.904-1.666,3.455-3.706,3.455C118.76,130.15,117.113,128.598,117.113,126.695z M103.559,87.953
	c0.001-1.296,1.234-2.344,2.77-2.344h7.271c1.539,0,2.771,1.048,2.771,2.344c0,1.295-1.232,2.344-2.771,2.344h-7.271
	C104.793,90.297,103.559,89.248,103.559,87.953z M94.858,104.645v-6.557c0-0.419,0.046-0.829,0.135-1.224
	c0.623-2.765,3.315-4.839,6.571-4.839h16.801c3.721,0,6.725,2.709,6.725,6.063v6.557c0,3.354-3.004,6.046-6.725,6.046h-16.801
	C97.842,110.691,94.858,107.999,94.858,104.645z M110,0C49.249,0,0,49.248,0,110c0,19.813,5.247,38.393,14.414,54.445
	c0.002,0.004,0.004,0.008,0.006,0.012c1.495,2.618,3.094,5.168,4.792,7.646c0.049,0.07,0.099,0.143,0.148,0.213
	c1.655,2.402,3.402,4.735,5.238,6.996c0.106,0.131,0.214,0.261,0.321,0.392c1.794,2.188,3.67,4.304,5.625,6.346
	c0.167,0.175,0.336,0.349,0.505,0.522c1.918,1.977,3.909,3.883,5.97,5.712c0.228,0.202,0.457,0.403,0.687,0.604
	c1.024,0.894,2.06,1.775,3.117,2.633c0.028,0.021,0.055,0.045,0.083,0.065c3.481,2.815,7.139,5.42,10.952,7.799
	c0.094,0.06,0.188,0.119,0.283,0.179c1.092,0.676,2.193,1.338,3.31,1.977v-0.014v-6.805l0.124-0.193l7.627-11.889h12.617
	l-0.001,0.002h0.001l-7.802,18.446l-0.946,2.237h-8.33h-0.032c1.708,0.901,3.443,1.762,5.205,2.574
	c0.112,0.053,0.224,0.105,0.336,0.158c1.271,0.582,2.557,1.139,3.853,1.672c0.18,0.074,0.361,0.148,0.542,0.223
	c0.772,0.313,1.549,0.617,2.329,0.915l0.006-0.017l2.184-5.658l27.74-71.879l0.213-0.553l0.172-0.445h-2.917
	c-4.041-1.246-6.938-4.688-6.938-8.767v-0.001V92.922c0-5.135,4.582-9.271,10.271-9.271v0.001h16.518
	c5.69,0,10.271,4.137,10.271,9.271v32.626v0.001c0,4.08-2.896,7.521-6.939,8.767h-2.86l0.187,0.48l0.2,0.518l27.744,71.881
	l2.184,5.66l0.007,0.017c0.783-0.297,1.563-0.603,2.338-0.918c0.182-0.073,0.362-0.147,0.543-0.222
	c1.295-0.534,2.582-1.092,3.853-1.674c0.112-0.052,0.224-0.104,0.336-0.156c1.761-0.813,3.497-1.674,5.207-2.576h-0.034h-8.365
	l-0.938-2.227l-7.787-18.459h12.594h0.001l7.662,11.889l0.07,0.109l0.055,0.084v6.805v0.014c1.117-0.639,2.219-1.301,3.311-1.977
	c0.095-0.06,0.188-0.119,0.283-0.179c3.813-2.379,7.471-4.983,10.951-7.799c0.027-0.021,0.055-0.044,0.083-0.065
	c1.058-0.856,2.093-1.739,3.117-2.633c0.229-0.201,0.459-0.402,0.687-0.604c2.063-1.829,4.053-3.735,5.971-5.712
	c0.168-0.176,0.337-0.348,0.504-0.523c1.955-2.042,3.83-4.158,5.625-6.346c0.107-0.131,0.215-0.262,0.32-0.393
	c1.836-2.26,3.584-4.593,5.238-6.994c0.049-0.071,0.1-0.144,0.148-0.215c1.697-2.478,3.297-5.026,4.792-7.646
	c0.002-0.004,0.004-0.008,0.006-0.011C214.753,148.393,220,129.813,220,110C220,49.248,170.751,0,110,0z M80.17,175.867h-6.999
	v-3.782l3.748-5.3h7.453L80.17,175.867z M86.921,157.923h-3.72v-2.006l1.971-2.81h3.968L86.921,157.923z M93.6,137.979l0.713-0.979
	h1.368l-0.775,1.688H93.6V137.979z M92.815,143.602l-1.626,3.553h-2.75v-1.478l1.441-2.075H92.815z M106.886,83.155
	c-1.155,0-2.091-0.937-2.091-2.091s0.936-2.091,2.091-2.091c1.155,0,2.091,0.936,2.091,2.091S108.041,83.155,106.886,83.155z
	 M113.044,83.155c-1.155,0-2.091-0.937-2.091-2.091s0.936-2.091,2.091-2.091s2.091,0.936,2.091,2.091S114.199,83.155,113.044,83.155
	z M126.391,138.684h-1.312l-0.772-1.688h1.379l0.705,0.979V138.684z M127.18,143.602h2.908l1.477,2.075v1.478h-2.734L127.18,143.602
	z M130.846,153.109h3.955l1.985,2.809v2.009h-3.696L130.846,153.109z M146.843,175.867h-7.011l-4.213-9.082h7.479l3.745,5.3V175.867
	z M211.036,134.316h-69.468v-0.002v-28.128c0-17.488-14.104-31.561-31.614-31.561c-17.507,0-31.596,14.074-31.596,31.561h0.001
	v28.128h-0.001H8.964C7.085,126.443,6.111,118.297,6.111,110c0-27.75,10.807-53.838,30.429-73.461
	C56.161,16.918,82.25,6.111,110,6.111c4.336,0,8.631,0.264,12.868,0.784c1.694,0.208,3.38,0.458,5.054,0.747
	c2.512,0.434,5,0.959,7.46,1.575c18.042,4.51,34.589,13.833,48.078,27.323C203.082,56.162,213.889,82.25,213.889,110v0v0
	C213.889,118.297,212.915,126.443,211.036,134.316z M213.889,110L213.889,110c0,8.296-0.974,16.443-2.853,24.316h-69.468v-0.002
	h69.468C212.915,126.443,213.889,118.297,213.889,110z M141.568,106.185L141.568,106.185c0-17.487-14.104-31.56-31.614-31.56
	c-17.507,0-31.596,14.074-31.596,31.561v-0.001c0-17.488,14.089-31.561,31.596-31.561
	C127.464,74.624,141.568,88.698,141.568,106.185z M78.358,134.314v-28.128h0.001L78.358,134.314L78.358,134.314z M127.922,7.642
	c-1.674-0.29-3.359-0.539-5.054-0.747C124.563,7.103,126.248,7.352,127.922,7.642z M183.46,36.54
	c-13.489-13.49-30.036-22.814-48.078-27.324C153.424,13.726,169.971,23.05,183.46,36.54c19.622,19.622,30.429,45.71,30.429,73.46v0
	C213.889,82.25,203.082,56.163,183.46,36.54z M140.398,209.393l-22.893-74.076l-0.16-0.521l-0.148-0.479H102.78l-0.139,0.449
	l-0.17,0.551L79.57,209.383l-1.796,5.807l-0.002,0.01c1.142,0.35,2.292,0.678,3.449,0.99c0.211,0.057,0.422,0.115,0.635,0.172
	c1.327,0.35,2.664,0.676,4.011,0.978c0.229,0.052,0.46,0.101,0.69,0.15c1.377,0.299,2.762,0.577,4.157,0.823
	c0.108,0.021,0.218,0.035,0.326,0.055c1.363,0.236,2.735,0.447,4.115,0.633c0.172,0.023,0.343,0.05,0.516,0.072
	c1.388,0.181,2.786,0.33,4.19,0.459c0.265,0.023,0.53,0.049,0.796,0.07c1.392,0.116,2.791,0.211,4.197,0.274
	c0.233,0.013,0.467,0.019,0.7,0.026c1.476,0.06,2.957,0.098,4.446,0.098c1.488,0,2.971-0.038,4.445-0.098
	c0.232-0.01,0.467-0.016,0.699-0.026c1.406-0.063,2.806-0.158,4.197-0.274c0.266-0.021,0.531-0.047,0.797-0.07
	c1.403-0.129,2.801-0.278,4.189-0.459c0.172-0.022,0.344-0.049,0.516-0.072c1.381-0.186,2.752-0.396,4.115-0.633
	c0.107-0.02,0.218-0.034,0.326-0.055c1.396-0.246,2.779-0.524,4.156-0.823c0.23-0.05,0.461-0.101,0.69-0.15
	c1.347-0.302,2.685-0.628,4.011-0.978c0.213-0.057,0.424-0.115,0.635-0.172c1.146-0.311,2.287-0.635,3.416-0.98l-0.002-0.009
	L140.398,209.393z M105.287,136.996L105.287,136.996h3.695h0.001h2.033h3.694l0.284,1.688h-3.98h-2.031h-0.001h-3.954h-0.001
	L105.287,136.996z M102.523,143.602h6.456h2.033h0.002h6.452h0.001l0.938,3.553l0,0v0.002h-7.393h-2.034h-7.394L102.523,143.602z
	 M99.28,157.926l1.173-4.818h8.835h1.438h0.002h8.819h0.001l0.918,3.9l0.217,0.918l0,0v0.001h-9.955h-1.44L99.28,157.926
	L99.28,157.926L99.28,157.926z M96.844,166.785h12.444h1.442h12.42l1.899,9.082h-0.001H110.73h-1.439H94.934L96.844,166.785z
	 M135.111,207.449h-24.385h-1.439h-24.41l0-0.001h0l5.916-20.808h18.495h1.438h0.002h18.442h0.001L135.111,207.449L135.111,207.449
	L135.111,207.449z M105.028,138.684L105.028,138.684l0.259-1.688h0.001L105.028,138.684z M118.404,147.154l-0.938-3.553h0.001
	L118.404,147.154L118.404,147.154z M120.467,157.008l-0.919-3.9h0.001L120.467,157.008z M99.28,157.927L99.28,157.927l10.008-0.001
	h1.438h9.957v0.001h-9.955h-1.44H99.28z M135.111,207.448L135.111,207.448l-5.94-20.808h0.001L135.111,207.448z M90.793,186.641
	l-5.916,20.808h0L90.793,186.641z M125.049,175.867l-1.898-9.082L125.049,175.867L125.049,175.867z M58.741,207.326h-0.032
	c0,0-0.001-0.001-0.002-0.001L58.741,207.326l8.33-0.001l0.946-2.237l7.801-18.445h0.001l-7.802,18.446l-0.946,2.237H58.741z
	 M164.424,198.529l0.07,0.109l-0.07-0.107l-7.663-11.891h0.001L164.424,198.529z M99.13,130.15c-2.041,0-3.689-1.551-3.688-3.455
	C95.442,128.598,97.089,130.15,99.13,130.15z M102.527,128.038c0.187-0.413,0.289-0.867,0.29-1.343
	C102.817,127.171,102.714,127.625,102.527,128.038z M98.385,123.326c-1.682,0.32-2.943,1.704-2.943,3.369
	C95.442,125.031,96.703,123.646,98.385,123.326z M120.801,130.152c-2.041,0-3.688-1.553-3.688-3.457
	c0,1.902,1.646,3.455,3.688,3.455c2.04,0,3.706-1.551,3.706-3.455C124.507,128.6,122.841,130.152,120.801,130.152z M103.559,87.953
	c0,1.295,1.234,2.344,2.77,2.344C104.792,90.297,103.559,89.248,103.559,87.953z M103.559,87.953c0-1.296,1.234-2.344,2.77-2.344
	C104.793,85.609,103.56,86.657,103.559,87.953z M118.693,134.316L118.693,134.316l0.188,0.48l0.2,0.518l27.744,71.881l2.184,5.66
	l-2.184-5.658l-27.744-71.881l-0.2-0.519L118.693,134.316z M101.29,134.314l-0.001,0.002h-2.917
	c-4.041-1.246-6.938-4.688-6.938-8.767v-0.001c0,4.078,2.896,7.52,6.938,8.766H101.29z" class="color c1"/>
</svg>