<svg version="1.1" id="图层_1" x="0px" y="0px" width="180px" height="130.471px" viewBox="0 0 180 130.471" enable-background="new 0 0 180 130.471" xml:space="preserve" xmlns="http://www.w3.org/2000/svg" xmlns:xlink="http://www.w3.org/1999/xlink" xmlns:xml="http://www.w3.org/XML/1998/namespace">
  <path fill="#393637" d="M148.622,48.941l-2.829-0.564c-1.189-3.04-2.831-5.939-4.88-8.651l0.28-0.085
	c-2.554-3.246-5.705-6.211-9.332-8.828c-7.614-5.719-17.453-9.83-28.495-11.582L91.635,0L81.206,18.96
	C60.982,21.641,44.5,32.19,37.854,46.141L0,55.064l35.032,9.973l0.105,0.026c0.493,2.896,1.389,5.7,2.651,8.38l-0.069,0.018
	c1.009,2.127,2.274,4.165,3.728,6.119c0.043,0.059,0.085,0.117,0.129,0.175c0.335,0.445,0.678,0.886,1.035,1.321
	c0.325,0.401,0.664,0.796,1.007,1.188c0.153,0.172,0.297,0.349,0.454,0.519c7.752,8.593,19.733,14.944,33.77,17.463l10.643,30.225
	l13.426-28.4l0.754-1.459c3.8-0.566,7.461-1.412,10.944-2.506l0.002,0.029c18.828-5.695,32.545-18.463,34.751-33.736L180,56.098
	L148.622,48.941z M90.001,83.428c-20.33,0-36.812-11.844-36.812-26.451s16.481-26.449,36.812-26.449
	c20.329,0,36.811,11.842,36.811,26.449S110.331,83.428,90.001,83.428z" class="color c1"/>
</svg>