<svg version="1.1" id="图层_1" x="0px" y="0px" width="431.451px" height="431.451px" viewBox="0 0 431.451 431.451" enable-background="new 0 0 431.451 431.451" xml:space="preserve" xmlns="http://www.w3.org/2000/svg" xmlns:xlink="http://www.w3.org/1999/xlink" xmlns:xml="http://www.w3.org/XML/1998/namespace">
  <path fill="#D02228" d="M61.877,64.669C101.045,24.785,155.541,0,215.726,0c118.951,0,215.726,96.773,215.726,215.726
	c0,6.99-0.345,13.899-0.994,20.722c-33.844,1.908-71.714,1.534-107.069-4.188C224.195,216.129,126.614,96.372,102.42,75.001
	C90.273,64.089,74.458,63.064,61.877,64.669z M281.451,374.193c-51.611-5.646-106.451-12.5-158.468-20.968
	c26.613-2.017,77.419-10.08,83.871-11.29l203.93-33.988c3.084-6.512,5.849-13.201,8.278-20.05L211.693,322.58
	c0,0-76.21,12.5-92.741,10.889c-16.532-1.21-38.307-21.774-38.307-21.774l48.79-17.339L45.797,82.977
	C17.118,119.607,0,165.705,0,215.726c0,118.952,96.371,215.726,215.726,215.726c53.414,0,102.215-19.392,139.844-51.468
	C331.831,378.86,306.942,377.025,281.451,374.193z" class="color c1"/>
</svg>