<svg version="1.1" id="图层_1" x="0px" y="0px" width="92.231px" height="102.019px" viewBox="0 0 92.231 102.019" enable-background="new 0 0 92.231 102.019" xml:space="preserve" xmlns="http://www.w3.org/2000/svg" xmlns:xlink="http://www.w3.org/1999/xlink" xmlns:xml="http://www.w3.org/XML/1998/namespace">
  <path fill="#FFFFFF" d="M16.579,81.425c-0.372-0.311-0.736-0.629-1.098-0.951c-0.284-0.254-0.562-0.512-0.837-0.771
	c-0.362-0.338-0.724-0.672-1.074-1.021c-0.172-0.174-0.334-0.354-0.502-0.527c-0.708-0.729-1.389-1.479-2.047-2.252
	c-0.217-0.256-0.435-0.51-0.646-0.77c-0.336-0.41-0.663-0.826-0.983-1.246c-0.188-0.25-0.37-0.504-0.553-0.756
	c-1.082-1.484-2.076-3.033-2.978-4.643c-0.135-0.242-0.271-0.484-0.403-0.729c-0.271-0.506-0.535-1.016-0.787-1.533
	c-0.105-0.217-0.204-0.436-0.309-0.654c-0.817-1.74-1.529-3.541-2.128-5.391c-0.076-0.234-0.152-0.469-0.223-0.705
	c-0.179-0.582-0.349-1.168-0.504-1.76c-0.046-0.18-0.087-0.361-0.133-0.541c-0.316-1.277-0.585-2.572-0.793-3.887
	c-0.01-0.07-0.024-0.141-0.036-0.211c-0.096-0.625-0.171-1.254-0.241-1.887c-0.026-0.246-0.053-0.492-0.076-0.74
	c-0.06-0.631-0.112-1.262-0.146-1.9c-0.008-0.153-0.01-0.309-0.017-0.462C0.039,47.43,0,46.772,0,46.107C0,20.747,20.747,0,46.108,0
	c0.002,0,0.005,0,0.009,0c0.002,0,0.005,0,0.007,0c25.358,0,46.107,20.747,46.107,46.107c0,25.359-20.749,46.107-46.107,46.107
	c-0.002,0-0.005,0-0.007,0c-0.004,0-0.007,0-0.009,0c-0.706,0-1.406-0.02-2.103-0.051l-22.668,9.855l2.043-15.834
	c-0.222-0.127-0.432-0.271-0.652-0.402c-0.373-0.221-0.741-0.449-1.107-0.682c-0.382-0.24-0.764-0.479-1.139-0.73
	c-0.464-0.313-0.916-0.639-1.367-0.969c-0.54-0.393-1.069-0.797-1.591-1.211C17.207,81.937,16.89,81.687,16.579,81.425z" class="color c1"/>
</svg>