<svg version="1.1" id="图层_1" x="0px" y="0px" width="158.966px" height="200px" viewBox="0 0 158.966 200" enable-background="new 0 0 158.966 200" xml:space="preserve" xmlns="http://www.w3.org/2000/svg" xmlns:xlink="http://www.w3.org/1999/xlink" xmlns:xml="http://www.w3.org/XML/1998/namespace">
  <path fill="#044D8D" d="M158.966,83.898h-29.843c-2.188,25.399-23.635,45.512-49.57,45.536
	c-27.376-0.023-49.766-22.428-49.766-49.81c0-26.308,20.673-48.009,46.576-49.692V0c-0.151,0.007-0.304,0.012-0.456,0.019
	c-0.139,0.007-0.279,0.01-0.418,0.017l0.001,0.004C26.37,2.479-6.954,48.352,1.238,93.051L1.11,93.066
	c1.255,7.206,3.549,14.407,7.002,21.424c12.453,26.568,53.961,66.416,71.395,85.51c0.014-0.018,0.031-0.035,0.045-0.051
	c0.016,0.016,0.031,0.033,0.046,0.051c17.434-19.094,58.941-58.941,71.395-85.51c3.453-7.018,5.747-14.219,7.002-21.424
	l-0.128-0.016C158.426,90.001,158.785,86.945,158.966,83.898z" class="color c1"/>
</svg>