<svg version="1.1" id="图层_1" x="0px" y="0px" width="170px" height="105.008px" viewBox="0 0 170 105.008" enable-background="new 0 0 170 105.008" xml:space="preserve" xmlns="http://www.w3.org/2000/svg" xmlns:xlink="http://www.w3.org/1999/xlink" xmlns:xml="http://www.w3.org/XML/1998/namespace">
  <path fill="#020202" d="M68.063,0c0,0-86.359,13.35-44.14,44.265c0,0,38.595,25.174,34.977,35.604c0,0-0.146,14.899-58.899,25.141
	h165.325c0,0,31.574-21.053-69.395-54.867C95.932,50.142-5.643,18.146,68.063,0z" class="color c1"/>
  <path fill="#E5BC1B" d="M68.063,0c0,0-64.706,13.098-35.771,34.416c0,0,13.377,11.144,32.934,19.57c0,0,43.396,21.196,36.172,32.718
	c0,0-7.933,13.469-35.965,18.305H129.3c0,0,26.171-13.313-6.036-30.854l-54.776-26c0,0-37.163-14.696-37.88-25.096
	C30.607,23.06,26.353,9.928,68.063,0z" class="color c2"/>
</svg>