<svg version="1.1" id="图层_1" x="0px" y="0px" width="145.694px" height="43.988px" viewBox="0 0 145.694 43.988" enable-background="new 0 0 145.694 43.988" xml:space="preserve" xmlns="http://www.w3.org/2000/svg" xmlns:xlink="http://www.w3.org/1999/xlink" xmlns:xml="http://www.w3.org/XML/1998/namespace">
  <g>
    <path fill="#0A0A0A" d="M145.5,1.383c-0.576-1.093-3.025-1.99-5.164-0.863c-0.148,0.078-23.451,12.373-25.316,13.359l-8.461-2.596
		c-0.148-0.053-0.324-0.031-0.469,0.045c-0.086,0.045-0.158,0.109-0.209,0.188l-0.82,1.271c-0.135,0.213-0.104,0.531,0.074,0.709
		c0,0,0,0,5.133,4.463c0.301,0.262,0.633,0.48,0.982,0.669c-18.929,8.519-58.559,23.157-97.24,17.396
		c-11.75-1.75,4.001-10.666,4.001-10.666s-17,5.668-18,13c-0.944,6.922,57.795,13.389,112.882-19.116
		c2.604,0.615,5.738-0.064,7.787-1.147l4.643-2.457l-2.598,7.463c0.008,0.219,0.219,0.379,0.471,0.354l2.205-0.127
		c0.254-0.027,0.535-0.225,0.629-0.445l8.445-12.084l8.826-4.668C145.377,5.032,146.075,2.477,145.5,1.383z" class="color c1"/>
    <path fill="#0A0A0A" d="M120.776,9.463c2.533-1.338,5.518-2.912,8.359-4.41l-12.453,0.153c-0.234-0.048-0.557,0.073-0.721,0.267
		l-1.348,1.752c-0.162,0.193-0.15,0.457,0.029,0.588L120.776,9.463z" class="color c1"/>
  </g>
</svg>