<svg version="1.1" id="图层_1" x="0px" y="0px" width="210px" height="99.652px" viewBox="0 0 210 99.652" enable-background="new 0 0 210 99.652" xml:space="preserve" xmlns="http://www.w3.org/2000/svg" xmlns:xlink="http://www.w3.org/1999/xlink" xmlns:xml="http://www.w3.org/XML/1998/namespace">
  <path fill="#E10714" d="M210,0c-1.813,0.661-3.882,1.402-6.156,2.298c-2.943,1.241-6.264,2.643-9.886,4.17
	c-0.903,0.383-1.828,0.771-2.769,1.17c-0.926,0.433-1.869,0.873-2.83,1.321c-1.914,0.901-3.895,1.836-5.93,2.794
	c-2.023,0.983-4.146,1.891-6.232,3.004c-2.098,1.083-4.242,2.189-6.422,3.313c-2.168,1.147-4.418,2.215-6.608,3.476
	c-2.205,1.229-4.437,2.471-6.685,3.723c-4.527,2.442-8.975,5.207-13.479,7.852c-2.259,1.312-4.463,2.718-6.667,4.104
	c-2.204,1.383-4.397,2.762-6.575,4.13c-4.296,2.828-8.541,5.577-12.584,8.338c-4.027,2.783-7.945,5.431-11.57,8.071
	c-1.82,1.307-3.591,2.577-5.305,3.809c-1.694,1.256-3.331,2.469-4.902,3.632c-3.154,2.313-5.965,4.531-8.497,6.444
	c-1.476,1.168-2.833,2.225-4.072,3.2c22.211,4.611,45.972,12.253,67.313,24.807C150.145,99.652,147.923,34.152,210,0z" class="color c1"/>
  <path fill="#E10714" d="M188.857,3.308C175.743,5.113,119.354,15.936,0,68.535c0,0,31.026-2.379,69.701,3.889
	c0.145-0.106,0.285-0.21,0.458-0.338C70.159,72.086,132.381,24.929,188.857,3.308z" class="color c1"/>
</svg>