<svg version="1.1" id="图层_1" x="0px" y="0px" width="206.5px" height="137.1px" viewBox="0 0 206.5 137.1" enable-background="new 0 0 206.5 137.1" xml:space="preserve" xmlns:xml="http://www.w3.org/XML/1998/namespace" xmlns="http://www.w3.org/2000/svg" xmlns:xlink="http://www.w3.org/1999/xlink">
  <path fill="#092141" d="M126.7,54.4L108.1,58.1L107.4,37.8c0-1.8,0.8-2.6,2.5-3l0.399-0.4L110.4,34l23.5-5
	c1.699-0.4,3.3,0.6,3.899,2.1l8.4,22.7l-0.2,0.5c0.6,1.7-3.6,2.7-5.3,3.1l-5.9,0.801c-1.2,0.199-0.1,0.5-1-0.4l-1.8-1
	C130.9,55.5,128.5,54.1,126.7,54.4z M142.4,28.3c4.1,8.9,8.3,18,11.3,27.5c0.8,2.4,2,2.8,4.5,3.2c11.899,2,25.2,7.7,36,8.3
	c1.1,0.1,1.2-0.9,0.8-1.9c-0.2-0.399,0.2-0.899,0-1.3c0,0,0,0,0-0.1c-4.6-9.4-9.2-17.8-13.8-23.7c-1.2-1.5-2.8-2.7-4.601-3.3
	c-11.1-4.101-20.699-7.3-30.5-9.5c-1-0.2-2-0.2-3-0.4C142.2,27,142,27.5,142.4,28.3z M146.6,84.5l-11.3,1.3v8.8l11.3-0.6V84.5z
	 M114.7,74.1v-3.8l-5.7,1.3v3.2L114.7,74.1z M179.5,83.1c0,1.3,0.9,2.4,1.9,2.4s1.899-1.101,1.899-2.4S182.4,80.7,181.4,80.7
	C180.3,80.7,179.5,81.8,179.5,83.1z M180.6,115.9c0,0.5,0.101,0.9,0.101,1.4c0,10-7.5,18-16.8,18c-8.2,0-15.101-6.3-16.5-14.7h-11.9
	c-1.7,9.4-9.1,16.4-18.1,16.4c-8.7,0-15.9-6.601-17.9-15.5l-7.3,0.2v-6l-3.6-0.2L76,116.8c0.3,1.2,0.4,2.4,0.4,3.7
	c0,8.2-5.9,14.899-13.1,14.899c-7.2,0-13.1-6.699-13.1-14.899c0-0.5,0-1,0.1-1.5L34.4,120.4c0,0,0,0,0,0.101
	c0,8.2-6.7,14.899-14.9,14.899C12.1,135.4,6,130,4.8,123L0,123.4l0.2-5.8L1,105.5l56.6-8l-57,3.7V100.9l76.1-15.5L0.8,94.3v-0.4
	L76.5,74.5L1.1,85.3v-0.4L77,63.1L1.3,76.4V76L77,53.2L1.6,68.1v-0.5l76.9-26L1.8,58.7v-0.5L76.7,31.6L2.1,49.9V49.5l76.4-29.3
	L2.3,41.5V41.4L78.4,9.9L2.5,33.2v-0.5L84.9,1.2v51.1h3.7V4.7c0-3.2,3.1-5.4,6.2-4.4L143.9,17.1l0.5,6.9H143.6
	c-5-0.101-10,0.5-14.8,1.899L104.2,33.2c-1.8,0.5-3.1,2.199-3.1,4.1L100.8,86l-5.5,4.8l20.601-2.4C124.6,88.2,130.4,90,133.6,98.9
	l18.101-0.8V84.6c15.2,0.2,31.5,2,49.399,6v11c4.301,0.4,4.2,4,5.5,15.101L180.6,115.9z M132.1,18.3l7.7,2.5v-2.6l-7.7-2.5V18.3z
	 M119.6,14.2l7.2,2.399V14l-7.2-2.4V14.2z M106.9,10L114.1,12.4V9.8L106.9,7.4V10z M17.5,126.9c-5.9-2.199-8.1-7.3-6.2-15.699
	C4.6,119.7,9.9,133.1,17.5,126.9z M93.9,5.7l7.6,2.5V5.6l-7.6-2.5V5.7z M121.3,125.3c-13-0.3-15.6-10.5-12.3-21.1
	C97.2,115.7,108,139.8,121.3,125.3z M197.2,97.2c0,1.6,0.6,2.899,1.399,2.899c0.801,0,1.4-1.3,1.4-2.899c0-1.601-0.6-2.9-1.4-2.9
	C197.9,94.3,197.2,95.6,197.2,97.2z M197.2,111h2.7v-6.7h-2.7V111z M193.9,96.8c0,1.6,0.6,2.9,1.399,2.9s1.4-1.301,1.4-2.9
	s-0.601-2.9-1.4-2.9S193.9,95.2,193.9,96.8z M169.2,91.9l23.2,2.301L192.6,92.4L169.4,90.1L169.2,91.9z M169.1,95.4l23.101,1.7
	l0.1-1.8l-23.1-1.7L169.1,95.4z M153.2,115.2h-0.8v0.3C152.7,115.4,153,115.3,153.2,115.2z M160.4,94.3c0-1.8-0.801-3.2-1.801-3.2
	s-1.8,1.4-1.8,3.2s0.8,3.2,1.8,3.2S160.4,96,160.4,94.3z M166.1,94.3c0-1.8-0.8-3.2-1.8-3.2s-1.8,1.4-1.8,3.2s0.8,3.2,1.8,3.2
	S166.1,96,166.1,94.3z M171.5,101.9H167v7.301h4.5V101.9z M192.1,100.2L192.2,98.4l-23-1.1l-0.101,1.8L192.1,100.2z M180.6,111.8
	H190.7v-7.5H180.6V111.8z" class="color c1"/>
  <path fill="#6792D8" d="M146.4,53.9c0.6,1.7-0.4,3.5-2.101,3.801L135,59.6c-1.2,0.2-2.4-0.1-3.3-1l-0.5-0.6c-1.2-1.2-3-1.8-4.7-1.5
	L106.9,60V37.8c0-1.8,1.3-3.4,3-3.7L110.6,34v21.2l15.7-2.801c4.3-0.699,6.3,1.801,7.9,4.2l12-2.7H146.4z M195.7,65.5
	c-0.2-0.5-0.5-0.9-0.7-1.4l-35.5-7c-1.3-0.3-2.5-1.2-2.9-2.5L146,27.5c-1-0.2-2-0.5-3-0.7c-0.9-0.2-1.6,0.7-1.2,1.5
	c4.101,9,7.8,18.2,10.8,27.8c0.801,2.5,2.9,4.3,5.4,4.7c12,2,25.5,6.2,36.3,6.8C195.4,67.7,196.2,66.5,195.7,65.5z" class="color c2"/>
</svg>