<svg version="1.1" id="图层_1" x="0px" y="0px" width="87.938px" height="95.063px" viewBox="0 0 87.938 95.063" enable-background="new 0 0 87.938 95.063" xml:space="preserve" xmlns="http://www.w3.org/2000/svg" xmlns:xlink="http://www.w3.org/1999/xlink" xmlns:xml="http://www.w3.org/XML/1998/namespace">
  <g>
    <path fill="#4E1A00" d="M43.67,81.913c0.154,0.018,0.309,0.034,0.461,0.053c0.438,4.316,0.879,8.647,1.332,13.097
		c4.832-4.909,13.451-11.474,26.274-13.635c2.826-5.991,6.31-11.69,9.503-17.51c2.231-4.07,4.385-8.187,6.696-12.516
		C75.207,45.277,63.048,38.757,49.47,35.682c-2.061-0.467-4.275-1.214-6.264-0.887C27.8,37.336,14.014,44.132,0,51.458
		c3.44,6.273,6.728,12.313,10.059,18.327c2.105,3.799,4.174,7.61,6.033,11.516c12.386,1.473,21.053,6.94,26.444,11.715
		C42.918,89.283,43.293,85.596,43.67,81.913z" class="color c1"/>
  </g>
  <path fill="#4E1A00" d="M74.489,17.342c-5.858,0-11.483,0-17.471,0c0-2.704,0-5.071,0-7.621c-3.994,0-7.623,0-11.797,0
	c0-3.493,0-6.594,0-9.721c-0.563,0-1.07,0-1.57,0s-1.006,0-1.567,0c0,3.127,0,6.228,0,9.721c-4.175,0-7.803,0-11.798,0
	c0,2.55,0,4.917,0,7.621c-5.985,0-11.612,0-17.471,0c0,1.586,0,2.842,0,3.849c1.604,1.432,3.088,2.759,4.922,4.396
	c-0.393,1.448,2.026,4.581-2.459,4.881c0,2.958,0,5.866,0,9.083c0.868-0.262,1.601-0.471,2.324-0.703
	c0.288-0.094,0.552-0.256,0.836-0.364c12.192-4.694,18.625-6.998,25.212-6.914c6.588-0.084,13.021,2.22,25.213,6.914
	c0.285,0.108,0.55,0.271,0.837,0.364c0.725,0.232,1.454,0.442,2.323,0.703c0-3.217,0-6.125,0-9.083
	c-4.483-0.3-2.065-3.433-2.459-4.881c1.834-1.638,3.318-2.965,4.924-4.396C74.489,20.184,74.489,18.929,74.489,17.342z M32.5,30.01
	c-2.825,0-5.491,0-8.198,0c0-1.815,0-3.396,0-5.149c2.748,0,5.34,0,8.198,0C32.5,26.713,32.5,28.292,32.5,30.01z M48.229,30.043
	c-1.557,0-3.059,0-4.578,0c-1.518,0-3.021,0-4.579,0c0-1.757,0-3.325,0-5.177c1.597,0,3.101,0,4.579,0c1.479,0,2.986,0,4.578,0
	C48.229,26.718,48.229,28.286,48.229,30.043z M63.002,30.01c-2.707,0-5.373,0-8.199,0c0-1.718,0-3.297,0-5.149
	c2.857,0,5.451,0,8.199,0C63.002,26.615,63.002,28.194,63.002,30.01z" class="color c1"/>
</svg>