<svg version="1.1" id="图层_1" x="0px" y="0px" width="203.713px" height="203.661px" viewBox="0 0 203.713 203.661" enable-background="new 0 0 203.713 203.661" xml:space="preserve" xmlns="http://www.w3.org/2000/svg" xmlns:xlink="http://www.w3.org/1999/xlink" xmlns:xml="http://www.w3.org/XML/1998/namespace">
  <path fill="#184870" d="M198.354,97.967c-4.601-0.261-17.012,2.294-18.652,1.933l-3.047-1.652l-0.856,0.805l-1.842-0.106l0.004-0.72
	l-4.085-0.035l-0.02-0.564l-0.508-0.008c-0.897-15.178-6.808-28.992-16.08-39.889l0.247-0.253l-0.224-0.247l2.918-2.848
	l-0.457-0.484l1.246-1.355l1.159-0.035l1.091-3.367c0.917-1.354,11.605-8.152,14.756-11.582c3.156-3.395,1.221-6.361,0.506-7.048
	c-0.714-0.777-3.628-2.729-7.113,0.313c-3.488,3.091-10.5,13.718-11.824,14.616l-3.358,1.032l-0.102,1.112l-1.332,1.223
	l-0.498-0.471l-2.937,2.881l-0.668-0.678l-0.72,0.246c-10.479-9.269-24.524-15.348-39.197-16.714l0.033-4.01l-0.734-0.104
	l-0.07-1.933l0.827-0.863l-1.641-3.107c-0.285-1.63,2.472-14.006,2.256-18.671c-0.229-4.576-3.662-5.375-4.695-5.383
	c-0.99-0.008-4.499,0.724-4.71,5.297c-0.312,4.66,2.208,17.076,1.927,18.702l-1.698,3.063l0.778,0.858l-0.113,1.882l-0.695-0.009
	l-0.698,4.019l-1.67,0.035v0.044l-4.838,0.59c-13.053,1.961-24.474,7.738-34.016,16.013l-2.78-2.998l-0.437,0.466l-1.268-1.246
	l-0.017-1.12l-3.355-1.09c-1.36-0.915-8.128-11.661-11.593-14.819c-3.373-3.102-6.348-1.204-7.076-0.434
	c-0.74,0.672-2.735,3.604,0.37,7.057c3.077,3.483,13.67,10.469,14.549,11.837l1.052,3.385l1.151,0.054l1.219,1.379l-0.515,0.476
	l2.929,2.929C41.418,67.28,35.289,81.419,34.181,97.003l-4.336-0.035l-0.008,0.722l-1.842,0.069l-0.84-0.816l-3.132,1.598
	c-1.582,0.336-14.016-2.435-18.624-2.258C0.777,96.45,0.01,99.948,0,101.021c-0.008,0.945,0.699,4.455,5.315,4.705
	c4.603,0.26,17.083-2.242,18.66-1.931l3.101,1.649l0.86-0.809l1.838,0.15l-0.003,0.686l4.34,0.033
	c0.843,15.6,6.85,29.715,16.461,40.813l-3.105,2.998l0.507,0.529l-1.244,1.344l-1.153,0.041l-1.107,3.318
	c-0.904,1.318-11.616,8.195-14.759,11.59c-3.162,3.395-1.218,6.402-0.489,7.094c0.722,0.699,3.658,2.689,7.088-0.367
	c3.518-3.086,10.478-13.629,11.854-14.596l3.385-0.949l0.053-1.156l1.338-1.281l0.51,0.475l3.068-2.99
	c10.922,9.822,24.93,16.076,40.49,17.184l-0.039,4.318l0.693,0.004l0.084,1.842l-0.805,0.854l1.655,3.086
	c0.244,1.637-2.48,14.043-2.257,18.705c0.132,4.615,3.63,5.293,4.62,5.303c1.03,0.008,4.477-0.607,4.785-5.225
	c0.298-4.652-2.248-17.104-1.926-18.729l1.691-3.066l-0.805-0.869l0.098-1.836l0.729,0.696l0.035-3.371h0.083l0.005-0.734
	c15.143-0.928,29.04-7.139,39.897-16.451l0.223,0.037l0.674-0.733l2.894,2.854l0.506-0.488l1.313,1.298l0.073,1.149l3.344,1.009
	c1.305,0.99,8.13,11.648,11.567,14.801c3.431,3.109,6.379,1.174,7.104,0.488c0.726-0.682,2.723-3.652-0.377-7.102
	c-3.093-3.445-13.661-10.512-14.558-11.85l-1.03-3.34l-1.165-0.053l-1.217-1.373l0.47-0.518l-2.844-2.877l0.174-0.176l-0.214-0.297
	c9.462-10.703,15.613-24.451,16.768-39.625l0.512,0.009l0.03-0.597l4.086,0.035l0.002-0.686l1.847-0.115l0.842,0.822l3.086-1.597
	c1.64-0.282,14.003,2.437,18.611,2.261c4.688-0.172,5.435-3.668,5.439-4.613C203.725,101.729,203.036,98.216,198.354,97.967z
	 M101.856,155.235c-29.495,0-53.406-23.912-53.406-53.406c0-29.496,23.911-53.407,53.406-53.407s53.406,23.911,53.406,53.407
	C155.263,131.323,131.352,155.235,101.856,155.235z" class="color c1"/>
</svg>