<svg version="1.1" id="图层_1" x="0px" y="0px" width="189.73px" height="220.057px" viewBox="0 0 189.73 220.057" enable-background="new 0 0 189.73 220.057" xml:space="preserve" xmlns="http://www.w3.org/2000/svg" xmlns:xlink="http://www.w3.org/1999/xlink" xmlns:xml="http://www.w3.org/XML/1998/namespace">
  <path fill="#0A0205" d="M79.976,116.618l-1.877,37.745v-36.995L79.976,116.618z M42.171,83.191
	c-1.881-3.821-2.057-8.909-2.057-8.909s6.492,1.426,17.322,9.504c10.83,8.077,26.152,13.581,27.322,21.58
	c1.168,7.997-33.4,0.811-33.4,0.811s0.932,12.058,15.996,21.759c4.336-9.286,9.324-10.077,9.324-10.077s-1.504,32.746-2.078,51.495
	c-0.594,18.748,0.871,27.123,0.871,27.123c-19.105-19.562-13.502-53.771-9.127-66.066c-1.723-0.951-20.332-11.483-25.5-18.709
	c-5.406-7.583,2.596-4.415,3.842-10.908C45.935,94.279,44.034,86.993,42.171,83.191z M48.032,84.677c0,0,2.377,7.998,4.572,9.761
	c2.18,1.741,0.438,3.741,2.119,5.068c1.684,1.307,10.314,0.771,14.256,2.891c3.939,2.098,9.363,2.474,10.057,2.217
	c0.693-0.237-8.691-9.245-15.502-13.186c-6.811-3.939-8.928-3.939-8.928-3.939s2.098,9.324,7.443,10.631
	c0,0-4.139,0.415-7.387-4.336c-3.246-4.731-3.363-7.661-3.363-7.661L48.032,84.677z M50.726,125.19l-9.787-9.738
	c0,0-9.426,45.722,20.955,76.101C61.894,191.553,37.042,158.427,50.726,125.19z M52.604,127.783c0,0-8.5,15.748,5.914,42.911
	c0,0-9.164-17.831-2.748-40.577L52.604,127.783z M189.608,36.429l-2.02,4.752c-0.496,1.148-1.365,2.118-2.514,2.613
	c-6.553,2.792-13.918,2.97-20.57,0.476l-4.771-1.763l-16.195,14.116l9.521,3.207l0.219,6.494c0,0,20.451,8.474,21.006,9.008
	c0.535,0.535-0.059,3.009-1.387,4.949c-1.326,1.961-2.533,1.505-2.711,0.931c-0.158-0.594-13.443-6.553-16.115-7.424
	c-2.674-0.872-4.455,0.494-4.455,0.494s-0.197,5.088-2.059,8.909c-1.881,3.802-3.783,11.088-2.535,17.602
	c1.248,6.493,9.246,3.325,3.842,10.908c-5.168,7.226-23.777,17.758-25.5,18.709c4.275,11.998,9.701,44.803-7.721,64.582
	c-0.377,0.416-0.834,0.731-1.328,0.97c-0.654,0.336-1.385,0.515-2.117,0.515h-1.229c0.02,8.671,0,17.105,0.041,23.58H92.835
	c0.02-0.08,0.02-0.18,0.02-0.279v-68.579c0-0.079-0.059-0.158-0.139-0.158c-0.02,0-0.02,0-0.039,0
	c-4.336,0.218-7.721,3.802-7.721,8.157v60.205c0,0.218,0.02,0.455,0.059,0.654H78.7c0.078-20.729-0.258-61.533,1.523-66.106
	c0.91-2.315,3.188-3.96,5.703-5.108c2.434-1.128,5.068-1.742,7.701-1.9l-0.041-0.02c0,0,4.771-0.475,6.217-3.405
	c1.584-3.188-2.316-4.039-3.939-4.236c-0.08,0-0.178-0.021-0.258-0.021c0,0,0-0.02-0.02-0.02c-0.455-0.039-0.732-0.039-0.732-0.039
	s-7.682,0.119-12.412,6.115l0.533-29.319c0,0,3.545,0.99,5.781-0.455c1.129-0.732,1.781-1.346,2.594-1.782
	c0.811-0.415,1.762-0.673,3.504-0.673v-9.602c-2.455,0-4.91-1.703-6.217-5.108c-2.594-6.811-5.662-8.474-2.732-14.057
	c1.467-2.791,5.209-4.177,8.949-4.177V62.324c10.078,0,18.234-8.176,18.234-18.253c0-0.852-0.08-1.703-0.197-2.534
	c4.811-4.811,10.215-12.771,13.145-17.304c1.012-1.564,0.852-3.603-0.355-5.009C108.833-0.435,94.854,1.269,94.854,1.269
	S80.897-0.435,64.05,19.225c-1.229,1.406-1.387,3.444-0.377,5.009c2.93,4.533,8.355,12.493,13.145,17.304
	c-0.117,0.831-0.197,1.683-0.197,2.534c0,1.504,0.197,2.949,0.535,4.335c-3.465,2.831-8.434,6.791-12.018,9.049
	c-6.039,3.84-8.789,8.334-17.205,0.712l-0.297-0.257c0,0-7.207,11.047-7.521,16.372c0,0-1.803-1.366-4.477-0.494
	c-2.652,0.871-15.957,6.83-16.115,7.424c-0.156,0.574-1.365,1.03-2.711-0.931c-1.326-1.94-1.902-4.414-1.367-4.949
	c0.535-0.534,20.986-9.008,20.986-9.008l0.219-6.494l9.502-3.207L29.976,42.507l-4.75,1.763c-6.672,2.494-14.037,2.316-20.57-0.476
	c-1.168-0.495-2.039-1.465-2.533-2.613l-2-4.752c-0.258-0.613-0.1-1.326,0.414-1.742c4.238-3.425,9.543-5.246,14.988-5.107
	l5.781,0.118c1.365,0.039,2.67,0.555,3.682,1.465l23.936,21.402c0,0,7.484-4.177,7.859-8.256c0.219-2.336-2.969-5.979-2.969-10.869
	c0-3.584,1.703-7.801,7.662-12.69c0,0,15.264-20.749,33.379-20.749c9.068,0,17.402,5.188,23.48,10.375s9.898,10.374,9.898,10.374
	c14.137,11.562,4.316,19.501,4.693,23.56c0.375,4.079,7.879,8.256,7.879,8.256l23.916-21.402c1.01-0.91,2.316-1.426,3.682-1.465
	l5.781-0.118c5.445-0.139,10.771,1.683,15.008,5.107C189.708,35.103,189.866,35.815,189.608,36.429z M89.153,90.379
	c0.713,3.781,2.197,6.235,3.465,7.74c1.168,1.387,3.305,1.387,4.475,0c1.285-1.505,2.752-3.959,3.463-7.74
	C101.921,82.994,87.786,82.994,89.153,90.379z M141.677,84.677l-3.246,1.445c0,0-0.139,2.93-3.387,7.661
	c-3.246,4.751-7.383,4.336-7.383,4.336c5.363-1.307,7.443-10.631,7.443-10.631s-2.119,0-8.93,3.939
	c-6.811,3.94-16.174,12.948-15.502,13.186c0.693,0.257,6.137-0.119,10.057-2.217c3.941-2.119,12.572-1.584,14.256-2.891
	c1.684-1.327-0.061-3.327,2.117-5.068C139.302,92.675,141.677,84.677,141.677,84.677z M138.991,125.19
	c13.682,33.236-11.17,66.362-11.17,66.362c30.381-30.379,20.957-76.101,20.957-76.101L138.991,125.19z M137.112,127.783
	l-3.166,2.334c6.416,22.746-2.75,40.577-2.75,40.577C145.612,143.531,137.112,127.783,137.112,127.783z M94.858,86.53
	c-2.178,0-3.943,1.767-3.943,3.943c0,2.178,1.766,3.944,3.943,3.944s3.943-1.767,3.943-3.944
	C98.802,88.297,97.036,86.53,94.858,86.53z" class="color c1"/>
</svg>