<svg version="1.1" id="图层_1" x="0px" y="0px" width="181.411px" height="135.31px" viewBox="0 0 181.411 135.31" enable-background="new 0 0 181.411 135.31" xml:space="preserve" xmlns="http://www.w3.org/2000/svg" xmlns:xlink="http://www.w3.org/1999/xlink" xmlns:xml="http://www.w3.org/XML/1998/namespace">
  <path fill="#2B2B2B" d="M0,114.101c-0.006,11.668,9.451,21.141,21.126,21.145c11.668,0.006,21.137-9.453,21.141-21.121
	c0.003-6.311-2.772-11.959-7.161-15.834c1.468-0.059,2.339-0.072,2.339-0.072s8.375,12.236,12.557,16.264
	c4.189,4.021,12.57,4.701,17.096,4.703c4.526,0.002,36.371,0.35,39.892,0.357c3.512,0,8.373,0.672,8.373,0.672l14.607,2.42
	c3.266,7.451,10.695,12.674,19.352,12.676c11.67,0.01,21.141-9.447,21.145-21.115c0.002-5.07-1.783-9.721-4.756-13.363
	c0.064-0.02,0.107-0.033,0.107-0.033s15.756-4.346,15.592-5.688c-0.166-1.338-6.535-8.383-6.535-8.383s3.521-1.508,2.35-3.684
	c-1.168-2.178-5.525-7.545-7.871-9.059c-2.348-1.508-7.875-1.174-7.875-1.174l-6.365-6.041c0,0,1.848-8.879,1.516-11.73
	c-0.334-2.85-2.514-4.024-7.877-5.029c-5.363-1.013-18.602,2.167-24.973,3.845c-6.371,1.672-25.141,0.316-25.141,0.316
	c-2.416-0.15-4.203-0.652-5.693,0.991c-1.496,1.635-9.852,7.747-10.001,11.847c-0.149,4.102,5.513,7.979,5.513,7.979
	s3.502,4.994,5.141,11.264c1.641,6.26-0.828,8.797-5.526,13.266c-4.696,4.471-15.879,3.348-24.157,1.852
	c-8.271-1.494-13.266-12.309-15.502-16.412c-2.236-4.102-1.262-7.678-1.262-7.678s9.419-37.12,9.864-38.834
	c0.448-1.713,0.073-2.46,1.195-4.322C59.328,32.26,60,28.532,60,28.532s3.727,2.239,4.399,2.607c0.674,0.377,2.09,1.271,3.206-0.441
	c1.121-1.717-0.293-2.684-0.293-2.684l-5.863-3.02c-0.334-5.697-6.361-10.73-8.379-10.731c-0.103-0.001-0.248,0.005-0.407,0.01
	c0.849-1.955,2.228-4.89,2.412-5.13c0.235-0.302,0.734-0.564,0.928-0.121c0.19,0.442,2.485,4.64,2.667,5.018
	c0.188,0.383,1.352,1.101,1.352,1.101c1.602-3.168,0.508-15.091,0.297-15.137c-0.201-0.036-0.777,0.17-1.478,1.005
	c-0.698,0.826-3.267,5.79-3.267,5.79s0,0-0.906,1.259c-0.696,0.967-2.22,4.601-2.906,6.272c-3.648,0.272-12.259,1.268-12.259,1.268
	c-4.032,9.216,1.165,12.067,1.165,12.067l4.354,1.007l0.166,3.184c0,0,0,0-1.507,0.836c-1.508,0.841-4.029,6.37-5.871,10.558
	c-1.849,4.192-18.289,37.366-17.453,38.536c0.835,1.176,5.53,3.189,5.53,3.189s-5.528,1.168-13.75,4.18
	C3.93,92.167,0.234,104.232,0.234,104.232c0.883-0.488,1.9-0.928,3.015-1.334C1.206,106.146,0.003,109.982,0,114.101z
	 M42.608,27.242c-1.328-0.399-2.395-1.865-3.122-3.929c-0.727-2.062,0.535-6.383,0.535-6.383
	C42.416,20.526,42.608,27.242,42.608,27.242z M59.183,13.839c0,0,0.618-11.146,0.763-13.109c0,0,0.511,8.518-0.317,13.456
	L59.183,13.839z M54.205,9.665c0.41-0.994,1.305-1.85,1.854-2.256C56.606,7,57.186,6.793,57.337,7.438
	c0.157,0.654,0.043,1.877,0.043,1.877c-0.03,0.437-0.334-0.935-0.987-1.318C55.739,7.614,54.205,9.665,54.205,9.665z M87.93,101.718
	c0,0-2.011,2.895-3.139,3.521c-1.139,0.629-14.211,1.373-18.354,0.746c-4.147-0.635-7.416-4.152-10.054-7.047
	c0,0,6.155,5.408,10.553,5.66c4.403,0.252,15.012,0.379,17.223-0.238C86.373,103.74,87.93,101.718,87.93,101.718z M121.643,55.988
	c0,0-3.523,1.629-5.158,1.63c-1.635,0.003-20.611,1.623-23.756,1.874c-3.143,0.249,1.006-1.764,2.264-2.515
	c1.26-0.749,4.15-0.504,7.795,0.005c3.645,0.508,17.594-0.743,17.594-0.743L121.643,55.988z M152.303,66.31
	c0,0-26.771,0.112-34.818,1.492c-8.043,1.375-23.379,4.258-26.523,4.885c-3.144,0.627-4.27-0.127-4.27-0.127
	s8.795-1.125,13.825-2.379c5.029-1.26,15.965-4.137,24.264-4.266c8.293-0.118,24.008-1.87,26.268-3.123
	c2.268-1.26,4.152-6.913,4.152-6.913S155.325,61.659,152.303,66.31z M124.399,72.078l0.021-0.002
	c0.375-0.082,0.607-0.125,0.607-0.125l-0.607,0.125c-1.914,0.404-8.014,1.889-12.344,5.15c-5.186,3.908-6.42,21.238-6.42,21.238
	c-1.377-7.668,0.008-15.715,4.533-20.988C113.961,73.083,124.399,72.078,124.399,72.078z M171.526,81.109
	c0.338,0.674,2.346,3.436,2.346,3.436l-9.854-10.172c0,0,3.824,0.201,5.336,1.209c1.506,1.004,2.258,2.928,2.258,3.432
	C171.612,79.519,171.19,80.437,171.526,81.109z M138.983,69.32c7.539-0.5,9.805-0.877,13.316,1.893
	c3.521,2.766,13.951,13.58,13.951,13.58C152.758,73.318,138.983,69.32,138.983,69.32z M168.19,115.992
	c0.004-5.533-2.178-10.547-5.711-14.26c0.609-0.172,1.152-0.324,1.613-0.455c3.021,3.457,4.865,7.965,4.865,12.914
	c0,2.85-0.617,5.543-1.711,7.98C167.86,120.222,168.188,118.146,168.19,115.992z M137.999,122.554
	c5.789-0.445,18.707-1.225,19.969-2.088c1.596-1.092,1.598-3.131,1.594-3.469c0-0.094,0.047-0.65-0.432-1.205
	c0.006-0.004,3.752-1.506,3.498-1.838c-0.252-0.334-0.836-1.674-1.594-1.59c-0.748,0.078-2.898,0.969-2.898,0.969
	c-0.688-0.686-1.385-1.307-1.949-1.721c-1.047-2.781-3.705-4.766-6.85-4.768c-3.615-0.002-6.604,2.619-7.213,6.063
	c-1.879,0.42-3.92,0.891-5.715,1.346c0.424-0.869,0.801-1.693,1.08-2.406c0.975-2.484,12.457-6.352,20.5-8.791
	c3.314,2.58,5.455,6.602,5.453,11.135c-0.002,7.791-6.324,14.104-14.119,14.1C144.674,128.287,140.565,126.023,137.999,122.554z
	 M134.555,120.978c0,0,11.477-1.162,12.318-1.164c0.834,0,1.592,0.752,1.592,0.752c-0.338-0.084-11.98,1.006-12.82,0.918
	C134.803,121.396,134.555,120.978,134.555,120.978z M133.618,119.306c0,0,11.482-1.17,12.32-1.168s1.594,0.752,1.594,0.752
	c-0.336-0.078-11.98,1.002-12.822,0.918S133.618,119.306,133.618,119.306z M132.887,116.201c2.846-1.17,19.266-4.346,20.359-4.516
	c1.09-0.168,3.598,1.512,3.598,1.512C153.327,112.695,153.477,112.847,132.887,116.201z M126.77,106.392
	c0,0-8.301,1.627-11.691,1.25c-3.395-0.375-8.67-5.158-10.053-5.914c-1.385-0.75-5.908-0.5-8.795-0.883
	c-2.895-0.379,1.258-6.914,1.131-11.061c-0.125-4.146-6.023-14.33-6.023-14.33c2.416-0.254,15.965-3.514,15.965-3.514
	c-7.734,2.85-13.201,4.896-12.949,5.527c0.252,0.623,3.012,6.783,4.521,10.182c1.506,3.393,0.619,7.041-0.512,10.313
	c-1.133,3.262,5.908,1.883,7.795,2.514c1.883,0.629,6.654,4.65,9.674,5.531c3.016,0.887,52.422-7.262,48.971-6.217
	C161.358,100.839,126.77,106.392,126.77,106.392z M47.455,106.351c6.156,4.277,11.438,7.801,17.133,8.055
	c5.698,0.256,29.663,0.096,35.864-0.064c6.205-0.162,18.604,1.184,18.604,1.184l-4.527,2.68c0,0-8.879-0.762-13.279-1.264
	c-4.4-0.508-33.31-1.156-39.721-1.404C55.12,115.279,47.455,106.351,47.455,106.351z M29.865,89.244c0,0-13.475,2.951-16.113,3.834
	c-2.645,0.881-7.644,3.82-7.644,3.82c1.756-2.387,2.892-3.768,6.162-5.4c3.263-1.627,14.703-4.895,14.703-4.895L29.865,89.244z
	 M30.613,99.554l-7.806,13.42l-0.37-0.23l7.049-13.441L30.613,99.554z M59.756,23.865c0,0-3.448-2.561-5.013-3.246
	c-1.496-0.635-3.866-0.467-4.359-0.354c-0.446,0.114-1.61,1.501-2.247,2.631c-0.591,1.071,0.585,2.989,0.585,2.989
	s-1.85-2.225-1.266-3.128c0.548-0.931,2.155-2.913,3.209-3.11c1.165-0.216,4.062-0.141,4.732,0.276
	c0.704,0.421,2.459,1.991,2.459,1.991L59.756,23.865z M57.179,25.652c-0.797-0.2,0.93-0.865,1.462-0.8
	c0.531,0.07,1.196,0.667,2.26,1.068c1.046,0.393,5.312,2.304,5.502,2.389c0.21,0.047,0.354,0.076,0.354,0.076l-0.34-0.067
	c0,0-0.013-0.009-0.015-0.009c-0.715-0.158-2.342-0.533-2.908-0.79c-0.727-0.331-0.864,0.067-1.725-0.066
	C60.904,27.32,57.978,25.851,57.179,25.652z M52.316,30.975c0,0,3.129-0.129,4.526-0.33c1.392-0.199,2.461-1.327,2.461-1.327
	l-0.467,1.332c0,0-1.264,0.725-2.86,0.595C54.378,31.11,52.316,30.975,52.316,30.975z M49.46,30.436
	c0.134,0.2,1.794,0.339,1.794,0.339s-4.123,1.13-4.856,0.725c0,0-0.328-2.989-0.133-3.194c0.199-0.195,8.388-2.386,8.388-2.386
	s-0.004,0.398-0.801,0.662c-0.8,0.27-4.725,1.33-4.787,1.861C48.998,28.973,49.325,30.24,49.46,30.436z M34.271,79.318
	c0.127-5.65,13.341-37.825,13.723-40.463c0.377-2.641-2.638-5.029-2.638-5.029c4.523,2.015,3.641,4.653,3.394,6.789
	c-0.255,2.135-12.466,34.309-13.098,40.465c-0.632,6.158,6.148,17.852,6.148,17.852C36.146,92.269,34.144,84.976,34.271,79.318z
	 M7.024,114.103c0.005-7.793,6.328-14.102,14.121-14.1c1.007,0.004,1.996,0.111,2.945,0.318l-2.175,7.273
	c-0.257-0.031-0.513-0.082-0.775-0.086c-3.647,0.002-6.605,2.961-6.61,6.604c0.003,3.645,2.957,6.602,6.6,6.602
	c3.646,0.004,6.604-2.955,6.603-6.598c0.003-1.869-0.787-3.555-2.036-4.758l3.879-6.531c3.439,2.572,5.665,6.668,5.667,11.293
	c-0.005,7.791-6.328,14.107-14.114,14.104C13.338,128.218,7.021,121.9,7.024,114.103z M2.277,115.904
	c-0.007,2.154,0.324,4.229,0.934,6.176c-1.089-2.434-1.7-5.131-1.697-7.98c-0.003-4.512,1.545-8.666,4.114-11.986
	c0.827-0.238,1.682-0.465,2.566-0.678C4.54,105.164,2.28,110.267,2.277,115.904z" class="color c1"/>
</svg>