<svg version="1.1" id="图层_1" x="0px" y="0px" width="282.67px" height="282.368px" viewBox="0 0 282.67 282.368" enable-background="new 0 0 282.67 282.368" xml:space="preserve" xmlns="http://www.w3.org/2000/svg" xmlns:xlink="http://www.w3.org/1999/xlink" xmlns:xml="http://www.w3.org/XML/1998/namespace">
  <path fill="#6092C4" d="M141.327,271.766c-72.094,0-130.746-58.581-130.746-130.588c0-72.004,58.652-130.583,130.746-130.583
	c72.101,0,130.759,58.579,130.759,130.583C272.085,213.185,213.427,271.766,141.327,271.766z M141.327,13
	C70.559,13,12.986,70.5,12.986,141.178c0,70.681,57.573,128.184,128.341,128.184c70.774,0,128.354-57.503,128.354-128.184
	C269.681,70.5,212.101,13,141.327,13z M116.383,2.176c0.447-0.082,0.855,0.015,1.229,0.279c0.371,0.268,0.596,0.626,0.674,1.07
	c0.084,0.466-0.002,0.887-0.258,1.269c-0.258,0.376-0.615,0.602-1.068,0.686c-0.447,0.081-0.859-0.013-1.236-0.278
	c-0.375-0.266-0.6-0.626-0.68-1.084c-0.084-0.454,0.004-0.873,0.264-1.252S115.928,2.256,116.383,2.176z M125.346,0.876
	c0.451-0.049,0.854,0.07,1.205,0.36c0.354,0.289,0.555,0.662,0.604,1.11c0.059,0.47-0.057,0.885-0.338,1.246
	c-0.277,0.36-0.648,0.568-1.113,0.621c-0.451,0.048-0.854-0.071-1.209-0.362c-0.357-0.285-0.563-0.661-0.615-1.124
	c-0.051-0.457,0.064-0.87,0.348-1.229C124.512,1.133,124.881,0.929,125.346,0.876z M134.336,0.155
	c0.453-0.022,0.846,0.122,1.184,0.436c0.328,0.311,0.508,0.694,0.529,1.148c0.025,0.47-0.115,0.878-0.418,1.22
	c-0.303,0.345-0.686,0.528-1.146,0.547c-0.455,0.021-0.852-0.118-1.189-0.433c-0.338-0.312-0.518-0.7-0.541-1.163
	c-0.023-0.459,0.119-0.865,0.428-1.209C133.487,0.362,133.87,0.178,134.336,0.155z M143.387,0c0.453,0.009,0.836,0.178,1.148,0.508
	c0.314,0.331,0.467,0.729,0.459,1.184c-0.01,0.473-0.174,0.871-0.498,1.19c-0.32,0.319-0.713,0.48-1.178,0.473
	c-0.455-0.005-0.844-0.179-1.158-0.508c-0.316-0.335-0.473-0.733-0.465-1.197c0.006-0.463,0.176-0.854,0.502-1.18
	C142.526,0.15,142.924-0.007,143.387,0z M152.424,0.417c0.451,0.034,0.828,0.228,1.121,0.579c0.291,0.348,0.414,0.752,0.385,1.204
	c-0.039,0.472-0.229,0.86-0.57,1.158c-0.348,0.306-0.746,0.437-1.207,0.401c-0.453-0.036-0.828-0.229-1.125-0.578
	c-0.299-0.356-0.426-0.761-0.395-1.224c0.037-0.459,0.229-0.841,0.576-1.146C151.559,0.509,151.961,0.38,152.424,0.417z
	 M161.422,1.403c0.451,0.062,0.811,0.279,1.082,0.647c0.268,0.37,0.367,0.78,0.303,1.229c-0.063,0.471-0.279,0.843-0.639,1.123
	c-0.363,0.279-0.771,0.386-1.23,0.32c-0.447-0.063-0.811-0.279-1.084-0.648c-0.275-0.372-0.379-0.785-0.313-1.243
	c0.064-0.459,0.281-0.83,0.646-1.108C160.551,1.446,160.963,1.336,161.422,1.403z M170.325,2.962
	c0.445,0.092,0.791,0.331,1.035,0.719c0.248,0.383,0.322,0.798,0.229,1.241c-0.096,0.466-0.332,0.824-0.713,1.078
	c-0.379,0.254-0.793,0.337-1.246,0.245c-0.445-0.094-0.791-0.332-1.039-0.723c-0.25-0.384-0.328-0.807-0.236-1.261
	c0.098-0.452,0.334-0.804,0.717-1.063C169.456,2.946,169.874,2.868,170.325,2.962z M179.11,5.086
	c0.436,0.121,0.766,0.383,0.986,0.784c0.221,0.4,0.268,0.817,0.145,1.256c-0.125,0.454-0.383,0.798-0.775,1.031
	c-0.396,0.228-0.814,0.281-1.264,0.16c-0.439-0.125-0.768-0.383-0.992-0.785c-0.223-0.401-0.275-0.827-0.15-1.273
	c0.123-0.445,0.385-0.785,0.783-1.014S178.661,4.965,179.11,5.086z M187.745,7.773c0.428,0.151,0.738,0.432,0.936,0.845
	c0.191,0.413,0.215,0.836,0.064,1.267c-0.154,0.445-0.439,0.772-0.844,0.977c-0.41,0.206-0.832,0.233-1.271,0.08
	c-0.428-0.15-0.74-0.431-0.941-0.848c-0.197-0.413-0.219-0.839-0.066-1.275c0.152-0.442,0.436-0.761,0.85-0.965
	C186.879,7.649,187.305,7.625,187.745,7.773z M196.184,11.013c0.418,0.177,0.709,0.478,0.875,0.905
	c0.17,0.422,0.164,0.844-0.014,1.261c-0.18,0.439-0.486,0.743-0.904,0.925c-0.422,0.18-0.842,0.177-1.27-0.003
	c-0.424-0.179-0.717-0.479-0.883-0.905c-0.174-0.429-0.166-0.855,0.012-1.28c0.18-0.43,0.48-0.731,0.904-0.908
	C195.333,10.833,195.756,10.833,196.184,11.013z M204.399,14.783c0.404,0.206,0.678,0.524,0.82,0.96
	c0.135,0.436,0.105,0.855-0.096,1.261c-0.215,0.427-0.531,0.712-0.965,0.862c-0.428,0.151-0.854,0.123-1.27-0.084
	c-0.406-0.203-0.682-0.521-0.824-0.959s-0.109-0.863,0.1-1.279c0.203-0.414,0.525-0.699,0.957-0.844
	C203.557,14.548,203.981,14.579,204.399,14.783z M212.37,19.084c0.391,0.229,0.641,0.563,0.756,1.009
	c0.107,0.439,0.051,0.859-0.176,1.251c-0.242,0.411-0.58,0.673-1.018,0.799c-0.441,0.122-0.857,0.066-1.26-0.165
	c-0.396-0.229-0.648-0.565-0.766-1.01c-0.109-0.447-0.053-0.869,0.182-1.269c0.234-0.4,0.57-0.665,1.014-0.782
	C211.545,18.797,211.967,18.851,212.37,19.084z M220.02,23.867c0.375,0.255,0.605,0.604,0.688,1.055
	c0.08,0.445-0.002,0.863-0.252,1.239c-0.266,0.393-0.621,0.636-1.07,0.729c-0.447,0.098-0.857,0.016-1.246-0.245
	c-0.375-0.249-0.609-0.601-0.695-1.055c-0.086-0.452,0-0.872,0.26-1.257c0.262-0.385,0.609-0.623,1.063-0.716
	C219.219,23.526,219.635,23.609,220.02,23.867z M227.377,29.148c0.357,0.273,0.566,0.64,0.617,1.093
	c0.053,0.453-0.057,0.859-0.332,1.224c-0.291,0.373-0.66,0.592-1.109,0.661c-0.455,0.064-0.863-0.045-1.23-0.325
	c-0.363-0.276-0.57-0.642-0.629-1.104c-0.057-0.455,0.059-0.865,0.344-1.233c0.277-0.366,0.645-0.582,1.105-0.645
	C226.592,28.752,227.006,28.868,227.377,29.148z M234.364,34.873c0.344,0.3,0.529,0.68,0.555,1.135
	c0.021,0.456-0.117,0.855-0.416,1.194c-0.309,0.358-0.693,0.554-1.146,0.591c-0.457,0.04-0.857-0.097-1.209-0.402
	c-0.342-0.3-0.525-0.676-0.555-1.135c-0.027-0.461,0.115-0.865,0.42-1.212c0.303-0.352,0.684-0.542,1.143-0.574
	C233.612,34.432,234.016,34.568,234.364,34.873z M240.991,41.045c0.322,0.319,0.482,0.708,0.482,1.166
	c-0.01,0.455-0.172,0.847-0.488,1.168c-0.338,0.34-0.73,0.509-1.188,0.516c-0.455,0.012-0.846-0.151-1.178-0.478
	c-0.324-0.321-0.486-0.71-0.484-1.17c0-0.457,0.166-0.856,0.494-1.184c0.324-0.327,0.717-0.494,1.18-0.499
	C240.266,40.557,240.665,40.722,240.991,41.045z M247.213,47.626c0.303,0.341,0.436,0.737,0.402,1.194
	c-0.037,0.455-0.223,0.832-0.563,1.134c-0.354,0.315-0.762,0.463-1.215,0.441c-0.457-0.022-0.84-0.204-1.148-0.554
	c-0.297-0.342-0.432-0.739-0.402-1.199c0.029-0.456,0.219-0.84,0.564-1.15c0.348-0.307,0.752-0.447,1.207-0.424
	C246.522,47.094,246.905,47.281,247.213,47.626z M252.987,54.576c0.283,0.358,0.385,0.767,0.324,1.218
	c-0.064,0.452-0.273,0.816-0.633,1.097c-0.373,0.288-0.785,0.411-1.24,0.359c-0.451-0.049-0.82-0.259-1.109-0.622
	c-0.277-0.358-0.385-0.766-0.326-1.222c0.059-0.455,0.271-0.828,0.637-1.112c0.369-0.283,0.781-0.4,1.236-0.347
	C252.329,54,252.702,54.211,252.987,54.576z M258.315,61.889c0.256,0.376,0.338,0.787,0.25,1.234
	c-0.092,0.451-0.328,0.801-0.701,1.051c-0.391,0.269-0.814,0.362-1.262,0.286c-0.449-0.081-0.805-0.31-1.066-0.695
	c-0.256-0.375-0.34-0.788-0.254-1.241c0.092-0.448,0.332-0.806,0.711-1.067c0.385-0.261,0.803-0.346,1.254-0.265
	C257.698,61.269,258.055,61.503,258.315,61.889z M263.163,69.524c0.234,0.387,0.285,0.807,0.168,1.245
	c-0.123,0.439-0.375,0.777-0.768,1.007c-0.404,0.239-0.83,0.309-1.273,0.202c-0.447-0.107-0.785-0.363-1.023-0.762
	c-0.23-0.392-0.289-0.809-0.17-1.251c0.115-0.445,0.377-0.787,0.779-1.022c0.396-0.233,0.82-0.298,1.262-0.188
	C262.588,68.867,262.926,69.122,263.163,69.524z M267.499,77.429c0.207,0.407,0.236,0.825,0.088,1.257
	c-0.146,0.434-0.422,0.751-0.83,0.956c-0.42,0.216-0.852,0.255-1.283,0.116c-0.439-0.135-0.76-0.408-0.971-0.822
	c-0.207-0.406-0.238-0.829-0.088-1.261c0.145-0.438,0.422-0.761,0.838-0.97c0.412-0.21,0.836-0.246,1.275-0.106
	C266.965,76.742,267.29,77.015,267.499,77.429z M271.336,85.634c0.18,0.417,0.182,0.837,0.004,1.26
	c-0.174,0.42-0.471,0.719-0.889,0.897c-0.434,0.187-0.863,0.201-1.291,0.035c-0.426-0.16-0.73-0.457-0.914-0.883
	c-0.178-0.418-0.18-0.841-0.008-1.266c0.174-0.428,0.475-0.733,0.902-0.914c0.426-0.182,0.854-0.19,1.277-0.02
	C270.852,84.91,271.157,85.206,271.336,85.634z M274.631,94.063c0.158,0.428,0.131,0.847-0.072,1.256
	c-0.205,0.41-0.516,0.689-0.947,0.841c-0.447,0.157-0.875,0.145-1.291-0.05c-0.418-0.188-0.699-0.503-0.855-0.94
	c-0.148-0.431-0.125-0.849,0.074-1.261c0.201-0.413,0.52-0.7,0.957-0.854c0.439-0.154,0.859-0.136,1.279,0.057
	C274.192,93.31,274.477,93.624,274.631,94.063z M277.372,102.667c0.125,0.436,0.072,0.854-0.152,1.251
	c-0.23,0.395-0.564,0.653-0.998,0.774c-0.455,0.131-0.887,0.086-1.287-0.13c-0.402-0.215-0.666-0.547-0.795-0.995
	c-0.121-0.438-0.07-0.856,0.154-1.256c0.23-0.399,0.57-0.661,1.01-0.789c0.445-0.125,0.873-0.076,1.275,0.144
	C276.979,101.887,277.247,102.221,277.372,102.667z M279.555,111.445c0.096,0.446,0.018,0.857-0.238,1.236
	c-0.25,0.38-0.602,0.616-1.047,0.711c-0.459,0.102-0.885,0.03-1.271-0.212c-0.387-0.244-0.631-0.592-0.725-1.046
	c-0.098-0.441-0.02-0.856,0.234-1.242c0.25-0.386,0.602-0.626,1.057-0.722c0.455-0.1,0.875-0.022,1.264,0.226
	C279.215,110.64,279.458,110.992,279.555,111.445z M281.167,120.344c0.068,0.451-0.033,0.855-0.313,1.22
	c-0.279,0.362-0.639,0.579-1.092,0.643c-0.465,0.072-0.883-0.026-1.256-0.293c-0.371-0.268-0.588-0.629-0.658-1.093
	c-0.068-0.448,0.041-0.857,0.318-1.223c0.273-0.368,0.643-0.586,1.1-0.652c0.459-0.067,0.875,0.034,1.246,0.307
	C280.881,119.52,281.104,119.888,281.167,120.344z M282.206,129.323c0.039,0.453-0.094,0.849-0.396,1.195
	c-0.295,0.343-0.676,0.534-1.123,0.572c-0.471,0.041-0.887-0.088-1.238-0.376c-0.354-0.294-0.547-0.666-0.588-1.129
	c-0.037-0.454,0.094-0.854,0.391-1.205c0.303-0.349,0.684-0.538,1.148-0.579c0.461-0.039,0.869,0.085,1.219,0.382
	C281.975,128.481,282.168,128.859,282.206,129.323z M282.67,138.341c0.008,0.455-0.148,0.844-0.471,1.168
	c-0.318,0.326-0.707,0.491-1.164,0.503c-0.467,0.007-0.873-0.146-1.205-0.455c-0.334-0.313-0.508-0.7-0.52-1.162
	c-0.006-0.456,0.152-0.849,0.471-1.178c0.322-0.33,0.715-0.496,1.178-0.507c0.465-0.008,0.861,0.146,1.195,0.46
	C282.491,137.489,282.661,137.875,282.67,138.341z M282.565,147.38c-0.018,0.453-0.199,0.83-0.543,1.135
	c-0.338,0.3-0.736,0.445-1.191,0.426c-0.471-0.02-0.863-0.195-1.176-0.528s-0.461-0.729-0.441-1.194
	c0.02-0.452,0.203-0.832,0.539-1.14c0.344-0.309,0.748-0.455,1.207-0.436c0.465,0.02,0.85,0.198,1.164,0.534
	C282.44,146.513,282.586,146.915,282.565,147.38z M281.889,156.4c-0.055,0.451-0.256,0.818-0.613,1.099
	c-0.361,0.28-0.764,0.397-1.217,0.348c-0.475-0.048-0.854-0.249-1.141-0.601c-0.295-0.352-0.418-0.758-0.367-1.218
	c0.049-0.453,0.254-0.822,0.615-1.107c0.357-0.285,0.768-0.402,1.23-0.356c0.459,0.052,0.838,0.255,1.125,0.608
	C281.815,155.526,281.934,155.937,281.889,156.4z M280.633,165.36c-0.078,0.449-0.307,0.8-0.684,1.059s-0.787,0.351-1.234,0.272
	c-0.465-0.08-0.834-0.306-1.104-0.676c-0.266-0.368-0.365-0.78-0.285-1.239c0.076-0.447,0.307-0.804,0.686-1.063
	c0.375-0.266,0.793-0.357,1.252-0.277c0.455,0.081,0.814,0.308,1.084,0.68C280.612,164.49,280.711,164.908,280.633,165.36z
	 M278.809,174.216c-0.105,0.442-0.359,0.779-0.754,1.012c-0.387,0.234-0.809,0.3-1.248,0.192c-0.461-0.11-0.814-0.358-1.059-0.746
	c-0.242-0.384-0.311-0.8-0.199-1.252c0.104-0.444,0.354-0.784,0.75-1.021c0.391-0.236,0.813-0.301,1.264-0.193
	c0.451,0.106,0.795,0.354,1.043,0.748C278.848,173.345,278.918,173.766,278.809,174.216z M276.411,182.94
	c-0.135,0.435-0.404,0.756-0.811,0.961c-0.404,0.21-0.828,0.245-1.262,0.11c-0.451-0.143-0.785-0.411-1.002-0.812
	c-0.221-0.402-0.26-0.822-0.125-1.267c0.133-0.434,0.4-0.756,0.814-0.97c0.408-0.209,0.83-0.246,1.277-0.106
	c0.439,0.136,0.771,0.404,0.986,0.812C276.51,182.073,276.547,182.499,276.411,182.94z M273.467,191.479
	c-0.162,0.424-0.453,0.726-0.877,0.909c-0.418,0.179-0.842,0.185-1.264,0.026c-0.443-0.169-0.758-0.46-0.949-0.876
	c-0.193-0.414-0.211-0.836-0.045-1.271c0.164-0.424,0.455-0.729,0.877-0.912c0.418-0.184,0.846-0.196,1.279-0.029
	c0.436,0.165,0.744,0.457,0.936,0.877C273.612,190.62,273.631,191.045,273.467,191.479z M269.961,199.833
	c-0.191,0.413-0.498,0.696-0.928,0.848c-0.432,0.154-0.852,0.136-1.268-0.053c-0.43-0.198-0.727-0.51-0.893-0.932
	c-0.16-0.428-0.15-0.852,0.043-1.275c0.189-0.413,0.5-0.699,0.932-0.855s0.857-0.137,1.281,0.055
	c0.42,0.194,0.715,0.504,0.877,0.936C270.17,198.982,270.155,199.412,269.961,199.833z M265.932,207.928
	c-0.215,0.399-0.545,0.662-0.98,0.789c-0.439,0.124-0.859,0.079-1.258-0.135c-0.418-0.229-0.697-0.554-0.832-0.989
	c-0.139-0.437-0.09-0.858,0.121-1.268c0.217-0.399,0.547-0.664,0.986-0.793c0.439-0.128,0.867-0.087,1.275,0.133
	c0.41,0.224,0.682,0.554,0.816,0.99C266.196,207.095,266.155,207.519,265.932,207.928z M261.401,215.739
	c-0.24,0.385-0.586,0.627-1.027,0.725c-0.447,0.099-0.863,0.025-1.252-0.215c-0.4-0.251-0.656-0.596-0.762-1.037
	c-0.111-0.446-0.045-0.866,0.205-1.257c0.24-0.388,0.582-0.63,1.029-0.731c0.451-0.103,0.875-0.024,1.264,0.218
	c0.395,0.245,0.645,0.593,0.754,1.039C261.717,214.926,261.645,215.345,261.401,215.739z M256.364,223.27
	c-0.266,0.368-0.629,0.588-1.074,0.653c-0.455,0.072-0.861-0.03-1.232-0.29c-0.387-0.277-0.615-0.643-0.697-1.091
	c-0.08-0.448,0.012-0.864,0.285-1.239c0.26-0.365,0.625-0.592,1.078-0.661s0.869,0.028,1.244,0.299
	c0.375,0.268,0.607,0.634,0.686,1.084C256.731,222.477,256.631,222.891,256.364,223.27z M250.879,230.428
	c-0.287,0.353-0.656,0.546-1.113,0.585c-0.453,0.04-0.857-0.084-1.215-0.371c-0.359-0.302-0.572-0.679-0.621-1.131
	c-0.057-0.454,0.066-0.857,0.361-1.216c0.285-0.354,0.658-0.551,1.115-0.595c0.459-0.043,0.867,0.081,1.227,0.379
	c0.359,0.291,0.568,0.667,0.611,1.124C251.297,229.663,251.172,230.067,250.879,230.428z M244.924,237.252
	c-0.309,0.336-0.693,0.507-1.145,0.516c-0.463,0.01-0.855-0.141-1.191-0.448c-0.344-0.322-0.531-0.713-0.553-1.168
	c-0.021-0.454,0.127-0.854,0.438-1.191c0.311-0.336,0.695-0.509,1.158-0.523c0.457-0.013,0.855,0.139,1.197,0.456
	c0.34,0.315,0.518,0.703,0.537,1.161C245.387,236.515,245.239,236.914,244.924,237.252z M238.549,243.683
	c-0.328,0.312-0.719,0.461-1.18,0.442c-0.455-0.021-0.84-0.195-1.152-0.521c-0.324-0.349-0.484-0.744-0.48-1.204
	c0.006-0.454,0.182-0.843,0.516-1.161c0.332-0.313,0.725-0.463,1.186-0.446c0.455,0.017,0.848,0.194,1.166,0.53
	c0.318,0.338,0.473,0.733,0.465,1.193C239.059,242.976,238.885,243.366,238.549,243.683z M231.795,249.678
	c-0.35,0.289-0.75,0.414-1.207,0.365c-0.453-0.049-0.822-0.247-1.113-0.598c-0.307-0.362-0.438-0.77-0.4-1.226
	c0.031-0.456,0.229-0.831,0.586-1.127c0.35-0.293,0.754-0.415,1.211-0.368c0.455,0.043,0.836,0.244,1.133,0.601
	s0.424,0.764,0.387,1.221C232.352,249.004,232.155,249.383,231.795,249.678z M224.665,255.242c-0.365,0.267-0.775,0.362-1.225,0.289
	c-0.451-0.079-0.809-0.299-1.08-0.67c-0.275-0.381-0.381-0.799-0.32-1.249c0.064-0.452,0.283-0.814,0.66-1.087
	c0.365-0.271,0.775-0.365,1.23-0.292c0.455,0.075,0.818,0.3,1.092,0.673c0.273,0.377,0.373,0.787,0.307,1.242
	C225.262,254.602,225.042,254.969,224.665,255.242z M217.202,260.333c-0.383,0.248-0.799,0.312-1.24,0.212
	c-0.445-0.106-0.787-0.353-1.033-0.735c-0.252-0.399-0.336-0.821-0.24-1.269c0.092-0.447,0.332-0.795,0.725-1.046
	c0.381-0.246,0.797-0.313,1.248-0.212c0.449,0.104,0.799,0.351,1.049,0.741c0.246,0.394,0.318,0.811,0.225,1.266
	C217.84,259.733,217.594,260.085,217.202,260.333z M209.405,264.951c-0.395,0.218-0.813,0.261-1.25,0.13
	c-0.441-0.136-0.764-0.402-0.984-0.797c-0.23-0.417-0.279-0.845-0.156-1.283c0.119-0.441,0.381-0.773,0.785-0.996
	c0.402-0.22,0.818-0.263,1.262-0.13c0.438,0.13,0.773,0.397,0.996,0.805c0.221,0.407,0.27,0.831,0.146,1.273
	C210.077,264.392,209.811,264.726,209.405,264.951z M201.346,269.049c-0.408,0.191-0.832,0.209-1.254,0.047
	c-0.432-0.161-0.736-0.444-0.934-0.86c-0.199-0.424-0.225-0.854-0.076-1.285c0.15-0.432,0.434-0.747,0.857-0.943
	c0.408-0.193,0.828-0.211,1.258-0.053c0.434,0.161,0.748,0.452,0.941,0.87c0.201,0.422,0.223,0.848,0.068,1.277
	C202.053,268.539,201.768,268.853,201.346,269.049z M193.049,272.625c-0.42,0.165-0.838,0.156-1.256-0.035
	c-0.414-0.189-0.705-0.495-0.873-0.919c-0.174-0.438-0.172-0.869,0.008-1.289c0.174-0.424,0.477-0.715,0.912-0.884
	c0.422-0.168,0.84-0.157,1.264,0.03c0.422,0.186,0.719,0.493,0.885,0.925c0.17,0.432,0.166,0.86-0.014,1.283
	C193.792,272.158,193.483,272.455,193.049,272.625z M184.545,275.654c-0.434,0.138-0.854,0.099-1.256-0.113
	c-0.404-0.214-0.672-0.539-0.813-0.974c-0.145-0.45-0.117-0.882,0.086-1.289c0.205-0.405,0.527-0.681,0.969-0.823
	c0.434-0.143,0.854-0.101,1.262,0.108c0.404,0.218,0.684,0.542,0.822,0.985c0.143,0.443,0.105,0.869-0.102,1.278
	C185.309,275.238,184.985,275.511,184.545,275.654z M175.846,278.134c-0.438,0.109-0.855,0.045-1.244-0.197
	c-0.391-0.238-0.639-0.581-0.75-1.02c-0.113-0.46-0.057-0.886,0.172-1.278c0.23-0.396,0.57-0.65,1.018-0.765
	c0.443-0.111,0.861-0.042,1.25,0.193c0.395,0.241,0.646,0.586,0.762,1.031c0.109,0.45,0.047,0.874-0.184,1.271
	C176.635,277.765,176.293,278.022,175.846,278.134z M166.989,280.053c-0.449,0.082-0.859-0.013-1.23-0.275
	c-0.371-0.264-0.6-0.621-0.682-1.065c-0.082-0.466,0-0.89,0.254-1.271c0.256-0.377,0.611-0.604,1.064-0.692
	c0.447-0.082,0.859,0.012,1.238,0.272c0.375,0.265,0.605,0.624,0.689,1.082c0.082,0.452-0.008,0.872-0.268,1.253
	C167.797,279.736,167.442,279.969,166.989,280.053z M158.067,281.396c-0.449,0.049-0.854-0.067-1.209-0.354
	c-0.352-0.287-0.559-0.656-0.609-1.11c-0.053-0.468,0.057-0.886,0.334-1.247c0.275-0.362,0.648-0.572,1.105-0.625
	c0.449-0.055,0.857,0.065,1.215,0.353c0.361,0.287,0.568,0.658,0.619,1.12c0.057,0.461-0.053,0.872-0.338,1.237
	C158.901,281.128,158.528,281.336,158.067,281.396z M149.038,282.167c-0.455,0.021-0.852-0.12-1.184-0.429
	c-0.34-0.313-0.516-0.691-0.539-1.146c-0.029-0.473,0.109-0.88,0.408-1.222c0.303-0.345,0.684-0.53,1.143-0.553
	c0.455-0.024,0.854,0.116,1.195,0.426c0.336,0.306,0.523,0.694,0.545,1.159c0.025,0.46-0.115,0.865-0.42,1.208
	C149.883,281.956,149.499,282.141,149.038,282.167z M140.034,282.368c-0.455-0.004-0.84-0.18-1.152-0.51
	c-0.313-0.331-0.465-0.727-0.457-1.179c0.006-0.476,0.176-0.874,0.498-1.194c0.32-0.322,0.717-0.48,1.18-0.473
	c0.457,0.011,0.838,0.177,1.16,0.51c0.316,0.332,0.471,0.731,0.459,1.195c-0.006,0.465-0.172,0.857-0.502,1.18
	C140.893,282.217,140.499,282.375,140.034,282.368z M130.971,282.002c-0.451-0.032-0.828-0.226-1.123-0.576
	c-0.293-0.349-0.422-0.747-0.389-1.204c0.035-0.471,0.221-0.857,0.561-1.161c0.344-0.303,0.746-0.438,1.209-0.405
	c0.451,0.031,0.824,0.225,1.125,0.575c0.297,0.348,0.432,0.756,0.396,1.218c-0.033,0.465-0.221,0.844-0.564,1.146
	C131.836,281.901,131.436,282.033,130.971,282.002z M121.985,281.066c-0.447-0.062-0.809-0.275-1.078-0.644
	c-0.273-0.369-0.377-0.774-0.32-1.225c0.066-0.471,0.277-0.847,0.637-1.129c0.363-0.278,0.77-0.389,1.232-0.324
	c0.451,0.06,0.813,0.275,1.086,0.645c0.277,0.366,0.379,0.78,0.32,1.238c-0.063,0.463-0.275,0.831-0.643,1.108
	C122.858,281.021,122.446,281.128,121.985,281.066z M113.067,279.554c-0.443-0.089-0.791-0.325-1.039-0.713
	c-0.244-0.384-0.324-0.796-0.234-1.242c0.096-0.463,0.33-0.826,0.707-1.084c0.375-0.255,0.795-0.341,1.248-0.246
	c0.447,0.09,0.791,0.329,1.047,0.714c0.248,0.384,0.33,0.806,0.236,1.26s-0.326,0.81-0.711,1.065
	C113.938,279.562,113.522,279.648,113.067,279.554z M104.268,277.474c-0.439-0.12-0.768-0.377-0.99-0.779
	c-0.223-0.394-0.273-0.815-0.156-1.253c0.123-0.457,0.385-0.802,0.775-1.033c0.393-0.234,0.813-0.292,1.258-0.167
	c0.443,0.114,0.775,0.377,1,0.778c0.225,0.398,0.279,0.822,0.158,1.268c-0.121,0.449-0.379,0.79-0.777,1.022
	C105.137,277.538,104.715,277.597,104.268,277.474z M95.61,274.833c-0.428-0.146-0.738-0.426-0.936-0.84
	c-0.197-0.411-0.221-0.835-0.076-1.265c0.154-0.448,0.434-0.774,0.84-0.979c0.408-0.208,0.834-0.236,1.271-0.09
	c0.428,0.148,0.744,0.428,0.945,0.845c0.199,0.411,0.225,0.84,0.072,1.275c-0.148,0.44-0.428,0.765-0.844,0.97
	C96.479,274.953,96.051,274.983,95.61,274.833z M87.153,271.638c-0.42-0.174-0.715-0.477-0.883-0.894
	c-0.17-0.429-0.164-0.853,0.01-1.271c0.18-0.437,0.479-0.747,0.896-0.924c0.424-0.182,0.844-0.182,1.273-0.009
	c0.42,0.178,0.713,0.478,0.891,0.903c0.17,0.423,0.17,0.853-0.01,1.279c-0.176,0.434-0.477,0.735-0.9,0.912
	C88.008,271.815,87.581,271.815,87.153,271.638z M78.928,267.907c-0.41-0.2-0.684-0.52-0.826-0.951
	c-0.141-0.435-0.113-0.856,0.092-1.262c0.205-0.426,0.525-0.715,0.955-0.87c0.43-0.148,0.854-0.124,1.268,0.078
	c0.408,0.202,0.682,0.517,0.826,0.96c0.148,0.431,0.119,0.859-0.088,1.276c-0.201,0.411-0.521,0.697-0.957,0.85
	C79.766,268.139,79.34,268.11,78.928,267.907z M70.954,263.665c-0.395-0.228-0.648-0.562-0.764-1.004
	c-0.109-0.444-0.053-0.859,0.176-1.255c0.23-0.407,0.57-0.678,1.012-0.802c0.438-0.127,0.857-0.071,1.258,0.156
	c0.398,0.228,0.65,0.562,0.768,1.007s0.064,0.867-0.168,1.271c-0.238,0.401-0.57,0.664-1.01,0.788
	C71.78,263.946,71.354,263.893,70.954,263.665z M63.249,258.906c-0.375-0.252-0.607-0.6-0.691-1.05c-0.084-0.448,0-0.862,0.25-1.241
	c0.26-0.396,0.615-0.642,1.063-0.737c0.445-0.098,0.861-0.016,1.246,0.24c0.381,0.246,0.613,0.599,0.709,1.049
	c0.084,0.452,0,0.87-0.258,1.259c-0.254,0.388-0.609,0.628-1.061,0.724C64.057,259.241,63.639,259.159,63.249,258.906z
	 M55.891,253.679c-0.363-0.274-0.57-0.638-0.629-1.092c-0.053-0.45,0.053-0.859,0.332-1.223c0.285-0.377,0.654-0.599,1.104-0.666
	c0.451-0.067,0.863,0.039,1.232,0.318c0.359,0.273,0.57,0.639,0.631,1.096c0.059,0.454-0.049,0.867-0.332,1.236
	c-0.277,0.369-0.646,0.587-1.104,0.65C56.672,254.069,56.262,253.96,55.891,253.679z M48.846,247.971
	c-0.342-0.295-0.531-0.67-0.555-1.131c-0.027-0.453,0.107-0.853,0.406-1.195c0.309-0.358,0.689-0.556,1.146-0.595
	c0.453-0.04,0.857,0.092,1.207,0.393c0.344,0.3,0.533,0.677,0.559,1.138c0.031,0.456-0.105,0.863-0.408,1.213
	c-0.305,0.351-0.682,0.545-1.141,0.577C49.602,248.41,49.196,248.277,48.846,247.971z M42.204,241.856
	c-0.32-0.322-0.482-0.708-0.48-1.163c0.002-0.459,0.16-0.848,0.48-1.172c0.33-0.338,0.727-0.513,1.184-0.521
	c0.451-0.011,0.852,0.145,1.182,0.47c0.32,0.317,0.484,0.71,0.488,1.17c0,0.46-0.166,0.854-0.488,1.186
	c-0.324,0.332-0.717,0.497-1.176,0.508C42.934,242.34,42.538,242.182,42.204,241.856z M35.967,235.328
	c-0.301-0.339-0.438-0.735-0.404-1.19c0.029-0.453,0.217-0.835,0.551-1.138c0.354-0.316,0.76-0.465,1.215-0.449
	c0.457,0.021,0.84,0.202,1.15,0.548c0.299,0.336,0.438,0.738,0.41,1.196s-0.217,0.843-0.561,1.15
	c-0.344,0.314-0.748,0.453-1.207,0.433C36.665,235.855,36.278,235.671,35.967,235.328z M30.141,228.391
	c-0.281-0.361-0.393-0.764-0.334-1.214c0.061-0.452,0.27-0.819,0.629-1.103c0.371-0.293,0.781-0.417,1.236-0.369
	c0.455,0.05,0.824,0.255,1.113,0.618c0.279,0.359,0.391,0.766,0.334,1.223c-0.057,0.455-0.268,0.826-0.633,1.112
	c-0.365,0.288-0.773,0.404-1.232,0.356C30.801,228.961,30.426,228.755,30.141,228.391z M24.772,221.111
	c-0.258-0.377-0.342-0.789-0.254-1.237c0.09-0.448,0.318-0.798,0.697-1.057c0.389-0.265,0.807-0.364,1.258-0.287
	c0.449,0.077,0.803,0.306,1.068,0.687c0.262,0.372,0.346,0.786,0.262,1.24c-0.09,0.448-0.322,0.81-0.705,1.069
	c-0.385,0.265-0.801,0.356-1.252,0.273C25.395,221.723,25.038,221.492,24.772,221.111z M19.883,213.504
	c-0.23-0.39-0.291-0.807-0.172-1.247c0.117-0.444,0.371-0.778,0.762-1.013c0.406-0.244,0.828-0.312,1.275-0.206
	c0.445,0.106,0.783,0.357,1.02,0.753c0.234,0.391,0.293,0.812,0.178,1.255c-0.113,0.443-0.371,0.786-0.768,1.022
	c-0.398,0.235-0.82,0.306-1.268,0.195C20.465,214.154,20.124,213.9,19.883,213.504z M15.493,205.598
	c-0.207-0.403-0.238-0.823-0.094-1.253c0.145-0.436,0.42-0.755,0.824-0.966c0.42-0.214,0.848-0.254,1.285-0.122
	c0.441,0.135,0.764,0.404,0.975,0.817c0.211,0.405,0.238,0.826,0.094,1.267c-0.141,0.435-0.42,0.756-0.83,0.972
	c-0.416,0.208-0.838,0.245-1.277,0.11C16.032,206.287,15.704,206.011,15.493,205.598z M11.612,197.417
	c-0.18-0.417-0.182-0.836-0.008-1.258c0.17-0.424,0.469-0.726,0.887-0.902c0.428-0.192,0.861-0.204,1.289-0.046
	c0.428,0.163,0.73,0.453,0.918,0.881c0.178,0.415,0.186,0.839,0.016,1.265c-0.172,0.428-0.471,0.731-0.896,0.919
	c-0.426,0.183-0.854,0.195-1.281,0.026C12.108,198.138,11.801,197.843,11.612,197.417z M8.272,189.012
	c-0.152-0.428-0.129-0.846,0.07-1.257c0.197-0.411,0.512-0.693,0.941-0.85c0.445-0.156,0.873-0.145,1.291,0.043
	c0.414,0.189,0.703,0.501,0.857,0.936c0.154,0.43,0.135,0.851-0.063,1.265c-0.201,0.417-0.518,0.702-0.951,0.857
	c-0.436,0.157-0.865,0.139-1.281-0.053C8.719,189.762,8.432,189.447,8.272,189.012z M5.489,180.426
	c-0.125-0.435-0.078-0.851,0.15-1.248c0.227-0.399,0.557-0.66,0.996-0.786c0.451-0.133,0.883-0.09,1.285,0.126
	c0.4,0.215,0.666,0.543,0.797,0.99c0.125,0.436,0.074,0.856-0.148,1.256c-0.223,0.401-0.559,0.668-1.006,0.797
	c-0.445,0.127-0.869,0.081-1.275-0.136C5.885,181.205,5.622,180.874,5.489,180.426z M3.258,171.667
	c-0.096-0.442-0.018-0.855,0.23-1.234c0.252-0.382,0.602-0.621,1.041-0.72c0.465-0.101,0.891-0.034,1.277,0.207
	c0.389,0.24,0.631,0.589,0.734,1.039c0.096,0.442,0.02,0.859-0.232,1.246c-0.248,0.384-0.602,0.626-1.053,0.729
	c-0.451,0.098-0.877,0.025-1.262-0.221C3.604,172.47,3.36,172.122,3.258,171.667z M1.602,162.781
	c-0.072-0.447,0.033-0.854,0.309-1.217c0.275-0.368,0.639-0.583,1.086-0.652c0.467-0.075,0.885,0.023,1.26,0.289
	c0.371,0.262,0.594,0.628,0.66,1.084c0.07,0.451-0.029,0.858-0.307,1.227c-0.273,0.371-0.641,0.592-1.102,0.659
	c-0.457,0.074-0.871-0.026-1.242-0.298C1.889,163.608,1.672,163.24,1.602,162.781z M0.51,153.795c-0.035-0.452,0.09-0.85,0.387-1.2
	c0.297-0.342,0.672-0.535,1.129-0.578c0.469-0.042,0.883,0.082,1.236,0.372c0.354,0.287,0.551,0.661,0.594,1.125
	c0.041,0.45-0.09,0.855-0.387,1.204c-0.299,0.35-0.676,0.543-1.139,0.585s-0.871-0.084-1.225-0.375
	C0.749,154.637,0.555,154.257,0.51,153.795z M0,144.761c-0.012-0.452,0.143-0.844,0.463-1.169c0.32-0.328,0.707-0.494,1.158-0.508
	c0.473-0.012,0.877,0.139,1.211,0.446c0.336,0.31,0.508,0.698,0.521,1.162c0.012,0.45-0.143,0.848-0.461,1.178
	c-0.322,0.33-0.713,0.498-1.172,0.512c-0.467,0.012-0.865-0.14-1.203-0.456C0.184,145.615,0.01,145.226,0,144.761z M0.059,135.718
	c0.018-0.453,0.193-0.833,0.537-1.142c0.332-0.305,0.734-0.449,1.186-0.429c0.473,0.016,0.869,0.193,1.182,0.522
	c0.318,0.328,0.463,0.728,0.449,1.19c-0.018,0.452-0.197,0.836-0.537,1.146c-0.34,0.308-0.738,0.452-1.203,0.438
	c-0.463-0.021-0.854-0.193-1.166-0.529C0.19,136.582,0.04,136.182,0.059,135.718z M0.686,126.713
	c0.049-0.45,0.248-0.817,0.607-1.104c0.359-0.282,0.762-0.402,1.217-0.354c0.469,0.045,0.85,0.246,1.143,0.598
	c0.295,0.349,0.418,0.752,0.371,1.217c-0.047,0.451-0.248,0.817-0.609,1.11c-0.359,0.286-0.764,0.405-1.227,0.36
	c-0.461-0.051-0.838-0.247-1.129-0.603C0.764,127.583,0.641,127.174,0.686,126.713z M1.895,117.734
	c0.076-0.446,0.301-0.803,0.674-1.062c0.379-0.261,0.789-0.351,1.236-0.275c0.465,0.077,0.836,0.303,1.105,0.671
	c0.273,0.366,0.367,0.776,0.287,1.236c-0.072,0.448-0.295,0.8-0.672,1.069c-0.377,0.261-0.791,0.357-1.25,0.282
	c-0.459-0.077-0.822-0.304-1.09-0.674C1.915,118.608,1.819,118.193,1.895,117.734z M3.674,108.863
	c0.107-0.441,0.357-0.781,0.742-1.015c0.396-0.24,0.809-0.304,1.252-0.198c0.461,0.106,0.814,0.353,1.063,0.738
	c0.244,0.384,0.316,0.8,0.209,1.253c-0.102,0.443-0.352,0.786-0.744,1.024c-0.393,0.24-0.813,0.306-1.266,0.2
	c-0.451-0.105-0.801-0.354-1.043-0.739C3.639,109.733,3.569,109.31,3.674,108.863z M6.016,100.149
	c0.131-0.436,0.402-0.761,0.811-0.966c0.406-0.21,0.82-0.251,1.26-0.119c0.451,0.138,0.787,0.408,1.008,0.805
	c0.225,0.4,0.266,0.822,0.131,1.264c-0.133,0.439-0.4,0.763-0.807,0.975c-0.408,0.217-0.836,0.257-1.281,0.121
	c-0.441-0.139-0.773-0.406-0.992-0.812C5.924,101.012,5.885,100.591,6.016,100.149z M8.922,91.588
	c0.16-0.427,0.451-0.729,0.867-0.914c0.416-0.182,0.84-0.192,1.264-0.032c0.445,0.165,0.762,0.456,0.959,0.87
	c0.193,0.407,0.209,0.835,0.047,1.271c-0.16,0.424-0.449,0.732-0.869,0.92c-0.422,0.187-0.85,0.198-1.281,0.034
	c-0.436-0.164-0.75-0.452-0.941-0.872C8.772,92.451,8.76,92.022,8.922,91.588z M12.381,83.211c0.189-0.415,0.494-0.695,0.928-0.852
	c0.428-0.155,0.85-0.141,1.264,0.046c0.432,0.194,0.729,0.504,0.898,0.93c0.168,0.424,0.154,0.847-0.037,1.272
	c-0.186,0.412-0.496,0.7-0.926,0.858c-0.432,0.159-0.854,0.144-1.281-0.044c-0.42-0.19-0.719-0.505-0.879-0.932
	C12.18,84.061,12.192,83.637,12.381,83.211z M16.354,75.117c0.213-0.404,0.539-0.668,0.977-0.794
	c0.439-0.127,0.857-0.087,1.26,0.128c0.418,0.224,0.697,0.549,0.838,0.985c0.139,0.437,0.102,0.855-0.117,1.265
	c-0.215,0.404-0.541,0.671-0.982,0.801c-0.439,0.132-0.861,0.089-1.273-0.128c-0.406-0.218-0.686-0.546-0.82-0.985
	C16.098,75.951,16.135,75.526,16.354,75.117z M20.844,67.277c0.24-0.387,0.582-0.63,1.031-0.73c0.439-0.1,0.859-0.025,1.246,0.212
	c0.4,0.246,0.656,0.595,0.766,1.035c0.115,0.441,0.049,0.859-0.193,1.255c-0.238,0.388-0.58,0.631-1.031,0.738
	c-0.443,0.101-0.869,0.029-1.264-0.212c-0.395-0.245-0.643-0.589-0.756-1.034C20.534,68.094,20.604,67.671,20.844,67.277z
	 M25.846,59.721c0.262-0.374,0.619-0.593,1.07-0.664s0.861,0.025,1.232,0.287c0.387,0.273,0.621,0.637,0.701,1.082
	c0.086,0.45-0.008,0.863-0.275,1.243c-0.264,0.368-0.621,0.594-1.074,0.667c-0.455,0.073-0.869-0.023-1.248-0.291
	c-0.381-0.27-0.607-0.627-0.688-1.082C25.485,60.51,25.579,60.095,25.846,59.721z M31.305,52.51
	c0.287-0.352,0.656-0.552,1.111-0.593c0.455-0.042,0.855,0.081,1.215,0.365c0.363,0.298,0.578,0.673,0.631,1.126
	c0.053,0.455-0.064,0.859-0.359,1.222c-0.281,0.353-0.658,0.551-1.109,0.598c-0.459,0.044-0.867-0.079-1.23-0.369
	c-0.357-0.289-0.566-0.666-0.619-1.123C30.897,53.278,31.012,52.869,31.305,52.51z M37.206,45.672
	c0.309-0.337,0.689-0.508,1.146-0.523c0.459-0.009,0.852,0.137,1.189,0.443c0.346,0.322,0.533,0.708,0.557,1.168
	c0.027,0.453-0.119,0.851-0.43,1.192c-0.311,0.334-0.693,0.51-1.152,0.527c-0.459,0.015-0.861-0.136-1.199-0.449
	c-0.344-0.314-0.525-0.697-0.547-1.159C36.747,46.412,36.893,46.01,37.206,45.672z M43.547,39.208
	c0.332-0.315,0.719-0.464,1.178-0.45c0.457,0.019,0.84,0.19,1.154,0.521c0.326,0.344,0.488,0.742,0.484,1.199
	c-0.002,0.455-0.172,0.844-0.506,1.163c-0.332,0.316-0.723,0.465-1.184,0.449c-0.461-0.01-0.848-0.185-1.17-0.521
	c-0.322-0.333-0.479-0.729-0.471-1.193C43.04,39.917,43.213,39.527,43.547,39.208z M50.264,33.171
	c0.35-0.29,0.752-0.412,1.205-0.367c0.457,0.046,0.828,0.24,1.123,0.587c0.303,0.361,0.438,0.771,0.41,1.226
	c-0.037,0.458-0.229,0.834-0.582,1.132c-0.35,0.297-0.754,0.421-1.211,0.378c-0.459-0.043-0.836-0.241-1.135-0.596
	c-0.299-0.358-0.43-0.76-0.393-1.22C49.719,33.852,49.913,33.474,50.264,33.171z M57.366,27.574c0.367-0.271,0.777-0.37,1.227-0.293
	c0.453,0.074,0.809,0.293,1.08,0.66c0.279,0.377,0.391,0.797,0.328,1.249c-0.061,0.452-0.279,0.814-0.654,1.088
	c-0.363,0.271-0.771,0.372-1.227,0.302c-0.457-0.074-0.82-0.298-1.094-0.668c-0.277-0.373-0.383-0.784-0.316-1.242
	C56.774,28.213,56.995,27.851,57.366,27.574z M64.827,22.426c0.381-0.243,0.791-0.314,1.232-0.216
	c0.447,0.104,0.795,0.348,1.039,0.731c0.258,0.396,0.338,0.817,0.25,1.266c-0.092,0.449-0.332,0.795-0.719,1.048
	c-0.385,0.245-0.799,0.318-1.246,0.22c-0.449-0.102-0.801-0.349-1.049-0.737c-0.256-0.388-0.332-0.809-0.238-1.259
	C64.192,23.03,64.432,22.677,64.827,22.426z M72.569,17.784c0.393-0.22,0.813-0.266,1.252-0.135
	c0.438,0.131,0.766,0.395,0.984,0.792c0.234,0.413,0.291,0.84,0.168,1.28c-0.117,0.438-0.379,0.774-0.781,1.001
	c-0.404,0.218-0.822,0.266-1.264,0.138c-0.439-0.128-0.77-0.397-1-0.803c-0.221-0.401-0.275-0.827-0.156-1.271
	C71.897,18.344,72.163,18.007,72.569,17.784z M80.6,13.642c0.412-0.196,0.828-0.215,1.258-0.054c0.426,0.156,0.734,0.444,0.93,0.853
	c0.207,0.427,0.232,0.854,0.084,1.289c-0.143,0.43-0.426,0.747-0.844,0.945c-0.408,0.199-0.834,0.219-1.264,0.059
	c-0.43-0.157-0.746-0.445-0.943-0.865c-0.199-0.417-0.223-0.842-0.074-1.279C79.899,14.156,80.182,13.839,80.6,13.642z
	 M88.887,10.014c0.424-0.164,0.842-0.156,1.26,0.028c0.412,0.187,0.707,0.491,0.875,0.912c0.176,0.439,0.176,0.869,0,1.291
	c-0.176,0.421-0.475,0.722-0.904,0.892c-0.424,0.167-0.844,0.158-1.268-0.024c-0.42-0.183-0.717-0.491-0.889-0.924
	c-0.17-0.428-0.168-0.854,0.012-1.279C88.151,10.487,88.458,10.187,88.887,10.014z M97.374,6.942
	c0.432-0.144,0.85-0.105,1.256,0.107c0.402,0.21,0.676,0.534,0.814,0.965c0.148,0.452,0.121,0.879-0.08,1.288
	c-0.201,0.41-0.518,0.689-0.963,0.83c-0.434,0.144-0.854,0.112-1.262-0.1c-0.408-0.214-0.684-0.539-0.828-0.98
	c-0.141-0.439-0.113-0.867,0.096-1.279C96.608,7.364,96.93,7.083,97.374,6.942z M106.047,4.413c0.441-0.109,0.859-0.047,1.25,0.19
	c0.385,0.236,0.639,0.578,0.75,1.018c0.119,0.457,0.063,0.886-0.164,1.282c-0.227,0.397-0.561,0.649-1.012,0.767
	c-0.441,0.112-0.861,0.051-1.246-0.185c-0.4-0.239-0.654-0.579-0.77-1.031c-0.113-0.448-0.055-0.872,0.174-1.27
	C105.26,4.788,105.6,4.53,106.047,4.413z" class="color c1"/>
</svg>