<svg version="1.1" id="图层_1" x="0px" y="0px" width="180px" height="180px" viewBox="0 0 180 180" enable-background="new 0 0 180 180" xml:space="preserve" xmlns="http://www.w3.org/2000/svg" xmlns:xlink="http://www.w3.org/1999/xlink" xmlns:xml="http://www.w3.org/XML/1998/namespace">
  <path fill="#7C5337" d="M152.276,180H27.723C12.437,180,0,167.563,0,152.277V27.723C0,12.437,12.437,0,27.723,0h124.553
	C167.563,0,180,12.437,180,27.723v124.554C180,167.563,167.563,180,152.276,180z M27.723,7.232
	c-11.298,0-20.491,9.193-20.491,20.491v124.554c0,11.298,9.193,20.49,20.491,20.49h124.553c11.299,0,20.492-9.192,20.492-20.49
	V27.723c0-11.298-9.193-20.491-20.492-20.491H27.723z" class="color c1"/>
</svg>