<svg version="1.1" id="图层_1" x="0px" y="0px" width="198px" height="198px" viewBox="0 0 198 198" enable-background="new 0 0 198 198" xml:space="preserve" xmlns="http://www.w3.org/2000/svg" xmlns:xlink="http://www.w3.org/1999/xlink" xmlns:xml="http://www.w3.org/XML/1998/namespace">
  <path fill="#C09A5E" d="M99,191c-50.729,0-92-41.271-92-92S48.271,7,99,7s92,41.271,92,92S149.729,191,99,191z M99,11
	c-48.523,0-88,39.477-88,88s39.477,88,88,88s88-39.477,88-88S147.523,11,99,11z" class="color c1"/>
  <path fill="#C09A5E" d="M99,198c-54.589,0-99-44.411-99-99S44.411,0,99,0s99,44.411,99,99S153.589,198,99,198z M99,2
	C45.514,2,2,45.514,2,99s43.514,97,97,97s97-43.514,97-97S152.486,2,99,2z" class="color c1"/>
</svg>