<svg version="1.1" id="图层_1" x="0px" y="0px" width="191.225px" height="195.193px" viewBox="0 0 191.225 195.193" enable-background="new 0 0 191.225 195.193" xml:space="preserve" xmlns="http://www.w3.org/2000/svg" xmlns:xlink="http://www.w3.org/1999/xlink" xmlns:xml="http://www.w3.org/XML/1998/namespace">
  <path fill="#0EB8E0" d="M158.686,20.665c-0.527-0.917-0.54-1.607,0.759-1.718c0.226,0.133,0.468,0.216,0.726,0.25l0.046-0.056
	c0.246,0.157,0.507,0.283,0.786,0.376c0.137,0.053,0.273,0.107,0.412,0.159c0.291,0.082,0.566,0.198,0.828,0.345
	c0.264,0.161,0.478,0.373,0.645,0.632c0.047,0.146,0.047,0.279,0.02,0.404c0.09,0.008,0.181,0.017,0.271,0.024
	c0.159,0.09,0.318,0.181,0.479,0.27c0.166,0.325,0.354,0.637,0.567,0.935l-0.023-0.014c0.307,0.236,0.578,0.512,0.823,0.813
	L165,23.06c0.302,0.252,0.597,0.511,0.788,0.866l-0.059-0.054c0.578,0.359,0.409,1.144,0.887,1.559l-0.002-0.004
	c0.264,0.269,0.555,0.515,0.738,0.854c0.327,0.172,0.557,0.472,0.868,0.664l0.066,0.034c0.556,0.53,1.208,0.979,1.457,1.762
	c-0.1,0.135-0.117,0.28-0.051,0.434c-1.955,0.323-1.955,0.323-4.689-2.859l-0.072-0.083c-0.172-0.298-0.409-0.535-0.7-0.717
	l-0.075-0.08c-0.193-0.292-0.429-0.542-0.709-0.753l-0.045-0.049c-0.232-0.279-0.471-0.553-0.715-0.822
	c-0.297-0.251-0.589-0.506-0.774-0.858l0.067,0.039c-0.217-0.155-0.332-0.363-0.4-0.596c-0.164,0.035-0.32-0.035-0.467-0.227
	l0.023,0.026c-0.477-0.397-1.21-0.271-1.625-0.794l0.028,0.03c-0.308-0.221-0.558-0.506-0.841-0.755L158.686,20.665z M129.451,1.621
	c-0.292-0.025-0.584-0.05-0.876-0.075c-0.219,0.279-0.438,0.557-0.659,0.836c0.23,0.013,0.45,0.07,0.658,0.172
	C129.017,2.384,129.336,2.099,129.451,1.621z M105.554,5.509c-0.436,0.061-0.872,0.123-1.308,0.184
	c-0.577,0.277-1.255,0.259-1.804,0.615c-0.238,0.129-0.489,0.168-0.754,0.117c-0.467,0.433-1.161,0.324-1.657,0.689l0.113,0.268
	c-0.207-0.035-0.413-0.076-0.618-0.119c-0.804,0.388-0.742,0.892-0.228,1.46c1.05,0.654,2.098,0.674,3.146-0.022
	c2.895,0.017,5.789,0.036,8.684,0.053c2.444,0.996,5.329-0.343,7.626,1.433c0.43,0.117,0.869,0.18,1.315,0.173
	c1.711-0.89,3.891,0.375,5.45-1.2c-0.585-2.464-2.947-0.992-4.229-1.912c-0.429,0-0.857,0.002-1.286,0.002
	c-0.634,0.426-1.27,0.381-1.906,0.006c-0.472,0.001-0.943,0.001-1.414,0.001c-0.275-0.304-0.596-0.546-0.966-0.722
	c-0.985-0.309-1.97-0.208-2.954,0.01c-0.209-0.007-0.419,0.001-0.629-0.003c-0.233-0.218-0.462-0.443-0.714-0.636
	c-0.131-0.097-0.258-0.206-0.386-0.303c-0.267-0.201-0.553-0.38-0.857-0.52c-0.325-0.12-0.663-0.198-1.009-0.223
	C107.934,4.899,106.624,4.534,105.554,5.509z M130.953,11.155c0.964,0.822,2.311-0.038,3.284,0.744l0.355-0.006l0.34,0.1
	c0.664,0.643,1.726,0.003,2.362,0.735l0.014,0.004c0.815-0.069,1.797,0.384,2.283-0.726c-0.616-0.087-1.126-0.355-1.492-0.871
	c-0.61-0.107-1.221-0.212-1.623-0.762c-0.269,0.028-0.523-0.016-0.766-0.133c-1.241,0.013-2.484,0.015-3.725,0.041
	c-0.641,0.013-1.226,0.175-1.583,0.783l0.283-0.003L130.953,11.155z M111.94,2.427c-0.624-0.081-1.22-0.213-1.607-0.782
	c-0.262,0.018-0.524,0.013-0.785-0.014C110.043,3.584,110.473,3.718,111.94,2.427z M140.369,6.244
	c-0.241-0.244-0.482-0.491-0.725-0.736c-0.276-0.207-0.53-0.438-0.761-0.694c-0.265-0.061-0.53-0.121-0.796-0.181
	c-0.426,0.201-0.741,0.493-0.815,0.985c0.28,0.249,0.56,0.498,0.84,0.747C138.865,6.324,139.616,6.284,140.369,6.244z
	 M191.225,139.568c-0.001-1.85-0.002-3.7-0.002-5.55c-0.196-0.139-0.235-0.312-0.116-0.521c-0.269-0.605-0.262-1.308-0.668-1.863
	l-0.016-0.036c-0.522-0.349-0.337-1.163-0.94-1.456c-0.182-0.264-0.426-0.343-0.73-0.236c-0.133-0.296-0.506-0.398-0.706-0.639
	l-0.029-0.012c-1.577,0.012-3.153,0.023-4.729,0.035c-0.409,0.522-0.958,0.717-1.604,0.685c-0.089,0.203-0.237,0.263-0.441,0.182
	c-0.492,0.056-0.826,0.357-1.122,0.719l0.007-0.003c-0.186,0.188-0.278,0.413-0.324,0.654c-0.174,0.024-0.349,0.046-0.519,0.09
	c-0.113,0.19-0.167,0.396-0.166,0.616c-0.415,0.117-0.831,0.233-1.247,0.349c-0.031,0.222-0.063,0.444-0.093,0.666l-0.031,0.027
	c-0.248,0.008-0.495,0.022-0.742,0.042c-0.126,0.427-0.42,0.656-0.853,0.721c-0.119,0.421-0.387,0.68-0.818,0.766
	c-0.108,0.417-0.346,0.708-0.785,0.801c-0.004,0.193-0.023,0.384-0.047,0.576c-0.258-0.07-0.51-0.014-0.754,0.172l-0.034,0.036
	c-0.231,0.284-0.479,0.554-0.74,0.81l-0.002,0.002c-0.072,0.438-0.325,0.713-0.753,0.828c-0.077,0.42-0.291,0.731-0.71,0.873
	c-0.058,0.433-0.285,0.726-0.711,0.853c-0.154,0.599-0.458,1.087-1.024,1.382c-0.089,0.414-0.313,0.713-0.729,0.844
	c-0.004,0.251-0.012,0.501-0.023,0.751h0l0,0l-0.021,0.023c-0.238,0.009-0.474,0.034-0.709,0.074
	c-0.054,0.424-0.248,0.742-0.677,0.877c-0.161,0.427-0.32,0.854-0.481,1.28c-0.703,0.567-1.407,1.134-2.11,1.703
	c-0.094,0.428-0.346,0.705-0.78,0.805c-0.09,0.437-0.354,0.7-0.79,0.795c-0.096,0.439-0.369,0.694-0.808,0.777
	c-0.267,0.263-0.533,0.524-0.8,0.787c-0.074,0.165-0.122,0.337-0.167,0.511c-0.188,0.021-0.377,0.042-0.567,0.064
	c-0.074,0.229-0.232,0.34-0.473,0.335c-0.509,0.068-0.854,0.357-1.091,0.793c-0.339,0.173-0.595,0.444-0.834,0.732
	c-0.264,0.239-0.54,0.464-0.828,0.675l-0.075,0.044c-0.321,0.568-1.134,0.355-1.46,0.917l0.061-0.042
	c-0.211,0.131-0.29,0.296-0.234,0.496c-0.034-0.018-0.061-0.045-0.096-0.062c-0.179,0.063-0.358,0.125-0.537,0.188
	c-0.072,0.195-0.209,0.269-0.412,0.217c-1.242,0.762-0.575,2.1-0.934,3.126c-0.061,0.011-0.12,0.027-0.18,0.038
	c-0.067,0.431-0.295,0.721-0.729,0.831c-0.025,0.233-0.072,0.463-0.142,0.688c-0.239,0.01-0.477,0.03-0.714,0.059
	c-0.037,0.236-0.064,0.473-0.08,0.712l-0.001,0c-0.248,0.014-0.495,0.032-0.743,0.057c-0.13,0.417-0.407,0.666-0.84,0.737
	c-0.187,0.248-0.374,0.497-0.562,0.744c-0.044-0.065-0.078-0.135-0.13-0.195c-0.131,0.205-0.317,0.314-0.559,0.332
	c-0.466,0.114-0.832,0.367-1.098,0.766c-0.262,0.21-0.528,0.417-0.797,0.617c-0.114,0.172-0.272,0.24-0.476,0.204
	c-0.49,0.073-0.828,0.375-1.12,0.745l0.028-0.014c-0.235,0.193-0.459,0.397-0.673,0.613c-0.036,0.033-0.072,0.066-0.107,0.101
	c-0.257,0.044-0.515,0.087-0.771,0.132c-0.044,0.176-0.083,0.354-0.12,0.532c-0.519-0.191-1.029-0.248-1.505,0.219
	c-0.469,0.406-1.16,0.312-1.629,0.722l-0.03,0.012c-0.379,0.504-1.04,0.365-1.51,0.661c-0.265,0.054-0.531,0.108-0.797,0.163
	c-0.199,0.082-0.277,0.225-0.298,0.396c-0.436,0.008-0.869,0.04-1.283,0.224c-0.466,0.081-0.932,0.163-1.397,0.243
	c-0.413,0.14-0.817,0.297-1.215,0.475c-0.031,0.015-0.057,0.036-0.087,0.052c-0.418-0.232-0.861-0.172-1.319,0.048l0.055,0.26
	c-0.001,0.01-0.001,0.019-0.003,0.028c-0.087-0.185-0.205-0.354-0.374-0.492c-1.013-0.543-1.939-0.285-2.828,0.314
	c-0.741,0.028-1.483,0.055-2.225,0.084c-0.306,0.125-0.537,0.336-0.694,0.625c-0.011,0.007-0.021,0.016-0.031,0.023
	c-0.84,0.047-1.68,0.094-2.521,0.141c-0.026-0.088-0.052-0.166-0.078-0.266c-0.698-0.257-1.427-0.15-2.145-0.168
	c-0.374,0-0.717,0.102-1.021,0.323c-0.475,0.039-0.949,0.078-1.423,0.116c-1.168,0.802-2.25-0.094-3.374-0.164
	c-0.796-0.014-1.566,0.073-2.251,0.535c-1.076,1.188-2.504,0.643-3.793,0.775c-0.395-0.006-0.747,0.113-1.056,0.359
	c-0.457,0.032-0.915,0.064-1.372,0.098c-0.324,0.159-0.618,0.362-0.885,0.604c-0.017,0.013-0.028,0.026-0.044,0.039
	c-1.261,0.052-2.523,0.103-3.784,0.155c-0.08-0.121-0.16-0.241-0.245-0.354c-0.317-0.211-0.661-0.362-1.034-0.438
	c-0.808-0.125-1.514,0.115-2.152,0.604c-0.793,0.004-1.587,0.01-2.38,0.015c-0.861-0.684-1.836-0.89-2.909-0.685
	c-0.398,0.094-0.762,0.256-1.093,0.498c-0.084,0.135-0.146,0.269-0.205,0.4c-1.068-0.07-2.137-0.144-3.206-0.207
	c-0.766-0.045-1.539-0.057-2.155-0.621c-0.517-0.053-1.035-0.105-1.552-0.158c-1.009-0.688-2.304,0.051-3.307-0.666
	c-0.475-0.062-0.949-0.123-1.424-0.186c-0.102,0.029-0.204,0.057-0.306,0.086c-0.062-0.055-0.105-0.124-0.174-0.174
	c-0.621-0.39-1.43-0.057-2.025-0.53c-0.24,0.073-0.466,0.044-0.678-0.089c-0.664-0.648-1.733-0.013-2.369-0.75h0.001
	c-0.432-0.361-0.869-0.439-1.312-0.168c-0.072-0.242-0.204-0.443-0.478-0.552c-0.222,0.042-0.422-0.005-0.601-0.143
	c-0.333-0.27-0.797-0.305-1.104-0.622c-0.163-0.235-0.36-0.436-0.598-0.595c-0.363-0.205-0.735-0.388-1.112-0.564
	c-0.24-0.124-0.481-0.243-0.733-0.343c-0.36-0.166-0.709-0.352-1.057-0.54c-0.229-0.13-0.463-0.254-0.706-0.358
	c-0.238-0.121-0.475-0.241-0.719-0.346c-0.245-0.112-0.502-0.188-0.773-0.215c-0.42,0.071-0.798-0.012-1.115-0.311l0.003,0.002
	c-0.326-0.305-0.803-0.367-1.115-0.696c-0.083-0.121-0.163-0.243-0.247-0.363c-0.161-0.245-0.351-0.463-0.578-0.649
	c-0.231-0.17-0.471-0.317-0.731-0.435c-0.365-0.176-0.724-0.358-1.081-0.545c-0.226-0.13-0.456-0.252-0.699-0.348
	c-0.23-0.117-0.456-0.234-0.688-0.341c-0.22-0.131-0.446-0.25-0.687-0.341c-0.352-0.157-0.697-0.327-1.051-0.479
	c-0.245-0.096-0.498-0.148-0.762-0.147c-0.402-0.007-0.776-0.082-1.024-0.445l-0.043-0.023c-0.316-0.208-0.551-0.523-0.895-0.697
	l0.056,0.057c-0.371-0.577-1.146-0.422-1.588-0.872l0.023-0.002c-0.197-0.248-0.356-0.519-0.479-0.808
	c-0.171-0.273-0.396-0.494-0.67-0.662c-0.428-0.245-0.872-0.463-1.338-0.622c-0.165-0.035-0.331-0.077-0.493-0.113
	c-0.021-0.002-0.042,0-0.063-0.001c-0.038-0.062-0.081-0.124-0.15-0.18l0.023,0.02c-0.268-0.282-0.535-0.563-0.846-0.798
	l0.005,0.038c-0.28-0.243-0.561-0.487-0.841-0.73c-0.252-0.033-0.505-0.062-0.758-0.087c-0.006-0.238-0.03-0.474-0.074-0.708
	c-0.275-0.246-0.552-0.491-0.827-0.737c-0.245-0.281-0.489-0.561-0.733-0.841c0.001,0,0.08-0.046,0.08-0.046
	c-0.25-0.382-0.564-0.683-1.02-0.803c-0.222-0.007-0.412-0.089-0.567-0.248c-0.279-0.142-0.475-0.36-0.598-0.646l-0.126-0.126
	c-0.308-0.14-0.536-0.361-0.685-0.667l-0.108-0.109c-0.306-0.148-0.528-0.376-0.669-0.683l-0.093-0.118
	c-0.609-0.267-0.381-1.105-0.954-1.396l-0.043,0.077c-0.272-0.248-0.546-0.496-0.818-0.743c-0.25-0.279-0.5-0.558-0.75-0.836
	c-0.246-0.281-0.493-0.563-0.739-0.844c-0.256-0.274-0.513-0.548-0.769-0.821l0.035,0.007c-0.252-0.293-0.501-0.588-0.794-0.841
	l0.015,0.016c-0.249-0.278-0.527-0.529-0.76-0.822l-0.012-0.019c-0.515-0.377-0.326-1.181-0.915-1.514l0.058,0.045
	c-0.191-0.346-0.465-0.612-0.794-0.823c-0.202-0.333-0.48-0.592-0.781-0.83c-0.218-0.288-0.498-0.525-0.699-0.829l-0.027-0.042
	c-0.542-0.353-0.344-1.159-0.916-1.494l0.054,0.046c-0.19-0.345-0.482-0.6-0.771-0.856c-0.237-0.25-0.46-0.509-0.666-0.784
	c-0.141-0.156-0.201-0.337-0.181-0.546c-0.117-0.451-0.408-0.775-0.765-1.051l0.028,0.038c-0.187-0.243-0.436-0.332-0.721-0.333
	c-0.003-0.18-0.007-0.359-0.024-0.538c-0.18-0.049-0.362-0.078-0.551-0.084c0.001,0,0.001,0,0.002,0
	c-0.104-0.482-0.207-0.965-0.31-1.448c-0.592-0.322-0.789-0.882-0.899-1.496c-0.21-0.311-0.42-0.621-0.628-0.931
	c-0.114-0.035-0.229-0.063-0.343-0.096c-0.001-0.004,0-0.007-0.001-0.012c-0.099-0.504-0.081-1.049-0.487-1.454l0.008,0.015
	c-0.596-0.337-0.814-0.891-0.877-1.531c-0.602-0.356-0.771-0.933-0.804-1.579c-0.562-0.396-0.723-0.976-0.749-1.619
	c-0.569-0.383-0.748-0.955-0.774-1.601l0.02,0.009c-0.453-0.449-0.306-1.182-0.771-1.625l0.001,0.003
	c-0.751-0.622-0.057-1.763-0.851-2.369l0.021,0.05c-0.088-0.232-0.204-0.326-0.343-0.301c0.123-0.237,0.198-0.501,0.239-0.784
	c0.018-0.359-0.004-0.712-0.085-1.063c-0.189-0.652-0.418-1.287-0.607-1.935c-0.089-0.319-0.187-0.633-0.311-0.94
	c-0.232-0.613-0.408-1.245-0.662-1.847c-0.136-0.301-0.251-0.611-0.357-0.923c-0.098-0.675-0.152-1.361-0.35-2.018
	c-0.11-0.338-0.257-0.662-0.458-0.956c-0.235-0.295-0.521-0.528-0.832-0.729c0.354-0.664,0.277-1.341-0.12-2.028
	c-0.104-0.23-0.129-0.469-0.076-0.716c-1.137-1.761-0.667-3.739-0.767-5.64c-0.018-0.745-0.036-1.49-0.054-2.235
	c-0.885-0.963-0.353-2.239-0.729-3.313c-0.006-0.264-0.011-0.529-0.015-0.793c0.328-1.074-0.078-2.32,0.765-3.273
	c0.022-0.493,0.045-0.988,0.068-1.482c0.023-1.817,0.047-3.636,0.07-5.454c-0.002,0-0.003-0.002-0.005-0.003
	c0.231-0.032,0.456-0.087,0.673-0.171c-0.042-0.257-0.008-0.505,0.102-0.741c0.539-0.881,0.262-1.837,0.254-2.769
	c-0.117-0.131-0.233-0.263-0.349-0.393c0.002,0,0.002-0.001,0.004-0.002l0.158,0.149c0.294,0.178,0.498,0.095,0.623-0.215
	c-0.06-0.247-0.029-0.482,0.091-0.705c-0.076-0.89-0.092-1.762,0.684-2.41c-0.02-0.122-0.046-0.241-0.069-0.362
	c0.062-0.055,0.106-0.118,0.18-0.167c0.427-0.541,0.229-1.307,0.658-1.848c0.806-0.611,0.141-1.742,0.836-2.393l-0.02,0.016
	c0.487-0.41,0.967-0.827,1.253-1.414c0.131-0.293,0.249-0.591,0.33-0.902c0.182-0.63,0.424-1.242,0.627-1.862
	c0.09-0.328,0.151-0.666,0.167-1.004c0.006-0.354-0.055-0.693-0.152-1.025c0.056-0.065,0.104-0.149,0.14-0.272
	c-0.027-0.239,0.028-0.458,0.165-0.658c0.353-0.471,0.231-1.145,0.675-1.577l-0.01,0.018c0.734-0.639,0.081-1.748,0.808-2.389
	l-0.007,0.013c0.465-0.446,0.372-1.148,0.745-1.634c0.619-0.625,0.473-1.354,0.265-2.093c-0.042-0.026-0.083-0.041-0.125-0.064
	c0.02-0.006,0.04-0.013,0.059-0.019l0.04-0.042c0.211-0.015,0.419-0.044,0.621-0.106c0.015-0.257,0.031-0.515,0.046-0.772
	c0.071-0.104,0.137-0.209,0.22-0.303c0.191-0.173,0.346-0.376,0.461-0.608l-0.025,0.071c0.579-0.436,0.456-1.2,0.814-1.739
	c-0.033-0.238,0.023-0.453,0.172-0.642c0.229-0.316,0.506-0.604,0.622-0.991c-0.04-0.223,0.015-0.422,0.163-0.594
	c0.25-0.321,0.521-0.63,0.617-1.042c-0.055-0.206-0.006-0.384,0.146-0.533c0.236-0.278,0.467-0.56,0.691-0.848l-0.045,0.049
	c0.54-0.39,0.418-1.124,0.823-1.584c0.314-0.242,0.602-0.507,0.803-0.854l-0.062,0.04c0.3-0.218,0.481-0.513,0.558-0.873
	c0-0.003,0-0.005,0-0.007c0.063-0.008,0.126-0.006,0.187-0.018c0.133-0.598,0.384-1.117,0.954-1.423
	c0.264-0.263,0.528-0.527,0.792-0.792c0.497-0.888,1.24-1.472,2.204-1.783c0.271-0.251,0.542-0.503,0.812-0.752
	c0.283-0.247,0.564-0.493,0.847-0.739c0.29-0.238,0.58-0.476,0.869-0.714c0.132-0.403,0.38-0.684,0.81-0.774
	c0.266-0.263,0.532-0.524,0.798-0.785c0.356-0.522,0.866-0.8,1.473-0.924c0.244-0.224,0.488-0.448,0.732-0.673
	c0.052,0.023,0.103,0.047,0.155,0.07c0.8-0.554,1.601-1.108,2.399-1.662c0.242-0.265,0.498-0.516,0.769-0.751
	c0.754-0.335,1.298-0.888,1.674-1.615c0,0-0.051-0.23-0.074-0.328c0.001-0.039,0.002-0.079,0.004-0.118
	c0.001-0.107,0.017-0.203,0.063-0.273c0.19,0.216,0.416,0.245,0.682,0.067c0.24-0.091,0.488-0.149,0.742-0.174
	c0.316-0.235,0.613-0.492,0.872-0.79L51.664,27c0.284-0.243,0.512-0.547,0.817-0.77l0.015-0.012c0.103-0.153,0.206-0.306,0.307-0.46
	c-0.073-0.077-0.146-0.154-0.218-0.232c0.002-0.002,0.003-0.003,0.005-0.004l0.307,0.203l0.345-0.188
	c0.516-0.309,1.031-0.618,1.546-0.926c0.315-0.231,0.556-0.543,0.855-0.792l-0.042-0.011l0,0c0.813-0.52,1.626-1.04,2.439-1.56
	c0.245-0.265,0.501-0.517,0.771-0.754c1.053-0.551,1.871-1.331,2.386-2.413c-0.621-0.639-1.372-0.485-2.108-0.418
	c0.479-0.665,1.133-1.109,1.945-1.356c0.293-0.225,0.585-0.45,0.878-0.675c0.031-0.171,0.088-0.334,0.149-0.497
	c0.132,0.075,0.279,0.128,0.446,0.147c0.677,0.031,1.379-0.081,1.974,0.375l0.271-0.03l0.27,0.036
	c0.308-0.205,0.609-0.42,0.901-0.647c0.164-0.132,0.351-0.195,0.562-0.185c0.12,0,0.236-0.058,0.348-0.169
	c0.104-0.105,0.069-0.248-0.038-0.412c0.09-0.047,0.176-0.1,0.262-0.15l0.069,0.006l0.396-0.007
	c0.022-0.105,0.048-0.209,0.072-0.314c0.26-0.129,0.511-0.271,0.737-0.452l0.009-0.009c0.25-0.271,0.513-0.526,0.791-0.768
	l0.018-0.013c0.372-0.517,1.197-0.318,1.496-0.948l-0.056,0.074c0.373-0.164,0.637-0.443,0.847-0.782
	c0.34-0.192,0.594-0.479,0.845-0.768l-0.02,0.012c0.447-0.442,1.173-0.313,1.609-0.782h0.003c1.463-1.023,3.315,0.235,4.775-0.813
	l0.298-0.099l0.309,0.061c0.237-0.061,0.353-0.175,0.362-0.337c0.817-0.004,1.633,0.003,2.451-0.011
	c0.483-0.061,0.94-0.228,1.396-0.396c0.504,0.023,1.008,0.047,1.514,0.072l0.312-0.117l0.333,0.01
	c0.253-0.075,0.365-0.207,0.356-0.387c0.177-0.015,0.352-0.042,0.527-0.086c0.113-0.094,0.229-0.182,0.348-0.262
	c0.168,0.034,0.336,0.068,0.504,0.103c0.197-0.132,0.414-0.186,0.651-0.158c0.248-0.08,0.361-0.209,0.352-0.385
	c0.252-0.026,0.48-0.117,0.683-0.273c0.173,0.212,0.396,0.212,0.672-0.02c0.208-0.117,0.428-0.156,0.663-0.119
	c0.516-0.365,1.209-0.27,1.711-0.667l0.353-0.115l0.369,0.01c0.698-0.651,1.749-0.087,2.455-0.712l0.327-0.114l0.346,0.02
	c0.988-0.739,2.279,0.014,3.279-0.668l0.362-0.119l0.38,0.013c1.988-0.942,4.165,0.098,6.18-0.593
	c-0.358-1.114-0.544-1.68-1.196-1.997c1.237,0.237,2.493,0.286,3.747-0.539c0.051,0,0.077-0.126,0.077-0.38
	c0-0.241-0.104-0.459-0.315-0.653c-0.722-0.257-1.556-0.022-2.228-0.502c-4.134-0.004-8.27-0.007-12.405-0.012
	c-0.219,0.073-0.322,0.199-0.335,0.365c-0.008,0-0.016,0-0.024,0c-0.493,0.187-0.961,0.648-1.489,0.09
	c-0.307-0.036-0.602,0.009-0.886,0.138c-0.005,0.003-0.008,0.008-0.013,0.011c-0.528-0.355-1.148-0.494-1.75-0.674
	c-0.735-0.071-1.459-0.034-2.172,0.176c-0.339,0.124-0.629,0.314-0.877,0.576c-0.789,0.868-1.995,0.14-2.848,0.754
	c-0.494,0.053-0.987,0.105-1.479,0.158c-0.114,0-0.217,0.042-0.312,0.125c-0.088,0.077-0.063,0.189,0.016,0.318
	c-0.744-0.091-1.492-0.211-2.193,0.196c-0.229,0.138-0.475,0.182-0.738,0.133c-0.246,0.214-0.516,0.392-0.805,0.536
	c-0.202,0.04-0.409,0.059-0.614,0.083c-0.348,0.009-0.697,0.018-1.045,0.027c-0.441,0.079-0.883,0.159-1.326,0.237
	c-0.032,0.071-0.053,0.145-0.081,0.217c-0.134,0.059-0.273,0.096-0.401,0.176c-0.109,0.099-0.205,0.21-0.297,0.323
	c-0.319,0.026-0.637,0.051-0.956,0.077c-0.163,0.394-0.433,0.655-0.875,0.7c-1.45,1.13-3.188,0.474-4.774,0.767v0
	c-0.315,0.308-0.761,0.422-1.073,0.73c-0.003,0.003-0.008,0.005-0.012,0.009c-0.169-0.026-0.339-0.053-0.509-0.078
	c-0.202,0.149-0.427,0.207-0.676,0.173c-0.063,0.163-0.092,0.335-0.125,0.506c-0.073,0.023-0.145,0.051-0.215,0.081
	c-0.444-0.255-0.89-0.235-1.338,0.089c-0.207,0.117-0.429,0.162-0.667,0.135c-0.393,0.64-0.994,0.822-1.7,0.776
	c-0.401,0.556-0.971,0.714-1.62,0.685c-0.149,0.144-0.324,0.189-0.524,0.137c-0.406,0.1-0.711,0.368-1.032,0.611
	c-0.196,0.136-0.413,0.192-0.65,0.167c-0.529,0.358-1.272,0.251-1.717,0.787c-0.475,0.388-1.2,0.274-1.606,0.801l0.043-0.039
	c-0.282,0.238-0.574,0.462-0.873,0.676l-0.081,0.048c-0.313,0.577-1.128,0.371-1.452,0.93l0.059,0.008
	c-0.146,0.415-0.449,0.634-0.872,0.705c-0.3,0.621-0.844,0.841-1.484,0.905l-0.04-0.064c-0.469,0.434-1.239,0.186-1.659,0.732
	c-0.209,0.122-0.434,0.177-0.675,0.165c-0.514,0.263-1.027,0.527-1.54,0.79c-0.049,0.206-0.105,0.41-0.169,0.611
	c-0.266,0.001-0.532,0.001-0.798,0.002c-0.35,0.547-0.873,0.807-1.496,0.902c-0.294,0.228-0.589,0.456-0.882,0.684
	c-0.336,0.57-0.866,0.816-1.495,0.899l-0.006-0.059c-0.309,0.229-0.59,0.488-0.868,0.75l-0.007,0.006
	c-0.211,0.252-0.459,0.46-0.74,0.63c-0.156,0.159-0.344,0.238-0.565,0.241c-0.442,0.119-0.763,0.399-1.021,0.764
	c-0.313,0.212-0.567,0.486-0.818,0.765c-0.257,0.25-0.532,0.48-0.828,0.686l-0.074,0.047c-0.319,0.572-1.133,0.368-1.456,0.933
	l0.066,0.02c-0.267,0.257-0.533,0.515-0.8,0.773c-0.291,0.236-0.581,0.474-0.872,0.712c-0.271,0.256-0.542,0.513-0.814,0.77
	c-0.268,0.259-0.537,0.52-0.805,0.779c-0.182,0.19-0.362,0.381-0.542,0.572c-0.048-0.017-0.095-0.033-0.142-0.05
	c-0.553,0.361-1.105,0.723-1.659,1.084c-0.256,0.278-0.547,0.521-0.806,0.796c-0.267,0.263-0.534,0.528-0.793,0.799l0.009-0.009
	c-0.271,0.259-0.537,0.523-0.793,0.799c-0.275,0.256-0.539,0.524-0.801,0.793l0.009-0.007c-0.189,0.211-0.26,0.437-0.229,0.676
	c-0.208-0.073-0.402-0.05-0.572,0.136c-0.093,0.257-0.187,0.515-0.28,0.773l0.291-0.006c-0.274,0.259-0.549,0.52-0.823,0.78
	c-0.26,0.266-0.521,0.535-0.783,0.802c-0.259,0.269-0.519,0.537-0.779,0.806c-0.25,0.278-0.5,0.556-0.75,0.834
	c-0.245,0.28-0.489,0.56-0.734,0.839l-0.014-0.063c-0.559,0.319-0.347,1.138-0.933,1.439l-0.065,0.091
	c-0.188,0.307-0.414,0.582-0.678,0.825l0.007-0.007c-0.262,0.237-0.32,0.506-0.218,0.798c-0.172,0.023-0.343,0.046-0.514,0.073
	c-0.225,0.291-0.45,0.582-0.675,0.874c-0.154,0.593-0.39,1.13-0.981,1.422c-0.001,0.259-0.004,0.518-0.01,0.776
	c-0.219,0.049-0.438,0.096-0.658,0.141c-0.102,0.615-0.33,1.151-0.92,1.459c-0.21,0.311-0.42,0.622-0.629,0.932
	c-0.146,0.596-0.374,1.142-0.943,1.465l0.009-0.015c-0.475,0.401-0.301,1.16-0.84,1.526l-0.025,0.042
	c-0.219,0.306-0.482,0.576-0.709,0.875l0.052,0c-0.065,0.63-0.238,1.202-0.826,1.553c-0.042,0.641-0.204,1.221-0.806,1.575
	c-0.043,0.639-0.212,1.215-0.795,1.583C9.684,55.42,9.521,56,8.952,56.389c-0.023,0.645-0.179,1.228-0.752,1.617
	c-0.014,0.221-0.027,0.442-0.04,0.663c-0.259,0.112-0.514,0.229-0.752,0.383c-0.261,0.226-0.472,0.485-0.62,0.796
	c-0.252,0.594-0.353,1.225-0.511,1.839c-0.093,0.295-0.145,0.595-0.154,0.903c-0.02,0.593,0.064,1.207-0.4,1.692l0.007-0.007
	c-0.665,0.521-0.91,1.283-1.156,2.041c-0.089,0.31-0.125,0.623-0.093,0.944c0.058,0.618,0.109,1.236-0.298,1.771
	c-0.759,0.709-0.215,1.811-0.774,2.579c0.081,0.201,0.06,0.392-0.061,0.571c-0.853,0.919,0.015,2.252-0.751,3.192
	C1.813,76.15,2.375,77.221,2,78.088c-0.017,0.197,0.015,0.393,0.053,0.586c-0.065,0.029-0.133,0.053-0.198,0.083
	c-0.045,0.453-0.091,0.906-0.136,1.359c0.009,1.321,0.019,2.642,0.028,3.964c-0.107,0.201-0.139,0.413-0.096,0.637
	c0.004,0.021,0.007,0.042,0.011,0.063c-0.093-0.05-0.173-0.115-0.28-0.146c-0.449,0.056-0.781,0.29-0.979,0.7
	c-0.37,0.847-0.456,1.72-0.213,2.621c0.589,4.326,0.723,8.645-0.181,12.952c-0.043,0.682,0.043,1.344,0.26,1.991
	c1.102,1.462,1.343,3.037,0.646,4.74c-0.007,0.632,0.117,1.23,0.43,1.785c1.27,0.741,0.396,2.292,1.214,3.204
	c0.107,0.189,0.125,0.386,0.053,0.591c0.553,0.806-0.073,1.611,0.008,2.416c0.034,0.333,0.092,0.661,0.195,0.979
	c0.278,0.788,0.441,1.6,0.582,2.416c0.071,0.333,0.159,0.665,0.283,0.983c0.34,0.819,0.589,1.694,1.383,2.233
	c0.197,0.056,0.396,0.082,0.597,0.088c0.032,0.714,0.063,1.427,0.095,2.142c-0.016,0.147-0.032,0.294-0.046,0.442
	c-0.027,0.45,0.03,0.892,0.136,1.327c0.074,0.291,0.167,0.575,0.297,0.847c0.265,0.558,0.721,0.956,1.146,1.381
	c0.118,0.171,0.148,0.356,0.095,0.556c0.305,0.581,0.218,1.331,0.778,1.803l-0.005-0.042c0.582,0.393,0.714,0.99,0.741,1.635
	c0.599,0.371,0.767,0.946,0.76,1.605l0.007,0.009c0.516,0.397,0.347,1.13,0.771,1.574l0.014,0.027
	c0.52,0.379,0.335,1.105,0.753,1.534c0.126,0.166,0.168,0.353,0.128,0.559c0.119,0.42,0.414,0.726,0.674,1.055l0.022,0.041
	c0.534,0.373,0.367,1.116,0.811,1.536l0.003,0.005c0.594,0.329,0.822,0.873,0.885,1.513c0.579,0.364,0.747,0.937,0.8,1.569
	l-0.062,0.01c0.224,0.305,0.487,0.576,0.717,0.876l0.021,0.033c0.53,0.374,0.352,1.142,0.852,1.532l-0.024-0.029
	c0.235,0.251,0.454,0.518,0.656,0.798c0.145,0.16,0.21,0.349,0.196,0.565c0.125,0.441,0.413,0.763,0.764,1.039l-0.017-0.029
	c0.438,0.449,0.285,1.22,0.865,1.593l-0.056-0.047c0.191,0.35,0.486,0.604,0.777,0.864c0.235,0.277,0.512,0.517,0.72,0.816
	l0.022,0.035c0.532,0.367,0.346,1.156,0.888,1.518l-0.045-0.044c0.212,0.329,0.504,0.583,0.777,0.855l-0.008-0.01
	c0.262,0.252,0.496,0.528,0.704,0.824l0.046,0.068c0.569,0.327,0.361,1.134,0.914,1.472l-0.042-0.026
	c0.174,0.36,0.449,0.622,0.786,0.824l-0.015-0.028c0.23,0.311,0.513,0.572,0.791,0.837l-0.011-0.013
	c0.149,0.114,0.299,0.229,0.448,0.342c0.117-0.113,0.232-0.225,0.349-0.337c0,0,0.001,0,0.001,0.002l-0.084,0.083
	c-0.043,0-0.083,0.083-0.119,0.25c-0.035,0.165,0.017,0.325,0.157,0.48l0.024,0.024c0.265,0.199,0.487,0.438,0.659,0.722
	c0.145,0.157,0.218,0.344,0.22,0.559c0.103,0.278,0.239,0.386,0.401,0.365c0.07,0.264,0.209,0.483,0.455,0.633l0.057-0.07
	c0.24,0.27,0.479,0.538,0.719,0.808c0.261,0.267,0.522,0.534,0.784,0.802c0.259,0.269,0.518,0.538,0.777,0.808
	c0.259,0.269,0.519,0.539,0.778,0.809c0.247,0.28,0.495,0.561,0.743,0.841c0.417,0.114,0.67,0.388,0.786,0.798
	c0.276,0.253,0.552,0.505,0.827,0.758c0.272,0.256,0.546,0.512,0.817,0.767c0.275,0.255,0.548,0.51,0.822,0.766
	c0.263,0.265,0.526,0.531,0.788,0.796c0.265,0.268,0.53,0.535,0.795,0.802l-0.071,0.046c0.204,0.334,0.427,0.646,0.813,0.793
	l-0.013-0.066c0.311,0.602,1.134,0.396,1.48,0.94l0.041,0.03c0.289,0.222,0.556,0.469,0.802,0.738L39,172.072
	c0.278,0.254,0.537,0.525,0.812,0.781l-0.013-0.01c0.261,0.27,0.512,0.551,0.833,0.751c0.257,0.383,0.585,0.669,1.052,0.77
	c0.22,0.009,0.396,0.101,0.53,0.277c0.213,0.042,0.43,0.055,0.645,0.078c0.018,0.183,0.035,0.365,0.086,0.54
	c0.174,0.014,0.348,0.015,0.522,0.018c0.046,0.041,0.088,0.085,0.135,0.124c-0.02,0.042-0.038,0.083-0.055,0.147
	c-0.043,0.172,0.048,0.325,0.274,0.458l-0.043-0.03c0.282,0.346,0.589,0.657,1.042,0.773c0.223-0.006,0.41,0.074,0.561,0.237
	l0.323,0.137l0.12-0.05c0.083,0.193,0.188,0.376,0.335,0.533l-0.015-0.012c0.292,0.33,0.611,0.621,1.053,0.737
	c0.232-0.012,0.418,0.074,0.56,0.259c0.222,0.105,0.452,0.13,0.687,0.114c0.04,0.151,0.08,0.303,0.108,0.457
	c0.264,0.005,0.526,0.032,0.787,0.082c0.039,0.193,0.081,0.387,0.126,0.579c0.207,0.009,0.407-0.027,0.598-0.107
	c0.044,0.015,0.087,0.031,0.132,0.047c0.026,0.061,0.052,0.124,0.083,0.18c0.18,0.313,0.413,0.576,0.712,0.779l-0.07-0.029
	c0.373,0.559,1.121,0.427,1.568,0.848c0.384,0.501,1.157,0.316,1.517,0.859l0.045,0.022c0.341,0.268,0.659,0.575,1.11,0.657
	c0.206-0.044,0.376,0.015,0.511,0.178c0.321,0.255,0.633,0.527,1.051,0.62c0.208-0.052,0.385,0.001,0.531,0.159
	c0.319,0.266,0.634,0.54,1.058,0.633c0.208-0.049,0.385,0.008,0.529,0.166c0.324,0.264,0.64,0.541,1.07,0.623l0.28-0.002
	l0.233,0.155c0.465,0.396,1.158,0.269,1.609,0.696L62,186.291c0.48,0.524,1.222,0.436,1.786,0.762
	c0.23-0.047,0.432,0.01,0.607,0.168c0.471,0.367,1.151,0.246,1.594,0.681l-0.027-0.015c0.383,0.406,0.871,0.414,1.362,0.41
	c-0.012,0.17,0.119,0.288,0.416,0.344l0.313-0.006l0.292,0.117c0.509,0.436,1.221,0.351,1.771,0.682l0.313-0.013l0.292,0.114
	c0.403,0.326,0.811,0.395,1.223,0.214c0.147,0.218,0.34,0.386,0.618,0.456c0.453,0.072,0.904,0.145,1.357,0.219
	c0.524,0.319,1.186,0.26,1.698,0.615l0.343-0.023l0.318,0.131c0.726,0.601,1.767,0.074,2.488,0.692l0.354-0.021l0.332,0.127
	c0.96,0.729,2.269-0.113,3.209,0.712l0.393-0.017l0.371,0.129c0.982,0.666,2.265-0.119,3.22,0.673
	c0.51,0.03,1.019,0.061,1.527,0.091c0.479,0.371,1,0.34,1.535,0.151c0.075-0.089,0.125-0.179,0.159-0.271l0.259,0.065l0.15-0.021
	c0.022,0.031,0.044,0.063,0.065,0.094c0.604,0.388,1.369,0.272,1.979,0.637c0.988,0.057,1.976,0.111,2.963,0.168
	c2.64-0.038,5.28-0.078,7.92-0.116c0.269,0.003,0.538,0.005,0.807,0.007c0.523-0.002,1.047-0.003,1.57-0.005
	c0.98,0.112,1.958,0.156,2.934,0.056c0.39,0.1,0.796,0.168,1.158,0.349c0.497,0.29,1.031,0.476,1.608,0.522
	c0.964,0.068,1.914-0.015,2.854-0.24c1.065-0.344,2.162-0.48,3.271-0.55c0.549-0.052,1.092-0.144,1.623-0.298
	c1.032-0.35,2.103-0.446,3.175-0.543c0.543-0.074,1.058-0.229,1.519-0.538c0.242-0.257,0.376-0.56,0.396-0.913
	c0.205,0.102,0.428,0.104,0.673-0.005c0.181-0.069,0.36-0.142,0.541-0.214c0.29,0.022,0.58,0.045,0.87,0.066l0.329-0.105
	l0.346,0.011c0.225-0.083,0.332-0.206,0.338-0.364c0.036,0.004,0.068-0.004,0.104,0c0.691-0.048,1.424,0.152,2.04-0.346l0.327-0.103
	l0.344,0.014c0.726-0.625,1.806-0.054,2.514-0.741l0.277-0.109l0.295,0.027c0.564-0.305,1.258-0.25,1.786-0.65l0.319-0.123
	l0.341,0.005c0.515-0.354,1.186-0.286,1.705-0.63c0.234-0.125,0.483-0.17,0.746-0.136c0.683-0.679,1.785-0.06,2.452-0.79
	l-0.021,0.011c0.435-0.433,1.084-0.334,1.572-0.64c0.258-0.052,0.517-0.104,0.776-0.156c0.214-0.199,0.3-0.42,0.271-0.662
	c0.449,0.316,0.897,0.289,1.343-0.015c0.216-0.129,0.448-0.177,0.697-0.142c0.498-0.395,1.209-0.273,1.694-0.698
	c0.166-0.136,0.353-0.183,0.563-0.138c0.585-0.297,1.326-0.226,1.814-0.757c0.462-0.391,1.165-0.292,1.585-0.771
	c0.069-0.011,0.142-0.068,0.221-0.188c0.094-0.143,0.054-0.31-0.121-0.499c-0.002-0.001-0.004-0.001-0.006-0.002
	c0.495-0.031,0.99-0.063,1.486-0.097c0.035-0.146,0.048-0.297,0.063-0.447c0.208,0.011,0.416,0.006,0.625-0.031
	c0.204-0.107,0.399-0.232,0.598-0.35c0.101,0.01,0.2,0.035,0.302,0.035c0.018-0.068,0.041-0.135,0.06-0.205
	c0.099-0.045,0.191-0.104,0.297-0.136c0.457-0.054,0.918-0.097,1.221-0.515l-0.05,0.051c0.288-0.221,0.571-0.447,0.851-0.677
	c0.128-0.155,0.29-0.214,0.486-0.173c0.413-0.082,0.566-0.335,0.498-0.733c0.194-0.005,0.389-0.012,0.583-0.019
	c0.323-0.583,0.879-0.784,1.486-0.9c0.312-0.209,0.623-0.419,0.934-0.628c0.042-0.194,0.058-0.392,0.046-0.591
	c-0.02-0.117-0.064-0.225-0.103-0.333c0.021-0.001,0.041,0.007,0.06,0.005v-0.001l0.043,0.329c0.257-0.148,0.514-0.295,0.771-0.442
	c0.196,0.044,0.395,0.065,0.597,0.065c0.035-0.207,0.073-0.413,0.115-0.619c0,0-0.001,0.001-0.002,0.001l0.002-0.001
	c0.265-0.022,0.529-0.043,0.793-0.064c0.523-0.873,1.284-1.435,2.257-1.717c0.16-0.402,0.467-0.615,0.887-0.682
	c0.143-0.421,0.457-0.627,0.876-0.701c0.344-0.49,0.689-0.979,1.033-1.469c0.358-0.094,0.718-0.188,1.077-0.283l0.041,0.012
	c0.389-0.128,0.496-0.373,0.338-0.724c0.172-0.034,0.344-0.067,0.516-0.101c0.104-0.426,0.371-0.681,0.801-0.768
	c0.097-0.438,0.362-0.701,0.805-0.783c0.11-0.439,0.402-0.672,0.837-0.747c0.094-0.435,0.358-0.7,0.796-0.789
	c0.089-0.439,0.354-0.703,0.792-0.794c0.095-0.44,0.37-0.693,0.806-0.781c0.093-0.436,0.364-0.692,0.793-0.79
	c0.078-0.432,0.313-0.722,0.748-0.835c0.07-0.425,0.292-0.722,0.719-0.843c0.032-0.257,0.078-0.512,0.139-0.765
	c0.214-0.025,0.428-0.05,0.642-0.075c0.616-1.193,1.42-2.226,2.542-2.989c0.019-0.256,0.033-0.512,0.042-0.769
	c0.214-0.055,0.43-0.099,0.649-0.133c0.301-0.951,0.815-1.744,1.685-2.274c0.042-0.429,0.24-0.748,0.652-0.913
	c0.096-0.63,0.329-1.17,0.963-1.438c0.043-0.433,0.253-0.742,0.666-0.903c0.065-0.635,0.26-1.194,0.874-1.513
	c0.181-1.017,0.677-1.834,1.539-2.418c0.07-0.635,0.281-1.185,0.882-1.508c-0.003-0.265-0.026-0.527-0.067-0.787
	c0.294-0.261,0.588-0.522,0.882-0.783c-0.016-0.666,0.195-1.221,0.773-1.599c-0.01-0.659,0.217-1.209,0.739-1.626
	c0.019-1.149,0.016-2.303,0.794-3.265C191.012,139.975,191.044,139.761,191.225,139.568z" class="color c1"/>
</svg>