<svg version="1.1" id="图层_1" x="0px" y="0px" width="178.145px" height="200px" viewBox="0 0 178.145 200" enable-background="new 0 0 178.145 200" xml:space="preserve" xmlns="http://www.w3.org/2000/svg" xmlns:xlink="http://www.w3.org/1999/xlink" xmlns:xml="http://www.w3.org/XML/1998/namespace">
  <path fill="#FFFFFF" d="M168.926,43.25L98.293,2.471C95.438,0.824,92.256,0,89.071,0c-3.184,0-6.365,0.824-9.221,2.471L9.219,43.25
	C3.515,46.543,0,52.631,0,59.219v81.563c0,6.588,3.516,12.676,9.219,15.969l70.633,40.779c2.854,1.646,6.037,2.471,9.223,2.471
	c3.183,0,6.366-0.824,9.22-2.471l70.633-40.779c5.705-3.293,9.219-9.381,9.219-15.969V59.219
	C178.145,52.631,174.631,46.543,168.926,43.25z" class="color c1"/>
</svg>