<svg version="1.1" id="图层_1" x="0px" y="0px" width="283.016px" height="283.006px" viewBox="0 0 283.016 283.006" enable-background="new 0 0 283.016 283.006" xml:space="preserve" xmlns="http://www.w3.org/2000/svg" xmlns:xlink="http://www.w3.org/1999/xlink" xmlns:xml="http://www.w3.org/XML/1998/namespace">
  <path fill="#020202" d="M145.43,283.006c-1.25,0-2.286-0.989-2.334-2.249c-0.048-1.29,0.958-2.375,2.248-2.424l0.261-0.008
	c1.334-0.008,2.364,0.988,2.396,2.277c0.033,1.291-0.986,2.363-2.276,2.396l-0.204,0.006
	C145.49,283.006,145.46,283.006,145.43,283.006z M133.756,282.85c-0.04,0-0.079-0.001-0.12-0.003l-0.262-0.014
	c-1.288-0.081-2.267-1.19-2.187-2.479c0.08-1.289,1.19-2.264,2.479-2.188l0.205,0.012c1.289,0.064,2.281,1.162,2.216,2.451
	C136.025,281.879,134.993,282.85,133.756,282.85z M157.309,282.171c-1.174,0-2.186-0.882-2.319-2.075
	c-0.145-1.283,0.778-2.439,2.061-2.584l0.229-0.026c1.293-0.136,2.441,0.776,2.587,2.058c0.146,1.282-0.775,2.44-2.058,2.587
	l-0.235,0.026C157.485,282.166,157.396,282.171,157.309,282.171z M121.902,281.694c-0.107,0-0.216-0.008-0.325-0.023l-0.26-0.037
	c-1.276-0.193-2.153-1.386-1.959-2.661c0.194-1.276,1.381-2.16,2.662-1.96l0.203,0.029c1.278,0.178,2.17,1.358,1.993,2.637
	C124.051,280.848,123.05,281.694,121.902,281.694z M169.077,280.326c-1.101,0-2.08-0.781-2.293-1.902
	c-0.241-1.268,0.592-2.491,1.86-2.731l0.195-0.039c1.267-0.264,2.5,0.555,2.759,1.819c0.26,1.265-0.555,2.5-1.819,2.759
	l-0.264,0.053C169.369,280.313,169.221,280.326,169.077,280.326z M110.188,279.528c-0.174,0-0.351-0.02-0.527-0.061l-0.231-0.054
	c-1.257-0.292-2.04-1.548-1.748-2.805c0.292-1.258,1.548-2.046,2.805-1.748l0.224,0.052c1.258,0.29,2.042,1.545,1.752,2.803
	C112.214,278.797,111.252,279.528,110.188,279.528z M180.689,277.464c-1.019,0-1.968-0.66-2.264-1.683
	c-0.357-1.239,0.331-2.527,1.571-2.887l0.205-0.06c1.233-0.369,2.539,0.333,2.908,1.57s-0.334,2.539-1.57,2.908l-0.195,0.058
	C181.126,277.434,180.906,277.464,180.689,277.464z M98.703,276.362c-0.241,0-0.485-0.037-0.727-0.116l-0.201-0.065
	c-1.231-0.389-1.914-1.701-1.525-2.933c0.388-1.23,1.701-1.917,2.932-1.524l0.246,0.079c1.227,0.401,1.896,1.721,1.496,2.947
	C100.602,275.736,99.687,276.362,98.703,276.362z M191.925,273.643c-0.938,0-1.822-0.568-2.181-1.495
	c-0.466-1.204,0.133-2.558,1.337-3.022l0.208-0.081c1.206-0.474,2.558,0.122,3.028,1.323c0.472,1.201-0.121,2.558-1.323,3.028
	l-0.228,0.089C192.49,273.592,192.206,273.643,191.925,273.643z M87.525,272.216c-0.301,0-0.607-0.059-0.902-0.183l-0.222-0.093
	c-1.189-0.501-1.747-1.872-1.245-3.062c0.502-1.188,1.874-1.745,3.062-1.245l0.211,0.089c1.191,0.498,1.751,1.868,1.253,3.059
	C89.307,271.677,88.438,272.216,87.525,272.216z M202.827,268.853c-0.867,0-1.699-0.484-2.104-1.316
	c-0.564-1.16-0.081-2.56,1.08-3.123l0.197-0.098c1.158-0.569,2.559-0.094,3.13,1.063c0.57,1.157,0.095,2.559-1.063,3.13
	l-0.221,0.107C203.517,268.776,203.169,268.853,202.827,268.853z M76.747,267.123c-0.364,0-0.733-0.085-1.078-0.266l-0.236-0.124
	c-1.136-0.612-1.561-2.03-0.948-3.167c0.612-1.136,2.031-1.559,3.166-0.948l0.178,0.095c1.145,0.596,1.589,2.008,0.993,3.152
	C78.405,266.665,77.59,267.123,76.747,267.123z M213.278,263.145c-0.792,0-1.564-0.403-2.004-1.131
	c-0.666-1.105-0.311-2.542,0.795-3.209l0.199-0.12c1.105-0.667,2.541-0.311,3.209,0.795c0.666,1.105,0.311,2.542-0.795,3.209
	l-0.199,0.12C214.105,263.036,213.689,263.145,213.278,263.145z M66.448,261.125c-0.429,0-0.864-0.119-1.253-0.366l-0.224-0.146
	c-1.079-0.708-1.379-2.157-0.671-3.236c0.708-1.079,2.159-1.378,3.236-0.67l0.17,0.109c1.088,0.693,1.409,2.138,0.715,3.227
	C67.976,260.742,67.221,261.125,66.448,261.125z M223.205,256.563c-0.725,0-1.438-0.335-1.896-0.968
	c-0.757-1.046-0.521-2.507,0.524-3.263l0.174-0.128c1.041-0.763,2.503-0.539,3.268,0.5c0.764,1.041,0.54,2.504-0.5,3.268
	l-0.203,0.147C224.158,256.419,223.679,256.563,223.205,256.563z M56.673,254.262c-0.487,0-0.978-0.155-1.397-0.479
	c-0.001-0.001-0.053-0.041-0.054-0.042l-0.12-0.092c-1.027-0.782-1.225-2.249-0.442-3.275c0.782-1.027,2.248-1.226,3.275-0.443
	l0.146,0.113c1.021,0.789,1.234,2.276,0.446,3.298C58.062,253.941,57.371,254.262,56.673,254.262z M232.534,249.158
	c-0.653,0-1.303-0.272-1.766-0.804c-0.847-0.975-0.742-2.451,0.231-3.298l0.18-0.155c0.975-0.843,2.45-0.74,3.297,0.236
	c0.845,0.975,0.739,2.451-0.236,3.297l-0.174,0.151C233.624,248.97,233.078,249.158,232.534,249.158z M47.576,246.609
	c-0.564,0-1.129-0.202-1.578-0.613l-0.18-0.164c-0.948-0.876-1.007-2.354-0.132-3.303c0.875-0.948,2.354-1.007,3.303-0.133
	l0.165,0.152c0.952,0.871,1.018,2.35,0.146,3.302C48.839,246.354,48.208,246.609,47.576,246.609z M241.201,240.985
	c-0.578,0-1.156-0.212-1.608-0.641c-0.937-0.889-0.976-2.368-0.088-3.305l0.192-0.197c0.904-0.922,2.385-0.934,3.305-0.029
	c0.921,0.904,0.935,2.384,0.029,3.305l-0.134,0.139C242.437,240.741,241.819,240.985,241.201,240.985z M39.135,238.202
	c-0.633,0-1.264-0.255-1.725-0.759l-0.145-0.157c-0.88-0.945-0.827-2.424,0.118-3.304c0.945-0.879,2.423-0.825,3.303,0.118
	l0.172,0.187c0.872,0.952,0.806,2.431-0.146,3.302C40.264,238,39.698,238.202,39.135,238.202z M249.143,232.104
	c-0.521,0-1.046-0.173-1.48-0.529c-0.998-0.818-1.145-2.291-0.326-3.289l0.151-0.184c0.82-0.998,2.293-1.142,3.289-0.32
	c0.997,0.819,1.141,2.293,0.32,3.289l-0.146,0.178C250.49,231.812,249.819,232.104,249.143,232.104z M31.44,229.108
	c-0.696,0-1.386-0.31-1.846-0.902l-0.15-0.193c-0.787-1.022-0.597-2.49,0.426-3.277c1.022-0.787,2.49-0.598,3.278,0.426l0.136,0.176
	c0.792,1.019,0.609,2.487-0.41,3.279C32.447,228.948,31.941,229.108,31.44,229.108z M256.302,222.58
	c-0.453,0-0.912-0.132-1.314-0.407c-1.066-0.727-1.342-2.181-0.614-3.247l0.132-0.193c0.727-1.068,2.183-1.343,3.247-0.614
	c1.066,0.727,1.342,2.181,0.614,3.247l-0.132,0.193C257.783,222.223,257.049,222.58,256.302,222.58z M24.548,219.396
	c-0.77,0-1.523-0.38-1.969-1.075l-0.12-0.187c-0.703-1.082-0.395-2.53,0.688-3.232c1.084-0.705,2.53-0.395,3.233,0.688l0.133,0.206
	c0.697,1.087,0.382,2.532-0.705,3.229C25.417,219.275,24.98,219.396,24.548,219.396z M262.623,212.478
	c-0.398,0-0.801-0.102-1.17-0.315c-1.117-0.647-1.497-2.078-0.851-3.194l0.096-0.17c0.628-1.128,2.052-1.531,3.18-0.904
	c1.127,0.629,1.532,2.052,0.904,3.18l-0.135,0.238C264.213,212.06,263.428,212.478,262.623,212.478z M18.511,209.13
	c-0.834,0-1.641-0.447-2.062-1.234l-0.122-0.229c-0.596-1.145-0.152-2.557,0.993-3.152c1.144-0.598,2.556-0.153,3.153,0.992
	l0.097,0.183c0.61,1.138,0.182,2.554-0.957,3.164C19.261,209.04,18.883,209.13,18.511,209.13z M268.055,201.868
	c-0.334,0-0.674-0.072-0.996-0.225c-1.167-0.551-1.667-1.944-1.115-3.111l0.081-0.178c0.531-1.177,1.917-1.696,3.093-1.167
	c1.176,0.532,1.698,1.916,1.167,3.093l-0.114,0.248C269.772,201.373,268.931,201.868,268.055,201.868z M13.376,198.387
	c-0.91,0-1.774-0.534-2.152-1.425l-0.091-0.214c-0.504-1.188,0.05-2.56,1.238-3.064c1.188-0.508,2.56,0.049,3.065,1.238l0.091,0.214
	c0.504,1.188-0.05,2.56-1.238,3.064C13.991,198.326,13.681,198.387,13.376,198.387z M272.558,190.83
	c-0.26,0-0.523-0.044-0.782-0.136c-1.217-0.432-1.853-1.769-1.42-2.984l0.082-0.23c0.437-1.214,1.774-1.844,2.991-1.407
	c1.214,0.438,1.845,1.776,1.407,2.991l-0.076,0.211C274.42,190.232,273.519,190.83,272.558,190.83z M9.184,187.245
	c-0.982,0-1.896-0.624-2.22-1.607l-0.077-0.236c-0.396-1.229,0.279-2.545,1.507-2.941c1.226-0.397,2.545,0.279,2.942,1.508
	l0.068,0.209c0.403,1.227-0.264,2.547-1.49,2.95C9.672,187.207,9.426,187.245,9.184,187.245z M276.09,179.452
	c-0.203,0-0.41-0.027-0.616-0.083c-1.245-0.34-1.979-1.625-1.64-2.87l0.053-0.198c0.324-1.249,1.604-1.999,2.85-1.674
	c1.249,0.324,1.999,1.6,1.674,2.85l-0.066,0.253C278.061,178.769,277.119,179.452,276.09,179.452z M5.965,175.776
	c-1.064,0-2.026-0.731-2.275-1.813l-0.048-0.207c-0.302-1.255,0.471-2.517,1.727-2.818c1.256-0.302,2.517,0.472,2.818,1.727
	l0.058,0.248c0.29,1.258-0.494,2.513-1.752,2.803C6.316,175.757,6.139,175.776,5.965,175.776z M278.63,167.814
	c-0.138,0-0.276-0.013-0.416-0.037c-1.271-0.229-2.115-1.443-1.888-2.714l0.034-0.197c0.21-1.272,1.41-2.128,2.687-1.927
	c1.273,0.21,2.136,1.412,1.927,2.687l-0.046,0.264C280.725,167.021,279.74,167.814,278.63,167.814z M3.746,164.073
	c-1.142,0-2.141-0.838-2.31-2.001L1.4,161.826c-0.178-1.278,0.714-2.459,1.993-2.637c1.279-0.182,2.458,0.714,2.637,1.992
	l0.031,0.217c0.186,1.277-0.699,2.464-1.976,2.649C3.971,164.064,3.857,164.073,3.746,164.073z M280.161,156.001
	c-0.06,0-0.12-0.002-0.18-0.007c-1.287-0.098-2.251-1.22-2.153-2.507l0.02-0.241c0.113-1.286,1.254-2.257,2.533-2.133
	c1.286,0.112,2.237,1.236,2.125,2.522l-0.002,0.019l-0.016,0.187C282.395,155.068,281.371,156.001,280.161,156.001z M2.538,152.223
	c-1.231,0-2.262-0.962-2.332-2.206L0.193,149.8c-0.082-1.288,0.896-2.398,2.185-2.479c1.285-0.103,2.398,0.896,2.48,2.185
	l0.015,0.25c0.072,1.288-0.914,2.392-2.202,2.464C2.626,152.222,2.582,152.223,2.538,152.223z M280.156,141.253
	c-1.052-0.205-1.858-1.119-1.887-2.235l-0.007-0.203c-0.048-1.29,0.958-2.375,2.248-2.424c1.242-0.052,2.375,0.957,2.424,2.247
	l0.009,0.263c0.028,1.131-0.752,2.095-1.813,2.337C282.205,141.447,279.117,141.49,280.156,141.253z M2.338,140.311
	c-0.02,0-0.04,0-0.06,0c-1.29-0.032-2.31-1.104-2.278-2.396l0.006-0.234c0.033-1.291,1.087-2.316,2.396-2.277
	c1.291,0.033,2.31,1.105,2.277,2.396l-0.006,0.232C4.642,139.303,3.602,140.311,2.338,140.311z M3.143,128.427
	c-0.088,0-0.176-0.005-0.266-0.015c-1.283-0.145-2.205-1.303-2.06-2.585l0.024-0.22c0.138-1.283,1.286-2.216,2.574-2.074
	c1.283,0.138,2.212,1.291,2.074,2.574l-0.027,0.245C5.327,127.546,4.315,128.427,3.143,128.427z M279.714,127.419
	c-1.161,0-2.167-0.864-2.316-2.046l-0.03-0.259c-0.146-1.283,0.775-2.441,2.058-2.587c1.293-0.145,2.441,0.776,2.587,2.058
	l0.024,0.205c0.161,1.281-0.747,2.449-2.027,2.61C279.91,127.414,279.811,127.419,279.714,127.419z M4.955,116.655
	c-0.15,0-0.302-0.014-0.455-0.044c-1.267-0.25-2.09-1.479-1.84-2.746l0.046-0.232c0.251-1.266,1.482-2.087,2.748-1.837
	c1.266,0.251,2.088,1.482,1.837,2.748l-0.045,0.227C7.025,115.884,6.048,116.655,4.955,116.655z M277.817,115.661
	c-1.088,0-2.063-0.764-2.288-1.871l-0.046-0.226c-0.26-1.265,0.555-2.5,1.819-2.759c1.265-0.259,2.5,0.556,2.759,1.82l0.048,0.232
	c0.258,1.265-0.559,2.499-1.823,2.757C278.128,115.646,277.971,115.661,277.817,115.661z M7.77,105.082
	c-0.214,0-0.431-0.03-0.647-0.092c-1.24-0.357-1.957-1.651-1.6-2.892l0.054-0.184c0.362-1.238,1.667-1.973,2.906-1.612
	c1.239,0.362,1.957,1.634,1.595,2.873l-0.063,0.215C9.72,104.415,8.785,105.082,7.77,105.082z M274.917,104.108
	c-1.016,0-1.95-0.667-2.245-1.692l-0.059-0.197c-0.371-1.236,0.329-2.54,1.565-2.911c1.238-0.372,2.539,0.33,2.911,1.565
	l0.074,0.251c0.356,1.241-0.359,2.535-1.601,2.892C275.347,104.079,275.13,104.108,274.917,104.108z M11.572,93.792
	c-0.282,0-0.569-0.051-0.847-0.16c-1.203-0.468-1.798-1.823-1.331-3.026l0.078-0.201c0.458-1.207,1.809-1.815,3.015-1.354
	c1.207,0.458,1.813,1.808,1.354,3.015l-0.091,0.236C13.391,93.227,12.507,93.792,11.572,93.792z M271.033,92.847
	c-0.926,0-1.802-0.554-2.169-1.465l-0.094-0.238c-0.472-1.202,0.121-2.558,1.323-3.029c1.2-0.469,2.558,0.123,3.028,1.324
	l0.078,0.197c0.482,1.197-0.098,2.559-1.295,3.041C271.619,92.792,271.323,92.847,271.033,92.847z M16.336,82.866
	c-0.343,0-0.691-0.076-1.021-0.236c-1.161-0.564-1.645-1.963-1.08-3.124l0.112-0.228c0.574-1.155,1.976-1.628,3.133-1.054
	c1.156,0.574,1.628,1.977,1.054,3.133l-0.094,0.193C18.035,82.382,17.202,82.866,16.336,82.866z M266.195,81.968
	c-0.864,0-1.695-0.481-2.102-1.311l-0.089-0.179c-0.583-1.151-0.123-2.558,1.028-3.142s2.559-0.124,3.142,1.027l0.118,0.238
	c0.567,1.159,0.087,2.559-1.072,3.126C266.89,81.892,266.54,81.968,266.195,81.968z M22.02,72.391c-0.408,0-0.822-0.107-1.198-0.332
	c-1.108-0.663-1.468-2.098-0.805-3.206l0.127-0.211c0.668-1.104,2.104-1.458,3.21-0.788c1.104,0.669,1.457,2.106,0.788,3.21
	l-0.114,0.19C23.59,71.985,22.815,72.391,22.02,72.391z M260.41,71.526c-0.778,0-1.533-0.39-1.97-1.107l-0.111-0.184
	c-0.679-1.098-0.338-2.538,0.76-3.216c1.099-0.679,2.539-0.338,3.217,0.76l0.104,0.169c0.669,1.104,0.331,2.563-0.772,3.233
	C261.251,71.414,260.828,71.526,260.41,71.526z M28.58,62.441c-0.478,0-0.959-0.146-1.375-0.449
	c-1.043-0.76-1.272-2.222-0.512-3.265l0.125-0.173c0.751-1.049,2.211-1.293,3.261-0.541c1.05,0.751,1.292,2.211,0.541,3.261
	l-0.149,0.206C30.014,62.108,29.302,62.441,28.58,62.441z M253.813,61.646c-0.722,0-1.434-0.333-1.891-0.961l-0.133-0.181
	c-0.764-1.04-0.54-2.503,0.5-3.267s2.504-0.54,3.268,0.5l0.143,0.195c0.761,1.043,0.531,2.505-0.513,3.265
	C254.772,61.5,254.291,61.646,253.813,61.646z M35.965,53.089c-0.54,0-1.082-0.186-1.522-0.565c-0.979-0.841-1.09-2.317-0.249-3.296
	l0.16-0.186c0.846-0.976,2.322-1.079,3.297-0.233c0.975,0.846,1.08,2.322,0.233,3.297l-0.146,0.169
	C37.276,52.813,36.622,53.089,35.965,53.089z M246.366,52.348c-0.654,0-1.305-0.273-1.768-0.807l-0.139-0.159
	c-0.854-0.967-0.763-2.444,0.205-3.299c0.968-0.855,2.444-0.763,3.299,0.204l0.168,0.192c0.845,0.976,0.739,2.452-0.236,3.297
	C247.454,52.16,246.909,52.348,246.366,52.348z M44.117,44.399c-0.605,0-1.209-0.234-1.667-0.699
	c-0.905-0.921-0.892-2.401,0.029-3.305l0.175-0.17c0.923-0.9,2.404-0.882,3.305,0.044c0.901,0.925,0.881,2.404-0.044,3.305
	l-0.159,0.156C45.3,44.176,44.708,44.399,44.117,44.399z M238.154,43.716c-0.578,0-1.156-0.213-1.608-0.642l-0.19-0.184
	c-0.925-0.9-0.944-2.38-0.044-3.305c0.9-0.926,2.38-0.944,3.306-0.044l0.146,0.141c0.937,0.888,0.976,2.367,0.088,3.304
	C239.39,43.472,238.772,43.716,238.154,43.716z M52.978,36.435c-0.676,0-1.346-0.292-1.808-0.854
	c-0.819-0.998-0.675-2.471,0.323-3.29l0.172-0.141c0.993-0.825,2.467-0.687,3.291,0.307c0.824,0.993,0.687,2.467-0.307,3.291
	l-0.188,0.155C54.025,36.26,53.5,36.435,52.978,36.435z M229.237,35.813c-0.516,0-1.034-0.169-1.466-0.518l-0.19-0.155
	c-1.001-0.815-1.151-2.287-0.337-3.288c0.815-1.001,2.289-1.151,3.288-0.336l0.173,0.14c1.005,0.811,1.163,2.282,0.353,3.287
	C230.595,35.515,229.918,35.813,229.237,35.813z M62.482,29.253c-0.744,0-1.475-0.354-1.928-1.014
	c-0.731-1.063-0.461-2.519,0.603-3.25l0.182-0.125c1.06-0.737,2.517-0.474,3.253,0.586s0.474,2.517-0.586,3.253l-0.202,0.139
	C63.399,29.12,62.938,29.253,62.482,29.253z M219.677,28.696c-0.449,0-0.904-0.129-1.305-0.399l-0.203-0.138
	c-1.066-0.727-1.342-2.181-0.614-3.248c0.727-1.065,2.182-1.341,3.247-0.615l0.184,0.125c1.07,0.722,1.353,2.174,0.631,3.245
	C221.166,28.335,220.428,28.696,219.677,28.696z M72.563,22.91c-0.811,0-1.599-0.422-2.03-1.176
	c-0.641-1.12-0.253-2.548,0.867-3.189l0.22-0.125c1.124-0.632,2.549-0.232,3.182,0.895c0.632,1.125,0.231,2.55-0.895,3.182
	l-0.185,0.105C73.355,22.811,72.957,22.91,72.563,22.91z M209.546,22.421c-0.394,0-0.793-0.1-1.159-0.309l-0.181-0.102
	c-1.127-0.628-1.532-2.051-0.904-3.179c0.628-1.126,2.051-1.533,3.18-0.904l0.228,0.128c1.12,0.641,1.509,2.069,0.867,3.189
	C211.145,21.999,210.357,22.421,209.546,22.421z M83.146,17.455c-0.881,0-1.725-0.5-2.121-1.352
	c-0.544-1.17-0.037-2.561,1.133-3.105l0.229-0.105c1.175-0.536,2.561-0.016,3.095,1.159c0.535,1.175,0.016,2.561-1.159,3.095
	l-0.194,0.09C83.812,17.384,83.476,17.455,83.146,17.455z M198.915,17.037c-0.322,0-0.649-0.067-0.962-0.208l-0.214-0.097
	c-1.176-0.532-1.698-1.917-1.167-3.093c0.531-1.177,1.916-1.699,3.093-1.167l0.214,0.097c1.176,0.532,1.698,1.917,1.167,3.093
	C200.655,16.525,199.804,17.037,198.915,17.037z M94.155,12.929c-0.958,0-1.856-0.593-2.199-1.546
	c-0.437-1.214,0.193-2.553,1.408-2.991l0.22-0.079c1.215-0.435,2.553,0.193,2.991,1.408c0.437,1.214-0.193,2.553-1.408,2.991
	l-0.22,0.079C94.686,12.884,94.418,12.929,94.155,12.929z M187.858,12.585c-0.263,0-0.53-0.045-0.792-0.139l-0.199-0.07
	c-1.219-0.425-1.862-1.758-1.438-2.977c0.425-1.218,1.755-1.866,2.977-1.438l0.244,0.086c1.214,0.438,1.844,1.776,1.407,2.991
	C189.713,11.992,188.816,12.585,187.858,12.585z M105.521,9.366c-1.033,0-1.979-0.691-2.257-1.737
	c-0.333-1.247,0.41-2.527,1.657-2.859l0.229-0.061c1.248-0.332,2.527,0.414,2.857,1.662c0.33,1.248-0.414,2.527-1.662,2.857
	l-0.223,0.059C105.922,9.34,105.72,9.366,105.521,9.366z M176.466,9.106c-0.192,0-0.388-0.024-0.582-0.074l-0.234-0.061
	c-1.249-0.325-1.999-1.601-1.674-2.85c0.324-1.25,1.606-1.996,2.85-1.675l0.219,0.057c1.251,0.321,2.005,1.594,1.684,2.845
	C178.458,8.405,177.507,9.106,176.466,9.106z M117.15,6.794c-1.111,0-2.096-0.795-2.298-1.927c-0.227-1.271,0.62-2.484,1.891-2.711
	l0.244-0.043c1.269-0.22,2.48,0.635,2.699,1.907c0.219,1.272-0.635,2.48-1.907,2.699l-0.216,0.038
	C117.424,6.782,117.286,6.794,117.15,6.794z M164.817,6.621c-0.133,0-0.267-0.011-0.401-0.035l-0.212-0.035
	c-1.273-0.209-2.136-1.412-1.927-2.686c0.21-1.273,1.41-2.134,2.687-1.927l0.249,0.042c1.272,0.22,2.125,1.429,1.904,2.701
	C166.92,5.819,165.932,6.621,164.817,6.621z M128.958,5.23c-1.198,0-2.219-0.917-2.326-2.132c-0.113-1.286,0.837-2.42,2.123-2.533
	l0.233-0.021c1.293-0.116,2.42,0.838,2.533,2.123c0.113,1.286-0.837,2.42-2.123,2.533l-0.233,0.021
	C129.096,5.228,129.026,5.23,128.958,5.23z M152.999,5.144c-0.064,0-0.129-0.003-0.194-0.008l-0.231-0.019
	c-1.286-0.104-2.244-1.232-2.14-2.519s1.23-2.241,2.519-2.14l0.235,0.02c1.287,0.105,2.244,1.234,2.138,2.521
	C155.224,4.219,154.202,5.144,152.999,5.144z M140.859,4.676c-1.284,0-2.329-1.037-2.336-2.323
	c-0.008-1.291,1.031-2.344,2.322-2.352L141.093,0c1.291,0,2.337,1.046,2.337,2.337s-1.046,2.337-2.337,2.337l-0.219,0
	C140.87,4.676,140.864,4.676,140.859,4.676z" class="color c1"/>
</svg>