<svg version="1.1" id="图层_1" x="0px" y="0px" width="157.333px" height="98.185px" viewBox="0 0 157.333 98.185" enable-background="new 0 0 157.333 98.185" xml:space="preserve" xmlns="http://www.w3.org/2000/svg" xmlns:xlink="http://www.w3.org/1999/xlink" xmlns:xml="http://www.w3.org/XML/1998/namespace">
  <path fill="#FFFFFF" d="M134.18,24.037C121.264,13.066,101.135,0,78.666,0S36.069,13.066,23.154,24.037
	C14.718,31.174,7.077,39.201,0.363,47.979c-0.484,0.664-0.484,1.564,0,2.229c6.714,8.777,14.354,16.804,22.791,23.941
	c12.915,10.971,33.043,24.036,55.512,24.036S121.264,85.1,134.18,74.111c8.433-7.126,16.074-15.141,22.791-23.904
	c0.483-0.665,0.483-1.565,0-2.229C150.257,39.2,142.616,31.174,134.18,24.037z M78.666,94.408
	c-37.348,0-68.899-38.254-74.394-45.316C9.767,42.031,41.318,3.776,78.666,3.776c37.35,0,68.899,38.255,74.396,45.316
	C147.565,56.154,116.016,94.408,78.666,94.408z" class="color c1"/>
</svg>