<svg version="1.1" id="图层_1" x="0px" y="0px" width="102.578px" height="102.582px" viewBox="0 0 102.578 102.582" enable-background="new 0 0 102.578 102.582" xml:space="preserve" xmlns="http://www.w3.org/2000/svg" xmlns:xlink="http://www.w3.org/1999/xlink" xmlns:xml="http://www.w3.org/XML/1998/namespace">
  <path fill="#FFEFBB" d="M0,37.614c1.404-1.354,2.737-2.738,3.985-4.378c-1.248,3.332-2.113,6.683-2.738,10.335
	C0.973,41.426,0.509,39.453,0,37.614z M19.674,11.871c-2.886,2.379-5.529,4.991-7.855,7.861c0.741-1.925,1.354-3.896,1.925-5.963
	C15.709,13.257,17.75,12.664,19.674,11.871z M19.62,90.704c-1.998-0.686-3.911-1.273-5.877-1.813
	c-0.571-2.052-1.101-3.99-1.925-5.961C14.145,85.801,16.755,88.434,19.62,90.704z M3.558,69.928L0,65.101
	c0.509-1.949,0.973-3.942,1.247-5.993L3.558,69.928z M37.509,0c1.998,0.618,4.018,0.993,6.162,1.412
	C39.992,1.892,36.482,2.79,33.153,4.07C34.696,2.79,36.154,1.438,37.509,0z M65.018,0c1.363,1.457,2.842,2.79,4.375,4.07
	c-3.352-1.28-6.913-2.179-10.52-2.658C60.946,0.993,62.966,0.618,65.018,0z M90.705,19.807c-2.398-2.944-5.062-5.557-7.981-7.936
	c2.021,0.72,3.996,1.386,6.089,1.839C89.3,15.836,89.892,17.808,90.705,19.807z M102.578,37.614c-0.614,1.839-1.1,3.812-1.386,5.957
	c-0.56-3.652-1.385-7.003-2.685-10.335C99.808,34.797,101.14,36.261,102.578,37.614z M102.578,65.101
	c-1.438,1.333-2.771,2.733-4.07,4.292c1.3-3.326,2.125-6.67,2.685-10.285C101.479,61.158,101.964,63.151,102.578,65.101z
	 M82.775,90.704c2.939-2.25,5.531-4.884,7.876-7.773c-0.791,1.971-1.352,3.909-1.839,5.961
	C86.813,89.431,84.797,90.019,82.775,90.704z M65.018,102.582c-1.978-0.512-3.913-0.997-5.89-1.284
	c3.478-0.532,6.913-1.427,10.106-2.658C67.681,99.871,66.381,101.23,65.018,102.582z M37.509,102.582
	c-1.354-1.352-2.76-2.711-4.293-3.942c3.245,1.231,6.648,2.126,10.149,2.658C41.43,101.585,39.454,102.07,37.509,102.582z" class="color c1"/>
</svg>