<svg version="1.1" id="图层_1" x="0px" y="0px" width="167.333px" height="167.333px" viewBox="0 0 167.333 167.333" enable-background="new 0 0 167.333 167.333" xml:space="preserve" xmlns="http://www.w3.org/2000/svg" xmlns:xlink="http://www.w3.org/1999/xlink" xmlns:xml="http://www.w3.org/XML/1998/namespace">
  <path fill="#1FB7C7" d="M142.424,0H24.909C11.174,0,0,11.174,0,24.91v117.514c0,13.734,11.174,24.908,24.909,24.908h117.515
	c13.734,0,24.908-11.174,24.908-24.908V24.91C167.333,11.174,156.159,0,142.424,0z M152.333,142.424
	c0,5.464-4.443,9.908-9.908,9.908H24.909c-5.464,0-9.909-4.444-9.909-9.908V24.91c0-5.465,4.445-9.91,9.909-9.91h117.515
	c5.464,0,9.908,4.445,9.908,9.91V142.424L152.333,142.424z" class="color c1"/>
</svg>