<svg version="1.1" id="图层_1" x="0px" y="0px" width="243.063px" height="135.211px" viewBox="0 0 243.063 135.211" enable-background="new 0 0 243.063 135.211" xml:space="preserve" xmlns="http://www.w3.org/2000/svg" xmlns:xlink="http://www.w3.org/1999/xlink" xmlns:xml="http://www.w3.org/XML/1998/namespace">
  <g>
    <path fill="#D77E2A" d="M243.063,121.534C243.063,54.52,188.545,0,121.531,0C54.52,0,0,54.52,0,121.534
		c0,4.625,0.268,9.186,0.773,13.678h241.514C242.795,130.719,243.063,126.159,243.063,121.534z" class="color c1"/>
    <path fill="#FFEFCD" d="M121.531,13.042c-59.821,0-108.489,48.669-108.489,108.492c0,4.537,0.31,9.127,0.886,13.678h16.132h182.946
		h16.132c0.576-4.551,0.886-9.141,0.886-13.678C230.022,61.711,181.354,13.042,121.531,13.042z" class="color c2"/>
  </g>
</svg>