<svg version="1.1" id="图层_1" x="0px" y="0px" width="200px" height="173.206px" viewBox="0 0 200 173.206" enable-background="new 0 0 200 173.206" xml:space="preserve" xmlns="http://www.w3.org/2000/svg" xmlns:xlink="http://www.w3.org/1999/xlink" xmlns:xml="http://www.w3.org/XML/1998/namespace">
  <path fill="#045CA6" d="M59.855,103.673L0,0h200l-25.69,44.497c-0.936-1.206-1.924-2.086-3.057-2.695
	c-1.13-0.61-2.29-0.945-3.437-1.021l19.226-33.3H77.408c-1.203-3.848-4.669-6.499-8.646-6.499c-2.644,0.019-4.971,0.979-6.918,2.853
	c-1.106,1.066-1.921,2.288-2.449,3.646H12.958l54.042,93.604c-2.013,0.537-3.969,1.278-6.051,2.116
	C60.58,103.351,60.22,103.515,59.855,103.673z M167.184,55.405l-0.121-0.002c-1.18-0.028-2.289-0.443-3.3-1.231l-0.634-0.507
	c-0.636-0.512-1.237-0.994-1.825-1.347c-0.037-0.022-0.075-0.04-0.113-0.062L100,158.242l-17.86-30.934
	c-1.546-0.077-2.85,0.055-4.076,0.418c-0.238,0.838-0.837,1.801-2.249,2.397l-0.288,0.121c-0.089,0.038-0.179,0.071-0.268,0.108
	L100,173.206l68.059-117.882C167.77,55.375,167.479,55.405,167.184,55.405z" class="color c1"/>
</svg>