<svg version="1.1" id="图层_1" x="0px" y="0px" width="200px" height="175.819px" viewBox="0 0 200 175.819" enable-background="new 0 0 200 175.819" xml:space="preserve" xmlns="http://www.w3.org/2000/svg" xmlns:xlink="http://www.w3.org/1999/xlink" xmlns:xml="http://www.w3.org/XML/1998/namespace">
  <path fill="#6ABA85" d="M162.225,175.819c0,0,1.303-1.307,3.745-3.758c2.324-2.539,5.734-6.264,9.423-11.484
	c0.911-1.311,1.817-2.727,2.794-4.186c0.928-1.494,1.835-3.096,2.812-4.738c0.439-0.849,0.889-1.715,1.346-2.6
	c0.447-0.887,0.965-1.755,1.372-2.705c0.85-1.876,1.805-3.78,2.568-5.847c3.311-8.142,5.762-17.811,6.641-28.478
	c0.071-1.334,0.144-2.684,0.217-4.046c0.073-1.36,0.013-2.741,0.027-4.128l-0.068-2.014c-0.039-0.724-0.054-1.451-0.093-2.183
	c-0.041-0.731-0.068-1.465-0.109-2.202c-0.042-0.736-0.138-1.405-0.206-2.114c-0.163-1.403-0.268-2.797-0.518-4.246
	c-0.109-0.72-0.217-1.441-0.327-2.167l-0.165-1.089l-0.223-1.084c-0.549-2.902-1.258-5.813-2.103-8.726
	c-3.381-11.642-9.32-23.194-17.68-33.33c-4.185-5.055-8.936-9.786-14.244-13.938c-5.302-4.158-11.104-7.791-17.266-10.793
	c-6.159-3.019-12.749-5.221-19.489-6.792c-0.847-0.188-1.687-0.4-2.537-0.567l-2.563-0.451c-1.702-0.343-3.434-0.501-5.156-0.729
	c-0.859-0.126-1.727-0.188-2.594-0.247l-2.6-0.192c-0.867-0.075-1.74-0.054-2.609-0.085l-2.472-0.064l-2.763,0.068l-1.38,0.032
	c-0.464,0.009-0.93,0.017-1.333,0.059l-2.524,0.19c-0.838,0.056-1.68,0.115-2.551,0.243c-1.72,0.227-3.452,0.387-5.154,0.729
	l-2.562,0.45c-0.852,0.168-1.691,0.381-2.536,0.568c-6.741,1.573-13.327,3.78-19.487,6.798c-6.162,3-11.96,6.641-17.263,10.794
	c-5.313,4.148-10.055,8.884-14.239,13.938c-8.359,10.133-14.296,21.685-17.676,33.325C8.965,83.848,7.9,89.69,7.342,95.396
	C7.275,96.11,7.173,96.82,7.134,97.53c-0.037,0.71-0.076,1.417-0.114,2.122c-0.039,0.706-0.059,7.753-0.003,8.403
	c0.071,1.339,0.1,2.663,0.168,3.975c0.439,5.309,1.209,10.414,2.354,15.178c1.187,4.75,2.52,9.236,4.22,13.29
	c0.764,2.065,1.713,3.97,2.561,5.847c0.408,0.949,0.923,1.819,1.372,2.705c0.456,0.883,0.905,1.75,1.345,2.6
	c0.975,1.643,1.88,3.244,2.808,4.738c0.977,1.459,1.881,2.875,2.793,4.186c3.683,5.219,7.098,8.949,9.425,11.493
	c2.437,2.446,3.737,3.753,3.737,3.753s-0.363-0.285-1.064-0.838c-0.7-0.557-1.756-1.362-3.101-2.461
	c-0.649-0.576-1.372-1.221-2.17-1.928c-0.797-0.711-1.686-1.472-2.563-2.377c-0.892-0.891-1.876-1.83-2.884-2.873
	c-0.967-1.082-1.997-2.23-3.083-3.444c-1.05-1.247-2.107-2.603-3.245-4.009c-1.091-1.439-2.17-2.993-3.332-4.596
	c-1.05-1.669-2.218-3.373-3.268-5.234c-1.027-1.873-2.17-3.782-3.127-5.867c-2.092-4.091-3.862-8.668-5.491-13.579
	c-0.366-1.243-0.737-2.501-1.113-3.775s-0.625-2.598-0.949-3.921c-0.154-0.664-0.308-1.333-0.464-2.005
	c-0.134-0.676-0.241-1.36-0.363-2.047c-0.225-1.38-0.511-2.753-0.689-4.187c-0.163-1.441-0.327-2.897-0.493-4.369
	c-0.1-0.752-0.114-1.44-0.16-2.154c-0.04-0.712-0.079-1.426-0.12-2.145l-0.061-1.078l-0.03-0.541l-0.015-0.271l-0.005-0.377
	c-0.002-0.751-0.002-1.505-0.004-2.263C0.002,98.722,0,97.96,0,97.194c0-0.766,0.063-1.532,0.093-2.305
	c0.264-6.175,1.145-12.551,2.7-18.967c3.122-12.823,9.138-25.779,18.054-37.227c4.43-5.737,9.59-11.082,15.379-15.818
	c5.771-4.758,12.156-8.931,18.999-12.348c6.833-3.438,14.15-6.065,21.694-7.826c0.944-0.214,1.885-0.453,2.834-0.645l2.862-0.519
	c1.904-0.385,3.838-0.581,5.764-0.841c0.952-0.141,1.946-0.22,2.944-0.292l2.983-0.228c0.513-0.047,0.967-0.057,1.424-0.067
	l1.382-0.039L99.873,0l3.052,0.077c0.972,0.039,1.943,0.026,2.913,0.11l2.905,0.226c0.969,0.071,1.938,0.147,2.899,0.289
	c1.925,0.259,3.86,0.455,5.763,0.84l2.863,0.52c0.95,0.191,1.892,0.43,2.834,0.644c0.942,0.229,1.893,0.419,2.823,0.683l2.79,0.798
	c1.868,0.5,3.67,1.202,5.498,1.812c1.818,0.639,3.582,1.411,5.369,2.11c1.742,0.807,3.503,1.569,5.21,2.428
	c6.845,3.416,13.223,7.597,18.996,12.351c5.791,4.733,10.944,10.082,15.374,15.818c8.918,11.445,14.932,24.401,18.049,37.221
	c0.771,3.208,1.389,6.404,1.836,9.573l0.184,1.182l0.124,1.187c0.083,0.789,0.164,1.574,0.246,2.357
	c0.198,1.548,0.223,3.158,0.309,4.723c0.028,0.777,0.092,1.585,0.09,2.325c-0.003,0.738-0.007,1.474-0.01,2.207
	c-0.003,0.731-0.007,1.46-0.01,2.187l-0.003,0.359l-0.017,0.281l-0.031,0.56l-0.063,1.118c-0.101,1.482-0.128,2.954-0.291,4.404
	c-0.164,1.446-0.325,2.879-0.486,4.297c-0.176,1.414-0.459,2.8-0.681,4.176c-0.12,0.688-0.227,1.371-0.358,2.047
	c-0.152,0.672-0.306,1.34-0.459,2.005c-0.32,1.323-0.566,2.646-0.938,3.923c-0.376,1.273-0.747,2.531-1.112,3.774
	c-1.629,4.911-3.396,9.487-5.488,13.579c-0.957,2.084-2.098,3.994-3.125,5.867c-1.05,1.861-2.22,3.564-3.268,5.234
	c-1.162,1.602-2.241,3.155-3.33,4.596c-1.138,1.404-2.196,2.762-3.244,4.01c-1.087,1.213-2.114,2.363-3.083,3.443
	c-1.009,1.043-1.99,1.982-2.882,2.875c-0.876,0.903-1.768,1.668-2.565,2.381c-0.799,0.708-1.523,1.353-2.173,1.93
	c-1.338,1.095-2.393,1.899-3.093,2.457C162.588,175.534,162.225,175.819,162.225,175.819z" class="color c1"/>
</svg>