<svg version="1.1" id="图层_1" x="0px" y="0px" width="169.893px" height="172.529px" viewBox="0 0 169.893 172.529" enable-background="new 0 0 169.893 172.529" xml:space="preserve" xmlns="http://www.w3.org/2000/svg" xmlns:xlink="http://www.w3.org/1999/xlink" xmlns:xml="http://www.w3.org/XML/1998/namespace">
  <path fill="#3F3F3F" d="M167.807,84.178l2.086,2.087l-2.086,2.087l-2.087-2.087L167.807,84.178z M156.103,47.675l2.823,0.858
	l0.859-2.824l-2.824-0.858L156.103,47.675z M151.012,39.365l2.906,0.519l0.518-2.905l-2.904-0.519L151.012,39.365z M145.002,31.746
	l2.946,0.172l0.172-2.945l-2.944-0.173L145.002,31.746z M138.148,24.891l2.945-0.173l-0.173-2.946l-2.946,0.174L138.148,24.891z
	 M130.527,18.88l2.905-0.517l-0.519-2.906l-2.904,0.518L130.527,18.88z M122.219,13.791l2.823-0.859l-0.858-2.823l-2.824,0.858
	L122.219,13.791z M113.299,9.699l2.699-1.192l-1.19-2.7l-2.7,1.191L113.299,9.699z M103.844,6.681l2.535-1.51l-1.511-2.535
	l-2.535,1.51L103.844,6.681z M93.929,4.813l2.329-1.811l-1.812-2.33l-2.328,1.812L93.929,4.813z M83.629,4.174l2.087-2.087L83.629,0
	l-2.087,2.087L83.629,4.174z M73.329,4.813l1.811-2.33l-2.329-1.811l-1.812,2.33L73.329,4.813z M63.414,6.681l1.511-2.535
	l-2.535-1.51L60.879,5.17L63.414,6.681z M53.959,9.699l1.19-2.7l-2.698-1.191l-1.191,2.7L53.959,9.699z M45.04,13.791l0.858-2.823
	l-2.824-0.859l-0.858,2.824L45.04,13.791z M36.73,18.881l0.518-2.906l-2.904-0.517l-0.519,2.905L36.73,18.881z M29.11,24.891
	l0.172-2.946l-2.944-0.174l-0.174,2.946L29.11,24.891z M22.255,31.745l-0.173-2.946l-2.945,0.173l0.173,2.946L22.255,31.745z
	 M16.245,39.365l-0.518-2.905l-2.906,0.519l0.519,2.905L16.245,39.365z M11.155,47.675l-0.858-2.824l-2.824,0.858l0.859,2.824
	L11.155,47.675z M7.063,56.595l-1.191-2.7l-2.7,1.19l1.191,2.701L7.063,56.595z M4.045,66.05l-1.51-2.535L0,65.025l1.51,2.535
	L4.045,66.05z M16.246,133.163l-2.906-0.519l-0.518,2.906l2.904,0.518L16.246,133.163z M12.765,126.044l-2.377-1.751l-1.75,2.376
	l2.376,1.751L12.765,126.044z M22.256,140.783l-2.946-0.172l-0.173,2.945l2.945,0.173L22.256,140.783z M29.109,147.638l-2.945,0.173
	l0.173,2.946l2.946-0.173L29.109,147.638z M36.73,153.648l-2.905,0.518l0.519,2.905l2.904-0.518L36.73,153.648z M45.039,158.737
	l-2.823,0.86l0.858,2.822l2.824-0.858L45.039,158.737z M53.959,162.83l-2.699,1.191l1.19,2.7l2.7-1.192L53.959,162.83z
	 M63.414,165.848l-2.535,1.511l1.511,2.535l2.535-1.511L63.414,165.848z M73.329,167.715L71,169.526l1.812,2.33l2.328-1.812
	L73.329,167.715z M83.629,168.355l-2.088,2.086l2.088,2.088l2.087-2.088L83.629,168.355z M93.929,167.715l-1.811,2.33l2.329,1.812
	l1.812-2.33L93.929,167.715z M103.844,165.848l-1.511,2.535l2.535,1.512l1.511-2.535L103.844,165.848z M113.299,162.83l-1.19,2.699
	l2.698,1.191l1.191-2.699L113.299,162.83z M122.218,158.738l-0.858,2.822l2.824,0.859l0.858-2.823L122.218,158.738z
	 M130.527,153.648l-0.518,2.906l2.904,0.517l0.519-2.905L130.527,153.648z M138.147,147.638l-0.172,2.946l2.944,0.172l0.174-2.945
	L138.147,147.638z M145.003,140.783l0.172,2.945l2.946-0.172l-0.173-2.946L145.003,140.783z M151.013,133.163l0.518,2.905
	l2.906-0.519l-0.519-2.905L151.013,133.163z M156.103,124.854l0.858,2.824l2.824-0.858l-0.859-2.823L156.103,124.854z
	 M160.194,115.935l1.191,2.699l2.7-1.19l-1.191-2.7L160.194,115.935z M163.213,106.479l1.51,2.535l2.535-1.511l-1.51-2.535
	L163.213,106.479z M165.08,96.564l1.812,2.33l2.329-1.811l-1.812-2.33L165.08,96.564z" class="color c1"/>
</svg>