<svg version="1.1" id="图层_1" x="0px" y="0px" width="341px" height="341px" viewBox="0 0 341 341" enable-background="new 0 0 341 341" xml:space="preserve" xmlns="http://www.w3.org/2000/svg" xmlns:xlink="http://www.w3.org/1999/xlink" xmlns:xml="http://www.w3.org/XML/1998/namespace">
  <path fill="#817359" d="M170.5,341C76.486,341,0,264.514,0,170.5C0,76.486,76.486,0,170.5,0C264.514,0,341,76.486,341,170.5
	C341,264.514,264.514,341,170.5,341z M170.5,5C79.243,5,5,79.243,5,170.5C5,261.756,79.243,336,170.5,336S336,261.756,336,170.5
	C336,79.243,261.756,5,170.5,5z M170.5,273C113.981,273,68,227.018,68,170.5C68,113.981,113.981,68,170.5,68
	C227.02,68,273,113.981,273,170.5C273,227.018,227.018,273,170.5,273z M170.5,73C116.738,73,73,116.738,73,170.5
	c0,53.761,43.738,97.5,97.5,97.5c53.762,0,97.5-43.738,97.5-97.5C268,116.738,224.262,73,170.5,73z" class="color c1"/>
</svg>