<svg version="1.1" id="图层_1" x="0px" y="0px" width="420.46px" height="500.26px" viewBox="0 0 420.46 500.26" enable-background="new 0 0 420.46 500.26" xml:space="preserve" xmlns="http://www.w3.org/2000/svg" xmlns:xlink="http://www.w3.org/1999/xlink" xmlns:xml="http://www.w3.org/XML/1998/namespace">
  <path fill="#D3B178" d="M418.975,270.355c0.9-13.651,0-27.603,0-41.104c0-18.303,2.25-74.259,0-92.561c0-0.149,0-0.149,0-0.3
	c-0.148-0.6-0.148-1.2-0.299-1.95c-0.301-1.649-1.951-2.1-3.15-1.649c-0.9-0.75-1.949-1.351-3-1.801
	c-12.303-9.601-26.402-17.852-39.604-26.552c-3-1.95-5.852-3.9-8.852-5.851c0.15-0.45,0-1.051-0.602-1.351
	c-14.701-10.65-29.402-21.302-44.254-31.803c0.451-0.45,0.6-1.35-0.299-1.8c-3.602-2.101-7.201-4.05-10.803-6
	c0-0.15-0.148-0.45-0.449-0.45c-0.449-0.3-0.9-0.45-1.352-0.6c-1.799-1.2-3.449-2.4-5.25-3.602c-0.6-0.45-1.199-0.149-1.648,0.15
	c-4.65-2.55-9.451-4.951-14.104-7.501c-0.299-0.15-0.75-0.15-1.049,0c-1.201-0.601-2.252-1.05-3.451-1.65
	c-3.449-2.25-6.9-4.5-10.352-6.751c-8.102-5.25-16.201-10.651-24.151-15.901c-8.851-5.851-17.702-12.9-27.603-17.401
	c-0.75-0.3-1.352-0.3-1.951,0l0,0h-0.149c0.601-0.3,0.899-1.05,0-1.5c-1.351-0.601-2.55-1.2-4.05-1.65
	c-0.6-0.15-1.051,0.299-1.051,0.749c-0.299-0.149-0.6-0.45-0.899-0.45c-0.149,0-0.3-0.3-0.3-0.3l0,0c-0.15,0-0.15,0.15-0.301,0.15
	c-0.149-0.601-0.899-1.05-1.649-0.9c-2.399,0.9-4.8,2.101-7.05,3.45c-0.301,0-0.45,0.15-0.75,0.3
	c-9.752,4.5-18.602,11.701-27.604,17.552c-8.101,5.25-16.202,10.651-24.152,15.901c-16.652,10.951-33.303,21.902-49.955,32.854
	c-13.501,9.15-27.303,18.302-41.104,27.452c-3.601,2.4-7.201,4.801-10.801,7.052c-13.201,8.551-27.153,16.952-39.454,26.553
	c-1.05,0.6-2.101,1.2-3,1.95c-1.2-0.601-3,0-3.15,1.649c-0.15,0.601-0.15,1.2-0.3,1.95c0,0.15,0,0.15,0,0.3
	c-2.25,18.303-0.15,74.258,0,92.56c0,13.501-0.75,27.452,0,41.104c-0.9,13.651,0,27.604,0,41.104c0,18.303-2.25,33.754,0,52.056
	c0,0.149,0,0.149,0,0.3c0.15,0.602,0.15,1.201,0.3,1.951c0.3,1.648,1.95,2.1,3.15,1.648c0.9,0.752,1.95,1.352,3,1.801
	c12.301,9.602,26.402,17.853,39.604,26.553c3,1.951,5.851,3.9,8.851,5.852c-0.15,0.449,0,1.051,0.6,1.351
	c14.702,10.651,29.403,21.302,44.254,31.804c-0.45,0.449-0.6,1.35,0.3,1.8c3.601,2.102,7.201,4.051,10.801,6.001
	c0,0.149,0.15,0.449,0.45,0.449c0.45,0.301,0.9,0.45,1.35,0.602c1.8,1.199,3.45,2.399,5.25,3.601c0.6,0.449,1.2,0.149,1.65-0.15
	c4.651,2.551,9.451,4.95,14.102,7.501c0.3,0.149,0.75,0.149,1.05,0c1.2,0.601,2.25,1.051,3.45,1.65c3.45,2.25,6.901,4.5,10.351,6.75
	c8.101,5.251,16.202,10.651,24.152,15.901c8.851,5.851,17.702,12.9,27.603,17.401c0.75,0.3,1.351,0.3,1.951,0l0,0h0.149
	c-0.601,0.3-0.899,1.05,0,1.5c1.351,0.601,2.55,1.2,4.05,1.65c0.6,0.148,1.051-0.3,1.051-0.75c0.299,0.148,0.6,0.148,0.899,0.148
	c0.149,0,0.3,0,0.3,0l0,0c0.15,0,0.15,0,0.301,0.15c0.149,0.6,0.899,1.2,1.649,0.9c2.399-0.9,4.802-2.102,7.052-3.45
	c0.299,0,0.448-0.15,0.75-0.15c9.75-4.501,18.602-11.701,27.603-17.4c8.101-5.251,16.2-10.651,24.151-15.902
	c16.652-10.951,33.305-21.902,49.955-32.854c13.803-9.15,27.604-18.302,41.404-27.452c3.602-2.4,7.199-4.801,10.801-7.051
	c13.201-8.552,27.152-16.953,39.604-26.554c1.051-0.601,2.102-1.2,3-1.8c1.201,0.6,3,0,3.15-1.65c0.15-0.6,0.15-1.199,0.301-1.949
	c0-0.149,0-0.149,0-0.301c2.25-18.303,0.15-33.754,0-52.056C418.975,297.807,419.875,284.008,418.975,270.355z M358.219,109.989
	c0.451,0.3,0.9,0.3,1.201,0.3c2.699,1.65,5.4,3.45,8.1,5.101c4.803,3.301,9.752,6.451,14.553,9.751c0.301,0.3,0.75,0.3,1.051,0.3
	c4.199,2.7,8.4,5.55,12.75,7.951c2.252,1.35,4.502,2.851,6.752,4.201c0.449,0.3,0.75,0.3,1.049,0.3c0.301,0.45,0.15,0.9,0.451,1.5
	l-0.602,0.15l0,0c0-0.45-0.75-0.45-1.199,0c-0.15-0.601-0.449-1.051-1.352-1.051c-0.299,0-0.299,0-0.6,0.15
	c-0.75-0.9-1.5-1.65-2.4-2.4c-0.299-0.3-0.898-0.3-1.199-0.149C367.52,116.141,340.817,99.188,358.219,109.989z M324.917,78.937
	c1.35,1.05,2.551,2.101,3.898,3.15c-0.898-0.45-1.648-1.051-2.549-1.5c-0.9-0.601-1.801-0.15-2.102,0.6
	c-3.9-2.7-7.801-5.25-11.701-7.951c-0.148-0.3-0.6-0.6-1.199-0.75c-3.75-2.55-7.5-5.1-11.252-7.5c2.4,1.351,4.951,2.7,7.352,4.05
	C313.366,72.186,319.215,75.636,324.917,78.937z M303.614,58.085c2.852,2.101,5.699,4.351,8.551,6.45
	c-5.551-3.75-11.25-7.351-16.801-11.101C298.213,55.085,300.915,56.585,303.614,58.085z M273.461,44.584
	c0.449,0.3,0.9,0.6,1.35,0.899C274.362,45.183,273.911,44.883,273.461,44.584L273.461,44.584z M280.512,61.534
	c-0.898-0.449-1.951-1.05-2.85-1.5c-3.752-2.399-7.652-4.8-11.402-7.2c-0.6-0.45-1.199-0.9-1.801-1.351
	C269.711,54.934,275.112,58.234,280.512,61.534z M254.409,45.334C254.409,45.334,254.409,45.483,254.409,45.334
	c-10.951-6.751-22.053-13.501-33.003-20.253c1.351,0.301,2.851,0.601,4.5,0.601l0,0c0.899,0.6,1.95,1.2,2.851,1.8
	c-0.301,0.75-0.149,1.65,0.75,2.25C237.907,34.982,246.159,40.232,254.409,45.334z M214.805,7.229c0.301-0.15,0.449-0.45,0.449-0.75
	c0.451,0.3,1.051,0.6,1.5,0.9c0.301,0.149,0.602,0.149,0.752,0.149c0.148,0,0.148,0.15,0.299,0.15
	c4.352,3.75,9.451,6.899,14.552,10.051c-0.899-0.6-1.949-1.05-2.851-1.65c-2.699-1.649-5.399-3.45-8.101-5.101
	c-0.601-0.45-1.351-0.3-1.8,0c-1.501-0.75-3.001-1.5-4.501-2.25c-0.601-0.3-1.05-0.15-1.5,0.15c-0.149-0.15-0.45-0.301-0.601-0.45
	C213.606,7.979,214.206,7.68,214.805,7.229z M200.553,8.88c0.601-0.45,1.051-0.9,1.65-1.351h0.15
	c2.25-0.899,4.352-2.101,6.602-3.149c0.449-0.301,0.6-0.601,0.75-1.051c0.149,0,0.149,0.15,0.299,0.15c0,0.15-0.299,0.3-0.149,0.45
	c0.75,0.45,0.149,0.75,1.649,1.2l0,0c-1.5,0.449-1.199,1.05-2.1,1.5c-0.449-0.301-0.449-0.45-0.9-0.75c-1.949-1.2-4.051,1.5-2.399,3
	c0,0,0,0,0.149,0c-1.799,1.05-3.6,2.1-5.549,3.3c-0.451-0.15-0.9-0.45-1.351-0.601c0.3-0.3,0.75-0.6,1.05-0.75
	C201.303,10.079,201.004,9.329,200.553,8.88z M210.155,12.479L210.155,12.479c-0.6-0.3-1.05-0.6-1.65-0.9l0,0
	c0.15-0.149,0.301-0.149,0.301-0.3C209.405,11.729,209.706,12.029,210.155,12.479z M206.404,20.28c-1.351,0.75-2.55,1.65-3.899,2.4
	c-0.451-0.75-1.351-1.2-2.551-0.601c1.5-1.199,3-2.25,4.5-3.449c0.301,0.149,0.6,0.3,1.051,0.449
	C205.805,19.53,206.105,19.98,206.404,20.28z M162.15,36.183c10.801-7.051,22.203-13.802,32.704-21.302v0.149
	c-3.15,2.25-9.602,6.602-9.602,6.602l-37.654,25.652l-8.701,3.9v-0.15C138.748,51.184,154.349,41.133,162.15,36.183z
	 M189.454,27.932c-0.301,0.149-0.601,0.3-0.9,0.45c0.15-0.301,0.15-0.601,0.15-0.75l0.149-0.15
	C189.153,27.632,189.303,27.781,189.454,27.932z M158.55,49.983c-3.3,2.101-6.601,4.2-9.901,6.15c0.3-0.3,0.6-0.601,0.6-0.9
	c1.35-0.75,2.55-1.5,3.9-2.25c0,0,0.15,0,0.15-0.149C155.1,51.783,156.75,50.884,158.55,49.983z M22.336,126.342
	c-3.9,2.7-7.801,5.4-11.701,8.101c-1.35,0.9,0.15,3,1.65,2.55c0.45-0.149,0.9-0.3,1.2-0.449c-1.35,1.05-2.851,2.1-4.201,3
	c-0.15,0-1.95,0.899-2.1,1.949c-0.15,1.051-0.3,2.101-0.45,3.15c-0.15-3-0.45-6-0.75-8.851
	C11.535,132.941,16.936,129.642,22.336,126.342z M14.836,356.014L14.836,356.014C14.836,355.864,14.836,355.864,14.836,356.014
	L14.836,356.014z M12.885,350.913c-0.45,0-0.9,0.15-1.2,0.601c0.45-1.799,0.75-3.449,0.9-5.25
	C12.735,347.762,12.885,349.413,12.885,350.913z M11.385,358.864c0,0.601,0,1.2,0,1.802c-0.45-0.302-0.9-0.451-1.351-0.752
	c-0.15-0.148-0.45-0.148-0.75-0.148c0.45-0.15,0.75-0.602,0.9-1.201c0-0.6,0.15-1.199,0.3-1.648c0.15,0.299,0.15,0.601,0.3,0.75
	C11.085,357.965,11.235,358.414,11.385,358.864z M25.937,376.116c-6.601-4.2-13.201-8.251-20.102-11.853
	c0.6-4.801,0.9-9.75,1.05-14.7c0,3,0,6,0.15,8.851c0,0.75,0.45,1.2,1.05,1.352c-1.35,0.6-2.1,2.25-0.75,3.15
	c1.5,1.049,3.15,2.25,4.65,3.299c0.45,0.301,1.05,0.451,1.65,0.451c2.1,1.199,4.2,2.551,6.451,3.75c1.95,1.95,4.2,3.75,6.301,5.551
	C26.387,375.967,26.087,375.967,25.937,376.116z M24.136,366.666c-2.25-1.351-4.5-2.851-6.75-4.201
	c-0.45-0.299-0.75-0.299-1.2-0.299c-0.3-0.451-0.75-0.9-1.05-1.352c0.3,0.3,1.35,0.148,1.65-0.148c0.15,0.6,0.75,1.049,1.8,1.049
	c0.3,0,0.45,0,0.75-0.149c0.75,0.899,1.65,1.649,2.4,2.399c0.3,0.301,0.9,0.301,1.2,0.149
	C52.489,384.067,28.487,369.217,24.136,366.666z M112.495,431.172c-5.851-3.301-11.551-6.751-17.402-10.052
	c-1.35-1.05-2.55-2.1-3.9-3.149c0.9,0.449,1.65,1.051,2.55,1.5c0.9,0.601,1.8,0.149,2.1-0.601c3.9,2.7,7.801,5.251,11.701,7.951
	c0.15,0.3,0.6,0.6,1.2,0.75c3.75,2.55,7.501,5.101,11.251,7.501C117.446,433.872,114.896,432.521,112.495,431.172z M194.104,474.376
	c-0.9-0.601-1.95-1.199-2.852-1.801c0.301-0.75-8.4-6-9.301-6.601c-8.251-5.102,5.551,2.251,16.651,9.001
	C197.104,474.676,195.604,474.376,194.104,474.376L194.104,474.376z M205.206,492.978c-0.301,0.149-0.451,0.45-0.451,0.75
	c-0.449-0.3-1.049-0.601-1.5-0.9c-0.299-0.148-0.6-0.148-0.75-0.148c-0.149,0-0.149-0.15-0.299-0.15
	c-4.352-3.75-6.15-5.101-3.451-3.3c0.601,0.45,1.351,0.3,1.801,0c1.5,0.75,3,1.5,4.5,2.25c0.6,0.3,1.05,0.149,1.5-0.15
	c0.15,0.15,0.449,0.301,0.6,0.45C206.404,492.077,205.805,492.527,205.206,492.978z M219.456,491.327
	c-0.6,0.45-1.051,0.9-1.65,1.352h-0.149c-2.25,0.899-4.5,2.1-6.601,3.149c-0.45,0.3-0.75,0.601-0.75,1.05
	c-0.15,0-0.301-0.148-0.45-0.148c0-0.15-0.3-0.301-0.601-0.45c-0.75-0.45-0.899-0.75-2.399-1.2l0,0c1.5-0.45,1.95-1.051,2.851-1.5
	c0.45,0.3,0.899,0.449,1.352,0.75c1.949,1.2,4.199-1.5,2.549-3.001l0,0c1.801-1.05,3.751-2.1,5.551-3.3
	c0.451,0.149,0.9,0.45,1.352,0.6c-0.301,0.302-0.75,0.602-1.051,0.75C218.706,489.978,219.006,490.728,219.456,491.327z
	 M213.606,479.776c1.352-0.75,2.55-1.65,3.9-2.4c0.449,0.75,1.351,1.2,2.549,0.602c-1.5,1.199-3,2.25-4.5,3.45
	c-0.301-0.15-0.6-0.302-1.051-0.45C214.206,480.526,213.905,480.076,213.606,479.776z M303.463,419.32
	c-15,9.301-30.152,18.602-45.303,27.902h-0.15c-0.15,0.149-0.15,0.149-0.301,0.301c-12.752,7.801-25.502,15.751-38.104,23.852
	c-0.9,0-1.801-0.148-2.701-0.148c-1.949-0.15-2.55,1.8-1.8,3c-1.649,1.051-3.3,2.101-4.951,3.149
	c-30.753-19.802-62.256-38.704-93.459-57.905c-30.603-18.901-61.206-38.104-92.709-55.955c0-0.15,0-0.301-0.15-0.6
	c-1.2-1.65-2.4-3.302-3.9-4.802c-0.15-0.149-0.45-0.301-0.6-0.301c0-0.75,0-1.5,0-2.101c0-0.3-0.45-0.3-0.6-0.149
	c-0.15-1.05-0.45-2.101-0.6-3c0-0.3-0.3-0.601-0.6-0.75c1.35-19.353,0.75-34.953,0.9-54.306c0-0.601-0.6-0.899-1.05-0.899
	c0-8.701,0.15-17.554-0.3-26.253c0.45-8.701,0.45-17.553,0.3-26.253c0.6,0,1.05-0.3,1.05-0.9c-0.15-19.352,0.45-75.458-0.9-94.81
	c0.3-0.15,0.45-0.3,0.6-0.75c0.15-0.9,0.45-1.95,0.6-3c0.15,0.3,0.6,0.3,0.6-0.15c0-0.75,0-1.35,0-2.1c0.3,0,0.45-0.15,0.6-0.3
	c1.5-1.352,2.7-3.15,3.9-4.801c0.15-0.15,0.15-0.45,0.15-0.601c31.503-17.852,61.956-37.054,92.709-55.956
	c15.002-9.301,30.153-18.602,45.305-27.902h0.15c0.15-0.15,0.15-0.15,0.3-0.301c12.752-7.801,25.502-15.751,38.104-23.853
	c0.9,0,1.801,0.149,2.701,0.149c1.951,0.15,2.551-1.8,1.801-3c1.65-1.05,3.3-2.101,4.951-3.149
	c30.752,19.802,62.256,38.704,93.459,57.906c30.604,18.901,61.205,38.104,92.709,55.956c0,0.149,0,0.3,0.15,0.6
	c1.199,1.65,2.398,3.3,3.898,4.8c0.15,0.15,0.451,0.3,0.602,0.3c0,0.75,0,1.5,0,2.101c0,0.3,0.451,0.3,0.6,0.149
	c0.15,1.051,0.451,2.101,0.602,3c0,0.301,0.301,0.601,0.6,0.75c-1.35,19.353-0.75,75.458-0.9,94.811c0,0.6,0.602,0.899,1.053,0.899
	c0,8.701-0.15,17.553,0.299,26.253c-0.449,8.7-0.449,17.552-0.299,26.253c-0.602,0-1.053,0.299-1.053,0.899
	c0.15,19.353-0.447,34.953,0.9,54.305c-0.299,0.15-0.449,0.302-0.6,0.75c-0.15,0.9-0.449,1.951-0.602,3.001
	c-0.148-0.3-0.6-0.3-0.6,0.149c0,0.75,0,1.351,0,2.101c-0.299,0-0.449,0.149-0.602,0.301c-1.5,1.351-2.699,3.149-3.898,4.801
	c-0.15,0.149-0.15,0.449-0.15,0.6C364.67,381.217,334.067,400.42,303.463,419.32z M358.219,397.418c-3,1.801-5.85,3.45-8.85,5.252
	c7.648-5.252,15.301-10.651,22.951-15.902l0.148-0.149c8.104-5.551,16.354-11.251,24.453-16.802c0.451-0.15,1.051-0.301,1.5-0.45
	C384.922,378.666,371.571,387.967,358.219,397.418z M397.674,373.866c3.9-2.7,7.801-5.399,11.701-8.103
	c1.35-0.899-0.15-3-1.65-2.549c-0.451,0.148-0.75,0.299-1.201,0.299c1.352-1.049,2.852-2.1,4.201-3c0.15,0,0.15-0.149,0.15-0.149
	c0.898-0.149,1.799-0.75,1.949-1.801c0.15-1.05,0.301-2.101,0.449-3.149c0.15,3,0.451,6.002,0.75,8.852
	C408.475,367.115,403.075,370.416,397.674,373.866z M405.174,355.864c0.75,0,1.35-0.45,1.5-1.201c0.6,0.15,1.201,0,1.801-0.299
	c0,0.449,0,0.899,0,1.351c-0.6-0.451-1.5-0.601-2.25,0.149c-0.451,0.3-0.75,0.75-1.201,1.05
	C405.024,356.614,405.024,356.313,405.174,355.864z M405.174,144.193L405.174,144.193L405.174,144.193L405.174,144.193z
	 M407.125,149.144c0.449,0,0.898-0.15,1.199-0.6c-0.449,1.8-0.75,3.45-0.9,5.251C407.274,152.294,407.125,150.794,407.125,149.144z
	 M408.625,141.343c0-0.601,0-1.2,0-1.8c0.449,0.3,0.898,0.449,1.35,0.75c0.15,0.149,0.449,0.149,0.75,0.149
	c-0.449,0.15-0.75,0.601-0.898,1.2c0,0.6-0.15,1.2-0.303,1.65c-0.148-0.301-0.148-0.601-0.299-0.75
	C408.924,142.093,408.774,141.643,408.625,141.343z M412.526,338.312c0.148-0.149,0.301-0.449,0.301-0.75
	c0.148-3,0.449,5.852,0.6,2.851c-0.148,4.801-0.301-2.55-0.301,2.251c-0.148,0-0.299,0-0.449,0
	C412.526,341.163,412.526,339.662,412.526,338.312z M413.125,150.493c0-3,0-6-0.15-8.851c0-0.75-0.449-1.2-1.051-1.35
	c1.352-0.601,2.102-2.25,0.75-3.15c-1.5-1.05-3.15-2.25-4.65-3.3c-0.449-0.3-1.049-0.45-1.648-0.45
	c-2.102-1.2-4.201-2.55-6.451-3.75c-1.949-1.95-4.199-3.75-6.301-5.55c0.15,0,0.451-0.15,0.602-0.3
	c6.602,4.2,13.201,8.251,20.102,11.852C413.575,140.742,413.125,145.544,413.125,150.493z" class="color c1"/>
</svg>