<svg version="1.1" id="图层_1" x="0px" y="0px" width="124.736px" height="107.9px" viewBox="0 0 124.736 107.9" enable-background="new 0 0 124.736 107.9" xml:space="preserve" xmlns="http://www.w3.org/2000/svg" xmlns:xlink="http://www.w3.org/1999/xlink" xmlns:xml="http://www.w3.org/XML/1998/namespace">
  <path fill="#282828" d="M85.996,97.294c-0.828,0.379-1.664,0.738-2.512,1.078c-4.211,1.688-8.67,2.879-13.303,3.518
	c-0.394,0.058-0.791,0.109-1.191,0.159c-0.066,0.008-0.131,0.018-0.197,0.025c-2.32,0.276-4.762,0.416-7.287,0.353
	c-0.922-0.014-1.834-0.051-2.744-0.107C29.059,100.453,5.465,75.699,5.465,45.533c0-14.619,5.545-27.965,14.641-38.054
	c-0.178-0.646-0.322-1.31-0.424-1.997c-0.248-1.685-0.232-3.41,0.039-5.131l0.018-0.093C19.754,0.172,19.779,0.087,19.797,0
	C7.623,11.39,0,27.587,0,45.533C0,79.923,27.979,107.9,62.367,107.9c9.574,0,18.648-2.17,26.764-6.041
	c0.918-0.438,1.824-0.896,2.717-1.379c19.563-10.537,32.889-31.215,32.889-54.947c0-2.414-0.146-4.793-0.416-7.137l-5.496,0.002
	c0.293,2.34,0.447,4.719,0.447,7.135c0,20.453-10.85,38.41-27.092,48.443c-0.783,0.482-1.574,0.953-2.383,1.4
	c0,0-1.387,0.821-3.807,1.902C85.992,97.285,85.994,97.29,85.996,97.294z" class="color c1"/>
</svg>