<svg version="1.1" id="图层_1" x="0px" y="0px" width="212px" height="212px" viewBox="0 0 212 212" enable-background="new 0 0 212 212" xml:space="preserve" xmlns="http://www.w3.org/2000/svg" xmlns:xlink="http://www.w3.org/1999/xlink" xmlns:xml="http://www.w3.org/XML/1998/namespace">
  <g>
    <circle fill="#FFFFFF" cx="106" cy="106" r="21.413" class="color c1"/>
    <path fill="#DD3B56" d="M106,128.914c-12.634,0-22.913-10.279-22.913-22.914S93.366,83.086,106,83.086
		c12.635,0,22.914,10.279,22.914,22.914S118.635,128.914,106,128.914z M106,86.086c-10.98,0-19.913,8.933-19.913,19.914
		S95.02,125.914,106,125.914c10.98,0,19.914-8.933,19.914-19.914S116.98,86.086,106,86.086z" class="color c2"/>
    <path fill="#DD3B56" d="M106,6c55.229,0,100,44.771,100,100s-44.771,100-100,100S6,161.229,6,106S50.771,6,106,6 M106,0
		C47.551,0,0,47.551,0,106s47.551,106,106,106s106-47.551,106-106S164.449,0,106,0L106,0z" class="color c2"/>
  </g>
</svg>