<svg version="1.1" id="图层_1" x="0px" y="0px" width="104.547px" height="104.547px" viewBox="0 0 104.547 104.547" enable-background="new 0 0 104.547 104.547" xml:space="preserve" xmlns="http://www.w3.org/2000/svg" xmlns:xlink="http://www.w3.org/1999/xlink" xmlns:xml="http://www.w3.org/XML/1998/namespace">
  <path fill="#298299" d="M52.273,0C23.403,0,0,23.404,0,52.273s23.403,52.274,52.273,52.274s52.273-23.404,52.273-52.274
	S81.144,0,52.273,0z M52.273,97.432c-24.94,0-45.157-20.219-45.157-45.159S27.333,7.116,52.273,7.116s45.157,20.218,45.157,45.158
	S77.214,97.432,52.273,97.432z M52.273,8.419c-24.182,0-43.854,19.672-43.854,43.854c0,24.181,19.673,43.854,43.854,43.854
	s43.854-19.673,43.854-43.854C96.128,28.092,76.455,8.419,52.273,8.419z M52.273,93.506c-22.736,0-41.233-18.497-41.233-41.233
	c0-22.736,18.497-41.233,41.233-41.233c22.735,0,41.232,18.497,41.232,41.233C93.506,75.009,75.009,93.506,52.273,93.506z" class="color c1"/>
</svg>