<svg version="1.1" id="图层_1" x="0px" y="0px" width="185.874px" height="185.874px" viewBox="0 0 185.874 185.874" enable-background="new 0 0 185.874 185.874" xml:space="preserve" xmlns="http://www.w3.org/2000/svg" xmlns:xlink="http://www.w3.org/1999/xlink" xmlns:xml="http://www.w3.org/XML/1998/namespace">
  <path fill="#C9AB74" d="M69.835,12.785l-8.384-7.29C71.288,1.941,81.89,0,92.937,0c7.356,0,13.501,0.688,20.367,2.31
	c-0.844,2.062-2.881,5.319-7.736,8.164c-4.441-0.734-7.985-0.946-12.631-0.946C84.925,9.528,77.174,10.666,69.835,12.785z
	 M123.582,5.241c0.216,2.917-0.852,7.134-1.561,9.543c32.338,11.49,54.325,41.926,54.325,78.154c0,45.992-37.417,83.41-83.409,83.41
	c-45.288,0-82.7-36.827-83.399-82.09c-0.007-0.439-0.011-0.879-0.011-1.32c0-31.217,17.241-58.479,42.698-72.776l-4.746-7.329
	l-0.515-0.642C18.934,28.212,0,58.404,0,92.938c0,0.488,0.004,0.974,0.012,1.463c0.379,24.517,10.213,47.506,27.691,64.732
	c17.497,17.245,40.664,26.742,65.234,26.742c51.245,0,92.937-41.692,92.937-92.937C185.874,51.967,160.456,17.575,123.582,5.241z" class="color c1"/>
</svg>