<svg version="1.1" id="图层_1" x="0px" y="0px" width="335px" height="85px" viewBox="0 0 335 85" enable-background="new 0 0 335 85" xml:space="preserve" xmlns="http://www.w3.org/2000/svg" xmlns:xlink="http://www.w3.org/1999/xlink" xmlns:xml="http://www.w3.org/XML/1998/namespace">
  <path fill="#0C131A" d="M332.5,73.805c0,4.803-4.646,8.695-10.378,8.695H12.878C7.146,82.5,2.5,78.605,2.5,73.805v-62.61
	C2.5,6.394,7.146,2.5,12.878,2.5h309.244c5.731,0,10.378,3.894,10.378,8.695V73.805L332.5,73.805z" class="color c1"/>
  <path fill="#6A6841" d="M322.122,85H12.878C5.776,85,0,79.979,0,73.805v-62.61C0,5.022,5.776,0,12.878,0h309.244
	C329.224,0,335,5.022,335,11.195v62.61C335,79.979,329.224,85,322.122,85z M12.878,5C8.534,5,5,7.779,5,11.195v62.61
	C5,77.221,8.534,80,12.878,80h309.244c4.344,0,7.878-2.779,7.878-6.195v-62.61C330,7.779,326.466,5,322.122,5H12.878z" class="color c2"/>
</svg>