<svg version="1.1" id="图层_1" x="0px" y="0px" width="169.446px" height="170px" viewBox="0 0 169.446 170" enable-background="new 0 0 169.446 170" xml:space="preserve" xmlns="http://www.w3.org/2000/svg" xmlns:xlink="http://www.w3.org/1999/xlink" xmlns:xml="http://www.w3.org/XML/1998/namespace">
  <path fill="#00656E" d="M2.769,12.183C1.239,12.183,0,13.422,0,14.951V155.05c0,1.527,1.239,2.769,2.769,2.769
	c1.529,0,2.769-1.241,2.769-2.769V14.951C5.538,13.422,4.298,12.183,2.769,12.183z" class="color c1"/>
  <path fill="#00656E" d="M154.772,164.463H14.674c-1.529,0-2.769,1.238-2.769,2.769c0,1.529,1.24,2.769,2.769,2.769h140.098
	c1.529,0,2.769-1.239,2.769-2.769C157.541,165.701,156.301,164.463,154.772,164.463z" class="color c1"/>
  <path fill="#00656E" d="M154.772,0H14.674c-1.529,0-2.769,1.239-2.769,2.769s1.24,2.769,2.769,2.769h49.063l0.001,0.003h5.773
	h23.625h5.748l0.001-0.003h55.885c1.529,0,2.769-1.24,2.769-2.769S156.301,0,154.772,0z" class="color c1"/>
  <path fill="#00656E" d="M166.677,12.183c-1.529,0-2.768,1.239-2.768,2.769V155.05c0,1.527,1.239,2.769,2.768,2.769
	c1.529,0,2.769-1.241,2.769-2.769V14.951C169.446,13.422,168.207,12.183,166.677,12.183z" class="color c1"/>
</svg>