<svg version="1.1" id="图层_1" x="0px" y="0px" width="180px" height="180px" viewBox="0 0 180 180" enable-background="new 0 0 180 180" xml:space="preserve" xmlns="http://www.w3.org/2000/svg" xmlns:xlink="http://www.w3.org/1999/xlink" xmlns:xml="http://www.w3.org/XML/1998/namespace">
  <path fill="#040404" d="M169.844,66.372c2.223,7.496,3.434,15.422,3.434,23.627c0,45.92-37.357,83.279-83.277,83.279
	c-45.919,0-83.278-37.359-83.278-83.279C6.722,44.081,44.081,6.723,90,6.723c9.338,0,18.313,1.568,26.701,4.416l5.271-5.271
	C112.035,2.088,101.264,0,90,0C40.294,0,0,40.295,0,90c0,49.707,40.294,90,90,90c49.705,0,90-40.293,90-90
	c0-10.145-1.703-19.887-4.798-28.985L169.844,66.372z" class="color c1"/>
</svg>