<svg version="1.1" id="图层_1" x="0px" y="0px" width="381.557px" height="362.74px" viewBox="0 0 381.557 362.74" enable-background="new 0 0 381.557 362.74" xml:space="preserve" xmlns:xml="http://www.w3.org/XML/1998/namespace" xmlns="http://www.w3.org/2000/svg" xmlns:xlink="http://www.w3.org/1999/xlink">
  <path fill="#3C88CB" d="M381.557,215.345c0,21.604-3.832,41.467-11.149,59.236c-7.317,18.119-17.771,33.801-30.664,46.693
	c-13.241,13.24-28.573,23.346-46.693,30.664c-18.119,7.316-37.633,10.801-58.889,10.801h-86.417
	c-21.255,0-40.769-3.482-58.889-10.801c-18.119-7.316-33.8-17.424-46.692-30.664C28.922,308.382,18.816,292.7,11.15,274.581
	C3.833,256.464,0,236.601,0,215.345v-67.601c0-21.256,3.833-41.117,11.15-59.237c7.318-18.119,17.771-33.8,31.013-46.691
	c13.242-12.893,28.573-23.348,46.692-30.664C106.975,3.833,126.488,0,147.744,0h86.765c21.256,0,40.77,3.833,58.54,11.15
	c18.12,7.316,33.452,17.771,46.693,30.664c13.24,12.893,23.347,28.572,30.664,46.691c7.316,18.12,11.149,37.981,11.149,59.237
	L381.557,215.345L381.557,215.345z M317.79,147.745c0-12.544-2.091-24.043-5.923-34.497c-4.182-10.104-9.757-19.165-17.074-26.481
	c-7.317-7.317-16.028-12.894-26.483-17.074c-10.104-4.182-21.604-5.924-33.8-5.924h-86.765c-12.544,0-23.695,2.091-34.148,5.924
	c-10.105,4.182-19.165,9.757-26.482,17.074c-7.317,7.316-13.241,16.029-17.074,26.481c-4.181,10.105-5.923,21.604-5.923,34.497
	v67.602c0,12.543,2.09,24.043,5.923,34.496c4.182,10.104,9.757,19.164,17.074,26.48c7.317,7.318,16.377,12.895,26.482,17.076
	c10.105,4.18,21.604,5.922,34.148,5.922h86.068c12.543,0,23.694-2.09,34.147-5.922c10.104-4.182,19.165-9.758,26.481-17.076
	c7.317-7.316,13.241-16.027,17.074-26.48c4.183-10.105,5.925-21.605,5.925-34.496v-67.602H317.79z" class="color c1"/>
</svg>