<svg version="1.1" id="图层_1" x="0px" y="0px" width="500.117px" height="411.422px" viewBox="0 0 500.117 411.422" enable-background="new 0 0 500.117 411.422" xml:space="preserve" xmlns="http://www.w3.org/2000/svg" xmlns:xlink="http://www.w3.org/1999/xlink" xmlns:xml="http://www.w3.org/XML/1998/namespace">
  <path fill="#FFFFFF" d="M250,411.422c-4.662,0-9.091-1.633-12.704-4.547L7.576,221.445C2.797,217.6,0,211.889,0,205.71
	c0-6.177,2.797-11.889,7.576-15.734L237.296,4.545C240.909,1.631,245.338,0,250,0c4.662,0,9.091,1.632,12.705,4.545l229.836,185.431
	c4.779,3.846,7.576,9.558,7.576,15.734c0,6.178-2.797,11.889-7.576,15.735L262.705,406.992
	C259.091,409.906,254.662,411.422,250,411.422z M250,11.654c-1.981,0-3.846,0.699-5.361,1.865L14.802,199.066
	c-1.981,1.633-3.147,4.08-3.147,6.645c0,2.565,1.166,5.012,3.147,6.645l229.837,185.547c1.515,1.281,3.38,1.863,5.361,1.863
	s3.846-0.697,5.361-1.863l229.838-185.547c1.98-1.633,3.145-4.08,3.145-6.645c0-2.564-1.164-5.012-3.145-6.645L255.361,13.52
	C253.846,12.354,251.981,11.654,250,11.654z" class="color c1"/>
</svg>