<svg version="1.1" id="图层_1" x="0px" y="0px" width="195.131px" height="182.175px" viewBox="0 0 195.131 182.175" enable-background="new 0 0 195.131 182.175" xml:space="preserve" xmlns="http://www.w3.org/2000/svg" xmlns:xlink="http://www.w3.org/1999/xlink" xmlns:xml="http://www.w3.org/XML/1998/namespace">
  <path fill="#C8D6D1" d="M190.763,106.701c-0.868,2.585-1.386,5.56-2.671,7.987c-0.131-1.315,0.385-2.659,0.678-3.942
	c0.231-1.012,0.32-2.43,0.735-3.268c-0.127-1.13,0.215-2.89,0.297-4.207c0.088-1.436,0.004-2.761,0.677-4.04
	c0.655-1.246,0.306-2.586,0.531-3.952c0.232-1.408,0.703-2.764,0.989-4.16c-1.623,0.001-3.248,0.001-4.871,0.003
	c0-1.187-0.032-2.374-0.087-3.559c-0.027-0.589-0.06-1.176-0.097-1.765c-0.02-0.303-0.15-0.915-0.08-1.171
	c0.046-0.175,0.41-0.31,0.419-0.51c0.04-0.889-0.491-1.689-0.52-2.651c-0.037-1.242-0.285-2.446-0.334-3.675
	c-0.041-1.017,0.437-1.638,0.113-2.565c-0.334-0.956-0.427-0.778,0.329-1.451c0.312-0.278,0.519-0.006,0.503-0.519
	c-0.018-0.6-0.432-0.161-0.632-0.507c-0.434-0.748,0.652-0.479,0.714-1.222c0.064-0.773-1.156-0.223-1.474-0.827
	c-0.113-0.217,0.031-0.614,0.075-0.832c0.064-0.312,0.743-1.125,0.744-1.272c0.001-0.494-1.019-0.558-1.059-1.317
	c-0.019-0.358,0.284-0.707,0.405-1.026c0.231-0.599,0.34-1.159,0.321-1.802c-0.08-2.541-1.174-5.361-1.924-7.773
	c-0.818-2.63-1.77-5.224-2.876-7.747c-0.826-1.879-1.812-3.676-2.84-5.449c-0.549-0.947-1.062-1.989-1.865-2.733
	c-0.296,1.354,0.341,2.871,0.582,4.231c-0.361-1.32-0.738-0.573-1.608-0.363c-1.004,0.243-1.075-0.609-1.5-1.477
	c-0.645-1.324-1.328-2.617-2.046-3.9c-0.489-0.874-1.042-1.707-1.549-2.552c-0.339-0.563-0.418-1.412,0.433-1.017
	c0.795,0.368,1.517,1.677,2.05,2.32c0.617-0.606-0.679-2.282-1.261-2.609c-0.968-0.543-2.688-0.956-3.011-2.101
	c1.301,0.524,1.561,1.412,2.812,0.194c-0.721-0.623-1.474-1.115-1.9-1.977c-0.821-1.663-1.342-3.481-2.219-5.118
	c-1.063-1.981-4.225-3.789-6.046-4.986c0.283,0.548,0.539,1.108,0.79,1.672c0.885-0.469,0.684,0.93,0.55,1.328
	c-1.128-1.051-2.366-1.506-2.701-3.123c-0.181-0.879-0.103-0.887-0.995-1.338c-0.849-0.428-0.827-0.348-0.879-1.298
	c0.541,0.131,1.075,0.287,1.61,0.441c0.066-0.738,0.478-1.907-0.399-2.302c-0.451-0.203-1.314,0.251-1.677-0.078
	c-0.313-0.285-0.062-0.851-0.039-1.204c0.071-1.094-0.196-1.924-0.682-2.896c-0.153,0.401-0.271,0.831-0.478,1.209
	c-0.173,0.315-0.869,0.835-0.938,1.124c-0.161,0.679,0.81,1.242,0.739,1.943c-0.107,1.037-0.656,0.628-1.265,0.327
	c-0.609-0.302-1.353-0.385-1.904-0.8c-0.669-0.503-0.907-1.358-1.535-1.93c-0.855-0.778-1.863-1.413-2.802-2.083
	c-0.689-0.492-5.081-3.936-5.565-2.843c-0.269,0.609,0.954,1.018,1.339,1.351c0.835,0.721,1.496,1.632,2.334,2.355
	c1.696,1.461,3.541,2.761,5.256,4.203c0.835,0.701,1.647,1.423,2.408,2.204c0.386,0.396,1.886,1.63,1.841,2.207
	c-0.08,1.049-1.273,0.166-1.688-0.101c-0.722-0.461-1.37-1.167-2.315-0.925c0.097,0.257,0.195,0.513,0.293,0.77
	c-1.242-0.961-2.506-1.893-3.798-2.788c1.305,0.507,0.984-0.589,0.319-1.24c-0.694-0.68-1.686-0.917-2.618-1.049
	c0.212,0.469,0.501,0.917,0.847,1.298c-0.678-0.45-1.364-0.886-2.054-1.316c0.35-0.017,0.701-0.029,1.051-0.037
	c-0.874-0.312-0.814-1.377-1.677-1.884c-0.217-0.127-2.237-0.883-2.286-0.586c-0.059,0.361,0.53,0.633,0.508,1.066
	c-1.161-0.674-2.337-1.321-3.527-1.943c-1.089-0.568-2.664-1.031-3.622-1.782c-0.675-0.531-0.934-1.117-1.867-1.232
	c-0.101,0.084-0.2,0.168-0.299,0.252c-0.292-0.125-0.585-0.247-0.879-0.367c-0.854-0.352-0.85-0.4-1.121-1.263
	c-0.404,0.665-0.135,0.614-0.939,0.441c-0.473-0.102-0.95-0.364-1.403-0.533c-1.036-0.384-2.077-0.748-3.126-1.089
	c0.373-0.094,0.377-0.22-0.079-0.348c-0.009,0.103-0.018,0.208-0.025,0.312c-6.383-2.074-13.037-3.417-19.74-3.988
	c-3.288-0.28-6.588-0.339-9.863-0.598c-1.575-0.124-3.119-0.09-4.694-0.003c-0.436,0.025-4.122,0.082-3.633,0.962
	c-0.582,0.071-1.163,0.139-1.744,0.222c0.369-0.817-1.628-0.855-0.458,0.057c-5.816,0.86-11.542,2.318-17.067,4.328
	c-0.683,0.247-1.394,0.362-2.016,0.524c-0.227-0.161-0.387-0.135-0.483,0.076c-0.101,0.101-0.176,0.218-0.227,0.352
	c-1.04,0.553-2.421,1.087-3.602,1.619c-1.167,0.525-1.841,0.856-3.019,0.982c-0.821,0.087-1.319,0.075-1.965,0.545
	c-0.535,0.391-1.018,1.049-1.449,1.551c0.213-0.071,0.427-0.134,0.643-0.19c-1.623,0.888-3.208,1.842-4.772,2.831
	c0.456-0.44,0.8-0.903,1.183-1.4c-1.766-0.157-3.811,1.306-5.346,2.158c-0.413,0.229-0.933,0.436-1.306,0.726
	c-0.861,0.673-0.61,1.735,0.535,1.868c-0.355,0.26-0.701,0.543-1.066,0.789c-0.4,0.269-0.178-0.125-0.428,0.047
	c-0.306,0.213,0.062,0.185,0.094,0.208c-9.522,7.261-17.532,16.468-23.402,26.899c0.032-0.641-0.864,0.74-0.926,0.836
	c-0.364,0.556-0.646,1.179-0.958,1.765c-0.675,1.269-1.339,2.535-1.939,3.841c0.294-0.243,0.587-0.491,0.879-0.739
	c-0.19,0.404-0.368,0.813-0.55,1.218c-0.058-0.185-0.147-0.352-0.268-0.503c-0.369,0.466-0.889,0.934-1.065,1.523
	c-0.201,0.675,0.197,1.115,0.145,1.702c-0.07,0.787-0.72,1.808-0.994,2.544c-0.141,0.378-0.257,0.773-0.418,1.143
	c-0.125,0.29-0.469,0.619-0.565,0.87c0.038-0.102,0.045,0.57,0.034,0.664c-0.068,0.591-0.516,1.012-0.666,1.54
	c-0.219,0.768-0.34,1.632-0.572,2.442c-0.34-0.401-0.524-0.247-0.979-0.085c0.315,0.413,0.366,0.554,0.896,0.377
	c-0.493,1.748-0.933,3.513-1.316,5.288c-0.061,0.284-0.282,2.312-0.48,2.39c-0.441,0.171-0.921-0.813-1.082-1.074
	c-1.075,2.177-1.13,5.333-1.387,7.722c-0.301,2.79-0.521,5.604-0.503,8.41c0.018,2.711-0.078,5.443-0.025,8.15
	c0.014,0.703,0.115,1.32,0.329,1.99c0.145,0.452,0.438,0.804,0.273,1.306c-0.282,0.857-0.859,0.153-0.875,1.28
	c-0.052,3.718,0.762,7.766,1.571,11.397c0.394,1.761,1.203,3.115,1.963,4.737c0.117,0.25,0.445,0.699,0.339,0.996
	c-0.138,0.386-0.633,0.242-0.656,0.803c-0.013,0.289,0.278,0.553,0.367,0.814c0.177,0.519,0.162,1.13,0.257,1.67
	c0.177-0.606,0.384-1.205,0.591-1.802c0.906,1.131,1.556,2.06,2.199,3.33c0.485,0.961,1.163,3.036,2.205,3.1
	c-0.087-0.191-0.062-0.447-0.164-0.631c0.791,0.39,0.671,1.635,1.222,2.369c0.313,0.418,0.798,0.558,1.122,0.916
	c0.329,0.362,0.528,1.038,0.757,1.475c0.986,1.882,2.041,3.728,3.161,5.533c2.231,3.594,4.723,7.028,7.446,10.264
	c5.49,6.525,11.927,12.248,19.052,16.932c7.15,4.698,14.98,8.343,23.181,10.779c2.228,0.661,4.298,1.689,6.591,2.24
	c2.509,0.603,5.07,0.929,7.626,1.263c5.454,0.712,11.097,0.857,16.584,0.448c4.007-0.298,7.971-0.801,11.932-1.486
	c1.575-0.273,3.144-0.577,4.701-0.934c1.046-0.24,2.216-0.75,3.295-0.773c0.313-0.006,0.608-0.006,0.887,0.164
	c0.373,0.227,0.492,1.087,0.743,1.208c0.493,0.238,0.67-0.417,1.001-0.506c0.319-0.087,1.236,0.433,0.967,0.548
	c0.037,0.001,0.073,0.003,0.11,0.004c0.336-0.431,1.087-0.856,1.584-1.221c-0.028,0.032-0.055,0.062-0.083,0.094
	c2.361-1.026,4.542-2.361,6.874-3.473c1.18-0.563,2.705-0.651,3.762-1.344c1.003-0.656,1.677-1.1,2.779-1.456
	c0.465-0.152,0.336,0.01,0.73-0.285c0.18-0.135,0.284-0.442,0.506-0.604c0.176-0.13,0.837-0.413,1.06-0.447
	c0.529-0.083,0.77,0.279,1.247,0.288c1.033,0.019,2.613-0.902,3.438-1.452c1.219-0.813,2.249-1.935,3.346-2.899
	c-0.038,0.022-0.076,0.043-0.115,0.066c1.074-0.91,2.649-1.437,3.894-2.133c3.549-1.984,6.686-4.75,9.626-7.534
	c1.44-1.363,2.832-2.778,4.185-4.227c1.298-1.389,2.701-2.544,4.064-3.85c1.528-1.463,2.36-3.111,3.255-4.984
	c0.832-1.742,1.832-2.593,3.455-3.476c-0.659,1.761-1.589,3.232-2.566,4.848c0.585-0.743,7.842-10.062,6.162-11.141
	c-0.79-0.507-1.826,0.475-1.487-0.907c0.333-1.356,1.572-2.817,2.251-4.038c0.341-0.613,0.694-1.697,1.296-2.132
	c0.505-0.366,1.14-0.329,1.614-0.803c0.764-0.764,1.056-2.227,1.221-3.24c-1.258,1.186-2.988,2.458-3.715,4.043
	c-0.667,1.454-1.409,4.166-3.017,4.806c-0.071-0.498,0.173-0.622,0.276-1.086c0.111-0.496,0.041-0.508,0.057-1.023
	c0.032-0.976,0.39-1.565,0.775-2.437c0.418-0.95,0.445-1.789,0.985-2.685c0.615-1.018,1.182-2.064,1.705-3.133
	c2.213-4.528,3.565-9.405,4.292-14.383C191.657,105.725,190.954,106.094,190.763,106.701z M144.705,15.616
	c-0.094,0.047-0.048,0.242-0.14,0.07C144.473,15.516,144.612,15.662,144.705,15.616z M188.427,93.83
	c0.265,0.009,0.19-0.042,0.182,0.364C188.361,94.25,188.3,94.128,188.427,93.83z M188.221,97.295
	c0.068-0.285,0.158-0.563,0.271-0.832c0.089,0.735,0.24,1.074-0.237,1.64C188.217,97.834,188.205,97.565,188.221,97.295z
	 M186.584,101.886c-0.096,0.069-0.017,0.166-0.154,0.141C186.489,101.544,186.424,102,186.584,101.886z M182.776,135.739
	c-0.061,0.116-0.121,0.232-0.182,0.349C182.514,135.851,182.575,135.735,182.776,135.739z M180.716,125.593
	c-0.05,0.148-0.138,0.175-0.266,0.078c0-0.054,0-0.107-0.001-0.159C180.538,125.538,180.627,125.566,180.716,125.593z
	 M185.669,65.023c0.302,0.429,0.149,0.673,0.019,1.185c-0.219-0.118-0.44-0.237-0.659-0.355
	C185.242,65.576,185.455,65.3,185.669,65.023z M183.522,62.09c0.2,0.084,0.231,0.237,0.092,0.456
	C183.373,62.426,183.5,62.322,183.522,62.09z M184.222,68.666c-0.52-1.972-1.124-3.922-1.78-5.853
	c0.525,0.645,0.715,1.924,0.953,2.709C183.71,66.56,183.989,67.607,184.222,68.666z M181.972,55.245
	c0.047,0.05,0.094,0.099,0.141,0.149c-0.062,0.018-0.125,0.034-0.187,0.051C181.942,55.378,181.957,55.311,181.972,55.245z
	 M181.67,58.374c0.248,0.824,0.155,1.706,0.199,2.553c-0.419-0.478-0.602-1.43-0.84-2.033c-0.2-0.507-1.001-1.766-0.485-2.04
	C181.537,56.326,181.529,57.902,181.67,58.374z M177.573,46.056c0.089-0.2,0.126-0.412,0.112-0.633
	c1.645,0.935,0.25,1.563,0.419,2.858c1.432-0.878,1.563,0.07,2.055,1.365c0.502,1.317,1.252,2.756,1.056,4.173
	c-0.382-0.814-0.705-1.653-1.096-2.463c-0.208-0.433-1.004-1.76-1.228-0.541c-0.074,0.4,1.97,4.736,0.361,3.745
	c-0.504-0.312-0.715-1.712-0.883-2.218c-0.343-1.037-0.692-2.074-1.041-3.109C176.826,47.749,175.831,46.702,177.573,46.056z
	 M169.6,38.442c-0.217-0.278-0.435-0.556-0.654-0.832C169.689,37.135,170.228,37.86,169.6,38.442z M168.129,35.338
	c0.353,0.531,0.706,1.061,1.06,1.593C168.971,36.652,167.906,35.573,168.129,35.338z M164.096,25.279l-0.96-0.804
	C163.614,24.555,164.252,24.461,164.096,25.279z M161.622,26.603c1.223,0.452,1.877,1.405,2.578,2.477
	c0.675,1.032,1.656,2.195,1.898,3.408c-0.977-0.276-1.904-1.474-2.492-2.148C162.647,29.242,161.577,28.048,161.622,26.603z
	 M159.055,23.922c0.266,0.014,0.534,0.028,0.801,0.042c-0.084,0.457,0.028,0.898-0.517,0.832
	C158.892,24.743,159.06,24.255,159.055,23.922z M158.776,25.626c0.961,0.753,1.637,1.827,2.391,2.783
	c-0.873-0.412-3.03-1.933-3.064-2.865C158.328,25.571,158.552,25.599,158.776,25.626z M156.051,23.609
	c0.671-0.25,1.157,0.627,0.688,1.066c-0.325-0.283-0.647-0.57-0.976-0.846C155.858,23.755,155.955,23.683,156.051,23.609z
	 M47.836,19.72c0.926-0.646,1.677-1.45,2.769-1.828C49.825,18.412,48.59,19.534,47.836,19.72z M18.636,56.009
	c-0.006,0.017-0.014,0.033-0.022,0.048C18.62,56.04,18.63,56.027,18.636,56.009z M11.784,77.433
	c0.121-0.229,0.511,0.015,0.585,0.124c0.138,0.199-0.335,2.073-0.358,2.076C11.299,79.725,11.587,77.786,11.784,77.433z
	 M11.059,84.676c0.185-0.278,0.381-0.548,0.587-0.809c-0.046,0.562,0.074,3.167-0.54,3.357
	C10.718,87.344,10.853,85.006,11.059,84.676z M11.235,88.644c-0.131,0.052-0.083,0.213-0.276,0.075
	C11.016,88.57,11.108,88.545,11.235,88.644z M10.36,92.26c0.201-0.187,0.403-0.375,0.603-0.562
	C11.695,92.554,11.239,92.945,10.36,92.26z M11.143,108.424c-0.103-0.055-0.208-0.108-0.312-0.163
	c0.164-0.196,0.331-0.175,0.501,0.064C11.269,108.358,11.207,108.391,11.143,108.424z M11.634,110.055
	c0.006-0.068,0.013-0.134,0.019-0.2C11.848,110.003,11.685,109.958,11.634,110.055z M11.748,100.748
	c-0.451-2.358-1.586-4.82-0.594-7.177c0.576,0.77,0.333,2.58,0.395,3.536c0.083,1.27,0.191,2.539,0.331,3.806
	C11.838,100.858,11.793,100.803,11.748,100.748z M12.67,114.628c-0.413-0.497-0.958-0.796-0.604-1.389
	C12.412,113.74,12.983,114.042,12.67,114.628z M14.389,114.957c0.006-0.199,0.043-0.401,0.065-0.599
	c0.195,0.714,0.394,1.426,0.606,2.134C14.838,116.082,14.343,115.459,14.389,114.957z M16.216,123.454
	c-0.354-0.215-0.357-0.212-0.213-0.599C16.335,122.963,16.408,123.162,16.216,123.454z M15.399,117.617
	c0.078,0.247,0.169,0.489,0.25,0.736C15.503,118.145,15.442,117.886,15.399,117.617z M127.187,176.167
	c-0.143-0.106-0.124-0.186,0.057-0.243C127.234,175.928,127.499,176.067,127.187,176.167z M169.039,151.41
	c-0.291,0.493-0.376-0.381-0.353-0.357C168.757,151.127,169.34,150.9,169.039,151.41z M170.513,148.365
	c0.477-0.48,0.953-0.961,1.43-1.442C171.637,147.457,170.953,147.931,170.513,148.365z M174.381,144.446
	c-0.701,0.724-1.405,1.446-2.155,2.12c0.624-0.823,1.181-2.049,2.106-2.537C174.388,144.164,174.404,144.303,174.381,144.446z
	 M181.658,136.074c-1.497,2.077-3.054,3.911-4.794,5.782c-0.26,0.28-1.94,2.423-1.993,0.961c-0.025-0.735,1.65-1.284,0.749-1.8
	c1.21-0.99,2.462-1.877,3.503-3.058c0.933-1.059,1.738-2.179,2.794-3.118C181.842,135.225,181.901,135.736,181.658,136.074z
	 M182.306,132.952c0.079-0.032,0.117-0.219,0.131-0.048C182.451,133.08,182.4,132.914,182.306,132.952z M183.504,136.78
	c-0.274-0.176-0.547-0.353-0.821-0.529C183.122,136.401,183.512,136.35,183.504,136.78z M185.029,112.829
	c-0.187,0.203-0.414,0.34-0.681,0.414c0.034-0.45,0.094-0.871,0.44-1.166C184.937,112.307,185.018,112.558,185.029,112.829z
	 M186.932,119.461c-0.233,0.731-0.606,1.404-0.92,2.102c0.259-1.551,0.666-2.742,1.264-4.184
	C187.192,118.076,187.159,118.789,186.932,119.461z M187.117,105.049c-0.059-0.185-0.117-0.369-0.176-0.554
	C187.245,104.857,187.514,104.959,187.117,105.049z M187.842,102.993c-0.18-0.301-0.613-2.882,0.115-2.181
	C188.56,101.391,187.989,102.358,187.842,102.993z M194.609,91.118c0.06,0.203,0.178,0.403,0.265,0.598
	c0.103-0.15,0.217-0.42,0.257-0.599C194.972,91.117,194.763,91.083,194.609,91.118z M131.974,8.726
	c-0.368-0.194-0.677-0.189-1.088-0.13C131.258,8.838,131.582,8.945,131.974,8.726z M11.806,53.999
	c1.588-3.044,3.188-6.081,4.944-9.032c2.209-3.715,4.633-7.578,7.719-10.643c2.541-2.524,5.141-4.97,7.647-7.538
	c0.577-0.591,1.158-1.179,1.74-1.765c0.8-0.804,1.939-1.547,2.13-2.685c-1.577,0.022-2.989,1.861-4.113,2.892
	c-1.417,1.301-2.789,2.649-4.115,4.041c-2.642,2.771-5.087,5.728-7.358,8.81c-2.197,2.981-4.221,6.089-6.042,9.314
	c-0.775,1.371-1.372,2.746-1.956,4.029c-0.799,1.76-1.754,3.541-2.065,5.457C10.914,55.959,11.345,54.983,11.806,53.999z
	 M188.614,68.285c-0.112,1.382,0.147,2.827,1.31,3.719c1.273-3.271,0.573-6.785-0.175-10.092c-0.74-3.268-1.705-7.208-3.578-10.009
	c-0.276,1.325,0.176,2.281,0.485,3.592c0.32,1.348,0.66,2.69,0.965,4.04C188.269,62.404,188.777,65.333,188.614,68.285z
	 M70.969,6.249c0.35,0.269,0.498,0.678,0.968,0.768c0.373,0.073,1.213-0.355,1.538-0.461c1.34-0.436,2.7-0.812,4.067-1.149
	c2.217-0.548,4.963-0.556,6.985-1.678c-1.861-0.584-4.235-0.025-6.181,0.178c-1.794,0.187-3.631,0.404-5.395,0.786
	C72.29,4.836,69.73,5.309,70.969,6.249z M165.721,17.437c1.142,1.269,2.284,2.555,3.35,3.889c0.383,0.479,2.13,3.264,2.511,2.96
	c0.702,1.033,0.98,2.12,2.199,2.509c0.073-1.255-1.031-2.09-1.722-3.173c-0.879-1.377-1.98-2.56-3.019-3.816
	c-1.135-1.375-2.242-2.771-3.374-4.148c-0.952-1.159-1.877-2.567-2.993-3.569c-0.312-0.282-0.795-0.673-1.265-0.485
	c-0.694,0.278-0.362,0.613-0.074,1.049c0.424,0.641,0.961,1.185,1.487,1.738C163.787,15.406,164.754,16.422,165.721,17.437z
	 M189.325,76.695c-0.042,2.087-0.226,4.201-0.456,6.274c-0.115,1.015-0.352,2.07-0.367,3.091c-0.01,0.673,0.293,1.813,1.041,0.912
	c0.468-0.561,0.385-2.334,0.474-2.998c0.15-1.117,0.296-2.235,0.382-3.36c0.078-1.01,0.147-2.023,0.213-3.035
	c0.092-1.393,0.478-3.309,0.118-4.645c-0.241-0.893-0.79-1.049-1.124-0.125c-0.159,0.441-0.192,0.761-0.22,1.207
	C189.332,74.905,189.346,75.804,189.325,76.695z M29.508,151.102c-0.391-0.452-2.709-2.814-2.389-3.206
	c-1.7-2.077-3.036-4.554-4.991-6.387c1.101,2.637,2.988,5.02,4.714,7.287c0.877,1.149,1.798,2.256,2.741,3.352
	c0.879,1.019,1.7,2.194,2.929,2.77C31.933,153.458,30.539,152.296,29.508,151.102z M129.432,3.324
	c1.348,0.092,3.201,0.591,4.461,0.062c-0.948-0.773-1.259-0.228-2.421-0.284c-1.584-0.075-1.762-1.272-2.696-2.205
	c-0.599-0.598-2.562-1.493-2.767-0.333C125.797,1.764,128.616,2.836,129.432,3.324z M177.303,32.404
	c0.321,0.322,0.305-0.296,0.673-0.213c0.533,0.12,0.771,0.777,1.045,1.19c0.626,0.948,1.26,1.881,1.989,2.747
	c-0.124-1.521-1.512-5.059-3.109-5.499c-0.516-0.141-1.498-0.353-1.818,0.191C175.631,31.59,176.9,31.999,177.303,32.404z
	 M193.2,97.18c-0.796,1.134-0.544,3.09-0.692,4.51c-0.114,1.089-0.227,2.18-0.34,3.269c0.405-1.272,0.778-2.521,1.018-3.838
	C193.413,99.87,193.986,98.228,193.2,97.18z M192.094,105.201c-0.039,0.269,0.068-0.172,0.074-0.241
	C192.056,105.062,192.031,105.142,192.094,105.201z M32.62,32.166c-0.975,0.851-2.118,1.667-2.941,2.677
	c-0.46,0.566-0.498,1.717,0.58,1.251c0.604-0.261,1.528-1.71,1.924-2.125c0.265-0.278,0.847-0.763,0.939-1.112
	C33.194,32.573,33.147,31.713,32.62,32.166z M63.025,8.336c0.896,0.327,0.911-0.651,1.059-1.247
	c-1.263-0.068-1.972,0.525-3.105,0.925c-1.055,0.373-1.663,0.382-2.3,1.373C60.065,9.064,61.563,7.811,63.025,8.336z M157.12,8.429
	c0.956,0.849,1.953,2.09,3.167,2.507c-0.206-1.506-2.654-2.981-3.794-3.927c-0.457-0.38-1.575-1.033-1.302,0.039
	C155.361,7.721,156.592,8.132,157.12,8.429z M135.692,6.026c0.333,0.817,2.135,0.567,2.704,0.552
	c-0.257-0.478-1.5-2.775-2.347-2.324c-0.213,0.113-0.097,0.538-0.201,0.702c0.013-0.02-0.683,0.842-0.669,0.605
	C135.171,5.694,135.642,5.894,135.692,6.026z M127.113,177.477c0,0.041-1.591,0.739-1.863,0.854
	c-1.424,0.599-3.527,0.818-4.653,1.845c1.264,0.215,2.637-0.584,3.82-1.014c1.382-0.502,2.742-1.038,4.094-1.617
	C128.065,177.527,127.492,177.518,127.113,177.477z M174.213,41.238c-0.097,0.903,0.999,1.442,1.612,1.831
	c-0.036-1.321-0.375-2.209-1.279-3.178C174.441,40.34,174.264,40.777,174.213,41.238z M193.608,108.835
	c-0.199,1.058-0.437,2.105-0.499,3.178c0.77-2.023,0.966-4.322,1.263-6.461C194.145,106.456,193.433,108.064,193.608,108.835z
	 M1.835,74.504c0.136-0.959,0.273-1.92,0.41-2.879c-0.614,2.205-0.857,3.807-1.084,6.099C1.386,76.659,1.675,75.581,1.835,74.504z
	 M13.446,123.228c0.678,1.542,1.256,3.114,2.005,4.611C15.838,125.825,14.875,124.474,13.446,123.228z M51.393,12.576
	c0.163-0.154,0.303-0.325,0.424-0.513c-0.792,0.014-2.053,1.201-2.511,0.944c-0.605,0.568-1.212,1.136-1.818,1.706
	C48.852,14.053,50.153,13.458,51.393,12.576z M17.486,132.887c0.001-0.199,0.669,0.208,0.362-0.815
	c-0.241-0.8-0.724-1.556-1.023-2.339C15.664,131.065,17.5,131.631,17.486,132.887z M40.035,161
	c-0.257-0.161-1.103-0.714-1.284-0.395c-0.111,0.195,0.362,0.868,0.543,1.005C40.111,162.23,41.594,161.967,40.035,161z
	 M5.946,69.224c-0.001,0.292,0.07,0.567,0.215,0.823c0.907-0.585,0.759-0.764,0.541-1.758C6.45,68.583,6.102,68.855,5.946,69.224z
	 M73.382,179.266c-0.93-0.436-2.055-0.491-3.041-0.74c0.929,0.489,2.366,1.215,3.429,1.149
	C73.665,179.516,73.536,179.379,73.382,179.266z M8.925,59.981c-0.441,0.873-0.525,1.808-0.682,2.761
	c0.565-1.097,1.068-2.092,1.061-3.338C9.166,59.588,9.04,59.78,8.925,59.981z M130.341,178.212c-0.406,0.138-0.647,0.322-0.993,0.57
	c0.856,0.087,1.6,0.059,2.12-0.668C130.994,178.02,130.798,178.095,130.341,178.212z M141.716,8.065
	c-0.754-0.905-1.371-1.158-1.166,0.31C140.939,8.271,141.327,8.168,141.716,8.065z M185.07,49.343
	c-0.247-1.185-0.857-2.276-1.348-3.379C184.03,47.038,184.155,48.664,185.07,49.343z M58.985,10.828
	c0.259-0.255,0.517-0.51,0.777-0.764c-0.971,0.219-1.842,0.313-2.463,1.176C57.981,11.337,58.349,11.101,58.985,10.828z
	 M42.045,18.261c-0.911-0.065-0.987-0.107-1.627,0.571C41.168,19.239,41.398,18.771,42.045,18.261z M1.512,114.702
	c0.08,0.21,0.209,0.386,0.386,0.527c0.396-0.933,0.415-1.023-0.123-1.881C1.679,113.796,1.538,114.242,1.512,114.702z
	 M19.932,136.425c-0.275-0.223-0.55-0.447-0.826-0.67c0.125,0.436,0.355,1.839,0.965,1.882
	C20.734,137.684,20.086,136.769,19.932,136.425z M35.383,157.719c-0.152,0.722,0.149,0.77,0.72,1.245
	C36.331,158.244,35.949,158.16,35.383,157.719z M35.228,28.458c0.789-0.319,1.035-0.711,1.449-1.45
	C36.049,27.458,35.509,27.711,35.228,28.458z M121.883,181.315c-0.233,0.006-0.45,0.071-0.651,0.192
	c0.494,0.68,0.497,0.65,1.31,0.41C122.348,181.687,122.129,181.485,121.883,181.315z M44.225,16.279
	c-0.696,0.205-0.798,0.498-1.153,1.105C43.781,17.062,43.967,17.002,44.225,16.279z M16.263,60.196
	c0.776,0.033,0.645-0.168,0.706-0.893C16.345,59.566,16.227,59.501,16.263,60.196z M192.16,115.468
	c-0.013,0.157-0.003,0.312,0.031,0.465c0.148-0.426,0.274-0.655,0.212-1.1C192.317,115.043,192.237,115.255,192.16,115.468z
	 M65.828,8.384c0.205-0.148,0.375-0.329,0.507-0.544c-0.632-0.158-0.655-0.159-1.083,0.331C65.426,8.295,65.618,8.365,65.828,8.384z
	 M147.302,14.554c-0.247-0.118-0.503-0.209-0.771-0.27c0.296,0.728,0.355,0.701,1.139,0.768
	C147.578,14.863,147.454,14.698,147.302,14.554z M101.589,182.056c0.336,0.167,0.664,0.158,0.982-0.027
	C102.237,181.903,101.909,181.912,101.589,182.056z M5.164,72.544c0.033,0.145,0.097,0.274,0.192,0.387
	c0.115-0.055,0.354-0.264,0.429-0.367C5.653,72.362,5.211,72.082,5.164,72.544z M122.79,6.061c0.261,0.045,0.522,0.038,0.784-0.02
	c-0.445-0.522-0.452-0.6-1.121-0.498C122.528,5.739,122.641,5.911,122.79,6.061z M0,105.026c0.062,0.217,0.164,0.414,0.305,0.592
	c0.296-0.638,0.28-0.682-0.111-1.268C0.089,104.565,0.024,104.789,0,105.026z M189.555,118.654c0.364-0.24,0.4-0.243,0.321-0.669
	C189.588,118.122,189.482,118.345,189.555,118.654z M15.511,128.015c0.001-0.08-0.022-0.099-0.06-0.176
	C15.422,127.911,15.441,127.969,15.511,128.015z M16.785,129.676c-0.427-0.557-0.851-1.11-1.274-1.661
	C15.491,128.876,15.968,129.406,16.785,129.676z M183.54,45.555c-0.197-0.545-0.395-1.089-0.591-1.633
	C182.488,44.21,183.204,45.237,183.54,45.555z M183.573,45.626c0.05,0.112,0.099,0.224,0.149,0.338
	C183.626,45.628,183.554,45.619,183.573,45.626z M39.673,24.354c-0.46,0.068-0.541,0.164-0.796,0.577
	C39.292,24.824,39.379,24.665,39.673,24.354z M140.574,10.363c-0.228-0.386-0.354-0.522-0.778-0.693
	C139.974,10.192,140.054,10.232,140.574,10.363z M148.95,171.472c0.35,0.144,0.262,0.199,0.552-0.231
	C149.232,171.175,149.048,171.252,148.95,171.472z M121.879,178.291c0.099-0.126,0.204-0.25,0.306-0.376
	C122.051,178.011,121.949,178.137,121.879,178.291z M186.877,129.968c-0.04,0.124-0.079,0.248-0.119,0.372
	C187.287,130.357,187.37,130.219,186.877,129.968z M37.888,20.998c-0.264-0.004-0.44,0.125-0.527,0.387
	C37.604,21.315,37.711,21.178,37.888,20.998z M105.925,181.562c0.045,0.116,0.088,0.232,0.133,0.348
	C106.288,181.74,106.26,181.569,105.925,181.562z M1.005,110.593c0.024,0.121,0.048,0.242,0.073,0.364
	c0.059-0.008,0.117-0.019,0.175-0.033C1.177,110.51,1.268,110.539,1.005,110.593z M7.033,56.375
	c-0.011,0.066,0.44,0.001,0.083-0.194C7.088,56.245,7.061,56.31,7.033,56.375z M174.699,28.016
	c-0.479-0.399-0.726,0.118-0.178,0.419C174.575,28.306,174.672,28.152,174.699,28.016z M187.958,128.051
	c0.099-0.073,0.197-0.145,0.297-0.217c-0.055-0.032-0.115-0.052-0.177-0.062C188.038,127.865,187.998,127.958,187.958,128.051z
	 M154.197,12.213c-0.099-0.015-0.197-0.029-0.297-0.045c0.033,0.062,0.065,0.125,0.097,0.187
	C154.063,12.309,154.131,12.26,154.197,12.213z M65.642,6.742c-0.083,0.036-0.21-0.117-0.115,0.052
	C65.624,6.968,65.554,6.78,65.642,6.742z M12.094,72.347c0.348-0.092,0.336,0.005,0.231-0.473
	C12.089,71.981,12.012,72.139,12.094,72.347z M118.571,179.555c-0.014-0.075,0.162-0.14-0.019-0.097
	C118.368,179.503,118.555,179.479,118.571,179.555z M50.364,14.775c-0.057,0.036-0.115,0.071-0.172,0.107
	C50.392,15.01,50.293,14.871,50.364,14.775z M153.057,168.705c-0.033,0.118-0.066,0.237-0.099,0.355
	C153.785,168.753,153.113,168.603,153.057,168.705z M150.473,170.331c0.005,0.183,0.094,0.252,0.268,0.206
	C150.7,170.169,150.573,170.382,150.473,170.331z M5.581,75.809c-0.028,0.066-0.056,0.134-0.085,0.2
	c0.09,0.024,0.181,0.048,0.271,0.073C5.832,75.895,5.77,75.804,5.581,75.809z M160.987,20.081c0.294,0.548,0.464-0.248,0.515-0.275
	C161.48,19.816,160.703,19.553,160.987,20.081z M68.579,6.937c-0.117-0.099-0.212-0.08-0.285,0.055
	C68.411,7.087,68.506,7.068,68.579,6.937z M187.601,86.807c0.12,0.201,0.25-0.013,0.275-0.108c-0.097-0.029-0.194-0.057-0.289-0.085
	C187.591,86.678,187.596,86.742,187.601,86.807z M187.024,60.802c-0.05-0.064-0.011-0.243-0.094-0.113
	C186.847,60.819,186.963,60.725,187.024,60.802z M61.808,175.335c-0.018-0.093,0.229-0.055-0.013-0.103
	C61.585,175.189,61.793,175.257,61.808,175.335z M177.638,33.129c-0.06-0.12-0.118-0.24-0.178-0.359
	C177.397,32.977,177.457,33.097,177.638,33.129z M177.46,32.77c-0.02-0.242,0.009-0.097-0.059-0.215
	C177.327,32.612,177.346,32.684,177.46,32.77z M161.375,16.671c-0.101,0.124-0.068,0.192,0.098,0.205
	C161.607,16.685,161.446,16.772,161.375,16.671z M191.61,117.757c0.051-0.043,0.102-0.088,0.152-0.133
	c-0.047-0.023-0.096-0.047-0.143-0.071C191.616,117.621,191.614,117.69,191.61,117.757z M3.682,84.28
	c0.037-0.054,0.074-0.108,0.11-0.162c-0.052-0.01-0.106-0.02-0.159-0.031C3.649,84.152,3.666,84.215,3.682,84.28z M185.843,50.877
	c-0.045-0.051-0.09-0.101-0.135-0.152C185.652,51.095,185.735,50.86,185.843,50.877z M193.564,96.197
	c0.075-0.031,0.15-0.061,0.227-0.092C193.385,95.983,193.309,96.013,193.564,96.197z M161.036,161.826
	c-0.068,0.126-0.136,0.252-0.204,0.377c0.322,0.052,0.213,0.094,0.436-0.345C161.193,161.828,161.115,161.817,161.036,161.826z
	 M123.834,181.531c0.051-0.042,0.103-0.085,0.154-0.129C123.724,181.284,123.88,181.415,123.834,181.531z M78.776,181.922
	c-0.036,0.175,0.032,0.227,0.204,0.154C79.021,181.896,78.952,181.843,78.776,181.922z M173.65,35.999
	c0.181,0.006,0.233-0.074,0.157-0.237C173.545,35.769,173.714,35.869,173.65,35.999z M67.818,177.766
	c0.084-0.033,0.232,0.102,0.126-0.054C67.836,177.552,67.912,177.729,67.818,177.766z M37.354,159.47
	c0.028-0.097,0.22-0.052,0.039-0.133C37.218,159.259,37.38,159.381,37.354,159.47z M109.566,180.981
	c0.087,0.022,0.175,0.042,0.261,0.062C109.811,180.865,109.723,180.844,109.566,180.981z M43.711,22.839
	c-0.131-0.025-0.264-0.05-0.395-0.075C43.617,22.987,43.527,23.002,43.711,22.839z M188.914,89.234
	c0.112-0.157,0.076-0.237-0.104-0.241C188.703,89.147,188.739,89.228,188.914,89.234z M125.556,6.518
	c-0.125-0.261-0.038-0.213-0.46-0.097C125.42,6.717,125.322,6.71,125.556,6.518z M38.859,26.869
	c-0.088-0.141-0.176-0.155-0.265-0.042c0.029,0.059,0.059,0.118,0.088,0.177C38.742,26.96,38.8,26.914,38.859,26.869z
	 M122.505,177.688c-0.149,0.062-0.231,0.004-0.32,0.227C122.715,177.468,122.24,177.832,122.505,177.688z M43.197,22.742
	c0.189-0.153-0.171,0.101-0.353,0.242C43.007,22.947,43.126,22.866,43.197,22.742z M42.541,23.214
	c0.101-0.076,0.203-0.153,0.303-0.229C42.644,23.004,42.542,23.08,42.541,23.214z M178.777,49.069
	c-0.085-0.051-0.169-0.102-0.254-0.154c-0.023,0.064-0.046,0.127-0.069,0.191C178.572,49.258,178.679,49.246,178.777,49.069z" class="color c1"/>
</svg>