<svg version="1.1" id="图层_1" x="0px" y="0px" width="202.575px" height="178px" viewBox="0 0 202.575 178" enable-background="new 0 0 202.575 178" xml:space="preserve" xmlns="http://www.w3.org/2000/svg" xmlns:xlink="http://www.w3.org/1999/xlink" xmlns:xml="http://www.w3.org/XML/1998/namespace">
  <path fill="#1E1E1E" d="M202.575,30.072h-14.552h-23.31C148.407,11.632,124.575,0,98.022,0C48.87,0,9.023,39.847,9.023,89
	c0,6.047,0.605,11.951,1.755,17.66c-1.017,1.232-1.976,2.496-2.868,3.787c-7.903,11.441-9.969,23.76-5.816,34.687
	c5.558,14.626,21.48,23.713,41.554,23.713c4.159,0,8.431-0.411,12.702-1.192C68.783,174.255,82.965,178,98.022,178
	c49.154,0,89.001-39.847,89.001-89c0-9.736-1.568-19.104-4.458-27.873c3.256-4.726,8.726-13.273,12.213-18.768L202.575,30.072z" class="color c1"/>
</svg>