<svg version="1.1" id="图层_1" x="0px" y="0px" width="206px" height="210.973px" viewBox="0 0 206 210.973" enable-background="new 0 0 206 210.973" xml:space="preserve" xmlns="http://www.w3.org/2000/svg" xmlns:xlink="http://www.w3.org/1999/xlink" xmlns:xml="http://www.w3.org/XML/1998/namespace">
  <path fill="#FFFFFF" d="M198,114.372V37.19l-38.861-22.437c0.016-2.72,0.323-5.641,0.916-8.708L206,32.571v84.571
	C203.244,116.139,200.608,115.226,198,114.372z M102.999,201.736l-59.711-34.475c-3.761,0.836-7.527,1.759-11.233,2.752
	l70.944,40.96l70.981-40.981c-3.619-0.963-7.394-1.881-11.256-2.739L102.999,201.736z M8,114.814V37.19l45.818-26.454
	C54.781,7.288,55.652,3.687,56.415,0L0,32.571v85.074C2.858,116.584,5.493,115.652,8,114.814z" class="color c1"/>
</svg>