<svg version="1.1" id="图层_1" x="0px" y="0px" width="180px" height="180px" viewBox="0 0 180 180" enable-background="new 0 0 180 180" xml:space="preserve" xmlns="http://www.w3.org/2000/svg" xmlns:xlink="http://www.w3.org/1999/xlink" xmlns:xml="http://www.w3.org/XML/1998/namespace">
  <path fill="#5BB141" d="M180,90c0,49.627-40.375,90-90,90c-49.626,0-90-40.373-90-90C0,40.374,40.374,0,90,0
	c3.129,0,6.22,0.161,9.267,0.475l-9.788,9.113C45.372,9.871,9.574,45.829,9.574,90c0,44.348,36.079,80.426,80.426,80.426
	c44.346,0,80.426-36.078,80.426-80.426c0-35.493-23.121-65.668-55.084-76.311l1.889-9.474C153.586,15.781,180,49.862,180,90z" class="color c1"/>
</svg>