<svg version="1.1" id="图层_1" x="0px" y="0px" width="165.071px" height="161.5px" viewBox="0 0 165.071 161.5" enable-background="new 0 0 165.071 161.5" xml:space="preserve" xmlns="http://www.w3.org/2000/svg" xmlns:xlink="http://www.w3.org/1999/xlink" xmlns:xml="http://www.w3.org/XML/1998/namespace">
  <path fill="#110E0E" d="M153.773,5H11.297c-1.381,0-2.5-1.119-2.5-2.5S9.916,0,11.297,0h142.477c1.381,0,2.5,1.119,2.5,2.5
	S155.154,5,153.773,5z M156.273,159c0-1.381-1.119-2.5-2.5-2.5H11.297c-1.381,0-2.5,1.119-2.5,2.5s1.119,2.5,2.5,2.5h142.477
	C155.154,161.5,156.273,160.38,156.273,159z M165.071,147V14.5c0-1.381-1.119-2.5-2.5-2.5s-2.5,1.119-2.5,2.5V147
	c0,1.381,1.119,2.5,2.5,2.5S165.071,148.38,165.071,147z M5,147V14.5C5,13.119,3.881,12,2.5,12S0,13.119,0,14.5V147
	c0,1.381,1.119,2.5,2.5,2.5S5,148.38,5,147z" class="color c1"/>
</svg>