<svg version="1.1" id="图层_1" x="0px" y="0px" width="292.148px" height="292.149px" viewBox="0 0 292.148 292.149" enable-background="new 0 0 292.148 292.149" xml:space="preserve" xmlns="http://www.w3.org/2000/svg" xmlns:xlink="http://www.w3.org/1999/xlink" xmlns:xml="http://www.w3.org/XML/1998/namespace">
  <path fill="#6A4420" d="M292.148,146.071c0-7.673-4.369-14.906-5.526-22.266c-1.182-7.547,0.722-15.769-1.585-22.88
	c-2.348-7.237-8.751-12.777-12.159-19.457c-3.45-6.75-4.186-15.174-8.62-21.258c-4.443-6.117-12.239-9.408-17.568-14.742
	c-5.344-5.335-8.63-13.125-14.742-17.574c-6.09-4.434-14.513-5.17-21.268-8.62c-6.68-3.412-12.216-9.811-19.448-12.159
	c-7.116-2.307-15.343-0.398-22.89-1.589C160.982,4.373,153.745,0,146.072,0c-7.674,0-14.911,4.373-22.262,5.526
	c-7.551,1.19-15.782-0.718-22.889,1.589c-7.232,2.349-12.769,8.747-19.453,12.159c-6.75,3.45-15.178,4.187-21.263,8.62
	c-6.117,4.449-9.407,12.239-14.737,17.574c-5.334,5.334-13.13,8.625-17.578,14.742c-4.435,6.084-5.17,14.508-8.615,21.258
	c-3.413,6.68-9.812,12.22-12.164,19.457c-2.307,7.111-0.398,15.343-1.59,22.88C4.369,131.165,0,138.398,0,146.071
	c0,7.683,4.369,14.916,5.521,22.275c1.191,7.547-0.717,15.773,1.59,22.881c2.353,7.236,8.751,12.773,12.164,19.453
	c3.445,6.754,4.181,15.178,8.615,21.258c4.448,6.121,12.244,9.412,17.573,14.742c5.335,5.338,8.625,13.133,14.742,17.578
	c6.085,4.434,14.508,5.17,21.263,8.619c6.685,3.412,12.221,9.803,19.453,12.164c7.106,2.307,15.338,0.395,22.889,1.584
	c7.351,1.154,14.588,5.523,22.262,5.523c7.673,0,14.91-4.369,22.27-5.523c7.547-1.189,15.773,0.723,22.89-1.584
	c7.232-2.361,12.769-8.752,19.448-12.164c6.755-3.449,15.174-4.182,21.268-8.619c6.112-4.445,9.398-12.24,14.742-17.57
	c5.324-5.338,13.125-8.629,17.568-14.746c4.425-6.084,5.17-14.508,8.62-21.262c3.408-6.68,9.812-12.217,12.159-19.453
	c2.307-7.107,0.403-15.334,1.585-22.881C287.779,160.987,292.148,153.754,292.148,146.071z M145.578,239.887
	c-52.841,0-95.674-42.832-95.674-95.665c0-52.841,42.833-95.673,95.674-95.673c52.833,0,95.666,42.833,95.666,95.673
	C241.244,197.055,198.411,239.887,145.578,239.887z" class="color c1"/>
</svg>