<svg version="1.1" id="图层_1" x="0px" y="0px" width="156.466px" height="156.468px" viewBox="0 0 156.466 156.468" enable-background="new 0 0 156.466 156.468" xml:space="preserve" xmlns="http://www.w3.org/2000/svg" xmlns:xlink="http://www.w3.org/1999/xlink" xmlns:xml="http://www.w3.org/XML/1998/namespace">
  <path fill="#0D0D0D" d="M156.466,78.233c0-11.869-2.66-23.125-7.41-33.213C136.542,18.442,109.503,0,78.233,0
	C35.096,0,0,35.096,0,78.233c0,43.139,35.096,78.234,78.233,78.234c19.983,0,38.237-7.535,52.081-19.908
	C146.351,122.222,156.466,101.389,156.466,78.233z" class="color c1"/>
  <path fill="#DDCF94" d="M129.804,132.343c-13.428,12.805-31.598,20.676-51.571,20.676c-41.235,0-74.783-33.549-74.783-74.785
	S36.998,3.449,78.233,3.449c29.512,0,55.083,17.185,67.241,42.073c4.83,9.886,7.543,20.987,7.543,32.711
	C153.017,99.495,144.099,118.714,129.804,132.343z" class="color c2"/>
</svg>