<svg version="1.1" id="图层_1" x="0px" y="0px" width="185.862px" height="142.126px" viewBox="0 0 185.862 142.126" enable-background="new 0 0 185.862 142.126" xml:space="preserve" xmlns="http://www.w3.org/2000/svg" xmlns:xlink="http://www.w3.org/1999/xlink" xmlns:xml="http://www.w3.org/XML/1998/namespace">
  <g>
    <path fill="#FFFFFF" d="M96.613,7.56c-14.442,0.791-29.383,2.541-41.667,9.607c-14.077,8.096-27.089,19.09-34.359,33.846
		C13.21,65.986,8.662,81.962,10.263,98.746c0.863,9.053,2.251,17.838,6.75,25.865c2.658,4.742,5.56,9.328,7.669,14.307
		c6.761-1.311,13.918-1.537,20.362-2.234c15.801-1.711,31.688-3.17,47.573-3.766c14.697-0.551,30.128-1.844,44.754,0.061
		c6.842,0.893,13.525,2.455,20.157,4.24c7.866-13.809,12.081-29.916,11.373-46.965C167.16,48.353,136.282,14.552,96.613,7.56z" class="color c1"/>
    <g>
      <path fill="#E45055" d="M90.166,0.07C42.417-1.864,2.083,36.72,0.078,86.246c-0.842,20.795,5.21,40.207,16.045,55.881
			c2.793-0.604,5.598-1.186,8.365-1.893c-7.724-13.648-11.885-29.686-11.196-46.697c1.91-47.182,40.334-83.938,85.822-82.096
			c26.451,1.07,49.447,14.971,63.703,35.682C148.827,20.152,121.847,1.353,90.166,0.07z" class="color c2"/>
    </g>
    <path fill="#E45055" d="M185.783,94.955c1.468-36.26-17.576-68.412-46.426-84.398c23.594,17.271,38.501,46.256,37.197,78.49
		c-0.692,17.092-5.86,32.9-14.27,46.268c3.924,0.953,7.611,1.924,11.047,2.887C180.663,125.498,185.142,110.777,185.783,94.955z" class="color c2"/>
  </g>
</svg>