<svg version="1.1" id="图层_1" x="0px" y="0px" width="243.652px" height="160.697px" viewBox="0 0 243.652 160.697" enable-background="new 0 0 243.652 160.697" xml:space="preserve" xmlns="http://www.w3.org/2000/svg" xmlns:xlink="http://www.w3.org/1999/xlink" xmlns:xml="http://www.w3.org/XML/1998/namespace">
  <path fill="#E7E3D8" d="M28.338,135.297c-7.3-4.2-10.6-10.2-15.2-17.2c-1.7-2.5-3-5.5-5.1-7.7s-5.3-3-6.8-5.9
	c-2.3-4.4-1.3-9.7,2.2-12.9c5.4-4.9,15.4-6.6,21.9-8.8c8-2.7,16.2-5.4,21.3-12.5c3.7-5.1,6.2-10.5,8.8-16.2
	c4.8-10,14.5-18.7,21.6-27.1c3.4-4,5.4-2.7,10.8-2.9c5.1-0.2,11.4-1.4,15.1-5.5c6.1-6.7-0.1-20.4,13.2-18.4
	c18.3,2.8,25.3,19.2,38.6,29.4c4.9,3.8,7.7,1.3,13.1,1c6.1-0.4,8.6,3.6,10.9,8.9c3.6,8.4,0.5,16.4-2.6,24.4
	c-1.5,3.8-4.7,13.5-2.2,17.1s11.5,2.5,15,2.2c8.9-0.7,17.6-3.2,26.5-4c4.3-0.4,10-1.7,14.2-0.5c5.4,1.6,12.9,7,13.9,13
	c1.3,6.9-8.9,12.6-13.6,16.3c-9.6,7.6-19.4,11.8-25.8,22.8c-3.8,6.4-6.6,12.9-13.2,16.6c-8.4,4.7-17.4,9.3-26.8,11.1
	c-9.3,1.8-18.5,2.2-28,2.2c-7.9,0-15.7-0.4-23.5-0.4c-6.3,0-12.8,0-18.7-2.3c-6.3-2.5-12.1-6.1-18.8-7.6c-8.3-1.8-17-2.7-25.2-4.9
	C42.338,143.397,35.138,139.297,28.338,135.297z" class="color c1"/>
</svg>