<svg version="1.1" id="图层_1" x="0px" y="0px" width="164.752px" height="131.581px" viewBox="0 0 164.752 131.581" enable-background="new 0 0 164.752 131.581" xml:space="preserve" xmlns="http://www.w3.org/2000/svg" xmlns:xlink="http://www.w3.org/1999/xlink" xmlns:xml="http://www.w3.org/XML/1998/namespace">
  <path fill="#D53D87" d="M0,65.791C0,59.066,1.341,52.5,3.998,46.183v39.219C1.341,79.083,0,72.518,0,65.791z M8.631,94.166
	c0.765,1.19,1.587,2.373,2.462,3.542V33.875c-0.875,1.17-1.698,2.353-2.462,3.543V94.166z M15.726,28.329v74.925
	c3.37,3.626,7.267,7.021,11.626,10.132V18.196C22.994,21.307,19.097,24.701,15.726,28.329z M31.985,116.478
	c2.602,1.62,5.334,3.136,8.164,4.525V10.579c-2.83,1.392-5.562,2.905-8.164,4.526V116.478z M44.783,123.134
	c2.436,1.043,4.968,2.01,7.571,2.89V5.56c-2.596,0.878-5.13,1.845-7.571,2.89V123.134z M56.988,127.476
	c4.47,1.289,9.131,2.312,13.908,3.054V1.054c-4.78,0.743-9.44,1.767-13.908,3.056V127.476z M75.529,131.153
	c1.479,0.169,2.992,0.312,4.529,0.428V0c-1.539,0.117-3.053,0.261-4.529,0.429V131.153z M164.752,65.791
	c0-6.725-1.341-13.291-3.999-19.608v39.219C163.411,79.083,164.752,72.518,164.752,65.791z M153.659,97.708
	c0.873-1.169,1.695-2.352,2.461-3.543V37.418c-0.766-1.19-1.587-2.373-2.461-3.543V97.708z M137.399,18.196v95.189
	c4.359-3.11,8.256-6.506,11.625-10.132V28.329C145.653,24.701,141.757,21.307,137.399,18.196z M124.603,121.003
	c2.83-1.39,5.561-2.905,8.163-4.525V15.105c-2.603-1.621-5.333-3.135-8.163-4.526V121.003z M112.397,126.023
	c2.603-0.88,5.136-1.847,7.571-2.89V8.449c-2.442-1.045-4.976-2.012-7.571-2.89V126.023z M93.855,130.529
	c4.778-0.742,9.439-1.765,13.909-3.054V4.109c-4.467-1.289-9.129-2.313-13.909-3.056V130.529z M84.692,131.581
	c1.537-0.116,3.05-0.259,4.529-0.428V0.429C87.745,0.261,86.231,0.117,84.692,0V131.581z" class="color c1"/>
</svg>