<svg version="1.1" id="图层_1" x="0px" y="0px" width="275.449px" height="275.419px" viewBox="0 0 275.449 275.419" enable-background="new 0 0 275.449 275.419" xml:space="preserve" xmlns="http://www.w3.org/2000/svg" xmlns:xlink="http://www.w3.org/1999/xlink" xmlns:xml="http://www.w3.org/XML/1998/namespace">
  <path fill="#ED7B22" d="M138.668,275.419c-0.711,0-1.293-0.57-1.306-1.285c-0.014-0.721,0.562-1.316,1.284-1.328l0.152,1.305
	l-0.107,1.309C138.684,275.419,138.676,275.419,138.668,275.419z M132.139,275.31c-0.016,0-0.031,0-0.047,0
	c-0.009,0-0.146-0.006-0.154-0.008c-0.721-0.037-1.274-0.654-1.234-1.373c0.037-0.723,0.656-1.283,1.373-1.236
	c0.717,0.037,1.334,0.648,1.302,1.367C133.347,274.759,132.832,275.31,132.139,275.31z M145.328,275.212
	c-0.689,0-1.266-0.539-1.303-1.236c-0.039-0.721,0.514-1.336,1.234-1.375l0.2,1.297l-0.061,1.313
	C145.375,275.212,145.352,275.212,145.328,275.212z M125.488,274.882c-0.037,0-0.076-0.002-0.113-0.008c0,0-0.132-0.01-0.133-0.01
	c-0.719-0.064-1.25-0.699-1.186-1.418s0.697-1.262,1.418-1.186c0.719,0.064,1.314,0.705,1.25,1.422
	C126.665,274.362,126.152,274.882,125.488,274.882z M151.969,274.687c-0.66,0-1.227-0.498-1.299-1.168
	c-0.076-0.717,0.443-1.363,1.16-1.439l0.27,1.287l0.01,1.313C152.063,274.685,152.015,274.687,151.969,274.687z M118.685,274.116
	l0.185-1.293l-0.289,1.279c-0.717-0.088-1.227-0.74-1.138-1.457c0.088-0.715,0.733-1.225,1.457-1.137l-0.03,1.314L118.685,274.116z
	 M158.576,273.839c-0.641,0-1.201-0.473-1.293-1.127c-0.1-0.715,0.398-1.375,1.113-1.477c0.705-0.104,1.431,0.381,1.538,1.09
	c0.106,0.709-0.313,1.363-1.021,1.475c-0.008,0.002-0.146,0.023-0.154,0.025C158.697,273.833,158.637,273.839,158.576,273.839z
	 M112.043,273.032l0.252-1.281l-0.359,1.262c-0.71-0.127-1.184-0.807-1.057-1.516c0.127-0.713,0.803-1.186,1.517-1.059l-0.101,1.313
	L112.043,273.032z M165.135,272.665c-0.6,0-1.141-0.418-1.275-1.027c-0.154-0.705,0.293-1.402,0.998-1.555
	c0.01-0.002,0.146-0.031,0.154-0.033c0.709-0.133,1.396,0.322,1.535,1.031c0.14,0.709-0.322,1.395-1.029,1.535l-0.254-1.283
	l0.152,1.303C165.32,272.655,165.229,272.665,165.135,272.665z M105.77,271.663c-0.094,0-0.193-0.012-0.291-0.035
	c-0.005-0.002-0.139-0.033-0.143-0.035c-0.701-0.176-1.127-0.885-0.952-1.586c0.176-0.699,0.887-1.121,1.585-0.949
	c0.697,0.174,1.186,0.895,1.017,1.592C106.84,271.249,106.349,271.663,105.77,271.663z M171.629,271.175
	c-0.584,0-1.115-0.395-1.266-0.984c-0.178-0.701,0.244-1.412,0.943-1.59c0.703-0.176,1.477,0.229,1.652,0.928
	c0.178,0.699-0.182,1.395-0.88,1.572l-0.126,0.033C171.844,271.161,171.734,271.175,171.629,271.175z M99.326,269.948
	c-0.113,0-0.232-0.016-0.35-0.051c-0.004-0.002-0.131-0.037-0.134-0.039c-0.691-0.205-1.087-0.932-0.88-1.625
	c0.203-0.693,0.931-1.086,1.624-0.881c0.689,0.205,1.147,0.947,0.944,1.641C100.363,269.565,99.881,269.948,99.326,269.948z
	 M178.041,269.364c-0.566,0-1.088-0.371-1.254-0.941c-0.201-0.693,0.197-1.42,0.891-1.621c0.684-0.197,1.47,0.17,1.678,0.857
	c0.207,0.686-0.113,1.391-0.797,1.605c-0.008,0.004-0.143,0.045-0.151,0.047C178.285,269.347,178.163,269.364,178.041,269.364z
	 M92.559,267.847l0.434-1.232l-0.537,1.197c-0.685-0.229-1.055-0.969-0.826-1.654c0.229-0.684,0.969-1.057,1.652-0.826l-0.289,1.283
	L92.559,267.847z M184.357,267.241c-0.531,0-1.03-0.326-1.227-0.854c-0.25-0.676,0.096-1.428,0.773-1.68l0.576,1.182l0.33,1.27
	C184.662,267.216,184.508,267.241,184.357,267.241z M86.715,265.575c-0.15,0-0.303-0.029-0.457-0.09
	c-0.006-0.002-0.134-0.053-0.141-0.057c-0.668-0.277-0.983-1.041-0.707-1.707c0.276-0.668,1.042-0.984,1.709-0.705
	c0.662,0.273,1.04,1.055,0.771,1.721C87.682,265.251,87.221,265.575,86.715,265.575z M190.547,264.817
	c-0.51,0-0.994-0.301-1.203-0.797c-0.283-0.666,0.029-1.434,0.693-1.715c0.665-0.277,1.491,0.006,1.772,0.67s0.03,1.406-0.634,1.688
	l-0.119,0.051C190.889,264.784,190.717,264.817,190.547,264.817z M80.58,262.927c-0.17,0-0.346-0.037-0.518-0.115
	c-0.002-0.004-0.123-0.059-0.126-0.061c-0.653-0.307-0.933-1.086-0.626-1.738c0.306-0.654,1.086-0.936,1.738-0.627
	c0.652,0.307,0.992,1.109,0.689,1.762C81.512,262.63,81.063,262.927,80.58,262.927z M196.611,262.091
	c-0.49,0-0.961-0.277-1.184-0.752c-0.307-0.652-0.027-1.43,0.627-1.738c0.648-0.309,1.48-0.057,1.793,0.59
	c0.311,0.646,0.1,1.395-0.545,1.711c-0.006,0.004-0.129,0.063-0.136,0.064C196.988,262.052,196.797,262.091,196.611,262.091z
	 M74.586,259.979c-0.185,0-0.375-0.045-0.557-0.137c-0.01-0.006-0.135-0.07-0.143-0.074c-0.636-0.344-0.873-1.137-0.529-1.771
	c0.343-0.637,1.139-0.871,1.77-0.529c0.631,0.34,0.928,1.154,0.596,1.787C75.484,259.708,75.049,259.979,74.586,259.979z
	 M202.537,259.071c-0.46,0-0.907-0.244-1.146-0.676c-0.349-0.633-0.118-1.428,0.515-1.775l0.744,1.082l0.517,1.207
	C202.967,259.021,202.75,259.071,202.537,259.071z M68.744,256.743c-0.209,0-0.422-0.055-0.623-0.174l-0.113-0.066
	c-0.62-0.369-0.826-1.17-0.458-1.791s1.169-0.826,1.79-0.459c0.621,0.369,0.883,1.203,0.516,1.824
	C69.605,256.499,69.184,256.743,68.744,256.743z M208.311,255.763c-0.44,0-0.869-0.221-1.117-0.623
	c-0.377-0.617-0.182-1.422,0.434-1.799l0.793,1.049l0.572,1.182C208.779,255.702,208.543,255.763,208.311,255.763z M63.069,253.228
	c-0.224,0-0.451-0.064-0.661-0.199c-0.008-0.006-0.127-0.084-0.137-0.09c-0.596-0.406-0.75-1.219-0.344-1.816
	c0.406-0.596,1.219-0.752,1.816-0.344c0.591,0.402,0.803,1.242,0.408,1.84C63.895,253.005,63.487,253.228,63.069,253.228z
	 M213.917,252.177c-0.424,0-0.841-0.207-1.093-0.588c-0.396-0.602-0.23-1.412,0.371-1.811c0.6-0.395,1.461-0.27,1.859,0.328
	c0.4,0.596,0.298,1.365-0.295,1.771c-0.006,0.004-0.119,0.078-0.125,0.084C214.414,252.106,214.164,252.177,213.917,252.177z
	 M57.574,249.438c-0.242,0-0.487-0.074-0.707-0.234c-0.006-0.004-0.117-0.084-0.121-0.086c-0.58-0.43-0.703-1.248-0.275-1.828
	c0.43-0.582,1.248-0.703,1.829-0.273c0.577,0.426,0.756,1.277,0.333,1.859C58.368,249.235,57.975,249.438,57.574,249.438z
	 M219.344,248.321c-0.4,0-0.795-0.184-1.053-0.529c-0.429-0.582-0.305-1.4,0.275-1.83c0.576-0.426,1.445-0.346,1.875,0.23
	c0.431,0.576,0.367,1.354-0.207,1.787c-0.004,0.002-0.11,0.082-0.115,0.086C219.887,248.237,219.614,248.321,219.344,248.321z
	 M52.33,245.403c-0.291,0-0.584-0.098-0.826-0.297l0.827-1.012l-0.905,0.951c-0.568-0.443-0.672-1.266-0.229-1.836
	c0.443-0.566,1.264-0.672,1.834-0.229c0.008,0.006,0.119,0.096,0.127,0.102c0.559,0.457,0.641,1.281,0.184,1.84
	C53.084,245.239,52.709,245.403,52.33,245.403z M224.578,244.204c-0.368,0-0.734-0.152-0.992-0.453
	c-0.471-0.549-0.408-1.373,0.139-1.844c0.008-0.008,0.117-0.098,0.125-0.105c0.559-0.455,1.383-0.373,1.839,0.186
	c0.458,0.559,0.375,1.383-0.184,1.838l-0.828-1.01l0.753,1.072C225.184,244.101,224.88,244.204,224.578,244.204z M46.373,240.774
	l0.864-0.979l-0.962,0.893c-0.541-0.477-0.594-1.303-0.117-1.844c0.478-0.543,1.302-0.594,1.846-0.117l-0.767,1.068L46.373,240.774z
	 M229.606,239.837c-0.351,0-0.7-0.141-0.958-0.418c-0.49-0.529-0.461-1.355,0.068-1.846l0.986,0.869l0.793,1.045
	C230.244,239.722,229.926,239.837,229.606,239.837z M41.447,236.188l0.913-0.934l-1.006,0.842c-0.517-0.502-0.526-1.33-0.022-1.846
	c0.503-0.518,1.33-0.529,1.848-0.023l-0.819,1.027L41.447,236.188z M234.42,235.229c-0.33,0-0.658-0.123-0.913-0.371
	c-0.517-0.502-0.527-1.332-0.022-1.848l1.026,0.82l0.845,1.004C235.1,235.099,234.758,235.229,234.42,235.229z M37.642,231.765
	c-0.325,0-0.644-0.129-0.89-0.393c0-0.002-0.09-0.096-0.09-0.098c-0.49-0.527-0.458-1.355,0.071-1.848
	c0.528-0.49,1.356-0.459,1.847,0.072c0.49,0.529,0.504,1.402-0.025,1.895C38.291,231.638,37.965,231.765,37.642,231.765z
	 M239.004,230.394c-0.308,0-0.617-0.107-0.865-0.326c-0.54-0.479-0.592-1.305-0.113-1.846l1.066,0.77l0.893,0.961
	C239.725,230.245,239.365,230.394,239.004,230.394z M33.227,226.771c-0.34,0-0.672-0.139-0.92-0.426
	c-0.006-0.01-0.097-0.117-0.104-0.125c-0.457-0.559-0.375-1.383,0.184-1.84c0.559-0.453,1.381-0.373,1.839,0.186
	c0.452,0.553,0.419,1.418-0.13,1.877C33.838,226.659,33.529,226.771,33.227,226.771z M243.349,225.341
	c-0.29,0-0.583-0.098-0.826-0.297c-0.56-0.455-0.642-1.281-0.185-1.84c0.457-0.557,1.322-0.691,1.881-0.232
	c0.559,0.457,0.683,1.229,0.225,1.787l-0.082,0.102C244.103,225.177,243.728,225.341,243.349,225.341z M28.092,221.083l1.043-0.787
	l-1.11,0.697c-0.444-0.57-0.341-1.391,0.229-1.834c0.569-0.443,1.391-0.34,1.833,0.23l-0.952,0.906L28.092,221.083z
	 M247.443,220.081c-0.273,0-0.551-0.088-0.787-0.266c-0.576-0.436-0.689-1.254-0.254-1.83c0.434-0.574,1.289-0.74,1.863-0.313
	c0.576,0.432,0.734,1.193,0.309,1.773c-0.004,0.002-0.084,0.111-0.088,0.115C248.23,219.901,247.84,220.081,247.443,220.081z
	 M24.15,215.638l1.08-0.734l-1.146,0.639c-0.412-0.592-0.266-1.408,0.326-1.818c0.592-0.412,1.408-0.27,1.818,0.326l-0.998,0.854
	L24.15,215.638z M251.278,214.626c-0.243,0-0.488-0.068-0.707-0.209c-0.606-0.393-0.78-1.201-0.39-1.807
	c0.007-0.01,0.084-0.127,0.092-0.137c0.404-0.596,1.217-0.75,1.816-0.344c0.596,0.404,0.75,1.219,0.344,1.814l-1.08-0.734
	l1.024,0.816C252.129,214.415,251.707,214.626,251.278,214.626z M21.52,210.597c-0.408,0-0.797-0.195-1.035-0.576
	c-0.006-0.01-0.08-0.127-0.084-0.139c-0.369-0.621-0.162-1.422,0.459-1.789c0.623-0.367,1.422-0.162,1.79,0.459
	c0.365,0.615,0.199,1.465-0.411,1.838C22.01,210.528,21.762,210.597,21.52,210.597z M254.844,208.989
	c-0.232,0-0.469-0.063-0.682-0.193c-0.615-0.375-0.809-1.182-0.432-1.797c0.375-0.613,1.207-0.863,1.823-0.494
	c0.614,0.371,0.85,1.111,0.483,1.73c-0.002,0.004-0.074,0.123-0.076,0.129C255.713,208.767,255.283,208.989,254.844,208.989z
	 M18.234,204.892c-0.466,0-0.916-0.248-1.152-0.686l1.15-0.621l-1.197,0.535c-0.357-0.627-0.141-1.426,0.486-1.785
	c0.628-0.357,1.424-0.139,1.783,0.488c0.006,0.008,0.072,0.133,0.078,0.141c0.342,0.635,0.105,1.428-0.529,1.771
	C18.656,204.841,18.443,204.892,18.234,204.892z M258.131,203.183c-0.199,0-0.402-0.047-0.592-0.143
	c-0.643-0.328-0.898-1.115-0.57-1.76c0.004-0.008,0.07-0.133,0.074-0.141c0.344-0.637,1.138-0.875,1.771-0.529
	c0.635,0.342,0.872,1.135,0.529,1.77l-1.15-0.621l1.104,0.711C259.065,202.923,258.607,203.183,258.131,203.183z M15.089,198.948
	c-0.457,0-0.884-0.24-1.104-0.688l-0.057-0.115c-0.317-0.65-0.051-1.432,0.598-1.75c0.649-0.318,1.43-0.049,1.75,0.598
	c0.316,0.648,0.078,1.49-0.57,1.807C15.504,198.899,15.293,198.948,15.089,198.948z M261.13,197.222
	c-0.193,0-0.39-0.045-0.575-0.133c-0.647-0.318-0.915-1.102-0.598-1.75c0.314-0.643,1.119-0.969,1.764-0.664
	c0.646,0.309,0.953,1.018,0.652,1.668c-0.004,0.01-0.064,0.137-0.068,0.146C262.077,196.952,261.613,197.222,261.13,197.222z
	 M11.174,192.155l1.203-0.508l-1.246,0.408c-0.293-0.66,0.007-1.432,0.666-1.725c0.66-0.291,1.432,0.008,1.725,0.668l-1.145,0.648
	L11.174,192.155z M263.834,191.116c-0.163,0-0.328-0.031-0.49-0.096c-0.668-0.268-0.992-1.031-0.723-1.701l1.263,0.369l1.162,0.611
	C264.84,190.808,264.351,191.116,263.834,191.116z M9.834,186.733c-0.506,0-0.968-0.283-1.16-0.793
	c-0.001-0.002-0.047-0.127-0.047-0.129c-0.252-0.678,0.094-1.428,0.771-1.68c0.675-0.252,1.429,0.094,1.68,0.771
	c0.249,0.676-0.071,1.488-0.746,1.74C10.166,186.704,9.998,186.733,9.834,186.733z M266.233,184.884
	c-0.153,0-0.31-0.025-0.462-0.082c-0.676-0.256-1.016-1.012-0.762-1.686c0.254-0.67,1.02-1.072,1.693-0.828
	c0.672,0.244,1.045,0.924,0.807,1.6c-0.002,0.01-0.051,0.143-0.054,0.15C267.258,184.562,266.761,184.884,266.233,184.884z
	 M6.47,179.577l1.247-0.393l-1.282,0.281c-0.224-0.686,0.149-1.424,0.835-1.648c0.688-0.225,1.425,0.15,1.649,0.834l-1.202,0.533
	L6.47,179.577z M268.324,178.54c-0.129,0-0.262-0.02-0.393-0.061c-0.688-0.217-1.071-0.951-0.854-1.639
	c0.215-0.684,0.959-1.131,1.645-0.92c0.686,0.207,1.096,0.865,0.895,1.551c-0.002,0.01-0.043,0.145-0.047,0.154
	C269.396,178.183,268.879,178.54,268.324,178.54z M5.798,174.036c-0.558,0-1.055-0.336-1.21-0.902
	c-0.002-0.008-0.038-0.143-0.039-0.148c-0.178-0.699,0.244-1.412,0.943-1.59c0.701-0.18,1.412,0.246,1.589,0.943
	c0.178,0.697-0.222,1.467-0.916,1.65C6.042,174.022,5.918,174.036,5.798,174.036z M270.096,172.116c-0.098,0-0.197-0.01-0.297-0.033
	c-0.703-0.164-1.141-0.865-0.977-1.568c0.002-0.01,0.035-0.146,0.037-0.154c0.178-0.699,0.888-1.121,1.59-0.943
	c0.699,0.178,1.121,0.889,0.944,1.588l-1.267-0.322l1.242,0.422C271.229,171.71,270.689,172.116,270.096,172.116z M3.021,166.583
	l1.278-0.273l-1.304,0.15c-0.154-0.705,0.293-1.402,0.997-1.555c0.705-0.154,1.402,0.293,1.556,0.998l-1.249,0.406L3.021,166.583z
	 M271.55,165.614c-0.086,0-0.173-0.008-0.259-0.025c-0.707-0.143-1.166-0.83-1.025-1.537c0.143-0.707,0.839-1.23,1.549-1.09
	c0.707,0.139,1.18,0.762,1.041,1.469c0,0.002-0.025,0.131-0.025,0.133C272.705,165.185,272.158,165.614,271.55,165.614z
	 M3.033,161.005c-0.619,0-1.154-0.402-1.256-1.035l-0.021-0.129c-0.114-0.713,0.37-1.385,1.083-1.498
	c0.713-0.115,1.383,0.371,1.498,1.082c0.115,0.713-0.361,1.449-1.072,1.563C3.188,160.999,3.109,161.005,3.033,161.005z
	 M272.681,159.05c-0.067,0-0.136-0.006-0.206-0.018c-0.713-0.113-1.199-0.781-1.086-1.494c0.112-0.709,0.789-1.264,1.494-1.152
	c0.711,0.105,1.211,0.701,1.11,1.412c-0.003,0.006-0.022,0.141-0.022,0.148C273.869,158.591,273.313,159.05,272.681,159.05z
	 M0.859,153.302l1.301-0.141l-1.313,0.031c-0.088-0.719,0.422-1.369,1.138-1.457c0.731-0.086,1.37,0.422,1.457,1.137l-1.282,0.289
	L0.859,153.302z M273.49,152.437c-0.047,0-0.094-0.004-0.142-0.008c-0.718-0.076-1.236-0.723-1.159-1.439
	c0.076-0.713,0.713-1.301,1.434-1.227c0.712,0.068,1.243,0.637,1.18,1.35c0,0.01-0.014,0.146-0.014,0.156
	C274.717,151.938,274.148,152.437,273.49,152.437z M1.559,147.767c-0.677,0-1.241-0.467-1.289-1.15c0-0.008-0.01-0.144-0.01-0.151
	c-0.039-0.722,0.514-1.337,1.236-1.375c0.729-0.053,1.335,0.515,1.373,1.235c0.039,0.717-0.502,1.395-1.219,1.439
	C1.619,147.767,1.589,147.767,1.559,147.767z M273.977,145.792c-0.016,0-0.031-0.002-0.047-0.002
	c-0.721-0.025-1.285-0.632-1.26-1.354l1.313-0.083l1.301,0.177C275.258,145.236,274.678,145.792,273.977,145.792z M0.002,139.89
	l1.307-0.021L0,139.761c-0.013-0.722,0.563-1.318,1.283-1.33c0.674-0.053,1.317,0.561,1.33,1.283l-1.305,0.154L0.002,139.89z
	 M274.143,139.132c-0.723,0-1.309-0.586-1.309-1.307c0-0.723,0.586-1.373,1.309-1.373c0.721,0,1.307,0.52,1.307,1.24v0.133
	C275.449,138.546,274.863,139.132,274.143,139.132z M274.076,134.787c-0.709,0-1.293-0.569-1.305-1.283
	c-0.014-0.718,0.553-1.375,1.27-1.395c0.756-0.031,1.313,0.479,1.34,1.195c0,0.008,0.003,0.146,0.003,0.152
	c0.013,0.722-0.562,1.318-1.283,1.33C274.094,134.787,274.085,134.787,274.076,134.787z M1.363,134.447
	c-0.014,0-0.029-0.001-0.043-0.001c-0.721-0.026-1.287-0.567-1.262-1.288l0.004-0.131c0.027-0.723,0.637-1.291,1.354-1.258
	c0.72,0.025,1.284,0.631,1.259,1.352C2.65,133.828,2.065,134.447,1.363,134.447z M273.713,128.13c-0.679,0-1.252-0.521-1.301-1.21
	c-0.052-0.717,0.48-1.403,1.195-1.462c0.717-0.056,1.338,0.408,1.4,1.125c0,0.006,0.011,0.135,0.012,0.141
	c0.051,0.721-0.49,1.352-1.211,1.402C273.776,128.128,273.744,128.13,273.713,128.13z M1.74,126.552l-1.293-0.223
	c0.051-0.721,0.664-1.271,1.397-1.211c0.72,0.053,1.261,0.677,1.21,1.396L1.74,126.552z M273.029,121.507
	c-0.641,0-1.2-0.472-1.293-1.125l1.277-0.312l1.297-0.162l-1.297,0.162l1.313-0.052c0.1,0.715-0.398,1.375-1.113,1.477
	C273.151,121.503,273.09,121.507,273.029,121.507z M2.433,121.167c-0.052,0-0.105-0.003-0.157-0.01
	c-0.713-0.094-1.223-0.681-1.134-1.393c0.001-0.007,0.019-0.144,0.02-0.148c0.101-0.716,0.763-1.21,1.476-1.113
	c0.716,0.1,1.213,0.761,1.113,1.476C3.658,120.637,3.082,121.167,2.433,121.167z M272.023,114.922c-0.622,0-1.173-0.445-1.285-1.078
	c-0.127-0.71,0.334-1.454,1.045-1.581c0.709-0.13,1.378,0.283,1.505,0.993l0.022,0.128c0.127,0.711-0.346,1.391-1.057,1.517
	C272.176,114.915,272.1,114.922,272.023,114.922z M3.45,114.584c-0.068,0-0.14-0.005-0.21-0.018
	c-0.71-0.127-1.194-0.742-1.067-1.453l0.022-0.129c0.126-0.71,0.802-1.183,1.517-1.056c0.71,0.126,1.185,0.805,1.057,1.517
	C4.654,114.084,4.083,114.584,3.45,114.584z M270.693,108.394c-0.602,0-1.144-0.419-1.275-1.033c-0.15-0.7,0.277-1.455,0.977-1.613
	c0.7-0.154,1.379,0.213,1.543,0.912c0.004,0.009,0.035,0.145,0.037,0.153c0.15,0.706-0.3,1.4-1.006,1.551
	C270.877,108.385,270.785,108.394,270.693,108.394z M6.104,106.986l-1.303-0.168l-1.242-0.423c0.162-0.703,0.859-1.141,1.568-0.978
	C5.828,105.581,6.266,106.284,6.104,106.986z M269.047,101.938c-0.564,0-1.085-0.368-1.252-0.936
	c-0.002-0.009-0.041-0.145-0.044-0.153c-0.19-0.696,0.222-1.416,0.917-1.606c0.693-0.188,1.415,0.221,1.605,0.917l-1.262,0.344
	l1.289-0.246c0.205,0.693-0.189,1.42-0.881,1.624C269.295,101.919,269.17,101.938,269.047,101.938z M7.757,100.59l-1.296-0.225
	L5.239,99.89c0.192-0.696,0.911-1.106,1.609-0.91C7.543,99.174,7.951,99.894,7.757,100.59z M267.084,95.572
	c-0.547,0-1.058-0.347-1.24-0.895c-0.229-0.685,0.121-1.486,0.807-1.715c0.682-0.228,1.404,0.08,1.632,0.766l0.042,0.123
	c0.228,0.685-0.143,1.425-0.828,1.653C267.359,95.551,267.221,95.572,267.084,95.572z M8.426,95.241
	c-0.13,0-0.262-0.021-0.389-0.064c-0.68-0.232-1.065-0.907-0.838-1.588c0.002-0.007,0.047-0.138,0.049-0.145
	c0.24-0.681,0.985-1.04,1.666-0.799c0.682,0.241,1.039,0.986,0.801,1.667C9.521,94.861,8.983,95.241,8.426,95.241z M264.809,89.309
	c-0.527,0-1.023-0.323-1.223-0.846c-0.252-0.671,0.059-1.483,0.729-1.742c0.668-0.261,1.398,0.009,1.662,0.677
	c0.003,0.006,0.054,0.135,0.056,0.142c0.255,0.675-0.085,1.429-0.761,1.684C265.119,89.282,264.963,89.309,264.809,89.309z
	 M10.72,88.969c-0.149,0-0.3-0.027-0.445-0.084c-0.671-0.267-1.024-0.965-0.758-1.636l0.049-0.121
	c0.267-0.671,1.026-0.998,1.696-0.734c0.672,0.265,1,1.026,0.734,1.696C11.787,88.616,11.261,88.969,10.72,88.969z M262.236,83.179
	c-0.489,0-0.959-0.277-1.182-0.751c-0.005-0.008-0.063-0.136-0.067-0.145c-0.292-0.662,0.007-1.433,0.667-1.725
	c0.658-0.293,1.432,0.006,1.725,0.667l-1.195,0.528l1.235-0.437c0.308,0.653,0.026,1.431-0.626,1.738
	C262.613,83.14,262.423,83.179,262.236,83.179z M13.318,82.818c-0.169,0-0.338-0.035-0.499-0.107
	c-0.653-0.296-0.975-1.004-0.685-1.66c0.004-0.005,0.061-0.132,0.063-0.139c0.304-0.655,1.08-0.938,1.735-0.639
	c0.655,0.302,0.94,1.078,0.64,1.735C14.345,82.5,13.836,82.818,13.318,82.818z M259.365,77.181c-0.482,0-0.946-0.27-1.174-0.731
	c-0.315-0.644-0.084-1.477,0.555-1.801c0.636-0.321,1.39-0.13,1.719,0.506c0.006,0.009,0.069,0.134,0.074,0.144
	c0.316,0.648,0.049,1.431-0.6,1.749C259.755,77.137,259.559,77.181,259.365,77.181z M16.217,76.804
	c-0.189,0-0.381-0.042-0.558-0.134c-0.64-0.33-0.923-1.056-0.597-1.697c0.002-0.003,0.064-0.122,0.065-0.125
	c0.332-0.641,1.121-0.893,1.762-0.557c0.642,0.333,0.891,1.122,0.557,1.763C17.207,76.516,16.713,76.804,16.217,76.804z
	 M256.204,71.33c-0.451,0-0.89-0.234-1.132-0.652l1.064-0.77l1.135-0.649l-1.135,0.649l1.196-0.542
	c0.362,0.625,0.149,1.425-0.476,1.786C256.651,71.272,256.426,71.33,256.204,71.33z M19.407,70.942
	c-0.211,0-0.421-0.051-0.612-0.161c-0.623-0.358-0.872-1.099-0.515-1.724c0.001-0.002,0.067-0.119,0.069-0.121
	c0.361-0.623,1.159-0.84,1.787-0.474c0.624,0.361,0.836,1.162,0.473,1.786C20.359,70.68,19.883,70.942,19.407,70.942z
	 M252.758,65.635c-0.432,0-0.854-0.213-1.104-0.604c-0.387-0.607-0.246-1.467,0.36-1.857c0.608-0.391,1.377-0.271,1.77,0.335
	c0.001,0.002,0.073,0.114,0.074,0.116c0.389,0.609,0.21,1.417-0.397,1.805C253.242,65.568,252.999,65.635,252.758,65.635z
	 M24.063,64.59l-1.178-0.583l-1.037-0.802c0.379-0.613,1.186-0.8,1.8-0.416C24.26,63.172,24.446,63.979,24.063,64.59z
	 M249.037,60.116c-0.412,0-0.815-0.193-1.07-0.556c-0.412-0.589-0.312-1.454,0.275-1.87c0.586-0.418,1.361-0.334,1.78,0.25
	c0.003,0.003,0.081,0.113,0.084,0.118c0.414,0.59,0.271,1.405-0.318,1.82C249.56,60.039,249.297,60.116,249.037,60.116z
	 M27.773,59.134l-1.146-0.646l-0.994-0.857c0.416-0.591,1.232-0.732,1.82-0.318C28.045,57.728,28.188,58.543,27.773,59.134z
	 M245.052,54.782c-0.386,0-0.766-0.17-1.024-0.493l0.943-0.917l1.031-0.802l-1.031,0.802l1.104-0.709
	c0.449,0.564,0.355,1.386-0.209,1.835C245.624,54.689,245.336,54.782,245.052,54.782z M30.639,54.396
	c-0.277,0-0.553-0.084-0.78-0.267c-0.56-0.446-0.696-1.208-0.256-1.772c0.006-0.009,0.095-0.119,0.101-0.129
	c0.458-0.558,1.281-0.639,1.839-0.183c0.558,0.457,0.642,1.28,0.184,1.838C31.457,54.214,31.046,54.396,30.639,54.396z
	 M240.811,49.646c-0.361,0-0.721-0.149-0.98-0.441l0.895-0.965l0.99-0.852l-0.99,0.852l1.064-0.765
	c0.479,0.54,0.428,1.366-0.113,1.843C241.428,49.54,241.118,49.646,240.811,49.646z M34.905,49.269
	c-0.302,0-0.599-0.098-0.835-0.305c-0.536-0.474-0.635-1.241-0.168-1.783c0.008-0.009,0.101-0.115,0.106-0.123
	c0.484-0.535,1.313-0.577,1.847-0.093c0.535,0.484,0.576,1.311,0.093,1.846C35.679,49.109,35.29,49.269,34.905,49.269z
	 M236.324,44.722c-0.34,0-0.68-0.132-0.936-0.395l0.846-1.007l0.947-0.9l-0.947,0.9l1.025-0.818c0.504,0.517,0.493,1.345-0.023,1.85
	C236.982,44.598,236.654,44.722,236.324,44.722z M39.415,44.357c-0.321,0-0.64-0.11-0.88-0.343
	c-0.519-0.499-0.582-1.275-0.086-1.796c0.003-0.003,0.098-0.102,0.102-0.106c0.506-0.516,1.332-0.526,1.848-0.022
	c0.517,0.504,0.527,1.333,0.023,1.849C40.154,44.212,39.782,44.357,39.415,44.357z M231.604,40.021c-0.319,0-0.639-0.116-0.89-0.35
	l0.794-1.048l0.901-0.946l-0.901,0.946l0.984-0.867c0.529,0.49,0.56,1.317,0.069,1.847C232.304,39.88,231.953,40.021,231.604,40.021
	z M44.158,39.67c-0.346,0-0.686-0.126-0.932-0.388c-0.492-0.524-0.518-1.303,0.002-1.797c0.006-0.005,0.104-0.098,0.107-0.101
	c0.528-0.492,1.354-0.463,1.848,0.068c0.49,0.529,0.461,1.356-0.068,1.847C44.852,39.544,44.502,39.67,44.158,39.67z
	 M226.657,35.552c-0.302,0-0.604-0.104-0.851-0.316c-0.549-0.472-0.66-1.339-0.188-1.886c0.469-0.548,1.244-0.651,1.793-0.181
	l0.1,0.084c0.546,0.471,0.607,1.295,0.137,1.843C227.391,35.398,227.025,35.552,226.657,35.552z M49.123,35.22
	c-0.37,0-0.734-0.144-0.982-0.436c-0.466-0.548-0.452-1.326,0.094-1.795c0.004-0.003,0.105-0.091,0.111-0.094
	c0.553-0.464,1.377-0.393,1.84,0.159c0.465,0.552,0.395,1.376-0.158,1.84C49.771,35.111,49.445,35.22,49.123,35.22z M221.502,31.328
	c-0.281,0-0.563-0.09-0.802-0.276c-0.571-0.442-0.726-1.303-0.281-1.874c0.441-0.57,1.213-0.713,1.782-0.269l0.104,0.08
	c0.57,0.444,0.672,1.265,0.229,1.834C222.275,31.154,221.891,31.328,221.502,31.328z M54.297,31.019
	c-0.395,0-0.782-0.164-1.031-0.488c-0.438-0.57-0.384-1.346,0.184-1.787c0.004-0.004,0.112-0.087,0.117-0.091
	c0.574-0.434,1.396-0.32,1.831,0.254c0.435,0.576,0.321,1.396-0.256,1.831C54.896,30.924,54.594,31.019,54.297,31.019z
	 M216.143,27.359c-0.256,0-0.517-0.076-0.744-0.234l0.639-1.149l0.752-1.069l-0.752,1.069l0.854-0.997
	c0.592,0.413,0.738,1.227,0.326,1.819C216.963,27.163,216.557,27.359,216.143,27.359z M59.666,27.073
	c-0.416,0-0.824-0.181-1.072-0.533c-0.409-0.586-0.325-1.357,0.257-1.774c0.009-0.007,0.126-0.087,0.134-0.092
	c0.596-0.408,1.41-0.253,1.815,0.344c0.406,0.597,0.251,1.41-0.345,1.815C60.22,26.994,59.941,27.073,59.666,27.073z
	 M210.596,23.654c-0.242,0-0.487-0.068-0.707-0.209c-0.604-0.39-0.834-1.227-0.449-1.833c0.387-0.606,1.131-0.827,1.74-0.441
	c0.006,0.003,0.121,0.076,0.127,0.079c0.607,0.392,0.781,1.201,0.389,1.807C211.445,23.443,211.025,23.654,210.596,23.654z
	 M65.977,23.174l-0.818-1.028l-0.598-1.168c0.604-0.394,1.414-0.219,1.807,0.39C66.758,21.974,66.584,22.783,65.977,23.174z
	 M204.875,20.226c-0.219,0-0.441-0.056-0.646-0.173c-0.625-0.356-0.9-1.184-0.546-1.811c0.354-0.625,1.095-0.881,1.72-0.529
	c0.003,0.002,0.119,0.068,0.123,0.07c0.627,0.357,0.844,1.157,0.486,1.783C205.771,19.989,205.33,20.226,204.875,20.226z
	 M70.947,19.992c-0.467,0-0.924-0.227-1.158-0.647c-0.348-0.627-0.184-1.383,0.438-1.738c0.01-0.004,0.132-0.074,0.141-0.079
	c0.635-0.343,1.428-0.105,1.771,0.531c0.342,0.633,0.105,1.426-0.529,1.77C71.404,19.939,71.175,19.992,70.947,19.992z
	 M198.992,17.08c-0.193,0-0.389-0.043-0.575-0.134l0.458-1.233l0.594-1.165l-0.594,1.165l0.693-1.115
	c0.648,0.318,0.916,1.102,0.598,1.749C199.939,16.81,199.475,17.08,198.992,17.08z M76.75,16.926c-0.482,0-0.947-0.269-1.176-0.731
	c-0.316-0.648-0.049-1.431,0.6-1.749l0.574,1.173l-0.486-1.218c0.64-0.333,1.43-0.083,1.764,0.557
	c0.333,0.641,0.084,1.43-0.557,1.762c-0.01,0.005-0.135,0.068-0.145,0.074C77.139,16.884,76.943,16.926,76.75,16.926z
	 M192.959,14.225c-0.177,0-0.357-0.036-0.528-0.112c-0.66-0.292-1.019-1.091-0.727-1.75c0.292-0.66,1.005-0.984,1.665-0.693
	l0.119,0.052c0.659,0.292,0.958,1.064,0.666,1.725C193.939,13.935,193.461,14.225,192.959,14.225z M82.856,14.05
	c-0.514,0-1.016-0.278-1.229-0.763c-0.286-0.66-0.048-1.401,0.61-1.693c0.004-0.001,0.127-0.055,0.13-0.056
	c0.666-0.286,1.432,0.019,1.718,0.682c0.285,0.663-0.02,1.432-0.682,1.718C83.229,14.014,83.041,14.05,82.856,14.05z M186.785,11.67
	c-0.155,0-0.314-0.028-0.469-0.089c-0.67-0.261-1.064-1.038-0.808-1.709c0.259-0.672,0.95-1.033,1.621-0.779
	c0.004,0.002,0.097,0.038,0.103,0.04c0.672,0.264,1.021,1.026,0.758,1.699C187.789,11.35,187.303,11.67,186.785,11.67z
	 M89.516,11.429l-0.604-1.168l-0.358-1.262c0.668-0.262,1.429,0.062,1.696,0.734C90.516,10.402,90.187,11.164,89.516,11.429z
	 M180.502,9.422c-0.135,0-0.271-0.021-0.407-0.065l0.282-1.284l0.413-1.24l-0.413,1.24l0.531-1.2
	c0.687,0.225,1.061,0.962,0.836,1.648C181.563,9.072,181.052,9.422,180.502,9.422z M95.297,9.299c-0.563,0-1.109-0.339-1.287-0.887
	c-0.221-0.683,0.088-1.396,0.77-1.623c0.006-0.002,0.137-0.045,0.144-0.048c0.688-0.22,1.423,0.167,1.64,0.855
	c0.217,0.688-0.166,1.422-0.855,1.639C95.574,9.278,95.435,9.299,95.297,9.299z M174.125,7.489c-0.115,0-0.233-0.017-0.35-0.049
	c-0.695-0.191-1.164-0.928-0.974-1.623c0.192-0.695,0.844-1.113,1.542-0.932c0,0.001,0.129,0.037,0.131,0.037
	c0.695,0.194,1.103,0.914,0.908,1.609C175.223,7.109,174.697,7.489,174.125,7.489z M101.685,7.385c-0.587,0-1.152-0.369-1.31-0.947
	c-0.189-0.697,0.156-1.398,0.854-1.588l0.126-0.035c0.692-0.191,1.415,0.221,1.606,0.918c0.188,0.696-0.222,1.415-0.918,1.604
	C101.926,7.37,101.804,7.385,101.685,7.385z M167.662,5.874c-0.099,0-0.2-0.012-0.301-0.036c-0.697-0.165-1.197-0.874-1.039-1.573
	c0.158-0.699,0.789-1.153,1.484-1.004c0.01,0.002,0.146,0.031,0.154,0.033c0.703,0.167,1.139,0.871,0.973,1.573
	C168.791,5.469,168.254,5.874,167.662,5.874z M108.038,5.815c-0.603,0-1.145-0.42-1.276-1.034c-0.15-0.706,0.299-1.4,1.004-1.551
	l0.273,1.277l-0.172-1.3c0.706-0.167,1.405,0.27,1.572,0.972c0.166,0.702-0.27,1.406-0.973,1.572
	c-0.008,0.003-0.145,0.033-0.154,0.035C108.221,5.807,108.129,5.815,108.038,5.815z M161.127,4.58c-0.068,0-0.139-0.007-0.209-0.018
	l0.078-1.312l0.23-1.288l-0.23,1.288l0.338-1.269c0.711,0.115,1.196,0.785,1.082,1.498C162.313,4.122,161.758,4.58,161.127,4.58z
	 M114.699,4.511c-0.637,0-1.238-0.441-1.347-1.077c-0.119-0.708,0.288-1.37,0.995-1.496c0.007-0.001,0.144-0.025,0.15-0.026
	c0.713-0.116,1.383,0.372,1.498,1.084c0.115,0.711-0.37,1.382-1.082,1.497C114.842,4.506,114.771,4.511,114.699,4.511z
	 M154.535,3.604c-0.053,0-0.105-0.003-0.16-0.009l0.03-1.313l0.162-1.296l-0.162,1.296l0.288-1.282
	c0.717,0.089,1.226,0.741,1.139,1.458C155.75,3.119,155.187,3.604,154.535,3.604z M121.295,3.557c-0.662,0-1.282-0.485-1.359-1.15
	c-0.082-0.712,0.361-1.349,1.072-1.438c0.008-0.002,0.146-0.018,0.154-0.019c0.725-0.075,1.361,0.445,1.438,1.163
	c0.074,0.718-0.447,1.361-1.164,1.437C121.389,3.554,121.342,3.557,121.295,3.557z M147.906,2.952c-0.031,0-0.063-0.002-0.096-0.004
	c-0.719-0.051-1.326-0.68-1.275-1.399c0.051-0.719,0.611-1.278,1.33-1.216c0,0,0.132,0.01,0.133,0.01
	c0.719,0.051,1.261,0.677,1.209,1.396C149.158,2.427,148.585,2.952,147.906,2.952z M128.023,2.92l-0.223-1.294l0.037-1.313
	c0.737-0.041,1.345,0.491,1.396,1.211C129.285,2.243,128.744,2.869,128.023,2.92z M141.252,2.622c-0.016,0-0.031,0-0.047,0
	c-0.717-0.025-1.344-0.625-1.326-1.342c0.019-0.718,0.499-1.34,1.264-1.274c0.008,0,0.146,0.004,0.154,0.004
	c0.721,0.025,1.285,0.63,1.26,1.352C142.532,2.067,141.952,2.622,141.252,2.622z M134.634,2.612l-0.177-1.303L134.54,0
	c0.755,0.007,1.327,0.539,1.354,1.26C135.919,1.981,135.355,2.586,134.634,2.612z" class="color c1"/>
</svg>