<svg version="1.1" id="图层_1" x="0px" y="0px" width="165px" height="165px" viewBox="0 0 165 165" enable-background="new 0 0 165 165" xml:space="preserve" xmlns="http://www.w3.org/2000/svg" xmlns:xlink="http://www.w3.org/1999/xlink" xmlns:xml="http://www.w3.org/XML/1998/namespace">
  <path fill="#19445E" d="M149.329,0C101.148,0,58.413,0,15.671,0L0,15.671c0,48.18,0,90.917,0,133.657L15.671,165
	c48.181,0,90.917,0,133.657,0L165,149.328c0-48.179,0-90.917,0-133.657L149.329,0z M158.123,146.48
	c-3.881,3.881-7.765,7.758-11.645,11.639H18.522c-3.881-3.881-7.764-7.758-11.645-11.639V18.522L18.522,6.88
	c42.653,0,85.302,0,127.956,0l11.645,11.643V146.48z" class="color c1"/>
</svg>