<svg version="1.1" id="图层_1" x="0px" y="0px" width="141.625px" height="172.639px" viewBox="0 0 141.625 172.639" enable-background="new 0 0 141.625 172.639" xml:space="preserve" xmlns="http://www.w3.org/2000/svg" xmlns:xlink="http://www.w3.org/1999/xlink" xmlns:xml="http://www.w3.org/XML/1998/namespace">
  <path fill="#1A2D3A" d="M49.82,134.146c-0.032-0.03-0.059-0.063-0.091-0.097c-2.205,2.304-4.132,4.857-5.654,6.968
	c-1.413,1.961-2.654,3.935-3.754,5.94c15.379,15.444,29.893,25.681,29.893,25.681h1.068l0.286-18.812
	C66.006,149.319,57.544,142.081,49.82,134.146z" class="color c1"/>
  <path fill="#1A2D3A" d="M0.268,28.566c0,0-1.554,18.567,2.817,42.787C11.309,82,17.019,88.5,23.533,96.75
	c0.31-0.373,1.402-2.875,1.715-3.246c-7.721-21.53-9.287-42.55-9.456-54.222l58.927-23.857L70.735,0.033L0.268,28.566z" class="color c1"/>
  <path fill="#324550" d="M141.354,28.566l-45.311-18.35L70.814,0l-0.079,0.033v17.001l0.079-0.032l13.764,5.572l41.285,16.721
	c-0.028,2.5-0.121,5.436-0.325,8.704c-1.365,21.995-7.74,59.454-33.729,86.146c-7.722,7.929-15.414,14.558-21.002,19.084
	c-0.022-0.019-0.048-0.039-0.069-0.058v19.466h0.674c0,0,15.664-11.039,31.688-27.498c34.482-35.416,38.45-86.445,38.526-107.231
	C141.643,32.029,141.354,28.566,141.354,28.566z" class="color c2"/>
</svg>