<svg version="1.1" id="图层_1" x="0px" y="0px" width="316.837px" height="324.934px" viewBox="0 0 316.837 324.934" enable-background="new 0 0 316.837 324.934" xml:space="preserve" xmlns="http://www.w3.org/2000/svg" xmlns:xlink="http://www.w3.org/1999/xlink" xmlns:xml="http://www.w3.org/XML/1998/namespace">
  <path fill="#8E3832" d="M311.512,201.827c0,0-0.26,0.927-0.761,2.721c-0.54,1.788-1.147,4.477-2.368,7.903
	c-2.221,6.899-5.882,16.919-12.408,28.812c-0.82,1.483-1.662,3.007-2.527,4.568c-0.938,1.52-1.9,3.076-2.885,4.671
	c-0.941,1.626-2.042,3.197-3.141,4.825c-1.11,1.618-2.188,3.317-3.452,4.931c-4.815,6.637-10.6,13.428-17.385,20.122
	c-6.799,6.676-14.65,13.217-23.61,19.191c-8.993,5.896-19.037,11.363-30.166,15.555c-11.117,4.189-23.227,7.289-36.001,8.793
	c-12.764,1.559-26.183,1.307-39.689-0.648c-1.695-0.197-3.373-0.553-5.062-0.867c-1.686-0.326-3.377-0.652-5.072-0.98
	c-1.679-0.406-3.362-0.814-5.051-1.225l-2.536-0.617l-0.432-0.113l-0.304-0.09l-0.609-0.182l-1.219-0.363
	c-1.623-0.494-3.251-0.99-4.883-1.488c-1.643-0.527-3.352-1.191-5.027-1.785c-3.416-1.156-6.634-2.613-9.93-3.986
	c-6.491-2.959-12.913-6.258-19.034-10.166c-3.126-1.844-6.064-4.014-9.082-6.07c-1.473-1.082-2.911-2.217-4.371-3.328l-2.181-1.676
	l-2.105-1.785c-11.334-9.396-21.418-20.541-30.053-32.852c-1.048-1.562-2.097-3.124-3.147-4.69c-1.03-1.578-1.962-3.223-2.958-4.826
	l-1.477-2.422l-1.37-2.486c-0.892-1.67-1.875-3.295-2.695-5.007c-3.515-6.735-6.427-13.8-9.07-20.984
	c-5.073-14.45-8.225-29.721-9.144-45.239c-0.521-7.759-0.337-15.571,0.241-23.364l0.583-5.837c0.165-1.953,0.547-3.874,0.811-5.815
	c0.286-1.938,0.564-3.881,0.992-5.794l1.192-5.846c0.994-3.742,1.774-7.422,3.051-11.245c0.612-1.882,1.123-3.831,1.824-5.662
	l2.031-5.544c2.927-7.303,6.221-14.487,10.164-21.314c3.999-6.783,8.354-13.372,13.276-19.507
	c4.961-6.096,10.266-11.904,16.022-17.204c22.966-21.295,51.891-35.284,81.407-40.435l2.761-0.51l2.776-0.378
	c1.85-0.241,3.693-0.517,5.538-0.726c3.703-0.296,7.387-0.716,11.073-0.741c7.363-0.323,14.672,0.047,21.854,0.735
	c3.58,0.461,7.155,0.819,10.658,1.515c1.753,0.324,3.515,0.588,5.248,0.963c1.728,0.397,3.45,0.794,5.168,1.19l1.286,0.301
	l0.642,0.15l0.321,0.075c0.077,0.015,0.493,0.134,0.46,0.126l2.434,0.7c1.62,0.467,3.235,0.932,4.846,1.396
	c1.674,0.567,3.344,1.134,5.007,1.697c1.663,0.575,3.347,1.118,4.916,1.785c3.19,1.271,6.367,2.517,9.409,4.009
	c1.528,0.729,3.079,1.396,4.57,2.17c1.485,0.784,2.966,1.566,4.44,2.345l2.202,1.175l2.139,1.268
	c1.422,0.845,2.838,1.686,4.248,2.523c1.392,0.869,2.736,1.8,4.092,2.699c1.341,0.921,2.724,1.768,3.998,2.76
	c10.474,7.537,19.579,16.145,27.29,25.21c7.76,9.037,13.933,18.683,18.983,28.189c5.001,9.551,8.743,19.068,11.517,28.19
	c2.751,9.132,4.574,17.87,5.622,26.008c0.338,2.023,0.47,4.033,0.669,5.986c0.185,1.957,0.399,3.865,0.446,5.744
	c0.1,1.872,0.197,3.7,0.292,5.484c0.01,1.786,0.02,3.527,0.028,5.224c0.023,13.569-1.581,24.135-2.949,31.233
	c-0.574,3.577-1.34,6.253-1.728,8.082c-0.425,1.821-0.645,2.762-0.645,2.762L311.512,201.827z M310.391,201.526
	c0,0,0.208-0.935,0.613-2.747c0.367-1.819,1.103-4.48,1.638-8.036c1.276-7.052,2.639-17.585,2.066-30.965
	c-0.173-6.687-1.118-14.052-2.622-21.935c-0.424-1.963-0.805-3.975-1.284-6.004c-0.529-2.017-1.067-4.072-1.617-6.165
	c-0.607-2.075-1.321-4.16-1.991-6.291c-0.321-1.07-0.715-2.127-1.123-3.188c-0.398-1.063-0.801-2.135-1.207-3.216
	c-6.66-17.19-17.435-35.308-32.863-51.539c-7.742-8.077-16.634-15.635-26.533-22.391c-9.905-6.757-20.994-12.44-32.896-16.89
	c-1.48-0.614-2.964-1.063-4.452-1.562c-1.493-0.493-2.99-0.986-4.493-1.481c-1.614-0.445-3.234-0.893-4.86-1.341l-2.441-0.674
	l-2.239-0.501c-1.589-0.359-3.184-0.72-4.783-1.08c-1.603-0.346-3.231-0.58-4.853-0.878c-3.237-0.643-6.542-0.956-9.848-1.381
	c-6.632-0.607-13.372-1.055-20.175-0.782c-3.404,0.006-6.809,0.365-10.237,0.563c-1.71,0.166-3.417,0.395-5.131,0.588l-2.574,0.304
	l-2.561,0.432c-13.702,2.161-27.312,6.393-40.296,12.415c-6.505,2.999-12.766,6.602-18.866,10.513
	c-6.088,3.945-11.832,8.459-17.388,13.232c-21.994,19.378-38.916,45.322-47.13,74.583l-1.375,5.405
	c-0.505,1.822-0.862,3.675-1.23,5.527c-0.345,1.854-0.808,3.694-1.058,5.566l-0.833,5.608c-0.85,7.506-1.345,15.072-1.117,22.632
	c0.308,7.547,0.997,15.085,2.378,22.497c1.44,7.393,3.307,14.692,5.781,21.764c9.745,28.391,28.498,52.836,51.254,69.588l2.117,1.59
	l2.189,1.482c1.461,0.979,2.899,1.982,4.367,2.934c3.009,1.791,5.921,3.695,9.006,5.273c6.03,3.396,12.334,6.104,18.592,8.619
	c3.173,1.145,6.316,2.393,9.46,3.287c1.585,0.475,3.091,0.996,4.723,1.436c1.651,0.428,3.299,0.854,4.942,1.279l1.228,0.328
	l0.613,0.162l0.308,0.084c0.128,0.035-0.022-0.016,0.185,0.035l2.403,0.51c1.597,0.34,3.19,0.68,4.778,1.018
	c1.601,0.26,3.198,0.52,4.788,0.777c1.593,0.25,3.172,0.541,4.769,0.678c12.698,1.539,25.2,1.723,37.161,0.434
	c11.958-1.293,23.386-3.775,34.041-7.238c10.652-3.475,20.54-7.893,29.473-12.984c8.966-5.041,16.996-10.73,24.043-16.693
	c0.873-0.756,1.74-1.506,2.6-2.25c0.865-0.736,1.717-1.479,2.512-2.264c1.608-1.553,3.232-3.043,4.76-4.576
	c1.484-1.578,2.94-3.127,4.371-4.645c1.393-1.554,2.689-3.139,4.003-4.663c5.092-6.208,9.445-12.228,12.794-18.022
	c6.898-11.481,10.729-21.406,12.963-28.198c1.22-3.367,1.848-6.082,2.392-7.859c0.509-1.793,0.771-2.718,0.771-2.718
	L310.391,201.526z" class="color c1"/>
</svg>