<svg version="1.1" id="图层_1" x="0px" y="0px" width="327.083px" height="324px" viewBox="0 0 327.083 324" enable-background="new 0 0 327.083 324" xml:space="preserve" xmlns="http://www.w3.org/2000/svg" xmlns:xlink="http://www.w3.org/1999/xlink" xmlns:xml="http://www.w3.org/XML/1998/namespace">
  <path fill="#ADD5CB" d="M185.363,324c-3.99,0.002-7.934-2.215-11.747-4.357c-3.437-1.93-6.99-3.926-10.074-3.926
	c-3.084,0-6.64,1.996-10.078,3.928c-3.814,2.141-7.758,4.355-11.745,4.355c-0.491,0-0.979-0.033-1.45-0.1
	c-4.629-0.66-8.242-4.357-11.735-7.932c-2.821-2.887-5.486-5.613-8.317-6.443c-0.794-0.23-1.682-0.344-2.713-0.344
	c-2.417,0-5.235,0.646-7.961,1.271c-2.924,0.67-5.948,1.363-8.783,1.363c-1.983,0-3.676-0.334-5.177-1.02
	c-4.218-1.928-6.628-6.477-8.958-10.877c-1.816-3.428-3.693-6.973-6.198-8.584c-2.533-1.633-6.559-1.877-10.451-2.113
	c-4.946-0.301-10.061-0.611-13.534-3.625c-3.485-3.021-4.516-8.047-5.514-12.906c-0.783-3.814-1.593-7.76-3.561-10.027
	c-1.963-2.266-5.75-3.625-9.413-4.939c-4.675-1.678-9.509-3.412-12.01-7.295c-2.483-3.857-2.063-8.957-1.657-13.891
	c0.32-3.895,0.651-7.92-0.606-10.672c-1.234-2.693-4.323-4.947-7.593-7.334c-4.03-2.941-8.198-5.982-9.507-10.447
	c-1.28-4.371,0.56-9.125,2.339-13.721c1.417-3.662,2.883-7.447,2.451-10.479c-0.413-2.902-2.727-5.92-5.177-9.117
	C3.149,170.799,0,166.691,0,162c0-4.695,3.15-8.804,6.196-12.777c2.449-3.195,4.762-6.212,5.174-9.112
	c0.432-3.031-1.034-6.818-2.451-10.48c-1.779-4.596-3.618-9.348-2.339-13.716c1.31-4.468,5.478-7.509,9.508-10.45
	c3.271-2.386,6.359-4.64,7.593-7.336c1.26-2.752,0.928-6.779,0.607-10.673c-0.406-4.932-0.826-10.032,1.659-13.888
	c2.503-3.885,7.338-5.62,12.014-7.298c3.659-1.313,7.443-2.671,9.404-4.932c1.969-2.272,2.78-6.219,3.564-10.035
	c0.998-4.859,2.03-9.883,5.511-12.902c3.474-3.011,8.587-3.321,13.533-3.622c3.895-0.237,7.922-0.481,10.458-2.114
	c2.505-1.615,4.383-5.16,6.2-8.589c2.329-4.397,4.737-8.944,8.95-10.874c1.503-0.687,3.196-1.02,5.178-1.02
	c2.835,0,5.86,0.693,8.785,1.364c2.726,0.625,5.544,1.271,7.96,1.271c1.032,0,1.921-0.113,2.717-0.346
	c2.827-0.828,5.492-3.554,8.313-6.44c3.495-3.575,7.108-7.271,11.736-7.929C140.744,0.034,141.231,0,141.722,0
	c3.99,0,7.933,2.214,11.746,4.355c3.437,1.93,6.99,3.925,10.074,3.925c3.083,0,6.637-1.995,10.074-3.925
	C177.429,2.214,181.373,0,185.364,0c0.491,0,0.979,0.034,1.451,0.101c4.629,0.658,8.241,4.354,11.734,7.928
	c2.821,2.886,5.486,5.613,8.316,6.441c0.798,0.234,1.688,0.347,2.721,0.347c2.417,0,5.235-0.646,7.961-1.271
	c2.924-0.67,5.947-1.364,8.781-1.364c1.98,0,3.673,0.333,5.172,1.019c4.22,1.929,6.63,6.479,8.961,10.879
	c1.815,3.428,3.692,6.972,6.198,8.588c2.531,1.63,6.557,1.874,10.45,2.11c4.946,0.3,10.061,0.61,13.535,3.621
	c3.484,3.021,4.515,8.047,5.512,12.907c0.782,3.816,1.592,7.762,3.561,10.031c1.962,2.265,5.749,3.623,9.411,4.936
	c4.676,1.677,9.511,3.411,12.012,7.295c2.481,3.856,2.063,8.955,1.659,13.885c-0.319,3.895-0.65,7.922,0.61,10.675
	c1.232,2.699,4.321,4.954,7.591,7.341c4.028,2.94,8.193,5.981,9.502,10.445c1.28,4.371-0.559,9.124-2.338,13.721
	c-1.417,3.662-2.883,7.448-2.451,10.478c0.415,2.899,2.728,5.916,5.175,9.109c3.046,3.974,6.195,8.083,6.195,12.777
	c0,4.693-3.148,8.801-6.193,12.773c-2.449,3.195-4.762,6.213-5.177,9.115c-0.432,3.029,1.034,6.816,2.451,10.479
	c1.779,4.598,3.618,9.35,2.338,13.719c-1.31,4.467-5.477,7.508-9.507,10.449c-3.271,2.385-6.359,4.639-7.594,7.336
	c-1.26,2.752-0.928,6.779-0.606,10.674c0.406,4.932,0.827,10.029-1.655,13.887c-2.505,3.887-7.341,5.621-12.017,7.299
	c-3.66,1.314-7.445,2.672-9.406,4.934c-1.97,2.27-2.78,6.217-3.563,10.033c-0.998,4.857-2.03,9.883-5.512,12.902
	c-3.474,3.014-8.588,3.324-13.533,3.623c-3.893,0.236-7.918,0.48-10.45,2.113c-2.514,1.615-4.393,5.164-6.21,8.596
	c-2.328,4.395-4.735,8.939-8.947,10.867c-1.502,0.686-3.195,1.02-5.178,1.02c-2.837,0-5.862-0.695-8.788-1.365
	c-2.727-0.625-5.546-1.271-7.963-1.271c-1.03,0-1.918,0.113-2.713,0.346c-2.826,0.828-5.491,3.555-8.313,6.441
	c-3.493,3.574-7.106,7.271-11.734,7.93C186.341,323.967,185.854,324,185.363,324z M163.542,311.717c4.13,0,8.148,2.256,12.033,4.439
	c3.52,1.977,6.844,3.844,9.787,3.844c0.304,0,0.602-0.02,0.887-0.061c3.282-0.469,6.412-3.67,9.438-6.768
	c3.057-3.127,6.217-6.359,10.048-7.484c1.168-0.342,2.422-0.506,3.838-0.506c2.869,0,5.913,0.697,8.856,1.373
	c2.834,0.648,5.511,1.264,7.895,1.264c1.396,0,2.547-0.215,3.515-0.658c2.976-1.361,4.967-5.121,7.075-9.102
	c2.059-3.887,4.188-7.906,7.581-10.088c3.41-2.195,7.966-2.473,12.371-2.74c4.478-0.271,8.706-0.527,11.155-2.652
	c2.457-2.131,3.311-6.287,4.215-10.686c0.887-4.32,1.805-8.789,4.46-11.85c2.646-3.053,6.932-4.59,11.076-6.076
	c4.235-1.521,8.236-2.957,10.006-5.701c1.746-2.715,1.399-6.93,1.031-11.393c-0.363-4.406-0.739-8.963,0.956-12.666
	c1.669-3.648,5.331-6.32,8.872-8.904c3.651-2.664,7.1-5.18,8.027-8.342c0.898-3.066-0.621-6.992-2.23-11.148
	c-1.603-4.143-3.26-8.424-2.68-12.49c0.563-3.939,3.307-7.52,5.961-10.982c2.639-3.443,5.368-7.004,5.368-10.34
	c0-3.337-2.729-6.899-5.37-10.344c-2.653-3.462-5.396-7.042-5.959-10.978c-0.58-4.064,1.077-8.346,2.68-12.487
	c1.609-4.158,3.129-8.084,2.23-11.152c-0.927-3.16-4.373-5.676-8.022-8.34c-3.541-2.585-7.204-5.259-8.87-8.908
	c-1.695-3.701-1.321-8.258-0.96-12.666c0.366-4.462,0.712-8.677-1.035-11.393c-1.766-2.743-5.765-4.177-9.999-5.695
	c-4.146-1.487-8.435-3.025-11.083-6.081c-2.654-3.059-3.571-7.527-4.457-11.848c-0.902-4.4-1.755-8.557-4.213-10.688
	c-2.449-2.122-6.679-2.379-11.157-2.65c-4.406-0.267-8.963-0.543-12.375-2.74c-3.384-2.183-5.511-6.196-7.566-10.078
	c-2.111-3.985-4.105-7.75-7.089-9.114c-0.966-0.442-2.114-0.656-3.509-0.656c-2.381,0-5.056,0.613-7.887,1.263
	c-2.942,0.675-5.985,1.373-8.855,1.373c-1.419,0-2.677-0.166-3.845-0.508c-3.835-1.123-6.996-4.357-10.053-7.484
	c-3.165-3.238-6.154-6.297-9.438-6.764C185.965,4.021,185.667,4,185.364,4c-2.944,0-6.27,1.867-9.79,3.843
	c-3.885,2.181-7.902,4.437-12.032,4.437c-4.13,0-8.147-2.256-12.033-4.438C147.99,5.867,144.666,4,141.722,4
	c-0.303,0-0.601,0.021-0.887,0.061c-3.282,0.467-6.413,3.669-9.439,6.766c-3.056,3.126-6.217,6.36-10.048,7.482
	c-1.167,0.341-2.423,0.507-3.842,0.507c-2.869,0-5.912-0.697-8.854-1.372c-2.833-0.649-5.508-1.263-7.891-1.263
	c-1.396,0-2.546,0.215-3.514,0.657c-2.978,1.364-4.97,5.126-7.08,9.108c-2.057,3.883-4.184,7.898-7.568,10.08
	c-3.416,2.199-7.974,2.476-12.382,2.743c-4.477,0.272-8.705,0.529-11.154,2.651c-2.457,2.13-3.31,6.286-4.214,10.685
	c-0.887,4.321-1.805,8.788-4.46,11.851c-2.647,3.052-6.932,4.589-11.075,6.076c-4.234,1.52-8.234,2.956-10.003,5.7
	c-1.749,2.714-1.402,6.93-1.034,11.393c0.363,4.407,0.738,8.963-0.958,12.667c-1.669,3.646-5.331,6.319-8.872,8.903
	c-3.651,2.664-7.1,5.181-8.027,8.344c-0.898,3.065,0.622,6.991,2.23,11.147c1.603,4.141,3.26,8.423,2.681,12.488
	c-0.56,3.937-3.305,7.518-5.96,10.981C6.73,155.101,4,158.662,4,162c0,3.336,2.729,6.895,5.368,10.336
	c2.656,3.465,5.402,7.047,5.962,10.988c0.58,4.063-1.078,8.344-2.68,12.484c-1.609,4.158-3.129,8.084-2.231,11.152
	c0.927,3.16,4.375,5.678,8.027,8.342c3.541,2.584,7.203,5.256,8.872,8.902c1.692,3.701,1.317,8.256,0.955,12.662
	c-0.367,4.465-0.714,8.682,1.034,11.396c1.766,2.742,5.764,4.178,9.998,5.697c4.147,1.488,8.436,3.025,11.083,6.082
	c2.654,3.059,3.571,7.525,4.458,11.844c0.903,4.4,1.756,8.557,4.216,10.689c2.448,2.125,6.678,2.381,11.155,2.654
	c4.406,0.268,8.962,0.545,12.374,2.742c3.384,2.178,5.511,6.193,7.567,10.076c2.111,3.984,4.104,7.748,7.087,9.109
	c0.968,0.443,2.117,0.658,3.514,0.658c2.382,0,5.057-0.613,7.889-1.262c2.943-0.676,5.986-1.373,8.855-1.373
	c1.417,0,2.671,0.164,3.836,0.506c3.837,1.125,6.998,4.359,10.054,7.486c3.166,3.238,6.155,6.297,9.438,6.766
	c0.285,0.041,0.583,0.061,0.885,0.061c2.941,0,6.267-1.867,9.787-3.844C155.392,313.973,159.412,311.717,163.542,311.717z" class="color c1"/>
</svg>