<svg version="1.1" id="图层_1" x="0px" y="0px" width="212.3px" height="186.8px" viewBox="0 0 212.3 186.8" enable-background="new 0 0 212.3 186.8" xml:space="preserve" xmlns="http://www.w3.org/2000/svg" xmlns:xlink="http://www.w3.org/1999/xlink" xmlns:xml="http://www.w3.org/XML/1998/namespace">
  <path fill="#637E73" d="M102.5,176.8c0.7,1,1,3.5,0.5,5.3c-0.3,1.2-0.7-0.4-0.9-1.2c-0.2-0.3-0.5-0.5-0.5-1.4
	C101.9,178.4,102.1,176.1,102.5,176.8z M93.8,180.4c0.1,0.7,0.3,1.6,0.5,2c0.3,0.4,0.4-0.4,0.4-1.5c-0.1-0.4-0.3-1.2-0.5-1.5
	C93.9,178.9,93.7,179.8,93.8,180.4z M95.6,185.1c-0.1,0.5,0,1.5,0.1,1.6c0.4,0.4,0.5-0.5,0.6-1.6c0-0.4,0-1.4-0.2-1.5
	C95.7,183.3,95.6,184.4,95.6,185.1z M99.5,183.5c0,1.1-0.2,2.8-0.1,3.1c0.6,0.9,0.7-1.5,1.1-1.7C100.3,183.8,99.9,183.6,99.5,183.5z
	 M56.2,11.5c0.7-1.1,1.7-1.6,2-4c-0.4,0-0.7,0-1.1,0c-0.4,0.9-0.7,1.8-1.1,2.7c-0.5,0.9-1.1,1.8-1.6,2.6c-0.2,0.1-0.3,0.1-0.5,0.1
	c0,0.9,0,1.8,0,2.7c0.8-1.1,1.7-1.7,2.1-4C56.1,11.6,56.2,11.5,56.2,11.5z M183.7,155.1L183.7,155.1L183.7,155.1L183.7,155.1z
	 M212.2,53.5c-0.7,3.6,0,9.1-2.1,10.8l0,0c-0.2,1.4-0.3,2.7-0.5,4.1l0,0c-0.2,1.3-0.4,2.7-0.5,4l0,0c-0.9,5.5-1.4,11.6-3.6,14.9l0,0
	c-0.4,2.3-0.7,4.6-1.1,6.8l0,0l0,0c0,2.4,0,4.9,1.3,1.9c1-2.2,1.7-1.4,1.8,2c-0.5,2-0.1,5.1-1.1,6.7l0,0c-0.3,0.9-0.7,1.9-1,2.8
	c0,0.9,0,1.8-0.1,2.7l0,0l0,0c1.3,5-0.7,5.8-1.5,8.2l0,0l0,0c-0.2,0.4-0.4,0.8-0.6,1.3c0,0.4,0,0.9,0,1.3c0.5,2.1-0.2,4.8,0.5,6.8
	c-0.5,0.9-1.1,1.8-1.6,2.7c-0.4,0.9-0.7,1.8-1.1,2.7c-0.2,0.4-0.3,0.8-0.5,1.3c-0.6,1-1.1,1.9-1.7,2.9c-0.2,1.3-0.4,2.6-0.5,3.8l0,0
	l0,0c0,0.5,0,1,0,1.5c0.2,0.5,0.4,0.9,0.5,1.4c-0.4,2.4-1.4,3.4-1.7,6.1c-0.5,3.9-1.2-0.7-1.9-0.6v-0.1l0,0v0.1
	c-2,4.6-4,10.1-7.1,6.4c-1.2-1.5-1.8,4.2-3,1.6l0,0c-0.5-0.9-0.8-2.8-1.6-2.6c-0.3-2.2,0.3-2.8,0.9-3.3c0.1,0,0.2,0.1,0.4,0.2
	c0.5-1.6,1.1-3,1.9-3.7c0-0.4,0-0.8,0-1.2c-0.5,0-1-0.1-1.5-0.1c-1.3,5.8-0.6-4.1-1.5-1.2l-0.1-0.4l0,0l0,0c0.1,0.1,0.1,0.3,0.2,0.4
	c-0.1,2.6-0.8,4.1-1.6,5.3c-0.2-0.4-0.3-0.8-0.5-1.2l0,0c-0.9,1.5-2.1,0.1-3,2.9c-0.5,1.6-1-0.4-1.3-1.7l0,0
	c-0.5-0.5-0.9-1.4-1.1-2.8l0,0c-0.4,0-0.7,0.1-1.1,0.1c0,0.4,0,0.7,0,1.1c0,0,0,0,0,0.1c0.1,0,0.1,0.1,0.2,0.2
	c0.1,0.6,0.3,1.4,0.2,1.9c-1.8,7.5-3.5,15.4-6.5,20.4c-0.3,0.1-0.5-0.1-0.7-0.6c-0.2,0-0.4,0-0.5,0c0,0,0,0,0-0.1
	c-0.3,0-0.7,0-1,0.1l0,0c-0.7,0.8-1.1,3.4-2.1,2.7l0,0l0,0l0,0c-0.4-0.5-0.8-1-1.2-1.5l0,0c-0.3,0.6-0.6,1.2-0.9,1.8
	c-0.2,0.8-0.4,1.7-0.6,2.5l0,0c0,0.9,0,1.8,0,2.7c-0.2,0.4-0.4,0.9-0.5,1.3c-0.9-1.8,0.2-3.6,0-5.4c-0.3,0-0.6,0-0.9,0.1
	c-0.4,1.2-0.8,1.5-1.2,0c-0.2-0.1-0.4-0.1-0.5-0.2v0.5c-0.4,0.3-0.7,0.6-1.1,0.9c0-0.9,0-1.8,0-2.7c-0.1-1.5,0-3.2-0.6-4.2h-0.2
	l-0.2,0.2c-0.1,2.2-0.5,3.8-1.1,5.4c-0.5,3.7-1.8-3.2-2.2,1.1c-0.9-0.9-2-1.6-1-5.1l0,0l0,0c-1,0.4-2.1,0.8-3.1,1.2
	c0,0.9,0,1.8-0.1,2.7c-0.6,0.8-1.4,1.7-1.2-1.4c0.1-1.9-0.1-2.2-0.7-2.2c-1.3,2-2.6,2.1-3.9,0.7c-0.7-0.7-0.2-1.6,0.1-2.3
	c0.3-1.1,0.6-2.2,0.9-3.4c0-0.7,0.1-1.5,0.1-2.2c-1.2,3.3-2.4,0.3-3.7,0.4l0,0c-0.5,1.4-1,2.9-1.6,4.1c-0.4,0.8-1,1.4-1.3-0.1
	s0.6-1.8,0.7-3l0,0c-0.2-0.9-0.3-1.8-0.5-2.8c-0.3,0.5-0.7,1-1,1.5l0,0c-0.2,2.2-0.9,3.8-1.7,3.3c-0.5-0.3,0.1-2.3,0-3.5l0,0
	c-0.1-1.7-0.4-2.6-1.1-2.6l0,0c-0.2,0.4-0.4,0.8-0.5,1.2l0,0c-1.7,5.7-2.9,0.9-4.3-1.2c-0.8,2.4-1.4,5.2-2.6,6.7l0,0
	c-0.9,0.8-0.9,8.1-2.7,2.6l0,0l0,0c-0.5-1.3-1-2.6-1.5-3.9c-0.2-0.1-0.3-0.2-0.5-0.3l0,0l0,0c-0.3,0.1-0.6,0.3-0.9,0.4
	c-0.8,2.4-1.8,2.4-2.9,2.5c-0.4-2-0.2-3.4,0.6-4.3l0,0c0-0.4,0-0.8,0-1.2c-0.4-1.4-0.8-2.9-1.2-4.3c-0.5,1-1,2-1.5,3
	c-0.3,0.9-0.7,1.8-1,2.8l0,0c-1.5,3.1-2.2,1-2.6-2.6c-0.2,0.4-0.4,0.8-0.6,1.2c-0.2,0.6-0.6,1.8-0.7,1.7c-0.9-1.2-1-3.4-0.9-5.7
	c-0.4,0.6-0.7,1.2-1.1,1.8c-0.5-2.4-0.1-4.3,0.4-6.2l0,0c0.2-0.9,0.4-1.7,0.6-2.6l0,0c-0.1-1.2,0.1-2.6-0.4-3.5
	c-0.8,1.5-0.9,4.9-2.2,5.1c0.1,2-0.4,2.7-1.1,3.1c0,0.7,0,1.5,0,2.2c-0.4,0-0.7,0-1.1,0c-0.7,0.7-1.7,2.4-1-1.8
	c0.2-1.2,0.2-2.1-0.4-2.3c-0.5,1.6-1.5,1.6-1.8,3.9c-0.2,0.8-0.5,1.2-0.9,1.3c0,0-0.1,0-0.1-0.1c0,0.5,0,1.1,0,1.6
	c-0.7,0.9-1.2,2.9-2.1,3.1c-0.1,3-1.2,4.1-1.6,6.5c-0.9,1.3-1.6,1.2-2.1-1.2c0.2-0.9,0.3-1.8,0.5-2.6l0,0c-0.2-0.1-0.3-0.2-0.5-0.2
	c-0.2,0.1-0.3,0.1-0.5,0.2c-0.8,4.4-2.9,3.8-4.2,7.4c-0.1-2.1-0.1-3.4-0.1-4.7c0-0.1,0.1-0.2,0.1-0.4l0,0l-0.1,0.4
	c-0.2,0.4-0.3,0.8-0.5,1.2c-0.2,0.5-0.3,0.9-0.5,1.4l0,0c0.5,2.3-0.2,3.3-0.8,3.5c-0.8,0.3-0.3-1.3-0.3-2.1l0,0
	c-1-1.5-2.6-2.2-1.5-6.8c0-0.5,0-0.9,0-1.4c-0.6,0-1.2-0.1-1.6,1.3l0,0l0,0c-0.5,1.7-1.3,1.6-2.3,2.6c0.1-2.3,0.7-3.2,1.2-4
	c0.4-1.6,0.8-3,1.6-2.7c0-0.5,0.1-0.9,0.1-1.4c-0.1-0.4-0.1-0.9-0.1-1.3c0.1-1.8,1.3-2.8,0.6-5.2c-0.5,0.9-1,1.9-1.6,2.8
	c0,3.3-0.8,4.5-2,5c0.4-9.7-2.3-2.5-3.4-4l0,0c-0.3,0.5-0.6,1.1-0.9,1.6l0,0c0,0.4,0,0.8,0,1.3c-0.8-0.7-1.9,0.4-2.2-2.7l0,0
	c-0.7,0-1.5-0.6-2.1,1.2l0,0l0,0c-0.1,1,0.2,3.4-0.5,2.8c-0.8-0.6-0.7-2.6-0.1-4.1c0.3-0.9,0.7-1.8,1-2.7c0-0.8-0.1-1.7-0.1-2.5l0,0
	c-0.9-0.4-1.4-3.6-2.5-2.8c-0.5,0.5-1,1-1.5,1.5l0,0c-0.4,0.9-0.7,1.9-1.1,2.8c-0.1,3.4-1.3,4-2.2,5.2l0,0c-0.3,0.5-0.7,0.9-1,1.4
	l0,0c-0.1,1.4-0.3,2.8-1,1.8c-0.5-0.8-0.7-2-0.1-3.2c0.4-0.9,0.7-1.8,1.1-2.7c-0.2-0.4-0.4-0.8-0.6-1.3l0.2-0.3v-0.1
	c-0.1,0.1-0.1,0.3-0.2,0.4c-1.7,0-2.5,4.8-4.1,5.5l-0.1-0.5c-0.4,0.2-0.6,2-1.1,0.4c-0.5,0.4-1,0.8-1.5,1.3c-0.4-2-0.3-3.4,0.6-3.9
	c-0.4-4.3,1.1-5,2-7c0-0.4,0-0.9,0-1.3c-0.2-1.4-0.4-2.9-0.6-4.3c-0.2,0.1-0.3,0.2-0.5,0.3l0,0c0,0.3-0.1,0.6-0.1,1
	c-0.6,4.1-1.1,8.5-3.5,4.7c-0.4-0.6-1.2,0.6-1.7,1l0,0c-0.5,0.9-1.1,1.8-1.6,2.8c-0.2,0-0.3-0.1-0.5-0.1c0-1.5-0.1-3.1,0.6-4.1
	c0-0.4-0.1-0.8-0.1-1.2c-0.5,0-1,0-1.5,0l0,0c0,2.6-1,3-1.6,4l0,0l0,0c0,3.5-1.2,4.1-2.1,5.4c-0.4-1.4-0.7-0.2-1.1,0
	c-0.8-3.1,1.5-4.9,0.5-8.1c-0.5,0.5-1,1-1.5,1.5c-0.8,1.7-1.5,3.6-2.3,4.9c-1.3,2-0.8-1.1-1-2.4l0,0l0,0c-1.1,1.5-1.8,4.9-3.1,5.7
	c0-0.1-0.1-0.3-0.1-0.4l0,0l0.1,0.4c-0.4,0.8-0.8,1.6-1.2,2.4c-0.4,2.4-1.2,3-2.1,2.9l0.1-0.3l0,0l0,0c0,0-0.1,0-0.1,0.1
	s0,0.1,0.1,0.2c-0.2,1.3-0.3,2.6-0.5,3.9c-0.8-0.2-1.6-0.9-2.1-2.6c0-0.1,0-0.2,0.1-0.2h-0.1l0,0l0,0l0.1,0.3h-0.2l-0.2,0.1
	c-0.2,2.9-1.2,4.2-1.7,6.6c-1.8-1.9,0.6-3.5,0.1-5.4l0,0l0,0c-0.2-0.4-0.4-0.9-0.6-1.3c-0.6-4-1,0.2-1.5,0.4c-0.6,0.2-1,0.2-1.3-1.2
	c-0.1-0.3,0.4-1.2,0.6-1.9l0,0c-0.6-0.9-1-2.2-1-4.1c-2.4-3.5-0.1-4.9,0.5-7c0-0.4,0-0.9,0.1-1.3c-0.8-0.2-1.5,0.3-2.1,1.4
	c-0.7,2.4-1.3,5-2.6,5.3c-0.1-1.3-0.1-2.7-0.2-4c-2.3-2.3-2.4-3.3-0.5-8.1l0,0c0-0.4,0.1-0.7,0.1-1.1l0,0c-1.2,0-0.9-5.6-2.5-4l0,0
	c-0.9,1.3-1.6,3.6-2.7,3.9c-0.5,1.8-1.1,3.5-1.6,5.3c-1.8-2,0.6-4.4-0.4-6.9c-1.6,1-2.6,5.9-4.4,6.9l0,0l0,0
	c-0.2,1.1-0.6,1.3-1.1,1.4c-0.3,1.4-0.6,3.4-1.2,2.9c-1-0.8-0.8-3.5-0.9-5.7l0,0c-0.3,0.5-0.7,1-1,1.6l0,0c-0.5,2.1-1.3,3-2.2,4l0,0
	c0,0.9,0,1.8,0,2.7c-2,3.3-2-3.3-3.2-4.1c-0.2-3,0.7-3.5,1.5-4.1c0.1,0,0.1,0,0.2,0c0.2-1.7,0.6-2.7,1.5-1.4l0,0l0,0
	c0.4-0.6,0.5-1.6,0.5-2.7l0,0c0.5-1.8,1.1-3.6,1.6-5.4l0,0c-0.4-0.4-0.8-1.1-0.7-2.3c0.1-1.5,0.7-1.7,1.2-1.8c0,0,0,0,0.1,0.1
	c0,0,0,0,0-0.1l0,0l0,0H8.6c0-0.4,0.1-0.8,0.1-1.2c-0.2-0.5-0.4-1.1-0.6-1.6c-0.3,0.1-0.6,0.2-0.9,0.3l0,0c0.1,2.2-0.5,3.1-1.1,3.9
	c-0.9,2.1-1.8,4.2-2.7,6.3l0,0c0,0.6,0,1.2,0.1,1.8c-0.8,1.3-1.7,1.5-2.6,1.3c0-0.9,0-1.8,0-2.7c0-3,0.3-4.7,1.5-2.7l0,0l0,0
	c0.4-1.3,0.8-2.6,1.3-3.9c-1.2-2-3.1-1.9-3.3-6.9c0.2-1.1,0.5-2,1.1-1.7l0,0c0.3-1.6,0.8-2.4,1.5-2.3l0,0c0.5-0.5,1-1,1.5-1.6l0,0
	c0.2-0.4,0.4-0.8,0.5-1.2l0,0c0.1-2.7,0.8-4.4,1.6-5.8l0,0c0.4-0.8,0.7-1.6,1.1-2.4l0,0c0.2-0.4,0.4-0.8,0.6-1.2
	c0.9-2.8,1.8-5.6,2.7-8.3c-0.3-0.1-0.5-0.1-0.8-0.2c0,0.1,0,0.3,0,0.4c-0.2,0.9-0.4,1.7-0.7,2.3c-0.2,0.2-0.4,0.5-0.6,0.8
	c-0.7,2.2-1.8,3-2.7,4.8l0,0l0,0c-0.5,1.3-0.5,4.1-1.6,2.9l0,0l0,0c-0.7,0.5-1.4,1-2.1,1.5c0.1-2.6,0.6-4,1.6-4.2
	c0.2-0.9,0.4-1.7,0.5-2.6c0.5-1,1-2,1.5-3c0.2-0.8,0.4-1.6,0.6-2.4l0,0l0,0c0-2,0.4-3.3,1.1-4.1c-0.2-0.5-0.4-0.9-0.5-1.4l0,0
	c-0.7-3.4-1.4-6.4-3.2-4.1c-0.6-3.1,0.3-4.2,1-5.4l0,0c0.3-0.9,0.7-1.9,1-2.8l0,0c0.4-3.5,1.2-5.8,2.6-6.7c0.1-0.4,0.1-0.7,0.1-1.1
	l0,0l0,0c-0.2-0.5-0.4-1-0.6-1.5c-0.7-0.7-1.7,1.6-2.1-1.5l0,0l0,0c0.6-5,2.1-9.3,1.7-15.2c-0.1-2.2,0.5-4.2,1.6-4.2
	c1.7,0,2-2.8,2-6.3c1-1.6,2.2-2.3,3.3-3.7c0.1,0,0.1,0,0.1,0c0.8-2.8,1.8-5.2,2.9-7.2v0.1l0,0c0,0,0,0,0-0.1
	c-0.8-1.2-0.7-3.5-1.1-5.3c0.4-0.9,0.7-1.8,1.1-2.7c0.7-0.5,1.4-0.9,2.1-1.4c1.1-2.5,2.2-5,3.7-1.8c0.3-1.2,0.7-2.4,1-3.6
	c0.4-0.5,0.7-0.9,1.1-1.4c0.1-0.3,0.3-0.4,0.4-0.2c0.1-0.3,0.2-0.5,0.3-0.7l0,0c0.1-0.6,0.2-1.1,0.3-1.7c0.3-0.5,0.7-0.9,1-1.4l0,0
	l0,0c0-0.4,0-0.8,0-1.2c0.3-0.9,0.6-1.6,1.1-1.3c0.3-0.1,0.7-0.2,1-0.3l0,0c0.2-0.9,0.4-1.7,0.5-2.6c0.5-0.4,1.1,1.4,1.6,0
	c0.1-2.6-0.1-5.1-0.9-7.6c1.9-0.7,1,5.5,2.5,4.9c0.8-1,1.8-0.3,2.6-1.4c1.2-3.2,1.8,0.7,2.6,1.4c0,0.5,0,1.1,0,1.6
	c0.2,0.4,0.4,0.7,0.6,1.1c0.7-1.3,1.4,0,2.1,0l0,0c1.2-0.3,1.7,1.1,1.6,4.1c0,0.5,0,0.9,0,1.4l0,0l0,0c1.2-0.3,2.3,0.1,3.2,2.3
	c0.6,0.6,1.1-0.4,1.6-1.1c0.6-3,1.4-3.8,2.6-2.5c0.2-0.6,0.4-1.2,0.6-1.7c0-0.4,0-0.8,0-1.2l0,0c0.3-1,0.7-1.9,1-2.9
	c0.5-0.6,1.1-0.6,1.6,0.2c-0.3,1-0.7,1.9-1,2.9c0,1.1,0.1,2,0.5,2.6c0.5-0.5,1.1-0.9,1.6-1.4c0.4-0.8,0.7-1.7,1.1-2.5l0,0l0,0
	c0.3-2.4,1.2-2.4,2-3l0,0c0.5-3.8,2.2-3.3,3.2-5.4l0,0c0.4-0.9,0.7-1.8,1.1-2.7l0,0c-0.2-3.2,0.8-2.7,1.5-2.6
	C64,4.4,64.6,4,65.1,3.5c0.2,1,0.6,1.3,1.1,1.2l0,0c0.2-0.5,0.4-0.9,0.5-1.4c0.1-1.2-0.1-3.1,0.5-3.3c0.9-0.3,1.5,1,1.6,3.4
	c0.7,4.3-1.3,2.2-1.6,4.1l0,0c0,1.1-0.1,2.2-0.5,2.8l0,0c0.2,0.8,0.3,1.6,0.5,2.5l0,0c0.4,0,0.7,0,1.1,0l0,0
	c1.4-3.1,2.5-7.9,5.1-7.9c-1.3,3.1-2.4,5.5-3.5,8l0,0l0,0l0,0c0.2,0,0.3,0,0.5,0l0,0l0,0c0.9-0.2,2.3-2.7,2.1,2.8l0,0l0,0
	c0.6,1.8,1.4,1,2.1,1.2l0,0c0.5-2.2,1.5,0.3,2.1-1.3c0.7,5.5-1.5,3.4-2.2,5.3c-0.2,0.5-0.4,0.9-0.5,1.4l0,0l0,0
	c0.2,0.8,0.3,1.7,0.5,2.5l0,0c1.4-1.8,2.9-3.1,4.3,0.1c0,0.2,0,0.4,0,0.6c0,0,0,0,0.1,0v-0.6c0.3,0,0.7,0,1,0.1
	c0.1-1.7,0.5-2.4,1.1-2.6c0.2-0.4,0.4-0.8,0.5-1.1c0.7,0.4,1.4,0.7,2.1,1.1c0.2-0.9,0.4-1.7,0.6-2.6c0.2-0.5,0.3-0.9,0.5-1.4l0,0
	c0.6-2.6,1.4-4.3,2.7-4c0.5-1,1-2,1.5-3l0,0c0.2-0.4,0.4-0.8,0.6-1.2l0,0c0.4-0.9,0.7-1.7,1.1-2.6c1.3,0.4,0.4,2.7,0.5,4.1l0,0
	c0.7-0.5,1.3-1,2-1.5l0,0l0,0c0.4-1.7,1-2.3,1.7-1.5c0.7-1.2,0.8,0.7,1.1,1.6c0.5-0.9,1-1.8,1.6-2.7c0.8,1.2,1.5,2.7,1.6,5.4l0,0
	c1.1-1.3,1.4,1,1.4,2.8c-0.1,2.8,0.5,2.7,1.2,2.7l0,0c0.4-0.8,0.7-1.6,1.1-2.4c1.1,3.4,2.1,0.9,3.2-0.2c0.5-1.8,1.3-2.5,2.1-2.7l0,0
	c2.5-0.8,0.6,5.2,1.6,6.7V20l0,0v-0.1c0.6-1.1,1.2-2.2,2-3.5c0,2.1,0.1,3.5,0.1,4.9l0,0l0,0c0.2-0.4,0.4-0.8,0.6-1.2l0,0
	c2.8-7,1.2,4.4,2.5,3.9l0,0c0.8-1.8,1.5-2,2.3-0.1l0,0c0.3,0,0.7,0,1,0.1c0-1.9-0.1-4.4,0.9-4.7c0.9-0.3,0.6,2,0.7,3.4l0,0
	c0.2,1,0.4,1.9,0.6,2.9l0,0l0,0c0.2,0,0.3,0,0.5,0c0.5-0.2,0.9,0,1.3,0.7c0,0.1,0.1,0.2,0.1,0.2c1.5-1.7,3-3.4,4.5-5.1
	c0-0.4,0-0.8,0-1.3c0.3-0.9,0.7-0.9,1-0.1c0,0.9,0,1.8,0,2.7c0.7-0.5,1.4-1,2.1-1.4l0,0c0.2-0.6,0.5-1.2,0.7-1.8
	c0.2,2,0.5,4-0.1,5.9c0,1.1-0.1,2.1-0.5,2.7c-0.2,1.3-0.4,2.6-0.6,3.9l0,0l0,0c0.5,2.1,1.1,0.6,1.7,0.2c0.4-2.3,1-3.8,2-4.3
	c0.2-1.8,0.6-3.1,1.2-4c0.5-3.3,1.4-4.9,2.6-2.9c1.1,1.8,0.3,4.4-0.1,6.5c-0.2,1.2-0.6,2.2-0.9,3.3l0,0c0.2,0.4,0.4,0.9,0.6,1.3
	c0.3-2.5,1.1-3.6,2.1-4.3l0,0c0.2-0.4,0.4-0.7,0.5-1.1l0,0c0-0.5,0-0.9,0-1.4l0,0c-0.2,0-0.4,0-0.5,0c0.3-1.5,0.7-2.8,1.3-1.3
	c0.7,1.5,1.2,0.7,1.8-0.1l0,0c0-0.4,0-0.9,0-1.3c1.1,1.1,1.9,0.3,2.8-1.9c1.7-4.4,3-3.6,3.6,2.1l0,0c0.5-0.9,1-1.8,1.5-2.7l0,0l0,0
	c0.5,0.2,1.3-1.7,1.6,0.4c0.2,1.6,0.2,3.6-0.5,4.8c0.2,0.9,0.4,1.8,0.6,2.7l0,0c0.8-4.7,2-3.1,3.2-1.2l0,0c0.5-2.1,1-2,1.5-0.1
	c0.2,0,0.4,0.1,0.5,0.1c0-1.9-0.4-4.2,0.5-5.6c0.3,1.5,0.4,3.4,1.1,4.2l0,0c0.3-0.2,0.7-0.4,1-0.7l-0.1-0.4l0,0l0,0
	c-0.5-1.2-0.4-2.8-0.4-4.4l0,0c1-3,2.3-2.8,3.7-2.8c0,1.4,0,2.8,0,4.1l0,0l0,0l0,0l0,0c0.4-0.4,0.8-0.7,1.2-1.1c0-0.2,0-0.4,0-0.5
	c0.7-2.7,1.3-1.2,2,0.2l0,0c-0.1,2.7,1.2,4.1,1,6.9l0,0c0,0.4,0,0.8,0,1.2l0,0c0.8,0.3,0.9-1.8,1.3-3.2c0.4,2,0.3,3.4-0.2,4.6
	c0,0.5,0,0.9-0.1,1.3c0.5,1.7,1.1,2.4,1.9,1.4c0.9-1,0.7,0.7,0.7,1.9c0.5-0.5,1.2-2.9,1.5-1c0.6,3-0.6,4.4-1.4,5.9
	c0,0.4-0.1,0.8,0,1.1c1.7,0,2.9-3.2,4.2-5.3c0-1.9,0.4-3.3,1-4.2l0,0c0.3-2.6,0.8-2.6,1.6-1.1l0,0c0.3-0.1,0.7-0.3,1-0.4
	c0.2-2,0.5-3.8,1.1-5.2c0.4-0.9,0.7-1.8,1.1-2.7c1.4,1.6,1.6,4.7,1.6,8.1l0,0l0,0c0.2,0.6,0.4,1.2,0.5,1.8l0,0l0,0
	c0.2-0.5,0.4-1,0.6-1.5c0.4-3.2,1.3-4.5,2.6-4.3c0.2,0.5,0.3,0.9,0.5,1.4c-0.1,1.3-0.3,2.5-0.4,3.8l0,0c1.6,1.4,0.7,5,1,7.5
	c0.2-0.2,0.3-0.3,0.5-0.3c0.3-1.6,0.8-2.9,1.6-2.9c0.5-3.4,1.1-2.3,1.6,0l0,0c1,2.2-0.1,8,2.1,8.2c0.9,1.1,1.5,2.8,1.6,5.5l0,0
	c0.4,0,0.7-0.1,1.1-0.1c0-0.9,0-1.8,0-2.7c0.1,0.4,0.2,0.8,0.2,1.2c0-0.4-0.1-0.9-0.2-1.2c0.1-1.2,0.5-1.5,0.9-1.7c0-0.3,0-0.7,0-1
	c-0.1-0.4-0.3-0.9-0.4-1.3l0,0l0,0c0.4-1.5,0.3-4.4,1.5-3v0.1c0-2.8,1.4-3,1.6-5.4c0.6,0,0.8-1.3,1.3-1.9c1.4-2,2.7-2.6,2.4,3.4l0,0
	c0.9,0.1,0.8-4.5,2-2.8l0,0l0,0c0.2-0.1,0.5-0.1,0.7-0.2l0,0c0.4-1.2,1-1.1,1.6-1.1c0,0.4,0,0.8,0,1.3v0.2c0.3,0,0.7,0,1,0
	c0.7,2.4,1.5,4.8,0.6,8.1l0,0c0.1,2-0.2,3.7-0.5,5.4c0.2,0.4,0.3,0.8,0.5,1.3c0.2-0.4,0.4-0.9,0.6-1.3l0,0c0.1-1.1,0-2.7,0.3-3.1
	c0.6-1,0.8,1.2,1.2,1.7c0.1-0.3,0.1-0.7,0.1-1.1c0-1.3-0.3-3.1,0.4-3.4c0.8-0.3,0.8,1.9,1.1,3.2l0,0l0,0c0.1,1.6,1.5,4.2-0.5,4.1
	c-0.2,0.5-0.3,1-0.5,1.4l0,0l0,0c0,1.3-0.1,2.6-0.1,3.9C211.1,53,211.5,55,212.2,53.5z M8.4,141.8C8.4,141.8,8.4,141.7,8.4,141.8
	C8.4,141.7,8.4,141.7,8.4,141.8L8.4,141.8z M9,147L9,147L9,147L9,147L9,147L9,147L9,147z M9.5,138.8L9.5,138.8L9.5,138.8L9.5,138.8
	L9.5,138.8z M9.5,138.8L9.5,138.8C9.5,138.9,9.5,138.9,9.5,138.8C9.5,138.9,9.5,138.8,9.5,138.8z M10.1,138.5c0-0.2,0-0.5,0-0.7
	c0,0,0,0.1-0.1,0.1s-0.2,0-0.3,0.1c0,0,0-0.1-0.1-0.1c0,0.1,0.1,0.2,0.1,0.3c0,0.2-0.1,0.4-0.1,0.6C9.7,138.3,9.8,138.3,10.1,138.5
	C10,138.6,10,138.6,10.1,138.5z M11.1,149.3v-0.1l0,0V149.3L11.1,149.3z M12.7,106.5v-0.1l0,0C12.7,106.4,12.7,106.4,12.7,106.5z
	 M12.9,81.2L12.9,81.2L12.9,81.2C12.9,81.3,12.9,81.3,12.9,81.2z M17.5,44.1L17.5,44.1L17.5,44.1L17.5,44.1z M19.1,86L19.1,86
	C19.1,86,19,86,19.1,86C19,86,19.1,86,19.1,86z M19.1,86L19.1,86L19.1,86L19.1,86z M23.2,75.4c0-0.1,0-0.1,0.1-0.2l0,0
	c0,0-0.1,0-0.1,0.1V75.4z M29.1,140.2L29.1,140.2v0.1V140.2z M34,119.3c0-0.2-0.1-0.5-0.1-0.8c0,0,0,0.1-0.1,0.1
	C33.9,119,33.9,119.2,34,119.3z M36,26.7L36,26.7v-0.3l0,0l0,0l0,0C36,26.6,36,26.7,36,26.7C36,26.8,36,26.7,36,26.7z M41.3,18.3
	L41.3,18.3L41.3,18.3L41.3,18.3z M44.1,39L44,38.9c0,0.1,0,0.1,0,0.2C44,39.1,44,39,44.1,39z M46.8,34.9L46.8,34.9L46.8,34.9
	L46.8,34.9z M51.2,131.9L51.2,131.9C51.2,132,51.2,132,51.2,131.9C51.2,132,51.2,131.9,51.2,131.9z M60.8,163.3
	c0-0.3-0.1-0.5-0.2-0.6C60.6,162.9,60.7,163.1,60.8,163.3z M63.5,110.4L63.5,110.4L63.5,110.4L63.5,110.4L63.5,110.4l-0.1,0.1
	c0,0.1,0,0.1,0,0.2C63.4,110.6,63.5,110.5,63.5,110.4z M67.8,141.5L67.8,141.5L67.8,141.5v0.1C67.8,141.6,67.8,141.6,67.8,141.5z
	 M69,48c0-0.1-0.1-0.2-0.1-0.2c0,0.2-0.1,0.5-0.1,0.8C68.9,48.4,69,48.2,69,48z M76.7,160.6c-0.1-0.5-0.2-0.7-0.4-0.7
	C76.4,160.1,76.6,160.4,76.7,160.6z M79.5,33.4L79.5,33.4C79.5,33.4,79.4,33.5,79.5,33.4c-0.1,0.1-0.1,0.1-0.1,0.1
	C79.5,33.5,79.5,33.5,79.5,33.4z M82.6,91.4L82.6,91.4L82.6,91.4L82.6,91.4z M89,156.4L89,156.4C89,156.5,89,156.5,89,156.4
	C89,156.5,89,156.5,89,156.4z M90.5,42.7L90.5,42.7L90.5,42.7C90.5,42.8,90.5,42.8,90.5,42.7L90.5,42.7z M93.9,22.6l-0.1-0.1
	c0,0.1,0,0.2,0,0.3C93.8,22.8,93.8,22.7,93.9,22.6z M95.3,18.6L95.3,18.6L95.3,18.6C95.3,18.7,95.3,18.7,95.3,18.6L95.3,18.6
	C95.3,18.7,95.3,18.6,95.3,18.6z M95.8,30.6C95.8,30.6,95.8,30.5,95.8,30.6C95.8,30.5,95.8,30.5,95.8,30.6L95.8,30.6L95.8,30.6z
	 M98.4,159C98.4,159,98.4,158.9,98.4,159C98.4,158.9,98.4,158.9,98.4,159C98.4,158.9,98.4,159,98.4,159z M104.7,26.5L104.7,26.5
	L104.7,26.5L104.7,26.5z M104.8,26.5C104.8,26.4,104.8,26.4,104.8,26.5C104.8,26.4,104.8,26.5,104.8,26.5h-0.2c0,0.1,0,0.2,0,0.3
	C104.7,26.7,104.8,26.6,104.8,26.5L104.8,26.5z M105.9,80.6C105.8,80.6,105.8,80.6,105.9,80.6c-0.1,0.1,0,0.2,0,0.3
	C105.8,80.8,105.8,80.7,105.9,80.6z M107.5,41.3C107.4,41.3,107.4,41.3,107.5,41.3C107.4,41.3,107.4,41.3,107.5,41.3L107.5,41.3
	L107.5,41.3C107.4,41.3,107.4,41.3,107.5,41.3z M108,23.9v-0.1l0,0c0,0.1,0,0.2,0.1,0.2C108,23.9,108,23.9,108,23.9z M119.2,38.7
	c0-0.3-0.1-0.5-0.1-0.7c0,0.2,0,0.5,0,0.8C119.2,38.8,119.2,38.8,119.2,38.7z M124.9,31.9L124.9,31.9L124.9,31.9L124.9,31.9z
	 M125.6,162.7c-0.1,0-0.1,0-0.2-0.1c0-0.1,0-0.2,0-0.3l0,0c0,0.1,0,0.2,0,0.3c0,0,0,0.2,0,0.3c0,0,0,0.1,0.1,0.1
	C125.5,163,125.6,162.8,125.6,162.7z M127.6,134.8C127.6,134.8,127.5,134.8,127.6,134.8C127.5,134.8,127.5,134.8,127.6,134.8
	L127.6,134.8z M134.4,77.9L134.4,77.9L134.4,77.9L134.4,77.9L134.4,77.9L134.4,77.9L134.4,77.9C134.4,78,134.4,78,134.4,77.9
	C134.4,78,134.4,77.9,134.4,77.9L134.4,77.9z M139.8,158.9L139.8,158.9L139.8,158.9C139.8,159,139.8,159,139.8,158.9
	C139.8,159,139.8,159,139.8,158.9L139.8,158.9z M140.3,132.1L140.3,132.1L140.3,132.1L140.3,132.1L140.3,132.1
	C140.3,132.1,140.2,132.1,140.3,132.1C140.2,132.1,140.2,132.1,140.3,132.1L140.3,132.1L140.3,132.1L140.3,132.1z M153,72.4
	C153,72.4,153,72.5,153,72.4C153,72.5,153,72.5,153,72.4L153,72.4z M154.1,29.6c0-0.1-0.1-0.1-0.1-0.2c0,0,0,0.1-0.1,0.1
	C154,29.5,154,29.5,154.1,29.6L154.1,29.6L154.1,29.6z M155.1,168c0-0.2,0-0.4,0-0.6l0,0l-0.1,0.1C155,167.7,155,167.8,155.1,168z
	 M155.1,164.7v-0.1l0,0l0,0l0,0l0,0l0,0C155.1,164.6,155.1,164.7,155.1,164.7L155.1,164.7z M157.6,51.8L157.6,51.8L157.6,51.8
	L157.6,51.8z M161.1,150.6c-0.1,0.2-0.2,0.4-0.3,0.7c0.1,0.1,0.1,0.2,0.1,0.3C161,151.3,161,150.9,161.1,150.6z M167.5,166.3
	l-0.1-0.1c0,0.1,0,0.1,0,0.2l0,0l0,0C167.4,166.4,167.4,166.3,167.5,166.3z M172,107.7L172,107.7L172,107.7L172,107.7L172,107.7
	c0,0.1,0,0.1-0.1,0.2C172,107.8,172,107.7,172,107.7z M175.3,144.3L175.3,144.3C175.2,144.3,175.2,144.4,175.3,144.3
	C175.2,144.4,175.2,144.4,175.3,144.3C175.3,144.4,175.3,144.4,175.3,144.3L175.3,144.3z M186.9,148c0,0.1-0.1,0.2-0.1,0.3l0,0
	C186.9,148.2,186.9,148.1,186.9,148z M189,64.2c0,0,0-0.1-0.1-0.1c0,0.1,0,0.2,0,0.2C189,64.3,189,64.3,189,64.2z M195.5,49.6
	l-0.2-0.2l0,0l0,0c0,0.1,0.1,0.2,0.1,0.4C195.4,49.8,195.4,49.7,195.5,49.6z M197.5,57.7C197.4,57.7,197.4,57.7,197.5,57.7
	C197.4,57.7,197.4,57.8,197.5,57.7L197.5,57.7L197.5,57.7C197.4,57.8,197.5,57.8,197.5,57.7z M199.5,114.5L199.5,114.5
	C199.6,114.5,199.5,114.5,199.5,114.5L199.5,114.5L199.5,114.5z M199.6,114.5L199.6,114.5L199.6,114.5L199.6,114.5z M199.6,114.5
	C199.6,114.5,199.6,114.4,199.6,114.5C199.6,114.4,199.5,114.5,199.6,114.5L199.6,114.5z M202.1,44.2c0-0.1,0-0.1,0-0.2
	C202.1,44.1,202.1,44.1,202.1,44.2L202.1,44.2z M202.7,102.2C202.7,102.2,202.6,102.2,202.7,102.2
	C202.6,102.2,202.6,102.2,202.7,102.2L202.7,102.2C202.6,102.2,202.6,102.2,202.7,102.2C202.6,102.2,202.7,102.2,202.7,102.2z
	 M206.4,32L206.4,32L206.4,32L206.4,32z M172,107.7L172,107.7L172,107.7L172,107.7z" class="color c1"/>
</svg>