<svg version="1.1" id="图层_1" x="0px" y="0px" width="160.161px" height="132.035px" viewBox="0 0 160.161 132.035" enable-background="new 0 0 160.161 132.035" xml:space="preserve" xmlns="http://www.w3.org/2000/svg" xmlns:xlink="http://www.w3.org/1999/xlink" xmlns:xml="http://www.w3.org/XML/1998/namespace">
  <path fill="#F00484" d="M96.14,0c-0.64,0-1.28,0.01-1.92,0.01c-4.23,0.05-8.44,0.28-12.59,0.67C23.03,6.22,0.22,15.23,0,66.99
	c0,0,2.35,64.45,45.47,65.03c0.26,0.01,0.51,0.01,0.77,0.01c15.07-0.06,35.05-7.84,61.52-28.66c11.87-9.33,21.43-17.95,28.97-25.88
	C189.45,22,143.23,0.04,96.14,0z M92.04,23.32c-2.98,0-5.39-2.42-5.39-5.39c0-2.98,2.41-5.39,5.39-5.39c2.98,0,5.39,2.41,5.39,5.39
	C97.43,20.9,95.02,23.32,92.04,23.32z" class="color c1"/>
  <path fill="#EE0403" d="M136.73,77.49c-0.04-0.32-0.09-0.64-0.14-0.96c-0.17-1.29-5.98-42.7-39.97-76.06l0.01,0.03
	c-0.15-0.17-0.32-0.33-0.49-0.5c-0.64,0-1.28,0.01-1.92,0.01c-4.08,0.07-8.16,0.29-12.16,0.67C23.46,6.22,0.65,15.23,0.43,66.99
	c0,0,2.33,64.03,45.04,65.03c0.26,0.01,0.51,0.01,0.77,0.01c15.13,0.09,35.23-7.65,61.95-28.66c11.68-9.19,21.11-17.68,28.59-25.5
	C136.76,77.74,136.75,77.61,136.73,77.49z M92.04,12.54c2.98,0,5.39,2.41,5.39,5.39c0,2.97-2.41,5.39-5.39,5.39
	c-2.98,0-5.39-2.42-5.39-5.39C86.65,14.95,89.06,12.54,92.04,12.54z" class="color c2"/>
</svg>