<svg version="1.1" id="图层_1" x="0px" y="0px" width="350px" height="350px" viewBox="0 0 350 350" enable-background="new 0 0 350 350" xml:space="preserve" xmlns="http://www.w3.org/2000/svg" xmlns:xlink="http://www.w3.org/1999/xlink" xmlns:xml="http://www.w3.org/XML/1998/namespace">
  <g>
    <g>
      <path fill="#D7A36C" d="M175,350c-0.338,0-0.676-0.131-0.934-0.387L0.387,175.934c-0.516-0.516-0.516-1.352,0-1.868L174.066,0.387
			c0.516-0.516,1.352-0.516,1.868,0l173.68,173.68c0.516,0.516,0.516,1.352,0,1.868l-173.68,173.68
			C175.676,349.87,175.338,350,175,350z M3.188,175L175,346.813L346.813,175L175,3.188L3.188,175z" class="color c1"/>
    </g>
    <g>
      <g>
        <g>
          <path fill="#D7A36C" d="M14.743,177.577c-0.211,0-0.422-0.082-0.584-0.242l-1.75-1.75c-0.322-0.322-0.322-0.846,0-1.168
					l1.75-1.75c0.323-0.323,0.845-0.323,1.167,0c0.323,0.322,0.323,0.845,0,1.168L14.159,175l1.167,1.167
					c0.323,0.322,0.323,0.846,0,1.168C15.165,177.495,14.954,177.577,14.743,177.577z" class="color c1"/>
        </g>
      </g>
      <g>
        <g>
          <path fill="#D7A36C" d="M18.265,170.553c-0.211,0-0.423-0.081-0.583-0.242c-0.323-0.322-0.323-0.845,0-1.166l3.522-3.523
					c0.322-0.322,0.844-0.322,1.167,0c0.323,0.322,0.323,0.846,0,1.167l-3.522,3.522C18.688,170.472,18.476,170.553,18.265,170.553z
					 M25.31,163.508c-0.211,0-0.422-0.081-0.583-0.242c-0.323-0.322-0.323-0.845,0-1.167l3.522-3.522
					c0.322-0.322,0.845-0.322,1.167,0c0.322,0.323,0.322,0.846,0,1.167l-3.522,3.522C25.732,163.427,25.521,163.508,25.31,163.508z
					 M32.354,156.463c-0.211,0-0.422-0.081-0.583-0.241c-0.323-0.323-0.323-0.846,0-1.168l3.522-3.521
					c0.322-0.323,0.845-0.323,1.167,0c0.322,0.321,0.322,0.845,0,1.166l-3.522,3.523C32.777,156.382,32.566,156.463,32.354,156.463z
					 M39.399,149.418c-0.211,0-0.422-0.08-0.584-0.241c-0.323-0.322-0.323-0.845,0-1.168l3.522-3.521
					c0.322-0.322,0.845-0.322,1.167,0c0.323,0.321,0.323,0.844,0,1.167l-3.522,3.522C39.821,149.338,39.61,149.418,39.399,149.418z
					 M46.444,142.374c-0.211,0-0.422-0.081-0.583-0.243c-0.322-0.321-0.322-0.844,0-1.166l3.523-3.523
					c0.322-0.321,0.844-0.321,1.167,0c0.322,0.322,0.322,0.845,0,1.168l-3.522,3.521C46.867,142.293,46.655,142.374,46.444,142.374z
					 M53.489,135.328c-0.211,0-0.423-0.08-0.583-0.242c-0.322-0.321-0.322-0.844,0-1.166l3.522-3.521
					c0.322-0.324,0.844-0.323,1.167,0c0.323,0.321,0.323,0.844,0,1.166l-3.522,3.521C53.911,135.248,53.7,135.328,53.489,135.328z
					 M60.533,128.283c-0.211,0-0.422-0.08-0.583-0.241c-0.323-0.321-0.323-0.844,0-1.167l3.522-3.522
					c0.322-0.321,0.845-0.321,1.167,0c0.322,0.322,0.322,0.845,0,1.167l-3.522,3.522C60.956,128.203,60.745,128.283,60.533,128.283z
					 M67.578,121.238c-0.211,0-0.422-0.081-0.583-0.241c-0.323-0.322-0.323-0.845,0-1.167l3.522-3.522
					c0.322-0.322,0.845-0.322,1.167,0s0.322,0.845,0,1.168l-3.522,3.521C68,121.157,67.79,121.238,67.578,121.238z M74.623,114.194
					c-0.211,0-0.422-0.081-0.583-0.242c-0.322-0.322-0.322-0.845,0-1.166l3.522-3.523c0.322-0.322,0.845-0.322,1.167,0
					c0.323,0.323,0.323,0.846,0,1.168l-3.522,3.521C75.046,114.113,74.834,114.194,74.623,114.194z M81.668,107.149
					c-0.212,0-0.423-0.081-0.584-0.241c-0.322-0.323-0.322-0.846,0-1.167l3.522-3.522c0.323-0.323,0.845-0.323,1.167,0
					c0.323,0.322,0.323,0.845,0,1.166l-3.522,3.523C82.09,107.068,81.879,107.149,81.668,107.149z M88.712,100.104
					c-0.211,0-0.423-0.081-0.583-0.241c-0.322-0.322-0.322-0.846,0-1.168l3.522-3.521c0.322-0.322,0.845-0.322,1.167,0
					c0.323,0.322,0.323,0.845,0,1.166l-3.522,3.523C89.135,100.023,88.923,100.104,88.712,100.104z M95.757,93.061
					c-0.211,0-0.422-0.081-0.583-0.242c-0.323-0.322-0.323-0.845,0-1.168l3.522-3.521c0.322-0.322,0.845-0.322,1.167,0
					c0.322,0.323,0.322,0.846,0,1.167l-3.523,3.522C96.18,92.979,95.968,93.061,95.757,93.061z M102.802,86.016
					c-0.211,0-0.422-0.081-0.584-0.241c-0.323-0.323-0.323-0.846,0-1.168l3.522-3.521c0.322-0.323,0.845-0.323,1.167,0
					c0.322,0.321,0.322,0.844,0,1.166l-3.522,3.523C103.224,85.935,103.013,86.016,102.802,86.016z M109.847,78.971
					c-0.211,0-0.422-0.081-0.583-0.242c-0.322-0.322-0.322-0.845,0-1.167l3.523-3.522c0.321-0.322,0.844-0.322,1.167,0.001
					c0.322,0.321,0.322,0.844,0,1.166l-3.522,3.522C110.269,78.89,110.058,78.971,109.847,78.971z M116.892,71.927
					c-0.212,0-0.423-0.081-0.584-0.242c-0.322-0.322-0.322-0.845,0-1.168l3.522-3.521c0.322-0.322,0.845-0.322,1.167,0
					c0.323,0.321,0.323,0.844,0,1.167l-3.522,3.522C117.313,71.846,117.103,71.927,116.892,71.927z M123.936,64.882
					c-0.211,0-0.422-0.081-0.583-0.243c-0.323-0.321-0.323-0.844,0-1.166l3.522-3.523c0.322-0.322,0.845-0.321,1.167,0
					c0.323,0.323,0.323,0.846,0,1.168l-3.522,3.521C124.358,64.801,124.147,64.882,123.936,64.882z M130.98,57.836
					c-0.211,0-0.422-0.08-0.583-0.242c-0.323-0.322-0.323-0.845,0-1.166l3.522-3.522c0.322-0.323,0.845-0.323,1.167,0
					c0.322,0.322,0.322,0.845,0,1.167l-3.522,3.521C131.403,57.756,131.191,57.836,130.98,57.836z M138.025,50.791
					c-0.211,0-0.422-0.081-0.583-0.241c-0.322-0.323-0.322-0.846,0-1.167l3.522-3.522c0.322-0.323,0.845-0.323,1.167,0
					c0.322,0.322,0.322,0.845,0,1.168l-3.522,3.521C138.448,50.71,138.237,50.791,138.025,50.791z M145.07,43.747
					c-0.211,0-0.422-0.081-0.583-0.242c-0.322-0.322-0.322-0.845,0-1.166l3.522-3.523c0.322-0.322,0.845-0.322,1.167,0
					c0.322,0.323,0.322,0.846,0,1.167l-3.522,3.522C145.493,43.666,145.282,43.747,145.07,43.747z M152.115,36.702
					c-0.211,0-0.423-0.081-0.584-0.242c-0.322-0.322-0.322-0.845,0-1.166l3.522-3.523c0.322-0.322,0.845-0.322,1.167,0
					c0.323,0.323,0.323,0.846,0,1.167l-3.522,3.522C152.538,36.621,152.326,36.702,152.115,36.702z M159.16,29.657
					c-0.211,0-0.422-0.081-0.584-0.241c-0.322-0.323-0.322-0.846,0-1.168l3.523-3.521c0.322-0.323,0.845-0.323,1.167,0
					c0.322,0.322,0.322,0.845,0,1.166l-3.523,3.523C159.583,29.576,159.371,29.657,159.16,29.657z M166.205,22.613
					c-0.211,0-0.423-0.081-0.583-0.242c-0.323-0.322-0.323-0.845,0-1.168l3.522-3.521c0.322-0.322,0.844-0.322,1.167,0
					c0.322,0.321,0.322,0.844,0,1.167l-3.522,3.522C166.627,22.532,166.416,22.613,166.205,22.613z" class="color c1"/>
        </g>
      </g>
      <g>
        <g>
          <path fill="#D7A36C" d="M176.75,15.568c-0.211,0-0.422-0.081-0.583-0.242L175,14.159l-1.167,1.167
					c-0.322,0.321-0.845,0.321-1.167,0c-0.322-0.322-0.322-0.845,0-1.167l1.751-1.751c0.322-0.322,0.845-0.322,1.166,0l1.751,1.751
					c0.322,0.322,0.322,0.845,0,1.167C177.173,15.487,176.962,15.568,176.75,15.568z" class="color c1"/>
        </g>
      </g>
      <g>
        <g>
          <path fill="#D7A36C" d="M331.734,170.553c-0.211,0-0.422-0.081-0.583-0.242l-3.522-3.522c-0.322-0.321-0.322-0.845,0-1.167
					s0.846-0.322,1.167,0l3.522,3.523c0.322,0.321,0.322,0.844,0,1.166C332.158,170.472,331.945,170.553,331.734,170.553z
					 M324.69,163.508c-0.211,0-0.423-0.081-0.584-0.242l-3.522-3.522c-0.322-0.321-0.322-0.844,0-1.167
					c0.322-0.322,0.846-0.322,1.168,0l3.521,3.522c0.322,0.322,0.322,0.845,0,1.167C325.113,163.427,324.901,163.508,324.69,163.508
					z M317.645,156.463c-0.211,0-0.422-0.081-0.582-0.241l-3.523-3.523c-0.322-0.321-0.322-0.844,0-1.166
					c0.322-0.323,0.846-0.323,1.168,0l3.521,3.521c0.322,0.322,0.322,0.845,0,1.168
					C318.068,156.382,317.857,156.463,317.645,156.463z M310.601,149.418c-0.211,0-0.422-0.08-0.583-0.241l-3.522-3.522
					c-0.323-0.323-0.323-0.846,0-1.167c0.321-0.322,0.845-0.322,1.167,0l3.522,3.521c0.321,0.323,0.321,0.846,0,1.168
					C311.023,149.338,310.813,149.418,310.601,149.418z M303.557,142.374c-0.211,0-0.424-0.081-0.584-0.243l-3.522-3.521
					c-0.322-0.323-0.322-0.846-0.001-1.167c0.323-0.322,0.846-0.322,1.168,0l3.522,3.522c0.322,0.322,0.322,0.845,0,1.166
					C303.979,142.293,303.768,142.374,303.557,142.374z M296.512,135.329c-0.212,0-0.423-0.081-0.584-0.241l-3.522-3.523
					c-0.322-0.322-0.322-0.845,0-1.166c0.321-0.323,0.845-0.323,1.167,0l3.522,3.521c0.322,0.322,0.322,0.845,0,1.168
					C296.934,135.248,296.723,135.329,296.512,135.329z M289.467,128.283c-0.212,0-0.423-0.08-0.584-0.241l-3.522-3.522
					c-0.321-0.322-0.321-0.845,0-1.167c0.322-0.321,0.845-0.321,1.167,0l3.522,3.522c0.323,0.323,0.323,0.846,0,1.167
					C289.889,128.203,289.678,128.283,289.467,128.283z M282.422,121.238c-0.211,0-0.423-0.079-0.584-0.241l-3.521-3.521
					c-0.323-0.323-0.323-0.846,0-1.168c0.321-0.322,0.845-0.322,1.166,0l3.523,3.522c0.321,0.322,0.321,0.846,0,1.167
					C282.844,121.159,282.633,121.238,282.422,121.238z M275.377,114.194c-0.211,0-0.423-0.081-0.584-0.242l-3.521-3.521
					c-0.322-0.322-0.322-0.845,0-1.168c0.322-0.322,0.844-0.322,1.167,0l3.522,3.523c0.322,0.321,0.322,0.844,0,1.166
					C275.799,114.113,275.588,114.194,275.377,114.194z M268.332,107.149c-0.211,0-0.422-0.081-0.583-0.241l-3.522-3.523
					c-0.322-0.321-0.322-0.844,0-1.166c0.322-0.323,0.845-0.323,1.168,0l3.521,3.522c0.322,0.321,0.322,0.844,0,1.167
					C268.755,107.068,268.543,107.149,268.332,107.149z M261.287,100.104c-0.211,0-0.422-0.081-0.582-0.241l-3.523-3.521
					c-0.322-0.323-0.322-0.846,0-1.168s0.845-0.322,1.167,0l3.522,3.521c0.322,0.322,0.322,0.846,0,1.168
					C261.711,100.023,261.498,100.104,261.287,100.104z M254.243,93.061c-0.212,0-0.423-0.081-0.584-0.242l-3.522-3.522
					c-0.322-0.321-0.322-0.844,0-1.167c0.322-0.322,0.846-0.322,1.168,0l3.521,3.521c0.322,0.323,0.322,0.846,0,1.168
					C254.665,92.979,254.454,93.061,254.243,93.061z M247.197,86.016c-0.211,0-0.422-0.081-0.582-0.241l-3.523-3.523
					c-0.322-0.321-0.322-0.845,0-1.166c0.322-0.323,0.846-0.323,1.168,0l3.521,3.521c0.323,0.322,0.323,0.845,0,1.168
					C247.62,85.935,247.409,86.016,247.197,86.016z M240.153,78.971c-0.211,0-0.423-0.081-0.583-0.241l-3.522-3.523
					c-0.323-0.322-0.323-0.845,0-1.167c0.321-0.322,0.845-0.322,1.167,0.001l3.521,3.521c0.322,0.322,0.322,0.845,0,1.168
					C240.576,78.89,240.364,78.971,240.153,78.971z M233.108,71.927c-0.211,0-0.423-0.081-0.583-0.242l-3.522-3.522
					c-0.323-0.323-0.323-0.846-0.001-1.167c0.323-0.322,0.846-0.322,1.168,0l3.521,3.521c0.323,0.323,0.323,0.846,0,1.168
					C233.531,71.846,233.319,71.927,233.108,71.927z M226.064,64.882c-0.211,0-0.423-0.081-0.584-0.243l-3.521-3.521
					c-0.323-0.322-0.323-0.845,0-1.168c0.32-0.321,0.844-0.321,1.166,0l3.523,3.523c0.321,0.322,0.321,0.845,0,1.166
					C226.486,64.801,226.275,64.882,226.064,64.882z M219.02,57.836c-0.212,0-0.423-0.08-0.584-0.242l-3.522-3.521
					c-0.321-0.322-0.321-0.845,0-1.167c0.322-0.322,0.845-0.322,1.167,0l3.522,3.522c0.323,0.321,0.323,0.844,0,1.166
					C219.441,57.756,219.23,57.836,219.02,57.836z M211.975,50.791c-0.211,0-0.422-0.079-0.584-0.241l-3.521-3.521
					c-0.322-0.323-0.322-0.846,0-1.168c0.321-0.323,0.845-0.323,1.166,0l3.523,3.522c0.321,0.323,0.321,0.846,0,1.167
					C212.396,50.712,212.186,50.791,211.975,50.791z M204.93,43.747c-0.211,0-0.423-0.081-0.584-0.242l-3.521-3.522
					c-0.322-0.321-0.322-0.844,0-1.167c0.322-0.322,0.844-0.322,1.167,0l3.521,3.523c0.323,0.321,0.323,0.844,0.001,1.166
					C205.352,43.666,205.141,43.747,204.93,43.747z M197.885,36.702c-0.211,0-0.422-0.081-0.583-0.242l-3.522-3.522
					c-0.322-0.321-0.322-0.844,0-1.167c0.322-0.322,0.845-0.322,1.166,0l3.523,3.523c0.322,0.321,0.322,0.844,0,1.166
					C198.308,36.621,198.096,36.702,197.885,36.702z M190.84,29.657c-0.211,0-0.422-0.081-0.583-0.241l-3.522-3.523
					c-0.322-0.321-0.322-0.844,0-1.166c0.322-0.323,0.845-0.323,1.167,0l3.522,3.521c0.322,0.322,0.322,0.845,0,1.168
					C191.263,29.576,191.051,29.657,190.84,29.657z M183.795,22.613c-0.211,0-0.422-0.081-0.583-0.242l-3.522-3.522
					c-0.322-0.323-0.322-0.846,0-1.167c0.322-0.322,0.846-0.322,1.167,0l3.522,3.521c0.322,0.323,0.322,0.846,0,1.168
					C184.219,22.532,184.007,22.613,183.795,22.613z" class="color c1"/>
        </g>
      </g>
      <g>
        <g>
          <path fill="#D7A36C" d="M335.258,177.577c-0.211,0-0.423-0.082-0.584-0.242c-0.322-0.322-0.322-0.846,0-1.168l1.168-1.167
					l-1.168-1.166c-0.322-0.323-0.322-0.846,0-1.168c0.322-0.323,0.845-0.323,1.168,0l1.75,1.75c0.322,0.322,0.322,0.846,0,1.168
					l-1.75,1.75C335.68,177.495,335.469,177.577,335.258,177.577z" class="color c1"/>
        </g>
      </g>
      <g>
        <g>
          <path fill="#D7A36C" d="M180.273,332.559c-0.212,0-0.423-0.078-0.584-0.24c-0.322-0.322-0.322-0.844,0-1.168l3.522-3.521
					c0.321-0.322,0.845-0.322,1.167,0s0.322,0.844,0,1.168l-3.522,3.521C180.695,332.481,180.484,332.559,180.273,332.559z
					 M187.318,325.516c-0.211,0-0.423-0.082-0.584-0.242c-0.322-0.322-0.322-0.846,0-1.166l3.522-3.523
					c0.322-0.322,0.845-0.322,1.167,0s0.322,0.846,0,1.166l-3.522,3.523C187.74,325.434,187.529,325.516,187.318,325.516z
					 M194.363,318.471c-0.212,0-0.423-0.08-0.584-0.242c-0.322-0.32-0.322-0.846,0-1.166l3.522-3.523
					c0.321-0.322,0.845-0.322,1.167,0s0.322,0.846,0,1.168l-3.522,3.521C194.785,318.391,194.574,318.471,194.363,318.471z
					 M201.407,311.426c-0.211,0-0.422-0.082-0.583-0.242c-0.322-0.322-0.322-0.846,0-1.166l3.521-3.523
					c0.322-0.322,0.846-0.322,1.168,0s0.322,0.846,0,1.166l-3.522,3.523C201.83,311.344,201.619,311.426,201.407,311.426z
					 M208.451,304.381c-0.211,0-0.422-0.08-0.582-0.242c-0.322-0.322-0.322-0.844,0-1.168l3.521-3.521
					c0.322-0.322,0.846-0.322,1.168,0c0.321,0.324,0.321,0.846,0,1.168l-3.523,3.521
					C208.875,304.301,208.664,304.381,208.451,304.381z M215.497,297.336c-0.212,0-0.423-0.08-0.584-0.24
					c-0.321-0.324-0.321-0.846,0-1.168l3.522-3.521c0.322-0.324,0.846-0.324,1.167,0c0.323,0.322,0.323,0.844,0,1.166l-3.522,3.523
					C215.92,297.256,215.708,297.336,215.497,297.336z M222.541,290.292c-0.211,0-0.422-0.08-0.582-0.24
					c-0.323-0.324-0.323-0.846,0-1.168l3.521-3.521c0.322-0.322,0.845-0.322,1.168,0c0.321,0.32,0.321,0.844,0,1.166l-3.523,3.523
					C222.965,290.211,222.752,290.292,222.541,290.292z M229.586,283.249c-0.211,0-0.422-0.082-0.583-0.244
					c-0.323-0.32-0.323-0.844,0-1.166l3.522-3.523c0.322-0.32,0.846-0.32,1.167,0c0.322,0.322,0.322,0.846,0,1.168l-3.522,3.521
					C230.009,283.167,229.797,283.249,229.586,283.249z M236.631,276.202c-0.211,0-0.422-0.08-0.583-0.24
					c-0.323-0.322-0.323-0.846,0-1.168l3.522-3.521c0.322-0.324,0.845-0.322,1.166,0c0.322,0.322,0.322,0.844,0,1.166l-3.521,3.523
					C237.053,276.122,236.842,276.202,236.631,276.202z M243.676,269.159c-0.211,0-0.422-0.082-0.584-0.242
					c-0.322-0.322-0.322-0.846,0-1.168l3.523-3.521c0.321-0.322,0.844-0.322,1.166,0c0.323,0.322,0.323,0.844,0,1.166l-3.521,3.523
					C244.098,269.077,243.887,269.159,243.676,269.159z M250.721,262.112c-0.211,0-0.422-0.08-0.584-0.24
					c-0.322-0.324-0.322-0.846,0-1.168l3.523-3.521c0.32-0.324,0.844-0.324,1.166,0c0.322,0.322,0.322,0.844,0,1.168l-3.521,3.521
					C251.143,262.032,250.932,262.112,250.721,262.112z M257.766,255.069c-0.211,0-0.423-0.08-0.584-0.242
					c-0.322-0.322-0.322-0.844,0-1.166l3.523-3.523c0.321-0.322,0.844-0.322,1.166,0s0.322,0.846,0,1.168l-3.522,3.521
					C258.188,254.989,257.977,255.069,257.766,255.069z M264.811,248.024c-0.213,0-0.424-0.082-0.584-0.242
					c-0.322-0.322-0.322-0.846,0-1.166l3.522-3.523c0.321-0.322,0.845-0.322,1.167,0s0.322,0.846,0,1.166l-3.521,3.523
					C265.232,247.942,265.021,248.024,264.811,248.024z M271.854,240.979c-0.211,0-0.422-0.082-0.583-0.242
					c-0.322-0.322-0.322-0.846,0-1.168l3.521-3.521c0.322-0.322,0.846-0.322,1.168,0s0.322,0.846,0,1.168l-3.522,3.521
					C272.277,240.897,272.066,240.979,271.854,240.979z M278.898,233.934c-0.211,0-0.422-0.08-0.582-0.242
					c-0.322-0.322-0.322-0.844,0-1.168l3.521-3.521c0.322-0.322,0.846-0.322,1.168,0c0.321,0.324,0.321,0.846,0,1.168l-3.523,3.521
					C279.322,233.854,279.111,233.934,278.898,233.934z M285.944,226.889c-0.212,0-0.423-0.08-0.584-0.242
					c-0.321-0.322-0.321-0.844,0-1.166l3.522-3.523c0.322-0.322,0.846-0.322,1.167,0c0.323,0.322,0.323,0.846,0,1.168l-3.522,3.521
					C286.366,226.809,286.155,226.889,285.944,226.889z M292.989,219.844c-0.212,0-0.423-0.08-0.583-0.24
					c-0.323-0.324-0.323-0.846,0-1.168l3.521-3.521c0.322-0.324,0.845-0.324,1.168,0c0.321,0.32,0.321,0.844,0,1.166l-3.523,3.523
					C293.412,219.764,293.2,219.844,292.989,219.844z M300.033,212.801c-0.211,0-0.422-0.082-0.583-0.242
					c-0.322-0.322-0.322-0.846,0-1.168l3.522-3.521c0.322-0.322,0.845-0.322,1.167,0c0.322,0.32,0.322,0.844,0,1.166l-3.522,3.523
					C300.456,212.719,300.244,212.801,300.033,212.801z M307.078,205.754c-0.211,0-0.422-0.08-0.583-0.242
					c-0.323-0.32-0.323-0.844,0-1.166l3.522-3.523c0.322-0.32,0.845-0.32,1.167,0c0.323,0.322,0.323,0.846,0,1.168l-3.522,3.521
					C307.501,205.674,307.29,205.754,307.078,205.754z M314.123,198.709c-0.211,0-0.423-0.08-0.584-0.242
					c-0.322-0.32-0.322-0.844,0-1.166l3.523-3.523c0.321-0.322,0.845-0.322,1.166,0c0.323,0.324,0.323,0.846,0,1.168l-3.521,3.521
					C314.545,198.629,314.334,198.709,314.123,198.709z M321.168,191.665c-0.211,0-0.422-0.078-0.584-0.24
					c-0.322-0.322-0.322-0.846,0-1.168l3.523-3.521c0.322-0.322,0.844-0.322,1.166,0s0.322,0.844,0,1.168l-3.521,3.521
					C321.591,191.586,321.379,191.665,321.168,191.665z M328.213,184.62c-0.212,0-0.423-0.08-0.584-0.24
					c-0.322-0.322-0.322-0.846,0-1.166l3.523-3.523c0.321-0.322,0.844-0.322,1.166,0s0.322,0.844,0,1.166l-3.522,3.523
					C328.635,184.54,328.424,184.62,328.213,184.62z" class="color c1"/>
        </g>
      </g>
      <g>
        <g>
          <path fill="#D7A36C" d="M175,337.833c-0.211,0-0.422-0.08-0.583-0.24l-1.751-1.752c-0.322-0.322-0.322-0.844,0-1.166
					c0.322-0.324,0.845-0.324,1.167,0L175,335.84l1.167-1.166c0.322-0.324,0.845-0.324,1.167,0c0.322,0.322,0.322,0.844,0,1.166
					l-1.751,1.752C175.422,337.752,175.211,337.833,175,337.833z" class="color c1"/>
        </g>
      </g>
      <g>
        <g>
          <path fill="#D7A36C" d="M169.727,332.559c-0.211,0-0.422-0.078-0.583-0.24l-3.522-3.521c-0.323-0.324-0.323-0.846,0-1.168
					c0.322-0.322,0.845-0.322,1.167,0l3.522,3.521c0.323,0.324,0.323,0.846,0,1.168
					C170.149,332.481,169.938,332.559,169.727,332.559z M162.682,325.516c-0.211,0-0.423-0.082-0.583-0.242l-3.522-3.523
					c-0.323-0.32-0.323-0.844,0-1.166c0.322-0.322,0.845-0.322,1.167,0l3.522,3.523c0.322,0.32,0.322,0.844,0,1.166
					C163.104,325.434,162.894,325.516,162.682,325.516z M155.637,318.471c-0.211,0-0.422-0.08-0.583-0.242l-3.523-3.521
					c-0.322-0.322-0.322-0.846,0-1.168s0.845-0.322,1.167,0l3.522,3.523c0.323,0.32,0.323,0.846,0,1.166
					C156.06,318.391,155.849,318.471,155.637,318.471z M148.593,311.426c-0.211,0-0.422-0.082-0.584-0.242l-3.522-3.523
					c-0.322-0.32-0.322-0.844,0-1.166s0.845-0.322,1.167,0l3.522,3.523c0.322,0.32,0.322,0.844,0,1.166
					C149.016,311.344,148.804,311.426,148.593,311.426z M141.548,304.381c-0.212,0-0.423-0.08-0.584-0.242l-3.522-3.521
					c-0.322-0.324-0.322-0.846,0-1.168s0.845-0.322,1.167,0l3.522,3.521c0.322,0.324,0.322,0.846,0,1.168
					C141.97,304.301,141.759,304.381,141.548,304.381z M134.503,297.336c-0.211,0-0.422-0.08-0.583-0.242l-3.522-3.521
					c-0.323-0.322-0.323-0.844,0-1.166c0.322-0.324,0.844-0.324,1.167,0l3.522,3.521c0.322,0.322,0.322,0.844,0,1.166
					C134.926,297.256,134.714,297.336,134.503,297.336z M127.458,290.292c-0.211,0-0.423-0.08-0.583-0.24l-3.522-3.523
					c-0.323-0.322-0.323-0.846,0-1.166c0.322-0.322,0.844-0.322,1.167,0l3.522,3.521c0.323,0.322,0.323,0.844,0,1.168
					C127.881,290.211,127.669,290.292,127.458,290.292z M120.414,283.249c-0.211,0-0.422-0.082-0.583-0.244l-3.522-3.521
					c-0.323-0.322-0.323-0.846,0-1.168c0.322-0.32,0.845-0.32,1.167,0l3.522,3.523c0.323,0.322,0.323,0.846,0,1.166
					C120.836,283.167,120.625,283.249,120.414,283.249z M113.369,276.202c-0.211,0-0.422-0.08-0.583-0.24l-3.523-3.523
					c-0.322-0.322-0.322-0.844,0-1.168c0.322-0.322,0.845-0.322,1.167,0l3.522,3.523c0.322,0.322,0.322,0.846,0,1.168
					C113.792,276.122,113.58,276.202,113.369,276.202z M106.325,269.157c-0.212,0-0.423-0.08-0.584-0.24l-3.522-3.523
					c-0.323-0.322-0.323-0.844,0-1.166c0.322-0.322,0.845-0.322,1.167,0l3.522,3.521c0.323,0.322,0.323,0.846,0,1.168
					C106.747,269.077,106.536,269.157,106.325,269.157z M99.279,262.112c-0.211,0-0.422-0.08-0.583-0.24l-3.522-3.523
					c-0.323-0.322-0.323-0.844,0-1.166c0.322-0.324,0.845-0.324,1.167,0l3.522,3.521c0.322,0.322,0.322,0.844,0,1.168
					C99.702,262.032,99.491,262.112,99.279,262.112z M92.235,255.069c-0.211,0-0.423-0.08-0.583-0.242l-3.522-3.521
					c-0.322-0.322-0.322-0.846,0-1.168s0.845-0.322,1.167,0l3.523,3.523c0.322,0.322,0.322,0.844,0,1.166
					C92.657,254.989,92.446,255.069,92.235,255.069z M85.19,248.024c-0.211,0-0.422-0.082-0.584-0.242l-3.522-3.523
					c-0.322-0.32-0.322-0.844,0-1.166c0.322-0.322,0.845-0.322,1.167,0l3.522,3.523c0.323,0.32,0.323,0.844,0,1.166
					C85.613,247.942,85.401,248.024,85.19,248.024z M78.146,240.979c-0.211,0-0.423-0.082-0.584-0.242l-3.522-3.521
					c-0.322-0.322-0.322-0.846,0-1.168c0.323-0.322,0.845-0.322,1.167,0l3.522,3.521c0.323,0.322,0.323,0.846,0,1.168
					C78.568,240.897,78.356,240.979,78.146,240.979z M71.101,233.934c-0.212,0-0.423-0.08-0.584-0.242l-3.522-3.521
					c-0.322-0.322-0.322-0.844,0-1.168c0.322-0.322,0.845-0.322,1.167,0l3.522,3.523c0.323,0.322,0.323,0.844,0,1.166
					C71.523,233.854,71.312,233.934,71.101,233.934z M64.056,226.889c-0.211,0-0.422-0.08-0.583-0.242l-3.522-3.521
					c-0.323-0.322-0.323-0.846,0-1.168c0.322-0.322,0.844-0.322,1.167,0l3.522,3.523c0.322,0.322,0.322,0.844,0,1.166
					C64.478,226.809,64.267,226.889,64.056,226.889z M57.011,219.844c-0.211,0-0.422-0.08-0.583-0.24l-3.522-3.523
					c-0.322-0.322-0.322-0.846,0-1.168s0.845-0.322,1.167,0l3.523,3.523c0.322,0.322,0.322,0.844,0,1.168
					C57.434,219.764,57.222,219.844,57.011,219.844z M49.966,212.799c-0.211,0-0.422-0.08-0.583-0.242l-3.523-3.521
					c-0.322-0.322-0.322-0.846,0-1.166c0.322-0.322,0.845-0.322,1.167,0l3.522,3.521c0.322,0.322,0.322,0.846,0,1.166
					C50.389,212.719,50.177,212.799,49.966,212.799z M42.922,205.754c-0.211,0-0.423-0.08-0.584-0.242l-3.522-3.521
					c-0.322-0.322-0.322-0.846,0-1.168c0.322-0.32,0.845-0.32,1.167,0l3.522,3.523c0.323,0.322,0.323,0.846,0,1.166
					C43.344,205.674,43.133,205.754,42.922,205.754z M35.876,198.709c-0.211,0-0.422-0.08-0.583-0.242l-3.522-3.521
					c-0.322-0.322-0.322-0.844,0-1.168c0.322-0.322,0.845-0.322,1.167,0l3.522,3.523c0.322,0.322,0.322,0.846,0,1.166
					C36.3,198.629,36.088,198.709,35.876,198.709z M28.832,191.665c-0.211,0-0.422-0.078-0.583-0.24l-3.522-3.521
					c-0.323-0.324-0.323-0.846,0-1.168c0.322-0.324,0.845-0.324,1.167,0l3.522,3.521c0.322,0.322,0.322,0.846,0,1.168
					C29.254,191.586,29.043,191.665,28.832,191.665z M21.787,184.62c-0.211,0-0.422-0.08-0.583-0.24l-3.522-3.523
					c-0.323-0.322-0.323-0.844,0-1.166c0.322-0.322,0.845-0.322,1.167,0l3.522,3.523c0.323,0.32,0.323,0.844,0,1.166
					C22.21,184.54,21.999,184.62,21.787,184.62z" class="color c1"/>
        </g>
      </g>
    </g>
  </g>
</svg>