<svg version="1.1" id="图层_1" x="0px" y="0px" width="200.122px" height="193.507px" viewBox="0 0 200.122 193.507" enable-background="new 0 0 200.122 193.507" xml:space="preserve" xmlns="http://www.w3.org/2000/svg" xmlns:xlink="http://www.w3.org/1999/xlink" xmlns:xml="http://www.w3.org/XML/1998/namespace">
  <title>026</title>
  <path fill="#601986" d="M195,83.1c-2.813-3.014-5.777-5.885-8.88-8.6l0,0l-29.43-26.67l0,0l-9.47-8.64l0,0l-7.55-6.87L125,18.91l0,0
	c-4.24-3.9-8.69-7.87-13-12c-3.25-3.12-6.59-6-11.17-6.91h-4.2C43.196,0.066-0.066,43.436,0,96.87s43.436,96.696,96.87,96.63h1.28
	c3.911,0.117,7.715-1.288,10.61-3.92c4.17-3.81,8.31-7.65,12.46-11.48l3.67-3.37l0,0l9.47-8.61l0,0l3.48-3.17l48.17-43.8l0.07,0.05
	c1.92-1.83,3.94-3.6,5.87-5.46l0.2-0.18l0,0c0.9-0.87,1.78-1.76,2.6-2.69C201.816,102.998,201.923,91.098,195,83.1z" class="color c1"/>
</svg>