<svg version="1.1" id="图层_1" x="0px" y="0px" width="152.654px" height="170.579px" viewBox="0 0 152.654 170.579" enable-background="new 0 0 152.654 170.579" xml:space="preserve" xmlns="http://www.w3.org/2000/svg" xmlns:xlink="http://www.w3.org/1999/xlink" xmlns:xml="http://www.w3.org/XML/1998/namespace">
  <path fill="#0C6D95" d="M76.846,14.782L70.829,1.246c9.556-1.659,19.128-1.629,28.36-0.098l1.725,10.338
	C92.95,11.306,84.842,12.365,76.846,14.782z M68.833,17.684L62.38,3.169c-1.799,0.503-3.595,1.052-5.382,1.682
	c-7.625,2.683-14.628,6.34-20.919,10.782l13.246,14.032C55.071,24.823,61.608,20.756,68.833,17.684z M125.598,16.137l1.466-5.195
	c-5.966-3.346-12.319-5.971-18.923-7.811l1.509,9.056C115.114,12.939,120.459,14.267,125.598,16.137z M152.654,32.916
	c-5.193-6.678-11.315-12.457-18.092-17.24l-1.081,3.829C140.476,22.964,146.955,27.475,152.654,32.916z M91.498,165.828
	l-0.688,4.627c7.611-0.494,15.281-2.023,22.828-4.68c1.928-0.679,3.813-1.423,5.659-2.223
	C110.017,166.062,100.618,166.744,91.498,165.828z M69.279,160.19l-5.393,7.695c5.946,1.548,12.084,2.464,18.31,2.693l0.901-6.051
	C78.354,163.515,73.729,162.056,69.279,160.19z M26.358,62.727l-20.611-8.14c-3.942,10.197-5.946,21.175-5.731,32.35l21.834-1.015
	C22.153,77.942,23.701,70.123,26.358,62.727z M29.348,122.129l-18.129,5.463c4.412,7.754,9.938,14.617,16.293,20.461l12.16-9.767
	C35.639,133.433,32.152,128.031,29.348,122.129z M22.002,94.425L0.606,95.42c0.732,6.088,2.13,12.189,4.25,18.212
	c0.752,2.133,1.58,4.217,2.479,6.251l18.766-5.653C23.825,107.679,22.483,101.03,22.002,94.425z M45.47,144.534l-11.283,9.063
	c6.493,4.852,13.639,8.752,21.207,11.59l6.147-8.771C55.724,153.179,50.313,149.198,45.47,144.534z M43.133,35.492l-13.771-14.59
	c-8.405,7.307-15.218,16.14-20.159,25.91l20.463,8.081C33.125,47.814,37.653,41.257,43.133,35.492z" class="color c1"/>
</svg>