<svg version="1.1" id="图层_1" x="0px" y="0px" width="160px" height="160px" viewBox="0 0 160 160" enable-background="new 0 0 160 160" xml:space="preserve" xmlns="http://www.w3.org/2000/svg" xmlns:xlink="http://www.w3.org/1999/xlink" xmlns:xml="http://www.w3.org/XML/1998/namespace">
  <path fill="#81572D" d="M80,0c-3.551,0-7.041,0.258-10.471,0.707c1.268,2.486,2.173,5.236,2.815,7.909
	C74.86,8.349,77.413,8.205,80,8.205c39.65,0,71.795,32.145,71.795,71.795c0,39.652-32.145,71.795-71.795,71.795
	S8.205,119.652,8.205,80c0-16.748,5.751-32.144,15.364-44.356c-0.056-0.044-0.107-0.085-0.163-0.131
	c-2.34-1.903-4.031-4.022-5.218-6.239C6.83,43.087,0,60.76,0,80c0,44.113,35.888,80,80,80s80-35.887,80-80
	C160,35.888,124.112,0,80,0z" class="color c1"/>
</svg>