<svg version="1.1" id="图层_1" x="0px" y="0px" width="177.631px" height="175.772px" viewBox="0 0 177.631 175.772" enable-background="new 0 0 177.631 175.772" xml:space="preserve" xmlns="http://www.w3.org/2000/svg" xmlns:xlink="http://www.w3.org/1999/xlink" xmlns:xml="http://www.w3.org/XML/1998/namespace">
  <g>
    <path fill="#5B6CC4" d="M20.732,87.887c0-24.358,5.458-42.188,16.374-53.486c10.916-11.3,28.13-16.951,51.64-16.951
		c23.696,0,40.977,5.651,51.848,16.951c5.453,5.669,9.537,12.984,12.254,21.94c11.941,0.062,14.941-8.438,13.459-19.938
		C152.711,12.148,126.871,0,88.746,0C29.58,0,0,29.297,0,87.887c0,7.11,0.445,13.78,1.316,20.028
		c5.473,7.57,12.223,14.57,21.281,2.305C21.364,103.507,20.732,96.075,20.732,87.887z" class="color c1"/>
    <g>
      <path fill="#6E7CE0" d="M166.307,36.402c-3.627,6.346-8.07,13.138-13.459,19.938c2.699,8.896,4.05,19.409,4.05,31.546
			c0.002,24.356-5.436,42.185-16.304,53.485c-10.871,11.299-28.151,16.951-51.848,16.951c-23.51,0-40.724-5.65-51.64-16.951
			c-7.247-7.5-12.073-17.897-14.509-31.152c-6.81-0.416-13.902-1.176-21.281-2.305c6.309,45.232,35.444,67.857,87.43,67.857
			c59.256,0,88.885-29.295,88.885-87.886C177.631,66.993,173.842,49.845,166.307,36.402z M157.924,142.222
			c-3.777,8.021-11.426,14.453-18.773,19.018c-2.026,1.26-3.956-1.891-1.937-3.145c6.831-4.242,13.958-10.186,17.477-17.652
			C155.707,138.284,158.937,140.075,157.924,142.222z" class="color c2"/>
    </g>
  </g>
</svg>