<svg version="1.1" id="图层_1" x="0px" y="0px" width="439.668px" height="313.865px" viewBox="0 0 439.668 313.865" enable-background="new 0 0 439.668 313.865" xml:space="preserve" xmlns="http://www.w3.org/2000/svg" xmlns:xlink="http://www.w3.org/1999/xlink" xmlns:xml="http://www.w3.org/XML/1998/namespace">
  <ellipse fill="#1F2F41" cx="219.834" cy="156.933" rx="219.834" ry="156.933" class="color c1"/>
  <path fill="#FFFFFF" d="M219.834,304.772c-55.065,0-106.854-15.32-145.824-43.14c-39.124-27.93-60.671-65.112-60.671-104.7
	c0-81.52,92.634-147.84,206.495-147.84c55.066,0,106.854,15.321,145.825,43.142c39.124,27.929,60.67,65.111,60.67,104.698
	c0,39.588-21.546,76.771-60.67,104.7C326.689,289.452,274.9,304.772,219.834,304.772z M219.834,12.093
	c-112.208,0-203.495,64.975-203.495,144.84s91.287,144.84,203.495,144.84s203.495-64.975,203.495-144.84
	S332.042,12.093,219.834,12.093z" class="color c2"/>
</svg>