<svg version="1.1" id="图层_1" x="0px" y="0px" width="186.262px" height="186.263px" viewBox="0 0 186.262 186.263" enable-background="new 0 0 186.262 186.263" xml:space="preserve" xmlns="http://www.w3.org/2000/svg" xmlns:xlink="http://www.w3.org/1999/xlink" xmlns:xml="http://www.w3.org/XML/1998/namespace">
  <path fill="#FFFFFF" d="M175.631,186.263H10.633C4.77,186.263,0,181.492,0,175.629V10.632C0,4.77,4.77,0,10.633,0h164.998
	c5.862,0,10.631,4.77,10.631,10.632v164.997C186.262,181.492,181.493,186.263,175.631,186.263z M10.633,3C6.424,3,3,6.424,3,10.632
	v164.997c0,4.21,3.424,7.634,7.633,7.634h164.998c4.208,0,7.631-3.424,7.631-7.634V10.632c0-4.208-3.423-7.632-7.631-7.632H10.633z" class="color c1"/>
</svg>