<svg version="1.1" id="图层_1" x="0px" y="0px" width="129.46px" height="128.846px" viewBox="0 0 129.46 128.846" enable-background="new 0 0 129.46 128.846" xml:space="preserve" xmlns="http://www.w3.org/2000/svg" xmlns:xlink="http://www.w3.org/1999/xlink" xmlns:xml="http://www.w3.org/XML/1998/namespace">
  <path fill="#FFFFFF" d="M116.652,128.846H12.809C5.746,128.846,0,123.123,0,116.089V12.757C0,5.723,5.746,0,12.809,0h103.844
	c7.063,0,12.808,5.723,12.808,12.757v103.332C129.46,123.123,123.715,128.846,116.652,128.846z M12.809,5C8.503,5,5,8.479,5,12.757
	v103.332c0,4.277,3.503,7.757,7.809,7.757h103.844c4.305,0,7.808-3.479,7.808-7.757V12.757c0-4.277-3.503-7.757-7.808-7.757H12.809z
	" class="color c1"/>
</svg>