<svg version="1.1" id="图层_1" x="0px" y="0px" width="71.042px" height="84.129px" viewBox="0 0 71.042 84.129" enable-background="new 0 0 71.042 84.129" xml:space="preserve" xmlns="http://www.w3.org/2000/svg" xmlns:xlink="http://www.w3.org/1999/xlink" xmlns:xml="http://www.w3.org/XML/1998/namespace">
  <path fill="#40263A" d="M19.707,0.006C34.609,8.183,44.91,25.742,31.039,44.421c-1.838,2.475-4.054,4.676-6.157,6.946
	c-5.212,5.624-7.744,12.323-7.952,19.914c-0.115,4.185-0.021,8.375-0.021,12.407C5.812,77.773-4.963,62.911,2.441,45.718
	c2.471-5.737,6.404-10.384,10.58-14.879c3.53-3.8,6.217-8.122,6.754-13.32c0.453-4.382,0.277-8.833,0.304-13.254
	C20.088,2.898,19.848,1.53,19.707,0.006z M53.838,8.403c0.567,9.063-1.665,17.123-8.352,23.643
	c-1.455,1.419-2.774,2.996-4.026,4.601c-5.553,7.112-9.003,14.955-7.624,24.207c1.58,10.607,8.145,17.658,16.862,23.275
	c0.12-0.388,0.202-0.519,0.191-0.642c-0.126-1.471-0.27-2.94-0.401-4.41c-1.021-11.468,1.251-21.828,10.032-30.033
	c1.126-1.052,2.145-2.235,3.114-3.438C77.686,28.155,70.362,9.619,53.28,0C53.476,2.946,53.667,5.674,53.838,8.403z" class="color c1"/>
</svg>