<svg version="1.1" id="图层_1" x="0px" y="0px" width="368.9px" height="166.69px" viewBox="0 0 368.9 166.69" enable-background="new 0 0 368.9 166.69" xml:space="preserve" xmlns="http://www.w3.org/2000/svg" xmlns:xlink="http://www.w3.org/1999/xlink" xmlns:xml="http://www.w3.org/XML/1998/namespace">
  <title>115</title>
  <path fill="#2E303D" d="M352.39,166.69H16.52C7.401,166.679,0.011,159.289,0,150.17V16.52C0.011,7.401,7.401,0.011,16.52,0h75.21
	c1.933,0,3.5,1.567,3.5,3.5S93.663,7,91.73,7H16.52C11.265,7.006,7.006,11.265,7,16.52v133.65c0.006,5.255,4.265,9.514,9.52,9.52
	h335.87c5.255-0.006,9.514-4.265,9.52-9.52V16.52c-0.006-5.255-4.265-9.514-9.52-9.52h-83.1c-1.933,0-3.5-1.567-3.5-3.5
	s1.567-3.5,3.5-3.5h83.1c9.115,0.017,16.499,7.405,16.51,16.52v133.65C368.889,159.285,361.505,166.673,352.39,166.69z" class="color c1"/>
</svg>