<svg version="1.1" id="图层_1" x="0px" y="0px" width="131.6px" height="154.839px" viewBox="0 0 131.6 154.839" enable-background="new 0 0 131.6 154.839" xml:space="preserve" xmlns="http://www.w3.org/2000/svg" xmlns:xlink="http://www.w3.org/1999/xlink" xmlns:xml="http://www.w3.org/XML/1998/namespace">
  <path fill="#FFFFFF" d="M3.037,96.942L0,104.436V62.166h11.855v9.714L4.52,90.916L3.037,96.942z M110.534,11.856l9.209,9.208V57.16
	h11.855V16.153L115.446,0h-3.801H91.53l7.342,11.855H110.534z M11.856,21.064l9.208-9.208h12.157
	c-0.183-1.092-0.193-2.358,0.278-3.566C34.21,6.473,36.481,2.719,38.188,0H19.953h-3.801L0,16.153V57.16h11.855V21.064z
	 M119.743,62.167v43.646l-27.135,18.282l-0.004-0.006l-18.666,12.584v0.001l-4.805,3.236v14.296l62.465-42.087V62.166
	L119.743,62.167L119.743,62.167z M61.865,139.511l-16.518-11.089c-0.008-0.021-0.018-0.04-0.024-0.061l-31.521-21.238
	c-1.304,3.513-2.988,8.057-4.241,11.438l53.843,36.278v-4.75v-9.546l-1.539-1.037C61.865,139.508,61.865,139.509,61.865,139.511z" class="color c1"/>
</svg>