<svg version="1.1" id="图层_1" x="0px" y="0px" width="180px" height="180px" viewBox="0 0 180 180" enable-background="new 0 0 180 180" xml:space="preserve" xmlns="http://www.w3.org/2000/svg" xmlns:xlink="http://www.w3.org/1999/xlink" xmlns:xml="http://www.w3.org/XML/1998/namespace">
  <path fill="#FFE600" d="M176.934,171.057c0,3.243-2.632,5.875-5.875,5.875H8.942c-3.244,0-5.876-2.632-5.876-5.875V8.94
	c0-3.244,2.632-5.873,5.876-5.873h162.115c3.244,0,5.875,2.629,5.875,5.873v162.117H176.934z" class="color c1"/>
  <path fill="#020202" d="M171.059,180H8.942C4.011,180,0,175.987,0,171.058V8.94C0,4.011,4.012,0,8.942,0h162.115
	C175.988,0,180,4.011,180,8.94v162.117C180,175.987,175.988,180,171.059,180z M8.942,6.135c-1.549,0-2.808,1.259-2.808,2.806
	v162.117c0,1.549,1.259,2.807,2.808,2.807h162.115c1.549,0,2.809-1.258,2.809-2.807V8.94c0-1.547-1.26-2.806-2.809-2.806
	L8.942,6.135L8.942,6.135z" class="color c2"/>
</svg>