<svg version="1.1" id="图层_1" x="0px" y="0px" width="170.174px" height="173.586px" viewBox="1.237 9.395 170.174 173.586" enable-background="new 1.237 9.395 170.174 173.586" xml:space="preserve" xmlns="http://www.w3.org/2000/svg" xmlns:xlink="http://www.w3.org/1999/xlink" xmlns:xml="http://www.w3.org/XML/1998/namespace">
  <path fill="#776340" d="M76.477,170.25c-0.028-0.076-0.059-0.152-0.088-0.229c-2.948,1.725-6.272,2.819-9.673,3.151
	c-0.509,0.049-1.025,0.076-1.538,0.076c-4.605,0-8.205-1.97-9.625-5.265c-0.634-1.473-0.713-2.895-0.782-4.149
	c-0.035-0.646-0.068-1.254-0.181-1.729c-0.306-1.328-1.416-2.728-2.591-4.207c-1.954-2.461-4.388-5.525-3.596-9.574
	c0.339-1.736,1.232-3.131,1.952-4.25c0.161-0.252,0.322-0.504,0.477-0.758c2.916-4.828,3.131-11.392,0.675-20.65
	c-0.369-1.393-0.768-2.785-1.167-4.18c-1.838-6.437-3.739-13.09-3.01-20.07c0.051-0.475,0.111-0.953,0.175-1.432
	c0.214-1.642,0.415-3.191,0.013-4.33c-0.372-1.058-1.364-2.156-2.415-3.32c-0.462-0.514-0.938-1.041-1.392-1.6
	c-0.641-0.586-1.242-1.306-1.834-2.187c-0.729-1.084-0.953-2.432-0.645-3.729c-0.007-0.304,0.006-0.592,0.036-0.877
	c0.276-2.601,1.914-4.584,2.998-5.896c0.84-1.014,1.64-1.85,2.411-2.66c1.434-1.502,2.564-2.686,3.458-4.461
	c2.58-5.121-0.85-11.881-3.875-17.848c-7.474-14.732-10.718-28.363-9.734-40.684c-1.486,0.102-2.755,0.227-4.014,0.387
	c-1.058,0.141-2.114,0.311-3.303,0.576c-1.197,0.27-2.464,0.662-3.887,1.1c0.705-0.115,0.564,0.082-0.367,0.498
	c-0.464,0.205-1.123,0.463-1.975,0.705c-0.854,0.244-1.875,0.438-3.175,0.494c-1.769-0.037-1.277-0.146-1.258-0.179
	c0.008-0.024-0.098-0.034-0.677-0.051c-0.568-0.012-1.646-0.043-3.532-0.125c0.831-0.055,1.779-0.121,2.849-0.137
	c1.078-0.025,2.323,0.018,3.847-0.004c0.304-0.117,1.454-0.412,1.739-0.598c-0.889,0.155-1.807,0.262-2.883,0.301
	c-1.062,0.043-2.211,0.022-3.359-0.013c-0.578-0.02-1.148-0.036-1.699-0.057c-0.55-0.022-1.081-0.049-1.582-0.07
	c-1.035-0.051-2.002-0.075-2.771-0.059c1.192-0.012,2.515,0.096,3.162,0.176c0,0-0.688-0.021-1.795-0.022
	c-0.965,0.004-2.278,0.043-3.671,0.315l-0.472,2.043C8.246,15.285,8,15.449,7.482,15.438c-0.252,0.426-2.533-0.013-4.113,0.649
	c-0.064,0.521,0.035,0.953,0.138,1.254c0.151,0.422,0.314,0.636,0.314,0.636c0.045,0.079,0.093,0.145,0.138,0.213
	c-0.003,0.049-0.004,0.098-0.007,0.145c1.127,0.506,2.819,0.838,4.454,1.473l0.858-0.291l0.523,1.367
	c-0.139,0.717-3.005-1.459-5.729-1.559c0.03,0.154,0.063,0.311,0.076,0.465c-0.024,0.16-0.028,0.332-0.031,0.494
	c-0.014,0.059-0.026,0.117-0.052,0.172c-0.089,0.213-0.115,0.412-0.103,0.598c0,0,0,0.002,0,0.004
	c2.432,0.688,4.951,1.791,2.149,2.334c0.181-0.895-0.906-1.264-2.214-1.323c-0.003,0.03-0.007,0.063-0.009,0.094
	c0.003-0.045,0.004-0.074,0.004-0.094c-0.004,0-0.008,0-0.012,0c-0.009,0.021-0.021,0.063-0.036,0.145
	c-0.146,0.525-0.106,1.055-0.124,1.588c0.001,0.148,0.032,0.289,0.079,0.423c0,0.086,0.01,0.168,0.013,0.252l3.768-0.336
	c-0.259,3.377-1.75,6.808-3.117,10.3c-0.03,0.604-0.05,1.202,0.04,1.823c0.092,0.646,0.477,1.152,0.631,1.75
	c-0.004,0.271-0.019,0.537-0.013,0.812c0.054,2.61-0.063,5.139-0.262,7.672c-0.043,0.395-0.141,1.291-0.237,2.188
	c-0.068,0.539-0.137,1.07-0.19,1.5c-0.437,0.929-0.84,1.865-1.112,2.849c15.824,1.912-2.688,7.483,2.943,11.723
	c-0.674-0.301-1.594-0.393-2.16-0.438c0,0.012,0,0.024,0.001,0.037c2.908,2.002,1.453,4.198-0.224,5.975
	c-0.021,0.213-0.041,0.416-0.062,0.592c-0.038,0.252-0.072,0.502-0.112,0.752c-0.045-0.209,0.053-1.617-0.207-0.344
	c0.082,0.125,0.061,0.813-0.05,1.82c-0.223,1.237-0.452,2.477-0.631,3.721c1.586,1.164,1.271,2.17-0.336,4.219
	c0.006,0.131,0.013,0.254,0.02,0.371c-0.005,0.428,0.004,0.857,0.005,1.285c1.986,0.766,3.283,1.777,2.612,3.488l-1.563-0.127
	l0.78,4.162c-0.631-0.009-1.188-0.003-1.688,0.016c0.036,1.531,0.064,3.063,0.049,4.592c-0.002,0.219-0.007,0.438-0.009,0.656
	c0.442,0.641,0.559,1.246-0.023,1.754c-0.019,1.467-0.035,2.936-0.061,4.402c0.828,0.819,1.54,1.616,2.36,2.157
	c0.967-0.002,1.848,0.203,2.625,0.675c-1.065,0.088-1.892-0.189-2.625-0.675c-0.649,0.002-1.334,0.08-2.051,0.297
	c5.924,1.224,1.912,3.072-0.438,4.677c-0.014,0.735-0.024,1.473-0.038,2.209c1.743,0.459,3.82,0.1,5.907-0.277
	c-6.537,2.205,7.141,6.406,4.383,7.209c-0.658,1.668-5.87,0.547-9.266,0.959c1.418,2.51,13.834-0.23,7.692,3.029
	c-0.655-0.396-1.187-1.123-2.09-0.857c-0.514,0.494-3.522,1.105-6.786,1.746c-0.005,0.717-0.018,1.436-0.021,2.152
	c-0.017,4.76,0.356,9.512,0.289,14.272c-0.036,2.547-0.232,5.156-0.978,7.621c-0.031,0.106-0.047,0.211-0.073,0.317
	c0.321,0.813,0.096,1.798-0.246,2.662c0.04,0.48,0.109,0.963,0.248,1.449c0.355,1.254,1.196,2.426,1.905,3.611
	c5.103,0.445,9.18,1.275,9.465,3.24c-1.193-0.467-1.855-1.174-3.502-0.922c-1.648,0.258,0.142,0.957,0.732,1.192
	c-1.567,0.242-2.802-0.598-5.328-0.442c0.015,0.043,0.025,0.086,0.039,0.127c6.938,2.016,0.145,3.291,2.769,6.068
	c-0.57-0.224-1.093-0.347-1.597-0.408c0.097,2.938-1.05,6.342,0.99,8.811c1.655,1.996,4.756,2.482,7.323,2.828
	c4.396,0.59,8.304,2.203,12.642,3.053c4.541,0.887,9.262,0.99,13.892,1.006c5.474,0.018,10.784,1.563,16.264,1.738
	c5.1,0.16,10.186,0.896,15.263,1.313c2.847,0.232,5.702,0.369,8.561,0.453l-3.016-8.91C77.533,173.013,76.996,171.609,76.477,170.25
	z M110.455,13.756c-0.246-0.795-0.51-1.582-0.781-2.365c1.914-0.045,3.756-0.014,5.48,0.097c3.104,0.199,5.721,0.649,7.875,0.561
	c-1.512,0.076-0.174,0.26,1.85,0.437c1.01,0.086,2.186,0.146,3.268,0.166c0.518,0.006,1.1,0.012,1.621,0.032
	c0.516,0.023,0.977,0.063,1.344,0.111c-0.766,0.006-1.615,0.012-2.514,0.019c-0.83,0.018-1.721-0.023-2.633-0.089
	c-1.826-0.133-3.756-0.405-5.559-0.629c-1.801-0.231-3.486-0.395-4.777-0.424c-1.277-0.029-2.133,0.023-2.338,0.146
	c2.795,0.188,5.373,0.239,7.984,0.739c-1.857-0.188-4.621-0.342-5.354-0.266c2.305,0.225,4.32,0.539,6.162,0.756
	c1.838,0.226,3.498,0.365,5.039,0.396c1.512,0.02,3.016-0.082,4.455-0.027c1.441,0.033,2.83,0.135,4.221,0.287
	c0,0-2.447-0.33-4.955-0.439c-0.625-0.03-1.252-0.045-1.84-0.047c-0.58-0.008-1.078-0.01-1.529-0.031
	c-0.891-0.036-1.486-0.084-1.486-0.084c0.414-0.217,1.477-0.147,2.764-0.137c1.385,0.01,3.02,0.109,4.441,0.062
	c2.479,0.389,4.645,0.711,6.688,0.969c2.055,0.26,3.91,0.486,5.727,0.557c-0.602-0.006-0.859,0.006-1.209-0.002
	c0.918,0.056,1.771,0.066,2.521,0.006c0.982-0.084,1.756-0.276,2.6-0.555c1.635-0.535,3.08-1.107,4.432-1.41
	c1.377-0.309,2.496-0.387,3.588-0.438c1.08-0.039,2.094-0.021,3.186,0.055c1.078,0.088,2.365,0.273,3.65,0.705
	c0.643,0.231,1.25,0.568,1.752,0.977c0.504,0.408,0.896,0.879,1.191,1.324c0.168,0.26,0.303,0.506,0.422,0.738
	c-0.711,0.449-1.465,0.922-1.914,0.645c-1.17,1.853,3.76,4.615,2.215,7.07c-0.143-0.045-0.289-0.07-0.434-0.086l-2.201-0.902
	c0,1.373,1.119,0.781,2.201,0.902l0.406,0.166c0.02-0.025,0.014-0.053,0.027-0.08c0.381,0.133,0.742,0.395,1.018,0.924
	c-0.467,2.318-2.891,4.351-0.23,7.133l-3.529,1.523c0.543,1.514,2.496-0.09,4.066,0.031c-0.012,1.375,0.023,2.303,0.064,3.032
	c-0.928-0.018-1.955-0.112-2.387,0.271c0.758,0.553,1.85,1.281,2.621,2.113c0.031,0.258,0.066,0.532,0.104,0.846l-0.215,1.695
	c0.045,0.371,0.086,0.7,0.125,1.01c-0.061,0.055-0.105,0.106-0.174,0.16c-0.654-0.779-0.127-1.381-0.383-2.105l-1.965,1.76
	c-3.189-2.184-2.066-3.727-4.824-2.084c6.789,0.324,0.629,6.927,7.412,7.246l-1.439,1.156c0.068-0.334-0.332-0.393-0.26-0.725
	c-2.23,1.53,0.85,1.787,2.725,2.723c0.078,0.816,0.17,1.803,0.279,2.998c-0.008,0.006-0.016,0.012-0.023,0.016
	c-0.088-0.553-0.131-0.377-0.152,0.099c-0.414,0.211-0.861,0.209-1.254-0.142l-0.553-0.758c0.172,0.357,0.355,0.588,0.553,0.758
	l1.219,1.707c-0.006,0.396-0.014,0.758-0.029,0.988c-0.037,0.006-0.074,0.012-0.113,0.012c-0.018-0.094-0.033-0.213-0.057-0.371
	c0.01,0.123,0.018,0.246,0.021,0.369c-0.227-0.01-0.449-0.11-0.539-0.297l-0.039-0.285c-0.023,0.111-0.002,0.203,0.039,0.285
	l0.443,3.197l-0.199-0.029c-0.533-0.258-0.926-0.365-0.971-0.145l0.971,0.145c0.15,0.072,0.313,0.158,0.48,0.252
	c0.066,1.047,0.135,2.049,0.203,2.979c-0.359-0.441-0.541-0.986-0.438-1.492c-6.811,1.715,1.684,1.619-2.344,5.447l-0.83-1.828
	c-3.871,1.123-2.498,2.557-4.938,4.576c1.264-0.47,6.121-4.029,7.777-1.921c-0.521,0.582-0.779,1.354,0.568,2.498
	c-2.414-0.021-1.838,1.087-1.725,2.466l-3.197-0.14c0.898,1.5,2.529,1.404,3.955,2.301c-0.344,1.654-2.828,1.964-4.922,2.322
	c-0.551,2.646,4.004-1.774,4.555,1.375c-1.242,2.158-0.018,3.717,1.809,6.318c0,0.07,0.002,0.139,0.004,0.207
	c-1.088,1.346-1.896-0.379-2.799,0.147l2.527,1.41c-0.066,0.334-0.848,0.213-1.242,0.152c0.381,0.461,0.955,0.58,1.563,0.67
	c0.039,2,0.061,4.059,0.002,6.188c-0.012,0.392-0.045,0.791-0.064,1.187c-0.584-0.121-1.215-0.346-1.91-0.264
	c0.885,1.075,1.379,1.725,1.793,2.225c-0.072,0.859-0.158,1.723-0.275,2.59c-0.133,0.961-0.311,1.947-0.494,2.893
	c-0.184,0.902-0.314,1.822-0.426,2.748c-0.373,3.17-0.408,6.42-0.457,9.66c-4.889-0.656-9.766-1.791-14.904-2.99
	c-1.014-0.235-2.037-0.477-3.072-0.715c-7.865-1.809-15.934-4.201-21.656-9.41c-2.729-2.481-4.932-5.635-6.727-8.393
	c-5.125-7.867-9.277-16.186-12.344-24.725c-1.705-4.752-0.898-7.742,0.324-12.271c0.43-1.592,0.916-3.395,1.309-5.407
	c1.025-5.279,1.463-10.736,1.299-16.234c0.289-0.963,0.242-2.006-0.143-3.027c-0.004-0.008-0.006-0.014-0.01-0.022
	c-0.01-0.189-0.021-0.379-0.035-0.568c-0.162-2.072-0.424-4.221-0.781-6.391l-0.469,0.043c-0.078-0.236-0.156-0.472-0.236-0.707
	c-0.561-1.685-1.092-3.275-1.326-4.888c-0.203-1.391-0.498-2.797-0.885-4.202L110.455,13.756z M69.404,19.088
	c0.071,0.627,0.146,1.254,0.235,1.879c0.579,3.998,2.136,8.273,3.728,12.453c3.048-1.096,6.416-1.563,9.413-1.295
	c0.17-0.779,0.367-1.506,0.553-2.195c0.586-2.159,1.047-3.866,0.438-6.153c-0.109-0.41-0.226-0.822-0.343-1.236
	c-0.868-3.104-1.85-6.621-0.733-10.246c0.155-0.512,0.354-0.992,0.568-1.457c-0.207-0.059-0.406-0.119-0.634-0.172
	c-0.729-0.174-1.581-0.324-2.622-0.416c-0.519-0.047-1.086-0.08-1.705-0.092c-0.624-0.017-1.295-0.004-1.961,0
	c-1.371,0.01-3.008-0.006-5-0.049c1.081,0.018,3.097,0.096,4.418,0.146c1.319,0.047,1.961,0.119,0.289,0.228
	c-3.015-0.007-7.033-0.313-8.904-0.57c-0.095-0.006-0.174-0.008-0.266-0.014c0.589,1.114,1.108,2.284,1.496,3.543
	C68.968,15.361,69.189,17.256,69.404,19.088z" class="color c1"/>
</svg>