<svg version="1.1" id="图层_1" x="0px" y="0px" width="315.572px" height="500px" viewBox="0 0 315.572 500" enable-background="new 0 0 315.572 500" xml:space="preserve" xmlns:xml="http://www.w3.org/XML/1998/namespace" xmlns="http://www.w3.org/2000/svg" xmlns:xlink="http://www.w3.org/1999/xlink">
  <path fill="#AA892C" d="M157.786,500C70.934,500,0,429.412,0,342.215V157.786C0,70.934,70.934,0,157.786,0
	c86.851,0,157.786,70.934,157.786,157.786v184.083C315.918,429.412,244.983,500,157.786,500z M157.786,6.92
	C74.741,6.92,6.92,74.74,6.92,157.785v184.083c0,83.391,67.82,150.864,150.865,150.864c83.045,0,151.211-67.128,151.211-150.52
	V157.786C308.997,74.74,241.177,6.92,157.786,6.92z" class="color c1"/>
</svg>