<svg version="1.1" id="图层_1" x="0px" y="0px" width="181.333px" height="179.56px" viewBox="0 0 181.333 179.56" enable-background="new 0 0 181.333 179.56" xml:space="preserve" xmlns="http://www.w3.org/2000/svg" xmlns:xlink="http://www.w3.org/1999/xlink" xmlns:xml="http://www.w3.org/XML/1998/namespace">
  <path fill="#E83828" d="M174.83,93.551c-0.043,0.351-0.123,0.052-0.202,0.04c-0.086,0.74,0.191,0.332,0.15,0.932
	c-0.067-0.029-0.098,0.037-0.113,0.142c-0.011,0.074-0.016,0.165-0.018,0.265c-0.149-0.063-0.188-0.482-0.192-0.958
	c-0.003-0.39,0.019-0.814,0.027-1.116c0.066-1.328,0.121-2.908,0.102-3.677c0.098,0.682,0.117,1.519,0.127,2.312
	C174.699,92.283,174.701,93.032,174.83,93.551z M178.107,91.702c0.055-1.138,0.103-3.602-0.234-4.783
	C178.111,88.676,177.871,90.937,178.107,91.702z M177.029,81.023c-0.064,0.481,0.054,0.348,0.132,0.786
	C177.447,83.474,177.255,81.111,177.029,81.023z M179.574,87.546c0.094,0.046,0.135,0.276,0.273,0.153
	C179.996,86.646,179.641,86.79,179.574,87.546z M180.025,86.783c0.01,0.299-0.018,0.483-0.049,0.668l0.334-0.079
	C180.314,86.793,180.154,86.844,180.025,86.783z M181.209,85.826c-0.109,0.032-0.018,0.619-0.113,0.694l-0.199,0.05
	c-0.049,0.752,0.218,0.291,0.348,0.357C181.107,86.238,181.531,85.787,181.209,85.826z M136.457,165.774
	c0.43-0.225,0.535-0.025,1.137-0.477C137.445,165.222,136.523,165.591,136.457,165.774z M171.391,85.379
	c0.011,0.146,0.029,0.307,0.055,0.48c0.074-0.01,0.104-0.103,0.119-0.226c0.021-0.186-0.002-0.456-0.031-0.735
	C171.391,84.884,171.37,85.093,171.391,85.379z M165.338,63.539c-0.156,0.035-0.209,0.17-0.213,0.354
	c0.096,0.189,0.195,0.473,0.275,0.458C165.141,63.846,165.658,64.103,165.338,63.539z M172.463,55.9
	c0.154,0.314,0.275,0.435,0.382,0.462c-0.353-0.594,0.105-0.401-0.292-1.04C172.317,55.317,172.698,55.907,172.463,55.9z
	 M161.924,61.833c-0.139-0.269-0.231-0.496-0.258-0.665c-0.031,0.354-0.012,0.752,0.08,1.212
	C161.961,62.333,161.634,61.813,161.924,61.833z M166.186,52.968c-0.204-0.316-0.131-0.387-0.197-0.586
	c-0.241-0.194-0.213,0.195-0.055,0.553C166.006,52.886,166.129,53.088,166.186,52.968z M156.755,57.461
	c0.122,0.309,0.285,1.099,0.55,1.058c-0.053-0.125-0.051-0.206,0.025-0.233C156.882,57.962,157.176,57.809,156.755,57.461z
	 M162.324,52.632c-0.042-0.403-0.59-1.281-0.844-1.209C161.789,51.788,162.031,52.481,162.324,52.632z M160.495,53.78
	c-0.315-0.394-0.178-0.459-0.432-0.81l-0.101,0.093c-0.025,0.036-0.045,0.075,0.045,0.198
	C160.207,53.157,160.311,54.121,160.495,53.78z M158.508,51.259c0.232,0.313,0.287,0.507,0.158,0.583
	c0.133,0.198,0.731,1.075,0.461,0.543C158.67,51.891,159.078,51.562,158.508,51.259z M157.82,52.161
	c0.365,0.423,0.342,0.593,0.406,0.819c0.07-0.061,0.218,0.218,0.295,0.205C158.353,52.83,158.08,52.1,157.82,52.161z
	 M156.574,52.146c-0.167-0.238-0.334-0.476-0.502-0.716c-0.068,0.281-0.361-0.271-0.496-0.234c0.17,0.292,0.041,0.394,0.404,0.807
	c0.186,0.096,0.238,0.046,0.195-0.19C156.338,52.032,156.516,52.313,156.574,52.146z M155.836,46.86
	c0.07,0.084,0.137,0.162,0.155,0.091l-0.442-0.569c-0.042,0.157-0.156,0.272,0.148,0.631
	C155.821,46.981,155.65,46.671,155.836,46.86z M158.018,39.068c-0.426-0.483-0.695-0.627-0.836-0.5
	C157.531,38.886,157.903,39.258,158.018,39.068z M146.547,45.972c-0.414-0.437-0.391-0.691-0.631-1.057
	C145.604,45.003,146.16,45.826,146.547,45.972z M145.088,41.5c-0.32-0.402-0.924-0.58-0.648-0.234
	c0.154-0.063,0.594,0.534,0.365,0.056C144.911,41.403,145.049,41.553,145.088,41.5z M143.266,41.227
	c-0.069,0.193,0.708,0.995,0.887,1.059C143.789,41.89,143.75,41.643,143.266,41.227z M147.928,33.74
	c-0.078,0.303-0.347-0.388-0.527-0.191c0.461,0.396,0.885,0.728,1.2,0.871C148.245,34.146,148.357,34.041,147.928,33.74z
	 M143.162,40.779c-0.431-0.419-0.281-0.648-0.871-1.118c-0.114,0.172,0.129,0.461,0.164,0.68
	C142.699,40.506,143.002,40.769,143.162,40.779z M142.346,42.036c-0.428-0.259-0.952-0.701-1.351-0.906
	C141.299,41.46,142.141,42.256,142.346,42.036z M142.01,42.547c-0.31-0.284-0.625-0.923-0.912-0.972
	c0.408,0.478-0.367-0.306-0.318-0.098c0.385,0.404,0.857,0.801,1.08,1.296C141.974,42.63,141.729,42.481,142.01,42.547z
	 M142.666,38.734c0.363,0.258,0.711,0.478,1.008,0.611C143.473,39.012,142.68,38.349,142.666,38.734z M144.965,35.902
	c0.779,0.76,0.38-0.4,0.033-0.409C145.158,35.727,145.176,35.985,144.965,35.902z M140.354,41.554
	c0.234,0.154,0.675,0.696,0.771,0.582C140.819,41.921,140.625,41.315,140.354,41.554z M141.202,39.54
	c-0.172,0.064,0.402,0.696,0.567,0.652C141.58,39.868,141.711,39.797,141.202,39.54z M141.434,37.144
	c0.446,0.312,0.864,0.578,1.084,0.513C142.09,37.377,141.646,37.072,141.434,37.144z M139.697,38.179
	c-0.304-0.299-0.73-0.712-0.955-0.663C139.24,37.828,139.432,38.308,139.697,38.179z M146.473,23.133
	c-0.362-0.206-1.057-0.867-1.201-0.767C145.631,22.649,146.285,23.288,146.473,23.133z M143.599,26.14
	c-0.437-0.27-1.019-0.666-1.349-0.751c0.138,0.158,0.453,0.384,0.743,0.556C143.277,26.122,143.544,26.235,143.599,26.14z
	 M140.716,24.546c0.593,0.406,1.159,0.757,1.672,1.012c-0.997-1.033-2.522-2.472-4.517-3.204c-0.506-0.445,0.652,0.201,0.094-0.257
	c-0.455-0.142-1.104-0.532-1.663-0.866c-0.571-0.314-1.046-0.582-1.122-0.521c1.111,0.633,2.389,1.628,3.678,2.52
	C139.497,23.684,140.13,24.131,140.716,24.546z M135.52,35.094c0.346,0.234,0.602,0.34,0.758,0.334
	c-0.061-0.101-0.6-0.577-0.7-0.459C135.741,35.091,135.632,35.094,135.52,35.094z M133.908,33.417
	c0.006,0.112,0.784,0.405,0.794,0.67c-0.175,0.029-0.42-0.037-0.56,0.041C135.607,35.144,134.732,33.312,133.908,33.417z
	 M138.809,24.228c-0.279-0.162-0.553-0.322-0.832-0.485C137.744,23.937,138.784,24.48,138.809,24.228z M132.617,36.358
	c-0.106-0.165,0.776-0.332,0.006-0.797C132.752,35.877,132.197,36.029,132.617,36.358z M136.088,24.521l0.072-0.193l-0.658-0.38
	C135.393,24.091,135.787,24.315,136.088,24.521z M127.853,12.573c-0.509-0.198-1.093-0.413-1.331-0.583
	C126.501,12.261,127.519,12.584,127.853,12.573z M123.418,18.84c0.389,0.119,0.557,0.247,0.498,0.382
	c0.259,0.06,0.883,0.431,0.885,0.273c-0.553-0.182-0.832-0.416-0.488-0.409C124.057,19.015,123.413,18.686,123.418,18.84z
	 M120.135,16.965c0.209-0.147,0.834,0.253,0.891,0.354c0.01-0.192,0.32-0.038,0.037-0.273c-0.532-0.116-0.558-0.124-1.084-0.335
	l-0.018,0.136C119.965,16.889,119.979,16.933,120.135,16.965z M119.698,9.684c-0.753-0.226-1.437-0.401-1.79-0.34
	C118.922,9.542,119.417,9.814,119.698,9.684z M113.736,15.511c0.346,0.11,0.453,0.253,0.91,0.348
	C114.6,15.675,113.85,15.293,113.736,15.511z M112.271,15.125c0.347,0.128,0.863,0.274,1.277,0.413
	c0.047-0.12-0.199-0.198-0.174-0.316C112.805,15.338,112.65,14.928,112.271,15.125z M111.521,7.725
	c0.671,0.239,0.892,0.124,1.81,0.326C113.177,7.91,111.67,7.638,111.521,7.725z M110.975,14.895
	c0.327,0.018,1.084,0.275,1.111,0.129C111.854,14.887,110.979,14.707,110.975,14.895z M107.158,8.17
	c-0.014-0.096,0.086-0.138,0.187-0.181c-0.497-0.055-0.608,0.051-0.997-0.125C106.299,8.038,106.639,8.123,107.158,8.17z
	 M105.08,6.971c-0.583-0.061-1.027-0.065-1.201,0.041c0.467,0.015,0.778,0.072,1.019,0.148
	C104.879,7.065,104.977,7.017,105.08,6.971z M93.334,0.329C93.368,0.173,93.239,0.073,93.035,0c-0.716,0.001-1.029,0.11-1.021,0.298
	C92.668,0.231,92.683,0.396,93.334,0.329z M83.36,12.579c-0.065,0.173,0.979,0.086,0.987-0.021
	C84.096,12.51,83.943,12.416,83.36,12.579z M79.905,11.959c-0.594,0.229-1.198,0.239-1.482,0.398
	C78.833,12.451,79.708,12.198,79.905,11.959z M72.538,14.085c0.115-0.028,0.223-0.054,0.215,0.009
	c-0.135,0.053-0.364,0.106-0.338,0.167l0.921-0.262C73.458,13.787,72.578,13.902,72.538,14.085z M58.738,13.513
	c0.866-0.63,2.133-0.612,2.421-1.078c-0.712,0.172-1.917,0.815-2.396,0.77C58.879,13.293,58.639,13.423,58.738,13.513z
	 M54.023,19.004c-0.012,0.301-0.774,0.1-0.856,0.483c0.143-0.064,0.234-0.068,0.261,0.008c-0.198,0.123-0.495,0.266-0.469,0.343
	C53.62,19.42,54.471,19.012,54.023,19.004z M43.364,25.028c0.323-0.209,0.506-0.204,0.889-0.511
	c-0.069-0.142,0.119-0.456-0.411-0.11l0.101,0.094C43.716,24.689,43.343,24.93,43.364,25.028z M31.635,32.917
	c0.302-0.373,1.097-1.004,1.073-1.197C32.324,31.951,31.571,32.612,31.635,32.917z M8.721,78.525
	c-0.266-0.528,0.305-1.724,0.154-2.375c-0.226,0.765-0.274,1.241-0.496,2.386L8.721,78.525z M7.77,79.95
	c0.143-0.656,0.413-0.682,0.541-1.414c-0.405,0.412,0.034-0.906-0.111-0.99c-0.066,0.285-0.182,0.335-0.243,0.602
	C8.332,78.252,7.557,79.596,7.77,79.95z M7.579,90.714c-0.125,0.134-0.286,0.154-0.354,0.463c0.135,0.088,0.144,0.287,0.07,0.592
	C7.471,91.667,7.512,91.198,7.579,90.714z M8.132,116.88c-0.056-0.205-0.11-0.399-0.166-0.6c-0.213-0.063-0.186,0.846,0.098,1.093
	C7.948,117.022,7.993,116.873,8.132,116.88z M9.048,118.231c0.204-0.185,0.133-0.717-0.01-1.367
	C8.747,116.936,9.052,117.784,9.048,118.231z M14.728,141.726c0.406,0.981,0.638,0.673,0.312-0.01
	C14.938,141.726,14.784,141.549,14.728,141.726z M14.499,142.247c0.289,0.499,0.399,0.373,0.542,0.357
	c-0.16-0.248-0.23-0.424-0.298-0.598L14.499,142.247z M14.412,143.239c-0.353-0.665-0.338-0.133-0.484-0.121
	c0.475,0.511,0.363,1.105,0.614,0.908c0.077-0.086-0.316-0.528-0.276-0.643L14.412,143.239z M171.402,84.938
	c0.037-0.263-0.019-0.695,0.109-0.787c0.047,0.456-0.057,0.606,0.152,0.706c0.091-0.5-0.194-0.978-0.351-1.209
	C171.473,84.232,171.172,84.684,171.402,84.938z M161.201,53.634c0.012-0.248-0.722-0.872-0.729-1.279
	c0.078-0.051,0.732,1.082,0.491,0.525c-0.464-0.651-0.393-0.642-0.782-0.987c-0.096-0.278,0.024-0.411-0.066-0.685
	c-0.203-0.204-0.219,0.264-0.511-0.261c0.378-0.704-1.251-2.421-1.661-3.456c0.877,0.934,1.558,1.985,2.205,2.947
	c0.656,0.957,1.168,1.892,1.664,2.65c-0.098-0.159-0.031-0.274,0.104-0.09l0.295,0.469c-0.148,0.056-0.182,0.199-0.158,0.382
	c0.494,0.515,0.31,0.762,0.609,1.387c0.402,0.553,1.006,1.63,1.556,2.707c0.519,1.091,0.956,2.194,1.138,2.754
	c0.098,0.203,0.257,0.533,0.446,0.928c0.177,0.4,0.376,0.869,0.563,1.343c0.375,0.952,0.719,1.926,0.678,2.465
	c0.1-0.024,0.193-0.195,0.299,0.026c0.119,0.459,0.373,1.357,0.598,2.142c0.113,0.39,0.217,0.753,0.293,1.018
	c0.076,0.267,0.114,0.438,0.114,0.438c0.113,0.067,0.192-0.249,0.299,0.042c0.055,0.38-0.092,0.521-0.071,0.86
	c0.657,0.703,0.432,2.102,0.992,3.138c0.252-0.343-0.118-0.824-0.193-0.705c-0.067-0.327-0.207-0.738-0.163-0.933
	c0.229,0.741,0.092-0.049,0.182-0.093c0.155,0.224,0.214,0.406,0.229,0.7c0.484-0.229-0.549-1.88-0.799-2.651
	c-0.273-0.852,0.321-0.686-0.076-1.623c-0.136,0.015-0.028,0.301-0.046,0.445c-0.368-0.731-0.858-1.637-0.8-2.271
	c0.27,0.582,0.306,0.007,0.104-0.488c-0.264-0.244-0.289-0.579-0.668-1.084c0.473,0.294-0.395-1.052,0.195-0.562
	c-0.39-0.883-0.299-0.202-0.602-0.694c0.043-0.596-0.046,0.023-0.356-0.64c0.077-0.17-0.114-0.582,0.153-0.319
	c-0.361-0.982-0.822-1.392-1.037-2.169c-0.157-0.113-0.303-0.15-0.469-0.334c-0.271-0.71-0.499-1.448-1.08-2.37
	c0.447-0.224-0.898-2.654-1.074-3.616c-0.076,0.027-0.129,0.154-0.252-0.022c-0.245-0.428,0.094-0.601-0.341-0.925
	c-0.248,0.04,0.337,0.698,0.04,0.699c-0.586-0.796-1.581-2.111-2.066-3.057c0.291,0.562,0.777,0.703,0.621,0.421
	c-0.338-0.307-0.627-0.436-1.043-1.025c0.171,0.091,0.283-0.029,0.455,0.063c-0.514-0.881-1.224-1.646-1.617-2.265
	c0.078-0.025,0.2,0.086,0.321,0.195c0.817,1.026,1.743,2.949,2.396,3.302c-0.41-0.519-0.793-1.173-1.205-1.855
	c-0.418-0.68-0.848-1.402-1.436-1.986c0.299-0.225-1.598-1.887-1.596-2.611c-0.728-0.633-1.593-1.639-2.371-2.65
	c-0.803-0.987-1.543-1.96-1.926-2.585c0.107,0.093,0.184,0.112,0.208,0.025c-0.333-0.341-0.632-0.619-0.854-0.702
	c0.158,0.167,0.295,0.337,0.182,0.381c-0.912-0.924-1.12-1.232-1.696-1.754c0.128-0.015,0.297,0.051,0.423,0.034
	c-0.861-0.703-0.671-0.978-1.551-1.664c-0.021,0.225,0.348,0.567-0.183,0.287c0.126-0.143-0.306-0.493-0.415-0.724
	c-0.328-0.154,0.093,0.458-0.463,0.041c-0.875-0.835-0.92-0.772-1.857-1.534c0.221-0.171-0.744-0.919-0.197-0.766
	c-0.877-0.753-1.01-1.069-1.642-1.221c0.323-0.002-0.178-0.482,0.372-0.308c-0.271-0.234-0.361-0.188-0.62-0.405
	c-0.007,0.187,0.161,0.596-0.339,0.25c-1.556-1.35-3.502-3.081-4.857-3.503c0.037-0.116,0.12-0.173,0.267-0.15l-0.788-0.509
	c0.026,0.226-0.158,0.186-0.55-0.113c0.497-0.011-0.292-0.338-0.159-0.584c0.785,0.298,1.273,0.953,2.127,1.616
	c0.553-0.151,2.459,1.46,2.609,1.826c-0.203-0.417-0.867-1.033-1.57-1.589c-0.713-0.54-1.484-0.992-1.851-1.165
	c-0.438-0.396-0.853-0.77-1.293-1.167c-0.451-0.386-0.96-0.752-1.581-1.152c0.047,0.235-0.385-0.073-0.561-0.092
	c-0.189,0.129,0.213,0.353,0.021,0.481c0.578,0.448,0.377,0.004,0.859,0.342c-0.349,0.17,0.619,0.554,0.314,0.729
	c-0.741-0.5-1.705-1.4-2.102-1.218c-0.271-0.156-0.539-0.31-0.809-0.464c0.193,0.011,0.242-0.15,0.436-0.14
	c-0.914-0.553,0.033,0.41-0.934-0.123c-0.271-0.274-0.262-0.453-0.64-0.407c-0.435-0.481,0.468-0.166,0.147-0.455
	c-0.059,0.095-1.18-0.482-1.17-0.602c0-0.173,0.115-0.227,0.414-0.091c-0.377,0.19,1.008,0.486,1.508,0.778
	c0.164,0.199,0.122,0.373,0.393,0.584c0.175-0.279,0.916,0.493,1.14,0.655c0.015-0.486-0.947-0.971-1.343-1.216
	c0.068-0.205,0.602,0.261,0.918,0.192c-0.695-0.341-1.481-0.51-1.65-0.953c-0.129,0.126-1.162-0.674-0.924-0.171
	c0.455,0.34,0.908,0.261,1.007,0.518c-0.76-0.056-1.06-0.597-1.638-0.993c-0.273,0.105,0.526,0.327,0.254,0.434
	c-0.168-0.088-0.213-0.049-0.354-0.106c-0.912-0.454-1-0.641-1.606-1.146c-0.507-0.19,0.237,0.223,0.12,0.277
	c-0.236-0.111-0.389-0.141-0.533-0.168c-0.237-0.173-0.516-0.346-0.447-0.501c-0.006-0.198,0.685,0.253,0.588-0.029
	c-0.686-0.253-0.912-0.337-1.363-0.691c-0.38-0.106-0.369,0.149-0.928-0.122c-0.352-0.164-0.303-0.318-0.657-0.48
	c-0.288-0.009-1.351-0.35-2.109-0.834c-0.216,0.056-0.633-0.059-0.931-0.075c0.845,0.404,1.263,0.405,1.55,0.754
	c-0.213-0.049-0.411-0.084-0.554-0.071c0.434,0.18,0.566,0.108,0.904,0.209c-0.292,0.33,1.074,0.482,1.18,0.687
	c-0.075,0.067-0.275,0.028-0.234,0.196c1.041,0.221,2.572,0.865,3.047,1.497c-0.06-0.477,1.826,0.76,0.965,0.666
	c0.869,0.441,0.361-0.033,0.91,0.162c0.035,0.16,0.311,0.349,0.232,0.497c-1.626-0.475-2.497-1.125-3.81-2.097
	c-1.141-0.325-1.549-0.609-2.271-0.802l0.042-0.202c-0.15,0.139-1.938-0.702-1.443-0.277c0.413-0.017,1.489,0.544,1.531,0.749
	c-1.112-0.384-1.641-0.785-2.762-1.145c0.3-0.13-0.007-0.207-0.293-0.457c-0.016,0.414-1.179-0.12-0.898-0.232
	c-0.777-0.231-1.582-0.591-2.441-0.9c-0.863-0.298-1.77-0.585-2.716-0.747c-0.159-0.183-0.498-0.358-0.874-0.476
	c-0.381-0.108-0.795-0.169-1.102-0.161c0-0.096,0.097-0.13,0.195-0.162c-0.748-0.098-0.893-0.281-1.08-0.457
	c-0.725,0.02,0.705,0.415,0.164,0.384c-0.469-0.181-1.101-0.338-1.264-0.564c-0.629-0.177-1.66-0.305-2.653-0.481
	c-0.996-0.163-1.956-0.387-2.489-0.576c-0.563,0.035-2.402-0.165-3.807-0.347c-1.41-0.139-2.391-0.313-1.209-0.414
	c-1.301-0.163-2.884-0.205-3.721-0.222c0.91,0-0.359-0.053-0.037-0.27c-0.539,0.046-0.634,0.07-0.947-0.091
	c-0.039,0.314-1.289-0.144-1.66,0.099c0.104,0.001,0.223,0.059,0.011,0.068c-0.132-0.185-0.176-0.174-0.443-0.413
	c0.443-0.167,0.622-0.028,1.296-0.11c-0.393-0.245,0.103-0.219,0.309-0.397c-1.229,0.017-1.744,0.015-2.219,0.008
	c-0.474-0.027-0.908-0.051-1.964-0.11c-0.068,0.248,0.917,0.059,1,0.244c-0.315,0.008-0.63,0.017-0.944,0.024
	c0.055,0.125,0.172,0.222,0.434,0.259c-0.101-0.248,0.592,0.027,0.71-0.221c0.29,0.05,0.741,0.035,0.616,0.254
	c-0.328,0.023-0.953-0.044-0.725,0.153c0.467-0.064,0.842-0.121,1.138,0.039c-0.495,0.128-1.355,0.121-2.268,0.121
	c-0.457,0-0.927,0-1.367,0.02c-0.44,0.037-0.854,0.094-1.198,0.181c-0.308-0.093-1.336-0.108-2.262-0.051
	c-0.927,0.046-1.744,0.244-1.644,0.406c-0.425-0.105-0.298-0.075-0.653-0.257c0.599-0.146,2.064-0.111,2.01-0.373
	c-0.851,0.124-2.081,0.374-1.364-0.048c-0.532,0.055-0.376,0.25-0.873,0.314l-0.079-0.263c0.411-0.045,1.828-0.194,1.081-0.271
	c-0.298,0.228-1.202,0.138-1.517,0.124c-0.145,0.087-0.73,0.205-1.321,0.262c-0.591,0.058-1.185,0.093-1.358-0.073
	c0.014-0.079,0.17-0.136,0.326-0.193c0.628-0.103,1.562-0.016,1.688-0.251c0.27,0.055,0.318,0.209,0.106,0.327
	c0.937-0.092,0.043-0.208,0.477-0.333c0.312,0.1,0.665,0.201,0.961-0.054c-0.271-0.074-1.247-0.062-2.288,0.022
	c-1.037,0.104-2.133,0.316-2.646,0.52c-0.416-0.062-1.187,0.099-1.902,0.246c-0.715,0.149-1.389,0.237-1.648-0.067
	c-0.474,0.17-1.442,0.357-1.754,0.196c-0.592,0.085-0.278,0.26-0.866,0.366c-1.128,0.156-0.982-0.152-1.641-0.383
	c0.181,0.34-1.356,0.688-1.969,0.704c-0.039-0.083,0.294-0.158,0.305-0.234c-0.743-0.013-0.801,0.625-1.462,0.475
	c-0.478-0.071,0.993-0.428,0.27-0.303c-0.56,0.351-0.953,0.086-1.245,0.486c-0.333,0.066-0.399-0.081-0.682-0.058
	c-0.307,0.337-3.646,1.579-3.394,0.972c-0.41,0.189-0.848,0.373-1.305,0.554c-0.455,0.188-0.925,0.383-1.404,0.583
	c-0.963,0.396-1.994,0.744-2.989,1.155c-0.999,0.412-1.988,0.82-2.921,1.205c-0.921,0.408-1.765,0.839-2.496,1.235
	c-0.014-0.14-0.13-0.261,0.331-0.496c0.092,0.05,0.449,0.102,0.72-0.328c-0.297,0.178-0.437,0.169-0.468,0.031
	c0.5-0.371,1.173-0.422,1.357-0.76c-0.513,0.255-1.734,0.827-2.123,1.037c-0.055,0.109,0.15,0.272-0.243,0.601
	c-0.033-0.538-0.728,0.347-1.187,0.37c0.453-0.374-0.159-0.377-0.346-0.103c0.41-0.246,0.183,0.149-0.029,0.257
	c-0.721,0.357-1.261-0.072-1.643,0.47c0.045,0.163,0.727-0.5,0.637-0.16c-0.018,0.33-1.042,0.605-1.533,0.883
	c0.008,0.233-0.169,0.491-0.465,0.763c-0.292,0.28-0.707,0.568-1.187,0.834c0.686-0.489,0.208-0.286,0.078-0.464
	c-0.993,0.67-1.666,1.2-2.695,1.65c0.275-0.243,1.607-1.079,1.061-0.843c-0.813,0.661-1.067,0.505-0.728,0.099
	c-0.665,0.631-0.85,0.457-1.362,1.104c-0.071-0.054-0.266,0.088-0.305-0.021c-0.052-0.11,0.153-0.31,0.523-0.569
	c-0.717,0.175-0.934,0.297-1.657,0.589c-0.08,0.273,0.777-0.333,0.361,0.061c-0.707,0.447-0.5,0.565-0.988,0.933
	c-0.143-0.306-0.924,0.479-1.327,0.652c0.453-0.769,1.528-0.897,1.64-1.405c-0.419,0.325-1.041,0.675-1.042,0.378
	c0.343-0.318,1.204-0.821,1.207-1.014c-0.875,0.511-1.425,1.079-1.927,0.911c-0.029,0.405-1.254,1.03-1.671,1.672
	c-0.374,0.137,0.009-0.18-0.366-0.043c-0.387,0.476-0.822,0.372-0.815,0.604c0.38-0.311,0.211,0.11,0.017,0.259
	c-0.156-0.091-0.6,0.371-0.988,0.728c-0.063-0.224-0.415,0.112-0.477-0.111c-0.67,0.758-1.352,1.267-2.02,1.773
	c-0.654,0.52-1.307,1.018-1.937,1.71c-0.161,0.023-0.132-0.365-0.429-0.044c-0.105,0.401-0.505,0.853-0.993,1.24
	c-0.075-0.05,0.184-0.296,0.152-0.373c-0.709,0.549-2.611,2.889-2.295,1.859c-0.343,0.651-1.377,2.113-1.629,1.818
	c-0.369,0.525,0.186,0.255,0.045,0.479c-0.911,0.658-1.684,1.486-2.353,2.381c-0.68,0.888-1.331,1.778-2.125,2.496
	c0.182,0.126-0.753,0.911-1.135,1.548c3.995,1.575,7.808,3.27,11.461,5.049c0.036,0.018,0.074,0.035,0.11,0.053
	c0.258,0.126,0.523,0.249,0.78,0.375c0.056,0.028,0.11,0.057,0.166,0.085c0.188,0.093,0.368,0.189,0.554,0.283
	c1.369,0.686,2.712,1.384,4.033,2.093c6.654,3.571,12.693,7.411,18.146,11.33c0.339,0.244,0.687,0.487,1.021,0.731
	c0.082,0.06,0.167,0.118,0.249,0.178c19.198,14.07,30.875,28.927,36.148,35.638c0.932,1.186,1.689,2.148,2.23,2.786
	c0.106,0.093,0.22,0.196,0.351,0.315c0.585,0.531,1.205,1.063,1.86,1.596c0.082-1.087,0.375-1.932,0.586-2.415
	c0.145-0.333,0.289-0.595,0.408-0.785l6.369-10.772c0.973-1.683,2.561-2.912,4.406-3.481c-0.375-1.765,0-3.635,1.054-5.196
	l0.022-0.034l0.024-0.034l2.546-3.608l0.016-0.021l0.014-0.021c1.106-1.526,2.769-2.552,4.602-2.883
	c-0.112-1.866,0.555-3.727,1.85-5.135c1.212-1.316,5.263-5.604,9.998-9.383c0.129,0.237,0.455,0.537,0.535,0.381
	c-0.221-0.181-0.307-0.327-0.412-0.479c2.107-1.674,4.346-3.241,6.525-4.398c0.221-0.117,0.441-0.23,0.662-0.339
	c0.107,0.104,0.213,0.22,0.355,0.339c-0.035-0.143-0.13-0.271-0.249-0.393c0.001,0,0.001,0,0.001,0
	c0.771-0.376,1.531-0.694,2.272-0.943c0.293,0.322,0.631,0.614,0.906,0.798c-0.374-0.353-0.393-0.559-0.673-0.873
	c0.453-0.144,0.898-0.262,1.335-0.349c0.019-0.003,0.038-0.009,0.056-0.013c0.052-0.01,0.105-0.013,0.157-0.022
	c0.505-0.087,1.022-0.138,1.544-0.138h0.002c1.334,0,2.703,0.295,4.109,0.87c0.574,0.234,1.154,0.509,1.742,0.84l-0.107,0.101
	c0.221,0.329,0.189,0.49,0.412,0.469c-0.145-0.214-0.084-0.308-0.076-0.432c0.158,0.092,0.316,0.188,0.477,0.288
	c0.615,0.384,1.24,0.823,1.872,1.312c0.229,0.363,0.384,0.653,0.503,0.575c-0.092-0.122-0.169-0.247-0.229-0.365
	c0.034,0.027,0.066,0.05,0.101,0.078c0.438,0.351,0.879,0.729,1.324,1.13c0.174,0.157,0.35,0.323,0.525,0.487
	c0.184,0.411,0.443,0.904,0.603,0.698c0.014-0.027,0.011-0.071,0-0.123c0.213,0.208,0.427,0.422,0.641,0.642
	c0.106,0.109,0.213,0.215,0.319,0.327c-0.266-0.365-0.557-0.764-0.879-1.114c-0.002-0.003-0.003-0.005-0.004-0.008
	c-0.04-0.174-0.1-0.362-0.186-0.565c0.001-0.226,0.107-0.348-0.231-0.956c-0.091,0.026-0.179,0.002-0.269-0.051
	c-0.139-0.259-0.281-0.544-0.431-0.853c0.346,0.374,0.651,0.701,0.923,1.067c0.289,0.413,0.529,0.888,0.762,1.541
	c0.023-0.215,0.424,0.289,0.215-0.167c-0.436-0.557-0.855-1.325-1.027-1.893c-0.453-0.043-1.105-1.394-1.096-1.856
	c0.212,0.353,0.419,0.686,0.545,0.607c-0.322-0.92-0.41-1.265-1.178-1.793c0.279,0.494,0.791,0.793,0.824,1.236
	c-0.124-0.012-0.264-0.106-0.417-0.281c-0.078-0.432-0.22-0.511-0.602-0.999c0.306-0.066-0.231-0.653-0.228-0.908
	c-0.327-0.233-0.05,0.429-0.436-0.035c-0.361-0.635-0.782-0.886-0.963-1.564c0.229,0.12,0.51,0.465,0.688,0.47
	c-0.311-0.508-0.413-0.156-0.741-0.648c0.157-0.088-0.09-0.398-0.263-0.668c-0.172-0.126-0.348-0.307-0.526-0.509
	c0.106-0.14,0.087-0.364,0.118-0.553c-0.373-0.281-0.7-0.419-0.976-0.444c-0.238-0.256-0.476-0.47-0.706-0.561
	c-0.027-0.23-0.43-0.646-0.51-0.902c0.232,0.298,0.416,0.458,0.521,0.397c-0.776-0.535-1.49-1.929-1.729-1.486
	c-0.48-0.467-0.482-1.104-1.003-1.354c0.079,0.106,0.222,0.238,0.186,0.294c-0.204-0.239-0.297-0.204-0.493-0.424
	c0.067-0.371-1.182-1.156-1.338-1.74c-0.028,0.365-0.573-0.384-0.754-0.348c0.316,0.417,0.676,0.857,1.043,1.298
	c0.346,0.457,0.693,0.918,1.018,1.349c-0.811-0.687-1.254-1.225-2.104-2.035c0.047-0.115,0.826,0.424,0.278-0.108
	c-0.646-0.037-1.198-1.235-1.896-1.519c0.498,0.555,1.301,1.26,1.065,1.565c0.245-0.228,0.365,0.434,0.546,0.617
	c0.178-0.106,0.436,0.125,0.74,0.444c0.295,0.327,0.624,0.752,0.977,1.012c-0.143,0.264,0.209,0.431,0.742,0.881
	c-0.338,0.117,0.315,0.65,0.297,0.905c1.063,0.188,1.914,2.138,2.183,2.736c0.004,0.008,0.008,0.018,0.013,0.028
	c-0.021,0.313,0.016,0.68,0.121,1.088c-0.123-0.167-0.242-0.337-0.368-0.503c0.087,0.094,0.157,0.126,0.187,0.014
	c-0.334-0.482-0.392-0.626-0.662-0.647c-5.131-6.621-11.496-12.287-18.804-16.657c0.075,0.013,0.157,0.021,0.261,0.031
	c-0.184-0.171-0.405-0.348-0.32-0.494c0.076,0.046,0.178,0.039,0.025-0.063c-0.102,0.075-0.178-0.118-0.422-0.242
	c0.208,0.415,0.115,0.37-0.195,0.368c-0.42-0.244-0.852-0.471-1.275-0.706c-0.021-0.026-0.063-0.053-0.076-0.078
	c0.19,0.095,0.17-0.045,0.331,0.016c0.478,0.179,0.407,0.327,0.671,0.494c0.05-0.033,0.049-0.126,0.188-0.055
	c0.174-0.213-0.531-0.19-0.334-0.474c0.385-0.035,0.499-0.24,0.67-0.33c0.175-0.092,0.408-0.063,1.018,0.402
	c0.202,0.521,0.849,0.71,1.647,1.102c-0.03,0.09-0.124,0.099-0.221,0.106c0.312,0.185,1.396,1.103,1.555,0.874
	c0.042-0.151-0.382-0.141-0.687-0.44c0.213-0.128-0.418-0.369-0.312-0.502c1.233,0.674,1.333,0.926,1.354,1.33
	c0.638,0.417,1.105,0.76,1.609,1.175c0.499,0.425,1.053,0.899,1.895,1.542c0.253-0.007-0.223-0.47,0.128-0.24
	c0.388,0.42,0.61,0.383,1.173,0.878c-0.188-0.025-0.219,0.036,0.029,0.28c0.536,0.134,0.498,0.694,0.836,0.486
	c0.307,0.282,0.253,0.471,0.336,0.696c0.176,0.026,0.254-0.118,0.432-0.089c0.311,0.213,0.484,0.397,0.596,0.573
	c0.172,0.033,0.252-0.108,0.427-0.076c-0.499-0.365-0.403-0.538-0.484-0.762c-0.311-0.297-0.42-0.25-0.663-0.433
	c-0.044-0.043-0.09-0.087-0.138-0.131l0.13-0.221c0.422,0.29,0.445,0.554,0.68,0.451c-0.365-0.624-1.15-0.336-1.877-1.311
	c0.659,0.585,0.208-0.059,0.521,0.068c-0.769-0.606-2.254-2.517-0.588-1.308c0.203-0.134-0.111-0.384-0.416-0.63
	c0,0.215-0.168,0.179-0.503-0.11c-0.132,0.051-0.021,0.472-0.321,0.268c-0.34-0.307-0.743-0.688-1.112-0.71
	c-0.502-0.488-1.095-0.906-1.696-1.346c-0.608-0.426-1.225-0.875-1.885-1.267c-1.323-0.778-2.658-1.579-3.964-2.284
	c0.605,0.253,0.611,0.257,1.183,0.604c0.125-0.391,0.808,0.271,0.939,0.295c-0.384-0.298,0.482,0.202,0.072-0.192
	c1.143,0.621,1.999,1.246,2.822,1.411c-1.105-0.71,0.616-0.109-0.123-0.561c-0.705,0.055-1.664-0.609-2.359-1.279
	c-0.052,0.063-0.046,0.195-0.221,0.108c-0.369-0.496,0.66,0.109,0.999,0.184c-0.491-0.388-0.945-0.792-1.521-1.17
	c0.163-0.025,0.303-0.092,0.664,0.132c0.523,0.379,0.333,0.358,1.004,0.656c-0.027,0.09-0.123,0.099-0.219,0.107
	c0.422,0.262,0.504,0.114,0.93,0.378l-0.127,0.316c0.473-0.02,1.166,0.212,1.922,0.612c-0.849-0.727-1.711-1.835-2.604-2.095
	c-0.012-0.139-0.302-0.653,0.02-0.532c0.555,0.503,0.529,0.57,1.316,0.835c-0.041,0.075-0.228-0.023-0.225,0.105
	c1.186,0.699,0.336,0.71,1.572,1.5c0.289,0.056,0.478-0.024,0.855,0.147c-0.334-0.265,0.105-0.307,0.283-0.22
	c0.213,0.304,0.447,0.508,0.317,0.125c0.249,0.256,0.667,0.544,1.047,0.825c0.375,0.292,0.705,0.59,0.801,0.825
	c-0.065,0.148-0.327,0.01-0.319,0.27c-0.799-0.384-2.063-1.315-3.012-1.911c-0.031,0.129,0,0.269,0.176,0.434
	c0.035-0.153,0.205-0.124,0.513,0.088c0.061,0.225,0.05,0.248-0.14,0.312c0.355,0.217,0.696,0.433,0.654,0.582l-0.569-0.367
	c-0.183,0.289,0.857,1.111,1.239,1.293c-0.18-0.179-0.293-0.329-0.33-0.468c0.209,0.115,0.288,0.051,0.479,0.16
	c0.508,0.431,0.067,0.337,0.261,0.6c0.366,0.036,0.052,0.225,0.213,0.317c0.165-0.004,0.303-0.048,0.642,0.208
	c-0.024,0.106-0.164,0.189,0.012,0.34c1.558,0.442,1.912,1.916,3.636,2.694c-0.034,0.191,0.311,0.494,0.503,0.771
	c0.102-0.246-0.1-0.596-0.063-0.853c-0.585-0.447-1.827-1.389-1.99-1.916c0.284,0.208,0.899,0.521,1.031,0.9
	c0.073-0.07,0.077-0.257,0.269-0.132c0.344,0.323,0.739,0.644,1.144,0.975c0.4,0.339,0.812,0.687,1.216,1.03
	c0.813,0.679,1.59,1.352,2.064,2.011c-0.246-0.259,0.137-0.278-0.055-0.518c-0.592-0.222-1.189-0.843-1.484-1.43
	c-0.477-0.272-1.051-0.744-1.612-1.232c-0.579-0.469-1.159-0.945-1.604-1.27c0.146-0.365-1.037-1.409-0.71-1.506
	c-0.358-0.314-1.151-0.718-1.228-0.964c0.395,0.264,0.496,0.091,0.826,0.26c-0.314-0.3-0.537-0.577-1.063-0.926
	c0.094-0.141,0.363,0-0.02-0.345c-1.146-0.843-2.62-1.619-3.627-2.807c0.349-0.234,1.311,0.661,1.871,0.881
	c-0.502-0.482,0.691,0.465,0.645,0.255c-0.396-0.273-0.173-0.61,0.199-0.433c0.293,0.259,0.453,0.49,0.272,0.658
	c0.372,0.242,0.741,0.51,0.806,0.319c-0.87-0.475,0.004-0.437-0.283-0.616c-0.121,0.03-0.298-0.005-0.529-0.108
	c0.125-0.388-0.781-0.55-1.064-0.607c-0.375-0.487-2.17-1.135-2.768-1.945c0.468,0.179,0.865,0.332,1.245,0.646
	c0.245-0.168,0.745-0.008,1.378,0.324c0.246,0.321-0.119,0.08-0.257,0.155c0.435,0.246,1.177,0.272,1.368,0.802
	c-0.264-0.169-0.952-0.406-0.68-0.197c0.451,0.173,0.916,0.297,1.364,0.438c0.446,0.15,0.866,0.332,1.248,0.594
	c0.063-0.099,0.062-0.214-0.024-0.349c0.684,0.425,1.424,0.813,2.047,1.197c0.621,0.386,1.097,0.799,1.295,1.198
	c0.494,0.337,1.26,1.112,1.582,1.169c-0.462-0.443-0.311-0.741-0.678-0.97c0.52,0.302,0.947,0.455,1.336,0.547
	c0.04,0.294,0.943,0.9,1.127,1.248c-0.004,0.242-0.617-0.603-0.616-0.358c0.573,0.825,1.562,1.666,2.472,2.59
	c0.906,0.924,1.854,1.813,2.354,2.667c-0.382-0.143-0.991-1.272-1.352-1.159c0.197,0.305,0.475,0.596,0.764,0.917
	c0.277,0.331,0.576,0.684,0.834,1.092c-0.07,0.293-0.378,0.035-0.778-0.43c0.265-0.347-1.587-1.843-0.74-1.69
	c-0.707-0.472-1.466-1.154-1.774-1.802c-0.277-0.208-0.25,0.127-0.652-0.302c0.033-0.148,0.256,0.046,0.381,0.064
	c-0.445-0.198-1.254-0.9-2.094-1.621c-0.833-0.73-1.764-1.399-2.33-1.663c0.043-0.125,0.018-0.272-0.15-0.463
	c-0.17,0.065-0.553-0.206-0.723-0.14c0.555,0.348,0.383,0.482,0.6,0.732c0.096-0.047,0.827,0.361,0.871,0.603
	c-0.034,0.171-0.44-0.253-0.518-0.153c0.1,0.1,0.273,0.22,0.242,0.28c-0.114-0.07-0.273-0.214-0.309-0.159
	c0.606,0.513,1.631,0.761,1.823,1.396c-0.462-0.495-0.38-0.033-0.677-0.228c-0.559-0.648-1.707-1.265-2.007-1.42
	c0.914,0.636,0.517,0.891,1.005,1.4c-0.568-0.327-0.17-0.373-0.62-0.665c-0.307,0.259,0.04,0.704,0.347,1.136
	c-0.343-0.331-0.334-0.087-0.512-0.147c0.302,0.376,1.115,0.898,0.51,0.833c0.396,0.343,1.059,0.813,0.977,1.015
	c-0.324-0.099-1.07-0.966-1.188-0.665c1.361,0.635,2.008,1.56,2.621,2.471c0.585,0.944,1.111,1.897,2.316,2.668
	c-0.346,0.094,0.088,0.516,0.227,0.822c-0.352-0.012-0.761-0.194-1.2-0.355c-0.157-0.326-0.3-0.298-0.608-0.584
	c-0.274-0.426,0.201-0.174-0.207-0.574c-0.078,0.088-0.096,0.199-0.037,0.339c-0.582-0.496-0.688-0.768-1.518-1.62
	c-0.338,0.007-0.689-0.307-0.646,0.064c0.931,0.67,1.062,1.225,2.045,1.722c-0.378-0.17-0.062,0.923,0.407,0.859
	c-0.174-0.183-0.46-0.409-0.443-0.52c0.08-0.063,0.104-0.247,0.279-0.105c0.453,0.53,0.969,0.648,0.769,0.925
	c-0.108-0.223-0.396-0.504-0.524-0.41c0.424,0.417-0.087,0.088,0.24,0.513c0.405,0.147,1.336,1.121,1.504,1.58L147.779,46
	c-0.424-0.656-1.102-0.521-0.657-0.5c0.723,1.028,1.494,0.996,1.764,0.983c0.337,0.316-0.054,0.31,0.163,0.585
	c0.248-0.185,0.795,0.45,1.186,0.656c-0.194-0.183-0.204-0.624,0.07-0.335c0.295,0.452,0.797,1.041,1.27,1.618
	c0.451,0.594,0.863,1.185,1.016,1.597c-0.174-0.029-0.491-0.292-0.188,0.197c0.361-0.279,0.797,1.223,1.178,1.428
	c0.244-0.067-0.348-0.617-0.063-0.65c0.464,0.725,0.566,0.265,0.939,0.723c0.217,0.748,1.533,2.488,1.973,3.004
	c0.02-0.4-0.554-0.755-0.5-1.142c0.264,0.149,0.426-0.125,0.691,0.058c0.1,0.314,0.666,1,0.934,1.221
	c-0.305-0.594-0.34-0.851,0.111-0.327c-0.651-1.316-1.328-1.822-2.131-3.157c-0.105,0.068-0.23,0.065-0.395-0.093
	c0.023-0.168-0.473-0.667-0.398-0.8c0.186-0.152,0.666,0.805,0.84,0.607c-0.232-0.463-1.383-1.521-1.039-1.633l-0.533-0.688
	c-0.278,0.41-1.5-1.572-0.866-1.334c-0.479-0.677-1.393-1.559-1.132-1.85c0.584,0.93,1.18,1.528,1.836,2.095
	c-0.188-0.284-0.057-0.399-0.451-0.787c-0.045,0.229-0.324-0.177-0.478-0.247c0.069-0.162-0.452-0.629-0.434-0.82
	c0.239-0.051-0.042-0.37-0.007-0.525c0.662,0.483,1.09,1.363,1.492,1.988c0.117-0.061-0.028-0.274-0.189-0.494
	c-0.172-0.213-0.355-0.434-0.297-0.527c0.075-0.082,0.343,0.345,0.434,0.301c-0.018-0.259-0.841-0.935-0.83-1.179
	c0.334,0.259,0.8,0.868,0.984,0.738c0.348,0.525,0.54,1.021,0.764,1.502c-0.052-0.464,0.732,0.491,1.119,0.344
	c-0.716-0.5-1.656-1.261-1.817-2.186c-0.628-0.611-1.562-1.676-1.767-2.273c0.348,0.292,0.67,0.518,0.916,0.549
	c-0.053-0.507-1.035-0.921-1.309-1.471c0.153,0.153,0.303,0.294,0.328,0.153c-0.346-0.395-0.502-0.349-0.737-0.489
	c-0.202-0.272-0.409-0.919,0.047-0.643c0.338,0.46,0.685,0.882,1.036,1.291c0.339,0.419,0.672,0.83,1.006,1.244
	c0.661,0.833,1.344,1.664,1.871,2.727c-0.234-0.256-0.447-0.544-0.645-0.839c-0.202-0.289-0.404-0.575-0.59-0.839
	c-0.376-0.527-0.722-0.953-1.094-1.027c0.663,0.503,0.611,1.037,1.089,1.172c0.419,0.663,0.286,0.973,0.835,1.452
	c-0.423-0.448,0.006-0.279,0.139-0.151c0.293,0.504,0.256,0.459,0.676,1.09c0.326-0.158,1.166,1.239,1.473,1.03
	c-1.348-1.111-2.098-2.957-2.865-4.263c-0.391-0.303,0.022,0.45-0.338,0.122c-0.143-0.225-0.217-0.414-0.219-0.567
	c0.564,0.148,0.101-0.272,0.04-0.886c0.737,0.692,0.179,0.7,0.604,1.228c0.322,0.319,0.975,0.644,1.076,0.951
	c-0.061,0.066-0.246-0.194-0.325-0.174c0.153,0.229,0.224,0.426,0.365,0.666c0.073-0.156,0.198-0.158,0.405,0.082
	c-0.154,0.351-0.07,0.841,0.471,1.598c0.123-0.028-0.044-0.338,0.141-0.149c0.271,0.599,0.902,1.41,1.057,1.983
	c0.355,0.12,0.47,0.679,0.928,1.085c-0.25,0.185,0.943,1.306,0.724,1.525c0.061-0.002,0.139,0.073,0.243,0.257
	c0.658-0.252-1.188-2.146-1.191-2.812c0.549,0.869,0.486,0.458,0.25,0.004c0.533,0.473,0.855,1.175,1.09,1.733
	c0.231,0.56,0.35,0.997,0.553,0.918c0.229,0.404,0.576,1.635,0.621,1.366C160.678,53.228,160.996,53.841,161.201,53.634z
	 M23.298,42.055c0.595-0.813,1.213-1.591,2.025-2.631c-0.243-0.28-0.868,0.68-1.161,0.549c2.401-3.904,4.911-7.118,8.23-9.666
	c3.233-3.425,7.275-6.246,10.372-9.319c1.102-0.8,2.454-1.734,3.856-2.696c1.444-0.896,2.932-1.835,4.361-2.532
	c-0.736,0.088-1.728,0.732-2.749,1.376c-0.509,0.326-1.022,0.655-1.51,0.934c-0.482,0.283-0.928,0.532-1.329,0.655
	c0.012-0.195-0.097-0.352,0.001-0.576c-1.135,0.585-2.206,1.087-2.956,1.15c-1.831,1.456-4.089,2.682-5.554,3.403
	c-0.538,0.386-0.162,0.378-0.698,0.765c-0.066-0.156-0.417,0.158-0.434-0.076c-0.417,0.476-1.045,0.978-1.391,1.031
	c-0.767,1.031-1.024,0.722-1.813,1.769l-0.17-0.119c-0.868,0.798-1.659,1.425-2.431,2.049c-0.766,0.633-1.529,1.246-2.199,2.139
	c-0.079-0.102-0.29,0.101-0.377,0.016c-0.905,0.917-1.17,1.434-1.749,1.65c-0.584,0.689-1.154,1.347-1.723,1.987
	c-0.579,0.633-1.149,1.255-1.724,1.882c-1.117,1.284-2.203,2.644-3.125,4.34c-0.158,0.061-0.341,0.213-0.548,0.454
	c-0.213,0.447-0.567,1.036-0.962,1.665c1.538,0.552,3.053,1.12,4.542,1.705C22.502,43.238,22.882,42.625,23.298,42.055z
	 M9.572,65.617c0.014-0.176,0.124-0.494,0.228-0.692c-0.02-0.006-0.038-0.013-0.057-0.019C9.612,65.179,9.537,65.419,9.572,65.617z
	 M140.313,39.093c-0.5-0.337-0.674-0.587-0.849-0.84c-0.224,0.089-0.452,0.168-0.788,0.067
	C139.251,38.442,139.787,38.833,140.313,39.093z M173.367,57.723c0.236,0.594,0.333,0.239,0.545,0.843
	c-0.223,0.309,0.328,1.107,0.295,1.503c0.081-0.577,0.191,0.573,0.488,1.118c-0.041-1.196-1.046-3.166-1.561-4.542
	C172.801,56.798,173.539,57.412,173.367,57.723z M165.588,64.442c-0.002,0.286-0.014,1.03,0.272,1.301
	C165.527,65.061,166.036,65.229,165.588,64.442z M156.73,61.06c0.07,0.352,0.107,0.178,0.324,0.573
	c-0.053,0.033-0.066,0.093-0.074,0.161c0.142,0.153,0.282,0.299,0.425,0.457C157.201,61.821,156.965,61.391,156.73,61.06z
	 M162.385,60.646c-0.158,0.025-0.428-0.873-0.563-0.666l0.396,0.787C162.284,60.636,162.48,60.896,162.385,60.646z M161.31,55.203
	c0.604,0.265,1.521,1.818,1.434,2.511c-0.296-0.409-0.154-0.467-0.39-0.829c-0.123,0.275,0.783,2.04,1.059,1.899
	c-0.385-0.698-0.492-1.158-0.568-1.591c0.039,0.062,0.079,0.116,0.121,0.154c-0.063-0.407,0.1-0.596-0.338-1.368
	c-0.076,0.044-0.082,0.235-0.045,0.462c-0.039,0.014-0.084,0.004-0.143-0.089c0.325-0.11-0.287-0.578-0.236-0.965
	c0.137,0.457,0.444,0.316,0.246,0.026c-0.021,0.007-0.048-0.013-0.072-0.023c0.118-0.035,0.165-0.296,0.146-0.51
	c-0.332-0.278-0.59-0.8-0.48-1.061c-0.496-0.161-0.211,0.597,0.146,1.425c-0.107-0.117-0.219-0.253-0.316-0.284
	c0.295,0.386,0.069,0.395,0.12,0.603c-0.162-0.324-0.247-0.255-0.38-0.383c-0.016-0.523,0.135-0.466-0.122-1.082
	c-0.221,0.051,0.023,0.427-0.257,0.224c0.451,0.581,0.069,0.547,0.274,0.946l-0.288-0.459l-0.206,0.178
	c0.562,0.703,0.631,1.568,0.895,1.798C161.959,56.461,161.396,55.619,161.31,55.203z M163.403,58.339
	c-0.017-0.329-0.13-0.736-0.267-1.164C162.813,57.175,163.275,58.256,163.403,58.339z M169.995,50.141
	c-0.927-1.511-0.382-0.483-0.148,0.401C170.014,50.503,169.762,50.126,169.995,50.141z M156.324,59.932
	c0.173,0.227,0.412,0.892,0.541,0.819c0.11-0.804-0.979-1.846-1.298-2.518c0.021,0.657,0.94,1.241,1.108,2.046
	C156.461,60.362,156.502,59.608,156.324,59.932z M157.213,59.861c-0.266-0.209-0.392-1.014-0.717-1.537
	C156.425,58.371,157.113,60.226,157.213,59.861z M157.777,57.556c0.291,0.644,0.539,1.083,0.549,0.57
	c-0.415-0.983-0.681-1.479-1.43-2.335C157.088,56.094,157.463,56.927,157.777,57.556z M156.742,55.926
	c-0.334-0.529-0.529-0.394-0.803-0.635C155.455,54.853,156.612,56.176,156.742,55.926z M158.202,51.06
	c0.238-0.324-0.979-1.528-1.293-1.709c0.175,0.279,0.56,1.403,0.481,1.021c-0.009-0.219-0.299-0.618-0.22-0.781
	C157.571,50.381,157.84,50.291,158.202,51.06z M154.881,48.933l-0.325-0.418c-0.052,0.227,0.257,0.659,0.306,0.943
	C155.086,49.41,154.657,48.982,154.881,48.933z M154.525,37.022c-0.027,0.086-0.137,0.133,0.013,0.308
	c0.138-0.281,0.53,0.52,0.488,0.614c0.384,0.332,0.798,0.802,1.212,1.303c0.416,0.496,0.82,1.031,1.176,1.505
	c-0.057-0.325,0.489,0.065,0.216-0.27c-0.094,0.037-0.325-0.261-0.462-0.332c0.313-0.291-0.193-0.703-0.01-0.918
	c-0.322,0.103-1.4-1.683-1.451-1.253c-0.238-0.27,0.057-0.274-0.104-0.506c-0.282-0.289-0.58-0.586-0.889-0.881
	c-0.314-0.288-0.636-0.579-0.947-0.865c-0.619-0.578-1.187-1.156-1.575-1.726c0.068,0.413,0.233,0.387-0.29,0.098
	C152.799,34.841,153.463,36.444,154.525,37.022z M141.9,34.157C141.439,33.287,140.102,32.999,141.9,34.157L141.9,34.157z
	 M140.205,34.004c-0.507-0.14-1.557-1.067-1.977-1.082C139.002,33.56,140.059,34.144,140.205,34.004z M137.443,36.424
	c-0.61-0.557-0.301,0.262-0.832-0.177c0.018-0.036-0.076-0.148-0.136-0.097c0.245,0.474,0.483,0.271,0.781,0.64
	C137.226,36.525,137.229,36.514,137.443,36.424z M136.341,36.053c-0.056-0.401,0.589,0.242,0.589-0.079
	c-0.563-0.277,0.108-0.292-0.454-0.571c-0.19,0.118,0.028,0.324-0.045,0.465c-0.285-0.25-0.678-0.652-0.858-0.499
	C135.716,35.562,136.211,35.84,136.341,36.053z M136.207,33.61c0.471,0.108,0.839,0.646,1.169,0.694
	c-0.159-0.351-0.989-0.818-1.112-0.818C136.432,33.611,136.322,33.613,136.207,33.61z M137.896,25.023
	c0.551,0.324,0.448-0.101,0.807,0.002c-0.533-0.301-0.791-0.289-1.229-0.482c0.533,0.383-0.979-0.338-0.284,0.226
	C137.295,24.607,138.484,24.919,137.896,25.023z M131.584,35.552c0.009-0.148,0.24-0.018,0.359-0.026
	c-0.391-0.24-0.051-0.4-0.598-0.655c-0.066,0.093-0.416,0.12-0.184,0.439c0.029-0.186,0.164-0.241,0.527-0.01
	C131.631,35.315,131.239,35.342,131.584,35.552z M129.354,33.808c0.111-0.111,0.767,0.448,0.775,0.209
	c-0.358-0.212-0.104-0.362-0.466-0.577c-0.035,0.083-0.27-0.084-0.33-0.035c0.328,0.167,0.524,0.321,0.516,0.452
	C129.585,33.669,129.065,33.617,129.354,33.808z M124.967,18.619c-0.395-0.084-1.146-0.421-1.277-0.256
	c0.213,0.086,0.096,0.11-0.021,0.134C124.145,18.592,125.024,18.676,124.967,18.619z M123.498,18.368
	c-0.383-0.069,0.318-0.254-0.155-0.196c-0.019,0.038-0.04,0.07-0.19,0.007c-0.234-0.081-0.143-0.174-0.336-0.257
	C122.201,17.868,123.229,18.472,123.498,18.368z M120.406,17.752c-0.683-0.595-2.063-0.702-2.654-1.253
	c-0.463,0.272-1.51-0.682-2.01-0.389c0.629,0.2,1.342,0.479,2.126,0.763C118.652,17.16,119.51,17.448,120.406,17.752z
	 M110.525,7.225c0.987,0.237,2.032,0.516,2.805,0.551c-1.313-0.349-2.719-0.741-4.251-0.992c-0.007,0.22-1.208-0.108-0.994,0.212
	C108.605,6.857,109.541,6.974,110.525,7.225z M106.895,14.054c1.662,0.325,1.437,0.338,2.603,0.511
	c-0.581-0.346-1.054-0.328-1.681-0.665C108.479,14.453,106.879,13.537,106.895,14.054z M104.086,13.522
	c0.44,0.033,0.543-0.069,1.115,0.05c0.107,0.212,0.355,0.083,0.576,0.342c-0.09-0.201,0.703,0.259,0.742,0.025
	c-0.353-0.051-0.142-0.242-0.571-0.275c-0.039,0.048,0.003,0.134-0.181,0.114c-0.035-0.106,0.055-0.245-0.201-0.297
	c-0.3,0.139-1.368-0.384-1.49-0.094c0.047-0.107-0.271-0.203-0.381-0.097C103.933,13.335,104.084,13.406,104.086,13.522z
	 M97.869,12.983c0.498-0.157,1.051,0.102,1.344,0.234c-0.158-0.435,1.521,0.05,1.47-0.217c-0.544-0.021-0.648-0.042-0.392-0.159
	c-1.064-0.055-0.992-0.138-1.115,0.105c-0.85-0.072-0.455-0.172-0.98-0.294C98.346,12.77,97.574,13.087,97.869,12.983z
	 M75.971,13.824c0.297-0.14,0.917-0.238,1.06-0.388c-0.831,0.112-0.969,0.172-1.386,0.128c0.722-0.161-0.052-0.412,0.575-0.564
	c-0.258,0.061-0.426,0.067-0.589,0.078C75.677,13.321,75.3,13.68,75.971,13.824z M55.615,18.499
	c-0.102,0.061-0.197,0.121-0.129,0.147c0.314-0.186,0.545-0.353,0.602-0.489c-0.603,0.449-0.93,0.056-1.288,0.566
	C55.071,18.647,55.479,18.416,55.615,18.499z M43.901,20.666c-1.335,1.005-3.06,2.467-3.83,3.067
	c1.293-0.67,3.042-2.725,3.964-2.667c-0.095,0.067-0.15,0.173,0.049,0.049c0.195-0.524,0.636-0.557,1.345-0.937
	c0.012-0.228,0.428-0.623,0.793-0.631c0.236-0.691-0.98,0.54-2.003,1.144C44.44,20.347,44.124,20.667,43.901,20.666z M7.598,78.758
	c-0.352,1.284-0.7,2.625-0.859,3.851c0.233,0.299,0.191-0.536,0.344-0.626c-0.121,0.42,0.08,0.893,0.154,0.387
	c-0.083-0.25-0.215-0.395-0.14-0.986C7.245,80.437,7.782,79.303,7.598,78.758z M7.121,84.385c-0.033-0.901-0.16-0.594-0.388-0.968
	C6.805,83.876,6.857,84.387,7.121,84.385z M7.246,103.06c-0.045,0.268-0.045,0.803,0.02,1.252c0.079,0.445,0.211,0.803,0.387,0.716
	c-0.084-1.377-0.012-1.583-0.197-3.079C7.397,102.478,7.581,103.491,7.246,103.06z M8.484,113.546
	c0.046,0.309,0.043,0.543,0.089,0.852c0.234,0.051,0.24-0.836,0.098-0.939C8.737,113.776,8.571,113.66,8.484,113.546z
	 M174.461,65.548c-0.053-0.304-0.138-0.643,0.02-0.702c0.152-0.206,0.375,0.916,0.521,0.608c-0.867-1.497-1.141-2.978-1.509-4.415
	c-0.175-0.721-0.344-1.439-0.579-2.148c-0.235-0.708-0.582-1.384-1.035-2.047c0.098-0.061,0.07-0.246-0.015-0.483
	c-0.616-0.424-0.673-1.992-1.261-2.284c0.316-0.134-0.598-1.444-0.88-1.848c-0.239-1.452-1.671-3.009-2.276-4.632
	c-0.166-0.104-0.443-0.504-0.597-0.526c0.272-0.132-0.194-0.67-0.114-0.166c-0.195-0.294-0.367-0.505-0.51-0.617
	c0.088-0.251,0.367,0.162,0.242-0.244c-0.246-0.496-0.527-0.191-0.346-0.496c-0.338-0.445-0.824-0.829-0.699-0.417
	c0.211,0.338,0.292,0.26,0.441,0.396c-0.197,0.202,0.086,1.229,0.561,1.403c0.141,0.582,0.396,1.384,0.784,2.27
	c0.384,0.889,0.948,1.833,1.599,2.779c0.398,1.104,0.894,2.78,1.664,3.713c-0.131,0.28,0.623,1.402,0.727,1.907
	c0.078-0.029,0.156-0.043,0.289,0.276c0.822,2.699,2.098,5.18,2.748,8.034c0.177-0.039,0.313,0.29,0.438,0.66
	c0.117,0.373,0.21,0.792,0.336,0.922c-0.187-0.761-0.135-1.189-0.303-1.864C174.627,65.643,174.553,65.761,174.461,65.548z
	 M8.662,74.756c0.011,0.445-0.061,1.05,0.114,1.195l0.229-1.191L8.662,74.756z M86.323,8.175c-0.483,0.001-0.483-0.222-1.217-0.102
	C85.202,8.209,86.18,8.308,86.323,8.175z M84.718,8.104c-0.134-0.139,0.755-0.387-0.132-0.463c-0.002,0.491-1.198,0.066-1.768,0.147
	C82.716,8.275,84.523,7.761,84.718,8.104z M49.572,18.27c-0.627,0.253-0.979,0.201-1.729,0.624
	c-2.449,1.415-6.816,4.144-9.334,6.038c0.081,0.059,0.465-0.203,0.355,0.065c2.941-2.277,5.551-3.646,8.825-5.697
	C48.012,19.238,49.751,18.385,49.572,18.27z M37.801,25.842c0.242-0.242,0.604-0.528,0.656-0.697
	C38.03,25.274,37.652,25.619,37.801,25.842z M28.231,35.485c0.121,0.383,1.1-0.976,0.523-0.561
	C28.839,35.131,28.42,35.189,28.231,35.485z M0.802,84.857c0.003,0.689-0.293,0.286-0.275,1.038c0.2,0.129,0.171-0.572,0.371-0.443
	C0.925,85.102,0.882,84.936,0.802,84.857z M4.939,91.387c-0.086,0.005-0.09-0.231-0.199-0.158c0.014,0.375-0.099,0.396-0.145,0.602
	C4.692,92.122,4.879,91.774,4.939,91.387z M4.505,107.378c0.099,0.639,0.249,0.904,0.435,0.867
	C4.815,107.788,4.701,107.273,4.505,107.378z M10.799,117.614c-0.205-0.576-0.409-1.08-0.611-1.362
	c0.172,0.418,0.022,0.448,0.246,0.927C10.655,116.958,10.542,117.69,10.799,117.614z M6.342,127.126
	c0.211,0.364,0.504,1.288,0.666,1.277C6.846,127.974,6.579,127.086,6.342,127.126z M10.346,125.976
	c0.257,0.452,0.542,1.102,0.775,1.348C11.049,126.907,10.536,125.866,10.346,125.976z M14.96,134.974
	c-0.627-1.126-1.278-2.627-1.965-4.049c-0.621-1.461-1.284-2.849-1.901-3.822c0.151,0.717,0.426,1.555,0.791,2.445
	c0.368,0.889,0.85,1.818,1.546,2.633c0.223,0.643-0.476-0.502-0.209,0.176C13.88,133.057,14.74,135.021,14.96,134.974z
	 M13.546,130.073c0.152,0.286,0.302,0.57,0.472,0.849C14.307,130.874,13.689,129.866,13.546,130.073z M16.058,131.188l-0.159,0.131
	l0.392,0.66C16.457,131.91,16.22,131.518,16.058,131.188z M17.434,145.749c0.354,0.428,0.776,0.896,0.892,1.177
	C18.487,146.687,17.733,145.907,17.434,145.749z M24.355,142.446c-0.282-0.295-0.353-0.503-0.239-0.588
	c-0.199-0.182-0.57-0.81-0.647-0.672c0.398,0.428,0.532,0.767,0.232,0.596C23.9,141.962,24.276,142.59,24.355,142.446z
	 M25.739,144.941c-0.101,0.163-0.301-0.121-0.165,0.222c0.42,0.355,0.428,0.385,0.788,0.83l0.079-0.109
	c0.018-0.041,0.026-0.086-0.095-0.191C26.102,145.71,25.741,145.056,25.739,144.941z M24.675,153.478
	c-0.789-0.682-1.111-1.15-1.419-1.177C23.82,152.86,24.336,153.358,24.675,153.478z M31.306,150.058
	c-0.254-0.26-0.282-0.439-0.641-0.742C30.618,149.501,31.101,150.196,31.306,150.058z M31.486,150.483
	c0.563,0.17,0.505,0.607,0.929,0.621c-0.24-0.289-0.632-0.657-0.932-0.981C31.385,150.204,31.566,150.392,31.486,150.483z
	 M29.586,157.983c-0.483-0.531-0.735-0.533-1.456-1.15C28.199,157.028,29.412,157.993,29.586,157.983z M32.53,151.283
	c0.143,0.228,0.83,0.806,0.923,0.64C33.174,151.753,32.622,151.166,32.53,151.283z M33.677,159.675
	c-0.033,0.092-0.14,0.084-0.251,0.072c0.416,0.285,0.565,0.244,0.83,0.584C34.379,160.2,34.118,159.962,33.677,159.675z
	 M34.966,161.724c0.49,0.33,0.885,0.541,1.087,0.529c-0.408-0.232-0.658-0.43-0.837-0.609
	C35.188,161.733,35.079,161.729,34.966,161.724z M42.481,173.554c0.639,0.332,0.97,0.383,1.051,0.211
	c-0.618-0.24-0.553-0.398-1.167-0.643C42.263,173.245,42.331,173.392,42.481,173.554z M56.006,166.419
	c0.207,0.146,0.301,0.297,0.89,0.422C57.036,166.716,56.067,166.313,56.006,166.419z M59.685,168.974
	c0.635,0.063,1.173,0.338,1.5,0.326C60.861,169.026,59.971,168.845,59.685,168.974z M67.196,170.448
	c-0.115-0.025-0.222-0.053-0.187-0.107c0.145,0.018,0.371,0.076,0.375,0.008l-0.937-0.189
	C66.245,170.29,67.077,170.593,67.196,170.448z M86.55,174.335c0.229-0.02,0.557-0.008,0.568-0.088
	c-0.771,0.064-1.707,0.037-1.316,0.25c0.147-0.262,0.729,0.268,0.975-0.035C86.622,174.454,86.537,174.415,86.55,174.335z
	 M96.893,174.093c-0.004,0.158-0.313,0.348,0.309,0.289l-0.045-0.131c0.284-0.059,0.721-0.102,0.746-0.197
	C97.525,174.089,97.368,173.999,96.893,174.093z M110.271,173.122c0.441-0.023,1.4-0.25,1.484-0.551
	C111.322,172.759,110.342,172.94,110.271,173.122z M142.252,160.354c0.032,0.076-0.199,0.256-0.432,0.432
	c0.127,0.135,0.371-0.123,0.209,0.18c0.381-0.303,0.385-0.457,0.916-0.82C142.839,160.011,142.457,160.329,142.252,160.354z
	 M169.081,77.52c-0.188-0.608-0.099-0.817-0.267-1.103C168.742,76.725,168.824,77.482,169.081,77.52z M159.671,60.667
	c-0.198,0.179-0.274,1.252,0.204,1.541c-0.076-0.177-0.145-0.437-0.011-0.203c0.083,0.246,0.019,0.339,0.085,0.567
	c0.174-0.483,0.199,0.077,0.486,0.12C160.031,62.096,160.07,61.502,159.671,60.667z M168.461,77.927
	c-0.293-0.74-0.123-1.159,0.197-0.857c-0.498-0.88-0.137-1.875-0.564-3.382c-0.335,0.25-0.23-0.546-0.173-0.739
	c-0.112,0.047-0.252,0.648-0.442,0.182c-0.052-0.237,0.021-0.287-0.066-0.576c-0.248,0.055-0.43-0.578-0.678-0.52
	c0.021,0.15,0.084,0.362,0.024,0.392c-0.041-0.409-0.14-0.9-0.198-1.334c0.009-0.004,0.012-0.03,0.008-0.077l0.131-0.065
	c-0.018-0.137-0.037-0.259-0.057-0.373c0.28,0.074,0.57-0.205,0.653-0.687c0.294,0.874,0.565,1.756,0.686,2.589
	c0.217,0.374,0.159,0.047,0.294,0.253c-0.123,0.404,0.166,0.654,0.213,1.274c0.146-0.104,0.266,0.177,0.391,0.406
	c-0.116,0.056,0.022,0.449-0.133,0.451c-0.006-0.006-0.01-0.016-0.016-0.021c0.002,0.012-0.001,0.017,0,0.027
	c-0.002,0-0.002,0.003-0.005,0.002c-0.136-0.057-0.22-0.824-0.362-0.811c0.133,0.374,0.066,1.027,0.223,1.07
	c0.029-0.117,0.084-0.174,0.146-0.205c0.021,0.354-0.149,0.397-0.021,0.927c0.289-0.197,0.496,0.027,0.844,0.495
	c-0.277-0.275-0.146,0.774,0.009,0.801c-0.02-0.227,0.038-0.961,0.19-0.47c0.06,0.451-0.124,0.496-0.124,0.847
	c0.484-0.02,0.231-1.889,0.89-1.532c-0.256-0.203-0.456-0.823-0.666-1.382c0.104,0.682,0.178,0.982,0.146,1.165
	c-0.189-0.699-0.282-0.042-0.483-0.02c-0.091-0.379-0.222-0.457-0.333-0.684c-0.249-0.153,0.066,0.629-0.187,0.475
	c-0.062-0.293-0.132-0.521-0.218-0.642c0.096-0.014,0.205,0.053,0.29,0.204c-0.099-1.133-0.509-2.121-0.961-2.892
	c0.032,0.095,0.015,0.218-0.062,0.029c0.159-0.017-0.094-0.529,0.016-0.604c0.176,0.12,0.343,0.747,0.521,0.938
	c-0.072-0.275,0.092-0.185,0.184-0.09c-0.391-0.869-0.606-1.572-0.805-2.2c0.091,0.09,0.167,0.092,0.205-0.112
	c-0.148-0.123-0.306-0.244-0.441-0.837c0.094-0.103,0.457,0.375,0.37-0.175c-0.345-0.639-0.499-0.3-0.748-0.421
	c-0.081-0.14-0.171-0.279-0.274-0.417c0.027,0.081,0.061,0.17,0.091,0.254c-0.005-0.005-0.008-0.007-0.013-0.013
	c0.008,0.062,0.012,0.12,0.018,0.179c-0.135-0.383-0.234-0.728-0.231-0.96c0.182-0.125,0.688,0.305,0.663,0.031
	c-0.318-0.072-0.968-0.913-0.953-1.728c-0.27-0.093,0.166,0.576-0.104,0.481c-0.072-0.239-0.042-0.373-0.203-0.71
	c0.109,0.015,0.178,0.142,0.176-0.107c-0.271-0.492-0.076-0.465-0.162-0.744c-0.385,0.068,0.275,1.251-0.243,1.197
	c0.132,0.909,0.542,1.94,0.956,3.013c0.001,0.003,0.002,0.006,0.004,0.01c-0.021,0.013-0.037,0.034-0.068,0.035
	c-0.115-0.58-0.254-0.632-0.377-1.062c-0.531-0.288-1.084,0.004-1.597-0.651c0.147,0.646,0.462,0.446,0.437,1.014
	c-0.165,0.078-0.298-0.5-0.463-0.386c-0.127-0.328-0.246-0.754-0.393-0.62c0.201,0.365,0.036,0.746,0.207,0.71
	c-0.116,0.255-0.061,0.729-0.225,0.918c-0.238-0.788-0.471-0.939-0.582-0.733c-0.146-0.104-0.242-0.277-0.326-0.453
	c-0.119-0.683-0.393-0.829-0.582-0.733c-0.187,0.095-0.301,0.432-0.127,0.712c-0.221-0.169-0.283-0.542-0.393-1.002
	c-0.144,0.253-0.277-0.519-0.42-0.384c0.151,0.378,0.208,0.648,0.115,0.742c-0.139-0.189-0.275-0.594-0.415-0.783
	c-0.228,0.327-0.382,0.348-0.61,0.399c3.1,4.127,5.506,8.111,6.465,9.757c-0.014,0.354,0.34,1.315-0.027,1.088
	c0.103,0.746,0.313,0.916,0.424,1.603c0.205-0.134,0.268-0.538,0.356-0.891c0.134,0.103-0.06,1.269,0.224,1.685
	c0.198-0.24-0.013-0.36-0.057-0.959c0.039-0.156,0.106-0.146,0.174-0.165c-0.123-0.442-0.295-0.881-0.514-1.313
	C168.337,77.784,168.385,77.833,168.461,77.927z M173.684,89.783c0.129-0.401,0.296-0.673,0.4-1.077
	c-0.369,0.573-0.738,0.554-1.08,0.016c0.012,0.175-0.002,0.282-0.029,0.356l0.516,1.706c0.076-0.096,0.104-0.326,0.186-0.402
	c0.132,0.113-0.063,1.196,0.186,0.963c0.08-0.47,0.224-0.746,0.227-1.438C173.894,90.062,173.732,90.708,173.684,89.783z
	 M134.475,166.716c0.529-0.926,2.434-2.207,2.871-3.158c1.175-0.779,1.963-1.486,2.543-2.154c0.568-0.682,0.923-1.332,1.262-1.979
	c0.354-0.021,0.527-0.553,0.846-0.598c-0.563,0.109-0.658,0.271-0.947-0.016c0.051-0.043,0.086-0.078,0.113-0.111
	c-3.814-0.34-7.508-1.152-11.194-2.469c-1.709-0.611-3.318-1.34-4.858-2.15c-2.299-1.211-4.422-2.626-6.411-4.193
	c-0.271-0.213-0.544-0.42-0.808-0.638c-0.006-0.004-0.01-0.009-0.014-0.012c-5.482-4.515-9.944-10.159-14.273-15.758
	c-0.225-0.292-0.451-0.583-0.676-0.875c-0.043-0.055-0.087-0.111-0.129-0.166c-0.059-0.075-0.119-0.153-0.178-0.229
	c-1.482-1.919-3.008-3.889-4.567-5.803c-2.233-2.756-4.441-5.467-6.898-8.338c-12.406-14.553-25.783-26.17-40.766-35.407
	c-0.257-0.159-0.513-0.321-0.771-0.479c-0.255-0.155-0.51-0.309-0.766-0.463c-0.895-0.538-1.793-1.071-2.699-1.593l-2.516-1.452
	c-6.341-3.663-9.97-5.758-14.797-7.707c-1.571-0.634-3.27-1.254-5.231-1.906c-3.158-1.051-6.995-2.188-12.079-3.617
	c-0.136-0.039-0.265-0.081-0.399-0.12c-0.273-0.08-0.543-0.161-0.811-0.244c-0.103-0.031-0.208-0.062-0.311-0.093
	c0.017,0.127,0.01,0.29-0.086,0.585c-0.504,0.657-0.275,0.731-0.66,1.968c-0.02-0.595-0.55,1.013-0.413-0.035
	c-0.264,0.431-0.333,1.782-0.716,1.778c0.05-0.426,0.458-1.305,0.325-1.405c-0.217,0.66,0.017-0.795-0.275-0.023
	c-0.03,0.999-0.626,1.213-0.661,2.213c-0.084-0.018-0.031-0.268-0.156-0.216c-0.082,0.64-0.1,0.537-0.318,1.011
	c0.202,0.228,0.295-0.757,0.492-0.59c-0.521,2.213-0.575,2.804-1.232,3.848c0.037-0.239,0.125-0.581,0.051-0.613
	c-0.078,0.256-0.17,0.417-0.286,0.406c-0.24,0.971-0.164,1.352-0.15,1.847c-0.19,0.627-0.423,1.302-0.621,2.03
	c-0.191,0.729-0.387,1.504-0.572,2.325c-0.396,1.636-0.623,3.466-0.692,5.418c-0.135,0.009-0.039-0.563-0.237-0.387
	c-0.044,1.024,0.193,1.834,0.527,0.967c-0.015,0.497-0.166,0.467-0.132,1.051l0.408-0.057c-0.067,0.925,0.061,1.3,0.281,1.404
	c0.153-0.433,0.55-0.062,0.637-0.711c-0.174-0.536-0.172-0.927,0.023-1.635c-0.182-0.038-0.533,0.352-0.359-0.567
	c0.315,0.552,0.229,0.137,0.393-0.655c0.291,0.17,0.333,1.273,0.042,2.026l0.272-0.037c0.071-1.204,0.096-1.758-0.055-2.627
	c0.157,0.154,0.153,0.695,0.254,0.988c0.072-0.483,0.147-1.173,0.233-1.929c0.045-0.379,0.085-0.775,0.144-1.17
	c0.065-0.391,0.135-0.784,0.21-1.157c0.296-1.497,0.66-2.697,1.083-2.487c0.24-0.822,0.585-1.707,0.639-2.803
	c-0.188-0.174-0.243,0.521-0.39,0.602c0.038-0.896,0.258-1.676,0.658-1.998C8.394,74.4,8.659,73.1,8.903,72.963
	c-0.213-0.164,0.005-1.106,0.267-1.388c-0.022,0.152,0.002,0.233,0.088,0.204c-0.059,0.297-0.2,0.729-0.122,0.794
	c0.204-0.586,0.282-0.719,0.397-0.78c-0.004-0.376,0.168-0.665,0.036-0.999c-0.128,0.351,0,0.83-0.241,0.987
	c-0.057-0.334-0.191-0.546-0.052-1.206c0.775-1.059,0.747-0.302,0.342,2.015c-0.295,0.445-0.488,0.731-0.565,1.571
	c0.12,0.264,0.397-0.573,0.342,0.008c-0.1,0.591-0.383,0.67-0.298,1.185c0.204,0.295,0.183-0.882,0.389-0.587
	c0.166,0.732-0.268,1.435-0.245,2.368c-0.088,0.033-0.19-0.032-0.244,0.199c0.022,1.057-0.268,2.245-0.484,4.161
	c-0.196-0.163-0.181,0.657-0.354,0.609c0.046,1.077-0.201,2.332-0.201,2.795c-0.092-0.823-0.098-1.877,0.042-2.891
	c0.143-1.012,0.365-1.994,0.611-2.69c-0.31,0.389-0.462,1.55-0.756,2.017c-0.136,0.618,0.136,0.372,0.002,0.988
	c-0.271,0.34-0.425,0.898-0.482,0.038c-0.075,0.795-0.116,0.975,0.126,1.586c0.097-0.379-0.145-0.654,0.072-0.804
	c0.264,0.302-0.164,1.409-0.247,2.019c0.215-0.072,0.239-0.876,0.428-1.038c-0.131,0.827-0.103,0.855-0.154,1.803
	c0.117,0,0.216-0.069,0.291-0.231c0.069,1.235-0.15,3.064,0.145,3.553c0.165-0.229,0.218-0.804,0.376-1.045
	c-0.004,0.971-0.498,2.2-0.511,3.254c-0.11-0.272-0.032-1.013-0.021-1.587c-0.392,0.689-0.175,1.338-0.043,1.801
	c-0.11,0.376-0.397,0.346-0.266,0.45c0.016,0.668,0.193-0.318,0.203,0.087c-0.004,0.01-0.007,0.021-0.011,0.03
	c0.004,0.002,0.008,0,0.012,0c0,0.018,0.001,0.022,0.001,0.044l0.004,0.403c-0.075-0.219-0.311-0.014-0.401,0.279
	c0.139,0.032,0.139,0.521,0.279,0.551c-0.016-0.502-0.137-0.604,0.055-0.818c0.012,0.092,0.012,0.166,0.019,0.249
	c-0.043,0.095-0.053,0.21,0.026,0.4c0.003,0.149,0.004,0.294,0.005,0.437c-0.063,0.365-0.039,0.882,0.081,1.105
	c-0.224,0.061-0.39,1.016-0.174,1.449c-0.038-0.398-0.053-0.774,0.02-0.941c0.088,1.291-0.082,2.941,0.235,4.5
	c-0.404,0.039,0.395,2.443,0.029,3.062c0.139,0.462,0.24,1.021,0.354,1.623c0.119,0.599,0.22,1.245,0.304,1.877
	c0.085,0.634,0.138,1.259,0.194,1.812c0.065,0.553,0.107,1.041,0.118,1.408c-0.048-0.136-0.103-0.191-0.17-0.129
	c0.117,0.463,0.242,0.854,0.385,1.043c-0.046-0.228-0.085-0.442,0.038-0.421c0.298,1.267,0.285,1.647,0.537,2.386
	c-0.118-0.051-0.232-0.193-0.351-0.245c0.396,1.046,0.104,1.183,0.505,2.228c0.141-0.182,0.003-0.67,0.305-0.152
	c-0.182,0.055-0.004,0.587-0.034,0.844c0.196,0.301,0.162-0.445,0.413,0.201c0.345,1.167,0.416,1.137,0.851,2.27
	c-0.266,0.03,0.146,1.184-0.232,0.768c0.34,1.109,0.336,1.439,0.8,1.895c-0.285-0.164-0.086,0.506-0.478,0.074
	c0.119,0.342,0.22,0.348,0.338,0.668c0.1-0.16,0.155-0.598,0.421-0.045c0.159,0.494,0.328,1.019,0.5,1.548
	c0.194,0.523,0.396,1.049,0.604,1.548c0.421,0.992,0.834,1.893,1.323,2.416c-0.088,0.082-0.188,0.088-0.306-0.006l0.439,0.836
	c0.088-0.209,0.23-0.08,0.426,0.375c-0.441-0.239,0.088,0.44-0.149,0.587c-0.537-0.653-0.655-1.458-1.056-2.47
	c-0.516-0.169-1.404-2.516-1.35-2.912c-0.046,0.923,1.073,3.486,1.592,4.124c0.188,0.563,0.368,1.097,0.557,1.662
	c0.198,0.563,0.425,1.157,0.786,1.808c0.075-0.23,0.303,0.254,0.448,0.356c0.229-0.015-0.013-0.411,0.217-0.425
	c-0.288-0.677-0.328-0.191-0.585-0.729c0.38,0.033-0.25-0.798,0.101-0.796c0.367,0.821,0.797,2.069,1.227,2.113
	c0.163,0.271,0.321,0.537,0.482,0.806c-0.165-0.104-0.285,0.01-0.45-0.096c0.52,0.94,0.189-0.383,0.739,0.581
	c0.088,0.382-0.002,0.53,0.353,0.679c0.146,0.635-0.492-0.088-0.353,0.322c0.095-0.051,0.763,0.949,0.732,1.09
	c-0.081-0.018-0.141-0.012-0.126,0.104c-0.073,0.002-0.163-0.057-0.279-0.215c0.427,0.018-0.656-0.919-0.94-1.43
	c-0.037-0.258,0.086-0.391-0.035-0.717c-0.29,0.155-0.562-0.884-0.679-1.139c-0.258,0.42,0.371,1.309,0.565,1.737
	c-0.159,0.144-0.376-0.539-0.694-0.632c0.441,0.644,1.006,1.206,0.955,1.664c0.175-0.044,0.69,1.164,0.728,0.609
	c-0.233-0.521-0.67-0.68-0.631-0.95c0.641,0.425,0.641,1.046,0.954,1.675c0.291,0.044-0.303-0.545-0.012-0.504
	c0.104,0.158,0.164,0.15,0.261,0.27c0.023,0.033,0.04,0.06,0.061,0.091c-0.006,0.011-0.016,0.011-0.021,0.028
	c0.164,0.449,0.199,0.755,0.571,1.338c0.019-0.054,0.021-0.129,0.021-0.203c0.052,0.16,0.107,0.334,0.195,0.555
	c0.354,0.415-0.099-0.312,0.03-0.301c0.095,0.131,0.176,0.215,0.252,0.287c0.036,0.219,0.069,0.436,0.137,0.682
	c0.006-0.166,0.031-0.298,0.071-0.404c0.102,0.216,0.188,0.42,0.077,0.5c-0.092,0.177-0.479-0.555-0.531-0.263
	c0.48,0.56,0.639,0.741,0.866,1.276c0.281,0.276,0.397,0.049,0.756,0.562c0.222,0.323,0.095,0.441,0.328,0.757
	c0.249,0.15,1.021,0.967,1.457,1.762c0.218,0.057,0.529,0.36,0.785,0.52c-0.55-0.766-0.919-0.973-1.004-1.418
	c0.165,0.149,0.323,0.278,0.454,0.334c-0.294-0.369-0.447-0.371-0.696-0.625c0.419-0.146-0.718-0.943-0.703-1.18
	c0.097-0.021,0.25,0.114,0.298-0.054c-0.656-0.624-1.519-1.651-1.826-2.434c0.134-0.048,0.304-0.028,0.514,0.065
	c0.16,0.33,0.32,0.68,0.499,1.061c0.854,0.838,1.033,1.316,1.592,1.828l-0.134,0.154c0.2-0.047,1.37,1.562,1.139,0.948
	c-0.374-0.185-1.05-1.201-0.99-1.401c0.792,0.881,1.078,1.478,1.873,2.355c-0.316-0.042-0.105,0.195,0.034,0.549
	c0.211-0.354,0.982,0.676,0.679,0.638c0.574,0.584,1.124,1.277,1.715,1.982c0.615,0.682,1.283,1.368,2.042,1.966
	c0.104,0.481,0.876,1.249,1.437,1.516c-0.046,0.084-0.148,0.07-0.25,0.049c0.615,0.445,0.656,0.675,0.739,0.918
	c0.648,0.33-0.427-0.7,0.037-0.416c0.328,0.383,0.814,0.824,0.85,1.103c0.476,0.455,1.316,1.071,2.118,1.694
	c0.806,0.617,1.553,1.267,1.93,1.691c0.519,0.238,2.053,1.281,3.213,2.105c1.185,0.785,1.974,1.398,0.878,0.935
	c1.077,0.757,2.465,1.53,3.2,1.937c-0.81-0.424,0.295,0.217-0.093,0.258c0.5,0.211,0.595,0.236,0.798,0.523
	c0.18-0.26,1.076,0.73,1.519,0.688c-0.091-0.049-0.169-0.156,0.023-0.064c0.03,0.225,0.074,0.24,0.204,0.566
	c-0.477-0.045-0.565-0.262-1.202-0.502c0.233,0.4-0.195,0.146-0.459,0.209c0.547,0.281,0.936,0.482,1.241,0.641
	c0.308,0.148,0.529,0.264,0.735,0.381c0.411,0.244,0.784,0.469,1.694,1.012c0.175-0.186-0.789-0.477-0.774-0.68l0.848,0.416
	c0.011-0.135-0.051-0.275-0.264-0.432c-0.026,0.268-0.513-0.299-0.734-0.135c-0.232-0.18-0.641-0.373-0.429-0.512
	c0.304,0.133,0.827,0.484,0.716,0.201c-0.446-0.158-0.805-0.285-0.993-0.563c1,0.221,3.035,1.664,4.444,1.951
	c0.229,0.227,1.136,0.715,1.983,1.094c0.853,0.367,1.662,0.584,1.649,0.389c0.33,0.291,0.23,0.205,0.463,0.531
	c-0.599-0.148-1.883-0.857-1.961-0.586c0.821,0.26,2.022,0.623,1.193,0.66c0.497,0.195,0.448-0.049,0.918,0.125l-0.049,0.27
	c-0.388-0.148-1.711-0.67-1.084-0.258c0.368-0.063,1.129,0.432,1.403,0.59c0.168-0.01,0.741,0.158,1.293,0.379
	c0.558,0.195,1.098,0.455,1.178,0.678c-0.049,0.064-0.215,0.043-0.379,0.021c-0.3-0.105-0.651-0.273-0.955-0.395
	c-0.3-0.135-0.551-0.223-0.663-0.146c-0.213-0.174-0.185-0.334,0.057-0.34c-0.875-0.352-0.134,0.166-0.577,0.076
	c-0.231-0.234-0.497-0.486-0.878-0.396c0.207,0.188,1.079,0.631,2.042,1.033c0.977,0.365,2.04,0.695,2.591,0.746
	c0.675,0.539,3.058,0.684,3.236,1.461c0.498,0.066,1.439,0.348,1.646,0.629c0.571,0.17,0.367-0.113,0.938,0.059
	c1.071,0.381,0.801,0.588,1.281,1.094c-0.005-0.393,1.512,0.027,2.069,0.262c-0.003,0.088-0.333,0.008-0.379,0.076
	c0.656,0.338,0.995-0.193,1.513,0.24c0.391,0.281-1.074-0.074-0.376,0.146c0.654-0.057,0.885,0.363,1.323,0.139
	c0.326,0.096,0.318,0.258,0.578,0.361c0.429-0.164,3.947,0.246,3.447,0.68c3.576,0.139,8.655,1.029,11.966,0.854
	c-0.053,0.133-0.004,0.291-0.518,0.287c-0.06-0.086-0.348-0.297-0.784-0.039c0.343-0.021,0.462,0.051,0.427,0.189
	c-0.607,0.096-1.225-0.168-1.541,0.045c0.567,0.016,1.903,0.068,2.34,0.061c0.099-0.072-0.007-0.313,0.487-0.424
	c-0.214,0.494,0.8,0.037,1.214,0.207c-0.567,0.139-0.031,0.404,0.258,0.252c-0.473,0.029-0.092-0.217,0.141-0.217
	c0.795,0.02,1.078,0.648,1.66,0.346c0.035-0.168-0.867,0.105-0.631-0.154c0.163-0.287,1.189-0.055,1.75-0.076
	c0.196-0.404,1.088-0.635,2.174-0.666c-0.822,0.121-0.311,0.162-0.279,0.379c1.179-0.139,2.012-0.283,3.117-0.225
	c-0.352,0.096-1.9,0.227-1.313,0.266c1.016-0.203,1.164,0.027,0.686,0.252c0.866-0.271,0.951-0.018,1.693-0.357
	c0.039,0.08,0.275,0.045,0.26,0.162c-0.007,0.121-0.275,0.201-0.719,0.262c0.708,0.176,0.955,0.168,1.722,0.248
	c0.194-0.205-0.833-0.068-0.288-0.223c0.822-0.068,0.695-0.268,1.291-0.363c-0.014,0.334,1.024-0.01,1.457,0.031
	c-0.373,0.229-0.81,0.256-1.192,0.275c-0.386,0.006-0.716,0.01-0.881,0.211c0.515-0.088,1.218-0.117,1.083,0.146
	c-0.443,0.131-1.428,0.168-1.516,0.342c1-0.041,1.735-0.305,2.102,0.082c0.208-0.346,1.566-0.326,2.225-0.699
	c0.389,0.057-0.091,0.154,0.301,0.211c0.555-0.24,0.891,0.061,0.987-0.156c-0.472,0.104-0.132-0.193,0.104-0.238
	c0.094,0.154,0.692-0.045,1.196-0.18c-0.049,0.227,0.414,0.094,0.365,0.32c0.932-0.354,1.762-0.479,2.574-0.615
	c0.807-0.15,1.607-0.283,2.473-0.594c0.15,0.055-0.054,0.381,0.354,0.242c0.275-0.305,0.831-0.516,1.433-0.623
	c0.044,0.08-0.295,0.174-0.304,0.254c0.871-0.146,3.604-1.299,2.853-0.545c0.294-0.217,0.846-0.496,1.321-0.703
	c0.479-0.205,0.893-0.309,0.935-0.115c0.562-0.283-0.046-0.313,0.182-0.441c1.097-0.137,2.146-0.506,3.145-0.955
	c1-0.451,1.977-0.918,2.999-1.164c-0.125-0.252,1.886-0.559,2.074-1.158c0.277-0.105,0.496-0.145,0.656-0.121
	c-2.24,1.479-3.486,1.943-5.852,2.988c0.082,0.363,1.068-0.178,1.261,0.076c-3.89,2.254-7.544,3.885-11.602,4.564
	c-4.384,1.486-9.194,2.111-13.306,3.393c-1.325,0.217-2.939,0.4-4.605,0.611c-1.671,0.158-3.409,0.266-4.98,0.258
	c0.688,0.244,1.852,0.135,3.041,0.033c0.595-0.055,1.197-0.102,1.749-0.135c0.552-0.043,1.057-0.045,1.463,0.029
	c-0.099,0.164-0.075,0.354-0.263,0.506c1.262,0.006,2.43,0.061,3.114,0.35c1.133-0.227,2.33-0.35,3.449-0.404
	c1.121-0.033,2.147-0.088,2.954-0.037c0.646-0.092,0.313-0.256,0.957-0.348c-0.013,0.168,0.436,0.057,0.346,0.271
	c0.581-0.225,1.355-0.383,1.68-0.266c1.139-0.549,1.223-0.156,2.387-0.707l0.096,0.182c1.121-0.293,2.095-0.479,3.053-0.66
	c0.953-0.195,1.898-0.375,2.889-0.842c0.023,0.125,0.3,0.049,0.338,0.162c1.205-0.375,1.672-0.701,2.271-0.617
	c0.412-0.17,0.818-0.32,1.219-0.471c0.4-0.158,0.795-0.307,1.189-0.449c0.793-0.279,1.574-0.551,2.361-0.826
	c1.565-0.57,3.121-1.26,4.713-2.275c0.164,0.025,0.394-0.018,0.684-0.129c0.572-0.42,1.531-0.955,2.496-1.486
	c0.973-0.52,1.909-1.113,2.504-1.516c0.198-0.26,0.314-0.498,0.441-0.734c0.504-0.301-0.3,0.393,0.453-0.113
	c0.655-0.465-0.764,0.168-0.186-0.203c0.179-0.004,0.467-0.133,0.806-0.324C132.896,167.624,133.908,167.118,134.475,166.716z
	 M173.855,91.746c-0.049-0.12-0.106-0.208-0.164-0.299l0.127,0.419C173.831,91.834,173.844,91.802,173.855,91.746z M171.18,81.624
	c0.016,0.723-0.415,0.601-0.315,1.074c-0.177,0.133-0.122-0.698-0.263-0.715c-0.01,0.298-0.059,0.514-0.068,0.808
	c0.102,0.005,0.238-0.137,0.28,0.12c-0.163,0.432-0.304,0.914-0.517,1.237c-0.021-0.02-0.044-0.04-0.065-0.059
	c-0.124-1.117,0.305-1.066,0.155-2.239c0.146,0.321,0.187-0.139,0.313-0.286c-0.018-0.672-0.291-0.166-0.31-0.902
	c-0.013-0.577,0.233-0.126,0.212-0.464c-0.191-0.376-0.189,0.234-0.352-0.087c0.108,0.588,0.054,0.869-0.164,0.841
	c-0.184-0.841,0.344-1.668-0.144-2.138c0.042,0.318,0.085,0.637,0.126,0.953c-0.218-0.031-0.207,0.533-0.352-0.086
	c0.22-0.455-0.225-0.549-0.348-1.073c-0.144,0.561-0.051,0.728-0.24,1.256c-0.011-0.281-0.094-0.195-0.171-0.134
	c0.095,0.575,0.108,1.149,0.038,1.71c-0.043-0.121-0.082-0.234-0.113-0.33c0.012,0.46-0.09,0.811-0.129,1.39
	c-0.035,0.106-0.068,0.213-0.11,0.318c-0.01,0.024-0.016,0.049-0.026,0.074c0.01,0.005,0.018,0.012,0.027,0.017
	c-0.017,0.273-0.088,0.449,0.1,0.359c-0.005-0.107-0.005-0.204-0.006-0.299c0.223,0.133,0.438,0.276,0.648,0.428
	c-0.012,0.104-0.032,0.205-0.065,0.3c-0.132,0.028-0.126-0.497-0.297-0.311c-0.028,0.614,0.11,0.816,0.056,1.521
	c0.09,0.14,0.197,0.207,0.347,0.11c-0.007-0.224-0.054-0.533,0.022-0.583c0.285-0.099,0.395,0.671,0.426,1.439
	c0.183-1.067,0.67-1.133,1.027-1.018c0-0.028,0.001-0.055,0.001-0.083c0.007-0.441,0.021-0.859-0.058-1.476
	c0.309,0.663,0.094-0.609,0.201-0.842c0.18,0.589,0.193,0.195,0.248-0.269c0.173-0.029,0.158,0.73,0.33,0.704
	c0.079-0.365,0.055-0.952,0.166-1.243C171.475,81.878,171.453,81.902,171.18,81.624z M168.979,78.736
	c-0.035,0.27-0.101,0.316-0.167,0.335c0.025,0.094,0.05,0.188,0.071,0.283C168.996,79.164,169.195,79.008,168.979,78.736z
	 M1.095,83.431c0.123-0.627-0.144-0.374-0.02-1.001c0.348-0.148,0.28-1.114,0.512-1.434c-0.365,0.447,0.121-0.59,0.18-1.202
	c-0.643,1.024-0.702,3.243-1.062,4.671C1.071,84.509,0.779,83.604,1.095,83.431z M0.007,91.651
	c-0.036,1.771,0.059,0.609,0.342-0.266C0.187,91.331,0.196,91.784,0.007,91.651z M6.59,110.678c-0.26,0.169-0.199-0.721-0.114-0.781
	c-0.358-0.963-0.446-2.476-0.599-3.653c-0.116,0.309-0.39-0.309-0.323,0.12c0.099,0.019,0.15,0.393,0.233,0.524
	c-0.41,0.086-0.2,0.705-0.472,0.797c0.166,0.041,0.228,0.586,0.3,1.074c0.082,0.49,0.157,0.928,0.287,0.758
	c0.071,0.356-0.187,0.207-0.164,0.488c0.195,0.787,0.45,1.638,0.664,2.457c0.244,0.816,0.45,1.605,0.502,2.297
	c0.148-0.392-0.01-0.452,0.301,0.066c-0.413-1.1-0.188-2.82-0.76-3.879C6.512,110.888,6.631,110.905,6.59,110.678z M14.689,130.094
	c-0.164-0.185-0.238-0.354,0.037-0.247c-0.299-0.572-0.43-0.146-0.68-0.419c0.297,0.537,0.513,0.666,0.806,1.048
	c-0.28-0.596,0.692,0.785,0.36-0.053C15.126,130.467,14.86,130.273,14.689,130.094z M23.886,142.732
	c-0.142-0.185-0.028-0.145,0.084-0.107c-0.352-0.337-1.097-0.829-1.072-0.753C23.215,142.13,23.696,142.81,23.886,142.732z
	 M24.102,143.069c0.033-0.026,0.069-0.045,0.171,0.088c0.167,0.184,0.042,0.218,0.172,0.386c0.518,0.346-0.099-0.682-0.387-0.722
	C24.365,143.066,23.654,142.89,24.102,143.069z M28.305,146.866c-0.551-0.634-1.19-1.281-1.813-2.006
	c0.296,0.877,1.482,1.62,1.737,2.393c0.547-0.023,1.001,1.338,1.585,1.317C29.351,148.094,28.87,147.487,28.305,146.866z
	 M28,157.074c1.002,0.937,2.073,1.954,3.315,2.911c0.11-0.188,1.024,0.674,0.984,0.287c-0.528-0.125-1.308-0.674-2.064-1.371
	C29.469,158.222,28.672,157.476,28,157.074z M35.782,154.304c-0.328-0.801,0.662,0.764,0.892,0.301
	c-1.324-1.07-1.113-0.981-2.066-1.687C34.962,153.495,35.385,153.712,35.782,154.304z M38.915,156.403
	c-0.376-0.24-0.514-0.196-0.967-0.574c0.004-0.238-0.277-0.238-0.349-0.572c-0.017,0.221-0.504-0.561-0.646-0.373
	c0.287,0.211,0.011,0.281,0.376,0.514c0.057-0.025,0.061-0.121,0.213-0.016c-0.018,0.111-0.162,0.19,0.04,0.356
	c0.332,0.019,1.033,0.985,1.279,0.787c-0.092,0.072,0.144,0.308,0.292,0.264C38.962,156.637,38.86,156.505,38.915,156.403z
	 M44.182,159.792c-0.515-0.096-0.885-0.582-1.085-0.838c-0.057,0.457-1.328-0.752-1.407-0.49c0.478,0.266,0.559,0.338,0.277,0.32
	c0.919,0.545,0.817,0.586,1.039,0.428c0.72,0.461,0.323,0.365,0.734,0.719C43.66,159.757,44.492,159.837,44.182,159.792z
	 M64.032,169.104c-0.332,0.004-0.927-0.191-1.12-0.127c0.786,0.293,0.943,0.268,1.291,0.508c-0.715-0.186-0.141,0.385-0.771,0.252
	c0.26,0.051,0.413,0.119,0.563,0.188C64.064,169.688,64.563,169.542,64.032,169.104z M84.35,174.14
	c-0.36,0.021-0.64,0.066-0.751,0.16c0.735-0.121,0.845,0.377,1.391,0.09c-0.273-0.059-0.737-0.039-0.819-0.176
	C84.288,174.206,84.399,174.196,84.35,174.14z M134.902,168.048c0.073,0.059,0.021,0.162-0.034,0.264
	c0.479-0.414,0.649-0.484,1.109-0.645C135.789,167.575,135.351,167.804,134.902,168.048z M136.139,167.235
	c0.559-0.314-0.066,0.219,0.193,0.195c0.48-0.291,0.354-0.4,0.332-0.539C136.426,167.042,135.604,167.437,136.139,167.235z
	 M139.862,162.312c-0.944,0.705,0.45,0.242,0.798,0.166C140.484,161.94,139.854,162.804,139.862,162.312z M3.61,80.167
	c0.137-0.686,0.275-1.376,0.433-2.068c0.154-0.692,0.331-1.386,0.584-2.067c-0.339-0.12,0.253-1.389,0.173-1.746
	c-0.219,0.75-0.493,1.083-0.722,1.736c0.075,0.03,0.202-0.03,0.165,0.197c-0.122,0.283-0.234,0.613-0.4,0.58
	c-0.239,0.095,0.181-0.965-0.108-0.782c-0.078,1.711-0.526,3.131-1.033,4.528C2.25,81.948,1.816,83.352,1.88,84.95
	c-0.117,0-0.187,0.172-0.233,0.421c0.313,0.684-0.43,2.049-0.11,2.604c-0.169-0.027-0.239,0.358-0.265,0.812
	c-0.015,0.452,0.031,0.975,0.048,1.221c-0.249,0.68-0.297,1.544-0.327,2.445c-0.036,0.901,0.021,1.844-0.133,2.699
	c0.097,0.176,0.11,0.66,0.228,0.761c-0.301-0.028-0.199,0.677,0.007,0.203c0.006,0.353,0.036,0.624,0.095,0.792
	c-0.209,0.17-0.221-0.329-0.334,0.084c-0.047,0.553,0.356,0.438,0.042,0.604c0.065,0.558,0.292,1.14,0.394,0.722
	c-0.011-0.4-0.121-0.377-0.18-0.57c0.136-0.033,0.273-0.309,0.336-0.623c0.07-0.316,0.077-0.67-0.078-0.869
	c0.422-1.146,0.735-3.271,0.612-5.557c0.111-0.572,0.253-1.291,0.391-2.001c0.139-0.715,0.224-1.43,0.131-2.031
	c0.259-0.17,0.166-1.523,0.354-2.006c-0.081-0.015-0.156-0.043-0.092-0.383C3.154,82.92,3.332,81.541,3.61,80.167z M142.877,161.151
	c-0.725,0.359-0.824-0.271-1.828,0.854c0.264-0.16,0.477-0.244,0.643-0.252c-0.141,0.348-0.449,0.578-0.787,0.82
	c-0.348,0.23-0.723,0.477-0.995,0.873c-0.22-0.021,0.312-0.494-0.321-0.016c-0.168,0.23,0.059,0.129,0.254,0.232
	c-0.801,0.355-0.4,0.529-0.066,0.217c-0.24,0.293-0.513,0.539-0.794,0.789c-0.419,0.242-0.878,0.539-1.055,0.42
	c0.171,0.059-0.39,0.602,0.192,0.4c-0.084,0.09-0.171,0.172-0.253,0.271c0.86-0.404,0.751-0.201,2.007-0.951
	c0.217,0.08-1.09,1.016-0.21,0.65c0.144-0.379,1.812-1.664,0.381-0.775c1.991-1.314,1.566-1.449,2.487-2.48
	c-0.566,0.463-1.06,0.832-1.419,0.947c-0.165-0.373,1.294-0.986,1.538-1.389C142.486,161.853,141.975,161.786,142.877,161.151z
	 M156.98,61.793c-0.178-0.191-0.355-0.387-0.531-0.57c0.186,0.253,0.36,0.493,0.521,0.676
	C156.973,61.861,156.977,61.828,156.98,61.793z M9.799,64.925c0.069,0.022,0.142,0.043,0.211,0.065
	C10,64.905,9.979,64.833,9.96,64.759C9.927,64.723,9.864,64.801,9.799,64.925z M173.691,91.447l-0.201-0.663
	c-0.008,0.01-0.015,0.027-0.024,0.033C173.503,91.141,173.596,91.297,173.691,91.447z M162.979,77.509l-0.129-0.689
	C162.578,76.77,162.756,77.731,162.979,77.509z M168.818,79.571c0.01,0.243,0.072,0.21,0.14,0.158
	c-0.021-0.125-0.046-0.25-0.074-0.375C168.845,79.42,168.815,79.49,168.818,79.571z M161.514,70.438
	c-0.242,0.123,0.092,0.974-0.191,1.038c0.092,0.22,0.148,0.675,0.226,0.948c-0.028-0.047-0.056-0.084-0.085-0.109
	c0.051,0.187-0.039,0.22-0.131,0.25c0.377,0.396,0.467,1.245,0.765,1.444c-0.157-0.375-0.302-1.005-0.458-1.393
	c0.029,0.029,0.062,0.039,0.1-0.005c0.131-0.183-0.363-0.467-0.1-0.708c0.199,0.363,0.4,0.702,0.622,0.863
	c-0.097-0.403-0.011-0.552-0.181-1.054C161.859,71.797,161.695,71.088,161.514,70.438z M163.303,76.66
	c0.158,0.002,0.241-0.117,0.287-0.291c-0.111-0.435-0.237-0.77-0.387-0.974C163.311,75.934,163.096,75.967,163.303,76.66z
	 M145.958,55.595c0.284,0.285-0.291,0.143-0.007,0.428c0.08-0.079,0.282,0.298,0.372,0.255
	C145.951,55.964,146.326,55.67,145.958,55.595z M172.611,95.271c0.242,0.109,0.215-0.713,0.338-1.018
	C172.659,93.989,172.752,95.026,172.611,95.271z M23.637,68.997c0.011-0.009,0.026-0.026,0.047-0.057
	c0.026-0.092,0.051-0.161,0.076-0.247C23.719,68.794,23.679,68.896,23.637,68.997z M157.535,64.903
	c0.1,0.195,0.203,0.354,0.329,0.458c-0.04-0.159-0.091-0.338-0.2-0.59C157.508,64.488,157.594,64.8,157.535,64.903z M160.416,71.943
	c0.197-0.033,0.359,0.667,0.551,0.805c-0.219-0.511-0.034-1.079-0.402-1.428C160.875,71.923,160.259,71.51,160.416,71.943z
	 M160.271,69.625c0.113,0.382,0.273,1.089,0.594,1.533C160.795,70.929,160.592,70.013,160.271,69.625z M158.164,66.175l0.014-0.009
	c-0.01-0.006-0.019-0.012-0.027-0.018C158.156,66.158,158.157,66.165,158.164,66.175z M154.418,62.586l0.219-0.16
	C153.949,61.009,154.434,62.091,154.418,62.586z" class="color c1"/>
</svg>