<svg version="1.1" id="图层_1" x="0px" y="0px" width="190.883px" height="191.977px" viewBox="0 0 190.883 191.977" enable-background="new 0 0 190.883 191.977" xml:space="preserve" xmlns="http://www.w3.org/2000/svg" xmlns:xlink="http://www.w3.org/1999/xlink" xmlns:xml="http://www.w3.org/XML/1998/namespace">
  <path fill="#FFFFFF" d="M190.218,96.02c-0.151,0.042,0.498-0.792,0.665,0.703C190.773,96.59,190.189,96.909,190.218,96.02z
	 M187.674,81.617l0.285,0.215L187,79.83L187.674,81.617z M186.292,75.555l-0.138,0.438l1.039,0.886
	c-0.408-1.418-0.9-3.039-1.439-4.528c-0.546-1.485-0.996-2.88-1.158-3.91C183.973,69.959,186.159,73.091,186.292,75.555z
	 M184.676,62.156c-0.113-0.276-0.264-0.659-0.496-1.321c-0.195,0.57-0.897-1.36,0.52,1.646
	C184.678,62.311,184.684,62.259,184.676,62.156z M184.676,62.156C185.238,63.505,184.635,61.148,184.676,62.156L184.676,62.156z
	 M182.957,57.654c0.047-0.461-0.613-2.049-0.195-1.538c-0.994-1.727-1.029-1.247-0.914-0.067L182.957,57.654z M180.977,55.55
	c0.017-0.199-0.057-0.457-0.564-0.823c0,0,0.146,0.203,0.292,0.406C180.838,55.341,180.977,55.55,180.977,55.55z M181.475,56.378
	c-0.342-0.029,0.088,0.224,0.649,0.952l-1.147-1.78C180.941,55.872,180.656,56.035,181.475,56.378z M182.043,59.244
	c1.475,3.31,1.979,2.548,0.432-0.771C182.729,59.533,183.088,60.868,182.043,59.244z M183.46,68.809
	c0.028,0.355,0.056,0.711,0.056,0.711l0.654,1.063c-0.309-0.536-0.492-2.66-0.791-2.478
	C183.379,68.104,183.419,68.456,183.46,68.809z M177.234,47.479c-0.217-0.718-0.862-1.941-0.644-2.194
	c-0.248,0.014-0.139,0.848-0.296,1.11c0,0,0.249,0.263,0.479,0.535C177.005,47.204,177.234,47.479,177.234,47.479z M176.296,46.395
	l-1.448-1.577C175.823,46.422,176.158,46.619,176.296,46.395z M180.342,56.292c0.531,0.702,1.061,1.403,1.061,1.403
	s-0.6-0.852-1.2-1.702c-0.599-0.848-1.261-1.654-1.261-1.654l0.31,0.581C179.25,54.92,179.828,55.586,180.342,56.292z
	 M173.133,39.24c0,0-0.463-0.327-0.928-0.654c-0.482-0.312-0.963-0.619-0.963-0.619l0.783,0.587L173.133,39.24z M168.594,34.392
	c0.902,0.413-0.271-1.379,0.543-0.825c-1.029-1.067-2.104-1.802-3.103-2.417C166.973,31.913,167.768,32.931,168.594,34.392z
	 M164.393,30.097c0.482,0.363,1.039,0.69,1.643,1.053C165.525,30.751,164.992,30.392,164.393,30.097z M172.473,40.073l-0.01,1.028
	c0.145,0.209,0.309,0.443,0.473,0.683C172.948,41.576,173.045,41.126,172.473,40.073z M172.465,41.139l-0.002-0.036
	c-0.508-0.742-0.859-1.256-1.01-1.478C171.58,39.815,171.887,40.272,172.465,41.139z M173.055,41.955
	c-0.043-0.063-0.076-0.109-0.119-0.171C172.934,41.884,172.945,41.933,173.055,41.955z M175.467,49.322
	c0.795,0.549,0.344-0.825,1.702,0.521C176.26,48.938,174.688,46.934,175.467,49.322z M173.582,44.182
	c0.271,0.485,0.54,0.97,0.54,0.97c0.112-0.12,0.09-0.587,0.56-0.163c0,0-0.41-0.446-0.822-0.893
	c-0.401-0.449-0.834-0.876-0.834-0.876S173.318,43.691,173.582,44.182z M172.238,42.444l0.787,0.775l-0.436-0.699L172.238,42.444z
	 M166.573,33.317c-0.823-0.563-1.538-1.339-2.406-2.16c0.813,0.99,1.626,2.032,2.442,2.98
	C166.869,34.146,167.49,34.342,166.573,33.317z M169.496,37.078c-0.051-0.046-0.113-0.104-0.16-0.146
	C169.377,37.067,169.43,37.159,169.496,37.078z M155.645,23.098l0.072,0.207l0.1-0.051L155.645,23.098z M166.664,34.374
	c0.538,0.799,1.023,1.136,1.525,1.43c-0.516-0.504-1.043-1.053-1.58-1.666C166.493,34.135,166.439,34.161,166.664,34.374z
	 M161.883,27.936c0.289,0.432,0.611,0.91,0.948,1.415C162.641,28.852,162.126,27.943,161.883,27.936z M169.268,36.572
	c0.035,0.032,0.07,0.062,0.108,0.097C169.281,36.339,169.258,36.409,169.268,36.572z M169.336,36.932
	c-0.04-0.12-0.063-0.256-0.068-0.359c-0.377-0.335-0.73-0.549-1.078-0.769C168.591,36.231,168.977,36.618,169.336,36.932z
	 M158.624,25.773c0.302,0.293,0.502,0.486,0.502,0.486l-0.282-0.152l0.705,0.575c-0.674-0.797-1.084-1.441-1.836-2.67
	c-1.329-0.789-1.697-0.833-1.896-0.759c0,0,0.834,0.746,1.666,1.492C157.896,25.121,158.313,25.494,158.624,25.773z M162.477,29.515
	c-0.906-0.105-2.675-1.374-2.174-0.003c1.898,1.81,1.646,0.955,2.939,1.9c-3.055-2.982,1.096,0.654-0.793-1.824
	c0.658,0.539,1.205,1.066,1.718,1.568c-0.479-0.61-0.929-1.217-1.336-1.806c0.017,0.038,0.028,0.064,0.041,0.098l0.017,0.015
	l-0.011,0.003c0.075,0.188,0.083,0.264-0.03,0.083c-0.016-0.005-0.053-0.041-0.07-0.057c-0.079,0.037-0.188,0.031-0.299,0.021
	c-0.77-0.989-0.022-0.253,0.299-0.021c0.031-0.012,0.074-0.008,0.102-0.026l-0.006-0.018c0,0-0.797-0.729-1.648-1.4
	c-0.836-0.683-1.675-1.365-1.675-1.365C160.141,27.384,161.007,28.124,162.477,29.515z M173.197,48.073
	c-0.023-0.138,0.017-0.154,0.049-0.188C173.037,47.699,172.939,47.64,173.197,48.073z M173.246,47.887
	c0.463,0.409,1.477,1.547,0.742-0.204l-0.231-0.206c-0.581-1.217-1.042-2.879-1.095-3.417c-0.154,0.648-0.219,1.238-0.08,2.371
	c0.234,0.21,0.578,0.294,1.061,1.162C173.95,48.412,173.393,47.741,173.246,47.887z M172.662,44.06
	c0.014-0.059,0.023-0.118,0.041-0.18C172.654,43.839,172.648,43.922,172.662,44.06z M166.586,36.493
	c-0.633-0.617-1.266-1.233-1.266-1.233l0.767,1.692l0.187-0.272c1.179,1.613,1.185,1.054,1.537,1.09
	C167.811,37.769,167.227,37.107,166.586,36.493z M156.301,22.412c0,0-0.535-0.177-1.095-0.313c-0.552-0.144-1.103-0.289-1.103-0.289
	l1.424,0.786L156.301,22.412z M152.275,19.423l-1.205-0.455l0.732,0.797L152.275,19.423z M40.856,16.177l0.736,0.256
	c0.848-0.675,1.58-1.063,2.239-1.328C42.265,15.488,40.351,15.754,40.856,16.177z M107.975,1.888
	c-1.283-0.406-2.322-0.64-3.242-0.786C106.287,1.655,107.482,2.34,107.975,1.888z M10.571,142.841
	c0.419,0.504,0.662,0.68,0.773,0.597C10.925,142.916,10.635,142.648,10.571,142.841z M104.73,1.102
	c-1.146-0.405-2.5-0.633-3.828-0.316c0.229,0.078,0.457,0.127,0.689,0.196C102.568,0.964,103.557,0.917,104.73,1.102z
	 M188.438,111.192c0.082-0.313,0.146-0.853,0.18-1.79C188.602,109.835,188.514,110.533,188.438,111.192z M135.85,9.8
	C136.762,10.196,136.023,9.799,135.85,9.8L135.85,9.8z M138.516,14.216c0.142-0.094,0.307-0.115,0.485-0.087
	C138.785,14.094,138.604,14.101,138.516,14.216z M137.063,10.721c-0.299-0.236-0.651-0.491-1.051-0.741
	C136.175,10.115,136.491,10.345,137.063,10.721z M137.012,10.368c0.295,0.178,0.527,0.315,0.747,0.448
	C137.918,10.784,137.848,10.675,137.012,10.368z M135.85,9.8c-0.271-0.113-0.648-0.273-1.275-0.54
	c0.521,0.226,0.992,0.47,1.438,0.72C135.852,9.863,135.792,9.797,135.85,9.8z M188.286,108.547
	c-0.409,1.334-0.817,2.652-0.817,2.652c0.364-0.122,0.701,0.848,0.969-0.008c-0.219,1.345-0.385,2.53,0.408,0.844
	c-2.181,6.352-3.926,12.706-6.222,18.937c-2.282,6.205-5.14,12.269-9.179,17.34c-0.402,0.777,0.131,0.531,0.486,0.361
	c-1.99,1.535-0.912,2.135-1.556,3.297c0,0-0.761,0.531-1.521,1.063c-0.742,0.538-1.547,1.015-1.547,1.015
	c-0.58,1.335,0.4,0.702,0.535,0.935c-3.891,5.45-9.268,9.225-12.781,13.272c-1.58,0.778-0.354-1.017-2.142,0.323
	c1.552-0.515,0.456,0.707-0.872,1.89c-1.328,1.178-2.804,2.407-1.762,2.164c-1.252,0.164-2.973,1.225-4.363,2.064
	c-1.4,0.828-2.574,1.268-2.671,0.226c-2.285,1.331-1.423,1.868-0.681,1.596c-1.311,0.832-2.549,1.484-3.67,2.206
	c-1.111,0.736-2.152,1.457-3.158,2.289c-0.434,0.088-1.415,0.593-2.729,1.223c-1.334,0.586-2.951,1.414-4.668,2.092
	c-3.412,1.412-7.111,2.469-8.632,2.189c2.076,0.351,0.011,0.511-1.633,1.382l1.813,0.335c0,0-1.002,0.262-2.004,0.522
	c-1,0.264-2.006,0.507-2.006,0.507c-0.801,0.268-1.041,0.286-1.055,0.213c-0.689,0.119,0.049-0.493-1.723-0.298
	c-2.727,0.603-2.793,0.957-4.237,1.679l0.446,0.044l-1.873,0.41c-1.377,0.223,4.74-1.67,0.182-1.281
	c-0.012,0.27-2.529,1.692-3.831,1.257c2.325-0.253,1.948-0.779,1.072-0.911c0,0-0.81,0.089-1.615,0.176
	c-0.808,0.094-1.616,0.157-1.616,0.157s0.293,0.231,0.588,0.465c0.295,0.224,0.59,0.447,0.59,0.447
	c-9.391,0.952-19.19-0.104-28.962-1.958c0.303-0.801-6.865-1.6-5.644-2.728l0.33,0.228c1.185,0.247,1.08-0.069,0.438-0.455
	c-0.637-0.417-1.795-0.945-2.75-1.14c1.861,0.97-3.938,0.27,0.838,1.831c0,0-0.979-0.115-1.961-0.229
	c-0.99-0.097-1.959-0.283-1.959-0.283c-1.42,0.862-3.955,0.004-6.729-1.438c-2.801-1.403-5.804-3.366-8.631-4.394
	c0.422,0.104,0.582,0.034,0.665-0.014c-5.139-1.716-9.834-6.646-10.988-7.063l0.028-0.842c-2.162-0.834-3.294-1.448-4.449-2.199
	c-1.164-0.743-2.214-1.811-4.104-3.729c0.129-0.038,0.731,0.217,0.189-0.448c-1.277-0.502-2.641-0.979-5.128-3.726l0.265-0.045
	c0,0-1.019-1.025-2.035-2.052c-0.994-1.046-1.949-2.132-1.949-2.132c0.824-0.688-1.041-2.307-2.91-4.26
	c-0.973-0.946-1.889-2.015-2.541-2.993c-0.643-0.981-1.031-1.864-0.76-2.563c-0.565-0.294-1.459-1.303-2.371-2.417
	c-0.918-1.111-1.74-2.399-2.354-3.134c0.073-0.057,0.099-0.206,0.032-0.525c-2.134-1.38-2.66-5.846-3.73-8.016
	c-0.912-1.346-0.969-0.574-1.017,0.217c-0.272-1.623-1.233-3.586-2.276-5.285c-0.943-1.73-1.852-3.238-1.858-3.853
	c-0.616-2.272,0.538-1.082,0.809-1.834c-1.139-3.27-1.733,1.11-2.155-3.631c0.217,0.508,0.58,1.449,0.59,1.043
	c-0.18-0.877,0.219-2.26,0.502-3.58c0.291-1.326,0.494-2.597,0.119-3.408l-0.174,1.207c-0.56-1.516-0.471-3.463-0.395-5.031
	c0.128-1.582,0.191-2.797-0.564-2.968l-0.638,0.377c0.067-2.783,0.071-3.358-0.088-3.943c-0.095-0.583-0.331-1.184-0.015-3.984
	l0.113,0.066c-0.19-2.431,0.603-3.729-0.431-4.928L0,96.197c0.022-3.022-0.004-3.3,0.313-6.363
	c-0.078-0.365-0.127-1.868,0.136-2.274c-0.476-0.113-0.343-1.91-0.082-3.846c0.218-1.943,0.821-3.979,0.938-4.656
	c-0.301,2.436,0.285,1.354,0.771,0.745c-0.239-0.771-0.332-1.41-0.257-2.084c0.106-0.671,0.39-1.375,0.871-2.283
	c-0.518-0.266-1.047-0.563-1.34-1.288c-0.311-0.728-0.356-1.88,0.18-3.816c-0.006,0.646-0.18,1.604,0.152,1.282
	c0.338-0.33,0.344-1.289,0.351-1.616c0.332-0.318,0.153,0.964,0.651,0.643c-0.152-1.438,0.137-2.578,0.645-3.794
	c0.509-1.219,1.046-2.577,1.617-4.446c-0.137,1.271,0.459,0.357,0.982,0.09c-0.539-0.37,0.209-1.51,0.824-2.443
	c0.643-0.925,1.189-1.645,0.126-1.306c1.94-3.308,4.188-7.538,6.371-11.16c2.244-3.581,4.429-6.516,5.72-7.376
	c0.854-0.339,1.549-2.441,2.35-3.493l0.324,0.496c0.781-1.726,1.201-2.319,1.645-2.986c0.445-0.675,0.939-1.396,2.086-3.313
	c-0.762,1.765-0.007,1.418,1.605,0.489c0,0,0.306-0.736,0.607-1.476c0.334-0.722,0.667-1.442,0.667-1.442l1.019,0.228
	c0.643-1.075,1.697-1.924,2.818-2.686c0.131-0.684,0.942-1.679,1.821-2.645c1.075-1.084,2.224-2.123,2.377-2.606
	c1.731,0.084,2.735-2.347,4.155-2.035c0.268-0.383,0.641-0.84,1.105-1.256c-0.826-0.078-1.352-0.424-0.188-0.873
	c0.086-0.063,0.15-0.11,0.229-0.17l0.817,0.286c0.951-0.792,1.958-1.561,2.669-1.987c-0.359,0.131-0.784,0.263-1.247,0.373
	c0.499-0.202,0.979-0.355,1.451-0.493c0.146-0.081,0.292-0.16,0.389-0.214c-0.057,0.057-0.129,0.109-0.214,0.162
	c0.733-0.239,1.444-0.557,2.265-1.295c1.053-0.329,2.088-0.795,3.104-1.386c1.019-0.583,2.008-1.317,3.074-1.942
	c1.057-0.643,2.131-1.3,3.262-1.802c1.146-0.469,2.335-0.813,3.568-0.915c-0.717,0.125-1.685,0.438-1.846,0.762
	c0.922-0.376,1.86-0.708,2.793-0.978c0.944-0.227,1.867-0.447,2.746-0.657c1.744-0.448,3.332-0.729,4.467-1.332l-0.344-0.562
	c1.364-0.563,2.598-0.985,3.782-1.329c1.185-0.339,2.297-0.699,3.473-0.861l-0.01-0.729c0.867-0.088,1.959-0.308,3.151-0.568
	c1.191-0.264,2.5-0.46,3.768-0.67c2.532-0.434,4.95-0.417,6.042,0.206c0.813-0.632,4.772-0.027,6.722-0.167L95.961,0.9
	c1.268,0.121,2.291,0.145,3.191,0.121c0.899,0.011,1.674-0.014,2.438-0.037c2.534,0.716,4.964,1.093,7.36,1.262
	c2.373,0.303,4.724,0.393,6.906,0.986l0.006,0.165c0,0,1.137,0.161,2.273,0.323c1.129,0.213,2.258,0.426,2.258,0.426
	c-1.289,0.152,0.961-0.084,2.256,0.43c1.475,0.188,3.697,1.082,5.188,2.004l2.71,1.099c-3.153-0.845-0.075,0.822-0.157,1.473
	c0,0,0.477,0.054,0.952,0.106c0.472,0.072,0.942,0.146,0.942,0.146c0.555,0.586-1.278-0.032-0.096,0.651
	c0.627,0.099,1.771,0.526,2.924,0.918c1.146,0.406,2.271,0.836,2.937,0.797c-0.089-0.224-0.418-0.561-0.853-0.926
	c-0.159-0.035-0.146-0.039-0.037-0.032c-0.037-0.03-0.064-0.057-0.1-0.088c0.051,0.034,0.07,0.05,0.129,0.09
	c0.168,0.018,0.438,0.034,0.566,0.008c2.006,1.186,1.366,0.564,1.428,0.274c1.885,2.076,3.45,2.305,4.6,4.286
	c-1.615-2.576,5.064,3.225,4.32,1.276c1.047,1.951,1.076,0.816,1.608,2.241c-2.065-1.858-4.914-2.523-6.989-3.292
	c0,0,0.397,0.383,0.767,0.81c0.37,0.416,0.741,0.832,0.741,0.832c-1.729,0.17-3.91-2.793-5.205-3.113
	c0.873,0.189,2.418,1.386,2.346,1.635l-0.063-1.036c-0.623-0.459-1.246-0.842-1.857-1.17c-0.629-0.301-1.25-0.543-1.854-0.752
	c-1.219-0.403-2.344-0.725-3.431-0.95c1.729,1.096-2.469-0.545-1.379,0.62l1.497,0.563c0.156,0.17,0.123,0.249-0.008,0.28
	c5.18,2.484,10.08,5.447,14.671,8.813c0.778-0.423,3.887,1.588,3.438,0.463c0.898,1.118,0.241,1.102,2.59,2.746
	c1.713,0.813-1.074-2.168-1.529-2.842c1.936,1.086,2.052,0.957,2.267,0.802c0.742,1.974,0.544,4.145-1.171,3.288
	c0.764,0.655,1.525,1.313,2.268,1.991c-0.381-0.554,0.34-0.135,1.162,0.625l-0.158,0.287c-0.096-0.051-0.176-0.128-0.258-0.201
	c17.981,16.867,29.231,40.828,29.231,67.429c0,1.776-0.063,3.537-0.16,5.287c0.07-0.102,0.142-0.203,0.21-0.302
	c0.671-0.996,1.264-1.787,1.766-0.613l-0.117-1.735c0.424,0.296,0.453,1.663,0.345,3.077c-0.097,1.415-0.19,2.883,0.235,3.428
	c0,0-0.072,0.341-0.227,0.844C188.691,107.21,188.488,107.878,188.286,108.547z M151.512,24.096
	c0.947,0.746,1.881,1.511,2.799,2.293C153.539,25.249,152.372,24.444,151.512,24.096z M150.721,23.475
	c0.068,0.054,0.135,0.106,0.204,0.159c0.015-0.006,0.03-0.011,0.034-0.021C150.959,23.613,150.857,23.554,150.721,23.475z
	 M125.496,6.215c0.027-0.005,0.051-0.005,0.084-0.007C124.563,5.729,124.055,5.447,125.496,6.215z M106.471,4.569
	c-0.434,0.109-0.793,0.237-1.113,0.374c4.474,0.531,8.849,1.375,13.103,2.522c-0.382-0.16-0.683-0.311-0.869-0.449
	c0.935,0.493,2.796,0.822,3.739,0.828l-2.184-0.995c0.936,0.25,1.715,0.663,2.607,1.076c0.887,0.438,1.869,0.915,3.262,1.229
	c-0.281-0.677,1.952-0.714,0.125-2.135c-2.486-1.328-3.713-1.272-5.06-1.197c-0.675,0.037-1.382,0.086-2.313,0.002
	c-0.942-0.042-2.11-0.203-3.707-0.625c-0.638,0.056,1.553-0.629-1.977-1.011C109.844,4.052,107.884,4.18,106.471,4.569z
	 M88.201,4.49c0.932-0.062,1.868-0.106,2.809-0.141c-0.255-0.158-0.584-0.399-0.483-0.606C89.776,3.86,88.942,4.146,88.201,4.49z
	 M71.407,7.136c1.074-0.275,2.162-0.516,3.253-0.752l0.173-1.146l0.29,1.038c1.106-0.232,2.226-0.434,3.349-0.628
	c-0.068-0.102-0.193-0.19-0.406-0.26c-0.592-0.145-2.142-0.32-3.568-0.29c-1.439,0.026-2.771,0.049-2.951,0.053
	C71.198,5.568,71.19,6.328,71.407,7.136z M51.258,14.915c1.5-0.792,3.027-1.537,4.575-2.247c1.145-1.381,2.184-2.708,2.775-3.469
	c0,0-0.691,0.394-1.354,0.843c-0.663,0.445-1.325,0.89-1.325,0.89l-0.908-0.101C53.377,11.895,52.155,13.441,51.258,14.915z
	 M32.083,26.35c-0.021-0.097-0.016-0.206,0.006-0.321C31.662,26.416,31.952,26.261,32.083,26.35z M26.496,33.019
	c-0.104,0.374-0.226,0.808-0.349,1.271c0.535-0.585,1.09-1.15,1.641-1.72c-0.443-0.246-0.835-0.489-0.926-0.854
	C26.862,31.719,26.716,32.24,26.496,33.019z M2.746,80.246c0.18-0.345,0.504-0.837,0.869-1.389c0.056-0.28,0.099-0.567,0.155-0.85
	c-0.018-0.327-0.029-0.644-0.051-0.933c0.047,0.146,0.104,0.324,0.154,0.484c0.132-0.621,0.283-1.232,0.428-1.85
	c-0.176-0.04-0.382,0.125-0.637,0.631c0.023,0.204,0.041,0.463,0.055,0.733c-0.229-0.693-0.441-1.146-0.693-0.721
	c0,0-0.117,0.97-0.178,1.942C2.797,79.272,2.746,80.246,2.746,80.246z M116.465,189.121l0.672,0.026
	C117.482,188.865,117.838,188.602,116.465,189.121z M144.645,14.702c0.043-0.162-0.184-0.58,0.393-0.228
	c0,0-0.471-0.269-0.965-0.491c-0.49-0.23-0.981-0.463-0.981-0.463C144.012,14.017,144.264,14.317,144.645,14.702z M145.488,17.461
	c-0.184,0.591,1.07,1.077,2.316,1.869c-0.072-0.05-0.146-0.095-0.213-0.15C148.41,18.767,146.969,18.063,145.488,17.461z
	 M149.215,20.291c0.328-0.16-0.412-0.376-1.119-0.778C148.48,19.755,148.868,20.012,149.215,20.291z M132.682,8.885
	c0.59,0.428,0.705-0.487,0.979-0.105C134.684,8.419,128.958,7.656,132.682,8.885z M145.449,19.683L145.4,18.81l-0.998,0.038
	L145.449,19.683z M135.783,13.494l1.98,1.234c0.022-0.12,0.318-0.047,0.668,0.072C137.167,14.126,135.828,13.281,135.783,13.494z
	 M140.122,15.621c-0.356-0.19-1.115-0.62-1.69-0.819C139.087,15.162,139.701,15.52,140.122,15.621z M110.949,5.619
	c0.626-0.062,1.572,0.015,1.234-0.284l-2.539-0.248C109.352,5.281,110.005,5.549,110.949,5.619z M190.09,102.225
	c0,0,0.127-0.493,0.204-0.991c0.087-0.495,0.177-0.992,0.177-0.992l-0.518,1.269L190.09,102.225z M190.076,97.921l-0.801-1.197
	c0.029,0.447,0.088,1.316-0.131,1.65L190.076,97.921z" class="color c1"/>
</svg>