<svg version="1.1" id="图层_1" x="0px" y="0px" width="280.596px" height="280.598px" viewBox="0 0 280.596 280.598" enable-background="new 0 0 280.596 280.598" xml:space="preserve" xmlns="http://www.w3.org/2000/svg" xmlns:xlink="http://www.w3.org/1999/xlink" xmlns:xml="http://www.w3.org/XML/1998/namespace">
  <g>
    <path fill="#423A37" d="M140.299,4.781c74.723,0,135.517,60.793,135.517,135.518s-60.794,135.516-135.517,135.516
		c-74.725,0-135.518-60.791-135.518-135.516S65.574,4.781,140.299,4.781 M140.299,0C62.814,0,0,62.814,0,140.299
		s62.814,140.299,140.299,140.299s140.297-62.814,140.297-140.299S217.783,0,140.299,0L140.299,0z" class="color c1"/>
    <g>
      <path fill="#423A37" d="M140.299,9.697C68.17,9.697,9.697,68.169,9.697,140.299c0,72.128,58.473,130.6,130.602,130.6
			c72.126,0,130.602-58.471,130.602-130.6C270.9,68.169,212.425,9.697,140.299,9.697z" class="color c1"/>
    </g>
  </g>
</svg>