<svg version="1.1" id="图层_1" x="0px" y="0px" width="155.445px" height="52.148px" viewBox="0 0 155.445 52.148" enable-background="new 0 0 155.445 52.148" xml:space="preserve" xmlns="http://www.w3.org/2000/svg" xmlns:xlink="http://www.w3.org/1999/xlink" xmlns:xml="http://www.w3.org/XML/1998/namespace">
  <g>
    <path fill="#8C959C" d="M20.858,26.079c-1.465-1.704-2.309-3.532-2.412-5.462C18.004,12.43,30.758,4.616,49.835-0.001l6.68,5.228
		C35.85,9.538,21.298,17.657,20.858,26.079z M124.066,0.784l-9.757,3.926c12.556,2.878,20.75,7.892,21.191,14.113
		c0.123,1.712-0.356,3.415-1.351,5.084c3.908-3.082,6.033-6.432,5.849-9.847C139.71,8.657,133.708,4.035,124.066,0.784z" class="color c1"/>
    <path fill="#19428A" d="M155.429,20.007c-0.287-5.313-4.788-10.057-12.336-13.869c3.229,2.585,5.137,5.48,5.303,8.618
		c0.731,13.452-29.752,26.035-68.082,28.104c-38.322,2.068-69.986-7.166-70.708-20.62c-0.267-4.956,3.729-9.796,10.768-14.033
		C7.398,13.877-0.382,21.01,0.015,28.39C0.84,43.645,36.299,54.149,79.212,51.828C122.131,49.515,156.257,35.27,155.429,20.007z" class="color c2"/>
  </g>
</svg>