<svg version="1.1" id="图层_1" x="0px" y="0px" width="231.308px" height="43.54px" viewBox="0 0 231.308 43.54" enable-background="new 0 0 231.308 43.54" xml:space="preserve" xmlns="http://www.w3.org/2000/svg" xmlns:xlink="http://www.w3.org/1999/xlink" xmlns:xml="http://www.w3.org/XML/1998/namespace">
  <path fill="#FFCC10" d="M231.308,23.333c0,0-16.7,2.907-40.25,5.641c-1.771,0.206-3.58,0.41-5.426,0.611
	c-1.804,0.199-3.641,0.395-5.507,0.587c-0.677,0.069-1.359,0.139-2.042,0.208c-1.978,0.198-3.985,0.393-6.02,0.581
	c-5.134,0.476-10.432,0.915-15.825,1.297c-3.212,0.228-6.454,0.433-9.717,0.614c-3.718,0.206-7.456,0.38-11.197,0.512
	c-3.466,0.122-6.932,0.21-10.38,0.257c-0.766,0.012-1.531,0.019-2.295,0.024c-1.945,0.017-3.882,0.019-5.812,0.007
	c-2.47-0.015-4.923-0.052-7.351-0.115c-1.18-0.03-2.354-0.066-3.522-0.109c-2.562-0.094-5.089-0.221-7.582-0.378
	c-1.788-0.113-3.557-0.241-5.302-0.391c-0.771-0.065-1.534-0.137-2.297-0.21c-2.016-0.191-3.998-0.409-5.942-0.652
	c-4.072-0.51-7.98-1.134-11.67-1.893c-0.924-0.188-1.835-0.386-2.73-0.593c-0.024-0.004-0.05-0.01-0.073-0.016
	c-1.343-0.309-2.644-0.616-3.922-0.92c-1.575-0.374-3.104-0.744-4.584-1.111c-2.229-0.552-4.351-1.094-6.366-1.628
	C15.929,15.172,17.506,8.07,47.632,0c0,0-40.086,5.385-47.265,16.154c-3.537,5.305,18.635,17.861,58.69,23.955
	c0.925,0.141,1.859,0.278,2.805,0.413c1.503,0.213,3.034,0.414,4.584,0.606c1.314,0.166,2.646,0.323,3.995,0.472
	c0.905,0.101,1.81,0.203,2.73,0.296c3.765,0.383,7.661,0.703,11.67,0.96c1.954,0.126,3.932,0.237,5.942,0.33
	c0.759,0.034,1.529,0.062,2.297,0.091c1.748,0.068,3.514,0.125,5.302,0.166c2.49,0.059,5.017,0.09,7.582,0.094
	c1.17,0.003,2.337,0.006,3.522-0.005c2.414-0.019,4.872-0.073,7.351-0.144c1.918-0.056,3.856-0.125,5.812-0.213
	c0.766-0.032,1.524-0.061,2.295-0.101c3.405-0.172,6.865-0.392,10.38-0.666c3.676-0.286,7.408-0.63,11.197-1.034
	c3.198-0.342,6.442-0.734,9.717-1.164c5.18-0.683,10.458-1.481,15.825-2.401c1.994-0.34,4-0.699,6.02-1.075
	c0.681-0.127,1.358-0.25,2.042-0.382c1.826-0.349,3.663-0.714,5.507-1.093c1.396-0.285,2.801-0.584,4.208-0.887
	C203.193,31.498,217.034,27.867,231.308,23.333z" class="color c1"/>
</svg>