<svg version="1.1" id="图层_1" x="0px" y="0px" width="315.195px" height="316.035px" viewBox="0 0 315.195 316.035" enable-background="new 0 0 315.195 316.035" xml:space="preserve" xmlns="http://www.w3.org/2000/svg" xmlns:xlink="http://www.w3.org/1999/xlink" xmlns:xml="http://www.w3.org/XML/1998/namespace">
  <path fill="#202C3C" d="M66.625,285.298l-0.667-0.605C66.122,284.882,66.354,285.085,66.625,285.298z M146.701,314.535
	c-0.657-0.031-0.938,0.035-0.978,0.111C146.338,314.638,146.841,314.625,146.701,314.535z M161.479,315.819
	c-0.318-0.017-0.587-0.026-0.877-0.038C160.938,315.854,161.275,315.892,161.479,315.819z M66.625,285.298l1.714,1.568
	C68.636,286.725,67.501,286.003,66.625,285.298z M52.667,275.261c-0.037,0.115-0.022,0.259,0.021,0.377
	C52.751,275.567,52.732,275.431,52.667,275.261z M188.667,313.808c-0.053,0.002-0.071,0.004-0.124,0.006
	C187.851,314.024,188.25,313.937,188.667,313.808z M311.98,125.157c-0.034,2.891-1.872-4.292-1.664,0.004
	C310.519,124.705,312.335,128.688,311.98,125.157z M246.171,289.189c-0.181-0.033-0.441,0.025-0.71,0.098
	C245.523,289.337,245.693,289.335,246.171,289.189z M203.8,308.397l1.121-0.267C204.468,308.208,204.11,308.304,203.8,308.397z
	 M264.836,272.936c0.257-0.187,0.483-0.36,0.854-0.81c-0.084,0.026-0.159,0.06-0.253,0.113
	C265.326,272.447,265.151,272.675,264.836,272.936z M281.373,254.728c-0.129,0.068-0.271,0.18-0.409,0.268
	c-0.144,0.205-0.312,0.443-0.46,0.651L281.373,254.728z M41.885,59.969c-0.512,0.263-0.909,0.361-1.26,0.409
	C41.285,60.442,39.09,63.255,41.885,59.969z M261.056,268.192l2.866-2.567C263.091,266.313,262.052,267.248,261.056,268.192z
	 M198.831,12.286c0.324,0.111,0.631,0.176,0.877,0.157L198.831,12.286z M271.604,257.194c0.651-0.344,1.249-0.791,1.819-1.295
	c0.06-0.157,0.143-0.327,0.146-0.464L271.604,257.194z M205.029,307.648c0.269-0.206,0.563-0.375,0.874-0.516
	C205.421,307.417,204.422,307.727,205.029,307.648z M186.885,313.815c-0.316,0.063-0.62,0.138-0.894,0.222
	C186.369,313.955,186.647,313.884,186.885,313.815z M143.959,312.063c0.006,0.003,0.011,0.003,0.018,0.006
	C144.109,312.062,144.12,312.057,143.959,312.063z M76.41,23.559c-0.14,0.099-0.205,0.173-0.388,0.3
	c0.236-0.074,0.463-0.143,0.692-0.215c0.083-0.141,0.167-0.283,0.243-0.41C76.771,23.342,76.581,23.457,76.41,23.559z
	 M65.958,284.692c-0.088-0.101-0.169-0.192-0.203-0.278c0.063,0.09,0.05,0.11,0.085,0.174L65.958,284.692z M191.844,10.781
	l0.034-0.189l-0.65,0.021L191.844,10.781z M201.427,303.796c0.17-0.049,0.335-0.109,0.479-0.17
	C203.01,303.145,202.252,303.441,201.427,303.796z M139.328,310.962c0.685-0.051,1.354-0.1,2.056-0.094
	C140.275,310.667,139.413,310.539,139.328,310.962z M260.742,268.472c-0.002,0.01,0.004,0.006,0.003,0.016
	c0.107-0.104,0.202-0.193,0.312-0.295L260.742,268.472z M141.384,310.869c0.913,0.123,1.989,0.282,2.926,0.241
	C143.202,310.873,142.266,310.832,141.384,310.869z M2.938,167.419c0.555,1.635,1.451,3.465,2.191,2.344
	c-0.977-1.561-0.647-1.975-1.798-3.674c-0.159-1.404,0.225-2.467,0.553-2.24c-0.24-0.489,0.146-2.182-0.432-2.926
	c-0.324,0.92-0.48,1.966-0.477,3.08c-0.009,1.113,0.166,2.297,0.562,3.486C3.38,168.021,3.11,167.531,2.938,167.419z M7.333,185.901
	c-0.123-0.457-0.272-0.827-0.443-1.164c0.099,0.378,0.194,0.742,0.292,1.115C7.234,185.865,7.279,185.873,7.333,185.901z
	 M38.144,260.139l-0.461-0.531c-0.212-0.093-0.434-0.159-0.659-0.211L38.144,260.139z M21.165,236.296
	c0.3,0.592,1.071,0.41,1.482,0.463c-0.455-0.164-0.826-0.516-1.164-0.988C21.352,235.832,21.245,235.992,21.165,236.296z
	 M5.62,192.839c-0.085-0.233-0.21-0.576-0.285-0.776L5.62,192.839z M9.668,125.432c-0.047-0.034-0.088-0.009-0.132-0.027
	C9.575,125.582,9.614,125.643,9.668,125.432z M2.302,157.935l-0.026-0.466c-0.144-0.05-0.282-0.102-0.422-0.104L2.302,157.935z
	 M7.364,186.647c0.07,0.378,0.14,0.765,0.21,1.151C7.507,187.269,7.442,186.916,7.364,186.647z M6.917,185.992
	c0.214,0.105,0.342,0.295,0.448,0.655c-0.063-0.272-0.123-0.535-0.182-0.795C7.061,185.805,6.952,185.807,6.917,185.992z
	 M314.919,150.384c-0.111-0.93-0.2-1.861-0.272-2.795c-0.158-1.868-0.195-3.764-0.316-5.69c-0.156-1.931-0.317-3.896-0.483-5.924
	c-0.141-2.036-0.561-4.095-0.938-6.247c-1.044,3.329-0.486-2.495-2.014-1.654c-0.45-1.953-0.665-2.691-0.584-2.9l0.028,0.43
	c-0.01-0.183-0.015-0.283-0.022-0.441l-0.003,0.004c-0.004-0.038-0.101-1.557-0.2-3.081c-0.051-0.775-0.103-1.548-0.141-2.132
	c-0.031-0.582-0.077-0.968-0.077-0.968c0.032-0.759,0.258-0.321,0.497,0.279c0.218,0.607,0.458,1.373,0.617,1.238
	c-0.945-4.357,0.21-1.981-0.14-4.96c-0.403,0.742-1.233-1.267-1.709-3.78l0.241,3.659c-1.251-2.872-1.294-4.253-1.419-5.636
	c-0.1-1.385-0.206-2.797-1.619-5.633l1.124,1.714c-1.259-2.977-4.271-11.171-6.853-13.455c-0.061-0.595,0.04-1.474,0.729-0.229
	c-3.059-7.129-9.004-14.581-11.668-19.918l0.651,0.271c-0.887-1.138-1.935-1.71-2.658-3.387c0.19-0.018,0.667,0.245,0.302-0.311
	c-0.556-0.546-2.778-2.702-3.685-4.389l1.306,1.059c-0.953-1.63-2.001-2.922-3.009-4.075c-1.009-1.158-2.003-2.161-2.986-3.113
	c-2.062-1.833-4.078-3.474-6.256-5.708c0.445-0.393-0.274-1.723-1.347-3.245c-1.074-1.521-2.484-3.246-3.514-4.311l0.192-0.049
	c-1.563-1.54-3.046-2.927-4.523-4.176c-1.521-1.202-3.004-2.304-4.479-3.37c-1.451-1.1-3.009-2.029-4.551-3.049
	c-1.563-0.998-3.105-2.092-4.838-3.136c-0.825-0.985-2.086-2.126-3.609-3.362c-1.532-1.225-3.403-2.425-5.327-3.72
	c-1.905-1.329-4.04-2.463-6.026-3.703c-1.979-1.257-3.971-2.335-5.687-3.427c1,0.759-0.604,0.73-1.927,0.185
	c-1.553-1.139-5.067-1.476-4.328-2.36l0.605,0.299c-0.856-1.54-4.504-2.995-7.352-4.075l-0.996,1.139
	c-1.647-1.203-3.694-2.295-5.955-3.073c-2.256-0.797-4.616-1.602-6.945-2.098c-2.318-0.534-4.506-1.097-6.381-1.582
	c-1.879-0.466-3.409-0.999-4.367-1.698c-1.938-0.132-4.274-0.546-6.208-0.526l0.238-0.734c-2.602-0.577-4.555-1.014-6.694-1.276
	c-1.068-0.137-2.177-0.281-3.427-0.443c-0.626-0.069-1.286-0.145-1.996-0.222c-0.712-0.039-1.474-0.08-2.297-0.124l1.394-0.439
	c-3.725-0.321-4.852,1.778-8.227,1.662l-0.974-1.166c-3.227-0.083-6.471-0.462-9.718-0.438c-1.623-0.014-3.247-0.029-4.856,0.097
	c-1.607,0.171-3.205,0.421-4.774,0.795c0.092-0.174,0.254-0.516,1.297-0.64c-3.044,0.048-11.833,0.508-10.517,1.9
	c-0.229-1.088-6.608,0.955-9.912,2.063l0.377-0.856c-2.673,1.595-2.697,1.87-6.609,3.038c-0.822,0.11-0.942-0.252-0.157-0.425
	c-2.649,0.436-1.967,1.309-5.626,1.927l1.271-0.855c-3.21,0.861-2.903,0.978-4.458,2.104c-1.873,0.953-6.008,1.804-6.703,1.351
	c-0.278,0.554-1.769,1.73-3.653,2.26c-0.341-0.143,0.262-0.55,0.569-0.752c-1.34,0.385-2.472,0.819-3.474,1.263
	c-0.99,0.466-1.835,0.979-2.64,1.438c-1.604,0.938-3.027,1.719-4.905,2.211c-0.178-0.189-0.455-0.188-0.771-0.111
	c3.667-1.74,6.737-3.017,6.985-3.085c-0.294-0.618-3.58,0.719-1.363-1.319c-1.218,0.834-2.832,2.014-4.547,3.124
	c-1.69,1.162-3.451,2.316-5.084,2.957c-0.181,0.016-0.358,0.034-0.521-0.002l0.286-0.233c-0.75,0.307-1.368,0.683-1.912,1.104
	c-1.021,0.453-1.678,0.732-2.611,1.254c-0.628-0.271-3.762,1.727-5.265,2.696c0.52,0.568-1.508,1.718,0.663,1.076
	c-0.266,0.11,0.229-0.266,1.221-0.912c0.221-0.152,0.488-0.316,0.618-0.443c-0.021,0.034-0.045,0.074-0.07,0.118
	c1.006-0.594,2.319-1.364,3.813-2.242c-1.034,1.034-2.136,2.038-4.057,2.652c-0.54,0.873-1.103,1.861-1.456,2.354
	c-1.295,0.201-3.011,0.811-4.52,1.351c-1.521,0.526-2.752,1.104-3.217,1.009c-2.112,1.745-4.704,3.639-6.875,5.66
	c-1.102,0.988-2.14,1.953-2.996,2.886c-0.828,0.968-1.494,1.884-1.903,2.708c-1.043,1.141-1.605,0.846-2.19,1.055
	c0.58-0.689,1.395-1.363,1.628-1.835c-1.028,1.17-2.807,2.613-4.138,4.104c-1.365,1.454-2.462,2.761-2.38,3.368
	c-3.104,2.365,0.901-2.197-2.771,1.671l0.282-0.733c-2.098,1.62-3.798,3.314-5.261,5.069c-1.402,1.809-2.601,3.651-3.824,5.498
	c-1.19,1.877-2.324,3.828-3.765,5.753c-1.438,1.928-2.961,4.001-5.093,6.06c0.57-0.586,0.853-0.88,1.084-0.919
	c-0.524,0.645-1.055,1.286-1.554,1.953l-1.431,2.062c-0.938,1.39-1.874,2.795-2.768,4.231c-0.827,1.476-1.658,2.957-2.489,4.438
	c-0.406,0.749-0.832,1.485-1.218,2.242l-1.116,2.292c-3.114,6.055-5.591,12.332-8.633,18.179c-1.474,3.429-1.004,4.023-1.273,6.313
	l-1.035,0.512c0,0-0.033,0.245-0.046,0.622c-0.016,0.374-0.036,0.875-0.058,1.376c-0.042,0.997-0.083,1.992-0.083,1.992
	c-0.211,1.363-0.599,2.578-1.075,3.748c-0.445,1.181-0.927,2.332-1.431,3.527c-0.496,1.2-0.987,2.455-1.371,3.852
	c-0.34,1.405-0.526,2.963-0.521,4.733l0.699-0.786c-0.259,1.218-0.571,3.169-0.786,4.765c-0.191,1.597-0.4,2.825-0.688,2.578
	c0.066,0.269,0.462,0.885,0.052,1.814l-0.432,0.025c0,0-0.008,1.54-0.017,3.082c0.063,1.539,0.127,3.081,0.127,3.081
	c-0.339,2.349-0.747,2.138-1.148,2.198c-0.365,0.062-0.874,0.393-1.027,3.884c0.091,2.616,1.038,7.399,1.351,6.426
	c0.049-1.039,0.338-2.65,0.767-2.718l0.158,2.344c0.488,0.175,0.976,0.542,1.45,0.593c-0.073,0.23-0.108,0.571-0.059,1.058
	l0.915,0.985l-0.288-2.165c-0.001-0.005-0.003-0.005-0.005-0.007c0.529-0.337,1.037-1.364,1.5-3.89l-0.659-3.955l0.707-1.226
	c0,0-0.074,0.822-0.09,1.646c-0.012,0.825-0.025,1.648-0.025,1.648c0.597-1.844,0.196-3.042-0.041-4.395
	c0.347-0.293,0.615-0.825,0.798-1.588l-0.892-3.95c0.543-0.409,0.779,1.813,1.351-0.719c-0.323-1.849-1.319,1.603-1.297-1.409
	c0.809-1.807,1.198-1.192,0.999-3.446c0.358-0.262,0.504,0.23,0.532,1.114c-0.055-0.994,0.033-2.293,0.16-3.465
	c0.134-1.171,0.214-2.232-0.024-2.791c0.521-0.902,0.771-2.539,1.032-3.901c0.296-1.355,0.648-2.424,1.198-2.202
	c-0.139-0.655-0.126-3.569,0.236-5.344c0.329,1.784,0.676,0.132,1.288-1.755c0.58-1.899,1.253-4.081,1.864-3.446
	c-0.319-1.354,0.252-3.477,0.979-5.797c0.362-1.158,0.742-2.375,1.113-3.558c0.408-1.17,0.769-2.32,1.002-3.389
	c0.005,0.262,0.022,0.779-0.18,1.106c0.995-2.216,1.609-2.724,2.404-4.072c-0.848-0.692,0.499-4.233,0.758-6.38
	c2.155-2.278,0.373,2.178,1.65,1.738c-0.415-0.111-0.092-1.379,0.242-2.533c0.365-1.136,0.7-2.174,0.147-1.883
	c1.607-1.74,1.175-1.609,2.485-2.242c-0.974-0.968,0.729-2.001,0.996-4.009c2.216-2.533,1.498-0.116,2.955-3.444
	c1.201-1.271,0.006,1.732,0.006,1.732c1.843-3.148,0.022-1.989-0.077-2.959c2.135-3.854,1.722-1.323,2.957-2.301
	c0.626-1.217,1.033-2.395,1.429-3.482c0.425-1.066,0.859-2.028,1.468-2.853c0.223-0.03,0.503-0.319,0.398,0.181
	c0.546-1.388,1.703-3.216,3.084-4.944c1.354-1.755,2.688-3.597,3.392-5.221c0.232-0.131,0.38-0.173,0.479-0.173
	c-0.744,0.093-1.191-0.166-1.394-0.482c1.081-1.27,1.561-2.752,2.464-2.8c-0.687,0.759-0.544,0.997-0.703,1.491l0.932-1.503
	c1.735-0.568-1.318,2.009-0.79,2.459c0.995-1.377,1.997-2.941,2.992-4.389c1.045-1.404,2.103-2.673,3.096-3.524
	c1.033,0.243-3.981,4.603-0.991,2.658c0,0-0.756,0.666-1.512,1.332c-0.723,0.699-1.446,1.399-1.446,1.399
	c3.086-1.349-1.668,1.763,1.328,0.674c0.894-0.956,1.59-1.701,2.188-2.341c0.586-0.651,1.05-1.222,1.514-1.789
	c0.944-1.119,1.812-2.324,3.831-4.001c0.503-1.179-0.808-0.271-0.302-1.454c1.201-1.454,2.171-2.336,2.992-2.904
	c0.838-0.552,1.547-0.771,2.183-0.971c1.284-0.396,2.334-0.643,4.014-2.897c0.701-1.366,0.437-2.6,3.902-4.54l-0.418,1.641
	c4.057-3.057,1.423-2.964,6.177-5.524c-0.545,0.885-3.075,2.597-2.375,2.251c3.294-1.33,1.656-1.891,3.838-3.435l0.967,0.452
	c4.453-3.063,9.2-6.793,14.524-9.656c-0.174,0.395-0.956,1.115,0.423,0.728c3.233-1.995,6.965-3.587,10.682-5.079
	c1.894-0.66,3.792-1.288,5.646-1.884c1.844-0.627,3.723-1.011,5.478-1.488l2.396-1.642c0.618-0.199,1.261,0.008,0.627,0.337
	c2.82-0.479-0.004-0.52,1.225-1.188c1.549-0.494,2.187-0.144,1.266,0.362c4.563-2.205,13.616-4.804,18.988-4.813l-0.979,0.413
	c4.104-0.315,4.405-2.218,8.31-1.991l-0.716,0.229c4.486-0.264,9.194-0.727,13.662-0.743c1.116-0.02,2.215-0.046,3.289-0.033
	c1.073,0.052,2.123,0.116,3.139,0.196c2.028,0.188,3.93,0.333,5.61,0.793c0.682-0.52,2.891-0.217,5.004,0.018
	c2.119,0.188,4.122,0.566,4.511-0.217c2.501,0.723,3.364,1.104,4.495,1.486c1.12,0.419,2.496,0.891,5.973,1.784
	c1.873,0.382,2.997-0.39,5.362-0.024l-0.133,0.823l3.351-0.114c0,0,0.36,0.327,0.711,0.687c0.349,0.358,0.697,0.716,0.697,0.716
	l2.193,0.406c-0.836-0.291-1.711-0.879-1.521-1.073c1.727,0.3,3.738,1.027,5.298,1.728c1.548,0.745,2.631,1.51,2.608,1.719
	c0,0,2,0.495,4.001,0.991c1.009,0.229,1.979,0.574,2.725,0.782c0.741,0.224,1.235,0.374,1.235,0.374
	c-0.222,0.183-1.033-0.002-1.887-0.189c3.029,0.697-0.104,0.992,3.621,1.694c-0.43-0.371,0.459-0.351,0.607-0.471
	c0.851,0.572,2.292,1.371,3.923,2.161c1.623,0.808,3.485,1.507,5.02,2.208l-0.826,0.217c1.333,0.732,2.718,1.445,4.141,2.156
	c0.713,0.355,1.432,0.714,2.158,1.076c0.711,0.39,1.429,0.782,2.15,1.178c1.444,0.793,2.932,1.567,4.392,2.411
	c1.436,0.883,2.88,1.785,4.313,2.71c-1.912-1.548-0.907-2.081,0.847-1.065l0.19,1.166c1.396,0.254-1.588-1.415,1.031-0.521
	c2.058,1.557,0.845,1.815-0.508,1.201l2.704,1.554c-0.002,0.32-0.677,0.009-1.021,0.173c1.35,0.316,3.856,3.771,5.819,4.206
	l-0.023,0.313c1.334,1.058,2.499,1.953,3.564,2.757c1.036,0.843,1.964,1.598,2.865,2.329c0.9,0.731,1.771,1.438,2.686,2.179
	c0.906,0.755,1.792,1.616,2.812,2.563c0.603-0.476,2.059,1.154,3.696,1.871c1.332,1.58,2.673,3.298,4.11,5.059
	c1.415,1.782,2.817,3.702,4.469,5.538c2.504,2.433,1.141,0.373,2.472,1.311c-0.376,0.639,2.716,4.485,0.745,2.772
	c1.903,2.271,2.995,3.818,4.275,5.471c0.651,0.82,1.333,1.679,2.144,2.701c0.779,1.05,1.681,2.267,2.802,3.776
	c-0.199-0.836-0.592-1.681-0.136-1.405c0.833,1.096,1.432,2.783,1.042,2.79l-0.256-0.268c2.645,3.336,4.642,7.847,6.276,12.213
	c0.896,2.146,1.575,4.324,2.385,6.259c0.399,0.976,0.815,1.892,1.261,2.74c0.4,0.869,0.831,1.668,1.303,2.381l-0.201-0.323
	c0,0,0.807,1.552,1.616,3.1c0.846,1.54,1.538,3.147,1.538,3.147c0.906,3.074-1.102-1.652-0.752,0.736
	c0.867,1.678,1.529,3.227,2.075,4.689c0.474,1.485,0.83,2.884,1.166,4.241c0.729,2.706,1.139,5.3,2.201,8.229
	c-0.115,0.637-0.141,1.371-0.098,2.179c0.007,0.815,0.072,1.708,0.188,2.657c0.201,1.899,0.714,4.005,1.029,6.199
	c0.331,2.188,0.72,4.427,0.943,6.532c0.145,2.111,0.182,4.081-0.024,5.699l0.452-0.399c0.59,1.632-0.107,2.022-0.203,3.245
	c0.369-0.187,0.39-1.82,0.672-0.798c0.191,3.52,0.44,7.112,0.21,10.732c-0.095,1.807-0.116,3.629-0.314,5.441
	c-0.206,1.813-0.416,3.629-0.625,5.447c-0.176,1.822-0.592,3.619-0.88,5.424c-0.321,1.803-0.612,3.605-1.062,5.379
	c-0.403,1.777-0.808,3.551-1.209,5.32c-0.475,1.748-0.947,3.49-1.417,5.225c-0.628,2.547-0.299,3.401-0.063,4.426
	c0.223,1.014,0.27,2.186-1.198,5.229l-0.33-2.076c-0.215,1.321-0.535,2.621-0.913,3.914c-0.362,1.293-0.753,2.586-1.161,3.879
	c-0.825,2.578-1.923,5.07-2.908,7.594c-1.117,2.471-2.232,4.936-3.334,7.375c-1.207,2.391-2.278,4.822-3.349,7.22
	c0.129-0.64-0.079-0.776,0.383-1.681c-1.601,1.629-4.076,7.037-3.64,7.363c-0.935,1.336-0.611,0.066-1.382,0.766
	c-1.529,1.632-2.275,5.141-3.518,5.721c-0.146,0.074,0.013-0.27,0.183-0.604c-0.892,1.603-3.649,4.973-2.355,4.348
	c-1.251,1.516-2.375,3.016-3.418,4.457c-1.063,1.423-1.993,2.836-3.222,3.846c-0.724,2.076-4.671,4.827-4.307,6.042
	c-0.72-1.038-5.408,4.332-6.899,6.38c0.347-0.838-1.828,1.209-1.473,0.166c-1.996,1.99-3.854,3.799-3.059,3.957
	c-2.463,1.146-4.207,3.117-5.936,4.705c-1.704,1.611-3.174,3.1-4.941,3.165c-6.344,5.54-12.882,9.899-19.49,13.677
	c-0.168-0.631,1.729-1.521,3.447-2.588c1.734-1.035,3.398-2.039,2.937-2.512c-1.49,0.998-2.802,1.93-4.034,2.824
	c-1.267,0.838-2.454,1.619-3.639,2.398c-2.366,1.596-4.89,2.897-8.211,4.229c-1.754,0.604,0.748-0.918,1.229-1.359
	c-3.14,1.775-6.443,2.885-9.569,4.146c-1.597,0.541-3.176,1.063-4.715,1.632c-1.536,0.579-3.054,1.153-4.554,1.723
	c-0.014-0.116,0.616-0.423,1.217-0.687c-1.203,0.379-2.867,0.623-2.581,1.115l1.142-0.479c2.182,0.215-4.386,2.988-4.524,3.447
	c1.713-2.018-6.31,1.033-3.433-1.682c-0.784,0.289-1.741,0.775-1.476,1.094c-1.229,0.172-1.651,0.047-0.524-0.644
	c-2.162,0.669-2.837,1.009-3.471,1.298c-0.631,0.297-1.222,0.547-3.246,0.896c-0.029-0.268,0.768-0.516,1.13-0.896
	c-1.947,0.864-3.927,1.813-7.416,1.967c0.157-0.156-0.107-0.291,0.403-0.404c-2.774,0.414-5.157,1.061-7.642,1.451
	c-1.296,0.233-2.616,0.453-4.021,0.608c-1.407,0.165-2.909,0.128-4.555,0.06c1.903-1.207-2.24-0.332-2.594-1.33
	c0,0-0.875,0.091-1.751,0.179c-0.877,0.054-1.754,0.104-1.754,0.104l1.405,0.525c-3.074-0.129-5.839,0.616-8.477,0.094
	c0,0,0.579-0.057,1.155-0.113c0.578-0.092,1.156-0.176,1.156-0.176s-0.362,0.002-0.905,0.004c-0.541-0.002-1.261-0.051-1.983-0.078
	c-1.444-0.063-2.89-0.131-2.89-0.131l3.24,0.637c-3.156,0.271,0.238,1.32-3.841,0.726c-0.573,0.021-3.418,0.041-4.659-1.054
	c-1.555,0.002-3.173,0.227-5.413-0.314c-0.541-0.396,0.643-1.054,0.291-1.314c-1.616,0.574-7.162-1-9.208-0.561
	c0.668-0.062,0.808-0.574,0.626-0.728l-1.379,0.378c-1.354-0.54-1.531-0.689-1.211-1.049c-4.164-1.098,1.042,1.554-3.821-0.145
	c0.406,0.036,0.244-0.105,1.085-0.017c-4.905-1.531-9.712-2.222-14.069-4.125c-0.979-1.407,3.982,1.094,2.75-0.229
	c-6.492-1.873-13.591-3.856-19.438-6.938l1.044,0.661c-1.447,0.852-4.07-2.85-7.304-3.836c0.756,0.324,1.313-0.176,1.043-0.135
	c-1.898-1.22-3.924-2.297-6.259-3.442c-2.272-1.249-4.87-2.546-7.82-4.306l0.897,0.191c-1.958-1.843-5.639-4.15-7.735-6.131
	c-0.894-0.236-2.148-1.303-1.696-0.268c-0.707-0.896-1.462-1.699-2.225-2.477c-0.742-0.798-1.515-1.542-2.308-2.242
	c-1.584-1.406-3.271-2.635-4.835-3.967c-1.575-1.313-3.208-2.542-4.602-3.979c-1.396-1.437-2.672-2.961-3.702-4.68
	c0.65,0.676,1.776,1.404,1.263,0.861c0,0-0.303-0.288-0.758-0.721c-0.465-0.422-1.041-1.024-1.615-1.633
	c-1.154-1.211-2.31-2.422-2.31-2.422c-0.127,0.805,0.286,0.91,0.84,2.295c-0.833-0.398-2.295-1.656-3.389-2.926
	c2.313,2.021,0.717-0.638,0.206-1.89c-0.015,0.291-0.453,0.073-0.536,0.282c-1.294-3.455-1.345,0.314-3.722-3.932l0.419,0.002
	c-1.271-1.293-2.508-2.443-3.578-4.07c0.125-1.069,1.382,1.369,1.934,1.123c-1.582-2.188-4.271-3.578-4.957-6.09
	c0.788,0.867,1.677,2.273,2.533,3.086c-0.856-2.652-1.111-2.844-2.091-4.57l0.088,0.175c0,0-0.535-1.017-1.07-2.03
	c-0.266-0.509-0.532-1.015-0.73-1.395c-0.204-0.379-0.314-0.645-0.314-0.645s0.098,0.281,0.195,0.562
	c0.107,0.274,0.216,0.552,0.216,0.552c-1.699-0.943-2.597-2.439-3.548-4.059c-0.466-0.817-0.943-1.67-1.495-2.541
	c-0.52-0.887-1.127-1.787-1.924-2.672c3.06,3.439,0.931,0.345,1.813,0.274c-0.327-1.144-0.9-2.827-0.468-2.481
	c-0.776-0.811-1.084-1.658-1.434-2.605c-0.33-0.958-0.735-1.995-1.798-3.178c0.186-0.232-0.919-2.109-0.113-1.93
	c-1.333-2.459-0.15,0.781-0.548,0.703c-2.603-3.617-2.814-9.752-5.881-15.238c-1.042-2.478-1.755-3.93-2.518-5.321
	c-0.375-0.699-0.745-1.392-1.132-2.201c-0.36-0.819-0.708-1.769-1.1-2.967c0.033-1.747,1.241,1.124,1.241,1.124
	c-0.2-2.747-0.813-4.693-1.554-7.158c0.315,0.467,0.413-0.1,0.568-0.919c-0.424-2.002-1.183-1.183-1.271-3.917
	c0.371,0.413,0.937,0.921,1.397,1.839c-0.326-1.163-0.72-2.312-1.106-3.476c-0.329-1.174-0.661-2.36-0.934-3.59
	c0.372-0.715,0.876,1.41,1.281,2.236c-0.545-2.746-1.346-7.143-2.056-7.957l-0.091,1.371c0.133-0.352,0.581,0.029,0.75,0.607
	c0.864,2.326,0.181,3.474-0.064,3.646l-0.389-1.755c-0.653,0.998-0.367,2.789,0.125,4.761c0.5,1.975,1.374,4.09,1.622,5.873
	l-1.366-1.283l1.559,3.478c-0.131,0.823-0.654,1.487-1.146-0.241c-0.046,2.666,0.88,2.163,0.755,4.479
	c-0.038,0.262-0.116,0.164-0.211-0.047l0.893,2.402c-0.341-0.433-0.675,0.6-0.866-0.966c0.161,2.317,0.87,4.05,1.463,5.431
	c0.582,1.385,1.04,2.424,0.866,3.373l-0.169-0.351c0.503,1.51,0.872,2.267,1.117,2.64c0.241,0.373,0.365,0.361,0.492,0.297
	c0.251-0.129,0.513-0.459,1.722,1.623l-0.902,3.693l0.973,0.313c0.199,0.623,0.621,1.844,0.224,1.74
	c1.415,2.065,0.185-0.513,1.195,0.611c0.233,1.588,1.068,3.594,1.817,5.296c0.778,1.69,1.367,3.13,0.916,3.726
	c1.031,0.77-0.793-2.938,0.979-0.063c-0.446,0.729,0.01,1.596,0.646,2.63c0.674,1.021,1.566,2.188,1.925,3.617
	c-1.048-0.455-1.947-3.067-1.217-0.204c0.946,0.501,1.519,1.775,2.027,3.195c0.519,1.41,1.064,2.918,1.763,3.927
	c0.454-0.19,1.198,0.901,2.118,2.468c0.938,1.551,2.17,3.512,3.392,5.146c-0.477-0.002,3.819,6.68,5.902,9.891l-0.2,0.01
	c0.621-0.01,1.497,0.784,2.456,1.844c0.954,1.063,1.997,2.396,3.03,3.39c-0.521,0.291-1.055,0.067-2.249-0.96
	c0,0,0.424,0.523,0.869,1.029c0.439,0.51,0.881,1.021,0.881,1.021c0.656,0.274,1.332,0.802,2.556,2.045l-0.999-0.024
	c0.596,0.672,1.224,1.32,1.885,1.957c0.69,0.611,1.394,1.232,2.12,1.879c1.464,1.271,2.856,2.781,4.381,4.517
	c0.661-0.323-1.263-3.872,2.531-0.878c-0.131,0.391-0.444,0.975-1.466,0.207c0.334,0.255,1.282,0.802,1.774,1.492l-1.833-0.885
	c1.318,1.645,1.154,0.375,2.316,1.569c-0.39,0.365,0.632,1.132,0.171,1.276c-0.345-0.26-0.904-1.17-1.511-1.463
	c1.291,1.383,2.731,3.188,3.058,3.961c0.078-0.336,0.479-0.534,1.568,0.32c2.721,2.317,0.503,1.289,1.904,2.869
	c0.873,0.316,2.431,2.024,2.981,1.438c0.817,0.652,0.739,1.063,0.923,1.482c0.848,0.426,2.533,1.787,3.939,2.698
	c1.413,0.901,2.457,1.466,1.856,0.517l-0.353-0.32c0.079,0.044,0.169,0.095,0.267,0.148c1.347,0.717,2.639,1.555,3.902,2.457
	c1.275,0.883,2.573,1.758,3.838,2.688c2.508,1.895,5.141,3.605,7.822,4.966l-0.141,0.228c1.608,0.806,3.438,1.617,5.125,2.418
	c1.699,0.775,3.276,1.51,4.574,1.748c0.96,0.438,2.07,1.476,1.526,1.576c2.597,0.924,2.937,0.887,6.467,2.723
	c-2.743-0.59,0.73,0.736-2.761-0.729c3.23,1.519,3.834,2.259,7.676,2.94c-1.477,0.217,2.264,1.681,3.946,2.037l-2.22-1.271
	c1.844,0.521,3.403,1.12,4.994,1.719l-1.142,0.561c1.66,0.852,3.363,1.295,4.998,1.686c1.644,0.358,3.228,0.651,4.788,0.787
	c3.114,0.309,5.917,0.801,8.512,2.131c2.027-0.273-3.839-1.145-1.982-1.556c3.271,0.71,6.519,2.622,7.574,2.796
	c4.548,1.057,4.459-0.675,9.218,0.139c-0.59-0.367-1.071-1.261,2.518-1.285c3.313,0.379,4.025,1.662,1.885,1.754
	c-0.809-0.035-1.19-0.168-1.147-0.275c-1.094,0.031-2.534,0.059-1.229,0.508l0.463-0.283c0.823,0.229,2.396,0.424,3.623,0.616
	c1.229,0.173,2.117,0.293,1.558,0.548c2.574-0.234,1.112-0.494-0.769-0.711c4.318,0.535,6.77,0.32,11.232,0.456
	c-0.712-0.161-1.37-0.521-0.665-0.534c3.271,0.121,3.987-0.047,4.434-0.275c0.445-0.227,0.625-0.5,2.817-0.745
	c2.532,0.302-0.822,1.229,3.592,0.493c2.747,0.127,0.656,0.804-0.413,1.144c1.006-0.231,1.986-0.353,2.928-0.416
	c0.938-0.106,1.836-0.144,2.688-0.151c1.7-0.02,3.202,0.082,4.373-0.01l-2.111,0.524c1.264-0.321,2.319-0.421,3.383-0.593
	c0,0-0.327-0.094-0.656-0.221c-0.329-0.119-0.657-0.24-0.657-0.24c1.272-0.024,2.322-0.271,2.342,0.02
	c1.217-0.643-1.142-0.883,1.294-1.893c1.705,0.011,4.955-1.188,5.682-0.539c-4.792,0.658-0.219,0.75-2.745,1.473
	c0.653-0.139,1.398-0.244,2.254-0.327c0.204,0.052-0.14,0.218-0.473,0.319c5.131-0.354,2.085-1.45,7.199-2.594
	c-0.533,0.625,1.411,0.609,2.208,0.252c-2.047,0.564-1.17-0.502,0.594-1.379c3.332-0.551,3.435-1.256,5.132-1.689l-1.979,0.377
	c0.521-0.632,2.146-1.021,4.294-1.938c0.083,0.08-0.027,0.186-0.206,0.291c2.202-0.996,5.377-0.668,8.138-2.353
	c1.681-0.312,0.478,0.778,1.936,0.442c3.571-2.026,4.332-1.109,8.059-3.311c-1.397-0.076-1.519,0.148,0.952-1.646l-6.214,3.287
	l3.723-2.699c-1.931,0.838-3.881,2.236-5.113,2.574c1.784-1.279,1.614-1.1,0.499-1.16c2.999-0.322,4.995-2.785,8.234-3.682
	l0.609,1.477c2.399-0.842,4.345-1.993,6.35-3.383c1.977-1.451,4.152-2.893,7.014-4.477c0,0-0.48,0.225-0.958,0.447
	c-0.475,0.23-0.97,0.422-0.97,0.422c0.436-0.969,3.355-2.227,5.003-3.57c0.124,0.553,1.348,0.008,2.291-0.213
	c-0.312-0.263,3.943-2.744,3.802-3.947c0,0,0.696-0.279,1.395-0.558c0.708-0.269,1.377-0.594,1.377-0.594
	c4.338-3.046,3.846-4.837,7.738-8.011c-0.774,1.43,1.217,0.211-1.088,2.746c1.289-1.103,2.506-2.022,2.281-2.32
	c0.481-0.202,1.269-1.088,2.082-2.039c0.796-0.975,1.652-1.977,2.39-2.324c0.355-0.662,0.14-1.225,1.539-2.493
	c0.148-0.042,0.174,0.056,0.179,0.124c0.117-0.4,1.725-2.218,0.271-1.512c4.829-2.537,9.794-10.602,13.538-13.364
	c0.539-0.747,1.104-1.534,1.68-2.335c0.567-0.807,1.1-1.662,1.655-2.484c1.086-1.666,2.21-3.252,3.11-4.654
	c0.016,0.267,0.214,0.156-0.174,0.656c2.904-3.615,0.275-3.201,3.519-7.313c1.035-0.932,0.791-0.273,0.421,0.462
	c-0.371,0.733-0.922,1.509-0.324,0.897c0.967,0.17,1.691-1.258,2.537-3.008c0.827-1.767,1.813-3.824,3.032-5.184l-0.301,0.813
	c1.753-2.147,2.521-6.146,4.377-10.131c0,0,0.054,0.258,0.231,0.131c0.223-1.559,0.872-3.651,1.491-5.912
	c0.635-2.25,1.5-4.57,2.013-6.625c0.223,1.473-0.278,1.941,0.636,1.418c0.521-1.83-1.229,0.141-0.199-3.49
	c0.739-1.042,1.97-3.51,2.737-3.654c0,0-0.23,0.865-0.524,1.713c-0.28,0.852-0.56,1.705-0.56,1.705
	c0.745-0.722,1.138-1.82,1.377-2.97c0.222-1.159,0.347-2.345,0.687-3.229l0.337,0.35c1.427-5.335,0.295-5.691,1.728-11.396
	l-0.449,0.523c-0.336-3.34,1.093-2.527,0.923-5.816l1.222-0.773c0.027-0.535,0.063-1.27,0.108-2.133
	c0.003-0.865,0.009-1.857,0.012-2.901c-0.008-2.091,0.124-4.358,0.153-6.261c0.619,2.214,0.389,6.688,0.487,9.511
	c0.313-2.095,0.856-7.147,0.479-8.29c-0.005,0.854,0.114,1.949-0.155,2.764c-0.425-2.666-0.655-6.074-0.295-10.23
	c1.044,0.434,1.26-2.297,1.413-5.51c0.24-3.216,0.052-6.897,0.846-8.458C315.076,152.244,314.997,151.314,314.919,150.384z
	 M77.613,22.056c-0.016,0.042-0.061,0.106-0.074,0.15c0.025-0.183,0.069-0.363,0.215-0.563c0.979-0.683,1.4-0.753,1.619-0.697
	C78.892,21.236,78.335,21.582,77.613,22.056z M85.954,23.154c0.327-0.18,0.779-0.43,1.564-0.861l0.007,0.014
	C86.869,22.66,86.311,22.963,85.954,23.154z M91.168,20.388c-0.335-0.112-0.22-0.508,0.46-0.791
	c-0.29,0.323,1.345-0.244,2.423-0.486C93.235,19.45,92.218,19.88,91.168,20.388z M3.954,173.779l0.03-0.455
	C3.949,173.419,3.931,173.561,3.954,173.779z M38.266,254.935c0.004-0.102-0.035-0.266-0.175-0.537
	C38.067,254.449,38.153,254.669,38.266,254.935z M28.269,240.766l-1.091-2.209C27.617,239.531,27.972,240.221,28.269,240.766z
	 M21.903,229.071c-0.193-0.09-0.304-0.086-0.405-0.083l0.007,0.025L21.903,229.071z M5.649,173.546
	c-0.048,0.017-0.092-0.019-0.126-0.064l0.175,0.703L5.649,173.546z M5.382,172.783c0.023,0.325,0.051,0.606,0.142,0.698
	L5.382,172.783z M5.082,171.308l0.3,1.477C5.345,172.268,5.323,171.626,5.082,171.308z M8.512,191.721
	c-0.079-0.095-0.183-0.146-0.313-0.14L8.512,191.721z M8.762,191.833l-0.25-0.112c0.598,0.714,0.201,3.993,0.985,5.051
	C9.211,195.524,9.339,193.52,8.762,191.833z M13.539,219.212c-0.043-0.111-0.076-0.189-0.116-0.291
	C13.49,219.099,13.539,219.212,13.539,219.212z M12.783,217.048c-0.366-1.084-0.732-2.17-0.732-2.17
	c0.02,0.851,0.038,1.98-0.788,0.062c1.284,5.601,0.204-1.034,2.16,3.981c-0.04-0.104-0.084-0.227-0.135-0.379
	C13.151,218.136,12.966,217.593,12.783,217.048z M18.732,232.41c0.977,1.26,1.229,1.549,0.567-0.188
	C18.059,230.085,18.937,232.446,18.732,232.41z M93.233,301.166l-0.511,0.526C94.502,302.392,92.848,301.455,93.233,301.166z
	 M111.864,304.238c-0.402-0.227-0.793-0.484-0.793-0.484l-1.006,0.324c0,0,0.646,0.168,1.294,0.334
	c0.655,0.141,1.311,0.278,1.311,0.278S112.268,304.464,111.864,304.238z M121.734,312.278l3.17,0.483l-2.332-0.385L121.734,312.278z
	 M279.118,258.664l-1.021-0.099C277.363,259.63,277.928,260.466,279.118,258.664z M310.766,191.501
	c0.634-0.694,1.272-2.721,1.09-4.078C311.505,189.071,310.884,190.652,310.766,191.501z M212.54,9.86l1.511,0.291
	c0,0-0.686-0.208-1.37-0.416c-0.684-0.219-1.388-0.372-1.388-0.372s0.313,0.12,0.626,0.239C212.234,9.715,212.54,9.86,212.54,9.86z" class="color c1"/>
</svg>