<svg version="1.1" id="图层_1" x="0px" y="0px" width="33.528px" height="109.936px" viewBox="0 0 33.528 109.936" enable-background="new 0 0 33.528 109.936" xml:space="preserve" xmlns="http://www.w3.org/2000/svg" xmlns:xlink="http://www.w3.org/1999/xlink" xmlns:xml="http://www.w3.org/XML/1998/namespace">
  <path fill="#FAA001" d="M4.195,0c0,0-0.044,0.46-0.127,1.324c-0.089,0.862-0.19,2.132-0.376,3.738
	C3.609,5.865,3.489,6.755,3.413,7.724c-0.057,0.967-0.118,2.013-0.183,3.13c-0.069,1.112-0.142,2.295-0.219,3.542
	c-0.055,1.247-0.048,2.569-0.077,3.939c-0.009,1.372-0.067,2.798-0.04,4.274c0.049,1.475,0.101,3,0.153,4.567
	c0.026,0.782,0.052,1.575,0.079,2.378c0.072,0.8,0.145,1.611,0.219,2.43c0.138,1.636,0.278,3.307,0.421,5.006
	c0.47,3.38,0.874,6.877,1.591,10.382c0.549,3.536,1.516,7.042,2.35,10.573c1.04,3.476,1.945,6.999,3.231,10.338
	c1.131,3.394,2.518,6.629,3.795,9.794c0.723,1.544,1.434,3.063,2.13,4.55c0.344,0.747,0.684,1.486,1.02,2.216
	c0.377,0.709,0.749,1.41,1.116,2.101c0.736,1.385,1.451,2.732,2.143,4.036c0.711,1.294,1.471,2.501,2.162,3.687
	c0.708,1.174,1.357,2.322,2.03,3.378c0.69,1.046,1.344,2.038,1.959,2.971c0.614,0.937,1.189,1.815,1.721,2.626
	c0.547,0.801,1.089,1.507,1.559,2.161c1.897,2.605,2.954,4.136,2.954,4.136s-1.314-1.294-3.569-3.63
	c-0.557-0.589-1.198-1.224-1.855-1.95c-0.629-0.75-1.309-1.56-2.036-2.426c-0.726-0.871-1.499-1.797-2.313-2.774
	c-0.798-0.991-1.54-2.104-2.368-3.228c-0.807-1.139-1.689-2.303-2.529-3.555c-0.795-1.282-1.617-2.607-2.462-3.969
	c-0.42-0.684-0.847-1.377-1.278-2.079c-0.391-0.724-0.787-1.458-1.188-2.199c-0.804-1.482-1.606-3.009-2.395-4.574
	c-1.409-3.207-3.056-6.453-4.227-9.953c-1.365-3.428-2.357-7.044-3.463-10.624c-0.819-3.656-1.765-7.284-2.288-10.937
	c-0.721-3.619-0.916-7.253-1.29-10.736c-0.099-1.75-0.158-3.474-0.201-5.159C0.044,31.301,0.022,30.468,0,29.645
	c0.024-0.823,0.048-1.637,0.072-2.439c0.054-1.602,0.107-3.16,0.159-4.668c0.104-1.504,0.289-2.952,0.421-4.342
	c0.159-1.389,0.245-2.72,0.446-3.981c0.22-1.256,0.428-2.448,0.624-3.569C1.92,9.532,2.106,8.489,2.278,7.525
	c0.207-0.954,0.444-1.817,0.634-2.603c0.382-1.571,0.727-2.797,0.943-3.636C4.077,0.447,4.195,0,4.195,0z" class="color c1"/>
</svg>