<svg version="1.1" id="图层_1" x="0px" y="0px" width="205.463px" height="207.144px" viewBox="0 0 205.463 207.144" enable-background="new 0 0 205.463 207.144" xml:space="preserve" xmlns="http://www.w3.org/2000/svg" xmlns:xlink="http://www.w3.org/1999/xlink" xmlns:xml="http://www.w3.org/XML/1998/namespace">
  <path fill="#A36B3A" d="M205.463,104.661c-0.154-0.145-0.983,0.2-0.933-0.758C204.313,103.948,205.238,103.046,205.463,104.661z
	 M201.341,88.45l0.386,0.217l-1.228-2.114L201.341,88.45z M199.796,81.958l-0.222,0.486l1.384,0.893
	c-0.461-1.52-1.044-3.249-1.661-4.836c-0.624-1.587-1.128-3.074-1.259-4.194C197.042,76.034,199.771,79.28,199.796,81.958z
	 M198.814,67.299c-0.126-0.298-0.288-0.712-0.528-1.431c-0.336,0.665-1.077-1.427,0.52,1.795
	C198.797,67.474,198.81,67.413,198.814,67.299z M198.814,67.299C199.43,68.755,198.871,66.171,198.814,67.299L198.814,67.299z
	 M196.917,60.691c-1.133-1.843-1.24-1.29-1.23,0.038l1.307,1.687C197.116,61.887,196.416,60.16,196.917,60.691z M194.568,60.275
	c0.047-0.229-0.02-0.512-0.653-0.866c0,0,0.168,0.214,0.336,0.427C194.41,60.056,194.568,60.275,194.568,60.275z M195.141,61.152
	c-0.459,0.01,0.092,0.243,0.762,0.998l-1.335-1.875C194.483,60.646,194.075,60.868,195.141,61.152z M195.551,64.329
	c0.844,1.758,1.402,2.436,1.59,2.206c0.161-0.217-0.005-1.373-0.91-3.129C196.438,64.58,196.785,66.032,195.551,64.329z
	 M197.256,76.698c-0.202-0.277-0.305-0.994-0.409-1.617c-0.115-0.62-0.258-1.137-0.451-1.025c0,0,0.02,0.384,0.039,0.768
	c0.018,0.384,0.011,0.774,0.011,0.774L197.256,76.698z M190.152,50.916c0.265,0.286,0.531,0.572,0.531,0.572
	c-0.192-0.799-0.851-2.146-0.524-2.476c-0.327,0.053-0.31,1.018-0.559,1.349C189.6,50.36,189.886,50.631,190.152,50.916z
	 M189.6,50.36l-1.667-1.635C188.973,50.461,189.383,50.644,189.6,50.36z M193.619,61.202c0.63,0.727,1.259,1.454,1.259,1.454
	s-0.706-0.887-1.412-1.774c-0.342-0.446-0.728-0.867-1.006-1.187c-0.28-0.319-0.467-0.531-0.467-0.531l0.335,0.622
	C192.327,59.785,193.007,60.471,193.619,61.202z M185.893,42.043c0.332,0.163,0.664,0.326,0.664,0.326s-0.553-0.318-1.106-0.636
	c-0.57-0.297-1.141-0.595-1.141-0.595l0.915,0.585C185.226,41.724,185.56,41.884,185.893,42.043z M181.491,37.24
	c1.082,0.361-0.118-1.643,0.828-1.097c-1.135-1.143-2.39-1.861-3.546-2.456C179.833,34.475,180.683,35.588,181.491,37.24z
	 M176.885,32.654c0.546,0.37,1.189,0.683,1.889,1.033C178.2,33.279,177.591,32.92,176.885,32.654z M185.57,43.47l-0.174,1.229
	c0.155,0.224,0.33,0.478,0.507,0.736C185.952,45.187,186.15,44.635,185.57,43.47z M185.392,44.741l0.004-0.042
	c-0.543-0.804-0.919-1.361-1.08-1.6C184.452,43.307,184.775,43.801,185.392,44.741z M186.03,45.621
	c-0.047-0.068-0.081-0.118-0.127-0.186C185.884,45.554,185.891,45.612,186.03,45.621z M190.256,54.241
	c-1.078-0.917-2.869-3.001-2.186-0.353C189.043,54.406,188.644,52.881,190.256,54.241z M185.789,47.126c0,0,0.305,0.514,0.578,1.048
	c0.281,0.528,0.562,1.056,0.562,1.056c0.164-0.161,0.207-0.705,0.76-0.281c0,0-0.472-0.46-0.945-0.92
	c-0.235-0.229-0.471-0.457-0.647-0.628C185.913,47.236,185.789,47.126,185.789,47.126z M184.89,46.329l0.899,0.797l-0.453-0.762
	L184.89,46.329z M179.101,36.26c-0.482-0.272-0.914-0.616-1.337-1.009c-0.434-0.383-0.874-0.801-1.337-1.247
	c0.846,1.095,1.705,2.23,2.585,3.253C179.339,37.223,180.095,37.361,179.101,36.26z M182.21,40.351
	c-0.056-0.047-0.128-0.107-0.181-0.152C182.06,40.356,182.112,40.461,182.21,40.351z M167.242,25.318
	c0.018,0.086,0.035,0.164,0.054,0.252c0.044-0.028,0.083-0.057,0.131-0.082L167.242,25.318z M179.042,37.534
	c0.549,0.887,1.11,1.216,1.699,1.494c-0.572-0.53-1.149-1.113-1.73-1.772C178.864,37.27,178.793,37.31,179.042,37.534z
	 M174.108,30.386c0.272,0.499,0.606,1.034,0.944,1.606C174.892,31.41,174.408,30.357,174.108,30.386z M181.996,39.777
	c0.043,0.032,0.084,0.06,0.126,0.098C182.055,39.492,182.011,39.582,181.996,39.777z M181.996,39.777
	c-0.427-0.343-0.849-0.54-1.255-0.749c0.443,0.45,0.874,0.852,1.287,1.172C181.996,40.061,181.988,39.902,181.996,39.777z
	 M159.109,25.569c0,0,0.153,0.069,0.382,0.174c0.23,0.102,0.536,0.242,0.83,0.399c0.595,0.306,1.191,0.611,1.191,0.611
	c-0.101,0.208-1.068-0.094-0.621,0.519c0.31-0.26,1.087-0.134,1.947,0.318c0.428,0.228,0.884,0.528,1.293,0.916
	c0.401,0.398,0.77,0.868,1.055,1.396c2.053,0.993,2.71-1.885,2.111-4.331c-0.283,0.23-0.459,0.425-2.608-0.653
	c0.426,0.807,3.324,4.108,1.375,3.369c-1.278-0.857-1.734-1.283-1.964-1.684c-0.229-0.401-0.24-0.762-0.7-1.389
	C163.783,26.753,159.455,23.955,159.109,25.569z M170.438,28.22c0.322,0.316,0.537,0.527,0.537,0.527l-0.322-0.143l0.774,0.601
	c-0.703-0.882-1.094-1.633-1.808-3.068c-1.496-0.784-1.938-0.777-2.192-0.649c0,0,0.893,0.81,1.786,1.619
	C169.658,27.511,170.103,27.916,170.438,28.22z M174.582,32.256c-1.124,0.028-3.083-1.27-2.701,0.364
	c2.043,1.928,1.888,0.901,3.342,1.855c-3.32-3.171,1.261,0.625-0.687-2.123c0.732,0.555,1.331,1.117,1.89,1.652
	c-0.5-0.676-0.962-1.349-1.374-2.011c0.014,0.045,0.024,0.077,0.035,0.115l0.017,0.014l-0.013,0.006
	c0.062,0.22,0.06,0.314-0.051,0.107c-0.018-0.004-0.06-0.042-0.079-0.058c-0.107,0.061-0.241,0.073-0.376,0.077
	c-0.8-1.095,0.013-0.311,0.376-0.077c0.041-0.018,0.095-0.021,0.13-0.049c0-0.007-0.002-0.013-0.004-0.02
	c0,0-0.881-0.767-1.818-1.471c-0.921-0.715-1.843-1.431-1.843-1.431C172.046,29.98,172.983,30.774,174.582,32.256z M185.257,52.788
	c-0.01-0.156,0.046-0.183,0.094-0.225C185.106,52.376,184.986,52.323,185.257,52.788z M185.175,48.178
	c0.028-0.073,0.055-0.145,0.085-0.219C185.203,47.916,185.176,48.005,185.175,48.178z M185.351,52.563
	c0.541,0.406,1.707,1.574,1.007-0.35l-0.271-0.206c-0.567-1.316-0.918-3.187-0.912-3.829c-0.301,0.787-0.474,1.488-0.467,2.789
	c0.276,0.208,0.714,0.252,1.211,1.192C186.194,53.069,185.565,52.372,185.351,52.563z M178.583,40.129
	c-0.698-0.644-1.396-1.288-1.396-1.288l0.683,1.928l0.281-0.36c1.228,1.753,1.34,1.07,1.784,1.055c0,0-0.167-0.169-0.417-0.423
	C179.269,40.786,178.94,40.446,178.583,40.129z M168.153,24.336c0,0-0.626-0.133-1.278-0.223c-0.642-0.097-1.285-0.193-1.285-0.193
	l1.59,0.778L168.153,24.336z M163.772,21.147c0,0-0.337-0.11-0.683-0.204c-0.343-0.098-0.686-0.195-0.686-0.195l0.747,0.918
	L163.772,21.147z M20.495,152.425l0.708,0.777C20.896,152.818,20.679,152.583,20.495,152.425z M16.986,145.835l-0.434,0.008
	C16.904,146.058,17.111,146.113,16.986,145.835z M43.38,17.618l0.909,0.446c0.892-0.757,1.697-1.157,2.43-1.405
	C44.938,16.921,42.715,16.986,43.38,17.618z M4.774,85.319c0.11-0.13,0.225-0.266,0.339-0.401c-0.206-0.435-0.4-0.843-0.573-1.21
	C4.616,84.197,4.663,84.74,4.774,85.319z M7.204,88.956c0.272-0.414,0.57-1.018,0.904-1.879L7.204,88.956z M50.158,181.169
	c-1.534-1.029-1.105-0.219-1.476,0.062c0,0,0.367-0.01,0.733-0.02C49.787,181.19,50.158,181.169,50.158,181.169z M115.868,2.461
	c-1.37-0.517-2.489-0.802-3.48-0.969C114.055,2.203,115.316,3.118,115.868,2.461z M10.967,154.325
	c0.483,0.526,0.784,0.694,0.942,0.582C11.426,154.364,11.08,154.094,10.967,154.325z M112.388,1.491
	c-1.226-0.527-2.688-0.825-4.131-0.343c0.246,0.106,0.49,0.168,0.741,0.261C110.052,1.356,111.121,1.278,112.388,1.491z
	 M178.74,156.985c0.092-0.067,0.176-0.167,0.267-0.223C178.927,156.668,178.843,156.791,178.74,156.985z M202.374,120.219
	c0.103-0.335,0.171-0.916,0.179-1.926C202.548,118.76,202.453,119.51,202.374,120.219z M145.982,10.839
	C146.973,11.254,146.181,10.818,145.982,10.839L145.982,10.839z M148.999,16.224c-0.243-0.015-0.451,0.018-0.569,0.183
	C148.605,16.261,148.797,16.21,148.999,16.224z M97.784,6.367c-0.03,0-0.054,0-0.088-0.001C98.004,6.529,97.951,6.498,97.784,6.367z
	 M147.25,11.915c-0.31-0.277-0.682-0.571-1.107-0.853C146.313,11.22,146.646,11.488,147.25,11.915z M147.239,11.449
	c0.315,0.198,0.562,0.354,0.798,0.502C148.223,11.884,148.156,11.748,147.239,11.449z M145.982,10.839
	c-0.291-0.121-0.701-0.292-1.382-0.575c0.565,0.241,1.069,0.514,1.543,0.798C145.977,10.923,145.917,10.842,145.982,10.839z
	 M113.758,199.692c0.068,0.019,0.146,0.027,0.221,0.055C114.921,199.264,114.494,199.376,113.758,199.692z M31.928,40.41
	c0.025-0.039,0.025-0.072,0.046-0.109c-0.039,0.027-0.087,0.06-0.122,0.084L31.928,40.41z M29.203,39.551
	c0,0,0.215,0.982,0.43,1.964c0.228,0.967,0.455,1.934,0.455,1.934c0.164-1.822,0.801-2.419,1.764-3.064c0,0-0.661-0.213-1.323-0.426
	C29.866,39.755,29.203,39.551,29.203,39.551z M91.575,196.983c-0.077-0.006-0.15-0.009-0.214-0.006
	C91.436,196.978,91.503,196.981,91.575,196.983z M201.344,119.3c-0.191,0.528-0.327,0.877-0.327,0.877
	c0.503-0.113,1.033,0.955,1.358,0.042c-0.228,1.445-0.39,2.727,0.622,0.937c-2.725,6.777-4.599,13.568-7.028,20.277
	c-2.411,6.671-5.416,13.24-9.923,18.573c-0.411,0.848,0.25,0.644,0.695,0.5c-1.194,0.75-1.402,1.336-1.407,1.903
	c0.004,0.57,0.232,1.126-0.108,1.753c0,0-0.903,0.51-1.805,1.02c-0.444,0.255-0.899,0.499-1.252,0.67
	c-0.347,0.175-0.578,0.292-0.578,0.292c-0.521,1.511,0.634,0.912,0.846,1.211c-1.034,1.459-2.149,2.845-3.391,4.082
	c-0.615,0.621-1.226,1.237-1.83,1.847c-0.616,0.598-1.267,1.149-1.885,1.714c-1.236,1.125-2.44,2.22-3.601,3.277
	c-1.136,1.079-2.164,2.186-3.1,3.304c-1.796,0.722-0.607-1.348-2.553,0.05c1.803-0.385,0.665,0.962-0.741,2.262
	c-1.405,1.291-2.982,2.629-1.769,2.489c-1.487-0.005-3.346,1.112-4.867,1.975c-1.531,0.85-2.825,1.262-3.107-0.127
	c-2.462,1.39-1.374,2.234-0.548,1.99c-1.411,0.881-2.743,1.574-3.933,2.367c-0.597,0.392-1.161,0.809-1.706,1.245
	c-0.557,0.415-1.089,0.864-1.602,1.364c-0.484,0.062-1.541,0.595-2.951,1.272c-1.432,0.628-3.163,1.528-5.008,2.254
	c-3.666,1.515-7.654,2.608-9.351,2.077c2.318,0.677,0.059,0.703-1.667,1.771l2.028,0.624c0,0-1.081,0.275-2.161,0.549
	c-0.54,0.137-1.08,0.273-1.485,0.376c-0.403,0.109-0.678,0.155-0.678,0.155c-0.857,0.312-1.118,0.322-1.138,0.22
	c-0.746,0.114,0.014-0.686-1.903-0.545c-1.467,0.314-2.208,0.607-2.779,0.924c-0.568,0.329-0.956,0.712-1.726,1.152l0.487,0.087
	l-2.013,0.47c-1.477,0.228,5.053-2.067,0.13-1.791c0.003,0.365-2.656,2.255-4.083,1.59c2.505-0.257,2.071-1.013,1.12-1.235
	c0,0-0.867,0.089-1.734,0.178c-0.433,0.044-0.866,0.089-1.191,0.122c-0.325,0.034-0.543,0.037-0.543,0.037s0.323,0.352,0.648,0.674
	c0.327,0.327,0.654,0.655,0.654,0.655c-5.044,0.454-10.226,0.458-15.431-0.054c-5.205-0.506-10.439-1.279-15.696-2.294
	c0.386-1.16-7.367-1.732-5.94-3.38l0.342,0.285c1.272,0.243,1.182-0.183,0.516-0.671c-0.659-0.521-1.874-1.15-2.901-1.331
	c1.952,1.178-4.341,0.727,0.752,2.465c0,0-1.067-0.072-2.134-0.144c-1.077-0.053-2.135-0.203-2.135-0.203
	c-1.657,1.34-4.393,0.395-7.349-1.244c-2.986-1.598-6.138-3.855-9.242-4.836c0.469,0.083,0.663-0.033,0.765-0.107
	c-1.413-0.368-2.765-1.058-4.039-1.828c-0.638-0.383-1.256-0.787-1.847-1.195c-0.576-0.431-1.121-0.873-1.635-1.295
	c-2.08-1.661-3.537-3.203-4.237-3.352l0.168-1.097c-2.423-0.745-3.702-1.327-4.965-2.107c-1.272-0.772-2.385-1.942-4.367-4.06
	c0.165-0.069,0.856,0.153,0.309-0.597c-0.766-0.182-1.504-0.409-2.42-0.927c-0.895-0.538-2.019-1.322-3.296-2.856l0.335-0.1
	c0,0-1.1-1.095-2.201-2.191c-1.077-1.119-2.11-2.28-2.11-2.28c0.585-0.491,0.358-1.158-0.29-1.938
	c-0.651-0.778-1.649-1.74-2.721-2.734c-1.085-0.983-2.111-2.103-2.801-3.161c-0.681-1.064-1.036-2.054-0.579-2.912
	c-0.695-0.256-1.712-1.298-2.74-2.467c-1.036-1.163-1.956-2.527-2.661-3.291c0.106-0.076,0.162-0.253,0.119-0.614
	c-1.343-0.616-1.983-2.255-2.517-3.95c-0.559-1.689-0.773-3.547-1.418-4.695c-1.066-1.406-1.243-0.532-1.409,0.371
	c-0.071-0.908-0.396-1.874-0.837-2.847c-0.453-0.968-1.053-1.932-1.652-2.833c-1.119-1.827-2.224-3.416-2.169-4.099
	c-0.638-2.463,0.844-1.249,1.289-2.105c-1.291-3.498-2.499,1.378-2.678-3.812c0.264,0.54,0.681,1.549,0.735,1.1
	c-0.164-0.954,0.48-2.5,0.978-3.96c0.505-1.467,0.888-2.859,0.403-3.71l-0.315,1.318c-0.693-1.607-0.449-3.723-0.257-5.417
	c0.249-1.709,0.391-3.012-0.669-3.165l-0.912,0.432c0.116-1.505,0.16-2.404,0.17-3.012c-0.004-0.606-0.08-0.915-0.161-1.227
	c-0.081-0.312-0.167-0.627-0.191-1.242c-0.021-0.614-0.013-1.529,0.249-3.03l0.16,0.068c-0.25-2.602,0.89-3.989-0.589-5.276
	l-0.231,0.896c-0.02-1.621,0.001-2.505,0.047-3.395c0.029-0.891,0.134-1.784,0.307-3.427c-0.118-0.395-0.225-2.012,0.133-2.441
	c-0.662-0.136-0.555-2.069-0.27-4.149c0.072-0.52,0.154-1.048,0.244-1.559c0.117-0.506,0.231-0.997,0.335-1.446
	c0.22-0.895,0.4-1.625,0.488-1.985c-0.278,2.623,0.48,1.482,1.122,0.853C2.033,85.699,1.866,85,1.932,84.273
	c0.099-0.721,0.44-1.471,1.046-2.422c-0.742-0.329-1.503-0.693-1.968-1.509c-0.232-0.408-0.389-0.929-0.432-1.615
	c-0.015-0.679,0.096-1.52,0.37-2.57c0.047,0.713-0.109,1.757,0.326,1.429c0.437-0.336,0.363-1.393,0.341-1.753
	c0.431-0.321,0.299,1.078,0.963,0.766C2.238,75,2.545,73.768,3.114,72.465c0.569-1.306,1.198-2.751,1.751-4.788
	c-0.04,1.411,0.672,0.451,1.359,0.212c-0.784-0.475,0.108-1.668,0.844-2.641c0.76-0.963,1.407-1.709,0.008-1.458
	c2.242-3.489,4.656-8.027,7.01-11.913c1.259-1.887,2.354-3.699,3.48-5.039c1.104-1.354,2.051-2.361,2.823-2.762
	c1.041-0.267,1.585-2.676,2.44-3.811l0.493,0.653c0.704-1.958,1.13-2.619,1.582-3.357c0.23-0.368,0.473-0.753,0.784-1.327
	c0.326-0.561,0.737-1.295,1.282-2.395c-0.656,2.054,0.235,1.747,2.093,0.881c0,0,0.254-0.861,0.508-1.722
	c0.289-0.845,0.578-1.689,0.578-1.689l1.298,0.455c0.607-1.235,1.771-2.114,3.003-2.892c0.04-0.843,0.866-1.969,1.778-3.05
	c1.115-1.213,2.329-2.36,2.436-2.958c1.062,0.201,1.767-0.448,2.45-1.066c0.674-0.625,1.311-1.237,2.18-0.902
	c0.254-0.458,0.63-0.987,1.109-1.467c-0.985-0.228-1.66-0.759-0.357-1.174c0.09-0.07,0.159-0.123,0.245-0.19l1.004,0.5
	c0.997-0.896,2.066-1.747,2.83-2.21c-0.398,0.123-0.878,0.228-1.404,0.305c0.557-0.191,1.097-0.32,1.624-0.435
	c0.156-0.092,0.309-0.178,0.418-0.228c-0.058,0.066-0.133,0.128-0.225,0.184c0.82-0.212,1.597-0.53,2.441-1.391
	c1.176-0.278,2.295-0.765,3.379-1.421c1.087-0.647,2.127-1.487,3.254-2.207c1.116-0.739,2.255-1.493,3.474-2.039
	c1.233-0.51,2.531-0.848,3.902-0.844c-0.789,0.088-1.84,0.406-1.983,0.831c0.99-0.411,2.008-0.752,3.02-1.018
	c1.024-0.237,2.032-0.431,2.984-0.626c1.894-0.427,3.61-0.691,4.804-1.425l-0.426-0.811c0.733-0.31,1.422-0.616,2.093-0.874
	c0.675-0.242,1.323-0.466,1.957-0.672c1.272-0.392,2.469-0.793,3.739-0.962l-0.054-1.021c0.941-0.075,2.12-0.319,3.408-0.617
	c1.287-0.3,2.699-0.539,4.068-0.778c0.686-0.108,1.361-0.218,2.01-0.269c0.651-0.038,1.273-0.048,1.846-0.018
	c1.147,0.059,2.098,0.279,2.696,0.758c0.429-0.461,1.726-0.421,3.168-0.333c1.444,0.094,3.028,0.225,4.086,0.145l0.524,0.79
	c1.365,0.161,2.468,0.185,3.439,0.144c0.969-0.005,1.807-0.06,2.633-0.113c2.717,0.963,5.324,1.368,7.914,1.508
	c2.562,0.283,5.114,0.294,7.465,0.949l-0.006,0.229c0,0,1.233,0.143,2.467,0.285c1.226,0.198,2.452,0.395,2.452,0.395
	c-1.437,0.323,1.068-0.202,2.455,0.396c1.616,0.118,4.007,1.129,5.573,2.237l2.92,1.194c-3.447-0.794-0.178,1.133-0.353,2.031
	c0,0,0.529,0.017,1.057,0.034c0.523,0.039,1.046,0.078,1.046,0.078c0.554,0.724-1.441,0.121-0.188,0.897
	c0.697,0.051,1.936,0.487,3.192,0.871c1.248,0.4,2.482,0.814,3.249,0.674c-0.07-0.289-0.401-0.698-0.853-1.128
	c-0.176-0.027-0.162-0.033-0.038-0.038c-0.037-0.039-0.065-0.067-0.102-0.106c0.053,0.04,0.075,0.057,0.137,0.104
	c0.19-0.002,0.495-0.014,0.65-0.068c2.142,1.321,1.494,0.575,1.603,0.176c0.958,1.254,1.848,1.921,2.667,2.556
	c0.813,0.636,1.548,1.251,2.047,2.5c-1.51-3.151,5.455,3.466,4.883,1.019c0.941,2.383,1.155,0.896,1.563,2.667
	c-1.091-1.022-2.429-1.694-3.814-2.13c-1.379-0.446-2.717-0.792-3.898-1.101c0,0,0.401,0.453,0.767,0.955
	c0.371,0.49,0.741,0.979,0.741,0.979c-0.528,0.139-1.037,0.006-1.531-0.278c-0.502-0.269-1-0.671-1.474-1.11
	c-0.951-0.871-1.838-1.865-2.562-1.959c0.979,0.124,2.591,1.486,2.468,1.827l0.081-1.369c-0.653-0.517-1.317-0.935-1.979-1.28
	c-0.677-0.317-1.354-0.557-2.017-0.754c-1.333-0.379-2.581-0.638-3.777-0.814c1.806,1.262-2.714-0.418-1.636,1.021l1.612,0.564
	c0.521,0.71-1.138,0.369-2.145,0.31c-1.116-0.753-2.531-1.54-4.095-2.195c-0.781-0.332-1.582-0.673-2.379-1.013
	c-0.808-0.315-1.63-0.583-2.418-0.866c-0.79-0.281-1.554-0.552-2.271-0.807c-0.724-0.232-1.401-0.443-2.001-0.656
	c-1.201-0.421-2.101-0.814-2.503-1.179c0.977,0.601,2.977,0.887,4.01,0.809l-2.295-1.181c0.999,0.261,1.814,0.765,2.751,1.256
	c0.93,0.518,1.965,1.066,3.465,1.354c-0.241-0.9,2.241-1.183,0.366-2.954c-2.625-1.565-3.985-1.393-5.468-1.166
	c-0.744,0.112-1.525,0.242-2.537,0.21c-1.025,0.013-2.281-0.126-3.984-0.595c-0.343,0.044,0.083-0.183,0.126-0.476
	c0.041-0.276-0.293-0.697-2.203-0.807c-1.21-0.018-2.346,0.04-3.367,0.164c-1.023,0.134-1.942,0.395-2.704,0.668
	c-1.529,0.562-2.452,1.315-2.536,2.155c0.978-0.124,2.461-0.31,3.76-0.302c1.299,0.003,2.388,0.308,2.576,0.948
	c-1.972,0.086-5.295,0.049-5.545,0.794c-1.798-1.656,3.626,0.037,1.197-1.46c-1.347-0.136-1.97,0.245-2.615,0.412
	c0.954-0.502-1.108-1.081-1.491-1.433c-1.099-0.086-2.078-0.202-3.005-0.334c-0.93-0.107-1.807-0.209-2.694-0.311
	c-0.889-0.105-1.79-0.229-2.767-0.312c-0.977-0.051-2.031-0.086-3.222-0.087c-0.259-0.2-0.803-0.637-0.679-0.987
	c-1.171,0.192-2.551,0.979-3.501,1.726c-0.953,0.762-1.477,1.554-1.015,1.961c-1.327,0.111-2.035,0.076-2.697,0.044
	c-0.661-0.028-1.272-0.021-2.373,0.315c3.76,0.802-0.739-0.123-0.914,1.281c-2.233,0.569-0.895-0.508-1.996-0.63
	c-0.356,0.212-1.18,0.819-1.17,1.19c-1.613-0.762,2.253-3.142,0.38-4.03c-0.648-0.246-2.326-0.56-3.877-0.634
	c-1.554-0.102-3.013-0.141-3.209-0.149c-0.863,1.382,0.703,5.889,2.624,7.022c0.023,0.805-2.292-0.354-3.282-0.127
	c-1.566-0.212-2.587,0.306-3.474,0.964c-0.888,0.669-1.669,1.404-2.889,1.549l1.508-1.269c-0.24-0.092-1.175,0.249-2.092,0.688
	c-0.922,0.427-1.785,1.055-1.967,1.36c-0.258-0.38,0.91-2.839-0.323-2.927c-1.057,0.353-2.042,0.86-2.902,1.435
	c-0.862,0.573-1.564,1.294-2.124,1.949c-1.112,1.333-1.566,2.584-1.153,3.133c0,0,1.358-0.996,2.717-1.992
	c0.679-0.514,1.378-0.994,1.914-1.332c0.532-0.35,0.888-0.584,0.888-0.584c0.315,0.48-0.68,1.167-1.639,1.887
	c-0.942,0.766-1.853,1.548-1.452,2.105c0,0-0.351,0.131-0.878,0.328c-0.526,0.2-1.239,0.445-1.92,0.758
	c-1.382,0.596-2.763,1.191-2.763,1.191c0.656-0.375,2.583-1.722,1.492-1.856c-2.294,1.246-1.294,0.434-3.094,0.787
	c1.001-1.303,2.312-3.46,3.642-5.51c1.333-2.026,2.603-4.118,3.273-5.273c0,0-0.179,0.121-0.447,0.303
	c-0.268,0.182-0.627,0.417-0.972,0.684c-0.692,0.518-1.384,1.037-1.384,1.037l-1.04-0.252c-1.85,1.272-3.084,3.478-3.914,5.397
	c-0.826,1.942-1.159,3.799-1.35,4.552c-2.198,0.936-2.728-1.52-2.45-2.216c-2.119,1.162-2.632,2.588-3.182,3.884
	c-0.558,1.294-1.021,2.66-3.046,3.872l1.742-0.599c-0.383,0.416-1.475,1.089-2.369,1.711c-0.878,0.644-1.59,1.19-1.285,1.231
	c-1.115,0.068-2.748-0.558-2.167-1.53c0,0-0.498,1.086-0.943,2.191c-0.426,1.113-0.851,2.226-0.851,2.226
	c0.306-0.58-1.251-1.771-1.274-2.204c-1.355,1.077-0.711,3.549,0.3,3.088c-3.357,1.177-2.208,1.206-5.303,1.884
	c-0.609,0.781,1.504,1.372,2.158,1.046c-1.211,1.869-2.202,2.666-3.085,3.256c1.892-3.18-2.424-3.696-3.006-5.203
	c0,0-0.093,0.616-0.233,1.54c-0.135,0.919-0.315,2.125-0.417,3.366c-0.104,1.213-0.208,2.426-0.287,3.336
	c-0.076,0.892-0.091,1.501-0.091,1.501c-0.114-0.427-1.117-2.065-1.312-2.173c0.425,0.79-0.701,2.985-2.239,5.403
	c-0.725,1.244-1.598,2.518-2.398,3.74c-0.775,1.238-1.544,2.379-2.185,3.267l0.343-0.56c-0.002-0.522-0.641-0.073-1.261,0.755
	c-0.612,0.831-1.252,2.007-1.376,2.822c-0.168-0.393,0.101-0.653,0.417-1.236c-1.288,0.961-1.226,2.103-1.095,3.248
	c0.108,1.142,0.206,2.242-1.146,3.226c1.368-2.312,1-3.102,0.343-3.294c-0.213,1.144-1.135,2.742-1.546,4.128
	c-0.444,1.371-0.554,2.422,0.582,2.342c-0.984,1.1-1.209,2.38-2.096,1.883c0,0-0.219,1.369-0.438,2.738
	c-0.118,0.677-0.21,1.359-0.256,1.878c-0.055,0.514-0.092,0.856-0.092,0.856c-0.068-0.444-0.512-0.974-1.15,0.484
	c0.307-0.698,0.484-1.432,0.607-2.162c0.126-0.731,0.249-1.439,0.363-2.1c0.242-1.323,0.508-2.462,1.443-2.935
	c-1.103-0.568-2.199,0.249-2.542-1.529c-0.496,1.436-0.709,2.799-0.888,4.031c-0.182,1.232-0.193,2.387-0.14,3.478
	c0.044,1.088,0.14,2.108,0.237,3.096c0.134,0.999,0.282,1.971,0.376,2.947c0,0-0.141,0.293-0.353,0.732
	c-0.204,0.442-0.516,1.022-0.753,1.624c-0.506,1.203-1.013,2.405-1.013,2.405l0.504,0.334l-1.596,0.575
	c0.161,0.699,0.394,1.165,0.23,1.269c-0.146,0.092-0.302-0.105-0.464-0.4c-0.026,0.554,0.011,1.068,0.111,1.349
	c-0.772,0.066-1.457-0.998-2.042-2.145c0.359-0.411,0.729-0.834,1.099-1.258c-0.466-1.159-1.011-2.08-1.803-0.751
	c0.048,0.223,0.09,0.505,0.13,0.799c-0.371-0.767-0.705-1.275-1.023-0.831c0,0-0.016,0.262-0.041,0.655
	c-0.017,0.394-0.074,0.911-0.069,1.44c-0.013,1.048-0.026,2.097-0.026,2.097c0.273-0.428,0.795-1.042,1.393-1.749
	c0.464,2.713,1.09,5.67,2.43,3.636c0,0-0.355,0.704-0.666,1.423c-0.303,0.723-0.606,1.445-0.606,1.445
	c0.484,1.86,0.648,2.603,0.811,3.449c0.173,0.842,0.294,1.781,0.656,3.931c-0.512,0.207-0.845-0.957-1.267-0.21
	c0.681,1.607,0.226,3.476-0.325,5.088c-0.509,1.606-0.947,2.941-0.247,3.264c0.421,2.531,1.233,1.014,1.713,2.59
	c-0.164-0.067-0.489-0.2-0.477,0.265l1.162,1.816c-0.307,0.794-0.838-1.686-1.115,0.483c0.486,1.802,1.028,3.193,1.358,4.529
	c0.17,0.667,0.289,1.321,0.376,1.998c0.113,0.673,0.178,1.373,0.192,2.143c0.991,4.191,1.68-2.167,2.111,1.42
	c-0.74,0.683-1.598,1.338-1.205,3.597c0.855,1.034,1.375,0.743,2.289,2.586l-1.271,0.209c0.571,1.805,1.206,3.183,0.288,3.483
	c0.996,1.32,1.261,2.346,1.323,3.186c1.55,2.476,1.779-2.848,2.059-3.576c-0.017,1.443,0.262,2.583,0.424,3.606
	c0.157,1.027,0.287,1.906-0.15,2.934c0,0-0.308-0.545-0.616-1.09c-0.155-0.273-0.309-0.547-0.425-0.752
	c-0.106-0.209-0.177-0.348-0.177-0.348c0.202,2.757,1.116,3.777,1.723,4.491c0.654,0.706,1.033,1.114,0.306,2.802
	c-0.332-0.857-0.881-1.716-1.375-2.209c-0.468-0.504-0.89-0.638-1.015,0.008c0,0,0.101,0.14,0.252,0.35
	c0.161,0.205,0.375,0.479,0.589,0.752c0.427,0.544,0.853,1.087,0.853,1.087c-0.178,0.428-0.849-1.3-0.697-0.018
	c0.583,0.583,1.793,1.742,2.496,2.157l-0.088,0.003c0,0,0.595,1.042,1.19,2.085c0.297,0.52,0.593,1.041,0.815,1.431
	c0.076,0.121,0.14,0.222,0.197,0.314c-0.349-0.454-0.659-0.334-0.322,0.359l2.15,2.391c-0.746-0.673-0.627,0.393-0.058,1.711
	c1.898,3.647,4.107,1.174,4.843,4.429c-0.24-0.385-0.413-0.352-0.658-0.741l0.464,1.638c0.6-0.327,1.252-0.022,1.93,0.592
	c0.713,0.589,1.462,1.484,2.21,2.382c1.495,1.794,3.145,3.463,4.243,2.698c0.65,2.404-0.373,0.581-3.25-0.793l0.999,2.343
	c-0.726-0.68-1.11-1.441-2.007-2.07c0.62,1.569,1.68,2.737,2.84,3.533c1.175,0.787,2.377,1.269,3.22,1.641
	c0.578,1.14-2.161,0.783,0.688,2.889c3.928,3.015,0.692-2.081,3.03-0.29c0,0,0.136,0.629,0.309,1.229
	c0.169,0.611,0.338,1.221,0.338,1.221c0.888,0.414,1.642,0.88,2.312,1.385c0.685,0.486,1.306,0.988,1.878,1.525
	c0.576,0.532,1.11,1.091,1.658,1.638c0.567,0.523,1.141,1.045,1.762,1.541c0.65,0.325,1.019,0.409,1.248,0.385
	c1.2,1.227,2.918,1.847,4.484,2.446c1.613,0.531,3.137,0.951,4.111,1.785c-0.664-0.02,0.85,1.452,0.975,1.886
	c0,0,1.117,0.328,2.235,0.657c0.551,0.174,1.12,0.306,1.544,0.406c0.423,0.102,0.706,0.169,0.706,0.169
	c-1.994-0.483-2.26,0.249-2.94,0.788c1.33,0.587,2.161,0.419,3.09,0.742c-0.662,0.014-1.342,0.026-0.792,0.672
	c0,0,1.245,0.197,2.49,0.393c1.251,0.138,2.501,0.276,2.501,0.276c-0.214-0.232-0.709-0.483-1.126-0.686
	c1.132,0.424,3.695,0.947,5.123,2.071c-0.245,0.245-0.904,0.33-1.151,0.578c-1.089-1.278-2.085-0.932-3.025-0.631
	c3.19,1.101,0.699,0.521,2.035,1.617c2.292,0.742,3.541,0.036,3.164-0.81c1.205,0.592,2.017,0.948,2.873,1.175
	c0.855,0.228,1.755,0.337,3.161,0.301l-0.773,0.928c0,0,0.156,0.022,0.392,0.055c0.238,0.021,0.554,0.05,0.871,0.078
	c0.631,0.057,1.263,0.114,1.263,0.114l-2.313,0.84c2.289,0.911,2.62,0.505,3.006,0.095c0.194-0.205,0.405-0.41,0.883-0.451
	c0.476-0.029,1.222,0.08,2.511,0.453l-0.162,0.951c2.126-0.011,3.042-1.443,4.462-0.124c2.042-0.329-3.161-1.773,1.461-1.386
	c0.744,0.605,2.459,1.194,3.787,1.457c1.415-0.311-0.706-1.092-1.766-1.171c6.681,0.167,4.011,3.662,10.354,2.521
	c-1.093-0.318-0.635-0.796-0.556-1.174c0.08-0.371-0.206-0.651-2.738-0.708c2.404-0.455,4.79,1.394,7.301,0.292l-1.609,1.27
	c0.925,0.004,1.942-0.465,2.427-0.672l-0.154,0.964c1.534-0.955,2.999-0.861,4.323-0.836c1.312-0.034,2.476-0.112,3.252-1.31
	c-0.528,0.932,0.051,0.833,0.931,0.565c0.879-0.271,2.028-0.801,2.703-0.572c-0.585,0.411-1.342,0.698-2.145,0.922
	c-0.81,0.188-1.668,0.299-2.453,0.421c-1.57,0.249-2.857,0.484-2.962,1.266c1.278,0.394,2.275-0.569,3.509-0.239
	c-0.792,0.337-1.948,0.907-2.233,1.266c2.083,0.173,3.675-0.222,4.992-0.86c1.321-0.645,2.393-1.412,3.559-1.83l-4.206,1.123
	c0.097-1.625,1.881-0.612,2.846-2.045c0.566,0.114,1.083,0.109,1.564,0.032c0.477-0.098,0.919-0.26,1.345-0.428
	c0.854-0.337,1.642-0.701,2.556-0.643c-0.453,0.095-0.447,0.253-0.903,0.348c0.568-0.136,1.095-0.219,1.586-0.266
	c0.485-0.069,0.936-0.095,1.358-0.092c0.843,0.007,1.571,0.133,2.219,0.285c1.302,0.321,2.27,0.678,3.181,0.39
	c0.92-0.206,2.16-0.789,2.969-1.364c0.798-0.609,1.179-1.172,0.469-1.252c0.622-0.498-0.78,0.244-2.166,0.59
	c-1.379,0.378-2.659,0.511-1.717-0.892c1.641,0.698,2.906,0.059,4.427-0.913c0.765-0.479,1.618-0.987,2.636-1.462
	c1.009-0.501,2.198-0.929,3.703-1.164c-1.99,1.822,1.959,0.579,0.12,2.109c1.263-0.655,1.844-1.143,2.238-1.558
	c0.39-0.421,0.578-0.804,0.98-1.387l1.101,0.269c1.25-1.576,1.215-2.053,1.482-2.497c0.242-0.475,0.785-0.916,2.876-2.728
	c-1.248,1.489,2.426-0.282,1.523,0.92c1.32-0.792,2.481-1.768,3.12-2.807l-0.105,0.205c2.172-1.769,3.236-2.244,4.185-2.793
	c0.481-0.265,0.942-0.532,1.503-0.97c0.567-0.43,1.222-1.046,2.041-2.052l-0.672-0.01c1.052-1.328,2.304-2.571,3.521-3.932
	c0.622-0.666,1.266-1.327,1.924-1.985c0.633-0.683,1.271-1.372,1.91-2.062c1.321-1.34,2.511-2.809,3.715-4.205
	c1.165-1.428,2.209-2.9,3.148-4.323c0,0-0.436,0.423-0.879,0.836c-0.301,0.282-0.591,0.554-0.752,0.705
	c0.328-0.356,0.861-1.228,1.443-2.221c0.665-1.142,1.473-2.381,2.376-3.045c-0.21,0.368-0.469,1.077-0.747,1.365
	c0.428,0.228,1.574,0.014,2.563-1.321l-0.296-0.954l0.857-0.239c1.368-2.109-1.321,0.029,0.039-2.067
	c0.676-0.01,1.346-0.608,2.043-1.498c0.679-0.899,1.451-2.051,2.078-3.305c0.645-1.245,1.342-2.488,1.959-3.536
	c0.613-1.05,1.246-1.859,1.914-2.166c-0.741-2.207-2.184,4.278-2.707,1.948c0.528-0.594,0.939-0.782,1.731-2.225l-1.097,0.128
	c0.935-1.653,1.631-3.097,2.302-4.387c0.695-1.281,1.233-2.457,1.75-3.617c0.523-1.158,1.031-2.3,1.428-3.591
	c0.4-1.289,0.89-2.672,1.186-4.352l0.136,0.315c0.897-2.283,1.063-3.61,0.416-4.832c0.525-0.415,0.44,1.354,0.99,0.498
	c-0.814-2.342,0.017-4.324,0.751-6.189c0.384-0.925,0.804-1.804,1.009-2.63c0.181-0.828,0.184-1.599-0.189-2.286
	c0.942,0.248,1.976-1.011,2.941-2.066c0.932-1.05,1.767-1.893,2.487-0.626l-0.18-1.864c0.604,0.321,0.639,1.791,0.525,3.309
	c-0.099,1.52-0.197,3.093,0.42,3.695c0,0-0.096,0.364-0.291,0.902c-0.193,0.536-0.45,1.25-0.708,1.964
	C201.793,118.062,201.537,118.77,201.344,119.3z M134.742,7.155c0.032-0.01,0.057-0.013,0.094-0.018
	C133.754,6.58,133.218,6.242,134.742,7.155z M34.497,29.285c-0.044-0.125-0.055-0.263-0.049-0.406
	C33.98,29.308,34.321,29.151,34.497,29.285z M7.092,82.509c0.574-0.837,0.895-1.611,0.733-2.211
	C7.367,81.067,7.175,81.824,7.092,82.509z M13.455,138.112c0.171-0.342-0.018-0.783-0.308-1.214
	c-0.266-0.44-0.629-0.873-0.839-1.176C12.381,136.976,12.118,137.757,13.455,138.112z M124.957,203.969l0.737,0.088
	C126.051,203.688,126.417,203.346,124.957,203.969z M18.667,149.676c0.123,0.196,0.201,0.321,0.201,0.321
	C18.802,149.865,18.734,149.763,18.667,149.676z M174.922,162.25c-0.076,0.071-0.131,0.123-0.131,0.123
	C174.829,162.344,174.873,162.302,174.922,162.25z M7.724,86.857c-0.196,0.169-0.382,0.192-0.569,0.206
	C7.265,87.372,7.448,87.41,7.724,86.857z M48.411,181.238l0.083,0.073c0.082-0.012,0.142-0.042,0.189-0.079L48.411,181.238z
	 M84.821,11.526c-0.693-0.017-1.1-0.124-1.383-0.259C83.446,11.506,83.788,11.647,84.821,11.526z M155.46,16.156
	c0.066-0.191-0.081-0.609,0.292-0.462c-0.198-0.101-0.515-0.258-0.857-0.402c-0.537-0.237-1.074-0.474-1.074-0.474
	C154.82,15.342,155.068,15.712,155.46,16.156z M155.953,15.798c-0.048-0.029-0.083-0.044-0.122-0.064
	C155.903,15.772,155.953,15.798,155.953,15.798z M155.752,15.695c0.026,0.013,0.058,0.029,0.079,0.04
	C155.805,15.722,155.774,15.703,155.752,15.695z M168.002,32.432c0.313,0.135,0.502,0.462,0.815,0.593l0.244-0.387
	C168.041,31.706,167.105,31.313,168.002,32.432z M156.032,19.657c-0.302,0.798,1.075,1.263,2.431,2.082
	c-0.079-0.053-0.156-0.099-0.228-0.162C159.268,20.908,157.667,20.227,156.032,19.657z M158.777,21.929
	c0.419,0.251,0.837,0.522,1.202,0.83C160.397,22.497,159.551,22.337,158.777,21.929z M142.5,9.995
	c0.615,0.507,0.86-0.751,1.124-0.268c0.606-0.293-0.703-0.542-1.639-0.553C141.042,9.179,140.479,9.384,142.5,9.995z
	 M155.633,22.577l0.084-1.136l-1.173,0.207L155.633,22.577z M145.414,15.822l2.082,1.378c0.045-0.166,0.372-0.109,0.753,0.002
	C146.903,16.475,145.495,15.53,145.414,15.822z M150.073,18.043c-0.383-0.201-1.197-0.654-1.824-0.841
	C148.946,17.592,149.604,17.969,150.073,18.043z M151.656,20.251c0.505,0.357,0.979,0.762,0.979,0.762l-0.506-0.568l-1.472-0.931
	C150.658,19.514,151.157,19.883,151.656,20.251z M120.233,7.065L117.51,6.87c-0.326,0.291,0.362,0.627,1.374,0.669
	C119.562,7.417,120.579,7.464,120.233,7.065z M126.155,11.739l1.323-0.123c-0.632-0.396-0.619-0.625-0.923-1.054L126.155,11.739z
	 M119.286,10.903c0.324-0.308,2.966-0.072,0.649-0.81C119.601,10.384,116.014,10.399,119.286,10.903z M80.834,8.793l-0.518-1.971
	l-0.142,2.139L80.834,8.793z M52.812,24.333c0.354-0.801-2.166,0.771-1.764,0.031c-1.286,1.429-2.248,1.703-0.805,2.37
	C53.045,25.524,50.166,25.273,52.812,24.333z M51.048,24.363c0.207-0.228,0.42-0.481,0.633-0.774
	C51.295,23.988,51.134,24.207,51.048,24.363z M204.397,110.589c0,0,0.161-0.53,0.27-1.065c0.12-0.535,0.24-1.07,0.24-1.07
	l-0.72,1.361L204.397,110.589z M204.333,105.951l-1.143-1.289c0.046,0.479,0.135,1.413-0.167,1.773L204.333,105.951z
	 M12.892,131.459l0.292-1.644l-0.34-0.054C12.599,130.138,12.698,130.578,12.892,131.459z M22.858,153.844l-0.221-0.392
	l-0.537,1.336L22.858,153.844z M35.567,167.911c0.119,0.141,0.258,0.276,0.399,0.409C35.848,168.18,35.718,168.042,35.567,167.911z
	 M37.655,169.786c-0.489-0.497-1.148-0.959-1.689-1.467C36.983,169.517,36.902,170.865,37.655,169.786z" class="color c1"/>
</svg>