<svg version="1.1" id="图层_1" x="0px" y="0px" width="307.5px" height="154.474px" viewBox="0 0 307.5 154.474" enable-background="new 0 0 307.5 154.474" xml:space="preserve" xmlns:xml="http://www.w3.org/XML/1998/namespace" xmlns="http://www.w3.org/2000/svg" xmlns:xlink="http://www.w3.org/1999/xlink">
  <path fill="#11190D" d="M1.5,153.749c0.022-15.981,2.489-31.904,7.427-47.108c4.74-14.595,11.725-28.436,20.603-40.95
	c8.861-12.489,19.629-23.644,31.794-32.945c12.156-9.294,25.717-16.763,40.09-22.016c14.845-5.425,30.514-8.502,46.307-9.114
	c16.05-0.622,32.171,1.256,47.628,5.636c14.807,4.196,28.938,10.666,41.807,19.104c12.759,8.366,24.236,18.657,33.966,30.408
	c9.78,11.811,17.781,25.126,23.585,39.322c5.973,14.609,9.647,30.141,10.846,45.878c0.299,3.921,0.442,7.852,0.447,11.785
	c0.001,0.965,1.501,0.967,1.5,0c-0.022-16.105-2.504-32.184-7.481-47.507c-4.8-14.778-11.863-28.812-20.871-41.472
	c-8.92-12.536-19.695-23.704-31.897-33.075c-12.298-9.444-26.019-16.997-40.575-22.341c-15.022-5.515-30.909-8.621-46.898-9.238
	c-16.175-0.625-32.45,1.276-48.026,5.69c-14.988,4.247-29.318,10.807-42.334,19.366c-12.852,8.451-24.434,18.826-34.229,30.687
	c-9.813,11.883-17.818,25.203-23.688,39.452C5.412,110.092,1.7,125.816,0.463,141.752c-0.31,3.992-0.458,7.994-0.463,11.997
	C-0.001,154.715,1.499,154.716,1.5,153.749L1.5,153.749z" class="color c1"/>
</svg>