<svg version="1.1" id="图层_1" x="0px" y="0px" width="98.287px" height="32.508px" viewBox="0 0 98.287 32.508" enable-background="new 0 0 98.287 32.508" xml:space="preserve" xmlns="http://www.w3.org/2000/svg" xmlns:xlink="http://www.w3.org/1999/xlink" xmlns:xml="http://www.w3.org/XML/1998/namespace">
  <path fill="#39A54A" d="M97.735,13.853l0.402-0.207c-2.347,1.088-15.025,4.774-15.025,4.774
	C21.015,37.364,7.619,18.534,7.619,18.534C1.202,11.764,23.6,0,23.6,0L21.29,0.713C13.269,3.172,1.193,8.142,2.19,15.924h0.078
	c0.001,0.002-0.002-0.004,0,0c0.065,0.512,0.131,0.768,0.25,1.158c0.527,2.029,1.17,3.893,2.454,5.385l0.812,0.678l0.289,0.482
	c3.707,3.588,8.633,5.402,9.846,5.812l7.652,1.636c5.237,0.74,13.086,1.246,22.98,0.096c5.716-0.707,10.925-2.279,17.718-3.979
	c11.127-2.777,24.497-7.882,34.02-13.623C98.287,13.567,98.093,13.671,97.735,13.853z" class="color c1"/>
  <path fill="#90C242" d="M62.233,26.513c-3.276,0.681-6.692,1.241-10.19,1.655c-1.474,0.222-3.198,0.395-5.214,0.504
	c-0.04,0.004-0.076,0.004-0.116,0.008c-0.031,0.001-0.063,0.007-0.095,0.009c-0.187,0.009-0.373,0.019-0.56,0.026l-0.001,0.009
	c-2.851,0.196-5.47,0.293-7.88,0.312c-7.528,0.2-11.735-0.035-13.984-0.283l0,0h-0.001c-1.265-0.14-1.909-0.283-2.173-0.353
	l-2.113-0.343c-6.242-1.096-10.344-3.542-12.858-5.688c-3.499-3.27-3.989-5.729-3.986-6.872C3.632,7.227,23.6,0,23.6,0l-4.096,0.855
	C11.474,3.292-0.991,8.276,0.063,16.167l-0.002-0.001c0.001,0.002,0.001,0.004,0.001,0.007c0.056,0.414,0.157,0.843,0.29,1.277
	c2.133,8.082,12.121,11.864,13.926,12.487l7.688,1.707c5.262,0.787,13.141,1.351,23.062,0.251c5.729-0.68,12.297-1.741,19.1-3.417
	c11.148-2.74,24.24-7.872,34.012-14.833C98.14,13.646,81.942,22.393,62.233,26.513z" class="color c2"/>
</svg>