<svg version="1.1" id="图层_1" x="0px" y="0px" width="190.949px" height="191.054px" viewBox="0 0 190.949 191.054" enable-background="new 0 0 190.949 191.054" xml:space="preserve" xmlns="http://www.w3.org/2000/svg" xmlns:xlink="http://www.w3.org/1999/xlink" xmlns:xml="http://www.w3.org/XML/1998/namespace">
  <path fill="#383633" d="M100.808,191.054c-1.402,0-2.82-0.157-4.215-0.466c-2.207-0.486-3.987-1.486-5.708-2.453
	c-1.879-1.055-3.654-2.052-5.817-2.24c-0.445-0.037-0.889-0.129-1.32-0.273c-0.41,0.019-0.835-0.01-1.242-0.082
	c-0.486-0.085-0.98-0.126-1.5-0.126c-1.571,0-3.084,0.391-4.687,0.804c-1.908,0.493-3.894,1.005-6.154,0.91
	c-1.965-0.08-3.818-0.436-5.662-1.085c-1.797-0.6-3.526-1.48-5.114-2.608c-1.841-1.313-3.087-2.928-4.292-4.489
	c-1.318-1.708-2.563-3.321-4.482-4.341c-0.402-0.211-0.774-0.47-1.108-0.769c-0.379-0.141-0.748-0.325-1.099-0.551
	c-1.83-1.183-3.845-1.484-5.978-1.805c-1.953-0.293-3.973-0.596-6.017-1.567c-1.752-0.833-3.363-1.913-4.787-3.212
	c-1.427-1.263-2.672-2.749-3.685-4.401c-1.18-1.926-1.697-3.898-2.196-5.808c-0.546-2.087-1.063-4.059-2.43-5.747
	c-0.284-0.351-0.525-0.733-0.718-1.141c-0.293-0.277-0.56-0.589-0.795-0.931c-1.226-1.811-2.96-2.876-4.797-4.004
	c-1.682-1.033-3.422-2.102-4.924-3.796c-1.286-1.446-2.346-3.07-3.15-4.825c-0.819-1.709-1.387-3.565-1.674-5.492
	c-0.334-2.234-0.038-4.252,0.248-6.203c0.313-2.136,0.609-4.152,0.009-6.242c-0.125-0.441-0.196-0.887-0.215-1.333
	c-0.164-0.377-0.287-0.769-0.368-1.166c-0.42-2.145-1.601-3.804-2.85-5.56c-1.145-1.608-2.329-3.271-3.049-5.418
	c-0.616-1.836-0.956-3.744-1.011-5.672c-0.087-1.896,0.117-3.826,0.608-5.713c0.564-2.187,1.626-3.93,2.654-5.616
	c1.122-1.841,2.182-3.58,2.446-5.736c0.066-0.521,0.355-2.123,0.443-2.538c0.447-2.127,0.01-4.116-0.454-6.222
	c-0.424-1.928-0.863-3.921-0.689-6.178c0.151-1.96,0.572-3.798,1.287-5.619c0.671-1.79,1.613-3.485,2.791-5.017
	c1.376-1.795,3.037-2.985,4.644-4.137c1.752-1.255,3.407-2.441,4.493-4.32c0.226-0.394,0.497-0.758,0.806-1.084
	c0.16-0.38,0.356-0.736,0.596-1.079c1.243-1.781,1.616-3.781,2.011-5.9c0.362-1.941,0.736-3.948,1.78-5.958
	c0.888-1.716,2.027-3.288,3.384-4.669c1.316-1.394,2.804-2.555,4.528-3.528c1.967-1.112,3.958-1.558,5.884-1.989
	c2.104-0.471,4.093-0.916,5.828-2.224c0.369-0.277,0.76-0.505,1.168-0.683c0.293-0.288,0.615-0.54,0.975-0.763
	c1.835-1.15,2.96-2.846,4.151-4.642c1.092-1.646,2.221-3.347,3.968-4.789c1.5-1.236,3.16-2.237,4.935-2.974
	c1.764-0.768,3.587-1.255,5.551-1.477c0.494-0.057,1.008-0.085,1.529-0.085c1.654,0,3.188,0.281,4.67,0.553
	c1.383,0.253,2.689,0.493,4.011,0.493c0.786,0,1.511-0.085,2.217-0.261c0.441-0.109,0.89-0.165,1.336-0.167
	c0.38-0.151,0.779-0.26,1.191-0.327c2.148-0.342,3.848-1.463,5.648-2.65c1.648-1.087,3.353-2.211,5.521-2.854
	C91.736,0.272,93.603,0,95.477,0l0.163,0l0.138,0c1.876,0,3.741,0.272,5.544,0.81c2.169,0.642,3.874,1.767,5.522,2.855
	c1.554,1.025,3.024,1.995,4.763,2.46c1.741,0.117,3.378-0.271,5.137-0.687c1.915-0.452,3.915-0.925,6.166-0.78
	c1.959,0.122,3.804,0.517,5.64,1.206c1.801,0.645,3.509,1.563,5.057,2.72c1.813,1.348,3.028,2.991,4.204,4.58
	c1.064,1.44,2.072,2.803,3.455,3.829c1.541,0.648,3.184,0.839,4.919,1.042c1.963,0.229,3.992,0.465,6.065,1.368
	c1.813,0.79,3.413,1.789,4.893,3.055c1.479,1.222,2.738,2.626,3.828,4.275c1.247,1.887,1.829,3.845,2.391,5.738
	c0.614,2.067,1.194,4.02,2.617,5.661c0.178,0.208,0.329,0.407,0.462,0.609c0.103,0.117,0.203,0.239,0.299,0.369
	c1.293,1.724,3.076,2.704,4.965,3.741c1.732,0.952,3.524,1.937,5.107,3.559c1.377,1.41,2.482,2.938,3.376,4.671
	c0.899,1.667,1.555,3.494,1.935,5.405c0.441,2.217,0.242,4.248,0.05,6.211c-0.211,2.147-0.41,4.174,0.288,6.232
	c0.148,0.436,0.243,0.882,0.283,1.332c0.185,0.372,0.329,0.767,0.431,1.18c0.52,2.109,1.777,3.71,3.109,5.404
	c1.221,1.553,2.482,3.159,3.303,5.269c0.716,1.828,1.136,3.667,1.284,5.621c0.175,1.917,0.065,3.8-0.338,5.733
	c-0.46,2.212-1.438,4.002-2.384,5.735c-1.033,1.893-2.01,3.682-2.171,5.849c-0.063,0.822-0.414,3.377-0.543,4.096
	c-0.382,2.137,0.116,4.109,0.645,6.197c0.484,1.915,0.984,3.896,0.877,6.159c-0.094,1.971-0.458,3.821-1.115,5.656
	c-0.607,1.792-1.498,3.516-2.639,5.1c-1.319,1.835-2.942,3.074-4.512,4.273c-1.714,1.309-3.332,2.544-4.36,4.456
	c-0.146,0.274-0.315,0.536-0.514,0.79c-0.104,0.225-0.224,0.443-0.356,0.652c-1.172,1.832-1.464,3.847-1.774,5.979
	c-0.283,1.954-0.577,3.976-1.54,6.025c-0.823,1.752-1.896,3.367-3.191,4.801c-1.264,1.444-2.702,2.663-4.382,3.707
	c-1.923,1.193-3.895,1.718-5.802,2.226c-2.084,0.555-4.053,1.079-5.735,2.457c-0.129,0.104-0.258,0.197-0.386,0.284
	c-1.41,1.226-2.304,2.807-3.249,4.478c-0.972,1.721-1.978,3.499-3.617,5.061c-1.423,1.354-2.965,2.44-4.716,3.317
	c-1.687,0.883-3.521,1.515-5.429,1.867c-0.834,0.155-1.7,0.232-2.644,0.232l0,0c-1.237,0-2.424-0.132-3.57-0.259
	c-1.098-0.121-2.134-0.235-3.17-0.235c-1.149,0-2.122,0.143-3.061,0.448c-0.429,0.14-0.871,0.228-1.32,0.263
	c-0.374,0.18-0.768,0.317-1.172,0.411c-2.111,0.493-3.727,1.732-5.438,3.044c-1.566,1.202-3.187,2.445-5.306,3.242
	c-1.814,0.684-3.71,1.092-5.637,1.214C101.822,191.034,101.311,191.054,100.808,191.054z M84.182,182.571l0.35,0.144
	c0.26,0.106,0.519,0.169,0.79,0.191c2.814,0.245,4.958,1.449,7.032,2.614c1.601,0.898,3.114,1.748,4.887,2.139
	c1.609,0.357,3.195,0.476,4.868,0.344c1.676-0.106,3.235-0.442,4.793-1.029c1.702-0.641,3.079-1.696,4.537-2.814
	c1.887-1.448,3.839-2.944,6.583-3.587c0.257-0.059,0.489-0.149,0.716-0.277l0.335-0.188l0.385-0.005
	c0.279-0.003,0.544-0.047,0.807-0.133c1.229-0.4,2.535-0.596,3.99-0.596c1.201,0,2.369,0.129,3.499,0.254
	c1.115,0.123,2.169,0.24,3.241,0.24l0,0c0.757,0,1.441-0.06,2.095-0.183c1.616-0.298,3.166-0.832,4.61-1.587
	c1.504-0.754,2.81-1.673,4.014-2.82c1.317-1.254,2.171-2.764,3.075-4.363c1.045-1.849,2.125-3.76,3.976-5.337l0.138-0.104
	c0.079-0.053,0.161-0.108,0.238-0.171c2.179-1.784,4.558-2.417,6.857-3.029c1.773-0.473,3.448-0.918,4.991-1.875
	c1.424-0.885,2.642-1.916,3.723-3.151c1.127-1.249,2.012-2.579,2.719-4.084c0.772-1.646,1.022-3.363,1.286-5.182
	c0.342-2.354,0.695-4.787,2.214-7.161c0.082-0.129,0.151-0.265,0.207-0.399l0.09-0.217l0.151-0.18
	c0.122-0.145,0.222-0.29,0.305-0.446c1.34-2.49,3.295-3.983,5.186-5.428c1.459-1.114,2.838-2.167,3.898-3.642
	c0.98-1.361,1.713-2.778,2.24-4.334c0.563-1.575,0.872-3.142,0.952-4.812c0.086-1.817-0.34-3.5-0.79-5.281
	c-0.582-2.305-1.185-4.688-0.688-7.461c0.122-0.682,0.454-3.14,0.505-3.794c0.209-2.81,1.389-4.971,2.529-7.06
	c0.879-1.611,1.71-3.132,2.079-4.909c0.342-1.639,0.436-3.232,0.285-4.871c-0.127-1.676-0.482-3.232-1.088-4.781
	c-0.661-1.697-1.732-3.062-2.868-4.506c-1.469-1.87-2.988-3.803-3.662-6.54c-0.064-0.26-0.162-0.501-0.29-0.719l-0.199-0.339
	l-0.008-0.394c-0.005-0.275-0.053-0.54-0.145-0.812c-0.908-2.672-0.667-5.122-0.435-7.491c0.18-1.827,0.35-3.552-0.005-5.333
	c-0.327-1.64-0.865-3.142-1.646-4.591c-0.768-1.488-1.702-2.781-2.87-3.975c-1.271-1.304-2.793-2.14-4.404-3.025
	c-2.085-1.145-4.239-2.329-5.93-4.583c-0.07-0.096-0.138-0.171-0.204-0.244l-0.165-0.221c-0.073-0.119-0.159-0.231-0.254-0.342
	c-1.843-2.125-2.543-4.484-3.221-6.766c-0.523-1.76-1.018-3.423-2.019-4.938c-0.924-1.397-1.989-2.586-3.256-3.633
	c-1.27-1.086-2.624-1.932-4.159-2.6c-1.666-0.726-3.39-0.926-5.215-1.139c-1.932-0.225-3.929-0.458-5.925-1.338l-0.267-0.152
	c-1.834-1.311-3.062-2.971-4.248-4.576c-1.094-1.478-2.126-2.874-3.585-3.959c-1.33-0.994-2.734-1.749-4.297-2.308
	c-1.574-0.591-3.136-0.925-4.794-1.028c-1.84-0.118-3.498,0.283-5.289,0.706c-1.938,0.458-3.97,0.931-6.196,0.748l-0.244-0.041
	c-2.285-0.577-4.072-1.756-5.8-2.896c-1.534-1.011-2.982-1.967-4.726-2.483C98.939,3.23,97.363,3,95.777,3L95.64,3l-0.163,0
	c-1.606,0-3.142,0.224-4.694,0.686c-1.743,0.517-3.19,1.472-4.724,2.483c-1.986,1.31-4.04,2.665-6.825,3.108
	c-0.258,0.042-0.496,0.115-0.723,0.224L78.158,9.67l-0.39-0.024C77.5,9.63,77.223,9.654,76.953,9.721
	c-0.943,0.234-1.905,0.349-2.938,0.349c-1.594,0-3.098-0.275-4.552-0.542c-1.413-0.259-2.748-0.504-4.129-0.504
	c-0.413,0-0.802,0.021-1.189,0.066c-1.664,0.188-3.207,0.6-4.716,1.257c-1.545,0.642-2.911,1.465-4.199,2.527
	c-1.402,1.158-2.362,2.603-3.377,4.134c-1.314,1.981-2.674,4.03-5.063,5.528c-0.227,0.141-0.417,0.3-0.585,0.489l-0.256,0.287
	l-0.363,0.129c-0.254,0.09-0.491,0.219-0.724,0.394c-2.25,1.696-4.652,2.233-6.975,2.753c-1.791,0.401-3.482,0.78-5.063,1.673
	c-1.459,0.824-2.716,1.804-3.843,2.998c-1.167,1.189-2.129,2.517-2.881,3.969c-0.84,1.616-1.158,3.321-1.494,5.127
	c-0.436,2.337-0.887,4.755-2.5,7.067c-0.151,0.217-0.267,0.444-0.354,0.694l-0.124,0.356l-0.278,0.255
	c-0.196,0.18-0.366,0.394-0.504,0.636c-1.413,2.444-3.413,3.877-5.346,5.263c-1.494,1.071-2.905,2.082-4.012,3.525
	c-1.012,1.316-1.787,2.71-2.37,4.265c-0.613,1.561-0.969,3.115-1.096,4.773c-0.14,1.814,0.233,3.509,0.628,5.303
	c0.511,2.323,1.04,4.726,0.459,7.485c-0.08,0.381-0.352,1.902-0.402,2.292c-0.341,2.792-1.622,4.893-2.86,6.925
	c-0.956,1.568-1.858,3.048-2.312,4.807c-0.422,1.621-0.59,3.206-0.515,4.848c0.048,1.682,0.328,3.253,0.857,4.83
	c0.579,1.724,1.584,3.137,2.649,4.633c1.379,1.938,2.806,3.942,3.348,6.711c0.05,0.246,0.136,0.49,0.26,0.734l0.171,0.337
	l-0.009,0.378c-0.006,0.272,0.029,0.548,0.104,0.817c0.778,2.704,0.42,5.141,0.074,7.498c-0.266,1.814-0.518,3.529-0.25,5.324
	c0.247,1.654,0.713,3.179,1.424,4.662c0.701,1.529,1.573,2.865,2.677,4.107c1.208,1.361,2.686,2.27,4.25,3.23
	c2.027,1.245,4.123,2.532,5.705,4.868c0.147,0.214,0.318,0.401,0.513,0.563l0.3,0.247l0.143,0.361
	c0.102,0.259,0.236,0.489,0.411,0.704c1.775,2.191,2.398,4.573,3.001,6.876c0.465,1.776,0.904,3.453,1.852,5
	c0.857,1.399,1.911,2.656,3.131,3.737c1.239,1.129,2.564,2.019,4.07,2.734c1.642,0.779,3.357,1.037,5.174,1.31
	c2.354,0.354,4.788,0.718,7.156,2.249c0.223,0.143,0.451,0.248,0.69,0.318l0.382,0.111l0.276,0.285
	c0.184,0.19,0.393,0.347,0.638,0.476c2.496,1.326,4,3.274,5.454,5.16c1.121,1.452,2.18,2.824,3.657,3.877
	c1.363,0.969,2.786,1.693,4.348,2.215c1.582,0.558,3.148,0.857,4.813,0.925c1.851,0.074,3.497-0.356,5.279-0.816
	c1.713-0.442,3.484-0.899,5.437-0.899c0.693,0,1.355,0.056,2.022,0.172c0.283,0.05,0.532,0.051,0.779,0.024L84.182,182.571z" class="color c1"/>
</svg>