<svg version="1.1" id="图层_1" x="0px" y="0px" width="140.003px" height="57.136px" viewBox="0 0 140.003 57.136" enable-background="new 0 0 140.003 57.136" xml:space="preserve" xmlns="http://www.w3.org/2000/svg" xmlns:xlink="http://www.w3.org/1999/xlink" xmlns:xml="http://www.w3.org/XML/1998/namespace">
  <path fill="#002040" d="M0,55.968c0,0,0.145-0.715,0.415-2.057c0.128-0.668,0.344-1.49,0.595-2.465
	c0.132-0.484,0.245-1.021,0.42-1.566c0.173-0.549,0.357-1.131,0.553-1.746c0.819-2.449,1.882-5.434,3.525-8.68
	c0.405-0.813,0.852-1.639,1.298-2.5c0.458-0.854,0.971-1.709,1.479-2.602c0.517-0.887,1.114-1.752,1.696-2.662
	c0.618-0.883,1.252-1.789,1.919-2.701c1.364-1.8,2.828-3.658,4.478-5.469c0.411-0.452,0.816-0.922,1.257-1.361
	c0.442-0.439,0.889-0.883,1.337-1.329c0.443-0.453,0.909-0.89,1.386-1.321c0.475-0.436,0.952-0.875,1.434-1.316
	c3.933-3.432,8.408-6.77,13.509-9.428c2.523-1.375,5.186-2.599,7.94-3.696c0.692-0.267,1.382-0.547,2.083-0.805
	c0.706-0.243,1.413-0.487,2.123-0.731c0.71-0.249,1.438-0.434,2.163-0.647c0.727-0.205,1.45-0.429,2.189-0.595
	c0.736-0.179,1.476-0.358,2.215-0.538c0.746-0.15,1.494-0.303,2.241-0.454c0.747-0.159,1.502-0.285,2.261-0.394
	c0.758-0.105,1.514-0.242,2.277-0.321C63.839,0.207,66.921,0.04,70.001,0l2.27,0.055c0.369,0.014,0.705,0.01,1.104,0.036
	l1.187,0.076c0.786,0.059,1.598,0.088,2.357,0.174l2.293,0.246c0.762,0.079,1.518,0.214,2.276,0.322
	c0.757,0.115,1.511,0.237,2.259,0.397c0.749,0.15,1.496,0.302,2.242,0.453c0.739,0.18,1.478,0.358,2.214,0.538
	c2.937,0.75,5.813,1.655,8.556,2.782c2.755,1.098,5.418,2.32,7.941,3.694c5.1,2.656,9.568,6.003,13.505,9.429
	c0.48,0.441,0.959,0.88,1.433,1.315c0.477,0.433,0.943,0.868,1.387,1.321c0.449,0.445,0.895,0.889,1.337,1.328
	c0.44,0.439,0.84,0.914,1.254,1.364c1.65,1.81,3.115,3.666,4.479,5.465c0.668,0.913,1.302,1.819,1.92,2.702
	c0.585,0.906,1.179,1.775,1.696,2.66c0.508,0.893,1.021,1.748,1.479,2.602c0.448,0.861,0.894,1.686,1.299,2.498
	c1.646,3.244,2.706,6.23,3.529,8.678c0.196,0.615,0.379,1.197,0.554,1.746c0.174,0.547,0.286,1.078,0.418,1.559
	c0.249,0.971,0.466,1.791,0.597,2.467c0.272,1.348,0.419,2.066,0.419,2.066l-0.504,0.156c0,0-0.231-0.684-0.665-1.965
	c-0.205-0.645-0.512-1.42-0.865-2.336c-0.334-0.922-0.785-1.955-1.287-3.111c-1.036-2.301-2.367-5.066-4.192-8.07
	c-1.819-3.004-4.077-6.273-6.865-9.576c-2.79-3.296-6.113-6.619-9.951-9.744c-3.871-3.079-8.229-6.004-13.067-8.397
	c-2.405-1.225-4.933-2.302-7.538-3.258c-2.599-0.98-5.306-1.752-8.055-2.428c-2.748-0.681-5.573-1.129-8.413-1.488
	c-2.849-0.336-5.709-0.468-8.599-0.495c-2.876,0.029-5.751,0.16-8.598,0.496c-2.842,0.359-5.665,0.808-8.415,1.489
	c-2.748,0.674-5.454,1.447-8.053,2.427c-2.605,0.956-5.135,2.032-7.538,3.258c-4.84,2.394-9.196,5.318-13.067,8.397
	c-3.838,3.124-7.161,6.447-9.953,9.743c-2.787,3.303-5.044,6.574-6.864,9.576c-1.824,3.004-3.156,5.77-4.191,8.07
	c-0.502,1.156-0.953,2.191-1.289,3.109c-0.352,0.912-0.657,1.688-0.863,2.336c-0.437,1.285-0.668,1.971-0.668,1.971L0,55.968z
	 M19.204,56.886c0,0,0.189-0.5,0.544-1.438c0.376-0.924,0.811-2.344,1.66-3.988c0.199-0.418,0.411-0.859,0.629-1.32
	c0.223-0.461,0.436-0.951,0.734-1.428c0.563-0.967,1.171-2.014,1.823-3.131c0.736-1.061,1.521-2.191,2.348-3.383
	c0.455-0.563,0.925-1.141,1.405-1.73c0.237-0.297,0.479-0.596,0.724-0.898c0.243-0.305,0.488-0.611,0.771-0.893
	c0.548-0.578,1.105-1.166,1.673-1.768c0.285-0.299,0.573-0.602,0.862-0.908c0.313-0.281,0.629-0.566,0.946-0.854
	c0.636-0.574,1.282-1.16,1.937-1.754c0.677-0.568,1.405-1.098,2.12-1.662c1.402-1.168,3.024-2.115,4.607-3.184
	c0.813-0.502,1.677-0.94,2.525-1.42c0.427-0.235,0.854-0.473,1.286-0.711c0.438-0.225,0.895-0.415,1.345-0.625
	c0.904-0.41,1.817-0.823,2.735-1.238c0.947-0.346,1.901-0.694,2.86-1.045c0.95-0.382,1.947-0.637,2.941-0.914
	c0.498-0.139,0.997-0.278,1.497-0.418l0.75-0.21c0.254-0.06,0.51-0.103,0.765-0.155c1.022-0.201,2.051-0.403,3.079-0.605
	c0.512-0.12,1.038-0.158,1.559-0.223l1.57-0.183l1.573-0.183c0.524-0.058,1.056-0.05,1.582-0.077l3.173-0.117l3.18,0.117
	c0.531,0.027,1.07,0.02,1.594,0.077l1.565,0.183l1.562,0.182c0.521,0.065,1.043,0.104,1.557,0.224
	c1.028,0.201,2.055,0.403,3.078,0.604c0.255,0.053,0.512,0.095,0.766,0.155l0.75,0.21c0.499,0.141,0.998,0.279,1.495,0.418
	c0.994,0.278,1.992,0.532,2.941,0.915c0.961,0.35,1.914,0.698,2.862,1.044c0.918,0.416,1.83,0.829,2.734,1.238
	c0.449,0.211,0.907,0.4,1.346,0.625c0.43,0.238,0.859,0.476,1.286,0.711c0.849,0.48,1.712,0.919,2.524,1.421
	c1.584,1.069,3.206,2.016,4.607,3.184c0.715,0.563,1.443,1.092,2.119,1.662c0.657,0.594,1.303,1.178,1.938,1.754
	c0.318,0.287,0.634,0.572,0.947,0.854c0.289,0.305,0.577,0.609,0.86,0.908c0.569,0.602,1.127,1.189,1.674,1.768
	c0.282,0.281,0.528,0.588,0.771,0.893c0.244,0.303,0.485,0.602,0.725,0.898c0.48,0.59,0.948,1.168,1.406,1.73
	c0.825,1.191,1.609,2.32,2.348,3.383c0.65,1.117,1.259,2.162,1.822,3.131c0.297,0.475,0.513,0.969,0.733,1.43
	c0.222,0.463,0.432,0.904,0.632,1.324c0.853,1.656,1.282,3.059,1.656,3.98c0.353,0.932,0.541,1.43,0.541,1.43l0.501-0.164
	c0,0-0.09-0.531-0.296-1.533c-0.104-0.502-0.235-1.123-0.387-1.852c-0.086-0.361-0.138-0.768-0.278-1.17
	c-0.129-0.408-0.269-0.84-0.414-1.297c-0.147-0.459-0.303-0.943-0.467-1.451c-0.165-0.51-0.321-1.053-0.562-1.582
	c-0.434-1.084-0.958-2.236-1.513-3.48c-0.649-1.199-1.341-2.475-2.069-3.818c-0.408-0.648-0.854-1.295-1.309-1.963
	c-0.227-0.334-0.457-0.672-0.689-1.014c-0.231-0.346-0.466-0.693-0.738-1.016c-0.53-0.66-1.069-1.336-1.62-2.023
	c-0.278-0.346-0.559-0.691-0.842-1.043c-0.308-0.33-0.618-0.66-0.931-0.994c-0.62-0.678-1.282-1.34-1.947-2.018
	c-0.688-0.652-1.432-1.268-2.164-1.918c-1.438-1.343-3.109-2.471-4.76-3.725c-0.846-0.596-1.746-1.127-2.649-1.681
	c-0.451-0.274-0.905-0.551-1.362-0.828c-0.464-0.264-0.949-0.492-1.427-0.741c-0.963-0.483-1.927-0.995-2.919-1.463
	c-1.02-0.409-2.044-0.821-3.075-1.236c-1.024-0.444-2.098-0.76-3.174-1.097c-0.539-0.163-1.08-0.327-1.622-0.491l-0.815-0.243
	c-0.274-0.071-0.553-0.125-0.829-0.188c-1.112-0.241-2.229-0.483-3.349-0.727c-0.549-0.138-1.151-0.199-1.741-0.284l-1.777-0.221
	l-1.782-0.212c-0.313-0.045-0.554-0.04-0.827-0.057l-0.799-0.036l-3.387-0.149l-3.462,0.15c-0.577,0.035-1.154,0.035-1.729,0.102
	l-1.716,0.211l-1.712,0.214c-0.568,0.075-1.139,0.138-1.698,0.275c-1.118,0.243-2.235,0.485-3.348,0.728
	c-0.276,0.063-0.557,0.116-0.83,0.188l-0.816,0.242c-0.542,0.163-1.083,0.325-1.621,0.488c-1.076,0.337-2.151,0.652-3.176,1.098
	c-1.031,0.415-2.057,0.827-3.074,1.236c-0.995,0.466-1.958,0.977-2.921,1.461c-0.479,0.25-0.963,0.478-1.428,0.742
	c-0.456,0.277-0.91,0.553-1.364,0.829c-0.9,0.553-1.806,1.077-2.648,1.677c-1.651,1.256-3.322,2.384-4.761,3.728
	c-3.038,2.481-5.432,5.338-7.505,8c-0.273,0.32-0.506,0.668-0.738,1.014c-0.231,0.342-0.462,0.68-0.69,1.016
	c-0.451,0.668-0.901,1.313-1.308,1.961c-0.729,1.346-1.419,2.623-2.066,3.822c-0.554,1.244-1.08,2.396-1.515,3.48
	c-0.237,0.527-0.396,1.082-0.565,1.596c-0.165,0.512-0.322,1.002-0.471,1.467c-0.147,0.459-0.286,0.895-0.418,1.305
	c-0.142,0.406-0.187,0.797-0.27,1.156c-0.148,0.719-0.274,1.33-0.377,1.826c-0.2,0.994-0.292,1.529-0.292,1.529L19.204,56.886z
	 M38.063,57.136c0,0,0.128-0.313,0.369-0.902c0.248-0.584,0.559-1.477,1.123-2.498c0.496-1.055,1.248-2.273,2.149-3.637
	c0.495-0.65,0.986-1.369,1.568-2.076c0.302-0.348,0.608-0.703,0.924-1.066c0.312-0.365,0.629-0.742,0.997-1.086
	c0.718-0.705,1.437-1.469,2.287-2.143c0.418-0.348,0.826-0.721,1.269-1.061c0.453-0.328,0.913-0.662,1.38-1
	c0.235-0.166,0.462-0.348,0.709-0.504c0.248-0.152,0.498-0.307,0.749-0.461c0.506-0.307,1.008-0.635,1.533-0.934
	c1.081-0.541,2.148-1.172,3.322-1.625c2.289-1.041,4.798-1.773,7.371-2.328c0.648-0.119,1.299-0.238,1.954-0.357
	c0.654-0.104,1.32-0.152,1.982-0.23l0.995-0.107c0.332-0.023,0.668-0.023,1.002-0.039l2.007-0.066l2.014,0.066
	c0.339,0.014,0.68,0.016,1.015,0.039l0.988,0.107c0.659,0.078,1.318,0.127,1.972,0.229c0.653,0.121,1.304,0.24,1.953,0.359
	c2.574,0.555,5.081,1.287,7.37,2.328c1.174,0.453,2.24,1.084,3.322,1.623c0.525,0.301,1.027,0.627,1.533,0.936
	c0.251,0.154,0.502,0.307,0.75,0.461c0.246,0.156,0.474,0.338,0.708,0.504c0.467,0.338,0.927,0.672,1.379,1
	c0.445,0.34,0.852,0.713,1.269,1.059c0.852,0.676,1.57,1.439,2.288,2.145c0.368,0.344,0.686,0.719,0.997,1.086
	c0.314,0.363,0.623,0.719,0.923,1.066c0.584,0.705,1.074,1.426,1.57,2.076c0.9,1.363,1.65,2.58,2.152,3.645
	c0.567,1.031,0.872,1.906,1.118,2.488c0.239,0.584,0.366,0.895,0.366,0.895l0.496-0.172c0,0-0.029-0.35-0.12-1.006
	c-0.113-0.648-0.176-1.656-0.554-2.846c-0.083-0.305-0.172-0.625-0.262-0.961c-0.048-0.17-0.096-0.344-0.146-0.521
	c-0.062-0.17-0.126-0.346-0.19-0.523c-0.128-0.359-0.267-0.732-0.428-1.115c-0.164-0.377-0.302-0.793-0.506-1.184
	c-0.405-0.783-0.81-1.656-1.312-2.529c-0.258-0.432-0.541-0.863-0.83-1.309c-0.288-0.447-0.583-0.908-0.932-1.338
	c-0.678-0.879-1.392-1.809-2.234-2.668c-0.412-0.441-0.831-0.896-1.285-1.326c-0.467-0.416-0.941-0.838-1.421-1.268
	c-0.244-0.211-0.48-0.439-0.739-0.639c-0.263-0.195-0.527-0.391-0.793-0.588c-0.536-0.389-1.072-0.801-1.633-1.186
	c-0.574-0.363-1.156-0.73-1.755-1.086c-0.591-0.375-1.219-0.688-1.853-1.006c-0.638-0.307-1.264-0.672-1.933-0.938
	c-0.672-0.266-1.347-0.535-2.026-0.803l-0.514-0.201l-0.524-0.168c-0.352-0.111-0.703-0.221-1.057-0.332
	c-0.711-0.211-1.423-0.443-2.156-0.582c-0.731-0.158-1.466-0.314-2.202-0.473c-0.754-0.145-1.564-0.229-2.35-0.322l-1.191-0.133
	c-0.369-0.031-0.685-0.035-1.031-0.055l-2.208-0.1l-2.274,0.1c-0.379,0.021-0.757,0.029-1.135,0.063l-1.129,0.133
	c-0.75,0.096-1.503,0.164-2.242,0.309c-0.737,0.158-1.473,0.314-2.203,0.473c-0.735,0.137-1.444,0.375-2.157,0.578
	c-0.354,0.111-0.706,0.221-1.058,0.332l-0.524,0.168l-0.514,0.201c-0.68,0.27-1.354,0.537-2.026,0.805
	c-0.672,0.262-1.298,0.627-1.936,0.934c-0.633,0.32-1.262,0.631-1.851,1.008c-0.601,0.355-1.186,0.717-1.758,1.084
	c-0.561,0.385-1.097,0.797-1.632,1.188c-0.268,0.197-0.53,0.393-0.794,0.588c-0.261,0.195-0.495,0.428-0.74,0.639
	c-0.48,0.428-0.954,0.852-1.422,1.268c-0.451,0.43-0.874,0.883-1.284,1.324c-0.844,0.863-1.557,1.793-2.236,2.67
	c-0.348,0.432-0.643,0.893-0.93,1.34c-0.288,0.447-0.574,0.877-0.831,1.309c-0.501,0.875-0.904,1.748-1.31,2.531
	c-0.204,0.391-0.342,0.809-0.506,1.188c-0.159,0.381-0.3,0.754-0.427,1.113c-0.065,0.178-0.129,0.354-0.191,0.525
	c-0.05,0.18-0.1,0.357-0.147,0.529c-0.095,0.342-0.186,0.668-0.27,0.979c-0.388,1.221-0.423,2.166-0.536,2.816
	c-0.088,0.648-0.119,1.002-0.117,1.002L38.063,57.136z" class="color c1"/>
</svg>