<svg version="1.1" id="图层_1" x="0px" y="0px" width="226.691px" height="193.397px" viewBox="0 0 226.691 193.397" enable-background="new 0 0 226.691 193.397" xml:space="preserve" xmlns="http://www.w3.org/2000/svg" xmlns:xlink="http://www.w3.org/1999/xlink" xmlns:xml="http://www.w3.org/XML/1998/namespace">
  <g>
    <path fill="#2F6581" d="M191.818,0c0,0,1.46,1.432,4.196,4.116c2.6,2.816,6.513,6.921,10.653,12.826
		c4.158,5.876,8.62,13.501,12.323,22.902c3.728,9.376,6.574,20.581,7.458,33.069c0.402,6.239,0.325,12.785-0.375,19.512
		c-0.698,6.729-2.084,13.623-4.159,20.527c-2.08,6.902-4.884,13.804-8.453,20.505c-3.549,6.711-7.942,13.164-13.015,19.215
		c-0.637,0.756-1.275,1.51-1.916,2.268c-0.657,0.742-1.349,1.456-2.023,2.187c-0.68,0.727-1.363,1.456-2.045,2.185l-0.128,0.138
		l-0.196,0.188l-0.26,0.253l-0.523,0.507l-1.05,1.013l-2.101,2.031c-0.768,0.674-1.537,1.349-2.309,2.025l-2.328,2.022l-2.395,1.887
		c-6.404,5.03-13.446,9.433-20.972,12.991c-15.04,7.149-31.928,10.939-48.848,11.03c-16.92-0.082-33.809-3.88-48.849-11.026
		c-15.072-7.088-28.127-17.652-38.226-29.662c-0.639-0.77-1.309-1.524-1.917-2.301c-0.596-0.781-1.19-1.563-1.783-2.34
		c-0.585-0.785-1.202-1.543-1.755-2.346c-0.551-0.803-1.1-1.605-1.648-2.404c-0.538-0.808-1.116-1.584-1.614-2.41
		c-0.504-0.822-1.008-1.642-1.51-2.461c-1.027-1.623-1.918-3.312-2.816-4.983c-3.568-6.702-6.372-13.606-8.453-20.507
		c-2.075-6.904-3.457-13.802-4.16-20.529c-0.7-6.729-0.776-13.275-0.372-19.516c0.884-12.488,3.729-23.695,7.46-33.069
		c3.705-9.403,8.167-17.028,12.327-22.904c4.142-5.905,8.052-10.006,10.652-12.82c2.74-2.686,4.2-4.118,4.2-4.118
		s-1.35,1.534-3.88,4.406c-2.401,2.978-5.906,7.364-9.657,13.403c-3.746,6.029-7.617,13.773-10.793,23.073
		c-1.539,4.661-2.962,9.697-3.901,15.112c-0.976,5.401-1.685,11.135-1.863,17.139C4.638,79.137,4.96,85.395,5.88,91.78
		c0.914,6.383,2.37,12.906,4.536,19.39c4.287,12.958,11.437,25.794,21.114,36.949c4.91,5.646,10.413,10.818,16.496,15.421
		c0.765,0.568,1.503,1.174,2.292,1.714l2.369,1.619c1.557,1.118,3.219,2.084,4.856,3.094l1.226,0.762
		c0.414,0.247,0.841,0.47,1.261,0.708l2.533,1.403c0.836,0.486,1.711,0.9,2.581,1.326l2.611,1.283
		c14.067,6.591,29.834,10.021,45.595,10.031c15.762,0,31.531-3.438,45.597-10.027c7.022-3.312,13.654-7.312,19.736-11.905
		l2.274-1.726l2.146-1.802l2.136-1.8l2.136-1.996l2.052-1.928l1.953-2.02c0.645-0.676,1.31-1.333,1.938-2.021
		c0.614-0.702,1.224-1.401,1.835-2.099c9.728-11.217,16.849-24.006,21.143-36.983c4.299-12.985,5.934-26.041,5.627-38.039
		c-0.177-6.006-0.89-11.74-1.862-17.141c-0.941-5.415-2.363-10.451-3.905-15.114c-3.178-9.298-7.048-17.044-10.797-23.073
		c-3.753-6.039-7.256-10.422-9.656-13.395C193.171,1.534,191.818,0,191.818,0z" class="color c1"/>
  </g>
</svg>