<svg version="1.1" id="图层_1" x="0px" y="0px" width="220px" height="4px" viewBox="0 0 220 4" enable-background="new 0 0 220 4" xml:space="preserve" xmlns="http://www.w3.org/2000/svg" xmlns:xlink="http://www.w3.org/1999/xlink" xmlns:xml="http://www.w3.org/XML/1998/namespace">
  <path fill="#337A92" d="M0,4h35.959c-0.178-0.123-0.281-0.346-0.293-0.584c-0.018-0.35,0.158-0.662,0.535-0.633
	c0.346,0.025,0.514,0.334,0.561,0.678C36.748,3.688,36.674,3.885,36.529,4h22.297c0.061-0.096,0.182-0.1,0.279,0h74.917
	c-0.15-0.016-0.313-0.129-0.467-0.193c0.092-0.146,0.184-0.295,0.276-0.441c0.18,0.074,0.356,0.146,0.537,0.221
	c-0.091,0.145-0.166,0.387-0.272,0.414h53.817c0.196-0.586,0.676-0.854,1.297-0.852c0.373,0.1,0.599,0.354,0.537,0.725
	c-0.009,0.049-0.031,0.084-0.043,0.127H220V0H0V4z M203.213,1.703c0.066,0.013,0.15,0.15,0.148,0.229
	c-0.002,0.074-0.104,0.147-0.162,0.222c-0.088-0.037-0.225-0.052-0.25-0.114C202.842,1.787,202.949,1.649,203.213,1.703z
	 M141.254,2.487c0.088,0.034,0.225,0.044,0.254,0.104c0.117,0.246,0.016,0.383-0.25,0.338c-0.068-0.014-0.158-0.143-0.158-0.221
	C141.098,2.639,141.199,2.563,141.254,2.487z M67.5,1.083C67.822,1,68.162,0.98,68.494,0.935c0.023,0.332,0.1,0.672,0.061,0.998
	c-0.092,0.772-0.539,1.214-1.342,1.157c-0.473-0.029-0.91-0.281-0.977-0.767C66.113,1.413,66.848,1.252,67.5,1.083z" class="color c1"/>
</svg>