<svg version="1.1" id="图层_1" x="0px" y="0px" width="386.18px" height="24.028px" viewBox="0 0 386.18 24.028" enable-background="new 0 0 386.18 24.028" xml:space="preserve" xmlns="http://www.w3.org/2000/svg" xmlns:xlink="http://www.w3.org/1999/xlink" xmlns:xml="http://www.w3.org/XML/1998/namespace">
  <path fill-rule="evenodd" clip-rule="evenodd" fill="#F2E2CB" d="M384.428,9.488h-133.15c-0.744-2.397-2.98-4.138-5.623-4.138
	c-3.049,0-5.557,2.316-5.855,5.284c-9.068-1.999-17.84-4.297-27.283-5.918c-2.459,2.488-5.844,4.053-7.711,7.133L192.955,0
	l-11.918,11.92c-2.295-2.353-6.387-8.335-9.84-7.203c-6.424,2.101-16.959,3.853-24.961,5.895c-0.629-2.574-2.945-4.486-5.713-4.486
	c-2.643,0-4.879,1.742-5.623,4.139H1.75c-0.967,0-1.75,0.782-1.75,1.75c0,0.967,0.783,1.751,1.75,1.751H134.9
	c0.744,2.396,2.98,4.139,5.623,4.139c2.877,0,5.268-2.065,5.783-4.793c9.082,1.543,18.123,3.13,27.088,4.793
	c2.43-2.051,5.131-3.828,7.797-5.638l11.764,11.763l11.762-11.761c2.615,1.86,5.449,3.503,7.799,5.636
	c8.896-1.914,18.646-2.981,27.512-4.927c0.742,2.404,2.982,4.15,5.627,4.15c2.643,0,4.879-1.74,5.623-4.138h133.15
	c0.967,0,1.752-0.783,1.752-1.75C386.18,10.271,385.395,9.488,384.428,9.488z" class="color c1"/>
</svg>