<svg version="1.1" id="图层_1" x="0px" y="0px" width="164.416px" height="164.415px" viewBox="0 0 164.416 164.415" enable-background="new 0 0 164.416 164.415" xml:space="preserve" xmlns="http://www.w3.org/2000/svg" xmlns:xlink="http://www.w3.org/1999/xlink" xmlns:xml="http://www.w3.org/XML/1998/namespace">
  <path fill="#FFFFFF" d="M140.336,24.078C124.81,8.551,104.168,0,82.209,0S39.606,8.551,24.078,24.078
	C8.551,39.604,0,60.249,0,82.207c0,21.959,8.551,42.604,24.078,58.13c1.271,1.271,2.664,2.557,4.379,4.045
	c10.559,9.156,23.315,15.483,36.895,18.301c5.553,1.149,11.224,1.732,16.857,1.732c0.119,0,0.235-0.005,0.354-0.008l0.289-0.008
	c10.002-0.076,19.762-1.928,29.01-5.5c10.718-4.139,20.296-10.385,28.474-18.563c15.528-15.527,24.08-36.171,24.08-58.13
	C164.416,60.249,155.864,39.606,140.336,24.078z M82.209,4.372c42.918,0,77.836,34.917,77.836,77.835
	c0,31.8-19.951,60.946-49.644,72.528c-9.026,3.521-18.514,5.308-28.192,5.308c-19.109,0-37.504-7.03-51.797-19.801
	c-16.55-14.785-26.041-35.937-26.041-58.035C4.371,39.289,39.289,4.372,82.209,4.372z" class="color c1"/>
</svg>