<svg version="1.1" id="图层_1" x="0px" y="0px" width="196.161px" height="196.163px" viewBox="0 0 196.161 196.163" enable-background="new 0 0 196.161 196.163" xml:space="preserve" xmlns="http://www.w3.org/2000/svg" xmlns:xlink="http://www.w3.org/1999/xlink" xmlns:xml="http://www.w3.org/XML/1998/namespace">
  <path fill="#1FE2B6" d="M98.081,187.625c-49.374,0-89.543-40.17-89.543-89.543c0-49.375,40.169-89.544,89.543-89.544
	c49.375,0,89.543,40.169,89.543,89.544C187.624,147.456,147.456,187.625,98.081,187.625z M98.081,11.483
	c-47.75,0-86.598,38.849-86.598,86.599c0,47.75,38.848,86.598,86.598,86.598s86.598-38.848,86.598-86.598
	C184.679,50.332,145.831,11.483,98.081,11.483z M98.081,196.163C43.999,196.163,0,152.165,0,98.083C0,43.999,43.999,0,98.081,0
	s98.08,43.999,98.08,98.083C196.161,152.165,152.163,196.163,98.081,196.163z M98.081,4.91c-51.375,0-93.172,41.796-93.172,93.172
	c0,51.375,41.797,93.172,93.172,93.172s93.172-41.797,93.172-93.172C191.253,46.706,149.456,4.91,98.081,4.91z" class="color c1"/>
</svg>