<svg version="1.1" id="图层_1" x="0px" y="0px" width="166.6px" height="165.6px" viewBox="0 0 166.6 165.6" enable-background="new 0 0 166.6 165.6" xml:space="preserve" xmlns="http://www.w3.org/2000/svg" xmlns:xlink="http://www.w3.org/1999/xlink" xmlns:xml="http://www.w3.org/XML/1998/namespace">
  <path fill="#FFFFFF" d="M103.4,3.6c-0.5,0-1.5-0.5-2.2-0.5C101.4,2.9,102.8,3.4,103.4,3.6z M80.8,162.2c-0.1,0.1-0.2,0.2-0.3,0.3
	c0.1-0.1,0.1-0.2,0.2-0.3c-2.2,0-4.4-0.2-6.6-0.4c0.2,0.2,0.3,0.5,0.5,0.8c0,0.1,0,0.1,0,0.1c-0.2,0-1.3-0.8-1.6-1
	c-4-0.5-8-1.3-12-2.4c-3-0.9-5.9-1.9-8.7-3.1c-0.6-0.1-1.2-0.1-1.8-0.2c3.3,3.8,8.6,5,13.3,6c2.9,0.6,5.9,1.2,8.7,2.2l4.7,1.3
	c0.4,0,0.8,0,1.2,0.1c0.1-0.9,2.9-2.2,5.9-3.3C83.1,162.2,82,162.2,80.8,162.2z M105.7,5.8c-4.6-1.4-9.3-2.5-14.2-3.1
	c1.3,0,1.8,0.1,3.5,0.4c-0.3-0.1-0.9-0.3-1.7-0.4C94.4,2.6,95.2,3.1,96,3c2.9,0.7,5.7,1.2,11.2,2.7c0-0.1-0.4-0.2-0.7-0.3
	c3.4,0.8,4.3,1.2,8.6,2.9c-1-0.6-3-1.3-4.1-1.8c7.6,2.7,14,6.5,21.3,11.7c-5.4-4.6-13.4-8.8-18.2-10.8c1.1,0.4,1.2,0.4,1.7,0.5
	c0-0.2-2.1-0.8-1.8-1c1,0.5,1.7,0.7,2.4,0.8c-0.1,0.1-0.2,0.2,0.6,0.6c-0.1,0,0.6-0.3,0.4-0.2c-0.2,0.2,0.8,0.3,0.2,0.3
	c0.2,0.3,0.7,0.1,1.2,0.4c-0.7,0,2,1,2.5,1.2c-0.5-0.1,0.5,0.4,1.7,1.1c0.6,0.3,1.4,0.7,2.1,1.1c0.7,0.4,1.3,0.8,1.7,1.1
	c0.5,0.3,1.1,0.7,1.7,1.1c0.6,0.4,1.2,0.8,1.8,1.3c0.6,0.4,1.3,0.9,1.9,1.3c0.6,0.5,1.3,0.9,1.9,1.4c-1.2-1,0.6,0.1-0.4-0.8
	c0.1,0,0.5,0.4,0.8,0.6c-0.4-0.4-1.1-1-2-1.7c4.5,3.1,9.7,7.9,13.7,12.8c-0.1,0.1-0.2,0.2-0.4,0c0.4,0.4,0.8,0.9,1.2,1.4
	s0.8,1.1,1.2,1.7c0.9,1.2,1.8,2.5,2.8,3.5c-0.1-0.6-0.6-1.1-1.5-2.4c1.9,2.7,4.2,5.8,6.1,9.2c0.5,0.8,0.9,1.7,1.4,2.6
	c0.4,0.9,0.9,1.7,1.3,2.6c0.7,1.7,1.5,3.4,2,5.1c-0.2-0.5-0.5-1.1-0.8-1.7c-0.3-0.7-0.7-1.4-1.1-2.2c1.3,3.2,2.8,7.3,4,11.3
	c0.2,0.6,0.3,1.1,0.5,1.6c-0.3,0-0.5-0.1-0.8-0.1c-0.4,0-0.8,0.1-1.2,0.1l0,0c-0.4-0.8-0.8-1.4-1.3-1.9c-0.3-1.1-0.7-2.3-1.1-3.4
	c-3.6-10.3-9.5-20.1-17.5-28.6c0.1,0,0.4,0.3,0.4,0.3c-6.3-6.8-13.8-12.6-22.3-17C114.7,9.2,110.3,7.3,105.7,5.8z M135,18.5
	c0.5,0.3,1.1,0.7,0.9,0.9c0.5,0.5,0.7,0.5,0.7,0.3c-0.5-0.4-0.9-0.8-1.1-1C135.5,18.8,135.2,18.5,135,18.5z M161.9,70.5
	c0.2,0.9,0.3,1.9,0.4,2.8c0.7-0.1,1.3-0.3,1.7-0.7C165.1,71.7,162.8,70.9,161.9,70.5z M7.6,59.5c0.3-0.1,0.5-0.1,0.8-0.2
	c0.6-1.9,1.3-3.9,2.1-5.7c0.3-0.7,0.6-1.5,0.9-2.2c-0.1-0.5-0.3-1-0.7-1.2C10.5,50,10.4,50,10.3,50c-1.1,0-1.1,2.6-1.6,2.6l0,0
	c-0.4,0-0.6-0.5-0.9-0.5c-0.1,0-0.3,0.1-0.5,0.5S7,53.1,6.9,53.1c-0.2,0-0.4-0.1-0.7-0.4c-0.7,1.8-1.4,3.5-2,5.1
	c-0.1,0.6-0.3,1.1-0.4,1.7c0.5,0.1,1.1,0.2,1.6,0.2C6.2,59.7,7,59.6,7.6,59.5z M162.6,66.4c-0.1-0.3-0.4-0.5-0.7-0.5
	s-0.6,0.1-0.9,0.2c0.3,1.4,0.6,2.7,0.8,4.1c0.1-0.1,0.3-0.3,0.4-0.5c0.9-1,0.2-0.9-0.3-1.3C161.6,68.2,162.9,66.9,162.6,66.4z
	 M0.6,74.3c0.1-0.8,0.4-2.1,0.4-3C0.9,71.9,0.5,73.3,0.6,74.3z M165.8,88c0.1,0,0.2,0,0.2,0.3c-0.1,0-0.1,0.8,0,0.8
	C166.1,88,165.8,87,165.8,88z M40.6,151l1.8,0.2c-1.5-0.9-3-1.9-4.5-2.9c-3.5-2.5-6.9-5.2-9.9-8.3C15.7,127.9,7.7,111.8,5.2,95.1
	c-1-6.7-1.1-13.9-0.2-21c0.2-1.4,0.4-2.8,0.7-4.1c-0.3-0.2-0.5-0.5-0.7-0.8c-0.9-1.3-1.2-2.9-0.6-4.4c0.1-0.4,0.3-0.8,0.5-1.1
	c-0.6,0-1.1-0.1-1.6-0.2c-0.1,0.4-0.2,0.8-0.3,1.2c-0.3,1.1-0.6,2.2-0.7,3.2C2.1,67,2.7,65,3.1,63.5c-0.1,0-0.2-0.1-0.4-0.1
	c-0.2,0.6-0.3,1.2-0.5,1.8c-0.6,2.3-1.1,4.6-1.2,7.6c-0.7,4.3-1,11.3-0.1,18.4c0.8,7.1,2.8,14,4.3,18.4c3,8.5,7.2,16.1,11.8,22.5
	c4.4,6.1,9.3,11.1,13.8,14.8c0.1,0,0.2,0.1,0.6,0.5c-0.2-0.2-0.4-0.3-0.6-0.5c-0.1,0-0.1,0-0.3-0.1c1.2,1.1,1.6,1.4,3.1,2.6
	c0.6,0.3,1.4,0.8,2.4,1.5c0.5,0.3,1,0.7,1.6,1s1.1,0.7,1.7,1.1c0.6,0.4,1.2,0.8,1.8,1.1c0.6,0.4,1.3,0.7,1.9,1.1
	c0.6,0.3,1.2,0.7,1.8,1c0.2,0.1,0.5,0.2,0.7,0.4L40.6,151z M165.7,76.3c-0.9,0.5-1.9,0.9-3,1c0.3,3.7,0.3,7.5,0.1,11.3
	c-0.7,10.7-3.6,21.2-8.6,30.6c-4.9,9.5-11.8,17.9-20.1,24.7s-17.9,11.9-28.3,15c-2.4,0.7-4.8,1.3-7.2,1.8c-1.6,0.8-3.3,1.6-4.9,2.3
	l-0.9,0.4c-0.5,0.2-1.2,0.5-2.6,0.9c-0.8,0.3-2.2,0.8-3.6,1.3c6.8-0.3,13.5-1.4,20.1-3.4c19.6-5.9,36.7-19.2,47.6-36.8
	c0.4-0.5,0.6-0.6,1-1.2c2.9-4.7,4.6-10.2,6.8-14.6c0.9-2.7,1.7-5.1,2.4-7.8c0.2-0.1-0.2,1.2-0.1,1.3c0.6-1.4-0.1-1.1,0.3-2.6
	c0.3-0.2,0,1.4,0.3,0.8c0.3-1.2-0.2-0.8-0.2-1.3c0.3-1.4,0.6-3.4,0.8-5.3c0-0.7-0.2,0.8-0.3,0c0-0.6,0-1.2,0.1-1.8
	c0-0.6,0.1-1.3,0.1-1.9c0.1-1.3,0.3-2.7,0.4-4.1c0,0.5,0.4,0.2,0.2-0.2c-0.1-0.1,0-2.8-0.1-3.8c0.2,0,0.2,1.1,0.3,1.5
	c0.1-1.9,0-3.7-0.1-5.3C165.9,77.9,165.8,77,165.7,76.3z M41.2,154.6c-0.2-0.4,0.8,0.4,0.8,0.2c-0.3-0.3-1.4-0.9-1.8-1
	C40.6,154.1,40.5,154.2,41.2,154.6z M166.5,88.6C166.9,87.6,166.4,87,166.5,88.6L166.5,88.6z M91,2.7c-0.4,0.2,1.7,0.4,1,0.2
	C90.9,2.3,86.6,2.4,91,2.7z M1,94.7c-0.1-0.8-0.2-2.2-0.4-2.5C0.7,92.9,0.8,94.3,1,94.7z M10.3,46L10.3,46c0.8,0,1.5,0.2,2.2,0.5
	c0.4,0.2,0.7,0.4,0.9,0.6c0.6-1.2,1.2-2.3,1.9-3.4c1.9-3.2,3.9-6.3,6.2-9.3c2.3-2.9,4.8-5.8,7.5-8.3c2.7-2.6,5.5-5,8.4-7.2
	C44,14,51,10.1,56.3,8.2C59.6,7,63.7,5.8,67.8,5c4.2-0.8,8.4-1.3,12-1.4c3,0,5.5-0.2,7.2-0.6s2.6-1,1.9-1.9c-0.5-0.7-1.8-1-3.5-1.1
	c-0.9-0.1-1.8,0-2.9,0c-0.5,0-1,0-1.5,0c-0.6,0-1.1,0.1-1.7,0.1C75.9,0.2,72,0.2,68.4,0.8c-11.8,2.7-23.8,7.8-34,15.3
	c-10.3,7.4-18.6,17.2-24,27.4C10,44.3,9.5,45.2,9.1,46C9.5,46.1,9.9,46,10.3,46z M0,80.4c0,0,0.1,0,0.1,0.3c0,0.5-0.1,1.7-0.1,2.7
	s0,1.7,0.1,1.1C0,83.3,0.3,80,0,80.4z" class="color c1"/>
</svg>