<svg version="1.1" id="图层_1" x="0px" y="0px" width="156.912px" height="156.912px" viewBox="0 0 156.912 156.912" enable-background="new 0 0 156.912 156.912" xml:space="preserve" xmlns="http://www.w3.org/2000/svg" xmlns:xlink="http://www.w3.org/1999/xlink" xmlns:xml="http://www.w3.org/XML/1998/namespace">
  <path fill="#E200E2" d="M140.037,0H16.874C7.569,0,0,7.57,0,16.875v123.162c0,9.307,7.569,16.875,16.874,16.875h25.359h9.659h53.126
	h9.659h25.359c9.306,0,16.875-7.568,16.875-16.875V16.875C156.912,7.57,149.343,0,140.037,0z M150.34,140.037
	c0,5.68-4.621,10.304-10.303,10.304h-25.359h-9.659H51.893h-9.659H16.874c-5.68,0-10.303-4.624-10.303-10.304V16.875
	c0-5.681,4.623-10.304,10.303-10.304h123.163c5.682,0,10.303,4.623,10.303,10.304V140.037z" class="color c1"/>
</svg>