<svg version="1.1" id="图层_1" x="0px" y="0px" width="346.128px" height="350px" viewBox="0 0 346.128 350" enable-background="new 0 0 346.128 350" xml:space="preserve" xmlns="http://www.w3.org/2000/svg" xmlns:xlink="http://www.w3.org/1999/xlink" xmlns:xml="http://www.w3.org/XML/1998/namespace">
  <path fill="#C19161" d="M173.066,350C93.933,350,24.399,296.592,3.976,220.124c-0.935-3.503-1.755-6.991-2.441-10.373
	c-0.568-2.806-1.083-5.761-1.534-8.81h77.737v7.71H9.177l0.359,1.663c0.779,3.609,1.664,7.154,2.629,10.539
	c20.403,71.502,86.567,121.439,160.901,121.439c74.33,0,140.494-49.938,160.896-121.438c0.965-3.373,1.85-6.918,2.629-10.541
	l0.359-1.663H268.39v-7.71h77.738c-0.451,3.049-0.967,6.004-1.535,8.812c-0.691,3.405-1.512,6.896-2.441,10.371
	C321.728,296.592,252.201,350,173.066,350z M346.128,149.059c-0.451-3.049-0.967-6.004-1.535-8.81
	c-0.691-3.409-1.512-6.897-2.441-10.373C321.728,53.408,252.195,0,173.066,0C93.933,0,24.399,53.408,3.976,129.876
	c-0.935,3.503-1.755,6.991-2.441,10.37c-0.568,2.808-1.083,5.763-1.534,8.813h77.737v-7.71H9.177l0.359-1.663
	c0.779-3.609,1.664-7.155,2.629-10.542C32.568,57.646,98.732,7.708,173.066,7.708c74.33,0,140.494,49.938,160.896,121.439
	c0.965,3.371,1.85,6.917,2.629,10.54l0.359,1.663H268.39v7.71H346.128z" class="color c1"/>
</svg>