<svg version="1.1" id="图层_1" x="0px" y="0px" width="289.982px" height="75.938px" viewBox="0 0 289.982 75.938" enable-background="new 0 0 289.982 75.938" xml:space="preserve" xmlns="http://www.w3.org/2000/svg" xmlns:xlink="http://www.w3.org/1999/xlink" xmlns:xml="http://www.w3.org/XML/1998/namespace">
  <path fill="#484341" d="M3.94,8.998l16.985,3.011c0.091,0.011,0.188,0.024,0.297,0.044c0.649,0.113,1.3,0.222,1.95,0.33
	c0.691,0.114,1.382,0.229,2.071,0.352c1.337,0.236,2.674,0.478,4.011,0.718c2.299,0.413,4.597,0.827,6.898,1.222
	c1.641,0.28,3.284,0.543,4.928,0.806c1.658,0.266,3.315,0.531,4.971,0.814c1.788,0.305,3.573,0.628,5.357,0.95
	c1.772,0.32,3.545,0.641,5.321,0.944c1.72,0.294,3.442,0.571,5.166,0.848c1.654,0.267,3.311,0.531,4.963,0.813l0.518,0.089
	c2.494,0.425,4.988,0.85,7.477,1.306c0.847,0.156,1.693,0.314,2.539,0.479c0.762,0.148,1.526,0.288,2.292,0.429
	c2.536,0.466,5.158,0.946,7.62,1.713c1.043,0.324,2.037,0.702,2.954,1.121c2.634,1.206,4.706,2.771,6.388,4.845l41.815,42.944
	l0.177,0.345h0.163c0.78,0.751,3.222,2.82,6.411,2.82h0.001c2.274,0,4.426-1.034,6.394-3.073l39.081-40.544
	c3.293-3.48,3.799-3.988,4.38-4.497c1.35-1.184,2.858-2.158,4.612-2.979c1.851-0.867,3.981-1.558,6.515-2.112
	c1.279-0.28,2.612-0.481,3.901-0.676c0.799-0.121,1.6-0.242,2.396-0.381c0.823-0.145,1.645-0.29,2.466-0.438l1.979-0.358
	c1.804-0.326,3.606-0.654,5.413-0.964c1.093-0.188,2.19-0.353,3.288-0.517c1.135-0.171,2.27-0.34,3.401-0.535
	c1.667-0.287,3.332-0.592,4.996-0.896c1.623-0.296,3.247-0.593,4.872-0.873c1.111-0.192,2.227-0.36,3.342-0.529
	c1.117-0.169,2.233-0.338,3.347-0.53c1.629-0.28,3.255-0.578,4.88-0.875c1.621-0.297,3.241-0.593,4.865-0.873
	c1.171-0.202,2.348-0.383,3.523-0.563c1.131-0.173,2.263-0.347,3.391-0.539c1.396-0.239,2.788-0.501,4.188-0.766
	c0.824-0.156,1.647-0.313,2.412-0.456l18.174-3.303c2.862-0.53,2.984-2.675,2.95-3.37c-0.127-1.164-0.352-2.312-0.667-3.409
	C289.179,1.416,288.773,0,287.216,0c-0.208,0-0.429,0.024-0.674,0.074c-1.077,0.219-2.268,0.432-3.636,0.652
	c-1.803,0.29-11.954,2.053-16.832,2.9l-2.52,0.438c-1.68,0.29-3.354,0.599-5.031,0.906c-1.609,0.297-3.22,0.593-4.833,0.873
	c-1.091,0.189-2.187,0.354-3.282,0.519c-1.098,0.165-2.195,0.33-3.289,0.52c-1.655,0.285-3.308,0.588-4.959,0.891
	c-1.63,0.298-3.261,0.597-4.895,0.879c-1.052,0.183-2.108,0.342-3.164,0.5c-1.139,0.171-2.276,0.343-3.41,0.542
	c-1.557,0.274-3.109,0.569-4.662,0.864c-1.576,0.299-3.151,0.598-4.729,0.875l-0.604,0.106c-1.116,0.196-2.233,0.393-3.375,0.588
	l-19.25,3.858l-0.118,0.033c-4.072,1.458-7.115,3.154-9.575,5.338c-0.308,0.273-0.603,0.552-0.896,0.847
	c-0.195,0.195-0.385,0.395-0.56,0.585l-37.687,39.475c-1.255,1.313-2.625,1.979-4.072,1.979c-2.159,0.001-3.835-1.479-3.838-1.479
	l0,0l-38.119-39.496c-2.901-3.219-6.732-5.585-11.712-7.232c-2.78-0.918-5.692-1.511-8.509-2.083l-0.967-0.198
	c-1.243-0.254-2.49-0.489-3.739-0.719c-1.277-0.234-2.556-0.461-3.836-0.682l-3.348-0.575c-1.613-0.277-3.229-0.534-4.847-0.792
	c-1.608-0.256-3.217-0.512-4.823-0.787c-1.836-0.315-3.67-0.648-5.503-0.98c-1.799-0.326-3.598-0.652-5.398-0.962
	c-1.662-0.287-3.326-0.555-4.991-0.823c-1.597-0.257-3.192-0.515-4.786-0.787c-1.821-0.313-3.64-0.641-5.459-0.969
	c-1.775-0.319-3.552-0.64-5.329-0.945c-1.292-0.223-4.497-0.789-8.115-1.428c-5.723-1.01-12.21-2.155-14.219-2.488l-0.669-0.11
	C5.688,0.497,4.421,0.289,3.159,0.054c-1.293-0.242-2.155,0.341-2.462,1.5C0.386,2.735,0.154,3.932,0.005,5.162
	C-0.039,5.905,0.117,8.381,3.94,8.998z" class="color c1"/>
</svg>