<svg version="1.1" id="图层_1" x="0px" y="0px" width="182px" height="182px" viewBox="0 0 182 182" enable-background="new 0 0 182 182" xml:space="preserve" xmlns="http://www.w3.org/2000/svg" xmlns:xlink="http://www.w3.org/1999/xlink" xmlns:xml="http://www.w3.org/XML/1998/namespace">
  <path fill="#E2E2E2" d="M14.235,139.814C5.228,125.699,0,108.95,0,91c0-21.445,7.459-41.179,19.916-56.75
	c0.491-0.614,1.477-0.425,1.718,0.324l0.007,0.021c0.101,0.314,0.037,0.656-0.169,0.913C9.294,50.736,2,70.031,2,91
	c0,17.557,5.115,33.94,13.927,47.745c0.336,0.526,0.11,1.215-0.469,1.449c-0.006,0.003-0.013,0.005-0.019,0.008
	C14.999,140.379,14.491,140.214,14.235,139.814z M150.149,157.967l-0.037-0.007c-0.291-0.051-0.588,0.032-0.811,0.226
	C133.672,171.766,113.281,180,91,180c-19.453,0-37.468-6.275-52.129-16.905c-0.499-0.362-1.208-0.194-1.463,0.368
	c-0.003,0.006-0.006,0.012-0.008,0.019c-0.199,0.436-0.083,0.952,0.305,1.233C52.694,175.582,71.111,182,91,182
	c22.791,0,43.653-8.422,59.635-22.318C151.259,159.14,150.964,158.111,150.149,157.967z M34.091,20.894
	c0.213,0.659,1.013,0.894,1.555,0.462C50.852,9.246,70.095,2,91,2c19.649,0,37.83,6.403,52.57,17.228
	c0.281,0.206,0.648,0.25,0.967,0.113l0.015-0.007c0.702-0.301,0.82-1.258,0.205-1.71C129.685,6.552,111.095,0,91,0
	C69.629,0,49.958,7.41,34.412,19.79c-0.324,0.258-0.453,0.693-0.326,1.088L34.091,20.894z M156.664,28.064
	c-0.511-0.532-1.41-0.327-1.65,0.37l-0.009,0.026c-0.12,0.348-0.034,0.731,0.221,0.996C170.561,45.453,180,67.144,180,91
	c0,19.673-6.42,37.871-17.27,52.621c-0.435,0.592-0.107,1.43,0.616,1.558l0.031,0.006c0.372,0.066,0.752-0.084,0.976-0.389
	C175.442,129.716,182,111.11,182,91C182,66.604,172.348,44.421,156.664,28.064z M154.455,34.572c-0.5-0.562-1.426-0.368-1.672,0.344
	l-0.006,0.018c-0.115,0.335-0.04,0.704,0.196,0.968C166.025,50.565,173.969,69.871,173.969,91c0,19.401-6.695,37.268-17.894,51.414
	c-0.466,0.589-0.145,1.456,0.594,1.587l0.006,0.001c0.36,0.064,0.728-0.074,0.955-0.361c11.469-14.486,18.339-32.772,18.339-52.64
	C175.969,69.358,167.825,49.59,154.455,34.572z M138.02,22.134c0.719-0.308,0.821-1.299,0.171-1.735
	C124.682,11.337,108.454,6.031,91,6.031c-20.784,0-39.833,7.517-54.614,19.954c-0.31,0.261-0.43,0.686-0.305,1.071l0.007,0.022
	c0.216,0.671,1.037,0.899,1.576,0.445C52.098,15.374,70.702,8.031,91,8.031c17.042,0,32.898,5.169,46.089,14.015
	C137.366,22.231,137.715,22.265,138.02,22.134z M20.268,137.057c0.769-0.03,1.205-0.879,0.791-1.527
	C12.827,122.654,8.031,107.382,8.031,91c0-18.107,5.843-34.869,15.725-48.525c0.186-0.257,0.239-0.585,0.142-0.887
	c-0.251-0.777-1.284-0.951-1.763-0.29C12.013,55.284,6.031,72.454,6.031,91c0,16.773,4.904,32.414,13.327,45.599
	c0.191,0.299,0.526,0.474,0.881,0.459C20.249,137.057,20.258,137.057,20.268,137.057z M142.307,156.584l-0.047-0.008
	c-0.27-0.048-0.547,0.021-0.765,0.189C127.497,167.539,109.99,173.969,91,173.969c-18.601,0-35.772-6.176-49.623-16.555
	c-0.602-0.451-1.471-0.108-1.573,0.638c-0.001,0.008-0.002,0.016-0.003,0.023c-0.05,0.363,0.091,0.726,0.384,0.946
	C54.37,169.647,71.953,175.969,91,175.969c19.462,0,37.408-6.587,51.749-17.636C143.425,157.813,143.147,156.732,142.307,156.584z" class="color c1"/>
</svg>