<svg version="1.1" id="图层_1" x="0px" y="0px" width="295.843px" height="295.843px" viewBox="0 0 295.843 295.843" enable-background="new 0 0 295.843 295.843" xml:space="preserve" xmlns="http://www.w3.org/2000/svg" xmlns:xlink="http://www.w3.org/1999/xlink" xmlns:xml="http://www.w3.org/XML/1998/namespace">
  <path fill="#D6B57F" d="M147.922,295.843c-8.063,0-15.279-4.039-22.258-7.945c-4.678-2.619-9.095-5.092-13.567-6.289
	c-4.726-1.262-10.186-1.352-15.467-1.438c-7.868-0.129-16.005-0.266-22.686-4.127c-6.793-3.932-10.987-10.969-15.043-17.771
	c-2.799-4.695-5.442-9.131-8.824-12.514c-3.38-3.381-7.814-6.021-12.509-8.822c-6.805-4.057-13.84-8.248-17.771-15.041
	c-3.863-6.684-3.997-14.814-4.127-22.686c-0.086-5.28-0.175-10.742-1.438-15.469c-1.195-4.473-3.669-8.891-6.287-13.57
	C4.038,163.197,0,155.981,0,147.919c0-8.063,4.039-15.279,7.945-22.255c2.619-4.678,5.092-9.096,6.288-13.57
	c1.263-4.725,1.353-10.184,1.438-15.465c0.13-7.869,0.263-16.006,4.128-22.687C23.73,67.15,30.765,62.956,37.568,58.9
	c4.695-2.801,9.131-5.443,12.511-8.824c3.381-3.381,6.024-7.814,8.823-12.51c4.056-6.803,8.25-13.839,15.045-17.769
	c6.68-3.865,14.816-3.999,22.686-4.128c5.28-0.086,10.739-0.176,15.465-1.438c4.473-1.196,8.891-3.669,13.568-6.288
	C132.645,4.039,139.86,0,147.922,0c8.063,0,15.279,4.039,22.255,7.945c4.68,2.618,9.097,5.091,13.57,6.287
	c4.725,1.263,10.186,1.353,15.467,1.439c7.867,0.129,16.004,0.262,22.684,4.128c6.793,3.929,10.988,10.964,15.045,17.769
	c2.799,4.694,5.443,9.13,8.824,12.511c3.379,3.381,7.814,6.025,12.51,8.824c6.803,4.057,13.838,8.25,17.77,15.043
	c3.863,6.68,3.996,14.814,4.127,22.684c0.084,5.281,0.175,10.74,1.438,15.467c1.195,4.473,3.668,8.891,6.287,13.568
	c3.905,6.979,7.944,14.193,7.944,22.256s-4.039,15.276-7.944,22.256c-2.619,4.678-5.092,9.096-6.287,13.57
	c-1.265,4.725-1.354,10.186-1.438,15.467c-0.129,7.867-0.264,16.004-4.127,22.686c-3.933,6.791-10.965,10.984-17.771,15.039
	c-4.694,2.801-9.129,5.443-12.51,8.826c-3.382,3.381-6.024,7.814-8.824,12.51c-4.058,6.803-8.25,13.84-15.045,17.77
	c-6.681,3.865-14.815,3.998-22.687,4.127c-5.279,0.086-10.738,0.177-15.463,1.438c-4.475,1.196-8.892,3.671-13.568,6.289
	C163.201,291.804,155.985,295.843,147.922,295.843z M147.922,4.776c-6.816,0-13.479,3.73-19.923,7.336
	c-4.729,2.647-9.617,5.384-14.669,6.734c-5.292,1.414-11.051,1.508-16.619,1.6c-7.594,0.125-14.766,0.242-20.372,3.486
	c-5.72,3.309-9.418,9.513-13.334,16.081c-2.825,4.74-5.748,9.641-9.548,13.441c-3.803,3.801-8.703,6.723-13.443,9.549
	c-6.568,3.916-12.771,7.614-16.08,13.332c-3.244,5.607-3.362,12.781-3.486,20.373c-0.092,5.57-0.187,11.328-1.6,16.619
	c-1.351,5.053-4.088,9.941-6.735,14.67c-3.606,6.443-7.337,13.107-7.337,19.924c0,6.816,3.73,13.479,7.336,19.922
	c2.647,4.729,5.386,9.619,6.734,14.67c1.415,5.293,1.51,11.053,1.602,16.621c0.124,7.594,0.242,14.764,3.484,20.371
	c3.309,5.719,9.513,9.416,16.082,13.332c4.738,2.826,9.64,5.748,13.441,9.547c3.801,3.803,6.724,8.705,9.549,13.445
	c3.916,6.566,7.614,12.77,13.332,16.078c5.607,3.244,12.779,3.361,20.372,3.486c5.57,0.092,11.329,0.188,16.622,1.602
	c5.05,1.35,9.938,4.088,14.666,6.732c6.445,3.605,13.108,7.338,19.926,7.338c6.816,0,13.479-3.729,19.923-7.338
	c4.729-2.646,9.617-5.387,14.668-6.732c5.293-1.414,11.051-1.51,16.619-1.6c7.595-0.125,14.767-0.244,20.373-3.488
	c5.72-3.31,9.418-9.512,13.332-16.078c2.826-4.738,5.748-9.643,9.549-13.443c3.804-3.801,8.705-6.723,13.443-9.549
	c6.567-3.914,12.771-7.613,16.08-13.33c3.243-5.607,3.36-12.779,3.485-20.373c0.092-5.568,0.187-11.328,1.603-16.621
	c1.35-5.051,4.086-9.941,6.733-14.668c3.606-6.445,7.336-13.107,7.336-19.924s-3.729-13.479-7.336-19.924
	c-2.647-4.727-5.385-9.617-6.733-14.666c-1.416-5.295-1.511-11.053-1.601-16.623c-0.125-7.592-0.242-14.764-3.485-20.369
	c-3.31-5.719-9.515-9.418-16.082-13.334c-4.738-2.826-9.64-5.748-13.441-9.549c-3.801-3.801-6.723-8.703-9.547-13.442
	c-3.918-6.568-7.614-12.773-13.334-16.08c-5.606-3.245-12.778-3.363-20.371-3.487c-5.57-0.092-11.33-0.187-16.623-1.601
	c-5.051-1.35-9.938-4.087-14.668-6.734C161.401,8.505,154.738,4.776,147.922,4.776z" class="color c1"/>
</svg>