<svg version="1.1" id="图层_1" x="0px" y="0px" width="163.821px" height="121.906px" viewBox="0 0 163.821 121.906" enable-background="new 0 0 163.821 121.906" xml:space="preserve" xmlns="http://www.w3.org/2000/svg" xmlns:xlink="http://www.w3.org/1999/xlink" xmlns:xml="http://www.w3.org/XML/1998/namespace">
  <path fill="#06090A" d="M163.821,78.42c0,0-2.61,2.96-6.707,7.208c-2.042,2.132-4.454,4.587-7.068,7.186
	c-1.314,1.293-2.651,2.65-4.046,3.991c-1.39,1.346-2.803,2.713-4.215,4.081c-1.428,1.351-2.857,2.701-4.262,4.031
	c-1.399,1.337-2.815,2.611-4.165,3.867c-2.712,2.498-5.271,4.798-7.491,6.743c-4.426,3.905-7.499,6.38-7.499,6.38
	s2.608-2.961,6.705-7.21c2.041-2.132,4.453-4.588,7.068-7.186c1.314-1.292,2.649-2.652,4.047-3.99
	c1.391-1.346,2.803-2.713,4.216-4.08c1.428-1.351,2.857-2.701,4.263-4.03c1.401-1.335,2.816-2.611,4.166-3.866
	c2.713-2.497,5.272-4.798,7.492-6.743C160.749,80.896,163.821,78.42,163.821,78.42z M0.164,7.497
	c-0.084,2.248-0.138,4.87-0.153,7.679c0.002,1.404-0.025,2.856,0,4.329c0.018,1.474,0.036,2.971,0.055,4.469
	c0.041,1.497,0.083,2.994,0.123,4.467c0.03,1.474,0.118,2.923,0.172,4.326c0.126,2.806,0.286,5.424,0.46,7.667
	c0.327,4.487,0.724,7.474,0.724,7.474s0.277-3.001,0.424-7.497c0.084-2.248,0.139-4.87,0.153-7.679
	c-0.003-1.404,0.027-2.856-0.002-4.329c-0.018-1.474-0.037-2.971-0.056-4.469c-0.042-1.497-0.083-2.994-0.124-4.467
	c-0.034-1.474-0.119-2.923-0.173-4.326c-0.127-2.806-0.286-5.424-0.46-7.667C0.98,2.988,0.586,0,0.586,0S0.311,3.001,0.164,7.497z" class="color c1"/>
</svg>