<svg version="1.1" id="图层_1" x="0px" y="0px" width="355.5px" height="8.5px" viewBox="0 0 355.5 8.5" enable-background="new 0 0 355.5 8.5" xml:space="preserve" xmlns="http://www.w3.org/2000/svg" xmlns:xlink="http://www.w3.org/1999/xlink" xmlns:xml="http://www.w3.org/XML/1998/namespace">
  <path fill="#E28DA5" d="M8.5,4.25c0,2.348-1.902,4.25-4.25,4.25l0,0C1.902,8.5,0,6.598,0,4.25l0,0C0,1.902,1.902,0,4.25,0l0,0
	C6.598,0,8.5,1.902,8.5,4.25L8.5,4.25z M30.188,4.25c0-2.348-1.902-4.25-4.25-4.25l0,0c-2.348,0-4.25,1.902-4.25,4.25l0,0
	c0,2.348,1.902,4.25,4.25,4.25l0,0C28.285,8.5,30.188,6.598,30.188,4.25L30.188,4.25z M51.875,4.25c0-2.348-1.902-4.25-4.25-4.25
	l0,0c-2.348,0-4.25,1.902-4.25,4.25l0,0c0,2.348,1.902,4.25,4.25,4.25l0,0C49.973,8.5,51.875,6.598,51.875,4.25L51.875,4.25z
	 M73.563,4.25c0-2.348-1.902-4.25-4.25-4.25l0,0c-2.348,0-4.25,1.902-4.25,4.25l0,0c0,2.348,1.902,4.25,4.25,4.25l0,0
	C71.66,8.5,73.563,6.598,73.563,4.25L73.563,4.25z M95.25,4.25C95.25,1.902,93.348,0,91,0l0,0c-2.348,0-4.25,1.902-4.25,4.25l0,0
	c0,2.348,1.902,4.25,4.25,4.25l0,0C93.348,8.5,95.25,6.598,95.25,4.25L95.25,4.25z M116.938,4.25c0-2.348-1.902-4.25-4.25-4.25l0,0
	c-2.348,0-4.25,1.902-4.25,4.25l0,0c0,2.348,1.902,4.25,4.25,4.25l0,0C115.035,8.5,116.938,6.598,116.938,4.25L116.938,4.25z
	 M138.625,4.25c0-2.348-1.902-4.25-4.25-4.25l0,0c-2.348,0-4.25,1.902-4.25,4.25l0,0c0,2.348,1.902,4.25,4.25,4.25l0,0
	C136.723,8.5,138.625,6.598,138.625,4.25L138.625,4.25z M160.313,4.25c0-2.348-1.902-4.25-4.25-4.25l0,0
	c-2.348,0-4.25,1.902-4.25,4.25l0,0c0,2.348,1.902,4.25,4.25,4.25l0,0C158.41,8.5,160.313,6.598,160.313,4.25L160.313,4.25z
	 M182,4.25c0-2.348-1.902-4.25-4.25-4.25l0,0c-2.348,0-4.25,1.902-4.25,4.25l0,0c0,2.348,1.902,4.25,4.25,4.25l0,0
	C180.097,8.5,182,6.598,182,4.25L182,4.25z M203.687,4.25c0-2.348-1.902-4.25-4.25-4.25l0,0c-2.348,0-4.25,1.902-4.25,4.25l0,0
	c0,2.348,1.902,4.25,4.25,4.25l0,0C201.785,8.5,203.687,6.598,203.687,4.25L203.687,4.25z M225.375,4.25
	c0-2.348-1.902-4.25-4.25-4.25l0,0c-2.348,0-4.25,1.902-4.25,4.25l0,0c0,2.348,1.902,4.25,4.25,4.25l0,0
	C223.472,8.5,225.375,6.598,225.375,4.25L225.375,4.25z M247.062,4.25c0-2.348-1.902-4.25-4.25-4.25l0,0
	c-2.348,0-4.25,1.902-4.25,4.25l0,0c0,2.348,1.902,4.25,4.25,4.25l0,0C245.16,8.5,247.062,6.598,247.062,4.25L247.062,4.25z
	 M268.75,4.25c0-2.348-1.902-4.25-4.25-4.25l0,0c-2.348,0-4.25,1.902-4.25,4.25l0,0c0,2.348,1.902,4.25,4.25,4.25l0,0
	C266.847,8.5,268.75,6.598,268.75,4.25L268.75,4.25z M290.437,4.25c0-2.348-1.902-4.25-4.25-4.25l0,0c-2.348,0-4.25,1.902-4.25,4.25
	l0,0c0,2.348,1.902,4.25,4.25,4.25l0,0C288.535,8.5,290.437,6.598,290.437,4.25L290.437,4.25z M312.125,4.25
	c0-2.348-1.902-4.25-4.25-4.25l0,0c-2.348,0-4.25,1.902-4.25,4.25l0,0c0,2.348,1.902,4.25,4.25,4.25l0,0
	C310.222,8.5,312.125,6.598,312.125,4.25L312.125,4.25z M333.812,4.25c0-2.348-1.902-4.25-4.25-4.25l0,0
	c-2.348,0-4.25,1.902-4.25,4.25l0,0c0,2.348,1.902,4.25,4.25,4.25l0,0C331.91,8.5,333.812,6.598,333.812,4.25L333.812,4.25z
	 M355.5,4.25c0-2.348-1.902-4.25-4.25-4.25l0,0C348.902,0,347,1.902,347,4.25l0,0c0,2.348,1.902,4.25,4.25,4.25l0,0
	C353.597,8.5,355.5,6.598,355.5,4.25L355.5,4.25z" class="color c1"/>
</svg>