<svg version="1.1" id="图层_1" x="0px" y="0px" width="132.008px" height="60.727px" viewBox="0 0 132.008 60.727" enable-background="new 0 0 132.008 60.727" xml:space="preserve" xmlns="http://www.w3.org/2000/svg" xmlns:xlink="http://www.w3.org/1999/xlink" xmlns:xml="http://www.w3.org/XML/1998/namespace">
  <path fill="#0F0F0F" d="M128.741,6.879L44.286,3.5L131.766,0v0.096l-0.504,1.031c-0.384,0.789-0.748,1.581-1.102,2.373
	C129.657,4.624,129.183,5.75,128.741,6.879z M131.936,60.715l-0.595-0.908c-0.082-0.123-0.654-1.016-1.443-2.58
	c-0.453-0.898-0.978-2.021-1.525-3.354l-83.843,3.354l87.479,3.5v-0.012H131.936z M126.305,14.245
	c0.314-1.159,0.663-2.315,1.041-3.472l-95.384,3.472l93.518,3.403C125.725,16.513,125.998,15.379,126.305,14.245z M124.322,24.99
	c0.113-1.145,0.255-2.289,0.432-3.433L19.298,24.99l104.779,3.41C124.128,27.264,124.209,26.127,124.322,24.99z M124.172,35.736
	c-0.081-1.115-0.132-2.265-0.152-3.442L0,35.736l124.524,3.457C124.379,38.078,124.259,36.928,124.172,35.736z M125.925,46.482
	c-0.276-1.074-0.534-2.207-0.767-3.393l-93.196,3.393l94.968,3.455C126.581,48.863,126.241,47.711,125.925,46.482z" class="color c1"/>
</svg>