<svg version="1.1" id="图层_1" x="0px" y="0px" width="101.5px" height="100.894px" viewBox="0 0 101.5 100.894" enable-background="new 0 0 101.5 100.894" xml:space="preserve" xmlns="http://www.w3.org/2000/svg" xmlns:xlink="http://www.w3.org/1999/xlink" xmlns:xml="http://www.w3.org/XML/1998/namespace">
  <path fill="#FFFFFF" d="M58.171,100.894c-2.643,0-4.975-1.911-5.42-4.605c-0.494-2.997,1.535-5.827,4.531-6.322
	C76.53,86.789,90.5,70.296,90.5,50.75C90.5,28.832,72.669,11,50.75,11S11,28.832,11,50.75c0,3.037-2.462,5.5-5.5,5.5
	S0,53.787,0,50.75C0,22.767,22.767,0,50.75,0s50.75,22.767,50.75,50.75c0,24.954-17.843,46.011-42.426,50.069
	C58.771,100.869,58.47,100.894,58.171,100.894z" class="color c1"/>
</svg>