<svg version="1.1" id="图层_1" x="0px" y="0px" width="499.93px" height="43.627px" viewBox="0 0 499.93 43.627" enable-background="new 0 0 499.93 43.627" xml:space="preserve" xmlns="http://www.w3.org/2000/svg" xmlns:xlink="http://www.w3.org/1999/xlink" xmlns:xml="http://www.w3.org/XML/1998/namespace">
  <path fill="#FFFFFF" d="M6.828,14.218c7.278-3.275,21.106-6.551,45.488-8.371C85.067,3.3,164.398-0.338,245.184,0.026
	c75.327,0,196.143,6.55,242.722,19.649c11.645,3.275,15.646,22.564,8.37,21.107c-8.006-1.457-18.561-6.188-23.654-6.914
	c-27.656-4.004-77.146-6.551-141.557-10.918c-87.337-5.822-292.213,6.914-295.853,9.461c-6.186,4.004-7.278,8.734-13.828,10.918
	c-5.822,1.818-14.92-5.096-18.195-10.188C-1.542,25.862-1.542,17.857,6.828,14.218z" class="color c1"/>
</svg>