<svg version="1.1" id="图层_1" x="0px" y="0px" width="2.998px" height="115.109px" viewBox="0 0 2.998 115.109" enable-background="new 0 0 2.998 115.109" xml:space="preserve" xmlns="http://www.w3.org/2000/svg" xmlns:xlink="http://www.w3.org/1999/xlink" xmlns:xml="http://www.w3.org/XML/1998/namespace">
  <path fill="#A06B02" d="M1.499,0c0,0,0.502,7.194,0.857,17.986c0.093,2.698,0.194,5.621,0.258,8.712
	c0.073,3.091,0.166,6.351,0.202,9.724c0.039,3.372,0.123,6.857,0.13,10.398c0.017,3.541,0.035,7.138,0.052,10.735
	c-0.017,3.597-0.034,7.194-0.051,10.735C2.947,71.83,2.858,75.315,2.82,78.688c-0.105,6.745-0.266,13.04-0.46,18.435
	c-0.357,10.792-0.861,17.986-0.861,17.986s-0.505-7.194-0.861-17.986c-0.194-5.396-0.355-11.691-0.46-18.435
	C0.14,75.315,0.051,71.83,0.051,68.29C0.034,64.749,0.017,61.151,0,57.554c0.018-3.597,0.035-7.194,0.052-10.735
	c0.006-3.541,0.09-7.026,0.129-10.398c0.036-3.372,0.129-6.632,0.202-9.724c0.064-3.091,0.165-6.014,0.258-8.712
	C0.997,7.194,1.499,0,1.499,0z" class="color c1"/>
</svg>