<svg version="1.1" id="图层_1" x="0px" y="0px" width="200px" height="25.256px" viewBox="0 0 200 25.256" enable-background="new 0 0 200 25.256" xml:space="preserve" xmlns="http://www.w3.org/2000/svg" xmlns:xlink="http://www.w3.org/1999/xlink" xmlns:xml="http://www.w3.org/XML/1998/namespace">
  <path fill="#00CAE7" d="M142.021,10.854c18.711,2.51,38.256,7.03,57.979,14.401c0,0-16.568-9.488-43.033-16.836
	C126.412-0.063,82.661-5.677,35.96,9.449c-11.854,3.84-23.895,9-35.96,15.807c0,0,21.354-8.358,54.549-13.353
	C78.669,8.274,109.043,6.431,142.021,10.854z" class="color c1"/>
  <path fill="#00CAE7" d="M120.702,15.253c9.886,0.895,20.212,2.503,30.632,5.127c0,0-8.753-3.378-22.736-5.992
	c-16.143-3.021-39.257-5.02-63.932,0.364c-6.262,1.368-12.624,3.205-18.999,5.628c0,0,11.282-2.977,28.82-4.754
	C87.23,14.334,103.277,13.678,120.702,15.253z" class="color c1"/>
</svg>