<svg version="1.1" id="图层_1" x="0px" y="0px" width="123.592px" height="7.905px" viewBox="0 0 123.592 7.905" enable-background="new 0 0 123.592 7.905" xml:space="preserve" xmlns="http://www.w3.org/2000/svg" xmlns:xlink="http://www.w3.org/1999/xlink" xmlns:xml="http://www.w3.org/XML/1998/namespace">
  <path fill="#83AF43" d="M0,7.905c0,0,1.859-0.588,5.171-1.418c1.658-0.4,3.671-0.902,6.001-1.375
	c1.165-0.24,2.405-0.494,3.712-0.762c1.309-0.262,2.694-0.477,4.136-0.736c2.88-0.533,6.024-0.957,9.349-1.424
	c3.331-0.393,6.845-0.859,10.496-1.145c3.652-0.271,7.423-0.648,11.27-0.75c1.922-0.074,3.86-0.148,5.805-0.227
	c1.947-0.02,3.901-0.037,5.855-0.057c3.91-0.063,7.817,0.127,11.663,0.244c0.961,0.033,1.919,0.064,2.872,0.096
	c0.952,0.049,1.897,0.143,2.838,0.211c1.88,0.148,3.736,0.295,5.563,0.439c3.659,0.207,7.164,0.775,10.497,1.172
	c1.664,0.223,3.287,0.393,4.846,0.645c1.555,0.283,3.057,0.551,4.499,0.813c2.881,0.527,5.526,0.969,7.846,1.496
	c2.311,0.563,4.326,1.053,5.985,1.455c3.303,0.84,5.19,1.322,5.19,1.322s-1.932-0.252-5.313-0.699
	c-1.683-0.24-3.727-0.531-6.071-0.867c-2.343-0.322-5.011-0.535-7.896-0.885c-1.444-0.164-2.949-0.33-4.507-0.506
	c-1.56-0.15-3.177-0.256-4.836-0.395c-3.322-0.232-6.811-0.607-10.441-0.736c-3.627-0.158-7.367-0.424-11.178-0.465
	c-3.81-0.082-7.677-0.229-11.548-0.137c-1.935,0-3.87,0-5.798,0c-1.927,0.059-3.846,0.115-5.75,0.172
	c-3.81,0.084-7.556,0.279-11.183,0.467c-1.815,0.064-3.591,0.246-5.337,0.35c-1.744,0.123-3.453,0.215-5.112,0.355
	c-3.313,0.33-6.461,0.535-9.35,0.871c-2.896,0.295-5.546,0.6-7.896,0.885C9.025,6.622,6.978,6.889,5.292,7.108
	c-1.684,0.246-3.008,0.441-3.91,0.574C0.481,7.829,0,7.905,0,7.905z" class="color c1"/>
</svg>