<svg version="1.1" id="图层_1" x="0px" y="0px" width="160.136px" height="33.378px" viewBox="0 0 160.136 33.378" enable-background="new 0 0 160.136 33.378" xml:space="preserve" xmlns="http://www.w3.org/2000/svg" xmlns:xlink="http://www.w3.org/1999/xlink" xmlns:xml="http://www.w3.org/XML/1998/namespace">
  <path fill="#31403D" d="M160.025,31.517c-19.262-19.775-50.278-0.24-61.264-6.387c-4.699-2.675-13.947-4.208-16.481-3.972
	c1.069-1.078,2.044-2.232,2.879-3.48c1.848-2.76,2.866-6.217,2.526-9.541c-0.187-1.852-0.872-3.58-2.072-5.009
	c-0.769-0.917-1.77-1.717-2.777-2.356c-0.51-0.324-0.899-0.658-1.515-0.729c-0.534-0.063-1.726-0.075-2.229,0.103
	c-0.548,0.192-1.057,0.514-1.533,0.84c-0.883,0.605-1.767,1.321-2.458,2.144c-1.199,1.429-1.884,3.157-2.072,5.009
	c-0.339,3.324,0.678,6.781,2.527,9.541c0.861,1.283,1.865,2.471,2.97,3.576c-0.024,0.02-0.046,0.04-0.071,0.06
	c-0.918-0.734-11.837,0.831-17.081,3.816c-10.986,6.146-42.001-13.389-61.264,6.387c-0.409,0.928,0.386,1.772,1.132,1.789
	c0.47,0.163,1.029,0.065,1.371-0.473c6.553-10.341,20.255-8.7,30.353-5.808c9.694,2.774,19.263,6.015,29.458,4.019
	c6.046-1.183,12.602-3.8,17.644-7.901c5.043,4.102,11.598,6.719,17.644,7.901c10.196,1.996,19.763-1.244,29.459-4.019
	c10.098-2.893,23.799-4.533,30.353,5.808c0.34,0.538,0.899,0.636,1.37,0.473C159.638,33.29,160.433,32.445,160.025,31.517z" class="color c1"/>
</svg>