<svg version="1.1" id="图层_1" x="0px" y="0px" width="151.006px" height="64.17px" viewBox="0 0 151.006 64.17" enable-background="new 0 0 151.006 64.17" xml:space="preserve" xmlns="http://www.w3.org/2000/svg" xmlns:xlink="http://www.w3.org/1999/xlink" xmlns:xml="http://www.w3.org/XML/1998/namespace">
  <path fill="#FFFFFF" d="M139.934,39.548c0,0,0.174,0.109,0.511,0.32c0.335,0.215,0.844,0.512,1.474,0.961
	c1.26,0.896,3.158,2.166,5.224,4.313c1.025,1.08,2.121,2.369,2.989,4.143c0.414,0.891,0.8,1.912,0.862,3.117
	c0.03,0.596,0.015,1.227-0.122,1.861l-0.044,0.238l-0.012,0.061c-0.032,0.094,0.055-0.123-0.074,0.225l-0.028,0.086l-0.117,0.348
	l-0.117,0.35l-0.059,0.176l-0.127,0.242c-1.425,2.693-3.623,3.98-5.915,5.045c-2.306,1.027-4.772,1.65-7.325,2.131
	c-5.119,0.926-10.623,1.113-16.391,0.957c-5.762-0.195-11.791-0.771-17.955-1.713c-3.088-0.445-6.204-1.012-9.344-1.643
	c-3.146-0.609-6.305-1.324-9.475-2.104c-6.332-1.535-12.727-3.426-18.973-5.459c-6.329-2.135-12.512-4.428-18.53-7.01
	c-3.006-1.281-5.967-2.609-8.85-4.023c-2.886-1.408-5.726-2.826-8.455-4.363c-5.486-3.012-10.636-6.268-15.286-9.793
	c-4.604-3.59-8.841-7.311-11.799-12.148c-0.7-1.249-1.346-2.543-1.692-4.058c-0.358-1.465-0.475-3.171,0.071-4.741L0.46,6.773
	l0.021-0.072c0.16-0.436,0.059-0.146,0.101-0.256l0.047-0.093l0.19-0.369l0.194-0.372l0.362-0.555
	c0.509-0.798,1.021-1.209,1.53-1.698c1.066-0.828,2.15-1.442,3.209-1.825c2.111-0.813,4.063-1.144,5.855-1.327
	c1.79-0.195,3.414-0.199,4.871-0.206c2.914,0.013,5.168,0.328,6.699,0.479c1.525,0.22,2.339,0.337,2.339,0.337
	s-0.815,0.083-2.344,0.238c-1.522,0.168-3.756,0.439-6.526,0.928c-1.379,0.273-2.903,0.575-4.482,1.067
	C10.959,3.54,9.27,4.113,7.792,5.015C7.035,5.443,6.407,5.988,5.876,6.535c-0.201,0.289-0.474,0.619-0.5,0.774
	C5.352,7.355,5.324,7.397,5.292,7.438L5.161,7.82L5.029,8.213L4.996,8.312c0.029-0.076-0.09,0.242,0.062-0.159v0.029L5.056,8.298
	c-0.177,1.135,0.501,2.757,1.778,4.374s2.984,3.223,4.915,4.737c1.931,1.521,4.063,3.003,6.343,4.421
	c4.564,2.846,9.654,5.528,15.041,8.088c2.695,1.273,5.465,2.525,8.291,3.746c2.831,1.211,5.725,2.383,8.645,3.557
	c5.857,2.273,11.908,4.498,17.946,6.477c6.13,2.055,12.232,3.891,18.315,5.592c6.081,1.656,12.095,3.18,17.953,4.418
	c5.855,1.248,11.547,2.256,16.952,2.938c5.395,0.656,10.531,1.039,15.126,0.793c2.293-0.109,4.453-0.402,6.331-0.914
	c0.949-0.248,1.779-0.596,2.525-0.977c0.317-0.223,0.714-0.402,0.954-0.652c0.123-0.113,0.315-0.238,0.396-0.332
	c0.077-0.09,0.166-0.174,0.269-0.256c0.026-0.021,0.052-0.037,0.08-0.066l0.087-0.164l0.174-0.324l0.172-0.324l0.043-0.08
	c-0.117,0.32-0.027,0.072-0.051,0.137l0.01-0.027l0.039-0.111c0.129-0.291,0.191-0.609,0.239-0.938
	c0.091-0.66-0.021-1.393-0.193-2.105c-0.379-1.439-1.102-2.783-1.844-3.93c-1.524-2.289-3.015-3.996-4.046-5.107
	C140.495,40.144,139.934,39.548,139.934,39.548z" class="color c1"/>
</svg>