<svg version="1.1" id="图层_1" x="0px" y="0px" width="275.696px" height="277.039px" viewBox="0 0 275.696 277.039" enable-background="new 0 0 275.696 277.039" xml:space="preserve" xmlns="http://www.w3.org/2000/svg" xmlns:xlink="http://www.w3.org/1999/xlink" xmlns:xml="http://www.w3.org/XML/1998/namespace">
  <path fill="#434244" d="M273.079,141.014c-0.049,1.731-0.086,3.031-0.115,4.117c-0.037,1.081-0.117,1.945-0.16,2.813
	c-0.059,0.865-0.115,1.73-0.184,2.812c-0.043,0.539-0.07,1.138-0.146,1.81c-0.09,0.672-0.188,1.425-0.307,2.283
	c-0.234,1.719-0.377,3.01-0.471,4.096c-0.127,1.077-0.23,1.941-0.318,2.813c-0.203,1.731-0.279,3.496-1.146,6.868
	c-0.414,1.689-0.723,2.955-1.039,3.992c-0.34,1.03-0.631,1.85-0.922,2.667c-0.295,0.818-0.586,1.634-0.926,2.66
	c-0.32,1.033-0.822,2.235-1.379,3.876c-1.104,3.285-1.758,4.89-2.346,6.522c-0.303,0.812-0.604,1.629-0.984,2.644
	c-0.428,0.996-0.969,2.18-1.695,3.752c-0.369,0.784-0.689,1.472-0.975,2.084c-0.299,0.609-0.596,1.126-0.848,1.604
	c-0.52,0.946-0.939,1.706-1.355,2.465c-0.434,0.75-0.809,1.529-1.383,2.448c-0.555,0.929-1.217,2.041-2.105,3.526
	c-0.85,1.507-1.619,2.557-2.24,3.437c-0.631,0.88-1.152,1.567-1.672,2.255c-0.26,0.345-0.52,0.688-0.795,1.054
	c-0.285,0.354-0.59,0.733-0.93,1.151c-0.67,0.845-1.453,1.872-2.465,3.266c-0.49,0.707-0.977,1.283-1.396,1.809
	c-0.42,0.526-0.787,0.987-1.127,1.406c-0.67,0.84-1.207,1.514-1.742,2.188c-1.109,1.317-2.266,2.593-4.537,5.173
	c-2.412,2.457-3.551,3.748-4.75,4.985c-0.611,0.602-1.229,1.205-1.998,1.957c-0.389,0.372-0.816,0.782-1.303,1.247
	c-0.488,0.463-1.029,0.987-1.695,1.532c-1.313,1.108-2.301,1.941-3.121,2.636c-0.416,0.343-0.785,0.651-1.135,0.942
	c-0.367,0.275-0.709,0.534-1.053,0.793c-0.688,0.52-1.373,1.037-2.229,1.685c-0.854,0.651-1.865,1.449-3.293,2.408
	c-1.41,0.98-2.447,1.749-3.297,2.411c-0.855,0.659-1.563,1.152-2.248,1.683c-0.691,0.521-1.381,1.045-2.266,1.668
	c-0.873,0.644-1.986,1.303-3.492,2.143c-1.508,0.838-2.632,1.472-3.6,1.938c-0.979,0.45-1.77,0.793-2.555,1.139
	c-0.789,0.345-1.574,0.69-2.547,1.143c-0.972,0.454-2.174,0.923-3.738,1.634c-1.699,0.762-2.98,1.319-4.088,1.686
	c-1.103,0.378-1.982,0.681-2.865,0.983c-1.75,0.633-3.551,1.105-7.068,2.302c-0.875,0.313-1.654,0.544-2.352,0.749
	c-0.692,0.218-1.301,0.41-1.857,0.583c-1.104,0.362-1.982,0.676-2.861,0.99c-1.778,0.553-3.564,1.106-7.208,1.902
	c-1.835,0.327-3.216,0.549-4.37,0.714c-0.577,0.082-1.096,0.151-1.587,0.218c-0.492,0.055-0.958,0.076-1.423,0.111
	c-0.932,0.068-1.86,0.135-3.02,0.243c-1.156,0.107-2.54,0.285-4.396,0.394c-2.433,0.168-4.062,0.396-5.423,0.512
	c-1.362,0.123-2.451,0.221-3.787,0.343c-1.067,0-2.341,0.063-4.035-0.029c-2.472-0.093-4.057-0.063-5.4-0.018
	c-1.988-0.233-3.279-0.474-4.804-0.711c-1.531-0.2-3.283-0.546-6.21-0.918c-0.899-0.11-1.691-0.206-2.397-0.292
	c-0.705-0.11-1.326-0.207-1.89-0.295c-1.134-0.168-2.048-0.284-2.95-0.396c-1.816-0.182-3.556-0.554-6.941-1.308
	c-1.04-0.25-1.866-0.523-2.623-0.785c-0.759-0.257-1.451-0.491-2.196-0.743c-0.744-0.25-1.543-0.511-2.523-0.814
	c-0.969-0.338-2.109-0.734-3.544-1.235c-0.785-0.258-1.479-0.486-2.109-0.695c-0.499-0.163-1.022-0.365-1.595-0.598
	c-2.247-0.887-3.788-1.42-5.088-1.831c-1.279-0.456-2.305-0.82-3.551-1.263c-0.502-0.224-1.041-0.465-1.639-0.729
	c-0.856-0.37-1.577-0.755-2.219-1.099c-0.641-0.348-1.203-0.653-1.717-0.931c-1.019-0.566-1.823-1.037-2.628-1.506
	c-0.786-0.5-1.563-1.015-2.555-1.626c-0.494-0.301-1.042-0.633-1.664-1.01c-0.621-0.377-1.335-0.766-2.108-1.285
	c-2.256-1.455-3.749-2.303-5-3.038c-1.229-0.768-2.251-1.365-3.61-2.239c-0.458-0.389-0.886-0.752-1.325-1.125
	c-0.426-0.39-0.863-0.786-1.348-1.23c-0.973-0.885-2.194-1.888-3.959-3.323c-1.668-1.447-2.865-2.433-3.872-3.234
	c-0.528-0.509-1.069-1.094-1.733-1.78c-0.666-0.686-1.456-1.467-2.441-2.406c-1.082-0.995-1.882-1.863-2.596-2.568
	c-0.71-0.709-1.307-1.285-1.864-1.815c-1.138-1.042-2.022-1.984-3.355-3.441c-0.566-0.749-1.123-1.487-1.85-2.388
	c-0.692-0.927-1.524-2.038-2.695-3.492c-0.603-0.765-1.157-1.406-1.594-2.013c-0.442-0.605-0.827-1.133-1.177-1.613
	c-0.873-1.395-1.961-2.864-3.663-5.61c-0.968-1.531-1.776-2.643-2.395-3.606c-0.621-0.964-1.146-1.721-1.67-2.47
	c-0.931-1.562-1.579-2.606-2.255-3.924c-0.348-0.652-0.725-1.359-1.178-2.215c-0.441-0.86-1.02-1.843-1.588-3.127
	c-1.016-2.189-1.757-3.62-2.403-4.805c-0.498-1.253-1.053-2.642-1.9-4.767c-0.207-0.584-0.467-1.208-0.69-1.946
	c-0.384-1.174-0.7-2.133-0.972-2.962c-0.284-0.974-0.498-1.781-0.687-2.534c-0.163-0.759-0.284-1.47-0.438-2.23
	c-0.149-0.764-0.321-1.579-0.558-2.563c-0.125-0.488-0.259-1.024-0.409-1.614c-0.134-0.595-0.279-1.244-0.443-1.971
	c-0.418-1.811-0.757-3.161-1.06-4.285c-0.268-1.132-0.482-2.036-0.698-2.94c-0.423-1.813-0.945-3.618-1.384-7.322
	c-0.531-3.614-0.462-5.458-0.489-7.287c-0.005-0.915-0.022-1.828-0.057-2.967c0.012-1.14-0.003-2.506-0.067-4.321
	c-0.033-0.911-0.063-1.706-0.089-2.414c0.008-0.713,0.018-1.337,0.024-1.905c0.013-1.138,0.024-2.047,0.035-2.957
	c-0.022-1.823,0.125-3.636,0.359-7.271c0.041-0.595,0.078-1.141,0.113-1.647c0.058-0.502,0.11-0.965,0.158-1.396
	c0.096-0.859,0.178-1.591,0.251-2.255c0.165-1.323,0.223-2.393,0.439-3.683c0.075-0.398,0.155-0.82,0.24-1.278
	c0.338-1.831,0.612-3.201,0.854-4.34c0.279-1.132,0.553-2.024,0.803-2.92c0.256-0.895,0.51-1.792,0.805-2.915
	c0.273-1.129,0.733-2.447,1.222-4.239c0.507-1.788,0.846-3.14,1.2-4.247c0.33-1.114,0.57-2.016,0.813-2.917
	c0.438-1.817,1.041-3.584,2.406-7.054c0.328-0.873,0.669-1.615,0.984-2.271c0.315-0.656,0.594-1.235,0.847-1.761
	c0.515-1.044,0.945-1.871,1.373-2.698c0.462-0.809,0.924-1.621,1.499-2.632c0.577-1.009,1.189-2.264,2.101-3.884
	c1.217-2.111,1.984-3.562,2.601-4.784c0.659-1.2,1.186-2.156,1.831-3.333c0.294-0.443,0.616-0.931,0.981-1.484
	c0.184-0.276,0.375-0.57,0.582-0.882c0.22-0.303,0.454-0.626,0.701-0.968c1.459-2.001,2.317-3.333,3.034-4.471
	c2.622-3.023,3.579-3.813,7.486-8.237c1.163-1.394,2.136-2.36,2.891-3.225c0.764-0.853,1.363-1.55,1.957-2.242
	c1.203-1.367,2.456-2.63,4.949-5.043c3.319-2.696,4.231-3.338,9.041-7.048c0.647-0.514,1.218-0.975,1.762-1.355
	c0.428-0.303,0.887-0.627,1.393-0.983c3.9-2.845,5.249-3.874,7.352-5.492c0.462-0.299,0.949-0.638,1.521-0.951
	c3.245-1.839,4.872-2.75,6.6-3.467c0.854-0.378,1.702-0.757,2.755-1.251c0.523-0.252,1.1-0.528,1.756-0.843
	c0.663-0.293,1.407-0.623,2.256-1c4.878-2.274,6.235-2.905,9.155-4.268c1.159-0.324,2.189-0.532,3.455-0.878
	c1.277-0.317,2.766-0.85,4.967-1.431c2.125-0.596,3.6-1.078,4.831-1.452c1.45-0.222,3.148-0.524,5.8-1.14
	c2.884-0.555,4.628-0.898,6.126-1.251c0.748-0.186,1.446-0.301,2.196-0.434c0.751-0.133,1.557-0.271,2.534-0.421
	c0.933-0.063,1.856-0.122,3.012-0.199c1.158-0.045,2.543-0.13,4.402-0.292c0.973-0.074,1.812-0.181,2.56-0.199
	c0.75-0.029,1.402-0.054,1.994-0.075c0.823,0.017,1.691,0.027,2.759,0.027c0.533-0.004,1.114-0.008,1.767-0.011
	c0.649,0.019,1.369,0.04,2.178,0.065c1.813,0.047,3.186,0.041,4.334,0.012c1.144,0.002,2.065,0.013,2.979-0.004
	c1.813,0.122,3.046,0.157,4.519,0.286c1.47,0.168,3.185,0.359,5.98,0.678c2.381,0.368,3.978,0.59,5.319,0.718
	c1.604,0.231,3.369,0.685,6.452,1.383c7.231,1.88,7.04,2.54,14.068,4.932c6.911,2.723,7.095,2.296,13.833,5.498
	c1.628,0.824,2.836,1.471,3.828,2.032c0.977,0.592,1.732,1.115,2.494,1.619c0.762,0.507,1.521,1.018,2.489,1.618
	c0.974,0.587,2.083,1.384,3.635,2.337c1.543,0.96,2.703,1.68,3.621,2.348c0.938,0.646,1.686,1.163,2.432,1.681
	c1.525,1,2.947,2.134,5.836,4.352c0.73,0.542,1.34,1.056,1.881,1.52c0.545,0.457,1.023,0.861,1.457,1.228
	c0.875,0.73,1.574,1.313,2.273,1.898c0.688,0.599,1.346,1.228,2.188,1.997c0.826,0.783,1.855,1.682,3.146,2.968
	c1.275,1.307,2.256,2.259,3.09,3.036c0.422,0.385,0.801,0.731,1.164,1.059c0.346,0.337,0.674,0.653,1.006,0.969
	c0.658,0.634,1.318,1.267,2.121,2.085c0.398,0.41,0.838,0.864,1.32,1.391c0.469,0.541,0.973,1.164,1.549,1.877
	c1.143,1.433,2.021,2.495,2.727,3.399c0.678,0.923,1.221,1.661,1.764,2.402c0.543,0.739,1.084,1.478,1.766,2.402
	c0.656,0.941,1.396,2.103,2.41,3.635c0.502,0.768,0.943,1.439,1.334,2.039c0.369,0.618,0.688,1.161,0.98,1.655
	c0.58,0.99,1.049,1.783,1.516,2.574c0.23,0.395,0.461,0.791,0.709,1.212c0.244,0.423,0.475,0.888,0.744,1.394
	c0.535,1.017,1.176,2.236,2.031,3.864c1.619,3.301,2.219,5.059,2.877,6.775c0.543,1.768,1.156,3.502,2.463,6.925
	c0.617,1.728,1.082,3.02,1.465,4.099c0.197,0.537,0.375,1.023,0.541,1.479c0.145,0.465,0.287,0.901,0.428,1.337
	c0.275,0.874,0.553,1.75,0.9,2.842c0.166,0.549,0.354,1.152,0.564,1.839c0.189,0.69,0.369,1.473,0.588,2.365
	c0.434,1.783,0.742,3.13,0.984,4.251c0.195,1.132,0.322,2.046,0.461,2.956c0.262,1.82,0.602,3.626,1.051,7.268
	c0.551,3.633,0.646,5.468,0.844,7.293c0.088,0.914,0.188,1.827,0.279,2.972c0.045,1.148,0.098,2.527,0.168,4.361
	c0.047,1.781,1.27,2.422,1.27,2.422c0.533,0.002,1.301-0.641,1.258-2.462c-0.033-1.866-0.055-3.268-0.076-4.434
	c-0.064-1.165-0.141-2.097-0.203-3.026c-0.148-1.861-0.188-3.732-0.672-7.44c-0.234-1.854-0.375-3.251-0.643-4.394
	c-0.246-1.146-0.471-2.058-0.695-2.969c-0.227-0.908-0.443-1.819-0.691-2.958c-0.303-1.13-0.639-2.488-1.037-4.308
	c-0.197-0.912-0.369-1.71-0.521-2.42c-0.174-0.707-0.322-1.327-0.461-1.892c-0.268-1.135-0.457-2.049-0.646-2.965
	c-0.336-1.842-0.877-3.629-2.021-7.19c-0.281-0.897-0.59-1.653-0.855-2.336c-0.27-0.681-0.508-1.277-0.723-1.821
	c-0.445-1.081-0.801-1.949-1.158-2.814c-0.795-1.696-1.574-3.397-3.127-6.8c-0.834-1.677-1.455-2.933-1.975-3.979
	c-0.26-0.526-0.49-0.998-0.711-1.444c-0.234-0.437-0.461-0.846-0.686-1.257c-0.451-0.82-0.9-1.64-1.465-2.664
	c-0.283-0.514-0.596-1.074-0.955-1.715c-0.361-0.633-0.811-1.319-1.305-2.117c-0.996-1.586-1.77-2.761-2.432-3.727
	c-0.711-0.936-1.297-1.67-1.887-2.4c-1.162-1.475-2.322-2.946-4.637-5.884c-0.564-0.743-1.064-1.393-1.508-1.973
	c-0.461-0.564-0.867-1.062-1.236-1.514c-0.729-0.912-1.316-1.639-1.898-2.367c-1.135-1.493-2.41-2.86-4.959-5.606
	c-2.637-2.665-3.955-3.993-5.273-5.326c-1.375-1.27-2.719-2.584-5.582-5.013c-2.943-2.333-4.432-3.487-6.045-4.468
	c-0.793-0.509-1.582-1.017-2.557-1.672c-0.486-0.333-1.016-0.698-1.619-1.111c-0.615-0.398-1.305-0.841-2.092-1.351
	c-3.115-2.094-4.668-3.14-6.224-4.187c-0.774-0.527-1.555-1.056-2.547-1.689c-1.004-0.606-2.252-1.267-3.92-2.14
	c-0.86-0.446-1.613-0.837-2.287-1.184c-0.688-0.319-1.291-0.601-1.84-0.855c-1.1-0.515-1.977-0.924-2.855-1.334
	c-0.439-0.207-0.88-0.411-1.346-0.629c-0.479-0.194-0.984-0.399-1.546-0.628c-1.126-0.449-2.478-0.986-4.281-1.704
	c-1.82-0.669-3.214-1.094-4.361-1.481c-1.155-0.369-2.071-0.692-3.005-0.949c-0.938-0.252-1.874-0.505-3.043-0.821
	c-0.586-0.162-1.229-0.339-1.957-0.541c-0.364-0.102-0.752-0.208-1.163-0.324c-0.417-0.098-0.859-0.2-1.331-0.309
	c-3.778-0.871-5.667-1.313-7.586-1.591c-0.956-0.162-1.91-0.321-3.104-0.524c-0.6-0.092-1.248-0.236-2.001-0.323
	c-0.75-0.094-1.592-0.201-2.551-0.319c-1.925-0.231-3.359-0.459-4.567-0.548c-1.207-0.093-2.172-0.164-3.138-0.238
	c-0.967-0.073-1.93-0.146-3.138-0.236c-1.21-0.032-2.661-0.072-4.596-0.123c-0.968-0.024-1.815-0.047-2.571-0.064
	c-0.755,0.018-1.422,0.032-2.027,0.047c-1.208,0.033-2.176,0.06-3.143,0.086c-1.938,0.007-3.864,0.202-7.728,0.491
	c-0.482,0.034-0.937,0.068-1.36,0.099c-0.425,0.051-0.824,0.097-1.2,0.141c-0.753,0.077-1.413,0.147-2.015,0.211
	c-1.208,0.114-2.175,0.188-3.144,0.262c-1.933,0.187-3.858,0.458-7.681,1.147c-3.274,0.763-5.12,1.251-6.753,1.756
	c-1.084,0.305-2.368,0.664-4.021,1.127c-0.932,0.27-1.751,0.492-2.475,0.721c-0.716,0.247-1.347,0.465-1.919,0.664
	c-1.144,0.402-2.057,0.728-2.972,1.051c-0.456,0.164-0.912,0.326-1.397,0.5c-0.478,0.195-0.982,0.4-1.545,0.629
	c-1.124,0.448-2.474,0.987-4.274,1.708c-1.783,0.756-3.094,1.39-4.197,1.888c-1.095,0.519-1.99,0.892-2.843,1.35
	c-0.86,0.45-1.717,0.9-2.79,1.462c-1.063,0.578-2.388,1.183-4.051,2.178c-2.879,1.665-4.544,2.576-5.95,3.525
	c-1.42,0.932-2.709,1.69-4.78,3.116c-0.765,0.455-1.559,0.934-2.52,1.553c-0.95,0.64-2.12,1.349-3.491,2.464
	c-1.505,1.182-2.632,2.085-3.565,2.845c-0.939,0.752-1.621,1.44-2.336,2.077c-1.399,1.311-2.847,2.529-5.501,5.155
	c-1.491,1.358-2.544,2.192-3.677,3.316c-0.576,0.552-1.195,1.15-1.935,1.889c-0.73,0.745-1.616,1.594-2.595,2.767
	c-1.274,1.468-2.206,2.585-2.969,3.528c-0.762,0.943-1.288,1.767-1.853,2.555c-1.104,1.6-2.271,3.143-4.474,6.327
	c-1.125,1.574-1.964,2.76-2.586,3.797c-0.641,1.026-1.154,1.848-1.665,2.669c-1.058,1.621-1.954,3.337-3.89,6.686
	c-0.542,0.904-0.922,1.731-1.292,2.447c-0.357,0.721-0.671,1.348-0.954,1.918c-0.548,1.146-1.023,2.04-1.431,3.02
	c-0.772,1.427-1.635,2.978-2.887,5.933c-0.829,2.168-1.33,3.646-1.714,4.885c-0.393,0.83-0.692,1.546-0.982,2.23
	c-0.293,0.683-0.573,1.333-0.88,2.045c-0.303,0.714-0.62,1.497-0.98,2.447c-0.368,0.945-0.674,2.093-1.087,3.495
	c-0.514,1.87-0.952,3.261-1.187,4.451c-0.244,1.187-0.439,2.139-0.634,3.088c-0.189,0.952-0.38,1.901-0.616,3.09
	c-0.188,1.196-0.425,2.632-0.757,4.538c-0.147,0.879-0.297,1.646-0.392,2.333c-0.081,0.69-0.154,1.298-0.219,1.852
	c-0.128,1.105-0.229,1.989-0.331,2.874c-0.24,1.765-0.313,3.546-0.55,7.093c-0.147,1.776-0.145,3.108-0.151,4.22
	c-0.004,1.111-0.008,2.001-0.013,2.889c-0.046,1.776,0.075,3.55,0.195,7.101c0.029,0.761,0.058,1.436,0.081,2.051
	c0.008,1.522,0.013,2.677,0.021,4.108c0.011,0.718,0.029,1.505,0.07,2.438c0.048,0.936,0.191,2.012,0.344,3.32
	c0.244,1.921,0.378,3.372,0.571,4.568c0.198,1.196,0.355,2.152,0.514,3.108c0.161,0.957,0.321,1.913,0.522,3.109
	c0.268,1.184,0.589,2.602,1.017,4.495c0.221,0.945,0.402,1.773,0.597,2.506c0.212,0.728,0.396,1.369,0.565,1.949
	c0.348,1.163,0.625,2.094,0.903,3.021c0.14,0.464,0.28,0.929,0.43,1.422c0.171,0.484,0.352,1,0.551,1.572
	c0.395,1.146,0.867,2.521,1.495,4.354c0.664,1.819,1.235,3.159,1.677,4.285c0.463,1.121,0.798,2.03,1.206,2.909
	c0.408,0.878,0.815,1.757,1.324,2.856c0.254,0.551,0.53,1.156,0.846,1.843c0.159,0.343,0.318,0.713,0.507,1.097
	c0.194,0.38,0.401,0.783,0.623,1.214c0.882,1.725,1.543,3.017,2.097,4.095c0.55,1.077,1.071,1.896,1.543,2.742
	c0.975,1.672,1.876,3.391,4.009,6.626c1.044,1.632,1.82,2.859,2.544,3.828c0.703,0.986,1.267,1.774,1.827,2.563
	c1.093,1.601,2.329,3.093,4.716,6.143c0.585,0.773,1.154,1.402,1.637,1.983c0.48,0.583,0.905,1.095,1.293,1.562
	c0.757,0.947,1.362,1.707,1.965,2.465c0.634,0.735,1.265,1.473,2.077,2.376c0.408,0.447,0.858,0.942,1.369,1.502
	c0.259,0.276,0.534,0.569,0.827,0.885c0.298,0.305,0.633,0.613,0.981,0.951c2.448,2.307,3.838,3.61,5.221,4.629
	c0.847,0.739,1.854,1.614,3.148,2.744c0.721,0.646,1.407,1.148,2.001,1.619c0.599,0.464,1.126,0.871,1.604,1.245
	c0.962,0.734,1.728,1.332,2.509,1.904c0.8,0.552,1.596,1.104,2.593,1.792c0.497,0.348,1.043,0.729,1.663,1.164
	c0.309,0.219,0.635,0.451,0.985,0.696c0.359,0.232,0.74,0.479,1.148,0.74c1.636,1.041,2.861,1.823,3.882,2.474
	c1.013,0.662,1.889,1.089,2.726,1.576c1.7,0.931,3.345,1.958,6.816,3.681c1.486,0.742,2.627,1.384,3.639,1.821
	c1.004,0.452,1.823,0.823,2.599,1.172c1.547,0.698,2.894,1.345,5.249,2.233c1.605,0.765,3.315,1.688,6.674,2.772
	c1.82,0.599,3.177,1.1,4.345,1.394c1.167,0.301,2.101,0.542,3.027,0.78c0.931,0.237,1.854,0.47,2.996,0.757
	c1.153,0.253,2.526,0.552,4.351,0.949c0.978,0.246,1.783,0.491,2.548,0.672c0.768,0.177,1.481,0.342,2.259,0.521
	c0.778,0.177,1.62,0.362,2.643,0.568c0.514,0.104,1.07,0.222,1.688,0.324c0.623,0.081,1.304,0.174,2.06,0.273
	c1.926,0.246,3.375,0.401,4.582,0.514c1.212,0.07,2.185,0.075,3.154,0.101c1.941,0.024,3.876,0.136,7.745,0.184
	c3.868,0.148,5.803-0.019,7.737-0.078c0.965-0.044,1.932-0.064,3.138-0.133c1.207-0.096,2.649-0.212,4.579-0.365
	c2.102-0.125,3.619-0.365,4.876-0.544c1.258-0.188,2.256-0.338,3.304-0.495c0.818-0.021,1.66-0.123,2.695-0.268
	c1.036-0.145,2.265-0.341,3.839-0.639c1.145-0.195,2.08-0.454,2.894-0.675c0.814-0.224,1.5-0.427,2.119-0.619
	c1.803-0.323,3.082-0.459,4.594-0.801c0.761-0.157,1.584-0.338,2.57-0.578c0.981-0.258,2.148-0.504,3.523-1
	c3.674-1.248,5.508-1.883,7.277-2.688c0.891-0.38,1.783-0.758,2.898-1.233c1.129-0.442,2.439-1.066,4.201-1.875
	c1.614-0.753,2.846-1.277,3.83-1.794c0.982-0.52,1.771-0.934,2.559-1.351c0.787-0.415,1.574-0.835,2.553-1.354
	c0.975-0.537,2.113-1.236,3.648-2.132c1.537-0.899,2.685-1.575,3.599-2.211c0.924-0.62,1.66-1.114,2.402-1.608
	c0.73-0.507,1.486-0.971,2.381-1.628c0.895-0.655,1.971-1.44,3.406-2.488c1.453-1.022,2.475-1.875,3.336-2.576
	c0.857-0.702,1.547-1.265,2.229-1.828c0.344-0.279,0.686-0.563,1.051-0.86c0.352-0.315,0.723-0.647,1.137-1.019
	c0.826-0.734,1.822-1.618,3.145-2.797c0.676-0.577,1.232-1.116,1.738-1.587c0.51-0.471,0.967-0.878,1.383-1.242
	c0.84-0.73,1.537-1.295,2.23-1.86c1.363-1.152,2.678-2.37,5.115-4.963c2.299-2.717,3.357-4.146,4.355-5.612
	c0.484-0.746,0.965-1.493,1.598-2.4c0.318-0.456,0.668-0.952,1.078-1.51c0.404-0.558,0.887-1.164,1.379-1.9
	c1.018-1.447,1.781-2.534,2.418-3.44c0.318-0.45,0.609-0.856,0.883-1.239c0.256-0.396,0.494-0.766,0.738-1.137
	c0.479-0.744,0.959-1.49,1.559-2.42c0.594-0.934,1.332-2.038,2.172-3.595c0.867-1.544,1.516-2.703,2.055-3.667
	c0.547-0.959,0.898-1.774,1.299-2.562c0.389-0.794,0.781-1.587,1.27-2.576c0.24-0.499,0.525-1.036,0.809-1.665
	c0.281-0.631,0.594-1.34,0.945-2.148c0.717-1.615,1.254-2.825,1.705-3.836c0.41-1.025,0.74-1.846,1.068-2.667
	c0.652-1.643,1.371-3.261,2.428-6.637c1.145-3.343,1.646-5.041,2.209-6.725c0.275-0.842,0.555-1.683,0.881-2.742
	c0.293-1.066,0.588-2.364,0.973-4.091c0.814-3.447,0.867-5.234,1.063-6.987c0.09-0.876,0.184-1.753,0.295-2.851
	c0.08-1.1,0.203-2.414,0.408-4.164c0.102-0.874,0.193-1.639,0.273-2.321c0.07-0.685,0.094-1.29,0.139-1.839
	c0.078-1.099,0.145-1.977,0.205-2.854c0.055-0.879,0.146-1.756,0.188-2.856c0.02-1.1,0.045-2.42,0.076-4.179
	c0.047-1.813-0.291-2.51-0.824-2.51C274.437,138.56,273.126,139.235,273.079,141.014z" class="color c1"/>
</svg>