<svg version="1.1" id="图层_1" x="0px" y="0px" width="249.858px" height="249.001px" viewBox="0 0 249.858 249.001" enable-background="new 0 0 249.858 249.001" xml:space="preserve" xmlns="http://www.w3.org/2000/svg" xmlns:xlink="http://www.w3.org/1999/xlink" xmlns:xml="http://www.w3.org/XML/1998/namespace">
  <path fill="#434244" d="M38.281,43.49c-0.645,1.166-1.787,1.543-3.009,0.994c-0.728-0.328-1.194-0.797-1.44-1.504
	c-0.01-0.205-0.094-0.508-0.036-0.785c0.258-1.277,1.447-2.27,2.726-2.271c0.283,0,0.595,0.086,0.841,0.225
	C38.487,40.777,38.909,42.357,38.281,43.49z M45.058,32.029c-0.266-0.111-0.588-0.16-0.871-0.125
	c-1.285,0.162-2.359,1.299-2.464,2.617c-0.025,0.285,0.097,0.582,0.134,0.787c0.332,0.68,0.858,1.094,1.63,1.334
	c1.298,0.4,2.397-0.117,2.903-1.365C46.883,34.059,46.265,32.523,45.058,32.029z M21.697,185.672
	c-0.277-0.061-0.601-0.053-0.872,0.029c-1.222,0.377-2.071,1.672-1.945,2.973c0.025,0.281,0.193,0.549,0.266,0.744
	c0.441,0.602,1.024,0.916,1.816,1.016c1.332,0.17,2.316-0.525,2.591-1.83C23.823,187.336,22.958,185.945,21.697,185.672z
	 M43.417,212.254c-1.042-0.338-2.277,0.152-2.829,1.127c-0.12,0.209-0.135,0.48-0.18,0.65c0.011,0.641,0.266,1.148,0.774,1.609
	c0.85,0.773,1.884,0.771,2.718-0.006c0.815-0.76,0.894-2.158,0.145-2.975C43.878,212.484,43.649,212.328,43.417,212.254z
	 M51.45,219.158c-0.279-0.078-0.611-0.09-0.893-0.021c-1.271,0.313-2.216,1.59-2.166,2.926c0.011,0.289,0.168,0.572,0.23,0.773
	c0.413,0.645,0.991,0.998,1.796,1.148c1.351,0.25,2.398-0.402,2.76-1.719C53.526,220.984,52.724,219.512,51.45,219.158z
	 M24.205,58.092c-0.24-0.174-0.554-0.305-0.847-0.342c-1.331-0.156-2.697,0.725-3.129,2.023c-0.093,0.281-0.044,0.609-0.058,0.828
	c0.166,0.764,0.593,1.311,1.31,1.744c1.203,0.725,2.443,0.479,3.261-0.656C25.537,60.588,25.296,58.889,24.205,58.092z
	 M27.924,195.605c-1.093-0.184-2.256,0.488-2.665,1.543c-0.087,0.229-0.061,0.502-0.081,0.678c0.106,0.641,0.436,1.109,1.011,1.496
	c0.964,0.646,1.998,0.492,2.718-0.408c0.702-0.879,0.576-2.291-0.296-2.994C28.42,195.766,28.167,195.646,27.924,195.605z
	 M29.298,48.455c-0.258-0.068-0.563-0.076-0.819-0.01c-1.17,0.297-2.029,1.477-1.971,2.705c0.011,0.266,0.155,0.525,0.216,0.709
	c0.386,0.59,0.921,0.912,1.66,1.043c1.244,0.219,2.203-0.387,2.524-1.6C31.222,50.121,30.473,48.773,29.298,48.455z M35.067,203.334
	c-0.321-0.072-0.696-0.063-1.008,0.031c-1.418,0.432-2.407,1.928-2.267,3.432c0.029,0.326,0.221,0.637,0.306,0.859
	c0.506,0.703,1.18,1.064,2.097,1.186c1.54,0.201,2.681-0.6,3.008-2.105C37.519,205.27,36.525,203.656,35.067,203.334z
	 M91.686,239.705c-0.218-0.096-0.486-0.141-0.723-0.115c-1.063,0.111-1.971,1.039-2.078,2.127c-0.021,0.236,0.072,0.482,0.101,0.652
	c0.265,0.57,0.694,0.92,1.328,1.131c1.067,0.352,1.986-0.061,2.424-1.086C93.163,241.414,92.677,240.133,91.686,239.705z
	 M83.274,8.646c-1.352-0.348-2.879,0.369-3.505,1.646c-0.137,0.277-0.133,0.621-0.178,0.842c0.063,0.813,0.427,1.436,1.104,1.982
	c1.141,0.916,2.45,0.834,3.451-0.219c0.975-1.021,0.968-2.809-0.048-3.783C83.877,8.902,83.572,8.725,83.274,8.646z M72.519,12.902
	c-1.148-0.279-2.434,0.348-2.945,1.438c-0.111,0.234-0.106,0.527-0.142,0.715c0.065,0.688,0.381,1.211,0.961,1.666
	c0.978,0.76,2.085,0.674,2.92-0.23c0.812-0.877,0.782-2.391-0.089-3.201C73.033,13.109,72.773,12.965,72.519,12.902z M63.013,19.182
	c-1.025-0.295-2.214,0.225-2.721,1.191c-0.108,0.209-0.114,0.473-0.15,0.641c0.031,0.623,0.295,1.111,0.804,1.543
	c0.854,0.725,1.861,0.689,2.65-0.096c0.769-0.766,0.798-2.135,0.041-2.902C63.471,19.391,63.243,19.25,63.013,19.182z
	 M70.937,231.455c-0.254-0.131-0.571-0.205-0.856-0.193c-1.287,0.053-2.45,1.098-2.662,2.396c-0.047,0.281,0.049,0.586,0.069,0.793
	c0.275,0.701,0.762,1.154,1.508,1.459c1.255,0.508,2.395,0.082,2.998-1.119C72.584,233.625,72.096,232.047,70.937,231.455z
	 M61.015,225.422c-0.255-0.082-0.562-0.105-0.823-0.055c-1.188,0.236-2.112,1.373-2.119,2.609c-0.004,0.268,0.129,0.535,0.181,0.723
	c0.354,0.613,0.873,0.965,1.609,1.135c1.237,0.287,2.23-0.273,2.617-1.473C62.854,227.193,62.174,225.801,61.015,225.422z
	 M53.836,25.166c-0.214-0.137-0.492-0.232-0.746-0.246c-1.155-0.063-2.28,0.77-2.58,1.912c-0.066,0.248-0.008,0.527-0.008,0.715
	c0.186,0.65,0.582,1.098,1.223,1.43c1.077,0.559,2.129,0.275,2.77-0.742C55.122,27.242,54.822,25.793,53.836,25.166z
	 M81.115,235.625c-1.204-0.262-2.529,0.426-3.039,1.576c-0.108,0.248-0.094,0.553-0.125,0.75c0.084,0.715,0.427,1.252,1.045,1.711
	c1.037,0.77,2.192,0.652,3.039-0.313c0.825-0.939,0.755-2.514-0.175-3.34C81.657,235.828,81.38,235.684,81.115,235.625z
	 M221.483,52.801c0.89,0.58,1.829,0.424,2.476-0.404c0.627-0.809,0.496-2.096-0.305-2.727c-0.179-0.137-0.409-0.244-0.63-0.279
	c-0.999-0.154-2.05,0.471-2.41,1.439c-0.081,0.209-0.052,0.457-0.067,0.619C220.651,52.031,220.957,52.455,221.483,52.801z
	 M236.574,81.236c0.021,0.229,0.154,0.447,0.213,0.604c0.355,0.492,0.826,0.75,1.469,0.834c1.08,0.143,1.884-0.414,2.112-1.473
	c0.226-1.027-0.468-2.16-1.489-2.391c-0.227-0.047-0.488-0.045-0.711,0.021C237.176,79.133,236.478,80.182,236.574,81.236z
	 M233.346,72.543c1.314,0.717,2.619,0.393,3.437-0.85c0.796-1.211,0.462-3.004-0.737-3.803c-0.264-0.174-0.604-0.299-0.92-0.32
	c-1.423-0.107-2.83,0.893-3.23,2.297c-0.086,0.301-0.02,0.648-0.022,0.881C232.082,71.553,232.561,72.113,233.346,72.543z
	 M11.863,82.654c1.396,0.441,2.589-0.111,3.143-1.457c0.539-1.311-0.118-2.973-1.42-3.514c-0.286-0.119-0.637-0.174-0.941-0.139
	c-1.387,0.166-2.554,1.389-2.674,2.811c-0.026,0.309,0.102,0.629,0.14,0.852C10.465,81.941,11.03,82.393,11.863,82.654z
	 M242.656,102.322c-0.028,0.25,0.063,0.516,0.088,0.697c0.265,0.613,0.705,0.998,1.373,1.242c1.125,0.408,2.115,0,2.614-1.078
	c0.483-1.049,0.009-2.428-1.032-2.914c-0.229-0.107-0.514-0.162-0.762-0.145C243.799,100.211,242.807,101.168,242.656,102.322z
	 M239.843,91.863c0.198,0.734,0.636,1.244,1.353,1.629c1.2,0.645,2.387,0.346,3.126-0.789c0.717-1.105,0.407-2.74-0.69-3.459
	c-0.242-0.158-0.549-0.268-0.838-0.289c-1.296-0.09-2.574,0.826-2.929,2.109C239.785,91.338,239.846,91.652,239.843,91.863z
	 M243.932,113.346c-0.052,0.248,0.02,0.523,0.033,0.709c0.217,0.637,0.635,1.061,1.291,1.361c1.097,0.498,2.132,0.164,2.715-0.883
	c0.57-1.02,0.199-2.447-0.814-3.018c-0.219-0.125-0.501-0.205-0.756-0.205C245.246,111.307,244.174,112.193,243.932,113.346z
	 M7.498,92.742c1.088,0.777,2.28,0.633,3.141-0.381c0.838-0.984,0.736-2.617-0.241-3.451c-0.215-0.186-0.504-0.332-0.779-0.387
	C8.364,88.277,7.006,89.01,6.5,90.211c-0.107,0.26-0.089,0.576-0.115,0.777C6.485,91.729,6.849,92.279,7.498,92.742z
	 M16.451,176.236c-0.266-0.146-0.603-0.24-0.904-0.24c-1.377,0.002-2.658,1.068-2.938,2.443c-0.061,0.299,0.028,0.627,0.043,0.848
	c0.262,0.76,0.764,1.266,1.547,1.615c1.316,0.594,2.547,0.186,3.24-1.066C18.115,178.615,17.661,176.916,16.451,176.236z
	 M7.014,147.637c0.637-0.986,0.349-2.445-0.63-3.08c-0.216-0.141-0.493-0.238-0.748-0.256c-1.159-0.072-2.294,0.75-2.607,1.895
	c-0.065,0.246-0.011,0.525-0.011,0.713c0.179,0.654,0.572,1.107,1.211,1.447C5.302,148.926,6.36,148.654,7.014,147.637z
	 M8.389,155.111c-0.259-0.1-0.572-0.137-0.846-0.098c-1.236,0.186-2.247,1.314-2.316,2.59c-0.015,0.275,0.108,0.559,0.15,0.758
	c0.339,0.646,0.855,1.035,1.608,1.248c1.263,0.357,2.314-0.172,2.772-1.391C10.204,157.029,9.569,155.559,8.389,155.111z
	 M12.87,169.131c0.604-0.809,0.446-2.074-0.358-2.68c-0.174-0.133-0.405-0.234-0.624-0.264c-0.987-0.133-2.01,0.506-2.346,1.467
	c-0.072,0.209-0.042,0.453-0.053,0.613c0.113,0.572,0.424,0.98,0.952,1.311C11.326,170.131,12.25,169.961,12.87,169.131z
	 M17.405,67.416c-0.262-0.09-0.579-0.123-0.853-0.074c-1.238,0.225-2.221,1.387-2.252,2.67c-0.007,0.279,0.126,0.561,0.173,0.754
	c0.358,0.645,0.89,1.016,1.651,1.209c1.278,0.322,2.321-0.24,2.746-1.477C19.282,69.291,18.603,67.832,17.405,67.416z
	 M6.262,135.582c0.169-1.295-0.812-2.621-2.1-2.795c-0.284-0.037-0.609-0.004-0.871,0.102c-1.2,0.477-1.947,1.848-1.717,3.143
	c0.048,0.279,0.238,0.535,0.326,0.723c0.491,0.57,1.103,0.84,1.906,0.875C5.157,137.689,6.089,136.914,6.262,135.582z
	 M3.401,115.422c1.453,0.381,2.647-0.244,3.146-1.652c0.482-1.369-0.273-3.039-1.636-3.525c-0.297-0.107-0.659-0.146-0.971-0.092
	c-1.412,0.238-2.544,1.551-2.595,3.014c-0.012,0.314,0.136,0.637,0.188,0.861C1.934,114.766,2.533,115.195,3.401,115.422z
	 M4.062,103.463c0.998,0.748,2.114,0.637,2.939-0.287c0.801-0.902,0.741-2.424-0.152-3.229c-0.195-0.176-0.461-0.316-0.72-0.375
	c-1.161-0.26-2.443,0.398-2.941,1.508c-0.107,0.236-0.097,0.533-0.126,0.721C3.14,102.494,3.468,103.016,4.062,103.463z
	 M4.732,125.914c1.002-1.07,0.977-2.92-0.081-3.918c-0.232-0.221-0.553-0.4-0.859-0.479c-1.402-0.35-2.979,0.404-3.617,1.732
	c-0.139,0.289-0.133,0.645-0.175,0.875c0.072,0.84,0.451,1.482,1.161,2.041C2.347,127.105,3.704,127.01,4.732,125.914z
	 M113.998,243.189c-0.276-0.125-0.616-0.191-0.915-0.166c-1.364,0.117-2.543,1.277-2.706,2.664
	c-0.037,0.301,0.078,0.617,0.111,0.836c0.322,0.73,0.859,1.189,1.666,1.475c1.353,0.477,2.538-0.029,3.121-1.328
	C115.844,245.408,115.254,243.758,113.998,243.189z M189.831,18.723c-0.298-0.078-0.651-0.084-0.948-0.006
	c-1.346,0.355-2.324,1.729-2.248,3.146c0.02,0.305,0.189,0.605,0.26,0.818c0.452,0.676,1.072,1.041,1.931,1.186
	c1.438,0.24,2.539-0.471,2.896-1.875C192.07,20.623,191.189,19.074,189.831,18.723z M207.739,32.953
	c-0.208-0.072-0.466-0.094-0.681-0.053c-0.988,0.18-1.766,1.111-1.787,2.133c-0.002,0.221,0.103,0.447,0.143,0.602
	c0.288,0.514,0.713,0.809,1.319,0.959c1.021,0.252,1.852-0.199,2.185-1.189C209.242,34.443,208.695,33.279,207.739,32.953z
	 M215.127,204.861c-0.288-0.104-0.641-0.141-0.941-0.09c-1.371,0.23-2.471,1.504-2.52,2.922c-0.01,0.307,0.135,0.619,0.182,0.836
	c0.387,0.715,0.969,1.133,1.811,1.355c1.41,0.371,2.566-0.238,3.051-1.602C217.178,206.953,216.445,205.334,215.127,204.861z
	 M222.695,196.672c-1.335-0.27-2.784,0.506-3.328,1.783c-0.119,0.275-0.096,0.609-0.126,0.828c0.103,0.785,0.488,1.375,1.175,1.871
	c1.154,0.834,2.427,0.686,3.348-0.389c0.898-1.047,0.795-2.783-0.242-3.68C223.295,196.891,222.99,196.73,222.695,196.672z
	 M229.302,187.688c-0.215-0.166-0.503-0.295-0.77-0.334c-1.226-0.178-2.502,0.6-2.93,1.787c-0.092,0.256-0.056,0.559-0.073,0.758
	c0.131,0.709,0.515,1.223,1.162,1.639c1.093,0.697,2.237,0.498,3.018-0.523C230.469,190.016,230.289,188.447,229.302,187.688z
	 M207.078,212.85c-0.289-0.098-0.631-0.127-0.928-0.068c-1.341,0.264-2.389,1.545-2.405,2.943c0,0.301,0.147,0.605,0.203,0.82
	c0.401,0.689,0.985,1.088,1.817,1.283c1.396,0.33,2.518-0.301,2.959-1.656C209.152,214.855,208.39,213.281,207.078,212.85z
	 M198.211,220.609c-0.223-0.061-0.491-0.066-0.717-0.012c-1.021,0.254-1.775,1.281-1.729,2.355c0.009,0.232,0.136,0.461,0.186,0.621
	c0.333,0.518,0.8,0.799,1.447,0.918c1.089,0.197,1.924-0.328,2.212-1.389C199.889,222.072,199.238,220.891,198.211,220.609z
	 M199.369,25.602c-0.988-0.199-2.059,0.381-2.46,1.324c-0.085,0.205-0.069,0.453-0.092,0.615c0.076,0.582,0.362,1.018,0.874,1.383
	c0.855,0.615,1.797,0.502,2.476-0.295c0.663-0.775,0.585-2.063-0.185-2.723C199.814,25.76,199.586,25.646,199.369,25.602z
	 M215.438,40.781c-0.227-0.045-0.49-0.029-0.707,0.045c-0.988,0.332-1.648,1.406-1.515,2.461c0.024,0.225,0.168,0.439,0.23,0.596
	c0.372,0.482,0.854,0.723,1.499,0.785c1.088,0.107,1.872-0.48,2.067-1.545C217.203,42.086,216.469,40.973,215.438,40.781z
	 M229.31,58.367c-0.269-0.1-0.591-0.135-0.874-0.088c-1.271,0.207-2.293,1.381-2.35,2.693c-0.011,0.285,0.119,0.572,0.164,0.775
	c0.355,0.666,0.896,1.057,1.672,1.264c1.303,0.354,2.381-0.203,2.835-1.467C231.197,60.318,230.528,58.814,229.31,58.367z
	 M246.629,135.18c-0.216-0.082-0.473-0.115-0.697-0.082c-1.018,0.15-1.848,1.076-1.908,2.125c-0.014,0.227,0.09,0.459,0.125,0.621
	c0.273,0.533,0.699,0.852,1.319,1.027c1.035,0.297,1.899-0.137,2.278-1.137C248.115,136.76,247.598,135.549,246.629,135.18z
	 M249.644,124.684c-0.001-0.963-0.583-1.922-1.497-2.258c-0.255-0.092-0.562-0.129-0.83-0.086c-1.07,0.175-1.953,1.072-2.177,2.143
	c-0.121,0.146-0.23,0.304-0.321,0.475c-0.148,0.27-0.156,0.611-0.206,0.83c0.034,0.811,0.374,1.441,1.032,2.006
	c1.1,0.949,2.404,0.914,3.437-0.098C249.869,126.925,250.061,125.674,249.644,124.684z M245.705,145.943
	c-1.263-0.365-2.721,0.271-3.348,1.459c-0.137,0.256-0.141,0.582-0.188,0.789c0.037,0.768,0.361,1.365,0.988,1.898
	c1.047,0.893,2.285,0.854,3.255-0.111c0.952-0.941,0.99-2.623,0.061-3.568C246.268,146.203,245.988,146.025,245.705,145.943z
	 M235.028,177.484c-1.437-0.385-3.072,0.369-3.753,1.729c-0.144,0.293-0.144,0.66-0.191,0.896c0.059,0.865,0.442,1.531,1.162,2.119
	c1.209,0.988,2.605,0.908,3.68-0.205c1.051-1.084,1.054-2.986-0.02-4.033C235.669,177.762,235.344,177.568,235.028,177.484z
	 M243.064,156.506c-0.291-0.143-0.65-0.223-0.971-0.203c-1.452,0.088-2.739,1.287-2.953,2.76c-0.047,0.316,0.066,0.658,0.094,0.891
	c0.323,0.787,0.883,1.291,1.734,1.615c1.422,0.545,2.698,0.043,3.354-1.322C244.964,158.916,244.382,157.148,243.064,156.506z
	 M238.53,167.346c-0.265-0.057-0.579-0.049-0.837,0.031c-1.178,0.361-1.993,1.609-1.871,2.861c0.025,0.27,0.188,0.527,0.256,0.715
	c0.426,0.58,0.985,0.879,1.75,0.977c1.28,0.16,2.229-0.51,2.49-1.766C240.578,168.943,239.743,167.607,238.53,167.346z
	 M159.061,240.092c-0.24-0.184-0.555-0.324-0.852-0.367c-1.348-0.197-2.756,0.662-3.229,1.967c-0.102,0.283-0.062,0.617-0.08,0.838
	c0.146,0.779,0.564,1.346,1.279,1.805c1.205,0.77,2.467,0.549,3.327-0.576C160.346,242.66,160.145,240.93,159.061,240.092z
	 M126.193,0.061c-1.253-0.277-2.634,0.43-3.169,1.625c-0.117,0.258-0.104,0.574-0.135,0.777c0.082,0.746,0.437,1.307,1.077,1.787
	c1.076,0.805,2.276,0.689,3.164-0.311c0.862-0.971,0.799-2.611-0.164-3.473C126.756,0.277,126.468,0.123,126.193,0.061z
	 M136.623,243.572c-0.254-0.15-0.577-0.25-0.872-0.26c-1.339-0.035-2.612,0.969-2.922,2.303c-0.066,0.287,0.011,0.607,0.018,0.824
	c0.236,0.746,0.711,1.25,1.462,1.613c1.267,0.611,2.474,0.25,3.182-0.953C138.181,245.932,137.784,244.264,136.623,243.572z
	 M147.255,241.738c-0.319-0.09-0.695-0.107-1.015-0.029c-1.453,0.342-2.54,1.787-2.494,3.307c0.01,0.33,0.185,0.654,0.255,0.883
	c0.467,0.738,1.12,1.146,2.034,1.324c1.535,0.297,2.733-0.436,3.154-1.932C149.6,243.838,148.697,242.154,147.255,241.738z
	 M124.877,244.887c-0.23-0.088-0.514-0.125-0.757-0.088c-1.105,0.16-2.011,1.166-2.078,2.303c-0.014,0.248,0.096,0.502,0.132,0.678
	c0.3,0.582,0.762,0.928,1.43,1.121c1.128,0.324,2.071-0.145,2.484-1.23C126.49,246.609,125.93,245.293,124.877,244.887z
	 M137.432,1.393c-1.232-0.305-2.619,0.361-3.179,1.531c-0.12,0.256-0.114,0.57-0.15,0.771c0.066,0.74,0.401,1.305,1.023,1.795
	c1.047,0.822,2.241,0.734,3.145-0.232c0.878-0.941,0.852-2.568-0.082-3.445C137.983,1.617,137.705,1.459,137.432,1.393z
	 M102.481,241.738c-0.296-0.088-0.646-0.109-0.945-0.043c-1.36,0.299-2.396,1.629-2.374,3.047c0.004,0.309,0.162,0.613,0.224,0.828
	c0.423,0.693,1.028,1.086,1.877,1.264c1.429,0.299,2.555-0.367,2.973-1.756C104.637,243.73,103.823,242.146,102.481,241.738z
	 M114.502,0.824c-0.312-0.053-0.674-0.021-0.969,0.084c-1.34,0.492-2.211,1.986-1.997,3.428c0.046,0.313,0.249,0.602,0.341,0.811
	c0.526,0.65,1.194,0.963,2.085,1.031c1.493,0.107,2.55-0.725,2.783-2.193C116.971,2.555,115.926,1.055,114.502,0.824z
	 M104.193,3.107c-0.198-0.146-0.457-0.252-0.701-0.283c-1.104-0.135-2.233,0.592-2.596,1.666c-0.076,0.232-0.039,0.502-0.05,0.682
	c0.136,0.637,0.486,1.09,1.079,1.449c0.994,0.605,2.021,0.4,2.7-0.533C105.288,5.18,105.095,3.77,104.193,3.107z M180.387,13.504
	c-0.205-0.08-0.455-0.115-0.675-0.086c-0.991,0.135-1.812,1.027-1.878,2.045c-0.018,0.219,0.078,0.447,0.111,0.605
	c0.263,0.523,0.672,0.838,1.271,1.016c1.003,0.299,1.853-0.113,2.229-1.082C181.814,15.059,181.326,13.875,180.387,13.504z
	 M148.506,2.703c-0.252-0.096-0.559-0.137-0.826-0.096c-1.207,0.178-2.194,1.277-2.265,2.521c-0.015,0.268,0.104,0.545,0.146,0.738
	c0.325,0.633,0.829,1.012,1.562,1.223c1.232,0.35,2.262-0.164,2.711-1.352C150.271,4.578,149.654,3.143,148.506,2.703z
	 M178.927,232.605c-0.235-0.033-0.501-0.008-0.719,0.078c-0.992,0.383-1.617,1.51-1.437,2.578c0.041,0.23,0.195,0.441,0.268,0.598
	c0.402,0.475,0.903,0.697,1.564,0.732c1.114,0.061,1.886-0.574,2.037-1.672C180.786,233.854,179.987,232.756,178.927,232.605z
	 M188.81,226c-0.297-0.076-0.648-0.08-0.94,0c-1.342,0.359-2.313,1.73-2.226,3.143c0.017,0.307,0.191,0.602,0.261,0.814
	c0.455,0.672,1.075,1.033,1.928,1.172c1.435,0.232,2.527-0.482,2.877-1.883C191.049,227.883,190.164,226.346,188.81,226z
	 M169.842,9.395c-1.047-0.188-2.166,0.449-2.567,1.455c-0.086,0.219-0.063,0.48-0.083,0.65c0.094,0.615,0.407,1.066,0.953,1.441
	c0.92,0.629,1.911,0.49,2.61-0.367c0.681-0.836,0.567-2.193-0.259-2.873C170.314,9.553,170.072,9.436,169.842,9.395z
	 M169.127,236.316c-0.24-0.125-0.539-0.197-0.805-0.189c-1.215,0.045-2.314,1.023-2.521,2.246c-0.047,0.264,0.042,0.549,0.061,0.744
	c0.253,0.664,0.712,1.094,1.413,1.383c1.179,0.484,2.253,0.09,2.829-1.035C170.665,238.365,170.217,236.877,169.127,236.316z
	 M92.811,5.473c-0.209-0.098-0.47-0.145-0.697-0.123c-1.037,0.094-1.931,0.982-2.051,2.039c-0.024,0.229,0.065,0.469,0.089,0.635
	c0.251,0.555,0.661,0.902,1.273,1.115c1.033,0.357,1.933-0.031,2.371-1.023C94.223,7.152,93.769,5.9,92.811,5.473z M159.637,5.27
	c-1.244-0.369-2.687,0.246-3.311,1.414c-0.134,0.254-0.142,0.572-0.189,0.777c0.033,0.758,0.349,1.348,0.961,1.875
	c1.029,0.891,2.25,0.855,3.215-0.09c0.938-0.918,0.986-2.578,0.076-3.516C160.189,5.525,159.911,5.35,159.637,5.27z" class="color c1"/>
</svg>