<svg version="1.1" id="图层_1" x="0px" y="0px" width="133.773px" height="123.486px" viewBox="0 0 133.773 123.486" enable-background="new 0 0 133.773 123.486" xml:space="preserve" xmlns="http://www.w3.org/2000/svg" xmlns:xlink="http://www.w3.org/1999/xlink" xmlns:xml="http://www.w3.org/XML/1998/namespace">
  <g>
    <path fill="#FFFFFF" d="M73.364,0.027C73.23,0.013,73.096,0,72.963,0c-3.559,0-6.02,2.884-6.02,6.439
		c0,3.505,1.365,6.354,6.715,6.428v0.021c25.416,0.348,47.648,22.057,47.648,48.703c0,26.86-22.058,49.025-48.919,49.025
		c-25.637,0-46.918-19.343-48.792-44.759h11.311L17.45,36.841L0,65.86h10.702c1.892,32.103,28.738,57.626,61.471,57.626
		c33.963,0,61.6-27.77,61.6-61.74C133.773,28.185,106.777,0.662,73.364,0.027z" class="color c1"/>
    <path fill="#FFFFFF" d="M72.388,92.867c2.127,0,3.866,1.726,3.866,3.867c0,2.141-1.739,3.864-3.866,3.864
		c-2.134,0-3.866-1.724-3.866-3.864C68.522,94.593,70.255,92.867,72.388,92.867z" class="color c1"/>
    <path fill="#FFFFFF" d="M97.923,34.465c2.141,0,3.866,1.732,3.866,3.867c0,2.132-1.726,3.858-3.866,3.858
		c-2.127,0-3.853-1.727-3.853-3.858C94.071,36.197,95.796,34.465,97.923,34.465z" class="color c1"/>
    <path fill="#FFFFFF" d="M97.923,80.816c2.141,0,3.866,1.736,3.866,3.864c0,2.128-1.726,3.867-3.866,3.867
		c-2.127,0-3.853-1.739-3.853-3.867C94.071,82.555,95.796,80.816,97.923,80.816z" class="color c1"/>
    <path fill="#FFFFFF" d="M106.512,58.074c2.14,0,3.866,1.727,3.866,3.86c0,2.132-1.726,3.865-3.866,3.865
		c-2.142,0-3.853-1.733-3.853-3.865C102.659,59.801,104.371,58.074,106.512,58.074z" class="color c1"/>
    <path fill="#FFFFFF" d="M79.01,30.023c0-3.029-2.434-5.632-5.457-5.632h-1.179c-3.023,0-5.403,2.603-5.403,5.632v32.379
		L51.112,78.233c-2.341,2.342-2.221,6.139-0.006,8.468c2.22,2.354,6.111,2.354,8.453,0l17.524-17.524
		c0.134-0.148,0.241-0.296,0.374-0.428c0.964-0.998,1.551-2.35,1.551-3.841V30.023H79.01z" class="color c1"/>
  </g>
</svg>