<svg version="1.1" id="图层_1" x="0px" y="0px" width="252px" height="168px" viewBox="0 0 252 168" enable-background="new 0 0 252 168" xml:space="preserve" xmlns="http://www.w3.org/2000/svg" xmlns:xlink="http://www.w3.org/1999/xlink" xmlns:xml="http://www.w3.org/XML/1998/namespace">
  <path fill="#FFD2B3" d="M252,0h-6v4h6V0L252,0z M238,0h-6v4h6V0L238,0z M224,0h-6v4h6V0L224,0z M210,0h-6v4h6V0L210,0z M196,0h-6v4
	h6V0L196,0z M84,0h-6v4h6V0L84,0z M70,0h-6v4h6V0L70,0z M56,0h-6v4h6V0L56,0z M42,0h-6v4h6V0L42,0z M28,0h-6v4h6V0L28,0z M14,0H8v4
	h6V0L14,0z M4,0H0v6h4V0L4,0z M4,14H0v6h4V14L4,14z M4,28H0v6h4V28L4,28z M4,42H0v6h4V42L4,42z M4,126H0v6h4V126L4,126z M4,140H0v6
	h4V140L4,140z M4,154H0v6h4V154L4,154z M6,164H0v4h6V164L6,164z M20,164h-6v4h6V164L20,164z M34,164h-6v4h6V164L34,164z M48,164h-6
	v4h6V164L48,164z M62,164h-6v4h6V164L62,164z M76,164h-6v4h6V164L76,164z M90,164h-6v4h6V164L90,164z M104,164h-6v4h6V164L104,164z
	 M118,164h-6v4h6V164L118,164z M132,164h-6v4h6V164L132,164z M146,164h-6v4h6V164L146,164z M160,164h-6v4h6V164L160,164z M174,164
	h-6v4h6V164L174,164z M188,164h-6v4h6V164L188,164z M202,164h-6v4h6V164L202,164z M216,164h-6v4h6V164L216,164z M230,164h-6v4h6V164
	L230,164z M244,164h-6v4h6V164L244,164z M252,162h-4v6h4V162L252,162z M252,148h-4v6h4V148L252,148z M252,134h-4v6h4V134L252,134z
	 M252,120h-4v6h4V120L252,120z M252,36h-4v6h4V36L252,36z M252,22h-4v6h4V22L252,22z M252,8h-4v6h4V8L252,8z" class="color c1"/>
</svg>