<svg version="1.1" id="图层_1" x="0px" y="0px" width="75.952px" height="87.438px" viewBox="0 0 75.952 87.438" enable-background="new 0 0 75.952 87.438" xml:space="preserve" xmlns="http://www.w3.org/2000/svg" xmlns:xlink="http://www.w3.org/1999/xlink" xmlns:xml="http://www.w3.org/XML/1998/namespace">
  <path fill="#79983A" d="M75.952,3.694v45.921c0,12.62-6.193,23.721-15.541,30.615c-0.701,0.584-1.402,1.169-2.221,1.519
	c-4.94,3.162-10.635,5.148-16.797,5.688V18.204c1.123-1.575,2.331-3.027,3.594-4.344c-0.021-0.035,5.592-4.816,5.608-4.791
	c9.932-7.245,20.916-8.998,21.149-8.998c1.052-0.233,2.104,0.117,2.922,0.818C75.484,1.591,75.952,2.526,75.952,3.694z
	 M31.099,14.004c-3.473-3.458-7.599-6.125-9.694-7.379C12.628,1.515,4.309,0.188,4.206,0.188C3.154,0.072,2.103,0.306,1.285,1.006
	C0.468,1.708,0,2.642,0,3.811v45.805C0,69.38,15.233,85.698,34.558,87.437V18.213C33.475,16.692,32.313,15.285,31.099,14.004z" class="color c1"/>
</svg>