<svg version="1.1" id="图层_1" x="0px" y="0px" width="127.389px" height="155.254px" viewBox="0 0 127.389 155.254" enable-background="new 0 0 127.389 155.254" xml:space="preserve" xmlns:xml="http://www.w3.org/XML/1998/namespace" xmlns="http://www.w3.org/2000/svg" xmlns:xlink="http://www.w3.org/1999/xlink">
  <path fill="#4666A3" d="M41.586,140.446C22.881,127.952,23.553,94.11,43.092,64.86c7.032-10.526,15.552-19.011,24.443-24.992
	c-17.07,5.07-39.031,15.729-60.282,37.877c-11.839,31.013-9.317,60.273,8.54,72.203c13.844,9.245,33.771,6,53.261-6.544
	C58.926,146.297,49.229,145.553,41.586,140.446z" class="color c1"/>
  <path fill="#4666A3" d="M99.096,29.863c4.817,0.414,9.297,2.023,13.242,4.656c6.684,4.466,10.844,11.685,12.6,20.419
	c2.158-7.644,2.91-14.961,2.183-21.911c-1.207-11.469-6.168-19.292-9.826-23.631c-1.48-1.523-3.105-2.896-4.89-4.088
	c-23.278-15.55-63.775,4.224-90.455,44.166c-3.255,4.87-6.146,9.815-8.685,14.776C55.718,26.637,97.14,29.693,99.096,29.863z" class="color c1"/>
</svg>