<svg version="1.1" id="图层_1" x="0px" y="0px" width="46.041px" height="94.989px" viewBox="0 0 46.041 94.989" enable-background="new 0 0 46.041 94.989" xml:space="preserve" xmlns="http://www.w3.org/2000/svg" xmlns:xlink="http://www.w3.org/1999/xlink" xmlns:xml="http://www.w3.org/XML/1998/namespace">
  <path fill="#FFFFFF" d="M39.006,74.83c-1.365,2.193-2.943,4.208-4.707,6.074H6.006c0.471-1.353,1.014-2.651,1.432-4.037
	c1.709-0.532,3.256-1.238,4.719-2.037H39.006z M21.584,64.706c-1.111,2.312-2.475,4.35-4.133,6.074h23.756
	c0.906-1.914,1.67-3.949,2.318-6.074H21.584z M4.57,84.954C3.197,88.423,1.703,91.798,0,94.989
	c12.381-0.807,22.344-4.16,29.904-10.035H4.57z M24.486,54.582c-0.301,2.177-0.746,4.196-1.324,6.074H44.58
	c0.424-1.946,0.752-3.971,0.982-6.074H24.486z M25.033,47.104c0,1.202-0.1,2.298-0.162,3.429h21.021
	c0.068-1.302,0.148-2.595,0.148-3.951c0-0.728-0.061-1.411-0.08-2.123H24.914C24.949,45.342,25.033,46.176,25.033,47.104z
	 M7.676,14.085c0.383,1.313,0.838,2.579,1.17,3.92c1.66,0.557,3.152,1.309,4.561,2.155H39.49c-1.313-2.178-2.83-4.2-4.547-6.075
	H7.676z M30.691,10.035C23.447,4.169,14.074,0.812,2.551,0c1.475,3.216,2.756,6.585,3.914,10.035H30.691z M23.438,34.333
	c0.52,1.883,0.928,3.892,1.184,6.075h21.123c-0.191-2.106-0.502-4.121-0.895-6.075H23.438z M18.281,24.209
	c1.512,1.727,2.736,3.773,3.742,6.075h21.857c-0.617-2.128-1.373-4.148-2.254-6.075H18.281z" class="color c1"/>
</svg>