<svg version="1.1" id="图层_1" x="0px" y="0px" width="435.699px" height="499.278px" viewBox="0 0 435.699 499.278" enable-background="new 0 0 435.699 499.278" xml:space="preserve" xmlns:xml="http://www.w3.org/XML/1998/namespace" xmlns="http://www.w3.org/2000/svg" xmlns:xlink="http://www.w3.org/1999/xlink">
  <path fill="#10F1AA" d="M429.767,300c-0.849,33.897-5.933,62.711-16.103,88.135c-10.17,25.425-24.576,46.611-43.221,62.713
	c-18.644,16.949-41.525,29.66-68.644,37.287c-27.119,8.477-56.779,11.865-90.679,11.018c-33.898-0.848-64.407-5.932-90.678-15.254
	s-49.153-22.883-66.949-39.83c-17.797-17.797-31.356-38.982-40.678-64.406c-9.322-25.425-13.559-55.086-12.711-88.983L6.039,0
	l138.983,2.542l-5.932,288.983c0,12.712,0.847,25.425,4.237,36.44c2.542,11.017,7.627,20.339,13.559,28.813
	c5.932,8.475,13.56,14.407,23.729,19.492c9.322,5.084,20.339,6.779,33.052,7.627c12.711,0,23.729-1.695,33.897-5.934
	c9.321-4.236,17.796-10.168,24.576-17.795c6.778-7.627,11.863-16.949,15.254-27.967c3.39-11.018,5.085-22.882,5.085-35.594
	l5.933-288.983l137.288,0.848L429.767,300z" class="color c1"/>
</svg>