<svg version="1.1" id="图层_1" x="0px" y="0px" width="442.578px" height="500.542px" viewBox="0 0 442.578 500.542" enable-background="new 0 0 442.578 500.542" xml:space="preserve" xmlns:xml="http://www.w3.org/XML/1998/namespace" xmlns="http://www.w3.org/2000/svg" xmlns:xlink="http://www.w3.org/1999/xlink">
  <path id="XMLID_18_" fill="#FFFFFF" d="M305.525,0c17.335,0,33.586,3.25,48.754,9.209s28.711,14.626,40.087,25.46
	s20.585,23.835,27.085,39.003c6.501,15.168,10.293,31.419,10.293,49.296c0,18.418-2.167,34.128-5.959,47.129
	c-4.334,13.001-9.751,24.377-16.793,33.586s-15.168,16.793-24.377,22.21s-18.96,10.292-29.252,13.542v2.708
	c11.917,2.708,23.293,7.042,33.586,13.001c10.292,5.959,19.501,14.084,27.627,23.835s14.085,22.21,18.96,36.295
	c4.875,14.626,7.042,31.419,7.042,51.462c0,20.044-3.25,37.92-10.292,54.715c-7.043,16.25-16.252,30.336-28.711,42.252
	c-11.918,11.377-26.002,20.586-42.254,27.086c-16.251,6.5-33.586,9.752-52.004,9.752H0V0H305.525z M147.345,109.426v85.59h101.299
	c4.877,0,9.209-1.083,13.543-3.25s8.127-4.875,10.835-8.126c3.25-3.792,5.417-7.584,7.042-12.459s2.709-9.751,2.709-15.71v-7.042
	c0-5.417-1.084-10.292-2.709-15.168s-4.333-8.667-7.584-12.459c-3.25-3.792-6.5-6.5-10.834-8.125
	c-4.334-2.167-8.668-3.25-13.543-3.25L147.345,109.426L147.345,109.426z M147.345,297.941v85.592H259.48
	c4.875,0,9.209-1.084,13.542-3.252c4.334-2.166,8.126-4.875,10.834-8.125c3.251-3.25,5.417-7.584,7.043-12.459
	c1.625-4.876,2.708-9.752,2.708-15.711v-7.584c0-5.416-1.083-10.292-2.708-15.167c-1.626-4.876-4.334-8.667-7.043-12.46
	c-3.25-3.791-6.5-6.5-10.834-8.125c-4.333-2.167-8.667-3.25-13.542-3.25H147.345V297.941z" class="color c1"/>
</svg>