<svg version="1.1" id="图层_1" x="0px" y="0px" width="109.553px" height="151.996px" viewBox="0 0 109.553 151.996" enable-background="new 0 0 109.553 151.996" xml:space="preserve" xmlns="http://www.w3.org/2000/svg" xmlns:xlink="http://www.w3.org/1999/xlink" xmlns:xml="http://www.w3.org/XML/1998/namespace">
  <path fill="#3E301E" d="M70.337,65.268c-0.047-0.02-0.09-0.039-0.137-0.059c-4.201-1.971-8.933-4.002-14.225-6.102
	c-17.958-7.119-29.963-13.949-36.016-20.49c-6.055-6.463-9.082-14.18-9.082-23.152c0-5.32,1.133-10.475,3.393-15.465
	c-2,1.947-3.771,4.039-5.313,6.279c-4.895,7.109-7.34,14.58-7.34,22.41c0,8.973,3.027,16.689,9.082,23.152
	c6.053,6.541,18.059,13.369,36.016,20.49c17.956,7.119,29.628,13.496,35.021,19.133c5.307,5.711,7.962,12.26,7.962,19.646
	c0,2.588-0.311,5.004-0.912,7.262c-0.181,0.68-0.38,1.35-0.616,2c-1.72,4.754-4.895,8.713-9.527,11.871
	c-7.371,5.025-15.941,7.539-25.711,7.539c-7.122,0-13.663-1.465-19.625-4.395c-5.964-2.928-10.414-6.678-13.352-11.242
	c-2.939-4.566-5.775-12.557-8.509-23.971H1.866c0,17.732-0.622,31.961-1.866,42.689c10.948,3.348,20.341,5.707,28.178,7.076
	c7.838,1.369,15.654,2.055,23.451,2.055c11.445,0,22.124-2.229,32.035-6.686c9.91-4.459,17.333-10.422,22.269-17.891
	C107.096,125.658,124.666,88.4,70.337,65.268z" class="color c1"/>
</svg>