<svg version="1.1" id="图层_1" x="0px" y="0px" width="69.902px" height="80.138px" viewBox="0 0 69.902 80.138" enable-background="new 0 0 69.902 80.138" xml:space="preserve" xmlns="http://www.w3.org/2000/svg" xmlns:xlink="http://www.w3.org/1999/xlink" xmlns:xml="http://www.w3.org/XML/1998/namespace">
  <path fill-rule="evenodd" clip-rule="evenodd" fill="#3EB5B5" d="M66.823,11.241c-0.129-0.118-0.26-0.239-0.387-0.356
	C55.124,0.547,41.877-2.565,27.497,2.141C12.872,6.928,2.811,17.532,1.086,32.717c-1.725,15.177-0.879,30.703-0.879,47.42
	c0,0,17.287,0.466,17.982-15.365l0.396-25.109l-0.002-0.001c0.061-0.756,0.123-1.51,0.219-2.258
	c1.301-10.202,9.053-17.685,19.17-18.64c8.172-0.771,16.158,3.601,19.955,10.964c0.539,1.046,0.994,2.151,1.352,3.312
	c0.418,1.352,0.727,2.75,0.963,4.171c0.705-5.431,3.209-14.839,9.66-23.081C68.864,13.153,67.649,12.005,66.823,11.241z" class="color c1"/>
</svg>