<svg version="1.1" id="图层_1" x="0px" y="0px" width="87.873px" height="112.328px" viewBox="0 0 87.873 112.328" enable-background="new 0 0 87.873 112.328" xml:space="preserve" xmlns="http://www.w3.org/2000/svg" xmlns:xlink="http://www.w3.org/1999/xlink" xmlns:xml="http://www.w3.org/XML/1998/namespace">
  <path fill="#00440F" d="M81.056,28.014C76.511,19.378,70.417,12.549,62.776,7.53C55.133,2.51,46.903,0,38.085,0H0v4.884h38.085
	c5.923,0,11.645,1.356,17.161,4.07c5.517,2.713,10.286,6.365,14.313,10.954c4.023,4.591,7.246,10.051,9.666,16.382
	c2.418,6.331,3.629,12.955,3.629,19.874s-1.211,13.556-3.629,19.908c-2.42,6.354-5.643,11.813-9.666,16.381
	c-4.026,4.568-8.797,8.209-14.313,10.922c-5.519,2.713-11.238,4.07-17.161,4.07H0v4.883h38.085c6.602,0,12.966-1.48,19.094-4.441
	c6.129-2.963,11.432-6.953,15.907-11.973s8.062-11,10.75-17.941c2.69-6.94,4.037-14.211,4.037-21.808
	C87.873,46.035,85.601,36.652,81.056,28.014z M57.823,96.354c6.105-4.138,10.966-9.777,14.584-16.924
	c3.617-7.146,5.427-14.898,5.427-23.266c0-8.365-1.81-16.12-5.427-23.267c-3.618-7.145-8.479-12.786-14.584-16.923
	c-6.104-4.138-12.686-6.207-19.738-6.207H0v4.884h38.085c6.149,0,11.893,1.854,17.229,5.563s9.588,8.762,12.754,15.159
	c3.164,6.4,4.748,13.329,4.748,20.791c0,7.507-1.584,14.447-4.748,20.824c-3.166,6.377-7.406,11.42-12.719,15.127
	c-5.313,3.709-11.069,5.563-17.264,5.563H0v4.883h38.085C45.14,102.561,51.72,100.492,57.823,96.354z M52.872,87.91
	c4.566-3.256,8.195-7.711,10.887-13.363c2.69-5.652,4.035-11.779,4.035-18.382c0-6.647-1.345-12.786-4.035-18.416
	c-2.691-5.631-6.32-10.073-10.887-13.329c-4.568-3.256-9.497-4.884-14.787-4.884H0v4.884h38.085c4.431,0,8.535,1.414,12.311,4.239
	c3.775,2.827,6.783,6.682,9.021,11.565c2.238,4.883,3.357,10.198,3.357,15.94c0,8.729-2.432,16.201-7.291,22.417
	C50.622,84.8,44.821,87.91,38.085,87.91H0v4.883h38.085C43.375,92.792,48.304,91.166,52.872,87.91z" class="color c1"/>
</svg>