<svg version="1.1" id="图层_1" x="0px" y="0px" width="125.418px" height="108.42px" viewBox="0 0 125.418 108.42" enable-background="new 0 0 125.418 108.42" xml:space="preserve" xmlns="http://www.w3.org/2000/svg" xmlns:xlink="http://www.w3.org/1999/xlink" xmlns:xml="http://www.w3.org/XML/1998/namespace">
  <path fill="#BBE0CC" d="M72.035,88.219c2.795,1.054,5.996,1.603,9.513,1.646c1.376-2.277,2.558-4.748,3.517-7.421
	c2.025-5.643,3.055-12.264,3.055-19.686V0H67.311v64.635c0,4.345-0.564,8.175-1.68,11.38c-0.697,2.002-1.578,3.788-2.625,5.344
	c0.53,0.744,1.096,1.442,1.707,2.078C66.729,85.543,69.191,87.153,72.035,88.219z M43.438,89.853c-3.2-0.115-6.123-0.66-8.704-1.634
	c-2.844-1.065-5.308-2.676-7.322-4.782c-2.025-2.115-3.616-4.82-4.727-8.037c-1.143-3.312-1.722-7.246-1.722-11.701V0H0v64.323
	c0,7.123,1.018,13.492,3.023,18.924c2.032,5.52,4.986,10.213,8.781,13.945c3.788,3.735,8.418,6.582,13.76,8.455
	c5.243,1.84,11.19,2.772,17.674,2.772c6.787,0,13.005-0.957,18.481-2.848c0.163-0.056,0.317-0.119,0.479-0.179
	c-5.059-1.875-9.466-4.625-13.094-8.203C46.932,95.056,45.046,92.592,43.438,89.853z" class="color c1"/>
  <path fill="#D0DB3D" d="M54.126,88.297c2.711-1.016,5.056-2.545,6.969-4.547c0.688-0.722,1.325-1.521,1.911-2.394
	c-1.229-1.721-2.243-3.711-3.021-5.959c-1.143-3.311-1.722-7.246-1.722-11.7V0H37.301v64.323c0,7.123,1.017,13.492,3.022,18.924
	c0.868,2.359,1.917,4.559,3.115,6.605c0.424,0.014,0.852,0.022,1.283,0.022C48.17,89.875,51.334,89.347,54.126,88.297z M104.611,0
	v64.635c0,4.345-0.565,8.175-1.68,11.38c-1.09,3.12-2.615,5.723-4.537,7.735c-1.912,2.002-4.256,3.531-6.968,4.547
	c-2.794,1.05-5.959,1.578-9.405,1.578c-0.158,0-0.313-0.006-0.475-0.01c-1.574,2.612-3.413,4.969-5.514,7.022
	c-3.807,3.725-8.465,6.58-13.835,8.506c0.223,0.082,0.439,0.174,0.665,0.252c5.245,1.84,11.19,2.773,17.674,2.773
	c6.786,0,13.005-0.957,18.48-2.848c5.578-1.924,10.394-4.848,14.314-8.684c3.934-3.849,6.973-8.707,9.031-14.443
	c2.023-5.644,3.053-12.264,3.053-19.687V0H104.611z" class="color c2"/>
  <path fill="#9CC848" d="M81.548,89.866c-3.517-0.045-6.718-0.594-9.513-1.646c-2.844-1.066-5.309-2.676-7.322-4.783
	c-0.611-0.635-1.177-1.334-1.707-2.078c-0.586,0.871-1.223,1.673-1.911,2.394c-1.913,2.002-4.258,3.531-6.969,4.547
	c-2.792,1.05-5.956,1.578-9.404,1.578c-0.432,0-0.859-0.01-1.283-0.022c1.607,2.739,3.493,5.203,5.667,7.34
	c3.628,3.578,8.035,6.328,13.094,8.203c5.37-1.926,10.028-4.781,13.835-8.506C78.135,94.834,79.973,92.479,81.548,89.866z" class="color c3"/>
</svg>