<svg version="1.1" id="图层_1" x="0px" y="0px" width="166.74px" height="200px" viewBox="0 0 166.74 200" enable-background="new 0 0 166.74 200" xml:space="preserve" xmlns="http://www.w3.org/2000/svg" xmlns:xlink="http://www.w3.org/1999/xlink" xmlns:xml="http://www.w3.org/XML/1998/namespace">
  <path fill="#A9A9A9" d="M24.38,48.759C10.938,48.759,0,37.822,0,24.379S10.938,0,24.38,0s24.38,10.937,24.38,24.379
	S37.822,48.759,24.38,48.759z" class="color c1"/>
  <path fill="#F03844" d="M0,80.358c0-0.229,0.015-0.454,0.029-0.679l0.018-0.288C0.563,66.262,11.252,55.979,24.38,55.979
	c13.005,0,23.664,10.235,24.345,23.073h0.079v29.054c0,4.67,0.497,9.128,1.47,13.363c0.155,6.897,1.488,13.713,4.12,20.259
	c11.313,28.141,43.348,43.314,79.346,40.872c-4.238,3.44-8.923,6.496-14.052,9.121c-10.73,5.493-22.816,8.28-35.92,8.28
	c-13.098,0-25.22-2.74-36.028-8.146c-10.793-5.396-19.75-12.574-26.643-21.36C7.128,152.092,0.045,131.356,0.045,108.86
	l0.002-27.536l-0.018-0.286C0.015,80.812,0,80.587,0,80.358z" class="color c2"/>
  <path fill="#C22634" d="M57.499,138.358c5.667,8.5,14.054,12.631,25.64,12.631c6.474,0,12.128-1.345,16.806-3.999
	c4.649-2.633,8.179-6.156,10.497-10.484c4.833-8.858,7.284-18.33,7.284-28.15V37.26v-4.339c0-2.233,0.118-4.39,0.353-6.416
	c-0.064-0.741-0.097-1.438-0.097-2.126C117.981,10.937,128.918,0,142.36,0c13.443,0,24.38,10.937,24.38,24.379
	c0,0.784-0.043,1.605-0.126,2.441c0.036,0.753,0.064,1.585,0.085,2.475c0.023,1.04,0.036,2.163,0.036,3.375v75.687
	c0,22.838-7,43.577-20.793,61.624c-3.495,4.661-7.584,8.869-12.203,12.618c-35.998,2.442-68.032-12.73-79.346-40.872
	c-2.632-6.546-3.965-13.362-4.12-20.259C51.681,127.59,54.089,133.242,57.499,138.358z" class="color c3"/>
</svg>