<svg version="1.1" id="图层_1" x="0px" y="0px" width="173.509px" height="113.004px" viewBox="0 0 173.509 113.004" enable-background="new 0 0 173.509 113.004" xml:space="preserve" xmlns="http://www.w3.org/2000/svg" xmlns:xlink="http://www.w3.org/1999/xlink" xmlns:xml="http://www.w3.org/XML/1998/namespace">
  <path fill="#FC4F27" d="M144.224,95.643c-8.816,0-16.213-1.729-22.188-5.191c-5.979-3.46-10.316-7.976-13.02-13.547
	c-2.707-5.569-4.057-11.871-4.057-18.902c0-0.578,0.02-1.15,0.039-1.725c0.031-0.794,0.076-1.584,0.146-2.371
	c0.043-1.063,0.068-2.13,0.068-3.206c0-4.867-0.5-9.639-1.5-14.317c-1-4.679-2.447-8.925-4.342-12.737
	c-1.127-2.27-2.469-4.404-3.979-6.434c-1.027-1.381-2.119-2.721-3.322-3.991c-0.293-0.308-0.615-0.587-0.918-0.886
	c-2.777-2.734-5.972-5.064-9.63-6.941c-4.057-2.082-8.805-3.501-14.24-4.259C61.848,0.378,55.938,0,49.557,0
	C44.85,0,39.265,0.08,32.8,0.242c-6.464,0.162-11.67,0.244-15.619,0.244c-5.301,0-10.954-0.053-16.957-0.162
	c0,6.544-0.028,10.574-0.081,12.088L0,17.213h23.523l0.001-0.015c7.896-0.216,14.899-0.326,21.011-0.326
	c9.411,0,16.374,1.149,20.89,3.448c4.515,2.299,8.153,6.058,10.911,11.276c0.488,0.923,0.917,1.909,1.318,2.922
	c1.869,4.717,2.819,10.397,2.819,17.073c0,0.357-0.025,0.711-0.031,1.067c-0.022,1.185-0.084,2.363-0.18,3.535
	c-0.018,0.656-0.044,1.307-0.044,1.969c0,8.275,1.324,15.9,3.975,22.877c1.663,4.383,3.976,8.355,6.933,11.916
	c1.75,2.107,3.723,4.072,5.924,5.891c5.922,4.895,12.574,8.478,19.957,10.749c7.381,2.271,15.129,3.407,23.24,3.407
	c3.678,0,8.084-0.217,13.225-0.65c5.137-0.434,10.789-1.189,16.953-2.271c0.867-6.542,1.895-12.979,3.084-19.307
	C162.152,94.02,152.39,95.643,144.224,95.643z" class="color c1"/>
</svg>