<svg version="1.1" id="图层_1" x="0px" y="0px" width="500px" height="457.506px" viewBox="0 0 500 457.506" enable-background="new 0 0 500 457.506" xml:space="preserve" xmlns:xml="http://www.w3.org/XML/1998/namespace" xmlns="http://www.w3.org/2000/svg" xmlns:xlink="http://www.w3.org/1999/xlink">
  <path id="XMLID_109_" fill="#FFFFFF" d="M0,0h88.852v457.506H0V0z M477.373,264.351c-15.453-19.867-35.873-33.664-62.363-41.392
	c21.523-9.382,38.08-23.73,49.117-43.598c11.039-19.315,16.557-40.287,16.557-62.914c0-14.349-2.207-28.146-7.174-42.495
	c-4.967-13.245-12.141-25.938-20.971-36.976c-8.83-11.037-19.869-19.867-33.113-26.49C406.732,3.312,392.383,0,376.379,0h-156.18
	v76.159h57.395h65.121c14.35,0,25.938,4.967,35.871,15.453c9.936,10.485,14.35,24.282,14.35,41.942
	c0,18.212-5.52,32.009-16.004,42.495c-10.484,10.485-23.18,15.453-38.08,15.453h-61.258h-57.395h-88.852v266.003H352.65
	c20.418,0,39.182-2.76,56.842-7.727s33.664-12.693,46.91-22.627c13.797-9.934,24.281-22.074,32.008-36.977
	c7.727-14.348,11.59-31.457,11.59-50.771C500,309.604,492.273,284.771,477.373,264.351z M406.18,346.026
	c-2.758,7.176-7.174,13.797-12.141,18.764c-4.967,5.521-11.037,9.383-18.211,12.693c-7.176,2.76-14.902,4.416-22.627,4.416H220.199
	V261.589h136.866c7.727,0,14.9,1.656,21.521,4.969c6.623,3.311,12.143,7.725,16.557,13.244c4.969,5.52,8.279,12.141,11.037,19.867
	c2.762,7.727,4.416,15.453,4.416,23.73C410.596,331.126,408.939,338.854,406.18,346.026z" class="color c1"/>
</svg>