<svg version="1.1" id="图层_1" x="0px" y="0px" width="120.762px" height="118.502px" viewBox="0 0 120.762 118.502" enable-background="new 0 0 120.762 118.502" xml:space="preserve" xmlns="http://www.w3.org/2000/svg" xmlns:xlink="http://www.w3.org/1999/xlink" xmlns:xml="http://www.w3.org/XML/1998/namespace">
  <path fill="#FFFFFF" d="M56.238,0H0v8.033v8.035h32.137h32.136v8.034v8.033h-8.034h-8.034v8.035v8.033H40.17h-8.033v8.035v8.033
	h-8.034h-8.034v8.037v8.032H8.034H0v16.068v13.612L110.419,0H56.238z M8.798,118.502h55.726h56.238v-8.033v-8.034H88.625H56.49
	v-8.035v-8.034h8.033h8.035v-8.033v-8.035h8.032h8.034v-8.032v-8.036h8.035h8.034v-8.034V38.16h8.034h8.033V22.094V6.943
	L8.798,118.502z" class="color c1"/>
</svg>