<svg version="1.1" id="图层_1" x="0px" y="0px" width="169.465px" height="78.98px" viewBox="0 0 169.465 78.98" enable-background="new 0 0 169.465 78.98" xml:space="preserve" xmlns="http://www.w3.org/2000/svg" xmlns:xlink="http://www.w3.org/1999/xlink" xmlns:xml="http://www.w3.org/XML/1998/namespace">
  <path fill-rule="evenodd" clip-rule="evenodd" fill="#F7222C" d="M141.509,43.341c35.825-2.78,26.993-29.478,26.993-29.478
	c-3.275-13.864-27.748-13.836-27.748-13.836c-21.131-0.507-41.643,6.09-61.424,15.252C51.321,28.255,25.816,46.642,4.211,73.281
	C2.891,74.909,1.686,76.688,0,78.977c15.892,0,30.947,0.032,46.002-0.084C57.15,52.279,82.647,27.05,99.777,19.115
	c10.25-5.277,24.461-10.306,37.384-9.995c0,0,20.272-0.014,20.556,9.769c0,0,0.517,13.854-17.78,15.864
	c-10.144,1.118-38.739,0-38.739,0c-12.295,0,6.106,36.676,8.729,41.782c12.703,0,25.093,0,37.92,0c0,0-6.97-19.943-20.688-33.015
	C132.659,43.66,137.697,43.637,141.509,43.341z" class="color c1"/>
</svg>