<svg version="1.1" id="图层_1" x="0px" y="0px" width="500.054px" height="422.938px" viewBox="0 0 500.054 422.938" enable-background="new 0 0 500.054 422.938" xml:space="preserve" xmlns:xml="http://www.w3.org/XML/1998/namespace" xmlns="http://www.w3.org/2000/svg" xmlns:xlink="http://www.w3.org/1999/xlink">
  <g>
    <path fill="#183295" d="M144.149,310.375h-6.719c-13.834,0-24.901-11.067-24.901-24.901V48.32
		c0-13.834,11.067-24.901,24.901-24.901h6.719c13.834,0,24.901,11.067,24.901,24.901v237.153
		C169.05,299.307,157.588,310.375,144.149,310.375z" class="color c1"/>
    <path fill="#183295" d="M361.541,47.925c-12.648-5.139-26.877,0.791-32.41,13.043c0,0.395-0.395,0.791-0.395,1.186
		c-10.275,22.53-24.109,41.897-40.316,58.498c-10.672,10.672-9.09,28.063,2.769,37.154l0,0c9.88,7.51,24.11,6.719,32.806-2.372
		c20.555-20.553,37.551-45.059,50.197-72.727c0.396-0.791,0.791-1.186,0.791-1.977C380.513,68.082,374.189,53.063,361.541,47.925
		L361.541,47.925z" class="color c1"/>
    <path fill="#183295" d="M250.079,373.221c-110.672,0-200-89.725-200-200c0-37.154,10.276-71.937,27.668-101.581
		c6.719-11.462,3.953-26.087-7.115-33.597l0,0c-11.858-8.301-28.063-4.743-35.573,7.51C10.948,85.474-2.096,133.3,0.275,183.894
		c5.139,124.11,102.767,226.876,226.482,237.942c24.506,2.373,48.222,0.791,71.147-3.557c15.811-3.162,24.506-20.555,17.787-35.18
		l0,0c-4.742-10.275-16.207-15.811-27.273-13.834C275.77,372.036,263.123,373.221,250.079,373.221z" class="color c1"/>
    <path fill="#F59756" d="M476.957,64.13c-7.51-17.787-20.949-37.154-36.76-55.336c-8.301-9.486-22.926-11.858-33.201-4.348
		c-11.463,8.696-13.043,24.506-3.953,35.178c11.463,13.438,20.949,28.854,28.064,45.454
		c36.361,84.585,16.602,167.588-33.598,222.528C384.464,181.916,278.14,83.892,148.891,83.892c-1.581,0-3.162,0-4.348,0
		c-14.625,0.396-24.901,12.253-22.134,26.877l0.395,1.581c2.372,12.648,13.439,21.739,26.087,21.739l0,0
		c107.905,0,195.653,84.98,200.001,191.701c0,0.789,0,10.672,0.396,19.762c0,10.277,5.139,19.765,13.043,25.691l0,0
		c11.855,8.695,28.063,9.092,39.525,0C487.232,306.028,529.525,186.66,476.957,64.13z" class="color c2"/>
  </g>
</svg>