<svg version="1.1" id="图层_1" x="0px" y="0px" width="118.857px" height="200px" viewBox="0 0 118.857 200" enable-background="new 0 0 118.857 200" xml:space="preserve" xmlns="http://www.w3.org/2000/svg" xmlns:xlink="http://www.w3.org/1999/xlink" xmlns:xml="http://www.w3.org/XML/1998/namespace">
  <polygon fill="#008C71" points="118.619,0 118.228,0 59.26,34.045 59.26,131.59 59.26,131.592 59.26,200 59.701,200 59.706,200 
	118.619,165.986 118.618,165.984 118.619,165.984 " class="color c1"/>
  <polygon fill="#EA5514" points="59.264,131.592 59.264,131.59 0.107,97.311 0,165.854 58.925,200 59.264,200 59.705,200 
	118.619,165.986 " class="color c2"/>
  <polygon fill="#002F09" points="59.74,131.59 59.74,131.588 59.74,131.59 59.74,131.592 59.74,199.721 59.264,199.721 
	59.701,199.721 59.705,199.721 118.857,165.848 59.74,131.592 " class="color c3"/>
</svg>