<svg version="1.1" id="图层_1" x="0px" y="0px" width="180px" height="171.101px" viewBox="0 0 180 171.101" enable-background="new 0 0 180 171.101" xml:space="preserve" xmlns="http://www.w3.org/2000/svg" xmlns:xlink="http://www.w3.org/1999/xlink" xmlns:xml="http://www.w3.org/XML/1998/namespace">
  <path fill-rule="evenodd" clip-rule="evenodd" fill="#00B3E9" d="M126.906,70.741c0-0.017,0-0.033,0-0.05
	c-11.988,11.285-22.819,21.48-34,32.002C81.412,91.901,69.957,81.146,58.271,70.173L35.942,48.728H59.18l3.621,3.237
	c9.954,9.272,19.838,18.619,30.104,28.278c9.562-9.056,19.104-17.713,28.161-26.854l5.195-4.958h19.384c0,1.321,0,2.631,0,3.951
	L126.906,70.741z M90,0C40.294,0,0,40.295,0,90c0,25.537,10.638,48.588,27.721,64.969v-21.401
	C19.074,121.23,13.995,106.21,13.995,90c0-41.977,34.029-76.005,76.005-76.005c41.977,0,76.006,34.028,76.006,76.005
	c0,19.998-7.735,38.181-20.361,51.751c0-28.513,0-56.79,0-85.375l-16.605,15.857v98.868C159.189,156.561,180,125.716,180,90
	C180,40.295,139.706,0,90,0z" class="color c1"/>
</svg>