<svg version="1.1" id="图层_1" x="0px" y="0px" width="436.851px" height="500px" viewBox="0 0 436.851 500" enable-background="new 0 0 436.851 500" xml:space="preserve" xmlns:xml="http://www.w3.org/XML/1998/namespace" xmlns="http://www.w3.org/2000/svg" xmlns:xlink="http://www.w3.org/1999/xlink">
  <path fill="#F6AB02" d="M187.138,0C112.399,0,45.771,32.445,0,84.589c30.707,38.238,55.041,77.636,68.366,117.613
	c19.119-46.929,64.89-80.533,118.772-80.533c70.684,0,128.043,57.358,128.043,128.042c0,70.684-57.358,128.042-128.043,128.042
	c-46.93,0-88.065-24.913-110.082-62.571c-7.532,45.771-56.778,88.063-73.58,104.286C49.248,469.293,114.716,500,187.138,500
	c137.893,0,249.711-111.818,249.711-249.71C437.429,111.819,325.031,0,187.138,0z" class="color c1"/>
</svg>