<svg version="1.1" id="图层_1" x="0px" y="0px" width="500.014px" height="443.527px" viewBox="0 0 500.014 443.527" enable-background="new 0 0 500.014 443.527" xml:space="preserve" xmlns:xml="http://www.w3.org/XML/1998/namespace" xmlns="http://www.w3.org/2000/svg" xmlns:xlink="http://www.w3.org/1999/xlink">
  <path fill="#223246" d="M445.174,248.931c-6-104-25.063-169.729-25.063-169.729l-0.345,0.199v0l-63.017,36.302
	c-9.986,5.854-16.528,16.529-16.528,28.237l-0.143,95.176c-9.647,56.118-58.625,98.695-117.28,98.695
	c-65.771,0-101.791-50.275-101.791-116.047c0-65.771,36.019-122.246,101.79-122.246c30.992,0,59.229,12.052,80.579,31.336
	c0.344-20.316,4.132-32.369,19.628-40.978l48.554-29.271C331.957,23.072,278.927,0,220.043,0C98.485,0,0,98.485,0,219.697
	C0,340.91,98.485,439.394,219.697,439.394c47.774,0,92.008-15.313,128.083-41.271c3.133,4.12,7.094,7.636,11.724,10.282
	l45.94,26.513l14.321,8.61C419.766,443.527,451.174,352.931,445.174,248.931z" class="color c1"/>
  <path fill="#5C6A78" d="M483.815,116.047L420.11,79.201l-0.345,0.199v296.289v67.493l-14.321-8.266l14.321,8.61l60.264-34.779
	c12.053-6.887,19.628-19.973,19.628-33.748v-78.854l0.344,67.489V217.632v-32.37v-40.978
	C500.345,132.576,494.146,121.901,483.815,116.047z" class="color c2"/>
  <path id="XMLID_34_" fill="#5C6A78" d="M236.915,334.023c-51.653,0-93.319-41.668-93.319-93.32s41.667-93.318,93.319-93.318
	c2.755,0,5.854,0,8.609,0.344c0,0,0,0,0.344,0l57.163-16.874c-91.942-90.909-215.22-0.688-202.479,100.896
	c15.152,91.94,109.849,134.985,171.145,95.729C261.021,331.613,249.312,334.023,236.915,334.023z" class="color c2"/>
</svg>