<svg version="1.1" id="图层_1" x="0px" y="0px" width="230px" height="130.195px" viewBox="0 0 230 130.195" enable-background="new 0 0 230 130.195" xml:space="preserve" xmlns="http://www.w3.org/2000/svg" xmlns:xlink="http://www.w3.org/1999/xlink" xmlns:xml="http://www.w3.org/XML/1998/namespace">
  <path fill="#32BAD8" d="M229.613,58.037c-28.68-13.199-53.219,34.843-61.449,53.421c-1.441,5.683-3.576,8.119-3.576,8.119
	s-14.01-36.979-34.402-54.147c0-0.111,0.01-0.221,0.01-0.332c0-2.388-0.137-4.741-0.387-7.062
	c-6.012-2.766-11.838-2.836-17.372-1.057c-4.002-0.403-8.13,0.221-12.35,2.184c-0.154,1.705-0.239,3.43-0.262,5.169
	C84.963,76.839,73.49,99.875,68.358,111.458c-1.441,5.683-3.576,8.119-3.576,8.119S35.666,42.7,0.282,59.164
	C0.105,61.119,0,63.096,0,65.098c0,35.95,29.146,65.097,65.099,65.097c20.041,0,37.959-9.064,49.901-23.312
	c11.943,14.246,29.861,23.312,49.904,23.312c35.949,0,65.096-29.146,65.096-65.097C230,62.711,229.863,60.356,229.613,58.037z" class="color c1"/>
  <path fill="#F7A423" d="M114.523,23.876C126.46,9.302,144.596,0,164.904,0c19.83,0,37.576,8.88,49.516,22.865
	c-15.441,1.286-37.049,10.575-49.201,48.775c-0.17,0.534-0.318,1.049-0.479,1.573c-0.054-0.17-0.099-0.33-0.15-0.5
	C152.208,33.802,130.018,24.888,114.523,23.876z M64.782,72.714c0.054,0.17,0.1,0.33,0.151,0.5c0.16-0.524,0.31-1.039,0.479-1.573
	c12.153-38.2,33.76-47.489,49.203-48.775C102.675,8.88,84.928,0,65.099,0C44.79,0,26.656,9.302,14.719,23.876
	C30.212,24.888,52.402,33.802,64.782,72.714z" class="color c2"/>
  <path fill="#FFFFFF" d="M214.419,22.866c-15.44,1.285-37.048,10.574-49.201,48.774c-0.17,0.534-0.317,1.049-0.479,1.573
	c-0.053-0.17-0.098-0.33-0.15-0.5c-12.119-38.096-33.64-47.434-49.076-48.758c-0.298-0.364-0.591-0.732-0.896-1.089
	C99.172,24.151,77.565,33.44,65.412,71.64c-0.169,0.534-0.318,1.049-0.479,1.573c-0.052-0.17-0.098-0.33-0.151-0.5
	c-12.38-38.912-34.57-47.826-50.063-48.838c-8.021,9.79-13.232,21.96-14.437,35.288c35.384-16.464,64.5,60.414,64.5,60.414
	s2.135-2.438,3.576-8.119c6.506-14.686,23.204-47.773,44.081-54.479c29.562,2.976,52.148,62.598,52.148,62.598
	s2.136-2.438,3.576-8.119c8.229-18.578,32.771-66.621,61.448-53.421C228.171,44.686,222.689,32.554,214.419,22.866z" class="color c3"/>
</svg>