<svg version="1.1" id="图层_1" x="0px" y="0px" width="100px" height="78.578px" viewBox="0 0 100 78.578" enable-background="new 0 0 100 78.578" xml:space="preserve" xmlns="http://www.w3.org/2000/svg" xmlns:xlink="http://www.w3.org/1999/xlink" xmlns:xml="http://www.w3.org/XML/1998/namespace">
  <polygon fill="#FFFFFF" points="50,38.778 43.459,33.024 43.846,32.712 50,27.747 56.154,32.712 56.544,33.026 " class="color c1"/>
  <polygon fill="#FFFFFF" points="59.763,35.623 59.766,35.626 53.937,40.785 50.471,43.855 50.468,43.853 50.261,44.036 50,44.267 
	49.739,44.036 46.436,41.111 46.068,40.785 40.237,35.623 37.138,32.88 0,0 0,78.578 36.772,48.908 31.098,43.856 30.592,43.406 
	8.163,61.502 8.163,17.972 30.722,38.056 33.812,40.808 39.993,46.31 43.082,49.062 45.183,50.932 49.998,55.218 50,55.216 
	50.002,55.218 54.817,50.932 60.007,46.31 60.011,46.313 60.013,46.31 66.19,40.81 66.188,40.808 91.837,17.972 91.837,61.502 
	69.411,43.407 68.907,43.856 63.23,48.91 100,78.578 100,0 " class="color c1"/>
</svg>