<svg version="1.1" id="图层_1" x="0px" y="0px" width="78.877px" height="109.07px" viewBox="0 0 78.877 109.07" enable-background="new 0 0 78.877 109.07" xml:space="preserve" xmlns="http://www.w3.org/2000/svg" xmlns:xlink="http://www.w3.org/1999/xlink" xmlns:xml="http://www.w3.org/XML/1998/namespace">
  <path fill="#2F3393" d="M11.665,109.07" class="color c1"/>
  <g>
    <path fill="#3C47AA" d="M53.715,61.053c1.97-0.604,3.839-1.385,5.605-2.348c4.742-2.581,8.43-6.244,11.063-10.988
		c2.632-4.742,3.949-10.219,3.949-16.428c0-6.208-1.303-11.684-3.91-16.428c-2.607-4.742-6.284-8.404-11.026-10.988
		C54.652,1.291,49.151,0,42.894,0H0l6.536,14.453h36.952c2.931,0,5.501,0.695,7.712,2.086c2.21,1.391,3.923,3.364,5.14,5.922
		c1.217,2.559,1.825,5.502,1.825,8.828c0,3.328-0.608,6.271-1.825,8.828c-1.217,2.559-2.942,4.534-5.178,5.924
		c-2.192,1.365-4.699,2.055-7.515,2.08H30.499l30.349,60.949h18.029L53.715,61.053z" class="color c2"/>
    <polygon fill="#3C47AA" points="8.34,48.676 8.34,109.07 43.284,109.07 16.014,48.676 	" class="color c2"/>
  </g>
</svg>