<svg version="1.1" id="图层_1" x="0px" y="0px" width="500px" height="453.825px" viewBox="0 0 500 453.825" enable-background="new 0 0 500 453.825" xml:space="preserve" xmlns:xml="http://www.w3.org/XML/1998/namespace" xmlns="http://www.w3.org/2000/svg" xmlns:xlink="http://www.w3.org/1999/xlink">
  <g>
    <path fill="#55C3F6" d="M312.876,453.124L200.06,427.252c-12.334-2.709-21.059-13.84-21.059-26.475V96.325
		c0-17.449,16.246-30.385,33.394-26.474l112.516,25.872c12.334,2.708,21.059,13.839,21.059,26.474v304.454
		C346.27,444.098,329.724,457.036,312.876,453.124z" class="color c1"/>
    <path fill="#4246DD" d="M315.885,270.513L18.352,195.904C7.521,193.196,0,183.569,0,172.438V51.199
		c0-15.644,14.741-27.376,29.783-23.767l297.533,68.893c11.131,2.708,18.952,12.334,18.952,23.767v126.655
		C346.27,262.691,331.228,274.424,315.885,270.513z" class="color c2"/>
    <path fill="#3A3DBE" d="M112.816,46.686v111.612c0,17.75,12.034,33.394,29.482,37.605l203.971,51.143V100.536L112.816,46.686z" class="color c3"/>
    <path fill="#FFAE95" d="M469.615,243.738l-297.232-74.609c-10.831-2.708-18.352-12.334-18.352-23.767V24.424
		c0-15.644,14.741-27.377,29.783-23.767L481.046,69.55C492.178,72.258,500,81.885,500,93.316v126.956
		C500,235.917,485.259,247.648,469.615,243.738z" class="color c4"/>
  </g>
</svg>