<svg version="1.1" id="图层_1" x="0px" y="0px" width="200px" height="100.666px" viewBox="0 0 200 100.666" enable-background="new 0 0 200 100.666" xml:space="preserve" xmlns="http://www.w3.org/2000/svg" xmlns:xlink="http://www.w3.org/1999/xlink" xmlns:xml="http://www.w3.org/XML/1998/namespace">
  <path fill="#50AF33" d="M200,16.936v23.271c0,4.568-1.638,8.512-4.913,11.828c-3.277,3.32-7.24,4.979-11.895,4.979h-17.316
	l-149.07,0.301c-4.654,0-8.62-1.637-11.894-4.914C1.637,49.127,0,45.16,0,40.506V16.805C0,12.15,1.637,8.189,4.914,4.912
	C8.188,1.637,12.153,0,16.807,0h59.47c4.654,0,8.618,1.637,11.894,4.912c3.275,3.277,4.914,7.238,4.914,11.893v5.43H79.122v-5.43
	c0-0.775-0.282-1.441-0.841-2.002c-0.562-0.561-1.228-0.842-2.004-0.842h-59.47c-0.776,0-1.444,0.281-2.004,0.842
	c-0.562,0.561-0.841,1.227-0.841,2.002v23.701c0,0.777,0.279,1.445,0.841,2.006c0.56,0.561,1.228,0.84,2.004,0.84l166.386-0.301
	c0.776,0,1.442-0.279,2.004-0.84c0.56-0.561,0.841-1.229,0.841-2.004V16.936c0-0.775-0.281-1.443-0.841-2.004
	c-0.562-0.561-1.228-0.842-2.004-0.842h-59.47c-0.776,0-1.444,0.281-2.003,0.842c-0.562,0.561-0.841,1.229-0.841,2.004v20.063
	h-13.962V0.129h76.276c4.654,0,8.618,1.66,11.895,4.977C198.362,8.424,200,12.367,200,16.936z M79.122,63.303v20.557
	c0,0.775-0.282,1.443-0.841,2.004c-0.562,0.561-1.228,0.84-2.004,0.84h-59.47c-0.776,0-1.444-0.279-2.004-0.84
	c-0.562-0.561-0.841-1.229-0.841-2.004v-5.43H0v5.43c0,4.654,1.637,8.619,4.914,11.895c3.274,3.275,7.239,4.912,11.894,4.912h59.47
	c4.654,0,8.618-1.637,11.894-4.912c3.275-3.275,4.914-7.24,4.914-11.895V63.303H79.122z M106.917,63.303v37.363h13.962V63.303
	H106.917z" class="color c1"/>
</svg>