<svg version="1.1" id="图层_1" x="0px" y="0px" width="432.217px" height="500.797px" viewBox="0 0 432.217 500.797" enable-background="new 0 0 432.217 500.797" xml:space="preserve" xmlns:xml="http://www.w3.org/XML/1998/namespace" xmlns="http://www.w3.org/2000/svg" xmlns:xlink="http://www.w3.org/1999/xlink">
  <path fill="#0C0C0C" d="M102.073,471.292c-32.695-19.139-57.417-47.846-74.96-84.529c-18.342-37.48-27.114-81.34-27.114-132.377
	c0-50.238,9.57-94.098,27.911-132.375c18.341-39.075,43.859-68.581,76.555-90.112c2.393-1.595,5.582-3.19,7.975-4.785
	c11.164,3.19,20.734,7.975,28.708,11.962c-1.595,0.797-3.189,2.392-3.987,3.189c-22.328,19.937-39.075,48.645-51.037,84.53
	C74.163,162.679,68.58,204.146,68.58,251.196c0,47.051,6.38,88.518,19.937,124.401c13.557,35.886,31.101,63.796,54.227,82.935
	c1.595,1.596,3.189,2.393,3.987,3.189c-12.759,6.381-26.315,9.57-40.669,11.164C104.465,472.088,102.87,472.088,102.073,471.292z
	 M404.306,114.035c-17.544-36.683-43.063-65.391-74.96-84.53C296.65,9.569,259.17,0,216.108,0c-18.342,0-35.088,2.393-51.834,6.379
	c6.38,3.987,12.759,7.177,17.544,10.367c10.367-3.19,20.734-4.785,31.898-4.785c27.911,0,53.429,9.569,75.757,29.505
	c23.126,19.139,40.67,47.049,54.228,82.935c13.557,35.886,19.937,77.353,19.937,124.402c0,47.05-5.582,87.72-17.544,124.4
	c-11.962,35.887-28.708,64.594-51.037,84.531c-22.328,19.936-47.847,30.303-76.555,30.303c-11.962,0-23.923-1.596-35.088-5.582
	c-6.379,4.785-13.557,8.771-20.733,12.758c16.747,3.988,34.29,5.584,53.428,5.584c41.468,0,78.947-10.367,111.643-31.898
	s58.214-51.036,76.556-89.313c18.342-38.278,27.91-82.937,27.91-132.377C431.419,195.375,422.646,150.718,404.306,114.035z" class="color c1"/>
</svg>