<svg version="1.1" id="图层_1" x="0px" y="0px" width="112.052px" height="173.785px" viewBox="0 0 112.052 173.785" enable-background="new 0 0 112.052 173.785" xml:space="preserve" xmlns="http://www.w3.org/2000/svg" xmlns:xlink="http://www.w3.org/1999/xlink" xmlns:xml="http://www.w3.org/XML/1998/namespace">
  <path fill="#FFFFFF" d="M47.95,2.232c-0.988,1.208-2.382,2.959-3.961,5.221c-0.792,1.113-1.614,2.397-2.481,3.719
	c-0.803,1.453-1.744,2.786-2.549,4.434c-1.713,3.119-3.34,6.67-4.668,10.51c-0.716,1.871-5.164,11.398-4.255,23.968
	c0.14,1.534,0.415,2.992,0.856,4.597c0.41,1.605,0.939,3.323,1.668,5.288c1.439,3.929,3.569,8.609,5.976,14.105
	c2.352,5.49,4.978,11.813,6.91,19.222c1.96,7.338,3.06,15.971,2.42,24.488c-0.296,4.236-0.973,8.406-2.013,12.257
	c-1.979,7.241-2.211,6.466-3.64,10.503c-2.832,6.41-6.132,11.512-9.573,15.869c-3.45,4.318-7.025,7.698-10.344,10.232
	c-3.391,2.47-6.458,4.146-9.054,5.162c-1.309,0.493-2.459,0.891-3.46,1.187c-1.023,0.253-1.904,0.396-2.605,0.514
	c-1.404,0.226-2.14,0.278-2.14,0.278s0.425-0.78,1.223-2.242c0.387-0.687,0.864-1.531,1.427-2.526
	c0.505-1.051,1.09-2.202,1.722-3.443c1.23-2.547,2.548-5.62,3.816-9.036c5.34-12.523,6.59-26.773,5.16-35.996
	c-0.609-3.558-1.695-7.086-3.309-11.304c-1.597-4.195-3.787-8.937-6.206-14.493C6.498,89.199,3.863,82.77,1.979,74.985
	c-1.87-7.737-2.745-17.276-1.141-26.359c3.331-17.737,12.381-28.837,13.327-30.073c1.971-2.426,3.834-4.713,5.895-6.579
	c1.962-1.951,4.012-3.545,5.93-4.974c2.026-1.291,3.84-2.555,5.709-3.383c3.633-1.82,6.885-2.771,9.56-3.205
	c2.653-0.492,4.748-0.449,6.145-0.346c0.695,0.042,1.236,0.145,1.593,0.212c0.351,0.073,0.532,0.11,0.532,0.11
	S48.937,1.019,47.95,2.232z M112.049,137.935c-0.012-1.042-0.057-1.588-0.057-1.588s-0.434,0.346-1.246,0.994
	c-0.379,0.314-0.847,0.701-1.396,1.156c-0.592,0.415-1.236,0.894-1.932,1.411c-1.432,1.012-3.176,2.11-5.137,3.186
	c-2.007,1.043-4.226,2.074-6.661,2.952c-2.417,0.857-7.951,3.092-14.878,2.342c-2.247-0.302-4.529-0.954-7.288-1.969
	c-2.745-1.002-5.887-2.418-9.555-3.97c-3.655-1.516-7.881-3.19-12.858-4.255c-1.396-0.298-2.877-0.522-4.398-0.669l-1.688,4.207
	c-2.631,5.956-5.89,11.371-9.974,16.541c-0.681,0.853-1.38,1.682-2.088,2.488c0.22-0.066,0.437-0.132,0.668-0.183
	c0.683-0.137,1.355-0.282,2.018-0.45c0,0,1.257-0.299,3.169-0.235c0.957,0.041,1.881,0.182,2.912,0.44
	c1.029,0.235,2.139,0.554,3.423,1.011c2.564,0.896,5.663,2.271,9.292,3.816c3.619,1.504,7.777,3.176,12.53,4.292
	c4.711,1.14,10.148,1.719,15.284,0.767c7.853-1.456,13.363-5.108,13.363-5.108c3.632-2.352,6.41-4.994,8.718-7.71
	c2.282-2.721,3.976-5.494,5.177-8.044c1.154-2.6,1.856-4.929,2.203-6.883c0.164-0.984,0.284-1.849,0.359-2.598
	C112.059,139.113,112.053,138.457,112.049,137.935z" class="color c1"/>
</svg>