<svg version="1.1" id="图层_1" x="0px" y="0px" width="75.847px" height="83.372px" viewBox="0 0 75.847 83.372" enable-background="new 0 0 75.847 83.372" xml:space="preserve" xmlns="http://www.w3.org/2000/svg" xmlns:xlink="http://www.w3.org/1999/xlink" xmlns:xml="http://www.w3.org/XML/1998/namespace">
  <path opacity="0.8" fill-rule="evenodd" clip-rule="evenodd" fill="#01314A" d="M19.539,0L19.539,0
	C27.064,0,33.22,6.156,33.22,13.682V69.69c0,7.524-6.156,13.682-13.682,13.682l0,0c-7.525,0-13.682-6.157-13.682-13.682V13.682
	C5.857,6.156,12.013,0,19.539,0z" class="color c1"/>
  <path opacity="0.8" fill-rule="evenodd" clip-rule="evenodd" fill="#FEA911" d="M74.026,6.839L74.026,6.839
	c3.762,6.519,1.508,14.928-5.008,18.69L41.033,41.686l27.985,16.156c6.516,3.763,8.77,12.172,5.008,18.689l0,0
	c-3.764,6.517-12.172,8.771-18.69,5.008L6.83,53.534c-1.064-0.614-2.014-1.354-2.842-2.186l-0.125-0.127l-0.02-0.02
	c-0.766-0.789-1.447-1.682-2.021-2.676l0,0C0.58,46.374-0.006,44.015,0,41.686c-0.006-2.33,0.58-4.688,1.822-6.841l0,0
	c0.574-0.993,1.256-1.887,2.021-2.676l0.02-0.02l0.125-0.127c0.828-0.833,1.777-1.572,2.842-2.186L55.336,1.832
	C61.854-1.931,70.262,0.322,74.026,6.839z" class="color c2"/>
</svg>