<svg version="1.1" id="图层_1" x="0px" y="0px" width="499.412px" height="283.068px" viewBox="0 0 499.412 283.068" enable-background="new 0 0 499.412 283.068" xml:space="preserve" xmlns:xml="http://www.w3.org/XML/1998/namespace" xmlns="http://www.w3.org/2000/svg" xmlns:xlink="http://www.w3.org/1999/xlink">
  <g>
    <polygon fill="#F16F75" points="497.059,282.186 435.625,282.186 370.957,189.888 432.098,189.888 	" class="color c1"/>
    <path fill="#FFFFFF" d="M360.668,0c-72.604,0-132.274,55.262-139.036,126.103l-0.588,156.672h56.438V131.981
		c3.82-42.328,39.389-75.544,82.598-75.544c44.387,0,80.836,34.979,82.893,79.071h56.439C497.646,60.259,436.213,0,360.668,0z" class="color c2"/>
    <path fill="#FFFFFF" d="M138.74,0C66.725,0,7.348,54.674-0.002,124.633v8.523v149.912h56.438V126.69
		C62.609,87.008,97,56.437,138.74,56.437c25.867,0,49.089,11.758,64.08,30.276c7.937-20.87,20.282-40.564,29.101-50.853
		C207.229,13.521,174.602,0,138.74,0z" class="color c2"/>
  </g>
</svg>