<svg version="1.1" id="图层_1" x="0px" y="0px" width="105.648px" height="499.933px" viewBox="0 0 105.648 499.933" enable-background="new 0 0 105.648 499.933" xml:space="preserve" xmlns:xml="http://www.w3.org/XML/1998/namespace" xmlns="http://www.w3.org/2000/svg" xmlns:xlink="http://www.w3.org/1999/xlink">
  <g>
    <path fill="#FFFFFF" d="M76.096,128.302c6.289-11.95,3.146-21.384-5.661-30.188c-5.03-5.032-10.063-10.692-15.094-15.723
		c-1.258-1.887-2.516-1.887-4.403,0C44.649,88.68,38.36,94.97,32.7,101.888c-7.547,8.176-8.176,16.981-2.517,26.415
		c-1.258,1.258-2.516,0-3.145-0.629C-0.005,112.58-8.81,76.102,10.057,51.573C23.265,33.963,37.73,18.24,51.567,1.259
		c1.258-1.887,1.887-1.258,3.145,0c13.207,16.352,27.673,32.076,40.252,49.057c18.867,24.528,11.949,60.377-14.466,76.729
		C79.24,127.044,77.983,128.931,76.096,128.302z" class="color c1"/>
    <path fill="#FFFFFF" d="M93.077,500H12.574V196.855c0-14.465,11.95-26.415,26.415-26.415h27.672
		c14.466,0,26.416,11.95,26.416,26.415V500z" class="color c1"/>
  </g>
</svg>