<svg version="1.1" id="图层_1" x="0px" y="0px" width="160px" height="151.246px" viewBox="0 0 160 151.246" enable-background="new 0 0 160 151.246" xml:space="preserve" xmlns:xml="http://www.w3.org/XML/1998/namespace" xmlns="http://www.w3.org/2000/svg" xmlns:xlink="http://www.w3.org/1999/xlink">
  <path fill="#EC555B" d="M11.583,11.646c-15.451,15.528-15.436,40.516,0,56.059l68.375,68.88
	c22.817-22.936,45.636-45.867,68.455-68.801c15.448-15.528,15.448-40.531,0-56.059c-15.452-15.528-40.327-15.529-55.778,0
	L80.037,24.387L67.36,11.646C51.91-3.882,27.033-3.882,11.583,11.646L11.583,11.646z M5.607,73.639l49.088,49.448v0.81
	c0,15.104-12.244,27.349-27.347,27.349S0,139,0,123.897V66.859C1.647,69.257,3.513,71.53,5.607,73.639z M160,66.941v56.956
	c0,15.104-12.244,27.349-27.346,27.349c-15.105,0-27.35-12.244-27.35-27.349v-0.849l49.077-49.324
	C156.48,71.616,158.35,69.341,160,66.941z" class="color c1"/>
</svg>