<svg version="1.1" id="图层_1" x="0px" y="0px" width="184px" height="184px" viewBox="0 0 184 184" enable-background="new 0 0 184 184" xml:space="preserve" xmlns="http://www.w3.org/2000/svg" xmlns:xlink="http://www.w3.org/1999/xlink" xmlns:xml="http://www.w3.org/XML/1998/namespace">
  <circle fill="#EA5514" cx="92" cy="92" r="92" class="color c1"/>
  <path fill="#FFFFFF" d="M91.295,11.291c0,0.638-0.518,1.154-1.154,1.154l0,0c-0.639,0-1.155-0.517-1.155-1.154V4.555
	c0-0.639,0.517-1.154,1.155-1.154l0,0c0.637,0,1.154,0.516,1.154,1.154V11.291z" class="color c2"/>
  <path fill="#FFFFFF" d="M168.314,98.415c-0.639,0-1.154-0.517-1.154-1.155l0,0c0-0.638,0.516-1.154,1.154-1.154h6.736
	c0.638,0,1.154,0.517,1.154,1.154l0,0c0,0.639-0.517,1.155-1.154,1.155H168.314z" class="color c2"/>
  <path fill="#FFFFFF" d="M5.871,98.158c-0.639,0-1.155-0.517-1.155-1.154l0,0c0-0.639,0.517-1.155,1.155-1.155h6.736
	c0.638,0,1.154,0.517,1.154,1.155l0,0c0,0.638-0.517,1.154-1.154,1.154H5.871z" class="color c2"/>
  <path fill="#FFFFFF" d="M94.68,176.771c0,0.638-0.517,1.155-1.154,1.155l0,0c-0.639,0-1.155-0.518-1.155-1.155v-6.736
	c0-0.638,0.517-1.155,1.155-1.155l0,0c0.638,0,1.154,0.518,1.154,1.155V176.771z" class="color c2"/>
</svg>