<svg version="1.1" id="图层_1" x="0px" y="0px" width="151.039px" height="200px" viewBox="0 0 151.039 200" enable-background="new 0 0 151.039 200" xml:space="preserve" xmlns="http://www.w3.org/2000/svg" xmlns:xlink="http://www.w3.org/1999/xlink" xmlns:xml="http://www.w3.org/XML/1998/namespace">
  <path fill="#E68453" d="M42.137,21.068c0,11.636-9.433,21.068-21.068,21.068C9.434,42.136,0,32.704,0,21.068
	C0,9.434,9.433,0,21.068,0C32.703,0,42.137,9.434,42.137,21.068z M82.771,83.443L33.213,54.831
	c-3.369-2.585-7.571-4.138-12.145-4.138c-11.043,0-19.993,8.951-19.993,19.994v109.32c0,11.043,8.95,19.992,19.993,19.992
	s19.993-8.949,19.993-19.992V97.063l25.385,14.655c7.809,4.509,17.792,1.834,22.3-5.975C93.255,97.936,90.579,87.952,82.771,83.443z
	" class="color c1"/>
  <path fill="#065444" d="M108.902,21.068C108.902,9.434,118.335,0,129.971,0c11.637,0,21.068,9.434,21.068,21.068
	c0,11.636-9.434,21.068-21.068,21.068S108.902,32.704,108.902,21.068z M129.971,50.693c-4.572,0-8.775,1.553-12.145,4.138
	L68.268,83.443c-7.808,4.509-10.483,14.492-5.975,22.301c4.507,7.809,14.491,10.482,22.3,5.975l25.386-14.655v82.944
	c0,11.043,8.949,19.992,19.992,19.992s19.993-8.949,19.993-19.992V70.688C149.964,59.645,141.014,50.693,129.971,50.693z" class="color c2"/>
  <path fill="#323D22" d="M62.293,105.744c2.857,4.949,7.917,7.828,13.227,8.129c5.31-0.301,10.369-3.18,13.227-8.129
	c4.509-7.809,1.833-17.792-5.976-22.301l-7.251-4.187l-7.252,4.187C60.46,87.952,57.784,97.936,62.293,105.744z" class="color c3"/>
</svg>