<svg version="1.1" id="图层_1" x="0px" y="0px" width="477.965px" height="500.128px" viewBox="0 0 477.965 500.128" enable-background="new 0 0 477.965 500.128" xml:space="preserve" xmlns:xml="http://www.w3.org/XML/1998/namespace" xmlns="http://www.w3.org/2000/svg" xmlns:xlink="http://www.w3.org/1999/xlink">
  <path id="XMLID_95_" fill="#CBDF20" d="M354.235,235.601c-7.457-2.373-224.746-35.594-224.746-35.594
	c-30.847-12.542-50.508-44.745-45.423-79.322l0,0c6.102-40.678,43.729-68.475,84.068-62.372l54.577,8.135l0,0l128.135,18.983
	c-35.254,20.678-68.475,31.187-142.034,0c-20,88.475,196.27,127.458,269.153-25.424c-40.34,23.051-81.018,10.848-121.695-21.355
	c-57.287-46.441-90.509-46.78-110.848-23.39l-0.339-1.018l-64.407-9.491C107.456-6.433,39.32,44.414,28.473,117.634
	c-3.729,24.068-0.339,47.458,7.796,68.475c8.475,25.763,34.576,67.119,82.034,78.306c7.458,2.372,15.254,4.406,23.051,5.424
	l201.355,29.83c30.848,12.543,50.51,44.746,45.424,79.321l0,0c-6.102,40.34-43.729,68.476-84.066,62.374l-49.154-7.119
	c0-0.338,0-0.338,0-0.678l-128.134-18.984c35.254-20.678,68.474-31.187,142.033,0c20.34-88.474-195.931-127.457-268.813,25.424
	c40.339-22.711,81.017-10.848,121.695,21.355c56.949,46.104,90.169,47.119,110.848,23.729l0.678,1.355l58.982,8.813
	c73.221,10.848,141.355-39.66,152.203-112.881c3.73-24.067-0.338-52.881-8.135-74.236
	C421.016,265.092,397.965,245.431,354.235,235.601z" class="color c1"/>
</svg>