<svg version="1.1" id="图层_1" x="0px" y="0px" width="349.561px" height="500px" viewBox="0 0 349.561 500" enable-background="new 0 0 349.561 500" xml:space="preserve" xmlns:xml="http://www.w3.org/XML/1998/namespace" xmlns="http://www.w3.org/2000/svg" xmlns:xlink="http://www.w3.org/1999/xlink">
  <path id="XMLID_23_" fill="#BFBFC0" d="M349.122,152.193v-11.842C349.122,62.719,286.403,0,208.771,0H0v134.649h190.35
	c12.72,0,23.246,10.526,23.246,23.246s-10.526,23.246-23.246,23.246H76.754c46.491,21.93,83.772,75,82.895,135.087h31.14
	c12.721,0,23.245,10.525,23.245,23.246c0,12.719-10.524,23.244-23.245,23.244h-31.14V500h45.175
	c79.824,0,144.736-64.912,144.736-144.736l0,0c0-43.422-21.931-82.018-55.701-104.387
	C326.754,230.702,349.122,194.298,349.122,152.193z" class="color c1"/>
</svg>