<svg version="1.1" id="图层_1" x="0px" y="0px" width="61.577px" height="83.678px" viewBox="0 0 61.577 83.678" enable-background="new 0 0 61.577 83.678" xml:space="preserve" xmlns="http://www.w3.org/2000/svg" xmlns:xlink="http://www.w3.org/1999/xlink" xmlns:xml="http://www.w3.org/XML/1998/namespace">
  <path fill="#FDFDFD" d="M3.354,55.557h1.752c0.354,6.504,2.973,11.863,7.85,16.08c4.775,4.166,10.262,6.248,16.461,6.248
	c4.775,0,8.662-1.346,11.66-4.039c2.998-2.691,4.496-5.918,4.496-9.678c0-3.965-1.447-7.037-4.344-9.223
	c-2.793-2.133-8.307-4.547-16.537-7.238c-6.606-2.184-11.306-3.988-14.099-5.412c-3.252-1.676-5.792-3.936-7.621-6.783
	C0.992,32.617,0,29.365,0,25.758c0-4.012,1.347-7.951,4.039-11.813c-0.609,1.982-0.914,3.709-0.914,5.182
	c0,3.963,0.939,7.443,2.82,10.441c1.931,3.1,4.317,5.438,7.162,7.012c2.845,1.627,7.595,3.48,14.252,5.563
	c8.69,2.643,14.961,5.564,18.825,8.764c3.707,3.1,5.563,7.268,5.563,12.498c0,5.133-1.932,9.781-5.791,13.947
	c-3.914,4.217-9.756,6.326-17.529,6.326c-3.151,0-7.521-0.586-13.107-1.754c-4.878-1.016-8.537-1.549-10.975-1.6l-0.533-0.609
	c0.049-0.863,0.076-1.982,0.076-3.354c0-1.625-0.153-4.141-0.458-7.545c-0.255-3.402-0.382-5.945-0.382-7.621
	C3.048,59.012,3.15,57.131,3.354,55.557z M57.159,23.701h-1.602c-0.053-5.895-2.389-10.264-7.012-13.107
	C44.022,7.799,38.538,6.4,32.086,6.4c-5.134,0-9.351,1.094-12.654,3.277c-3.352,2.186-5.028,4.801-5.028,7.85
	c0,3.252,1.319,5.818,3.963,7.697c2.743,2.033,8.155,4.445,16.231,7.24c7.52,2.59,12.779,4.699,15.777,6.324
	c3.199,1.779,5.867,4.32,8.002,7.623c2.133,3.402,3.199,7.189,3.199,11.354c0,6.352-2.338,11.33-7.01,14.938
	c1.725-2.389,2.592-5.74,2.592-10.061c0-4.063-0.943-7.67-2.822-10.82c-1.98-3.201-4.418-5.742-7.316-7.623
	c-2.945-1.93-7.746-3.986-14.402-6.172c-10.009-3.301-16.537-6.121-19.585-8.459c-3.048-2.387-4.573-6.096-4.573-11.127
	c0-5.791,2.337-10.338,7.011-13.641C20.145,1.6,26.774,0,35.36,0c5.844,0,12.982,1.016,21.416,3.047v0.535l0.15,2.895
	c0,1.525,0.051,3.354,0.154,5.488c0.152,2.59,0.229,4.877,0.229,6.859C57.309,20.145,57.258,21.77,57.159,23.701z" class="color c1"/>
</svg>