<svg version="1.1" id="图层_1" x="0px" y="0px" width="464.375px" height="500.072px" viewBox="0 0 464.375 500.072" enable-background="new 0 0 464.375 500.072" xml:space="preserve" xmlns:xml="http://www.w3.org/XML/1998/namespace" xmlns="http://www.w3.org/2000/svg" xmlns:xlink="http://www.w3.org/1999/xlink">
  <g>
    <path fill="#A40000" d="M445.325,7.158C275.461-1.871,100.518-14.851,31.668,56.82c7.903,28.846,23,77.968,68.73,108.335
		c19.581,13.002,43.39,16.667,77.432,19.769C121.962,89.551,172.188,20.702,445.325,7.158z" class="color c1"/>
    <path fill="#A40000" d="M290.697,301.176c80.136,102.145,0,183.973-269.75,184.536c125.349,16.455,401.775,43.287,438.095-81.817
		c6.031-20.773,5.442-45.736-3.559-75.631L290.697,301.176z" class="color c1"/>
    <path fill="#FE0000" d="M31.668,56.82c-59.82,91.422-44.018,169.3,126.975,218.397c117.945,25.959,226.298,25.959,294.018,145.033
		c25.96-46.839,27.089-181.714-195.823-215.574C102.774,177.023,46.341,109.303,31.668,56.82z" class="color c2"/>
  </g>
</svg>