<svg version="1.1" id="图层_1" x="0px" y="0px" width="499.666px" height="386.061px" viewBox="0 0 499.666 386.061" enable-background="new 0 0 499.666 386.061" xml:space="preserve" xmlns:xml="http://www.w3.org/XML/1998/namespace" xmlns="http://www.w3.org/2000/svg" xmlns:xlink="http://www.w3.org/1999/xlink">
  <g>
    <path fill="#D9FFA1" d="M357.237,98.19c-18.433,0-36.192,3.688-52.613,10.054v82.775c13.069-14.075,31.836-22.788,52.613-22.788
		c28.484,0,52.949,16.421,64.679,40.549H304.624v9.048v58.313h191.354c2.347-10.054,3.688-24.799,3.688-35.522
		C499.999,161.863,435.991,98.19,357.237,98.19z" class="color c1"/>
    <path fill="#60DDB0" d="M285.188,0L285.188,0c-38.875,0-70.376,32.173-70.376,72.052v168.565c0,0,0,2.011,0,3.017
		c0,39.879-32.507,72.387-72.386,72.387c-39.879,0-72.051-32.508-72.051-72.387c0-16.756,5.697-32.172,15.416-44.236l-51.944-47.922
		c-21.114,24.798-33.848,56.97-33.848,92.158c0,78.754,63.673,142.427,142.426,142.427c78.753,0,142.427-63.673,142.427-142.427
		c0,0-0.336,0-1.006,0h1.006L285.188,0L285.188,0z" class="color c2"/>
    <path fill="#D9FFA1" d="M408.511,291.554c-13.068,13.069-31.166,21.113-51.272,21.113c-39.879,0-72.387-32.508-72.387-72.388
		c-0.67-78.418-64.008-141.756-142.426-141.756c-37.198,0-70.71,14.075-96.18,37.199l52.614,48.592
		c12.064-9.383,27.145-14.745,43.901-14.745c38.874,0,70.71,30.831,72.051,69.37l0,0v2.011c0,78.753,63.673,142.426,142.427,142.426
		c40.215,0,76.407-16.756,102.212-43.229L408.511,291.554z" class="color c1"/>
  </g>
</svg>