<svg version="1.1" id="图层_1" x="0px" y="0px" width="56.056px" height="181.928px" viewBox="0 0 56.056 181.928" enable-background="new 0 0 56.056 181.928" xml:space="preserve" xmlns="http://www.w3.org/2000/svg" xmlns:xlink="http://www.w3.org/1999/xlink" xmlns:xml="http://www.w3.org/XML/1998/namespace">
  <path opacity="0.2" fill="#0C0C0B" d="M44.013,0.016c-5.179-0.199-8.911,1.548-11.499,3.625c-2.412,1.931-3.834,4.144-4.486,5.343
	c-0.609-1.125-1.899-3.154-4.081-5.017c-2.603-2.218-6.45-4.161-11.906-3.951C0.392,0.458-12.112,23.16,23.15,41.962
	c1.398,0.742,2.891,1.483,4.439,2.214c0.146,0.066,0.288,0.138,0.438,0.207c0.152-0.069,0.293-0.141,0.442-0.207
	c1.76-0.835,3.444-1.676,5.011-2.526C68.031,22.911,55.6,0.455,44.013,0.016z" class="color c1"/>
  <path opacity="0.2" fill="#0C0C0B" d="M53.861,157.973c0,13.23-10.726,23.955-23.955,23.955l0,0
	c-13.229,0-23.955-10.725-23.955-23.955V83.604c0-13.23,10.726-23.956,23.955-23.956l0,0c13.229,0,23.955,10.726,23.955,23.956
	V157.973z" class="color c1"/>
</svg>