<svg version="1.1" id="图层_1" x="0px" y="0px" width="108.807px" height="108.805px" viewBox="0 0 108.807 108.805" enable-background="new 0 0 108.807 108.805" xml:space="preserve" xmlns="http://www.w3.org/2000/svg" xmlns:xlink="http://www.w3.org/1999/xlink" xmlns:xml="http://www.w3.org/XML/1998/namespace">
  <path fill="#FFFFFF" d="M54.402,0c-9.617,0-19.07,2.545-27.338,7.358c-2.457,1.432-3.291,4.584-1.859,7.042
	c1.43,2.459,4.582,3.292,7.041,1.859c6.697-3.898,14.359-5.96,22.156-5.96c24.318,0,44.104,19.785,44.104,44.103
	c0,6.558-1.072,12.006-3.439,17.271H74.471V32.655c0-1.185,0.16-2.134,0.482-2.851c0.322-0.716,0.768-1.265,1.338-1.647
	c0.57-0.384,1.232-0.636,1.988-0.76s1.566-0.185,2.434-0.185h0.967v-3.186H59.531v3.186h1.004c0.867,0,1.678,0.061,2.434,0.185
	s1.412,0.376,1.971,0.76c0.557,0.383,1.002,0.932,1.336,1.647c0.334,0.717,0.502,1.666,0.502,2.851v19.14H42.029v-19.14
	c0-1.185,0.166-2.134,0.502-2.851c0.334-0.716,0.779-1.265,1.338-1.647c0.557-0.384,1.219-0.636,1.988-0.76
	c0.768-0.124,1.572-0.185,2.416-0.185h1.002v-3.186H27.127v0.027H12.094c-1.844,0-3.545,0.984-4.465,2.581
	C2.711,35.187,0,45.048,0,54.402c0,29.997,24.406,54.402,54.402,54.402c12.609,0,24.898-4.412,34.607-12.425
	c2.195-1.811,2.506-5.057,0.695-7.25c-1.811-2.194-5.059-2.506-7.25-0.693c-7.869,6.492-17.83,10.066-28.053,10.066
	c-24.318,0-44.102-19.782-44.102-44.101c0-6.561,1.76-13.72,4.881-20.048h19.156v38.993c0,1.186-0.162,2.136-0.484,2.851
	c-0.322,0.717-0.768,1.265-1.338,1.648s-1.232,0.636-1.988,0.76c-0.756,0.122-1.566,0.185-2.434,0.185h-0.967v3.185h22.148v-3.185
	h-1.002c-0.844,0-1.648-0.063-2.416-0.185c-0.77-0.124-1.432-0.376-1.988-0.76c-0.559-0.384-1.004-0.932-1.338-1.648
	c-0.336-0.715-0.502-1.665-0.502-2.851V55.572h24.748v17.775c0,1.186-0.168,2.136-0.502,2.851c-0.334,0.717-0.779,1.265-1.336,1.648
	c-0.559,0.384-1.215,0.636-1.971,0.76c-0.756,0.122-1.566,0.185-2.434,0.185h-1.004v3.185h12.393h9.756h16.584
	c1.895,0,3.637-1.04,4.533-2.707c4.1-7.612,6.01-15.513,6.01-24.866C108.807,24.404,84.4,0,54.402,0z" class="color c1"/>
</svg>