<svg version="1.1" id="图层_1" x="0px" y="0px" width="82.017px" height="111.713px" viewBox="0 0 82.017 111.713" enable-background="new 0 0 82.017 111.713" xml:space="preserve" xmlns="http://www.w3.org/2000/svg" xmlns:xlink="http://www.w3.org/1999/xlink" xmlns:xml="http://www.w3.org/XML/1998/namespace">
  <path fill="#3A383A" d="M0,111.713L19.335,0l27.544,0.077c8.134,0.205,15,2.328,20.601,6.369c5.602,4.041,9.616,9.642,12.046,16.803
	c2.43,7.162,3.081,15.167,1.957,24.015l-2.455,16.342c-2.252,15.038-7.686,26.804-16.304,35.293
	c-8.62,8.492-19.451,12.764-32.494,12.814H0z M38.133,18.798l-12.89,74.193l5.447,0.153c7.621,0,13.529-2.211,17.724-6.637
	c4.192-4.424,7.007-11.547,8.439-21.367l2.609-18.108c0.715-5.881,0.997-10.178,0.844-12.89c-0.258-5.114-1.562-8.899-3.914-11.355
	c-2.353-2.455-5.83-3.759-10.434-3.913L38.133,18.798z" class="color c1"/>
</svg>