<svg version="1.1" id="图层_1" x="0px" y="0px" width="239.5px" height="275px" viewBox="0 0 239.5 275" enable-background="new 0 0 239.5 275" xml:space="preserve" xmlns="http://www.w3.org/2000/svg" xmlns:xlink="http://www.w3.org/1999/xlink" xmlns:xml="http://www.w3.org/XML/1998/namespace">
  <path fill="#9EE5D8" d="M102.1,275C63.5,275,26.3,258.7,0,229.7l0.7-0.7c29.8,33,73.9,49.4,118,44c74.7-9.2,128-77.5,118.8-152.2
	S160.1-7.2,85.4,2C55.1,5.8,27.7,19,6.1,40.4l-0.7-0.7C27.2,18.1,54.8,4.8,85.2,1c75.3-9.3,144,44.4,153.3,119.7
	s-44.4,144-119.7,153.3C113.3,274.7,107.7,275,102.1,275z" class="color c1"/>
</svg>