<svg version="1.1" id="图层_1" x="0px" y="0px" width="499.393px" height="459.145px" viewBox="0 0 499.393 459.145" enable-background="new 0 0 499.393 459.145" xml:space="preserve" xmlns:xml="http://www.w3.org/XML/1998/namespace" xmlns="http://www.w3.org/2000/svg" xmlns:xlink="http://www.w3.org/1999/xlink">
  <g>
    <path id="XMLID_19_" fill="#EFDD91" d="M82.626,371.203V42.528c0-1.215,0-2.43,0-3.038h88.092
		c30.984,0,58.323,15.188,75.334,38.274h50.427C277.645,32.199,233.294,0,181.046,0h-68.044H51.641H0.001l0,0
		c18.833,1.215,33.415,17.011,33.415,35.844V374.24c0,18.834-14.581,34.63-33.415,35.845l0,0h113.001v-3.646
		C95.384,404.01,82.626,389.428,82.626,371.203z" class="color c1"/>
    <path id="XMLID_20_" fill="#EFDD91" d="M289.188,334.143c-11.543-40.098-30.377-66.828-55.286-83.84
		c42.528-17.617,67.437-61.36,71.688-111.178v-14.581c0-12.151-1.822-24.301-4.858-35.237h-47.389
		c6.683,12.758,10.328,27.339,10.328,42.527l0,0c0,51.033-41.313,92.953-92.953,92.953h-18.833l14.581,12.149
		c35.237,30.984,61.361,66.83,75.941,122.115c16.404,52.248,62.577,75.941,123.331,51.641
		C329.892,407.047,301.338,388.213,289.188,334.143z" class="color c1"/>
    <path id="XMLID_16_" fill="#EFDD91" d="M216.891,409.477v-93.561c-12.151-21.263-29.162-41.919-48.603-61.359v158.566
		c0,18.832-14.581,34.629-33.414,35.844l0,0h113.001v-3.646C230.256,442.284,216.891,427.704,216.891,409.477z" class="color c1"/>
    <path id="XMLID_21_" fill="#EFDD91" d="M423.452,372.418c-11.544-40.099-30.377-66.828-55.286-83.841
		c42.527-17.618,67.437-61.36,71.688-111.179v-14.581c0-68.651-55.894-124.544-124.545-124.544h-68.042h-61.361h-51.641l0,0
		c18.834,1.215,33.415,17.011,33.415,35.845v164.033c19.441,17.618,35.845,36.453,48.603,58.323V80.802c0-1.215,0-2.43,0-3.038
		h88.092c51.033,0,92.953,41.312,92.953,92.953l0,0c0,51.034-41.313,92.954-92.953,92.954h-18.833l14.58,12.149
		c35.237,30.983,61.361,66.828,75.941,122.112c16.403,52.25,62.575,75.943,123.329,51.641
		C464.156,445.323,435.603,426.489,423.452,372.418z" class="color c1"/>
  </g>
</svg>