<svg version="1.1" id="图层_1" x="0px" y="0px" width="147.743px" height="180px" viewBox="0 0 147.743 180" enable-background="new 0 0 147.743 180" xml:space="preserve" xmlns="http://www.w3.org/2000/svg" xmlns:xlink="http://www.w3.org/1999/xlink" xmlns:xml="http://www.w3.org/XML/1998/namespace">
  <path fill="#749B46" d="M69.856,178.887c15.777-4.381,31.889-14.771,39.928-37.754c8.332-22.953,3.223-46.559-13.018-60.137
	l-0.332-0.279l-0.357-0.246c-13.582-9.412-27.162-15.217-39.145-20.336C44.286,54.73,33.346,50.057,30.917,44.158
	C19.13,16.631,73.554,2.227,76.083,1.574c40.91,8.469,71.66,44.705,71.66,88.127C147.743,135.297,113.833,172.969,69.856,178.887z
	 M44.185,100.164c79.472,24.652,22.583,79.994-15.735,79.732c71.34,3.146,92.584-66.094,62.161-91.535
	C60.71,67.641,28.45,64.492,21.893,47.447C8.517,7.842,76.185,1.547,76.185,1.547C10.09-12.615-39.743,74.461,44.185,100.164z" class="color c1"/>
</svg>