<svg version="1.1" id="图层_1" x="0px" y="0px" width="500.17px" height="464.039px" viewBox="0 0 500.17 464.039" enable-background="new 0 0 500.17 464.039" xml:space="preserve" xmlns:xml="http://www.w3.org/XML/1998/namespace" xmlns="http://www.w3.org/2000/svg" xmlns:xlink="http://www.w3.org/1999/xlink">
  <g>
    <path fill="#323099" d="M220.266,360.484c7.366,3.033,14.298,6.064,21.664,9.098l75.822-207.537l0,0l3.033-7.799l0,0l19.497-54.159
		c38.995,29.029,82.756,74.523,87.955,107.452c21.664,12.131,42.026,24.264,60.658,36.395c13.864-17.331,16.465-42.894-0.866-79.289
		C451.633,95.321,376.244,42.461,289.589,0L169.14,337.088C185.604,345.32,202.935,353.119,220.266,360.484z" class="color c1"/>
    <path fill="#323099" d="M307.787,259.963c52.426,17.766,136.915,22.965,174.177-8.23c-16.465-11.266-34.229-22.097-53.293-32.929
		c-3.467,24.263-35.096,38.562-117.852,27.296L307.787,259.963z" class="color c1"/>
    <path fill="#323099" d="M216.8,367.416c-17.331-7.365-33.795-15.164-49.827-22.963l-6.499,18.631
		C76.852,308.059-1.138,190.641,189.07,220.969l6.499-19.498C25.292,159.011-48.798,222.27,33.957,332.754
		c43.328,52.428,103.986,100.088,173.31,131.283l31.629-87.088C231.963,373.916,224.165,370.449,216.8,367.416z" class="color c1"/>
  </g>
</svg>