<svg version="1.1" id="图层_1" x="0px" y="0px" width="271.111px" height="500px" viewBox="0 0 271.111 500" enable-background="new 0 0 271.111 500" xml:space="preserve" xmlns:xml="http://www.w3.org/XML/1998/namespace" xmlns="http://www.w3.org/2000/svg" xmlns:xlink="http://www.w3.org/1999/xlink">
  <g id="XMLID_4_">
    <path id="XMLID_12_" fill="#FFFFFF" d="M30.815,481.052c12.226-2.444,75.794-61.735,170.538-157.702
		c3.057-3.668,9.169-1.834,9.78,3.058l0,0c0.61,2.444,0,4.89-1.834,6.112l-45.844,47.064
		c-25.063,25.673-53.179,51.345-83.741,77.629C49.152,483.496,27.759,497.555,16.757,500c-8.557,1.223-14.06-4.89-16.503-19.56
		c-2.444-14.67,12.836-56.848,44.621-125.917c32.396-69.071,67.848-133.863,106.968-194.988c3.667-6.724,8.558-11.002,14.059-12.225
		l24.45-2.445c5.501,0,8.557,0.611,9.168,3.667c0.611,2.445-1.223,7.335-4.278,14.059c-23.228,35.452-56.234,91.688-99.021,168.093
		c-42.788,77.629-66.626,126.528-71.516,146.699C25.314,480.44,27.148,481.663,30.815,481.052z M260.644,48.289
		c7.946-13.448,11.002-23.228,10.392-29.34c-1.223-6.113-3.668-11.002-7.945-14.67c-4.279-3.667-10.393-4.89-17.728-3.667
		c-7.335,1.223-15.281,8.558-23.839,20.782c-8.558,12.225-12.225,24.45-10.391,36.063c1.833,11.614,8.558,16.504,20.171,14.059
		C242.918,69.682,252.698,61.736,260.644,48.289z" class="color c1"/>
  </g>
</svg>