<svg version="1.1" id="图层_1" x="0px" y="0px" width="188.875px" height="499.719px" viewBox="0 0 188.875 499.719" enable-background="new 0 0 188.875 499.719" xml:space="preserve" xmlns:xml="http://www.w3.org/XML/1998/namespace" xmlns="http://www.w3.org/2000/svg" xmlns:xlink="http://www.w3.org/1999/xlink">
  <path fill="#36EEFF" d="M98.984,171.621c-10.291,9.988-15.739,23.002-16.343,37.228l0,0v0.303l-1.211,80.811
	c-0.304,15.437-13.317,28.148-28.754,27.846c-7.565-0.303-14.527-3.33-19.673-8.776c-5.146-5.448-7.868-12.409-7.868-19.978
	l3.935-236.682c0.303-15.436,13.317-28.148,28.753-27.845c12.712,0.303,23.305,9.08,26.938,20.884
	c9.383-1.513,23.91-2.421,24.818-2.119c-2.118-10.291-6.658-19.673-14.225-27.24C85.364,6.064,72.047,0.314,57.821,0.011
	C28.463-0.594,4.25,23.013,3.947,52.069L0.012,288.752c-0.303,14.227,5.146,27.543,15.133,37.834
	c9.988,10.289,23.002,16.041,37.229,16.344c14.527,0.303,27.846-5.449,37.833-15.133c9.684-9.384,16.041-22.701,16.344-37.229
	l1.211-80.812c0.301-15.436,13.316-28.147,28.752-27.845c15.436,0.302,28.146,13.317,27.846,28.753l-3.936,236.684
	c0,7.566-3.328,14.527-8.777,19.672c-5.447,5.146-12.408,7.869-19.976,7.869c-15.437-0.303-28.147-13.316-27.845-28.752
	l0.303-15.738l-25.121-3.027l-0.304,18.463c-0.302,29.357,23.001,53.57,52.057,53.875c14.227,0.303,27.543-5.146,37.834-15.135
	c10.291-9.986,16.041-23.002,16.344-37.227l3.936-236.684c0-29.056-23.307-53.269-52.664-53.571
	C122.591,156.792,108.97,161.936,98.984,171.621z" class="color c1"/>
</svg>