<svg version="1.1" id="图层_1" x="0px" y="0px" width="130.146px" height="125.692px" viewBox="0 0 130.146 125.692" enable-background="new 0 0 130.146 125.692" xml:space="preserve" xmlns="http://www.w3.org/2000/svg" xmlns:xlink="http://www.w3.org/1999/xlink" xmlns:xml="http://www.w3.org/XML/1998/namespace">
  <path fill="#FFFFFF" d="M0,125.692v-3.344c4.641-0.738,8.232-2.256,10.705-4.544c2.473-2.292,5.072-6.715,7.795-13.243L61.346,0
	h3.373l45.66,105.119c3.094,7.116,5.752,11.723,7.98,13.827c2.23,2.073,6.158,3.218,11.787,3.402v3.344H80.029v-3.344
	c5.725-0.491,9.438-1.451,11.109-2.908c1.668-1.455,2.473-3.341,2.473-5.629c0-2.846-1.391-7.456-4.145-13.86L58.189,27.903
	L29.174,99.055c-2.693,6.589-4.053,11.416-4.053,14.479c0,2.536,0.836,4.548,2.537,6.031c1.67,1.483,5.104,2.414,10.238,2.783v3.344
	H0L0,125.692z" class="color c1"/>
</svg>