<svg version="1.1" id="图层_1" x="0px" y="0px" width="113.182px" height="121.611px" viewBox="0 0 113.182 121.611" enable-background="new 0 0 113.182 121.611" xml:space="preserve" xmlns="http://www.w3.org/2000/svg" xmlns:xlink="http://www.w3.org/1999/xlink" xmlns:xml="http://www.w3.org/XML/1998/namespace">
  <path fill="#A3A4A5" d="M99.272,83.632c-7.812,13.113-22.127,21.92-38.466,21.92c-24.675,0-44.747-20.073-44.747-44.746
	c0-24.675,20.072-44.746,44.747-44.746c16.339,0,30.654,8.807,38.467,21.92l6.973-4.026l6.936-4.003
	C102.589,12.039,83.078,0,60.807,0C27.277,0,0,27.277,0,60.806c0,33.527,27.277,60.805,60.808,60.805
	c22.271,0,41.781-12.039,52.374-29.949l-6.936-4.004L99.272,83.632z" class="color c1"/>
  <path fill="#8E8E8E" d="M60.807,8.029C31.658,8.029,8.03,31.657,8.03,60.806c0,29.148,23.628,52.775,52.776,52.775
	c19.341,0,36.25-10.406,45.438-25.924l-6.974-4.025c-7.812,13.113-22.127,21.92-38.466,21.92c-24.675,0-44.747-20.073-44.747-44.746
	c0-24.675,20.072-44.746,44.747-44.746c16.339,0,30.654,8.807,38.467,21.92l6.973-4.026C97.057,18.436,80.147,8.029,60.807,8.029z" class="color c2"/>
</svg>