<svg version="1.1" id="图层_1" x="0px" y="0px" width="369.574px" height="106.48px" viewBox="0 0 369.574 106.48" enable-background="new 0 0 369.574 106.48" xml:space="preserve" xmlns="http://www.w3.org/2000/svg" xmlns:xlink="http://www.w3.org/1999/xlink" xmlns:xml="http://www.w3.org/XML/1998/namespace">
  <path fill="#6A0E10" d="M47.673,82.045L47.673,82.045c-0.011-0.018-0.021-0.029-0.03-0.047c-0.198-0.249-0.339-0.542-0.396-0.865
	c-0.013-0.101-0.007-0.202-0.007-0.303c-0.137-0.569-0.256-1.26-0.4-2.104c-1.953-11.473-3.925-22.941-5.92-34.407
	C18.89,50.399,5.941,56.405,0,59.379c11.878,3.646,23.566,7.54,35.058,11.673c0.5,0.182,0.904,0.549,1.114,1.02
	c0.212,0.471,0.217,1.005,0.016,1.485c-4.6,10.942-8.969,21.919-13.118,32.924c16.267-5.46,32.776-10.418,49.505-14.855
	c-7.799-3.07-15.694-6.028-23.683-8.869C48.313,82.741,47.943,82.51,47.673,82.045z M54.523,80.676
	c7.361,2.672,14.643,5.441,21.838,8.309c-0.684-5.1-1.371-10.197-2.063-15.294C65.221,76.536,58.556,79.064,54.523,80.676z
	 M334.515,71.052c11.492-4.134,23.184-8.028,35.059-11.673c-5.924-2.966-18.82-8.948-40.752-15.018
	c-2.139,12.266-4.248,24.535-6.336,36.806c-0.098,0.573-0.455,1.07-0.977,1.354c-0.236,0.13-0.5,0.19-0.766,0.216
	c-8.008,2.846-15.927,5.812-23.742,8.888c16.727,4.438,33.238,9.396,49.502,14.856c-4.146-11.005-8.516-21.981-13.115-32.924
	c-0.203-0.479-0.195-1.015,0.018-1.485C333.615,71.6,334.013,71.233,334.515,71.052z M293.21,88.983
	c7.139-2.843,14.359-5.591,21.66-8.242c-6.451-2.417-12.996-4.669-19.641-6.729C294.555,79.002,293.88,83.993,293.21,88.983z
	 M41.944,25.691c0.411,2.407,1.286,7.539,2.338,13.736c0.103,0.625,0.211,1.263,0.322,1.908c0.105,0.628,0.212,1.264,0.321,1.907
	c2.104,12.439,4.614,27.532,5.684,34.022c0.047,0.278,0.093,0.552,0.135,0.798c1.052-0.438,2.457-1.008,4.19-1.686
	c1.763-0.686,3.878-1.483,6.32-2.362c3.495-1.259,7.686-2.684,12.521-4.188c0.633-0.196,1.275-0.394,1.932-0.594
	c0.633-0.193,1.277-0.387,1.934-0.583c23.301-6.949,60.198-15.081,105.663-15.154c37.214-0.078,74.082,5.266,108.585,15.494
	c0.647,0.19,1.292,0.377,1.937,0.571s1.286,0.389,1.93,0.587c4.449,1.371,8.854,2.827,13.217,4.356
	c2.045,0.718,4.078,1.453,6.105,2.205c1.303,0.483,2.609,0.962,3.904,1.46c0.045-0.265,0.086-0.529,0.131-0.794
	c1.881-11.367,3.781-22.73,5.703-34.093c0.107-0.636,0.217-1.272,0.322-1.908c0.107-0.636,0.217-1.272,0.324-1.908
	c0.775-4.584,1.555-9.168,2.342-13.751C305.214,16.669,256.49,0.165,184.875,0C113.262,0.15,64.535,16.646,41.944,25.691z" class="color c1"/>
</svg>