<svg version="1.1" id="图层_1" x="0px" y="0px" width="318.9px" height="89.2px" viewBox="0 0 318.9 89.2" enable-background="new 0 0 318.9 89.2" xml:space="preserve" xmlns="http://www.w3.org/2000/svg" xmlns:xlink="http://www.w3.org/1999/xlink" xmlns:xml="http://www.w3.org/XML/1998/namespace">
  <path fill="#FFFFFF" d="M318.9,0L311.8,2c-50.199,14.4-100,21.7-152.3,22.3C107.1,23.7,57.3,16.4,7.1,2L0,0l2.2,7
	C8.5,27.8,15,48.7,21.4,69.2l0.7,2.1l2.2,0.5C69,83,113.2,88.7,159.4,89.2l0,0l0,0c46.201-0.5,90.4-6.199,135.201-17.3l2.199-0.5
	l0.7-2.101C304,48.5,310.5,27.6,316.8,7L318.9,0L318.9,0z" class="color c1"/>
  <path fill="#001C28" d="M293.7,68C300.101,47.4,306.6,26.5,312.9,5.9c-50.501,14.5-100.8,21.8-153.4,22.4
	C106.8,27.7,56.5,20.4,6,5.9C12.3,26.6,18.8,47.4,25.2,68C69.7,79,113.6,84.7,159.5,85.2C205.3,84.7,249.2,79,293.7,68z" class="color c2"/>
</svg>