<svg version="1.1" id="图层_1" x="0px" y="0px" width="343.661px" height="125.055px" viewBox="0 0 343.661 125.055" enable-background="new 0 0 343.661 125.055" xml:space="preserve" xmlns="http://www.w3.org/2000/svg" xmlns:xlink="http://www.w3.org/1999/xlink" xmlns:xml="http://www.w3.org/XML/1998/namespace">
  <g>
    <path fill="#F7931E" d="M252.444,34.587c0,0,65.092-10.698,77.889-33.695c0,0,9.24,21.981-6.83,34.925
		c0,0,11.088,11.568,20.158,8.879c0,0-9.732,23.793-56.477,20.992L252.444,34.587z M91.217,33.695c0,0-65.092-10.699-77.889-33.695
		c0,0-9.239,21.981,6.83,34.926c0,0-11.088,11.568-20.158,8.879c0,0,9.732,23.792,56.477,20.992L91.217,33.695z" class="color c1"/>
    <path fill="#F15A24" d="M253.385,34.782l0.059-0.147c33.92-10.74,49.945-0.002,49.945-0.002c9.773,8.223,4.252,21.768,4.252,21.768
		l-43.053,20.804l-11.646-5.916C255.788,60.995,253.864,39.488,253.385,34.782z M90.275,33.89l-0.059-0.148
		c-33.92-10.74-49.944-0.002-49.944-0.002c-9.773,8.223-4.253,21.769-4.253,21.769l43.053,20.803l11.646-5.916
		C87.873,60.103,89.798,38.596,90.275,33.89z" class="color c2"/>
    <path fill="#FBB03B" d="M300.965,33.069c0,0,23.986,33.954-130.474,33.954c-154.454,0-128.359-34.379-128.359-34.379
		c-14.243,3.301-15.595,57.488,4.585,67.391c56.119,26.879,123.774,24.992,123.774,24.992s67.662,1.887,123.779-24.992
		C314.452,90.132,315.208,36.371,300.965,33.069z" class="color c3"/>
  </g>
</svg>