<svg version="1.1" id="图层_1" x="0px" y="0px" width="300.7px" height="53px" viewBox="0 0 300.7 53" enable-background="new 0 0 300.7 53" xml:space="preserve" xmlns="http://www.w3.org/2000/svg" xmlns:xlink="http://www.w3.org/1999/xlink" xmlns:xml="http://www.w3.org/XML/1998/namespace">
  <path fill="#101E3F" d="M298.1,46.6c-0.1,0.2-0.2,0.3-0.3,0.5h-0.1c-0.3,0-0.4-0.3-0.7-0.3c0.2-0.6,0.5-1.1,0.7-1.5l-6.8-19.6
	L300.7,0l-184,0.5c-0.4,0.3-0.9,0.5-1.4,0.5s-0.9-0.2-1.2-0.5L81.4,0.6c0.1,0.5,0.1,1.2,0.3,1.7c-0.2,0.2-0.5,0.3-0.9,0.3
	c-0.1,0-0.2,0-0.3,0c-0.4-0.7-0.1-1.2,0-1.9L0,0.8l9,25.8L0,53h87.4c-0.3-1.2-0.6-2.5-0.6-3.2c0.6,0.1,1,0.3,1.5,0.5
	c-0.3,1.2,0,2,0.2,2.7h7.1c0.2-0.3,0.3-0.6,0.3-1c-0.1,0-0.1,0-0.2,0c-0.5,0-0.8,0.3-1.1,0.6c0.2-0.3,0.5-0.6,1.1-0.6l0,0l0,0
	c0,0,0.1,0,0.2,0c0,0.4-0.1,0.7-0.3,1H127c0-0.3-0.1-0.5-0.1-0.8c0.2-0.1,0.4-0.1,0.5-0.1c0.6,0,0.9,0.4,0.9,0.9h13.1
	c0-0.5,0.1-0.8,0.3-1c0.3,0.4,1,0.3,1,1c-0.1,0-0.1,0-0.1,0c-0.1,0-0.2,0-0.3,0.1h106.9c0.3-0.4,0.4-0.9,1.1-1v1c0,0,0,0-0.1,0.1
	h50.2L298.1,46.6z M294.2,6.4c0.1,0,0.1,0,0.2,0c1.1,0,0.9,0.9,0.4,1.3C294.2,7.7,294.2,7.1,294.2,6.4z M8.4,14.5H7.1
	c-0.2-0.6,0.2-0.9,0.5-0.9C8.1,13.6,8.5,13.9,8.4,14.5z M4.9,47c-0.6-0.3-0.1-1,0.3-1c0.1,0,0.3,0.1,0.4,0.2C5.7,46.8,5,46.5,4.9,47
	z M7.1,50.9c-0.1,0-0.3,0-0.5-0.1C7,50,7.1,48.9,8.3,48.9h0.1C8.4,49.4,8,50.9,7.1,50.9z M12.5,31.9c-0.4-0.4-0.9-0.7-0.7-1.7
	c0.2,0,0.3,0,0.5,0c0.4,0,0.8,0.1,1,0.3C13.5,31.4,12.7,31.3,12.5,31.9z M15.6,27.9h-0.1v-1c0.1,0,0.2,0,0.3,0
	c0.5,0,0.8,0.2,0.7,0.7C16.2,27.8,15.9,27.9,15.6,27.9z M20.7,23.1c-1.8,0-2.3-1.3-3-2.3c0.1-0.6,0.7-1.4,1.3-1.4
	c0.1,0,0.2,0,0.4,0.1c0.1,0.8-0.8,0.6-0.5,1.5c0,0.4,0.5,0.5,1,0.5c0.1,0,0.3,0,0.5,0s0.3,0,0.5,0c0.1,0,0.2,0,0.3,0
	C21,22.2,21,22.8,20.7,23.1z M44,49.1c-0.2,0-0.5-0.1-0.6-0.2c0.1-0.7,0.5-1.1,1-1.1c0.2,0,0.4,0.1,0.6,0.4
	C45,48.7,44.5,49.1,44,49.1z M46.7,39.6c0.2,0.7,0.1,1.7,0.5,2.2C47.1,41.9,47.1,42,47,42c-0.1,0-0.3-0.2-0.5-0.3
	c-0.2-0.2-0.4-0.3-0.6-0.3h-0.1C47,40,46,38,47,37.4C48.2,37.5,47.7,39.6,46.7,39.6z M57.2,50.6c-0.4,0-0.8-0.2-0.7-0.7h0.1
	c0.2,0,0.3-0.1,0.4-0.2c0.1-0.1,0.2-0.1,0.4-0.1c0.1,0,0.2,0,0.3,0c0.1,0.2,0.3,0.4,0.2,0.7C57.8,50.5,57.5,50.6,57.2,50.6z
	 M81.2,44.7c-0.1,0-0.2,0-0.3,0c-0.1-0.6,0.3-0.8,0.8-0.8c0.1,0,0.2,0,0.3,0C82.1,44.5,81.8,44.7,81.2,44.7z M105.1,52.2L105.1,52.2
	L105.1,52.2L105.1,52.2z M141.3,9.9c0.1,0,0.2,0,0.2,0c0.6,0,0.8,0.4,1.2,0.5c0,0.3-0.3,0.5-0.7,0.5S141.1,10.5,141.3,9.9z
	 M135.2,40.8c0,0.1-0.1,0.2-0.1,0.2c-0.1,0-0.2-0.1-0.4-0.2c-0.1-0.1-0.3-0.2-0.4-0.2l0,0c0.1-0.3,0.2-0.4,0.4-0.4s0.5,0.2,0.8,0.2
	C135.3,40.5,134.7,40.6,135.2,40.8z M140.8,43.4c-0.1-0.9,0.5-1.1,0.7-1.7c0-0.6-1-0.2-0.7-1.2c0.1,0,0.2,0,0.3,0
	c1.5,0,1.7,2.8,1.9,4.6C142.1,44.7,141.1,44.4,140.8,43.4z M143.9,9c-1-0.2-1.9-0.4-2.7-0.7c0.1-0.5,0.3-0.6,0.6-0.6
	c0.2,0,0.4,0.1,0.7,0.2s0.6,0.2,1,0.2c0.1,0,0.3,0,0.5-0.1v1H143.9z M172,22.6c-1.3-0.2-0.3-1.3-0.5-2.4c0.9,0.2,0.8,1.3,1.2,1.9
	C172.6,22.3,172.1,22.3,172,22.6z M174.5,16.9h-0.1c-0.3,0-0.4,0.2-0.1,0.3c0,0.2-0.3,0.2-0.6,0.2h-0.1h-0.1c-0.1,0-0.2,0-0.2,0
	c0.3-0.6,0.4-1.4,0.7-1.9C174.4,15.6,174.5,16.2,174.5,16.9z M177.6,18.1c-0.6,0-0.9-0.3-1.4-0.5c0-0.1,0.1-0.2,0.1-0.2
	c0.1,0,0.1,0.1,0.1,0.2c0.6-0.2,0.3-1.2,1.1-1.2c0,0,0.1,0,0.2,0c0.5,0.6-0.2,0.9,0.2,1.7C177.8,18.1,177.7,18.1,177.6,18.1z
	 M187.1,16c-0.3,0-0.7,0-1,0.1c-0.3,0-0.6,0.1-1,0.1s-0.8-0.1-1.1-0.2c0.1-0.5,0.3-0.7,0.7-0.7s0.9,0.2,1.3,0.2
	c0.5-0.8,1.3-1.4,2.6-1.4l0,0c-0.1,0.8-0.7,1.1-0.5,2.2C187.8,16,187.4,16,187.1,16z M189.1,24.3c-1-0.1,0.2-0.7-0.5-1
	c0-0.2,0.1-0.2,0.2-0.2h0.5C189.6,23.8,189,23.7,189.1,24.3z M188.7,17.3c-0.2-0.9,0.3-1.2,1-1.2c0,0.3,0.1,0.4,0.2,0.5
	C189.7,17.1,189.2,17.3,188.7,17.3z M208.2,15c-1,0-0.9-1.5,0.1-1.5c0.1,0,0.2,0,0.4,0.1C209,14.3,208.6,14.4,208.2,15z M213.1,18.8
	C213.1,18.8,213,18.8,213.1,18.8c-0.2,0-0.4-0.1-0.5-0.1c-0.1-0.1-0.2-0.1-0.4-0.1h-0.1c-0.2-0.7,0.5-0.5,0.5-1
	C213.1,17.6,213.1,18.2,213.1,18.8z M210.8,14.2c-0.3,0-0.6-0.1-0.9-0.2c0.2-1,1.1-1.1,2-1.4c0.1-0.9,0.2-0.7,0.2-1.9
	c0.1,0,0.1,0,0.2,0c0.8,0,0.9,0.6,1.3,1C213,12.7,212.2,14.2,210.8,14.2z M248.5,11.6h-0.8c-0.2-0.8,0.2-1.1,0.9-1.1
	c0.1,0,0.3,0,0.4,0C248.9,10.9,248.6,11.2,248.5,11.6z M263.7,7.7c-0.2-0.1-0.4-0.3-0.8-0.3l0,0c-0.1-0.9,0.3-1.3,1.2-1.3
	c0.1,0,0.1,0,0.2,0C264.7,6.6,264.2,7.4,263.7,7.7z M265.9,19.3h-1.6c0-0.9,0.4-1.4,1-1.4c0.2,0,0.4,0.1,0.6,0.1V19.3z M267.6,4.6
	c-0.2,0-0.3,0.1-0.5,0.2C267,4.9,266.8,5,266.6,5c-0.1,0-0.2,0-0.3,0c0.1-0.6,0.3-1.1,0.7-1.4c0,0,0,0,0.1,0c0.6,0,0.6,0.6,0.7,1.2
	C267.7,4.6,267.6,4.6,267.6,4.6z M282.7,46.4c-1.1,0-2.2-0.5-2.7-1.2c0.9-0.5,2.2-0.8,4.1-0.8c0.2,0,0.5,0,0.8,0
	C285,45.9,283.9,46.4,282.7,46.4z M285,10.2c-0.4,0-0.8-0.1-1.1-0.2c-0.2-0.8,0.4-0.8,0.5-1.3c0.9,0,1.7,0.1,2.2,0.5
	C286.2,10,285.6,10.2,285,10.2z M293.9,45.2h-1.6c0-0.4,0.5-0.7,1-0.7C293.7,44.5,294.1,44.7,293.9,45.2z M295.9,42.7
	c0.8,0.1,1.2,0.4,1.1,1.3c-0.3-0.4-1.3-0.2-1.6-0.5C295.4,43.1,295.8,43,295.9,42.7z" class="color c1"/>
</svg>