<svg version="1.1" id="图层_1" x="0px" y="0px" width="347.58px" height="120px" viewBox="0 0 347.58 120" enable-background="new 0 0 347.58 120" xml:space="preserve" xmlns="http://www.w3.org/2000/svg" xmlns:xlink="http://www.w3.org/1999/xlink" xmlns:xml="http://www.w3.org/XML/1998/namespace">
  <g>
    <path fill="#FFFFFF" d="M84.925,79.878c1.446,5.715,2.374,8.998,3.822,14.713c-8.918-2.475-19.003-4.629-28.94-7.286
		C68.388,84.417,76.758,82.225,84.925,79.878z" class="color c1"/>
  </g>
  <g>
    <path fill="#FFFFFF" d="M85.471,97.96c-22.158,6.575-41.916,11.883-62.835,22.04c5.032-12.197,13.752-38.502,13.752-38.502
		S12.947,73.798,0,70.615c13.745-6.672,24.727-12.637,38.542-18.004c0.55-0.213,11.616,36.893,11.616,36.893
		S77.345,95.089,85.471,97.96z" class="color c1"/>
  </g>
  <g>
    <path fill="#FFFFFF" d="M262.656,79.878c-1.447,5.715-2.375,8.998-3.822,14.713c8.918-2.475,19.002-4.629,28.938-7.286
		C279.192,84.417,270.821,82.225,262.656,79.878z" class="color c1"/>
  </g>
  <g>
    <path fill="#FFFFFF" d="M262.108,97.96c22.158,6.574,41.916,11.883,62.837,22.039c-5.033-12.197-13.752-38.502-13.752-38.502
		s23.438-7.699,36.387-10.883c-13.744-6.673-24.728-12.636-38.541-18.005c-0.551-0.213-11.617,36.894-11.617,36.894
		S270.235,95.089,262.108,97.96z" class="color c1"/>
  </g>
  <path fill="#A6332C" d="M312.304,27.656C258.341,8.529,215.345,0,172.892,0h-0.001c-41.689,0.002-83.916,8.171-136.93,26.49
	l-5.104,1.763l1.707,5.123c2.682,8.052,5.427,17.394,8.083,26.429c2.689,9.151,5.47,18.614,8.223,26.87l1.742,5.229l5.213-1.791
	C102.137,74.197,138.211,67.1,172.791,67.1c35.226,0.002,71.958,7.409,119.112,24.02l5.191,1.83l1.786-5.207
	c2.816-8.201,5.662-17.598,8.416-26.688c2.74-9.053,5.574-18.414,8.348-26.476l1.761-5.114L312.304,27.656z" class="color c2"/>
  <g>
    <path fill="#FFFFFF" d="M293.716,85.968C202.603,53.874,145.47,53.53,54.049,84.949C48.614,68.645,43.177,47.96,37.744,31.65
		C139.88-3.643,208.694-3.273,310.48,32.805C304.888,49.068,299.3,69.705,293.716,85.968z" class="color c1"/>
  </g>
</svg>