<svg version="1.1" id="图层_1" x="0px" y="0px" width="395.415px" height="119.36px" viewBox="0 0 395.415 119.36" enable-background="new 0 0 395.415 119.36" xml:space="preserve" xmlns="http://www.w3.org/2000/svg" xmlns:xlink="http://www.w3.org/1999/xlink" xmlns:xml="http://www.w3.org/XML/1998/namespace">
  <path fill="#28323C" d="M361.604,82.577l9.309,36.783c-20.511-9.551-45.135-17.32-72.266-22.953l5.214-26.604l0,0
	c-31.48-7.586-68.202-11.757-106.153-11.757c-37.96,0-74.633,3.967-106.228,11.382l5.287,26.979
	c-27.126,5.633-51.751,13.402-72.266,22.953l9.309-36.783L0,66.737c12.909-6.009,27.099-11.401,42.268-16.127l-9.267-23.924
	C77.429,9.477,136.489,0,197.708,0c62.117,0,120.043,9.719,164.706,27.371l-9.192,23.261c15.142,4.721,29.308,10.105,42.193,16.104
	L361.604,82.577z" class="color c1"/>
  <path fill="#686F76" d="M303.861,69.802c13.47,3.246,25.987,7.112,37.22,11.552l-42.434,15.053L303.861,69.802z M96.768,96.407
	L91.48,69.427c-13.535,3.176-26.145,6.982-37.514,11.386L96.768,96.407z" class="color c2"/>
</svg>