<svg version="1.1" id="图层_1" x="0px" y="0px" width="327.967px" height="188.225px" viewBox="0 0 327.967 188.225" enable-background="new 0 0 327.967 188.225" xml:space="preserve" xmlns:xml="http://www.w3.org/XML/1998/namespace" xmlns="http://www.w3.org/2000/svg" xmlns:xlink="http://www.w3.org/1999/xlink">
  <path fill="#FFFFFF" d="M327.763,105.13c-9.479-1.879-16.726-6.337-18.659-18.051l-52.93,0.196
	c-13.302-11.958-26.603-23.915-39.905-35.874c-11.353-10.206-22.705-20.411-34.058-30.616c-3.741-3.363-7.481-6.728-11.226-10.091
	c-1.018-0.916-2.036-1.832-3.055-2.746c-0.377-0.339-1.385-1.634-0.869-0.683c-4.141-7.645-12.326-9.615-19.087-4.19
	c-1.366,1.095-2.451,2.534-3.494,3.928c-0.28,0.374-0.375,0.514-0.394,0.555c-0.619,0.649-1.241,1.296-1.862,1.945
	c-7.943,8.296-15.887,16.592-23.83,24.888C101.293,52.252,84.19,70.114,67.087,87.975l-53.684,0.199
	c0.475,4.507-0.18,9.39-3.36,12.723C7.227,103.849,3.74,105.108,0,105.244l0.224,69.894c7.443,1.59,14.31,4.813,14.822,13.087
	l299.175-0.974c-0.036-10.499,5.043-15.918,13.746-17.726L327.763,105.13z M113.963,46.247c9.37-9.786,18.741-19.572,28.11-29.358
	c1.883-1.967,3.767-3.933,5.649-5.898c1.342-1.401,2.331-3.036,3.788-4.381c2.856-2.634,6.215-2.251,8.965,0.226
	c1.133,1.021,1.631,2.59,2.72,3.567c28.515,25.633,57.029,51.267,85.542,76.9L74.033,87.949
	C87.343,74.048,100.653,60.148,113.963,46.247z" class="color c1"/>
</svg>