<svg version="1.1" id="图层_1" x="0px" y="0px" width="383.248px" height="161.061px" viewBox="0 0 383.248 161.061" enable-background="new 0 0 383.248 161.061" xml:space="preserve" xmlns="http://www.w3.org/2000/svg" xmlns:xlink="http://www.w3.org/1999/xlink" xmlns:xml="http://www.w3.org/XML/1998/namespace">
  <path fill="#F50526" d="M341.047,86.402h14.665v74.658H241.3h-25.678h-48.299h-25.45H27.462V86.402H42.2L0,57.754l33.744-16.775
	L24.184,0l87.533,58.939v27.463h52.312h56.006h51.424h0.07V58.939L359.062,0L349.5,40.979l33.748,16.775L341.047,86.402z" class="color c1"/>
  <path fill="#66090F" d="M57.361,86.402H27.462l84.255-27.463v27.463h-2.344h-7.513H81.441H70.938h-2.812H57.361z M281.314,86.402
	h18.209h10.502h2.811h10.771h32.105l-84.254-27.463v27.463h1.865H281.314z" class="color c2"/>
</svg>