<svg version="1.1" id="图层_1" x="0px" y="0px" width="312.59px" height="83.986px" viewBox="0 0 312.59 83.986" enable-background="new 0 0 312.59 83.986" xml:space="preserve" xmlns="http://www.w3.org/2000/svg" xmlns:xlink="http://www.w3.org/1999/xlink" xmlns:xml="http://www.w3.org/XML/1998/namespace">
  <path fill="#FFFFFF" d="M243.958,80.987c8.696-10.537,15.942-20.929,21.584-30.95c3.638-6.466,6.876-14.186,9.638-22.973h32.858
	L296.37,54.291l11.639,26.695H243.958z" class="color c1"/>
  <path fill="#3B589A" d="M303.489,30.064l-9.365,21.854l-1.021,2.384l1.037,2.377l9.289,21.309h-8.994h-44.207
	c7.072-8.994,13.08-17.865,17.93-26.479c3.445-6.122,6.535-13.32,9.209-21.442h17.066h9.056 M312.588,24.064h-18.154h-21.471
	c-2.713,9.053-6.016,17.357-10.035,24.5c-6.979,12.398-15.852,24.342-25.432,35.423h56.938h18.156l-12.951-29.705L312.588,24.064
	L312.588,24.064z" class="color c2"/>
  <path fill="#FFFFFF" d="M4.581,80.987L16.22,54.291L4.551,27.064h32.867c2.76,8.793,5.997,16.513,9.633,22.975
	c5.641,10.021,12.887,20.41,21.583,30.948H4.581z" class="color c1"/>
  <path fill="#3B589A" d="M35.231,30.064c2.672,8.127,5.761,15.325,9.206,21.445c4.848,8.612,10.855,17.482,17.928,26.478H18.156
	H9.161l9.29-21.309l1.037-2.377l-1.021-2.384L9.101,30.064h9.055H35.231 M39.637,24.064h-21.48H0.002l12.949,30.218L0,83.987h18.156
	h56.939c-9.578-11.08-18.451-23.022-25.43-35.421C45.648,41.429,42.348,33.122,39.637,24.064L39.637,24.064z" class="color c2"/>
  <rect x="28.912" y="3" fill="#FFFFFF" width="254.766" height="61.683" class="color c1"/>
  <path fill="#3B589A" d="M280.678,6v55.683H31.912V6H280.678 M286.678,0H25.912v67.683h260.766V0L286.678,0z" class="color c2"/>
</svg>