<svg version="1.1" id="图层_1" x="0px" y="0px" width="325px" height="103.322px" viewBox="0 0 325 103.322" enable-background="new 0 0 325 103.322" xml:space="preserve" xmlns="http://www.w3.org/2000/svg" xmlns:xlink="http://www.w3.org/1999/xlink" xmlns:xml="http://www.w3.org/XML/1998/namespace">
  <path fill="#E17143" d="M303.155,63.645V25.09l-15.714-9.822V4.725C303.035,3.426,315.892,1.807,325,0v58.838
	C319.296,60.574,311.968,62.188,303.155,63.645z M21.845,63.645V25.09l15.715-9.822V4.725C21.965,3.426,9.108,1.807,0,0v58.838
	C5.703,60.574,13.031,62.188,21.845,63.645z M163.155,40.555c-58.913,0-111.057-3.383-135.001-8.684V90.41
	c22.548,7.75,76.248,12.912,135.001,12.912c58.754,0,112.453-5.162,135-12.912V31.871C274.213,37.172,222.069,40.555,163.155,40.555
	z" class="color c1"/>
</svg>