<svg version="1.1" id="图层_1" x="0px" y="0px" width="327.639px" height="74px" viewBox="0 0 327.639 74" enable-background="new 0 0 327.639 74" xml:space="preserve" xmlns:xml="http://www.w3.org/XML/1998/namespace" xmlns="http://www.w3.org/2000/svg" xmlns:xlink="http://www.w3.org/1999/xlink">
  <polygon fill="#383838" points="9.133,0 12.057,0 21.362,0 24.253,0 27.153,0 32.642,0 36.017,0 295.705,0 299.082,0 304.57,0 
	307.471,0 310.361,0 319.672,0 322.592,0 325.449,0 327.639,0 322.043,21.011 317.43,38.333 317.938,40.113 327.572,74 307.891,74 
	304.838,74 301.793,74 291.969,74 288.912,74 285.853,74 280.031,74 276.426,74 55.299,74 51.696,74 45.875,74 42.813,74 39.757,74 
	29.93,74 26.887,74 23.834,74 0.091,74 8.368,39.34 0,0 6.275,0 " class="color c1"/>
</svg>