<svg version="1.1" id="图层_1" x="0px" y="0px" width="362.513px" height="79.686px" viewBox="0 0 362.513 79.686" enable-background="new 0 0 362.513 79.686" xml:space="preserve" xmlns:xml="http://www.w3.org/XML/1998/namespace" xmlns="http://www.w3.org/2000/svg" xmlns:xlink="http://www.w3.org/1999/xlink">
  <g>
    <path fill="#021724" d="M344.871,77.686H10.708c-5.319,0-9.396-4.727-8.613-9.989l8.667-58.271C11.398,5.159,15.062,2,19.376,2
		h332.429c5.217,0,9.263,4.556,8.647,9.736l-6.934,58.271C352.996,74.387,349.282,77.686,344.871,77.686z" class="color c1"/>
    <path fill="#FFFFFF" d="M344.871,79.686H10.708c-3.118,0-6.073-1.354-8.109-3.715s-2.94-5.483-2.482-8.567l8.668-58.27
		C9.559,3.926,14.112,0,19.375,0h332.43c3.058,0,5.976,1.311,8.006,3.598c2.03,2.286,2.988,5.339,2.627,8.375l-6.935,58.271
		C354.864,75.626,350.292,79.686,344.871,79.686z M19.375,4c-3.297,0-6.149,2.46-6.634,5.721l-8.667,58.27
		c-0.287,1.932,0.279,3.889,1.555,5.367c1.275,1.479,3.127,2.327,5.08,2.327h334.162c3.396,0,6.26-2.543,6.66-5.915l6.935-58.271
		c0.227-1.902-0.373-3.814-1.646-5.247C355.548,4.821,353.72,4,351.805,4H19.375z" class="color c2"/>
  </g>
</svg>