<svg version="1.1" id="图层_1" x="0px" y="0px" width="65.721px" height="18px" viewBox="0 0 65.721 18" enable-background="new 0 0 65.721 18" xml:space="preserve" xmlns="http://www.w3.org/2000/svg" xmlns:xlink="http://www.w3.org/1999/xlink" xmlns:xml="http://www.w3.org/XML/1998/namespace">
  <g transform="translate(0.000000,712.000000) scale(0.100000,-0.100000)">
    <g>
      <path fill="#3A3A3C" d="M1.26,7016.376c6.846-30.781,33.066-56.367,70.303-68.632c50.625-16.582,108.174-5.977,142.93,26.445
			c3.271,3.125,7.803,8.066,10.059,10.938c4.922,6.621,11.162,18.73,13.232,25.898c1.494,5.273,1.494,5.352,4.287,5.352
			c1.533,0,70.713-4.004,153.779-8.867c147.246-8.594,241.074-8.75,244.561-7.402c19.053,7.266,22.881,40.82,6.396,55.723
			c-6.865,6.133-83.154,6.465-253.428-3.516c-83.867-4.844-152.9-8.828-153.379-8.828c-0.557,0-1.191,1.27-1.445,2.773
			c-0.938,4.961-6.445,17.305-10.439,23.516c-5.264,8.223-18.164,20.996-27.5,27.109c-30.986,20.332-71.426,27.754-110.4,20.254
			c-44.727-8.711-79.15-36.133-88.174-70.313C-0.342,7037.88-0.684,7024.989,1.26,7016.376z" class="color c1"/>
    </g>
  </g>
</svg>