<svg version="1.1" id="图层_1" x="0px" y="0px" width="26.137px" height="97.463px" viewBox="0 0 26.137 97.463" enable-background="new 0 0 26.137 97.463" xml:space="preserve" xmlns="http://www.w3.org/2000/svg" xmlns:xlink="http://www.w3.org/1999/xlink" xmlns:xml="http://www.w3.org/XML/1998/namespace">
  <path fill="#2B4265" d="M18.172,61.362l-0.326-5.299l-0.986-15.964c-0.057-0.938,0.5-1.382,1.201-1.548
	c6.004-1.443,8.568-6.628,7.998-13.003L23.953,2.116C23.812,0.776,23.115-0.005,21.824,0c-1.289,0.002-2.121,0.838-2.117,2.128
	l0.055,19.627c0.004,1.363-0.873,2.242-2.236,2.245l-0.102,0.002c-1.363,0.003-2.242-0.874-2.248-2.235L15.121,2.14
	c-0.004-1.29-0.84-2.119-2.133-2.114c-1.289,0.001-2.123,0.835-2.117,2.125l0.057,19.628c0.003,1.361-0.876,2.243-2.237,2.246H8.587
	c-1.361,0.003-2.247-0.873-2.25-2.235L6.287,2.166c-0.006-1.292-0.841-2.121-2.133-2.12C2.863,0.051,2.172,0.835,2.035,2.175
	L0.07,25.621C-0.469,32,2.126,37.174,8.139,38.578c0.702,0.167,1.264,0.604,1.211,1.542l-0.118,2.11
	c1.578-2.35,3.247-4.421,4.95-6.11c0.551,2.039,0.654,4.177,0.607,6.067l-4.372,3.141l4.227-0.007l-5.762,3.138l-0.005,0.099
	c0.51,0.229,3.139,1.396,4.931,1.84C12.25,57.438,9.16,62.369,8.567,63.272c-0.17,0.15-0.358,0.313-0.543,0.472L6.713,87.04
	L6.7,87.261l-0.168,2.979l-0.033,0.605c-0.247,4.325,2.29,6.635,6.766,6.618c4.475-0.012,6.993-2.329,6.725-6.653l-0.748-12.127
	l-0.91-14.744L18.172,61.362z" class="color c1"/>
</svg>