<svg version="1.1" id="图层_1" x="0px" y="0px" width="200px" height="199.979px" viewBox="0 0 200 199.979" enable-background="new 0 0 200 199.979" xml:space="preserve" xmlns="http://www.w3.org/2000/svg" xmlns:xlink="http://www.w3.org/1999/xlink" xmlns:xml="http://www.w3.org/XML/1998/namespace">
  <path fill="#802A00" d="M100,26.405c40.641,0,73.583,32.945,73.583,73.583c0,3.553-0.267,7.043-0.753,10.461
	c9.146-1.754,18.18-4.095,27.042-7.014c0.062-1.173,0.108-2.349,0.128-3.526c-0.831-46.785-33.216-88.371-79.663-97.936
	c-41.645-8.347-84.059,10.26-106.123,46.55C5.005,63.892,0.21,81.244,0,98.742c9.53-7.308,19.432-14.116,29.659-20.407
	C38.905,48.266,66.897,26.405,100,26.405z" class="color c1"/>
  <path fill="#00483A" d="M171.227,118.52c-2.342,0.42-4.688,0.815-7.041,1.17c-30.256,4.651-78.338,3.611-72.934-39.248
	c0.624-4.86,4.652-13.438,1.689-15.907s-11.149-0.806-14.347-0.182c-12.528,2.47-24.405,8.732-35.4,15.022
	c-5.414,3.089-10.736,6.331-15.968,9.71c-9.26,5.979-18.229,12.397-26.877,19.241c0.723,8.577,2.546,17.11,5.513,25.379
	c18.651,51.994,75.919,79.021,127.912,60.371c36-12.807,60.437-45.285,65.332-82.264
	C189.951,114.592,180.643,116.827,171.227,118.52z" class="color c2"/>
</svg>