<svg version="1.1" id="图层_1" x="0px" y="0px" width="152.46px" height="103.586px" viewBox="0 0 152.46 103.586" enable-background="new 0 0 152.46 103.586" xml:space="preserve" xmlns="http://www.w3.org/2000/svg" xmlns:xlink="http://www.w3.org/1999/xlink" xmlns:xml="http://www.w3.org/XML/1998/namespace">
  <g>
    <path fill="#FFFFFF" d="M146.79,70.446c1.031-0.636,1.922-1.585,2.734-2.729c0.725-1.175,1.375-2.552,1.643-4.089
		c0,0,0.031-0.162,0.088-0.446c0.051-0.283,0.15-0.683,0.211-1.175c0.055-0.493,0.123-1.069,0.195-1.685
		c0.076-0.614,0.131-1.274,0.139-1.941c0.014-0.67,0.027-1.336,0.039-1.96c-0.018-0.629-0.063-1.221-0.096-1.724
		c-0.035-0.506-0.064-0.926-0.088-1.222c-0.018-0.292-0.055-0.465-0.055-0.465s-0.105-0.673-0.266-1.686
		c-0.129-1.01-0.514-2.358-0.871-3.694c-0.191-0.667-0.463-1.324-0.686-1.942c-0.244-0.612-0.43-1.196-0.682-1.67
		c-0.475-0.956-0.791-1.593-0.791-1.593c-1.592-2.999-4.244-5.037-6.721-5.579c-1.232-0.294-2.158,0.151-3.207,0.47
		c-1.031,0.299-1.734,1.035-2.441,1.771c0,0-0.486-0.739-0.672-0.88c-0.18-0.142-0.439-0.342-0.781-0.531
		c-0.336-0.203-0.727-0.439-1.146-0.691c-0.418-0.257-0.867-0.521-1.342-0.722c-0.357-0.155-0.709-0.318-1.053-0.478
		c-0.018-0.342-0.037-0.688-0.057-1.041l-0.08-1.413c-0.314-5.6-1.156-20.479-12.814-25.364c-4.182-1.755-7.773-1.82-10.656-1.876
		c-3.016-0.059-4.537-0.139-6.248-1.327c-4.158-2.897-7.156-4.37-11.996-4.37c-1.656,0-3.447,0.16-5.988,0.397
		c-4.814,0.452-6.838,2.04-8.498,3.623c-0.6,0.575-0.996,0.955-3.84,1.145c-1.35,0.091-2.572,0.154-3.682,0.214
		c-6.496,0.346-10.789,0.571-15.355,5.151c-1.164,1.167-3.354,1.291-6.818,1.354c-1.762,0.034-3.588,0.067-5.438,0.367
		c-6.508,1.052-13.49,8.207-17.055,16.903c-2.203,0.886-4.002,2.445-5.008,4.216c-0.566,0.991-0.891,2.065-0.965,3.076
		c-0.029,0.5-0.029,1.035,0.045,1.557c0.074,0.516,0.221,1.004,0.432,1.473c0,0-0.459,0.302-1.147,0.752
		c-0.334,0.237-0.689,0.566-1.088,0.893c-0.398,0.33-0.814,0.689-1.172,1.107c-0.369,0.406-0.756,0.801-1.076,1.202
		c-0.299,0.416-0.578,0.801-0.816,1.134c-0.248,0.33-0.432,0.619-0.535,0.829c-0.117,0.207-0.184,0.325-0.184,0.325
		c-0.943-0.39-1.971-0.52-3.055-0.341c-1.076,0.181-2.111,0.69-3.154,1.503c-1.963,1.607-3.537,4.53-3.726,7.786
		c0,0-0.018,0.681-0.049,1.699c-0.023,0.514-0.006,1.103,0.035,1.73c0.039,0.628,0.059,1.304,0.135,1.967
		c0.273,2.659,0.969,5.229,0.969,5.229s0.193,0.637,0.478,1.594c0.139,0.479,0.33,1.032,0.566,1.615
		c0.234,0.585,0.465,1.213,0.744,1.825c0.582,1.222,1.174,2.438,1.738,3.315c0.266,0.44,0.492,0.809,0.648,1.066
		C6.388,75.359,6.499,75.5,6.499,75.5c1.816,2.762,4.754,4.494,7.293,4.852c2.586,0.389,4.02-1.041,5.186-2.677
		c0,0,1.18,0.733,1.939,1.042c0.373,0.162,0.809,0.36,1.281,0.545c0.49,0.149,1.012,0.305,1.531,0.462
		c0.521,0.179,1.059,0.249,1.56,0.336c0.5,0.081,0.971,0.177,1.371,0.215c0.807,0.038,1.344,0.066,1.344,0.066
		c0.098,1.011,0.469,2.011,1.119,2.863c0.639,0.828,1.568,1.547,2.742,2.094c1.125,0.481,2.506,0.781,3.947,0.794
		c1.381-0.045,2.975-0.244,4.328-0.855c0,0,0.227-0.092,0.607-0.253c0.748,0.056,1.525,0.089,2.338,0.11
		c2.648,1.392,9.117,4.268,17.311,4.268c2.797,0,5.57-0.338,8.262-0.996c0.953,0.324,2.281,0.758,3.797,1.178
		c0.289,2.4,1.082,5.307,3.045,7.84c1.697,2.195,4.916,4.887,10.623,5.27c2.789,0.189,5.977,0.289,9.221,0.289
		c11.803,0,27.283-1.186,33.994-6.83c1.229-1.035,2.469-2.605,3.012-9.052c0.363-0.217,0.625-0.381,0.645-0.397
		c1.164-0.894,1.99-2.036,2.547-3.132c0.576-1.081,0.758-2.279,0.723-3.313c-0.045-1.055-0.359-2.013-0.916-2.876
		c0,0,0.383-0.354,0.953-0.881c0.281-0.271,0.639-0.558,0.957-0.924c0.322-0.361,0.666-0.749,1.01-1.134
		c0.355-0.377,0.656-0.798,0.941-1.188c0.285-0.39,0.551-0.753,0.779-1.068c0.422-0.646,0.678-1.091,0.678-1.091
		c0.932,0.417,1.943,0.593,3.002,0.508C144.718,71.475,145.755,71.087,146.79,70.446z" class="color c1"/>
    <path fill="#06335B" d="M147.363,70.764c1.041-0.645,1.941-1.603,2.762-2.762c0.73-1.186,1.387-2.575,1.658-4.129
		c0,0,0.033-0.165,0.088-0.449c0.053-0.288,0.15-0.69,0.213-1.187c0.057-0.499,0.125-1.079,0.197-1.701
		c0.076-0.621,0.135-1.287,0.141-1.964c0.014-0.674,0.027-1.348,0.039-1.979c-0.018-0.635-0.062-1.232-0.094-1.742
		c-0.037-0.509-0.068-0.934-0.09-1.233c-0.019-0.296-0.057-0.468-0.057-0.468s-0.107-0.683-0.27-1.706
		c-0.129-1.02-0.516-2.38-0.879-3.729c-0.191-0.674-0.467-1.339-0.691-1.964c-0.248-0.618-0.434-1.208-0.689-1.685
		c-0.48-0.968-0.799-1.612-0.799-1.612c-1.607-3.026-4.287-5.086-6.787-5.633c-1.246-0.3-2.4-0.317-3.457,0.005
		c-1.043,0.299-1.924,0.846-2.637,1.591c0,0-0.105-0.08-0.291-0.222c-0.184-0.143-0.445-0.346-0.791-0.538
		c-0.34-0.205-0.734-0.443-1.158-0.696c-0.422-0.26-0.875-0.527-1.357-0.729c-0.359-0.156-0.715-0.323-1.059-0.483
		c-0.02-0.346-0.039-0.694-0.061-1.052l-0.08-1.427c-0.318-5.656-1.166-20.686-12.945-25.623c-4.223-1.771-7.852-1.838-10.766-1.894
		c-3.043-0.06-4.582-0.138-6.309-1.343C96.993,1.486,93.964,0,89.075,0c-1.674,0-3.482,0.159-6.049,0.399
		c-4.865,0.457-6.906,2.061-8.584,3.661c-0.607,0.58-1.008,0.963-3.877,1.156c-1.365,0.092-2.6,0.157-3.721,0.216
		c-6.562,0.348-10.898,0.578-15.512,5.202c-1.176,1.18-3.387,1.305-6.885,1.37c-1.783,0.034-3.627,0.069-5.496,0.37
		c-6.57,1.061-13.627,8.287-17.226,17.072c-2.227,0.896-4.043,2.471-5.061,4.262c-0.57,1-0.897,2.084-0.973,3.108
		c-0.029,0.502-0.029,1.044,0.045,1.569c0.074,0.521,0.223,1.017,0.436,1.489c0,0-0.463,0.304-1.158,0.759
		c-0.338,0.239-0.697,0.57-1.098,0.903c-0.4,0.333-0.824,0.693-1.186,1.118c-0.369,0.41-0.762,0.808-1.086,1.214
		c-0.303,0.421-0.586,0.811-0.826,1.146c-0.25,0.334-0.432,0.624-0.541,0.838c-0.115,0.208-0.184,0.327-0.184,0.327
		c-0.953-0.392-1.99-0.524-3.084-0.343c-1.088,0.182-2.135,0.698-3.187,1.517c-1.984,1.625-3.572,4.577-3.764,7.866
		c0,0-0.018,0.688-0.049,1.718c-0.023,0.519-0.008,1.113,0.033,1.747c0.041,0.635,0.061,1.317,0.139,1.985
		c0.275,2.69,0.977,5.283,0.977,5.283s0.193,0.645,0.482,1.609c0.139,0.485,0.336,1.043,0.574,1.633
		c0.234,0.589,0.467,1.225,0.748,1.844c0.59,1.234,1.189,2.462,1.758,3.35c0.271,0.444,0.498,0.814,0.656,1.074
		c0.154,0.26,0.266,0.402,0.266,0.402c1.838,2.791,4.805,4.538,7.371,4.897c2.611,0.396,4.787-0.596,5.965-2.251
		c0,0,0.463,0.292,1.229,0.604c0.381,0.162,0.818,0.361,1.297,0.551c0.496,0.149,1.021,0.307,1.547,0.466
		c0.525,0.179,1.068,0.249,1.574,0.341c0.506,0.081,0.98,0.177,1.387,0.213c0.812,0.04,1.355,0.068,1.355,0.068
		c0.102,1.021,0.477,2.029,1.133,2.892c0.648,0.84,1.584,1.565,2.77,2.116c1.137,0.485,2.529,0.79,3.986,0.801
		c1.396-0.043,3.006-0.245,4.371-0.862c0,0,0.23-0.094,0.615-0.255c0.758,0.053,1.541,0.089,2.361,0.11
		c2.676,1.409,9.211,4.31,17.486,4.31c2.826,0,5.625-0.336,8.348-1.004c0.961,0.326,2.303,0.762,3.836,1.189
		c0.291,2.426,1.092,5.361,3.074,7.918c1.713,2.215,4.967,4.938,10.73,5.326c2.818,0.189,6.037,0.289,9.314,0.289
		c11.924,0,27.559-1.197,34.34-6.9c1.242-1.045,2.492-2.631,3.043-9.141c0.363-0.221,0.629-0.385,0.65-0.402
		c1.174-0.904,2.01-2.057,2.572-3.168c0.582-1.087,0.764-2.298,0.729-3.343c-0.047-1.067-0.363-2.034-0.924-2.906
		c0,0,0.385-0.355,0.963-0.89c0.281-0.274,0.643-0.563,0.965-0.934c0.328-0.366,0.676-0.756,1.021-1.146
		c0.361-0.379,0.664-0.805,0.951-1.198c0.287-0.394,0.557-0.762,0.787-1.077c0.426-0.653,0.684-1.104,0.684-1.104
		c0.941,0.421,1.965,0.602,3.033,0.513C145.269,71.798,146.314,71.408,147.363,70.764z M132.751,76.991
		c-0.051-0.487-0.107-0.974-0.18-1.459c0.398-0.287,0.883-0.641,0.967-0.726c0.271-0.264,0.547-0.53,0.824-0.798
		c0.584-0.503,1.059-1.128,1.586-1.709c0.533-0.57,0.955-1.238,1.436-1.845c0.418-0.649,0.834-1.285,1.234-1.904
		c0.336-0.655,0.699-1.273,1.016-1.876c0.271-0.62,0.547-1.203,0.805-1.746c0.412-1.116,0.826-2.043,1.008-2.723
		c0.223-0.671,0.354-1.06,0.354-1.06s-0.031,0.41-0.084,1.118c-0.029,0.721-0.252,1.715-0.522,2.924
		c-0.18,0.587-0.377,1.227-0.605,1.901c-0.266,0.657-0.566,1.345-0.891,2.048c-0.385,0.673-0.75,1.395-1.199,2.077
		c-0.49,0.653-0.928,1.366-1.484,1.987c-0.564,0.61-1.086,1.262-1.717,1.789c-0.307,0.272-0.611,0.541-0.912,0.809
		c-0.301,0.264-0.646,0.469-0.957,0.702C133.384,76.536,133.04,76.783,132.751,76.991z M131.917,44.255
		c-0.041-0.471-0.076-0.938-0.113-1.399c0.391,0.245,0.604,0.462,0.613,0.449C132.23,43.618,132.068,43.937,131.917,44.255z
		 M133.896,66.163c0.576,0.732,1.271,1.453,2.094,2.07c0,0-0.199,0.352-0.523,0.855c-0.178,0.243-0.385,0.523-0.609,0.826
		c-0.221,0.305-0.449,0.636-0.727,0.919c-0.264,0.298-0.529,0.596-0.775,0.874c-0.129,0.151-0.828,0.772-1.297,1.192
		c-0.188-0.732-0.4-1.415-0.65-2.043c0.803-1.402,1.506-3.202,1.896-5.492C133.491,65.632,133.689,65.902,133.896,66.163z
		 M128.232,65.033c-1.584,3.726-4.299,6.613-7.939,8.575c-5.209,1.383-10.188,1.691-13.826,0.406
		c0.352-0.004,0.705-0.011,1.066-0.029c1.572-0.085,3.346-0.196,5.07-0.394c0.863-0.096,1.732-0.218,2.586-0.37
		c0.854-0.151,1.691-0.326,2.49-0.556c1.604-0.44,3.059-1.056,4.184-1.787c0.561-0.362,1.053-0.734,1.438-1.117
		c0.404-0.36,0.697-0.729,0.943-1.023c0.246-0.294,0.393-0.565,0.51-0.728c0.113-0.17,0.172-0.262,0.172-0.262
		s-0.074,0.078-0.221,0.221c-0.148,0.135-0.338,0.366-0.629,0.594c-0.295,0.232-0.639,0.521-1.08,0.772
		c-0.422,0.276-0.943,0.521-1.518,0.741c-0.572,0.223-1.211,0.404-1.9,0.531c-0.686,0.139-1.418,0.229-2.184,0.271
		c-0.762,0.051-1.557,0.051-2.365,0.019c-0.807-0.025-1.631-0.085-2.455-0.17c-1.662-0.162-3.273-0.402-4.869-0.65
		c-1.432-0.265-2.74-0.66-3.795-1.084c-1.059-0.428-1.881-0.867-2.406-1.197c-0.264-0.164-0.451-0.299-0.564-0.383
		c-0.055-0.038-0.072-0.061-0.08-0.067c-0.025-0.167-0.068-0.317-0.088-0.491c-0.58-5.122-0.516-14.583-0.375-21.264
		c1.117,0.525,2.371,0.834,3.703,0.853l7.565,0.076c0,0,1.894,0.009,3.789,0.017c0.938,0.006,1.877,0.008,2.582,0.011
		c0.514,0.026,0.855,0.041,0.855,0.041c0.406,0.02,0.805-0.018,1.199-0.101c0.398-0.097,0.74-0.147,1.109-0.296
		c0.721-0.268,1.459-0.748,2.102-1.235c0.662-0.52,1.322-1.18,1.926-1.945c0.525-0.659,0.996-1.398,1.383-2.222
		c0.312,4.749,0.73,9.376,1.721,16.726C128.761,60.729,128.626,63.171,128.232,65.033z M115.304,36.208
		c-0.002,0.838,0.352,1.597,0.932,2.147c0.289,0.274,0.635,0.497,1.02,0.651c0.385,0.153,0.811,0.239,1.205,0.262l2.521,0.105
		c-0.389,0.699-1.104,1.189-1.895,1.152c0,0-0.416-0.018-1.041-0.044c-0.701-0.004-1.639-0.008-2.576-0.011
		c-1.883-0.01-3.766-0.019-3.766-0.019l-7.523-0.075c-0.896-0.014-1.658-0.532-2-1.261l2.627,0.041
		c1.772,0.018,3.219-1.323,3.236-2.998c0.016-1.675-1.396-3.049-3.158-3.069l-2.613-0.038c0.361-0.718,1.133-1.213,2.023-1.199
		l7.465,0.075c0,0,1.867,0.008,3.732,0.017c0.936,0.003,1.871,0.007,2.574,0.009c0.779,0.031,1.299,0.052,1.299,0.052
		c0.996,0.042,1.816,0.577,2.131,1.325l-2.955-0.127c-0.49-0.025-0.904,0.06-1.283,0.215c-0.383,0.152-0.725,0.373-1.016,0.646
		C115.665,34.612,115.306,35.369,115.304,36.208z M28.218,33.889c1.951-0.47,3.9-0.815,3.9-0.815s1.945-0.354,3.885-0.614
		c0.969-0.135,1.936-0.239,2.662-0.328c0.725-0.074,1.205-0.125,1.205-0.125c0.922-0.088,1.758,0.334,2.178,1.029l-2.795,0.266
		c-1.812,0.208-3.09,1.738-2.852,3.407c0.238,1.647,1.799,2.821,3.496,2.625l2.66-0.253c-0.283,0.746-0.973,1.327-1.832,1.408
		c0,0-0.449,0.046-1.121,0.115c-0.668,0.084-1.568,0.18-2.451,0.304c-1.777,0.238-3.516,0.556-3.516,0.556s-1.746,0.31-3.439,0.718
		c-0.848,0.201-1.688,0.415-2.301,0.604c-0.619,0.181-1.031,0.301-1.031,0.301c-0.764,0.26-1.586,0.001-2.146-0.574
		c0,0,0.58-0.194,1.16-0.389c0.572-0.207,1.168-0.371,1.168-0.371c1.57-0.48,2.594-2.09,2.217-3.732
		c-0.371-1.623-2.148-2.63-3.961-2.079c0,0-0.139,0.04-0.348,0.104c0.02-0.139,0.035-0.272,0.055-0.412
		c0.078-0.321,0.168-0.64,0.256-0.96c0.086-0.024,0.176-0.05,0.27-0.078C26.267,34.369,27.243,34.12,28.218,33.889z M23.724,74.011
		c-0.051-0.015-0.104-0.03-0.152-0.045c-0.318-0.138-0.615-0.271-0.869-0.379c-0.522-0.2-0.834-0.406-0.834-0.406
		c0.233-0.558,0.418-1.108,0.574-1.651c0.115,0.243,0.23,0.49,0.351,0.729C23.107,72.872,23.415,73.453,23.724,74.011z
		 M18.31,51.975c-0.246-0.277-0.502-0.556-0.766-0.831c-0.627-0.652-1.359-1.338-2.199-1.931c0,0,0.045-0.083,0.123-0.227
		c0.072-0.149,0.197-0.343,0.367-0.562c0.16-0.225,0.348-0.486,0.549-0.768c0.215-0.268,0.478-0.522,0.721-0.797
		c0.23-0.286,0.512-0.519,0.777-0.733c0.207-0.17,0.391-0.337,0.57-0.479C18.314,47.706,18.259,49.826,18.31,51.975z M23.802,48.534
		c1.615,0.673,3.238,0.865,4.879,0.34c0,0,0.359-0.104,0.897-0.26c0.529-0.167,1.273-0.354,2.031-0.534
		c1.508-0.362,3.109-0.648,3.109-0.648s1.59-0.293,3.252-0.515c0.836-0.104,1.674-0.207,2.301-0.285
		c0.639-0.065,1.064-0.11,1.064-0.11c0.838-0.083,1.643-0.299,2.4-0.619c0.131,1.838,0.199,3.437,0.219,3.907
		c-0.102,1.315-0.17,2.769-0.197,4.393c-0.318,18.774-0.932,19.514-8.207,19.358c-0.691-0.017-1.455-0.112-2.252-0.338
		c0.1,0.002,0.199,0.002,0.301,0.004c1.209-0.006,2.44-0.074,3.584-0.289c1.141-0.209,2.193-0.588,2.99-1.096
		c0.799-0.507,1.309-1.124,1.588-1.574c0.281-0.458,0.383-0.741,0.383-0.741s-0.168,0.253-0.531,0.612
		c-0.363,0.36-0.951,0.788-1.738,1.045c-1.584,0.552-3.832,0.298-6.023-0.266c-0.557-0.148-1.113-0.296-1.662-0.444
		c-0.596-0.164-1.055-0.278-1.524-0.447c-0.934-0.327-1.799-0.745-2.529-1.123c-0.275-0.146-0.512-0.276-0.746-0.411
		C25.101,64.836,23.48,58.688,23.802,48.534z M43.564,35.56c0.602-0.089,1.254-0.191,1.947-0.258
		c0.691-0.072,1.424-0.163,2.18-0.222c0.758-0.051,1.541-0.123,2.336-0.159c0.797-0.034,1.606-0.07,2.414-0.106
		c0.811-0.011,1.619-0.022,2.414-0.035c0.795-0.008,1.58,0.009,2.338,0.024c1.516,0.033,2.932,0.097,4.145,0.19
		c1.211,0.079,2.221,0.183,2.928,0.269c0.699,0.091,1.107,0.145,1.107,0.145s-0.408,0.05-1.111,0.135
		c-0.705,0.069-1.715,0.169-2.922,0.255c-1.213,0.088-2.621,0.175-4.131,0.239c-0.754,0.032-1.535,0.066-2.328,0.101
		c-0.791,0.025-1.596,0.052-2.398,0.078c-0.807,0.018-1.609,0.035-2.402,0.054c-0.791,0.031-1.572,0.027-2.326,0.04
		c-0.754,0.023-1.482,0.027-2.176,0.033c-0.691,0.007-1.348,0.011-1.953,0.016c-1.209-0.005-2.219-0.007-2.932-0.009
		c-0.709-0.021-1.117-0.03-1.117-0.03s0.4-0.091,1.092-0.245C41.363,35.923,42.359,35.727,43.564,35.56z M62.757,32.36
		c0.355-0.723,1.133-1.224,2.031-1.218l7.539,0.086l7.514,0.144c0.896,0.017,1.652,0.541,1.988,1.271l-2.74-0.058
		c-1.768-0.038-3.23,1.294-3.26,2.969c-0.033,1.673,1.369,3.059,3.133,3.097L81.7,38.71c-0.369,0.716-1.146,1.204-2.037,1.187
		l-6.178-0.119c0.086-0.649,0.184-1.255,0.293-1.807c0,0-0.742,0.153-1.557,1.783h-0.031l-2.381-0.028
		c-0.24-0.682-0.398-1.106-0.398-1.106s0.066,0.424,0.164,1.103l-4.836-0.055c-0.887-0.006-1.646-0.519-1.994-1.241l2.606,0.015
		c1.754,0.01,3.199-1.325,3.221-3.003c0.02-1.672-1.4-3.055-3.178-3.063L62.757,32.36z M83.07,35.305
		c0.606-0.03,1.262-0.062,1.955-0.079c0.695-0.018,1.426-0.045,2.184-0.045c0.758-0.001,1.539-0.025,2.334-0.01
		c0.795,0.009,1.602,0.019,2.406,0.027c0.809,0.022,1.615,0.047,2.408,0.069c0.793,0.021,1.574,0.074,2.33,0.106
		c1.514,0.078,2.922,0.178,4.133,0.288c1.207,0.101,2.215,0.218,2.92,0.307c0.699,0.099,1.107,0.156,1.107,0.156
		s-0.402,0.055-1.111,0.122c-0.709,0.067-1.719,0.154-2.932,0.219c-1.211,0.07-2.625,0.119-4.139,0.143
		c-0.758,0.006-1.541,0.024-2.336,0.016c-0.793-0.01-1.602-0.019-2.408-0.029c-0.807-0.023-1.615-0.048-2.408-0.074
		c-0.793-0.019-1.574-0.075-2.332-0.11c-0.756-0.034-1.486-0.092-2.178-0.142c-0.693-0.044-1.348-0.108-1.951-0.166
		c-1.209-0.107-2.215-0.229-2.92-0.323c-0.701-0.102-1.107-0.161-1.107-0.161s0.408-0.043,1.113-0.115
		C80.845,35.439,81.857,35.36,83.07,35.305z M77.497,90.689c-0.33-1.988-1.072-2.723,0.85-4.397
		c1.994-1.736,10.861-3.632,12.73-1.479c0.283,0.327,0.531,0.65,0.764,0.972c0.129,0.234,0.269,0.5,0.426,0.83
		c0.5,1.035,1.045,2.514,1.375,4.078c0.176,0.775,0.283,1.576,0.35,2.336c0.049,0.383,0.039,0.748,0.055,1.102
		c0.018,0.355,0.006,0.689-0.01,0.996c-0.014,0.623-0.076,1.141-0.123,1.504c-0.045,0.365-0.07,0.574-0.07,0.574
		s0.082-0.191,0.225-0.529c0.15-0.338,0.359-0.824,0.547-1.432c0.107-0.305,0.217-0.637,0.299-0.996
		c0.09-0.357,0.207-0.736,0.271-1.139c0.16-0.795,0.287-1.666,0.342-2.547c0.07-0.939,0.065-1.887,0.014-2.777
		c0.139-0.07,0.268-0.143,0.404-0.213c4.024-2,9.375-3.01,16.727-3.017c7.332-0.009,10.344-4.309,11.631-8.064
		c1.031-0.689,1.996-1.451,2.881-2.285c1.154,4.556,0.877,12.165,0.168,16.056c0.068-0.795,0.117-1.604,0.096-2.41
		c0.006-0.596-0.023-1.186-0.068-1.764c-0.031-0.579-0.08-1.141-0.154-1.686c-0.072-0.543-0.111-1.066-0.205-1.558
		c-0.084-0.489-0.164-0.953-0.236-1.381c-0.145-0.851-0.328-1.551-0.426-2.042c-0.109-0.49-0.17-0.769-0.17-0.769
		s0.002,0.287,0.008,0.789c-0.004,0.503,0.033,1.215,0,2.07c-0.016,0.428-0.035,0.892-0.051,1.379
		c-0.008,0.489-0.078,0.998-0.115,1.525c-0.035,0.53-0.102,1.07-0.185,1.615c-0.07,0.547-0.158,1.096-0.275,1.636
		c-0.195,1.09-0.512,2.137-0.832,3.08c-0.35,0.928-0.715,1.762-1.111,2.387c-0.385,0.633-0.748,1.084-1.014,1.361
		c-0.068,0.07-0.129,0.133-0.18,0.188c-0.09,0.096-0.166,0.18-0.227,0.246c-0.049,0.053-0.088,0.096-0.113,0.123
		c-6.822,2.543-17.731,3.328-26.697,3.328c-3.385,0-6.488-0.113-8.99-0.279c-5.922-0.398-8.1-3.975-8.857-7.154
		c-0.004-0.016-0.012-0.025-0.014-0.045c-0.002-0.014-0.004-0.027-0.01-0.043c-0.012-0.059-0.025-0.113-0.037-0.172
		C77.488,90.688,77.491,90.689,77.497,90.689z M72.96,45.836l6.576,0.125c4.422,0.094,8.162-3.024,8.713-7.108l7.369,0.152
		c0.146,1.59,0.787,3.053,1.77,4.254c0.062,0.364,0.121,0.732,0.174,1.104c0.205,1.395,0.334,2.798,0.404,3.847
		c0.027,0.413,0.045,0.746,0.057,1.024c-0.238,3.262-0.375,7.458-0.318,12.887c0.086,8.195,0.861,14.887-7.795,15.312
		c-2.945,0.146-7.277,0.487-10.816-0.491c1.334-0.009,2.736-0.011,4.168-0.068c3.324-0.114,6.734-0.587,9.064-1.681
		c1.166-0.534,2.021-1.2,2.523-1.742c0.25-0.272,0.432-0.496,0.539-0.664c0.111-0.157,0.17-0.245,0.17-0.245
		s-0.279,0.315-0.861,0.722c-0.576,0.406-1.486,0.841-2.637,1.09c-2.312,0.521-5.49,0.274-8.621-0.305
		c-1.57-0.283-3.141-0.634-4.65-0.955c-1.359-0.326-2.574-0.767-3.551-1.234c-0.881-0.424-1.568-0.845-2.045-1.181
		c-0.049-0.343-0.107-0.677-0.123-1.056C72.749,61.559,72.609,52.691,72.96,45.836z M67.798,71.602c0,0-0.254,0.283-0.777,0.646
		c-0.521,0.363-1.34,0.755-2.377,0.977c-2.08,0.464-4.941,0.242-7.76-0.276c-1.41-0.256-2.824-0.57-4.184-0.856
		c-1.227-0.294-2.318-0.688-3.197-1.111c-0.883-0.417-1.561-0.843-1.988-1.153c-0.158-0.112-0.271-0.201-0.363-0.276
		c-0.445-2.179-0.594-5.021-0.654-8.799c-0.131-8.3-0.279-13.221,0.205-16.93c1.283-1.378,2.133-3.17,2.275-5.145
		c0,0,1.809-0.088,3.627-0.132c1.82-0.04,3.641-0.081,3.641-0.081c0.535,4.087,4.113,7.238,8.459,7.268l5.479,0.065
		c0.051,0.868,0.082,1.684,0.098,2.354c0.01,0.483,0.012,0.872,0.01,1.166c-0.129,1.972-0.193,4.283-0.156,6.998
		c0.215,15.744,0.443,19.977-9.861,19.903c-3.299-0.023-5.781-0.195-7.686-0.67c1.309-0.013,2.715-0.011,4.141-0.065
		c2.988-0.104,6.055-0.526,8.154-1.505c1.049-0.479,1.82-1.076,2.273-1.562C67.611,71.93,67.798,71.602,67.798,71.602z
		 M13.874,69.572c0,0,0.242,0.323,0.734,0.839c0.242,0.255,0.519,0.58,0.855,0.934c0.352,0.334,0.744,0.715,1.174,1.125
		c0.461,0.373,0.955,0.777,1.48,1.205c0.574,0.354,1.123,0.804,1.766,1.146c0.642,0.351,1.295,0.717,2.01,0.981
		c0.356,0.137,0.691,0.328,1.065,0.424l1.111,0.319c0.361,0.136,0.746,0.183,1.125,0.253c0.078,0.011,0.15,0.025,0.227,0.038
		c0.354,0.536,0.709,1.043,1.062,1.513c-0.1-0.002-0.199-0.006-0.299-0.008c-0.41-0.064-0.822-0.128-1.234-0.191
		c-0.414-0.068-0.836-0.115-1.234-0.251l-1.209-0.373c-0.406-0.11-0.773-0.323-1.156-0.479c-0.777-0.305-1.451-0.768-2.117-1.181
		c-0.67-0.415-1.225-0.945-1.783-1.383c-0.506-0.509-0.979-0.992-1.389-1.454c-0.373-0.493-0.711-0.944-1.016-1.349
		c-0.274-0.417-0.482-0.802-0.664-1.11C14.013,69.96,13.874,69.572,13.874,69.572z M10.474,59.773
		c0.832-0.097,1.523-0.523,2.055-1.085c0.522-0.568,0.799-1.265,0.846-2.021c0,0,0.004-0.148,0.01-0.37
		c0-0.223,0.012-0.517,0.057-0.808c0.064-0.581,0.129-1.164,0.129-1.164c0.688,0.419,1.107,1.083,1.047,1.788
		c0,0-0.01,0.379-0.023,0.946c-0.02,0.282-0.008,0.614,0.021,0.975c0.027,0.356,0.023,0.739,0.072,1.12
		c0.107,0.76,0.193,1.525,0.346,2.085c0.059,0.282,0.109,0.517,0.148,0.683c0.027,0.166,0.066,0.254,0.066,0.254
		s0.111,0.368,0.279,0.92c0.072,0.279,0.186,0.597,0.326,0.927c0.137,0.331,0.26,0.697,0.418,1.041
		c0.34,0.682,0.654,1.373,0.969,1.838c0.145,0.24,0.266,0.442,0.348,0.584c0.082,0.146,0.144,0.213,0.144,0.213
		c0.426,0.549,0.342,1.385,0.01,2.051c0,0-0.098-0.1-0.228-0.262c-0.121-0.168-0.283-0.396-0.447-0.619
		c-0.166-0.226-0.328-0.449-0.453-0.619c-0.107-0.182-0.178-0.303-0.178-0.303c-0.195-0.325-0.455-0.588-0.76-0.798
		c-0.309-0.212-0.619-0.394-0.986-0.503c-0.721-0.225-1.564-0.227-2.332,0.111c-0.766,0.34-1.297,0.979-1.506,1.799
		c-0.098,0.401-0.146,0.859-0.061,1.306c0.088,0.447,0.264,0.904,0.524,1.334c0,0,0.096,0.16,0.242,0.402
		c0.166,0.228,0.387,0.534,0.608,0.841c0.223,0.302,0.447,0.604,0.613,0.834c0.178,0.221,0.309,0.359,0.309,0.359
		c-0.85,0.181-1.767-0.283-2.416-1.162c0,0-0.092-0.11-0.217-0.323c-0.125-0.208-0.307-0.511-0.525-0.87
		c-0.465-0.711-0.945-1.717-1.432-2.721c-0.23-0.507-0.418-1.029-0.609-1.512c-0.199-0.48-0.361-0.938-0.471-1.337
		c-0.238-0.794-0.398-1.323-0.398-1.323s-0.576-2.138-0.805-4.343c-0.068-0.55-0.076-1.107-0.111-1.626
		c-0.035-0.52-0.051-1.006-0.029-1.427c0.023-0.837,0.041-1.396,0.041-1.396c0.082-1.075,0.715-1.937,1.469-2.216
		c0,0-0.088,0.778-0.178,1.56c-0.055,0.39-0.074,0.778-0.074,1.069c-0.01,0.293-0.014,0.489-0.014,0.489
		c-0.057,1.008,0.357,1.909,0.937,2.498C8.823,59.592,9.642,59.869,10.474,59.773z M18.331,41.397
		c1.379-0.695,2.717-1.228,3.887-1.595c1.162-0.388,2.158-0.609,2.857-0.758c0.691-0.16,1.102-0.199,1.102-0.199
		s-0.377,0.155-1.016,0.464c-0.646,0.295-1.564,0.707-2.643,1.24c-1.08,0.524-2.314,1.177-3.594,1.929
		c-0.647,0.363-1.221,0.833-1.859,1.25c-0.283,0.247-0.572,0.498-0.863,0.75l-0.434,0.377l-0.385,0.429l-0.787,0.844
		c-0.225,0.31-0.451,0.617-0.678,0.924l-0.334,0.458l-0.287,0.485c-0.193,0.321-0.385,0.639-0.572,0.949
		c-0.281,0.672-0.649,1.286-0.871,1.924c-0.213,0.638-0.494,1.222-0.627,1.802c-0.357,1.138-0.541,2.121-0.697,2.813
		c-0.082,0.346-0.102,0.622-0.139,0.81c-0.029,0.188-0.047,0.288-0.047,0.288s-0.014-0.103-0.033-0.292
		c-0.012-0.188-0.064-0.472-0.057-0.83c0.002-0.709-0.018-1.743,0.191-2.966c0.053-0.622,0.254-1.266,0.424-1.962
		c0.17-0.694,0.477-1.389,0.754-2.125c0.178-0.35,0.363-0.703,0.549-1.064l0.285-0.542c0.107-0.175,0.231-0.341,0.35-0.511
		c0.238-0.341,0.479-0.681,0.723-1.025l0.842-0.945l0.434-0.464l0.481-0.409c0.324-0.268,0.644-0.537,0.965-0.804
		C16.947,42.196,17.644,41.741,18.331,41.397z M125.661,28.028c-0.635-0.481-1.344-0.883-2.137-1.226
		c-0.6-0.247-1.262-0.512-1.914-0.625c-0.656-0.129-1.344-0.207-2.047-0.236c0,0-0.592-0.021-1.484-0.053
		c-0.701-0.003-1.635-0.006-2.57-0.01c-1.854-0.008-3.707-0.017-3.707-0.017l-7.422-0.074c-4.398-0.062-8.104,3.065-8.646,7.152
		l-7.352-0.152c-0.377-4.106-3.959-7.386-8.412-7.482l-7.545-0.144l-7.6-0.089c-4.533-0.029-8.281,3.224-8.67,7.325
		c0,0-1.861,0.041-3.721,0.083c-1.861,0.047-3.731,0.134-3.731,0.134c-0.625-4.071-4.615-7.12-9.441-6.646
		c0,0-0.506,0.051-1.266,0.13c-0.768,0.097-1.783,0.204-2.811,0.347c-2.057,0.277-4.15,0.657-4.15,0.657s-1.246,0.221-2.793,0.557
		c0.264-0.451,0.531-0.896,0.811-1.324c0.08-0.086,0.279-0.305,0.561-0.637c0.186-0.216,0.393-0.488,0.662-0.77
		c0.274-0.283,0.545-0.623,0.879-0.954c0.344-0.316,0.676-0.697,1.08-1.024c0.383-0.358,0.832-0.667,1.274-0.997
		c0.463-0.305,0.949-0.597,1.467-0.842c0.502-0.275,1.059-0.462,1.613-0.648c0.555-0.195,1.131-0.344,1.709-0.464
		c0.586-0.096,1.154-0.25,1.728-0.313c1.158-0.16,2.24-0.308,3.168-0.435c1.879-0.236,3.16-0.528,3.16-0.528
		s-1.254-0.361-3.168-0.589c-0.959-0.11-2.082-0.208-3.309-0.155c-0.611,0.015-1.254,0.067-1.9,0.167
		c-0.141,0.024-0.283,0.058-0.426,0.085c0.756-0.351,1.49-0.601,2.178-0.712c1.451-0.233,2.998-0.273,4.561-0.304
		c4.148,0.032,5.682,6.161,5.682,6.161s0.068-1.608,0.93-3.684c0.022-0.035,0.201-0.35,0.483-0.879
		c0.129-0.292,0.34-0.611,0.596-0.96c0.119-0.175,0.25-0.361,0.385-0.558c0.158-0.175,0.322-0.357,0.496-0.549
		c0.315-0.403,0.777-0.713,1.195-1.094c0.486-0.306,0.963-0.66,1.539-0.908c0.535-0.307,1.17-0.472,1.773-0.72
		c0.639-0.176,1.279-0.376,1.957-0.487c0.656-0.171,1.346-0.249,2.014-0.363c0.68-0.06,1.34-0.198,1.998-0.244
		c1.32-0.138,2.553-0.265,3.607-0.375c2.131-0.216,3.568-0.506,3.568-0.506s-1.416-0.363-3.562-0.61
		c-1.076-0.126-2.336-0.236-3.701-0.222c-1.268-0.01-2.625,0.112-3.986,0.364c2.41-0.764,5.367-0.799,9.918-1.062l0,0
		c4.545,0.001,6.143,5.886,6.143,5.886s0.082-0.862,0.33-2.092c0.008-0.012,0.148-0.289,0.363-0.771
		c0.113-0.245,0.229-0.549,0.395-0.879c0.168-0.325,0.324-0.71,0.531-1.097c0.221-0.377,0.424-0.804,0.707-1.184
		c0.246-0.411,0.586-0.756,0.912-1.103c0.344-0.334,0.754-0.578,1.184-0.816c0.439-0.221,0.934-0.378,1.449-0.505
		c0.525-0.125,1.061-0.233,1.615-0.291c0.564-0.066,1.115-0.132,1.648-0.194c1.084-0.104,2.115-0.209,3.002-0.334
		c1.777-0.225,2.961-0.55,2.961-0.55s-1.182-0.329-2.959-0.564c-0.889-0.129-1.93-0.233-3.062-0.266
		c-0.568,0.001-1.158-0.031-1.768,0.033c-0.541,0.037-1.1,0.121-1.66,0.229c0.668-0.188,1.479-0.34,2.512-0.437
		c2.32-0.22,4.088-0.379,5.592-0.379c3.355,0,5.391,0.799,9.307,3.524c0.473,0.326,0.937,0.591,1.398,0.827l-0.029,0.007
		c0,0,0.016,0.033,0.023,0.016c0.012-0.02,0.041,0.034,0.072,0.07c0.07,0.089,0.16,0.255,0.264,0.466
		c0.205,0.428,0.443,1.073,0.615,1.766c0.363,1.38,0.463,2.904,0.463,2.904s0.818-1.25,1.418-2.731
		c0.197-0.469,0.352-0.947,0.482-1.408c3.998,0.698,8.092-0.351,13.287,1.826C122.423,15.009,124.722,21.45,125.661,28.028z
		 M140.036,47.824c0,0-0.227-0.338-0.619-0.923c-0.201-0.289-0.488-0.613-0.783-0.998c-0.299-0.384-0.623-0.823-1.053-1.24
		c-0.791-0.886-1.803-1.822-2.961-2.717c-0.299-0.214-0.604-0.431-0.91-0.648l-0.459-0.334l-0.498-0.287
		c-0.33-0.194-0.666-0.391-1.002-0.588l-0.504-0.292l-0.537-0.238l-1.061-0.498l-0.529-0.25l-0.547-0.191
		c-0.738-0.233-1.436-0.553-2.148-0.75c-0.717-0.178-1.406-0.378-2.065-0.562c-0.66-0.176-1.303-0.262-1.887-0.393
		c-0.59-0.105-1.127-0.26-1.611-0.315c-0.486-0.068-0.908-0.13-1.26-0.179c-0.699-0.117-1.104-0.185-1.104-0.185
		s0.41-0.034,1.115-0.093c0.357-0.021,0.791-0.048,1.287-0.077c0.5-0.034,1.057,0.029,1.672,0.055
		c0.609,0.048,1.285,0.042,1.979,0.163c0.695,0.121,1.434,0.242,2.191,0.398c0.754,0.168,1.516,0.426,2.295,0.67l0.584,0.189
		l0.566,0.254l1.137,0.506l0.566,0.264l0.535,0.322c0.355,0.217,0.707,0.431,1.057,0.645l0.52,0.325l0.473,0.383
		c0.312,0.254,0.619,0.505,0.922,0.752c1.174,1.03,2.135,2.135,2.816,3.174c0.381,0.488,0.641,0.996,0.871,1.442
		c0.227,0.446,0.439,0.824,0.574,1.155C139.909,47.439,140.036,47.824,140.036,47.824z M146.4,56.697
		c-0.01,0.517-0.023,1.07-0.037,1.623c0,0.554-0.051,1.104-0.115,1.617c-0.059,0.514-0.113,0.991-0.158,1.402
		c-0.131,0.815-0.254,1.353-0.254,1.353c-0.105,0.512-0.316,0.966-0.625,1.303c-0.32,0.336-0.705,0.563-1.109,0.652
		c0,0,0.055-0.186,0.133-0.461c0.088-0.277,0.188-0.648,0.254-1.027c0.15-0.754,0.303-1.509,0.303-1.509
		c0.162-0.981-0.107-1.928-0.576-2.591c-0.508-0.672-1.271-1.068-2.104-1.093c-0.842-0.026-1.594,0.296-2.172,0.778
		c-0.619,0.485-1.002,1.136-1.127,1.899c0,0-0.119,0.589-0.238,1.177c-0.047,0.299-0.129,0.588-0.197,0.804
		c-0.064,0.218-0.107,0.36-0.107,0.36c-0.301-0.248-0.531-0.559-0.658-0.892c-0.139-0.338-0.211-0.703-0.133-1.064
		c0,0,0.092-0.38,0.182-0.952c0.031-0.287,0.068-0.623,0.109-0.983c0.051-0.359,0.086-0.743,0.08-1.127
		c0.01-0.385,0.021-0.768,0.031-1.127c-0.014-0.359-0.047-0.691-0.062-0.976c-0.018-0.285-0.031-0.523-0.043-0.688
		c-0.004-0.169-0.037-0.258-0.031-0.26c0,0-0.062-0.371-0.154-0.93c-0.051-0.571-0.295-1.276-0.465-2.004
		c-0.096-0.359-0.256-0.691-0.367-1.021c-0.131-0.318-0.207-0.641-0.352-0.874c-0.246-0.489-0.41-0.816-0.41-0.816
		c-0.078-0.156-0.121-0.323-0.141-0.495c-0.039-0.16-0.047-0.327-0.029-0.498c0.033-0.345,0.17-0.703,0.389-1.031
		c0,0,0.301,0.461,0.6,0.924c0.248,0.491,0.5,0.986,0.5,0.986c0.365,0.646,0.867,1.166,1.578,1.465
		c0.713,0.294,1.527,0.408,2.322,0.17c0.809-0.243,1.439-0.817,1.717-1.602c0.287-0.777,0.32-1.795-0.172-2.698
		c0,0-0.33-0.682-0.691-1.349c-0.41-0.641-0.822-1.282-0.822-1.282c0.412-0.03,0.85,0.081,1.262,0.321
		c0.205,0.12,0.402,0.273,0.588,0.453c0.166,0.189,0.311,0.41,0.436,0.652c0,0,0.256,0.513,0.637,1.28
		c0.209,0.379,0.352,0.854,0.549,1.351c0.18,0.501,0.406,1.027,0.559,1.57c0.281,1.093,0.611,2.179,0.705,3.013
		c0.133,0.83,0.221,1.382,0.221,1.382s0.033,0.138,0.049,0.382c0.014,0.243,0.039,0.589,0.068,1.005
		C146.343,55.69,146.382,56.176,146.4,56.697z" class="color c2"/>
  </g>
</svg>