<svg version="1.1" id="图层_1" x="0px" y="0px" width="217.611px" height="248.437px" viewBox="0 0 217.611 248.437" enable-background="new 0 0 217.611 248.437" xml:space="preserve" xmlns="http://www.w3.org/2000/svg" xmlns:xlink="http://www.w3.org/1999/xlink" xmlns:xml="http://www.w3.org/XML/1998/namespace">
  <path fill="#698191" d="M213.411,228.364c-0.745-0.354-1.668-1.205-2.473-2.185c-0.818-0.992-1.575-2.132-2.285-3.315
	c-1.422-2.376-2.662-4.952-3.816-7.572c-2.298-5.256-4.259-10.725-6.079-16.242c-1.82-5.521-3.464-11.112-5.069-16.719
	c-1.592-5.61-3.088-11.254-4.498-16.917c-0.703-2.829-1.39-5.673-2.029-8.496c-0.139-0.67-0.354-1.483-0.559-2.267
	c-0.2-0.791-0.475-1.509-0.718-2.265c-0.531-1.464-1.113-2.877-1.724-4.26c-2.475-5.498-5.242-10.658-7.859-15.884
	c-2.62-5.203-5.153-10.468-7.426-15.749l-1.707-4.03c-0.62-1.377-1.193-2.78-1.854-4.133c-1.317-2.709-2.727-5.362-4.259-7.929
	c-3.031-5.158-6.475-10.011-10.013-14.741c-3.53-4.738-7.252-9.289-10.791-13.906c-0.86-1.157-1.762-2.324-2.557-3.477
	c-0.408-0.58-0.823-1.143-1.217-1.774l-0.599-0.923l-0.299-0.461l-0.23-0.395c-1.299-2.264-1.859-4.956-1.846-7.711
	c0.008-2.761,0.51-5.574,1.248-8.34c0.371-1.385,0.797-2.763,1.26-4.137l0.712-2.061c0.247-0.68,0.501-1.456,0.689-2.186
	c0.759-2.968,1.047-5.982,0.943-9.009c-0.024-0.749-0.092-1.524-0.189-2.283c-0.101-0.741-0.232-1.426-0.268-2.105
	c-0.1-1.367,0.095-2.722,0.529-4.059c0.424-1.339,1.031-2.655,1.662-3.967c0.705-1.308,1.226-2.949,0.964-4.558
	c-0.129-0.8-0.43-1.578-0.89-2.247c-0.222-0.312-0.527-0.678-0.793-0.912c-0.103-0.107-0.34-0.307-0.539-0.408
	c-0.201-0.108-0.396-0.181-0.589-0.247c-1.523-0.448-2.985-0.528-4.46-0.66c-2.936-0.225-5.874-0.284-8.751-0.639
	c-1.394-0.224-2.983-0.351-3.639-1.523c-0.734-1.097-0.377-2.635-0.387-4.109c0.006-0.377-0.01-0.764-0.037-1.122
	c-0.005-0.506-0.452-1.015-1.014-1.01c-0.313,0.021-0.423,0.083-0.61,0.116c-0.172,0.045-0.345,0.08-0.521,0.105
	c-0.349,0.066-0.703,0.098-1.058,0.125c-1.424,0.094-2.862-0.119-4.271-0.449c-1.415-0.326-2.793-0.808-4.248-1.149
	c-0.725-0.143-1.507-0.317-2.32-0.032c-0.402,0.146-0.74,0.476-0.926,0.844c-0.198,0.366-0.263,0.787-0.318,1.129l-0.002,0.013
	c-0.251,2.025-0.993,3.983-2.187,5.636c-0.594,0.826-1.283,1.585-2.053,2.252c-0.384,0.334-0.786,0.648-1.206,0.935
	c-0.416,0.285-0.861,0.558-1.297,0.77l-0.019,0.009l-0.051,0.036c-0.379,0.267-1.15,0.26-1.791,0.253l-2.044-0.07
	c-1.363-0.012-2.821-0.033-4.155,0.682c-0.649,0.373-1.184,1.017-1.376,1.748c-0.211,0.717-0.199,1.471-0.11,2.168l0.659,4.041
	c0.172,1.333,0.396,2.704,0.182,3.943c-0.109,0.616-0.352,1.242-0.565,1.902c-0.213,0.659-0.41,1.331-0.56,2.008
	c-0.325,1.349-0.531,2.716-0.723,4.084c-0.154,1.34-0.384,2.729-0.375,4.138c-0.034,2.805,0.435,5.585,1.166,8.26
	c0.723,2.684,1.709,5.275,2.773,7.812c1.062,2.538,2.239,5.018,3.289,7.496c0.521,1.236,1.006,2.484,1.309,3.689
	c0.062,0.295,0.135,0.596,0.156,0.87c0.023,0.151,0.031,0.275,0.026,0.359l0.01,0.147c0,0.062-0.017,0.163-0.025,0.243
	c-0.037,0.428-0.269,0.942-0.567,1.448c-0.609,1.021-1.48,2.019-2.378,2.982c-0.907,0.964-1.869,1.906-2.848,2.84l-5.96,5.611
	c-3.98,3.779-7.86,7.73-11.421,11.992c-3.557,4.271-6.776,8.823-9.502,13.763c-1.348,2.49-2.544,5.105-3.446,7.794
	c-0.903,2.684-1.614,5.373-2.3,8.03c-1.337,5.31-2.709,10.515-4.269,15.694c-1.562,5.173-3.328,10.301-5.176,15.367
	c-1.907,5.136-3.783,10.166-5.999,15.092c-1.062,2.481-2.25,4.893-3.416,7.32c-1.241,2.381-2.455,4.786-3.849,7.077
	c-2.711,4.631-5.772,9.043-9.232,13.141c-3.445,4.116-7.304,7.879-11.257,11.659l-2.956,2.882c-0.985,0.984-1.902,1.919-2.883,2.961
	c-1.909,2.057-3.635,4.302-5.066,6.735c-1.436,2.427-2.578,5.043-3.301,7.783c-0.362,1.369-0.635,2.764-0.776,4.181
	c-0.128,1.435-0.182,2.808,0.039,4.349l0.012,0.081l0.03,0.074c0.382,0.956,1.061,1.476,1.671,1.9
	c0.629,0.418,1.271,0.727,1.916,0.999c1.29,0.541,2.594,0.93,3.9,1.28c2.614,0.685,5.241,1.188,7.867,1.666
	c5.256,0.93,10.526,1.652,15.788,2.391c5.269,0.719,10.487,1.562,15.705,2.533c5.213,0.961,10.417,2.029,15.571,3.227l0.076,0.018
	l0.092,0.003c3.336,0.124,6.641-0.582,9.729-1.528c3.1-0.949,6.114-1.978,9.168-2.843c3.05-0.875,6.135-1.592,9.25-2.162
	c3.117-0.559,6.26-0.979,9.417-1.279c1.559-0.142,3.167-0.269,4.743-0.358l2.327-0.064l2.344,0.051
	c3.134,0.145,6.281,0.503,9.428,0.931c6.299,0.854,12.586,2.063,19.03,2.873c3.192,0.392,6.579,0.709,9.906,0.515
	c1.672-0.071,3.397-0.299,5.117-0.728c1.724-0.421,3.405-1.179,4.824-1.868c1.419-0.686,2.717-1.205,4.135-1.581
	c1.41-0.368,2.916-0.595,4.378-0.755c0.746-0.085,1.583-0.123,2.37-0.187c0.659-0.039,1.369-0.024,2.082,0.024
	c1.441,0.114,2.948,0.389,4.486,0.699c3.08,0.623,6.312,1.409,9.776,1.616c3.604,0.217,6.929-0.391,10.204-1.225
	c3.264-0.844,6.379-2.047,9.392-3.401c3.01-1.361,5.912-2.913,8.725-4.514l4.002-2.278L213.411,228.364z M98.964,64.497
	c-0.053-0.406-0.154-0.766-0.247-1.135c-0.155-0.527-0.345-1.018-0.533-1.511c0.426,0.224,0.929,0.448,1.514,0.708
	c0.663,0.26,1.41,0.573,2.248,0.835c0.836,0.273,1.749,0.553,2.734,0.769c0.976,0.265,2.031,0.421,3.122,0.579
	c1.094,0.126,2.237,0.179,3.391,0.218c1.161-0.046,2.334,0.023,3.506-0.091c1.172-0.09,2.343-0.141,3.483-0.352
	c0.57-0.087,1.136-0.173,1.695-0.258c0.555-0.108,1.095-0.257,1.63-0.38c0.533-0.129,1.057-0.256,1.57-0.38
	c0.499-0.173,0.987-0.342,1.463-0.507c0.948-0.334,1.844-0.637,2.62-1.053c0.785-0.38,1.504-0.728,2.142-1.037
	c0.567-0.355,1.058-0.662,1.474-0.923c0.207,2.139,0.755,4.283,1.778,6.255l0.099,0.186c-0.004,0.002-0.007,0.003-0.011,0.005
	c-0.477,0.189-1.056,0.419-1.72,0.683c-0.656,0.28-1.453,0.448-2.287,0.712c-0.842,0.244-1.743,0.54-2.736,0.695
	c-0.99,0.159-2.001,0.477-3.091,0.563c-0.54,0.063-1.09,0.127-1.646,0.191l-0.837,0.098l-0.852,0.03
	c-1.141,0.027-2.294,0.116-3.45,0.024l-1.727-0.085c-0.57-0.071-1.138-0.141-1.702-0.211c-1.127-0.122-2.221-0.35-3.283-0.526
	c-1.06-0.198-2.084-0.39-3.056-0.572c-0.965-0.218-1.889-0.396-2.729-0.617c-0.849-0.195-1.616-0.411-2.305-0.591
	c-0.687-0.194-1.286-0.363-1.779-0.502c-0.179-0.056-0.328-0.103-0.478-0.15c0.021-0.126,0.048-0.247,0.058-0.38
	C99.057,65.523,99.035,64.807,98.964,64.497z M93.579,52.023c-1.138-2.454-2.192-4.94-2.986-7.503
	c-0.803-2.556-1.347-5.195-1.414-7.854c-0.052-1.325,0.094-2.649,0.23-4.02c0.158-1.338,0.328-2.678,0.614-3.99
	c0.13-0.659,0.304-1.302,0.495-1.946c0.189-0.642,0.434-1.299,0.549-2.032c0.014-0.097,0.01-0.19,0.019-0.285
	c2.345-0.702,12.665-3.177,18.531,4.91c3.446-3.532,13.321-10.051,26.679-1.671c0.033,0.547,0.084,1.085,0.14,1.59
	c0.063,0.698,0.101,1.387,0.101,2.104c0.005,2.832-0.376,5.708-1.164,8.396c-0.204,0.683-0.424,1.296-0.703,1.984l-0.804,2.068
	c-0.526,1.386-1.021,2.793-1.464,4.226c-0.882,2.862-1.566,5.844-1.706,8.953c-0.041,0.874-0.024,1.764,0.046,2.656
	c-0.02,0.01-0.034,0.017-0.054,0.028c-0.445,0.228-0.986,0.505-1.606,0.822c-0.65,0.248-1.384,0.527-2.184,0.831
	c-0.785,0.338-1.687,0.557-2.633,0.801c-0.47,0.125-0.954,0.254-1.448,0.385c-0.504,0.087-1.019,0.177-1.543,0.267
	c-0.524,0.085-1.052,0.195-1.593,0.265c-0.544,0.046-1.095,0.094-1.65,0.141c-1.105,0.133-2.24,0.106-3.368,0.12
	c-1.128,0.022-2.257-0.117-3.362-0.18c-1.102-0.159-2.19-0.241-3.233-0.413c-1.048-0.143-2.061-0.281-3.021-0.412
	c-0.964-0.127-1.869-0.289-2.712-0.422c-1.682-0.278-3.085-0.558-4.08-0.735c-0.144-0.029-0.259-0.052-0.385-0.077
	c-0.232-0.553-0.472-1.099-0.72-1.634C95.974,56.89,94.717,54.481,93.579,52.023z M202.92,232.87c-2.812,1.3-5.687,2.44-8.62,3.23
	c-2.904,0.787-5.972,1.338-8.779,1.175c-2.944-0.125-5.988-0.776-9.189-1.372c-1.606-0.291-3.261-0.571-5.018-0.679
	c-0.886-0.044-1.779-0.051-2.718,0.025c-0.808,0.081-1.572,0.128-2.416,0.236c-1.718,0.217-3.381,0.5-5.065,0.971
	c-1.674,0.47-3.347,1.186-4.795,1.924c-1.447,0.732-2.697,1.316-4.082,1.686c-1.379,0.369-2.842,0.604-4.368,0.694
	c-3.071,0.22-6.098,0.027-9.269-0.267c-6.291-0.61-12.629-1.643-19.049-2.332c-3.211-0.344-6.445-0.623-9.715-0.682l-2.46,0.01
	l-2.473,0.129c-1.619,0.132-3.201,0.295-4.828,0.483c-3.212,0.384-6.413,0.891-9.587,1.541c-3.172,0.66-6.315,1.473-9.4,2.44
	c-3.091,0.947-6.107,2.093-9.122,3.051c-2.99,0.959-6.012,1.639-9.081,1.579c-5.181-1.111-10.362-2.126-15.566-3.077
	c-2.619-0.475-5.244-0.918-7.875-1.33c-2.631-0.422-5.271-0.772-7.896-1.163c-5.255-0.772-10.511-1.527-15.714-2.481
	c-2.599-0.478-5.187-1.018-7.7-1.733c-1.252-0.359-2.493-0.759-3.645-1.268c-0.573-0.254-1.127-0.538-1.598-0.866
	c-0.439-0.297-0.786-0.661-0.912-0.954c-0.133-1.148-0.084-2.486,0.06-3.731c0.158-1.297,0.418-2.586,0.798-3.844
	c0.747-2.519,1.882-4.921,3.292-7.147c1.406-2.232,3.088-4.291,4.949-6.177c0.918-0.918,1.942-1.903,2.916-2.818l2.992-2.744
	c4.046-3.641,8.137-7.388,11.826-11.544c3.707-4.137,7.025-8.632,9.965-13.336c2.939-4.706,5.593-9.585,7.87-14.617
	c2.343-4.994,4.372-10.168,6.339-15.235c1.91-5.182,3.716-10.373,5.328-15.646c1.64-5.259,2.944-10.642,4.227-15.929
	c0.65-2.635,1.311-5.232,2.122-7.732c0.826-2.491,1.821-4.893,3.018-7.229c2.418-4.692,5.456-9.148,8.724-13.388
	c3.279-4.25,6.906-8.25,10.693-12.138l5.74-5.843c0.957-0.989,1.909-1.995,2.832-3.055c0.916-1.07,1.825-2.167,2.569-3.521
	c0.225-0.43,0.441-0.899,0.594-1.418c0.104,0.068,0.196,0.131,0.316,0.206c0.441,0.291,0.995,0.608,1.643,0.951
	c0.656,0.322,1.395,0.704,2.238,1.025c0.83,0.363,1.761,0.661,2.751,0.971c0.991,0.301,2.06,0.547,3.173,0.749
	c1.125,0.133,2.278,0.335,3.47,0.339c0.592,0.024,1.189,0.049,1.789,0.073l1.803-0.043c1.203,0.017,2.398-0.148,3.572-0.253
	l0.876-0.088l0.859-0.155c0.568-0.103,1.13-0.205,1.682-0.305c0.555-0.083,1.089-0.216,1.607-0.369
	c0.519-0.144,1.027-0.286,1.521-0.423c0.996-0.245,1.891-0.625,2.724-0.944c0.825-0.339,1.608-0.576,2.25-0.916
	c0.647-0.322,1.211-0.604,1.675-0.835c0.011-0.006,0.019-0.009,0.03-0.015l0.045,0.084l0.28,0.473l0.559,0.947
	c0.357,0.629,0.783,1.268,1.192,1.905c0.817,1.296,1.662,2.486,2.501,3.718c3.394,4.843,6.906,9.528,10.258,14.288
	c3.351,4.759,6.511,9.617,9.355,14.614c1.426,2.497,2.719,5.053,3.917,7.641c0.602,1.293,1.111,2.619,1.672,3.925l1.656,4.098
	c2.315,5.514,4.828,10.842,7.435,16.137c2.59,5.281,5.318,10.493,7.611,15.714c0.564,1.305,1.086,2.608,1.544,3.905
	c0.194,0.644,0.454,1.295,0.608,1.927c0.164,0.635,0.335,1.237,0.496,2.003c0.659,2.896,1.354,5.751,2.068,8.613
	c2.88,11.426,6.011,22.791,9.835,33.989c1.913,5.599,3.971,11.163,6.429,16.631c1.239,2.731,2.571,5.44,4.187,8.082
	c0.814,1.32,1.691,2.625,2.751,3.886c0.275,0.315,0.558,0.632,0.857,0.945C206.369,231.174,204.66,232.062,202.92,232.87z" class="color c1"/>
</svg>