<svg version="1.1" id="图层_1" x="0px" y="0px" width="180.536px" height="179.973px" viewBox="0 0 180.536 179.973" enable-background="new 0 0 180.536 179.973" xml:space="preserve" xmlns="http://www.w3.org/2000/svg" xmlns:xlink="http://www.w3.org/1999/xlink" xmlns:xml="http://www.w3.org/XML/1998/namespace">
  <path fill="#38BABA" d="M0,89.941c0,29.17,13.881,55.095,35.394,71.539c-2.346-2.684-4.531-5.563-6.513-8.653
	c-8.914-13.896-12.51-29.666-11.338-44.945c2.61-24.404,15.953-40.08,20.097-44.912l17.08,12.807l-8.067-64.723
	C18.845,26.367,0,55.952,0,89.941z" class="color c1"/>
  <path fill="#04699F" d="M135.525,12.069C110.264-2.516,80.872-3.456,55.874,6.951c3.498-0.689,7.083-1.143,10.751-1.313
	c16.49-0.771,31.946,3.999,44.592,12.654c19.83,14.463,26.734,33.854,28.848,39.859l-19.632,8.39l60.085,25.375
	C181.161,60.176,164.961,29.063,135.525,12.069z" class="color c2"/>
  <path fill="#B7B7B7" d="M134.893,167.902c25.264-14.585,40.771-39.567,44.259-66.422c-1.151,3.374-2.553,6.706-4.237,9.969
	c-7.576,14.667-19.438,25.668-33.256,32.292c-22.439,9.94-42.687,6.225-48.943,5.052l2.551-21.196l-52.017,39.348
	C70.414,183.37,105.458,184.897,134.893,167.902z" class="color c3"/>
</svg>