<svg version="1.1" id="图层_1" x="0px" y="0px" width="160px" height="160px" viewBox="0 0 160 160" enable-background="new 0 0 160 160" xml:space="preserve" xmlns="http://www.w3.org/2000/svg" xmlns:xlink="http://www.w3.org/1999/xlink" xmlns:xml="http://www.w3.org/XML/1998/namespace">
  <path fill="#6A7B83" d="M55.341,68.705c4.213,8.425,14.966,33.602,26.259,29.93c34.313-11.15,58.086,3.629,61.836,4.518
	c4.472,1.058,13.561-4.711,16.564-3.633V26.374C160,11.808,148.191,0,133.628,0H85.214C81.59,9.803,49.02,56.072,55.341,68.705z" class="color c1"/>
  <path fill="#715B3D" d="M13.634,83.188c3.378-4.506,6.756-7.885,10.698-11.827c5.07-6.197,10.703-11.829,15.771-18.024
	c8.448-10.699,16.9-21.401,25.345-32.104C69.807,14.7,72.035,7.113,68.617,0H26.372C11.805,0,0,11.808,0,26.374v61.298
	C5.153,88.07,10.764,86.777,13.634,83.188z" class="color c2"/>
  <path fill="#AD9571" d="M57.415,111.941c-5.075-6.338-5.555-4.651-12.528-7.818c-0.859-0.371-6.757-0.066-7.618-0.343
	c-0.476,0.204-4.295-0.203-4.903-0.114c-8.861,1.266-11.501,3.131-20.549,4.35C7.579,108.583,3.683,109.22,0,110.295v23.331
	C0,148.193,11.805,160,26.372,160h52.494c-0.949-4.595-2.169-9.216-3.711-13.839C71.355,134.754,65.652,122.714,57.415,111.941z" class="color c3"/>
  <path fill="#2F363A" d="M112.77,103.338c-17.265-2.845-28.356,6.244-29.688,23.659c-0.409,11.317,3.18,21.931,6.618,33.003h43.928
	C148.191,160,160,148.193,160,133.626v-16.829c-2.204-1.229-4.523-2.383-6.956-3.462
	C139.387,106.885,125.576,104.609,112.77,103.338z" class="color c4"/>
  <path fill="#AD9571" d="M30.921,75.302c0,0,4.45-7.792,10.849-5.846c6.405,1.948,8.102,4.784,9.492,10.629
	c1.394,5.843,8.571,14.618,1.34,16.845c-7.236,2.228-21.444,2.53-26.909,1.065c-1.953-0.526-10.914-7.388-6.184-12.675
	S30.921,75.302,30.921,75.302z" class="color c3"/>
</svg>