<svg version="1.1" id="图层_1" x="0px" y="0px" width="135.597px" height="142.32px" viewBox="0 0 135.597 142.32" enable-background="new 0 0 135.597 142.32" xml:space="preserve" xmlns="http://www.w3.org/2000/svg" xmlns:xlink="http://www.w3.org/1999/xlink" xmlns:xml="http://www.w3.org/XML/1998/namespace">
  <g>
    <path fill="#5CB837" d="M60.737,92.263c0,0-24.686-3.705-32.155-43.045C22.5,17.18,7.367,12.062,1.96,11.266
		C0.733,11.044,0,11.127,0,11.127s1.402,0.544,2.937,1.165c1.35,0.793,2.966,2.167,4.486,4.191c1.738,2.348,3.208,5.608,4.382,9.509
		c0.247,0.992,0.503,2.019,0.765,3.075c0.238,1.054,0.384,2.147,0.591,3.246c0.209,1.053,0.343,2.354,0.514,3.601
		c0.082,0.631,0.164,1.269,0.248,1.914c0.061,0.61,0.12,1.228,0.182,1.851c0.568,5.285,1.159,11.083,2.533,17.375
		c0.688,3.145,1.619,6.403,2.964,9.728c1.339,3.321,3.215,6.66,5.661,9.761c2.423,3.127,5.585,5.815,9.009,7.954
		c3.431,2.156,7.159,3.716,10.92,4.816c3.245,0.952,6.515,1.615,9.781,2.056C56.892,91.751,58.816,92.048,60.737,92.263z" class="color c1"/>
    <path fill="#258DBE" d="M74.859,91.898c0,0,24.686-3.705,32.155-43.045c6.083-32.039,21.215-37.156,26.622-37.952
		c1.228-0.223,1.96-0.139,1.96-0.139s-1.403,0.543-2.936,1.164c-1.352,0.794-2.967,2.168-4.488,4.192
		c-1.736,2.348-3.207,5.608-4.38,9.509c-0.249,0.992-0.503,2.019-0.766,3.075c-0.239,1.054-0.385,2.146-0.591,3.246
		c-0.21,1.053-0.342,2.354-0.513,3.601c-0.082,0.63-0.166,1.269-0.249,1.913c-0.061,0.611-0.12,1.229-0.182,1.852
		c-0.569,5.284-1.158,11.083-2.533,17.374c-0.688,3.146-1.619,6.404-2.965,9.728c-1.338,3.322-3.214,6.66-5.661,9.762
		c-2.422,3.127-5.585,5.815-9.008,7.954c-3.432,2.156-7.159,3.716-10.921,4.816c-3.244,0.952-6.513,1.615-9.779,2.055
		C78.705,91.387,76.781,91.684,74.859,91.898z" class="color c2"/>
    <path fill="#359CCC" d="M75.262,78.906c-0.064-4.932-0.019-12.781-0.019-12.781C75.612,5.311,96.343,0,96.343,0
		C67.054,13.829,39.865,0,39.865,0s20.157,5.342,20.491,66.645c0,0,0.025,8.335-0.028,12.503
		c-0.746,58.031-7.387,63.173-7.387,63.173h14.856h14.854c0,0-6.812-5.14-7.387-63.171" class="color c3"/>
  </g>
</svg>