<svg version="1.1" id="图层_1" x="0px" y="0px" width="176.785px" height="180px" viewBox="0 0 176.785 180" enable-background="new 0 0 176.785 180" xml:space="preserve" xmlns="http://www.w3.org/2000/svg" xmlns:xlink="http://www.w3.org/1999/xlink" xmlns:xml="http://www.w3.org/XML/1998/namespace">
  <path fill="#FDB03F" d="M105.883,27.719c28.082,7.702,48.805,33.39,48.805,63.887c0,7.582-1.346,14.84-3.692,21.631
	c1.526-0.353,3.104-0.579,4.741-0.579c6.531,0,12.293,3.036,16.156,7.702c3.121-9.032,4.894-18.68,4.894-28.754
	c0-42.613-30.313-78.28-70.509-86.573c1.972,3.204,3.166,6.946,3.166,10.983C109.439,20.345,108.127,24.368,105.883,27.719z
	 M88.645,0c-8.559,0-15.523,6.964-15.523,15.524c-0.002,4.15,1.613,8.053,4.549,10.987c2.932,2.933,6.83,4.548,10.975,4.548
	c8.566,0,15.536-6.969,15.536-15.535C104.18,6.964,97.211,0,88.645,0z" class="color c1"/>
  <path fill="#009BDE" d="M135.268,138.439c-12.012,12.019-28.586,19.461-46.876,19.461c-16.889,0-32.27-6.396-43.988-16.83
	c-2.799,7.457-9.668,12.828-17.932,13.511C42.438,170.283,64.289,180,88.391,180c24.345,0,46.432-9.896,62.432-25.876
	C143.098,152.264,137.053,146.188,135.268,138.439z M154.688,117.822c-8.563,0-15.526,6.964-15.526,15.523
	c0,8.566,6.965,15.535,15.526,15.535c8.564,0,15.533-6.969,15.533-15.535C170.221,124.786,163.252,117.822,154.688,117.822z" class="color c2"/>
  <path fill="#F33475" d="M24.752,112.656c0.289,0,0.564,0.074,0.855,0.084c-2.248-6.646-3.518-13.739-3.518-21.135
	c0-30.507,20.723-56.186,48.811-63.888c-2.242-3.354-3.557-7.376-3.557-11.704c0-4.037,1.195-7.779,3.164-10.983
	C30.313,13.324,0,48.991,0,91.605c0,11.42,2.248,22.306,6.209,32.33C9.734,117.259,16.674,112.656,24.752,112.656z M24.666,148.882
	c8.566-0.002,15.535-6.971,15.535-15.534c0-8.562-6.969-15.524-15.535-15.524c-8.559,0-15.523,6.964-15.523,15.524
	C9.143,141.913,16.107,148.882,24.666,148.882z" class="color c3"/>
</svg>