<svg version="1.1" id="图层_1" x="0px" y="0px" width="106.192px" height="33.457px" viewBox="0 0 106.192 33.457" enable-background="new 0 0 106.192 33.457" xml:space="preserve" xmlns="http://www.w3.org/2000/svg" xmlns:xlink="http://www.w3.org/1999/xlink" xmlns:xml="http://www.w3.org/XML/1998/namespace">
  <path fill="#00A6F3" d="M104.501,4.096C102.724,1.531,99.798,0,96.673,0c-1.941,0-3.813,0.586-5.413,1.695
	c-12.234,8.48-25.094,12.779-38.223,12.779c-21.744,0-36.923-11.864-37.549-12.362C13.801,0.75,11.68,0,9.516,0
	C6.624,0,3.923,1.29,2.107,3.538C-1.188,7.621-0.548,13.623,3.535,16.92c0.479,0.385,11.924,9.492,29.62,14.006
	c6.581,1.679,13.314,2.53,20.013,2.53c17.036,0,33.5-5.424,48.934-16.121C106.413,14.346,107.489,8.407,104.501,4.096z" class="color c1"/>
</svg>