<svg version="1.1" id="图层_1" x="0px" y="0px" width="190px" height="190px" viewBox="0 0 190 190" enable-background="new 0 0 190 190" xml:space="preserve" xmlns="http://www.w3.org/2000/svg" xmlns:xlink="http://www.w3.org/1999/xlink" xmlns:xml="http://www.w3.org/XML/1998/namespace">
  <g>
    <path fill="#37686C" d="M43.975,67.154c8.64-10.59,20.298-15.885,34.977-15.885c8.546,0,16.072,2.463,22.574,7.385
		c6.502,4.924,11.363,11.754,14.586,20.486h0.465l7.209-22.201l-11.131-3.641l20.182-15.463L95,0L0,95.001l34.136,34.135
		c-2.073-6.322-3.12-13.352-3.12-21.105C31.016,91.371,35.334,77.746,43.975,67.154z" class="color c1"/>
    <path fill="#C49F2A" d="M128.962,156.037L95,190L62.82,157.822c2.972,0.676,6.115,1.025,9.441,1.025
		c17.65,0,31.337-10.064,41.062-30.193h0.371C116.662,143.689,121.753,152.814,128.962,156.037z M136.662,61.152l-12.654,43.07
		c2.475,14.309,4.971,23.969,7.479,28.984c2.508,5.018,5.715,7.525,9.615,7.525c0.443,0,1.813-0.188,3.643-0.475L190,95.001
		l-48.178-48.179l5.186,17.717L136.662,61.152z M79.601,66.135c-9.229,0-16.535,3.965-21.924,11.891
		c-5.389,7.927-8.082,17.589-8.082,28.984c0,10.158,2.276,18.736,6.827,25.732c4.553,7,10.761,10.498,18.628,10.498
		c14.12,0,24.926-11.551,32.422-34.652l1.484-4.459C103.57,78.801,93.783,66.135,79.601,66.135z" class="color c2"/>
  </g>
</svg>