<svg version="1.1" id="图层_1" x="0px" y="0px" width="186.084px" height="36.012px" viewBox="0 0 186.084 36.012" enable-background="new 0 0 186.084 36.012" xml:space="preserve" xmlns="http://www.w3.org/2000/svg" xmlns:xlink="http://www.w3.org/1999/xlink" xmlns:xml="http://www.w3.org/XML/1998/namespace">
  <g>
    <polygon fill="#FFF3C4" points="102.952,15.294 96.527,8.677 99.628,0.063 99.65,0 93.034,6.424 84.355,3.301 84.368,3.314 
		90.781,9.917 87.657,18.595 87.669,18.583 94.274,12.17 102.889,15.271 	" class="color c1"/>
    <polygon fill="#FFF3C4" points="0,29.36 3.569,27.872 6.453,30.406 6.475,30.424 4.986,26.854 7.538,23.949 7.531,23.952 
		3.969,25.438 1.063,22.885 1.066,22.893 2.553,26.455 0.018,29.34 	" class="color c1"/>
    <polygon fill="#FFF3C4" points="179.011,35.014 182.36,33.617 185.066,35.994 185.086,36.012 183.689,32.663 186.084,29.937 
		186.078,29.939 182.734,31.334 180.01,28.938 180.012,28.945 181.406,32.288 179.027,34.993 	" class="color c1"/>
  </g>
</svg>