<svg version="1.1" id="图层_1" x="0px" y="0px" width="135px" height="135px" viewBox="0 0 135 135" enable-background="new 0 0 135 135" xml:space="preserve" xmlns:xml="http://www.w3.org/XML/1998/namespace" xmlns="http://www.w3.org/2000/svg" xmlns:xlink="http://www.w3.org/1999/xlink">
  <path fill="#E5C00A" d="M105.209,97.689c17.343-25.617,18.566-57.623,3.23-84.5c12.291,10.852,20.519,24.945,19.893,41.316
	C127.716,70.886,118.293,87.818,105.209,97.689z" class="color c1"/>
  <path fill="#E5C00A" d="M62.183,19.489C31.806,25.339,8.31,47.105,0.148,76.954c-1.017-16.364,3.13-32.147,15.149-43.281
	C27.315,22.526,45.951,17.217,62.183,19.489z" class="color c1"/>
  <path fill="#E5C00A" d="M97.689,29.791c-25.617-17.343-57.623-18.566-84.5-3.231C24.042,14.27,38.134,6.042,54.506,6.668
	C70.886,7.284,87.818,16.707,97.689,29.791z" class="color c1"/>
  <path fill="#E5C00A" d="M115.511,62.183C109.661,31.806,87.895,8.31,58.046,0.148c16.364-1.017,32.147,3.13,43.281,15.149
	C112.475,27.315,117.783,45.951,115.511,62.183z" class="color c1"/>
  <path fill="#E5C00A" d="M72.816,115.511c30.377-5.851,53.873-27.616,62.035-57.465c1.018,16.364-3.129,32.147-15.148,43.281
	C107.686,112.475,89.049,117.783,72.816,115.511z" class="color c1"/>
  <path fill="#E5C00A" d="M37.311,105.209c25.617,17.343,57.623,18.566,84.5,3.23c-10.852,12.291-24.944,20.519-41.315,19.893
	C64.114,127.716,47.182,118.293,37.311,105.209z" class="color c1"/>
  <path fill="#E5C00A" d="M19.489,72.816c5.851,30.377,27.617,53.873,57.465,62.035c-16.364,1.018-32.147-3.129-43.281-15.148
	C22.526,107.686,17.217,89.049,19.489,72.816z" class="color c1"/>
  <path fill="#E5C00A" d="M29.791,37.311c-17.343,25.617-18.566,57.623-3.231,84.5C14.27,110.958,6.042,96.866,6.668,80.494
	C7.284,64.114,16.707,47.182,29.791,37.311z" class="color c1"/>
</svg>