<svg version="1.1" id="图层_1" x="0px" y="0px" width="193.943px" height="192.119px" viewBox="0 0 193.943 192.119" enable-background="new 0 0 193.943 192.119" xml:space="preserve" xmlns="http://www.w3.org/2000/svg" xmlns:xlink="http://www.w3.org/1999/xlink" xmlns:xml="http://www.w3.org/XML/1998/namespace">
  <path fill="#FFFFFF" d="M173.032,79.259c-4.457,2.895-9.664,5.556-15.394,7.869c-5.672,2.258-11.979,4.166-18.518,5.729
	c-6.539,1.563-13.542,2.604-20.602,3.241c-3.529,0.348-7.117,0.578-10.706,0.694c-1.851,0.059-3.588,0.059-5.381,0.116h-5.557
	C89.816,96.62,82.524,96.04,75.581,95c-6.945-0.985-13.773-2.373-20.138-4.226C49.02,88.923,43,86.724,37.561,84.234
	c-5.438-2.486-10.358-5.266-14.409-8.217c-4.051-3.009-7.292-6.076-9.663-9.027c-2.315-2.951-3.705-5.729-4.514-7.986
	c-0.175-0.578-0.349-1.156-0.521-1.619c-0.116-0.463-0.175-0.926-0.29-1.273c3.299-7.581,7.639-14.814,12.963-21.47l0,0
	c0.812,3.414,2.721,8.218,6.539,12.558c3.704,4.341,8.971,8.275,15.277,11.458c6.25,3.241,13.6,5.672,21.701,7.234
	c4.051,0.867,8.275,1.446,12.615,1.852c4.398,0.347,8.912,0.521,13.482,0.462c2.316,0,4.63-0.115,7.061-0.23
	c1.158-0.059,2.258-0.116,3.473-0.231c1.216-0.116,2.431-0.231,3.646-0.348c4.803-0.579,9.664-1.446,14.582-2.488
	c4.861-1.042,9.78-2.373,14.641-4.108c2.373-0.869,4.804-1.852,7.176-2.894c2.373-1.101,4.746-2.258,7.061-3.588
	c4.572-2.604,9.027-5.729,12.674-9.839c1.793-2.083,3.414-4.34,4.629-6.943c1.215-2.604,1.852-5.439,1.852-8.333
	c0-0.29,0-0.578,0-0.81c9.723,10.416,16.782,22.395,21.181,35.126c-1.157,2.083-2.662,4.34-4.688,6.539
	C181.25,73.183,177.546,76.366,173.032,79.259z M187.094,118.899c1.735-1.332,3.415-2.662,4.804-3.994
	c3.125-14.93,2.661-30.381-1.331-45.138c-0.752,1.159-1.62,2.373-2.604,3.589c-3.01,3.703-6.887,7.406-11.574,10.821
	c-4.687,3.357-10.127,6.424-16.087,9.201c-5.96,2.72-12.441,5.035-19.328,7.002c-6.829,1.91-14.005,3.355-21.411,4.456
	c-3.704,0.578-7.465,0.926-11.228,1.273c-1.851,0.173-3.818,0.231-5.729,0.405l-5.555,0.173c-7.697,0.173-15.277-0.115-22.742-0.811
	c-7.465-0.694-14.814-1.852-21.876-3.471c-7.059-1.62-13.771-3.706-20.021-6.192c-6.25-2.547-12.037-5.44-17.129-8.797
	c-5.094-3.356-9.434-7.061-12.905-11.052c-0.174-0.175-0.348-0.349-0.463-0.522c-1.968,9.78-2.431,19.792-1.331,29.571
	c0.983,1.679,2.314,3.473,4.051,5.324c1.39,1.563,3.067,3.067,4.919,4.63c1.909,1.505,3.993,3.066,6.365,4.513
	c4.63,2.895,10.127,5.673,16.146,8.103c6.076,2.488,12.673,4.572,19.733,6.308c7.003,1.736,14.408,3.125,21.991,4.109
	c7.58,0.983,15.449,1.563,23.146,1.735l5.961,0.058c1.968,0,3.818,0,5.787-0.058c3.935-0.115,7.754-0.348,11.632-0.637
	c7.638-0.637,15.161-1.678,22.336-3.125c7.177-1.447,14.005-3.241,20.37-5.438c6.308-2.199,12.095-4.805,17.129-7.641
	C182.64,121.907,184.952,120.345,187.094,118.899z M162.501,23.589C151.39,13.403,138.485,6.286,124.886,2.177l0.116,0.116
	c0.982,0.926,1.793,2.084,2.603,3.24c0.348,0.58,0.752,1.216,1.042,1.795c0.29,0.694,0.58,1.33,0.811,2.024
	c0.174,0.812,0.404,1.563,0.521,2.315l0.058,1.91c0,2.95-1.041,5.787-2.546,8.159c-0.753,1.157-1.62,2.314-2.604,3.239l-0.694,0.754
	l-0.752,0.693c-0.464,0.406-0.928,0.926-1.505,1.272c-4.225,3.3-9.029,5.44-13.832,6.945c-2.372,0.752-4.744,1.389-7.291,1.852
	c-1.215,0.231-2.198,0.348-3.355,0.521h-0.175l-0.115,0.059h-0.058c0.058,0-0.29,0-0.174,0h-0.463l-0.868,0.116
	c-0.521,0.058-1.157,0.114-1.737,0.114c-4.744,0.232-9.258-0.114-13.482-1.041c-4.224-0.926-8.16-2.488-11.4-4.572
	c-3.24-2.083-5.96-4.744-7.754-7.521c-0.926-1.331-1.563-2.836-2.083-4.051c-0.521-1.447-0.868-3.125-0.983-3.994
	c-0.059-1.157-0.116-1.793-0.116-1.793v-0.637c0,0,0-1.1,0.231-3.067c0.116-0.578,0.23-1.273,0.463-1.968
	c-3.24,1.332-6.249,2.778-8.796,4.282c-4.803,2.778-8.334,5.787-10.416,8.392c-2.084,2.604-2.778,4.629-3.067,5.96
	c-0.116,0.637-0.174,1.101-0.174,1.447c0,0.289,0,0.404,0,0.463c0,0.174,0,0.404,0,0.637c0,0.173,0,0.348,0,0.521
	c0,0.115,0,0.289,0,0.289l0.116,0.059c0.058,0.174,0,0.289,0.058,0.578c0.232,1.332,0.983,3.356,3.067,5.961
	c2.024,2.604,5.613,5.613,10.416,8.391c4.802,2.778,10.879,5.381,17.881,7.523c3.473,1.042,7.233,1.967,11.111,2.777
	c3.936,0.752,8.044,1.447,12.267,1.852c2.143,0.23,4.399,0.405,6.54,0.521c1.101,0.059,2.315,0.116,3.414,0.116
	c1.1,0.058,2.2,0.058,3.299,0.058c4.571,0.059,9.202-0.115,13.89-0.694c9.316-1.042,18.98-3.182,27.834-7.523
	c2.141-1.156,4.283-2.373,6.308-3.703c1.969-1.447,3.878-3.01,5.498-4.745c3.356-3.472,5.671-7.929,5.671-12.558
	C163.657,27.35,163.251,25.44,162.501,23.589z M56.137,179.083c-4.109-0.753-8.159-1.621-12.036-2.662
	c34.837,22.742,81.073,20.775,113.943-5.903c-0.867,0.348-1.794,0.694-2.662,1.043c-5.613,2.082-11.689,3.935-18.055,5.265
	c-6.309,1.505-12.963,2.661-19.732,3.53c-3.357,0.463-6.771,0.81-10.244,1.042c-1.678,0.173-3.473,0.231-5.208,0.348l-5.092,0.231
	c-7.062,0.173-13.946,0-20.833-0.464C69.389,181.05,62.677,180.24,56.137,179.083z M73.845,14.85L73.845,14.85
	C73.902,14.793,73.961,14.85,73.845,14.85L73.845,14.85L73.845,14.85c0.231,0.349,0.231,0.695,0.521,1.101
	c0.52,0.926,1.504,2.2,3.182,3.588c1.619,1.389,3.994,2.835,6.83,4.108c2.835,1.273,6.249,2.431,10.068,3.126
	c0.925,0.114,1.852,0.29,2.777,0.462c1.042,0.058,2.257,0.174,3.24,0.232c1.909,0.115,4.052,0.172,6.191-0.117
	c2.143-0.115,4.283-0.577,6.425-1.158c0.579-0.057,1.041-0.346,1.563-0.52c0.521-0.174,1.042-0.347,1.563-0.578l1.504-0.637
	l1.389-0.926c1.852-1.158,3.588-2.546,4.86-4.283c1.272-1.678,2.025-3.645,2.025-5.67c0.058-4.109-3.125-7.755-6.886-9.954
	l-1.446-0.811l-1.505-0.694c-0.521-0.231-1.043-0.405-1.563-0.577c-0.521-0.176-0.984-0.349-1.563-0.521
	c-1.563-0.406-3.067-0.753-4.63-0.984c-4.572-0.116-9.026,0.059-13.367,0.347c-0.231,0.059-0.521,0.116-0.753,0.116
	c-0.983,0.232-1.736,0.463-2.604,0.638c-0.869,0.229-1.794,0.52-2.604,0.751c-0.868,0.289-1.678,0.579-2.431,0.868
	c-0.752,0.347-1.504,0.637-2.256,0.926c-2.836,1.273-5.211,2.777-6.83,4.109c-1.678,1.389-2.662,2.662-3.182,3.529
	c-0.29,0.521-0.29,0.868-0.464,1.158c-0.058,0.289-0.114,0.462-0.114,0.636c0,0.289,0,0.405,0,0.464
	c0,0.289,0.057,0.694,0.057,1.215V14.85C73.845,14.908,73.845,14.85,73.845,14.85L73.845,14.85z M168.113,159.581
	c0.867-0.464,1.735-0.927,2.487-1.447c8.912-10.358,15.278-22.105,19.099-34.489c-2.026,1.562-4.226,3.125-6.598,4.572
	c-5.267,3.297-11.227,6.364-17.766,8.912c-6.539,2.603-13.6,4.859-21.006,6.711c-7.466,1.853-15.221,3.241-23.149,4.282
	c-3.935,0.579-7.985,0.984-12.036,1.215c-1.967,0.175-4.051,0.29-6.076,0.406l-6.018,0.231c-8.275,0.174-16.379-0.058-24.363-0.753
	c-8.102-0.636-15.972-1.677-23.553-3.241c-7.581-1.561-14.872-3.529-21.643-5.901c-5.846-1.968-11.342-4.397-16.377-7.061
	c0.521,1.043,0.868,2.2,0.868,3.415c0,0,0.058,0.173,0.058,0.578c0,0.231,0,0.463,0,0.752c0.058,0.231,0.058,0.811,0.058,0.811
	c0.059,0.347,0.289,1.967,1.157,3.703c0.81,1.795,2.372,4.051,4.804,6.482c2.431,2.372,5.787,4.859,9.779,7.118
	c3.993,2.371,8.68,4.513,13.889,6.48c5.15,1.91,10.822,3.646,16.781,5.035c6.02,1.388,12.327,2.546,18.75,3.355
	c6.424,0.812,13.137,1.331,19.676,1.504l5.092,0.117c1.622-0.06,3.241,0,4.919-0.06c3.299-0.058,6.598-0.172,9.837-0.404
	c6.54-0.463,12.964-1.215,19.098-2.314c6.136-1.099,11.979-2.488,17.419-4.167C158.681,163.746,163.715,161.779,168.113,159.581z" class="color c1"/>
</svg>