<svg version="1.1" id="图层_1" x="0px" y="0px" width="126px" height="72.635px" viewBox="0 0 126 72.635" enable-background="new 0 0 126 72.635" xml:space="preserve" xmlns="http://www.w3.org/2000/svg" xmlns:xlink="http://www.w3.org/1999/xlink" xmlns:xml="http://www.w3.org/XML/1998/namespace">
  <path fill="#C09A5E" d="M22.386,69.635h81.229v3H22.386V69.635z M120.452,41.567L99.363,60.701h4.253v6H22.386v-6h4.252
	L5.551,41.565c-3.438-3.123-5.406-7.36-5.543-11.936c-0.136-4.561,1.568-8.893,4.798-12.196c2.406-2.461,5.479-4.153,8.884-4.893
	c3.901-0.847,7.913-0.377,11.415,1.245c1.361-4.273,4.148-7.938,8.032-10.463C36.489,1.148,40.385,0,44.406,0
	c6.735,0,13.006,3.219,16.773,8.612l1.82,2.598l1.828-2.609C68.594,3.216,74.862,0,81.596,0c4.025,0,7.921,1.149,11.267,3.322
	c3.885,2.525,6.673,6.19,8.035,10.465c3.502-1.622,7.515-2.091,11.416-1.245c3.405,0.74,6.478,2.432,8.882,4.894
	c3.229,3.303,4.934,7.634,4.799,12.196C125.858,34.207,123.89,38.444,120.452,41.567z M66.065,17.292v43.409h3.9L93.424,27.19
	c2.074-2.965,2.842-6.536,2.158-10.056c-0.701-3.607-2.828-6.726-5.99-8.781C87.224,6.814,84.458,6,81.596,6
	c-4.776,0-9.207,2.259-11.854,6.042L66.065,17.292z M32.58,27.192l23.454,33.509h3.9V17.292l-3.671-5.241
	C53.615,8.261,49.184,6,44.406,6c-2.859,0-5.626,0.814-8,2.354c-3.159,2.055-5.287,5.174-5.986,8.781
	C29.736,20.654,30.504,24.226,32.58,27.192z M35.567,60.701h13.144L27.664,30.632c-2.201-3.145-3.375-6.762-3.471-10.48
	c-2.653-1.793-5.991-2.452-9.229-1.748c-2.256,0.49-4.284,1.604-5.867,3.224c-2.08,2.127-3.178,4.906-3.091,7.824
	c0.087,2.931,1.357,5.655,3.577,7.67L35.567,60.701z M119.997,29.453c0.086-2.917-1.012-5.696-3.092-7.824
	c-1.583-1.62-3.611-2.734-5.865-3.224c-3.237-0.703-6.577-0.045-9.23,1.748c-0.095,3.717-1.269,7.334-3.469,10.478L77.29,60.701
	h13.145l25.984-23.578C118.639,35.108,119.909,32.384,119.997,29.453z" class="color c1"/>
</svg>