<svg version="1.1" id="图层_1" x="0px" y="0px" width="141.5px" height="162.304px" viewBox="0 0 141.5 162.304" enable-background="new 0 0 141.5 162.304" xml:space="preserve" xmlns="http://www.w3.org/2000/svg" xmlns:xlink="http://www.w3.org/1999/xlink" xmlns:xml="http://www.w3.org/XML/1998/namespace">
  <path fill="#D2D8E0" d="M83.97,62.792h21.771l3.981,7.166H87.775l-0.098-0.183l-1.445-2.732L83.97,62.792L83.97,62.792z
	 M78.558,52.625l3.282,6.167h0.001h21.678l0.684,1.229l-4.109-7.396H78.558L78.558,52.625z M41.407,52.625l0.015-0.028l0,0
	l-3.44,6.192c0.003,0.001,0.006,0.001,0.009,0.003h21.667l3.282-6.167H41.407z M70.863,0.014c0,0-0.025-0.014-0.035-0.014
	c-0.008,0-0.02,0.004-0.031,0.004c-0.009,0-0.02-0.004-0.03-0.004c-0.005,0-0.011,0.002-0.017,0.006C70.744,0.002,70.738,0,70.734,0
	c-0.011,0-0.021,0.004-0.031,0.004C70.692,0.004,70.681,0,70.671,0s-0.035,0.014-0.035,0.014L43.073,49.625h21.464l6.165-11.582
	l0.047,0.09l0.047-0.09l6.165,11.582h21.465L70.863,0.014z M31.766,69.977L31.766,69.977l0.011-0.019h21.949l0.098-0.183
	l1.443-2.732l2.263-4.251H35.758l0.023-0.042L31.766,69.977z M141.5,89.628c-15.372,11.201-22.034-2.135-22.034-2.135l-2.382-4.287
	l-5.138-9.247l1.11,1.999H90.994l9.262,17.266c4.797,7.848,17.385,14.496,29.646,7.721c-1.687,2.84-3.472,5.607-5.35,8.307
	c-13.035,18.746-30.714,34.232-53.801,47.324c-23.086-13.092-40.766-28.578-53.801-47.322c-1.878-2.701-3.662-5.469-5.349-8.309
	c12.26,6.775,24.848,0.127,29.644-7.721l9.263-17.266H28.443l-4.027,7.249l-2.382,4.287c0,0-6.662,13.336-22.034,2.135
	c0.019,0.029,0.039,0.055,0.058,0.082c2.641,5.734,5.649,11.316,9.06,16.744c13.323,21.203,32.887,40.008,61.63,55.848v0.002h0.003
	c0,0,0.001,0,0.003,0v-0.002c28.743-15.84,48.307-34.645,61.631-55.848c3.41-5.428,6.418-11.012,9.06-16.746
	c-0.003,0.004-0.005,0.008-0.009,0.012C141.457,89.689,141.478,89.662,141.5,89.628z" class="color c1"/>
</svg>