<svg version="1.1" id="图层_1" x="0px" y="0px" width="200px" height="146.885px" viewBox="0 0 200 146.885" enable-background="new 0 0 200 146.885" xml:space="preserve" xmlns="http://www.w3.org/2000/svg" xmlns:xlink="http://www.w3.org/1999/xlink" xmlns:xml="http://www.w3.org/XML/1998/namespace">
  <path fill="#FFFFFF" d="M126.512,69.645c-1.68-11.58-1.707-19.557-0.08-23.713c2.62-6.697,8.963-11.025,16.155-11.025
	c2.168,0,4.295,0.4,6.322,1.195c4.315,1.688,7.716,4.957,9.571,9.205c1.856,4.246,1.947,8.961,0.259,13.277
	c-0.604,1.543-2.447,6.256-16.153,17.353c-1.797,1.455-4.011,2.213-6.249,2.213c-1.22,0-2.446-0.226-3.619-0.685
	C129.395,76.164,127.023,73.178,126.512,69.645z M54.308,75.937c1.798,1.455,4.01,2.213,6.249,2.213c1.22,0,2.446-0.226,3.619-0.685
	c3.324-1.301,5.694-4.287,6.207-7.82c1.679-11.58,1.706-19.557,0.08-23.711c-2.621-6.699-8.963-11.027-16.156-11.027
	c-2.168,0-4.295,0.4-6.321,1.193c-4.317,1.689-7.717,4.959-9.573,9.207c-1.856,4.246-1.947,8.961-0.259,13.271
	C38.759,60.127,40.602,64.84,54.308,75.937z M199.648,56.615c-0.938-4.727-3.664-8.803-7.67-11.479
	c-2.979-1.99-6.441-3.043-10.016-3.043c-6.041,0-11.648,2.998-15.001,8.016c-0.862,1.291-3.299,4.943-4.815,19.297l-30.315,16.01
	l-20.519-39.859c6.416-11.248,9.664-19.508,9.664-24.596C120.977,9.402,111.574,0,100.015,0S79.052,9.402,79.052,20.961
	c0,6.084,4.725,15.99,9.58,24.564l-20.46,39.891l-30.319-16.01C36.335,55.053,33.899,51.4,33.04,50.113
	c-3.354-5.021-8.962-8.02-15.003-8.02c-3.574,0-7.037,1.053-10.015,3.041c-4.007,2.678-6.731,6.754-7.671,11.48
	c-0.938,4.725,0.019,9.533,2.693,13.533c2.238,3.354,7.728,7.395,16.326,12.029l7.685,55.662c0.138,0.998,0.425,1.938,0.826,2.806
	c1.465,3.653,5.034,6.239,9.213,6.239h125.843c4.455,0,8.227-2.936,9.483-6.977c0.24-0.656,0.423-1.347,0.522-2.068l7.685-55.662
	c8.599-4.635,14.088-8.674,16.323-12.023C199.629,66.148,200.587,61.34,199.648,56.615z" class="color c1"/>
</svg>