<svg version="1.1" id="图层_1" x="0px" y="0px" width="208.848px" height="176.125px" viewBox="0 0 208.848 176.125" enable-background="new 0 0 208.848 176.125" xml:space="preserve" xmlns="http://www.w3.org/2000/svg" xmlns:xlink="http://www.w3.org/1999/xlink" xmlns:xml="http://www.w3.org/XML/1998/namespace">
  <path fill="#0F0E0E" d="M51.273,156.805l-19.533,19.32c-44.705-28.242-30.26-65.684-26.58-68.439
	c16.348-2.5,27.512,13.598,27.512,13.598C28.019,124.221,28.253,143.268,51.273,156.805z M168.896,24.638
	c-0.461,0.221-0.658,0.774-0.436,1.238c0.221,0.462,0.775,0.657,1.238,0.436s0.658-0.775,0.438-1.237
	C169.914,24.61,169.359,24.416,168.896,24.638z M208.848,62.166l-38.061,1.39l-21.242,27.312l-27.793-56.912l-14.303,6.872
	l5.646,11.578L74.287,71.329c-5.881,2.868-13.514,10.633-10.059,19.839c0.402,0.592,0.781,1.205,1.1,1.861
	c4.227,8.666-0.738,19.814-11.066,24.852c-5.908,2.879-12.311,3.148-17.498,1.229c-0.309-0.113-0.607-0.25-0.908-0.381l0.004,0.008
	c0,0-0.018-0.012-0.023-0.018c-15.24-17.398-29.371-14.813-29.371-14.813c6.539-2.266,17.186-9.063,9.773-13.475
	c-2.545-0.188-4.965-0.141-5.861,0.295c-1.773,0.867-3.914,0.129-4.779-1.645c-0.863-1.776-0.129-3.916,1.646-4.782
	c2.623-1.28,6.752-1.259,9.967-0.981c1.553-2.011,1.307-5.675,1.307-5.675l75.357-36.748l3.078-8l2.299,4.717l5.355-2.611
	l1.965,4.029l76.053-36.542C182.813,1.086,184,0,185.453,0c1.582,0,2.865,1.283,2.865,2.865c0,1.583-1.283,2.866-2.865,2.866
	c-0.982,0-1.848-0.495-2.363-1.248l-3.813,1.832L208.848,62.166z M27.529,80.742l15.262-7.441c1.164-0.566,1.762-1.739,1.334-2.615
	s-1.719-1.126-2.883-0.558l-15.262,7.44c-1.164,0.567-1.764,1.739-1.336,2.616C25.072,81.061,26.365,81.31,27.529,80.742z
	 M30.156,86.134l15.264-7.443c1.162-0.567,1.762-1.737,1.334-2.613c-0.428-0.878-1.719-1.127-2.883-0.559L28.609,82.96
	c-1.164,0.566-1.764,1.74-1.336,2.616S28.992,86.701,30.156,86.134z M47.998,83.981c1.164-0.567,1.764-1.739,1.334-2.616
	c-0.426-0.876-1.717-1.126-2.881-0.559l-15.262,7.442c-1.164,0.568-1.764,1.739-1.336,2.616s1.721,1.127,2.883,0.557L47.998,83.981z
	 M58.148,96.531c-2.256-4.631-9.453-5.961-15.715-2.906c-1.551,0.756-2.926,1.723-4.08,2.82c3.041,2.576,7.705,5.621,10.457,4.664
	c1.398-0.482,2.926,0.26,3.412,1.658c0.445,1.295-0.154,2.697-1.357,3.285c-0.096,0.047-0.197,0.092-0.303,0.127
	c-5.453,1.887-11.832-2.426-15.344-5.363c-1.049,2.381-1.201,4.873-0.174,6.98c2.258,4.629,9.453,5.957,15.715,2.902
	C57.021,107.646,60.406,101.158,58.148,96.531z M144.111,26.721c0.346,1.735,1.766,3.836,3.598,5.806
	c4.803-0.909,9.738-1.469,14.83-1.95c0.012-0.047,0.018-0.097,0.029-0.143C156.428,27.218,150.566,26.586,144.111,26.721z
	 M174.379,26.646l2.826-2.833l-4.029,0.319c-1.637-1.273-3.27-2.553-6.195-1.151c-3.766,1.802-2.588,5.356-3.678,8.45
	c-9.348,0.873-18.072,1.959-26.42,4.924l0.002,0.001c0.684,0.773,1.438,1.479,2.24,2.128c1.711-0.476,3.975-1.463,5.025-2.035
	l0.881,1.638c-0.912,0.496-2.5,1.212-4.035,1.753c0.559,0.365,1.127,0.716,1.723,1.044c1.715-0.466,4.053-1.5,5.129-2.087
	l0.881,1.638c-0.832,0.453-2.238,1.092-3.65,1.618c0.629,0.285,1.268,0.558,1.92,0.818c1.797-0.437,3.418-1.08,4.547-1.693
	l0.881,1.639c-0.709,0.384-1.605,0.771-2.57,1.115c1.945,0.673,3.953,1.283,5.957,1.896c-1.943,4.532-3.789,15.711-3.605,17.167
	c0.184,1.457,0.785,2.712,2.459,1.912l1.664-0.927c-0.551-1.282-1.121-3.267-1.283-4.597c-0.189-1.535-0.225-2.981-0.068-3.973
	l1.846,0.292c-0.102,0.633-0.104,2.034,0.068,3.44c0.141,1.143,0.67,2.868,1.088,3.919l2.018-1.127
	c-0.758-1.8-1.744-4.812-1.48-6.658l1.832,0.265c-0.137,0.963,0.684,3.791,1.307,5.455l1.58-0.868
	c-0.717-1.524-1.629-3.712-1.387-5.417l1.832,0.265c-0.137,0.955,0.572,2.798,1.205,4.233l2.752-1.542
	c-2.02-3.15-4.18-6.702-2.096-10.835c9.148-1.29,12.664-8.121,10.24-12.108C173.963,31.992,173.291,29.741,174.379,26.646z" class="color c1"/>
</svg>