<svg version="1.1" id="图层_1" x="0px" y="0px" width="119.617px" height="155.492px" viewBox="0 0 119.617 155.492" enable-background="new 0 0 119.617 155.492" xml:space="preserve" xmlns="http://www.w3.org/2000/svg" xmlns:xlink="http://www.w3.org/1999/xlink" xmlns:xml="http://www.w3.org/XML/1998/namespace">
  <path fill="#FFFFFF" d="M117.485,17.846c-0.006-0.064-0.01-0.126-0.021-0.189c-0.187-2.115-0.389-4.228-0.604-6.339
	c1.508-1.153,2.485-2.965,2.485-5.009c0-3.483-2.823-6.307-6.308-6.307c-3.482,0-6.307,2.824-6.307,6.307
	c0,2.756,1.771,5.094,4.236,5.952c0.068,0.673,0.15,1.343,0.216,2.017c-9.229-1.618-31.765-3.092-49.543,16.07
	c-4.867,5.246-6.473,14.188-6.754,25.246c-15.966,5.708-37.856-9.778-38.081-9.941c-0.709-0.509-1.604-0.683-2.451-0.475
	s-1.558,0.775-1.947,1.553C-2.624,76.849,0.155,98.212,0.281,99.107c0.087,0.621,0.37,1.197,0.807,1.648
	c6.665,6.891,15.679,12.002,26.587,15.15c6.058,1.75,12.701,2.893,19.846,3.396c14.921,1.061,26.676-0.973,27.168-1.061
	c0.055-0.008,0.102-0.031,0.154-0.043c0.102-0.023,0.201-0.051,0.301-0.084c0.092-0.033,0.18-0.066,0.266-0.107
	c0.045-0.021,0.096-0.033,0.139-0.057c0.037-0.02,0.064-0.048,0.102-0.068c0.107-0.061,0.207-0.129,0.307-0.203
	c0.063-0.049,0.129-0.098,0.188-0.151c0.092-0.081,0.175-0.17,0.254-0.264c0.054-0.06,0.106-0.115,0.155-0.183
	c0.076-0.104,0.142-0.217,0.205-0.33c0.033-0.062,0.072-0.119,0.102-0.184c0.076-0.164,0.137-0.335,0.18-0.512
	c0.006-0.02,0.017-0.035,0.021-0.053l0.003-0.01c0.001-0.007,0.003-0.014,0.004-0.018l8.209-35.098
	c0.527-0.035,1.057-0.06,1.586-0.063c13.616-0.104,24.445,10.915,26.42,13.057c-1.087,33.637-4.039,57.856-4.091,58.283
	c-0.183,1.465,0.743,2.815,2.125,3.215c0.146,0.043,0.3,0.074,0.459,0.094c1.627,0.207,3.11-0.941,3.312-2.564
	C115.177,152.182,123.382,84.835,117.485,17.846z M6.077,97.373c-0.314-4.102-0.809-21.446,10.196-44.976
	c6.744,4.203,23.768,13.363,38.579,9.412c0.064,5.634,0.351,11.685,0.65,17.987c0.214,4.5,0.435,9.154,0.575,13.763
	c0.006,1.083,0.292,12.135,9.092,19.787C51.122,114.346,22.893,113.949,6.077,97.373z M72.113,111.052
	c-8.335-4.903-9.787-13.543-10.037-16.5c5.332-6.236,10.95-10.373,16.788-12.354L72.113,111.052z M113.498,85.873
	c-5.363-4.608-14.955-11.044-26.646-10.977c-1.505,0.009-2.995,0.136-4.471,0.358c-0.02,0.002-0.039,0.005-0.057,0.01
	c-7.246,1.104-14.134,4.772-20.576,10.965c-0.1-2.257-0.205-4.497-0.31-6.701c-0.937-19.678-1.818-38.265,4.571-45.152
	C83.06,16,105.104,18.979,111.739,20.407C113.646,43.152,113.935,65.866,113.498,85.873z" class="color c1"/>
</svg>