<svg version="1.1" id="图层_1" x="0px" y="0px" width="170px" height="169.998px" viewBox="0 0 170 169.998" enable-background="new 0 0 170 169.998" xml:space="preserve" xmlns="http://www.w3.org/2000/svg" xmlns:xlink="http://www.w3.org/1999/xlink" xmlns:xml="http://www.w3.org/XML/1998/namespace">
  <path fill="#896FAE" d="M54.449,5.644C63.313,2.22,72.885,0.246,82.882,0l-9.096,52.324L54.449,5.644z M119.507,7.289
	l-19.332,46.674l43.4-30.543C136.575,16.758,128.449,11.277,119.507,7.289z M23.421,26.425c-6.699,7.04-12.207,15.216-16.198,24.217
	l46.918,19.436L23.421,26.425z M146.578,143.575c6.754-7.096,12.297-15.347,16.295-24.43l-47.266-19.578L146.578,143.575z M0,87.116
	c0.25,10.138,2.278,19.836,5.789,28.802l47.268-19.577L0,87.116z M169.998,82.882c-0.247-10.057-2.243-19.68-5.704-28.585
	l-46.921,19.435L169.998,82.882z M87.117,169.998c10.195-0.251,19.945-2.301,28.954-5.85l-19.677-47.506L87.117,169.998z
	 M51.004,162.939l19.679-47.512l-44.258,31.149C33.561,153.368,41.861,158.936,51.004,162.939z" class="color c1"/>
  <path fill="#B4A3CD" d="M53.055,73.657L0,82.882C0.25,72.744,2.278,63.046,5.79,54.08L53.055,73.657z M51.004,7.059
	c-9.143,4.004-17.443,9.571-24.579,16.361l44.258,31.146L51.004,7.059z M87.117,0l9.277,53.355L116.071,5.85
	C107.063,2.3,97.313,0.251,87.117,0z M117.373,96.267l46.923,19.435c3.461-8.905,5.457-18.529,5.704-28.585L117.373,96.267z
	 M162.875,50.853c-3.999-9.083-9.541-17.334-16.295-24.431l-30.973,44.009L162.875,50.853z M119.507,162.709
	c8.942-3.986,17.068-9.469,24.068-16.132l-43.402-30.544L119.507,162.709z M23.421,143.575l30.72-43.652L7.223,119.357
	C11.214,128.357,16.722,136.535,23.421,143.575z M54.449,164.354c8.864,3.424,18.436,5.397,28.433,5.644l-9.096-52.324
	L54.449,164.354z" class="color c2"/>
</svg>