<svg version="1.1" id="图层_1" x="0px" y="0px" width="150.155px" height="150.155px" viewBox="0 0 150.155 150.155" enable-background="new 0 0 150.155 150.155" xml:space="preserve" xmlns="http://www.w3.org/2000/svg" xmlns:xlink="http://www.w3.org/1999/xlink" xmlns:xml="http://www.w3.org/XML/1998/namespace">
  <g>
    <path opacity="0.85" fill="#269DD8" d="M49.481,19.981C65.112,6.244,67.244-4.518,74.316,1.907
		c42.458,38.568,56.541,11.373,59.88,33.979c0.982,6.644,5.094,17.729-0.061,23.502c-3.928,4.401-10.633,2.979-15.771,2.563
		C90.47,59.683,75.169,50.627,52.607,36.577C41.685,29.775,42.806,25.851,49.481,19.981z" class="color c1"/>
    <path opacity="0.85" fill="#F6921E" d="M130.174,49.48c13.74,15.633,24.497,17.768,18.075,24.836
		c-38.568,42.458-11.372,56.542-33.979,59.885c-6.644,0.977-17.73,5.092-23.504-0.063c-4.397-3.93-2.977-10.635-2.561-15.773
		c2.271-27.895,11.326-43.196,25.377-65.756C120.384,41.684,124.304,42.802,130.174,49.48z" class="color c2"/>
    <path opacity="0.85" fill="#4BB649" d="M100.676,130.174c-15.633,13.738-17.768,24.498-24.834,18.074
		c-42.458-38.566-56.543-11.369-59.882-33.977c-0.984-6.645-5.094-17.73,0.06-23.504c3.928-4.402,10.634-2.979,15.773-2.561
		c27.893,2.268,43.193,11.322,65.754,25.373C108.474,120.383,107.351,124.305,100.676,130.174z" class="color c3"/>
    <path opacity="0.85" fill="#D91C5C" d="M19.981,100.674C6.242,85.041-4.517,82.91,1.907,75.839
		c38.568-42.455,11.373-56.541,33.98-59.881c6.643-0.983,17.727-5.095,23.504,0.06c4.398,3.927,2.977,10.632,2.559,15.772
		c-2.27,27.893-11.323,43.191-25.375,65.756C29.773,108.471,25.853,107.354,19.981,100.674z" class="color c4"/>
  </g>
</svg>