<svg version="1.1" id="图层_1" x="0px" y="0px" width="180px" height="180px" viewBox="0 0 180 180" enable-background="new 0 0 180 180" xml:space="preserve" xmlns="http://www.w3.org/2000/svg" xmlns:xlink="http://www.w3.org/1999/xlink" xmlns:xml="http://www.w3.org/XML/1998/namespace">
  <polygon fill="#2C3E50" points="73.752,54.987 91.111,17.235 130.09,2.812 140.285,30.368 " class="color c1"/>
  <polygon fill="#2C3E50" points="167.725,83.393 180,56.698 142.615,39.507 103.645,53.927 " class="color c1"/>
  <polygon fill="#2C3E50" points="125.014,73.752 149.632,140.287 177.188,130.091 162.764,91.112 " class="color c1"/>
  <polygon fill="#2C3E50" points="96.607,167.726 123.302,180 140.493,142.615 126.073,103.644 " class="color c1"/>
  <polygon fill="#2C3E50" points="39.713,149.632 49.909,177.188 88.888,162.764 106.247,125.013 " class="color c1"/>
  <polygon fill="#2C3E50" points="12.275,96.607 0,123.302 37.387,140.494 76.356,126.074 " class="color c1"/>
  <polygon fill="#2C3E50" points="54.988,106.248 30.367,39.712 2.812,49.908 17.236,88.887 " class="color c1"/>
  <polygon fill="#2C3E50" points="83.393,12.275 56.698,0 39.507,37.387 53.927,76.357 " class="color c1"/>
</svg>