<svg version="1.1" id="图层_1" x="0px" y="0px" width="159.667px" height="159.651px" viewBox="0 0 159.667 159.651" enable-background="new 0 0 159.667 159.651" xml:space="preserve" xmlns="http://www.w3.org/2000/svg" xmlns:xlink="http://www.w3.org/1999/xlink" xmlns:xml="http://www.w3.org/XML/1998/namespace">
  <path fill="#36D7B6" d="M87.062,0.335c-19.487-1.781-39.665,3.517-56.29,16.461C12.313,31.166,1.891,52.092,0.232,73.765
	c-0.023,0.294-0.026,0.593-0.047,0.891c-0.064,0.978-0.126,1.953-0.153,2.938c-0.154,5.363,0.243,10.753,1.173,16.081
	c0.374,2.671,0.851,5.036,1.427,6.575c2.662,10.115,7.362,19.863,14.181,28.625c27.055,34.752,77.332,41.016,112.081,13.963
	c18.458-14.375,28.881-35.301,30.539-56.969c1.465-19.123-3.897-38.826-16.583-55.116c-4.314-5.543-9.221-10.352-14.563-14.426
	c-3.953-3.552-11.023-8.417-22.504-12c-1.802-0.613-3.617-1.173-5.454-1.656C96.821,1.653,87.062,0.335,87.062,0.335z
	 M130.854,60.381c0.05-0.08,0.118-0.119,0.181-0.158c0.037-0.021,0.083-0.027,0.126-0.036c0.05-0.007,0.102-0.005,0.153,0.005
	c0.051,0.007,0.099,0.024,0.156,0.045c0.059,0.027,0.12,0.059,0.185,0.1c0.055,0.034,0.115,0.074,0.176,0.124
	c0.072,0.051,0.142,0.109,0.214,0.181c0.065,0.06,0.129,0.12,0.194,0.188c0.077,0.08,0.156,0.166,0.237,0.258
	c0.067,0.076,0.136,0.16,0.208,0.243c0.082,0.103,0.168,0.214,0.253,0.325c0.07,0.098,0.138,0.188,0.212,0.289
	c0.085,0.124,0.173,0.252,0.264,0.384c0.072,0.106,0.144,0.209,0.215,0.323c0.09,0.14,0.175,0.277,0.262,0.425
	c0.073,0.117,0.149,0.233,0.218,0.359c0.089,0.146,0.176,0.298,0.263,0.453c0.069,0.124,0.137,0.246,0.208,0.37
	c0.083,0.16,0.172,0.321,0.254,0.482c0.068,0.126,0.133,0.25,0.197,0.377c0.084,0.168,0.163,0.332,0.241,0.502
	c0.06,0.123,0.123,0.248,0.178,0.367c0.078,0.173,0.151,0.34,0.225,0.508c0.052,0.117,0.109,0.236,0.157,0.357
	c0.067,0.17,0.132,0.326,0.194,0.49c0.047,0.117,0.094,0.232,0.139,0.35c0.057,0.162,0.105,0.316,0.158,0.471
	c0.035,0.104,0.075,0.215,0.105,0.32c0.052,0.163,0.088,0.318,0.126,0.473c0.024,0.082,0.048,0.169,0.066,0.247
	c0.048,0.225,0.085,0.437,0.104,0.634c0.041,0.367,0.031,0.754-0.012,1.139c-0.001,0.015-0.002,0.031-0.005,0.05
	c-0.045,0.374-0.127,0.741-0.235,1.087c-0.012,0.029-0.016,0.059-0.024,0.086c-0.114,0.336-0.254,0.645-0.42,0.925
	c-0.016,0.031-0.032,0.063-0.052,0.089c-0.165,0.266-0.352,0.483-0.56,0.651c-0.031,0.03-0.063,0.061-0.095,0.083
	c-0.066,0.055-0.138,0.088-0.205,0.123c-0.063,0.033-0.12,0.069-0.184,0.09c-0.073,0.025-0.151,0.034-0.226,0.049
	c-0.066,0.008-0.125,0.021-0.194,0.021c-0.08-0.001-0.161-0.022-0.242-0.041c-0.067-0.014-0.14-0.02-0.206-0.047
	c-0.084-0.031-0.169-0.09-0.257-0.139c-0.071-0.043-0.141-0.072-0.215-0.124c-0.087-0.068-0.179-0.167-0.271-0.255
	c-0.071-0.07-0.142-0.128-0.214-0.211c-0.095-0.111-0.195-0.26-0.291-0.397c-0.072-0.095-0.134-0.177-0.203-0.289
	c-0.111-0.177-0.224-0.393-0.333-0.604c-0.054-0.107-0.114-0.195-0.172-0.314c-0.163-0.348-0.331-0.74-0.498-1.176
	C129.006,63.731,130.106,61.603,130.854,60.381z M21.407,45.727c-0.036,0.066-0.073,0.137-0.115,0.206
	c-0.119,0.232-0.264,0.479-0.437,0.736c-0.027,0.044-0.047,0.082-0.075,0.122c-0.19,0.287-0.424,0.586-0.686,0.885
	c-0.066,0.074-0.138,0.152-0.207,0.225c-0.238,0.252-0.499,0.499-0.79,0.738c-0.074,0.061-0.135,0.123-0.213,0.181
	c-0.193,0.145-0.41,0.281-0.626,0.417c-0.116,0.07-0.217,0.146-0.342,0.218c-0.348,0.189-0.729,0.364-1.139,0.519
	c-3.152,1.131,0.958-1.77,0.903-4.026c-0.057-2.252-3.973,1.994-5.424-0.146c-0.075-0.108-0.071-0.204-0.118-0.309
	c0.293-0.576,0.594-1.146,0.901-1.717c0.245-0.139,0.458-0.286,0.771-0.419c0.016-0.005,0.039-0.015,0.052-0.02
	c0.455-0.19,0.988-0.378,1.558-0.557c0.205-0.065,0.419-0.136,0.633-0.198c0.491-0.151,0.994-0.303,1.524-0.459
	c0.751-0.218,1.531-0.446,2.32-0.699c4.598-1.455,2.835,1.439,1.806,3.691C21.63,45.279,21.524,45.5,21.407,45.727z M56.67,29.078
	c-0.084,0.213-0.162,0.408-0.236,0.59c-0.036,0.084-0.067,0.154-0.101,0.229c-0.056,0.132-0.115,0.25-0.17,0.357
	c-0.034,0.063-0.071,0.12-0.104,0.177c-0.058,0.093-0.12,0.162-0.183,0.225c-0.038,0.037-0.079,0.088-0.124,0.116
	c-0.034,0.019-0.069,0.032-0.105,0.044c-0.058,0.021-0.123,0.033-0.191,0.027c-0.037,0-0.079,0-0.124-0.015
	c-0.049-0.011-0.101-0.046-0.152-0.074c-0.204-0.428-0.47-0.836-0.862-1.196c-0.497-0.455-1.149-0.814-1.867-1.012
	c-1.059-0.789-1.905-1.584-1.46-2.833c0.028-0.085,0.067-0.14,0.113-0.179c0.004-0.001,0.012,0.002,0.016-0.004
	c0.075-0.055,0.166-0.053,0.274-0.018c0.014,0.006,0.023,0.003,0.035,0.012c0.109,0.039,0.235,0.122,0.37,0.23
	c0.022,0.018,0.043,0.032,0.067,0.047c0.129,0.114,0.272,0.243,0.42,0.392c0.028,0.028,0.063,0.062,0.089,0.092
	c0.147,0.152,0.299,0.306,0.452,0.466c0.332,0.354,0.663,0.702,0.954,0.951c0.018,0.018,0.038,0.034,0.061,0.051
	c0.127,0.107,0.245,0.182,0.351,0.232c0.02,0.006,0.042,0.018,0.06,0.024c0.098,0.034,0.189,0.033,0.258-0.013
	c0.005-0.002,0.012,0.004,0.02-0.002c0.026-0.02,0.051-0.051,0.07-0.092c0.078-0.129,0.196-0.255,0.334-0.367
	c0.099-0.076,0.213-0.151,0.333-0.217c0.02-0.016,0.035-0.027,0.057-0.037c0.145-0.076,0.3-0.135,0.456-0.184
	c0.048-0.014,0.093-0.02,0.141-0.03c0.108-0.027,0.222-0.051,0.326-0.054c0.058-0.008,0.104-0.004,0.156-0.002
	c0.093,0,0.179,0.012,0.258,0.029c0.049,0.009,0.095,0.027,0.14,0.047c0.065,0.027,0.128,0.072,0.177,0.119
	c0.03,0.03,0.061,0.061,0.082,0.098c0.041,0.068,0.06,0.153,0.068,0.248c0.006,0.05,0.023,0.085,0.017,0.137
	c-0.011,0.157-0.049,0.34-0.147,0.569C56.876,28.541,56.77,28.817,56.67,29.078z M36.935,28.098
	c-0.149,0.398-0.29,0.801-0.421,1.191c-0.056,0.17-0.114,0.342-0.167,0.509c-0.147,0.459-0.279,0.913-0.406,1.358
	c-0.023,0.078-0.048,0.156-0.066,0.234c-0.146,0.525-0.273,1.041-0.391,1.541c-0.038,0.151-0.069,0.299-0.106,0.445
	c-0.079,0.364-0.165,0.722-0.234,1.072c-0.033,0.156-0.066,0.307-0.1,0.459c-0.072,0.369-0.146,0.719-0.215,1.064
	c-0.1,0.515-0.196,1.01-0.285,1.475c-0.018,0.069-0.029,0.137-0.042,0.207c-0.062,0.323-0.127,0.627-0.19,0.923
	c-0.022,0.119-0.048,0.233-0.075,0.349c-0.06,0.26-0.121,0.502-0.178,0.738c-0.024,0.088-0.044,0.181-0.071,0.266
	c-0.085,0.305-0.171,0.588-0.265,0.839c-0.017,0.038-0.033,0.068-0.049,0.103c-0.083,0.208-0.168,0.398-0.263,0.564
	c-0.038,0.066-0.074,0.121-0.114,0.181c-0.084,0.128-0.176,0.249-0.271,0.347c-0.041,0.045-0.08,0.088-0.121,0.133
	c-0.093,0.072-0.196,0.123-0.293,0.178c-0.073,0.039-0.143,0.087-0.224,0.109c-0.113,0.038-0.238,0.045-0.364,0.047
	c-0.085,0.011-0.162,0.03-0.251,0.021c-0.15-0.012-0.322-0.063-0.494-0.107c-0.086-0.026-0.159-0.031-0.248-0.067
	c-0.274-0.097-0.567-0.233-0.891-0.419c-5.355-3.058-10.685-4.548-7.983-7.074c1.689-1.584,2.541-2.742,3.216-3.717
	c0.398-0.582,0.737-1.096,1.146-1.597c0.348-0.424,0.744-0.861,1.158-1.302c0.033-0.037,0.065-0.072,0.1-0.111
	c0.419-0.438,0.854-0.881,1.315-1.318c0.005-0.003,0.006-0.012,0.011-0.014c0.463-0.438,0.942-0.875,1.429-1.297
	c0.041-0.035,0.079-0.063,0.117-0.099c0.483-0.415,0.966-0.815,1.453-1.196c0.014-0.01,0.024-0.016,0.037-0.029
	c0.254-0.191,0.506-0.385,0.755-0.568c0.073-0.054,0.14-0.104,0.21-0.152c0.191-0.134,0.377-0.271,0.566-0.396
	c0.071-0.053,0.138-0.098,0.208-0.141c0.241-0.166,0.479-0.322,0.714-0.465c0.035-0.02,0.068-0.037,0.103-0.059
	c0.2-0.123,0.396-0.236,0.591-0.345c0.068-0.038,0.133-0.073,0.2-0.11c0.175-0.091,0.344-0.174,0.509-0.253
	c0.048-0.021,0.099-0.046,0.147-0.068c0.204-0.093,0.399-0.17,0.587-0.235c0.042-0.019,0.093-0.03,0.135-0.045
	c0.142-0.047,0.279-0.086,0.411-0.115c0.053-0.014,0.101-0.023,0.152-0.033c0.146-0.027,0.286-0.04,0.416-0.049
	c0.013,0.004,0.028-0.002,0.044-0.002c0.141,0.004,0.262,0.027,0.376,0.064c0.033,0.009,0.063,0.023,0.095,0.035
	c0.08,0.035,0.156,0.082,0.218,0.138c0.024,0.018,0.052,0.04,0.073,0.062c0.072,0.086,0.14,0.182,0.188,0.305
	c0.005,0.025,0.01,0.05,0.018,0.072c0.034,0.109,0.055,0.233,0.068,0.368c0.004,0.052,0.004,0.101,0.003,0.156
	c0.002,0.144-0.008,0.304-0.032,0.479c-0.006,0.043-0.007,0.082-0.013,0.122c-0.034,0.221-0.095,0.467-0.166,0.733
	c-0.021,0.071-0.048,0.144-0.068,0.215c-0.066,0.222-0.144,0.452-0.239,0.704c-0.033,0.094-0.066,0.179-0.105,0.275
	c-0.134,0.337-0.275,0.688-0.457,1.076c-0.259,0.579-0.494,1.143-0.716,1.705C37.065,27.753,37.002,27.923,36.935,28.098z
	 M42.651,25.25c0.044-0.018,0.086-0.032,0.125-0.042c0.068-0.013,0.132-0.005,0.189,0.013c0.037,0.007,0.075,0.012,0.111,0.033
	c0.062,0.035,0.131,0.104,0.188,0.178c0.03,0.037,0.061,0.063,0.092,0.106c0.09,0.144,0.189,0.321,0.286,0.563
	c0.085,0.2,0.126,0.42,0.147,0.641c0.007,0.063,0.008,0.127,0.01,0.188c0.002,0.184-0.01,0.358-0.037,0.545
	c-0.01,0.054-0.009,0.107-0.022,0.163c-0.045,0.232-0.111,0.462-0.194,0.684c-0.016,0.047-0.041,0.09-0.056,0.134
	c-0.076,0.179-0.16,0.356-0.253,0.519c-0.033,0.064-0.068,0.122-0.105,0.178c-0.105,0.17-0.219,0.33-0.339,0.471
	c-0.018,0.023-0.036,0.052-0.053,0.07c-0.137,0.151-0.279,0.273-0.419,0.378c-0.12,0.085-0.237,0.137-0.358,0.185
	c-0.06,0.022-0.115,0.064-0.176,0.077c-0.177,0.039-0.346,0.032-0.503-0.038c-1.188-0.564-2.289-1.906-0.466-3.461
	c0.341-0.288,0.622-0.559,0.873-0.801c0.238-0.231,0.437-0.417,0.618-0.563c0.043-0.038,0.088-0.065,0.129-0.096
	C42.511,25.322,42.583,25.279,42.651,25.25z M49.708,32.498c-0.027-0.049-0.047-0.096-0.063-0.141
	c-0.051-0.11-0.093-0.219-0.112-0.32c-0.008-0.039-0.021-0.078-0.024-0.118c-0.014-0.129-0.014-0.253,0.009-0.364l0.002-0.004
	c0.029-0.114,0.07-0.221,0.127-0.313c0.013-0.031,0.033-0.055,0.05-0.078c0.042-0.068,0.086-0.127,0.136-0.181
	c0.018-0.021,0.036-0.045,0.055-0.065c0.066-0.066,0.128-0.121,0.188-0.166c0.001-0.002,0.003-0.002,0.004-0.006
	c0.134-0.104,0.238-0.154,0.238-0.154c0.807-0.466,1.75-0.283,2.413,0.167c0.169,0.112,0.321,0.242,0.449,0.38
	c0.128,0.144,0.231,0.291,0.306,0.448c0.078,0.152,0.121,0.317,0.129,0.473c0.008,0.157-0.016,0.317-0.085,0.468
	c0,0.002-0.003,0.004-0.003,0.004c-0.071,0.162-0.167,0.312-0.273,0.453c-0.033,0.045-0.077,0.082-0.118,0.127
	c-0.076,0.088-0.159,0.178-0.251,0.252c-0.042,0.036-0.086,0.066-0.132,0.1c-0.134,0.092-0.274,0.17-0.423,0.227
	c-0.049,0.017-0.097,0.038-0.143,0.052c-0.191,0.058-0.394,0.087-0.608,0.068c-0.033,0.001-0.079-0.015-0.117-0.021
	c-0.176-0.027-0.357-0.083-0.538-0.168c-0.062-0.027-0.125-0.058-0.183-0.092c-0.222-0.131-0.445-0.295-0.666-0.535
	C49.911,32.818,49.799,32.654,49.708,32.498z M27.417,92.6c0.03-0.016,0.061-0.037,0.09-0.054c0.213-0.12,0.44-0.249,0.686-0.37
	c0.027-0.017,0.059-0.032,0.084-0.043c0.252-0.129,0.514-0.255,0.778-0.373c0.016-0.01,0.033-0.02,0.05-0.022
	c0.273-0.122,0.549-0.241,0.801-0.341c0,0,1.256-0.715,2.296-0.782l-0.015,0.169c-0.055,0.718,0.245,1.34,0.782,2.009
	c-0.102,0.026-0.182,0.052-0.31,0.073c-0.013,0.004-0.024,0-0.034,0.007c-0.22,0.034-0.485,0.073-0.797,0.114
	c-0.324,0.047-0.701,0.098-1.138,0.163c-0.08,0.012-0.162,0.024-0.245,0.04c-0.454,0.065-0.939,0.135-1.506,0.234
	c-0.318,0.053-0.595,0.094-0.844,0.123c-0.073,0.013-0.128,0.014-0.202,0.021c-0.155,0.02-0.31,0.037-0.435,0.047
	c-0.076,0-0.133-0.004-0.198,0c-0.097,0.002-0.191,0.008-0.27,0.001c-0.059-0.001-0.095-0.009-0.138-0.02
	c-0.058-0.006-0.12-0.014-0.164-0.024c-0.033-0.013-0.053-0.025-0.078-0.038c-0.031-0.019-0.058-0.031-0.074-0.049
	c-0.012-0.016-0.016-0.036-0.021-0.054c-0.003-0.026-0.009-0.049-0.003-0.078c0.006-0.019,0.019-0.043,0.034-0.068
	c0.018-0.027,0.035-0.059,0.061-0.086c0.023-0.029,0.052-0.055,0.08-0.086c0.036-0.029,0.071-0.066,0.113-0.103
	c0.032-0.023,0.059-0.046,0.09-0.073C27.042,92.835,27.218,92.718,27.417,92.6z M36.099,92.416
	c-0.447,0.098-0.855,0.029-1.146-0.273c-0.222-0.236-0.374-0.416-0.497-0.574c-0.02-0.025-0.05-0.057-0.066-0.084
	c-0.102-0.132-0.176-0.244-0.216-0.328c-0.008-0.022-0.017-0.033-0.022-0.048c-0.071-0.155-0.048-0.221-0.021-0.241
	c0.002-0.001,0.004-0.007,0.009-0.004c0.005-0.006,0.014-0.01,0.014-0.01c0.319-0.418,0.697-0.781,1.09-1.098
	c0.07-0.057,0.132-0.117,0.205-0.168c0.074-0.059,0.143-0.104,0.216-0.152c0.161-0.111,0.318-0.211,0.477-0.302
	c0.076-0.041,0.15-0.08,0.226-0.118c0.178-0.087,0.351-0.16,0.519-0.225c0.048-0.018,0.098-0.038,0.147-0.056
	c0.214-0.069,0.419-0.113,0.606-0.137c0.05-0.005,0.092-0.001,0.134-0.003c0.141-0.005,0.272,0,0.393,0.023
	c0.052,0.008,0.1,0.022,0.147,0.039c0.106,0.037,0.191,0.085,0.271,0.146c0.035,0.027,0.073,0.051,0.103,0.082
	c0.095,0.104,0.17,0.231,0.205,0.402c0.146,0.731-0.553,1.754-1.427,2.434C37.027,92.064,36.543,92.321,36.099,92.416z
	 M133.242,26.123c0.018,0.057,0.032,0.109,0.05,0.16c0.085,0.283,0.147,0.55,0.173,0.788c0,0.013-0.001,0.024,0,0.035
	c0.022,0.232,0.001,0.433-0.04,0.612c-0.01,0.035-0.013,0.07-0.023,0.1c-0.057,0.174-0.149,0.313-0.277,0.428
	c-0.032,0.025-0.07,0.047-0.103,0.072c-0.087,0.057-0.188,0.1-0.303,0.129c-0.048,0.018-0.093,0.035-0.144,0.042
	c-0.178,0.031-0.374,0.048-0.611,0.022c-0.399-0.031-0.924-0.199-1.545-0.469c-1.247-0.53-2.883-1.459-4.669-2.498
	c-0.896-0.518-1.824-1.068-2.767-1.612c-1.88-1.086-3.792-2.142-5.5-2.897c-1.71-0.754-3.213-1.203-4.273-1.068
	c-0.532,0.068-1.005,0.159-1.422,0.265c-0.84,0.212-1.499,0.486-2.095,0.798c-0.89,0.466-1.64,1-2.684,1.49
	c-0.689,0.33-1.511,0.633-2.59,0.89c-0.289,0.069-0.542,0.137-0.775,0.198c-0.076,0.02-0.137,0.041-0.207,0.063
	c-0.142,0.043-0.285,0.084-0.401,0.123c-0.069,0.023-0.127,0.047-0.187,0.068c-0.096,0.036-0.188,0.077-0.268,0.111
	c-0.052,0.023-0.095,0.045-0.139,0.064c-0.066,0.035-0.12,0.069-0.169,0.105c-0.018,0.008-0.046,0.022-0.06,0.031
	c-0.01,0.008-0.01,0.017-0.018,0.021c-0.075,0.064-0.127,0.128-0.145,0.187l-0.004,0.001c-0.021,0.068,0,0.127,0.036,0.19
	c0.007,0.011,0.02,0.027,0.035,0.042c0.039,0.048,0.094,0.101,0.169,0.145c0.014,0.012,0.023,0.021,0.038,0.031
	c0.092,0.054,0.207,0.112,0.337,0.166c0.029,0.018,0.067,0.028,0.098,0.043c0.112,0.049,0.235,0.093,0.363,0.143
	c0.041,0.012,0.077,0.027,0.117,0.043c0.166,0.056,0.343,0.109,0.531,0.17c0.044,0.016,0.09,0.025,0.128,0.043
	c0.167,0.05,0.34,0.101,0.517,0.148c0.25,0.078,0.511,0.154,0.775,0.233c2.766,0.821,5.587-2.647,7.805-0.345
	c0.136,0.142,0.248,0.318,0.343,0.521c0.032,0.072,0.046,0.155,0.075,0.232c0.053,0.146,0.109,0.294,0.146,0.47
	c0.024,0.103,0.035,0.222,0.054,0.338c0.021,0.167,0.05,0.332,0.063,0.519c0.008,0.127,0.01,0.27,0.016,0.405
	c0.002,0.187,0.006,0.376,0.002,0.577c-0.003,0.146-0.013,0.302-0.023,0.459c-0.016,0.201-0.029,0.405-0.045,0.615
	c-0.019,0.164-0.04,0.334-0.058,0.5c-0.028,0.214-0.059,0.432-0.094,0.645c-0.03,0.174-0.058,0.353-0.091,0.533
	c-0.041,0.217-0.083,0.436-0.131,0.656c-0.039,0.18-0.082,0.36-0.122,0.54c-0.055,0.224-0.108,0.446-0.164,0.664
	c-0.05,0.18-0.093,0.36-0.145,0.539c-0.063,0.221-0.129,0.442-0.197,0.657c-0.053,0.174-0.104,0.348-0.158,0.521
	c-0.075,0.219-0.148,0.431-0.229,0.644c-0.058,0.158-0.108,0.32-0.17,0.479c-0.083,0.213-0.171,0.419-0.255,0.624
	c-0.059,0.14-0.118,0.283-0.174,0.419c-0.1,0.223-0.204,0.431-0.305,0.636c-0.048,0.099-0.095,0.206-0.146,0.298
	c-0.152,0.287-0.307,0.559-0.462,0.799c-0.027,0.037-0.05,0.063-0.076,0.1c-0.131,0.198-0.264,0.381-0.398,0.53
	c-0.056,0.064-0.104,0.104-0.159,0.164c-0.101,0.101-0.2,0.204-0.298,0.273c-0.171,0.129-0.342,0.226-0.51,0.253
	c-2.422,0.432-15.965-9.057-17.652-7.948c-0.013,0.005-0.018,0.008-0.028,0.015c-0.046,0.036-0.024,0.092-0.042,0.136
	c-0.009,0.049-0.047,0.085-0.035,0.141c0.018,0.062,0.085,0.14,0.138,0.207c0.047,0.069,0.068,0.129,0.142,0.204
	c0.08,0.082,0.202,0.18,0.31,0.268c0.097,0.084,0.177,0.164,0.301,0.257c0.129,0.094,0.295,0.206,0.447,0.31
	c0.149,0.104,0.279,0.199,0.447,0.306c0.17,0.11,0.37,0.227,0.558,0.341c0.19,0.117,0.365,0.227,0.574,0.352
	c0.196,0.117,0.423,0.235,0.631,0.357c0.23,0.129,0.457,0.258,0.708,0.397c0.192,0.108,0.407,0.217,0.607,0.325
	c0.287,0.157,0.573,0.309,0.875,0.471c0.218,0.111,0.448,0.229,0.677,0.346c0.298,0.152,0.589,0.309,0.897,0.464
	c0.24,0.121,0.486,0.245,0.733,0.365c0.308,0.153,0.616,0.308,0.925,0.46c0.172,0.084,0.348,0.166,0.52,0.251
	c0.379,0.187,0.761,0.378,1.14,0.556c0.237,0.117,0.472,0.228,0.708,0.338c0.303,0.149,0.612,0.296,0.911,0.438
	c0.414,0.195,0.804,0.383,1.198,0.566c0.12,0.058,0.245,0.111,0.355,0.168c0.353,0.162,0.683,0.318,1.015,0.47
	c0.145,0.067,0.304,0.142,0.441,0.2c1.363,0.635,2.487,1.145,3.161,1.451c0.035,0.016,0.062,0.021,0.094,0.037
	c0.187,0.078,0.369,0.148,0.53,0.184c0.072,0.021,0.132,0.02,0.199,0.029c0.111,0.017,0.222,0.039,0.32,0.039
	c0.063,0.002,0.121-0.021,0.18-0.029c0.085-0.01,0.174-0.018,0.248-0.044c0.058-0.019,0.106-0.058,0.155-0.083
	c0.069-0.037,0.139-0.065,0.197-0.108c0.001-0.001,0.01-0.003,0.01-0.003c0.02-0.016,0.034-0.042,0.053-0.059
	c0.089-0.078,0.173-0.162,0.25-0.266c0.036-0.041,0.065-0.095,0.098-0.145c0.055-0.086,0.115-0.174,0.163-0.271
	c0.031-0.058,0.064-0.12,0.093-0.183c0.043-0.102,0.089-0.201,0.134-0.307c0.029-0.071,0.058-0.139,0.083-0.211
	c0.054-0.133,0.107-0.273,0.161-0.417c0.047-0.128,0.099-0.253,0.147-0.38c0.025-0.064,0.051-0.132,0.08-0.198
	c0.071-0.169,0.146-0.333,0.23-0.489c0.018-0.037,0.039-0.062,0.053-0.094c0.069-0.121,0.144-0.239,0.223-0.349
	c0.034-0.044,0.074-0.085,0.111-0.13c0.07-0.083,0.145-0.161,0.228-0.232c0.042-0.035,0.092-0.066,0.138-0.101
	c0.108-0.072,0.217-0.13,0.339-0.179c0.053-0.021,0.105-0.044,0.16-0.059c0.182-0.051,0.382-0.082,0.609-0.071
	c0.386,0.019,0.712,0.228,0.987,0.586c0.689,0.9,1.064,2.736,1.304,4.907c0.094,0.865,0.171,1.781,0.233,2.715
	c0.225,3.256,0.318,6.676,0.761,8.559c1.016,4.305,10.703,9.931,9.106,14.152c-1.603,4.218,2.812,10.977,4.018,16.618
	c0.088,0.411,0.147,0.813,0.192,1.211c0.013,0.124,0.021,0.245,0.028,0.368c0.023,0.275,0.039,0.551,0.039,0.824
	c0,0.129,0.002,0.258-0.005,0.389c-0.007,0.276-0.029,0.547-0.055,0.81c-0.01,0.101-0.017,0.205-0.034,0.3
	c-0.044,0.356-0.113,0.704-0.202,1.037c-0.018,0.064-0.039,0.123-0.057,0.18c-0.077,0.268-0.165,0.531-0.266,0.783
	c-0.042,0.096-0.087,0.195-0.131,0.29c-0.086,0.21-0.188,0.407-0.298,0.598c-0.052,0.092-0.104,0.183-0.159,0.271
	c-0.133,0.207-0.279,0.396-0.431,0.583c-0.041,0.049-0.075,0.104-0.12,0.153c-0.195,0.223-0.413,0.426-0.639,0.606
	c-0.049,0.036-0.101,0.066-0.153,0.103c-0.218,0.167-0.456,0.307-0.701,0.427c-0.072,0.038-0.145,0.074-0.225,0.109
	c-0.297,0.126-0.61,0.228-0.939,0.297c-0.039,0.005-0.079,0.008-0.117,0.014c-0.299,0.054-0.613,0.069-0.936,0.056
	c-0.092,0.002-0.191-0.003-0.283-0.01c-0.369-0.029-0.748-0.082-1.141-0.188c-4.852-1.322-15.806-12.12-16.795-16.662
	c-0.307-1.42-1.173-2.275-2.316-2.947c-2.05-1.213-4.982-1.814-7.125-3.986c-0.472-0.482-0.908-1.042-1.287-1.703
	c-0.255-0.453-0.511-0.84-0.76-1.201c-0.062-0.083-0.121-0.169-0.182-0.248c-0.245-0.336-0.489-0.637-0.732-0.889
	c-0.026-0.024-0.048-0.04-0.076-0.068c-0.223-0.222-0.445-0.4-0.667-0.547c-0.058-0.043-0.116-0.081-0.172-0.117
	c-0.245-0.144-0.48-0.252-0.729-0.323c-0.039-0.011-0.081-0.017-0.123-0.024c-0.218-0.045-0.44-0.064-0.662-0.061
	c-0.056,0.004-0.111,0.004-0.168,0.006c-0.251,0.026-0.514,0.086-0.779,0.176c-0.053,0.018-0.11,0.045-0.168,0.064
	c-0.235,0.094-0.479,0.211-0.726,0.355c-0.056,0.029-0.109,0.059-0.162,0.092c-0.285,0.174-0.584,0.381-0.886,0.615
	c-0.025,0.021-0.048,0.032-0.072,0.052c-0.037,0.027-0.079,0.069-0.116,0.099c-0.374,0.298-0.766,0.633-1.176,1.011
	c-0.048,0.042-0.093,0.087-0.137,0.129c-0.439,0.407-0.889,0.85-1.374,1.339c-0.256,0.26-0.531,0.489-0.813,0.703
	c-0.132,0.1-0.272,0.182-0.412,0.271c-0.178,0.113-0.354,0.232-0.536,0.33c-0.151,0.078-0.306,0.142-0.457,0.212
	c-0.187,0.084-0.374,0.167-0.565,0.233c-0.159,0.056-0.326,0.098-0.489,0.147c-0.198,0.05-0.396,0.104-0.598,0.148
	c-0.174,0.029-0.348,0.055-0.525,0.075c-0.204,0.027-0.411,0.055-0.621,0.063c-0.181,0.014-0.365,0.019-0.545,0.02
	c-0.212-0.002-0.429-0.001-0.646-0.016c-0.19-0.008-0.378-0.028-0.57-0.049c-0.217-0.025-0.44-0.056-0.667-0.09
	c-0.191-0.03-0.386-0.066-0.58-0.105c-0.228-0.051-0.456-0.107-0.688-0.167c-0.195-0.054-0.388-0.104-0.589-0.164
	c-0.231-0.073-0.462-0.153-0.698-0.235c-0.201-0.076-0.398-0.146-0.597-0.225c-0.239-0.092-0.474-0.203-0.714-0.305
	c-0.192-0.09-0.394-0.179-0.592-0.277c-0.238-0.117-0.479-0.243-0.716-0.377c-0.197-0.104-0.393-0.208-0.592-0.321
	c-0.242-0.14-0.481-0.296-0.72-0.443c-0.195-0.126-0.39-0.241-0.581-0.369c-0.242-0.164-0.489-0.345-0.731-0.521
	c-0.185-0.137-0.368-0.264-0.555-0.403c-0.253-0.195-0.503-0.403-0.755-0.611c-0.168-0.138-0.335-0.273-0.504-0.413
	c-0.279-0.245-0.552-0.504-0.828-0.763c-0.131-0.122-0.263-0.239-0.397-0.363c-0.4-0.394-0.796-0.802-1.188-1.226
	c-0.395-0.432-0.761-0.895-1.095-1.385c-1.347-1.953-2.209-4.304-2.697-6.762C63,49.895,64.469,42.317,66.524,39.949
	c0.476-0.547,0.955-0.988,1.445-1.387c0.201-0.168,0.405-0.323,0.612-0.469c0.125-0.09,0.255-0.178,0.387-0.258
	c0.3-0.181,0.605-0.337,0.929-0.481c0.083-0.039,0.163-0.086,0.25-0.124c0.413-0.165,0.843-0.303,1.301-0.418
	c0.121-0.031,0.262-0.049,0.392-0.076c0.345-0.076,0.701-0.14,1.079-0.188c0.188-0.026,0.386-0.043,0.579-0.062
	c0.359-0.036,0.729-0.062,1.12-0.084c0.217-0.01,0.434-0.02,0.663-0.029c0.431-0.011,0.886-0.011,1.357-0.009
	c0.215,0.001,0.413,0.001,0.636,0.002c0.702,0.011,1.438,0.034,2.234,0.062c0.55,0.023,1.041,0.002,1.508-0.034
	c0.131-0.012,0.257-0.028,0.384-0.043c0.354-0.04,0.684-0.096,0.995-0.174c0.089-0.019,0.183-0.036,0.269-0.06
	c0.372-0.105,0.713-0.232,1.026-0.38c0.066-0.033,0.13-0.076,0.197-0.108c0.245-0.127,0.469-0.269,0.678-0.422
	c0.038-0.026,0.087-0.049,0.126-0.08c0.034-0.027,0.062-0.063,0.095-0.09c0.189-0.154,0.363-0.316,0.523-0.49
	c0.042-0.043,0.088-0.081,0.127-0.126c0.192-0.217,0.373-0.455,0.535-0.702c0.04-0.061,0.08-0.129,0.122-0.195
	c0.12-0.189,0.233-0.389,0.339-0.589c0.042-0.087,0.09-0.173,0.132-0.259c0.101-0.206,0.197-0.416,0.286-0.629
	c0.033-0.074,0.066-0.145,0.094-0.217c0.12-0.287,0.233-0.574,0.344-0.868c0.03-0.082,0.06-0.164,0.088-0.245
	c0.104-0.278,0.206-0.561,0.312-0.844c0.083-0.225,0.167-0.449,0.253-0.671c0.038-0.101,0.078-0.206,0.117-0.308
	c0.121-0.305,0.244-0.606,0.378-0.902c0.452-0.988,0.52-1.588,0.336-1.898c-0.503-0.873-2.896,0.372-4.385,1.393
	c-0.134,0.093-0.262,0.186-0.38,0.273c-0.47,0.349-0.96,0.42-1.46,0.328c-1.495-0.271-3.071-1.988-4.503-1.988
	c-0.226,0.001-0.375,0.041-0.472,0.098c-0.005,0.006-0.016,0.006-0.022,0.01c-0.002,0.002-0.009,0.004-0.009,0.006
	c-0.084,0.063-0.106,0.152-0.101,0.264c0.005,0.035,0.028,0.074,0.035,0.119c0.022,0.087,0.051,0.176,0.103,0.281
	c0.029,0.064,0.075,0.143,0.116,0.215c0.063,0.117,0.128,0.233,0.204,0.359c0.078,0.131,0.158,0.27,0.24,0.41
	c0.044,0.08,0.087,0.168,0.132,0.251c0.065,0.123,0.113,0.243,0.162,0.366c0.031,0.083,0.066,0.162,0.087,0.24
	c0.036,0.132,0.051,0.256,0.058,0.385c0.007,0.066,0.021,0.135,0.017,0.2c-0.016,0.186-0.07,0.368-0.187,0.536l-0.001,0.003
	l-0.003,0.002c-0.051,0.075-0.112,0.124-0.173,0.164c-0.039,0.021-0.077,0.036-0.115,0.05c-0.041,0.014-0.086,0.028-0.133,0.037
	c-0.042,0.001-0.086-0.002-0.13-0.004c-0.048-0.01-0.101-0.015-0.153-0.028c-0.049-0.013-0.104-0.028-0.154-0.045
	c-0.055-0.022-0.116-0.042-0.174-0.067c-0.057-0.028-0.114-0.056-0.18-0.092c-0.064-0.029-0.129-0.063-0.201-0.104
	c-0.066-0.037-0.136-0.073-0.207-0.117c-0.081-0.049-0.167-0.1-0.257-0.154c-0.108-0.068-0.221-0.137-0.338-0.205
	c-0.09-0.059-0.179-0.108-0.271-0.164c-0.092-0.055-0.186-0.107-0.286-0.164c-0.09-0.05-0.175-0.098-0.262-0.146
	c-0.103-0.06-0.206-0.108-0.313-0.163c-0.095-0.049-0.186-0.092-0.281-0.137c-0.108-0.057-0.223-0.102-0.338-0.15
	c-0.099-0.043-0.198-0.086-0.3-0.125c-0.118-0.044-0.244-0.084-0.368-0.123c-0.109-0.039-0.213-0.078-0.328-0.105
	c-0.126-0.036-0.265-0.065-0.398-0.099c-0.115-0.021-0.229-0.05-0.348-0.07c-0.145-0.026-0.297-0.04-0.449-0.054
	c-0.116-0.014-0.229-0.031-0.35-0.037c-0.165-0.008-0.334,0-0.505,0c-0.12,0.006-0.232-0.004-0.354,0.006
	c-0.196,0.014-0.4,0.049-0.603,0.078c-0.104,0.018-0.206,0.021-0.312,0.045c-0.317,0.061-0.637,0.146-0.975,0.255
	c-0.146,0.05-0.258,0.095-0.35,0.129c-0.035,0.014-0.051,0.026-0.078,0.036c-0.049,0.027-0.1,0.049-0.128,0.07
	c-0.002,0.004-0.013,0.011-0.017,0.013c-0.004,0.004,0.002,0.007-0.004,0.009c-0.047,0.046-0.052,0.084-0.015,0.113
	c0.001,0.001,0,0.004,0.005,0.006c0.043,0.032,0.142,0.056,0.264,0.078c0.021,0.002,0.041,0.004,0.064,0.01
	c0.131,0.018,0.297,0.031,0.49,0.045c0.031,0.002,0.068,0.006,0.103,0.012c0.209,0.009,0.431,0.018,0.688,0.027
	c0.013,0,0.028,0,0.047,0.004c0.282,0.008,0.586,0.014,0.913,0.025c0.273,0.005,0.564,0.016,0.85,0.021
	c0.069,0.001,0.13,0.006,0.195,0.009c0.309,0.007,0.621,0.022,0.932,0.039c0.051,0.003,0.098,0.005,0.147,0.007
	c0.324,0.018,0.648,0.035,0.961,0.063c0.003,0.002,0.012,0.002,0.015,0.005c0.002,0,0.003,0.001,0.004-0.001
	c0.217,0.017,0.396,0.055,0.557,0.1c0.054,0.014,0.095,0.037,0.143,0.056c0.098,0.035,0.19,0.071,0.262,0.12
	c0.045,0.021,0.074,0.055,0.111,0.083c0.058,0.048,0.104,0.095,0.145,0.148c0.023,0.036,0.045,0.065,0.064,0.106
	c0.025,0.055,0.045,0.115,0.057,0.173c0.007,0.04,0.014,0.076,0.015,0.117c0.001,0.064-0.01,0.134-0.02,0.206
	c-0.01,0.033-0.01,0.067-0.022,0.104c-0.031,0.089-0.071,0.182-0.128,0.273c-0.007,0.02-0.012,0.035-0.023,0.051
	c-0.063,0.109-0.147,0.215-0.241,0.316c-0.028,0.031-0.065,0.061-0.094,0.088c-0.072,0.075-0.145,0.146-0.228,0.211
	c-0.033,0.027-0.068,0.049-0.104,0.074c-0.166,0.126-0.35,0.244-0.552,0.342c-0.009,0-0.014,0.005-0.025,0.01
	c-0.205,0.096-0.427,0.172-0.651,0.222c-0.044,0.015-0.087,0.022-0.128,0.032c-0.223,0.044-0.456,0.063-0.687,0.054
	c-0.042,0.001-0.087-0.009-0.131-0.013c-0.245-0.019-0.487-0.063-0.732-0.16c-0.378-0.145-0.796-0.214-1.219-0.246
	c-0.13-0.007-0.258-0.006-0.389-0.004c-0.314,0.002-0.624,0.027-0.943,0.082c-0.137,0.021-0.262,0.041-0.396,0.072
	c-0.381,0.086-0.756,0.203-1.114,0.354c-0.044,0.021-0.093,0.036-0.14,0.051c-0.396,0.181-0.752,0.4-1.077,0.646
	c-0.031,0.024-0.078,0.038-0.107,0.06c-0.058,0.046-0.085,0.103-0.136,0.148c-0.241,0.203-0.446,0.422-0.616,0.652
	c-0.067,0.093-0.131,0.175-0.189,0.266c-0.187,0.318-0.325,0.648-0.349,0.994c-0.015,0.213-0.035,0.53-0.053,0.89
	c-0.018,0.252-0.034,0.546-0.057,0.854c-0.009,0.083-0.01,0.162-0.018,0.254c-0.031,0.373-0.066,0.781-0.107,1.197
	c-0.013,0.103-0.027,0.211-0.039,0.314c-0.036,0.344-0.082,0.696-0.138,1.051c-0.015,0.119-0.028,0.233-0.049,0.35
	c-0.07,0.443-0.156,0.887-0.252,1.314c-0.017,0.072-0.037,0.141-0.055,0.21c-0.086,0.36-0.189,0.698-0.294,1.022
	c-0.037,0.109-0.075,0.217-0.111,0.32c-0.142,0.361-0.29,0.707-0.467,1c-0.002,0.005-0.008,0.017-0.011,0.021
	c-0.175,0.295-0.385,0.521-0.605,0.715c-0.071,0.057-0.144,0.108-0.219,0.156c-0.124,0.084-0.254,0.145-0.388,0.188
	c-0.091,0.03-0.183,0.056-0.279,0.07c-0.151,0.018-0.308,0.011-0.469-0.017c-0.103-0.014-0.201-0.021-0.306-0.053
	c-0.191-0.055-0.395-0.162-0.601-0.27c-0.101-0.056-0.196-0.092-0.299-0.162c-0.322-0.212-0.662-0.484-1.027-0.844
	c-5.425-5.334,2.364-6.51,1.243-9.037c-0.648-1.467-2.306-1.856-3.168-2.338c0.45-0.525,0.723-1.197,1.015-1.951
	c0.106-0.281,0.222-0.578,0.351-0.883c0.594-1.357,0.256-2.402-0.322-3.057c0.002-0.131-0.003-0.255-0.003-0.386
	c-0.002-0.099-0.001-0.201-0.006-0.302c0.001-0.086-0.005-0.164-0.001-0.245C58.4,24.7,58.4,24.395,58.421,24.116
	c-0.001-0.011,0.001-0.019,0.002-0.032c0.017-0.256,0.051-0.471,0.105-0.663c0.007-0.036,0.016-0.075,0.027-0.108
	c0.058-0.184,0.142-0.322,0.252-0.42c0.033-0.023,0.057-0.043,0.088-0.061c0.073-0.047,0.16-0.074,0.258-0.081
	c0.043-0.007,0.083-0.015,0.126-0.013c0.147,0.006,0.317,0.035,0.521,0.124c0.31,0.13,0.604,0.162,0.886,0.159
	c0.067,0,0.129,0,0.198-0.012c0.271-0.025,0.542-0.098,0.793-0.23c0.034-0.016,0.062-0.041,0.095-0.057
	c0.143-0.078,0.281-0.16,0.417-0.264c0.084-0.064,0.161-0.154,0.248-0.227c0.056-0.054,0.118-0.107,0.176-0.164
	c0.228-0.232,0.457-0.488,0.667-0.775c0.033-0.039,0.06-0.088,0.093-0.127c0.187-0.268,0.369-0.545,0.546-0.841
	c0.049-0.083,0.1-0.168,0.148-0.251c0.192-0.328,0.378-0.666,0.555-1.01c0.014-0.03,0.029-0.061,0.044-0.09
	c0.173-0.342,0.34-0.682,0.498-1.013c0.196-0.399,0.381-0.783,0.553-1.135c0.108-0.223,0.143-0.447,0.144-0.673
	c0-0.06-0.003-0.113-0.009-0.171c-0.016-0.206-0.071-0.413-0.165-0.613c-0.008-0.015-0.008-0.027-0.014-0.041
	c-0.105-0.212-0.256-0.417-0.422-0.612c-0.045-0.047-0.086-0.091-0.135-0.14c-0.163-0.169-0.336-0.321-0.527-0.466
	c-0.031-0.02-0.052-0.039-0.079-0.055c-0.218-0.156-0.445-0.283-0.686-0.389c-0.058-0.027-0.118-0.054-0.181-0.075
	c-0.206-0.086-0.414-0.151-0.618-0.194c-0.037-0.008-0.083-0.025-0.118-0.027c-0.233-0.037-0.453-0.043-0.666-0.017
	c-0.052,0.007-0.096,0.018-0.146,0.03c-0.175,0.035-0.327,0.1-0.47,0.197c-0.022,0.015-0.056,0.012-0.078,0.031
	c-0.013,0.008-0.016,0.021-0.024,0.029c-0.07,0.057-0.12,0.133-0.176,0.206c-0.044,0.058-0.093,0.104-0.128,0.173
	c-0.046,0.092-0.074,0.209-0.104,0.32c-0.02,0.074-0.055,0.142-0.068,0.225c-0.019,0.142-0.008,0.313-0.007,0.479
	c0.002,0.094-0.009,0.162-0.004,0.26c0.031,0.276,0.085,0.589,0.181,0.933c0.143,0.531,0.263,0.96,0.37,1.347
	c0.029,0.098,0.059,0.207,0.084,0.299c0.022,0.076,0.04,0.141,0.058,0.212c0.037,0.132,0.073,0.271,0.102,0.381
	c0.019,0.075,0.034,0.133,0.05,0.198c0.021,0.09,0.048,0.184,0.065,0.261c0.01,0.059,0.014,0.102,0.025,0.151
	c0.01,0.066,0.024,0.137,0.034,0.19c0.005,0.048,0.004,0.079,0.001,0.119c0.002,0.048,0.006,0.097,0.001,0.134
	c0,0.035-0.01,0.063-0.02,0.09c-0.011,0.033-0.016,0.067-0.034,0.092c-0.013,0.023-0.032,0.044-0.048,0.061
	c-0.02,0.02-0.037,0.044-0.062,0.063c-0.028,0.022-0.061,0.035-0.095,0.051c-0.028,0.014-0.055,0.031-0.085,0.037
	c-0.043,0.018-0.093,0.037-0.147,0.046c-0.037,0.009-0.068,0.022-0.112,0.029c-0.083,0.022-0.178,0.044-0.282,0.069
	c-0.065,0.015-0.134,0.032-0.205,0.052c-0.069,0.019-0.134,0.031-0.207,0.056c-0.081,0.02-0.174,0.049-0.26,0.078
	c-0.07,0.023-0.139,0.041-0.214,0.067c-0.102,0.036-0.215,0.083-0.325,0.124c-0.074,0.029-0.145,0.053-0.227,0.089
	c-0.133,0.053-0.271,0.127-0.414,0.195c-0.072,0.038-0.141,0.067-0.224,0.104c-0.224,0.121-0.463,0.255-0.719,0.413
	c-1.501,0.932-3.047,0.583-3.942-0.604c-0.3-0.395-0.524-0.882-0.653-1.444c-0.255-1.13-0.118-2.563,0.62-4.175
	c0.552-1.203,1.438-2.506,2.747-3.855c0.439-0.445,0.92-0.9,1.46-1.354c0.694-0.596,1.351-1.124,1.984-1.623
	c0.227-0.178,0.454-0.354,0.668-0.52c0.192-0.146,0.384-0.292,0.569-0.43c0.255-0.189,0.509-0.367,0.753-0.541
	c0.172-0.127,0.351-0.251,0.518-0.371c0.246-0.17,0.48-0.323,0.712-0.477c0.153-0.102,0.311-0.209,0.45-0.3
	c0.027-0.013,0.043-0.026,0.068-0.042c24.357-5.049,50.395,2.084,68.786,20.218C133.14,25.869,133.201,26.005,133.242,26.123z
	 M8.839,53c0.042-0.044,0.079-0.089,0.121-0.129c0.267-0.279,0.544-0.533,0.825-0.764c0.071-0.053,0.135-0.104,0.205-0.155
	c0.162-0.12,0.323-0.225,0.489-0.319c0.07-0.04,0.14-0.085,0.216-0.123c0.23-0.117,0.461-0.216,0.695-0.274
	c3.204-0.796-3.946,9.657-1.817,10.761c0.154,0.08,0.329,0.15,0.511,0.217c0.056,0.018,0.116,0.039,0.172,0.059
	c0.134,0.039,0.277,0.082,0.42,0.115c0.069,0.02,0.141,0.034,0.215,0.051c0.152,0.032,0.308,0.055,0.469,0.081
	c0.068,0.006,0.131,0.019,0.201,0.024c0.225,0.025,0.456,0.043,0.694,0.041c0.025-0.002,0.055-0.002,0.078-0.006
	c0.209-0.006,0.419-0.017,0.631-0.041c0.076-0.009,0.15-0.021,0.226-0.035c0.163-0.027,0.326-0.062,0.487-0.102
	c0.08-0.02,0.162-0.043,0.241-0.072c0.165-0.051,0.325-0.117,0.484-0.191c0.063-0.025,0.129-0.049,0.189-0.078
	c0.216-0.114,0.42-0.238,0.615-0.385c0.005-0.004,0.014-0.008,0.02-0.014c0.016-0.014,0.033-0.036,0.051-0.049
	c0.196-0.162,0.377-0.344,0.54-0.552c0.049-0.062,0.094-0.116,0.143-0.18c0.175-0.246,0.337-0.512,0.463-0.821
	c0.007-0.02,0.01-0.043,0.015-0.062c0.122-0.293,0.202-0.629,0.268-0.985c0.018-0.098,0.031-0.195,0.045-0.299
	c0.056-0.397,0.088-0.823,0.066-1.302c-0.024-0.639-0.028-1.222-0.024-1.782c0.005-0.129,0.006-0.259,0.009-0.388
	c0.012-0.539,0.045-1.048,0.098-1.511c0.003-0.057,0.014-0.109,0.023-0.166c0.054-0.413,0.125-0.788,0.216-1.136
	c0.026-0.083,0.043-0.173,0.068-0.251c0.045-0.144,0.108-0.256,0.157-0.386c0.02-0.005,0.046-0.017,0.063-0.021
	c0.981-0.355,1.892-0.855,2.702-1.487c0.289-0.228,0.519-0.467,0.769-0.707c0.296,0.005,0.581-0.003,0.92,0.045
	c4.27,0.57,10.438,0.862,5.671,11.371c-4.772,10.511-4.52,20.932-3.384,22.387c0.067,0.087,0.153,0.189,0.25,0.304
	c0.031,0.035,0.067,0.08,0.101,0.115c0.065,0.08,0.137,0.16,0.219,0.255c0.055,0.064,0.123,0.138,0.185,0.209
	c0.074,0.08,0.143,0.162,0.219,0.245c0.105,0.115,0.21,0.237,0.323,0.357c0.082,0.092,0.167,0.187,0.252,0.281
	c0.086,0.098,0.175,0.197,0.265,0.297c0.066,0.076,0.133,0.153,0.2,0.227c0.1,0.113,0.202,0.229,0.301,0.346
	c0.059,0.065,0.121,0.137,0.181,0.205c0.1,0.114,0.194,0.229,0.293,0.341c0.061,0.071,0.122,0.143,0.18,0.216
	c0.105,0.126,0.203,0.24,0.297,0.368c0.05,0.055,0.1,0.113,0.145,0.171c0.135,0.17,0.26,0.335,0.378,0.497
	c0.008,0.008,0.017,0.021,0.021,0.031c0.129,0.165,0.241,0.334,0.348,0.491c0.032,0.046,0.057,0.088,0.087,0.132
	c0.063,0.108,0.13,0.212,0.185,0.31c0.03,0.056,0.051,0.103,0.075,0.154c0.043,0.085,0.081,0.168,0.112,0.241
	c0.017,0.048,0.033,0.095,0.042,0.138c0.02,0.067,0.037,0.129,0.042,0.193c0.004,0.038,0,0.074-0.001,0.111
	c-0.005,0.051-0.017,0.096-0.033,0.139c-0.006,0.016-0.017,0.025-0.026,0.041c-0.122,0.053-0.229,0.096-0.383,0.171
	c-0.065,0.005-0.111,0.017-0.191,0.011c-0.217-0.018-0.447-0.085-0.671-0.174c-0.051-0.02-0.103-0.039-0.153-0.06
	c-0.218-0.099-0.439-0.212-0.663-0.345c-0.056-0.031-0.114-0.07-0.166-0.104c-0.215-0.13-0.428-0.27-0.648-0.409
	c-0.245-0.156-0.494-0.309-0.75-0.457c-0.046-0.027-0.093-0.05-0.142-0.075c-0.235-0.129-0.466-0.241-0.708-0.328
	C24.238,88.012,24.21,88,24.18,87.99c-0.253-0.09-0.514-0.145-0.78-0.168c-0.058-0.001-0.117-0.003-0.177-0.006
	c-0.272-0.006-0.548,0.019-0.833,0.107c-0.015,0.005-0.027,0.015-0.043,0.021c-0.266,0.09-0.544,0.252-0.824,0.451
	c-0.04,0.029-0.079,0.033-0.116,0.066c-0.046,0.033-0.089,0.083-0.135,0.123c-0.08,0.063-0.153,0.133-0.231,0.204
	c-0.128,0.126-0.256,0.261-0.385,0.407c-0.075,0.089-0.153,0.178-0.233,0.277c-0.137,0.178-0.279,0.374-0.421,0.588
	c-0.07,0.1-0.135,0.191-0.207,0.297c-0.211,0.339-0.429,0.703-0.646,1.124c-0.23,0.438-0.418,0.876-0.577,1.31
	c-0.053,0.149-0.084,0.289-0.124,0.436c-0.092,0.289-0.179,0.578-0.241,0.859c-0.036,0.172-0.053,0.342-0.077,0.512
	c-0.04,0.251-0.083,0.502-0.103,0.749c-0.014,0.179-0.011,0.351-0.01,0.532c-0.004,0.227-0.013,0.457-0.003,0.686
	c0.01,0.176,0.034,0.348,0.053,0.523c0.025,0.217,0.042,0.432,0.079,0.637c0.03,0.174,0.07,0.342,0.113,0.509
	c0.044,0.194,0.087,0.399,0.141,0.589c0.049,0.166,0.103,0.318,0.157,0.479c0.064,0.183,0.125,0.368,0.197,0.541
	c0.063,0.153,0.129,0.298,0.2,0.443c0.073,0.169,0.151,0.332,0.233,0.49c0.072,0.14,0.148,0.271,0.225,0.401
	c0.085,0.15,0.171,0.294,0.261,0.434c0.082,0.123,0.16,0.236,0.242,0.354c0.092,0.126,0.186,0.252,0.28,0.371
	c0.085,0.105,0.163,0.201,0.25,0.293c0.094,0.115,0.188,0.21,0.282,0.307c0.083,0.086,0.168,0.163,0.248,0.236
	c0.095,0.083,0.184,0.16,0.274,0.232c0.081,0.063,0.159,0.117,0.239,0.172c0.088,0.059,0.173,0.107,0.256,0.149
	c0.075,0.041,0.144,0.077,0.211,0.103c0.077,0.033,0.156,0.051,0.227,0.068c0.061,0.014,0.123,0.027,0.181,0.027
	c0.066,0,0.126-0.01,0.181-0.024c0.052-0.015,0.099-0.024,0.143-0.051c0.017-0.008,0.041-0.009,0.053-0.017
	c0.06-0.046,0.109-0.11,0.15-0.184c0.11-0.213,0.21-0.474,0.291-0.759c0.031-0.097,0.059-0.215,0.086-0.319
	c0.052-0.196,0.104-0.398,0.154-0.617c0.03-0.148,0.062-0.305,0.095-0.458c0.046-0.244,0.094-0.481,0.138-0.729
	c0.046-0.244,0.095-0.491,0.14-0.733c0.032-0.146,0.06-0.299,0.091-0.441c0.047-0.201,0.092-0.391,0.146-0.578
	c0.03-0.121,0.06-0.242,0.093-0.356c0.062-0.196,0.135-0.368,0.207-0.532c0.032-0.069,0.057-0.152,0.092-0.217
	c0.113-0.209,0.239-0.373,0.386-0.482c0.153-0.122,0.334-0.184,0.545-0.156c0.827,0.104,1.259,1.41,1.696,2.582
	c0.216,0.587,0.437,1.141,0.707,1.496c0.131,0.178,0.279,0.299,0.444,0.357c0.166,0.055,0.345,0.036,0.553-0.071
	c1.662-0.868,3.835,0.839,5.924,3.247c0.158,0.178,0.317,0.307,0.482,0.406c0.046,0.027,0.096,0.051,0.144,0.068
	c0.121,0.061,0.242,0.098,0.359,0.111c0.048,0.006,0.094,0.018,0.146,0.016c0.326,0.007,0.652-0.121,0.969-0.357
	c0.015-0.012,0.035-0.018,0.051-0.031c0.029-0.023,0.06-0.057,0.09-0.089c0.118-0.095,0.23-0.202,0.345-0.329
	c0.045-0.05,0.093-0.1,0.141-0.154c0.145-0.178,0.293-0.367,0.433-0.586c0.008-0.005,0.008-0.009,0.015-0.016
	c0.139-0.217,0.275-0.457,0.408-0.702c0.042-0.077,0.08-0.153,0.116-0.233c0.095-0.19,0.185-0.386,0.275-0.584
	c0.035-0.083,0.072-0.164,0.11-0.25c0.114-0.277,0.227-0.561,0.324-0.849c0-0.004,0-0.005,0.006-0.007
	c0.1-0.291,0.19-0.586,0.273-0.883c0.024-0.094,0.048-0.184,0.072-0.272c0.057-0.22,0.107-0.435,0.158-0.651
	c0.019-0.09,0.04-0.18,0.058-0.27c0.055-0.291,0.106-0.576,0.139-0.855c-0.002-0.004,0-0.008,0.003-0.01
	c0.027-0.25,0.13-0.488,0.285-0.719c0.051-0.076,0.133-0.146,0.199-0.221c0.127-0.153,0.256-0.301,0.428-0.441
	c0.169-0.136,0.363-0.267,0.572-0.394c0.069-0.044,0.125-0.088,0.2-0.13c0.3-0.172,0.636-0.334,0.995-0.486
	c0.088-0.038,0.19-0.07,0.278-0.104c0.283-0.115,0.585-0.228,0.897-0.33c0.148-0.05,0.312-0.096,0.467-0.137
	c0.272-0.085,0.555-0.165,0.845-0.242c0.177-0.046,0.366-0.087,0.546-0.129c0.292-0.067,0.581-0.128,0.879-0.192
	c0.195-0.039,0.388-0.072,0.582-0.11c0.309-0.061,0.624-0.104,0.937-0.155c0.19-0.031,0.379-0.056,0.567-0.081
	c0.364-0.05,0.725-0.088,1.091-0.126c0.149-0.014,0.293-0.037,0.442-0.047c0.511-0.049,1.026-0.086,1.532-0.109
	c0.082-0.005,0.164-0.002,0.241-0.004c0.424-0.019,0.843-0.027,1.251-0.033c0.171,0.003,0.337,0.006,0.502,0.012
	c0.315,0.001,0.629,0.006,0.933,0.02c0.181,0.012,0.351,0.023,0.527,0.036c0.278,0.021,0.548,0.042,0.813,0.071
	c0.171,0.02,0.333,0.04,0.492,0.063c0.256,0.039,0.499,0.078,0.732,0.121c0.144,0.029,0.291,0.058,0.429,0.087
	c0.235,0.058,0.454,0.121,0.667,0.192c0.102,0.032,0.213,0.064,0.31,0.098c0.292,0.113,0.555,0.229,0.77,0.367
	c5.878,3.735,12.197-2.123,15.877,2.624c2.782,3.595,4.771,7.203,5.881,10.89c0.668,2.211,1.019,4.449,1.033,6.725
	c0.016,2.186,1,5.014,1.712,7.85c0.716,2.832,1.168,5.666,0.119,7.871c-2.1,4.391,3.775,9.59,5.287,10.738
	c0.208,0.158,0.469,0.326,0.757,0.496c0.012,0.01,0.023,0.016,0.037,0.023c0.282,0.168,0.589,0.342,0.907,0.516
	c0.316,0.176,0.635,0.35,0.952,0.527c0.035,0.021,0.071,0.037,0.107,0.064c0.302,0.166,0.592,0.344,0.864,0.518
	c0.037,0.02,0.076,0.041,0.106,0.066c0.262,0.17,0.499,0.344,0.699,0.516c0.028,0.025,0.061,0.051,0.085,0.068
	c0.19,0.174,0.34,0.348,0.443,0.514c0.017,0.025,0.029,0.051,0.047,0.076c0.089,0.168,0.122,0.336,0.091,0.5
	c0,0.023-0.008,0.049-0.014,0.074c-0.047,0.166-0.164,0.326-0.355,0.488c-0.079,0.061-0.153,0.127-0.258,0.191
	c-2.454,1.49-9.059,1.063-21.705-12.449c-12.642-13.514-9.421-8.512-15.42-9.445c-4.377-0.676-10.161-3.771-11.575-7.77
	c-0.264-0.746-0.553-1.643-0.865-2.594c-0.423-1.266-0.892-2.625-1.413-3.863c-1.175-2.795-2.621-4.969-4.413-4.046
	c-3.188,1.628-7.705-1.442-11.067-0.306c-3.365,1.132-8.112,3.766-10.831,1.637c-1.939-1.52-6.484-4.869-9.272-6.496
	C2.367,85.322,3.075,68.339,8.839,53z" class="color c1"/>
</svg>