<svg version="1.1" id="图层_1" x="0px" y="0px" width="120.41px" height="175.05px" viewBox="0 0 120.41 175.05" enable-background="new 0 0 120.41 175.05" xml:space="preserve" xmlns="http://www.w3.org/2000/svg" xmlns:xlink="http://www.w3.org/1999/xlink" xmlns:xml="http://www.w3.org/XML/1998/namespace">
  <path fill="#064591" d="M105.735,25.313c-1.125-0.944-2.221-1.88-3.285-2.804c8.861-8.526,14.1-16.106,16.456-19.914L105.735,25.313
	z M0,62.333C57.219,79.973,18.93,175.05,18.93,175.05l82.171-141.741c-1.363-1.847-2.749-3.779-4.161-5.807
	C78.379,43.36,47.538,60.522,0,62.333z M118.906,2.595C119.928,0.944,120.41,0,120.41,0L118.906,2.595z M49.165,41.128
	c9.104,0,16.485-7.381,16.485-16.485c0-9.105-7.381-16.486-16.485-16.486c-9.105,0-16.486,7.381-16.486,16.486
	C32.679,33.747,40.06,41.128,49.165,41.128z" class="color c1"/>
</svg>