<svg version="1.1" id="图层_1" x="0px" y="0px" width="250.066px" height="247.225px" viewBox="0 0 250.066 247.225" enable-background="new 0 0 250.066 247.225" xml:space="preserve" xmlns:xml="http://www.w3.org/XML/1998/namespace" xmlns="http://www.w3.org/2000/svg" xmlns:xlink="http://www.w3.org/1999/xlink">
  <g>
    <path fill="#04BCFD" d="M138.874,126.509l39.187,51.778c6.062-0.934,11.815-2.178,17.568-3.421
		c9.021-2.021,17.571-4.511,25.813-7.151c5.131-1.712,9.951-3.576,14.615-5.442c3.889-1.71,7.618-3.421,11.194-5.286
		c-0.311-0.934-0.776-1.711-1.244-2.487l0,0c-0.466-0.935-1.088-1.865-1.71-2.645l-50.534-66.708
		c-6.375-8.396-4.819-19.902,3.575-26.277l9.485-7.152c-0.467-0.312-1.089-0.622-1.556-0.934
		c-7.932-4.043-29.854-17.416-59.087-17.416c-29.233,0-48.825,9.174-53.179,10.418L41.692,82.658l82.412,36.386
		C129.545,119.355,134.987,121.533,138.874,126.509z" class="color c1"/>
    <g>
      <path fill="#5919E4" d="M2.662,112.048c-2.021,1.555-2.799,3.576-2.643,5.908c0.154,2.333,1.71,4.199,3.73,4.977l67.484,27.212
			c2.177,0.776,4.354,0.621,6.375-0.935l30.788-23.323L30.031,91.366L2.662,112.048z" class="color c2"/>
      <path fill="#5919E4" d="M249.741,165.694c-6.376,4.043-13.373,7.774-20.836,11.04c-1.244,0.622-2.488,1.089-3.732,1.556
			c-8.24,3.421-16.946,6.529-26.276,9.02c-3.731,1.089-7.619,2.021-11.507,2.954l6.529,8.708l-0.776,5.287l-4.977,35.919
			c-0.312,2.644,0.621,4.976,3.109,6.22c2.487,1.243,4.665,1.088,6.687-0.467l44.782-33.896c1.555-1.09,2.177-2.332,2.332-4.199
			l2.488-17.881l2.177-15.395c0.155-0.622,0.155-1.398,0.155-2.021C250.207,170.358,250.052,168.026,249.741,165.694z" class="color c2"/>
      <path fill="#5919E4" d="M142.451,25.593l4.509,0.154c1.557,0.155,3.11,0.155,4.665,0.312c3.109,0.155,6.222,0.467,9.175,0.777
			c6.063,0.777,11.974,1.866,17.728,3.266c5.753,1.398,11.04,3.266,16.016,5.287c2.488,1.088,4.82,2.177,7.152,3.267
			c2.178,1.243,4.354,2.331,6.376,3.73l-22.393-29.854c-10.572-13.995-29.854-16.639-43.692-6.063l-28.144,21.458
			c3.266-0.622,6.687-1.088,10.106-1.399C130.011,25.904,136.231,25.593,142.451,25.593z" class="color c2"/>
      <path fill="#5919E4" d="M206.669,51.56l0.468-0.466c1.09-0.777,1.865-1.866,2.332-2.955c-0.621-0.466-1.397-0.934-2.177-1.398
			c-2.021-1.244-4.199-2.488-6.376-3.731c-2.332-1.089-4.665-2.178-7.151-3.266c-4.978-2.021-10.418-3.888-16.018-5.287
			c-5.753-1.399-11.661-2.487-17.726-3.267c-3.109-0.312-6.064-0.622-9.174-0.933c-1.557-0.156-3.11-0.156-4.665-0.156h-4.665
			c-6.375,0-12.439,0.156-18.659,0.934c-5.753,0.622-11.195,1.556-16.638,2.645L92.694,43.94c4.354-1.244,25.035-4.819,30.788-5.287
			c5.909-0.467,11.815-0.621,17.724-0.621l4.51,0.154l4.354,0.156c2.954,0.154,5.908,0.311,8.862,0.621
			c5.907,0.623,11.507,1.4,17.104,2.488c10.885,2.177,20.992,5.286,28.768,9.33C205.581,51.094,206.048,51.249,206.669,51.56z" class="color c2"/>
    </g>
  </g>
</svg>