<svg version="1.1" id="图层_1" x="0px" y="0px" width="500.278px" height="382.223px" viewBox="0 0 500.278 382.223" enable-background="new 0 0 500.278 382.223" xml:space="preserve" xmlns="http://www.w3.org/2000/svg" xmlns:xlink="http://www.w3.org/1999/xlink" xmlns:xml="http://www.w3.org/XML/1998/namespace">
  <path id="XMLID_77_" fill="#00AA34" d="M249.999,11C144.721,11,77.166,85.556,77.166,191.112c0,25,62.556,25,62.556,0
	c0-55.556,55.278-100.833,110.833-100.833c55.556,0,100.831,45.277,100.831,100.833c0,32.669-5.85,81.687-30.205,100.054
	c-17.061,12.865-48.296,0.502-71.183,0.502H45.277c-25,0-45.278,20.277-45.278,45.277c0,24.998,20.278,45.275,45.278,45.275h204.722
	c51.692,0,88.696-40.625,123.153-74.117c35.721-34.719,67.959-63.266,67.959-116.993c0-42.083-13.646-80.987-36.725-112.559
	C369.58,30.935,313.304,11,249.999,11z" class="color c1"/>
  <path id="XMLID_73_" opacity="0.25" enable-background="new    " d="M93.888,291.666H49.721
	c33.611,54.168,93.889,90.277,162.222,90.277h38.056C253.61,381.945,93.888,291.666,93.888,291.666z"/>
  <path id="XMLID_67_" opacity="0.25" enable-background="new    " d="M249.999,90.279c25.557,0,49.167,9.722,66.944,25.556h108.609
	c-5.275-12.5-12.223-24.445-20-35.278C398.611,70.555,235.832,90.279,249.999,90.279z"/>
  <path id="XMLID_66_" fill="#CFE44B" d="M455,0h-205C144.721,0,59.166,85.556,59.166,191.112
	c0,105.556,85.556,191.111,191.111,191.111s191.111-85.557,191.111-191.111c0-25-20.275-45.277-45.275-45.277
	s-45.279,20.277-45.279,45.277c0,55.556-45.277,100.833-100.833,100.833c-55.556,0-100.556-45.559-100.556-100.833
	c0-55.277,45-100.833,100.556-100.833h205c25,0,45.277-20.278,45.277-45.278S479.722,0,455,0z" class="color c2"/>
</svg>