<svg version="1.1" id="图层_1" x="0px" y="0px" width="67.879px" height="96.499px" viewBox="0 0 67.879 96.499" enable-background="new 0 0 67.879 96.499" xml:space="preserve" xmlns="http://www.w3.org/2000/svg" xmlns:xlink="http://www.w3.org/1999/xlink" xmlns:xml="http://www.w3.org/XML/1998/namespace">
  <path fill="#FFF1D7" d="M48.119,45.438H25.503L0,0.114c22.578-0.324,44.831,0.162,67.572,0c0,0,0,22.74,0,26.801
	c0,0-3.573,0-4.386,0s-0.813,0-0.813-0.813C60.425,6.124,44.02,7.263,28.588,7.263C25.222,7.263,42.324,33.929,48.119,45.438z
	 M67.734,69.534c0,0-3.411,0.162-4.224,0.162c-0.812,0-0.812,0-0.812,0.65C60.75,90.489,44.182,89.353,28.913,89.353
	c-3.393,0,13.717-26.805,19.44-38.291H25.551C18.365,63.87,0.194,96.499,0.325,96.499c34.273,0,36.06-0.162,67.41,0
	C67.734,96.499,68.06,73.759,67.734,69.534z" class="color c1"/>
</svg>