<svg version="1.1" id="图层_1" x="0px" y="0px" width="63.675px" height="101.622px" viewBox="0 0 63.675 101.622" enable-background="new 0 0 63.675 101.622" xml:space="preserve" xmlns="http://www.w3.org/2000/svg" xmlns:xlink="http://www.w3.org/1999/xlink" xmlns:xml="http://www.w3.org/XML/1998/namespace">
  <path fill="#52B945" d="M63.475,1.654c-1.166-1.812-6.842-2.346-8.066-0.531l-0.001-0.339c0,0-33.769-1.66-35.41,0.1
	c-1.482,1.59,4.102,7.911,2.58,12.518c-1.681,5.084-19.646,7.708-22.094,8.551c-2.522,0.869,4.98,13.935,18.557,13.77
	c10.366-0.127,15.978-0.272,16.599-0.916c1.319-1.359-2.708-6.372-1.172-7.479c1.329-0.96,18.31-1.923,20.715-2.056
	c0.057,29.551,0.195,76.35,0.195,76.35l8.297-0.023L63.475,1.654z" class="color c1"/>
</svg>