<svg version="1.1" id="图层_1" x="0px" y="0px" width="258.279px" height="69.004px" viewBox="0 0 258.279 69.004" enable-background="new 0 0 258.279 69.004" xml:space="preserve" xmlns:xml="http://www.w3.org/XML/1998/namespace" xmlns="http://www.w3.org/2000/svg" xmlns:xlink="http://www.w3.org/1999/xlink">
  <path fill="#5919E4" d="M258.038,0c0.016,0.107,0.04,0.4,0.074,0.828c-0.006,0.072,0.007,0.137,0.014,0.229
	c0.041,0.564,0.178,1.332,0.151,2.313c-0.011,1.088-0.079,2.445-0.309,4.011c-0.232,1.687-0.668,3.63-1.44,5.769
	c-1.446,4.078-4.046,8.771-7.994,13.367c-3.871,4.647-9.029,9.188-15.085,13.395c-6.071,4.216-13.097,8.086-20.788,11.492
	c-6.942,3.068-14.397,5.822-22.261,8.148c-0.873,0.242-1.717,0.492-2.589,0.735c-8.808,2.446-18.053,4.415-27.513,5.848
	c-9.478,1.443-19.171,2.306-28.873,2.7l-7.221,0.17c-2.387-0.018-4.788,0.021-7.148-0.033c-0.073-0.006-0.119-0.004-0.192-0.008
	c-4.84-0.068-9.661-0.311-14.434-0.674c-9.556-0.7-18.924-1.979-27.886-3.773c-8.961-1.793-17.524-4.17-25.447-6.984
	c-7.933-2.833-15.208-6.16-21.577-9.914c-6.368-3.754-11.827-7.891-16.044-12.244c-4.279-4.295-7.234-8.786-8.971-12.753
	c-1.782-3.964-2.271-7.354-2.456-9.603c-0.102-1.117-0.015-1.99-0.039-2.565c0.012-0.431,0.006-0.687,0.025-0.813
	c0.053,0.252,0.265,1.4,0.7,3.268c0.571,2.142,1.742,5.164,3.921,8.548c2.196,3.374,5.559,6.973,9.951,10.401
	c4.376,3.441,9.93,6.557,16.21,9.42c12.578,5.719,28.402,9.877,45.616,12.484c1.18,0.17,2.387,0.348,3.584,0.506
	c7.517,1,15.28,1.694,23.164,2.107c4.125,0.221,8.315,0.307,12.499,0.375c0.446,0.002,0.878,0.014,1.326,0.016
	c2.323,0.03,4.596-0.027,6.908-0.017l7.037-0.205c9.323-0.317,18.609-1.11,27.702-2.239c9.082-1.146,17.97-2.674,26.479-4.572
	c2.869-0.659,5.716-1.354,8.496-2.127c13.631-3.592,26.015-8.211,36.068-13.728c0.665-0.358,1.319-0.733,1.975-1.11l0.213-0.123
	c5.148-2.957,9.685-6.08,13.278-9.367c1.788-1.639,3.366-3.273,4.752-4.916c1.824-2.107,3.294-4.221,4.385-6.213
	c1.925-3.53,2.86-6.654,3.274-8.799c0.106-0.672,0.191-1.264,0.246-1.742C257.968,0.699,258.01,0.157,258.038,0z" class="color c1"/>
</svg>