<svg version="1.1" id="图层_1" x="0px" y="0px" width="94.999px" height="102.381px" viewBox="0 0 94.999 102.381" enable-background="new 0 0 94.999 102.381" xml:space="preserve" xmlns="http://www.w3.org/2000/svg" xmlns:xlink="http://www.w3.org/1999/xlink" xmlns:xml="http://www.w3.org/XML/1998/namespace">
  <path fill="#040204" d="M57.304,6.727C56.75,1.801,52.573,0,47.503,0c-5.076,0-9.254,1.808-9.807,6.727
	c-14.958,4.264-25.91,18.021-25.91,34.346C11.787,67.371,0,77.406,0,81.244c-0.014,4.83,10.975,7.803,32.463,9.866
	c1.934,6.503,7.897,11.271,15.025,11.271c7.129,0,13.091-4.774,15.018-11.271c21.498-2.063,32.493-5.036,32.493-9.866
	c0-3.838-11.776-13.873-11.776-40.172C83.223,24.744,72.262,10.992,57.304,6.727z" class="color c1"/>
</svg>