<svg version="1.1" id="图层_1" x="0px" y="0px" width="89.354px" height="112.061px" viewBox="0 0 89.354 112.061" enable-background="new 0 0 89.354 112.061" xml:space="preserve" xmlns="http://www.w3.org/2000/svg" xmlns:xlink="http://www.w3.org/1999/xlink" xmlns:xml="http://www.w3.org/XML/1998/namespace">
  <path fill="#FFFFFF" d="M72.001,5.379c-2.026,1.033-3.987,2.165-5.868,3.384v94.532c1.881,1.221,3.842,2.353,5.868,3.385V5.379z
	 M14.417,106.68c2.027-1.032,3.987-2.166,5.868-3.383V8.763c-1.881-1.221-3.841-2.351-5.868-3.382V106.68z M51.722,90.439
	c1.793,2.205,3.753,4.287,5.866,6.239V15.384c-2.113,1.95-4.073,4.03-5.866,6.234V90.439L51.722,90.439z M34.702,21.62
	c-1.8-2.205-3.76-4.287-5.874-6.237v81.294c2.114-1.95,4.074-4.032,5.874-6.235V21.62z M89.354,0
	c-1.999,0.498-3.955,1.079-5.868,1.741v108.577c1.911,0.663,3.867,1.245,5.868,1.741V0L89.354,0z M0,112.061
	c1.997-0.498,3.953-1.08,5.866-1.741V1.741C3.955,1.077,2,0.495,0,0V112.061z M47.024,56.031c0-7.06-1.101-13.823-3.945-20.081l0,0
	c-2.846,6.257-3.945,13.021-3.945,20.081c0,7.06,1.101,13.821,3.945,20.079v0.001C45.924,69.853,47.024,63.09,47.024,56.031z" class="color c1"/>
</svg>