<svg version="1.1" id="图层_1" x="0px" y="0px" width="117.563px" height="117.563px" viewBox="0 0 117.563 117.563" enable-background="new 0 0 117.563 117.563" xml:space="preserve" xmlns="http://www.w3.org/2000/svg" xmlns:xlink="http://www.w3.org/1999/xlink" xmlns:xml="http://www.w3.org/XML/1998/namespace">
  <path fill="#FFFFFF" d="M58.781,0C26.317,0,0,26.316,0,58.781c0,32.464,26.317,58.781,58.781,58.781s58.781-26.317,58.781-58.781
	C117.563,26.316,91.246,0,58.781,0z M58.781,94.934c-19.966,0-36.153-16.186-36.153-36.153s16.187-36.153,36.153-36.153
	c19.968,0,36.153,16.187,36.153,36.153S78.749,94.934,58.781,94.934z M73.746,58.878c0,8.264-6.7,14.964-14.964,14.964
	c-8.264,0-14.965-6.7-14.965-14.964c0-8.265,6.701-14.965,14.965-14.965C67.046,43.913,73.746,50.613,73.746,58.878z" class="color c1"/>
</svg>