<svg version="1.1" id="图层_1" x="0px" y="0px" width="119.653px" height="189.262px" viewBox="0 0 119.653 189.262" enable-background="new 0 0 119.653 189.262" xml:space="preserve" xmlns="http://www.w3.org/2000/svg" xmlns:xlink="http://www.w3.org/1999/xlink" xmlns:xml="http://www.w3.org/XML/1998/namespace">
  <path fill="#FFFFFF" d="M59.827,189.262l7.25-7.25V137.54c0.477-1.286,1.637-1.524,3.635-1.188c5.947,1,11.924,1.833,17.881,2.779
	c2.145,0.341,3.436,0.252,3.494-2.646c0.52-25.724,9.176-42.9,22.275-64.683c1.611-2.678,3.199-5.37,5.291-8.884
	c-12.443,2.123-22.475,6.933-31.109,15.361c2.336,0.603,4.58-1.891,5.662-0.411c1.328,1.821-0.934,3.86-1.631,5.788
	c-5.109,14.119-8.711,22.58-10.191,37.524c-0.328,3.302-1.361,4.106-4.445,3.341c-2.424-0.603-4.961-0.824-7.461-1.039
	c-1.818-0.157-2.939-0.635-3.4-2.009V33.741c0.424-1.293,1.465-1.571,3.463-1.121c2.188,0.492,4.445,0.659,7.387,1.071
	C69.054,23.946,64.515,12.45,59.827,0c-4.688,12.449-9.229,23.945-18.101,33.69c2.941-0.412,5.199-0.579,7.387-1.071
	c1.999-0.45,3.039-0.172,3.464,1.121v87.732c-0.463,1.374-1.583,1.852-3.401,2.009c-2.5,0.215-5.037,0.437-7.461,1.039
	c-3.084,0.766-4.117-0.039-4.445-3.341c-1.48-14.944-5.082-23.405-10.191-37.524c-0.697-1.928-2.959-3.967-1.631-5.788
	c1.082-1.479,3.326,1.014,5.662,0.411C22.475,69.85,12.443,65.041,0,62.917c2.092,3.514,3.68,6.206,5.291,8.884
	c13.1,21.782,21.756,38.959,22.275,64.683c0.059,2.898,1.35,2.987,3.494,2.646c5.957-0.946,11.934-1.779,17.881-2.779
	c1.999-0.336,3.159-0.098,3.636,1.188v44.473L59.827,189.262z" class="color c1"/>
</svg>