<svg version="1.1" id="图层_1" x="0px" y="0px" width="190px" height="145.814px" viewBox="0 0 190 145.814" enable-background="new 0 0 190 145.814" xml:space="preserve" xmlns="http://www.w3.org/2000/svg" xmlns:xlink="http://www.w3.org/1999/xlink" xmlns:xml="http://www.w3.org/XML/1998/namespace">
  <polygon fill="#2578B4" points="95,0 0,145.814 76.509,145.814 79.25,130.648 51.543,126.566 95,53.707 139.04,127.439 
	109.875,127.732 113.374,145.814 190,145.814 " class="color c1"/>
  <polygon fill="#162F65" points="76.522,132.723 76.509,145.814 82.557,136.982 82.575,136.955 82.575,121.182 " class="color c2"/>
  <polygon fill="#162F65" points="57.887,121.182 42.981,132.723 76.917,132.723 82.562,121.352 82.653,121.182 " class="color c2"/>
  <g>
    <polygon fill="#1E5089" points="113.374,132.723 113.388,145.814 107.341,136.982 107.322,136.955 107.322,121.182 	" class="color c3"/>
    <polygon fill="#1E5089" points="132.011,121.182 146.916,132.723 112.98,132.723 107.336,121.352 107.244,121.182 	" class="color c3"/>
    <polygon fill="#1E5089" points="136.957,118.047 146.521,132.139 146.916,132.723 131.901,121.391 94.8,64.455 94.781,64.426 
		95,53.707 	" class="color c3"/>
  </g>
  <polygon fill="#162F65" points="52.94,118.047 43.376,132.139 42.981,132.723 57.996,121.391 95.098,64.455 95.116,64.426 
	95,53.707 " class="color c2"/>
</svg>