<svg version="1.1" id="图层_1" x="0px" y="0px" width="361px" height="275.27px" viewBox="0 0 361 275.27" enable-background="new 0 0 361 275.27" xml:space="preserve" xmlns:xml="http://www.w3.org/XML/1998/namespace" xmlns="http://www.w3.org/2000/svg" xmlns:xlink="http://www.w3.org/1999/xlink">
  <g>
    <path fill="#DA0248" d="M76.122,120.944h269.689c8.717-1.98,15.188-9.745,15.188-19.019c0-11.303-9.071-21.215-19.417-21.215
		H142.418h-15.375l12.286-9.299l35.509-30.761c5.381-4.695,9.716-9.963,9.716-16.925c0-3.407-0.906-6.771-2.604-9.74
		c-9.62-17.779-9.62-17.94-33.109-4.264c-16.172,9.916-46.087,26.647-72.718,41.31L76.122,120.944L76.122,120.944z" class="color c1"/>
    <path fill="#243375" d="M62.668,120.944V58.418C40.201,70.719,22.772,80.104,22.772,80.104C8.93,85.893,0.001,99.358,0.001,114.403
		v6.542L62.668,120.944L62.668,120.944z" class="color c2"/>
    <path fill="#243375" d="M228.026,135.441l-13.311-1.043H76.122V266.15c22.887,4.436,49.797,9.099,61.734,9.099
		c22.754,0,65.955,0.012,65.955,0.021c10.711,0,19.424-8.743,19.424-19.505c0-10.767-8.713-19.511-19.424-19.511h-0.289
		l-0.283-0.031l-9.489-1.679v-6.89l4.897-0.247l19.064-1.689c10.963-0.006,19.676-8.759,19.676-19.524
		c0-10.767-8.713-19.512-19.423-19.512l-19.063-1.692v-8.66l28.949-1.863c10.886-0.005,19.597-8.747,19.597-19.514
		C247.449,144.189,238.736,135.441,228.026,135.441z" class="color c2"/>
    <path fill="#243375" d="M62.668,134.398H0.001v81.604c0,21.569,19.69,38.746,37.943,42.3c0,0,10.419,2.287,24.724,5.183V134.398z" class="color c2"/>
  </g>
</svg>