<svg version="1.1" id="图层_1" x="0px" y="0px" width="179.809px" height="180px" viewBox="1 0 179.809 180" enable-background="new 1 0 179.809 180" xml:space="preserve" xmlns:xml="http://www.w3.org/XML/1998/namespace" xmlns="http://www.w3.org/2000/svg" xmlns:xlink="http://www.w3.org/1999/xlink">
  <polygon fill="#573B44" points="90.999,94.868 91.019,94.811 90.979,94.811 " class="color c1"/>
  <path fill="#573B44" d="M148.724,145.239l4.995,9.18C137.493,170.221,115.379,180,90.999,180c-24.297,0-46.338-9.723-62.549-25.425
	l4.957-9.185C47.973,160.525,68.388,170,90.999,170C113.689,170,134.153,160.463,148.724,145.239z M14.955,104.811h63.655l-3.545-10
	H13.743C13.954,98.203,14.324,101.548,14.955,104.811z M103.387,104.811h23.301l-5.42-10h-14.336L103.387,104.811z M90.999,10
	c35.513,0,65.652,23.276,76.074,55.356h10.409C166.73,27.69,132.068,0,90.999,0C41.375,0,1,40.376,1,90
	c0,19.557,6.342,37.622,16.977,52.402l5.354-9.928C15.564,120.15,10.999,105.615,10.999,90C10.999,45.889,46.888,10,90.999,10z
	 M175.998,94.811h-5.175h-32.495l5.419,10h25.83c-1.885,9.926-5.612,19.205-10.801,27.489l5.392,9.912
	c9.668-13.521,15.692-29.785,16.641-47.401H175.998z" class="color c1"/>
</svg>