<svg version="1.1" id="图层_1" x="0px" y="0px" width="168.127px" height="177.559px" viewBox="0 0 168.127 177.559" enable-background="new 0 0 168.127 177.559" xml:space="preserve" xmlns:xml="http://www.w3.org/XML/1998/namespace" xmlns="http://www.w3.org/2000/svg" xmlns:xlink="http://www.w3.org/1999/xlink">
  <path fill="#FFE55A" d="M77.393,145.867l0.297-0.059v29.999H1.75v-40.213l1.557,0.027c16.282,8.188,33.807,12.34,52.09,12.34
	C62.76,147.963,70.161,147.258,77.393,145.867z M140.038,135.596c16.525-15.708,25.279-37.643,24.027-60.278l-0.06-1.09l-0.42,1.007
	c-12.885,30.896-38.165,54.971-69.388,66.065c-0.893,0.458-1.661,0.828-2.42,1.165l-0.147,0.065v33.277h74.747v-40.213
	L140.038,135.596L140.038,135.596z" class="color c1"/>
  <path fill="#B47A1A" d="M77.417,1.974l0.273-0.024v37.017l-0.167,0.059c-6.013,2.109-11.568,6.801-16.064,13.563
	c-12.425,18.737-13.854,48.928-3.324,70.225c4.833,9.769,10.456,15.411,19.409,19.479l0.146,0.065v3.965l-0.203,0.038
	c-7.264,1.396-14.696,2.104-22.091,2.104c-18.361,0-35.962-4.17-52.314-12.394l-0.941-0.475h27.52
	C14.322,121.024,5.747,101.477,5.498,80.479c-0.252-21.16,8.016-41.059,23.281-56.034C41.825,11.639,59.099,3.658,77.417,1.974z
	 M164.065,75.306c-0.444-8.016-2.135-15.881-5.024-23.379l-0.082-0.218c-0.033-0.089-0.065-0.177-0.101-0.265
	c-0.312-0.792-0.64-1.563-1.035-2.477l-0.135-0.313c-0.096-0.223-0.19-0.442-0.289-0.661c-0.328-0.729-0.678-1.451-1.029-2.171
	l-0.068-0.14c-0.179-0.365-0.357-0.729-0.544-1.094c-0.336-0.657-0.686-1.309-1.042-1.958c-0.256-0.465-0.516-0.93-0.781-1.391
	c-0.346-0.6-0.699-1.193-1.062-1.785c-0.31-0.506-0.628-1.007-0.951-1.507c-0.353-0.548-0.708-1.094-1.076-1.634
	c-0.366-0.538-0.749-1.069-1.13-1.602l-0.14-0.194c-0.31-0.431-0.619-0.859-0.94-1.286c-0.421-0.557-0.859-1.104-1.298-1.651
	l-0.341-0.428c-0.249-0.313-0.497-0.627-0.754-0.936c-0.529-0.633-1.082-1.253-1.656-1.896l-0.342-0.39
	c-0.189-0.217-0.378-0.434-0.575-0.646c-0.944-1.023-1.845-1.953-2.753-2.845c-13.215-12.97-30.734-20.968-49.333-22.518
	l-0.271-0.022v36.836l0.174,0.056c6.279,1.988,12.072,6.758,16.75,13.792c12.425,18.736,13.854,48.927,3.322,70.225
	c-0.281,0.57-0.566,1.126-0.854,1.67c-0.065,0.124-0.132,0.243-0.198,0.363l-0.122,0.222c-0.183,0.337-0.366,0.675-0.552,1.001
	c-0.098,0.17-0.193,0.335-0.292,0.5l-0.181,0.307c-0.139,0.234-0.276,0.47-0.418,0.699c-0.131,0.214-0.265,0.423-0.397,0.632
	l-0.079,0.124c-0.145,0.225-0.289,0.449-0.436,0.671c-0.178,0.266-0.357,0.526-0.538,0.786c-0.132,0.188-0.267,0.379-0.399,0.563
	c-0.197,0.273-0.398,0.543-0.601,0.81c-0.12,0.155-0.241,0.312-0.362,0.466c-0.222,0.281-0.445,0.56-0.675,0.833
	c-0.085,0.102-0.171,0.202-0.259,0.303l-0.053,0.063c-0.25,0.292-0.504,0.581-0.765,0.864l-0.228,0.241
	c-0.293,0.313-0.592,0.624-0.895,0.924l-0.054,0.051c-2.538,2.503-5.484,4.596-9.007,6.399l0.197,0.458
	c31.324-11.13,56.711-35.307,69.651-66.331l0.021-0.063V75.306z" class="color c2"/>
  <path fill="#DAB13B" d="M79.44,177.559H0v-43.713h25.438C11.65,119.317,3.986,100.555,3.748,80.499
	C3.49,58.858,11.945,38.508,27.554,23.197C40.886,10.108,58.538,1.952,77.257,0.23l2.183-0.199v40.175l-1.338,0.47
	c-5.65,1.982-10.902,6.438-15.186,12.879c-12.107,18.257-13.489,47.697-3.212,68.48c4.697,9.492,9.902,14.726,18.563,18.662
	l1.173,0.531V177.559z M4,173.559h71.44v-29.771c-8.794-4.26-14.449-10.132-19.322-19.98c-10.858-21.959-9.368-53.111,3.465-72.466
	c4.441-6.678,9.898-11.466,15.856-13.93V4.447c-16.99,2.049-32.927,9.67-45.085,21.604C15.532,40.592,7.503,59.912,7.747,80.451
	c0.245,20.587,8.736,39.74,23.909,53.935l3.7,3.46H4V173.559z M168.127,177.559H89.88v-36.165l1.188-0.526
	c8.865-3.944,14.172-9.225,18.926-18.833c10.275-20.782,8.895-50.224-3.213-68.481c-4.453-6.696-9.924-11.224-15.819-13.091
	l-1.396-0.441V0l2.166,0.181c19.002,1.583,36.908,9.757,50.414,23.017c15.608,15.312,24.063,35.661,23.807,57.303
	c-0.238,20.056-7.902,38.817-21.689,53.347h23.866v43.712H168.127z M93.88,173.559h70.247v-35.713h-29.785l3.7-3.46
	c15.173-14.193,23.664-33.348,23.908-53.935c0.244-20.539-7.785-39.859-22.607-54.399C127.015,13.949,110.83,6.303,93.563,4.378
	v32.757c6.229,2.371,11.926,7.254,16.547,14.204c12.836,19.354,14.324,50.508,3.467,72.468
	c-4.934,9.973-10.697,15.899-19.698,20.169L93.88,173.559L93.88,173.559z" class="color c3"/>
</svg>