<svg version="1.1" id="图层_1" x="0px" y="0px" width="170px" height="170.139px" viewBox="0 0 170 170.139" enable-background="new 0 0 170 170.139" xml:space="preserve" xmlns="http://www.w3.org/2000/svg" xmlns:xlink="http://www.w3.org/1999/xlink" xmlns:xml="http://www.w3.org/XML/1998/namespace">
  <path fill="#FF5D3D" d="M151.051,138.592C162.893,123.984,170,105.381,170,85.111c0-20.1-6.994-38.559-18.658-53.108
	c-0.232,3.285-0.84,6.359-1.842,9.218c-1.035,2.953-2.633,5.052-4.793,7.028c-2.162,1.979-5.191,2.602-9.086,2.602H95.445
	l-5.844,28.855c1.338-1.097,2.906-1.933,4.703-2.876c1.795-0.943,3.744-1.688,5.844-2.418c2.101-0.73,4.32-1.248,6.666-1.645
	c2.343-0.396,4.763-0.571,7.259-0.571c3.407,0,6.862,0.332,10.362,0.971c3.5,0.638,6.863,1.648,10.09,3.019
	c3.228,1.37,6.24,3.14,9.039,5.299c2.802,2.162,5.236,4.749,7.306,7.764c2.069,3.013,3.698,6.483,4.887,10.41
	c1.187,3.926,1.779,8.354,1.779,13.285c0,7.245-1.127,13.682-3.379,19.313C153.256,134.508,152.215,136.616,151.051,138.592z
	 M131.331,155.4c-5.174,2.011-10.715,3.015-16.619,3.015c-6.024,0-11.246-0.73-15.657-2.191c-4.414-1.461-8.22-3.272-11.414-5.433
	c-3.197-2.161-5.86-4.444-7.991-6.85c-2.131-2.404-3.926-4.581-5.387-6.527l2.83-2.558c1.218,1.521,2.603,2.952,4.155,4.292
	c1.552,1.338,3.287,2.494,5.204,3.47c1.918,0.974,4.019,1.75,6.301,2.328c2.283,0.577,4.731,0.867,7.351,0.867
	c3.471,0,6.787-0.654,9.953-1.963c3.164-1.31,5.948-3.304,8.354-5.98c2.403-2.68,4.319-6.058,5.752-10.136
	c1.43-4.078,2.146-8.887,2.146-14.427c0-5.296-0.641-9.861-1.918-13.696c-1.279-3.835-3.014-7.016-5.205-9.542
	c-2.19-2.523-4.748-4.396-7.67-5.614s-6.057-1.826-9.404-1.826c-2.557,0-4.809,0.335-6.758,1.005
	c-1.946,0.67-3.621,1.506-5.021,2.511c-1.399,1.004-2.571,2.069-3.517,3.195c-0.943,1.128-1.688,2.146-2.235,3.06l-3.457-1.046
	c-0.014,0.751-0.029,1.521-0.049,2.323c-0.062,2.436-0.244,4.901-0.549,7.396c-0.305,2.495-0.762,4.931-1.369,7.305
	c-0.609,2.374-1.492,4.475-2.648,6.301c-1.156,1.826-2.617,3.33-4.383,4.455c-1.766,1.127-3.926,1.717-6.482,1.717H7.854
	c13.489,29,42.95,49.289,77.146,49.289c18.87,0,36.297-6.172,50.4-16.576C134.09,154.248,132.736,154.855,131.331,155.4z" class="color c1"/>
  <path fill="#2AAAE3" d="M18.346,35.33c3.591-2.679,7.67-4.899,12.235-6.666c4.565-1.765,9.526-2.647,14.883-2.647
	c4.566,0,8.826,0.548,12.783,1.645c3.957,1.096,7.381,2.771,10.272,5.021c2.891,2.254,5.159,5.129,6.803,8.629
	c1.644,3.502,2.466,7.625,2.466,12.373c0,3.287-0.686,6.422-2.055,9.404c-1.37,2.982-3.196,5.813-5.479,8.492
	c-2.283,2.679-4.885,5.204-7.807,7.578c-2.922,2.374-5.936,4.597-9.04,6.666s-6.163,3.657-9.177,5.424
	c-3.013,1.766-5.768,3.602-8.264,4.602h30.68c3.652,0,6.27-0.559,7.854-2.08c1.582-1.521,2.557-3.92,2.922-6.92h3.743
	c0,0-0.002,0.932-0.006,1.468L93.346,26.85h45.836c3.068,0,5.322-0.243,6.779-1.165C130.516,9.783,108.918,0,85,0
	C54.726,0,28.166,15.897,13.107,39.729C14.708,38.178,16.447,36.746,18.346,35.33z M9.443,110.568c2.951-2.19,6.102-4.748,9.45-7.67
	c3.347-2.922,6.726-6.146,10.135-9.679c3.409-3.53,6.483-7.168,9.223-10.911c2.739-3.744,4.977-7.547,6.711-11.414
	c1.735-3.865,2.603-7.624,2.603-11.275c0-2.616-0.351-4.991-1.05-7.122c-0.701-2.13-1.781-3.973-3.242-5.524
	s-3.303-2.753-5.523-3.605c-2.223-0.853-4.885-1.278-7.99-1.278c-2.922,0-5.585,0.381-7.989,1.142
	c-2.405,0.763-4.597,1.75-6.574,2.968c-1.979,1.219-3.743,2.647-5.296,4.292c-1.552,1.644-2.907,3.317-4.063,5.021l-0.385-0.37
	C1.938,64.463,0,74.559,0,85.111c0,10.064,1.761,19.717,4.972,28.677C6.287,112.875,7.764,111.815,9.443,110.568z" class="color c2"/>
</svg>