<svg version="1.1" id="图层_1" x="0px" y="0px" width="198.08px" height="172.398px" viewBox="0 0 198.08 172.398" enable-background="new 0 0 198.08 172.398" xml:space="preserve" xmlns="http://www.w3.org/2000/svg" xmlns:xlink="http://www.w3.org/1999/xlink" xmlns:xml="http://www.w3.org/XML/1998/namespace">
  <path fill="#FFFFFF" d="M169.502,132.925c-0.408,0.408-0.801,0.814-1.188,1.209c-2.316,2.383-3.822,3.84-5.563,3.854
	c-0.007,0-0.015,0-0.02,0c-1.892,0-4.556-1.703-7.916-5.063l-20.159-20.16l18.381-18.406l2.565-2.627l-10.709-10.709l-2.853,2.922
	l0.006,0.006l-9.213,9.213l-0.02-0.02l-8.891,8.889L91.229,69.337l15.433-15.43c4.956-4.959,4.956-13.025,0-17.982L74.459,3.725
	C72.059,1.322,68.863,0,65.469,0c-3.396,0-6.59,1.322-8.99,3.725L23.396,36.81c-2.402,2.4-3.726,5.594-3.726,8.988
	c0,3.396,1.323,6.59,3.726,8.992L37.39,68.785L3.725,102.449c-2.4,2.4-3.725,5.594-3.725,8.99s1.324,6.59,3.725,8.988l45.152,45.152
	c4.545,4.547,10.512,6.818,16.481,6.818c5.968-0.004,11.939-2.275,16.482-6.818l26.173-26.172
	c14.995,14.982,31.329,30.842,45.961,30.842c5.097,0,9.988-1.926,14.545-6.482l29.561-29.559l-14.931-14.93L169.502,132.925z
	 M145.072,86.914l4.77,4.676l-18.182,18.18l-4.72-4.721L145.072,86.914z M26.39,51.792c-1.603-1.6-2.481-3.73-2.481-5.994
	c0-2.262,0.879-4.391,2.481-5.992L59.475,6.72c1.602-1.601,3.729-2.481,5.994-2.481c2.264,0,4.393,0.881,5.993,2.481l32.202,32.204
	c3.305,3.303,3.305,8.682,0,11.986L53.34,101.232c-2.401,2.402-3.724,5.596-3.724,8.992s1.322,6.588,3.724,8.99l28.23,28.232
	l-9.811,9.809l-48.875-47.813l70.182-70.186l-28.238-28.24L35.351,40.494L50.514,55.66L40.386,65.787L26.39,51.792z M64.586,95.982
	l32.695,32.697l-14.244,14.24l-26.7-26.703c-1.602-1.6-2.483-3.729-2.483-5.992s0.882-4.393,2.483-5.994L64.586,95.982z
	 M78.844,162.585c-7.436,7.436-19.534,7.434-26.971,0L6.721,117.431c-1.602-1.6-2.482-3.729-2.482-5.992s0.881-4.393,2.482-5.994
	l70.032-70.031l-12.06-12.061L51.975,36.074l9.063,9.063l-9.024,9.025L38.346,40.494l26.482-26.48l25.244,25.244l-70.199,70.201
	l51.903,50.775l28.532-28.529l4.707,4.707L78.844,162.585z M64.033,42.142l-6.066-6.068l6.727-6.727l6.067,6.066L64.033,42.142z
	 M192.092,134.205l-26.568,26.566c-13.998,13.994-32.045-1.891-56.015-25.857l-41.927-41.93l8.572-8.561l67.183,64.059
	c4.017,4.018,7.567,6.684,12.046,6.684c5.964,0,13.578-4.732,26.138-17.295l7.121-7.119L192.092,134.205z M180.022,136.375
	c-21.879,21.877-27.111,18.686-35.188,10.607L77.712,82.865l10.521-10.531l63.588,63.59c4.356,4.355,7.726,6.303,10.906,6.303
	c0.018,0,0.037,0,0.054,0c3.603-0.025,6.016-2.51,8.573-5.139c0.371-0.379,0.75-0.773,1.145-1.164l10.656-10.658l3.989,3.988
	L180.022,136.375z" class="color c1"/>
</svg>