<svg version="1.1" id="图层_1" x="0px" y="0px" width="200px" height="177.605px" viewBox="0 0 200 177.605" enable-background="new 0 0 200 177.605" xml:space="preserve" xmlns="http://www.w3.org/2000/svg" xmlns:xlink="http://www.w3.org/1999/xlink" xmlns:xml="http://www.w3.org/XML/1998/namespace">
  <path fill="#51BF82" d="M131.89,12.374c0.436-0.056,0.912-0.066,1.418-0.034c0.504,0.034,1.039,0.11,1.59,0.231
	c0.55,0.119,1.118,0.282,1.69,0.486c0.573,0.205,1.154,0.452,1.728,0.742c0.866,0.437,1.639,0.93,2.298,1.448
	c0.661,0.522,1.209,1.071,1.617,1.618c0.411,0.55,0.683,1.099,0.787,1.612c0.104,0.518,0.039,1-0.223,1.414
	c-0.089,0.139-0.198,0.266-0.324,0.38c-0.128,0.115-0.272,0.217-0.435,0.307s-0.342,0.167-0.535,0.232
	c-0.194,0.065-0.402,0.118-0.625,0.157c-0.441,0.079-0.933,0.107-1.461,0.086c-0.531-0.022-1.098-0.094-1.687-0.216
	c-0.59-0.123-1.201-0.294-1.819-0.515c-0.617-0.221-1.24-0.491-1.854-0.808c-0.921-0.476-1.731-1.014-2.405-1.576
	c-0.669-0.558-1.202-1.138-1.577-1.708c-0.372-0.563-0.588-1.114-0.629-1.618c-0.039-0.499,0.093-0.953,0.417-1.329
	c0.109-0.125,0.234-0.238,0.376-0.339c0.142-0.1,0.3-0.188,0.472-0.263c0.171-0.076,0.356-0.139,0.554-0.19
	C131.46,12.441,131.669,12.401,131.89,12.374z M158.596,31.113c0.155-0.04,0.323-0.068,0.501-0.087
	c0.178-0.018,0.367-0.025,0.565-0.021c0.198,0.004,0.407,0.019,0.625,0.046c0.218,0.028,0.446,0.067,0.683,0.118
	c0.698,0.152,1.409,0.397,2.099,0.712c0.69,0.314,1.362,0.699,1.979,1.127c0.618,0.432,1.184,0.91,1.658,1.411
	c0.478,0.503,0.865,1.029,1.125,1.554c0.172,0.35,0.278,0.677,0.32,0.977c0.043,0.301,0.022,0.576-0.058,0.817
	c-0.081,0.243-0.221,0.454-0.417,0.628c-0.195,0.174-0.447,0.311-0.748,0.404c-0.155,0.048-0.323,0.085-0.504,0.111
	c-0.181,0.026-0.374,0.039-0.579,0.04c-0.206,0-0.423-0.012-0.651-0.037s-0.468-0.063-0.717-0.115
	c-0.739-0.154-1.494-0.415-2.226-0.752s-1.437-0.752-2.077-1.214c-0.639-0.46-1.211-0.967-1.681-1.491
	c-0.466-0.521-0.829-1.06-1.052-1.587c-0.146-0.346-0.223-0.666-0.236-0.955c-0.014-0.288,0.035-0.546,0.141-0.771
	c0.104-0.224,0.266-0.415,0.477-0.568C158.032,31.307,158.292,31.19,158.596,31.113z M177.146,54.652
	c0.205-0.089,0.429-0.162,0.668-0.217c0.24-0.055,0.496-0.093,0.77-0.112c0.271-0.02,0.561-0.022,0.864-0.004
	c0.305,0.018,0.623,0.053,0.958,0.109c1.051,0.175,2.153,0.53,3.254,1.023c1.102,0.493,2.205,1.126,3.25,1.859
	c1.053,0.737,2.052,1.579,2.936,2.483c0.893,0.913,1.671,1.893,2.27,2.898c0.414,0.693,0.716,1.354,0.91,1.971
	c0.196,0.622,0.283,1.2,0.266,1.722c-0.017,0.526-0.141,0.995-0.366,1.394c-0.228,0.401-0.558,0.732-0.985,0.979
	c-0.201,0.116-0.422,0.212-0.665,0.29c-0.242,0.078-0.506,0.135-0.789,0.171c-0.284,0.037-0.589,0.053-0.912,0.046
	c-0.324-0.007-0.668-0.036-1.03-0.089c-1.141-0.167-2.354-0.553-3.567-1.107c-1.209-0.553-2.412-1.271-3.538-2.099
	c-1.118-0.824-2.154-1.755-3.043-2.74c-0.879-0.976-1.609-2.002-2.129-3.029c-0.35-0.693-0.58-1.341-0.702-1.935
	c-0.12-0.589-0.131-1.125-0.043-1.598c0.087-0.469,0.272-0.877,0.547-1.217C176.339,55.113,176.702,54.844,177.146,54.652z
	 M104.309,2.544c0.186-0.013,0.379-0.019,0.578-0.015c0.2,0.003,0.407,0.015,0.618,0.035c0.213,0.02,0.431,0.048,0.652,0.085
	c0.223,0.037,0.449,0.083,0.682,0.137c0.68,0.162,1.331,0.388,1.928,0.658c0.597,0.269,1.141,0.584,1.604,0.924
	c0.465,0.341,0.851,0.709,1.128,1.084c0.28,0.377,0.451,0.762,0.485,1.133c0.023,0.247-0.018,0.473-0.112,0.675
	c-0.096,0.203-0.246,0.382-0.446,0.536c-0.2,0.154-0.449,0.281-0.739,0.379c-0.292,0.098-0.626,0.166-0.993,0.202
	c-0.188,0.018-0.387,0.028-0.593,0.029c-0.205,0-0.419-0.007-0.64-0.025s-0.447-0.044-0.681-0.08
	c-0.233-0.038-0.473-0.083-0.716-0.14c-0.72-0.166-1.407-0.404-2.036-0.691c-0.627-0.288-1.192-0.623-1.666-0.985
	c-0.474-0.36-0.854-0.746-1.115-1.135c-0.261-0.387-0.402-0.775-0.399-1.146c0.003-0.243,0.068-0.462,0.187-0.656
	c0.118-0.193,0.29-0.362,0.507-0.502c0.216-0.14,0.477-0.254,0.774-0.339C103.612,2.625,103.945,2.569,104.309,2.544z M72.997,0.017
	c0.985-0.051,1.999,0.013,2.991,0.173c0.988,0.159,1.96,0.413,2.863,0.743c0.902,0.331,1.741,0.738,2.465,1.205
	c0.726,0.469,1.338,0.999,1.785,1.572c0.448,0.58,0.688,1.15,0.732,1.687c0.044,0.543-0.108,1.051-0.442,1.5
	c-0.338,0.453-0.86,0.844-1.55,1.146c-0.696,0.305-1.563,0.517-2.579,0.607c-1.027,0.089-2.104,0.046-3.17-0.109
	c-1.07-0.156-2.125-0.424-3.104-0.782c-0.98-0.359-1.879-0.807-2.638-1.322c-0.757-0.513-1.37-1.088-1.785-1.704
	c-0.412-0.613-0.587-1.206-0.553-1.752c0.033-0.541,0.27-1.036,0.685-1.46c0.409-0.419,0.992-0.77,1.722-1.029
	C71.142,0.237,72.008,0.07,72.997,0.017z M120.445,20.702c0.779-0.124,1.622-0.167,2.505-0.132c0.879,0.036,1.801,0.15,2.743,0.342
	c0.94,0.191,1.904,0.46,2.872,0.805c0.967,0.347,1.939,0.771,2.897,1.272c1.447,0.76,2.731,1.631,3.818,2.56
	c1.099,0.939,2,1.941,2.666,2.953c0.675,1.026,1.109,2.063,1.258,3.053c0.15,1.006,0.004,1.964-0.487,2.807
	c-0.168,0.286-0.369,0.55-0.603,0.791c-0.234,0.243-0.501,0.462-0.797,0.658c-0.297,0.197-0.624,0.371-0.977,0.521
	c-0.354,0.149-0.734,0.276-1.138,0.378c-0.803,0.202-1.695,0.307-2.652,0.314c-0.963,0.007-1.988-0.085-3.049-0.279
	c-1.063-0.195-2.16-0.488-3.261-0.883c-1.101-0.395-2.202-0.888-3.275-1.479c-1.61-0.885-2.996-1.9-4.121-2.971
	c-1.111-1.06-1.962-2.169-2.521-3.259c-0.548-1.075-0.812-2.127-0.764-3.094c0.047-0.951,0.395-1.819,1.066-2.545
	c0.223-0.242,0.475-0.461,0.752-0.657c0.276-0.194,0.576-0.366,0.9-0.517c0.321-0.149,0.665-0.277,1.027-0.383
	C119.669,20.85,120.05,20.766,120.445,20.702z M82.554,13.468c1.564-0.167,3.185-0.123,4.781,0.1
	c1.588,0.221,3.162,0.619,4.645,1.162c1.482,0.544,2.882,1.236,4.116,2.05c1.243,0.82,2.327,1.767,3.166,2.815
	c0.851,1.064,1.372,2.136,1.583,3.168c0.214,1.048,0.107,2.059-0.304,2.975c-0.419,0.932-1.153,1.768-2.187,2.447
	c-1.05,0.69-2.406,1.215-4.045,1.513c-1.666,0.3-3.453,0.336-5.252,0.14c-1.811-0.197-3.62-0.628-5.319-1.254
	c-1.698-0.627-3.274-1.443-4.622-2.408c-1.336-0.958-2.438-2.055-3.205-3.248c-0.756-1.177-1.111-2.33-1.112-3.405
	c-0.001-1.056,0.339-2.033,0.976-2.883c0.625-0.834,1.536-1.546,2.69-2.09C79.601,14.015,80.977,13.64,82.554,13.468z M43.643,8.247
	c0.948-0.071,1.896-0.036,2.803,0.089c0.901,0.125,1.765,0.339,2.544,0.626s1.479,0.647,2.052,1.065
	c0.575,0.419,1.027,0.898,1.309,1.421c0.284,0.526,0.368,1.05,0.275,1.545c-0.092,0.5-0.365,0.972-0.794,1.393
	c-0.433,0.424-1.024,0.794-1.752,1.085c-0.732,0.292-1.603,0.504-2.583,0.608c-0.989,0.102-1.994,0.084-2.961-0.036
	c-0.97-0.12-1.899-0.344-2.734-0.653c-0.835-0.308-1.575-0.699-2.169-1.155c-0.591-0.453-1.033-0.969-1.28-1.526
	c-0.245-0.555-0.273-1.095-0.117-1.6c0.156-0.5,0.494-0.963,0.982-1.366c0.484-0.399,1.117-0.738,1.868-0.995
	C41.829,8.495,42.69,8.319,43.643,8.247z M144.08,47.417c0.389-0.124,0.799-0.223,1.23-0.297c0.431-0.072,0.883-0.119,1.354-0.14
	c0.47-0.02,0.96-0.013,1.468,0.023c0.508,0.034,1.034,0.097,1.577,0.189c1.704,0.29,3.429,0.843,5.097,1.598
	c1.672,0.757,3.299,1.722,4.799,2.835c1.515,1.124,2.908,2.405,4.096,3.786c1.205,1.401,2.203,2.912,2.896,4.468
	c0.48,1.079,0.783,2.113,0.921,3.082c0.139,0.982,0.104,1.899-0.092,2.73c-0.2,0.842-0.564,1.595-1.085,2.239
	c-0.526,0.652-1.211,1.191-2.041,1.596c-0.39,0.189-0.811,0.35-1.262,0.477c-0.453,0.129-0.936,0.225-1.448,0.287
	c-0.513,0.062-1.055,0.089-1.623,0.079c-0.57-0.01-1.167-0.057-1.788-0.142c-1.96-0.271-3.969-0.904-5.91-1.815
	c-1.935-0.908-3.787-2.083-5.447-3.436c-1.643-1.339-3.087-2.843-4.236-4.425c-1.13-1.556-1.967-3.178-2.426-4.786
	c-0.308-1.078-0.425-2.079-0.372-2.988c0.053-0.897,0.269-1.708,0.629-2.417c0.357-0.701,0.854-1.305,1.475-1.801
	C142.506,48.07,143.241,47.685,144.08,47.417z M100.078,35.58c1.472-0.309,3.027-0.462,4.627-0.464
	c1.586-0.001,3.222,0.145,4.872,0.44c1.643,0.294,3.308,0.736,4.958,1.328c1.65,0.592,3.295,1.336,4.901,2.237
	c2.434,1.364,4.567,2.97,6.354,4.723c1.817,1.783,3.29,3.732,4.353,5.745c1.09,2.063,1.755,4.203,1.912,6.303
	c0.162,2.164-0.214,4.292-1.224,6.246c-0.348,0.67-0.756,1.297-1.225,1.881c-0.475,0.59-1.006,1.135-1.593,1.634
	c-0.591,0.503-1.238,0.958-1.933,1.365c-0.701,0.409-1.451,0.768-2.243,1.075c-1.586,0.614-3.339,1.018-5.205,1.202
	c-1.888,0.185-3.883,0.144-5.931-0.131c-2.06-0.276-4.16-0.787-6.242-1.536s-4.133-1.732-6.091-2.948
	c-2.923-1.816-5.333-3.958-7.175-6.251c-1.805-2.247-3.049-4.618-3.707-6.958c-0.64-2.276-0.721-4.509-0.23-6.568
	c0.476-1.997,1.489-3.827,3.051-5.376c0.514-0.51,1.071-0.974,1.665-1.393c0.59-0.414,1.216-0.786,1.875-1.112
	c0.651-0.325,1.335-0.607,2.044-0.848C98.598,35.935,99.327,35.737,100.078,35.58z M55.188,31.987
	c0.64-0.104,1.291-0.183,1.952-0.234c0.658-0.052,1.325-0.077,1.999-0.074c0.672,0.003,1.35,0.033,2.031,0.092
	c0.681,0.059,1.366,0.146,2.052,0.263c2.152,0.367,4.13,0.995,5.874,1.819c1.75,0.826,3.279,1.857,4.52,3.031
	c1.254,1.186,2.224,2.525,2.83,3.957c0.617,1.455,0.862,3.013,0.647,4.61c-0.148,1.108-0.51,2.165-1.059,3.151
	c-0.557,1.001-1.305,1.931-2.218,2.768c-0.927,0.85-2.021,1.604-3.252,2.24c-1.247,0.646-2.633,1.17-4.122,1.551
	c-0.699,0.179-1.42,0.327-2.159,0.44c-0.743,0.114-1.504,0.193-2.278,0.235c-0.778,0.044-1.568,0.05-2.369,0.017
	c-0.803-0.033-1.615-0.104-2.431-0.219c-2.578-0.358-4.938-1.092-6.981-2.107c-2.037-1.013-3.739-2.294-5.024-3.75
	c-1.27-1.438-2.124-3.034-2.492-4.691c-0.36-1.627-0.253-3.306,0.38-4.947c0.425-1.098,1.057-2.108,1.854-3.017
	c0.785-0.896,1.731-1.694,2.801-2.384c1.054-0.681,2.228-1.258,3.488-1.721C52.474,32.559,53.804,32.212,55.188,31.987z
	 M184.722,89.643c0.612-0.421,1.375-0.621,2.231-0.623c0.854-0.002,1.803,0.191,2.792,0.559s2.024,0.91,3.049,1.607
	c1.029,0.703,2.053,1.564,3.015,2.568c0.972,1.014,1.791,2.082,2.439,3.145c0.656,1.074,1.139,2.146,1.43,3.156
	c0.295,1.023,0.393,1.983,0.271,2.816c-0.121,0.844-0.465,1.557-1.052,2.073c-0.594,0.519-1.377,0.787-2.282,0.825
	c-0.909,0.038-1.938-0.156-3.021-0.559c-1.082-0.403-2.212-1.013-3.323-1.803c-1.105-0.787-2.187-1.748-3.179-2.855
	c-0.983-1.101-1.782-2.238-2.385-3.348c-0.596-1.1-0.999-2.17-1.201-3.157c-0.2-0.976-0.203-1.866,0-2.621
	C183.707,90.682,184.108,90.069,184.722,89.643z M129.889,77.792c1.785-0.796,3.754-1.142,5.794-1.093
	c2.021,0.047,4.13,0.481,6.218,1.257c2.087,0.776,4.171,1.901,6.141,3.339c1.987,1.451,3.876,3.234,5.55,5.319
	c1.708,2.126,3.042,4.379,3.988,6.646c0.969,2.322,1.534,4.668,1.676,6.91c0.146,2.299-0.158,4.488-0.932,6.42
	c-0.794,1.98-2.081,3.684-3.881,4.942c-1.848,1.281-4.034,1.968-6.403,2.095c-2.392,0.129-4.943-0.313-7.486-1.268
	c-2.542-0.955-5.046-2.414-7.348-4.305c-2.275-1.869-4.329-4.142-6.005-6.734c-1.644-2.542-2.758-5.137-3.376-7.635
	c-0.602-2.438-0.729-4.78-0.418-6.899c0.305-2.067,1.025-3.924,2.135-5.466C126.624,79.814,128.08,78.605,129.889,77.792z
	 M76.753,69.359c1.482-0.476,3.021-0.782,4.58-0.917c1.547-0.134,3.118-0.101,4.681,0.102c1.554,0.202,3.106,0.573,4.618,1.118
	c1.514,0.544,2.994,1.265,4.41,2.167c2.143,1.369,3.949,3.039,5.387,4.903c1.462,1.893,2.556,4.002,3.235,6.21
	c0.694,2.258,0.96,4.634,0.738,6.999c-0.227,2.429-0.97,4.851-2.293,7.12c-0.454,0.775-0.961,1.51-1.517,2.197
	c-0.561,0.693-1.169,1.342-1.821,1.94c-0.658,0.604-1.36,1.159-2.1,1.663c-0.745,0.507-1.528,0.961-2.342,1.359
	c-1.628,0.797-3.378,1.373-5.198,1.713c-1.838,0.343-3.741,0.443-5.654,0.29c-1.922-0.154-3.846-0.565-5.713-1.241
	c-1.866-0.675-3.666-1.611-5.343-2.812c-2.508-1.796-4.478-3.996-5.888-6.41c-1.382-2.37-2.213-4.929-2.487-7.502
	c-0.269-2.51-0.007-5.023,0.777-7.391c0.764-2.303,2.022-4.463,3.771-6.355c0.577-0.623,1.188-1.199,1.829-1.725
	c0.637-0.522,1.302-0.998,1.991-1.427c0.685-0.425,1.393-0.806,2.119-1.139C75.257,69.89,75.998,69.603,76.753,69.359z
	 M18.026,28.25c0.512-0.068,1.029-0.118,1.55-0.149c0.519-0.031,1.04-0.044,1.562-0.038c0.521,0.006,1.042,0.031,1.561,0.077
	c0.518,0.045,1.034,0.109,1.546,0.195c1.607,0.268,3.027,0.716,4.225,1.298c1.2,0.583,2.184,1.304,2.91,2.118
	c0.732,0.82,1.207,1.74,1.378,2.711c0.173,0.984,0.035,2.028-0.464,3.084c-0.346,0.729-0.843,1.418-1.465,2.056
	c-0.629,0.645-1.388,1.236-2.249,1.763c-0.869,0.532-1.843,0.999-2.893,1.385c-1.06,0.391-2.194,0.701-3.375,0.917
	c-0.554,0.102-1.116,0.183-1.687,0.241c-0.571,0.06-1.148,0.096-1.729,0.11s-1.167,0.004-1.75-0.03
	c-0.586-0.035-1.171-0.093-1.751-0.178c-1.832-0.269-3.438-0.768-4.768-1.44c-1.326-0.669-2.368-1.507-3.082-2.45
	c-0.707-0.936-1.088-1.971-1.105-3.046c-0.016-1.061,0.323-2.157,1.049-3.23c0.489-0.723,1.12-1.389,1.864-1.989
	c0.735-0.594,1.58-1.123,2.504-1.582c0.914-0.455,1.906-0.838,2.948-1.146C15.838,28.625,16.921,28.396,18.026,28.25z
	 M11.393,69.191c0.524-0.134,1.054-0.245,1.585-0.331c0.53-0.086,1.062-0.147,1.591-0.183s1.058-0.044,1.581-0.026
	c0.523,0.018,1.043,0.063,1.556,0.136c1.511,0.218,2.826,0.664,3.917,1.285c1.093,0.623,1.966,1.425,2.582,2.356
	c0.622,0.938,0.987,2.012,1.056,3.169c0.069,1.171-0.164,2.432-0.745,3.73c-0.389,0.868-0.908,1.698-1.536,2.479
	c-0.635,0.788-1.38,1.523-2.213,2.193c-0.841,0.676-1.769,1.285-2.759,1.811c-0.999,0.53-2.061,0.975-3.158,1.32
	c-0.565,0.178-1.141,0.33-1.721,0.452c-0.581,0.124-1.168,0.217-1.757,0.28s-1.18,0.096-1.767,0.094
	c-0.589-0.001-1.175-0.036-1.752-0.106c-1.709-0.208-3.184-0.704-4.379-1.422c-1.192-0.715-2.101-1.648-2.689-2.726
	c-0.585-1.069-0.852-2.277-0.77-3.555c0.079-1.263,0.498-2.589,1.281-3.915c0.51-0.866,1.145-1.678,1.872-2.423
	c0.722-0.738,1.536-1.413,2.418-2.012c0.873-0.594,1.812-1.115,2.792-1.554C9.35,69.809,10.362,69.455,11.393,69.191z
	 M46.521,122.808c8.647,0,15.657,7.01,15.657,15.657s-7.01,15.657-15.657,15.657s-15.657-7.01-15.657-15.657
	S37.873,122.808,46.521,122.808z M168.095,150.603c-4.479-7.397-3.669-16.081,1.807-19.397c5.477-3.316,13.547-0.008,18.026,7.389
	c4.479,7.396,3.67,16.082-1.807,19.398C180.645,161.308,172.574,158,168.095,150.603z M118.494,145.882
	c7.356-0.278,13.589,6.595,13.921,15.353s-5.362,16.084-12.719,16.362c-7.357,0.279-13.59-6.595-13.922-15.353
	S111.138,146.161,118.494,145.882z" class="color c1"/>
</svg>