<svg version="1.1" id="图层_1" x="0px" y="0px" width="271.238px" height="267.025px" viewBox="0 0 271.238 267.025" enable-background="new 0 0 271.238 267.025" xml:space="preserve" xmlns="http://www.w3.org/2000/svg" xmlns:xlink="http://www.w3.org/1999/xlink" xmlns:xml="http://www.w3.org/XML/1998/namespace">
  <path fill="#FF3835" d="M270.258,249.823c0.029-0.164,0.071-0.323,0.089-0.49c0.435-4.053-0.963-7.592-3.168-10.69
	c-0.334-0.85-10.118,1.107-15.761-3.599c-1.832-1.528-6.436-3.813-7.667-5.594c-0.688-0.996,0.818-0.473-0.167-2.654
	s-3.989-9.141-4-9.166c-1.317-2.929,0.363-6.791,0.299-9.951c0.654-2.229,1.112-4.507,1.393-6.808
	c0.01-0.009,0.021-0.018,0.03-0.027c1.024-1.024,1.287-2.157,1.464-3.536c0.229-1.777,0.457-3.554,0.686-5.331
	c0.095-0.738-0.047-1.426-0.345-2.045c0.274-1.207,0.518-2.424,0.712-3.661c0.649,0.066,1.308,0.026,1.877-0.131
	c1.279-0.352,2.272-1.211,2.988-2.298c0.441-0.669,0.882-1.338,1.323-2.007c0.741-1.125,0.794-2.581,0.504-3.853
	c-0.29-1.275-1.23-2.3-2.298-2.988c-0.536-0.345-1.207-0.553-1.894-0.633c0.175-0.747,0.163-1.589-0.107-2.511
	c-0.017-0.057-0.033-0.113-0.05-0.17c2.137-2.564,1.327-7.366-2.417-8.242c-0.721-2.459-1.442-4.918-2.163-7.377
	c0.279-8.173-0.453-16.373-2.191-24.402c-1.419-6.557-3.581-12.915-6.309-19.04c-2.743-6.158-9.195-13.691-7.359-20.73
	c0.607-2.327-0.459-4.315-2.298-5.646c-6.411-4.644-12.88-9.373-18.482-14.979c0.16-0.428,0.216-0.917,0.118-1.45
	c-2.817-15.423-8.755-28.964-18.252-41.492c-0.539-0.711-1.27-1.016-1.998-1.044c-0.856-0.727-5.267-5.596-6.565-6.648
	c-1.52-1.231-2.684-3.397-4.728-3.74c-0.453-1.332-5.275-4.472-6.761-4.93c-2.385-0.737-3.912-1.584-5.903-3.084
	c-2.387-1.798-4.41-3.014-7.432-3.151c-0.659-0.03-1.201,0.199-1.608,0.569c-0.275-0.549-0.764-1.011-1.505-1.239
	c-4.27-1.313-8.575-2.127-12.971-2.466c-3.609-1.138-7.232-2.305-10.997-2.546c-7.725-0.496-24.697,3.525-24.767,4.515
	c-8.012,1.98-24.526,10.378-24.202,11.401c-0.537,0.305-1.066,0.67-1.606,1.125c-0.938,0.791-1.892,2.145-2.936,3.398
	c-0.508-0.096-1.065,0.014-1.62,0.429c-1.527,1.143-7.863,6.65-8.502,7.463c-0.595,0.758-0.708,1.825-0.429,2.711
	c-0.464,0.181-0.901,0.505-1.251,1.013c-0.599,0.87-1.02,1.691-1.341,2.579c-4.217,1.818-6.791,9.042-8.452,12.714
	c-2.789,6.166-4.645,12.598-5.661,19.285c-0.083,0.546,0.001,1.033,0.186,1.457c-0.272,0.586-0.316,1.278-0.149,1.905
	c-5.446,5.86-10.839,11.469-14.875,18.726c-5.575,10.025-10.133,21.037-13.976,31.835c-4.194,11.782-6.395,24.006-3.684,36.378
	c0.092,0.419,0.223,0.795,0.382,1.136c0.506,16.076,4.38,31.301,10.946,44.992c-1.549,0.353-3.065,0.904-4.541,1.777
	c-1.23,0.727-2.035,2.041-2.319,3.447c-2.966,0.328-5.88,0.594-8.54,2.085c-1.725,0.967-2.555,2.951-2.408,4.829
	c-1.482,1.402-2.617,3.085-3.353,4.956c-2.205,3.099-3.603,6.638-3.168,10.69c0.288,2.685,2.092,5,5,5
	c2.025,0,4.259-1.535,4.855-3.569c0.482-0.509,0.879-1.15,1.144-1.943c0.048-0.143,0.103-0.284,0.152-0.427
	c0.567-0.748,0.899-1.656,1.003-2.622c0.537-1.266,1.145-2.502,1.811-3.707c1.092-0.326,1.92-0.954,2.499-1.756
	c0.019,0.005,0.038,0.011,0.057,0.016c1.615,0.376,2.988,0.01,4.033-0.759c0.69,0.387,1.528,0.612,2.533,0.579
	c0.626-0.021,1.253-0.03,1.879-0.045c0.019,0.091,0.047,0.18,0.065,0.272c0.43,2.184,2.808,3.74,5.009,3.678
	c0.092,0.105,0.165,0.223,0.269,0.319c0.93,0.853,2.228,1.576,3.535,1.464c1.299-0.111,2.419-0.349,3.561-1.008
	c0.413-0.238,0.801-0.53,1.16-0.857c20.632,25.324,52.061,41.502,87.273,41.502c23.8,0,45.87-7.396,64.049-20.006
	c-0.35,1.824,1.839,3.908,3.762,2.701c4.685-2.939,14.909-7.24,19.636-3.213c4.397,3.747,7.163,1.338,12.39,0.162
	c6.159-1.385,12.047,2.933,18.168,0.532c2.661-1.044,5.23-4.245,8.163-4.353c2.55-0.094,4.657,1.481,6.216,3.573
	c0.161,0.721,0.455,1.396,0.893,1.973c0.049,0.143,0.104,0.284,0.152,0.427c0.265,0.793,0.663,1.435,1.144,1.944
	c0.086,0.293,0.214,0.571,0.362,0.84c0.129,0.44,0.24,0.87,0.317,1.272c0.14,0.723,0.842,1.472,1.569,1.695
	c-0.966,1.636-1.675,3.431-2.13,5.409c-0.721,3.132,4.099,4.469,4.822,1.329c0.779-3.383,2.339-5.819,4.966-7.997
	C271.737,252.201,271.314,250.688,270.258,249.823z M54.18,53.234c0.931-2.441,2.018-4.824,3.234-7.135
	c0.57-1.083,2.209-5.023,3.683-6.411c1.134,0.191,2.407-0.372,2.792-1.487c0.896,0.161,4.422-5.177,4.794-7.337
	c1.657-1.015,3.091-2.277,4.278-3.838c0.218-0.14,0.436-0.282,0.658-0.444c0.658-0.482,1.269-1.153,1.873-1.887
	c0.541,0.546,9.487-3.502,12.133-6.899c0.079-0.018,0.158-0.02,0.236-0.049c7.686-2.812,15.771-6.866,23.869-8.277
	c6.781-1.182,13.351,0.819,19.753-2.187c1.823,1.647,3.98,2.045,6.502,2.281c5.195,0.487,9.886,1.202,14.607,3.606
	c3.842,1.957,6.816,4.881,10.238,7.42c1.781,1.321,6.665,3.049,6.665,3.049l11.53,9.398c0,0,1.854,2.844,3.333,4.407
	c2.868,3.034,5.133,6.38,6.984,10.122c0.047,0.095,0.105,0.169,0.158,0.252c0.615,1.674,1.176,3.334,1.714,4.913
	c0.649,1.908,1.075,3.869,1.528,5.822c-4.329-6.207-8.511-12.42-14.389-17.461c-15.141-12.986-35.06-18.713-54.811-18.195
	c-19.441,0.51-41.338,5.612-56.761,18.04c-7.906,6.37-11.385,15.359-17.642,22.935C51.873,60.253,52.86,56.697,54.18,53.234z
	 M65.748,59.414c1.837-2.78,3.789-5.47,6.14-7.861c12.74-12.961,34.288-17.784,51.788-18.59c18.381-0.847,37.579,3.987,51.339,16.74
	c2.227,2.065,4.192,4.331,6.029,6.697c-16.292-9.175-35.096-14.415-55.126-14.415C103.786,41.985,83.15,48.379,65.748,59.414z" class="color c1"/>
</svg>