<svg version="1.1" id="图层_1" x="0px" y="0px" width="59.029px" height="99.193px" viewBox="0 0 59.029 99.193" enable-background="new 0 0 59.029 99.193" xml:space="preserve" xmlns="http://www.w3.org/2000/svg" xmlns:xlink="http://www.w3.org/1999/xlink" xmlns:xml="http://www.w3.org/XML/1998/namespace">
  <path fill="#FB650B" d="M48.244,38.777c0.4-16.324-10.22-30.34-25.068-34.971C23.04,2.247,22.532,0.992,21.747,0
	c0.407,1.299,0.577,2.661,0.486,4.065c11.917,12.009,15.236,30.497,7.962,45.977C22.677,66.045,23.681,77,24.279,83.547
	c0.302,3.298,0.521,5.681-0.505,7.861c-3.091,6.58-12.205,5.183-15.199,4.723C6.139,95.759,3.287,95.126,0,94.234
	c2.763,2.956,6.644,4.848,11.011,4.956c7.128,0.175,13.206-4.453,15.292-10.898c21.542-1.535,32.607-4.237,32.725-9.063
	C59.123,75.39,47.598,65.066,48.244,38.777z" class="color c1"/>
</svg>