<svg version="1.1" id="图层_1" x="0px" y="0px" width="77.185px" height="82.504px" viewBox="0 0 77.185 82.504" enable-background="new 0 0 77.185 82.504" xml:space="preserve" xmlns="http://www.w3.org/2000/svg" xmlns:xlink="http://www.w3.org/1999/xlink" xmlns:xml="http://www.w3.org/XML/1998/namespace">
  <path fill="#008DD2" d="M39.001,9.213c0.008-3.91,3.899-7.077,8.692-7.071c3.417,0.005,6.515,1.646,7.909,4.193
	c0.39,0.714,1.416,1.036,2.292,0.717c0.009-0.003,0.016-0.006,0.025-0.009c1.14-0.437,2.385-0.664,3.645-0.664
	c4.768-0.02,8.653,3.118,8.678,7.009c0.005,0.786-0.15,1.566-0.461,2.311c-8.525-2.551-17.97,1.021-21.096,7.979
	c-0.67,1.492-1.01,3.068-1.004,4.657h3.471c-0.017-5.854,5.785-10.61,12.958-10.624c2.025-0.004,4.023,0.378,5.835,1.117
	c1.023,0.417,1.976,0.941,2.832,1.558c0.112,0.082,0.221,0.161,0.329,0.245c0.307,0.236,0.595,0.484,0.868,0.74
	c0.132,0.123,0.26,0.248,0.386,0.375c0.25,0.256,0.484,0.521,0.702,0.793c0.125,0.156,0.24,0.315,0.348,0.476
	c0.158,0.222,0.303,0.447,0.44,0.678c0.09,0.15,0.186,0.297,0.268,0.452c0.194,0.37,0.362,0.747,0.501,1.133
	c0.049,0.127,0.084,0.26,0.125,0.393c0.097,0.308,0.178,0.62,0.243,0.935c0.026,0.133,0.054,0.266,0.075,0.402
	c0.259,1.527,0.081,3.082-0.521,4.543c-2.208-1.611-5.067-2.505-8.031-2.509v2.833c2.872,0.002,5.558,1.165,7.17,3.104
	c0.042,0.05,0.07,0.103,0.11,0.153c0.237,0.299,0.446,0.615,0.625,0.939c0.064,0.118,0.119,0.24,0.174,0.36
	c0.133,0.285,0.244,0.577,0.332,0.873c0.037,0.124,0.076,0.248,0.106,0.373c0.787,3.29-1.396,6.574-5.207,7.829
	c-0.885,0.301-1.305,1.129-0.938,1.852c0.017,0.034,0.036,0.067,0.056,0.1c1.545,2.452,1.375,5.39-0.442,7.713
	c-2.319,2.464-6.645,2.927-9.664,1.036c-1.246-0.781-2.128-1.885-2.498-3.131c5.77-0.469,10.166-4.428,10.176-9.159h-3.472
	c0,3.52-3.497,6.373-7.811,6.373c-4.313,0-7.81-2.854-7.81-6.373h-3.472c0.01,4.297,3.656,8.019,8.792,8.972
	c0.794,4.643,6.048,7.88,11.737,7.231c0.543-0.062,1.079-0.159,1.603-0.289c0.285,0.812,0.43,1.654,0.433,2.499
	c0,0.312-0.022,0.62-0.058,0.921c-0.013,0.104-0.039,0.203-0.057,0.306c-0.031,0.199-0.063,0.399-0.111,0.594
	c-0.029,0.117-0.068,0.23-0.103,0.345c-0.052,0.176-0.101,0.352-0.166,0.521c-0.044,0.122-0.103,0.239-0.154,0.36
	c-0.069,0.159-0.136,0.318-0.213,0.473c-0.062,0.121-0.134,0.237-0.202,0.355c-0.085,0.141-0.174,0.295-0.258,0.437
	c-0.079,0.12-0.175,0.235-0.252,0.353c-0.078,0.117-0.189,0.265-0.294,0.395c-0.104,0.129-0.203,0.234-0.305,0.349
	c-0.102,0.114-0.208,0.236-0.32,0.348c-0.111,0.114-0.244,0.234-0.368,0.348c-0.125,0.112-0.216,0.199-0.327,0.294
	c-0.143,0.12-0.294,0.235-0.445,0.348c-0.104,0.079-0.207,0.159-0.314,0.234c-0.173,0.122-0.348,0.236-0.539,0.35
	c-0.091,0.056-0.182,0.114-0.275,0.168c-0.212,0.122-0.427,0.237-0.649,0.348l-0.216,0.107c-0.25,0.117-0.506,0.228-0.766,0.329
	l-0.146,0.059c-0.291,0.108-0.587,0.208-0.889,0.3l-0.065,0.018c-1.024,0.296-2.094,0.472-3.179,0.52H57.83
	c-0.202,0.01-0.401,0.026-0.605,0.026c-6.226-0.006-11.271-4.124-11.281-9.206h-3.471c0.009,6.369,6.095,11.63,13.885,12.004v0.035
	c0,3.913-3.885,7.083-8.677,7.083c-4.793,0-8.679-3.17-8.679-7.083V9.213z M5.599,31.168l8.133-1.017
	c0.304-0.98,0.934-1.827,1.787-2.4L7.675,17.666c-0.175,0.069-0.357,0.124-0.54,0.168L3.43,28.952
	C4.393,29.411,5.161,30.196,5.599,31.168z M22.5,5.725v3.552c-2.33,0.812-3.562,3.357-2.75,5.687c0.368,1.059,1.12,1.94,2.108,2.469
	l-4.135,8.27L9.922,15.668c0.52-0.879,0.699-1.918,0.505-2.921l9.899-8.665C20.865,4.841,21.624,5.415,22.5,5.725z M27.579,16.201
	l2.871,2.873c-0.292,0.6-0.446,1.259-0.449,1.927c0,2.486,2.015,4.5,4.5,4.5c0.512-0.004,1.02-0.098,1.5-0.275v9.552
	c-1.354-0.505-2.869-0.311-4.05,0.521l-9.569-4.783c-0.289-1.259-1.104-2.332-2.239-2.946l4.842-9.687
	C26.022,17.648,26.94,17.051,27.579,16.201z M34.502,19.501c0.828,0,1.5,0.67,1.5,1.499c0,0.829-0.672,1.5-1.5,1.5
	c-0.829,0-1.501-0.671-1.501-1.5C33.001,20.172,33.673,19.501,34.502,19.501z M31.225,60.003c-0.536-1.512-1.837-2.624-3.412-2.919
	l-3.901-5.2c0-0.022,0-0.048,0-0.071l11.162-8.371c0.315-0.039,0.626-0.112,0.928-0.218v16.778H31.225z M29.02,78.951l-6.669-2.857
	c0.095-0.355,0.146-0.722,0.15-1.091c0-0.302-0.031-0.603-0.091-0.9l4.327-6.492l4.19,9.43
	C30.111,77.466,29.444,78.135,29.02,78.951z M14.422,72.303l-3.46-3.46c0.667-0.797,1.034-1.801,1.039-2.84
	c0-0.098-0.023-0.192-0.03-0.291l10.904-2.423c0.371,0.844,0.991,1.554,1.778,2.034l-4.028,6.039
	c-1.974-1.446-4.746-1.024-6.202,0.942V72.303z M8.851,61.734L7.65,52.177c1.018-0.41,1.851-1.177,2.342-2.159l5.159,2.059
	c0.571,2.397,2.978,3.878,5.375,3.307c0.608-0.144,1.179-0.415,1.674-0.794l2.362,3.151c-0.899,0.591-1.557,1.484-1.853,2.52
	l-11.944,2.653C10.236,62.365,9.578,61.958,8.851,61.734z M18.001,30.001c0.828,0,1.499,0.672,1.499,1.5
	c0,0.829-0.671,1.5-1.499,1.5c-0.83,0-1.5-0.671-1.5-1.5C16.5,30.673,17.171,30.001,18.001,30.001z M21.932,33.645l8.26,4.13
	c-0.51,1.656,0.016,3.458,1.337,4.581l-8.262,6.197c-0.569-0.863-1.415-1.504-2.4-1.815l-1.229-11.055
	C20.618,35.292,21.43,34.572,21.932,33.645z M19.5,49.502c0.829,0,1.501,0.672,1.501,1.5c0,0.829-0.672,1.499-1.501,1.499
	c-0.827,0-1.499-0.67-1.499-1.499C18.001,50.174,18.673,49.502,19.5,49.502z M27.001,63.003c-0.829,0-1.5-0.672-1.5-1.5
	c0-0.828,0.671-1.499,1.5-1.499c0.828,0,1.5,0.671,1.5,1.499C28.5,62.331,27.829,63.003,27.001,63.003z M34.502,40.502
	c-0.829,0-1.501-0.672-1.501-1.501c0-0.828,0.672-1.5,1.501-1.5c0.828,0,1.5,0.672,1.5,1.5
	C36.001,39.831,35.33,40.502,34.502,40.502z M24.001,12c0.829,0,1.5,0.672,1.5,1.5c0,0.829-0.671,1.5-1.5,1.5s-1.5-0.672-1.5-1.5
	C22.5,12.672,23.172,12,24.001,12z M5.831,34.159l7.995-0.999c0.501,1.243,1.53,2.199,2.807,2.606l1.228,11.056
	c-1.025,0.407-1.865,1.177-2.361,2.165l-5.149-2.058c-0.408-1.651-1.712-2.933-3.371-3.309l-3.336-6.685
	C4.72,36.346,5.51,35.344,5.831,34.159z M6,46.502c0.828,0,1.5,0.672,1.5,1.5c0,0.828-0.672,1.5-1.5,1.5
	c-0.829,0-1.501-0.672-1.501-1.5C4.5,47.174,5.172,46.502,6,46.502z M6,66.003c0-0.828,0.671-1.499,1.5-1.499
	c0.829,0,1.5,0.671,1.5,1.499c0,0.829-0.671,1.5-1.5,1.5C6.672,67.503,6,66.832,6,66.003z M16.5,75.003
	c0-0.827,0.671-1.499,1.5-1.499c0.828,0,1.499,0.672,1.499,1.499c0,0.829-0.671,1.501-1.499,1.501
	C17.171,76.504,16.5,75.832,16.5,75.003z M33.001,82.504c-0.828,0-1.5-0.672-1.5-1.5c0-0.829,0.672-1.499,1.5-1.499
	c0.829,0,1.501,0.67,1.501,1.499C34.502,81.832,33.83,82.504,33.001,82.504z M34.035,76.634l-4.96-11.16
	c1.001-0.523,1.769-1.406,2.15-2.471h4.776v13.501c0.002,0.413,0.028,0.825,0.08,1.236C35.508,77.198,34.802,76.816,34.035,76.634
	L34.035,76.634z M36.001,7.5v9.277c-1.117-0.422-2.36-0.358-3.428,0.176l-4.143-4.144c-0.255-1.625-1.378-2.981-2.93-3.532V5.725
	c1.211-0.428,2.182-1.354,2.667-2.543l8.31,1.188C36.162,5.383,36,6.439,36.001,7.5z M24.001,0c0.829,0,1.5,0.672,1.5,1.5
	c0,0.829-0.671,1.501-1.5,1.501S22.5,2.329,22.5,1.5C22.5,0.672,23.172,0,24.001,0z M6,12c0.828,0,1.5,0.672,1.5,1.5
	c0,0.829-0.672,1.5-1.5,1.5c-0.829,0-1.501-0.672-1.501-1.5C4.5,12.672,5.172,12,6,12z M1.5,31.501c0.829,0,1.5,0.672,1.5,1.5
	c0,0.829-0.671,1.5-1.5,1.5c-0.828,0-1.5-0.672-1.5-1.5C0,32.173,0.671,31.501,1.5,31.501z" class="color c1"/>
</svg>