<svg version="1.1" id="图层_1" x="0px" y="0px" width="118.961px" height="165.044px" viewBox="0 0 118.961 165.044" enable-background="new 0 0 118.961 165.044" xml:space="preserve" xmlns="http://www.w3.org/2000/svg" xmlns:xlink="http://www.w3.org/1999/xlink" xmlns:xml="http://www.w3.org/XML/1998/namespace">
  <path fill="#0A0A0A" d="M59.48,36.316c-1.991,0-3.96,0.094-5.908,0.262v-3.875c0,0-2.145-0.454-8.114,2.53
	c6.088-9.809,11.549-26.827,14.006-35.12V0c0.006,0.019,0.012,0.037,0.017,0.057c0.006-0.02,0.012-0.038,0.019-0.057v0.113
	c2.456,8.293,7.916,25.312,14.005,35.12c-5.971-2.984-8.115-2.53-8.115-2.53v3.874C63.441,36.406,61.472,36.316,59.48,36.316z
	 M65.389,120.092c4.042,1.154,19.613,9.162,20.425,8.777c0.813-0.386-2.18-28.568,33.147-84.835
	c-13.316,6.224-36.78,19.754-36.381,20.604c0.397,0.853,9.795-1.069,9.795-1.069s-16.01,30.427-17.134,44.794
	c-2.734-1.216-6.61-2.75-9.853-3.307v-53.9c-1.939-0.215-3.911-0.327-5.908-0.327s-3.967,0.12-5.908,0.333v53.895
	c-3.242,0.557-7.117,2.091-9.852,3.307c-1.125-14.367-17.135-44.794-17.135-44.794s9.397,1.922,9.795,1.069
	c0.4-0.85-23.064-14.38-36.381-20.604c35.327,56.267,32.335,84.449,33.148,84.835c0.811,0.385,16.382-7.623,20.424-8.777v44.952
	h11.816V120.092z" class="color c1"/>
</svg>