<svg version="1.1" id="图层_1" x="0px" y="0px" width="141.41px" height="143.668px" viewBox="0 0 141.41 143.668" enable-background="new 0 0 141.41 143.668" xml:space="preserve" xmlns="http://www.w3.org/2000/svg" xmlns:xlink="http://www.w3.org/1999/xlink" xmlns:xml="http://www.w3.org/XML/1998/namespace">
  <path fill="#FFFFFF" d="M110.374,105.491c-8.837,14.633-22.353,24.703-37.474,29.467c23.188,0.33,45.929-11.312,58.783-32.595
	c19.266-31.897,9.023-73.371-22.877-92.64C91.544-0.705,71.475-2.481,53.64,3.13c11.566,0.167,23.243,3.306,33.861,9.717
	C119.398,32.113,129.641,73.588,110.374,105.491z" class="color c1"/>
  <path fill="#FFFFFF" d="M25.058,36.459c27.013-14.236,60.448-3.878,74.684,23.133c6.531,12.391,7.883,26.132,4.828,38.759
	c10.037-16.134,11.49-37.013,1.992-55.036C92.326,16.306,58.89,5.951,31.878,20.185C17.26,27.889,7.522,41.22,3.919,56.11
	C8.926,48.063,16.068,41.198,25.058,36.459z" class="color c1"/>
  <path fill="#FFFFFF" d="M8.808,97.118c3.896-27.325,29.204-46.319,56.529-42.425c12.536,1.788,23.317,8.081,30.94,17.012
	c-6.491-15.902-21.012-28.032-39.241-30.633C29.71,37.178,4.401,56.172,0.507,83.497c-2.109,14.791,2.492,28.988,11.484,39.521
	C8.753,115.083,7.512,106.215,8.808,97.118z" class="color c1"/>
  <path fill="#FFFFFF" d="M58.806,67.563c-12.995-2.084-26.721,2.593-35.681,13.491c-13.433,16.34-11.076,40.471,5.262,53.903
	c8.841,7.27,19.968,9.912,30.444,8.217c-6.483-1.038-12.785-3.758-18.221-8.229c-16.338-13.432-18.693-37.563-5.263-53.901
	C41.51,73.547,49.924,68.998,58.806,67.563z" class="color c1"/>
</svg>