<svg version="1.1" id="图层_1" x="0px" y="0px" width="188.838px" height="190px" viewBox="0 0 188.838 190" enable-background="new 0 0 188.838 190" xml:space="preserve" xmlns="http://www.w3.org/2000/svg" xmlns:xlink="http://www.w3.org/1999/xlink" xmlns:xml="http://www.w3.org/XML/1998/namespace">
  <path fill="#E2B55A" d="M11.494,112.859c4.598,16.094,13.794,27.589,25.288,39.084c6.897,4.648,13.794,9.246,20.743,13.846
	c11.495,4.597,22.989,4.597,34.483,6.896c9.197,0,18.392-4.65,27.587-6.896c11.494-4.6,20.691-11.495,27.586-20.742
	c9.197-9.145,13.795-20.691,16.094-34.484c6.896-36.784-22.987-73.565-59.823-71.268c-6.897,0-13.793,4.598-20.69,6.897
	C73.565,50.79,66.669,57.687,62.07,64.583c-6.896,11.495-6.896,22.99-2.298,34.483c4.597,6.896,6.896,13.793,13.793,18.393
	c11.547,4.65,27.57,6.835,36.765-4.712c6.926-13.376-25.265-21.419-25.265-21.419s16.523,11.016,11.103,17.048
	c-5.421,6.032-18.004-2.412-24.901-9.31c-2.299-4.596-4.598-11.493-4.598-16.092c0-9.196,6.896-16.093,11.495-22.989
	c4.598-4.598,11.494-6.897,18.442-9.196c11.496-2.298,20.69,0,29.886,4.598c13.795,6.897,20.688,16.092,25.235,29.833
	c2.299,18.444,2.299,41.432-13.795,55.227c-9.195,9.195-20.688,16.093-34.481,18.392c-6.897,0-16.092,0-22.989,0
	c-9.196-2.299-18.393-6.896-27.588-11.493c-13.793-9.197-22.989-22.99-27.587-39.082c-2.299-13.794-2.299-27.588,0-41.383
	c2.299-9.195,6.897-18.391,13.794-27.587C52.875,23.151,68.968,14.007,89.658,9.409c43.731-6.897,82.813,20.69,98.907,59.772
	c-2.301-9.195-6.898-18.392-11.496-25.288c-11.494-11.495-20.689-22.989-34.484-32.186c-32.184-18.39-69.02-13.792-101.204,4.599
	C18.392,32.398,6.896,57.687,9.195,85.273C9.195,94.471,6.896,103.717,11.494,112.859z" class="color c1"/>
  <path fill="#333333" d="M142.584,23.151c-16.092-6.897-34.481-9.196-52.926-6.897c-11.494,4.598-22.989,6.897-32.186,16.092
	C41.381,46.14,32.186,64.531,32.186,85.221c0,13.845,4.597,25.341,11.494,36.835c6.896,6.896,13.793,13.793,22.989,18.392
	c9.195,4.599,20.69,6.897,32.186,4.599c11.547-4.547,25.287-9.145,32.235-20.691c4.599-6.896,6.897-16.092,6.897-25.287
	c0-20.69-20.69-36.783-41.381-32.187c-8.87,2.419-13.78,5.116-12.066,13.431c1.749,8.48,28.24,13.638,28.24,13.638
	s-12.197-11.989-8.045-15.212c4.152-3.223,12.563,6.535,17.16,8.834c4.598,4.597,2.299,11.493,4.598,18.391
	c0,11.495-9.195,22.989-20.742,27.536c-11.495,4.648-25.288,4.648-36.783-2.248c-11.495-6.896-18.392-13.793-22.989-25.288
	c-11.494-29.886,6.896-66.669,38.507-76.805c9.771-2.351,19.123-3.135,28.423-2.038c18.182,0.679,31.977,12.174,45.77,23.668
	c11.494,11.495,13.793,25.289,16.092,39.03c2.299,11.496,0,22.99-4.598,34.483c-6.896,16.146-16.092,29.939-29.885,41.435
	c-11.496,6.896-22.99,11.494-36.783,13.793c-11.546,2.299-23.042,0-34.537-2.299C23.042,165.789-6.897,117.459,4.598,71.48
	C2.299,80.676,0,87.573,0,96.77c2.299,32.185,18.392,62.123,48.277,80.515c27.64,16.094,62.125,16.094,89.71,4.598
	c18.392-9.194,34.482-25.288,43.679-45.979C200.06,94.471,181.667,43.893,142.584,23.151z" class="color c2"/>
</svg>