<svg version="1.1" id="图层_1" x="0px" y="0px" width="267.619px" height="285.875px" viewBox="0 0 267.619 285.875" enable-background="new 0 0 267.619 285.875" xml:space="preserve" xmlns="http://www.w3.org/2000/svg" xmlns:xlink="http://www.w3.org/1999/xlink" xmlns:xml="http://www.w3.org/XML/1998/namespace">
  <path fill="#F5BE71" d="M129.782,285.875c-28.685,0-56.198-8.705-79.565-25.173c-22.845-16.101-40.098-38.381-49.896-64.434
	c-0.972-2.585,0.335-5.468,2.92-6.439c2.584-0.977,5.467,0.336,6.44,2.92c18.698,49.72,66.962,83.126,120.101,83.126
	c52.829,0,99.612-31.701,119.185-80.763c1.023-2.564,3.932-3.816,6.497-2.792c2.565,1.023,3.814,3.933,2.791,6.497
	c-10.132,25.397-27.426,47.063-50.012,62.655C185.117,277.436,157.986,285.875,129.782,285.875z M263.018,132.429
	c2.753-0.221,4.805-2.632,4.584-5.384c-2.775-34.526-18.343-66.556-43.834-90.191C198.136,13.088,164.758,0,129.782,0
	c-6.371,0-12.778,0.438-19.044,1.301c-2.735,0.377-4.647,2.9-4.271,5.636c0.376,2.734,2.896,4.648,5.636,4.271
	C117.918,10.406,123.866,10,129.782,10c66.382,0,122.541,51.764,127.852,117.845c0.211,2.617,2.399,4.6,4.979,4.6
	C262.747,132.445,262.883,132.44,263.018,132.429z" class="color c1"/>
</svg>