<svg version="1.1" id="图层_1" x="0px" y="0px" width="57.018px" height="147.279px" viewBox="0 0 57.018 147.279" enable-background="new 0 0 57.018 147.279" xml:space="preserve" xmlns="http://www.w3.org/2000/svg" xmlns:xlink="http://www.w3.org/1999/xlink" xmlns:xml="http://www.w3.org/XML/1998/namespace">
  <path fill="#FFFFFF" d="M7.682,56.859H0V41.713v-3.065V28.413C0,17.432,6.25,7.899,15.373,3.139
	c3.088,1.031,5.836,2.803,8.041,5.105C14.391,10.526,7.682,18.689,7.682,28.413v10.234v3.065V56.859z M49.336,119.215
	c0,7.435-3.93,13.955-9.807,17.641c-0.332,3.394-1.236,6.614-2.59,9.595c11.619-3.604,20.078-14.45,20.078-27.235v-7.685h-7.682
	V119.215z M30.369,0c2.756,2.672,5,5.857,6.6,9.401c7.277,3.249,12.367,10.541,12.367,19.012v50.068H7.682v-0.058H0v12.293v12.606
	v10.754v4.926v0.212c0,14.063,10.244,25.749,23.658,28.064c1.908-2.067,3.387-4.532,4.281-7.267
	c-11.221-0.305-20.258-9.505-20.258-20.798v-0.212v-4.926v-10.754V90.995v-4.832h41.654v0.003h7.682V28.413
	C57.018,13.322,45.221,0.967,30.369,0z" class="color c1"/>
</svg>