<svg version="1.1" id="图层_1" x="0px" y="0px" width="157.575px" height="139.708px" viewBox="0 0 157.575 139.708" enable-background="new 0 0 157.575 139.708" xml:space="preserve" xmlns="http://www.w3.org/2000/svg" xmlns:xlink="http://www.w3.org/1999/xlink" xmlns:xml="http://www.w3.org/XML/1998/namespace">
  <g>
    <path fill="#FFFFFF" d="M146.73,21.615c-7.889-2.152-20.03,8.641-24.995,26.867c-3.986,14.605,9.04,19.733,8.019,23.486
		c-0.803,2.962-1.631,5.821-2.473,8.596c-0.82,2.741-0.568,3.053-2.856,9.266c-8.209,22.306-43.353,17.042-45.671-1.835
		c-0.218-1.814-0.173-3.38-0.273-4.693c-0.122-3.747,0.229-1.25,0.229-5.449c0-5.94,7.006-2.334,7.006-24.323
		C85.715,31.111,82.972,0,71.845,0c0,16.611-1.342,39.92-1.342,61.402c0,9.232,2.346,11.633,2.346,15.958
		c0,2.161-0.029,4.261-0.071,6.325c-1.574,10.24-9.326,17.015-20.745,16.456c-11.125-0.546-18.298-7.579-22.341-17.115
		c-1.083-3.465-2.159-7.092-3.206-10.895c-1.475-5.349,4.181-4.884,5.063-12.553C32.33,52.732,19.122,18.5,17.994,18.813
		c-1.29,0.354,7.264,28.915,4.816,29.589c-2.464,0.679-9.028-28.013-10.692-27.968c-1.672,0.039,7.506,28.848,4.618,29.644
		C13.822,50.883,7.798,21.621,6.238,22.05c-1.563,0.43,6.798,29.049,4.423,29.706C8.037,52.474,1.527,23.351,0.354,23.672
		c-1.979,0.546,4.845,34.415,7.901,40.664c3.049,6.253,10.143,3.476,11.918,9.92c1.425,5.168,2.626,10.036,3.663,14.642
		l6.387,35.664c0.601,3.769,1.197,7.246,1.87,10.474l0.57,3.194c0.048-0.016,0.097-0.023,0.143-0.042
		c5.337-1.698,10.487-3.047,15.438-4.104c7.331-1.567,14.224-2.489,20.627-2.925c4.681-0.326,9.103-0.393,13.249-0.265
		c10.404,0.321,19.044,1.845,25.631,3.536c9.551,2.464,14.781,5.278,14.781,5.278l4.836-25.354l2.948-15.479l0.333-1.942
		c1.488-7.214,3.271-14.962,5.52-23.213c1.236-4.547,15.099-0.473,19.34-16.032C160.813,38.218,155.186,23.914,146.73,21.615z" class="color c1"/>
  </g>
</svg>