<svg version="1.1" id="图层_1" x="0px" y="0px" width="63.28px" height="63.279px" viewBox="0 0 63.28 63.279" enable-background="new 0 0 63.28 63.279" xml:space="preserve" xmlns="http://www.w3.org/2000/svg" xmlns:xlink="http://www.w3.org/1999/xlink" xmlns:xml="http://www.w3.org/XML/1998/namespace">
  <g>
    <g>
      <path fill="#FFFFFF" d="M31.641,63.279c17.248,0,31.64-14.392,31.64-31.64C63.28,14.394,48.889,0,31.641,0
			C14.392,0,0,14.394,0,31.64C0,48.888,14.392,63.279,31.641,63.279L31.641,63.279z" class="color c1"/>
    </g>
    <g>
      <path fill="#020202" d="M31.641,49.217c22.669,0,22.669-35.154,0-35.154S8.972,49.217,31.641,49.217L31.641,49.217z" class="color c2"/>
    </g>
    <g>
      <path fill="#343434" d="M31.641,42.368c13.835,0,13.835-21.456,0-21.456C17.805,20.912,17.805,42.368,31.641,42.368L31.641,42.368
			z" class="color c3"/>
    </g>
    <g>
      <path fill="#FFFFFF" d="M37.992,29.233c5.366,0,5.366-8.321,0-8.321S32.626,29.233,37.992,29.233L37.992,29.233z" class="color c1"/>
    </g>
  </g>
</svg>