<svg version="1.1" id="图层_1" x="0px" y="0px" width="176.33px" height="180px" viewBox="0 0 176.33 180" enable-background="new 0 0 176.33 180" xml:space="preserve" xmlns="http://www.w3.org/2000/svg" xmlns:xlink="http://www.w3.org/1999/xlink" xmlns:xml="http://www.w3.org/XML/1998/namespace">
  <path fill="#EEA83A" d="M132.997,144.832c-14.416-6.323-38.037-13.428-38.167-13.5c-1.513-0.825-5.36,2.03-6.813,1.128
	C61.48,115.973,45.211,86.889,45.211,55.354c0-0.93,0.058-1.956,0.117-3.041c0.071-1.283,0.146-2.609,0.146-4.039V35.31
	l-12.146,4.532C15.65,46.437,5.853,50.922,5.443,51.109L0,53.61l0.206,5.985c0.83,24.187,7.999,47.752,20.733,68.148
	c12.821,20.536,30.973,37.336,52.492,48.586c4.604,2.469,9.414,3.67,14.702,3.67c5.456,0,10.602-1.305,14.891-3.771
	c7.202-3.912,13.504-8.314,18.724-12.109l11.783-9.223L132.997,144.832z" class="color c1"/>
  <path fill="#33AF49" d="M144.592,42.958c-0.54-14.608-3.164-29.695-3.275-30.33l-1.027-5.857l-5.79-1.352
	C119.108,1.823,103.35,0.001,87.662,0C65.211,0,43.285,3.677,22.494,10.93l-0.022,0.008l-0.023,0.008
	C11.032,14.997,3.044,24.835,1.586,36.629c-0.932,6.847-1.385,12.887-1.385,18.463v0.262L1.101,69.4l11.861-5.87
	c11.92-5.483,25.42-10.385,26.927-10.928c15.227-4.845,31.2-7.301,47.484-7.302c15.467,0,30.831,2.228,45.671,6.62l12.011,3.555
	L144.592,42.958z" class="color c2"/>
  <path fill="#15AEDC" d="M176.321,55.224c-0.084-1.917-0.142-3.889-0.197-5.795c-0.119-4.053-0.242-8.243-0.622-12.234l-0.012-0.133
	l-0.017-0.132C174,25.15,165.85,15.153,154.642,11.306c-1.396-0.587-3.389-1.193-6.664-2.173c-1.905-0.569-6.686-1.972-9.903-2.687
	l-13.74-3.053l2.993,13.752c1.566,7.194,2.531,16.282,2.949,27.783l0.005,0.157l0.012,0.156c0.239,3.352,0.239,6.763,0.239,10.374
	c0,34.062-15.001,61.344-42.261,76.986c1.374,0.847,2.766,1.671,4.193,2.448c0.13,0.072,13.189,7.225,27.605,13.547l13.347,6.246
	c12.116-11.422,22.183-25.097,29.398-40.05c8.967-18.583,13.515-38.493,13.515-59.178V55.42L176.321,55.224z" class="color c3"/>
</svg>