<svg version="1.1" id="图层_1" x="0px" y="0px" width="345.52px" height="252.882px" viewBox="0 0 345.52 252.882" enable-background="new 0 0 345.52 252.882" xml:space="preserve" xmlns="http://www.w3.org/2000/svg" xmlns:xlink="http://www.w3.org/1999/xlink" xmlns:xml="http://www.w3.org/XML/1998/namespace">
  <path fill-rule="evenodd" clip-rule="evenodd" fill="#FFD285" d="M1.162,116.19c0.004-0.002,0.008-0.002,0.013-0.004
	c0.009,0.004,0.017,0.006,0.024,0.011L1.162,116.19z M270.261,12.35c-0.02-0.013-0.041-0.026-0.064-0.042
	c-0.014,0.01-0.027,0.019-0.043,0.028c0.012,0.014,0.021,0.027,0.033,0.039C270.212,12.366,270.236,12.358,270.261,12.35z
	 M106.895,49.328c-0.008,0.009-0.018,0.016-0.026,0.024C106.876,49.384,106.895,49.328,106.895,49.328z M79.171,133.154
	c0.034-0.006,0.048-0.046,0.083-0.101l-0.09,0.074c-0.002-0.004-0.005-0.008-0.009-0.014c-0.006,0.014-0.013,0.025-0.02,0.037
	C79.154,133.157,79.164,133.157,79.171,133.154z M274.695,17.443c-0.016-0.094-0.158-0.459-0.451-1.596
	c-0.051-0.196-0.393-0.345-0.574-0.398c-0.113-0.034-0.402,1.011-0.24,1.384c0.215,0.484-0.549,1.034,0.039,1.367
	c0.35,0.198,0.43-0.38,0.721-0.65c0.275-0.258,0.455-0.082,0.496-0.08c-0.004,0.023,0.014,0.009,0.051-0.026
	c-0.012-0.01-0.021-0.019-0.033-0.027C274.699,17.43,274.697,17.435,274.695,17.443z M270.661,6.473
	c0.875-0.996,0.404-1.96,0.838-2.71c1.527,0.139,0.773,0.22,1.947-0.616c0.201-0.144,0.562,0.072,0.559,0.271
	c-0.02,1.162-0.156,0.702,0.002,2.118c1.459,0.32,1.66,0.601,2.107,0.032c0.488-0.619,0.402-0.655,1.256-0.407
	c0.713,1.055,1.025,2.063,0.334,3.187c-0.475,0.769,0.695,0.965-0.697,1.684c-0.73,0.379-1.006,1.168,0.062,2.176
	c0.803,0.756,0.951-0.545,2.059-0.256c0.236,0.062,0.5,0.02,0.756,0.025c0.289,0.431,0.631,0.822,0.83,1.274
	c0.582,1.316,2.365,0.214-1.047,2.249c-1.633,0.076-2.252,0.218-2.818-0.316c-2.396-2.263-4.043-0.013-4.104-3.319
	c-0.016-0.859-0.596-2.354-1.012-2.33c-0.602,0.037-0.922-0.295-1.234-0.739C270.132,8.275,269.138,8.209,270.661,6.473z
	 M273.3,9.54c0.219,0.421,0.09,0.835,0.096,1.255c0,0.048,0.17,0.092,0.273,0.145c0.262-0.261,0.633-0.398,0.762-0.798
	C274.749,9.143,273.019,8.996,273.3,9.54z M253.183,7.355c0.014-0.115-0.088-0.289-0.154-0.301
	c-1.004-0.192-1.781-0.448-1.598,0.313C251.609,8.112,253.019,8.687,253.183,7.355z M211.097,19.417
	c1.863-0.846,0.229-1.584-1.146-0.777c-0.202,0.121,0.045,0.294,0.293,0.583C210.481,19.499,210.766,19.568,211.097,19.417z
	 M208.741,19.662c0.374-0.351,0.63-0.998,0.098-0.954C206.571,18.9,208.191,20.174,208.741,19.662z M248.185,8.415
	c-0.258-0.056-2.146,1.005-1.695,1.363C246.849,10.065,248.298,8.851,248.185,8.415z M26.435,152.956
	c0.328-0.137,1.001-1.021,0.657-1.038C25.482,151.831,25.997,153.14,26.435,152.956z M271.689,2.121
	c0.131,0.011,0.465-0.413,0.254-0.528c-0.496-0.271-1.193-0.247-1.195-0.033c0,0.105,0.004,0.285,0.059,0.307
	C271.091,1.98,271.388,2.094,271.689,2.121z M263.116,4.542c0.361-0.175,0.537-0.622,0.119-0.834
	C262.161,3.165,262.593,4.798,263.116,4.542z M95.099,47.491c0.696-0.134,1.143-0.159,1.611-0.649
	C96.12,47.003,95.701,47.11,95.099,47.491z M32.547,72.385c0.184-0.084,1.201-0.553,0.98-0.463c-0.022-0.63-0.893-0.49-1.318-0.045
	C31.968,72.13,32.169,72.558,32.547,72.385z M266.142,0.057c-0.115-0.172-0.943,0.041-0.688,0.701
	C265.689,1.359,266.396,0.435,266.142,0.057z M255.945,19.298c0.354,0.212,0.564-0.013,0.471-0.156
	C256.193,18.811,255.652,19.122,255.945,19.298z M5.016,105.938c-0.014,0.009-0.025,0.016-0.039,0.025
	C5.031,105.999,5.032,105.984,5.016,105.938z M6.08,105.1c-0.034-0.148-0.679,0.079-0.82,0.133c-0.476,0.188-0.29,0.575-0.244,0.705
	C6.006,105.303,6.124,105.293,6.08,105.1z M230.103,16.186c-0.051-0.359,0.385-0.418,0.443-0.698
	c0.088-0.41-0.812-0.364-0.609,0.268C229.958,15.821,230.068,16.081,230.103,16.186z M238.552,9.641l0.115-0.011
	C238.736,9.557,238.773,9.547,238.552,9.641z M29.401,151.289c-0.763-0.116-0.837,0.229-0.583,0.292
	C28.995,151.625,29.039,151.543,29.401,151.289z M189.52,23.791c0.174-0.04,0.26-0.279,0.281-0.429
	c0.029-0.198-0.457-0.249-0.715,0.136C189.024,23.588,189.37,23.826,189.52,23.791z M158.841,35.313l0.061,0.018
	C159.802,36.097,160.843,34.367,158.841,35.313z M1.162,116.19c-0.008,0.002-0.015,0.005-0.023,0.009
	C1.199,116.2,1.22,116.2,1.162,116.19z M0.691,116.397c0,0,0.06-0.051,0.449-0.198C0.967,116.198,0.479,116.191,0.691,116.397z
	 M4.958,105.974c0.016,0.002,0.028,0.004,0.043,0.005C5,105.979,5,105.968,4.958,105.974z M4.289,105.999
	c-0.178,0.132-0.065,0.297,0.183,0.175c0.302-0.149,0.432-0.191,0.486-0.2C4.496,105.915,4.447,105.883,4.289,105.999z
	 M58.418,55.609c-0.12,0.398-0.062,0.319,0.063,0.369C58.603,55.575,58.543,55.654,58.418,55.609z M254.503,0.354
	c-0.15,0.035-0.211,0.123-0.185,0.256C254.601,0.89,254.964,0.243,254.503,0.354z M301.97,62.806c0.338,0.05,0.33-0.314,0.035-0.435
	C301.734,62.257,301.591,62.747,301.97,62.806z M158.841,35.315L158.841,35.315c0.002,0.001,0.004,0,0.005,0.001
	C158.844,35.316,158.841,35.315,158.841,35.315z M158.841,35.315c-0.041-0.012-0.082-0.023-0.119-0.015
	C158.292,35.391,158.959,35.776,158.841,35.315z M158.846,35.316c0.018,0.006,0.037,0.011,0.056,0.015
	C158.902,35.33,158.853,35.317,158.846,35.316z M197.12,21.927c-0.192-0.041-0.163-0.065-0.134,0.102L197.12,21.927z M54.847,57.744
	l0.168,0.016C54.966,57.596,55.004,57.601,54.847,57.744z M24.431,76.754l-0.108,0.071C24.472,76.843,24.451,76.859,24.431,76.754z
	 M69.181,51.566c-0.158-0.051-0.109-0.059-0.241,0.047C69.105,51.666,69.04,51.682,69.181,51.566z M224.423,15.847
	c0.205-0.09-0.021-0.289-0.162-0.127C224.216,15.77,224.304,15.897,224.423,15.847z M226.654,15.349
	c-0.109-0.13-0.256,0.026-0.389,0.13C226.497,15.672,226.751,15.466,226.654,15.349z M8.685,104.879c-0.035,0-0.105,0.119-0.1,0.123
	c0.17,0.17,0.269-0.044,0.402-0.083C8.92,104.909,8.782,104.88,8.685,104.879z M19.273,156.947c0.056-0.029,0.14-0.079,0.2-0.108
	C19.171,156.793,19.205,156.768,19.273,156.947z M19.473,156.839c0.028,0.004,0.054,0.009,0.087,0.013
	C19.576,156.804,19.533,156.812,19.473,156.839z M259.814,3.97l-0.125,0.002C259.785,4.131,259.755,4.135,259.814,3.97z
	 M271.343,17.934c0.211,0.045,0.289-0.223,0.037-0.188C271.288,17.761,271.251,17.915,271.343,17.934z M293.812,43.624l-0.018,0.14
	C293.939,43.718,293.931,43.751,293.812,43.624z M39.768,148.269c-0.027,0.025-0.055,0.051-0.083,0.076
	C39.743,148.32,39.785,148.292,39.768,148.269z M39.685,148.345c-0.087,0.037-0.214,0.066-0.27,0.062
	C39.53,148.458,39.61,148.412,39.685,148.345z M227.99,15.096c-0.008,0.012-0.02,0.022-0.033,0.032
	c0.006,0.006,0.008,0.012,0.008,0.017L227.99,15.096z M227.956,15.128c-0.072-0.172-0.164-0.333-0.246-0.005
	C227.695,15.185,227.859,15.206,227.956,15.128z M227.964,15.145c0.014-0.005,0.021-0.006,0.035-0.01
	C227.997,15.09,228.003,15.072,227.964,15.145z M228.156,15.237c0.016-0.108-0.043-0.14-0.156-0.102
	c0.002,0.029,0.008,0.071,0.039,0.107C228.054,15.261,228.156,15.246,228.156,15.237z M270.536,12.192
	c-0.006,0.026-0.014,0.048-0.021,0.07c0.021-0.009,0.049-0.017,0.072-0.026L270.536,12.192z M270.515,12.262
	c-0.086,0.029-0.168,0.058-0.254,0.088C270.425,12.46,270.451,12.449,270.515,12.262z M34.297,71.718
	c-0.273-0.081-0.496,0.061-0.729,0.183C33.545,71.933,34.167,71.726,34.297,71.718z M109.729,49.82
	c0.428,0.074,0.448-0.618,0.424-1.076c-0.047-0.909-2.483,0.217-3.287,0.633C106.913,49.298,109.633,49.804,109.729,49.82z
	 M96.614,53.002c-0.028,0.124,0.059,0.48,0.188,0.486c0.594,0.024,0.383-0.664,0.897-1.207c0.156-0.164-0.095-1.25-1.013-0.659
	C96.216,51.926,96.851,51.983,96.614,53.002z M91.742,54.377c0.214-0.144-0.023-1.034-0.927-0.989
	C90.161,53.423,91.28,54.685,91.742,54.377z M96.141,55.151c1.435-0.048,1.093-0.836-0.044-0.434
	C96,54.75,95.962,55.157,96.141,55.151z M92.321,52.98c0.107-0.035,0.098-0.195-0.012-0.191
	C92.124,52.794,92.053,53.066,92.321,52.98z M339.318,96.972c0.008,0.014,0.016,0.027,0.023,0.04c0.002,0,0.006-0.001,0.008-0.002
	L339.318,96.972z M343.386,105.483c-1.268,0.466-0.225,1.238-2.461,2.123c-2.146,0.846-1.287,1.733-0.881,1.535
	c0.881-0.428,1.861-0.403,2.777-0.658c0.232-0.065,0.297,0.332,0.195,0.478c-0.982,1.418-2.703,0.994-2.279,1.816
	c0.279,0.537,0.918,1.104,0.258,1.549c-0.957,0.646-6.059,3.831-6.066,3.837c-1.084,0.623-0.914,2.083-0.227,1.84
	c2.299-0.812,2.057-0.837,2.492-0.756c0.508,0.095-2.1,2.576-2.797,3.022c-0.172,0.112-0.477,0.499-0.377,0.736
	c0.324,0.763,2.998-1.494,5.943-2.311c-0.662,1.788,0.031,1.227,0.799,0.722c0.861-0.572,2.174-0.195,1.783,0.566
	c-1.023,1.998-1.736,1.345-2.031,2.919c0.402-0.155,0.801-0.327,1.215-0.453c0.119-0.036,0.461,0.211,0.336,0.387
	c-0.539,0.778-0.664-0.221-1.529,0.06c-0.355,0.456-0.273,0.999-0.266,1.542c-0.625,0.967-1.922,1.447-3.133,2.841
	c-0.103,0.12-0.279,0.779-0.156,0.854c0.498,0.303,0.293,0.093,1.4-0.276c0.279-0.094,0.557,0.161,0.438,0.541
	c-0.359,1.127-0.598,0.938-1.207,1.545c-0.525,0.525-0.146,1.571,0.334,1.403c3.004-1.04-0.107,0.942-1.703,2.789
	c-0.49,0.567-2.688,2.724-3.119,2.881c-1.197,0.444-0.578,1.58-1.639,2.019c-0.703,0.293-1.666,1.479-1.666,1.479
	c-0.217-0.297-0.719-1.109-0.926-0.733c-0.393,0.717-0.07,0.745,0.117,1.708c0.188,0.962-0.604,0.707,0.156,1.912
	c0.127,0.197-0.098,0.373-0.246,0.548c-0.678,0.799,0.365,1.143,0.717,0.987c2.467-1.094,3.738-2.688,5.522-2.804
	c0.15-0.009,0.242,0.209,0.185,0.326c-0.271,0.565-0.229,0.27-1.252,0.823c-1.213,0.657-0.842,1.472-2.631,1.934
	c-0.644,0.167-1.373,1.105-1.957,1.43c-0.895,0.493-2.266,0.333-3.072,1.844c-0.887,0.855-0.736,1.523-2.465,2.202
	c-1.107,0.437-7.008,3.396-7.44,3.651c-2.551,1.512-4.363,0.614-5.18,1.864c-0.637,0.967-1.76,1.394-2.482,2.255
	c-1.154,1.38-3.174,1.705-2.791,2.274c0.258,0.386,1.602-0.361,1.803-0.503c1.002-0.705,2.244-0.782,3.305-1.343
	c0.356-0.187,0.818-0.339,1.273-0.181c-0.182,0.75-5.668,3.394-10.061,4.813c-0.797,1.384-0.871,1.773-1.59,1.543
	c-0.27-0.087-1-0.45-1.748-0.287c-3.893,0.84-4.935,1.174-6.215,2.355c-1.34,1.237-1.129,0.418-2.074,1.206
	c-1.617,1.35-0.813,0.725-0.832,1.71c-0.004,0.152-0.256,0.335-0.432,0.428c-0.086,0.042-0.285-0.065-0.387-0.158
	c-0.357-0.321-0.188-1.04-1.053-1.002c-2.281,0.1-2.682,1.304-3.148,1.454c0.268,0.084-2.936-0.068-2.881-1.127
	c0.041-0.825,0.709-1.585,0.572-2.412c-0.078-0.489,1.334-1.255-0.074-1.713c-1.035-0.337-0.248-0.556-0.264-0.891
	c-0.012-0.248,0.049-0.883-0.602-0.669c-0.59,0.197-2.148,1.084-2.354-0.822c-0.055-0.487,0.328-1.021,0.654-1.381
	c0.639-0.707,0.684-0.206,2.758-0.178c1.182,0.648,1.103,3.233,5.826,0.784c1.404-0.728,0.949-0.003,2.299-0.557
	c0.496-0.203,0.312-1.423-0.508-1.112c-1.191,0.451,0.312,0.822-2.685,0.401c1.596-3.287,1.822-2.642,4.334-2.367
	c-0.027,0.015-0.055,0.026-0.076,0.029c0,0,0.139-0.023,0.146-0.022c-0.027-0.003-0.049-0.004-0.07-0.007
	c0.299-0.172,0.768-1.122,1.176-0.756c0.307,0.278,0.574,1.192,1.346,0.946c1.137-0.363,0.967-0.844,2.666-0.991
	c0.41-0.037,1.969-0.466,1.533-1.193c-0.352-0.596-0.533,0.028-0.359-2.085c-1.119-0.269-1.188,0.633-2.096,0.454
	c-0.496-0.097-1.043,0.106-1.551,0.044c-0.896-0.108-1.023,0.503-1.578,1.347c-0.818,0.098-1.565,0.521-2.418,0.416
	c-0.314-0.038-0.535,0.219-0.791,0.369c-3.586,2.122-1.48-2.047-4.275,0.22c-0.621,0.503-0.836-0.027-1.689-0.013
	c-0.51,0.009-0.992,0.561-1.494,0.22c-0.482-0.329-0.996-0.268-1.578-0.317c0.346-3.137-0.729-2.461-0.801-2.107
	c-0.25,1.304-1.775,0.531-1.986,0.644c-0.219,0.115-0.291,0.5-0.457,0.75c-0.08,0.119-0.213,0.207-0.338,0.282
	c-0.877,0.539-0.057,0.194-1.352,2.273c-0.232,0.378,0.51,0.715-0.842,0.941c-1.207,0.204-0.902,1.383-2.533,1.174
	c-2.803-0.361-1.975-0.594-2.77,0.309c-0.324,0.369-0.998-0.596-0.432-1.265c0.285-0.336,0.816-0.409,0.947-0.957
	c-0.279-0.119-0.678-0.501-1.918-0.05c-1.441,0.523-1.935,0.435-1.33,2.402c0.186,0.599-0.107,0.917-0.371,0.887
	c-1.695-0.193-2.963,2.678-1.27,2.815c0.627,0.048,1.164-0.235,1.752-0.333c0.094-0.016,0.211,0.195,0.098,0.287
	c-0.115,0.093-0.264,0.148-0.365,0.254c-0.75,0.782,1.426,1.812,2.555,1.515c3.834-1.012,3.801-1.139,2.168,1.319
	c-2.41,0.082-0.424,0.988-0.768,2.842c-0.025,0.135,0.229,0.449,0.393,0.483c0.689,0.149,1.643,0.875,0.709,1.732
	c-0.393,0.356-0.322,1.021-0.885,1.271c-0.451,0.202-0.883,0.008-1.326,0.038c-0.592,0.038-1.086,0.488-1.731,0.333
	c-0.533-0.128-1.014,0.176-1.519,0.291c-1.246,0.282-2.291,0.003-4.193,0.667c-6.189,2.158-5.713,2.563-8.693,2.69
	c-0.213,0.008-0.471,0.035-0.623,0.159c-1.275,1.055-2.855,1.003-4.037,1.093c-1.234,0.091-1.293,1.225-1.41,1.51
	c-0.113,0.283-0.547,0.399-0.904-0.038c-0.438-0.526,0.021-0.514-2.805,0.483c-0.51,0.178-1.244-0.471-0.93-1.395
	c0.09-0.27,0.418-0.557,1.334-1.513c0.01,0.692-0.033,0.982,0.207,0.938c0.229-0.044,0.08-0.175-0.203-0.935
	c0.148-0.013,0.332-0.091,0.439-0.029c0.916,0.552,1.543-0.06,2.531-0.423c1.084-0.398,1.646-0.086,3.086-0.449
	c0.539-0.138,1.83,0.288,2.43,0.278c0.773-0.013,0.264-0.738,1.322-1.354c0.205-0.119-0.09-0.481-0.217-0.458
	c-1.729,0.305-1.262,0.453-2.174,0.232c-0.09-0.022-0.195-0.266-0.09-0.328c1.19-0.682,1.787,0.225,3.35-1.056
	c0.541-0.442-0.193-1.224-0.484-1.212c-0.447,0.022,0.211-0.18-4.531,1.234c-0.941,0.283-1.207,1.087-2.67,0.747
	c-0.34-0.079-10.242,2.219-8.061,3.422c0.639,0.352,0.938-0.261,1.641,0.104c-0.301,0.391-0.902,0.143-1.404,0.588
	c-0.273,0.24-0.207,0.51,0.119,0.646c0.338,0.139,1.039,0.118,0.785,0.553c-0.068,0.122-0.178,0.308-0.275,0.312
	c-4.773,0.233-1.629-0.72-5.229,0.316c-0.262,0.074-0.006,0.435,0.152,0.44c2.094,0.075,2.582,0.2,2.516,0.759
	c-0.152,1.32,0.068,2.1-1.139,2.754c-1.061,0.574-1.611,1.263-1.926,0.906c-0.172-0.198-0.025-0.63-0.062-0.853
	c-0.092-0.526-0.887-0.586-1.104-0.492c-0.949,0.413-1.674,0.146-2.582,0.555c-0.34,0.155-0.469,0.714-0.213,0.962
	c1.229,1.192,1.389,0.793-1.102,3.308c-0.777-0.514-1.68-0.735-2.344-1.413c-0.678,0.053-1.35,0.152-2.021,0.146
	c-0.51-0.005-1.863,0.634-1.4,1.291c0.211,0.297,0.232,0.08,0.415,0.603c-1.45,0.929-3.019,1.569-4.749,1.756
	c-1.593,0.172-0.992-1.537-3.038-0.643c-1.624-0.072-3.08,0.497-4.503,1.188c-0.214,0.102-0.731,0.084-0.476,1.02
	c0.314,1.149-0.668,0.794-1.009,0.935c-0.882,0.365-1.755,0.241-2.686-0.04c-0.224-0.347-0.482-0.722-0.722-1.111
	c-0.312-0.508,0.487-0.926,0.906-0.982c2.399-0.321,1.37,0.571,4.143-0.599c0.77-0.324,1.483-1.882,0.205-1.937
	c-3.628-0.152-2.079-0.758-3.686,0.102c-0.764,0.409-1.41-1.296-1.434-1.686c-0.016-0.247-0.619-0.529-1.244,0.35
	c-0.481,0.684-0.885,0.78-3.279,1.211c-2.208,0.402-5.283,1.793-4.303,2.405c0.177,0.109,0.499,0.234,0.606,0.153
	c1.332-1.004,2.975-0.87,4.468-1.275c0.206-0.055,0.493,0.204,0.444,0.384c-0.039,0.135-0.096,0.338-0.191,0.37
	c-0.496,0.161-1.011,0.403-1.509,0.375c-0.942-0.052-1.043,0.244-5.286,1.757c-1.79,0.64-2.897,0.648-3.413,1.909
	c-0.485,1.201,1.705,0.515,2.719,0.189c1.204-0.385,0.903,0.284,2.436-0.026c0.519-0.105,1.027-0.148,1.553,0.034
	c0.534,0.188,1.012-0.235,1.537-0.181c0.413,0.041,0.398,0.42,0.207,0.597c-1.855,1.684-1.722,0.575-3.085,1.748
	c-0.645,0.56-0.321,0.439-3.878,1.085c-1.166,0.211-0.656-1.219-1.701-1.452c-0.964-0.218-1.627-0.098-1.985-0.851
	c-0.406-0.852-1.93-0.714-2.644-0.318c-2.108,1.167-2.305,0.835-2.369,1.78c-0.034,0.505-1.112,1.601-1.282,0.401
	c-0.126-0.896-1.357,0.014-2.022,0.605c-1.688,0.06-3.493-0.081-5.107,1.005c-0.203,0.139-0.892,0.366-1.462-0.073
	c-1.019-0.781-2.111,0.073-2.236,0.601c-0.375,1.555-2.003,2.059-3.148,3.045c-0.105,0.091-0.286,0.167-0.415,0.143
	c-2.021-0.365-2.449,1.402-4.137,1.332c-0.751-0.031-1.42,0.501-2.205,0.306c-0.11-0.026-0.314,0.064-0.37,0.162
	c-0.324,0.575-0.873,0.791-1.422,1.044c-1.37,0.628-1.524,1.157-2.427,0.875c-0.343-0.107-0.731-0.069-1.092-0.047
	c-0.979,0.051,2.116,2.085,0.368,2.448c-2.63,0.547-2.693,2.398-4.081,1.995c-0.744-0.216-1.153-0.009-1.452-0.843
	c-0.483-1.345-2.998-0.373-4.208,0.127c-1.352,0.556,1.735,2.299-2.342,1.657c-0.03-0.334-0.055-0.637-0.08-0.945
	c-0.575-0.32-1.135-0.333-1.697,0.023c-0.986,0.627-1.573,0.738-1.241,1.286c0.12,0.194,0.32,0.36,0.375,0.566
	c0.049,0.196,0.03,0.533-0.094,0.629c-2.318,1.778-2.811,0.76-4.152,1.386c-6.829,3.182-3.697,0.686-12.459,4.392
	c-1.105,1.059-2.546,1.104-3.935,1.328c-0.88,0.142-1.74,0.46-2.623,0.536c-1.246,0.106-3.186-0.482-4.677,0.167
	c-1.959,0.854-2.633-1.081-3.059,0.54c-0.412,1.558-1.7,0.637-2.593,0.374c-1.855-0.544-1.635,0.251-2.993,0.426
	c-0.927,0.121-0.564,0.656-1.724,1.342c-1.067,0.633-1.337-1.047-1.801-0.4c-0.552,0.774-0.583,1.028-0.888,1.307
	c-0.855,0.784-0.069,1.995-1.26,2.206c-1.524,0.269-4.284,2.457-6.542,1.544c-4.699,2.272-4.698,2.534-5.48,1.963
	c-0.985-0.722-0.788,1.247-3.457,0.946c-2.681-0.304-0.598,0.511-4.683,2.052c-0.375-0.643-0.264-0.61-0.749-0.674
	c-0.069-0.008-0.164,0.018-0.21,0.065c-0.653,0.684-1.485,0.996-2.373,1.188c-0.283-0.352-0.512-0.728-1.051-0.699
	c-0.669,0.037-1.365-0.094-1.891,0.478c-1.744-0.106-1.812-0.524-2.82,0.03c-0.576,0.317-1.167,0.002-1.482,1.473
	c-1.953,0.459-0.542,0.348-2.106,1.707c-0.196,0.168-0.185,0.593-0.384,0.742c-0.213,0.158-0.569,0.101-0.849,0.183
	c-0.207,0.061-0.441,0.327-0.583,0.271c-0.311-0.12-2.668-0.725-2.012-1.28c0.59-0.497,1.547-0.211,2.253-0.864
	c0.713-0.659,1.592-0.752,2.481-0.857c0.329-0.04,0.454-0.578,0.23-0.642c-0.621-0.18-1.005-0.632-1.371-1.139
	c-0.228-0.312-0.763-0.248-0.938,0.151c-0.235,0.535-0.518,0.852-1.14,0.896c-2.573,0.184-2.645,1.457-3.771,0.469
	c-0.721-0.631-1.003,0.68-1.346,0.625c-0.802-0.126-1.017,0.453-1.294,0.995c-0.314,0.604-0.279,0.769,0.885,1.038
	c0.57,0.131,0.643,0.843,1.184,1.03c0.466,0.161,1.045,0.077,1.368,0.603c-0.263,0.411-0.683,0.615-1.112,0.698
	c-3.493,0.664-3.154,0.815-3.917,0.319c-0.663-0.43-1.926,0.03-1.694,0.691c0.135,0.385,0.583,0.611,0.88,0.57
	c1.792-0.246,6.717-0.526,10.551-1.684c0.819-0.246,2.531-1.305,4.025-1.335c1.904-0.037,3.742-1.453,5.27-2.351
	c0.912-0.537,0.849,0.667,3.037-0.003c15.083-4.616,12.246-4.183,18.892-5.591c1.76-0.373,3.948-1.394,5.144-1.559
	c2.678-0.373,3.171-0.914,6.91-1.877c1.008-0.258,0.654,0.756,3.41-0.651c4.166-2.132,1.238-0.682,7.576-2.679
	c0.224-0.07,6.824-2.406,7.641-2.454c0.624-0.04,1.18-0.035,1.586-0.58c3.415-1.209,2.957-1.55,3.959-1.47
	c1.65,0.135,1.257-0.644,2.253-0.704c1.454-0.086,1.311-1.225,2.236-1.32c1.308-0.134,2.535,0.639,3.74-0.15
	c1.452-0.952,3.214-1.222,4.65-2.204c0.179-0.123,0.416-0.201,0.631-0.218c1.65-0.135,2.875-1.095,2.958-0.508
	c0.318,2.28-72.259,24.683-75.187,25.505c-2.172,0.607-3.046,2.509-4.909,2.562c0.07-0.055,0.054-0.735,0.051-0.839
	c-0.013-1.051-2.261,0.41-2.983,0.4c-0.247-0.004-18.246,5.285-21.396,3.963c-2.479-1.038-0.127-1.826-2.271-5.337
	c-0.109-0.179-0.358-0.27-0.543-0.404l0.007-0.001c-0.022-0.008-0.013-0.011,0.06-0.006v-0.001
	c-0.777-3.174-10.449-3.612-8.875-5.885c1.051-1.518,1.958-0.247,5.024,0.19c4.402,0.628,2.855,0.401,5.952,1.278
	c1.15,0.326,1.089-0.751,2.121-0.237c1.282,0.634,1.582,0.927,2.428,1.197c0.759,0.24,0.829-0.73,1.239-0.686
	c2.39,0.264,2.737,0.392,2.823,1.218c0.106,1.054,1.543-0.159,2.643,0.258c0.669,0.256-0.06-1.779-1.316-1.969
	c-0.642-0.096-1.894,0.539-4.108-0.892c0.009-0.253,0.091-1.032-0.185-1.292c-2.804-2.664-3.664-1.335-6.778-2.836
	c-0.657-0.317-1.467-0.297-2.252-0.436c-0.2,0.168-0.423,0.356-0.679,0.571c-2.541-1.059-2.882-1.012-2.923-1.736
	c-0.633-0.354-1.136-1.038-1.991-0.829c-0.301,0.074-0.571-0.014-0.845-0.195c-0.579-0.385-1.372-0.546-1.307,0.236
	c0.016,0.151,0.085,0.299,0.09,0.451c0.007,0.151-0.407,0.344-0.528,0.251c-1-0.754-0.201-1.855-2.091-1.146
	c-1.412,0.529-1.608-0.941-1.437-2.482c0.048-0.429-0.083-0.728-0.393-1.003c-0.099-0.088-0.205-0.283-0.177-0.392
	c0.17-0.624-0.066-1.185-0.181-1.783c-0.155-0.819-0.161-1.667-0.233-2.546c0.991-1.193,0.75-1.145,1.381-0.604
	c0.174,0.146,0.334,0.413,0.511,0.43c0.863,0.078,1.533,0.625,2.305,0.903c0.297,0.108,0.517-0.649,0.36-0.879
	c-0.732-1.075-0.194-1.57-0.049-2.852c0.039-0.363-0.617-0.616-0.825-0.497c-0.539,0.309-1.16,1.277-2.006,1.358
	c-0.135,0.013-0.366-0.02-0.404-0.104c-0.347-0.735,0.076-0.788,0.51-1.279c0.743-0.837-1.619-0.361-1.78-1.519
	c-0.193-1.4-1.29-1.475-1.369-1.705c-0.464-1.354,1.649-0.546,2.857-0.691c0.207-0.024,0.187-0.484,0.086-0.55
	c-0.685-0.456-1.48-0.745-2.033-1.426c-0.742-0.912-3.148,1.331-1.78,4.851c0.256,0.657,1.185,0.59,1.311,2.042
	c0.15,1.737,0.234,1.701-1.016,2.981c-1.13,1.155-2.96-0.879-1.832-1.433c0.329-0.161,0.7-0.235,1.045-0.367
	c0.482-0.185,0.469-1.193,0.009-1.326c-1.338-0.387-0.467-1.536-1.542-3.127c-0.729-1.078-0.895-2.253-0.686-3.505
	c0.127-0.766,0.148-1.15,1.285-1.216c0.625-0.036,1.383-0.268,1.31-0.913c-0.206-1.825-0.996-0.901-1.365-1.985
	c0.496-1.275,0.876-1.799,0.158-2.485c-0.655-0.628,0.559-0.88,0.85-1.184c0.694-0.729-1.001-0.665-1.321-0.688
	c-0.708-0.05-1.423-1.144-1.215-1.888c0.163-0.598,0.587-0.771,1.37-1.423c0.158-0.133,0.231-0.556,0.107-0.607
	c-0.471-0.202-1.232,0.316-1.436-0.598c-0.225-0.992,0.483-1.666-0.024-2.261c-0.404,0.06-1.42,0.317-1.649-0.084
	c-1.236-2.153-1.495-2.755-0.903-3.277c0.423-0.373,1.386-0.934,0.978-1.584c-0.93-1.487-1.51-2.119-1.429-3.065
	c0.043-0.503-0.218-0.883-0.612-1.163c-0.338-0.243-0.413-0.633-0.545-0.984c-0.381-1,0.515-1.411,1.129-1.978
	c0.183-0.168,0.091-0.688-0.142-0.795c-0.201-0.09-0.441-0.109-0.633-0.213c-0.754-0.416-0.527-0.78-0.893-1.506
	c-0.641-1.278,0.286-1.179-0.154-3.378c-0.203-1,0.597-1.23-0.451-1.699c-0.3-0.134-0.518-0.335-0.523-0.676
	c-0.049-3.398-0.219-4.184,2.944-4.519c0.973-1.053,1.294-1.304,1.241-1.877c-0.02-0.246,0.088-1.73,0.975-2.172
	c0.445-0.223,0.552-0.679,0.673-1.12c1.182-0.033,1.562,1.488,2.049,1.139c0.744-0.537,1.642-0.72,2.422-1.158
	c0.209-0.117,0.752-0.773-0.109-1.225c-0.735-0.383-0.111-0.378,0.493-1.239c0.144-0.202-0.31-0.619-0.726-0.645
	c-0.683-0.042-1.456,0.535-2.237-0.539c-0.219-0.304-0.179-0.668,0.118-0.727c5.589-1.12,2.217,0.25,5.333-1.25
	c-0.871-0.76-1.03-0.6-0.753-1.194c0.136-0.291,0.664-1.01-0.047-1.077c-1.007-0.092-1.644-0.206-1.962,0.015
	c-1.239,0.857-1.611,0.313-2.537,0.77c-1.66,0.813-0.313,0.902-2.662,2.263c-0.817,0.473-2.499,2.007-2.63,1.308
	c-0.112-0.609-0.68-0.74-1.042-1.194c1.403-1.51,1.314-1.554,2.131-1.84c1.975-0.691,1.436,0.077,1.942-2.747
	c-1.067,0.316-1.713,1.122-2.444,0.415c-0.297-0.288-0.245-0.847,0.078-0.978c1.969-0.788,2.558-1.65,2.782-1.96
	c-2.25,0.772-5.499,1.802-6.813,1.459c0.197-0.032,1.098-0.416,1.18-0.449c2.329-0.913,9.111-2.2,11.969-3.212
	c0.167-0.059,0.664-0.115,0.667,0.082c0.002,0.087-0.039,0.163-0.101,0.234c0.093-0.035,0.194-0.071,0.306-0.108
	c0.137-0.046,0.314-0.129,0.368-0.245c0.425-0.957,1.308-1.404,2.069-1.987c0.13-0.098-0.013-0.351-0.236-0.453
	c-0.29,0.305-0.578,0.364-1.476,0.563c-0.134-0.068-0.237-0.121-0.345-0.176c-1.337,0.531,0.201,0.881-2.738,1.95
	c-0.215,0.079-0.285-0.293-0.217-0.468c0.048-0.133,0.196-0.224,0.271-0.353c0.762-1.35-1.23-2.128-2.174-1.545
	c-0.146,0.089-0.429-0.236-0.393-0.442c0,0,0.005-0.027,0.009-0.048c-5.528,1.392-12.027,3.039-12.321,2.813
	c-0.819-0.632,4.421-2.398,5.432-2.58c2.417-0.438,2.06-1.3,1.078-1.098c-0.583,0.119-0.9,0.253-1.202,0.289l0.003,0.02
	c-0.033-0.007-0.051-0.009-0.074-0.013c-0.178,0.012-0.358-0.011-0.591-0.097c-0.651-0.241-1.586,0.418-2.373,0.185
	c0.417-0.556,0.861-0.507,0.714-0.753c-0.19-0.321-0.028-0.345-1.699,0.127c-1.582,0.448-1.001,0.556-1.548,1.002
	c-0.709-0.451-1.496-0.104-2.275-0.189c-0.194-0.243-0.391-0.489-0.641-0.799c4.244-1.7,4.574-1.729,4.935-2.465
	c0.15-0.305,2.476-0.896-0.851-1.003c-0.635-0.021-1.26,0.372-1.893,0.106c-0.552-0.233-1.142-0.12-1.699-0.269
	c-1.379-0.37-2.305,0.264-3.583,0.374c-0.833,0.071-1.248-0.625-0.295-0.971c5.762-2.087,4.997-1.716,5.537-2.124
	c0.1-0.074,0.073-0.406-0.162-0.435c-0.505-0.06-2.497,0.359-3.183,0.608c-0.876,0.316-3.963,0.556-3.188-0.374
	c0.519-0.623,1.017-0.444,1.462-0.857c0.137-0.127,0.037-0.609-0.286-0.477c-0.428,0.174-0.474,0.664-1.579,0.296
	c-0.26-0.351-0.031-0.721-0.007-1.078c0.068-1.048,1.182-0.03,1.482-0.683c0.186-0.407,0.338-0.833,1.902-1.467
	c0.648-0.262,0.416-1.515-0.278-1.302c-3.45,1.055-3.691,1.249-4.018,0.917c-0.721-0.732-0.791,0.544-2.081,0.234
	c-0.303-0.073-1.014,0.583-0.951,0.037c0.026-0.223,0.916-0.57,1.107-0.636c1.308-0.452,4.139-1.752,4.791-2.967
	c0.362-0.676,1.063-0.776,3.532-1.796c0.325-0.133,0.03-0.918-1.314-0.294c-1.217,0.565-2.51,0.95-3.701,1.576
	c-0.97,0.513-2.016,0.804-3.077,1.05c-1.399,0.324-4.503,2.293-1.785-0.551c0.305-0.32,1.124-0.704,1.159-0.96
	c0.104-0.734,0.807-1.147,0.946-1.869c0.179-0.933,1.365,0.053,1.922-0.878c0.396,0.022,0.675-0.067,0.885-0.485
	c0.5-0.994,1.384,0.853,1.663-0.482c0.209-0.998,0.78-0.481,0.448-2.1c-0.08-0.393-1.18,0.066-1.551,0.229
	c-0.441,0.194-0.263,0.852-0.954,1.098c-1.256,0.45-1.569,0.983-3.025-0.029c-0.205-0.142-0.589-1.093-0.078-1.346
	c0.422-0.208,1.873-0.865,1.912-0.887c0.892-0.474,0.264-1.134-0.33-0.764c-0.97,0.607-2.078,0.475-3.141,0.59
	c-0.693-0.42-0.929-0.042-3.169,0.229c-0.234,0.03-0.426,0.245-0.63-0.064c-0.387-0.587,0.066-0.871,0.128-1.245
	c0.188-1.172,1.264-0.736,1.442-0.831c0.106-0.059,0.283-0.138,0.285-0.209c0.004-0.491,0.353-0.801,0.575-1.176
	c0.136-0.233-0.008-0.765-1.279-0.487c-0.242,0.053-0.5,0.05-0.749,0.056c-0.032,0.001-0.073-0.094-0.097-0.15
	c-0.269-0.662,2.692-1.681,1.269-1.686c-1.149-0.001-1.193-0.707-0.518-1.258c0.474-0.389,2.488-1.648,1.692-1.875
	c-0.554-0.158-0.947,0.354-1.462,0.34c-0.138-0.005-0.185-0.152-0.148-0.257c0.17-0.486,1.301-0.896,0.972-1.271
	c-0.284-0.323-0.551-0.718-1.088-0.54c-2.154-0.805-0.418-0.758-0.789-2.025c-0.069-0.235,0.144-0.514,0.375-0.615
	c1.644-0.719,3.655-2.939,5.446-3.879c0.467-0.247,2.199-2.117,2.003-2.612c-0.379-0.954,0.7-1.381,0.985-1.618
	c0.075-0.062,0.138-0.227,0.108-0.304c-0.035-0.088-0.157-0.141-0.252-0.206c0.005,0.004,0.009,0.008,0.015,0.012l-0.036-0.025
	c-1.197-0.956-4.75,0.886,0.684-2.451c0.737-0.454,0.153-0.902-0.155-0.671c-2.176,1.628-2.998,0.482-3.591,1.52
	c-0.361,0.635-0.503,0.684-2.022,0.648c-0.048-0.001-0.111-0.187-0.136-0.294c-0.127-0.539-0.126-0.542-0.589-0.383
	c-1.886,0.643,0.287-1.586,1.654-2.067c0.66-0.233,2.747-2.283,4.517-3.544c0.051-0.038,0.013-0.225-0.01-0.336
	c-0.107-0.483-3.442,0.435-4.62,1.39c-0.137,0.112-0.35,0.129-0.534,0.193c0.007-0.121-0.029-0.273,0.028-0.329
	c3.011-3.005,4.733-3.651,5.025-3.811c0.89-0.485,0.356-1.044,1.098-1.486c0.807-0.482,1.716-1.03,3.868-2.502
	c1.1-0.751,0.97-1.546,1.753-1.283c0.763,0.256,0.974-0.241,1.573-0.811c0.765-0.729,0.702-0.356,1.614,0.121
	c0.198,0.104,0.524-0.097,0.555-0.355c0.028-0.248,0.03-0.499,0.044-0.759c2.607-1.531,5.347-2.751,8.191-3.735
	c1.153-0.399,2.154-1.123,3.321-1.471c2.756-0.822,6.197-3.174,1.05-1.42c-1.371,0.467-1.26,0.479-2.333-0.04
	c-0.155-0.075-0.155-0.39-0.002-0.481c1.431-0.819,1.201-0.459,0.136-1.258c-0.284-0.213,0.039-1.091,0.488-1.268
	c1.631-0.648,1.227-0.911,3.738-1.406c1.18-0.233,2.123-1.295,3.655-1.616c1.229-0.256,2.532-1.484,3.96-1.898
	c0.513-0.15,0.891-0.503,1.295-0.81c0.127-0.097,0.15-0.331,0.219-0.503c0.19-0.483,0.351,0.486,1.007,0.171
	c0.888-0.427-0.906-0.508-0.348-1.234c0.166-0.217,0.389-0.321,0.706-0.33c0.178,0.225,0.35,0.501,0.581,0.709
	c0.537,0.481,1.83-0.892,2.079-1.25c0.599-0.864-0.731-0.792-0.954-0.824c-0.817-0.118-0.503-0.185-0.088-0.573
	c0.495-0.463-0.116-1.152-0.521-0.992c-1.019,0.403-0.902,0.03-3.135,0.805c-6.91,2.397-4.745,2.188-8.195,3.234
	c-0.115,0.036-0.211,0.139-0.316,0.21c0.052-0.232-0.279-0.362,0.066-0.986c23.071-9.015,40.466-14.306,40.466-14.306
	c1.712-0.773,0.579-0.621,2.642-0.991c1.261-0.226,2.465-0.715,3.763-0.756c0.246-0.007,0.495-0.132,0.726-0.235
	c6.918-3.087-0.111,0.124,11.08-3.671c3.34-1.134,2.907-0.955,4.252-1.693c0.434-0.239,14.331-3.861,16.265-5.006
	c1.479-0.872,2.452,0.145,3.921-1.257c0.664-0.632,2.044-0.015,2.566-0.481c0.063-0.058,15.106-3.642,16.049-4.219
	c2.143-1.31,5.764-1.588,7.243-2.461c0.205-0.121,0.486-0.144,0.738-0.158c2.86-0.166,7.609-1.532,9.504-1.167
	c0.377,0.073,0.765,0.045,1.13-0.123c1.02-0.47,2.112-0.307,3.255-0.486c-0.504,0.998-1.154-0.048-2.107,0.936
	c-0.412,0.426-1.196-0.059-0.663,2.408c0.434,2.007,2.328,0.458,4.153,1.429c1.053,0.561,0.58-0.659,3.38-1.396
	c6.515-1.717,2.028-0.954,4.972-2.539c0.296-0.158,0.738-0.738-0.271-1.009c-1.111-0.299-1.468,0.57-2.369-0.253
	c-0.598-0.545,0.516-0.469,0.671-1.291c0.216-1.125,1.717-1.057,2.584-1.795c0.06-0.053,1.757-0.33,1.852-0.352
	c3.745-0.879,2.249-0.036,4.143-0.628c1.632-0.512,3.051-1.167,4.422-1.291c0.924-0.085,1.983-0.602,3.387-0.667
	c2.393-0.836,5.172-0.799,6.997-2.355c0.228,0.393,0.287,0.657,0.611,0.598c5.275-0.942,1.615,0.398,10.444-2.239
	c0.638-2.011,0.871-0.14,1.844-0.352c1.526-0.332,3.726-0.655,5.123-1.542c0.911-0.58,3.096-1.168,3.228-1.116
	c0.711,0.277,1.39-0.121,2.082-0.078c0.725,0.044,1.395-0.184,2.082-0.326c0.798-0.165,0.856,0.092,1.671,0.246
	c1.087,0.206,1.607-0.611,2.275-0.828c1.603-0.521,0.231-1.775,1.32-1.774c2.616,0.003,1.818-0.544,2.964,0.108
	c0.786,0.447,0.888,0.034,1.294-0.56c0.115-0.167,0.4-0.221,0.471-0.061c0.258,0.577,0.883,0.719,1.281,1.133
	c0.42,0.115,1.537-0.018,1.969-0.457c0.477-0.486-0.172-0.325,1.967-1.414c0.1-0.051,0.25,0.003,0.377,0.009
	c-0.09-0.123,0.17,0.107,0.324,0.068c1.19-0.294,0.846-0.322,0.906-0.919c0.092-0.928,1.078-0.9,2.037-0.775
	c2.092,0.273,1.715-0.802,5.666-0.528c0.635,0.044,1.598-1.575,0.973-1.497c-0.602,0.075-0.971,0.306-1.387-0.261
	c-0.195-0.269-0.144-0.385,1.672-0.73c0.744-0.142,0.861,1.005,2.68,0.452c1.035-0.316,0.686,1.045,1.541,0.688
	c1.357-0.564,0.481-0.723,2.293-1.29c0.295-0.092,0.84-0.694,1.555-0.08c1.074,0.925,0.773-0.591,1.527-0.915
	c1.697-0.731,1.615-1.166,2.803-0.994c1.139,0.165,1.576,0.034,1.777,0.735c0.012,0.044,0.092,0.103,0.135,0.1
	c0.562-0.044,1.211,0.215,1.666-0.213c0.539-0.506,1.238-0.233,1.809-0.517c0.564-0.28,0.408,1.341,0.955,1.452
	c1.225,0.249,1.332-0.081,2.371,0.52c0.705,0.407,1.721-0.03,1.734-0.55c0.023-0.856-3.922,0.078,0.16-2.625
	c0.318-0.211,0.488,0.615,0.609,0.791c0.117,0.168,0.611,0.204,0.557-0.137c-0.033-0.187-0.131-0.381-0.098-0.551
	c0.031-0.164,0.168-0.396,0.303-0.435c1.553-0.447,0.992-0.059,2.309,0.39c0.299,0.102,0.574-0.067,0.506-0.357
	c-0.139-0.591,0.113-0.983,0.541-1.351c0.516,0.521,1.488,1.316,0.688,1.481c-0.215,0.044-0.803,0.054-0.688,0.428
	c0.32,1.045,1.326,1.397,2.076,1.14c0.742-0.254,0.186,0.727,1.027,1.34c0.385,0.28,0.328,0.655-0.084,0.884
	c-0.154,0.086-0.338,0.115-0.516,0.165c0.043-0.092-0.02-0.569-0.057-0.674c-0.25-0.68-1.231-0.164-0.359,0.828
	c-1.115,0.752-0.873,0.372-1.492,0.679c-1.508,0.746-0.318,1.862-2.318,2.289c-0.559,0.119-1.111,0.184-1.682-0.083
	c1.312-3.147-1.986-1.92-1.418-0.49c0.24,0.607,0.207,2.379-0.727,2.108c-1.164-0.337-0.848,0.163-2.225,0.164
	c-2.852,0.004-0.904,2.235-3.227,0.501c-1.662,0.203-1.889,0.577-2.801,0.384c-0.285-0.059-0.641,0.061-0.928,0.183
	c-0.668,0.286-1.354,0.325-2.062,0.267c-1.135-0.093,0.565,1.518-0.752,1.242c-1.322-0.277-1.984,0.211-3.006,0.906
	c-0.949,0.645,0.959,2.309,3.809,1.526c0.855-0.236,1.791-0.143,2.586-0.656c0.285-0.184,1.094-0.05,1.307-0.142
	c1.623-0.69,2.346,0.226,3.316-0.247c2.361-1.15,4.432-1.121,4.539-2.09c0.07-0.635,1.279-0.04,1.705,0.843
	c2.266,0.071,2.383-0.732,2.965-0.993c0.213-0.098,1.342-0.177,1.008-0.468c-0.424-0.372-2.178-0.998-0.275-1.833
	c0.494-0.215,0.703-0.021,1.678,0.68c0.146,0.105,0.106,0.349-0.08,0.458c-0.109,0.064-0.248,0.081-0.352,0.15
	c-0.908,0.614,1.234,1.285,1.869,1.36c0.92,0.111,0.938,0.756,2.361,0.108c0.785-0.357,1.004-0.444,1.094-0.932
	c0.062-0.333-0.059-0.598-0.31-0.805c0.133-0.127,0.51-0.497,0.945-0.121c0.791,0.682-0.01,0.884,0.781,1.441
	c0.537,0.378,0.773-0.017,1.719-0.842c0.119-0.104,0.406,0.052,0.42,0.235c0.018,0.189-0.012,0.386,0.019,0.57
	c0.065,0.374,0.516,0.655,0.873,0.515c0.354-0.139,0.674-0.391,1.047-0.063c0.807-0.142,1.627-0.417,1.336,0.434
	c-0.357,1.051-0.68,0.701-1.482,0.56c-0.656-0.114-0.434,0.653,0.156,0.659c0.654,0.007,1.25,0.786,1.963,0.134
	c0.467-0.422,1.195-0.377,1.611-0.975c0.275-0.398,0.773-0.643,1.145-0.935c1.002,0.322,0.215,1.279,1.014,1.954
	c0.154,0.131,0.09,0.393-0.064,0.495c-0.996,0.651-0.873,0.313-0.582,1.657c0.123,0.564,0.279,1.11,0.004,1.676
	c-0.023,0.057,0.092,0.234,0.182,0.28c0.408,0.211,1.193-0.597,1.332-1.129c0.117-0.47,0.369-0.8,0.844-1
	c0.502,0.227,1.025,0.461,1.551,0.698c0.904,2.613,1.025,2.146-1.086,3.655c0.145,1.232,1.781,0.275,1.775,1.024
	c-0.002,0.409-0.324,1.427,0.723,2.239c0.65,0.506-0.031,1.799-0.811,1.897c-0.685,0.085-0.533,0.508-0.566,1.397
	c-0.023,0.66,0.529,0.703,0.834,0.965c-0.332,0.54-0.965,1.328-0.217,1.565c2.35,0.741,0.201,1.525,0.918,3.486
	c0.414,1.136,0.019,0.799,0.801,1.15c0.982,0.441,0.365,1.045-0.135,1.641c-0.445,0.532-0.078,0.858,0.006,1.24
	c0.066,0.305-0.238,0.642,0.014,0.908c0.166,0.176,0.445,0.241,0.656,0.38c0.898,0.586,0.615,0.965,2.34-0.088
	c1.012,0.488,1.592,1.283,1.846,2.338c0.543,2.246-0.232,1.418-1.221,2.846c-0.125,0.18-0.023,0.624,0.18,0.663
	c0.738,0.148,1.266,0.559,1.65,1.195c0.713,1.176,1.527,0.857,1.717,1.98c0.338,2.05,0.148,2.259,0.262,3.249
	c0.096,0.835-0.068,1.518-0.861,1.953c-0.135,0.074-0.023,0.43,0.135,0.471c0.625,0.159,0.275,0.123,1.559,0.186
	c-0.115,0.786-0.328,1.097,0.109,1.392c0.941,0.632,0.543,2.303,0.354,2.632c-0.2,0.348-0.05,0.724-0.053,1.088
	c2.08-0.297,3.301-0.37,2.277,0.282c-0.336,0.216-0.012,0.591,0.246,0.631c0.783,0.122,1.494-0.564,0.486-1.008
	c2.375-1.808,1.334-1.086,3.369-1.468c1.576-0.294,1.051-0.737,3.035-0.551c0.24,0.023,0.525,0.525,0.15,0.664
	c-3.479,1.292-3.1,0.727-3.424,1.347c-0.082,0.157,0.205,0.455,0.408,0.444c1.305-0.067,0.854-0.489,2.396,0.094
	c1.566-0.961,3.266-1.437,5.107-1.398c0.443,0.01,0.904-0.384,1.305-0.1c1.484,1.052,8.164-1.767,10.514-1.059
	c-1.6,1.019-2.016,0.002-4.225,1.468c-0.315,2.154-0.742,1.777,3.238,1.48c1.088,0.723-3.406,0.349-3.594,2.443
	c-0.992,1.232-1.047,1.206-0.951,1.431c0.113,0.268,1.738,0.001,2.307-0.257c1.588-0.723,2.887,0.035,5.953-0.77
	c1.191-0.312,5.828-1.327,6.141-1.252c0.406,0.099,0.494,0.454,0.336,0.622c-0.729,0.772-0.871,0.569-2.355,1.222
	c-0.689,0.305-0.522,1.043-1.215,1.229c-0.832,0.219-1.438,0.752-2.021,1.343c-0.426,0.43-1.123,0.44-1.486,0.969
	c-0.059,0.086,0.014,0.38,0.076,0.405c1.723,0.689,5.729-1.36,5.807-0.492c0.031,0.327,0.059,0.464-0.85,0.799
	c-0.857,0.319-0.699,0.291-0.537,1.423c-1.635,1.364-2.465,0.855-2.779,1.732c-0.451,1.271-1.934,0.93-2.734,1.756
	c-0.125,0.131-0.18,0.527,0.063,0.544c0.797,0.052,1.26-0.008,1.271,0.158c0.039,0.472,0.27,0.248-2.377,1.68
	c-0.365,0.581,0.549,1.951-0.836,2.274c-0.861,0.201-0.44,1.626,0.27,1.648c0.674,0.02,1.371-1.121,2.496-0.649
	c0.102,0.042,0.291-0.065,0.408-0.148c0.246-0.168,0.467-0.389,0.787-0.38c1.44,0.043,1.504-0.708,2.057-0.145
	c0.021,0.023-0.01,0.142-0.049,0.181c-1.695,1.684,0.375,1.946,0.969,0.941c0.148-0.258,0.223-0.562,0.344-0.883
	c1.143,0.562,2.191,0.504,3.158,0.067c0.742-0.337,1.297-0.03,1.959,0.264c-0.512,1.301-2,0.992-2.182,1.952
	c-0.201,1.038-0.762,0.355-0.951,2.808c-0.205,0.14-0.434,0.422-0.69,0.45c-1.135,0.128-1.441,1.227-2.15,1.846
	c-0.088,0.077,0.033,0.407,0.061,0.625c-0.004,0.003-0.008,0.005-0.012,0.006c-0.01,0.001-0.018,0.001-0.027,0.002
	c-0.412-0.168-0.822-0.395-1.252-0.228c-8.742,3.447-0.822,3.081-0.012,0.936c0.188-0.492,0.719-0.692,1.264-0.708
	c0.014,0.006,0.027,0.011,0.041,0.017c0-0.007-0.002-0.016-0.002-0.025c0.469-0.3,1.01-0.32,1.504-0.178
	c0.922,0.265,1.723-0.04,3.998-1.152c4.074-1.991,5.605-1.312,4.244-0.766c-0.363,0.146-0.791,0.031-1.25,0.369
	c-5.268,3.865-6.797,1.356-9.131,4.28c-0.129,0.163-0.23,0.437-0.191,0.63c0.15,0.778-0.059,1.512-0.135,2.264
	c-0.029,0.302,0.154,1.176,0.445,1.215c1.104,0.15,2.145,1.068,2.75,0.76c1.133-0.579,2.391-0.815,3.529-1.37
	c0.56-0.275,0.012-0.27,1.514-0.846c0.287,0.486,0.311,0.755,0.666,0.639c0.42-0.138,0.299-0.514,0.232-0.958
	c-0.006,0.083,0.828-0.531,0.91-0.58c0.113-0.072,0.285-0.05,0.463-0.077c-0.67,1.7-0.617,1.09,0.32,1.722
	c0.387,0.259,0.422,0.963,0.049,1.182c-3.529,2.053-3.383,1.546-3.877,2.492c0.824,0.277,1.271-0.363,2.34-0.265
	c0.129,0.012,0.326-0.371,0.541-0.21c1.268,0.946,2.082-0.535,2.918,0.567c0.299,0.395-0.078,0.798-0.291,0.902
	c-0.529,0.257-1.271-0.34-2.102,0.466c-1.271,1.234-1.664,0.33-1.908,1.691c-0.041,0.229,0.131,0.559,0.314,0.521
	c1.279-0.25,2.121,0.185,3.271-0.451c0.734-0.404,1.557-0.488,2.246-0.851C345.937,104.348,344.075,105.23,343.386,105.483z
	 M325.333,74.394c0.119,0.073,0.291-0.06,0.383-0.124C325.357,74.172,325.22,74.322,325.333,74.394z M254.693,11.783
	c0.307-0.417-1.176-0.781-1.992-0.231C252.083,11.967,254.066,12.64,254.693,11.783z M251.318,11.64
	c0.023,0.189,0.441,0.066,0.309-0.152c-0.053-0.085-0.191-0.115-0.291-0.172C251.326,11.426,251.304,11.535,251.318,11.64z
	 M248.204,15.425c0.125-0.127,0.057-0.283-0.027-0.298C246.89,14.891,247.499,16.141,248.204,15.425z M8.046,101.503
	c-0.04,0.116-0.102,0.275-0.146,0.439c-0.034,0.136,0.255,0.318,0.598,0.082C8.671,101.907,8.845,101.227,8.046,101.503z
	 M6.132,114.443c-0.44,0.101-0.56,0.642-0.222,0.587C6.423,114.949,6.398,114.384,6.132,114.443z M6.803,112.045
	c-0.17-0.153-0.166,0.041-0.195,0.25C6.904,112.335,6.938,112.165,6.803,112.045z M7.854,132.088
	c-0.103,0.19-0.123,0.129,0.068,0.234C8,132.067,8.001,132.114,7.854,132.088z M9.687,132.015c0.025-0.07-0.155-0.173-0.25-0.08
	C9.294,132.074,9.584,132.297,9.687,132.015z M10.44,131.325c-0.071,0.129,0.26,0.281,0.417,0.165
	C11.157,131.268,10.678,130.889,10.44,131.325z M10.967,106.231c-0.073,0.078-0.21,0.164-0.203,0.231
	C10.829,106.951,11.695,106.634,10.967,106.231z M12.646,102.348c-0.223-0.195-0.695-0.013-0.749,0.295
	c-0.01,0.064,0.148,0.229,0.196,0.217C12.749,102.704,12.617,102.552,12.646,102.348z M16.206,139.514
	c0-0.021-0.215-0.053-0.332-0.063c-0.045-0.003-0.809,0.318-0.861,0.347c-0.308,0.159-0.15,0.451,0.069,0.463
	C16.174,140.316,16.202,140.015,16.206,139.514z M56.099,240.798c-0.218-0.524-0.696-0.218-0.694,0.125
	C55.41,241.478,56.349,241.391,56.099,240.798z M194.743,198.837c-0.107,0.282,0.697,0.712,1.196-0.014
	C196.116,198.57,195.019,198.106,194.743,198.837z M280.652,163.323c0.062-0.383-0.846-0.354-0.834,0.17
	C279.826,163.765,280.552,163.934,280.652,163.323z M287.751,166.612c-0.08,0.059-0.07,0.242-0.102,0.373
	C288.66,167.086,288.031,166.405,287.751,166.612z M289.857,166.285c-0.135,0.001-0.285-0.033-0.408,0.009
	c-0.189,0.064-0.219,0.239-0.053,0.352c0.106,0.072,0.273,0.046,0.416,0.062C289.827,166.567,289.841,166.427,289.857,166.285z
	 M296.134,164.118c-0.096-0.237-1.098-0.945-1.75-0.248c-0.203,0.216-0.088,0.31-2.33,0.516c-0.068,0.006-0.24-0.213-0.229-0.312
	c0.109-1.08,1.113-1.494-2.234-0.825c0.008,0.027,0.014,0.055,0.021,0.084c-1.055,0.309-1.008,0.237-1.859,0.723
	c-0.035,0.018,0.047,0.342,0.137,0.388c0.816,0.414,2.188-0.667,2.635,0.463c0.184,0.46,0.875,0.278,1.184,0.122
	c0.969-0.49,1.213,0.529,1.84,0.344C296.124,164.616,296.281,164.481,296.134,164.118z M306.345,148.743
	c-0.16,0.05-0.799,0.261-0.717,0.411c0.332,0.605,0.857,0.352,0.98,0.031C306.671,149.026,306.566,148.672,306.345,148.743z
	 M305.115,145.044c-0.688,0.189-1.322,0.212-1.836-0.434c-0.078-0.099-0.275-0.17-0.394-0.148c-1.15,0.2-1.43,0.32-1.053,0.8
	c0.695,0.888-0.352,0.833-0.824,1.342c-0.51,0.548,0.459,1.697,0.803,1.333c0.248-0.264,0.455-0.573,0.74-0.949
	C304.978,147.458,307.874,144.281,305.115,145.044z M303.894,149.165c-0.469-0.268-1.104,0.187-0.434,0.539
	C303.706,149.833,304.095,149.28,303.894,149.165z M300.415,150.658c-0.531,0.222-0.404,1.134,0.254,1.081
	c0.715-0.058,1.4-0.383,2.119-0.693C303.24,150.853,303.171,149.525,300.415,150.658z M272.052,152.389
	c0.07,0.231,0.58,0.399,0.545,0.016C272.546,151.84,271.968,152.131,272.052,152.389z M271.849,97.86
	c-0.172,0.011-0.188,0.097-0.035,0.218c0.012,0.012,0.08-0.047,0.123-0.072C271.908,97.954,271.876,97.858,271.849,97.86z
	 M268.406,98.651c-0.562-0.019-2.988,0.746-0.354,0.98c0.27-0.107,0.404-0.158,0.539-0.213
	C268.923,99.278,268.89,98.666,268.406,98.651z M263.074,105.524c0.775-0.142,0.713-0.98,0.254-0.982
	C261.531,104.535,262.296,105.663,263.074,105.524z M261.394,164.899c-0.291-0.454-1.039-0.4-1.16,0.562
	c-0.139,1.076-1.264,0.672-1.363,1.586c-0.057,0.521,1.723,0.971,2.508,0.144c0.775-0.815,1.219-0.546,2.383-1.046
	c0.217-0.093,0.367-0.784-0.352-1.014c-0.426-0.139-0.697,0.131-1.045,0.234C261.525,165.607,261.716,165.409,261.394,164.899z
	 M263.97,101.743c0.324-0.479,0.584-1.204,0.047-1.587c-1.555-1.117-1.387,0.354-2.486-0.053c-0.922-0.341-2.5,0.066-3.145,1.128
	c-0.166,0.271,0.408,0.974,1.285,0.877c2.533-0.283,3.854-2.631,3.801-0.492C263.466,101.889,263.868,101.894,263.97,101.743z
	 M255.247,101.847c-0.16,0.711-0.309,1.11-0.045,1.248c0.539,0.28,1.924,0.271,2.361-1.526
	C257.753,100.799,255.507,100.677,255.247,101.847z M236.177,163.12c-0.496,0.386,0.199,0.515,0.139,0.127
	C236.312,163.196,236.187,163.112,236.177,163.12z M234.312,109.093c0.106-0.078,0.209-0.158,0.315-0.236
	C234.234,108.578,234.032,108.82,234.312,109.093z M198.331,114.289c0.438,0.346,1.365,0.5,1.927-0.146
	c0.03-0.034,0.048-0.076,0.059-0.122c-0.217,0.013-0.53,0.046-1.009,0.113C198.982,114.18,198.656,114.232,198.331,114.289z
	 M202.311,113.871c0.773,0.098,1.144-0.539,1.773-0.969c-0.186,0.078-0.366,0.182-0.536,0.342
	C203.209,113.563,202.672,113.571,202.311,113.871z M205.622,110.211c0.751-0.207,1.472-0.383,2.14-0.573
	c-0.495,0.09-0.994,0.174-1.502,0.198C205.923,109.852,205.75,109.991,205.622,110.211z M214.06,110.329
	c0.38-0.055,0.659-0.03,1.009,0.085c0.823,0.272,1.587-0.421,2.179-0.358c1.143,0.123,2.496-0.537,3.352-0.991
	c-0.326-0.075-0.694-0.134-1.296,0.065c-0.138,0.047-0.372-0.069-0.511-0.178c-0.695-0.553,0.434-1.148-3.57,0.287
	c-0.17,0.061-0.365,0.201-0.436,0.356C214.623,109.951,214.361,110.164,214.06,110.329z M289.31,73.837
	c-0.197,0.161-0.298,0.343-0.23,0.518c0.16,0.417,1.596,0.035,2.221-0.33c0.244-0.142,0.167-0.471-0.016-0.583
	C290.469,74.008,290.175,73.688,289.31,73.837z M286.495,74.473c0.137,0.127,0.249,0.254,0.291,0.381
	c0.03,0.09,0.04,0.164,0.04,0.231c0.141-0.117,0.358-0.286,0.749-0.56C287.127,74.515,286.786,74.494,286.495,74.473z
	 M285.306,78.753c0.412-0.168,0.807-0.361,0.972-0.757c-0.014,0-0.027,0.004-0.041,0.003c-0.033-0.251,0.064-0.41,0.194-0.537
	c0.202-0.316,0.763-0.275,0.695-1.017c-0.011-0.131-0.317-0.105-1.236-0.077c-0.313,1.499-1.889,1.422-3.477,2.335
	c-0.141,0.081,0.041,0.365,0.158,0.418c0.246,0.108,0.545-0.04,2.549-0.628C285.205,78.583,285.261,78.671,285.306,78.753z
	 M299.952,79.487c-0.084-0.097-0.158-0.258-0.25-0.27C299.365,79.17,299.208,80.044,299.952,79.487z M296.328,79.727
	c0.058,0.36,0.017,0.724-0.504,1.099C298.132,80.619,298.88,79.138,296.328,79.727z M287.259,67.856c0.275,0.2,0.351,0.4,0.257,0.68
	c0.009-0.002,0.017-0.004,0.026-0.007c3.739-0.959-1.692-1.257,5.703-2.323c0.021-0.046,0.036-0.096,0.082-0.126
	c1.68-1.053,2.52-1.175,2.059-2.282c-0.057-0.136-0.102-0.241-0.151-0.357c-0.141,0.031-0.257,0.057-0.315,0.071
	c0.06-0.015,0.175-0.044,0.313-0.078c-0.601-1.413-0.674-1.32-1.879-1.624c-1.209-0.306-1.19-0.753-2.359-0.683
	c-1.061,0.062-1.014,1.172-0.738,1.739c0.108,0.224-0.02,0.516-0.229,0.68c2.318-0.16,2.865,0.185,4.102-0.392
	c0.322-0.149,0.559,0.083,0.727,0.366c0,0-0.842-0.063-2.83,0.586c-2.4,0.782-2.86-0.106-2.416-0.439
	c-0.491-0.012-1.333-0.179-1.766-0.19c-0.309-0.008-0.59,0.411-0.428,0.656c0.537,0.817-0.162,1.197,1.016,1.307
	c0.57,0.056,0.482,0.238,0.295,0.314c-0.561,0.231-0.721,0.677-0.697,1.23c-0.238,0.083-0.48,0.152-0.711,0.25
	C287.083,67.333,287.027,67.688,287.259,67.856z M284.149,69.39c0.493-0.123,1.017-0.255,1.579-0.398
	c-0.025-0.108-0.143-0.235-0.391-0.428c-0.189-0.146,0.092-1.083-0.596-0.817C282.738,68.52,284.263,68.4,284.149,69.39z
	 M281.234,25.283c0.418-0.115,0.166-0.735-0.283-0.655C280.212,24.759,280.681,25.436,281.234,25.283z M275.199,27.955
	c0.287-0.379-0.188-0.579-0.348-0.418C274.607,27.785,275.011,28.201,275.199,27.955z M272.05,30.476
	c0.363,0.448,0.838-0.065,0.602-0.281C272.224,29.803,271.872,30.256,272.05,30.476z M245.921,16.002
	c0.328,0.236,0.666-0.211,0.449-0.374C246.032,15.371,245.722,15.86,245.921,16.002z M242.036,16.626
	c0.348,0.235,3.115-0.285,2.934-0.687C244.48,14.85,240.98,15.913,242.036,16.626z M229.782,17.89
	c0.625,0.095,1.525-0.22,1.301-0.626C230.597,16.381,228.535,17.701,229.782,17.89z M219.173,21.966
	c0.775-0.776,0.426-1.264-0.502-0.712C218.095,21.597,218.767,22.372,219.173,21.966z M218.431,23.655
	c0.121,0.38,0.463,0.486,0.67,0.475c2.309-0.133,2.309-0.193,2.409-0.559C221.855,22.328,218.267,23.153,218.431,23.655z
	 M216.067,24.195c-0.05,0.385,0.64,0.276,0.907,0.041C217.458,23.814,216.14,23.633,216.067,24.195z M204.839,24.718
	c0.697,3.233,4.08,0.505,6.809-0.079c0.419-0.09,0.872-0.335,0.906-0.808c0.043-0.565-0.657-0.324-1.609-0.692
	c-0.687-0.264-1.329,0.05-1.849,0.19c-0.602,0.161-0.952,0.58-1.216,1.281c-0.233-0.203-0.356-0.39-0.521-0.44
	C206.345,23.865,204.722,24.166,204.839,24.718z M199.332,26.878c0.001,0.014,0.002,0.028,0.002,0.044
	c0.486,0.572,0.238,0.984,2.683,0.181c1.223-0.403,1.146-1.471,0.874-1.446c-0.307,0.028-0.628,0.202-0.912,0.148
	c-1.152-0.221-1.942,0.313-2.627,1.126C199.345,26.914,199.339,26.896,199.332,26.878z M198.775,26.35
	c0.058,0.226,0.361,0.212,0.496,0.367c-0.033-0.088-0.068-0.177-0.109-0.262C198.971,26.055,198.736,26.192,198.775,26.35z
	 M198.163,28.087c0.379-0.153-0.307-0.706-0.535-0.747C194.775,26.821,195.636,29.116,198.163,28.087z M195.155,28.331
	c0.27-0.363-0.216-0.67-0.411-0.471C194.468,28.141,194.985,28.56,195.155,28.331z M187.353,30.226
	c0.411,0.112,0.268,0.144,0.515-0.15C187.516,29.963,187.618,29.935,187.353,30.226z M176.137,33.289
	c0.546,0.073,1.095-0.26,2.224-0.478c0.561-0.108,0.86-0.836,1.531-0.623c0.646,0.206,1.259-0.133,1.894-0.091
	c0.109,0.008,0.243-0.078,0.337-0.153c0.332-0.26,0.712-0.219,1.091-0.224c0.476-0.005,0.244-0.989-0.197-0.948
	c-1.752,0.164-2.569-0.408-3.103,0.355c-0.66,0.941-1.599,0.16-2.501,0.643C176.718,31.845,175.374,33.186,176.137,33.289z
	 M174.519,33.042c0.158-0.158-0.09-0.675-0.88-0.286C173.161,32.992,173.434,34.13,174.519,33.042z M169.318,34.12
	c0.712-0.546-0.758-1.447-0.958-0.637C168.234,33.991,168.851,34.475,169.318,34.12z M154.709,37.85
	c0.165,0.042,0.308-0.212,0.042-0.188C154.653,37.672,154.632,37.831,154.709,37.85z M152.418,38.86
	c1.424,0.299,1.428,0.232,1.641,0.086c0.682-0.466-0.659-1.751-1.754-0.62C152.058,38.58,152.158,38.805,152.418,38.86z
	 M38.138,161.036c-0.252,0.404,0.399,0.933,0.956,0.45C39.478,161.151,39.129,159.446,38.138,161.036z M36.645,157.848
	c0.439-0.332-0.719-1.146-1.447-0.083c-0.119,0.172-0.05,0.437,0.342,0.635C35.782,158.524,36.419,158.019,36.645,157.848z
	 M35.667,160.334c-0.179,0.1-1.413,0.801-1.304,0.979c0.533,0.867,1.487,0.047,1.666-0.429
	C36.169,160.51,35.851,160.231,35.667,160.334z M84.786,76.25l-0.095,0.02C84.772,76.369,84.751,76.376,84.786,76.25z
	 M86.223,62.296c0.534,0.028,1.147-0.71,1.071-0.835C86.587,60.308,85.083,62.237,86.223,62.296z M91.929,60.298
	c-0.157-0.027-0.116-0.049-0.212,0.122C91.895,60.515,91.849,60.538,91.929,60.298z M96.241,59.394
	c-1.422-2.309-2.496,0.992-1.324,0.716C95.114,60.064,96.444,59.719,96.241,59.394z M93.841,128.293
	c0.566-0.108,0.984,0.077,1.372-0.231C95.616,127.741,94.511,127.543,93.841,128.293z M98.869,58.754
	c-0.042-0.247-0.348-0.206-0.343-0.018C98.535,59.026,98.892,58.902,98.869,58.754z M104.949,56.407
	c-0.038,0.235,0.222,0.562,0.391,0.564c2.804,0.038,2.298-1.04,1.855-1.024C105.212,56.014,105.021,55.946,104.949,56.407z
	 M105.81,55.328c0.538,0.542,1.223-0.331,0.861-0.698C106.169,54.118,105.452,54.965,105.81,55.328z M113.579,120.668
	c0.163-0.094,0.191-0.577-0.119-0.58C111.207,120.062,110.967,122.186,113.579,120.668z M112.861,119.177
	c0.142-0.061,0.171-0.154,0.07-0.263c-0.136-0.147-0.214,0.013-0.343,0.165C112.679,119.11,112.769,119.144,112.861,119.177z
	 M114.758,120.437c1.006,1.481,0.517-0.1,2.104-0.084c0.083,0.001,0.176-0.145,0.246-0.235c0.072-0.096-0.095-0.375-0.271-0.448
	c-0.377-0.156-0.296-0.302-1.829,0.014C114.685,119.751,114.561,120.148,114.758,120.437z M122.829,121.208
	c0.121-0.102,0.095-0.416-0.055-0.446c-0.636-0.125-0.809-0.128-0.977,0.411C121.724,121.41,122.273,121.676,122.829,121.208z
	 M124.464,120.417c-0.099-0.105-0.073-0.114-0.105,0.028L124.464,120.417z M104.234,52.001c-0.336-0.09-0.683,0.652-0.404,0.738
	C104.495,52.939,104.782,52.148,104.234,52.001z M86.146,131.78c0.232-0.073,0.462-0.146,0.689-0.218
	c2.817-1.479,2.444-1.293,2.85-1.981c-0.35-0.017-0.613-0.088-0.843-0.03c-3.446,0.865-3.552,0.953-3.479,1.215
	C85.546,131.428,85.855,131.721,86.146,131.78z M37.452,150.384c1.22-0.265,0.888-1.12,0.52-1.083
	C35.934,149.498,36.764,150.532,37.452,150.384z M39.381,148.44c0,0-0.079,0.057-0.209,0.135c0.103,0.099,0.199,0.203,0.26,0.322
	c0.545,1.067,2.142,0.055,2.735-1.193c-0.041-0.018-0.08-0.034-0.125-0.054c-0.467,0.354-0.646,0.695-1.135,0.6
	c-0.955-0.184-1.112,0.058-1.112,0.058c-0.035-0.212-0.041-0.763-0.381-0.649C39.12,147.758,39.327,148.232,39.381,148.44z
	 M127.047,45.868c1.333-0.214,7.331-1.312,6.312-2.129c-0.292-0.235-0.662-0.412-0.868-0.705c-0.318-0.447-0.685-0.48-1.137-0.361
	c-0.193,0.34-0.13,0.919-0.808,0.872c-0.697-0.047-1.356,0.32-2.071,0.205c-0.161-0.026-0.374,0.089-0.52,0.196
	C126.5,45.016,126.671,45.134,127.047,45.868z M123.825,109.895c-0.146-0.531-1.097-0.204-0.996,0.285
	C122.956,110.798,124.007,110.565,123.825,109.895z M122.69,46.833c-0.072-0.206-0.151-0.37-0.146-0.493
	c0.01-0.008,0.015-0.013,0.023-0.021c0.006-0.036,0.015-0.065,0.022-0.098c0.042-0.051,0.117-0.091,0.24-0.121
	c0.306-0.075,1.301-0.711,0.885-1.171c-0.181-0.201-0.861,0.014-1.125,1.292c-0.029,0.034-0.043,0.073-0.045,0.119
	c-1.137,0.987-1.123,0.433-1.781,0.885C120.386,47.487,120.923,48.4,122.69,46.833z M122.131,116.053
	c-0.407,0.477,0.065,0.528,0.125,0.069C122.259,116.105,122.139,116.045,122.131,116.053z M120.157,117.725
	c0.68,1.64,1.549,0.109,2.364,0.532c0.017,0.606-0.058,0.936,0.416,1.133c0.835,0.35,1.258-0.382,1.993-0.342
	c0.097,0.004,0.247-0.118,0.292-0.218c0.282-0.621,0.874-0.884,1.389-1.236c0.453-0.309-0.288-1.091-0.812-1.159
	c-2.077-0.272-1.449-0.357-2.022,0.865c-0.437,0.93-1.084,0.107-1.583,0.216c-1.305,0.282-0.889-0.557-1.847-0.508
	C119.798,117.037,120.077,117.539,120.157,117.725z M113.828,46.863c0.467,0.604,1.245,0.107,1.018-0.185
	C114.397,46.102,113.572,46.532,113.828,46.863z M82.077,55.543c2.116,1.061,1.048,1.385,0.602,1.722
	c-0.443,0.335,0.392,0.646,0.533,0.987c0.371,0.898,1.808,0.969,1.69,0.284c-0.078-0.454-0.299-0.887,0.008-1.026
	c0.425-0.194,0.648,0.74,1.317,0.058c1.032-1.048,1.285,0.65,2.059,0.503c0.911-0.173,1.055,0.279,1.876,0.012
	c0.437-0.141,2.72-1.158,3.435-0.968c1.782-0.703,1.8-1.454,4.096-1.108c0.651,0.097,0.74-0.764,1.967-1.36
	c2.623,0.737,3.866-1.425,2.889-1.29c-0.261,0.036-0.786,0.459-1.043,0.11c-0.273-0.372,0.803-0.786,1.013-1.502
	c0.08-0.275,0.678-0.353,2.52-0.741c0.762-0.16,0.36,1.643,1.435,0.926c1.483-0.986,1.378-0.21,2.868-0.93
	c0.834-0.402,1.75-0.342,2.617-0.539c0.493-0.112,1.921,1.371,1.155-0.479c8.918-2.872,5.898-1.797,5.06-3.352
	c-0.097-0.178-0.806,0.026-1.051,0.224c-0.216,0.172,0.134,0.9-0.71,1.189c-1.047,0.359-1.407-0.291-2.194-0.402
	c-0.431-0.061-0.882,0.016-1.324,0.032c-0.403-0.7-0.563-0.808-1.13-0.58c-3.507,1.419-4.584-0.12-4.859,1.681
	c-0.037,0.24-0.041,0.33-0.037,0.357c-1.625,1.482-0.721,1.24-4.603,0.71c-1.43-0.195-0.272,1.628-0.946,1.312
	c-0.557-0.263-1.232-0.372-1.462-1.092c-0.234-0.728-5.212,1.438-6.827,1.357c-0.586-0.03-0.562,0.773-1.281,0.69
	c-1.013-0.117-1.8,0.545-2.707,0.794c-0.076,0.021-0.15,0.215-0.141,0.322c0.035,0.428,0.664,0.278,0.842,0.642
	c0.06,0.122-0.035,0.302-0.1,0.302c-1.546,0.027-1.601-0.888-2.533-0.559C85.093,54.542,83.422,54.179,82.077,55.543z
	 M79.155,133.113c-0.119-0.134-0.738-0.504-1.146-0.081c-0.247,0.257-0.425,0.326-0.632,0.335c0.527,0.347,0.598,1.236,1.867,0.739
	c0.329-0.129,0.676-0.257,1.03-0.386c0.023-0.034,0.031-0.069,0.036-0.113c0.214-1.654,2.783-0.559,2.097-1.384
	c-0.244-0.294-0.427-0.65-0.918-0.478C80.465,132.105,79.731,131.924,79.155,133.113z M64.004,63.407
	c1.299,0.124,2.021-0.75,3.378-0.575c1.235,0.159,3.296-1.429,2.171,0.121c-0.69,0.95,2.949,0.064,3.109-0.628
	c0.151-0.652-0.957-0.133-1.305-0.575c2.084-2.834,1.97-0.899,3.295-1.288c2.21-0.651-0.456,0.245-0.267,1.55
	c0.064,0.433,1.269-0.16,1.579-0.303c3.504-1.627,3.889-0.95,4.267-2.214c-0.816-0.627-0.929-0.573-0.154-0.741
	c1.19-0.26,0.93-1.199,0.712-1.053c-0.58,0.393-1.195,0.281-1.814,0.133c-0.231-0.055-0.652,0.226-1.384-0.506
	c-0.433-0.433-1.386,0.138-1.529,0.346c-0.553,0.826-1.149,0.198-1.524,0.371c-2.216,1.017-2.188,1.349-2.932,1.149
	c-0.255-0.069-0.493,0.055-0.721,0.197c-3.01,1.885-2.927-0.077-4.974,2.913c-0.611-0.024-1.669-0.229-2.111,0.497
	C63.645,63.056,63.805,63.387,64.004,63.407z M60.993,64.483c0.06,0.208,0.118,0.45,0.198,0.684c0.282,0.803,1.928-0.44,1.989-1.414
	C63.237,62.806,61.642,63.226,60.993,64.483z M60.209,65.441c0.135-0.378-0.946-0.948-2.343,0.155
	C57.187,66.13,59.738,66.762,60.209,65.441z M49.871,66.331c0.072,0.187,0.76,0.117,0.785-0.41
	C50.684,65.278,49.67,65.812,49.871,66.331z M47.773,67.36c0.189,0,0.506-0.34,0.335-0.516C47.509,66.221,46.793,67.36,47.773,67.36
	z M35.813,78.307c0.168-0.119-0.007-0.375-0.223-0.243C35.431,78.162,35.593,78.465,35.813,78.307z M35.412,77.583
	c0.083-0.056,0.123-0.484,0.036-0.532c-0.105-0.057-0.263-0.143-0.341-0.103c-0.444,0.226-0.893,0.453-1.295,0.744
	c-0.959,0.695-2.15,0.344-2.048,1.494c0.018,0.206,1.185-0.004,2.019-0.742C34.59,77.735,34.798,77.997,35.412,77.583z
	 M32.553,151.617l-0.118,0.02C32.535,151.785,32.507,151.787,32.553,151.617z M27.972,157.317c3.456-2.269,3.969-3.032,4.645-3.499
	c-1.113,0.329-3.115,0.47-4.397,0.9c-0.401,0.134-1,0.348-1.698,0.588C27.426,156.401,26.063,156.868,27.972,157.317z
	 M35.738,217.315c-0.02-0.188-0.435-0.144-0.266,0.121C35.516,217.509,35.75,217.441,35.738,217.315z M36.893,167.789
	c0.489-0.19-0.072-1.285-0.772-1.129c-3.239,0.727-2.355,0.31-3.329,1.016c-0.454,0.327,0.424,1.236,0.942,1.128
	C34.989,168.542,35.135,168.467,36.893,167.789z M38.243,168.59c-1.495-0.204-2.076,1.66-1.386,1.854
	C38.259,170.84,39.249,168.727,38.243,168.59z M39.857,228.815c-0.615-0.312-1.282-0.242-1.927-0.33
	c-0.255-0.034-0.639,0.589-0.184,0.805c1.477,0.699,1.605,0.781,2.174,0.295C40.137,229.399,40.079,228.928,39.857,228.815z
	 M41.214,224.2c0.009-0.164-0.328-0.66-0.49-0.672c-2.721-0.186-3.055-0.255-3.043,0.157c0.021,0.789,1.192,1.721,1.651,1.299
	C40.001,224.371,41.171,224.875,41.214,224.2z M59.734,237.574l0.02,0.122C59.895,237.595,59.9,237.625,59.734,237.574z
	 M131.045,217.812c-0.211,0.112-0.193,0.518,0.144,0.63C131.991,218.709,132.361,217.119,131.045,217.812z M133.81,216.111
	c-0.256-0.084-0.569-0.027-0.846,0.022c-0.104,0.017-0.192,0.184-0.259,0.3c-0.099,0.18,0.717,0.808,0.89,0.919
	C134.442,217.913,136.446,216.964,133.81,216.111z M136.527,216.716c0.021-0.214-0.426-0.312-0.313,0.044
	C136.245,216.863,136.514,216.847,136.527,216.716z M142.243,215.067c0.172-0.781-2.574-0.292-3.827,0.553
	c-0.203,0.137-0.873,1.674,3.778-0.359C142.231,215.245,142.226,215.134,142.243,215.067z M172.744,201.347
	c-0.042-0.353-0.02-0.389-0.69-0.399c-0.176-0.001-0.318,0.301-0.026,0.415C172.25,201.449,172.775,201.59,172.744,201.347z
	 M193.449,194.167c-0.106-0.467-0.906-0.384-0.879,0.137C192.592,194.754,193.556,194.649,193.449,194.167z M197.137,192.849
	c-1.476-0.122-3.164,0.572-2.737,1.137c0.454,0.595,0.531,0.444,1.267,0.392c0.433-0.171,0.811-0.255,1.112-0.46
	C197.163,193.657,197.482,192.877,197.137,192.849z M204.422,117.044c1.113-1.751-0.703-1.232-2.53-0.518
	c-2.19,0.855-1.376-0.691-2.575-0.332c-0.592,0.18,0.648,0.817-0.303,1.181c-0.361,0.137-1.17,0.46-0.955,1.016
	c0.24,0.629,2.986-0.233,3.651-0.801c0.5-0.426,0.962-0.257,1.476,0.017c-0.465,0.578-1.079,1.181-0.705,1.407
	c1.163,0.701,1.539,0.588,2.175-0.068C205.546,118.037,203.912,117.845,204.422,117.044z M207.222,111.952
	c0.445-0.212,0.479,0.223,0.608,0.437c0.627,1.027,0.438-0.582,1.999-0.969c0.417-0.103,0.787-0.198,1.128-0.288
	c-0.098-0.088-0.203-0.183-0.326-0.29c-1.529,0.636-0.782,0.399-2.192,0.409c-1.518,0.01-1.068,1.062-2.021,0.781
	c-0.519-0.153-0.555,0.25-0.708,0.539c0.044,0.007,0.083,0.007,0.128,0.016C206.289,112.678,207.007,112.053,207.222,111.952z
	 M207.732,117.173c-0.434-0.019-0.688,0.548-0.556,0.732c0.228,0.321,0.904,0.389,1.136,0.101
	C208.569,117.689,208.326,117.202,207.732,117.173z M225.654,183.953c-0.162-0.395-0.457-0.581-0.891-0.541
	c-0.57,0.053-1.195-0.31-1.708,0.212c-0.965-0.017-1.749,0.809-2.778,0.569c-0.779-0.184-0.27,1.898-1.129,1.547
	c-0.277-0.115-1.599-1-2.485-0.25c-0.485,0.409-1.128-0.477-1.675,0.124c-0.311,0.341-0.646,0.577-1.137,0.602
	c-0.267,0.014-0.365,0.342-0.206,0.524c0.199,0.226,0.504,0.403,0.602,0.663c0.672,1.789,2.514-0.855,2.2,1.202
	c-0.102,0.674,0.758,0.352,1.261,0.265c0.548-0.095,0.628,0.472,0.749,0.689c0.42,0.749,0.654,0.339,2.393-0.219
	c1.129-0.363,0.822-1.534,1.664-1.267c0.487,0.157,0.816,0.033,1.191-0.32c0.24-0.226,0.703-0.197,1.053-0.316
	c0.311-0.105,0.393-0.492,0.152-0.704c-0.219-0.193-0.503-0.326-0.457-0.712C224.751,185.844,226.218,185.347,225.654,183.953z
	 M225.14,113.312c0.406-0.149,0.068-0.577-0.176-0.574C223.911,112.753,223.281,114,225.14,113.312z M228.507,111.031
	c-0.74-3.337-1.725-0.224-2.666-1.706c-0.424-0.663-0.918-0.161-1.144-0.099c-0.397,0.11-1.312-0.368-0.803-1.107
	c0.299-0.433,0.639-0.839,0.924-1.283c0.137-0.216,0.161-0.386,0.109-0.519c-0.09,0.009-0.181,0.009-0.269,0.039
	c-0.82,0.28-0.619,0.839-0.643,1.404c-0.006,0.164-0.301,0.266-0.449,0.147c-0.189-0.152-0.363-0.323-0.562-0.504
	c-0.07,0.366-0.09,0.956-0.482,1.228c-0.107,0.075-0.191,0.116-0.286,0.172c0.439,0.242,0.351,0.76-1.457,1.385
	c-2.35,0.815,0.062,0.348-3.891,1.663c-1.84,0.613-2.144,0.991-2.989,0.617c-0.862-0.381-2.55-0.235-2.97,0.727
	c-0.641,1.464-1.201-0.018-2.414,0.161c-0.339,0.049-0.571,0.397-0.383,0.652c0.31,0.415,0.467,0.757,0.015,1.164
	c-0.105,0.096,0.199,0.496,0.352,0.467c3.951-0.758,3.392-0.019,4.045-0.826c0.894-1.104,2.18,0.667,3.92-1.034
	c0.554-0.541,1.022,0.953,2.937,0.733c0.836-0.094,1.554-0.437,2.199-1.021c0.992-0.897-0.597-2.155,1.894-1.14
	c0.858,0.349,0.663-0.743,1.609-0.879c1.031-0.147,1.004-0.746,1.867-0.233C227.849,111.762,228.558,111.266,228.507,111.031z
	 M228.697,186.218c-0.016-0.009-0.023-0.011-0.035-0.016c-0.002-0.02-0.004-0.033-0.008-0.034c-0.168-0.032-0.195,0.021-0.078,0.137
	c0.018-0.014,0.035-0.026,0.057-0.04c0.008,0.016,0.016,0.03,0.027,0.05c0.002-0.02,0.004-0.046,0.004-0.072
	C228.675,186.235,228.687,186.226,228.697,186.218z M230.238,182.166c0.275-0.134,0.006-0.816-0.719-0.73
	c-0.522,0.063-1.996,0.745-1.664,1.171C228.329,183.224,229.49,182.532,230.238,182.166z M232.314,184.821
	c-0.85-0.126-2.332,0.284-2.25,1.107c0.016,0.156,0.566,0.13,0.904,0.142c0.469-0.238,0.99-0.501,1.512-0.772
	C232.728,185.166,232.532,184.851,232.314,184.821z M234.577,184.072c-0.219-0.26-0.881,0.216-0.533,0.42
	C234.527,184.776,234.749,184.272,234.577,184.072z M232.552,180.397c-1.289,0.394-0.053,2.449,0.705,2.164
	C235.558,181.702,235.257,179.571,232.552,180.397z M237.091,179.782c-0.039-0.373-0.908-0.735-1.625,0.146
	c-0.158,0.193,0.082,0.671,0.344,0.698C236.714,180.719,237.138,180.204,237.091,179.782z M236.773,175.919
	c0.121,0.137,0.309,0.206,0.469,0.302C237.991,175.081,236.407,175.507,236.773,175.919z M237.9,173.644
	c-0.541,0.008-1.361,0.499-0.963,0.797C237.974,175.216,238.833,173.627,237.9,173.644z M248.48,102.426
	c0.85,0.217,1.203,0.068,4.609-0.724c2.596-0.6,1.961-1.603,2.618-2.42c-2.748,0.712-5.254,1.574-5.378,1.627
	c-0.976,0.411-1.244-0.016-3.764,0.705c-10.863,3.108-6.029,1.417-8.17,1.987c-0.42,0.112-0.779,0.435-1.195,0.584
	c-0.122,0.044-0.246,0.081-0.37,0.122c0.315,0.086,0.872,0.102,2.043-0.085c0.924,0.895,1.91,1.34,3.117,1.066
	c0.9-0.206,1.309,0.199,1.315,0.467c0.012,0.368-0.387,0.326-2.453,0.587c-1.043,0.131-0.731-0.063-4.32,1.141
	c-0.225,0.074-0.33,0.427-0.014,0.684c0.748,0.608,4.756-0.052,5.994-0.81c0.793-0.486,0.394,0.054,2.281-0.815
	c0.529-0.791,1.223-0.043,2.213-0.829c0.131-0.103,0.1-0.542-0.057-0.616c-0.272-0.126-0.547-0.26-0.83-0.331
	c-0.338-0.082-0.713,0.275-1.084-0.117c-0.392-1.328-0.572-1.672-0.25-1.884c0.445-0.293,0.965-0.583,1.473-0.416
	C247.011,102.598,247.726,102.235,248.48,102.426z M239.353,106.049c0.01-0.185-0.451-0.27-0.451,0.08
	C238.9,106.334,239.337,106.382,239.353,106.049z M250.378,103.629c-0.406,0.212-2.113,1.051-2.084,1.49
	c0.021,0.389,0.014,0.298,2.701-0.305C251.806,104.631,251.068,103.271,250.378,103.629z M257.525,159.384
	c1.014,0.318,1.08-0.906,2.795-1.16c0.314-0.047,0.525-0.252,0.707-0.502c0.889-1.223,1.248-1.27,0.428-2.287
	c-1.002-1.247-1.857,0.348-2.213,0.801c-0.18,0.224-0.836-0.073-0.732-0.49c0.076-0.289,0.23-0.556,0.311-0.844
	c0.078-0.277-0.307-0.643-0.553-0.515c-0.522,0.274-1.197,0.203-1.615,0.695c-1.729,2.028-4.877,1.275-4.664,3.601
	c0.065,0.739,2.391,0.067,2.895,0.272C255.743,159.308,256.661,159.111,257.525,159.384z M257.982,165.47
	c-0.15,0.277,0.465,0.668,0.738,0.368C259.146,165.37,258.296,164.868,257.982,165.47z M265.359,173.086
	c-0.234,0.138-0.002,0.674,0.287,0.528C265.931,173.469,265.577,172.959,265.359,173.086z M264.302,171.272
	c-2.19,0.808-1.49,0.377-2.6,1.879c-0.287,0.384-0.533,0.592-0.752,0.057c-0.356-0.87-0.568-0.712-3.629,0.143
	c-0.549,0.154-0.244,1.469,0.545,1.514c4.4,0.261,4.436,0.466,4.664-0.089c0.219-0.523-0.045-1.529,1.037-1.795
	c4.355-1.076,5.236-1.664,6.394-2.469c0.209-0.147,0.121-0.604-0.182-0.7c-0.863-0.271-1.309,0.479-2.856,0.97
	C266.3,170.978,264.339,171.258,264.302,171.272z M266.638,97.532c0.273-0.414,0.264-0.964,0.303-1.39
	c-0.873,0.216-1.398,0.386-1.928,0.666c-0.566,0.299-1.205,0.448-1.859,0.431c-1.772-0.047-1.44,0.839-3.295,1.181
	c0.025,0.103,0.044,0.217,0.051,0.356c0.059,1.138,1.1,0.539,3.277,0C264.39,98.481,265.804,98.36,266.638,97.532z M264.898,157.24
	c0.043,0.101,0.508,0.175,0.572,0.081C266.152,156.286,264.128,155.451,264.898,157.24z M269.31,154.999
	c0.047,0.047,0.09,0.128,0.139,0.132C269.802,155.167,269.718,154.564,269.31,154.999z M270.39,102.498
	c-4.801,1.078-4.807,1.302-5.334,2.849c-0.254,0.746,2.508-0.315,4.547-1.004c0.24-0.082,1.09-1.024,1.25-1.219
	C271.183,102.719,270.618,102.447,270.39,102.498z M273.501,154.208c0.795-0.526,0.85-0.241,0.83-0.825
	c-0.006-0.145-1.299-0.204-2.486,0.632C271.189,154.475,272.611,154.801,273.501,154.208z M276.915,155.114
	c-0.369-1.224-1.025-2.234-3.277-0.083c-0.242,0.23-0.266,1.147,0.527,1.064C275.761,155.928,276.667,155.925,276.915,155.114z
	 M276.087,153.082c0.303,0.162,0.693-0.076,0.709-0.258c0.02-0.224-0.35-0.478-0.668-0.308
	C275.939,152.618,275.915,152.993,276.087,153.082z M287.245,151.762c-0.592-0.523-0.078-0.408-1.564-0.307
	c-0.688,0.046-1.336-0.068-1.896-0.586c-2.523,1.971-0.863-0.04-4.322,0.424c-0.219,0.029-0.332-0.277-0.188-0.529
	c0.111-0.195,0.287-0.355,0.377-0.557c0.271-0.61-0.834-1.164-1.416-0.981c-2.227,0.706-2.815,0.921-2.652,1.594
	c0.135,0.578,0.561,0.421,2.455,0.762c0.92,0.167,0.117,1.523,1.56,1.172c0.396-0.097,0.588,0.069,0.756,0.304
	c0.262,0.361-0.338,0.407-1.522,1.051c-0.09,0.047-0.072,0.554,0.092,0.558c1.315,0.03,1.576-0.315,3.775-1.292
	C285.708,152.04,283.618,154.315,287.245,151.762z M284.82,150.967c-0.074-0.101-0.166-0.185-0.254-0.275
	C284.189,151.237,284.97,151.174,284.82,150.967z M289.065,89.321c-0.176,0.056-0.276-0.071-0.38-0.234
	c-1.06-0.293-3.427,0.898-4.253,1.321c-0.031,0.016-0.063,0.027-0.094,0.041c-0.255,0.327-0.424,0.6-0.982,0.802
	c-6.4,2.311-6.432,2.221-6.736,2.149c-1.037-0.247-2.027,0.125-3.039,0.182c-0.986,0.055-0.839,0.749-1.466,1.207
	c0.095,0.049,0.191,0.109,0.288,0.184c0.197,0.154,0.572,0.061,0.865,0.096c0.658,0.08,1.314,0.028,1.982,0.299
	c0.748,0.304,1.455-0.066,2.074-0.533c1.141-2.327,4.871-0.788,5.66-2.478c0.598-1.273,1.15-0.561,3.916-1.936
	C288.339,89.704,289.354,89.713,289.065,89.321z M291.798,154.363c-0.701-0.67-2.502,0.05-3.039,0.58
	c-0.416,0.408,0.355,1.057,2.488,0.239C291.812,154.963,291.947,154.5,291.798,154.363z M295.505,147.215
	c-0.434-0.264-0.449-0.312-2.578,0.667c-0.119,0.055-0.188,0.496,0.057,0.473l2.348-0.241
	C295.568,148.077,295.857,147.432,295.505,147.215z M296.765,147.799c0.498,0.269,0.688,0.503,0.885,0.043
	c0.082-0.192-0.107-0.435-0.326-0.388C297.156,147.489,297.019,147.635,296.765,147.799z M297.925,149.382
	c0.109-0.284-0.547-0.616-0.738-0.082C297.089,149.581,297.714,149.923,297.925,149.382z M298.16,152.034
	c0.156-0.516-1.213-0.32-0.256,0.3C297.993,152.235,298.124,152.15,298.16,152.034z M300.402,148.627
	c0.312-0.615-1.346-0.688-1.377,0.431C299.013,149.425,299.997,149.411,300.402,148.627z M302.177,161.576
	c-0.268,0.047-0.098,0.364,0.125,0.218C302.398,161.734,302.37,161.543,302.177,161.576z M309.154,150.368
	c-3.197,0.891-0.91,0.494-5.029,1.784c-4.519,1.416-4.65,1.51-4.572,2.493c0.088,1.089,1.185,0.103,1.867,0.179
	c0.957,0.109,1.725-0.241,2.459-0.731c-0.004,0.007-0.006,0.015-0.012,0.022c0,0.002,0,0.002,0,0.002
	c-1.1,1.251-1.18,0.646-1.16,1.338c0.004,0.144,2.533-0.752,3.775-1.066c0.721-0.18,0.764-1.576-1.162-0.236
	c-0.508,0.353-0.971,0.288-1.453-0.036c0.014-0.015,0.023-0.026,0.039-0.042c-0.008,0.005-0.018,0.011-0.027,0.017
	c0.109-0.188,0.191-0.486,0.328-0.512c2.588-0.471,1.703-1.282,3.072-1.594c0.75-0.169,1.562-0.558,2.26-0.932
	C310.257,150.668,309.419,150.292,309.154,150.368z M316.417,67.156c-0.088-0.194-0.244-0.11-0.252,0.036
	C316.15,67.462,316.54,67.423,316.417,67.156z M317.87,68.663c-0.035,0.084,0.111,0.239,0.221,0.153
	C318.238,68.701,318.015,68.336,317.87,68.663z M325.234,145.278c-0.502-0.183-0.324-0.218-0.652,0.161
	C325.023,145.616,324.892,145.648,325.234,145.278z M326.449,143.071l-0.033-0.151C326.247,143.054,326.236,143.019,326.449,143.071
	z M329.884,125.407c-0.398,0.106-0.393,0.41-0.119,0.559C330.134,126.163,330.376,125.277,329.884,125.407z M339.312,123.318
	l0.133-0.021C339.333,123.137,339.366,123.135,339.312,123.318z M339.156,111.434c-0.273,0.471,0.607,0.723,0.945,0.159
	C340.249,111.349,339.447,110.933,339.156,111.434z M228.632,186.265c0.01-0.009,0.021-0.015,0.031-0.022
	c0-0.016,0-0.029-0.002-0.041C228.597,186.165,228.585,186.187,228.632,186.265z M161.493,212.723
	c-2.377,0.739-1.451,1.058-3.023,1.391c-0.211,0.044-1.528,0.219-1.786,0.146c0.003-0.023,0.003-0.068,0.003-0.15l-0.043,0.128
	c-0.446,0.45-0.442,0.451-0.829,0.094c-0.629-0.581-1.082,0.171-1.121,0.434c-0.051,0.365,0.001,0.748,0.017,1.29
	c0.82-0.262,1.585-0.504,2.368-0.674c3.229-0.705,2.408-1.236,3.932-1.569c1.69-0.37,2.982-1.433,4.765-1.937
	c6.821-1.922,13.668-5.579,12.378-5.426C175.631,206.771,167.465,210.868,161.493,212.723z M286.589,171.264
	c-0.65,0.143-1.463-0.309-1.615-0.445c-0.295,0.542,0.162,0.082-1.99,1.271c-2.055,1.134,0.547,1.423-0.982,2.148
	c-0.746,0.356-1.404,0.329-1.098,0.778c0.191,0.28-0.07,0.062,1.895,0.438c0.578,0.111,1.137,0.325,1.723,0.329
	c0.231-0.393,0.354-0.821,0.955-0.765c0.299,0.026,1.744-0.362,1.139-0.808c-0.752-0.553-0.537-0.95-0.387-2.084
	c0.41,0.111,2.23,1.198,2.883,0.029c0.059-0.107,0.092-0.358,0.076-0.364C288.345,171.486,287.505,171.06,286.589,171.264z
	 M284.974,170.819c0.006-0.008,0.01-0.016,0.016-0.028C284.935,170.773,284.935,170.787,284.974,170.819z M307.222,165.794
	c-0.115-0.012-0.315-0.072-0.324-0.132c-0.055-0.368,1.021-0.56,0.627-0.963c-0.756-0.335-0.857,0.296-1.805,0.296
	c-0.566,0-1.125,0.329-1.742,0.223c-0.131-0.023-0.309,0.036-0.416,0.121c-0.5,0.391-1.066,0.474-1.682,0.488
	c-0.58,0.013-0.543,0.25-2.129,1.139c-0.25,0.139-0.08,0.9,0.297,0.864c0.959-0.09,1.018-0.66,1.869-0.155
	c0.982,0.579,0.789-1.446,2.221-0.85c0.736,0.307,1.637,0.306,2.143,1.104c0.029,0.045,0.146,0.053,0.213,0.041
	c0.367-0.07-0.057-0.7,1.268-0.53c0.342,0.044,0.564-0.229,0.539-0.552C308.238,166.059,308.068,165.893,307.222,165.794z
	 M261.615,179.643c-0.582,0.584-1.258,0.653-1.992,0.742c-0.461,0.057-1.19,0.871-0.773,1.069c1.721,0.812,1.096,0.512,2.227-0.371
	c0.471-0.37,0.768,0.089,1.93-0.23c0.406-0.113,0.361-0.705,0.199-0.908C262.824,179.47,262.005,179.253,261.615,179.643z
	 M253.931,181.556c-0.285-0.272-1.447,0.659-0.658,1.575c0.549,0.637,1.383-0.048,2.701-0.87c0.023-0.016,0.008-0.098,0.016-0.225
	C255.257,182.112,254.536,182.131,253.931,181.556z M296.2,169.753c-0.467-0.235-0.928-0.476-1.396-0.703
	c-0.547-0.269-1.414,0.871-0.385,1.387c0.859,0.433,0.641,0.642,1.205,0.947c0.244,0.133,0.766-0.049,0.523-0.384
	C295.833,170.564,295.974,170.156,296.2,169.753z M276.566,170.533c-0.852,0.16-1.049,1.262-0.748,1.284
	c0.435,0.032,0.869,0.017,1.205,0.017C277.962,171.396,279.491,169.979,276.566,170.533z M270.478,176.205
	c-1.791-0.448-1.453-0.537-2.133,0.508c-0.055,0.085-0.143,0.338-0.076,0.394c0.773,0.632,1.486-0.167,2.189-0.424
	C270.576,176.64,270.693,176.259,270.478,176.205z M67.928,248.616c0.037,0.153,0.466,0.241,0.579,0.123
	c0.254-0.268,0.493-0.55,0.735-0.828c0.323-0.366,0.135-1.082,0.135-1.082C68.902,247.878,67.758,247.866,67.928,248.616z
	 M26.518,165.572c-0.075,0.086-0.057,0.258-0.092,0.456c0.43-0.065,0.875,0.014,1.169-0.382
	C28.022,165.069,27.049,164.968,26.518,165.572z M238.372,183.365c-0.248,0.268,0.295,0.864,0.74,0.664
	C239.716,183.756,238.939,182.756,238.372,183.365z M278.54,158.016c0.451,0.022,0.154,0.279,1.209-1.042
	C278.275,157.777,278.576,157.516,278.54,158.016z M60.526,252.78c0,0.251,0.954,0.081,1.101-1.021
	C61.714,251.1,60.527,251.476,60.526,252.78z M190.416,201.46c0.425,0.083,0.772-0.096,1.112-0.315
	C191.112,201.1,190.735,201.169,190.416,201.46z M312.671,62.86c0.158-0.304-0.842-0.377-0.818,0.269
	C312.478,63.184,312.456,63.279,312.671,62.86z M291.925,170.913c-0.498,0.244-0.195,0.793,0.115,0.696
	C292.693,171.407,292.292,170.736,291.925,170.913z M312.115,162.569c0.01-0.102-0.135-0.223-0.213-0.336
	C311.13,162.954,312.087,162.86,312.115,162.569z M276.728,174.166c-0.211,0.124-0.152,0.475,0.109,0.375
	C277.122,174.437,277.046,173.978,276.728,174.166z M321.859,154.542c0.022,0.087,0.199,0.136,0.348,0.227
	c0.697-0.434,0.508-0.265,0.578-0.713c-0.137-0.022-0.279-0.077-0.408-0.056C322.025,154.055,321.812,154.363,321.859,154.542z
	 M25.812,164.459c0.093-0.119,0.057-0.425-0.18-0.402C24.479,164.182,24.874,165.694,25.812,164.459z M331.214,142.56
	c0.084,0.115,0.164,0.229,0.246,0.345c0.094-0.091,0.219-0.165,0.277-0.277c0.096-0.176,0.004-0.316-0.188-0.285
	C331.431,142.363,331.325,142.483,331.214,142.56z M325.624,152.692c0.211-0.189,0.182-0.105,0.062-0.314
	C325.493,152.544,325.503,152.48,325.624,152.692z M256.204,180.162c0.111,0.134,0.475-0.034,0.525-0.154
	C256.943,179.474,255.923,179.826,256.204,180.162z M187.216,202.821c-0.107,0.292,0.584,0.088,0.339-0.099
	C187.472,202.66,187.251,202.725,187.216,202.821z M180.46,205.413c0.425,0.051,0.475-0.141,0.302-0.215
	C180.693,205.167,180.585,205.196,180.46,205.413z M276.423,162.488c-0.094-0.36-0.373-0.01-0.242,0.12
	C276.285,162.713,276.447,162.581,276.423,162.488z M308.396,163.987c-0.199,0.385,0.529,0.43,0.494,0.071
	c-0.012-0.128-0.141-0.247-0.217-0.369C308.579,163.786,308.456,163.871,308.396,163.987z M205.028,195.657
	c-0.252,0.016-0.127,0.421,0.107,0.281C205.208,195.894,205.168,195.646,205.028,195.657z M271.63,176.981
	c0.197,0.104,0.137,0.108,0.31-0.026C271.73,176.837,271.814,176.834,271.63,176.981z M335.062,95.517
	c-0.047-0.005-0.105,0.079-0.158,0.123C335.193,95.785,335.408,95.561,335.062,95.517z M339.372,96.975
	c0.125-0.083,0.691-0.242,0.83-0.232C339.72,96.496,339.656,96.543,339.372,96.975z M72.493,244.761
	c-0.01,0.013-0.021,0.025-0.029,0.037C72.563,244.811,72.617,244.842,72.493,244.761z M72.121,245.019
	c0,0.002,0.117,0.055,0.132,0.038c0.076-0.08,0.143-0.169,0.211-0.259C72.349,244.783,72.174,244.793,72.121,245.019z
	 M70.761,246.001c0.146,0.439,0.205,0.383,0.302-0.005C71.161,245.607,70.711,245.85,70.761,246.001z M70.037,246.627
	c-0.346,0.106-0.66,0.199-0.664,0.201C69.38,246.828,69.693,246.734,70.037,246.627z M70.937,246.353
	c-0.006,0.002-0.478,0.146-0.9,0.274C70.463,246.499,70.934,246.355,70.937,246.353z M63.894,251.56
	c-0.001-0.002-0.002-0.002-0.005-0.005c0.003,0.017,0.007,0.027,0.009,0.039c0.002,0.02,0.003,0.039,0.008,0.065
	c0.039-0.005,0.082-0.004,0.122-0.006c0.002,0.001,0.003,0.001,0.004,0.004c0-0.004,0-0.004,0-0.005
	c0.027-0.002,0.051-0.007,0.071-0.021C64.394,251.419,63.859,251.046,63.894,251.56z M273.382,172.644l0.145,0.007
	C273.49,172.537,273.515,172.538,273.382,172.644z M22.88,158.872c0,0.269-0.011,0.195,0.147,0.224
	C23.033,158.824,23.046,158.898,22.88,158.872z M290.962,170.324l-0.123,0.024C290.945,170.483,290.917,170.485,290.962,170.324z
	 M326.652,148.676c0.018-0.201-0.115-0.141-0.191-0.116c0.014,0.042,0.031,0.08,0.057,0.107
	C326.54,148.694,326.652,148.68,326.652,148.676z M326.46,148.56c-0.01-0.023-0.018-0.049-0.027-0.072
	C326.384,148.58,326.411,148.579,326.46,148.56z M329.779,140.468c-0.057-0.002-0.111-0.005-0.168-0.007
	C329.704,140.479,329.825,140.523,329.779,140.468z M56.289,249.824c0.129-0.09,0.131-0.062-0.013-0.12L56.289,249.824z
	 M25.909,151.97l0.012,0.008c0.191-0.612,0.087-0.177-0.066-0.044C25.819,152.029,25.88,151.971,25.909,151.97z M44.28,233.726
	l0.075,0.057C44.376,233.755,44.406,233.754,44.28,233.726z M222.908,186.578c-0.643-0.092-1.31-0.08-1.9-0.439
	c-0.13-0.078-0.968,0.622-1.07,0.734c-0.114,0.123-0.081,0.393-0.116,0.626c1.814,0.308,1.447,0.412,3.172-0.546
	C223.064,186.917,223.016,186.595,222.908,186.578z M218.626,187.16c-0.696,0.004-1.035,0.88,0.172,0.388
	C219.016,187.462,218.778,187.158,218.626,187.16z" class="color c1"/>
</svg>