<svg version="1.1" id="图层_1" x="0px" y="0px" width="217.521px" height="78.67px" viewBox="0 0 217.521 78.67" enable-background="new 0 0 217.521 78.67" xml:space="preserve" xmlns:xml="http://www.w3.org/XML/1998/namespace" xmlns="http://www.w3.org/2000/svg" xmlns:xlink="http://www.w3.org/1999/xlink">
  <path fill="#F4C51D" d="M181.665,6.288c-7.037-3.354-16.734-5.927-23.41-6.207C92.012-2.688,58.097,66.662,0,78.479
	c17.07,1.386,32.055-5.034,45.29-11.817c25.379-13,46.141-35.08,72.825-44.231c-20.482,12.82-39.398,30.384-60.047,42.123
	c-6.238,3.549-12.851,6.752-18.207,11.057c6.873-2.735,14.016-3.877,20.727-6.726c24.797-10.518,44.682-31.505,71.885-38.37
	C108.683,41.947,91.735,65.144,66.11,73.406c25.685-1.339,46.905-21.712,68.473-30.109c-8.457,7.06-16.525,14.783-25.23,21.414
	c17.26-1.603,65.682-41.389,108.17-19.058C213.97,30.572,199.638,14.857,181.665,6.288z" class="color c1"/>
</svg>