<svg version="1.1" id="图层_1" x="0px" y="0px" width="104.732px" height="60.327px" viewBox="0 0 104.732 60.327" enable-background="new 0 0 104.732 60.327" xml:space="preserve" xmlns="http://www.w3.org/2000/svg" xmlns:xlink="http://www.w3.org/1999/xlink" xmlns:xml="http://www.w3.org/XML/1998/namespace">
  <path fill="#FFFFFF" d="M0,0.185l0.004,1.914c0.011,5.466,2.163,10.626,6.061,14.53c3.928,3.891,9.095,6.024,14.56,6.014l6.214-0.01
	c0.431,3.529,2.014,6.805,4.588,9.365c3.033,3.023,7.044,4.685,11.299,4.677l3.426-0.006c0.424,3.358,1.931,6.46,4.373,8.874
	c2.905,2.896,6.749,4.487,10.815,4.481l1.396-0.002c0.747,2.166,1.971,4.151,3.645,5.81c2.906,2.895,6.75,4.5,10.815,4.495
	l22.626-0.02c-0.606-1.262-1.156-2.558-1.646-3.881l-6.39,0.016l-4.312-6.445l8.848-0.012c-0.264-1.258-0.465-2.537-0.621-3.831
	L75.929,46.17l-6.384-9.543l8.675-0.016l17.33-0.007c0.115-1.293,0.287-2.568,0.508-3.829l-17.844,0.007l-19.088,0.035l-6.843-10.23
	l46.858-0.054c0.572-1.31,1.201-2.589,1.89-3.831L39.83,18.779L29.916,3.965c0,0,52.398-0.136,52.584-0.136
	c4.373-0.009,8.967,0.038,12.205,3.389c3.23,3.343,7.287,9.266,7.531,9.443c0.775-1.243,1.608-2.444,2.496-3.603
	c-1.233-1.715-3.705-5.072-6.529-8.122C94.238,0.656,88.199-0.01,82.496,0C82.297-0.001,0,0.185,0,0.185z M66.863,50.02
	l16.008-0.018l4.314,6.448l-9.996,0.017c-3.045,0.008-5.926-1.189-8.113-3.367C68.156,52.188,67.417,51.146,66.863,50.02z
	 M50.005,36.661l14.937-0.026l6.386,9.542l-9.996,0.019c-3.045,0.006-5.926-1.19-8.111-3.367
	C51.507,41.132,50.4,38.993,50.005,36.661z M30.692,22.626l16.991-0.031l6.841,10.231l-11.806,0.021
	c-3.23,0.005-6.281-1.26-8.59-3.561C32.281,27.446,31.096,25.131,30.692,22.626z M3.946,4.006l21.367-0.033l9.916,14.814
	l-14.612,0.026c-4.447,0.009-8.655-1.73-11.85-4.897C6.056,11.198,4.38,7.734,3.946,4.006z" class="color c1"/>
</svg>