<svg version="1.1" id="图层_1" x="0px" y="0px" width="274.955px" height="95.775px" viewBox="0 0 274.955 95.775" enable-background="new 0 0 274.955 95.775" xml:space="preserve" xmlns="http://www.w3.org/2000/svg" xmlns:xlink="http://www.w3.org/1999/xlink" xmlns:xml="http://www.w3.org/XML/1998/namespace">
  <g>
    <g>
      <g>
        <path fill="#FFFFFF" d="M273.9,0c0,0-43.778,38.621-72.901,41.121c0,0,3.144,33.01-19.245,34.934l1.682,19.619
				c0,0,43.111,2.09,53.583-12.701l-18.984-5.311c0,0,38.373-0.018,44.477-18.862l-24.601,2.113c0,0,32.18-5.584,37.045-27.143
				l-22.533,1.934C252.422,35.704,276.314,28.023,273.9,0z" class="color c1"/>
      </g>
    </g>
    <g>
      <g>
        <path fill="#FFFFFF" d="M1.057,0c0,0,43.777,38.621,72.901,41.121c0,0-3.143,33.01,19.247,34.934l-1.688,19.619
				c0,0-43.107,2.09-53.577-12.701l18.983-5.311c0,0-38.374-0.018-44.478-18.862l24.603,2.113c0,0-32.181-5.584-37.049-27.143
				l22.535,1.934C22.535,35.704-1.357,28.023,1.057,0z" class="color c1"/>
      </g>
    </g>
  </g>
</svg>