<svg version="1.1" id="图层_1" x="0px" y="0px" width="599.994px" height="291.059px" viewBox="0 0 599.994 291.059" enable-background="new 0 0 599.994 291.059" xml:space="preserve" xmlns="http://www.w3.org/2000/svg" xmlns:xlink="http://www.w3.org/1999/xlink" xmlns:xml="http://www.w3.org/XML/1998/namespace">
  <path fill="#D8AD5E" d="M594.077,6.854c-6.833,4.556-26.879,6.834-26.879,6.834H212.301V0.476l1.367-0.456c0,0,348.52,0,373.121,0
	C611.39-0.435,594.077,6.854,594.077,6.854z M82.916,252.413c0,0,15.034,3.189,24.602,9.566
	c9.567,5.923,30.979,23.234,34.624,25.058c3.189,1.822,15.945,10.022,35.08-4.101c19.134-13.667,19.59-16.856,19.59-16.856
	s-43.736-25.057-62.415-27.79C115.718,236.012,89.75,242.846,82.916,252.413z M266.97,216.422c0,0-77.904-25.058-94.761-26.424
	s-40.091-0.911-51.48,7.745c0,0-6.378,4.556-5.467,5.467c0.912,0.455,91.572,44.191,91.572,44.191s27.335,10.023,46.469-11.39
	C271.982,214.6,266.97,216.422,266.97,216.422z M543.508,30.089H211.845h-5.012c-18.679,96.128-95.672,172.209-200,206.379
	l-0.911,0.454C2.733,238.29,0,241.479,0,245.124c0,5.012,4.1,9.111,9.112,9.111c0.911,0,1.822,0,2.733-0.456
	c73.804-24.601,134.396-69.704,169.932-126.196l0.456-0.911c20.957-32.346,30.068-64.236,108.428-65.147s217.767,0,217.767,0
	s14.123-1.822,26.424-19.134C548.52,25.078,543.508,30.089,543.508,30.089z M224.146,143.984
	c-23.235,3.646-47.836,13.667-45.558,14.123c2.278,0.911,139.407,42.825,139.407,42.825s31.891,5.922,49.203-18.681
	c17.313-24.146,17.313-24.146,17.313-24.146S247.38,140.795,224.146,143.984z M264.692,87.493
	c-41.458,12.3-53.303,24.146-53.303,24.146l182.232,20.046c0,0,35.99,9.11,56.492-28.702l10.934-21.868
	C461.048,81.114,306.15,75.192,264.692,87.493z" class="color c1"/>
</svg>