<svg version="1.1" id="图层_1" x="0px" y="0px" width="169.46px" height="129.352px" viewBox="0 0 169.46 129.352" enable-background="new 0 0 169.46 129.352" xml:space="preserve" xmlns:xml="http://www.w3.org/XML/1998/namespace" xmlns="http://www.w3.org/2000/svg" xmlns:xlink="http://www.w3.org/1999/xlink">
  <path fill="#1A1A1A" d="M130.134,115.117c-1.354-1.006-2.615-1.859-3.834-2.416c-2.821-1.288-5.415-0.981-8.428,2.724
	c-0.354,0.439-0.845,0.776-1.302,1.12c-3.201,2.399-6.413,4.788-9.806,7.32C112.714,129.119,124.254,123.899,130.134,115.117
	 M122.039,128.097c6.635,4.352,15.357-3.406,18.789-11.248c-2.328-0.553-4.593-1.163-6.895-1.584
	c-0.587-0.108-1.52,0.186-1.896,0.631C128.678,119.89,125.408,123.959,122.039,128.097 M115.559,105.849
	c-0.79-0.774-1.58-1.337-2.377-1.703c-2.112-0.963-4.29-0.526-6.76,1.13c-0.741,0.499-1.54,0.924-2.343,1.316
	c-5.585,2.747-11.178,5.477-16.936,8.291c2.355,3.718,5.605,5.383,9.878,5.335c8.693-0.101,15.675-4.181,22.208-9.204
	C117.891,109.091,116.964,107.224,115.559,105.849 M103.151,94.044c-0.542-0.686-1.208-1.322-2.049-1.707
	c-0.782-0.356-1.716-0.494-2.842-0.235c-9.713,2.22-19.45,4.368-29.248,6.169c-4.629,0.85-9.41,0.854-14.761,1.296
	c1.071,1.786,1.547,2.838,2.249,3.706c4.022,4.977,9.533,7.244,15.67,7.589c12.875,0.724,24.774-2.639,35.442-9.283
	C106.066,98.887,104.892,96.24,103.151,94.044 M136.427,128.548c6.17,2.606,14.699-7.851,14.485-13.926
	c-2.332,0.854-4.82,1.729-7.28,2.675c-0.669,0.26-1.523,0.583-1.832,1.137C139.936,121.765,138.203,125.172,136.427,128.548
	 M149.337,124.895c5.258,0.482,10.222-4.771,10.721-11.614c-1.559,0.585-3.082,1.478-4.686,1.666
	c-1.41,0.166-1.911,0.686-2.396,1.891C151.886,119.538,150.589,122.151,149.337,124.895 M89.228,77
	c-0.461-0.423-0.906-0.722-1.36-0.929c-0.849-0.388-1.729-0.452-2.798-0.392c-12.593,0.713-25.184,1.592-37.789,1.885
	c-7.682,0.177-15.467-0.008-23.274-3.191c0.658,1.791,1.041,3.298,1.735,4.646c4.122,7.987,11.046,12.307,19.457,14.596
	c6.864,1.87,13.924,2.085,20.869,1.238c10.287-1.257,20.489-3.191,31.058-4.891c-1.712-2.842-3.551-4.734-3.994-6.917
	C92.574,80.314,91.117,78.728,89.228,77 M157.582,103.06c-1.367-0.68-2.733-1.357-4.013-1.993c-2.08,2.299-4.049,4.654-6.218,6.81
	c-2.189,2.176-4.578,4.154-7.004,6.329C147.609,116.016,152.791,112.163,157.582,103.06 M151.912,99.625
	c-1.393-1.043-2.714-2.03-4.11-3.075c-5.663,5.567-11.331,10.936-18.914,14.01c3.735,3.04,7.688,2.767,11.159,0.889
	C144.92,108.812,148.539,104.604,151.912,99.625 M153.694,112.214c3.685,2.184,9.76-3.383,10.572-9.473
	c-1.874,0.465-4.068,0.346-4.997,1.373C157.088,106.523,155.512,109.481,153.694,112.214 M146.856,95.409
	c-1.31-1.835-2.443-3.422-3.768-5.28c-8.051,5.131-15.316,11.523-25.004,13.301c1.385,4.531,6.193,6.508,11.079,4.067
	c4.217-2.106,8.159-4.793,12.101-7.417C143.261,98.75,144.983,96.998,146.856,95.409 M81.648,62.682
	c-0.654-1.77-1.652-2.897-3.05-3.535c-0.872-0.399-1.903-0.606-3.102-0.655c-5.5-0.234-11.001-0.529-16.486-0.979
	c-7.138-0.587-14.278-1.202-21.383-2.063C27.082,54.172,16.496,52.882,7.42,45.448c0.265,6.594,2.725,11.706,6.861,15.952
	c6.623,6.794,15.238,9.775,24.269,10.93c9.521,1.216,19.184,1.64,28.794,1.804c6.092,0.106,12.203-0.892,17.953-1.363
	C84.091,69.43,82.893,66.047,81.648,62.682 M141.919,88.294c-0.907-2.285-1.688-4.251-2.525-6.362
	c-10.816,5.021-21.015,10.593-33.67,12.124c2.212,2.097,3.73,4.06,5.704,5.292c3.813,2.384,8.007,1.938,11.863,0.103
	c4.508-2.143,8.851-4.638,13.169-7.149C138.412,91.166,140.129,89.625,141.919,88.294 M137.673,76.668
	c-0.356-1.077-0.826-2.118-1.262-3.214c-13.172,3.718-25.708,9.792-40.003,7.293c1.803,6.175,6.459,9.78,12.586,9.886
	c8.506,0.144,15.697-3.854,23.063-7.286c2.201-1.027,4.342-2.179,6.512-3.273C138.221,78.725,138.006,77.676,137.673,76.668
	 M134.036,66.379c-0.299-0.944-0.741-1.52-1.37-1.807c-0.523-0.239-1.181-0.279-1.992-0.167c-3.269,0.452-6.568,0.692-9.855,0.986
	c-11.973,1.07-23.992,2.989-35.615-2.085c-0.012,0.158-0.049,0.252-0.019,0.313c0.623,1.25,1.209,2.522,1.896,3.738
	c3.757,6.646,9.397,10.392,17.085,10.697c10.978,0.434,21.058-3.399,31.725-6.818C135.189,69.424,134.529,67.931,134.036,66.379
	 M13.676,19.041C8.128,13.835,4.49,7.308,0.721,0c-1.238,7.691-0.773,14.676,0.571,21.535c1.636,8.338,5.77,15.466,12.69,20.511
	c7.01,5.11,15.161,7.851,23.632,9.317c7.696,1.333,15.473,2.245,23.242,3.105c5.169,0.575,10.382,0.733,15.012,1.04
	c-1.369-4.594-2.675-9.04-4.024-13.474c-0.208-0.682-0.523-1.367-0.937-1.944c-1.515-2.116-3.091-4.194-4.868-6.587
	c-1.628-0.184-3.751-0.487-5.884-0.654c-10.665-0.844-21.369-1.335-31.629-4.888C22.926,26.024,17.986,23.083,13.676,19.041
	 M131.743,61.59c-1.814-3.655-3.943-6.86-7.478-8.475c-0.602-0.274-1.244-0.502-1.932-0.679c-4.68-1.203-9.421-2.25-14.193-2.994
	c-5.369-0.838-10.821-1.13-16.2-1.903c-4.137-0.596-8.219-1.571-12.325-2.378c-1.463-0.702-2.925-1.402-4.386-2.104
	c-0.184,0.184-0.366,0.368-0.55,0.554c0.758,1.578,1.517,3.156,2.273,4.732c1.237,2.177,2.192,4.589,3.769,6.481
	c4.093,4.921,9.791,7.286,15.891,8.197C108.302,64.767,119.941,63.435,131.743,61.59 M133.481,38.875
	c-0.802-0.495-1.622-0.929-2.453-1.308c-4.598-2.099-9.629-2.618-14.556-3.36c-6.183-0.933-12.439-1.366-18.671-1.963
	c-10.094-0.97-20.083-2.417-29.893-6.626c1.271,5.942,3.27,10.847,8.188,14.248c4.553,3.148,9.76,3.727,14.959,4.399
	c9.537,1.233,19.188,1.471,28.583,3.979c7.537,2.013,12.249,6.895,15.09,13.71c3.131,7.51,5.627,15.286,8.751,22.8
	c2.569,6.181,6.871,11.148,12.736,14.455c2.301,1.298,4.967,2.263,7.724,0.455c4.676-3.064,5.011-7.805,5.521-12.998
	c-0.924,0.439-1.432,0.661-1.919,0.917c-2.395,1.259-4.575,1.247-6.9-0.451c-4.082-2.98-5.391-7.542-7.137-11.839
	c-3.731-9.2-6.109-18.973-11.479-27.476C139.794,44.285,137.125,41.124,133.481,38.875" class="color c1"/>
</svg>