<svg version="1.1" id="图层_1" x="0px" y="0px" width="268px" height="61px" viewBox="0 0 268 61" enable-background="new 0 0 268 61" xml:space="preserve" xmlns:xml="http://www.w3.org/XML/1998/namespace" xmlns="http://www.w3.org/2000/svg" xmlns:xlink="http://www.w3.org/1999/xlink">
  <path fill="#171819" d="M187.414,61h31.766c4.588,0,7.82-3.559,7.82-8.146V44h-32.52C193.048,50,190.641,56,187.414,61z M188.012,0
	c3.098,5,5.396,11,6.711,18h64.967c4.59,0,8.312-4.186,8.312-8.775V0H188.012z M196.007,29.98c0,3.179-0.245,6.02-0.717,9.02h44.663
	c4.59,0,8.047-3.372,8.047-7.961V22h-52.574C195.798,24,196.007,27.16,196.007,29.98z" class="color c1"/>
  <path fill="#171819" d="M81.024,61H49.26C44.671,61,41,57.441,41,52.854V44h32.957C75.391,50,77.798,56,81.024,61z M80.427,0
	c-3.098,5-5.396,11-6.71,18H8.748C4.159,18,0,13.814,0,9.225V0H80.427z M72.432,29.98c0,3.179,0.246,6.02,0.717,9.02H28.484
	C23.896,39,20,35.628,20,31.039V22h53.013C72.64,24,72.432,27.16,72.432,29.98z" class="color c1"/>
</svg>