<svg version="1.1" id="图层_1" x="0px" y="0px" width="298.447px" height="120px" viewBox="0 0 298.447 120" enable-background="new 0 0 298.447 120" xml:space="preserve" xmlns="http://www.w3.org/2000/svg" xmlns:xlink="http://www.w3.org/1999/xlink" xmlns:xml="http://www.w3.org/XML/1998/namespace">
  <path id="XMLID_107_" fill-rule="evenodd" clip-rule="evenodd" fill="#111111" d="M201.235,35.714
	c21.707,23.428,20.058,60.102-0.825,84.286c34.299-26.443,17.439-73.614,12.115-82.662C221.76,19.713,274.912,39.249,298.447,0
	C252.51,31.095,218.408,11.651,201.235,35.714z" class="color c1"/>
  <path id="XMLID_102_" fill-rule="evenodd" clip-rule="evenodd" fill="#111111" d="M219.777,96.906
	c1.937-3.376,3.152-7.973,3.734-13.19c0.422-0.097,0.854-0.188,1.297-0.274c3.505-0.681,9.082-1.069,15.338-1.504
	c4.271-0.298,8.855-0.617,13.334-1.067C244.072,88.697,232.924,94.544,219.777,96.906L219.777,96.906z M223.826,79.789
	c0.196-3.916,0.079-8.072-0.32-12.25c1.678-0.625,3.605-1.189,5.8-1.615c3.506-0.681,9.083-1.069,15.339-1.504
	c8.747-0.609,18.799-1.309,26.59-3.042c-7.855,11.081-12.309,15.222-23.549,16.204c-3.441,0.3-4.418,0.334-7.689,0.562
	c-6.355,0.442-12.022,0.837-15.612,1.534C224.196,79.713,224.01,79.751,223.826,79.789L223.826,79.789z M223.068,63.757
	c1.715-0.624,3.648-1.178,5.813-1.599c3.59-0.697,9.256-1.092,15.613-1.534c7.407-0.515,12.539-0.6,19.521-1.794
	c9.835-1.682,13.707-6.601,19.135-17.749c-0.189,0.126-0.38,0.252-0.574,0.378c-6.951,4.507-23.016,5.626-36.142,6.539
	c-6.256,0.436-11.833,0.824-15.339,1.504c-4.4,0.855-7.732,2.264-10.111,3.606C221.873,56.53,222.574,60.127,223.068,63.757
	L223.068,63.757z M219.975,49.558c-1.396-4.493-3.131-8.557-5.154-11.819c0,0,5.416-4.524,13.127-5.833
	c25.723-4.369,44.845,0.536,66.827-21.429c-2.987,10.502-5.677,22.514-13.507,27.59c-6.396,4.148-22.128,5.242-34.982,6.137
	c-6.357,0.442-12.023,0.837-15.613,1.534C226.117,46.623,222.578,48.104,219.975,49.558z" class="color c1"/>
  <path id="XMLID_100_" fill-rule="evenodd" clip-rule="evenodd" fill="#111111" d="M97.212,35.714
	C75.505,59.142,77.154,95.815,98.039,120C63.738,93.557,80.598,46.386,85.922,37.338C76.688,19.713,23.535,39.249,0,0
	C45.938,31.095,80.039,11.651,97.212,35.714z" class="color c1"/>
  <path id="XMLID_95_" fill-rule="evenodd" clip-rule="evenodd" fill="#111111" d="M78.67,96.906
	c-1.936-3.376-3.152-7.973-3.734-13.19c-0.422-0.097-0.854-0.188-1.296-0.274c-3.506-0.681-9.083-1.069-15.339-1.504
	c-4.271-0.298-8.854-0.617-13.334-1.067C54.374,88.697,65.523,94.544,78.67,96.906L78.67,96.906z M74.623,79.789
	c-0.198-3.916-0.082-8.072,0.318-12.25c-1.677-0.625-3.605-1.189-5.8-1.615c-3.506-0.681-9.083-1.069-15.339-1.504
	c-8.747-0.609-18.8-1.309-26.59-3.042c7.856,11.081,12.309,15.222,23.549,16.204c3.442,0.3,4.418,0.334,7.688,0.562
	c6.357,0.442,12.023,0.837,15.614,1.534C74.252,79.713,74.438,79.751,74.623,79.789L74.623,79.789z M75.379,63.757
	c-1.713-0.624-3.648-1.178-5.813-1.599c-3.59-0.697-9.256-1.092-15.612-1.534c-7.408-0.515-12.539-0.6-19.52-1.794
	c-9.838-1.682-13.709-6.601-19.137-17.749c0.189,0.126,0.38,0.252,0.575,0.378c6.95,4.507,23.015,5.626,36.142,6.539
	c6.256,0.436,11.832,0.824,15.338,1.504c4.402,0.855,7.73,2.264,10.111,3.606C76.574,56.53,75.874,60.127,75.379,63.757
	L75.379,63.757z M78.473,49.558c1.396-4.493,3.132-8.557,5.154-11.819c0,0-5.416-4.524-13.127-5.833
	c-25.723-4.369-44.844,0.536-66.826-21.429C6.662,20.979,9.352,32.99,17.18,38.067c6.396,4.148,22.128,5.242,34.982,6.137
	c6.357,0.442,12.023,0.837,15.613,1.534C72.33,46.623,75.869,48.104,78.473,49.558z" class="color c1"/>
</svg>