<svg version="1.1" id="图层_1" x="0px" y="0px" width="184.217px" height="64.098px" viewBox="0 0 184.217 64.098" enable-background="new 0 0 184.217 64.098" xml:space="preserve" xmlns="http://www.w3.org/2000/svg" xmlns:xlink="http://www.w3.org/1999/xlink" xmlns:xml="http://www.w3.org/XML/1998/namespace">
  <path fill="#00507F" d="M176.114,50.53c-16.271-13.854-33.326-25.271-52.785-34.327c-9.752-4.541-21.445-7.73-31.891-10.291
	C72.083,1.17,52.009-0.573,32.112,0.162C25.545,0.405,18.989,1.008,12.5,2.05C11.491,2.212-0.876,4.516,0.049,6.089
	c3.543,6.018,9.765,7.496,16.654,8.702c22.851,4.002,45.717,1.623,68.653,4.939c12.863,1.856,40.783,8.943,41.669,26.738
	c0.279,5.601-3.401,10.157-7.848,13.43c7.182,1.157,14.251,2.253,21.099,2.938c13.263,1.324,27.81,2.276,40.934-0.715
	c0.632-0.145,1.874-0.453,2.892-0.938C185.282,59.7,176.975,51.26,176.114,50.53z" class="color c1"/>
</svg>