<svg version="1.1" id="图层_1" x="0px" y="0px" width="237.77px" height="129.561px" viewBox="0 0 237.77 129.561" enable-background="new 0 0 237.77 129.561" xml:space="preserve" xmlns="http://www.w3.org/2000/svg" xmlns:xlink="http://www.w3.org/1999/xlink" xmlns:xml="http://www.w3.org/XML/1998/namespace">
  <path id="XMLID_335_" fill="#94D75B" d="M0,42.424c16.26,50.549,63.646,87.137,119.6,87.137c54.387,0,100.686-34.557,118.17-82.904
	C183.458,43.997,164.79,0,119.6,0C60.679,0,42.021,40.143,0,42.424z" class="color c1"/>
  <path fill="#FFFFFF" d="M182.651,34.492c0.043-0.194,0.086-0.383,0.121-0.571c0-0.013,0-0.024,0.002-0.038
	c0.127-0.742,0.164-1.468,0.107-2.182c-0.004-0.05-0.008-0.1-0.012-0.146c-0.012-0.144-0.031-0.286-0.049-0.425
	c-0.012-0.066-0.021-0.133-0.035-0.201c-0.021-0.134-0.049-0.264-0.078-0.398c-0.016-0.071-0.035-0.143-0.051-0.213
	c-0.033-0.131-0.066-0.262-0.109-0.392c-0.018-0.059-0.043-0.121-0.063-0.18c-0.076-0.227-0.164-0.453-0.26-0.68
	c-0.045-0.096-0.086-0.193-0.131-0.285c-0.047-0.104-0.1-0.202-0.154-0.307c-0.057-0.101-0.111-0.201-0.168-0.302
	c-0.051-0.096-0.109-0.192-0.174-0.289c-0.064-0.105-0.137-0.21-0.209-0.319c-0.057-0.088-0.121-0.177-0.184-0.269
	c-0.088-0.121-0.189-0.246-0.289-0.373c-0.049-0.067-0.102-0.139-0.16-0.205c-0.154-0.189-0.32-0.374-0.494-0.559
	c-0.059-0.063-0.123-0.126-0.188-0.193c-0.123-0.126-0.252-0.256-0.387-0.385c-0.076-0.072-0.156-0.147-0.236-0.219
	c-0.129-0.122-0.268-0.239-0.408-0.356c-0.082-0.072-0.168-0.147-0.254-0.219c-0.152-0.125-0.314-0.251-0.48-0.377
	c-0.074-0.059-0.154-0.117-0.234-0.18c-0.246-0.186-1.502-1.37-1.773-1.551l-8.521-5.25c-0.074-0.056-0.154-0.107-0.234-0.159
	c-0.42-0.281-0.842-0.563-1.291-0.844l1.451,0.953c0.068,0.045,0.135,0.092,0.201,0.136c0.293,0.204,0.584,0.405,0.869,0.606
	c0.121,0.088,0.242,0.176,0.365,0.265c0.297,0.218,0.58,0.434,0.863,0.649c0.08,0.062,0.164,0.124,0.242,0.185
	c0.342,0.269,0.668,0.537,0.986,0.804c0.102,0.085,0.199,0.172,0.299,0.259c0.205,0.18,0.41,0.36,0.607,0.54
	c0.127,0.113,0.244,0.227,0.365,0.34c0.158,0.151,0.316,0.304,0.469,0.457c0.117,0.12,0.244,0.239,0.357,0.358
	c0.146,0.154,0.281,0.304,0.424,0.456c0.215,0.238,0.426,0.479,0.615,0.715c0.082,0.096,0.166,0.195,0.24,0.289
	c0.135,0.168,0.26,0.336,0.383,0.504c0.055,0.073,0.107,0.149,0.158,0.222c0.131,0.183,0.256,0.367,0.373,0.549
	c0.018,0.024,0.031,0.046,0.041,0.065c2.813,4.426,2.02,8.592-1.295,12.662c0.01,0.003,0.01,0.007,0.016,0.016
	c-8.436,10.341-33.227,20.035-56.833,31.614c6.444,2.756,12.821,5.639,19.327,8.457c20.486-17.22,43.205-31.576,45.867-43.024
	C182.647,34.5,182.651,34.496,182.651,34.492z" class="color c2"/>
  <path fill="#43AB5F" d="M60.597,53.69C45.323,57.516,30.263,66.891,18.453,78.28c-4.611-6.273-8.67-12.979-12.072-20.062
	C27.568,53.6,45.186,52.516,60.597,53.69z M205.547,95.473C156.85,92.73,129.838,71.329,93.652,60.091
	c-5.202,5.34-10.146,11.455-14.596,16.618c0.006,0,0.01,0.005,0.01,0.005c-6.002,6.964-11.115,13.969-14.785,21.521
	c-0.005,0.011-0.009,0.021-0.014,0.028c-0.635,1.314-1.224,2.643-1.771,3.988c-0.076,0.184-0.149,0.367-0.226,0.555
	c-0.142,0.359-0.282,0.722-0.414,1.084c-0.095,0.25-0.181,0.5-0.274,0.754c-0.183,0.508-0.355,1.027-0.526,1.544
	c-0.113,0.34-0.222,0.673-0.326,1.017c-0.087,0.277-0.168,0.561-0.254,0.842c-0.101,0.369-0.203,0.732-0.305,1.098
	c-0.066,0.246-0.134,0.491-0.198,0.74c-0.15,0.588-0.294,1.182-0.423,1.783c-0.039,0.171-0.075,0.341-0.107,0.51
	c-0.106,0.485-0.204,0.97-0.294,1.459c-0.021,0.125-0.044,0.249-0.066,0.373c17.94,9.908,38.562,15.553,60.517,15.553
	C152.87,129.561,183.073,116.588,205.547,95.473z" class="color c3"/>
  <path fill="#FFFFFF" d="M59.443,112.176c0.032-0.169,0.068-0.339,0.107-0.51c0.129-0.602,0.272-1.195,0.423-1.783
	c0.064-0.249,0.132-0.494,0.198-0.74c0.102-0.365,0.204-0.729,0.305-1.098c0.086-0.281,0.167-0.564,0.254-0.842
	c0.104-0.344,0.213-0.677,0.326-1.017c0.171-0.517,0.344-1.036,0.526-1.544c0.094-0.254,0.18-0.504,0.274-0.754
	c0.132-0.362,0.272-0.725,0.414-1.084c0.076-0.188,0.149-0.371,0.226-0.555c0.547-1.346,1.136-2.674,1.771-3.988
	c0.005-0.008,0.009-0.018,0.014-0.028c3.67-7.552,8.783-14.557,14.785-21.521c0,0-0.004-0.005-0.01-0.005
	c4.45-5.163,9.394-11.277,14.596-16.618c-10.083-3.131-20.88-5.472-33.056-6.4C45.323,57.516,30.263,66.891,18.453,78.28
	c10.772,14.652,24.628,26.891,40.63,35.729c0.022-0.124,0.045-0.248,0.066-0.373C59.239,113.146,59.337,112.662,59.443,112.176z" class="color c2"/>
</svg>