<svg version="1.1" id="图层_1" x="0px" y="0px" width="186.076px" height="158.192px" viewBox="0 0 186.076 158.192" enable-background="new 0 0 186.076 158.192" xml:space="preserve" xmlns="http://www.w3.org/2000/svg" xmlns:xlink="http://www.w3.org/1999/xlink" xmlns:xml="http://www.w3.org/XML/1998/namespace">
  <path fill="#FFFFFF" d="M111.604,31.105c2.397,0,3.801,0.031,5.451,0c1.649-0.031,2.211-0.41,1.588-4.271
	c-0.623-3.865,0.18-17.061,0.276-20.05c0.099-2.991,0.409-3.668,0.409-3.668s0.997-2.706-1.12-2.831
	c-2.118-0.125-3.554-0.265-3.554-0.265s-3.157-0.531-3.157,3.957c0,4.487,0.332,16.666-1.164,22.482l-0.571,3.306
	C109.763,29.766,109.203,31.105,111.604,31.105z M128.969,41.126c2.884-4.638,5.201-13.854,5.201-13.854s-6.303,4.815-10.405,11
	c-4.104,6.185-5.174,13.499-5.174,13.499S126.084,45.765,128.969,41.126z M114.289,66.255c0.205,0.018,0.399,0.03,0.616,0.056
	c3.094,0.356,2.734-1.309,2.734-1.309s-0.178-0.534-0.355-3.508c-0.182-2.974,0.295-23.728,0.831-26.104
	c0.534-2.38-1.189-2.073-1.189-2.073s-2.26,0.347-5.112,0.05c-2.856-0.299-2.438,0.713-2.26,3.151
	c0.178,2.438-0.598,13.855-0.598,13.855s-0.237,6.171-0.583,10.473C110.579,62.383,112.571,64.199,114.289,66.255z M26.044,22.622
	c0.377,2.773,2.39,14.973,2.181,18.628c-0.209,3.652,0.349,3.951,1.887,3.824c1.539-0.131,2.84-0.294,5.073-0.523
	c2.232-0.23,1.584-1.424,1.584-1.424l-0.849-3.021c-1.95-5.269-2.809-16.632-3.24-20.807c-0.431-4.177-3.318-3.379-3.318-3.379
	s-1.322,0.269-3.281,0.586c-1.958,0.32-0.771,2.741-0.771,2.741S25.665,19.849,26.044,22.622z M30.667,64.449
	c0,0-1.697-6.705-6.108-12.064c-4.412-5.361-10.737-9.236-10.737-9.236s3.041,8.354,6.169,12.391
	C23.117,59.579,30.667,64.449,30.667,64.449z M17.779,60.914C7.589,58.98,0,62.747,0,62.747s9.653,5.416,16.222,5.484
	c6.567,0.069,14.68-1.512,14.68-1.512S27.971,62.845,17.779,60.914z M35.49,77.623c2.843-0.629,4.708-0.438,4.708-0.438
	s2.289,0.498,1.506-2.218c-0.783-2.715-2.208-12.744-2.208-12.744s-1.815-10.551-1.884-12.834c-0.067-2.286,0.225-3.266-2.405-2.715
	c-2.626,0.548-4.763,0.444-4.763,0.444s-1.633-0.12-0.908,2.042c0.727,2.16,3.161,21.426,3.279,24.209
	c0.119,2.784,0.005,3.298,0.005,3.298S32.646,78.251,35.49,77.623z M39.175,84.081l0.034-0.036c1.072-1.138,2.147-2.229,3.224-3.3
	c-0.309-0.335-0.943-0.428-2.198-0.169l-5.217,0.584c0,0-1.654-0.473-0.801,2.907c0.228,0.904,0.534,2.79,0.86,5.06
	c1.246-1.745,2.599-3.421,4.064-5.009L39.175,84.081z M76.29,58.602l0.164-0.504l0.053-0.164l0.059-0.162
	c1.626-4.473,5.396-7.758,9.883-8.863c-0.329-7.062-0.62-14.031-0.755-18.094c0.018-0.661,0.042-1.964,0.073-3.092
	c0.089-3.182-0.695-2.619-1.189-2.619c-0.495,0-3.542,0-3.542,0c-2.548,0-5.391-0.414-6.341-0.515
	c-3.011-0.316-1.895,6.264-1.744,7.195c0.102,0.637-0.121,16.983-0.373,28.159C73.815,59.457,75.052,59,76.29,58.602z
	 M77.647,21.854c5.074,0,6.976,0.009,6.976,0.009s2.063,0.783,0.794-4.766c-1.269-5.551-1.111-9.514-1.111-12.368S84.465,0,82.244,0
	c-2.219-0.002-2.764,0.09-3.963,0.129c-1.2,0.037-4.123-1.11-4.123,3.171c0,4.282-0.275,11.894-1.089,15.384
	C72.254,22.172,72.573,21.854,77.647,21.854z M136.685,126.88l-1.304,17.363c4.328,0.844,13.056,1.925,12.347,0.713
	c-0.933-1.598,3.465-37.829,3.799-39.653c0.332-1.823-2.801-1.407-3.549-1.522c-0.746-0.119-8.677-1.739-8.31,0.477
	c0.028,0.174,0.007,0.578-0.049,1.139c2.889,6.278,1.989,13.922-2.772,19.332L136.685,126.88z M176.125,51.051
	c-1.815-0.115-11.403,7.722-15.793,20.857C172.543,64.168,176.125,51.051,176.125,51.051z M154.576,63.709
	c-0.744-0.005-2.978,0.063-4.945-0.163c0,0-2.354-0.269-2.735-0.314c-0.383-0.043-0.938-0.547-1.15,1.92
	c-0.075,0.873-0.172,1.882-0.217,2.396c-1.176,7.918-4.77,30.154-5.277,31.54c-0.307,0.835,0.402,1.685,5.963,2.259
	c5.559,0.576,6.238-0.128,6.234-2.274c-0.002-2.134,2.641-28.94,2.84-29.647C155.483,68.716,156.931,63.731,154.576,63.709z
	 M153.97,44.494c-0.923-0.135-1.336-0.254-3.05-0.45c-1.297-0.147-1.64,0.652-1.837,2.003c-3.086-0.74-9.572-1.717-17.174,0.553
	c-10.629,3.172-13.32,7.612-13.32,7.612s8.803,0.793,15.777,0c4.949-0.563,11.238-4.148,14.484-6.19
	c-0.235,2.164-0.531,5.08-1.896,8.952c-1.471,4.175,0.191,3.751,0.191,3.751s1.472,0.161,5.392,0.611
	c3.92,0.448,4.137,0.722,3.817-2.044c-0.319-2.768,0.142-8.674,0.521-11.981S154.894,44.631,153.97,44.494z M186.076,69.691
	c-13.687-3.494-24.615,3.881-24.615,3.881C168.007,75.749,175.938,75.293,186.076,69.691z M159.862,75.995
	c1.863,13.804,10.025,16.509,15.224,19.896C172.552,83.87,159.862,75.995,159.862,75.995z M134.567,147.308
	c-0.621-0.058-1-0.091-1-0.091s-0.627-0.204-1.172-0.12l-0.295,3.813c0,0-0.029,0.247-0.049,0.455l9.374,6.827
	c1.271-0.307,2.604-0.465,3.964-0.465c0.121,0,0.24,0.01,0.361,0.014c0.01-0.043,0.02-0.098,0.029-0.139c0,0,2.191-8.354,1.014-8.84
	c-0.912-0.373-8.342-1.096-11.646-1.402L134.567,147.308z" class="color c1"/>
</svg>