<svg version="1.1" id="图层_1" x="0px" y="0px" width="500px" height="361.619px" viewBox="0 0 500 361.619" enable-background="new 0 0 500 361.619" xml:space="preserve" xmlns="http://www.w3.org/2000/svg" xmlns:xlink="http://www.w3.org/1999/xlink" xmlns:xml="http://www.w3.org/XML/1998/namespace">
  <path fill="#FFD401" d="M267.102,72.847h-34.204L249.87,0L267.102,72.847z M125.065,33.421l21.671,71.541l29.504-17.232
	L125.065,33.421z M33.42,125.065l54.569,51.175l16.971-29.765L33.42,125.065z M323.76,87.99l29.504,17.231l21.671-71.541
	L323.76,87.99z M394.778,146.476l17.231,29.765l54.569-51.175L394.778,146.476z M0,249.871l72.846,17.231v-34.204L0,249.871z
	 M500,249.871l-72.846-17.232v34.203L500,249.871z M195.822,48.304l-2.088,33.42l20.888-5.482L195.822,48.304z M102.35,102.351
	l14.882,30.026l15.144-15.145L102.35,102.351z M48.303,196.082l27.676,18.539l5.483-20.889L48.303,196.082z M451.436,303.916
	l-27.676-18.537l-5.482,20.625L451.436,303.916z M48.303,303.916l33.42,2.088l-5.483-20.625L48.303,303.916z M451.436,196.082
	l-33.42-2.088l5.483,20.889L451.436,196.082z M397.389,102.351l-30.024,14.882l15.144,15.145L397.389,102.351z M303.916,48.304
	l-18.537,27.676l20.888,5.483L303.916,48.304z M160.052,333.942c26.632,11.75,51.697,22.978,88.773,26.895
	c5.222,0.521,10.704,0.782,16.188,0.782c59.269,0,112.792-31.854,134.985-47.259c8.616-19.844,13.316-41.514,13.316-64.489
	c0-90.34-73.107-163.447-163.447-163.447c-90.34,0-163.445,73.107-163.445,163.447c0,21.67,4.178,42.559,12.011,61.356
	C122.193,316.972,141.253,325.588,160.052,333.942z" class="color c1"/>
</svg>