<svg version="1.1" id="图层_1" x="0px" y="0px" width="169.57px" height="103.781px" viewBox="0 0 169.57 103.781" enable-background="new 0 0 169.57 103.781" xml:space="preserve" xmlns="http://www.w3.org/2000/svg" xmlns:xlink="http://www.w3.org/1999/xlink" xmlns:xml="http://www.w3.org/XML/1998/namespace">
  <path fill="#FFFFFF" d="M6.798,101.1c0,1.48-1.201,2.682-2.682,2.682s-2.682-1.201-2.682-2.682s1.201-2.682,2.682-2.682
	S6.798,99.619,6.798,101.1z M3.376,77.045c-1.431-0.383-2.9,0.465-3.284,1.896c-0.383,1.43,0.466,2.9,1.896,3.283
	c1.43,0.383,2.9-0.465,3.284-1.896C5.655,78.898,4.807,77.428,3.376,77.045z M8.193,56.208c-1.283-0.741-2.923-0.302-3.663,0.981
	c-0.74,1.282-0.301,2.922,0.981,3.662c1.282,0.741,2.923,0.302,3.663-0.98C9.915,58.588,9.476,56.948,8.193,56.208z M18.239,37.328
	c-1.048-1.047-2.745-1.047-3.793,0c-1.047,1.047-1.047,2.744,0,3.791c1.048,1.048,2.745,1.048,3.793,0
	C19.286,40.072,19.286,38.375,18.239,37.328z M32.829,21.691c-0.74-1.283-2.381-1.723-3.663-0.982s-1.722,2.381-0.981,3.663
	s2.381,1.722,3.663,0.981S33.569,22.973,32.829,21.691z M50.969,10.363c-0.383-1.431-1.854-2.279-3.284-1.896
	c-1.43,0.384-2.279,1.854-1.896,3.284c0.383,1.431,1.854,2.279,3.284,1.896C50.503,13.264,51.353,11.793,50.969,10.363z
	 M71.423,4.116c0-1.481-1.2-2.681-2.682-2.681c-1.48,0-2.682,1.199-2.682,2.681s1.201,2.682,2.682,2.682
	C70.223,6.798,71.423,5.598,71.423,4.116z M162.772,101.1c0,1.48,1.2,2.682,2.682,2.682c1.48,0,2.682-1.201,2.682-2.682
	s-1.201-2.682-2.682-2.682C163.973,98.418,162.772,99.619,162.772,101.1z M164.298,80.328c0.383,1.432,1.854,2.279,3.284,1.896
	s2.279-1.854,1.896-3.283c-0.383-1.432-1.854-2.279-3.283-1.896C164.764,77.428,163.915,78.898,164.298,80.328z M160.396,59.871
	c0.74,1.282,2.38,1.722,3.663,0.98c1.282-0.74,1.722-2.38,0.981-3.662c-0.741-1.283-2.381-1.723-3.663-0.981
	C160.095,56.948,159.655,58.588,160.396,59.871z M151.331,41.119c1.047,1.048,2.745,1.048,3.792,0c1.047-1.047,1.047-2.744,0-3.791
	s-2.745-1.047-3.792,0S150.284,40.072,151.331,41.119z M137.723,25.354c1.282,0.74,2.922,0.301,3.663-0.981
	c0.74-1.282,0.301-2.923-0.982-3.663c-1.282-0.74-2.922-0.301-3.662,0.982C136.001,22.973,136.44,24.613,137.723,25.354z
	 M120.497,13.647c1.431,0.383,2.9-0.466,3.284-1.896c0.383-1.431-0.466-2.9-1.896-3.284c-1.431-0.383-2.9,0.466-3.284,1.896
	C118.218,11.793,119.066,13.264,120.497,13.647z M100.828,6.798c1.481,0,2.682-1.2,2.682-2.682s-1.2-2.681-2.682-2.681
	c-1.48,0-2.681,1.199-2.681,2.681S99.348,6.798,100.828,6.798z M87.465,3.376c0.384-1.431-0.466-2.9-1.896-3.284
	c-1.431-0.383-2.901,0.466-3.284,1.896c-0.384,1.43,0.466,2.9,1.896,3.284C85.611,5.655,87.082,4.807,87.465,3.376z" class="color c1"/>
</svg>