<svg version="1.1" id="图层_1" x="0px" y="0px" width="200px" height="200px" viewBox="0 0 200 200" enable-background="new 0 0 200 200" xml:space="preserve" xmlns="http://www.w3.org/2000/svg" xmlns:xlink="http://www.w3.org/1999/xlink" xmlns:xml="http://www.w3.org/XML/1998/namespace">
  <path fill="#FFFFFF" d="M200,100.002C200,44.771,155.229,0,100,0C44.771,0,0,44.771,0,100.002
	c5.833,57.831,47.833,92.831,100,96.831C155.834,191.167,192.167,157.5,200,100.002z" class="color c1"/>
  <g>
    <circle fill="#F1F1F1" cx="30.241" cy="67.928" r="12.535" class="color c2"/>
    <path fill="#D3D3D3" d="M18.777,69c0-6.924,5.612-12.535,12.536-12.535c3.188,0,6.098,1.191,8.31,3.154
		c-2.296-2.592-5.647-4.227-9.382-4.227c-6.924,0-12.535,5.611-12.535,12.535c0,3.734,1.635,7.086,4.226,9.383
		C19.972,75.098,18.777,72.188,18.777,69z" class="color c3"/>
    <path fill="#F5F5F5" d="M30.735,55.393c-0.083,0-0.165,0.004-0.247,0.006c6.809,0.133,12.288,5.689,12.288,12.529
		c0,6.924-5.612,12.535-12.535,12.535c-6.84,0-12.396-5.48-12.529-12.287c-0.001,0.082-0.006,0.164-0.006,0.246
		c0,7.197,5.834,13.031,13.029,13.031c7.196,0,13.03-5.834,13.03-13.031C43.766,61.227,37.932,55.393,30.735,55.393z" class="color c4"/>
    <circle fill="#F1F1F1" cx="123.96" cy="19.506" r="7.871" class="color c2"/>
    <path fill="#D3D3D3" d="M116.764,20.178c0-4.348,3.522-7.871,7.87-7.871c2.003,0,3.828,0.75,5.22,1.98
		c-1.443-1.627-3.547-2.652-5.894-2.652c-4.349,0-7.871,3.523-7.871,7.871c0,2.344,1.027,4.449,2.654,5.889
		C117.512,24.006,116.764,22.18,116.764,20.178z" class="color c3"/>
    <path fill="#F5F5F5" d="M124.271,11.635c-0.051,0-0.104,0.002-0.154,0.004c4.273,0.082,7.715,3.57,7.715,7.867
		c0,4.346-3.523,7.869-7.871,7.869c-4.295,0-7.783-3.439-7.867-7.715c0,0.053-0.004,0.104-0.004,0.154
		c0,4.52,3.664,8.182,8.182,8.182c4.521,0,8.183-3.662,8.183-8.182C132.453,15.297,128.791,11.635,124.271,11.635z" class="color c4"/>
    <circle fill="#F1F1F1" cx="169.657" cy="101.482" r="15.792" class="color c2"/>
    <path fill="#D3D3D3" d="M155.214,102.833c0-8.722,7.07-15.792,15.793-15.792c4.019,0,7.683,1.504,10.47,3.973
		c-2.894-3.264-7.115-5.322-11.82-5.322c-8.721,0-15.791,7.07-15.791,15.791c0,4.705,2.059,8.929,5.322,11.82
		C156.716,110.516,155.214,106.852,155.214,102.833z" class="color c3"/>
    <path fill="#F5F5F5" d="M170.279,85.691c-0.104,0-0.207,0.006-0.312,0.008c8.578,0.166,15.48,7.166,15.48,15.783
		c0,8.723-7.07,15.793-15.794,15.793c-8.616,0-15.616-6.904-15.784-15.48c0,0.104-0.007,0.207-0.007,0.313
		c0,9.064,7.349,16.416,16.414,16.416c9.066,0,16.416-7.352,16.416-16.416C186.695,93.039,179.346,85.691,170.279,85.691z" class="color c4"/>
    <circle fill="#F1F1F1" cx="132.201" cy="48.82" r="11.328" class="color c2"/>
    <path fill="#D3D3D3" d="M121.841,49.789c0-6.256,5.072-11.328,11.328-11.328c2.881,0,5.511,1.078,7.508,2.85
		c-2.073-2.342-5.102-3.818-8.477-3.818c-6.259,0-11.328,5.07-11.328,11.328c0,3.375,1.479,6.402,3.817,8.479
		C122.919,55.299,121.841,52.67,121.841,49.789z" class="color c3"/>
    <path fill="#F5F5F5" d="M132.648,37.492c-0.076,0-0.148,0.004-0.224,0.006c6.152,0.119,11.104,5.141,11.104,11.322
		c0,6.256-5.072,11.328-11.328,11.328c-6.182,0-11.203-4.953-11.322-11.105c-0.002,0.076-0.006,0.148-0.006,0.225
		c0,6.502,5.271,11.773,11.775,11.773c6.502,0,11.772-5.271,11.772-11.773C144.421,42.764,139.15,37.492,132.648,37.492z" class="color c4"/>
    <circle fill="#F1F1F1" cx="79.105" cy="26.434" r="6.694" class="color c2"/>
    <path fill="#D3D3D3" d="M72.982,27.006c0-3.697,2.997-6.693,6.694-6.693c1.704,0,3.258,0.637,4.438,1.684
		c-1.227-1.383-3.017-2.258-5.01-2.258c-3.698,0-6.694,2.998-6.694,6.695c0,1.994,0.873,3.785,2.256,5.01
		C73.619,30.264,72.982,28.709,72.982,27.006z" class="color c3"/>
    <path fill="#F5F5F5" d="M79.369,19.738c-0.045,0-0.088,0.004-0.133,0.004c3.636,0.072,6.563,3.039,6.563,6.691
		c0,3.697-2.997,6.695-6.694,6.695c-3.654,0-6.621-2.926-6.692-6.563c-0.001,0.043-0.002,0.088-0.002,0.131
		c0,3.844,3.114,6.959,6.958,6.959c3.843,0,6.959-3.115,6.959-6.959C86.328,22.852,83.212,19.738,79.369,19.738z" class="color c4"/>
    <circle fill="#F1F1F1" cx="166.665" cy="56.48" r="5.808" class="color c2"/>
    <path fill="#D3D3D3" d="M161.354,56.977c0-3.207,2.602-5.809,5.809-5.809c1.479,0,2.826,0.555,3.85,1.461
		c-1.063-1.199-2.617-1.957-4.346-1.957c-3.209,0-5.809,2.6-5.809,5.809c0,1.73,0.758,3.283,1.957,4.348
		C161.906,59.803,161.354,58.455,161.354,56.977z" class="color c3"/>
    <path fill="#F5F5F5" d="M166.895,50.672c-0.039,0-0.076,0.002-0.115,0.002c3.154,0.063,5.693,2.637,5.693,5.807
		c0,3.207-2.601,5.807-5.808,5.807c-3.17,0-5.744-2.537-5.808-5.693c0,0.039-0.002,0.076-0.002,0.115
		c0,3.334,2.703,6.037,6.037,6.037s6.037-2.703,6.037-6.037S170.229,50.672,166.895,50.672z" class="color c4"/>
    <circle fill="#F1F1F1" cx="33.751" cy="128.654" r="10.143" class="color c2"/>
    <path fill="#D3D3D3" d="M24.476,129.521c0-5.603,4.542-10.144,10.145-10.144c2.579,0,4.934,0.965,6.723,2.552
		c-1.858-2.097-4.569-3.421-7.591-3.421c-5.602,0-10.144,4.543-10.144,10.146c0,3.021,1.323,5.731,3.419,7.592
		C25.441,134.455,24.476,132.102,24.476,129.521z" class="color c3"/>
    <path fill="#F5F5F5" d="M34.152,118.509c-0.068,0-0.133,0.007-0.2,0.007c5.509,0.106,9.941,4.604,9.941,10.139
		c0,5.602-4.541,10.143-10.142,10.143c-5.535,0-10.03-4.434-10.138-9.941c-0.002,0.066-0.006,0.131-0.006,0.199
		c0,5.822,4.721,10.543,10.544,10.543c5.822,0,10.543-4.721,10.543-10.543C44.695,123.23,39.975,118.509,34.152,118.509z" class="color c4"/>
    <circle fill="#F1F1F1" cx="62.503" cy="68.225" r="6.439" class="color c2"/>
    <path fill="#D3D3D3" d="M56.614,68.775c0-3.557,2.884-6.439,6.439-6.439c1.639,0,3.133,0.613,4.27,1.621
		c-1.18-1.332-2.901-2.172-4.82-2.172c-3.556,0-6.438,2.883-6.438,6.439c0,1.918,0.84,3.641,2.17,4.82
		C57.228,71.908,56.614,70.414,56.614,68.775z" class="color c3"/>
    <path fill="#F5F5F5" d="M62.758,61.785c-0.043,0-0.085,0.002-0.127,0.004c3.497,0.066,6.312,2.922,6.312,6.436
		c0,3.557-2.882,6.439-6.439,6.439c-3.514,0-6.368-2.814-6.436-6.313c-0.001,0.043-0.003,0.084-0.003,0.129
		c0,3.695,2.996,6.691,6.693,6.691c3.696,0,6.692-2.996,6.692-6.691C69.45,64.781,66.454,61.785,62.758,61.785z" class="color c4"/>
  </g>
  <path fill="#F3F3F3" d="M3.036,95.33c0,53.55,43.412,96.962,96.964,96.962s96.964-43.412,96.964-96.962
	c0-23.365-8.267-44.797-22.028-61.537C190.529,51.43,200,74.607,200,100c0,55.229-44.771,100-100,100C44.771,200,0,155.229,0,100
	c0-25.393,9.471-48.57,25.064-66.207C11.301,50.533,3.036,71.965,3.036,95.33z" class="color c5"/>
</svg>