<svg version="1.1" id="图层_1" x="0px" y="0px" width="112.5px" height="134.7px" viewBox="0 0 112.5 134.7" enable-background="new 0 0 112.5 134.7" xml:space="preserve" xmlns="http://www.w3.org/2000/svg" xmlns:xlink="http://www.w3.org/1999/xlink" xmlns:xml="http://www.w3.org/XML/1998/namespace">
  <g transform="translate(0,-288.53332)">
    <path fill="#FFFFFF" d="M2,325.2c10.2,14.4,15.5,31.7,15.2,49.4c-0.1,5.1-0.9,10.1-2.5,15l-10.4,31l9.3,2.7l10.6-31.7
		c8.9-26.7,21.3-52.2,36.7-75.8c3.7-5.7,8.7-10.5,14.4-14.1c4.6-2.9,10.7-1.5,13.6,3.2l0,0c1.5,2.4,2.8,4.8,3.9,7.4
		c2.3,5.2,8.4,7.5,13.6,5.2c3.5-1.6,5.9-5,6-8.9c0.1-1.4-0.9-2.6-2.2-2.7c-1.4-0.1-2.6,0.9-2.7,2.2c0,0.1,0,0.1,0,0.2
		c-0.1,2.9-2.6,5.2-5.6,5.1c-2-0.1-3.8-1.3-4.6-3.1c-2.1-4.8-4.8-9.3-8-13.5c-7-9.2-20.1-10.9-29.2-4c-0.7,0.6-1.4,1.2-2.1,1.8
		c-11.9,11.9-28.9,17.1-45.4,13.9c-5.8-1.1-11.4,2.7-12.5,8.5C-0.4,319.9,0.3,322.8,2,325.2L2,325.2z" class="color c1"/>
    <path fill="#FFFFFF" d="M55.5,293.6c-13.9,1.8-27.4,6.2-39.7,12.9C30.4,308.5,45,303.7,55.5,293.6z" class="color c1"/>
  </g>
</svg>