<svg version="1.1" id="图层_1" x="0px" y="0px" width="120.802px" height="120.821px" viewBox="0 0 120.802 120.821" enable-background="new 0 0 120.802 120.821" xml:space="preserve" xmlns="http://www.w3.org/2000/svg" xmlns:xlink="http://www.w3.org/1999/xlink" xmlns:xml="http://www.w3.org/XML/1998/namespace">
  <path fill="#FFFFFF" d="M59.042,29.327c-2.113-2.451-5.989-7.746-5.989-13.926C53.053,6.89,60.412,0,60.412,0
	s7.341,6.896,7.341,15.401c0,6.18-3.862,11.475-5.988,13.926c0.112-1.457,0.196-3.003,0.196-4.638
	c0-7.702-1.549-13.945-1.549-13.945s-1.545,6.243-1.545,13.945C58.867,26.317,58.934,27.87,59.042,29.327z M39.453,35.168
	c-0.521-0.765-1.058-1.581-1.566-2.49c-2.448-4.226-3.571-8.136-3.571-8.136s2.825,2.936,5.269,7.159
	c0.513,0.898,0.961,1.766,1.357,2.603c0.392-2.017,0.84-6.146-1.119-9.542c-2.691-4.667-8.902-6.118-8.902-6.118
	s-1.861,6.113,0.83,10.779C33.717,32.818,37.515,34.49,39.453,35.168z M81.361,104.303c0.522,0.765,1.054,1.585,1.566,2.485
	c2.444,4.229,3.573,8.143,3.573,8.143s-2.836-2.934-5.271-7.163c-0.513-0.896-0.97-1.758-1.361-2.603
	c-0.392,2.024-0.844,6.146,1.124,9.541c2.682,4.673,8.907,6.115,8.907,6.115s1.847-6.105-0.854-10.772
	C87.098,106.657,83.302,104.979,81.361,104.303z M19.988,68.868c-1.558-1.336-4.906-3.791-8.823-3.795
	c-5.396,0.004-9.762,4.66-9.762,4.66s4.37,4.66,9.751,4.66c3.923,0,7.276-2.455,8.834-3.795c-0.914,0.073-1.894,0.118-2.929,0.118
	c-4.878,0-8.843-0.983-8.843-0.983s3.96-0.98,8.843-0.984C18.1,68.753,19.068,68.803,19.988,68.868z M100.818,70.599
	c1.558,1.345,4.905,3.795,8.823,3.795c5.392,0,9.756-4.655,9.756-4.655s-4.364-4.661-9.756-4.661c-3.918,0-7.266,2.45-8.823,3.791
	c0.924-0.065,1.888-0.109,2.928-0.109c4.884,0,8.853,0.979,8.853,0.979s-3.964,0.982-8.853,0.979
	C102.712,70.717,101.742,70.668,100.818,70.599z M39.579,107.768c-2.428,4.225-5.264,7.153-5.264,7.153s1.123-3.907,3.563-8.143
	c0.521-0.899,1.054-1.711,1.575-2.48c-1.938,0.681-5.736,2.35-7.703,5.745c-2.688,4.673-0.839,10.772-0.839,10.772
	s6.211-1.459,8.902-6.109c1.958-3.395,1.516-7.526,1.128-9.541C40.551,105.995,40.097,106.872,39.579,107.768z M81.23,31.701
	c2.435-4.228,5.261-7.168,5.261-7.168s-1.114,3.919-3.559,8.145c-0.508,0.9-1.049,1.716-1.566,2.483
	c1.936-0.671,5.736-2.348,7.69-5.738c2.686-4.666,0.854-10.785,0.854-10.785s-6.227,1.463-8.908,6.124
	c-1.953,3.396-1.515,7.515-1.124,9.542C80.27,33.462,80.718,32.6,81.23,31.701z M9.663,48.931
	c5.362,3.085,11.883,2.388,15.063,1.777c-1.315-0.632-2.695-1.34-4.104-2.15c-6.674-3.859-11.314-8.319-11.314-8.319
	s6.192,1.781,12.853,5.636c1.418,0.815,2.71,1.662,3.922,2.483c-1.059-3.063-3.707-9.06-9.07-12.153C9.653,31.947,0,34.87,0,34.87
	S2.304,44.676,9.663,48.931z M111.144,90.545c-5.363-3.092-11.874-2.394-15.055-1.777c1.306,0.634,2.696,1.334,4.095,2.154
	c6.665,3.853,11.314,8.311,11.314,8.311s-6.185-1.78-12.862-5.634c-1.409-0.82-2.704-1.66-3.909-2.485
	c1.055,3.055,3.704,9.052,9.059,12.148c7.367,4.263,17.017,1.335,17.017,1.335S118.502,94.792,111.144,90.545z M9.309,99.232
	c0,0,4.641-4.477,11.305-8.319c1.422-0.82,2.798-1.516,4.113-2.155c-3.181-0.606-9.709-1.314-15.063,1.782
	c-7.368,4.252-9.659,14.064-9.659,14.064s9.649,2.91,17.019-1.333c5.354-3.097,8.006-9.095,9.061-12.154
	c-1.207,0.821-2.504,1.661-3.912,2.481C15.507,97.441,9.309,99.232,9.309,99.232z M111.498,40.233c0,0-4.636,4.461-11.306,8.315
	c-1.407,0.815-2.798,1.522-4.099,2.149c3.18,0.616,9.695,1.313,15.04-1.771c7.379-4.261,9.663-14.065,9.663-14.065
	s-9.645-2.914-17.012,1.332c-5.364,3.091-8.014,9.089-9.053,12.146c1.203-0.812,2.486-1.658,3.908-2.476
	C105.313,42.015,111.498,40.233,111.498,40.233z" class="color c1"/>
</svg>