<svg version="1.1" id="图层_1" x="0px" y="0px" width="153.868px" height="150.68px" viewBox="0 0 153.868 150.68" enable-background="new 0 0 153.868 150.68" xml:space="preserve" xmlns="http://www.w3.org/2000/svg" xmlns:xlink="http://www.w3.org/1999/xlink" xmlns:xml="http://www.w3.org/XML/1998/namespace">
  <path fill="#61769A" d="M149.315,87.27c0.186,1.119,0.411,2.194,0.536,3.282c0.415,3.625-0.463,4.728-4.124,5.166
	c-0.34,1.237-0.588,2.548-1.08,3.76c-0.269,0.66-0.932,1.173-1.457,1.713c-0.634,0.653-1.398,1.198-1.939,1.916
	c-0.439,0.584-0.581,1.383-0.945,2.035c-0.625,1.119-0.664,1.756-0.376,3.305c0.347,1.868-0.002,2.79-0.456,3.622
	c-0.454,0.833-1.445,1.955-3.96,2.452c-1.034,0.204-1.89,1.569-2.001,2.989c-0.042,0.529-0.045,1.062-0.114,1.586
	c-0.203,1.524-0.757,2.043-2.312,2.216c-2.294,0.256-2.839,0.745-3.397,2.988c-0.128,0.513-0.145,0.51-0.324,1.009
	c-0.422,1.183-1.125,2.527-2.688,1.967c-0.536-0.192-1.421,0.117-1.958,0.478c-2.557,1.722-4.997,3.62-7.575,5.307
	c-3.623,2.37-6.886,5.006-9.239,8.775c-1.931,3.093-4.688,5.534-7.721,7.58c-0.816,0.551-1.819,0.892-2.784,1.139
	c-1.307,0.334-2.473,0.044-3.086-1.339c-0.343-0.774-0.826-0.921-1.679-0.739c-1.661,0.353-3.217-0.121-4.72-0.899
	c-0.501-0.259-1.262-0.374-1.774-0.191c-2.141,0.767-4.233,1.581-6.566,0.796c-0.334-0.113-0.774,0.099-1.166,0.144
	c-1.221,0.138-2.445,0.387-3.665,0.372c-1.746-0.022-2.298-0.823-2.012-2.636c-1.271-0.35-2.307-0.597-3.086,1.062
	c-0.862,1.836-3.091,2.642-5.096,2.292c-2.271-0.396-2.893-1.418-2.608-4.345c-0.863-0.59-1.72-0.533-2.529,0.117
	c-1.76,1.414-4.078,1.094-5.346-0.761c-1.64-2.398-2.275-2.615-5.067-1.724c-1.363,0.435-1.924,0.089-2.693-1.166
	c-0.5-0.817-1.199-1.617-1.998-2.129c-4.897-3.134-10.281-4.505-16.103-4.557c-2.393-0.021-4.834-0.527-7.151-1.175
	c-1.334-0.373-2.594-1.327-3.658-2.277c-1.561-1.393-1.437-2.584,0.104-4.037c0.158-0.148,0.311-0.301,0.208-0.201
	c-1.711-1.765-3.488-3.402-5.024-5.241c-1.357-1.624-1.123-2.286,0.681-3.497c0.141-0.094,0.261-0.22,0.421-0.357
	c-0.831-0.591-1.748-1.04-2.383-1.743c-0.99-1.094-1.925-2.29-2.603-3.589c-0.278-0.534-0.04-1.596,0.347-2.15
	c0.468-0.672,0.472-1.123,0.134-1.775c-0.405-0.783-0.686-1.631-1.091-2.414c-0.612-1.184-0.472-2.303-0.179-3.577
	c0.259-1.127-0.067-2.387-0.136-3.611c-0.755-0.093-1.369-0.121-1.961-0.25c-2.317-0.506-4.036-2.903-3.452-5.186
	c0.229-0.897,1.106-1.731,1.878-2.362c1.106-0.903,1.193-1.352,0.01-2.189c-0.324-0.229-0.689-0.402-1.01-0.636
	c-1.602-1.172-1.767-2.537-0.505-4.062c0.533-0.644,1.065-1.289,1.669-2.02c-0.452-0.607-0.987-1.306-1.5-2.021
	c-0.945-1.315-0.779-2.172,0.342-3.346c0.512-0.536,0.958-1.319,1.046-2.038c0.263-2.147,0.408-4.316,0.449-6.479
	c0.022-1.163-0.297-2.33-0.394-3.5c-0.045-0.549-0.025-1.14,0.128-1.665c1.29-4.403,2.618-8.795,3.953-13.25
	c-1.366-0.725-1.704-1.911-1.777-3.333c-0.209-4.104,0.104-8.135,1.486-12.028c0.501-1.411,1.078-2.826,2.622-3.644
	c0.513,0.647,1.024,1.292,1.628,2.054c0.289-0.89,0.419-1.774,0.839-2.488c0.975-1.657,1.967-3.332,3.184-4.808
	c1.048-1.271,1.69-1.126,2.857,0.223c1.377-1.218,2.752-2.44,4.134-3.653c1.046-0.918,1.05-0.913,2.318-0.271
	c1.21-1.948,2.783-3.536,4.91-4.48c0.398-0.177,1.042-0.315,1.338-0.118c1.396,0.93,2.203,0.045,2.786-0.94
	c0.424-0.715,0.613-1.651,0.65-2.499c0.099-2.276,1.316-3.326,3.558-2.849c0.685,0.146,1.347,0.415,2.003,0.669
	c1.483,0.572,2.642,0.075,3.182-1.391c0.829-2.25,1.902-2.727,4.187-1.86c1.546,0.586,3.042,0.105,3.938-1.266
	c1.41-2.156,1.396-2.127,3.63-1.086c0.485,0.226,1.12,0.28,1.662,0.213c4.521-0.558,9.032-1.198,13.554-1.736
	c1.574-0.187,3.198-0.011,4.755-0.268c1.762-0.291,3.6-0.623,5.183-1.394c3.631-1.768,7.372-2.969,11.405-3.216
	c3.829-0.235,5.251,0.806,6.153,4.525c2.735-0.541,5.335-0.136,7.769,1.264c1.914,1.101,2.031,1.354,1.519,3.487
	c-0.04,0.165-0.044,0.338-0.078,0.626c2.287-0.399,4.264,0.173,5.976,1.625c0.266,0.226,0.667,0.494,0.691,0.77
	c0.132,1.506,1.175,1.86,2.393,2.238c2.418,0.749,3.091,2.923,1.72,5.301c1.869,1.48,3.682,2.946,6.3,3.024
	c1.641,0.049,2.667,1.297,2.89,3.458c0.225,2.187,1.356,3.456,3.268,4.242c1.352,0.556,2.068,1.489,2.109,3.042
	c0.041,1.565,1.1,2.415,2.714,2.472c1.583,0.056,2.061,0.466,1.975,1.961c-0.11,1.9,0.433,3.586,1.452,5.139
	c3.108,4.735,5.265,9.887,6.891,15.294c0.234,0.78,0.866,1.526,1.493,2.088c4.144,3.709,7.117,8.069,7.971,13.69
	c0.346,2.274-0.141,2.76-2.365,2.226c-0.166-0.04-0.332-0.078-0.669-0.158c0.35,1.096,0.79,2.063,0.952,3.075
	c0.29,1.815,0.465,3.653,0.589,5.489c0.096,1.416-0.709,2.101-2.099,2.162C149.921,87.082,149.67,87.185,149.315,87.27z
	 M132.368,40.247c-0.653-0.915-0.86-4.898-3.435-5.034c-1.829-0.096-2.981-1.879-2.341-3.749c0.215-0.627,0.385-1.051-0.197-1.613
	c-0.581-0.562-1.051-0.532-1.761-0.324c-3.406,1-5.968-1.292-5.28-4.71c0.192-0.952-0.047-1.631-0.817-2.184
	c-1.797-1.289-3.586-2.59-5.373-3.893c-0.813-0.593-1.639-0.738-2.611-0.34c-1.366,0.561-2.684,0.362-3.898-0.495
	c-0.614-0.433-1.285-0.797-1.853-1.283c-0.842-0.721-1.641-1.087-2.856-0.872c-0.863,0.153-1.898-0.245-2.759-0.62
	c-0.836-0.365-1.564-0.991-2.308-1.545c-0.89-0.664-1.804-0.935-2.958-0.795c-1.164,0.141-2.417,0.159-3.546-0.117
	c-3.82-0.936-7.296-2.638-10.414-5.066c-1.443-1.124-3.005-1.947-4.918-2.084c-6.109-0.439-12.103,0.329-18.034,1.669
	c-1.03,0.233-2.072,0.808-2.886,1.49c-0.857,0.718-1.687,1.122-2.76,0.902c-2.015-0.414-3.357,0.28-4.318,2.145
	c-1.149,2.229-2.765,2.509-4.789,1.065c-0.14-0.1-0.286-0.193-0.693-0.467c-0.543,0.99-1.181,1.881-1.547,2.873
	c-0.863,2.343-3.208,3.527-5.552,2.673c-0.317-0.116-0.63-0.243-0.942-0.365c-2.689,2.603-5.318,5.147-8.111,7.849
	c1.932,0.829,1.242,1.936,0.535,3.053c-0.307,0.485-0.643,0.964-0.866,1.488c-0.195,0.458-0.41,1.001-0.338,1.463
	c0.179,1.142-0.157,2.044-1.056,2.677c-1.111,0.783-2.337,1.404-3.426,2.212c-0.488,0.362-1.064,1.007-1.073,1.532
	c-0.021,1.207-0.379,2.16-1.25,2.941c-2.5,2.243-4.98,4.509-7.524,6.699c-1.459,1.256-2.93,2.493-3.43,4.435
	c-1.42,5.515-3.049,10.99-3.452,16.715c-0.235,3.336-0.826,6.669,0.533,9.959c0.278,0.673-0.068,1.753-0.423,2.505
	c-0.596,1.264-0.496,2.247,0.506,3.225c1.228,1.2,1.391,2.425,0.644,3.972c-0.854,1.77-0.749,2.199,0.814,3.316
	c1.929,1.379,2.506,2.782,1.512,4.912c-1.065,2.281-0.295,3.994,1.097,5.701c1.585,1.944,3.15,3.906,4.792,5.945
	c1.949-0.401,2.473-0.131,3.443,1.972c0.351,0.762,0.638,1.557,1.037,2.292c0.154,0.285,0.549,0.649,0.811,0.632
	c1.939-0.126,2.878,1.026,3.579,2.59c0.699,1.562,1.451,3.1,2.176,4.642c2.096-0.876,2.894-0.806,4.282,0.878
	c1.055,1.28,1.947,2.735,2.685,4.224c1.117,2.253,2.034,4.604,3.041,6.911c0.775,1.776,2.011,3.073,3.81,3.868
	c1.656,0.732,3.23,1.658,4.909,2.328c0.857,0.342,1.879,0.493,2.797,0.406c1.379-0.13,2.388,0.177,3.187,1.357
	c0.991,1.464,2.639,2.019,4.3,1.544c1.813-0.519,3.379-0.196,4.757,1.149c1.083,1.057,2.116,1.145,3.496,0.449
	c1.45-0.732,2.901-0.759,4.307,0.069c4.488,2.641,8.781,1.579,12.899-0.818c1.184-0.689,2.275-1.261,3.651-1.326
	c0.45-0.021,1.114-0.267,1.286-0.609c0.777-1.547,2.155-2.042,3.673-2.264c1.119-0.164,2.264-0.147,3.37-0.21
	c0.914-2.909,1.093-3.104,4.161-2.863c3.656,0.286,7.301,0.711,10.949,1.098c1.699,0.18,3.219-0.18,4.637-1.173
	c3.078-2.155,6.162-4.305,9.311-6.353c2.062-1.341,3.684-2.952,4.648-5.27c0.239-0.575,1.116-1.137,1.773-1.239
	c1.958-0.305,2.754-1.122,2.592-3.067c-0.183-2.191,0.754-3.343,2.91-3.578c2.019-0.22,2.8-1.548,2.039-3.47
	c-1.149-2.9,0.359-5.287,3.493-5.715c0.655-0.09,1.458-0.531,1.825-1.063c1.868-2.71,2.627-5.769,2.378-9.049
	c-0.029-0.387-0.373-0.97-0.699-1.08c-2.743-0.925-2.298-2.668-1.138-4.34c0.897-1.293,1.934-2.49,2.975-3.813
	c-0.351-0.026-0.641-0.035-0.927-0.072c-2.041-0.259-2.643-1.014-2.147-3.051c0.265-1.085,0.738-2.169,1.34-3.111
	c0.769-1.203,1.049-2.263,0.202-3.546c-0.28-0.424-0.31-1.097-0.261-1.639c0.353-3.901,1.357-7.632,2.838-11.264
	c0.424-1.041,0.6-2.351,0.395-3.444c-0.365-1.935-0.936-3.875-1.73-5.677c-1.709-3.879-3.696-7.634-5.406-11.513
	C135.788,41.931,133.02,41.162,132.368,40.247z M79.527,4.174c0.002,0.177,0.005,0.353,0.007,0.53
	c1.789,0.188,3.684,0.833,5.34,0.448c1.998-0.465,3.927-0.204,5.876-0.369c0.833-0.071,1.732,0.121,2.495-0.128
	c0.703-0.229,1.266-0.89,1.891-1.361c-0.448-0.587-0.774-1.391-1.366-1.721c-1.779-0.994-3.733-0.806-5.682-0.516
	C85.004,1.515,82.291,2.903,79.527,4.174z M23.786,129.139c-0.035-0.616,0.007-0.778-0.056-0.864
	c-1.953-2.682-3.793-5.524-6.65-7.311c-1.32-0.826-3.007-1.195-4.58-1.44c-1.194-0.186-1.811,1.067-1.11,2.085
	c0.57,0.828,1.178,1.791,2.013,2.247C16.719,125.665,20.131,127.299,23.786,129.139z M106.89,138.948
	c-0.128-0.16-0.256-0.32-0.384-0.48c-0.442,0.203-0.922,0.349-1.319,0.618c-3.292,2.226-6.569,4.472-9.846,6.718
	c-0.326,0.224-0.787,0.434-0.899,0.751c-0.286,0.814-0.831,1.935-0.508,2.477c0.556,0.932,1.756,0.81,2.74,0.276
	c0.308-0.167,0.596-0.382,0.865-0.607c1.693-1.418,3.513-2.715,5.028-4.303C104.162,142.727,105.462,140.776,106.89,138.948z
	 M25.656,120.569c-1.044,1.184-1.181,2.417-0.724,3.847c1.274,3.991,4.241,6.339,7.765,8.289
	C31.746,127.379,28.896,122.447,25.656,120.569z M29.695,133.987c0.049-0.225,0.099-0.451,0.148-0.676
	c-3.598-1.565-6.862-3.876-10.815-4.642c-0.643-0.125-1.317-0.164-1.972-0.136c-1.254,0.053-1.562,0.686-0.838,1.724
	c1.095,1.571,2.514,2.859,4.44,3.086C23.653,133.697,26.68,133.786,29.695,133.987z M92.102,6.631
	c3.603,1.81,7.046,2.818,10.722,2.669c0.684-0.028,1.332-0.934,1.996-1.435c-0.479-0.495-0.869-1.177-1.452-1.455
	C99.723,4.678,96.081,5.484,92.102,6.631z M92.968,12.046c-0.166-2.538-1.64-4.214-3.866-4.618
	c-2.511-0.456-5.022-0.908-7.536-1.344c-0.302-0.053-0.622,0-0.933,0.004c-0.042,0.151-0.084,0.301-0.126,0.451
	C84.18,9.28,88.132,11.415,92.968,12.046z M152.583,74.998c-0.114-5.316-2.942-8.955-6.763-12.082
	c1.071,3.494,2.313,6.915,3.694,10.279C149.989,74.35,151.055,74.952,152.583,74.998z M10.106,39.631
	c3.586-2.307,6.856-10.241,5.493-13.194C10.915,29.648,11.734,35.026,10.106,39.631z M104.028,137.489
	c-3.575-0.393-6.991-0.799-10.414-1.108c-0.471-0.042-1.312,0.305-1.401,0.632c-0.13,0.475,0.172,1.154,0.471,1.632
	c0.206,0.329,0.695,0.541,1.101,0.678c3.515,1.193,6.782,0.349,9.939-1.28C103.815,137.995,103.847,137.828,104.028,137.489z
	 M150.268,85.511c1.663-2.696-0.246-10.24-2.929-12.001C147.515,77.7,146.21,82.167,150.268,85.511z M9.509,45.93
	c3.215-1.455,5.746-3.612,7.811-6.299c0.339-0.441,0.444-1.062,0.664-1.616c-2.017-0.6-4.157,0.191-5.387,2.141
	C11.436,41.997,10.528,43.999,9.509,45.93z M5.631,45.818c2.848-3.779,4.441-11.287,2.807-13.458
	C5.641,36.439,5.663,40.997,5.631,45.818z M86.88,146.444c3.546,1.947,7.672,0.195,9.856-4.154
	C93.21,143.248,89.456,143.309,86.88,146.444z M145.964,83.617c-0.82,3.064-0.797,5.847-0.427,8.647
	c0.028,0.21,0.108,0.498,0.26,0.591c0.554,0.337,1.244,0.94,1.702,0.81c0.484-0.137,1.075-0.998,1.077-1.545
	C148.59,89.16,147.808,86.393,145.964,83.617z M19.123,113.881c-0.577,1.879-0.448,3.438,0.314,4.868
	c1.198,2.248,2.522,4.429,3.801,6.633c0.023,0.039,0.158,0.013,0.428,0.028c-0.696-3.301-1.169-6.608-2.752-9.594
	C20.548,115.124,19.825,114.621,19.123,113.881z M14.927,117.861c0.066-0.107,0.132-0.215,0.198-0.322
	c-0.545-0.84-0.973-1.794-1.661-2.493c-1.168-1.184-2.452-2.27-3.79-3.258c-0.408-0.301-1.152-0.148-1.742-0.203
	c0.019,0.543-0.149,1.197,0.095,1.605c0.554,0.925,1.15,1.996,2.021,2.521C11.557,116.622,13.288,117.164,14.927,117.861z
	 M144.608,67.036c-0.145-0.019-0.29-0.038-0.435-0.057c-1.614,3.218-2.432,6.564-1.427,10.272c0.698-0.743,1.52-1.544,1.602-2.415
	C144.591,72.25,144.543,69.638,144.608,67.036z M93.435,140.974c-2.63-0.998-4.915-1.989-7.417-0.824
	c-0.382,0.177-0.634,0.632-0.947,0.958c0.353,0.288,0.662,0.714,1.066,0.841C88.572,142.715,90.905,142.438,93.435,140.974z
	 M144.563,79.116c-0.151-0.081-0.301-0.162-0.452-0.244c-0.985,1.4-2.038,2.758-2.925,4.217c-0.461,0.758-1.178,1.729,0.051,2.515
	c0.73,0.466,1.968-0.079,2.63-1.133c0.184-0.294,0.393-0.626,0.421-0.955C144.413,82.053,144.477,80.584,144.563,79.116z
	 M94.488,8.814c-0.064,2.575,5.193,6.102,7.721,5.295C100.407,11.152,97.092,10.739,94.488,8.814z M16.374,36.57
	c2.232-1.121,4.192-2.062,6.099-3.099c0.365-0.198,0.599-0.747,0.751-1.184c0.096-0.277,0.039-0.8-0.15-0.935
	c-0.26-0.187-0.763-0.248-1.063-0.123c-0.725,0.301-1.395,0.737-2.083,1.125C18.354,33.244,17.16,34.467,16.374,36.57z
	 M22.245,22.971c-2.709,2.237-4.276,4.806-5.041,8.321C19.623,28.795,22.105,26.788,22.245,22.971z M103.638,11.617
	c2.418,1.324,4.832,1.858,7.52,1.185C109.853,10.75,106.352,10.197,103.638,11.617z M110.022,15.62
	c2.103,1.015,3.971,1.917,5.911,2.853C115.825,15.732,113.303,14.475,110.022,15.62z M16.736,116.066
	c-0.5-2.63-0.536-5.155-2.703-6.934C13.634,111.432,14.739,114.357,16.736,116.066z M72.354,147.089
	c1.698,0.779,3.911,0.284,5.03-1.124C74.601,145.286,73.264,145.585,72.354,147.089z M85.612,145.426
	c-0.515-0.222-0.888-0.54-1.121-0.459c-1.724,0.604-3.421,1.287-5.143,1.951C79.871,147.822,81.851,147.335,85.612,145.426z
	 M105.476,14.274c0.29,2.309,2.474,3.602,4.388,2.857C108.355,16.148,106.916,15.211,105.476,14.274z M142.669,89.729
	c-1.704,0.954-2.673,2.841-2.11,3.957C142.04,93.278,142.604,92.254,142.669,89.729z M29.555,19.32
	c-1.927-0.085-3.787,1.659-4.456,3.869C26.685,21.812,28.12,20.566,29.555,19.32z M7.397,104.244
	c-0.174,2.453,0.706,4.131,2.437,4.89C9.045,107.551,8.31,106.076,7.397,104.244z M6.922,47.509
	c0.188,0.102,0.377,0.203,0.565,0.305c0.971-1.899,1.942-3.799,2.913-5.698c-0.154-0.081-0.308-0.161-0.462-0.242
	C8.932,43.752,7.927,45.63,6.922,47.509z M21.721,30.02c1.451-0.939,2.607-1.688,4.051-2.623
	C23.538,27.269,22.507,27.94,21.721,30.02z M12.082,110.996c0.133-0.068,0.267-0.136,0.4-0.205
	c-0.999-1.853-1.998-3.706-2.997-5.559c-0.117,0.062-0.234,0.124-0.35,0.186C10.117,107.278,11.099,109.137,12.082,110.996z" class="color c1"/>
</svg>