<svg version="1.1" id="图层_1" x="0px" y="0px" width="103.956px" height="104.983px" viewBox="0 0 103.956 104.983" enable-background="new 0 0 103.956 104.983" xml:space="preserve" xmlns="http://www.w3.org/2000/svg" xmlns:xlink="http://www.w3.org/1999/xlink" xmlns:xml="http://www.w3.org/XML/1998/namespace">
  <path fill="#EDBEB9" d="M61.459,101.478c-2.285-5.515-6.598-10.162-10.658-14.852c0.026-0.107,0.024-0.22-0.022-0.321
	c-1.661-3.583-4.121-6.607-5.599-10.357c-1.538-3.901-2.619-7.998-3.479-12.097c-1.506-7.172-1.943-14.464-2.914-21.704
	c0.003-0.001,0.005,0,0.008-0.001c0.527-0.135,0.871-0.461,1.095-0.874c0.31-0.279,0.519-0.667,0.475-1.092
	c-0.023-0.217-0.053-0.418-0.097-0.616c0.004-0.177,0.003-0.351-0.005-0.515c-0.035-0.758-0.55-1.386-1.315-1.489
	c-0.121-0.016-0.244-0.011-0.368,0.003c-0.182-0.018-0.363-0.018-0.53,0.006c-0.088,0.012-0.162,0.046-0.242,0.07
	c-0.432,0.005-0.859,0.189-1.159,0.511c-0.686,0.736-0.514,1.828-0.134,2.662c0.357,0.783,1.094,1.441,1.977,1.378
	c-0.449,8.036,0.584,16.307,2.254,24.145c0.644,3.024,1.515,6.867,2.846,10.515c-4.721-7.965-7.959-16.692-11.196-25.346
	c-2.018-5.396-3.94-10.761-6.489-15.843c0.021-0.021,0.046-0.035,0.059-0.066c0.98-2.282,0.404-5.745-0.517-9.046
	c1.131-2.472,1.682-5.364,2.839-7.854c0.924-1.99,2.174-3.994,2.579-6.172c0.442,0.138,0.921,0.146,1.354-0.043
	c0.913-0.4,1.207-1.362,1.328-2.273c0.041-0.308-0.198-0.568-0.42-0.733c-0.1-0.074-0.209-0.137-0.318-0.199
	c-0.158-0.175-0.379-0.283-0.641-0.282c-0.153-0.096-0.313-0.176-0.482-0.225c-0.589-0.172-1.035-0.035-1.364,0.266
	c-0.579,0.153-1.004,0.89-1.028,1.454c-0.017,0.392,0.107,0.754,0.31,1.071c0.082,0.205,0.239,0.374,0.428,0.488
	c0.076,0.067,0.148,0.14,0.232,0.198c0.001,0,0.001,0.001,0.002,0.001c-1.675,2.287-2.847,5.18-4,7.724
	c-0.568,1.253-1.223,2.654-1.581,4.076c-0.54-1.658-1.089-3.177-1.466-4.348c-1.304-4.05-3.056-10.25-7.175-12.377
	c0.333-0.291,0.613-0.658,0.85-1.009c0.146-0.216,0.177-0.456,0.143-0.689c0.081-0.36,0.03-0.765-0.256-1.197
	c-0.342-0.518-0.781-1.03-1.41-1.186c-0.583-0.144-1.159,0.071-1.552,0.513c-0.661,0.743-0.807,1.977-0.486,2.902
	c0.274,0.79,1,1.336,1.861,1.138c0.264-0.061,0.491-0.197,0.703-0.356c2.424,3.049,4.011,6.659,5.223,10.368
	c-0.571-0.76-1.169-1.485-1.705-2.163c-1.938-2.453-4.043-3.89-6.451-5.678c0.056-0.091,0.111-0.183,0.164-0.276
	c0.328-0.578,0.085-1.165-0.404-1.539c-0.318-0.244-0.661-0.356-0.996-0.358c-0.375-0.215-0.847-0.232-1.242,0.013
	c-0.334,0.207-0.554,0.545-0.73,0.908C9.586,8.931,9.458,9.154,9.415,9.326C9.387,9.437,9.386,9.553,9.389,9.67
	c-0.045,0.294,0.066,0.617,0.267,0.858c0.415,0.69,1.229,1.174,1.956,0.749c0.152-0.089,0.261-0.22,0.353-0.366
	c0.015-0.006,0.03-0.006,0.044-0.012c0.4-0.168,0.663-0.474,0.886-0.819c1.959,1.686,3.644,4.123,5.201,6.125
	c1.499,1.929,2.602,4.569,4.38,6.255c0.637,2.417,1.18,4.865,1.648,7.32c0.196,1.03,0.264,2.24,0.464,3.384
	c-0.897-1.605-1.858-3.182-2.94-4.709C16.627,21.369,10.425,15.276,5.06,8.476c0.055-0.138,0.097-0.282,0.126-0.429
	C5.745,7.305,5.699,6.2,5.168,5.45c-1.4-1.974-4.286-0.876-5.025,1.116C-0.24,7.597,0.166,8.743,1.13,9.288
	c1.019,0.577,2.584,0.783,3.481-0.113c0.172-0.172,0.299-0.379,0.4-0.599c5.127,6.857,10.849,13.356,15.533,20.525
	c3.528,5.399,5.968,11.339,8.171,17.377c-1.757-2.135-3.734-4.033-5.417-5.486c-1.891-1.632-3.944-3.076-6.2-4.155
	c-0.936-1.82-2.711-3.5-3.834-4.994c-1.377-1.832-2.832-3.739-4.004-5.747c0.607-0.355,1.071-0.914,1.249-1.615
	c0.242-0.953-0.14-1.959-0.948-2.511s-1.847-0.512-2.752-0.251c-0.54,0.156-0.977,0.661-1.038,1.23
	c-0.439,0.529-0.597,1.206-0.581,1.925c0.009,0.421,0.23,0.913,0.633,1.103c0.919,0.433,1.959,0.712,2.955,0.357
	c0.077-0.028,0.144-0.074,0.218-0.107c0.9,2.172,1.908,4.187,3.278,6.196c0.699,1.025,1.416,2.276,2.238,3.419
	c-2.405-0.779-5.023-1.499-6.721-3.187c0.041-0.132,0.073-0.271,0.073-0.433c-0.001-0.387-0.16-0.715-0.397-0.996
	c-0.017-0.036-0.018-0.075-0.038-0.11c-0.238-0.416-0.659-0.669-1.121-0.767C6.227,30.304,6.147,30.26,6.07,30.22
	c-0.539-0.282-1.39-0.108-1.612,0.521c-0.482,0.265-0.889,0.666-0.885,1.266c0.005,0.786,0.582,1.268,1.272,1.507
	c0.87,0.301,2.323,0.241,2.826-0.614c1.878,2.523,5.46,3.577,8.553,4.885c0.323,0.284,0.657,0.547,1.018,0.751
	c0.148,0.084,0.303,0.007,0.365-0.123c0.54,0.267,1.052,0.551,1.52,0.866c1.12,0.754,2.138,1.559,3.086,2.402
	c-1.041-0.334-2.159-0.504-2.942-0.627c-2.563-0.404-5.465-0.453-7.952,0.389c-0.122,0.041-0.146,0.242,0,0.271
	c2.26,0.453,4.617,0.454,6.901,0.794c1.339,0.199,2.633,0.505,3.882,1.032c0.879,0.371,1.548,0.882,2.505,0.861
	c0.085-0.002,0.154-0.037,0.213-0.083c3.279,3.764,5.517,8.175,7.746,12.984c0.012,0.025,0.029,0.04,0.043,0.061
	c1.992,5.438,4.108,10.86,6.682,16.051c-3.893-3.636-10.203-5.245-14.594-8.252c0.185-0.254,0.273-0.556,0.264-0.884
	c0.11-0.249,0.173-0.533,0.162-0.861c-0.012-0.354-0.13-0.698-0.303-1.005c-0.089-0.158-0.233-0.317-0.338-0.451
	c0.199,0.255-0.192-0.248-0.266-0.322c-0.58-0.581-1.413-0.855-2.219-0.661c-1.274,0.306-2.216,1.599-2.482,2.831
	c-0.135,0.624,0.084,1.34,0.676,1.66c1.168,0.633,2.456,0.75,3.706,0.278c0.225-0.085,0.411-0.2,0.566-0.333
	c2.042,2.023,4.26,3.444,6.917,4.875c3.486,1.878,6.327,4.245,9.54,6.474c0.05,0.035,0.101,0.053,0.151,0.062
	c0.687,1.247,1.396,2.483,2.154,3.692c2.158,3.441,4.724,6.552,7.295,9.688c3.244,3.958,6.055,8.321,9.396,12.172
	C60.497,103.043,61.813,102.333,61.459,101.478z M37.389,40.665c0.001,0.002,0.002,0.003,0.003,0.005
	c-0.002-0.002-0.003-0.004-0.005-0.007C37.388,40.664,37.389,40.665,37.389,40.665z M8.115,24.35c0.001,0,0.002,0,0.003-0.001
	C8.116,24.35,8.117,24.352,8.115,24.35C8.115,24.351,8.115,24.351,8.115,24.35z M7.88,23.86c0.008,0,0.009,0.001,0.018,0.001
	c-0.006,0-0.013,0-0.019,0C7.88,23.861,7.88,23.861,7.88,23.86z M5.977,31.571c-0.031,0.002-0.06,0-0.092,0.004
	c0.008-0.01,0.047-0.016,0.106-0.012C5.987,31.565,5.982,31.568,5.977,31.571z M22.218,14.71c-0.31-1.596,0.221-3.335,0.557-4.901
	c0.386-1.801,0.845-3.538,1.448-5.261c-0.181-0.068-0.356-0.153-0.519-0.258c-0.534-0.342-0.984-0.829-0.922-1.505
	c0.019-0.205,0.094-0.385,0.189-0.554c-0.228-0.351-0.135-0.935,0.168-1.205c0.811-0.719,1.973-1.418,3.039-0.771
	c1.405,0.853,1.153,3.27-0.095,4.128c-0.495,0.341-1.079,0.383-1.628,0.236c-0.207,1.431-0.446,2.849-0.687,4.281
	c-0.315,1.877-0.242,4.046-0.978,5.809C22.691,14.949,22.281,15.032,22.218,14.71z M10.749,43.056
	c-0.672,1.348-2.661,1.713-3.687,0.543c-0.086-0.098-0.147-0.21-0.209-0.321c-0.053-0.044-0.108-0.084-0.159-0.135
	c-0.517-0.52-0.71-1.317-0.513-2.021c0.395-1.415,1.892-1.991,3.216-1.508C10.82,40.133,11.426,41.698,10.749,43.056z
	 M103.918,75.039c-0.84,2.485-2.419,4.051-4.368,5.102c-2.717,5.161-3.091,12.207-5.353,17.178
	c-2.682,5.898-9.145,8.499-15.012,4.99c-0.398-0.238-0.263-0.982,0.252-0.932c4.094,0.398,8.133,2.159,11.597-1.072
	c2.47-2.304,3.466-6.078,4.341-9.217c0.998-3.58,1.863-7.189,3.314-10.525c-2.085,0.925-4.5,1.377-6.881,1.752
	c-3.566,0.562-7.416,0.885-10.64,2.649c-5.452,2.982-6.054,8.943-6.438,14.513c-0.004,0.058-0.078,0.066-0.098,0.013
	c-2.423-6.371,1.101-13.921,7.239-16.536c4.887-2.082,13.462-1.341,18.024-4.839c0.758-1.345,1.653-2.627,2.742-3.823
	C103.145,73.737,104.162,74.318,103.918,75.039z M81.602,92.772c-0.201-0.758-0.405-1.847-0.858-2.501
	c-0.145-0.209,0.129-0.414,0.321-0.321c0.801,0.391,1.111,1.482,1.359,2.258c0.317,0.995,1.082,3.031,0.408,3.966
	c-0.14,0.194-0.371,0.184-0.513,0c-0.344-0.447-0.278-0.956-0.343-1.502C81.899,94.032,81.766,93.395,81.602,92.772z M91.334,98.063
	c0.538,0.103,0.565,1.038,0,1.115c-2.295,0.312-4.638-0.684-6.934-0.803c-0.381-0.02-0.432-0.519-0.087-0.645
	c1.107-0.404,2.122-0.288,3.271-0.14C88.828,97.751,90.103,97.828,91.334,98.063z M85.29,96.862c-2.998,1.93-6.681,3.14-9.934,4.125
	c-5.274,1.596-10.832,3.044-16.259,3.995c-0.081,0.014-0.107-0.09-0.033-0.12c4.396-1.844,9.227-2.737,13.764-4.202
	c4.534-1.464,8.534-3.553,12.719-5.596c-0.413-0.82-0.536-2.047-0.709-2.805c-0.28-1.229-0.479-2.486-0.576-3.743
	c-0.016-0.205,0.278-0.217,0.338-0.046c0.453,1.304,1.044,2.558,1.476,3.869c0.208,0.634,0.566,1.415,0.656,2.154
	c0.055-0.027,0.11-0.053,0.166-0.08c0.523-0.371,1.045-0.745,1.508-1.195c1.15-1.118,2.091-2.42,2.95-3.769
	c0.394-0.619,0.763-1.302,1.137-1.998c-0.042-0.024-0.085-0.042-0.123-0.077c-0.514-0.472-0.948-1.286-1.023-1.988
	c-0.07-0.659,0.237-1.001,0.724-1.376c0.121-0.093,0.248,0.061,0.23,0.176c-0.053,0.328,0.189,0.879,0.308,1.195
	c0.124,0.328,0.336,0.596,0.537,0.873c0.761-1.364,1.603-2.679,2.755-3.574c0.012-0.009,0.03-0.001,0.026,0.015
	c-0.235,0.947-0.618,1.929-1.072,2.91c0.211-0.1,0.428-0.189,0.657-0.256c0.635-0.185,0.906,0.811,0.272,0.987
	c-0.588,0.164-1.109,0.468-1.653,0.723c-0.655,1.223-1.39,2.418-2.099,3.515c0.711-0.349,1.366-0.754,2.155-0.97
	c0.704-0.193,1.001,0.94,0.299,1.083c-0.92,0.188-1.817,0.314-2.756,0.349c-0.134,0.205-0.27,0.413-0.4,0.609
	c-0.63,0.952-1.394,2.043-2.288,2.984c1.258-0.101,2.543-0.075,3.8-0.185c0.59-0.052,0.688,0.875,0.137,1.013
	c-1.591,0.398-3.267,0.233-4.91,0.079C87.236,96.218,86.309,96.716,85.29,96.862z M88.781,88.616c-0.214-0.945-0.28-1.87-0.23-2.835
	c0.005-0.101,0.153-0.159,0.204-0.055c0.418,0.85,0.841,1.677,1.118,2.589c0.214,0.702,0.73,1.762,0.326,2.45
	c-0.105,0.18-0.394,0.288-0.577,0.151C88.977,90.436,88.95,89.362,88.781,88.616z" class="color c1"/>
</svg>