<svg version="1.1" id="图层_1" x="0px" y="0px" width="251.699px" height="58.809px" viewBox="0 0 251.699 58.809" enable-background="new 0 0 251.699 58.809" xml:space="preserve" xmlns="http://www.w3.org/2000/svg" xmlns:xlink="http://www.w3.org/1999/xlink" xmlns:xml="http://www.w3.org/XML/1998/namespace">
  <path fill="#5DC9D5" d="M245.507,16.994c-1.043,0.447-2.244,0.859-3.619,1.234c-4.395,1.193-10.575,1.983-19.135,2.111
	c-3.133,0.049-6.58,0.01-10.38-0.13c0,0-22.046,5.51,16.167,17.636c3.924,1.367,6.82,2.676,8.861,3.916
	c14.406,8.754-13.766,14.27-25.028,15.557c-9.612,1.1-85.742,5.273-151.813-8.033c-18.275-3.68-35.778-8.697-50.893-15.488
	C6.323,32.295,3.093,30.709,0,29.028c0,0,3.702,1.279,11.177,3.05c10.814,2.564,29.543,6.16,56.478,8.412
	c25.123,2.102,57.385,3.031,97.005,0.863c0.389,0.004,0.775,0.008,1.178,0.01c-0.018-0.023-0.036-0.049-0.053-0.072
	c2.76-0.154,5.545-0.32,8.376-0.506c30.497-2.939,12.492-13.229,12.492-13.229s-6.522-6.938,0.802-10.777
	c2.502-1.311,6.611-2.262,13.161-2.449c5.679-0.162,11.122-0.271,16.149-0.491c7.033-0.31,13.248-0.84,18.134-2.042
	c1.388-0.343,2.661-0.742,3.823-1.204c5.063-2.012,7.877-5.251,7.455-10.593C246.177,0,259.036,11.211,245.507,16.994z" class="color c1"/>
</svg>