<svg version="1.1" id="图层_1" x="0px" y="0px" width="143.779px" height="160.645px" viewBox="0 0 143.779 160.645" enable-background="new 0 0 143.779 160.645" xml:space="preserve" xmlns="http://www.w3.org/2000/svg" xmlns:xlink="http://www.w3.org/1999/xlink" xmlns:xml="http://www.w3.org/XML/1998/namespace">
  <path fill="#9E8653" d="M118.438,126.677C134.591,112.98,143.78,93.23,143.78,71.89C143.78,32.25,111.53,0,71.89,0
	C32.25,0,0,32.25,0,71.89c0,21.695,9.464,41.689,26.082,55.403c-9.544,2.348-16.624,10.958-16.624,21.227v11.163
	c0,0.531,0.432,0.962,0.962,0.962h128.128c0.531,0,0.962-0.431,0.962-0.962V148.52C139.51,136.71,130.146,127.093,118.438,126.677z
	 M3,71.89C3,33.903,33.903,3,71.89,3c37.986,0,68.89,30.902,68.89,68.89c0,21.657-9.875,41.605-27.099,54.768h-82.36
	c-0.396,0-0.786,0.012-1.175,0.031C12.889,113.53,3,93.599,3,71.89z M134.58,157.645H14.388c-1.065,0-1.931-0.863-1.931-1.93v-7.195
	c0-10.418,8.445-18.862,18.863-18.862h86.325c6.498,0,12.229,3.286,15.62,8.287H31.272c-0.828,0-1.5,0.673-1.5,1.5
	c0,0.828,0.672,1.5,1.5,1.5h103.643c0.729,1.656,1.22,3.438,1.444,5.302l-46.772,0.31c-0.828,0.005-1.496,0.682-1.489,1.51
	c0.006,0.828,0.682,1.495,1.51,1.49l46.902-0.311v6.471C136.51,156.78,135.646,157.645,134.58,157.645z M76.626,146.641
	l-22.344,0.148c-0.828,0.005-1.496,0.681-1.49,1.51c0.006,0.828,0.683,1.495,1.51,1.49l22.345-0.148
	c0.828-0.005,1.496-0.682,1.49-1.51C78.13,147.303,77.454,146.636,76.626,146.641z" class="color c1"/>
</svg>