<svg version="1.1" id="图层_1" x="0px" y="0px" width="220px" height="116.279px" viewBox="0 0 220 116.279" enable-background="new 0 0 220 116.279" xml:space="preserve" xmlns="http://www.w3.org/2000/svg" xmlns:xlink="http://www.w3.org/1999/xlink" xmlns:xml="http://www.w3.org/XML/1998/namespace">
  <path fill="#00A6C5" d="M49.048,37.577l0.119,0.546c0,0-0.629,0.193-1.729,0.532c-0.274,0.084-0.579,0.177-0.909,0.278
	c-0.317,0.137-0.66,0.287-1.027,0.447c-0.732,0.319-1.567,0.654-2.409,1.164c-0.429,0.237-0.875,0.484-1.337,0.74
	c-0.432,0.304-0.879,0.619-1.338,0.942c-0.23,0.161-0.462,0.325-0.698,0.491c-0.232,0.17-0.442,0.376-0.667,0.565
	c-0.445,0.387-0.9,0.782-1.362,1.184c-0.83,0.902-1.765,1.765-2.523,2.811c-0.834,0.982-1.528,2.096-2.249,3.187
	c-0.344,0.555-0.657,1.132-0.987,1.694c-0.342,0.557-0.623,1.145-0.896,1.729c-0.267,0.588-0.584,1.149-0.803,1.744
	c-0.233,0.589-0.462,1.172-0.688,1.744c-0.232,0.571-0.382,1.161-0.572,1.723c-0.175,0.566-0.372,1.114-0.49,1.668
	c-0.269,1.099-0.545,2.133-0.688,3.11c-0.088,0.486-0.171,0.953-0.251,1.396c-0.058,0.444-0.113,0.866-0.166,1.263
	c-0.096,0.741-0.184,1.391-0.209,1.952c1.074,0.053,2.073,0.203,2.945,0.411c0.52,0.11,1.007,0.271,1.443,0.434
	c0.436,0.148,0.827,0.33,1.171,0.495c0.696,0.287,1.19,0.67,1.523,0.888c0.332,0.229,0.495,0.367,0.495,0.367l-0.126,0.543
	c0,0-0.184-0.029-0.529-0.084c-0.344-0.06-0.848-0.15-1.5-0.177c-0.325-0.026-0.684-0.054-1.077-0.035
	c-0.392,0.012-0.816-0.01-1.269,0.048c-0.451,0.048-0.934,0.067-1.434,0.168c-0.502,0.08-1.032,0.151-1.575,0.289
	c-1.097,0.219-2.253,0.601-3.459,1.036c-1.19,0.482-2.438,1.02-3.661,1.713c-1.235,0.667-2.464,1.444-3.66,2.31
	c-1.209,0.847-2.358,1.815-3.478,2.81c-2.244,1.987-4.28,4.217-5.906,6.51c-0.827,1.138-1.538,2.297-2.156,3.425
	c-0.297,0.57-0.599,1.119-0.837,1.676c-0.262,0.545-0.483,1.085-0.679,1.61c-0.402,1.045-0.7,2.028-0.924,2.909
	c-0.209,0.882-0.363,1.668-0.42,2.308c-0.093,0.636-0.1,1.163-0.109,1.519c-0.012,0.356-0.018,0.547-0.018,0.547l-0.558-0.006
	c0,0-0.105-0.19-0.268-0.549c-0.149-0.36-0.435-0.856-0.592-1.625c-0.206-0.771-0.39-1.669-0.468-2.737
	c-0.074-1.062-0.057-2.275,0.116-3.572c0.159-1.309,0.491-2.685,0.955-4.106c0.482-1.408,1.096-2.86,1.888-4.261
	c0.37-0.722,0.82-1.402,1.277-2.092c0.448-0.698,0.954-1.362,1.481-2.018c1.045-1.321,2.246-2.538,3.5-3.698
	c1.302-1.105,2.631-2.185,4.083-3.059c1.42-0.912,2.916-1.675,4.427-2.275c1.491-0.632,3.04-1.045,4.503-1.359
	c1.148-0.205,2.251-0.343,3.308-0.379c-0.246-0.565-0.486-1.287-0.685-2.15c-0.116-0.448-0.21-0.936-0.313-1.448
	c-0.078-0.5-0.128-1.024-0.197-1.581c-0.05-0.553-0.117-1.137-0.113-1.734c-0.006-0.599,0.021-1.215,0.034-1.857
	c-0.001-0.646,0.12-1.286,0.196-1.956c0.039-0.335,0.089-0.672,0.151-1.009c0.057-0.34,0.111-0.685,0.2-1.022
	c0.333-1.359,0.694-2.778,1.298-4.141c0.277-0.689,0.539-1.397,0.927-2.052c0.365-0.666,0.708-1.346,1.1-2.001
	c0.44-0.631,0.88-1.26,1.319-1.888l0.331-0.467l0.383-0.432l0.766-0.856c0.256-0.282,0.504-0.568,0.765-0.84
	c0.257-0.273,0.565-0.509,0.842-0.761c0.567-0.495,1.124-0.983,1.704-1.421c0.617-0.406,1.206-0.82,1.815-1.173
	c0.589-0.374,1.199-0.697,1.827-0.953c0.62-0.264,1.205-0.534,1.788-0.752c0.615-0.169,1.194-0.343,1.76-0.473
	c0.281-0.064,0.556-0.127,0.825-0.188c0.265-0.064,0.525-0.119,0.796-0.13c0.533-0.043,1.024-0.097,1.492-0.111
	c0.468-0.014,0.891-0.047,1.293-0.027c0.404,0.047,0.776,0.091,1.112,0.131c0.657,0.067,1.18,0.208,1.521,0.269
	C48.864,37.52,49.048,37.577,49.048,37.577z M218.33,59.973l-0.419-1.475c-0.157-0.497-0.363-1.002-0.546-1.503
	c-0.375-0.986-0.764-2.056-1.176-2.965c-0.406-0.833-0.814-1.666-1.223-2.501l-0.305-0.625l-0.078-0.157
	c-0.292-0.547-0.095-0.176-0.168-0.31l-0.025-0.044l-0.051-0.086l-0.208-0.346c-0.28-0.456-0.548-0.931-0.844-1.372
	c-2.376-3.54-5.179-6.593-8.228-9.198c-3.031-2.621-6.302-4.803-9.642-6.569c-1.67-0.88-3.349-1.684-5.048-2.334
	c-1.708-0.638-3.387-1.222-5.07-1.662c-1.671-0.462-3.33-0.822-4.949-1.058c-0.814-0.103-1.621-0.176-2.406-0.25
	c-0.795-0.035-1.566-0.094-2.328-0.099c-1.524-0.005-2.984,0.035-4.361,0.226c-1.378,0.186-2.667,0.461-3.855,0.776
	c-2.389,0.599-4.32,1.575-5.812,2.434c-0.368,0.223-0.718,0.434-1.046,0.632c-0.322,0.208-0.61,0.449-0.881,0.647
	c-0.357,0.267-0.666,0.504-0.928,0.724c-0.021-0.514-0.098-1.05-0.146-1.633c-0.161-1.428-0.452-3.061-1.032-4.779
	c-0.067-0.217-0.132-0.44-0.208-0.659c-0.089-0.213-0.179-0.429-0.269-0.647c-0.184-0.439-0.371-0.886-0.562-1.341
	c-0.187-0.461-0.45-0.886-0.687-1.341c-0.254-0.443-0.477-0.924-0.772-1.36c-1.121-1.796-2.525-3.572-4.202-5.208
	c-0.854-0.792-1.734-1.61-2.723-2.301c-0.49-0.35-0.965-0.74-1.484-1.061c-0.518-0.325-1.048-0.637-1.578-0.957
	c-2.153-1.217-4.506-2.154-6.931-2.846c-2.446-0.614-4.965-0.968-7.453-0.968c-0.622,0.014-1.241,0.028-1.856,0.042
	c-0.615,0.05-1.225,0.134-1.83,0.204c-0.604,0.058-1.2,0.177-1.789,0.295c-0.589,0.121-1.174,0.222-1.739,0.407
	c-2.289,0.592-4.374,1.556-6.237,2.584c-1.826,1.118-3.434,2.313-4.722,3.608c-0.318,0.323-0.63,0.638-0.935,0.947
	c-0.297,0.314-0.561,0.646-0.818,0.966c-0.514,0.641-1.001,1.23-1.372,1.858c-0.378,0.625-0.77,1.14-1.042,1.727
	c-0.273,0.563-0.524,1.08-0.752,1.547c-0.24,0.456-0.368,0.865-0.484,1.235c-0.119,0.366-0.22,0.676-0.302,0.929
	c-0.162,0.505-0.233,0.786-0.233,0.786l0.452,0.329c0,0,0.161-0.216,0.463-0.62c0.313-0.39,0.72-1.026,1.336-1.719
	c0.306-0.347,0.645-0.731,1.014-1.15c0.361-0.424,0.829-0.819,1.284-1.276c0.45-0.465,0.986-0.897,1.551-1.352
	c0.285-0.224,0.557-0.478,0.864-0.702c0.312-0.218,0.629-0.442,0.954-0.67c1.289-0.929,2.814-1.736,4.465-2.493
	c1.685-0.674,3.502-1.303,5.457-1.647c1.947-0.337,3.996-0.541,6.074-0.432c2.076,0.103,4.173,0.417,6.214,0.959
	c2.039,0.549,4.018,1.311,5.877,2.243c1.853,0.952,3.553,2.108,5.101,3.345c1.521,1.273,2.869,2.646,4.011,4.062
	c0.306,0.338,0.54,0.724,0.808,1.075c0.253,0.363,0.531,0.701,0.751,1.068c0.224,0.365,0.442,0.724,0.658,1.076
	c0.108,0.176,0.215,0.351,0.321,0.523c0.092,0.181,0.183,0.359,0.272,0.536c0.355,0.71,0.727,1.377,0.986,2.055
	c0.273,0.67,0.581,1.29,0.762,1.912c0.198,0.615,0.411,1.185,0.562,1.724c0.135,0.544,0.258,1.044,0.371,1.496
	c0.124,0.449,0.191,0.859,0.246,1.217c0.06,0.358,0.109,0.662,0.15,0.908c0.082,0.493,0.125,0.756,0.125,0.756l0.555-0.061
	c0,0,0.065-0.278,0.154-0.808c0.042-0.267,0.094-0.597,0.154-0.984c0.029-0.196,0.061-0.408,0.094-0.633
	c0.021-0.224,0.021-0.46,0.031-0.713c0.01-0.298,0.018-0.621,0.027-0.956c0.031-0.019,0.055-0.033,0.087-0.053
	c0.368-0.242,0.841-0.479,1.396-0.75c0.28-0.134,0.569-0.296,0.897-0.436c0.332-0.133,0.684-0.275,1.057-0.425
	c1.496-0.568,3.371-1.149,5.593-1.424c2.215-0.294,4.752-0.338,7.49-0.038c5.476,0.605,11.714,2.728,17.644,6.276
	c2.974,1.759,5.867,3.879,8.561,6.305c2.684,2.431,5.164,5.184,7.178,8.243c0.258,0.377,0.484,0.774,0.728,1.161l0.181,0.291
	c0.022,0.035,0.076,0.126,0.073,0.117l0.078,0.155l0.313,0.622c0.417,0.831,0.834,1.66,1.249,2.487
	c0.379,0.836,0.688,1.685,1.034,2.522c0.164,0.422,0.349,0.834,0.496,1.263l0.397,1.299l0.396,1.295
	c0.138,0.428,0.266,0.857,0.346,1.301c0.188,0.875,0.375,1.746,0.562,2.613c0.157,0.871,0.234,1.751,0.355,2.617
	c0.048,0.434,0.126,0.864,0.147,1.298c0.02,0.434,0.037,0.866,0.055,1.296c0.02,0.431,0.037,0.859,0.055,1.286l0.027,0.639
	l-0.023,0.636c-0.033,0.847-0.065,1.685-0.098,2.514c-0.053,0.827-0.182,1.642-0.266,2.447c-0.047,0.404-0.094,0.804-0.141,1.202
	c-0.076,0.395-0.15,0.785-0.225,1.173c-0.151,0.778-0.301,1.544-0.448,2.299c-0.198,0.742-0.395,1.476-0.587,2.195
	c-0.096,0.359-0.191,0.717-0.286,1.07c-0.117,0.349-0.233,0.692-0.348,1.032c-0.231,0.683-0.458,1.352-0.681,2.007
	c-0.487,1.295-1.016,2.514-1.487,3.685c-0.54,1.144-1.051,2.228-1.532,3.245c-0.533,0.993-1.033,1.922-1.494,2.782
	c-0.472,0.854-0.959,1.608-1.369,2.307c-0.813,1.403-1.566,2.432-2.037,3.162c-0.482,0.724-0.74,1.108-0.74,1.108l0.454,0.324
	c0,0,0.349-0.322,0.979-0.954c0.315-0.318,0.702-0.709,1.159-1.171c0.473-0.451,0.958-1.014,1.495-1.653
	c0.536-0.639,1.162-1.332,1.79-2.127c0.63-0.796,1.255-1.694,1.953-2.646c0.645-0.992,1.33-2.047,2.054-3.159
	c0.347-0.569,0.655-1.179,0.989-1.797c0.32-0.623,0.686-1.247,0.994-1.916c1.24-2.667,2.57-5.641,3.339-9.021
	c0.11-0.419,0.222-0.84,0.335-1.265c0.083-0.433,0.166-0.867,0.251-1.306c0.157-0.879,0.358-1.766,0.482-2.677
	c0.226-1.828,0.4-3.712,0.366-5.645C220.01,67.92,219.515,63.873,218.33,59.973z M106.057,9.149
	c-0.247-0.786-0.61-1.582-1.074-2.379c-0.473-0.785-1.042-1.574-1.727-2.288c-0.328-0.377-0.703-0.71-1.09-1.042
	c-0.381-0.341-0.792-0.655-1.226-0.944c-0.854-0.602-1.813-1.08-2.803-1.509c-1.02-0.366-2.061-0.708-3.161-0.845
	c-0.542-0.091-1.094-0.139-1.648-0.139c-0.553-0.008-1.1-0.009-1.649,0.074c-1.088,0.115-2.148,0.393-3.107,0.803
	c-0.957,0.392-1.803,0.962-2.488,1.539c-0.333,0.322-0.643,0.615-0.901,0.93c-0.247,0.338-0.482,0.628-0.658,0.942
	c-0.169,0.325-0.325,0.609-0.439,0.893c-0.118,0.297-0.216,0.576-0.28,0.826c-0.032,0.123-0.061,0.239-0.089,0.348
	c-0.014,0.105-0.011,0.206-0.017,0.298C83.691,6.843,83.684,7,83.679,7.128C83.67,7.386,83.68,7.536,83.68,7.536l0.416,0.374
	c0,0,0.073-0.076,0.211-0.218c0.142-0.13,0.333-0.377,0.606-0.583c0.134-0.111,0.283-0.234,0.444-0.368
	c0.176-0.12,0.366-0.249,0.569-0.387c0.209-0.128,0.443-0.243,0.682-0.377c0.248-0.116,0.512-0.231,0.787-0.349
	c0.568-0.194,1.19-0.391,1.878-0.469c0.681-0.103,1.413-0.117,2.168-0.078c0.756,0.029,1.534,0.168,2.314,0.344
	c0.781,0.179,1.553,0.451,2.313,0.747c1.521,0.601,2.967,1.405,4.204,2.319c0.621,0.454,1.198,0.923,1.72,1.397
	c0.516,0.48,0.987,0.954,1.376,1.428c0.794,0.938,1.351,1.801,1.667,2.442c0.169,0.316,0.271,0.576,0.342,0.754
	c0.073,0.178,0.111,0.272,0.111,0.272l0.533-0.167c0,0,0.065-0.132,0.151-0.384c0.075-0.249,0.221-0.641,0.276-1.122
	c0.083-0.495,0.101-1.083,0.051-1.762C106.447,10.678,106.307,9.926,106.057,9.149z M174.033,70.328
	c-0.164-0.34-0.308-0.658-0.473-0.955c-0.176-0.302-0.357-0.61-0.543-0.87c-0.369-0.531-0.706-0.96-1.052-1.218
	c-0.321-0.287-0.636-0.5-0.822-0.65c-0.198-0.148-0.322-0.224-0.322-0.224l-0.548,0.108c0,0,0.06,0.39,0.163,1.069
	c0.069,0.343,0.077,0.746,0.104,1.21c0.042,0.458,0.033,0.985,0.026,1.563c0.019,0.576-0.062,1.199-0.112,1.856
	c-0.07,0.654-0.195,1.341-0.313,2.049c-0.157,0.702-0.299,1.432-0.538,2.148c-0.192,0.73-0.498,1.435-0.766,2.151
	c-0.322,0.689-0.596,1.409-0.99,2.05c-0.191,0.322-0.354,0.66-0.563,0.962c-0.208,0.302-0.414,0.601-0.617,0.894
	c-0.188,0.307-0.447,0.545-0.653,0.819c-0.225,0.258-0.413,0.542-0.659,0.756c-0.467,0.451-0.891,0.906-1.361,1.227
	c-0.225,0.174-0.441,0.342-0.646,0.5c-0.221,0.135-0.43,0.263-0.627,0.383c-0.395,0.244-0.74,0.457-1.057,0.566
	c-0.615,0.263-0.967,0.413-0.967,0.413l0.158,0.535c0,0,0.123,0.067,0.354,0.157c0.229,0.078,0.586,0.229,1.043,0.333
	c0.471,0.136,1.016,0.181,1.66,0.174c0.326,0.006,0.669-0.022,1.037-0.052c0.353-0.055,0.709-0.146,1.101-0.234
	c0.794-0.18,1.548-0.526,2.358-0.944c0.43-0.191,0.753-0.479,1.148-0.738c0.381-0.266,0.774-0.564,1.105-0.892
	c0.693-0.65,1.372-1.379,1.9-2.197c0.609-0.79,0.99-1.687,1.43-2.568c0.317-0.917,0.678-1.826,0.814-2.769
	c0.094-0.465,0.195-0.923,0.205-1.394c0.029-0.464,0.068-0.92,0.057-1.371c-0.018-0.905-0.117-1.776-0.293-2.593
	C174.572,71.761,174.359,71.012,174.033,70.328z M33.679,114.415c-0.202-0.368-0.405-0.853-0.625-1.357
	c-0.105-0.258-0.233-0.491-0.346-0.756c-0.101-0.287-0.221-0.555-0.328-0.843c-0.247-0.529-0.444-1.149-0.679-1.725
	c-0.119-0.283-0.23-0.587-0.332-0.894c-0.089-0.317-0.251-0.573-0.345-0.89c-0.09-0.318-0.211-0.612-0.335-0.905
	c-0.066-0.144-0.122-0.295-0.162-0.455c-0.049-0.155-0.113-0.301-0.17-0.451c-0.248-0.592-0.438-1.207-0.69-1.794
	c-0.2-0.599-0.463-1.188-0.663-1.772l-0.165-0.439c-0.077-0.144-0.133-0.288-0.177-0.432c-0.1-0.289-0.191-0.578-0.335-0.866
	c-0.133-0.287-0.169-0.568-0.307-0.855c-0.125-0.286-0.233-0.575-0.316-0.853c-0.195-0.565-0.428-1.141-0.564-1.688
	c-0.094-0.289-0.185-0.567-0.271-0.832c-0.076-0.255-0.148-0.497-0.216-0.725c-0.078-0.265-0.151-0.511-0.218-0.738
	c-0.058-0.256-0.047-0.518-0.088-0.749c-0.044-0.458-0.133-0.849-0.171-1.102c-0.046-0.258-0.088-0.405-0.088-0.405l-0.489-0.27
	c0,0-0.225,0.373-0.618,1.024c-0.095,0.167-0.215,0.337-0.317,0.548c-0.093,0.22-0.195,0.458-0.304,0.712
	c-0.108,0.255-0.224,0.527-0.345,0.813c-0.096,0.294-0.163,0.608-0.251,0.933c-0.074,0.329-0.194,0.664-0.238,1.024
	c-0.047,0.359-0.095,0.731-0.144,1.114c-0.067,0.383-0.065,0.778-0.068,1.185c0.001,0.403-0.019,0.82,0.019,1.238
	c0.093,0.836,0.161,1.705,0.383,2.561c0.15,0.872,0.474,1.71,0.738,2.565c0.373,0.814,0.691,1.653,1.155,2.405
	c0.402,0.784,0.916,1.484,1.393,2.173c0.24,0.343,0.524,0.645,0.784,0.952c0.267,0.303,0.512,0.612,0.805,0.864
	c0.559,0.529,1.075,1.038,1.63,1.421c0.267,0.201,0.523,0.395,0.767,0.577c0.265,0.153,0.516,0.299,0.752,0.435
	c0.47,0.273,0.879,0.51,1.25,0.643c0.718,0.301,1.128,0.473,1.128,0.473l0.203-0.521c0,0-0.061-0.132-0.174-0.379
	C34.028,115.154,33.878,114.791,33.679,114.415z" class="color c1"/>
</svg>