<svg version="1.1" id="图层_1" x="0px" y="0px" width="46.412px" height="59.813px" viewBox="0 0 46.412 59.813" enable-background="new 0 0 46.412 59.813" xml:space="preserve" xmlns="http://www.w3.org/2000/svg" xmlns:xlink="http://www.w3.org/1999/xlink" xmlns:xml="http://www.w3.org/XML/1998/namespace">
  <path fill="#FFFFFF" d="M38.877,25.487c-1.439,2.397-2.057,5.892-2.057,5.892s0.342-3.152-1.713-8.771s-3.904-7.536-5.002-11.647
	C28.598,5.343,31.818,0,31.818,0S19.006,2.466,13.182,13.634C7.976,23.568,10.1,29.529,10.1,29.529s-2.192-2.056-3.289-4.865
	c-1.097-2.809-0.891-5.412-0.891-5.412s-9.112,10.072-4.728,22.747c3.083,8.905,8.838,14.799,15.758,17.128
	c-3.288-1.918-5.55-5.274-5.686-9.317c-0.205-7.468,4.933-11.1,8.016-16.032c4.385-7.126,3.153-11.647,3.153-11.647
	s3.629,2.055,5.754,9.66c0.617,2.262,0.754,4.521,0.617,6.646c-0.344,5.345-2.672,10.209-2.672,10.209s4.041-0.822,5.139-8.222
	c1.85,1.919,3.563,4.728,3.768,7.605c0.412,5.139-2.604,9.798-7.125,11.784c7.879-1.85,13.428-8.496,15.416-13.361
	c2.467-6.097,1.781-11.578,1.369-16.237c-0.547-6.439,1.713-11.235,1.713-11.235S42.096,20.211,38.877,25.487z" class="color c1"/>
</svg>