<svg version="1.1" id="图层_1" x="0px" y="0px" width="500.135px" height="495.17px" viewBox="0 0 500.135 495.17" enable-background="new 0 0 500.135 495.17" xml:space="preserve" xmlns:xml="http://www.w3.org/XML/1998/namespace" xmlns="http://www.w3.org/2000/svg" xmlns:xlink="http://www.w3.org/1999/xlink">
  <g>
    <path fill="#58979D" d="M499.862,219.255c1.229-0.819-2.048-2.048-2.866-1.638c-6.962,3.686-13.923,5.733-20.476,5.733v-0.409
		c0-1.638-0.818-2.867-2.047-3.686c4.914-5.733,10.646-11.057,16.38-15.152c1.229-0.819-2.457-0.819-3.276-0.409
		c-5.323,3.686-10.646,8.6-15.561,14.333c-0.41,0-0.819,0-1.229,0c0.818-7.781,4.095-15.561,9.828-22.522
		c0.818-0.819-2.867-1.638-3.686-0.819c-5.324,6.552-8.601,13.514-9.828,20.885c-2.457-4.914-4.505-10.647-5.324-16.38
		c0-1.229-4.095-0.819-3.687,0c1.229,7.781,4.097,15.152,8.19,21.294c-0.409,0.409-0.409,0.819-0.819,1.229
		c-5.322-2.048-10.646-4.914-15.561-9.418c-0.819-0.819-4.505-0.819-3.276,0c5.733,5.323,11.876,9.009,18.429,11.466v0.409
		c-61.426,7.371-123.261,15.561-185.095,20.885c-0.41-1.638-0.818-3.276-1.639-4.914c32.761-9.828,65.11-20.884,97.461-31.531
		c0.41,0,0.819,0,1.639,0l0,0c3.687,1.638,7.78,3.276,11.875,3.685c1.229,0,2.049-3.276,1.229-3.276
		c-2.866-0.409-6.144-1.229-9.009-2.457c3.686-1.638,6.962-4.095,9.828-7.371c0.818-1.229,0.818-3.276-0.409-1.638
		c-3.276,3.276-6.962,5.733-10.647,6.961c-0.409-1.638-2.048-2.867-3.686-2.457c-0.409,0-0.819,0.41-1.229,0.819
		c-3.686-2.047-6.961-4.914-9.828-7.371c-0.817-0.819-2.047,2.457-1.229,2.866c2.457,2.457,5.732,4.914,9.009,7.371
		c-3.686,0-7.78-1.229-11.466-3.276c-0.818-0.41-2.866,2.457-2.047,2.866c3.686,2.048,7.37,3.276,10.646,3.276
		c-30.713,10.237-61.425,20.475-92.138,29.894c-0.409-0.819-1.229-2.048-1.638-2.867c54.873-27.846,108.927-58.149,162.98-87.633
		c0,0,0,0,0.409,0.41c-1.638,6.961-2.048,14.333-1.229,21.294c0,1.229,4.095,0.819,3.686-0.41
		c-0.819-6.142-0.409-12.285,0.818-18.427c4.096,6.143,10.237,11.466,17.198,15.971c0.819,0.409,4.505,0.409,2.867-0.819
		c-7.371-4.095-13.104-9.828-17.199-16.38h0.409c0.819-0.41,1.639-1.229,2.048-1.638c6.553,2.457,13.924,2.867,21.294,2.048
		c2.457-0.41,0.409-1.638-1.229-1.229c-6.962,1.229-13.514,0-19.247-2.048c0-0.409,0.41-1.229,0.41-1.638
		c7.371-2.457,14.332-6.961,20.064-14.333c0.818-0.819-2.865-2.047-3.686-1.229c-4.914,6.143-10.647,10.647-17.199,13.104l0,0
		c-0.819-1.229-1.638-2.048-2.866-2.867c2.457-6.961,5.732-13.923,9.418-19.656c0.41-0.819-2.865-0.819-3.686,0
		c-3.687,5.733-6.961,12.285-9.418,19.656c-0.41,0-0.819,0.41-1.229,0.41c-2.048-7.371-1.639-15.561,0.818-23.751
		c0.41-0.819-3.275-1.638-3.686-0.41c-2.866,8.6-2.866,16.79-0.818,24.161c-4.505-3.686-8.19-8.19-11.466-13.514
		c-0.41-0.819-4.097-0.409-3.687,0.41c4.096,6.961,9.418,12.694,15.562,16.79c0,0.409-0.409,1.229-0.409,2.047
		c-6.144,0.41-12.285-0.41-18.837-3.276c-1.639-0.41-3.687,0.409-1.229,1.229c6.961,2.866,13.923,4.095,20.476,3.686l0,0
		c-53.235,29.074-106.062,58.559-160.114,85.995c29.484-24.57,58.968-49.14,88.861-72.891c1.639-0.41,3.275-0.819,4.914-1.229
		c1.229-0.41-0.409-0.819-1.639-1.229c7.78-6.143,15.562-12.285,23.343-18.428c-0.41,7.371,0,14.333,2.047,20.885
		c0.409,1.229,4.095,0.409,3.686-0.41c-1.638-6.143-2.047-12.285-2.047-18.837c5.323,5.733,11.875,10.237,19.655,13.104
		c1.229,0.41,4.505,0,2.048-0.819c-7.78-2.867-14.742-7.781-19.656-13.514c0,0,0.409,0,0.409-0.41
		c0.819-0.409,1.229-1.229,1.639-2.457c6.961,1.229,14.332,0.819,21.703-1.229c2.457-0.819-0.817-1.638-2.047-1.229
		c-6.553,2.048-13.104,2.457-19.247,0.819c0-0.41,0-0.819,0-1.638c6.962-3.686,13.104-9.418,17.608-17.199
		c0.409-0.819-3.275-2.047-3.687-0.819c-3.686,6.961-9.009,11.875-14.741,15.561l0,0c-0.818-1.229-2.048-1.638-3.275-2.047
		c1.229-7.371,3.275-14.742,6.143-20.885c0.409-0.819-3.275-0.819-3.686,0c-2.866,6.552-4.914,13.514-6.144,21.294
		c-0.408,0-0.818,0.409-0.818,0.409l0,0c-2.866-6.961-4.096-14.742-2.866-23.751c0-1.229-3.687-1.638-3.687-0.41
		c-1.638,9.009-0.408,17.609,3.276,24.57c-4.914-2.867-9.419-6.961-13.514-11.466c-0.819-0.819-4.096-0.409-3.687,0.41
		c4.914,6.143,11.466,11.057,18.019,14.333c0,0.819,0,1.229,0,2.047c-6.144,1.638-12.694,1.638-19.655,0
		c-2.048-0.409-2.457,0.819-0.41,1.638c6.962,1.638,13.923,1.638,20.477,0.41c-9.011,6.961-18.02,13.923-27.027,21.294
		c-2.457,0.409-4.505,0.409-6.962,0c4.505-2.457,8.6-6.143,11.057-11.875c0.41-0.819-3.274-2.048-3.686-0.819
		c-2.457,5.324-6.553,9.419-11.058,11.466c-4.504-1.638-8.599-4.504-11.875-8.19c-0.818-0.819-4.095,0-3.686,0.409
		c3.686,4.095,8.188,6.962,13.104,8.6c-4.095,1.229-8.188,1.638-13.104,0.819c-2.457-0.409-0.819,1.229,0.818,1.638
		c3.687,0.41,7.37,0.41,10.646,0c-26.208,23.342-52.416,45.864-79.033,67.977c-0.409-0.41-1.229-0.819-1.638-1.229
		c40.54-47.092,79.442-95.823,118.755-144.144c1.229,6.961,3.275,13.514,6.552,19.247c0.409,0.819,4.096,0.41,3.687-0.819
		c-2.866-5.733-5.323-11.876-6.553-18.428c6.553,4.504,14.332,7.371,23.342,8.6c2.048,0.409,2.457-1.229,0.41-1.638
		c-8.19-1.229-15.563-3.686-21.295-8.19c0.409,0,0.409-0.41,0.818-0.41c0.819-0.819,1.229-1.638,1.229-2.866
		c7.37-0.41,14.333-2.048,21.294-6.143c1.229-0.819-2.457-1.229-3.275-0.819c-5.733,3.276-11.876,5.323-18.019,5.323
		c0-0.41,0-0.819-0.409-1.229c6.143-4.914,10.646-11.875,13.104-20.884c0.41-0.819-3.274-2.048-3.686-0.819
		c-2.047,7.781-6.144,13.923-11.057,18.837c-0.818-0.819-2.048-1.229-3.275-1.229c-0.409-7.371,0-14.742,1.229-21.704
		c0-0.819-3.686-0.819-3.686,0.409c-1.229,6.961-1.638,14.742-1.229,22.113c-0.408,0.41-0.408,0.41-0.818,0.819v0.41
		c-4.504-6.143-7.371-13.514-8.189-22.113c0-1.229-3.686-1.638-3.686-0.409c0.817,9.828,4.095,17.608,9.418,24.16
		c-5.732-1.638-11.466-4.504-16.38-8.19c-0.818-0.409-4.504,0-3.275,0.819c6.552,4.914,13.513,8.19,20.884,9.418
		c0,0.819,0,1.229,0.41,2.047c-5.733,2.867-12.285,4.504-19.656,4.504c-2.457,0,0.409,1.638,1.639,1.638
		c6.552,0,12.693-1.229,18.019-3.686c-38.903,47.912-77.396,96.642-117.937,143.325c-0.41-0.41-1.229-0.41-1.639-0.819
		c23.752-40.54,45.864-81.9,67.978-122.85c1.639,3.276,3.275,6.552,5.732,9.418c0.818,0.819,4.096,0,3.687-0.819
		c-2.457-2.866-4.505-6.143-5.733-9.828c4.505,1.638,9.828,2.457,15.151,2.047c2.457,0-0.409-1.638-1.638-1.638
		c-4.914,0.41-9.42-0.409-13.104-2.457c0,0,0,0,0.409-0.409c0.409-0.41,0.409-0.819,0.409-1.638
		c4.505-0.819,9.009-2.867,12.693-6.552c1.229-0.819-2.457-1.229-3.274-0.819c-2.867,2.457-5.733,4.095-9.011,4.914
		c2.867-3.686,4.914-8.6,5.324-13.923c0-1.229-3.686-1.638-3.686-0.819c-0.41,4.914-2.048,9.418-4.505,12.695
		c-0.409,0-0.409,0-0.818,0c-1.229-4.505-1.639-9.009-1.639-13.104c0-0.819-3.687-0.819-3.687,0.409
		c0,4.504,0.819,9.418,2.048,13.923c-2.865-2.867-5.322-6.962-6.552-11.875c-0.41-1.229-4.096-1.229-3.686,0
		c1.638,5.733,4.504,10.237,8.188,13.513c-3.274-0.409-6.552-1.229-9.418-2.866c-0.818-0.41-4.505,0.409-3.275,0.819
		c4.505,2.047,9.827,3.276,14.741,3.686c0,0,0,0,0,0.41c-3.275,2.457-7.371,4.504-11.876,5.323c-2.047,0.41,1.64,1.638,2.457,1.638
		c2.867-0.41,5.733-1.638,8.19-2.867c-23.751,41.769-45.864,82.719-69.205,122.85c-0.41,0-0.41,0-0.818,0
		c20.883-58.559,39.312-118.346,58.559-177.723c3.686,5.733,7.779,10.647,12.693,14.742c0.819,0.819,4.096-0.41,3.687-0.819
		c-4.914-4.095-9.419-9.828-13.104-15.561c0,0,0,0,0.41-0.41c8.189,2.047,16.789,2.047,25.798-0.41
		c2.048-0.409-1.638-1.638-2.456-1.638c-7.78,2.047-15.151,2.047-22.112,0.409c0-0.409,0.408-0.819,0.408-0.819
		c0.409-0.819,0.409-2.047,0.409-2.867c6.554-2.866,12.695-6.961,17.609-13.104c0.409-0.819-2.867-1.229-3.687-0.409
		c-4.096,5.323-9.01,9.009-14.741,11.875c0-0.41-0.41-0.41-0.41-0.819c3.686-6.961,5.324-14.742,4.505-23.341
		c0-1.229-3.687-1.638-3.687-0.819c0.819,8.19-0.818,15.561-3.686,22.113c-1.229-0.41-2.457-0.41-3.687,0
		c-2.865-6.552-4.913-13.104-6.143-19.656c-0.409-1.229-4.095-0.41-3.686,0.409c1.229,6.961,3.686,14.742,7.371,21.704
		c-0.409,0.41-0.409,0.819-0.409,1.229s0,0.41,0,0.819c-6.144-3.686-11.466-9.828-15.563-17.608c-0.409-0.819-4.095-1.229-3.686,0
		c4.505,9.009,10.646,15.561,18.428,19.656c-6.143,0.819-12.694,0.409-19.246-1.229c-0.818-0.41-4.505,0.819-2.457,1.229
		c7.371,2.047,15.562,2.866,22.933,1.638c0,0.41,0.409,0.819,0.818,1.638c-4.505,4.914-10.237,8.6-16.79,11.466
		c-1.229,0.41,2.048,1.638,2.867,1.638c5.732-2.457,10.646-5.324,14.332-9.009c-18.428,57.33-36.445,115.07-56.512,171.581
		c5.324-33.579,9.42-67.568,14.334-101.556c2.457,2.457,5.322,4.914,8.188,6.552c0.818,0.41,4.505-0.409,3.275-1.229
		c-3.275-2.047-6.552-4.504-9.418-7.78c5.323,0.409,10.646-0.819,15.561-2.867c1.229-0.41-2.047-1.638-3.274-1.229
		c-4.096,2.047-8.601,2.867-12.695,2.457c0,0,0,0,0-0.41c0-0.409,0-0.819,0-1.229c4.096-2.457,7.371-5.733,9.828-10.237
		c0.41-0.819-3.275-1.229-3.686-0.409c-1.638,3.276-3.687,5.733-6.144,7.78c1.229-4.095,1.229-9.009,0-13.923
		c-0.408-1.229-4.095-1.638-3.685-0.41c1.229,4.914,1.229,9.828,0,14.333c-0.41,0-0.41,0-0.819,0
		c-2.457-3.686-4.504-7.371-5.731-11.057c-0.41-1.229-4.097-0.409-3.687,0.41c1.638,4.504,4.095,9.009,7.37,13.104l0,0l0,0
		c-4.096-1.638-7.78-4.504-10.646-8.6c-0.818-0.819-4.095-0.819-3.686,0c3.686,4.914,8.189,8.19,13.104,10.237
		c-3.686,1.229-7.371,1.638-11.467,1.229c-1.639,0-3.686,1.229-0.818,1.638c4.914,0.41,9.418,0,13.924-1.229
		c-2.049,3.276-5.323,6.552-9.01,9.009c-0.818,0.409,2.457,1.638,3.687,1.229c2.457-1.638,4.504-3.276,6.143-4.914
		c-4.505,32.76-8.6,65.929-13.924,98.689c-2.047-62.244-5.733-124.079-8.19-185.504c5.324,4.095,11.057,7.371,17.201,9.419
		c0.817,0.409,4.504-0.819,2.456-1.229c-6.143-2.048-12.284-5.733-17.609-10.238l0.409-0.41c8.19-0.819,16.38-3.685,24.162-9.009
		c1.229-0.819-2.457-1.638-3.275-1.229c-6.553,4.504-13.514,7.371-20.477,8.19c0-0.41,0-0.819,0-0.819c0-0.819,0-1.638-0.41-2.457
		c5.733-4.914,9.83-11.057,11.875-18.428c0.41-1.229-3.274-1.229-3.686-0.409c-2.047,6.552-5.323,11.875-9.828,16.38
		c0,0-0.41,0-0.41-0.41c0.819-7.371-0.41-15.151-4.095-22.932c-0.409-1.229-4.095-1.229-3.685-0.41
		c3.685,7.78,4.914,15.151,4.095,22.522c-1.229,0-2.457,0.819-3.276,1.638c-4.914-4.914-9.009-10.647-12.695-15.971
		c-0.409-0.819-4.095,0-3.685,0.819c3.685,6.143,8.599,12.285,14.333,18.018c0,0.41-0.41,0.819-0.41,1.638c0,0.409,0,0.409,0,0.819
		c-7.371-1.229-14.333-4.504-20.475-10.647c-0.819-0.819-4.504-0.819-3.276,0.41c6.961,6.961,15.151,10.647,23.751,12.285
		c-5.733,3.276-12.285,5.324-19.656,5.733c-2.047,0-2.047,1.638,0,1.638c7.371-0.409,14.742-2.457,21.294-5.733
		c0.409,0.41,0.409,0.41,0.819,0.819c-2.457,5.733-6.552,11.466-11.875,16.38c-0.819,0.819,2.457,2.047,3.686,1.229
		c4.504-4.095,7.78-8.6,10.237-13.104c2.457,57.739,5.733,115.479,6.961,173.219c-9.009-44.636-12.694-90.909-29.484-133.088
		c0,0,0,0,0.41-0.41c6.552,2.048,13.513,3.276,20.065,3.276c1.638,0,3.276-1.638,0.819-1.638c-6.552,0-13.104-1.229-19.656-3.276
		c0,0,0-0.41,0.409-0.41c7.371-3.276,14.333-9.009,20.066-16.38c0.819-0.819-2.867-2.048-3.686-0.819
		c-4.505,6.143-10.238,11.466-16.38,14.742c0-0.409,0-0.409,0-0.819c-0.409-0.819-0.409-1.229-1.229-1.638
		c3.276-6.143,5.324-13.514,4.914-20.884c0-1.229-3.686-0.819-3.686,0c0.41,6.961-1.229,13.513-3.686,19.247c0,0,0,0-0.409,0
		c-1.638-6.962-5.733-13.923-11.466-20.066c-0.819-0.819-4.504-0.819-3.276,0c6.143,6.143,9.828,13.104,11.466,20.066
		c-1.229,0.409-2.457,1.638-2.867,2.866c-6.143-2.866-11.875-6.552-16.79-10.647c-0.819-0.819-4.095,0.41-3.686,0.819
		c5.733,4.505,12.694,9.009,20.065,12.285c0,0.819,0,1.229,0.41,2.047c0,0.41,0.41,0.41,0.41,0.819
		c-7.371,1.638-15.561,0.819-23.342-2.867c-0.819-0.41-2.457-0.41-2.866,0.41c-3.276-8.6-6.552-17.609-9.419-26.618l0,0
		c6.552,2.457,13.104,4.095,19.247,4.095c1.229,0,4.095-1.229,1.638-1.638c-6.552-0.41-13.104-2.047-19.656-4.504
		c0,0,0-0.41,0.41-0.41c7.781-2.866,14.742-8.19,20.885-15.151c-0.41-2.867-3.686-3.686-4.505-2.867
		c-4.914,6.143-10.647,10.647-17.199,13.514c0-0.41,0-0.41,0-0.819c-0.41-0.819-0.41-1.229-0.819-2.048
		c3.686-6.143,6.143-13.104,6.143-20.884c0-1.229-3.686-0.819-3.686,0c0,6.961-2.047,13.104-4.914,18.837c0,0,0,0-0.409,0
		c-1.229-7.371-4.914-14.333-10.647-20.475c-0.819-0.819-4.504-0.819-3.276,0c5.733,6.552,9.009,13.514,10.238,20.885
		c-1.229,0.409-2.457,1.638-3.276,2.866c-6.143-3.276-11.466-7.371-16.38-11.466c-0.819-0.819-4.095,0-3.686,0.819
		c5.324,4.914,11.876,9.418,19.247,13.104c0,0.41,0,1.229,0.41,1.638c0,0.41,0,0.41,0.41,0.819c-7.371,1.229-15.152,0-22.932-4.095
		c-0.819-0.41-4.504-0.41-2.867,0.819c8.6,4.504,17.199,6.143,25.389,5.324c-4.914,4.914-11.057,8.599-17.608,11.056
		c-1.638,0.819,1.638,1.229,2.866,0.819c6.552-2.457,12.695-6.552,18.018-11.056c0.41,0,0.41,0.409,0.819,0.409
		c-0.819,6.143-2.867,12.695-6.552,18.837c-0.41,0.819,2.867,2.047,3.686,0.819c3.276-5.324,5.324-10.647,6.143-15.971
		c20.475,58.559,47.092,115.07,67.158,174.038c-1.229,0.41-2.457,1.229-3.276,2.048c-17.608-31.941-36.445-63.063-54.873-94.185
		c4.095,0.409,8.19,0.819,12.285,0c2.047-0.41,2.047-1.638,0-1.638c-3.686,0.41-7.371,0.41-11.466-0.41
		c4.504-2.866,8.19-6.552,10.647-11.875c0.409-1.229-3.276-2.047-3.686-0.819c-2.047,4.095-4.914,7.781-8.19,10.238c0,0,0,0,0-0.41
		c1.638-4.095,2.047-9.009,1.229-13.923c-0.41-1.229-4.095-0.819-3.686,0c0.819,3.686,0.409,7.371-0.41,10.647
		c-1.638-3.686-4.504-6.962-8.19-9.419c-0.819-0.409-4.504-0.819-2.867,0.41c4.505,3.276,7.371,7.371,8.6,11.875
		c-0.41,0.41-0.819,0.819-0.819,1.229c-4.095-1.229-7.781-2.866-11.057-4.914c-0.819-0.409-4.504,0.41-3.276,1.229
		c4.095,2.457,9.009,4.505,13.923,5.733c0,0.41,0,0.41,0.41,0.819c-4.504,1.638-9.009,2.047-14.333,0.409
		c-1.638-0.409-3.686,0.41-1.229,1.229c4.914,1.638,9.828,1.638,14.333,0.819c-2.457,3.276-5.324,5.733-8.6,7.78
		c-1.229,0.819,2.457,1.229,3.276,0.819c3.276-2.047,6.143-4.914,8.6-7.78c0,3.276-0.41,6.961-1.638,10.647
		c-0.409,0.819,3.276,2.047,3.686,0.819c0.819-2.866,1.638-5.733,1.638-8.599c18.018,30.303,36.036,60.606,53.235,91.318
		c-0.409,0.41-1.229,1.229-1.638,1.638c-40.131-49.14-82.31-96.642-123.669-144.963c0-0.41,0-0.41,0.41-0.819
		c7.371,0,14.333-1.229,20.885-3.276c2.457-0.819-0.819-1.638-2.048-1.229c-5.733,2.047-12.285,2.866-18.427,2.866v-0.409
		c6.143-5.733,11.056-13.104,13.513-22.113c0.41-0.819-3.276-1.638-3.686-0.41c-2.457,7.371-6.142,13.923-11.056,19.247v-0.409
		c-0.41-0.41-0.819-0.819-1.229-1.229c1.229-6.961,0.409-13.923-2.457-21.294c-0.41-0.819-4.095-0.819-3.686,0.41
		c2.457,6.552,3.276,13.514,2.457,20.065h-0.41c-4.095-6.142-9.828-11.466-17.608-15.151c-1.229-0.41-4.504-0.41-2.047,0.819
		c7.78,3.686,13.513,9.009,17.199,15.561l0,0c-1.229,1.229-2.047,2.867-2.047,4.505c-6.961-0.819-13.514-2.457-19.656-4.914
		c-0.819-0.41-4.504,0.819-2.457,1.229c6.962,2.457,14.333,4.504,22.523,5.323c0,0.819,0.409,1.229,1.229,2.047
		c0,0,0.409,0,0.409,0.41c-6.961,4.095-15.151,5.733-24.161,4.914c-2.457-0.41-0.819,1.638,0.819,1.638
		c8.6,0.819,16.38-0.41,23.341-3.686c-2.866,5.733-6.552,11.057-11.466,15.97c-1.229,0.819,2.457,1.229,3.276,0.819
		c5.324-4.914,9.828-11.057,12.694-17.609h0.41c1.638,6.143,1.638,12.285,0.819,19.247c0,1.229,3.686,2.048,3.686,0.819
		c1.229-6.552,0.819-12.695-0.409-18.428c40.541,47.093,81.9,93.775,121.212,142.097l0,0c-9.828-7.781-20.065-15.561-29.894-23.341
		c-18.018-14.333-36.036-29.075-54.054-43.817c3.686-0.819,6.962-2.457,10.238-4.095c1.638-0.819-2.047-1.229-2.867-0.819
		c-2.866,1.638-5.733,2.867-9.009,3.686l0,0c2.866-4.095,4.504-9.009,4.914-14.333c0-1.229-3.686-1.638-3.686-0.409
		c-0.41,4.504-1.638,9.009-3.686,12.694l0,0c-0.41-4.095-1.638-8.6-4.095-12.285c-0.409-0.819-4.095-0.409-3.686,0.41
		c1.638,2.867,2.867,5.733,3.276,8.6c-9.009-6.961-18.018-14.333-27.027-21.294c6.552,1.228,13.923,1.228,21.294-0.41
		c2.048-0.41-1.638-1.638-2.457-1.638c-6.552,1.638-12.694,1.638-18.427,0.41c0-0.819,0-1.638,0-2.047
		c6.961-3.276,13.104-8.19,18.018-14.333c0.409-0.819-2.867-1.229-3.686-0.41c-3.686,4.504-8.19,8.6-13.104,11.466
		c3.276-6.961,4.504-15.151,2.866-24.16c0-1.229-3.685-1.229-3.685-0.41c1.638,9.009,0.409,17.199-2.867,24.161
		c-0.41,0-0.41-0.41-0.819-0.41c-1.229-7.371-3.276-14.742-6.143-21.294c-0.41-1.229-4.095-0.41-3.686,0.41
		c2.867,6.142,4.914,13.513,6.143,20.475c-1.229,0.409-2.457,1.228-3.276,2.047v0.409c-5.733-3.276-11.057-8.599-14.742-15.151
		c-0.41-0.819-4.095-1.229-3.686-0.41c4.504,7.781,10.647,13.514,17.608,17.199c0,0.819,0,1.229,0,2.047
		c-6.143,1.229-12.285,1.229-18.837-0.819c-0.819-0.41-4.504,0.41-2.457,1.229c7.371,2.457,14.742,2.866,22.113,1.229
		c0.409,0.819,0.819,1.638,1.638,2.457c0,0,0,0,0.41,0c-4.914,5.733-11.466,10.237-19.656,13.514
		c-1.229,0.409,2.048,1.638,3.276,1.228c7.78-2.866,14.333-7.371,19.246-12.694c0,6.552-0.409,12.694-2.047,18.428
		c-0.41,1.229,3.276,0.819,3.686,0c1.638-6.552,2.457-13.514,2.047-20.475c7.371,5.733,14.333,11.466,21.704,17.199
		c-1.638-0.819-3.276-1.229-4.914-1.638c-2.047-0.41-2.457,0.819-0.409,1.638c4.914,1.229,9.009,3.686,11.875,6.962
		c-0.41,0.819-0.819,1.638-0.819,2.457c-4.095,0.41-8.599,0.41-12.285-0.409c-1.229,0-4.095,1.229-1.638,1.638
		c4.504,0.819,9.828,0.819,14.742,0.41l0.409,0.41c-3.686,3.276-8.19,5.733-13.923,6.143c-2.457,0.409,0.41,1.638,1.638,1.638
		c4.504-0.409,8.599-2.047,11.875-4.095c-0.819,3.276-2.457,6.552-4.505,9.418c-0.409,0.819,2.867,1.229,3.686,0.409
		c2.457-3.276,4.095-6.961,4.914-11.056c1.229,2.866,2.047,6.143,2.047,9.828c0,1.228,3.686,1.638,3.686,0.819
		c0-3.687-0.819-7.371-2.457-10.238c17.609,13.104,35.217,26.618,52.826,39.722c9.828,7.781,19.656,15.561,29.894,23.342
		c0.819,0.819,2.047,1.638,2.867,2.457c-0.41,0.819-0.819,1.638-1.229,2.866c-59.36-32.343-117.1-60.189-174.43-89.264
		c0-0.41,0-0.819,0-1.229c6.961-2.867,13.104-6.552,18.428-11.057c1.228-0.819-2.457-1.229-3.276-0.409
		c-4.504,3.685-9.828,6.961-15.561,9.418c3.276-7.371,4.914-15.971,4.095-24.979c0-1.229-3.686-1.638-3.686-0.41
		c0.819,8.19-0.41,15.561-2.867,22.522l0,0c-0.409-0.41-1.229-0.41-1.638-0.819c-1.638-6.552-4.914-12.695-9.828-18.018
		c-0.819-0.819-4.095,0-3.686,0.41c4.914,5.323,8.19,11.466,9.828,18.018c-0.41,0-0.41,0.41-0.819,0.41
		c-6.552-4.504-13.923-6.961-22.932-7.371c-2.457,0-0.819,1.638,0.819,1.638c8.19,0.409,15.151,3.276,20.885,7.371
		c0,0,0,0.409-0.41,0.409c-0.819,1.638-0.819,3.276-0.41,4.914c-6.961,2.048-13.923,3.276-20.475,3.276
		c-1.638,0-3.276,1.638-0.819,1.638c6.961-0.409,14.742-1.229,22.113-3.276c0.409,0.41,1.229,1.229,1.638,1.638l0,0
		c-4.914,6.142-11.875,11.056-20.884,13.923c-2.048,0.409,1.638,1.638,2.457,1.638c7.78-2.457,14.333-6.552,19.246-11.466
		c-0.409,6.143-2.047,11.875-4.504,17.608c-0.409,1.229,3.276,1.229,3.686,0.41c3.276-6.961,4.914-14.333,4.914-21.294
		c0.41,0,0.41-0.41,0.819-0.41c3.686,4.914,6.143,10.647,7.781,17.199c0.409,1.229,4.095,1.638,3.686,0.409
		c-1.229-8.19-4.504-14.333-8.6-19.656c56.102,28.255,113.022,56.102,168.305,86.405c-34.398-10.647-69.615-20.066-104.013-30.303
		l0,0c4.095-2.457,7.781-5.733,10.647-9.418c0.41-0.819-2.866-0.819-3.686,0c-1.638,2.457-4.095,4.504-6.552,6.143
		c0.819-4.505,0.409-9.009-0.819-13.923c-0.409-1.229-4.095-1.229-3.686,0c1.229,4.914,1.638,9.418,0.819,13.923
		c-1.638-3.686-4.504-6.962-8.19-9.828c-0.819-0.41-4.505,0-3.276,0.819c3.686,2.867,6.143,6.143,8.19,9.828
		c-4.505-2.047-9.828-2.867-15.561-2.047c-2.048,0.409,1.638,1.638,2.457,1.638c4.504-0.409,9.009,0,12.694,2.048
		c-0.41,0.819,0,1.638,0,2.457c-4.095,2.047-8.6,3.685-12.694,4.914c-2.457,0.41-0.41,1.638,1.229,1.229
		c4.095-0.819,8.599-2.457,12.694-4.504l0,0c-2.457,4.504-5.733,8.19-11.057,11.057c-1.229,0.819,2.047,1.638,3.276,1.229
		c3.686-2.047,6.962-4.504,9.009-7.781c0,2.867,0,6.143-0.819,9.418c0,0.819,3.685,1.229,3.685,0
		c1.229-4.504,1.229-9.009,0.41-13.104c2.047,2.457,4.095,4.914,5.733,8.19c0.41,1.229,4.095,1.229,3.686,0.409
		c-1.638-4.095-4.504-7.371-7.371-10.237c34.808,9.828,70.025,19.656,104.833,30.712c-0.41,1.229-0.41,2.458-0.819,3.276
		c-63.473-8.19-127.354-13.513-190.827-19.656c0-0.41,0-0.819-0.41-1.229c5.324-5.324,10.238-11.057,13.514-17.199
		c0.41-0.819-3.276-0.819-3.686,0c-2.457,4.914-6.143,9.828-10.647,14.333c0.41-7.78-1.638-15.561-5.323-23.751
		c-0.41-0.819-4.095-1.229-3.686,0c3.686,7.371,5.323,15.151,5.323,22.522l0,0c-0.819,0-1.638,0-2.047,0
		c-4.095-5.323-9.418-9.828-15.971-13.104c-0.819,0-4.504,0.41-2.457,1.638c6.552,3.276,11.875,7.78,15.561,13.514
		c-0.409,0.409-0.409,0.819-0.819,0.819c-7.78-2.047-15.971-1.638-24.57,0.819c-1.229,0.41,2.047,1.638,2.866,1.638
		c7.371-2.457,14.742-2.457,21.294-0.819v0.41c-0.409,1.638,0.41,3.276,1.229,4.504c-6.142,4.505-12.285,8.6-18.837,11.057
		c-2.457,0.819,0.819,1.638,2.047,1.229c6.143-2.457,12.695-6.143,18.428-10.647c0.41,0,0.819,0.41,1.638,0.41
		c-2.457,7.371-6.962,14.333-14.333,20.064c-0.819,0.41,2.457,1.639,3.686,0.818c6.552-4.914,11.056-11.056,13.513-17.608
		c1.638,5.323,2.048,11.465,2.048,17.2c0,0.818,3.685,0.818,3.685,0c0.41-7.781-0.819-15.152-3.276-22.114
		c0.41-0.41,0.41-0.819,0.819-0.819c4.914,3.276,9.419,7.371,13.104,13.104c0.409,0.819,4.095,1.229,3.276,0
		c-4.504-6.552-9.828-11.466-15.561-14.742c0,0,0,0,0-0.41c61.425,6.143,123.26,11.057,184.275,18.837
		c-34.807,2.047-69.615,5.323-104.013,7.78c2.866-3.687,5.323-7.78,6.552-12.286c0.41-1.228-3.276-0.819-3.686,0
		c-0.819,2.868-2.457,5.735-4.095,8.599c-0.819-4.094-2.867-8.189-5.324-11.875c-0.819-0.819-4.095-0.819-3.686,0
		c3.276,4.504,4.914,9.011,5.733,13.515l0,0c-3.276-2.867-6.961-4.914-11.466-6.144c-1.229-0.41-4.095,0.817-2.047,1.229
		c4.504,1.229,8.19,3.686,11.056,6.961l0,0c-5.323-0.409-10.647,0.41-15.561,3.275c-1.229,0.819,2.048,2.049,2.867,1.639
		c4.095-2.047,8.19-2.867,12.285-2.867c0,0.82,0.409,1.229,0.819,2.049c-3.276,3.686-6.961,6.961-10.647,9.009
		c-1.638,1.229,2.047,1.229,2.867,0.819c3.276-2.049,6.552-4.914,9.828-8.19c-0.819,4.505-2.866,9.009-6.552,13.104
		c-0.819,0.818,2.866,1.638,3.686,0.818c2.866-3.275,4.914-6.962,6.143-10.646c1.229,2.457,1.638,5.322,2.047,8.189
		c0,1.229,4.095,0.818,3.686,0c-0.41-4.914-2.457-9.828-4.914-13.515c3.276,1.229,6.143,3.276,9.009,6.144
		c0.819,0.818,4.505,0.818,3.276,0c-3.276-3.275-7.371-5.732-11.466-7.371c36.855-2.866,73.301-6.144,110.156-8.189
		c0,0.409,0,0.818,0,1.229s0,0.818,0,1.229c-63.063,13.515-125.307,31.122-187.142,47.502c0-0.41-0.41-0.41-0.41-0.41
		c3.276-6.551,5.733-13.513,6.552-20.475c0-0.818-3.686-0.818-3.686,0.409c-0.819,5.732-2.457,11.467-4.914,17.199
		c-2.457-6.961-6.961-13.514-13.104-19.656c-0.819-0.818-4.504-0.818-3.276,0.41c6.142,5.732,10.647,12.693,13.104,19.654
		c0,0,0,0-0.41,0c-0.819,0-1.638,0.41-2.457,1.229c-5.733-3.686-12.285-6.141-19.656-6.551c-1.638,0-3.686,1.229-0.819,1.639
		c7.371,0.408,13.514,3.275,18.837,6.962c-0.409,0.407-0.409,0.817-0.409,1.637c-7.781,0.82-15.561,3.687-22.932,9.419
		c-0.819,0.409,2.457,2.049,3.686,1.229c5.733-5.733,12.285-8.599,18.837-9.419v0.41c0.41,1.639,1.229,2.865,2.457,3.274
		c-4.095,6.554-9.009,12.285-13.923,17.199c-0.819,1.229,2.866,1.229,3.276,0.41c4.914-4.505,9.418-10.238,13.514-16.382
		c0.409,0,0.819,0,1.228,0c0.41,7.781-1.638,15.563-6.552,23.343c0,0.819,3.276,1.639,4.095,0.819
		c4.504-7.371,6.552-15.151,6.552-22.522c3.276,4.504,5.733,9.828,7.781,15.562c0.409,1.229,4.095,0.818,3.685,0
		c-2.457-7.781-6.142-14.332-11.056-20.064c0.409-0.41,0.409-1.229,0.409-1.639c5.733,1.229,11.466,3.686,16.79,7.371
		c0.819,0.408,4.505,0.817,2.867-0.41c-6.143-4.504-13.104-7.371-19.656-8.601v-0.407c61.835-16.382,124.079-33.58,186.323-48.322
		c0.41,2.457,0.819,5.324,2.047,7.371c-14.742,7.371-29.484,14.742-43.816,22.522c-16.38,7.371-32.76,14.742-48.73,22.113
		c0.41-2.867,0.41-5.734,0-8.601c0-1.229-3.686-0.818-3.686,0.41c0.41,3.275,0,6.551-0.41,9.826
		c-2.457-3.275-5.733-6.143-9.828-8.599c-0.819-0.409-4.505-0.409-2.867,0.819c4.095,2.457,7.371,5.731,9.828,9.008
		c-0.819,0.41-1.638,0.818-2.457,1.229c-3.686-0.818-7.371-1.229-11.057-0.408c-2.457,0.408-0.409,1.637,1.229,1.229
		c2.457-0.41,5.324-0.41,7.371,0.407c-7.781,3.276-15.561,6.963-22.932,10.238c4.095-4.914,7.371-10.646,9.009-17.609
		c0.409-0.817-3.276-2.047-3.686-0.817c-1.638,6.554-4.914,12.285-8.6,17.199c0,0-0.41,0-0.41-0.41
		c0.41-7.371-1.229-14.742-4.095-21.703c-0.41-0.817-4.095-0.409-3.686,0.41c2.457,5.731,3.686,11.875,3.686,18.019
		c-4.914-5.733-11.057-9.828-19.247-12.695c-1.229-0.408-4.504,0-2.047,0.82c9.009,3.274,15.561,8.188,20.065,14.74c0,0,0,0-0.41,0
		c-0.819,0.409-1.229,0.819-1.638,1.229c-6.961-2.047-13.923-3.686-20.884-4.094c-1.229,0-4.095,1.229-1.638,1.637
		c6.962,0.41,14.333,2.049,21.294,4.506c-0.409,1.638-0.409,3.275,0.41,4.504l0,0c-6.143,4.096-13.514,6.553-22.113,6.553
		c-2.457,0,0.409,1.639,1.638,1.639c8.6,0,15.971-2.457,22.113-6.144c0,0,0.409,0,0.409,0.409
		c-2.047,6.553-5.323,12.695-10.647,17.609c-1.229,1.229,2.457,1.229,3.276,0.817c5.323-5.323,9.009-11.057,10.647-17.608
		c0.819,0,1.229-0.408,2.047-0.408c0,0,0,0,0.41,0c2.047,6.961,2.866,14.332,1.638,22.113c0,1.229,3.686,1.638,3.686,0.408
		c1.229-9.009,0-17.607-2.866-25.39c5.733,2.867,10.647,6.144,14.742,10.237c0.819,0.818,4.095,0,3.686-0.818
		c-4.914-4.914-11.466-9.009-18.018-11.876c0-0.409,0-0.817,0-1.229c8.6-4.095,17.608-7.779,26.208-11.875
		c0.41,0,0.819,0.41,1.638,0.41l0,0c-4.914,1.229-9.418,4.094-13.104,9.008c-0.819,0.819,2.866,2.049,3.686,1.229
		c2.866-3.687,6.552-6.144,10.237-7.78c0.41,0.409,0.41,0.819,0.819,1.229c-1.638,4.505-3.685,9.009-6.142,12.694
		c-0.41,0.818,2.866,0.818,3.686,0c2.047-3.275,4.095-6.961,5.733-11.058c0.819,4.097,0.409,8.601-1.229,13.515
		c-0.41,0.818,3.276,1.639,3.686,0.409c1.638-4.505,2.047-9.01,1.229-13.514c2.047,2.047,3.686,4.095,5.323,6.552
		c0.41,0.819,4.095,0.409,3.686-0.408c-2.457-4.506-6.143-8.19-10.237-10.647v-0.409l0,0c3.686-0.41,7.371,0.409,11.466,2.047
		c1.638,0.41,3.686-0.408,1.229-1.229c-4.095-1.639-8.19-2.457-11.875-2.457c17.199-9.008,34.398-18.019,51.188-27.026
		c14.333-6.552,28.665-13.104,42.588-20.065c0.41,0.818,0.819,1.639,1.229,2.047c-49.959,36.855-98.28,75.759-147.01,114.252
		c0.409-7.371-0.41-14.334-2.048-20.885c-0.409-1.229-4.095-0.41-3.686,0.408c1.638,5.734,2.457,12.285,2.457,18.838
		c-5.323-5.732-11.875-9.828-20.065-12.695c-1.229-0.407-4.504,0-2.047,0.82c8.19,2.865,14.742,7.37,19.656,13.104
		c0,0-0.409,0-0.409,0.408c-0.819,0.41-1.229,1.229-1.638,2.457c-6.961-1.229-14.333-0.818-21.704,1.639
		c-2.457,0.818,0.819,1.639,2.048,1.229c6.552-2.047,13.104-2.457,19.246-1.229c0,0.41,0,0.818,0,1.639
		c-6.961,3.686-13.104,9.418-17.608,17.608c-0.409,0.819,3.276,2.048,3.686,0.819c3.686-6.963,8.6-12.285,14.742-15.563l0,0
		c0.819,1.229,2.047,1.639,3.276,2.048c-1.229,7.371-3.276,14.742-5.733,20.886c-0.41,0.817,3.276,0.817,3.686,0
		c2.866-6.554,4.914-13.925,6.143-21.295c0.409,0,0.819-0.41,0.819-0.41l0,0c3.276,6.963,4.504,14.742,2.866,23.342
		c0,1.229,3.686,1.639,3.686,0.41c1.229-9.01,0-17.608-3.686-24.57c4.914,2.867,9.828,6.962,13.514,11.467
		c0.819,0.818,4.095,0,3.686-0.41c-5.323-6.143-11.466-10.646-18.428-13.923c0-0.819,0-1.229,0-2.048
		c6.143-1.639,12.695-1.639,19.656,0c2.047,0.41,2.457-1.229,0.41-1.639c-6.961-1.638-13.923-1.638-20.065-0.408
		c48.73-38.084,97.051-76.986,146.601-113.842c0.409,0.41,0.819,1.229,1.638,1.639c-29.894,33.578-58.559,67.977-87.224,102.375
		c-0.819-3.686-2.047-7.781-3.685-11.057c-0.41-0.818-4.095-0.41-3.686,0.817c1.638,3.277,2.866,6.554,3.686,10.238
		c-3.686-2.457-8.19-4.097-13.514-4.505c-2.047-0.409-2.457,1.229-0.41,1.638c4.914,0.819,9.418,2.457,13.104,5.324l0,0
		c-0.409,0.409-0.409,0.817-0.819,1.229c-4.914,0-9.418,1.229-13.923,4.094c-1.229,0.819,2.457,1.229,3.276,0.819
		c3.276-2.048,6.961-2.866,10.237-2.866c-4.095,3.275-6.961,7.371-8.6,13.104c-0.409,0.818,3.276,2.048,3.686,0.818
		c1.229-4.504,3.686-8.6,6.962-11.467c0.409,0,0.409,0.41,0.819,0.41c0.41,4.504,0,9.418-0.819,13.514
		c0,0.818,3.685,0.818,3.685-0.41c0.819-4.094,1.229-8.6,0.819-13.104c2.457,3.686,3.686,7.78,4.095,12.694
		c0,1.229,3.686,1.638,3.686,0.409c-0.409-5.732-2.047-10.237-4.914-14.332c2.867,1.229,5.733,2.457,8.19,4.504
		c0.819,0.41,4.504,0,3.276-0.818c-4.095-3.275-8.6-5.324-13.514-6.143v-0.41c3.686-2.047,7.781-2.866,12.694-2.866
		c2.457,0-0.409-1.638-1.638-1.638c-3.276,0-6.552,0.408-9.418,1.229c28.665-33.988,56.92-68.387,86.404-101.557
		c0.819,0.41,1.229,1.229,2.048,1.639c-31.941,53.234-61.835,107.698-92.547,161.752c-2.457-6.552-5.733-12.283-9.828-17.606
		c-0.819-0.82-4.095,0-3.686,0.817c4.095,4.914,7.371,11.058,9.828,17.608l0,0c-7.371-3.276-15.97-4.914-24.979-4.504
		c-2.457,0,0.41,1.638,1.638,1.638c8.19-0.409,15.561,1.229,21.704,4.095c-0.41,0.409-0.41,0.409-0.819,0.819
		c-0.409,0.818-0.819,2.047-0.819,2.866c-6.961,1.229-13.923,4.505-19.656,9.419c-1.229,0.818,2.457,1.229,3.276,0.818
		c4.914-4.504,10.647-6.961,16.79-8.601c0,0.41,0,0.819,0.409,0.819c-4.914,6.143-8.19,13.514-9.009,22.521
		c0,1.229,3.686,1.639,3.686,0.819c0.819-8.19,3.686-15.151,7.78-20.476c1.229,0.409,2.457,0.818,3.686,0.818
		c1.638,6.962,2.457,14.332,2.457,20.885c0,0.818,3.686,0.818,3.686-0.409c0-6.961-0.819-14.741-2.457-22.522
		c0.41-0.409,0.41-0.409,0.819-0.818c0,0,0-0.409,0.41-0.409c5.324,5.323,9.418,11.876,11.466,20.476
		c0.41,0.818,4.095,1.229,3.686,0c-2.457-9.419-7.371-17.199-13.513-22.521c6.143,0.408,12.285,2.457,18.018,5.322
		c0.819,0.409,4.504-0.408,3.276-0.818c-6.961-3.687-14.742-5.732-22.113-6.144c0-0.817-0.409-1.229-0.409-1.638
		c5.323-4.095,11.466-6.552,18.837-7.78c2.047-0.409-1.638-1.638-2.457-1.638c-6.143,1.229-11.875,3.274-16.38,6.142
		c28.255-54.054,58.149-108.106,89.681-160.522c1.638,0.818,3.685,1.638,5.733,2.047c-10.647,61.016-18.837,122.441-27.437,183.456
		c-4.504-4.913-9.418-9.418-15.152-12.284c-0.819-0.41-4.504,0.409-3.276,1.229c5.733,3.275,11.057,7.78,15.561,13.104l-0.41,0.409
		c-8.19-0.818-16.789,0.818-25.389,4.505c-1.229,0.409,2.047,1.638,3.276,1.229c7.371-3.275,14.333-4.505,21.294-4.095
		c0,0.409-0.409,0.818-0.409,1.229c0,0.817,0,1.638,0,2.457c-6.143,3.686-11.466,9.009-15.152,15.971
		c-0.409,0.818,3.276,1.229,3.686,0.409c3.276-6.144,7.371-10.647,12.694-14.333l0.41,0.41c-2.457,7.37-2.457,15.15-0.41,23.751
		c0.41,1.229,4.095,1.638,3.686,0.408c-2.047-8.189-2.047-15.561,0-22.521c1.229,0,2.457,0,3.686-0.819
		c4.095,5.733,6.961,12.285,9.418,18.02c0.41,1.229,4.095,0.409,3.686-0.41c-2.457-6.961-6.143-13.923-10.647-20.476
		c0-0.408,0.41-0.818,0.41-1.229s0-0.409,0-0.819c6.961,2.457,13.104,7.371,18.018,14.333c0.819,0.819,4.095,0.819,3.686,0
		c-5.733-8.189-13.104-13.514-21.294-16.38c6.142-2.048,13.104-2.867,20.065-2.048c1.638,0,3.685-1.229,0.819-1.638
		c-7.371-0.819-15.151,0-22.113,2.047c-0.41-0.409-0.41-0.818-0.819-1.229c3.686-5.322,8.6-10.236,14.742-14.332
		c0.819-0.408-2.457-1.638-3.686-1.229c-4.914,3.275-9.418,6.962-12.694,11.057c3.276-21.704,6.143-43.406,9.418-65.109h0.409
		c6.552-0.819,13.514-0.41,19.656,1.638c-7.781,2.866-15.151,8.19-20.475,16.38c-0.819,0.818,2.867,2.047,3.686,0.818
		c4.914-7.37,11.057-12.284,17.609-15.15v0.409c0,0.409,0.408,0.819,0.408,1.229c-4.503,6.551-8.189,13.512-10.237,20.476
		c-0.41,1.228,3.276,0.817,3.685,0c2.048-6.144,4.915-12.285,9.009-18.429c1.229,0.818,2.457,0.818,4.096,0.818
		c2.048,6.553,2.457,13.924,0.41,22.113c-0.41,1.229,3.274,2.048,3.686,0.819c2.047-8.602,1.638-16.79-1.229-24.161l0.408-0.409
		c5.323,3.276,9.42,8.19,13.104,13.923c0.407,0.818,4.094,0.41,3.686-0.41c-3.686-6.961-9.42-11.875-15.562-15.561
		c0-0.818,0.408-1.639,0-2.457c0-0.409,0-0.818-0.409-1.229c4.095-0.409,8.601,0,13.104,0.819
		c4.914,22.111,9.828,44.226,14.332,66.339l0,0c-6.144-3.276-12.693-5.323-18.836-6.552c-1.229,0-4.097,1.229-1.64,1.638
		c6.553,1.229,12.694,3.687,18.837,6.962l-0.409,0.409c-8.19,2.048-15.561,6.143-22.522,12.694
		c-0.818,0.818,2.867,1.639,3.686,0.818c5.734-5.322,11.876-9.419,18.428-11.466c0,0.409,0,0.409,0,0.818
		c0,0.818,0.41,1.639,0.819,2.048c-4.505,5.732-7.371,12.285-8.601,20.064c0,0.819,3.687,1.229,3.687,0
		c0.819-6.552,3.276-12.693,6.962-18.018h0.409c0.409,7.371,2.866,14.741,8.19,22.112c0.408,0.818,4.095,1.229,3.274,0
		c-4.914-6.961-7.37-14.332-7.78-21.703c1.229-0.409,2.457-1.229,3.276-2.048c5.732,4.096,10.646,8.6,14.742,13.514
		c0.818,0.819,4.095,0,3.686-0.819c-4.914-5.731-10.646-11.056-17.608-15.561c0-0.409,0-1.229,0-1.638c0-0.41,0-0.41-0.409-0.819
		c7.371,0,15.151,2.048,22.521,6.962c0.819,0.409,4.506,0.409,2.866-0.819c-8.188-5.322-16.38-8.189-24.979-8.189
		c5.324-4.095,11.876-7.371,18.837-9.009c2.457-0.409-0.818-1.639-2.047-1.229c-6.962,1.638-13.515,4.914-19.247,9.009
		c-0.409,0-0.409-0.408-0.818-0.408c1.638-6.144,4.504-12.285,8.601-17.608c0.817-0.819-2.867-2.048-3.687-1.229
		c-3.686,4.914-6.553,9.828-8.189,15.151c-4.506-20.475-9.01-40.541-13.515-61.017c1.638,0.41,3.276,0.82,4.505,1.64
		c1.229,0.409,4.504,0,2.047-0.819c-2.457-0.818-4.914-1.638-7.371-2.457c-1.229-5.322-2.457-10.236-3.274-15.562c0,0,0,0,0.41,0
		c0.817-0.409,0.407-0.818-0.41-0.818c-7.371-33.17-14.332-66.34-20.476-99.509c2.047-0.409,4.096-0.818,6.144-1.639
		c7.371,15.972,13.515,32.351,19.655,47.912c10.646,26.207,20.476,54.873,37.265,77.806c-5.732-2.867-12.285-4.505-19.246-4.914
		c-2.457,0-0.818,1.638,0.818,1.638c6.962,0.409,13.104,2.049,18.428,4.913c-0.409,0.82-0.409,1.64-0.409,2.457
		c-7.371,1.229-14.742,4.507-21.294,8.601c-1.229,0.818,2.457,1.229,3.275,0.818c5.324-3.686,10.646-6.142,16.381-7.369
		c-5.324,6.142-9.01,13.922-10.238,23.341c0,1.229,3.687,1.638,3.687,0.408c0.818-8.6,4.096-15.971,9.009-22.112l0,0
		c0.41,0.41,0.41,0.41,0.819,0.818c-0.819,7.78-0.819,15.563,0,22.934c0,1.229,4.095,0.817,3.686-0.41
		c-0.819-6.552-1.229-13.924-0.409-20.885c1.229,0,2.457-0.409,3.687-1.229l0,0c4.914,4.914,8.188,11.467,9.828,18.838
		c0.408,1.229,4.095,1.639,3.686,0.409c-2.048-9.009-6.553-15.971-12.285-21.294c0.409-0.41,0.409-0.819,0.409-1.64
		c6.143,0.41,11.876,2.457,17.608,6.144c0.818,0.41,4.505,0,3.275-0.817c-6.552-4.506-13.514-6.554-20.885-6.961
		c0-0.82-0.409-2.05-1.229-2.867l-0.408-0.41c4.914-3.275,10.236-5.322,16.38-6.551c6.552,10.235,13.514,20.475,20.064,30.712
		l-0.408,0.408c-6.963-0.817-14.333-0.817-20.886,0.41c-2.457,0.409-0.409,1.639,1.229,1.229c6.143-1.229,12.693-1.229,19.246-0.41
		v0.41c-6.961,4.504-12.694,11.466-16.789,20.064c-0.409,0.818,3.274,1.639,3.686,0.409c3.275-6.961,7.78-13.104,13.515-17.607
		c0,0,0,0.408,0.408,0.408c0.409,0.41,0.819,1.229,1.229,1.64c-2.048,6.552-2.457,13.923-0.819,21.294
		c0.41,1.229,4.097,0.817,3.687,0c-1.639-6.962-1.229-13.515,0.41-19.656h0.408c3.276,6.552,8.19,12.694,15.151,17.199
		c0.819,0.409,4.505,0.817,2.866-0.41c-6.961-4.914-11.875-11.056-14.741-17.608c1.229-0.817,2.457-2.047,2.457-3.686
		c6.552,2.048,13.104,4.505,18.427,7.371c0.819,0.41,4.505-0.409,3.276-1.229c-6.552-3.686-13.923-6.552-21.703-8.188
		c0-0.819-0.41-1.229-0.819-2.048l-0.409-0.409c6.962-2.867,15.151-3.687,23.752-1.64c1.638,0.41,3.686-0.817,1.229-1.229
		c-9.01-2.047-17.199-2.047-24.979,0.41c3.686-5.733,8.188-10.647,13.923-14.742c1.229-0.819-2.457-1.229-3.276-0.819
		c-6.143,4.096-11.057,9.42-14.742,15.151h-0.409c-0.818-6.144,0-12.694,2.049-19.246c0.408-0.817-3.276-2.047-3.687-0.817
		c-2.048,6.142-2.457,11.875-2.048,17.606c-5.733-9.009-11.466-18.019-17.199-26.617c0.819,0,1.64,0,2.048-0.409
		c2.457,0-0.408-1.638-1.638-1.638c-0.41,0-1.229,0-1.639,0c-25.798-40.132-52.008-80.263-76.576-120.803
		c31.531,33.169,65.52,63.882,97.87,96.231c0.818,0.818,4.096,0,3.686-0.818c-33.169-33.17-67.977-64.701-100.327-99.1
		c1.229-1.639,2.457-3.275,3.687-4.914c49.14,36.445,99.918,70.435,149.877,105.65c0,0.41,0,0.818,0,0.818
		c-7.371,2.049-13.923,4.506-19.656,8.601c-1.638,1.229,2.048,1.229,2.866,0.819c4.914-3.276,11.057-5.733,17.199-7.371l0,0
		c-4.504,6.961-7.371,15.15-7.78,24.57c0,1.229,3.686,1.637,3.686,0.407c0.409-8.188,2.457-15.561,6.144-21.702l0,0
		c0.409,0.409,1.229,0.818,1.638,0.818c0.819,6.962,2.867,13.514,7.371,19.655c0.819,0.819,4.095,0.409,3.687-0.408
		c-4.096-6.144-6.553-12.694-7.371-19.247h0.409c5.732,5.323,12.694,8.6,21.295,10.646c2.047,0.41,2.457-1.229,0.408-1.639
		c-8.189-1.638-14.741-5.322-19.655-10.646c0,0,0,0,0.408,0c1.229-1.229,1.229-3.275,0.819-4.913
		c6.962-0.819,13.923-1.229,20.475-0.41c1.229,0,4.097-1.229,1.64-1.638c-6.962-0.819-15.151-0.819-22.522,0.408
		c-0.41-0.817-0.818-1.229-1.639-1.638l0,0c5.733-5.733,13.514-9.419,22.521-10.647c2.049-0.408-1.638-1.637-2.455-1.637
		c-8.19,1.229-15.152,4.094-20.886,8.6c1.229-6.144,3.687-11.877,7.371-17.198c0.409-0.82-2.867-1.229-3.686-0.41
		c-4.097,6.144-6.552,13.104-7.78,20.476c-0.41,0-0.41,0-0.819,0.41c-2.865-5.324-4.505-11.468-5.322-18.019
		c0-1.229-3.687-1.64-3.687-0.82c0.409,6.962,2.457,13.515,5.732,19.247c-48.73-32.76-98.689-66.749-147.421-102.783
		c0-0.41,0.41-0.82,0.41-0.82c38.902,19.248,79.033,36.447,118.756,54.055h0.408l0,0c-4.505,2.048-8.6,4.505-11.876,7.781
		c-1.229,0.818,2.457,1.229,3.276,0.408c2.048-2.047,4.505-3.686,7.371-5.322c-1.638,4.504-2.048,9.009-1.229,14.332
		c0,1.229,3.687,1.229,3.687,0.41c-0.819-4.914-0.409-9.42,0.819-13.514c1.229,3.686,3.274,7.37,6.552,10.646
		c0.817,0.819,4.095,0,3.686-0.409c-3.275-3.275-5.324-6.553-6.553-10.646c4.096,2.457,9.01,3.686,14.742,3.686
		c2.457,0-0.409-1.639-1.639-1.639c-4.913,0-9.009-1.637-12.284-4.094c0.408-0.82,0.408-1.64,0-2.457
		c4.095-1.64,8.6-2.457,12.693-2.867c2.048,0,2.048-1.639,0-1.639c-4.504,0.409-9.009,1.229-13.514,2.866c0,0,0,0-0.409,0
		c2.866-4.095,6.962-7.371,12.694-9.418c1.229-0.41-2.047-1.64-3.275-1.229c-4.096,1.229-7.371,3.687-10.238,6.144
		c0.41-3.276,0.819-6.144,2.049-9.418c0.408-1.229-3.276-1.229-3.687-0.41c-1.638,4.097-2.457,8.188-2.457,12.694
		c-1.638-2.457-3.274-5.733-4.095-9.01c-0.409-1.229-4.095-1.639-3.687-0.41c1.229,4.097,2.866,7.371,5.323,10.238
		c-39.312-17.609-78.624-34.397-117.116-53.645c0.408-1.639,0.818-2.867,0.818-4.505c58.968,15.971,119.164,29.894,178.542,44.636
		c0,0.41,0,0.818,0,1.229c-6.143,4.504-11.466,9.418-15.561,15.151c-0.41,0.819,2.865,0.819,3.686,0
		c3.275-4.505,7.78-9.009,12.694-12.694c-1.64,7.78-0.819,15.972,2.047,24.57c0.41,1.229,4.096,1.229,3.686,0
		c-2.457-7.781-3.274-15.563-2.047-22.932l0,0c0.818,0,1.229,0.408,2.047,0c3.276,5.732,7.781,11.056,13.925,15.15
		c0.817,0.409,4.504,0,3.274-0.818c-6.143-4.096-10.646-9.42-13.514-15.561c0.41-0.41,0.41-0.41,0.818-0.82
		c7.371,2.867,15.562,3.686,24.57,2.457c2.047-0.408-1.639-1.637-2.457-1.637c-7.781,1.229-15.151,0.407-21.294-2.457
		c0,0,0-0.41,0.409-0.41c0.409-1.64,0-3.275-0.819-4.504c6.553-3.687,13.515-6.554,20.065-8.19c2.457-0.819,0.41-1.638-1.229-1.229
		c-6.552,1.639-13.513,4.506-20.064,8.19c-0.409-0.41-1.229-0.819-1.639-0.819c3.276-7.371,9.01-13.514,17.199-18.019
		c1.229-0.818-2.048-1.638-3.275-1.229c-7.371,4.096-12.694,9.42-15.972,15.563c-0.817-5.733-0.409-11.877,0.41-17.608
		c0-0.819-3.686-1.229-3.686,0c-1.64,7.371-1.64,15.151,0.408,22.113c-0.408,0.407-0.408,0.407-0.818,0.817
		c-4.504-3.686-8.189-9.008-11.057-14.742c-0.409-1.229-4.096-1.229-3.686-0.408c3.275,6.962,8.188,12.693,13.513,16.79l0,0
		c-59.787-14.742-119.572-28.257-178.95-44.638c0-0.408,0-0.817,0-1.229c0-1.229,0-2.457-0.41-4.094
		c45.454,4.914,91.318,9.828,136.772,12.693c-2.866,2.867-5.323,6.144-6.961,9.828c-0.41,0.819,2.866,0.819,3.275,0
		c1.229-2.457,2.866-4.504,4.505-6.961c0.409,3.687,1.229,7.78,3.275,11.467c0.409,0.818,3.687,0.818,3.275,0
		c-2.047-4.096-3.275-8.601-3.275-12.694c2.457,2.866,5.323,5.323,9.01,6.961c0.817,0.409,4.095-0.409,2.457-1.229
		c-3.687-1.638-6.962-4.095-9.01-7.371c4.504,0.819,9.418,0.819,14.332-0.817c1.229-0.41-2.048-1.64-2.865-1.229
		c-4.097,1.229-7.78,1.639-11.058,0.818c0-0.818,0-1.229-0.409-2.047c3.275-2.867,6.961-5.324,10.646-6.962
		c1.638-0.819-1.638-1.229-2.457-0.819c-3.275,1.639-6.552,3.686-9.828,5.732c1.229-4.094,3.687-7.779,7.371-11.055
		c0.819-0.41-2.457-1.638-3.275-0.819c-2.866,2.457-5.323,5.324-6.553,8.599c-0.818-2.457-0.818-5.323-0.818-7.78
		c0-0.819-3.275-0.819-3.275,0c0,4.504,0.818,8.598,2.457,12.285c-2.457-1.638-4.914-3.687-6.962-6.552
		c-0.409-0.818-3.687-1.229-2.866,0c2.457,3.686,5.733,6.143,9.419,8.189c-43.816-1.229-87.224-5.732-130.631-10.237
		c59.787-5.324,119.164-13.104,178.542-20.066c0,0.41,0,0.41,0.409,0.819c-4.096,6.143-7.371,12.694-9.418,19.247
		c-0.41,1.229,3.274,0.819,3.686,0c1.638-5.733,4.095-11.057,7.371-16.38c1.638,7.371,4.914,14.742,10.237,21.704
		c0.818,0.819,4.095,0.819,3.275-0.408c-5.323-6.553-8.6-13.924-9.828-21.295l0,0c0.818,0,1.639-0.409,2.457-0.819
		c4.914,4.504,11.058,7.781,18.428,9.009c1.229,0.409,4.096-0.819,2.048-1.229c-6.961-1.638-13.104-4.914-18.019-9.828
		c0.409-0.41,0.409-0.819,0.818-1.229C483.892,225.806,491.672,223.759,499.862,219.255z M353.671,161.515
		c0.409-0.41,0.409-0.41,0-0.41c0.409,0,0.818-0.409,0.818-0.409c2.457,0.409,4.914,0.819,6.962,0.819
		c-29.483,23.751-58.559,47.912-88.861,70.844c-0.408-0.41-0.818-0.819-1.229-1.229
		C299.616,208.198,326.644,184.857,353.671,161.515z M186.186,74.291l0.41,0.41c8.599,3.686,17.199,4.914,25.389,4.095
		c-4.504,4.914-10.237,9.009-16.79,11.875c-1.638,0.819,2.048,1.229,2.867,0.819c6.552-2.867,12.694-7.371,17.199-12.285
		c0.409,0,0.409,0,0.819,0.41c-0.41,6.142-2.047,12.694-5.324,18.837c-0.409,0.819,3.276,2.047,3.686,0.819
		c2.867-5.323,4.504-10.646,5.324-15.97c16.79,44.635,19.656,93.775,30.303,140.049c-1.638,0.41-3.276,0.819-4.914,1.229
		C227.135,173.8,205.022,124.66,186.186,74.291z M134.997,309.344c0-0.817,0.409-1.229,0.409-2.047
		c6.962-3.274,13.923-6.144,20.885-9.418C148.92,301.973,141.959,305.657,134.997,309.344z M233.277,390.835
		c4.914-33.989,9.828-67.979,15.561-101.967c1.229,33.17,2.867,66.341,7.781,98.689c-3.686-4.095-7.781-8.189-13.104-11.057
		c-0.819-0.409-4.504-0.409-2.867,0.41c6.552,3.686,11.466,8.6,15.15,13.923c-0.408,0.409-0.817,0.819-1.229,1.229
		C247.61,390.426,240.239,390.016,233.277,390.835z M277.504,392.063c-4.504-0.818-9.418-1.229-13.923-0.818l-0.409-0.409
		c3.686-4.095,7.371-7.78,11.467-11.058C275.456,383.872,276.684,387.969,277.504,392.063z M274.228,377.731
		c-4.914,3.275-9.419,7.37-13.515,11.875c-6.143-37.265-6.961-74.938-8.6-112.611c0.41,0,0.818,0,1.229,0h0.41
		C259.896,310.573,266.856,344.153,274.228,377.731z M327.053,399.435c1.639-6.552,4.096-12.693,7.37-18.428
		c0.41-0.819-3.274-0.819-3.686,0c-3.275,5.322-5.732,11.466-7.371,18.428c-17.198-24.57-27.437-54.054-38.493-81.49
		c-5.732-14.332-11.465-29.894-18.427-44.227c0.409-0.409,0.819-0.409,1.638-0.818c24.57,40.541,50.369,80.672,76.167,120.394
		C338.109,394.112,332.377,396.569,327.053,399.435z" class="color c1"/>
    <path fill="#58979D" d="M401.173,374.864c-4.505,0-8.189,0.818-11.466,2.047c1.229-2.866,3.275-5.732,5.323-8.189
		c0.409-0.408-2.457-0.818-3.276-0.408c-2.457,2.865-4.504,5.731-5.731,9.008c-0.819-2.865-0.819-5.732-0.819-9.008
		c0-1.229-3.275-1.64-3.275-0.82c-0.409,4.506,0.409,9.01,1.639,12.695l-0.41,0.409c-4.095,0.409-8.188,1.229-11.875,2.866
		c-2.048,0.818,0.819,1.229,2.048,0.818c2.866-1.229,5.732-2.047,9.009-2.047c-2.866,3.275-5.323,7.371-6.553,12.284
		c-0.409,0.819,3.276,1.638,3.276,0.409c0.818-4.095,2.866-7.779,5.323-11.057c-0.409,4.096,0,8.189,2.048,12.285
		c0.408,0.818,3.686,0.41,3.275-0.41c-1.639-3.275-2.048-6.551-2.048-9.827c2.048,3.276,5.323,5.733,9.419,7.371
		c1.229,0.409,3.275-0.409,1.229-1.229c-4.505-1.638-7.781-4.505-9.828-8.189c0.409-0.409,0.817-1.229,0.817-1.639
		c3.687,0.409,7.371,0.819,10.647,1.639c0.818,0.41,4.095-0.818,2.457-1.229c-4.095-1.229-8.6-2.047-13.104-2.047l-0.408-0.41
		c3.686-2.457,7.779-4.095,13.104-3.686C404.039,376.502,402.401,374.864,401.173,374.864z" class="color c1"/>
  </g>
</svg>