<svg version="1.1" id="图层_1" x="0px" y="0px" width="130px" height="130.541px" viewBox="0 0 130 130.541" enable-background="new 0 0 130 130.541" xml:space="preserve" xmlns="http://www.w3.org/2000/svg" xmlns:xlink="http://www.w3.org/1999/xlink" xmlns:xml="http://www.w3.org/XML/1998/namespace">
  <path fill="#00A66A" d="M117.4,118.587c-13.044-0.003-39.724-16.043-65.507-41.826C21.256,46.125,3.519,14.189,12.275,5.435
	c2.351-2.352,6.386-2.776,11.606-1.568C13.833-0.547,6.108-1.367,2.375,2.369c-9.479,9.478,10.271,44.595,44.111,78.435
	c33.839,33.841,68.956,53.59,78.437,44.113c2.271-2.273,2.849-6.027,1.966-10.878c-2.242-14.204-17.476-37.846-40.15-60.519
	C56.623,23.403,24.793,6.403,15.648,15.55c-0.349,0.347-0.645,0.738-0.919,1.151c12.849-1.956,40.126,14.254,66.139,40.267
	c20.914,20.915,35.485,42.642,39.38,57.033C120.248,114.001,120.946,118.587,117.4,118.587z" class="color c1"/>
  <path fill="#008CAD" d="M89.576,66.022c1.468,1.624,2.895,3.25,4.282,4.873c-4.686,5.678-11.655,13.379-17.377,19.102
	c-0.979,0.979-1.962,1.94-2.944,2.892c0,0-5.048,4.873-8.587,7.938l0.001,0.001c-18.813,16.546-37.219,27.462-48.988,29.32
	c-4.851,0.883-8.606,0.304-10.877-1.967c-7.7-7.699,3.886-32.315,26.644-59.422c1.496,1.693,3.023,3.386,4.588,5.076
	c-15.683,19.223-24.901,36.94-24.903,46.824c0,3.544,4.586,2.848,4.586,2.848c11.331-3.065,27.365-12.892,43.814-27.081
	c0.938-0.831,6.35-5.633,8.59-7.79c1.545-1.469,3.088-2.97,4.628-4.509C78.419,78.738,85.103,71.379,89.576,66.022z M127.632,5.633
	c-7.772-7.772-32.788,4.119-60.201,27.309c-3.885,3.223-8.66,7.629-8.66,7.629c-3.188,2.925-6.387,5.987-9.575,9.175
	c-3.347,3.346-8.303,8.626-11.358,11.972c1.438,1.683,2.917,3.369,4.437,5.053c2.91-3.227,7.738-8.39,10.966-11.618
	c3.604-3.605,7.227-7.023,10.827-10.249c-0.001,0-0.002-0.001-0.003-0.002c3.869-3.514,8.803-7.525,8.803-7.525
	c23.627-19.24,44.819-28.724,51.698-21.844c2.353,2.351,2.776,6.388,1.568,11.607C130.548,17.093,131.366,9.367,127.632,5.633z
	 M113.299,17.989c1.313,8.632-5.583,23.781-18.134,40.683c1.463,1.578,2.891,3.159,4.281,4.74
	c14.917-20.398,21.439-38.069,15.004-44.504C114.102,18.558,113.711,18.261,113.299,17.989z" class="color c2"/>
</svg>