<svg version="1.1" id="图层_1" x="0px" y="0px" width="101.816px" height="156.867px" viewBox="0 0 101.816 156.867" enable-background="new 0 0 101.816 156.867" xml:space="preserve" xmlns="http://www.w3.org/2000/svg" xmlns:xlink="http://www.w3.org/1999/xlink" xmlns:xml="http://www.w3.org/XML/1998/namespace">
  <path fill="#0097BA" d="M95.949,82.143L56.947,11.044L50.908,0l-6.039,11.044L5.867,82.143C2.07,89.393,0,97.675,0,105.959
	c0,28.129,22.778,50.908,50.908,50.908s50.908-22.779,50.908-50.908C101.816,97.675,99.746,89.564,95.949,82.143z M35.755,53.46
	c-1.618,5.156-5.033,6.484-7.888,5.173c-2.229-1.028-1.771-5.5,3.104-12.584c4.877-7.083,9.925-14.44,9.925-14.44
	S37.402,48.016,35.755,53.46z" class="color c1"/>
</svg>