<svg version="1.1" id="图层_1" x="0px" y="0px" width="191.513px" height="91.166px" viewBox="0 0 191.513 91.166" enable-background="new 0 0 191.513 91.166" xml:space="preserve" xmlns="http://www.w3.org/2000/svg" xmlns:xlink="http://www.w3.org/1999/xlink" xmlns:xml="http://www.w3.org/XML/1998/namespace">
  <path fill="#FFFFFF" d="M170.269,65.134c4.644,0,8.409,3.765,8.409,8.409c0,4.643-3.766,8.408-8.409,8.408s-8.409-3.765-8.409-8.408
	C161.859,68.899,165.625,65.134,170.269,65.134z M183.104,65.134c0,2.322,1.883,4.205,4.204,4.205c2.323,0,4.205-1.883,4.205-4.205
	c0-2.322-1.882-4.204-4.205-4.204C184.986,60.931,183.104,62.813,183.104,65.134z M0,75.483c0,3.572,2.896,6.468,6.468,6.468
	s6.469-2.896,6.469-6.468c0-3.573-2.896-6.469-6.469-6.469S0,71.911,0,75.483z M12.937,60.478c0,8.544,6.927,15.471,15.471,15.471
	s15.47-6.927,15.47-15.471s-6.926-15.47-15.47-15.47S12.937,51.934,12.937,60.478z M144.318,79.045
	c6.9-1.044,12.193-6.982,12.193-14.173c0-7.927-6.426-14.353-14.354-14.353s-14.353,6.426-14.353,14.353
	c0,7.191,5.293,13.129,12.191,14.173v11.938c0,0,2.637,0.161,4.321,0.183V79.045z M88.163,62.667
	c6.357-0.962,11.343-6.078,12.088-12.501c2.737,2.077,5.926,3.588,9.407,4.323v31.566c0,0,5.359,1.263,9.427,2.035V54.572
	c10.992-2.101,19.304-11.752,19.304-23.355c0-13.14-10.651-23.792-23.793-23.792c-13.14,0-23.79,10.652-23.79,23.792
	c0,1.329,0.136,2.623,0.346,3.892c-1.602-0.615-3.332-0.967-5.148-0.967c-7.927,0-14.353,6.426-14.353,14.354
	c0,7.19,5.293,13.128,12.192,14.172v17.32l4.32,0.965V62.667z M56.688,76.049V47.147C67.679,45.046,75.99,35.396,75.99,23.792
	C75.99,10.652,65.339,0,52.199,0S28.407,10.652,28.407,23.792c0,11.446,8.085,20.997,18.854,23.272v28.996
	C47.261,76.061,54.226,75.588,56.688,76.049z" class="color c1"/>
</svg>