<svg version="1.1" id="图层_1" x="0px" y="0px" width="180px" height="180.2px" viewBox="0 0 180 180.2" enable-background="new 0 0 180 180.2" xml:space="preserve" xmlns="http://www.w3.org/2000/svg" xmlns:xlink="http://www.w3.org/1999/xlink" xmlns:xml="http://www.w3.org/XML/1998/namespace">
  <path fill="#800201" d="M68.131,3.931c1.203-1.604,3.008-2.808,5.217-3.41c2.004-0.602,4.412-0.602,6.42-0.401
	c4.213,0.401,8.227,2.007,11.836,3.812c7.223,3.813,13.24,9.431,18.256,15.65c4.816,6.419,8.629,13.642,10.635,21.467
	c1.002,4.012,1.404,8.225,0.803,12.438c-0.201,2.007-1.004,4.214-2.006,6.019c-1.205,1.807-2.811,3.412-4.615,4.013
	c1.002-1.805,1.404-3.41,1.605-5.016c0-0.802,0-1.604-0.201-2.607l-0.201-1.204l-0.402-1.204c-0.801-3.21-2.207-6.419-3.609-9.429
	c-1.605-3.009-3.211-6.02-5.217-9.028c-2.006-2.81-4.012-5.817-6.02-8.427c-4.211-5.417-8.826-10.633-14.043-15.247
	c-2.607-2.206-5.215-4.413-8.225-6.019c-1.406-0.803-3.012-1.405-4.615-1.807C71.743,3.331,69.936,3.331,68.131,3.931z
	 M32.418,23.593c1.605-0.401,3.211-0.803,5.016-0.602c3.412,0,6.824,0.401,10.033,1.003c6.822,1.403,13.443,3.611,19.861,6.22
	c3.211,1.403,6.42,2.808,9.43,4.413s6.018,3.21,9.027,5.217c2.809,1.806,5.619,4.012,8.025,6.42l0.803,1.004l0.803,1.001
	c0.602,0.603,1.004,1.405,1.404,2.007c0.803,1.405,1.205,3.21,1.205,5.217c1.203-1.605,1.803-3.612,2.004-5.818
	c0-2.208-0.602-4.413-1.404-6.22c-1.605-4.012-4.012-7.424-6.82-10.433c-5.619-6.019-12.639-10.231-20.063-13.44
	c-7.424-3.011-15.449-4.816-23.674-4.616c-4.014,0.201-8.227,0.803-12.238,2.609c-2.006,0.803-3.813,2.007-5.416,3.61
	c-1.605,1.605-2.609,3.611-2.809,5.618C29.209,24.999,30.815,24.196,32.418,23.593z M6.739,61.311
	c1.205-1.204,2.408-2.208,4.014-3.009c2.809-1.807,6.02-3.011,9.226-4.215c6.424-2.207,13.445-3.61,20.266-4.614
	c3.41-0.401,6.82-0.803,10.432-1.003c3.41-0.201,6.822-0.201,10.432,0c3.41,0.2,6.822,0.602,10.031,1.605l1.205,0.401l1.203,0.401
	c0.803,0.2,1.404,0.803,2.207,1.204c1.406,1.002,2.609,2.005,3.611,3.812c0.402-2.007-0.199-4.213-1.203-6.02
	c-1.205-1.806-2.607-3.411-4.213-4.814c-3.41-2.608-7.223-4.413-11.035-5.617c-7.822-2.408-16.049-2.609-24.074-1.605
	c-7.824,1.204-15.648,3.61-22.671,7.825c-3.611,2.406-6.82,5.015-9.43,8.425c-1.201,1.605-2.207,3.612-2.807,5.818
	c-0.602,2.208-0.402,4.414,0.4,6.22C4.735,64.119,5.737,62.515,6.739,61.311z M3.53,106.853c0.402-1.605,1.002-3.211,1.805-4.616
	c1.605-3.008,3.613-5.617,6.021-8.225c4.613-5.216,9.828-9.83,15.244-14.044c2.811-2.206,5.619-4.213,8.428-6.02
	c3.01-1.805,5.818-3.61,9.027-5.214c3.01-1.605,6.221-2.81,9.432-3.612l1.203-0.401l1.203-0.201c0.803-0.2,1.605-0.2,2.609-0.2
	c1.605,0,3.408,0.401,5.014,1.605c-0.602-1.807-2.207-3.41-4.014-4.614c-1.803-1.004-4.01-1.807-6.016-2.007
	c-4.213-0.603-8.428-0.201-12.439,0.803c-8.025,2.007-15.25,5.818-21.467,10.633C13.36,75.755,7.743,81.774,3.933,88.997
	c-1.807,3.611-3.41,7.623-3.813,11.838c-0.201,2.005-0.201,4.413,0.402,6.418c0.6,2.007,1.805,4.014,3.41,5.218
	C3.13,110.263,3.13,108.457,3.53,106.853z M23.391,147.78c-0.4-1.605-0.801-3.21-0.602-5.016c0-3.412,0.402-6.821,1.004-10.031
	c1.404-6.821,3.609-13.442,6.219-19.861c1.404-3.211,2.809-6.42,4.414-9.431c1.605-3.008,3.211-6.019,5.217-9.027
	c1.805-2.81,4.012-5.617,6.42-8.025l1.002-0.803l1.004-0.801c0.602-0.603,1.404-1.004,2.008-1.405
	c1.402-0.803,3.207-1.204,5.215-1.204c-1.605-1.204-3.611-1.805-5.818-2.007c-2.207,0-4.414,0.603-6.221,1.405
	c-4.012,1.605-7.422,4.012-10.432,6.821c-6.018,5.617-10.23,12.638-13.441,20.062c-3.007,7.424-4.814,15.448-4.613,23.675
	c0.199,4.012,0.803,8.225,2.607,12.238c0.803,2.005,2.005,3.812,3.611,5.417c1.605,1.604,3.611,2.607,5.615,2.808
	C24.797,150.989,23.995,149.385,23.391,147.78z M61.108,173.459c-1.203-1.204-2.205-2.407-3.008-4.013
	c-1.807-2.808-3.008-6.019-4.213-9.229c-2.207-6.42-3.611-13.442-4.613-20.262c-0.402-3.412-0.803-6.822-1.006-10.433
	c-0.199-3.412-0.199-6.823,0-10.434c0.203-3.41,0.604-6.822,1.605-10.031l0.402-1.204l0.4-1.203
	c0.201-0.803,0.803-1.404,1.205-2.207c1.002-1.405,2.006-2.609,3.811-3.61c-2.006-0.401-4.213,0.198-6.018,1.202
	c-1.807,1.204-3.412,2.608-4.816,4.214c-2.607,3.41-4.412,7.222-5.617,11.035c-2.406,7.823-2.609,16.05-1.604,24.073
	c1.203,7.825,3.611,15.648,7.822,22.671c2.209,3.41,4.816,6.822,8.227,9.229c1.605,1.204,3.611,2.208,5.816,2.81
	c2.209,0.603,4.416,0.401,6.221-0.401C63.918,175.466,62.313,174.462,61.108,173.459z M106.651,176.67
	c-1.605-0.401-3.209-1.004-4.615-1.807c-3.01-1.605-5.615-3.61-8.225-6.019c-5.217-4.614-9.83-9.831-14.043-15.247
	c-2.207-2.81-4.213-5.618-6.02-8.428c-1.807-3.009-3.611-5.818-5.217-9.027c-1.605-3.009-2.809-6.22-3.611-9.429l-0.402-1.204
	l-0.199-1.204c-0.201-0.801-0.201-1.605-0.201-2.607c0-1.605,0.4-3.411,1.605-5.016c-1.805,0.603-3.41,2.206-4.615,4.013
	c-1,1.806-1.803,4.012-2.006,6.019c-0.6,4.213-0.199,8.426,0.803,12.439c2.006,8.023,5.818,15.247,10.635,21.466
	c5.016,6.219,11.033,11.838,18.256,15.649c3.611,1.804,7.625,3.409,11.836,3.811c2.008,0.201,4.414,0.201,6.422-0.401
	c2.004-0.602,4.012-1.806,5.215-3.409C110.063,177.072,108.254,177.072,106.651,176.67z M147.579,156.807
	c-1.605,0.401-3.211,0.803-5.016,0.602c-3.41,0-6.822-0.401-10.031-1.003c-6.822-1.403-13.443-3.61-19.861-6.22
	c-3.211-1.403-6.42-2.808-9.432-4.413c-3.008-1.604-6.016-3.21-9.025-5.217c-2.809-1.804-5.619-4.012-8.027-6.42l-0.803-1.002
	l-0.801-1.003c-0.602-0.603-1.004-1.405-1.404-2.007c-0.803-1.403-1.205-3.21-1.205-5.217c-1.203,1.605-1.805,3.612-2.006,5.818
	c0,2.208,0.604,4.414,1.406,6.22c1.604,4.012,4.01,7.424,6.82,10.433c5.617,6.019,12.639,10.231,20.061,13.442
	c7.424,3.009,15.449,4.814,23.674,4.614c4.016-0.201,8.227-0.803,12.24-2.609c2.004-0.801,3.811-2.005,5.416-3.61
	c1.604-1.605,2.609-3.61,2.809-5.617C150.79,155.404,149.184,156.205,147.579,156.807z M173.256,119.09
	c-1.203,1.204-2.406,2.207-4.01,3.01c-2.809,1.805-6.02,3.009-9.23,4.213c-6.42,2.207-13.441,3.61-20.262,4.614
	c-3.41,0.401-6.822,0.803-10.432,1.003c-3.412,0.201-6.822,0.201-10.434,0c-3.412-0.2-6.82-0.602-10.031-1.605l-1.203-0.401
	l-1.205-0.399c-0.803-0.202-1.404-0.803-2.205-1.204c-1.406-1.004-2.609-2.007-3.613-3.813c-0.4,2.007,0.201,4.215,1.205,6.02
	c1.203,1.806,2.607,3.411,4.213,4.814c3.41,2.609,7.221,4.413,11.033,5.617c7.824,2.408,16.051,2.609,24.074,1.605
	c7.826-1.204,15.65-3.61,22.674-7.824c3.41-2.206,6.818-4.815,9.227-8.226c1.205-1.605,2.207-3.61,2.811-5.817
	c0.6-2.208,0.4-4.414-0.402-6.22C175.264,116.282,174.262,117.887,173.256,119.09z M176.467,73.549
	c-0.4,1.604-1.002,3.209-1.805,4.614c-1.605,3.009-3.611,5.617-6.02,8.225c-4.613,5.216-9.828,9.832-15.246,14.045
	c-2.809,2.205-5.619,4.212-8.428,6.019c-3.01,1.805-5.816,3.61-9.025,5.216c-3.012,1.604-6.221,2.809-9.432,3.611l-1.203,0.401
	l-1.205,0.2c-0.801,0.201-1.604,0.201-2.607,0.201c-1.605,0-3.41-0.401-5.016-1.605c0.602,1.806,2.207,3.411,4.014,4.614
	c1.805,1.003,4.012,1.806,6.018,2.007c4.213,0.602,8.426,0.2,12.439-0.803c8.023-2.007,15.246-5.818,21.467-10.634
	c6.219-5.016,11.836-11.034,15.648-18.257c1.807-3.611,3.41-7.623,3.811-11.836c0.203-2.007,0.203-4.415-0.4-6.42
	c-0.602-2.007-1.805-4.012-3.41-5.216C176.87,70.137,176.87,71.944,176.467,73.549z M156.606,32.621
	c0.4,1.605,0.803,3.211,0.604,5.016c0,3.412-0.402,6.822-1.006,10.031c-1.402,6.821-3.609,13.442-6.217,19.863
	c-1.406,3.209-2.809,6.418-4.414,9.429c-1.605,3.009-3.211,6.019-5.217,9.027c-1.807,2.81-4.012,5.617-6.42,8.025l-1.004,0.803
	l-1.004,0.802c-0.6,0.604-1.402,1.003-2.006,1.404c-1.402,0.803-3.207,1.204-5.215,1.204c1.605,1.204,3.611,1.807,5.818,2.007
	c2.207,0,4.412-0.602,6.221-1.404c4.01-1.605,7.422-4.013,10.432-6.822c6.018-5.617,10.23-12.638,13.441-20.062
	c3.008-7.424,4.814-15.448,4.613-23.675c-0.201-4.012-0.803-8.225-2.607-12.238c-0.803-2.005-2.006-3.812-3.611-5.415
	c-1.605-1.605-3.611-2.608-5.617-2.81C155.202,29.412,156.004,31.015,156.606,32.621z M118.889,6.942
	c1.205,1.204,2.207,2.406,3.01,4.012c1.805,2.81,3.008,6.019,4.213,9.229c2.207,6.42,3.611,13.442,4.613,20.264
	c0.4,3.41,0.803,6.822,1.006,10.433c0.197,3.41,0.197,6.821,0,10.433c-0.203,3.41-0.605,6.821-1.605,10.03l-0.402,1.204l-0.4,1.204
	c-0.203,0.802-0.803,1.403-1.205,2.206c-1.004,1.405-2.006,2.609-3.811,3.612c2.006,0.4,4.213-0.2,6.016-1.204
	c1.807-1.204,3.412-2.608,4.818-4.213c2.605-3.411,4.41-7.223,5.615-11.035c2.408-7.824,2.609-16.049,1.605-24.074
	c-1.205-7.823-3.611-15.648-7.826-22.671c-2.406-3.61-5.016-6.82-8.424-9.429c-1.605-1.204-3.611-2.208-5.818-2.809
	c-2.207-0.604-4.414-0.402-6.221,0.4C116.081,4.935,117.686,5.938,118.889,6.942z" class="color c1"/>
</svg>