<svg version="1.1" baseProfile="tiny" id="图层_1" x="0px" y="0px" width="139.125px" height="140.546px" viewBox="0 0 139.125 140.546" xml:space="preserve" xmlns="http://www.w3.org/2000/svg" xmlns:xlink="http://www.w3.org/1999/xlink" xmlns:xml="http://www.w3.org/XML/1998/namespace">
  <path fill="#FFFFFF" d="M28.662,63.126c-0.051,0.036-0.092,0.064-0.135,0.095C28.528,63.198,28.617,63.153,28.662,63.126z
	 M91.173,62.836l-0.16-0.177l-0.087-0.015L91.173,62.836z M91.394,62.905l0.646,0.609c0.045,0.008,0.036-0.022,0.081-0.015
	C91.863,63.453,91.787,62.979,91.394,62.905z M92.785,63.942c-0.049-0.065-0.119-0.224-0.435-0.341
	C92.236,63.664,92.722,63.816,92.785,63.942z M108.483,76.771l-0.015-0.01C108.493,76.792,108.507,76.81,108.483,76.771z
	 M110.332,22.104c-0.004,0.003-0.012,0.006-0.012,0.006C110.353,22.106,110.371,22.103,110.332,22.104z M60.804,35.101
	c0.029,0.052,0.057,0.103,0.091,0.161C60.87,35.211,60.825,35.107,60.804,35.101z M79.021,29.447L79,29.502l0.184-0.093
	L79.021,29.447z M79.828,29.017c-0.068,0.17-0.458,0.008-0.564,0.263l0.566-0.194C79.841,29.056,79.816,29.048,79.828,29.017z
	 M80.261,28.731c-0.061,0.007-0.195-0.014-0.324,0.166C79.974,29.01,80.151,28.721,80.261,28.731z M91.308,21.601
	c-0.004,0.003-0.01,0.006-0.01,0.006C91.324,21.601,91.338,21.594,91.308,21.601z M139.092,50.778l-0.24,0.015l-0.48,0.031
	l-0.97,0.061c-0.713,0.034-1.421,0.065-2.125,0.098l-0.565,0.029l-0.213,0.017l0.082,0.154l0.037,0.071
	c0.039,0.071,0.125,0.284,0.14,0.439c0.104,0.429-0.179,0.321-0.321,0.418c-0.058,0.047-0.219,0.023-0.365,0.007l-0.438-0.043
	c-0.491-0.047-0.979-0.092-1.468-0.14l0.221,0.563l0.158,0.396l-0.406,0.111l-0.139,0.041l-0.125-0.057
	c-0.463-0.217-0.928-0.433-1.395-0.65l-0.586-0.301l0.147,0.269l0.056,0.098c0.03,0.05,0.006,0.022,0.124,0.191l0.501,0.745
	c-0.309,0.09-0.633,0.184-0.96,0.278c0.02,0.019-0.044,0.054,0.173-0.01c-0.424,0.135-0.838,0.268-1.228,0.39
	c-0.614-0.286-1.208-0.563-1.797-0.838c-0.561-0.262-1.113-0.524-1.665-0.811l-0.005,0.024c-0.318-0.186-0.679-0.38-1.103-0.599
	l0.424,0.662l0.596,0.892l0.824,1.221l0.119,0.178c0.046,0.04-0.016,0.04-0.046,0.05l-0.104,0.029l-0.413,0.116l-0.705,0.198
	c-0.828,0.225-1.652,0.451-2.464,0.672c-0.407,0.104-0.81,0.207-1.21,0.31l-0.625,0.149c-0.113,0.03-0.231-0.094-0.318-0.12
	l-0.268-0.145c-0.548-0.252-1.115-0.517-1.732-0.808c0.251,0.334,0.504,0.665,0.76,1.007l0.271,0.355l-0.436,0.103l-0.833,0.184
	c-1.027,0.213-2.079,0.404-3.144,0.539l-0.801,0.085l-0.416,0.033c-0.148-0.029-0.266-0.116-0.386-0.164l-1.448-0.706
	c-0.959-0.47-1.914-0.938-2.855-1.398l0.016,0.059c-0.452-0.224-0.9-0.445-1.338-0.664c0.455,0.661,0.904,1.32,1.353,1.976
	l0.399,0.571l0.209,0.299c0.023,0.046,0.096,0.114,0.082,0.143l-0.176,0.01l-1.379,0.094c-0.842,0.055-1.682,0.11-2.524,0.162
	l-1.269,0.065l-0.635,0.028l-0.339,0.013c-0.069,0.015-0.132-0.015-0.19-0.048l-0.154-0.076c-1.998-0.89-4.106-1.99-5.905-2.92
	c0.255,0.411,0.569,0.902,0.896,1.412l1.182,1.749c-0.337,0.024-0.671,0.049-1.007,0.069c-0.25,0.023-0.492,0.041-0.744,0.068
	c-0.926,0.148-1.94,0.207-3.02,0.244c-0.328-0.17-0.652-0.342-0.977-0.516l-3.896-1.86c-0.378-0.145-0.752-0.292-1.126-0.437
	c0.33,0.449,0.657,0.896,0.983,1.342l0.567,0.813l0.723,1.064l-1.398,0.104l-1.104,0.073l-2.209,0.111
	c-0.625,0.022-1.26,0.061-1.885,0.068c-0.198,0.016-0.307,0.024-0.307,0.024l-5.122-4.334c-0.005,0.339,0.034,0.652-0.033,0.969
	l0.022,0.001c-0.245,0.697-0.344,1.522-0.834,2.074c0.957,0.344,2.115,0.765,3.354,1.222c1.099,0.336,2.226,0.677,3.319,1.124
	l-0.101,0.023c0.567,0.096,1.118,0.46,1.599,0.691c0.117,0.047,0.232,0.094,0.348,0.142c0.125,0.037,0.244,0.065,0.354,0.058
	l-0.08-0.044c0.24,0.023,0.459,0.2,0.658,0.362c0.636,0.264,1.25,0.523,1.82,0.775c0.036,0.017,0.072,0.033,0.111,0.05
	c0.178,0.079,0.35,0.159,0.52,0.234c0.148,0.056,0.27,0.075,0.315,0.001c-0.276-0.131,0.482,0.098-0.112-0.249
	c0.191,0.053,1.031,0.475,0.898,0.55c0.006,0.084,0.084,0.196,0.072,0.262c6.389,3.192,12.014,7.836,16.773,12.789
	c-0.456-0.496-0.904-1.025-1.164-1.199c-0.146-0.166-0.176-0.277-0.057-0.219c-0.996-1.084-2.146-2.086-3.262-3.131
	c-1.092-1.078-2.318-2.007-3.457-2.99c-0.125-0.074-0.169-0.06-0.166,0c-0.914-0.915-2.021-1.636-3.111-2.382
	c-0.551-0.368-1.102-0.74-1.664-1.091c-0.584-0.313-1.168-0.622-1.748-0.934c-0.061-0.102,0.265,0.075,0.067-0.103
	c0.772,0.358,1.296,0.856,1.999,1.176l-0.053-0.102c0.483,0.281,0.02,0.183,0.539,0.442c0.214,0.092-0.01-0.09,0.082-0.036
	c0.971,0.683,2.03,1.335,2.879,2.069c0.295,0.063,1.005,0.779,1.422,0.956c0.212,0.229,0.462,0.409,0.502,0.547
	c1.689,1.213,3.197,2.674,4.758,4.09c0.762,0.727,1.479,1.506,2.222,2.258l1.11,1.137l1.059,1.186
	c0.566,0.826,1.327,1.605,2.072,2.463c0.742,0.855,1.531,1.74,2.247,2.678c0.017,0.006,0.021,0,0.017-0.02
	c0.422,0.646,1.071,1.555,1.646,2.268l0.388,0.676c0.855,1.082,1.661,2.207,2.475,3.332c0.77,1.156,1.568,2.303,2.297,3.496
	l1.104,1.785l1.063,1.813c0.359,0.602,0.688,1.219,1.036,1.828l0.261,0.457l0.34,0.643l0.699,1.311
	c0.294,0.592,0.637,1.238,0.896,1.807c-0.509-0.402-1.014-0.801-1.515-1.199c-0.534-0.436-1.064-0.867-1.593-1.299
	c-0.435-0.352-0.457-0.363-0.578-0.459l-0.037,0.184l-0.017,0.086c-0.007,0.057-0.075,0.295-0.157,0.426
	c-0.21,0.385-0.289,0.287-0.5,0.164c-0.178-0.047-0.4-0.367-0.605-0.566l-1.06-1.145l-0.188,0.615l-0.105,0.352l-0.354-0.09
	l-0.182-0.047l-0.074-0.166c-0.217-0.492-0.436-0.984-0.655-1.482c-0.083-0.209-0.167-0.418-0.253-0.631
	c-0.019,0.105-0.038,0.215-0.058,0.328l-0.019,0.113l-0.01,0.064l-0.006,0.031l-0.012,0.121c-0.029,0.318-0.059,0.641-0.087,0.963
	h-0.001c-0.348-0.162-0.715-0.334-1.084-0.506c0,0.027-0.055,0.018,0.094,0.09c-0.344-0.15-0.681-0.301-0.994-0.439
	c-0.298-0.678-0.585-1.334-0.869-1.98c-0.266-0.604-0.557-1.277-0.772-1.826l-0.018,0.016c-0.104-0.314-0.259-0.727-0.432-1.16
	c-0.031,0.268-0.063,0.539-0.094,0.814l-0.109,1.111l-0.139,1.518l-0.032,0.338c0.007,0.055-0.057-0.014-0.081-0.014l-0.408-0.195
	l-0.714-0.346c-0.814-0.396-1.622-0.795-2.417-1.182c-0.395-0.203-0.786-0.402-1.174-0.604l-0.287-0.148
	c-0.086-0.068-0.266-0.078-0.279-0.229l-0.238-0.619c-0.241-0.545-0.489-1.111-0.761-1.727c-0.017,0.434-0.035,0.869-0.053,1.313
	l-0.021,0.471c0.01,0.063-0.028,0.035-0.065,0.014l-0.104-0.059l-0.21-0.113l-0.787-0.439c-0.959-0.549-1.92-1.131-2.848-1.777
	l-0.689-0.496l-0.173-0.133l-0.095-0.07l-0.047-0.109l-0.166-0.395l-0.658-1.563c-0.436-1.037-0.866-2.068-1.292-3.086l-0.022,0.066
	c-0.193-0.471-0.386-0.936-0.574-1.391c-0.071,0.838-0.143,1.672-0.215,2.504L99.189,86.9l-0.029,0.385
	c-0.023,0.096,0.024,0.363-0.113,0.195l-1.154-0.902c-0.695-0.547-1.391-1.094-2.09-1.643l-1.039-0.836l-0.518-0.424l-0.285-0.234
	c-0.069-0.137-0.104-0.244-0.148-0.344c-0.966-2.1-1.867-4.41-2.658-6.416c-0.063,0.494-0.133,1.08-0.201,1.691l-0.217,2.35
	c-0.25-0.191-0.499-0.385-0.748-0.578c-0.193-0.145-0.389-0.289-0.58-0.432c-0.844-0.543-1.698-1.227-2.586-1.963
	c-0.129-0.328-0.253-0.662-0.379-0.99l-1.785-4.15c-0.219-0.424-0.436-0.846-0.652-1.266c-0.033,0.584-0.066,1.166-0.1,1.746
	c-0.07,0.809-0.143,1.617-0.213,2.428l-2.006-1.563l-1.742-1.398c-0.544-0.443-1.09-0.893-1.639-1.34
	c-0.105-0.079-0.168-0.128-0.168-0.128l-1.934-11.67c-0.064,0.031-0.125,0.064-0.189,0.091c-0.072,0.016-0.14,0.037-0.209,0.058
	c0.201,1.006,0.047,2.064-0.163,3.069l0.054-0.031l-0.133,0.202c0.023,0.006,0.039-0.004,0.051-0.012
	c0.025,0.318-0.278,0.538-0.361,0.807c0.02,0.007,0.078-0.01,0.084,0.039c-0.201,0.125-0.058,0.385-0.334,0.323
	c0.004,0.016,0.05,0.058,0.08,0.052c-0.401,0.461-0.901,0.81-1.406,1.135c-0.539-0.023-0.992,0.344-1.52,0.194l0.008,0.048
	c-0.639-0.084-1.311,0.022-1.952-0.171c-0.271-0.051-0.433-0.153-0.679-0.27l-0.03,0.055c-0.322-0.356-0.987-0.28-1.211-0.8
	l-0.031,0.079c0.029-0.129-0.18-0.178-0.08-0.284c-0.011-0.012-0.022-0.022-0.033-0.036l-0.053-0.009
	c0-0.021-0.007-0.037-0.009-0.057c-0.108-0.124-0.216-0.261-0.321-0.41c-0.086-0.07-0.161-0.16-0.19-0.288
	c-0.01-0.017-0.02-0.032-0.03-0.049l-0.018,0.031c-0.007-0.037-0.019-0.074-0.03-0.108c-0.028-0.049-0.056-0.091-0.083-0.139
	c-0.01-0.008-0.014-0.022-0.024-0.028c-0.001,0.015-0.017,0.018-0.016,0.044c-0.336-0.195-0.315-0.629-0.446-0.945l-0.072,0.074
	c0.037-0.2-0.182-0.445-0.199-0.677l-0.037,0.026l0.023-0.129l-0.087,0.028c-0.006-0.015-0.008-0.029-0.014-0.044
	c-0.396,0.578-0.794,1.148-1.196,1.68c-0.151,0.461-1.16,1.826-1.461,2.516c-0.324,0.411-0.584,0.864-0.759,0.988
	c-3.677,6.007-7.419,12.16-10.917,18.478c-0.918,1.422-1.797,3.061-2.7,4.771c-0.89,1.719-1.788,3.521-2.768,5.273
	c-0.006,0.027,0.004,0.027,0.023,0.006c-0.667,1.127-1.559,2.813-2.254,4.207l-0.698,1.131c-4.076,8.451-8.008,17.209-11.093,26.234
	c-1.146,3.334-2.159,6.551-3.104,9.732c-0.009,0.002-0.019,0.004-0.028,0.006c-0.107,0.025-0.214,0.037-0.321,0.059
	c0.063-0.223,0.132-0.439,0.192-0.668c0.18-0.645,0.355-1.309,0.556-2.004c-0.286,0.906-0.538,1.787-0.808,2.684
	c-2.962,0.609-5.801,0.186-8.71-0.266c0.745-1.92,1.522-3.879,2.348-5.895c0.088-0.227,0.179-0.457,0.267-0.682
	c0.705-1.973,1.702-4.15,2.691-6.322c1.137-2.617,2.34-5.299,3.613-8.051c2.705-6.434,5.812-12.525,9.181-18.584
	c6.626-12.568,12.683-22.371,17.448-29.47c1.014-1.635,2.063-3.299,3.23-4.898l-0.037,0.153c0.07-0.13,0.149-0.257,0.23-0.386
	c-0.477-0.18-0.932-0.39-1.237-0.785c-0.38-0.265-0.713-0.638-0.981-1.06c-0.105-0.228-0.218-0.453-0.292-0.69
	c-0.038-0.245-0.119-0.482-0.114-0.728L56.8,58.727c-0.003-0.544-0.012-1.095,0.098-1.629c-0.151,0.011-0.306,0.011-0.464-0.008
	L56.4,57.13l-0.035-0.002c-0.099,0.304-0.196,0.611-0.293,0.91c-0.235,0.731-0.463,1.437-0.657,2.047
	c-0.509,0.985-0.792,2.536-1.308,3.355c-0.208,0.753-0.531,1.979-0.97,2.979l0.062-0.091c-0.211,0.578-0.446,1.229-0.666,1.834
	c-0.116,0.299-0.229,0.589-0.34,0.848c-0.07,0.16-0.135,0.313-0.195,0.455c-0.015,0.113-0.138,0.124-0.219,0.167
	c-0.095,0.041-0.165,0.069-0.207,0.083c-0.223,0.355-0.713,0.563-1.153,0.873c-0.773,0.293-2.227,1.084-3.378,1.586
	c-0.032,0.043-0.105,0.096-0.199,0.146c-0.134,0.07-0.293,0.15-0.445,0.23c-0.38,0.191-0.721,0.373-0.831,0.51
	c-0.125,0.061-0.25,0.119-0.393,0.186c0.102-0.918,0.209-1.873,0.319-2.858c0.023-0.169,0.045-0.343,0.067-0.516
	c0.018-0.167,0.033-0.335,0.051-0.503c-0.135,0.204-0.285,0.441-0.417,0.66l-0.856,1.402c-0.619,1.025-1.216,2.049-1.774,3.031
	l-0.072,0.08c-0.033,0.029-0.124,0.15-0.184,0.221l-0.249,0.094l-0.151,0.039l-0.308,0.078c-0.205,0.053-0.408,0.104-0.598,0.158
	c-0.037,0.033-0.021,0.053,0.069,0.002c-0.615,0.303-1.113,0.729-1.728,1.029c0.017,0.018,0.017,0.018,0.125-0.016
	c-0.269,0.113-0.521,0.271-0.783,0.436c-0.417,0.246-0.938,0.553-1.406,0.771c0.018-0.129,0.036-0.264,0.056-0.402l-0.037-0.021
	l0.115-0.828c-0.05,0.029-0.125,0.09-0.145,0.545c0.05-0.711,0.102-1.42,0.153-2.139c0.013-0.137,0.028-0.277,0.04-0.422
	l-0.22,0.307l-0.856,1.281c-0.656,0.979-1.312,1.963-1.971,2.949l-0.124,0.186c-0.057,0.066-0.104,0.209-0.22,0.242l-0.422,0.23
	l-0.782,0.428l-1.562,0.859l-1.558,0.867l-0.944,0.533l-0.572,0.326l-0.144,0.082c-0.039,0.012-0.004-0.09-0.009-0.131l0.022-0.324
	l-0.074,0.395c0,0,0.054-0.465,0.107-0.928c0.048-0.363,0.094-0.725,0.094-0.725c-0.024,0.006-0.039,0.061-0.055,0.115l0.028-0.684
	l0.021-0.32c0.029-0.25,0.059-0.504,0.089-0.752c-0.144,0.189-0.332,0.453-0.506,0.736c0.02,0.016,0.089-0.008,0.054,0.092
	c-0.042,0.037-0.059,0.047-0.121,0.133c-0.07,0.1-0.133,0.197-0.191,0.293c-0.114,0.186-0.208,0.367-0.296,0.525
	c-0.178,0.32-0.332,0.572-0.591,0.727c-0.016,0.051,0.016,0.111,0.094,0.031c-0.42,0.619-0.842,1.244-1.265,1.869l-0.313,0.473
	l-0.165,0.248c-0.044,0.051-0.062,0.133-0.128,0.158l-0.175,0.092c-0.342,0.172-0.688,0.338-1.037,0.496
	c-0.697,0.318-1.403,0.613-2.113,0.893l-1.066,0.406l-0.739,0.27l-0.406,0.148c-0.064,0.018-0.146,0.059-0.196,0.061l0.024-0.211
	c0.076-0.426,0.153-0.854,0.231-1.291c0.01-0.064,0.022-0.135,0.033-0.199c-0.135,0.199-0.27,0.4-0.407,0.605l-0.413,0.635
	c-0.154,0.209-0.236,0.414-0.47,0.664c-1.051,0.303-1.969,0.555-2.95,0.768l0.026,0.041c-0.551,0.131-1.104,0.271-1.659,0.424
	l-0.881,0.242c-0.053,0.033-0.044-0.014-0.039-0.057l0.01-0.115l0.017-0.234l0.034-0.457c0.067-1.074,0.137-2.158,0.205-3.246
	l-0.813,1.297c-0.307,0.475-0.613,0.949-0.918,1.422c-0.514,0.82-0.92,1.412-1.422,2.162c-0.395,0.092-0.843,0.193-1.348,0.307
	l-0.069,0.08c-0.13,0.016-0.271,0.049-0.379,0.055l0.064-0.428c0.033-0.248,0.064-0.496,0.097-0.744
	c0.052-0.463,0.088-0.92,0.109-1.295c-0.287,0.465-0.576,0.932-0.867,1.398l-0.458,0.709c-0.088,0.131-0.181,0.264-0.271,0.393
	l0.03,0.232l-0.121-0.102c-0.052,0.076-0.1,0.15-0.153,0.223l-0.035,0.047l-0.046,0.008l-0.02,0.002l-0.121,0.014l-0.014-0.127
	c-0.012-0.125-0.021-0.234-0.028-0.338l-0.162,0.109c0.053-0.074,0.104-0.15,0.155-0.223c-0.012-0.188-0.018-0.365-0.025-0.592
	c0,0.01-0.05,0.262-0.051,0.252c0.017-0.102,0.014-0.229,0.003-0.365c-0.291,0.207-0.657,0.555-0.739,0.467l-0.177,0.137
	l-0.156,0.164c-0.07,0.039-0.14,0.08-0.208,0.123l-1.036,0.811l-0.078-1.289l-0.228,0.131c-0.251,0.166-0.491,0.316-0.762,0.477
	c-0.256,0.15-0.554,0.314-0.833,0.453l-0.255,0.148c0.019,0.004,0.04,0.01,0.042,0.01c-0.146,0.07-0.284,0.139-0.418,0.207
	l-0.523,0.305c-0.082,0.133-0.168,0.264-0.247,0.398l-0.154-0.098c-0.003,0.004-0.007,0.01-0.01,0.012l-0.056-0.035
	c-0.003,0.002-0.005,0.004-0.007,0.006c0.032-0.01-0.047,0.049,0.035,0.018L0.025,91.33c-0.05,0.023,0.017-0.055,0.024-0.078
	c0.026-0.049,0.061-0.102,0.092-0.15L0,91.009c0.357-0.498,0.728-0.984,1.097-1.469l-0.043,0.016l0.273-0.326
	c0.02-0.025,0.037-0.049,0.055-0.074l-0.065-0.053c0.711-1.115,1.487-2.09,2.253-3.121l-0.106,0.006
	c0.812-0.889,1.522-2.045,2.361-2.996L5.75,83.041c1.322-1.697,2.701-3.205,4.152-4.684c4.363-4.713,10.165-9.893,17.328-13.977
	c-0.046-0.037-0.033-0.104,0.146-0.264l0.133,0.041c0.094-0.164,0.083-0.103,0.099-0.195c0.546-0.31,0.552-0.476,0.919-0.741
	c-0.003,0.002-0.005,0.007,0.003,0.009c0.329-0.042,0.67-0.307,0.875-0.439l0.062-0.095c0.078-0.172,0.733-0.142,0.475-0.226
	c1.176-0.509,2.468-1.21,3.786-1.763c0.214-0.015,0.998-0.45,0.77-0.193c0.26-0.296,1.22-0.765,1.595-0.892
	c-0.019-0.008-0.042-0.019-0.096,0.011c0.635-0.482,0.918-0.152,1.493-0.66c0.164,0.117,1.207-0.512,1.664-0.437
	c0.071-0.069,0.087-0.113,0.045-0.134c1.214-0.452,2.574-0.912,3.62-1.245c0.95-0.08,2.176-0.669,3.017-0.617
	c0.642-0.186,1.674-0.534,2.612-0.599l-0.095-0.012c1.035-0.191,2.336-0.374,3.069-0.336c0.278-0.261,0.736-0.275,1.179-0.391
	c0.708,0.002,2.116-0.162,3.188-0.156c0.108-0.077,0.481-0.057,0.721-0.081c-0.085-0.129-0.174-0.255-0.247-0.394
	c-0.082-0.234-0.175-0.471-0.227-0.712c-0.018-0.25-0.076-0.496-0.049-0.734l-0.047,0.002c0.013-0.166,0.028-0.336,0.045-0.503
	c-0.699,0.275-1.811,0.729-2.826,0.962l0.105-0.005c-0.563,0.171-1.196,0.363-1.788,0.542c-0.296,0.081-0.583,0.159-0.846,0.224
	c-0.131,0.027-0.258,0.056-0.375,0.083c-0.088,0.019-0.172,0.037-0.253,0.058c-0.043,0.004-0.084,0.028-0.121,0.015l-0.105-0.069
	c-0.063-0.002-0.146-0.017-0.217-0.034c-0.052-0.003-0.106-0.011-0.158-0.023c-0.105-0.022-0.213-0.059-0.323-0.101
	c-0.219-0.084-0.45-0.193-0.69-0.279c-0.656-0.443-2.083-1.137-3.111-1.762c-0.104,0.004-0.319-0.117-0.524-0.229
	c-0.069-0.037-0.28-0.145-0.418-0.206c-0.144-0.065-0.262-0.103-0.326-0.097c-0.262-0.147-0.526-0.296-0.824-0.464
	c0.731-0.447,1.49-0.914,2.271-1.392c0.138-0.084,0.279-0.168,0.421-0.254l0.393-0.247c-0.233,0.01-0.495,0.026-0.729,0.051
	c-0.506,0.038-1.012,0.08-1.518,0.122c-1.107,0.097-2.202,0.208-3.247,0.328l0.052,0.007c-0.136-0.015-0.212-0.038-0.512-0.054
	l-0.202-0.139l-0.109-0.093l-0.212-0.186c-0.142-0.122-0.284-0.248-0.423-0.357c-0.047-0.01-0.052,0.015,0.038,0.059
	c-0.577-0.315-1.188-0.463-1.762-0.776c-0.005,0.024-0.005,0.024,0.079,0.093c-0.254-0.161-0.542-0.277-0.841-0.399l-0.312-0.138
	c-0.125-0.058-0.254-0.117-0.383-0.181c-0.256-0.126-0.512-0.261-0.723-0.391c0.029-0.016,0.06-0.034,0.09-0.051l-0.015-0.034
	l0.708-0.408c-0.065-0.014-0.175-0.027-0.524,0.224c0.622-0.415,1.247-0.832,1.876-1.254c0.115-0.073,0.232-0.146,0.35-0.22h-0.363
	l-1.496,0.056c-1.124,0.041-2.25,0.084-3.382,0.125c-0.101,0.004-0.39,0.049-0.554-0.087l-0.38-0.184l-0.763-0.374l-1.529-0.74
	l-1.536-0.73l-0.92-0.433l-0.567-0.268l-0.143-0.065c-0.016-0.012-0.067-0.02-0.053-0.033l0.064-0.043l0.258-0.175l-0.346,0.176
	l0.769-0.463c0.307-0.18,0.614-0.36,0.614-0.36c-0.019-0.015-0.07,0.004-0.12,0.027l0.52-0.376l0.247-0.166l0.602-0.363
	c-0.235-0.005-0.559-0.005-0.887,0.021c0.005,0.023,0.072,0.065-0.02,0.096c-0.023-0.007-0.048-0.011-0.074-0.016
	c-0.031-0.001-0.112-0.001-0.165-0.001c-0.117,0.001-0.227,0.007-0.333,0.016c-0.211,0.019-0.4,0.043-0.573,0.064
	c-0.347,0.047-0.631,0.068-0.895-0.051c-0.049,0.014-0.078,0.078,0.029,0.093c-0.717,0.023-1.437,0.047-2.16,0.068l-0.543,0.021
	l-0.171,0.009l-0.101,0.005l-0.09-0.045l-0.275-0.146c-0.325-0.172-0.644-0.354-0.96-0.537c-0.633-0.371-1.253-0.758-1.865-1.157
	l-0.911-0.604l-0.642-0.441l-0.34-0.236l-0.085-0.058c-0.047-0.021,0.035-0.035,0.049-0.054l0.172-0.104
	c0.529-0.276,0.88-0.454,1.188-0.613c-0.243,0.007-0.482,0.015-0.729,0.022l-0.735,0.039l-0.369,0.017
	c-0.127-0.002-0.323,0.055-0.423-0.087c-0.801-0.627-1.553-1.231-2.268-1.883l-0.02,0.047c-0.404-0.354-0.818-0.7-1.237-1.041
	l-0.673-0.541c-0.02-0.021-0.074-0.045-0.065-0.067l0.093-0.061l0.184-0.122l0.365-0.241c0.841-0.574,1.691-1.153,2.544-1.733
	l-1.501,0.102c-0.561,0.03-1.118,0.058-1.675,0.09c-0.858,0.06-1.5,0.077-2.297,0.105c-0.339-0.299-0.712-0.628-1.139-1.007
	L9.16,31.028c-0.345-0.185,0.137-0.291,0.299-0.415c0.188-0.111,0.379-0.221,0.569-0.33c0.356-0.214,0.705-0.44,0.992-0.636
	c-0.518,0.037-1.041,0.077-1.563,0.115l-0.801,0.046l-0.447,0.015l-0.14,0.143l0.007-0.138l-0.277,0.007L7.73,29.837L7.69,29.783
	l-0.075-0.095l0.084-0.083c0.084-0.084,0.158-0.154,0.228-0.222l-0.144-0.066c0.073-0.001,0.147-0.003,0.22-0.003
	c0.166-0.155,0.315-0.284,0.532-0.471l-0.054-0.027c0.001,0.014-0.001,0.028-0.004,0.042l-0.124,0.066
	c0.026-0.017,0.054-0.034,0.084-0.055c-0.084-0.069-0.397-0.152-0.61-0.218c-0.22-0.066-0.387-0.135-0.369-0.199l-0.205-0.061
	l-0.218-0.033c-0.073-0.032-0.14-0.062-0.206-0.094l-0.964-0.287H5.864l0.903-0.806l-0.488-0.222
	c-0.217-0.085-0.429-0.171-0.653-0.27c-0.326-0.14-0.7-0.316-1.002-0.482l-0.209-0.096c-0.003,0.015-0.004,0.032-0.004,0.032
	c-0.145-0.083-0.291-0.156-0.437-0.234L3.728,25.79c-0.151,0.013-0.304,0.019-0.455,0.032l-0.012-0.178
	c-0.006,0-0.012-0.001-0.018-0.001l-0.007-0.105c-0.032-0.005-0.072-0.006-0.124-0.01c0.034-0.008,0.081-0.014,0.122-0.02v-0.013
	c0.005-0.001,0.011-0.001,0.017-0.001l-0.012-0.181c0.663,0.002,1.325,0.011,1.983,0.028c0.106-0.003,0.215-0.009,0.314-0.009
	l-0.059-0.041l0.484,0.041L5.97,25.24c1.24-0.059,2.41,0.013,3.618,0.033L9.526,25.19c1.122,0.17,2.396,0.042,3.582,0.19
	l-0.078-0.033c2.104,0.105,4.085,0.354,6.084,0.689c5.919,0.808,12.901,2.461,19.89,5.712c0.006-0.062,0.068-0.092,0.288-0.042
	l0.039,0.129c0.179-0.023,0.124,0.006,0.206-0.036c0.534,0.247,0.667,0.153,1.076,0.285c-0.001,0,0,0.001-0.001,0.002
	c0.02-0.012,0.1,0.032,0.147,0.05c-0.054-0.018-0.1-0.035-0.147-0.05c-0.004,0.001-0.009,0.001-0.006,0.009
	c0.209,0.234,0.599,0.347,0.813,0.434l0.107-0.009c0.178-0.038,0.502,0.497,0.43,0.244c0.5,0.296,1.047,0.596,1.607,0.904
	c0.561-0.076,1.122-0.146,1.688-0.223c0.136-0.013,0.273-0.026,0.411-0.04l-0.326-0.163l-1.366-0.613
	c-1.025-0.462-2.053-0.924-3.085-1.388c-0.09-0.043-0.371-0.131-0.457-0.325l-0.26-0.334l-0.517-0.673l-1.043-1.341l-1.051-1.338
	l-0.632-0.796l-0.391-0.489l-0.099-0.125c-0.008-0.017-0.05-0.046-0.032-0.055l0.077-0.009l0.309-0.042L36.4,25.723
	c0,0,0.448-0.037,0.896-0.073c0.353-0.026,0.709-0.052,0.709-0.052c-0.01-0.023-0.064-0.027-0.118-0.031l0.63-0.103l0.297-0.042
	c0.233-0.019,0.469-0.037,0.699-0.059c-0.207-0.108-0.497-0.252-0.803-0.374c-0.005,0.024,0.035,0.09-0.062,0.078
	c-0.017-0.017-0.037-0.031-0.059-0.049c-0.028-0.015-0.1-0.051-0.146-0.072c-0.106-0.05-0.208-0.095-0.306-0.132
	c-0.197-0.081-0.378-0.14-0.544-0.198c-0.33-0.115-0.595-0.221-0.779-0.443c-0.048-0.009-0.103,0.032-0.014,0.096
	c-0.653-0.297-1.309-0.596-1.966-0.896l-0.497-0.224l-0.157-0.066l-0.092-0.041l-0.062-0.082l-0.182-0.251
	c-0.215-0.298-0.421-0.602-0.622-0.907c-0.402-0.613-0.787-1.238-1.159-1.865l-0.547-0.946l-0.38-0.678l-0.2-0.361l-0.051-0.091
	c-0.034-0.041,0.049-0.018,0.067-0.027l0.201-0.018c0.597-0.011,0.991-0.016,1.34-0.023c-0.223-0.1-0.441-0.2-0.664-0.3
	l-0.676-0.295l-0.339-0.149c-0.113-0.056-0.313-0.09-0.341-0.263c-0.439-0.92-0.845-1.793-1.196-2.696l-0.038,0.033
	c-0.207-0.493-0.423-0.988-0.647-1.48l-0.362-0.782c-0.009-0.029-0.046-0.075-0.03-0.089l0.11-0.014l0.218-0.028l0.436-0.055
	c1.009-0.139,2.027-0.282,3.049-0.424l-1.389-0.575c-0.516-0.221-1.029-0.443-1.542-0.662c-0.793-0.329-1.379-0.596-2.104-0.927
	c-0.171-0.418-0.357-0.876-0.569-1.401l-0.076-0.055c-0.165-0.281,0.218-0.219,0.429-0.254c0.218-0.014,0.438-0.027,0.659-0.044
	c0.413-0.033,0.826-0.08,1.169-0.128c-0.481-0.196-0.964-0.394-1.451-0.592l-0.739-0.313l-0.407-0.186l-0.188,0.066l0.063-0.125
	l-0.247-0.112l-0.059-0.026l-0.016-0.058V5.854l-0.034-0.123l0.117-0.041c0.116-0.037,0.216-0.068,0.309-0.099l-0.104-0.12
	c0.065,0.031,0.134,0.061,0.199,0.093c0.217-0.063,0.407-0.112,0.687-0.186l-0.038-0.044c-0.007,0.012-0.014,0.021-0.021,0.031
	l-0.143,0.007c0.031-0.004,0.062-0.007,0.1-0.014c-0.044-0.101-0.29-0.312-0.45-0.464c-0.169-0.158-0.29-0.293-0.241-0.343
	l-0.156-0.146l-0.183-0.124c-0.05-0.064-0.096-0.119-0.141-0.177l-0.738-0.688l1.165-0.32l-0.329-0.405
	c-0.159-0.176-0.315-0.351-0.474-0.54c-0.232-0.273-0.489-0.6-0.686-0.883l-0.142-0.173c-0.01,0.01-0.018,0.027-0.018,0.027
	c-0.095-0.14-0.193-0.272-0.291-0.406l-0.506-0.621c0,0,0.035,0.017,0.092,0.044c0.012,0,0.034,0.009,0.078,0.031
	C23.522,0.126,23.503,0.1,23.333,0c0.502,0.127,1.642,0.727,2.547,1.246c0.783,0.475,1.574,0.954,2.344,1.423l-0.126-0.188
	c0.693,0.532,2.117,1.258,3.049,1.921l-0.035-0.075l0.456,0.36l0.062-0.07c1.259,0.793,2.375,1.641,3.564,2.469l-0.016-0.11
	c1.006,0.917,2.361,1.639,3.44,2.578l-0.059-0.08c0.717,0.552,1.419,1.093,2.116,1.63c0.665,0.574,1.323,1.142,1.981,1.709
	l0.981,0.857l0.501,0.48c5.857,5.175,11.668,11.686,15.489,19.384c0.041-0.048,0.111-0.026,0.273,0.19l-0.042,0.14
	c0.167,0.124,0.104,0.105,0.199,0.13c0.321,0.637,0.478,0.668,0.744,1.106c-0.005-0.004-0.009-0.005-0.01,0.003
	c0.032,0.366,0.284,0.78,0.41,1.027l0.093,0.079c0.171,0.11,0.104,0.831,0.203,0.559c0.515,1.343,1.105,2.883,1.68,4.386
	c0.013,0.234,0.441,1.146,0.183,0.87c0.297,0.317,0.753,1.425,0.899,1.843c0.01-0.022,0.019-0.046-0.011-0.108
	c0.499,0.734,0.167,1.027,0.688,1.696c-0.128,0.18,0.555,1.354,0.506,1.857c0.025,0.028,0.043,0.039,0.06,0.053
	c0.001-0.004,0-0.004,0.001-0.011c0.033-0.018,0.05-0.003,0.062,0.018c0.004-0.004,0.01,0,0.013-0.004
	c0.003,0.009,0.007,0.018,0.009,0.027c0.022,0.003,0.042,0.004,0.063,0.011c0.013-0.035,0.052-0.044,0.021-0.101
	c0.137-0.024,0.221,0.094,0.328,0.135c0.398-0.793,0.832-1.569,1.296-2.328c1.657-3.145,3.979-6.722,7.342-10.5
	c0.441-0.595,0.898-1.204,1.444-1.737l0.002,0.079c0.175-0.342,0.567-0.545,0.836-0.765c0.058-0.06,0.115-0.119,0.175-0.177
	c0.05-0.065,0.088-0.134,0.098-0.211l-0.05,0.034c0.056-0.158,0.235-0.222,0.402-0.279c0.29-0.285,0.606-0.574,0.909-0.858
	c0.029-0.029,0.062-0.062,0.098-0.093c0.082-0.078,0.164-0.157,0.248-0.236c0.066-0.079,0.102-0.155,0.049-0.225
	c-0.145,0.135,0.145-0.296-0.219-0.038c0.07-0.109,0.519-0.515,0.564-0.382c0.07,0.033,0.168,0.033,0.22,0.07
	c4.536-4.109,9.437-7.027,13.761-9.068c-0.563,0.243-1.129,0.497-1.699,0.774c0.037-0.011,0.061,0.006,0.098-0.005
	c-0.116,0.027-0.256,0.041-0.37,0.105c-0.022,0.031,0.05,0.018,0.092,0.005c-0.401,0.338-1.372,0.631-1.603,0.88
	c-0.132,0.055-0.217,0.037-0.166-0.04c-0.421,0.226-0.847,0.456-1.277,0.689c-0.422,0.246-0.848,0.496-1.275,0.747
	c-0.867,0.481-1.697,1.032-2.531,1.535c-0.066,0.069-0.061,0.11-0.012,0.132c-0.76,0.364-1.443,0.875-2.127,1.392
	c-0.34,0.261-0.682,0.522-1.01,0.798c-0.318,0.286-0.637,0.574-0.953,0.861c-0.088-0.003,0.092-0.162-0.076-0.098
	c0.374-0.411,0.85-0.551,1.168-0.944l-0.086-0.007c0.266-0.246,0.146,0.069,0.4-0.216c0.088-0.128-0.072-0.035-0.021-0.079
	c0.623-0.448,1.234-0.979,1.889-1.308c0.073-0.205,0.677-0.471,0.844-0.728c0.191-0.071,0.35-0.194,0.456-0.172
	c2.181-1.577,4.618-2.867,7.079-4.081c0.623-0.192,1.258-0.495,1.916-0.826c0.653-0.341,1.339-0.689,2.061-0.939
	c0.008-0.012,0.002-0.02-0.008-0.022c0.479-0.142,1.159-0.388,1.707-0.616l0.505-0.083c2.196-0.955,4.521-1.662,6.912-2.185
	c0.151-0.054,0.305-0.105,0.455-0.156l1.337-0.451l-1.051,0.967c-0.393,0.363-0.783,0.72-1.166,1.073l-0.561,0.517l-0.18,0.176
	l0.533,0.409c0.152,0.043,0.004,0.19-0.041,0.307c-0.002,0.112-0.297,0.268-0.469,0.395l-0.994,0.674l0.324,0.181l0.367,0.204
	l-0.233,0.344l-0.081,0.12l-0.137,0.035l-0.664,0.178l-0.186,0.045l-0.107,0.021l-0.549,0.114c-0.035,0-0.043,0.013-0.014,0.036
	l0.031,0.02l0.313,0.097l0.689,0.206c-0.15,0.218-0.31,0.446-0.469,0.675c0.027-0.001,0.011,0.053,0.114-0.1
	c-0.209,0.326-0.414,0.647-0.607,0.944c-0.537,0.142-1.058,0.278-1.571,0.41l-0.728,0.187l-0.365,0.087l-0.222,0.044l0.022,0.021
	c-0.283,0.037-0.646,0.106-1.027,0.187l0.594,0.194l0.715,0.219l1.121,0.328c0.293-0.121,0.666-0.244,0.842-0.391
	c0.246-0.044,0.469-0.144,0.586-0.104c1.521-0.661,3.129-1.133,4.73-1.647c1.624-0.442,3.256-0.892,4.908-1.264
	c0.796-0.083,1.646-0.263,2.529-0.469c0.881-0.218,1.804-0.432,2.739-0.534c0.012-0.012,0.008-0.02-0.004-0.024
	c0.611-0.049,1.497-0.157,2.222-0.271l0.626,0.019c2.994-0.511,6.076-0.709,9.18-0.648c0.465-0.037,0.926-0.074,1.408-0.112
	l0.135-0.011c0.041-0.004,0.115-0.014,0.045,0.015l-0.207,0.121l-0.418,0.239l-0.84,0.487c-0.627,0.344-1.247,0.688-1.863,1.029
	l-0.493,0.275l-0.182,0.111l0.14,0.1l0.066,0.049c0.066,0.046,0.238,0.199,0.32,0.331c0.086,0.14,0.189,0.295,0.107,0.323
	c-0.021,0.057-0.11,0.122-0.199,0.188c-0.043,0.031-0.082,0.067-0.129,0.096l-0.207,0.079l-0.412,0.157
	c-0.459,0.176-0.918,0.351-1.376,0.526l0.446,0.405l0.303,0.271l-0.285,0.282l-0.11,0.106l-0.146,0.005
	c-0.511,0.014-1.022,0.028-1.538,0.041c-0.219-0.005-0.438-0.01-0.66-0.013c0.117,0.081,0.236,0.161,0.355,0.246l0.082,0.05
	l0.256,0.147c0.194,0.091,0.275,0.198,0.38,0.296l0.077,0.077c0.007,0.027-0.033,0.062-0.049,0.092l-0.125,0.188
	c-0.086,0.122-0.268,0.257-0.392,0.382c0.026,0.008-0.017,0.065,0.151-0.087c-0.319,0.31-0.633,0.611-0.928,0.896
	c-0.678,0.015-1.334,0.031-1.982,0.043c-0.619,0.016-1.23,0.027-1.852,0.016l0.005,0.024c-0.366-0.026-0.774-0.04-1.251-0.048
	l0.672,0.405l0.932,0.535l1.279,0.726l0.188,0.106c0.057,0.018,0,0.042-0.021,0.065l-0.08,0.074l-0.318,0.285l-0.544,0.492
	c-0.644,0.571-1.281,1.138-1.91,1.696c-0.318,0.273-0.635,0.544-0.947,0.813l-0.492,0.412c-0.09,0.077-0.248,0.018-0.34,0.034
	l-0.303-0.01c-0.604,0.013-1.229,0.028-1.91,0.046c0.372,0.186,0.745,0.371,1.126,0.561l0.4,0.2l-0.346,0.284l-0.665,0.533
	c-0.825,0.649-1.681,1.286-2.577,1.88l-0.681,0.434l-0.356,0.214c-0.146,0.039-0.289,0.014-0.418,0.022l-1.611,0.01
	c-1.068,0.007-2.133,0.011-3.182,0.018l0.042,0.046c-0.504,0-1.005,0-1.492-0.003c0.7,0.392,1.394,0.78,2.089,1.167l0.609,0.335
	l0.322,0.179c0.041,0.029,0.135,0.061,0.136,0.09l-0.153,0.088l-1.195,0.697c-0.729,0.419-1.458,0.841-2.189,1.265l-1.105,0.622
	l-0.561,0.307l-0.297,0.159c-0.056,0.046-0.123,0.048-0.192,0.044l-0.171-0.002c-2.186,0.092-4.563,0.042-6.588,0.006
	c0.414,0.258,0.918,0.563,1.439,0.872l1.287,0.733c0.365-0.1,1.129-0.051,1.479-0.182c0.297,0.028,0.591-0.003,0.708,0.071
	c3.962-0.372,8.028-0.074,12.063,0.3c0.933,0.226,1.969,0.318,3.053,0.421c1.076,0.14,2.204,0.265,3.312,0.478
	c0.017-0.006,0.016-0.014,0-0.021c0.719,0.162,1.759,0.423,2.625,0.557l0.709,0.242c1.303,0.195,2.592,0.512,3.895,0.786
	c1.292,0.316,2.584,0.654,3.869,1.022c1.283,0.381,2.568,0.77,3.84,1.197c0.639,0.201,1.27,0.428,1.904,0.644l0.476,0.165
	l0.237,0.084l0.331,0.122l1.356,0.507c0.636,0.238,1.264,0.502,1.922,0.766l0.124,0.053
	C139.094,50.761,139.167,50.784,139.092,50.778z M125.586,21.772l0.955,0.74l-0.943,0.354c0.348-0.079,0.742-0.201,1.012-0.343
	c-0.355-0.368-0.621-0.489-0.972-0.747c0.122-0.078,0.267-0.167,0.415-0.259L125.586,21.772z M100.312,25.423
	c4.381-1.809,8.65-3.027,12.504-3.849c-0.743,0.136-1.49,0.287-2.248,0.46c0.047-0.003,0.068,0.019,0.119,0.018
	c-0.148,0.003-0.316-0.009-0.473,0.034c-0.037,0.027,0.054,0.027,0.105,0.023c-0.584,0.263-1.82,0.389-2.172,0.599
	c-0.174,0.036-0.266,0.001-0.182-0.067c-0.568,0.156-1.146,0.3-1.725,0.471c-0.576,0.182-1.157,0.364-1.74,0.548
	c-1.175,0.337-2.324,0.771-3.462,1.15c-0.101,0.06-0.106,0.103-0.059,0.135c-0.153,0.036-0.304,0.086-0.455,0.13
	c0.026,0.007,0.003,0.032-0.007,0.051l-0.051,0.072L100.312,25.423z M103.287,18.519l0.892,0.407l-0.679,0.453
	c0.273-0.124,0.564-0.297,0.748-0.459c-0.27-0.139-0.57-0.274-0.908-0.409c0.078-0.084,0.173-0.182,0.27-0.279L103.287,18.519z
	 M37.898,46.071c-0.606,0.386-1.182,0.759-1.813,1.184c0.44,0.214,0.855,0.41,1.266,0.603c-0.407-0.203-0.814-0.403-1.225-0.606
	L37.898,46.071z M45.822,49.075l-4.333,0.236c1.47-0.015,2.945-0.026,4.138-0.215C45.689,49.087,45.758,49.08,45.822,49.075z
	 M56.034,52.218l-6.093,1.965c0.001,0,0.002,0,0.004,0.002c0.716-0.197,1.433-0.396,2.154-0.594c1.301-0.46,2.61-0.876,3.923-1.283
	C56.027,52.276,56.03,52.247,56.034,52.218z M38.815,76.136c-0.379,0.203-0.756,0.404-1.138,0.611l0.177-2.383
	c-0.076,0.807-0.14,1.57-0.198,2.416C38.062,76.56,38.443,76.347,38.815,76.136z M45.022,69.738l-2.444,3.791
	c0.883-1.248,1.769-2.502,2.349-3.624C44.957,69.852,44.991,69.793,45.022,69.738z M51.296,55.896
	c-0.634,0.057-1.27,0.122-1.91,0.201c-3.917,0.817-7.898,1.557-11.451,3.184c-0.883,0.266-1.773,0.654-2.661,1.103
	c-0.003,0.004-0.007,0.004-0.011,0.009C41.224,57.858,46.549,56.565,51.296,55.896z M55.993,57.216
	c-0.049,0.003-0.1,0.007-0.151,0.014l-4.148,12.099c0.039-0.049,0.049-0.121,0.079-0.176l0.103-0.264l0.206-0.525l0.409-1.052
	c0.706-2.254,1.517-4.467,2.308-6.669c0.396-1.101,0.784-2.199,1.151-3.297L55.993,57.216z M63.456,42.84
	c0.667,1.788,1.253,3.412,1.667,4.556c0.005,0.003,0.012,0.003,0.019,0.004c0.031-0.001,0.063-0.004,0.094-0.007
	c-0.193-0.49-0.393-0.977-0.601-1.457C64.353,44.913,63.918,43.887,63.456,42.84z M60.464,35.323
	c0.232,0.529,0.473,1.095,0.716,1.682c-0.02-0.241-0.037-0.46-0.16-0.552l0.033-0.091c-0.19-0.496-0.093-0.03-0.278-0.396
	c-0.052-0.145,0.086-0.1-0.075-0.382C60.617,35.597,60.54,35.48,60.464,35.323z M66.511,61.175
	c-0.042-0.166-0.057-0.333-0.081-0.499c-3.663,5.553-9.344,14.666-16.376,27.562c0.935-1.656,1.882-3.318,2.852-5.016
	c-0.056,0.082-0.094,0.098-0.153,0.184c0.177-0.254,0.391-0.527,0.554-0.834c0.029-0.088-0.08,0.064-0.142,0.158
	c0.539-1.25,2.028-3.42,2.366-4.199c0.204-0.322,0.337-0.439,0.269-0.234c2.533-4.328,5.31-8.919,8.135-13.174
	c0.117-0.217,0.108-0.273,0.033-0.242C64.821,63.673,65.665,62.428,66.511,61.175z M76.482,49.764l-0.078-0.022
	c-0.008,0.009-0.016,0.012-0.023,0.019c-0.01,0.008-0.029,0.029-0.029,0.029l-2.148-0.025c0.088,0.056,0.182,0.103,0.273,0.135
	l0.082,0.156c0.197,0.06,0.381,0.15,0.564,0.239C75.532,50.133,75.983,49.957,76.482,49.764z M121.059,98.869
	c0.093,0.135,0.188,0.266,0.303,0.404c0.168,0.219,0.351,0.41,0.516,0.557l0.061,0.057c0.01,0.004,0.021,0.025,0.029,0.02
	l0.016-0.045l0.063-0.191c0.039-0.135,0.063-0.27,0.078-0.363c0.039-0.229,0.081-0.461,0.121-0.697
	c0.064,0.047,0.144,0.107,0.217,0.162l-0.225-0.188l-0.289,1.258L121.059,98.869z M108.468,76.761
	c-0.127-0.096-0.267-0.227-0.41-0.367c0.728,0.77,1.434,1.543,2.119,2.32c-0.488-0.57-0.982-1.141-1.482-1.725
	c0.033,0.053,0.029,0.082,0.063,0.133c-0.1-0.154-0.195-0.338-0.336-0.484C108.373,76.609,108.431,76.707,108.468,76.761z
	 M108.759,43.791c-0.582-0.063-1.15-0.14-1.418-0.097c-0.211-0.027-0.302-0.088-0.182-0.126c-2.811-0.175-5.826-0.175-8.701-0.051
	c-0.137,0.027-0.158,0.066-0.115,0.111c-0.342-0.022-0.686-0.018-1.029,0l0.379,0.215c-0.02,0.009-0.037,0.021-0.057,0.033
	C101.4,43.528,105.148,43.541,108.759,43.791z M112.183,44.095c-0.606-0.08-1.213-0.163-1.834-0.245
	c0.057,0.016,0.072,0.044,0.129,0.058c-0.168-0.05-0.355-0.121-0.552-0.121c-0.052,0.015,0.052,0.042,0.112,0.053
	c-0.135,0.018-0.293,0.018-0.461,0.013C110.455,43.922,111.324,44,112.183,44.095z M133.991,50.723
	c0.146-0.016,0.316-0.031,0.492-0.047l-0.539,0.02l0.528,1.088l-1.001-0.1c0.348,0.081,0.746,0.148,1.057,0.142
	C134.372,51.336,134.189,51.111,133.991,50.723z M28.022,140.546l0.095-0.516c-0.046,0.162-0.095,0.328-0.141,0.492
	C27.994,140.515,28.009,140.517,28.022,140.546z M110.056,43.838l-0.018,0.001C110.078,43.845,110.099,43.85,110.056,43.838z
	 M53.153,82.757c0.004-0.01,0.009-0.021,0.011-0.027C53.128,82.787,53.107,82.822,53.153,82.757z" class="color c1"/>
</svg>