<svg version="1.1" id="图层_1" x="0px" y="0px" width="162.853px" height="165.232px" viewBox="0 0 162.853 165.232" enable-background="new 0 0 162.853 165.232" xml:space="preserve" xmlns:xml="http://www.w3.org/XML/1998/namespace" xmlns="http://www.w3.org/2000/svg" xmlns:xlink="http://www.w3.org/1999/xlink">
  <path fill="#593320" d="M23.885,34.238c1.219-1.737,3.832-2.374,5.419-4.08c1.468-1.579,1.619-4.554,3.334-6.075
	c1.635-1.451,2.748-3.744,4.549-5.117c1.76-1.341,3.911-2.329,5.775-3.571c1.863-1.241,5.155-0.176,7.07-1.294
	c1.957-1.143,2.715-4.403,4.67-5.391c2.049-1.036,4.686-0.723,6.67-1.562c2.159-0.913,3.699-3.321,5.701-3.962
	c2.233-0.716,4.966-0.592,7.497-1.219c2.395-0.592,4.855-1.561,7.329-1.892c2.528-0.337,5.153,0.56,7.574,0.682
	c2.591,0.132,5.104,0.308,7.346,1.188c2.37,0.922,5.112,1.605,7.196,3.224c1.988,1.544,4.208,3.117,6.098,4.927
	c1.862,1.784,2.324,5.104,4.242,6.8c1.963,1.736,4.158,3.332,6.34,4.614c2.027,1.195,4.183,2.235,6.235,3.516
	c2.014,1.259,4.123,2.392,6.106,3.747c1.976,1.348,3.571,3.185,5.463,4.641c1.906,1.466,4.589,1.977,6.357,3.564
	c1.797,1.613,3.257,3.592,4.853,5.343c1.628,1.785,3.166,3.649,4.525,5.59c1.38,1.971,2.607,4.054,3.647,6.2
	c1.039,2.141,0.959,4.657,1.596,6.986c0.618,2.26,3.186,4.293,3.368,6.741c0.17,2.301-2.75,4.625-3.015,7.103
	c-0.253,2.343-0.515,4.642-0.863,7.002c-0.345,2.337,1.787,5.098,1.342,7.437c-0.443,2.328-2.971,4.217-3.521,6.527
	c-0.55,2.311-0.695,4.689-1.357,6.964c-0.665,2.286-1.678,4.414-2.463,6.646c-0.791,2.248-1.627,4.413-2.549,6.586
	c-0.932,2.198-2.193,4.15-3.263,6.253c-1.084,2.128-2.301,4.055-3.535,6.065c-1.248,2.034-1.642,4.55-3.051,6.442
	c-1.424,1.91-2.1,4.474-3.696,6.217c-1.509,1.65-3.376,3.288-5.283,4.863c-1.748,1.443-3.391,3.382-5.419,4.731
	c-1.909,1.27-5.052,0.692-7.168,1.854c-2.028,1.113-4.232,1.832-6.413,2.825c-2.121,0.966-3.681,3.321-5.913,4.151
	c-2.197,0.818-4.715,0.748-6.986,1.415c-2.262,0.665-4.124,3.098-6.426,3.595c-2.316,0.5-5.072-1.381-7.397-1.069
	c-2.357,0.315-4.626,0.831-6.958,0.934c-2.386,0.105-4.636-0.93-6.961-1.07c-2.389-0.143-5.048,2.299-7.334,1.875
	c-2.352-0.436-4.328-2.477-6.529-3.234c-2.25-0.775-3.949-2.456-5.998-3.592c-2.058-1.142-4.455-1.6-6.262-3.136
	c-1.766-1.5-4.52-2.284-6.002-4.186c-1.403-1.799-1.299-4.779-2.411-6.96c-1.327-2.117-1.931-4.73-3.363-6.442
	c-1.551-1.854-4.32-2.554-5.964-4.184c-1.651-1.635-4.367-2.171-6.081-3.845c-1.612-1.574-2.404-4.113-4.045-5.948
	c-1.659-1.853-2.044-4.674-3.512-6.598c-1.51-1.978-4.864-2.645-6.141-4.701c-1.309-2.109-0.318-5.43-1.351-7.626
	c-1.052-2.235-3.788-3.755-4.518-6.085c-0.733-2.336,0.756-5.14,0.381-7.576c-0.366-2.397-2.83-4.626-2.82-7.12
	c0.009-2.395,0.69-4.894,1.079-7.386c0.35-2.262,0.368-4.727,1.066-6.945c0.684-2.174,3.177-3.704,4.128-5.83
	c0.932-2.083,2.328-3.869,3.451-5.902c1.111-2.008,2.19-3.971,3.425-5.924c1.236-1.952,0.552-5.172,1.851-7.066
	c1.316-1.918,4.866-2.253,6.183-4.106C22.546,38.877,22.591,36.077,23.885,34.238z" class="color c1"/>
  <path fill="#E8BB87" d="M27.216,37.865c8.436-11.924,27.122-23.579,40.837-28.001c8.272-2.658,19.451-5.436,27.476-2.323
	c8.522,3.304,14.441,12.863,22.62,17.656c18.894,11.075,40.324,25.923,37.628,50.415c-2.427,22.019-9.25,45.407-23.687,61.123
	c-19.309,21.015-75.818,37.274-92.857,3.778c-5.18-8.281-11.339-12.355-17.639-19.374C10.275,108.515,3.405,94.184,6.061,77.447
	C8.342,63.089,18.887,49.623,27.216,37.865z" class="color c2"/>
  <path fill="#C68347" d="M71.536,74.471c6.029-6.196,13.104-5.058,19.662,0.113c8.743,6.896,5.774,19.07-1.575,25.337
	c-12.115,10.322-20.352-2.73-21.714-8.748C66.449,84.778,66.908,79.189,71.536,74.471z M67.382,153.042
	c-1.041-0.203-2.062-0.48-3.062-0.822c-0.999-0.342-1.974-0.75-2.936-1.208c-15.141-4.957-19.272-20.463-28.88-29.51
	c-0.639-0.838-1.269-1.679-1.886-2.528c-2.468-3.403-4.537-6.97-6.56-10.762c-0.8-1.499-1.622-2.998-2.427-4.498
	c-0.201-0.375-0.402-0.75-0.637-1.122c-2.457-1.354-4.25-2.977-5.093-4.727c-0.282-0.583-0.457-1.18-0.509-1.787
	c10.541-9.785,5.257-14.331,2.24-22.132c0.319-0.742,0.664-1.48,1.03-2.212c0.733-1.464,1.551-2.906,2.424-4.323
	c-1.377-23.938,18.208-29.075,34.361-37.617c1.465-0.804,2.901-1.636,4.289-2.541c7.519-9.311,18.11-13.073,30.473-9.375
	c1.348,0.3,2.682,0.69,3.995,1.158c3.936,1.406,7.679,3.521,11.053,6.062c1.717,1.255,3.378,2.584,4.997,3.968
	c0.54,0.461,1.076,0.928,1.621,1.391c2.985,2.689,7.138,5.342,9.249,8.908c0.504,0.507,1.008,1.015,1.512,1.523
	c0.505,0.507,1.009,1.016,1.514,1.523c3.037,3.046,6.106,6.078,9.441,8.877c1.605,1.403,3.472,2.763,5.308,3.878
	c1.844,1.146,3.609,2.194,4.803,3.665c1.222,1.459,1.962,3.302,2.505,5.278c0.545,1.961,0.841,3.998,0.98,6.051
	c0.127,2.059,0.089,4.131-0.076,6.201c-0.028,0.345-0.059,0.691-0.007,1.004c1.702-0.308,2.832,1.584,3.963,3.476
	c-1.892,1.131-1.523,6.046-5.697,6.545c-0.27,0.465-0.381,0.869-0.491,1.271c-0.278,1.006-0.576,2.007-0.896,3.001
	c-0.319,0.995-0.66,1.983-1.02,2.966c-3.662,13.793-9.361,30.038-24.55,37.687c-0.898,0.852-1.809,1.683-2.743,2.488
	c-0.934,0.805-1.891,1.585-2.869,2.339c-0.56,0.43-1.126,0.852-1.698,1.265c-4.75,5.113-10.427,8.506-16.86,9.001
	c-0.721,0.197-1.395,0.444-2.064,0.693c-4.015,1.495-8.113,2.805-12.201,4.085C75.903,153.403,71.551,153.857,67.382,153.042z
	 M92.385,148.673c0.678-0.233,1.355-0.471,2.06-0.68c6.232-1.088,10.017-3.349,15.752-7.049c0.609-0.385,1.228-0.761,1.841-1.148
	c2.453-1.545,4.812-3.255,7.062-5.098c0.75-0.614,1.488-1.244,2.224-1.885c12.281-8.154,20.241-20.616,24.794-35.371
	c0.56-1.478,1.074-2.974,1.537-4.488c0.464-1.513,0.876-3.044,1.237-4.591c0.1-0.429,0.195-0.86,0.328-1.307
	c2.98-4.325,0.718-8.109,1.284-10.507c0.011-0.369,0.019-0.738,0.022-1.109c0.017-1.849-0.067-3.705-0.265-5.555
	c-0.258-2.219-0.688-4.434-1.397-6.582c-0.691-2.115-1.676-4.323-3.316-6.096c-1.644-1.8-3.73-2.85-5.561-3.877
	c-1.883-1.028-3.557-2.119-5.259-3.456c-3.343-2.602-6.49-5.511-9.571-8.482c-1.028-0.99-2.048-1.991-3.066-2.997
	c-0.509-0.503-1.018-1.007-1.526-1.511c-1.549-1.085-1.919-6-6.168-6.007c-0.526-0.49-1.053-0.979-1.585-1.464
	c-2.125-1.938-4.319-3.811-6.63-5.561c-3.477-2.591-7.212-4.917-11.294-6.59c-1.019-0.415-2.062-0.784-3.123-1.099
	c-1.063-0.334-2.144-0.615-3.24-0.858c-14.069-6.801-25.422-0.016-33.526,11.31c-1.248,0.853-2.536,1.663-3.846,2.449
	c-14.419,8.604-31.691,14.062-33.038,34.183c-0.544,0.949-1.121,1.891-1.695,2.845c-1.147,1.908-2.198,3.892-3.103,5.98
	c-0.226,0.517-0.443,1.043-0.648,1.577c-0.187,0.531-0.361,1.072-0.482,1.616c6.569,7.614,4.285,16.683-2.07,21.345
	c0.133,0.561,0.446,1.074,0.864,1.567c1.277,1.478,3.499,2.769,4.921,4.591c0.266,0.32,0.486,0.64,0.707,0.959
	c1.209,2.243,2.481,4.42,3.756,6.58l1.648,2.8c0.553,0.915,1.104,1.83,1.735,2.782c1.244,1.853,2.534,3.621,3.914,5.335
	c0.684,0.859,1.385,1.701,2.103,2.527c0.718,0.825,1.449,1.637,2.177,2.451c8.646,10.395,18.085,17.594,29.081,25.608
	c0.996,0.447,2.017,0.833,3.058,1.15s2.104,0.563,3.185,0.727c4.304,0.719,8.732,0.226,12.841-1.083
	C84.21,151.343,88.318,150.077,92.385,148.673z M91.449,142.639c-0.865-0.015-1.666,0.038-2.407,0.145
	c-0.729,0.12-1.463,0.22-2.198,0.3c-2.573,0.28-5.174,0.318-7.752,0.117c-1.289-0.1-2.573-0.26-3.879-0.464
	c-18.378-0.443-33.862-9.164-38.317-27.031c-0.694-1.135-1.398-2.269-2.097-3.406c-2.099-3.411-4.165-6.852-5.887-10.437
	c-0.203-0.36-0.403-0.722-0.625-1.079c0.647-0.877-1.245,0.254-1.245,0.254c-1.511-0.381-2.359-1.8-2.636-3.601
	c-0.092-0.601-0.121-1.244-0.089-1.905c7.662-7.716,9.185-13.762,2.311-22.478c0.227-0.557,0.484-1.106,0.758-1.643
	c0.548-1.076,1.161-2.118,1.792-3.143C29.734,47.373,45.35,42.8,61.458,34.344c1.464-0.768,2.932-1.569,4.394-2.418
	c5.167-3.393,9.713-8.677,16.599-7.409c1.829-0.056,3.671,0.072,5.475,0.409c1.803,0.337,3.567,0.885,5.239,1.636
	c2.715,1.244,5.06,2.999,7.234,4.985c0.544,0.496,1.077,1.007,1.603,1.528c2.395,1.154,4.788,2.303,6.984,3.631
	c1.097,0.665,2.146,1.375,3.12,2.154c4.995,10.921,14.063,13.205,21.305,19.714c0.802,0.908,1.548,1.875,2.227,2.888
	c2.037,3.038,3.472,6.484,4.181,10.051c0.236,1.205,0.386,2.416,0.461,3.629c0.025,0.405,0.041,0.809,0.05,1.214
	c5.824,4.851,0.908,5.221-1.441,10.837c-0.165,0.388-0.28,0.78-0.4,1.171c-0.478,1.563-1.029,3.103-1.625,4.62
	c0.546,16.561-13.46,27.499-26.025,35.53c-0.42,0.452-0.843,0.899-1.271,1.343c-0.427,0.443-0.861,0.883-1.296,1.318
	c-3.419,5.531-4.572,16.492-13.949,11.826C93.331,142.85,92.368,142.724,91.449,142.639z M96.84,143.42
	c8.752,3.116,8.013-6.714,11.66-12.012c0.445-0.431,0.883-0.868,1.318-1.308c0.435-0.441,0.866-0.885,1.292-1.333
	c11.164-10.176,27.431-17.331,26.623-35.427c0.628-1.534,1.202-3.097,1.691-4.69c0.122-0.399,0.239-0.798,0.383-1.198
	c1.803-0.96,1.433-5.875,6.348-6.244c-1.131-1.892-6.046-1.523-4.954-4.877c-0.013-0.416-0.034-0.833-0.063-1.249
	c-0.089-1.247-0.253-2.493-0.5-3.731c-0.765-3.674-2.272-7.207-4.392-10.307c-0.707-1.034-1.482-2.02-2.318-2.945
	c-5.866-7.163-16.827-8.316-21.326-18.61c-0.933-0.695-1.945-1.353-3.028-2.027c-2.169-1.348-4.632-2.76-7.32-4.624
	c-0.435-0.438-0.877-0.871-1.328-1.297c-2.257-2.128-4.734-4.059-7.579-5.372c-1.7-0.78-3.496-1.353-5.333-1.71
	c-1.837-0.359-3.719-0.507-5.596-0.479c-6.853-0.732-10.268,6.445-16.983,7.411c-1.427,0.894-2.872,1.722-4.321,2.506
	C45.172,42.505,28.626,45.587,28.31,67.66c-0.636,1.068-1.273,2.159-1.847,3.281c-0.287,0.562-0.556,1.132-0.803,1.71
	c5.95,10.249,4.427,16.295-3.59,23.525c-0.017,0.534,0.112,0.99,0.356,1.398c0.734,1.224,2.516,2.018,4.57,3.227
	c0.247,0.316,0.452,0.644,0.667,0.968c0.793,1.695,1.662,3.35,2.573,4.962c1.817,3.258,3.744,6.429,5.791,9.532
	c0,0,0.763,1.169,1.488,2.372c4.967,16.829,21.212,22.527,37.647,24.429c1.316,0.193,2.612,0.339,3.911,0.424
	c2.599,0.171,5.211,0.101,7.792-0.214c0.737-0.089,1.472-0.199,2.202-0.329c1.413-0.215,3.305-1.346,5.266,0.132
	C95.178,143.218,96.018,143.335,96.84,143.42z M118.654,66.652c-0.558,3.875,0.764,7.69,1.473,11.329
	c0.355,1.82,0.556,3.597,0.293,5.315c-4.909,11.089-7.955,23.181-19.53,29.741c-0.607,1.666-1.219,3.111-1.854,4.344
	c-3.178,6.17-7.06,6.959-12.521,4.735c-1.093-0.446-2.248-1.011-3.481-1.661c-17.087-1.585-26.155-3.868-36.73-18.958
	c-0.245-0.31-0.482-0.625-0.722-0.945c-0.761-3.185-4.04-3.58-5.916-4.386c-0.938-0.403-1.525-0.907-1.258-1.914
	c13.601-3.001,10.97-11.701,9.619-20.904c0.275-0.559,0.559-1.113,0.846-1.664c2.811-11.054,11.902-21.623,25.753-20.26
	c1.83,0.077,3.635,0.206,5.452,0.388c1.816,0.182,3.645,0.419,5.472,0.702c0.611,0.094,1.22,0.194,1.861,0.253
	c13.815-3.77,25.145,2.298,31.242,13.877L118.654,66.652z M117.405,63.378c-7.872-9.073-16.549-19.294-28.929-14.93
	c-0.618-0.205-1.239-0.402-1.862-0.59c-2.809-0.849-5.682-1.532-8.639-1.95c-0.994-0.141-1.998-0.253-3.022-0.333
	c-8.872-3.82-23.247,2.204-27.423,12.403c-0.761,3.023,2.631,8.699-1.834,14.349c-0.232,0.6-0.449,1.202-0.579,1.816
	c10.306,9.933,1.976,17.479-8.425,20.48c-0.494,0.19-0.951,0.412-1.316,0.71c-0.365,0.3-0.639,0.678-0.766,1.181
	c0.369,4.915,7.938,0.392,7.844,4.387c0.181,0.301,0.339,0.603,0.501,0.901c0.568,1.041,1.204,2.035,1.894,2.986
	c6.723,20.107,20.707,22.022,38.513,20.469c1.116,0.355,2.187,0.888,3.211,1.5c4.096,2.448,7.45,6.15,9.973,4.643
	c3.686-0.277,3.764-4.175,4.644-7.486c0.294-1.103,0.676-2.142,1.311-2.959c15.619-5.017,19.426-20.131,20.897-34.859
	c2.053-0.859,4.228-1.517,3.097-3.409c-1.511-0.381-2.55-1.044-3.34-1.708c-3.075-4.73-1.552-10.776-4.945-16.452
	c0,0,1.131,1.892,0.902,1.738C118.696,65.212,118.118,64.263,117.405,63.378z M102.984,128.005c1.13-1.128,1.13-1.128,2.195-2.79
	l0.905-0.795l0.113-0.099c0.219,0.194-0.225-0.33-0.21-0.248l-0.057,0.05l-0.226,0.198l-0.452,0.397l-1.693,1.901
	c-5.121,3.651,1.294,10.089-2.49,12.351c-5.676,3.392-9.438-7.199-14.479-4.353c-0.851-0.031-1.643,0.041-2.429,0.095
	c-1.181,0.08-2.366,0.095-3.547,0.046c-21.126,3.384-36.61-5.338-40.227-25.098c-0.681-1.071-1.314-2.171-1.891-3.296
	c-0.577-1.126-1.098-2.278-1.557-3.453c-0.141-0.361-0.277-0.725-0.468-1.091c-3.528-1.901-5.734-4.092-5.449-6.306
	c0.057-0.443,0.217-0.888,0.522-1.353c12.617-3.876,11.596-8.706,9.518-19.169c-0.298-1.495-0.616-3.104-0.938-4.85
	C36.96,48.889,54.359,43.627,71.107,38.353c1.575-0.514,3.137-0.909,4.698-1.171c1.562-0.261,3.146-0.382,4.731-0.352
	c3.175,0.038,6.312,0.766,9.296,1.84c0.75,0.271,1.489,0.566,2.22,0.882c0.729,0.315,1.449,0.652,2.16,1.007
	c1.738,0.212,3.375,0.345,4.907,0.488c14.589,3.062,24.766,20.091,29.558,36.131c0.021,0.389,0.048,0.778,0.165,1.16
	c2.795,2.371,2.963,3.649,2.143,5c-0.41,0.675-1.068,1.369-1.769,2.227c-4.268,16.023-5.051,31.899-22.716,37.831
	c-0.574,0.56-1.137,1.131-1.704,1.704c-0.553,0.621-1.066,1.34-1.51,2.195L102.984,128.005z M104.645,125.642
	c0.462-0.465,0.925-0.914,1.382-1.365c16.247-5.685,21.184-18.907,23.23-36.208c0.533-1.446,1.246-2.546,1.922-3.445
	c2.026-2.694,3.727-3.58-0.525-6.293c-0.053-0.41-0.057-0.826-0.07-1.243c-0.046-1.66-0.26-3.324-0.639-4.931
	c-6.06-11.022-13.976-24.266-27.081-31.21c-1.096-0.205-2.254-0.351-3.486-0.459c-1.232-0.108-2.537-0.179-3.922-0.234
	c-0.593-0.294-1.177-0.574-1.766-0.842c-1.179-0.537-2.379-1.027-3.605-1.463c-5.078-1.82-10.696-2.345-15.995-1.197
	c-1.086,0.223-2.157,0.514-3.229,0.869c-19.526,5.243-36.925,10.505-33.477,33.867c0.361,1.967,0.776,3.68,1.162,5.206
	c1.93,7.63,3.113,10.584-7.088,17.251c-0.334,0.757-0.481,1.405-0.534,2.006c-0.212,2.408,1.071,4.096,3.413,6.637
	c0.271,0.783,0.57,1.556,0.894,2.317c0.973,2.281,2.178,4.458,3.548,6.518c0.686,1.03,1.41,2.032,2.143,3.05
	c3.449,19.861,19.694,25.56,38.926,21.565c0.983,0.015,1.965-0.01,2.945-0.077c0.652-0.045,1.303-0.109,1.951-0.191
	c12.169,0.545,17.454,5.09,19.052-8.916l1.682-1.882l0.446-0.404l0.224-0.203l0.055-0.05c0.08,0.023-0.39-0.477-0.223-0.237
	l-0.111,0.102l-0.891,0.812c-0.104-1.138-0.865,1.885-1.557,2.425C103.788,126.74,104.198,126.15,104.645,125.642z M106.417,76.544
	c-0.693,1.436-0.54,2.719,0.041,3.948c0.569,0.326,1.419,1.434,2.268,2.697c0.849,1.264,1.697,2.683,2.263,3.629
	c-2.988,6.279-7.711,12.122-13.399,16.028c-1.139,0.78-2.316,1.482-3.542,2.111C76.539,115.11,65.6,101.104,56.034,88.269
	c-0.029-1.037,0.116-2.072,0.312-3.091c0.294-1.529,0.675-3.02,0.813-4.469c0.539-2.669,1.483-4.996,2.746-7.015
	c0.631-1.01,1.343-1.942,2.124-2.803c13.469-9.084,35.021-11.693,42.607,0.793c0.738,1.469,1.339,3.099,1.785,4.872L106.417,76.544z
	 M107.376,76.211c0.343-1.508,0.34-2.804,0.139-3.978c-0.202-1.173-0.604-2.224-1.061-3.24c-3.337-21.125-31.326-12.101-43.804-6.65
	c-0.705,0.576-1.388,1.212-2.045,1.902c-2.626,2.757-4.82,6.321-6.492,10.89c-0.238,1.291-0.276,2.493-0.191,3.65
	c0.084,1.158,0.289,2.266,0.535,3.369c0.246,1.102,0.533,2.198,0.783,3.324c1.683,5.405-3.232,5.775-5.124,6.905
	c13.592,9.852,24.138,31.796,44.45,19.549c1.186-0.537,2.339-1.151,3.452-1.84c5.564-3.44,10.109-8.725,12.578-15.336
	c-0.277-3.686,0.51-8.008-0.734-11.178c-0.414-1.056-1.055-1.985-2.035-2.719c-0.568-1.416-0.907-3.122-0.449-4.637L107.376,76.211z
	" class="color c3"/>
</svg>