<svg version="1.1" id="图层_1" x="0px" y="0px" width="150.7px" height="73.709px" viewBox="0 0 150.7 73.709" enable-background="new 0 0 150.7 73.709" xml:space="preserve" xmlns="http://www.w3.org/2000/svg" xmlns:xlink="http://www.w3.org/1999/xlink" xmlns:xml="http://www.w3.org/XML/1998/namespace">
  <path fill="#527135" d="M140.413,44.466c-0.803,0-2.935,0.322-4.998,0.634c-2.284,0.346-5.128,0.773-8.348,1.129l-6.405,0.551
	c-0.275,1.402-0.807,6.12-1.34,7.475c-0.518,1.356-1.156,2.665-1.913,3.874c-0.769,1.201-1.645,2.302-2.581,3.275
	c-1.871,1.956-3.996,3.359-5.902,4.323c-0.952,0.491-1.861,0.861-2.673,1.165c-0.816,0.296-1.539,0.517-2.139,0.681
	c-0.601,0.16-1.074,0.274-1.401,0.339c-0.325,0.069-0.498,0.107-0.498,0.107s0.171-0.045,0.492-0.13
	c0.324-0.079,0.791-0.215,1.383-0.402c0.589-0.19,1.297-0.443,2.093-0.773c0.791-0.339,1.674-0.746,2.589-1.274
	c1.836-1.035,3.851-2.508,5.571-4.483c0.863-0.983,1.654-2.08,2.338-3.265c0.672-1.191,1.224-2.469,1.657-3.782
	c0.337-0.986,0.566-2.005,0.746-3.021l0.195-1.36c0.11-0.912,0.164-1.814,0.182-2.706c-1.386,0.063-2.795,0.106-4.244,0.106
	c-1.214,0-2.541,0.016-3.954,0.032c-1.676,0.021-3.408,0.041-5.251,0.041c-4.434,0-8.978-0.131-13.327-0.604
	c-4.107,1.383-8.459,2.72-12.852,3.914c-2.499,0.678-5.008,1.316-7.491,1.887c-2.482,0.571-4.938,1.09-7.325,1.52
	c-2.386,0.444-4.708,0.786-6.913,1.074c-2.21,0.256-4.304,0.459-6.243,0.544c-0.971,0.037-1.899,0.093-2.784,0.074
	c-0.886,0.001-1.724,0.005-2.511-0.052c-0.788-0.038-1.525-0.067-2.202-0.16c-0.677-0.086-1.305-0.115-1.858-0.238
	c-0.558-0.102-1.054-0.191-1.486-0.271c-0.428-0.098-0.785-0.209-1.078-0.285c-0.584-0.159-0.896-0.244-0.896-0.244
	s0.313,0.078,0.902,0.222c0.293,0.068,0.653,0.17,1.082,0.257c0.434,0.068,0.931,0.146,1.488,0.232
	c0.554,0.108,1.182,0.122,1.857,0.191c0.676,0.074,1.411,0.085,2.196,0.104c0.784,0.037,1.62,0.012,2.5-0.012
	c0.88-0.004,1.805-0.082,2.77-0.144c1.926-0.134,4.006-0.389,6.198-0.697c2.187-0.344,4.488-0.741,6.851-1.244
	c2.365-0.486,4.795-1.064,7.25-1.695c2.457-0.63,4.938-1.329,7.406-2.065c3.438-1.029,6.846-2.147,10.127-3.303
	c-8.584-1.308-16.086-4.229-19.986-10.551c-3.117-5.051-3.861-9.674-2.211-13.74c0.794-1.958,2.104-3.636,3.902-5.031
	c-0.37-0.14-0.73-0.282-1.104-0.421c-3.553-1.282-7.169-2.574-10.847-3.659c-3.671-1.102-7.378-2.098-11.08-2.822
	c-1.843-0.409-3.694-0.667-5.521-0.963c-0.913-0.138-1.828-0.212-2.734-0.319c-0.905-0.105-1.806-0.206-2.703-0.237
	c-0.896-0.051-1.785-0.101-2.665-0.149c-0.882-0.015-1.755,0.001-2.619,0c-0.432,0.002-0.862,0.003-1.289,0.004
	c-0.428,0.012-0.85,0.055-1.271,0.079c-0.843,0.058-1.675,0.115-2.495,0.172c-0.819,0.079-1.62,0.218-2.414,0.321
	c-0.788,0.125-1.578,0.186-2.329,0.38c-0.758,0.166-1.501,0.329-2.231,0.489c-0.363,0.086-0.731,0.145-1.082,0.252
	s-0.697,0.214-1.042,0.319c-1.374,0.421-2.704,0.792-3.905,1.325c-1.214,0.494-2.39,0.914-3.415,1.483
	c-1.035,0.542-2.042,0.986-2.907,1.512c-0.861,0.533-1.652,1.024-2.367,1.467c-0.73,0.421-1.323,0.883-1.846,1.275
	c-0.523,0.391-0.97,0.723-1.331,0.992c-0.722,0.539-1.108,0.827-1.108,0.827s0.381-0.294,1.094-0.846
	c0.357-0.275,0.797-0.616,1.315-1.016c0.517-0.401,1.103-0.875,1.826-1.309c0.709-0.455,1.494-0.96,2.348-1.51
	c0.859-0.542,1.86-1.004,2.891-1.566c1.021-0.59,2.193-1.03,3.406-1.549c1.199-0.556,2.529-0.952,3.906-1.399
	c0.345-0.111,0.692-0.225,1.045-0.339c0.351-0.114,0.721-0.18,1.084-0.272c0.733-0.174,1.48-0.352,2.24-0.531
	c0.756-0.208,1.548-0.283,2.342-0.423c0.798-0.118,1.604-0.271,2.429-0.365c0.827-0.071,1.666-0.144,2.515-0.216
	c0.425-0.032,0.852-0.083,1.281-0.102c0.432-0.009,0.865-0.018,1.301-0.026c0.872-0.014,1.753-0.044,2.644-0.045
	c0.889,0.034,1.786,0.07,2.691,0.105c0.907,0.017,1.816,0.103,2.732,0.193c0.914,0.093,1.841,0.152,2.765,0.275
	c1.845,0.267,3.72,0.495,5.584,0.877c3.745,0.667,7.496,1.607,11.212,2.654c3.723,1.03,7.379,2.267,10.972,3.495
	c0.656,0.231,1.294,0.47,1.946,0.703c1.79-1.127,3.965-2.03,6.526-2.699c-0.84-1.053-4.666-4.021-4.666-4.021l-4.482-5.697
	c-3.146-0.164-5.135-1.344-6.382-2.582C30.182-1.867-9.6,1.226,2.083,24.204c15.228,29.938,87.534,57.845,111.26,47.189
	c17.493-7.861,22.095-20.293,37.357-24.386c-0.107-0.134-0.215-0.27-0.314-0.409C145.393,45.27,141.45,44.469,140.413,44.466z" class="color c1"/>
</svg>