<svg version="1.1" id="图层_1" x="0px" y="0px" width="77.671px" height="66.161px" viewBox="0 0 77.671 66.161" enable-background="new 0 0 77.671 66.161" xml:space="preserve" xmlns="http://www.w3.org/2000/svg" xmlns:xlink="http://www.w3.org/1999/xlink" xmlns:xml="http://www.w3.org/XML/1998/namespace">
  <path fill="#EDCC0F" d="M66.302,11.36c2.125,2.127,3.295,4.95,3.295,7.957c0,3.003-1.173,5.828-3.295,7.951L38.836,54.74
	L11.369,27.27c-2.123-2.125-3.293-4.95-3.293-7.953c0-3.007,1.169-5.834,3.291-7.956c4.386-4.385,11.521-4.387,15.905-0.003
	l5.851,5.855l5.712,5.715l5.712-5.715l5.853-5.854c2.116-2.117,4.941-3.284,7.952-3.284C61.359,8.076,64.183,9.243,66.302,11.36
	 M72.013,5.65c-7.533-7.533-19.793-7.533-27.326,0l-5.854,5.855L32.982,5.65c-7.531-7.533-19.791-7.533-27.325,0
	C2.008,9.301,0,14.154,0,19.317c0,5.16,2.008,10.012,5.658,13.662l33.178,33.182l33.177-33.182c3.648-3.65,5.658-8.502,5.658-13.662
	C77.671,14.154,75.662,9.301,72.013,5.65L72.013,5.65z" class="color c1"/>
</svg>