<svg version="1.1" id="图层_1" x="0px" y="0px" width="220.33px" height="219.215px" viewBox="0 0 220.33 219.215" enable-background="new 0 0 220.33 219.215" xml:space="preserve" xmlns="http://www.w3.org/2000/svg" xmlns:xlink="http://www.w3.org/1999/xlink" xmlns:xml="http://www.w3.org/XML/1998/namespace">
  <path fill-rule="evenodd" clip-rule="evenodd" fill="#52A7A0" d="M74.308,12.085c3.753,4.975,9.386,6.066,13.789,0.951
	c3.127-3.648,6.362-7.033,11.354-8.572c-6.468-3.496-12.994-4.666-19.301-2.1c0,0-6.288,2.252-6.199,8.496
	c5.601-3.947,12.417-5.969,19.22-6.602C85.071,5.604,79.362,8.22,74.308,12.085z" class="color c1"/>
  <path fill-rule="evenodd" clip-rule="evenodd" fill="#52A7A0" d="M151.441,137.101c-2.72,7.578,0.456,14.625,9.755,16.066
	c6.618,1.016,13.028,2.33,18.707,6.867c-1.095-9.611-4.889-17.707-12.773-23.014c0,0-7.514-5.504-14.567-1.152
	c8.907,3.574,16.569,9.828,22.636,17.004C167.3,144.728,159.828,140.124,151.441,137.101z" class="color c1"/>
  <path fill-rule="evenodd" clip-rule="evenodd" fill="#52A7A0" d="M167.904,83.862c4.141,6.479,11.229,8.176,17.58,1.961
	c4.516-4.43,9.133-8.52,15.754-10.184c-7.83-4.766-16.053-6.607-24.5-3.723c0,0-8.389,2.494-9.123,10.379
	c7.729-4.67,16.76-6.838,25.586-7.264C182.611,76.28,174.928,79.263,167.904,83.862z" class="color c1"/>
  <path fill-rule="evenodd" clip-rule="evenodd" fill="#52A7A0" d="M133,126.009c6.51,6.051,15.234,6.445,21.08-1.406
	c4.152-5.592,8.508-10.85,15.834-13.93c-10.381-3.508-20.486-3.826-29.633,0.912c0,0-9.174,4.307-8.02,12.818
	c7.854-6.49,17.869-10.582,28.09-12.781C148.279,115.048,140.043,119.735,133,126.009z" class="color c1"/>
  <path fill-rule="evenodd" clip-rule="evenodd" fill="#52A7A0" d="M214.244,100.837c-7.377,1.957-11.66,8.041-8.633,15.744
	c2.162,5.48,3.986,10.957,2.867,17.584c7.307-5.879,12.164-12.979,12.914-21.66c0,0,1.076-8.512-5.641-11.48
	c1.117,8.531-0.496,17.543-3.58,25.857C215.215,116.69,215.58,108.688,214.244,100.837z" class="color c1"/>
  <path fill-rule="evenodd" clip-rule="evenodd" fill="#52A7A0" d="M98.791,21.802c7.031,5.531,15.277,4.869,19.555-4.057
	c3.035-6.365,6.316-12.4,12.713-16.52c-10.277-2.396-19.799-1.486-27.654,4.592c0,0-7.945,5.639-5.553,14.398
	c6.367-7.758,15.135-13.266,24.383-16.824C111.436,8.458,104.432,14.374,98.791,21.802z" class="color c1"/>
  <path fill-rule="evenodd" clip-rule="evenodd" fill="#52A7A0" d="M186.426,40.813c-5.059,7.395-4.207,16.082,4.385,20.609
	c6.119,3.219,11.938,6.684,16.021,13.439c1.992-10.822,0.871-20.857-5.115-29.148c0,0-5.563-8.391-13.811-5.893
	c7.533,6.732,13,15.982,16.627,25.734C199.434,54.167,193.625,46.771,186.426,40.813z" class="color c1"/>
  <path fill-rule="evenodd" clip-rule="evenodd" fill="#52A7A0" d="M86.209,172.085c0.932-7.92-3.316-13.918-11.933-13.07
	c-6.135,0.609-12.135,0.883-18.125-2.107c2.89,8.957,7.901,15.809,16.021,19.01c0,0,7.826,3.477,13.278-2.383
	c-8.689-1.295-16.795-5.457-23.663-10.881C70.487,168.569,78.094,171.194,86.209,172.085z" class="color c1"/>
  <path fill-rule="evenodd" clip-rule="evenodd" fill="#52A7A0" d="M117.098,216.946c5.91,3.906,12.369,2.938,15.145-4.238
	c1.973-5.111,4.156-9.982,8.926-13.539c-8.264-1.291-15.707-0.057-21.494,5.105c0,0-5.891,4.818-3.422,11.488
	c4.504-6.377,11.049-11.143,18.102-14.42C126.178,205.878,121.053,210.862,117.098,216.946z" class="color c1"/>
  <path fill-rule="evenodd" clip-rule="evenodd" fill="#52A7A0" d="M119.851,38.653c0.856-5.041-1.761-8.998-7.464-8.699
	c-4.062,0.219-8.022,0.223-11.88-1.857c1.633,5.809,4.726,10.336,9.979,12.613c0,0,5.051,2.447,8.823-1.15
	c-5.688-1.076-10.901-3.965-15.26-7.631C109.599,35.962,114.531,37.853,119.851,38.653z" class="color c1"/>
  <path fill-rule="evenodd" clip-rule="evenodd" fill="#52A7A0" d="M47.952,76.763c7.105,2.707,13.661-0.035,14.921-8.559
	c0.888-6.072,2.057-11.938,6.245-17.047c-8.973,0.754-16.503,4.037-21.39,11.156c0,0-5.069,6.775-0.939,13.385
	c3.259-8.105,9.028-15,15.676-20.398C54.932,62.362,50.698,69.118,47.952,76.763z" class="color c1"/>
  <path fill-rule="evenodd" clip-rule="evenodd" fill="#52A7A0" d="M94.287,211.118c3.109-10.43-1.502-19.5-13.807-20.391
	c-8.764-0.623-17.26-1.668-24.998-7.1c2.031,12.725,7.518,23.127,18.201,29.346c0,0,10.213,6.52,19.209-0.084
	c-11.92-3.787-22.375-11.289-30.791-20.205C72.986,202.688,83.082,208.011,94.287,211.118z" class="color c1"/>
  <path fill-rule="evenodd" clip-rule="evenodd" fill="#52A7A0" d="M81.409,128.888c6.212-5.15,7.077-12.688-0.187-18.393
	c-5.177-4.053-10.012-8.256-12.579-14.857c-3.969,8.721-4.838,17.447-0.768,25.77c0,0,3.657,8.307,11.939,7.992
	c-5.831-7.336-9.229-16.352-10.786-25.391C71.668,114.755,75.74,122.274,81.409,128.888z" class="color c1"/>
  <path fill-rule="evenodd" clip-rule="evenodd" fill="#52A7A0" d="M52.408,135.333c-3.782-3.814-8.867-3.934-12.28,1.246
	c-2.423,3.688-4.964,7.16-9.233,9.271c6.046,2.105,11.927,2.15,17.259-1.063c0,0,5.35-2.938,4.686-8.428
	c-4.58,4.326-10.418,7.135-16.373,8.723C43.5,142.673,48.3,139.505,52.408,135.333z" class="color c1"/>
  <path fill-rule="evenodd" clip-rule="evenodd" fill="#52A7A0" d="M20.883,153.429c3.863-5.037,3.193-11.01-3.418-14.184
	c-4.705-2.248-9.18-4.672-12.332-9.336c-1.502,7.416-0.617,14.311,3.998,20.045c0,0,4.293,5.799,10.615,4.145
	c-5.797-4.674-10.018-11.064-12.824-17.787C10.865,144.167,15.34,149.284,20.883,153.429z" class="color c1"/>
  <path fill-rule="evenodd" clip-rule="evenodd" fill="#52A7A0" d="M40.873,43.151c0.829,4.93,4.63,7.752,10.008,5.648
	c3.822-1.504,7.621-2.781,12.001-2.092c-3.466-4.85-7.912-8.041-13.696-8.463c0,0-5.644-0.639-8.087,3.893
	c5.806-0.83,11.754,0.17,17.134,2.162C51.589,42.353,46.236,42.183,40.873,43.151z" class="color c1"/>
  <path fill-rule="evenodd" clip-rule="evenodd" fill="#52A7A0" d="M207.506,138.667c-9.561-1.008-17.148,4.068-16.725,14.205
	c0.305,7.219,0.223,14.279-3.836,21.369c11.088-3.508,19.773-9.494,24.24-19.088c0,0,4.775-9.26-1.965-15.611
	c-2.188,10.246-7.818,19.842-14.898,27.992C202.129,157.222,205.854,148.231,207.506,138.667z" class="color c1"/>
  <path fill-rule="evenodd" clip-rule="evenodd" fill="#52A7A0" d="M51.92,161.735c-2.616-7.537-9.108-11.457-16.58-7.564
	c-5.314,2.777-10.652,5.205-17.411,4.656c6.552,7.096,14.11,11.512,22.896,11.482c0,0,8.644,0.324,11.039-6.98
	c-8.472,1.971-17.67,1.125-26.293-1.322C36.077,164.237,44.147,163.864,51.92,161.735z" class="color c1"/>
  <path fill-rule="evenodd" clip-rule="evenodd" fill="#52A7A0" d="M169.754,101.733c0.863,5.338,5.088,8.623,11.123,6.754
	c4.301-1.336,8.57-2.432,13.463-1.381c-3.816-5.436-8.754-9.164-15.217-10.029c0,0-6.311-1.084-9.1,3.59
	c6.504-0.473,13.148,1.018,19.143,3.531C181.76,101.644,175.773,101.083,169.754,101.733z" class="color c1"/>
  <path fill-rule="evenodd" clip-rule="evenodd" fill="#52A7A0" d="M172.391,35.444c-6.252,2.922-9.096,9.01-5.174,15.357
	c2.801,4.52,5.295,9.086,5.354,15.154c5.564-6.393,8.752-13.471,8.037-21.297c0,0-0.406-7.719-6.846-9.289
	c2.35,7.395,2.352,15.65,0.934,23.523C175.775,49.366,174.824,42.206,172.391,35.444z" class="color c1"/>
  <path fill-rule="evenodd" clip-rule="evenodd" fill="#52A7A0" d="M161.396,61.724c-1.254-8.045-7.091-13.189-15.353-10.703
	c-5.879,1.783-11.714,3.207-18.442,1.383c5.313,8.348,12.133,14.195,21.015,15.826c0,0,8.67,1.953,12.433-4.914
	c-8.923,0.375-18.057-2.209-26.307-6.281C144.938,61.247,153.153,62.397,161.396,61.724z" class="color c1"/>
  <path fill-rule="evenodd" clip-rule="evenodd" fill="#52A7A0" d="M165.019,203.286c-1.687-3.543-5.085-4.869-8.543-2.158
	c-2.462,1.932-4.953,3.691-8.3,4.092c3.594,2.924,7.541,4.398,11.852,3.504c0,0,4.263-0.701,5.05-4.625
	c-4.055,1.838-8.616,2.332-12.981,1.959C157.372,206.132,161.316,205.138,165.019,203.286z" class="color c1"/>
  <path fill-rule="evenodd" clip-rule="evenodd" fill="#52A7A0" d="M76.811,59.396c3.742,5.488,10.068,6.828,15.676,1.387
	c3.986-3.883,8.064-7.473,13.947-9.016c-7.01-3.961-14.348-5.398-21.852-2.775c0,0-7.447,2.281-8.043,9.061
	c6.85-4.139,14.877-6.156,22.732-6.67C89.85,52.636,83.029,55.327,76.811,59.396z" class="color c1"/>
  <path fill-rule="evenodd" clip-rule="evenodd" fill="#52A7A0" d="M52.772,98.396c-5.504,2.695-7.803,8.336-4.006,14.24
	c2.712,4.193,5.152,8.438,5.467,14.063c4.737-5.916,7.307-12.475,6.327-19.738c0,0-0.69-7.166-6.558-8.631
	c2.431,6.867,2.783,14.523,1.841,21.826C56.412,111.315,55.251,104.673,52.772,98.396z" class="color c1"/>
  <path fill-rule="evenodd" clip-rule="evenodd" fill="#52A7A0" d="M41.764,34.896c6.488,2.324,12.354-0.158,13.297-7.703
	c0.664-5.373,1.584-10.566,5.252-15.121c-8.094,0.75-14.826,3.723-19.084,10.059c0,0-4.428,6.035-0.541,11.838
	c2.76-7.195,7.818-13.338,13.707-18.176C47.744,22.106,44.072,28.116,41.764,34.896z" class="color c1"/>
  <path fill-rule="evenodd" clip-rule="evenodd" fill="#52A7A0" d="M37.492,88.64c4.441-7.539,2.516-15.594-7.049-18.822
	c-6.816-2.289-13.336-4.857-18.43-10.709c-0.811,10.393,1.553,19.674,8.826,26.746c0,0,6.84,7.209,15.209,3.889
	c-8.709-5.424-15.551-13.455-20.516-22.176C22.24,77.647,29.219,83.897,37.492,88.64z" class="color c1"/>
  <path fill-rule="evenodd" clip-rule="evenodd" fill="#49A2C2" d="M165.48,162.413c-5.58,5.787-5.582,13.406,2.281,18.354
	c5.6,3.512,10.883,7.213,14.184,13.541c2.941-9.119,2.814-17.928-2.174-25.816c0,0-4.574-7.922-12.77-6.75
	c6.627,6.721,11.025,15.377,13.605,24.246C176.766,175.524,171.863,168.437,165.48,162.413z" class="color c2"/>
  <path fill-rule="evenodd" clip-rule="evenodd" fill="#49A2C2" d="M162.263,75.124c-7.735-1.465-14.434,2.283-15.048,10.795
	c-0.429,6.061-1.174,11.965-5.169,17.633c9.415-2.213,17.097-6.65,21.663-14.391c0,0,4.79-7.434-0.129-13.189
	c-2.763,8.432-8.283,16.096-14.856,22.451C156.093,90.304,160,83.022,162.263,75.124z" class="color c2"/>
  <path fill-rule="evenodd" clip-rule="evenodd" fill="#49A2C2" d="M147.678,14.661c-0.986,8.904,3.855,16.176,13.568,16.129
	c6.914-0.039,13.678,0.283,20.459,4.32c-3.332-10.488-9.041-18.813-18.227-23.32c0,0-8.854-4.783-14.955,1.303
	c9.811,2.398,18.986,7.988,26.777,14.889C165.441,20.329,156.84,16.536,147.678,14.661z" class="color c2"/>
  <path fill-rule="evenodd" clip-rule="evenodd" fill="#49A2C2" d="M86.548,41.603c5.109-7.047,3.994-15.156-5.122-19.172
	c-6.494-2.848-12.678-5.947-17.131-12.158c-1.81,10.178-0.379,19.533,6.104,27.139c0,0,6.043,7.703,14.62,5.154
	c-8.063-6.104-14.03-14.617-18.076-23.646C72.579,29.444,78.851,36.21,86.548,41.603z" class="color c2"/>
  <path fill-rule="evenodd" clip-rule="evenodd" fill="#49A2C2" d="M6.953,126.526c5.832-1.613,8.754-6.539,5.551-12.75
	c-2.287-4.414-4.297-8.828-4.014-14.188c-5.404,4.777-8.693,10.529-8.48,17.543c0,0-0.064,6.875,5.695,9.25
	c-1.725-6.885-1.262-14.17,0.465-20.895C4.656,113.728,5.119,120.19,6.953,126.526z" class="color c2"/>
  <path fill-rule="evenodd" clip-rule="evenodd" fill="#49A2C2" d="M23.068,61.419c8.139,0.102,13.738-4.906,11.908-13.654
	c-1.314-6.227-2.273-12.354,0.082-18.822c-8.758,3.936-15.143,9.814-17.471,18.49c0,0-2.639,8.406,3.922,13.367
	c0.334-9.053,3.629-17.822,8.361-25.453C24.854,44.911,23.049,52.997,23.068,61.419z" class="color c2"/>
  <path fill-rule="evenodd" clip-rule="evenodd" fill="#49A2C2" d="M51.287,192.214c2.631-7.059,0.262-13.816-7.516-15.479
	c-5.539-1.174-10.885-2.617-15.473-7.082c0.5,9.105,3.346,16.863,9.758,22.127c0,0,6.096,5.434,12.232,1.559
	c-7.35-3.66-13.535-9.809-18.34-16.775C38.254,184.505,44.35,189.087,51.287,192.214z" class="color c2"/>
  <path fill-rule="evenodd" clip-rule="evenodd" fill="#49A2C2" d="M4.967,79.118c5.322-1.451,10.236,0.982,11.182,7.209
	c0.67,4.438,1.547,8.742,4.689,12.717c-6.723-1.172-12.363-4.064-16.029-9.531c0,0-3.799-5.236-0.713-9.709
	c2.449,6.068,6.773,11.434,11.758,15.791C10.203,89.981,7.031,84.817,4.967,79.118z" class="color c2"/>
  <path fill-rule="evenodd" clip-rule="evenodd" fill="#49A2C2" d="M125.865,26.896c6.797,1.672,12.773-1.236,13.479-8.588
	c0.49-5.236,1.256-10.322,4.883-15.033c-8.346,1.434-15.203,4.887-19.377,11.365c0,0-4.361,6.205-0.127,11.455
	c2.594-7.176,7.6-13.537,13.52-18.713C131.588,14.046,128.008,20.159,125.865,26.896z" class="color c2"/>
  <path fill-rule="evenodd" clip-rule="evenodd" fill="#49A2C2" d="M163.833,122.116c1.169,8.402,7.128,13.828,15.721,11.313
	c6.11-1.801,12.179-3.223,19.11-1.254c-5.36-8.752-12.33-14.918-21.498-16.705c0,0-8.938-2.123-12.948,4.994
	c9.241-0.297,18.652,2.48,27.137,6.818C180.865,122.784,172.377,121.503,163.833,122.116z" class="color c2"/>
  <path fill-rule="evenodd" clip-rule="evenodd" fill="#49A2C2" d="M126.385,37.222c2.088,7.564,8.242,11.85,15.881,8.559
	c5.434-2.352,10.865-4.357,17.508-3.352c-6.006-7.408-13.18-12.26-21.865-12.844c0,0-8.518-0.918-11.363,6.074
	c8.5-1.342,17.531,0.129,25.883,3.121C142.199,35.866,134.203,35.669,126.385,37.222z" class="color c2"/>
  <path fill-rule="evenodd" clip-rule="evenodd" fill="#49A2C2" d="M128.754,143.388c2.598,3.045,6.345,3.691,9.125,0.506
	c1.979-2.266,4.028-4.373,7.287-5.35c-4.355-2.123-8.694-2.805-12.794-1.188c0,0-4.097,1.424-3.884,5.277
	c3.598-2.471,8.051-3.75,12.525-4.182C135.699,139.327,131.995,140.974,128.754,143.388z" class="color c2"/>
  <path fill-rule="evenodd" clip-rule="evenodd" fill="#49A2C2" d="M191.412,92.747c2.58,6.256,8.264,9.26,14.398,5.6
	c4.369-2.605,8.77-4.918,14.52-4.775c-5.889-5.697-12.502-9.07-19.938-8.621c0,0-7.334,0.141-9.012,6.443
	c7.078-2.08,14.906-1.803,22.324-0.148C204.705,89.862,197.891,90.567,191.412,92.747z" class="color c2"/>
  <path fill-rule="evenodd" clip-rule="evenodd" fill="#49A2C2" d="M133.328,152.614c-1.09,5.594,1.73,10.076,8.113,9.902
	c4.541-0.131,8.971-0.029,13.225,2.396c-1.67-6.523-5.006-11.652-10.813-14.336c0,0-5.58-2.863-9.891,1.041
	c6.32,1.354,12.074,4.719,16.85,8.924C144.717,155.897,139.252,153.649,133.328,152.614z" class="color c2"/>
  <path fill-rule="evenodd" clip-rule="evenodd" fill="#49A2C2" d="M75.052,82.769c-2.001-4.082-6.183-5.783-10.56-2.967
	c-3.11,2.012-6.256,3.824-10.427,4.057c4.388,3.512,9.252,5.416,14.638,4.688c0,0,5.313-0.514,6.398-4.865
	c-5.093,1.805-10.769,2.068-16.184,1.371C65.473,85.472,70.398,84.608,75.052,82.769z" class="color c2"/>
  <path fill-rule="evenodd" clip-rule="evenodd" fill="#49A2C2" d="M89.598,139.636c-4.539-6.254-12.045-7.883-18.551-1.879
	c-4.627,4.283-9.371,8.236-16.289,9.85c8.373,4.598,17.08,6.363,25.887,3.57c0,0,8.754-2.418,9.307-10.029
	c-8.004,4.518-17.447,6.621-26.717,7.037C74.34,146.97,82.34,144.085,89.598,139.636z" class="color c2"/>
  <path fill-rule="evenodd" clip-rule="evenodd" fill="#49A2C2" d="M26.219,133.104c10.227,0.129,17.949-6.447,16.82-17.947
	c-0.816-8.186-1.193-16.236,2.643-24.736c-11.553,5.17-20.379,12.9-24.477,24.303c0,0-4.453,11.045,3.137,17.563
	c1.635-11.9,6.969-23.42,13.945-33.449C30.686,111.407,27.33,122.036,26.219,133.104z" class="color c2"/>
</svg>