<svg version="1.1" baseProfile="tiny" id="图层_1" x="0px" y="0px" width="180px" height="78.897px" viewBox="0 0 180 78.897" xml:space="preserve" xmlns="http://www.w3.org/2000/svg" xmlns:xlink="http://www.w3.org/1999/xlink" xmlns:xml="http://www.w3.org/XML/1998/namespace">
  <path fill="#639CE1" d="M180,6.14c0,3.392-2.748,6.141-6.139,6.141h-38.525c-3.391,0-6.139-2.749-6.139-6.141
	c0-3.391,2.748-6.14,6.139-6.14h38.525C177.251,0,180,2.749,180,6.14z M168.225,23.047H112.98H90.907
	c-2.36-0.797-4.069-3.003-4.069-5.631c0-2.452,1.48-4.554,3.596-5.473h21.52c0.396,0,0.784-0.041,1.161-0.117
	c2.647-0.537,4.643-2.879,4.643-5.687c0-3.205-2.598-5.804-5.804-5.804H5.804C2.598,0.336,0,2.935,0,6.14
	c0,3.206,2.598,5.804,5.804,5.804h6.571h22.015c2.375,0.788,4.098,3.002,4.098,5.641c0,2.444-1.475,4.541-3.58,5.463H12.952
	c-0.296,0-0.582,0.042-0.866,0.088C9.435,23.553,7.4,25.829,7.4,28.598c0,3.066,2.486,5.553,5.552,5.553h43.946H77.61
	c2.604,0.608,4.548,2.932,4.548,5.721c0,2.785-1.942,5.106-4.54,5.718H56.893h-5.92c-3.065,0-5.551,2.485-5.551,5.552
	c0,2.121,1.205,3.945,2.955,4.879c0.779,0.415,1.652,0.672,2.596,0.672h16.962c1.788,0.945,3.021,2.802,3.021,4.965
	c0,2.161-1.23,4.016-3.019,4.961H57.279c-0.99,0-1.912,0.257-2.74,0.674c-2.009,1.01-3.398,3.066-3.398,5.467
	c0,3.391,2.748,6.14,6.139,6.14h44.748c3.392,0,6.142-2.749,6.142-6.14c0-2.148-1.108-4.033-2.78-5.131
	c-0.965-0.634-2.119-1.01-3.361-1.01h-16.8c-1.464-1.018-2.429-2.707-2.429-4.625c0-2.462,1.587-4.533,3.787-5.301h20.958h46.55
	c3.066,0,5.553-2.486,5.553-5.551c0-3.066-2.486-5.552-5.553-5.552h-11.039h-18.297c-3.29-0.005-5.957-2.675-5.957-5.966
	c0-2.453,1.48-4.555,3.596-5.473h23.02h22.81c3.065,0,5.552-2.486,5.552-5.553C173.777,25.532,171.291,23.047,168.225,23.047z
	 M35.578,45.084H24.979c-3.111,0-5.634,2.523-5.634,5.635c0,3.113,2.523,5.637,5.634,5.637h10.598c3.113,0,5.636-2.523,5.636-5.637
	C41.214,47.607,38.69,45.084,35.578,45.084z M134.796,66.953h-17.258c-3.113,0-5.637,2.523-5.637,5.637
	c0,3.111,2.523,5.635,5.637,5.635h17.258c3.112,0,5.636-2.523,5.636-5.635C140.432,69.477,137.909,66.953,134.796,66.953z" class="color c1"/>
</svg>