<svg version="1.1" id="图层_1" x="0px" y="0px" width="171.881px" height="22.055px" viewBox="0 0 171.881 22.055" enable-background="new 0 0 171.881 22.055" xml:space="preserve" xmlns="http://www.w3.org/2000/svg" xmlns:xlink="http://www.w3.org/1999/xlink" xmlns:xml="http://www.w3.org/XML/1998/namespace">
  <path fill="#A3DBE8" d="M27.194,0.059c0,0,0.057,0.104,0.167,0.304c0.136,0.187,0.309,0.351,0.667,0.585
	c0.683,0.455,1.879,0.86,3.433,1.252c1.56,0.385,3.502,0.701,5.736,1.022c2.238,0.306,4.783,0.559,7.561,0.82
	c2.78,0.239,5.8,0.438,8.991,0.659c3.195,0.2,6.569,0.338,10.056,0.523c3.488,0.186,7.1,0.229,10.762,0.386
	c3.665,0.13,7.39,0.199,11.113,0.226c3.721,0.085,7.445,0.111,11.106,0.076c3.662-0.056,7.266-0.027,10.748-0.146
	c3.479-0.128,6.846-0.211,10.025-0.408c3.18-0.211,6.184-0.425,8.941-0.72c2.755-0.314,5.271-0.653,7.479-1.07
	c2.201-0.433,4.104-0.891,5.625-1.403c1.51-0.525,2.69-1.007,3.428-1.454c0.393-0.193,0.644-0.404,0.838-0.521
	C144.06,0.064,144.157,0,144.157,0l0.227,0.241c0,0-0.092,0.075-0.268,0.226c-0.184,0.141-0.424,0.393-0.797,0.636
	c-0.709,0.543-1.842,1.2-3.348,1.883c-3.013,1.37-7.574,2.654-13.133,3.61c-11.124,1.953-26.186,2.708-41.204,2.543
	C70.611,8.889,55.604,7.73,44.459,6.015c-5.571-0.854-10.18-1.863-13.299-2.966c-1.558-0.546-2.743-1.136-3.444-1.729
	c-0.348-0.274-0.597-0.614-0.699-0.818c-0.086-0.211-0.131-0.319-0.131-0.319L27.194,0.059z" class="color c1"/>
  <path fill="#A3DBE8" d="M12.947,1.213c0,0,0.09,0.119,0.264,0.349c0.087,0.114,0.195,0.257,0.323,0.429
	c0.132,0.162,0.313,0.313,0.497,0.501c0.747,0.746,2.07,1.65,3.87,2.537c1.81,0.884,4.139,1.706,6.881,2.415
	c2.745,0.705,5.896,1.307,9.349,1.888c3.46,0.546,7.239,0.987,11.241,1.405c4.007,0.397,8.249,0.677,12.637,0.966
	c4.39,0.284,8.94,0.379,13.559,0.549c4.621,0.141,9.32,0.184,14.018,0.149c4.698,0.025,9.397-0.032,14.019-0.188
	c4.619-0.176,9.17-0.293,13.562-0.58c4.39-0.295,8.634-0.568,12.644-0.965c4.004-0.419,7.787-0.855,11.252-1.392
	c3.457-0.563,6.617-1.138,9.371-1.817c2.752-0.682,5.088-1.488,6.899-2.356c1.808-0.875,3.114-1.766,3.847-2.547
	c0.178-0.2,0.336-0.377,0.473-0.528c0.108-0.171,0.201-0.313,0.274-0.43c0.15-0.235,0.229-0.355,0.229-0.355l0.306,0.123
	c0,0-0.067,0.136-0.202,0.398c-0.068,0.13-0.152,0.294-0.254,0.486c-0.128,0.176-0.277,0.377-0.445,0.605
	c-0.701,0.894-1.967,1.996-3.789,3.021c-3.633,2.087-9.348,3.902-16.308,5.347c-13.942,2.91-32.919,4.406-51.871,4.482
	C66.641,15.7,47.656,14.24,33.721,11.282C26.764,9.804,21.073,7.906,17.456,5.8c-1.815-1.039-3.072-2.132-3.805-3.004
	c-0.39-0.43-0.61-0.793-0.755-1.038c-0.151-0.244-0.229-0.37-0.229-0.37L12.947,1.213z" class="color c1"/>
  <path fill="#A3DBE8" d="M0.31,5.729c0,0,0.073,0.157,0.215,0.465c0.072,0.153,0.161,0.345,0.266,0.569
	c0.136,0.192,0.295,0.415,0.474,0.668c0.74,1,2.191,2.195,4.271,3.309c2.081,1.119,4.823,2.111,8.053,2.945
	c3.233,0.834,6.951,1.525,11.026,2.17c4.083,0.617,8.542,1.093,13.267,1.523c4.728,0.412,9.731,0.686,14.909,0.951
	c5.178,0.262,10.542,0.317,15.989,0.432c5.448,0.086,10.987,0.063,16.523-0.049c5.538-0.055,11.075-0.203,16.521-0.455
	c5.442-0.271,10.805-0.494,15.979-0.891c5.172-0.402,10.174-0.791,14.898-1.304c4.722-0.526,9.18-1.08,13.27-1.729
	c4.082-0.676,7.814-1.357,11.078-2.133c3.264-0.777,6.055-1.652,8.264-2.571c2.203-0.926,3.854-1.835,4.857-2.623
	c0.248-0.198,0.479-0.367,0.662-0.526c0.17-0.173,0.313-0.317,0.43-0.435c0.233-0.237,0.354-0.358,0.354-0.358l0.267,0.193
	c0,0-0.112,0.137-0.335,0.399c-0.111,0.131-0.249,0.295-0.412,0.488c-0.178,0.182-0.398,0.372-0.641,0.6
	c-0.98,0.887-2.587,1.996-4.794,3.061c-4.41,2.161-11.138,4.19-19.339,5.854c-16.413,3.34-38.707,5.346-61.007,5.729
	c-22.296,0.307-44.665-0.99-61.119-4.201c-8.201-1.617-14.964-3.713-19.164-6.313c-2.105-1.276-3.507-2.681-4.223-3.816
	C0.678,7.392,0.527,7.134,0.398,6.91C0.31,6.678,0.236,6.48,0.178,6.323C0.06,6.005,0,5.843,0,5.843L0.31,5.729z" class="color c1"/>
</svg>