<svg version="1.1" id="图层_1" x="0px" y="0px" width="60.656px" height="130px" viewBox="0 0 60.656 130" enable-background="new 0 0 60.656 130" xml:space="preserve" xmlns="http://www.w3.org/2000/svg" xmlns:xlink="http://www.w3.org/1999/xlink" xmlns:xml="http://www.w3.org/XML/1998/namespace">
  <path fill="#F08F4B" d="M24.439,67.693v59.313c0,1.653-1.34,2.993-2.994,2.993c-1.652,0-2.992-1.34-2.992-2.993V67.69
	c0-1.654,1.34-2.992,2.992-2.992C23.1,64.698,24.439,66.038,24.439,67.693z M9.329,19.505C9.638,13.828,14.341,9.3,20.094,9.3h1.01
	c3.177,0,6.163,1.237,8.41,3.482c2.246,2.248,3.484,5.238,3.484,8.413v21.493c0,6.093-2.614,11.854-6.652,15.893
	c-0.746,0.747-1.547,1.424-2.381,2.046c10.117-0.034,18.336-8.273,18.336-18.396V19.317C42.299,8.666,33.632,0,22.982,0h-1.847
	C11.664,0.006,3.663,5.171,3.668,11.285C3.668,14.492,5.873,17.426,9.329,19.505z M21.103,14.665h-1.011
	c-2.992,0-5.427,2.437-5.427,5.427v1.637c2.017,0.54,4.208,0.844,6.485,0.844c2.231,0,4.438-0.289,6.482-0.834v-0.54
	c0-1.747-0.68-3.385-1.91-4.619C24.487,15.345,22.847,14.665,21.103,14.665z M9.217,58.147c1.652,0.957,3.633,1.192,5.48,0.705
	c6.949-0.852,12.935-8.258,12.935-16.164V27.237c-2.085,0.447-4.247,0.701-6.483,0.701c-5.927,0-11.536-1.624-15.791-4.574
	c-2.311-1.604-4.086-3.499-5.283-5.58C0.035,18.29,0,18.801,0,19.317v22.914C0,49.029,3.714,54.968,9.217,58.147z M29.656,92.728
	v8.498l15.842-15.132c1.175-1.176,3.791-1.176,4.967,0c1.176,1.177,1.147,3.083-0.028,4.259l-15.19,15.135l8.38-0.004
	c9.517,0,17.03-7.743,17.03-17.261V76H48.363C38.846,76,29.656,83.21,29.656,92.728z" class="color c1"/>
</svg>