<svg version="1.1" id="图层_1" x="0px" y="0px" width="119.873px" height="186.133px" viewBox="0 0 119.873 186.133" enable-background="new 0 0 119.873 186.133" xml:space="preserve" xmlns="http://www.w3.org/2000/svg" xmlns:xlink="http://www.w3.org/1999/xlink" xmlns:xml="http://www.w3.org/XML/1998/namespace">
  <path fill="#FFFFFF" d="M71.449,34.781c-3.399-0.037-6.414,0.988-9.44,2.247c0.382-0.67,0.979-0.894,1.6-1.079
	c0.078-0.022,0.218,0.048,0.254,0.007c0.382-0.417,1.023-0.327,1.406-0.733c0.03-0.031,0.073-0.07,0.112-0.071
	c1.122-0.051,2.136-0.661,3.277-0.627c0.31,0.01,0.625-0.113,0.938-0.171C70.217,34.239,70.818,34.223,71.449,34.781z M80.812,71.62
	c-0.517,1.719-0.855,3.375-1.105,5.056c-0.132,0.878-0.477,1.723-0.686,2.592c-0.186,0.765-0.312,1.544-0.474,2.314
	c-0.067,0.327-0.163,0.647-0.24,0.972c-0.148,0.608-0.286,1.219-0.441,1.824c-0.306,1.185-0.564,2.382-0.979,3.539
	c-0.309,0.858-0.492,1.762-0.789,2.626c-0.31,0.903-0.688,1.781-1.041,2.669c-0.106,0.271-0.228,0.536-0.34,0.798
	c0.601,0.518,0.351,1.16,0.226,1.732c-0.287,1.328-0.642,2.641-0.984,3.957c-0.174,0.672-0.382,1.337-0.573,2.006
	c-0.141,0.486-0.306,0.967-0.41,1.46c-0.278,1.319-0.512,2.646-0.798,3.964c-0.17,0.787-0.421,1.556-0.604,2.34
	c-0.191,0.811-0.314,1.638-0.522,2.444c-0.335,1.287-0.716,2.563-1.078,3.844c-0.132,0.471-0.193,0.98-0.424,1.395
	c-0.279,0.496-0.342,1.04-0.534,1.549c-0.197,0.523-0.354,1.066-0.609,1.561c-0.569,1.099-0.816,2.305-1.239,3.451
	c-0.335,0.906-0.755,1.781-1.097,2.687c-0.517,1.362-0.996,2.737-1.491,4.106c-0.017,0.043-0.012,0.109-0.04,0.127
	c-0.509,0.334-0.313,0.938-0.538,1.379c-0.416,0.82-0.804,1.656-1.238,2.465c-0.581,1.082-1.202,2.143-1.799,3.219
	c-0.218,0.395-0.407,0.805-0.626,1.199c-0.172,0.313-0.422,0.518-0.863,0.438c0.211,1.225,0.434,2.422,0.618,3.621
	c0.188,1.223,0.26,2.471,0.528,3.678c0.343,1.527,0.267,3.076,0.408,4.613c0.072,0.805-0.061,1.643,0.108,2.422
	c0.133,0.604,0.067,1.156,0.045,1.736c-0.023,0.607,0.012,1.215,0.018,1.824c0.018,2.238,0.04,4.479,0.05,6.721
	c0.004,0.605-0.031,1.211-0.042,1.818c-0.001,0.088,0.022,0.18,0.049,0.266c0.253,0.803,0.126,1.648,0.27,2.461
	c0.018,0.102,0.069,0.193,0.1,0.291c0.061,0.191,0.179,0.389,0.163,0.576c-0.051,0.643,0.167,1.236,0.273,1.852
	c0.051,0.285,0.049,0.582,0.064,0.873c0.013,0.225-0.002,0.451,0.032,0.672c0.337,2.146,0.7,4.287,1.015,6.434
	c0.119,0.824,0.129,1.666,0.19,2.498c0.042,0.561,0.086,1.119,0.13,1.695c-0.236,0.111-0.43,0.203-0.672,0.318
	c0.496,0.506,0.708,1.063,0.541,1.873c-0.309-0.35-0.558-0.564-0.723-0.83c-0.546-0.881-1.365-1.5-2.067-2.227
	c-0.116-0.123-0.372-0.107-0.703-0.189c0.506,0.768,0.802,1.449,0.891,2.146c0.508,0.221,0.965,0.383,1.284,0.807
	c0.103,0.137,0.348,0.158,0.516,0.252c0.27,0.15,0.688,0.137,0.7,0.6c-1.196-0.18-2.312-0.527-3.031-1.563
	c-0.373-0.537-0.646-1.148-0.971-1.721c-0.22-0.389-0.156-0.451,0.35-0.807c-0.089-0.703-0.216-1.387-0.254-2.078
	c-0.08-1.473-0.419-2.922-0.404-4.398c0.013-1.213-0.225-2.404-0.253-3.611c-0.021-0.943-0.052-1.887-0.095-2.83
	c-0.011-0.199-0.09-0.395-0.142-0.588c-0.034-0.131-0.105-0.26-0.109-0.391c-0.031-0.953-0.03-1.906-0.076-2.859
	c-0.038-0.73-0.193-1.459-0.187-2.189c0.009-1.521-0.21-3.027-0.169-4.559c0.027-1.129,0.305-2.273-0.015-3.412
	c-0.062-0.221,0.056-0.488,0.069-0.736c0.017-0.307,0.088-0.596-0.025-0.932c-0.112-0.332-0.085-0.748-0.007-1.104
	c0.114-0.527-0.069-1.021-0.063-1.533c0.007-0.709,0.106-1.43,0.007-2.121c-0.107-0.746,0.198-1.488-0.09-2.23
	c-0.103-0.262,0.041-0.609,0.021-0.912c-0.031-0.471-0.135-0.936-0.156-1.406c-0.015-0.328,0.112-0.666,0.083-0.99
	c-0.088-0.996-0.217-1.99-0.338-2.984c-0.088-0.725-0.21-1.445-0.271-2.17c-0.018-0.211-0.052-0.371-0.16-0.555
	c-0.105-0.178-0.166-0.424-0.143-0.631c0.074-0.639-0.079-1.225-0.322-1.801c-0.018-0.041-0.056-0.092-0.045-0.123
	c0.292-0.834-0.293-1.574-0.243-2.391c0.035-0.6,0.007-1.211-0.066-1.809c-0.095-0.762-0.281-1.514-0.396-2.273
	c-0.127-0.834-0.218-1.671-0.327-2.508c-0.075-0.584-0.165-1.165-0.531-1.655c-0.434-0.58-0.532-1.292-0.767-1.948
	c-0.268-0.754-0.437-1.543-0.708-2.303c-0.297-0.83-0.464-1.706-0.69-2.562c-0.223-0.847-0.479-1.683-0.665-2.534
	c-0.291-1.316-0.839-2.538-1.313-3.789c-0.222-0.59-0.339-1.218-0.526-1.82c-0.116-0.376-0.246-0.754-0.418-1.107
	c-0.453-0.928-0.831-1.881-1.11-2.874c-0.042-0.147-0.117-0.284-0.169-0.429c-0.104-0.292-0.195-0.588-0.3-0.88
	c-0.059-0.163-0.111-0.335-0.206-0.478c-0.286-0.419-0.482-0.859-0.443-1.38c0.007-0.085,0.02-0.187-0.016-0.255
	c-0.498-0.917-0.715-1.938-1.071-2.908c-0.138-0.373-0.315-0.734-0.419-1.117c-0.198-0.733-0.356-1.478-0.529-2.219
	c-0.115-0.493-0.226-0.987-0.34-1.482c-0.03-0.131-0.088-0.261-0.088-0.392c0-0.635-0.188-1.21-0.512-1.75
	c-0.055-0.091-0.045-0.22-0.068-0.33c-0.218-1.017-0.42-2.037-0.662-3.048c-0.208-0.864-0.532-1.705-0.677-2.575
	c-0.13-0.766-0.583-1.456-0.458-2.285c0.046-0.306-0.091-0.673-0.238-0.966c-0.257-0.51-0.257-1.04-0.271-1.582
	c-0.003-0.151-0.05-0.308-0.105-0.45c-0.157-0.412-0.164-0.408,0.4-0.642c0.008,0.137,0.027,0.257,0.019,0.375
	c-0.032,0.443,0.162,0.826,0.304,1.226c0.064,0.185,0.117,0.375,0.172,0.565c0.247,0.897,0.517,1.789,0.732,2.695
	c0.246,1.037,0.422,2.092,0.673,3.129c0.25,1.024,0.554,2.035,0.847,3.049c0.015,0.051,0.147,0.065,0.223,0.099
	c0-0.001-0.001-0.002-0.001-0.003c-0.221-1.089-0.443-2.176-0.664-3.264c-0.014-0.065,0.006-0.144-0.024-0.199
	c-0.512-0.93-0.432-2.003-0.721-2.989c-0.239-0.813-0.41-1.648-0.564-2.483c-0.12-0.643-0.13-1.293,0.064-1.935
	c0.103-0.335,0.174-0.667,0.079-1.039c-0.089-0.34-0.039-0.707,0.153-1.038c0.093-0.162,0.172-0.367,0.162-0.548
	c-0.058-1.078,0.607-1.747,1.305-2.411c0.15-0.144,0.246-0.344,0.368-0.518c0.253-0.363,0.514-0.72,0.756-1.089
	c0.241-0.371,0.442-0.753,0.455-1.224c0.005-0.181,0.117-0.406,0.254-0.529c0.592-0.52,0.691-1.29,1.078-1.957h0.547
	c0,0.097,0.025,0.179-0.004,0.226c-0.383,0.629-0.797,1.242-1.154,1.884c-0.132,0.238-0.125,0.549-0.21,0.819
	c-0.177,0.564-0.504,1.037-0.891,1.483c-0.265,0.307-0.464,0.671-0.74,1.081c1.061-0.121,1.703-0.773,2.416-1.26
	c0.66-0.452,1.248-1.013,1.842-1.554c0.223-0.203,0.383-0.478,0.542-0.74c0.193-0.315,0.323-0.672,0.538-0.972
	c0.381-0.532,0.681-1.069,0.593-1.761c-0.02-0.159,0.104-0.339,0.177-0.504c0.304-0.68,0.694-1.316,0.914-2.042
	c0.086-0.275,0.353-0.512,0.581-0.72c0.089-0.081,0.297-0.032,0.568-0.048c-0.225,0.414-0.385,0.702-0.538,0.993
	c-0.339,0.645-0.678,1.292-1.012,1.939c-0.051,0.093-0.137,0.225-0.105,0.297c0.26,0.614-0.177,1.085-0.347,1.589
	c-0.185,0.542-0.528,1.031-0.861,1.652c0.187-0.069,0.291-0.082,0.359-0.138c0.324-0.267,0.478-0.706,0.934-0.85
	c0.109-0.035,0.127-0.311,0.214-0.461c0.264-0.458,0.528-0.917,0.814-1.362c0.443-0.687,0.654-1.464,0.914-2.223
	c0.122-0.357,0.324-0.687,0.435-1.046c0.215-0.703,0.386-1.421,0.585-2.131c0.067-0.233,0.165-0.458,0.244-0.674
	c0.63,0.073,0.678,0.098,0.511,0.58c-0.568,1.644-0.818,3.392-1.704,5.01c1.066-0.555,1.52-1.513,2.099-2.365
	c0.22-0.323,0.478-0.619,0.707-0.934c0.047-0.063,0.054-0.156,0.069-0.236c0.008-0.042-0.025-0.11-0.005-0.13
	c0.649-0.638,0.57-1.576,0.959-2.323c0.128-0.245,0.158-0.546,0.207-0.825c0.092-0.526,0.384-1.011,0.256-1.587
	c-0.043-0.19,0.13-0.423,0.183-0.64c0.08-0.315,0.284-0.437,0.652-0.423c-0.096,0.314-0.246,0.616-0.266,0.925
	c-0.023,0.371-0.351,0.691-0.112,1.118c0.11,0.196-0.045,0.474-0.219,0.537c0.01,0.271,0.111,0.586,0.007,0.684
	c-0.282,0.262-0.205,0.533-0.177,0.997c0.405-0.486,0.688-0.885,0.926-1.313c0.337-0.608,0.684-1.215,0.957-1.852
	c0.164-0.379,0.189-0.817,0.286-1.228c0.081-0.349,0.176-0.694,0.263-1.042c0.139-0.552,0.271-1.107,0.417-1.658
	c0.093-0.347,0.176-0.7,0.318-1.026c0.239-0.552,0.353-1.139,0.468-1.717c0.392-1.955,0.516-3.942,0.627-5.928
	c0.032-0.581-0.072-1.182-0.195-1.756c-0.224-1.047-0.286-2.106-0.371-3.168c-0.03-0.379-0.264-0.745-0.02-1.127
	c-0.306-0.222-0.227-0.586-0.338-0.876c-0.519-1.351-1.114-2.673-1.672-4.011c-0.088-0.211-0.084-0.464-0.183-0.667
	c-0.114-0.233-0.287-0.443-0.453-0.646c-0.767-0.934-1.151-2.081-1.771-3.095c-0.607-0.992-1.326-1.9-2.503-2.314
	c-0.354,1.479-0.34,2.91,0.157,4.215c-0.076,0.358-0.185,0.622-0.182,0.884c0.022,1.557,0.078,3.112,0.104,4.667
	c0.005,0.288-0.057,0.58-0.117,0.864c-0.118,0.55-0.227,1.108-0.396,1.644c-0.251,0.791-0.527,1.574-0.839,2.342
	c-0.338,0.836-0.724,1.651-1.095,2.471c-0.236,0.521-0.349,1.053-0.371,1.636c-0.04,0.941-0.183,1.876-0.276,2.761
	c-0.423,0.384-0.901,0.677-1.171,1.103c-0.387,0.606-0.944,0.889-1.563,1.055c-0.461,0.123-0.969,0.074-1.575,0.107
	c-0.393,0.806-0.83,1.712-1.272,2.615c-0.324,0.662-0.631,1.334-0.985,1.98c-0.443,0.808-0.872,1.631-1.405,2.379
	c-0.585,0.824-1.141,1.671-1.929,2.35c-0.446,0.385-0.765,0.937-1.081,1.451c-0.494,0.8-0.987,1.609-1.385,2.46
	c-0.272,0.579-0.648,1.118-0.725,1.8c-0.049,0.425-0.319,0.827-0.485,1.241c-0.06,0.146-0.1,0.3-0.159,0.447
	c-0.182,0.438-0.076,0.74,0.353,0.994c0.445,0.262,0.742,0.701,1.092,1.082c0.761,0.832,1.315,1.811,2.027,2.675
	c0.412,0.499,0.654,1.078,0.762,1.716c0.042,0.254,0,0.403-0.274,0.522c-0.53,0.227-0.905,0.671-1.382,0.978
	c0.493,0.588,0.989,0.828,1.701,0.508c-0.031-0.545,0.036-1.125,0.541-1.697c0.017,0.211,0.04,0.304,0.028,0.391
	c-0.03,0.219-0.093,0.433-0.112,0.653c-0.068,0.779-0.415,1.089-1.209,1.044c-0.292-0.016-0.605,0.001-0.868-0.103
	c-0.672-0.266-1.311-0.12-1.972,0.016c-0.56,0.112-1.133-0.039-1.716,0.121c-0.771,0.213-1.584,0.277-2.38,0.4
	c-0.2,0.031-0.416,0.096-0.603,0.054c-1.056-0.244-2.169,0.018-3.203-0.385c-0.668,0.282-1.288-0.151-1.947-0.143
	c-0.552,0.006-1.143-0.108-1.646-0.33c-0.51-0.223-1.003-0.147-1.508-0.196c-0.515-0.048-1.025-0.163-1.534-0.271
	c-0.657-0.141-1.321-0.198-1.99-0.24c-0.153-0.009-0.313-0.041-0.456-0.098c-0.83-0.335-1.683-0.633-2.475-1.044
	c-0.457-0.238-0.87-0.621-1.205-1.02c-0.43-0.513-0.771-1.102-1.127-1.673c-0.083-0.134-0.075-0.326-0.138-0.642
	c0.293,0.175,0.499,0.236,0.613,0.375c0.592,0.721,1.161,1.458,1.74,2.188c0.065,0.082,0.154,0.216,0.224,0.211
	c0.57-0.04,0.952,0.361,1.415,0.571c0.224,0.101,0.464,0.168,0.701,0.235c0.591,0.169,1.147,0.432,1.769,0.536
	c0.333,0.057,0.618-0.055,0.917-0.032c0.824,0.068,1.652,0.156,2.466,0.312c0.582,0.112,1.127,0.409,1.749,0.356
	c0.125-0.01,0.254,0.094,0.385,0.11c0.646,0.079,1.292,0.147,1.94,0.209c0.107,0.011,0.237-0.073,0.328-0.04
	c1.016,0.365,2.076-0.064,3.104,0.2c0.414,0.106,0.887-0.009,1.332-0.032c0.156-0.008,0.312-0.067,0.467-0.064
	c0.736,0.013,1.437-0.19,2.15-0.314c0.21-0.036,0.437,0.029,0.65,0.005c0.777-0.083,1.463-0.357,2.01-0.948
	c0.26-0.278,0.57-0.507,0.921-0.813c-0.265-0.471-0.495-0.98-0.811-1.431c-0.628-0.896-1.302-1.759-1.959-2.635
	c-0.078-0.104-0.164-0.209-0.267-0.288c-1.329-1.007-2.678-1.989-4.141-2.798c-0.553-0.306-1.127-0.54-1.777-0.571
	c-0.286-0.012-0.572-0.113-0.853-0.199c-0.468-0.141-0.932-0.306-1.399-0.453c-1.055-0.331-2.114-0.65-3.167-0.985
	c-0.215-0.068-0.442-0.148-0.61-0.288c-0.922-0.768-2.086-0.935-3.161-1.326c-1.095-0.399-2.158-0.887-3.257-1.28
	c-0.436-0.157-0.927-0.169-1.393-0.237c-0.511-0.076-1.021-0.163-1.534-0.202c-0.275-0.021-0.559,0.044-0.936,0.079
	c0.204-0.295,0.467-0.334,0.698-0.397c0.232-0.061,0.478-0.077,0.806-0.125c-0.702-1.463-0.686-2.976-0.742-4.475
	c-0.62-0.42-1.409-0.655-1.682-1.525c-0.095-0.036-0.262-0.065-0.382-0.156c-0.59-0.452-1.135-0.972-1.759-1.368
	c-0.545-0.345-1.039-0.805-1.718-0.935c-0.208-0.041-0.432-0.172-0.577-0.33c-0.281-0.302-0.589-0.379-0.97-0.279
	c0.003,0.004,0.007,0.008,0.011,0.012c-0.022-0.007-0.046-0.022-0.063-0.017c-0.705,0.191-1.409,0.382-2.111,0.57
	c0.209,0.375,0.03,0.768,0.044,1.153c0.007,0.221-0.06,0.445-0.093,0.67c-0.077,0.544-0.113,1.063,0.23,1.568
	c0.18,0.263,0.152,0.664,0.317,0.944c0.325,0.55,0.322,1.203,0.617,1.748c0.304,0.563,0.921,0.646,1.437,0.628
	c0.984-0.032,1.916,0.14,2.835,0.434c0.253,0.081,0.49,0.221,0.723,0.354c0.245,0.141,0.487,0.294,0.716,0.461
	c0.54,0.398,1.072,0.805,1.605,1.21c0.054,0.042,0.111,0.089,0.14,0.146c0.45,0.886,1.345,1.389,1.891,2.19
	c0.051,0.073,0.111,0.153,0.186,0.197c0.733,0.436,1.472,0.863,2.208,1.295c0.203,0.12,0.469,0.186,0.475,0.549
	c-0.464,0.036-0.861-0.131-1.215-0.333c-0.64-0.364-1.263-0.765-1.851-1.208c-0.408-0.306-0.784-0.673-1.106-1.07
	c-1.096-1.35-2.418-2.424-3.962-3.198c-0.552-0.276-1.201-0.35-1.802-0.527c-0.713-0.211-1.466-0.125-2.172-0.26
	c-1.46-0.277-2.881-0.741-4.333-1.064c-1.021-0.228-1.68-0.909-2.338-1.627c-0.213-0.233-0.421-0.474-0.656-0.685
	c-0.669-0.592-1.215-1.265-1.489-2.133c-0.023-0.076-0.107-0.133-0.206-0.25c-0.076,0.318-0.139,0.578-0.205,0.862
	c0.419,0.364,0.588,0.846,0.665,1.37c0.015,0.09,0.014,0.193,0.061,0.263c0.435,0.66,0.424,1.477,0.772,2.169
	c0.351,0.698,0.682,1.408,0.983,2.129c0.173,0.411,0.289,0.848,0.39,1.283c0.103,0.432,0.156,0.876,0.224,1.315
	c0.012,0.082,0.017,0.186-0.023,0.248c-0.173,0.277-0.105,0.528,0.079,0.747c0.23,0.272,0.23,0.628,0.371,0.937
	c0.426,0.93,1.157,1.64,1.66,2.51c0.269,0.466,0.71,0.831,1.001,1.286C7.116,72.55,7.496,73,7.937,73.413
	c0.885,0.832,1.715,1.729,2.651,2.498c0.343,0.282,0.706,0.737,1.284,0.631c0.413,0.52,1.095,0.295,1.594,0.578
	c0.078,0.043,0.165,0.12,0.239,0.113c0.945-0.104,1.829,0.405,2.802,0.22c0.635-0.121,1.313-0.013,1.973-0.006
	c0.042,0.001,0.1,0.006,0.127,0.033c0.365,0.348,0.845,0.441,1.404,0.54c-0.886,0.442-1.271,0.407-2.08-0.133
	c-0.477,0.205-0.951,0.412-1.478,0.146c-0.067-0.033-0.166-0.023-0.248-0.013c-0.861,0.125-1.699,0.042-2.542-0.188
	c-0.958-0.263-1.968-0.405-2.798-0.972c-0.813-0.554-1.576-1.191-2.306-1.854c-0.559-0.507-1.072-1.078-1.529-1.68
	c-0.675-0.886-1.393-1.737-2.014-2.672c-0.375-0.566-0.932-1.035-1.229-1.669c-0.312-0.664-0.662-1.301-0.746-2.076
	c-0.099-0.92-0.298-1.85-0.599-2.724c-0.225-0.647-0.491-1.283-0.71-1.936c-0.254-0.756-0.484-1.524-0.765-2.272
	c-0.193-0.517-0.46-1.008-0.686-1.513C0.1,58.049-0.062,57.624,0.023,57.16c0.03-0.172,0.067-0.428,0.184-0.487
	c0.521-0.26,0.635-0.816,1.012-1.217c-0.115-0.059-0.191-0.098-0.301-0.154c0.13-0.978,0.467-1.901,0.8-2.846
	c0.431-1.221,1.207-2.356,1.136-3.739c-0.011-0.202,0.096-0.416,0.174-0.615c0.233-0.59,0.018-1.176-0.002-1.764
	c-0.021-0.619-0.014-1.242,0.049-1.855c0.027-0.258,0.211-0.508,0.352-0.745c0.455-0.76,0.939-1.503,1.574-2.126
	c0.336-0.33,0.728-0.605,1.057-0.941c0.322-0.328,0.68-0.661,0.877-1.064c0.412-0.839,1.122-1.41,1.7-2.099
	c0.185-0.219,0.283-0.51,0.438-0.755c0.204-0.318,0.363-0.646,0.68-0.907c0.349-0.287,0.556-0.74,0.85-1.101
	c0.32-0.391,0.639-0.792,1.014-1.128c0.579-0.516,1.271-0.871,1.99-1.152c0.209-0.081,0.478-0.012,0.74-0.012
	c0.179-0.389,0.403-0.783,0.541-1.207c0.095-0.29,0.282-0.434,0.505-0.599c0.821-0.611,1.772-0.882,2.749-1.117
	c0.739-0.177,1.474-0.387,2.181-0.662c0.509-0.198,0.937-0.652,1.452-0.771c0.745-0.172,1.255-0.756,1.979-0.937
	c0.221-0.054,0.397-0.289,0.593-0.44c0.283-0.219,0.548-0.469,0.853-0.649c0.684-0.409,1.432-0.726,2.072-1.19
	c0.47-0.343,0.976-0.522,1.499-0.703c0.167-0.058,0.349-0.063,0.517-0.115c0.271-0.083,0.537-0.18,0.803-0.279
	c0.104-0.039,0.194-0.122,0.301-0.147c0.386-0.089,0.774-0.186,1.166-0.236c1.105-0.139,2.21-0.33,3.333-0.152
	c2.036,0.324,4.084,0.205,6.129,0.121c0.427-0.018,0.856-0.043,1.28-0.094c1.11-0.133,2.134,0.199,3.144,0.58
	c0.882,0.331,1.761,0.671,2.622,1.05c0.656,0.286,1.303,0.602,1.917,0.967c0.712,0.422,1.388,0.904,2.071,1.374
	c0.752,0.513,1.311,1.218,1.869,1.921c0.127,0.159,0.252,0.317,0.395,0.459c0.166,0.167,0.366,0.288,0.604,0.15
	c0.327-0.19,0.599-0.031,0.896,0.086c0.653,0.262,1.169,0.714,1.685,1.168c0.08,0.07,0.136,0.168,0.194,0.26
	c0.507,0.793,1.074,1.54,1.474,2.408c0.344,0.747,0.86,1.412,1.284,2.124c0.981,1.648,1.798,3.367,2.18,5.266
	c0.032,0.152,0.089,0.303,0.147,0.449c0.031,0.079,0.086,0.148,0.161,0.27c1.001-0.352,1.989-0.698,2.976-1.046
	c0.211-0.073,0.418-0.187,0.633-0.212c0.588-0.071,0.952-0.47,1.352-0.831c0.115-0.104,0.244-0.221,0.386-0.258
	c0.563-0.151,1.074-0.353,1.587-0.668c0.714-0.44,1.547-0.693,2.339-1.004c0.422-0.167,0.791-0.512,1.297-0.431
	c0.403-0.646,1.128-0.407,1.682-0.628c0.635-0.252,1.273-0.284,1.927-0.328c0.059-0.004,0.112-0.064,0.165-0.099
	c-0.017-0.051-0.02-0.116-0.044-0.125c-0.777-0.276-1.554-0.553-2.335-0.818c-0.426-0.145-0.865-0.255-1.293-0.401
	c-1.104-0.379-2.206-0.764-3.306-1.157c-0.147-0.052-0.277-0.15-0.415-0.229c-0.324-0.187-0.602-0.352-1.053-0.258
	c-0.46,0.098-0.981-0.07-1.471-0.149c-1.217-0.191-2.4-0.165-3.604,0.201c-0.733,0.223-1.438,0.509-2.163,0.731
	c-0.526,0.162-0.816,0.621-1.312,0.769c-0.057,0.018-0.111,0.038-0.179,0.062c0.138-0.661,0.581-1.102,1.13-1.285
	c0.558-0.186,1.074-0.498,1.634-0.67c0.672-0.207,1.374-0.327,2.062-0.483c0.088-0.02,0.188-0.009,0.265-0.047
	c0.435-0.208,0.822-0.156,1.289,0.004c0.556,0.19,1.186,0.163,1.803,0.182c-0.345-0.205-0.471-0.764-1.055-0.577
	c-0.09,0.028-0.255-0.213-0.396-0.309c-0.477-0.319-0.984-0.576-1.278-1.127c-0.134-0.249-0.445-0.42-0.703-0.585
	c-0.853-0.547-1.36-1.388-1.922-2.188c-0.762-1.084-1.089-2.358-1.533-3.575c-0.219-0.603-0.235-1.281-0.339-1.925
	c-0.113-0.708-0.25-1.413-0.321-2.126c-0.064-0.653-0.278-1.31,0.018-1.973c0.093-0.209,0.105-0.481,0.075-0.715
	c-0.121-0.945,0.01-1.869,0.158-2.795c0.007-0.044,0.044-0.094,0.031-0.129c-0.229-0.658,0.209-1.203,0.313-1.805
	c0.081-0.468,0.266-0.92,0.432-1.369c0.074-0.202,0.219-0.375,0.317-0.569c0.279-0.547,0.701-1.011,0.849-1.636
	c0.062-0.271,0.247-0.521,0.406-0.76c0.172-0.255,0.429-0.462,0.562-0.733c0.307-0.627,0.716-1.154,1.347-1.593V6.61
	c0.143,0.028,0.287,0.059,0.419,0.085c0.043-0.058,0.088-0.09,0.091-0.125c0.071-0.756,0.417-1.373,0.863-1.981
	c0.438-0.596,0.904-1.177,1.585-1.429c0.562-0.209,1.119-0.455,1.668-0.684c0.619-0.259,1.294-0.418,1.853-0.854
	c0.321-0.252,0.775-0.289,1.124-0.587c0.354-0.3,0.819-0.476,1.25-0.677c0.642-0.299,1.297-0.558,1.992-0.134
	c1.048-0.02,1.425,0.843,1.902,1.519c0.204,0.293,0.378,0.41,0.7,0.358c0.583-0.096,1.151-0.064,1.713,0.146
	c0.15,0.057,0.349-0.03,0.52-0.008c1.038,0.135,2.114-0.05,3.176,0.401c0.204,0.483,0.616,0.96,0.365,1.649
	c0.283,0.054,0.58,0.213,0.781,0.13c0.591-0.241,1.212-0.477,1.621-1.091c-0.614-0.634-1.326-1.129-2.154-1.462
	c-0.038-0.016-0.113,0.022-0.131,0c-0.485-0.557-1.147-0.252-1.724-0.36c-0.473-0.089-0.939-0.063-1.419-0.307
	c-0.568-0.288-1.264-0.332-1.906-0.461c-0.337-0.068-0.55,0.112-0.692,0.41c-0.09,0.192-0.208,0.375-0.487,0.126
	c0.183-0.306,0.349-0.638,0.572-0.927c0.074-0.097,0.292-0.131,0.438-0.118c0.534,0.047,1.069,0.108,1.598,0.198
	c0.822,0.139,1.634,0.386,2.459,0.435c0.646,0.037,1.25,0.239,1.797,0.469c0.809,0.337,1.708,0.656,2.108,1.586
	c0.173-0.062,0.32-0.078,0.422-0.156c0.696-0.541,1.333-0.249,1.986,0.101C90.393,3.21,91.045,3.542,91.636,4
	c0.234,0.183,0.595,0.194,0.886,0.315c1.481,0.614,2.74,1.498,3.674,2.843c0.737,1.063,1.317,2.186,1.696,3.418
	c0.065,0.215,0.147,0.43,0.454,0.418c0.092-0.003,0.226,0.081,0.271,0.164c0.236,0.415,0.524,0.822,0.654,1.271
	c0.229,0.792,0.394,1.607,0.511,2.422c0.066,0.462,0.004,0.948-0.036,1.42c-0.063,0.753-0.129,1.507-0.243,2.254
	c-0.141,0.928-0.271,1.854-0.316,2.798c-0.031,0.685-0.273,1.358-0.376,2.044c-0.335,2.243-1.654,4-2.865,5.804
	c-0.598,0.891-1.182,1.804-1.989,2.539c-1.219,1.107-2.559,1.951-4.191,2.355c-1.121,0.277-2.264,0.534-3.268,1.21
	c-0.49,0.33-1.138,0.424-1.714,0.623c-1.065,0.364-2.159,0.421-3.267,0.3c-0.624-0.068-1.08,0.053-1.296,0.754
	c-0.138,0.457-0.435,0.866-0.679,1.287c-0.17,0.295-0.199,0.591-0.042,0.889c0.39,0.737,0.351,1.569,0.532,2.351
	c0.045,0.198,0.08,0.396,0.12,0.593c0.239,1.197,0.489,2.391,0.713,3.589c0.038,0.211-0.074,0.448-0.049,0.666
	c0.078,0.682,0.203,1.36,0.277,2.043c0.046,0.416,0.034,0.837,0.043,1.257c0.001,0.04-0.053,0.09-0.041,0.118
	c0.479,1.05,0.029,2.183,0.295,3.263c0.124,0.502-0.009,1.065,0.02,1.598c0.027,0.526,0.137,1.048,0.168,1.577
	c0.055,0.92,0.077,1.841,0.114,2.763c0.027,0.712,0.083,1.425,0.079,2.137c-0.004,1.091-0.028,2.173-0.158,3.269
	c-0.105,0.893-0.398,1.782-0.229,2.737c0.11,0.625-0.121,1.313-0.2,1.972c-0.019,0.154-0.038,0.307-0.012,0.473
	c0.001-0.002,0.003-0.004,0.005-0.005c-0.021,0.138-0.048,0.273-0.052,0.415c-0.001,0.034-0.007,0.066-0.008,0.099
	C81.013,70.569,80.896,71.092,80.812,71.62z M6.903,61.319c-0.192-0.213-0.452-0.396-0.566-0.645
	c-0.306-0.653-0.791-1.141-1.291-1.63c-0.48-0.473-0.899-0.989-1.09-1.663c-0.103-0.363-0.271-0.707-0.414-1.057
	c-0.083-0.205-0.198-0.402-0.252-0.613c-0.088-0.357-0.064-0.761-0.22-1.081c-0.354-0.726-0.155-1.495-0.263-2.236
	c-0.047-0.337-0.079-0.71,0.136-1.045c0.064-0.099,0.011-0.273,0.011-0.567c-0.152,0.204-0.221,0.264-0.25,0.341
	c-0.288,0.801-0.571,1.603-0.857,2.405c-0.086,0.247-0.199,0.488-0.266,0.74c-0.248,0.913,0.008,1.828,0.016,2.742
	c0.002,0.081,0.074,0.162,0.118,0.24c0.363,0.65,0.729,1.284,1.326,1.774c0.606,0.499,1.139,1.085,1.717,1.621
	c0.142,0.129,0.321,0.241,0.502,0.302c0.519,0.176,1.046,0.322,1.571,0.48C6.854,61.39,6.88,61.354,6.903,61.319z M7.944,60.21
	c-0.187-0.104-0.369-0.286-0.46-0.478c-0.194-0.414-0.557-0.734-0.602-1.238c-0.029-0.326-0.185-0.642-0.302-0.958
	c-0.21-0.571-0.457-1.129-0.646-1.707c-0.298-0.899-0.171-1.82-0.087-2.737c0.009-0.088,0.023-0.18,0.062-0.258
	c0.208-0.411,0.468-0.769,0.554-1.266c0.062-0.352,0.295-0.724,0.437-1.102c0.263-0.703,0.692-1.343,1.07-2.044
	c-0.025-0.101-0.129-0.281-0.097-0.433c0.086-0.399,0.235-0.786,0.349-1.181c0.104-0.364,0.183-0.734,0.295-1.094
	c0.148-0.477,0.297-0.954,0.49-1.412c0.091-0.217,0.288-0.389,0.511-0.676c-0.654-0.088-1.223-0.165-1.783-0.241
	c-0.046-0.149-0.084-0.269-0.121-0.389c0.622-0.383,1.2-0.087,1.755,0.003c0.58,0.096,1.136,0.335,1.682,0.504
	c0-0.16-0.036-0.295,0.006-0.4c0.216-0.556,0.585-1.057,0.554-1.692c-0.017-0.362-0.007-0.709-0.137-1.073
	c-0.153-0.431-0.146-0.918-0.21-1.381c0.372-0.197,0.146-0.524,0.175-0.795c0.014-0.131,0.017-0.263,0.022-0.352
	c0.802-0.583,1.584-1.103,2.153-1.886c0.162-0.226,0.485-0.412,0.764-0.459c0.792-0.14,1.584-0.03,2.362,0.169
	c0.205,0.052,0.429,0.061,0.642,0.057c0.655-0.013,1.31-0.069,1.964-0.054c0.365,0.009,0.728,0.127,1.267,0.229
	c-0.546-0.537-0.682-1.055-0.461-1.605c0.242-0.608,0.416-1.247,0.994-1.687c0.7-0.532,1.337-1.121,2.147-1.529
	c0.45-0.227,0.906-0.461,1.374-0.667c0.122-0.053,0.251-0.096,0.365-0.167c0.845-0.528,1.695-1.047,2.523-1.6
	c0.231-0.155,0.406-0.406,0.583-0.632c0.164-0.211,0.325-0.373,0.574-0.521c0.79-0.475,1.64-0.501,2.509-0.514
	c0.905-0.01,1.81-0.028,2.713-0.074c1.224-0.063,2.391-0.681,3.653-0.381c0.018,0.004,0.04-0.023,0.061-0.03
	c0.799-0.248,1.453,0.149,2.064,0.54c0.454,0.293,0.811,0.737,1.163,1.068c0.389-0.35,0.772-0.613,1.188-0.679
	c0.886-0.137,1.782-0.186,2.676-0.239c0.184-0.01,0.402,0.085,0.557,0.199c0.358,0.271,0.729,0.292,1.157,0.136
	c0.218,0.252,0.41,0.496,0.846,0.355c0.216-0.069,0.52,0.158,0.789,0.233c0.727,0.207,1.197,0.849,1.902,1.101
	c0.236,0.084,0.423,0.299,0.635,0.452c0.181,0.133,0.349,0.306,0.551,0.387c0.648,0.259,1.14,0.721,1.635,1.186
	c0.573,0.538,1.159,1.062,1.717,1.571c0.12-0.638,0.233-1.242,0.354-1.89c-0.396-0.028-0.713-0.063-0.933-0.4
	c-0.564-0.869-1.247-1.638-2.051-2.304c-0.451-0.373-0.817-0.882-1.316-1.158c-1.135-0.626-2.338-1.125-3.49-1.721
	c-0.65-0.336-1.436-0.377-1.992-0.921c-0.103-0.099-0.332-0.206-0.418-0.159c-0.295,0.169-0.488-0.009-0.725-0.109
	c-0.582-0.243-1.198-0.363-1.828-0.366c-0.558-0.002-1.082,0.223-1.641,0.284c-0.638,0.07-1.237,0.128-1.827-0.122
	c-0.105,0.101-0.196,0.185-0.263,0.248c-0.164-0.169-0.31-0.316-0.506-0.517c-0.119,0.243-0.198,0.401-0.282,0.575
	c-0.162-0.067-0.363-0.22-0.436-0.173c-0.404,0.264-0.735-0.006-1.094-0.086c-0.138-0.031-0.288-0.013-0.431-0.012
	c-0.668,0.006-1.356,0.159-1.876-0.229c-0.644,0.116-1.204,0.277-1.771,0.308c-0.935,0.047-0.962,0.095-1.516,0.262
	c-0.513,0.155-1.082,0.126-1.638,0.18c-0.01,0.072-0.025,0.174-0.041,0.295h-0.754c0.001,0.039,0.003,0.079,0.005,0.119
	c-0.186,0.191-0.345,0.423-0.563,0.564c-0.552,0.354-1.114,0.692-1.699,0.986c-1.111,0.561-1.967,1.533-3.196,1.911
	c-0.582,0.179-1.117,0.511-1.673,0.772c-0.102,0.047-0.212,0.08-0.309,0.137c-1.085,0.643-2.297,0.912-3.496,1.229
	c-0.404,0.108-0.827,0.216-1.178,0.427c-0.295,0.176-0.524,0.487-0.736,0.772c-0.354,0.471-0.627,0.95-0.487,1.615
	c0.07,0.337,0.182,0.672,0.222,1.019c0.027,0.236,0.06,0.473,0.089,0.71c-0.642-0.672-0.711-1.472-0.644-2.304
	c-0.303,0.057-0.622,0.04-0.812,0.365c-0.05,0.086-0.225,0.101-0.342,0.146c-0.388,0.155-0.888,0.209-1.132,0.488
	c-0.251,0.286-0.553,0.484-0.808,0.745c-0.132,0.136-0.211,0.323-0.328,0.474c-0.092,0.119-0.209,0.217-0.312,0.328
	c-0.069,0.074-0.143,0.146-0.197,0.229c-0.103,0.16-0.19,0.329-0.292,0.49c-0.168,0.263-0.381,0.504-0.507,0.785
	c-0.233,0.52-0.53,0.997-0.937,1.383c-0.314,0.297-0.532,0.639-0.726,1.013c-0.082,0.157-0.187,0.313-0.312,0.437
	c-0.471,0.462-0.842,1.033-1.464,1.334c-0.101,0.048-0.153,0.209-0.211,0.326c-0.053,0.107-0.048,0.259-0.124,0.338
	c-0.467,0.479-0.951,0.942-1.483,1.464c-0.102,0.204-0.256,0.491-0.393,0.786C3.709,44.5,3.403,45.141,3.56,45.913
	c0.115,0.569,0.155,1.16,0.168,1.741c0.011,0.472-0.079,0.944-0.109,1.416c-0.067,1.014-0.086,2.032-0.196,3.041
	c-0.077,0.698-0.093,1.387-0.004,2.075c0.135,1.04,0.355,2.042,0.956,2.955c0.327,0.5,0.577,1.051,0.991,1.497
	c0.273,0.294,0.625,0.558,0.784,0.907c0.362,0.786,1.046,1.321,1.469,2.049c0.03,0.049,0.107,0.081,0.169,0.099
	c0.341,0.104,0.679,0.217,1.026,0.291c0.104,0.023,0.229-0.067,0.342-0.105C8.976,61.119,8.594,60.574,7.944,60.21z M23.431,42.479
	c0.211-0.394,0.486-0.774,0.808-1.083c0.262-0.25,0.414-0.493,0.457-0.852c0.046-0.375,0.003-0.696-0.271-0.974
	c-0.092-0.094-0.164-0.218-0.214-0.341c-0.284-0.706-0.872-1.062-1.518-1.367c-0.201-0.095-0.384-0.235-0.552-0.38
	c-0.654-0.569-1.411-0.917-2.254-1.099c-0.355-0.075-0.706-0.174-1.061-0.258c-0.077-0.018-0.17-0.042-0.239-0.017
	c-0.752,0.28-1.505,0.325-2.281,0.094c-0.293-0.088-0.61-0.098-0.909-0.168c-0.277-0.063-0.547-0.16-0.9-0.266
	c-0.606,0.466-0.606,0.466-0.907,1.026c-0.032,0.059-0.059,0.15-0.108,0.168c-0.438,0.163-0.564,0.655-0.945,0.884
	c-0.477,0.285-0.618,0.771-0.624,1.282c-0.008,0.473-0.002,0.961,0.104,1.419c0.223,0.98-0.002,1.873-0.37,2.768
	c-0.309,0.749-0.636,1.499-0.844,2.278c-0.354,1.331-0.2,2.597,0.804,3.64c0.192,0.201,0.451,0.405,0.711,0.461
	c0.866,0.184,1.689,0.479,2.501,0.816c0.097,0.039,0.24-0.035,0.389-0.062c-0.042-0.264-0.129-0.49-0.1-0.701
	c0.03-0.224,0.197-0.425,0.256-0.649c0.053-0.208-0.037-0.5,0.075-0.636c0.189-0.224,0.25-0.396,0.227-0.696
	c-0.017-0.207,0.267-0.426,0.387-0.655c0.104-0.196,0.117-0.452,0.253-0.614c0.282-0.333,0.397-0.672,0.191-1.069
	c0.389-0.193,0.724-0.289,1.1-0.166c0.121,0.04,0.271,0.022,0.4-0.01c0.61-0.148,1.231-0.27,1.821-0.48
	c0.452-0.162,0.859-0.125,1.306-0.024c0.342,0.075,0.726,0.131,1.056,0.052c0.552-0.132,1.073-0.379,1.626-0.583
	c-0.109-0.2-0.23-0.413-0.343-0.634C23.275,43.222,23.25,42.82,23.431,42.479z M16.378,50.869c-0.256,0.097-0.512,0.195-0.769,0.293
	c0.116,0.858,0.606,1.527,0.948,2.256c0.1,0.215,0.312,0.385,0.496,0.552c0.213,0.194,0.484,0.333,0.674,0.548
	c0.275,0.313,0.672,0.406,1.003,0.616c0.069,0.045,0.32-0.049,0.361-0.138c0.109-0.232,0.222-0.503,0.204-0.75
	c-0.048-0.622,0.331-1.055,0.633-1.493c0.5-0.726,0.976-1.483,1.668-2.059c0.101-0.083,0.213-0.192,0.243-0.309
	c0.227-0.846,0.931-1.389,1.334-2.121c0.067-0.122,0.299-0.207,0.459-0.216c0.624-0.034,1.249-0.026,1.873-0.044
	c0.659-0.02,1.338,0.024,1.882-0.503c-0.39-0.466-0.744-0.921-1.131-1.347c-0.404-0.447-0.84-0.868-1.227-1.263
	c-0.341,0.053-0.612,0.149-0.869,0.123c-0.548-0.061-1.024,0.113-1.487,0.351c-0.556,0.287-1.104,0.314-1.682,0.069
	c-0.359-0.153-0.738-0.083-1.106,0.004c-0.174,0.039-0.339,0.115-0.515,0.141c-0.767,0.112-1.536,0.213-2.376,0.328
	c-0.035,0.068-0.102,0.143-0.115,0.226c-0.108,0.699-0.313,1.357-0.702,1.956c-0.258,0.401-0.145,0.979-0.596,1.293
	c0.023,0.383,0.045,0.767,0.064,1.12C15.9,50.658,16.262,50.43,16.378,50.869z M10.073,55.198c-1.22-1.473-1.971-3.155-2.52-5.088
	c-0.435,0.894-0.724,1.687-1.039,2.476c-0.338,0.85-0.26,1.683-0.047,2.491c0.222,0.835,0.5,1.646,0.596,2.518
	c0.063,0.571,0.797,1.522,1.238,1.808c-0.112-0.39-0.216-0.819-0.367-1.231c-0.122-0.333-0.064-0.635,0.124-0.891
	c0.207-0.284,0.354-0.521,0.244-0.91c-0.069-0.25,0.05-0.555,0.098-0.938c0.103,0.143,0.156,0.216,0.208,0.288
	c0.001,0.001,0.001,0.002,0.001,0.003c0.123-0.259,0.182-0.597,0.382-0.75C9.362,54.688,9.71,55.038,10.073,55.198z M16.188,55.325
	c0.96,0.295,1.633,0.885,2.152,1.676c0.573-0.747,0.421-1.128-0.217-1.618c-0.478-0.369-0.999-0.693-1.427-1.112
	c-0.878-0.854-1.376-1.925-1.56-3.126c-0.32-0.09-0.62-0.157-0.91-0.255c-0.697-0.236-1.395-0.479-2.082-0.736
	c-0.403-0.15-0.759-0.357-1.04-0.718c-0.55-0.708-0.759-1.543-0.974-2.377c-0.177-0.687-0.216-1.371,0.237-1.995
	c0.158-0.218,0.119-0.417-0.101-0.586c-0.203-0.155-0.422-0.226-0.604-0.017c-0.171,0.195-0.349,0.419-0.425,0.661
	c-0.295,0.944-0.556,1.9-0.821,2.851c-0.345,1.232-0.352,2.42,0.302,3.587c0.423,0.755,0.729,1.576,1.093,2.364
	c0.071,0.155,0.168,0.301,0.275,0.434c0.221,0.273,0.456,0.535,0.686,0.801c0.057-0.148,0.092-0.311,0.182-0.433
	c0.056-0.073,0.265-0.14,0.288-0.111c0.273,0.325,0.685,0.226,1.007,0.363c0.487,0.205,0.944,0.492,1.397,0.772
	c0.508,0.313,1.015,0.635,1.495,0.989c0.766,0.562,1.501,1.159,1.85,1.987h0.419c-0.037,0.403,0.345,0.251,0.491,0.467
	c0.04-0.607,0.109-1.134,0.09-1.656c-0.007-0.209-0.166-0.456-0.329-0.606c-0.329-0.304-0.723-0.536-1.058-0.831
	C16.394,55.914,16.128,55.719,16.188,55.325z M51.661,51.519c-0.095-0.497-0.314-0.951-0.405-1.44
	c-0.21-1.13-0.774-2.022-1.688-2.709c-0.14-0.107-0.262-0.249-0.372-0.387c-0.813-1.021-1.84-1.783-3.014-2.314
	c-0.837-0.378-1.738-0.62-2.615-0.908c-0.857-0.281-1.715-0.567-2.637-0.538c-0.765,0.024-1.53,0.021-2.294,0.043
	c-0.154,0.005-0.315,0.048-0.46,0.11c-0.683,0.292-1.363,0.592-2.04,0.9c-0.49,0.225-0.955,0.521-1.463,0.693
	c-0.596,0.203-1.22,0.356-1.843,0.438c-0.505,0.066-0.886,0.31-1.266,0.592c-0.759,0.565-1.291,1.316-1.696,2.159
	c-0.309,0.643-0.644,1.29-0.52,2.048c0.059,0.355,0.119,0.711,0.162,1.069c0.044,0.355,0.18,0.75,0.074,1.058
	c-0.141,0.403,0.17,0.627,0.22,0.943c0.142,0.92,0.515,1.812,1.02,2.583c0.288,0.441,0.359,0.87,0.491,1.37
	c-0.17,0.017-0.297,0.029-0.344,0.034c-0.405-0.581-0.822-1.076-1.011-1.747c-0.184-0.654-0.59-1.238-0.663-1.954
	c-0.073-0.704-0.252-1.396-0.364-2.096c-0.111-0.681-0.196-1.367-0.29-2.033c0.153-0.193,0.381-0.352,0.415-0.543
	c0.127-0.705,0.463-1.284,0.896-1.832c0.44-0.557,0.814-1.175,1.416-1.576c0.559-0.375,0.504-0.485,0.207-1
	c-0.254-0.442-0.33-0.863-0.347-1.378c0.167-0.038,0.33-0.074,0.428-0.096c0.258,0.686,0.493,1.314,0.738,1.966
	c0.754-0.271,1.56-0.128,2.205-0.597c-1.103,0.084-1.692-0.636-2.212-1.474c0.033-0.04,0.073-0.094,0.117-0.142
	c0.571-0.608,0.574-1.052-0.052-1.406c-0.099-0.056-0.192-0.119-0.281-0.188c-0.298-0.23-0.447-0.52-0.525-0.905
	c-0.092-0.46,0.046-0.831,0.236-1.21c0.149-0.303,0.246-0.585-0.099-0.838c-0.073-0.053-0.087-0.193-0.117-0.297
	c-0.063-0.208-0.119-0.422-0.179-0.632c-0.273-0.969-0.288-1.958-0.183-2.949c0.014-0.113,0.146-0.212,0.279-0.397
	c0.182,1.146,0.342,2.162,0.504,3.182c0.348-0.249,0.62-0.437,0.887-0.634c0.531-0.391,1.068-0.739,1.258-1.468
	c0.124-0.475,0.429-0.925,0.732-1.325c0.552-0.732,1.182-1.357,2.236-1.252c0.341,0.035,0.697-0.097,1.023-0.148
	c0.248-0.478-0.287-0.557-0.422-0.888c0.518-0.456,1.066-0.875,1.536-1.37c0.461-0.486,1.111-0.844,1.232-1.502
	c-0.199-0.235-0.366-0.417-0.518-0.611c-0.344-0.444-0.835-0.671-1.294-0.966c-0.332-0.212-0.639,0.138-0.904-0.111
	c-0.588,0.387-1.295,0.131-1.92,0.354c-0.311,0.109-0.665,0.127-0.999,0.123c-0.312-0.002-0.625-0.07-0.929-0.144
	c-0.394-0.096-0.541,0.346-0.874,0.364c-0.471,0.027-0.963,0.153-1.41,0.062c-0.595-0.122-1.19-0.054-1.718,0.078
	c-0.693,0.174-1.527,0.284-1.871,1.123c-0.037,0.091-0.169,0.141-0.255,0.214c-1.072,0.923-2.35,1.495-3.598,2.121
	c-0.371,0.187-0.774,0.327-1.105,0.568c-0.524,0.38-0.981,0.849-1.497,1.24c-0.502,0.38-0.89,0.838-1.089,1.43
	c-0.075,0.221-0.104,0.51-0.023,0.717c0.154,0.401,0.307,0.79,0.298,1.228c-0.001,0.075,0.076,0.151,0.066,0.133
	c0.39,0.065,0.753,0.026,0.976,0.183c0.538,0.381,1.109,0.738,1.601,1.154c0.625,0.53,1.294,1.112,1.469,2.105
	c0.177-0.242,0.255-0.473,0.396-0.522c0.37-0.131,0.766-0.208,1.158-0.259c0.25-0.032,0.551,0.115,0.76,0.022
	c0.603-0.267,1.251-0.3,1.861-0.475c0.753-0.211,1.431,0.008,2.145-0.017v0.723c-0.669-0.09-1.289-0.173-1.923-0.257
	c-0.169,0.104-0.345,0.284-0.545,0.316c-0.726,0.125-1.46,0.196-2.189,0.293c-0.201,0.028-0.403,0.061-0.598,0.112
	c-0.465,0.123-0.72,0.375-0.892,0.885c-0.223,0.667-0.314,1.439-1.04,1.882c-0.404,0.247-0.364,0.683-0.06,1.117
	c0.135,0.191,0.236,0.402,0.354,0.609c0.208,0.028,0.463,0,0.649,0.098c0.456,0.242,0.981,0.458,1.3,0.835
	c0.552,0.655,1.087,1.35,1.359,2.191c0.555-0.034,0.974-0.697,1.641-0.313c-0.045,0.108-0.061,0.27-0.146,0.328
	c-0.773,0.516-1.604,0.918-2.521,1.089c-0.781,0.145-1.569,0.138-2.362,0.049c-0.301-0.034-0.65,0.02-0.918,0.155
	c-0.179,0.088-0.258,0.387-0.37,0.598c-0.241,0.458-0.436,0.946-0.721,1.373c-0.337,0.501-0.777,0.93-1.121,1.425
	c-0.436,0.628-0.905,1.254-1.208,1.949c-0.414,0.943-0.799,1.902-1.038,2.92c-0.15,0.645-0.445,1.243-0.452,1.938
	c-0.002,0.313,0.048,0.52,0.324,0.677c-0.365,0.196-0.445,0.44-0.374,0.772c0.072,0.331,0.153,0.672,0.145,1.007
	c-0.022,0.851,0.151,1.64,0.554,2.391c0.197,0.367,0.445,0.608,0.87,0.66c0.466,0.056,0.95,0.072,1.388,0.218
	c0.657,0.219,1.283,0.538,1.923,0.813c0.634,0.272,1.249,0.611,2.019,0.58c-0.624-0.712-0.673-0.988-0.243-1.463
	c0.175,0.328,0.312,0.663,0.518,0.946c0.232,0.316,0.484,0.661,0.809,0.862c0.896,0.555,1.782,1.135,2.819,1.418
	c0.237,0.064,0.478,0.151,0.692,0.268c1.152,0.618,2.42,0.779,3.685,0.944c0.174,0.022,0.36-0.029,0.529,0.007
	c1.079,0.228,1.971,0.839,2.864,1.44c0.276,0.186,0.542,0.394,0.831,0.557c0.245,0.136,0.378,0.033,0.461-0.25
	c0.141-0.471,0.283-0.943,0.46-1.401c0.233-0.604,0.499-1.194,0.749-1.793c0.126-0.299,0.243-0.602,0.369-0.902
	c0.13-0.309,0.21-0.658,0.412-0.911c0.308-0.391,0.551-0.807,0.781-1.245c0.279-0.534,0.538-1.08,1.027-1.488
	c0.477-0.4,0.946-0.831,1.322-1.321c0.414-0.541,0.716-1.167,1.07-1.753c0.116-0.191,0.238-0.378,0.369-0.559
	c0.328-0.457,0.529-0.957,0.478-1.524c-0.038-0.417-0.115-0.829-0.183-1.29c0.163,0.015,0.341-0.007,0.361,0.041
	c0.117,0.27,0.198,0.555,0.324,0.933c0.538-0.621,0.659-1.379,0.973-2.036c0.336-0.703,0.69-1.398,1.072-2.169
	c0.396,0.062,0.812,0.125,1.228,0.19c0.061,0.009,0.126,0.04,0.182,0.026c0.918-0.231,1.686-0.691,2.245-1.47
	C51.691,51.946,51.711,51.771,51.661,51.519z M38.248,34.021c0.412-0.307,0.224-0.697,0.201-1.068
	c-0.896-0.07-1.714-0.054-2.426,0.52c-0.508,0.411-0.861,0.915-1.118,1.505c-0.394,0.903-0.88,1.735-1.86,2.122
	c-0.355,0.141-0.411,0.399-0.433,0.749c-0.032,0.528-0.026,1.063-0.217,1.582c-0.193,0.533-0.152,1.002,0.349,1.454
	c0.273,0.246,0.71,0.28,0.857,0.666c-0.171,0.462-0.341,0.922-0.525,1.419c0.334,0.205,0.638,0.393,0.944,0.579
	c0.313,0.189,0.578,0.415,0.635,0.801c0.428-0.127,0.888-0.161,1.193-0.581c0.121-0.166,0.36-0.264,0.565-0.348
	c0.309-0.124,0.638-0.203,0.954-0.313c0.568-0.196,1.119-0.47,1.751-0.254c0.118,0.041,0.271,0.002,0.402-0.029
	c1.112-0.268,2.218-0.151,3.31,0.094c0.699,0.158,1.378,0.414,2.067,0.619c0.137,0.041,0.284,0.05,0.6,0.103
	c-0.309-0.411-0.465-0.773-0.743-0.959c-0.629-0.421-1.031-1.083-1.763-1.417c-0.871-0.398-1.628-1.042-2.482-1.484
	c-0.796-0.412-1.416-0.994-2.005-1.63c0.036-0.085,0.048-0.161,0.092-0.206c0.06-0.06,0.143-0.101,0.22-0.137
	c0.411-0.193,0.597-0.688,0.383-1.09c-0.251-0.475-0.583-0.915-0.769-1.413C38.282,34.909,38.302,34.45,38.248,34.021z
	 M54.804,37.902c-0.082-0.507-0.06-1.043,0.003-1.556c0.128-1.038,0.105-2.015-0.688-2.822c-0.107-0.108-0.148-0.278-0.238-0.408
	c-0.29-0.41-0.529-0.881-0.897-1.206c-0.632-0.555-1.344-1.017-2.022-1.516c-0.507-0.372-0.977-0.82-1.532-1.089
	c-0.715-0.346-1.515-0.513-2.252-0.82c-1.012-0.419-2.055-0.635-3.143-0.635c-0.74,0.001-1.485-0.016-2.194,0.295
	c-0.344,0.152-0.566,0.361-0.768,0.685c-0.156,0.252-0.167,0.7-0.629,0.708c-0.04,0.001-0.115,0.093-0.115,0.142
	c0.012,0.582-0.471,0.774-0.829,1.057c-0.295,0.232-0.616,0.433-0.947,0.663c0.106,0.193,0.237,0.357,0.297,0.545
	c0.189,0.598,0.35,1.204,0.09,1.827c-0.27,0.644-0.233,1.239,0.271,1.767c0.092,0.097,0.146,0.227,0.216,0.342
	c0.507,0.839,0.517,1.72,0.007,2.413c0.209,0.211,0.395,0.473,0.645,0.633c1.133,0.733,2.279,1.444,3.43,2.149
	c1.013,0.622,1.883,1.392,2.491,2.419c0.243,0.411,0.604,0.638,0.991,0.885c0.659,0.418,1.305,0.87,1.897,1.378
	c0.574,0.492,0.98,1.156,1.622,1.603c0.314,0.221,0.538,0.599,0.751,0.938c0.292,0.466,0.532,0.963,0.793,1.447
	c0.124-0.272,0.142-0.529,0.162-0.784c0.014-0.199,0.009-0.401,0.054-0.593c0.083-0.347,0.187-0.688,0.298-1.026
	c0.104-0.319,0.202-0.644,0.349-0.942c0.331-0.683,0.918-1.237,0.999-2.042c0.005-0.042,0.034-0.094,0.068-0.115
	c0.264-0.162,0.17-0.332,0.063-0.557c-0.24-0.5-0.476-1.007-0.627-1.537c-0.081-0.285-0.14-0.543-0.363-0.749
	c-0.076-0.071-0.13-0.18-0.165-0.282c-0.21-0.622-0.515-1.184-0.963-1.67c-0.182-0.197-0.35-0.422-0.463-0.665
	c-0.222-0.479-0.508-0.883-0.894-1.264c-0.683-0.673-1.279-1.433-1.906-2.163c-0.089-0.104-0.144-0.237-0.226-0.374
	c0.424-0.11,0.727,0.109,0.896,0.324c0.537,0.688,1.183,1.273,1.745,1.927c0.711,0.827,1.414,1.682,1.911,2.678
	c0.338,0.675,0.83,1.267,0.978,2.043c0.05,0.258,0.279,0.481,0.489,0.823c0.093-0.242,0.199-0.374,0.172-0.467
	c-0.102-0.361,0.037-0.666,0.146-0.987c0.055-0.168,0.091-0.348,0.104-0.524C54.948,39.833,54.96,38.87,54.804,37.902z
	 M80.094,36.249c-0.041-0.03-0.081-0.06-0.122-0.089c-0.168,0.185-0.333,0.37-0.515,0.569c-0.121-0.027-0.264-0.059-0.392-0.089
	c-0.081,0.171-0.112,0.346-0.218,0.431c-0.271,0.223-0.005,0.389,0.075,0.503c0.101,0.141,0.305,0.148,0.462-0.03
	C79.725,37.162,79.956,36.729,80.094,36.249z M96.518,13.365c-0.381,0.352-0.779,0.694-1.215,0.972
	c-0.404,0.257-0.782,0.55-1.178,0.816c-0.829,0.559-1.643,1.172-2.657,1.391c-0.86,0.186-1.705,0.371-2.508,0.802
	c-1.014,0.545-1.872,1.219-2.54,2.148c-0.682,0.945-1.326,1.909-1.694,3.035c-0.063,0.19-0.303,0.325-0.547,0.571
	c0-0.369-0.066-0.618,0.012-0.809c0.437-1.074,0.766-2.214,1.691-3.021c0.108-0.094,0.13-0.292,0.191-0.441
	c-0.247,0.013-0.406,0.082-0.542,0.185c-1.011,0.76-1.802,1.741-2.636,2.676c-0.096,0.106-0.119,0.272-0.202,0.394
	c-0.225,0.33-0.456,0.657-0.698,0.974c-0.117,0.152-0.299,0.256-0.398,0.417c-0.548,0.899-0.92,1.88-1.239,2.88
	c-0.101,0.315-0.169,0.66-0.158,0.988c0.012,0.348,0.035,0.723,0.103,1.044c0.22,1.044,0.302,2.073,0.289,3.144
	c-0.017,1.274-0.203,2.503-0.473,3.733c-0.03,0.138-0.022,0.283-0.037,0.491c0.577-0.187,0.812-0.653,1.154-0.984
	c0.371-0.356,0.722-0.734,1.066-1.116c0.305-0.338,0.588-0.694,0.88-1.041c0.111,0.182,0.16,0.336,0.104,0.428
	c-0.572,0.934-0.975,1.99-1.967,2.67c0.915,0.125,0.913,0.121,1.678-0.299c0.174-0.095,0.375-0.152,0.571-0.194
	c1.09-0.233,2.136-0.611,3.185-0.979c0.401-0.14,0.785-0.329,1.183-0.483c0.132-0.052,0.349-0.013,0.407-0.099
	c0.154-0.226,0.348-0.286,0.595-0.365c0.226-0.072,0.386-0.344,0.578-0.522c0.4-0.372,0.812-0.732,1.202-1.112
	c0.346-0.335,0.67-0.691,1.004-1.039c0.044,0.025,0.088,0.049,0.132,0.075c-0.001,0.251-0.058,0.477-0.249,0.695
	c-0.543,0.613-1.069,1.239-1.598,1.864c-0.014,0.016,0.027,0.077,0.048,0.128c0.574-0.216,1.227-0.326,1.706-0.673
	c0.881-0.634,1.716-1.342,2.435-2.178c0.316-0.369,0.479-0.889,0.989-1.086c0.048-0.018,0.079-0.109,0.093-0.17
	c0.147-0.645,0.581-1.139,1.02-1.561c0.804-0.782,1.125-1.812,1.521-2.778c0.383-0.932,0.531-1.96,0.758-2.953
	c0.063-0.27,0.02-0.562,0.057-0.84c0.127-0.983,0.029-1.993,0.397-2.947c0.186-0.479,0.256-0.989,0.229-1.508
	c-0.017-0.355-0.021-0.714-0.047-1.069c-0.072-0.984-0.207-1.959-0.481-2.907c-0.102-0.356-0.27-0.692-0.428-1.083
	c-0.151,0.136-0.254,0.221-0.348,0.314C97.477,12.416,97.014,12.909,96.518,13.365z M85.576,5.083
	c0.327,0.231,0.651,0.465,0.982,0.691c0.18,0.122,0.472,0.192,0.533,0.354c0.161,0.419,0.478,0.333,0.772,0.331
	c0.363-0.002,0.732-0.021,1.091-0.027c0.392-0.008,0.635,0.092,0.939,0.297c0.307,0.207,0.715,0.326,1.094,0.142
	c0.642-0.313,1.269-0.655,1.902-0.981c0.147-0.075,0.308-0.129,0.462-0.194c0.034,0.039,0.07,0.077,0.104,0.115
	c-0.102,0.174-0.16,0.416-0.311,0.513c-0.45,0.291-0.937,0.521-1.406,0.779c-0.485,0.265-0.514,0.455-0.084,0.807
	c0.693,0.565,1.274,1.211,1.535,2.088c0.231,0.775,0.45,1.554,0.655,2.337c0.096,0.369,0.251,0.768,0.191,1.121
	c-0.062,0.371,0.36,0.63,0.142,1.031c0.542-0.633,1.355-0.854,1.849-1.491c0.295-0.38,0.69-0.698,1.081-0.987
	c0.347-0.252,0.365-0.545,0.249-0.888c-0.18-0.532-0.363-1.064-0.575-1.582c-0.456-1.109-1.254-2.004-1.939-2.964
	c-0.302-0.422-0.778-0.759-1.241-1.02c-0.653-0.37-1.368-0.633-2.053-0.947c-0.18-0.083-0.349-0.19-0.519-0.29
	c-0.582-0.334-1.146-0.709-1.748-0.995c-0.518-0.247-1.063-0.157-1.532,0.174C87.018,4.013,86.299,4.554,85.576,5.083z M83.856,4.18
	C83.364,4.37,82.86,4.582,82.26,4.642c-1.276,0.126-2.479-0.104-3.668-0.476c-0.378-0.117-0.664-0.08-0.933,0.15
	c-0.553,0.475-1.193,0.718-1.906,0.781c-0.261,0.022-0.465,0.098-0.699,0.249c-0.993,0.646-2.027,1.219-2.878,2.074
	c-0.757,0.758-1.385,1.563-1.593,2.632c0.405,0.446,1.566,1.239,2.089,1.325c0.755,0.125,1.2,0.67,1.675,1.159
	c0.515,0.53,0.962,1.126,1.437,1.695c0.101,0.12,0.203,0.245,0.284,0.378c0.681,1.129,1.196,2.354,2.022,3.397
	c0.098,0.125,0.088,0.333,0.13,0.504c0.029,0.125,0.022,0.279,0.095,0.37c0.821,1.016,0.937,2.292,1.288,3.478
	c0.21,0.714,0.358,1.446,0.559,2.267c0.164-0.205,0.273-0.313,0.347-0.442c0.27-0.468,0.541-0.932,0.976-1.271
	c0.049-0.039,0.063-0.119,0.102-0.171c0.527-0.713,0.656-1.705,1.528-2.175c0.015-0.009,0.012-0.044,0.026-0.062
	c0.266-0.32,0.524-0.647,0.803-0.959c0.567-0.634,1.226-1.148,2.003-1.508c0.386-0.178,0.844-0.309,1.105-0.606
	c0.328-0.369,0.761-0.36,1.13-0.549c0.193-0.099,0.414-0.146,0.625-0.209c0.618-0.184,1.239-0.355,1.856-0.544
	c0.884-0.268,1.73-0.621,2.514-1.111c0.095-0.059,0.188-0.225,0.178-0.332c-0.06-0.578-0.123-1.159-0.241-1.727
	c-0.182-0.866-0.401-1.726-0.628-2.582c-0.072-0.277-0.184-0.556-0.337-0.797c-0.662-1.056-1.554-1.891-2.61-2.535
	c-0.271-0.166-0.649-0.163-0.978-0.239c-0.025,0.043-0.05,0.086-0.076,0.128c0.186,0.239,0.362,0.485,0.557,0.717
	c0.573,0.688,1.159,1.368,1.54,2.192c0.054,0.116,0.128,0.274,0.089,0.372c-0.098,0.249,0.083,0.364,0.186,0.513
	c0.106,0.156,0.358,0.236,0.223,0.498c0.413,0.562,0.535,1.251,0.821,1.853c0.339,0.716,0.391,1.393,0.367,2.144
	c-0.377-0.009-0.551-0.173-0.632-0.508c-0.135-0.553-0.236-1.132-0.479-1.639c-0.69-1.438-1.157-2.992-2.116-4.294
	c-0.268-0.359-0.428-0.807-0.819-1.065c-0.314-0.209-0.63-0.429-0.975-0.572c-0.815-0.339-1.498-0.841-2.07-1.513
	C84.754,5.14,84.304,4.671,83.856,4.18z M70.52,7.498c-0.211,0.347-0.354,1.115-0.275,1.615c0.195-0.337,0.357-0.625,0.528-0.909
	c0.066-0.107,0.136-0.249,0.239-0.294c0.377-0.162,0.546-0.439,0.524-0.749c0.51-0.417,0.96-0.784,1.459-1.193
	c-0.261-0.231-0.209-0.548-0.054-0.871c-0.41-0.208,0.2-0.661-0.233-0.886c-0.897,0.361-1.57,1.047-2.163,1.768
	c-0.628,0.765-1.196,1.573-1.978,2.198c-0.135,0.107-0.236,0.254-0.437,0.472c0.536,0.24,0.991,0.444,1.547,0.694
	c-0.024-0.257-0.037-0.368-0.044-0.48c-0.008-0.133-0.042-0.278-0.006-0.402c0.076-0.263,0.119-0.645,0.303-0.745
	c0.373-0.204,0.374-0.517,0.46-0.833c0.032-0.121,0.143-0.222,0.253-0.386C70.788,6.964,70.766,7.092,70.52,7.498z M79.248,2.516
	c0.062,0.164,0.078,0.343,0.176,0.446c0.326,0.338,0.632,0.773,1.04,0.938c0.504,0.204,1.103,0.173,1.659,0.249
	c0.197,0.026,0.392,0.066,0.657,0.112c0.159-0.392,0.159-0.393,0.573-0.411c0.108-0.006,0.219,0,0.326-0.016
	c0.12-0.022,0.332-0.056,0.336-0.099c0.01-0.144-0.021-0.313-0.099-0.432c-0.066-0.099-0.215-0.164-0.34-0.203
	c-0.591-0.184-1.188-0.323-1.818-0.312c-0.424,0.009-0.853-0.045-1.276-0.093C80.073,2.65,79.666,2.578,79.248,2.516z M77.79,2.652
	c-0.495,0.09-0.971,0.295-1.448,0.471c-0.415,0.151-0.814,0.343-1.229,0.497c-0.552,0.205-1.203,0.211-1.555,0.812
	c-0.047,0.083-0.18,0.114-0.257,0.159c0.055,0.29,0.104,0.548,0.156,0.822c0.083-0.027,0.147-0.04,0.206-0.068
	c0.68-0.318,1.318-0.704,2.063-0.907c0.648-0.178,1.343-0.317,1.866-0.853c0.19-0.195,0.538-0.305,0.882-0.138
	c0.209,0.103,0.459,0.119,0.791,0.196c-0.134-0.182-0.188-0.31-0.283-0.371C78.603,3.028,78.299,2.56,77.79,2.652z M66.19,6.961
	c0.538,0.441,1.035,0.846,1.522,1.246c0.146-0.174,0.231-0.346,0.37-0.432c0.633-0.396,1.016-1.024,1.488-1.567
	c0.396-0.454,0.581-1.076,1.12-1.424c0.222-0.142,0.481-0.26,0.639-0.458c0.393-0.496,0.874-0.69,1.5-0.679
	c0.242,0.006,0.577,0.227,0.758-0.151c0.812,0.095,1.414-0.509,2.165-0.648c0.469-0.088,0.824-0.539,1.358-0.553
	c0.086-0.002,0.167-0.189,0.273-0.319c-0.19-0.228-0.392-0.376-0.467-0.574c-0.145-0.376-0.422-0.496-0.771-0.561
	c-0.132-0.024-0.263-0.066-0.39-0.111c-0.473-0.172-0.929-0.121-1.372,0.102c-0.778,0.393-1.544,0.819-2.338,1.178
	c-0.735,0.333-1.427,0.76-2.238,0.933c-0.915,0.194-1.573,0.855-2.273,1.419c-0.154,0.123-0.288,0.297-0.373,0.475
	C66.826,5.539,66.512,6.251,66.19,6.961z M79.182,36.091c0.027-0.183,0.07-0.353,0.074-0.522c0.015-0.774,0.555-1.404,0.545-2.201
	c-0.014-1.153,0.211-2.326,0.073-3.458c-0.104-0.851,0.092-1.728-0.227-2.553c-0.015-0.038-0.004-0.091,0.008-0.134
	c0.274-1.008,0.084-2.004-0.151-2.978c-0.138-0.578-0.251-1.165-0.477-1.732c-0.258-0.65-0.303-1.383-0.523-2.052
	c-0.238-0.723-0.532-1.434-0.873-2.114c-0.322-0.634-0.735-1.222-1.115-1.827c-0.046-0.071-0.128-0.122-0.194-0.182
	c0.251,0.955-0.148,1.761-0.453,2.589c-0.07-0.672,0.032-1.358-0.081-2.004c-0.116-0.654-0.075-1.349-0.359-1.863
	c-0.216-0.161-0.412-0.242-0.503-0.386c-0.427-0.687-0.755-1.451-1.54-1.836c-0.037-0.018-0.053-0.074-0.085-0.104
	c-0.707-0.63-1.502-1.106-2.424-1.454c0.216,0.688,0.878,1.152,0.647,1.921c-0.012,0.035,0.016,0.097,0.046,0.123
	c0.509,0.424,0.469,1.046,0.572,1.611c0.071,0.392,0.17,0.803,0.12,1.188c-0.035,0.286-0.218,0.556-0.135,0.874
	c0.002,0.011-0.159,0.064-0.175,0.071c-0.1-0.396-0.19-0.743-0.275-1.092c-0.032-0.132-0.084-0.265-0.082-0.397
	c0.012-0.576,0.115-1.164-0.299-1.661c-0.014-0.017-0.026-0.044-0.022-0.063c0.129-0.543-0.196-0.959-0.449-1.356
	c-0.538-0.847-1.114-1.677-1.741-2.459c-0.218-0.271-0.637-0.379-0.96-0.565c-0.055-0.031-0.102-0.076-0.146-0.12
	C67.86,9.237,67.755,9.106,67.629,9c-0.093-0.08-0.257-0.101-0.313-0.193C66.857,8.04,66.203,7.48,65.475,6.99
	c-0.367-0.246-0.592-0.198-0.827,0.173c-0.104,0.167-0.235,0.313-0.335,0.481c-0.28,0.471-0.566,0.94-0.817,1.428
	c-0.095,0.186-0.184,0.377-0.277,0.554c-0.152,0.287-0.513,0.479-0.534,0.705c-0.042,0.45-0.342,0.728-0.505,1.087
	c-0.228,0.495-0.38,1.027-0.536,1.532c-0.274,0.888-0.349,1.846-0.447,2.78c-0.109,1.019-0.149,2.043-0.215,3.065
	c-0.009,0.156,0.007,0.313,0.022,0.468c0.167,1.543,0.315,3.09,0.717,4.595c0.195,0.734,0.354,1.498,0.68,2.176
	c0.628,1.303,1.498,2.458,2.479,3.525c0.074,0.081,0.174,0.139,0.396,0.312c-0.126-0.394-0.204-0.624-0.272-0.856
	c-0.143-0.492-0.289-0.983-0.409-1.482c-0.022-0.09,0.074-0.211,0.117-0.318c0.047-0.003,0.093-0.006,0.14-0.008
	c0.231,0.675,0.55,1.334,0.666,2.03c0.095,0.564,0.374,1.005,0.729,1.33c0.66,0.602,1.432,1.083,2.165,1.605
	c0.069,0.049,0.186,0.034,0.343,0.06c-0.21-0.25-0.418-0.415-0.512-0.628c-0.393-0.887-0.648-1.812-0.546-2.797
	c0.009-0.083,0.137-0.154,0.255-0.282c0.042,0.18,0.08,0.266,0.078,0.351c-0.02,0.84,0.32,1.58,0.634,2.327
	c0.05,0.116,0.13,0.231,0.225,0.314c0.644,0.564,1.182,1.248,2.077,1.504c0.545,0.157,1.016,0.562,1.556,0.76
	c0.731,0.271,1.497,0.449,2.245,0.671c0.266,0.078,0.526,0.167,0.848,0.27c-0.28-0.635-0.743-1.111-0.559-1.902
	c0.146,0.151,0.248,0.239,0.329,0.345c0.488,0.64,0.969,1.288,1.466,1.925c0.077,0.101,0.215,0.168,0.338,0.217
	C77.843,35.57,78.504,35.825,79.182,36.091z M48.228,101.839c0.053,0.055,0.174,0.048,0.264,0.069c0,0,0,0,0,0
	c-0.168-0.612-0.333-1.225-0.505-1.836c-0.146-0.52-0.289-1.042-0.457-1.555c-0.124-0.378-0.349-0.73-0.423-1.115
	c-0.135-0.712-0.252-1.419-0.504-2.111c-0.326-0.899-0.558-1.833-0.815-2.756c-0.114-0.407-0.195-0.823-0.293-1.235
	c-0.023,0.216-0.077,0.432-0.061,0.644c0.079,0.963,0.668,1.841,0.481,2.852c-0.006,0.031,0.043,0.072,0.06,0.111
	c0.127,0.302,0.276,0.597,0.373,0.907c0.139,0.449,0.222,0.912,0.357,1.362c0.335,1.102,0.67,2.204,1.034,3.296
	C47.892,100.931,47.876,101.456,48.228,101.839z M50.337,107.302c-0.272-0.912-0.64-1.79-0.938-2.69
	c-0.298-0.901-0.62-1.792-0.906-2.697c-0.09,0.201-0.178,0.402-0.276,0.631c0.514,0.413,0.376,1.079,0.673,1.587
	c0.289,0.493,0.522,1.03,0.698,1.574C49.77,106.277,50.027,106.796,50.337,107.302z M59.459,143.051
	c-0.029-0.369-0.014-0.729-0.149-1.092c-0.139-0.369-0.19-0.773-0.249-1.166c-0.136-0.891-0.245-1.785-0.382-2.674
	c-0.108-0.695-0.254-1.387-0.361-2.084c-0.126-0.828-0.199-1.664-0.402-2.486c-0.258-1.041-0.492-2.098-0.601-3.16
	c-0.042-0.41-0.267-0.732-0.279-1.145c-0.021-0.742-0.063-1.504-0.251-2.217c-0.203-0.775-0.281-1.554-0.37-2.338
	c-0.022-0.199-0.056-0.412-0.146-0.588c-0.236-0.456-0.43-0.92-0.563-1.424c-0.264-0.989-0.573-1.969-0.881-2.947
	c-0.138-0.438-0.334-0.857-0.474-1.296c-0.184-0.577-0.346-1.16-0.5-1.747c-0.112-0.432-0.196-0.873-0.294-1.309
	c-0.063-0.286-0.03-0.687-0.209-0.833c-0.456-0.376-0.413-0.935-0.58-1.387c-0.339-0.915-0.775-1.78-1.13-2.72
	c-0.188,0.418-0.169,0.411-0.055,0.651c0.07,0.144,0.074,0.319,0.11,0.48c0.022,0.101,0.025,0.214,0.078,0.296
	c0.24,0.379,0.424,0.77,0.52,1.217c0.104,0.494,0.292,0.969,0.46,1.447c0.16,0.463-0.058,1.029,0.399,1.414
	c0.04,0.034-0.027,0.174-0.009,0.26c0.026,0.127,0.078,0.252,0.124,0.375c0.115,0.313,0.25,0.62,0.345,0.938
	c0.042,0.137-0.039,0.311,0.005,0.444c0.35,1.035,0.738,2.058,1.069,3.098c0.26,0.809,0.44,1.639,0.813,2.414
	c0.173,0.361,0.274,0.77,0.342,1.168c0.328,1.957,0.641,3.916,0.941,5.877c0.088,0.576,0.11,1.164,0.175,1.744
	c0.101,0.936,0.193,1.871,0.321,2.803c0.146,1.045,0.346,2.078,0.485,3.121c0.131,0.98,0.219,1.967,0.318,2.951
	c0.145,1.439,0.564,2.854,0.396,4.322c-0.008,0.064,0.017,0.131,0.021,0.197c0.075,1.375,0.165,2.748,0.22,4.123
	c0.016,0.4-0.104,0.805-0.101,1.205c0.002,0.426,0.107,0.85,0.112,1.275c0.013,0.939-0.104,1.891,0.002,2.818
	c0.17,1.473-0.151,2.941,0.047,4.406c0.013,0.084-0.055,0.176-0.055,0.264c0,0.697-0.064,1.406,0.03,2.09
	c0.106,0.758,0.27,1.498,0.214,2.273c-0.035,0.465,0.02,0.939,0.06,1.408c0.087,1.023,0.189,2.043,0.286,3.063
	c0.026,0.268,0.075,0.531,0.09,0.797c0.037,0.688,0.041,1.375,0.096,2.061c0.076,0.975,0.24,1.949,0.262,2.926
	c0.021,0.953,0.145,1.898,0.171,2.85c0.032,1.248,0.348,2.479,0.205,3.744c-0.024,0.207,0.189,0.533,0.387,0.658
	c0.757,0.482,1.462,1.012,2.023,1.721c0.049-0.016,0.096-0.031,0.144-0.047c-0.076-0.588-0.148-1.176-0.225-1.764
	c-0.016-0.113-0.043-0.223-0.056-0.334c-0.191-1.684-0.38-3.367-0.57-5.053c-0.078-0.691-0.144-1.387-0.244-2.078
	c-0.165-1.152-0.362-2.299-0.529-3.453c-0.073-0.504-0.022-1.037-0.166-1.516c-0.295-0.982-0.308-1.994-0.385-2.992
	c-0.076-0.982,0.003-1.973,0.005-2.961c0.001-0.24-0.034-0.482-0.049-0.725c-0.012-0.17-0.021-0.34-0.018-0.508
	c0.012-0.67,0.037-1.34,0.036-2.008c0-0.422-0.063-0.842-0.056-1.264c0.02-1.141,0.143-2.277,0.045-3.418
	c-0.008-0.086,0.005-0.195,0.053-0.26c0.195-0.271,0.097-0.52-0.04-0.762c-0.232-0.408-0.324-0.877-0.195-1.291
	c0.14-0.449,0.014-0.861-0.011-1.275c-0.078-1.283-0.24-2.561-0.338-3.84c-0.04-0.527,0.103-1.09-0.027-1.584
	c-0.165-0.617-0.161-1.232-0.235-1.85C59.629,143.922,59.496,143.49,59.459,143.051z M80.637,55.533
	c0.026-0.103-0.003-0.222-0.014-0.333c-0.086-0.948-0.196-1.897-0.248-2.847c-0.036-0.641-0.237-1.28-0.062-1.928
	c-0.33-0.968-0.114-2.039-0.573-2.99c-0.117-0.243-0.133-0.555-0.123-0.833c0.011-0.283,0.07-0.547-0.218-0.735
	c-0.018-0.011,0.051-0.126,0.044-0.189c-0.066-0.7-0.123-1.401-0.218-2.096c-0.034-0.257-0.197-0.493-0.239-0.75
	c-0.088-0.518,0.032-1.078-0.336-1.539c-0.029-0.037,0.013-0.125,0.009-0.191c-0.062-0.957-0.125-1.914-0.194-2.979
	c0.27,0.044,0.479,0.081,0.703,0.117c0.028-0.101,0.058-0.204,0.066-0.232c-0.438-0.272-0.836-0.501-1.216-0.761
	c-0.263-0.177-0.483-0.312-0.847-0.234c-0.655,0.138-1.332,0.171-1.999,0.258c-0.221,0.029-0.467,0.042-0.648,0.151
	c-0.289,0.174-0.552,0.358-0.914,0.358c-0.145,0-0.292,0.104-0.435,0.17c-0.364,0.168-0.712,0.401-1.094,0.501
	c-1.084,0.283-2.042,0.826-3.014,1.35c-0.769,0.413-1.522,0.86-2.317,1.211c-0.7,0.308-1.442,0.522-2.178,0.738
	c-0.523,0.154-1.068,0.243-1.607,0.36c0.003,0.724,0.074,1.368,0.221,2.006c0.05,0.217,0.072,0.445,0.066,0.666
	c-0.019,0.725,0.348,1.417,0.171,2.152c0.268,0.423,0.212,0.907,0.214,1.364c0.005,1.021-0.02,2.042-0.084,3.06
	c-0.024,0.409-0.276,0.812-0.262,1.211c0.032,0.859-0.379,1.604-0.515,2.418c-0.153,0.907-0.449,1.79-0.639,2.694
	c-0.17,0.809-0.4,1.61-0.651,2.387c-0.27,0.835-0.576,1.671-0.974,2.479c-0.511,1.038-1.338,1.805-1.955,2.741
	c-0.573,0.198-0.756,0.747-1.014,1.198c-0.602,1.051-1.317,1.986-2.277,2.74c-0.334,0.263-0.606,0.529-1.035,0.308
	c-0.521,0.814-0.993,1.603-1.516,2.356c-0.628,0.906-1.411,1.602-2.594,1.69c-0.157,0.011-0.323,0.151-0.452,0.27
	c-0.766,0.698-1.581,1.322-2.498,1.815c-0.555,0.299-1.068,0.674-1.604,1.009c-0.563,0.35-0.943,0.791-1.17,1.461
	c-0.224,0.665-0.029,1.431-0.521,2.016c-0.021,0.024,0.069,0.125,0.058,0.177c-0.109,0.444,0.104,0.829,0.195,1.241
	c0.348,1.561,0.644,3.131,0.984,4.693c0.153,0.698,0.107,1.423,0.393,2.105c0.211,0.505,0.313,1.058,0.462,1.589
	c0.163,0.587,0.353,1.168,0.481,1.763c0.108,0.502-0.018,1.138,0.249,1.506c0.519,0.716,0.347,1.575,0.704,2.297
	c0.12,0.241,0.21,0.498,0.29,0.753c0.256,0.838,0.472,1.69,0.757,2.518c0.291,0.841,0.275,1.766,0.722,2.561
	c0.022,0.037,0.021,0.087,0.033,0.131c0.249,0.812,0.479,1.63,0.752,2.434c0.205,0.604,0.578,1.173,0.673,1.79
	c0.081,0.536,0.411,0.962,0.455,1.516c0.033,0.418,0.367,0.804,0.524,1.221c0.156,0.415,0.492,0.778,0.395,1.275
	c-0.009,0.047,0.035,0.136,0.076,0.153c0.392,0.16,0.414,0.551,0.551,0.865c0.4,0.93,0.734,1.881,1.08,2.832
	c0.506,1.395,0.887,2.824,1.328,4.236c0.176,0.56,0.409,1.115,0.406,1.72c0.486,0.56,0.483,1.304,0.712,1.956
	c0.229,0.658,0.362,1.35,0.573,2.02c0.307,0.977,0.426,2.015,0.575,3.035c0.144,0.975,0.222,1.959,0.328,2.939
	c0.002,0.021,0.007,0.045,0.016,0.064c0.386,0.953,0.373,1.99,0.628,2.971c0.095,0.363,0.227,0.729,0.258,1.1
	c0.054,0.688,0.223,1.352,0.319,2.029c0.089,0.619,0.146,1.242,0.242,1.859c0.07,0.455,0.182,0.902,0.291,1.428
	c0.446-0.791,0.822-1.496,1.236-2.178c0.582-0.965,1.275-1.861,1.672-2.936c0.421-1.141,1.143-2.145,1.439-3.35
	c0.168-0.689,0.496-1.34,0.763-2.004c0.188-0.473,0.319-0.992,0.607-1.395c0.395-0.553,0.472-1.213,0.75-1.8
	c0.181-0.382,0.184-0.859,0.476-1.221c0.051-0.065,0.054-0.167,0.08-0.253c0.256-0.822,0.479-1.658,0.776-2.467
	c0.479-1.307,1.173-2.529,1.484-3.902c0.103-0.454,0.264-0.896,0.399-1.344c0.219-0.729,0.454-1.454,0.653-2.189
	c0.217-0.799,0.386-1.611,0.6-2.41c0.278-1.039,0.603-2.065,0.869-3.107c0.236-0.927,0.405-1.87,0.632-2.8
	c0.274-1.13,0.572-2.256,0.869-3.38c0.384-1.458,0.771-2.915,1.166-4.37c0.164-0.602,0.304-1.216,0.534-1.794
	c0.144-0.358,0.282-0.688,0.204-1.106c-0.73,0.047-0.76,0.915-1.31,1.19c-0.039-0.141-0.063-0.229-0.13-0.472
	c-0.101,0.765-0.164,1.367-0.26,1.964c-0.189,1.175-0.436,2.344-0.588,3.525c-0.123,0.946-0.253,1.888-0.476,2.815
	c-0.18,0.753-0.16,1.567-0.679,2.218c-0.029,0.037-0.006,0.127,0.014,0.188c0.123,0.4-0.035,0.754-0.172,1.116
	c-0.167,0.448-0.354,0.896-0.466,1.362c-0.259,1.064-0.406,2.16-0.733,3.201c-0.259,0.822-0.613,1.608-0.763,2.473
	c-0.115,0.657-0.348,1.297-0.534,1.94c-0.188,0.646-0.35,1.302-0.591,1.927c-0.229,0.604-0.352,1.236-0.607,1.842
	c-0.204,0.48-0.405,0.984-0.573,1.49c-0.074,0.221-0.069,0.469-0.141,0.691c-0.089,0.271-0.224,0.527-0.33,0.793
	c-0.142,0.352-0.282,0.706-0.411,1.063c-0.237,0.646-0.517,1.269-0.82,1.889c-0.507,1.039-0.838,2.164-1.283,3.234
	c-0.24,0.578-0.579,1.113-0.843,1.684c-0.632,1.367-1.211,2.758-2.005,4.043c-0.343,0.553-0.679,1.109-1.021,1.662
	c-0.166,0.27-0.271,0.266-0.65-0.078c0.34-0.635,0.677-1.289,1.038-1.928c0.187-0.326,0.527-0.602,0.607-0.943
	c0.149-0.65,0.466-1.199,0.755-1.781c0.737-1.482,1.424-2.992,2.099-4.506c0.256-0.57,0.358-1.215,0.648-1.764
	c0.852-1.616,1.448-3.332,2.068-5.036c0.28-0.764,0.469-1.56,0.709-2.337c0.341-1.111,0.919-2.15,0.99-3.342
	c0.004-0.063,0.04-0.125,0.06-0.188c0.502-1.65,1.01-3.299,1.497-4.955c0.076-0.252-0.019-0.572,0.097-0.795
	c0.517-1.01,0.681-2.108,0.901-3.196c0.164-0.813,0.354-1.62,0.514-2.432c0.117-0.579,0.207-1.163,0.308-1.744
	c0.141-0.83,0.221-1.68,0.449-2.488c0.103-0.36,0.031-0.703,0.119-1.042c0.254-0.987,0.42-1.984,0.388-3.009
	c-0.001-0.033,0.042-0.069,0.068-0.109c0.062-0.01,0.127-0.032,0.192-0.034c0.742-0.022,0.954-0.178,1.162-0.923
	c0.103-0.362,0.087-0.77,0.24-1.103c0.459-0.998,0.735-2.059,1.127-3.078c0.262-0.683,0.602-1.331,0.79-2.048
	c0.163-0.624-0.053-1.346,0.479-1.876c0.021-0.021-0.005-0.087,0.001-0.13c0.021-0.197,0.046-0.393,0.07-0.587
	c0.102-0.833,0.562-1.579,0.596-2.433c0.005-0.147,0.093-0.294,0.152-0.438c0.085-0.207,0.217-0.403,0.264-0.616
	c0.152-0.711,0.283-1.428,0.402-2.146c0.042-0.252-0.033-0.542,0.057-0.769c0.301-0.76,0.427-1.541,0.521-2.349
	c0.103-0.889,0.331-1.762,0.523-2.639c0.104-0.48,0.252-0.952,0.372-1.43c0.266-1.056,0.533-2.111,0.784-3.171
	c0.045-0.189,0.015-0.398,0.021-0.597c0.005-0.219,0.007-0.439,0.022-0.66c0.052-0.757,0.112-1.513,0.159-2.272
	c0.03-0.489,0.047-0.981,0.06-1.472c0.024-0.966,0.063-1.933,0.057-2.899c-0.004-0.795-0.065-1.59-0.099-2.384
	c-0.001-0.022,0.017-0.045,0.017-0.066c0.021-0.312,0.071-0.624,0.057-0.935C80.53,57.199,80.432,56.365,80.637,55.533z
	 M80.063,11.242c-0.063,0.34,0.043,0.733-0.086,1.033c-0.22,0.504-0.228,0.978-0.154,1.504c0.056,0.407,0.058,0.853-0.048,1.246
	c-0.208,0.771,0.162,1.519,0.013,2.277c-0.007,0.038,0.021,0.111,0.046,0.118c0.261,0.081,0.142,0.251,0.14,0.427
	c-0.003,0.635-0.13,1.264-0.025,1.905c0.079,0.481,0.112,0.976,0.104,1.463c-0.008,0.356,0.13,0.515,0.461,0.578
	c0.174-0.475,0.147-0.942,0.097-1.432c-0.147-1.398-0.194-2.805-0.307-4.204c-0.072-0.898,0.105-1.766,0.044-2.661
	c-0.06-0.85,0.239-1.724,0.363-2.588c0.081-0.568,0.132-1.142,0.214-1.864c-0.243,0.168-0.405,0.22-0.428,0.308
	C80.332,9.979,80.18,10.607,80.063,11.242z M33.399,62.392c-0.17-0.22-0.442-0.418-0.49-0.662c-0.101-0.507-0.35-0.901-0.673-1.342
	c-0.027,0.738,0.368,1.243,0.697,1.756c0.328,0.509,0.338,1.266,1.215,1.508c-0.081-0.236-0.104-0.392-0.184-0.51
	C33.792,62.882,33.591,62.64,33.399,62.392z M79.478,42.146c-0.014,0.014-0.106-0.048-0.163-0.075
	c0.067-0.104,0.136-0.209,0.203-0.313c0.049,0.04,0.1,0.079,0.147,0.119C79.604,41.969,79.551,42.065,79.478,42.146z
	 M115.421,54.908c-0.115,0.349-0.31,0.656-0.606,0.915c-0.155,0.136-0.479,0.3-0.285,0.642c0.014,0.025-0.05,0.111-0.095,0.151
	c-0.77,0.679-1.229,1.578-1.772,2.425c-0.43,0.67-0.934,1.292-1.402,1.938c-0.052,0.071-0.079,0.162-0.128,0.238
	c-0.289,0.439-0.394,1.006-0.896,1.297c-0.263,0.741-0.883,1.245-1.268,1.898c-0.327,0.558-0.795,0.964-1.241,1.396
	c-1.277,1.237-2.654,2.361-4.136,3.343c-0.816,0.542-1.693,1.009-2.583,1.417c-0.794,0.364-1.545,0.809-2.433,1.001
	c-0.75,0.162-1.512,0.325-2.257,0.532c-0.41,0.114-0.826,0.212-1.243,0.295c-0.241,0.048-0.493,0.091-0.736,0.077
	c-1.125-0.069-2.251-0.136-3.373-0.248c-1.366-0.137-2.727-0.345-4.094-0.472c-0.844-0.079-1.696-0.066-2.546-0.09
	c-0.111-0.003-0.227,0.044-0.337,0.028c-1.259-0.194-2.508-0.021-3.842,0.114c0.501-0.562,0.979-1.048,1.574-1.418
	c1.152-0.72,2.149-1.633,3.176-2.517c0.403-0.347,0.711-0.858,1.311-0.969c0.14-0.026,0.285-0.152,0.378-0.272
	c0.608-0.785,1.431-1.346,2.106-2.051c0.647-0.677,1.393-1.189,2.212-1.591c0.354-0.174,0.576-0.479,0.935-0.66
	c1.137-0.572,2.196-1.3,3.319-1.9c0.482-0.259,0.85-0.726,1.438-0.797c0.069-0.008,0.115-0.161,0.185-0.233
	c0.071-0.077,0.155-0.189,0.241-0.195c0.606-0.037,1.13-0.237,1.637-0.591c0.418-0.29,0.94-0.425,1.408-0.646
	c1.224-0.577,2.438-1.171,3.666-1.738c0.723-0.335,1.469-0.621,2.197-0.946c0.571-0.257,1.12-0.57,1.699-0.81
	c0.64-0.263,1.307-0.462,1.958-0.701c0.861-0.317,1.751-0.583,2.573-0.985c1.253-0.612,2.463-1.312,3.681-1.992
	c0.833-0.466,1.65-0.962,2.479-1.438c0.145-0.083,0.311-0.127,0.547-0.223c-0.405-0.199-0.633,0.066-0.893,0.114
	c-0.145,0.027-0.27,0.152-0.408,0.227c-0.328,0.18-0.573,0.455-1.058,0.378c-0.309-0.048-0.691,0.268-1.018,0.461
	c-0.642,0.381-1.266,0.794-1.905,1.182c-0.145,0.088-0.314,0.146-0.481,0.186c-0.35,0.082-0.7,0.137-0.955,0.442
	c-0.045,0.054-0.235-0.013-0.434-0.031c-0.555,0.528-1.354,0.857-2.173,1.044c-1.009,0.233-1.898,0.698-2.809,1.146
	c-0.477,0.233-0.976,0.42-1.454,0.649c-1.239,0.591-2.508,1.105-3.785,1.602c-0.57,0.224-1.065,0.632-1.618,0.913
	c-0.326,0.165-0.698,0.236-1.045,0.362c-0.336,0.121-0.489,0.476-0.881,0.583c-0.632,0.174-1.321,0.382-1.81,0.789
	c-0.965,0.806-2.175,1.125-3.196,1.816c-0.922,0.624-1.801,1.32-2.798,1.844c-0.582,0.307-1.088,0.763-1.614,1.171
	c-0.106,0.084-0.142,0.255-0.219,0.38c-0.16,0.257-0.317,0.528-0.71,0.379c-0.175,0.412-0.348,0.8-0.849,0.904
	c-0.125,0.026-0.225,0.208-0.318,0.333c-0.375,0.497-0.947,0.755-1.392,1.155c-0.4,0.363-0.981,0.45-1.265,1.04
	c-0.204,0.422-0.739,0.696-1.221,0.903c-0.164,0.07-0.337,0.138-0.474,0.246c-0.564,0.444-1.115,0.904-1.672,1.355
	c-0.313,0.256-0.628,0.512-0.925,0.751c0.005,0.025-0.059-0.106-0.019-0.186c0.702-1.352,1.41-2.702,2.131-4.043
	c0.129-0.236,0.328-0.433,0.484-0.655c0.428-0.604,0.841-1.218,1.279-1.815c0.338-0.458,0.703-0.895,1.062-1.337
	c0.35-0.432,0.719-0.847,1.057-1.287c0.844-1.101,1.904-1.979,2.92-2.909c0.476-0.435,0.878-0.951,1.351-1.392
	c0.25-0.235,0.595-0.366,0.867-0.58c1.28-1.005,2.681-1.81,4.105-2.584c0.569-0.307,1.15-0.514,1.77-0.678
	c0.63-0.167,1.228-0.451,1.853-0.651c1.07-0.342,2.156-0.636,3.221-1.001c0.286-0.097,0.528-0.198,0.852-0.177
	c0.313,0.02,0.633-0.145,0.954-0.215c0.829-0.18,1.667-0.326,2.489-0.529c0.988-0.244,1.967-0.482,2.986-0.605
	c0.71-0.086,1.437-0.263,2.115-0.573c0.258-0.118,0.611-0.11,0.9-0.054c0.703,0.138,1.392,0.03,2.074-0.087
	c0.339-0.056,0.651-0.33,0.983-0.348c0.752-0.038,1.35-0.507,2.062-0.656c0.231-0.048,0.431-0.111,0.685-0.106
	c0.299,0.009,0.607-0.131,0.907-0.221c0.818-0.247,0.748-0.344,1.296-0.078c-0.234,0.457-0.435,0.935-0.713,1.362
	c-0.177,0.271-0.494,0.442-0.708,0.691c-0.331,0.386-0.781,0.759-0.903,1.213c-0.18,0.667-0.737,0.974-1.058,1.486
	c-0.138,0.221-0.204,0.484-0.315,0.761C115.808,54.26,115.557,54.496,115.421,54.908z M28.081,106.121
	c0.287-0.084,0.584-0.096,0.896-0.018c0.165,0.042,0.425,0.184,0.564-0.106c0.011-0.021,0.099-0.017,0.146-0.006
	c0.813,0.203,1.632,0.093,2.453,0.065c0.65-0.022,1.302,0.028,1.954,0.043c0.073,0.001,0.146-0.023,0.22-0.024
	c0.43-0.01,0.859-0.203,1.288,0c0.62-0.167,1.247,0.016,1.865-0.029c0.526-0.039,1.017,0.086,1.515,0.186
	c1.425,0.285,2.818,0.688,4.167,1.228c0.743,0.297,1.465,0.67,2.152,1.078c0.613,0.365,1.262,0.663,1.803,1.171
	c0.458,0.429,0.92,0.864,1.405,1.27c0.268,0.224,0.525,0.458,0.776,0.698c0.145,0.14,0.29,0.289,0.394,0.459
	c0.476,0.789,0.954,1.576,1.399,2.383c0.543,0.982,1.035,1.992,1.584,2.971c0.339,0.605,0.743,1.172,1.122,1.754
	c0.05,0.076,0.135,0.133,0.175,0.213c0.453,0.938,1.151,1.696,1.86,2.53c-0.61-0.075-1.159-0.171-1.685-0.399
	c-1.019-0.439-2.096-0.687-3.166-0.966c-0.42-0.11-0.907-0.079-1.26-0.431c-0.082-0.082-0.236-0.121-0.359-0.129
	c-0.81-0.044-1.568-0.336-2.356-0.463c-0.756-0.121-1.446-0.385-2.097-0.749c-0.281-0.156-0.589-0.164-0.877-0.321
	c-0.913-0.498-1.895-0.873-2.819-1.349c-0.397-0.204-0.883-0.234-1.203-0.597c-0.038-0.043-0.162-0.002-0.243-0.015
	c-0.084-0.013-0.199-0.018-0.242-0.072c-0.307-0.391-0.685-0.649-1.158-0.825c-0.389-0.146-0.722-0.436-1.087-0.646
	c-0.956-0.556-1.92-1.096-2.872-1.658c-0.56-0.33-1.099-0.699-1.655-1.037c-0.438-0.266-0.903-0.488-1.333-0.767
	c-0.475-0.308-0.918-0.664-1.381-0.99c-0.613-0.433-1.206-0.906-1.858-1.273c-0.993-0.558-2.024-1.046-3.047-1.549
	c-0.701-0.344-1.414-0.663-2.118-0.999c-0.123-0.059-0.229-0.15-0.402-0.265c0.053,0.365,0.338,0.395,0.49,0.547
	c0.085,0.084,0.228,0.11,0.343,0.168c0.273,0.138,0.571,0.174,0.745,0.536c0.109,0.23,0.501,0.34,0.781,0.471
	c0.555,0.254,1.122,0.481,1.68,0.731c0.127,0.056,0.245,0.144,0.349,0.237c0.217,0.197,0.417,0.407,0.74,0.437
	c0.058,0.005,0.101,0.164,0.181,0.306c0.613,0.128,1.204,0.512,1.712,0.975c0.625,0.572,1.351,0.953,2.075,1.355
	c0.377,0.213,0.734,0.462,1.111,0.678c0.972,0.557,1.906,1.172,2.833,1.799c0.417,0.281,0.921,0.424,1.366,0.664
	c0.263,0.144,0.483,0.361,0.729,0.535c0.237,0.17,0.547,0.107,0.802,0.321c0.41,0.345,0.87,0.711,1.37,0.85
	c0.989,0.274,1.766,0.94,2.705,1.306c0.847,0.33,1.724,0.598,2.539,1.024c0.476,0.249,1.018,0.378,1.536,0.54
	c0.106,0.033,0.237-0.022,0.357-0.029c0.247-0.011,0.503-0.031,0.585,0.302c0.358-0.073,0.699-0.138,1.002,0.151
	c0.075,0.072,0.244,0.055,0.371,0.061c0.508,0.02,0.948,0.285,1.423,0.398c0.43,0.101,0.758,0.449,1.286,0.367
	c0.379-0.059,0.811,0.173,1.174,0.4c0.123,0.078,0.249,0.162,0.386,0.205c0.56,0.172,1.124,0.33,1.687,0.494
	c0.318,0.092,0.637,0.184,0.935,0.273c0.016-0.016-0.044,0.088-0.115,0.098c-1.235,0.156-2.472,0.307-3.708,0.445
	c-0.218,0.023-0.442-0.02-0.664-0.021c-0.605-0.007-1.211,0-1.815-0.018c-0.464-0.015-0.927-0.057-1.391-0.092
	c-0.453-0.035-0.903-0.09-1.355-0.113c-1.133-0.057-2.215-0.361-3.313-0.612c-0.513-0.118-1.047-0.148-1.563-0.261
	c-0.273-0.06-0.522-0.23-0.792-0.314c-1.271-0.395-2.462-0.961-3.644-1.561c-0.471-0.238-0.88-0.534-1.277-0.873
	c-0.404-0.348-0.874-0.617-1.299-0.943c-0.727-0.561-1.429-1.154-2.168-1.7c-0.199-0.147-0.379-0.264-0.515-0.491
	c-0.132-0.219-0.392-0.357-0.587-0.541c-0.507-0.475-0.993-0.969-1.512-1.428c-0.624-0.551-1.238-1.099-1.794-1.727
	c-0.388-0.438-0.844-0.844-1.368-1.156c-0.198-0.118-0.357-0.359-0.453-0.58c-0.233-0.537-0.626-0.949-1.022-1.354
	c-0.194-0.202-0.524-0.285-0.69-0.5c-0.374-0.488-0.967-0.671-1.397-1.081c-0.141-0.133-0.275-0.238-0.39-0.411
	c-0.133-0.205-0.371-0.347-0.57-0.507c-0.546-0.436-0.578-0.343-0.654-0.835c0.416-0.055,0.831-0.142,1.247-0.153
	c0.264-0.007,0.526,0.126,0.793,0.155c0.413,0.043,0.874,0.173,1.235,0.044c0.532-0.189,0.996,0.044,1.49,0.021
	c0.212-0.01,0.42-0.087,0.657-0.141C27.466,106.161,27.74,106.22,28.081,106.121z M66.105,88.386
	c0.043,0.236,0.027,0.474-0.061,0.716c-0.047,0.127-0.182,0.322,0.038,0.458c0.015,0.01,0.005,0.08-0.008,0.117
	c-0.229,0.631-0.211,1.292-0.256,1.95c-0.038,0.52-0.132,1.036-0.197,1.554c-0.008,0.058,0.005,0.119,0,0.177
	c-0.027,0.343,0.091,0.701-0.107,1.027c0.082,0.508-0.116,0.992-0.132,1.488c-0.014,0.423-0.154,0.804-0.274,1.191
	c-0.346,1.113-0.783,2.19-1.326,3.219c-0.3,0.567-0.656,1.112-1.039,1.626c-0.342,0.458-0.634,0.95-1.084,1.339
	c-0.38,0.329-0.766,0.661-1.129,1.014c-0.2,0.194-0.408,0.381-0.621,0.561c-0.124,0.104-0.255,0.208-0.398,0.275
	c-0.669,0.313-1.337,0.629-2.017,0.917c-0.827,0.35-1.674,0.658-2.5,1.014c-0.51,0.22-0.995,0.495-1.49,0.748
	c-0.065,0.033-0.117,0.097-0.185,0.122c-0.785,0.284-1.448,0.776-2.172,1.272c0.111-0.479,0.232-0.909,0.459-1.309
	c0.436-0.775,0.722-1.613,1.033-2.443c0.123-0.326,0.14-0.716,0.449-0.968c0.072-0.059,0.116-0.178,0.132-0.275
	c0.103-0.642,0.398-1.223,0.565-1.84c0.16-0.592,0.427-1.121,0.772-1.608c0.148-0.211,0.18-0.456,0.33-0.672
	c0.473-0.686,0.853-1.437,1.309-2.135c0.195-0.3,0.261-0.684,0.576-0.909c0.038-0.027,0.016-0.129,0.032-0.193
	c0.017-0.066,0.03-0.158,0.077-0.187c0.337-0.212,0.575-0.491,0.756-0.854c0.147-0.298,0.406-0.54,0.605-0.813
	c0.522-0.716,1.033-1.439,1.561-2.15c0.31-0.419,0.649-0.818,0.965-1.233c0.247-0.328,0.464-0.679,0.723-0.999
	c0.284-0.352,0.605-0.676,0.903-1.018c0.396-0.453,0.823-0.886,1.17-1.375c0.527-0.745,1.002-1.526,1.488-2.299
	c0.333-0.529,0.646-1.072,0.973-1.604c0.058-0.093,0.139-0.17,0.245-0.299c-0.296,0.012-0.344,0.236-0.478,0.346
	c-0.074,0.061-0.107,0.172-0.162,0.259c-0.133,0.206-0.188,0.441-0.489,0.548c-0.192,0.069-0.313,0.372-0.44,0.585
	c-0.25,0.42-0.478,0.854-0.723,1.278c-0.056,0.096-0.136,0.183-0.219,0.258c-0.175,0.157-0.359,0.298-0.41,0.553
	c-0.009,0.046-0.139,0.067-0.259,0.119c-0.153,0.478-0.509,0.917-0.92,1.283c-0.507,0.45-0.871,0.997-1.254,1.54
	c-0.2,0.284-0.429,0.548-0.632,0.829c-0.525,0.729-1.093,1.422-1.671,2.109c-0.258,0.308-0.414,0.698-0.644,1.033
	c-0.136,0.198-0.327,0.355-0.487,0.536c-0.154,0.175-0.131,0.427-0.321,0.612c-0.309,0.298-0.64,0.634-0.793,1.022
	c-0.301,0.765-0.896,1.329-1.265,2.047c-0.335,0.648-0.621,1.323-1.029,1.938c-0.237,0.358-0.386,0.78-0.559,1.18
	c-0.035,0.081-0.002,0.19-0.007,0.286c-0.012,0.198-0.017,0.403-0.289,0.441c0.029,0.292,0.052,0.57-0.204,0.786
	c-0.063,0.054-0.063,0.191-0.078,0.291c-0.059,0.404-0.307,0.732-0.437,1.102c-0.116,0.334-0.423,0.566-0.4,0.994
	c0.016,0.307-0.205,0.632-0.417,0.902c-0.073,0.092-0.15,0.186-0.195,0.29c-0.185,0.432-0.356,0.869-0.534,1.303
	c-0.101,0.246-0.2,0.492-0.296,0.723c0.011,0.013-0.066-0.043-0.068-0.101c-0.021-0.998-0.038-1.995-0.046-2.992
	c-0.001-0.176,0.053-0.352,0.072-0.529c0.057-0.481,0.1-0.963,0.165-1.444c0.051-0.369,0.123-0.735,0.19-1.102
	c0.064-0.358,0.146-0.712,0.203-1.07c0.139-0.898,0.473-1.736,0.764-2.589c0.137-0.4,0.206-0.822,0.339-1.224
	c0.07-0.213,0.227-0.397,0.316-0.605c0.419-0.979,0.971-1.881,1.547-2.773c0.23-0.355,0.499-0.657,0.804-0.945
	c0.31-0.294,0.564-0.646,0.859-0.956c0.508-0.534,1.038-1.043,1.536-1.587c0.134-0.146,0.241-0.279,0.434-0.369
	c0.187-0.087,0.317-0.282,0.48-0.422c0.42-0.365,0.855-0.711,1.264-1.086c0.492-0.451,0.979-0.895,1.526-1.286
	c0.381-0.272,0.742-0.602,1.034-0.994c0.112-0.148,0.317-0.255,0.501-0.313c0.448-0.141,0.809-0.419,1.164-0.701
	c0.178-0.139,0.271-0.395,0.456-0.509c0.42-0.258,0.616-0.715,0.979-1.024c0.117-0.101,0.212-0.2,0.36-0.276
	c0.175-0.089,0.307-0.266,0.452-0.411c0.392-0.399,0.32-0.433,0.719-0.453c0.009,0.336,0.044,0.674,0.019,1.007
	c-0.017,0.211-0.145,0.409-0.189,0.62c-0.068,0.325-0.211,0.681-0.138,0.98c0.105,0.44-0.119,0.79-0.142,1.186
	c-0.01,0.17,0.035,0.343,0.058,0.536C66.125,87.892,66.055,88.106,66.105,88.386z" class="color c1"/>
</svg>