<svg version="1.1" id="图层_1" x="0px" y="0px" width="192.758px" height="166.842px" viewBox="0 0 192.758 166.842" enable-background="new 0 0 192.758 166.842" xml:space="preserve" xmlns="http://www.w3.org/2000/svg" xmlns:xlink="http://www.w3.org/1999/xlink" xmlns:xml="http://www.w3.org/XML/1998/namespace">
  <path fill="#40C4ED" d="M83.997,82.99c-0.044,6.81,5.467,12.385,12.285,12.429c6.818,0.044,12.401-5.459,12.445-12.268
	c0.044-6.81-5.467-12.386-12.285-12.43C89.624,70.677,84.042,76.181,83.997,82.99z M102.172,83.146
	c-0.021,3.192-2.635,5.773-5.831,5.752c-3.193-0.021-5.776-2.635-5.755-5.827c0.021-3.193,2.635-5.773,5.831-5.752
	C99.612,77.34,102.193,79.953,102.172,83.146z M142.638,0.648c-2.145,0.57-12.985,3.656-15.771,8.409
	c-1.892,3.221-1.961,7.59-0.198,10.89l-3.012,5.136c-0.863-0.192-1.716-0.306-2.545-0.337l-0.386-1.477
	c-0.804-3.083-3.97-4.938-7.057-4.135c-2.52,0.655-4.293,2.924-4.326,5.519l-24.532-0.159c-0.543-1.908-2.037-3.461-4.023-4.004
	c-3.038-0.833-6.182,0.93-7.075,3.933l-0.936-0.007c-0.953-0.006-1.945,0.111-2.948,0.323l-2.052-3.604
	c1.808-3.277,1.793-7.643-0.055-10.893c-2.725-4.788-13.524-8.015-15.661-8.613L49.63,0.951l-0.656,2.435
	c-0.072,0.265-1.758,6.563-1.792,11.815c-0.017,2.621,0.375,4.597,1.195,6.038c1.922,3.374,5.482,5.506,9.345,5.616l1.994,3.503
	c-0.793,0.823-1.479,1.699-2.014,2.608l-0.368,0.622c-2.981-0.658-6.001,1.128-6.823,4.104c-0.134,0.488-0.204,0.992-0.207,1.497
	c-0.01,1.458,0.545,2.809,1.463,3.849L39.235,64.303c-2.167-1.125-4.889-0.825-6.713,0.968c-1.101,1.083-1.714,2.534-1.724,4.085
	c-0.01,1.55,0.582,3.008,1.665,4.105l0.871,0.885c-0.441,0.797-0.813,1.667-1.105,2.595l-5.632-0.036
	c-1.957-3.334-5.567-5.408-9.493-5.435C11.597,71.435,3.4,79.135,1.812,80.68L0,82.445l1.787,1.791
	c1.566,1.57,9.658,9.408,15.173,9.444c3.93,0.025,7.564-1.987,9.56-5.273l5.635,0.037c0.278,0.924,0.635,1.791,1.061,2.588
	l-0.868,0.854c-1.099,1.085-1.711,2.532-1.722,4.075c-0.01,1.545,0.584,3,1.673,4.1c1.8,1.817,4.509,2.163,6.684,1.085
	l12.546,21.937c-1.649,1.028-2.721,2.84-2.734,4.856c-0.003,0.503,0.06,1.009,0.189,1.502c0.808,3.081,3.976,4.933,7.059,4.131
	l1.317-0.344c0.464,0.73,1.011,1.441,1.641,2.116l-2.947,5.023c-3.866,0.059-7.454,2.145-9.417,5.495
	c-0.84,1.432-1.257,3.4-1.273,6.021c-0.035,5.275,1.567,11.572,1.636,11.837l0.627,2.443l2.438-0.647
	c2.145-0.57,12.987-3.657,15.772-8.408c1.892-3.223,1.963-7.591,0.198-10.892l2.99-5.099c0.874,0.199,1.738,0.316,2.58,0.351
	l0.374,1.43c0.743,2.845,3.324,4.573,6.275,4.204c2.96-0.371,5.041-2.645,5.101-5.54l25.153,0.163
	c-0.002,2.598,1.74,4.889,4.252,5.577c3.075,0.843,6.266-0.971,7.112-4.042l0.404-1.471c0.831-0.015,1.688-0.116,2.556-0.293
	l2.938,5.16c-1.81,3.278-1.793,7.648,0.057,10.892c2.723,4.788,13.522,8.016,15.659,8.613l2.431,0.679l0.656-2.435
	c0.072-0.266,1.756-6.562,1.79-11.816c0.017-2.622-0.372-4.596-1.193-6.036c-1.92-3.375-5.48-5.507-9.345-5.617l-2.851-5.008
	c0.658-0.675,1.237-1.387,1.726-2.125l1.223,0.336c3.075,0.844,6.266-0.972,7.116-4.049c0.132-0.492,0.202-0.992,0.205-1.488
	c0.013-1.983-0.999-3.788-2.59-4.845l12.885-21.868c2.163,1.108,4.875,0.795,6.698-1c1.103-1.083,1.716-2.532,1.726-4.078
	c0.01-1.541-0.583-2.996-1.669-4.096l-0.856-0.866c0.435-0.791,0.802-1.653,1.092-2.573l5.635,0.037
	c1.953,3.316,5.561,5.38,9.491,5.405c5.52,0.035,13.708-7.692,15.294-9.242l1.809-1.767l-1.787-1.789
	c-1.566-1.566-9.656-9.387-15.172-9.423c-3.925-0.025-7.562,2.003-9.562,5.312l-5.633-0.037c-0.28-0.93-0.639-1.803-1.068-2.604
	l0.877-0.867c1.083-1.068,1.71-2.563,1.72-4.102c0.015-2.261-1.384-4.317-3.565-5.24c-1.603-0.676-3.348-0.619-4.806,0.08
	l-12.565-21.97c1.638-1.031,2.699-2.837,2.712-4.844c0.003-0.5-0.06-1.005-0.189-1.502c-0.808-3.08-3.976-4.933-7.059-4.129
	l-1.293,0.338c-0.471-0.732-1.025-1.442-1.661-2.116l2.944-5.019c3.863-0.06,7.451-2.146,9.417-5.496
	c0.839-1.43,1.256-3.4,1.273-6.022c0.034-5.276-1.567-11.571-1.636-11.836L145.076,0L142.638,0.648z M144.337,14.263
	c-0.013,2.052-0.302,3.573-0.859,4.523c-1.671,2.848-4.867,4.393-8.143,3.934l-0.332-0.046l-9.318,15.884l11.731-3.059
	c1.485-0.388,3.01,0.504,3.399,1.987c0.389,1.482-0.539,3.013-1.991,3.392l-17.117,4.463l-9.316,15.88l23.241-0.427l-12.269,19.738
	l18.436,0.119l12.589-12.447c0.916-0.903,2.156-0.84,3.011-0.479c0.843,0.355,1.742,1.188,1.734,2.456
	c-0.005,0.748-0.306,1.471-0.827,1.985l-8.63,8.536l18.43,0.119l0.127-0.314c1.24-3.064,4.203-5.03,7.546-5.009
	c3.969,0.025,11.021,6.569,12.703,8.187c-1.702,1.597-8.837,8.06-12.808,8.034c-3.402-0.022-6.269-1.968-7.481-5.077l-0.123-0.316
	l-18.433-0.119l8.522,8.618c1.046,1.057,1.032,2.885-0.027,3.927c-1.095,1.078-2.863,1.067-3.941-0.023l-12.427-12.573
	l-18.435-0.119l12.01,19.855l-23.357-0.768l9.156,16.081l17.058,4.683c1.445,0.398,2.347,1.937,1.949,3.417
	c-0.408,1.479-1.947,2.35-3.429,1.943l-11.687-3.211l9.109,16.004l0.332-0.042c3.282-0.415,6.458,1.17,8.091,4.039
	c0.544,0.956,0.814,2.481,0.801,4.533c-0.026,4.061-1.172,9-1.561,10.558c-2.234-0.673-11.408-3.614-13.37-7.063
	c-1.597-2.803-1.31-6.49,0.66-9.01l0.205-0.264l-9.109-15.999l-3.208,11.673c-0.408,1.479-1.945,2.351-3.427,1.944
	c-1.449-0.397-2.349-1.953-1.949-3.417l4.689-17.042l-9.078-15.947l-11.143,20.191l-10.944-20.454l-9.219,15.716l-0.107,0.179
	l4.471,17.103c0.061,0.236,0.093,0.479,0.091,0.721c-0.011,1.629-1.255,2.514-2.482,2.667c-1.108,0.14-2.561-0.298-3.001-1.985
	l-3.063-11.714l-9.313,15.88l0.204,0.266c1.935,2.547,2.174,6.238,0.541,9.019c-2.006,3.421-11.22,6.244-13.463,6.89
	c-0.367-1.563-1.448-6.513-1.422-10.576c0.014-2.052,0.303-3.573,0.86-4.523c1.671-2.848,4.866-4.392,8.143-3.934l0.332,0.046
	l9.318-15.885l-11.729,3.06c-1.487,0.388-3.012-0.505-3.401-1.986c-0.387-1.463,0.539-3.015,1.991-3.393l17.117-4.462l9.332-15.908
	l-23.23,0.465l12.269-19.698L50.96,85.566L38.369,97.976c-1.091,1.077-2.858,1.064-3.939-0.026
	c-1.046-1.057-1.036-2.883,0.023-3.926l8.633-8.509l-18.433-0.119l-0.127,0.314c-1.25,3.088-4.144,4.993-7.546,4.971
	c-3.969-0.025-11.02-6.583-12.703-8.205c1.706-1.593,8.84-8.031,12.808-8.006c3.344,0.022,6.28,2.026,7.481,5.105l0.123,0.316
	l18.428,0.119L34.6,71.355c-1.044-1.059-1.032-2.906,0.025-3.947c1.089-1.07,2.856-1.046,3.941,0.052l12.429,12.603l18.402,0.119
	l-12.01-19.895l23.232,0.744l-8.213-14.435l-17.058-4.688c-1.447-0.398-2.353-1.961-1.947-3.419
	c0.408-1.479,1.945-2.351,3.427-1.943l11.688,3.208l-9.111-16.002l-0.332,0.042c-3.28,0.415-6.458-1.171-8.091-4.04
	c-0.544-0.956-0.814-2.481-0.801-4.533c0.026-4.062,1.172-8.999,1.561-10.558c2.234,0.674,11.41,3.616,13.372,7.063
	c1.595,2.802,1.31,6.489-0.66,9.012l-0.207,0.264L73.358,37l3.21-11.673c0.406-1.479,1.943-2.351,3.425-1.945
	c1.451,0.397,2.349,1.967,1.949,3.416l-4.689,17.045l8.2,14.404l11.202-20.301l10.94,20.444l9.198-15.682l0.104-0.178l-4.469-17.104
	c-0.377-1.463,0.541-3.012,1.995-3.391c1.487-0.387,3.013,0.506,3.399,1.989l3.061,11.713l9.314-15.879l-0.203-0.267
	c-1.937-2.546-2.175-6.237-0.541-9.019c2.006-3.421,11.22-6.245,13.463-6.89C143.282,5.249,144.363,10.199,144.337,14.263z" class="color c1"/>
</svg>