<svg version="1.1" id="图层_1" x="0px" y="0px" width="154.9px" height="166.8px" viewBox="0 0 154.9 166.8" enable-background="new 0 0 154.9 166.8" xml:space="preserve" xmlns="http://www.w3.org/2000/svg" xmlns:xlink="http://www.w3.org/1999/xlink" xmlns:xml="http://www.w3.org/XML/1998/namespace">
  <path fill="#020202" d="M154.4,114.8c-0.3,0-0.5,0.3-0.8,0.4c-0.7,0.6-1.6,0.8-2.5,0.9c-3,0-6-0.4-9.2-0.1c0.3-0.6,0.7-0.9,1.1-1.2
	c2-1.9,3.8-4.1,4.9-6.7c1.6-3.8,1-7.2-1.7-10.4c-1.4-1.7-3.3-2.8-5.1-3.8c-1.4-0.8-3-1.1-4.4-1.9c-0.3-0.1-0.6-0.2-0.8,0.1
	c-0.3,0.3,0,0.5,0.1,0.8c0.3,0.9,0.7,1.8,0.9,2.7c0.7,3.2,0.5,6.2-1.2,9.1c0,0.1-0.1,0.1-0.1,0.1c-0.7-0.7-2-2.1-2.6-2.7
	c-3.4-3.1-6.8-6.3-10.2-9.4c-3.1-2.9-6.5-5.3-10.7-6.4c-1-0.3-1.9-0.4-2.9-0.1c-1.5,0.4-1.7,0.3-2.2-1.1c-0.8-1.9-2-3.6-3-5.3
	c-1.3-2.1-3.2-3.7-4.6-5.7c-1-1.3-2.5-1.7-3.7-2.7c-0.2-0.2-0.6-0.2-0.9-0.1c-2.1,0.9-4.3,1.5-5.6,3.6c-1.4,2.3-2.8,4.6-4.1,6.9
	c-1.1,2-2.1,4.1-3.6,6.4c0-2,0.5-3.6,1-5.2c0.9-2.9,1.9-5.8,3.1-8.6c0.8-1.8,1.9-3.4,3.4-4.6c3.1-2.6,6.4-4.8,10.4-6
	c0.3,0.3,0.2,0.9,0.6,1.1c1.5,0.8,2.8,2.1,4.5,2.6c3.9,1.1,7.6,0.6,11.1-1.3c2.5-1.3,4.7-3.1,7-4.6c0.8-0.6,1.5-1.3,2.2-2
	c0.8-0.7,1.3-1.6,1.6-2.7c0.3-1.1,0.1-1.5-1-1.7c-1.6-0.3-3.1-0.6-4.7-0.5c-1.8,0.1-3.6,0-5.4-0.1c-0.6,0-1.3-0.2-1.9-0.1
	c-5.1,0.4-9.1,3-12.4,6.8c-0.8,1-1.6,1.7-2.8,2c-2.6,0.9-5,2.2-7.2,3.9c-0.7,0.5-1.4,1-2.2,1.4c-0.3-0.4-0.1-0.6,0-0.8
	c2.9-4.9,5.7-9.7,8.9-14.4c1-1.4,1.9-3,3.1-4.2c2.2-2.4,4.9-4.2,7.9-5.6c0.8-0.4,1.5-0.3,2,0.4s1.2,1,2,1.2c0.4,0.1,0.9,0.2,1.3,0.4
	c2.9,1,5.9,1,8.8,0.2c2.9-0.7,5.5-1.9,8-3.6c2.7-2,5.1-4.1,6.5-7.2c0.4-0.9,0.3-1.1-0.7-1.2c-1.8-0.1-3.7-0.1-5.5-0.2
	c-2.5-0.1-5-0.2-7.5,0c-4.7,0.5-8.6,2.6-12,5.8c-0.5,0.5-1,1.1-1.3,1.8c-0.3,0.9-1,1.4-1.9,1.8c-1.3,0.6-2.6,1.3-3.8,2.2
	c-0.4,0.2-0.7,0.7-1.4,0.6c0.2-0.3,0.2-0.5,0.4-0.6c1.4-2,2.8-4.1,4.3-6.1c1.6-2.3,2.7-4.9,4.3-7.2c0.3-0.4,0.4-0.8,0.8-1
	c1.4-0.7,2.8-1.4,4.2-2.2c4.4-2.4,6.8-6.3,8.5-10.8c1.2-3.3,1.4-6.7,1.5-10.1c0.1-2.3,0.1-4.7-0.4-7c-0.2-1.1-0.4-1.2-1.4-0.5
	c-0.2,0.2-0.5,0.4-0.7,0.6c-1.3,1.1-2.6,2.3-4,3.4c-3.9,3.3-7.3,7.1-9.4,11.8c-1.8,4-1.8,8.1,0.1,12.1c0.6,1.4,0.7,2.6-0.2,3.9
	c-0.8,1.2-1.5,2.3-2.2,3.6c-1,1.9-2.1,3.6-3.3,5.3c-2.4,3.5-5,6.8-7.4,10.3c-1.9,2.8-3.8,5.5-5.5,8.3c-0.3,0.5-0.6,1-1.1,1.3
	c-0.2-0.3-0.1-0.6-0.1-0.8c0.6-2.8,1.5-5.5,2.4-8.2c0.1-0.3,0.3-0.5,0.5-0.7c1.5-2.3,2.8-4.7,3.4-7.4c0.5-2.6,0.6-5.1,0.5-7.7
	c-0.1-1.3-0.4-2.5-1-3.6c-1.2-2-2.4-4-3.8-5.9c-0.9-1.2-1.9-2.4-2.8-3.7c-0.5-0.7-1-1.4-1.6-2c-0.3-0.4-0.8-0.3-0.9,0.2
	c-0.2,0.9-0.5,1.7-0.8,2.6c-1.3,4.5-2.4,8.9-2,13.7c0.3,3.2,1.2,6.1,3.3,8.7C90,47.6,91.3,49,93,50c0.5,0.3,0.7,0.7,0.5,1.2
	c-0.1,0.3-0.2,0.6-0.3,0.8c-1,3.1-2.2,6.1-2.5,9.3c-0.3,2.1-1,3.9-2.2,5.6c-1.3,1.9-2,4.1-3.5,5.9c-0.6,0.7-0.5,1.7-0.8,2.5
	c-1.4,3.5-2.7,7.1-3.5,10.8c-0.2,0.8-0.4,1.7-0.7,2.8c-2.2-3.1-5.2-5-8-7.2c1.2-1,2.5-1.4,3.6-2.4c2.6-2.3,4.7-4.9,6.4-7.8
	c1.5-2.5,2.7-5.2,3.5-8c0.5-1.6,0.6-3.3,1.3-4.9c0.7-1.5,0.8-3.1,1.4-4.6c0.3-0.8,0-1.1-0.9-0.9c-1.7,0.5-3.5,0.7-5.3,1
	c-1.5,0.3-3,0.2-4.4,0.6c-2.5,0.6-5.1,1-7.5,2.1c-2,0.9-3.9,1.9-5.3,3.7c-0.2,0.2-0.3,0.5-0.7,0.3c0-4.3-0.2-8.6-0.8-12.9
	c-0.4-2.7-0.2-5.5,1-8.1c1-2.2,1.4-4.6,1.8-6.9c0.1-0.6,0.2-1.2,0-1.8c-0.2-1-1-1.4-1.9-1c-0.5,0.2-1,0.5-1.4,0.8
	c-1.7,1.1-3.1,2.6-4.6,4c-2.4,2.3-5.1,4.1-7.7,6.2c-3.1,2.5-5.7,5.5-8.1,8.8c-1,1.4-1.8,2.8-2.7,4.3c-0.9-1-1.7-1.8-2.5-2.7
	C34.7,49,31.7,47,28.1,46c-2.2-0.6-4.4-1-6.5-1.7c-1.8-0.6-3.4-1.6-5.3-2c-1-0.2-1.2,0-0.9,0.9c0.6,2.2,0.8,4.4,0.9,6.7
	c0.1,4,0.5,8,1.4,12c1,4.5,3,8.3,6.5,11.3c0.6,0.5,1.4,1,1.9,1.7c-0.4,0.3-0.7,0.6-1.1,0.8c-2.3,1.3-4.4,2.9-6.4,4.6
	c-1.5,1.2-2.9,2.6-4.4,3.9c-3.1,2.7-5.7,5.8-8.2,9c-2.4,3-4.1,6.3-5.3,10C0.3,104.1,0,105,0,106c0,1.3,1,2,2.3,1.5
	c0.4-0.1,0.7-0.4,1-0.7c1.5-1.4,3.4-2.5,5.3-3.1c3-1,6.2-1.7,9.4-1.5c2.2,0.1,4.5,0.2,6.7-0.2c2.4-0.5,4.8-1,7.1-1.9
	c0.3-0.1,0.7-0.3,1.1-0.1c-1.1,2.3-1.3,3.2-1.3,5c0,4.1,1.3,7.8,3.4,11.3c1.7,2.7,3.4,5.4,5.2,8c0.9,1.3,1.6,2.8,1.9,4.4
	c0.2,0.8,0.6,1.3,1.4,1.5c0.8,0.2,1.5-0.1,2-0.7c0.6-0.7,1-1.6,1.2-2.6c0.4-2.8,1.4-5.4,2.9-7.8c0.3-0.5,0.4-1,1.1-1.1
	c0.6,3.5,1.3,6.9,2.2,10.2c0.5,1.8,0.8,3.6,1.2,5.4c0.5,2.7,0.9,5.4,1.3,8.1c0.5,3.4,1.4,6.6,1.5,10c0.1,1.8,0.2,3.7,0.3,5.5
	c0,0.5-0.3,1.3,0.5,1.3c0.6,0,0.3-0.8,0.3-1.3c-0.1-4.1-0.2-8.2-1.1-12.2c-0.7-2.8-0.9-5.7-1.4-8.5c-0.9-5.3-2.2-10.4-3.4-15.6
	c-0.3-1.3-0.3-2.7-0.4-4c0-0.4,0-0.7,0.3-1c0.8-0.9,1.5-1.7,2.3-2.6c-0.1,2.5,0.2,4.8,0.4,7.2c0.2,2.9,0.3,5.9,0.9,8.8
	c0.7,3.8,1.8,7.5,2.4,11.4c0.9,6.4,2.3,12.6,3.1,19c0,0.3,0,0.6,0.5,0.7c0.2-0.2,0.2-0.4,0.2-0.6c0.1-1.7-0.2-3.3-0.5-4.9
	c-0.6-3.9-1.3-7.9-2-11.8c-0.5-2.6-0.8-5.3-1.4-7.9c-0.6-2.6-1.3-5.2-1.7-7.9c-0.3-2.9-0.5-5.8-0.7-8.6c-0.3-3.3-0.2-6.6,1.3-9.6
	c0.2-0.4,0.3-0.8,0.4-1.3c0.3-1.1,0.4-1.2,1.4-0.7c1.7,0.8,3.4,1.4,5.2,1.9c2.7,0.7,5.4,1.3,8.2,1.8c1.1,0.2,1.1,0.3,1,1.4
	c-0.4,2-1,3.9-1.4,5.8c-1,4.2-2,8.3-2.9,12.5c-1.1,5.4-2,10.8-2.7,16.2c-0.8,6.1-1.5,12.2-2.6,18.2c-0.1,0.3-0.1,0.6-0.1,0.9
	c0,0.3,0.2,0.5,0.5,0.5c0.3,0,0.4-0.2,0.5-0.5c0.2-1.3,0.3-2.7,0.5-4c0.8-4.5,1.3-9,1.8-13.5c0.8-7,2-13.9,3.5-20.8
	c1.1-4.9,2.4-9.8,3.6-14.6c0.1-0.3,0.2-0.7,0.3-1c0.1-0.2,0.2-0.3,0.5-0.3c0.9,0,1.6,0.7,1.3,1.6c-0.3,1.1-0.7,2.2-1,3.3
	c-0.8,3.1-1.6,6.3-2.2,9.5c-0.5,2.8-1.1,5.7-1.6,8.5c-0.8,5.1-1.4,10.3-2.2,15.4c-0.8,5.3-1.8,10.5-3.1,15.7
	c-0.1,0.2-0.1,0.5-0.1,0.7s0.1,0.4,0.3,0.4c0.2,0,0.3-0.2,0.4-0.3c0.1-0.2,0.1-0.4,0.2-0.6c0.6-3,1.2-5.9,1.8-8.9
	c1-5.1,1.5-10.2,2.4-15.4c0.5-3.2,0.9-6.5,1.5-9.8c0.8-4.5,1.7-8.9,2.8-13.3c0.4-1.7,0.9-3.4,1.6-5c0.3-0.7,0.6-0.8,1.3-0.5
	c1.1,0.7,2.3,1.2,3.3,2.1c1,0.8,2,1.4,3.2,1.9c0.7,0.3,1.5,0.5,2.1,1.2c0.4-0.9,0.7-1.7,0.5-2.6c-0.1-0.7-0.3-1.4-0.3-2.1
	c0-2.8-0.2-5.6-0.4-8.4c-0.2-3.5-0.8-6.9-2.5-10.1c-0.2-0.4-0.4-0.8-0.3-1.3c0.2-1.1,0.3-2.2,0.9-3.1c1.5-2.3,2.5-4.9,3.9-7.2
	c1.2-2.2,2.7-4.2,4.3-6.1c1.4-1.6,2.4-1.6,3.9-0.2c1.3,1.2,2.7,2.4,3.8,3.7c1.7,2,3,4.1,3.9,6.5c0.3,0.8,0.3,1.5-0.2,2.1
	c-1,1.4-1.6,3-2.3,4.5c-1.5,3.2-1.8,6.5-1.4,9.9c0.4,3.2,0.8,6.3,1.6,9.4c1,3.5,1.9,7,3.1,10.4c0.2,0.5,0.4,1,0.3,1.6
	c-2.2,0.1-4.1-0.4-5.5-2.1c-1.1-1.3-2.1-2.7-2.4-4.4c-0.1-0.5-0.3-1-0.8-1.2c-0.6-0.1-0.8,0.4-1.1,0.8c-1,1.2-1.5,2.7-2,4.2
	c-0.3,1.1-0.6,2.2-0.8,3.3c-0.2,2.2,0.6,4.1,1.4,6c1,2.5,2.8,4,5.4,4.8c1.5,0.5,3.1,0.7,5,0.3c-0.9,1.6-1.1,3.2-2,4.6
	c-0.9,1.4-2.2,2.3-3.6,3c-0.4,0.2-0.9,0.4-0.8,0.9c0,0.6,0.4,1,0.9,1.1c1.2,0.2,2.3,0.8,3.5,0.8c2.7,0,5.5-0.4,8.2-0.8
	c3.7-0.4,6.8-2.2,9.6-4.5c2.1-1.8,3.7-3.9,4.1-6.7c0.1-0.6,0.2-1.2,0.3-1.7c2,0.6,4-0.4,4.9-2.2c0.4-0.9-0.1-1.9-1-2.1
	c-0.6-0.1-1.2-0.2-1.8,0.1c-0.3,0.1-0.6,0.3-0.8,0c-0.5-0.5-0.9-1.1-0.9-1.8c0-0.6,0.7-0.6,1.1-0.8c0.2-0.1,0.5-0.2,0.6-0.4
	c0.4-0.4,0.8-0.3,1.2-0.1c2.8,1.7,5.8,2.8,9.1,2.8c0.5,0,0.8,0.2,0.9,0.7c0.3,1.1,0.3,2.3-0.1,3.4c-0.8,2-2.4,3.5-4.3,4.3
	c-2.8,1.3-5.8,2.2-9,1.5c-0.2-0.1-0.5-0.1-0.6,0.2s0.2,0.4,0.4,0.5c0.9,0.3,1.8,0.4,2.8,0.3c3-0.2,5.6-1.2,8.2-2.7
	c1.5-0.9,2.6-2.2,3.2-3.8c0.5-1.2,0.4-2.4,0.3-3.5c-0.1-0.8,0.2-1.2,1.1-1.5c1.3-0.4,2.6-0.6,3.9-1c3.1-1,5.1-3.4,7.3-5.5
	c2-2,2.6-4.8,4-7.1C155.1,114.9,154.7,114.8,154.4,114.8z" class="color c1"/>
  <path fill="#E0F3ED" d="M135.1,105.4L135.1,105.4c-1.3,2.1-2.7,4.1-3.5,6.5c-0.1,0.4-0.1,0.9-0.6,1.2c-1.4-0.7-2.7-1.5-4.1-2
	c-2.1-0.8-3.7-2.2-4.9-4c-1-1.4-2.5-2.5-2.5-4.4c0-0.4-0.6-0.5-0.9-0.2c-0.2,0.2-0.3,0.5-0.2,0.8c0.4,1.4-0.3,2.6-0.9,3.8
	c-1.3,2.4-2.7,4.6-4.2,6.9c-2.2,3.5-4,7.2-3.7,11.5c0,0.1-0.1,0.3-0.1,0.5c-0.6-0.2-1.3-0.4-1.9-0.3c-1.1,0-1.6-0.5-1.9-1.5
	c-0.9-3.2-1.9-6.4-2.8-9.6c-1-3.6-1.6-7.3-2-11c-0.2-2.4-0.2-4.9,0.6-7.2c0.9-2.6,1.9-5.2,4-7.3c1.2-1.2,2.6-2.1,4.2-2
	c1.9,0,3.9,0.3,5.6,1.2c2.7,1.4,5.1,3.1,7.3,5.2c2.1,1.9,4,4.1,6.3,5.9C130.7,100.9,133.4,103.5,135.1,105.4z M112.7,28.3
	c0.4-0.3,0.4-0.7,0.5-1c0.9-2.9,1.8-5.8,3.5-8.4c1-1.4,1.9-2.9,2.9-4.3c1.1-1.6,2.1-3.1,2.8-4.9c0.3-0.9,0.8-1.8,1.3-2.9
	c0.4,0.9,0.1,1.4,0,1.9c-1,3.1-2.8,5.7-4.7,8.3c-2.4,3.4-4.3,7.1-5.1,11.2c-0.1,0.4-0.2,0.8,0,1.3c0.8-0.4,1.4-0.7,2.1-1
	c4.3-1.8,6.8-5.3,8.5-9.4c1.1-2.6,1.9-5.5,1.7-8.4c0-0.4,0-0.8,0.1-1.2c0.6-2.3-0.1-4.6-0.1-6.8c0-0.4-0.1-0.9-0.4-1.2
	c-0.4,0.1-0.6,0.3-0.9,0.5c-3,2.7-6.1,5.2-8.8,8.3c-1.8,2.1-3.2,4.4-4.3,7c-1.2,2.8-0.9,5.8-0.5,8.7C111.5,26.8,112,27.6,112.7,28.3
	z M89.2,45c0.6,0.7,1.2,1.5,1.8,2.2c0.6,0.8,1.3,1.4,2.5,1.6c0.1-3-0.3-5.9-1.3-8.7c-0.6-1.9-1.4-3.7-1.7-5.7
	c-0.1-0.8-0.2-1.5,0.3-2.2c0.3,2.4,0.9,4.6,1.8,6.8c1.1,2.7,1.7,5.5,1.8,8.4c0,0.5,0,1.1,0.5,1.6c1.7-2.3,2.4-4.9,2.7-7.6
	c0.1-1.5,0.1-3,0.1-4.5c0-1.4-0.3-2.7-1.1-4c-1.9-3.3-4.2-6.3-6.5-9.3c-0.3-0.4-0.4-0.9-1.1-1c-0.5,0.7-0.7,1.4-0.9,2.2
	c-0.4,1.5-0.8,3.1-1.1,4.6c-0.8,3.4-1,6.9-0.1,10.4C87.3,41.7,87.9,43.5,89.2,45z M115.8,60.7c-2.2,0.6-4.3,1.2-6.6,1.3
	c-2,0.1-4.1,0.4-6.1,0.9c-0.9,0.2-1.8,0.5-2.5,1.1c0.8,1,3.4,2.6,4.3,2.9c3,0.7,6,0.6,8.9-0.8c3.1-1.5,5.8-3.5,8.5-5.5
	c0.6-0.4,1.2-1.1,1.7-1.6s1-1.1,1.2-1.9c0.2-0.6,0-1.1-0.7-1.2c-1-0.2-2.1-0.4-3.1-0.3c-2,0.1-4.1,0-6.1-0.1c-1.3-0.1-2.7-0.2-4,0.1
	c-3.7,0.9-6.8,2.7-9.2,5.7c-0.2,0.3-0.6,0.5-0.5,1.1c4.8-1.2,9.9-0.9,14.8-2.5C116.3,60.6,116.1,60.7,115.8,60.7z M135.4,34.7
	c-3.8-0.2-7.7-0.5-11.5-0.2c-2,0.1-4,0.7-5.9,1.6c-1.9,0.9-3.5,2.1-5.1,3.3c-0.7,0.5-1.4,1.2-1.7,2.4c3-1.5,6.1-2.1,9.1-2.7
	c3.1-0.6,6.1-1.2,9.2-1.9c0,0.1,0.1,0.3,0.1,0.4c-2.3,0.7-4.6,1.2-6.9,1.7c-2.7,0.5-5.5,1.1-8.1,2c-1,0.3-1.9,0.8-2.8,1.4
	c-0.5,0.4-0.5,0.8-0.1,1.3c0.3,0.4,0.7,0.6,1.1,0.6c0.4,0.1,0.9,0.1,1.3,0.2c3.6,1.3,7.1,0.9,10.7-0.3c2.9-1,5.3-2.8,7.8-4.6
	c1.6-1.2,2.5-2.7,3.3-4.3C136.2,35,136,34.7,135.4,34.7z M104.5,86.6c0.2,0.4,0.2,0.9,0.7,1.3c0.2-0.2,0.5-0.3,0.7-0.5
	c0.9-0.7,0.9-0.7,0.4-1.8c-1.1-2.7-2.8-5.2-4.6-7.5c-1-1.3-2.2-2.5-3.2-3.8c-0.9-1.1-2.2-1.5-3.3-2.2c-0.2-0.2-0.7-0.1-1,0
	c-1.8,0.8-3.6,1.6-4.8,3.4c-1.7,2.6-3.2,5.4-4.7,8.1c-1.1,2.1-2.3,4.1-3.2,6.2c-0.5,1.2-0.4,1.5,0.7,2.4c0.5-0.4,0.6-1.1,0.9-1.7
	c1.8-2.8,3.1-5.8,4.7-8.6c1.2-2.2,2.8-3.9,4.4-5.8c1.1-1.3,3.1-1,4-0.1c1.4,1.4,3,2.6,4.2,4.2C102.2,82.2,103.6,84.2,104.5,86.6z" class="color c2"/>
  <path fill="#FBF3F1" d="M110.6,125.9c-0.4-1.7-0.4-3.5,0.3-5.1c0.8-2.1,1.7-4.2,2.9-6.2c1.9-3.1,4.1-6,5.4-9.4
	c0.7,0.3,0.9,0.8,1.2,1.2c1.8,2.4,3.7,4.6,6.7,5.6c0.8,0.3,1.6,0.8,2.4,1.2c2.5,1.2,2.8,4.3,1.7,6.3c-1.1,1.9-2.7,3.3-4.4,4.6
	c-2.4,2-5.3,3-8.3,3.7c-2.3,0.5-4.5,0.1-6.7-0.6C111,127,110.7,126.5,110.6,125.9z M138.3,117.2c3.8-2.3,6.9-5.3,8.8-9.4
	c1.7-3.6,0.4-7.6-1.7-9.8c-1.1-1.1-2.4-1.9-3.6-2.8c-1.4-1-3-1.1-4.4-1.9c-0.3,0.4-0.2,0.6-0.1,0.8c0.5,1.6,0.8,3.3,0.7,5
	c-0.1,2-0.5,3.8-1.5,5.5c-0.8,1.3-1.6,2.6-2.4,3.9c-0.9,1.4-1.6,2.9-1.9,4.5c-0.2,1.2,0,2.5,0.7,3.4
	C134.4,118.2,136.3,118.5,138.3,117.2z M130.9,123.7c-0.7,0.1-1.3,0.3-1.6,1.2C130.8,125.2,130.8,125.2,130.9,123.7z M117.1,132.7
	c-0.5,0-1.2,0-1.8,0.2c-0.5,0.2-0.9,0.4-1.2,0.8c-0.3,0.5-0.2,0.9,0.3,1c1.5,0.3,2.9,0,4.3-0.8c0.3-0.2,0.4-0.5,0.3-0.8
	c-0.1-0.4-0.3-0.6-0.7-0.6C118,132.6,117.6,132.7,117.1,132.7z M104.2,136.2c3.2-1,4.7-3.7,6.4-6.1c0.2-0.2,0.2-0.5,0.4-0.8
	c0.1-0.4,0-0.6-0.2-0.9c-1.1-1.3-2.4-2.1-4.1-2c-0.6,0-1.3,0-1.9,0c-1.6-0.1-3.1-0.4-4.4-1.3c-2-1.5-3.4-3.4-4-5.8
	c-0.2,0.1-0.4,0.1-0.4,0.1c-1.2,2-2.1,4.1-2.4,6.4s0.4,4.3,1.3,6.4C96.3,135.9,101.1,137.2,104.2,136.2z M127.5,130.9
	c-0.7,0.1-1.3,0.4-1.8,1c-0.2,0.3-0.5,0.8-0.3,1.1c0.3,0.5,0.8,0.1,1.2-0.1c0.3-0.2,0.6-0.3,0.9-0.6c0.3-0.2,0.5-0.6,0.5-1
	C128,131,127.8,130.9,127.5,130.9z M132.1,124.7c0.6-1.1,2.3-1.2,2.8-2.9C133.4,122.5,132.2,123.1,132.1,124.7z M122.5,129.5
	c-0.1-0.2-0.3-0.4-0.6-0.4c-0.6-0.1-2.3,0.7-2.7,1.3c-0.4,0.6-0.6,1,0.1,1.6c1,1,0.8,2-0.5,2.8c-1.2,0.8-2.6,0.9-4,0.9
	c-0.8,0-1.5-0.2-2-0.9c-0.3-0.5,0.2-1.6,1-2.2c0.2-0.2,0.5-0.3,0.8-0.4c0.7-0.2,1.3-0.5,2-0.5c1-0.1,1.3-0.6,1.3-1.7
	c-1,0-1.9,0.2-2.7,0c-1.9-0.4-3.1,0.5-4.2,1.9c-0.8,1-1.8,2-2.8,2.9c-2,1.7-3.9,3.4-4.6,6.1c-0.1,0.4-0.3,0.7-0.5,1.1
	c-0.9,1.5-2.2,2.6-3.6,3.5c-0.2,0.1-0.4,0.3-0.3,0.6c0.1,0.2,0.3,0.3,0.5,0.3c1.3,0.3,2.6,0.7,4,0.5c1.4-0.1,2.8-0.3,4.2-0.4
	c4.5-0.2,8.5-1.7,11.8-4.7c1.4-1.3,2.8-2.7,3.4-4.7c0.6-2.1,0.5-4.1,0.1-6.2C122.9,130.3,122.7,129.9,122.5,129.5z M148.7,116.8
	c-0.7,0-1.5-0.2-2.1,0.4c-0.1,0.1-0.5,0.1-0.7,0.1c-2.7,0.3-5.3,0.8-7.9,1.7c-1.2,0.4-2.4,0.8-3.8,0.7c-0.3,0-0.7-0.1-1,0.2
	c-0.4,0.6-0.8,1.3-1.4,2.1c0.9-0.2,1.4-0.6,1.9-0.9c1.1-0.5,1.3-0.4,1.9,0.7c0.1,0.3,0.3,0.4,0.7,0.5c0.9,0.3,1.1,0.6,0.8,1.5
	c-0.5,1.4-1.4,2.5-2.8,3.2c-0.9,0.5-1.5,0.3-1.8-0.7c-0.2-0.6-0.5-0.7-1-0.6c-1,0.2-2,0.4-3.3,0c0.6,0.9,1.4,1.1,2,1.4
	c1,0.4,2.1,0.6,3.1,1c1.9,0.7,3.7,0.6,5.6,0.2c0.9-0.2,1.7-0.4,2.6-0.6c1.7-0.4,3.4-1,4.7-2.1c2-1.6,4-3.3,5.3-5.6
	c0.6-1.1,1.2-2.1,1.3-3.5C151.4,116.9,150,116.8,148.7,116.8z M136.1,123.7c-1.4,0.3-2.1,1.1-2.4,2.3
	C134.8,125.6,135.7,125.1,136.1,123.7z M123.8,128.4c-0.1-0.2-0.3-0.2-0.5-0.1c-0.2,0.1-0.4,0.3-0.2,0.5c0.6,1.1,0.5,2.4,1.1,3.7
	c0.4-0.7,1-1.1,0.8-1.8C124.8,129.9,124.4,129.1,123.8,128.4z M49.5,64.9c0-0.5-0.5-0.8-1.6-0.8c-0.9,0-1.8,0.2-2.6,0.7
	c-0.4,0.2-0.9,0.4-0.8,0.9c0.1,0.5,0.7,0.6,1.1,0.6c0.8,0,1.7-0.1,2.5-0.2C49,66.1,49.5,65.6,49.5,64.9z M60.8,68
	c0-0.3-0.1-0.6-0.5-0.6c-0.6,0-1.3,0.5-1.2,1c0,0.6-0.3,1.2,0.1,1.9C60.2,69.8,60.8,69.1,60.8,68z M58.2,60.6
	c0.4-0.8,0.2-1.3-0.7-1.2s-1.8,0.3-2.5,0.8c-0.3,0.2-0.5,0.4-0.4,0.7c0.1,0.4,0.4,0.4,0.7,0.4s0.6,0,0.7,0
	C57.5,61.4,57.8,61.3,58.2,60.6z M38.7,67.9c0.4,1.8,1,3.7,2.9,4.6c0.5,0.3,0.9,0.8,1.3,1.2c1,1,2,1.9,2.9,3
	c0.5-1.7,1.1-3.3,0.7-5.1c-0.2-0.8-0.2-1.6-0.1-2.4c0.1-1.1-0.4-1.8-1.4-2.1c-0.3-0.1-0.7-0.1-1-0.3c-0.7-0.3-1-1.2-0.5-1.7
	c0.5-0.6,0.9-1.2,1.6-1.5c0.8-0.4,2-0.4,2.5-1.2c0.5-0.7,0.5-1.8,0.7-2.7c0.9-2.7,2.1-5.2,3.2-7.7c0.5-1,0.9-2,1.5-2.9
	c2.1-3.8,5.1-7,6.6-11.2c0.1-0.3,0.3-0.6,0.7-0.5s0.3,0.5,0.2,0.8c-0.4,1.1-0.8,2.2-1.5,3.2c-3,4.7-6.2,9.3-8.3,14.5
	c-0.8,1.9-1.6,3.9-2.1,5.9c-0.3,1.2-0.1,1.2,0.8,1.5c1.2,0.4,1.4,1,1,2.2c-0.2,0.7-0.8,1-1.3,1.3c-0.4,0.3-1.1,0-1.4,0.5
	c-0.3,0.5,0.1,1,0.2,1.6c0.2,1.6-0.1,3.2-0.3,4.8c-0.1,0.9,0,1.8,0.4,2.7c0.4-0.3,0.5-0.6,0.7-0.8c0.8-1.3,1.5-2.7,2.5-3.9
	c1.4-1.5,2.4-3.2,3.5-4.9c0.6-0.9,0.9-2,1-3.1s0-1.1-1.1-1.5c-1.2-0.4-1.6-1.6-0.8-2.6c1.1-1.3,3.3-1.9,4.9-1.2
	c0.8,0.4,1,0.9,0.7,1.7c-0.3,0.9-0.8,1.7-1.8,2.1c-0.5,0.2-0.8,0.4-0.9,1c-0.2,2.1-1.2,3.9-2.2,5.6c-0.7,1.3-1.9,2.2-2.4,3.7
	c1.3-1.4,3-2.1,4.7-2.9c0.5-0.3,0.9-0.6,1.1-1.2c0.2-0.9,0.8-1.5,1.6-1.9c0.6-0.3,1.3-0.5,1.9-0.2c0.6,0.4,0.6,1.1,0.5,1.8
	c-0.2,1.3-1,2.1-1.9,2.9c-0.8,0.7-1.3,0.7-1.9-0.3c-0.3-0.5-0.6-0.4-1-0.3c-1.2,0.4-2.2,1.1-3.3,1.8c-1.7,1.1-2.5,2.9-3.6,4.5
	c-0.2,0.2-0.4,0.5-0.2,0.9c0.4-0.1,0.5-0.3,0.7-0.6c0.9-0.9,1.9-1.8,3-2.5c2-1.2,4.1-1.8,6.4-2c0.9-0.1,1.3-0.4,1.6-1.3
	c1.3-3.7,1.7-7.5,1.7-11.3c0-3.7-0.2-7.4-0.7-11c-0.4-2.8-0.5-5.6,0.3-8.3c0.3-1,0.7-2.1,1-3.1c0.6-1.7,1-3.5,1.3-5.2
	c0.1-0.4,0.2-1-0.2-1.3c-0.5-0.3-1,0-1.4,0.2c-0.5,0.4-1.1,0.7-1.5,1.2c-1.6,1.6-3.4,3-5.1,4.6c-1.9,1.7-4.1,3-6,4.7
	c-4.5,3.8-8.2,8.3-10.7,13.7C38.5,59.6,37.8,63.7,38.7,67.9z M47.2,78.7c0.5-1,0.5-1-0.1-1.6C47,77.6,46.9,78.1,47.2,78.7z
	 M55.9,78.3c0.2,0,0.4-0.1,0.5-0.2c1.6-1.2,3-2.6,4.1-4.5c-3-0.3-8.2,2.2-9.3,4.6c0.2,0.2,0.4,0.1,0.5,0.1
	C53.1,78.3,54.5,77.9,55.9,78.3z M51,80.3c1.1,0,2-0.4,2.9-0.9C52.4,79.1,51.7,79.4,51,80.3z M31.8,66.9c0.5,0,0.5-0.4,0.5-0.7
	c0.1-0.6-0.3-0.9-0.8-1c-0.3,0-0.5,0.1-0.6,0.4C30.9,66,31.5,66.9,31.8,66.9z M57.5,83.8c0.5,0.3,1,0.3,1.6,0.3
	c0.7,0,1.5,0.1,1.8-0.7c0.2-0.4-0.7-0.8-1.8-0.7c-0.5,0-1,0-1.4,0.2C57.1,83.1,57.1,83.5,57.5,83.8z M85.5,110.8
	c-0.1-2.2-0.2-4.5-0.4-6.7c-0.3-3-1-5.9-2.3-8.6c-1-2.2-2.6-4.1-3.7-6.3c-0.5-0.9-1.2-1.7-2-2.4c-3.2-2.8-6.6-5.2-10.5-6.9
	c-2.8-1.2-5.6-1.2-8.4-0.7c-0.2,0-0.5,0.2-0.8,0.3c0.9,1,1.3,2.5,3,2.3c0.1,0,0.3,0.1,0.4,0.1c0.6,0.2,1.2,0.5,1.1,1.2
	c0,0.7-0.6,1.3-1.2,1.3c-1.3,0.2-2.6,0.2-3.8-0.2c-0.6-0.2-0.8-0.6-0.6-1.3c0.1-0.7,0.5-0.8,1.1-1c0.9-0.3,0.9-0.6,0.2-1.2
	c-0.9-0.8-1.9-1.1-3.1-0.5c-1.5,0.7-2.9,1.5-4.2,2.5c-1.6,1.2-2.5,2.8-3.3,4.5c-0.3,0.8-0.3,1.6-0.2,2.5c0.4,1.9,1.3,3.7,1.8,5.5
	c0.9,3.2,3,5.7,5.1,8.1c0.2,0.2,0.3,0.4,0.5,0.5c2,1.3,4,2.5,6.2,3.3c2.9,1.1,5.9,1.7,8.9,2.3c2.5,0.5,4.9,1,7.3,2.2
	c2.2,1,4.2,2.3,6.1,3.7c0.7,0.5,1.4,0.8,2.2,1c0.4,0.1,0.9,0,0.8-0.5C85.4,114.2,85.6,112.5,85.5,110.8z M75.8,56.1
	c-3.4,0.7-6.7,1.7-9.4,4c-1.3,1.1-2.3,2.4-2.6,4.1c-0.3,1.9-0.6,3.8-1.1,5.7c-0.2,0.7-0.4,1.4-0.6,2.2c-0.1,0.4,0,0.6,0.4,0.8
	c0.6,0.2,1,0.3,1.3-0.4c0.2-0.4,0.6-0.8,1-1.1c2.9-2.9,6.2-5.1,9.6-7.3c1.1-0.7,2.4-1.3,3.7-1.7c0.4-0.1,0.9-0.4,1.6,0
	c-2,1-4,1.6-5.7,2.7c-1.8,1.2-3.6,2.3-5.3,3.6c-1.7,1.3-3.1,2.8-4.5,4.4c0.6,0.3,1.1,0.1,1.5-0.4c0.4-0.6,1-1,1.6-1.4
	c0.7-0.5,1.2-0.3,1.6,0.5c0.2,0.4,0.3,0.9,0.2,1.3c-0.3,1.4-1,2.6-2.1,3.5c-0.5,0.4-1.1,0.8-1.8,0.3c-0.6-0.4-1-1-0.9-1.7
	c0-1.4,0-1.4-1.2-0.7c-0.1,0.1-0.2,0.1-0.3,0.1c-0.1-0.3,0.3-0.8-0.1-0.9c-0.5-0.2-1.1-0.3-1.5,0.3c-0.6,1.1-1.4,1.9-2.3,3
	c1.1-0.1,1.6-0.7,2.2-1.1c0.5-0.4,0.9-0.9,1.6-1.1c-0.6,1.6-2.1,2.2-3.5,3.4c1.1,0,1.8,0,2.5,0c2,0,3.9,0.2,5.6,1.2
	c1,0.6,2.1,1,3,1.6c0.3,0.2,0.6,0.4,1,0.1c1.3-0.9,2.8-1.3,3.9-2.4c1.7-1.7,3.5-3.3,4.9-5.4c2.2-3.3,3.7-6.8,4.8-10.6
	c0.5-1.7,0.7-3.5,1.4-5.2c0.4-1,0.6-2.2,0.9-3.6c-2,1-3.8,0.8-5.5,1.1C79.8,55.4,77.8,55.7,75.8,56.1z M54.3,105
	c-1.3-0.6-2.2-1.6-2.9-2.7c-0.2-0.3-0.3-0.6-0.6-0.9c-1.9-2.1-2.9-4.6-3.6-7.3c-0.2-0.6-0.4-1.2-0.7-1.8c-0.3-0.5-0.2-1.3-0.8-1.7
	c-1.5,1.4-2.1,3.3-2.5,5.1c-1.3,4.9-1.8,9.9-1.4,15c0.2,2,0.6,4,0.7,6.1c0.1,1.4,0.2,2.8-0.7,4.3c-0.4-0.5-0.2-0.9-0.2-1.2
	c0.2-1.4,0.2-2.9-0.1-4.3c-0.5-2.6-0.8-5.3-0.8-8c0-3.3,0.4-6.7,1.1-9.9c0.3-1.4,0.6-2.7,1-4.1c-1.5,1.2-2.9,2.4-4.5,3.3
	c-1.2,0.7-2.3,1.6-3.4,2.5c-1.1,0.9-2,2-2.4,3.4c-0.7,2.5-0.3,5.1,0.4,7.5c0.9,3.1,2.5,5.8,4.2,8.5c2.1,3.2,4.6,6.2,5.5,10
	c0.1,0.4,0.4,0.7,0.8,0.8c0.4,0.1,0.8-0.1,1-0.5c0.4-0.6,0.6-1.3,0.7-1.9c0.3-1.3,0.4-2.6,0.9-3.8c1.1-2.8,2.7-5.4,4.7-7.7
	c1.9-2.1,3.8-4.3,4.7-7C56.3,106.4,56.2,105.9,54.3,105z M66.1,75.9c1-0.4,1.8-1.9,1.7-3.3c-0.2,0.1-0.4,0.1-0.5,0.2
	c-0.9,0.5-1.2,1.7-2,2.3c-0.2,0.1-0.1,0.5,0.1,0.7C65.7,76,65.9,75.9,66.1,75.9z M39.3,72c-0.8-0.6-5.4-2.9-6.2-3.1
	c-0.4-0.1-0.9-0.3-1.3,0.3c1.2,1.2,2.4,2.4,4.1,2.8C37,72.1,38.1,72,39.3,72z M17.1,50.3c0,3.8,0.5,7.5,1.3,11.3
	c1,4.7,3.3,8.6,7,11.7c1.1,0.9,2.1,1.3,3.5,0.6c1.1-0.5,2.3-0.8,3.4-1.2c0.5-0.2,1-0.3,1.5-0.7c-0.8-0.8-1.6-1.5-2.3-2.2
	c-0.3-0.3-0.7-0.3-1.1-0.2c-0.6,0.1-1.2,0.2-1.8,0.1c-0.8-0.2-1-0.6-0.8-1.4c0.1-0.2,0.2-0.5,0.3-0.7c0.5-0.6,0.3-1.1-0.2-1.7
	c-1.8-1.9-3-4.2-3.9-6.6c-1.3-3.3-2.1-6.8-1.9-10.4c0-0.5-0.1-1.2,0.3-1.6c0.2,0,0.3,0,0.3,0.1c0,0.3,0.1,0.7,0.1,1
	c-0.1,4.2,0.9,8.2,2.5,12c0.8,1.8,1.9,3.4,3.2,4.8c0.5,0.5,0.8,0.5,1.2,0c0.3-0.4,0.7-0.7,1.2-0.9c1.3-0.6,2.4,0.2,2.4,1.6
	c0,0.4,0,0.8-0.3,1.2c-0.4,0.6-0.2,0.9,0.4,1.1c1.4,0.7,2.9,1.4,4.3,2.1c0.2,0.1,0.5,0.2,0.7,0c-0.2-0.6-0.3-1.2-0.5-1.8
	c-0.9-4-0.4-7.8,0.8-11.6c0.4-1.2,0.2-2.2-0.6-3c-1.2-1.2-2.3-2.5-3.7-3.5c-2.3-1.7-4.7-3.2-7.6-3.8c-3.1-0.6-6.1-1.5-8.9-2.8
	c-0.3-0.1-0.6-0.2-0.8-0.3c-0.4-0.1-0.7,0.1-0.7,0.5c0,0.3,0,0.7,0.1,1C16.9,46.8,17.1,48.5,17.1,50.3z M29.8,67.1
	c-0.4,0.3-0.9,0.7-0.8,1.4c0.5,0.1,1,0.1,1.4-0.1s0.7-0.4,0.4-0.9C30.6,67,30.2,66.7,29.8,67.1z M34.8,77.1
	c-0.2,0.4-0.6,0.8-0.6,1.4c0,0.4,0.1,0.8,0.6,0.9c0.7,0.2,2-0.9,2.1-1.6c0-0.5-0.5-1.2-1-1.3C35.3,76.3,35.1,76.7,34.8,77.1z
	 M45.6,87.4c0.2-0.7,0.5-1.4,0.2-2s-0.4-1.1-0.3-1.7c0.1-0.5-0.2-0.7-0.7-0.8c-0.4-0.1-0.7-0.3-1.1-0.4c-1.4-0.6-2.8-1-4.3-1
	c-2.2,0-4.3,0.4-6.3,1c-3.9,1.2-7.5,3.1-11,5.3c-3.3,2.1-6.2,4.7-8.8,7.6s-5.8,5.1-9,7.3c-0.3,0.2-0.7,0.5-0.9,0.1
	c-0.3-0.4,0.2-0.6,0.5-0.8c0.1-0.1,0.3-0.1,0.4-0.2c2.5-1.8,5.1-3.5,7.2-5.8c3.1-3.4,6.4-6.4,10.2-8.9c4.5-2.9,9.2-5.1,14.5-6.1
	c2-0.3,3.9-0.4,5.9,0c1,0.2,1.8,0.6,2.9,0.8c-0.1-1.3-0.4-2.3-1.4-3.1c-0.8-0.7-1.6-1-2.5-1.3c-1.5-0.6-2.4-0.2-3.3,1.1
	c-0.5,0.8-1.1,1.4-2,1.8c-0.8,0.4-1.6,0.1-2.3-0.3c-0.6-0.4-0.3-1.1-0.2-1.6c0.1-0.9,0.6-1.6,1.1-2.3c0.8-1.1,1.7-1.2,2.8-0.3
	c0.3,0.3,0.5,0.6,1,0.6c1.6-0.1,3.2,0.1,4.7,0.5c0.2-0.4,0-0.6-0.1-0.8c-1.7-2.3-4.1-3.2-6.9-3.2c-1.3,0-2.5,0.3-3.8,0.7
	c-4.2,1.1-7.9,3.3-11.3,5.9c-3.4,2.7-6.7,5.5-9.6,8.7C7.7,92,4.4,96,2.5,100.9c-0.6,1.4-1,2.8-1.4,4.3c-0.1,0.4-0.3,0.9,0.2,1.2
	c0.4,0.3,0.7-0.1,1-0.4c0.4-0.3,0.7-0.6,1.1-0.8c1.5-1,3.1-2,4.9-2.5c3.5-1,7-1.5,10.6-1.3c1.3,0.1,2.6,0.1,3.9-0.1
	c6.3-0.8,12.1-2.8,17.2-6.6C42.6,92.7,44.6,90.4,45.6,87.4z" class="color c3"/>
  <path fill="#020202" d="M128.7,108c0,0.4,0,0.8-0.4,0.9c-0.5,0.1-0.6-0.3-0.6-0.7c0-0.3-0.1-0.5-0.3-0.7c-1.7-1.6-2.8-3.5-4-5.4
	c-1.8-2.6-3.9-4.8-6.5-6.5c-2.8-1.7-4.9-4.3-7-6.7c-0.1-0.1-0.1-0.3-0.2-0.6c0.8,0.1,1.1,0.6,1.4,1c1.6,1.8,3.2,3.4,5.1,4.9
	c0.2,0.2,0.5,0.4,0.7,0.5c3.2,1.8,5.5,4.5,7.5,7.5c1.1,1.7,2,3.6,3.8,4.7C128.6,107.3,128.8,107.6,128.7,108z M107.1,91
	c-0.1-0.3-0.2-0.7-0.8-0.8c-0.4,0.6-0.1,1.1,0.1,1.6c1,2.5,1.8,5.1,2.3,7.7c0.6,3.2,1.2,6.5,0.6,9.8c-0.2,1.4-0.4,2.8-0.5,4.1
	c-0.3,2.1,0.2,4.2,0.5,6.2c0.4-0.6,0.4-1.3,0.3-2c-0.3-2.2-0.1-4.5,0.3-6.7c0.5-2.6,0.6-5.3,0.3-8C109.5,98.9,108.4,95,107.1,91z
	 M105.3,91.9c-0.1-0.2-0.3-0.5-0.6-0.4c-0.4,0.1-0.3,0.4-0.2,0.7c0.1,0.3,0.2,0.6,0.3,0.8c0.5,1.1,1,2.2,1.3,3.3
	c0.6,2.4,0.8,4.9,1,7.4c0.1,1.4,0.2,2.8,0.3,4.3c0.2-0.1,0.3-0.1,0.3-0.1c0-0.2,0.1-0.5,0.1-0.7c0.2-4.2-0.3-8.2-1.3-12.3
	C106.2,93.9,105.7,92.9,105.3,91.9z M84.2,112.6c-1.9-2-3-4.4-4.1-6.9c-1.2-2.9-2.4-5.8-4.4-8.2c-2.8-3.3-6.1-6-9.9-8
	c-2.1-1-4.3-1.6-6.4-2.4c-3.5-1.3-7-0.8-10.5-0.2c-0.4,0.1-0.8,0.3-1.2,0.7c0.4,0.4,0.8,0.2,1.1,0.2c0.7-0.2,1.4-0.4,2.2-0.5
	c2.1-0.4,4.1-0.5,6.2-0.1c1.8,0.4,3.5,1.2,5.2,1.7c1.1,0.3,2.2,0.8,3.2,1.3c5.9,3.3,10.5,7.8,13.1,14.2c0.9,2.2,1.8,4.4,3.1,6.4
	c0.7,1,1.5,1.9,2.3,2.8c0.1,0.2,0.4,0.2,0.5,0.1c0.3-0.2,0.2-0.4,0-0.6C84.4,112.9,84.3,112.8,84.2,112.6z M65.1,91.9
	c-3.7-1.8-7.6-3.1-11.8-3.5c-1.4-0.1-2.7-0.3-4.2,0.3c0.5,0.5,0.9,0.3,1.3,0.3c1-0.1,2.1-0.1,3.1,0c3.3,0.4,6.5,1.6,9.6,2.8
	c0.9,0.4,1.9,0.7,2.7,1.3c2.2,1.5,4.3,3.2,6,5.3c0.2,0.2,0.3,0.5,0.7,0.3c0.1-0.5-0.2-0.8-0.5-1.1C70.2,95.2,67.8,93.2,65.1,91.9z
	 M34,83.5c-2.5,0.3-4.9,1.2-7.2,2.4c-2.6,1.3-4.9,3.2-7.2,5.1c-2.7,2.3-5.3,4.8-7.7,7.4c-0.2,0.2-0.4,0.3-0.2,0.6
	c0.5,0.2,0.7-0.2,1-0.5c2.2-2.1,4.4-4.1,6.7-6.2c2.5-2.3,5.2-4.4,8.2-5.9c2.6-1.3,5.2-2.6,8.2-2.3c0.1,0,0.3-0.1,0.6-0.2
	C35.5,83.3,34.8,83.4,34,83.5z M49.9,63.1c0.2,0,0.4-0.1,0.4-0.4c0-0.1,0.1-0.3,0.1-0.4c0.5-2.6,1.5-4.9,2.8-7.2
	c1.6-2.9,3.3-5.7,5.2-8.4c0.2-0.3,0.6-0.7,0.5-1.1c-0.1,0-0.2-0.1-0.2-0.1c-0.3,0-0.4,0.3-0.5,0.4c-3.6,4.7-6.5,9.8-8.3,15.4
	c-0.1,0.4-0.2,0.8-0.3,1.2C49.4,62.8,49.6,63.1,49.9,63.1z M45.9,94.5c-0.3-0.1-0.5,0.1-0.6,0.3c-0.7,1.1-1,2.3-1.3,3.6
	c-0.5,3-0.4,6-0.3,8.7c0,2.3,0,4.3,0,6.4c0,0.2,0,0.5,0.3,0.6c0.3,0,0.4-0.3,0.4-0.5v-0.1c0-2,0.2-4,0.1-6
	c-0.2-4.2-0.4-8.4,1.5-12.3C46.1,94.9,46.1,94.6,45.9,94.5z" class="color c1"/>
</svg>