<svg version="1.1" id="图层_1" x="0px" y="0px" width="170px" height="133.684px" viewBox="0 0 170 133.684" enable-background="new 0 0 170 133.684" xml:space="preserve" xmlns="http://www.w3.org/2000/svg" xmlns:xlink="http://www.w3.org/1999/xlink" xmlns:xml="http://www.w3.org/XML/1998/namespace">
  <path fill="#D5A54A" d="M0,69.32c-0.016-11.979,4.918-21.735,9.286-30.375c2.257-4.465,4.388-8.684,5.799-12.995
	C18.499,15.535,19.702,6.832,18.682,0c7.895,4.885,22.136,15.367,22.353,27.512c-0.72,2.672-1.545,4.951-2.454,6.783
	c-10.156,20.473-19.75,39.809-13.66,65.197c1.508,6.284,5.274,16.334,14.604,24.741C12.509,111.387,0.022,87.99,0,69.32z" class="color c1"/>
  <path fill="#D5A54A" d="M30.071,98.254c-5.646-23.521,3.534-42.023,13.257-61.621c4.169-8.4,6.854-25.689,4.999-36.561
	c7.582,4.631,20.953,14.723,21.22,28.405c-4.911,13.979-8.409,25.881-10.69,36.377c-5.182,23.818-0.891,51.955,9.984,65.451
	c0.67,0.83,1.364,1.605,2.082,2.324C40.471,127.77,32.231,107.26,30.071,98.254z" class="color c1"/>
  <path fill="#D5A54A" d="M97.335,126.98c-3.543,4.396-7.546,6.646-11.906,6.691l-0.424,0.012c-4.406,0-8.457-2.254-12.04-6.701
	c-9.969-12.369-13.81-38.596-8.936-61.004c4.69-21.563,13.788-45.069,19.81-60.625c0.455-1.176,0.894-2.307,1.311-3.387
	c0.313,0.811,0.636,1.648,0.97,2.51l0.354,0.92c6.012,15.535,15.101,39.017,19.791,60.582
	C111.143,88.387,107.303,114.613,97.335,126.98z" class="color c1"/>
  <path fill="#D5A54A" d="M99.438,132.568c0.696-0.7,1.371-1.457,2.021-2.264c10.875-13.494,15.165-41.631,9.979-65.447
	c-2.289-10.521-5.785-22.422-10.688-36.373c0.259-13.637,13.417-23.719,20.918-28.364c-1.837,10.875,0.85,28.137,5.02,36.537
	c9.719,19.575,18.896,38.067,13.25,61.598C137.791,107.207,129.611,127.604,99.438,132.568z" class="color c1"/>
  <path fill="#D5A54A" d="M130.48,124.229c9.33-8.408,13.096-18.455,14.602-24.737c6.094-25.406-3.503-44.736-13.667-65.209
	c-0.897-1.81-1.72-4.084-2.444-6.767C129.184,15.365,143.427,4.883,151.324,0c-1.021,6.832,0.181,15.535,3.593,25.947
	c1.416,4.317,3.549,8.545,5.813,13.028c4.353,8.605,9.285,18.359,9.27,30.34C169.979,87.984,157.495,111.379,130.48,124.229z" class="color c1"/>
</svg>