<svg version="1.1" baseProfile="tiny" id="图层_1" x="0px" y="0px" width="166.887px" height="168.917px" viewBox="0 0 166.887 168.917" xml:space="preserve" xmlns="http://www.w3.org/2000/svg" xmlns:xlink="http://www.w3.org/1999/xlink" xmlns:xml="http://www.w3.org/XML/1998/namespace">
  <g>
    <path fill="none" d="M103.014,107.031l-0.483-0.568c-0.383,0.189-0.756,0.387-1.102,0.605
		C101.429,107.068,102.051,107.042,103.014,107.031z"/>
    <g>
      <path fill="#387B0F" d="M81.054,94.509l-0.211,0.086c-2.096,1.289-4.4,2.219-6.942,2.795
			c-12.981,5.771-29.416,16.139-33.995,32.764c-3.067,11.137-4.664,17.715-5.721,22.068c-1.581,6.514-2.059,8.48-4.582,14.09
			l-0.931,2.068l1.714-1.484c8.665-7.512,16.227-22.789,16.302-22.943l0.068-0.139l-0.661-4.504l1.479,3.387l0.261-1.709
			c0.924-6.066,11.978-14.76,12.089-14.848l0.248-0.193l-1.214-5.523l3.256,5.463l0.202-1.396c0.007-0.045,0.781-4.527,12.231-8.199
			l0.829-0.285l-0.229-0.502c-1.079-2.379-1.737-4.5-1.956-6.309c-0.741-6.121,2.144-10.73,8.572-13.699l1.521-0.703L81.3,94.484
			L81.054,94.509z" class="color c1"/>
      <path fill="#387B0F" d="M124.416,166.515l0.209-0.455l-0.077,0.154l0.07-0.158c-0.013-0.006-0.027-0.012-0.04-0.02l0.001-0.002
			l-0.102-0.057c-6.275-3.117-6.338-17.041-6.073-22.885l0.052-0.986c0.047-0.805,0.097-1.453,0.137-1.91
			c0.028-0.332,0.053-0.57,0.068-0.729l0.052-0.418l-4.398-1.361l4.638-0.092l0.035-0.451c0.549-6.912-2.589-22.297-3.993-27.064
			l-0.083-0.281l-0.286-0.064c-5.022-1.137-9.694-2.123-10.626-2.318l-6.813-8.008l1.847,6.146c-3.356,0.375-6.41-0.189-9.093-1.668
			l-1.788-0.986l1.131,1.699c3.84,5.777,8.948,14.705,11.474,24.432c3.813,14.664,11.968,32.328,23.422,37.922l0.028,0.014
			L124.416,166.515c0.001,0,0.001,0,0.002,0C124.417,166.515,124.417,166.515,124.416,166.515z" class="color c1"/>
    </g>
    <path fill="#A9DA40" d="M98.982,3.022L96.461,0l1.686,3.557c3.93,8.29-12.274,23.96-12.438,24.118l-0.298,0.286l2.481,3.839
		l-3.595-2.885l-0.317,0.323c-5.37,5.471-14.13,22.063-14.785,24.65c-0.52,2.043,4.149,6.25,6.94,8.549
		c-3.484-1.101-6.895-3.453-6.936-3.482l-0.894-0.621l0.11,1.083c0.005,0.047,0.491,4.771,1.343,9.662l0.046,0.262l2.331,1.042
		c8.181,3.66,10.394,10.916,10.81,16.359l0.168,2.195l0.797-2.053c4.912-12.66,14.872-18.384,17.456-19.691l1.087,10.894
		l2.009-11.92c0.346-0.372,0.714-0.736,1.096-1.095l0.587-0.551l-4.459-1.669l3.643-0.041l0.094-0.375
		c1.708-6.847,0.575-14.052,0.525-14.355l-0.048-0.298l-3.74-1.25l4.231,0.396l0.121-0.385
		C114.314,21.793,99.137,3.208,98.982,3.022z" class="color c2"/>
    <path fill="#4F8D19" d="M74.307,98.304c-12.784,5.684-28.962,15.867-33.438,32.115c-3.063,11.121-4.657,17.691-5.713,22.039
		c-1.598,6.582-2.08,8.57-4.642,14.264l-0.987,2.195l0.031-2.406c0.004-0.332,0.409-33.215-1.636-42.262l-0.146-0.645l4.374,0.225
		l-4.198-2.145l0.118-0.398c0.192-0.654,4.834-16.023,14.705-18.758l0.104-0.029l5.285,0.824l-3.923-1.66l0.672-0.523
		c0.037-0.027,3.747-2.904,9.27-5.875l0.2-0.107l0.212,0.08c7.049,2.652,13.712,3.391,19.398,2.121L74.307,98.304z M115.076,94.138
		l-2.159-0.635l2.784,2.459c-2.11,1.693-4.962,2.551-8.488,2.551c-4.424,0-8.344-1.389-8.478-1.428L81.751,94.55l0.067-0.553
		l-4.899,3.051l0.845-0.303c-4.207,3.109-6.092,7.391-5.465,12.57c0.231,1.908,0.918,4.129,2.039,6.602
		c1.961,4.32,4.627,7.984,4.654,8.02l0.219,0.301l4.484-1.578l-2.792,2.391l0.168,0.348c3.095,6.373,8.615,11.189,8.849,11.393
		l0.229,0.197l3.699-1.453l-3.525,2.43l0.154,0.373c9.943,24.096,33.618,28.629,33.856,28.672l3.522,0.629l-3.239-1.582
		c-0.011-0.006-0.021-0.01-0.031-0.016l0.001-0.002l-0.11-0.061l-0.004,0.008c-11.072-5.523-19.006-22.818-22.746-37.205
		c-2.353-9.055-6.902-17.412-10.637-23.24c2.625,1.061,5.545,1.377,8.663,0.934l0.576-0.082l-0.812-2.699l3.942,4.633l0.167,0.035
		c0.052,0.01,5.198,1.086,10.778,2.35c12.098,2.74,14.028,3.58,14.298,3.813c-0.001,0-0.049-0.043-0.078-0.131l0.954-0.301
		l-0.78-2.557l2.542,4.701l0.254,0.033c0.276,0.037,27.757,3.65,33.544,7.471l0.588-0.807
		C147.521,108.359,130.48,98.671,115.076,94.138z" class="color c3"/>
    <path fill="#66A023" d="M166.641,123.83c-0.081-0.523-2.223-12.969-22.835-25.332l-0.179-0.107l-2.72,0.691l1.331-1.262
		l-0.475-0.355c-0.09-0.066-8.698-6.496-14.845-9.738c1.555-1.365,2.84-2.584,3.826-3.633l0.448-0.477l-6.283-3.34l9.473,0.534
		l0.157-0.149c0.039-0.037,3.928-3.755,8.314-9.44l0.51-0.66l-1.879-0.317l2.257-0.59l0.104-0.04
		c0.281-0.146,1.86-1.312,5.319-9.963c3.54-8.856,4.885-10.192,7.828-11.75l1.756-0.93l-2.54-0.014l-0.119,0.073
		c-17.475,10.645-64.351,40.604-73.639,46.553l-0.066,0.063c-5.335-2.576-12.23-6.611-20.502-11.996
		c-10.079-6.562-19.676-9.889-28.523-9.889c-22.146,0-32.453,20.944-32.555,21.155L0,94.593l1.537-1.047
		c0.155-0.105,15.621-10.601,21.47-10.601c0.388,0,0.718,0.048,0.982,0.145l0.295,0.107l4.003-3.909l-1.944,4.263l0.557,0.161
		c0.111,0.032,11.203,3.257,16.651,7.001c1.086,0.746,5.065,3.346,10.693,5.461c7.233,2.723,14.09,3.473,19.968,2.162
		c2.528-0.563,4.91-1.52,7.08-2.842l17.2,2.557c0.166,0.061,4.117,1.463,8.721,1.463c4.026,0,7.251-1.068,9.586-3.174l0.416-0.375
		l-0.208-0.184c14.695,4.748,30.863,14.137,48.132,27.959c0.13,0.088,0.25,0.174,0.363,0.262c0.106,0.082,0.202,0.164,0.28,0.248
		l1.104,1.172L166.641,123.83z" class="color c4"/>
    <path fill="#92C736" d="M156.22,46.958c-4.806,0-29.037,0.366-34.095,7.594l-0.071,0.101l-0.016,0.122
		c-0.005,0.043-0.441,3.333-1.377,6.438l0.116-6.427l-0.703,0.288c-0.385,0.158-9.496,3.926-15.2,9.268
		c-0.472,0.442-0.88,0.854-1.25,1.258l-0.1,0.109l-0.817,4.852l-0.484-4.852l-0.625,0.266c-0.122,0.052-11.797,5.146-17.872,18.754
		c-0.805-5.4-3.495-11.821-11.182-15.26l-2.088-0.934c-12.017-5.376-12.317-5.511-12.324-5.515l-1.08-0.485l2.048,5.623l-6.58-6.272
		l-0.114-0.082c-0.209-0.108-5.185-2.645-12.626-2.645c-3.416,0-6.813,0.545-10.098,1.62l-0.778,0.254l3.129,3.101
		c-1.753-0.6-4.334-1.251-7.282-1.251c-4.575,0-11.034,1.658-15.816,9.555l-0.364,0.602l3.27,0.695l-3.522,1.81l-0.074,0.129
		c-0.048,0.084-4.849,8.528-7.466,17.317l0.93,0.359c0.1-0.205,10.149-20.588,31.653-20.588c8.651,0,18.064,3.272,27.978,9.727
		c8.26,5.377,15.161,9.416,20.521,12.014l0.296,0.451l0.272-0.174l0.139,0.068l0.494-0.473c9.219-5.896,56.09-35.853,73.551-46.489
		l1.518-0.924L156.22,46.958z" class="color c5"/>
  </g>
</svg>