<svg version="1.1" id="图层_1" x="0px" y="0px" width="188.18px" height="149.078px" viewBox="0 0 188.18 149.078" enable-background="new 0 0 188.18 149.078" xml:space="preserve" xmlns:xml="http://www.w3.org/XML/1998/namespace" xmlns="http://www.w3.org/2000/svg" xmlns:xlink="http://www.w3.org/1999/xlink">
  <path fill="#546045" d="M186.584,37.428c-3.232-2.118-7.287-3.021-10.944-1.874c0.604-2.788-0.72-5.888-3.146-7.384
	c-2.431-1.495-5.802-2.339-8.021-0.546c1.792-3.232,0.919-7.642-1.844-10.098c-2.761-2.458-7.093-2.854-10.355-1.12
	c-3.266,1.735-4.914,5.854-4.918,9.55c-3.166-1.85-7.116-2.304-10.621-1.221s-6.509,3.687-8.082,7.001
	c3.891,9.193,13.453,18.405,22.231,23.155c8.779,4.749,19.191,6.412,29.014,4.64c2.753-0.498,5.813-1.122,8.25-2.39
	c0.021-0.798,0.031-1.599,0.031-2.402C188.179,48.824,187.627,43.039,186.584,37.428z" class="color c1"/>
  <path fill="#546045" d="M2.953,47.803c2.081,1.205,4.535,1.539,6.92,1.849c9.085,1.181,18.215,2.364,27.371,2.085
	c8.915-0.274,18.053-2.056,25.443-7.05C73.66,37.272,78.711,22.742,91.23,18.428c0.886-6.669-3.146-13.688-9.351-16.287
	c-6.206-2.6-14.305,0.086-18.438,5.396c-3.524-5.246-10.174-7.933-16.479-7.49C40.661,0.49,34.773,3.76,30.332,8.256
	c-4.439,4.496-7.937,10.926-10.313,16.781c-2.367-2.576-6.097-3.822-9.536-3.188c-2.131,0.394-4.105,1.501-5.608,3.058
	C2.708,31.543,1.26,38.502,0.621,45.695C1.231,46.549,2.051,47.281,2.953,47.803z" class="color c1"/>
  <path fill="#234700" d="M187.943,45.516c-0.563-0.057-1.142-0.111-1.731-0.17c-0.567-0.057-1.204-0.096-1.88-0.129
	c-7.022-2.904-13.689-8.289-19.063-13.164c-4.073-3.695-2.533-1.364-7.294,1.029c-2.134,1.072-1.894,1.207-5.065-0.12
	c-6.411-2.679-12.686-6.15-16.7-11.86c-1.842-2.621-2.465-4.844-5.583-4.656c-1.521,0.09-3.226,1.18-4.646,2.47
	c-1.631,1.483-4.071,1.653-5.844,0.343c-2.332-1.725-4.357-3.459-6.708-5.944c-3.371-3.567-10.367-5.858-13.728-9.649
	c-0.746-0.844-2.047-0.85-2.784,0.002c-3.451,3.986-7.657,7.56-11.113,11.512c-3.928,0.02-3.818-3.612-6.479-4.336
	c-2.384-0.646-5.295,2.967-6.81,4.295c-2.411,2.113-3.743,3.617-6.46,3.636c-2.099,0.015-4.218-0.993-6.115-2.134
	c-1.363-0.818-3.147-0.423-4.032,0.9c-2.06,3.074-5.645,5.423-8.405,7.531c-2.255,1.721-5.937,5.988-8.526,6.865
	c-2.789,0.945-7.042-1.445-10.187-2.601c-3.62-1.33-4.167,0.4-7.623,2.269c-0.074,0.041-0.15,0.078-0.227,0.117l0.211-0.538
	c-0.775,0.378-1.551,0.747-2.312,1.104c-3.962,1.864-9.726,3.892-13.384,6.187c-1.568,0.654-3.15,1.327-4.733,1.998
	C0.247,44.297,0,48.191,0,52.145c0,6.436,0.646,12.719,1.879,18.79c3.681,1.899,8.139,2.632,12.017,3.023
	c7.239,0.73,14.298,0.924,21.497,2.226c17.924,3.238,35.518,5.045,53.617,7.064c9.397,1.049,18.961,1.848,28.157,4.068
	c10.308,2.484,19.84,5.758,30.573,5.916c10.768,0.16,22.12-1.123,32.871-4.069c4.867-11.362,7.566-23.874,7.566-37.019
	C188.179,49.916,188.096,47.706,187.943,45.516z" class="color c2"/>
  <g>
    <g>
      <path fill="#FFFFFF" d="M163.138,35.781c-0.449,0.596-0.828,1.162-0.6,2.252c0.233,1.111,1.215,2.32,1.561,3.467
			c-2.197,1.525-4.365,3.089-5.834,5.383c1.861-0.957,3.979-1.652,5.828-2.683c-0.433,0.955-3.073,3.752-2.032,4.401
			c-0.455,1.506-1.396,4.25-2.377,5.373c-1.612,1.844-4.479,2.678-4.6,5.664c2.33,0.139,5.999-0.994,8.112,0.016
			c1.079,0.518,0.955,1.305,1.776,2.01c1.021,0.875,2.092,0.88,3.405,0.947c2.275,0.117,2.575-0.421,3.863-2.225
			c1.221-1.705,2.558-3.344,3.69-5.047c0.521-0.779,0.568-1.686,1.651-1.991c0.642-2.036,0.938-3.96,0.99-5.856
			c-5.879-3.33-11.119-7.8-14.83-11.169C163.512,36.111,163.314,35.937,163.138,35.781z" class="color c3"/>
    </g>
    <g>
      <path fill="#FFFFFF" d="M154.933,38.678c-0.771-0.16-1.651-0.512-2.897-1.033c-5.79-2.42-13.036-6.045-17.679-12.648
			c-0.393-0.555-0.729-1.09-1.025-1.561c-1.265-2-1.505-2.201-2.571-2.137c-0.232,0.014-0.549,0.098-0.931,0.27
			c0.577,0.464,1.519,0.626,2.126,1.478c-0.667,0.598-1.395,1.421-1.169,2.261c0.438,1.656,1.903,0.107,2.638,1.151
			c0.645,0.915-2.704,5.595-3.135,6.913c1.8,0.371,2.15,0.852,2.757,2.484c0.361,0.971,1.741,2.51,1.852,3.375
			c0.145,1.154-1.438,2.088-2.398,2.859c-2.302,1.848-4.337,3.558-6.173,5.902c0.96-1.14,3.431-2.431,5.036-2.908
			c-1.415,2.131-1.729,3.455-2.015,5.891c-0.159,1.368-0.377,2.502-1.15,3.709c-0.832,1.299-2.386,2.332-2.348,4.021
			c2.79,0.727,5.504,0.006,8.426-0.567c3.938-0.772,7.42,0.659,11.279,0.62c2.932-0.028,5.334-1.136,6.243-4.023
			c0.438-1.387-0.131-2.467,0.658-4.189c0.582-1.268,1.164-2.166,2.278-3.105c-0.977-1.109-0.442-2.059-0.192-3.305
			C154.903,42.328,154.716,40.505,154.933,38.678z" class="color c3"/>
    </g>
    <g>
      <path fill="#FFFFFF" d="M111.782,17.463c-1.402-1.484-3.682-2.797-6.096-4.186c-1.585-0.912-3.195-1.846-4.658-2.886
			c0.043,0.081,0.083,0.163,0.108,0.262c0.181,0.661-0.645,1.69-0.47,2.496c0.115,0.536,0.959,1.537,1.257,2.128
			c1.026,2.036,1.896,3.131,0.496,4.932c-2.02,2.6-5.734,5.037-6.899,8.177c3.963-1.22,7.003-5.284,10.676-6.985
			c-0.193,1.225-0.885,2.295-0.899,3.685c-0.017,1.405,0.308,2.323-0.438,3.7c-1.749,3.239-6.064,4.698-8.047,7.914
			c2.634-0.371,5.251-2.945,8.106-3.271c-1.175,1.945-2.605,3.461-2.531,5.695c0.124,3.732,0.259,5.479-2.852,7.875
			c-2.579,1.988-5.565,5.146-7.151,8.064c-0.978,1.801-1.466,4.113-2.252,6.23c2.042-2.096,5.965-3.15,8.844-3.668
			c3.19-0.574,5.484,0.566,8.489,0.719c2.63,0.136,4.843-0.865,7.471-0.341c2.354,0.472,5.031,0.938,7.369,0.149
			c0.051,0.05-0.014-0.523-0.018-0.492c-1.64-0.224,0.286-4.303,0.774-5.156c1.568-2.737,3.987-5.047,4.606-8.357
			c0.438-2.35-0.393-5.346-1.275-7.509c-0.938-2.298-2.222-2.745-2.229-5.363c-0.004-1.31,0.14-2.563-0.372-3.78
			c-0.489-1.173-1.526-1.373-1.995-2.398c-0.029-0.066-0.054-0.131-0.078-0.197c-1.039-0.168-2.047-0.572-2.934-1.226
			C116.145,21.717,114.049,19.859,111.782,17.463z" class="color c3"/>
      <path fill="#FFFFFF" d="M97.059,9.48c0.852,0.309,2.245,0.046,3.179,0.322c-0.69-0.535-1.342-1.098-1.92-1.704
			C97.907,8.564,97.485,9.025,97.059,9.48z" class="color c3"/>
    </g>
    <g>
      <path fill="#FFFFFF" d="M79.928,16.791c-0.565-0.74-0.851-1.076-1.198-1.17c-0.097-0.008-0.213,0.016-0.343,0.066
			c0.056,0.788,0.022,1.51-0.157,2.086c-0.597,1.898-2.28,3.898-3.104,5.756c0.355-0.078,0.861,0.123,1.222,0.055
			c0.071,1.422,0.511,4.07-0.01,5.398c-0.412,1.053-2.009,2.018-2.771,2.762c-1.292,1.265-2.273,2.732-3.646,3.893
			c1.806-0.077,3.983-2.149,5.882-2.662c0.073,2.007-0.724,3.021,0.027,4.999c0.457,1.2,0.702,1.735,0.713,3.122
			c0.031,3.859-4.177,5.494-4.661,8.994c1.737,0.674,5.169,0.325,5.944,2.064c0.531,1.197-0.095,4.218-0.153,5.537
			c2.882-2.438,5.06-4.974,6.936-8.209c1.045-1.802,1.518-4.023,1.086-6.041c-0.275-1.298-1.046-2.411-1.198-3.744
			c-0.253-2.211-0.185-4.672-0.17-6.9c0.016-2.521,0.072-5.289,0.501-7.768c0.251-1.451,0.845-2.783,0.762-4.34
			c-0.012-0.216-0.024-0.439-0.039-0.662C82.344,19.941,80.894,18.054,79.928,16.791z" class="color c3"/>
    </g>
    <g>
      <path fill="#FFFFFF" d="M65.75,23.616c-2.682-0.078-5.128-1.332-6.977-2.441c-0.331-0.199-0.773-0.102-0.986,0.216
			c-0.343,0.51-0.724,0.99-1.119,1.459c0.761,0.041,1.512-0.299,2.146-0.535c-0.021,1.012-0.479,1.963-0.511,3.054
			c-0.023,0.866,0.364,1.63,0.054,2.535c-0.959,2.782-4.189,5.345-5.49,8.06c1.771-1.531,3.713-3.672,5.965-4.254
			c-0.492,1.752-1.619,3.281-2.136,5.025c0.949-0.512,1.859-1.445,3.025-1.404c0.025,1.318-0.931,2.502-1.23,3.758
			c-0.322,1.34-0.143,2.594,0.168,3.898c0.529,2.217,0.693,3.322-0.271,5.43c-0.589,1.283-1.496,2.654-1.688,4.027
			c1.891,0.114,2.23-0.161,2.646,1.902c0.44,2.184-0.06,3.98,0.066,6.053c1.893-0.637,6.076-4.07,6.139-6.467
			c0.054-2.071-1.144-4.34-0.888-6.729c0.184-1.702,1.05-3.26,1.198-4.945c0.151-1.702-0.521-3.006-1.021-4.551
			c-0.847-2.617-1.902-6.326-1.295-9.031C63.978,26.771,65.156,25.37,65.75,23.616z" class="color c3"/>
    </g>
  </g>
  <path fill="#B7F9F4" d="M95.612,54.99L95.612,54.99c-34.229,0-66.528,3.814-95.059,10.561c3.32,29.74,20.502,55.291,44.938,70.045
	c14.176,8.557,30.791,13.482,48.556,13.482c17.768,0,34.382-4.926,48.558-13.482c24.634-14.871,41.896-40.712,45.021-70.757
	C159.852,58.533,128.627,54.99,95.612,54.99z" class="color c4"/>
  <path fill="#159103" d="M188.179,53.479c0-1.162-0.029-2.316-0.069-3.47c-2.709,0.879-5.383,2.064-8.071,3.302l-2.309-4.121
	l2.949,0.908l-4.423-7.891l1.874,0.576l-5.792-10.338l-5.793,10.338l1.876-0.576L164,50.098l2.949-0.908l-4.532,8.088l-1.467-2.617
	l1.785,0.551l-2.676-4.777l1.136,0.35l-3.507-6.256l-3.506,6.256l1.134-0.35l-2.677,4.777l1.785-0.551l-1.252,2.234l-3.533-6.305
	l2.683,0.824l-4.018-7.168l1.702,0.522l-5.265-9.394l-5.263,9.394l1.701-0.522l-4.019,7.168l2.683-0.824l-3.499,6.244l-1.152,2.057
	l-1.271-2.27c0.06,0.006,0.118,0.01,0.18,0.016c0.336,0.028,0.672,0.059,1.009,0.088l-1.896-3.382l0.867,0.267l-2.681-4.781
	l-2.68,4.781l0.866-0.267l-1.575,2.813c-10.563-0.762-21.38-1.166-32.401-1.166h-0.002c-15.097,0-29.814,0.743-44.003,2.152
	c-1.162-0.262-2.359-0.457-3.622-0.521c-0.256-0.014-0.506-0.012-0.762-0.019l-1.386-2.47l0.851,0.26l-1.271-2.27l0.538,0.166
	l-1.666-2.975l-1.667,2.975l0.539-0.166l-1.271,2.27l0.85-0.26L41.2,56.88c-0.206,0.024-0.412,0.045-0.617,0.069l-2.185-3.897
	l1.965,0.605l-2.943-5.256l1.248,0.385L34.81,41.9l-3.857,6.887l1.249-0.385l-2.536,4.526L28.67,51.15l0.818,0.254l-2.534-4.527
	l-2.536,4.527l0.819-0.254l-1.935,3.455l1.289-0.398l-1.493,2.666c-0.965-0.113-1.935-0.115-2.907-0.094l-1.853-3.303l0.821,0.251
	l-2.537-4.524l-2.535,4.524l0.82-0.251l-1.55,2.762c-4.46-0.91-9-2.358-13.345-3.971C0.01,52.671,0,53.074,0,53.478
	c0,0.23,0.007,0.459,0.009,0.688c0.027,3.837,0.288,7.618,0.762,11.335c-0.07,0.016-0.146,0.031-0.217,0.049
	c1.628,14.574,6.592,28.138,14.099,39.925c31.23-5.527,63.228-12.009,63.228-12.009c43.271-9.835,1.313-12.457,1.313-12.457
	c-9.506-0.327-42.613-2.62-42.613-2.62c-9.133-1.63-15.336-3.205-19.321-4.706c-20.909-7.871,19.32-13.653,19.32-13.653
	c4.148-0.441,11.534-0.93,20.11-1.408c23.269-1.3,55.304-2.525,55.304-2.525s11.164-0.614,0,1.763c0,0-17.562,1.775-34.227,3.031
	c-6.675,0.5-13.205,0.92-18.407,1.106c0,0-24.934,1.909-16.935,4.626c2.354,0.802,7.556,1.673,17.1,2.586
	c0,0,101.944,1.966,109.482,17.045c0,0,11.475,12.785-13.439,28.191c0,0-33.105,18.354-59.33,24.91c0,0-0.194,0.068-0.532,0.199
	c-2.438,0.896-12.809,4.686-21.438,7.438c0,0,5.206,1.033,8.061,1.348c3.843,0.479,7.753,0.736,11.728,0.736
	c17.768,0,34.382-4.928,48.557-13.481c24.635-14.87,41.896-40.713,45.021-70.758c-0.045-0.012-0.092-0.021-0.138-0.03
	C187.936,61.093,188.179,57.314,188.179,53.479z" class="color c5"/>
</svg>