<svg version="1.1" id="图层_1" x="0px" y="0px" width="190.682px" height="190.694px" viewBox="0 0 190.682 190.694" enable-background="new 0 0 190.682 190.694" xml:space="preserve" xmlns="http://www.w3.org/2000/svg" xmlns:xlink="http://www.w3.org/1999/xlink" xmlns:xml="http://www.w3.org/XML/1998/namespace">
  <path fill="#D1AC87" d="M183.854,78.843l-14.25-14.25V44.439c0-12.875-10.474-23.349-23.349-23.349h-20.153l-14.25-14.25
	C107.441,2.429,101.578,0,95.341,0c-6.237,0-12.1,2.429-16.51,6.84L64.581,21.09H44.427c-12.875,0-23.349,10.474-23.349,23.349
	v20.153l-14.25,14.25c-9.104,9.104-9.103,23.917,0,33.02l14.25,14.25v20.154c0,12.875,10.474,23.349,23.349,23.349h20.154
	l14.25,14.25c4.552,4.553,10.53,6.828,16.51,6.828c5.978,0,11.959-2.276,16.51-6.828l14.25-14.25h20.153
	c12.875,0,23.349-10.474,23.349-23.349v-20.154l14.25-14.251C192.957,102.759,192.958,87.947,183.854,78.843z M146.255,27.317
	c9.441,0,17.123,7.681,17.123,17.123v13.927l-31.049-31.049H146.255z M27.305,44.439c0-9.441,7.681-17.123,17.123-17.123h13.927
	l-31.05,31.049V44.439z M44.427,163.389c-9.441,0-17.123-7.681-17.123-17.123v-13.927l31.05,31.05H44.427z M163.377,146.267
	c0,9.441-7.681,17.123-17.123,17.123h-13.927l31.049-31.05V146.267z M179.452,107.46l-9.848,9.848l-6.226,6.227l-39.854,39.854
	l-6.226,6.226l-9.848,9.848c-6.678,6.676-17.541,6.675-24.216,0l-9.848-9.848l-6.226-6.226l-39.855-39.855l-6.226-6.226
	l-9.848-9.848c-6.676-6.676-6.676-17.539,0-24.216l9.848-9.848l6.226-6.226l39.854-39.854l6.227-6.226l9.848-9.848
	c3.234-3.234,7.534-5.016,12.108-5.016c4.573,0,8.873,1.782,12.108,5.016l9.848,9.848l6.226,6.226l39.854,39.854l6.226,6.226
	l9.848,9.848C186.128,89.921,186.128,100.784,179.452,107.46z" class="color c1"/>
</svg>