<svg version="1.1" id="图层_1" x="0px" y="0px" width="117.841px" height="109.989px" viewBox="0 0 117.841 109.989" enable-background="new 0 0 117.841 109.989" xml:space="preserve" xmlns="http://www.w3.org/2000/svg" xmlns:xlink="http://www.w3.org/1999/xlink" xmlns:xml="http://www.w3.org/XML/1998/namespace">
  <path fill="#BC5800" d="M113.659,63.94c-0.64-0.341-1.319-0.567-2.03-0.631c-1.389-0.125-2.761-0.063-4.118,0.341
	c-2.005,0.596-3.797,1.585-5.461,2.821c-1.43,1.063-2.826,2.174-4.25,3.25c-1.081,0.818-2.242,1.486-3.588,1.787
	c-1.486,0.332-2.833,0.085-4.003-0.925c-0.653-0.564-0.918-1.257-0.72-2.126c0.217-0.955,0.631-1.781,1.347-2.462
	c0.981-0.935,2.075-1.717,3.19-2.473c1.878-1.274,3.628-2.695,5.029-4.501c1.056-1.361,1.654-2.876,1.508-4.632
	c-0.145-1.725-1.075-2.572-2.781-2.556c-0.728,0.008-1.41,0.184-2.076,0.458c-1.259,0.52-2.373,1.259-3.367,2.189
	c-1.551,1.452-2.737,3.174-3.813,4.989c-0.707,1.192-1.416,2.388-2.211,3.523c-1.555,2.215-3.529,3.96-6.069,4.982
	c-2.555,1.029-4.891,0.666-6.957-1.188c-0.917-0.822-1.768-1.705-2.494-2.704c-0.808-1.108-1.385-2.329-1.572-3.682
	c-0.585-4.225,0.073-8.225,2.398-11.851c2.01-3.137,4.723-5.582,8.026-7.255c4.347-2.199,8.682-2.195,12.822,0.659
	c0.489,0.337,0.986,0.664,1.494,0.974c2.635,1.602,5.444,2.72,8.522,3.13c4.35,0.58,8.004-1.798,9.148-5.979
	c1.141-4.179-1.774-8.128-6.109-8.236c-2.695-0.067-5.273,0.489-7.737,1.581c-1.304,0.576-2.572,1.235-3.931,1.676
	c-1.225,0.396-2.47,0.589-3.747,0.333c-1.354-0.274-2.458-0.912-2.962-2.284c-0.418-1.144-0.491-2.309-0.144-3.499
	c0.294-1.006,0.863-1.758,1.802-2.245c0.814-0.421,1.659-0.753,2.542-0.984c2.3-0.604,4.562-1.327,6.787-2.16
	c2.372-0.888,4.517-2.138,6.202-4.059c2.012-2.292,2.889-4.873,1.933-7.912c-0.433-1.379-1.168-2.497-2.402-3.278
	c-0.738-0.468-1.506-0.867-2.33-1.169c-1.966-0.723-3.738-0.313-5.369,0.907c-0.639,0.479-1.146,1.09-1.611,1.736
	c-1.212,1.678-2.209,3.476-2.967,5.404c-0.522,1.329-1.085,2.638-1.794,3.879c-0.671,1.174-1.418,2.295-2.408,3.229
	c-2.891,2.736-8.906,2.651-10.004-2.905c-0.046-0.233-0.087-0.466-0.136-0.7c-0.408-1.921-0.186-3.872-0.279-5.808
	c-0.132-2.775-0.344-5.516-1.311-8.174C73.688-0.01,67.574-1.05,63.753,0.93c-1.359,0.704-2.322,1.762-2.901,3.175
	c-0.804,1.962-0.813,3.937-0.067,5.913c0.905,2.394,2.223,4.546,3.852,6.519c0.983,1.19,1.958,2.395,2.856,3.65
	c2.387,3.343,3.751,7.091,3.822,11.19c0.106,6.042-2.113,11.212-6.328,15.529c-1.626,1.666-3.564,2.882-5.678,3.837
	c-2.033,0.917-4.108,1.11-6.247,0.434c-2.231-0.704-3.457-2.84-2.967-5.135c0.275-1.287,0.955-2.333,1.867-3.249
	c1.489-1.494,3.177-2.745,4.857-4.006c2.095-1.572,3.527-3.61,4.343-6.095c0.446-1.356,0.522-2.728,0.117-4.094
	c-0.518-1.756-1.317-3.357-3.105-4.136c-2-0.87-4.877-0.648-6.732,1.229c-1.521,1.54-2.48,3.369-2.956,5.464
	c-0.333,1.468-0.631,2.943-0.99,4.403c-0.337,1.362-0.905,2.616-1.875,3.665c-1.233,1.331-2.654,1.688-4.408,1.112
	c-2.154-0.705-3.108-3.082-3.213-4.86c-0.105-1.795,0.271-3.546,0.601-5.3c0.519-2.761,1.161-5.508,1.086-8.549
	c0.064-1.229-0.103-2.648-0.273-4.064c-0.245-2.043-1.02-3.874-2.101-5.625c-1.826-2.962-6.985-4.429-9.813-3.577
	c-4.416,1.329-6.78,5.321-5.646,9.781c0.526,2.076,1.53,3.896,3.041,5.432c0.977,0.991,2.042,1.879,3.096,2.78
	c1.212,1.037,2.271,2.207,3.163,3.533c0.49,0.73,0.906,1.504,1.072,2.368c0.55,2.865-0.458,4.738-3.172,5.467
	c-0.735,0.196-1.487,0.154-2.231-0.04c-1.271-0.329-2.486-0.808-3.659-1.387c-1.741-0.857-3.461-1.756-5.203-2.611
	c-1.644-0.807-3.36-1.427-5.186-1.635c-2.401-0.274-4.675,0.054-6.583,1.711c-1.803,1.563-2.278,3.61-1.354,5.799
	c0.837,1.982,2.334,3.274,4.339,3.965c1.979,0.683,4.034,0.831,6.1,0.6c2.449-0.272,4.801-0.997,7.155-1.693
	c1.406-0.416,2.818-0.798,4.274-1.003c2.991-0.421,5.587,0.545,8.091,2.107c2.39,1.489,3.867,3.573,4.646,6.221
	c0.914,3.101,0.798,6.21-0.182,9.248c-1.154,3.573-3.558,5.95-7.285,6.786c-2.377,0.533-4.801,0.527-7.216,0.25
	c-2.744-0.314-5.31-1.176-7.757-2.477c-2.941-1.566-6.065-2.545-9.447-2.415c-3.017,0.117-5.257,1.558-6.802,4.12
	c-1.426,2.366-0.658,5.009,0.876,6.562c1.222,1.237,2.683,2.11,4.413,2.42c2.662,0.476,5.204-0.065,7.653-1.085
	c1.203-0.501,2.351-1.138,3.522-1.721c1.964-0.979,4.008-1.717,6.211-1.893c1.063-0.084,2.07,0.147,2.74,1.087
	c0.646,0.907,0.326,1.827-0.081,2.705c-0.335,0.722-0.846,1.337-1.366,1.938c-0.674,0.779-1.35,1.558-2.026,2.336
	c-0.89,1.027-1.589,2.173-2.105,3.428c-0.642,1.569-0.987,3.194-0.649,4.879c0.384,1.917,1.418,3.487,3.362,3.927
	c2.043,0.461,4.048-0.001,5.613-1.552c1.599-1.584,2.614-3.485,2.736-5.773c0.088-1.661,0.113-3.326,0.149-4.989
	c0.013-0.523,0.104-1.008,0.297-1.5c0.874-2.226,2.755-3.037,4.876-3.208c2.891-0.234,5.182,0.879,6.481,3.636
	c1.201,2.546,2.27,5.146,3.148,7.818c0.468,1.421,0.894,2.854,1.294,4.294l-0.041,0.028c1.669,5.952-2.177,18.291-2.903,19.452
	c0,0,7.403,2.903,18.291,1.597c0,0-6.614-13.968-3.603-22.749c1.132-2.679,2.534-5.226,4.303-7.594
	c1.785-2.386,4.143-3.88,7.05-4.506c3.692-0.794,8.128,0.5,9.842,5.231c0.31,0.86,0.564,1.731,0.712,2.634
	c0.28,1.719,0.563,3.438,0.916,5.145c0.651,3.152,2.307,5.695,4.586,7.888c1.659,1.597,3.631,2.564,5.937,2.679
	c2.535,0.127,4.787-0.584,6.458-2.623c1.72-2.1,1.898-4.643,0.506-6.971c-0.854-1.43-2.063-2.502-3.483-3.337
	c-0.819-0.482-1.663-0.921-2.501-1.372c-0.878-0.471-1.684-1.04-2.406-1.728c-2.012-1.913-0.853-4.263,1.192-4.786
	c0.933-0.238,1.868-0.342,2.825-0.275c2.89,0.2,5.73,0.718,8.558,1.332s5.665,0.748,8.423-0.349c2.843-1.13,4.782-3.05,5.22-6.217
	C118.203,69.015,116.357,65.384,113.659,63.94z" class="color c1"/>
  <g>
    <path fill="#FFFFFF" d="M51.75,33.703c0.031-0.122,0.051-0.367,0.155-0.571c0.46-0.912,0.919-1.827,1.431-2.71
		c0.377-0.646,0.928-0.845,1.485-0.644c0.602,0.217,0.915,0.884,0.605,1.554c-0.479,1.033-1.021,2.039-1.588,3.027
		c-0.274,0.477-0.747,0.711-1.315,0.523C52.026,34.717,51.761,34.351,51.75,33.703z" class="color c2"/>
    <path fill="#FFFFFF" d="M36.848,19.44c-0.028,0.686-0.252,1.087-0.761,1.249c-0.552,0.175-1.078,0.029-1.317-0.492
		c-0.543-1.179-0.94-2.421-1.205-3.689c-0.114-0.545,0.253-0.979,0.806-1.158c0.521-0.169,0.986,0.023,1.225,0.464
		C36.234,16.997,36.53,18.306,36.848,19.44z" class="color c2"/>
    <path fill="#FFFFFF" d="M23.472,83.926c0.339-1.091,0.645-2.398,1.295-3.572c0.258-0.468,0.897-0.6,1.36-0.379
		c0.475,0.225,0.766,0.651,0.647,1.146c-0.298,1.258-0.685,2.502-1.268,3.661c-0.224,0.447-0.691,0.637-1.214,0.487
		C23.724,85.105,23.466,84.704,23.472,83.926z" class="color c2"/>
    <path fill="#FFFFFF" d="M53.04,82.979c-0.017,0.793-0.314,1.215-0.873,1.343c-0.584,0.134-1.147-0.169-1.333-0.86
		c-0.275-1.021-0.493-2.063-0.66-3.107c-0.105-0.663,0.331-1.196,0.922-1.304c0.524-0.097,1.064,0.198,1.273,0.818
		C52.72,80.911,52.921,81.993,53.04,82.979z" class="color c2"/>
    <path fill="#FFFFFF" d="M108.558,71.037c-0.677,0.008-1.178-0.331-1.307-0.859c-0.146-0.598,0.156-1.17,0.836-1.372
		c0.909-0.271,1.836-0.495,2.767-0.678c0.674-0.13,1.242,0.255,1.377,0.833c0.133,0.568-0.105,1.106-0.718,1.338
		C110.55,70.666,109.535,70.855,108.558,71.037z" class="color c2"/>
    <path fill="#FFFFFF" d="M14.58,35.328c0.922,0.236,2.003,0.476,3.057,0.804c0.556,0.173,0.759,0.667,0.66,1.245
		c-0.085,0.513-0.526,0.941-1.097,0.89c-1.1-0.1-2.196-0.316-3.212-0.761c-0.582-0.253-0.82-0.875-0.641-1.381
		C13.52,35.623,13.895,35.368,14.58,35.328z" class="color c2"/>
    <path fill="#FFFFFF" d="M8.376,66.622c-0.708-0.085-1.462-0.144-2.199-0.272c-0.714-0.125-1.083-0.604-1.036-1.228
		c0.044-0.604,0.507-1.07,1.214-1.051c0.907,0.024,1.815,0.122,2.714,0.254c0.818,0.122,1.203,0.585,1.153,1.247
		c-0.045,0.645-0.509,1.012-1.333,1.049C8.73,66.628,8.572,66.622,8.376,66.622z" class="color c2"/>
    <path fill="#FFFFFF" d="M76.771,32.591c0.761-0.011,1.319,0.692,1.071,1.475c-0.321,1.02-0.819,1.976-1.407,2.868
		c-0.337,0.515-1,0.629-1.476,0.341c-0.504-0.306-0.716-0.81-0.497-1.329c0.414-0.981,0.909-1.931,1.409-2.872
		C76.042,32.751,76.382,32.587,76.771,32.591z" class="color c2"/>
    <path fill="#FFFFFF" d="M53.106,56.894c0,0.475,0.041,0.953-0.01,1.421c-0.069,0.647-0.506,1.067-1.053,1.106
		c-0.579,0.039-1.117-0.396-1.189-1.086c-0.094-0.903-0.152-1.818-0.133-2.727c0.017-0.852,0.54-1.368,1.203-1.337
		c0.619,0.03,1.041,0.511,1.102,1.318c0.033,0.433,0.006,0.871,0.006,1.305C53.057,56.894,53.083,56.894,53.106,56.894z" class="color c2"/>
    <path fill="#FFFFFF" d="M61.356,71.023c-0.125,0.963-0.199,1.794-0.348,2.608c-0.144,0.785-0.649,1.174-1.298,1.097
		c-0.643-0.077-1.042-0.566-0.985-1.381c0.061-0.864,0.182-1.73,0.363-2.577c0.188-0.879,0.712-1.233,1.409-1.083
		C61.12,69.82,61.397,70.301,61.356,71.023z" class="color c2"/>
    <path fill="#FFFFFF" d="M92.964,90.074c0.009,0.986-0.945,1.575-1.671,1.059c-0.87-0.619-1.599-1.418-2.205-2.303
		c-0.33-0.483-0.206-1.048,0.205-1.397c0.403-0.343,0.883-0.446,1.311-0.119c0.851,0.65,1.591,1.422,2.205,2.307
		C92.913,89.774,92.936,89.987,92.964,90.074z" class="color c2"/>
    <path fill="#FFFFFF" d="M93.918,59.714c-0.973,0.007-1.526-0.9-1.04-1.683c0.541-0.876,1.274-1.618,2.054-2.289
		c0.396-0.339,0.886-0.334,1.317-0.006c0.419,0.319,0.637,0.783,0.384,1.253c-0.565,1.059-1.403,1.899-2.349,2.628
		C94.171,59.705,93.985,59.698,93.918,59.714z" class="color c2"/>
    <path fill="#FFFFFF" d="M85.831,31.244c0.018,0.579-1.692,3.023-2.267,3.214c-0.442,0.148-0.863,0.089-1.199-0.265
		c-0.33-0.348-0.451-0.773-0.227-1.2c0.479-0.911,1.05-1.768,1.776-2.504c0.369-0.374,0.849-0.419,1.318-0.198
		C85.62,30.474,85.813,30.813,85.831,31.244z" class="color c2"/>
    <path fill="#FFFFFF" d="M14.859,70.357c-0.157-0.015-0.52-0.008-0.862-0.09c-0.573-0.138-0.91-0.58-0.901-1.097
		c0.008-0.508,0.373-1.005,0.927-1.083c0.859-0.12,1.73-0.197,2.597-0.207c0.56-0.007,0.965,0.335,1.096,0.91
		c0.125,0.537-0.188,1.09-0.787,1.298C16.329,70.298,15.69,70.332,14.859,70.357z" class="color c2"/>
    <path fill="#FFFFFF" d="M71.488,10.297c-0.01-0.656,0.177-1.107,0.759-1.284c0.558-0.168,1.062-0.009,1.316,0.51
		c0.414,0.849,0.723,1.75,0.863,2.688c0.083,0.566-0.179,0.999-0.748,1.194c-0.499,0.171-1.055,0.001-1.315-0.512
		C71.931,12.051,71.678,11.136,71.488,10.297z" class="color c2"/>
    <path fill="#FFFFFF" d="M65.326,12.161c-0.022-0.533,0.205-0.924,0.695-1.124c0.446-0.18,0.903-0.103,1.193,0.265
		c0.611,0.775,1.041,1.67,1.448,2.564c0.188,0.416,0.03,0.863-0.354,1.164c-0.42,0.328-0.874,0.327-1.322,0.063
		C66.467,14.79,65.344,12.792,65.326,12.161z" class="color c2"/>
    <path fill="#FFFFFF" d="M11.868,41.464c-0.625-0.097-1.374-0.176-2.105-0.336c-0.675-0.15-1.057-0.712-0.969-1.29
		c0.09-0.581,0.604-1.02,1.298-0.965c0.783,0.062,1.569,0.191,2.335,0.372c0.714,0.169,1.059,0.688,0.972,1.276
		C13.308,41.158,12.796,41.5,11.868,41.464z" class="color c2"/>
    <path fill="#FFFFFF" d="M105.849,37.841c-0.433,0-0.875,0.052-1.298-0.013c-0.571-0.09-0.907-0.537-0.899-1.077
		c0.008-0.535,0.271-0.936,0.787-1.05c0.926-0.208,1.881-0.235,2.822-0.157c0.638,0.053,1.017,0.547,1.014,1.115
		c0,0.563-0.376,0.99-1.009,1.142c-0.077,0.017-0.155,0.029-0.234,0.029c-0.395,0.004-0.79,0.003-1.183,0.003
		C105.849,37.835,105.849,37.838,105.849,37.841z" class="color c2"/>
    <path fill="#FFFFFF" d="M102.979,75.492c-0.926,0-1.396-0.333-1.488-0.93c-0.098-0.619,0.219-1.125,0.929-1.297
		c0.766-0.184,1.548-0.318,2.331-0.394c0.69-0.067,1.207,0.356,1.3,0.942c0.099,0.619-0.224,1.148-0.918,1.311
		C104.367,75.306,103.58,75.394,102.979,75.492z" class="color c2"/>
    <path fill="#FFFFFF" d="M45.073,62.91c-0.009-0.866,0.343-1.365,0.931-1.467c0.518-0.087,1.094,0.238,1.258,0.851
		c0.213,0.799,0.369,1.62,0.454,2.442c0.075,0.695-0.352,1.201-0.946,1.306c-0.581,0.104-1.138-0.25-1.304-0.942
		C45.28,64.333,45.184,63.546,45.073,62.91z" class="color c2"/>
    <path fill="#FFFFFF" d="M27.537,18.673c-0.027-0.679,0.167-1.054,0.609-1.247c0.422-0.184,0.886-0.185,1.212,0.169
		c0.665,0.728,1.223,1.547,1.652,2.434c0.232,0.476,0.051,0.939-0.359,1.265c-0.375,0.297-0.869,0.368-1.216,0.081
		C28.515,20.613,27.896,19.619,27.537,18.673z" class="color c2"/>
    <path fill="#FFFFFF" d="M68.493,4.917c0.023,0.651-0.138,1.042-0.58,1.248c-0.47,0.216-0.98,0.201-1.301-0.216
		c-0.651-0.848-1.143-1.8-1.32-2.865c-0.087-0.513,0.194-0.928,0.689-1.119c0.438-0.169,0.908-0.124,1.19,0.26
		C67.805,3.084,68.181,4.082,68.493,4.917z" class="color c2"/>
    <path fill="#FFFFFF" d="M99.036,39.755c0.626,0.088,1.261,0.138,1.876,0.273c0.699,0.153,1.065,0.672,0.986,1.273
		c-0.077,0.591-0.569,1.021-1.271,0.999c-0.628-0.021-1.259-0.113-1.88-0.225c-0.846-0.15-1.309-0.682-1.224-1.331
		C97.612,40.08,98.173,39.713,99.036,39.755z" class="color c2"/>
    <path fill="#FFFFFF" d="M100.153,18.498c0.04,0.88-1.302,2.188-2.185,2.114c-0.408-0.035-0.755-0.21-0.953-0.598
		c-0.218-0.428-0.191-0.867,0.124-1.208c0.396-0.429,0.824-0.852,1.308-1.172C99.205,17.133,100.113,17.623,100.153,18.498z" class="color c2"/>
  </g>
</svg>