<svg version="1.1" id="图层_1" x="0px" y="0px" width="151.525px" height="126.815px" viewBox="0 0 151.525 126.815" enable-background="new 0 0 151.525 126.815" xml:space="preserve" xmlns="http://www.w3.org/2000/svg" xmlns:xlink="http://www.w3.org/1999/xlink" xmlns:xml="http://www.w3.org/XML/1998/namespace">
  <path fill="#9CE1E5" d="M95.25,0h-0.751C51.8,0,0.908,33.309,0.063,97.451L0,122.119c0,2.586,2.109,4.695,4.696,4.695h50.297
	c-11.296-17.889-12.187-43.508,0.25-65.176c6.19-10.722,15.602-19.851,27.047-24.73c5.174-2.299,11.378-3.432,15.997-3.934
	l5.321-0.011c3.413,0.125,6.949,1.785,10.487,4.978c2.504,2.223,3.944,5.509,4.82,9.235c1.409,6.135,1.127,13.397,0.908,18.876
	c-0.188,5.228-0.313,8.39,0.751,10.706c1.221,2.63,3.976,3.882,6.981,3.225c7.012-1.534,19.972-16.779,20.065-34.529
	C147.747,18.971,126.21,0.282,95.25,0L95.25,0z" class="color c1"/>
  <path fill="#58C4BC" d="M48.487,70.874c0.659-12.527,5.589-25.235,16.091-32.274c4.038-2.724,8.921-4.603,14.744-5.385
	c0.971-0.219,1.972-0.281,2.974-0.251l30.522-6.562c-1.971-2.228-11.984-3.847-15.234-4.159
	c-24.215-2.328-47.834,3.754-64.726,24.708c-16.204,20.102-20.481,59.226-9.946,79.864h60.636
	C60.302,119.83,47.317,94.231,48.487,70.874z" class="color c2"/>
  <path fill="#2C9F98" d="M69.821,70.77c0.659-12.527,5.589-25.235,16.09-32.274c4.038-2.724,8.922-4.603,14.744-5.385
	c0.971-0.219,1.973-0.281,2.975-0.251l10.487-0.156l-6.355-8.702c-1.643-0.493-3.3-0.688-4.758-0.688
	c-24.326,0-44.116,13.169-55.879,33.558c-12.878,22.379-13.414,49.202-2.88,69.841h60.637C81.636,119.726,68.65,94.127,69.821,70.77
	L69.821,70.77z" class="color c3"/>
  <path fill="#005965" d="M146.829,98.536c-32.181,0-53.874-11.237-59.509-30.896c-1.973-6.919-1.597-13.806,0.219-19.597
	c2.401-7.687,8.03-15.435,16.091-15.184c3.412,0.126,6.949,1.785,10.487,4.979c2.504,2.222,3.944,5.509,4.82,9.234
	c0.813-2.035,1.283-4.227,1.283-6.543c0-7.857-5.259-14.462-12.459-16.528c-7.706-2.028-30.947,1.732-41.729,23.729
	c-3.224,6.48-5.164,14.087-5.571,22.57c-1.059,20.501,7.483,43.081,24.448,56.411h61.92c2.599,0,4.696-2.098,4.696-4.696v-18.782
	C151.525,100.634,149.428,98.536,146.829,98.536L146.829,98.536z" class="color c4"/>
</svg>