<svg version="1.1" id="图层_1" x="0px" y="0px" width="200px" height="89.133px" viewBox="0 0 200 89.133" enable-background="new 0 0 200 89.133" xml:space="preserve" xmlns="http://www.w3.org/2000/svg" xmlns:xlink="http://www.w3.org/1999/xlink" xmlns:xml="http://www.w3.org/XML/1998/namespace">
  <path fill="#2FB5E8" d="M163,0.426c-0.182-0.026-0.354-0.061-0.535-0.085c-0.611-0.083-1.221-0.144-1.831-0.196
	c-0.085-0.007-0.17-0.015-0.255-0.021c-0.626-0.049-1.25-0.085-1.873-0.104c-0.014,0-0.025,0-0.039-0.001
	c-0.644-0.019-1.285-0.022-1.925-0.011c-0.021,0-0.043,0-0.065,0c-0.647,0.012-1.295,0.039-1.94,0.079
	c-0.019,0.001-0.034,0.002-0.052,0.003C142.428,0.845,130.973,6.297,121,9.061c-0.277,0.077-0.555,0.152-0.83,0.225
	c-0.16,0.042-0.32,0.085-0.48,0.125c-0.469,0.119-0.936,0.233-1.397,0.338c-0.038,0.008-0.075,0.016-0.112,0.025
	c-4.214,0.942-8.128,1.237-11.67,0.268c0.071,0.032,0.145,0.06,0.215,0.091c-3.713-0.937-7.029-3.221-9.857-7.552
	c-3.945,0.961-6.131,6.743-5.453,11.755c0.679,4.838,4.044,8.085,7.444,9.511c3.199,1.331,10.195,0.315,10.195,0.315
	s0.333,5.093,5.022,7.379c4.311,2.108,10.595,1.391,13.575-2.887c2.888,4.647,8.324,7.132,14.641,4.43
	c5.122,2.586,7.643,7.543,6.714,13.143c-1.293,7.629-9.135,12.652-15.815,13.861c-15.565,2.619-28.612-2.269-44.991-5.074
	c-4.327-0.744-18.783-3.795-32.659-3.248c0.017,0,0.051,0.02,0.068,0.02c-4.691,0.098-9.452,0.647-14.572,1.756
	c-3.168,0.681-6.483,1.556-9.996,2.688c-4.03,1.29-13.744,5.416-16.662,7.521c10.278-2.635,20.375-3.764,31.068-3.744
	c10.542,0.017,19.146,2.156,27.55,5.687c6.168,2.604,9.384,4.394,14.904,7.843c15.731,9.83,34.847,15.602,51.078,15.602
	c15.379,0,30.584-2.928,42.215-12.018c-0.061,0.057-0.115,0.106-0.178,0.168c7.243-5.556,13.094-13.496,16.809-24.554
	C204.602,32.508,196.236,5.17,163,0.426z" class="color c1"/>
  <path fill="#0277B9" d="M164.741,59.517c-6,7.688-16.578,10.198-25.546,10.644c-13.278,0.516-25.381-3.939-37.481-8.453
	c-7.775-2.918-15.549-5.855-23.64-7.508c-7.278-1.496-13.776-2.375-20.341-2.406c-0.713,0-1.425,0-2.156,0.031
	c-0.017-0.013-0.033-0.013-0.049-0.013c13.893-0.569,28.347,2.497,32.657,3.229c16.397,2.817,29.446,7.709,44.995,5.068
	c6.697-1.189,14.521-6.216,15.831-13.855c0.911-5.533-1.509-10.375-6.549-13.231c0.085-0.013,0.149-0.047,0.233-0.093h0.016
	c0.449-0.202,0.896-0.419,1.344-0.686c1.076-0.593,1.906-1.453,2.734-2.299c2.652-2.736,5.074-5.425,14.208,0.462
	C170.412,36.824,172.004,50.514,164.741,59.517z" class="color c2"/>
  <path fill="#2CA0DC" d="M94.022,83.782c-1.742-0.994-3.789-1.527-6.169-2.398c-3.588-1.307-7.489-2.074-10.601-2.799
	c-8.612-1.9-14.155-3.107-23.058-3.906C39,73.329,26.796,78.708,12.798,78.825C8.482,78.872,3.831,77.982,0,76.314
	c5.026-5.515,16.75-8.967,23.928-10.173c8.615-1.438,18.418-1.665,27.28-0.941c4.058,0.469,7.517,1.021,12.374,2.385
	c4.961,1.383,9.238,2.869,14.113,5.115C83.224,75.256,88.1,78.263,94.022,83.782z" class="color c3"/>
</svg>