<svg version="1.1" id="图层_1" x="0px" y="0px" width="167.622px" height="78.8px" viewBox="0 0 167.622 78.8" enable-background="new 0 0 167.622 78.8" xml:space="preserve" xmlns="http://www.w3.org/2000/svg" xmlns:xlink="http://www.w3.org/1999/xlink" xmlns:xml="http://www.w3.org/XML/1998/namespace">
  <g>
    <rect x="56.334" y="60.462" fill="#874D11" width="1.256" height="11.59" class="color c1"/>
    <rect x="103.003" y="60.462" fill="#874D11" width="1.255" height="11.59" class="color c1"/>
    <path fill="#874D11" d="M109.599,64.379h-0.832c-0.178,0-0.324,0.176-0.324,0.393v8.062h-56.29v-8.062
		c0-0.217-0.146-0.393-0.327-0.393h-0.832c-0.179,0-0.326,0.176-0.326,0.393v7.801c0,0.771,0.511,1.395,1.146,1.414V78.8h1.483
		v-3.867h53.999V78.8h1.482v-4.813c0.637-0.021,1.146-0.644,1.146-1.414v-7.801C109.925,64.555,109.778,64.379,109.599,64.379z" class="color c1"/>
  </g>
  <path fill="#F9D59B" d="M108.083,61.638H52.51c-0.198,0-0.357-0.194-0.357-0.434v-1.485c0-0.237,0.159-0.433,0.357-0.433h55.573
	c0.199,0,0.359,0.195,0.359,0.433v1.485C108.442,61.444,108.282,61.638,108.083,61.638L108.083,61.638z" class="color c2"/>
  <path fill="#F9D59B" d="M108.083,65.555H52.51c-0.198,0-0.357-0.194-0.357-0.434v-1.484c0-0.239,0.159-0.433,0.357-0.433h55.573
	c0.199,0,0.359,0.193,0.359,0.433v1.484C108.442,65.361,108.282,65.555,108.083,65.555L108.083,65.555z" class="color c2"/>
  <path fill="#F9D59B" d="M108.083,69.472H52.51c-0.198,0-0.357-0.194-0.357-0.433v-1.485c0-0.238,0.159-0.433,0.357-0.433h55.573
	c0.199,0,0.359,0.194,0.359,0.433v1.485C108.442,69.278,108.282,69.472,108.083,69.472L108.083,69.472z" class="color c2"/>
  <polygon fill="#F9D59B" points="108.442,72.878 52.152,72.878 52.152,71.227 108.442,71.227 108.442,72.878 " class="color c2"/>
  <path fill="#F9D59B" d="M47.39,49.082c0,10.722-4.179,14.167-8.667,14.167c-4.488,0-8.232-0.317-8.232-11.041
	s4.562-26.211,9.05-26.256c3.599-0.036,7.432,9.322,7.432,20.047L47.39,49.082z" class="color c2"/>
  <path fill="#D27F06" d="M39.542,64.787c4.488,0,8.772-4.426,8.772-15.147c0-9.499-3.361-20.75-7.246-23.199
	c5.135,4.549,6.277,19.173,3.415,29.426c-2.735,9.795-12.003,5.521-12.029,5.511C34.201,64.135,36.885,64.787,39.542,64.787
	L39.542,64.787z" class="color c3"/>
  <path fill="#F9D59B" d="M0.765,60.291c0,7.85,2.924,10.167,6.208,10.167c3.286,0,6.071-0.447,6.071-8.297
	c0-7.848-3.34-19.299-6.625-19.217c-3.029,0.075-5.592,7.934-5.592,15.784L0.765,60.291z" class="color c2"/>
  <path fill="#D27F06" d="M6.419,71.368C3.135,71.368,0,68.13,0,60.281c0-6.953,2.458-15.188,5.303-16.98
	c-3.76,3.329-4.594,14.034-2.5,21.538c2.001,7.17,8.785,4.042,8.805,4.035C10.329,70.891,8.365,71.368,6.419,71.368L6.419,71.368z" class="color c3"/>
  <path fill="#F7BD5E" d="M32.265,12.291C31.73,6.477,27.339,1.101,21.387,1.101c-6.31,0-10.122,4.941-10.122,11.252
	c0,1.143,1.187,2.709,1.5,3.75c-3.818,1.85-8.774,5.473-8.774,10c0,6.31,5.15,10.875,11.461,10.875c4.13,0,7.493-3.592,9.5-6.875
	c1.896,1.403,4.583,3,7.125,3c6.311,0,10.063-4.544,10.063-10.854c0-6.041-2.751-9.107-8.688-9.521L32.265,12.291z" class="color c4"/>
  <path fill="#D27F06" d="M17.678,16.668c0,0-0.473-1.422-5.144-2.369c0,0-3.003-7.162,7.296-13.091
	c-5.576,0.76-9.87,5.536-9.87,11.318c0,1.143,0.169,2.246,0.482,3.287c-3.818,1.85-6.452,5.762-6.452,10.289
	C3.991,26.103,6.307,18.157,17.678,16.668L17.678,16.668z" class="color c3"/>
  <path fill="#F7BD5E" d="M117.589,13.752c11.398-1.067,19.836,14.428,20.676,23.413c0.842,8.985-6.477,17.559-17.875,18.625
	c-11.395,1.066-21.504-6.124-22.392-15.104C97.39,34.541,106.194,14.819,117.589,13.752L117.589,13.752z" class="color c4"/>
  <path fill="#D27F06" d="M118.712,13.7c14.67,1.498,17.889,18.806,15.672,28.021c-2,8.305-10.844,11.118-14.787,11.58
	c-7.6,0.893-18.507-5.654-19.729-6.77c3.561,6.444,11.632,11.359,20.479,10.531c11.398-1.066,19.762-11.257,18.92-20.242
	C138.454,28.132,129.601,13.678,118.712,13.7L118.712,13.7z" class="color c3"/>
  <path fill="#D27F06" d="M118.712,13.7c-0.371,0.001-0.746,0.017-1.123,0.053c-11.031,1.032-19.853,16.887-19.642,26.05
	C107.138,12.861,118.712,13.7,118.712,13.7L118.712,13.7z" class="color c3"/>
  <path fill="#F7BD5E" d="M164.39,36.999c-1.518-1.249-3.643-1.618-6.082-0.583c0.699-2.798,1.416-8.4,1.416-11.583
	c0-13.714-6.02-24.753-14.807-24.832c-9.402-0.085-13.908,12.952-14.859,25.248c-2.193-1.024-4.439-2.793-6.25-1.917
	c-4.666,2.26-6.1,8.848-2.162,16.983s10.244,11.777,14.912,9.518c1.111-0.538,2.521-1.683,3.166-2.834
	c1.59,0.832,3.23,1.667,5,1.667c1.611,0,5.035-1.89,6.5-2.583c0.104,1.458-0.475,3.196,0.5,4c2.855,2.353,5.482,1.894,9.584-3.084
	c4.1-4.978,3.582-5.416,3.416-7.833L164.39,36.999z" class="color c4"/>
  <path fill="#D27F06" d="M165.999,34.052c-1.518-1.249-3.818-1.235-6.258-0.2c0.701-2.798,1.088-5.837,1.088-9.02
	c0-12.957-6.359-23.59-14.473-24.726c15.879,2.568,10.914,37.992,10.914,37.992s3.855-0.198,1.977,4.129
	c-1.877,4.327-5.93,1.009-5.93,1.009c-3.557,4.349-14.822,2.076-14.822,2.076c-1.977,7.409-14.801-1.45-14.811-1.457
	c4.016,5.907,9.6,9.007,13.541,7.1c1.113-0.538,1.988-1.43,2.633-2.581c1.59,0.832,3.289,1.29,5.059,1.29
	c1.611,0,3.164-0.377,4.629-1.07c0.104,1.458,0.627,2.681,1.604,3.484c2.854,2.353,8.494,0.224,12.596-4.754
	C167.845,42.347,168.854,36.405,165.999,34.052L165.999,34.052z" class="color c3"/>
  <path fill="#D27F06" d="M144.228,0.107c0.184-0.033,0.355-0.066,0.527-0.101c-8.061,0.127-14.684,9.607-15.627,21.82
	c-2.193-1.024-4.352-1.21-6.164-0.334c-3.68,1.782-4.822,7.397-3.213,13.681c0.002-0.061,0.377-10.016,4.809-10.116
	c4.449-0.102,7.018,4.304,7.018,4.304S129.009,2.83,144.228,0.107L144.228,0.107z" class="color c3"/>
  <g>
    <path fill="#D27F06" d="M29.098,41.149c-0.116,0.039-0.165,0.174-0.103,0.278c0.241,0.408,0.869,1.313,1.744,1.388
		c1.134,0.095,1.24-0.439,1.24-0.439s0.268-0.474-0.654-1.142C30.613,40.718,29.547,40.997,29.098,41.149L29.098,41.149z" class="color c3"/>
    <path fill="#D27F06" d="M36.424,55.338c-0.107-0.059-0.239-0.005-0.275,0.111c-0.138,0.454-0.383,1.528,0.153,2.225
		c0.696,0.901,1.16,0.618,1.16,0.618s0.532-0.121,0.402-1.252C37.763,56.167,36.84,55.567,36.424,55.338L36.424,55.338z" class="color c3"/>
    <path fill="#D27F06" d="M41.06,34.043c-0.036-0.071-0.126-0.092-0.188-0.043c-0.242,0.19-0.77,0.673-0.74,1.242
		c0.037,0.738,0.388,0.759,0.388,0.759s0.329,0.132,0.679-0.52C41.467,34.98,41.198,34.319,41.06,34.043L41.06,34.043z" class="color c3"/>
    <path fill="#D27F06" d="M43.277,33.904c0-0.079-0.071-0.138-0.148-0.122c-0.301,0.061-0.99,0.254-1.221,0.774
		c-0.3,0.676,0.006,0.854,0.006,0.854s0.232,0.266,0.837-0.158C43.219,34.924,43.275,34.212,43.277,33.904L43.277,33.904z" class="color c3"/>
    <path fill="#D27F06" d="M40.493,55.682c-0.021-0.072-0.103-0.106-0.169-0.071c-0.258,0.137-0.835,0.499-0.904,1.038
		c-0.091,0.697,0.236,0.777,0.236,0.777s0.285,0.179,0.722-0.372C40.715,56.628,40.573,55.962,40.493,55.682L40.493,55.682z" class="color c3"/>
    <path fill="#D27F06" d="M14.065,54.066c0.084,0.029,0.12,0.128,0.074,0.204c-0.175,0.299-0.636,0.962-1.276,1.016
		c-0.831,0.069-0.908-0.321-0.908-0.321s-0.197-0.347,0.479-0.835C12.956,53.752,13.735,53.955,14.065,54.066L14.065,54.066z" class="color c3"/>
    <path fill="#D27F06" d="M8.702,64.452c0.079-0.042,0.175-0.003,0.201,0.082c0.102,0.333,0.281,1.119-0.11,1.629
		c-0.51,0.66-0.851,0.452-0.851,0.452s-0.389-0.089-0.293-0.916C7.722,65.059,8.398,64.62,8.702,64.452L8.702,64.452z" class="color c3"/>
    <path fill="#D27F06" d="M5.309,48.865c0.025-0.052,0.091-0.066,0.138-0.03c0.176,0.139,0.563,0.492,0.542,0.909
		c-0.027,0.54-0.286,0.556-0.286,0.556s-0.24,0.096-0.496-0.38C5.01,49.551,5.208,49.067,5.309,48.865L5.309,48.865z" class="color c3"/>
    <path fill="#D27F06" d="M3.686,48.763c0-0.058,0.052-0.101,0.108-0.089c0.221,0.045,0.725,0.186,0.894,0.566
		c0.219,0.495-0.004,0.625-0.004,0.625S4.514,50.06,4.07,49.75C3.729,49.51,3.688,48.989,3.686,48.763L3.686,48.763z" class="color c3"/>
    <path fill="#D27F06" d="M5.725,64.704c0.016-0.052,0.075-0.078,0.124-0.052c0.189,0.101,0.611,0.366,0.662,0.761
		c0.065,0.51-0.173,0.568-0.173,0.568s-0.209,0.131-0.528-0.272C5.561,65.398,5.665,64.91,5.725,64.704L5.725,64.704z" class="color c3"/>
    <path fill="#D27F06" d="M31.623,12.946c0,0-0.01-0.073-0.027-0.193C31.521,12.795,31.623,12.946,31.623,12.946L31.623,12.946z" class="color c3"/>
    <path fill="#D27F06" d="M32.762,11.467C32.245,5.838,27.647,1.391,21.952,1.115c7.804,1.075,9.437,10.212,9.644,11.638
		c0.137-0.078,0.856,0.189,3.818,2.321c3.248,2.339,4.079,10.159-0.541,13.508c-4.671,3.385-11.198-0.534-11.198-0.534
		c-4.63,13.401-18.533,3.034-18.551,3.022c1.848,3.822,5.763,6.46,10.293,6.46c4.13,0,7.749-2.192,9.756-5.476
		c1.896,1.403,4.244,2.234,6.787,2.234c6.311,0,11.426-5.115,11.426-11.426C43.386,16.822,38.699,11.88,32.762,11.467L32.762,11.467
		z" class="color c3"/>
    <g>
      <path fill="#D27F06" d="M2.983,19.7c-0.091,0.062-0.103,0.188-0.024,0.265c0.301,0.297,1.054,0.933,1.828,0.794
			c1.002-0.18,0.969-0.666,0.969-0.666s0.123-0.471-0.829-0.834C4.192,18.978,3.336,19.465,2.983,19.7L2.983,19.7z" class="color c3"/>
      <path fill="#D27F06" d="M10.262,26.24c-0.109-0.001-0.191,0.096-0.172,0.203c0.079,0.416,0.331,1.369,1.046,1.697
			c0.923,0.424,1.176,0.007,1.176,0.007s0.37-0.316-0.203-1.159C11.667,26.339,10.686,26.248,10.262,26.24L10.262,26.24z" class="color c3"/>
      <path fill="#D27F06" d="M26.61,10.498c-0.041-0.122-0.183-0.177-0.294-0.111c-0.435,0.253-1.4,0.915-1.482,1.845
			c-0.107,1.204,0.459,1.317,0.459,1.317s0.502,0.289,1.216-0.687C27.058,12.108,26.77,10.975,26.61,10.498L26.61,10.498z" class="color c3"/>
      <path fill="#D27F06" d="M21.15,2.686c-0.09-0.092-0.242-0.075-0.313,0.031c-0.276,0.421-0.846,1.443-0.505,2.313
			c0.44,1.126,1,0.976,1,0.976s0.575,0.033,0.78-1.157C22.269,3.929,21.506,3.042,21.15,2.686L21.15,2.686z" class="color c3"/>
    </g>
    <path fill="#D27F06" d="M120.813,28.742c-0.023-0.095-0.127-0.145-0.213-0.103c-0.344,0.16-1.109,0.59-1.234,1.279
		c-0.16,0.893,0.256,1.016,0.256,1.016s0.355,0.249,0.955-0.432C121.04,29.977,120.899,29.109,120.813,28.742L120.813,28.742z" class="color c3"/>
    <g>
      <path fill="#D27F06" d="M109.593,45.204c-0.145-0.029-0.275,0.081-0.275,0.228c0.006,0.57,0.115,1.892,0.984,2.495
			c1.125,0.781,1.555,0.288,1.555,0.288s0.566-0.332,0.006-1.582C111.431,45.667,110.153,45.314,109.593,45.204L109.593,45.204z" class="color c3"/>
      <path fill="#D27F06" d="M108.075,49.186c-0.066,0.07-0.049,0.183,0.033,0.232c0.324,0.195,1.107,0.593,1.75,0.312
			c0.83-0.363,0.701-0.778,0.701-0.778s0.008-0.435-0.891-0.552C108.974,48.309,108.333,48.907,108.075,49.186L108.075,49.186z" class="color c3"/>
      <path fill="#D27F06" d="M114.269,45.759c-0.023-0.095-0.125-0.144-0.213-0.103c-0.344,0.16-1.107,0.59-1.234,1.279
			c-0.16,0.894,0.256,1.017,0.256,1.017s0.355,0.249,0.953-0.432C114.493,46.995,114.356,46.127,114.269,45.759L114.269,45.759z" class="color c3"/>
      <path fill="#D27F06" d="M106.231,18.187c-0.066-0.07-0.181-0.062-0.236,0.017c-0.217,0.311-0.664,1.066-0.427,1.725
			c0.307,0.854,0.728,0.754,0.728,0.754s0.434,0.038,0.611-0.853C107.044,19.143,106.491,18.461,106.231,18.187L106.231,18.187z" class="color c3"/>
      <path fill="#D27F06" d="M137.841,0.955c-0.111,0.03-0.166,0.154-0.113,0.257c0.201,0.399,0.74,1.293,1.561,1.415
			c1.064,0.158,1.197-0.34,1.197-0.34s0.281-0.431-0.547-1.116C139.298,0.642,138.272,0.838,137.841,0.955L137.841,0.955z" class="color c3"/>
      <path fill="#D27F06" d="M137.565,31.489c-0.088,0.059-0.098,0.184-0.023,0.257c0.295,0.289,1.025,0.909,1.779,0.773
			c0.975-0.175,0.941-0.647,0.941-0.647s0.119-0.459-0.807-0.813C138.743,30.786,137.907,31.259,137.565,31.489L137.565,31.489z" class="color c3"/>
      <path fill="#D27F06" d="M139.091,28.222c-0.121-0.024-0.236,0.07-0.234,0.195c0.004,0.491,0.1,1.625,0.844,2.144
			c0.965,0.671,1.336,0.247,1.336,0.247s0.486-0.285,0.006-1.358C140.671,28.621,139.573,28.318,139.091,28.222L139.091,28.222z" class="color c3"/>
    </g>
  </g>
  <path fill="#874D11" d="M38.71,66.948c0.163,0.585,0.28,7.698,0.334,11.853h0.615l-0.266-19.454l-1.328-0.039l-0.138,4.746l-1,0.654
	l0.441,0.944C37.846,65.922,38.559,66.404,38.71,66.948z" class="color c1"/>
  <path fill="#F9D59B" d="M39.045,78.8c-0.054-4.154-0.172-11.268-0.334-11.853c-0.152-0.544-0.864-1.025-1.341-1.296l0,0l0.884,1.893
	l0.14,11.256H39.045z" class="color c2"/>
  <path fill="#874D11" d="M7.218,73.119c0.111-0.396,0.443-0.919,0.793-1.117l-0.648,1.386l0.971-2.075l-0.733-0.48l-0.103-3.474
	l-0.971,0.028L6.372,78.8h0.455C7.234,76.962,7.132,73.431,7.218,73.119z" class="color c1"/>
  <path fill="#F9D59B" d="M7.028,72.95c-0.086,0.313-0.154,3.154-0.201,5.851h0.467l0.069-5.413l0.648-1.386
	C7.661,72.2,7.139,72.553,7.028,72.95z" class="color c2"/>
  <path fill="#874D11" d="M18.14,52.082c-0.206,9.95-1.331,16.692-0.417,21.667c0.41,2.232,1.25,3.721,1.172,5.052h3.459
	c-0.176-2.565-0.439-11.845,3.447-25.106c4.602-15.703,5.821-22.27,5.821-22.27l-0.947-0.405
	c-0.272,8.935-9.004,24.368-9.004,24.368c0.136-3.79,3.791-32.524,3.791-32.524h-2.233c1.742,5.446-1.742,20.181-3.843,23.854
	c0.011-0.02,0.021-0.034,0.033-0.054C19.522,47.781,18.169,50.577,18.14,52.082z" class="color c1"/>
  <path fill="#874D11" d="M17.936,41.133c0.014,1.016,0.02,2.128,0.014,3.361c0,0.003,0,0.006,0,0.007c0,0.009,0,0.016,0,0.023
	c0,0.002,0,0.004,0,0.006c0,0.008,0,0.017,0,0.025c0.067-11.709-0.943-13.199-0.943-13.199l-0.49,0.237
	c0.686,1.241,0.943,4.813,0.976,9.032c0-0.04,0.164,1.376,0.163,1.336C17.798,42.133,17.785,40.882,17.936,41.133z" class="color c1"/>
  <path fill="#F9D59B" d="M18.896,78.8c0.079-1.331,0.039-3.142-0.371-5.374c-0.915-4.976,0.811-12.896,1.017-22.846
	c0.029-1.505-0.019-2.8-0.123-3.918c-0.011,0.02-0.021,0.034-0.033,0.054c-0.035,0.06-0.067,0.11-0.101,0.164
	c-0.051,0.082-0.102,0.16-0.15,0.228c-0.034,0.047-0.067,0.088-0.1,0.128c-0.047,0.056-0.092,0.104-0.136,0.145
	c-0.032,0.03-0.063,0.058-0.094,0.08c-0.043,0.03-0.084,0.049-0.125,0.064c-0.027,0.01-0.056,0.023-0.082,0.025
	c-0.008,0.001-0.018,0.009-0.026,0.009c-0.048,0-0.094-0.018-0.137-0.045c-0.01-0.007-0.019-0.018-0.029-0.025
	c-0.048-0.039-0.092-0.095-0.133-0.17c-0.007-0.013-0.015-0.021-0.021-0.035c-0.044-0.09-0.083-0.207-0.118-0.344
	c-0.007-0.027-0.014-0.058-0.021-0.088c-0.069-0.307-0.118-0.721-0.143-1.25c-0.001-0.034-0.003-0.067-0.005-0.104
	c-0.002-0.053-0.006-0.099-0.007-0.154c0-0.002,0-0.003,0-0.005c0-0.009,0-0.019,0-0.027c0-0.002,0-0.003,0-0.005
	c0-0.001-0.002-0.004-0.002-0.005c0-0.006,0-0.011,0-0.017c0-0.002,0-0.005,0-0.007c-0.006-0.224-0.008-0.464-0.006-0.723
	c0-0.009,0-0.018,0-0.025c0-0.002,0-0.004,0-0.006c0-0.008,0-0.015,0-0.023c0-0.001,0-0.004,0-0.007
	c0.006-1.233,0-2.346-0.014-3.361c-0.151-0.251-0.301-0.458-0.444-0.629c0,0.04,0,0.082,0,0.122
	c0.002,0.242,0.002,0.488,0.003,0.735c0,0.131,0.001,0.261,0,0.394c0,0.273-0.002,0.55-0.004,0.827
	c-0.001,0.109-0.001,0.218-0.002,0.328c-0.003,0.356-0.008,0.716-0.014,1.075c-0.001,0.062-0.002,0.123-0.003,0.185
	c-0.006,0.36-0.013,0.723-0.021,1.084c-0.003,0.152-0.008,0.305-0.011,0.457c-0.006,0.241-0.012,0.482-0.019,0.723
	c-0.005,0.18-0.011,0.357-0.016,0.537c-0.006,0.21-0.013,0.421-0.02,0.63c-0.006,0.187-0.013,0.37-0.02,0.556
	c-0.008,0.209-0.015,0.418-0.023,0.625c-0.006,0.174-0.014,0.346-0.021,0.519c-0.009,0.213-0.018,0.426-0.026,0.637
	c-0.007,0.163-0.015,0.325-0.021,0.486c-0.01,0.223-0.021,0.444-0.031,0.663c-0.007,0.148-0.014,0.296-0.021,0.442
	c-0.011,0.223-0.022,0.443-0.033,0.662c-0.007,0.136-0.014,0.271-0.021,0.405c-0.012,0.233-0.024,0.463-0.037,0.689
	c-0.006,0.111-0.013,0.223-0.019,0.331c-0.016,0.274-0.031,0.543-0.047,0.806c-0.003,0.049-0.006,0.1-0.009,0.148
	c-0.08,1.318-0.16,2.481-0.231,3.409c-0.021,0.285-0.042,0.547-0.063,0.785c0,0.003,0,0.006,0,0.009
	c0,0.004-0.001,0.009-0.001,0.014c0,0.001,0,0.002,0,0.002c0,0.002,0,0.002,0,0.003c-0.002,0.014-0.003,0.026-0.003,0.038
	c0,0.004-0.001,0.008-0.001,0.012c0,0.001,0,0.002,0,0.004c0,0.003,0,0.006,0,0.008c0,0.008-0.001,0.017-0.001,0.024l0,0.001
	l-0.001,0.001c-0.018,0.234-0.037,0.442-0.054,0.622c0,0.001,0,0.001,0,0.002c-0.001,0.004-0.001,0.008-0.001,0.012
	c-0.015,0.158-0.029,0.339-0.042,0.528c-0.004,0.062-0.008,0.128-0.012,0.192c-0.009,0.141-0.017,0.289-0.025,0.443
	c-0.003,0.071-0.007,0.141-0.01,0.215c-0.01,0.217-0.019,0.441-0.027,0.68c0,0.02-0.001,0.04-0.002,0.061
	c-0.008,0.244-0.015,0.5-0.021,0.763c-0.002,0.076-0.004,0.154-0.005,0.231c-0.005,0.217-0.009,0.438-0.013,0.664
	c-0.001,0.077-0.002,0.152-0.003,0.23c-0.009,0.609-0.015,1.252-0.018,1.918c0,0.058-0.001,0.116-0.001,0.175
	c-0.001,0.293-0.002,0.589-0.002,0.888c0,0.033,0,0.063,0,0.096c0,0.01,0,0.021,0,0.031c0,1.556,0.014,3.173,0.031,4.726
	c0.001,0.14,0.002,0.286,0.004,0.426c0.039,3.062,0.099,5.776,0.128,7.018H18.896z" class="color c2"/>
  <path fill="#874D11" d="M118.636,78.8h0.787l0.553-18.123c-1.891-4.891,0.926-19.684,0.926-19.684l-1.953-0.303l-1.455,11.617
	l-4.334-2.836l-1.535,0.411c0,0,4.414,2.726,5.406,4.142c0.234,0.331,0.414,1.974,0.553,4.281c0.369,0.54,0.682,2.032,0.682,4.391
	C118.265,65.096,117.952,74.759,118.636,78.8z" class="color c1"/>
  <path fill="#F9D59B" d="M118.636,78.8c0-4.591,0-13.878,0-16.277c0-2.358-0.684-3.677-1.053-4.217
	c-0.129-0.191-0.223-0.29-0.229-0.296c0.262,3.454,0.408,8.557,0.488,13.031c0.057,3.175,0.08,6.029,0.09,7.759H118.636z" class="color c2"/>
  <path fill="#874D11" d="M139.558,62.541c1.744,2.442,1.207,9.625,1.996,16.26h4.641c-0.229-4.772-0.809-20.241,1.193-22.353
	c2.373-2.505,7.973-6.918,7.973-6.918l-1.055-1.45c-0.395,2.372-8.102,6.918-8.102,6.918c-2.965-5.731,0-23.124,0-23.124h-4.15
	c0,0,0.592,26.286-3.559,23.717c-4.15-2.57-6.326-13.362-6.326-13.362h-1.975c0,0,2.744,9.197,6.316,15.569
	C137.788,58.733,138.573,61.163,139.558,62.541z" class="color c1"/>
  <path fill="#F9D59B" d="M141.554,78.8c0.771-5.244,0.486-14.97-1.258-17.412c-0.984-1.378-2.508-2.655-3.785-3.591
	c-0.051-0.037-0.105-0.083-0.154-0.118c0.221,0.384,0.441,0.758,0.664,1.117c1.779,2.846,2.283,7.332,2.283,11.498
	c0,3.413-0.336,6.606-0.586,8.506H141.554z" class="color c2"/>
</svg>