<svg version="1.1" id="图层_1" x="0px" y="0px" width="141.612px" height="140.145px" viewBox="0 0 141.612 140.145" enable-background="new 0 0 141.612 140.145" xml:space="preserve" xmlns="http://www.w3.org/2000/svg" xmlns:xlink="http://www.w3.org/1999/xlink" xmlns:xml="http://www.w3.org/XML/1998/namespace">
  <path fill="#FFFFFF" d="M16.22,14.756L1.466,0l0,0l26.531,3.897l5.672,16.982l-4.018-4.019L16.22,14.756z M3.898,26.527
	l33.98,11.341L14.753,14.756L0,0L3.898,26.527z M124.75,28.179l-4.025,4.026l16.992-5.674l3.896-26.525l0,0l-14.758,14.75
	L124.75,28.179z M113.619,3.889l-11.344,33.985l23.116-23.118l14.754-14.75L113.619,3.889z M111.967,123.285l-4.027-4.025
	l5.676,16.993l26.529,3.892v-0.005l-14.75-14.75L111.967,123.285z M137.713,113.608l-33.979-11.336l23.129,23.117l14.75,14.75
	L137.713,113.608z M16.865,111.958l4.014-4.023l-16.987,5.685L0,140.14l0,0l14.754-14.75L16.865,111.958z M27.998,136.253
	l11.34-33.98L16.22,125.39L1.466,140.14L27.998,136.253z" class="color c1"/>
</svg>