<svg version="1.1" id="图层_1" x="0px" y="0px" width="199.205px" height="172.394px" viewBox="0 0 199.205 172.394" enable-background="new 0 0 199.205 172.394" xml:space="preserve" xmlns="http://www.w3.org/2000/svg" xmlns:xlink="http://www.w3.org/1999/xlink" xmlns:xml="http://www.w3.org/XML/1998/namespace">
  <path fill="#1C1563" d="M176.695,156.336l-0.137-4.375l-26.48-13.135c2.949-2.963,4.271-7.867,5.983-13.698
	c1.11-3.364,2.759-6.694,4.462-9.646l17.977-12.819l-1.682-3.728l-1.739,0.275l-2.97,2.134l-0.045-0.179l-19.943-0.786l-0.493-2.092
	l-1.343-0.054l-31.141,25.248l-0.076-0.037l-1-0.04l-0.038,0.981l-1.896,1.536l-1.242-0.005l19.004-48.397
	c32.27,12.981,59.885,21.323,62.691,19.325l0.014-0.359c0.086-0.412,0.031-0.795-0.816-1.209
	c-2.474-7.349-15.436-39.552-44.858-61.574c6.036-19.967-1.177-3.446-2.099-1.083c-4.854-0.38-23.039-2.03-41.629,1.375
	c-2.045-3.575-4.496-7.139-6.66-8.338c0,0,3.026,0.326,3.666,0.799c0,0-4.237-4.708-8.579-5.879c0,0,4.124-0.322,4.933,0.194
	c0,0-7.621-5.638-21.838-8.598c0,0,10.083-1.624,15.847,1.955c0,0-1.935-3.497-3.765-4.398c0,0,12.779,4.44,15.608,4.451
	l-1.783-2.921c0,0,7.781,0.634,11.084,2.699c0,0-0.627-6-16.663-8.393c-15.999-2.445-21.833-2.483-27.658-1.09
	c0,0-3.75-4.776-11.084-4.461c0,0,2.854,2.928,2.597,5.145c0,0-18.913-2.214-28.991-1.488C23.797,4.433,11.98,8.854,11.98,8.854
	s6.711,0.694,9.008,1.132c0,0-1.623,1.732-1.813,2.121c-0.082,0.393,7.02-1.917,6.124-1.123c-1.065,0.803-2.338,1.6-2.338,1.6
	s10.883-1.058,13.976-2.384c3.093-1.347,1.1,2.771,1.1,2.771s5.945-0.078,7.49-0.708c1.574-0.525,9.709,1.661,9.709,1.661
	s-10.371,4.583-11.384,5.733l3.813,0.565c0,0-7.12,2.759-10.062,6.408c0,0,2.644-0.448,3.094,0.329c0,0-4.619,7.693-5.226,9.085
	c-0.611,1.462-1.646,7.569-1.646,7.569s6.805-4.429,7.239-5.758c0,0-0.32,1.938-0.915,3.003c1.099-1.494,4.235-5.741,5.417-6.817
	c1.467-1.254,2.952-2.181,2.952-2.181s0.747,3.897,1.56,4.33c0.843,0.462,2.276-6.095,2.276-6.095l3.414-4.233l4.62-5.068
	c0,0-4.414,16.508-6.085,28.237c-2.469,17.07-5.181,57.843,4.419,93.882l0.132,0.006C40.084,145.709,6.729,159.153,0,162.553
	c31.84-8.273,116.033-34.869,199.205,9.841C199.205,172.394,192.166,164.091,176.695,156.336z M165.428,151.34
	c-8.896-3.474-19.657-6.641-32.423-8.768c2.402-0.404,4.967-0.743,7.824-0.723c2.063,0.08,3.787-0.135,5.253-0.601l19.831,10.017
	L165.428,151.34z M131.105,136.465l2.094-1.494c-0.357,1.412-0.586,2.341-0.586,2.341
	C132.352,137.275,131.818,136.965,131.105,136.465z M127.312,133.508c-1.678-1.386-3.487-2.939-5.021-4.277l6.445,3.256
	L127.312,133.508z M111.334,138.164l-3.479,0.135l2.301-1.85C110.529,137.064,110.933,137.639,111.334,138.164z M145.085,108.34
	c-3.326,4.898-7.521,11.359-8.396,14.055c-0.471,1.363-1.063,3.418-1.651,5.568l-2.805,2.012l-8.682-4.306L145.085,108.34z
	 M178.99,84.114l-14.411-6.835c0,0-0.739-23.327-13.243-41.708C151.335,35.57,175.091,53.343,178.99,84.114z M149.169,34.431
	c3.539,14.507-3.26,34.583-3.26,34.583l-17.963-6.958C137.189,43.958,149.169,34.431,149.169,34.431z M147.097,33.553
	c-21.843,4.752-38.439,21.834-38.439,21.834l-15.146-4.844c4.807-4.033,9.878-7.129,14.906-9.501
	c1.723,0.758,3.072,1.431,3.221,1.788c0,0-0.463-1.073-1.234-2.687C129.346,31.885,147.097,33.553,147.097,33.553z M81.093,28.276
	l0.176-2.723c0,0,3.521,6.202,4.461,6.861c0,0-1.765-5.181-1.65-6.318c0,0,2.289,2.388,3.685,4.636
	c1.4,2.214,5.469,4.982,5.469,4.982l0.125-3.19c0,0,2.894,1.972,5.029,3.495c-5.084,1.429-10.041,3.321-14.601,5.808
	c-0.472-1.183-1.116-2.354-1.991-3.35c0,0,2.191,0.483,2.917,1.324c0,0-8.144-17.711-10.85-20.08
	C73.864,19.721,79.315,23.458,81.093,28.276z M60.723,93.773C57.751,67.51,60.86,42.106,63.307,28.18c0,0,0.5,3.993,1.076,6.088
	c0,0,1.947-2.999,1.963-3.412c0.016-0.397,0.567,11.903,4.014,16.497l1.188-4.738c0,0-0.265,9.367,5.185,14.85
	c0,0-0.345-1.775,0.191-4.865c0,0,0.971,10.4,6.854,12.722c0,0-1.345-5.267-1.339-9.844c0,0,1.119,1.409,1.563,2.393
	c-0.052-0.589-0.106-1.459-0.176-2.429c10.283,5.514,27.849,13.475,48.362,21.685l-19.408,48.786l-11.583-0.034l-2.378-1.313
	l-1.329,0.379l-0.692,3.531l9.537,5.396l-7.371,5.976c-8.441-0.012-17.468,0.429-27.1,1.428
	C69.048,132.994,62.919,113.575,60.723,93.773z" class="color c1"/>
</svg>