<svg version="1.1" id="图层_1" x="0px" y="0px" width="179.579px" height="176.146px" viewBox="0 0 179.579 176.146" enable-background="new 0 0 179.579 176.146" xml:space="preserve" xmlns="http://www.w3.org/2000/svg" xmlns:xlink="http://www.w3.org/1999/xlink" xmlns:xml="http://www.w3.org/XML/1998/namespace">
  <path fill="#029FCF" d="M179.579,82.256L98.112,0L52.668,45.742l-7.784-8.068L0,82.256h22.361L9.214,95.402l4.021,4.021
	l16.015-16.016l8.161,11.945h6.886l-8.949-13.098h42.72l-21.492,21.648H17.773l5.589,5.687h27.567l-13.721,13.821l4.036,4.006
	l13.671-13.771v27.479l5.687,5.678V107.92L86.08,82.256h0.64v45.945l-22.841,21.877l4.021,4.023l18.821-18.025v36.863l3.222,3.206
	l2.498-2.489l-0.033-37.645l19.368,18.292l4.022-4.022l-23.39-22.092V82.256h0.504l25.478,25.664v39.764l5.687-5.661v-28.375
	l14.139,14.241l4.021-4.021l-14.173-14.276h28.438l5.686-5.687h-39.769l-21.492-21.648h42.409l-8.949,13.098h6.886l8.287-12.129
	l16.659,16.658l4.016-4.025l-13.603-13.602H179.579z M98.105,8.074l31.585,31.891l-11.175,11.718L95.663,29.539L77.99,46.248
	l-10.869-6.985L98.105,8.074z M13.794,76.568l31.004-30.794l7.812,8.095l10.413-10.48l15.638,10.049L95.614,37.41l23.06,22.344
	l15.02-15.746l32.25,32.561H13.794z" class="color c1"/>
</svg>