<svg version="1.1" id="图层_1" x="0px" y="0px" width="95.407px" height="165.445px" viewBox="0 0 95.407 165.445" enable-background="new 0 0 95.407 165.445" xml:space="preserve" xmlns="http://www.w3.org/2000/svg" xmlns:xlink="http://www.w3.org/1999/xlink" xmlns:xml="http://www.w3.org/XML/1998/namespace">
  <path fill="#C4A674" d="M80.622,149.347c-2.188-1.607-4.757-3.266-7.688-4.845c0.115-0.028,0.22-0.043,0.34-0.079
	c0,0,5.267-10.211,0.376-9.01c0,0,4.088-9.859-0.217-8.787c0,0,0.298-2.828-1.8-1.906c0,0-1.532,0-2.253,1.66
	c0.385-2.979,0.683-7.496-1.441-5.478c0,0-5.55-9.73-5.491,2.375c0,0-5.451-1.622-1.329,7.197c0,0-4.676,1.889,1.835,6.1
	c0,0-0.966,4.662,4.995,4.146c0,0,0.019,0.687,0.283,1.488c-3.436-1.517-7.282-2.863-11.542-3.903
	c0.008-0.006,0.015-0.009,0.023-0.015c0,0,1.716-11.361-2.532-8.656c0,0,0.04-0.604,0.051-1.487l0.514-0.058
	c-0.014-0.124-0.168-1.395-0.671-3.437c-0.139-1.158-0.389-2.246-0.825-2.922c-0.912-2.869-2.354-6.495-4.615-10.437
	c-0.982-1.713-2.177-3.554-3.591-5.451c1.07-0.891,6.961-5.965,3.176-6.637c0,0,6.47-6.167,2.81-6.805c0,0,1.185-2.064-0.734-2.068
	c0,0-1.173-0.519-2.288,0.509c1.304-2.151,3.061-5.511,0.752-4.685c0,0-0.956-9.332-5.01-0.041c0,0-3.625-3.088-3.456,5.063
	c0,0-4.22-0.137-0.659,5.294c0,0-0.972,1.373-0.351,2.78c-1.1-1.076-2.295-2.144-3.567-3.197c0.197-0.02,0.396-0.042,0.616-0.086
	c0,0,5.161-8.119,0.993-7.486c0,0,4.151-7.915,0.481-7.346c0,0,0.46-2.335-1.358-1.725c0,0-0.319-0.029-0.729,0.108
	c0.827-2.638,1.713-6.456,1.945-11.081c0.354-0.851,0.299-1.516,0.056-2.029c0.005-0.956-0.02-1.94-0.079-2.952
	c0.883-0.088,7.599-0.839,5.27-3.079c0,0,7.22-1.246,5.019-3.351c0,0,1.749-0.865,0.444-1.744c0,0-0.562-0.889-1.79-0.698
	c1.87-0.869,4.6-2.354,2.65-2.846c0,0,3.608-6.791-3.393-2.314c0,0-1.06-3.757-4.664,1.869c0,0-2.811-2.02-2.865,3.304
	c0,0-1.698,0.64-1.533,2.321c-0.333-1.623-0.759-3.288-1.308-4.993c0.136,0.071,0.27,0.143,0.428,0.208c0,0,7.22-3.173,4.093-4.645
	c0,0,6.219-3.381,3.785-4.716c1.415-1.392,3.053-3.259,4.623-5.612c0.583-0.432,0.813-0.904,0.856-1.348
	c0.39-0.644,0.77-1.319,1.138-2.027c0.631,0.296,5.472,2.5,4.802,0.046c0,0,5.381,2.07,4.743-0.239c0,0,1.531,0.121,1.003-0.999
	c0,0-0.021-0.827-0.928-1.193c1.613,0.166,4.058,0.263,2.938-0.854c0,0,5.178-3.133-1.359-2.932c0,0,0.801-2.967-3.904-0.619
	c0,0-1.085-2.499-3.269,1.076c0,0-1.404-0.251-1.971,0.948c0.43-1.23,0.813-2.526,1.13-3.898c0.063,0.103,0.125,0.205,0.205,0.313
	c0,0,6.158,0.769,4.64-1.487c0,0,5.759,0.236,4.415-1.747c0,0,1.489-0.375,0.631-1.268c0,0-0.285-0.777-1.262-0.833
	c1.582-0.359,3.928-1.051,2.509-1.751c0,0,3.902-4.626-2.227-2.343c0,0-0.192-3.065-3.896,0.667c0,0-1.829-2.02-2.751,2.066
	c0,0-1.011,0.152-1.414,0.998c0.121-1.37,0.171-2.801,0.152-4.286c2.271-0.254,1.715-2.634,1.715-2.634
	c3.188-0.535,2.053-2.843,2.053-2.843c2.838-3.081,0.136-3.438,0.136-3.438c0.966-5.17-1.667-3.586-1.667-3.586
	c-1.603-6.339-3.192-0.5-3.192-0.5c-1.382-0.769-0.618,1.554-0.014,3.06c-0.601-0.771-1.403-0.563-1.403-0.563
	c-1.221-0.199-0.684,1.239-0.684,1.239c-2.397,0.021,1.072,4.626,1.072,4.626c-2.361,0.029,0.441,3.518,1.221,4.438
	c0.039,2.227-0.085,4.326-0.353,6.29c-0.346-0.83-1.289-1.246-1.289-1.246c1.481-2.872-1.047-3.347-1.047-3.347
	c-0.768-4.117-2.671-2.168-2.671-2.168c-3.561-3.869-3.869-0.813-3.869-0.813c-6.037-2.515-2.313,2.256-2.313,2.256
	c-1.444,0.647,0.875,1.425,2.441,1.845c-0.977,0.02-1.291,0.785-1.291,0.785c-0.892,0.858,0.583,1.29,0.583,1.29
	c-1.42,1.931,4.347,1.913,4.347,1.913c-1.605,2.196,4.579,1.659,4.579,1.659c0.092-0.114,0.165-0.223,0.236-0.332
	c-0.563,3.023-1.447,5.708-2.498,8.078c-0.273,0.255-0.478,0.616-0.516,1.12c-0.362,0.747-0.742,1.455-1.13,2.133
	c-0.207-0.422-0.473-0.702-0.473-0.702c2.479-2.076,0.331-3.492,0.331-3.492c0.885-4.093-1.625-3.033-1.625-3.033
	c-1.786-4.944-3.254-2.246-3.254-2.246c-4.593-4.653-3.006,1.186-3.006,1.186c-1.581,0.037,0.256,1.653,1.54,2.646
	c-0.909-0.36-1.497,0.225-1.497,0.225c-1.154,0.447,0.039,1.416,0.039,1.416c-2.056,1.231,3.269,3.443,3.269,3.443
	c-1.897,1.146,1.672,2.618,3.06,3.124c-1.098,1.584-2.217,2.921-3.256,4.025c-0.099-0.16-0.287-0.3-0.621-0.391
	c0,0-0.818-0.663-1.919-0.088c1.492-1.422,3.601-3.705,1.597-3.545c0,0,1.243-7.589-3.956-1.105c0,0-2.207-3.22-3.817,3.266
	c0,0-3.312-1.012-1.655,4.047c0,0-1.006,0.826-0.893,2.013c-0.761-1.573-1.638-3.168-2.626-4.777
	c2.313-1.758,0.155-3.992,0.155-3.992c3.129-2.66,0.388-4.439,0.388-4.439c1.089-5.21-2.091-3.84-2.091-3.84
	c-2.314-6.269-4.155-2.825-4.155-2.825c-5.879-5.873-3.809,1.533-3.809,1.533c-2.009,0.062,0.338,2.099,1.979,3.349
	c-1.159-0.45-1.898,0.298-1.898,0.298c-1.463,0.578,0.061,1.799,0.061,1.799c-2.601,1.583,4.184,4.348,4.184,4.348
	c-2.558,1.569,2.771,3.552,4.224,4.048c1.492,2.403,2.725,4.775,3.712,7.092c-0.919-0.68-2.218-0.52-2.218-0.52
	c-0.255-4.1-3.322-2.97-3.322-2.97c-3.521-3.993-4.327-0.626-4.327-0.626c-6.407-1.9-4.751,1.634-4.751,1.634
	c-8.226,1.189-1.056,3.969-1.056,3.969c-1.153,1.647,1.884,0.985,3.867,0.423c-1.054,0.657-0.897,1.697-0.897,1.697
	c-0.413,1.519,1.476,1.029,1.476,1.029c-0.291,3.031,5.989-0.745,5.989-0.745c-0.319,3.441,6.078-1.172,6.078-1.172
	c0.026-0.184,0.035-0.351,0.041-0.515c1.355,3.664,2.139,7.168,2.537,10.438c-0.131,0.457-0.119,0.984,0.167,1.558
	c0.091,1.051,0.139,2.07,0.157,3.063c-0.501-0.326-0.974-0.458-0.974-0.458c1.351-3.88-1.915-4.024-1.915-4.024
	c-1.701-5.043-3.748-2.251-3.748-2.251c-5.17-4.231-5.014-0.332-5.014-0.332c-8.044-2.084-2.507,3.253-2.507,3.253
	c-1.701,1.07,1.355,1.637,3.403,1.884c-1.227,0.199-1.486,1.22-1.486,1.22c-0.968,1.239,0.962,1.519,0.962,1.519
	c-1.439,2.684,5.812,1.63,5.812,1.63c-1.325,2.486,3.53,1.765,5.374,1.413c-0.309,4.532-1.247,8.193-2.054,10.622
	c0.473-2.378,0.768-5.249-0.956-3.883c0,0-3.895-8.534-4.758,1.567c0,0-4.424-1.764-1.65,5.902c0,0-4.042,1.224,1.071,5.225
	c0,0-0.373,1.244,0.236,2.315c-2.185-1.33-4.567-2.585-7.141-3.75c0.825-3.092-2.641-3.845-2.641-3.845
	c1.364-4.822-2.623-4.763-2.623-4.763c-2.436-6.02-4.728-2.471-4.728-2.471c-6.602-4.78-6.128-0.042-6.128-0.042
	c-9.947-1.956-2.819,4.143-2.819,4.143c-1.994,1.427,1.769,1.896,4.278,2.048c-1.479,0.331-1.719,1.592-1.719,1.592
	c-1.089,1.581,1.282,1.781,1.282,1.781c-1.561,3.371,7.193,1.564,7.193,1.564c-1.758,3.833,7.471,1.11,7.471,1.11
	c0.004-0.008,0.006-0.014,0.01-0.022c2.678,1.215,5.133,2.534,7.381,3.928c-0.86,0.283-1.477,0.819-1.477,0.819
	c-3.042-3.981-5.383-0.753-5.383-0.753c-6.279-1.654-4.81,2.305-4.81,2.305c-7.783,2.426-3.705,4.884-3.705,4.884
	c-7.526,6.792,1.628,4.738,1.628,4.738c-0.052,2.451,2.577-0.281,4.203-2.199c-0.621,1.383,0.244,2.33,0.244,2.33
	c0.613,1.819,2.195,0.041,2.195,0.041c1.765,3.269,5.562-4.824,5.562-4.824c1.75,3.218,4.505-3.161,5.199-4.895
	c3.979,2.888,7.204,5.977,9.797,9.005c0.15,0.709,0.571,1.415,1.527,1.869c0.468,0.598,0.91,1.19,1.331,1.776
	c-0.883-0.06-1.636,0.186-1.636,0.186c-1.266-4.85-4.673-2.778-4.673-2.778c-5.15-3.954-5.328,0.266-5.328,0.266
	c-8.114-0.776-5.305,3.068-5.305,3.068c-9.567,3.353-0.333,4.999-0.333,4.999c-0.995,2.241,2.485,0.739,4.727-0.401
	c-1.107,1.035-0.676,2.244-0.676,2.244c-0.139,1.914,2.008,0.886,2.008,0.886c0.363,3.697,6.995-2.296,6.995-2.296
	c0.367,3.616,5.297-1.094,6.656-2.468c0.158,0.265,0.326,0.535,0.475,0.794c1.96,3.41,3.293,6.605,4.197,9.257
	c-0.194,0.055-0.402,0.149-0.628,0.294c0,0-0.624-2.772-2.316-1.228c0,0-1.452,0.491-1.603,2.295
	c-0.589-2.944-1.756-7.319-3.121-4.728c0,0-8.375-7.438-4.44,4.01c0,0-5.683,0.21,1.048,7.243c0,0-3.824,3.289,3.693,5.189
	c0,0,0.182,1.449,1.273,2.336c-2.245-0.201-4.582-0.303-7.004-0.309c-0.453-4.045-4.774-3.158-4.774-3.158
	c-0.838-5.924-5.164-3.934-5.164-3.934c-5.567-5.396-6.356-0.414-6.356-0.414c-9.519-2.033-6.713,2.914-6.713,2.914
	c-11.808,2.666-1.078,5.883-1.078,5.883c-1.488,2.523,2.847,1.219,5.663,0.172c-1.457,1.076-1.111,2.568-1.111,2.568
	c-0.427,2.252,2.261,1.326,2.261,1.326c-0.076,4.436,8.612-1.764,8.612-1.764c-0.063,4.532,7.034-1.038,8.448-2.192
	c4.955-0.003,9.541,0.427,13.749,1.191c0.072,0.05,0.147,0.096,0.225,0.141c-1.077,0.749-1.635,1.942-1.635,1.942
	c-5.246-2.879-6.243,1.777-6.243,1.777c-7.655,1.227-4.14,4.842-4.14,4.842c-7.328,6.406-1.687,7.121-1.687,7.121
	c-4.939,11.053,4.065,4.389,4.065,4.389c1.129,2.701,2.68-1.551,3.529-4.432c-0.011,1.811,1.392,2.428,1.392,2.428
	c1.547,1.689,2.417-1.016,2.417-1.016c3.506,2.717,3.745-7.955,3.745-7.955c3.642,2.804,3.377-6.498,3.303-8.146
	c7.19,1.85,13.133,4.597,17.875,7.467c-1.412,0.197-2.528,1.198-2.528,1.198c-3.724-4.684-6.446-0.775-6.446-0.775
	c-7.533-1.834-5.689,2.861-5.689,2.861c-9.236,3.07-4.312,5.914-4.312,5.914c-8.83,8.281,2.051,5.619,2.051,5.619
	c-0.004,2.928,3.071-0.393,4.969-2.721c-0.711,1.666,0.344,2.777,0.344,2.777c0.772,2.158,2.621-0.002,2.621-0.002
	c2.182,3.861,6.53-5.885,6.53-5.885c2.491,4.375,6.284-6.469,6.284-6.469c-0.005-0.011-0.012-0.019-0.017-0.029
	c0.286,0.202,0.585,0.406,0.859,0.607c9.849,7.223,14.412,14.932,14.457,15.008l1.211-0.705
	C95.219,164.416,90.684,156.744,80.622,149.347z M67.518,136.738c-0.259-0.631-0.498-1.283-0.739-1.934
	c-0.192-0.666-0.414-1.322-0.578-1.982c-0.171-0.658-0.316-1.313-0.434-1.949c-0.134-0.633-0.217-1.252-0.294-1.84
	c-0.094-0.584-0.124-1.145-0.173-1.656c-0.156-2.061-0.014-3.439-0.014-3.439s0.072,0.336,0.198,0.924
	c0.128,0.58,0.31,1.412,0.529,2.406c0.119,0.494,0.247,1.029,0.382,1.594c0.134,0.564,0.291,1.156,0.452,1.768
	c0.145,0.613,0.355,1.23,0.526,1.869c0.171,0.637,0.4,1.266,0.599,1.906c0.222,0.631,0.436,1.266,0.673,1.879
	c0.27,0.598,0.462,1.221,0.737,1.783c0.282,0.555,0.491,1.131,0.773,1.627c0.283,0.498,0.51,0.998,0.77,1.428
	c0.271,0.42,0.511,0.816,0.725,1.17c0.215,0.352,0.448,0.625,0.616,0.871c0.348,0.482,0.543,0.773,0.543,0.773
	s-0.267-0.211-0.728-0.604c-0.22-0.205-0.528-0.422-0.808-0.738c-0.283-0.311-0.604-0.664-0.943-1.063
	c-0.336-0.4-0.646-0.871-0.989-1.363c-0.351-0.488-0.634-1.049-0.958-1.617C68.069,137.978,67.798,137.363,67.518,136.738z
	 M52.515,22.954c-0.089-0.134-0.177-0.306-0.309-0.486c-0.132-0.179-0.281-0.38-0.436-0.602c-0.161-0.218-0.364-0.435-0.554-0.678
	c-0.191-0.243-0.437-0.466-0.655-0.721c-0.225-0.252-0.497-0.478-0.74-0.734c-0.258-0.244-0.531-0.481-0.801-0.721
	c-0.278-0.231-0.545-0.476-0.83-0.691c-0.283-0.217-0.549-0.448-0.826-0.646c-0.272-0.206-0.535-0.405-0.789-0.589
	c-0.255-0.184-0.496-0.356-0.719-0.517c-0.453-0.314-0.829-0.575-1.094-0.759c-0.268-0.184-0.421-0.289-0.421-0.289
	s0.717,0.212,1.714,0.713c0.247,0.13,0.521,0.26,0.793,0.427c0.279,0.159,0.571,0.328,0.86,0.524
	c0.293,0.188,0.591,0.396,0.884,0.617c0.297,0.217,0.58,0.462,0.873,0.695c0.275,0.254,0.552,0.506,0.814,0.765
	c0.254,0.27,0.507,0.53,0.728,0.806c0.217,0.278,0.438,0.535,0.611,0.811c0.175,0.272,0.348,0.524,0.479,0.774
	c0.129,0.251,0.24,0.484,0.338,0.689c0.1,0.204,0.145,0.402,0.202,0.555c0.102,0.31,0.153,0.487,0.153,0.487
	S52.685,23.228,52.515,22.954z M32.896,50.258c-0.184-0.089-0.393-0.219-0.654-0.329c-0.262-0.109-0.555-0.231-0.868-0.373
	c-0.317-0.133-0.68-0.237-1.047-0.378c-0.366-0.143-0.778-0.226-1.184-0.36c-0.409-0.129-0.852-0.197-1.286-0.318
	c-0.439-0.099-0.893-0.18-1.342-0.266c-0.455-0.07-0.905-0.162-1.356-0.214c-0.45-0.052-0.891-0.131-1.322-0.167
	c-0.431-0.048-0.849-0.093-1.245-0.128c-0.399-0.034-0.774-0.067-1.122-0.098c-0.698-0.046-1.279-0.086-1.688-0.114
	c-0.412-0.025-0.647-0.04-0.647-0.04s0.921-0.235,2.335-0.339c0.353-0.02,0.737-0.057,1.143-0.052
	c0.407-0.008,0.836-0.014,1.279,0.013c0.443,0.015,0.902,0.047,1.367,0.097c0.466,0.043,0.933,0.127,1.405,0.19
	c0.466,0.097,0.932,0.193,1.388,0.304c0.452,0.128,0.897,0.249,1.318,0.406c0.419,0.161,0.829,0.297,1.195,0.485
	c0.369,0.183,0.721,0.345,1.026,0.532c0.304,0.19,0.578,0.373,0.817,0.532c0.243,0.159,0.422,0.346,0.583,0.475
	c0.313,0.271,0.483,0.433,0.483,0.433S33.26,50.445,32.896,50.258z M15.011,83.236c-0.468-0.292-0.956-0.568-1.438-0.85
	c-0.496-0.264-0.977-0.553-1.476-0.793c-0.496-0.242-0.972-0.512-1.455-0.728c-0.475-0.229-0.938-0.451-1.379-0.65
	c-0.444-0.201-0.864-0.391-1.251-0.565c-0.785-0.337-1.439-0.617-1.897-0.815c-0.462-0.194-0.728-0.307-0.728-0.307
	s1.156,0.101,2.826,0.554c0.414,0.121,0.871,0.234,1.336,0.403c0.471,0.155,0.968,0.322,1.466,0.531
	c0.506,0.196,1.021,0.418,1.535,0.664c0.517,0.238,1.022,0.525,1.539,0.788c0.498,0.3,0.995,0.6,1.474,0.911
	c0.469,0.33,0.934,0.649,1.354,0.999c0.416,0.355,0.833,0.678,1.179,1.044c0.35,0.359,0.689,0.688,0.965,1.027
	c0.274,0.342,0.514,0.661,0.726,0.943c0.034,0.045,0.056,0.088,0.086,0.133c-0.322-0.136-0.647-0.271-0.975-0.404
	c-0.093-0.086-0.173-0.156-0.27-0.248c-0.313-0.281-0.688-0.548-1.052-0.858s-0.806-0.573-1.217-0.894
	C15.942,83.81,15.46,83.552,15.011,83.236z M37.873,61.638c0.078-0.28,0.166-0.596,0.272-0.938c0.107-0.342,0.269-0.693,0.427-1.074
	c0.155-0.383,0.376-0.753,0.587-1.148c0.216-0.394,0.475-0.776,0.733-1.169c0.272-0.381,0.562-0.759,0.85-1.138
	c0.316-0.355,0.616-0.726,0.939-1.063c0.319-0.342,0.646-0.666,0.972-0.967c0.317-0.31,0.646-0.587,0.959-0.847
	c0.305-0.268,0.62-0.49,0.899-0.707c1.138-0.847,1.988-1.27,1.988-1.27s-0.167,0.164-0.463,0.453
	c-0.29,0.288-0.706,0.697-1.202,1.189c-0.243,0.25-0.507,0.521-0.785,0.807c-0.277,0.285-0.563,0.593-0.857,0.91
	c-0.303,0.31-0.586,0.658-0.892,0.992c-0.307,0.332-0.588,0.697-0.887,1.048c-0.285,0.358-0.573,0.716-0.842,1.078
	c-0.248,0.375-0.539,0.717-0.765,1.082c-0.217,0.367-0.476,0.699-0.66,1.046c-0.185,0.347-0.392,0.662-0.545,0.971
	c-0.145,0.312-0.286,0.597-0.414,0.85c-0.125,0.254-0.197,0.488-0.279,0.677c-0.153,0.379-0.249,0.599-0.249,0.599
	s0.024-0.231,0.083-0.643C37.78,62.173,37.794,61.915,37.873,61.638z M53.431,31.033c0.305-0.178,0.634-0.332,0.967-0.493
	c0.337-0.148,0.686-0.286,1.034-0.425c0.356-0.113,0.708-0.242,1.062-0.341c0.354-0.101,0.705-0.188,1.047-0.26
	c0.339-0.081,0.673-0.136,0.989-0.186c0.314-0.058,0.617-0.082,0.892-0.115c1.111-0.112,1.857-0.056,1.857-0.056
	s-0.18,0.044-0.496,0.12c-0.312,0.076-0.758,0.186-1.293,0.317c-0.264,0.071-0.552,0.148-0.855,0.229
	c-0.302,0.081-0.62,0.174-0.946,0.27c-0.33,0.087-0.662,0.208-1.003,0.31c-0.342,0.103-0.679,0.235-1.022,0.351
	c-0.337,0.129-0.676,0.253-1.004,0.389c-0.319,0.154-0.652,0.268-0.953,0.424c-0.295,0.16-0.605,0.28-0.868,0.44
	c-0.266,0.159-0.532,0.289-0.761,0.436c-0.223,0.151-0.433,0.287-0.623,0.407c-0.186,0.12-0.33,0.25-0.461,0.345
	c-0.255,0.195-0.41,0.304-0.41,0.304s0.11-0.146,0.316-0.401c0.106-0.121,0.22-0.29,0.386-0.445
	c0.165-0.157,0.351-0.336,0.562-0.524c0.211-0.188,0.462-0.36,0.722-0.554C52.83,31.377,53.129,31.216,53.431,31.033z
	 M52.254,30.829c0,0-0.225,0.013-0.524,0.089c0.204-0.492,0.398-0.997,0.586-1.514C52.22,29.772,52.187,30.237,52.254,30.829z
	 M55.213,22.65c0.182-0.27,0.414-0.518,0.642-0.788c0.231-0.267,0.493-0.518,0.758-0.776c0.271-0.249,0.558-0.492,0.842-0.735
	c0.301-0.221,0.594-0.456,0.897-0.662c0.303-0.21,0.607-0.405,0.909-0.582c0.295-0.186,0.594-0.344,0.878-0.492
	c0.279-0.157,0.557-0.276,0.809-0.396c1.016-0.463,1.741-0.647,1.741-0.647s-0.157,0.099-0.431,0.271
	c-0.271,0.173-0.658,0.421-1.123,0.718c-0.229,0.151-0.476,0.316-0.737,0.489c-0.26,0.173-0.532,0.363-0.811,0.559
	c-0.285,0.188-0.559,0.41-0.851,0.615c-0.291,0.205-0.567,0.439-0.855,0.659c-0.278,0.229-0.56,0.456-0.826,0.69
	c-0.253,0.248-0.534,0.463-0.768,0.706c-0.229,0.246-0.482,0.459-0.682,0.695c-0.199,0.236-0.411,0.445-0.58,0.656
	c-0.163,0.215-0.319,0.412-0.459,0.585c-0.138,0.175-0.233,0.343-0.326,0.476c-0.181,0.266-0.291,0.419-0.291,0.419
	s0.057-0.175,0.17-0.48c0.062-0.15,0.115-0.347,0.223-0.548c0.106-0.201,0.225-0.43,0.364-0.677
	C54.847,23.16,55.028,22.916,55.213,22.65z M54.674,22.045c0,0-0.263,0.104-0.567,0.318c0.075-0.483,0.14-0.976,0.199-1.475
	C54.356,21.222,54.466,21.601,54.674,22.045z M54.797,13.431c0.077-0.26,0.128-0.552,0.209-0.85
	c0.082-0.298,0.113-0.628,0.185-0.957c0.068-0.331,0.085-0.683,0.146-1.031c0.041-0.354,0.067-0.715,0.098-1.073
	c0.018-0.362,0.053-0.722,0.056-1.079c0.004-0.356,0.031-0.708,0.024-1.048c0.001-0.341,0.004-0.672-0.002-0.984
	c-0.005-0.314-0.011-0.612-0.016-0.885c-0.02-0.552-0.037-1.011-0.047-1.332c-0.014-0.323-0.022-0.509-0.022-0.509
	s0.26,0.701,0.458,1.8c0.043,0.274,0.104,0.572,0.133,0.89c0.039,0.318,0.079,0.654,0.095,1.003c0.024,0.349,0.037,0.71,0.036,1.078
	c0.004,0.367-0.024,0.74-0.034,1.114c-0.038,0.373-0.075,0.746-0.126,1.111c-0.063,0.364-0.121,0.724-0.208,1.065
	c-0.093,0.34-0.165,0.673-0.282,0.975c-0.114,0.304-0.212,0.593-0.333,0.847c-0.124,0.254-0.243,0.482-0.35,0.684
	c-0.08,0.156-0.171,0.279-0.251,0.392c-0.004-0.144-0.006-0.285-0.012-0.429c0.008-0.024,0.018-0.044,0.026-0.07
	C54.64,13.928,54.712,13.687,54.797,13.431z M47.837,36.594c-0.029-0.159-0.043-0.352-0.095-0.567
	c-0.054-0.217-0.114-0.461-0.169-0.726c-0.064-0.263-0.168-0.541-0.25-0.839c-0.081-0.298-0.221-0.599-0.325-0.918
	c-0.109-0.319-0.274-0.632-0.398-0.964c-0.143-0.323-0.304-0.648-0.458-0.975c-0.168-0.321-0.32-0.648-0.498-0.958
	c-0.178-0.309-0.333-0.625-0.512-0.915c-0.17-0.296-0.336-0.581-0.5-0.849c-0.165-0.269-0.319-0.521-0.462-0.756
	c-0.297-0.464-0.543-0.851-0.716-1.122c-0.175-0.272-0.276-0.428-0.276-0.428s0.579,0.472,1.305,1.32
	c0.177,0.214,0.379,0.44,0.567,0.7c0.194,0.254,0.398,0.521,0.588,0.815c0.199,0.288,0.392,0.594,0.578,0.911
	c0.189,0.314,0.354,0.651,0.535,0.979c0.156,0.339,0.312,0.68,0.454,1.021c0.131,0.346,0.262,0.685,0.359,1.024
	c0.093,0.34,0.199,0.664,0.251,0.983c0.056,0.319,0.118,0.618,0.142,0.899c0.021,0.281,0.034,0.538,0.045,0.766
	c0.008,0.158-0.004,0.298-0.016,0.427c-0.047,0.072-0.094,0.142-0.141,0.213C47.842,36.623,47.84,36.61,47.837,36.594z
	 M35.642,48.168c0.024-0.413,0.115-0.835,0.188-1.277c0.079-0.441,0.2-0.888,0.32-1.342c0.135-0.449,0.289-0.9,0.441-1.351
	c0.185-0.438,0.35-0.885,0.548-1.307c0.193-0.426,0.399-0.838,0.611-1.228c0.202-0.396,0.424-0.762,0.638-1.108
	c0.202-0.354,0.428-0.665,0.624-0.959c0.807-1.168,1.478-1.841,1.478-1.841s-0.107,0.21-0.295,0.576
	c-0.182,0.367-0.443,0.889-0.757,1.515c-0.15,0.315-0.313,0.655-0.484,1.016c-0.173,0.357-0.345,0.741-0.521,1.137
	c-0.188,0.391-0.343,0.811-0.527,1.225S37.571,44.072,37.4,44.5c-0.154,0.433-0.314,0.863-0.452,1.292
	c-0.114,0.437-0.281,0.853-0.376,1.271c-0.089,0.418-0.228,0.815-0.291,1.202c-0.063,0.388-0.159,0.754-0.206,1.095
	c-0.037,0.341-0.081,0.656-0.12,0.937c-0.037,0.281-0.03,0.526-0.047,0.731c-0.023,0.408-0.045,0.646-0.045,0.646
	s-0.05-0.228-0.126-0.635c-0.03-0.204-0.1-0.454-0.114-0.743c-0.016-0.288-0.035-0.615-0.044-0.975
	C35.574,48.963,35.612,48.578,35.642,48.168z M34.66,47.858c0,0-0.219,0.284-0.412,0.717c-0.233-0.577-0.483-1.157-0.745-1.741
	C33.776,47.167,34.143,47.509,34.66,47.858z M26.029,31.324c-0.219-0.374-0.432-0.735-0.643-1.073
	c-0.211-0.339-0.41-0.66-0.594-0.955c-0.38-0.588-0.697-1.078-0.919-1.422c-0.226-0.344-0.355-0.541-0.355-0.541
	s0.741,0.596,1.671,1.666c0.227,0.271,0.486,0.557,0.725,0.885c0.25,0.321,0.513,0.661,0.757,1.031
	c0.254,0.364,0.503,0.751,0.742,1.152c0.243,0.399,0.456,0.824,0.688,1.24c0.201,0.431,0.403,0.862,0.586,1.293
	c0.17,0.438,0.34,0.869,0.466,1.299c0.121,0.432,0.258,0.842,0.327,1.248c0.075,0.404,0.155,0.783,0.188,1.14
	c0.03,0.358,0.047,0.686,0.063,0.975c0.014,0.222-0.005,0.416-0.019,0.591c-0.099-0.154-0.192-0.307-0.293-0.461
	c-0.007-0.032-0.009-0.06-0.018-0.092c-0.07-0.274-0.147-0.584-0.222-0.919c-0.085-0.335-0.219-0.687-0.325-1.065
	c-0.105-0.377-0.286-0.758-0.421-1.163c-0.142-0.405-0.352-0.801-0.515-1.221c-0.185-0.411-0.391-0.822-0.592-1.233
	c-0.216-0.407-0.412-0.823-0.641-1.214C26.46,32.092,26.26,31.691,26.029,31.324z M36.879,57.42
	c0.135,0.465,0.403,0.996,0.862,1.599c0,0-0.237,0.161-0.514,0.439C37.128,58.788,37.012,58.108,36.879,57.42z M36.678,68.188
	c-0.136-0.154-0.277-0.355-0.474-0.559c-0.2-0.202-0.424-0.428-0.657-0.68c-0.241-0.246-0.536-0.481-0.819-0.753
	c-0.282-0.272-0.63-0.509-0.953-0.79c-0.327-0.277-0.709-0.511-1.062-0.792c-0.367-0.261-0.754-0.511-1.135-0.765
	c-0.394-0.24-0.772-0.499-1.168-0.721c-0.396-0.223-0.771-0.466-1.155-0.665c-0.378-0.212-0.746-0.415-1.098-0.601
	c-0.354-0.186-0.688-0.36-0.996-0.522c-0.626-0.314-1.147-0.575-1.513-0.76c-0.369-0.182-0.58-0.287-0.58-0.287
	s0.94,0.139,2.285,0.591c0.333,0.118,0.701,0.234,1.074,0.395c0.378,0.15,0.776,0.311,1.174,0.507
	c0.404,0.185,0.814,0.393,1.223,0.617c0.412,0.221,0.812,0.479,1.222,0.72c0.393,0.27,0.784,0.538,1.162,0.818
	c0.369,0.292,0.731,0.576,1.06,0.883c0.323,0.312,0.649,0.595,0.915,0.911c0.268,0.312,0.531,0.597,0.74,0.888
	c0.207,0.293,0.388,0.566,0.548,0.807c0.113,0.167,0.189,0.328,0.261,0.476c-0.004,0.109-0.01,0.217-0.015,0.325
	C36.702,68.215,36.691,68.204,36.678,68.188z M30.967,81.15c0.025-1.73,0.247-2.868,0.247-2.868s0.034,0.285,0.094,0.783
	c0.064,0.496,0.152,1.202,0.26,2.049c0.062,0.421,0.129,0.876,0.199,1.358c0.07,0.479,0.156,0.985,0.244,1.506
	c0.075,0.523,0.203,1.055,0.298,1.599c0.095,0.545,0.239,1.088,0.357,1.637c0.137,0.542,0.268,1.088,0.419,1.617
	c0.18,0.519,0.294,1.053,0.48,1.542c0.194,0.484,0.323,0.981,0.522,1.416c0.2,0.436,0.351,0.871,0.535,1.249
	c0.195,0.37,0.365,0.72,0.517,1.03c0.153,0.311,0.327,0.554,0.449,0.773c0.253,0.429,0.395,0.685,0.395,0.685
	s-0.207-0.195-0.561-0.558c-0.169-0.187-0.409-0.392-0.619-0.676c-0.212-0.281-0.453-0.6-0.707-0.957
	c-0.25-0.359-0.471-0.775-0.721-1.211c-0.256-0.435-0.451-0.924-0.677-1.422c-0.22-0.501-0.4-1.035-0.587-1.577
	c-0.167-0.546-0.318-1.108-0.469-1.669c-0.111-0.568-0.246-1.134-0.333-1.695c-0.093-0.563-0.165-1.12-0.215-1.659
	c-0.064-0.538-0.087-1.062-0.107-1.556C30.951,82.051,30.968,81.582,30.967,81.15z M32.169,92.479c0,0-0.023,0.388,0.055,0.906
	c-0.494-0.351-0.979-0.704-1.494-1.048C31.145,92.422,31.613,92.478,32.169,92.479z M30.84,94.348
	c-0.248,0.035-0.548,0.044-0.887,0.108c-0.34,0.068-0.72,0.145-1.133,0.213c-0.412,0.081-0.85,0.223-1.317,0.328
	c-0.467,0.104-0.941,0.301-1.444,0.44c-0.503,0.146-0.998,0.379-1.519,0.55c-0.513,0.199-1.027,0.425-1.541,0.643
	c-0.509,0.238-1.028,0.45-1.52,0.705c-0.492,0.253-0.992,0.472-1.454,0.729c-0.469,0.244-0.922,0.481-1.347,0.715
	c-0.428,0.236-0.83,0.459-1.203,0.664c-0.74,0.427-1.356,0.782-1.789,1.03c-0.434,0.254-0.682,0.399-0.682,0.399
	s0.772-0.865,2.135-1.931c0.344-0.259,0.709-0.558,1.124-0.828c0.406-0.284,0.838-0.582,1.305-0.855
	c0.459-0.287,0.946-0.565,1.45-0.832c0.502-0.272,1.033-0.504,1.554-0.761c0.539-0.219,1.076-0.438,1.613-0.634
	c0.545-0.178,1.079-0.358,1.611-0.485c0.534-0.12,1.042-0.262,1.542-0.32c0.498-0.065,0.964-0.14,1.402-0.156
	c0.436-0.015,0.837-0.016,1.189-0.017c0.353-0.004,0.662,0.063,0.911,0.085c0.215,0.027,0.381,0.05,0.51,0.068
	c0.031,0.022,0.063,0.044,0.094,0.066C31.31,94.29,31.108,94.316,30.84,94.348z M43.162,96.412c0.08-0.574,0.131-1.153,0.23-1.715
	c0.091-0.562,0.202-1.111,0.328-1.64c0.111-0.528,0.257-1.032,0.397-1.508c0.127-0.479,0.293-0.919,0.43-1.328
	c0.578-1.63,1.153-2.637,1.153-2.637s-0.059,0.28-0.161,0.772c-0.099,0.489-0.241,1.187-0.411,2.023
	c-0.076,0.418-0.159,0.871-0.247,1.351c-0.088,0.477-0.168,0.983-0.251,1.505c-0.096,0.519-0.146,1.063-0.23,1.609
	c-0.084,0.547-0.122,1.106-0.187,1.665c-0.044,0.557-0.093,1.115-0.121,1.666c0.004,0.548-0.059,1.091-0.04,1.614
	c0.029,0.521-0.008,1.033,0.042,1.509c0.048,0.477,0.053,0.938,0.106,1.354c0.065,0.413,0.116,0.798,0.159,1.142
	c0.045,0.342,0.131,0.629,0.177,0.875c0.07,0.333,0.114,0.564,0.136,0.683c-0.031-0.041-0.062-0.082-0.093-0.123
	c-0.06-0.119-0.141-0.281-0.242-0.492c-0.1-0.23-0.261-0.502-0.369-0.839c-0.111-0.335-0.236-0.714-0.362-1.133
	c-0.123-0.421-0.199-0.887-0.296-1.379c-0.104-0.493-0.131-1.02-0.187-1.563c-0.047-0.545-0.046-1.109-0.05-1.682
	C43.09,97.572,43.127,96.991,43.162,96.412z M42.056,101.339c0,0-0.103,0.248-0.19,0.628c-0.364-0.406-0.731-0.812-1.118-1.219
	C41.112,100.959,41.535,101.16,42.056,101.339z M46.184,110.236c-0.243-0.063-0.522-0.172-0.86-0.243
	c-0.339-0.068-0.72-0.146-1.128-0.243c-0.411-0.084-0.87-0.123-1.341-0.206c-0.472-0.084-0.985-0.087-1.501-0.153
	c-0.52-0.059-1.067-0.036-1.614-0.081c-0.55-0.015-1.111-0.005-1.67-0.004c-0.562,0.023-1.121,0.02-1.673,0.063
	c-0.551,0.044-1.097,0.052-1.622,0.111c-0.527,0.043-1.037,0.085-1.52,0.138c-0.484,0.053-0.942,0.102-1.365,0.146
	c-0.848,0.106-1.554,0.196-2.048,0.258c-0.498,0.066-0.782,0.104-0.782,0.104s1.046-0.499,2.715-0.955
	c0.418-0.105,0.869-0.238,1.356-0.33c0.485-0.104,0.998-0.211,1.534-0.283c0.535-0.087,1.092-0.155,1.661-0.205
	c0.566-0.056,1.146-0.065,1.725-0.101c0.582,0.008,1.162,0.013,1.734,0.04c0.571,0.047,1.133,0.087,1.673,0.176
	c0.538,0.095,1.062,0.161,1.546,0.301c0.484,0.134,0.942,0.244,1.352,0.397c0.409,0.157,0.779,0.311,1.104,0.445
	c0.326,0.134,0.585,0.314,0.808,0.432c0.163,0.093,0.288,0.167,0.394,0.23c0.025,0.04,0.045,0.077,0.069,0.116
	C46.599,110.354,46.416,110.303,46.184,110.236z M77.287,149.996c-0.295,0.047-0.653,0.064-1.056,0.15
	c-0.404,0.088-0.857,0.188-1.349,0.279c-0.49,0.107-1.009,0.285-1.564,0.422c-0.556,0.135-1.118,0.381-1.715,0.559
	c-0.597,0.186-1.182,0.475-1.801,0.689c-0.607,0.25-1.217,0.531-1.826,0.803c-0.602,0.297-1.216,0.563-1.798,0.877
	c-0.58,0.313-1.173,0.586-1.718,0.902c-0.555,0.303-1.091,0.596-1.593,0.887c-0.505,0.289-0.981,0.564-1.42,0.818
	c-0.874,0.525-1.602,0.965-2.113,1.27c-0.511,0.314-0.805,0.492-0.805,0.492s0.903-1.051,2.505-2.354
	c0.406-0.316,0.834-0.68,1.322-1.014c0.48-0.35,0.987-0.715,1.538-1.051c0.543-0.354,1.118-0.697,1.714-1.025
	c0.591-0.336,1.221-0.627,1.836-0.943c0.638-0.273,1.274-0.547,1.912-0.795c0.647-0.225,1.28-0.451,1.912-0.615
	c0.635-0.156,1.238-0.336,1.833-0.418c0.593-0.088,1.148-0.188,1.669-0.219c0.523-0.027,1.001-0.037,1.421-0.047
	c0.421-0.012,0.792,0.061,1.091,0.08c0.602,0.064,0.938,0.113,0.938,0.113S77.877,149.916,77.287,149.996z M45.259,127.861
	c-0.331-0.557-0.607-1.117-0.868-1.648c-0.277-0.523-0.484-1.045-0.695-1.516c-0.808-1.9-1.116-3.251-1.116-3.251
	s0.176,0.295,0.482,0.811c0.309,0.509,0.747,1.238,1.274,2.111c0.271,0.43,0.563,0.896,0.873,1.389
	c0.308,0.49,0.646,1.002,0.994,1.527c0.333,0.533,0.73,1.053,1.097,1.602c0.367,0.549,0.785,1.072,1.181,1.613
	c0.411,0.527,0.818,1.059,1.238,1.564c0.447,0.48,0.829,1.008,1.269,1.453c0.445,0.436,0.827,0.914,1.254,1.293
	c0.428,0.381,0.804,0.783,1.187,1.105c0.392,0.311,0.747,0.609,1.062,0.877c0.316,0.264,0.624,0.447,0.862,0.627
	c0.484,0.346,0.762,0.559,0.762,0.559s-0.32-0.115-0.882-0.34c-0.274-0.121-0.636-0.229-1.001-0.438
	c-0.368-0.205-0.786-0.438-1.235-0.705c-0.446-0.27-0.89-0.619-1.372-0.975c-0.489-0.35-0.938-0.791-1.427-1.225
	c-0.482-0.441-0.936-0.938-1.403-1.439c-0.447-0.516-0.882-1.057-1.318-1.596c-0.396-0.568-0.817-1.119-1.183-1.691
	C45.92,128.998,45.572,128.425,45.259,127.861z M50.48,136.49c0,0,0.1,0.268,0.301,0.634c-0.482-0.076-0.967-0.149-1.458-0.218
	C49.685,136.801,50.064,136.671,50.48,136.49z M29.749,134.708c-0.651-0.092-1.317-0.16-1.98-0.232
	c-0.669-0.051-1.334-0.133-1.994-0.156c-0.659-0.023-1.309-0.088-1.94-0.092c-0.631-0.02-1.241-0.039-1.821-0.043
	c-0.583-0.004-1.132-0.01-1.639-0.014c-1.021,0.012-1.871,0.02-2.466,0.025c-0.599,0.012-0.942,0.018-0.942,0.018
	s1.31-0.449,3.352-0.76c0.51-0.068,1.064-0.166,1.654-0.207c0.59-0.057,1.213-0.115,1.859-0.127
	c0.647-0.029,1.316-0.035,1.997-0.016c0.68,0.01,1.37,0.08,2.062,0.117c0.688,0.088,1.376,0.174,2.05,0.285
	c0.671,0.133,1.333,0.258,1.961,0.436c0.625,0.189,1.237,0.338,1.791,0.57c0.557,0.225,1.086,0.418,1.551,0.656
	c0.465,0.242,0.881,0.477,1.249,0.68c0.193,0.106,0.361,0.224,0.514,0.338c-0.311,0.005-0.627,0.017-0.941,0.026
	c-0.338-0.111-0.699-0.231-1.088-0.372c-0.477-0.156-1.016-0.266-1.563-0.43c-0.547-0.164-1.156-0.236-1.761-0.387
	C31.043,134.884,30.392,134.835,29.749,134.708z M55.753,140.373c-0.254,0.158-0.577,0.313-0.916,0.547
	c-0.338,0.238-0.717,0.506-1.135,0.779c-0.411,0.289-0.821,0.654-1.281,0.994c-0.459,0.342-0.882,0.785-1.364,1.18
	c-0.478,0.402-0.906,0.895-1.394,1.334c-0.463,0.465-0.917,0.959-1.373,1.445c-0.441,0.506-0.905,0.988-1.319,1.504
	c-0.414,0.514-0.855,0.996-1.235,1.498c-0.394,0.494-0.775,0.971-1.127,1.434c-0.353,0.463-0.685,0.9-0.992,1.305
	c-0.602,0.822-1.104,1.508-1.456,1.988c-0.351,0.486-0.552,0.766-0.552,0.766s0.425-1.318,1.4-3.141
	c0.251-0.449,0.504-0.951,0.827-1.447c0.307-0.506,0.634-1.039,1.011-1.564c0.363-0.535,0.761-1.074,1.184-1.607
	c0.416-0.539,0.884-1.051,1.328-1.582c0.484-0.498,0.964-0.996,1.457-1.471c0.508-0.459,1.005-0.912,1.525-1.309
	c0.524-0.389,1.012-0.789,1.53-1.094c0.512-0.311,0.984-0.617,1.454-0.848c0.471-0.227,0.908-0.422,1.292-0.594
	c0.384-0.174,0.753-0.25,1.038-0.348c0.579-0.172,0.908-0.258,0.908-0.258S56.266,140.072,55.753,140.373z" class="color c1"/>
</svg>