<svg version="1.1" id="图层_1" x="0px" y="0px" width="200px" height="179.001px" viewBox="0 0 200 179.001" enable-background="new 0 0 200 179.001" xml:space="preserve" xmlns="http://www.w3.org/2000/svg" xmlns:xlink="http://www.w3.org/1999/xlink" xmlns:xml="http://www.w3.org/XML/1998/namespace">
  <path fill="#2A9900" d="M199.218,52.439c-0.288-0.301-1.594-0.376-2.004-0.366c-0.136-0.025-0.267-0.049-0.399-0.073
	c0.087-0.246,0.238-0.4,0.149-0.658c-0.211,0.023-0.423,0.047-0.634,0.069c0,0-0.465,0.054-0.644,0.039
	c-0.18-0.013-0.314-0.13-0.314-0.13c0.022-0.206,0.045-0.413,0.067-0.624c0.203-0.413,0.553-1.051-0.326-0.575
	c-0.147,0.082-0.409,0.188-0.454,0.229c-0.042,0.044-0.308,0.054-0.341,0.072c-0.034,0.018-0.166-0.158-0.166-0.158
	c0.132-0.127,0.266-0.251,0.397-0.374c0,0-0.097-0.108-0.161-0.147c-0.068-0.037-0.462,0.072-0.596-0.015
	c-0.135-0.087-0.283-0.103-0.283-0.103s0.179-0.395,0.232-0.521c0.055-0.126,0.197-0.362,0.231-0.416
	c0.032-0.053,0.388-0.404,0.388-0.404c-0.034-0.047-0.069-0.093-0.104-0.138c-0.142,0.013-0.284,0.025-0.427,0.041
	c0,0-0.416-0.018-0.485,0.021c-0.071,0.033-0.45,0.102-0.528,0.168c-0.082,0.064-0.238,0.01-0.238,0.01
	c-0.01-0.092-0.016-0.189-0.025-0.286c-0.044-0.028-0.084-0.057-0.127-0.085c0,0-0.445,0.159-0.593,0.22
	c-0.146,0.058-0.188-0.127-0.219-0.206c-0.03-0.073,0.297-0.55,0.34-0.634c0.042-0.083-0.005-0.305-0.005-0.305
	c-0.283,0.081-0.571,0.162-0.857,0.243c-0.137-0.017-0.272-0.038-0.409-0.06c0,0-0.203-0.382-0.172-0.459
	c0.033-0.07,0.235-0.637,0.235-0.637s0.32-0.74,0.344-0.867c0.024-0.126,0.114-0.441,0.114-0.441
	c-0.113,0.013-0.224,0.025-0.338,0.038c0,0-0.649,0.292-0.765,0.343c-0.117,0.05-0.756,0.437-0.756,0.437
	c-0.183,0.063-0.363,0.129-0.543,0.189c-0.075-0.056-0.153-0.114-0.228-0.174c0.043-0.224,0.087-0.453,0.129-0.683
	c-0.131,0.139-0.259,0.277-0.388,0.415c0,0-0.556,0.387-0.608,0.442c-0.055,0.052-0.453,0.062-0.453,0.062
	c-0.064-0.107-0.125-0.21-0.187-0.316c0.013-0.157,0.021-0.314,0.033-0.462c-0.097,0.063-0.193,0.129-0.288,0.19
	c0,0-0.568,0.339-0.728,0.492c-0.161,0.154-1.086,0.463-1.086,0.463c-0.152-0.013-0.307-0.021-0.461-0.03
	c-0.148-0.065-0.292-0.132-0.44-0.198c-0.012-0.16-0.026-0.318-0.04-0.479c0,0,0.329-0.685,0.361-0.844
	c0.091-0.4,0.516-0.528-0.14-0.297c0,0-0.028-0.179-0.035-0.337c-0.008-0.159,0.223-0.588,0.354-0.797
	c0.13-0.206,0.506-0.652,0.648-0.784c0.066-0.066,0.176-0.141,0.268-0.201c0.299-0.19,0.148-0.119-0.211-0.262
	c-0.097-0.039-0.198-0.08-0.276-0.112c-0.241-0.1-0.538,0.002-0.538,0.002s-0.843,0.002-0.918,0.032
	c-0.077,0.03-0.685-0.026-0.685-0.026s-0.088-0.843-0.129-0.971c-0.037-0.128-0.188-0.582-0.229-0.648
	c-0.014-0.018-0.04-0.073-0.071-0.138c-0.206-0.436-0.115-0.423-0.246,0.041c-0.03,0.106-0.063,0.204-0.085,0.259
	c-0.069,0.146-0.268,0.521-0.331,0.646c-0.066,0.126-0.365,0.415-0.483,0.529c-0.117,0.113-0.529,0.092-0.655,0.07
	s-0.3-0.228-0.371-0.322c-0.071-0.1-0.137-0.634-0.122-0.834c0.016-0.203-0.142-0.213-0.142-0.213
	c-0.375,0.41-0.3,0.412-0.566,0.869c-0.054,0.097-0.453,0.479-0.506,0.529c-0.055,0.049-0.265,0.047-0.314-0.008
	c-0.024-0.024-0.07-0.066-0.114-0.105c-0.116-0.108-0.072-0.116-0.195-0.045c-0.094,0.053-0.191,0.106-0.281,0.163
	c-0.139,0.042-0.276,0.084-0.415,0.125c0,0-0.27-0.13-0.32-0.186c-0.052-0.051-0.131-0.304-0.151-0.435
	c-0.018-0.125-0.012-0.464,0.002-0.62c0.014-0.157-0.08-0.193-0.08-0.193s-0.632,0.523-0.707,0.642
	c-0.077,0.112-0.289,0.646-0.326,0.715c-0.04,0.066-0.066,0.222-0.084,0.269c-0.019,0.043-0.166,0.136-0.24,0.128
	c-0.072-0.018-0.19-0.006-0.219,0.019c-0.024,0.025-0.143,0.191-0.181,0.249c-0.02,0.026-0.088,0.109-0.159,0.196
	c-0.176,0.207-0.13,0.262-0.302,0.106c-0.118-0.109-0.272-0.259-0.285-0.238c-0.02,0.032-0.105,0.166-0.162,0.26
	c-0.058,0.093-0.376,0.352-0.376,0.352s-0.308,0.279-0.382,0.344c-0.07,0.071-0.159-0.038-0.243-0.148
	c-0.083-0.105-0.223-0.24-0.289-0.404c-0.063-0.166-0.148-0.317-0.21-0.456c-0.062-0.141-0.189,0.038-0.243,0.086
	c-0.055,0.056-0.232,0.406-0.255,0.462c-0.02,0.052-0.18,0.465-0.211,0.575c-0.021,0.08-0.105,0.476-0.146,0.697
	c5.062,7.529-0.259,23.203,0.111,19.463c0.252-2.543-0.208-5.62-0.786-8.231c-0.021,0.001-0.041,0-0.062,0.002
	c-0.018-0.086-0.036-0.172-0.055-0.256c0.015-0.056,0.024-0.09,0.032-0.119c-0.023-0.102-0.046-0.208-0.07-0.308
	c-0.026-0.022-0.049-0.046-0.075-0.069c-0.83-3.564-1.916-6.003-1.916-6.003C154.426,19.838,124.279,0,89.5,0
	C75.41,0,62.082,3.26,50.224,9.061c-2.899-5.715-9.916-5.744-13.659-2.278c-5.001,4.63-5.159,11.751-5.009,14.512
	C12.251,37.711,0,62.173,0,89.501c0,49.43,40.07,89.5,89.5,89.5c17.154,0,30.224-3.879,39.603-8.344l0.057,0.184
	c0,0,0.131-0.045,0.383-0.129c0.241-0.088,0.598-0.215,1.064-0.383c0.921-0.342,2.257-0.865,3.926-1.596
	c3.324-1.473,8.025-3.748,13.158-7.342c2.558-1.801,5.214-3.946,7.726-6.543c2.503-2.592,4.858-5.669,6.593-9.253
	c0.867-1.786,1.571-3.698,2.046-5.69c0.059-0.254,0.123-0.489,0.175-0.758l0.147-0.728c0.089-0.504,0.186-1.025,0.25-1.533
	c0.042-0.306,0.07-0.617,0.103-0.925c0.471-0.454,0.918-0.923,1.322-1.411c1.057-1.309,1.901-2.696,2.578-4.087
	c1.361-2.782,2.129-5.519,2.671-7.951c0.523-2.441,0.803-4.6,0.979-6.379c0.178-1.779,0.246-3.183,0.288-4.139
	c0.033-0.957,0.051-1.467,0.051-1.467s-0.03,0.509-0.087,1.464c-0.066,0.954-0.169,2.355-0.391,4.126
	c-0.221,1.771-0.553,3.915-1.134,6.327c-0.598,2.402-1.429,5.095-2.831,7.789c-0.697,1.346-1.556,2.678-2.605,3.913
	c-0.24,0.276-0.494,0.545-0.755,0.808c0.026-0.393,0.052-0.785,0.058-1.182c0.025-2.097-0.254-4.282-1.143-6.314
	c-0.447-1.011-1.059-1.968-1.835-2.788c-0.78-0.813-1.715-1.491-2.749-1.942c-2.064-0.923-4.422-0.995-6.523-0.347
	c-2.095,0.641-4.024,2.06-5.003,4.08c-0.493,0.997-0.724,2.112-0.7,3.196c0.006,0.141,0,0.262,0.017,0.416l0.032,0.372
	c0.025,0.25,0.067,0.538,0.114,0.795c0.097,0.519,0.235,1.027,0.408,1.521c0.705,1.977,2.039,3.67,3.694,4.821
	c1.657,1.148,3.624,1.775,5.555,1.79c1.934,0.04,3.795-0.527,5.365-1.418c0.111-0.063,0.209-0.138,0.317-0.204
	c-0.016,0.079-0.029,0.158-0.045,0.238l-0.166,0.724c-0.046,0.216-0.117,0.454-0.175,0.68c-0.483,1.828-1.176,3.576-2.02,5.211
	c-1.687,3.278-3.953,6.104-6.377,8.494c-2.409,2.373-4.965,4.34-7.435,5.994c1.03-1.014,1.547-1.632,1.547-1.632
	c-14.227,7.133-29.999,10.893-45.629,11.15c17.776-5.11,23.951-19.738,23.951-19.738c-6.685,12.403-22.107,18.946-36.853,19.144
	c-6.948-0.764-13.771-2.253-20.317-4.472c-0.419-0.223-0.838-0.444-1.243-0.684l-0.504-0.092l-0.007,0.166
	c-23.825-8.622-43.72-27.131-52.057-56.181c-9.54-33.24,6.037-66.471,32.499-84.444c-0.747,2.181-1.658,4.597-2.731,7.269
	c-7.014,17.456-6.313,30.744,10.365,33.354C70.23,65.28,70.271,49.996,70.271,49.996c-2.961,14.028-13.482,12.079-18.393,9.975
	c-4.909-2.104-14.417-5.844-3.896-30.393c1.539-3.59,2.504-6.73,3.035-9.478c20.962-12.757,47.96-16.176,74.606-3.386
	c24.351,11.688,35.796,27.766,39.032,40.277c-0.421,0.22-0.811,0.408-1.032,0.366c-0.18-0.04-0.477,0.018-0.477,0.018
	c0.077,0.074,0.154,0.146,0.229,0.217c-0.199,0.1-0.398,0.203-0.596,0.304c-0.136,0.033-0.269,0.066-0.404,0.098
	c-0.169,0.026-0.336,0.05-0.505,0.073c-0.068,0.024-0.574,0.197-0.589,0.251c-0.031,0.107,0.357,0.299,0.429,0.336
	c-0.305,0.236-0.564,0.307-0.933,0.354c-0.208,0.026-0.185,0-0.079,0.149c0.022,0.033,0.046,0.071,0.072,0.113
	c0,0,0.122,0.148-0.024,0.207c-0.149,0.062-0.404,0.162-0.647,0.229c-0.244,0.067-0.448,0.204-0.448,0.204
	c-0.077,0.052-0.154,0.104-0.229,0.158c-0.283,0.191-0.276,0.117,0.06,0.314c0.104,0.058,0.209,0.118,0.275,0.149
	c0.154,0.08,0.445,0.273,0.445,0.273c-0.013,0.2-0.026,0.397-0.043,0.599c-0.063,0.122-0.125,0.24-0.187,0.363
	c-0.036,0.051-0.071,0.101-0.105,0.144c-0.125,0.174-0.124,0.143,0.089,0.122c0.039-0.005,0.079-0.007,0.119-0.01
	c-0.092,0.137-0.184,0.271-0.271,0.407c0,0-0.383,0.569-0.436,0.645c-0.033,0.042-0.224,0.209-0.377,0.338
	c-0.211,0.184-0.267,0.156-0.044,0.185c0.059,0.005,0.126,0.013,0.179,0.02c0.113,0.014,0.408,0.017,0.408,0.017
	s0.21,0.132,0.313,0.239c0.05,0.055,0.009,0.177-0.047,0.282c-0.134,0.267-0.182,0.147,0.024,0.371
	c0.095,0.107,0.19,0.207,0.286,0.312c0,0-0.313,0.404-0.356,0.468c-0.021,0.027-0.118,0.184-0.217,0.344
	c-0.284,0.458-0.349,0.392,0.118,0.312c0.129-0.016,0.255-0.037,0.297-0.042c0.093-0.008,0.378,0.07,0.451,0.103
	c0.072,0.036,0.202,0.428,0.202,0.428c-0.022,0.175-0.044,0.349-0.066,0.523c-0.042,0.344-0.13,0.343,0.129,0.335
	c0.096-0.005,0.189-0.003,0.214,0.01c0.05,0.028,0.271,0.401,0.287,0.502c0.009,0.068-0.108,0.842-0.182,1.312
	c-0.057,0.383-0.146,0.378,0.148,0.319c0.389-0.081,0.595-0.148,0.963-0.296c0.216,0.097,0.433,0.191,0.65,0.286
	c0.049,0.185,0.103,0.369,0.153,0.554c0,0-0.358,1.129-0.384,1.32c-0.024,0.188,0.574-0.225,0.574-0.225
	c0.154,0.006,0.309,0.008,0.463,0.012c0,0-0.006,0.379-0.032,0.569c-0.024,0.188-0.225,0.71-0.225,0.71
	c0.15,0.011,0.3,0.02,0.45,0.029c-1.082,1.82-2.588,3.08-4.43,3.612c-12.131,3.505-15.905-5.122-15.905-5.122
	c1.042,6.517,14.438,13.789,23.365,5.241c0.04,0.005,0.08,0.012,0.117,0.022c0.128,0.035,0.093,0.513,0.101,0.641
	c0.007,0.126,0.065,0.649,0.112,0.624c0.395-0.209,0.502-0.303,0.854-0.54c0.077-0.053,0.288-0.154,0.36-0.194
	c0.076-0.041,0.227,0.146,0.256,0.188c0.029,0.043,0.12,0.269,0.176,0.389c0.057,0.123,0.082,0.439,0.097,0.519
	s0.163-0.106,0.25-0.138c0.084-0.029,0.201-0.08,0.318-0.109c0.115-0.029,0.24,0.101,0.269,0.175
	c0.03,0.073,0.088,0.498,0.104,0.665c0.004,0.037,0.009,0.078,0.014,0.12c0.047,0.373-0.024,0.333,0.232,0.198
	c0.054-0.03,0.118-0.062,0.192-0.099c0.242-0.118,0.233-0.104,0.402-0.183c0.17-0.081,0.315,0.177,0.365,0.229
	c0.052,0.052,0.196,0.245,0.304,0.597c0.11,0.351-0.05,0.481-0.034,0.569c0.021,0.083,0.312-0.217,0.312-0.217
	c0.132-0.071,0.263-0.14,0.396-0.212c0,0,0.262,0.121,0.313,0.173c0.05,0.055,0.415,0.781,0.415,0.781s0.338,0.933,0.431,1.071
	c0.261,0.392,0.122,0.787,0.339,0.431c0.236-0.384,0.261-0.479,0.357-0.955c0.161-0.592,0.326-1.135,0.519-1.717
	c0.127-0.205,0.255-0.409,0.383-0.612c0.057,0.018,0.116,0.039,0.174,0.059c0.317,0.114,0.203,0.013,0.195-0.391
	c-0.006-0.127-0.009-0.243-0.008-0.282c-0.008-0.117,0.209-0.535,0.209-0.535s0.3-0.269,0.436-0.255
	c0.057,0.007,0.126,0.026,0.189,0.051c0.241,0.096,0.17,0.106,0.172-0.322c0-0.103,0-0.195-0.012-0.249
	c-0.029-0.157-0.055-0.44-0.093-0.655c-0.038-0.212,0.097-0.522,0.158-0.586c0.029-0.028,0.097,0.01,0.168,0.06
	c0.27,0.192,0.182,0.204,0.179-0.227c-0.004-0.133-0.007-0.266-0.02-0.333c-0.029-0.157-0.277-0.849-0.327-0.966
	c-0.391-0.908-0.488-2.313-0.117-3.221c0.108-0.267,0.254-0.45,0.423-0.57c0.541-0.387,1.316-0.058,1.802,0.549
	c0.745,0.929,0.607,1.19,0.563,2.393c0,0-0.061,0.407,0.011,0.526c0.069,0.12,0.214-0.163,0.351-0.213
	c0.139-0.054,0.206,0.319,0.222,0.446c0.022,0.126-0.049,0.504-0.063,0.641c-0.013,0.136,0.044,0.475,0.072,0.549
	c0.032,0.075,0.13-0.084,0.27-0.237c0.14-0.154,0.291,0.239,0.291,0.239c0.017,0.194,0.035,0.393,0.051,0.592
	c0,0,0.108,0.242,0.162,0.298c0.051,0.052,0.158,0.012,0.329-0.049c0.168-0.06,0.477,0.327,0.6,0.454
	c0.125,0.132,0.478,0.629,0.503,0.676c0.025,0.049,0.39,0.462,0.486,0.615c0.099,0.154,0.164-0.081,0.233-0.147
	c0.069-0.065,0.254-0.484,0.349-0.628c0.093-0.137,0.393-0.231,0.393-0.231s0.393,0.037,0.439,0.078
	c0.045,0.034,0.78,0.703,0.815,0.69c0.038-0.016,0.26-0.302,0.334-0.354c0.075-0.051,0.373,0.012,0.373,0.012
	s0.456,0.436,0.598,0.626c0.504,0.67,0.34,0.526,0.808-0.279c0.156-0.039,0.313-0.08,0.466-0.117
	c0.064,0.045,0.128,0.093,0.191,0.141c0.081,0.06,0.163,0.125,0.243,0.183c0.055-0.038,0.108-0.077,0.159-0.113
	c0.097-0.072,0.195-0.145,0.293-0.214c0.1,0.075,0.202,0.154,0.305,0.232c0.199,0.15,0.156,0.111,0.41,0.046
	c0.233-0.097,0.466-0.193,0.694-0.293c1.328,0.218,1.024,1.457,1.726,0.122c0.205,0.007,0.408,0.02,0.613,0.032
	c0,0,0.939,0.461,1.145,0.591c1.56,0.978,1.602,1.398,1.313-0.226c-0.037-0.211-0.213-0.911-0.288-1.335
	c-0.076-0.421,0.145-0.924,0.145-0.924c0.166-0.157,0.327-0.315,0.495-0.474c-0.123-0.212-0.246-0.428-0.368-0.64
	c-0.079-0.293-0.156-0.595-0.233-0.89c0.745-0.627,1.162-0.523,0.669-1.115c-0.162-0.197-0.325-0.393-0.489-0.589
	c0.077-0.1,0.154-0.196,0.232-0.3c0.199-0.26,0.091-0.235-0.131-0.525c-0.067-0.091-0.136-0.18-0.204-0.27
	c0.234-0.186,0.471-0.371,0.706-0.556c0.259,0.024,0.521,0.05,0.778,0.078c0,0-0.451-0.684-0.51-0.836
	c-0.061-0.145-0.308-0.402-0.308-0.402c-0.178-0.164-0.354-0.323-0.529-0.483c0,0-0.113-0.206-0.055-0.32
	c0.054-0.113,0.426-0.33,0.502-0.381c0.074-0.05-0.313-0.256-0.313-0.256c-0.14-0.182-0.28-0.366-0.419-0.55
	c0,0,0.205-0.3,0.249-0.361c0.042-0.063,0.439-0.358,0.536-0.434c0.095-0.07,0.675-0.112,0.675-0.112s-0.618-0.621-0.699-0.773
	c-0.082-0.146-0.541-0.39-0.541-0.39s-0.233-0.24-0.285-0.294c-0.051-0.051-0.026-0.198,0.003-0.247
	c0.027-0.047,0.331-0.104,0.38-0.105c0.045-0.009-0.25-0.216-0.275-0.245c-0.026-0.026-0.267-0.088-0.267-0.088
	c-0.101-0.023-0.202-0.05-0.305-0.07c-0.138-0.059-0.277-0.119-0.415-0.176c-0.031-0.053-0.063-0.102-0.091-0.152
	c-0.002-0.071-0.004-0.144-0.002-0.216c0.095-0.095,0.189-0.186,0.285-0.283c0,0-0.137-0.077-0.167-0.1
	c-0.032-0.019-0.386-0.043-0.453-0.062c-0.067-0.016-0.496,0.021-0.496,0.021c-0.14-0.022-0.28-0.047-0.419-0.07
	c-0.078-0.035-0.153-0.074-0.23-0.108c0,0-0.024-0.33,0.027-0.382c0.056-0.049,0.396-0.318,0.396-0.318
	c-0.271-0.094-0.543-0.193-0.816-0.289c0,0-0.714,0.03-0.979,0.074c-0.265,0.049-1.225-0.024-1.225-0.024
	c-1.164-0.065-1.673-0.035-2.413-0.943c-0.112-0.14-0.382-0.482-0.47-0.729c-0.091-0.241-0.116-0.547-0.091-0.676
	c0.022-0.124,0.281-0.476,0.484-0.588c0.203-0.115,1.027-0.263,1.281-0.278c0.254-0.019,0.985,0.188,1.176,0.212
	c0.831,0.11,2.177-0.105,3.098-0.044c0,0,0.696,0.037,0.843,0.079c0.03,0.014,1.396,0.159,0.673-0.502c0,0,0.429-0.411,0.492-0.473
	c0.064-0.062,0.503-0.276,0.587-0.357c0.088-0.083,1.102-0.208,1.102-0.208c1.075-0.419,0.117-0.184,0.246-0.65
	c0.043-0.166,0.534-0.453,0.631-0.503c0.093-0.053,0.68-0.405,0.68-0.405c0.196-0.146,0.389-0.292,0.579-0.435
	c-0.135-0.062-0.269-0.124-0.406-0.184c0,0,0.703-0.409,0.746-0.474c0.044-0.062,1.168-0.934,1.168-0.934
	c0.339-0.292,0.68-0.586,1.019-0.875C200,52.824,199.394,52.622,199.218,52.439z M161.744,137.295
	c-1.493,0.798-3.22,1.271-4.979,1.191c-1.757-0.057-3.518-0.674-4.979-1.741c-1.461-1.07-2.605-2.609-3.182-4.364
	c-0.56-1.754-0.663-3.738,0.2-5.324c0.825-1.609,2.45-2.763,4.239-3.261c1.792-0.506,3.773-0.381,5.426,0.412
	c1.663,0.781,2.936,2.231,3.626,3.954c0.705,1.724,0.921,3.656,0.848,5.565c-0.036,0.957-0.145,1.914-0.3,2.861
	c-0.009,0.061-0.024,0.119-0.034,0.18C162.328,136.953,162.044,137.135,161.744,137.295z M36.223,17.582
	c0.095-2.802,0.941-11.305,7.707-11.695c3.355-0.194,5.29,0.846,5.913,3.364C45.044,11.626,40.487,14.417,36.223,17.582z" class="color c1"/>
</svg>