<svg version="1.1" id="图层_1" x="0px" y="0px" width="144.497px" height="144.959px" viewBox="0 0 144.497 144.959" enable-background="new 0 0 144.497 144.959" xml:space="preserve" xmlns="http://www.w3.org/2000/svg" xmlns:xlink="http://www.w3.org/1999/xlink" xmlns:xml="http://www.w3.org/XML/1998/namespace">
  <path fill="#689904" d="M89.028,97.487c-0.23,0.438-0.646,0.745-1.139,0.822c-0.494,0.076-0.986-0.088-1.336-0.438L75.85,87.167
	c-0.351-0.351-0.514-0.843-0.438-1.336c0.082-0.487,0.383-0.91,0.821-1.139c7.941-4.098,14.615-10.656,18.881-18.509l12.394,12.393
	c-0.27,0.077-0.818,0.39-1.064,0.561c-0.705,0.492-1.108,0.67-1.792,1.184c-0.021-0.005-0.131,0.103-0.151,0.099
	C97.998,84.657,92.586,90.593,89.028,97.487z M100.32,62.239c-0.021-0.003-0.131,0.104-0.151,0.099
	c-0.684,0.513-1.086,0.691-1.793,1.184c-0.244,0.171-0.793,0.485-1.063,0.561l12.392,12.392c4.267-7.853,10.941-14.41,18.882-18.508
	c0.438-0.23,0.739-0.652,0.821-1.139c0.076-0.494-0.088-0.986-0.438-1.336l-10.703-10.703c-0.35-0.35-0.844-0.515-1.336-0.438
	c-0.493,0.077-0.91,0.383-1.14,0.821C112.235,52.065,106.823,58.001,100.32,62.239z M104.099,112.557
	c-0.229,0.438-0.646,0.745-1.139,0.822c-0.494,0.076-0.986-0.088-1.337-0.438L90.92,102.238c-0.35-0.351-0.514-0.843-0.438-1.336
	c0.083-0.487,0.385-0.91,0.822-1.139c7.94-4.098,14.616-10.656,18.882-18.509l12.392,12.393c-0.268,0.076-0.817,0.389-1.063,0.561
	c-0.705,0.493-1.108,0.67-1.792,1.184c-0.021-0.005-0.132,0.103-0.151,0.099C113.068,99.727,107.655,105.664,104.099,112.557z
	 M115.391,77.31c-0.021-0.004-0.131,0.103-0.151,0.099c-0.684,0.513-1.087,0.691-1.792,1.184c-0.245,0.171-0.794,0.485-1.063,0.561
	l12.392,12.392c4.267-7.853,10.941-14.41,18.882-18.508c0.438-0.23,0.739-0.652,0.821-1.139c0.076-0.494-0.088-0.986-0.438-1.336
	l-10.702-10.702c-0.351-0.351-0.843-0.515-1.337-0.439c-0.491,0.077-0.908,0.384-1.14,0.821
	C127.306,67.136,121.893,73.072,115.391,77.31z" class="color c1"/>
  <path fill="#80C500" d="M46.802,28.046c-0.438-0.23-0.745-0.647-0.821-1.139c-0.077-0.494,0.087-0.986,0.438-1.337l10.703-10.703
	c0.35-0.35,0.842-0.515,1.336-0.438c0.486,0.082,0.908,0.384,1.14,0.822c4.098,7.94,10.654,14.615,18.508,18.881L65.713,46.525
	c-0.076-0.27-0.39-0.818-0.562-1.063c-0.491-0.706-0.67-1.108-1.183-1.792c0.005-0.021-0.104-0.132-0.099-0.152
	C59.633,37.015,53.696,31.603,46.802,28.046z M82.05,39.338c0.004-0.02-0.104-0.13-0.1-0.152c-0.513-0.684-0.691-1.086-1.184-1.792
	c-0.172-0.245-0.484-0.793-0.561-1.063L67.814,48.722c7.853,4.268,14.41,10.942,18.508,18.882c0.229,0.438,0.652,0.74,1.14,0.822
	c0.493,0.077,0.986-0.089,1.335-0.439L99.5,57.286c0.35-0.351,0.516-0.844,0.438-1.337c-0.076-0.493-0.384-0.909-0.822-1.14
	C92.224,51.253,86.287,45.84,82.05,39.338z M61.213,13.635c-0.438-0.229-0.745-0.646-0.821-1.139
	c-0.077-0.493,0.087-0.986,0.438-1.337L71.532,0.457c0.351-0.35,0.844-0.515,1.336-0.438c0.487,0.082,0.909,0.384,1.14,0.821
	c4.098,7.941,10.655,14.615,18.509,18.882L80.124,32.114c-0.075-0.269-0.39-0.818-0.562-1.063c-0.492-0.706-0.67-1.108-1.184-1.792
	c0.005-0.021-0.103-0.132-0.099-0.153C74.043,22.604,68.106,17.192,61.213,13.635z M96.461,24.928
	c0.003-0.02-0.104-0.13-0.101-0.152c-0.513-0.684-0.69-1.086-1.183-1.793c-0.172-0.245-0.484-0.793-0.562-1.063L82.225,34.312
	c7.854,4.267,14.41,10.941,18.508,18.881c0.23,0.439,0.652,0.74,1.14,0.822c0.494,0.077,0.986-0.088,1.336-0.438l10.702-10.702
	c0.352-0.351,0.516-0.843,0.439-1.337c-0.076-0.492-0.384-0.909-0.822-1.139C106.635,36.842,100.698,31.429,96.461,24.928z" class="color c2"/>
  <path fill="#80C500" d="M46.36,90.077c-0.438-0.229-0.744-0.646-0.821-1.138c-0.076-0.493,0.087-0.986,0.438-1.337L56.68,76.899
	c0.351-0.35,0.844-0.514,1.337-0.438c0.487,0.083,0.909,0.383,1.139,0.821c4.099,7.941,10.655,14.616,18.508,18.882l-12.392,12.393
	c-0.075-0.27-0.389-0.818-0.561-1.063c-0.492-0.706-0.67-1.109-1.183-1.792c0.004-0.021-0.104-0.131-0.1-0.152
	C59.19,99.047,53.254,93.635,46.36,90.077z M81.608,101.371c0.004-0.021-0.104-0.131-0.1-0.152c-0.513-0.684-0.69-1.086-1.183-1.793
	c-0.172-0.245-0.486-0.794-0.562-1.063l-12.392,12.392c7.853,4.267,14.41,10.941,18.508,18.881c0.229,0.438,0.652,0.739,1.139,0.822
	c0.493,0.077,0.986-0.088,1.337-0.438l10.702-10.702c0.352-0.351,0.516-0.844,0.438-1.337c-0.077-0.492-0.383-0.909-0.821-1.139
	C91.782,113.285,85.846,107.872,81.608,101.371z M31.878,104.56c-0.438-0.229-0.744-0.646-0.822-1.138
	c-0.076-0.494,0.088-0.987,0.438-1.337l10.702-10.703c0.351-0.35,0.844-0.514,1.337-0.438c0.487,0.082,0.909,0.383,1.139,0.821
	c4.099,7.941,10.655,14.616,18.509,18.882l-12.394,12.392c-0.074-0.269-0.388-0.817-0.56-1.063c-0.491-0.706-0.67-1.109-1.184-1.792
	c0.005-0.021-0.103-0.131-0.099-0.152C44.707,113.53,38.771,108.118,31.878,104.56z M67.126,115.853
	c0.003-0.021-0.104-0.131-0.1-0.152c-0.514-0.684-0.691-1.086-1.184-1.792c-0.172-0.245-0.485-0.794-0.561-1.063L52.89,125.238
	c7.853,4.266,14.41,10.94,18.508,18.881c0.23,0.438,0.652,0.739,1.139,0.821c0.494,0.077,0.986-0.087,1.337-0.438L84.576,133.8
	c0.35-0.35,0.515-0.843,0.438-1.337c-0.078-0.493-0.384-0.909-0.822-1.139C77.3,127.768,71.362,122.355,67.126,115.853z" class="color c2"/>
  <path fill="#689904" d="M54.762,46.235c0.23-0.439,0.647-0.745,1.14-0.822c0.493-0.076,0.986,0.088,1.337,0.438L67.94,56.554
	c0.351,0.351,0.515,0.843,0.438,1.337c-0.081,0.487-0.383,0.91-0.821,1.139c-7.941,4.098-14.614,10.655-18.881,18.508L36.283,65.146
	c0.27-0.076,0.818-0.39,1.063-0.561c0.707-0.492,1.109-0.671,1.793-1.183c0.021,0.005,0.132-0.103,0.152-0.099
	C45.793,59.065,51.205,53.128,54.762,46.235z M43.47,81.482c0.02,0.004,0.131-0.104,0.151-0.1c0.684-0.513,1.086-0.692,1.793-1.183
	c0.245-0.171,0.793-0.485,1.063-0.561L34.085,67.247c-4.267,7.853-10.94,14.41-18.882,18.508c-0.438,0.23-0.739,0.652-0.821,1.139
	c-0.077,0.493,0.087,0.986,0.438,1.336l10.703,10.703c0.35,0.351,0.844,0.515,1.336,0.438c0.493-0.077,0.91-0.383,1.139-0.821
	C31.556,91.656,36.967,85.72,43.47,81.482z M40.398,31.871c0.229-0.439,0.646-0.745,1.14-0.822c0.492-0.076,0.986,0.087,1.336,0.438
	L53.576,42.19c0.351,0.35,0.515,0.843,0.438,1.336c-0.082,0.487-0.383,0.91-0.822,1.139c-7.94,4.098-14.614,10.656-18.881,18.508
	L21.92,50.782c0.269-0.076,0.817-0.39,1.062-0.561c0.707-0.493,1.109-0.671,1.794-1.184c0.021,0.004,0.132-0.103,0.151-0.1
	C31.429,44.701,36.842,38.765,40.398,31.871z M29.105,67.118c0.021,0.004,0.131-0.104,0.151-0.1
	c0.685-0.513,1.087-0.691,1.793-1.183c0.245-0.171,0.794-0.486,1.063-0.561L19.721,52.883c-4.267,7.853-10.94,14.41-18.882,18.508
	c-0.438,0.23-0.738,0.652-0.82,1.139c-0.077,0.493,0.087,0.986,0.438,1.337l10.702,10.703c0.351,0.35,0.844,0.515,1.337,0.438
	s0.909-0.383,1.139-0.822C17.191,77.292,22.604,71.356,29.105,67.118z" class="color c1"/>
</svg>