<svg version="1.1" id="图层_1" x="0px" y="0px" width="100px" height="104.977px" viewBox="0 0 100 104.977" enable-background="new 0 0 100 104.977" xml:space="preserve" xmlns="http://www.w3.org/2000/svg" xmlns:xlink="http://www.w3.org/1999/xlink" xmlns:xml="http://www.w3.org/XML/1998/namespace">
  <path fill="#D0B05B" d="M70.383,9.343c3.156,3.465,6.221,7.46,8.789,11.96c9.435,8.181,15.423,20.235,15.423,33.674
	c0,22.883-17.326,41.785-39.547,44.301c-0.041,0.028-0.079,0.059-0.121,0.087c-0.566,0.38-1.174,0.669-1.798,0.911v-6.384
	C69.264,82.446,78.263,67.376,80.205,51.43C83.82,21.768,55.258,2.919,51.832,0.579c-1.131-0.776-2.673-0.766-3.814,0
	c-16.965,11.55-27.043,26.954-28.374,43.389c-1.229,15.281,4.124,33.131,27.077,49.907v6.413c-0.653-0.253-1.285-0.562-1.865-0.97
	c-0.031-0.021-0.06-0.043-0.09-0.064c-22.131-2.601-39.36-21.459-39.36-44.277c0-13.618,6.152-25.809,15.806-33.993
	c2.281-4.05,5.086-7.94,8.377-11.63C12.168,17.176,0,34.676,0,54.977c0,27.57,22.43,50,50,50s50-22.43,50-50
	C100,34.665,87.818,17.159,70.383,9.343z M53.129,86.284v-6.421V59.545l13.316,12.276C63.064,77.003,58.596,81.879,53.129,86.284z
	 M73.808,51.011c-0.421,5.233-1.874,10.395-4.258,15.332L53.129,51.204V30.885l20.746,19.124
	C73.852,50.336,73.841,50.673,73.808,51.011z M53.118,9.104c1.274,1.032,2.506,2.085,3.659,3.148
	c9.236,8.514,14.945,18.542,16.631,28.967l-20.29-18.705V9.104z M46.721,9.113v13.411L26.43,41.229
	C28.314,29.413,35.389,18.251,46.721,9.113z M25.986,49.999l20.745-19.125v19.871L30.188,65.994
	C27.738,60.833,26.308,55.447,25.986,49.999z M33.248,71.514l13.473-12.418v20.768v6.421C41.165,81.797,36.642,76.809,33.248,71.514
	z" class="color c1"/>
</svg>