<svg version="1.1" id="图层_1" x="0px" y="0px" width="119.653px" height="93.914px" viewBox="0 0 119.653 93.914" enable-background="new 0 0 119.653 93.914" xml:space="preserve" xmlns="http://www.w3.org/2000/svg" xmlns:xlink="http://www.w3.org/1999/xlink" xmlns:xml="http://www.w3.org/XML/1998/namespace">
  <path fill="#FFFFFF" d="M89.674,79.572c-0.926,0.052-1.885,0.078-2.865,0.09h0.004h-0.006c-2.621,0.026-5.408-0.105-8.248-0.439
	c-6.729-1.154-15.428-4.753-17.371-15.496c-3.029-16.74,9.498-18.256,9.498-18.256S54.651,39.97,48.103,57.52
	c-0.827-3.245-1.15-6.918-0.816-11.093c2.271-28.365,26.193-27.918,32.472-25.497c7.055,2.721,10.105,16.315,2.197,17.529
	c-6.479,0.994-7.262-3.506-7.262-3.506s1.58,14.753,17.531,12.43c14.674-2.138,21.352-31.87,1.594-43.026
	C74.059-6.798,32.946,3.083,23.065,38.459c-7.918,28.352,12.616,48.293,32.568,52.478c-18.656-3.052-36.806-13.985-39.368-40.367
	C13.302,20.035,44.378,2.764,44.378,2.764C23.622-3.609-11.355,26.029,3.624,60.449c16.098,36.989,59.601,31.317,59.601,31.317
	c-0.021-0.001-0.043-0.004-0.063-0.005c2.328,0.006,4.598-0.225,6.752-0.717c22.311-5.1,37.967-3.824,49.738,2.869
	C119.653,93.914,106.885,78.615,89.674,79.572z" class="color c1"/>
</svg>