<svg version="1.1" id="图层_1" x="0px" y="0px" width="192.825px" height="192.825px" viewBox="0 0 192.825 192.825" enable-background="new 0 0 192.825 192.825" xml:space="preserve" xmlns="http://www.w3.org/2000/svg" xmlns:xlink="http://www.w3.org/1999/xlink" xmlns:xml="http://www.w3.org/XML/1998/namespace">
  <path fill="#070707" d="M174.381,24.821c0,0,0,0-6.623,1.106c-12.202,2.045-24.684,1.582-36.594-2.945l-10.641,23.829l0.014-0.011
	h40.407l-90.872,94.314l29.443-66.706H59.111L88.932,2.79c-0.604,0.572-1.183,1.213-1.721,1.948c0,0,0,0-4.767,4.51
	C64.837,25.905,44.299,29.233,24.485,25.96c-6.69-1.105-6.69-1.105-6.69-1.105C10.654,22.542,4.916,27.48,5.048,35.83
	c0,0,0,0,0.463,7.15c4.834,74.491,34.088,117.869,72.224,141.595c5.903,3.674,10.859,6.055,10.859,6.055
	c4.085,1.975,10.771,1.975,14.863,0c0,0,4.946-2.377,10.846-6.049c38.14-23.722,67.402-67.102,72.236-141.599
	c0.463-7.155,0.463-7.155,0.463-7.155C187.135,27.482,181.454,22.53,174.381,24.821z" class="color c1"/>
</svg>