<svg version="1.1" id="图层_1" x="0px" y="0px" width="196.025px" height="57.27px" viewBox="0 0 196.025 57.27" enable-background="new 0 0 196.025 57.27" xml:space="preserve" xmlns="http://www.w3.org/2000/svg" xmlns:xlink="http://www.w3.org/1999/xlink" xmlns:xml="http://www.w3.org/XML/1998/namespace">
  <path fill="#5B5B5A" d="M159.212,26.616c-0.024-0.018-0.06-0.018-0.084-0.035C159.154,26.599,159.187,26.599,159.212,26.616
	L159.212,26.616z M158.369,26.513c0.138-0.063,0.288-0.084,0.435-0.066C158.657,26.427,158.506,26.45,158.369,26.513z
	 M38.294,26.513c-0.162-0.074-0.338-0.074-0.506-0.035C37.958,26.44,38.132,26.438,38.294,26.513z M158.803,26.446
	c0.116,0.016,0.223,0.072,0.325,0.135C159.026,26.519,158.92,26.462,158.803,26.446z M159.34,26.719l-0.128-0.104l0.002,0.002
	L159.34,26.719z M40.819,35.351h2.956l-1.367,4.991l6.622-4.475l-8.811-4.527L40.819,35.351z M195.714,54.728l-1.131-0.898
	l-33.904-26.885l20.47,16.385c0.238,0.189,0.346,0.49,0.296,0.777c0.018-0.263-0.08-0.524-0.298-0.697l-20.582-16.475l-0.131-0.104
	c-0.023-0.02-0.059-0.02-0.084-0.036c-0.104-0.063-0.212-0.122-0.33-0.137c-0.147-0.019-0.302,0.003-0.44,0.067l-12.024,5.479
	l-19.183-16.658c-0.297-0.256-0.733-0.268-1.046-0.028l-6.679,5.177L99.278,0.219c-0.001,0-0.002-0.002-0.004-0.002
	c-0.053-0.052-0.115-0.08-0.18-0.115c-0.033-0.018-0.063-0.046-0.099-0.059c-0.063-0.022-0.132-0.03-0.198-0.039
	c-0.063-0.006-0.122-0.006-0.185,0c-0.067,0.009-0.137,0.017-0.2,0.039c-0.032,0.013-0.063,0.037-0.095,0.056
	c-0.063,0.032-0.129,0.065-0.184,0.116c-0.002,0.004-0.004,0.004-0.007,0.007L76.761,20.693l-6.679-5.177
	c-0.312-0.238-0.746-0.228-1.046,0.028L49.855,32.204l-12.023-5.479c-0.148-0.068-0.308-0.068-0.462-0.042l0.086-0.067
	c0.099-0.08,0.216-0.113,0.334-0.139c-0.118,0.024-0.237,0.059-0.336,0.139l-0.086,0.067c-0.017,0.003-0.033,0.001-0.05,0.005
	c-0.119,0.025-0.238,0.061-0.339,0.141l-0.438,0.344L0.312,55.794c-0.335,0.269-0.411,0.742-0.177,1.101l0.051,0.051
	c0.16,0.201,0.393,0.324,0.64,0.324c0.042,0,0.084-0.021,0.127-0.033c0.09-0.007,0.177-0.029,0.262-0.066
	c0.004-0.003,0.009-0.002,0.014-0.004l33.876-18.979l-2.051,13.518c-0.047,0.313,0.085,0.619,0.34,0.799
	c0.257,0.181,0.592,0.205,0.866,0.054L45.32,46.63l1.239,5.386c0.069,0.299,0.3,0.534,0.599,0.612
	c0.297,0.078,0.612-0.018,0.818-0.248l18.799-20.834L62.441,48.78c-0.096,0.381,0.093,0.779,0.448,0.947
	c0.358,0.17,0.781,0.061,1.019-0.254L98.704,2.208L133.5,49.474c0.165,0.221,0.429,0.354,0.685,0.334
	c0.473-0.05,0.84-0.363,0.84-0.826c0-0.15-0.041-0.293-0.111-0.414l-4.278-17.023l18.802,20.836c0.205,0.23,0.523,0.326,0.82,0.248
	s0.526-0.313,0.597-0.612l1.238-5.386l11.059,5.925c0.128,0.069,0.299,0.092,0.407,0.1c0.44,0.025,0.842-0.365,0.842-0.826
	c0-0.125-0.027-0.24-0.075-0.346l-2.059-13.566l18.071,6.908c0.057,0.021,0.114,0.025,0.173,0.033c0.039,0.006,0.078,0,0.116,0.001
	l12.791,10.14l1.278,1.019c0.354,0.282,0.871,0.225,1.151-0.136C196.13,55.526,196.07,55.009,195.714,54.728z M65.065,45.11
	l4.12-16.379c0.093-0.368-0.077-0.752-0.411-0.932c-0.332-0.177-0.748-0.103-1.002,0.176l-19.96,22.121l-1.126-4.892
	c-0.058-0.25-0.229-0.457-0.463-0.563c-0.23-0.107-0.503-0.101-0.729,0.022l-10.562,5.654l2.059-13.555
	c0.048-0.313-0.09-0.625-0.348-0.804c-0.261-0.178-0.6-0.192-0.873-0.043L9.518,50.626l28.086-22.188l12.049,5.487
	c0.293,0.136,0.64,0.084,0.885-0.127l19.069-16.562l6.706,5.198c0.321,0.251,0.78,0.227,1.076-0.058L92.371,8.026L65.065,45.11z
	 M175.99,41.396l-14.457-5.525c-0.276-0.108-0.585-0.057-0.813,0.127c-0.229,0.187-0.343,0.478-0.299,0.769l2.055,13.555
	l-10.557-5.654c-0.123-0.067-0.256-0.1-0.392-0.1c-0.116,0-0.233,0.024-0.342,0.076c-0.233,0.106-0.403,0.313-0.463,0.563
	l-1.125,4.892l-19.961-22.121c-0.254-0.281-0.667-0.353-1.001-0.176c-0.335,0.18-0.505,0.563-0.413,0.932l4.118,16.381
	L105.038,8.026l14.98,14.352c0.297,0.283,0.755,0.309,1.077,0.058l6.705-5.198l19.072,16.562c0.243,0.211,0.591,0.263,0.882,0.127
	l12.047-5.486h0.001L175.99,41.396z M154.866,39.909l-1.369-4.992h2.958l0.599-4.01l-8.811,4.53L154.866,39.909z M66.568,24.921
	v-4.008L52.341,36.149L66.568,24.921z M127.949,24.921l14.226,11.229l-14.226-15.236V24.921z" class="color c1"/>
</svg>