<svg version="1.1" id="图层_1" x="0px" y="0px" width="101.328px" height="108.025px" viewBox="0 0 101.328 108.025" enable-background="new 0 0 101.328 108.025" xml:space="preserve" xmlns="http://www.w3.org/2000/svg" xmlns:xlink="http://www.w3.org/1999/xlink" xmlns:xml="http://www.w3.org/XML/1998/namespace">
  <path fill="#00BB4B" d="M36.773,34.632l9.865-31.532l0.426,0.066c10.837,1.68,19.631,4.012,26.884,7.13l0.415,0.178L59.186,58.982
	L36.03,35.613l0.341-0.352C36.578,35.047,36.706,34.848,36.773,34.632z M0.001,3.887l0.002,1.218
	c0.028,17.057,0.226,34.757,1.463,48.649l0.048,0.534l41.8-6.688L0.001,3.887z M83.658,83.683l14.848-47.452l0.046-0.148
	l-0.046-0.149c-3.308-10.695-9.863-18.255-20.63-23.792l-0.528-0.271L61.785,61.605L83.658,83.683z M100.375,44.373l-0.318-2.165
	L86.578,85.281c-0.053,0.17-0.136,0.33-0.254,0.488l-0.256,0.346l13.766,13.893l0.028-1.174c0.155-6.48,0.462-12.625,0.758-18.57
	C101.304,66.546,101.894,54.7,100.375,44.373z M43.364,2.632l-0.588-0.078C31.278,1.028,17.932,0.201,1.973,0.024L0.755,0.011
	l33.007,33.313L43.364,2.632z M46.14,50.453L2.304,57.466l-0.471,0.076l0.053,0.473C3.162,69.546,5.219,78.001,8.36,84.621
	l0.204,0.432l0.44-0.184c0.095-0.039,0.193-0.074,0.298-0.096l58.705-12.25L46.14,50.453z M10.112,87.939l0.375,0.605
	c10.114,16.377,29.772,19.48,62.51,19.48c0.002,0,0.003,0,0.004,0c7.136,0,15.239-0.156,26.272-0.508l0.484-0.016v-0.484
	c0-0.643,0.004-1.279,0.009-1.914l0.003-0.523L70.745,75.285L10.112,87.939z" class="color c1"/>
  <path fill="#FFFFFF" d="M87.533,85.578l12.858-41.092l-0.017-0.113c-0.452-3.071-1.063-5.831-1.869-8.438l-0.475-1.537L83.199,81.8
	L62.92,61.33l15.205-48.594l0.125-0.402l-0.374-0.192c-1.234-0.635-2.557-1.256-3.928-1.845l-0.509-0.219L58.727,57.099
	l-21.322-21.52c0.146-0.208,0.253-0.422,0.323-0.648l9.91-31.676l-0.573-0.089c-1.392-0.216-2.826-0.418-4.288-0.613l-0.418-0.056
	L33.304,31.44L2.179,0.027L0,0l0.004,5.31l41.229,41.61L1.425,53.29l0.041,0.465c0.13,1.452,0.267,2.879,0.42,4.26l0.058,0.521
	l43.848-7.016l20.211,20.398L9.099,83.794c-0.168,0.035-0.328,0.088-0.48,0.152l-0.482,0.201l0.225,0.475
	c0.653,1.375,1.369,2.695,2.127,3.922l0.184,0.299l59.746-12.469L99.76,105.99l0.009-1.203c0.015-2.01,0.047-3.996,0.094-5.953
	l0.005-0.213L87.359,85.996C87.431,85.861,87.488,85.72,87.533,85.578z" class="color c2"/>
</svg>