<svg version="1.1" id="图层_1" x="0px" y="0px" width="180.791px" height="134.928px" viewBox="0 0 180.791 134.928" enable-background="new 0 0 180.791 134.928" xml:space="preserve" xmlns="http://www.w3.org/2000/svg" xmlns:xlink="http://www.w3.org/1999/xlink" xmlns:xml="http://www.w3.org/XML/1998/namespace">
  <path fill="#FFFFFF" d="M65.808,43.085c-4.339-9.762,1.809-21.334,12.655-23.504c-4.339-27.117,39.052-25.31,33.267,0.725
	c9.4,3.254,13.739,13.74,10.124,22.779c15.91,3.616,18.079,25.311,3.254,32.182c1.085,4.7-3.615,14.824-13.378,16.994
	c-7.955,1.446-14.464-2.17-17.718-7.231c-5.063,7.954-15.91,9.763-23.142,5.062c-8.316-5.062-7.955-14.463-7.955-14.824
	C47.367,68.396,49.898,46.701,65.808,43.085z M177.176,128.058H156.36h-7.389c-0.361-6.147-0.723-18.803-2.531-35.436
	c0.362-0.361,0.724-0.723,1.085-1.084c6.871,10.484,22.78,3.254,19.888-8.316c4.339-1.447,7.593-5.425,7.593-10.125
	c0-6.87-6.509-11.209-11.209-10.486c3.254-7.955-3.977-16.271-11.57-14.463c-3.255-8.316-12.656-11.57-19.887-7.594
	c12.293,9.04,14.463,29.288-0.362,39.413c-1.085,6.87-5.424,13.017-11.209,16.633c3.616-0.362,6.509-2.169,8.316-4.7
	c1.446,1.808,3.255,3.254,5.424,3.977c-0.361,11.209-1.446,24.227-5.063,32.182h-28.203c0-5.424-0.362-15.91-1.808-29.65
	c-1.809-0.723-3.616-1.808-5.424-2.893c-1.808,1.809-4.339,2.893-6.87,3.617c-0.724,10.485-1.809,21.693-5.063,28.926H52.791
	c-0.362-5.785-0.724-18.44-2.532-35.074c0.724-0.723,1.447-1.445,1.809-2.17c2.893,4.34,7.955,5.786,12.655,4.34
	c-4.7-3.615-7.954-9.04-9.039-15.187c-13.018-9.04-13.74-27.48-2.531-37.966c-2.531-2.531-5.785-3.979-9.763-3.979
	c-6.146,0-11.57,3.979-13.378,9.402c-8.317-2.531-16.271,5.785-12.656,14.102C12.654,60.44,6.146,65.142,6.146,72.012
	c0,4.7,3.254,8.679,7.594,10.124c-2.894,10.848,12.654,18.803,19.887,8.678c1.085,1.447,2.531,2.894,4.339,3.617
	c-0.361,11.209-1.446,24.949-5.063,33.265h-8.826H3.615c-2.17,0-3.615,1.447-3.615,3.616c0,1.809,1.808,3.616,3.615,3.616h28.413
	h116.734h28.413c1.808,0,3.615-1.808,3.615-3.616C180.791,129.504,178.983,127.695,177.176,128.058z" class="color c1"/>
</svg>