<svg version="1.1" id="图层_1" x="0px" y="0px" width="242.44px" height="144.805px" viewBox="0 0 242.44 144.805" enable-background="new 0 0 242.44 144.805" xml:space="preserve" xmlns="http://www.w3.org/2000/svg" xmlns:xlink="http://www.w3.org/1999/xlink" xmlns:xml="http://www.w3.org/XML/1998/namespace">
  <g>
    <path fill="#0C6C0A" d="M121.754,121.921c-0.588-0.671-1.504-1.561-2.667-2.555c-2.315-1.994-5.599-4.403-8.593-7.024
		c-1.503-1.302-2.902-2.683-4.02-4.04c-0.536-0.688-1.039-1.357-1.383-2.009c-0.367-0.646-0.619-1.261-0.749-1.799
		c-0.155-0.546-0.161-1.016-0.137-1.413c0.033-0.396,0.114-0.755,0.194-0.931c0.018-0.13,0.184-0.468,0.277-0.664
		c5.261,1.289,10.408,2.346,15.334,3.079c5.433,0.84,10.598,1.115,15.326,1.15c2.486,0.021,4.849-0.018,7.088-0.083l2.117-2.915
		c-2.903,0.159-6.029,0.299-9.361,0.328c-4.636,0.045-9.672-0.116-14.951-0.87l-14.935-2.851c-0.082-0.11-0.167-0.222-0.26-0.344
		c-0.159-0.253-0.338-0.537-0.532-0.846c-0.221-0.306-0.332-0.692-0.535-1.081c-0.107-0.201-0.121-0.389-0.191-0.594
		c-0.058-0.207-0.144-0.427-0.145-0.632c-0.014-0.211-0.057-0.435-0.055-0.659c0.018-0.224,0.038-0.453,0.056-0.679
		c0.108-0.459,0.235-0.947,0.471-1.424c0.223-0.476,0.498-0.954,0.813-1.419c0.304-0.462,0.648-0.919,0.971-1.361
		c0.663-0.889,1.304-1.714,1.787-2.481c0.254-0.368,0.455-0.733,0.631-1.052c0.19-0.312,0.333-0.595,0.43-0.844
		c0.216-0.472,0.337-0.743,0.337-0.743s-0.18,0.232-0.497,0.644c-0.146,0.208-0.349,0.444-0.6,0.699
		c-0.241,0.264-0.51,0.558-0.839,0.849c-0.621,0.609-1.425,1.252-2.275,1.967c-0.431,0.361-0.875,0.73-1.32,1.147
		c-0.103,0.091-0.201,0.196-0.302,0.293c0.056-0.581,0.116-1.166,0.188-1.752c0.328-2.727,0.88-5.487,0.964-7.633
		c0.038-0.532,0.015-1.029-0.001-1.463c-0.022-0.433-0.099-0.815-0.131-1.123c-0.149-0.608-0.237-0.956-0.237-0.956
		s0.019,0.35,0.047,0.959c-0.024,0.306-0.021,0.67-0.081,1.088c-0.066,0.41-0.136,0.871-0.271,1.365
		c-0.476,1.984-1.535,4.513-2.413,7.176c-0.172,0.516-0.332,1.034-0.49,1.553c0.003-0.103,0.002-0.2,0.006-0.304
		c0.042-1.708,0.17-3.548,0.249-5.425c0.025-0.941,0.055-1.889,0.034-2.828c-0.008-0.932-0.078-1.866-0.166-2.755
		c-0.055-0.445-0.11-0.881-0.162-1.313c-0.079-0.424-0.155-0.841-0.231-1.246c-0.131-0.811-0.379-1.56-0.542-2.252
		c-0.188-0.689-0.425-1.309-0.603-1.86c-0.166-0.554-0.386-1.019-0.533-1.403c-0.316-0.772-0.495-1.213-0.495-1.213
		s0.116,0.459,0.316,1.256c0.089,0.402,0.239,0.881,0.327,1.444c0.092,0.561,0.238,1.188,0.319,1.877
		c0.064,0.689,0.199,1.43,0.209,2.219c0.015,0.389,0.032,0.792,0.047,1.205c-0.01,0.407-0.021,0.825-0.03,1.25
		c-0.041,0.848-0.098,1.719-0.228,2.598c-0.104,0.881-0.268,1.77-0.427,2.661c-0.011,0.066-0.027,0.133-0.039,0.2
		c-0.095-0.727-0.206-1.454-0.353-2.178c-0.413-2.07-1.022-4.101-1.751-5.941c-0.365-0.919-0.743-1.797-1.147-2.606
		c-0.384-0.822-0.813-1.566-1.19-2.261c-0.412-0.677-0.761-1.308-1.127-1.836c-0.352-0.535-0.646-1.009-0.924-1.377
		c-0.537-0.75-0.844-1.175-0.844-1.175s0.266,0.453,0.727,1.24c0.24,0.392,0.484,0.89,0.786,1.448
		c0.307,0.555,0.588,1.21,0.932,1.909c0.302,0.715,0.652,1.476,0.945,2.311c0.317,0.825,0.604,1.706,0.869,2.625
		c0.527,1.832,0.914,3.82,1.108,5.805c0.206,1.989,0.186,3.971,0.042,5.805c-0.089,1.065-0.226,2.073-0.382,3.021
		c-0.019-0.414-0.04-0.838-0.057-1.272c-0.074-0.448-0.151-0.901-0.229-1.364c-0.079-0.457-0.158-0.926-0.241-1.397l-0.06-0.353
		c-0.042-0.192-0.063-0.244-0.096-0.372l-0.178-0.67c-0.219-0.883-0.533-1.834-0.832-2.766c-0.298-0.93-0.66-1.817-0.979-2.71
		c-0.371-0.874-0.718-1.74-1.083-2.562c-0.389-0.814-0.738-1.615-1.112-2.348c-0.383-0.731-0.744-1.422-1.08-2.061
		c-0.364-0.622-0.696-1.193-0.992-1.699c-0.279-0.509-0.594-0.92-0.813-1.276c-0.464-0.698-0.726-1.096-0.726-1.096
		s0.203,0.428,0.563,1.181c0.169,0.377,0.413,0.817,0.623,1.357c0.216,0.531,0.462,1.131,0.734,1.786
		c0.233,0.663,0.489,1.381,0.762,2.143c0.261,0.76,0.491,1.578,0.75,2.412c0.244,0.837,0.452,1.715,0.686,2.593
		c0.183,0.89,0.407,1.799,0.559,2.689c0.15,0.892,0.315,1.757,0.404,2.692l0.084,0.681c0.009,0.096,0.039,0.267,0.029,0.3
		l0.008,0.318c0.007,0.214,0.009,0.424,0.016,0.635c-0.07-0.381-0.141-0.766-0.213-1.162c-0.118-0.517-0.227-1.058-0.362-1.579
		c-0.534-2.083-1.287-4.22-2.128-6.3c-1.695-4.165-3.741-8.117-5.25-11.09c-1.523-2.965-2.539-4.941-2.539-4.941
		s0.774,2.068,1.937,5.171c1.146,3.103,2.702,7.247,3.852,11.422c0.577,2.087,1.041,4.179,1.298,6.12
		c0.05,0.47,0.099,0.934,0.148,1.386c0.029,0.487,0.058,0.962,0.085,1.422c0.006,0.704-0.023,1.436-0.076,2.09
		c-0.051-0.229-0.097-0.453-0.15-0.692c-0.193-0.879-0.402-1.83-0.625-2.836c-0.209-1.016-0.428-2.088-0.653-3.195
		c-0.228-1.118-0.462-2.281-0.738-3.462c-0.267-1.181-0.563-2.385-0.913-3.577c-0.331-1.192-0.714-2.38-1.138-3.529
		c-0.408-1.154-0.882-2.268-1.34-3.336c-0.495-1.06-0.964-2.08-1.478-3.02c-0.478-0.953-1-1.819-1.465-2.623
		c-0.453-0.808-0.941-1.512-1.337-2.154c-0.394-0.642-0.778-1.178-1.084-1.625c-0.615-0.89-0.967-1.398-0.967-1.398
		s0.294,0.539,0.812,1.486c0.257,0.473,0.579,1.04,0.902,1.716c0.32,0.671,0.729,1.41,1.089,2.249
		c0.371,0.84,0.792,1.734,1.16,2.712c0.401,0.96,0.749,2,1.114,3.067c0.331,1.076,0.671,2.187,0.941,3.333
		c0.283,1.137,0.529,2.301,0.721,3.473c0.211,1.169,0.366,2.346,0.501,3.506c0.139,1.163,0.245,2.311,0.346,3.432
		c0.105,1.129,0.207,2.225,0.304,3.26c0.023,0.219,0.045,0.424,0.068,0.64c-0.68-2.755-1.596-6.011-2.74-9.267
		c-0.737-1.982-1.494-3.825-2.214-5.626c-0.72-1.782-1.409-3.439-2.029-4.851c-0.619-1.411-1.167-2.575-1.602-3.373
		c-0.215-0.396-0.404-0.701-0.554-0.896c-0.15-0.194-0.261-0.267-0.261-0.267s0.101,0.084,0.222,0.292
		c0.123,0.205,0.267,0.526,0.431,0.938c0.324,0.829,0.721,2.035,1.153,3.494c0.433,1.458,0.904,3.168,1.389,5.006
		c0.471,1.819,1.029,3.832,1.452,5.74c0.574,2.817,0.99,5.681,1.275,8.163c-0.901-3.054-1.946-6.912-3.011-10.778
		c-1.202-4.316-2.416-8.639-3.569-11.824c-0.297-0.796-0.555-1.524-0.84-2.158c-0.255-0.641-0.525-1.18-0.767-1.618
		c-0.21-0.451-0.463-0.76-0.621-0.974c-0.157-0.217-0.242-0.332-0.242-0.332s0.075,0.125,0.213,0.349
		c0.134,0.23,0.357,0.547,0.522,1.012c0.201,0.45,0.418,1,0.611,1.652c0.228,0.64,0.415,1.384,0.639,2.188
		c0.85,3.229,1.665,7.596,2.463,11.969c0.018,0.111,0.038,0.221,0.059,0.33c-1.313-3.259-2.781-6.398-4.014-8.728
		c-0.649-1.228-1.239-2.232-1.7-2.908c-0.229-0.336-0.43-0.59-0.583-0.748c-0.153-0.163-0.265-0.207-0.259-0.212
		c-0.006,0.005,0.1,0.065,0.222,0.242c0.129,0.173,0.286,0.445,0.462,0.805c0.351,0.717,0.781,1.774,1.236,3.06
		c0.915,2.571,1.958,6.053,2.779,9.555c0.831,3.496,1.429,7.027,1.546,9.557c0.033,0.631,0.041,1.197,0.016,1.679
		c-0.01,0.478-0.064,0.898-0.104,1.169c-0.012,0.061-0.021,0.107-0.03,0.161c-0.02-0.185-0.041-0.396-0.067-0.641
		c-0.103-0.899-0.261-2.264-0.552-3.837c-0.126-0.79-0.341-1.648-0.538-2.549c-0.257-0.897-0.474-1.848-0.824-2.809
		c-0.302-0.968-0.701-1.941-1.103-2.924c-0.417-0.968-0.927-1.983-1.368-2.89c-0.493-0.961-0.843-1.841-1.22-2.806
		c-0.349-0.952-0.665-1.901-0.944-2.837c-0.557-1.865-0.997-3.644-1.472-5.154c-0.238-0.758-0.47-1.445-0.723-2.043
		c-0.238-0.601-0.495-1.111-0.723-1.513c-0.222-0.414-0.429-0.717-0.581-0.918c-0.142-0.199-0.219-0.31-0.219-0.31
		s0.064,0.116,0.188,0.331c0.131,0.214,0.302,0.531,0.48,0.953c0.186,0.417,0.385,0.939,0.555,1.544
		c0.188,0.604,0.344,1.299,0.501,2.059c0.313,1.52,0.564,3.312,0.936,5.246c0.178,0.968,0.401,1.97,0.663,2.985
		c0.27,0.991,0.599,2.1,0.978,3.055c0.378,1.03,0.744,1.934,1.061,2.903c0.297,0.954,0.588,1.891,0.786,2.818
		c0.243,0.913,0.361,1.82,0.528,2.667c0.103,0.854,0.23,1.657,0.282,2.407c0.083,0.931,0.123,1.734,0.148,2.438
		c-0.012-0.078-0.023-0.143-0.038-0.229c-0.132-0.789-0.341-1.93-0.615-3.243c-0.557-2.645-1.423-6.138-2.501-9.575
		c-0.29-0.856-0.545-1.718-0.854-2.551c-0.292-0.837-0.601-1.66-0.918-2.444c-0.622-1.577-1.296-3.016-1.928-4.222
		c-0.345-0.592-0.618-1.151-0.932-1.61c-0.312-0.456-0.555-0.873-0.805-1.184c-0.495-0.62-0.781-0.971-0.781-0.971
		s0.229,0.386,0.623,1.063c0.197,0.337,0.376,0.778,0.606,1.261c0.24,0.484,0.425,1.068,0.668,1.68
		c0.433,1.247,0.871,2.721,1.236,4.319c0.189,0.796,0.365,1.625,0.52,2.469c0.178,0.836,0.299,1.704,0.448,2.562
		c0.373,2.441,0.637,4.884,0.811,7.021c-0.211-0.585-0.426-1.192-0.638-1.84c-0.248-0.785-0.494-1.575-0.71-2.492
		c-0.45-1.793-1.01-3.669-1.598-5.535c-1.184-3.735-2.5-7.417-3.552-10.159c-0.522-1.372-0.982-2.506-1.326-3.292
		c-0.173-0.392-0.317-0.703-0.428-0.905c-0.056-0.101-0.101-0.176-0.146-0.217c-0.066-0.049-0.058,0.044-0.061,0.025
		c0.003,0.016,0.002-0.074,0.054-0.022c0.039,0.047,0.078,0.123,0.126,0.228c0.09,0.208,0.206,0.525,0.344,0.929
		c0.269,0.805,0.624,1.969,1.026,3.369c0.796,2.8,1.779,6.556,2.617,10.326c0.415,1.883,0.797,3.769,1.082,5.528
		c0.017,0.107,0.032,0.222,0.049,0.331c-0.137-0.352-0.28-0.708-0.431-1.067c-0.589-1.453-1.275-2.954-1.945-4.456
		c-0.666-1.5-1.342-2.991-1.889-4.409c-0.57-1.416-1-2.759-1.292-3.927c-0.1-0.584-0.256-1.132-0.284-1.608
		c-0.021-0.482-0.091-0.911-0.059-1.255c0.071-0.691,0.116-1.084,0.116-1.084s-0.097,0.386-0.255,1.064
		c-0.076,0.343-0.061,0.774-0.101,1.269c-0.035,0.498,0.051,1.054,0.08,1.67c0.147,1.218,0.418,2.641,0.814,4.13
		c0.375,1.498,0.867,3.066,1.346,4.634c0.478,1.563,0.971,3.121,1.362,4.569c0.208,0.723,0.371,1.417,0.522,2.074
		c0.168,0.663,0.233,1.27,0.345,1.833c0.016,0.161,0.03,0.313,0.042,0.468c-0.238-0.568-0.519-1.24-0.843-2.011
		c-0.932-2.295-2.131-5.374-3.21-8.492c-1.077-3.11-2.027-6.264-2.459-8.666c-0.221-1.202-0.292-2.216-0.201-2.905
		c0.04-0.345,0.132-0.605,0.215-0.766c0.099-0.157,0.154-0.238,0.154-0.238s-0.076,0.066-0.208,0.203
		c-0.124,0.146-0.283,0.395-0.403,0.741c-0.253,0.695-0.366,1.754-0.383,3.008c-0.069,2.525,0.437,5.838,0.985,9.13
		c0.061,0.378,0.135,0.754,0.213,1.128c-0.145-0.384-0.295-0.768-0.433-1.153c-0.24-0.694-0.481-1.409-0.697-2.13
		c-0.899-2.874-1.494-5.889-2.389-8.07c-0.217-0.543-0.461-1.03-0.698-1.443c-0.236-0.418-0.477-0.758-0.688-1.027
		c-0.191-0.281-0.399-0.464-0.514-0.603c-0.121-0.141-0.185-0.209-0.185-0.209s0.053,0.081,0.158,0.23
		c0.096,0.156,0.272,0.356,0.426,0.653c0.167,0.293,0.356,0.65,0.527,1.076c0.174,0.428,0.341,0.913,0.477,1.46
		c0.571,2.17,0.748,5.178,1.257,8.215c0.116,0.757,0.262,1.513,0.412,2.266c0.159,0.761,0.325,1.499,0.498,2.182
		c0.083,0.34,0.164,0.673,0.244,1.001c0.03,0.143,0.056,0.283,0.084,0.423c-0.613-1.93-1.296-4.322-1.965-6.725
		c-0.785-2.823-1.553-5.659-2.182-7.777c-0.323-1.05-0.598-1.933-0.832-2.539c-0.118-0.298-0.208-0.539-0.301-0.688
		c-0.087-0.152-0.132-0.234-0.132-0.234s0.036,0.085,0.104,0.247c0.079,0.153,0.139,0.396,0.221,0.707
		c0.165,0.617,0.341,1.513,0.539,2.586c0.374,2.157,0.875,5.03,1.375,7.907c0.504,2.876,1.026,5.756,1.526,7.936
		c0.076,0.319,0.147,0.615,0.215,0.901c-0.064-0.123-0.141-0.264-0.206-0.422c-0.081-0.217-0.182-0.484-0.297-0.786
		c-0.106-0.358-0.247-0.749-0.366-1.193c-0.509-1.783-1.042-4.248-1.566-6.712c-0.521-2.465-1.042-4.944-1.547-6.783
		c-0.246-0.919-0.499-1.679-0.729-2.192c-0.092-0.267-0.229-0.452-0.306-0.577c-0.079-0.128-0.123-0.199-0.123-0.199
		s0.036,0.075,0.102,0.209c0.063,0.134,0.175,0.321,0.24,0.591c0.17,0.525,0.342,1.292,0.483,2.221
		c0.304,1.854,0.554,4.34,0.808,6.835c0.098,0.959,0.198,1.919,0.302,2.846c-0.359-1.885-0.721-4.178-1.17-6.467
		c-0.283-1.449-0.6-2.896-0.971-4.24c-0.368-1.347-0.769-2.591-1.203-3.627c-0.197-0.524-0.423-0.986-0.628-1.397
		c-0.19-0.412-0.371-0.765-0.55-1.04c-0.339-0.56-0.53-0.879-0.53-0.879s0.147,0.34,0.403,0.934c0.14,0.29,0.27,0.659,0.4,1.084
		c0.144,0.423,0.304,0.896,0.418,1.431c0.284,1.051,0.504,2.298,0.676,3.634c0.176,1.337,0.288,2.771,0.37,4.206
		c0.155,2.875,0.168,5.751,0.347,8.007c0.025,0.384,0.066,0.754,0.107,1.106c-0.049-0.036-0.099-0.07-0.148-0.105
		c-0.023-0.269-0.051-0.589-0.082-0.955c-0.019-0.374-0.039-0.797-0.059-1.259c-0.055-0.962-0.116-2.086-0.182-3.292
		c-0.087-1.226-0.237-2.549-0.454-3.845c-0.41-2.602-1.142-5.161-1.872-7.01c-0.362-0.927-0.732-1.671-0.99-2.193
		c-0.278-0.504-0.439-0.798-0.439-0.798s0.116,0.308,0.319,0.846c0.177,0.542,0.433,1.317,0.654,2.263
		c0.479,1.879,0.845,4.428,0.996,6.961c0.063,1.122,0.092,2.226,0.048,3.281c-0.062-0.278-0.123-0.551-0.187-0.843
		c-0.226-1.025-0.467-2.117-0.708-3.217c-0.118-0.542-0.234-1.091-0.413-1.635c-0.159-0.538-0.317-1.068-0.472-1.582
		c-0.299-1.027-0.59-1.974-0.898-2.771c-0.559-1.6-0.997-2.643-0.997-2.643s0.278,1.09,0.587,2.736
		c0.185,0.816,0.33,1.777,0.465,2.799c0.074,0.508,0.148,1.035,0.225,1.57c0.091,0.528,0.125,1.083,0.157,1.638
		c0.001,0.032,0.004,0.065,0.006,0.096c-0.199-0.931-0.433-1.881-0.696-2.83c-0.626-2.271-1.417-4.472-2.043-6.17
		c-0.237-1.243-0.484-2.402-0.719-3.386c-0.234-0.963-0.441-1.765-0.621-2.319c-0.172-0.553-0.298-0.862-0.298-0.862
		s0.096,0.317,0.215,0.881c0.127,0.559,0.256,1.372,0.402,2.342c0.015,0.104,0.028,0.218,0.043,0.325
		c-0.004,0.016-0.009,0.022-0.011,0.04c-0.035,0.142-0.037,0.353-0.03,0.623c0.021,0.541,0.108,1.307,0.26,2.211
		c0.072,0.451,0.154,0.938,0.243,1.449c0.067,0.817,0.125,1.654,0.17,2.491c0.063,1.297,0.104,2.589,0.101,3.793
		c-0.012,0.6-0.017,1.191-0.05,1.718c-0.019,0.521-0.075,1.076-0.117,1.525c-0.068,0.547-0.083,0.992-0.121,1.365
		c-0.02,0.205-0.042,0.379-0.07,0.531c-0.129-0.115-0.258-0.23-0.385-0.349c0.022-0.1,0.049-0.223,0.075-0.385
		c0.116-0.592,0.189-1.333,0.228-2.252c0.031-0.909,0.016-1.959-0.039-3.071c-0.034-0.552-0.069-1.126-0.102-1.703
		c-0.037-0.589-0.083-1.146-0.078-1.717c-0.018-1.227-0.166-2.406-0.359-3.519c-0.198-1.106-0.458-2.127-0.744-2.985
		c-0.287-0.861-0.589-1.551-0.841-2.018c-0.249-0.464-0.414-0.718-0.414-0.718s0.132,0.27,0.328,0.752
		c0.193,0.485,0.412,1.191,0.597,2.052c0.181,0.861,0.317,1.875,0.384,2.961c0.061,1.076,0.065,2.247-0.05,3.353
		c-0.074,0.589-0.096,1.208-0.124,1.769c-0.032,0.571-0.064,1.133-0.094,1.676c-0.069,1.079-0.17,2.069-0.3,2.897
		c-0.073,0.477-0.157,0.904-0.239,1.261c-0.057-0.052-0.11-0.105-0.166-0.158c0.045-0.115,0.109-0.264,0.182-0.55
		c0.086-0.291,0.181-0.66,0.224-0.992c0.065-0.35,0.124-0.746,0.163-1.173c0.1-0.853,0.137-1.845,0.124-2.918
		c-0.001-0.534-0.057-1.09-0.083-1.648c-0.08-0.564-0.134-1.136-0.242-1.701c-0.831-4.387-1.659-8.78-1.659-8.78
		s0.291,4.43,0.579,8.855c0.035,0.537,0.016,1.072,0.029,1.596c-0.04,0.524-0.049,1.039-0.109,1.535
		c-0.045,0.403-0.1,0.79-0.156,1.164c-0.175-0.813-0.428-1.685-0.707-2.595c-0.146-0.485-0.299-0.982-0.449-1.492
		c-0.144-0.474-0.265-1.038-0.379-1.536c-0.462-2.078-0.774-4.201-0.868-5.791c-0.044-0.795-0.032-1.457,0.02-1.913
		c0.051-0.459,0.139-0.709,0.139-0.709s-0.13,0.229-0.267,0.677c-0.132,0.448-0.262,1.104-0.356,1.906
		c-0.188,1.602-0.248,3.759-0.148,5.937c0.034,0.549,0.067,1.095,0.1,1.635c0.048,0.532,0.091,1.06,0.136,1.569
		c0.088,0.997,0.156,1.908,0.147,2.639c-0.003,0.218-0.014,0.412-0.026,0.593c-0.108-0.118-0.216-0.236-0.325-0.353h0.043
		c0,0-0.018-0.243-0.051-0.667c-0.038-0.431-0.071-1.028-0.172-1.787c-0.161-1.515-0.457-3.434-0.732-5.376
		c-0.258-1.936-0.522-3.875-0.585-5.323c-0.018-0.361-0.059-0.7-0.049-0.992c0.004-0.294,0.01-0.55,0.014-0.762
		c0.006-0.426,0.009-0.667,0.009-0.667s-0.039,0.234-0.104,0.652c-0.036,0.21-0.074,0.465-0.121,0.755
		c-0.051,0.295-0.056,0.627-0.091,0.99c-0.144,1.455-0.146,3.41-0.157,5.359c0.001,1.941,0.031,3.91-0.019,5.309
		c0,0.062-0.002,0.118-0.003,0.178c-0.402-0.48-0.794-0.965-1.18-1.452c0.001-0.076,0.003-0.327,0.007-0.731
		c-0.007-0.496,0.027-1.168-0.039-2.057c-0.025-0.436-0.052-0.905-0.081-1.404c-0.053-0.488-0.106-1.002-0.164-1.534
		c-0.1-1.062-0.302-2.182-0.469-3.305c-0.204-1.118-0.396-2.232-0.624-3.271c-0.207-1.042-0.434-2.005-0.624-2.834
		c-0.401-1.652-0.671-2.751-0.671-2.751s0.137,1.115,0.334,2.788c0.092,0.835,0.2,1.812,0.28,2.854
		c0.103,1.043,0.156,2.155,0.222,3.266c0.032,1.11,0.096,2.22,0.064,3.248c-0.007,0.512-0.014,1.01-0.02,1.486
		c-0.03,0.457-0.058,0.89-0.085,1.29c-0.004,0.159-0.018,0.31-0.029,0.458c-0.118-0.166-0.238-0.33-0.356-0.496l0,0
		c0,0-0.032-0.365-0.084-1.002c-0.027-0.318-0.058-0.705-0.096-1.149c-0.029-0.441-0.094-0.953-0.108-1.484
		c-0.025-1.074-0.084-2.301-0.094-3.681c-0.018-0.69-0.007-1.384-0.052-2.117c-0.041-0.731-0.066-1.469-0.126-2.208
		c-0.106-0.745-0.21-1.488-0.317-2.218c-0.132-0.724-0.38-1.424-0.555-2.105c-0.109-0.333-0.165-0.678-0.308-0.99
		c-0.139-0.312-0.275-0.617-0.407-0.913c-0.261-0.589-0.508-1.148-0.738-1.662c-0.563-0.98-1.071-1.772-1.405-2.336
		c-0.343-0.561-0.539-0.877-0.539-0.877s0.169,0.334,0.457,0.918c0.286,0.588,0.712,1.417,1.179,2.418
		c0.18,0.522,0.371,1.088,0.573,1.686c0.105,0.295,0.208,0.604,0.314,0.913c0.109,0.309,0.133,0.652,0.208,0.977
		c0.108,0.671,0.285,1.349,0.346,2.051c0.036,0.699,0.069,1.412,0.105,2.123c-0.008,0.716-0.052,1.434-0.078,2.135
		c-0.023,0.697-0.101,1.404-0.145,2.077c-0.115,1.336-0.177,2.652-0.251,3.757c-0.011,0.178-0.011,0.337-0.015,0.503
		c-0.101-0.159-0.196-0.319-0.294-0.478c0.023-0.118,0.054-0.283,0.091-0.492c0.045-0.217,0.094-0.482,0.152-0.789
		c0.034-0.323,0.074-0.685,0.12-1.082c0.076-0.792,0.091-1.712,0.028-2.701c-0.069-0.986-0.231-2.035-0.432-3.056
		c-0.167-1.008-0.378-2.071-0.749-3.01c-0.364-0.938-0.832-1.76-1.288-2.417c-0.143-0.207-0.281-0.395-0.415-0.575
		c-0.119-0.387-0.243-0.771-0.367-1.157c-0.717-2.095-1.578-4.104-2.351-5.855c-0.075-0.342-0.147-0.679-0.261-0.997
		c-0.354-1.016-0.628-1.974-0.967-2.764c-0.479-1.205-0.836-2.103-0.979-2.467c0.024-0.553,0.023-1.109-0.012-1.66
		c-0.043-0.415-0.089-0.826-0.135-1.232c-0.051-0.402-0.07-0.792-0.151-1.181c-0.009-0.051-0.018-0.1-0.027-0.151
		c0.006-0.028,0.011-0.058,0.017-0.087c0.271-1.765,0.281-3.502,0.184-4.816c-0.041-0.654-0.124-1.196-0.188-1.574
		c-0.069-0.378-0.111-0.592-0.111-0.592s0.009,0.216,0.022,0.594c0.011,0.378,0.008,0.916-0.048,1.553
		c-0.055,0.73-0.181,1.611-0.365,2.52c-0.096-0.4-0.177-0.739-0.284-0.991c-0.123-0.341-0.19-0.538-0.19-0.538
		s0.046,0.201,0.124,0.555c0.101,0.345,0.136,0.856,0.212,1.462c0.004,0.034,0.006,0.069,0.011,0.102
		c-0.11,0.476-0.233,0.95-0.38,1.414c-0.145,0.395-0.275,0.821-0.42,1.182c-0.07,0.181-0.137,0.356-0.206,0.533
		c-0.125-0.109-0.194-0.171-0.194-0.171s0.066,0.069,0.185,0.196c-0.075,0.193-0.151,0.394-0.224,0.583
		c-0.279,0.726-0.594,1.287-0.935,1.746c-0.046,0.064-0.091,0.119-0.137,0.179c-0.083-0.381-0.165-0.759-0.242-1.128
		c0.045-0.055,0.127-0.151,0.245-0.292c0.088-0.117,0.204-0.224,0.326-0.412c0.12-0.184,0.25-0.396,0.396-0.625
		c0.25-0.466,0.479-1.024,0.649-1.648c0.059-0.317,0.147-0.639,0.18-0.975c0.038-0.336,0.079-0.674,0.075-1.02
		c0.042-1.367-0.227-2.715-0.498-3.697c-0.275-0.984-0.581-1.603-0.581-1.603s0.242,0.64,0.412,1.631
		c0.174,0.985,0.296,2.321,0.123,3.602c-0.029,0.321-0.099,0.633-0.165,0.937c-0.062,0.308-0.179,0.593-0.258,0.873
		c-0.213,0.546-0.474,1.019-0.727,1.392c-0.134,0.171-0.256,0.327-0.365,0.466c-0.021,0.027-0.046,0.048-0.069,0.074
		c-0.027-0.143-0.052-0.281-0.078-0.422c0.042-0.223,0.139-0.754,0.271-1.463c0.109-0.451,0.221-0.965,0.383-1.543
		c0.078-0.289,0.161-0.59,0.244-0.896c0.072-0.317,0.176-0.622,0.223-0.957c0.043-0.335,0.124-0.659,0.131-0.991
		c0.01-0.327,0.021-0.651,0.029-0.963c-0.05-0.621-0.074-1.196-0.146-1.684c-0.063-0.389-0.113-0.707-0.155-0.972
		c0.051-0.091,0.103-0.185,0.153-0.275c0.231-0.423,0.45-0.823,0.575-1.196c0.133-0.369,0.207-0.695,0.205-0.926
		c0.005-0.227,0.01-0.359,0.01-0.359s-0.02,0.127-0.058,0.352c-0.025,0.222-0.14,0.525-0.313,0.856
		c-0.155,0.316-0.398,0.65-0.659,1.004c-0.009-0.061-0.017-0.102-0.017-0.102s0,0.043,0.001,0.124
		c-0.013,0.017-0.024,0.032-0.037,0.051c-0.281,0.375-0.61,0.792-0.889,1.234c-0.133,0.202-0.273,0.445-0.382,0.703
		c-0.11,0.247-0.188,0.502-0.259,0.737c-0.075,0.259-0.143,0.494-0.209,0.71c0-0.007-0.001-0.013-0.002-0.02
		c-0.024-0.257-0.043-0.505-0.063-0.753c0.123-0.143,0.278-0.351,0.447-0.619c0.405-0.645,0.75-1.585,0.839-2.558
		c0.097-0.971,0.011-1.938-0.134-2.647c-0.082-0.434-0.176-0.754-0.241-0.951c0.003-0.13,0.007-0.261,0.009-0.392
		c0.001-1.213-0.013-2.411,0.142-3.292c0.065-0.441,0.179-0.792,0.255-1.04c0.093-0.243,0.148-0.38,0.148-0.38
		s-0.067,0.133-0.182,0.366c-0.102,0.238-0.249,0.582-0.358,1.021c-0.236,0.873-0.334,2.088-0.443,3.278
		c-0.057,0.599-0.128,1.175-0.233,1.719c-0.082,0.254-0.128,0.512-0.229,0.727c-0.05,0.141-0.108,0.263-0.169,0.383
		c0.004-0.395,0.013-0.758,0.023-1.081c0.001-0.038,0.003-0.072,0.002-0.104c0.022-0.406,0.042-0.834,0.07-1.274
		c0.008-0.089,0.016-0.177,0.021-0.249c0.004-0.071,0.01-0.13,0.014-0.188c0.084-0.845,0.258-1.727,0.321-2.089
		c0.273-1.388,0.735-2.763,1.475-3.527c0.361-0.386,0.733-0.642,1.029-0.745c0.303-0.106,0.495-0.062,0.495-0.062
		s-0.191-0.063-0.511,0.01c-0.317,0.076-0.731,0.3-1.146,0.661c-0.423,0.355-0.833,0.864-1.176,1.46
		c-0.268,0.433-0.479,0.922-0.666,1.429c-0.049-0.157-0.095-0.325-0.138-0.502c-0.084-0.354-0.15-0.732-0.182-1.112
		c-0.021-0.376-0.027-0.757,0.039-1.102c0.052-0.35,0.158-0.661,0.3-0.901c0.139-0.245,0.302-0.418,0.447-0.503
		c0.145-0.09,0.253-0.086,0.253-0.086s-0.107-0.014-0.268,0.06c-0.161,0.076-0.354,0.237-0.522,0.469
		c-0.356,0.465-0.602,1.232-0.653,2.028c-0.022,0.399-0.014,0.803,0.024,1.18c0.039,0.376,0.092,0.729,0.163,1.036
		c0.054,0.313,0.128,0.539,0.145,0.719c0.001,0.015,0,0.023,0.001,0.038c-0.017,0.075-0.04,0.151-0.057,0.227
		c-0.301-0.708-0.717-1.438-1.142-2.145c-0.656-1.061-1.312-2.106-1.663-2.958c-0.185-0.424-0.282-0.792-0.352-1.053
		c-0.057-0.259-0.086-0.408-0.086-0.408s0.017,0.152,0.049,0.417c0.047,0.262,0.112,0.641,0.262,1.083
		c0.278,0.89,0.857,2.009,1.409,3.108c0.278,0.556,0.53,1.098,0.739,1.632c0.069,0.266,0.172,0.517,0.206,0.759
		c0.055,0.239,0.077,0.464,0.09,0.669c0.002,0.099-0.005,0.175-0.006,0.263c-0.106-0.104-0.216-0.212-0.337-0.329
		c-0.327-0.374-0.751-0.774-1.137-1.275c-0.404-0.505-0.789-1.039-1.162-1.603c-0.362-0.563-0.687-1.146-0.895-1.726
		c-0.213-0.576-0.279-1.15-0.208-1.625c0.065-0.479,0.208-0.862,0.313-1.123C11.987,0.146,12.049,0,12.049,0
		s-0.076,0.141-0.21,0.392c-0.129,0.252-0.312,0.622-0.426,1.11c-0.12,0.485-0.103,1.105,0.066,1.731
		c0.164,0.626,0.454,1.262,0.772,1.876c0.329,0.601,0.692,1.209,1.044,1.734c0.351,0.543,0.729,1.039,1.033,1.472
		c0.465,0.583,0.815,1.021,0.974,1.22c-0.001,0-0.003-0.001-0.003-0.001c-0.155-0.083-0.331-0.173-0.523-0.272
		c-0.391-0.239-0.838-0.568-1.281-0.979c-0.201-0.222-0.438-0.432-0.635-0.685c-0.202-0.25-0.411-0.503-0.589-0.785
		c-0.756-1.091-1.272-2.348-1.583-3.306c-0.312-0.962-0.395-1.632-0.395-1.632s-0.02,0.669,0.147,1.676
		c0.166,1.003,0.494,2.353,1.127,3.631c0.146,0.326,0.331,0.631,0.514,0.938c0.176,0.311,0.401,0.586,0.599,0.869
		c0.436,0.541,0.902,1.003,1.348,1.371c0.247,0.177,0.472,0.335,0.673,0.477c0.203,0.143,0.35,0.202,0.485,0.285
		c0.072,0.04,0.134,0.074,0.188,0.104c-0.001,0.077-0.002,0.155-0.003,0.233c-0.027,0-0.048,0-0.078-0.002
		c-0.147-0.007-0.332-0.013-0.54-0.019c-0.194-0.015-0.38-0.058-0.604-0.089c-0.223-0.016-0.467-0.088-0.728-0.165
		c-0.267-0.06-0.53-0.17-0.801-0.295c-0.551-0.23-1.091-0.597-1.584-1.031c-0.995-0.877-1.692-2.088-2.116-3.023
		c-0.21-0.47-0.37-0.871-0.481-1.155C8.322,5.399,8.258,5.24,8.258,5.24s0.041,0.166,0.116,0.458
		c0.071,0.289,0.167,0.708,0.312,1.209c0.289,0.996,0.808,2.343,1.776,3.487c0.482,0.566,1.052,1.082,1.667,1.452
		c0.301,0.195,0.601,0.372,0.904,0.491c0.299,0.137,0.583,0.262,0.873,0.336c0.282,0.082,0.553,0.169,0.773,0.222
		c0.208,0.037,0.387,0.069,0.536,0.098c0.031,0.005,0.056,0.009,0.083,0.015c-0.151,0.001-0.317,0.003-0.467-0.022
		c-0.218-0.034-0.458-0.019-0.73-0.094c-0.551-0.098-1.176-0.314-1.825-0.65c-0.64-0.356-1.301-0.833-1.946-1.357
		c-0.311-0.277-0.623-0.55-0.929-0.824C9.096,9.781,8.77,9.521,8.507,9.238C7.97,8.679,7.423,8.184,7.021,7.701
		C6.614,7.225,6.243,6.845,6.051,6.537C5.835,6.238,5.714,6.068,5.714,6.068s0.1,0.182,0.277,0.502
		c0.162,0.337,0.481,0.754,0.835,1.28c0.343,0.534,0.834,1.091,1.32,1.732c0.24,0.324,0.524,0.609,0.796,0.926
		c0.281,0.312,0.565,0.632,0.852,0.95c0.593,0.615,1.238,1.211,1.926,1.707c0.703,0.478,1.44,0.84,2.101,1.042
		c0.139,0.055,0.281,0.088,0.419,0.121c-0.052,0-0.102,0.006-0.154,0.006c-0.609,0.014-1.332-0.05-2.109-0.228
		c-0.775-0.181-1.604-0.487-2.399-0.911c-0.792-0.425-1.546-0.962-2.205-1.543c-0.634-0.632-1.249-1.223-1.826-1.666
		C4.972,9.54,4.438,9.232,4.031,9.111C3.833,9.045,3.666,9.024,3.559,9.02c-0.11,0.002-0.167,0.001-0.167,0.001
		s0.058,0.007,0.166,0.021C3.665,9.059,3.821,9.1,4.005,9.189C4.38,9.354,4.853,9.71,5.35,10.209c0.5,0.497,1.023,1.128,1.559,1.837
		c0.521,0.758,1.174,1.519,1.93,2.208c0.754,0.684,1.617,1.277,2.496,1.731c0.88,0.453,1.77,0.771,2.554,0.96
		c0.396,0.087,0.747,0.165,1.092,0.208c0.239,0.027,0.484,0.058,0.676,0.076c0.001,0.02,0.004,0.042,0.007,0.063
		c-0.074,0.013-0.157,0.026-0.253,0.041c-0.199,0.043-0.357,0.041-0.567,0.061c-0.198,0.026-0.459,0.024-0.747,0.012
		c-0.571-0.008-1.255-0.104-1.991-0.265c-0.738-0.165-1.517-0.426-2.288-0.732c-0.762-0.328-1.521-0.691-2.191-1.109
		c-0.677-0.41-1.283-0.845-1.77-1.253c-0.495-0.41-0.872-0.791-1.124-1.069c-0.247-0.284-0.39-0.448-0.39-0.448
		s0.114,0.182,0.317,0.503c0.207,0.315,0.527,0.756,0.962,1.246c0.434,0.492,0.985,1.034,1.623,1.563
		c0.63,0.542,1.364,1.045,2.12,1.52c0.769,0.454,1.571,0.867,2.362,1.181c0.049,0.018,0.099,0.035,0.147,0.054
		c-0.375-0.06-0.758-0.093-1.112-0.104c-0.768-0.042-1.543-0.026-2.246-0.025c-0.708,0-1.368-0.008-1.932-0.078
		c-0.284-0.017-0.538-0.076-0.767-0.12c-0.229-0.035-0.424-0.092-0.583-0.146c-0.322-0.104-0.506-0.164-0.506-0.164
		s0.178,0.074,0.492,0.205c0.156,0.072,0.348,0.144,0.578,0.199c0.229,0.064,0.484,0.147,0.77,0.191
		c0.569,0.12,1.24,0.192,1.955,0.252c0.72,0.059,1.465,0.113,2.212,0.219c0.392,0.049,0.75,0.11,1.097,0.201
		c0.354,0.085,0.702,0.197,1.042,0.306c0.673,0.227,1.329,0.451,1.907,0.609c0.306,0.06,0.559,0.141,0.837,0.166
		c0.025,0.003,0.051,0.004,0.077,0.008c-0.12,0.025-0.246,0.052-0.387,0.082c-0.242,0.063-0.452,0.081-0.693,0.107
		c-0.242,0.029-0.507,0.061-0.787,0.094c-0.298,0.016-0.627,0.009-0.964,0.017c-0.341,0.013-0.696,0.009-1.057-0.026
		c-0.364-0.027-0.736-0.055-1.106-0.082C9.96,20.4,9.203,20.316,8.509,20.149c-0.707-0.131-1.354-0.315-1.913-0.474
		c-0.568-0.14-1.015-0.33-1.341-0.435c-0.326-0.11-0.509-0.175-0.509-0.175s0.163,0.108,0.45,0.3
		c0.292,0.182,0.694,0.488,1.219,0.771c0.515,0.299,1.123,0.654,1.805,0.976c0.669,0.354,1.42,0.643,2.173,0.96
		c0.378,0.146,0.768,0.269,1.152,0.398c0.063,0.023,0.127,0.042,0.191,0.062c-0.652,0.048-1.312,0.091-1.978,0.114
		c-0.943,0.036-1.879,0.025-2.752-0.088c-0.87-0.109-1.674-0.329-2.336-0.611C4,21.677,3.486,21.342,3.131,21.106
		c-0.346-0.257-0.543-0.405-0.543-0.405s0.176,0.173,0.485,0.477c0.322,0.289,0.797,0.699,1.451,1.081
		c0.644,0.388,1.467,0.746,2.379,0.993c0.909,0.254,1.896,0.41,2.878,0.516c0.79,0.088,1.564,0.147,2.312,0.2
		c-0.975,0.068-2.019,0.098-3.07,0.067c-0.533-0.03-1.073-0.041-1.599-0.103c-0.529-0.048-1.045-0.117-1.545-0.206
		c-1.004-0.163-1.932-0.408-2.705-0.692c-0.381-0.153-0.747-0.278-1.043-0.439c-0.3-0.157-0.581-0.271-0.78-0.415
		c-0.419-0.266-0.657-0.42-0.657-0.42s0.198,0.206,0.549,0.563c0.167,0.195,0.414,0.371,0.686,0.604
		c0.268,0.24,0.604,0.448,0.964,0.703c0.734,0.485,1.644,0.972,2.658,1.399c0.505,0.221,1.036,0.424,1.583,0.611
		c0.544,0.198,1.107,0.352,1.669,0.522c2.26,0.619,4.58,0.985,6.342,1.126c0.367,0.029,0.701,0.055,1.019,0.07
		c-0.166,0.044-0.341,0.088-0.528,0.128c-0.707,0.156-1.505,0.179-2.447,0.002c-0.944-0.166-2.009-0.321-3.028-0.382
		c-2.047-0.14-4.075-0.427-5.576-0.821c-0.748-0.201-1.361-0.416-1.783-0.587c-0.414-0.193-0.651-0.3-0.651-0.3
		S2.38,25.52,2.784,25.74c0.409,0.201,1.015,0.456,1.757,0.71c1.486,0.494,3.542,0.923,5.586,1.202
		c1.028,0.128,1.997,0.335,2.953,0.568c0.48,0.109,0.972,0.202,1.444,0.229c0.477,0.031,0.917-0.019,1.317-0.063
		c0.313-0.046,0.591-0.101,0.851-0.159c-0.165,0.065-0.339,0.13-0.544,0.196c-0.551,0.183-1.201,0.312-1.996,0.354
		c-0.407,0.024-0.823,0.046-1.249,0.07c-0.397,0.031-0.856,0.026-1.284,0.042c-1.675,0-3.43-0.24-4.707-0.527
		c-0.642-0.133-1.173-0.292-1.538-0.413c-0.369-0.125-0.579-0.196-0.579-0.196s0.2,0.1,0.548,0.278
		c0.351,0.174,0.862,0.407,1.493,0.639c1.266,0.479,2.972,0.983,4.789,1.252c0.445,0.052,0.885,0.104,1.319,0.158
		c0.433,0.045,0.859,0.089,1.274,0.133c0.422,0.042,0.845,0.061,1.258,0.06c0.376-0.012,0.737-0.032,1.067-0.082
		c-0.266,0.104-0.548,0.208-0.856,0.315c-0.379,0.109-0.793,0.232-1.239,0.297c-0.452,0.068-0.935,0.125-1.461,0.116
		c-1.04,0.018-2.214-0.089-3.354-0.263c-2.303-0.338-4.585-0.99-6.3-1.484c-0.859-0.241-1.585-0.432-2.106-0.486
		c-0.525-0.073-0.795,0.07-0.795,0.07s0.281-0.11,0.79,0.012c0.499,0.103,1.196,0.365,2.027,0.69c1.658,0.662,3.9,1.552,6.24,2.143
		c1.178,0.289,2.343,0.546,3.5,0.689c0.572,0.085,1.152,0.098,1.696,0.087c0.55-0.011,1.056-0.084,1.524-0.157
		c0.911-0.178,1.625-0.37,2.115-0.497c0.129-0.033,0.243-0.062,0.34-0.089c-0.083,0.043-0.18,0.093-0.297,0.153
		c-0.214,0.114-0.38,0.18-0.563,0.264c-0.101,0.045-0.206,0.093-0.315,0.143c-0.132,0.042-0.274,0.09-0.42,0.135
		c-1.17,0.406-2.977,0.621-4.886,0.571c-1.907-0.057-3.875-0.316-5.352-0.535c-1.479-0.221-2.467-0.366-2.467-0.366
		s0.925,0.406,2.313,1.012c1.392,0.605,3.269,1.396,5.267,2.012c1.001,0.292,2.034,0.55,3.039,0.708
		c0.682,0.1,1.349,0.168,1.973,0.191c-0.633,0.105-1.313,0.212-2.019,0.292c-0.523,0.051-0.986,0.08-1.576,0.103
		c-0.492-0.01-1.021-0.026-1.544-0.14c-1.048-0.185-2.064-0.695-3.021-1.227c-0.96-0.539-1.865-1.067-2.659-1.474
		c-0.796-0.406-1.47-0.715-1.948-0.913c-0.476-0.197-0.75-0.31-0.75-0.31s0.256,0.148,0.704,0.409
		c0.444,0.262,1.068,0.656,1.793,1.16c0.727,0.505,1.535,1.136,2.429,1.811c0.892,0.667,1.937,1.395,3.166,1.8
		c0.603,0.22,1.233,0.336,1.875,0.431c0.299,0.026,0.534,0.063,0.878,0.08c0.297-0.004,0.589-0.005,0.876-0.008
		c1.125-0.041,2.129-0.149,2.987-0.225c0.426-0.035,0.815-0.072,1.16-0.099c0.326-0.025,0.612-0.042,0.848-0.058
		c0.17-0.008,0.31-0.012,0.43-0.016c0.047,0.137,0.093,0.272,0.14,0.408c-0.49,0.024-1.192,0.058-2.04,0.1
		c-0.417,0.008-0.897,0.077-1.385,0.124c-0.492,0.054-1.02,0.101-1.542,0.17c-0.517,0.072-1.056,0.148-1.601,0.224
		c-0.526,0.042-1.074,0.154-1.604,0.14c-0.532-0.022-1.071,0.032-1.605-0.091c-0.533-0.098-1.067-0.133-1.58-0.278
		c-1.021-0.281-1.992-0.485-2.804-0.771c-1.633-0.524-2.725-0.871-2.725-0.871s1.049,0.475,2.625,1.182
		c0.779,0.383,1.737,0.705,2.747,1.114c0.504,0.207,1.068,0.317,1.624,0.485c0.554,0.192,1.152,0.215,1.746,0.305
		c0.595,0.085,1.167,0.036,1.743,0.059c0.555-0.011,1.102-0.023,1.628-0.031c0.522-0.009,1.016,0.013,1.488,0.014
		c0.474,0.014,0.905-0.001,1.333,0.042c1.265,0.09,2.218,0.155,2.617,0.182c-0.108,0.048-0.233,0.104-0.387,0.173
		c-0.263,0.126-0.461,0.18-0.711,0.273c-0.234,0.102-0.565,0.188-0.948,0.274c-0.743,0.19-1.678,0.303-2.714,0.335
		c-0.519,0.013-1.065,0.013-1.625-0.023c-0.56-0.016-1.133-0.094-1.712-0.151c-2.313-0.294-4.657-0.888-6.394-1.418
		c-1.742-0.529-2.894-0.95-2.894-0.95s1.037,0.661,2.657,1.565c1.618,0.907,3.839,2.029,6.23,2.892
		c0.599,0.201,1.201,0.421,1.813,0.58c0.605,0.176,1.219,0.315,1.82,0.438c0.375,0.071,0.744,0.13,1.109,0.182
		c-0.388-0.009-0.782-0.023-1.189-0.028c-0.678-0.044-1.386-0.067-2.095-0.154c-0.712-0.071-1.427-0.172-2.131-0.325
		c-0.668-0.12-1.435-0.371-2.136-0.546c-0.711-0.194-1.36-0.453-2.022-0.667c-0.635-0.277-1.271-0.514-1.841-0.807
		c-0.576-0.284-1.117-0.562-1.601-0.856c-0.977-0.563-1.781-1.077-2.354-1.414c-0.583-0.315-0.918-0.493-0.918-0.493
		s0.314,0.212,0.869,0.577c0.536,0.387,1.283,0.971,2.215,1.635c0.459,0.341,0.985,0.675,1.546,1.024
		c0.556,0.352,1.182,0.66,1.818,1.005c0.657,0.286,1.345,0.634,2.039,0.9c0.713,0.249,1.36,0.544,2.149,0.764
		c0.751,0.227,1.502,0.399,2.245,0.532c0.741,0.152,1.469,0.241,2.177,0.345c0.706,0.066,1.392,0.168,2.038,0.204
		c0.648,0.047,1.261,0.099,1.826,0.116c1.12,0.058,2.1,0.061,2.75,0.058c0.325-0.003,0.578-0.007,0.75-0.011
		c-0.021,0.006-0.036,0.01-0.059,0.016c-0.271,0.067-0.555,0.113-0.907,0.185c-0.341,0.078-0.8,0.125-1.259,0.2
		c-1.89,0.261-4.506,0.41-7.133,0.386c-2.629-0.016-5.277-0.228-7.231-0.629c-0.493-0.083-0.931-0.212-1.322-0.326
		c-0.4-0.092-0.713-0.263-0.99-0.358c-0.278-0.106-0.457-0.258-0.6-0.329c-0.139-0.084-0.212-0.129-0.212-0.129
		s0.065,0.056,0.189,0.157c0.129,0.091,0.297,0.275,0.558,0.423c0.262,0.135,0.569,0.363,0.958,0.515
		c0.383,0.167,0.818,0.369,1.304,0.53c1.94,0.709,4.608,1.335,7.298,1.756c2.557,0.409,5.122,0.66,7.154,0.715
		c-0.212,0.073-0.422,0.148-0.65,0.223c-0.276,0.073-0.561,0.146-0.856,0.222c-0.587,0.172-1.236,0.249-1.902,0.374
		c-0.679,0.069-1.378,0.176-2.112,0.194c-0.726,0.053-1.476,0.047-2.228,0.045c-3.014-0.053-6.095-0.445-8.402-0.684
		c-2.31-0.254-3.852-0.345-3.852-0.345s1.528,0.291,3.794,0.84c2.267,0.537,5.287,1.331,8.418,1.799
		c0.784,0.105,1.572,0.211,2.355,0.26c0.781,0.084,1.561,0.071,2.313,0.091c0.753-0.038,1.49-0.03,2.18-0.13
		c0.346-0.04,0.684-0.078,1.01-0.121c0.321-0.062,0.635-0.125,0.935-0.184c0.598-0.096,1.159-0.278,1.656-0.428
		c0.25-0.076,0.483-0.15,0.698-0.214c0.185-0.073,0.353-0.142,0.507-0.201c0.292-0.115,0.519-0.204,0.682-0.27
		c0.167,0.312,0.343,0.623,0.515,0.935c-0.087,0.011-0.167,0.024-0.267,0.036c-0.747,0.097-1.871,0.292-3.173,0.537
		c-1.297,0.253-2.799,0.59-4.386,0.958c-1.59,0.365-3.271,0.75-4.972,1l-1.279,0.164c-0.428,0.027-0.855,0.057-1.279,0.086
		c-0.849,0.021-1.689,0.047-2.504-0.03c-0.818-0.033-1.604-0.161-2.353-0.266c-0.749-0.118-1.448-0.299-2.101-0.43
		c-0.643-0.179-1.235-0.342-1.758-0.486c-0.528-0.141-0.966-0.327-1.342-0.443C0.426,52.46,0,52.316,0,52.316
		s0.415,0.177,1.138,0.487c0.366,0.147,0.799,0.363,1.314,0.543c0.518,0.187,1.102,0.396,1.737,0.624
		c0.652,0.18,1.348,0.42,2.104,0.592c0.757,0.167,1.555,0.356,2.397,0.458c0.835,0.144,1.708,0.18,2.594,0.229
		c0.442,0.007,0.889,0.007,1.337,0.011l1.338-0.064c1.783-0.125,3.531-0.385,5.156-0.623c1.622-0.248,3.125-0.461,4.417-0.611
		c1.29-0.142,2.335-0.242,3.115-0.28c0.553-0.036,0.927-0.061,1.097-0.072c0.013,0.022,0.026,0.044,0.04,0.065
		c-0.157,0.042-0.333,0.089-0.542,0.145c-0.748,0.19-1.814,0.503-3.089,0.8c-1.279,0.297-2.76,0.695-4.383,0.988
		c-0.811,0.16-1.646,0.325-2.494,0.491c-0.859,0.131-1.733,0.266-2.606,0.398c-1.744,0.261-3.493,0.556-5.136,0.615
		c-1.643,0.067-3.194-0.095-4.47-0.522c-1.285-0.408-2.282-0.991-2.965-1.397c-0.686-0.417-1.062-0.684-1.062-0.684
		s0.355,0.296,1.008,0.766c0.655,0.464,1.613,1.133,2.906,1.657c1.287,0.55,2.913,0.858,4.625,0.926
		c1.723,0.085,3.504-0.076,5.293-0.224c0.896-0.07,1.787-0.142,2.668-0.212c0.875-0.106,1.736-0.215,2.57-0.317
		c1.676-0.182,3.212-0.476,4.542-0.687c1.225-0.195,2.215-0.404,2.966-0.544c-0.106,0.083-0.206,0.159-0.324,0.25
		c-0.171,0.111-0.354,0.228-0.55,0.356c-0.392,0.255-0.822,0.557-1.393,0.841c-0.545,0.299-1.139,0.619-1.812,0.899
		c-0.651,0.313-1.375,0.583-2.131,0.854c-0.744,0.299-1.56,0.487-2.368,0.746c-0.835,0.179-1.674,0.433-2.537,0.555l-1.294,0.219
		c-0.435,0.048-0.869,0.097-1.301,0.141c-0.858,0.103-1.719,0.109-2.553,0.133c-0.828-0.025-1.641-0.021-2.401-0.129
		c-0.774-0.051-1.484-0.213-2.149-0.348c-0.66-0.142-1.243-0.373-1.777-0.537c-0.495-0.237-0.95-0.433-1.301-0.625
		c-0.674-0.461-1.057-0.725-1.057-0.725s0.347,0.317,0.956,0.875c0.331,0.246,0.758,0.507,1.246,0.832
		c0.515,0.246,1.096,0.571,1.764,0.82c0.667,0.24,1.398,0.515,2.192,0.689c0.786,0.231,1.63,0.353,2.505,0.508
		c0.875,0.102,1.789,0.228,2.714,0.257c0.462,0.02,0.927,0.038,1.398,0.054l1.405-0.024c0.948,0.005,1.874-0.125,2.803-0.184
		c0.908-0.142,1.824-0.222,2.685-0.415c0.868-0.17,1.709-0.344,2.486-0.578c0.792-0.199,1.524-0.451,2.197-0.697
		c0.673-0.216,1.304-0.511,1.862-0.764c0.284-0.131,0.546-0.252,0.787-0.359c0.209-0.114,0.4-0.22,0.572-0.314
		c0.415-0.229,0.705-0.387,0.881-0.484c0.046,0.063,0.093,0.129,0.14,0.195c-0.028,0.034-0.049,0.06-0.087,0.107
		c-0.169,0.22-0.25,0.274-0.531,0.523c-0.539,0.457-1.488,1.046-2.727,1.631c-1.239,0.585-2.759,1.182-4.426,1.745
		c-0.826,0.271-1.721,0.577-2.579,0.795c-0.936,0.236-1.784,0.361-2.743,0.436c-1.879,0.161-3.805,0.104-5.608-0.013
		c-1.804-0.122-3.497-0.311-4.941-0.478c-1.449-0.168-2.658-0.314-3.505-0.387c-0.85-0.072-1.332-0.053-1.332-0.053
		s0.485,0.01,1.327,0.135c0.843,0.123,2.041,0.339,3.482,0.592c1.442,0.256,3.127,0.548,4.945,0.779
		c1.817,0.229,3.771,0.406,5.74,0.358c0.963-0.01,2.027-0.11,2.923-0.283c0.976-0.178,1.85-0.388,2.739-0.601
		c1.753-0.423,3.376-0.902,4.749-1.409c1.373-0.51,2.499-1.061,3.266-1.593c0.225-0.153,0.464-0.35,0.643-0.508
		c0.04,0.048,0.076,0.098,0.114,0.146c-0.141,0.109-0.323,0.245-0.556,0.423c-0.541,0.395-1.303,0.933-2.276,1.565
		c-0.479,0.317-1.017,0.636-1.58,0.984c-0.581,0.316-1.175,0.69-1.822,1.005c-0.638,0.339-1.309,0.653-2.005,0.946
		c-0.342,0.167-0.703,0.266-1.059,0.401l-0.518,0.181l-0.577,0.144c-0.768,0.188-1.54,0.416-2.292,0.507
		c-0.749,0.133-1.5,0.243-2.246,0.287c-0.735,0.083-1.459,0.094-2.146,0.111c-0.685,0.033-1.34-0.007-1.942-0.007
		c-1.209-0.044-2.215-0.078-2.925-0.102c-0.701,0.005-1.104,0.01-1.104,0.01s0.401,0.028,1.106,0.082
		c0.704,0.083,1.712,0.202,2.919,0.343c0.606,0.052,1.264,0.149,1.962,0.175c0.698,0.04,1.435,0.089,2.199,0.07
		c0.764,0.015,1.555-0.027,2.36-0.105c0.825-0.035,1.598-0.195,2.386-0.313l0.593-0.096l0.615-0.157
		c0.393-0.11,0.805-0.19,1.174-0.329c0.761-0.246,1.496-0.516,2.19-0.81c0.709-0.273,1.351-0.6,1.982-0.876
		c0.611-0.308,1.198-0.588,1.726-0.872c0.577-0.303,1.095-0.594,1.55-0.856c-0.064,0.05-0.13,0.1-0.201,0.156
		c-0.365,0.307-0.901,0.627-1.445,0.989c-0.541,0.376-1.195,0.693-1.86,1.08c-0.684,0.344-1.417,0.712-2.193,1.051
		c-1.558,0.681-3.286,1.292-5.065,1.776c-0.892,0.221-1.792,0.44-2.694,0.591c-0.9,0.155-1.793,0.289-2.667,0.342
		c-0.873,0.106-1.722,0.057-2.534,0.073c-0.804-0.056-1.578-0.101-2.279-0.221c-0.69-0.163-1.362-0.224-1.904-0.452
		c-0.545-0.209-1.066-0.312-1.429-0.539c-0.763-0.398-1.197-0.624-1.197-0.624s0.405,0.286,1.114,0.786
		c0.346,0.278,0.847,0.452,1.384,0.745c0.538,0.312,1.203,0.469,1.91,0.737c0.713,0.226,1.509,0.385,2.351,0.56
		c0.845,0.103,1.745,0.276,2.67,0.296c0.933,0.072,1.888,0.063,2.864,0.039c0.974-0.025,1.954-0.124,2.936-0.223
		c1.954-0.236,3.89-0.62,5.672-1.108c0.894-0.241,1.741-0.523,2.551-0.789c0.791-0.318,1.561-0.561,2.234-0.892
		c0.686-0.318,1.308-0.574,1.879-0.914c0.544-0.313,1.112-0.601,1.416-0.825c0.376-0.246,0.652-0.43,0.835-0.551
		c0.014,0.014,0.025,0.028,0.039,0.043c-0.15,0.145-0.386,0.375-0.716,0.697c-0.282,0.268-0.618,0.527-1.009,0.869
		c-0.423,0.305-0.882,0.681-1.442,1.022c-1.087,0.722-2.479,1.442-3.999,2.256c-0.748,0.396-1.522,0.807-2.309,1.225
		c-0.787,0.354-1.579,0.735-2.431,1.014c-0.413,0.167-0.841,0.278-1.273,0.394c-0.426,0.13-0.858,0.21-1.295,0.281
		c-0.863,0.164-1.737,0.194-2.586,0.167c-0.424-0.015-0.841-0.084-1.252-0.125c-0.405-0.089-0.809-0.147-1.193-0.26
		c-0.772-0.203-1.494-0.447-2.153-0.715c-1.321-0.52-2.406-1.021-3.178-1.335c-0.776-0.309-1.218-0.485-1.218-0.485
		s0.428,0.209,1.178,0.573c0.749,0.371,1.792,0.953,3.087,1.583c0.648,0.314,1.37,0.624,2.154,0.897
		c0.393,0.144,0.812,0.238,1.231,0.362c0.43,0.082,0.868,0.188,1.32,0.239c0.9,0.099,1.85,0.139,2.786,0.038
		c0.472-0.039,0.946-0.087,1.41-0.189c0.466-0.085,0.94-0.171,1.386-0.309c0.922-0.221,1.808-0.562,2.692-0.877
		c0.413-0.172,0.825-0.351,1.23-0.521l0.621-0.27l0.581-0.268c1.54-0.706,3.034-1.354,4.265-2.061
		c0.627-0.331,1.162-0.709,1.65-1.02c0.471-0.354,0.909-0.663,1.218-0.921c0.353-0.304,0.604-0.519,0.764-0.654
		c0.246,0.254,0.491,0.511,0.742,0.762c-0.058,0.05-0.112,0.093-0.178,0.15c-0.238,0.196-0.529,0.439-0.861,0.714
		c-0.331,0.293-0.715,0.54-1.128,0.845c-0.427,0.29-0.85,0.647-1.369,0.949c-0.51,0.311-1.048,0.639-1.603,0.982
		c-0.582,0.304-1.18,0.62-1.791,0.938c-0.633,0.273-1.264,0.586-1.92,0.839c-0.664,0.236-1.314,0.515-1.992,0.7
		c-0.663,0.218-1.327,0.401-1.98,0.548c-0.647,0.177-1.295,0.265-1.898,0.391c-0.612,0.078-1.191,0.181-1.734,0.219
		c-1.078,0.116-1.992,0.128-2.629,0.134c-0.321-0.002-0.577-0.004-0.747-0.004c-0.173,0.004-0.262,0.016-0.262,0.016
		s0.093-0.002,0.264,0.008c0.171,0.015,0.423,0.04,0.742,0.073c0.644,0.052,1.567,0.126,2.67,0.111
		c0.554,0.011,1.151-0.037,1.785-0.061c0.624-0.071,1.297-0.102,1.976-0.216c0.682-0.086,1.382-0.212,2.088-0.37
		c0.715-0.126,1.413-0.346,2.124-0.531c0.706-0.194,1.392-0.457,2.08-0.676c0.668-0.273,1.323-0.542,1.958-0.799
		c0.618-0.297,1.211-0.59,1.776-0.863c0.57-0.266,1.073-0.604,1.557-0.873c0.475-0.281,0.94-0.527,1.282-0.778
		c0.36-0.243,0.674-0.455,0.93-0.628c0.17-0.113,0.305-0.206,0.424-0.287c0.291,0.279,0.59,0.55,0.886,0.825
		c-0.13,0.171-0.319,0.419-0.562,0.737c-0.061,0.076-0.125,0.161-0.194,0.245c-0.059,0.056-0.121,0.117-0.185,0.178
		c-0.131,0.125-0.271,0.259-0.42,0.403c-0.246,0.306-0.758,0.621-1.225,0.989c-0.483,0.37-1.105,0.67-1.722,1.04
		c-0.676,0.286-1.35,0.672-2.134,0.923c-0.387,0.142-0.782,0.279-1.181,0.424c-0.41,0.117-0.829,0.237-1.248,0.354
		c-0.842,0.251-1.731,0.405-2.617,0.59c-0.896,0.132-1.793,0.303-2.695,0.367c-0.896,0.108-1.789,0.145-2.655,0.179
		c-0.865,0.034-1.706-0.003-2.509-0.01c-0.794-0.07-1.561-0.08-2.256-0.182c-0.695-0.099-1.345-0.156-1.907-0.292
		c-0.56-0.122-1.065-0.187-1.46-0.318c-0.806-0.233-1.265-0.359-1.265-0.359s0.441,0.191,1.213,0.533
		c0.385,0.189,0.876,0.323,1.431,0.529c0.556,0.215,1.199,0.366,1.9,0.565c0.698,0.203,1.473,0.327,2.288,0.514
		c0.817,0.125,1.684,0.285,2.586,0.375c0.899,0.094,1.834,0.19,2.786,0.214c0.957,0.065,1.919,0.03,2.893,0.027
		c0.965-0.063,1.942-0.09,2.894-0.224c0.476-0.064,0.948-0.125,1.417-0.188c0.463-0.094,0.921-0.184,1.373-0.272
		c0.914-0.153,1.76-0.47,2.588-0.691c0.8-0.322,1.58-0.571,2.263-0.936c0.683-0.375,1.302-0.637,1.874-1.093
		c0.279-0.207,0.543-0.402,0.787-0.582c0.12-0.092,0.232-0.18,0.344-0.264c0.079-0.077,0.155-0.148,0.227-0.216
		c0.292-0.279,0.521-0.498,0.675-0.646c0.054,0.046,0.106,0.09,0.162,0.137c-0.037,0.062-0.076,0.128-0.119,0.199
		c-0.088,0.132-0.192,0.272-0.309,0.438c-0.24,0.334-0.604,0.775-1.058,1.221c-0.45,0.458-1.017,0.934-1.673,1.421
		c-1.329,0.959-3.057,1.927-5.051,2.729c-0.994,0.407-2.051,0.784-3.146,1.108c-0.53,0.171-1.142,0.325-1.63,0.458
		c-0.574,0.113-1.188,0.286-1.72,0.325c-1.08,0.176-2.271,0.167-3.414,0.095c-1.152-0.077-2.292-0.287-3.397-0.513
		c-2.212-0.491-4.273-1.121-6.055-1.596c-1.781-0.491-3.282-0.829-4.334-1.028c-1.055-0.19-1.657-0.276-1.657-0.276
		s0.595,0.139,1.633,0.415c1.032,0.288,2.494,0.747,4.225,1.379c1.738,0.625,3.739,1.424,5.974,2.119
		c1.123,0.325,2.297,0.649,3.528,0.839c1.236,0.179,2.482,0.306,3.792,0.211c0.677-0.011,1.228-0.121,1.834-0.185
		c0.673-0.118,1.218-0.21,1.82-0.348c1.181-0.245,2.328-0.546,3.424-0.892c2.203-0.677,4.188-1.565,5.807-2.533
		c0.803-0.496,1.518-0.999,2.115-1.507c0.266-0.221,0.498-0.435,0.717-0.644c-0.175,0.231-0.384,0.488-0.635,0.752
		c-0.445,0.486-1.022,1.016-1.69,1.575c-0.671,0.552-1.445,1.131-2.296,1.709c-0.853,0.579-1.779,1.162-2.768,1.737
		c-0.983,0.567-2.021,1.145-3.099,1.678c-0.537,0.267-1.083,0.527-1.634,0.773l-0.045,0.023c-0.009,0.003-0.019,0.006-0.016,0.005
		l-0.03,0.009l-0.225,0.071L33.4,85.359l-0.905,0.275l-0.905,0.273l-0.872,0.152c-0.585,0.102-1.168,0.203-1.748,0.304
		c-0.607,0.038-1.209,0.075-1.808,0.11c-0.294,0.021-0.595,0.041-0.89,0.055c-0.299-0.009-0.594-0.022-0.886-0.031
		c-0.59-0.023-1.168-0.044-1.735-0.067c-0.567-0.046-1.122-0.138-1.663-0.203c-1.088-0.104-2.101-0.345-3.043-0.557
		c-0.947-0.172-1.786-0.47-2.541-0.701c-0.378-0.115-0.729-0.227-1.059-0.326c-0.316-0.128-0.609-0.244-0.873-0.352
		c-1.06-0.429-1.665-0.675-1.665-0.675s0.582,0.307,1.595,0.842c0.256,0.131,0.538,0.284,0.847,0.443
		c0.32,0.136,0.663,0.283,1.03,0.441c0.74,0.307,1.565,0.697,2.511,0.977c0.939,0.311,1.956,0.663,3.065,0.889
		c0.551,0.124,1.121,0.278,1.705,0.389c0.59,0.084,1.191,0.171,1.803,0.255c0.308,0.045,0.618,0.09,0.932,0.136
		c0.313,0.013,0.627,0.025,0.948,0.042c0.638,0.027,1.284,0.053,1.938,0.081c0.662-0.044,1.333-0.088,2.005-0.133l1.017-0.077
		l0.933-0.178l0.937-0.176l0.465-0.087l0.231-0.046l0.118-0.022l0.028-0.006l0.013-0.005l0.142-0.042l0.057-0.02
		c0.62-0.201,1.224-0.41,1.817-0.628c1.189-0.436,2.335-0.913,3.437-1.398c0.9-0.396,1.753-0.81,2.578-1.23
		c-1.205,0.899-2.463,1.831-3.721,2.771c-0.393,0.287-0.798,0.604-1.178,0.864c-0.404,0.295-0.804,0.538-1.206,0.775
		c-0.825,0.462-1.678,0.866-2.539,1.178c-1.728,0.631-3.441,0.998-4.933,1.158c-1.496,0.173-2.765,0.166-3.652,0.117
		c-0.445-0.022-0.795-0.055-1.033-0.084c-0.237-0.023-0.364-0.04-0.364-0.04s0.126,0.024,0.364,0.063
		c0.235,0.046,0.584,0.1,1.029,0.15c0.892,0.105,2.172,0.193,3.703,0.12c1.524-0.068,3.302-0.322,5.13-0.854
		c0.913-0.269,1.83-0.624,2.739-1.055c0.925-0.441,1.74-0.991,2.579-1.521c1.648-1.054,3.3-2.099,4.846-3.096
		c-0.363,0.321-0.735,0.653-1.114,0.994c-0.774,0.705-1.574,1.444-2.337,2.255c-0.78,0.805-1.467,1.679-2.184,2.513
		c-0.718,0.798-1.475,1.553-2.33,2.193c-0.829,0.67-1.736,1.205-2.656,1.653c-0.919,0.445-1.878,0.738-2.802,0.947
		c-0.934,0.179-1.844,0.268-2.691,0.235c-0.846-0.017-1.627-0.126-2.309-0.274c-0.688-0.139-1.272-0.334-1.751-0.502
		c-0.484-0.154-0.84-0.347-1.094-0.444c-0.251-0.107-0.385-0.168-0.385-0.168s0.131,0.065,0.375,0.189
		c0.25,0.113,0.595,0.329,1.071,0.511c0.478,0.198,1.054,0.427,1.745,0.611c0.684,0.192,1.477,0.355,2.349,0.426
		c0.875,0.084,1.821,0.05,2.809-0.077c0.981-0.155,2.003-0.405,3-0.812c0.994-0.404,1.986-0.913,2.907-1.555
		c0.931-0.615,1.8-1.372,2.614-2.167c0.781-0.8,1.51-1.621,2.293-2.332c0.775-0.73,1.598-1.402,2.399-2.048
		c1.607-1.28,3.17-2.464,4.453-3.569c0.687-0.591,1.285-1.149,1.805-1.656c-0.254,0.462-0.526,0.957-0.833,1.496
		c-1.51,2.658-3.645,6.141-6.221,9.269c-1.283,1.566-2.689,3.029-4.145,4.243c-1.462,1.197-2.977,2.152-4.413,2.688
		c-0.712,0.288-1.404,0.463-2.028,0.569c-0.623,0.104-1.185,0.151-1.647,0.133c-0.464,0.008-0.832-0.045-1.081-0.077
		c-0.253-0.033-0.387-0.051-0.387-0.051s0.134,0.033,0.379,0.097c0.247,0.066,0.614,0.162,1.084,0.214
		c0.473,0.082,1.054,0.104,1.717,0.079c0.664-0.025,1.414-0.117,2.201-0.319c1.588-0.368,3.322-1.16,5.026-2.215
		c1.694-1.067,3.368-2.399,4.921-3.84c3.11-2.884,5.787-6.167,7.703-8.679c0.237-0.316,0.467-0.618,0.682-0.91
		c-0.255,0.419-0.523,0.857-0.813,1.33c-0.456,0.714-0.897,1.547-1.37,2.421c-0.454,0.847-0.932,1.746-1.425,2.673
		c-0.984,1.8-2.149,3.687-3.463,5.442c-1.327,1.744-2.821,3.362-4.456,4.615c-1.62,1.267-3.375,2.133-4.956,2.732
		c-1.583,0.599-2.952,1.043-3.833,1.516c-0.441,0.227-0.768,0.442-0.98,0.595c-0.209,0.16-0.322,0.247-0.322,0.247
		s0.12-0.076,0.343-0.215c0.229-0.135,0.568-0.318,1.024-0.505c0.908-0.39,2.29-0.706,3.952-1.172
		c1.654-0.466,3.563-1.205,5.384-2.382c1.83-1.155,3.548-2.704,5.092-4.394c1.536-1.701,2.898-3.523,4.097-5.312
		c0.598-0.872,1.131-1.777,1.669-2.534c0.529-0.774,1.017-1.507,1.53-2.162c0.509-0.667,0.976-1.279,1.385-1.822
		c0.148-0.194,0.291-0.375,0.429-0.554c-0.086,0.187-0.174,0.366-0.267,0.579c-0.276,0.619-0.613,1.325-0.913,2.072
		c-0.637,1.503-1.305,3.255-2.024,5.11c-0.371,0.913-0.729,1.879-1.147,2.812c-0.39,0.953-0.846,1.875-1.302,2.803
		c-0.501,0.892-0.987,1.804-1.58,2.61c-0.27,0.424-0.566,0.823-0.894,1.188c-0.326,0.364-0.604,0.775-0.963,1.095
		c-0.344,0.333-0.688,0.658-1.022,0.976c-0.341,0.315-0.727,0.557-1.077,0.83c-0.684,0.574-1.463,0.931-2.138,1.334
		c-0.681,0.403-1.383,0.618-1.97,0.894c-0.585,0.277-1.149,0.399-1.595,0.544c-0.901,0.272-1.416,0.426-1.416,0.426
		s0.534-0.089,1.471-0.246c0.468-0.087,1.054-0.144,1.683-0.347c0.63-0.198,1.383-0.336,2.135-0.652
		c0.746-0.326,1.611-0.599,2.407-1.1c0.404-0.237,0.851-0.447,1.257-0.729c0.402-0.293,0.809-0.595,1.225-0.897
		c0.43-0.296,0.778-0.681,1.183-1.03c0.404-0.354,0.778-0.738,1.127-1.148c0.751-0.788,1.391-1.672,2.048-2.557
		c0.604-0.904,1.212-1.817,1.741-2.739c0.558-0.914,1.042-1.828,1.538-2.704c0.964-1.754,1.839-3.379,2.63-4.718
		c0.383-0.689,0.757-1.261,1.08-1.783c0.31-0.518,0.622-0.98,0.891-1.365c0.022-0.036,0.042-0.064,0.065-0.096
		c-0.023,0.063-0.044,0.124-0.067,0.19c-0.142,0.438-0.347,0.909-0.564,1.482c-0.213,0.567-0.505,1.201-0.807,1.897
		c-0.614,1.387-1.406,2.975-2.313,4.648c-0.913,1.672-1.945,3.422-3.048,5.133c-0.532,0.86-1.135,1.678-1.762,2.431
		c-0.627,0.771-1.289,1.497-1.948,2.188c-1.317,1.374-2.62,2.6-3.75,3.633c-1.133,1.038-2.079,1.898-2.739,2.503
		c-0.649,0.612-1.023,0.967-1.023,0.967s0.394-0.328,1.082-0.901c0.7-0.563,1.696-1.362,2.896-2.325c1.193-0.964,2.577-2.11,4-3.417
		c0.706-0.653,1.424-1.344,2.118-2.094c0.708-0.749,1.365-1.543,1.974-2.383c1.236-1.643,2.407-3.334,3.456-4.958
		c1.041-1.629,1.962-3.188,2.695-4.567c0.13-0.246,0.251-0.476,0.375-0.708c-0.11,0.248-0.224,0.501-0.342,0.763
		c-0.358,0.804-0.745,1.667-1.156,2.587c-0.401,0.931-0.861,1.856-1.335,2.827c-0.476,0.968-0.937,1.998-1.522,2.944
		c-0.585,0.952-1.082,2.002-1.758,2.915c-0.669,0.918-1.339,1.839-1.999,2.747c-0.764,0.829-1.514,1.644-2.241,2.435
		c-0.691,0.832-1.548,1.454-2.279,2.125c-0.753,0.655-1.464,1.276-2.119,1.847c-2.84,2.06-4.732,3.433-4.732,3.433
		s2.057-1.149,5.143-2.876c0.731-0.499,1.524-1.038,2.364-1.608c0.823-0.592,1.773-1.127,2.583-1.893
		c0.85-0.724,1.727-1.476,2.619-2.24c0.801-0.859,1.614-1.738,2.427-2.616c0.827-0.874,1.465-1.885,2.198-2.813
		c0.738-0.932,1.323-1.911,1.933-2.848c0.601-0.937,1.197-1.844,1.698-2.707c0.52-0.867,1.003-1.685,1.455-2.438
		c0.96-1.604,1.749-2.918,2.277-3.8c-0.062,0.37-0.166,0.686-0.257,1.134c-0.077,0.479-0.341,1.088-0.533,1.725
		c-0.238,0.634-0.528,1.319-0.855,2.038c-0.357,0.71-0.716,1.473-1.167,2.228c-0.855,1.535-1.897,3.126-2.997,4.687
		c-2.188,3.124-4.638,6.115-6.345,8.46c-1.737,2.322-2.833,3.915-2.833,3.915s1.291-1.435,3.311-3.501
		c2.012-2.075,4.759-4.779,7.353-7.681c1.298-1.451,2.556-2.948,3.638-4.45c0.452-0.594,0.847-1.198,1.231-1.791
		c-0.441,0.976-0.908,2.01-1.397,3.095c-0.847,1.85-1.796,3.789-2.825,5.677c-0.539,0.921-1.054,1.871-1.645,2.744
		c-0.552,0.898-1.179,1.717-1.771,2.528c-0.641,0.768-1.233,1.55-1.887,2.192c-0.325,0.329-0.638,0.651-0.942,0.961
		c-0.311,0.306-0.644,0.56-0.948,0.826c-0.31,0.26-0.597,0.522-0.89,0.747c-0.305,0.212-0.591,0.415-0.861,0.604
		c-0.536,0.391-1.02,0.707-1.447,0.924c-0.838,0.467-1.318,0.735-1.318,0.735s0.516-0.206,1.412-0.569
		c0.458-0.166,0.986-0.42,1.576-0.748c0.301-0.158,0.62-0.326,0.957-0.503c0.327-0.189,0.651-0.418,1-0.643
		c0.345-0.235,0.722-0.455,1.078-0.727c0.354-0.278,0.72-0.564,1.093-0.859c0.764-0.578,1.469-1.297,2.234-2.011
		c0.715-0.754,1.477-1.522,2.161-2.374c0.726-0.826,1.375-1.721,2.054-2.603c1.301-1.798,2.515-3.648,3.609-5.399
		c1.072-1.747,2.074-3.377,2.932-4.776c0.863-1.404,1.549-2.479,2.083-3.289c0.126-0.189,0.239-0.36,0.336-0.507
		c0.035,0.015,0.073,0.029,0.107,0.045c-0.211,0.303-0.439,0.691-0.696,1.18c-0.249,0.475-0.565,1.013-0.837,1.605
		c-0.588,1.173-1.183,2.573-1.795,4.063c-0.606,1.488-1.229,3.063-1.958,4.578c-0.356,0.76-0.76,1.488-1.171,2.2
		c-0.445,0.687-0.869,1.379-1.37,1.978c-0.458,0.638-0.992,1.177-1.471,1.715c-0.497,0.528-1.013,0.972-1.469,1.413
		c-0.493,0.401-0.947,0.767-1.35,1.091c-0.397,0.33-0.791,0.56-1.093,0.782c-0.616,0.422-0.965,0.664-0.965,0.664
		s0.374-0.202,1.038-0.561c0.322-0.187,0.744-0.378,1.181-0.665c0.44-0.282,0.936-0.605,1.479-0.953
		c0.508-0.396,1.089-0.797,1.654-1.279c0.549-0.498,1.147-1.012,1.683-1.625c0.574-0.577,1.079-1.252,1.606-1.927
		c0.496-0.699,0.986-1.419,1.423-2.168c0.888-1.491,1.665-3.029,2.397-4.442c0.735-1.414,1.431-2.706,2.088-3.767
		c0.315-0.546,0.64-0.993,0.907-1.412c0.083-0.131,0.167-0.25,0.25-0.372c-0.003,0.035-0.008,0.065-0.011,0.101
		c-0.031,0.25-0.069,0.527-0.104,0.83c-0.061,0.259-0.123,0.54-0.196,0.837c-0.125,0.601-0.261,1.286-0.545,2.046
		c-0.128,0.379-0.259,0.774-0.397,1.184c-0.175,0.396-0.353,0.806-0.539,1.226c-0.172,0.431-0.383,0.855-0.63,1.276
		c-0.236,0.427-0.464,0.866-0.724,1.31c-0.565,0.846-1.112,1.754-1.796,2.599c-0.629,0.88-1.381,1.699-2.101,2.547
		c-0.773,0.806-1.522,1.635-2.332,2.391c-0.786,0.782-1.609,1.503-2.39,2.225c-1.595,1.402-3.119,2.683-4.441,3.769
		c-2.633,2.187-4.386,3.644-4.386,3.644s1.921-1.237,4.81-3.095c1.45-0.922,3.129-2.013,4.913-3.234
		c0.875-0.624,1.8-1.256,2.697-1.955c0.917-0.672,1.799-1.429,2.699-2.166c0.856-0.787,1.747-1.549,2.536-2.401
		c0.83-0.808,1.546-1.706,2.27-2.557c0.341-0.443,0.653-0.899,0.971-1.338c0.327-0.43,0.621-0.877,0.874-1.331
		c0.082-0.138,0.159-0.267,0.239-0.403c-1.06,2.467-2.34,5.26-3.713,8.014c-1.934,3.86-4.023,7.651-5.835,10.332
		c-0.46,0.66-0.869,1.281-1.289,1.784c-0.388,0.531-0.767,0.957-1.102,1.292c-0.303,0.366-0.61,0.574-0.808,0.732
		c-0.196,0.157-0.306,0.244-0.306,0.244s0.114-0.074,0.327-0.212c0.213-0.141,0.548-0.327,0.89-0.662
		c0.368-0.305,0.79-0.7,1.232-1.193c0.475-0.471,0.941-1.051,1.469-1.674c2.083-2.515,4.543-6.114,6.859-9.8
		c2.313-3.691,4.45-7.498,5.961-10.422c0.678-1.292,1.242-2.455,1.64-3.296c-0.166,0.517-0.368,1.146-0.599,1.87
		c-0.214,0.748-0.521,1.509-0.863,2.334c-0.336,0.836-0.701,1.744-1.086,2.701c-0.413,0.958-0.919,1.955-1.405,2.997
		c-0.486,1.046-1.001,2.119-1.592,3.178c-0.576,1.068-1.16,2.154-1.745,3.242c-0.625,1.063-1.252,2.128-1.87,3.179
		c-0.603,1.056-1.257,2.062-1.877,3.044c-1.221,1.973-2.432,3.773-3.473,5.313c-1.023,1.557-1.946,2.806-2.56,3.701
		c-0.626,0.888-0.981,1.396-0.981,1.396s0.409-0.465,1.131-1.279c0.715-0.818,1.771-1.957,2.961-3.392
		c1.209-1.417,2.62-3.076,4.065-4.914c0.729-0.915,1.496-1.848,2.221-2.839c0.74-0.985,1.489-1.984,2.24-2.981
		c0.711-1.033,1.423-2.06,2.13-3.076c0.718-1.002,1.366-2.037,1.979-3.047c0.617-1.01,1.239-1.961,1.787-2.914
		c0.523-0.977,1.017-1.901,1.478-2.752c0.466-0.855,0.886-1.645,1.168-2.336c0.268-0.602,0.5-1.119,0.704-1.576
		c-0.003,0.019-0.008,0.032-0.012,0.047c-0.132,0.603-0.343,1.281-0.601,2.022c-0.223,0.754-0.553,1.541-0.883,2.379
		c-0.315,0.841-0.748,1.692-1.142,2.598c-0.45,0.879-0.88,1.805-1.39,2.714c-0.485,0.916-0.999,1.841-1.541,2.75
		c-2.127,3.659-4.542,7.153-6.362,9.766c-1.83,2.604-3.054,4.341-3.054,4.341s1.333-1.651,3.333-4.13
		c1.987-2.49,4.631-5.825,7.015-9.37c0.606-0.881,1.182-1.775,1.741-2.674c0.574-0.885,1.071-1.798,1.587-2.665
		c0.466-0.899,0.962-1.739,1.347-2.589c0.172-0.363,0.339-0.716,0.5-1.062c-0.079,0.342-0.157,0.69-0.241,1.053
		c-0.228,1.009-0.519,2.072-0.81,3.212c-0.324,1.116-0.649,2.307-1.067,3.497c-0.192,0.605-0.402,1.211-0.649,1.81
		c-0.243,0.596-0.448,1.229-0.739,1.815c-0.276,0.598-0.554,1.202-0.834,1.81l-0.951,1.764c-0.694,1.142-1.374,2.306-2.19,3.348
		c-0.758,1.09-1.625,2.065-2.452,3.028c-0.855,0.936-1.732,1.804-2.569,2.618c-0.881,0.769-1.693,1.531-2.49,2.178
		c-0.808,0.634-1.552,1.215-2.209,1.73c-0.666,0.508-1.281,0.909-1.77,1.258c-0.991,0.687-1.554,1.086-1.554,1.086
		s0.599-0.338,1.657-0.928c0.526-0.303,1.187-0.64,1.906-1.081c0.715-0.452,1.517-0.963,2.399-1.517
		c0.87-0.575,1.762-1.262,2.744-1.952c0.931-0.742,1.917-1.533,2.894-2.408c0.946-0.898,1.946-1.819,2.848-2.867
		c0.958-0.999,1.791-2.137,2.64-3.264l1.189-1.752c0.358-0.609,0.715-1.211,1.069-1.812c0.37-0.597,0.649-1.228,0.97-1.831
		c0.32-0.606,0.608-1.215,0.871-1.825c0.563-1.203,1.021-2.395,1.474-3.522c0.412-1.131,0.824-2.207,1.156-3.2
		c0.553-1.649,1.029-3.063,1.397-4.158c-0.165,0.841-0.349,1.83-0.552,2.942c-0.642,3.474-1.312,8.109-2.222,12.636
		c-0.223,1.134-0.483,2.255-0.749,3.358c-0.291,1.087-0.552,2.177-0.901,3.187c-0.308,1.03-0.687,1.992-1.041,2.908
		c-0.39,0.896-0.764,1.752-1.17,2.505c-0.421,0.74-0.773,1.45-1.186,2.015c-0.392,0.569-0.704,1.101-1.041,1.474
		c-0.634,0.781-0.997,1.229-0.997,1.229s0.415-0.398,1.143-1.103c0.383-0.334,0.757-0.824,1.225-1.354
		c0.487-0.52,0.926-1.186,1.446-1.893c0.506-0.711,0.988-1.53,1.494-2.397c0.473-0.888,0.98-1.825,1.417-2.834
		c0.483-0.994,0.876-2.058,1.307-3.132c0.398-1.081,0.8-2.188,1.159-3.303c1.028-3.127,1.924-6.266,2.72-9.006
		c-0.055,0.701-0.129,1.411-0.185,2.15c-0.195,2.154-0.404,4.449-0.615,6.741c-0.288,2.291-0.573,4.581-0.843,6.732
		c-0.255,2.146-0.55,4.146-0.794,5.863c-0.488,3.428-0.812,5.715-0.812,5.715s0.458-2.26,1.148-5.64
		c0.343-1.697,0.754-3.667,1.136-5.799c0.397-2.123,0.816-4.394,1.242-6.662c0.347-2.295,0.695-4.586,1.02-6.738
		c0.063-0.452,0.135-0.895,0.204-1.334c0.042,0.826,0.06,1.665,0.098,2.543c0.077,2.352,0.16,4.858,0.245,7.369
		c-0.069,2.519-0.131,5.039-0.194,7.402c-0.042,1.177-0.034,2.333-0.119,3.409c-0.09,1.077-0.178,2.094-0.261,3.035
		c-0.323,3.771-0.539,6.287-0.539,6.287s0.484-2.463,1.216-6.163c0.183-0.925,0.379-1.929,0.589-2.992
		c0.2-1.064,0.311-2.204,0.484-3.376c0.317-2.353,0.656-4.86,0.996-7.366c0.19-2.555,0.377-5.105,0.556-7.498
		c0.075-1.198,0.203-2.37,0.224-3.46c-0.001-0.043,0-0.082,0.001-0.124c0.069,0.551,0.147,1.104,0.255,1.662
		c0.3,1.795,0.668,3.66,1.053,5.519c0.171,0.92,0.345,1.843,0.511,2.753c0.188,0.913,0.247,1.797,0.371,2.664
		c0.058,0.437,0.109,0.862,0.161,1.281c0.017,0.416,0.037,0.825,0.054,1.221c0.032,0.803,0.058,1.559,0.088,2.256
		c0.021,0.698-0.056,1.333-0.075,1.899c-0.029,0.566-0.056,1.063-0.08,1.469c-0.047,0.82-0.069,1.288-0.069,1.288
		s0.089-0.456,0.253-1.248c0.083-0.402,0.181-0.885,0.297-1.438c0.099-0.561,0.271-1.185,0.352-1.882
		c0.073-0.705,0.156-1.464,0.241-2.269c0.042-0.404,0.084-0.821,0.126-1.244c0.008-0.429,0.018-0.862,0.025-1.308
		c0.003-0.89,0.075-1.822,0.016-2.752c-0.038-0.937-0.075-1.887-0.115-2.834c-0.117-1.883-0.212-3.757-0.251-5.479
		c-0.032-0.652-0.023-1.266-0.007-1.861c0.196,0.312,0.395,0.623,0.619,0.921c0.585,0.805,1.287,1.521,2.016,2.238
		c1.487,1.387,3.163,2.643,4.878,3.782c3.426,2.283,6.948,4.222,9.472,5.882c1.262,0.817,2.268,1.57,2.93,2.149
		c0.32,0.299,0.576,0.535,0.729,0.712c0.158,0.176,0.248,0.27,0.248,0.27s-0.073-0.104-0.208-0.295
		C122.263,122.531,122.041,122.264,121.754,121.921z" class="color c1"/>
    <path fill="#527809" d="M234.138,35.162c-3.431,0.515-6.857,1.148-10.184,1.888c1.56,1.967,2.998,3.862,4.275,5.634
		c1.138,1.586,0.767,3.855-0.818,4.992c-1.573,1.133-3.855,0.764-4.992-0.814c-1.739-2.422-3.796-5.07-6.109-7.879
		c-1.91,0.55-3.775,1.135-5.544,1.746c2.457,2.268,4.715,4.468,6.708,6.54c1.505,1.566,1.456,4.135-0.109,5.645
		c-1.549,1.489-4.134,1.455-5.632-0.104c-3.237-3.368-6.785-6.619-9.2-8.763c-1.944,0.911-3.775,1.882-5.445,2.885
		c2.429,2.243,4.649,4.408,6.601,6.437c1.508,1.569,1.456,4.131-0.111,5.64c-1.561,1.5-4.137,1.452-5.643-0.112
		c-2.131-2.221-4.631-4.634-7.429-7.174c-1.533,1.378-2.867,2.834-3.972,4.327c-0.694,0.938-1.348,1.889-1.95,2.829
		c3.334,1.511,6.41,3.015,9.142,4.469c2.114,1.129,2.939,3.834,1.813,5.954c-1.127,2.114-3.84,2.94-5.957,1.816
		c-2.617-1.399-5.627-2.865-8.957-4.365c-0.796,2.191-1.316,4.356-1.546,6.438c2.924,1.348,5.641,2.687,8.078,3.985
		c2.115,1.125,2.944,3.833,1.816,5.95c-1.124,2.114-3.843,2.94-5.954,1.817c-0.713-0.378-1.455-0.766-2.212-1.15
		c1.625,3.15,4.292,5.655,7.724,7.25c0.914,0.422,1.546,1.265,1.695,2.25l0.01,0.061c0.171,1.154-0.355,2.308-1.346,2.938
		c-5.775,3.681-8.696,10.145-9.462,12.059c2.263,2.685,5.207,2.919,6.609,2.854c0.455-5.703,2.884-10.145,4.903-12.921
		c0.573-0.79,1.418-1.304,2.374-1.446c1.412-0.213,2.787,0.396,3.588,1.585c3.067,4.568,7.864,7.197,13.523,7.406
		c-0.749-0.785-1.481-1.536-2.184-2.234c-1.72-1.717-1.724-4.509-0.013-6.228c1.688-1.69,4.531-1.697,6.226-0.008
		c1.9,1.894,3.936,4.054,6.049,6.416c1.951-0.856,3.884-1.979,5.736-3.328c-2.37-2.696-4.625-5.111-6.703-7.184
		c-1.695-1.688-1.703-4.527-0.012-6.221c1.689-1.695,4.528-1.702,6.226-0.011c2.184,2.177,4.52,4.673,6.942,7.42
		c0.735-0.854,1.457-1.755,2.142-2.683c1.104-1.495,2.104-3.199,2.973-5.069c-3.25-1.931-6.288-3.613-9.038-5.003
		c-0.198-0.102-0.392-0.217-0.573-0.353c-1.568-1.159-2.065-3.264-1.183-5.003c0.582-1.154,1.69-1.958,2.967-2.149
		c0.822-0.122,1.647,0.012,2.393,0.389c2.509,1.271,5.23,2.757,8.087,4.422c0.469-1.889,0.862-3.925,1.161-6.051
		c-3.941-2.405-7.769-4.556-11.064-6.223c-1.92-0.991-2.741-3.417-1.756-5.36c0.98-1.941,3.417-2.741,5.359-1.758
		c2.567,1.3,5.332,2.813,8.22,4.499c0.064-1.868,0.082-3.822,0.045-5.814c-3.361-1.389-6.496-2.579-9.323-3.534
		c-1.839-0.622-2.865-2.688-2.24-4.535c0.622-1.849,2.682-2.869,4.533-2.241c2.071,0.7,4.304,1.521,6.641,2.437
		c-0.602-7.614-1.703-13.684-2.158-15.989C238.659,34.554,236.688,34.779,234.138,35.162L234.138,35.162z" class="color c2"/>
    <path fill="#179314" d="M193.418,123.424c2.963-8.656-0.559-19.031-8.113-24.023l-4.776-2.329
		c3.062-4.076,7.287-7.318,9.049-11.796c2.845-7.366-1.926-16.138-8.605-20.29c-6.823-4.288-15.004-5.111-23.037-5.796
		c-4.308-0.479-8.466-0.817-12.912-1.151c3.788,9.513,15.49,14.268,18.565,23.938c0.609,1.707,0.52,4.142-1.326,4.899
		c-2.131,0.762-3.624-2.07-4.386-4.201c-2.771-8.817-8.812-16.56-16.512-21.691c-1.45-0.828-3.045-1.795-4.771-2.043
		c-1.724-0.249-3.289,0.215-4.991,0.824c-5.263,1.691-9.934,4.229-14.299,7.616c6.743,0.569,12.709,4.879,17.955,9.058
		c4.366,3.342,9.329,7.529,9.308,13.117c-1.986,0.9-4.573,0.386-6.323-1.01c-1.889-1.246-3.219-3.078-4.547-4.91
		c-4.12-5.067-9.239-9.965-15.707-11.115c-8.918-1.809-18.508,4.987-19.885,14.04c7.856-0.888,16.055,0.793,22.874,4.799
		c1.741,1.106,3.796,3.354,2.541,4.956c-1.11,1.458-3.415,0.932-5.292,0.258c-4.624-1.902-9.392-3.944-14.018-5.851
		c-2.021-0.814-4.192-1.769-6.475-1.434c-4.993,0.826-6.724,6.733-9.355,10.944c-1.521,2.47-3.767,4.521-6.313,6.011
		c5.344,2.029,9.864,5.797,12.98,10.743c1.632,2.682,2.84,5.521,4.754,7.913c1.776,2.539,4.541,4.627,7.556,4.99
		c4.159,0.338,7.813-2.891,10.314-6.383c5.156-6.556,8.985-14.658,16.203-18.681c1.487,2.542,0.844,5.851-0.24,8.739
		c-4.184,11.689-13.123,21.908-24.461,27.311c4.549-1.532,9.378-3.353,14.138-1.884c2.16,0.668,4.049,1.916,6.064,2.444
		c3.168,0.79,6.73-0.002,10.039,0.641c2.301,0.522,4.47,1.476,6.633,2.146c2.303,0.522,5.027,0.608,6.565-1.003
		c1.266-1.03,1.662-2.612,2.203-4.058c2.84-7.651,6.258-15.03,10.257-22.132c0.961-1.882,2.773-4.07,4.796-3.256
		c1.028,1.267,0.501,3.283,0.106,4.867c-2.955,8.942-6.769,17.904-11.313,26.166c6.985-1.441,14.11-3.029,20.484-6.178
		C185.521,135.48,191.133,130.205,193.418,123.424z M142.845,128.824c1.891-5.195,3.929-10.252,6.252-15.313l-0.137,0.144
		c0.131-0.431,0.558-0.584,0.982-0.736c0.892,1.413,0.209,3.003-0.472,4.593c-0.534,1.73-1.356,3.466-2.178,5.203
		C146.053,124.89,144.666,126.923,142.845,128.824z" class="color c3"/>
  </g>
</svg>