<svg version="1.1" id="图层_1" x="0px" y="0px" width="228.998px" height="208.425px" viewBox="0 0 228.998 208.425" enable-background="new 0 0 228.998 208.425" xml:space="preserve" xmlns="http://www.w3.org/2000/svg" xmlns:xlink="http://www.w3.org/1999/xlink" xmlns:xml="http://www.w3.org/XML/1998/namespace">
  <g>
    <path fill="#3C6527" d="M127.485,197.625c1.792-0.654,3.696-0.919,5.602-0.838c3.192,0.136,6.769,0.234,10.55,0.227
		c0.089,0,0.177,0,0.266,0c0.617-0.002,1.242-0.01,1.869-0.018c0.275-0.004,0.547-0.006,0.823-0.01
		c0.497-0.009,0.998-0.022,1.5-0.035c0.302-0.008,0.599-0.012,0.902-0.021c0-0.001-0.009-0.002-0.009-0.004
		c7.534-0.236,15.467-0.989,22.447-2.78c6.834-1.755,12.857-4.9,17.694-8.098c-0.005,0.005-0.01,0.01-0.014,0.014
		c0,0,0.004,0.004,0.008,0.003c0.345-0.228,0.659-0.457,0.992-0.686c0.39-0.267,0.782-0.533,1.155-0.798
		c0.323-0.231,0.626-0.457,0.936-0.687c0.445-0.328,0.882-0.652,1.297-0.973c0.234-0.181,0.453-0.355,0.678-0.533
		c0.444-0.351,0.872-0.693,1.279-1.03c0.222-0.184,0.431-0.359,0.643-0.537c0.316-0.267,0.62-0.526,0.91-0.779
		c0.137-0.119,0.295-0.249,0.426-0.365c2.132-1.891,3.465-3.301,3.879-3.75c0.012-0.013,0.013-0.014,0.024-0.026
		c0.075-0.082,0.128-0.14,0.128-0.14c-1.478,0.503-2.863,0.983-4.207,1.452c-0.056,0.02-0.112,0.039-0.168,0.059
		c-1.163,0.407-2.284,0.803-3.359,1.186c-0.142,0.051-0.3,0.106-0.441,0.156l0.001,0.001c-5.724,2.048-10.275,3.778-14.49,5.318
		c2.083-0.876,4.091-1.786,5.972-2.737c10.338-5.23,20.056-13.447,27.1-20.243v0.001c0.038-0.037,0.074-0.072,0.112-0.109
		c0.348-0.336,0.691-0.67,1.026-0.999c0.13-0.127,0.255-0.252,0.383-0.378c0.254-0.251,0.506-0.501,0.751-0.746
		c0.201-0.201,0.394-0.396,0.589-0.593c0.164-0.166,0.33-0.333,0.49-0.496c0.251-0.256,0.494-0.505,0.734-0.753
		c0.103-0.106,0.208-0.214,0.309-0.318c0.284-0.294,0.556-0.579,0.824-0.86c0.05-0.052,0.102-0.106,0.151-0.158
		c3.164-3.329,5.168-5.703,5.588-6.206c0.055-0.066,0.092-0.111,0.092-0.111c-5.301,3.081-10.632,6.148-15.832,9.114
		c-0.27,0.154-0.54,0.308-0.809,0.461c-0.981,0.559-1.948,1.107-2.917,1.657c-6.512,3.693-12.738,7.175-18.342,10.256
		c8.592-6.25,17.642-14.637,25.291-22.312c-0.002,0.003-0.011,0.018-0.011,0.018c0.255-0.256,0.501-0.507,0.754-0.762
		c0.119-0.12,0.237-0.239,0.355-0.359c0.513-0.519,1.018-1.033,1.516-1.543c0.147-0.151,0.292-0.3,0.438-0.45
		c0.459-0.471,0.912-0.938,1.356-1.4c0.181-0.188,0.358-0.372,0.536-0.558c0.408-0.426,0.812-0.847,1.207-1.262
		c0.197-0.207,0.389-0.41,0.583-0.615c0.359-0.379,0.715-0.754,1.061-1.123c0.226-0.24,0.444-0.473,0.664-0.708
		c0.308-0.329,0.614-0.656,0.911-0.975c0.232-0.25,0.455-0.491,0.681-0.734c0.271-0.293,0.541-0.585,0.802-0.867
		c0.239-0.259,0.465-0.507,0.695-0.757c0.227-0.248,0.455-0.497,0.673-0.736c0.243-0.267,0.472-0.519,0.704-0.774
		c0.195-0.215,0.392-0.432,0.579-0.638c0.215-0.238,0.415-0.461,0.619-0.687c0.179-0.199,0.362-0.403,0.532-0.593
		c0.204-0.228,0.391-0.438,0.582-0.652c0.148-0.165,0.3-0.337,0.439-0.493c0.217-0.244,0.412-0.465,0.607-0.686
		c0.085-0.096,0.178-0.201,0.259-0.293c0.195-0.222,0.367-0.418,0.538-0.613c0.073-0.083,0.153-0.174,0.221-0.252
		c0.149-0.17,0.273-0.312,0.398-0.457c0.064-0.074,0.138-0.159,0.197-0.226c0.108-0.125,0.19-0.219,0.276-0.32
		c0.052-0.06,0.114-0.131,0.158-0.182c0.049-0.057,0.075-0.087,0.114-0.133c0.141-0.164,0.236-0.275,0.236-0.275
		c-0.872,0.428-1.771,0.896-2.685,1.386c-0.281,0.151-0.569,0.312-0.853,0.468c-0.64,0.351-1.287,0.713-1.944,1.09
		c-0.35,0.201-0.703,0.406-1.058,0.614c-0.608,0.357-1.222,0.724-1.841,1.1c-0.382,0.232-0.762,0.46-1.149,0.699
		c-0.624,0.386-1.256,0.785-1.89,1.187c-0.833,0.528-1.673,1.07-2.52,1.622c-0.429,0.28-0.855,0.556-1.287,0.841
		c-0.643,0.426-1.29,0.861-1.938,1.298c-0.337,0.227-0.673,0.453-1.011,0.682c-0.662,0.45-1.323,0.903-1.988,1.361
		c-0.123,0.085-0.245,0.167-0.369,0.252c0.004-0.001,0.009-0.004,0.013-0.005c-6.682,4.62-13.438,9.607-19.532,14.114
		c9.977-10.558,18.97-23.58,25.971-36.142c-0.003,0.007-0.007,0.015-0.01,0.022c0.042-0.076,0.079-0.15,0.121-0.226
		c0.861-1.55,1.687-3.088,2.485-4.616c0.196-0.375,0.391-0.748,0.583-1.122c0.838-1.63,1.652-3.248,2.412-4.838
		c-0.168,0.068-0.359,0.17-0.57,0.297c-0.026,0.016-0.058,0.039-0.084,0.056c-0.189,0.118-0.392,0.252-0.613,0.413
		c-0.038,0.027-0.082,0.063-0.12,0.092c-0.219,0.162-0.448,0.338-0.694,0.539c-0.052,0.042-0.11,0.092-0.163,0.136
		c-0.243,0.2-0.494,0.411-0.761,0.645c-0.072,0.063-0.15,0.134-0.224,0.2c-0.254,0.225-0.513,0.456-0.786,0.708
		c-0.115,0.105-0.237,0.221-0.355,0.33c-0.24,0.224-0.482,0.45-0.735,0.692c-0.173,0.166-0.354,0.341-0.534,0.515
		c-0.201,0.195-0.402,0.389-0.61,0.593c-0.26,0.255-0.529,0.522-0.799,0.792c-0.128,0.128-0.255,0.254-0.385,0.385
		c-0.128,0.128-0.248,0.247-0.378,0.378c0.009-0.007,0.017-0.014,0.026-0.022c-8.773,8.864-22.464,24.468-32.818,35.613
		c6.991-8.796,13.249-18.148,18.672-28.017c-0.021,0.061-0.046,0.127-0.066,0.188c0.196-0.357,0.364-0.732,0.573-1.083
		c0.688-1.155,1.267-2.37,1.863-3.575c0.684-1.383,1.416-2.735,2.089-4.123c0.796-1.642,1.54-3.313,2.29-4.982
		c0.476-1.06,0.976-2.106,1.433-3.176c0.775-1.817,1.49-3.667,2.21-5.514c0.371-0.952,0.772-1.888,1.127-2.848
		c1.042-2.815,2.025-5.662,2.933-8.545c-6.303,8.32-26.512,34.166-38.235,49.961c0.908-1.704,1.807-3.442,2.693-5.228
		c6.951-14.014,11.809-31.758,14.083-48.8c0,0.005,0,0.011,0.001,0.016c0.005-0.036,0.008-0.072,0.012-0.108
		c0.241-1.812,0.448-3.613,0.63-5.404c0.049-0.483,0.086-0.959,0.131-1.44c0.121-1.299,0.228-2.59,0.316-3.871
		c0.042-0.602,0.078-1.198,0.113-1.796c0.07-1.207,0.122-2.4,0.162-3.586c0.018-0.545,0.042-1.092,0.054-1.632
		c0.038-1.681,0.054-3.343,0.029-4.968l-0.136,0.234c-2.237,5.691-4.395,11.269-6.526,16.799c0.005-0.007,0.007-0.013,0.012-0.021
		c-6.783,17.587-13.334,34.624-21.558,52.868c-0.465,1.02-0.921,2.004-1.375,2.972c8.02-21.695,12.973-44.695,12.261-65.965
		c-0.014-0.414-0.039-0.824-0.057-1.237c-0.06-1.363-0.14-2.718-0.248-4.065c-0.046-0.573-0.099-1.143-0.153-1.712
		c-0.115-1.2-0.252-2.39-0.408-3.575c-0.079-0.606-0.157-1.212-0.246-1.814c-0.179-1.199-0.389-2.386-0.612-3.568
		c-0.101-0.537-0.189-1.078-0.299-1.611c-0.349-1.689-0.732-3.364-1.174-5.015c-2.138,9.346-1.992,9.322-3.063,18.092
		c-0.328,2.68-0.713,5.301-1.125,7.897c-0.139,0.875-0.292,1.737-0.44,2.604c-1.928,11.313-4.587,21.997-7.647,32.8
		c1.201-21.173-0.833-42.322-5.333-61.484c0.004,0.008,0.008,0.02,0.013,0.028c-0.043-0.185-0.094-0.363-0.138-0.547
		c-0.424-1.783-0.869-3.547-1.335-5.293c-0.129-0.486-0.257-0.972-0.39-1.456c-0.547-1.99-1.111-3.964-1.711-5.9l-0.762-1.976
		c-0.008,1.702-0.03,3.448-0.058,5.208c-0.013,0.777-0.029,1.564-0.045,2.349c-0.02,0.98-0.041,1.963-0.066,2.953
		c-0.024,0.933-0.048,1.868-0.076,2.807c-0.024,0.842-0.052,1.685-0.079,2.529c-0.033,1.012-0.065,2.025-0.102,3.037
		c-0.02,0.553-0.042,1.103-0.064,1.656c-0.228,5.976-0.51,11.893-0.803,17.372c-0.889,16.75-2.977,30.066-5.245,44.244
		c-0.243,1.507-0.466,2.939-0.69,4.369c0.898-16.422-0.342-37.982-3.42-53.238c-1.534-7.606-2.992-16.639-4.548-25.708
		c0.148,0.632,0.283,1.182,0.399,1.615c-1.7-9.757-3.55-19.651-5.636-27.953l-0.136,22.091c-0.008,1.919-0.021,3.777-0.037,5.586
		c-0.01,1.079-0.023,2.118-0.035,3.162c-0.243,20.735-0.984,34.698-1.688,51.388c-1.772-14.748-4.271-25.929-11.656-50.344
		c0,0.001,0.001,0.002,0.002,0.002c-0.093-0.3-0.181-0.597-0.273-0.902C115.889,41.791,104.57,6.91,104.451,5.51
		c0.667,8.23,1.334,16.418,2.019,24.527c0.028,0.334,0.056,0.673,0.084,1.007c0-0.003,0.001-0.006,0.001-0.009
		c1.905,22.462,3.972,44.259,6.629,64.432c-9.689-35.603-16.23-55.496-25.635-83.006c-0.002-0.005-0.006-0.018-0.008-0.023
		c0.006,0.013,0.013,0.03,0.019,0.043c-0.256-0.739-3.099-9.298-3.373-10.036C83.673,1.055,83.075,0,83.075,0
		c-0.084,0.371-0.147,0.783-0.198,1.216c-0.017,0.143-0.026,0.297-0.04,0.446c-0.028,0.303-0.054,0.609-0.071,0.931
		c-0.009,0.184-0.015,0.373-0.021,0.562c-0.01,0.306-0.018,0.611-0.021,0.925c-0.001,0.201-0.002,0.399-0.001,0.601
		c0.002,0.32,0.005,0.638,0.012,0.96c0.004,0.192,0.007,0.381,0.013,0.572c0.009,0.345,0.021,0.682,0.034,1.02
		c0.006,0.166,0.011,0.33,0.019,0.493c0.02,0.477,0.04,0.94,0.059,1.38c0.006,0.142,0.01,0.265,0.016,0.402
		c0.012,0.281,0.024,0.565,0.033,0.821c0.011,0.361,0.016,0.725,0.023,1.098c0,0.021,0.007,0.048,0.003,0.073
		c0,0,0.003-0.008,0.004-0.013c0.551,21.336,4.336,57.538,7.47,79.368c-3.772-9.205-7.727-19.795-11.258-31.647
		c-1.098-3.686-2.251-7.408-3.405-11.036c0.002,0.005,0.006,0.014,0.009,0.018c-0.437-1.375-0.873-2.728-1.308-4.068
		c-0.023-0.071-0.046-0.142-0.069-0.213c-0.35-1.078-0.696-2.14-1.04-3.187c-0.06-0.182-0.119-0.362-0.179-0.543
		c-0.319-0.97-0.634-1.923-0.946-2.858c-0.054-0.163-0.109-0.33-0.163-0.492c-0.358-1.075-0.712-2.13-1.055-3.147
		c-0.009-0.028-0.018-0.053-0.027-0.081c-0.323-0.957-0.635-1.879-0.941-2.775c-0.107-0.316-0.209-0.613-0.314-0.921
		c-0.199-0.583-0.395-1.154-0.584-1.707c-0.122-0.356-0.24-0.697-0.358-1.039c-0.164-0.476-0.322-0.933-0.477-1.382
		c-0.118-0.342-0.236-0.68-0.349-1.005c-0.147-0.423-0.284-0.815-0.421-1.208c-0.097-0.279-0.199-0.571-0.291-0.834
		c-0.206-0.589-0.399-1.137-0.576-1.641c-0.092-0.26-0.168-0.477-0.252-0.713c-0.102-0.288-0.201-0.568-0.29-0.819
		c-0.061-0.172-0.112-0.316-0.166-0.469c-0.096-0.269-0.18-0.506-0.256-0.718c-0.041-0.114-0.073-0.205-0.108-0.302
		c-0.047-0.132-0.084-0.235-0.12-0.335c-0.101-0.28-0.171-0.476-0.171-0.476c0.097,1.946,0.176,3.835,0.252,5.706
		c0.087,2.151,0.17,4.275,0.256,6.386c0.005,0.122,0.011,0.246,0.016,0.368c0.068,1.651,0.145,3.305,0.23,4.968
		c0.021,0.411,0.042,0.825,0.065,1.238c0.1,1.831,0.214,3.684,0.354,5.576c0.004,0.058,0.007,0.112,0.011,0.17
		c0.001-0.007,0.001-0.015,0.001-0.023c0.998,13.378,3.239,28.794,9.891,53.256c1.546,5.683,3.626,11.657,6.066,17.746
		c-6.164-10.923-12.421-22.493-18.328-33.576h0.001c-0.092-0.167-0.186-0.343-0.273-0.508C57.093,66.314,42.6,37.368,42.6,37.368
		c0.959,4.147,1.96,8.23,3.001,12.264c0.235,0.908,0.492,1.791,0.731,2.694c0.817,3.089,1.642,6.17,2.514,9.202
		c0.038,0.131,0.071,0.267,0.109,0.398c-0.003-0.025-0.008-0.052-0.012-0.077c5.868,20.349,13.052,39.48,22.092,58.369
		c-0.025-0.032-0.052-0.069-0.077-0.101C57.352,102.451,50.9,92.464,41.689,79.686c-0.087-0.12-0.175-0.242-0.262-0.362
		c-1.643-2.276-3.387-4.655-5.266-7.173c-0.359-0.482-0.719-0.963-1.089-1.456c-0.452-0.601-0.916-1.215-1.385-1.835
		c-0.481-0.635-0.977-1.285-1.478-1.941c-0.42-0.549-0.836-1.095-1.271-1.659c-0.956-1.241-1.939-2.511-2.974-3.835l-8.89-12.181
		c0.777,2.55,1.604,5.073,2.468,7.577c0.277,0.802,0.579,1.591,0.865,2.389c0.608,1.7,1.221,3.397,1.869,5.076
		c0.35,0.907,0.722,1.803,1.083,2.704c0.627,1.565,1.26,3.127,1.921,4.674c0.592,1.387,1.22,2.755,1.815,4.141
		c0.344,0.802,1.002,2.221,1.385,3.005c0.203,0.415,0.379,0.845,0.578,1.263c-0.019-0.056-0.041-0.122-0.06-0.179
		c10.482,22.112,24.311,42.384,40.333,61.189c-1.349-1.348-2.676-2.685-3.96-4.001C48.204,117.445,23.266,90.236,9.213,75.564
		c0,0,0.085,0.214,0.233,0.59c-0.007-0.008-0.015-0.016-0.023-0.024c0,0,5.358,13.622,5.88,14.718
		c1.374,2.903,2.865,5.76,4.506,8.611c-0.086-0.229-0.198-0.495-0.303-0.752c8.611,15.059,21.33,30.049,42.857,50.913
		c-8.153-5.97-16.388-12.322-24.387-19.056c-4.288-3.609-14.549-12.761-23.326-20.638c0.023,0.019,0.05,0.041,0.072,0.06
		c-2.816-2.524-5.474-4.913-7.743-6.957C2.83,99.292,0,96.732,0,96.732c0.457,1.051,0.963,2.116,1.491,3.187
		c0.17,0.346,0.346,0.693,0.524,1.041c0.417,0.815,0.853,1.635,1.309,2.459c0.184,0.334,0.361,0.666,0.552,1.001
		c0.465,0.819,0.947,1.64,1.448,2.465c0,0-0.036-0.068-0.093-0.18c9.81,16.244,26.52,33.824,45.938,49.208
		c-8.713-5.096-17.428-10.242-26.154-15.311c0.002,0.001,0.007,0.004,0.009,0.005c-0.051-0.03-0.103-0.059-0.154-0.089
		c-3.279-1.905-6.56-3.793-9.844-5.667c-0.675-0.386-1.351-0.771-2.026-1.156c-3.488-1.982-6.978-3.95-10.472-5.879
		c0.806,1.458,1.71,2.895,2.657,4.322c0.239,0.359,0.482,0.717,0.729,1.075c0.941,1.362,1.925,2.713,2.987,4.046
		c0.043,0.054,0.081,0.109,0.125,0.163c1.123,1.403,2.33,2.785,3.578,4.154c0.278,0.304,0.56,0.607,0.844,0.91
		c1.22,1.303,2.481,2.594,3.806,3.864c0.042,0.04,0.079,0.083,0.122,0.124c-0.003-0.004-0.008-0.01-0.011-0.014
		c9.058,8.653,20.47,16.511,33.041,23.354c-9.967-3.195-19.978-6.193-28.873-9.521c-1.067-0.399-2.118-0.804-3.152-1.214
		c-0.369-0.146-0.729-0.296-1.094-0.444c-0.821-0.334-1.631-0.671-2.427-1.013c-0.379-0.163-0.756-0.327-1.129-0.492
		c-0.799-0.353-1.58-0.713-2.349-1.076c-0.318-0.15-0.641-0.298-0.953-0.45c-1.059-0.515-2.094-1.039-3.088-1.577
		c0.664,0.969,1.373,1.906,2.112,2.821c0.239,0.296,0.498,0.578,0.745,0.869c0.516,0.608,1.036,1.214,1.582,1.799
		c0.311,0.334,0.637,0.655,0.958,0.982c0.512,0.52,1.028,1.037,1.562,1.539c0.356,0.334,0.72,0.66,1.085,0.987
		c0.528,0.472,1.064,0.938,1.611,1.394c0.387,0.323,0.778,0.642,1.174,0.957c0.55,0.438,1.11,0.866,1.676,1.289
		c0.409,0.306,0.817,0.612,1.234,0.91c0.58,0.415,1.17,0.818,1.764,1.218c0.419,0.283,0.833,0.57,1.258,0.845
		c0.618,0.401,1.247,0.787,1.877,1.174c0.415,0.254,0.823,0.517,1.242,0.765c0.035,0.021,0.069,0.043,0.104,0.064
		c-0.005-0.003-0.022-0.016-0.029-0.021c9.884,5.849,20.889,9.999,30.071,13.286c1.656,0.593,3.173,1.124,4.631,1.626
		c-4.161-0.677-8.728-1.493-14.07-2.549c-3.59-0.712-9.904-1.865-16.583-2.896c0.005,0,0.01,0,0.015,0
		c-0.117-0.018-0.236-0.035-0.354-0.053c-1.156-0.178-2.318-0.35-3.481-0.516c-0.241-0.035-0.478-0.068-0.719-0.102
		c-1.257-0.177-2.504-0.345-3.734-0.501c-0.114-0.014-0.226-0.028-0.34-0.042c-1.307-0.164-2.589-0.314-3.826-0.445
		c-0.034-0.004-0.067-0.007-0.102-0.01c-1.28-0.134-2.519-0.251-3.682-0.34c0,0,0.078,0.068,0.232,0.194
		c0.022,0.018,0.055,0.044,0.08,0.064c0.065,0.052,0.13,0.105,0.216,0.173c0.027,0.021,0.063,0.049,0.092,0.072
		c0.097,0.077,0.198,0.155,0.319,0.248c0.046,0.035,0.103,0.077,0.153,0.115c0.119,0.09,0.238,0.18,0.376,0.283
		c0.059,0.044,0.13,0.095,0.194,0.141c0.147,0.108,0.295,0.215,0.461,0.334c0.068,0.048,0.145,0.102,0.216,0.152
		c0.178,0.126,0.358,0.253,0.558,0.39c0.08,0.055,0.17,0.115,0.253,0.171c0.206,0.14,0.413,0.281,0.638,0.43
		c0.102,0.068,0.215,0.14,0.322,0.21c0.223,0.146,0.447,0.292,0.688,0.446c0.121,0.077,0.251,0.158,0.376,0.236
		c0.249,0.157,0.5,0.314,0.767,0.478c0.133,0.081,0.275,0.166,0.412,0.249c0.274,0.166,0.55,0.332,0.842,0.503
		c0.157,0.092,0.324,0.187,0.486,0.282c0.292,0.169,0.586,0.338,0.895,0.512c0.18,0.101,0.37,0.205,0.555,0.308
		c0.308,0.171,0.617,0.341,0.941,0.516c0.212,0.114,0.433,0.23,0.651,0.345c0.318,0.168,0.637,0.336,0.969,0.507
		c0.243,0.125,0.496,0.251,0.747,0.378c0.327,0.165,0.654,0.329,0.994,0.496c0.278,0.137,0.567,0.274,0.855,0.412
		c0.228,0.109,0.445,0.217,0.678,0.327c-0.007-0.005-0.018-0.012-0.025-0.017c9.583,4.513,23.92,9.524,43.404,11.96
		c-3.909,0.152-7.445,0.238-10.976,0.304c-0.287,0.005-0.574,0.011-0.861,0.016c-0.274,0.005-0.552,0.009-0.827,0.014
		c-4.001,0.068-8.105,0.122-12.838,0.224c-0.292,0.006-0.568,0.011-0.865,0.018c-0.475,0.011-0.983,0.024-1.472,0.036
		c-1.757,0.042-3.579,0.09-5.547,0.15c0,0,0.039,0.017,0.097,0.042c0.026,0.011,0.038,0.016,0.077,0.033
		c0.093,0.04,0.214,0.091,0.387,0.162c0.002,0.001,0.005,0.002,0.008,0.003c0.159,0.066,0.36,0.147,0.583,0.235
		c0.059,0.024,0.114,0.045,0.177,0.07c0.247,0.097,0.517,0.202,0.828,0.32c0.048,0.018,0.103,0.038,0.153,0.057
		c0.279,0.105,0.583,0.217,0.909,0.335c0.094,0.034,0.185,0.067,0.283,0.102c0.389,0.139,0.802,0.284,1.25,0.438
		c0.076,0.026,0.159,0.053,0.237,0.079c0.396,0.134,0.814,0.272,1.253,0.414c0.125,0.04,0.245,0.079,0.373,0.12
		c0.515,0.164,1.053,0.331,1.62,0.502c0.118,0.035,0.241,0.071,0.362,0.107c0.494,0.147,1.008,0.295,1.539,0.444
		c0.149,0.042,0.293,0.083,0.444,0.125c0.631,0.174,1.285,0.349,1.964,0.524c0.152,0.039,0.31,0.078,0.465,0.117
		c0.587,0.148,1.19,0.295,1.809,0.441c0.169,0.04,0.334,0.08,0.506,0.119c0.734,0.169,1.491,0.335,2.267,0.498
		c0.186,0.039,0.376,0.077,0.565,0.115c0.679,0.139,1.373,0.274,2.082,0.405c0.171,0.031,0.336,0.064,0.509,0.095
		c0.829,0.149,1.678,0.291,2.543,0.428c0.219,0.034,0.442,0.067,0.664,0.101c0.773,0.117,1.559,0.228,2.359,0.332
		c0.157,0.02,0.309,0.042,0.467,0.062c0.915,0.115,1.85,0.218,2.798,0.312c0.109,0.011,0.213,0.025,0.323,0.036
		c-0.003-0.001-0.055-0.009-0.092-0.014c5.516,0.538,11.549,0.713,17.896,0.228c7.236-0.558,15.645-2.59,23.475-4.961
		c-0.024,0.009-0.05,0.019-0.074,0.027c0.349-0.105,0.69-0.214,1.036-0.321c0.435-0.134,0.87-0.268,1.301-0.403
		c0.429-0.135,0.851-0.271,1.275-0.408c0.49-0.158,0.98-0.315,1.463-0.474c0.312-0.103,0.616-0.206,0.925-0.308
		c0.595-0.199,1.188-0.397,1.769-0.595c0.115-0.039,0.225-0.078,0.339-0.117c2.882-0.99,5.563-1.966,7.943-2.865
		C127.305,197.693,127.389,197.66,127.485,197.625z" class="color c1"/>
  </g>
  <path fill="#FFFFFF" d="M76.742,197.509c1.704-1.292,3.466-2.627,5.264-4.201c0.275-0.24,0.548-0.478,0.821-0.716
	c1.081-0.386,4.058-0.928,7.559-1.553c0.022,0.021,0.042,0.039,0.066,0.06c0.719,0.645,1.953,1.584,2.997,2.275
	c-3.356,3.752,3.163,11.098,7.019,6.295c3.898-4.857-0.867-9.777-5.657-7.35c-0.091,0.046-0.151,0.106-0.236,0.154
	c-0.72-0.453-1.662-1.129-2.436-1.746c3.797-0.679,8.149-1.48,11.614-2.338c-0.024,3.451,7.076,7.313,9.153,2.443
	c2.313-5.419-4.817-8.804-8.545-4.018c-0.302,0.08-0.6,0.16-0.919,0.24c1.781-1.996,2.489-5.203,0.227-7.334
	c-3.054-2.874-10.046,2.396-7.254,6.869c0.24,0.384,0.495,0.705,0.758,0.985c-0.325,0.351-0.63,0.694-0.875,0.997
	c-1.897,0.359-3.794,0.698-5.531,1.008c-2.205,0.393-4.163,0.743-5.686,1.053c5.617-4.87,10.828-9.271,15.892-13.547
	c0.652-0.551,1.31-1.107,1.97-1.664c5.784,1.078,11.559,3.682,17.151,6.208c0.215,0.098,0.433,0.195,0.65,0.293
	c0.218,0.372,0.501,0.81,0.801,1.258c-2.948,0.894-2.676,5.037,1.458,6.605c2.446,0.927,5.442-3.008,3.623-5.294
	c0.313,0.13,0.628,0.243,0.942,0.369c-0.419,1.033-0.231,2.498,1.08,4.372c3.747,5.356,8.883-1.859,4.641-5.174
	c-1.487-1.161-3.58-1.222-4.841-0.324c-1.507-0.597-3.015-1.226-4.512-1.887c0.09-0.052,0.195-0.107,0.291-0.16
	c0.285,0.238,0.608,0.462,1.023,0.648c6,2.568,8.941-7.024,3.046-7.973c-2.588-0.417-6.105,3.506-4.919,6.228
	c-0.358,0.203-0.69,0.401-0.958,0.58c-0.589-0.264-1.176-0.529-1.757-0.792c-5.32-2.404-10.804-4.881-16.375-6.092
	c2.813-2.379,5.7-4.828,8.682-7.386c0.457-0.407,0.901-0.845,1.336-1.302l0.005,0.013c0.539-0.213,1.474-0.326,2.658-0.468
	c1.728-0.207,4.094-0.492,6.951-1.294c8.021-2.252,16.849,2.926,23.051,7.895c-0.744,0.8-1.169,1.933-0.989,3.416
	c0.708,5.835,9.411,4.726,8.802-1.717c-0.28-2.968-4.148-3.87-6.675-2.543c-3.544-2.871-7.959-5.842-12.666-7.54
	c0.91-0.377,1.954-0.751,2.734-0.972c0.474,1.047,1.419,1.862,2.942,2.057c5.395,0.691,8.139-5.683,2.714-7.996
	c-3.854-1.643-6.26,1.743-5.998,4.615c-1.216,0.343-3.216,1.094-4.333,1.677c-0.664-0.185-1.332-0.341-2.002-0.465
	c0.025-0.048,0.056-0.101,0.083-0.15c4.643,1.555,7.376-6.792,2.955-8.382c-4.534-1.631-8.373,4.922-4.182,7.776
	c-0.097,0.182-0.202,0.371-0.287,0.541c-2.18-0.249-4.371-0.135-6.52,0.468c-2.756,0.774-5.061,1.05-6.744,1.253
	c-0.363,0.044-0.696,0.084-1.006,0.125c1.163-1.404,2.263-2.918,3.341-4.405c2.274-3.133,4.625-6.372,7.396-8.303
	c2.341-1.542,5.518-2.266,8.882-3.033c4.866-1.109,9.893-2.255,12.644-6.094c0.16-0.016,0.319-0.029,0.478-0.039l0.006,0.003
	c0-0.001,0.001-0.003,0.002-0.004c0.966-0.063,1.906-0.006,2.839,0.13c0.636,0.854,1.632,2.017,2.455,2.852
	c-4.27,2.204-1.241,10.514,4.03,9.562c6.696-1.035,3.597-10.774-2.407-10.065c-0.051,0.006-0.089,0.024-0.139,0.032
	c-0.48-0.426-1.191-1.184-1.85-1.962c0.983,0.244,1.969,0.542,2.973,0.846c3.165,0.959,6.438,1.931,10.179,1.321
	c0.02,2.165,1.747,4.344,4.764,4.196c5.973-0.293,6.292-8.112,0.584-8.32c-2.927-0.106-4.555,1.187-5.115,2.78l-0.015-0.073
	c-1.74,0.346-3.395,0.296-4.996,0.046c0.043-0.085,0.096-0.181,0.142-0.269c4.311,1.35,7.283-6.447,3.932-9.428
	c-0.522-0.464-1.078-0.773-1.645-0.951c-0.313,0.681-0.628,1.366-0.937,2.026c0.255-0.69,0.498-1.385,0.747-2.077
	c-4.028-1.058-8.42,4.404-4.36,8.932c0.348,0.364,0.693,0.658,1.033,0.898c-0.106,0.204-0.218,0.414-0.309,0.603
	c-1.225-0.275-2.423-0.638-3.606-0.995c-2.389-0.724-4.845-1.467-7.468-1.478c0.805-1.242,1.911-2.745,2.838-3.861
	c0.023,0.007,0.038,0.018,0.062,0.026c5.972,1.837,8.268-7.932,4.378-9.149c-4.21-1.316-8.185,3.294-7.248,6.56
	c-0.809-1.72-2.31-3.247-3.935-3.692c-5.791-1.586-6.076,10.159,0.304,9.811c0.318-0.017,0.592-0.068,0.87-0.114
	c0.05,0.449,0.106,0.872,0.171,1.226c-2.489,3.282-7.171,4.351-11.706,5.385c-2.985,0.68-6.058,1.384-8.51,2.734
	c0.211-0.871,0.503-1.873,0.779-2.661c0.525-0.078,1.071-0.24,1.65-0.576c5.31-3.078,2.467-10.526-2.571-9.185
	c-5.386,1.435-4.202,8.673-0.508,9.7c-0.403,1.228-0.829,2.83-0.969,3.809c-2.623,2.083-4.822,5.108-6.955,8.045
	c-1.871,2.578-3.806,5.243-5.965,7.173c-3.27,2.804-6.432,5.483-9.509,8.083c-0.015-0.002-0.031-0.005-0.045-0.008l-0.009,0.054
	c-0.81,0.684-1.614,1.362-2.411,2.036c-2.77,2.34-5.584,4.716-8.483,7.185c-0.086-3.026,0.553-6.92,1.615-10.922
	c1.031-0.279,2.849-0.979,4.086-1.58c0.596,0.497,1.448,0.824,2.647,0.842c5.999-0.023,9.313-7.685,3.221-8.976
	c-4.44-0.942-7.785,4.09-6.67,7.006c-0.833,0.389-1.935,0.832-2.848,1.14c1.318-4.534,3.126-9.064,4.99-12.53
	c1.33-0.976,2.06-2.303,2.271-3.618c8.153-9.148,10.489-15.827,10.273-28.103c-0.005-0.262-0.017-0.528-0.033-0.796
	c0.225-0.318,0.484-0.723,0.749-1.153c1.745,1.746,5.093,1.752,7.604-2.003c4.039-6.694-3.717-11.193-7.972-3.71
	c-0.947,1.664-0.984,3.237-0.474,4.459c-0.053,0.091-0.105,0.183-0.159,0.273c-0.374-2.131-1.119-4.284-2.261-6.13
	c0.121-0.398,0.318-0.918,0.535-1.459c3.29,0.175,5.652-5.501,2.814-8.821c-3.335-3.904-9.973,2.355-5.561,7.294
	c0.475,0.532,0.953,0.887,1.424,1.139c-0.063,0.158-0.13,0.32-0.188,0.473c-0.857-1.055-1.886-1.94-3.075-2.599
	c0.062-0.347,0.084-0.712,0.053-1.099c-0.683-8.29-12.055-7.374-12.179-0.115c-0.314,6.438,9.167,6.59,11.606,2.527
	c3.84,2.236,5.67,7.389,5.746,11.746c0.002,0.112,0.004,0.224,0.005,0.335c-0.931-0.431-2.224-1.154-3.145-1.753
	c0.675-2.054-0.64-4.474-3.525-5.069c-5.074-1.045-6.781,8.656-0.856,8.075c1.767-0.244,2.974-0.936,3.708-1.812
	c1.128,0.726,2.801,1.652,3.824,2.054c-0.043,10.328-2.259,16.361-9,24.241c-0.506-1.891-2.218-3.209-4.839-2.371
	c-3.346,1.07-4.127,5.239-2.817,7.551c-0.031,0.037-0.063,0.078-0.094,0.113c-1.048-2.852-0.958-4.634-0.537-5.743
	c4.849-2.243,2.023-8.159-1.702-9.181c-4.68-1.282-4.114,9.976,0.158,9.638c-0.209,1.097-0.12,2.381,0.225,3.822
	c-1.789-3.348-8.65-4.335-9.255,0.907c-0.642,5.562,9.026,6.608,9.631,1.249c0.103,0.033,0.221,0.078,0.318,0.107
	c0.607,1.575,1.478,3.309,2.613,5.2c-2.721,6.913-4.702,15.097-4.241,20.42l0.07-0.006c-2.975,2.539-6.045,5.183-9.258,7.994
	c-1.761,1.541-3.504,2.862-5.19,4.139c-1.396,1.058-2.802,2.125-4.252,3.335c0.569,0.077,1.128,0.159,1.706,0.231
	c-0.705,0.027-1.385,0.05-2.068,0.074c-2.209,1.872-4.526,4.103-7.063,7.163c0.529,0.079,1.065,0.153,1.606,0.226
	C69.873,202.716,73.34,200.087,76.742,197.509z" class="color c2"/>
</svg>