<svg version="1.1" id="图层_1" x="0px" y="0px" width="107.729px" height="34.59px" viewBox="0 0 107.729 34.59" enable-background="new 0 0 107.729 34.59" xml:space="preserve" xmlns="http://www.w3.org/2000/svg" xmlns:xlink="http://www.w3.org/1999/xlink" xmlns:xml="http://www.w3.org/XML/1998/namespace">
  <g>
    <path fill="#FFFFFF" d="M107.681,0.914c-0.07-0.141-0.258-0.188-0.399-0.117l-0.891,0.516V0.281c0-0.164-0.141-0.281-0.281-0.281
		s-0.281,0.141-0.281,0.281v1.032l-0.891-0.516c-0.141-0.07-0.328-0.023-0.399,0.117c-0.07,0.141-0.023,0.328,0.117,0.399
		l0.891,0.516l-0.891,0.516c-0.141,0.07-0.188,0.258-0.117,0.399c0.047,0.094,0.164,0.141,0.258,0.141
		c0.047,0,0.094-0.023,0.141-0.047l0.891-0.516v1.032c0,0.164,0.141,0.281,0.281,0.281c0.141,0,0.281-0.141,0.281-0.281V2.321
		l0.891,0.516c0.047,0.023,0.094,0.047,0.141,0.047c0.094,0,0.211-0.047,0.258-0.141c0.07-0.141,0.023-0.328-0.117-0.399
		l-0.891-0.516l0.891-0.516C107.728,1.219,107.775,1.055,107.681,0.914z" class="color c1"/>
    <path fill="#FFFFFF" d="M43.84,2.227c-0.07-0.141-0.258-0.188-0.399-0.117L42.55,2.626V1.594c0-0.164-0.141-0.281-0.281-0.281
		c-0.141,0-0.281,0.141-0.281,0.281v1.032L41.097,2.11c-0.141-0.07-0.328-0.023-0.399,0.117c-0.07,0.141-0.023,0.328,0.117,0.399
		l0.891,0.516l-0.891,0.516c-0.141,0.07-0.188,0.258-0.117,0.399c0.047,0.094,0.164,0.141,0.258,0.141
		c0.047,0,0.094-0.023,0.141-0.047l0.891-0.516v1.032c0,0.164,0.141,0.281,0.281,0.281c0.141,0,0.281-0.141,0.281-0.281V3.634
		l0.891,0.516c0.047,0.023,0.094,0.047,0.141,0.047c0.094,0,0.211-0.047,0.258-0.141c0.07-0.141,0.023-0.328-0.117-0.399
		l-0.891-0.516l0.891-0.516C43.886,2.532,43.933,2.368,43.84,2.227z" class="color c1"/>
    <path fill="#FFFFFF" d="M3.174,2.731c-0.07-0.141-0.258-0.188-0.399-0.117L1.884,3.13V2.098c0-0.164-0.141-0.281-0.281-0.281
		S1.322,1.958,1.322,2.098V3.13L0.431,2.614C0.29,2.544,0.103,2.591,0.032,2.731C-0.038,2.872,0.009,3.059,0.15,3.13L1.04,3.645
		L0.15,4.161C0.009,4.232-0.038,4.419,0.032,4.56C0.079,4.654,0.196,4.7,0.29,4.7c0.047,0,0.094-0.023,0.141-0.047l0.891-0.516
		v1.032c0,0.164,0.141,0.281,0.281,0.281S1.884,5.31,1.884,5.169V4.138l0.891,0.516C2.822,4.677,2.869,4.7,2.916,4.7
		c0.094,0,0.211-0.047,0.258-0.141c0.07-0.141,0.023-0.328-0.117-0.399L2.166,3.645L3.057,3.13C3.221,3.036,3.268,2.872,3.174,2.731
		z" class="color c1"/>
    <path fill="#FFFFFF" d="M80.103,8.56c-0.07-0.141-0.258-0.188-0.399-0.117l-0.891,0.516V7.927c0-0.164-0.141-0.281-0.281-0.281
		c-0.141,0-0.281,0.141-0.281,0.281v1.032l-0.891-0.516c-0.141-0.07-0.328-0.023-0.399,0.117s-0.023,0.328,0.117,0.399l0.891,0.516
		L77.079,9.99c-0.141,0.07-0.188,0.258-0.117,0.399c0.047,0.094,0.164,0.141,0.258,0.141c0.047,0,0.094-0.023,0.141-0.047
		l0.891-0.516v1.032c0,0.164,0.141,0.281,0.281,0.281s0.281-0.141,0.281-0.281V9.966l0.891,0.516
		c0.047,0.023,0.094,0.047,0.141,0.047c0.094,0,0.211-0.047,0.258-0.141c0.07-0.141,0.023-0.328-0.117-0.399l-0.891-0.516
		l0.891-0.516C80.15,8.864,80.197,8.7,80.103,8.56z" class="color c1"/>
    <path fill="#FFFFFF" d="M94.409,31.32c-0.085-0.169-0.31-0.226-0.479-0.141l-1.071,0.62v-1.24c0-0.197-0.169-0.338-0.338-0.338
		s-0.338,0.169-0.338,0.338v1.24l-1.071-0.62c-0.169-0.085-0.395-0.028-0.479,0.141s-0.028,0.395,0.141,0.479l1.071,0.62
		l-1.071,0.62c-0.169,0.085-0.226,0.31-0.141,0.479c0.056,0.113,0.197,0.169,0.31,0.169c0.056,0,0.113-0.028,0.169-0.056l1.071-0.62
		v1.24c0,0.197,0.169,0.338,0.338,0.338c0.169,0,0.338-0.169,0.338-0.338v-1.24l1.071,0.62c0.056,0.028,0.113,0.056,0.169,0.056
		c0.113,0,0.254-0.056,0.31-0.169c0.085-0.169,0.028-0.395-0.141-0.479l-1.071-0.62l1.071-0.62
		C94.466,31.687,94.522,31.489,94.409,31.32z" class="color c1"/>
    <path fill="#FFFFFF" d="M17.181,16.478c-0.085-0.169-0.31-0.226-0.479-0.141l-1.071,0.62v-1.24c0-0.197-0.169-0.338-0.338-0.338
		s-0.338,0.169-0.338,0.338v1.24l-1.071-0.62c-0.169-0.085-0.395-0.028-0.479,0.141s-0.028,0.395,0.141,0.479l1.071,0.62
		l-1.071,0.62c-0.169,0.085-0.226,0.31-0.141,0.479c0.056,0.113,0.197,0.169,0.31,0.169c0.056,0,0.113-0.028,0.169-0.056l1.071-0.62
		v1.24c0,0.197,0.169,0.338,0.338,0.338c0.169,0,0.338-0.169,0.338-0.338v-1.24l1.071,0.62c0.056,0.028,0.113,0.056,0.169,0.056
		c0.113,0,0.254-0.056,0.31-0.169c0.085-0.169,0.028-0.395-0.141-0.479l-1.071-0.62l1.071-0.62
		C17.237,16.845,17.294,16.648,17.181,16.478z" class="color c1"/>
  </g>
</svg>