<svg version="1.1" id="图层_1" x="0px" y="0px" width="198.158px" height="37.473px" viewBox="0 0 198.158 37.473" enable-background="new 0 0 198.158 37.473" xml:space="preserve" xmlns:xml="http://www.w3.org/XML/1998/namespace" xmlns="http://www.w3.org/2000/svg" xmlns:xlink="http://www.w3.org/1999/xlink">
  <path fill="#E4E8B5" d="M187.725,24.231c-0.008,0.004-0.013,0.004-0.021,0.008c-0.006-0.016-0.015-0.031-0.021-0.047l-0.001-0.001
	V24.19l0.001,0.001c0.01,0,0.018,0.003,0.027,0.004C187.714,24.208,187.722,24.217,187.725,24.231L187.725,24.231
	C187.726,24.232,187.726,24.232,187.725,24.231L187.725,24.231z M122.524,8.86c-0.007,0.019-0.006,0.033-0.011,0.052
	c0.009-0.004,0.014-0.003,0.023-0.007l-0.002-0.012c0.01-0.03,0.012-0.053,0.018-0.079c-0.01,0.013-0.021,0.021-0.03,0.036
	L122.524,8.86z M195.623,29.307c-3.364,0.339-6.037-1.201-8.405-3.376c-0.652-0.6-1.242-1.301-1.558-2.171
	c-0.882-1.443-2.282-1.699-3.816-1.689c-1.756,0.011-3.354,0.656-4.981,1.188h-0.001c0.439,0.893,1.353,0.732,2.097,0.929
	c1.596,0.419,3.109,1.003,4.398,2.065c0.572,0.475,1.063,1.024,1.352,1.72c0.52,1.255,0.07,2.11-1.285,2.269
	c-1.939,0.225-3.705-0.293-5.256-1.499h0.001c-0.255-0.696-0.05-0.917,0.649-0.631c0,0,0,0,0,0.001
	c1.157,0.33,2.189,1.061,3.438,1.079c0.307,0.005,0.719-0.008,0.896-0.191c0.311-0.317,0.139-0.783-0.072-1.112
	c-0.628-0.984-1.559-1.62-2.602-2.105c-1.327-0.62-2.751-0.908-4.178-1.187c0,0.001,0,0.001,0,0.001
	c-0.624,1.182,0.529,1.533,1.028,2.185c0.21,0.273,0.415,0.577,0.198,0.865c-0.314,0.423-0.729,0.24-1.053-0.032
	c-0.811-0.678-1.57-1.403-2.06-2.673c-2.757,1.678-4.963,4.08-8.402,5.193c0.938,0.646,1.57,1.063,2.185,1.509
	c1.213,0.881,2.229,1.941,2.783,3.358c0.524,1.346-0.021,2.247-1.455,2.439c-1.014,0.136-1.949-0.201-2.818-0.675
	c-1.923-1.048-3.535-2.454-4.225-4.583c-0.379-1.172-1.037-1.41-2.138-1.451c-3.952-0.148-7.493-1.519-10.674-3.853
	c-0.187,0-0.375,0-0.562,0c0.144,1.035,0.416,2.071,0.404,3.104c-0.033,2.583-1.322,3.269-3.803,2.122
	c-0.428-0.05-0.602-0.327-0.641-0.723c-1.406-1.852-1.59-3.909-0.756-5.99c0.547-1.36,0.332-2.217-0.84-3.121
	c-2.185-1.688-4.242-3.533-6.354-5.313c-0.183-0.224-0.427-0.615-0.662-0.43c-0.329,0.257-0.103,0.688,0.06,1.03
	c-0.014,1.511,0.54,3.156-1.02,4.303c0.001,0,0.001,0,0.001,0c-0.001,0-0.001,0-0.002,0.001c-1.737,0.677-1.893,0.625-3.185-1.065
	c0.012-0.004,0.021-0.012,0.031-0.017c-0.012,0.005-0.021,0.013-0.033,0.018c-1.363-2.104-1.384-4.461-1.104-6.801
	c0.146-1.222-0.104-1.95-1.184-2.577c-1.973-1.144-3.903-2.345-6.188-2.778c-0.438-0.083-0.924-0.325-1.282,0.171
	c0.095-0.438-0.344-0.315-0.56-0.428c-0.24,0.609-0.019,0.733,0.521,0.526c-0.275,0.914,0.691,1.053,1.067,1.527
	c0.869,1.098,1.807,2.133,2.094,3.555c0.282,1.396-0.246,2-1.679,1.962c-1.297-0.034-2.328-0.692-3.321-1.435
	c-1.806-1.348-3.064-3.161-4.287-5.005c0.37-0.036,0.741-0.072,1.112-0.107c1.021,1.48,2.007,2.989,3.418,4.146
	c0.979,0.804,2.007,1.509,3.483,1.592c0.013-1.387-0.502-2.321-1.168-3.128c-0.877-1.065-1.883-2.023-2.832-3.027
	c0.443-0.03,0.601-0.813,1.037-0.862c-0.44,0.044-0.597,0.832-1.041,0.862c-1.072-0.591-2.052-0.535-2.901,0.416
	c-0.371,0.035-0.742,0.071-1.113,0.107c-3.055,1.438-4.957,4.062-6.899,6.654c-0.555,0.738-0.847,1.794-2.098,2.02
	c-0.292-2.35,1.61-3.734,2.168-5.625c0-0.001,0-0.003,0-0.005c-1.881-1.901-2.93-4.281-3.716-6.766
	c-0.685-2.166-0.011-4.041,1.472-4.683c1.572-0.684,3.237,0.028,4.477,1.99c0.646,1.025,1.305,2.069,1.314,3.356
	c-0.322,0.049-0.645,0.099-0.966,0.146c-0.657-1.201-1.005-2.568-1.958-3.61c-0.498-0.546-0.998-1.174-1.835-0.886
	c-0.769,0.266-1.024,0.979-1.138,1.732c-0.146,0.982,0.035,1.913,0.298,2.869c0.458,1.667,1.464,3.05,2.185,4.577
	c0,0,0,0.001,0,0.002c0.324,0.129,0.522,0.51,1.022,0.138c1.714-1.271,1.828-2.957,1.423-4.821c0.325-0.05,0.646-0.1,0.969-0.147
	c0.215,0.693,0.43,1.39,0.686,2.213c3.711-2.006,7.598-2.4,11.615-1.508c0.734,0.164,1.064-0.08,1.313-0.681
	c0.404-0.979,0.801-1.963,1.229-2.934c0.185-0.422,0.518-0.607,0.963-0.349c0.345,0.201,0.33,0.529,0.205,0.845
	c-0.297,0.76-0.633,1.503-0.918,2.268c-0.188,0.506-0.618,1.034-0.139,1.573c0.562,0.632,1.176,0.312,1.768,0.006
	c-0.001,0-0.001,0-0.002,0c0.746-0.96,1.514-1.904,2.228-2.888c0.431-0.593,0.761-1.252,0.888-1.993
	c0.232-1.382-0.014-1.686-1.572-1.74c-0.364-0.015-0.606-0.015-0.645-0.427c-0.025-0.283,0.157-0.444,0.373-0.558
	c1.52-0.797,3.102,0.142,2.971,1.892c-0.181,2.4-1.447,4.264-3.311,5.739h0.001c-0.71,0.771-0.374,1.231,0.41,1.688
	c2.694,1.565,5.161,3.455,7.507,5.503c0.368,0.321,0.714,0.669,1.068,1.005c0.316,0.926,1.178,0.57,1.805,0.765
	c-0.037,1.204,0.706,1.349,1.652,1.215c0.017,0.24,0.031,0.479,0.049,0.721c2.468,2.882,5.507,5.066,8.617,7.245
	c0.662-0.667,0.549-1.453,0.791-2.104c0.156-0.418,0.363-0.761,0.867-0.571c0.328,0.122,0.416,0.411,0.359,0.781
	c-0.111,0.728-0.201,1.46-0.24,2.193c-0.041,0.801,0.498,1.186,1.184,1.346c0.604,0.142,0.886-0.347,1.115-0.773
	c0.803-1.494,0.967-3.063,0.824-4.768c-0.087-1.04-1.322-0.882-1.4-1.754c1.8-0.482,2.317-0.261,2.681,1.275
	c0.56,2.374,0.038,4.553-1.61,6.73c3.346,1.229,6.465,1.253,9.637,0.066c1.316-0.493,0.867-1.324,0.526-2.172
	c0.345-0.064,0.689-0.129,1.034-0.193c0.346,0.331,0.746,1.28,1.074,0.063c0.507-1.884,0.186-3.743-0.48-5.552
	c-0.005-0.17-0.042-0.324-0.109-0.463c0.067,0.139,0.104,0.293,0.107,0.462c-0.316-0.187-0.437-0.471-0.406-0.83v-0.001
	c0.621-1.078,1.135-0.347,1.314,0.213c0.533,1.656,1.328,3.257,1.195,5.197c1.042-0.298,1.623-1.014,2.345-1.496
	c3.832-2.56,7.888-4,12.567-2.7c0.931,0.259,1.945,0.207,2.924,0.3c0-0.001,0-0.001,0.001-0.002
	c2.155,0.023,4.229,0.438,6.196,1.328c1.301,0.59,2.375,1.479,3.148,2.677C198.842,27.379,198.074,29.06,195.623,29.307z
	 M132.688,13.628c-0.487,2.512-0.449,3.223,0.351,6.408c-0.118,0.252-0.261,0.479-0.481,0.635c0.221-0.155,0.364-0.384,0.483-0.636
	c0.569,0.397,0.771,1.361,1.745,1.133C135.532,17.778,134.731,14.897,132.688,13.628z M147.256,25.525
	c-0.213-0.408-0.575-0.895-1.146-0.665c-0.418,0.168-0.819,0.434-0.813,1.053c0.018,1.294-0.286,2.599,0.184,3.872
	c0-0.001,0-0.001,0-0.001c0.228,0.168,0.31,0.396,0.271,0.671c0.156,0.187,0.316,0.367,0.467,0.56
	c0.309,0.395,0.647,0.805,1.2,0.644c0.535-0.155,0.664-0.667,0.716-1.162C148.317,28.757,148.069,27.081,147.256,25.525z
	 M163.649,30.425c0.55,3.18,2.285,4.801,4.703,5.854c0.373,0.162,0.779,0.306,1.076-0.132c0.194-0.287,0.193-0.622,0.043-0.928
	C168.31,32.855,166.373,31.477,163.649,30.425z M196.624,26.061c-0.945-2.335-5.459-4.271-7.854-3.561
	c-0.041,0.013-0.041,0.149-0.062,0.229c-0.507-0.088-0.793-0.261-0.871-0.514c0.078,0.254,0.364,0.428,0.872,0.516
	c0.727,0.181,1.331,0.597,1.913,1.035c0.166,0.125,0.308,0.386,0.315,0.592c0.021,0.467-0.422,0.42-0.705,0.483
	c-0.943,0.218-1.634-0.613-2.522-0.647c-0.071-0.255-0.281-0.349-0.511-0.415c0.119,0.21,0.024,0.668,0.504,0.459
	c0.951,2.496,5.373,4.907,7.826,4.248C196.765,28.155,197.118,27.282,196.624,26.061z M92.535,4.383
	c-0.378,2.895-1.592,5.445-3.542,7.633c0,0,0,0,0,0c-0.569,0.885,0.048,1.512,0.446,2.218c0.664,1.18,1.566,2.295,1.373,3.797
	c-0.94,0.201-1.163-0.521-1.537-0.998c-1.156-1.478-2.207-3.051-3.476-4.423c-1.187-1.283-2.372-2.704-4.335-2.875
	c-1.057,2.187-2.663,3.903-4.646,5.257c-1.582,1.08-3.534,1.361-4.06,0.548c-0.936-1.448,0.048-2.655,0.8-3.79
	c0.765-1.154,1.717-2.165,2.967-2.836c-0.404-0.84-1.134-0.435-1.688-0.354c-2.76,0.398-5.064,1.838-7.35,3.319
	c-0.707,0.459-0.663,1.033-0.533,1.713c0.332,1.729,0.1,3.438-0.213,5.146c-0.181,0.993-0.54,1.903-1.234,2.641
	c-0.652,0.693-1.444,1.142-2.425,0.781c-0.838-0.308-1.227-0.97-1.411-1.857c-0.241-1.156-0.004-2.277,0.218-3.948
	c-3.412,2.338-5.84,5.19-9.05,7.334c0.785,0.577,0.553,1.625,1.174,2.421c0.556,0.713,0.438,1.748,0.221,2.632
	c-0.162,0.66-0.14,1.805-0.984,1.719c-1.247-0.126-0.35-1.157-0.309-1.74c0.1-1.423-0.146-2.717-0.967-4.02
	c-1.029,0.345-1.832,1.315-1.887,2.027c-0.111,1.428-0.56,2.97,0.131,4.371c0.515,1.042,1.151,0.602,1.704-0.038
	c0.313-0.362,0.689-0.502,1.011-0.101c0.31,0.389,0.039,0.754-0.257,1.048c-0.79,0.785-1.762,0.891-2.746,0.562
	c-0.898-0.299-1.164-1.132-1.206-1.979c-0.056-1.122-0.014-2.248-0.014-3.424c-0.756-0.146-1.271,0.497-1.871,0.847
	c-2.821,1.638-5.832,2.672-9.1,2.718c-1.203,0.017-1.726,0.478-2.088,1.547c-0.664,1.963-2.142,3.27-3.855,4.328
	c-0.779,0.48-1.639,0.797-2.548,0.854c-1.955,0.125-2.778-1.072-1.923-2.816c0.549-1.119,1.359-2.06,2.375-2.796
	c0.663-0.481,1.352-0.93,2.188-1.5c-1.438-0.879-2.822-1.657-4.135-2.543c-1.287-0.869-2.5-1.847-3.688-2.732
	c-0.961,0.393-1.1,1.358-1.767,1.842c-0.165,0.119-0.309,0.165-0.444,0.18c0.049,0.157-0.035,0.337-0.116,0.466
	c-1.01,1.599-5.577,3.214-7.383,2.63c-0.986-0.319-1.34-1.097-0.916-2.157c0.412-1.031,1.211-1.751,2.126-2.329
	c1.189-0.751,2.484-1.252,3.862-1.555c0.677-0.149,1.494-0.055,1.834-0.901c-1.452-0.47-2.87-1.053-4.424-1.15
	c-1.874-0.119-3.534,0.146-4.505,2.042c-0.212,0.413-0.614,0.729-0.93,1.092c0,0-0.001,0-0.001,0
	c-1.715,2.389-4.173,3.514-6.96,4.061c-0.892,0.176-1.802,0.146-2.67-0.104c-1.621-0.466-2.18-1.686-1.463-3.223
	c0.839-1.799,2.333-2.938,4.132-3.611c1.753-0.656,3.581-1.086,5.482-1.039c1.441,1.045,0.046,1.092-0.506,1.436
	c-0.015-0.08-0.014-0.225-0.047-0.231c-2.571-0.642-6.684,1.146-7.746,3.355c-0.717,1.492-0.077,2.58,1.621,2.657
	c0.558,0.025,1.127-0.123,1.686-0.227c2.172-0.402,3.886-1.628,5.463-3.087c0.09-0.697,0.055-1.214-0.879-0.749
	c-0.724,0.359-1.779,0.871-2.129-0.036c-0.367-0.955,0.987-1.039,1.57-1.521C9.073,22.81,9.261,22.8,9.416,22.75
	c0.552-0.344,1.947-0.391,0.506-1.436c1.547-0.132,3.072-0.406,4.606-0.623c5.084-0.72,9.219,1.376,13.027,4.663
	c0.22-1.132,0.392-2.279,0.675-3.398c0.262-1.034,0.68-2.018,1.353-2.874c0.614-0.782,1.375-1.137,2.369-0.896
	c0.989,0.237,1.168,1.028,1.302,1.87c0.185,1.165,0.066,2.292-0.381,3.379c-0.343,0.833-0.707,1.657-1.068,2.483
	c-0.939,2.153-0.957,2.206,1.243,2.872c2.572,0.779,5.169,0.776,7.747-0.049c0.396-0.127,0.791-0.234,0.774-0.767l-0.149-0.066
	l0.035-0.151l0.123,0.074V27.83l-0.123-0.073c-1.757-1.799-1.688-4.018-1.291-6.229c0.249-1.396,1.316-1.84,2.604-1.306
	c0.29,0.119,0.628,0.25,0.573,0.666c-0.076,0.578-0.395,0.531-0.854,0.382c-0.611-0.2-0.891,0.192-0.987,0.747
	c-0.308,1.752-0.15,3.432,0.779,4.991c0.264,0.442,0.566,0.839,1.157,0.665c0.587-0.173,1.048-0.514,1.035-1.197
	c-0.015-0.736-0.059-1.475-0.133-2.206c-0.044-0.431-0.093-0.828,0.465-0.912c0.574-0.086,0.648,0.396,0.741,0.765
	c0.16,0.634,0.254,1.284,0.376,1.928c0.027,0.053,0.058,0.097,0.089,0.129c-0.032-0.032-0.061-0.075-0.088-0.128
	c0.156-0.009,0.303,0.022,0.442,0.091h0c2.585-1.931,5.135-3.904,7.506-6.097c0.393-0.362,0.988-0.596,1.024-1.262
	c-1.823-0.495-3.2-1.44-3.706-3.408c-0.274-1.067-0.527-2.187,0.422-2.913c0.921-0.706,1.979-0.419,2.853,0.354
	c0.224,0.66,0.045,0.86-0.602,0.532c-1.484-0.289-1.724-0.15-1.709,0.975c0.029,2.153,1.513,3.116,3.197,3.917c0,0,0,0,0.001-0.001
	c1.079-0.216,1.664-0.668,0.895-1.809c-0.272-0.404-0.528-0.824-0.743-1.262c-0.218-0.443-1.021-0.944-0.219-1.389
	c0.582-0.322,0.953,0.404,1.28,0.827c0.189,0.244,0.212,0.613,0.387,0.873c0.477,0.708,1.014,0.964,1.776,0.282
	c1.094-0.979,2.228-1.914,3.384-2.816c1.67-1.303,3.366-2.576,5.291-3.496c0.002,0,0.003-0.001,0.005-0.002
	c0.647-0.668,0.215-1.148-0.276-1.633c-1.301-1.284-2.393-2.73-2.892-4.504c-0.57-2.027-0.005-2.85,1.987-3.168
	c0-0.001,0-0.002,0-0.003c1.701,0.229,2.792,1.272,3.5,2.739c0.408,0.849,0.873,1.642,1.084,2.629
	c0.349,1.636,0.784,1.751,2.525,1.485c3.74-0.569,7.366-0.356,10.799,1.615c0.284-0.573,0.555-1.12,0.826-1.668c0,0,0.001,0,0.001,0
	c0.12-1.872,0.979-3.434,2.149-4.819c0.983-1.166,2.564-1.53,3.769-1.004C92.004,1.609,92.737,2.831,92.535,4.383z M21.807,24.58
	c0-0.001,0-0.002,0-0.003c-1.668,0.407-3.398,0.649-4.875,1.617c-1.021,0.669-2.137,1.299-2.056,2.883
	c1.867,0.38,3.36-0.449,4.815-1.379c0.481-0.308,0.897-0.722,1.389-1.011c0.025-0.015,0.062-0.013,0.098-0.011
	c-0.016-0.024-0.035-0.04-0.05-0.067c0.392,0.046,0.608-0.028,0.694-0.189c-0.087,0.16-0.303,0.232-0.693,0.187
	c0.002-0.438,0.272-0.691,0.609-0.898C21.758,25.332,22.268,24.986,21.807,24.58z M30.026,26.951c0.988-2.541,3-4.744,1.427-7.869
	C29.085,21.406,28.616,24.063,30.026,26.951z M34.444,30.783c-2.184,0.335-4.977,2.438-5.701,4.218
	c-0.157,0.385-0.289,0.799-0.015,1.163c0.406,0.538,0.887,0.193,1.305,0.006C32.376,35.119,33.989,33.473,34.444,30.783z
	 M65.484,13.1c-2.191,2.276-2.597,4.629-2.341,7.187c0.038,0.382,0.108,0.855,0.636,0.902c0.474,0.043,0.699-0.347,0.924-0.673
	c0.563-0.822,0.858-1.757,0.956-2.734C65.795,16.41,65.889,15.03,65.484,13.1z M70.075,6.85c-0.791-2.275-1.536-4.62-3.861-5.909
	c0,0.001,0,0.002,0,0.003c-1.234,1.037-1.347,1.53-0.648,3.075c0.724,1.604,1.931,2.845,3.116,4.1c0,0,0-0.001,0-0.001
	C69.777,8.385,70.517,8.123,70.075,6.85z M80.649,9.4c-0.868-0.977-1.862-0.971-2.933-0.379c-1.188,1.313-2.682,2.377-3.438,4.045
	c-0.253,0.558-0.857,1.23-0.341,1.782c0.653,0.694,1.359-0.047,1.932-0.355C78.014,13.332,79.348,11.374,80.649,9.4z M90.909,3.619
	c-0.142-0.667-0.415-1.287-1.102-1.52c-0.741-0.251-1.235,0.264-1.692,0.741c-1.112,1.161-1.502,2.708-2.17,4.108
	c0,0-0.001,0-0.001,0c-0.035,0.648-0.123,1.301-0.093,1.947c0.062,1.381,1.042,2.305,2.547,2.479
	c0.001,0.001,0.001,0.002,0.002,0.002c0.409-0.702,0.884-1.375,1.214-2.111C90.418,7.475,91.351,5.699,90.909,3.619z
	 M167.627,26.115c-0.118-1.007-0.728-1.819-1.081-2.733c-0.428-1.103-0.561-2.208-0.175-3.364c0.19-0.57,0.428-0.873,1.037-0.561
	c0.358,0.184,0.618,0.091,0.743-0.271c0.172-0.501-0.172-0.768-0.553-0.936c-1.289-0.572-2.438,0.076-2.693,1.539
	c-0.42,2.421,0.523,4.501,1.688,6.52C166.938,26.244,167.282,26.179,167.627,26.115z M144.271,13.532
	c0.463-0.259,0.916-0.84,1.49-0.247c0.451,0.463,0.324,1.055,0.227,1.627c-0.279,1.637-1.471,2.465-2.793,3.18
	c0.017,0.241,0.031,0.48,0.049,0.721c1.962-0.524,3.367-1.629,3.822-3.704c0.216-0.981,0.39-2.048-0.565-2.696
	c-0.899-0.611-1.892-0.269-2.772,0.246c-0.319,0.187-0.803,0.409-0.498,0.899C143.53,14.041,143.914,13.731,144.271,13.532z
	 M141.542,16.877c0.279-0.392,0.637-0.752,0.825-1.187c0.295-0.685,1.59-1.368,0.832-1.962c-0.892-0.697-1.347,0.656-1.921,1.222
	c-0.463,0.457-0.478,1.503-1.541,1.162C140.056,17.038,140.915,16.683,141.542,16.877z M44.028,22.736
	c0.129-0.174,0.389-0.205,0.345-0.537c-0.05-0.38-0.306-0.582-0.567-0.588c-0.203-0.005-0.587,0.165-0.388,0.597
	C43.548,22.488,43.705,22.698,44.028,22.736z M154.756,21.669c0.116-0.025,0.222-0.099,0.332-0.154
	c-0.055-0.056-0.122-0.163-0.163-0.154c-0.115,0.025-0.222,0.099-0.331,0.154C154.649,21.569,154.716,21.677,154.756,21.669z" class="color c1"/>
</svg>