<svg version="1.1" id="图层_1" x="0px" y="0px" width="203.268px" height="194.019px" viewBox="0 0 203.268 194.019" enable-background="new 0 0 203.268 194.019" xml:space="preserve" xmlns="http://www.w3.org/2000/svg" xmlns:xlink="http://www.w3.org/1999/xlink" xmlns:xml="http://www.w3.org/XML/1998/namespace">
  <path fill="#FFFFFF" d="M110.655,120.088c0,0-30.045-44.194,20.966-91.837c0,0,46.698,54.985-13.058,92.34
	c0,0,1.415-35.454,8.119-49.897C126.683,70.693,108.717,102.114,110.655,120.088z M171.782,115.361
	c-12.758,1.232-37.962,14.678-37.962,14.678c50.283,26.293,69.447-28.534,69.447-28.534c-53.864-16.029-72.316,22.842-72.316,22.842
	C142.632,115.688,171.782,115.361,171.782,115.361z M34.52,112.735c11.812,5.259,40.612,5.958,40.612,5.958
	C44.046,70.655,0,109.267,0,109.267c39.326,40.806,74.823,15.853,74.823,15.853C60.257,126.922,34.52,112.735,34.52,112.735z
	 M68.384,68.762c3.027,14.149,21.363,40.678,21.363,40.678c22.994-59.789-40.973-74.2-40.973-74.2
	c-11.019,62.479,34.96,78.155,34.96,78.155C72.516,101.413,68.384,68.762,68.384,68.762z M177.282,70.225
	c-7.197,4.758-17.941,20.701-17.941,20.701c38.191-0.228,32.29-38.87,32.29-38.87c-37.081,7.46-35.791,36.391-35.791,36.391
	C160.053,79.614,177.282,70.225,177.282,70.225z M22.604,71.396c5.221,6.261,21.323,14.666,21.323,14.666
	c-4.231-35.826-39.89-26.227-39.89-26.227c10.904,34.023,37.927,29.775,37.927,29.775C33.224,86.58,22.604,71.396,22.604,71.396z
	 M99.597,25.006c-2.558,8.968-0.153,29.61-0.153,29.61C130.618,27.555,98.583,0,98.583,0c-25.175,32.218-3.757,55.047-3.757,55.047
	C92.069,44.834,99.597,25.006,99.597,25.006z M155.608,157.832c-6.525-5.643-24.781-11.675-24.781-11.675
	c10.546,36.706,46.155,20.576,46.155,20.576c-17.211-33.684-44.714-24.617-44.714-24.617
	C141.91,143.783,155.608,157.832,155.608,157.832z M47.887,156.089c8.919-1.613,25.883-12.574,25.883-12.574
	C36.802,127.945,26.517,167.7,26.517,167.7c38.889,8.125,49.609-20.341,49.609-20.341C68.397,154.151,47.887,156.089,47.887,156.089
	z M111.766,153.39c3.078-14.736,12.303-25.983,12.468-27.37c-0.394-0.193-2.08-1.94-2.469-2.117
	c-2.278,2.073-9.562,8.6-12.89,11.253c-3.33-12.261-8.979-24.604-10.269-27.269c-0.469,0.008-0.93,0.022-1.383,0.047
	c-0.528,3.843,0.902,16.454,1.759,26.1c0.695,7.842-0.468,16.874-2.516,18.153c-1.382,0.864-4.527-1.653-7.891-4.792
	c-5.64-5.264-10.591-12.724-13.618-15.852c-0.547,0.28-1.063,0.568-1.563,0.859c1.965,4.418,8.358,16.29,12.429,21.48
	c5.062,6.457,8.917,7.997,9.438,9.626c1.083,3.379-0.79,10.515-9.878,16.522c-11.676,7.719-31.273,12.152-29.563,12.463
	c3.04,0.553,24.041-4.146,24.693-2.911c0.653,1.232-4.761,3.187-4.14,3.739c0.622,0.553,17.66-4.421,25.26-4.697
	c7.599-0.276,26.504,5.595,27.264,5.389c0.76-0.207-3.73-3.247-3.178-3.868c0.553-0.622,24.731,3.66,24.87,2.135
	c0.089-0.982-21.646-2.279-32.28-13.265C112.435,172.946,111.426,163.087,111.766,153.39z" class="color c1"/>
</svg>