<svg version="1.1" id="图层_1" x="0px" y="0px" width="91.475px" height="91.04px" viewBox="0 0 91.475 91.04" enable-background="new 0 0 91.475 91.04" xml:space="preserve" xmlns="http://www.w3.org/2000/svg" xmlns:xlink="http://www.w3.org/1999/xlink" xmlns:xml="http://www.w3.org/XML/1998/namespace">
  <g>
    <path fill="#00B3A0" d="M14.732,47.387v0.056c-3.766,0.016-7.526,1.46-10.396,4.33c-5.773,5.772-5.787,15.15-0.007,20.93
		c2.777,2.776,6.382,4.214,10.019,4.321c0-0.02-0.003-0.038-0.004-0.058c-0.001-0.017-0.001-0.032-0.002-0.048
		c-0.062-1.38,0.069-2.767,0.391-4.117c0.016-0.065,0.033-0.133,0.049-0.199c0.017-0.064,0.036-0.129,0.052-0.193l0,0.189l0,0.181
		c0.627-2.599,1.956-4.98,3.893-6.918c2.774-2.774,6.466-4.299,10.389-4.306c0.12,0,0.239,0.006,0.358,0.009
		c0.007,0.145,0.009,0.289,0.012,0.433l5.374-0.902l9.06-13.532v-0.175L14.732,47.387z" class="color c1"/>
    <path fill="#006D55" d="M29.486,61.997c0.001,0.079,0.006,0.158,0.006,0.237c0,3.931-1.531,7.615-4.306,10.39
		c-1.897,1.896-4.224,3.209-6.76,3.852h0.176h0.215c-0.071,0.02-0.142,0.038-0.214,0.058c-0.052,0.014-0.104,0.028-0.157,0.042
		c-1.307,0.332-2.65,0.481-3.991,0.452l-0.099,0.099c0.206,3.49,1.634,6.922,4.298,9.586c5.772,5.771,15.15,5.771,20.922,0
		c2.804-2.805,4.244-6.459,4.325-10.137h0.018V47.563L29.486,61.997z" class="color c2"/>
    <path fill="#00B3A0" d="M72.877,76.575c-0.052-0.014-0.104-0.028-0.157-0.042c-0.072-0.02-0.143-0.038-0.214-0.058h0.215h0.176
		c-2.536-0.643-4.863-1.955-6.76-3.852c-2.774-2.774-4.306-6.459-4.306-10.39c0-0.058,0.004-0.115,0.004-0.173l-5.332-10.279
		l-9.101-4.153v28.945h0.018c0.081,3.678,1.521,7.332,4.325,10.137c5.772,5.771,15.15,5.771,20.922,0
		c2.648-2.648,4.074-6.057,4.292-9.525l-0.16-0.16C75.483,77.049,74.163,76.902,72.877,76.575z" class="color c1"/>
    <path fill="#00B3A0" d="M76.743,43.756c3.766-0.017,7.526-1.461,10.396-4.331c5.772-5.772,5.787-15.15,0.007-20.93
		c-2.734-2.733-6.271-4.162-9.851-4.309l-0.161,0.161c0.054,1.357-0.075,2.721-0.391,4.049c-0.016,0.066-0.033,0.133-0.05,0.199
		c-0.017,0.064-0.036,0.129-0.052,0.193l0-0.189l0-0.181c-0.627,2.599-1.956,4.98-3.893,6.918c-2.774,2.774-6.467,4.299-10.39,4.306
		c-0.12,0-0.238-0.006-0.358-0.009c-0.002-0.05-0.002-0.1-0.004-0.148l-10.574,7.13l-3.75,7.195h29.071V43.756z" class="color c1"/>
    <path fill="#006D55" d="M61.983,28.964c0-3.931,1.532-7.614,4.306-10.39c1.897-1.896,4.224-3.209,6.76-3.851h-0.176h-0.215
		c0.071-0.021,0.142-0.039,0.214-0.059c0.052-0.014,0.104-0.028,0.157-0.042c1.312-0.334,2.659-0.482,4.004-0.451
		c0.016,0,0.033,0,0.049,0.001c0.016,0.001,0.032,0.001,0.047,0.001c-0.183-3.525-1.618-6.998-4.308-9.688
		c-5.772-5.771-15.15-5.771-20.922,0c-2.804,2.805-4.244,6.459-4.325,10.137h-0.018v29.188h0.117l14.325-14.325
		C61.99,29.312,61.983,29.139,61.983,28.964z" class="color c2"/>
    <path fill="#00B3A0" d="M43.855,14.732H43.8c-0.017-3.766-1.46-7.525-4.331-10.396c-5.772-5.773-15.15-5.787-20.929-0.008
		c-2.777,2.777-4.214,6.382-4.321,10.019c0.019,0,0.039-0.003,0.058-0.004c0.016-0.001,0.032-0.001,0.048-0.001
		c1.38-0.063,2.766,0.068,4.117,0.391c0.066,0.015,0.133,0.032,0.2,0.049c0.064,0.017,0.129,0.035,0.193,0.052h-0.189h-0.181
		c2.599,0.627,4.981,1.957,6.918,3.894c2.774,2.774,4.298,6.466,4.305,10.389c0,0.12-0.005,0.239-0.009,0.359
		c-0.139,0.006-0.277,0.007-0.417,0.011l2.004,5.734l12.43,8.7h0.159L43.855,14.732z" class="color c1"/>
    <path fill="#006D55" d="M29.009,29.492c-3.93,0-7.615-1.531-10.39-4.306c-1.897-1.897-3.209-4.224-3.851-6.76v0.177v0.215
		c-0.02-0.07-0.039-0.142-0.058-0.214c-0.014-0.052-0.029-0.104-0.042-0.156c-0.333-1.313-0.482-2.659-0.451-4.004
		c0-0.002,0-0.003,0-0.004l-0.084-0.084c-3.496,0.202-6.934,1.632-9.601,4.299c-5.772,5.772-5.772,15.15,0,20.923
		c2.804,2.804,6.458,4.244,10.136,4.324v0.018h29.028L29.262,29.486C29.178,29.487,29.094,29.492,29.009,29.492z" class="color c2"/>
    <path fill="#006D55" d="M76.593,47.443v-0.056l-29.188,0.001v0.241l14.432,14.432c0.003-0.166,0.005-0.331,0.013-0.497
		c0.119-0.003,0.238-0.009,0.358-0.009c3.923,0.007,7.615,1.531,10.39,4.306c1.937,1.938,3.266,4.319,3.893,6.918l0-0.181l0-0.189
		c0.017,0.064,0.036,0.129,0.052,0.193c0.017,0.066,0.034,0.134,0.05,0.199c0.321,1.351,0.452,2.737,0.391,4.117
		c-0.001,0.016-0.001,0.031-0.002,0.048c0,0.02-0.003,0.038-0.004,0.058c3.637-0.107,7.242-1.545,10.019-4.321
		c5.78-5.779,5.766-15.157-0.007-20.93C84.119,48.903,80.358,47.458,76.593,47.443z" class="color c2"/>
  </g>
</svg>