<svg version="1.1" id="图层_1" x="0px" y="0px" width="119.688px" height="137.584px" viewBox="0 0 119.688 137.584" enable-background="new 0 0 119.688 137.584" xml:space="preserve" xmlns="http://www.w3.org/2000/svg" xmlns:xlink="http://www.w3.org/1999/xlink" xmlns:xml="http://www.w3.org/XML/1998/namespace">
  <path fill="#FFFFFF" d="M61.45,101.468h10.117c11.655,6.225,22.394,9.516,31.054,9.516l0,0c7.566,0,13.354-2.504,15.872-6.865
	c1.593-2.76,1.594-5.924,0.001-8.684c-2.516-4.354-8.292-6.854-15.85-6.854c-8.729,0-19.565,3.343-31.342,9.667H61.45v-9.599
	l9.799-2.592c7.769,1.832,14.912,2.76,21.231,2.76c8.322,0,15.229-1.629,19.971-4.709c3.988-2.592,6.276-6.164,6.276-9.803
	c0-4.716-4.054-9.79-12.956-9.79c-5.738,0-17.913,2.378-34.961,18.303l-0.033,0.031l-9.325,2.465V75.171l8.826-5.092
	c14.216-0.41,25.829-3.111,33.591-7.811c6.242-3.78,9.783-8.755,9.714-13.646c-0.076-5.283-4.406-8.973-10.531-8.973
	c-5.023,0-18.365,2.658-33.758,27.277l-7.842,4.522V60.084l6.962-7.075l0.127-0.038c13.082-3.888,23.374-9.221,29.764-15.424
	c5.145-4.993,7.697-10.58,7.007-15.329c-0.68-4.672-4.307-7.691-9.24-7.691c-4.734,0-9.93,2.777-14.626,7.82
	c-5.788,6.214-10.602,15.424-14.304,27.374l-5.692,5.808v-7.283c5.28-9.862,8.412-18.854,9.31-26.729
	c0.944-8.295-0.835-13.339-2.493-16.108c-2.048-3.42-5.114-5.386-8.421-5.404l-0.834,76.287l0.834,61.293h1.606L61.45,101.468
	L61.45,101.468z" class="color c1"/>
  <path fill="#1A8242" d="M59.796,0c-3.314,0-6.392,1.962-8.438,5.383c-1.654,2.765-3.428,7.802-2.474,16.101
	c0.905,7.879,4.05,16.886,9.344,26.769v7.759l-5.412-5.375l-0.01-0.032c-3.609-11.969-8.394-21.198-14.22-27.433
	c-4.716-5.046-9.954-7.824-14.749-7.824c-4.937,0-8.563,2.952-9.24,7.521c-0.678,4.57,1.806,9.967,6.814,14.805
	c1.891,1.826,4.134,3.579,6.699,5.244c-5.208-3.039-9.245-3.61-11.541-3.61c-5.988,0-10.231,3.677-10.316,8.941
	C6.174,53.182,9.664,58.22,15.83,62.07c7.66,4.783,19.104,7.55,33.099,8.004l9.299,5.373v9.995l-9.204-2.473
	C31.585,66.62,19.363,64.18,13.629,64.18c-8.615,0-12.539,4.981-12.539,9.61c0,3.719,2.332,7.391,6.397,10.072
	c4.837,3.191,11.848,4.879,20.272,4.879c6.142,0,13.043-0.889,20.512-2.639l9.957,2.674v9.475h-9.86
	C36.636,91.95,25.826,88.62,17.106,88.62C5.353,88.62,0,94.444,0,99.854c0,2.937,1.514,5.668,4.264,7.692
	c3.086,2.272,7.487,3.476,12.729,3.476c8.668,0,19.431-3.303,31.125-9.551h10.11v36.111h1.614V0.004C59.827,0.004,59.813,0,59.796,0
	z M58.228,71.728l-7.595-4.388C42.93,54.912,35.785,47.931,29.916,44.042c5.57,3.336,12.477,6.283,20.446,8.703l7.864,7.818
	L58.228,71.728L58.228,71.728z" class="color c2"/>
</svg>