<svg version="1.1" id="图层_1" x="0px" y="0px" width="148.4px" height="114.2px" viewBox="0 0 148.4 114.2" enable-background="new 0 0 148.4 114.2" xml:space="preserve" xmlns="http://www.w3.org/2000/svg" xmlns:xlink="http://www.w3.org/1999/xlink" xmlns:xml="http://www.w3.org/XML/1998/namespace">
  <path fill="#97C434" d="M19.9,112.7c-1.6-2.2-0.8-5.9,0.3-8.3c1.2-2.6,3.5-5.5,5.9-7.1c1.2-0.9,2.6,0.1,2.8,1.4
	C29,99,29,99.3,29,99.6c0.2,0.1,0.4,0.3,0.5,0.6c-0.1-0.4,0.4,0.8,0.5,1c0.2,0.5,0.1,1.4,0,2c-0.2,1.1-0.5,2.3-1,3.4
	c-0.9,2.2-1.6,4.5-2.7,6.5c-0.1,0.2-0.3,0.4-0.4,0.6c1.3,0.1,2.7,0.3,4,0.4c-1.2-3.5,2.1-9.2,3.6-11.7c0.8-1.4,1.5-3,2.1-4.5
	s1.1-3,1.1-3.8c0-2.7,3.1-2,4.2-0.5c0.6,0.8,0.8,2,0.8,3.2c2.2,2.6,2.4,6.9,0.9,9.8c-0.9,1.7-2.2,3.1-3.1,4.7c-0.6,1-1,2-1.6,3
	c1,0,2,0,3,0c0.2-0.3,0.3-0.5,0.6-0.7c0,0,0,0,0-0.1c0.1-2.9,1.9-4.8,3.5-7.1c1.5-2.2,2.3-4.9,2.1-7.6c-0.3-4.3-1-9.9,3.1-12.7
	c1.1-0.7,2.6,0,2.7,1.3c0,0.6,0.1,1.3,0.1,1.9c0.4,0.2,0.7,0.5,0.8,1c0.7,2.5,2.2,4.7,2.9,7.1c0.8,2.8,1,5.5,0.2,8.3
	c-1.1,3.8-3.9,6.1-7,8.3c3.2-0.2,6.5-0.6,9.7-1c-0.2-0.5-0.3-1.1-0.2-1.6c0.2-1.6,1.5-2.4,1.9-3.9c0.4-1.6,0.5-3.1,0.4-4.7
	c-0.2-3.1-0.7-6.1-1.4-9c-0.9-3.7-1.6-7.4,0.1-11c1-2.2,2.6-4.5,5.2-4.6c0.4,0,0.8,0.1,0.9,0.5c0,0,0,0,0,0.1c0.3,0.5,0.2,1.2,0,1.9
	c0.5,0.1,0.8,0.4,1,1c0.4,0.9,0.3,2.1,0.7,2.9c0.6,1.3,1,2.7,1.6,4.1c1.1,2.5,2.1,5,2.8,7.7c0.9,3.9,1.8,8.3,0.5,12.1
	c-0.2,0.7-0.5,1.4-0.9,2.1c1.3-0.3,2.5-0.7,3.8-1.1c-0.6-0.5-1-1.2-1.1-2c-0.5-3.7,2.9-6.9,4.1-10c1.5-3.9-0.8-8.9-2.3-12.5
	c-1.7-3.9-4.4-8.6-3-12.9c0.9-2.9,2.8-5.9,6-6.3c1.3-0.1,1.9,1.4,1.2,2.3c-0.1,0.2-0.3,0.4-0.4,0.6c0.1,0.5,0.1,1.1,0.4,1.5
	c0.9,1.5,1.5,3.2,2.2,4.8c1.7,3.5,3.8,6.9,5.4,10.5c1.9,4.5,2,9.8,0.4,14.4c-0.5,1.5-1.5,3.9-3,5.8c1.7-0.8,3.4-1.6,5-2.5
	c0.8-0.9,1.7-1.4,2.8-1.6c1.3-0.8,2.7-1.6,4-2.5c-1.1-1.2-0.8-3.1-0.2-4.5c0.7-1.6,0.5-3.4,0.1-5c-1.4-4.7-4.8-8.3-7-12.5
	c-2.8-5.4-5.3-15.8,2.1-19c0.6-0.3,1.1,0.4,1,0.9c0,0.6-0.1,1.3-0.1,1.9c0.2,0.2,0.3,0.5,0.4,0.8c1.2,6.7,7,11.5,10.7,16.9
	c2.2,3.2,4,6.7,3.8,10.6c0,0.7-0.1,1.3-0.2,1.9c1.9-1.6,3.8-3.3,5.7-5c-1.1-1.2-0.7-2.9-0.7-4.5s-0.4-3.2-1.2-4.6
	c-1.9-3.5-4.6-6.4-6.9-9.6c-2.9-4-4.7-8.6-5.1-13.6c-0.3-3.2-0.7-7.3,1.7-9.8c0.5-0.5,1.3-0.2,1.4,0.5c0.1,0.5,0.2,1,0.3,1.6
	c0.3,0.1,0.5,0.3,0.7,0.6c2,3.3,4.8,6.2,6.9,9.4c2.1,3,4.4,5.9,6.9,8.6c3.2,3.5,3.8,7.9,2.9,12.5c-0.1,0.5-0.2,1.3-0.3,2.1
	c0.3-0.3,0.7-0.5,1.1-0.7c1-1.1,2.1-2.1,3.1-3.2c-0.1-0.4-0.2-0.7-0.1-1.1c-1.1-0.4-1.9-1.4-2-2.7c-0.3-4.6-1-8.6-2.8-12.9
	c-1.7-3.9-4.2-7.7-5.5-11.8c-1.1-3.6-2.3-7.7-2.3-11.5c0-2.2-0.3-5.5,1.9-6.8c0.3-0.2,0.8-0.1,0.9,0.3c0.1,0.6,0.3,1.2,0.5,1.7
	c0.3-0.1,0.6,0,0.8,0.3c1.8,2.8,3.2,5.9,5,8.8c1.9,3.2,3.9,6.4,5.9,9.5c1.9,3.1,3.6,6.2,4.3,9.8c-0.2-1.9-0.2-3.8-0.8-5.6
	c-1-3-2.3-5.9-3.6-8.8c-2.3-5.3-4.2-11.2-4-17.1c0.2-4.5,1.5-9.3,4.6-12.8c0.7-0.8,5.6-4.9,5.7-1.4c0,0.4-0.2,0.8-0.4,1.2
	c0.1,0.1,0.2,0.3,0.3,0.4c0.7,1.8,0.4,4.4,0.7,6.4c0.3,2.6,0.6,4.9,0.4,7.5c-0.3,4.8,1.8,8.1,3.4,12.4c0.5,1.2,0.6,2.4,0.8,3.6
	c0.5-1.1,1.3-2,1.8-3.2c0.8-2.1,1-4.3,1.2-6.5V35c0-0.2,0-0.3-0.1-0.5c-0.3-2.1,0.4-4.9,0.9-6.9c0.2-0.8,0.4-1.6,0.7-2.4
	c0.2-1,0.4-1.9,0.5-2.9c0.7-4,0.8-8.2,1.5-12.2c0.5-3,1.3-6.4,3.9-8.1c-33.6-7.9-80.6,8.8-108.6,29.7C10.8,53.4-0.3,85.2,0,108.7
	C6.6,110.1,13.3,111.6,19.9,112.7z" class="color c1"/>
</svg>