<svg version="1.1" id="图层_1" x="0px" y="0px" width="123.201px" height="168.864px" viewBox="0 0 123.201 168.864" enable-background="new 0 0 123.201 168.864" xml:space="preserve" xmlns="http://www.w3.org/2000/svg" xmlns:xlink="http://www.w3.org/1999/xlink" xmlns:xml="http://www.w3.org/XML/1998/namespace">
  <path fill="#D9BA91" d="M88.685,147.167c-0.633-3.766-3.39-22.947-6.148-44.152c-3.186,2.124-9.381,4.426-21.063,4.426
	c-10.267,0-16.815-3.188-20.532-6.02c-2.852,21.805-6.019,42.006-6.493,45.724C11.074,139.89,0,147.463,0,147.463
	c5.294,5.445,23.387,13.594,23.387,13.594c13.757,6.124,26.925,7.965,38.214,7.797c11.289,0.168,24.457-1.673,38.214-7.797
	c0,0,18.092-8.146,23.387-13.594C123.201,147.463,112.106,139.874,88.685,147.167z M78.287,112.926l0.53,5.311l-4.602,1.239
	l-0.531-5.487L78.287,112.926z M45.365,122.131l4.602,1.061l-0.53,5.665l-4.603-1.416L45.365,122.131z M43.595,144.608
	c0,0,0-5.311,3.363-3.716c3.54,1.593,2.832,8.673,2.832,8.673v3.702c-1.76-0.75-2.762-1.229-2.762-1.229
	c-1.169-0.543-2.31-1.043-3.434-1.521L43.595,144.608L43.595,144.608z M61.826,10.975c3.896,0,5.312-1.947,5.312-1.947V3.54
	c0,0-1.595-3.54-5.488-3.54s-5.31,3.187-5.31,3.187v5.486C56.162,8.673,58.109,10.975,61.826,10.975z M61.826,57.171
	c12.213,0,17.522-4.248,19.293-6.195c0.53-0.53,0.709-1.239,0.709-1.946v-4.248v-5.487c0-1.416-0.886-3.363-2.125-4.248
	c-0.886-0.53-2.124-1.063-3.894-1.594v-4.602c-3.718,1.239-8.319,1.947-13.807,1.947c-6.727,0-11.329-1.063-14.515-2.124v4.603
	c-2.124,0.53-3.363,1.062-4.248,1.592c-1.063,0.531-1.947,2.302-1.947,3.364v8.319v2.301c0,0.707,0.354,1.593,0.885,2.123
	C44.126,52.923,49.613,57.171,61.826,57.171z M79.703,46.552c-0.707,0.53-1.593,1.238-2.654,1.769v-5.31
	c1.238-0.53,2.123-1.062,2.654-1.594V46.552z M44.304,43.896c1.238-0.886,1.062-0.886,1.062-0.886v-7.257
	c0.53-0.177,1.239-0.354,1.947-0.531v3.54c2.832,1.063,7.434,2.654,14.16,2.654s11.328-1.592,14.159-2.831v-3.363
	c1.063,0.354,1.771,0.708,2.479,0.885c0.887,0.531,1.594,1.416,1.594,2.655c-0.885,0.708-2.124,1.416-3.895,2.302
	c-0.354,0.177-0.531,0.177-0.886,0.353v7.966c-1.416,0.531-3.009,1.063-4.955,1.593V47.79c1.416-0.531,2.654-0.886,3.539-1.416
	v-4.603h-0.176c0,0-0.179,0-0.354,0c-0.354,0.178-0.709,0.178-1.063,0.354c-0.177,0-0.177,0-0.354,0
	c-0.531,0.177-0.886,0.177-1.418,0.354h-0.176c-0.531,0.177-1.063,0.177-1.771,0.354c-0.177,0-0.354,0-0.354,0s-0.177,0-0.354,0
	v8.496c-1.416,0.177-3.01,0.354-4.779,0.354v-2.479c1.24,0,2.301-0.177,3.363-0.354v-5.665c-0.178,0-0.178,0-0.354,0
	c-0.53,0-0.885,0-1.415,0.177c-0.179,0-0.354,0-0.71,0c-0.706,0-1.415,0-2.123,0c-0.178,0-0.531,0-0.708,0v8.32
	c-1.771,0-3.54-0.178-4.956-0.354v-2.655c1.238,0.354,2.478,0.531,3.539,0.531v-5.842c-0.176,0-0.53,0-0.707,0
	c-0.177,0-0.354,0-0.531,0c-0.354,0-0.708,0-1.063,0c-0.177,0-0.177,0-0.354,0c-0.354,0-0.885-0.177-1.238-0.177
	c-0.178,0-0.178,0-0.354,0c-0.354,0-0.531,0-0.886-0.177c-0.177,0-0.177,0-0.354,0c-0.178,0-0.354,0-0.531-0.177v8.142
	c-1.771-0.354-3.363-0.885-4.779-1.593v-3.895c0.354,0.354,0.708,0.531,1.063,0.886c0.708,0.354,1.593,0.885,2.301,1.062V42.3
	c-0.177,0-0.177,0-0.354,0c-0.177,0-0.354-0.177-0.707-0.177c-0.178,0-0.178,0-0.354-0.177c-0.177,0-0.354-0.178-0.354-0.178
	c-0.178,0-0.354,0-0.354-0.177c-0.177,0-0.177,0-0.354-0.178c-0.531-0.176-1.063-0.353-1.416-0.53c0,0,0,0-0.178,0
	c-0.177,0-0.354-0.177-0.53-0.177c-0.177-0.177-0.354-0.177-0.531-0.177v8.142c-0.886-0.531-1.771-1.062-2.478-1.416
	C44.126,47.082,42.533,45.136,44.304,43.896z M77.579,55.933c-2.655,1.238-7.788,3.008-15.93,3.008
	c-7.966,0-13.099-1.77-15.754-3.008c-0.354,7.434-1.415,16.99-2.478,27.08c3.363,2.302,9.381,5.133,18.231,5.133
	s15.044-2.831,18.583-5.31C78.996,72.923,77.935,63.366,77.579,55.933z M54.924,78.941l-4.603-1.238l0.531-5.311l4.603,1.063
	L54.924,78.941z M69.614,69.915l-0.53-5.487l4.603-1.062l0.53,5.31L69.614,69.915z M59.348,95.227h4.072v4.777h-4.072V95.227z
	 M72.446,99.12l3.894-1.416l-0.354-4.779l-4.07,1.416L72.446,99.12z M50.145,98.235l0.53-4.779l-3.894-1.416l-0.531,4.779
	L50.145,98.235z M45.72,24.427c2.654,1.415,7.434,3.186,16.106,3.186c8.317,0,13.098-1.594,15.753-3.01
	c1.593-0.885,1.771-3.187,0.354-4.247c0,0-1.238-7.08-8.143-10.443c0,0.177-0.178,0.531-0.354,0.708
	c-0.178,0.354-2.479,3.187-7.611,3.187c-4.956,0-7.611-3.01-7.788-3.363c-0.177-0.178-0.354-0.354-0.354-0.708
	c-7.079,3.362-8.318,10.442-8.318,10.442C43.949,21.416,44.126,23.541,45.72,24.427z" class="color c1"/>
</svg>