<svg version="1.1" id="图层_1" x="0px" y="0px" width="500.551px" height="493.418px" viewBox="0 0 500.551 493.418" enable-background="new 0 0 500.551 493.418" xml:space="preserve" xmlns="http://www.w3.org/2000/svg" xmlns:xlink="http://www.w3.org/1999/xlink" xmlns:xml="http://www.w3.org/XML/1998/namespace">
  <path fill="#99DBE0" d="M173.581,10.803c52.328-1.276,92.213,19.782,141.99,54.563c-56.158-20.102-92.214-30.313-150.605-10.849
	c-11.807,2.553-24.89-5.105-27.122-16.911C133.058,13.994,156.67,11.441,173.581,10.803z M291.321,16.228
	c-4.148,12.763,5.744,27.122,18.507,30.951c104.979,27.76,185.066,138.8,178.366,247.606c-1.915,28.398-7.978,47.225-20.421,72.111
	c30.95-47.543,38.608-95.725,28.717-151.244c-16.273-93.172-67.326-174.537-162.412-211.55
	C317.805-2.279,297.702-3.236,291.321,16.228z M84.237,147.37c9.253,13.083,28.717,13.721,41.799,4.467
	c79.771-59.029,182.195-61.901,262.923-3.829c61.901,44.354,85.515,104.978,84.876,179.324l2.233-18.188
	c7.339-87.747-37.333-164.964-111.998-208.997c-83.918-49.777-178.047-49.14-260.688-2.553
	C85.515,107.485,69.561,126.311,84.237,147.37z M246.65,258.089c-17.549,5.744-30.951,19.146-22.974,35.418
	c5.743,11.487,22.017,16.593,33.502,10.851c25.846-9.254,31.908,22.974,18.826,42.438c-24.568,36.375-65.093,49.777-106.893,48.5
	C111.04,394.02,44.032,364.983,0,326.055c38.928,60.625,120.293,101.148,192.725,98.916
	c59.987-1.914,141.353-43.076,133.057-111.998C319.72,261.919,275.367,248.836,246.65,258.089z M144.545,256.496
	c19.782,16.911,50.415,12.444,67.325-7.339c58.072-60.307,189.854,5.424,141.034,98.914
	c-35.418,67.965-84.558,91.576-161.136,89.344c-66.369-1.916-130.504-26.803-174.218-77.537
	c73.068,137.844,316.527,191.768,408.423,50.734c75.303-115.188,13.082-244.735-114.552-274.091
	c-64.453-14.678-118.06-4.467-164.963,44.671C125.719,202.89,119.655,235.117,144.545,256.496z" class="color c1"/>
</svg>