<svg version="1.1" id="图层_1" x="0px" y="0px" width="125.789px" height="158.714px" viewBox="0 0 125.789 158.714" enable-background="new 0 0 125.789 158.714" xml:space="preserve" xmlns="http://www.w3.org/2000/svg" xmlns:xlink="http://www.w3.org/1999/xlink" xmlns:xml="http://www.w3.org/XML/1998/namespace">
  <path fill="#B40C15" d="M86.166,65.789c6.655,18.4-5.088,32.105-5.088,32.105C75.987,60.7,42.316,49.737,79.468,0
	C54.865,14.895,39.931,31.509,30.99,47.241c-5.513,9.701-8.752,19.066-10.558,27.483c-4.461,20.803-0.219,35.82-0.219,35.82
	C6.943,97.274,9.229,75.37,9.735,71.608c-0.048-0.019-0.099-0.041-0.148-0.06c-34.781,74.741,36.271,87.167,36.271,87.167
	c-15.643-4.564-15.679-21.275-15.679-21.275c8.614,11.354,30.932,8.221,30.932,8.221C36.443,125.3,53.67,86.931,53.67,86.931
	c22.318,21.924,16.835,50.898,16.835,50.898c10.181-7.439,16.443-22.709,16.443-22.709c4.307,13.703-5.088,37.586-5.088,37.586
	C132.367,108.855,86.166,65.789,86.166,65.789z M101.231,42.191c-17.56,37.167,36.144,48.572-3.875,98.514
	C160.294,80.843,98.737,75.027,101.231,42.191z" class="color c1"/>
</svg>