<svg version="1.1" id="图层_1" x="0px" y="0px" width="500px" height="364.05px" viewBox="0 0 500 364.05" enable-background="new 0 0 500 364.05" xml:space="preserve" xmlns:xml="http://www.w3.org/XML/1998/namespace" xmlns="http://www.w3.org/2000/svg" xmlns:xlink="http://www.w3.org/1999/xlink">
  <g>
    <polygon fill="#D4D4D4" points="0,66.539 500,66.539 464.098,35.902 147.439,16.515 134.036,36.621 27.286,51.46 	" class="color c1"/>
    <polygon fill="#F2F2F2" points="101.005,0.718 420.536,0 445.429,35.184 199.856,23.696 171.853,39.493 319.531,35.902 
		273.336,51.46 27.286,51.46 134.036,36.621 54.332,30.158 	" class="color c2"/>
    <polygon fill="#D4D4D4" points="256.582,364.05 408.329,235.041 239.11,235.041 221.398,276.687 191.958,294.4 247.965,364.05 	" class="color c1"/>
    <polygon fill="#F2F2F2" points="91.671,235.041 408.329,235.041 399.474,242.701 297.032,245.812 315.701,266.396 254.906,266.396 
		201.771,294.878 239.588,353.519 159.646,292.484 220.201,274.054 134.036,273.576 	" class="color c2"/>
  </g>
</svg>