<svg version="1.1" baseProfile="tiny" id="图层_1" x="0px" y="0px" width="170.031px" height="138.499px" viewBox="0 0 170.031 138.499" xml:space="preserve" xmlns="http://www.w3.org/2000/svg" xmlns:xlink="http://www.w3.org/1999/xlink" xmlns:xml="http://www.w3.org/XML/1998/namespace">
  <path fill="#AD250E" d="M167.332,47.882c-5.301-1.988-6.471-3.878-5.34-9.479c0.738-3.648,1.795-7.232,2.811-10.817
	c1.252-4.437,2.605-8.849,4.152-14.052c-2.127,0.661-3.391,1.054-4.65,1.447c-4.342,1.364-8.604,3.181-13.045,3.901
	c-2.355,0.383-5.799-0.373-7.381-1.971c-3.1-3.13-5.236-7.206-7.811-10.951c-7.508,7.807-13.803,17.915-24.814,23.51
	C110.64,19.413,112.062,9.686,113.941,0H55.065c1.365,7.338,2.715,14.679,4.016,22.029c0.43,2.428,0.061,4.996,0.061,8.708
	c-11.859-6.597-18.12-16.942-26.285-25.064c-0.917,2.282-1.541,4.419-2.581,6.33c-4.106,7.56-7.771,9.023-15.943,6.479
	c-4.418-1.375-8.795-2.877-13.453-4.408c2.327,8.268,4.69,16.149,6.734,24.117c1.656,6.451,0.52,8.218-5.844,10.506
	C1.304,48.867,0.863,49.097,0,49.48c1.151,1.094,1.978,1.978,2.904,2.744c8.521,7.049,17.097,14.031,25.583,21.126
	c3.705,3.098,7.304,6.338,10.832,9.639c2.645,2.474,3.53,5.442,2.159,9.029c-1.21,3.168-2.12,6.453-3.308,10.124
	c12.584-2.172,24.812-4.241,37.018-6.399c6.569-1.16,8.002-0.088,7.734,6.712c-0.476,12.012-1.111,24.029-1.68,36.042
	c2.765,0,5.532,0,8.297,0.002c-0.412-7.172-0.803-14.341-1.248-21.507c-0.336-5.386-0.936-10.756-1.061-16.138
	c-0.107-4.647,1.555-5.976,6.096-5.427c2.602,0.315,5.174,0.864,7.76,1.284c10.178,1.662,20.352,3.313,31.086,5.058
	c-1.035-2.924-1.691-5.309-2.693-7.535c-2.537-5.637-1.074-10.088,3.543-13.923c5.738-4.77,11.33-9.725,17.027-14.547
	c6.504-5.508,13.055-10.956,19.98-16.76C168.771,48.48,168.06,48.158,167.332,47.882z M100.203,69.418
	c-1.051,0.661-2.072,1.388-3.18,1.94c-7.014,3.508-13.154,7.086-9.41,17.241c-2.038,0-3.894,0.089-5.381,0.089
	c-0.054-0.756,0.452-1.474,0.597-2.085c2.331-9.966-1.651-10.744-7.845-13.899C63.571,66.881,52.642,60.11,41.81,53.101
	c13.574,6.234,27.144,12.471,41.273,18.957c0.558-20.771,1.101-40.902,1.641-61.038c0.162-0.002,0.322-0.002,0.483-0.004
	c0.532,20.018,1.064,40.033,1.621,60.893c14.191-7.183,27.518-13.932,40.846-20.68c0.131,0.241,0.262,0.479,0.391,0.723
	C118.777,57.773,109.492,63.598,100.203,69.418z" class="color c1"/>
</svg>