<svg version="1.1" id="图层_1" x="0px" y="0px" width="208.668px" height="95.189px" viewBox="0 0 208.668 95.189" enable-background="new 0 0 208.668 95.189" xml:space="preserve" xmlns="http://www.w3.org/2000/svg" xmlns:xlink="http://www.w3.org/1999/xlink" xmlns:xml="http://www.w3.org/XML/1998/namespace">
  <g>
    <path fill="#D0B59D" d="M184.158,67.238c0.245,34.59-148.521,39.845-149.812,0.025C32.95,24.136,183.872,26.69,184.158,67.238z" class="color c1"/>
    <path fill="#653331" d="M205.639,40.898c1.045-1.131,0.203-0.885-0.959-2.062c-1.273-1.288-2.061-2.968-3.328-4.246
		c-1.737-1.749-4.043-2.394-6.461-2.385c-2.5,0.008-5.066,0.64-7.418,1.612c-0.051-0.213-0.101-0.403-0.141-0.535
		c0.125-2.289,0.779-5.4,1.756-6.069c0.247-0.03,0.459-0.072,0.523-0.091c10.734-2.923,19.509-11.665,18.906-23.416
		c-0.033-0.657-2.039-0.417-2.875,0.249c-6.98,4.481-16.594,11.992-17.726,21.104c-0.558,0.213-1.509,0.504-2.471,0.502
		c1.123-3.437,1.175-7.391-0.185-10.699c-2.584-6.303-10.795-7.126-11.666-14.101c-0.009-0.066-0.052-0.104-0.072-0.159
		c-0.014-0.029-0.021-0.059-0.037-0.085c-0.215-0.442-0.778-0.583-1.393-0.492c-0.039,0.004-0.074,0.01-0.113,0.015
		c-0.082,0.018-0.161,0.03-0.243,0.057c-0.714,0.162-1.368,0.593-1.414,1.228c-0.688,9.735,2.509,20.705,11.099,26.058
		c-0.089,1.997-0.521,6.536-1.695,8.005c-1.41,1.765-4.207,5.899-5.174,7.339c-0.441-0.375-0.896-0.748-1.361-1.119
		c-0.398-1.453-0.881-2.934-1.469-4.447c-0.22-0.563-0.854-0.839-1.414-0.623c-0.563,0.219-0.842,0.853-0.623,1.415
		c0.187,0.481,0.346,0.954,0.513,1.428c-0.511-0.355-1.028-0.71-1.556-1.061c-0.025-0.637-0.084-1.265-0.172-1.877
		c0.262-0.112,0.481-0.323,0.592-0.61c0.217-0.563-0.064-1.194-0.629-1.411c-0.121-0.046-0.265-0.089-0.4-0.133
		c-0.381-1.493-0.885-2.867-1.377-4.061c-0.229-0.558-0.868-0.822-1.426-0.595c-0.56,0.23-0.824,0.869-0.594,1.428
		c0.385,0.936,0.688,1.819,0.953,2.683c-1.557-0.248-3.502-0.432-5.807-0.552c-2.691-1.369-5.461-2.624-8.217-3.734
		c-1.512-0.609-3.155-1.176-4.918-1.698c-1.11-0.468-2.252-0.903-3.41-1.32c-5.014-3.077-10.143-5.376-14.363-6.482
		c-0.582-0.154-1.182,0.196-1.333,0.78c-0.153,0.584,0.196,1.181,0.78,1.334c1.404,0.368,2.929,0.884,4.525,1.528
		c-3.98-0.767-8.16-1.229-12.539-1.277c-0.412-0.004-0.819-0.008-1.236-0.01c-8.844-0.836-19.763-0.885-30.764,0.435
		c-1.436-0.195-2.758-0.36-3.944-0.496c-6.445-0.737-13.608,0.067-20.772,2.25c-1.526,0.197-3.012,0.431-4.458,0.7
		c0.856-0.454,1.698-0.874,2.518-1.25c0.549-0.252,0.789-0.901,0.537-1.449c-0.252-0.547-0.9-0.787-1.449-0.536
		c-2.719,1.25-5.731,2.961-8.78,5.024c-1.884,0.602-3.665,1.297-5.334,2.09c0.513-0.507,1.017-0.99,1.494-1.445
		c0.437-0.417,0.452-1.107,0.035-1.545c-0.418-0.438-1.108-0.451-1.545-0.036c-1.837,1.755-4.141,3.962-6.026,6.746
		c-1.455,1.157-2.768,2.438-3.917,3.863c-0.25-1.369-0.152-2.543,0.336-3.354c0.312-0.518,0.146-1.188-0.372-1.5
		c-0.514-0.313-1.188-0.146-1.499,0.373c-0.89,1.477-1.016,3.472-0.429,5.737c-2.564,1.584-4.709,3.309-6.386,5.152
		c-0.147-0.28-0.282-0.583-0.376-0.938c-0.562-2.102,0.307-4.866,2.517-7.991l-0.006-0.005c3.237-3.931,5.532-8.621,4.64-13.854
		c-0.547-3.204-2.323-6.508-4.806-8.654c-0.887-0.766-2.835,1.533-2.238,2.438c0.797,1.209,1.317,2.838,1.396,4.272
		c0.239,4.333-3.856,5.827-6.149,8.806c-1.557,2.023-2.517,4.777-1.708,7.212l-0.027,0.121c-1.321-2.818-4.294-4.305-7.414-4.617
		c-3.612-0.361-6.505-0.246-9.09-3.176c-1.256-1.424-2.215-3.231-2.711-5.063c-0.182-0.677-2.361,1.481-2.346,2.175
		C0.215,34.672,9.242,41.081,19.194,42.27l6.186,5.078c-0.417,0.87-0.745,1.761-0.973,2.67c-0.44,1.76-0.53,3.549-0.273,5.363
		c-0.029,0.144-0.058,0.287-0.084,0.431c-2.079,1.723-3.945,3.509-5.572,5.356c-0.398,0.453-0.354,1.144,0.099,1.542
		c0.45,0.397,1.142,0.354,1.542-0.099c0.986-1.121,2.072-2.229,3.249-3.316c-0.661,1.759-0.624,4.019,1.562,6.521
		c0.834,0.955,1.81,1.846,2.916,2.677c1.753,3.753,4.881,7.132,9.322,9.983c6.74,4.325,16.157,6.764,26.267,8.024
		c7.814,1.902,16.672,2.876,26.249,2.875c6.944,0,14.271-0.512,21.844-1.553c4.667-0.643,9.235-1.461,13.644-2.43
		c17.012,0.233,32.116-1.199,40.795-4.332c13.35-4.817,16.146-11.943,16.143-17.073c0-1.005-0.109-2.024-0.321-3.056
		c0.647-1.013,1.065-2.103,1.252-3.267c0.569-3.572-1.2-7.348-4.446-11.024l2.315-3.353c1.877-2.489,3.71-4.43,4.528-4.43
		c0.246,0,0.463-0.033,0.658-0.085c6.084,4.308,14.414,6.621,21.178,2.675c0.494-0.187,0.945-0.461,1.3-0.844
		C209.251,39.865,206.114,40.549,205.639,40.898z M205.271,6.242c-0.27,8.688-6.139,15.98-14.166,18.925
		C191.59,17.403,199.001,10.629,205.271,6.242z M5.478,31.274c0.35,0.191,0.708,0.371,1.082,0.516
		c4.682,1.802,11.622-0.432,13.164,6.334c0.049,0.482,0.1,0.963,0.149,1.446C14.039,38.593,8.696,35.778,5.478,31.274z
		 M31.098,21.039c0.268-0.577,0.449-1.177,0.591-1.784c0.075,0.179,0.169,0.354,0.236,0.535c1.861,4.948,0.24,9.508-2.727,13.322
		l-0.021-0.018l-2.465,2.595c-0.708-0.742-1.416-1.483-2.123-2.227C20.969,28.547,29.257,24.999,31.098,21.039z M81.554,81.409
		c0.043,0.003,0.083,0.006,0.126,0.009c0.123,0.021,0.246,0.043,0.37,0.064C81.885,81.458,81.719,81.433,81.554,81.409z
		 M82.293,79.283c-2.257-0.391-4.458-0.806-6.595-1.243c3.64-0.008,7.369-0.122,11.13-0.295c3.19,0.188,6.419,0.283,9.661,0.283
		c7.603,0,15.245-0.503,22.493-1.422c9.849-0.786,19.193-1.993,27.279-3.559C129.415,78.736,104.679,80.864,82.293,79.283z
		 M35.235,52.722c0.198,0.27,0.387,0.537,0.606,0.809c0.272,0.336,0.566,0.671,0.87,1.006c-0.164,1.092-0.222,2.168-0.151,3.226
		c-0.123-0.134-0.243-0.267-0.359-0.401c-1.089-1.268-1.841-2.614-2.26-4.061C34.357,53.106,34.795,52.914,35.235,52.722z
		 M170.696,54.693c-0.109-0.328-0.231-0.654-0.361-0.98l0.136,0.042C170.563,54.066,170.641,54.379,170.696,54.693z M47.918,62.979
		c-0.186-0.229-0.351-0.449-0.53-0.675c4.64,2.347,10.356,4.346,17.149,5.724c-5.445-0.789-10.45-1.822-14.781-3.155
		C49.077,64.261,48.45,63.634,47.918,62.979z M119.223,72.205c-10.018,1.51-20.473,2.619-30.651,3.173
		c-2.165-0.035-4.308-0.101-6.436-0.181c-11.261-1.04-20.395-3.302-26.767-6.566C72.232,72.39,95.874,72.91,119.223,72.205z
		 M159.087,62.965c3.173-1.507,5.617-3.292,7.37-5.363c-0.203,1.074-0.633,2.16-1.305,3.254c-1.922,0.796-4.03,1.58-6.301,2.347
		C158.932,63.123,159.008,63.044,159.087,62.965z M163.816,51.707l1.654,0.51c0.332,0.594,0.592,1.191,0.779,1.796
		c-0.375,0.702-0.8,1.382-1.324,2.021c-0.688,0.837-1.518,1.623-2.477,2.363C163.486,56.293,163.943,54.059,163.816,51.707z
		 M166.624,62.613c0.854-0.366,1.677-0.735,2.457-1.105c-0.569,0.903-1.28,1.814-2.13,2.732c-0.926,0.555-1.96,1.086-3.107,1.599
		C164.958,64.767,165.885,63.692,166.624,62.613z M168.232,59.489c0.408-1.179,0.594-2.358,0.555-3.539
		c0.303,1.006,0.498,2.003,0.581,2.983C169.001,59.119,168.622,59.304,168.232,59.489z M163.807,51.542
		c-0.031-0.476-0.08-0.955-0.158-1.439c0.062-0.061,0.121-0.12,0.182-0.182c0.25,0.287,0.486,0.575,0.706,0.865L163.807,51.542z
		 M161.631,51.877c0.149,3.369-1.128,6.472-3.814,9.262c-8.35,3.833-22.153,5.785-41.725,5.917
		C138.866,63.085,153.705,58.158,161.631,51.877z M107.428,69.186c2.289,0.042,4.508,0.062,6.659,0.062
		c13.075,0,23.65-0.765,31.941-2.329c-3.449,0.867-7.085,1.692-10.864,2.466c-13.572,0.705-30.801,1.263-47.201,0.628
		c4.637-0.069,9.567-0.385,14.788-0.978C104.286,69.102,105.838,69.158,107.428,69.186z M44.313,58.057
		c-1.734-2.666-2.952-5.123-3.755-7.396c0.761-0.265,1.546-0.526,2.352-0.785c8.553,7.718,23.576,14.989,45.832,17.946
		C67.964,68.28,53.197,63.844,44.313,58.057z M37.861,49.398c-0.429,0.161-0.859,0.322-1.274,0.485
		c0.401-0.228,0.814-0.449,1.223-0.674C37.826,49.272,37.844,49.336,37.861,49.398z M39.208,53.24
		c0.19,0.44,0.402,0.891,0.621,1.343c-0.26-0.242-0.514-0.484-0.756-0.729C39.117,53.648,39.154,53.445,39.208,53.24z M37.34,47.048
		c-0.523,0.281-1.049,0.563-1.562,0.85c0.407-0.688,0.886-1.357,1.4-2.021C37.221,46.26,37.276,46.651,37.34,47.048z M37.327,51.851
		c-0.002,0.006-0.003,0.012-0.005,0.018c-0.003-0.004-0.005-0.008-0.009-0.012C37.318,51.855,37.322,51.853,37.327,51.851z
		 M37.266,61.332c0.205,0.611,0.452,1.217,0.742,1.814c-1.399-1.316-2.462-2.666-3.187-4.047
		C35.535,59.885,36.352,60.629,37.266,61.332z M38.747,56.551c1.166,1.042,2.487,2.063,3.969,3.05c0.8,1.208,1.7,2.453,2.704,3.734
		c-2.393-0.973-4.505-2.063-6.24-3.303C38.869,58.9,38.728,57.738,38.747,56.551z M48.701,66.853
		c3.461,2.983,8.113,5.183,13.22,6.791c-1.88-0.229-3.73-0.474-5.511-0.748c-4.849-1.677-9.029-3.508-12.427-5.459
		c-0.671-0.63-1.287-1.278-1.845-1.945c-0.525-0.631-0.99-1.271-1.395-1.924C43.041,64.818,45.717,65.906,48.701,66.853z
		 M145.756,70.953c-0.843,0.165-1.701,0.323-2.566,0.479c0.397-0.132,0.789-0.265,1.178-0.397
		C144.828,71.008,145.296,70.981,145.756,70.953z M152.938,67.371c3.345-0.971,6.472-1.979,9.302-3.021
		c-0.413,0.393-0.854,0.785-1.326,1.181c-0.983,0.823-2.085,1.611-3.29,2.365c-1.563,0.167-3.197,0.309-4.904,0.422
		c-0.603,0.04-1.238,0.083-1.898,0.127C151.559,68.093,152.262,67.735,152.938,67.371z M154.528,40.137
		c0.76,0.359,1.501,0.729,2.219,1.101c0.269,0.188,0.517,0.385,0.776,0.576c0.18,0.245,0.354,0.491,0.523,0.736
		c-1.753-1.07-3.666-2.104-5.727-3.097C153.073,39.681,153.809,39.909,154.528,40.137z M160.391,46.755
		c0.363,0.857,0.66,1.717,0.869,2.573c-7.813,6.863-24.609,12.283-50.988,16.482c-2.586,0.411-5.104,0.754-7.555,1.036
		c-28.597-1.271-47.306-9.135-57.385-17.723c23.799-7.135,63.517-11.994,91.481-13.471
		C146.609,38.892,155.025,42.644,160.391,46.755z M43.487,47.466c-0.269-0.259-0.522-0.519-0.775-0.777
		c10.696-5.171,23.799-9.504,38.505-12.612c7.994-1.689,15.978-2.883,23.599-3.577c7.844,0.781,16.032,1.937,24.069,3.423
		C101.087,35.807,65.485,40.562,43.487,47.466z M39.697,43.123c2.071-1.952,4.638-3.787,7.731-5.489
		c-2.5,2.105-4.674,4.475-6.478,7.101C40.503,44.195,40.08,43.658,39.697,43.123z M31.746,57.61
		c0.003-0.137,0.019-0.274,0.025-0.411c0.646,2.744,2.34,5.373,5.085,7.857c1.647,1.489,3.639,2.899,5.924,4.229
		c0.414,0.373,0.848,0.74,1.298,1.102c-1.621-0.433-3.157-0.893-4.597-1.381c-0.918-0.53-1.781-1.08-2.59-1.648
		c-1.452-1.023-2.671-2.1-3.709-3.212C32.186,62.1,31.697,59.923,31.746,57.61z M53.006,76.734c2.119,0.598,4.346,1.147,6.667,1.649
		c3.259,1.125,6.772,2.114,10.467,2.973c-8.488-1.326-15.958-3.152-21.598-5.313C49.992,76.297,51.475,76.531,53.006,76.734z
		 M101.611,81.874c23.895-0.563,44.57-4.878,56.168-11.553c0.238-0.069,0.474-0.139,0.705-0.209
		c0.193-0.058,0.384-0.116,0.572-0.175c0.379-0.045,0.752-0.09,1.121-0.138c-6.109,4.017-14.354,7.604-23.746,10.463
		c-5.838,1.296-12.082,2.195-18.487,2.751C112.613,82.793,107.131,82.418,101.611,81.874z M164.893,70.052
		c-1.875,1.852-4.328,3.529-7.313,5.018C160.246,73.601,162.704,71.933,164.893,70.052z M169.251,68.109
		c2.614-0.685,4.861-1.492,6.741-2.426c-0.369,1.001-0.928,1.881-1.678,2.623c-1.584,1.571-5.019,3.295-9.823,5.026
		C166.641,71.619,168.172,69.846,169.251,68.109z M170.596,65.418c0.195-0.51,0.358-1.014,0.49-1.506
		c1.955-1.736,3.148-3.649,3.575-5.738c0.336-0.28,0.646-0.565,0.923-0.854c0.684,2.012,0.994,3.871,0.938,5.528
		C174.947,63.818,172.965,64.677,170.596,65.418z M171.676,44.7l-0.396,0.276c-0.16-0.101-0.309-0.199-0.473-0.3
		c-0.406-0.354-0.83-0.702-1.256-1.053c-0.104-0.629-0.224-1.231-0.348-1.798c-0.083-0.379-0.359-0.651-0.7-0.776
		c0.011-0.075,0.024-0.152,0.034-0.229c0.955,0.657,1.846,1.319,2.704,1.983C171.404,43.442,171.553,44.076,171.676,44.7z
		 M166.164,36.044c0.051,0.265,0.115,0.535,0.152,0.793c-0.594-0.364-1.195-0.725-1.807-1.08
		C165.126,35.843,165.672,35.939,166.164,36.044z M166.451,39.441c-0.012,0.359-0.021,0.723-0.064,1.072
		c-1.291-1.216-2.666-2.415-4.144-3.579C163.719,37.756,165.122,38.593,166.451,39.441z M152.506,33.018c-0.084,0-0.168,0-0.25,0
		c-0.128-0.111-0.254-0.223-0.383-0.332C152.08,32.799,152.299,32.903,152.506,33.018z M152.387,36.102
		c-0.563-0.306-1.115-0.619-1.697-0.912c0.164-0.001,0.326-0.003,0.488-0.004c0.135,0.059,0.271,0.118,0.404,0.177
		C151.855,35.607,152.122,35.854,152.387,36.102z M133.277,27.117c1.561,0.503,3.271,1.127,5.076,1.854
		c-3.801-0.688-7.963-1.13-12.396-1.337c-0.224-0.031-0.448-0.063-0.674-0.092c-5.681-0.754-11.351-1.466-16.935-2.07
		C117.191,25.45,125.727,25.994,133.277,27.117z M105.028,28.192c-0.362,0.033-0.725,0.065-1.088,0.102
		c-3.016-0.292-5.983-0.53-8.874-0.713C98.388,27.696,101.717,27.902,105.028,28.192z M93.303,29.61
		c-16.849,2.543-34.202,7.295-48.593,13.8c4.161-4.849,9.898-8.604,16.498-11.464c1.825-0.569,3.706-1.099,5.633-1.59
		c1.824-0.235,3.693-0.439,5.604-0.609C78.339,29.222,85.488,29.195,93.303,29.61z M63.989,26.629
		c2.384-0.304,4.868-0.521,7.439-0.657c-0.476,0.13-0.946,0.263-1.418,0.399c-0.446,0.055-0.89,0.111-1.333,0.17
		c-2.818,0.375-5.774,0.866-8.757,1.511C61.261,27.531,62.618,27.056,63.989,26.629z M43.615,33.532
		c-0.24,0.12-0.488,0.229-0.726,0.352c-0.077,0.03-0.154,0.062-0.231,0.093c0.595-0.441,1.223-0.855,1.866-1.255
		C44.218,32.988,43.916,33.259,43.615,33.532z M31.651,42.859c-0.279,0.363-0.547,0.731-0.806,1.11
		c-0.188,0.182-0.353,0.371-0.534,0.557c-0.067-0.054-0.134-0.113-0.207-0.149C30.584,43.862,31.089,43.354,31.651,42.859z
		 M25.549,62.859c0.263,0.38,0.556,0.754,0.88,1.122c0.016,0.096,0.033,0.189,0.051,0.286
		C26.075,63.789,25.765,63.321,25.549,62.859z M27.171,53.379c-0.086,0.063-0.169,0.124-0.255,0.188
		c0.106-0.293,0.221-0.584,0.344-0.873C27.224,52.923,27.195,53.152,27.171,53.379z M29.72,55.613
		c-0.083,0.651-0.145,1.302-0.159,1.951c0,0.022,0.002,0.046,0.001,0.068c-0.127-0.574-0.222-1.155-0.264-1.748
		C29.432,55.794,29.581,55.704,29.72,55.613z M29.579,67.07c-0.067-0.16-0.132-0.318-0.194-0.479
		c0.366,0.261,0.75,0.517,1.148,0.767c0.257,0.283,0.521,0.567,0.794,0.854C30.711,67.843,30.129,67.465,29.579,67.07z
		 M38.344,76.633c-2.663-1.709-4.801-3.592-6.405-5.625c1.41,0.718,2.945,1.373,4.591,1.972c2.287,1.867,4.884,3.752,7.793,5.652
		c1.555,1.018,3.218,1.965,4.98,2.842C45.113,80.201,41.413,78.602,38.344,76.633z M64.638,84.535
		c-6.412-1.493-12.275-3.665-17.282-6.602c9.906,3.898,25.038,6.657,41.337,7.614C80.279,85.717,72.105,85.43,64.638,84.535z
		 M165.221,79.004c-6.062,2.188-15.551,3.56-26.842,4.044c2.987-0.527,5.86-1.142,8.594-1.845c3.481-0.895,6.484-1.909,9.073-3.006
		c9.857-2.713,17.107-5.661,19.808-8.338c1.539-1.527,2.461-3.467,2.759-5.723c0.46-0.326,0.886-0.664,1.274-1.014
		c0.021,0.29,0.031,0.577,0.032,0.862C179.924,70.338,174.842,75.531,165.221,79.004z M177.202,55.388
		c1.013,1.693,1.761,3.383,2.213,5.035c-0.226,0.274-0.478,0.542-0.752,0.805C178.508,59.416,178.021,57.457,177.202,55.388z
		 M180.877,57.319c-0.021,0.129-0.045,0.257-0.074,0.385c-0.779-1.948-1.894-3.909-3.306-5.851
		c-0.032-0.155-0.071-0.313-0.118-0.469c-0.224-0.761-0.643-1.514-1.207-2.259l0.955-0.864
		C179.92,51.511,181.305,54.637,180.877,57.319z M182.496,24.525c-5.005-3.835-7.736-9.912-8.631-16.218
		c2.111,1.667,4.806,2.545,6.579,4.826C182.913,16.314,183.499,20.644,182.496,24.525z M197.366,41.812
		c-2.663-0.613-5.338-1.926-7.521-3.578c-1.822-1.381-1.662-1.89-1.363-3.729c1.971-0.91,4.924-1.387,7.232-0.512
		c3.383,1.279,4.231,5.15,7.139,7.017c0.398,0.258,0.883,0.451,1.398,0.576C202.248,42.3,199.48,42.302,197.366,41.812z" class="color c2"/>
  </g>
</svg>