<svg version="1.1" id="图层_1" x="0px" y="0px" width="53.389px" height="107.326px" viewBox="0 0 53.389 107.326" enable-background="new 0 0 53.389 107.326" xml:space="preserve" xmlns="http://www.w3.org/2000/svg" xmlns:xlink="http://www.w3.org/1999/xlink" xmlns:xml="http://www.w3.org/XML/1998/namespace">
  <path fill="#6DBD00" d="M26.694,63.804c0.661,0,1.312-0.033,1.96-0.079v41.642c0,1.083-0.877,1.96-1.96,1.96s-1.96-0.878-1.96-1.96
	V63.725C25.383,63.771,26.033,63.803,26.694,63.804z M26.694,0C11.951,0,0,22.366,0,37.108C0,51.191,10.907,62.72,24.734,63.723
	v-8.526l-12.826-7.384c-0.938-0.539-1.26-1.737-0.72-2.675c0.541-0.938,1.737-1.261,2.675-0.721l10.871,6.258v-13.2
	c0-1.081,0.877-1.96,1.96-1.96s1.96,0.877,1.96,1.96v5.247l4.742-2.739c0.936-0.541,2.137-0.221,2.677,0.717
	c0.541,0.938,0.22,2.136-0.717,2.677l-4.874,2.813l0,0l-1.828,1.056v16.48C42.481,62.72,53.389,51.193,53.389,37.11
	C53.387,22.366,41.437,0,26.694,0z" class="color c1"/>
</svg>