<svg version="1.1" id="图层_1" x="0px" y="0px" width="40.303px" height="43.525px" viewBox="0 0 40.303 43.525" enable-background="new 0 0 40.303 43.525" xml:space="preserve" xmlns="http://www.w3.org/2000/svg" xmlns:xlink="http://www.w3.org/1999/xlink" xmlns:xml="http://www.w3.org/XML/1998/namespace">
  <g>
    <path fill="#FFFFFF" d="M38.978,13.752c-2.104-0.074-4.17,0.185-6.137,0.755c-0.135-2.06-0.599-4.076-1.384-6.021
		c-0.284-0.702-1.085-1.043-1.788-0.758c-1.849,0.746-3.542,1.75-5.06,2.991c-0.91-1.736-2.079-3.322-3.486-4.731
		c-0.258-0.257-0.606-0.4-0.973-0.4c-0.362,0-0.713,0.145-0.971,0.4c-1.409,1.409-2.577,2.995-3.488,4.731
		c-1.517-1.242-3.212-2.245-5.059-2.991C9.93,7.442,9.13,7.782,8.846,8.485c-0.786,1.945-1.249,3.963-1.384,6.021
		c-1.967-0.569-4.031-0.828-6.137-0.755c-0.759,0.025-1.352,0.662-1.324,1.42c0.182,5.213,2.383,10.044,6.198,13.602
		c1.449,1.354,3.067,2.459,4.803,3.303c-1.284,1.892-2.019,4.118-2.1,6.435c-0.024,0.758,0.566,1.394,1.324,1.421
		c0.14,0.004,0.28,0.007,0.437,0.007c1.838,0,3.619-0.417,5.227-1.179c0.881,1.595,1.981,3.058,3.291,4.365
		c0.258,0.258,0.607,0.402,0.971,0.402c0.365,0,0.715-0.146,0.973-0.402c1.309-1.31,2.41-2.771,3.29-4.365
		c1.607,0.762,3.389,1.179,5.229,1.179c0.154,0,0.296-0.003,0.436-0.007c0.757-0.027,1.351-0.663,1.323-1.421
		c-0.081-2.314-0.814-4.542-2.1-6.435c1.734-0.845,3.353-1.95,4.803-3.303c3.815-3.558,6.018-8.389,6.198-13.602
		C40.329,14.413,39.735,13.777,38.978,13.752z M30.134,15.516c-1.868,0.861-3.608,2.026-5.156,3.47
		c-0.947,0.885-1.795,1.847-2.537,2.872c-0.197-0.946-0.469-1.883-0.808-2.801c0.841-1.908,2.012-3.623,3.489-5.099
		c1.253-1.256,2.686-2.292,4.27-3.093C29.861,12.379,30.108,13.936,30.134,15.516z M20.151,8.985
		c0.957,1.134,1.752,2.376,2.375,3.716c-0.902,0.995-1.696,2.074-2.375,3.229c-0.678-1.155-1.471-2.234-2.375-3.229
		C18.401,11.361,19.195,10.117,20.151,8.985z M10.911,10.865c1.584,0.801,3.017,1.837,4.271,3.095
		c1.6,1.599,2.843,3.479,3.695,5.588c0.813,2.013,1.226,4.13,1.226,6.292c0,0.022,0,0.045,0,0.066
		c-1.054-2.597-2.67-4.953-4.778-6.922c-1.55-1.442-3.288-2.607-5.156-3.47C10.194,13.936,10.441,12.379,10.911,10.865z
		 M2.856,16.507c8.132,0.406,14.84,6.661,15.813,14.744C10.537,30.846,3.829,24.591,2.856,16.507z M13.636,33.122
		c1.345,0.424,2.738,0.7,4.162,0.822c-1.529,1.749-3.658,2.889-5.98,3.175C12.102,35.664,12.724,34.295,13.636,33.122z
		 M20.151,40.126c-0.738-0.875-1.381-1.817-1.924-2.817c0.705-0.557,1.353-1.189,1.925-1.896c0.572,0.705,1.219,1.34,1.924,1.896
		C21.533,38.309,20.891,39.251,20.151,40.126z M28.486,37.119c-2.32-0.286-4.449-1.426-5.98-3.175
		c1.424-0.124,2.818-0.398,4.164-0.822C27.579,34.295,28.202,35.664,28.486,37.119z M21.634,31.252
		c0.469-3.929,2.291-7.528,5.217-10.258c2.927-2.729,6.646-4.295,10.596-4.488C36.475,24.59,29.766,30.847,21.634,31.252z" class="color c1"/>
    <path fill="#FFFFFF" d="M20.151,2.748c0.362,0,0.716-0.147,0.973-0.403c0.256-0.255,0.4-0.609,0.4-0.972
		c0-0.36-0.146-0.715-0.4-0.971C20.866,0.146,20.514,0,20.151,0c-0.36,0-0.715,0.146-0.971,0.402
		c-0.256,0.256-0.402,0.609-0.402,0.971s0.146,0.717,0.402,0.972C19.437,2.601,19.79,2.748,20.151,2.748z" class="color c1"/>
    <path fill="#FFFFFF" d="M10.118,5.493c0.361,0,0.717-0.146,0.972-0.401c0.256-0.256,0.401-0.609,0.401-0.972
		c0-0.361-0.146-0.715-0.401-0.972c-0.255-0.256-0.609-0.402-0.972-0.402c-0.361,0-0.716,0.146-0.972,0.402
		C8.891,3.406,8.745,3.759,8.745,4.12s0.146,0.716,0.401,0.972S9.757,5.493,10.118,5.493z" class="color c1"/>
    <path fill="#FFFFFF" d="M30.185,5.493c0.359,0,0.715-0.146,0.971-0.401c0.257-0.255,0.402-0.609,0.402-0.972
		c0-0.361-0.146-0.715-0.402-0.972c-0.256-0.256-0.608-0.402-0.971-0.402c-0.361,0-0.717,0.146-0.972,0.402
		c-0.256,0.257-0.401,0.609-0.401,0.972c0,0.361,0.146,0.716,0.401,0.972S29.822,5.493,30.185,5.493z" class="color c1"/>
  </g>
</svg>