<svg version="1.1" id="图层_1" x="0px" y="0px" width="182.813px" height="113.621px" viewBox="0 0 182.813 113.621" enable-background="new 0 0 182.813 113.621" xml:space="preserve" xmlns:xml="http://www.w3.org/XML/1998/namespace" xmlns="http://www.w3.org/2000/svg" xmlns:xlink="http://www.w3.org/1999/xlink">
  <path fill="#00A4DA" d="M104.363,0C58.891,0,21.895,36.994,21.895,82.466c0,5.06,0.506,9.993,1.389,14.8
	C8.82,94.305,2.1,79.598,9.922,66.574c2.064-3.438,5.05-6.329,7.367-9.176C8.357,59.329,1.904,66.193,0.303,75.871
	c-1.994,12.008,6.059,22.801,18.073,24.395c5.629,0.748,10.98-0.434,16.496-1.955c-1.822-0.131-3.588-0.217-5.322-0.33
	c-0.854-4.592-1.491-10.725-1.491-15.515c0-42.074,34.229-76.306,76.305-76.306c33.287,0,61.59,21.459,71.99,51.242
	c1.559-0.131,3.166-0.227,4.924-0.25l1.533-0.019C172.09,24.025,140.996,0,104.363,0z" class="color c1"/>
  <path fill="#00A4DA" d="M134.68,68.85c-15.148-7.26-30.236-6.166-44.595,1.659c-11.762,6.402-22.823,14.072-34.334,20.946
	c-14.278,8.52-28.668,16.881-46.586,14.074c0,0,6.414,7.402,20.16,7.896c-0.299,0.064-0.598,0.136-0.9,0.195
	c2.896,0.006,5.742-0.209,8.539-0.617c0.232-0.03,0.464-0.063,0.697-0.101c0.053-0.008,0.107-0.018,0.16-0.024
	c0.545-0.086,1.102-0.187,1.662-0.291c0.027-0.006,0.055-0.012,0.082-0.017c0.524-0.102,1.059-0.211,1.598-0.331
	c0.076-0.019,0.152-0.033,0.229-0.052c0.295-0.065,0.594-0.141,0.893-0.213c3.074-0.742,6.082-1.725,9.019-2.936
	c4.307-1.732,8.957-4.049,13.971-7.102l0.057-0.037c9.109-4.974,18.125-10.137,27.203-15.17
	c14.273-7.912,28.457-16.071,46.012-15.496c-0.61-0.448-0.879-0.683-1.182-0.855C136.484,69.857,135.611,69.289,134.68,68.85z" class="color c1"/>
</svg>