<svg version="1.1" id="图层_1" x="0px" y="0px" width="126.5px" height="67.613px" viewBox="0 0 126.5 67.613" enable-background="new 0 0 126.5 67.613" xml:space="preserve" xmlns="http://www.w3.org/2000/svg" xmlns:xlink="http://www.w3.org/1999/xlink" xmlns:xml="http://www.w3.org/XML/1998/namespace">
  <path fill="#48B8FF" d="M8.704,49.262l-0.06,0.017C24.481,60.802,43.959,67.613,65,67.613c18.501,0,35.792-5.266,50.465-14.369
	c-4.72-1.447-7.465-7.963-7.465-7.963s-7.416,1.75-13.416-0.25c-5.688-1.896-11.334-9.258-11.334-9.258s-2.813,5.132-10.563,4.215
	S61.605,32.652,59.5,29.447C51.628,17.458,34.685,7.013,22.203,7.013c-1.49,0-0.844,0.144-2.025,0.426c0,0,3.329,3.056,4.948,4.549
	C40.219,25.909,19.937,46.11,8.704,49.262z" class="color c1"/>
  <path fill="#241C33" d="M24.5,54.698c2.177-2.891,15.438-16.459,14.344-33.484c0.303-0.136,3.447,7.65,0.391,15.503
	C36.383,44.042,30.087,51.266,24.5,54.698z" class="color c2"/>
  <path fill="#241C33" d="M43.748,29.265C42,41.113,39.5,44.863,33.805,54.55C39.731,47.753,46.559,38.949,43.748,29.265z" class="color c2"/>
  <path fill="#241C33" d="M31.813,13.231l-0.416-0.329l-0.404-0.098c9.729,17.147-2.955,27.422-12.419,41.387
	C27.619,45.43,46.404,26.322,31.813,13.231z" class="color c2"/>
  <path fill="#241C33" d="M81.665,43.599l-4.257,0.426c-26.606,4.488-25.754-17.312-39.719-28.426
	c-1.395-1.103-2.93-2.099-4.654-2.949c-0.381-0.191-0.762-0.373-1.159-0.558c-0.079-0.02-0.158-0.063-0.242-0.104
	c12.267,9.234,18.799,34.262,36.685,34.525C70.671,46.546,79.21,45.041,81.665,43.599z" class="color c2"/>
  <path fill="#241C33" d="M46.229,34.861c-0.604,8.502-3.166,14.188-5.298,20.85C46.25,48.488,48.189,44.748,46.229,34.861z" class="color c2"/>
  <path fill="#241C33" d="M110.145,37.76c-0.939-1.1-15.168,6.681-23.011-6.797c-6.206-10.686-6.063,12.097-21.726-9.469
	C55.355,7.644,11.563-12.491,4.285,10.328c-5.088,15.951,18.704,17.619,16.097,4.885c-0.282-1.381-2.178-3.838-3.5-3.11
	c4.055,2.213,1.26,5.864-1.932,6.532c-14.794,1.782-3.474-21.385,7.71-6.387C33.405,26.658,7.805,44.962,0,46.824
	c14.269-0.117,28.966-17.906,28.563-25.709C27.999,10.217,21.41,4.263,15.023,3.353c12.13-2.758,39.801,8.801,48.881,21.944
	c2.13,3.078,3.871,5.396,5.424,7.086c2.072,2.257,3.809,3.367,5.656,3.603c2.565,0.32,5.344-1.006,9.578-3.322
	c6.946,9.435,12.233,12.834,24.734,9.008c6.096,8.441,9.952,9.316,17.202,8.066C117.125,47.738,115.917,44.531,110.145,37.76z" class="color c2"/>
  <path fill="#241C33" d="M108.154,53.81l1.188,0.428c-11.854,0.469-14.811-4.318-21.924-6.627l-2.868,2.17
	c-11.091,7.652-29.546,4.543-34.56-3.004c-1.377,3.453-2.7,10.313-5.752,12.035c6.447-10.75,2.106-18.254,7.623-12.439
	c5.814,6.111,22.036,7.416,31.311,1.56C92.066,42.333,86.6,48.103,108.154,53.81z" class="color c2"/>
  <path fill="#241C33" d="M50.381,54.875l-0.649,2.371l-0.538,3.045c2-3.334,0.903-1.395,2.214-4.365
	c11.464,7.603,30.814,3.955,33.729-1.799C85.137,54.126,66.693,63.683,50.381,54.875z" class="color c2"/>
</svg>