<svg version="1.1" id="图层_1" x="0px" y="0px" width="200px" height="199.52px" viewBox="0 0 200 199.52" enable-background="new 0 0 200 199.52" xml:space="preserve" xmlns="http://www.w3.org/2000/svg" xmlns:xlink="http://www.w3.org/1999/xlink" xmlns:xml="http://www.w3.org/XML/1998/namespace">
  <g>
    <path fill="#FFFFFF" d="M86.406,182.857l0.004,0.004l-3.961-4.672l0.072,0.043c-19.697-18.41-21.455-36.077-18.21-49.24
		c-2.36-0.13-4.384-1.478-5.939-3.263c-0.795-0.911-1.467-1.943-2.047-3c-0.698-1.242-0.986-3.258-1.854-4.306
		c0.835,1.019,1.799,2.313,3.028,2.848c2.693,1.172,5.566,1.116,7.063,4.135c0.036,0.07,0.207,0.642,0.379,1.306
		c3.65-12.134,11.216-19.896,11.216-19.896c-9.517,14.215-11.66,26.246-9.993,36.172c1.536-2.782,4.311-2.782,6.938-3.922
		c1.222-0.538,2.193-1.831,3.017-2.836c-0.861,1.051-1.153,3.063-1.845,4.307c-0.581,1.055-1.258,2.089-2.05,3.001
		c-1.401,1.603-3.182,2.848-5.24,3.174c5.861,21.184,28.977,31.563,28.977,31.563s-17.3-31.538-9.476-58.399
		c0,0,0.8-2.607,1.002-3.145c0.627-1.774,2.044-5.383,3.537-9.067c-3.299-0.696-5.997-2.921-7.997-5.678
		c-1.107-1.51-1.987-3.19-2.744-4.89c-0.894-2.004-1.071-5.133-2.249-6.866c1.122,1.656,2.432,3.775,4.24,4.765
		c3.983,2.162,8.394,2.469,10.289,7.3c0.032,0.075,0.122,0.486,0.231,1.056c1.478-3.553,2.75-6.456,3.056-6.814
		c0.011-0.01,1.089-2.108,1.632-3.066c1.558-4.137,2.052-9.749,2.057-9.804c-0.197-2.182-0.593-3.79-0.63-3.935
		c-0.941-2.195-2.203-4.411-3.541-6.576c-2.573-4.175-5.359-8.152-6.315-11.372c-0.404-1.348-0.639-2.736-0.796-4.144
		c-2.218-0.229-4.121-1.53-5.601-3.229c-0.795-0.915-1.464-1.946-2.057-2.999c-0.682-1.245-0.977-3.257-1.843-4.308
		c0.824,1.004,1.786,2.303,3.018,2.838c2.313,1.003,4.747,1.116,6.34,3.032c0.24-4.459,1.413-8.935,3.107-12.892
		c0.603-1.401,1.324-2.729,2.087-4.031c-0.049-1.294-0.022-2.56,0.007-2.705c0.983-5.098,5.259-6.2,8.774-9.06
		c1.611-1.304,2.503-3.627,3.306-5.465c-0.842,1.919-0.448,5.03-0.956,7.161c-0.429,1.811-1.001,3.626-1.8,5.31
		c-1.558,3.278-3.998,6.117-7.44,7.287c-1.218,4.544-2.238,9.11-2.151,13.877c0.075,4.097,0.781,8.901,3.128,12.396
		c0.398,0.586,0.797,1.106,1.34,1.567c3.395,3.928,5.466,7.675,6.655,11.111c0.189-0.535,0.339-0.926,0.378-0.995
		c2.583-4.498,6.987-4.149,11.244-5.705c1.947-0.716,3.548-2.618,4.9-4.091c-1.416,1.54-2.056,4.604-3.232,6.46
		c-0.997,1.569-2.125,3.101-3.43,4.434c-2.385,2.432-5.377,4.229-8.741,4.439c1.331,9.03-3.115,15.031-3.115,15.031
		c-19.032,27.574-5.826,49.713-5.826,49.713s7.891-6.958,7.93-6.974c0.813-0.649,2.349-2.173,2.33-2.185
		c2.521-2.717,4-5.756,4.845-8.665c-2.589,0.063-4.804-1.345-6.478-3.265c-0.792-0.909-1.463-1.943-2.048-2.999
		c-0.691-1.243-0.985-3.255-1.852-4.303c0.832,1,1.793,2.295,3.024,2.833c2.693,1.171,5.561,1.114,7.063,4.132
		c0.049,0.103,0.417,1.328,0.618,2.32c1.402-6.037,0.249-11.199,0.249-11.199c6.747,3.498,3.739,14.373,3.739,14.373
		c4.559-1.659,5.459-8.394,5.316-14.33c-2.709,0.182-5.019-1.27-6.748-3.255c-0.798-0.911-1.464-1.944-2.053-2.998
		c-0.688-1.247-0.983-3.259-1.845-4.31c0.824,1.007,1.788,2.301,3.018,2.836c2.693,1.172,5.563,1.112,7.063,4.132
		c0.043,0.085,0.29,0.894,0.484,1.724c-0.256-4.362-0.964-7.881-0.964-7.881c3.155,5.811,3.918,11.11,3.337,15.799
		c1.589-2.072,4.102-2.16,6.476-3.19c1.229-0.536,2.192-1.835,3.015-2.837c-0.855,1.055-1.153,3.063-1.84,4.31
		c-0.587,1.053-1.258,2.087-2.054,2.996c-1.701,1.952-3.965,3.385-6.618,3.259c-2.002,6.123-6.125,10.891-9.428,13.92
		c0,0-1.191,1.101-2.753,3.119c1.17-0.928,4-2.348,4.226-2.42c4.97-1.491,7.935,1.784,12.096,3.572
		c1.901,0.817,4.373,0.532,6.37,0.391c-2.087,0.148-4.662,1.938-6.781,2.475c-1.807,0.46-3.677,0.797-5.543,0.87
		c-4.077,0.152-8.19-0.921-10.851-4.214c-0.011-0.013,0.02-0.045,0.016-0.057c-4.419,5.976-10.978,18.67-3.167,34.687
		c3.88,7.358,4.504,14.299,3.865,19.978C160.744,194.257,200,151.714,200,100C200,44.771,155.229,0,100,0C44.769,0,0,44.771,0,100
		c0,51.938,39.595,94.617,90.241,99.52C91.178,188.734,86.406,182.857,86.406,182.857z" class="color c1"/>
  </g>
</svg>