<svg version="1.1" id="图层_1" x="0px" y="0px" width="138.9px" height="73.157px" viewBox="0 0 138.9 73.157" enable-background="new 0 0 138.9 73.157" xml:space="preserve" xmlns="http://www.w3.org/2000/svg" xmlns:xlink="http://www.w3.org/1999/xlink" xmlns:xml="http://www.w3.org/XML/1998/namespace">
  <path fill="#23090A" d="M119.641,34.635c-8.001,0-14.875,4.906-17.781,11.865l-6.363-1.549
	c5.896-10.601,16.292-22.152,33.775-23.041c-2.678-1.577-5.697-2.752-8.723-3.451c-3.289-0.76-6.885-0.951-10.064,0.359
	c-3.939,3.32-8.664,5.991-13.469,7.824c-5.756,2.195-12.215,3.154-18.17,1.156c-5.175-1.736-9.31-5.486-12.358-9.932
	c-1.503-2.275-4.305-3.713-6.879-4.35c-3.202-0.798-6.6-0.5-9.769,0.307c-1.897,1.273-4.025,2.283-6.177,3.039
	c-2.656,0.932-5.605,1.505-8.398,0.879l1.257-2.906c2.336-0.219,4.678-0.469,6.98-0.934c1.693-0.343,3.897-0.75,5.158-2.048
	c0.436-0.448,0.647-1.032,0.489-1.649c-0.268-1.04-1.134-1.672-2.14-1.898c-1.292-0.291-2.74,0.078-3.975,0.453
	c-1.331,0.406-2.62,0.955-3.872,1.561c-0.756,0.364-1.5,0.752-2.237,1.152c-0.496,0.271-1.027,0.473-1.371,0.938
	c-1.012,1.365-1.63,3.094-2.265,4.656c-0.972-0.471-1.888-1.139-2.712-2.052c0,0,1.427-8.087,8.323-14.031
	c-1.549-1.233-3.868-1.153-5.655-0.593c-2.407,0.762-4.473,2.397-6.235,4.16c0,0-12.367,14.27-14.388,19.502
	c0,0,6.497,0.922,14.235,5.022c-7.441,0.216-17.874,2.157-26.484,9.959C0.18,39.283-0.081,39.671,0.024,40
	c0.219,0.674,1.708,0.201,2.137,0.086c2.341-0.605,4.592-1.691,6.774-2.715c0,0,3.047-1.185,7.353-1.648
	c-4.77,1.665-8.78,5.223-11,9.762C3.042,50.072,2.738,55.496,4.442,60.31c1.597,4.512,4.898,8.336,9.118,10.592
	c4.371,2.334,9.588,2.883,14.351,1.518c4.608-1.32,8.626-4.395,11.131-8.479c2.663-4.342,3.494-9.678,2.277-14.625
	c-1.217-4.947-4.445-9.277-8.802-11.906l1.741-3.529c7.343,5.781,14.364,14.833,17.008,28.935h37.339c0,0,0.326-1.605,1.101-4.16
	l11.245-0.174c1.186,4.828,4.271,9.086,8.473,11.734c4.291,2.703,9.584,3.594,14.526,2.459c4.683-1.074,8.86-3.939,11.579-7.896
	c2.797-4.072,3.922-9.156,3.117-14.031C137.132,41.576,128.933,34.635,119.641,34.635z M33.311,53.898
	c0,4.932-3.521,9.346-8.333,10.438c-4.845,1.1-9.934-1.395-12.053-5.883c-1.712-3.623-1.206-8.018,1.272-11.166
	c2.623-3.328,7.042-4.809,11.141-3.725l-3.04,6.623c-1.762-0.133-3.429,0.883-4.065,2.553c-0.649,1.699-0.039,3.674,1.449,4.719
	c1.491,1.045,3.563,0.936,4.936-0.26c1.497-1.301,1.81-3.564,0.72-5.227l3.377-6.846C31.489,47.056,33.311,50.267,33.311,53.898z
	 M119.641,64.599c-4.313,0-8.029-2.568-9.722-6.254l10.792-0.166l0.001-0.027c2.417-0.162,4.178-2.496,3.647-4.865
	c-0.563-2.514-3.407-3.852-5.706-2.695l-8.284-2.018c2.666-4.621,8.512-6.621,13.434-4.535c4.566,1.936,7.26,6.916,6.364,11.797
	C129.246,60.847,124.732,64.599,119.641,64.599z" class="color c1"/>
</svg>