<svg version="1.1" id="图层_1" x="0px" y="0px" width="163.34px" height="97.344px" viewBox="0 0 163.34 97.344" enable-background="new 0 0 163.34 97.344" xml:space="preserve" xmlns="http://www.w3.org/2000/svg" xmlns:xlink="http://www.w3.org/1999/xlink" xmlns:xml="http://www.w3.org/XML/1998/namespace">
  <path fill="#0A0A0A" d="M7.357,95.345c2.407,1.076,4.474,1.997,4.474,1.997l1.315-2.951c-0.006-0.005-3.224-1.437-6.307-2.813
	c-0.234-2.188-0.376-4.436-0.378-6.755c-0.004-0.655,0.071-1.313,0.089-1.972c2.733,1.223,5.281,2.356,5.281,2.356l1.316-2.942
	c-0.014-0.01-3.313-1.482-6.438-2.873c0.372-4.824,1.23-9.621,2.563-14.32c3.263,1.453,6.914,3.084,6.924,3.088l1.315-2.949
	c0,0-3.906-1.743-7.244-3.234c1.424-4.34,3.215-8.567,5.352-12.646c3.155,1.404,6.523,2.906,6.523,2.906l1.321-2.946
	c-0.01-0.001-3.225-1.437-6.315-2.813c2.412-4.213,5.193-8.211,8.259-11.963c3.381,1.504,7.451,3.322,7.451,3.322l1.322-2.951
	c-0.013-0.001-3.44-1.533-6.62-2.949c2.582-2.922,5.363-5.635,8.289-8.156c3.431,1.531,7.725,3.438,7.725,3.438l1.311-2.942
	c-0.01-0.001-3.198-1.427-6.272-2.799c4.176-3.286,8.64-6.099,13.305-8.396c3.457,1.539,7.915,3.53,7.923,3.535l1.32-2.943
	c-0.004,0-2.574-1.148-5.32-2.376c2.949-1.226,5.961-2.253,9.032-3.02c3.422,1.522,7.658,3.412,7.662,3.417l1.321-2.943
	c-0.002,0-1.585-0.711-3.594-1.606c2.854-0.449,5.648-0.688,8.359-0.688c0.755,0,1.477,0.088,2.22,0.122
	c3.114,1.39,6.378,2.843,6.378,2.843l0.885-1.987c3.758,0.762,7.328,1.924,10.617,3.539l0.448,0.181
	c0.022-0.012,10.048,3.204,14.183,5.53c0.519,0.287,1.039,0.598,1.56,0.903c-1.075-0.067-2.142-0.157-3.236-0.157
	c-0.868,0-1.754,0.037-2.637,0.078l-8.601-3.839l-1.317,2.95l3.448,1.541c-1.697,0.259-3.405,0.565-5.137,0.977
	c-0.924,0.221-1.82,0.541-2.734,0.796l-8.94-3.994l-1.313,2.95l5.572,2.488c-2.75,0.98-5.427,2.163-8.054,3.459l-8.903-3.968
	l-1.316,2.945l6.508,2.902c-4.43,2.49-8.623,5.442-12.575,8.725l-8.884-3.961l-1.315,2.95l7.529,3.351
	c-2.856,2.573-5.549,5.328-8.066,8.256l-8.861-3.943l-1.315,2.942l8.018,3.579c-3.021,3.778-5.76,7.79-8.167,12l-9.25-4.123
	l-1.316,2.946l9.024,4.027c-2.135,4.063-3.969,8.271-5.458,12.598L29.42,72.41l-1.314,2.949l8.521,3.804
	c-1.399,4.621-2.409,9.351-2.986,14.134l-8.592-3.829l-1.318,2.945l9.571,4.269c-0.018,0.223-0.029,0.445-0.045,0.668h31.086
	c-0.024-0.548-0.038-1.101-0.038-1.66c0-0.894,0.066-1.783,0.124-2.678l10.073,4.338h47.126l-4.272-9.666l14.076-14.675
	c0.416,2.144,0.647,4.396,0.647,6.763c-0.002,6.021-1.42,12.019-3.908,17.578h31.31c2.479-7.826,3.84-15.975,3.863-24.168
	c0.01-16.332-5.437-30.313-14.699-40.183c-4.524-4.832-9.961-8.647-16.047-11.299c-1.328-0.996-8.722-6.555-16.104-10.658
	c-4.836-2.657-13.495-5.434-15.114-5.96C94.557,1.77,86.85-0.008,78.618,0c-4.596-0.008-9.354,0.545-14.206,1.694
	C28.565,10.245,0.109,47.057,0,84.827c-0.007,4.351,0.38,8.532,1.123,12.517h6.626C7.612,96.684,7.474,96.021,7.357,95.345z
	 M85.885,73.813l-17.807,4.602C72.607,68.076,80.841,59.24,90.721,54.57L85.885,73.813z M126.328,61.176l-16.59,5.196l-5.158-15.296
	C113.615,50.777,121.385,54.551,126.328,61.176z M15.852,95.408l0.254,1.936h8.883l-0.404-3.074L15.852,95.408z M52.453,34.17
	l-0.574-3.183l-12.691,2.27l0.568,3.181L52.453,34.17z M32.612,63.344l-0.566-3.183l-12.7,2.276l0.567,3.181L32.612,63.344z
	 M39.36,49.32l-0.578-3.176l-12.691,2.277l0.573,3.177L39.36,49.32z M14.591,80.252l12.696-2.271l0.569,3.179L15.16,83.432
	L14.591,80.252z M81.813,15.22l-0.576-3.187L68.54,14.306l0.573,3.185L81.813,15.22z M65.146,23.927L64.57,20.75l-12.689,2.272
	l0.568,3.182L65.146,23.927z" class="color c1"/>
</svg>