<svg version="1.1" id="图层_1" x="0px" y="0px" width="176px" height="104px" viewBox="0 0 176 104" enable-background="new 0 0 176 104" xml:space="preserve" xmlns="http://www.w3.org/2000/svg" xmlns:xlink="http://www.w3.org/1999/xlink" xmlns:xml="http://www.w3.org/XML/1998/namespace">
  <path fill="#E42226" d="M143.58,26.211C142.9,24.855,141.516,24,140.001,24h-32c-2.209,0-4,1.792-4,4v28h54.476L143.58,26.211z" class="color c1"/>
  <path fill="#E42226" d="M104.001,64v40h14.474c4.339-12.441,17.94-19.008,30.382-14.67c6.871,2.397,12.272,7.799,14.669,14.67h8.474
	c2.21,0.001,4-1.788,4.001-3.995c0-0.002,0-0.003,0-0.005V68.016c0-2.218-1.798-4.016-4.017-4.016H104.001z" class="color c1"/>
  <path fill="#262650" d="M0,4v96c0,2.209,1.791,4,4.001,4h21.474c4.34-12.441,17.942-19.008,30.382-14.67
	c6.872,2.397,12.273,7.799,14.669,14.67h25.476V4c0-2.209-1.792-4-4-4h-88C1.791,0,0,1.791,0,4z" class="color c2"/>
</svg>