<svg version="1.1" id="图层_1" x="0px" y="0px" width="113px" height="101.035px" viewBox="0 0 113 101.035" enable-background="new 0 0 113 101.035" xml:space="preserve" xmlns="http://www.w3.org/2000/svg" xmlns:xlink="http://www.w3.org/1999/xlink" xmlns:xml="http://www.w3.org/XML/1998/namespace">
  <circle fill="#FFFFFF" cx="3.236" cy="41.816" r="3.237" class="color c1"/>
  <circle fill="#FFFFFF" cx="109.213" cy="39.58" r="3.236" class="color c1"/>
  <circle fill="#FFFFFF" cx="72.195" cy="10.294" r="3.237" class="color c1"/>
  <polygon fill="#FFFFFF" points="16.972,22.6 21.624,20.576 17.174,18.756 14.948,13.496 12.926,18.756 8.476,20.576 13.128,22.6 
	15.151,27.252 " class="color c1"/>
  <polygon fill="#FFFFFF" points="101.527,18.959 99.301,13.9 97.279,18.959 92.829,20.779 97.48,22.801 99.502,27.455 
	101.325,22.801 105.976,20.779 " class="color c1"/>
  <polygon fill="#FFFFFF" points="49.135,8.9 53.788,7.08 49.337,5.26 47.112,0 45.089,5.26 40.64,7.08 45.291,8.9 47.313,13.756 " class="color c1"/>
  <path fill="#FFFFFF" d="M113,56.131c0-5.449-11.66-2.788-11.66-2.788v4.421l-2.397,0.773c-0.09-2.893-0.879-15.572-6.733-21.611
	c-3.978-4.102-9.354-5.891-15.947-5.891H57.439H38.616c-6.593,0-11.949,1.789-15.923,5.891c-5.854,6.039-6.764,18.865-6.854,21.758
	l-2.498-0.92v-4.421c0,0-11.561-2.661-11.561,2.788c0,5.449,10.265,4.846,10.265,4.846l0.402,1.424
	c-1.547,2.002-3.106,5.25-3.106,10.39c0,5.935,0,10.045,0,10.045s-1,1.817,2,3.888v8.318c0,3.275,2.951,5.995,6.229,5.995h6.745
	c3.277,0,6.026-2.72,6.026-5.995v-3.582c7,0.732,15.357,1.2,27,1.2c11.642,0,20-0.468,27-1.2v3.582c0,3.275,2.945,5.995,6.222,5.995
	h6.748c3.274,0,6.03-2.72,6.03-5.995v-8.318c3-2.07,2-3.888,2-3.888s0-4.11,0-10.045c0-5.14-1.498-8.388-3.041-10.39l0.486-1.424
	C102.788,60.977,113,61.58,113,56.131z M18.36,84.095c-3.769-2.513-3.993-10.722,0-13.089c3.998-2.367,18.119,5.86,18.342,9.188
	C36.917,83.402,22.132,86.609,18.36,84.095z M20.421,60.035c0,0-0.63-25,18.195-25c18.823,0,18.823,0,18.823,0s0,0,18.822,0
	c18.825,0,18.196,25,18.196,25h-37.02H20.421z M96.517,84.095c-3.771,2.515-18.556-0.692-18.343-3.899
	c0.226-3.328,14.349-11.557,18.343-9.188S100.29,81.582,96.517,84.095z" class="color c1"/>
</svg>