<svg version="1.1" id="图层_1" x="0px" y="0px" width="176.832px" height="199.966px" viewBox="0 0 176.832 199.966" enable-background="new 0 0 176.832 199.966" xml:space="preserve" xmlns="http://www.w3.org/2000/svg" xmlns:xlink="http://www.w3.org/1999/xlink" xmlns:xml="http://www.w3.org/XML/1998/namespace">
  <path fill="#EE9F00" d="M175.037,127.464c-1.619-4.916-4.57-9.359-8.487-12.744c-0.925-0.8-1.902-1.54-2.923-2.214
	c-0.4-0.265-0.225-1.489-0.301-2.028c-0.264-1.865-1.174-3.577-2.516-4.893c-0.939-0.922-2.061-1.652-3.257-2.197
	c-0.492-0.224-0.997-0.418-1.511-0.586c-0.306-0.1-0.614-0.189-0.925-0.27c-0.104-0.467-0.229-0.928-0.375-1.382
	c-0.703-2.194-1.89-4.206-3.374-5.96c-2.881-3.405-6.78-5.82-10.795-7.669c-1.178-0.542-2.377-1.038-3.59-1.497
	c-0.644-0.243-1.291-0.476-1.941-0.7c-0.627-0.215-1.896-0.367-2.169-0.967c-0.176-0.388-0.395-0.748-0.623-1.105
	c-0.462-0.724-0.924-1.447-1.386-2.171c-2.1-3.29-4.2-6.58-6.3-9.87c-6.694-10.488-13.39-20.976-20.083-31.464
	C98.671,30.646,92.861,21.542,87.05,12.44c-0.995-1.559-1.99-3.118-2.985-4.676c-0.163-0.254-0.177-0.794-0.27-1.093
	c-0.164-0.529-0.374-1.044-0.627-1.538c-0.541-1.054-1.278-2.006-2.167-2.791C79.341,0.878,77.099,0,74.876,0
	c-4.667,0-8.584,3.977-8.988,8.531c-0.11,1.239,0.025,2.501,0.39,3.69c0.186,0.608-0.583,1.375-0.931,1.896
	c-0.495,0.741-0.999,1.476-1.511,2.206c-0.868,1.237-1.759,2.458-2.675,3.661c-0.342,0.448-0.362,0.179-0.764-0.083
	c-0.277-0.181-0.563-0.348-0.855-0.502c-0.698-0.366-1.436-0.652-2.195-0.859c-5.212-1.417-10.858,1.12-15.398,3.471
	c-5.369,2.78-10.333,6.3-14.823,10.342c-4.367,3.932-8.546,8.271-11.842,13.155c-3.195,4.733-5.186,10.349-2.168,15.688
	c1.188,2.101,3.068,3.752,5.316,4.635c2.688,1.057,5.633,0.919,8.368,1.796c2.581,0.828,4.958,2.379,7.209,3.854
	c2.528,1.656,4.946,3.48,7.242,5.445c2.292,1.962,4.545,4.045,6.355,6.472c1.662,2.228,2.823,4.875,3.896,7.425
	c1.523,3.621,3.019,7.407,7.01,8.888c0.968,0.359,1.999,0.545,3.032,0.545c0.589,0,1.177-0.06,1.754-0.177
	c0.232-0.047,0.462-0.104,0.69-0.169c0.54-0.155,0.406,0.116,0.595,0.569c0.885,2.119,2.493,3.91,4.578,4.896
	c-1.605,1.873-2.914,3.996-4.004,6.205c-0.585,1.185-1.108,2.4-1.58,3.635c-0.154,0.4-0.917,3.336-1.188,3.385
	c-1.994,0.36-3.988,0.721-5.982,1.081c-3.031,0.548-6.063,1.095-9.094,1.644c-0.787,0.142-1.574,0.283-2.36,0.426
	c-0.658,0.119-1.24,0.467-1.905,0.408c-5.087-0.45-10.175-0.9-15.263-1.352c-4.301-0.38-8.628-0.946-12.943-1.139
	c-2.687-0.119-5.272,1.526-7.432,2.959c-1.808,1.2-3.488,2.633-4.805,4.365c-1.73,2.277-2.717,5.048-2.596,7.92
	c0.365,8.646,9.389,12.781,16.477,15.178c-3.242,4.275-5.629,9.35-6.449,14.678c-0.635,4.131-0.333,8.838,2.775,11.969
	c1.533,1.545,3.602,2.471,5.78,2.555c0.498,0.018,0.646,1.232,0.815,1.709c0.172,0.48,0.358,0.957,0.554,1.428
	c0.561,1.367,1.233,2.689,2.005,3.947c2.266,3.877,5.699,7.242,9.55,9.539c7.802,4.654,17.426,5.387,25.784,1.744
	c8.763-3.82,15.089-12.055,16.69-21.459c0.089-0.525-0.019-1.35,0.514-1.531c0.223-0.076,0.446-0.152,0.668-0.229
	c0.981-0.336,1.961-0.67,2.942-1.006c2.989-1.021,5.979-2.043,8.968-3.066c2.177-0.744,4.355-1.488,6.533-2.232
	c0.063-0.021,0.265-0.133,0.332-0.113c0.744,1.156,1.831,2.08,3.092,2.627c1.77,0.77,3.629,0.691,5.421,0.082
	c2.642-0.9,5.282-1.801,7.923-2.699c2.492-0.85,5.327-1.439,7-3.652c0.651-0.861,1.1-1.871,1.301-2.934
	c0.102-0.537,0.14-1.086,0.113-1.633c-0.021-0.432,0.279-0.379,0.672-0.514c1.963-0.67,3.656-1.617,4.711-3.492
	c0.254-0.451,0.269-1.035,0.814-1.021c0.297,0.008,0.595,0,0.891-0.025c0.488-0.033,0.503,0.176,0.809,0.533
	c0.915,1.072,1.909,2.08,2.972,3.006c1.728,1.506,3.648,2.811,5.69,3.852c7.931,4.311,18.053,4.002,25.944-0.176
	c7.978-4.223,13.524-12.248,14.866-21.15C176.843,136.355,176.45,131.754,175.037,127.464
	C172.946,121.116,179.969,142.442,175.037,127.464z" class="color c1"/>
  <path fill="#03146B" d="M68.746,76.827c-1.896-5.835-6.539-10.515-10.757-14.785c-4.473-4.528-9.249-8.741-13.803-13.186
	c-0.949-0.927-2.025-1.818-2.742-2.946c-0.739-1.159-0.574-2.566-0.061-3.781c1.132-2.677,3.717-4.774,5.884-6.599
	c2.444-2.057,5.112-3.88,7.441-6.068c0.229-0.215,0.936-0.906,0.626-1.287c-0.365-0.449-1.458-0.175-1.929-0.094
	c-1.575,0.269-3.105,0.846-4.579,1.447c-5.56,2.267-10.591,5.561-15.061,9.55c-2.267,2.023-4.427,4.167-6.467,6.42
	c-1.988,2.196-4.107,4.542-5.451,7.207c-0.556,1.109-1.135,2.63-0.264,3.748c0.852,1.093,2.653,1.104,3.891,1.254
	c3.087,0.374,6.039,1.624,8.786,3.032c5.397,2.765,10.439,6.447,14.893,10.552c2.449,2.257,4.766,4.699,6.654,7.451
	c1.969,2.869,3.018,6.143,4.56,9.233c0.596,1.195,1.353,2.604,2.784,1.6c1.352-0.949,2.512-2.296,3.627-3.503
	c1.176-1.274,2.398-2.563,3.444-3.948C69.862,80.332,69.314,78.562,68.746,76.827C68.121,74.904,69.261,78.399,68.746,76.827z
	 M43.192,33.415c1.524-0.87,3.087-1.673,4.69-2.388c0.342-0.153,0.687-0.301,1.033-0.446c0.536-0.224,0.521-0.115,0.9,0.308
	c0.249,0.277,0.843,0.643,0.474,0.947c-0.396,0.32-0.793,0.64-1.189,0.96c-0.694,0.56-1.388,1.119-2.082,1.678
	c-0.672,0.541-0.694,0.597-1.434,0.272c-0.831-0.365-1.753-0.696-2.519-1.188C43.072,33.479,43.115,33.431,43.192,33.415
	C45.159,32.292,43.142,33.443,43.192,33.415z M28.876,45.585c-0.35-0.258,0.854-1.279,1.09-1.521
	c0.804-0.825,1.631-1.629,2.466-2.422c0.765-0.727,1.538-1.447,2.33-2.144c0.297-0.262,0.597-0.522,0.909-0.767
	c0.536-0.423,0.735,0.06,1.215,0.48c0.666,0.583,1.332,1.165,1.998,1.747c0.382,0.334,0.765,0.669,1.147,1.004
	c0.435,0.381,0.166,0.714,0.045,1.234c-0.131,0.585-1.209,1.241-1.611,1.673c-0.625,0.673-1.177,1.413-1.647,2.201
	c-0.494,0.828-0.917,1.699-1.365,2.553c-0.196,0.375-0.186,0.491-0.574,0.218c-0.414-0.292-0.827-0.584-1.24-0.877
	C32.052,47.84,30.438,46.745,28.876,45.585C28.82,45.544,29.017,45.689,28.876,45.585z M42.575,55.674
	c-1.13,0.867-1.899,1.985-2.62,3.194c-0.383,0.642-0.767,1.284-1.151,1.925c-0.166,0.277-0.328,0.557-0.501,0.829
	c-0.236,0.37-0.753-0.176-1.076-0.365c-1.361-0.8-2.755-1.543-4.188-2.206c-0.767-0.354-1.544-0.686-2.333-0.99
	c-0.338-0.13-0.678-0.256-1.021-0.376c0.102-0.418,0.292-0.812,0.462-1.206c0.569-1.316,1.19-2.676,2.085-3.808
	c0.471-0.595,2.493-2.776,3.206-2.36c1.319,0.768,2.555,1.744,3.795,2.632c0.736,0.526,1.47,1.055,2.205,1.583
	C41.694,54.71,42.977,55.369,42.575,55.674C41.676,56.364,42.64,55.625,42.575,55.674z M44.215,53.079
	c0.22-0.356,0.489-0.682,0.799-0.963c0.396-0.359,0.528-0.593,0.945-0.202c0.769,0.721,1.54,1.438,2.312,2.155
	c1.538,1.429,3.078,2.855,4.597,4.304c0.104,0.1,0.686,0.483,0.564,0.675c-0.285,0.405-0.57,0.81-0.855,1.214
	c-0.267,0.378-0.997,1.865-1.439,1.959c-0.388-0.23-0.738-0.57-1.089-0.85c-1.607-1.281-3.205-2.576-4.797-3.875
	c-0.616-0.502-1.232-1.004-1.842-1.515c-0.125-0.105-0.256-0.208-0.374-0.321C43.343,54.765,43.716,53.887,44.215,53.079
	C44.554,52.53,43.722,53.877,44.215,53.079z M58.06,69.214c-1.62,1.704-3.023,3.372-4.251,5.393
	c-0.901-0.759-1.653-1.75-2.494-2.582c-0.867-0.857-1.762-1.688-2.678-2.493c-0.756-0.664-1.99-1.354-2.537-2.188
	c0.458-1.066,1.082-1.952,1.911-2.766c0.785-0.77,1.668-1.43,2.58-2.042c0.674-0.452,1.943,1.205,2.475,1.671
	c0.993,0.872,1.985,1.743,2.978,2.614c0.497,0.436,0.993,0.871,1.489,1.307C57.94,68.487,58.548,68.716,58.06,69.214
	C57.719,69.572,58.158,69.113,58.06,69.214z M58.43,69.07c-0.057-0.292,0.407-0.829,0.55-1.079c0.308-0.537,0.615-1.073,0.922-1.61
	c0.342-0.598,0.33-0.612,0.797-0.097c0.414,0.455,0.823,0.915,1.227,1.379c1.592,1.832,3.145,3.75,4.361,5.855
	c0.103,0.176,0.201,0.354,0.294,0.534c0.218,0.418-0.072,0.35-0.397,0.583c-0.41,0.295-0.765,0.656-1.102,1.029
	c-0.218,0.241-0.463,0.653-0.76,0.801c-0.414-0.219-0.767-0.918-1.051-1.277C61.654,73.151,60.041,71.112,58.43,69.07
	C58.422,69.03,58.499,69.158,58.43,69.07z M66.822,84.571c-0.91,1.012-1.832,2.014-2.811,2.959
	c-0.446,0.431-0.914,0.907-1.438,1.244c-0.569,0.367-0.786-0.148-1.055-0.627c-0.684-1.219-1.202-2.526-1.756-3.808
	c-0.33-0.761-0.585-0.943-0.151-1.572c0.832-1.207,1.69-2.396,2.548-3.584c0.625-0.865,1.209-1.889,1.962-2.652
	c0.737,1.256,1.391,2.564,1.891,3.934c0.251,0.69,0.439,1.401,0.599,2.117C66.718,83.064,67.163,84.189,66.822,84.571
	C65.826,85.68,66.871,84.517,66.822,84.571z M120.757,85.747c-6.859-11.39-13.717-22.781-20.574-34.172
	c-3.419-5.681-6.84-11.361-10.255-17.044c-1.696-2.822-3.392-5.645-5.087-8.468c-0.813-1.355-1.627-2.71-2.441-4.065
	c-0.594-0.989-1.129-2.294-1.848-3.166c0.029,0.035-0.078-0.141-0.133-0.113c0.002-0.003,0.004-0.005,0.006-0.008
	c0-0.069-0.138-0.283-0.195-0.36c0.114-0.014,1.051,1.58,1.034,1.554c1.741,2.806,3.479,5.614,5.216,8.421
	c3.503,5.663,7.008,11.326,10.512,16.989C104,56.64,111.009,67.966,118.017,79.291c1.115,1.803,2.23,3.606,3.347,5.407
	c0.269,0.434,0.538,0.868,0.808,1.302c0.305,0.493,0.813,0.452,1.359,0.57c0.993,0.215,1.983,0.443,2.971,0.686
	c-3.367-5.274-6.732-10.548-10.1-15.822c-6.851-10.732-13.701-21.465-20.553-32.198c-5.461-8.557-10.924-17.114-16.386-25.671
	c-0.577-0.904-1.155-1.809-1.732-2.713c-0.118-0.185-0.236-0.371-0.354-0.556c-0.066-0.103-0.129-0.207-0.194-0.312
	c0-1.069-0.125-2.07-1.162-2.657c-1.892-1.07-3.663,1.055-3.022,2.926c0.172,0.504,0.503,0.954,0.958,1.238
	c0.348,0.216,0.762,0.18,0.976,0.533c-0.849,1.425-1.72,2.837-2.618,4.231c-3.256,5.057-6.864,9.903-10.877,14.385
	c-0.845,0.943-1.71,1.866-2.59,2.776c-0.113-0.846-0.226-1.692-0.338-2.538c-0.185-1.39-0.168-2.989-0.987-4.188
	c-1.578-2.308-4.77-1.511-6.982-0.8c-5.621,1.806-10.92,5.274-15.506,8.927c-4.648,3.702-8.989,7.993-12.59,12.726
	c-1.615,2.122-3.565,4.687-3.876,7.417c-0.128,1.121,0.256,2.37,0.953,3.264c0.83,1.065,2.137,1.363,3.409,1.55
	c2.679,0.394,5.29,0.79,7.804,1.849c2.256,0.951,4.379,2.247,6.436,3.563c4.713,3.017,9.226,6.547,13.105,10.59
	c3.807,3.968,6.135,8.629,8.235,13.661c0.833,1.995,1.791,4.726,4.401,3.371c2.532-1.343,4.5-3.834,6.436-5.886
	c0.245,1.693,0.49,3.386,0.735,5.079c0.206,1.423,0.412,2.846,0.619,4.269c0.162,1.115,0.465,2.485,1.699,2.871
	c1.217,0.381,2.443-0.461,3.432-1.065c1.281-0.783,2.52-1.631,3.741-2.503c2.427-1.734,4.806-3.537,7.114-5.426
	c4.158-3.404,7.859-7.028,11.042-11.372c3.269-4.462,6.03-9.241,9.048-13.868c1.544,2.566,3.09,5.132,4.635,7.698
	c1.484,2.467,2.97,4.935,4.455,7.402c0.742,1.234,1.484,2.468,2.227,3.702c0.338,0.561,0.675,1.122,1.012,1.683
	c0.336,0.558,1.209,0.532,1.836,0.653C120.876,85.946,120.818,85.847,120.757,85.747C111.429,70.258,120.818,85.847,120.757,85.747z
	 M80.222,18.338c0.011,0.008-0.012,0.036-0.012-0.015c0.013,0.01,0.013,0.019,0,0.028C80.21,18.352,80.22,18.338,80.222,18.338z
	 M79.556,17.203c-0.006,0-0.01,0.004-0.012,0.014c0.256,0.116,0.059,0.383,0.379,0.437c0.066,0.102,0.287,0.578,0.287,0.67
	c-0.155-0.226-0.23-0.664-0.467-0.69c0.034-0.305-0.11-0.276-0.232-0.47C79.527,17.177,79.541,17.19,79.556,17.203z M79.089,16.36
	c0.031,0.043,0.103,0.116-0.004,0.095C79.176,16.384,79.08,16.488,79.089,16.36C79.101,16.377,79.087,16.386,79.089,16.36z
	 M77.404,15.349L77.404,15.349c-0.038-0.047,0.006,0.019-0.025-0.036C77.396,15.317,77.405,15.329,77.404,15.349z M77.15,14.946
	c0.007,0.01,0.011,0.022,0.012,0.036V14.98c0,0.001,0.185,0.107,0.148,0.116c-0.06-0.097,0.673,1.929,0.068,0.216
	c-0.09-0.166-0.289-0.38-0.289-0.562C77.115,14.814,77.135,14.88,77.15,14.946z M76.802,14.37c0,0.161,0.287,0.1,0.287,0.38
	C77.012,14.646,76.794,14.421,76.802,14.37C76.802,14.39,76.8,14.382,76.802,14.37z M76.38,13.503
	c0.021,0.056,0.085,0.138-0.023,0.105C76.356,13.608,76.37,13.521,76.38,13.503C76.388,13.523,76.369,13.522,76.38,13.503z
	 M74.636,9.759c-1.55,0.101-0.497-2.811,0.672-1.142C74.8,8.81,74.574,9.226,74.636,9.759C74.546,9.765,74.568,9.177,74.636,9.759z
	 M68.771,27.601c0.474-0.622,0.919-1.264,1.395-1.885c1.655,2.539,3.32,5.071,4.982,7.604c2.326-2.478,4.307-5.433,6.334-8.157
	c0.393,0.167,0.856,1.603,1.082,2.012c0.484,0.874,1.002,1.729,1.512,2.589c0.973,1.64,1.952,3.277,2.93,4.914
	c0.195,0.328,0.391,0.655,0.586,0.982c0.283,0.474,0.198,0.522-0.133,0.981c-0.6,0.831-1.199,1.662-1.799,2.493
	c-1.11,1.538-2.157,3.162-3.365,4.624c-0.511-0.901-0.868-1.88-1.376-2.784c-0.534-0.95-1.178-1.839-1.826-2.713
	c-1.242-1.675-2.541-3.35-3.937-4.899c-1.029,1.254-2.042,2.52-3.105,3.746c-0.897,1.034-1.836,2.292-3.023,3.009
	c0.968,1.02,2.154,1.855,3.162,2.846c1.167,1.147,2.367,2.315,3.395,3.59c0.515,0.64,0.909,1.347,1.381,2.014
	c0.069,0.096,1.474-1.24,1.632-1.385c1.228-1.121,2.413-2.318,3.702-3.367c0.776,1.334,1.553,2.669,2.329,4.004
	c0.72,1.237,1.661,2.502,2.192,3.83c-1,0.356-1.976,0.708-2.819,1.375c-0.936,0.74-1.635,1.793-2.421,2.683
	c-0.396-0.243-0.682-0.984-0.926-1.363c-0.423-0.657-0.846-1.313-1.27-1.97c-0.796-1.236-1.564-2.498-2.408-3.702
	c-1.652,1.41-3.341,2.782-5.125,4.023c-0.879,0.612-1.781,1.191-2.71,1.725c-0.412,0.236-0.829,0.463-1.25,0.68
	c-0.337-0.079-0.671-0.662-0.894-0.913c-1.542-1.736-3.083-3.473-4.625-5.209c-0.269-0.303-1.745-1.555-1.279-1.842
	c0.899-0.555,1.805-1.089,2.667-1.702c1.739-1.236,3.223-2.73,4.531-4.412c0.212-0.273,0.551-0.595,0.627-0.939
	c-0.294-0.31-0.667-0.563-0.999-0.831c-0.801-0.645-1.597-1.297-2.396-1.944c-0.833-0.675-1.666-1.352-2.498-2.027
	c-0.473-0.384-0.165-0.487,0.178-0.874c0.426-0.48,0.853-0.961,1.279-1.441C66.003,31.25,67.378,29.42,68.771,27.601
	C69.154,27.099,67.851,28.802,68.771,27.601z M89.439,50.075c0.61-0.689,1.195-1.401,1.787-2.106
	c0.463-0.553,1.098-1.765,1.809-2.005c0.637,0.314,1.213,1.609,1.604,2.187c0.607,0.898,1.199,1.809,1.764,2.735
	c0.502,0.826,0.986,1.648,1.383,2.531c0.257,0.583-1.148,1.584-1.545,2.021c-1.471,1.618-2.928,3.25-4.406,4.861
	c-1.113-1.935-2.226-3.871-3.339-5.806c-0.188-0.327-1.635-2.731-1.448-2.798C87.966,51.363,88.791,50.807,89.439,50.075
	C90.048,49.387,88.771,50.829,89.439,50.075z M65.656,29.397c-0.127,0.171-0.219,0.295-0.346,0.462
	C65.4,29.596,65.4,29.596,65.656,29.397z M90.658,84.381c-0.103-0.039-0.076-0.047-0.123-0.047c0.037,0.178-0.332,0.507-0.465,0.633
	c-0.643,0.608-1.294,1.208-1.953,1.8c-1.219,1.094-2.465,2.159-3.737,3.192c-2.509,2.038-5.126,3.984-7.93,5.601
	c-0.667,0.385-3.007,1.998-3.79,1.369c-0.951-0.765-0.563-2.995-0.658-4.048c-0.149-1.636-0.383-3.268-0.637-4.891
	c-0.255-1.635-0.381-3.569-0.989-5.113c-0.479,0.172-0.98,1.042-1.31,1.415c-0.483,0.548-0.965,1.096-1.456,1.637
	c-1.037,1.145-2.103,2.299-3.256,3.329c-0.906,0.809-2.119,1.919-3.258,0.835c-0.999-0.951-1.508-2.552-2.05-3.784
	c-1.229-2.795-2.38-5.537-4.195-8.018c-1.747-2.386-3.795-4.55-5.976-6.543c-4.419-4.042-9.352-7.665-14.674-10.43
	c-2.733-1.42-5.636-2.625-8.706-3.042c-1.252-0.171-2.774-0.174-3.855-0.918c-1.045-0.719-1.16-2.152-0.891-3.292
	c0.655-2.777,3.086-5.386,4.888-7.498c1.983-2.325,4.126-4.518,6.356-6.607c4.476-4.193,9.424-7.698,15.016-10.249
	c1.326-0.605,2.682-1.15,4.067-1.604c1.167-0.383,3.167-1.127,4.353-0.5c1.979,1.038-3.725,5.071-4.457,5.65
	c-2.399,1.901-4.894,3.74-6.962,6.014c-0.869,0.955-1.798,2.081-2.121,3.362c-0.409,1.622,1.009,1.911,2.288,1.705
	c4.268-0.688,8.441-2.947,11.88-5.485c1.744-1.288,3.375-2.726,4.906-4.259c0.772-0.773,1.518-1.572,2.244-2.388
	c0.584-0.658,1.235-1.841,1.996-2.278c-0.154,0.55-0.756,1.115-1.105,1.565c-0.428,0.553-0.866,1.098-1.315,1.635
	c-0.963,1.151-1.976,2.262-3.049,3.312c-2.071,2.025-4.373,3.816-6.899,5.238c-2.621,1.475-5.5,2.592-8.449,3.197
	c-0.661,0.134-1.337,0.214-2.012,0.164c-0.608-0.045-0.662-0.071-0.276,0.48c0.928,1.324,2.047,2.515,3.182,3.662
	c4.499,4.548,9.397,8.68,13.853,13.278c4.12,4.251,8.338,8.777,10.197,14.512c1.08,3.33,1.853,6.75,2.421,10.202
	c0.29,1.759,0.526,3.526,0.725,5.297c0.074,0.641-0.05,1.608,0.345,2.154c0.47,0.65,1.444,0.507,2.117,0.36
	c1.545-0.338,3.055-1.189,4.444-1.921c1.557-0.819,3.056-1.754,4.435-2.848c1.364-1.082,2.659-2.257,3.971-3.4
	c0.621-0.54,1.244-1.077,1.859-1.623c0.289-0.257,0.763-0.467,0.889-0.859C90.668,84.332,90.67,84.292,90.658,84.381
	C90.619,84.366,90.66,84.367,90.658,84.381z M60.744,47.332c0.012,0.297-1.414,0.961-1.667,1.116
	c-0.721,0.44-1.449,0.869-2.188,1.277c-1.575,0.871-3.201,1.715-4.946,2.187c-0.645,0.174-1.708,0.633-2.234,0.152
	c-0.715-0.656-1.422-1.321-2.125-1.99c-1.35-1.286-2.688-2.583-3.877-4.021c0.942-0.403,2.133-0.466,3.127-0.763
	c1.215-0.37,2.41-0.818,3.567-1.339c1.167-0.522,2.303-1.109,3.403-1.761c0.651-0.375,0.615-0.264,1.151,0.18
	c1.147,0.952,2.281,1.921,3.414,2.891C59.149,45.928,60.058,46.565,60.744,47.332C60.748,47.429,60.505,47.064,60.744,47.332z
	 M90.906,84.131c-0.009-0.034,0.002-0.039,0.033-0.017L90.906,84.131z M92.193,80.678c-1.52,2.337-3.882,3.897-5.696,5.961
	c-0.424,0.482-2.485,2.011-2.847,1.074c-0.486-1.312-0.972-2.625-1.458-3.937c-0.462-1.247-0.922-2.494-1.384-3.741
	c-0.349-0.94-0.799-0.322-1.678-0.041c-2.542,0.812-4.852,1.772-7.167,3.11c-0.664-1.781-0.911-3.767-1.493-5.59
	c-0.142-0.444-0.289-0.888-0.433-1.332c-0.198-0.611-0.219-0.663,0.297-1.059c0.693-0.533,1.431-1.008,2.207-1.412
	c0.899-0.467,1.734-1.08,2.583-1.632c0.385-0.25,0.766-0.508,1.157-0.75c0.353-0.218,0.59,0.397,0.792,0.672
	c1.124,1.533,2.081,2.957,2.717,4.763c0.277,0.787,0.671,1.693,0.749,2.528c0.046,0.504,0.67-0.054,0.967-0.189
	c1.691-0.773,3.134-1.861,4.606-2.981c0.791-0.602,1.599-1.181,2.405-1.761c0.434-0.312,0.435-0.341,0.668,0.107
	c0.242,0.46,0.486,0.921,0.729,1.381c0.485,0.921,0.971,1.843,1.453,2.766C91.655,79.182,92.632,79.99,92.193,80.678
	C92.064,80.876,92.355,80.424,92.193,80.678z M95.619,68.517c-0.995,0.422-1.988,0.918-2.847,1.582
	c-0.861,0.666-1.076,1.575-1.755,2.362c-0.335,0.391-0.724,0.732-1.145,1.028c-0.436,0.306-0.823,0.779-1.064,0.15
	c-0.455-1.187-0.908-2.374-1.362-3.56c-0.453-1.186-0.906-2.372-1.359-3.558c-0.455-0.019-1.104,0.519-1.489,0.725
	c-0.554,0.297-1.108,0.596-1.663,0.893c-2.091,1.12-4.166,2.215-6.422,2.957c-0.47-3.448-0.801-6.786-3.156-9.544
	c-1.527,0.212-3.335,1.537-4.501,2.488c-1.38,1.126-2.392,2.548-3.513,3.913c-1.019-1.025-1.886-2.233-2.854-3.309
	c-0.975-1.083-1.981-2.137-2.992-3.186c0.716-1.222,2.034-2.315,3.108-3.22c1.221-1.027,2.574-1.958,4.03-2.619
	c0.278-0.126,0.562-0.238,0.853-0.331c0.525-0.17,0.778,0.428,1.093,0.793c0.582,0.673,1.164,1.345,1.746,2.018
	c0.579,0.669,1.158,1.338,1.737,2.008c0.62,0.717,0.896,1.257,1.902,1.207c1.496-0.075,3.038-0.507,4.227-1.449
	c1.355-1.074,2.36-2.618,3.369-3.999c0.313,0.159,0.526,1.146,0.656,1.452c0.255,0.605,0.51,1.21,0.764,1.815
	c0.508,1.208,1.016,2.416,1.523,3.624c0.48,1.143,0.923,2.312,1.45,3.434c0.207,0.439,0.589-0.242,0.777-0.446
	c0.497-0.538,0.983-1.086,1.449-1.652c0.745-0.905,1.321-1.982,2.177-2.789c0.381-0.361,0.814-0.666,1.283-0.903
	c0.373-0.207,0.605,0.724,0.737,0.988c0.581,1.16,1.161,2.32,1.742,3.48c0.291,0.581,0.582,1.162,0.873,1.744
	c0.175,0.349,0.351,0.699,0.525,1.048C95.681,67.979,96.089,68.319,95.619,68.517C94.824,68.854,95.705,68.48,95.619,68.517z
	 M98.236,72.523c-0.545-0.95-1.086-1.902-1.626-2.855c-0.239-0.422-0.478-0.844-0.716-1.267c0.365-0.538,0.73-1.076,1.096-1.614
	c1.385-2.041,2.77-4.083,4.156-6.123c0.414,0.297,0.703,0.94,0.988,1.363c0.357,0.528,0.713,1.057,1.068,1.586
	c0.336,0.499,0.777,0.753,0.434,1.263c-0.577,0.854-1.172,1.698-1.764,2.542C100.687,69.112,99.576,70.948,98.236,72.523
	C97.439,71.133,98.597,72.099,98.236,72.523z M104.992,61.438c-3.195-3.329-5.23-7.691-7.539-11.65
	c-2.482-4.257-4.967-8.515-7.449-12.771c-2.416-4.143-4.832-8.285-7.248-12.427c-1.208-2.071-2.416-4.143-3.623-6.214
	c-0.538-0.922-1.395-2.017-1.727-3.026c0.105,0.086,0.949,1.416,0.9,1.514c0.292,0.101,0.546,0.801,0.689,1.037
	c0.336,0.556,0.671,1.113,1.007,1.669c0.674,1.118,1.348,2.236,2.021,3.354c2.596,4.314,5.193,8.627,7.79,12.941
	c2.597,4.313,5.194,8.627,7.791,12.941c1.298,2.157,2.597,4.314,3.896,6.471c0.684,1.135,1.366,2.27,2.049,3.405
	c0.542,0.899,1.455,1.943,1.729,2.962C105.146,61.551,105.058,61.507,104.992,61.438C104.642,61.074,105.058,61.507,104.992,61.438z
	 M46.31,128.976c-0.084-0.104-0.167-0.207-0.249-0.313c6.587-1.19,13.174-2.381,19.761-3.57c-0.77,3.596-3.083,6.585-6.759,7.5
	C54.469,133.737,49.5,132.495,46.31,128.976C46.22,128.866,46.338,129.007,46.31,128.976z M103.857,143.442
	c0.748,2.266-2.713,3.416-3.451,1.176C99.664,142.353,103.126,141.198,103.857,143.442
	C104.177,144.413,103.8,143.269,103.857,143.442z M94.878,147.063c0.744,2.268-2.698,3.41-3.451,1.176
	C90.68,145.974,94.125,144.827,94.878,147.063C95.197,148.034,94.82,146.89,94.878,147.063z M152.011,115.202
	c1.107-0.575,5.626-2.539,4.076-4.432c-1.798-2.197-5.826-1.94-8.301-1.572c3.258-7.408-4.903-12.994-10.656-15.552
	c-3.685-1.638-7.572-2.804-11.485-3.753c-2.556-0.619-5.135-1.14-7.726-1.591c-2.804-0.489-5.656-1.029-8.504-1.158
	c-2.17-0.11-4.357-0.052-5.951,1.541c-1.087,1.734,0.373,3.919,1.225,5.409c2.319,3.649,5.568,6.505,8.318,9.799
	c0.64,0.64,0.732,1.027,0.582,1.818c-0.178,0.924-0.393,1.841-0.631,2.75c-0.889,3.395-2.104,6.707-3.586,9.887
	c-2.105,4.518-4.776,8.778-7.999,12.583c-3.619,4.273-7.813,7.457-12.9,9.807c-7.638,3.525-16.007,5.445-24.28,6.773
	c-4.592,0.738-9.239,1.322-13.887,1.57c-0.017-0.33-0.269-2.125,0.005-2.143c0.469-0.029,0.938-0.063,1.406-0.1
	c2.23-0.178,4.455-0.414,6.674-0.691c7.255-0.912,14.504-2.26,21.489-4.447c3.661-1.146,7.273-2.535,10.638-4.389
	c3.548-1.954,6.458-4.49,9.078-7.575c5.404-6.36,9.242-14.111,11.359-22.172c0.242-0.922,0.464-1.851,0.639-2.788
	c0.074-0.4,0.019-0.295-0.467-0.405c-1.551-0.354-3.111-0.658-4.682-0.917c-6.229-1.025-12.76-1.439-19-0.278
	c0.12-0.95-0.203-1.868-1.342-1.587c-1.296,0.322-2.563,0.771-3.821,1.213c-1.234,0.434-2.46,0.889-3.689,1.334
	c-0.352,0.127-0.988,0.22-1.081,0.65c-0.136,0.627,0.423,1.369,0.76,1.843c-4.604,2.988-7.132,7.894-8.824,12.966
	c-1.294,3.88-1.548,8.391-4.265,11.643c-3.141,3.762-8.642,4.516-13.214,3.479c-2.404-0.547-4.651-1.711-6.417-3.443
	c-0.358-0.35-0.692-0.723-1.006-1.113c-0.068-0.088-0.543-0.89-0.649-0.898c-0.111-0.01-0.222-0.021-0.333-0.03
	c-9.64-0.853-19.279-1.706-28.918-2.56c-0.202-0.018-0.122-0.008-0.427,0.139c-0.897,0.43-1.778,0.899-2.622,1.428
	c-1.464,0.918-2.915,2.043-3.821,3.542c-1.473,2.438-0.627,5.008,1.37,6.804c2.47,2.221,5.775,3.512,8.862,4.604
	c4.116,1.455,8.366,2.523,12.622,3.484c-5.97,3.58-10.751,9.289-12.899,15.943c-0.7,2.17-1.208,4.568-0.903,6.855
	c0.155,1.16,0.669,2.824,2.106,2.826c1.244-0.164,3.695-4.986,7.645-9.752c-4.744,10.916,0.301,24.096,11.301,28.783
	c9.758,3.982,21.078,0.283,26.458-8.818c1.169-1.98,2.025-4.143,2.529-6.385c0.244-1.088,0.406-2.195,0.483-3.309
	c0.022-0.326-0.07-3.082,0.032-3.117c1.688-0.574,3.376-1.148,5.064-1.725c4.522-1.547,9.044-3.092,13.567-4.639
	c5.426-1.854,10.852-3.709,16.277-5.563c0.139,0.422,0.277,0.844,0.415,1.266c0.104,0.314,0.022,0.252-0.282,0.355
	c-1.049,0.357-2.1,0.717-3.149,1.074c-0.819,0.279-0.559,0.359-0.287,1.184c0.282,0.859,0.565,1.719,0.849,2.578
	c2.881-0.982,5.761-1.963,8.641-2.943c1.105-0.377,2.209-0.754,3.314-1.131c0.037-0.012-1.039-3.207-1.154-3.557
	c-1.453,0.494-2.908,0.99-4.361,1.486c-0.082-0.25-0.606-1.303-0.496-1.506c0.048-0.088,0.503-0.172,0.592-0.203
	c1.174-0.4,2.349-0.803,3.523-1.203c2.609-0.893,5.219-1.783,7.829-2.676c0.51-0.174,0.448-0.432,0.602-0.967
	c0.376-1.311,0.753-2.621,1.13-3.932c0.658-2.291,1.316-4.584,1.976-6.875c0-0.002,0.001-0.004,0.001-0.004
	c0.262,2.219,0.803,5.535,2.889,6.814c2.461,1.436,2.975-3.701,3.314-5.049c3.104,11.172,14.86,18.043,26.089,15.004
	c8.937-2.42,15.308-10.709,15.749-19.896C169.982,126.985,162.508,117.177,152.011,115.202
	C155.82,113.226,159.394,116.591,152.011,115.202z M50.336,184.239c-4.562,1.553-9.659,0.424-13.217-2.797
	c-3.436-3.178-5.071-7.961-4.241-12.578c0.795-4.42,3.767-8.297,7.896-10.1c4.819-2.104,10.516-1.076,14.362,2.49
	c0.926,0.857,1.735,1.863,2.388,2.943c-2.163,0.736-4.326,1.473-6.488,2.209c-0.086,0.029-0.809-0.727-0.935-0.828
	c-0.497-0.398-1.049-0.738-1.633-0.994c-1.06-0.463-2.269-0.705-3.425-0.6c-2.393,0.217-4.525,1.422-5.813,3.48
	c-2.655,4.242-0.444,10.1,4.428,11.4c2.278,0.609,4.781,0.035,6.587-1.475c0.452-0.377,0.858-0.809,1.209-1.281
	c0.149-0.199,0.577-1.189,0.763-1.252c0.352-0.121,0.704-0.24,1.055-0.359c2.059-0.701,4.118-1.402,6.177-2.104
	C59.033,177.675,55.586,182.452,50.336,184.239C49.935,184.376,55.586,182.452,50.336,184.239z M94.566,151.45
	c-2.088,0.707-4.428-0.496-5.107-2.586c-0.691-2.1,0.436-4.477,2.545-5.193c2.086-0.707,4.431,0.498,5.105,2.59
	C97.8,148.358,96.672,150.733,94.566,151.45C94.324,151.532,96.677,150.731,94.566,151.45z M103.544,147.827
	c-2.082,0.727-4.432-0.51-5.107-2.586c-0.693-2.102,0.44-4.473,2.547-5.191c2.088-0.707,4.424,0.5,5.104,2.588
	C106.779,144.735,105.651,147.11,103.544,147.827C103.304,147.911,105.656,147.108,103.544,147.827z M114.796,144.655
	c-2.91,0.99-6.086-0.506-7.33-3.277c-1.432-3.184,0.23-7.094,3.543-8.221c2.916-0.992,6.076,0.507,7.33,3.273
	C119.781,139.612,118.103,143.528,114.796,144.655C114.515,144.751,117.917,143.593,114.796,144.655z M152.408,149.487
	c-4.639,1.584-9.981,0.373-13.488-3.055c-4.289-4.129-5.385-10.775-2.709-16.086c0.872,0.74,1.744,1.482,2.616,2.223
	c0.499,0.425,0.998,0.849,1.497,1.272c0.116,0.099,0.232,0.198,0.35,0.297c0.08,0.068-0.261,1.521-0.274,1.738
	c-0.328,5.538,5.495,9.71,10.58,7.315c4.426-2.086,5.657-8.021,2.546-11.762c-1.555-1.87-4-2.91-6.429-2.648
	c-0.664,0.07-1.329,0.219-1.948,0.47c-0.232,0.094-0.5,0.382-0.718,0.196c-0.447-0.381-0.896-0.76-1.344-1.141
	c-1.021-0.867-2.042-1.734-3.063-2.602c6.762-5.301,17.027-2.557,20.385,5.32C163.527,138.206,159.887,146.94,152.408,149.487
	C152.007,149.624,159.427,147.097,152.408,149.487z M115.273,137.958c1.045,3.162-3.8,4.787-4.822,1.643
	C109.407,136.437,114.238,134.813,115.273,137.958C115.72,139.312,115.222,137.804,115.273,137.958z" class="color c2"/>
</svg>