<svg version="1.1" id="图层_1" x="0px" y="0px" width="111.68px" height="112.268px" viewBox="0 0 111.68 112.268" enable-background="new 0 0 111.68 112.268" xml:space="preserve" xmlns="http://www.w3.org/2000/svg" xmlns:xlink="http://www.w3.org/1999/xlink" xmlns:xml="http://www.w3.org/XML/1998/namespace">
  <path fill="#FFFFFF" d="M8.588,16.967l0.057,0.837l0.832,0.098c1,0.117,2.027,0.188,3.146,0.213l1.094,0.023l-0.063-1.093
	c-0.131-2.248-0.254-4.652-0.289-7.012c-0.028-1.819-0.032-3.36-0.008-4.767l42.505,0.5l24.96,0.186
	c5.82,0.044,11.646,0.087,17.469,0.104c-0.031,1.567-0.063,3.134-0.114,4.676l-0.271,4.672c-0.049,0.847-0.098,1.722-0.19,2.563
	l-0.129,1.148l1.156-0.025c0.991-0.022,1.979-0.031,2.968,0l0.929,0.025l0.105-0.924c0.096-0.851,0.154-1.705,0.215-2.559
	l0.326-4.648c0.073-1.623,0.125-3.245,0.175-4.868c0.025-0.866,0.053-1.735,0.083-2.602l0.092-2.604l-2.659-0.046
	c-6.122-0.104-12.246-0.172-18.369-0.24l-26.694-0.3L8.313,0L8.219,2.503c-0.101,2.71-0.054,5.277,0.012,7.649
	C8.293,12.464,8.438,14.793,8.588,16.967z" class="color c1"/>
  <path fill="#FFFFFF" d="M68.213,97.156c-1.052,1.256-1.951,2.28-2.835,3.231c-1.807,1.959-3.483,3.66-5.128,5.204
	c-1.85,1.733-3.438,3.082-4.955,4.229l-2.879-2.206c-0.309-0.235-0.615-0.47-0.893-0.695l-1.396-1.225
	c-0.328-0.293-0.662-0.583-0.996-0.871c-0.596-0.518-1.191-1.032-1.75-1.563l-2.674-2.626c-0.581-0.539-1.108-1.131-1.666-1.76
	c-0.271-0.304-0.539-0.606-0.8-0.888l-0.599-0.663c-0.318-0.355-0.642-0.711-0.955-1.072l-0.365-0.423l-3.502,0.527l1.245,1.396
	c0.471,0.525,0.963,1.032,1.455,1.536l0.64,0.657c0.276,0.279,0.551,0.563,0.821,0.849c0.595,0.62,1.207,1.26,1.867,1.827
	l2.783,2.532c0.631,0.557,1.293,1.073,1.932,1.571c0.34,0.267,0.682,0.531,1.025,0.811l1.488,1.177
	c0.335,0.249,0.68,0.484,1.024,0.722l3.612,2.488l0.593,0.347l0.533-0.332c1.832-1.193,3.738-2.644,5.996-4.555
	c1.733-1.46,3.534-3.136,5.494-5.116c1.301-1.297,2.521-2.644,3.543-3.788l1.504-1.684h-3.865L68.213,97.156z" class="color c1"/>
  <path fill="#FFFFFF" d="M109.672,48.167c0.008,0.003,0.017,0.003,0.022,0.005l-0.137-0.2c-0.166-0.278-0.34-0.545-0.533-0.784
	l-4.666-6.861h0.092c2.249,0,4.07-2.267,4.07-5.063c0-2.794-1.821-5.059-4.07-5.059h-6.975l-8.249-8.826
	c-1.179-1.734-3.64-3.155-5.468-3.155H65.645h-6.479H55.84h-3.324h-6.479H27.92c-1.828,0-4.289,1.421-5.469,3.155l-8.248,8.826
	H7.229c-2.248,0-4.069,2.265-4.069,5.059c0,2.797,1.821,5.063,4.069,5.063H7.32l-4.666,6.861c-0.191,0.239-0.366,0.506-0.532,0.784
	l-0.138,0.2C1.992,48.17,2,48.17,2.008,48.167C0.279,51.232,0,56.034,0,56.034v11.902v2.064V86.8v1.332v2.432
	c0,1.037,1.496,1.884,3.324,1.884h15.288c1.828,0,3.324-0.847,3.324-1.884v-2.432V86.8v-1.514H55.84h33.902V86.8v1.332v2.432
	c0,1.037,1.495,1.884,3.323,1.884h15.289c1.829,0,3.324-0.847,3.324-1.884v-2.432V86.8V70.002v-2.064V56.034
	C111.68,56.034,111.4,51.232,109.672,48.167z M11.302,66.928c-2.815,0-5.097-2.836-5.097-6.335s2.28-6.335,5.097-6.335
	c2.813,0,5.097,2.836,5.097,6.335S14.115,66.928,11.302,66.928z M24.264,66.928c-2.813,0-5.096-2.836-5.096-6.335
	s2.281-6.335,5.096-6.335c2.815,0,5.097,2.836,5.097,6.335S27.079,66.928,24.264,66.928z M66.643,82.626H45.039V75.81h21.604V82.626
	z M71.129,66.928H40.551c-2.814,0-5.096-2.836-5.096-6.335s2.28-6.335,5.096-6.335h30.578c2.814,0,5.098,2.836,5.098,6.335
	S73.944,66.928,71.129,66.928z M87.749,66.928c-2.815,0-5.1-2.836-5.1-6.335s2.283-6.335,5.1-6.335c2.813,0,5.096,2.836,5.096,6.335
	S90.563,66.928,87.749,66.928z M14.051,41.161l10.393-16.954c0.681-0.998,2.384-1.98,3.438-1.98h55.84
	c1.054,0,2.757,0.982,3.443,1.993l10.468,16.941H14.051z M100.711,66.928c-2.814,0-5.098-2.836-5.098-6.335s2.282-6.335,5.098-6.335
	c2.814,0,5.096,2.836,5.096,6.335S103.525,66.928,100.711,66.928z" class="color c1"/>
</svg>