<svg version="1.1" id="图层_1" x="0px" y="0px" width="133.564px" height="89.39px" viewBox="0 0 133.564 89.39" enable-background="new 0 0 133.564 89.39" xml:space="preserve" xmlns="http://www.w3.org/2000/svg" xmlns:xlink="http://www.w3.org/1999/xlink" xmlns:xml="http://www.w3.org/XML/1998/namespace">
  <g>
    <g>
      <path fill="#FFFFFF" d="M17.388,42.835c-0.6,0.348-1.148,0.714-1.649,1.143l2.55,4.342l8.314,1.396l12.092,6.442
			c20.306,0,40.617,0,60.924,0l12.091-6.442l8.315-1.396l2.55-4.342c-0.502-0.429-1.051-0.795-1.65-1.143
			c0.28-0.438,1.17-0.365,4.015-2.049c0.253-8.896-0.057-8.313-8.188-4.046c-0.112,3.089-1.699,3.714-2.942,2.083L102.042,23.38
			c-1.082-1.065-2.387-1.627-3.915-1.686c-19.591-0.303-38.353-0.303-57.941,0c-1.528,0.059-2.833,0.62-3.916,1.686L24.503,38.823
			c-1.243,1.631-2.829,1.006-2.942-2.083c-8.131-4.267-8.44-4.851-8.188,4.046C16.218,42.47,17.107,42.397,17.388,42.835z
			 M38.536,25.983c0.536-0.697,1.114-0.871,2.194-0.924l28.425-0.133l28.427,0.133c1.079,0.053,1.658,0.227,2.194,0.924
			l11.066,13.648c0.263,1.766-83.637,1.766-83.373,0L38.536,25.983z" class="color c1"/>
      <path fill="#FFFFFF" d="M24.654,70.375c4.076,0,7.691,1.937,10.004,4.93c1.567-0.696,3.297-1.09,5.122-1.09
			c0.46,0,0.913,0.028,1.36,0.075c1.639-4.215,5.467-7.33,10.09-7.949c-0.938-0.104-1.76-0.205-2.418-0.272
			c-1.213-0.142-1.902-0.249-1.902-0.249s0.697,0.007,1.918,0.018c1.219,0.02,2.96,0.047,5.049,0.08
			c1.043,0.023,2.174,0.049,3.369,0.076c1.196,0.012,2.457,0.016,3.761,0.055c2.606,0.074,5.387,0.09,8.166,0.141
			c1.39,0.049,2.778,0.037,4.146,0.037c1.368,0.011,2.714,0.021,4.017,0.029c1.304,0.016,2.558-0.045,3.752-0.054
			c1.194-0.015,2.323-0.028,3.366-0.042c1.045,0.006,1.99-0.106,2.838-0.134c0.847-0.048,1.585-0.089,2.192-0.122
			c1.222-0.053,1.919-0.084,1.919-0.084s-0.688,0.115-1.89,0.315c-0.604,0.093-1.337,0.206-2.179,0.335
			c-0.843,0.113-1.792,0.32-2.837,0.377c-1.044,0.077-2.176,0.161-3.372,0.25c-1.197,0.069-2.463,0.2-3.771,0.215
			c-2.614,0.049-5.409,0.129-8.198,0.076c-1.395-0.035-2.789-0.07-4.161-0.105c-1.374-0.02-2.722-0.114-4.027-0.181
			c-1.468-0.073-2.868-0.171-4.193-0.274c2.994,0.962,5.503,3.006,7.063,5.676c1.368-1.786,3.517-2.943,5.939-2.943
			c2.762,0,5.167,1.5,6.465,3.725c1.907-2.275,4.769-3.725,7.97-3.725c2.559,0,4.897,0.928,6.709,2.46
			c0.889-2.366,3.167-4.054,5.846-4.054c3.103,0,5.67,2.264,6.158,5.229c0.894-0.369,1.871-0.574,2.896-0.574
			c2.178,0,4.135,0.918,5.521,2.383c0.615-5.061,4.918-8.984,10.146-8.984c1.259,0,2.459,0.238,3.572,0.654l0.007-5.131
			l-1.983-17.092l-4.442,7.852l-8.861,4.566c-27.082,0-54.166,0-81.248,0l-8.861-4.566l-4.442-7.852l-1.983,17.092l0.019,16.011
			C15.305,73.311,19.631,70.375,24.654,70.375z M57.319,60.127c1.617,0.044,3.504,0.095,5.524,0.15
			c1.01,0.049,2.055,0.017,3.114,0.052c1.06,0.02,2.136,0.038,3.212,0.057c1.076,0,2.152-0.001,3.212-0.002
			c1.059-0.018,2.104,0.051,3.11-0.008c1.009-0.025,1.984-0.048,2.908-0.07c0.924-0.033,1.805,0,2.609-0.058
			c1.608-0.114,2.96-0.155,3.904-0.21c0.947-0.043,1.492-0.051,1.492-0.051s-0.528,0.113-1.461,0.282
			c-0.934,0.157-2.267,0.417-3.879,0.665c-0.805,0.133-1.684,0.18-2.612,0.266c-0.931,0.073-1.911,0.15-2.925,0.231
			c-1.016,0.09-2.066,0.092-3.134,0.11c-1.067,0.015-2.152,0.029-3.237,0.043c-1.083-0.033-2.166-0.066-3.233-0.099
			c-1.065-0.04-2.116-0.075-3.128-0.156c-2.026-0.159-3.917-0.3-5.529-0.519c-3.229-0.385-5.354-0.824-5.354-0.824
			S54.076,60.044,57.319,60.127z M69.171,63.319c1.233,0.034,2.465,0.008,3.679,0.016c1.214,0.01,2.408,0.019,3.564,0.027
			c2.307-0.067,4.463-0.104,6.316-0.113c1.849-0.104,3.389-0.189,4.467-0.248c1.085-0.043,1.705-0.068,1.705-0.068
			s-0.609,0.109-1.676,0.299c-1.07,0.165-2.598,0.451-4.445,0.704c-1.852,0.165-4.018,0.331-6.342,0.483
			c-1.162,0.027-2.362,0.066-3.583,0.074c-1.221,0.006-2.462,0.049-3.7,0.025c-2.478-0.086-4.958-0.103-7.275-0.278
			c-2.318-0.14-4.479-0.336-6.327-0.519c-1.85-0.162-3.384-0.4-4.459-0.533c-1.074-0.144-1.685-0.256-1.685-0.256
			S59.291,63.126,69.171,63.319z" class="color c1"/>
    </g>
    <g>
      <path fill="#FFFFFF" d="M88.941,4.56L88.941,4.56L88.941,4.56c0,0-0.33,5.089-5.137,5.982c4.807,0.893,5.137,5.982,5.137,5.982
			l0,0l0,0c0,0,0.33-5.089,5.134-5.982C89.271,9.649,88.941,4.56,88.941,4.56z" class="color c1"/>
      <path fill="#FFFFFF" d="M75.473,0L75.473,0L75.473,0c0,0-0.252,3.879-3.915,4.56c3.663,0.68,3.915,4.56,3.915,4.56l0,0l0,0
			c0,0,0.252-3.879,3.914-4.56C75.725,3.879,75.473,0,75.473,0z" class="color c1"/>
      <path fill="#FFFFFF" d="M6.314,45.962L6.314,45.962L6.314,45.962c0,0-1.93,4.23-6.314,3.434c3.807,2.318,2.439,6.762,2.439,6.762
			l0,0l0,0c0,0,1.929-4.23,6.313-3.435C4.947,50.405,6.314,45.962,6.314,45.962z" class="color c1"/>
      <path fill="#FFFFFF" d="M94.974,79.195L94.974,79.195L94.974,79.195c0,0-1.929,4.229-6.313,3.434
			c3.806,2.317,2.438,6.761,2.438,6.761l0,0l0,0c0,0,1.929-4.229,6.313-3.434C93.606,83.639,94.974,79.195,94.974,79.195z" class="color c1"/>
      <ellipse fill="#FFFFFF" cx="41.49" cy="5.326" rx="1.957" ry="2.083" class="color c1"/>
      <ellipse fill="#FFFFFF" cx="51.945" cy="77.552" rx="2.781" ry="2.959" class="color c1"/>
      <ellipse fill="#FFFFFF" cx="130.783" cy="72.067" rx="2.781" ry="2.959" class="color c1"/>
    </g>
  </g>
</svg>