<svg version="1.1" id="图层_1" x="0px" y="0px" width="58.881px" height="126.174px" viewBox="0 0 58.881 126.174" enable-background="new 0 0 58.881 126.174" xml:space="preserve" xmlns="http://www.w3.org/2000/svg" xmlns:xlink="http://www.w3.org/1999/xlink" xmlns:xml="http://www.w3.org/XML/1998/namespace">
  <polygon fill="#231F20" points="25.235,126.174 33.646,126.174 33.646,0 25.235,0 " class="color c1"/>
  <path fill="#231F20" d="M21.029,106.229v-7.395c0-3.979-7.771-8.412-18.926-8.412H0v10.514h2.104
	C10.023,100.938,16.879,103.01,21.029,106.229 M2.104,16.824H0v10.514h2.104c7.92,0,14.775,2.07,18.926,5.291v-7.395
	C21.029,21.256,13.258,16.824,2.104,16.824 M2.104,46.264H0v10.515h2.104c7.92,0,14.775,2.071,18.926,5.29v-7.393
	C21.029,50.696,13.258,46.264,2.104,46.264 M2.104,60.984H0v10.514h2.104c7.92,0,14.775,2.071,18.926,5.291v-7.394
	C21.029,65.418,13.258,60.984,2.104,60.984 M2.104,31.544H0v10.515h2.104c7.92,0,14.775,2.07,18.926,5.291v-7.395
	C21.029,35.977,13.258,31.544,2.104,31.544 M21.029,91.51v-7.393c0-3.979-7.771-8.412-18.926-8.412H0v10.514h2.104
	C10.023,86.219,16.879,88.291,21.029,91.51 M2.104,12.617c7.92,0,14.775,2.072,18.926,5.291V0H10.515C4.717,0,0,4.717,0,10.514
	v2.104L2.104,12.617L2.104,12.617z M21.029,113.558c0-3.979-7.771-8.412-18.926-8.412H0v10.514c0,5.797,4.717,10.516,10.515,10.516
	H21.03L21.029,113.558L21.029,113.558z" class="color c1"/>
  <path fill="#FFFFFF" d="M58.881,71.498V60.984h-2.104c-11.152,0-18.926,4.434-18.926,8.412v7.394
	c4.152-3.22,11.008-5.291,18.926-5.291H58.881z M56.776,46.264c-11.152,0-18.926,4.433-18.926,8.412v7.393
	c4.152-3.219,11.008-5.29,18.926-5.29h2.104V46.264H56.776z M37.853,17.909c4.151-3.22,11.008-5.291,18.926-5.291h2.104v-2.103
	C58.881,4.717,54.164,0,48.367,0H37.853V17.909z M56.776,105.146c-11.152,0-18.926,4.434-18.926,8.412v12.616h10.517
	c5.797,0,10.514-4.719,10.514-10.516v-10.515h-2.104V105.146z M58.881,100.938V90.424h-2.104c-11.152,0-18.926,4.435-18.926,8.412
	v7.396c4.152-3.222,11.008-5.293,18.926-5.293H58.881z M56.776,31.544c-11.152,0-18.926,4.433-18.926,8.411v7.395
	c4.152-3.221,11.008-5.291,18.926-5.291h2.104V31.544H56.776z M58.881,86.219V75.705h-2.104c-11.152,0-18.926,4.433-18.926,8.41
	v7.395c4.152-3.219,11.008-5.291,18.926-5.291H58.881z M37.853,25.234v7.395c4.151-3.221,11.008-5.291,18.926-5.291h2.104V16.824
	h-2.104C45.624,16.824,37.853,21.256,37.853,25.234" class="color c2"/>
</svg>