<svg version="1.1" id="图层_1" x="0px" y="0px" width="280px" height="85.267px" viewBox="0 0 280 85.267" enable-background="new 0 0 280 85.267" xml:space="preserve" xmlns="http://www.w3.org/2000/svg" xmlns:xlink="http://www.w3.org/1999/xlink" xmlns:xml="http://www.w3.org/XML/1998/namespace">
  <path fill="#EF8942" d="M267.483,18.785C269.396,8.86,280,1.438,280,1.438s-11.878-5.037-18.837,3.745
	c-6.962,8.782-17.08,12.933-17.08,12.933c10.214-8.262,4.151-16.986,4.151-16.986c-1.752,11.354-23.053,22.76-28.221,16.094
	c-5.172-6.664,2.035-11.956,2.035-11.956c-8.392,1.39-9.303,4.825-16.354,14.495c-4.77,6.543-22.193,11.52-44.892,8.267
	c-31.045-4.448-83.065,17.876-97.789,24.165c-3.644,0.218-7.207,0.539-10.633,0.996C4.571,59.565,0,77.665,0,77.665
	c18.07-15.324,31.337-17.384,59.015-19.9c27.677-2.516,60.316,4.706,86.691,7.549c30.765,3.316,49.636-14.457,49.636-14.457
	s-28.292,11.833-52.838,7.596c-12.562-2.169-37.368-6.017-61.771-6.547c12.018-4.682,41.151-16.255,62.992-18.615
	c14.924-1.611,28.573,0.949,44.933,5.777c0,0,1.264,0.492,1.787,0.529c13.393,4.035,28.653,9.51,47.899,15.424
	c43.918,13.496,28.821,29.278,28.363,30.193c-0.457,0.915,8.234-10.064,6.405-16.469c-1.83-6.404-4.575-6.634-5.719-9.836
	c-1.144-3.203,8.463-12.123,8.006-14.182c-0.333-1.497-12.396,1.237-23.617,2.402c6.066-2.436,8.572-6.962,8.572-6.962
	c-10.985,6.61-19.112-2.24-19.112-2.24C251.74,39.994,265.57,28.709,267.483,18.785z" class="color c1"/>
</svg>