<svg version="1.1" id="图层_1" x="0px" y="0px" width="110.299px" height="110.299px" viewBox="0 0 110.299 110.299" enable-background="new 0 0 110.299 110.299" xml:space="preserve" xmlns="http://www.w3.org/2000/svg" xmlns:xlink="http://www.w3.org/1999/xlink" xmlns:xml="http://www.w3.org/XML/1998/namespace">
  <path fill="#E6B400" d="M109.951,49.027c-0.173-1.55-1.981-2.716-3.546-2.716c-5.053,0-9.538-2.966-11.419-7.557
	c-1.92-4.701-0.681-10.182,3.085-13.636c1.185-1.084,1.33-2.9,0.336-4.16c-2.588-3.285-5.527-6.252-8.736-8.824
	c-1.256-1.007-3.102-0.868-4.192,0.339c-3.287,3.64-9.192,4.993-13.755,3.089c-4.746-1.997-7.742-6.809-7.448-11.973
	c0.098-1.623-1.09-3.034-2.708-3.222C57.448-0.11,53.292-0.124,49.16,0.334c-1.597,0.177-2.783,1.554-2.73,3.157
	c0.179,5.113-2.851,9.84-7.552,11.766c-4.508,1.842-10.372,0.499-13.651-3.109c-1.085-1.188-2.897-1.334-4.163-0.349
	c-3.304,2.593-6.31,5.563-8.921,8.821c-1.019,1.267-0.868,3.102,0.328,4.19c3.84,3.477,5.078,9.005,3.084,13.761
	c-1.903,4.534-6.61,7.455-11.999,7.455c-1.749-0.056-2.994,1.119-3.188,2.709c-0.484,4.142-0.489,8.364-0.023,12.541
	c0.175,1.557,2.037,2.713,3.618,2.713c4.803-0.123,9.411,2.85,11.348,7.556c1.927,4.7,0.686,10.18-3.085,13.639
	c-1.18,1.085-1.33,2.896-0.334,4.153c2.561,3.265,5.503,6.234,8.723,8.828c1.264,1.018,3.103,0.875,4.198-0.332
	c3.3-3.65,9.204-5,13.749-3.093c4.76,1.991,7.754,6.804,7.462,11.97c-0.095,1.623,1.094,3.037,2.706,3.222
	c2.108,0.247,4.227,0.368,6.354,0.368c2.018,0,4.036-0.109,6.054-0.335c1.6-0.176,2.783-1.554,2.729-3.157
	c-0.186-5.111,2.853-9.84,7.547-11.761c4.539-1.854,10.376-0.497,13.658,3.106c1.09,1.186,2.892,1.33,4.161,0.348
	c3.3-2.587,6.3-5.555,8.922-8.82c1.02-1.266,0.874-3.104-0.328-4.192c-3.838-3.476-5.083-9.006-3.089-13.757
	c1.872-4.473,6.405-7.477,11.281-7.477l0.681,0.019c1.584,0.128,3.038-1.091,3.229-2.705
	C110.415,57.422,110.421,53.204,109.951,49.027z M55.149,86.944c-17.56,0-31.795-14.234-31.795-31.794S37.59,23.356,55.149,23.356
	c17.559,0,31.795,14.234,31.795,31.794c0,5.96-1.645,11.535-4.498,16.302L68.524,57.529c1.008-2.376,1.54-4.952,1.54-7.611
	c0-5.207-2.028-10.101-5.71-13.782c-3.681-3.682-8.576-5.708-13.781-5.708c-1.736,0-3.467,0.231-5.139,0.687
	c-0.732,0.2-1.332,0.804-1.527,1.538c-0.199,0.75,0.024,1.52,0.612,2.107c0,0,6.873,6.926,9.173,9.226
	c0.24,0.241,0.24,0.815,0.206,1.022l-0.021,0.152c-0.231,2.528-0.679,5.563-1.048,6.729c-0.049,0.049-0.096,0.091-0.146,0.142
	c-0.053,0.053-0.102,0.104-0.153,0.156c-1.181,0.38-4.263,0.832-6.831,1.062l0.001-0.014l-0.115,0.029
	c-0.021,0.002-0.059,0.005-0.109,0.005c-0.277,0-0.687-0.078-1.058-0.448c-2.393-2.394-8.996-8.95-8.996-8.95
	c-0.593-0.591-1.201-0.715-1.606-0.715c-0.943,0-1.788,0.683-2.055,1.661c-1.818,6.728,0.109,13.962,5.031,18.884
	c3.681,3.682,8.576,5.709,13.783,5.709c2.658,0,5.235-0.531,7.61-1.539l14.073,14.073C67.316,85.104,61.45,86.944,55.149,86.944z" class="color c1"/>
</svg>