<svg version="1.1" id="图层_1" x="0px" y="0px" width="250.48px" height="57.127px" viewBox="0 0 250.48 57.127" enable-background="new 0 0 250.48 57.127" xml:space="preserve" xmlns:xml="http://www.w3.org/XML/1998/namespace" xmlns="http://www.w3.org/2000/svg" xmlns:xlink="http://www.w3.org/1999/xlink">
  <path fill="#DC232E" d="M47.65,43.712c0,2.814-0.867,5.43-2.353,7.584c-0.66,0.967-1.439,1.84-2.326,2.592
	c-2.348,2.021-5.396,3.239-8.736,3.239c-3.642,0-6.938-1.444-9.353-3.804c-0.638-0.61-1.214-1.293-1.716-2.027
	c-1.485-2.156-2.354-4.77-2.354-7.584c0-7.417,6.012-13.422,13.422-13.422C41.646,30.29,47.65,36.294,47.65,43.712z" class="color c1"/>
  <path fill="#DC232E" d="M176.023,43.712c0,2.814-0.87,5.43-2.354,7.584c-0.66,0.967-1.44,1.84-2.324,2.592
	c-2.349,2.021-5.397,3.239-8.739,3.239c-3.64,0-6.936-1.444-9.352-3.804c-0.64-0.61-1.215-1.293-1.716-2.027
	c-1.484-2.156-2.354-4.77-2.354-7.584c0-7.417,6.01-13.422,13.42-13.422C170.018,30.29,176.023,36.294,176.023,43.712z" class="color c1"/>
  <path fill="#F0F7F7" d="M108.847,4.864L82.861,16.652l21.722-13.295l1.808-2.181c0,0,25.791-3.476,42.065,1.523
	c0.041,0.008,0.072,0.024,0.113,0.032c8.149,2.508,15.996,5.511,21.582,7.832l0.009,0.008c0.08,0.033,0.161,0.065,0.234,0.098
	l0.253,0.105l0.181,0.073l0.016,0.009c1.734,0.725,3.215,1.368,4.404,1.913l0.309,0.139c1.328,0.61,2.222,1.058,2.573,1.278
	l-15.419-4.12L108.847,4.864z M193.395,38.972l1.372-2.289l55.715-7.013c-6.896-1.655-31.101-2.581-55.017-3.099
	c-0.001,0-0.001,0-0.001,0l-0.002-0.003l-1.849-3.354l-0.455-0.839c14.556-0.545,26.629-1.327,31.181-2.417l-45.185-5.503h-0.049
	l-0.058,0.008c-30.578,2.1-96.253,2.223-96.253,2.223c-10.706-0.049-20.189,0.423-28.543,1.237l47.724,4.608
	c-10.19,2.45-58.136,3.297-87.15,3.59c-2.094,0.757-3.925,1.498-5.527,2.197c-5.748,2.508-8.435,4.494-8.729,4.707
	c-0.854,0.65-0.495,1.718-0.495,1.718l0.08,0.772l0.588,5.162l0.064,0.521l0.27,2.393l-1.002,1.001l0.643,4.991l2.354,0.261
	l12.636,1.384h1.059c-0.114-6.009,0.016-23.365,18.57-22.689C47.049,28.954,51.86,39.716,49.46,51.228h1.074l93.924-0.854
	l1.222-0.089c-0.089-1.294-0.058-4.934,1.099-8.891c0.326-1.091,0.726-2.215,1.238-3.313c1.992-4.255,5.596-8.225,12.052-9.393
	l0.01,0.001c1.228-0.223,2.563-0.343,4.009-0.343c2.592,0,4.928,0.691,6.938,1.913h0.003c2.962,1.799,5.206,4.747,6.511,8.294
	c0.005,0.017,0.01,0.034,0.017,0.05c0.615,1.691,1.019,3.522,1.176,5.434c0.005,0.068,0.004,0.138,0.01,0.208
	c0.041,0.577,0.068,1.157,0.067,1.747c0,0.585-0.023,1.178-0.073,1.771l0.407-0.033c0,0,5.964-0.316,7.651-0.594l0.014,0.002
	l0.073,0.012l45.214-5.504c-5.315-1.278-20.886-2.119-38.692-2.672C193.396,38.972,193.396,38.972,193.395,38.972z" class="color c2"/>
</svg>