<svg version="1.1" id="图层_1" x="0px" y="0px" width="219.999px" height="191.375px" viewBox="0 0 219.999 191.375" enable-background="new 0 0 219.999 191.375" xml:space="preserve" xmlns="http://www.w3.org/2000/svg" xmlns:xlink="http://www.w3.org/1999/xlink" xmlns:xml="http://www.w3.org/XML/1998/namespace">
  <path fill="#1979CB" d="M27.774,68.578c3.566-2.529,6.367,1.074,7.174,3.717c1.773,5.829,6.262,6.739,6.262,6.739
	c-3.521,0.919-8.781,0.446-11.584-1.649C27.257,75.614,23.272,71.768,27.774,68.578z M35.95,126.263
	c-1.047,1.327-2.24,2.551-4.023,3.053c-1.941,0.549-4.156,1.127-3.082,3.764c1.117,2.749,4.26,1.801,5.881,0.227
	C36.517,131.566,36.915,128.524,35.95,126.263z M99.403,34.203c-0.596-1.583-1.027-3.235-0.536-5.022
	c0.534-1.945,1.182-4.141-1.632-4.584c-2.93-0.462-3.741,2.719-3.23,4.919C94.57,31.951,96.97,33.861,99.403,34.203z
	 M131.328,181.625c0.534,1.604,0.904,3.271,0.347,5.039c-0.607,1.924-1.338,4.093,1.457,4.642c2.91,0.573,3.842-2.574,3.414-4.793
	C136.072,184.06,133.747,182.059,131.328,181.625z M61.062,171.911c2.688-2.533,1.297-6.523,0.6-9.853
	c-0.127-0.606-0.23-1.192-0.283-1.741c-0.376-3.959,1.024-10.711,4.297-13.418c-5.416,4.48-9.252,8.284-11.934,13.938
	c-1.22,2.572-1.473,5.571-0.315,8.231c0.846,1.944,3.028,3.793,5.153,3.827c0.174,0.076,0.277,0.111,0.277,0.111
	s0.407,0.04,0.588-0.203C60.011,172.668,60.56,172.383,61.062,171.911z M131.384,17.304c1.463,3.496,2.77,7.12,2.48,10.972
	c2.166-2.947,4.277-7.401,4.327-11.499c0.026-2.206-0.542-4.309-2.023-6.019c-1.417-1.637-4.06-2.952-5.81-0.989
	C128.447,11.913,130.47,15.118,131.384,17.304z M13.354,112.7c-3.08-0.335-12.125-4.151-13.227,0.763
	c-1.525,6.803,11.01,4.773,13.877,3.802c9.66-3.271,14.509-8.82,14.509-8.82C23.615,111.3,19.284,113.346,13.354,112.7z
	 M52.253,136.689c-0.008-0.223-9.537,7.567-12.111,11.359c-1.85,2.725-2.627,6.014-1.277,9.09c0.898,2.056,3.096,5.07,5.57,3.072
	c2.108-1.706,0.371-5.687,0.12-7.704c-0.003-0.03-0.007-0.061-0.011-0.091c-0.354-3.076,0.791-5.513,2.266-8.187
	C48.31,141.509,50.194,139.031,52.253,136.689z M176.178,153.364c0.085,0.02,2.711,6.167,3.055,6.686
	c0.858,1.296,1.912,2.567,3.521,2.831c3.003,0.49,4.08-1.985,2.308-4.158C183.399,156.687,180.733,155.617,176.178,153.364z
	 M34.583,57.827c-2.691-2.613-3.286-6.873-2.884-10.452c0.358-3.17,2.911-6.495-0.241-8.684c-4.797-3.325-9.76,3.455-8.918,7.706
	C23.657,52.041,30.409,54.743,34.583,57.827z M55.233,47.562c0.387-1.979,0.869-4.216-1.969-4.449
	c-2.957-0.243-3.529,2.99-2.855,5.147c0.744,2.384,3.279,4.111,5.732,4.271C55.43,50.996,54.876,49.38,55.233,47.562z
	 M195.355,131.392c-4.004,0.186-12.29-3.898-12.366-3.736c-1.105,2.363-2.535,4.477-4.232,6.262
	c-0.456,0.568-0.758,0.916-0.758,0.916c-2.708,2.536-5.499,3.877-8.101,4.504c-3.595,1.009-7.623,0.977-11.89-0.398
	c0.82,8.751,6.97,10.356,10.68,17.048c2.803,5.055-3.218,6.086-7.186,3.563c-6.52-4.147,0.052-15.829-6.355-20.073
	c-2.987-1.978-8.018,0.508-9.984,2.957c-3.332,4.146-4.115,12.281-3.16,16.935c1.629,7.939,15.498,22.499,5.129,27.583
	c-13.282,6.512-5.713-19.97-8.608-24.747c-2.59-4.271-9.169,5.254-19.395,5.254c-4.229,0,4.906,7.551,5.522,11.463
	c0.648,4.11,3.719,7.734-1.639,8.866c-7.746,1.633-10.485-14.607-10.94-19.482c-10.836,1.082-23.563,0.937-32.077-6.966
	c-5.48-5.089-7.186-14.741-14.102-18.285c-5.885-3.018-7.936,2.407-10.764,6.347c-1.433,1.993-6.361,8.946-7.817,3.334
	c-1.479-5.705,7.851-12.729,6.781-19.729c-1.868-12.218-26.082-18.194-18.649-31.376c-5.857,2.828-12.252,6.728-19.041,5.953
	c-3.455-0.394-13.288-4.074-10.721-9.252c1.926-3.881,7.289-0.51,9.697,0.636c5.549,2.64,10.334,2.634,16.151-0.032
	c3.558-1.631,6.944-4.082,8.538-7.778c1.958-4.542-1.414-9.669,1.269-13.969c0.53-0.851,7.591-2.907,9.694-7.377
	S30.856,57.424,35.642,51.361c0,0,0.651-1.402,2.221-1.843c12.781-0.508,7.385,13.685,19.48,9.467
	c12.095-4.218,13.941-15.282,16.789-20.59c4.073-7.592,3.777-16.709,5.93-24.913c1.407-5.364,2.92-19.014,10.623-11.038
	c6.631,6.866-0.693,16.732-3.469,22.109c-5.4,10.458-2.267,19.793,13.508,16.861c6.846-1.272,16.375-2.152,16.136-8.889
	c-0.185-5.164-5.308-12.208-1.641-17.14c3.131-4.211,8.201-0.051,9.121,3.704c1.516,6.191-5.519,12.26,0.312,17.469
	c7.959,7.108,23.768-6.348,24.319-14.322c0.284-4.108,0.429-7.791,3.286-11.655c2.971-4.018,7.918-3.135,9.455,1.513
	c1.919,5.801-3.697,11.348-7.433,14.971c-4.495,4.362-9.941,7.976-14.114,12.637c-1.348,1.503-2.447,4.55,9.177,6.555
	c4.704,0.811,12.245-0.813,16.265-3.603c5.475-3.801,9.914-11.225,17.594-8.888c6.292,1.915,5.144,6.163-0.912,7.273
	c-4.545,0.833-9.271-0.047-13.579,1.985c-3.469,1.636-8.066,3.742-9.317,7.708c-1.77,5.604,2.874,11.582,5.91,15.883
	c3.295,4.668,7.167,8.965,11.915,12.192c2.794,1.898,9.429,5.794,7.304,9.989c3.352-1.43,8.635-4.508,12.189-2.009
	c8.769,6.165-13.209,8.723-10.977,13.716c1.926,4.313,10.084,1.738,12.795,6.056c2.416,3.847,0.177,10.319-4.905,9.774
	c-4.301-1.063-5.017-14.631-9.564-8c-2.04,2.974,3.808,15.164-0.317,16.807c2.275-0.324,5.061-2.414,7.975-3.234
	c2.749-0.774,5.49-0.889,7.563,0.875C203.374,126.263,199.89,131.182,195.355,131.392z M73.337,175.285
	c-1.908-4.869,0.609-10.533,0.609-10.533c-2.68,4.397-6.085,7.675-6.815,13.305c-0.458,3.535,1.327,12.47,6.778,9.859
	C79.179,185.392,74.725,178.828,73.337,175.285z M89.566,177.042c0.943-3.386,3.058-5.995,3.058-5.995
	c-3.414-0.408-10.523,7.73-6.699,10.386C88.585,183.281,89.11,178.677,89.566,177.042z M218.088,81.327
	c-4.979-3.058-8.077,4.245-10.301,7.333c-3.056,4.244-9.18,5.201-9.18,5.201c5.149-0.134,9.749,0.949,14.875-1.492
	C216.7,90.837,223.237,84.489,218.088,81.327z M62.062,15.543c-4.557,3.655,1.273,9.035,3.43,12.17
	c2.967,4.308,1.803,10.396,1.803,10.396c1.609-4.893,4.18-8.858,3.61-14.507C70.547,20.056,66.775,11.761,62.062,15.543z
	 M182.839,68.991c-3.311,1.179-6.661,0.954-6.661,0.954c1.632,3.025,12.38,4.148,12.349-0.506
	C188.505,66.201,184.438,68.421,182.839,68.991z M171.675,56.732c-2.973,0.789-4.287,7.121-0.703,7.144
	c1.08,0.008,1.955-0.65,2.557-1.572C175.06,59.958,174.821,55.899,171.675,56.732z M179.218,25.278
	c2.417-1.461,5.359-5.225,1.981-7.309c-6.319-3.898-12.513,12.852-15.034,16.234C166.165,34.203,174.704,28.009,179.218,25.278z" class="color c1"/>
</svg>