<svg version="1.1" id="图层_1" x="0px" y="0px" width="138.959px" height="142.937px" viewBox="0 0 138.959 142.937" enable-background="new 0 0 138.959 142.937" xml:space="preserve" xmlns="http://www.w3.org/2000/svg" xmlns:xlink="http://www.w3.org/1999/xlink" xmlns:xml="http://www.w3.org/XML/1998/namespace">
  <path fill="#005F69" d="M137.344,29.829L70.594,0.237c-0.709-0.315-1.52-0.315-2.229,0L1.615,29.829C0.482,30.332,0,31.364,0,32.676
	v77.055c0,1.045,0.609,1.993,1.56,2.428l66.81,30.537c0.355,0.161,0.733,0.241,1.11,0.241c0.425,0,0.725-0.047,1.107-0.246
	c0.001,0.001,66.813-30.532,66.813-30.532c0.95-0.435,1.56-1.383,1.56-2.428V32.676C138.959,31.434,138.478,30.332,137.344,29.829z
	 M100.182,19.374L40.465,48.146c-0.923,0.444-1.512,1.38-1.512,2.406V76.6l-13.046-6.156V44.666l62.932-30.321L100.182,19.374z
	 M69.479,5.762l12.952,5.741L24.577,39.38L9.351,32.421L69.479,5.762z M66.811,136.112L5.34,108.016V36.458l15.226,6.96v28.717
	c0,1.035,0.597,1.975,1.531,2.415l18.388,8.679c0.361,0.17,0.75,0.255,1.138,0.255c0.499,0,0.996-0.141,1.43-0.415
	c0.773-0.49,1.241-1.341,1.241-2.255V54.262l22.518,10.292V136.112z M69.479,59.904l-21.1-9.645l58.208-28.045l23.021,10.207
	L69.479,59.904z M133.62,108.016l-61.471,28.096V64.554l61.471-28.096V108.016z" class="color c1"/>
</svg>