<svg version="1.1" id="图层_1" x="0px" y="0px" width="220.482px" height="102.146px" viewBox="0 0 220.482 102.146" enable-background="new 0 0 220.482 102.146" xml:space="preserve" xmlns:xml="http://www.w3.org/XML/1998/namespace" xmlns="http://www.w3.org/2000/svg" xmlns:xlink="http://www.w3.org/1999/xlink">
  <path fill="#00B0D1" d="M21,11.068h3.164v77.022H21V11.068z M29.805,11.068h3.164v77.022h-3.164V11.068z M38.607,11.068h3.164
	v77.022h-3.164V11.068z M47.406,11.068h3.164v77.022h-3.164V11.068z M56.205,11.068h3.164v77.022h-3.164V11.068z M65.004,11.068
	h3.162v77.022h-3.162V11.068z M73.813,11.068h3.164v77.022h-3.164V11.068z" class="color c1"/>
  <path fill="#F2F2F2" d="M82.605,11.068h3.164v77.022h-3.164V11.068z M91.408,11.068h3.166v77.022h-3.166V11.068z M100.213,11.068
	h3.164v77.022h-3.164V11.068z M109.012,11.068h3.161v77.022h-3.161V11.068z M117.816,11.068h3.162v77.022h-3.162V11.068z
	 M126.604,11.068h3.164v77.022h-3.164V11.068z M135.406,11.068h3.166v77.022h-3.166V11.068z" class="color c2"/>
  <path fill="#FF8953" d="M144.205,11.068h3.164v77.022h-3.164V11.068z M153.004,11.068h3.162v77.022h-3.162V11.068z M161.809,11.068
	h3.162v77.022h-3.162V11.068z M170.602,11.068h3.164v77.022h-3.164V11.068z M179.416,11.068h3.164v77.022h-3.164V11.068z
	 M188.213,11.068h3.164v77.022h-3.164V11.068z M197.012,11.068h3.163v77.022h-3.163V11.068z" class="color c3"/>
  <path fill="#FFFFFF" d="M3.824,0H0v10.072v3.338l9.685,9.688v55.948L0,88.736v13.41h220.482v-13.41l-9.66-9.662V23.078l9.66-9.668
	v-3.338V0h-3.822H3.824L3.824,0z M217.32,3.725v6.348v2.029l-9.662,9.66v58.622l9.662,9.662v8.941H3.164v-8.941l9.688-9.688V21.789
	l-9.688-9.682V3.729l0,0V3.17H217.32V3.725L217.32,3.725z" class="color c4"/>
</svg>