<svg version="1.1" id="图层_1" x="0px" y="0px" width="49.623px" height="15.494px" viewBox="0 0 49.623 15.494" enable-background="new 0 0 49.623 15.494" xml:space="preserve" xmlns="http://www.w3.org/2000/svg" xmlns:xlink="http://www.w3.org/1999/xlink" xmlns:xml="http://www.w3.org/XML/1998/namespace">
  <path fill="#E2A856" d="M44.124,12.685c-4.542,1.68-11.546,2.698-19.213,2.801c-6.281,0.08-12.212-0.475-16.708-1.56
	C2.713,12.596,0.032,10.681,0,8.069c-0.03-2.134,1.821-3.905,5.497-5.263c4.543-1.679,11.55-2.695,19.213-2.8
	c9.218-0.118,24.833,1.309,24.912,7.417C49.649,9.558,47.802,11.327,44.124,12.685z M6.791,6.313
	c-2.68,0.99-3.061,1.787-3.065,1.795c0.602,1.238,8.389,3.801,21.134,3.635c7.156-0.091,13.87-1.052,17.968-2.564
	c2.682-0.991,3.064-1.79,3.065-1.796c-0.603-1.239-8.39-3.799-21.138-3.633C17.609,3.841,10.893,4.798,6.791,6.313z" class="color c1"/>
</svg>