<svg version="1.1" id="图层_1" x="0px" y="0px" width="52.042px" height="35.375px" viewBox="0 0 52.042 35.375" enable-background="new 0 0 52.042 35.375" xml:space="preserve" xmlns="http://www.w3.org/2000/svg" xmlns:xlink="http://www.w3.org/1999/xlink" xmlns:xml="http://www.w3.org/XML/1998/namespace">
  <path fill="#002857" d="M23.021,3c0-1.656,1.343-3,2.999-3c1.656,0,3,1.343,3,3s-1.344,3-3,3C24.365,6,23.021,4.656,23.021,3z
	 M2,12.942c1.105,0,2-0.896,2-2c0-1.104-0.896-2-2-2c-1.104,0-2,0.896-2,2C0,12.046,0.895,12.942,2,12.942z M50.042,12.942
	c1.104,0,2-0.896,2-2c0-1.104-0.896-2-2-2c-1.104,0-2,0.896-2,2C48.042,12.046,48.938,12.942,50.042,12.942z M7.07,35.375
	c0.045-0.003,0.092-0.005,0.137-0.008c5.471-3.376,11.913-5.329,18.813-5.329c6.9,0,13.344,1.953,18.814,5.329
	c0.045,0.003,0.092,0.005,0.137,0.008l4.38-22.392l-10.4,10.4L26.016,6.417L13.091,23.384l-10.4-10.4L7.07,35.375z" class="color c1"/>
</svg>