<svg version="1.1" id="图层_1" x="0px" y="0px" width="160.001px" height="116.513px" viewBox="0 0 160.001 116.513" enable-background="new 0 0 160.001 116.513" xml:space="preserve" xmlns="http://www.w3.org/2000/svg" xmlns:xlink="http://www.w3.org/1999/xlink" xmlns:xml="http://www.w3.org/XML/1998/namespace">
  <path fill="#5C90BB" d="M71.622,8.088c0-4.467,3.623-8.088,8.09-8.088s8.088,3.621,8.088,8.088c0,4.467-3.621,8.088-8.088,8.088
	S71.622,12.555,71.622,8.088z M137.981,98.464v2.378H22.02v-2.378c0,0-26.359-16.911-21.398-41.071
	c4.986-24.265,22.174-26.296,30.967-25.66c-2.223,5.495-3.24,11.385-3.658,17.321v0c-0.184,0.137-0.367,0.28-0.549,0.429
	c-0.004,0.003-0.008,0.006-0.012,0.009c-0.175,0.143-0.348,0.292-0.521,0.447c-0.013,0.012-0.026,0.023-0.039,0.035
	c-0.162,0.146-0.323,0.299-0.482,0.456c-0.022,0.022-0.044,0.043-0.066,0.065c-0.149,0.149-0.297,0.305-0.443,0.463
	c-0.03,0.033-0.061,0.064-0.09,0.097c-0.137,0.151-0.271,0.308-0.403,0.467c-0.038,0.045-0.076,0.089-0.114,0.136
	c-0.123,0.151-0.243,0.309-0.363,0.469c-0.044,0.059-0.089,0.116-0.132,0.176c-0.112,0.153-0.221,0.313-0.328,0.474
	c-0.049,0.071-0.097,0.141-0.144,0.213c-0.101,0.156-0.198,0.318-0.296,0.481c-0.05,0.084-0.101,0.166-0.15,0.251
	c-0.09,0.158-0.176,0.322-0.262,0.486c-0.052,0.098-0.104,0.193-0.154,0.293c-0.08,0.16-0.156,0.327-0.232,0.493
	c-0.051,0.111-0.104,0.219-0.152,0.333c-0.071,0.165-0.138,0.336-0.205,0.506c-0.049,0.123-0.1,0.243-0.146,0.368
	c-0.063,0.17-0.12,0.349-0.18,0.524c-0.045,0.134-0.092,0.264-0.134,0.401c-0.056,0.18-0.105,0.369-0.157,0.555
	c-0.039,0.141-0.081,0.278-0.117,0.422c-0.048,0.193-0.09,0.395-0.134,0.594c-0.032,0.146-0.068,0.288-0.098,0.438
	c-0.044,0.224-0.08,0.456-0.118,0.687c-0.022,0.133-0.048,0.262-0.067,0.398c-0.055,0.372-0.102,0.752-0.139,1.143
	c-1.381,14.324,10.182,28.475,10.182,28.475h14.711c-0.497-0.569-0.968-1.142-1.427-1.717c-0.096-0.121-0.192-0.241-0.287-0.362
	c-0.439-0.561-0.863-1.124-1.269-1.689c-0.064-0.09-0.125-0.181-0.189-0.271c-0.369-0.523-0.724-1.047-1.064-1.572
	c-0.059-0.091-0.119-0.181-0.178-0.272c-0.365-0.571-0.712-1.144-1.045-1.716c-0.067-0.117-0.134-0.234-0.201-0.352
	c-0.668-1.173-1.271-2.348-1.814-3.518c-0.053-0.112-0.104-0.225-0.156-0.337c-0.262-0.577-0.512-1.153-0.746-1.728
	c-0.027-0.068-0.053-0.136-0.081-0.205c-0.22-0.548-0.428-1.095-0.624-1.639c-0.025-0.072-0.053-0.145-0.078-0.217
	c-0.205-0.579-0.396-1.155-0.575-1.728c-0.028-0.088-0.054-0.176-0.081-0.264c-0.359-1.172-0.666-2.331-0.925-3.468
	c-0.017-0.072-0.033-0.144-0.049-0.216c-0.095-0.423-0.178-0.842-0.26-1.259l-0.001,0.001c-0.002-0.01-0.003-0.021-0.005-0.031
	c-0.027-0.141-0.062-0.284-0.087-0.424c-0.002-0.008-0.003-0.016-0.004-0.023c-0.108-0.581-0.205-1.155-0.29-1.723
	c-0.003-0.02-0.007-0.04-0.01-0.06c-0.085-0.569-0.159-1.13-0.224-1.684c-0.003-0.024-0.005-0.048-0.008-0.072
	c-0.129-1.123-0.218-2.213-0.272-3.263c0-0.001,0-0.003,0-0.004v0c0.032-0.278,0.063-0.558,0.095-0.837c0,0.004,0,0.008,0.001,0.012
	c-0.073-1.63-0.104-3.328-0.079-5.066c0.038-2.671,0.206-5.427,0.528-8.14c0.982-8.25,3.428-16.096,8.261-19.897l0.213,0.185
	c0.003-0.116-0.01-0.227-0.033-0.335c17.137-13.19,36.553,0.374,36.57,0.386v0.001h0.002L80,26.332
	c0.016-0.011,17.003-11.913,33.221-2.67c0,0.008,0.002,0.029,0.003,0.044c6.223,3.959,10.488,12.182,12.009,22.329
	c0.703,4.693,0.813,9.794,0.255,15.083c-0.609,8.367-3.383,18.989-11.88,28.721h14.709c0,0,11.564-14.151,10.182-28.475
	c-0.455-4.718-3.186-8.812-5.248-11.1c-0.004-0.08-0.013-0.157-0.017-0.237c-0.354-6.664-1.805-12.417-4.483-18.388
	c9.188-0.125,26.014,3.284,30.629,25.755C164.34,81.553,137.981,98.464,137.981,98.464z M72.663,39.101c0,0-0.035-0.024-0.085-0.056
	c-0.094-0.058-0.188-0.12-0.282-0.176c-0.235-0.139-0.471-0.273-0.708-0.398c-0.384-0.203-0.767-0.375-1.149-0.543
	c-3.62-1.542-10.803-2.99-14.939,7.042c-6.896,16.715,8.281,44.868,8.281,44.868h8.883V39.101z M104.504,44.97
	c-2.636-6.389-6.506-8.118-9.905-8.136c-0.397-0.002-0.787,0.021-1.169,0.061c-1.197,0.126-2.306,0.431-3.238,0.781
	c-1.04,0.422-1.989,0.983-2.852,1.639v50.524h8.881C96.221,89.838,111.399,61.685,104.504,44.97z M20.399,116.513h117.689v-11.25
	H20.399V116.513z" class="color c1"/>
</svg>