<svg version="1.1" id="图层_1" x="0px" y="0px" width="54px" height="43.404px" viewBox="0 0 54 43.404" enable-background="new 0 0 54 43.404" xml:space="preserve" xmlns="http://www.w3.org/2000/svg" xmlns:xlink="http://www.w3.org/1999/xlink" xmlns:xml="http://www.w3.org/XML/1998/namespace">
  <path fill="#968145" d="M7.864,21.811c0.858,0,1.554,0.695,1.554,1.554s-0.696,1.554-1.554,1.554c-0.858,0-1.554-0.695-1.554-1.554
	S7.006,21.811,7.864,21.811z M20.049,13.716c0.858,0,1.554,0.696,1.554,1.555s-0.696,1.554-1.554,1.554
	c-0.858,0-1.554-0.695-1.554-1.554S19.191,13.716,20.049,13.716z M47.359,36.74l6.613-17.35c0.059-0.15,0.022-0.316-0.089-0.433
	c-0.11-0.116-0.278-0.153-0.43-0.102c-2.045,0.721-5.277,3.877-6.498,7.535c-1.504-2.298-5.918-1.683-6.199,1.104
	c-0.016,0.148,0.086,0.281,0.232,0.307c2.563,0.414,4.16,7.095-3.766,7.095c-4.752,0-6.732-4.607-5.971-8.181
	c0.754-3.521,4.162-6.049,8.254-4.245c0.082,0.036,0.178,0.032,0.258-0.013c0.08-0.043,0.133-0.123,0.145-0.211
	c0.535-3.885-4.035-6.504-7.838-4.445c0.313-6.098-2.289-14.213-4.732-17.631C27.261,0.064,27.136,0,27.001,0
	c-0.133,0-0.26,0.064-0.336,0.174c-2.445,3.418-5.047,11.533-4.734,17.632c-3.803-2.06-8.373,0.561-7.838,4.444
	c0.014,0.088,0.066,0.168,0.146,0.211c0.08,0.045,0.174,0.049,0.258,0.013c4.09-1.804,7.498,0.725,8.252,4.245
	c0.764,3.572-1.217,8.181-5.971,8.181c-7.918,0-6.33-6.67-3.773-7.094c0.152-0.025,0.256-0.164,0.242-0.316
	c-0.291-2.777-4.699-3.391-6.201-1.096c-1.223-3.662-4.459-6.822-6.506-7.537c-0.148-0.054-0.314-0.015-0.424,0.1
	c-0.111,0.115-0.146,0.281-0.09,0.43L6.644,36.74c4.369,1.094,13.871,2.342,20.357,2.342C33.491,39.082,42.991,37.834,47.359,36.74z
	 M26.759,9.328c0.039-0.063,0.107-0.1,0.182-0.1c0.072,0,0.143,0.037,0.18,0.1c0.508,0.805,1.905,3.289,1.905,6.229
	c0,2.939-1.396,5.422-1.905,6.227c-0.037,0.063-0.107,0.1-0.18,0.1c-0.074,0-0.143-0.036-0.182-0.1
	c-0.508-0.805-1.904-3.287-1.904-6.227C24.855,12.617,26.251,10.133,26.759,9.328z M26.503,31.498
	c0.09-0.143,0.248-0.227,0.416-0.227c0.17,0,0.326,0.084,0.418,0.227c1.891,2.908,4.818,5.142,8.292,6.23
	c-3.01,0.307-6.057,0.5-8.628,0.5c-2.607,0-5.701-0.199-8.752-0.515C21.705,36.621,24.619,34.396,26.503,31.498z M27.001,43.404
	c6.298,0,15.949-1.146,18.565-1.963l1.177-3.082c-4.597,1.057-13.541,2.192-19.742,2.192c-6.199,0-15.145-1.137-19.738-2.192
	L6.644,36.74l1.793,4.701C11.052,42.258,20.705,43.404,27.001,43.404z M46.14,21.811c0.858,0,1.554,0.695,1.554,1.554
	s-0.695,1.554-1.554,1.554s-1.554-0.695-1.554-1.554S45.282,21.811,46.14,21.811z M33.954,13.716c0.858,0,1.555,0.696,1.555,1.555
	s-0.696,1.554-1.555,1.554c-0.857,0-1.554-0.695-1.554-1.554S33.096,13.716,33.954,13.716z" class="color c1"/>
</svg>