<svg version="1.1" id="图层_1" x="0px" y="0px" width="54.275px" height="31.735px" viewBox="0 0 54.275 31.735" enable-background="new 0 0 54.275 31.735" xml:space="preserve" xmlns="http://www.w3.org/2000/svg" xmlns:xlink="http://www.w3.org/1999/xlink" xmlns:xml="http://www.w3.org/XML/1998/namespace">
  <path fill="#FFFFFF" d="M51.637,10.798c-1.458,0-2.641,1.181-2.641,2.639c0,0.92,0.473,1.729,1.188,2.201
	c-2.432,3.237-6.077,7.473-9.935,7.473c-5.818,0-10.567-10.2-12.365-17.94c1.113-0.31,1.935-1.319,1.935-2.532
	C29.818,1.182,28.637,0,27.18,0c-1.458,0-2.64,1.182-2.64,2.639c0,1.188,0.791,2.181,1.871,2.512
	c-1.805,7.742-6.935,17.96-12.758,17.96c-3.805,0-7.091-4.27-9.507-7.511c0.684-0.477,1.133-1.266,1.133-2.163
	c0-1.458-1.183-2.639-2.64-2.639C1.183,10.798,0,11.979,0,13.437c0,1.457,1.183,2.639,2.639,2.639c0.147,0,0.289-0.02,0.429-0.043
	l3.681,15.704c0,0,1.714-0.92,4.71-1.919c2.314-0.907,5.129-1.545,8.134-1.935c3.812-0.571,8.302-0.787,13.242-0.182
	c4.143,0.412,8.049,1.283,10.942,2.65c1.132,0.414,2.273,0.866,3.428,1.385l4.079-15.696c0.117,0.016,0.232,0.036,0.354,0.036
	c1.456,0,2.639-1.182,2.639-2.639C54.275,11.979,53.093,10.798,51.637,10.798z" class="color c1"/>
</svg>