<svg version="1.1" id="图层_1" x="0px" y="0px" width="80.751px" height="37.948px" viewBox="0 0 80.751 37.948" enable-background="new 0 0 80.751 37.948" xml:space="preserve" xmlns="http://www.w3.org/2000/svg" xmlns:xlink="http://www.w3.org/1999/xlink" xmlns:xml="http://www.w3.org/XML/1998/namespace">
  <path fill="#FFFFFF" d="M67.091,37.948c3.789-6.037,8.084-11.838,13.66-16.991c-0.584-0.451-1.162-0.899-1.744-1.125
	c-1.818-0.299-3.199,0.902-4.436,2.178c-1.67-1.352-3.852-2.329-6.031-1.504c-1.234,0.526-2.252,1.88-2.252,3.303
	c-0.219,2.104,0.725,3.833,2.252,5.105c-0.729,1.354-2.033,2.554-3.49,2.779c-3.125,0.149-6.25-1.352-7.559-4.353
	c-0.654-1.879,0.293-3.453,1.238-4.884c0.725,0.075,1.379-0.146,2.033-0.375c1.311-0.448,2.324-1.874,2.617-3.23
	c0.436-1.874-0.293-3.6-1.674-4.803c-1.016-0.6-2.176-1.126-3.488-0.823c-1.381,0.224-2.615,1.426-3.123,2.7
	c-0.727,1.577-0.51,3.755,0.582,5.106c-0.727,1.5-2.182,3.153-3.705,3.756c-2.326,1.124-5.6,0.825-7.416-1.053
	c-1.6-1.726-2.543-3.903-2.182-6.46c2.691,0.078,5.672,0.305,6.979-2.474c0.508-1.353,0.508-3.078-0.289-4.28
	c-0.947-1.423-2.475-2.026-4.076-2.103C44.847,6.394,45.5,3.992,44.41,2.414c-1.236-2.252-3.852-2.928-6.034-2.029
	c-3.195,1.429-2.615,5.034-2.762,8.11c-0.362-0.076-0.725,0.075-1.09,0c-1.526,0.302-3.051,1.652-3.415,3.304
	c-0.146,1.201-0.146,2.554,0.507,3.453c1.382,2.552,4.289,1.953,6.835,2.102c0.072,1.951-0.293,3.679-1.31,5.179
	c-1.162,1.729-2.835,2.704-4.723,2.854c-3.2,0.376-6.035-1.498-7.416-4.354c1.309-1.427,1.163-3.901,0.364-5.554
	c-0.87-1.729-2.688-2.556-4.578-2.253c-1.528,0.299-2.98,1.726-3.418,3.304c-0.437,1.728,0,3.451,1.237,4.729
	c0.944,0.824,2.033,1.274,3.414,1.199c0.944,1.431,1.891,3.231,1.237,4.957c-1.31,2.703-3.999,4.054-6.614,4.354
	c-1.963,0.151-3.563-1.203-4.505-2.854c0.507-0.45,1.088-0.975,1.453-1.573c0.943-1.429,1.089-3.532,0.434-5.106
	c-0.507-0.903-1.452-1.729-2.396-1.952c-2.108-0.45-4,0.452-5.525,1.728c-1.091-1.199-2.254-2.103-3.634-2.256
	C1.456,19.681,0.729,20.358,0,20.957c5.369,5.265,9.633,11.029,13.442,16.991H67.091z" class="color c1"/>
</svg>