<svg version="1.1" id="图层_1" x="0px" y="0px" width="117.67px" height="108.89px" viewBox="0 0 117.67 108.89" enable-background="new 0 0 117.67 108.89" xml:space="preserve" xmlns="http://www.w3.org/2000/svg" xmlns:xlink="http://www.w3.org/1999/xlink" xmlns:xml="http://www.w3.org/XML/1998/namespace">
  <g>
    <path fill="#00FFFF" d="M30.44,41.57C41.72,39,60.01,27.25,66.95,22.3l2-1.42l0.19-0.14l0.25,0.46l6.41,11.52l0.25-4.79
		c0.36-6.79-0.01-13.63-1.36-20.29c-0.52-2.56-1.16-5.01-1.96-7.58c0-0.01,0-0.01,0-0.01C72.72,0.03,72.72,0.02,72.71,0
		c-0.04,0.02-0.06,0.06-0.1,0.08c0,0,0,0,0,0.01c-14.56,11.63-28.1,22.17-39.89,27.89C32.72,27.98,32.42,33.82,30.44,41.57z" class="color c1"/>
    <path fill="#00FFFF" d="M40.47,99.81c0.13,0.07,0.26,0.14,0.39,0.22c0.01,0,0.01,0,0.01,0c0.14,0.07,0.28,0.14,0.41,0.21
		c6.57,3.52,13.76,6.36,21.47,8.65c0,0,31.65-6.73,54.92-36.78c0,0-3.13,0.05-7.82-0.13c-0.14,0-0.29,0-0.43-0.01
		c-8.41-0.33-21.54-1.39-30.84-4.64C78.58,67.33,59.92,95.17,40.47,99.81z" class="color c1"/>
    <path fill="#00FFFF" d="M0,78c0,0,11.04,13.1,23.66,15.46c1.27,0.24,2.55,0.37,3.84,0.37c1.8,0,3.61-0.26,5.41-0.85
		c0,0,33.89-9,41.54-47.49c0.28-1.37,0.5-2.74,0.66-4.12l-7.29-13.14l-0.28-0.48c-0.12,0.08-0.25,0.17-0.38,0.26
		c-6.94,4.71-26.07,17.05-38.19,18.69C24.95,59,16.72,73.61,0,78z" class="color c1"/>
    <path fill="#FC8865" d="M69.39,21.2l6.41,11.52l0.25-4.79c0.36-6.79-0.01-13.63-1.36-20.29c-0.52-2.56-1.16-5.01-1.96-7.58
		c-0.05,0.4-1,8.89-3.78,20.82l0.19-0.14L69.39,21.2z" class="color c2"/>
    <path fill="#FC8865" d="M27.5,93.83c1.8,0,3.61-0.26,5.41-0.85c0,0,33.89-9,41.54-47.49c0.28-1.37,0.5-2.74,0.66-4.12l-7.29-13.14
		l-0.28-0.48c-0.12,0.08-0.25,0.17-0.38,0.26C61.2,50.15,49.48,79.64,27.5,93.83z" class="color c2"/>
    <path fill="#FFD4C7" d="M40.87,100.03c0.14,0.07,0.28,0.14,0.41,0.21c6.57,3.52,13.76,6.36,21.47,8.65c0,0,31.65-6.73,54.92-36.78
		c0,0-3.13,0.05-7.82-0.13C103.92,81.45,86.75,99.03,40.87,100.03z" class="color c3"/>
  </g>
</svg>