<svg version="1.1" id="图层_1" x="0px" y="0px" width="291.531px" height="298.275px" viewBox="0 0 291.531 298.275" enable-background="new 0 0 291.531 298.275" xml:space="preserve" xmlns="http://www.w3.org/2000/svg" xmlns:xlink="http://www.w3.org/1999/xlink" xmlns:xml="http://www.w3.org/XML/1998/namespace">
  <path fill="#DAC781" d="M147.568,5.359c-0.535-1.784-1.092-3.573-1.711-5.358c-0.63,1.785-1.191,3.57-1.782,5.358
	c-1.855-0.02-3.763,0.092-5.667,0.23c1.626,0.938,3.177,1.958,4.651,2.99c-0.523,1.788-0.977,3.6-1.464,5.396
	c1.335-1.139,2.749-2.183,4.242-3.352c1.438,1.151,2.847,2.235,4.177,3.375c-0.479-1.806-0.878-3.604-1.427-5.412
	c1.46-0.928,3.015-1.95,4.692-2.974C151.323,5.475,149.471,5.369,147.568,5.359z" class="color c1"/>
  <path fill="#DAC781" d="M291.531,115.366c-1.958-0.142-3.813-0.247-5.713-0.258c-0.535-1.784-1.092-3.573-1.711-5.358
	c-0.631,1.785-1.191,3.57-1.782,5.358c-1.855-0.02-3.763,0.092-5.667,0.23c1.626,0.938,3.177,1.958,4.65,2.99
	c-0.522,1.788-0.977,3.6-1.463,5.396c1.334-1.139,2.748-2.183,4.241-3.352c1.438,1.151,2.847,2.235,4.177,3.375
	c-0.479-1.806-0.877-3.604-1.427-5.412C288.298,117.411,289.854,116.388,291.531,115.366z" class="color c1"/>
  <path fill="#DAC781" d="M186.125,5.056c-1.18,1.481-2.294,2.985-3.438,4.481c-1.746-0.625-3.586-1.146-5.431-1.637
	c1.229,1.417,2.361,2.89,3.417,4.348c-1.078,1.518-2.101,3.082-3.148,4.621c1.635-0.641,3.313-1.164,5.104-1.779
	c0.981,1.559,1.959,3.044,2.843,4.556c0.139-1.861,0.351-3.691,0.422-5.581c1.685-0.398,3.487-0.856,5.408-1.273
	c-1.805-0.773-3.521-1.48-5.313-2.111C186.066,8.818,186.127,6.946,186.125,5.056z" class="color c1"/>
  <path fill="#DAC781" d="M220.325,19.406c-1.452,1.213-2.849,2.462-4.271,3.696c-1.584-0.964-3.279-1.844-4.988-2.695
	c0.92,1.636,1.73,3.306,2.472,4.945c-1.362,1.271-2.679,2.597-4.015,3.893c1.729-0.297,3.478-0.473,5.357-0.714
	c0.646,1.725,1.305,3.377,1.866,5.035c0.511-1.796,1.087-3.546,1.538-5.381c1.729-0.052,3.588-0.136,5.553-0.158
	c-1.611-1.12-3.15-2.159-4.779-3.139C219.512,23.08,219.947,21.258,220.325,19.406z" class="color c1"/>
  <path fill="#DAC781" d="M252.794,44.288c-1.637,0.951-3.224,1.946-4.831,2.925c-1.4-1.217-2.924-2.37-4.464-3.498
	c0.63,1.768,1.149,3.55,1.603,5.292c-1.557,1.021-3.076,2.107-4.611,3.16c1.754-0.002,3.508,0.12,5.4,0.198
	c0.351,1.809,0.719,3.548,0.992,5.277c0.807-1.684,1.668-3.313,2.422-5.045c1.715,0.24,3.562,0.469,5.502,0.779
	c-1.399-1.376-2.742-2.66-4.184-3.899C251.372,47.772,252.107,46.05,252.794,44.288z" class="color c1"/>
  <path fill="#DAC781" d="M276.188,75.339c-1.793,0.602-3.547,1.258-5.32,1.892c-1.125-1.474-2.387-2.91-3.667-4.324
	c0.262,1.857,0.409,3.708,0.504,5.506c-1.729,0.688-3.438,1.444-5.154,2.166c1.72,0.352,3.411,0.823,5.251,1.282
	c-0.023,1.843-0.013,3.62-0.092,5.369c1.128-1.486,2.302-2.907,3.389-4.454c1.631,0.58,3.393,1.178,5.23,1.871
	c-1.094-1.63-2.148-3.156-3.313-4.662C274.094,78.465,275.162,76.927,276.188,75.339z" class="color c1"/>
  <path fill="#DAC781" d="M9.206,115.109c-0.591-1.788-1.152-3.573-1.782-5.358c-0.62,1.785-1.176,3.574-1.711,5.358
	c-1.901,0.011-3.755,0.116-5.713,0.258c1.679,1.021,3.233,2.045,4.693,2.973c-0.549,1.808-0.948,3.606-1.427,5.412
	c1.33-1.14,2.739-2.225,4.177-3.375c1.493,1.168,2.907,2.212,4.242,3.352c-0.487-1.797-0.94-3.608-1.464-5.396
	c1.475-1.033,3.025-2.054,4.651-2.99C12.969,115.2,11.062,115.089,9.206,115.109z" class="color c1"/>
  <path fill="#DAC781" d="M108.844,9.537c-1.144-1.496-2.259-3-3.438-4.481c-0.002,1.89,0.058,3.762,0.136,5.624
	c-1.793,0.631-3.51,1.338-5.314,2.111c1.921,0.417,3.725,0.875,5.408,1.273c0.072,1.889,0.283,3.72,0.422,5.581
	c0.884-1.512,1.86-2.998,2.843-4.556c1.793,0.616,3.471,1.14,5.104,1.779c-1.048-1.539-2.069-3.104-3.148-4.621
	c1.056-1.458,2.188-2.931,3.417-4.348C112.429,8.392,110.59,8.912,108.844,9.537z" class="color c1"/>
  <path fill="#DAC781" d="M80.464,20.406c-1.708,0.853-3.404,1.731-4.988,2.695c-1.422-1.234-2.817-2.483-4.27-3.696
	c0.378,1.852,0.814,3.674,1.266,5.48c-1.629,0.979-3.168,2.018-4.779,3.139c1.965,0.022,3.823,0.106,5.553,0.158
	c0.451,1.835,1.027,3.585,1.538,5.381c0.562-1.658,1.219-3.311,1.866-5.036c1.881,0.242,3.629,0.417,5.358,0.715
	c-1.337-1.297-2.652-2.622-4.015-3.893C78.733,23.712,79.545,22.042,80.464,20.406z" class="color c1"/>
  <path fill="#DAC781" d="M48.032,43.715c-1.54,1.127-3.063,2.281-4.464,3.498c-1.608-0.979-3.194-1.974-4.831-2.925
	c0.686,1.762,1.422,3.483,2.171,5.189c-1.44,1.239-2.783,2.522-4.183,3.899c1.94-0.311,3.787-0.54,5.501-0.779
	c0.754,1.733,1.615,3.361,2.422,5.045c0.273-1.729,0.643-3.469,0.992-5.277c1.894-0.078,3.647-0.2,5.401-0.198
	c-1.535-1.052-3.056-2.139-4.612-3.16C46.883,47.265,47.402,45.483,48.032,43.715z" class="color c1"/>
  <path fill="#DAC781" d="M23.828,78.411c0.094-1.797,0.242-3.648,0.504-5.506c-1.281,1.414-2.542,2.851-3.667,4.324
	c-1.773-0.633-3.527-1.29-5.321-1.892c1.025,1.588,2.094,3.126,3.172,4.646c-1.162,1.505-2.218,3.032-3.312,4.662
	c1.839-0.693,3.601-1.291,5.23-1.871c1.087,1.545,2.261,2.967,3.389,4.454c-0.079-1.749-0.068-3.526-0.092-5.369
	c1.84-0.458,3.532-0.931,5.251-1.282C27.267,79.856,25.559,79.099,23.828,78.411z" class="color c1"/>
  <g>
    <path fill="#DAC781" d="M147.568,292.917c-0.535,1.785-1.092,3.574-1.711,5.358c-0.63-1.784-1.191-3.569-1.782-5.358
		c-1.855,0.02-3.763-0.09-5.667-0.23c1.626-0.938,3.177-1.957,4.651-2.99c-0.523-1.786-0.977-3.6-1.464-5.396
		c1.335,1.14,2.749,2.184,4.242,3.352c1.438-1.15,2.847-2.235,4.177-3.375c-0.479,1.806-0.878,3.604-1.427,5.412
		c1.46,0.929,3.015,1.949,4.692,2.974C151.323,292.801,149.471,292.907,147.568,292.917z" class="color c1"/>
    <path fill="#DAC781" d="M186.125,293.219c-1.18-1.48-2.294-2.984-3.438-4.48c-1.746,0.625-3.586,1.146-5.431,1.637
		c1.229-1.417,2.361-2.891,3.417-4.348c-1.078-1.519-2.101-3.082-3.148-4.621c1.635,0.641,3.313,1.164,5.104,1.779
		c0.981-1.559,1.959-3.045,2.843-4.557c0.139,1.861,0.351,3.692,0.422,5.581c1.685,0.398,3.487,0.855,5.408,1.273
		c-1.805,0.773-3.521,1.48-5.313,2.111C186.066,289.458,186.127,291.33,186.125,293.219z" class="color c1"/>
    <path fill="#DAC781" d="M220.325,278.87c-1.452-1.213-2.849-2.461-4.271-3.696c-1.584,0.964-3.279,1.844-4.988,2.696
		c0.92-1.637,1.73-3.307,2.472-4.946c-1.362-1.271-2.679-2.596-4.015-3.892c1.729,0.297,3.478,0.473,5.357,0.715
		c0.646-1.726,1.305-3.377,1.866-5.036c0.511,1.796,1.087,3.546,1.538,5.382c1.729,0.051,3.588,0.136,5.553,0.158
		c-1.611,1.12-3.15,2.159-4.779,3.139C219.512,275.196,219.947,277.018,220.325,278.87z" class="color c1"/>
    <path fill="#DAC781" d="M252.794,253.988c-1.637-0.95-3.224-1.945-4.831-2.925c-1.4,1.217-2.924,2.37-4.464,3.498
		c0.63-1.768,1.149-3.551,1.603-5.293c-1.557-1.021-3.076-2.106-4.611-3.159c1.754,0.002,3.508-0.119,5.4-0.197
		c0.351-1.81,0.719-3.55,0.992-5.277c0.807,1.684,1.668,3.313,2.422,5.045c1.715-0.24,3.562-0.469,5.502-0.779
		c-1.399,1.377-2.742,2.66-4.184,3.898C251.372,250.504,252.107,252.226,252.794,253.988z" class="color c1"/>
    <path fill="#DAC781" d="M108.844,288.74c-1.144,1.495-2.259,3-3.438,4.479c-0.002-1.89,0.058-3.762,0.136-5.623
		c-1.793-0.631-3.51-1.338-5.314-2.111c1.921-0.418,3.725-0.875,5.408-1.273c0.072-1.888,0.283-3.719,0.422-5.581
		c0.884,1.512,1.86,2.998,2.843,4.557c1.793-0.614,3.471-1.14,5.104-1.778c-1.048,1.539-2.069,3.103-3.148,4.621
		c1.056,1.457,2.188,2.93,3.417,4.347C112.429,289.883,110.59,289.365,108.844,288.74z" class="color c1"/>
    <path fill="#DAC781" d="M80.464,277.87c-1.708-0.854-3.404-1.732-4.988-2.696c-1.422,1.235-2.817,2.483-4.27,3.696
		c0.378-1.853,0.814-3.675,1.266-5.48c-1.629-0.979-3.168-2.019-4.779-3.139c1.965-0.022,3.823-0.107,5.553-0.158
		c0.451-1.836,1.027-3.586,1.538-5.382c0.562,1.659,1.219,3.312,1.866,5.036c1.881-0.242,3.629-0.418,5.358-0.715
		c-1.337,1.296-2.652,2.621-4.015,3.892C78.733,274.564,79.545,276.234,80.464,277.87z" class="color c1"/>
    <path fill="#DAC781" d="M48.032,254.561c-1.54-1.128-3.063-2.281-4.464-3.498c-1.608,0.979-3.194,1.975-4.831,2.925
		c0.686-1.762,1.422-3.482,2.171-5.189c-1.44-1.238-2.783-2.521-4.183-3.898c1.94,0.312,3.787,0.539,5.501,0.779
		c0.754-1.731,1.615-3.361,2.422-5.045c0.273,1.729,0.643,3.469,0.992,5.277c1.894,0.078,3.647,0.199,5.401,0.197
		c-1.535,1.053-3.056,2.139-4.612,3.159C46.883,251.01,47.402,252.793,48.032,254.561z" class="color c1"/>
  </g>
</svg>