<svg version="1.1" id="图层_1" x="0px" y="0px" width="105.682px" height="100.52px" viewBox="0 0 105.682 100.52" enable-background="new 0 0 105.682 100.52" xml:space="preserve" xmlns="http://www.w3.org/2000/svg" xmlns:xlink="http://www.w3.org/1999/xlink" xmlns:xml="http://www.w3.org/XML/1998/namespace">
  <path fill="#003969" d="M105.683,38.348H65.355L52.815,0L40.352,38.348H0l32.683,23.744l-12.523,38.365l32.785-23.82l32.547,23.883
	L72.978,62L105.683,38.348z M73.468,83.885l-0.449-0.33l0.473,0.412l-19.566-9.619l-5.094-2.506l-7.33-3.602l6.113,4.484
	l-15.44,11.221l0.129-0.396l-0.15,0.367l2.635-20.9l0.828-6.578l0.685-5.426l-1.563,4.787L19.39,44.651l-0.012-0.001h0.008
	l-0.006-0.006h0.026l33.813-6.296h-6.246l5.858-18.031l0.013,0.033l-0.004-0.014l10.164,18.638l3.094,5.67l3.283,6.021l-1.969-6.021
	h18.818l-0.26,0.188L71.568,60.127l-4.326,4.594l-4.164,4.42l0.008,0.014l4.533-3.277L73.468,83.885z" class="color c1"/>
</svg>