<svg version="1.1" id="图层_1" x="0px" y="0px" width="13.526px" height="12.324px" viewBox="0 0 13.526 12.324" enable-background="new 0 0 13.526 12.324" xml:space="preserve" xmlns="http://www.w3.org/2000/svg" xmlns:xlink="http://www.w3.org/1999/xlink" xmlns:xml="http://www.w3.org/XML/1998/namespace">
  <path fill="#E5E3E3" d="M13.374,6.364c-1.502-0.62-3.003-1.241-4.506-1.859C8.788,4.473,8.742,4.429,8.71,4.352
	C8.137,2.994,7.563,1.637,6.989,0.281c-0.027-0.064-0.045-0.135-0.085-0.19C6.873,0.048,6.814,0.001,6.768,0
	c-0.047-0.001-0.099,0.049-0.14,0.086c-0.023,0.02-0.029,0.058-0.042,0.089c-0.6,1.414-1.203,2.826-1.796,4.243
	c-0.066,0.158-0.143,0.25-0.323,0.249C4.401,4.666,4.334,4.688,4.268,4.7C2.897,4.935,1.526,5.17,0.155,5.404
	C0.073,5.418,0.012,5.454,0.001,5.54C-0.009,5.621,0.039,5.67,0.11,5.7c0.025,0.01,0.049,0.02,0.073,0.031
	C1.621,6.355,3.06,6.98,4.5,7.602c0.071,0.031,0.11,0.075,0.137,0.144c0.377,0.958,0.756,1.915,1.135,2.872
	c0.208,0.525,0.416,1.049,0.624,1.573c0.051,0.127,0.167,0.172,0.25,0.095c0.033-0.031,0.053-0.079,0.07-0.122
	c0.603-1.6,1.206-3.201,1.806-4.802c0.031-0.082,0.069-0.123,0.162-0.13c0.179-0.014,0.358-0.04,0.537-0.061
	c0.827-0.099,1.654-0.198,2.481-0.297c0.555-0.066,1.11-0.133,1.665-0.198c0.095-0.011,0.15-0.06,0.158-0.148
	C13.519,6.428,13.449,6.395,13.374,6.364z" class="color c1"/>
</svg>