<svg version="1.1" id="图层_1" x="0px" y="0px" width="144.432px" height="54.676px" viewBox="0 0 144.432 54.676" enable-background="new 0 0 144.432 54.676" xml:space="preserve" xmlns="http://www.w3.org/2000/svg" xmlns:xlink="http://www.w3.org/1999/xlink" xmlns:xml="http://www.w3.org/XML/1998/namespace">
  <polygon fill="#1E2371" points="72.216,0 74.468,6.932 81.757,6.932 75.861,11.215 78.113,18.147 72.216,13.864 66.318,18.147 
	68.571,11.215 62.675,6.932 69.963,6.932 " class="color c1"/>
  <polygon fill="#1E2371" points="106.447,9.185 108.277,14.816 114.199,14.816 109.408,18.297 111.238,23.929 106.447,20.449 
	101.656,23.929 103.486,18.297 98.695,14.816 104.617,14.816 " class="color c1"/>
  <polygon fill="#1E2371" points="128.353,26.737 129.601,30.579 133.64,30.579 130.373,32.954 131.621,36.792 128.353,34.418 
	125.085,36.792 126.333,32.954 123.066,30.579 127.105,30.579 " class="color c1"/>
  <polygon fill="#1E2371" points="140.896,47.956 141.73,50.523 144.431,50.523 142.248,52.109 143.082,54.676 140.896,53.09 
	138.712,54.676 139.546,52.109 137.361,50.523 140.062,50.523 " class="color c1"/>
  <polygon fill="#1E2371" points="3.535,47.956 4.369,50.523 7.07,50.523 4.886,52.109 5.72,54.676 3.535,53.09 1.351,54.676 
	2.185,52.109 0,50.523 2.701,50.523 " class="color c1"/>
  <polygon fill="#1E2371" points="16.079,26.737 17.327,30.579 21.366,30.579 18.099,32.954 19.347,36.792 16.079,34.418 
	12.812,36.792 14.06,32.954 10.792,30.579 14.831,30.579 " class="color c1"/>
  <polygon fill="#1E2371" points="37.985,9.185 39.815,14.816 45.737,14.816 40.946,18.297 42.776,23.929 37.985,20.449 
	33.194,23.929 35.024,18.297 30.233,14.816 36.155,14.816 " class="color c1"/>
</svg>