<svg version="1.1" id="图层_1" x="0px" y="0px" width="141.295px" height="80.214px" viewBox="0 0 141.295 80.214" enable-background="new 0 0 141.295 80.214" xml:space="preserve" xmlns="http://www.w3.org/2000/svg" xmlns:xlink="http://www.w3.org/1999/xlink" xmlns:xml="http://www.w3.org/XML/1998/namespace">
  <polygon fill="#222E5B" points="121.871,30.155 119.595,32.137 118.745,35.035 116.763,32.757 113.866,31.91 116.144,29.927 
	116.991,27.029 118.974,29.307 " class="color c1"/>
  <polygon fill="#222E5B" points="141.295,51.435 139.192,52.855 138.188,55.186 136.769,53.083 134.438,52.08 136.54,50.66 
	137.544,48.33 138.964,50.431 " class="color c1"/>
  <polygon fill="#222E5B" points="34.971,45.598 32.497,46.16 30.716,47.968 30.154,45.494 28.347,43.712 30.82,43.151 32.602,41.343 
	33.163,43.817 " class="color c1"/>
  <polygon fill="#222E5B" points="6.358,78.358 3.836,78.626 1.855,80.214 1.587,77.69 0,75.71 2.523,75.442 4.504,73.855 
	4.771,76.378 " class="color c1"/>
  <path fill="#222E5B" d="M106.985,11.176c0.07-0.271,0.156-0.658,0.224-1.121c0.069-0.462,0.126-1,0.153-1.576
	c0.015-0.289,0.021-0.585,0.021-0.887c0.001-0.068-0.001-0.137-0.001-0.205c0.067-0.006,0.136-0.009,0.203-0.016
	c0.302-0.026,0.597-0.061,0.882-0.1c0.571-0.079,1.102-0.182,1.557-0.293c0.455-0.109,0.832-0.228,1.096-0.324
	c0.265-0.092,0.415-0.161,0.415-0.161s-0.157-0.056-0.427-0.124c-0.271-0.072-0.657-0.156-1.119-0.225
	c-0.465-0.071-1.002-0.125-1.578-0.153c-0.288-0.015-0.584-0.022-0.887-0.021c-0.067-0.001-0.137,0-0.205,0.001
	c-0.006-0.069-0.008-0.137-0.016-0.205c-0.023-0.3-0.061-0.595-0.1-0.881c-0.078-0.571-0.182-1.102-0.292-1.558
	c-0.108-0.454-0.228-0.831-0.324-1.095c-0.092-0.264-0.163-0.414-0.163-0.414s-0.056,0.155-0.125,0.426
	c-0.072,0.271-0.156,0.658-0.226,1.121c-0.07,0.462-0.126,1-0.153,1.577c-0.013,0.288-0.023,0.584-0.02,0.886
	c-0.002,0.067,0,0.136,0,0.205c-0.068,0.004-0.137,0.008-0.205,0.015c-0.299,0.024-0.594,0.062-0.879,0.099
	c-0.571,0.079-1.104,0.182-1.558,0.292c-0.454,0.11-0.833,0.229-1.096,0.325c-0.265,0.092-0.415,0.163-0.415,0.163
	s0.156,0.056,0.428,0.125c0.27,0.071,0.657,0.157,1.12,0.226c0.463,0.07,1.001,0.125,1.576,0.153
	c0.289,0.013,0.586,0.023,0.887,0.021c0.067,0,0.138-0.001,0.206-0.002c0.006,0.067,0.008,0.136,0.016,0.203
	c0.025,0.301,0.061,0.596,0.101,0.881c0.079,0.57,0.183,1.102,0.292,1.557s0.229,0.832,0.324,1.097
	c0.091,0.264,0.16,0.413,0.16,0.413S106.917,11.447,106.985,11.176z" class="color c1"/>
  <path fill="#222E5B" d="M36.855,6.279c0.11-0.162,0.259-0.395,0.414-0.683c0.156-0.287,0.32-0.628,0.476-0.999
	c0.077-0.187,0.153-0.38,0.225-0.578c0.017-0.045,0.031-0.09,0.048-0.134c0.045,0.012,0.091,0.026,0.137,0.037
	c0.204,0.055,0.406,0.103,0.604,0.145c0.393,0.084,0.767,0.143,1.092,0.178c0.325,0.036,0.602,0.048,0.797,0.049
	c0.196,0.002,0.311-0.008,0.311-0.008s-0.088-0.073-0.25-0.182c-0.162-0.113-0.395-0.259-0.682-0.415
	c-0.289-0.156-0.628-0.32-0.999-0.475c-0.187-0.079-0.379-0.155-0.578-0.226c-0.044-0.017-0.09-0.032-0.135-0.047
	c0.013-0.047,0.027-0.093,0.039-0.139c0.055-0.203,0.102-0.405,0.144-0.602c0.084-0.395,0.143-0.768,0.179-1.093
	c0.036-0.324,0.048-0.601,0.047-0.796C38.724,0.115,38.713,0,38.713,0s-0.074,0.088-0.184,0.25
	c-0.112,0.161-0.261,0.395-0.416,0.682c-0.155,0.288-0.321,0.627-0.475,0.999c-0.077,0.187-0.155,0.378-0.224,0.578
	c-0.017,0.044-0.032,0.09-0.047,0.135c-0.046-0.014-0.092-0.027-0.138-0.039c-0.204-0.056-0.405-0.101-0.602-0.144
	c-0.394-0.084-0.768-0.144-1.092-0.178c-0.325-0.036-0.601-0.048-0.796-0.047c-0.196-0.002-0.312,0.008-0.312,0.008
	s0.089,0.075,0.251,0.185c0.161,0.111,0.395,0.259,0.682,0.415c0.287,0.156,0.628,0.32,0.999,0.475
	c0.187,0.078,0.379,0.155,0.578,0.225c0.045,0.016,0.091,0.031,0.136,0.047c-0.013,0.045-0.026,0.091-0.038,0.137
	c-0.055,0.204-0.103,0.406-0.145,0.603c-0.084,0.394-0.143,0.767-0.178,1.092c-0.036,0.325-0.047,0.601-0.048,0.797
	c-0.002,0.194,0.007,0.311,0.007,0.311S36.745,6.441,36.855,6.279z" class="color c1"/>
  <path fill="#222E5B" d="M17.316,36.147c0.016-0.195,0.029-0.472,0.021-0.798c-0.007-0.327-0.033-0.704-0.082-1.103
	c-0.025-0.201-0.055-0.406-0.091-0.614c-0.008-0.047-0.018-0.094-0.025-0.141c0.045-0.012,0.092-0.023,0.137-0.036
	c0.204-0.054,0.403-0.112,0.595-0.174c0.384-0.122,0.737-0.256,1.037-0.387c0.301-0.129,0.546-0.257,0.716-0.353
	c0.172-0.096,0.266-0.162,0.266-0.162s-0.113-0.019-0.308-0.034c-0.196-0.018-0.472-0.029-0.798-0.021
	c-0.328,0.007-0.705,0.034-1.103,0.083c-0.201,0.024-0.406,0.054-0.613,0.091c-0.047,0.007-0.094,0.016-0.14,0.026
	c-0.013-0.047-0.023-0.094-0.036-0.14c-0.052-0.203-0.112-0.402-0.173-0.594c-0.122-0.384-0.256-0.737-0.387-1.038
	c-0.129-0.3-0.255-0.546-0.354-0.715c-0.094-0.171-0.162-0.266-0.162-0.266s-0.02,0.114-0.035,0.309
	c-0.018,0.195-0.03,0.472-0.022,0.798c0.007,0.327,0.032,0.704,0.083,1.104c0.026,0.2,0.053,0.405,0.092,0.612
	c0.007,0.047,0.018,0.094,0.026,0.141c-0.047,0.011-0.093,0.022-0.139,0.035c-0.205,0.052-0.402,0.112-0.595,0.173
	c-0.383,0.123-0.738,0.256-1.037,0.387c-0.3,0.129-0.546,0.256-0.715,0.354c-0.171,0.095-0.267,0.161-0.267,0.161
	s0.114,0.021,0.31,0.036c0.194,0.017,0.471,0.03,0.797,0.022c0.327-0.007,0.705-0.033,1.103-0.083
	c0.201-0.024,0.406-0.053,0.613-0.091c0.047-0.008,0.094-0.018,0.142-0.026c0.011,0.045,0.022,0.092,0.035,0.137
	c0.054,0.205,0.112,0.404,0.174,0.595c0.122,0.383,0.256,0.737,0.386,1.037c0.13,0.3,0.257,0.545,0.354,0.716
	c0.094,0.17,0.16,0.265,0.16,0.265S17.301,36.343,17.316,36.147z" class="color c1"/>
</svg>