<svg version="1.1" id="图层_1" x="0px" y="0px" width="137.197px" height="137.41px" viewBox="0 0 137.197 137.41" enable-background="new 0 0 137.197 137.41" xml:space="preserve" xmlns="http://www.w3.org/2000/svg" xmlns:xlink="http://www.w3.org/1999/xlink" xmlns:xml="http://www.w3.org/XML/1998/namespace">
  <path fill="#FFFFFF" d="M59.675,135.42c0-0.051,0-0.102,0-0.152c0,0.074,0.002,0.147,0,0.221
	C59.675,135.466,59.675,135.443,59.675,135.42z" class="color c1"/>
  <circle fill="#FFFFFF" cx="5.268" cy="115.703" r="1.055" class="color c1"/>
  <circle fill="#FFFFFF" cx="7.586" cy="90.623" r="2.318" class="color c1"/>
  <circle fill="#FFFFFF" cx="58.799" cy="99.263" r="1.265" class="color c1"/>
  <circle fill="#FFFFFF" cx="1.686" cy="60.275" r="1.686" class="color c1"/>
  <path fill="#FFFFFF" d="M84.299,136.566c0,0.467,0.378,0.844,0.844,0.844s0.842-0.377,0.842-0.844c0-0.463-0.376-0.842-0.842-0.842
	S84.299,136.103,84.299,136.566z" class="color c1"/>
  <polygon fill="#FFFFFF" points="21.917,95.049 21.074,104.953 11.169,105.796 21.074,106.64 21.917,116.544 22.76,106.64 
	32.666,105.796 22.76,104.953 " class="color c1"/>
  <polygon fill="#FFFFFF" points="65.332,120.548 64.7,126.453 58.799,126.873 64.7,127.505 65.332,133.406 65.754,127.505 
	71.654,126.873 65.754,126.453 " class="color c1"/>
  <circle fill="#2A88AE" cx="24.446" cy="42.782" r="1.053" class="color c2"/>
  <circle fill="#2A88AE" cx="44.257" cy="54.163" r="2.318" class="color c2"/>
  <circle fill="#2A88AE" cx="83.667" cy="95.471" r="0.843" class="color c2"/>
  <circle fill="#2A88AE" cx="102.424" cy="91.466" r="1.897" class="color c2"/>
  <circle fill="#2A88AE" cx="133.825" cy="66.387" r="1.687" class="color c2"/>
  <polygon fill="#2A88AE" points="131.508,94.838 131.086,99.896 126.027,100.316 131.086,100.949 131.508,106.007 131.929,100.949 
	137.197,100.316 131.929,99.896 " class="color c2"/>
  <polygon fill="#2A88AE" points="44.467,0 43.203,15.384 27.818,16.648 43.203,17.914 44.467,33.298 45.943,17.914 61.117,16.648 
	45.943,15.384 " class="color c2"/>
</svg>