<svg version="1.1" id="图层_1" x="0px" y="0px" width="82.535px" height="18px" viewBox="0 0 82.535 18" enable-background="new 0 0 82.535 18" xml:space="preserve" xmlns="http://www.w3.org/2000/svg" xmlns:xlink="http://www.w3.org/1999/xlink" xmlns:xml="http://www.w3.org/XML/1998/namespace">
  <polygon fill="#161616" points="44.49,8.711 42.238,4.152 39.99,8.711 34.959,9.441 38.602,12.99 37.741,18 42.238,15.635 
	46.738,18 45.881,12.99 49.518,9.441 " class="color c1"/>
  <polygon fill="#161616" points="64.51,8.576 63.008,5.537 61.508,8.576 58.154,9.063 60.582,11.43 60.01,14.77 63.008,13.191 
	66.008,14.77 65.436,11.43 67.861,9.063 " class="color c1"/>
  <polygon fill="#161616" points="22.971,8.576 21.469,5.537 19.971,8.576 16.615,9.063 19.045,11.43 18.471,14.77 21.469,13.191 
	24.469,14.77 23.896,11.43 26.322,9.063 " class="color c1"/>
  <polygon fill="#161616" points="82.535,2.819 79.854,2.431 78.652,0 77.453,2.431 74.77,2.819 76.713,4.713 76.254,7.383 
	78.652,6.123 81.053,7.383 80.596,4.713 " class="color c1"/>
  <polygon fill="#161616" points="5.084,2.431 3.883,0 2.684,2.431 0,2.819 1.943,4.713 1.484,7.383 3.883,6.123 6.283,7.383 
	5.825,4.713 7.766,2.819 " class="color c1"/>
</svg>