<svg version="1.1" id="图层_1" x="0px" y="0px" width="273.104px" height="273.678px" viewBox="0 0 273.104 273.678" enable-background="new 0 0 273.104 273.678" xml:space="preserve" xmlns="http://www.w3.org/2000/svg" xmlns:xlink="http://www.w3.org/1999/xlink" xmlns:xml="http://www.w3.org/XML/1998/namespace">
  <polygon fill="#FECB2E" points="121.715,268.584 118.629,265.288 121.029,260.94 120.368,261.25 120.722,260.608 116.223,262.713 
	112.829,259.086 113.442,264.016 108.942,266.124 109.666,266.263 109.25,266.458 113.856,267.344 114.435,271.995 114.651,271.602 
	114.742,272.327 117.144,267.977 122.022,268.918 121.708,268.583 " class="color c1"/>
  <polygon fill="#FECB2E" points="156.393,267.926 152.897,265.749 154.06,261.053 153.008,261.939 153.37,260.477 149.569,263.676 
	145.351,261.051 147.22,265.655 143.419,268.854 144.92,268.747 144.109,269.43 148.621,269.107 150.243,273.104 150.417,272.404 
	150.934,273.678 152.127,268.856 157.083,268.5 156.185,267.941 " class="color c1"/>
  <polygon fill="#FECB2E" points="243.189,57.796 240.404,53.682 240.239,58.647 235.465,60.024 240.137,61.716 239.972,66.682 
	243.024,62.762 247.696,64.453 244.911,60.339 247.963,56.419 " class="color c1"/>
  <polygon fill="#FECB2E" points="223.427,30.313 219.172,32.88 215.417,29.626 216.543,34.466 212.288,37.031 217.238,37.456 
	218.364,42.296 220.298,37.719 225.248,38.144 221.493,34.891 " class="color c1"/>
  <polygon fill="#FECB2E" points="192.97,11.449 189.525,15.028 185.056,12.857 187.396,17.241 183.95,20.82 188.841,19.95 
	191.181,24.333 191.864,19.411 196.756,18.541 192.287,16.37 " class="color c1"/>
  <polygon fill="#FECB2E" points="159.282,6.04 158.669,1.109 156.267,5.459 151.389,4.519 154.783,8.146 152.381,12.496 
	156.881,10.39 160.275,14.018 159.662,9.087 164.161,6.979 " class="color c1"/>
  <polygon fill="#FECB2E" points="124.729,4.604 122.86,0 121.666,4.823 116.71,5.178 120.928,7.804 119.734,12.626 123.535,9.427 
	127.752,12.053 125.884,7.449 129.685,4.249 " class="color c1"/>
  <polygon fill="#FECB2E" points="95.676,10.534 90.981,12.16 87.984,8.196 88.079,13.164 83.384,14.789 88.138,16.234 88.233,21.202 
	91.076,17.127 95.83,18.573 92.833,14.609 " class="color c1"/>
  <polygon fill="#FECB2E" points="64.453,25.408 60.339,28.192 56.419,25.141 57.796,29.914 53.682,32.699 58.647,32.865 
	60.024,37.638 61.716,32.967 66.682,33.132 62.762,30.079 " class="color c1"/>
  <polygon fill="#FECB2E" points="38.144,47.855 34.891,51.61 30.314,49.677 32.88,53.931 29.626,57.687 34.465,56.561 37.031,60.815 
	37.456,55.865 42.295,54.74 37.719,52.806 " class="color c1"/>
  <polygon fill="#FECB2E" points="18.541,76.348 16.37,80.816 11.449,80.133 15.028,83.579 12.857,88.048 17.241,85.708 20.82,89.153 
	19.95,84.263 24.333,81.923 19.412,81.24 " class="color c1"/>
  <polygon fill="#FECB2E" points="4.519,121.715 8.147,118.32 12.496,120.723 10.389,116.223 14.018,112.828 9.087,113.442 
	6.98,108.942 6.04,113.821 1.109,114.435 5.459,116.836 " class="color c1"/>
  <polygon fill="#FECB2E" points="9.427,149.569 12.053,145.351 7.449,147.22 4.249,143.419 4.604,148.375 0,150.243 4.823,151.438 
	5.178,156.394 7.804,152.176 12.626,153.369 " class="color c1"/>
  <polygon fill="#FECB2E" points="18.572,177.274 14.609,180.271 10.535,177.427 12.16,182.122 8.197,185.119 13.164,185.024 
	14.79,189.72 16.234,184.966 21.202,184.871 17.127,182.027 " class="color c1"/>
  <polygon fill="#FECB2E" points="33.132,206.422 30.08,210.342 25.408,208.65 28.193,212.765 25.14,216.685 29.914,215.308 
	32.699,219.422 32.864,214.456 37.638,213.079 32.967,211.388 " class="color c1"/>
  <polygon fill="#FECB2E" points="55.865,235.647 54.74,230.808 52.806,235.385 47.855,234.96 51.61,238.213 49.677,242.79 
	53.931,240.224 57.686,243.478 56.561,238.638 60.815,236.073 " class="color c1"/>
  <polygon fill="#FECB2E" points="84.262,253.153 81.922,248.771 81.239,253.692 76.348,254.563 80.816,256.733 80.133,261.655 
	83.579,258.075 88.048,260.247 85.708,255.862 89.154,252.283 " class="color c1"/>
  <polygon fill="#FECB2E" points="184.965,256.869 184.871,251.901 182.028,255.977 177.274,254.531 180.271,258.494 177.427,262.569 
	182.123,260.944 185.119,264.907 185.024,259.94 189.719,258.314 " class="color c1"/>
  <polygon fill="#FECB2E" points="214.457,240.24 213.079,235.466 211.387,240.137 206.422,239.972 210.342,243.024 208.65,247.695 
	212.765,244.911 216.685,247.963 215.308,243.189 219.422,240.404 " class="color c1"/>
  <polygon fill="#FECB2E" points="238.638,216.543 236.072,212.288 235.647,217.238 230.808,218.365 235.385,220.298 234.959,225.248 
	238.213,221.493 242.79,223.427 240.224,219.173 243.478,215.417 " class="color c1"/>
  <polygon fill="#FECB2E" points="260.246,185.056 255.863,187.396 252.283,183.95 253.154,188.841 248.771,191.181 253.692,191.865 
	254.563,196.756 256.733,192.287 261.655,192.971 258.075,189.524 " class="color c1"/>
  <polygon fill="#FECB2E" points="268.585,151.389 264.957,154.783 260.607,152.381 262.714,156.881 259.086,160.275 264.017,159.661 
	266.124,164.161 267.063,159.282 271.994,158.669 267.645,156.268 " class="color c1"/>
  <polygon fill="#FECB2E" points="263.677,123.535 261.051,127.753 265.654,125.884 268.854,129.685 268.5,124.729 273.104,122.86 
	268.281,121.666 267.926,116.71 265.3,120.928 260.477,119.734 " class="color c1"/>
  <polygon fill="#FECB2E" points="254.531,95.829 258.494,92.833 262.569,95.677 260.944,90.981 264.907,87.984 259.939,88.079 
	258.314,83.384 256.869,88.138 251.902,88.232 255.976,91.076 " class="color c1"/>
</svg>