<svg version="1.1" id="图层_1" x="0px" y="0px" width="166.715px" height="125.652px" viewBox="0 0 166.715 125.652" enable-background="new 0 0 166.715 125.652" xml:space="preserve" xmlns="http://www.w3.org/2000/svg" xmlns:xlink="http://www.w3.org/1999/xlink" xmlns:xml="http://www.w3.org/XML/1998/namespace">
  <path fill="#0F6FC1" d="M8.246,4.035" class="color c1"/>
  <path fill="#0F6FC1" d="M9.299,3.16" class="color c1"/>
  <path fill="#0F6FC1" d="M164.961,26.676h-2.631v-2.633c0-0.877-0.703-1.756-1.756-1.756c-0.877,0-1.754,0.703-1.754,1.756v2.633
	h-2.633c-0.879,0-1.756,0.701-1.756,1.754c0,0.877,0.703,1.756,1.756,1.756h2.633v2.633c0,0.877,0.701,1.754,1.754,1.754
	c0.879,0,1.756-0.701,1.756-1.754v-2.633h2.631c0.877,0,1.754-0.703,1.754-1.756C166.541,27.377,165.838,26.676,164.961,26.676z" class="color c1"/>
  <path fill="#0F6FC1" d="M22.111,94.59h-2.633v-2.631c0-0.879-0.703-1.756-1.756-1.756c-0.877,0-1.756,0.703-1.756,1.756v2.631
	h-2.455c-0.877,0-1.756,0.703-1.756,1.756s0.703,1.754,1.756,1.754h2.631v2.633c0,0.877,0.703,1.754,1.756,1.754
	c0.877,0,1.754-0.701,1.754-1.754V98.1h2.633c0.879,0,1.756-0.701,1.756-1.754S23.164,94.59,22.111,94.59z" class="color c1"/>
  <path fill="#0F6FC1" d="M18.6,8.951h-4.385V4.563c0-1.229-1.053-2.455-2.459-2.455c-1.227,0-2.457,1.053-2.457,2.455v4.389H5.088
	c-1.23,0-2.457,1.053-2.457,2.455c0,1.23,1.053,2.457,2.457,2.457h4.389v4.387c0,1.23,1.053,2.459,2.455,2.459
	c1.23,0,2.457-1.053,2.457-2.459v-4.387h4.387c1.23,0,2.457-1.053,2.457-2.457C21.059,10.004,20.006,8.951,18.6,8.951z" class="color c1"/>
  <circle fill="#0F6FC1" cx="3.158" cy="57.386" r="3.159" class="color c1"/>
  <circle fill="#0F6FC1" cx="148.99" cy="122.493" r="3.159" class="color c1"/>
  <circle fill="#0F6FC1" cx="146.359" cy="3.86" r="3.86" class="color c1"/>
</svg>