<svg version="1.1" id="图层_1" x="0px" y="0px" width="162.982px" height="91.318px" viewBox="0 0 162.982 91.318" enable-background="new 0 0 162.982 91.318" xml:space="preserve" xmlns="http://www.w3.org/2000/svg" xmlns:xlink="http://www.w3.org/1999/xlink" xmlns:xml="http://www.w3.org/XML/1998/namespace">
  <g>
    <path fill="#19283F" d="M5.93,66.902c-1.637,0-2.965,1.326-2.965,2.965c0-1.639-1.328-2.965-2.965-2.965
		c1.637,0,2.965-1.328,2.965-2.967C2.965,65.574,4.293,66.902,5.93,66.902z" class="color c1"/>
    <path fill="#19283F" d="M102.275,2.967c-1.637,0-2.965,1.326-2.965,2.965c0-1.639-1.328-2.965-2.965-2.965
		c1.637,0,2.965-1.328,2.965-2.967C99.311,1.639,100.639,2.967,102.275,2.967z" class="color c1"/>
    <path fill="#19283F" d="M153.66,88.354c-1.637,0-2.965,1.328-2.965,2.965c0-1.637-1.328-2.965-2.965-2.965
		c1.637,0,2.965-1.326,2.965-2.965C150.695,87.027,152.023,88.354,153.66,88.354z" class="color c1"/>
    <path fill="#19283F" d="M162.982,74.119c-2.572,0-4.66,2.088-4.66,4.662c0-2.574-2.088-4.662-4.662-4.662
		c2.574,0,4.662-2.086,4.662-4.66C158.322,72.033,160.41,74.119,162.982,74.119z" class="color c1"/>
    <path fill="#19283F" d="M16.656,62.24c0-2.574,2.088-4.662,4.662-4.662c-2.574,0-4.662-2.086-4.662-4.66
		c0,2.574-2.086,4.66-4.66,4.66C14.57,57.578,16.656,59.666,16.656,62.24z" class="color c1"/>
    <path fill="#19283F" d="M9.752,82.812c0-2.574,2.086-4.662,4.66-4.662c-2.574,0-4.66-2.086-4.66-4.66
		c0,2.574-2.088,4.66-4.662,4.66C7.664,78.15,9.752,80.238,9.752,82.812z" class="color c1"/>
  </g>
</svg>