<svg version="1.1" id="图层_1" x="0px" y="0px" width="132.809px" height="102.445px" viewBox="0 0 132.809 102.445" enable-background="new 0 0 132.809 102.445" xml:space="preserve" xmlns="http://www.w3.org/2000/svg" xmlns:xlink="http://www.w3.org/1999/xlink" xmlns:xml="http://www.w3.org/XML/1998/namespace">
  <g>
    <polygon fill="#DBD8B4" points="95.199,36.039 100.728,37.689 102.235,43.29 103.833,37.708 107.698,36.63 109.235,36.2 
		106.648,35.313 103.69,34.297 102.809,30.916 102.272,28.858 101.978,30.044 100.943,34.207 	" class="color c1"/>
    <polygon fill="#DBD8B4" points="37.219,10.594 38.392,6.496 42.097,5.462 42.356,5.389 38.287,3.992 37.246,0 36.271,3.926 
		32.054,5.271 34.479,5.996 36.111,6.482 	" class="color c1"/>
    <polygon fill="#DBD8B4" points="77.688,51.683 78.534,48.726 82.499,47.618 78.428,46.222 77.389,42.229 76.413,46.155 
		72.195,47.5 76.254,48.712 77.137,51.992 77.361,52.824 	" class="color c1"/>
    <polygon fill="#DBD8B4" points="128.738,95.844 127.697,91.852 126.722,95.777 123.998,96.646 122.504,97.122 123.874,97.531 
		126.563,98.334 127.67,102.445 128.843,98.348 132.809,97.24 	" class="color c1"/>
    <circle fill="#DBD8B4" cx="2.489" cy="31.116" r="2.489" class="color c1"/>
  </g>
</svg>