<svg version="1.1" id="图层_1" x="0px" y="0px" width="42.876px" height="46.472px" viewBox="0 0 42.876 46.472" enable-background="new 0 0 42.876 46.472" xml:space="preserve" xmlns="http://www.w3.org/2000/svg" xmlns:xlink="http://www.w3.org/1999/xlink" xmlns:xml="http://www.w3.org/XML/1998/namespace">
  <path fill="#ED7B22" d="M12.14,28.228l7.496-5.986l-2.547,9.254l8.02,5.282l-9.589,0.433l-2.546,9.261l-3.379-8.985L0,37.924
	l7.505-5.985L4.12,22.953L12.14,28.228z M19.351,0l-1.67,5.927l-6.153,0.234l5.12,3.421l-1.672,5.923l4.838-3.811l5.119,3.419
	l-2.135-5.776l4.834-3.803l-6.148,0.237L19.351,0z M36.158,20.502l-4.152-1.685l2.368,3.805l-2.893,3.427l4.353-1.077l2.37,3.807
	l0.32-4.471l4.352-1.074l-4.152-1.685l0.322-4.475L36.158,20.502z" class="color c1"/>
</svg>