<svg version="1.1" id="图层_1" x="0px" y="0px" width="83.403px" height="125.377px" viewBox="0 0 83.403 125.377" enable-background="new 0 0 83.403 125.377" xml:space="preserve" xmlns="http://www.w3.org/2000/svg" xmlns:xlink="http://www.w3.org/1999/xlink" xmlns:xml="http://www.w3.org/XML/1998/namespace">
  <path fill="#E52311" d="M8.568,70.311l-3.17-1.084l-2.635,2.171l-0.013-3.55L0,65.846l3.162-1.11l0.935-3.408l1.967,2.864
	l3.328-0.105l-1.946,2.88L8.568,70.311z M10.908,86.425l-2.05,2.797l-3.323-0.215l1.861,2.943l-1.218,3.304l3.201-0.978l2.57,2.257
	l0.117-3.548l2.807-1.909l-3.128-1.215L10.908,86.425z M21.349,2.934L19.334,0l-0.958,3.491l-3.239,1.137l2.817,2.05l0.014,3.637
	l2.699-2.223l3.247,1.11l-1.149-3.424l1.994-2.951L21.349,2.934z M80.409,118.957l-0.761-3.317l-2.006,2.662l-3.194-0.253
	l1.754,2.857l-1.212,3.161l3.091-0.896l2.444,2.206l0.156-3.411l2.723-1.797L80.409,118.957z M76.513,16.032l2.706-1.747
	l-2.946-1.228l-0.721-3.284l-2.006,2.608l-3.152-0.283l1.706,2.84l-1.226,3.109l3.061-0.853l2.393,2.205L76.513,16.032z" class="color c1"/>
</svg>