<svg version="1.1" id="图层_1" x="0px" y="0px" width="250.066px" height="97.66px" viewBox="0 0 250.066 97.66" enable-background="new 0 0 250.066 97.66" xml:space="preserve" xmlns="http://www.w3.org/2000/svg" xmlns:xlink="http://www.w3.org/1999/xlink" xmlns:xml="http://www.w3.org/XML/1998/namespace">
  <polygon fill="#15524D" points="217.39,22.185 213.65,19.664 209.454,21.314 210.695,16.979 207.829,13.499 212.335,13.34 
	214.761,9.538 216.305,13.775 220.671,14.906 217.115,17.685 " class="color c1"/>
  <polygon fill="#15524D" points="9.561,97.66 5.821,95.139 1.624,96.791 2.865,92.455 0,88.973 4.506,88.815 6.932,85.012 
	8.476,89.25 12.841,90.38 9.286,93.16 " class="color c1"/>
  <polygon fill="#15524D" points="22.619,52.757 18.878,50.235 14.683,51.887 15.925,47.551 13.058,44.07 17.563,43.912 19.99,40.11 
	21.532,44.348 25.898,45.478 22.345,48.256 " class="color c1"/>
  <polygon fill="#15524D" points="60.742,11.998 56.793,9.997 52.905,12.116 53.588,7.742 50.373,4.7 54.742,4 56.643,0 58.662,3.94 
	63.049,4.51 59.928,7.646 " class="color c1"/>
  <polygon fill="#15524D" points="57.921,46.014 55.208,44.639 52.537,46.096 53.008,43.091 50.799,41.001 53.8,40.52 55.104,37.771 
	56.492,40.478 59.505,40.869 57.36,43.025 " class="color c1"/>
  <polygon fill="#15524D" points="245.514,63.514 242.802,62.141 240.131,63.598 240.6,60.591 238.392,58.501 241.394,58.02 
	242.697,55.274 244.084,57.979 247.099,58.373 244.953,60.528 " class="color c1"/>
  <polygon fill="#15524D" points="248.48,96.583 245.769,95.21 243.099,96.667 243.567,93.664 241.359,91.571 244.361,91.089 
	245.665,88.343 247.052,91.046 250.066,91.44 247.921,93.596 " class="color c1"/>
</svg>