<svg version="1.1" id="图层_1" x="0px" y="0px" width="148.613px" height="54.171px" viewBox="0 0 148.613 54.171" enable-background="new 0 0 148.613 54.171" xml:space="preserve" xmlns="http://www.w3.org/2000/svg" xmlns:xlink="http://www.w3.org/1999/xlink" xmlns:xml="http://www.w3.org/XML/1998/namespace">
  <path fill="#FFFFFF" d="M36.923,8.213c-0.039,1.54-0.19,3.035-0.367,4.197c-0.212,1.381-0.493,2.299-0.493,2.299
	s-0.281-0.918-0.493-2.299c-0.177-1.162-0.329-2.657-0.367-4.198c-1.446-0.042-2.845-0.195-3.937-0.369
	c-1.309-0.209-2.18-0.49-2.18-0.49s0.871-0.281,2.18-0.489c1.092-0.175,2.49-0.327,3.937-0.37c0.04-1.541,0.194-3.033,0.367-4.194
	C35.782,0.918,36.063,0,36.063,0s0.281,0.918,0.493,2.299c0.173,1.161,0.327,2.653,0.367,4.194c1.443,0.042,2.841,0.192,3.934,0.367
	c1.306,0.211,2.179,0.492,2.179,0.492s-0.873,0.281-2.179,0.494C39.764,8.021,38.366,8.172,36.923,8.213z M29.941,33.549
	c-0.056-0.971-0.201-1.897-0.36-2.633c-0.213-0.952-0.494-1.586-0.494-1.586s-0.28,0.634-0.493,1.586
	c-0.16,0.735-0.306,1.662-0.359,2.633c-0.905,0.056-1.767,0.202-2.454,0.362c-0.9,0.209-1.504,0.489-1.504,0.489
	s0.604,0.281,1.504,0.49c0.687,0.159,1.549,0.305,2.453,0.361c0.053,0.97,0.199,1.897,0.36,2.633
	c0.212,0.952,0.493,1.587,0.493,1.587s0.281-0.635,0.494-1.587c0.162-0.735,0.307-1.663,0.36-2.632
	c0.902-0.057,1.766-0.2,2.453-0.359c0.901-0.212,1.503-0.493,1.503-0.493s-0.603-0.28-1.503-0.493
	C31.707,33.747,30.843,33.604,29.941,33.549z M148.613,22.571c0,0-0.78-0.281-1.952-0.494c-0.956-0.17-2.177-0.318-3.442-0.364
	c-0.044-1.353-0.195-2.657-0.369-3.678c-0.209-1.233-0.489-2.06-0.489-2.06s-0.28,0.826-0.49,2.06
	c-0.173,1.021-0.323,2.325-0.368,3.679c-1.266,0.046-2.485,0.196-3.441,0.363c-1.172,0.213-1.953,0.494-1.953,0.494
	s0.781,0.281,1.953,0.493c0.956,0.168,2.176,0.317,3.44,0.364c0.044,1.35,0.194,2.654,0.366,3.675
	c0.209,1.237,0.493,2.061,0.493,2.061s0.284-0.823,0.493-2.061c0.173-1.021,0.322-2.324,0.365-3.675
	c1.266-0.046,2.486-0.194,3.442-0.364C147.833,22.853,148.613,22.571,148.613,22.571z M5.839,33.365
	c-0.052-1.017-0.2-1.991-0.363-2.765c-0.209-0.982-0.49-1.641-0.49-1.641s-0.281,0.658-0.49,1.641
	c-0.163,0.773-0.312,1.749-0.364,2.766c-0.947,0.055-1.852,0.201-2.572,0.359C0.624,33.938,0,34.219,0,34.219
	s0.624,0.281,1.559,0.494c0.721,0.158,1.625,0.304,2.572,0.359c0.053,1.015,0.197,1.987,0.36,2.758
	c0.209,0.983,0.494,1.642,0.494,1.642s0.284-0.658,0.493-1.642c0.164-0.771,0.309-1.743,0.36-2.758
	c0.948-0.054,1.852-0.198,2.573-0.359c0.935-0.213,1.559-0.494,1.559-0.494s-0.624-0.28-1.559-0.493
	C7.691,33.565,6.787,33.421,5.839,33.365z M124.232,49.695c-0.066-0.622-0.197-1.211-0.343-1.689
	c-0.209-0.685-0.49-1.141-0.49-1.141s-0.28,0.456-0.489,1.141c-0.146,0.479-0.277,1.068-0.344,1.69
	c-0.568,0.067-1.107,0.192-1.547,0.332c-0.652,0.212-1.084,0.493-1.084,0.493s0.432,0.28,1.084,0.493
	c0.439,0.139,0.979,0.265,1.547,0.332c0.066,0.619,0.195,1.206,0.34,1.683c0.209,0.685,0.493,1.142,0.493,1.142
	s0.285-0.457,0.494-1.142c0.145-0.476,0.274-1.063,0.339-1.682c0.568-0.066,1.107-0.192,1.549-0.333
	c0.65-0.213,1.082-0.493,1.082-0.493s-0.432-0.281-1.082-0.493C125.34,49.887,124.801,49.762,124.232,49.695z" class="color c1"/>
</svg>