<svg version="1.1" id="图层_1" x="0px" y="0px" width="500.189px" height="203.781px" viewBox="0 0 500.189 203.781" enable-background="new 0 0 500.189 203.781" xml:space="preserve" xmlns="http://www.w3.org/2000/svg" xmlns:xlink="http://www.w3.org/1999/xlink" xmlns:xml="http://www.w3.org/XML/1998/namespace">
  <path fill="#FFFFFF" d="M424.196,38.563l2.836,5.671l6.237,0.756l-4.536,4.537l1.134,6.049l-5.671-2.834l-5.481,2.834l1.134-6.049
	l-4.536-4.537l6.237-0.756L424.196,38.563z M291.871,65.029l2.836,5.67l6.238,0.756l-4.537,4.537l1.135,6.049l-5.672-2.836
	l-5.481,2.836l1.135-6.049l-4.537-4.537l6.238-0.756L291.871,65.029z M111.72,107.184l2.835,5.671l6.238,0.945l-4.537,4.348
	l0.945,6.238l-5.482-3.024l-5.482,3.024l0.945-6.238l-4.537-4.348l6.238-0.945L111.72,107.184z M313.61,17.58
	c1.88,0,3.402,1.523,3.402,3.403s-1.522,3.402-3.402,3.402c-1.879,0-3.402-1.522-3.402-3.402S311.731,17.58,313.61,17.58z
	 M3.403,196.598c1.879,0,3.402,1.523,3.402,3.402s-1.523,3.402-3.402,3.402C1.524,203.402,0,201.879,0,200
	S1.523,196.598,3.403,196.598z M391.305,120.416c2.505,0,4.536,2.031,4.536,4.537s-2.031,4.537-4.536,4.537
	c-2.506,0-4.537-2.031-4.537-4.537S388.799,120.416,391.305,120.416z M35.917,78.828c2.505,0,4.537,2.031,4.537,4.537
	s-2.031,4.537-4.537,4.537s-4.537-2.031-4.537-4.537S33.411,78.828,35.917,78.828z M495.652,194.707
	c2.506,0,4.537,2.031,4.537,4.537s-2.031,4.537-4.537,4.537s-4.537-2.031-4.537-4.537S493.146,194.707,495.652,194.707z M227.221,0
	c2.505,0,4.537,2.031,4.537,4.537s-2.031,4.537-4.537,4.537c-2.506,0-4.537-2.031-4.537-4.537S224.715,0,227.221,0z M91.683,17.014
	c1.879,0,3.402,1.523,3.402,3.402s-1.523,3.402-3.402,3.402s-3.403-1.523-3.403-3.402S89.803,17.014,91.683,17.014z" class="color c1"/>
</svg>