<svg version="1.1" id="图层_1" x="0px" y="0px" width="45.875px" height="99.479px" viewBox="0 0 45.875 99.479" enable-background="new 0 0 45.875 99.479" xml:space="preserve" xmlns="http://www.w3.org/2000/svg" xmlns:xlink="http://www.w3.org/1999/xlink" xmlns:xml="http://www.w3.org/XML/1998/namespace">
  <path fill="#FFFFFF" d="M43.289,8.238c-1.407-0.134-3.242-0.222-5.115-0.24c-0.02-1.946-0.109-3.855-0.244-5.318
	C37.791,1.071,37.596,0,37.596,0s-0.195,1.071-0.334,2.68c-0.133,1.463-0.224,3.372-0.242,5.318
	c-1.871,0.02-3.707,0.108-5.115,0.243c-1.553,0.137-2.586,0.333-2.586,0.333s1.033,0.196,2.586,0.334
	c1.408,0.134,3.244,0.224,5.115,0.243c0.019,1.945,0.105,3.854,0.242,5.315c0.139,1.605,0.334,2.679,0.334,2.679
	s0.197-1.072,0.336-2.679c0.135-1.463,0.223-3.37,0.242-5.315c1.873-0.021,3.708-0.107,5.115-0.242
	c1.553-0.138,2.586-0.335,2.586-0.335S44.842,8.378,43.289,8.238z" class="color c1"/>
  <path fill="#FFFFFF" d="M8.855,90.329c-0.019-1.945-0.109-3.854-0.242-5.318c-0.141-1.606-0.336-2.68-0.336-2.68
	s-0.193,1.072-0.334,2.68c-0.133,1.464-0.223,3.373-0.242,5.318c-1.871,0.021-3.705,0.107-5.113,0.242
	C1.035,90.71,0,90.905,0,90.905s1.035,0.195,2.588,0.334c1.408,0.135,3.242,0.225,5.113,0.242c0.02,1.944,0.107,3.854,0.242,5.315
	c0.139,1.607,0.334,2.681,0.334,2.681s0.197-1.072,0.336-2.681c0.137-1.461,0.225-3.369,0.243-5.315
	c1.873-0.019,3.707-0.105,5.114-0.24c1.553-0.139,2.588-0.336,2.588-0.336s-1.035-0.197-2.588-0.336
	C12.563,90.437,10.729,90.349,8.855,90.329z" class="color c1"/>
</svg>