<svg version="1.1" id="图层_1" x="0px" y="0px" width="168.056px" height="114.164px" viewBox="0 0 168.056 114.164" enable-background="new 0 0 168.056 114.164" xml:space="preserve" xmlns:xml="http://www.w3.org/XML/1998/namespace" xmlns="http://www.w3.org/2000/svg" xmlns:xlink="http://www.w3.org/1999/xlink">
  <path fill="#FFFFFF" d="M25.28,40.463l2.07,0.468c0.34,0.093,0.34,0.575,0,0.669l-2.07,0.468c-0.174,0.042-0.311,0.163-0.358,0.317
	l-0.568,2.212c-0.094,0.34-0.575,0.34-0.669,0l-0.569-2.212c-0.047-0.154-0.184-0.275-0.357-0.317L20.686,41.6
	c-0.339-0.094-0.339-0.576,0-0.669l2.071-0.468c0.174-0.043,0.31-0.163,0.357-0.318l0.569-2.211c0.093-0.341,0.575-0.341,0.668,0
	l0.569,2.211C24.969,40.3,25.106,40.421,25.28,40.463z M69.525,29.011l-0.608-2.363c-0.1-0.363-0.614-0.363-0.714,0l-0.608,2.363
	c-0.051,0.165-0.196,0.294-0.383,0.339l-2.212,0.501c-0.363,0.099-0.363,0.614,0,0.714l2.213,0.5
	c0.186,0.046,0.331,0.175,0.382,0.34l0.608,2.363c0.1,0.363,0.614,0.363,0.714,0l0.608-2.363c0.051-0.165,0.196-0.294,0.383-0.34
	l2.213-0.5c0.362-0.1,0.362-0.615,0-0.714l-2.213-0.5C69.721,29.305,69.576,29.176,69.525,29.011z M48.029,3.782l-0.872-3.391
	c-0.144-0.521-0.882-0.521-1.025,0l-0.872,3.391c-0.073,0.237-0.282,0.422-0.549,0.487l-3.175,0.718
	c-0.521,0.143-0.521,0.882,0,1.025l3.175,0.717c0.267,0.065,0.476,0.251,0.549,0.487l0.872,3.392c0.143,0.521,0.883,0.521,1.025,0
	l0.872-3.392c0.074-0.236,0.282-0.422,0.55-0.487l3.175-0.717c0.52-0.143,0.52-0.883,0-1.025L48.579,4.27
	C48.311,4.205,48.103,4.019,48.029,3.782z M114.874,2.764l-0.456-1.775c-0.075-0.272-0.462-0.272-0.536,0l-0.457,1.775
	c-0.038,0.124-0.147,0.221-0.287,0.255l-1.662,0.376c-0.272,0.074-0.272,0.461,0,0.536l1.662,0.375
	c0.14,0.034,0.249,0.132,0.287,0.256l0.457,1.774c0.074,0.273,0.461,0.273,0.536,0l0.456-1.774c0.039-0.124,0.148-0.222,0.288-0.256
	l1.661-0.375c0.272-0.075,0.272-0.462,0-0.536l-1.661-0.375C115.022,2.985,114.913,2.888,114.874,2.764z M163.941,74.158
	l-0.872-3.391c-0.144-0.521-0.882-0.521-1.025,0l-0.872,3.391c-0.073,0.236-0.282,0.422-0.549,0.486l-3.175,0.719
	c-0.52,0.143-0.52,0.881,0,1.025l3.175,0.717c0.267,0.064,0.476,0.25,0.549,0.486l0.872,3.393c0.143,0.521,0.883,0.521,1.025,0
	l0.872-3.393c0.074-0.236,0.282-0.422,0.55-0.486l3.175-0.717c0.52-0.145,0.52-0.883,0-1.025l-3.175-0.717
	C164.223,74.58,164.015,74.394,163.941,74.158z M117.938,92.947l-0.574-2.229c-0.094-0.344-0.579-0.344-0.674,0l-0.573,2.229
	c-0.048,0.156-0.186,0.277-0.36,0.32l-2.087,0.473c-0.343,0.094-0.343,0.578,0,0.674l2.087,0.471c0.175,0.043,0.312,0.164,0.36,0.32
	l0.573,2.229c0.095,0.344,0.58,0.344,0.675,0l0.573-2.229c0.048-0.156,0.186-0.277,0.36-0.32l2.087-0.471
	c0.343-0.096,0.343-0.58,0-0.674l-2.087-0.473C118.124,93.224,117.986,93.103,117.938,92.947z M6.837,83.292L5.97,79.925
	c-0.142-0.518-0.876-0.518-1.017,0l-0.866,3.367c-0.072,0.236-0.28,0.42-0.545,0.484L0.388,84.49c-0.518,0.141-0.518,0.875,0,1.017
	l3.153,0.713c0.265,0.064,0.473,0.248,0.545,0.484l0.866,3.367c0.142,0.518,0.876,0.518,1.018,0l0.866-3.367
	c0.072-0.236,0.28-0.42,0.546-0.484l3.152-0.713c0.518-0.142,0.518-0.877,0-1.017l-3.152-0.713
	C7.118,83.712,6.91,83.529,6.837,83.292z M108.928,67.025l0.419-2.16c0.059-0.336-0.361-0.535-0.583-0.277l-1.409,1.691
	c-0.104,0.115-0.273,0.162-0.443,0.129l-1.996-0.447c-0.334-0.061-0.533,0.359-0.276,0.582l1.61,1.262
	c0.134,0.109,0.203,0.271,0.181,0.426l-0.418,2.16c-0.06,0.336,0.36,0.535,0.582,0.277l1.409-1.691
	c0.105-0.115,0.273-0.164,0.443-0.129l1.997,0.447c0.334,0.059,0.533-0.361,0.276-0.582l-1.611-1.262
	C108.975,67.339,108.907,67.179,108.928,67.025z M146.741,110.406l0.419-2.162c0.059-0.336-0.361-0.533-0.583-0.275l-1.409,1.689
	c-0.104,0.115-0.273,0.164-0.443,0.129l-1.996-0.447c-0.334-0.059-0.533,0.361-0.276,0.582l1.61,1.264
	c0.134,0.109,0.203,0.271,0.181,0.424l-0.418,2.162c-0.06,0.336,0.36,0.533,0.582,0.275l1.409-1.691
	c0.105-0.113,0.273-0.162,0.443-0.129l1.997,0.449c0.334,0.059,0.533-0.361,0.276-0.582l-1.611-1.264
	C146.788,110.72,146.719,110.558,146.741,110.406z" class="color c1"/>
</svg>