<svg version="1.1" id="图层_1" x="0px" y="0px" width="40.961px" height="23.815px" viewBox="0 0 40.961 23.815" enable-background="new 0 0 40.961 23.815" xml:space="preserve" xmlns="http://www.w3.org/2000/svg" xmlns:xlink="http://www.w3.org/1999/xlink" xmlns:xml="http://www.w3.org/XML/1998/namespace">
  <g>
    <path fill="#FFFFFF" d="M12.395,23.815C11.46,17.72,6.305,13.027,0,12.816c0.001-0.014,0.002-0.027,0.004-0.041
		C6.307,12.563,11.461,7.87,12.395,1.776c0.956,6.237,6.329,11.02,12.834,11.02c0.078,0,0.154-0.011,0.232-0.012
		c-0.002,0.008-0.003,0.016-0.004,0.023c-0.077-0.002-0.152-0.012-0.229-0.012C18.724,12.796,13.351,17.578,12.395,23.815z" class="color c1"/>
    <path fill="#FFFFFF" d="M32.77,13.815C32.184,9.994,28.952,7.053,25,6.92c0-0.008,0.002-0.017,0.002-0.026
		C28.953,6.761,32.184,3.82,32.77,0c0.6,3.91,3.968,6.908,8.045,6.908c0.05,0,0.098-0.007,0.146-0.007
		c-0.002,0.005-0.002,0.01-0.003,0.015c-0.048-0.001-0.095-0.007-0.144-0.007C36.737,6.908,33.369,9.905,32.77,13.815z" class="color c1"/>
  </g>
</svg>