<svg version="1.1" id="图层_1" x="0px" y="0px" width="109.17px" height="43.271px" viewBox="0 0 109.17 43.271" enable-background="new 0 0 109.17 43.271" xml:space="preserve" xmlns="http://www.w3.org/2000/svg" xmlns:xlink="http://www.w3.org/1999/xlink" xmlns:xml="http://www.w3.org/XML/1998/namespace">
  <path fill="#FFFFFF" d="M53.996,0l4.741,14.389l15.15,0.064l-12.217,8.958l4.619,14.425l-12.294-8.85l-12.291,8.85l4.618-14.425
	l-12.219-8.958l15.151-0.064L53.996,0z M14.19,16.281l3.381,10.265l10.809,0.043l-8.718,6.391l3.296,10.293l-8.768-6.313
	l-8.77,6.313l3.297-10.293L0,26.588l10.806-0.043L14.19,16.281z M94.979,16.281l3.385,10.265l10.806,0.043l-8.715,6.391
	l3.296,10.293l-8.771-6.313l-8.77,6.313l3.296-10.293l-8.716-6.391l10.809-0.043L94.979,16.281z" class="color c1"/>
</svg>