<svg version="1.1" id="图层_1" x="0px" y="0px" width="178.743px" height="68.108px" viewBox="0 0 178.743 68.108" enable-background="new 0 0 178.743 68.108" xml:space="preserve" xmlns="http://www.w3.org/2000/svg" xmlns:xlink="http://www.w3.org/1999/xlink" xmlns:xml="http://www.w3.org/XML/1998/namespace">
  <path fill="#E4DAA3" d="M115.939,30.167l0.518,0.947c0.285,0.521,0.714,0.95,1.234,1.235l0.949,0.519l-0.949,0.518
	c-0.521,0.287-0.949,0.715-1.234,1.235l-0.518,0.949l-0.52-0.949c-0.283-0.521-0.713-0.948-1.234-1.235l-0.947-0.518l0.947-0.519
	c0.521-0.285,0.951-0.714,1.234-1.235L115.939,30.167L115.939,30.167z M175.301,61.228l-0.658,1.207
	c-0.365,0.664-0.91,1.209-1.574,1.572l-1.207,0.661l1.207,0.66c0.664,0.363,1.209,0.909,1.574,1.573l0.658,1.207l0.661-1.207
	c0.364-0.664,0.909-1.21,1.573-1.573l1.208-0.66l-1.208-0.661c-0.664-0.363-1.209-0.908-1.573-1.572L175.301,61.228L175.301,61.228z
	 M175.301,0l-0.658,1.208c-0.365,0.665-0.91,1.21-1.574,1.572l-1.207,0.662l1.207,0.66c0.664,0.363,1.209,0.91,1.574,1.573
	l0.658,1.207l0.661-1.207c0.364-0.663,0.909-1.21,1.573-1.573l1.208-0.66l-1.208-0.662c-0.664-0.362-1.209-0.907-1.573-1.572
	L175.301,0L175.301,0z M133.104,6.081c0-0.443-0.359-0.802-0.803-0.802s-0.803,0.358-0.803,0.802s0.359,0.802,0.803,0.802
	S133.104,6.524,133.104,6.081L133.104,6.081z M137.871,63.865c0-0.444-0.359-0.802-0.803-0.802s-0.803,0.357-0.803,0.802
	s0.359,0.803,0.803,0.803S137.871,64.31,137.871,63.865L137.871,63.865z M167.86,36.31c0-0.443-0.358-0.803-0.802-0.803
	s-0.803,0.359-0.803,0.803c0,0.442,0.359,0.803,0.803,0.803S167.86,36.752,167.86,36.31L167.86,36.31z M2.222,27.62
	c0-0.613-0.498-1.11-1.11-1.11C0.498,26.51,0,27.007,0,27.62c0,0.614,0.498,1.11,1.111,1.11C1.724,28.73,2.222,28.234,2.222,27.62
	L2.222,27.62z M41.035,1.882c0-0.614-0.497-1.111-1.11-1.111c-0.614,0-1.11,0.497-1.11,1.111c0,0.612,0.496,1.11,1.11,1.11
	C40.538,2.992,41.035,2.494,41.035,1.882L41.035,1.882z" class="color c1"/>
</svg>