<svg version="1.1" id="图层_1" x="0px" y="0px" width="40.184px" height="8.414px" viewBox="0 0 40.184 8.414" enable-background="new 0 0 40.184 8.414" xml:space="preserve" xmlns="http://www.w3.org/2000/svg" xmlns:xlink="http://www.w3.org/1999/xlink" xmlns:xml="http://www.w3.org/XML/1998/namespace">
  <polygon fill="#C91F0B" points="35.757,0 37.13,2.773 40.183,3.219 37.968,5.373 38.494,8.414 35.757,6.977 33.029,8.414 
	33.548,5.373 31.339,3.219 34.386,2.773 " class="color c1"/>
  <polygon fill="#C91F0B" points="20.089,0 21.46,2.773 24.507,3.219 22.304,5.373 22.818,8.414 20.089,6.977 17.358,8.414 
	17.879,5.373 15.67,3.219 18.717,2.773 " class="color c1"/>
  <polygon fill="#C91F0B" points="4.419,0 5.79,2.773 8.838,3.219 6.628,5.373 7.149,8.414 4.419,6.977 1.688,8.414 2.209,5.373 
	0,3.219 3.054,2.773 " class="color c1"/>
</svg>