<svg version="1.1" id="图层_1" x="0px" y="0px" width="204px" height="204px" viewBox="0 0 204 204" enable-background="new 0 0 204 204" xml:space="preserve" xmlns="http://www.w3.org/2000/svg" xmlns:xlink="http://www.w3.org/1999/xlink" xmlns:xml="http://www.w3.org/XML/1998/namespace">
  <g>
    <path fill="#C0A372" d="M83.895,32.865c-0.664,0.174-1.326,0.358-1.984,0.552l2.082,7.51c0.658-0.194,1.315-0.391,1.981-0.563
		L83.895,32.865z" class="color c1"/>
    <path fill="#C0A372" d="M103.03,165.646c-0.344,0.006-0.685,0.026-1.03,0.026s-0.687-0.021-1.03-0.026v21.546h2.061V165.646z" class="color c1"/>
    <path fill="#C0A372" d="M117.522,40.241c0.669,0.167,1.329,0.355,1.989,0.544l2.023-7.534c-0.66-0.187-1.324-0.362-1.992-0.529
		L117.522,40.241z" class="color c1"/>
    <path fill="#C0A372" d="M146.277,56.265c0.493,0.479,0.979,0.965,1.458,1.458l5.509-5.51c-0.478-0.492-0.964-0.979-1.457-1.457
		L146.277,56.265z" class="color c1"/>
    <path fill="#C0A372" d="M100.97,38.354c0.344-0.006,0.685-0.026,1.03-0.026s0.687,0.021,1.03,0.026V16.807h-2.061V38.354z" class="color c1"/>
    <path fill="#C0A372" d="M86.478,163.759c-0.669-0.168-1.329-0.356-1.989-0.544l-2.022,7.533c0.659,0.188,1.323,0.361,1.991,0.53
		L86.478,163.759z" class="color c1"/>
    <path fill="#C0A372" d="M134.678,47.351l10.746-18.653l-1.787-1.028l-10.748,18.653C133.49,46.657,134.088,46.997,134.678,47.351z" class="color c1"/>
    <polygon fill="#C0A372" points="179.239,80.665 177.822,77.25 175.973,80.453 172.285,80.745 174.761,83.493 173.9,87.091 
		177.277,85.586 180.433,87.517 180.046,83.84 182.855,81.436 	" class="color c1"/>
    <polygon fill="#C0A372" points="148.276,22.731 150.671,26.565 152.258,22.332 156.646,21.238 153.109,18.422 153.426,13.912 
		149.653,16.404 145.461,14.711 146.666,19.068 143.759,22.531 	" class="color c1"/>
    <path fill="#C0A372" d="M170.583,81.91l-7.51,2.082c0.193,0.658,0.391,1.316,0.563,1.983l7.499-2.079
		C170.961,83.229,170.776,82.568,170.583,81.91z" class="color c1"/>
    <path fill="#C0A372" d="M187.193,100.97h-21.547c0.006,0.344,0.026,0.685,0.026,1.03c0,0.345-0.021,0.686-0.026,1.029h21.547
		V100.97z" class="color c1"/>
    <path fill="#C0A372" d="M171.278,119.543l-7.52-2.021c-0.168,0.669-0.356,1.329-0.544,1.989l7.533,2.023
		C170.936,120.875,171.109,120.21,171.278,119.543z" class="color c1"/>
    <polygon fill="#C0A372" points="154.206,45.336 151.2,47.492 154.739,48.566 155.859,52.092 157.975,49.058 161.674,49.08 
		159.443,46.131 160.607,42.621 157.113,43.831 154.135,41.639 	" class="color c1"/>
    <path fill="#C0A372" d="M120.104,171.135c0.666-0.174,1.328-0.359,1.986-0.552l-2.082-7.51c-0.658,0.193-1.316,0.391-1.983,0.563
		L120.104,171.135z" class="color c1"/>
    <path fill="#C0A372" d="M144.238,175.99l1.778-1.042l-10.896-18.561c-0.586,0.357-1.186,0.693-1.784,1.032L144.238,175.99z" class="color c1"/>
    <path fill="#C0A372" d="M59.762,28.009l-1.778,1.043l10.896,18.561c0.586-0.357,1.187-0.693,1.784-1.033L59.762,28.009z" class="color c1"/>
    <path fill="#C0A372" d="M146.276,147.735l5.509,5.509c0.494-0.479,0.979-0.965,1.459-1.458l-5.509-5.509
		C147.256,146.771,146.771,147.257,146.276,147.735z" class="color c1"/>
    <path fill="#C0A372" d="M57.723,147.735c-0.493-0.479-0.979-0.965-1.458-1.458l-5.509,5.509c0.479,0.493,0.964,0.979,1.457,1.458
		L57.723,147.735z" class="color c1"/>
    <path fill="#C0A372" d="M157.421,70.664l18.571-10.901l-1.045-1.778l-18.56,10.895C156.745,69.465,157.082,70.065,157.421,70.664z" class="color c1"/>
    <polygon fill="#C0A372" points="24.762,123.334 26.178,126.749 28.027,123.547 31.715,123.255 29.239,120.506 30.102,116.909 
		26.723,118.413 23.567,116.483 23.954,120.16 21.145,122.564 	" class="color c1"/>
    <path fill="#C0A372" d="M40.927,120.008c-0.193-0.658-0.391-1.316-0.563-1.983l-7.498,2.079c0.174,0.666,0.358,1.328,0.552,1.986
		L40.927,120.008z" class="color c1"/>
    <path fill="#C0A372" d="M50.755,52.213l5.51,5.51c0.479-0.493,0.964-0.979,1.458-1.457l-5.51-5.51
		C51.72,51.235,51.233,51.721,50.755,52.213z" class="color c1"/>
    <path fill="#C0A372" d="M32.721,84.457l7.521,2.021c0.168-0.669,0.356-1.329,0.544-1.989l-7.533-2.023
		C33.064,83.125,32.891,83.789,32.721,84.457z" class="color c1"/>
    <path fill="#C0A372" d="M38.327,102c0-0.346,0.021-0.687,0.026-1.03H16.807v2.06h21.547C38.348,102.686,38.327,102.345,38.327,102z
		" class="color c1"/>
    <polygon fill="#C0A372" points="55.724,181.268 53.329,177.433 51.742,181.666 47.354,182.76 50.891,185.578 50.574,190.087 
		54.347,187.596 58.539,189.289 57.334,184.931 60.241,181.469 	" class="color c1"/>
    <polygon fill="#C0A372" points="118.389,30.423 122.002,29.637 124.7,32.166 125.068,28.488 128.309,26.704 124.923,25.219 
		124.229,21.585 121.768,24.346 118.098,23.883 119.962,27.075 	" class="color c1"/>
    <polygon fill="#C0A372" points="158.321,154.574 156.186,151.555 155.088,155.086 151.557,156.186 154.576,158.32 154.528,162.019 
		157.492,159.807 160.995,160.992 159.807,157.49 162.019,154.526 	" class="color c1"/>
    <polygon fill="#C0A372" points="151.947,181.861 150.378,177.621 147.967,181.447 143.448,181.63 146.344,185.105 145.121,189.458 
		149.318,187.78 153.082,190.287 152.783,185.775 156.33,182.973 	" class="color c1"/>
    <path fill="#C0A372" d="M69.322,156.65l-10.746,18.652l1.786,1.029l10.748-18.655C70.509,157.343,69.912,157.002,69.322,156.65z" class="color c1"/>
    <polygon fill="#C0A372" points="106.002,191.683 102,193.787 97.998,191.683 98.762,196.139 95.524,199.296 99.999,199.945 
		102,204 104.001,199.945 108.476,199.296 105.238,196.139 	" class="color c1"/>
    <polygon fill="#C0A372" points="85.611,173.576 81.996,174.363 79.3,171.832 78.932,175.512 75.691,177.294 79.077,178.781 
		79.771,182.414 82.232,179.654 85.901,180.116 84.038,176.924 	" class="color c1"/>
    <polygon fill="#C0A372" points="199.946,99.999 199.296,95.524 196.14,98.762 191.683,97.997 193.787,101.999 191.683,106.002 
		196.14,105.237 199.296,108.476 199.946,104.001 204,101.999 	" class="color c1"/>
    <path fill="#C0A372" d="M156.65,134.677l18.652,10.745l1.029-1.784l-18.654-10.748C157.344,133.49,157.004,134.087,156.65,134.677z
		" class="color c1"/>
    <polygon fill="#C0A372" points="183.088,47.842 181.967,52.222 177.724,53.781 181.545,56.2 181.719,60.72 185.199,57.833 
		189.55,59.063 187.881,54.862 190.396,51.105 185.883,51.393 	" class="color c1"/>
    <polygon fill="#C0A372" points="189.486,145.063 185.135,146.287 181.657,143.396 181.478,147.914 177.653,150.328 
		181.895,151.896 183.009,156.276 185.81,152.729 190.321,153.023 187.812,149.263 	" class="color c1"/>
    <polygon fill="#C0A372" points="182.624,123.457 179.841,121.022 180.268,117.349 177.093,119.245 173.73,117.702 174.552,121.308 
		172.046,124.03 175.73,124.363 177.544,127.586 178.999,124.187 	" class="color c1"/>
    <polygon fill="#C0A372" points="125.156,171.683 122.477,174.229 118.856,173.467 120.454,176.805 118.609,180.011 
		122.274,179.524 124.754,182.267 125.426,178.631 128.801,177.122 125.549,175.359 	" class="color c1"/>
    <polygon fill="#C0A372" points="45.679,49.425 47.814,52.445 48.912,48.912 52.443,47.814 49.424,45.68 49.472,41.981 
		46.508,44.193 43.004,43.006 44.193,46.509 41.981,49.473 	" class="color c1"/>
    <polygon fill="#C0A372" points="52.053,22.139 53.622,26.377 56.033,22.553 60.552,22.369 57.656,18.895 58.879,14.542 
		54.68,16.219 50.918,13.713 51.217,18.223 47.67,21.027 	" class="color c1"/>
    <polygon fill="#C0A372" points="78.844,32.316 81.523,29.77 85.143,30.532 83.546,27.195 85.391,23.989 81.726,24.477 
		79.246,21.732 78.574,25.369 75.199,26.878 78.451,28.64 	" class="color c1"/>
    <polygon fill="#C0A372" points="49.794,158.663 52.8,156.507 49.261,155.433 48.141,151.908 46.025,154.942 42.326,154.919 
		44.557,157.868 43.393,161.378 46.887,160.168 49.864,162.36 	" class="color c1"/>
    <path fill="#C0A372" d="M47.35,69.323L28.697,58.578l-1.029,1.785l18.654,10.748C46.656,70.51,46.996,69.913,47.35,69.323z" class="color c1"/>
    <polygon fill="#C0A372" points="97.998,12.317 102,10.213 106.002,12.317 105.238,7.86 108.476,4.704 104.001,4.054 102,0 
		99.999,4.054 95.524,4.704 98.762,7.86 	" class="color c1"/>
    <polygon fill="#C0A372" points="22.282,143.28 18.801,146.166 14.451,144.935 16.119,149.136 13.604,152.895 18.117,152.605 
		20.912,156.158 22.033,151.778 26.276,150.217 22.455,147.799 	" class="color c1"/>
    <path fill="#C0A372" d="M46.579,133.337l-18.571,10.901l1.044,1.777l18.56-10.896C47.255,134.534,46.919,133.935,46.579,133.337z" class="color c1"/>
    <polygon fill="#C0A372" points="14.514,58.936 18.866,57.713 22.343,60.603 22.522,56.086 26.347,53.671 22.105,52.104 
		20.991,47.723 18.19,51.271 13.679,50.977 16.188,54.737 	" class="color c1"/>
    <polygon fill="#C0A372" points="21.376,80.542 24.16,82.977 23.732,86.649 26.907,84.755 30.271,86.296 29.448,82.69 31.954,79.97 
		28.27,79.637 26.457,76.413 25.002,79.813 	" class="color c1"/>
    <polygon fill="#C0A372" points="7.86,98.762 4.704,95.524 4.054,99.999 0,101.999 4.054,104.001 4.704,108.476 7.86,105.237 
		12.317,106.002 10.213,101.999 12.317,97.997 	" class="color c1"/>
  </g>
</svg>