<svg version="1.1" id="图层_1" x="0px" y="0px" width="200px" height="125.994px" viewBox="0 0 200 125.994" enable-background="new 0 0 200 125.994" xml:space="preserve" xmlns="http://www.w3.org/2000/svg" xmlns:xlink="http://www.w3.org/1999/xlink" xmlns:xml="http://www.w3.org/XML/1998/namespace">
  <polygon fill="#014476" points="104.131,108.125 101.771,108.94 101.105,111.347 99.602,109.354 97.107,109.464 98.538,107.416 
	97.663,105.078 100.051,105.808 102.003,104.251 102.051,106.747 " class="color c1"/>
  <polygon fill="#014476" points="38.85,118.536 38.774,114.489 35.609,117.011 31.736,115.83 33.156,119.621 30.836,122.94 
	34.882,122.763 37.32,125.992 38.401,122.09 42.228,120.769 " class="color c1"/>
  <polygon fill="#014476" points="197.77,104.815 197.719,102.142 195.628,103.808 193.068,103.028 194.006,105.534 192.475,107.728 
	195.146,107.608 196.758,109.744 197.471,107.166 199.999,106.293 " class="color c1"/>
  <polygon fill="#014476" points="110.535,2.674 110.484,0 108.393,1.666 105.834,0.887 106.771,3.391 105.24,5.584 107.913,5.467 
	109.523,7.601 110.238,5.024 112.766,4.15 " class="color c1"/>
  <polygon fill="#014476" points="4.942,61.447 4.895,58.951 2.943,60.507 0.555,59.779 1.43,62.117 0,64.164 2.495,64.054 
	3.998,66.046 4.665,63.64 7.024,62.826 " class="color c1"/>
  <rect x="11.755" y="84.185" transform="matrix(0.115 0.9934 -0.9934 0.115 96.8864 64.3943)" fill="#014476" width="1.095" height="4.778" class="color c1"/>
  <rect x="126.421" y="112.593" fill="#014476" width="1.097" height="4.018" class="color c1"/>
  <rect x="187.566" y="92.325" transform="matrix(0.9923 0.1241 -0.1241 0.9923 12.993 -22.9163)" fill="#014476" width="5.888" height="1.096" class="color c1"/>
  <rect x="53.275" y="16.916" transform="matrix(0.8138 0.5812 -0.5812 0.8138 20.3633 -28.6225)" fill="#014476" width="3.141" height="1.096" class="color c1"/>
  <rect x="172.615" y="37.549" transform="matrix(0.7999 0.6002 -0.6002 0.7999 57.7749 -97.0699)" fill="#014476" width="3.65" height="1.095" class="color c1"/>
</svg>