<svg version="1.1" id="图层_1" x="0px" y="0px" width="66.238px" height="21.711px" viewBox="0 0 66.238 21.711" enable-background="new 0 0 66.238 21.711" xml:space="preserve" xmlns="http://www.w3.org/2000/svg" xmlns:xlink="http://www.w3.org/1999/xlink" xmlns:xml="http://www.w3.org/XML/1998/namespace">
  <g>
    <polygon fill="#CA9736" points="33.12,0 35.347,4.512 40.326,5.234 36.724,8.748 37.573,13.708 33.12,11.366 28.666,13.708 
		29.517,8.748 25.913,5.234 30.892,4.512 	" class="color c1"/>
  </g>
  <g>
    <g>
      <g>
        <polygon fill="#CA9736" points="49.776,7.24 51.077,9.875 53.985,10.299 51.881,12.349 52.378,15.247 49.776,13.877 
				47.175,15.247 47.671,12.349 45.566,10.299 48.476,9.875 			" class="color c1"/>
      </g>
      <g>
        <polygon fill="#CA9736" points="62.03,13.708 63.331,16.34 66.239,16.763 64.136,18.816 64.632,21.711 62.03,20.344 
				59.429,21.711 59.925,18.816 57.821,16.763 60.729,16.34 			" class="color c1"/>
      </g>
    </g>
    <g>
      <g>
        <polygon fill="#CA9736" points="16.463,7.24 15.163,9.875 12.254,10.299 14.358,12.349 13.862,15.247 16.463,13.877 
				19.065,15.247 18.568,12.349 20.673,10.299 17.764,9.875 			" class="color c1"/>
      </g>
      <g>
        <polygon fill="#CA9736" points="4.209,13.708 2.908,16.34 0,16.763 2.104,18.816 1.607,21.711 4.209,20.344 6.811,21.711 
				6.314,18.816 8.418,16.763 5.51,16.34 			" class="color c1"/>
      </g>
    </g>
  </g>
</svg>