<svg version="1.1" id="图层_1" x="0px" y="0px" width="164.713px" height="78.099px" viewBox="0 0 164.713 78.099" enable-background="new 0 0 164.713 78.099" xml:space="preserve" xmlns="http://www.w3.org/2000/svg" xmlns:xlink="http://www.w3.org/1999/xlink" xmlns:xml="http://www.w3.org/XML/1998/namespace">
  <polygon fill="#283057" points="82.357,0 81.117,2.515 78.342,2.917 80.349,4.875 79.875,7.637 82.355,6.333 84.839,7.638 
	84.364,4.875 86.372,2.917 83.601,2.515 " class="color c1"/>
  <polygon fill="#283057" points="111.474,5.791 110.229,8.306 107.458,8.708 109.465,10.667 108.992,13.429 111.475,12.124 
	113.954,13.428 113.481,10.667 115.487,8.708 112.713,8.306 " class="color c1"/>
  <polygon fill="#283057" points="136.569,25.637 139.049,26.941 138.576,24.18 140.583,22.221 137.809,21.818 136.568,19.303 
	135.325,21.818 132.553,22.221 134.56,24.18 134.087,26.942 " class="color c1"/>
  <polygon fill="#283057" points="150.646,47.988 150.174,50.751 152.656,49.445 155.135,50.75 154.662,47.988 156.669,46.029 
	153.895,45.627 152.655,43.112 151.412,45.627 148.64,46.029 " class="color c1"/>
  <polygon fill="#283057" points="158.217,78.099 160.699,76.793 163.18,78.098 162.705,75.336 164.713,73.377 161.938,72.975 
	160.698,70.46 159.455,72.975 156.683,73.377 158.69,75.336 " class="color c1"/>
  <polygon fill="#283057" points="53.24,5.791 52,8.306 49.225,8.708 51.232,10.667 50.758,13.428 53.238,12.124 55.722,13.429 
	55.248,10.667 57.255,8.708 54.483,8.306 " class="color c1"/>
  <polygon fill="#283057" points="4.016,70.46 2.775,72.975 0,73.377 2.007,75.336 1.534,78.098 4.014,76.793 6.497,78.099 
	6.023,75.336 8.029,73.377 5.258,72.975 " class="color c1"/>
  <polygon fill="#283057" points="28.145,19.303 26.905,21.818 24.13,22.221 26.137,24.18 25.664,26.941 28.144,25.637 30.627,26.942 
	30.152,24.18 32.16,22.221 29.389,21.818 " class="color c1"/>
  <polygon fill="#283057" points="12.059,43.112 10.818,45.627 8.043,46.029 10.05,47.988 9.577,50.75 12.057,49.445 14.539,50.751 
	14.066,47.988 16.072,46.029 13.301,45.627 " class="color c1"/>
</svg>