<svg version="1.1" id="图层_1" x="0px" y="0px" width="170.904px" height="145.461px" viewBox="0 0 170.904 145.461" enable-background="new 0 0 170.904 145.461" xml:space="preserve" xmlns="http://www.w3.org/2000/svg" xmlns:xlink="http://www.w3.org/1999/xlink" xmlns:xml="http://www.w3.org/XML/1998/namespace">
  <path fill="#FFFFFF" d="M38.856,46.1l-1.919-5.977l-6.188,0.367l5.795-2.535l-0.34-5.725l2.381,5.441l6.032,0.168l-5.582,1.791
	L38.856,46.1z M151.896,116.018l3.572,4.648l-1.88-5.734l4.315-4.08l-5.272,2.256l-4.346-4.598l2.438,5.699l-4.977,3.826
	L151.896,116.018z M127.312,27.577l4.8,6.242l-2.526-7.703l5.798-5.481l-7.084,3.029l-5.837-6.176l3.275,7.658l-6.686,5.139
	L127.312,27.577z M74.788,52.059l4.473,5.818L76.907,50.7l5.401-5.107l-6.601,2.824l-5.439-5.758l3.052,7.137l-6.229,4.789
	L74.788,52.059z M4.199,85.872l0.219,3.957l1.141-3.916l3.964-0.629l-3.802-0.756l-0.669-4.223l-0.815,4.109L0,84.649L4.199,85.872z
	 M89.258,19.537l-2.836,3.584l3.978-2.51l3.903,2.488l-2.705-3.559l2.65-4.158l-3.846,2.926l-3.837-3.037L89.258,19.537z
	 M53.12,63.827c-0.652,0-1.182,0.529-1.182,1.182s0.529,1.182,1.182,1.182s1.182-0.529,1.182-1.182S53.772,63.827,53.12,63.827z
	 M14.17,58.008c-0.803,0-1.454,0.65-1.454,1.453c0,0.805,0.651,1.455,1.454,1.455s1.455-0.65,1.455-1.455
	C15.625,58.659,14.973,58.008,14.17,58.008z M135.583,96.612c-0.803,0-1.454,0.652-1.454,1.455s0.651,1.455,1.454,1.455
	s1.454-0.652,1.454-1.455S136.386,96.612,135.583,96.612z M146.384,138.016c-0.803,0-1.454,0.652-1.454,1.455
	s0.651,1.455,1.454,1.455s1.455-0.652,1.455-1.455S147.187,138.016,146.384,138.016z M19.969,81.217
	c-0.937,0-1.696,0.76-1.696,1.697s0.76,1.695,1.696,1.695c0.938,0,1.697-0.758,1.697-1.695S20.906,81.217,19.969,81.217z
	 M70.521,68.807c-0.554,0-1.001,0.449-1.001,1.002s0.447,1.002,1.001,1.002c0.555,0,1.002-0.449,1.002-1.002
	S71.076,68.807,70.521,68.807z M70.722,57.409c-0.554,0-1.002,0.447-1.002,1c0,0.555,0.448,1.002,1.002,1.002
	s1.002-0.447,1.002-1.002C71.724,57.856,71.275,57.409,70.722,57.409z M89.124,0c-0.555,0-1.002,0.449-1.002,1.002
	s0.447,1.002,1.002,1.002c0.554,0,1.001-0.449,1.001-1.002S89.678,0,89.124,0z M113.927,38.405c-0.555,0-1.002,0.447-1.002,1.002
	c0,0.553,0.447,1,1.002,1c0.554,0,1.001-0.447,1.001-1C114.928,38.852,114.48,38.405,113.927,38.405z M107.926,55.206
	c-0.554,0-1.002,0.449-1.002,1.002s0.448,1.002,1.002,1.002s1.002-0.449,1.002-1.002S108.479,55.206,107.926,55.206z M29.117,16.402
	c-0.554,0-1.002,0.447-1.002,1c0,0.555,0.448,1.002,1.002,1.002s1.002-0.447,1.002-1.002C30.119,16.85,29.671,16.402,29.117,16.402z
	 M150.931,42.963c-0.467,0-0.845,0.377-0.845,0.844c0,0.465,0.378,0.844,0.845,0.844c0.466,0,0.844-0.379,0.844-0.844
	C151.774,43.34,151.396,42.963,150.931,42.963z M123.928,128.772c-0.467,0-0.844,0.379-0.844,0.844s0.377,0.844,0.844,0.844
	c0.466,0,0.844-0.379,0.844-0.844S124.394,128.772,123.928,128.772z M169.532,120.311c-0.758,0-1.37,0.613-1.37,1.369
	c0,0.758,0.612,1.373,1.37,1.373c0.759,0,1.372-0.615,1.372-1.373C170.904,120.924,170.291,120.311,169.532,120.311z
	 M127.928,143.774c-0.467,0-0.844,0.377-0.844,0.844c0,0.465,0.377,0.844,0.844,0.844s0.844-0.379,0.844-0.844
	C128.771,144.151,128.395,143.774,127.928,143.774z M60.221,29.356c-0.968,0-1.75,0.781-1.75,1.75c0,0.967,0.782,1.75,1.75,1.75
	c0.967,0,1.75-0.783,1.75-1.75C61.971,30.137,61.188,29.356,60.221,29.356z" class="color c1"/>
</svg>