<svg version="1.1" id="图层_1" x="0px" y="0px" width="93.094px" height="93.094px" viewBox="0 0 93.094 93.094" enable-background="new 0 0 93.094 93.094" xml:space="preserve" xmlns="http://www.w3.org/2000/svg" xmlns:xlink="http://www.w3.org/1999/xlink" xmlns:xml="http://www.w3.org/XML/1998/namespace">
  <path fill="#FFFFFF" d="M66.58,70.12c-5.906-7.741-9.563-13.609-11.852-18.065c7.607-2.13,19.498-4.076,38.365-4.645
	c-18.809-1.331-30.604-3.75-38.125-6.182c2.62-4.117,6.534-9.353,12.426-16.007c-6.713,6.194-11.976,10.276-16.09,12.98
	c-2.325-7.5-4.569-19.278-5.6-38.201c-0.86,18.488-2.932,30.412-5.135,38.11c-4.402-2.358-10.159-6.082-17.709-12.019
	c6.841,6.596,11.296,11.755,14.235,15.771C29.496,44.018,17.906,46.034,0,46.939c18.379,0.928,30.092,3.029,37.679,5.249
	c-3.01,4.039-7.681,9.292-15.019,16.083c7.919-5.965,13.883-9.617,18.379-11.868c1.993,7.538,3.765,18.986,4.347,36.691
	c1.23-18.061,3.483-29.718,5.798-37.314C55.134,58.777,60.175,63.279,66.58,70.12z" class="color c1"/>
</svg>