<svg version="1.1" id="图层_1" x="0px" y="0px" width="75.404px" height="87.564px" viewBox="0 0 75.404 87.564" enable-background="new 0 0 75.404 87.564" xml:space="preserve" xmlns="http://www.w3.org/2000/svg" xmlns:xlink="http://www.w3.org/1999/xlink" xmlns:xml="http://www.w3.org/XML/1998/namespace">
  <g>
    <polygon fill="#E8DCC0" points="6.09,40.061 7.425,44.802 12.172,46.145 7.425,47.487 6.09,52.225 4.747,47.487 0,46.145 
		4.747,44.802 	" class="color c1"/>
    <polygon fill="#E8DCC0" points="67.98,4.74 63.233,6.082 67.98,7.424 69.323,12.162 70.658,7.424 75.405,6.082 70.658,4.74 
		69.323,0 	" class="color c1"/>
    <polygon fill="#E8DCC0" points="4.985,81.459 1.083,82.564 4.985,83.666 6.089,87.564 7.185,83.666 11.089,82.564 7.185,81.459 
		6.09,77.564 	" class="color c1"/>
    <polygon fill="#E8DCC0" points="37.966,58.574 30.942,60.562 37.966,62.546 39.954,69.562 41.926,62.546 48.954,60.562 
		41.926,58.574 39.954,51.562 	" class="color c1"/>
    <circle fill="#E8DCC0" cx="44.341" cy="32.647" r="3.005" class="color c1"/>
    <circle fill="#E8DCC0" cx="27.629" cy="12.162" r="3.005" class="color c1"/>
  </g>
</svg>