<svg version="1.1" id="图层_1" x="0px" y="0px" width="171.887px" height="72.637px" viewBox="0 0 171.887 72.637" enable-background="new 0 0 171.887 72.637" xml:space="preserve" xmlns="http://www.w3.org/2000/svg" xmlns:xlink="http://www.w3.org/1999/xlink" xmlns:xml="http://www.w3.org/XML/1998/namespace">
  <polygon fill="#D2C8FD" points="89.568,3.047 87.349,4.979 86.521,7.803 84.589,5.583 81.766,4.757 83.985,2.825 84.812,0 
	86.744,2.22 " class="color c1"/>
  <polygon fill="#9271F5" points="141.859,42.52 139.994,44.143 139.299,46.517 137.675,44.651 135.302,43.957 137.167,42.333 
	137.862,39.959 139.485,41.825 " class="color c2"/>
  <path fill="#9271F5" d="M30.15,41.797c0.016-0.181,0.026-0.439,0.02-0.743s-0.029-0.655-0.075-1.027
	c-0.023-0.187-0.052-0.378-0.086-0.57c-0.007-0.043-0.017-0.087-0.022-0.131c0.042-0.012,0.086-0.021,0.128-0.033
	c0.19-0.05,0.376-0.104,0.555-0.162c0.357-0.114,0.687-0.239,0.965-0.36c0.279-0.121,0.51-0.238,0.667-0.329
	c0.159-0.088,0.247-0.149,0.247-0.149s-0.104-0.02-0.285-0.032c-0.184-0.016-0.439-0.027-0.743-0.02
	c-0.306,0.007-0.656,0.03-1.028,0.077c-0.186,0.022-0.377,0.051-0.569,0.084c-0.045,0.008-0.089,0.017-0.132,0.023
	c-0.012-0.043-0.021-0.087-0.033-0.129c-0.048-0.19-0.104-0.375-0.16-0.553c-0.113-0.358-0.238-0.688-0.36-0.967
	c-0.12-0.278-0.238-0.508-0.329-0.666c-0.088-0.158-0.15-0.248-0.15-0.248s-0.019,0.106-0.031,0.287
	c-0.018,0.184-0.028,0.439-0.021,0.744c0.006,0.305,0.029,0.655,0.076,1.027c0.023,0.187,0.05,0.378,0.086,0.571
	c0.006,0.043,0.016,0.087,0.023,0.131c-0.043,0.011-0.087,0.021-0.13,0.031c-0.189,0.05-0.375,0.105-0.554,0.162
	c-0.356,0.114-0.688,0.238-0.966,0.36c-0.279,0.121-0.508,0.239-0.666,0.33c-0.159,0.088-0.248,0.148-0.248,0.148
	s0.106,0.02,0.288,0.034c0.182,0.017,0.438,0.027,0.743,0.021c0.305-0.006,0.655-0.031,1.026-0.077
	c0.188-0.023,0.379-0.05,0.57-0.085c0.044-0.007,0.088-0.016,0.132-0.024c0.012,0.042,0.021,0.086,0.032,0.128
	c0.05,0.19,0.104,0.375,0.162,0.555c0.113,0.356,0.238,0.687,0.359,0.965c0.12,0.28,0.238,0.508,0.33,0.667
	c0.088,0.159,0.147,0.247,0.147,0.247S30.137,41.979,30.15,41.797z" class="color c2"/>
  <path fill="#9271F5" d="M129.564,10.879c0.019-0.223,0.033-0.538,0.023-0.911c-0.008-0.373-0.037-0.804-0.095-1.259
	c-0.027-0.229-0.062-0.463-0.104-0.701c-0.01-0.054-0.021-0.107-0.028-0.161c0.052-0.014,0.104-0.026,0.157-0.041
	c0.232-0.062,0.46-0.128,0.68-0.198c0.438-0.139,0.841-0.292,1.184-0.441c0.344-0.148,0.623-0.293,0.817-0.403
	c0.196-0.107,0.304-0.184,0.304-0.184s-0.13-0.022-0.352-0.039c-0.225-0.021-0.539-0.033-0.911-0.025
	c-0.374,0.008-0.805,0.038-1.261,0.095c-0.229,0.027-0.463,0.063-0.699,0.104c-0.055,0.008-0.107,0.019-0.161,0.029
	c-0.014-0.054-0.026-0.106-0.04-0.159c-0.06-0.233-0.129-0.459-0.198-0.679c-0.14-0.438-0.293-0.843-0.44-1.186
	c-0.147-0.342-0.293-0.623-0.403-0.816c-0.108-0.194-0.186-0.304-0.186-0.304s-0.022,0.13-0.039,0.354
	c-0.021,0.223-0.035,0.539-0.026,0.912c0.009,0.372,0.037,0.804,0.095,1.26c0.029,0.228,0.062,0.462,0.104,0.7
	c0.008,0.053,0.02,0.105,0.03,0.159c-0.055,0.014-0.106,0.025-0.159,0.04c-0.233,0.061-0.459,0.128-0.68,0.197
	c-0.438,0.14-0.843,0.292-1.184,0.442c-0.344,0.147-0.624,0.293-0.817,0.403c-0.194,0.108-0.305,0.185-0.305,0.185
	s0.132,0.022,0.354,0.041c0.222,0.02,0.538,0.034,0.911,0.024c0.372-0.008,0.805-0.037,1.26-0.094
	c0.229-0.028,0.464-0.061,0.7-0.104c0.054-0.01,0.107-0.021,0.16-0.029c0.014,0.052,0.025,0.104,0.04,0.157
	c0.062,0.232,0.128,0.461,0.198,0.68c0.14,0.438,0.293,0.842,0.442,1.184c0.146,0.344,0.292,0.623,0.401,0.818
	c0.108,0.195,0.185,0.303,0.185,0.303S129.547,11.102,129.564,10.879z" class="color c2"/>
  <path fill="#D2C8FD" d="M5.732,68.529c0.022-0.271,0.041-0.656,0.03-1.112s-0.047-0.982-0.115-1.539
	c-0.034-0.28-0.076-0.566-0.127-0.856c-0.012-0.064-0.024-0.131-0.035-0.195c0.063-0.018,0.129-0.032,0.191-0.051
	c0.285-0.074,0.563-0.156,0.83-0.241c0.535-0.171,1.028-0.357,1.446-0.54c0.419-0.182,0.762-0.358,0.999-0.493
	c0.239-0.132,0.371-0.226,0.371-0.226s-0.158-0.026-0.43-0.048c-0.273-0.023-0.658-0.041-1.113-0.029
	c-0.457,0.01-0.983,0.046-1.54,0.115c-0.279,0.034-0.565,0.075-0.854,0.126c-0.066,0.011-0.133,0.023-0.196,0.036
	c-0.019-0.064-0.032-0.13-0.05-0.193c-0.072-0.284-0.157-0.563-0.242-0.83c-0.17-0.535-0.357-1.028-0.539-1.447
	c-0.181-0.418-0.357-0.761-0.493-0.998c-0.133-0.239-0.226-0.371-0.226-0.371s-0.028,0.159-0.05,0.431
	c-0.023,0.272-0.042,0.658-0.03,1.114c0.01,0.456,0.045,0.982,0.114,1.54c0.035,0.279,0.074,0.565,0.129,0.855
	c0.01,0.063,0.022,0.13,0.035,0.195c-0.064,0.017-0.13,0.031-0.192,0.049c-0.285,0.073-0.563,0.157-0.83,0.241
	c-0.535,0.171-1.029,0.357-1.446,0.54c-0.419,0.182-0.762,0.358-0.998,0.494C0.133,65.227,0,65.32,0,65.32s0.16,0.028,0.433,0.05
	c0.271,0.023,0.656,0.042,1.112,0.03c0.456-0.01,0.982-0.046,1.539-0.114c0.279-0.035,0.566-0.074,0.855-0.127
	c0.064-0.012,0.132-0.024,0.197-0.036c0.016,0.063,0.029,0.129,0.049,0.191c0.073,0.285,0.155,0.563,0.241,0.83
	c0.171,0.535,0.357,1.029,0.54,1.447c0.182,0.419,0.356,0.761,0.492,1c0.132,0.238,0.225,0.37,0.225,0.37S5.712,68.801,5.732,68.529
	z" class="color c1"/>
  <path fill="#D2C8FD" d="M29.568,14.07c0.016-0.189,0.028-0.459,0.021-0.777c-0.007-0.318-0.031-0.687-0.08-1.075
	c-0.023-0.196-0.054-0.396-0.089-0.598c-0.008-0.046-0.018-0.092-0.023-0.138c0.044-0.012,0.09-0.021,0.134-0.034
	c0.199-0.053,0.394-0.109,0.58-0.17c0.374-0.118,0.719-0.25,1.011-0.377c0.293-0.126,0.532-0.25,0.698-0.344
	c0.167-0.093,0.259-0.157,0.259-0.157s-0.11-0.019-0.3-0.032c-0.191-0.018-0.46-0.028-0.778-0.021s-0.687,0.033-1.075,0.081
	c-0.194,0.023-0.396,0.053-0.598,0.088c-0.046,0.007-0.092,0.017-0.137,0.025c-0.014-0.046-0.022-0.091-0.035-0.137
	c-0.051-0.197-0.109-0.392-0.169-0.578c-0.119-0.374-0.25-0.72-0.377-1.012c-0.126-0.292-0.249-0.531-0.345-0.696
	c-0.093-0.167-0.157-0.26-0.157-0.26s-0.021,0.111-0.034,0.302c-0.017,0.189-0.029,0.46-0.021,0.777
	c0.008,0.319,0.031,0.687,0.08,1.076c0.025,0.195,0.053,0.396,0.091,0.597c0.007,0.046,0.017,0.092,0.024,0.138
	c-0.046,0.011-0.091,0.021-0.136,0.034c-0.199,0.051-0.392,0.109-0.579,0.169c-0.374,0.118-0.72,0.25-1.011,0.377
	c-0.293,0.126-0.532,0.25-0.697,0.345c-0.167,0.093-0.26,0.157-0.26,0.157s0.11,0.02,0.302,0.035
	c0.189,0.017,0.459,0.028,0.777,0.021c0.317-0.007,0.687-0.032,1.074-0.081c0.195-0.023,0.396-0.052,0.599-0.088
	c0.046-0.008,0.092-0.017,0.138-0.025c0.011,0.044,0.021,0.091,0.034,0.135c0.052,0.198,0.109,0.394,0.169,0.58
	c0.119,0.373,0.25,0.719,0.377,1.011s0.25,0.532,0.345,0.698c0.093,0.166,0.156,0.259,0.156,0.259S29.554,14.26,29.568,14.07z" class="color c1"/>
  <path fill="#9271F5" d="M169.457,72.346c0.018-0.184,0.028-0.445,0.021-0.752c-0.006-0.308-0.031-0.664-0.078-1.041
	c-0.022-0.188-0.051-0.382-0.086-0.578c-0.007-0.044-0.017-0.089-0.023-0.133c0.043-0.012,0.088-0.022,0.13-0.034
	c0.193-0.051,0.381-0.105,0.563-0.164c0.361-0.115,0.694-0.242,0.978-0.365c0.283-0.122,0.516-0.241,0.676-0.333
	c0.161-0.089,0.251-0.15,0.251-0.15s-0.107-0.02-0.29-0.032c-0.186-0.017-0.445-0.028-0.754-0.021
	c-0.309,0.006-0.664,0.03-1.04,0.077c-0.189,0.023-0.384,0.052-0.579,0.086c-0.044,0.007-0.088,0.016-0.132,0.023
	c-0.013-0.044-0.021-0.088-0.033-0.131c-0.05-0.192-0.106-0.38-0.164-0.562c-0.114-0.361-0.241-0.694-0.364-0.979
	c-0.122-0.283-0.242-0.514-0.334-0.674c-0.09-0.161-0.152-0.251-0.152-0.251s-0.02,0.106-0.031,0.291
	c-0.019,0.185-0.029,0.444-0.022,0.753c0.007,0.308,0.03,0.664,0.077,1.041c0.025,0.188,0.052,0.382,0.088,0.578
	c0.006,0.044,0.016,0.088,0.024,0.132c-0.044,0.011-0.088,0.021-0.133,0.033c-0.19,0.049-0.379,0.105-0.561,0.163
	c-0.361,0.114-0.695,0.241-0.978,0.364c-0.283,0.123-0.517,0.242-0.676,0.334c-0.162,0.089-0.252,0.152-0.252,0.152
	s0.107,0.019,0.292,0.033c0.186,0.016,0.444,0.027,0.753,0.021c0.31-0.006,0.664-0.03,1.04-0.078
	c0.189-0.023,0.385-0.051,0.579-0.086c0.044-0.007,0.089-0.016,0.133-0.023c0.012,0.043,0.021,0.087,0.033,0.13
	c0.051,0.192,0.105,0.38,0.164,0.561c0.115,0.362,0.241,0.695,0.365,0.979c0.121,0.283,0.241,0.515,0.333,0.676
	c0.089,0.161,0.15,0.25,0.15,0.25S169.443,72.531,169.457,72.346z" class="color c2"/>
</svg>