<svg version="1.1" id="图层_1" x="0px" y="0px" width="180px" height="130.572px" viewBox="0 0 180 130.572" enable-background="new 0 0 180 130.572" xml:space="preserve" xmlns="http://www.w3.org/2000/svg" xmlns:xlink="http://www.w3.org/1999/xlink" xmlns:xml="http://www.w3.org/XML/1998/namespace">
  <g>
    <polygon fill="#00A8B6" points="7.415,68.878 9.707,73.521 14.83,74.266 11.122,77.88 11.999,82.982 7.415,80.573 2.832,82.982 
		3.707,77.88 0,74.266 5.124,73.521 	" class="color c1"/>
    <polygon fill="#00A8B6" points="174.441,119.998 176.159,123.478 180,124.036 177.22,126.745 177.876,130.572 174.441,128.766 
		171.006,130.572 171.662,126.745 168.881,124.036 172.723,123.478 	" class="color c1"/>
    <polygon fill="#00A8B6" points="72.864,0 74.722,3.766 78.875,4.368 75.87,7.297 76.579,11.437 72.864,9.482 69.147,11.437 
		69.857,7.297 66.852,4.368 71.006,3.766 	" class="color c1"/>
    <polygon fill="#00A8B6" points="12.893,114.688 13.773,116.472 15.742,116.758 14.317,118.146 14.654,120.108 12.893,119.182 
		11.131,120.108 11.468,118.146 10.043,116.758 12.012,116.472 	" class="color c1"/>
    <polygon fill="#00A8B6" points="37.799,79.752 38.969,82.12 41.583,82.5 39.691,84.344 40.137,86.946 37.799,85.718 35.461,86.946 
		35.908,84.344 34.016,82.5 36.63,82.12 	" class="color c1"/>
    <polygon fill="#00A8B6" points="164.301,91.512 165.546,94.034 168.331,94.439 166.316,96.403 166.792,99.177 164.301,97.867 
		161.811,99.177 162.286,96.403 160.271,94.439 163.055,94.034 	" class="color c1"/>
  </g>
</svg>