<svg version="1.1" id="图层_1" x="0px" y="0px" width="40.805px" height="12.607px" viewBox="0 0 40.805 12.607" enable-background="new 0 0 40.805 12.607" xml:space="preserve" xmlns="http://www.w3.org/2000/svg" xmlns:xlink="http://www.w3.org/1999/xlink" xmlns:xml="http://www.w3.org/XML/1998/namespace">
  <polygon fill="#CEAA7A" points="20.404,0.791 22.116,4.965 26.617,5.305 23.174,8.224 24.244,12.607 20.404,10.237 16.564,12.607 
	17.631,8.224 14.191,5.305 18.689,4.965 " class="color c1"/>
  <polygon fill="#CEAA7A" points="4.141,0 5.282,2.782 8.281,3.008 5.988,4.954 6.702,7.877 4.141,6.295 1.582,7.877 2.293,4.954 
	0,3.008 2.999,2.782 " class="color c1"/>
  <polygon fill="#CEAA7A" points="36.665,0 37.806,2.782 40.805,3.008 38.512,4.954 39.223,7.877 36.665,6.295 34.106,7.877 
	34.817,4.954 32.524,3.008 35.523,2.782 " class="color c1"/>
</svg>