<svg version="1.1" id="图层_1" x="0px" y="0px" width="152.335px" height="66.063px" viewBox="0 0 152.335 66.063" enable-background="new 0 0 152.335 66.063" xml:space="preserve" xmlns="http://www.w3.org/2000/svg" xmlns:xlink="http://www.w3.org/1999/xlink" xmlns:xml="http://www.w3.org/XML/1998/namespace">
  <g>
    <g>
      <path fill="#FFFFFF" d="M109.273,4.006c1.966,2.518,2.713,2.609,5.228,0.643c-2.515,1.967-2.606,2.713-0.643,5.229
			c-1.964-2.517-2.711-2.608-5.228-0.644C111.147,7.27,111.239,6.523,109.273,4.006z" class="color c1"/>
    </g>
    <g>
      <path fill="#FFFFFF" d="M42.907,0c-1.537,2.729-1.396,2.967,1.734,2.932c-3.13,0.035-3.267,0.275-1.67,2.97
			c-1.597-2.694-1.872-2.692-3.408,0.038c1.536-2.73,1.396-2.968-1.737-2.932c3.133-0.036,3.267-0.276,1.672-2.972
			C41.093,2.731,41.371,2.729,42.907,0z" class="color c1"/>
    </g>
    <g>
      <path fill="#FFFFFF" d="M145.159,39.705c3.075,0.445,3.663,0.007,4.106-3.068c-0.443,3.075-0.006,3.662,3.069,4.107
			c-3.075-0.445-3.663-0.007-4.107,3.068C148.672,40.737,148.234,40.15,145.159,39.705z" class="color c1"/>
    </g>
    <g>
      <path fill="#FFFFFF" d="M0,48.266c2.924,1.125,3.6,0.826,4.725-2.1c-1.125,2.925-0.824,3.6,2.1,4.724
			C3.9,49.766,3.224,50.066,2.101,52.99C3.224,50.066,2.924,49.391,0,48.266z" class="color c1"/>
    </g>
    <g>
      <path fill="#FFFFFF" d="M95.837,6.314c1.005,0.317,1.226,0.203,1.541-0.801c-0.315,1.003-0.201,1.224,0.803,1.541
			c-1.004-0.317-1.226-0.204-1.542,0.801C96.955,6.852,96.841,6.632,95.837,6.314z" class="color c1"/>
    </g>
    <g>
      <path fill="#FFFFFF" d="M20.312,58.705c1.005,0.318,1.226,0.203,1.541-0.801c-0.315,1.004-0.201,1.225,0.803,1.542
			c-1.004-0.317-1.226-0.204-1.542,0.802C21.43,59.243,21.316,59.023,20.312,58.705z" class="color c1"/>
    </g>
    <g>
      <path fill="#FFFFFF" d="M103.362,64.521c1.004,0.317,1.224,0.203,1.541-0.802c-0.317,1.005-0.203,1.225,0.803,1.543
			c-1.006-0.318-1.226-0.204-1.543,0.801C104.48,65.058,104.366,64.838,103.362,64.521z" class="color c1"/>
    </g>
    <g>
      <path fill="#FFFFFF" d="M64.327,53.999c1.004,0.317,1.224,0.204,1.542-0.802c-0.318,1.006-0.203,1.225,0.801,1.543
			c-1.004-0.318-1.225-0.204-1.541,0.801C65.445,54.536,65.331,54.316,64.327,53.999z" class="color c1"/>
    </g>
    <g>
      <path fill="#FFFFFF" d="M16.7,32.321c1.005,0.317,1.225,0.204,1.543-0.802c-0.318,1.006-0.203,1.225,0.801,1.543
			c-1.004-0.318-1.225-0.204-1.542,0.801C17.819,32.858,17.705,32.639,16.7,32.321z" class="color c1"/>
    </g>
    <g>
      <path fill="#FFFFFF" d="M114.267,23.069c2.019,0.638,2.461,0.409,3.1-1.61c-0.639,2.02-0.408,2.461,1.611,3.1
			c-2.02-0.639-2.462-0.41-3.1,1.61C116.516,24.15,116.284,23.707,114.267,23.069z" class="color c1"/>
    </g>
    <g>
      <path fill="#FFFFFF" d="M69.208,10.213c1.326,1.347,1.771,1.351,3.119,0.023c-1.348,1.327-1.35,1.773-0.024,3.117
			c-1.325-1.344-1.772-1.348-3.117-0.021C70.53,12.006,70.534,11.56,69.208,10.213z" class="color c1"/>
    </g>
    <g>
      <path fill="#FFFFFF" d="M140.428,61.232c1.874,1.901,2.502,1.906,4.403,0.033c-1.901,1.873-1.906,2.504-0.034,4.402
			c-1.872-1.898-2.501-1.906-4.401-0.031C142.296,63.762,142.302,63.134,140.428,61.232z" class="color c1"/>
    </g>
  </g>
</svg>