<svg version="1.1" id="图层_1" x="0px" y="0px" width="253.332px" height="228.918px" viewBox="0 0 253.332 228.918" enable-background="new 0 0 253.332 228.918" xml:space="preserve" xmlns="http://www.w3.org/2000/svg" xmlns:xlink="http://www.w3.org/1999/xlink" xmlns:xml="http://www.w3.org/XML/1998/namespace">
  <path fill="#EAE8E8" d="M88.979,197.463c-3.338,2.218-6.676,4.435-10.134,6.733c1.26,3.772,2.484,7.437,3.804,11.39
	c-3.569-2.353-6.998-4.614-10.525-6.939c-3.384,2.218-6.75,4.424-10.506,6.886c1.263-3.921,2.411-7.483,3.66-11.36
	c-3.237-2.169-6.622-4.439-10.527-7.056c2.208,0,3.879,0,5.55,0c2.002,0,4.007-0.063,6.006,0.023
	c1.225,0.052,1.787-0.347,2.197-1.561c1.062-3.145,2.334-6.22,3.62-9.581c1.22,3.26,2.467,6.328,3.496,9.468
	c0.419,1.279,0.977,1.715,2.309,1.682c3.614-0.09,7.231-0.031,10.847-0.031C88.843,197.233,88.911,197.348,88.979,197.463z
	 M171.467,215.41c2.713-1.819,5.454-3.6,8.129-5.474c1.368-0.958,2.43-1.328,4.016-0.103c2.621,2.024,5.526,3.682,8.527,5.634
	c-0.125-0.579-0.16-0.949-0.284-1.288c-0.966-2.635-1.925-5.273-2.936-7.891c-0.494-1.278-0.767-2.11,0.897-3.034
	c3.085-1.713,5.908-3.899,9.208-6.138c-4.167,0-7.885,0.025-11.601-0.027c-0.555-0.008-1.355-0.224-1.609-0.62
	c-0.64-1-1.108-2.131-1.508-3.258c-0.835-2.358-1.582-4.748-2.365-7.125c-1.47,2.95-2.597,5.933-3.505,8.981
	c-0.458,1.54-1.118,2.2-2.81,2.091c-2.507-0.161-5.031-0.042-7.548-0.042c-1.021,0-2.042,0-3.063,0
	c2.766,2.3,5.573,4.197,8.46,5.964c1.27,0.778,1.548,1.558,0.983,2.965c-1.204,2.999-2.228,6.07-3.326,9.111
	C171.245,215.242,171.356,215.326,171.467,215.41z M238.499,160.62c-3.547,0-7.095-0.068-10.639,0.033
	c-1.447,0.041-2.12-0.342-2.579-1.816c-0.973-3.122-2.242-6.151-3.43-9.328c-1.251,3.266-2.505,6.275-3.538,9.358
	c-0.442,1.321-1.002,1.829-2.429,1.788c-3.629-0.105-7.263-0.035-11.453-0.035c3.938,2.617,7.384,4.908,10.638,7.071
	c-1.245,3.757-2.452,7.396-3.779,11.398c3.772-2.474,7.141-4.684,10.543-6.914c3.49,2.276,6.904,4.503,10.439,6.809
	c-0.984-3.026-1.847-5.685-2.713-8.342c-1.02-3.13-1.021-3.131,1.756-4.854c0.216-0.134,0.471-0.205,0.683-0.344
	c2.23-1.472,4.454-2.953,6.68-4.431C238.618,160.882,238.558,160.751,238.499,160.62z M29.337,156.502
	c-1.379,4.107-1.346,4.118-5.684,4.118c-2.782,0-5.563,0-8.345,0c2.467,2.125,5.002,3.851,7.627,5.426
	c2.251,1.351,2.461,1.565,1.638,3.905c-0.695,1.978-1.54,3.902-2.273,5.867c-0.339,0.909-0.569,1.858-0.848,2.789
	c3.101-1.575,5.85-3.345,8.511-5.237c1.349-0.959,2.368-1.186,3.865-0.059c2.682,2.021,5.6,3.73,8.42,5.569
	c-0.686-2.931-1.661-5.682-2.84-8.341c-0.892-2.013-0.798-2.68,1.037-3.908c2.848-1.905,5.67-3.848,8.852-6.012
	c-3.667,0-6.926,0-10.185,0c-3.09,0-3.336-0.162-4.308-3.097c-0.868-2.621-1.7-5.253-2.731-8.449
	C31.038,151.871,30.122,154.165,29.337,156.502z M215.06,68.02c-1.255,3.793-2.45,7.403-3.77,11.391
	c3.753-2.458,7.122-4.666,10.55-6.911c3.473,2.272,6.894,4.51,10.549,6.902c-1.013-3.013-1.895-5.586-2.744-8.171
	c-1.152-3.51-1.071-3.684,2.248-5.442c0.056-0.03,0.13-0.031,0.181-0.065c2.203-1.469,4.404-2.94,6.606-4.411
	c-3.676-0.357-7.205-0.44-10.727-0.319c-1.534,0.053-2.225-0.365-2.699-1.9c-0.956-3.094-2.216-6.095-3.399-9.268
	c-1.255,3.274-2.541,6.315-3.565,9.442c-0.453,1.382-1.101,1.75-2.464,1.717c-3.595-0.088-7.194-0.03-11.384-0.03
	C208.403,63.59,211.852,65.885,215.06,68.02z M37.598,60.908c-0.585-0.014-1.381-0.52-1.685-1.033
	c-0.672-1.132-1.155-2.392-1.602-3.64c-0.736-2.053-1.382-4.138-2.066-6.209c-0.154-0.009-0.309-0.018-0.463-0.027
	c-1.301,3.644-2.601,7.289-3.947,11.058c-4.234,0-8.378,0-12.522,0c2.465,2.018,4.998,3.749,7.626,5.324
	c2.249,1.348,2.459,1.556,1.631,3.91c-0.696,1.979-1.54,3.906-2.273,5.873c-0.339,0.911-0.572,1.862-0.852,2.794
	c3.091-1.587,5.842-3.361,8.511-5.252c1.344-0.952,2.362-1.205,3.869-0.065c2.666,2.017,5.579,3.707,8.389,5.533
	c0.11-0.081,0.22-0.162,0.33-0.243c-1.322-3.627-2.645-7.254-3.948-10.829c3.55-2.355,6.948-4.608,10.777-7.148
	C45.086,60.955,41.34,61,37.598,60.908z M78.855,31.548c3.49-2.318,6.809-4.521,10.127-6.725c-0.057-0.119-0.114-0.237-0.171-0.356
	c-4.178,0-8.355,0-12.482,0c-1.415-3.723-2.786-7.332-4.213-11.088c-1.448,3.804-2.828,7.428-4.245,11.151
	c-4.224,0-8.386,0-13.038,0c3.808,2.555,7.214,4.841,10.451,7.014c-1.233,3.81-2.391,7.385-3.663,11.316
	c3.325-2.156,6.3-4.036,9.214-6.007c0.833-0.563,1.371-0.796,2.341-0.122c2.993,2.079,6.098,3.998,9.427,6.153
	C81.315,38.983,80.093,35.289,78.855,31.548z M123.478,208.662c-0.449,1.359-1.005,1.947-2.536,1.891
	c-3.563-0.13-7.133-0.042-10.7-0.042c2.633,2.18,5.305,4.036,8.08,5.72c1.463,0.888,1.837,1.787,1.2,3.435
	c-1.153,2.981-2.069,6.053-3.139,9.251c3.267-2.126,6.398-4.22,9.605-6.192c0.483-0.297,1.473-0.273,1.966,0.03
	c3.095,1.906,6.115,3.932,9.161,5.919c0.071-0.112,0.147-0.179,0.134-0.219c-0.701-2.206-1.407-4.41-2.118-6.612
	c-1.525-4.721-1.491-4.658,2.892-7.153c1.999-1.138,3.826-2.58,6.161-4.179c-4.134,0-7.683-0.089-11.223,0.041
	c-1.53,0.056-2.08-0.532-2.535-1.891c-1.023-3.051-2.258-6.03-3.506-9.301C125.7,202.615,124.488,205.605,123.478,208.662z
	 M178.208,23.03c-0.35,1.111-0.826,1.517-2.011,1.492c-3.711-0.079-7.425-0.029-11.137-0.029c-0.044,0.128-0.088,0.257-0.132,0.385
	c3.34,2.218,6.68,4.435,10.17,6.752c-1.337,3.695-2.642,7.301-3.947,10.907c3.036-1.592,5.781-3.373,8.455-5.255
	c1.389-0.978,2.471-1.264,4.037-0.068c2.609,1.993,5.482,3.64,8.548,5.63c-0.169-0.683-0.216-0.993-0.322-1.281
	c-0.991-2.695-1.99-5.387-2.991-8.079c-0.406-1.092-0.82-1.861,0.753-2.741c3.141-1.758,6.022-3.98,9.366-6.251
	c-4.616,0-8.794,0-13.173,0c-1.332-3.694-2.648-7.345-4.163-11.546C180.386,16.629,179.224,19.806,178.208,23.03z M15.226,123.638
	c1.707-1.332,2.936-1.02,4.371,0.114c0.607,0.479,1.23,0.943,1.877,1.365c2.057,1.343,4.129,2.662,6.544,4.215
	c-1.144-3.201-2.158-5.933-3.096-8.69c-1.043-3.067-0.925-3.061,1.949-4.727c2.456-1.424,4.768-3.097,7.144-4.66
	c-3.611-0.401-7.074-0.485-10.53-0.364c-1.607,0.057-2.353-0.409-2.837-2.013c-0.93-3.08-2.16-6.07-3.44-9.575
	c-0.91,2.824-1.618,5.085-2.366,7.333c-1.403,4.221-1.413,4.217-5.806,4.217c-0.645,0-1.29,0-1.935,0c-2.195,0-4.391,0-7.1,0
	c3.905,2.6,7.293,4.855,10.608,7.062c-1.312,3.718-2.581,7.315-4.023,11.402C9.786,127.247,12.66,125.64,15.226,123.638z
	 M123.445,9.457c-0.439,1.348-1.072,1.79-2.468,1.752c-3.586-0.097-7.176-0.033-11.344-0.033c1.07,0.761,1.659,1.208,2.275,1.613
	c2.41,1.586,4.853,3.124,7.222,4.77c0.407,0.283,0.824,1.104,0.7,1.512c-1.056,3.458-2.236,6.878-3.439,10.488
	c0.49-0.291,0.954-0.545,1.395-0.833c2.683-1.758,5.398-3.472,8.022-5.315c0.929-0.653,1.512-0.512,2.375,0.075
	c2.963,2.013,5.995,3.926,9.006,5.88c0.035-0.09,0.092-0.16,0.077-0.208c-0.754-2.392-1.503-4.786-2.275-7.173
	c-1.345-4.16-1.209-4.359,2.625-6.503c2.134-1.193,4.13-2.634,6.187-3.963c-3.668-0.342-7.206-0.438-10.735-0.299
	c-1.616,0.063-2.199-0.541-2.674-2.001c-0.981-3.012-2.225-5.939-3.482-9.218C125.666,3.354,124.45,6.371,123.445,9.457z
	 M226.319,129.064c2.924-1.962,5.882-3.876,8.756-5.909c1.082-0.766,1.844-0.704,2.915,0.049c2.899,2.037,5.9,3.931,8.861,5.881
	c-0.891-3.461-2.044-6.695-3.326-9.877c-0.451-1.12-0.039-1.637,0.822-2.185c3.008-1.915,5.991-3.869,8.984-5.808
	c-3.723-0.362-7.363-0.408-11.001-0.338c-1.382,0.027-2.11-0.477-2.507-1.802c-0.924-3.081-1.951-6.13-3.065-9.589
	c-0.455,0.748-0.843,1.194-1.02,1.711c-0.893,2.62-1.795,5.24-2.561,7.899c-0.379,1.315-0.962,1.845-2.411,1.797
	c-3.577-0.119-7.16-0.039-10.74-0.039c2.503,2.176,5.127,3.958,7.822,5.627c1.302,0.806,2.279,1.448,1.478,3.297
	c-1.283,2.962-2.303,6.037-3.434,9.064C226.035,128.916,226.177,128.99,226.319,129.064z" class="color c1"/>
</svg>