<svg version="1.1" id="图层_1" x="0px" y="0px" width="15.632px" height="14.867px" viewBox="0 0 15.632 14.867" enable-background="new 0 0 15.632 14.867" xml:space="preserve" xmlns="http://www.w3.org/2000/svg" xmlns:xlink="http://www.w3.org/1999/xlink" xmlns:xml="http://www.w3.org/XML/1998/namespace">
  <path fill="#0A4143" d="M15.632,5.679L9.708,5.7L7.816,0L5.925,5.7L0,5.679l4.756,3.619l-1.771,5.569l4.831-3.346l4.83,3.346
	l-1.77-5.569L15.632,5.679z M9.669,6.108l4.169-0.015L8.337,8.067L9.669,6.108z M7.612,7.808L6.297,5.873l1.315-3.962V7.808z
	 M7.612,11.166l-3.318,2.299l3.318-4.386V11.166z M1.784,6.523l5.347,1.919L5.038,9L1.784,6.523z M11.717,13.287L8.337,8.82
	l2.141,0.57L11.717,13.287z" class="color c1"/>
</svg>