<svg version="1.1" id="图层_1" x="0px" y="0px" width="107.424px" height="157.203px" viewBox="0 0 107.424 157.203" enable-background="new 0 0 107.424 157.203" xml:space="preserve" xmlns="http://www.w3.org/2000/svg" xmlns:xlink="http://www.w3.org/1999/xlink" xmlns:xml="http://www.w3.org/XML/1998/namespace">
  <path fill="#162438" d="M53.234,75.988v-0.152l0.383-0.377l0.096,0.086l0.096-0.086l0.379,0.377v0.152l23.381,21.613h29.855
	L99.246,60.43H69.918V38.563h2.168v-3.361L54.538,21.988v-6.93c7.075,1.646,15.211-6.578,29.55-0.918
	C72.9-0.24,63.155,5.203,54.538,1.23V0.125c0-0.066-0.22-0.125-0.491-0.125h-0.971c-0.271,0-0.482,0.059-0.482,0.125v22.111
	L35.34,35.201v3.361h2.162V60.43H8.337L0,97.602h29.858L53.234,75.988z M47.257,53.574c0.49-0.461,0.976-1.488,1.193-1.947
	c1.803-3.832-1.35-4.594,2.156-8.352c0,0,0.829-0.674,1.934-1.018c-0.097-0.186-0.165-0.387-0.165-0.609
	c0-0.74,0.599-1.338,1.338-1.338c0.738,0,1.338,0.598,1.338,1.338c0,0.229-0.074,0.434-0.175,0.623
	c1.042,0.344,1.819,1.002,1.819,1.002c3.499,3.758,0.35,4.525,2.154,8.354c0.216,0.459,0.69,1.48,1.191,1.947
	c0.765,0.713,0.033,2.059-2.206,2.707c-0.702,0.197-1.503,0.33-2.407,0.389c0.026,0.092,0.083,0.17,0.083,0.268
	c0,0.656-0.832,1.184-1.868,1.184c-1.031,0-1.864-0.527-1.864-1.184c0-0.098,0.049-0.182,0.083-0.27
	c-0.904-0.057-1.706-0.189-2.399-0.391C47.219,55.635,46.489,54.289,47.257,53.574z M103.819,146.613v-44.209H75.877L54.099,81.572
	v-0.129l-0.309-0.313l-0.075,0.072l-0.077-0.072l-0.313,0.313v0.129l-21.771,20.832H3.602v42.391l51.481,12.408L103.819,146.613z
	 M92.068,109.035h4.907v5.52h-4.907V109.035z M92.068,117.199h4.907v5.518h-4.907V117.199z M92.068,129.977h4.907v5.523h-4.907
	V129.977z M92.068,138.135h4.907v5.52h-4.907V138.135z M84.125,109.035h4.914v5.52h-4.914V109.035z M84.125,117.199h4.914v5.518
	h-4.914V117.199z M84.125,129.977h4.914v5.523h-4.914V129.977z M84.125,138.135h4.914v5.52h-4.914V138.135z M73.183,109.035h4.907
	v5.52h-4.907V109.035z M73.183,117.199h4.907v5.518h-4.907V117.199z M73.183,129.977h4.907v5.523h-4.907V129.977z M73.183,138.135
	h4.907v5.52h-4.907V138.135z M65.24,109.035h4.906v5.52H65.24V109.035z M65.24,117.199h4.906v5.518H65.24V117.199z M65.24,129.977
	h4.906v5.523H65.24V129.977z M65.24,138.135h4.906v5.52H65.24V138.135z M53.715,90.576c2.954,0.002,5.35,2.398,5.35,5.352
	c0,2.961-2.396,5.354-5.35,5.354c-2.959,0-5.353-2.393-5.353-5.354C48.362,92.973,50.758,90.576,53.715,90.576z M15.355,143.654
	H10.45v-5.52h4.905V143.654z M15.355,135.5H10.45v-5.523h4.905V135.5z M15.355,122.717H10.45v-5.518h4.905V122.717z M15.355,114.555
	H10.45v-5.52h4.905V114.555z M23.3,143.654h-4.91v-5.52h4.91V143.654z M23.3,135.5h-4.91v-5.523h4.91V135.5z M23.3,122.717h-4.91
	v-5.518h4.91V122.717z M23.3,114.555h-4.91v-5.52h4.91V114.555z M34.247,143.654h-4.913v-5.52h4.913V143.654z M34.247,135.5h-4.913
	v-5.523h4.913V135.5z M34.247,122.717h-4.913v-5.518h4.913V122.717z M34.247,114.555h-4.913v-5.52h4.913V114.555z M42.184,143.654
	h-4.907v-5.52h4.907V143.654z M42.184,135.5h-4.907v-5.523h4.907V135.5z M42.184,122.717h-4.907v-5.518h4.907V122.717z
	 M42.184,114.555h-4.907v-5.52h4.907V114.555z M46.615,131.771h0.099c0.465-3.555,3.454-6.309,7.108-6.309
	c3.663,0,6.656,2.75,7.114,6.309l0.106,0.945c0,0,0,14.85-0.015,14.85H46.615V131.771z" class="color c1"/>
</svg>