<svg version="1.1" id="图层_1" x="0px" y="0px" width="150.3px" height="167px" viewBox="0 0 150.3 167" enable-background="new 0 0 150.3 167" xml:space="preserve" xmlns:xml="http://www.w3.org/XML/1998/namespace" xmlns="http://www.w3.org/2000/svg" xmlns:xlink="http://www.w3.org/1999/xlink">
  <path fill="#FA575A" d="M147.9,33.8l-71-33.4c-1.1-0.5-2.4-0.5-3.6,0l-71,33.4C0.9,34.5,0,36,0,37.6V46c0,2.3,1.9,4.2,4.2,4.2l0,0
	H71v37.3c-0.6-0.2-1.2-0.5-1.6-1L55.1,68c-0.8-0.8-1.8-1.2-3-1.2h-8.3c-1.1,0-2.2,0.4-3,1.2L28.3,80.6c-1.5,1.2-1.8,3.2-0.8,4.8
	l5.7,5.199c1.7,1.9,4.4,2.4,6.6,1.2l5.8-3.6c5.6-2.601,9.7,6.399,6.5,15.2L44.2,127.6c-1,2.101-0.2,4.601,1.9,5.601
	c0.6,0.3,1.2,0.399,1.9,0.399h8.3c1.6,0,3-0.899,3.7-2.3l4-9.8c1.5-3,3.9-5.5,6.9-7v35.8H12.5c-2.3,0-4.2,1.9-4.2,4.2l0,0v8.4
	c0,2.3,1.9,4.199,4.2,4.199l0,0h125.3c2.3,0,4.199-1.899,4.199-4.199l0,0v-8.4c0-2.3-1.899-4.2-4.199-4.2l0,0H79.3v-36.7
	c4.8,1.101,8.8,4.5,10.8,9.101l4.3,8.7c0.7,1.399,2.2,2.3,3.7,2.3h8.399c2.301,0,4.201-1.9,4.201-4.2c0-0.6-0.201-1.3-0.4-1.9
	l-7.9-15.8c-1.5-3.5,0.2-10.3,3.6-10.3c2.4,0,4.101,2.3,5.101,4.5c0.5,1.5,1.8,2.5,3.399,2.5c5.101-0.7,7.5-18.3,0.9-23.8
	c-5.8-4.4-14-3.3-18.4,2.5c-0.1,0.2-0.199,0.3-0.399,0.5H79.3V50.1h66.8c2.3,0,4.2-1.9,4.2-4.2l0,0v-8.4
	C150.3,36,149.4,34.5,147.9,33.8z" class="color c1"/>
</svg>