<svg version="1.1" id="图层_1" x="0px" y="0px" width="110.833px" height="36.287px" viewBox="0 0 110.833 36.287" enable-background="new 0 0 110.833 36.287" xml:space="preserve" xmlns="http://www.w3.org/2000/svg" xmlns:xlink="http://www.w3.org/1999/xlink" xmlns:xml="http://www.w3.org/XML/1998/namespace">
  <rect x="86.741" y="13.14" fill="#00243E" width="21.383" height="3" class="color c1"/>
  <path fill="#00243E" d="M33.517,13.146c7.404,2.82,13.229,7.526,20.21,14.203l0.124,0.118c0.174,0.16,0.369,0.291,0.58,0.39
	l0.346,0.153h0.102c0.172,0.04,0.361,0.062,0.581,0.065c0.322-0.006,0.634-0.078,0.923-0.21l0.127-0.063
	c0.174-0.093,0.338-0.21,0.508-0.369l0.059-0.056c6.998-6.694,12.828-11.412,20.242-14.234c7.865-2.997,17.369-3.809,30.807-2.634
	V7.498c-13.775-1.184-23.617-0.306-31.875,2.84c-5.693,2.168-10.453,5.342-15.379,9.537c3.32-4.559,6.877-8.359,11.871-11.232
	c8.035-4.625,19.299-6.337,35.383-5.394V0.244C91.517-0.711,79.778,1.131,71.245,6.042c-7.012,4.034-11.455,9.824-15.829,16.47
	c-4.377-6.649-8.823-12.44-15.828-16.47C31.052,1.131,19.31-0.713,2.708,0.244v3.004c16.087-0.943,27.348,0.77,35.384,5.394
	c4.991,2.872,8.55,6.674,11.874,11.238c-4.936-4.202-9.692-7.371-15.382-9.538C26.328,7.197,16.485,6.32,2.708,7.502v3.009
	C16.15,9.337,25.653,10.15,33.517,13.146z" class="color c1"/>
  <rect x="74.058" y="19.021" fill="#00243E" width="34.066" height="3" class="color c1"/>
  <path fill="#00243E" d="M110.833,24.789H67.067c-2.371,0-4.09,0.435-5.568,1.412c-1.457,0.961-2.412,2.305-3.346,3.715
	c-0.428,0.649-0.762,1.04-0.994,1.161c-0.264,0.139-0.851,0.209-1.742,0.209c-0.891,0-1.479-0.071-1.744-0.21
	c-0.231-0.122-0.566-0.512-0.995-1.162c-0.929-1.406-1.884-2.749-3.343-3.714c-1.479-0.976-3.197-1.412-5.57-1.412H0v5h43.765
	c1.701,0,2.377,0.295,2.813,0.583c0.611,0.404,1.149,1.12,1.927,2.297c0.67,1.016,1.533,2.146,2.848,2.836
	c1.315,0.688,2.793,0.781,4.064,0.781c1.273,0,2.754-0.093,4.066-0.782c1.313-0.689,2.174-1.82,2.844-2.833
	c0.779-1.18,1.316-1.896,1.926-2.297c0.438-0.289,1.115-0.584,2.814-0.584h43.766V24.789z" class="color c1"/>
  <rect x="2.708" y="13.14" fill="#00243E" width="21.385" height="3" class="color c1"/>
  <rect x="2.708" y="19.021" fill="#00243E" width="34.068" height="3" class="color c1"/>
</svg>