<svg version="1.1" id="图层_1" x="0px" y="0px" width="59.847px" height="74.255px" viewBox="0 0 59.847 74.255" enable-background="new 0 0 59.847 74.255" xml:space="preserve" xmlns="http://www.w3.org/2000/svg" xmlns:xlink="http://www.w3.org/1999/xlink" xmlns:xml="http://www.w3.org/XML/1998/namespace">
  <path fill="#004B8E" d="M48.141,1.196L9.565,40.515c-1.829-3.038-3.414-6.184-4.748-9.44L35.305,0h11.617L48.141,1.196z
	 M13.492,46.368c1.965,2.636,4.143,5.176,6.517,7.625l39.838-39.838V0.014L13.492,46.368z M31.945,64.292
	c0.48,0.349,0.96,0.686,1.44,1.022l26.461-26.972V24.063L25.445,59.129C27.494,60.905,29.656,62.629,31.945,64.292z M11.573,0
	L0,12.091c0.473,4.125,1.272,8.115,2.386,11.97L25.415,0H11.573z M39.558,69.324c3.168,1.905,6.245,3.539,9.123,4.931l11.166-11.667
	V48.393l-0.134-0.128L39.558,69.324z" class="color c1"/>
</svg>