<svg version="1.1" id="图层_1" x="0px" y="0px" width="152.281px" height="115.813px" viewBox="0 0 152.281 115.813" enable-background="new 0 0 152.281 115.813" xml:space="preserve" xmlns="http://www.w3.org/2000/svg" xmlns:xlink="http://www.w3.org/1999/xlink" xmlns:xml="http://www.w3.org/XML/1998/namespace">
  <g>
    <path fill="#CBCC2E" d="M15.827,22.565c0,0,25.974,7.994,42.813,14.557c16.84,6.564,38.532-16.267,60.224-18.551
		c0,0-43.955,29.397-50.234,75.351C68.629,93.922,65.489,54.247,15.827,22.565z" class="color c1"/>
    <path fill="#3F3F20" d="M58.982,20.439c0.139,0.173,0.275,0.352,0.423,0.516c0.119,0.133,0.247,0.259,0.369,0.386
		c0.153,0.158,0.304,0.314,0.465,0.465c0.131,0.121,0.271,0.237,0.407,0.354c0.165,0.143,0.33,0.284,0.501,0.416
		c0.146,0.11,0.297,0.215,0.447,0.317c0.175,0.125,0.35,0.248,0.532,0.363c0.157,0.099,0.321,0.188,0.483,0.28
		c0.183,0.105,0.368,0.209,0.556,0.306c0.171,0.082,0.344,0.162,0.519,0.239c0.191,0.086,0.385,0.172,0.581,0.248
		c0.18,0.069,0.365,0.132,0.548,0.191c0.198,0.066,0.397,0.133,0.601,0.191c0.189,0.052,0.381,0.097,0.574,0.141
		c0.205,0.048,0.411,0.092,0.62,0.129c0.198,0.034,0.396,0.063,0.596,0.086c0.21,0.028,0.422,0.054,0.637,0.068
		c0.202,0.017,0.408,0.024,0.614,0.03c0.313,0.011,0.627,0.021,0.948,0.005c6.947-0.326,12.318-6.221,11.994-13.17
		c-0.019-0.428-0.062-0.849-0.123-1.266c-0.021-0.134-0.053-0.263-0.077-0.395c-0.05-0.28-0.1-0.56-0.168-0.832
		c-0.037-0.151-0.09-0.295-0.133-0.445c-0.07-0.244-0.139-0.49-0.225-0.729c-0.055-0.155-0.123-0.302-0.186-0.455
		c-0.089-0.222-0.178-0.449-0.28-0.667c-0.072-0.151-0.155-0.298-0.232-0.443c-0.11-0.21-0.216-0.421-0.338-0.623
		C79.548,6,79.453,5.864,79.359,5.723c-0.125-0.192-0.25-0.388-0.388-0.576c-0.099-0.137-0.21-0.265-0.315-0.4
		c-0.144-0.178-0.285-0.358-0.437-0.526c-0.112-0.128-0.234-0.247-0.354-0.369c-0.157-0.164-0.314-0.328-0.48-0.483
		c-0.125-0.115-0.26-0.228-0.392-0.339c-0.17-0.146-0.339-0.294-0.519-0.429c-0.138-0.105-0.282-0.207-0.427-0.306
		c-0.181-0.131-0.363-0.256-0.552-0.374c-0.15-0.095-0.306-0.183-0.46-0.271c-0.192-0.108-0.383-0.218-0.581-0.315
		c-0.162-0.084-0.329-0.155-0.496-0.229c-0.198-0.09-0.398-0.181-0.603-0.258c-0.173-0.068-0.349-0.125-0.526-0.188
		c-0.205-0.067-0.412-0.136-0.623-0.193c-0.183-0.052-0.367-0.096-0.555-0.139c-0.21-0.049-0.423-0.095-0.638-0.132
		c-0.19-0.033-0.384-0.061-0.58-0.086c-0.215-0.027-0.431-0.053-0.649-0.068c-0.2-0.016-0.403-0.023-0.607-0.029
		c-0.315-0.011-0.629-0.018-0.95-0.004c-6.949,0.325-12.32,6.221-11.996,13.169c0.02,0.427,0.062,0.849,0.123,1.266
		c0.02,0.127,0.053,0.251,0.074,0.377c0.051,0.285,0.1,0.571,0.17,0.846c0.037,0.151,0.089,0.296,0.132,0.443
		c0.073,0.247,0.14,0.496,0.226,0.734c0.058,0.155,0.124,0.304,0.186,0.456c0.091,0.226,0.177,0.448,0.28,0.666
		c0.073,0.156,0.157,0.3,0.236,0.45c0.107,0.207,0.212,0.417,0.332,0.614c0.087,0.149,0.188,0.29,0.282,0.436
		c0.125,0.188,0.247,0.381,0.38,0.562C58.759,20.167,58.872,20.304,58.982,20.439z" class="color c2"/>
    <path fill="#3F3F20" d="M131.097,8.75c-2.739,0.692-5.289,1.484-7.896,2.305c-2.589,0.828-5.16,1.702-7.709,2.629
		c-2.553,0.921-5.089,1.884-7.604,2.908c-1.263,0.494-2.515,1.018-3.763,1.558c-1.249,0.532-2.501,1.053-3.735,1.628
		c-2.484,1.097-4.934,2.28-7.378,3.475c-2.422,1.245-4.861,2.456-7.228,3.812c-2.399,1.297-4.717,2.751-7.048,4.172
		c-2.255,1.409-4.15,2.39-6.394,3.099c-4.354,1.414-9.009,0.928-13.782-0.58c-2.384-0.751-4.784-1.708-7.214-2.699l-7.347-3.119
		c-4.944-2.117-10.011-4.148-15.197-5.858c-5.191-1.701-10.514-3.026-15.875-4.042L0,15.584l10.955,7.131
		c1.243,0.807,2.527,1.69,3.784,2.561l3.751,2.681c2.479,1.821,4.961,3.648,7.39,5.545c2.432,1.891,4.827,3.83,7.181,5.816
		c1.178,0.993,2.34,2.006,3.493,3.024c1.142,1.031,2.309,2.043,3.434,3.093c2.276,2.079,4.484,4.229,6.623,6.446
		c1.08,1.1,2.111,2.243,3.154,3.378c1.012,1.156,2.058,2.294,3.03,3.49c1.003,1.171,1.936,2.396,2.884,3.616
		c0.911,1.241,1.816,2.492,2.667,3.78c0.446,0.633,0.857,1.288,1.259,1.947c0.405,0.659,0.828,1.31,1.19,1.994
		c0.778,1.34,1.455,2.735,2.125,4.141c-0.517-1.463-1.048-2.934-1.688-4.36c-0.292-0.726-0.646-1.422-0.984-2.129
		c-0.336-0.709-0.679-1.41-1.061-2.095c-0.722-1.393-1.544-2.727-2.355-4.073c-0.849-1.314-1.689-2.643-2.602-3.921
		c-0.884-1.294-1.832-2.547-2.772-3.804c-0.975-1.229-1.942-2.468-2.958-3.662c-2.008-2.411-4.097-4.756-6.255-7.033
		c-2.147-2.29-4.38-4.496-6.66-6.65c-2.278-2.157-4.601-4.266-6.964-6.328c-1.296-1.126-2.604-2.242-3.924-3.343
		c0.735,0.255,1.469,0.512,2.204,0.768c4.926,1.771,9.742,3.847,14.571,6.064c4.845,2.186,9.67,4.62,15.092,6.381
		c2.707,0.875,5.6,1.554,8.635,1.755c3.025,0.211,6.185-0.104,9.107-1.017c2.884-0.848,5.767-2.358,8.045-3.774
		c2.238-1.352,4.471-2.711,6.77-3.969c2.263-1.317,4.61-2.496,6.934-3.711c2.353-1.171,4.71-2.325,7.109-3.401
		c1.189-0.564,2.401-1.078,3.606-1.601c1.206-0.531,2.417-1.044,3.638-1.534c1.769-0.73,3.553-1.425,5.344-2.104
		c-3.138,3.063-6.078,6.311-8.8,9.705c-3.24,4.109-6.194,8.409-8.908,12.84c-2.697,4.44-5.191,8.988-7.407,13.66
		c-2.215,4.674-4.231,9.425-6.051,14.241c-1.843,4.808-3.423,9.707-4.865,14.636c-1.451,4.923-2.702,9.901-3.764,14.912
		c-1.078,5.008-1.941,10.062-2.542,15.134c1.104-4.986,2.527-9.885,3.981-14.761c1.493-4.865,3.122-9.683,4.868-14.446
		c1.752-4.762,3.695-9.446,5.73-14.073c2.046-4.628,4.274-9.163,6.678-13.588c2.412-4.422,4.954-8.761,7.737-12.928
		c2.784-4.165,5.784-8.168,9.014-11.95c6.402-7.605,13.814-14.323,22.199-19.387l18.66-11.277L131.097,8.75z" class="color c2"/>
  </g>
</svg>