<svg version="1.1" id="图层_1" x="0px" y="0px" width="92.501px" height="137.624px" viewBox="0 0 92.501 137.624" enable-background="new 0 0 92.501 137.624" xml:space="preserve" xmlns="http://www.w3.org/2000/svg" xmlns:xlink="http://www.w3.org/1999/xlink" xmlns:xml="http://www.w3.org/XML/1998/namespace">
  <path fill="#A5191D" d="M0,137.624c21.039-13.593,34.477-30.53,40.311-50.816c-12.635-2.72-21.98-9.074-28.029-19.067
	c-6.053-9.989-7.916-20.37-5.6-31.135c2.666-12.399,8.672-22.124,18.026-29.172c9.349-7.042,20.924-9.083,34.734-6.112
	c14.271,3.071,23.76,10.748,28.462,23.017c4.705,12.275,5.796,24.263,3.281,35.961c-5.137,23.865-17.037,42.477-35.705,55.847
	C32.286,134.988,0,137.624,0,137.624z M43.356,76.078l13.595-63.173c-21.514-2.427-34.41,6.307-38.689,26.192
	c-1.66,7.72-0.422,15.028,3.73,21.917C26.139,67.909,33.256,72.932,43.356,76.078z" class="color c1"/>
</svg>