<svg version="1.1" id="图层_1" x="0px" y="0px" width="21.002px" height="27.005px" viewBox="0 0 21.002 27.005" enable-background="new 0 0 21.002 27.005" xml:space="preserve" xmlns="http://www.w3.org/2000/svg" xmlns:xlink="http://www.w3.org/1999/xlink" xmlns:xml="http://www.w3.org/XML/1998/namespace">
  <polygon fill="#FFFFFF" points="19.406,8.618 21.002,7.697 21.002,4.631 18.346,3.097 15.69,4.631 15.69,7.697 17.268,8.606 
	17.268,12.374 11.571,17.033 11.571,5.515 13.156,4.6 13.156,1.533 10.501,0 7.846,1.533 7.846,4.6 9.432,5.515 9.432,7.209 
	5.605,10.338 3.735,8.808 3.735,8.607 5.312,7.697 5.312,4.631 2.656,3.097 0.001,4.631 0.001,7.697 1.596,8.618 1.596,9.822 
	3.916,11.721 1.596,13.618 1.596,18.387 0,19.309 0,22.374 2.656,23.908 5.311,22.374 5.311,19.309 3.734,18.398 3.734,14.632 
	9.432,9.974 9.432,21.49 7.846,22.405 7.846,25.472 10.501,27.005 13.156,25.472 13.156,22.405 11.571,21.49 11.571,19.797 
	15.396,16.668 17.268,18.198 17.268,18.398 15.69,19.308 15.69,22.374 18.346,23.908 21.002,22.374 21.002,19.308 19.406,18.387 
	19.406,17.184 17.086,15.285 19.406,13.389 " class="color c1"/>
</svg>