<svg version="1.1" id="图层_1" x="0px" y="0px" width="36.167px" height="40.466px" viewBox="0 0 36.167 40.466" enable-background="new 0 0 36.167 40.466" xml:space="preserve" xmlns="http://www.w3.org/2000/svg" xmlns:xlink="http://www.w3.org/1999/xlink" xmlns:xml="http://www.w3.org/XML/1998/namespace">
  <path fill="#FFFFFF" d="M33.384,22L33.1,22.287c-0.222,0.217-0.435,0.412-0.637,0.598l-1.026,0.94l0.138,0.181
	c1.646,2.165,2.296,4.05,1.738,5.038c-0.323,0.558-1.077,0.93-2.179,1.077l-0.152,0.021l-0.088-0.129
	c-0.564-0.836-1.504-1.352-2.527-1.378c-0.82,0.021-1.623,0.382-2.203,0.992l-0.073,0.078h-0.294l-0.043-0.075l-0.106-0.025
	c-0.901-0.214-1.887-0.506-2.851-0.846c-0.369-0.124-0.744-0.266-1.125-0.412l-0.496-0.191l0.778-0.43
	c0.116-0.062,0.231-0.122,0.353-0.191l0.652-0.393c1.174-0.7,2.313-1.442,3.385-2.206c1.178-0.839,2.326-1.748,3.426-2.714
	l0.068-0.07c0.82-0.727,1.513-1.381,2.115-2.002c0.498-0.518,0.896-0.971,1.255-1.388c2.79-3.397,3.646-6.453,2.405-8.604
	c-0.943-1.633-2.841-2.461-5.639-2.461c-0.744,0-1.555,0.06-2.407,0.178l-0.278,0.039l0.07,0.272
	c0.083,0.317,0.15,0.606,0.215,0.881l0.066,0.283c0.078,0.341,0.148,0.638,0.219,0.92l0.055,0.217l0.221-0.029
	c0.594-0.079,1.205-0.125,1.811-0.137c1.771,0,2.938,0.398,3.372,1.153c0.614,1.066-0.234,3.264-2.163,5.599
	c-0.293,0.361-0.636,0.747-1.044,1.177c-0.734,0.758-1.521,1.489-2.355,2.187c-0.294,0.255-0.581,0.503-0.886,0.743l-0.405,0.317
	v-1.995c0-1.193-0.071-2.46-0.231-4.105c-0.266-3.017-0.904-5.998-1.898-8.859l-0.047-0.133l0.088-0.107
	c1.008-1.23,0.826-3.052-0.404-4.059c-0.645-0.528-1.516-0.756-2.32-0.609l-0.135,0.023l-0.094-0.103
	C20.565,0.605,19.343,0.04,18.059,0c-2.391,0-4.472,2.05-6.021,5.929l-0.105,0.267l0.278,0.068c0.628,0.156,1.399,0.37,2.062,0.558
	l0.213,0.061l0.086-0.205c1.066-2.561,2.344-4.029,3.489-4.029c0.458,0.025,0.878,0.193,1.214,0.484l0.137,0.118l-0.068,0.167
	c-0.298,0.721-0.297,1.514,0.003,2.232c0.3,0.72,0.861,1.279,1.581,1.576c0.257,0.105,0.525,0.174,0.8,0.204l0.155,0.017
	l0.053,0.146c0.134,0.369,0.262,0.743,0.388,1.142c0.309,1.035,0.565,2.096,0.765,3.153l0.021,0.11
	c0.066,0.356,0.133,0.71,0.192,1.085l0.086,0.536l-0.642-0.395c-0.151-0.095-0.302-0.188-0.465-0.274l-0.709-0.393
	c-1.248-0.688-2.48-1.307-3.658-1.835C13.568,8.766,9.274,7.645,6.134,7.645c-2.768,0-4.65,0.83-5.598,2.471
	c-1.164,2.069-0.417,4.977,2.104,8.188l0.176,0.225l0.199-0.204c0.479-0.489,1.063-1.065,1.541-1.525l0.16-0.154l-0.134-0.177
	c-1.63-2.156-2.267-4.029-1.702-5.01c0.43-0.755,1.593-1.154,3.357-1.154c1.406,0.032,2.803,0.223,4.154,0.566
	c1.013,0.244,2.035,0.548,3.041,0.902l0.328,0.112c0.252,0.086,0.506,0.172,0.768,0.275l0.48,0.189l-0.447,0.26
	c-0.091,0.053-0.182,0.101-0.315,0.171c-0.115,0.062-0.231,0.123-0.343,0.191l-0.619,0.371c-1.208,0.725-2.359,1.476-3.423,2.233
	c-1.189,0.842-2.343,1.748-3.428,2.695c-0.694,0.609-1.377,1.271-2.219,2.153l-0.382,0.425l-0.145-0.034
	c-0.757-0.178-1.555-0.048-2.209,0.355c-0.664,0.41-1.131,1.054-1.311,1.813c-0.193,0.82-0.025,1.685,0.462,2.369l0.079,0.112
	l-0.051,0.127c-0.756,1.869-0.762,3.471-0.016,4.761c0.937,1.621,2.928,2.479,5.762,2.479c0.776-0.006,1.57-0.064,2.359-0.174
	l0.281-0.04l-0.075-0.274c-0.194-0.704-0.396-1.498-0.54-2.096l-0.053-0.218l-0.223,0.028c-0.638,0.081-1.243,0.121-1.799,0.121
	c-1.779,0-2.995-0.408-3.406-1.113c-0.307-0.802-0.268-1.639,0.11-2.356l0.065-0.124l0.141-0.01
	c0.766-0.049,1.468-0.394,1.975-0.972c0.508-0.578,0.76-1.318,0.709-2.084c-0.016-0.241-0.061-0.48-0.137-0.712l-0.045-0.137
	l0.374-0.418c0.702-0.769,1.454-1.511,2.228-2.204c0.341-0.293,0.617-0.531,0.912-0.764l0.404-0.316v1.994
	c0,1.196,0.072,2.463,0.231,4.105c0.15,1.52,0.361,2.961,0.622,4.253l0.016,0.173c0.196,0.945,0.432,1.889,0.723,2.888
	c0.912,3.02,3.01,8.084,6.797,8.084c2.37,0,4.443-2.013,5.996-5.821l0.105-0.258l-0.268-0.077c-0.162-0.047-0.307-0.091-0.45-0.135
	l-0.925-0.276c-0.238-0.072-0.458-0.137-0.683-0.199l-0.212-0.059l-0.085,0.203c-1.063,2.522-2.332,3.969-3.479,3.969
	c-1.462,0-3.138-2.416-4.27-6.153c-0.302-1.02-0.555-2.065-0.75-3.109c-0.08-0.413-0.15-0.772-0.208-1.156l-0.079-0.527l0.666,0.407
	c0.142,0.089,0.283,0.178,0.438,0.26l0.656,0.359c1.2,0.647,2.441,1.317,3.632,1.841c1.894,0.924,3.868,1.695,5.874,2.293
	l-0.144,0.492l1.171,0.284l0.314-0.101c0.441,1.069,1.441,1.802,2.623,1.89l0.074,0.001c1.154,0,2.218-0.65,2.774-1.696l0.062-0.116
	l0.13-0.016c2.157-0.251,3.7-1.079,4.46-2.392c1.222-2.063,0.533-4.957-1.939-8.147L33.384,22z M18.186,26.706l-0.112,0.055
	l-0.111-0.056c-1.064-0.534-1.947-1.005-2.773-1.481c-0.921-0.53-1.795-1.072-2.67-1.655L12.415,23.5l-0.008-0.123
	c-0.072-1.092-0.106-2.12-0.106-3.145c0-1.026,0.034-2.052,0.106-3.136l0.008-0.122l0.102-0.069
	c0.874-0.587,1.773-1.146,2.672-1.663c0.969-0.558,1.891-1.059,2.74-1.486l0.112-0.057l0.111,0.055
	c1.073,0.533,1.964,1.006,2.802,1.488c0.93,0.535,1.779,1.062,2.671,1.655l0.103,0.068l0.008,0.123
	c0.072,1.092,0.107,2.123,0.107,3.151c0,1.099,0,2.136-0.094,3.136l-0.012,0.118l-0.099,0.066c-0.934,0.623-1.808,1.169-2.671,1.67
	C20.143,25.709,19.231,26.192,18.186,26.706z" class="color c1"/>
</svg>