<svg version="1.1" id="图层_1" x="0px" y="0px" width="200.001px" height="167.941px" viewBox="0 3.11 200.001 167.941" enable-background="new 0 3.11 200.001 167.941" xml:space="preserve" xmlns:xml="http://www.w3.org/XML/1998/namespace" xmlns="http://www.w3.org/2000/svg" xmlns:xlink="http://www.w3.org/1999/xlink">
  <path fill="#FF8C09" d="M29.682,46.351c-0.269-1.104-0.09-2.247,0.502-3.22c0.592-0.971,1.526-1.652,2.632-1.921l6.769-1.643
	c2.22-0.539,4.098-1.91,5.287-3.861c1.189-1.952,1.548-4.25,1.008-6.47c-1.109-4.58-5.741-7.403-10.329-6.296l-25.99,6.308
	c-2.285,0.554-4.59-0.854-5.144-3.134c-0.553-2.281,0.854-4.588,3.135-5.143l6.77-1.643c1.152-0.28,1.861-1.44,1.581-2.596
	c-0.279-1.151-1.438-1.857-2.595-1.581l-6.77,1.643c-4.582,1.114-7.407,5.748-6.297,10.332c1.114,4.583,5.749,7.401,10.331,6.296
	l25.99-6.307c2.286-0.552,4.59,0.854,5.143,3.134c0.269,1.104,0.09,2.248-0.502,3.22c-0.592,0.972-1.527,1.654-2.632,1.923
	l-6.769,1.642c-2.219,0.538-4.098,1.908-5.287,3.86s-1.548,4.249-1.009,6.468l1.642,6.771l0.269,0.978l4.167-0.833L29.682,46.351z" class="color c1"/>
  <polygon fill="#FF8C09" points="48.705,69.19 45.969,68.684 19.844,75.434 19.064,76.382 24.658,110.95 27.333,112.528 
	58.25,105.111 59.576,102.479 " class="color c1"/>
  <polygon fill="#89D500" points="168.487,120.637 181.598,88.165 180.5,86.653 179.438,85.153 156.188,74.465 154.286,74.589 
	137.45,102.74 137.392,105.178 " class="color c2"/>
  <path fill="#99502F" d="M75.873,136.385l13.436-80.728c0.313-1.871-0.981-3.629-2.859-3.888l-0.221-0.346l-5.417-0.771l-0.479,0.271
	c-1.878-0.259-3.601,1.082-3.807,2.967l-8.27,75.17l-0.745,6.774C70.293,136.046,73.081,136.231,75.873,136.385z" class="color c3"/>
  <polygon fill="#444444" points="19.064,76.382 43.237,70.518 48.705,69.19 36.809,60.434 34.826,52.271 31.324,53.122 
	27.148,54.135 23.644,54.985 25.625,63.146 25.624,63.146 " class="color c4"/>
  <path fill="#444444" d="M24.658,110.95l3.237,20.002c12.972,2.252,26.228,3.881,39.615,4.885l0.745-6.774l-8.68-26.582
	L24.658,110.95z" class="color c4"/>
  <polygon fill="#444444" points="181.875,66.274 171.57,61.152 167.832,68.673 167.832,68.673 154.291,74.579 173.631,84.191 
	181.603,88.155 178.137,73.797 " class="color c4"/>
  <path fill="#444444" d="M137.038,135.478c8.998-0.771,17.932-1.818,26.748-3.154l5.107-12.654l-31.097-15.459L137.038,135.478z" class="color c4"/>
  <path fill="#444444" d="M85.08,39.111c-1.087-0.149-2.087-0.493-2.981-0.984l-1.767,12.799l6.117,0.846l1.768-12.799
	C87.223,39.201,86.166,39.26,85.08,39.111z" class="color c4"/>
  <path fill="#F0D6A7" d="M88.216,39.846c4.183-0.968,7.236-4.996,6.625-9.576l-2.214-16.595l-12.084,9.151l-2.226,5.159
	c-1.83,4.245,0.016,8.951,3.78,11.016c0.895,0.491,1.895,0.835,2.981,0.984C86.166,40.135,87.223,40.076,88.216,39.846z" class="color c5"/>
  <path fill="#DD0067" d="M91.28,4.184c-0.168-1.244-1.866-1.479-2.364-0.326l-8.573,19.561l12.344-9.281L91.28,4.184z" class="color c6"/>
  <path fill="#DD0067" d="M137.105,134.212l0.761-31.27l0.06-2.438l0.18-7.319l-13.331-10.546l-23.134-0.563l-2.892-0.069
	l-13.829,9.886l-1.061,43.597C101.617,136.15,119.486,135.721,137.105,134.212z" class="color c6"/>
  <polygon fill="#444444" points="92.667,83.125 101.571,83.342 124.705,83.906 130.715,84.052 131.176,65.111 93.128,64.184 " class="color c4"/>
  <path fill="#FF8C09" d="M190.913,125.477c-8.88,2.008-17.94,3.703-27.126,5.097c-8.816,1.336-17.75,2.385-26.748,3.154
	c-17.618,1.509-35.487,1.938-53.248,1.274c-2.642-0.1-5.281-0.22-7.917-0.367c-2.792-0.154-5.579-0.34-8.362-0.55
	c-13.388-1.004-26.644-2.633-39.615-4.885c-6.315-1.099-12.565-2.332-18.726-3.726c-4.387,11.458-7.533,22.882-9.087,34.271
	c67.586,15.073,132.33,15.073,199.917,0C198.447,148.359,195.299,136.935,190.913,125.477z" class="color c1"/>
</svg>