<svg version="1.1" id="图层_1" x="0px" y="0px" width="130.839px" height="130.728px" viewBox="0 0 130.839 130.728" enable-background="new 0 0 130.839 130.728" xml:space="preserve" xmlns="http://www.w3.org/2000/svg" xmlns:xlink="http://www.w3.org/1999/xlink" xmlns:xml="http://www.w3.org/XML/1998/namespace">
  <path fill="#376251" d="M99.716,53.825c7.405,22.566,5.003,48.851-5.833,63.941c-6.033,8.4-14.24,12.882-23.733,12.959l-0.717,0.003
	c-23.499,0-43.383-9.063-55.991-25.522C-8.484,76.548-3.007,35.395,25.65,13.468C36.991,4.791,51.101,0.008,65.381,0
	c0.921,0,1.816,0.067,2.683,0.132c0.389,0.029,0.776,0.059,1.165,0.081l0.753,0.044l2.368,2.34
	C82.465,12.601,91.417,29.358,99.716,53.825z M126.891,42.823c-6.922-18.844-22.492-33.678-41.65-39.681l-5.564-1.744L83,6.19
	c8.462,12.202,30.169,56.556,33.673,93.914l0.539,5.753l3.133-4.855c6.744-10.454,10.372-22.542,10.491-34.958
	C130.927,56.308,128.746,48.054,126.891,42.823z" class="color c1"/>
</svg>