<svg version="1.1" id="图层_1" x="0px" y="0px" width="36.542px" height="18.089px" viewBox="0 0 36.542 18.089" enable-background="new 0 0 36.542 18.089" xml:space="preserve" xmlns="http://www.w3.org/2000/svg" xmlns:xlink="http://www.w3.org/1999/xlink" xmlns:xml="http://www.w3.org/XML/1998/namespace">
  <path fill="#FFFFFF" d="M3.971,0.001c9.401-0.003,18.894,0,28.325,0c2.211-0.031,4.244,1.972,4.246,4.182
	c-0.004,2.211-2.037,4.216-4.244,4.184H4.406c-2.189,0.115-4.287-1.774-4.4-3.966C-0.108,2.212,1.78,0.114,3.971,0.001L3.971,0.001z
	 M0.005,14.119c0.114,2.192,2.212,4.082,4.402,3.965l27.891,0.002c2.209,0.031,4.242-1.975,4.244-4.185
	c-0.002-2.211-2.035-4.215-4.244-4.185c-9.434,0-18.926,0-28.328,0C1.78,9.832-0.109,11.929,0.005,14.119z" class="color c1"/>
</svg>