<svg version="1.1" id="图层_1" x="0px" y="0px" width="135.781px" height="96.876px" viewBox="0 0 135.781 96.876" enable-background="new 0 0 135.781 96.876" xml:space="preserve" xmlns="http://www.w3.org/2000/svg" xmlns:xlink="http://www.w3.org/1999/xlink" xmlns:xml="http://www.w3.org/XML/1998/namespace">
  <g>
    <circle fill="#FFFFFF" cx="32.112" cy="12.298" r="12.298" class="color c1"/>
    <path fill="#FFFFFF" d="M132.078,9.231c-1.698,0.863-3.348,1.82-4.948,2.846c-11.385,7.298-20.188,18.144-24.805,24.582
		c-4.984-7.274-17.91-24.481-33.092-31.563c-0.433-0.202-0.856-0.267-1.253-0.232c-0.446-0.075-0.933-0.028-1.432,0.205
		C51.368,12.15,38.439,29.358,33.458,36.632c-4.613-6.437-13.415-17.276-24.795-24.574c-1.604-1.029-3.259-1.988-4.961-2.854
		c-2.476-1.259-4.891,1.825-3.059,3.912c1.636,1.863,3.461,4.043,5.38,6.499c6.022,7.703,13,18.178,18.194,30.577
		c-2.706,7.165-6.215,19.922-2.616,31.28c1.78,5.619,5.291,10.897,11.515,14.985c2.086,1.37,4.547-1.132,3.186-3.225
		c-0.116-0.179-0.231-0.367-0.348-0.552c-3.583-5.676-7.071-13.733-5.717-22.382c4.973,10.438,15.701,16.467,24.932,19.858
		c2.469,0.908,4.326-2.381,2.243-3.99c-30.824-23.842-4.215-59.803,10.466-75.808c14.677,15.992,41.334,51.98,10.49,75.836
		c-2.081,1.608-0.225,4.896,2.246,3.989c9.227-3.392,19.959-9.422,24.931-19.858c1.352,8.625-2.114,16.665-5.69,22.339
		c-0.125,0.199-0.25,0.401-0.375,0.595c-1.359,2.092,1.103,4.595,3.187,3.225c6.24-4.098,9.753-9.393,11.528-15.028
		c3.576-11.348,0.071-24.082-2.63-31.237c5.196-12.405,12.179-22.884,18.202-30.588c1.916-2.451,3.737-4.628,5.371-6.488
		C136.97,11.055,134.556,7.972,132.078,9.231z" class="color c1"/>
    <path fill="#FFFFFF" d="M103.668,24.623c6.794,0,12.3-5.506,12.3-12.298s-5.506-12.298-12.3-12.298
		c-6.79,0-12.298,5.506-12.298,12.298S96.878,24.623,103.668,24.623z" class="color c1"/>
  </g>
</svg>