<svg version="1.1" id="图层_1" x="0px" y="0px" width="160.266px" height="140.9px" viewBox="0 0 160.266 140.9" enable-background="new 0 0 160.266 140.9" xml:space="preserve" xmlns="http://www.w3.org/2000/svg" xmlns:xlink="http://www.w3.org/1999/xlink" xmlns:xml="http://www.w3.org/XML/1998/namespace">
  <path fill="#FFFFFF" d="M80.138,0c6.41,0,11.606,5.196,11.606,11.605c0,6.41-5.196,11.606-11.606,11.606
	s-11.605-5.196-11.605-11.606C68.532,5.197,73.728,0,80.138,0z M160.266,6.796c-50.223-11.11-79.934,28.596-80.133,28.863
	C79.934,35.392,50.223-4.314,0,6.796c13.868,8.714,67.874,45.972,78.49,103.532l1.638,30.572l0.005-0.006l0.004,0.006l1.639-30.572
	C92.392,52.768,146.398,15.51,160.266,6.796z" class="color c1"/>
</svg>