<svg version="1.1" id="图层_1" x="0px" y="0px" width="144.325px" height="179.98px" viewBox="0 0 144.325 179.98" enable-background="new 0 0 144.325 179.98" xml:space="preserve" xmlns="http://www.w3.org/2000/svg" xmlns:xlink="http://www.w3.org/1999/xlink" xmlns:xml="http://www.w3.org/XML/1998/namespace">
  <path fill="#084F7B" d="M140.75,139.99c-3.32-5.66-8.8-9.701-14.83-11.701c-0.04-0.01-0.08-0.02-0.13-0.029
	c-1.66-0.55-3.36-0.93-5.07-1.16c-0.03,0-0.07-0.01-0.1-0.01c-0.1-0.02-0.2-0.03-0.31-0.04c-0.13-0.021-0.25-0.03-0.37-0.04
	c-0.04-0.01-0.08-0.01-0.12-0.01c-0.06-0.01-0.11-0.01-0.16-0.01c-0.01-0.01-0.02-0.01-0.03-0.01c-0.01,0-0.01,0-0.01,0h-0.03
	c-0.18-0.021-0.37-0.031-0.55-0.041h-0.02c-0.17-0.01-0.34-0.02-0.52-0.029c-0.4-0.021-0.79-0.03-1.19-0.03H18.19V0H0.14v144.93
	H117.3c4.85,0,8.78,3.75,9.05,8.5c-0.27,4.74-4.19,8.5-9.01,8.5H0v18.051h117.38c0.34,0,0.68-0.011,1.02-0.021
	c0.21-0.011,0.43-0.021,0.64-0.04c0.61-0.04,1.23-0.1,1.84-0.18c0.3-0.041,0.61-0.09,0.91-0.141c0.43-0.07,0.85-0.15,1.27-0.24
	c0.37-0.08,0.73-0.16,1.1-0.26c0.32-0.08,0.63-0.17,0.94-0.26c0.65-0.189,1.28-0.4,1.9-0.641c0.22-0.08,0.45-0.17,0.67-0.27
	c0.06-0.02,0.12-0.04,0.18-0.07c0.1-0.039,0.19-0.08,0.29-0.119c0.06-0.021,0.11-0.051,0.17-0.07c0.04-0.03,0.08-0.051,0.12-0.07
	c0.09-0.04,0.17-0.08,0.26-0.13c0.16-0.06,0.31-0.13,0.47-0.21c0.09-0.04,0.19-0.09,0.28-0.15c0.33-0.17,0.66-0.34,0.99-0.52
	c0.28-0.15,0.56-0.311,0.84-0.48c0.53-0.32,1.05-0.649,1.56-1c0.24-0.17,0.48-0.34,0.71-0.51c0.47-0.35,0.93-0.72,1.38-1.1
	c0.2-0.16,0.38-0.32,0.57-0.5c0.03-0.02,0.06-0.04,0.08-0.07c0.51-0.46,1.01-0.939,1.47-1.439c0.29-0.301,0.57-0.61,0.84-0.931
	c0.54-0.64,1.05-1.29,1.55-1.97c0.24-0.34,0.48-0.689,0.7-1.051c0.16-0.25,0.32-0.51,0.47-0.77c0.02-0.039,0.04-0.07,0.06-0.109
	c0.11-0.19,0.22-0.381,0.33-0.57c0.05-0.09,0.09-0.18,0.14-0.26c0.26-0.5,0.51-1,0.75-1.5
	C145.45,156.539,145.14,147.49,140.75,139.99z" class="color c1"/>
</svg>