<svg version="1.1" id="图层_1" x="0px" y="0px" width="136.403px" height="124.727px" viewBox="0 0 136.403 124.727" enable-background="new 0 0 136.403 124.727" xml:space="preserve" xmlns="http://www.w3.org/2000/svg" xmlns:xlink="http://www.w3.org/1999/xlink" xmlns:xml="http://www.w3.org/XML/1998/namespace">
  <path fill="#B4A65A" d="M90.288,0c-10.706,0-17.54,4.317-21.644,9.464C64.866,4.311,58.533,0,48.468,0H0.557v51.292
	c1.893-2.203,4.667-3.631,7.796-3.631c0.78,0,1.527,0.113,2.261,0.278V10.056h37.854c12.808,0,14.637,10.204,14.884,12.579v28.532
	h-0.017v14.274h-0.017l0.004,27.127c0,11.69-10.386,21.199-22.071,21.199c-11.358,0-20.631-8.981-21.147-20.211l0.531-0.021
	c5.017-2.302,8.504-7.353,8.504-13.233V67.607h-4.189v-9.623c0-2.07-1.68-3.748-3.745-3.748c-2.069,0-3.746,1.678-3.746,3.748v9.623
	h-5.774v-9.623c0-2.07-1.678-3.748-3.745-3.748c-2.073,0-3.751,1.678-3.751,3.748v9.623H0v12.695c0,6.126,3.802,11.326,9.154,13.48
	c0.646,17.167,14.771,30.943,32.097,30.943c17.731,0,32.157-14.426,32.157-32.158l-0.09-24.149h0.084V52.352h0.006V22.703
	c0.241-1.707,2.369-12.647,16.88-12.647h36.061v76.477H89.392c-3.401,0-6.584,0.451-9.207,1.229v11.554
	c2.336-1.593,5.175-2.728,9.76-2.728h46.459V0H90.288z" class="color c1"/>
</svg>