<svg version="1.1" id="图层_1" x="0px" y="0px" width="147.709px" height="153.181px" viewBox="0 0 147.709 153.181" enable-background="new 0 0 147.709 153.181" xml:space="preserve" xmlns="http://www.w3.org/2000/svg" xmlns:xlink="http://www.w3.org/1999/xlink" xmlns:xml="http://www.w3.org/XML/1998/namespace">
  <path fill="#0A0A0A" d="M21.299,118.413l-1.945,5.225l-8.387-3.429l3.598-5.103c18.045-32.072,39.768-61.1,56.031-74.428
	c21.211-17.405,31.609-20.605,43.57-28.167C118.867,9.135,133.5,4.126,137.424,0c-16.926,14.975-35.287,25.231-35.287,25.231
	C54.377,55.344,30.932,101.063,21.299,118.413z M147.695,15.941v-5.145c-3.92,2.241-0.068-2.979-0.068-2.979
	c0.594-3.478-2.234-5.625-2.234-5.625s-6.229,6.049-14.225,12.045c-12.551,9.89-24.6,17.98-24.6,17.98
	c-47.301,27.939-73.639,73.555-82.342,89.171h4.635c1.607-1.303,4.09-2.309,14.355-5.273c12.947-3.741,20.705-11.601,20.705-11.601
	s-7.504,3.532-13.092,2.863c-5.582-0.662,31.146-16.77,31.146-16.77s-8.854,3.633-12.943,3.314c-4.105-0.33-8.307-0.626-8.307-0.626
	c6.705-1.54,7.051-0.041,17.291-3.903c10.24-3.861,9.658-3.539,9.658-3.539c11.613-3.862,16.418-15.899,16.418-15.899
	c-1.996,0.77-17.34,2.66-23.686,0.77c-6.361-1.871,5.967-1.885,8.469-1.999c2.508-0.109-0.072,0.567,15.977-4.955
	c16.025-5.523,20.582-12.369,20.582-12.369l-10.813,1.459c7.074-1.202,15.037-5.874,15.037-5.874
	c-4.889,1.336,1.477-2.733,1.477-2.733c8.408-6.401,10.35-15.894,10.35-15.894c-11.953,4.078-0.469-3.092,1.82-4.091
	c2.262-0.992,3.201-5.104,3.201-5.104C138.232,22.141,147.695,15.941,147.695,15.941z M7.711,126.378l8.518,3.419l1.59-3.783
	L9.305,122.6L7.711,126.378z M6.885,128.012l8.334,3.308l-1.838,4.381l-2.504,8.582l-9.633,8.898l2.986-6.145
	c-0.609-0.111-1.178-0.336-1.66-0.702l-2.043,6.447C0.059,148.865,0,139.603,0,139.603l4.553-7.165L6.885,128.012z M7.277,142.285
	c-0.469-1.304-1.922-1.958-3.211-1.484c-1.305,0.466-1.982,1.898-1.506,3.2c0.469,1.296,1.908,1.985,3.195,1.506
	C7.078,145.026,7.734,143.581,7.277,142.285z" class="color c1"/>
</svg>