<svg version="1.1" id="图层_1" x="0px" y="0px" width="112.591px" height="131.454px" viewBox="0 0 112.591 131.454" enable-background="new 0 0 112.591 131.454" xml:space="preserve" xmlns="http://www.w3.org/2000/svg" xmlns:xlink="http://www.w3.org/1999/xlink" xmlns:xml="http://www.w3.org/XML/1998/namespace">
  <path fill="#172168" d="M111.819,22.046c-0.854-2.576-2.369-5.055-4.49-7.369c-0.605-0.675-1.268-1.322-1.983-1.97
	C98.981,6.908,89.009,2.721,77.439,0.985c-5.427-0.758-11.006-1.074-16.585-0.964H46.378c-4.902,0-8.884,2.272-8.897,5.082
	c0,6.543,0.192,13.086,0.192,19.628L7.894,24.264H7.673c-2.658,0-4.807,1.226-4.807,2.755v0.138
	c-1.281,27.548-2.231,55.097-2.865,82.645c0,0,0,0.014,0,0.027c-0.068,2.452,3.361,4.477,7.658,4.519H7.88l54.201,0.344h3.402
	l2.672,0.083c1.736,0.097,3.457,0.275,5.152,0.537c3.388,0.564,6.584,1.487,9.407,2.714c5.702,2.341,9.794,5.757,11.584,9.642
	c0.991,2.204,4.477,3.76,8.472,3.788h2.809c0.593,0,1.186-0.028,1.75-0.097h0.014c0.386-0.042,0.758-0.11,1.115-0.179
	c0.662-0.166,0.304-11.736,0.4-18.196v-1.377c0.15-1.529,0.109-3.044-0.139-4.56c1.364-19.738,2.397-39.477,3.1-59.229l0.316-6.859
	l0.455-9.422V27.06C112.591,25.379,112.329,23.699,111.819,22.046z M55.304,10.187c5.91-0.221,11.846-0.055,17.687,0.496
	c11.116,1.584,19.711,6.639,22.19,13.044c0.371,1.061,0.605,2.121,0.674,3.209l0.125,4.133l0.537,16.391
	c0.523,15.151,1.322,30.304,2.231,45.455c-1.089-0.771-2.245-1.502-3.485-2.177c-6.735-3.636-15.275-5.978-24.436-6.694
	c-4.889-0.372-8.649-0.289-12.562-0.372h-4.463C54.794,59.181,55.304,34.69,55.304,10.187z M92.784,109.801
	c-4.56-1.832-9.643-3.195-15.027-3.994c-2.673-0.386-5.4-0.647-8.155-0.771l-4.091-0.083h-3.525l-46.461,0.289
	c-0.523-25.096-1.322-50.192-2.396-75.262l24.643-0.399c0.22,19.395,0.633,38.788,1.418,58.183v0.165
	c0.166,2.204,3.32,3.953,7.176,3.967h0.056l11.694-0.165c3.802,0,8.058-0.097,11.02,0c13.637,0.634,25.151,6.033,28.898,13.567
	c1.115,2.575,1.625,5.22,1.528,7.879C97.509,111.922,95.235,110.793,92.784,109.801z" class="color c1"/>
</svg>