<svg version="1.1" id="图层_1" x="0px" y="0px" width="78.332px" height="127.035px" viewBox="0 0 78.332 127.035" enable-background="new 0 0 78.332 127.035" xml:space="preserve" xmlns="http://www.w3.org/2000/svg" xmlns:xlink="http://www.w3.org/1999/xlink" xmlns:xml="http://www.w3.org/XML/1998/namespace">
  <path fill="#496CCF" d="M70.066,76.224C26.479,73.39,28.959,18.108,27.188,8.54C25.416-1.027,0.256,0.035,0.256,0.035
	C-4.705,74.808,64.041,74.808,70.066,76.224z M41.816,40.788c6.732,28.704,35.436,27.995,35.436,27.995s0-1.418,0-35.791
	C66.975,18.108,41.461,9.604,41.461,9.604S38.625,20.943,41.816,40.788z M49.586,127.035c0,0,20.492-6.832,28.746-18.785
	c0-27.607,0-28.744,0-28.744s-23.055-0.57-28.461,22.482C47.309,117.927,49.586,127.035,49.586,127.035z" class="color c1"/>
</svg>