<svg version="1.1" id="图层_1" x="0px" y="0px" width="140.332px" height="162.344px" viewBox="0 0 140.332 162.344" enable-background="new 0 0 140.332 162.344" xml:space="preserve" xmlns="http://www.w3.org/2000/svg" xmlns:xlink="http://www.w3.org/1999/xlink" xmlns:xml="http://www.w3.org/XML/1998/namespace">
  <path fill="#F5AB44" d="M27.677,54.51v91.001h0.001c50.257,0,90.999-40.743,90.999-91.001H27.677z" class="color c1"/>
  <path fill="#192E4C" d="M23.965,26.663v-8.1h4.049V0H11.476v18.563h4.051v8.1C6.413,28.688,0,36.451,0,45.901
	c0,8.101,5.063,15.188,12.151,18.227v79.99c0,2.362,1.35,4.725,3.712,5.737v8.438c0,2.363,1.688,4.05,4.051,4.05
	c2.363,0,4.051-1.687,4.051-4.05v-8.438c2.024-1.014,3.712-3.375,3.712-5.737V63.79c4.388-1.688,7.763-5.063,10.126-9.45h82.29
	V36.451H37.128C34.765,31.727,29.702,28.014,23.965,26.663z M19.576,55.353c-5.4,0-9.45-4.388-9.45-9.451
	c0-5.399,4.388-9.45,9.45-9.45c5.401,0,9.451,4.388,9.451,9.45C29.364,50.965,24.978,55.353,19.576,55.353z M140.332,45.901
	l-15.863,8.776V36.789L140.332,45.901z M132.645,60.415c0,1.013,0,2.362,0,3.375c0,2.025-1.688,3.375-3.375,3.375
	c0,0-3.039,0.338-3.375-3.375c-0.338-1.35,0-2.362,0-3.375c0-2.025,1.351-3.375,3.375-3.375S132.645,58.728,132.645,60.415z
	 M98.218,131.293c1.351,1.352,1.013,3.374-0.338,4.725c-1.688,1.688-3.712,3.377-5.737,4.728c-2.363,1.349-4.051,0.338-4.726-0.675
	c-1.013-1.352-0.674-3.715,0.675-4.728c1.688-1.349,3.713-3.036,5.4-4.388C94.842,129.941,97.205,129.941,98.218,131.293z
	 M80.667,143.781c1.013,1.688,0.337,3.712-1.351,4.725c-2.024,1.352-4.389,2.363-6.75,3.376c-2.362,1.013-3.713-0.338-4.39-1.688
	c-0.674-1.688,0-3.711,1.688-4.387c2.363-1.013,4.387-2.024,6.412-3.037C77.967,142.093,79.991,142.432,80.667,143.781z
	 M61.09,153.232c0.676,1.686-0.674,3.711-2.361,4.049c-2.363,0.676-7.425,1.688-7.763,1.688c-1.688,0-3.038-1.013-3.376-2.701
	c-0.337-2.022,1.013-3.711,2.701-4.049c2.361-0.676,4.387-1.014,6.75-1.688C58.729,149.855,60.416,150.869,61.09,153.232z
	 M130.619,78.642c-0.338,2.699-1.014,5.063-1.688,7.424c-0.339,1.35-2.363,3.037-4.052,2.363c-1.688-0.677-2.7-2.363-2.36-4.051
	c0.674-2.025,1.35-4.388,1.687-6.751c0.338-1.688,2.362-3.037,4.051-2.7C129.943,75.266,131.294,76.953,130.619,78.642z
	 M124.544,100.578c-1.013,2.363-2.024,4.727-3.375,6.751c-2.026,2.7-4.39,1.688-4.726,1.351c-1.688-1.012-2.362-3.037-1.352-4.726
	c1.014-2.024,2.025-4.388,3.038-6.412c0.677-1.688,2.7-2.362,4.39-1.688C124.206,96.529,125.219,98.555,124.544,100.578z
	 M112.395,115.092c1.35,1.014,1.688,3.376,0.674,4.727c-1.688,2.023-3.037,4.05-4.725,5.738c-2.025,2.022-4.051,1.012-4.727,0.338
	c-1.35-1.352-1.688-3.377-0.338-4.728c1.688-1.687,3.039-3.374,4.389-5.399C109.018,114.079,111.043,114.079,112.395,115.092z
	 M39.827,156.943c0,1.688-1.351,3.377-3.375,3.377c-1.013,0-2.363,0-3.375,0c-2.024,0-3.375-1.352-3.375-3.377
	s1.351-3.375,3.375-3.375c1.012,0,2.024,0,3.375,0c-0.337,0-0.337,0,0,0C38.141,153.568,39.49,154.918,39.827,156.943z" class="color c2"/>
</svg>