<svg version="1.1" id="图层_1" x="0px" y="0px" width="123.9px" height="123.9px" viewBox="0 0 123.9 123.9" enable-background="new 0 0 123.9 123.9" xml:space="preserve" xmlns:xml="http://www.w3.org/XML/1998/namespace" xmlns="http://www.w3.org/2000/svg" xmlns:xlink="http://www.w3.org/1999/xlink">
  <path fill="#DF3C20" d="M61.9,0C27.8,0,0,27.8,0,61.9C0,96,27.8,123.8,61.9,123.8C96,123.8,123.8,96,123.8,61.9
	C123.8,27.8,96.1,0,61.9,0z" class="color c1"/>
  <path fill="#FFFFFF" d="M8.9,35.6c1.2-2.4,2.6-4.7,4.1-7c-1.399,3.1-2,6.6,2.8,6.899c3.601,0.2,8-3.2,10.801-4.8
	c7-3.9,13.8-8,20.8-11.8c3.3-1.7,6.7-3.101,10.2-4.2c0.199-0.1,5.6-0.9,3.3,0.9c-5.601,4.6-11.3,9-17,13.399
	c-4.2,3.4-8,7.101-11.5,11.2c-1.5,1.7-3.5,3.9-5.3,6.1c-0.2,0.2-0.301,0.5-0.5,0.801C25.5,49.1,22,55.9,26.3,56.5
	c1.7,0.3,3.4-0.2,5-0.899c5.601-2.4,10.2-7.101,16-9c3.101-1,9.301,0.5,5.5,3.899l0,0c-0.399,0.9-1,1.5-1.899,2.2
	c-1.101,1.1-2.4,2.1-3.7,3c-11.3,8-34.6,21.2-36.9,33.7c-1.699-3-3.1-6-4.199-9.3C3.2,74.4,2.8,67.4,5.6,61.5
	c2-4.2,8.8-7.5,12.6-11.6c1-1.4,1.8-2.8,2-4.3C22,35.8,4.3,50.2,8.9,35.6z M19.7,100.7c27.2-12.3,49-33.8,70.9-53.6
	c3.199-2.9,6.699-5.7,9.199-9.2c5.101-5.101,3.2-9.7-5.5-13.8c-1,0.199-2.1,0.3-3.1,0.5c-3.5,0.6-6.6,1.199-9.9,0
	C74.9,22.3,89.1,10.6,82.5,6.7c-0.1-0.1-0.2-0.2-0.2-0.3C76,4.4,69.2,3.2,62.1,3.2C55.8,3.2,49.7,4.2,44,6C44.1,6.1,44.1,6.2,44,6.3
	c-5.6,6-8.3,9.301,2.601,5.801c6.1-2,12.3-3.9,18.699-4.4c4.5-0.3,11.601-0.5,11.2,5.7C76.1,19.3,68.8,23.6,65.7,28
	c-4.1,5.7,5.8,3.3,6.6,3c1.2-0.3,2.4-0.7,3.601-1c3.1-0.8,6.2-1.5,9.3-1.8c17.7-1.3,4.6,13.2-2.3,19c-10.7,9-20.5,19.2-31.601,27.7
	C45.4,79.5,39.1,83.4,32.9,87.6C27.8,91.1,21.3,93.9,17.3,98.6C17.2,98.8,17.1,98.9,16.9,98.9c0.7,0.8,1.399,1.6,2.2,2.399
	C19.2,101.1,19.4,100.9,19.7,100.7z M96,51.3C95.4,52,96.2,52.9,96.9,52.4c3.2-2.2,6-5,8.7-7.8c2.399-2.5,5.199-4.7,7-7.7
	c0.199-0.3-0.2-0.5-0.5-0.3c-2.4,3-5.801,4.899-8.601,7.399C101.1,46.5,98.4,48.7,96,51.3z M88.6,67.8
	C69.7,82.5,49.7,97.1,28.8,109.4c0.301,0.2,0.7,0.399,1.101,0.6C61.6,91.3,93.2,70.5,118.8,44.3c-0.3-1-0.6-1.899-1-2.8
	C108.8,51,99,59.7,88.6,67.8z M101.9,83.7c3.899-3.6,7.6-7.6,10.5-12c0.2-0.3-0.2-0.6-0.4-0.3C106.2,79.3,98,86.3,90.1,91.9
	c-0.5,0.3-0.2,1.2,0.399,0.899C94.8,90.6,98.4,86.9,101.9,83.7z M98.1,91.3c-2.2,1.7-4.5,3.4-6.7,5.101
	C88.9,98.3,86.1,99.8,83.8,101.8c-0.5,0.4-0.199,1.2,0.4,0.9c5.4-2,10.2-7,14.3-10.8C98.9,91.6,98.6,90.9,98.1,91.3z M42.6,111.1
	C69.1,98.7,94.4,80.5,112.6,57.3c0.3-0.399-0.2-0.8-0.5-0.399C103,68,90.9,76.9,79.4,85.3c-12,8.801-25.7,15.101-37.5,24.2
	C41.1,110.1,41.5,111.6,42.6,111.1z M90.1,85.9c0.399-0.3,0-0.9-0.4-0.601c-10.6,8.801-23.1,14.601-34,23c-0.8,0.601-0.4,2,0.7,1.5
	C62.4,107.1,67.5,102.6,73,99.1C79.1,95.2,84.8,90.8,90.1,85.9z M75.5,116.8c25.2-4.3,41.8-32.199,44.2-41.6
	c-4.6,9.9-12.4,17.6-20.8,24.5c-4.5,3.7-9,7.6-13.8,11C82.6,112.5,78.6,114.5,75.5,116.8z M20.7,105.7c0.3,0.3,0.6,0.6,0.9,0.8
	C41.3,96.6,60.1,83.9,77.1,70c0.699-0.6,0.1-1.6-0.7-1.1c-10.7,6.8-20.7,14.7-31.2,21.7C37.2,96,28.9,100.8,20.7,105.7z" class="color c2"/>
</svg>