<svg version="1.1" id="图层_1" x="0px" y="0px" width="96.822px" height="99.958px" viewBox="0 0 96.822 99.958" enable-background="new 0 0 96.822 99.958" xml:space="preserve" xmlns="http://www.w3.org/2000/svg" xmlns:xlink="http://www.w3.org/1999/xlink" xmlns:xml="http://www.w3.org/XML/1998/namespace">
  <path fill="#1A1B2F" d="M87.85,31.476C90.979,13.524,76.505,7.986,72.908,6.9c-5.767-7.817-14.455-9.078-23.381-3.34
	c-0.689,0.443-1.542,0.443-2.229,0C38.369-2.179,29.683-0.918,23.916,6.9c-0.735,0.222-1.932,0.635-3.335,1.299
	c-0.058,0.02-0.115,0.034-0.173,0.056c-0.175,0.064-0.328,0.157-0.472,0.261C14.562,11.241,6.84,17.554,8.879,30.841
	c0.008,0.043,0.005,0.087,0.016,0.131c0.003,0.014,0.008,0.025,0.011,0.04c0.024,0.155,0.041,0.306,0.068,0.464
	C5.32,34.627-6.052,46.481,4.145,64.7C2.77,71.265,3.641,83.36,15.861,87.754c1.345,2.39,5.974,9.609,13.771,11.658
	c5.304,1.394,10.877,0.115,16.576-3.801c1.338-0.918,3.064-0.918,4.402,0c4.211,2.893,8.354,4.346,12.37,4.346
	c1.419,0,2.822-0.182,4.206-0.545c7.799-2.049,12.428-9.27,13.771-11.658C93.182,83.36,94.052,71.265,92.678,64.7
	C102.874,46.481,91.502,34.627,87.85,31.476z" class="color c1"/>
  <path fill="#F5B23C" d="M88.815,63.379c9.407-16.085-0.201-26.05-3.382-28.735c-0.976,1.235-2.192,2.401-3.707,3.299
	c-0.561,0.331-1.217,0.627-1.918,0.896c1.328,2.51,1.912,6.133-0.74,10.072c-0.387,0.572-1.02,0.883-1.66,0.883
	c-0.385,0-0.773-0.111-1.115-0.342c-0.917-0.617-1.159-1.859-0.542-2.775c2.25-3.34,0.726-5.928-0.18-7.014
	c-0.127,0.004-0.239,0.025-0.369,0.025c-2.444,0-5.36-0.641-8.751-2.357c-1.581,1.578-3.721,2.445-6.198,2.447
	c-0.599,0-1.216-0.051-1.85-0.151c-1.091-0.175-1.834-1.199-1.66-2.29c0.175-1.092,1.207-1.832,2.29-1.66
	c3.543,0.57,5.004-1.351,5.556-2.545c0.877-1.894,0.579-4.224-0.679-5.304c-0.837-0.72-0.933-1.983-0.213-2.819
	c0.719-0.838,1.979-0.937,2.819-0.214c2.408,2.069,3.187,5.772,2.041,9.107c4.392,2.152,8.135,2.374,11.13,0.6
	c3.014-1.785,4.371-5.017,4.516-6.294c0.993-14.397-12.336-17.484-12.948-17.617c-0.496-0.108-0.934-0.401-1.221-0.819
	c-3.193-4.632-8.972-8.883-18.357-2.849c-1.99,1.28-4.563,1.279-6.554,0c-2.521-1.619-5.562-2.974-8.687-2.974
	c-2.78,0-5.624,1.095-8.229,4.005c0.316,0.115,0.623,0.248,0.918,0.398c2.097,1.072,3.581,3.01,4.299,5.602
	c0.293,1.064-0.331,2.166-1.396,2.461c-0.179,0.047-0.356,0.07-0.534,0.07c-0.876,0-1.68-0.58-1.926-1.467
	c-0.421-1.525-1.163-2.542-2.266-3.107c-1.406-0.718-3.416-0.686-5.521,0.092c-0.015,0.006-0.03,0.006-0.045,0.012
	c-4.33,2.16-10.581,7.233-8.929,18.195c0.838,3.919,2.775,8.529,10.249,9.643c1.092,0.164,1.846,1.18,1.684,2.271
	c-0.147,0.994-1.002,1.706-1.976,1.706c-0.098,0-0.197-0.007-0.297-0.022c-1.786-0.266-3.397-0.728-4.853-1.361
	c-0.942,1.513-2.232,4.176-1.687,6.807c0.469,2.254,2.271,4.179,5.355,5.719c0.988,0.492,1.39,1.693,0.896,2.682
	c-0.35,0.701-1.057,1.105-1.79,1.105c-0.301,0-0.604-0.066-0.893-0.211c-4.248-2.119-6.77-4.982-7.491-8.512
	c-0.807-3.938,0.917-7.615,2.205-9.691c-1.567-1.287-2.841-2.893-3.788-4.838c-3.729,3.61-10.998,13.239-2.441,27.872
	c0.266,0.453,0.341,0.994,0.211,1.504c-0.143,0.563-3.104,12.966,6.938,18.195c-0.307-2.477-0.231-5.381,0.939-8.07
	c1.392-3.194,4.016-5.477,7.801-6.78c2.981-1.026,5.735-1.069,8.208-0.149c0.004,0,0.007,0.002,0.01,0.004
	c0.395,0.146,0.781,0.313,1.16,0.512c1.743,0.607,2.922-0.17,3.503-0.746c1.114-1.102,1.521-2.836,0.929-3.951
	c-0.519-0.975-0.149-2.186,0.824-2.705c0.973-0.516,2.187-0.15,2.705,0.826c1.424,2.674,0.731,6.322-1.646,8.674
	c-0.655,0.646-1.396,1.133-2.181,1.484c2.09,2.767,2.878,5.744,2.924,5.928c0.272,1.068-0.373,2.158-1.443,2.43
	c-1.073,0.277-2.158-0.373-2.431-1.443c-0.013-0.045-1.316-4.896-4.84-6.854c-0.296-0.115-0.588-0.254-0.88-0.406
	c-1.611-0.604-3.435-0.547-5.541,0.18c-2.714,0.938-4.488,2.435-5.431,4.58c-1.875,4.283,0.188,9.809,0.579,10.783
	c1.766,2.615,5.302,6.865,10.338,8.181c4.12,1.071,8.587-0.017,13.273-3.234c2.712-1.864,6.219-1.864,8.932,0
	c4.694,3.224,9.164,4.315,13.295,3.228c3.667-0.963,6.523-3.459,8.487-5.754c1.602-2.336,2.16-4.672,1.7-7.142
	c-0.766-4.114-4.136-7.483-6.058-9.114c-4.361,4.129-10.123,4.194-10.292,4.194c-0.001,0-0.001,0-0.003,0
	c-1.104-0.008-1.992-0.909-1.983-2.015c0.008-1.098,0.9-1.984,1.998-1.984c0.004,0,0.006,0,0.009,0
	c0.476-0.001,10.688-0.189,11.095-12.525c0.036-1.104,0.978-1.961,2.063-1.935c1.104,0.037,1.97,0.961,1.934,2.063
	c-0.127,3.857-1.035,6.799-2.344,9.056c2.327,1.959,6.51,6.13,7.515,11.526c0.107,0.578,0.161,1.152,0.19,1.726
	c11.466-4.836,8.278-18.175,8.133-18.763C88.476,64.372,88.551,63.829,88.815,63.379z M63.589,57.088
	c-0.608,0.218-5.772,2.279-4.094,9.82c0.24,1.077-0.438,2.146-1.516,2.385c-0.146,0.033-0.293,0.049-0.438,0.049
	c-0.916,0-1.742-0.633-1.949-1.563c-0.534-2.403-0.524-4.469-0.178-6.239c-0.004,0-0.008,0-0.012,0
	c-1.992,0-3.625-0.358-4.963-1.043v23.473c0,1.104-0.896,1.998-2,1.998c-1.104,0-1.998-0.895-1.998-1.998v-37.65
	c0-1.738-0.301-4.08-1.73-5.369c-1.057-0.957-2.729-1.324-4.967-1.105c-1.527,2.29-3.662,3.625-5.238,4.148
	c-0.211,0.069-0.422,0.102-0.631,0.102c-0.838,0-1.619-0.529-1.897-1.369c-0.347-1.044,0.215-2.17,1.254-2.523
	c0.606-0.215,5.774-2.277,4.096-9.818c-0.242-1.078,0.438-2.146,1.516-2.387c1.076-0.241,2.146,0.439,2.388,1.518
	c0.541,2.424,0.522,4.503,0.168,6.283c1.979,0.066,3.666,0.554,5.045,1.461v-21.1c0-1.104,0.895-1.998,1.998-1.998
	c1.103,0,2,0.895,2,1.998v36.469c0,1.963,0.354,3.158,1.145,3.873c0.978,0.881,2.871,1.205,5.488,0.947
	c1.527-2.293,3.666-3.627,5.242-4.15c1.053-0.352,2.182,0.222,2.529,1.269C65.19,55.61,64.63,56.737,63.589,57.088z" class="color c2"/>
  <path fill="#FFFFFF" d="M60.323,5.942c3.08,0,5.793,1.67,8.063,4.961c0.576,0.842,1.444,1.424,2.444,1.642
	c0.5,0.108,12.223,2.8,11.38,15.473c-0.108,0.784-1.149,3.347-3.543,4.764c-1.033,0.612-2.16,0.909-3.443,0.909
	c-1.299,0-2.744-0.313-4.313-0.932c0.63-3.621-0.515-7.27-3.09-9.48c-0.726-0.624-1.651-0.967-2.605-0.967
	c-1.168,0-2.272,0.508-3.033,1.393c-1.438,1.672-1.247,4.201,0.427,5.642c0.446,0.384,0.732,1.722,0.166,2.948
	c-0.463,1-1.284,1.486-2.512,1.486c-0.283,0-0.591-0.025-0.913-0.078c-0.208-0.033-0.42-0.05-0.63-0.05
	c-1.978,0-3.639,1.417-3.951,3.37c-0.348,2.176,1.143,4.23,3.323,4.58c0.736,0.116,1.465,0.176,2.162,0.176
	c2.472-0.002,4.694-0.716,6.514-2.08c2.691,1.211,5.297,1.875,7.765,1.977c0.638,1.2,0.491,2.504-0.439,3.885
	c-0.597,0.887-0.813,1.952-0.607,3c0.205,1.049,0.806,1.955,1.69,2.551c0.663,0.447,1.436,0.684,2.233,0.684
	c1.332,0,2.572-0.66,3.319-1.765c2.711-4.027,2.473-7.666,1.672-10.169c0.119-0.064,0.233-0.13,0.347-0.196
	c1.004-0.596,1.946-1.322,2.815-2.173c3.825,3.909,8.928,12.226,1.529,24.875c-0.526,0.896-0.683,1.989-0.429,2.996
	c0.113,0.455,2.454,10.279-4.642,15.172c-1.188-4.652-4.352-8.347-6.769-10.609c1.126-2.463,1.749-5.321,1.854-8.524
	c0.072-2.202-1.662-4.055-3.88-4.128l-0.104-0.001c-2.142,0-3.939,1.733-4.011,3.867c-0.338,10.276-8.204,10.591-9.104,10.593
	c-2.188,0-3.982,1.781-3.999,3.973c-0.016,2.205,1.767,4.012,3.987,4.026c0.246,0,5.558-0.045,10.237-3.539
	c1.66,1.63,3.633,4.067,4.146,6.824c0.356,1.916-0.063,3.687-1.324,5.558c-2.293,2.655-4.784,4.35-7.406,5.038
	c-0.861,0.228-1.754,0.343-2.653,0.343c-2.798,0-5.826-1.104-8.999-3.283c-1.666-1.146-3.602-1.75-5.599-1.75s-3.935,0.604-5.6,1.75
	c-3.171,2.178-6.2,3.281-9.005,3.281c-0.892,0-1.776-0.111-2.631-0.334c-4.336-1.132-7.497-4.908-9.063-7.185
	c-0.417-1.101-1.991-5.699-0.528-9.04c0.715-1.63,2.066-2.738,4.251-3.493c0.931-0.319,1.788-0.483,2.548-0.483
	c0.553,0,1.059,0.082,1.541,0.252c0.287,0.145,0.553,0.268,0.808,0.373c2.663,1.561,3.771,5.526,3.773,5.541
	c0.452,1.774,2.043,3.016,3.869,3.016c0.336,0,0.673-0.043,0.992-0.126c1.036-0.263,1.907-0.915,2.453-1.833
	c0.546-0.92,0.699-1.996,0.438-3.021c-0.029-0.115-0.595-2.324-2.053-4.818c0.271-0.215,0.529-0.442,0.774-0.686
	c2.992-2.959,3.837-7.6,2.007-11.035c-0.695-1.309-2.051-2.121-3.533-2.121c-0.651,0-1.301,0.162-1.878,0.471
	c-1.943,1.035-2.686,3.462-1.649,5.41c0.104,0.195,0.033,0.992-0.57,1.59c-0.26,0.257-0.551,0.388-0.861,0.388
	c-0.144,0-0.298-0.024-0.465-0.073c-0.393-0.195-0.806-0.375-1.231-0.533c-0.001,0-0.003-0.002-0.005-0.002
	c-0.009-0.004-0.018-0.006-0.026-0.01c-1.39-0.515-2.864-0.773-4.386-0.773c-1.653,0-3.386,0.309-5.148,0.916
	c-4.337,1.492-7.358,4.142-8.983,7.871c-0.648,1.49-1.048,3.117-1.195,4.869c-4.975-5.149-3.009-13.308-2.91-13.699
	c0.264-1.027,0.112-2.098-0.422-3.008c-6.548-11.197-3.252-19.067,0.376-23.538c0.487,0.681,1.023,1.318,1.605,1.91
	c-1.32,2.561-2.398,5.992-1.642,9.694c0.853,4.161,3.73,7.492,8.561,9.9c0.552,0.275,1.168,0.421,1.783,0.421
	c1.528,0,2.9-0.849,3.579-2.212c0.479-0.956,0.555-2.041,0.216-3.057c-0.339-1.014-1.054-1.834-2.007-2.309
	c-2.511-1.253-3.954-2.712-4.292-4.336c-0.276-1.336,0.139-2.768,0.655-3.91c1.149,0.377,2.36,0.66,3.612,0.848
	c0.195,0.03,0.399,0.046,0.608,0.046c1.966,0,3.665-1.467,3.953-3.411c0.323-2.18-1.187-4.219-3.366-4.544
	c-6.193-0.923-7.79-4.395-8.575-8.022c-1.369-9.241,3.406-13.787,7.722-15.982c0.851-0.311,1.687-0.475,2.422-0.475
	c0.583,0,1.094,0.103,1.472,0.296c0.367,0.188,0.897,0.587,1.251,1.862c0.479,1.727,2.063,2.932,3.853,2.932
	c0.354,0,0.706-0.047,1.067-0.143c2.123-0.588,3.375-2.795,2.79-4.922c-0.688-2.48-1.975-4.476-3.765-5.863
	c1.489-1.079,3.092-1.608,4.848-1.608c2.303,0,4.86,0.894,7.604,2.657c1.3,0.834,2.808,1.276,4.358,1.276s3.059-0.442,4.357-1.277
	C55.508,6.838,58.053,5.942,60.323,5.942 M44.442,34.219c-0.268-0.07-0.538-0.132-0.814-0.185c0.085-1.586-0.063-3.245-0.445-4.957
	c-0.404-1.814-2.045-3.131-3.901-3.131c-0.294,0-0.588,0.033-0.872,0.098c-1.044,0.231-1.935,0.857-2.508,1.76
	c-0.572,0.902-0.759,1.975-0.525,3.014c1.278,5.738-2.117,7.252-2.787,7.49c-2.07,0.703-3.196,2.967-2.508,5.047
	c0.545,1.639,2.07,2.738,3.796,2.738c0.427,0,0.85-0.068,1.263-0.203c2.1-0.699,4.159-2.201,5.667-4.107c0.046,0,0.09,0,0.135,0
	c0.781,0,1.838,0.112,2.434,0.65c0.681,0.613,1.069,2.029,1.069,3.885v37.649c0,2.205,1.794,4,3.998,4c2.206,0,4-1.795,4-4V63.269
	c0.244,0.049,0.493,0.09,0.747,0.125c-0.069,1.541,0.082,3.153,0.453,4.817c0.401,1.814,2.044,3.131,3.9,3.131
	c0.293,0,0.587-0.031,0.872-0.096c1.043-0.231,1.933-0.856,2.505-1.759c0.573-0.901,0.762-1.972,0.528-3.015
	c-1.277-5.734,2.117-7.254,2.783-7.49c2.074-0.701,3.201-2.965,2.513-5.047c-0.545-1.641-2.069-2.74-3.795-2.74
	c-0.43,0-0.854,0.068-1.263,0.205c-2.107,0.699-4.174,2.209-5.684,4.121c-0.195,0.01-0.388,0.014-0.569,0.014
	c-1.842,0-2.413-0.432-2.506-0.516c-0.183-0.164-0.486-0.693-0.486-2.391V16.157c0-2.205-1.794-3.998-4-3.998
	c-2.204,0-3.998,1.793-3.998,3.998L44.442,34.219 M60.323,3.942c-2.462,0-5.328,0.848-8.646,2.98
	c-0.995,0.641-2.137,0.96-3.276,0.96c-1.143,0-2.282-0.32-3.277-0.96c-2.521-1.619-5.562-2.974-8.687-2.974
	c-2.78,0-5.624,1.095-8.229,4.005c0.316,0.115,0.623,0.248,0.918,0.398c2.097,1.072,3.581,3.01,4.299,5.602
	c0.294,1.064-0.33,2.166-1.396,2.461c-0.179,0.047-0.356,0.07-0.534,0.07c-0.876,0-1.68-0.58-1.926-1.467
	c-0.421-1.525-1.163-2.542-2.266-3.107c-0.675-0.344-1.487-0.516-2.384-0.516c-0.973,0-2.042,0.203-3.139,0.607
	c-0.015,0.006-0.03,0.006-0.045,0.012c-4.33,2.16-10.581,7.233-8.929,18.195c0.838,3.919,2.775,8.529,10.249,9.643
	c1.092,0.164,1.846,1.18,1.684,2.271c-0.146,0.994-1.002,1.706-1.976,1.706c-0.098,0-0.197-0.007-0.296-0.022
	c-1.787-0.266-3.398-0.728-4.854-1.361c-0.942,1.513-2.232,4.176-1.687,6.807c0.469,2.254,2.271,4.179,5.355,5.719
	c0.988,0.492,1.39,1.693,0.896,2.682c-0.35,0.701-1.057,1.105-1.79,1.105c-0.301,0-0.604-0.066-0.893-0.211
	c-4.248-2.119-6.77-4.982-7.491-8.512c-0.807-3.938,0.917-7.615,2.205-9.691c-1.567-1.287-2.841-2.893-3.788-4.838
	C6.695,39.118-0.573,48.747,7.983,63.379c0.266,0.453,0.341,0.994,0.211,1.504c-0.143,0.563-3.104,12.966,6.938,18.195
	c-0.307-2.477-0.231-5.381,0.939-8.07c1.392-3.194,4.016-5.477,7.801-6.78c1.564-0.539,3.066-0.808,4.498-0.808
	c1.296,0,2.535,0.22,3.71,0.656c0.004,0.002,0.007,0.002,0.01,0.004c0.395,0.146,0.781,0.314,1.16,0.512
	c0.448,0.156,0.859,0.222,1.233,0.222c1.077,0,1.838-0.539,2.27-0.967c1.114-1.103,1.521-2.837,0.929-3.951
	c-0.519-0.976-0.149-2.187,0.824-2.705c0.3-0.157,0.62-0.233,0.938-0.233c0.715,0,1.408,0.385,1.768,1.061
	c1.425,2.674,0.731,6.322-1.646,8.674c-0.655,0.646-1.396,1.133-2.18,1.484c2.089,2.767,2.877,5.744,2.923,5.928
	c0.272,1.068-0.373,2.158-1.443,2.43c-0.167,0.043-0.335,0.064-0.5,0.064c-0.892,0-1.7-0.605-1.931-1.508
	c-0.013-0.045-1.316-4.896-4.84-6.854c-0.296-0.114-0.588-0.254-0.88-0.405c-0.733-0.275-1.513-0.414-2.342-0.414
	c-0.99,0-2.053,0.197-3.199,0.594c-2.714,0.936-4.488,2.434-5.431,4.58c-1.875,4.283,0.188,9.808,0.579,10.781
	c1.766,2.617,5.302,6.867,10.338,8.182c1.024,0.266,2.07,0.398,3.136,0.398c3.221,0,6.616-1.216,10.139-3.634
	c1.354-0.933,2.91-1.397,4.466-1.397c1.555,0,3.108,0.465,4.466,1.397c3.521,2.416,6.913,3.636,10.132,3.636
	c1.074,0,2.129-0.136,3.163-0.408c3.667-0.963,6.523-3.459,8.487-5.754c1.602-2.336,2.16-4.672,1.7-7.142
	c-0.766-4.114-4.136-7.483-6.058-9.114C65.93,77.665,60.169,77.73,60,77.73c-0.001,0-0.001,0-0.003,0
	c-1.104-0.008-1.992-0.91-1.983-2.015c0.008-1.098,0.9-1.984,1.999-1.984c0.003,0,0.005,0,0.008,0
	c0.476-0.001,10.688-0.189,11.095-12.525c0.035-1.086,0.947-1.935,2.012-1.935c0.018,0,0.034,0,0.053,0
	c1.104,0.037,1.969,0.961,1.933,2.063c-0.127,3.857-1.035,6.799-2.344,9.056c2.328,1.959,6.51,6.13,7.515,11.526
	c0.107,0.578,0.161,1.152,0.19,1.726c11.466-4.836,8.278-18.175,8.133-18.763c-0.128-0.508-0.053-1.051,0.212-1.5
	c9.407-16.085-0.201-26.05-3.382-28.735c-0.976,1.235-2.192,2.401-3.707,3.299c-0.561,0.331-1.216,0.627-1.918,0.896
	c1.328,2.51,1.912,6.133-0.74,10.072c-0.387,0.572-1.019,0.883-1.66,0.883c-0.385,0-0.772-0.111-1.115-0.342
	c-0.917-0.617-1.158-1.859-0.542-2.775c2.25-3.34,0.726-5.928-0.18-7.014c-0.127,0.004-0.239,0.025-0.369,0.025
	c-2.443,0-5.359-0.641-8.751-2.357c-1.581,1.578-3.721,2.445-6.198,2.447c-0.599,0-1.216-0.051-1.85-0.151
	c-1.091-0.175-1.834-1.199-1.66-2.29c0.157-0.986,1.014-1.685,1.977-1.685c0.104,0,0.209,0.008,0.313,0.024
	c0.44,0.071,0.851,0.104,1.229,0.104c2.664,0,3.844-1.604,4.326-2.648c0.878-1.894,0.579-4.224-0.679-5.304
	c-0.837-0.72-0.933-1.983-0.213-2.819c0.396-0.461,0.954-0.697,1.518-0.697c0.461,0,0.925,0.158,1.303,0.483
	c2.409,2.069,3.187,5.772,2.041,9.107c2.425,1.188,4.652,1.788,6.666,1.788c1.632,0,3.122-0.395,4.464-1.188
	c3.014-1.785,4.371-5.017,4.516-6.294C85.2,13.811,71.871,10.724,71.259,10.591c-0.495-0.108-0.934-0.401-1.221-0.819
	C67.97,6.778,64.824,3.942,60.323,3.942L60.323,3.942z M46.442,37.257v-21.1c0-1.104,0.895-1.998,1.998-1.998
	c1.103,0,2,0.895,2,1.998v36.472c0,1.963,0.354,3.158,1.145,3.873c0.76,0.686,2.072,1.033,3.849,1.033
	c0.51,0,1.057-0.029,1.641-0.086c1.527-2.293,3.666-3.627,5.242-4.15c0.21-0.069,0.423-0.104,0.633-0.104
	c0.84,0,1.618,0.533,1.896,1.371c0.346,1.043-0.216,2.17-1.257,2.521c-0.608,0.217-5.772,2.279-4.094,9.818
	c0.24,1.078-0.438,2.146-1.516,2.387c-0.146,0.033-0.293,0.049-0.438,0.049c-0.916,0-1.742-0.633-1.949-1.564
	c-0.534-2.404-0.524-4.469-0.178-6.24c-0.004,0-0.008,0-0.012,0c-1.992,0-3.625-0.357-4.963-1.043v23.473c0,1.105-0.896,2-2,2
	c-1.104,0-1.998-0.896-1.998-2V46.318c0-1.738-0.301-4.08-1.73-5.369c-0.858-0.777-2.126-1.166-3.771-1.166
	c-0.378,0-0.776,0.02-1.194,0.061c-1.527,2.29-3.662,3.625-5.238,4.148c-0.211,0.069-0.422,0.102-0.631,0.102
	c-0.838,0-1.619-0.529-1.897-1.369c-0.347-1.044,0.215-2.17,1.254-2.523c0.606-0.215,5.774-2.277,4.096-9.818
	c-0.242-1.078,0.438-2.146,1.517-2.387c0.146-0.032,0.293-0.049,0.438-0.049c0.915,0,1.741,0.635,1.949,1.566
	c0.541,2.424,0.522,4.503,0.168,6.283C43.376,35.862,45.063,36.35,46.442,37.257L46.442,37.257z" class="color c3"/>
</svg>