<svg version="1.1" id="图层_1" x="0px" y="0px" width="46.033px" height="44.656px" viewBox="0 0 46.033 44.656" enable-background="new 0 0 46.033 44.656" xml:space="preserve" xmlns="http://www.w3.org/2000/svg" xmlns:xlink="http://www.w3.org/1999/xlink" xmlns:xml="http://www.w3.org/XML/1998/namespace">
  <path fill="#FFFFFF" d="M34.73,6.926c6.328,0.015,11.303,0.053,11.303,0.053V0.135c0,0-32.143-0.804-38.494,1.508
	C1.158,3.962,0,13.237,0,13.237l1.392,0.464c0,0,2.087-6.024,8.001-6.491c0.922-0.071,2.447-0.127,4.365-0.169
	c0.26,3.843,0.617,19.55-9.699,29.968c0,0-2.785,4.867,3.015,7.418c0,0,5.219,1.855,7.307-4.986c0,0,2.781-8.346,3.016-19.479
	l0.853-12.989c3.21-0.034,6.866-0.048,10.46-0.051l-2.27,28.693c0,0,0.926,12.641,13.563,7.656c0,0,5.451-3.131,5.912-11.944H43.83
	c0,0-4.406,8.579-8.581,4.522c0,0-2.319-1.159-1.626-13.104L34.73,6.926z" class="color c1"/>
</svg>