<svg version="1.1" id="图层_1" x="0px" y="0px" width="59.631px" height="57.523px" viewBox="0 0 59.631 57.523" enable-background="new 0 0 59.631 57.523" xml:space="preserve" xmlns="http://www.w3.org/2000/svg" xmlns:xlink="http://www.w3.org/1999/xlink" xmlns:xml="http://www.w3.org/XML/1998/namespace">
  <path fill="#06BAE3" d="M45.053,19.663c3.247,0.727,6.738-0.165,9.251-2.664c2.815-2.825,3.578-6.907,2.301-10.424l-7.378,7.38
	c-1.478-0.188-2.715-0.643-3.66-1.382l-0.969-0.966c-0.724-0.911-1.176-2.118-1.356-3.63l7.388-7.388
	C47.111-0.671,43.021,0.085,40.198,2.9c-2.498,2.521-3.387,6.019-2.663,9.243c0.219,0.95-0.084,1.952-0.77,2.632L1.72,48.107
	C0.645,49.13,0.023,50.541,0,52.026C-0.022,53.51,0.55,54.944,1.595,56c0.983,0.995,2.33,1.544,3.729,1.521s2.727-0.61,3.682-1.634
	l33.41-35.453C43.105,19.749,44.124,19.453,45.053,19.663z M5.245,54.829c-1.572,0-2.849-1.277-2.849-2.849
	c0-1.572,1.276-2.848,2.849-2.848c1.574,0,2.849,1.275,2.849,2.848C8.093,53.552,6.819,54.829,5.245,54.829z M6.731,47.777
	c0,0,1.462,0.851,2.104,2.83c-1.981-3.627-4.811-2.123-4.811-2.123L37.7,15.797L6.731,47.777z M41.044,17.797
	c-0.156-0.125-0.345-0.228-0.479-0.36c-0.161-0.146-0.324-0.293-0.471-0.427c-0.146-0.161-0.277-0.309-0.409-0.471
	c-0.149-0.146-0.26-0.322-0.379-0.484c-0.103-0.153-0.212-0.3-0.308-0.464c-0.09-0.162-0.17-0.322-0.235-0.455
	c-0.146-0.266-0.229-0.506-0.286-0.696c-0.069-0.155-0.106-0.264-0.106-0.264s0.084,0.08,0.185,0.212
	c0.125,0.146,0.271,0.375,0.457,0.589c0.108,0.124,0.213,0.241,0.322,0.387c0.104,0.134,0.227,0.249,0.345,0.412
	c0.244,0.279,0.522,0.565,0.801,0.86c0.279,0.264,0.557,0.559,0.853,0.784c0.14,0.117,0.269,0.249,0.402,0.361
	c0.135,0.096,0.265,0.197,0.377,0.293c0.241,0.195,0.455,0.345,0.586,0.457c0.133,0.115,0.214,0.185,0.214,0.185
	s-0.079-0.021-0.261-0.082c-0.164-0.078-0.419-0.146-0.697-0.293C41.692,18.207,41.351,18.038,41.044,17.797z M2.29,8.74
	c-0.253-0.255-0.253-0.666,0-0.921l7.636-7.635c0.242-0.246,0.675-0.246,0.919,0l16.911,16.911l-6.61,6.287
	c-0.2-0.033-0.411,0.016-0.565,0.171l-1.737,1.736l-1.511-1.51l1.738-1.737c0.253-0.253,0.253-0.667,0-0.92
	c-0.254-0.253-0.666-0.253-0.92,0l-1.737,1.738l-1.511-1.51l4.288-4.29c0.254-0.252,0.254-0.662,0-0.918
	c-0.253-0.253-0.665-0.253-0.918,0l-4.289,4.289l-1.509-1.509l1.397-1.398c0.253-0.254,0.253-0.665,0-0.919
	c-0.254-0.254-0.666-0.254-0.919,0l-1.397,1.397l-1.51-1.511l1.396-1.396c0.254-0.255,0.254-0.666,0-0.919s-0.665-0.253-0.919,0
	l-1.397,1.396l-1.511-1.51l1.397-1.398c0.254-0.254,0.254-0.666,0-0.917c-0.253-0.253-0.665-0.253-0.919,0l-1.396,1.396
	l-1.511-1.511l1.397-1.397c0.254-0.253,0.254-0.664,0-0.919c-0.254-0.253-0.666-0.253-0.919,0l-1.397,1.398L2.29,8.74z
	 M59.439,49.698l-7.637,7.636c-0.122,0.12-0.286,0.189-0.46,0.189c-0.172,0-0.338-0.067-0.46-0.189l-1.979-1.979l2.065-2.063
	c0.254-0.255,0.254-0.666,0-0.919c-0.253-0.254-0.665-0.254-0.918,0l-2.066,2.063l-1.508-1.51l2.063-2.063
	c0.253-0.252,0.253-0.664,0-0.918c-0.254-0.254-0.665-0.254-0.919,0l-2.063,2.063l-1.512-1.511l2.064-2.062
	c0.254-0.254,0.254-0.666,0-0.92c-0.253-0.253-0.665-0.253-0.918,0l-2.065,2.063L41.62,48.07l2.063-2.063
	c0.254-0.253,0.254-0.667,0-0.921c-0.253-0.253-0.664-0.253-0.918,0l-2.063,2.064l-1.509-1.509l4.628-4.631
	c0.254-0.254,0.254-0.666,0-0.92c-0.253-0.253-0.665-0.253-0.918,0l-4.629,4.631l-1.511-1.509l1.737-1.736
	c0.252-0.255,0.252-0.668,0-0.921c-0.254-0.253-0.665-0.253-0.92,0l-1.736,1.736l-1.51-1.509l1.737-1.737
	c0.254-0.254,0.254-0.667,0-0.92c-0.253-0.252-0.666-0.252-0.919,0l-1.738,1.737l-1.51-1.509l1.74-1.739
	c0.13-0.13,0.191-0.302,0.188-0.471l6.295-6.679l19.313,19.312C59.695,49.032,59.695,49.442,59.439,49.698z" class="color c1"/>
</svg>