<svg version="1.1" id="图层_1" x="0px" y="0px" width="137.482px" height="146.648px" viewBox="0 0 137.482 146.648" enable-background="new 0 0 137.482 146.648" xml:space="preserve" xmlns="http://www.w3.org/2000/svg" xmlns:xlink="http://www.w3.org/1999/xlink" xmlns:xml="http://www.w3.org/XML/1998/namespace">
  <path fill="#FFFFFF" d="M114.569,34.371c3.79,0,6.874,3.084,6.874,6.874v9.166h-4.582v-9.166c0-1.265-1.027-2.291-2.292-2.291
	s-2.292,1.026-2.292,2.291v9.166h-4.582v-9.166C107.695,37.455,110.779,34.371,114.569,34.371z M77.907,100.82
	c0.587,0,1.173-0.224,1.62-0.671l4.583-4.583l-3.241-3.24l-2.962,2.963l-2.962-2.963l-3.241,3.24l4.583,4.583
	C76.734,100.596,77.32,100.82,77.907,100.82z M126.025,132.901c0,7.582-6.166,13.748-13.748,13.748H100.82H20.224
	c-6.098,0-11.059-5.14-11.059-11.457c0-1.268,1.025-2.291,2.292-2.291h2.291v-2.292c0-6.317,5.141-11.457,11.457-11.457h7.761
	l-0.274-0.46c-6.318-10.643-6.853-23.624-1.431-34.723l12.55-23.19c0.083-0.151,0.186-0.284,0.293-0.415
	c-0.364-1.352-0.568-2.754-0.568-4.191V41.245h4.583v14.927c0,3.063,1.193,5.938,3.357,8.104l17.266,17.266l17.266-17.265
	c2.162-2.164,3.356-5.041,3.356-8.104V41.245h4.583v14.927c0,1.872-0.338,3.692-0.951,5.405l12.07,22.307
	c5.465,11.179,4.933,24.161-1.383,34.808l-0.273,0.46h8.867C119.859,119.151,126.025,125.318,126.025,132.901z M103.037,108.691
	c2.119-7.481,1.459-15.546-2.045-22.71L90.59,66.759l-0.188,0.36C89.855,69.254,85.196,89.796,103.037,108.691z M35.099,113.439
	c0.458,0.99,0.972,1.964,1.534,2.912l1.659,2.801h5.243c0-5.055,4.11-9.166,9.166-9.166c5.055,0,9.165,4.112,9.165,9.166h13.747
	c0-5.055,4.111-9.166,9.166-9.166s9.166,4.112,9.166,9.166h4.131l1.661-2.797c0.563-0.951,1.077-1.923,1.535-2.913
	C85.22,97.627,84.155,80.638,84.987,71.775L70.36,86.401c-0.446,0.447-1.033,0.671-1.619,0.671c-0.588,0-1.174-0.224-1.623-0.673
	L51.253,70.533C52.287,78.972,51.934,96.856,35.099,113.439z M84.781,114.568c-2.527,0-4.582,2.056-4.582,4.583v1.343l4.582,4.583
	l4.583-4.583v-1.343C89.364,116.625,87.308,114.568,84.781,114.568z M52.702,114.568c-2.527,0-4.583,2.056-4.583,4.583v1.343
	l4.583,4.583l4.583-4.583v-1.343C57.285,116.624,55.229,114.568,52.702,114.568z M33.337,108.694
	c17.915-18.955,13.201-39.421,12.641-41.573l-0.19-0.362L35.338,86.064C31.866,93.167,31.215,101.217,33.337,108.694z
	 M121.442,132.9c0-5.056-4.111-9.166-9.166-9.166c-3.789,0-6.873,3.084-6.873,6.874h-4.584c0-2.589,0.896-4.954,2.352-6.874H92.604
	l-6.203,6.203c-0.446,0.446-1.033,0.671-1.62,0.671c-0.586,0-1.174-0.225-1.62-0.671l-6.202-6.203H60.525l-6.203,6.203
	c-0.447,0.446-1.033,0.671-1.62,0.671s-1.173-0.225-1.62-0.671l-6.203-6.203H25.205c-3.79,0-6.874,3.084-6.874,6.874v2.292h20.623
	v4.582H14.118c0.891,2.667,3.29,4.583,6.106,4.583h80.596h0.424c-0.969-1.334-1.66-2.893-1.994-4.583H43.536v-4.583h57.784
	c1.268,0,2.291,1.023,2.291,2.291c0,3.791,2.905,6.875,6.477,6.875h2.189C117.332,142.065,121.442,137.955,121.442,132.9z
	 M59.576,100.82c0.587,0,1.174-0.224,1.62-0.671l4.583-4.583l-3.24-3.24l-2.963,2.963l-2.963-2.963l-3.24,3.24l4.583,4.583
	C58.402,100.596,58.99,100.82,59.576,100.82z M62.539,107.023l4.582,4.583c0.447,0.446,1.033,0.671,1.621,0.671
	c0.586,0,1.173-0.225,1.619-0.671l4.584-4.583l-3.241-3.24l-2.962,2.963l-2.963-2.963L62.539,107.023z M20.622,20.57
	c0.023-0.919,0.589-1.733,1.441-2.074L67.891,0.165c0.546-0.22,1.154-0.22,1.699,0l45.828,18.331
	c0.853,0.342,1.419,1.157,1.442,2.074c0,0.018-0.008,0.034-0.008,0.053h0.008V32.08h-4.584v-7.897l-20.622,9.374v3.106
	c0,0.988-0.629,1.861-1.567,2.172l-3.719,1.24c0.447,1.088,0.703,2.25,0.703,3.462c0,5.055-4.11,9.166-9.165,9.166
	c-4.278,0-7.85-2.956-8.856-6.925c-0.104,0.014-0.205,0.051-0.309,0.051c-0.105,0-0.204-0.044-0.308-0.058
	c-1.004,3.972-4.578,6.932-8.858,6.932c-5.055,0-9.166-4.111-9.166-9.166c0-1.485,0.36-2.904,1.027-4.187l-4.14-1.588
	c-0.887-0.342-1.471-1.191-1.471-2.141v-2.066L21.965,22.708C21.131,22.33,20.602,21.486,20.622,20.57z M64.09,44.205l-8.292-3.183
	c-0.5,0.747-0.804,1.597-0.804,2.514c0,2.528,2.055,4.583,4.582,4.583C61.874,48.119,63.764,46.414,64.09,44.205z M82.49,43.536
	c0-0.715-0.213-1.375-0.52-1.996l-8.56,2.854c0.403,2.117,2.265,3.726,4.496,3.726C80.434,48.119,82.49,46.063,82.49,43.536z
	 M87.072,22.275l-16.027-5.344l-0.012,17.441l-4.583-0.005l0.012-17.444L50.41,22.274v9.805v1.966l18.385,7.059l18.277-6.094v-2.93
	V22.275z M28.748,20.754l17.08,7.767v-7.898c0-0.987,0.629-1.859,1.566-2.172l20.623-6.873c0.234-0.078,0.48-0.119,0.725-0.119
	c0.243,0,0.491,0.041,0.724,0.119l20.622,6.874c0.938,0.312,1.567,1.184,1.567,2.172v7.898l17.081-7.767L68.742,4.759L28.748,20.754
	z M68.742,57.737l-2.677-4.015l-3.813,2.541l4.583,6.874c0.428,0.639,1.143,1.021,1.907,1.021s1.48-0.383,1.906-1.02l4.582-6.874
	l-3.813-2.541L68.742,57.737z" class="color c1"/>
  <path fill="#FFFFFF" d="M128.316,98.529h4.584v4.583h-4.584V98.529z M128.316,112.277h4.584v-4.583h-4.584V112.277z
	 M123.734,107.695h4.582v-4.583h-4.582V107.695z M132.9,107.695h4.582v-4.583H132.9V107.695z" class="color c1"/>
  <path fill="#FFFFFF" d="M4.583,34.371h4.583v4.583H4.583V34.371z M4.583,48.119h4.583v-4.583H4.583V48.119z M0,43.536h4.583v-4.583
	H0V43.536z M9.166,43.536h4.583v-4.583H9.166V43.536z" class="color c1"/>
</svg>