<svg version="1.1" id="图层_1" x="0px" y="0px" width="239.054px" height="123.795px" viewBox="0 0 239.054 123.795" enable-background="new 0 0 239.054 123.795" xml:space="preserve" xmlns="http://www.w3.org/2000/svg" xmlns:xlink="http://www.w3.org/1999/xlink" xmlns:xml="http://www.w3.org/XML/1998/namespace">
  <g>
    <path fill="#F7931E" d="M35.523,106.599c0,0-10.591,1.845-16.28,2.449s-11.545,0.674-13.587,0.725
		C3.699,110.092,0,108.604,0,108.604s-0.133,2.393,4.553,3.278c4.334,0.701,11.545-0.674,19.727-1.765
		c7.914-1.007,10.507-2.112,10.507-2.112s2.762,4.132,5.039,5.771c1.925,1.455,4.452,3.897,4.452,3.897l-6.68-8.197
		c0,0,3.414,2.458,6.661,4.381c3.247,1.923,6.561,5.001,6.561,5.001l-7.583-7.326c0,0,3.899,0.249,8.2,2.724
		c4.385,2.743,10.628,5.785,10.628,5.785l-7.951-6.623c0,0,3.028-0.654,7.665,2.892c4.636,3.546,12.469,6.973,12.469,6.973
		l-8.921-6.907c0,0,0.302,2.844,8.703,4.33c8.584,1.135,18.307,3.089,18.307,3.089s-10.241-2.673-14.81-5.064
		s-9.122-5.669-9.122-5.669s6.226,3.93,12.937,5.651c6.794,1.989,15.546,3.659,15.546,3.659s-7.011,0.137-8.752-1.67
		c-1.741-1.806-10.176-6.221-10.176-6.221s8.954,5.134,17.455,6c8.584,1.135,16.231,0.211,16.231,0.211s-3.28-0.149-7.179-0.399
		c-4.786-0.266-10.542-0.816-10.977-1.267c-0.435-0.452,19.31,1.599,25.367,0.291c0,0-13.638-1.317-18.056-2.285
		c-4.15-1.053-8.719-3.444-8.719-3.444s-3.817-4.684-5.574-5.603c-2.025-0.836-7.213-3.327-7.213-3.327s14.291,4.345,23.462,7.353
		c9.438,2.925,14.81,5.064,20.851,4.644c6.04-0.421,13.703-2.231,16.413-4.842c2.71-2.611,9.686-5.676,18.753-11.452
		c9.067-5.776,15.122-11.786,15.122-11.786s-8.466,2.061-18.121,1.262c-9.387-0.883-26.707-4.575-26.707-4.575
		s3.529-3.75,15.309-2.733c11.78,1.016,15.044,2.052,24.915,0.727c9.872-1.326,15.058-3.536,15.058-3.536s-12.064-0.046-13.57-0.162
		c-1.774-0.033-6.978-1.637-5.472-1.521c1.774,0.033,19.695,0.009,19.695,0.009l-19.829-2.318c0,0,7.111-0.756,13.319-0.641
		c6.208,0.115,13.352-2.415,13.352-2.415l-13.035-0.33l-14.541-0.446c0,0,0.903-0.87,13.068-1.444
		c12.165-0.574,16.799-1.73,16.799-1.73l0.133-2.393l-6.108-0.734c0,0,8.566-2.681,12.347-5.627c4.048-3.03,4.048-3.03,4.048-3.03
		l-7.044,1.91c0,0,6.909-4.219,11.509-8.304c4.6-4.085,9.316-9.675,9.316-9.675l-5.989,2.462c0,0,2.861-1.189,6.49-5.558
		c3.629-4.369,7.326-7.583,7.326-7.583l-7.16,3.416c0,0,2.342-1.908,6.874-7.148c4.265-5.155,5.736-7.967,5.736-7.967l-7.21,6.077
		c0,0,2.526-2.26,6.004-8.051c3.394-6.059,4.363-10.476,5.266-11.347C236.763,3.95,239.054,0,239.054,0s-5.754,4.152-6.49,5.558
		s-6.656,9.724-6.656,9.724c-6.691,6.796-21.845,20.355-26.897,24.875c-14.319,11.534-31.885,21.146-44.248,27.66
		c-18.001,9.16-49.119,22.424-57.517,25.64C88.228,96.573,61.358,105.568,35.523,106.599z" class="color c1"/>
    <path fill="#F7931E" d="M33.95,105.328c0,0-0.32-6.66,2.054-10.342l-0.834,6.727c0,0,1.12-2.996,3.311-6.326
		c1.923-3.247,4.449-5.507,4.449-5.507s-4.565,7.013-5.134,8.954c-0.568,1.941-0.517,3.983-0.517,3.983s0.636-0.787,2.007-2.979
		c0.819-1.138,1.823-2.628,3.01-4.469c3.562-5.523,5.368-7.264,5.368-7.264s-4.431,9.322,0.102,4.083
		c4.265-5.155,10.354-8.237,10.354-8.237s-10.22,10.546-10.671,10.981c-0.452,0.435,4.851-3.281,8.096-6.06
		c3.513-2.863,7.277-4.922,8.615-5.341c1.422-0.151-6.49,5.558-9.1,7.55c-2.342,1.908-7.042,6.612-7.042,6.612
		s3.999-0.37,7.528-4.119c3.529-3.75,9.484-9.14,10.739-9.826c0.719-0.519,4.299-2.227,6.893-3.332
		c1.79-0.854,3.045-1.541,3.045-1.541s-8.448,5.876-11.158,8.488c-2.71,2.611-6.556,9.105-6.556,9.105l6.341-2.278
		c0,0,3.595-7.297,5.501-9.657c1.823-2.628,10.923-10.178,10.923-10.178s-7.594,7.667-9.617,11.533
		c-2.023,3.866-1.905,7.062-1.905,7.062s7.011-0.137,12.379-7.401c5.368-7.264,8.612-14.745,10.602-16.837
		c1.99-2.092-5.552,7.616-5.234,9.573c0.319,1.958-3.879,8.268-3.879,8.268s4.216-2.495,6.239-6.361
		c2.023-3.866,7.424-12.904,7.424-12.904s-2.24,5.991-4.179,10.125c-1.672,4.05-1.672,4.05-1.672,4.05s2.542-3.147,5.368-7.264
		c2.826-4.117,5.753-8.854,5.753-8.854s-0.552,1.054-2.056,5.64c-1.504,4.585-3.828,10.309-3.828,10.309s2.641-8.468,6.721-13.272
		c4.081-4.804,1.772-4.669,13.45-7.736c11.678-3.067,19.307-7.805,19.307-7.805s-11.225,7.333-12.964,10.229
		c-1.739,2.895-6.337,11.682-6.337,11.682s5.235-4.871,10.22-10.546c4.984-5.674,11.859-12.822,11.859-12.822l-13.563,18.646
		c0,0,1.741,1.806,7.912-5.709c6.172-7.515,9.633-12.419,11.156-13.19c1.522-0.77,4.935-3.014,6.106-3.968
		c1.255-0.687,1.255-0.687,1.255-0.687s-7.745,6.244-9.668,9.491c-1.388,3.079-6.405,10.527-6.405,10.527s3.697-3.214,9.367-7.634
		c5.671-4.42,11.842-11.935,11.842-11.935l-8.076,14.577c0,0,1.355-1.306,7.526-8.821c6.172-7.515,11.775-13.09,11.775-13.09
		l0.319,1.958l-4.014,5.958c0,0,4.249-4.268,7.042-6.612s8.715-5.96,8.715-5.96l-8.129,7.834c0,0,4.316-3.114,8.08-5.174
		c3.764-2.06,10.606-7.433,10.606-7.433l-6.339,6.98c0,0,7.812-5.09,10.422-7.082c2.61-1.992,6.457-3.784,6.457-3.784l-4.884,5.055
		c0,0,4.432-4.62,8.748-7.734c4.316-3.114,7.812-5.09,7.812-5.09l-7.945,7.483c0,0,8.264-5.525,11.341-8.839
		s8.564-7.382,8.564-7.382l8.648-7.115l4.116-1.876c0,0-9.801,11.884-15.304,16.839s-41.015,35.171-58.465,43.277
		c-17.098,8.289-45.89,20.532-58.672,25.707c-12.698,5.443-43.366,13.57-46.93,14.391C54.697,101.187,45.463,106.428,33.95,105.328z
		" class="color c1"/>
  </g>
</svg>