<svg version="1.1" id="图层_1" x="0px" y="0px" width="86.009px" height="86.014px" viewBox="0 0 86.009 86.014" enable-background="new 0 0 86.009 86.014" xml:space="preserve" xmlns="http://www.w3.org/2000/svg" xmlns:xlink="http://www.w3.org/1999/xlink" xmlns:xml="http://www.w3.org/XML/1998/namespace">
  <path fill="#F5C24C" d="M43.001,0C19.249,0,0,19.251,0,43.007s19.249,43.007,43.001,43.007c23.756,0,43.008-19.252,43.008-43.007
	S66.757,0,43.001,0z M46.25,79.366v-2.889c0-1.791-1.451-3.249-3.249-3.249c-1.789,0-3.242,1.458-3.242,3.249v2.889
	C22.176,77.811,8.142,63.746,6.635,46.151h2.796c1.796,0,3.249-1.452,3.249-3.246c0-1.796-1.453-3.248-3.249-3.248H6.649
	c1.596-17.5,15.596-31.463,33.109-33.015v2.689c0,1.793,1.453,3.248,3.242,3.248c1.798,0,3.249-1.454,3.249-3.248V6.643
	c17.518,1.552,31.509,15.515,33.108,33.015h-2.782c-1.794,0-3.241,1.452-3.241,3.248c0,1.794,1.447,3.246,3.241,3.246h2.799
	C77.864,63.746,63.83,77.811,46.25,79.366z M65.784,21.971c0.973,0.933,1.009,2.465,0.081,3.444L46.643,45.56
	c0.01,0.095,0.012,0.187,0.012,0.285c0,2.017-1.633,3.653-3.653,3.653c-1.909,0-3.479-1.473-3.631-3.346L23.283,33.997
	c-1.077-0.813-1.285-2.344-0.477-3.409c0.812-1.08,2.341-1.279,3.403-0.485l16.09,12.16c0.232-0.044,0.464-0.068,0.701-0.068
	c0.04,0,0.078,0.003,0.114,0.003l19.224-20.144C63.273,21.087,64.813,21.039,65.784,21.971z" class="color c1"/>
</svg>