<svg version="1.1" id="图层_1" x="0px" y="0px" width="85.979px" height="88.766px" viewBox="0 0 85.979 88.766" enable-background="new 0 0 85.979 88.766" xml:space="preserve" xmlns="http://www.w3.org/2000/svg" xmlns:xlink="http://www.w3.org/1999/xlink" xmlns:xml="http://www.w3.org/XML/1998/namespace">
  <g>
    <path fill="#4FA910" d="M44.521,78.507c0.011,5.641,4.413,10.224,9.815,10.214c5.401-0.01,9.782-4.611,9.771-10.253
		c-0.001-0.677-0.048-0.82-0.224-1.348c-0.058-0.172-0.124-0.379-0.197-0.619c-0.892-0.52-1.714-1.154-2.453-1.877
		c-0.007-0.006-0.016-0.014-0.023-0.022c-0.261-0.265-0.424-0.626-0.424-1.027c-0.002-0.812,0.654-1.469,1.465-1.471
		c0.399,0,0.76,0.16,1.024,0.417c0.007,0.006,0.013,0.013,0.019,0.018c1.69,1.635,3.943,2.642,6.422,2.637
		c5.206-0.011,9.434-4.446,9.422-9.889c0-0.129,0.042-0.245,0.072-0.363c-0.098-3.451-1.815-6.58-4.655-8.408
		c-0.565-0.362-0.814-1.075-0.601-1.719c0.214-0.647,0.828-1.07,1.499-1.004c0.256,0.024,0.514,0.041,0.776,0.042
		c4.75-0.01,8.712-3.568,9.59-8.264l-41.363,0.083L44.521,78.507z" class="color c1"/>
    <path fill="#D76D08" d="M9.794,53.964c0.26-0.001,0.519-0.019,0.774-0.043c0.671-0.069,1.287,0.354,1.503,0.998
		c0.216,0.645-0.03,1.356-0.594,1.722c-2.833,1.84-4.538,4.975-4.621,8.425c0.03,0.12,0.073,0.233,0.074,0.362
		c0.01,5.443,4.255,9.863,9.461,9.852c2.479-0.005,4.728-1.02,6.411-2.661c0.006-0.005,0.013-0.011,0.019-0.017
		c0.265-0.261,0.625-0.422,1.023-0.422c0.811-0.002,1.468,0.654,1.47,1.465c0,0.399-0.16,0.764-0.421,1.027
		c-0.008,0.008-0.015,0.016-0.023,0.022c-0.736,0.729-1.555,1.365-2.445,1.887c-0.072,0.242-0.137,0.448-0.195,0.62
		c-0.173,0.529-0.22,0.672-0.218,1.351c0.012,5.643,4.412,10.224,9.813,10.214c5.401-0.012,9.785-4.611,9.773-10.254l-0.065-32.854
		L0.171,45.739C1.068,50.43,5.045,53.974,9.794,53.964z" class="color c2"/>
    <path fill="#784BC0" d="M13.7,32.525c0.002,0.809-0.653,1.467-1.464,1.469c-0.079,0-0.153-0.01-0.227-0.023
		c-0.054-0.009-0.105-0.02-0.157-0.033l-0.006,0.02c-0.781-0.219-1.599-0.34-2.443-0.338c-1.246,0.003-2.431,0.265-3.52,0.726
		C2.563,35.853,0.196,39.231,0,43.197l41.528-0.082l-0.063-31.991c-0.011-5.913-4.6-11.089-9.816-11.08
		c-5.398,0.011-9.783,4.611-9.771,10.253c0,0.167,0.014,0.333,0.024,0.499c0.014,0.196-0.022,0.398-0.082,0.593
		c0.053,0.359,0.128,0.707,0.216,1.051c0.031,0.129,0.069,0.252,0.105,0.378c0.011,0.072,0.022,0.142,0.022,0.214
		c0.002,0.812-0.653,1.469-1.464,1.471c-0.672,0.001-1.233-0.451-1.408-1.07h-0.001c-0.001-0.005-0.003-0.013-0.005-0.021
		c-0.01-0.036-0.021-0.071-0.027-0.108c-0.102-0.379-0.192-0.763-0.259-1.155c-0.817-0.227-1.644-0.377-2.474-0.377
		c-5.399,0.011-9.783,4.611-9.772,10.253c0.007,3.637,1.811,6.92,4.824,8.78c0.032,0.02,0.05,0.052,0.081,0.072
		c0.393,0.076,0.777,0.174,1.156,0.285l-0.004,0.013c0.004,0.001,0.008,0.004,0.013,0.007c0.07,0.03,0.135,0.066,0.2,0.108
		c0.026,0.016,0.05,0.034,0.075,0.054c0.045,0.033,0.087,0.066,0.128,0.104c0.022,0.021,0.044,0.039,0.065,0.062
		c0.05,0.052,0.097,0.108,0.139,0.167c0.007,0.01,0.014,0.019,0.021,0.027c0.046,0.069,0.085,0.144,0.12,0.219
		c0.01,0.024,0.018,0.048,0.028,0.072c0.022,0.061,0.042,0.12,0.056,0.183c0.004,0.015,0.006,0.028,0.011,0.045l0,0l0,0
		c0.002,0.01,0.005,0.019,0.007,0.031C13.688,32.345,13.699,32.433,13.7,32.525z" class="color c3"/>
    <path fill="#3C7DC7" d="M80.06,34.198c-1.09-0.458-2.277-0.715-3.522-0.712c-0.845,0.002-1.662,0.126-2.44,0.348l-0.007-0.021
		c-0.052,0.013-0.103,0.026-0.155,0.035c-0.074,0.013-0.149,0.022-0.228,0.021c-0.811,0.002-1.469-0.651-1.47-1.461
		c0-0.093,0.011-0.182,0.027-0.267c0.004-0.027,0.011-0.053,0.016-0.079c0.016-0.062,0.034-0.121,0.056-0.181
		c0.01-0.022,0.018-0.049,0.028-0.072c0.035-0.077,0.074-0.151,0.12-0.22c0.007-0.01,0.014-0.018,0.021-0.027
		c0.042-0.059,0.087-0.115,0.138-0.167c0.021-0.021,0.043-0.041,0.065-0.061c0.041-0.039,0.083-0.073,0.127-0.106
		c0.025-0.019,0.05-0.037,0.075-0.054c0.063-0.042,0.13-0.079,0.2-0.109c0.004-0.003,0.008-0.006,0.013-0.007l-0.004-0.011
		c0.378-0.114,0.763-0.213,1.154-0.291c0.031-0.022,0.05-0.055,0.082-0.073c3.005-1.874,4.795-5.164,4.788-8.8
		c-0.01-5.643-4.413-10.226-9.813-10.214c-0.83,0-1.655,0.157-2.472,0.386c-0.065,0.391-0.154,0.776-0.254,1.156
		c-0.007,0.036-0.018,0.071-0.027,0.11c-0.003,0.004-0.003,0.013-0.006,0.02h-0.001c-0.172,0.618-0.731,1.074-1.404,1.075
		c-0.81,0.001-1.468-0.654-1.47-1.465c0-0.072,0.012-0.142,0.021-0.215c0.037-0.126,0.074-0.25,0.105-0.377
		c0.086-0.344,0.161-0.693,0.211-1.053c-0.06-0.194-0.096-0.396-0.083-0.593c0.011-0.164,0.023-0.33,0.022-0.497
		C63.961,4.574,59.559-0.009,54.159,0c-5.216,0.012-9.784,5.208-9.771,11.12l0.063,31.989l41.529-0.082
		C85.767,39.061,83.387,35.693,80.06,34.198z" class="color c4"/>
  </g>
</svg>