<svg version="1.1" id="图层_1" x="0px" y="0px" width="61.875px" height="81.236px" viewBox="0 0 61.875 81.236" enable-background="new 0 0 61.875 81.236" xml:space="preserve" xmlns="http://www.w3.org/2000/svg" xmlns:xlink="http://www.w3.org/1999/xlink" xmlns:xml="http://www.w3.org/XML/1998/namespace">
  <path fill="#FFFFFF" d="M36.141,36.96C13.758,15.816,3.282,29.393,0.815,31.079C0.272,36.33,0,42.107,0,47.885
	c0,5.778,0.272,11.556,0.815,16.808c4.612,2.889,9.498,6.04,14.654,8.928c4.884,2.626,10.042,5.252,15.198,7.616
	c5.156-2.102,10.313-4.728,15.468-7.616c5.156-2.888,10.041-5.776,14.926-8.928c0.543-5.252,0.814-11.03,0.814-16.809
	C61.875,45.197,58.523,58.104,36.141,36.96z M13.672,32.246c0-1.262,1.023-2.286,2.285-2.286c1.261,0,2.285,1.024,2.285,2.286
	s-1.023,2.285-2.285,2.285S13.672,33.508,13.672,32.246z M22.813,55.352c-3.086,0-5.586-2.501-5.586-5.586s2.5-5.586,5.586-5.586
	c3.084,0,5.585,2.501,5.585,5.586S25.897,55.352,22.813,55.352z" class="color c1"/>
  <circle fill="#FFFFFF" cx="42.617" cy="27.422" r="5.586" class="color c1"/>
  <circle fill="#FFFFFF" cx="29.668" cy="3.301" r="3.301" class="color c1"/>
</svg>