<svg version="1.1" id="图层_1" x="0px" y="0px" width="53.442px" height="125.704px" viewBox="0 0 53.442 125.704" enable-background="new 0 0 53.442 125.704" xml:space="preserve" xmlns="http://www.w3.org/2000/svg" xmlns:xlink="http://www.w3.org/1999/xlink" xmlns:xml="http://www.w3.org/XML/1998/namespace">
  <path fill="#B26928" d="M20.326,47.23c-3.985-6.25-2.151-14.546,4.1-18.533c6.249-3.984,14.547-2.151,18.533,4.1
	c3.986,6.25,2.149,14.548-4.1,18.533C32.609,55.316,24.312,53.481,20.326,47.23z M53.442,52.193
	C10.604,77.618,4.202,28.298,17.724,0c-2.221,1.012-5.063,6.814-5.939,8.823c-16.653,38.114-14.893,70.98,0.469,95.067
	c5.779,9.06,12.007,16.205,18.639,21.813c4.587-1.646,9.26-3.141,14.053-4.301C32.906,104.827,33.007,83.119,53.442,52.193z" class="color c1"/>
</svg>