<svg version="1.1" id="图层_1" x="0px" y="0px" width="184.596px" height="190.185px" viewBox="0 0 184.596 190.185" enable-background="new 0 0 184.596 190.185" xml:space="preserve" xmlns="http://www.w3.org/2000/svg" xmlns:xlink="http://www.w3.org/1999/xlink" xmlns:xml="http://www.w3.org/XML/1998/namespace">
  <path fill="#EF0000" d="M160.197,154.713c15.146-16.432,24.398-38.371,24.398-62.473C184.596,41.298,143.274,0,92.298,0
	C41.32,0,0,41.298,0,92.24c0,50.941,41.32,92.24,92.298,92.24c13.549,0,26.416-2.918,38.006-8.158l38.774,13.862L160.197,154.713z" class="color c1"/>
  <path fill="#E2E2E2" d="M92.298,55.322v96.479L43.08,95.833c0,0-18.731-23.959-0.438-42.034
	C59.292,37.347,82.498,44.871,92.298,55.322z" class="color c2"/>
  <path fill="#FFFFFF" d="M92.298,55.322v96.479l49.218-55.969c0,0,18.731-23.959,0.438-42.034
	C125.304,37.347,102.097,44.871,92.298,55.322z" class="color c3"/>
</svg>