<svg version="1.1" id="图层_1" x="0px" y="0px" width="45.526px" height="42.71px" viewBox="0 0 45.526 42.71" enable-background="new 0 0 45.526 42.71" xml:space="preserve" xmlns="http://www.w3.org/2000/svg" xmlns:xlink="http://www.w3.org/1999/xlink" xmlns:xml="http://www.w3.org/XML/1998/namespace">
  <g>
    <g>
      <path fill="#F1433C" d="M44.921,30.285c-0.207,0.227-0.458,0.408-0.736,0.538c-2.891,1.257-10.492,4.584-18.621,8.314
			c-2.941,1.38-6.014,2.461-9.169,3.23c-4.292,0.993-8.796-0.204-12.03-3.192c-3.106-2.853-4.699-6.994-4.305-11.194L2.266,5.966
			c0.193-1.92,1.906-3.32,3.825-3.127c0.062,0.006,0.123,0.014,0.185,0.023c1.821,0.284,3.109,1.932,2.943,3.767l-0.904,9.859
			c-0.105,1.37,0.92,2.566,2.289,2.67c0.68,0.051,1.348-0.177,1.853-0.631L32.176,0.662c0.965-0.882,2.442-0.882,3.408,0
			c1.029,0.94,1.102,2.536,0.161,3.565c-0.036,0.038-0.073,0.077-0.11,0.113L24.51,15.084c-0.439,0.431-0.443,1.135-0.013,1.57
			c0.366,0.375,0.946,0.438,1.389,0.158l14.105-9.225c1.092-0.598,2.459-0.199,3.058,0.892c0.51,0.931,0.3,2.092-0.503,2.787
			l-13.702,9.927c-0.486,0.355-0.684,0.989-0.486,1.559c0.13,0.372,0.413,0.672,0.781,0.816c0.371,0.147,0.786,0.126,1.141-0.059
			l11.773-6.115c1.123-0.587,2.51-0.151,3.098,0.972c0.569,1.092,0.177,2.439-0.891,3.054l-13.531,7.923
			c-0.432,0.276-0.562,0.849-0.285,1.281c0.231,0.365,0.687,0.523,1.094,0.376l10.883-4.349c0.576-0.229,1.219-0.213,1.781,0.044
			c0.559,0.246,0.99,0.712,1.193,1.286C45.677,28.779,45.498,29.666,44.921,30.285z" class="color c1"/>
    </g>
  </g>
</svg>