<svg version="1.1" id="图层_1" x="0px" y="0px" width="198.959px" height="106.039px" viewBox="0 0 198.959 106.039" enable-background="new 0 0 198.959 106.039" xml:space="preserve" xmlns="http://www.w3.org/2000/svg" xmlns:xlink="http://www.w3.org/1999/xlink" xmlns:xml="http://www.w3.org/XML/1998/namespace">
  <path fill="#FFFFFF" d="M63.098,100.22c-0.194-9.816-7.362-14.857-7.362-14.857C35.192,73.737,29.379,68.05,19.559,56.55
	c-9.82-11.499-12.66-29.584-17.31-34.882c-4.649-5.297-0.646-4.715-0.646-4.715c6.654,0.45,11.628,7.943,12.274,8.333
	c0.646,0.389,2.324,0.774,2.324-1.292c0-2.724-0.089-12.015,0-18.732c0.063-4.977,1.209-5.877,2.91-4.928
	c1.998,1.114,4.41,6.182,4.969,7.641c0.479,1.238,1.262,1.843,2.005,0.773c0.522-0.753,2.438-1.22,3.553,0.258
	c1.193,1.583,2.455,6.591,2.455,6.591s2.437,0.037,3.229,0.966c1.485,1.744,1.328,5.755,1.035,10.403
	c-0.581,9.238,1.675,13.925,3.615,19.251c1.743,4.778,5.813,5.489,5.619,4.521c-0.669-3.353-1.226-18.928-0.998-21.82
	c0.266-3.359,2.292-6.215,6.103-2.729c3.309,3.028,2.908,7.881,4.264,17.829c1.467,10.78,11.873,13.194,16.536,15.438
	c7.106,3.424,14.978,14.033,17.57,25.771C91.65,96.925,63.292,110.044,63.098,100.22z" class="color c1"/>
  <path fill="#FFFFFF" d="M135.86,100.22c0.193-9.816,7.363-14.857,7.363-14.857c20.541-11.625,26.356-17.313,36.174-28.811
	c9.82-11.5,12.66-29.585,17.313-34.883c4.652-5.297,0.646-4.715,0.646-4.715c-6.654,0.45-11.625,7.943-12.272,8.333
	c-0.647,0.389-2.324,0.774-2.324-1.292c0-2.724,0.087-12.015,0-18.732c-0.063-4.977-1.211-5.877-2.913-4.928
	c-1.998,1.114-4.408,6.182-4.968,7.641c-0.479,1.238-1.259,1.843-2.003,0.773c-0.523-0.753-2.439-1.22-3.553,0.258
	c-1.193,1.583-2.454,6.591-2.454,6.591s-2.438,0.037-3.229,0.966c-1.488,1.744-1.326,5.755-1.035,10.403
	c0.582,9.238-1.678,13.925-3.615,19.251c-1.744,4.778-5.813,5.489-5.618,4.521c0.671-3.354,1.226-18.928,0.996-21.82
	c-0.263-3.359-2.291-6.215-6.101-2.729c-3.312,3.028-2.908,7.881-4.265,17.829c-1.471,10.779-11.875,13.193-16.536,15.439
	c-7.105,3.424-14.978,14.033-17.57,25.771C102.923,108.912,135.664,110.044,135.86,100.22z" class="color c1"/>
</svg>