<svg version="1.1" id="图层_1" x="0px" y="0px" width="93.121px" height="196.352px" viewBox="0 0 93.121 196.352" enable-background="new 0 0 93.121 196.352" xml:space="preserve" xmlns:xml="http://www.w3.org/XML/1998/namespace" xmlns="http://www.w3.org/2000/svg" xmlns:xlink="http://www.w3.org/1999/xlink">
  <g>
    <path fill="#8DB8F7" d="M92.053,37.567c0.579-1.541,0.688-3.167,0.324-4.865c-0.648-3.026-3.141-8.802-6.427-11.582
		c-0.976-0.826-2.55-1.779-4.845-2.124c-0.787-1.325-2.953-4.832-7.582-8.434c-2.25-1.75-5.051-3.928-9.06-3.928
		c-0.653,0-1.297,0.056-1.94,0.156C59.755,2.281,56.206,0,51.932,0l0,0c-3.636,0-6.657,1.728-9.083,3.115l-0.136,0.076
		C38.127,5.813,14.423,20.59,8.43,25.526c-6.03,4.967-10.412,9.647-7.513,20.76c1.896,7.269,13.401,44.777,14.599,48.682
		c5.314,26.13,0.754,94.29,0.707,94.978l-0.437,6.408h6.423h50.926h7.161l-1.253-7.05c-2.243-12.615-5.826-41.121-6.115-47.49
		c-0.242-5.329,0.434-7.564,3.611-11.967c4.729-6.548,6.441-12.167,6.791-22.271c0.227-6.537-0.447-22.722-2.146-33.211
		c0.883-0.194,1.721-0.429,2.436-0.701c4.339-1.669,7.869-6.318,8.396-11.057c0.314-2.836,1.106-12.2,1.106-17.484
		C93.121,42.693,92.945,39.975,92.053,37.567z" class="color c1"/>
    <path fill="#1860AD" d="M88.764,37.541c0.61-1.029,1.065-2.437,0.686-4.213c-0.57-2.659-2.832-7.722-5.432-9.92
		c-1.213-1.026-2.806-1.547-4.732-1.547c-0.053,0-0.104,0-0.155,0.001c-0.104-0.398-0.252-0.757-0.442-1.072l-0.071-0.124
		c-0.636-1.075-2.567-4.344-6.929-7.736c-2.482-1.93-4.453-3.296-7.217-3.296c-1.063,0-2.131,0.193-3.453,0.577
		C59.518,7.107,56.721,3,51.936,3l0,0c-2.838,0-5.364,1.444-7.595,2.719l-0.136,0.078c-4.401,2.516-28.109,17.306-33.864,22.045
		c-6.336,5.218-8.779,9.009-6.518,17.686c1.906,7.306,13.676,45.664,14.606,48.695c5.442,26.439,0.837,95.23,0.79,95.924L19,193.352
		h3.212h50.927h3.58l-0.627-3.524c-2.257-12.697-5.865-41.439-6.158-47.878c-0.272-6.037,0.584-8.888,4.176-13.86
		c4.33-5.994,5.9-11.196,6.227-20.617c0.239-6.928-0.602-25.938-2.631-35.562c1.708-0.215,3.581-0.563,4.84-1.047
		c2.807-1.079,6.034-4.455,6.493-8.587c0.3-2.698,1.089-12.062,1.089-17.154C90.126,42.47,89.921,39.667,88.764,37.541z" class="color c2"/>
    <path fill="#95D9E8" d="M14.552,37.687c-0.484,0.354-0.992,0.672-1.518,0.955c-3.119,0.653-6.006-0.841-4.985-4.479
		c1.024-1.284,2.425-2.544,4.198-4.004C17.769,25.613,41.147,11,45.692,8.403C47.736,7.235,49.848,6,51.936,6
		c0.182,0,0.362,0.012,0.545,0.032c2.037,1.214,2.555,2.665,2.117,4.093l-1.722-1.313l0.801,1.684L48.85,8.12
		c0.381,0.285,2.647,2.771,4.143,4.424c-0.379,0.374-0.801,0.733-1.262,1.071c-5.572,4.076-11.146,7.61-22.697,13.317
		c-5.784,2.858-11.676,5.538-13.854,9.297C14.907,36.698,14.7,37.184,14.552,37.687z M30.571,190.352l5.744-53.067l6.496,44.928
		l2.707-15.697l6.22,23.838C44.171,190.352,36.288,190.352,30.571,190.352z M86.057,61.945c-0.279,2.51-2.209,4.875-4.055,5.855
		c-3.434-2.07-2.08-5.184,0.323-6.385c-2.293-0.229-2.523,0.229-4.818-3.442c0.917,2.295,0.688,4.819-1.146,5.737
		c-1.836,0.918-2.754-1.146-7.344-2.064c1.17,1.315,3.547,5.334,5.357,9.206c2.098,7.834,3.246,28.341,2.963,36.518
		c-0.306,8.871-1.684,13.458-5.658,18.964c-3.977,5.506-5.048,9.022-4.74,15.753c0.305,6.729,3.938,35.534,6.201,48.267
		c-2.09,0-5.468,0-9.514,0c-2.273-13.033-6.016-41.942-6.314-48.57c-0.308-6.729,0.764-10.247,4.739-15.754
		c3.657-5.063,5.112-9.359,5.562-16.917c2.561-5.058,0.559-16.376,0.559-16.376s1.607,4.093,2.63,6.869
		c-0.187-4.942-1.924-12.264-4.37-18.663c-0.01-0.094-0.02-0.189-0.029-0.282c-1.215-6.729-1.553-13.214-2.922-16.946
		s-9.037-5.632-10.725-11.817c-0.615,0-2.096,0.549-4.044,1.026l1.159-1.159l-1.918,0.72l8.395-6.396l-13.885,7.492
		c-4.023-0.282-8.313-2.251-11.148-8.59c-0.42,0.419-1.389,0.622-2.641,0.62c2.813-1.655,4.376-4.295,4.376-4.295
		s-3.211,2.236-7.298,3.997c-0.125-0.022-0.249-0.046-0.375-0.07c0.768-0.674,1.982-1.793,2.613-2.672
		c-1.017,0.559-3.291,1.63-4.569,2.166c-1.988-0.615-3.929-1.552-5.294-2.795c0.584-1.729,1.541-4.064,2.941-5.519
		c-1.558,0.964-2.92,2.771-3.93,4.414c-0.287-0.404-0.515-0.832-0.67-1.285c0.979-3.354,6.125-7.103,12.158-10.033
		c7.559-3.673,24.494-12.034,30.701-15.604c0.001,0.003,0.003,0.007,0.004,0.011c2.354-0.832,3.862-1.288,5.14-1.288
		c0.639,0,1.219,0.115,1.817,0.354c2.621,1.582,5.013,5.601,3.883,8.674l-3.837-3.398l2.402,3.524l-7.049-6.088l6.248,7.37
		l-2.965-0.722l2.228,2.424c-4.673,3.145-12.188,6.181-19.775,9.718c-4.161,1.938-6.958,3.61-10.378,4.115
		c0.155,0.39,0.194,1.517,1.312,1.494c3.188-0.664,10.75-5.292,17.53-7.771c12.131-4.438,15.706-4.455,20.234-6.967
		c-0.001,0.007-0.008,0.03-0.008,0.03s1.533-0.529,3.171-0.529c1,0,2.041,0.197,2.796,0.836c1.057,0.893,2.107,2.563,2.938,4.253
		c-0.216,0.635-0.547,1.265-1.021,1.884c-1.43-2.105-3.571-5.194-4.201-5.688c0.762,0.691,3.459,6.02,3.459,6.02
		s-0.968-1.313-1.868-1.313c0.489,0.611,0.992,1.479,1.401,2.26c-0.883,0.775-2.012,1.53-3.471,2.25
		c-8.834,4.347-15.313,8.409-18.518,11.614c9.536-5.354,22.256-9.559,24.055-9.392c-0.008,0.015-0.019,0.029-0.021,0.042
		c1.376,0.766,2.294,2.601,2.294,7.494C87.126,50.017,86.359,59.192,86.057,61.945z" class="color c3"/>
  </g>
</svg>