<svg version="1.1" id="图层_1" x="0px" y="0px" width="120.243px" height="70.192px" viewBox="0 0 120.243 70.192" enable-background="new 0 0 120.243 70.192" xml:space="preserve" xmlns="http://www.w3.org/2000/svg" xmlns:xlink="http://www.w3.org/1999/xlink" xmlns:xml="http://www.w3.org/XML/1998/namespace">
  <path fill="#3F8FBC" d="M110.555,39.812c-12.944,20.004-31.701,30.006-55.698,30.37c-11.305,0.168-21.937-1.863-31.883-7.102
	C13.308,57.995,5.66,51.635,0,44.029c13.042-2.535,41.703,24.543,73.39,8.027c0.574-0.238,1.149-0.532,1.723-0.854
	c0.098-0.056,0.182-0.098,0.28-0.154c0.546-0.308,1.093-0.673,1.639-1.051c0.112-0.084,0.238-0.168,0.35-0.252
	c0.546-0.392,1.079-0.812,1.611-1.261c0.126-0.098,0.238-0.21,0.35-0.308c0.49-0.406,0.967-0.84,1.443-1.303
	c0.126-0.112,0.252-0.238,0.378-0.364c0.476-0.462,0.953-0.953,1.429-1.457c0.182-0.196,0.364-0.406,0.56-0.602
	c0.448-0.504,0.896-1.022,1.345-1.555c0.238-0.266,0.462-0.532,0.686-0.812c0.336-0.42,0.672-0.84,1.009-1.275
	c0.336-0.42,0.672-0.855,0.994-1.303c0.238-0.308,0.462-0.63,0.7-0.952c0.434-0.602,0.869-1.205,1.289-1.835
	c0.196-0.266,0.378-0.532,0.56-0.812c0.294-0.434,0.855-1.331,0.855-1.331c-9.274,5.253-20.466,6.08-30.468,2.073
	c-0.687-0.308-1.205-0.644-1.471-1.093c-0.336-0.588-0.322-1.415,0.42-1.793c9.918-3.04,19.275-7.677,27.667-13.756
	c1.723-1.233,3.278-2.676,4.609-4.315c1.933-2.381,4.133-4.511,6.542-6.332c0.378-0.294,0.757-0.575,1.149-0.855
	c0.196-0.14,0.392-0.28,0.588-0.42c4.805-3.39,10.212-5.842,15.942-7.228l0.101-0.032c1.443-0.35,2.827-0.613,4.298-0.823
	C121.159,13.981,118.554,27.443,110.555,39.812z" class="color c1"/>
</svg>