<svg version="1.1" baseProfile="tiny" id="图层_1" x="0px" y="0px" width="108.501px" height="124.501px" viewBox="0 0 108.501 124.501" xml:space="preserve" xmlns="http://www.w3.org/2000/svg" xmlns:xlink="http://www.w3.org/1999/xlink" xmlns:xml="http://www.w3.org/XML/1998/namespace">
  <path fill="#181917" d="M85.355,6.553c-2.367-0.715-5.322-2.506-6.569-3.979s-4.292-2.63-6.76-2.571L47.465,0.588
	c-2.471,0.059-5.408,0.883-6.529,1.831c-1.12,0.949-4.055,1.78-6.527,1.849L25.416,4.52c-2.472,0.068-6.033,1.432-7.921,3.028
	l-0.482,0.409c-1.887,1.598-3.724,4.904-4.081,7.351l-2.268,15.47c-0.358,2.445-1.915,6.023-3.463,7.951l-0.822,1.023
	c-1.546,1.928-3.586,5.373-4.532,7.655l-0.793,1.911c-0.946,2.281-1.327,6.133-0.845,8.555l4.011,20.16
	c0.481,2.422,2.329,5.811,4.106,7.529l11.8,11.412c1.776,1.717,3.187,5.145,3.133,7.617l-0.229,10.506
	c-0.055,2.471,1.917,4.66,4.381,4.865l2.523,0.209c2.464,0.205,4.646-1.643,4.85-4.105l0.046-0.545
	c0.203-2.461,1.914-5.783,3.8-7.381l3.857-3.266c1.888-1.598,1.708-3.963-0.396-5.26c0,0-24.608-15.15-26.374-20.279
	c-1.767-5.129-11.866-22.706,0.732-35.21c12.596-12.504,16.754-10.654,16.754-10.654c2.257,1.006,3.682,3.803,3.166,6.221
	c0,0-0.69,3.242,9.319,0.289c10.008-2.956,8.737-4.457,8.737-4.457c-1.597-1.887-1.823-5.139-0.506-7.23
	c0,0,0.587-0.933,2.369,1.606c1.781,2.538,3.834,16.259-3.687,20.417c-7.519,4.158-13.951,5.035-13.951,5.035
	c-2.449,0.337-5.727-0.796-7.282-2.516c-1.556-1.718-3.37-1.176-4.032,1.205c0,0-1.071,3.852,7.109,6.125
	c8.183,2.271,21.394,9.509,21.394,9.509c2.168,1.188,3.261,0.254,2.43-2.074l0.623-8.779c-0.167-2.466,1.612-3.844,3.957-3.063
	l9.101-1.913c2.471-0.09,6.513-0.17,8.984-0.18c0,0,11.643-0.033,12.731,1.252c1.09,1.287-1.745,16.195-2.701,18.109
	c-0.955,1.912-12.992,10.078-13.27,13.443c-0.272,3.275-3.179,32.889-3.179,32.889c-0.24,2.461,1.576,4.641,4.04,4.844l3.398,0.283
	c2.464,0.205,4.646-1.641,4.85-4.105l1.849-22.271c0.204-2.465,1.728-5.98,3.383-7.814l7.403-8.197
	c1.654-1.836,3.571-5.279,4.253-7.656l0.315-1.094c0.684-2.375,1.409-6.334,1.615-8.795l2.854-34.383
	c0.203-2.462-0.936-6.021-2.533-7.908l-7.895-9.323c-1.597-1.888-4.839-4.015-7.205-4.73L85.355,6.553z M37.519,24.195
	c-0.327,2.448-2.512,5.104-4.851,5.896l-6.314,0.586c-2.429,0.466-4.56-1.171-4.738-3.636c0,0-0.725-10.085,1.287-10.315
	c2.012-0.233,12.193-1.246,13.811,0.083C38.329,18.139,37.519,24.195,37.519,24.195z M45.235,24.556
	c-1.961,0.716-3.909-0.694-4.332-3.129c0,0-0.938-5.413,1.776-7.711c2.716-2.298,12.521-2.016,12.885,1.603
	c0.364,3.615,2.399,7.781-3.967,8.51C45.235,24.556,45.235,24.556,45.235,24.556z M61.907,44.54
	c1.284-7.466-0.334-22.569-0.334-22.569c-0.262-2.456-0.728-6.476-1.036-8.926c0,0-0.08-0.641,3.395-0.885
	c3.474-0.243,7.011,1.148,7.011,1.148c2.299,0.903,4.573,3.626,5.05,6.052l-1.949,23.81c-0.096,2.469-2.097,5.12-4.442,5.891
	C69.602,49.059,60.624,52.006,61.907,44.54z M94.682,45.004c-1.286,1.088-13.215,2.11-13.193,0.376
	c0.022-1.737,1.263-23.298,1.263-23.298c0.142-2.467,2.173-5.139,4.512-5.937c0,0,1.076-0.366,5.454,4.515
	C97.098,25.543,95.969,43.914,94.682,45.004z" class="color c1"/>
</svg>