<svg version="1.1" id="图层_1" x="0px" y="0px" width="277.173px" height="96.888px" viewBox="0 0 277.173 96.888" enable-background="new 0 0 277.173 96.888" xml:space="preserve" xmlns="http://www.w3.org/2000/svg" xmlns:xlink="http://www.w3.org/1999/xlink" xmlns:xml="http://www.w3.org/XML/1998/namespace">
  <path fill-rule="evenodd" clip-rule="evenodd" fill="#9E7FB7" d="M152.381,38.783c11.794-15.039,28.681-11.037,36.717-27.999
	c3.5,12.839-7.532,19.943-15.657,26.571c-4.242,3.458-6.862,7.296-6.125,10.413c1.94,8.21,20.272,4.726,25.523,3.163
	c9.218-2.743,17.081-8.065,14.348-15.681c-2.507-6.983-9.588-14.316-11.854-17.567c-3.513-5.042-4.53-9.008-1.706-17.683
	c3.469,6.341,5.833,10.374,8.879,13.808c10.206,11.507,15.087,12.355,18.453,29.053c14.193-9.672,39.652-30.827,56.212-15.854
	c-16.743,1.03-31.221,7.514-41.938,20.744c8.788-7.315,28.707-17.056,39.376-10.774c-23.633,4.233-26.108,13.634-48.857,24.19
	c10.636-2.467,26.688-5.433,34.827,2.002c-42.174,2.954-85.157,7.311-117.283,33.72C143.735,81.603,143.49,50.12,152.381,38.783
	L152.381,38.783z M124.792,38.783c-11.794-15.039-28.68-11.037-36.718-27.999c-3.5,12.839,7.532,19.943,15.658,26.571
	c4.241,3.458,6.86,7.296,6.124,10.413c-1.941,8.21-20.271,4.726-25.522,3.163c-9.218-2.743-17.082-8.065-14.348-15.681
	c2.507-6.983,9.587-14.316,11.852-17.567C85.351,12.641,86.369,8.675,83.544,0c-3.469,6.341-5.833,10.374-8.879,13.808
	C64.459,25.315,59.577,26.163,56.212,42.861C42.019,33.189,16.56,12.034,0,27.006c16.742,1.03,31.22,7.514,41.938,20.744
	C33.15,40.435,13.231,30.694,2.563,36.976c23.632,4.233,26.107,13.634,48.856,24.19c-10.635-2.467-26.688-5.433-34.828,2.002
	c42.175,2.954,85.157,7.311,117.283,33.72C133.438,81.603,133.682,50.12,124.792,38.783L124.792,38.783z" class="color c1"/>
</svg>