<svg version="1.1" id="图层_1" x="0px" y="0px" width="70.125px" height="65.987px" viewBox="0 0 70.125 65.987" enable-background="new 0 0 70.125 65.987" xml:space="preserve" xmlns="http://www.w3.org/2000/svg" xmlns:xlink="http://www.w3.org/1999/xlink" xmlns:xml="http://www.w3.org/XML/1998/namespace">
  <path fill="#FFFFFF" d="M69.547,30.037c-0.725-0.568-2.211-0.461-3.297,0.239c-1.09,0.699-2.928,2.224-4.094,3.387
	c-1.164,1.163-3.285,2.521-4.715,3.014c-1.43,0.493-3.396,0.728-4.373,0.52s-1.27-1.219-0.654-2.245
	c0.617-1.025,2.176-3.152,3.467-4.726c1.289-1.571,3.592-4.559,5.119-6.637c1.524-2.077,3.266-5.031,3.869-6.56
	c0.604-1.529,0.307-3.264-0.662-3.851c-0.965-0.588-2.229-0.681-2.805-0.201c-0.576,0.479-1.895,2.065-2.93,3.525
	c-1.035,1.463-3.061,4.039-4.504,5.727c-1.441,1.688-3.449,3.925-4.461,4.973c-1.012,1.046-2.188,1.392-2.611,0.766
	c-0.424-0.626,0.293-3.171,1.59-5.658c1.299-2.484,3.188-6.616,4.197-9.18c1.012-2.563,2.283-5.784,2.824-7.157
	c0.541-1.372,0.496-3.01-0.105-3.634c-0.6-0.625-1.789-0.977-2.639-0.785c-0.852,0.193-1.912,1.276-2.357,2.404
	c-0.445,1.128-1.41,3.058-2.141,4.285c-0.73,1.228-2.016,3.318-2.858,4.644c-0.84,1.325-2.017,3.574-2.613,4.997
	c-0.594,1.421-1.666,3.624-2.379,4.896c-0.715,1.271-1.572,1.624-1.914,0.785c-0.34-0.839-0.457-2.733-0.264-4.208
	c0.195-1.475,0.854-4.391,1.463-6.474c0.613-2.088,1.674-5.074,2.361-6.637s1.043-3.558,0.787-4.435
	c-0.252-0.874-1.061-1.685-1.793-1.796c-0.73-0.112-1.992,0.454-2.803,1.259c-0.811,0.803-1.939,2.349-2.51,3.434
	c-0.568,1.085-1.68,3.534-2.469,5.445c-0.787,1.911-1.824,5.196-2.303,7.3c-0.477,2.104-1.342,4.59-1.924,5.524
	c-0.578,0.936-1.399,2.575-1.82,3.643c-0.42,1.068-1.516,2.453-2.432,3.079c-0.916,0.627-2.713,1.447-3.99,1.825
	c-1.277,0.378-3.299-0.132-4.492-1.131c-1.191-1-2.902-3.176-3.799-4.834c-0.898-1.658-2.531-4.177-3.627-5.598
	c-1.096-1.419-3.019-2.985-4.269-3.479c-1.25-0.494-2.836-0.426-3.523,0.149c-0.686,0.575-1.174,1.593-1.086,2.265
	c0.09,0.671,0.811,1.985,1.606,2.924c0.793,0.939,1.752,2.675,2.133,3.857c0.381,1.181,1.295,3.396,2.035,4.922
	c0.738,1.525,1.496,3.701,1.684,4.832c0.189,1.133,0.852,3.039,1.473,4.235c0.619,1.197,1.516,3.54,1.984,5.207
	c0.471,1.666,1.316,4.278,1.879,5.807c0.56,1.527,1.084,3.492,1.162,4.369c0.076,0.876,2.752,3.826,5.941,6.551
	c3.193,2.729,8.885,4.683,12.648,4.348c3.764-0.335,8.201-1.633,9.859-2.884c1.654-1.251,3.852-3.672,4.879-5.385
	c1.027-1.71,2.857-4.596,4.066-6.41c1.211-1.814,3.262-4.236,4.562-5.383c1.297-1.145,3.457-2.891,4.799-3.878
	c1.34-0.987,3.625-2.827,5.076-4.09c1.447-1.26,3.186-3.317,3.854-4.57C70.321,32.096,70.276,30.607,69.547,30.037z" class="color c1"/>
</svg>