<svg version="1.1" id="图层_1" x="0px" y="0px" width="258.955px" height="86.911px" viewBox="0 0 258.955 86.911" enable-background="new 0 0 258.955 86.911" xml:space="preserve" xmlns="http://www.w3.org/2000/svg" xmlns:xlink="http://www.w3.org/1999/xlink" xmlns:xml="http://www.w3.org/XML/1998/namespace">
  <path fill="#FFFFFF" d="M14.801,45.956c-0.247,0-0.497-0.061-0.729-0.184C7.75,42.376,3.823,35.813,3.823,28.647V9.191
	c0-0.853,0.69-1.543,1.543-1.543c0.854,0,1.542,0.69,1.542,1.543v19.457c0,6.029,3.304,11.55,8.621,14.406
	c0.75,0.404,1.034,1.338,0.63,2.088C15.883,45.66,15.35,45.956,14.801,45.956z M32.07,45.971c6.55-3.341,10.618-9.98,10.618-17.323
	V9.191c0-0.853-0.689-1.543-1.543-1.543c-0.853,0-1.543,0.69-1.543,1.543v19.457c0,6.177-3.423,11.763-8.937,14.575
	c-0.76,0.386-1.062,1.317-0.671,2.076c0.27,0.534,0.813,0.841,1.372,0.841C31.605,46.14,31.844,46.085,32.07,45.971z M10.732,5.37
	C10.732,2.408,8.325,0,5.366,0C2.406,0,0,2.408,0,5.37c0,2.956,2.407,5.364,5.366,5.364S10.732,8.326,10.732,5.37z M7.647,5.37
	c0,1.257-1.025,2.278-2.281,2.278c-1.257,0-2.281-1.022-2.281-2.278c0-1.259,1.024-2.284,2.281-2.284
	C6.624,3.086,7.647,4.111,7.647,5.37z M46.51,5.37c0-2.962-2.408-5.37-5.364-5.37c-2.962,0-5.369,2.408-5.369,5.37
	c0,2.956,2.407,5.364,5.369,5.364C44.102,10.734,46.51,8.326,46.51,5.37z M43.424,5.37c0,1.257-1.022,2.278-2.278,2.278
	c-1.259,0-2.283-1.022-2.283-2.278c0-1.259,1.024-2.284,2.283-2.284C42.401,3.086,43.424,4.111,43.424,5.37z M254.13,15.066
	c0-2.479-2.016-4.498-4.496-4.498c-2.479,0-4.498,2.019-4.498,4.498c0,2.48,2.02,4.496,4.498,4.496
	C252.114,19.562,254.13,17.547,254.13,15.066z M251.044,15.066c0,0.778-0.633,1.41-1.41,1.41c-0.781,0-1.412-0.632-1.412-1.41
	c0-0.78,0.631-1.413,1.412-1.413C250.413,13.653,251.044,14.287,251.044,15.066z M251.505,24.197c2.434-0.5,4.531-1.919,5.904-3.995
	c1.373-2.08,1.852-4.565,1.355-6.997c-1.008-4.933-6.01-8.259-10.994-7.268c-2.436,0.5-4.533,1.92-5.908,3.996
	c-1.375,2.079-1.852,4.568-1.355,7.006c0.885,4.315,4.723,7.448,9.127,7.448C250.257,24.387,250.888,24.321,251.505,24.197z
	 M255.739,13.82c0.334,1.628,0.016,3.288-0.904,4.677c-0.918,1.392-2.32,2.341-3.947,2.673c-3.359,0.682-6.68-1.561-7.355-4.854
	c-0.689-3.366,1.488-6.665,4.857-7.355c0.416-0.084,0.836-0.129,1.254-0.129C252.585,8.832,255.149,10.93,255.739,13.82z
	 M27.475,57.221v-6.732h0.854c2.483,0,4.503-2.022,4.503-4.505c0-2.482-2.02-4.501-4.503-4.501H18.182
	c-2.482,0-4.502,2.019-4.502,4.501c0,2.484,2.02,4.505,4.502,4.505h0.853v6.732c0,0.852,0.69,1.543,1.543,1.543h5.355
	C26.784,58.764,27.475,58.071,27.475,57.221z M22.12,48.945c0-0.854-0.689-1.543-1.543-1.543h-2.396
	c-0.78,0-1.416-0.635-1.416-1.419c0-0.78,0.636-1.416,1.416-1.416h10.149c0.779,0,1.416,0.636,1.416,1.416
	c0,0.785-0.637,1.419-1.416,1.419h-2.398c-0.854,0-1.543,0.689-1.543,1.543v6.732h-2.27V48.945z M219.052,84.755
	c1.572-1.483,2.367-3.573,2.367-6.217l-0.008-54.766c-0.002-0.034-0.238-3.219,1.658-5.283c1.15-1.247,2.914-1.88,5.24-1.88h13.258
	c0.854,0,1.543-0.69,1.543-1.543s-0.689-1.542-1.543-1.542H228.31c-3.24,0-5.775,0.976-7.531,2.901
	c-2.816,3.083-2.455,7.435-2.445,7.479v54.634c0,1.748-0.469,3.08-1.383,3.957c-1.496,1.425-3.809,1.338-3.906,1.328H31.29
	c-2.282,0-3.993-0.569-5.088-1.69c-1.439-1.479-1.403-3.523-1.403-3.595V57.221c0-0.854-0.69-1.543-1.543-1.543
	c-0.854,0-1.543,0.688-1.543,1.543v21.254c-0.003,0.135-0.106,3.328,2.239,5.771c1.698,1.767,4.166,2.664,7.338,2.664l181.664-0.004
	c0.021,0.004,0.115,0.006,0.266,0.006C214.097,86.911,216.935,86.749,219.052,84.755z" class="color c1"/>
</svg>