<svg version="1.1" id="图层_1" x="0px" y="0px" width="200px" height="127.255px" viewBox="0 0 200 127.255" enable-background="new 0 0 200 127.255" xml:space="preserve" xmlns="http://www.w3.org/2000/svg" xmlns:xlink="http://www.w3.org/1999/xlink" xmlns:xml="http://www.w3.org/XML/1998/namespace">
  <path fill="#FFFFFF" d="M28.014,53.4c-1.273-10.187,0-19.949,4.669-29.712C41.597,5.012,61.122-3.902,80.222,1.617
	c4.669,1.272,8.914,3.396,12.734,5.518c1.273,0.849,2.547,1.697,3.82,2.122c1.273,0.425,2.123,0.849,2.547,0.849h0.424
	c0.849,0,1.698-0.424,2.547-0.849c1.273-0.849,2.547-1.273,3.82-2.122c4.245-2.122,8.064-4.245,12.733-5.518
	c19.101-5.519,38.625,3.396,47.539,22.071c4.67,9.763,6.367,19.525,4.67,29.712c-0.426,3.82-1.699,7.216-2.972,11.036h-8.489
	c5.942-12.734,5.942-25.468,0-37.353S142.617,7.983,130.309,7.983c-2.972,0-5.943,0.425-8.914,1.273
	c-3.396,1.273-7.216,2.972-11.035,5.094c-1.273,0.424-2.547,1.273-4.67,2.122l0,0c-2.122,1.273-4.244,1.698-5.942,1.698h-0.424
	c-1.698,0-3.82-0.85-5.942-1.698l0,0c-1.273-0.849-2.547-1.273-3.82-2.122c-3.82-2.122-7.216-3.82-11.036-5.094
	c-2.971-0.849-5.942-1.273-8.914-1.273c-12.309,0-23.345,7.216-29.288,19.101c-5.518,12.31-5.518,24.618,0,37.353h-8.489
	C30.561,60.616,29.288,56.795,28.014,53.4z M199.919,73.774c0,7.216-5.942,13.158-13.158,13.158c-5.518,0-10.611-3.82-12.31-8.914
	h-32.258l-1.273,2.547c-0.85,1.273-2.123,2.122-3.82,2.122c-1.698-0.424-2.971-1.273-3.82-2.546l-11.461-20.374l-15.279,18.251
	c-0.85,1.273-2.547,1.698-3.82,1.698c-1.698-0.425-2.972-0.849-3.82-2.122l-5.942-8.489l-6.792,21.647
	c-0.424,2.122-2.122,3.396-4.245,3.396h-0.424c-2.122,0-3.82-1.698-4.245-3.82L70.46,39.817L52.208,75.472
	c-0.849,1.697-2.546,2.546-4.245,2.546H25.892c-1.698,5.519-6.791,9.339-12.733,9.339C5.942,87.357,0,81.414,0,74.199
	c0-7.216,5.942-13.158,13.158-13.158c5.942,0,11.46,4.244,12.733,10.187h20.374l21.223-40.748c1.273-1.697,2.971-2.971,5.093-2.547
	c2.122,0.425,3.396,1.698,3.82,3.82l7.216,47.115l5.093-16.13c0.849-1.273,2.122-2.547,3.82-2.971
	c2.122-0.425,3.82,0.424,4.669,1.697l6.792,9.763l15.28-18.252c0.849-1.273,2.122-1.697,3.819-1.697c1.698,0,2.972,0.849,3.82,2.122
	l11.036,19.525l0,0c0.849-1.273,2.122-2.123,3.82-2.123h33.107c1.273-5.518,6.367-10.187,12.733-10.187
	C194.826,60.616,200.768,66.558,199.919,73.774z M20.374,73.774c0-0.849-0.425-2.122-0.849-2.972
	c-1.273-2.122-3.396-3.396-5.942-3.396c-3.82,0-6.791,2.972-6.791,6.792c0,3.819,2.971,6.791,6.791,6.791
	c2.123,0,4.245-1.273,5.518-2.972C19.949,77.169,20.374,75.896,20.374,73.774z M193.977,73.774c0-3.82-2.971-6.791-6.791-6.791
	c-2.547,0-5.094,1.697-5.942,3.819c0,0.85-0.425,2.123-0.425,2.972c0,1.698,0.85,2.971,1.697,4.244
	c1.273,1.698,2.972,2.547,5.094,2.547C191.43,80.565,193.977,77.594,193.977,73.774z M145.588,85.234
	c-0.424,0.425-3.395,3.82-3.395,3.82c-9.338,9.338-19.525,16.554-28.015,21.647c-1.698,0.849-2.972,2.122-4.669,2.971
	c-2.971,1.698-5.518,3.396-8.489,5.519l0,0h-0.424c0,0,0,0-0.424,0l0,0c-2.971-1.698-5.518-3.82-8.489-5.519
	c-1.698-0.849-2.971-2.122-4.669-2.971s-3.396-2.122-5.094-2.972c-0.424-0.424-1.273-0.849-1.698-1.273
	c-8.489-5.942-18.251-13.582-26.316-22.496c-1.698,0.85-3.396,1.273-5.518,1.273h-3.82c11.46,14.008,26.741,25.043,37.777,32.259
	c1.698,0.849,3.396,2.122,4.669,2.972c2.971,1.697,5.518,3.396,8.064,5.093c1.698,1.273,2.971,1.698,5.094,1.698l0,0l0,0
	c1.698,0,3.396-0.425,5.094-1.698c2.547-1.697,5.518-3.396,8.064-5.093c1.697-0.85,3.396-2.123,4.669-2.972
	c11.46-7.216,26.741-18.251,37.776-32.259C156.2,85.234,145.588,84.81,145.588,85.234z" class="color c1"/>
</svg>