<svg version="1.1" id="图层_1" x="0px" y="0px" width="102.167px" height="161.096px" viewBox="0 0 102.167 161.096" enable-background="new 0 0 102.167 161.096" xml:space="preserve" xmlns="http://www.w3.org/2000/svg" xmlns:xlink="http://www.w3.org/1999/xlink" xmlns:xml="http://www.w3.org/XML/1998/namespace">
  <path fill="#1FADB1" d="M16.851,41.84c0-6.24,5.058-11.299,11.296-11.299c6.24,0,11.298,5.059,11.298,11.299
	c0,6.238-5.059,11.297-11.298,11.297C21.909,53.137,16.851,48.078,16.851,41.84z M91.125,149.367
	c-2.935-3.08-8.19-7.258-9.463-8.373c-33.035-32.008-30.008-62.18-30.008-62.18c4.87-46.863,50.514-30.125,50.514-30.125
	c-12.743-7-17.192-7-17.192-7C37.808,29.822,30.657,80.641,30.657,80.641C2.51,61.623,11.183,0,11.183,0
	c-24.192,49.068-1.599,87.41-1.599,87.41c15.774,29.295,45.796,48.068,66.479,58.156l-0.028,0.027c0,0,20.445,10.541,24.95,15.502
	c-1.055-1.414-3.207-4.227-5.974-7.439C93.817,152.273,92.51,150.814,91.125,149.367z" class="color c1"/>
</svg>