<svg version="1.1" id="图层_1" x="0px" y="0px" width="147.969px" height="91.582px" viewBox="0 0 147.969 91.582" enable-background="new 0 0 147.969 91.582" xml:space="preserve" xmlns="http://www.w3.org/2000/svg" xmlns:xlink="http://www.w3.org/1999/xlink" xmlns:xml="http://www.w3.org/XML/1998/namespace">
  <path fill="#2C9FD0" d="M62.989,85.261c0,0,7.455-14.33-8.766-18.99c-2.936-0.844-17.756-0.891-30.093,7.304
	c0,0,8.839-17.53,40.94-12.854c0,0,0.066,0.013,0.18,0.037c-1.816-2.667-3.559-4.266-3.559-4.266C43.91,36.88,5.851,59.395,0,63.041
	C6.164,70.035,39.719,105.886,62.989,85.261z" class="color c1"/>
  <path fill="#60B8BF" d="M65.071,60.72c0,0,14.049,2.903,22.459,4.806c1.668-1.353,3.381-2.999,5.131-4.998
	c0,0,15.152-21.571-18.523-60.527c0,0-34.262,37.449-17.351,59.965C59.36,60.049,62.115,60.289,65.071,60.72z M79.116,41.158
	c5.1,0,9.232,4.135,9.232,9.232c0,5.101-4.133,9.234-9.232,9.234c-5.099,0-9.232-4.134-9.232-9.234
	C69.883,45.293,74.017,41.158,79.116,41.158z" class="color c2"/>
  <path opacity="0.9" fill="#EE8F25" d="M90.745,66.271c0,0,28.632,4.966,37.98-4.383c0,0-9.699,16.074-34.475,13.867
	c-3.24-0.289-9.934-2.765-12.563,3.37c0,0-0.219,0.669,0.021,1.659c0.556,1,1.229,2.008,2.041,3.02
	c4.16,3.714,20.381,14.736,40.886-0.004c0,0,16.604-11.02,23.334-21.272c-7.958-4.827-43.77-24.884-60.859-6.036
	c0,0-3.305,3.031-5.555,7.715C85.1,64.976,88.461,65.723,90.745,66.271z" class="color c3"/>
</svg>