<svg version="1.1" id="图层_1" x="0px" y="0px" width="198.064px" height="200px" viewBox="0 0 198.064 200" enable-background="new 0 0 198.064 200" xml:space="preserve" xmlns="http://www.w3.org/2000/svg" xmlns:xlink="http://www.w3.org/1999/xlink" xmlns:xml="http://www.w3.org/XML/1998/namespace">
  <path fill="#FFFFFF" d="M100.281,99.654c-0.832,1.252-2.914,2.916-5.826,1.666L61.582,82.596c-2.079-1.246-2.911-3.742-1.662-5.824
	c1.246-2.082,3.743-2.914,5.825-1.664l32.872,18.307C100.697,94.664,101.529,97.16,100.281,99.654z M198.064,113.805v54.51
	c0,1.664-0.832,2.91-2.08,3.742l-47.437,27.463c-0.832,0.418-2.497,0.832-4.161,0l-45.355-26.213L53.678,199.52
	c-0.833,0.418-2.496,0.832-4.162,0L2.08,172.057C0.832,171.225,0,169.979,0,168.314v-54.51c0-1.666,0.832-2.916,2.08-3.746
	l45.355-25.797V31.834c0-1.668,0.832-2.916,2.08-3.746L96.951,0.623c1.248-0.83,2.914-0.83,4.162,0l47.435,27.465
	c1.248,0.83,2.081,2.078,2.081,3.746v52.01l45.355,26.215C197.232,110.889,198.064,112.139,198.064,113.805z M94.871,116.303
	L51.598,91.336L8.322,116.303v49.93l43.275,24.967l43.273-24.967V116.303z M99.031,108.811l43.275-24.967V33.91L99.031,8.945
	L55.758,33.91v49.934L99.031,108.811z M189.742,166.232v-49.93l-43.275-24.967l-43.273,24.967v49.93l43.273,24.967L189.742,166.232
	L189.742,166.232z M132.736,35.992c-2.497,0-4.162,1.664-4.162,4.16v37.869c0,2.494,1.665,4.158,4.162,4.158
	c2.496,0,4.16-1.664,4.16-4.158V40.152C136.896,38.074,135.232,35.992,132.736,35.992z M65.328,43.898l16.228-9.568
	c2.081-1.25,2.497-3.746,1.665-5.828c-1.248-2.078-3.744-2.496-5.826-1.664L61.166,36.41c-2.079,1.246-2.912,3.742-1.663,5.824
	C62,45.563,64.912,44.316,65.328,43.898z M145.219,100.906c-1.248,2.078-0.416,4.576,1.664,5.822l32.874,18.727
	c0.83,0.414,3.327,1.664,5.823-1.666c1.248-1.662,0.416-4.574-1.664-5.822l-32.871-18.725
	C148.548,98.406,146.051,98.824,145.219,100.906z M112.765,117.967c-2.498,0-4.163,1.664-4.163,4.16v37.865
	c0,2.494,1.665,4.158,4.163,4.158c2.495,0,4.159-1.664,4.159-4.158v-37.865C116.924,120.045,114.844,117.967,112.765,117.967z
	 M179.757,156.246l-16.229,9.568c-2.079,1.25-2.913,3.746-1.664,5.828c2.08,3.328,4.992,1.664,5.826,1.664l16.227-9.568
	c2.08-1.252,2.496-3.746,1.664-5.828C184.333,155.832,181.836,154.998,179.757,156.246z M47.436,99.242l-32.872,18.725
	c-2.079,1.248-2.913,3.742-1.665,5.822c2.081,3.33,4.994,2.08,5.826,1.666l32.873-18.727c2.08-1.246,2.495-3.744,1.664-5.822
	C52.013,98.824,49.516,98.406,47.436,99.242z M85.301,164.15c2.497,0,4.16-1.664,4.16-4.158v-37.865c0-2.496-1.663-4.16-4.16-4.16
	c-2.496,0-4.16,1.664-4.16,4.16v37.865C81.141,162.072,83.221,164.15,85.301,164.15z M34.536,165.814l-16.228-9.568
	c-2.082-1.248-4.578-0.414-5.824,1.664c-1.248,2.082-0.418,4.576,1.663,5.828l16.228,9.568c0.832,0.414,3.746,1.664,5.825-1.664
	C37.033,169.561,36.2,167.064,34.536,165.814z" class="color c1"/>
</svg>