<svg version="1.1" id="图层_1" x="0px" y="0px" width="162.145px" height="161.785px" viewBox="0 0 162.145 161.785" enable-background="new 0 0 162.145 161.785" xml:space="preserve" xmlns="http://www.w3.org/2000/svg" xmlns:xlink="http://www.w3.org/1999/xlink" xmlns:xml="http://www.w3.org/XML/1998/namespace">
  <path fill="#FC8009" d="M142.424,81.522l13.171-2.86c8.86-1.926,8.711-4.082-0.324-4.795l-13.441-1.063
	c-9.036-0.712-9.965-4.935-2.067-9.386l11.745-6.617c7.898-4.449,7.124-6.469-1.72-4.485l-13.158,2.944
	c-8.848,1.982-10.979-1.779-4.745-8.357l9.273-9.787c6.236-6.58,4.897-8.281-2.967-3.777l-11.71,6.695
	c-7.865,4.501-11.018,1.535-6.996-6.588l5.978-12.088c4.02-8.123,2.239-9.354-3.951-2.736l-9.213,9.848
	c-6.189,6.623-10.073,4.717-8.625-4.233l2.15-13.312c1.446-8.947-0.62-9.601-4.582-1.449l-5.902,12.126
	c-3.964,8.148-8.234,7.474-9.49-1.503l-1.87-13.353c-1.262-8.979-3.423-8.995-4.81-0.035l-2.063,13.324
	c-1.387,8.955-5.668,9.57-9.515,1.364L61.87,9.188c-3.845-8.206-5.916-7.586-4.604,1.382l1.955,13.343
	c1.318,8.969-2.593,10.816-8.69,4.105l-9.068-9.979c-6.093-6.708-7.89-5.502-3.989,2.68l5.801,12.174
	c3.901,8.18,0.71,11.1-7.094,6.486l-11.603-6.864c-7.808-4.612-9.163-2.933-3.025,3.737l9.13,9.92
	c6.14,6.67,3.948,10.397-4.868,8.29l-13.111-3.138c-8.815-2.113-9.622-0.105-1.789,4.461l11.651,6.785
	c7.833,4.564,6.837,8.774-2.208,9.354L6.901,72.791c-9.044,0.583-9.222,2.737-0.396,4.793l13.135,3.054
	c8.826,2.052,9.119,6.366,0.648,9.59L7.686,95.017c-8.471,3.226-8.006,5.336,1.035,4.696l13.449-0.954
	c9.043-0.642,10.593,3.399,3.447,8.974l-10.63,8.295c-7.145,5.578-6.079,7.457,2.373,4.181l12.568-4.872
	c8.451-3.28,11.123,0.123,5.938,7.556l-7.709,11.06c-5.187,7.437-3.613,8.918,3.498,3.294l10.573-8.363
	c7.114-5.624,10.668-3.16,7.904,5.472l-4.112,12.842c-2.762,8.633-0.82,9.585,4.314,2.119l7.64-11.109
	c5.141-7.47,9.263-6.163,9.169,2.897l-0.144,13.483c-0.096,9.063,2.041,9.399,4.746,0.752l4.027-12.873
	c2.706-8.648,7.031-8.616,9.61,0.076l3.841,12.922c2.58,8.688,4.718,8.383,4.76-0.681l0.049-13.479
	c0.037-9.068,4.18-10.313,9.206-2.769l7.479,11.217c5.026,7.543,6.979,6.624,4.345-2.053l-3.921-12.899
	c-2.639-8.672,0.954-11.082,7.979-5.357l10.453,8.518c7.025,5.727,8.622,4.268,3.551-3.242l-7.557-11.174
	c-5.074-7.508-2.354-10.87,6.049-7.471l12.498,5.054c8.403,3.405,9.503,1.538,2.438-4.14l-10.51-8.453
	c-7.063-5.676-5.455-9.689,3.579-8.919l13.43,1.149c9.032,0.773,9.531-1.33,1.105-4.681l-12.532-4.977
	C133.209,87.758,133.563,83.449,142.424,81.522z M36.897,63.05c0.323-2.274,1.59-4.468,3.071-4.958
	c1.468-0.486,2.543,1.033,2.182,3.498c-0.348,2.47-2.006,4.789-3.453,5.08C37.25,66.967,36.57,65.32,36.897,63.05z M34.326,79.734
	c0.034-2.461,0.978-4.57,2.419-4.711c1.433-0.143,2.774,1.961,2.741,4.689c-0.025,2.731-1.422,4.846-2.852,4.711
	C35.198,84.297,34.301,82.193,34.326,79.734z M39.042,101.553c-1.47-0.489-2.678-2.709-2.949-5.014
	c-0.266-2.3,0.448-3.977,1.89-3.686c1.438,0.283,3.043,2.624,3.333,5.135C41.617,100.495,40.5,102.047,39.042,101.553z
	 M45.333,115.135c-1.545-0.563-3.16-2.354-3.729-4.158c-0.572-1.79,0-2.884,1.489-2.319c1.487,0.565,3.342,2.642,3.963,4.438
	C47.681,114.887,46.867,115.695,45.333,115.135z M47.861,46.928c-0.673,1.711-2.571,3.725-4.076,4.271
	c-1.5,0.554-2.049-0.51-1.432-2.242c0.618-1.742,2.289-3.453,3.852-3.977C47.753,44.453,48.539,45.213,47.861,46.928z
	 M55.156,51.162c0.471-2.191,2.652-4.005,4.934-4.282c2.281-0.276,3.917,1.097,3.595,3.335c-0.319,2.235-2.628,4.424-5.054,4.65
	C56.206,55.092,54.689,53.343,55.156,51.162z M52.89,69.523c0.182-2.838,2.257-5.208,4.75-5.371
	c2.494-0.162,4.495,2.037,4.366,5.003c-0.126,2.964-2.385,5.452-4.927,5.487C54.54,74.68,52.717,72.354,52.89,69.523z
	 M52.682,90.302c-0.118-2.856,1.752-5.171,4.299-5.112c2.542,0.055,4.759,2.58,4.829,5.564c0.075,2.987-1.979,5.191-4.473,5.004
	C54.837,95.569,52.8,93.156,52.682,90.302z M54.563,108.948c-0.42-2.239,1.141-4.011,3.572-3.755
	c2.434,0.254,4.711,2.508,4.987,4.807c0.277,2.303-1.406,3.711-3.692,3.402C57.135,113.093,54.982,111.2,54.563,108.948z
	 M63.393,122.781c-1.93-0.199-4.104-0.832-4.83-1.852c-0.722-1.006,0.422-1.875,2.585-1.568c2.168,0.292,4.348,1.617,4.838,2.521
	C66.473,122.793,65.318,122.975,63.393,122.781z M66.798,38.943c-0.513,0.799-2.705,2.016-4.852,2.271
	c-2.152,0.271-3.258-0.561-2.502-1.461c0.754-0.922,2.938-1.424,4.845-1.582C66.188,38.019,67.308,38.136,66.798,38.943z
	 M77.292,40.434c0.145-1.622,2.15-2.594,4.462-2.576c2.313,0.023,4.307,1.025,4.444,2.649c0.133,1.614-1.873,3.186-4.467,3.157
	C79.138,43.651,77.146,42.041,77.292,40.434z M81.671,54.168c2.741,0.023,5.013,2.129,5.067,4.885
	c0.053,2.752-2.249,5.094-5.131,5.074c-2.883-0.022-5.151-2.404-5.068-5.158C76.633,56.214,78.931,54.146,81.671,54.168z
	 M85.593,123.694c-0.158,1.622-2.171,2.597-4.48,2.589c-2.314-0.019-4.301-1.016-4.424-2.641c-0.127-1.615,1.888-3.193,4.483-3.17
	C83.769,120.482,85.753,122.086,85.593,123.694z M81.287,107.223c-2.736-0.018-5.008-2.12-5.059-4.875
	c-0.045-2.754,2.26-5.104,5.143-5.081c2.885,0.018,5.146,2.394,5.054,5.142C86.332,105.167,84.026,107.24,81.287,107.223z
	 M81.454,86.363c-2.932-0.021-5.296-2.572-5.271-5.709c0.024-3.134,2.424-5.654,5.354-5.631c2.934,0.022,5.295,2.576,5.271,5.708
	C86.783,83.865,84.387,86.387,81.454,86.363z M107.916,52.438c0.416,2.243-1.141,4.014-3.572,3.755
	c-2.436-0.252-4.712-2.509-4.988-4.805c-0.279-2.305,1.408-3.713,3.697-3.404C105.346,48.291,107.497,50.187,107.916,52.438z
	 M99.085,38.608c1.929,0.199,4.103,0.832,4.832,1.851c0.723,1.002-0.42,1.873-2.591,1.566c-2.161-0.292-4.342-1.612-4.831-2.521
	C96.003,38.59,97.164,38.412,99.085,38.608z M103.033,121.637c-0.756,0.918-2.94,1.425-4.842,1.58
	c-1.901,0.15-3.024,0.037-2.51-0.768c0.513-0.803,2.703-2.022,4.852-2.275C102.682,119.9,103.789,120.732,103.033,121.637z
	 M107.32,110.224c-0.47,2.194-2.649,4.009-4.932,4.283c-2.274,0.278-3.918-1.097-3.596-3.335c0.325-2.236,2.629-4.426,5.054-4.647
	C106.278,106.29,107.791,108.043,107.32,110.224z M109.586,91.865c-0.176,2.835-2.254,5.211-4.754,5.371
	c-2.489,0.164-4.493-2.039-4.36-5.004c0.122-2.965,2.382-5.453,4.924-5.488C107.943,86.708,109.765,89.026,109.586,91.865z
	 M105.5,76.197c-2.543-0.06-4.758-2.582-4.83-5.564c-0.075-2.988,1.979-5.193,4.476-5.004c2.495,0.189,4.531,2.602,4.65,5.457
	C109.913,73.939,108.043,76.255,105.5,76.197z M122.519,59.825c1.469,0.495,2.68,2.712,2.948,5.017
	c0.264,2.297-0.447,3.976-1.888,3.688c-1.439-0.287-3.041-2.631-3.334-5.138C119.947,60.887,121.062,59.333,122.519,59.825z
	 M117.147,46.252c1.545,0.562,3.157,2.354,3.73,4.155c0.571,1.789,0,2.886-1.492,2.318c-1.485-0.56-3.336-2.642-3.964-4.435
	C114.794,46.499,115.613,45.692,117.147,46.252z M120.125,112.426c-0.619,1.742-2.294,3.455-3.852,3.98
	c-1.549,0.527-2.332-0.23-1.657-1.947c0.672-1.713,2.578-3.727,4.08-4.272C120.193,109.627,120.744,110.696,120.125,112.426z
	 M125.28,98.334c-0.327,2.273-1.593,4.466-3.075,4.957c-1.469,0.486-2.541-1.027-2.186-3.5c0.357-2.465,2.011-4.784,3.455-5.076
	C124.921,94.422,125.601,96.066,125.28,98.334z M125.324,86.357c-1.43,0.142-2.778-1.959-2.742-4.69
	c0.03-2.731,1.424-4.841,2.854-4.713c1.437,0.132,2.333,2.236,2.306,4.694C127.716,84.107,126.766,86.223,125.324,86.357z" class="color c1"/>
</svg>