<svg version="1.1" id="图层_1" x="0px" y="0px" width="77.951px" height="77.953px" viewBox="0 0 77.951 77.953" enable-background="new 0 0 77.951 77.953" xml:space="preserve" xmlns="http://www.w3.org/2000/svg" xmlns:xlink="http://www.w3.org/1999/xlink" xmlns:xml="http://www.w3.org/XML/1998/namespace">
  <path fill="#FFFFFF" d="M75.655,24.074H53.876V2.296C53.876,1.027,52.851,0,51.583,0H26.365c-1.271,0-2.295,1.027-2.295,2.296
	v21.778H2.294C1.028,24.074,0,25.102,0,26.369V51.59c0,1.262,1.028,2.289,2.294,2.289H24.07v21.784c0,1.262,1.024,2.29,2.295,2.29
	h25.218c1.268,0,2.293-1.028,2.293-2.29V53.879h21.779c1.271,0,2.296-1.027,2.296-2.289V26.369
	C77.951,25.096,76.926,24.074,75.655,24.074z" class="color c1"/>
</svg>