<svg version="1.1" id="图层_1" x="0px" y="0px" width="208.49px" height="208.49px" viewBox="0 0 208.49 208.49" enable-background="new 0 0 208.49 208.49" xml:space="preserve" xmlns:xml="http://www.w3.org/XML/1998/namespace" xmlns="http://www.w3.org/2000/svg" xmlns:xlink="http://www.w3.org/1999/xlink">
  <path fill="#FFFFFF" d="M106.165,101.466C98.131,95.01,91.897,89.24,89.746,78.412c-1.313-6.608-1.518-12.891-0.195-19.306
	c0.021-0.104,0.036-0.214,0.057-0.319c0.251-1.977,0.563-3.99,0.904-6.059c0.546-5.078,0.697-10.395,0.92-15.387
	c-0.375-9.734-2.458-19.733-6.197-28.17C83.987,6.357,82.443,3.131,80.571,0h-8.825v71.746H0v64.998h71.746v39.327
	c4.71-0.131,9.415-0.117,14.132,0.406c2.577,0.285,5.114,0.99,7.703,1.178c3.49,0.252,10.093-0.854,7.95-6.465
	c-1.605-4.203-3.569-7.39-0.678-11.555c1.816-2.617,4.955-4.777,2.792-8.47c-0.802-1.369-2.193-2.747-2.661-4.276
	c-0.942-3.088,1.418-4.971,3.693-6.57c6.125-4.311-1.783-7.114-3.278-11.264c-1.322-3.666,3.629-7.016,5.538-9.3
	c1.926-2.303,4.063-4.583,5.551-6.792c0.14-0.759,0.23-1.518,0.23-2.26C112.716,106.733,108.931,103.688,106.165,101.466z
	 M136.578,71.746l0.166-19.377V0H104.69h-6.116c10.222,15.366,13.571,30.535,13.091,59.354
	c-0.689,41.249,38.26,45.558,17.219,59.186c-14.445,9.348-9.004,10.1-4.419,17.775c3.073,5.306-0.381,7.113-6.122,10.588
	c5.756,9.789,5.639,8.211-2.645,13.684c-8.789,5.707,10.076,23.506-10.865,28.104c-10.691,2.313-20.899-2.741-33.087-0.467v20.269
	h64.998v-71.746h60.901h10.845v-22.491v-5.609V71.746H136.578z" class="color c1"/>
</svg>