<svg version="1.1" id="图层_1" x="0px" y="0px" width="54.579px" height="54.579px" viewBox="0 0 54.579 54.579" enable-background="new 0 0 54.579 54.579" xml:space="preserve" xmlns="http://www.w3.org/2000/svg" xmlns:xlink="http://www.w3.org/1999/xlink" xmlns:xml="http://www.w3.org/XML/1998/namespace">
  <title>233</title>
  <circle fill="#FFD739" cx="27.29" cy="27.29" r="27.29" class="color c1"/>
  <path fill="#FFFFFF" d="M41.092,22.099h-9.447v-9.446c0-2.298-1.863-4.161-4.161-4.161h-1.041c-2.298,0-4.161,1.863-4.161,4.161
	v9.446h-9.448c-2.298,0-4.161,1.863-4.161,4.161v1.041c0,2.298,1.863,4.161,4.161,4.161h9.448v9.449
	c0,2.298,1.863,4.161,4.161,4.161h1.041c2.298,0,4.161-1.863,4.161-4.161v-9.449h9.447c2.298,0,4.161-1.863,4.161-4.161V26.26
	C45.253,23.962,43.39,22.099,41.092,22.099z" class="color c2"/>
</svg>