<svg version="1.1" id="图层_1" x="0px" y="0px" width="40.377px" height="187.037px" viewBox="0 0 40.377 187.037" enable-background="new 0 0 40.377 187.037" xml:space="preserve" xmlns="http://www.w3.org/2000/svg" xmlns:xlink="http://www.w3.org/1999/xlink" xmlns:xml="http://www.w3.org/XML/1998/namespace">
  <path fill="#5F86B3" d="M26.032,31.002c0.371,3.004-1.764,5.744-4.77,6.114c-3.008,0.375-5.744-1.763-6.119-4.769
	c-0.369-3.007,1.766-5.743,4.771-6.115C22.921,25.859,25.659,27.994,26.032,31.002z" class="color c1"/>
  <circle fill="#5F86B3" cx="28.37" cy="16.784" r="4.786" class="color c1"/>
  <circle fill="#5F86B3" cx="34.562" cy="3.738" r="3.737" class="color c1"/>
  <path fill="#5F86B3" d="M40.339,181.577c0.332,2.665-1.559,5.092-4.227,5.423c-2.662,0.329-5.092-1.562-5.42-4.227
	c-0.33-2.664,1.564-5.097,4.229-5.423C37.583,177.023,40.013,178.913,40.339,181.577z" class="color c1"/>
  <path fill="#5F86B3" d="M20.636,48.468c0.422,3.415-2.004,6.527-5.414,6.947c-3.414,0.422-6.525-2.001-6.947-5.417
	c-0.422-3.414,2.004-6.524,5.418-6.944C17.103,42.631,20.214,45.056,20.636,48.468z" class="color c1"/>
  <circle fill="#5F86B3" cx="32.778" cy="165.912" r="5.642" class="color c1"/>
  <path fill="#5F86B3" d="M15.851,67.751c0.453,3.653-2.145,6.979-5.797,7.43c-3.648,0.452-6.975-2.139-7.426-5.792
	c-0.453-3.651,2.141-6.978,5.793-7.43C12.067,61.507,15.399,64.1,15.851,67.751z" class="color c1"/>
  <path fill="#5F86B3" d="M32.909,147.309c0.43,3.49-2.049,6.666-5.533,7.098c-3.488,0.432-6.67-2.045-7.102-5.535
	s2.047-6.666,5.533-7.096C29.298,141.343,32.478,143.821,32.909,147.309z" class="color c1"/>
  <path fill="#5F86B3" d="M14.263,88.157c0.482,3.921-2.307,7.496-6.227,7.98c-3.922,0.488-7.496-2.301-7.98-6.223
	c-0.49-3.924,2.303-7.497,6.219-7.984C10.198,81.446,13.776,84.229,14.263,88.157z" class="color c1"/>
  <path fill="#5F86B3" d="M25.399,127.23c0.465,3.714-2.178,7.102-5.891,7.558c-3.713,0.459-7.1-2.18-7.563-5.896
	c-0.459-3.714,2.184-7.101,5.896-7.557C21.556,120.874,24.94,123.511,25.399,127.23z" class="color c1"/>
  <path fill="#5F86B3" d="M18.349,108.3c0.527,4.261-2.502,8.142-6.764,8.671c-4.258,0.527-8.145-2.498-8.676-6.763
	c-0.523-4.263,2.506-8.146,6.764-8.672C13.935,101.01,17.819,104.037,18.349,108.3z" class="color c1"/>
</svg>