<svg version="1.1" id="图层_1" x="0px" y="0px" width="112.315px" height="118.246px" viewBox="0 0 112.315 118.246" enable-background="new 0 0 112.315 118.246" xml:space="preserve" xmlns="http://www.w3.org/2000/svg" xmlns:xlink="http://www.w3.org/1999/xlink" xmlns:xml="http://www.w3.org/XML/1998/namespace">
  <path fill="#7DBF5A" d="M32.687,45.178l3.426-2.251l-2.005,3.576l-5.584,9.961c-0.029,2.379,0.828,6.613,1.67,10.746
	c1.15,5.645,2.34,11.48,1.822,14.673c-1.008,6.213-6.979,20.457-7.232,21.061l-1.885-0.658c0.057-0.199,5.579-20.034,3.816-28.526
	c-0.973-4.689-1.254-8.831-1.3-11.751l-4.308,7.685l-2.067,3.688l0.196-4.225C19.266,68.519,20.107,53.444,32.687,45.178z
	 M46.532,2.23c0.101,0.108,2.464,2.705,2.282,6.222c-0.117,2.266-1.247,4.354-3.356,6.208l-0.243,0.214l-0.321,0.03
	c-0.075,0.008-6.986,0.684-10.956,1.836l0.165,0.35l-1.47,0.093c-0.141,0.009-0.316,0.02-0.428,0.045l-0.063,0.014l-0.064,0.006
	c-0.115,0.01-0.238,0.022-0.379,0.038c-3.786,0.66-6.303,1.99-7.481,3.953l-0.312,0.514c-0.016,0.028-0.031,0.058-0.047,0.086
	l-0.016,0.026c-0.043,0.107-0.09,0.213-0.137,0.318c-0.06,0.136-0.122,0.272-0.171,0.418c-0.08,0.301-0.158,0.606-0.234,0.901
	l-0.435,1.819l-0.113,0.479l-0.047,0.182c-0.391,1.541-0.833,3.288-1.769,5.128c-0.181,0.37-0.414,0.731-0.603,1.021
	c-0.068,0.106-0.133,0.206-0.21,0.331c-0.22,0.327-0.399,0.64-0.547,0.902l-0.015,0.024l-0.015,0.024
	c-0.097,0.15-0.193,0.357-0.296,0.576c-0.054,0.116-0.108,0.231-0.16,0.337l-0.586,1.205c-0.929,1.749-1.913,3.273-2.837,4.657
	c-1.016,1.526-2.029,2.944-2.89,4.134c-1.88,2.565-3.732,5.004-5.352,7.043c-0.567,0.73-1.106,1.414-1.604,2.046
	c-0.88,1.116-1.641,2.08-2.193,2.841c-0.385,0.532-0.748,1.034-0.906,1.318L2.434,58.12L0,62.729l0.556-5.182l0.068-0.632
	l0.004-0.035l0.007-0.035c0.113-0.626,0.287-1.265,0.509-1.88c0.29-0.854,0.643-1.75,1.048-2.667
	c0.457-1.027,0.953-2.125,1.544-3.259c1.249-2.524,2.877-5.37,4.311-7.832l1.412-2.354l1.13-1.883
	c0.214-0.36,0.429-0.719,0.644-1.074c0.652-1.086,1.27-2.11,1.787-3.112l0.576-1.143c0.062-0.118,0.118-0.237,0.176-0.354
	c0.156-0.319,0.316-0.649,0.516-0.958c0.279-0.485,0.563-0.923,0.816-1.261c0.089-0.132,0.171-0.246,0.246-0.353
	c0.135-0.19,0.231-0.327,0.324-0.499c0.605-1.074,1.128-2.513,1.655-4.025c0.092-0.255,0.177-0.505,0.26-0.754
	c0.169-0.502,0.344-1.021,0.573-1.559l0.517-1.221l0.011-0.026l0.013-0.025c0.157-0.316,0.334-0.603,0.505-0.88
	c0.066-0.106,0.132-0.213,0.214-0.348c0.176-0.275,0.34-0.546,0.5-0.81c0.711-1.172,1.384-2.281,2.609-2.961
	c0.584-0.516,3.305-2.702,7.658-2.799c1.176-0.734,6.09-3.59,11.516-3.59c0.766,0,1.518,0.058,2.238,0.173
	c0.45-0.216,1.383-1.691,0.862-6.372L44.469,0L46.532,2.23z M42.348,10.245c-0.215-0.01-0.431-0.026-0.645-0.026
	c-0.042,0-0.083,0.004-0.124,0.005C41.834,10.221,42.091,10.233,42.348,10.245z M110.379,58.79c0.078,0.018,0.153,0.031,0.23,0.045
	c-0.081-0.014-0.175-0.036-0.259-0.051C110.36,58.786,110.369,58.788,110.379,58.79z M110.609,58.835
	c0.651,0.125,1.225,0.184,1.706,0.168C111.883,58.987,111.309,58.95,110.609,58.835z M110.053,58.72
	c0.1,0.021,0.194,0.043,0.298,0.064c-0.098-0.018-0.197-0.038-0.299-0.059l-0.457,4.654l-1.45-4.958l-0.169-0.58
	c-0.104-0.333-0.357-0.896-0.625-1.492c-0.388-0.861-0.937-1.961-1.572-3.234c-0.358-0.719-0.747-1.496-1.148-2.315
	c-1.17-2.326-2.487-5.09-3.813-7.999c-0.563-1.255-1.297-2.914-1.984-4.628c-0.624-1.544-1.277-3.235-1.841-5.173l-0.318-1.258
	c-0.031-0.122-0.062-0.247-0.091-0.372c-0.055-0.234-0.107-0.456-0.171-0.622l-0.01-0.025l-0.008-0.026
	c-0.099-0.309-0.21-0.643-0.368-1.034c-0.035-0.099-0.078-0.209-0.123-0.325c-0.125-0.324-0.281-0.727-0.379-1.111
	c-0.546-2.008-0.624-3.808-0.693-5.396l-0.009-0.203c-0.022-0.796-0.044-1.581-0.067-2.331c-0.015-0.319-0.03-0.636-0.047-0.946
	c-0.018-0.152-0.051-0.298-0.082-0.443c-0.025-0.118-0.051-0.236-0.072-0.355c-0.277-1.081-0.717-1.994-1.289-2.694
	c-0.614-0.712-1.354-1.347-2.174-1.872c-0.69-0.416-1.432-0.789-2.184-1.101c-1.281-0.5-2.098-0.689-2.104-0.69l-4.631-1.045
	l4.658-0.912c0.062-0.012,0.63-0.117,1.631-0.117c0.341,0,0.696,0.012,1.082,0.038c1.702,0.157,4.254,0.594,6.756,2.569
	c1.349,1.09,2.447,2.619,3.107,4.339c0.04,0.117,0.083,0.235,0.127,0.354c0.11,0.305,0.225,0.62,0.313,0.96l0.007,0.028l0.006,0.028
	l0.257,1.295c0.116,0.575,0.181,1.118,0.244,1.644c0.031,0.261,0.063,0.524,0.103,0.804c0.217,1.641,0.427,3.095,0.807,4.287
	c0.049,0.167,0.116,0.32,0.209,0.533c0.053,0.12,0.109,0.25,0.151,0.354c0.2,0.429,0.389,0.915,0.546,1.397
	c0.148,0.392,0.24,0.749,0.328,1.096c0.031,0.125,0.063,0.251,0.1,0.383l0.327,1.219c0.306,1.094,0.7,2.222,1.118,3.415
	c0.138,0.394,0.276,0.79,0.411,1.184l1.364,3.914l0.269,0.77c0.899,2.692,1.915,5.811,2.618,8.513
	c0.354,1.253,0.615,2.428,0.854,3.526c0.212,0.982,0.374,1.933,0.48,2.803c0.095,0.667,0.136,1.328,0.119,1.965l-0.001,0.034
	l-0.004,0.034l-0.061,0.634L110.053,58.72z M88.672,11.122c-0.07,0-0.146-0.003-0.211-0.003c-0.004,0-0.007,0-0.011,0
	C88.52,11.119,88.598,11.121,88.672,11.122z M95.32,59.406l0.424,0.406l-0.148,0.568l-0.336,1.285l-0.209,0.793l-0.176,0.86
	c-0.043,0.239-0.098,0.475-0.151,0.709c-0.083,0.355-0.16,0.69-0.192,1.066l-0.242,1.829c-0.024,0.256-0.064,0.511-0.104,0.766
	c-0.057,0.354-0.109,0.689-0.108,1.037c-0.045,1.392-0.103,2.636-0.177,3.799l-0.123,2.065l-0.145,1.995l-0.169,1.977
	c-0.058,0.729-0.187,1.47-0.3,2.09c-0.246,1.492-0.497,2.821-0.765,4.053l-0.064,0.316c-0.116,0.568-0.235,1.156-0.402,1.721
	l-0.54,1.95c-0.438,1.541-0.854,2.789-1.307,3.928l-1.651,4.153l-0.276-4.461c-0.042-0.676-0.069-1.37-0.08-2.053
	c-0.006-0.23-0.015-0.462-0.023-0.692c-0.017-0.449-0.033-0.896-0.032-1.336l-0.015-3.947c-0.03-1.207-0.027-2.497,0.011-3.962
	c0.033-0.71,0.001-1.454-0.032-2.241c-0.023-0.551-0.047-1.104-0.049-1.636l-0.032-2.001l-0.008-1.92
	c0-1.286,0.021-2.658,0.065-4.145c-0.012-0.559,0.073-1.073,0.155-1.57c0.035-0.215,0.071-0.429,0.102-0.679l0.318-2.052
	c0.07-0.517,0.206-1.004,0.337-1.476c0.063-0.224,0.125-0.448,0.187-0.705l0.131-0.476c-0.625-0.717-1.201-1.394-1.756-2.063
	c-0.333-0.411-0.671-0.816-1.009-1.222c-0.601-0.72-1.222-1.463-1.797-2.225l-0.357-0.459l-0.04-0.051
	c-0.049-0.063-0.099-0.126-0.145-0.2l-0.143-0.201l-0.682-0.951c-0.254-0.361-0.495-0.728-0.737-1.092
	c-0.248,0.652-0.519,1.301-0.823,1.939c-0.335,0.812-0.745,1.527-1.134,2.172l-0.587,0.995l-0.517,0.893l-0.229,0.403
	c-0.268,0.466-0.545,0.947-0.662,1.291l-0.013,0.035l-0.014,0.033l-0.351,0.82l-0.305,0.921c-0.384,1.172-0.704,2.466-0.951,3.848
	c-0.075,0.413-0.128,0.836-0.185,1.284c-0.029,0.235-0.059,0.472-0.091,0.706l-0.157,2.019c-0.114,3.139,0.002,5.829,0.359,8.239
	c0.192,1.44,0.504,2.832,0.78,3.989c0.383,1.501,0.772,2.631,1.278,3.689c0.234,0.528,0.476,0.983,0.73,1.466l0.18,0.343
	l1.017,1.854c0.747,1.29,1.5,2.537,2.243,3.715l2.319,3.759c0.752,1.208,1.553,2.512,2.312,3.854
	c0.763,1.334,1.501,2.648,2.135,4.033c0.673,1.423,1.314,2.968,1.45,4.625l0.689,8.36l-2.635-7.964
	c-0.387-1.167-1.112-2.182-1.881-3.256l-0.176-0.246c-0.781-1.056-1.656-2.18-2.675-3.436l-2.794-3.439
	c-0.269-0.334-0.539-0.668-0.811-1.003c-0.656-0.809-1.335-1.645-1.979-2.495c-0.904-1.184-1.808-2.411-2.697-3.669
	c-0.126-0.188-0.254-0.373-0.381-0.558c-0.303-0.439-0.614-0.894-0.92-1.395l-0.117-0.195c-0.374-0.624-0.761-1.27-1.057-1.85
	c-0.722-1.317-1.34-2.82-1.887-4.588c-0.447-1.41-0.799-2.947-1.074-4.691c-0.237-1.422-0.4-2.918-0.514-4.705
	c-0.035-0.523-0.046-1.045-0.056-1.55c-0.006-0.268-0.011-0.534-0.021-0.847c0.006-0.509,0.028-1.02,0.051-1.529
	c0.012-0.272,0.023-0.545,0.033-0.817l0.001-0.03l0.003-0.03l0.222-2.32l0.003-0.031l0.005-0.03c0.04-0.253,0.076-0.506,0.113-0.759
	c0.075-0.519,0.152-1.056,0.261-1.603c0.318-1.534,0.683-3.165,1.322-4.738l0.442-1.115l0.016-0.038l0.019-0.037l0.559-1.127
	c0.321-0.685,0.649-1.19,0.968-1.679c0.093-0.144,0.186-0.286,0.29-0.453l1.225-1.854c0.091-0.136,0.183-0.271,0.274-0.405
	c0.296-0.434,0.574-0.842,0.784-1.26l0.017-0.032l0.019-0.031c0.688-1.151,1.25-2.342,1.663-3.509l0.029-0.092
	c0.19-0.594,0.37-1.155,0.465-1.698l0.008-0.043l0.012-0.043c0.061-0.226,0.084-0.46,0.11-0.731l0.008-0.078
	c0.009-0.064,0.027-0.217,0.023-0.282l-0.001-0.033v-0.033l0.006-0.349l0.02-1.377l0.013-0.879l0.873-0.101l0.689-0.08l0.077-1.009
	l0.314,0.957c0.349-0.048,0.771-0.136,1.224-0.266c0.377-0.097,0.779-0.268,1.102-0.406l0.14-0.058
	c0.073-0.035,0.155-0.097,0.24-0.154c0.053-0.036,0.106-0.072,0.158-0.106c0.087-0.096,0.2-0.213,0.34-0.35
	c0.07-0.085,0.139-0.185,0.208-0.284c0.066-0.096,0.134-0.19,0.187-0.26l0.074-0.104c0.125-0.173,0.243-0.337,0.362-0.539
	c1.169-1.821,2.285-3.798,3.365-5.708l0.092-0.164l4.155-7.352l-2.323,8.119l-0.148,0.523c-0.266,0.936-0.54,1.903-0.868,2.848
	c-0.354,1.032-0.755,2.202-1.241,3.31c-0.116,0.301-0.258,0.582-0.395,0.854l-0.026,0.052c-0.043,0.083-0.083,0.166-0.122,0.248
	c-0.093,0.191-0.197,0.408-0.338,0.639l-0.02,0.032l-0.022,0.03c-0.058,0.081-0.109,0.156-0.159,0.23
	c-0.143,0.209-0.303,0.444-0.573,0.752l-0.046,0.052l-0.054,0.046c-0.065,0.056-0.122,0.11-0.179,0.164
	c-0.144,0.138-0.323,0.309-0.569,0.477c-0.603,0.436-1.202,0.77-1.943,1.083c-0.019,0.007-0.036,0.015-0.055,0.022
	c0.005,0.302-0.003,0.62-0.039,0.934c-0.016,0.35-0.058,0.688-0.108,1.019c0.365,0.406,0.727,0.807,1.064,1.205
	c0.183,0.157,0.365,0.313,0.548,0.468c0.352,0.299,0.701,0.597,1.048,0.904l0.78,0.71l0.22,0.199c0.034,0.033,0.058,0.052,0.08,0.07
	c0.039,0.031,0.076,0.062,0.092,0.077l0.415,0.347c0.761,0.617,1.491,1.27,2.197,1.899c0.387,0.346,0.773,0.691,1.173,1.039
	c1.033,0.915,2.104,1.905,3.272,3.026L95.32,59.406z M83.493,45.847c-0.23,0.098-0.456,0.184-0.684,0.268
	c0.001,0.002,0.001,0.004,0.001,0.006c-0.004,0.001-0.008,0.003-0.012,0.004c0.005,0.087,0.019,0.179,0.02,0.264
	c-0.001-0.089-0.003-0.178-0.008-0.268C83.038,46.035,83.263,45.944,83.493,45.847z M90.304,61.15
	c-0.704-0.801-1.41-1.599-2.091-2.419c0.683,0.823,1.379,1.634,2.086,2.437L90.304,61.15z" class="color c1"/>
</svg>