<svg version="1.1" id="图层_1" x="0px" y="0px" width="200px" height="98.602px" viewBox="0 0 200 98.602" enable-background="new 0 0 200 98.602" xml:space="preserve" xmlns="http://www.w3.org/2000/svg" xmlns:xlink="http://www.w3.org/1999/xlink" xmlns:xml="http://www.w3.org/XML/1998/namespace">
  <path fill="#EB0D1C" d="M198.003,97.904h-0.634c-1.102,0-1.997-0.896-1.997-1.998s0.895-1.994,1.997-1.994h0.634
	c1.103,0,1.997,0.893,1.997,1.994S199.106,97.904,198.003,97.904z M192.842,95.906c0-1.102-0.894-1.994-1.997-1.994h-21.639
	c-1.103,0-1.997,0.893-1.997,1.994s0.894,1.998,1.997,1.998h21.639C191.948,97.904,192.842,97.008,192.842,95.906z M159.651,19.219
	l-0.339,0.537c-0.589,0.93-1.822,1.209-2.754,0.619c-0.932-0.588-1.21-1.822-0.621-2.756l0.339-0.533
	c0.589-0.932,1.822-1.209,2.753-0.621C159.961,17.055,160.24,18.289,159.651,19.219z M155.206,22.516
	c-0.932-0.59-2.165-0.311-2.754,0.621l-11.561,18.291c-0.589,0.932-0.311,2.166,0.621,2.754c0.931,0.59,2.165,0.313,2.753-0.621
	l11.562-18.291C156.416,24.336,156.137,23.104,155.206,22.516z M49.588,24.668c-0.875,0.643-1.064,1.869-0.423,2.744l8.847,12.084
	c0.641,0.873,1.87,1.063,2.745,0.422c0.875-0.643,1.063-1.871,0.422-2.746L52.332,25.09C51.691,24.217,50.462,24.027,49.588,24.668z
	 M166.556,72.566l26.064-13.639c0.977-0.512,1.354-1.719,0.842-2.695c-0.51-0.977-1.717-1.355-2.694-0.842l-26.063,13.639
	c-0.977,0.512-1.354,1.717-0.843,2.695c0.356,0.68,1.051,1.07,1.77,1.07C165.944,72.795,166.26,72.721,166.556,72.566z
	 M100.099,6.316c-1.103,0-1.996-0.895-1.996-1.998v-2.32c0-1.102,0.894-1.998,1.996-1.998c1.103,0,1.997,0.896,1.997,1.998v2.32
	C102.095,5.422,101.202,6.316,100.099,6.316z M102.095,31.086V10.449c0-1.104-0.894-1.996-1.997-1.996
	c-1.103,0-1.996,0.893-1.996,1.996v20.637c0,1.102,0.894,1.994,1.996,1.994C101.202,33.08,102.095,32.188,102.095,31.086z
	 M38.808,69.535c0.465-0.979,0.048-2.15-0.932-2.615L13.189,55.242c-0.98-0.465-2.15-0.049-2.616,0.932
	c-0.465,0.979-0.048,2.15,0.932,2.615l24.686,11.678c0.43,0.205,0.896,0.238,1.324,0.129C38.063,70.459,38.546,70.086,38.808,69.535
	z M8.165,98.602H1.963C0.879,98.602,0,97.723,0,96.639s0.879-1.963,1.963-1.963h6.201c1.085,0,1.964,0.879,1.964,1.963
	S9.25,98.602,8.165,98.602z M35.345,96.639c0-1.084-0.879-1.963-1.964-1.963H17.167c-1.084,0-1.963,0.879-1.963,1.963
	s0.879,1.963,1.963,1.963h16.214C34.466,98.602,35.345,97.723,35.345,96.639z" class="color c1"/>
</svg>