<svg version="1.1" id="图层_1" x="0px" y="0px" width="96.303px" height="97.53px" viewBox="0 0 96.303 97.53" enable-background="new 0 0 96.303 97.53" xml:space="preserve" xmlns="http://www.w3.org/2000/svg" xmlns:xlink="http://www.w3.org/1999/xlink" xmlns:xml="http://www.w3.org/XML/1998/namespace">
  <g>
    <path fill="#1FC8B1" d="M68.035,56.967c-0.191,1.564-1.521,2.707-3.054,2.707c-0.126,0-0.253-0.007-0.384-0.021L52.125,58.12
		c-1.689-0.207-2.893-1.748-2.684-3.438c0.21-1.689,1.756-2.881,3.438-2.685l12.471,1.532
		C67.042,53.737,68.245,55.276,68.035,56.967z M96.141,56.947l-4.002-11.909c-0.55-1.604-2.292-2.481-3.907-1.942
		c-1.614,0.541-2.485,2.292-1.943,3.905l4.004,11.911c0.042,0.124,0.092,0.24,0.146,0.354c0.663,1.385,2.266,2.09,3.76,1.587
		C95.816,60.313,96.684,58.563,96.141,56.947z M79.797,18.839l-12.827-8.285c-1.737-1.11-3.954-0.905-4.953,0.48
		c-0.997,1.389-0.394,3.43,1.344,4.552l12.829,8.285c0.134,0.086,0.269,0.161,0.406,0.231c1.665,0.853,3.626,0.573,4.546-0.713
		C82.141,21.999,81.538,19.963,79.797,18.839z M55.854,2.542c-0.705-1.985-2.879-3.026-4.871-2.321L17.02,12.27
		c-1.989,0.703-3.027,2.882-2.322,4.871c0.554,1.563,2.025,2.54,3.594,2.54c0.424,0,0.854-0.071,1.274-0.221L53.535,7.411
		C55.52,6.707,56.558,4.527,55.854,2.542z M34.194,96.415c1.092-1.307,0.92-3.248-0.39-4.343L11.437,73.406
		c-1.31-1.095-3.253-0.919-4.345,0.39c-0.859,1.031-0.933,2.456-0.287,3.547c0.174,0.295,0.401,0.564,0.678,0.796l22.371,18.668
		C31.16,97.899,33.104,97.725,34.194,96.415z M10.928,32.544c-1.076-1.32-3.019-1.521-4.339-0.449
		c-1.322,1.076-1.521,3.018-0.448,4.34l7.104,8.742c0.608,0.748,1.499,1.137,2.395,1.137c0.684,0,1.372-0.226,1.944-0.691
		c1.322-1.071,1.523-3.015,0.448-4.338L10.928,32.544z M82.779,76.033c-0.257-1.682-1.829-2.843-3.511-2.59
		c-1.685,0.257-2.842,1.829-2.589,3.512l1.682,11.138c0.145,0.953,0.714,1.741,1.486,2.193c0.589,0.349,1.296,0.504,2.026,0.394
		c1.683-0.252,2.842-1.824,2.589-3.509L82.779,76.033z M48.247,25.431c-0.287-2.014-2.141-3.389-4.14-3.066
		c-2.003,0.325-3.394,2.221-3.11,4.235l1.878,13.338c0.161,1.143,0.829,2.079,1.739,2.614c0.696,0.411,1.534,0.59,2.402,0.451
		c2-0.321,3.393-2.218,3.11-4.237L48.247,25.431z" class="color c1"/>
    <path fill="#74DA84" d="M78.276,40.6c0,3.014-2.446,5.462-5.463,5.462s-5.462-2.445-5.462-5.462c0-3.021,2.445-5.465,5.462-5.465
		C75.833,35.135,78.278,37.579,78.276,40.6z M36.56,55.803c-5.212,0-9.433,4.227-9.433,9.437c0,5.211,4.221,9.432,9.433,9.432
		s9.434-4.221,9.434-9.432C45.994,60.026,41.771,55.803,36.56,55.803z M57.338,82.845c-4.057,0-7.341,3.29-7.341,7.346
		c0,4.057,3.285,7.34,7.341,7.34s7.343-3.283,7.343-7.34C64.681,86.133,61.395,82.845,57.338,82.845z M6.507,49.293
		C2.914,49.293,0,52.207,0,55.806c0,3.593,2.914,6.508,6.507,6.508c3.598,0,6.51-2.915,6.51-6.508
		C13.017,52.207,10.105,49.293,6.507,49.293z M27.126,27.45c-2.888,0-5.23,2.343-5.23,5.235c0,2.888,2.342,5.23,5.23,5.23
		c2.892,0,5.232-2.343,5.232-5.23C32.358,29.793,30.018,27.45,27.126,27.45z" class="color c2"/>
  </g>
</svg>