<svg version="1.1" id="图层_1" x="0px" y="0px" width="47.795px" height="47.399px" viewBox="0 0 47.795 47.399" enable-background="new 0 0 47.795 47.399" xml:space="preserve" xmlns="http://www.w3.org/2000/svg" xmlns:xlink="http://www.w3.org/1999/xlink" xmlns:xml="http://www.w3.org/XML/1998/namespace">
  <path fill="#50CCBD" d="M32.994,47.398L32.994,47.398c-0.043,0-0.087,0-0.13-0.002c-1.839-0.063-3.395-1.287-3.876-3.05
	c-0.053-0.19-3.504-13.631-4.055-14.344c-0.284-0.366-0.649-0.599-1.035-0.662c-0.388,0.063-0.751,0.296-1.038,0.665
	c-0.549,0.71-4,14.15-4.055,14.347c-0.479,1.759-2.037,2.983-3.871,3.046c-0.047,0.001-0.09,0.001-0.134,0.001
	c-1.603,0-3.08-0.937-3.763-2.385c-0.559-1.179-6.291-14.854-8.441-18.66c-1.702-3.013-2.55-6.478-2.596-10.595L0,15.682
	l0.007-0.076c0.027-0.319,0.05-0.639,0.073-0.959c0.051-0.711,0.104-1.445,0.196-2.185C0.78,8.473,2.521,5.279,5.448,2.968
	C7.941,0.998,10.826,0,14.022,0c1.565,0,6.464,1.471,9.874,1.426C27.308,1.382,32.206,0,33.771,0c3.196,0,6.082,0.998,8.575,2.969
	c2.928,2.311,4.668,5.504,5.172,9.492c0.093,0.742,0.146,1.478,0.197,2.189c0.022,0.318,0.045,0.637,0.072,0.955l0.007,0.078
	l-0.001,0.077c-0.045,4.116-0.895,7.581-2.596,10.594c-2.149,3.808-7.883,17.481-8.442,18.663
	C36.074,46.463,34.598,47.398,32.994,47.398z" class="color c1"/>
</svg>