<svg version="1.1" id="图层_1" x="0px" y="0px" width="132.168px" height="208.268px" viewBox="0 0 132.168 208.268" enable-background="new 0 0 132.168 208.268" xml:space="preserve" xmlns="http://www.w3.org/2000/svg" xmlns:xlink="http://www.w3.org/1999/xlink" xmlns:xml="http://www.w3.org/XML/1998/namespace">
  <path fill="#FFFFFF" d="M36.858,79.113c-23.374,55.889,95.31,129.154,95.31,129.154c-37.875-11.18-72.191-35.469-93.759-51.227
	c-27.645-20.197-47.86-53.219-33.84-83.203C35.925,6.775,107.342,51.484,107.342,51.484C60.764,38.133,42.057,66.682,36.858,79.113z
	 M95.284,0c-9.372,0-16.97,7.598-16.97,16.971c0,9.371,7.598,16.969,16.97,16.969s16.971-7.598,16.971-16.969
	C112.255,7.598,104.656,0,95.284,0z" class="color c1"/>
</svg>