<svg version="1.1" id="图层_1" x="0px" y="0px" width="102.063px" height="95.289px" viewBox="0 0 102.063 95.289" enable-background="new 0 0 102.063 95.289" xml:space="preserve" xmlns="http://www.w3.org/2000/svg" xmlns:xlink="http://www.w3.org/1999/xlink" xmlns:xml="http://www.w3.org/XML/1998/namespace">
  <path fill="#000111" d="M76.824,7.007c-5.048,9.258-10.073,18.473-15.135,27.756c-7.005-4.099-14.017-4.163-21.129-0.074
	C35.502,25.45,30.451,16.224,25.403,7.002C39.581-1.838,60.569-2.819,76.824,7.007z M70.443,52.046
	C69.824,59.2,66.409,64.499,60.34,68.118c5.406,9.12,10.756,18.147,16.105,27.172c15.893-8.852,25.541-26.237,25.618-43.244
	C91.469,52.046,80.951,52.046,70.443,52.046z M25.34,95.03c5.345-9.02,10.696-18.049,16.08-27.135
	c-6.001-3.72-9.259-9.091-9.767-16.098c-10.571,0-21.039,0-31.577,0C-1.122,67.003,12.026,89.48,25.34,95.03z M61.043,51.105
	c0.048-5.507-4.464-10.057-9.977-10.061c-5.515-0.003-10.03,4.534-9.996,10.043c0.034,5.512,4.464,9.916,9.979,9.922
	S60.995,56.624,61.043,51.105z" class="color c1"/>
</svg>