<svg version="1.1" id="图层_1" x="0px" y="0px" width="210px" height="208.175px" viewBox="0 0 210 208.175" enable-background="new 0 0 210 208.175" xml:space="preserve" xmlns="http://www.w3.org/2000/svg" xmlns:xlink="http://www.w3.org/1999/xlink" xmlns:xml="http://www.w3.org/XML/1998/namespace">
  <path fill="#F7CE26" d="M3.062,140.184c-1.054,6.756-1.173,13.457,0.831,20.116c-0.9-0.966-3.893-10.17-3.867-16.503
	c-0.38-19.713,3.389-37.123,15.451-52.663c5.496-7.081,12.153-12.656,20.243-16.59c0.923-0.449,1.693-2.26,1.678-3.429
	c-0.13-10.062,0.913-19.939,4.535-29.382c7.76-20.23,21.654-34.132,42.519-40.709c0.471-0.149,0.975-0.197,1.463-0.292
	C74.229,6.471,66.17,15.621,60.7,27.109C48.002,53.78,61.931,87.78,96.549,94.368c1.911,0.364,3.507,0.763,3.915,2.989
	c0.177,1.348-0.371,2.135-1.287,2.565c-5.016,2.084-8.547,7.02-8.547,12.79c0,1.001,0.112,1.974,0.316,2.914
	c0.276,1.267-0.262,2.593-1.436,3.144c-0.055,0.026-0.112,0.051-0.17,0.076c-2.126,0.904-3.683,0.185-5.004-1.492
	c-1.894-2.404-3.566-5.039-5.737-7.162c-19.649-19.212-45.797-13.208-60.393-0.659C8.853,117.573,4.905,128.365,3.062,140.184z
	 M174.919,76.752c-2.771-1.724-3.685-3.712-3.908-6.927c-0.521-7.494-0.73-15.198-2.703-22.367
	c-5.297-19.243-17.144-32.436-33.304-41.371C125.104,1.331,118.129,0,118.129,0l3.28,1.4c6.2,3.149,11.664,6.962,16.138,11.577
	c15.751,16.457,17.816,42.632,4.911,61.441c-7.811,11.384-17.896,20.175-32.742,21.072c-2.19,0.132-2.822,0.409-2.943,2.304
	c-0.025,0.4,0.414,1.362,0.946,1.456c6.092,1.456,10.625,6.923,10.625,13.462c0,1.46-0.227,2.867-0.645,4.188
	c-0.127,0.402-0.448,1.259-0.398,1.75c0.175,1.119,0.958,1.74,2.126,1.973c1.03,0.206,2.588-0.291,3.351-1.041
	c2.866-2.815,5.232-6.179,8.267-8.775c27.476-23.497,63.699-6.939,72.041,18.886c2.923,9.048,4.113,18.179,2.623,27.588
	c-0.067,0.426-0.92,4.481-0.92,4.481c4.345-5.44,5.496-15.063,5.154-19.872C207.959,113.967,199.022,91.743,174.919,76.752z
	 M133.921,186.826c-17.368-13.133-24.36-35.785-17.119-55.347c0.472-1.276,0.885-2.645,0.949-3.989
	c0.105-2.207-1.006-3.748-2.588-4.19c-0.382-0.107-1.531-0.215-2.027,0.225c-2.371,1.9-5.374,3.042-8.649,3.042
	c-3.183,0-6.106-1.084-8.446-2.889c-0.003-0.002-0.006-0.003-0.008-0.005c-2.146-1.503-4.228-0.455-4.838,1.765
	c-0.338,1.228,0.218,2.758,0.737,3.91c4.646,10.305,4.367,20.814,1.492,31.433c-9.762,36.051-46.283,43.634-69.91,28.611
	c-2.145-1.364-4.577-3.271-6.527-5.084c0.375,1.003,2.598,3.746,3.435,4.566c18.978,18.587,57.951,26.396,81.381,8.572
	c2.042-1.554,4.063-1.494,6.167-0.071c1.227,0.83,2.55,1.519,3.845,2.245c28.559,16.008,61.635,9.017,81.689-16.538
	c-1.453,1.218-2.842,2.525-4.371,3.64C172.509,198.854,149.865,198.882,133.921,186.826z" class="color c1"/>
</svg>