<svg version="1.1" id="图层_1" x="0px" y="0px" width="220px" height="154.93px" viewBox="0 0 220 154.93" enable-background="new 0 0 220 154.93" xml:space="preserve" xmlns="http://www.w3.org/2000/svg" xmlns:xlink="http://www.w3.org/1999/xlink" xmlns:xml="http://www.w3.org/XML/1998/namespace">
  <path fill="#0B006F" d="M60.283,23.947c-3.588,1.52-4.505,3.565-10.704,6.063V2.766C49.579,1.375,52.094,0,53.476,0h46.863
	c1.39,0,5.012,1.375,5.012,2.76v21.607c-3.098,0.973-5.839,2.171-8.157,3.667c-3.748-2.415-8.716-4.153-12.395-5.208
	c-3.698-1.06-7.196-1.592-10.498-1.592C69.98,21.234,64.842,22.139,60.283,23.947z M99.153,139.069l-3.098-0.07l-3.1,0.07v-0.132
	l-47.479-49.06c-1.488-1.487-2.235-3.28-3.688-5.358c-1.454-2.088-2.405-4.39-3.584-6.906c-1.176-2.518-1.938-5.172-2.647-7.958
	c-0.707-2.796-0.973-6.771-0.973-9.679c0-3.199,0.546-4.207,1.357-10.404H1.902C0.515,49.576,0,52.951,0,54.34v46.865
	c0,1.38,0.515,4.145,1.902,4.145h47.675v47.431c0,1.386,2.517,2.149,3.896,2.149h46.865c1.388,0,5.012-0.764,5.012-2.149v-20.703
	l-6.197,6.862V139.069z" class="color c1"/>
  <path fill="#FF0000" d="M218.458,49.576h-48.035V2.766c0-1.391-2.15-2.766-3.542-2.766h-46.859c-1.386,0-5.374,1.375-5.374,2.766
	v46.811H68.45c-1.386,0-3.378,3.375-3.378,4.764v46.865c0,1.38,1.992,4.145,3.378,4.145h46.197v47.431
	c0,1.386,3.992,2.149,5.376,2.149h46.859c1.392,0,3.54-0.764,3.54-2.149V105.35h48.035c1.388,0,1.542-2.765,1.542-4.148V54.34
	C220,52.951,219.846,49.576,218.458,49.576z" class="color c2"/>
</svg>