<svg version="1.1" id="图层_1" x="0px" y="0px" width="194.452px" height="171.822px" viewBox="0 0 194.452 171.822" enable-background="new 0 0 194.452 171.822" xml:space="preserve" xmlns="http://www.w3.org/2000/svg" xmlns:xlink="http://www.w3.org/1999/xlink" xmlns:xml="http://www.w3.org/XML/1998/namespace">
  <path fill="#FFFFFF" d="M97.634,18.176c17.267,0.145,33.396,4.684,48.673,12.485c5.011,2.559,7.213,8.508,5.387,14.017
	c-1.382,4.168-2.803,8.324-4.241,12.473c-2.37,6.834-8.957,10.015-15.757,7.524c-12.691-4.649-25.75-6.883-39.275-6.159
	c-9.634,0.515-18.965,2.52-28.011,5.842c-2.506,0.92-5.034,1.513-7.682,1.035c-4.126-0.745-7.11-3.039-8.558-7.013
	c-1.665-4.568-3.235-9.173-4.718-13.803c-1.863-5.816,0.609-11.535,6.061-14.266c12.372-6.197,25.366-10.322,39.184-11.627
	C91.665,18.403,94.654,18.339,97.634,18.176z" class="color c1"/>
  <path fill="#F7CE26" d="M33.501,171.822c-3.424,0-6.705-1.376-9.237-3.875c-6.768-6.678-13.625-13.534-20.381-20.377
	c-5.181-5.247-5.177-13.251,0.011-18.615c2.135-2.207,4.323-4.373,6.439-6.467l1.163-1.152c3.579-3.548,7.269-4.293,9.734-4.293
	c1.514,0,3.49,0.281,5.62,1.32c1.658-0.756,3.459-1.153,5.316-1.153c0.136,0,0.273,0.002,0.41,0.007
	c1.92-1.99,3.852-3.964,5.736-5.888l1.192-1.218c1.415-1.446,3.039-2.548,4.781-3.266c-1.66-2.394-2.91-5.171-3.723-8.304
	c-0.945-3.641-1.888-7.284-2.83-10.926c-4.175-16.14-8.492-32.83-13.023-49.128c-2.567-9.232-0.724-18.888,5.054-26.493
	C35.554,4.372,44.434,0,54.123,0h0.106c10.237,0.034,20.479,0.041,30.717,0.041l24.144-0.005c9.41,0,18.816,0.006,28.226,0.034
	c3.771,0.011,8.154,0.127,12.461,1.374c15.552,4.505,24.43,20.626,20.213,36.702c-2.581,9.839-5.175,19.674-7.769,29.509
	c-2.724,10.326-5.447,20.652-8.155,30.982c-0.764,2.914-2.124,5.668-3.911,8.113c1.794,0.699,3.471,1.804,4.927,3.269
	c2.412,2.425,4.771,4.855,7.029,7.198c0.058-0.001,0.117-0.001,0.175-0.001c1.841,0,3.61,0.386,5.25,1.136
	c1.789-0.865,3.723-1.322,5.681-1.322c3.318,0,6.529,1.314,9.043,3.701c2.945,2.797,5.783,5.636,8.436,8.438
	c5.127,5.414,4.986,13.523-0.329,18.86c-7.841,7.872-13.877,13.907-19.574,19.57c-2.768,2.752-6.097,4.206-9.629,4.206
	c0,0,0,0-0.001,0c-3.52,0-6.848-1.447-9.622-4.183c-1.925-1.899-3.833-3.814-5.74-5.73l-1.366-1.371
	c-4.71-4.726-5.778-10.357-3.206-15.52c-0.84-1.778-1.238-3.675-1.173-5.594c-0.696-0.686-1.388-1.374-2.076-2.061
	c-0.455,2.603-1.226,5.287-2.315,8.079c-6.064,15.539-21.694,26.393-38.01,26.393c-0.719,0-1.446-0.021-2.162-0.062
	c-18.024-1.043-33.311-13.55-38.039-31.121c-0.301-1.12-0.556-2.211-0.766-3.278c-0.705,0.702-1.402,1.393-2.082,2.065
	c0.042,1.901-0.348,3.765-1.153,5.512c2.404,4.904,1.551,10.678-2.576,14.941c-2.858,2.952-5.515,5.607-8.124,8.119
	C40.189,170.463,36.903,171.822,33.501,171.822z M97.56,26.535c-0.858,0.045-1.716,0.083-2.575,0.121
	c-1.954,0.086-3.801,0.169-5.595,0.338c-11.958,1.129-23.576,4.586-35.516,10.567c-1.915,0.959-2.618,2.582-1.981,4.57
	c1.445,4.508,2.962,8.946,4.509,13.193c0.321,0.88,0.682,1.528,2.41,1.84c0.154,0.028,0.312,0.041,0.485,0.041
	c0.709,0,1.643-0.222,2.939-0.698c9.708-3.564,19.68-5.642,29.64-6.174c1.76-0.095,3.544-0.142,5.302-0.142
	c12.002,0,24.171,2.229,36.17,6.624c0.629,0.23,1.233,0.347,1.797,0.347c2.08,0.001,3.067-1.589,3.53-2.922
	c1.603-4.624,2.909-8.464,4.109-12.084c0.586-1.767-0.003-3.567-1.4-4.28C126.762,30.407,112.423,26.697,97.56,26.535z" class="color c2"/>
  <path fill="#003801" d="M132.663,109.077c-0.332-1.415-0.629-2.857-1.01-4.277c-3.836-14.281-16.415-24.068-31.21-24.292
	c-5.736-0.087-11.484-0.236-16.965,1.916c-11.43,4.487-18.532,12.717-21.304,24.682c-0.081,0.348-0.165,0.696-0.252,1.043
	c-0.049,0.192-0.109,0.382-0.207,0.724c-0.563-0.079-1.114-0.098-1.632-0.237c-6.324-1.695-10.294-5.633-11.962-12.056
	c-5.214-20.083-10.331-40.195-15.888-60.184C28.248,22.067,38.906,7.76,54.204,7.81c27.696,0.091,55.393-0.01,83.09,0.07
	c3.447,0.01,7.041,0.119,10.311,1.066c11.558,3.347,17.953,15.32,14.832,27.219c-5.291,20.169-10.637,40.323-15.924,60.493
	C144.849,103,138.812,108.518,132.663,109.077z M97.388,18.723c-2.911,0.16-5.831,0.222-8.732,0.496
	c-13.5,1.275-26.194,5.305-38.279,11.359c-5.327,2.668-7.742,8.254-5.921,13.936c1.449,4.523,2.983,9.022,4.61,13.485
	c1.415,3.882,4.33,6.123,8.361,6.851c2.587,0.467,5.057-0.112,7.505-1.011c8.837-3.245,17.953-5.203,27.364-5.707
	c13.213-0.707,25.97,1.475,38.369,6.017c6.643,2.433,13.078-0.674,15.393-7.35c1.405-4.053,2.793-8.113,4.143-12.185
	c1.784-5.382-0.367-11.194-5.262-13.694C130.013,23.298,114.256,18.864,97.388,18.723z M97.251,85.779
	c4.983-0.26,9.827,0.362,14.339,2.591c8.787,4.341,13.959,11.426,15.631,21.057c1.084,6.246,2.061,12.51,3.138,18.757
	c0.866,5.02-0.168,9.788-1.968,14.402c-5.19,13.3-18.727,22.167-32.444,21.373c-14.756-0.855-27.063-10.911-30.949-25.354
	c-1.151-4.277-1.659-8.569-0.729-13.03c1.293-6.202,2.046-12.52,3.433-18.698C70.457,94.604,81.606,85.856,94.18,85.78
	C95.204,85.774,96.228,85.779,97.251,85.779z M97.105,152.775c12.328,0.036,22.42-9.966,22.459-22.257
	c0.038-12.224-9.954-22.297-22.189-22.367c-12.344-0.071-22.452,9.876-22.533,22.174C74.761,142.6,84.815,152.739,97.105,152.775z
	 M25.471,126.887c-2.733-2.708-5.744-2.712-8.477-0.003c-2.509,2.487-5.03,4.962-7.485,7.501c-2.252,2.329-2.329,5.409-0.068,7.7
	c6.725,6.812,13.495,13.581,20.309,20.305c2.224,2.194,5.34,2.143,7.589-0.022c2.692-2.591,5.331-5.24,7.93-7.924
	c2.278-2.353,2.237-5.447-0.08-7.808c-0.521-0.53-1.281-0.826-1.931-1.229c0.863-1.117,1.415-1.504,1.874-1.981
	c1.502-1.564,2.069-3.432,1.355-5.5c-0.31-0.898-0.081-1.381,0.524-1.977c3.136-3.09,6.264-6.189,9.339-9.339
	c2.387-2.445,2.365-5.46,0.016-7.928c-1.058-1.112-2.142-2.203-3.259-3.256c-2.52-2.377-5.613-2.312-8.022,0.15
	c-2.935,3.001-5.878,5.994-8.776,9.032c-0.694,0.728-1.249,1.038-2.346,0.7c-2.086-0.642-4.064-0.21-5.63,1.437
	c-0.454,0.478-0.804,1.056-1.4,1.855C26.205,127.741,25.87,127.282,25.471,126.887z M150.004,146.089
	c-3.043,3.076-3.058,5.886-0.036,8.918c2.349,2.356,4.692,4.719,7.061,7.055c2.603,2.568,5.654,2.589,8.26-0.001
	c6.534-6.495,13.045-13.015,19.547-19.543c2.311-2.321,2.438-5.607,0.191-7.979c-2.638-2.786-5.359-5.5-8.142-8.143
	c-2.267-2.153-5.283-2.033-7.589,0.129c-0.578,0.542-1.132,1.11-1.842,1.809c-0.612-0.701-1.046-1.281-1.563-1.773
	c-1.544-1.47-3.409-1.893-5.391-1.228c-0.923,0.31-1.38,0.039-1.958-0.562c-2.978-3.101-5.964-6.196-8.995-9.244
	c-2.481-2.494-5.637-2.446-8.135,0.041c-0.907,0.903-1.813,1.806-2.714,2.715c-2.846,2.874-2.855,5.837-0.006,8.702
	c2.887,2.904,5.762,5.821,8.702,8.671c0.812,0.788,1.156,1.448,0.744,2.616c-0.626,1.778-0.107,3.449,1.133,4.837
	c0.54,0.605,1.238,1.069,1.964,1.682C150.633,145.428,150.325,145.765,150.004,146.089z M96.303,113.734
	c-8.793,0.297-16.153,8.231-15.85,17.085c0.325,9.482,8.044,16.712,17.491,16.384c8.938-0.31,16.298-8.178,16.001-17.105
	C113.629,120.552,105.928,113.409,96.303,113.734z" class="color c3"/>
</svg>