<svg version="1.1" id="图层_1" x="0px" y="0px" width="93.91px" height="182.827px" viewBox="0 0 93.91 182.827" enable-background="new 0 0 93.91 182.827" xml:space="preserve" xmlns="http://www.w3.org/2000/svg" xmlns:xlink="http://www.w3.org/1999/xlink" xmlns:xml="http://www.w3.org/XML/1998/namespace">
  <path fill="#40B3D3" d="M0.152,82.272l0.213,64.946c0.068,18.943,19.768,35.689,44.151,35.608l5.177-0.015
	c24.398-0.085,44.279-16.96,44.218-35.91L93.228,31.638C90.659,14.384,72.058-0.076,49.389,0l-5.189,0.017
	C19.813,0.103-0.073,16.977,0,35.931l0.069,21.154c-0.008,0.005-0.015,0.01-0.023,0.015L0.152,82.272z M54.752,16.425l-0.219,17.496
	l12.384,0.155l5.111,0.063l-0.2,16.038l-17.495-0.219l-0.106,8.545l-0.112,8.95l-16.038-0.201l0.073-5.902l0.145-11.594
	l-17.495-0.219l0.042-3.338L21,33.501l17.495,0.219l0.219-17.496L54.752,16.425z M23.758,17.785
	c-6.625,7.412-9.066,19.679-9.652,31.527c-0.374,7.574,0.009,14.974,0.546,20.826c0.657,7.161,1.541,12.005,1.541,12.005
	c44.113-13.199,71.597,3.305,71.597,3.305l0.479,58.776c0,0-2.912,31.222-40.35,31.255C10.481,175.512,8.661,140.8,8.661,140.8
	L6.954,74.329L6.819,53.118C7.639,41.802,11.031,24.426,23.758,17.785z" class="color c1"/>
</svg>