<svg version="1.1" id="图层_1" x="0px" y="0px" width="200px" height="178.218px" viewBox="0 0 200 178.218" enable-background="new 0 0 200 178.218" xml:space="preserve" xmlns="http://www.w3.org/2000/svg" xmlns:xlink="http://www.w3.org/1999/xlink" xmlns:xml="http://www.w3.org/XML/1998/namespace">
  <path fill="#EA182C" d="M80.97,63.93H62.938v18.031H50.225V63.93h-18.03V51.217h18.03V33.186h12.714v18.031H80.97V63.93z
	 M108.206,174.836l74.653-74.711c22.543-22.539,22.902-59.564,0.77-82.566C172.777,6.4,157.626,0.001,142.059,0.001l-0.426,0
	c-15.565,0-30.252,5.806-41.587,16.403C88.723,5.813,74.028,0.001,58.423,0.001L57.983,0C42.397,0,27.23,6.412,16.344,17.618
	C-5.757,40.59-5.398,77.614,17.146,100.154l74.731,74.701c2.182,2.168,5.078,3.363,8.154,3.363
	C103.106,178.219,106.002,177.025,108.206,174.836z M58.457,15.82c11.998,0,23.293,4.66,31.786,13.104l9.801,9.805l9.786-9.787
	c8.51-8.461,19.805-13.121,31.949-13.121l0.279-0.001c11.32,0,22.339,4.654,30.201,12.737c16.17,16.806,15.907,43.893-0.586,60.383
	l-71.645,71.7L28.328,88.968c-16.491-16.489-16.754-43.577-0.611-60.354c7.898-8.131,18.931-12.794,30.267-12.794L58.457,15.82z" class="color c1"/>
</svg>