<svg version="1.1" id="图层_1" x="0px" y="0px" width="108.892px" height="115.661px" viewBox="0 0 108.892 115.661" enable-background="new 0 0 108.892 115.661" xml:space="preserve" xmlns="http://www.w3.org/2000/svg" xmlns:xlink="http://www.w3.org/1999/xlink" xmlns:xml="http://www.w3.org/XML/1998/namespace">
  <path fill="#446782" d="M102.277,10.358l-0.438-0.024c-0.201-0.005-0.361-0.012-0.521-0.02c-0.237-0.01-0.475-0.021-0.709-0.021
	c-0.105,0-0.211,0.002-0.315,0.007c-0.816,0.038-1.632,0.089-2.45,0.141l-0.426,0.026c-0.655,0.067-1.266,0.142-1.878,0.215
	c-0.334,0.041-0.669,0.081-1.005,0.12c-0.829,0.106-1.64,0.242-2.424,0.374l-0.435,0.072c-1.918,0.3-3.798,0.711-5.616,1.109
	c-1.906,0.441-3.504,0.842-5.016,1.256c-1.768-0.32-3.237-0.568-4.608-0.776l-0.037-0.006l-0.037-0.003l-2.635-0.202l-1.333-0.079
	c-0.17-0.016-0.368-0.021-0.567-0.021c-0.173,0-0.346,0.005-0.52,0.01l-0.313,0.007l-0.654,0.015
	c-0.664,0.015-1.351,0.029-2.031,0.069l-0.03,0.001l-0.03,0.004c-0.326,0.039-0.651,0.08-0.976,0.122
	c-0.161-1.841-0.363-3.508-0.589-4.869c-0.16-1.068-0.367-2.167-0.612-3.251c-0.181-0.797-0.318-1.26-0.324-1.279L64.744,0
	l-0.919,3.379c-0.006,0.02-0.133,0.491-0.288,1.296c-0.213,1.099-0.381,2.21-0.5,3.3c-0.204,1.612-0.335,3.583-0.38,5.726
	l-1.086,0.393l-0.046,0.017l-0.045,0.021l-0.263,0.123c-0.34,0.157-0.69,0.319-1.037,0.552l-4.332,2.907l5.101-1.1
	c0.684-0.147,1.371-0.197,2.099-0.251l0.291-0.021l1.246-0.015h0.058c0.138,0,0.274-0.004,0.41-0.008
	c0.117-0.003,0.232-0.007,0.35-0.007c0.11,0,0.222,0.003,0.334,0.015c0.497,0.037,0.96,0.058,1.421,0.078
	c0.371,0.017,0.741,0.033,1.11,0.057c0.679,0.094,1.357,0.163,2.015,0.229l0.501,0.052l0.307,0.03
	c0.297,0.028,0.577,0.056,0.839,0.111l1.287,0.224l2.479,0.387c1.587,0.354,3.21,0.69,4.961,1.026l0.372,0.07l0.221,0.042
	l0.219-0.057l0.329-0.086c3.241-0.866,7.061-1.901,10.85-3.02l5.394-1.593l0.407-0.116c0.766-0.219,1.535-0.438,2.304-0.672
	c0.273-0.09,0.542-0.151,0.825-0.217c0.163-0.037,0.327-0.075,0.492-0.117l1.391-0.368l5.433-1.438l-5.596-0.524
	C102.959,10.395,102.62,10.376,102.277,10.358z M100.609,11.294c0.098,0,0.196,0.007,0.295,0.01
	c-0.189-0.006-0.38-0.013-0.565-0.004C100.429,11.296,100.519,11.294,100.609,11.294z M71.827,13.526c0.17,0,0.34,0.005,0.508,0.02
	c-0.206-0.018-0.413-0.02-0.621-0.018C71.752,13.528,71.789,13.526,71.827,13.526z M64.643,15.327c-0.023,0-0.046,0-0.069,0
	c0.222,0.003,0.439-0.007,0.658-0.012C65.036,15.319,64.84,15.327,64.643,15.327z M44.153,16.176
	c-0.004-1.9-0.087-3.749-0.158-5.147l-0.04-0.634c-0.038-0.641-0.078-1.303-0.15-1.965l-0.279-2.535l-1.99,0.024L41.32,8.455
	c-0.035,0.625-0.097,1.216-0.162,1.842l-0.067,0.669c-0.086,1.087-0.203,2.181-0.316,3.239l-0.022,0.214
	c-2.312,0.131-4.389,0.385-6.326,0.775c-2.686,0.501-5.288,1.354-7.721,2.535c-2.542,1.228-4.873,2.985-6.74,5.083
	c-0.446,0.493-0.878,1.032-1.354,1.69c-0.168,0.222-0.303,0.429-0.44,0.642l-0.131,0.202l-0.074,0.115l-0.101,0.164l-0.021,0.034
	l-0.019,0.036l-0.027,0.053l-0.101,0.188l-0.226,0.418l-1.792,3.34c-1.255,2.3-2.477,4.688-3.523,6.745
	c-1.016,1.968-2.048,4.088-3.345,6.868c-0.533,1.109-1.026,2.241-1.569,3.499L6.906,47.58c-0.392,0.9-0.797,1.831-1.157,2.781
	c-0.132,0.339-0.27,0.686-0.407,1.032c-0.329,0.827-0.67,1.683-0.971,2.547c-0.405,1.115-0.79,2.268-1.163,3.382l-0.076,0.229
	L0,66.914l4.945-8.544c0.761-1.313,1.503-2.639,2.242-3.96c0.499-0.89,0.996-1.778,1.498-2.661l3.744-6.572l3.756-6.562l1.88-3.286
	c0.411-0.705,0.811-1.426,1.209-2.146c0.215-0.389,0.431-0.777,0.647-1.164l1.847-3.315l0.23-0.413l0.097-0.175l0.038-0.056
	c0.071-0.104,0.148-0.223,0.226-0.34c0.089-0.138,0.176-0.272,0.256-0.379c0.382-0.541,0.705-0.957,1.009-1.301
	c1.288-1.521,3.001-2.87,5.253-4.141c1.782-0.98,3.863-1.791,6.537-2.548c2.095-0.569,4.376-1.029,7.171-1.444l0.718-0.107
	l0.853-0.128l-0.001-0.863L44.153,16.176z M41.656,15.376c0.064-0.619,0.132-1.239,0.196-1.86c-0.065,0.621-0.13,1.241-0.193,1.86
	C41.658,15.376,41.657,15.376,41.656,15.376c0,0.002-0.001,0.005-0.001,0.007c-0.241,0.011-0.481,0.021-0.723,0.034
	C41.174,15.404,41.415,15.386,41.656,15.376z M21.307,27.497l-0.061,0.089l-0.003,0.005L21.307,27.497z M39.723,78.783l-0.052-0.135
	l-0.254-0.662l-0.247-0.619l-0.733-1.833l-0.229-0.571c-0.444-1.142-0.923-2.266-1.385-3.353c-0.188-0.443-0.376-0.882-0.559-1.318
	c-0.626-1.511-1.281-2.978-1.898-4.35c-0.528-1.205-1.11-2.473-1.773-3.868c-0.935-2.045-1.916-4.093-2.756-5.754
	c-0.693-1.371-1.115-2.144-1.133-2.176l-1.524-2.789c-0.133-0.732-0.285-1.374-0.47-1.967l-1.677-5.393l-0.276,5.641
	c-0.097,1.951-0.285,3.692-0.577,5.324c-0.17,0.998-0.338,1.807-0.532,2.556c-0.216,0.812-0.441,1.658-0.725,2.453
	c-0.618,1.729-1.316,3.186-2.134,4.449c-0.844,1.328-1.888,2.528-3.109,3.574l-1.191,1.02l-0.815,0.696l0.752,0.765l1.096,1.113
	c1.25,1.272,2.521,2.53,3.776,3.739l0.187,0.177c1.203,1.146,2.448,2.329,3.729,3.453c0.25,0.22,0.499,0.442,0.748,0.666
	c0.412,0.369,0.824,0.739,1.246,1.099l2.028,1.717l0.376,0.303c1.253,1.013,2.548,2.06,3.919,3.018l2.086,1.456
	c-0.196,0.815-0.479,1.633-0.868,2.447c-0.521,1.052-1.134,2.051-1.79,3.002l-0.331-0.207l-0.914-0.574l-0.784-0.492l-1.789-1.123
	l-0.284-0.184c-0.813-0.526-1.662-1.076-2.538-1.642L25.5,87.903c-0.71-0.467-1.432-0.942-2.152-1.436
	c-0.685-0.452-1.364-0.931-2.021-1.393c-0.338-0.237-0.676-0.475-1.016-0.71c-0.324-0.241-0.68-0.499-1.034-0.756
	c-0.656-0.476-1.275-0.924-1.872-1.399l-0.438-0.339l-1.006-0.774L14.623,80c-0.86-0.709-1.661-1.411-2.474-2.128
	c-0.323-0.324-0.654-0.629-0.978-0.927c-0.411-0.378-0.799-0.735-1.122-1.092c-0.207-0.217-0.394-0.408-0.575-0.594
	c-0.423-0.432-0.821-0.839-1.132-1.216c-0.197-0.231-0.384-0.438-0.563-0.635c-0.277-0.306-0.517-0.569-0.685-0.808
	c-0.723-0.929-1.149-1.425-1.168-1.446L2.656,67.36l1.564,4.761c0.009,0.025,0.214,0.649,0.622,1.701
	c0.192,0.565,0.529,1.203,0.919,1.941c0.319,0.659,0.765,1.4,1.427,2.376c0.43,0.706,0.983,1.402,1.57,2.139l0.347,0.438
	l0.282,0.328c0.672,0.775,1.366,1.578,2.167,2.354c1.051,1.039,1.95,1.859,2.826,2.572c0.703,0.623,1.492,1.211,2.255,1.78
	c0.269,0.2,0.537,0.4,0.804,0.604l0.022,0.018l0.022,0.016l0.702,0.479c0.824,0.565,1.677,1.15,2.556,1.666
	c1.091,0.694,2.235,1.313,3.246,1.86c1.081,0.576,2.156,1.079,3.166,1.546c1.118,0.503,2.04,0.902,2.933,1.229
	c0.262,0.104,0.53,0.189,0.794,0.286c-0.287,0.364-0.582,0.736-0.901,1.133c-1.794,2.194-3.097,3.971-3.867,5.271
	c-0.449,0.745-0.743,1.382-0.885,1.688l-0.262,0.6l-3.228,7.423l4.937-6.414l0.385-0.499c0.196-0.253,0.518-0.612,0.925-1.065
	l0.19-0.213c0.804-0.869,2.022-2.01,3.435-3.331l1.05-0.984c0.955-0.906,2.033-1.93,3.088-3.133
	c0.911-1.027,2.085-2.436,3.043-4.182c1.074-1.982,1.688-3.813,1.877-5.601c0.241-1.96,0.063-4.021-0.532-6.109
	C40.018,79.564,39.86,79.149,39.723,78.783z M23.969,72.659c-0.864-0.927-1.748-1.834-2.63-2.744c0.003-0.003,0.007-0.006,0.01-0.01
	c0-0.001-0.001-0.002-0.002-0.002c0.338-0.341,0.662-0.691,0.962-1.066c-0.3,0.375-0.621,0.728-0.96,1.068
	C22.231,70.814,23.104,71.732,23.969,72.659z M34.932,84.378c-0.942-1.396-1.976-2.718-2.974-3.995l-0.262-0.334l-1.695-2.072
	c-0.369-0.445-0.744-0.878-1.12-1.312c-0.207-0.238-0.413-0.477-0.618-0.716c-1.069-1.262-2.201-2.492-3.296-3.683l-0.262-0.284
	c-0.642-0.688-1.303-1.388-1.978-2.089c0.126-0.144,0.246-0.287,0.362-0.432c0.33-0.396,0.63-0.816,0.932-1.245
	c0.292-0.432,0.588-0.883,0.847-1.366c0.983-1.729,1.71-3.664,2.147-5.729c0.254-1.118,0.413-2.318,0.495-3.57
	c0.428,1.647,0.938,3.563,1.64,5.841c0.447,1.465,0.874,2.794,1.306,4.063c0.495,1.5,0.987,2.979,1.538,4.496
	c0.157,0.44,0.315,0.89,0.476,1.342c0.395,1.121,0.803,2.279,1.251,3.438l0.377,0.998l0.538,1.428l0.433,1.175
	c0.164,0.451,0.285,0.82,0.357,1.091c0.445,1.461,0.602,2.904,0.461,4.206c-0.004,0.046-0.014,0.092-0.019,0.138L34.932,84.378z
	 M52.923,42.61l1.21,2.699l-2.599-1.411c-0.047-0.025-0.473-0.262-1.058-0.755c-0.288-0.229-0.608-0.522-1.039-0.953l-0.021-0.021
	l-0.02-0.022c-0.079-0.088-0.163-0.179-0.25-0.273c-0.291-0.313-0.619-0.667-0.901-1.079l-0.44-0.598l-0.135-0.181l-0.019-0.026
	l-0.018-0.027c-0.122-0.189-0.239-0.389-0.358-0.591l-0.186-0.313c-0.329-0.527-0.578-1.102-0.818-1.657
	c-0.073-0.167-0.146-0.336-0.223-0.506l-0.018-0.04l-0.015-0.042c-0.121-0.347-0.231-0.704-0.344-1.064l-0.038-0.121l-0.18-0.593
	l-0.018-0.056l-0.01-0.057l-0.114-0.622l-0.066-0.371c-0.056-0.3-0.111-0.604-0.155-0.908l-0.006-0.047l-0.003-0.046l-0.062-1.26
	c-0.06-0.823,0.037-1.602,0.13-2.354l0.041-0.332c0.035-0.498,0.163-0.946,0.276-1.343l0.023-0.083l0.084-0.292l0.26-0.902
	c0.196-0.618,0.473-1.176,0.718-1.669c0.088-0.179,0.176-0.354,0.241-0.494c0.241-0.571,0.578-1.021,0.877-1.417
	c0.11-0.147,0.219-0.291,0.34-0.47l0.111-0.154c0.341-0.469,0.662-0.913,1.077-1.281c0.303-0.306,0.589-0.563,0.82-0.771
	l0.145-0.131c0.557-0.498,0.909-0.762,0.924-0.772l2.479-1.847l-0.928,2.949c-0.006,0.018-0.141,0.444-0.409,1.124l-0.076,0.194
	c-0.117,0.296-0.251,0.636-0.437,1.038c-0.094,0.183-0.176,0.443-0.263,0.72c-0.068,0.216-0.14,0.438-0.213,0.631l-0.292,0.859
	l-0.046,0.125l-0.09,0.247l-0.05,0.215l-0.039,0.169c-0.06,0.285-0.136,0.571-0.214,0.86c-0.094,0.344-0.182,0.67-0.237,0.997
	c-0.032,0.295-0.083,0.589-0.135,0.884c-0.067,0.379-0.13,0.735-0.143,1.063c-0.006,0.267-0.025,0.533-0.046,0.8
	c-0.031,0.426-0.062,0.827-0.022,1.199l0.005,0.042l0.001,0.042l0.022,1.006c0.036,0.245,0.063,0.49,0.088,0.734l0.032,0.297
	l0.004,0.027l0.001,0.028c0.021,0.343,0.094,0.7,0.172,1.078c0.056,0.27,0.112,0.547,0.153,0.836
	c0.078,0.269,0.143,0.539,0.206,0.807c0.085,0.356,0.165,0.693,0.271,0.987l0.011,0.03l0.009,0.029
	c0.152,0.521,0.335,1.126,0.552,1.697c0.097,0.285,0.202,0.553,0.304,0.807c0.083,0.21,0.163,0.413,0.233,0.61
	c0.103,0.22,0.189,0.436,0.271,0.636c0.065,0.163,0.126,0.315,0.203,0.474L52.923,42.61z M108.601,25.13l-1.545,3.734
	c0,0-0.066,0.16-0.217,0.436l-0.015,0.029l-0.018,0.027c-0.035,0.055-0.071,0.122-0.114,0.198c-0.116,0.211-0.277,0.5-0.503,0.806
	c-0.068,0.094-0.139,0.195-0.214,0.303c-0.232,0.336-0.521,0.755-0.875,1.133l-0.075,0.088c-0.437,0.514-0.932,1.096-1.551,1.631
	l-0.537,0.499l-0.447,0.413c-0.24,0.202-0.496,0.393-0.759,0.587c-0.125,0.093-0.251,0.186-0.388,0.29
	c-0.389,0.289-0.796,0.584-1.216,0.877l-0.035,0.024l-0.038,0.021l-1.334,0.766l-0.2,0.113c-0.398,0.225-0.81,0.458-1.246,0.672
	l-0.028,0.014l-0.03,0.013l-1.342,0.554L95.7,38.429l-0.094,0.037l-1.475,0.582l-1.474,0.529l-1.46,0.496l-1.402,0.553
	c-0.463,0.187-0.925,0.361-1.385,0.53l-0.803,0.357l-0.538,0.239c-0.708,0.287-1.381,0.619-2.032,0.942
	c0.205,1.437,0.329,2.951,0.365,4.528c0.012,0.965,0.019,1.995-0.032,3.024c-0.011,0.368-0.04,0.735-0.07,1.102l-0.035,0.437
	c-0.036,0.493-0.081,1.023-0.152,1.544l-0.058,0.482c-0.04,0.348-0.081,0.694-0.14,1.065l-0.268,1.467
	c-0.061,0.362-0.145,0.707-0.225,1.041c-0.039,0.161-0.078,0.323-0.116,0.493l-0.035,0.153c-0.104,0.453-0.212,0.922-0.355,1.372
	l-0.429,1.458l-0.01,0.034l-0.013,0.034l-0.528,1.411c-0.188,0.534-0.395,1.03-0.62,1.495l-0.31,0.677
	c0.098,0.643,0.185,1.312,0.271,2.065c0.085,0.65,0.135,1.296,0.183,1.92c0.021,0.277,0.042,0.555,0.067,0.85
	c0.022,0.31,0.049,0.619,0.074,0.929c0.051,0.591,0.103,1.202,0.123,1.813l0.028,0.722c0.027,0.671,0.054,1.342,0.063,2.017
	c0.004,0.308,0.013,0.615,0.022,0.924c0.018,0.596,0.036,1.212,0.016,1.821l-0.061,2.707c-0.016,0.884-0.044,1.778-0.086,2.733
	c-0.025,0.618-0.085,1.23-0.143,1.822c-0.029,0.307-0.06,0.613-0.085,0.93l-0.252,2.727c-0.037,0.31-0.069,0.62-0.102,0.931
	c-0.06,0.586-0.122,1.191-0.221,1.802c-0.346,2.078-0.648,3.78-0.957,5.374c-0.063,0.307-0.118,0.614-0.173,0.922
	c-0.104,0.583-0.21,1.185-0.379,1.787l-0.728,2.614c-0.51,1.803-1.037,3.551-1.565,5.196l-2.743,8.542l0.795-8.937
	c0.156-1.757,0.344-3.52,0.572-5.391l0.338-2.652c0.07-0.543,0.105-1.092,0.144-1.674c0.02-0.314,0.04-0.628,0.064-0.924
	c0.105-1.602,0.245-3.346,0.426-5.319c0.043-0.551,0.054-1.102,0.064-1.686c0.006-0.311,0.012-0.622,0.023-0.938l0.11-2.643
	c0.01-0.326,0.025-0.653,0.041-0.979c0.027-0.564,0.053-1.098,0.049-1.624c-0.016-0.869-0.018-1.771-0.008-2.678l0.016-2.667
	c0.011-0.542-0.015-1.084-0.041-1.657c-0.016-0.315-0.03-0.63-0.038-0.927c-0.032-0.695-0.048-1.39-0.063-2.085l-0.014-0.593
	c-0.01-0.545-0.047-1.084-0.086-1.655c-0.021-0.317-0.043-0.635-0.059-0.937c-0.02-0.273-0.036-0.547-0.052-0.821
	c-0.037-0.614-0.071-1.193-0.138-1.779c-0.04-0.377-0.072-0.759-0.104-1.139c-0.04-0.488-0.08-0.973-0.139-1.441l-0.057-0.453
	l-0.039-0.308l0.144-0.276l0.197-0.382l0.66-1.274c0.196-0.355,0.378-0.738,0.57-1.207c0.331-0.724,0.652-1.514,1.054-2.595
	c0.151-0.367,0.274-0.758,0.405-1.171l0.029-0.092c0.05-0.162,0.104-0.324,0.156-0.485c0.096-0.289,0.187-0.562,0.258-0.847
	l0.086-0.32c0.215-0.795,0.437-1.617,0.625-2.452c0.098-0.386,0.189-0.815,0.29-1.353c0.029-0.154,0.06-0.309,0.091-0.462
	c0.061-0.306,0.122-0.611,0.172-0.952c0.164-0.933,0.31-1.886,0.43-2.814l0.07-0.623c0.083-0.74,0.17-1.506,0.228-2.249l0.02-0.264
	c-0.073,0.039-0.147,0.082-0.22,0.119c-0.332,0.191-0.644,0.385-0.94,0.569c-0.281,0.176-0.552,0.344-0.815,0.496
	c-0.454,0.327-0.871,0.612-1.229,0.857l-0.081,0.055c-0.714,0.576-1.159,0.909-1.159,0.909l-3.329,2.483l1.833-3.727
	c0.011-0.021,0.262-0.53,0.782-1.386l0.022-0.036l0.024-0.034l0.161-0.223c0.246-0.339,0.551-0.761,0.915-1.206l0.022-0.027
	l0.023-0.025c0.112-0.119,0.228-0.245,0.347-0.375c0.369-0.405,0.788-0.864,1.307-1.322c0.172-0.145,0.345-0.298,0.521-0.456
	c0.474-0.421,1.011-0.897,1.603-1.284c0.123-0.088,0.258-0.183,0.39-0.277l0.001-0.079c0.437-0.182,0.854-0.437,1.231-0.762
	c-0.773,0.666-0.244,0.236-0.003,0.102c0.266-0.149,0.516-0.339,0.756-0.534c0.073-0.041,0.142-0.086,0.215-0.125l0.422-0.236
	l0.95-0.531l0.024-0.014l0.025-0.012c0.491-0.238,0.995-0.469,1.512-0.698c0.158-0.069,0.317-0.142,0.477-0.214
	c0.356-0.161,0.716-0.324,1.098-0.471l1.508-0.54l1.967-0.679l1.011-0.349l0.8-0.268l0.588-0.196
	c0.219-0.087,0.433-0.183,0.645-0.277c0.219-0.097,0.436-0.193,0.642-0.276l1.266-0.531l0.472-0.242l0.702-0.362l0.434-0.218
	l0.691-0.348l1.03-0.602c0.561-0.315,1.057-0.641,1.536-0.954l0.233-0.152c0.33-0.208,0.619-0.416,0.897-0.618
	c0.154-0.11,0.299-0.216,0.414-0.294c0.707-0.516,1.118-0.857,1.122-0.86L108.601,25.13z" class="color c1"/>
</svg>