<svg version="1.1" id="图层_1" x="0px" y="0px" width="200px" height="200px" viewBox="0 0 200 200" enable-background="new 0 0 200 200" xml:space="preserve" xmlns="http://www.w3.org/2000/svg" xmlns:xlink="http://www.w3.org/1999/xlink" xmlns:xml="http://www.w3.org/XML/1998/namespace">
  <polygon fill="none" points="115.693,109.987 115.693,83.333 82.23,83.333 82.23,109.987 82.23,116.795 115.693,116.795 
	131.258,116.795 184.436,116.795 184.436,83.333 131.258,83.333 131.258,109.987 "/>
  <rect x="82.23" y="132.359" fill="none" width="33.463" height="52.076"/>
  <path fill="#FFCA0C" d="M115.693,76.524v-8.756V60.96V15.564H82.23V60.96H66.667V0h64.591v60.96v6.808v8.756v6.808v26.655h-15.564
	V83.333V76.524z M115.693,184.436H82.23v-52.076v-6.809v-8.756v-6.808V83.333H66.667v26.655v6.808v8.756v6.809V200h64.591v-67.641
	h-15.564V184.436z" class="color c1"/>
  <path fill="#00EFF2" d="M66.667,125.551v6.809H0v-0.162l15.564-15.564v0.162h51.103V125.551z M131.258,67.769v8.756v6.808h53.178
	v33.462h-53.178h-15.564H82.23v8.756v6.809h33.463h15.564H200V67.769H131.258z M115.693,83.333v-6.808v-8.756H82.23H66.667H0v0.025
	l15.564,15.564v-0.026h51.103H82.23H115.693z" class="color c2"/>
</svg>