<svg version="1.1" id="图层_1" x="0px" y="0px" width="116.709px" height="108.254px" viewBox="0 0 116.709 108.254" enable-background="new 0 0 116.709 108.254" xml:space="preserve" xmlns="http://www.w3.org/2000/svg" xmlns:xlink="http://www.w3.org/1999/xlink" xmlns:xml="http://www.w3.org/XML/1998/namespace">
  <path fill="#197D9D" d="M23.161,40.02c0,0-4.256-34.186,30.496-40.02v1.42c0,0-19.111,3.247-20.351,23.578
	c0,0-1.576,20.809,23.909,24.195v3.629c0,0-7.445,1.383-5.489,8.971l-3.006,1.814c0,0-10.453-16.56-31.307-9.306
	C-3.442,61.557,3.525,84.606,3.525,84.606l-1.049,0.478C2.476,85.084-10.552,54.324,23.161,40.02z M93.546,40.096
	c0,0,4.258-34.184-30.496-40.018v1.42c0,0,19.113,3.248,20.353,23.579c0,0,1.575,20.807-23.91,24.196v3.626
	c0,0,7.445,1.384,5.489,8.972l3.007,1.815c0,0,10.452-16.561,31.309-9.306c20.854,7.255,13.888,30.306,13.888,30.306l1.049,0.478
	C114.231,85.164,127.263,54.403,93.546,40.096z M57.322,99.722c0,0,27.298,21.013,49.957-5.977l-1.223-0.722
	c0,0-12.495,14.821-30.644,5.576c0,0-18.729-9.199-8.72-32.882l-3.125-1.837c0,0-4.968,5.711-10.516,0.178l-3.089,1.668
	c0,0,8.968,17.409-7.864,31.701C25.266,111.72,8.937,94.019,8.937,94.019l-0.945,0.664C7.993,94.683,27.888,121.514,57.322,99.722z
	 M46.727,88.473l3.024-7.183c-18.613-8.126-15.116-25.415-15.116-25.415l-8.125-1.041C23.39,81.857,46.727,88.473,46.727,88.473z
	 M90.87,54.886l-8.126,1.041c0,0,3.495,17.287-15.116,25.413l3.023,7.182C70.651,88.521,93.986,81.909,90.87,54.886z M39.085,34.827
	l4.651,6.249c16.446-11.914,29.571-0.126,29.571-0.126l5.019-6.474C56.626,18.074,39.085,34.827,39.085,34.827z" class="color c1"/>
</svg>