<svg version="1.1" id="图层_1" x="0px" y="0px" width="195.572px" height="186.915px" viewBox="0 0 195.572 186.915" enable-background="new 0 0 195.572 186.915" xml:space="preserve" xmlns="http://www.w3.org/2000/svg" xmlns:xlink="http://www.w3.org/1999/xlink" xmlns:xml="http://www.w3.org/XML/1998/namespace">
  <path fill="#AE131D" d="M162.583,134.814c7.084-13.014,11.018-26.854,12.086-40.598c11.099,13.494,18.412,29.973,20.37,47.977
	c0.347-3.217,0.533-6.479,0.533-9.783c0-22.066-8.016-42.332-21.387-58.328c-3.685-28.914-20.159-55.285-46.944-69.871
	c-2.903-1.584-5.854-2.98-8.846-4.211c19.689,13.676,32.554,34.299,37.323,57.09c-16.216-11.426-36.246-18.186-57.933-18.186
	c-19.248,0-37.18,5.336-52.31,14.521C50.813,32.098,63.325,12.938,81.951,0c-2.991,1.23-5.941,2.627-8.846,4.211
	C48.299,17.719,32.352,41.348,27.198,67.738C10.366,84.533,0,107.311,0,132.41c0,3.309,0.184,6.572,0.533,9.783
	c2.211-20.34,11.252-38.734,24.874-53.076c0.403,15.402,4.395,31.072,12.356,45.697c9.835,18.053,24.295,31.895,40.929,40.764
	c-17.599,3.656-36.11,2.324-53.334-4.764c2.656,1.848,5.433,3.564,8.334,5.146c20.977,11.426,44.593,13.604,66.48,7.975
	c21.887,5.629,45.502,3.451,66.479-7.975c2.903-1.582,5.678-3.299,8.333-5.146c-17.223,7.088-35.733,8.42-53.333,4.764
	C138.289,166.709,152.748,152.863,162.583,134.814z M100.173,168.379c-18.438-8.691-34.559-23.328-45.232-42.924
	C46.118,109.254,42.175,91.77,42.59,74.779C58.299,64.49,77.307,58.463,97.786,58.463c22.624,0,43.441,7.361,60.011,19.703
	c-0.157,15.914-4.152,32.162-12.391,47.289C134.732,145.051,118.612,159.688,100.173,168.379z" class="color c1"/>
</svg>