<svg version="1.1" id="图层_1" x="0px" y="0px" width="89.491px" height="89.495px" viewBox="0 0 89.491 89.495" enable-background="new 0 0 89.491 89.495" xml:space="preserve" xmlns="http://www.w3.org/2000/svg" xmlns:xlink="http://www.w3.org/1999/xlink" xmlns:xml="http://www.w3.org/XML/1998/namespace">
  <g>
    <path fill="#BF1423" d="M86.856,27.639H61.852V2.635C61.852,1.18,60.674,0,59.218,0H30.266c-1.455,0-2.632,1.18-2.632,2.635v25.004
		h-25C1.18,27.639,0,28.817,0,30.272v28.954c0,1.45,1.18,2.629,2.634,2.629h25v25.01c0,1.449,1.177,2.63,2.632,2.63h28.952
		c1.456,0,2.634-1.181,2.634-2.63v-25.01h25.004c1.457,0,2.635-1.179,2.635-2.629V30.272C89.491,28.812,88.313,27.639,86.856,27.639
		z" class="color c1"/>
  </g>
</svg>