<svg version="1.1" id="图层_1" x="0px" y="0px" width="48.75px" height="46.769px" viewBox="0 0 48.75 46.769" enable-background="new 0 0 48.75 46.769" xml:space="preserve" xmlns="http://www.w3.org/2000/svg" xmlns:xlink="http://www.w3.org/1999/xlink" xmlns:xml="http://www.w3.org/XML/1998/namespace">
  <path fill="#EF444A" d="M5.945,17.638h12.485V5.945C18.431,2.577,21.006,0,24.375,0c3.37,0,5.946,2.577,5.946,5.945v11.692h12.484
	c3.371,0,5.945,2.576,5.945,5.946c0,3.369-2.574,5.945-5.945,5.945H30.321v11.295c0,3.369-2.576,5.945-5.946,5.945
	c-3.369,0-5.944-2.576-5.944-5.945V29.529H5.945C2.576,29.529,0,26.953,0,23.583C0,20.213,2.576,17.638,5.945,17.638z" class="color c1"/>
</svg>