<svg version="1.1" id="图层_1" x="0px" y="0px" width="190.488px" height="190.488px" viewBox="0 0 190.488 190.488" enable-background="new 0 0 190.488 190.488" xml:space="preserve" xmlns="http://www.w3.org/2000/svg" xmlns:xlink="http://www.w3.org/1999/xlink" xmlns:xml="http://www.w3.org/XML/1998/namespace">
  <path fill="#66D2E5" d="M95.244,0C42.642,0,0,42.643,0,95.244c0,52.604,42.642,95.244,95.244,95.244s95.244-42.641,95.244-95.244
	C190.488,42.643,147.847,0,95.244,0z M75.149,29.416c3.275,0.002,6.35,1.275,8.66,3.588c2.313,2.313,3.585,5.387,3.584,8.656
	c0,3.268-1.273,6.342-3.586,8.654c-2.311,2.311-5.384,3.584-8.653,3.584h-0.005c-6.741-0.008-12.231-5.498-12.238-12.24
	C62.913,34.908,68.403,29.416,75.149,29.416z M45.68,115.002c-0.044,0.219-0.106,0.432-0.192,0.637
	c-0.084,0.205-0.188,0.4-0.309,0.584c-0.131,0.191-0.271,0.359-0.424,0.516c-0.639,0.641-1.52,1.006-2.418,1.006
	c-0.223,0-0.448-0.023-0.667-0.068c-0.222-0.047-0.434-0.113-0.637-0.197c-0.206-0.084-0.404-0.189-0.589-0.313
	c-0.191-0.127-0.361-0.27-0.52-0.432c-0.629-0.627-0.992-1.508-0.99-2.41c-0.002-0.211,0.019-0.438,0.063-0.66
	c0.044-0.213,0.108-0.424,0.189-0.629c0.087-0.213,0.195-0.412,0.325-0.6c0.112-0.176,0.258-0.357,0.422-0.518l0.184-0.168
	c1.299-1.121,3.399-1.055,4.624,0.172c0.16,0.162,0.3,0.332,0.423,0.518c0.127,0.182,0.236,0.385,0.323,0.6
	C45.745,113.662,45.812,114.342,45.68,115.002z M51.666,64.039c-1.618-2.398-4.285-3.816-7.149-3.816
	c-0.867,0-1.727,0.131-2.558,0.389c-2.193,0.686-3.991,2.184-5.059,4.217c-1.068,2.035-1.28,4.365-0.595,6.557
	c1.126,3.619,4.426,6.051,8.21,6.049c0.865,0,1.728-0.131,2.562-0.391c0.031-0.014,0.096-0.031,0.157-0.049
	c0.293-0.084,0.608-0.127,0.924-0.127c1.51,0,2.854,1.014,3.271,2.467c0.25,0.875,0.145,1.793-0.298,2.588
	c-0.441,0.795-1.167,1.369-2.042,1.619c-1.382,0.432-2.824,0.666-4.28,0.693l-0.003,0.002l-0.298,0.01
	c-5.13-0.004-9.902-2.545-12.768-6.795c-4.749-7.043-2.885-16.639,4.159-21.391c2.557-1.727,5.53-2.637,8.603-2.637
	c5.139,0,9.92,2.539,12.788,6.793c0.93,1.535,0.552,3.465-0.863,4.518C54.976,65.814,52.746,65.486,51.666,64.039z M59.608,72.791
	c-0.111,0.549-0.254,1.092-0.421,1.611c0,0-0.302,0.836-1.137,1.674c-0.87,0.691-2.119,0.939-3.229,0.559
	c-1.773-0.611-2.721-2.551-2.112-4.324c0.093-0.285,0.171-0.584,0.232-0.885c0.388-1.84,2.236-3.047,4.038-2.666
	c0.89,0.188,1.652,0.709,2.148,1.471C59.625,70.992,59.796,71.902,59.608,72.791z M62,101.506c-1.646-0.902-2.255-2.973-1.36-4.619
	c0.595-1.098,1.742-1.781,2.995-1.781c0.56,0,1.116,0.141,1.612,0.406l4.257,2.324c2.38-3.4,7.417-9.287,15.975-13.564
	c1.031-0.518,2.016-1.146,2.936-1.875l-4.633-3.836c-1.415-1.23-1.568-3.385-0.342-4.801c1.183-1.365,3.437-1.525,4.8-0.342
	l4.511,3.736c0.633-1.205,1.112-2.486,1.429-3.816c0.632-2.676,1.437-5.357,2.391-7.975c1.045-2.857,2.537-5.504,4.433-7.869
	c1.229-1.5,3.435-1.676,4.837-0.529c0.702,0.58,1.137,1.396,1.226,2.301c0.087,0.904-0.183,1.791-0.762,2.492
	c-1.427,1.791-2.55,3.793-3.334,5.943c-0.849,2.334-1.57,4.754-2.145,7.195c-0.814,3.445-2.438,6.705-4.694,9.428
	c-2.145,2.576-4.685,4.59-7.603,6.047c-10.641,5.314-14.72,13.416-14.76,13.498c-1.047,2.307-1.655,4.77-1.805,7.309
	c-0.315,4.15,0.174,8.256,1.454,12.205c0.277,0.869,0.202,1.791-0.214,2.598c-0.415,0.811-1.121,1.406-1.985,1.684
	c-0.327,0.107-0.675,0.164-1.031,0.166h-0.002h-0.002c-1.485,0-2.786-0.947-3.238-2.359c-1.552-4.795-2.147-9.77-1.772-14.791
	c0.161-2.289,0.593-4.559,1.286-6.75L62,101.506z M126.712,86.131c-2.104,1.23-4.508,1.881-6.946,1.887h-0.001
	c-4.319,0-8.09-2.066-10.087-5.525c-3.205-5.57-0.799-12.994,5.362-16.551c2.797-1.65,6.176-2.25,9.369-1.664
	c3.326,0.646,6.036,2.531,7.639,5.305C135.261,75.146,132.868,82.57,126.712,86.131z M140.944,104.164
	c-0.009,6.5-5.305,11.793-11.803,11.801h-0.001c-6.509,0-11.804-5.295-11.804-11.801c0-6.51,5.295-11.805,11.804-11.805
	S140.944,97.654,140.944,104.164z M108.581,110.635c1.88-0.32,3.613,0.947,3.928,2.773c0.129,0.66,0.09,1.363-0.116,2.021
	c-0.246,1.43-1.493,2.584-3.016,2.729l-0.028,0.002h-0.298c-1.762,0-3.216-1.324-3.382-3.08c-0.077-0.615-0.02-1.242,0.173-1.848
	C106.114,111.916,107.195,110.871,108.581,110.635z M91.447,124.014c1.745,1.656,4.295,2.506,6.125,2.926
	c1.403,0.344,2.866,0.143,4.101-0.541c1.119-0.637,2.044-1.572,2.67-2.701c0.642-1.1,1.77-1.748,2.979-1.748
	c0.598,0,1.187,0.158,1.707,0.459c1.621,0.945,2.173,3.031,1.231,4.654c-1.223,2.174-3.02,3.988-5.193,5.236
	c-1.836,1.053-3.921,1.607-6.034,1.607h-0.055c-0.985,0-1.973-0.113-2.934-0.336c-2.655-0.609-6.427-1.908-9.291-4.629
	c-3.478-3.369-4.711-8.5-3.146-13.076c1.478-4.438,4.063-8.477,7.479-11.678c2.357-2.203,5.433-3.416,8.661-3.416
	c1.254,0,2.497,0.186,3.699,0.551l0.358,0.115c1.748,0.611,2.686,2.557,2.07,4.328c-0.479,1.365-1.771,2.281-3.213,2.281
	c-0.383,0-0.76-0.064-1.123-0.191l-0.121-0.037c-1.964-0.596-4.205-0.074-5.715,1.354c-2.58,2.432-4.53,5.494-5.642,8.861
	C89.33,120.123,89.875,122.467,91.447,124.014z M127.645,146.561c-5.846,3.381-12.475,5.449-19.201,5.998v5.113
	c0,1.875-1.527,3.402-3.404,3.402s-3.402-1.527-3.402-3.402v-5.057c-0.159-0.008-0.316-0.018-0.469-0.029
	c-10.046-0.803-19.245-5.352-25.972-12.828l-4.239,3.467c-0.594,0.471-1.323,0.725-2.097,0.725c-1.049,0-2.021-0.471-2.671-1.291
	c-1.164-1.473-0.914-3.617,0.558-4.779l6.859-5.623c1.478-1.109,3.686-0.77,4.766,0.674c5.567,7.436,14.068,12.127,23.322,12.871
	c1.809,0.139,3.663,0.15,5.496,0.031c5.977-0.381,11.876-2.168,17.06-5.168c0.517-0.299,1.103-0.457,1.695-0.457
	c1.214,0,2.345,0.654,2.952,1.709C129.832,143.541,129.271,145.625,127.645,146.561z M157.982,105.779h-5.812
	c-0.432,3.721-1.118,7.447-2.039,11.084c-1.91,7.424-5.604,14.359-10.696,20.094l4.816,4.264c1.193,1.236,1.31,3.084,0.31,4.426
	c-0.639,0.857-1.659,1.369-2.729,1.369c-0.737,0-1.44-0.234-2.032-0.678l-7.495-6.629c-0.068-0.061-0.139-0.125-0.202-0.195
	c-0.623-0.641-0.963-1.5-0.947-2.408c0.016-0.91,0.384-1.762,1.039-2.395c5.527-5.34,9.461-12.1,11.374-19.547
	c1.08-4.268,1.811-8.662,2.169-13.059c0.936-10.939-0.004-21.186-0.957-27.873c-1.115-7.764-5.813-14.492-12.563-17.996
	c-0.233-0.121-0.468-0.238-0.698-0.35c-2.758-1.328-5.831-2.031-8.89-2.031c-3.005,0-5.91,0.643-8.636,1.91
	c-0.221,0.104-0.458,0.182-0.705,0.234c-0.238,0.053-0.481,0.078-0.723,0.078c-1.59,0-2.986-1.129-3.322-2.686l-1.894-8.895
	c-0.394-1.832,0.777-3.646,2.611-4.041c1.808-0.381,3.657,0.818,4.043,2.611l1.088,5.043c6.372-1.842,13.425-1.244,19.396,1.646
	l0.368,0.186c0.17,0.084,0.34,0.168,0.509,0.258c1.34,0.695,2.636,1.5,3.857,2.396l4.477-4.781c1.249-1.287,3.417-1.352,4.733-0.158
	c1.389,1.26,1.495,3.418,0.236,4.809l-4.457,4.752c3.931,4.555,6.446,10.096,7.287,16.061c0.867,6.096,1.776,15.457,1.245,25.695
	h5.239c1.876,0,3.402,1.525,3.402,3.402S159.858,105.779,157.982,105.779z" class="color c1"/>
</svg>