<svg version="1.1" id="图层_1" x="0px" y="0px" width="157.287px" height="157.287px" viewBox="0 0 157.287 157.287" enable-background="new 0 0 157.287 157.287" xml:space="preserve" xmlns="http://www.w3.org/2000/svg" xmlns:xlink="http://www.w3.org/1999/xlink" xmlns:xml="http://www.w3.org/XML/1998/namespace">
  <path fill="#2FA5A6" d="M82.674,140.349c-0.604,0.436-1.319,0.652-2.036,0.652c-0.566,0-1.133-0.137-1.65-0.412
	c-6.494-3.471-23.042-15.631-29.9-20.729c-0.181,0.02-0.358,0.055-0.544,0.055c-2.854,0-5.167-2.313-5.167-5.168
	c0-2.854,2.313-5.166,5.167-5.166c2.788,0,5.045,2.213,5.148,4.977c6.334,4.701,19.879,14.639,26.732,18.787
	c6.55-4.729,28.955-21.029,38.106-29.297c0.644-0.58,1.479-0.9,2.346-0.9h36.411v-0.229v-0.006v-2.297V17.655
	c0-9.75-7.904-17.653-17.654-17.653H17.654C7.904,0.001,0,7.905,0,17.655v80.079h31.48c-7.498-8.6-19.442-25.215-18.545-43.038
	c0.59-11.73,6.608-21.956,17.887-30.393c0.277-0.199,23.354-16.43,48.006,9.463c5.276-4.804,17.563-14.25,32.091-14.031
	c10.096,0.184,19.234,5.004,27.166,14.326c0.036,0.043,0.071,0.086,0.105,0.131c0.193,0.252,18.791,25.084-3.78,56.077
	c0.171,0.514,0.286,1.053,0.286,1.625c0,2.854-2.313,5.168-5.166,5.168c-2.854,0-5.168-2.314-5.168-5.168
	c0-2.373,1.609-4.352,3.789-4.957c19.912-26.542,5.392-47.249,4.535-48.418c-6.547-7.664-13.9-11.629-21.859-11.783
	C95.03,26.464,81.388,41.03,81.252,41.176c-0.677,0.735-1.663,1.107-2.637,1.133c-1-0.019-1.946-0.459-2.597-1.219
	C54.6,16.16,35.765,29.365,34.974,29.94c-9.491,7.099-14.567,15.556-15.048,25.105C18.817,77.084,41.792,98.44,42.024,98.651
	c1.063,0.977,1.418,2.506,0.895,3.85c-0.524,1.346-1.819,2.229-3.262,2.229H0v34.896v0.006c0,9.75,7.904,17.654,17.654,17.654
	h121.979c9.75,0,17.654-7.904,17.654-17.654v-0.006v-29.482h-35.08C110.565,120.368,83.84,139.515,82.674,140.349z" class="color c1"/>
</svg>