<svg version="1.1" id="图层_1" x="0px" y="0px" width="138.328px" height="138.328px" viewBox="0 0 138.328 138.328" enable-background="new 0 0 138.328 138.328" xml:space="preserve" xmlns:xml="http://www.w3.org/XML/1998/namespace" xmlns="http://www.w3.org/2000/svg" xmlns:xlink="http://www.w3.org/1999/xlink">
  <rect x="64.519" y="64.518" fill="none" width="9.292" height="9.291"/>
  <path fill="#00C157" d="M68.569,0C53.631,0,41.521,12.017,41.521,26.838v15.728l22.998,0.001v21.951h9.292l21.81,0.001V42.566
	V26.841C95.619,12.018,83.506,0,68.569,0z M73.811,73.809h-9.292H41.521L41.52,96.662v14.824c0,14.823,12.11,26.842,27.048,26.842
	c14.937,0,27.049-12.018,27.049-26.838l0.001-14.826h-21.81L73.811,73.809z" class="color c1"/>
  <path fill="#1A6A70" d="M26.84,42.564C12.018,42.564,0,54.675,0,69.612c0,14.937,12.016,27.05,26.838,27.05H41.52l0.001-22.854
	h22.998v-9.291V42.566l-22.998-0.001L26.84,42.564z M111.49,42.566H95.619v21.952l-21.811-0.001v9.291v22.855h21.809h15.869
	c14.822,0,26.841-12.113,26.841-27.052C138.328,54.677,126.313,42.566,111.49,42.566z" class="color c2"/>
</svg>