<svg version="1.1" id="图层_1" x="0px" y="0px" width="73.692px" height="102.72px" viewBox="0 0 73.692 102.72" enable-background="new 0 0 73.692 102.72" xml:space="preserve" xmlns="http://www.w3.org/2000/svg" xmlns:xlink="http://www.w3.org/1999/xlink" xmlns:xml="http://www.w3.org/XML/1998/namespace">
  <path fill="#000111" d="M73.377,92.142c-0.028,1.31-0.566,2.283-1.613,2.796c-1.312,0.644-1.577,1.778-1.885,3.021
	c-0.295,1.193-0.644,2.451-1.317,3.45c-1.147,1.701-3.313,1.72-4.706,0.214c-0.19-0.205-0.392-0.416-0.521-0.66
	c-2.043-3.868-5.338-6.55-8.735-9.098c-7.955-5.967-16.628-10.759-25.479-15.222c-5.492-2.769-11.109-5.29-16.658-7.946
	c-2.053-0.983-4.201-1.423-6.465-1.362c-0.333,0.009-0.668-0.012-1.001-0.025c-1.81-0.07-3.439-1.108-4.299-2.701
	c-0.013-0.024-0.026-0.049-0.039-0.073c-1.218-2.279-0.709-5.109,1.251-6.793c0.136-0.117,0.27-0.235,0.403-0.355
	c0.334-0.303,0.56-0.744,0.772-1.154c0.15-0.292,0.169-0.648,0.29-0.958c0.596-1.531,1.542-2.733,3.418-2.716
	c1.528,0.014,2.946,0.842,3.806,2.105c2.97,4.365,6.542,8.123,11.082,10.878c8.729,5.298,17.461,10.592,26.228,15.826
	c4.797,2.864,9.774,5.373,15.194,6.873c1.555,0.43,3.106,0.777,4.769,0.523c0.938-0.143,1.957-0.022,2.897,0.181
	C72.426,89.302,73.373,90.594,73.377,92.142z M41.719,76.349c0.571,0.299,1.039,0.28,1.622,0.013
	c4.512-2.071,9.006-4.185,13.573-6.129c4.001-1.704,8.007-3.46,12.492-3.554c0.751-0.016,1.53-0.397,2.23-0.745
	c0.853-0.424,1.39-1.177,1.594-2.126c0.135-0.625,0.268-1.253,0.346-1.887c0.159-1.3,0.391-2.593-1.115-3.419
	c-0.485-0.266-0.822-0.901-1.093-1.434c-0.453-0.893-0.759-1.86-1.205-2.757c-0.246-0.495-0.569-1.019-0.998-1.344
	c-1.185-0.896-2.551-0.999-3.757-0.161c-1.007,0.699-1.864,1.636-2.71,2.54c-1.434,1.531-2.667,3.281-4.237,4.648
	c-2.663,2.32-5.448,4.519-8.318,6.578c-3.861,2.77-7.852,5.358-11.905,8.105C39.432,75.245,40.594,75.761,41.719,76.349z
	 M32.257,79.37c-0.547-0.302-0.965-0.244-1.506,0.027c-4.713,2.356-9.436,4.692-14.169,7.008c-2.669,1.306-5.503,1.905-8.476,1.999
	c-1.454,0.046-2.932,0.201-4.342,0.544c-2.206,0.537-3.554,2.604-3.169,4.775c0.109,0.614,0.55,1.442,1.055,1.65
	c0.811,0.335,1.208,0.85,1.524,1.56c0.346,0.779,0.7,1.555,1.054,2.331c0.618,1.355,1.639,2.192,3.142,2.329
	c2.101,0.19,3.87-0.494,5.096-2.245c1.724-2.461,3.898-4.429,6.352-6.129c2.08-1.441,4.12-2.941,6.191-4.397
	c3.566-2.507,7.141-5,10.874-7.613C34.574,80.552,33.395,79.999,32.257,79.37z M57.438,35.793c0.428,3.928-3.409,8.224-7.326,8.224
	c-0.732,0-1.476,0.084-2.194-0.017c-1.554-0.219-2.671,0.829-2.4,2.439c0.04,0.237,0.005,0.486,0.005,0.809
	c-1.058-0.288-1.156,0.354-1.134,1.106c1.129-0.066,1.128-0.055,1.135,1.129c0.007,1.041,0.025,2.081,0.038,3.121
	c0.674-0.844,1.281-1.755,2.044-2.509c1.171-1.156,1.595-2.478,1.306-4.069c-0.048-0.264-0.047-0.537-0.074-0.86
	c1.099,0,2.154,0,3.428,0c0.098,1.72,0.277,3.441,0.254,5.16c-0.009,0.68-0.408,1.383-0.73,2.026
	c-1.091,2.176-2.113,4.4-3.384,6.468c-0.947,1.542-2.158,2.947-3.4,4.274c-1.21,1.292-2.783,1.873-4.616,1.817
	c-2.437-0.074-4.88-0.074-7.317,0c-1.833,0.055-3.403-0.529-4.616-1.818c-1.225-1.302-2.441-2.671-3.351-4.196
	c-1.464-2.451-2.676-5.054-3.985-7.597c-0.095-0.184-0.161-0.409-0.156-0.613c0.052-1.84,0.124-3.68,0.19-5.52
	c1.319,0,2.374,0,3.592,0c-0.902,2.528,0.301,4.271,1.98,5.871c0.465,0.444,0.791,1.034,1.176,1.562
	c0.013-1.003,0.032-2.006,0.038-3.01c0.007-1.268,0.005-1.276,1.16-1.26c-0.125-1.112-0.132-1.115-1.159-1.121
	c0-0.424,0.001-0.849,0-1.274c-0.003-1.183-0.723-1.916-1.886-1.919c-0.946-0.002-1.893-0.04-2.837,0.008
	c-1.663,0.084-3.072-0.508-4.221-1.64c-1.791-1.765-2.994-3.853-2.974-6.456c0.009-1.174,0.525-1.711,1.44-1.841
	c-0.684-2.044-1.604-4.064-2.022-6.183c-1.207-6.114-0.629-12.099,2.135-17.737c2.259-4.608,6.052-7.515,10.928-8.943
	c5.545-1.624,11.154-1.65,16.688,0.01c7.009,2.101,11.14,6.979,12.751,14.003c1.479,6.445,1.334,12.777-1.953,18.797
	C57.042,34.205,57.345,34.945,57.438,35.793z M37.952,42.778c0.019,0.749,0.058,1.622,0.264,2.346
	c0.094,0.332,0.428,0.714,0.812,0.714c0.42,0,0.675-0.368,0.886-0.618c0.236-0.279,0.677-1.246,0.677-2.214
	c0.053-2.487-1.258-4.473-2.685-6.573C37.906,38.68,37.9,40.73,37.952,42.778z M34.865,50.831c-0.157,0.086-0.432,0.015-0.639-0.046
	c-0.561-0.165-1.072-0.327-1.473-0.167c-0.432,0.172-0.376,0.895-0.427,1.034c0.801,0.152,1.466,0.285,2.135,0.4
	c0.113,0.019,0.262-0.007,0.355-0.07c0.695-0.469,1.312-0.335,1.906,0.253c0.592-0.553,1.229-0.764,1.951-0.233
	c0.083,0.061,0.238,0.056,0.353,0.038c0.668-0.108,1.335-0.23,2.065-0.358c0.083-0.934-0.678-1.434-1.788-0.932
	c-0.189,0.085-0.485,0.258-0.573,0.188c-0.752-0.593-1.404-0.336-2.028,0.196C36.143,50.533,35.555,50.456,34.865,50.831z
	 M30.144,50.718h2.181c0,0-0.03-0.536-0.308-0.814s-1.02-0.215-1.826-0.215C30.176,50.03,30.144,50.718,30.144,50.718z
	 M35.421,36.433c-1.427,2.1-2.738,4.086-2.685,6.573c0,0.968,0.441,1.935,0.677,2.214c0.211,0.25,0.466,0.618,0.886,0.618
	c0.383,0,0.717-0.382,0.812-0.714c0.206-0.724,0.245-1.597,0.264-2.346C35.427,40.73,35.421,38.68,35.421,36.433z M32.801,35.915
	c0.376-0.359,0.673-0.894,0.805-1.4c0.643-2.46-0.073-6.16-4.014-6.756c-1.833-0.277-3.763-0.142-5.623,0.052
	c-1.646,0.172-2.625,1.334-2.953,2.952c-0.169,0.83-0.218,1.685-0.361,2.859c0.202,0.956,0.343,2.239,0.754,3.43
	c0.701,2.031,2.163,2.809,4.293,2.517C28.498,39.185,30.799,37.822,32.801,35.915z M29.021,53.721
	c-0.001-0.33-0.001-0.66-0.001-0.948c-0.382-0.039-0.736-0.075-1.089-0.111C27.974,53.959,28.027,54.007,29.021,53.721z
	 M29.075,49.658c0,0,0.714,0,1.078,0c-0.114-0.616-0.145-1.33-1.049-1.326L29.075,49.658z M31.221,54.896c-0.725,0-1.423,0-2.12,0
	c-0.094,1.132-0.095,1.163,1.538,1.181C31.494,56.087,31.189,55.406,31.221,54.896z M42.137,57.202c-0.317,0-0.624,0-0.943,0
	c-0.238,1.327-0.986,1.582-2.318,0.728c-0.726,0.701-1.451,0.596-2.158-0.033c-0.745,0.721-1.471,0.649-2.176,0.017
	c-1.21,0.893-2.056,0.595-2.249-0.712c-0.345,0-0.682,0-1.019,0c-0.029,1.11,0.118,1.269,0.988,1.03
	c0.258,1.4,0.997,1.653,2.328,0.796c0.726,0.698,1.451,0.597,2.158-0.033c0.745,0.714,1.471,0.654,2.176,0.016
	c1.211,0.893,2.045,0.598,2.26-0.776C42.091,58.475,42.289,58.243,42.137,57.202z M44.394,54.897c-0.718,0-1.402,0-2.125,0
	c-0.065,1.212-0.063,1.253,1.579,1.176C44.64,56.036,44.392,55.375,44.394,54.897z M44.459,53.8
	c1.023,0.121,1.035,0.114,1.079-1.137c-0.359,0.074-0.718,0.148-1.079,0.223C44.459,53.217,44.459,53.511,44.459,53.8z
	 M43.339,49.547h1.09c-0.033-0.543-0.04-0.727-0.067-1.163c-0.977-0.122-0.969,1.274-0.969,1.274s-0.426,0.025-1.186,0.034
	c-0.76,0.008-1.065,0.32-1.054,1.026c0.739,0,1.437,0,2.174,0L43.339,49.547z M52.502,31.029c-0.374-2.029-1.46-2.934-3.456-3.319
	c-0.827-0.16-1.675-0.215-2.544-0.226c-2.624,0-2.945,0.286-4.254,0.838c-2.957,1.249-3.269,6.013-1.652,7.546
	c2.056,1.949,4.403,3.352,7.272,3.712c2.073,0.26,3.404-0.496,4.178-2.44C52.835,35.16,52.884,33.1,52.502,31.029z" class="color c1"/>
</svg>