<svg version="1.1" id="图层_1" x="0px" y="0px" width="152.587px" height="114.335px" viewBox="0 0 152.587 114.335" enable-background="new 0 0 152.587 114.335" xml:space="preserve" xmlns="http://www.w3.org/2000/svg" xmlns:xlink="http://www.w3.org/1999/xlink" xmlns:xml="http://www.w3.org/XML/1998/namespace">
  <path fill="#79BAD6" d="M149.007,6.53c-1.513,2.475-25.652,41.079-70.436,61.212l-2.277,1.026l-2.277-1.024
	C29.241,47.609,5.103,9.012,3.583,6.53C2.235,4.438,1.042,2.255,0,0.001c0.451,6.446,2.767,33.458,11.317,60.383
	c6.512,20.494,16.632,40.938,32.323,52.207c0,0,1.429,0.904,3.563,1.41c4.521,1.078,12.223,0.351,16.364-14.696
	c0,0,3.451-15.475,7.87-23.914c1.283-1.789,3.055-3.432,5.234-3.357c0,0,1.592-0.462,3.411,1.497
	c1.595,2.51,3.089,6.104,4.387,9.813c0.316,0.893,0.616,1.783,0.899,2.676c2.21,6.84,3.653,13.286,3.653,13.286
	c4.054,14.729,11.518,15.729,16.07,14.756c2.293-0.487,3.86-1.47,3.86-1.47c15.716-11.285,25.842-31.775,32.348-52.302
	C149.833,33.396,152.138,6.438,152.587,0C151.545,2.254,150.354,4.438,149.007,6.53z" class="color c1"/>
</svg>