<svg version="1.1" id="图层_1" x="0px" y="0px" width="87.445px" height="54.652px" viewBox="0 0 87.445 54.652" enable-background="new 0 0 87.445 54.652" xml:space="preserve" xmlns="http://www.w3.org/2000/svg" xmlns:xlink="http://www.w3.org/1999/xlink" xmlns:xml="http://www.w3.org/XML/1998/namespace">
  <path fill="#FFFFFF" d="M42.356,0H2.733C1.23,0,0,1.229,0,2.732v40.99c0,1.51,1.223,2.732,2.733,2.732h5.465
	c0-6.027,4.904-10.932,10.931-10.932c6.026,0,10.93,4.904,10.93,10.932h27.327c0-6.027,4.904-10.932,10.93-10.932
	c6.027,0,10.931,4.904,10.931,10.932h5.465c1.51,0,2.733-1.223,2.733-2.732V25.959c0-1.502-1.229-2.732-2.733-2.732h-7.788
	L65.995,6.832h-5.876v-4.1C60.119,1.229,58.889,0,57.386,0h-6.832H42.356z M27.327,24.594h-5.466v5.465h-5.465v-5.465h-5.465v-5.465
	h5.465v-5.467h5.465v5.467h5.466V24.594z M60.119,24.594V10.93h3.689l9.098,13.664H60.119z M76.515,46.455
	c0,4.527-3.67,8.197-8.198,8.197c-4.527,0-8.198-3.67-8.198-8.197s3.67-8.199,8.198-8.199
	C72.845,38.256,76.515,41.928,76.515,46.455z M27.327,46.455c0,4.527-3.67,8.197-8.198,8.197c-4.529,0-8.198-3.67-8.198-8.197
	s3.669-8.199,8.198-8.199C23.657,38.256,27.327,41.928,27.327,46.455z" class="color c1"/>
</svg>