<svg version="1.1" id="图层_2" x="0px" y="0px" width="62.239px" height="62.222px" viewBox="0 0 62.239 62.222" enable-background="new 0 0 62.239 62.222" xml:space="preserve" xmlns="http://www.w3.org/2000/svg" xmlns:xlink="http://www.w3.org/1999/xlink" xmlns:xml="http://www.w3.org/XML/1998/namespace">
  <path fill="#CF121B" d="M62.24,31.062c0.018,4.423-2.994,7.144-8.126,7.203c-5.13,0.059-10.261,0.013-15.847,0.013
	c0,5.769,0.064,11.198-0.022,16.625c-0.06,3.784-2.194,6.442-5.462,7.138c-4.54,0.966-8.538-1.997-8.707-6.676
	c-0.16-4.412-0.049-8.835-0.057-13.252c-0.002-1.133,0-2.263,0-3.841c-5.65,0-10.983,0.061-16.314-0.02
	c-4.018-0.061-6.796-2.168-7.515-5.456c-1.012-4.626,2.115-8.68,6.958-8.778c5.454-0.11,10.912-0.025,16.871-0.025
	c0-3.031,0-5.827,0-8.624c0-2.419-0.022-4.839,0.006-7.258c0.058-5.074,2.789-8.143,7.185-8.11c4.371,0.032,7.017,3.093,7.061,8.243
	c0.035,4.102-0.002,8.205,0.016,12.307c0.005,1.025,0.098,2.05,0.169,3.433c5.328,0,10.449-0.018,15.571,0.005
	C59.148,24.013,62.222,26.68,62.24,31.062z" class="color c1"/>
</svg>