<svg version="1.1" id="图层_1" x="0px" y="0px" width="107.047px" height="177.223px" viewBox="0 0 107.047 177.223" enable-background="new 0 0 107.047 177.223" xml:space="preserve" xmlns="http://www.w3.org/2000/svg" xmlns:xlink="http://www.w3.org/1999/xlink" xmlns:xml="http://www.w3.org/XML/1998/namespace">
  <path fill="#36A337" d="M54.456,102.559c4.119-2,8.368-3.965,12.07-5.639v0.016c0,0,0.002-0.002,0.003-0.002l-0.247-61.745
	C66.204,15.685,52.043-0.071,34.655,0.001l-3.313,0.012C13.954,0.084-0.078,15.951,0,35.458l0.028,6.934
	c1.771-3.871,5.31-11.171,9.509-17.474c0,0,0.306,9.272,10.064,16.693c0,0,7.188,5.865,9.417,6.731c0,0,14.556,9.16,17.09,19.643
	c0,0,4.938,10.149-1.456,20.596c0,0-19.364-8.832-35.037-39.798C9.614,48.783,19.656,86.467,54.456,102.559z M78.165,95.369
	c-3.121,1.244-7.209,2.953-11.621,4.908v-0.006c-0.008,0.002-0.016,0.004-0.021,0.004c-0.563,0.252-1.12,0.506-1.678,0.76
	c-7.178,3.223-14.973,7-20.766,10.439c-0.084,0.043-0.174,0.094-0.257,0.141c-9.468,5.215-17.36,13.387-21.149,19.514
	c-7.385,11.943-6.143,18.758-2.485,23.566c9.34,12.273,21.541,7.367,26.175,2.699c11.494-11.574,3.533-25.943,3.533-25.943
	c9.337,11.926,4.559,24.977-0.002,29.5c-6.396,6.348-14.146,7.59-19.33,6.299c-11.594-2.896-15.587-11.268-17.242-17.172
	c-5.734-20.465,25.287-38.799,25.287-38.799c1.906-1.389,4.848-3.092,8.273-4.902c-0.897-0.846-3.063-2.924-5.498-5.578
	c0,0-3.443-4.791-5.188-5.113c0,0-3.544-1.357-6.51-0.469c0,0-9.918,0.863-18.004-5.994c0,0-7.746-7.812-11.538-17.219l0.284,70.028
	c0.08,19.508,14.24,35.264,31.626,35.191l3.313-0.014c17.388-0.07,31.421-15.939,31.343-35.443l-0.146-36.391
	c12.175-4.248,32.467-10.822,40.484-35.336C107.047,70.039,97.43,87.685,78.165,95.369z" class="color c1"/>
</svg>