<svg version="1.1" id="图层_1" x="0px" y="0px" width="206.937px" height="181.674px" viewBox="0 0 206.937 181.674" enable-background="new 0 0 206.937 181.674" xml:space="preserve" xmlns="http://www.w3.org/2000/svg" xmlns:xlink="http://www.w3.org/1999/xlink" xmlns:xml="http://www.w3.org/XML/1998/namespace">
  <path fill="#96D411" d="M40.345,60.953c0.613-1.194,1.869-1.918,3.197-1.9c1.343,0.032,2.549,0.829,3.104,2.052l11.818,26.034
	h31.248c1.17,0,2.264,0.585,2.912,1.56l3.025,4.54l2.863-4.483c0.642-1.007,1.754-1.616,2.949-1.616h6.024l13.733-38.72
	c0.527-1.484,1.98-2.433,3.551-2.321c1.57,0.113,2.872,1.261,3.181,2.806l11.243,56.228l12.383-46.48
	c0.399-1.502,1.744-2.561,3.297-2.598c1.539-0.033,2.947,0.955,3.42,2.437l11.617,36.474l7.082-11.273
	c0.641-1.02,1.76-1.638,2.965-1.638h25.999c3.063-18.823-1.416-36.866-8.427-49.935C187.001,12.49,169.388,0.185,151.564,0.002
	C151.423,0.001,151.283,0,151.14,0c-12.744,0-30.916,5.897-47.67,32.692C86.529,5.599,68.132-0.108,55.376,0.002
	C37.552,0.185,19.939,12.49,9.41,32.116C1.769,46.359-2.869,66.509,1.992,87.139h24.912L40.345,60.953z" class="color c1"/>
  <path fill="#40A023" d="M171.83,105.07c-0.725,1.154-2.049,1.784-3.406,1.61c-1.352-0.172-2.48-1.111-2.894-2.41l-10.271-32.246
	l-13.168,49.428c-0.41,1.536-1.801,2.6-3.381,2.6c-0.037,0-0.074-0.001-0.111-0.002c-1.627-0.052-3.003-1.217-3.322-2.813
	L123.576,62.72l-10.318,29.089c-0.494,1.396-1.816,2.33-3.299,2.33h-6.578l-4.719,7.389c-0.637,0.997-1.732,1.604-2.916,1.616
	c-1.161,0.035-2.291-0.575-2.946-1.56l-4.961-7.445h-31.63c-1.373,0-2.619-0.803-3.187-2.054l-9.757-21.492L32.156,92.236
	c-0.6,1.168-1.801,1.902-3.113,1.902H4.016c1.92,5.597,4.579,11.184,8.13,16.654c16.765,25.828,46.134,48.768,89.785,70.127
	l1.539,0.754l1.539-0.754c43.65-21.359,73.02-44.299,89.785-70.127c4.626-7.128,7.751-14.454,9.675-21.741h-22.577L171.83,105.07z" class="color c2"/>
</svg>