<svg version="1.1" id="图层_1" x="0px" y="0px" width="210px" height="189.842px" viewBox="0 0 210 189.842" enable-background="new 0 0 210 189.842" xml:space="preserve" xmlns="http://www.w3.org/2000/svg" xmlns:xlink="http://www.w3.org/1999/xlink" xmlns:xml="http://www.w3.org/XML/1998/namespace">
  <path fill="#FF1D00" d="M196.39,170.383c-12.801,14.16-28.698,21.007-47.874,19.164c-19.11-1.837-33.36-11.654-43.484-27.87
	c-12.084,18.982-29.158,28.855-51.707,28.112c-18.086-0.596-32.425-10.217-39.938-19.714c20.465,17.613,50.661,9.449,61.425-12.576
	c10.05-20.564,0.544-45.558-20.73-54.081c-23.715-9.5-50.318,5.637-54.08,30.828c-0.095-14.776,4.735-27.725,14.765-38.628
	c10.009-10.88,22.559-16.727,37.366-18.041c-8.256-18.223-8.117-36.061,1.619-53.475C59.935,13.041,72.592,2.355,82.167,0
	C70.838,7.488,64.325,17.457,63.195,30.496c-1.137,13.119,3.361,24.234,13.152,33.02c16.281,14.61,41.61,12.82,55.992-3.752
	c15.357-17.696,12.216-46.226-9.061-59.537c24.789,8.165,46.264,42.529,29.593,77.124c20.115,0.318,36.205,8.389,47.69,24.948
	c6.634,9.566,9.675,20.321,9.425,32.021c-2.482-13.044-9.244-23.092-21.067-29.234c-11.807-6.134-23.965-6.214-35.888-0.32
	c-20.741,10.252-28.109,36.227-16.034,55.891C149.349,180.774,176.935,186.201,196.39,170.383z" class="color c1"/>
</svg>