<svg version="1.1" id="图层_1" x="0px" y="0px" width="83.649px" height="144.469px" viewBox="0 0 83.649 144.469" enable-background="new 0 0 83.649 144.469" xml:space="preserve" xmlns="http://www.w3.org/2000/svg" xmlns:xlink="http://www.w3.org/1999/xlink" xmlns:xml="http://www.w3.org/XML/1998/namespace">
  <path fill="#FFFFFF" d="M34.535,115.948L1.653,101.336l1.675-3.767l32.881,14.612L34.535,115.948z M25.209,84.763l3.904,1.735
	l6.896,3.064l1.676-3.766l-0.854-0.381L69.003,13.01l0,0l0,0l-5.602-2.486l-0.444-0.198l1.715-3.858l0.748,0.334l1.276-2.871
	l-0.748-0.334l0,0l-6.275-2.789L57.856,0l-1.274,2.873l0.75,0.333L55.62,7.064l-1.75-0.777l-10.27,23.111l-3.38,7.612L21.699,78.695
	l-0.853-0.381l-1.675,3.769l0.854,0.378L25.209,84.763z M70.709,132.104v-20.511c2.793-3.31,5.177-7.065,7.025-11.228
	c9.709-21.854,1.347-47.153-18.64-59.161l-4.518,10.167c14.442,9.45,20.326,28.236,13.093,44.522
	c-7.238,16.283-25.121,24.507-41.815,20.121c-1.851-0.485-3.686-1.124-5.487-1.925c-3.428-1.521-6.495-3.518-9.167-5.874
	l-4.634,10.434c2.826,2.144,5.943,4.002,9.328,5.503c1.791,0.797,3.61,1.471,5.441,2.03c11.535,3.507,23.624,2.326,33.955-2.657
	v8.57H0v12.373h83.649v-12.373h-12.94V132.104L70.709,132.104z" class="color c1"/>
</svg>