<svg version="1.1" id="图层_2" x="0px" y="0px" width="116.4px" height="180.2px" viewBox="0 0 116.4 180.2" enable-background="new 0 0 116.4 180.2" xml:space="preserve" xmlns:xml="http://www.w3.org/XML/1998/namespace" xmlns="http://www.w3.org/2000/svg" xmlns:xlink="http://www.w3.org/1999/xlink">
  <path fill="#CF121B" d="M50.6,0c2.1,1.4,3.9,2.3,5.4,3.5c27.8,22.1,46.5,50.5,56.5,84.4c5,16.7,5.1,33.7,0.2,50.5
	c-6.7,23-25.8,38.9-48.9,41.4c-27.2,2.9-50.9-11.9-59.7-37.9c-5.6-16.5-5.9-33.1,1.2-49.3C9.5,83,16,74.8,22.8,66.8
	c5.7-6.6,11.5-13.2,17.1-19.8c4.2-5,7.9-10.4,9.9-16.7c1.8-5.8,1.9-11.8,1.6-17.9C51.2,8.4,50.9,4.5,50.6,0z" class="color c1"/>
  <path fill="#F9F9F9" d="M53.4,159.6c-0.3,2.7-2.4,4.4-5.3,4.4c-0.3,0-0.6,0-0.6,0c-16.7-1.5-29.1-13.4-31.5-30.2
	c-0.3-1.8-0.3-3.6-0.3-5.4c0-2.8,1.9-4.7,4.4-4.8c2.7-0.1,4.6,1.6,4.9,4.5c0.3,2.5,0.3,5.1,0.9,7.5c2.4,10.2,11.2,17.7,21.3,18.5
	c0.6,0.1,1.3,0.2,1.9,0.3C52.1,154.9,53.7,156.8,53.4,159.6z" class="color c2"/>
</svg>