<svg version="1.1" id="图层_1" x="0px" y="0px" width="115.979px" height="185.179px" viewBox="0 0 115.979 185.179" enable-background="new 0 0 115.979 185.179" xml:space="preserve" xmlns:xml="http://www.w3.org/XML/1998/namespace" xmlns="http://www.w3.org/2000/svg" xmlns:xlink="http://www.w3.org/1999/xlink">
  <g>
    <path fill="#D12222" d="M8.562,106.281H0c3.019-4.875,6.243-8.724,8.87-11.656c3.313-3.662,6.135-6.383,8.459-8.562l3.102-2.841
		c0,0-10.619,21.103-11.299,22.154C8.933,105.681,8.753,105.979,8.562,106.281z M115.18,106.151l-0.073-0.468
		c-0.211-1.368-0.429-2.783-0.762-4.239l-0.528-2.412l-1.167-4.272c-0.244-0.8-0.499-1.57-0.762-2.323
		c-0.511-1.456-1.048-2.858-1.642-4.287l-0.013,0.006c-0.005-0.011-0.009-0.023-0.014-0.034C94.152,49.996,61.339,38.473,49.945,0
		c0.5,7.139,1.202,14.264,2.101,21.364C53.57,33.396,59.36,43.15,59.36,43.15l6.528,10.504h12.684h3v3V74.57
		c4.565,6.648,8.411,13.627,11.441,20.822c0.437,1.023,0.939,2.208,1.363,3.345c0.201,0.536,0.389,1.065,0.559,1.579l0.072,0.224
		l1,3.408c0.135,0.579,0.28,1.157,0.442,1.775c0.255,0.893,0.457,1.885,0.67,2.935l0.12,0.585c0.166,0.701,0.27,1.433,0.38,2.207
		c0.066,0.467,0.134,0.935,0.203,1.328c0.114,0.859,0.203,1.722,0.292,2.586l0.111,1.036c0.139,2.346,0.243,4.862,0.066,7.396
		c-0.47,9.669-3.865,19.484-9.809,28.37c-1.233,1.808-2.875,3.832-4.598,5.674c-0.73,0.754-1.507,1.491-2.312,2.212v0.041
		c-1.023,0.915-2.096,1.802-3.216,2.644c-1.911,1.393-3.989,2.659-6.328,3.859c-2.076,1.031-4.357,1.955-6.935,2.811
		c-4.859,1.503-10.018,2.425-14.915,2.665c-2.5,0.119-4.98,0.06-7.357-0.178l-0.892-0.102l-0.034,0.025l0.003-0.024l-0.457-0.06
		c-0.039-0.005-0.076-0.009-0.113-0.013l-1.422-0.216l-0.005,0.004l-0.637-0.122c-1.421-0.267-2.24-0.437-3.645-0.798l-0.125-0.028
		l0.001-0.003l-0.004,0.002l-1.965-0.574c-0.18-0.052-0.359-0.103-0.497-0.148l-0.899-0.311c-0.566-0.18-1.152-0.401-1.751-0.634
		v-0.01c-0.355-0.138-0.709-0.277-1.078-0.424l-0.442-0.176c-2.353-1.022-4.424-2.079-6.32-3.223
		c-3.062-1.87-5.878-4.014-8.429-6.406H0.248c0.163,0.236,0.326,0.475,0.487,0.706l0.588,0.848c0,0,0.509,0.67,0.728,0.962
		c0.577,0.764,1.172,1.555,1.807,2.275c6.838,8.25,16.203,14.7,26.521,18.315v-0.054l0.41,0.294c1.22,0.393,4.582,1.302,5.834,1.592
		l4.581,0.892c2.999,0.455,6.112,0.69,9.252,0.697c0.081,0,0.161,0,0.242,0c5.88,0,12.028-0.832,18.316-2.484
		c3.335-0.95,6.303-2.014,9.094-3.26c3.095-1.422,5.986-3.025,8.611-4.779c2.781-1.905,5.376-4,7.737-6.251
		c2.599-2.562,4.7-4.957,6.618-7.544c7.877-10.754,12.981-23.366,14.367-35.496C116.237,118.886,116.149,112.422,115.18,106.151z" class="color c1"/>
  </g>
</svg>