<svg version="1.1" id="图层_1" x="0px" y="0px" width="114.643px" height="113.098px" viewBox="0 0 114.643 113.098" enable-background="new 0 0 114.643 113.098" xml:space="preserve" xmlns="http://www.w3.org/2000/svg" xmlns:xlink="http://www.w3.org/1999/xlink" xmlns:xml="http://www.w3.org/XML/1998/namespace">
  <path fill="#4C4C4E" d="M114.624,54.692c-0.005-0.156-0.014-0.314-0.021-0.474c-0.01-0.329-0.021-0.659-0.038-0.987
	c-0.009-0.187-0.022-0.373-0.035-0.559c-0.018-0.298-0.033-0.596-0.059-0.894c-0.015-0.197-0.034-0.395-0.053-0.593
	c-0.024-0.283-0.048-0.566-0.077-0.85c-0.021-0.202-0.046-0.403-0.069-0.605c-0.03-0.274-0.061-0.552-0.096-0.824
	c-0.027-0.203-0.058-0.405-0.086-0.608c-0.038-0.271-0.074-0.543-0.117-0.813c-0.031-0.2-0.065-0.4-0.1-0.603
	c-0.045-0.27-0.089-0.539-0.139-0.807c-0.035-0.2-0.075-0.398-0.114-0.598c-0.052-0.267-0.104-0.534-0.157-0.801
	c-0.04-0.197-0.084-0.394-0.128-0.591c-0.06-0.267-0.116-0.53-0.178-0.795c-0.046-0.194-0.096-0.388-0.144-0.58
	c-0.063-0.267-0.13-0.53-0.198-0.794c-0.05-0.19-0.103-0.379-0.153-0.567c-0.072-0.266-0.145-0.53-0.222-0.794
	c-0.053-0.185-0.109-0.369-0.165-0.555c-0.08-0.266-0.157-0.529-0.241-0.792c-0.059-0.183-0.116-0.361-0.177-0.542
	c-0.087-0.265-0.175-0.529-0.264-0.792c-0.062-0.177-0.124-0.353-0.188-0.527c-0.095-0.265-0.188-0.528-0.287-0.792
	c-0.063-0.171-0.129-0.341-0.194-0.512c-0.103-0.267-0.205-0.53-0.311-0.793c-0.065-0.166-0.135-0.331-0.202-0.495
	c-0.109-0.266-0.222-0.531-0.334-0.794c-0.069-0.161-0.14-0.32-0.21-0.48c-0.118-0.266-0.236-0.528-0.357-0.794
	c-0.072-0.153-0.144-0.309-0.217-0.463c-0.126-0.266-0.253-0.531-0.383-0.796c-0.073-0.146-0.146-0.296-0.222-0.443
	c-0.134-0.268-0.271-0.532-0.407-0.797c-0.075-0.144-0.149-0.285-0.228-0.429c-0.142-0.266-0.287-0.531-0.433-0.796
	c-0.075-0.137-0.152-0.272-0.229-0.409c-0.151-0.268-0.306-0.533-0.462-0.799c-0.076-0.13-0.153-0.259-0.229-0.389
	c-0.161-0.27-0.324-0.535-0.489-0.802c-0.076-0.123-0.153-0.247-0.229-0.368c-0.171-0.271-0.345-0.537-0.519-0.805
	c-0.077-0.116-0.152-0.23-0.229-0.347c-0.181-0.271-0.364-0.54-0.549-0.807c-0.075-0.109-0.149-0.219-0.227-0.325
	c-0.191-0.271-0.386-0.542-0.582-0.813c-0.072-0.1-0.146-0.2-0.219-0.3c-0.202-0.274-0.409-0.547-0.617-0.816
	c-0.07-0.092-0.14-0.184-0.21-0.273c-0.216-0.277-0.436-0.552-0.655-0.824c-0.066-0.082-0.131-0.165-0.198-0.247
	c-0.229-0.28-0.462-0.558-0.696-0.834c-0.062-0.072-0.12-0.145-0.183-0.215c-0.246-0.286-0.495-0.569-0.747-0.851
	c-0.053-0.06-0.104-0.118-0.155-0.178c-0.265-0.294-0.533-0.583-0.805-0.87c-0.042-0.045-0.083-0.092-0.125-0.136
	c-0.287-0.304-0.579-0.603-0.872-0.898c-0.026-0.027-0.055-0.056-0.081-0.083c-0.314-0.317-0.636-0.632-0.958-0.94
	c-0.005-0.007-0.011-0.012-0.017-0.017C87.256,5.946,73.562,0,58.479,0C27.46,0,2.316,25.145,2.316,56.163
	c0,10.261,2.753,19.88,7.562,28.156L0,113.098l31.786-7.509c7.938,4.296,17.03,6.737,26.692,6.737
	c31.019,0,56.163-25.146,56.163-56.163C114.643,55.671,114.636,55.182,114.624,54.692z M58.479,104.027
	c-13.636,0-25.927-5.75-34.587-14.954C15.899,80.575,11,69.136,11,56.549C11,30.327,32.258,9.07,58.479,9.07
	c12.587,0,24.026,4.899,32.524,12.894c8.396,7.897,13.917,18.818,14.823,31.022c0.087,1.177,0.131,2.364,0.131,3.563
	C105.958,82.771,84.7,104.027,58.479,104.027z" class="color c1"/>
</svg>