<svg version="1.1" id="图层_1" x="0px" y="0px" width="87.982px" height="87.988px" viewBox="0 0 87.982 87.988" enable-background="new 0 0 87.982 87.988" xml:space="preserve" xmlns:xml="http://www.w3.org/XML/1998/namespace" xmlns="http://www.w3.org/2000/svg" xmlns:xlink="http://www.w3.org/1999/xlink">
  <path fill="#070707" d="M73.726,0.667c-0.838-0.838-2.173-0.893-3.106-0.128l-0.173,0.157l0.008,0.01
	c-0.767,0.933-0.712,2.268,0.126,3.106l2.541,2.541l-3.979,3.979l-6.355,6.356l-5.265-5.266c-0.189-0.188-0.404-0.333-0.633-0.441
	c-0.774-0.371-1.716-0.286-2.417,0.287l-0.097,0.078L54.3,11.442c-0.572,0.703-0.657,1.642-0.286,2.417
	c0.108,0.229,0.253,0.445,0.441,0.634l2.207,2.206l-38.67,38.67c-0.888,0.889-0.888,2.334,0,3.223l3.333,3.333
	c-0.07,0.057-0.144,0.105-0.209,0.172l-7.67,7.67c-0.862,0.86-0.88,2.242-0.07,3.136l-1.374,1.374L0,86.284l1.705,1.704
	L13.707,75.98l1.373-1.374c0.894,0.811,2.275,0.793,3.138-0.07l7.671-7.67c0.064-0.064,0.114-0.138,0.17-0.208l3.333,3.334
	c0.889,0.888,2.334,0.888,3.222-0.001l38.671-38.669l2.206,2.206c0.715,0.714,1.783,0.859,2.646,0.416
	c0.14-0.072,0.276-0.156,0.403-0.26l0.097-0.078l0.076-0.095c0.104-0.128,0.188-0.265,0.262-0.405
	c0.441-0.863,0.297-1.933-0.416-2.646l-5.265-5.264l6.356-6.355l3.979-3.979l2.541,2.541c0.84,0.838,2.176,0.893,3.106,0.126
	l0.091-0.074l0.075-0.092c0.766-0.932,0.711-2.268-0.126-3.106L73.726,0.667z M69.58,29.617l-5.805,5.805l-5.156-5.154
	c-0.47-0.473-1.232-0.473-1.705,0c-0.471,0.471-0.471,1.232,0,1.705l5.155,5.155l-4.735,4.735l-1.745-1.746
	c-0.472-0.471-1.234-0.471-1.706,0c-0.471,0.472-0.471,1.233,0.001,1.705l1.744,1.745l-4.546,4.547l-5.154-5.155
	c-0.472-0.472-1.233-0.471-1.705,0c-0.473,0.473-0.473,1.234,0,1.705l5.153,5.156l-4.546,4.545l-1.746-1.746
	c-0.469-0.47-1.232-0.47-1.705,0c-0.47,0.471-0.47,1.234,0,1.706l1.746,1.744L38.2,60.994l-5.155-5.155
	c-0.471-0.471-1.233-0.471-1.705,0c-0.471,0.473-0.471,1.233,0,1.705l5.155,5.154L31,68.193L19.791,56.981l38.577-38.577
	L69.58,29.617z" class="color c1"/>
  <path fill="#67DBB4" d="M55.59,40.117l1.745,1.746l2.334-2.335c-2.364-1.67-4.337-4.473-4.998-8.312
	c-0.415-2.401-2.02-4.113-3.808-5.309L19.791,56.981l11.212,11.212l5.495-5.495l-5.155-5.154c-0.471-0.472-0.471-1.232,0-1.705
	c0.472-0.471,1.234-0.471,1.705,0l5.155,5.155l4.925-4.925l-1.746-1.744c-0.47-0.472-0.47-1.235,0-1.706
	c0.473-0.47,1.235-0.47,1.705,0l1.746,1.746l4.546-4.545l-5.153-5.156c-0.473-0.471-0.473-1.232,0-1.705
	c0.472-0.471,1.233-0.472,1.705,0l5.154,5.155l4.546-4.547l-1.743-1.745c-0.473-0.471-0.473-1.233-0.001-1.705
	C54.354,39.646,55.118,39.646,55.59,40.117z" class="color c2"/>
</svg>