<svg version="1.1" id="图层_1" x="0px" y="0px" width="249.193px" height="116.171px" viewBox="0 0 249.193 116.171" enable-background="new 0 0 249.193 116.171" xml:space="preserve" xmlns="http://www.w3.org/2000/svg" xmlns:xlink="http://www.w3.org/1999/xlink" xmlns:xml="http://www.w3.org/XML/1998/namespace">
  <path fill="#FFFFFF" d="M241.6,82.72c-2.616,0-4.921,1.32-6.289,3.333h-30.379v0.015h-23.061V58.61v-5.334v-1.109V47.47V29.032
	v-4.93c0-2.494-1.854-4.549-4.259-4.878v-0.052h-0.672h-14.953h-12.988c-2.721,0-4.93,2.207-4.93,4.93v50.809v2.61l0.06,28.788
	h-18.258v-5.805v-4.578v-9.859v-5.807V59.682v-5.334V48.54v-9.103v-5.333v-4.002v-1.806v-3.124V9.858v-4.93
	c0-2.471-1.819-4.51-4.192-4.869V0h-0.196h-0.543h-14.952H92.869c-2.723,0-4.931,2.206-4.931,4.929l0.197,61.885v2.61h-3.487h-0.196
	h-1.977h-9.513h-3.016L69.75,24.103c0-2.723-2.206-4.93-4.931-4.93h-4.397H44.664h-7.896c-2.723,0-4.929,2.207-4.929,4.93v61.965
	H13.759c-1.379-1.918-3.624-3.172-6.165-3.172c-4.194,0-7.594,3.4-7.594,7.596c0,4.193,3.399,7.594,7.594,7.594
	c2.062,0,3.929-0.824,5.297-2.158H31.84h1.192h3.736c2.722,0,4.928-2.207,4.928-4.93V29.032h2.968h15.227l0.198,45.319
	c0,2.724,2.205,4.931,4.929,4.931h4.93h3.016h9.513h1.977h0.196h3.487h4.199h0.731c2.724,0,4.931-2.207,4.931-4.931v-4.928v-2.61
	L97.801,9.858h8.187h10.024v19.316v0.928v3.123v0.404v4.931v0.472v0.405v4.931v5.051v4.052v0.403v4.475v0.457v0.473v0.403v4.929
	v13.982v1.668v4.93v0.877v4.93v9.508v4.929v0.876v4.931c0,2.725,2.207,4.931,4.928,4.931h8.016h0.132h9.383h5.659h1.156h3.042h0.732
	c2.724,0,4.931-2.206,4.931-4.931v-3.167v-1.763v-2.608v-45.88l-0.061-9.858V29.032h8.058h10.024v18.932v0.383v4.053v0.404v4.93
	v0.089h0.057v19.314v4.054v0.404v4.928v0.475V87.4v4.104c0.256,2.484,2.355,4.422,4.905,4.422h3.643h0.094h1.161h18.23h4.93
	c0.094,0,0.179-0.008,0.267-0.014h28.199h2.986c1.349,1.234,3.142,1.993,5.116,1.993c4.191,0,7.594-3.399,7.594-7.595
	C249.193,86.118,245.791,82.72,241.6,82.72z" class="color c1"/>
</svg>