<svg version="1.1" id="图层_1" x="0px" y="0px" width="94.9px" height="110.5px" viewBox="0 0 94.9 110.5" enable-background="new 0 0 94.9 110.5" xml:space="preserve" xmlns="http://www.w3.org/2000/svg" xmlns:xlink="http://www.w3.org/1999/xlink" xmlns:xml="http://www.w3.org/XML/1998/namespace">
  <path fill="#FFFFFF" d="M63.4,69.8c3.9-5.8,7-13.3,9.1-20.6c2-0.9,4.1-3.8,5.1-7.7c1.3-4.8,0.4-9.2-1.9-10.2c0.1-1,0.1-2,0.1-2.9
	c0-10.1-3.7-17.5-9.5-22.2V0h-19C31.7,0,19,9.5,19,28.4c0,0.9,0,1.9,0.1,2.9c-2.3,1-3.2,5.3-1.9,10.2c1,3.8,3.1,6.8,5.1,7.7
	c2.1,7.4,5.1,14.8,9.1,20.6l-3,6L0,90.1c0.4,0.4,0.8,0.8,1.2,1.2c25.6,25.6,67,25.6,92.6,0c0.4-0.4,0.8-0.8,1.2-1.2L66.4,75.8
	L63.4,69.8z" class="color c1"/>
</svg>