<svg version="1.1" id="图层_1" x="0px" y="0px" width="61.582px" height="61.582px" viewBox="0 0 61.582 61.582" enable-background="new 0 0 61.582 61.582" xml:space="preserve" xmlns="http://www.w3.org/2000/svg" xmlns:xlink="http://www.w3.org/1999/xlink" xmlns:xml="http://www.w3.org/XML/1998/namespace">
  <path fill="#F975AB" d="M54.184,22.53H39.053V7.398C39.053,3.313,35.74,0,31.654,0H29.93c-4.088,0-7.4,3.313-7.4,7.398V22.53H7.398
	C3.313,22.53,0,25.843,0,29.929v1.725c0,4.086,3.313,7.398,7.398,7.398h15.131v15.132c0,4.086,3.313,7.398,7.4,7.398h1.725
	c4.086,0,7.398-3.313,7.398-7.398V39.052h15.131c4.086,0,7.398-3.313,7.398-7.398v-1.725C61.582,25.843,58.27,22.53,54.184,22.53z" class="color c1"/>
</svg>