<svg version="1.1" id="图层_1" x="0px" y="0px" width="188.513px" height="177.533px" viewBox="0 0 188.513 177.533" enable-background="new 0 0 188.513 177.533" xml:space="preserve" xmlns="http://www.w3.org/2000/svg" xmlns:xlink="http://www.w3.org/1999/xlink" xmlns:xml="http://www.w3.org/XML/1998/namespace">
  <path fill="#F63F00" d="M179.848,65.096L115.176,7.692c-11.553-10.256-30.287-10.256-41.839,0L8.665,65.096
	c-11.553,10.255-11.553,26.884,0,37.14l84.102,74.654c-8.582-7.945-36.123-37.271-46.681-52.289
	c-9.462-13.459-16.606-25.883-13.521-41.489c4.169-21.116,30.573-30.675,49.673-18.371c4.505,2.903,8.122,6.986,12.019,10.478
	c3.9-3.492,7.516-7.574,12.02-10.478c19.105-12.305,45.504-2.746,49.674,18.371c3.088,15.606-2.094,29.29-13.521,41.489
	c-10.764,11.483-39.775,45.848-47.406,52.932l84.826-75.297C191.4,91.98,191.4,75.352,179.848,65.096z" class="color c1"/>
</svg>