<svg version="1.1" id="图层_1" x="0px" y="0px" width="147.62px" height="180px" viewBox="0 0 147.62 180" enable-background="new 0 0 147.62 180" xml:space="preserve" xmlns="http://www.w3.org/2000/svg" xmlns:xlink="http://www.w3.org/1999/xlink" xmlns:xml="http://www.w3.org/XML/1998/namespace">
  <path fill="#A6D4F4" d="M142.297,66.244c0.037-0.132,0.056-0.296,0.06-0.516l0.132-0.755c1.746-5.163,2.631-10.594,2.631-16.143
	c0-25.546-18.929-46.33-42.197-46.33c-10.021,0-19.754,3.941-27.406,11.098l-1.708,1.597l-1.708-1.597
	C64.451,6.441,54.717,2.5,44.694,2.5C21.428,2.5,2.5,23.284,2.5,48.831c0,5.558,0.885,10.993,2.629,16.154l0.13,0.708
	c0.007,0.192,0.028,0.352,0.063,0.476c2.056,7.324,4.212,12.518,6.114,17.101c1.743,4.196,3.389,8.159,4.833,13.326
	c3.602,12.858,3.179,26.847,2.806,39.189l-0.041,1.345c-0.13,4.363-0.243,8.132-0.167,10.79c0.35,12.353,7.95,29.582,19.531,29.582
	c6.186,0,10.913-9.056,16.386-19.542c6.183-11.846,11.775-21.651,17.592-21.651h2.866c5.812,0,11.403,9.804,17.587,21.648
	c5.477,10.487,10.206,19.544,16.391,19.544c11.578,0,19.177-17.047,19.528-29.268c0.077-2.646-0.034-6.413-0.164-10.775
	l-0.042-1.413c-0.373-12.397-0.795-26.442,2.803-39.295c1.444-5.16,3.09-9.137,4.832-13.347
	C138.083,78.79,140.244,73.561,142.297,66.244z" class="color c1"/>
  <path fill="#FFFFFF" d="M117.002,144.609c-0.388-13.048-0.958-27.463,2.759-41.676c3.883-12.853,13.775-38.725,13.775-47.103
	c0-21.916-15.975-39.746-35.612-39.746c-9.633,0-18.99,4.448-25.672,12.203c-0.863,1.001-2.12,1.577-3.441,1.577
	s-2.578-0.576-3.441-1.577c-6.682-7.754-16.041-12.203-25.674-12.203c-19.636,0-35.61,17.831-35.61,39.747
	c0,8.383,2.31,16.401,6.682,23.182c0.707,1.155,13.981,40.403,9.85,65.311c-0.698,4.208-0.237,7.946-0.166,10.407
	c0.258,9.122,5.935,23.185,12.949,23.185c2.461-0.509,7.524-10.208,10.548-16.003c6.466-12.383,13.15-25.189,23.43-25.189h2.866
	c10.273,0,16.959,12.803,23.424,25.185c3.027,5.796,8.092,15.497,10.606,16.011c6.96-0.004,12.636-13.88,12.895-22.878
	C117.239,152.581,117.13,148.887,117.002,144.609z" class="color c2"/>
  <path fill="#003469" d="M102.923,0C92.238,0,81.864,4.239,73.81,11.771C65.756,4.239,55.382,0,44.694,0C20.05,0,0,21.905,0,48.831
	c0,5.865,0.947,11.588,2.761,16.955c0.013,0.351,0.055,0.705,0.155,1.059C5.012,74.312,7.199,79.58,9.129,84.23
	c1.714,4.128,3.333,8.028,4.732,13.037c3.626,12.946,3.054,27.05,2.674,39.786c-0.131,4.407-0.245,8.211-0.167,10.937
	C16.74,161.072,24.796,180,38.399,180c7.7,0,12.752-9.678,18.603-20.884c4.221-8.086,10.601-20.308,15.375-20.308h2.866
	c4.769,0,11.149,12.22,15.371,20.306C96.466,170.32,101.521,180,109.221,180c13.596,0,21.655-18.742,22.027-31.696
	c0.08-2.727-0.034-6.545-0.166-10.965c-0.379-12.787-0.954-26.968,2.67-39.915c1.401-5.005,3.02-8.92,4.734-13.065
	c1.931-4.673,4.121-9.967,6.217-17.438c0.107-0.383,0.146-0.766,0.153-1.146c1.819-5.377,2.763-11.091,2.763-16.943
	C147.62,21.905,127.57,0,102.923,0z M131.799,72.104c-0.651,1.065-16.267,26.262-45.245,43.647
	c-2.151,1.291-2.849,4.081-1.558,6.232c0.85,1.42,2.356,2.206,3.899,2.206c0.795,0,1.6-0.209,2.332-0.647
	c14.354-8.612,25.542-18.881,33.534-27.608c-3.717,14.213-3.146,28.628-2.759,41.676c0.128,4.278,0.237,7.972,0.166,10.433
	c-0.259,8.998-5.935,22.874-12.895,22.878c-2.514-0.514-7.579-10.215-10.606-16.011c-6.465-12.382-13.15-25.185-23.424-25.185
	h-2.866c-10.279,0-16.963,12.806-23.43,25.189c-3.024,5.795-8.087,15.494-10.548,16.003c-7.014,0-12.691-14.063-12.949-23.185
	c-0.071-2.461,0.038-6.143,0.166-10.407c0.385-12.939,0.95-27.163-2.714-41.355c7.998,8.73,19.173,18.98,33.491,27.572
	c2.151,1.291,4.941,0.595,6.231-1.557c1.291-2.152,0.594-4.941-1.558-6.232C32.12,98.38,16.473,73.167,15.766,72.013
	c-4.372-6.781-6.682-14.798-6.682-23.182c0-21.917,15.974-39.747,35.61-39.747c9.634,0,18.993,4.448,25.674,12.203
	c0.863,1.001,2.12,1.577,3.441,1.577s2.578-0.576,3.441-1.577c6.682-7.754,16.039-12.203,25.672-12.203
	c19.638,0,35.612,17.83,35.612,39.746C138.536,57.208,136.225,65.224,131.799,72.104z" class="color c3"/>
</svg>