<svg version="1.1" id="图层_1" x="0px" y="0px" width="200px" height="173.002px" viewBox="0 0 200 173.002" enable-background="new 0 0 200 173.002" xml:space="preserve" xmlns="http://www.w3.org/2000/svg" xmlns:xlink="http://www.w3.org/1999/xlink" xmlns:xml="http://www.w3.org/XML/1998/namespace">
  <path fill="#E00011" d="M200,60.182c0,3.628-0.446,7.27-1.261,10.908c-0.524,2.345-2.583,4.031-4.984,4.114l-17.931,0.626
	c-1.183,0.04-2.229,0.791-2.649,1.902l-0.144,0.385c-1.707,4.565-8.153,4.599-9.906,0.05l-4.655-12.079
	c-0.436-1.115-1.511-1.862-2.713-1.878c-0.008,0-0.021,0-0.028,0c-1.19,0-2.27,0.723-2.718,1.829l-3.615,8.88
	c-2.026,4.975-9.314,4.125-10.143-1.182L131.7,25.288c-0.223-1.434-1.45-2.485-2.896-2.485c-0.017,0-0.04,0-0.06,0
	c-1.476,0.032-2.689,1.147-2.857,2.609l-5.484,48.259c-0.7,6.164-9.604,6.31-10.506,0.171l-0.749-5.101
	c-0.2-1.379-1.347-2.426-2.741-2.502c-1.391-0.04-2.65,0.831-3.001,2.178l-2.876,10.892c-1.362,5.158-8.635,5.296-10.19,0.193
	l-6.031-19.776c-0.375-1.234-1.514-2.077-2.809-2.077c-1.291,0-2.43,0.843-2.806,2.077l-6.3,20.539
	c-0.683,2.226-2.737,3.745-5.065,3.745H9.175c-2.186,0-4.141-1.345-4.941-3.378C1.555,73.843,0,66.987,0,60.182
	C0,30.807,11.756,11.511,32.831,4.165c28.206-9.822,50.682,15.002,59.723,27.272c2.132,2.894,6.451,2.891,8.555-0.023
	c9.242-12.811,32.715-39.485,61.969-29.043C185.979,10.547,200,28.865,200,60.182z M187.041,81.313l-5.512,0.191
	c-2.142,0.074-4.028,1.433-4.778,3.44l-5.81,15.552c-0.432,1.143-1.515,1.898-2.737,1.906c-0.004,0-0.012,0-0.016,0
	c-1.211,0-2.302-0.743-2.733-1.878l-4.991-12.938c-1.728-4.477-8.041-4.535-9.851-0.09l-6.969,17.116
	c-0.499,1.223-1.742,1.974-3.061,1.81c-1.312-0.151-2.362-1.158-2.565-2.469l-2.703-17.35c-0.951-6.104-9.802-5.92-10.499,0.217
	l-5.724,50.344c-0.164,1.47-1.395,2.585-2.869,2.609c-0.016,0-0.027,0-0.048,0c-1.454,0-2.693-1.071-2.9-2.514l-4.094-27.877
	c-0.837-5.703-8.893-6.156-10.364-0.583c-0.34,1.267-1.471,2.162-2.785,2.19c-1.274,0.04-2.481-0.828-2.861-2.086l-6.623-21.704
	c-1.525-4.999-8.602-5.003-10.133-0.005l-0.187,0.609c-0.384,1.231-1.523,2.074-2.81,2.074H17.932c-4.229,0-6.756,4.708-4.419,8.23
	c23.761,35.816,71.714,66.715,83.716,74.105c1.701,1.047,3.843,1.048,5.544,0.001c13.004-8.003,68.204-43.577,89.135-83.121
	C193.814,85.491,191.116,81.171,187.041,81.313z" class="color c1"/>
</svg>