<svg version="1.1" id="图层_1" x="0px" y="0px" width="150.496px" height="146.043px" viewBox="0 0 150.496 146.043" enable-background="new 0 0 150.496 146.043" xml:space="preserve" xmlns="http://www.w3.org/2000/svg" xmlns:xlink="http://www.w3.org/1999/xlink" xmlns:xml="http://www.w3.org/XML/1998/namespace">
  <path fill="#5B0507" d="M145.988,119.744c-12.377-3.045-20.135-17.57-21.963-21.355c9.72-10.508,18.304-22.332,22.744-34.352
	c6.172-16.709,4.641-32.996-4.32-45.854C134.521,6.796,121.868,0,108.611,0C95.466,0,83.766,6.519,75.257,18.475
	C66.984,6.637,55.396,0.178,42.217,0.178c-13.444,0-26.245,6.861-34.251,18.35C-0.895,31.252-2.42,47.346,3.674,63.842
	c12.644,34.227,59.202,67.199,69.561,71.859c0.074,0.064,0.149,0.131,0.23,0.186c0.512,0.383,1.127,0.58,1.751,0.58
	c0.289,0,0.58-0.045,0.86-0.129c2.787-0.859,11.447-6.125,21.902-14.248c8.513,18.533,26.02,23.627,26.795,23.846
	c0.264,0.072,0.527,0.107,0.789,0.107c0.789,0,1.56-0.318,2.121-0.9l19.724-20.504c0.728-0.762,1-1.85,0.704-2.858
	C147.818,120.77,147.012,119.992,145.988,119.744z M137.621,21.547c7.826,11.234,9.111,25.602,3.626,40.451
	c-4.343,11.758-12.817,23.207-22.323,33.287c-6.326-0.658-13.418-3.313-20.839-7.26c7.679-8.709,34.12-40.711,36.024-70.786
	C135.366,18.575,136.547,20.006,137.621,21.547z M128.695,12.479c-0.225,0.413-0.359,0.879-0.359,1.385
	c0,29.805-29.49,64.45-35.506,71.2c-6.587-3.94-13.354-8.746-20.002-13.979c6.229-7.129,24.311-30.35,28.15-63.461
	c0.035-0.273,0.014-0.539-0.029-0.797c2.482-0.613,5.035-0.948,7.658-0.948C115.807,5.883,122.797,8.248,128.695,12.479z
	 M72.685,25.375c0.523,0.9,1.484,1.455,2.524,1.461c1.014-0.08,2.005-0.537,2.54-1.43c4.586-7.657,10.446-13.211,17.104-16.396
	c-1.719,12.537-5.623,23.6-10.011,32.717C70.934,33.434,52.35,13.752,45.507,6.248C56.517,7.357,66.083,14.041,72.685,25.375z
	 M37.948,6.346c0.118,0.282,0.246,0.563,0.459,0.804c1.069,1.22,25.625,29.164,43.753,39.83
	c-5.508,10.154-11.204,17.254-13.941,20.412C42.68,46.473,19.89,20.961,16.631,17.264C22.399,11.318,30.011,7.397,37.948,6.346z
	 M12.794,21.893c0.011-0.014,0.019-0.027,0.028-0.039c8.541,9.668,63.437,70.398,101.075,78.555
	c-4.994,4.893-10.109,9.379-14.949,13.313C59.018,103.096,8.583,45.238,5.966,42.209C6.335,34.813,8.612,27.896,12.794,21.893z
	 M75.423,130.238c-7.361-3.484-53.817-34.844-66.227-68.437C7.932,58.38,7.05,54.986,6.51,51.646
	c5.534,6.055,15.106,16.135,26.677,26.674c22.846,20.807,43.042,34.172,60.125,39.844C85.029,124.486,78.227,128.813,75.423,130.238
	z M124.747,139.705c-4.312-1.674-16.188-7.418-22.009-21.41c5.529-4.527,11.355-9.727,16.966-15.395
	c2.848,5.367,9.651,16.207,20.28,20.963L124.747,139.705z" class="color c1"/>
</svg>