<svg version="1.1" id="图层_1" x="0px" y="0px" width="142.977px" height="114.375px" viewBox="0 0 142.977 114.375" enable-background="new 0 0 142.977 114.375" xml:space="preserve" xmlns="http://www.w3.org/2000/svg" xmlns:xlink="http://www.w3.org/1999/xlink" xmlns:xml="http://www.w3.org/XML/1998/namespace">
  <path fill="#020202" d="M142.975,32.78v-3.45c0.001-3.699-3.448-6.911-7.396-6.911h-8.383h-0.245H109.94h-1.231V3.685V0h-4.187
	H36.236h-4.435v3.685v18.734H31.31H16.763H10.36H7.396C3.456,22.419,0,25.631,0,29.33v3.44l142.234,0.01
	C142.482,32.78,142.728,32.78,142.975,32.78z M100.08,20.447H40.431V7.15h59.649V20.447z M142.977,40.659v66.81
	c0,3.695-3.448,6.906-7.396,6.906H7.396c-3.939,0-7.396-3.211-7.396-6.906V40.656v-0.002l141.251,0.006
	C142.235,40.66,142.713,40.659,142.977,40.659z" class="color c1"/>
</svg>