<svg version="1.1" id="图层_1" x="0px" y="0px" width="95.512px" height="74.752px" viewBox="0 0 95.512 74.752" enable-background="new 0 0 95.512 74.752" xml:space="preserve" xmlns="http://www.w3.org/2000/svg" xmlns:xlink="http://www.w3.org/1999/xlink" xmlns:xml="http://www.w3.org/XML/1998/namespace">
  <path fill="#000111" d="M47.814,70.604c-3.874,0-7.748,0.017-11.621-0.005c-3.496-0.02-6.355-2.165-7.088-5.308
	c-0.135-0.577-0.158-1.189-0.162-1.785c-0.017-2.455-0.005-4.91-0.008-7.365c-0.002-1.843-0.877-2.756-2.733-2.83
	c-2.096-0.084-3.865-0.879-5.267-2.434c-1.794-1.99-1.885-4.791-0.223-6.895c0.489-0.619,1.046-1.186,1.603-1.747
	c1.057-1.064,1.312-2.217,0.708-3.644c-1.529-3.61-2.209-7.398-2.171-11.319c0.118-11.9,8.073-22.844,19.487-26.087
	c10.802-3.069,20.14-0.114,27.593,8.22c5.201,5.816,7.377,12.823,6.892,20.612c-0.186,2.984-0.971,5.851-2.048,8.636
	c-0.665,1.721-0.392,2.795,1.003,3.997c2.067,1.781,2.816,4.137,2.046,6.437c-0.778,2.324-3.157,4.074-5.722,4.206
	c-0.327,0.017-0.656,0.002-0.981,0.029c-1.516,0.123-2.382,1.04-2.388,2.558c-0.011,2.482-0.085,4.968,0.014,7.447
	c0.173,4.302-3.162,7.264-7.231,7.275C55.616,70.612,51.715,70.604,47.814,70.604z M45.378,24.817
	c-0.115-1.711-0.841-2.768-2.434-3.296c-0.512-0.17-1.056-0.295-1.593-0.328c-4.013-0.249-7.805,0.7-11.392,2.391
	c-2.763,1.303-4.332,4.391-3.968,7.287c0.762,6.064,7.301,8.867,12.172,5.168c2.922-2.219,5.071-5.086,6.454-8.49
	C44.971,26.68,45.13,25.73,45.378,24.817z M55.469,21.112c-0.463,0.028-1.065,0.029-1.659,0.105
	c-2.815,0.357-4.093,2.073-3.368,4.799c1.154,4.336,3.817,7.693,7.372,10.299c3.597,2.636,8.528,1.463,10.73-2.389
	c2.224-3.889,0.719-8.725-3.374-10.548C62.139,22.026,58.94,21.258,55.469,21.112z M46.354,59.665c-0.927,0-1.757,0-2.69,0
	c0-0.637,0.022-1.23-0.005-1.821c-0.039-0.833-0.477-1.271-1.197-1.25c-0.692,0.02-1.149,0.515-1.172,1.304
	c-0.017,0.589-0.003,1.179-0.003,1.753c-0.947,0-1.778,0-2.669,0c0-0.331,0-0.599,0-0.868c0-0.3,0.012-0.601-0.005-0.9
	c-0.046-0.841-0.455-1.287-1.169-1.291c-0.722-0.004-1.198,0.508-1.222,1.344c-0.016,0.565-0.003,1.132-0.003,1.778
	c-0.434,0-0.782-0.001-1.129,0c-1.215,0.005-1.676,0.328-1.677,1.176c-0.001,0.838,0.516,1.221,1.655,1.225
	c0.369,0.001,0.739,0,1.151,0c0,0.579-0.01,1.04,0.002,1.501c0.022,0.865,0.391,1.283,1.13,1.302
	c0.756,0.02,1.215-0.437,1.259-1.292c0.025-0.48,0.004-0.962,0.004-1.467c0.938,0,1.768,0,2.672,0c0,0.5-0.007,0.957,0.001,1.414
	c0.016,0.924,0.385,1.346,1.164,1.345c0.754-0.001,1.175-0.453,1.212-1.335c0.019-0.458,0.003-0.917,0.003-1.411
	c0.929,0,1.782,0,2.687,0c0,0.545-0.012,1.033,0.003,1.519c0.025,0.814,0.388,1.206,1.111,1.226c0.741,0.02,1.195-0.405,1.241-1.21
	c0.029-0.509,0.006-1.021,0.006-1.522c0.966,0,1.819,0,2.704,0c0,0.534-0.009,0.996,0.002,1.458
	c0.021,0.872,0.383,1.269,1.143,1.273c0.736,0.004,1.169-0.431,1.203-1.245c0.021-0.504,0.004-1.009,0.004-1.512
	c0.918,0,1.698,0,2.56,0c0,0.556-0.015,1.068,0.004,1.579c0.029,0.795,0.419,1.181,1.154,1.178c0.704-0.003,1.145-0.422,1.186-1.177
	c0.028-0.51,0.005-1.023,0.005-1.587c0.354-0.016,0.618-0.031,0.883-0.038c0.273-0.007,0.547,0.015,0.818-0.01
	c0.764-0.07,1.293-0.588,1.282-1.23c-0.012-0.676-0.507-1.121-1.321-1.156c-0.479-0.02-0.959-0.004-1.509-0.004
	c0-0.637,0.004-1.15-0.001-1.663c-0.01-0.982-0.381-1.452-1.144-1.459c-0.765-0.007-1.197,0.53-1.206,1.51
	c-0.005,0.509-0.001,1.019-0.001,1.565c-0.939,0-1.772,0-2.707,0c0-0.609,0.011-1.174-0.003-1.739
	c-0.02-0.893-0.438-1.355-1.184-1.335c-0.716,0.019-1.151,0.529-1.166,1.385c-0.01,0.56-0.002,1.12-0.002,1.672
	c-0.961,0-1.792,0-2.698,0c0-0.357,0.001-0.652,0-0.947c-0.001-0.3,0.011-0.601-0.008-0.9c-0.049-0.784-0.455-1.207-1.148-1.212
	c-0.693-0.005-1.181,0.492-1.206,1.265C46.338,58.427,46.354,58.998,46.354,59.665z M46.8,39.972c0-1.252,0.036-2.506-0.025-3.755
	c-0.015-0.312-0.283-0.74-0.553-0.869c-0.216-0.103-0.7,0.078-0.91,0.287c-1.743,1.738-3.319,3.626-4.3,5.901
	c-0.455,1.054-0.715,2.22-0.881,3.361c-0.169,1.159,0.558,2.027,1.7,2.342c2.463,0.681,4.865-1.122,4.963-3.757
	C46.836,42.314,46.8,41.142,46.8,39.972z M55.701,44.623c-0.013-0.12-0.018-0.368-0.068-0.607c-0.729-3.462-2.878-6.053-5.242-8.509
	c-0.106-0.11-0.279-0.192-0.432-0.213c-0.509-0.07-1.017,0.04-1.019,0.642c-0.006,2.56,0.001,5.122,0.088,7.68
	c0.076,2.229,2.021,3.913,4.217,3.762C54.711,47.278,55.722,46.196,55.701,44.623z M69.754,63.998
	c0.003,0.202,0.369,0.502,0.622,0.581c3.626,1.135,6.214,3.461,8.07,6.742c1.701,3.006,4.917,4.13,8.153,3
	c3.267-1.141,5.122-4.091,4.573-7.48c-0.3-1.85,0.242-3.252,1.723-4.353c1.053-0.782,1.853-1.781,2.25-3.041
	c0.859-2.731,0.178-5.137-1.763-7.152c-1.921-1.994-4.3-2.529-6.902-1.615c-1.755,0.616-3.514,0.994-5.364,0.795
	c-0.938-0.101-1.865-0.3-2.783-0.452c-1.859,3.405-4.743,5.116-8.607,5.317C69.726,58.934,69.711,61.466,69.754,63.998z
	 M20.961,54.722c-1.52-0.98-2.674-2.298-3.491-3.881c-3.157,0.734-4.322,0.842-5.94,0.447c-0.977-0.239-1.924-0.603-2.904-0.831
	c-4.886-1.142-9.314,3.342-8.157,8.215c0.404,1.702,1.359,3.013,2.688,4.084c1.303,1.05,1.802,2.298,1.508,4.023
	c-0.55,3.222,1.236,6.239,4.2,7.446c2.902,1.181,6.072,0.236,8.04-2.425c0.567-0.766,1.075-1.576,1.602-2.37
	c1.353-2.04,3.163-3.507,5.454-4.382c0.705-0.269,1.397-0.57,1.958-0.8c0-1.4,0-2.677,0-3.954c0-1.304,0-2.607,0-3.977
	C24.105,56.182,22.454,55.684,20.961,54.722z M80.727,42.964c2.023-0.298,3.936,0.32,5.888,0.695
	c1.154,0.222,2.42,0.383,3.543,0.141c2.8-0.604,4.614-2.414,5.191-5.255c0.56-2.757-0.328-5.063-2.545-6.808
	c-1.371-1.079-1.939-2.406-1.643-4.154c0.588-3.476-1.263-6.494-4.598-7.608c-3.334-1.114-6.584,0.198-8.237,3.335
	c-0.374,0.71-0.695,1.38-0.688,2.278c0.02,2.472,0.015,4.969-0.316,7.411c-0.331,2.44-1.068,4.824-1.623,7.214
	c0.862,1.008,1.779,2.08,2.734,3.197C79.181,43.263,79.949,43.079,80.727,42.964z M19.619,40.659
	c0.424-0.412,0.486-0.698,0.266-1.238c-1.718-4.205-2.451-8.599-2.075-13.115c0.13-1.56-0.314-2.754-1.186-3.91
	c-1.768-2.346-4.854-3.292-7.682-2.362c-2.856,0.939-4.701,3.474-4.702,6.48c0,0.599,0.017,1.201,0.069,1.798
	c0.122,1.411-0.436,2.46-1.569,3.29c-4.301,3.151-2.907,8.566-0.138,10.834c2.125,1.741,4.51,1.872,7.026,1.138
	c2.535-0.739,5.071-1.019,7.478-0.137C18.017,42.416,18.768,41.486,19.619,40.659z" class="color c1"/>
</svg>