<svg version="1.1" id="图层_1" x="0px" y="0px" width="93.502px" height="36.084px" viewBox="0 0 93.502 36.084" enable-background="new 0 0 93.502 36.084" xml:space="preserve" xmlns="http://www.w3.org/2000/svg" xmlns:xlink="http://www.w3.org/1999/xlink" xmlns:xml="http://www.w3.org/XML/1998/namespace">
  <path fill="#FFFFFF" d="M74.624,0C54.458,0,48.315,14.816,47.032,18.79c-0.199,0.615-0.282,0.971-0.282,0.971
	s-0.081-0.355-0.28-0.971C45.186,14.816,39.042,0,18.877,0C5.755,0-3.892,16.469,1.547,36.084
	C0.717,21.122,9.042,9.762,19.766,9.762c19.524,0,25.47,14.346,26.714,18.19c0.191,0.596,0.271,0.939,0.271,0.939
	s0.082-0.344,0.272-0.939c1.244-3.844,7.189-18.19,26.714-18.19c10.724,0,19.049,11.36,18.219,26.323
	C97.394,16.469,87.745,0,74.624,0z" class="color c1"/>
</svg>