<svg version="1.1" id="图层_1" x="0px" y="0px" width="185.867px" height="200px" viewBox="0 0 185.867 200" enable-background="new 0 0 185.867 200" xml:space="preserve" xmlns:xml="http://www.w3.org/XML/1998/namespace" xmlns="http://www.w3.org/2000/svg" xmlns:xlink="http://www.w3.org/1999/xlink">
  <path fill="#FFE1BE" d="M168.776,71.899l-0.211-2.179l-2.151,0.406c-8.177,1.543-20.477,4.904-32.632,12.157
	c-14.693,8.767-25.396,20.924-31.813,36.131l-1.828,4.331l-14.298,0.057l-1.827-4.418c-6.363-15.391-17.084-27.631-31.866-36.381
	c-12.21-7.228-24.581-10.501-32.81-11.975l-2.134-0.382l-0.209,2.158c-3.181,32.806,2.933,59.345,18.172,78.881
	c20.403,26.154,51.417,31.886,57.427,32.769l0.292,0.043l0.291-0.043c6.011-0.885,37.028-6.623,57.419-32.758
	C165.825,131.18,171.941,104.67,168.776,71.899z" class="color c1"/>
  <path fill="#0087A7" d="M183.807,60.713l-1.186-8.301l-8.371,0.489c-0.813,0.048-7.373,0.493-16.711,2.763
	c-18.221,4.425-47.029,15.795-64.439,44.727C76.486,72.369,49.184,60.838,30.771,56.115c-10.664-2.734-18.35-3.188-19.238-3.23
	l-8.295-0.408L2.063,60.7c-2.498,17.489-2.721,33.584-0.699,48.224c2.793,20.227,9.877,37.67,21.232,52.141
	c26.914,34.297,67.727,38.679,69.451,38.849L92.939,200l0.893-0.088c1.725-0.17,42.529-4.545,69.441-38.836
	c14.252-18.156,21.781-40.996,22.531-68.147C186.086,82.783,185.426,72.043,183.807,60.713z M149.072,149.641
	c-19.975,25.604-50.469,31.176-56.132,32.008c-5.661-0.832-36.165-6.408-56.141-32.02c-14.93-19.139-20.889-45.165-17.758-77.457
	c15.699,2.813,48.955,12.744,63.18,47.154l2.34,5.656l16.96-0.066l2.342-5.549c14.343-33.994,47.32-44.145,62.974-47.098
	C169.952,104.523,163.991,130.521,149.072,149.641z M20,21.677C20,9.705,29.705,0,41.676,0c11.971,0,21.676,9.705,21.676,21.677
	c0,11.972-9.705,21.676-21.676,21.676C29.705,43.353,20,33.648,20,21.677z M121.695,23.702c0-11.972,9.705-21.677,21.676-21.677
	c11.973,0,21.678,9.705,21.678,21.677c0,11.972-9.705,21.677-21.678,21.677C131.4,45.379,121.695,35.674,121.695,23.702z
	 M149.801,100.467h10.167v10h-10.167v9.748h-10v-9.748h-10.166v-10h10.166v-9.748h10V100.467z" class="color c2"/>
</svg>