<svg version="1.1" id="图层_1" x="0px" y="0px" width="173.7px" height="173.7px" viewBox="0 0 173.7 173.7" enable-background="new 0 0 173.7 173.7" xml:space="preserve" xmlns="http://www.w3.org/2000/svg" xmlns:xlink="http://www.w3.org/1999/xlink" xmlns:xml="http://www.w3.org/XML/1998/namespace">
  <path fill="#D30735" d="M172,70.4v-0.6h-68.1V39.5V1.8V1.6h-0.8c-10.8-2.2-21.7-2.2-32.5,0h-0.8v0.1v37.7v30.2H1.7l0,0H1.6
	c-2.1,11.4-2.1,22.8,0,34.1h37.7l0,0h30.5v30.5V172v0.1c11.4,2.1,22.8,2.1,34.1,0V172v-37.6v-30.5h30.3l0,0h37.7l0,0h0.1v-0.6
	C174.3,92.3,174.3,81.4,172,70.4z" class="color c1"/>
</svg>