<svg version="1.1" id="图层_2_1_" x="0px" y="0px" width="94.038px" height="91.791px" viewBox="0 0 94.038 91.791" enable-background="new 0 0 94.038 91.791" xml:space="preserve" xmlns:xml="http://www.w3.org/XML/1998/namespace" xmlns="http://www.w3.org/2000/svg" xmlns:xlink="http://www.w3.org/1999/xlink">
  <path fill="#CF0000" d="M78.578,33.724c-1.505-7.073-4.434-13.531-8.771-19.34c-0.396-0.53-0.81-0.721-1.463-0.72
	c-14.037,0.018-28.075,0.017-42.113,0c-0.623-0.001-1.047,0.165-1.39,0.685c-0.834,1.264-1.774,2.461-2.541,3.762
	c-7.848,13.316-9.506,27.492-5.647,42.348c2.006,7.721,5.708,14.583,11.184,20.436c0.24,0.256,0.569,0.591,0.867,0.601
	c1.692,0.058,3.389,0.028,5.188,0.028c0-1.767-0.059-3.464,0.023-5.154c0.047-0.973-0.247-1.552-1.082-2.1
	c-3.203-2.103-6.333-4.316-9.518-6.445c-0.734-0.491-1.088-1.08-1.214-1.945c-0.69-4.738-1.43-9.468-2.147-14.201
	c-0.412-2.718-0.851-5.433-1.184-8.161c-0.059-0.487,0.199-1.243,0.568-1.49c0.377-0.251,1.072-0.043,1.625-0.004
	c0.14,0.009,0.274,0.134,0.406,0.215c4.452,2.721,7.672,6.473,9.46,11.397c0.418,1.151,0.699,2.353,1.038,3.515
	c0.989,0,1.98-0.068,2.955,0.026c0.569,0.055,1.242,0.226,1.648,0.59c3.015,2.704,5.962,5.485,8.964,8.203
	c0.658,0.596,0.901,1.242,0.895,2.11c-0.029,4.112-0.013,8.225-0.013,12.337c0,0.354,0,0.708,0,1.055c0.791,0,1.427,0,2.136,0
	c0-0.387,0-0.721,0-1.055c0-4.205-0.025-8.411,0.03-12.615c0.008-0.546,0.286-1.234,0.677-1.605
	c3.003-2.853,6.049-5.663,9.131-8.431c0.405-0.364,1.081-0.531,1.651-0.586c0.976-0.094,1.967-0.026,3.012-0.026
	c0.114-0.482,0.221-0.992,0.355-1.496c1.588-5.978,5.103-10.492,10.438-13.575c0.447-0.258,1.266-0.29,1.69-0.044
	c0.37,0.216,0.656,1.005,0.586,1.484c-1.091,7.457-2.261,14.902-3.365,22.357c-0.135,0.919-0.534,1.494-1.284,1.996
	c-3.286,2.2-6.549,4.437-9.799,6.691c-0.307,0.213-0.651,0.633-0.662,0.968c-0.062,1.946-0.03,3.893-0.03,5.992
	c1.603,0,3.111,0.036,4.614-0.024c0.404-0.017,0.896-0.227,1.176-0.515c2.335-2.405,4.348-5.07,6.015-7.975
	C79.761,60.688,81.519,47.541,78.578,33.724z M48.574,59.027c-4.945,0.491-9.022-1.334-11.886-5.408
	c-2.84-4.04-3.177-8.446-1.075-12.918c3.678-7.823,7.446-15.602,11.177-23.399c0.155-0.327,0.324-0.646,0.579-1.153
	c2.518,5.432,4.942,10.669,7.373,15.905c1.338,2.884,2.694,5.76,4.026,8.647C62.527,48.849,57.395,58.15,48.574,59.027z
	 M19.41,81.565c-2.32,0.277-3.897-0.653-5.476-2.262C6.096,71.316,1.493,61.823,0.257,50.704c-0.133-1.196-0.154-2.405-0.219-3.608
	c-0.008-0.147,0.027-0.297,0.046-0.488c3.941,0,7.852,0,11.8,0c0.361,13.016,4.219,24.721,12.732,34.919
	C22.768,81.527,21.068,81.368,19.41,81.565z M94.038,46.602c-0.247,2.363-0.365,4.677-0.749,6.947
	c-1.81,10.7-6.773,19.707-14.72,27.089c-0.671,0.623-1.335,0.951-2.286,0.913c-1.976-0.08-3.956-0.027-5.935-0.031
	c-0.055,0-0.109-0.037-0.258-0.091c8.397-10.065,12.288-21.757,12.635-34.827C86.497,46.602,90.163,46.602,94.038,46.602z
	 M11.937,43.698c-3.963,0-7.866,0-11.937,0c0.217-1.865,0.349-3.705,0.657-5.515c1.531-8.994,5.38-16.878,11.446-23.691
	c0.507-0.57,1.012-0.857,1.814-0.835c2.285,0.062,4.573,0.02,6.86,0.024c0.298,0,0.596,0.026,1.075,0.049
	C15.519,22.828,12.437,32.81,11.937,43.698z M80.748,13.703c0.254,0.003,0.557,0.24,0.749,0.45
	c6.395,7.013,10.398,15.187,11.862,24.578c0.251,1.612,0.383,3.242,0.578,4.935c-0.335,0.044-0.566,0.101-0.798,0.101
	c-3.215,0.006-6.431-0.003-9.646,0.011c-0.528,0.002-0.847-0.049-0.88-0.722c-0.507-10.549-3.577-20.253-9.611-28.971
	c-0.049-0.072-0.059-0.17-0.136-0.402C75.566,13.683,78.157,13.67,80.748,13.703z M66.814,10.833c-6.178,0-12.122,0-18.171,0
	c0-3.575,0-7.085,0-10.71C55.81,1.784,61.667,5.475,66.814,10.833z M27.808,10.831C32.87,5.55,38.651,1.891,45.734,0.176
	c0,3.603,0,7.096,0,10.655C39.816,10.831,33.915,10.831,27.808,10.831z M63.122,84.358c-4.388,3.567-9.075,6.023-14.477,7.236
	c0-2.468,0-4.828,0-7.236C53.427,84.358,58.16,84.358,63.122,84.358z M31.482,84.347c4.913,0,9.561,0,14.271,0
	c0,2.394,0,4.751,0,7.199C40.461,90.314,35.832,87.886,31.482,84.347z M16.932,10.894c-0.293,0-0.586-0.03-1.121-0.06
	C22.28,5.166,29.516,1.59,37.747,0c-0.207,0.123-0.406,0.259-0.62,0.367c-4.775,2.416-8.869,5.702-12.357,9.74
	c-0.522,0.604-1.042,0.823-1.816,0.805C20.947,10.864,18.939,10.898,16.932,10.894z M57.477,0.36
	c-0.08-0.04-0.143-0.115-0.356-0.289c7.952,1.82,14.827,5.348,20.822,10.592c-0.03,0.078-0.059,0.155-0.089,0.232
	c-2.284,0-4.568,0.013-6.851-0.018c-0.261-0.003-0.591-0.185-0.767-0.389C66.616,6.312,62.419,2.869,57.477,0.36z M37.226,91.401
	c0.225,0.145,0.472,0.26,0.71,0.39c-6.467-1.071-12.332-3.578-17.676-7.481c0.898,0,1.795,0,2.693,0
	c1.358,0,2.831-0.328,4.042,0.096c1.194,0.418,2.07,1.673,3.179,2.425C32.492,88.403,34.87,89.886,37.226,91.401z M73.654,84.312
	c-5.002,3.691-10.51,6.116-16.568,7.319c0.183-0.114,0.361-0.241,0.552-0.34c3.368-1.734,6.417-3.917,9.187-6.498
	c0.23-0.214,0.556-0.455,0.842-0.461C69.661,84.292,71.658,84.312,73.654,84.312z" class="color c1"/>
</svg>