<svg version="1.1" id="图层_1" x="0px" y="0px" width="88.231px" height="124.922px" viewBox="0 0 88.231 124.922" enable-background="new 0 0 88.231 124.922" xml:space="preserve" xmlns="http://www.w3.org/2000/svg" xmlns:xlink="http://www.w3.org/1999/xlink" xmlns:xml="http://www.w3.org/XML/1998/namespace">
  <path fill="#FFFFFF" d="M44.116,29.844c-6.596,0-11.943-5.346-11.943-11.943c0-6.596,5.347-11.943,11.943-11.943
	c6.596,0,11.943,5.348,11.943,11.943C56.06,24.498,50.712,29.844,44.116,29.844z M44.116,34.732C13.755,34.732,0,0,0,0
	c3.531,29.844,29.555,45.969,29.555,45.969v35.954v5.553v30.27c0,3.965,2.942,7.178,6.569,7.178c3.629,0,6.571-3.213,6.571-7.178
	V78.637h2.843v39.107c0,3.965,2.942,7.178,6.57,7.178c3.627,0,6.568-3.213,6.568-7.178V85.313v-3.391V46.545
	c0,0,24.868-18.648,29.555-46.545C88.231,0,73.134,34.732,44.116,34.732z" class="color c1"/>
</svg>