<svg version="1.1" id="图层_1" x="0px" y="0px" width="151.215px" height="208.242px" viewBox="0 0 151.215 208.242" enable-background="new 0 0 151.215 208.242" xml:space="preserve" xmlns="http://www.w3.org/2000/svg" xmlns:xlink="http://www.w3.org/1999/xlink" xmlns:xml="http://www.w3.org/XML/1998/namespace">
  <path fill="#E31C5F" d="M80.413,105.723c-0.641,6.088-5.446,10.252-1.602,19.543c0.961,2.242,1.922,4.805,1.922,9.291
	c0,9.932-6.087,12.174-1.922,22.746c5.126,11.854-1.282,17.619-1.282,24.99c0,1.602-1.601,3.203-3.203,3.203
	c-1.922,0-3.203-1.602-3.203-3.203c0-9.613,6.087-12.496,1.922-22.748c-2.564-6.086-2.564-12.174,0-18.262
	c0.641-1.922,1.281-3.523,1.281-6.727s-0.641-4.805-1.281-6.729c-2.564-6.086-2.564-12.174,0-18.26
	c0.641-0.961,0.961-1.924,1.281-3.525c-5.768-0.641-10.572-5.445-10.572-11.213l0,0c0-6.088,4.805-23.707,14.097-23.707
	c9.29,0,14.096,17.619,14.096,23.707S86.82,105.723,80.413,105.723z M112.13,205.037c0-3.203,0.641-4.805,1.281-6.727
	c2.563-6.088,2.563-12.176,0-18.262c-0.641-1.922-1.281-3.523-1.281-6.729c0-7.688,6.407-12.494,1.281-25.309
	c-1.922-4.484-1.922-8.971,0-13.455c0.641-1.602,1.281-3.203,1.603-6.088c6.086-0.32,10.892-5.125,10.892-11.213
	c0-6.086-4.806-23.707-14.096-23.707c-9.291,0-14.097,17.621-14.097,23.707l0,0c0,5.768,4.806,10.572,10.572,11.213
	c-0.32,1.602-0.641,2.564-1.281,3.525c-2.563,6.406-2.563,11.854,0,18.26c4.165,10.572-1.922,12.494-1.922,22.746
	c0,10.574,6.087,11.855,1.922,22.748c-0.961,2.242-1.922,4.484-1.922,9.289c0,1.604,1.602,3.205,3.203,3.205
	C110.848,208.242,112.13,206.641,112.13,205.037z M38.444,197.029c0-3.205,0.641-4.807,1.281-6.729
	c6.407-15.697-5.126-19.223,0-32.037c2.563-6.086,2.563-12.174,0-18.262c-1.922-4.484-1.922-8.969,0-13.455
	c0.641-1.602,1.282-3.203,1.603-6.086c6.086-0.322,10.893-5.127,10.893-11.213c0-6.088-4.807-23.709-14.097-23.709
	s-14.097,17.621-14.097,23.709l0,0l0,0c0,5.766,4.807,10.572,10.572,11.213c-0.32,1.602-0.641,2.563-0.961,3.523
	c-2.563,6.086-2.563,12.174,0,18.262c5.126,13.135-6.407,16.018,0,32.035c4.165,10.574-1.922,12.816-1.922,22.748
	c0,1.922,1.602,3.203,3.203,3.203C36.522,200.232,38.444,198.951,38.444,197.029z M37.162,60.23c0-1.923-1.281-3.204-3.203-3.204
	s-3.203,1.281-3.203,3.204c0,1.922,1.281,3.203,3.203,3.203S37.162,62.152,37.162,60.23z M64.715,55.745
	c-6.406,0-11.533-5.126-11.533-11.533c0-6.408,5.127-11.534,11.533-11.534c6.408,0,11.533,5.126,11.533,11.534
	C76.248,50.299,71.123,55.745,64.715,55.745z M68.24,50.619c1.281-1.281,1.281-3.204,0-4.485c-1.283-1.281-3.205-1.281-4.486,0
	s-1.281,3.204,0,4.485C65.035,51.58,66.957,51.58,68.24,50.619z M100.917,40.047c0,2.242,1.922,4.165,4.165,4.165
	c2.242,0,4.164-1.923,4.164-4.165c0-2.243-1.922-4.164-4.164-4.164C102.839,36.202,100.917,37.804,100.917,40.047z M26.911,124.305
	c-0.642,1.922-1.281,4.484-1.281,7.689C9.932,118.217,0,97.713,0,75.287C0,33.96,33.639,0,75.287,0s75.287,33.96,75.928,75.287
	c0,24.99-12.174,47.096-31.076,60.871c0.32-0.641,0.641-1.602,0.961-2.563c6.729-2.242,11.854-8.971,11.854-16.66
	c0-8.648-6.086-30.115-20.503-30.115c-5.767,0-10.572,3.845-13.776,8.971c0-0.32,0-0.641,0-0.961c0-8.65-6.086-30.115-20.504-30.115
	c-14.416,0-20.504,21.465-20.504,30.115v0.32c0,6.408,3.846,11.854,8.971,15.059c-3.844,12.814,1.922,19.861,1.922,24.668
	c0,4.805-3.203,6.729-3.203,15.377c-6.086-0.961-11.854-2.242-17.301-4.484c-0.641-3.523-1.602-6.088-2.242-8.01
	c-1.922-5.766,0.32-8.648,1.281-11.854c6.729-2.242,11.855-8.971,11.855-16.658c0-8.65-6.089-30.116-20.505-30.116
	c-14.417,0-20.503,21.466-20.503,30.116C17.941,109.568,17.62,118.857,26.911,124.305z M118.537,61.512
	c-5.126,0-9.611,4.164-9.611,9.611c0,5.446,4.485,9.61,9.611,9.61c5.446,0,9.611-4.164,9.611-9.61
	C128.148,65.996,123.983,61.512,118.537,61.512z M104.762,29.475c-5.767,0-10.572,4.806-10.572,10.572
	c0,5.768,4.806,10.572,10.572,10.572c5.766,0,10.571-4.805,10.571-10.572C115.333,34.28,110.848,29.794,104.762,29.475z
	 M46.773,43.891c0,9.932,8.01,17.941,17.941,17.941s17.941-8.01,17.941-17.941c0-9.931-8.01-17.94-17.941-17.94
	S46.773,34.28,46.773,43.891z M33.959,69.841c5.126,0,9.611-4.165,9.611-9.61c0-5.446-4.485-9.611-9.611-9.611
	c-5.446,0-9.611,4.164-9.611,9.611C24.348,65.676,28.834,70.162,33.959,69.841z M87.461,134.877c0,9.291-3.203,11.213-3.203,15.377
	c5.446-0.641,10.572-1.922,15.377-3.523c-0.64-4.166-0.64-9.611,0.962-14.416c-9.611-5.447-10.252-15.059-7.049-25.629
	c-1.922,1.922-4.484,3.844-7.048,4.805c-0.32,1.281-0.641,2.242-0.961,2.883C82.016,122.063,87.461,123.344,87.461,134.877z
	 M115.333,71.123c0,1.922,1.282,3.203,3.204,3.203s3.203-1.281,3.203-3.203c0-1.923-1.602-3.204-3.203-3.204
	S115.333,69.521,115.333,71.123z" class="color c1"/>
</svg>