<svg version="1.1" id="图层_1" x="0px" y="0px" width="386.918px" height="94.914px" viewBox="0 0 386.918 94.914" enable-background="new 0 0 386.918 94.914" xml:space="preserve" xmlns="http://www.w3.org/2000/svg" xmlns:xlink="http://www.w3.org/1999/xlink" xmlns:xml="http://www.w3.org/XML/1998/namespace">
  <path fill="#F4A608" d="M342.288,85.759c-4.791-15.906-6.711-21.41-11.832-21.41h-0.021h-0.002h-0.014
	c-5.102,0.035-7.016,5.527-11.801,21.404c-0.4,1.332-0.809,2.682-1.215,4.006c-0.555,1.797-1.104,3.547-1.643,5.154h4.635h20.107
	h4.631c-0.535-1.607-1.086-3.355-1.637-5.154C343.096,88.437,342.686,87.091,342.288,85.759z M322.004,89.759
	c3.031-9.979,6.119-20.994,8.443-21.01c0.004,0,0.004,0,0.006,0c2.326,0,5.414,11.023,8.445,21.01H322.004z M317.254,13.201
	c-4.111,0-7.979,1.602-10.889,4.508c-2.904,2.908-4.512,6.775-4.512,10.889c0,1.217-0.982,2.203-2.197,2.203
	c-1.219,0-2.201-0.986-2.201-2.203c0-10.936,8.865-19.795,19.799-19.795c1.215,0,2.195,0.984,2.195,2.197
	C319.452,12.214,318.469,13.201,317.254,13.201z M386.918,92.337c0,1.422-1.154,2.576-2.578,2.576h-27.936h-4.781
	c0.688-1.504,1.336-3.236,1.928-5.154c1.072-3.475,1.963-7.559,2.598-12.051c1.287-9.047,1.01-15.639,0.58-17.004l-0.504-1.619
	l0.711-1.539l8.619-18.66l0.01-0.012l0.006-0.014c1.514-3.225,2.275-6.676,2.275-10.264c0-6.461-2.518-12.539-7.086-17.109
	c-4.57-4.569-10.646-7.09-17.111-7.09c-3.936,0-7.691,0.918-11.16,2.728l-2.033,1.059l-2.035-1.059
	c-3.469-1.81-7.227-2.728-11.164-2.728c-6.463,0-12.539,2.521-17.109,7.09c-4.566,4.57-7.086,10.648-7.086,17.109
	c0,3.588,0.766,7.039,2.279,10.264l0.006,0.014l0.006,0.014l8.613,18.662l0.713,1.535l-0.506,1.619
	c-0.43,1.365-0.707,7.957,0.576,17.004c0.641,4.492,1.531,8.576,2.602,12.051c0.594,1.918,1.236,3.65,1.932,5.154H304.5H76.18
	c-0.003,0-0.009,0-0.013,0H2.486C1.113,94.914,0,93.767,0,92.353c0-1.412,1.113-2.561,2.486-2.561h73.342
	c0.114-0.018,0.229-0.037,0.353-0.037h226.578c-3.363-11.818-3.977-26.563-2.787-30.363l-8.615-18.662
	c-1.73-3.688-2.697-7.795-2.697-12.133C288.659,12.802,301.465,0,317.256,0c4.762,0,9.248,1.166,13.197,3.223
	C334.403,1.166,338.893,0,343.651,0c15.793,0,28.598,12.803,28.598,28.598c0,4.338-0.967,8.445-2.697,12.133l-8.621,18.662
	c1.188,3.801,0.578,18.545-2.787,30.363h26.199C385.764,89.759,386.918,90.912,386.918,92.337z" class="color c1"/>
</svg>