<svg version="1.1" id="图层_1" x="0px" y="0px" width="66.337px" height="183.081px" viewBox="0 0 66.337 183.081" enable-background="new 0 0 66.337 183.081" xml:space="preserve" xmlns="http://www.w3.org/2000/svg" xmlns:xlink="http://www.w3.org/1999/xlink" xmlns:xml="http://www.w3.org/XML/1998/namespace">
  <path fill="#9AC23E" d="M50.381,30.042c5.442-1.26,19.474-1.805,15.136-7.129c-5.157-6.068-29.326,2.326-45.68,18.666
	c6.229-10.473,14.425-20.096,24.445-26.213c5.588-3.408,20.481-6.662,17.406-13.107c-7.271-7.93-26.435,5.99-40.588,26.648
	C8.967,46.62,1.17,69.94,0.248,81.352c-4.408,54.395,51.367,96.979,58.975,100.693c8.14,3.975,3.895-4.779,3.895-4.779
	s-20.986-14.305-37.623-36.891c-0.566-6.906,2.016-13.893,8.843-14.15c2.698-0.098,11.082,4.725,10.639-0.742
	c-0.699-8.639-21.277-7.322-23.092,9.752c-2.243-3.365-4.363-6.885-6.282-10.543c6.211-16.055,15.424-16.154,23.136-16.852
	c5.865-0.527,16.248,4.232,13.803-2.508c-2.728-7.52-29.886-7.055-38.822,15.594c-1.785-3.766-3.354-7.662-4.626-11.684
	c8.312-15.316,17.478-20.703,25.211-21.4c5.869-0.529,18.053,1.496,14.517-4.201c-5.099-8.209-30.473,0.85-40.891,21.578
	c-1.154-4.43-1.938-8.996-2.257-13.676c9.75-16.561,19.805-20.414,27.716-21.129c5.867-0.529,17.588,1.074,14.051-4.623
	c-4.902-7.891-28.809-0.145-41.912,19.574c0.016-0.492,0.028-0.988,0.053-1.484c0.116-2.699,0.517-5.779,1.195-9.117
	c11.599-17.67,27.396-24.574,35.364-25.293c5.866-0.529,17.586,1.08,14.049-4.619C51.436,37.2,25.389,45.235,9.14,65.6
	c1.054-3.383,2.328-6.891,3.832-10.436C28.292,34.668,41.335,32.124,50.381,30.042z" class="color c1"/>
</svg>