<svg version="1.1" id="图层_1" x="0px" y="0px" width="200px" height="102.102px" viewBox="0 0 200 102.102" enable-background="new 0 0 200 102.102" xml:space="preserve" xmlns="http://www.w3.org/2000/svg" xmlns:xlink="http://www.w3.org/1999/xlink" xmlns:xml="http://www.w3.org/XML/1998/namespace">
  <path fill="#008A9F" d="M69.354,77.748c1.411-3.309,2.391-6.766,3.278-10.217c0.842-3.465,1.438-6.98,1.739-10.51
	c0.155-1.76,0.239-3.529,0.219-5.291c0.018-1.758-0.091-3.52-0.256-5.26c-0.135-1.744-0.407-3.475-0.725-5.184
	c-0.33-1.713-0.778-3.391-1.279-5.049c-0.565-1.639-1.128-3.273-1.874-4.83c-0.655-1.594-1.523-3.092-2.369-4.584l-1.377-2.18
	l-1.534-2.074c-1.012-1.385-2.205-2.641-3.36-3.904c-1.238-1.199-2.427-2.441-3.789-3.508c-1.278-1.158-2.678-2.176-4.08-3.188
	c-1.365-1.057-2.906-1.885-4.348-2.844c-1.496-0.877-3.051-1.668-4.57-2.51l3.479-2.48c0.289,2.061,0.409,3.943,0.471,5.918
	c0.061,1.955-0.006,3.914-0.161,5.877c-0.37,3.918-1.082,7.883-2.664,11.682c-0.779,1.928-1.897,3.734-2.793,5.279
	c-0.939,1.633-1.547,2.992-2.206,4.697c-0.354,0.799-0.577,1.648-0.841,2.48c-0.291,0.828-0.5,1.674-0.678,2.527
	c-0.445,1.691-0.623,3.426-0.792,5.146l-0.084,2.59c0.028,0.861,0.129,1.719,0.185,2.576c0.018,0.863,0.235,1.697,0.402,2.537
	c0.191,0.834,0.273,1.699,0.607,2.494l0.829,2.432c0.33,0.791,0.76,1.543,1.131,2.316c0.663,1.594,1.845,2.91,2.742,4.387
	c1.117,1.332,2.254,2.67,3.496,3.912c1.365,1.127,2.591,2.412,4.066,3.43c1.497,0.982,2.901,2.1,4.473,2.986l4.766,2.607
	l-2.961,1.145c0.455-1.127,0.921-2.494,1.28-3.807c0.402-1.316,0.692-2.684,0.999-4.039c0.538-2.729,0.992-5.496,1.189-8.291
	c0.135-1.398,0.226-2.795,0.247-4.201c0.042-1.404,0.121-2.811,0.042-4.215c-0.063-1.406-0.031-2.82-0.17-4.225l-0.396-4.219
	c-0.165-1.402-0.449-2.789-0.64-4.193c-0.177-1.41-0.454-2.801-0.789-4.176l-0.947-4.162l-1.226-4.09
	c-0.383-1.377-0.829-2.732-1.373-4.053l-1.527-4.012c-0.489-1.346-1.15-2.619-1.718-3.938l-1.775-3.934l2.172,3.732
	c0.695,1.258,1.517,2.463,2.113,3.775l1.85,3.92c0.652,1.295,1.209,2.629,1.703,3.992l1.566,4.063l1.292,4.162
	c0.451,1.387,0.845,2.787,1.138,4.219c0.324,1.42,0.662,2.842,0.923,4.277l0.65,4.338c0.223,1.447,0.275,2.914,0.421,4.373
	c0.161,1.459,0.164,2.928,0.199,4.396c0.069,1.471,0.014,2.939-0.063,4.408c-0.09,2.943-0.45,5.879-0.906,8.803
	c-0.269,1.459-0.52,2.922-0.897,4.369c-0.349,1.473-0.741,2.852-1.303,4.41l-0.812,2.246l-2.15-1.102l-5.175-2.656
	c-1.711-0.918-3.296-2.096-4.95-3.141c-1.637-1.076-3.073-2.475-4.615-3.709c-1.436-1.363-2.783-2.859-4.095-4.367
	c-1.119-1.674-2.472-3.203-3.291-5.078c-0.451-0.91-0.953-1.797-1.35-2.729l-1.015-2.881c-0.389-0.947-0.516-1.965-0.747-2.953
	c-0.206-0.996-0.457-1.988-0.497-3.006c-0.081-1.01-0.199-2.02-0.238-3.029l0.071-3.031c0.174-2.004,0.378-4.016,0.865-5.961
	c0.386-1.971,1.027-3.873,1.745-5.736c0.688-1.793,1.666-3.846,2.619-5.445c0.998-1.689,1.873-3.074,2.516-4.627
	c1.336-3.121,2.016-6.621,2.376-10.146c0.142-1.777,0.237-3.566,0.233-5.359c-0.01-1.773-0.094-3.639-0.287-5.299L43.195,0
	l4.04,2.35c1.602,0.934,3.229,1.814,4.802,2.791c1.528,1.061,3.138,1.982,4.589,3.158c1.482,1.127,2.959,2.26,4.317,3.547
	c1.419,1.211,2.67,2.611,3.956,3.963c1.205,1.428,2.44,2.842,3.487,4.396l1.575,2.322l1.404,2.43
	c0.856,1.66,1.735,3.318,2.366,5.076c0.711,1.729,1.223,3.525,1.728,5.311c0.441,1.807,0.819,3.621,1.067,5.457
	c0.24,1.832,0.423,3.67,0.464,5.51c0.067,1.84,0.015,3.68-0.134,5.504c-0.119,1.824-0.345,3.641-0.644,5.438
	C75.014,64.43,72.794,71.42,69.354,77.748z M133.343,43.277c0.535-0.797,1.145-1.551,1.709-2.322
	c1.134-1.539,2.56-2.855,3.811-4.279c0.685-0.662,1.453-1.246,2.172-1.871l2.182-1.84c0.688-0.656,1.559-1.094,2.341-1.633
	l2.398-1.549l2.395-1.531l2.565-1.26l5.096-2.525c0.843-0.434,1.782-0.668,2.667-1.01l2.689-0.953l5.348-1.939l-2.407-1.268
	c0.439,1.76,0.795,3.695,1.091,5.568c0.283,1.893,0.514,3.795,0.675,5.699c0.335,3.811,0.445,7.637,0.246,11.428
	c-0.1,1.896-0.282,3.781-0.527,5.654c-0.257,1.873-0.623,3.719-1.022,5.551c-0.444,1.822-0.931,3.629-1.548,5.387
	c-0.63,1.746-1.299,3.486-2.148,5.131c-0.384,0.842-0.814,1.66-1.304,2.445c-0.475,0.789-0.898,1.611-1.457,2.344
	c-1.008,1.547-2.179,2.963-3.374,4.359c-1.272,1.324-2.508,2.691-3.955,3.842c-1.349,1.258-2.926,2.242-4.417,3.334
	c-1.62,0.908-3.155,1.963-4.879,2.697c-0.847,0.395-1.674,0.826-2.538,1.189l-2.632,1.002c-1.724,0.74-3.588,1.15-5.378,1.746
	c-1.827,0.494-3.696,0.859-5.545,1.299l1.673,4.291c1.355-0.943,2.491-1.838,3.647-2.82c1.165-0.951,2.245-1.977,3.341-2.988
	c2.135-2.074,4.178-4.234,6.066-6.512c0.957-1.133,1.908-2.266,2.779-3.459c0.884-1.186,1.815-2.332,2.619-3.572
	c1.713-2.404,3.214-4.943,4.691-7.488c0.751-1.264,1.374-2.602,2.063-3.896c0.685-1.299,1.358-2.602,1.908-3.967l1.73-4.039
	l1.485-4.133c0.5-1.371,0.994-2.742,1.363-4.158l1.204-4.201c0.451-1.385,0.645-2.842,0.958-4.26l0.858-4.268l-1.363,4.133
	c-0.487,1.363-0.842,2.764-1.398,4.1l-1.559,4.035c-0.486,1.354-1.095,2.662-1.707,3.963l-1.812,3.906l-2.042,3.787
	c-0.652,1.275-1.366,2.514-2.121,3.729c-0.753,1.213-1.435,2.469-2.243,3.646l-2.41,3.531c-0.821,1.162-1.719,2.27-2.559,3.416
	c-0.826,1.158-1.776,2.215-2.676,3.314c-0.888,1.107-1.851,2.146-2.816,3.184c-1.897,2.105-3.96,4.043-6.039,5.941
	c-1.058,0.922-2.108,1.865-3.212,2.713c-1.071,0.869-2.248,1.725-3.286,2.406l-10.249,6.744l11.921-2.455
	c1.979-0.406,3.975-0.744,5.946-1.217c1.946-0.588,3.951-0.963,5.854-1.732l2.877-1.068c0.948-0.385,1.868-0.85,2.803-1.277
	c1.896-0.797,3.633-1.941,5.436-2.943c1.69-1.197,3.456-2.301,5.002-3.701c1.638-1.287,3.067-2.813,4.514-4.309
	c1.345-1.598,2.654-3.221,3.779-4.975c0.619-0.842,1.093-1.768,1.62-2.664c0.539-0.889,1.014-1.809,1.438-2.754
	c0.929-1.855,1.658-3.793,2.335-5.736c0.665-1.953,1.181-3.938,1.647-5.934c0.402-2.008,0.726-4.021,0.949-6.045
	c0.209-2.025,0.348-4.047,0.396-6.072c0.084-4.047-0.099-8.084-0.631-12.07c-0.262-1.992-0.597-3.975-0.986-5.945
	c-0.411-1.982-0.847-3.896-1.451-5.916l-0.606-2.025l-1.802,0.756l-5.457,2.291l-2.714,1.166c-0.893,0.41-1.831,0.715-2.683,1.219
	l-5.125,2.965l-2.545,1.488l-2.347,1.813l-2.329,1.816c-0.758,0.629-1.594,1.146-2.253,1.895l-2.082,2.094
	c-0.681,0.709-1.404,1.369-2.044,2.113l-1.8,2.33c-0.593,0.779-1.23,1.521-1.676,2.404c-0.481,0.854-0.999,1.68-1.443,2.549
	c-0.375,0.906-0.836,1.762-1.106,2.695C132.312,44.908,132.876,44.107,133.343,43.277z M127.437,97.594
	c1.662,0.531,3.343,1.018,5.054,1.383c1.699,0.443,3.433,0.686,5.164,1.006c1.736,0.273,3.492,0.391,5.246,0.594
	c1.758,0.154,3.527,0.143,5.298,0.186c1.771,0.033,3.538-0.166,5.316-0.242c1.786-0.021,3.53-0.436,5.295-0.689
	c0.878-0.154,1.767-0.273,2.641-0.453l2.596-0.688c1.718-0.5,3.505-0.807,5.141-1.574l5-2.023l4.742-2.588
	c1.638-0.777,3.024-1.945,4.478-3.002c1.405-1.119,2.973-2.051,4.236-3.328l3.871-3.738c1.342-1.201,2.356-2.686,3.473-4.076
	l3.285-4.213L200,71.934l-2.589-1.105c-0.894-0.381-1.565-0.488-2.338-0.721c-0.747-0.176-1.487-0.279-2.228-0.418
	c-1.479-0.287-2.958-0.277-4.427-0.42c-1.468-0.027-2.931,0.082-4.384,0.15c-0.729,0.002-1.442,0.166-2.158,0.273l-2.14,0.352
	c-0.711,0.127-1.424,0.227-2.126,0.371l-2.064,0.625l-4.092,1.248l-3.889,1.752c-1.278,0.615-2.566,1.174-3.797,1.854
	c1.349-0.406,2.745-0.656,4.096-1.006l4.042-1.008l4.097-0.607l2.031-0.301l2.046-0.104c1.36-0.031,2.714-0.207,4.059-0.117
	l2.013,0.135c0.667,0.047,1.34,0.033,1.998,0.129c1.299,0.246,2.641,0.342,3.888,0.701c0.622,0.174,1.265,0.318,1.865,0.512
	c0.553,0.215,1.248,0.441,1.635,0.631l-0.862-3.318l-3.284,3.781c-1.106,1.244-2.11,2.586-3.415,3.623l-3.646,3.377
	c-1.179,1.164-2.642,1.973-3.945,2.982c-1.341,0.961-2.644,1.977-4.119,2.725l-4.298,2.447l-4.562,1.93
	c-1.495,0.715-3.114,1.105-4.682,1.641l-2.371,0.764c-0.804,0.207-1.622,0.357-2.435,0.539c-1.634,0.313-3.242,0.795-4.909,0.969
	c-1.658,0.207-3.313,0.541-4.989,0.65c-1.677,0.078-3.359,0.26-5.048,0.326c-1.687,0-3.387,0.086-5.083,0.018
	c-1.692-0.098-3.41-0.055-5.105-0.248c-3.413-0.238-6.823-0.67-10.229-1.326C124.141,96.434,125.772,97.08,127.437,97.594z
	 M65.62,102.09c-21.891-5.415-35.83-18.043-42.035-24.854c0.368,0.507,0.73,1.016,1.109,1.516l2.204,2.57
	c0.749,0.846,1.441,1.75,2.264,2.531c1.605,1.598,3.142,3.285,4.906,4.732c0.868,0.738,1.696,1.533,2.603,2.229l2.767,2.039
	c0.908,0.705,1.926,1.25,2.888,1.881c0.362,0.239,0.733,0.463,1.105,0.686l-4.76-1.264c-0.855-0.248-1.741-0.412-2.57-0.723
	l-2.456-1.014c-1.614-0.717-3.326-1.248-4.86-2.104l-4.58-2.611c-1.507-0.896-2.796-2.096-4.212-3.123
	c-1.467-0.98-2.563-2.363-3.816-3.574c-1.298-1.184-2.307-2.615-3.35-4.018c-1.141-1.334-1.997-2.863-2.886-4.377
	c-0.976-1.463-1.593-3.121-2.354-4.709c-0.732-1.602-1.221-3.309-1.798-4.975c-0.43-1.715-0.932-3.414-1.217-5.162
	c-0.196-0.973-0.338-1.98-0.443-2.969c1,0.105,1.999,0.222,2.98,0.432l2.637,0.535c0.888,0.15,1.73,0.473,2.6,0.699
	c0.859,0.264,1.745,0.457,2.574,0.813l2.53,0.967c0.835,0.342,1.638,0.76,2.462,1.139c0.828,0.371,1.633,0.787,2.422,1.236
	c0.787,0.453,1.621,0.836,2.374,1.352l2.306,1.48c1.494,1.057,2.962,2.158,4.363,3.352c1.397,1.199,2.734,2.469,4.023,3.797
	c1.292,1.324,2.533,2.709,3.643,4.207c-0.9-1.633-1.954-3.188-3.075-4.693c-1.14-1.494-2.385-2.902-3.682-4.273
	c-1.307-1.359-2.696-2.639-4.129-3.883l-2.229-1.77c-0.729-0.613-1.55-1.1-2.327-1.654c-0.779-0.551-1.576-1.08-2.421-1.523
	c-0.837-0.461-1.655-0.965-2.512-1.391l-2.606-1.217c-0.858-0.436-1.78-0.717-2.676-1.066c-0.908-0.309-1.794-0.711-2.728-0.947
	l-2.795-0.746c-1.867-0.494-3.795-0.689-5.697-1.045l-2.148-0.4l-0.018,2.326c-0.015,2.084,0.105,3.957,0.378,5.891
	c0.212,1.93,0.651,3.814,1.085,5.703c0.567,1.848,1.054,3.734,1.801,5.527c0.774,1.777,1.415,3.629,2.438,5.297
	c0.933,1.713,1.845,3.441,3.063,4.982c1.15,1.584,2.277,3.189,3.705,4.539c1.382,1.379,2.625,2.926,4.233,4.049
	c1.559,1.17,3.011,2.514,4.667,3.531l5.05,2.934c1.708,0.922,3.566,1.498,5.344,2.258l2.695,1.068
	c0.905,0.328,1.852,0.502,2.776,0.758l5.578,1.418c1.861,0.447,3.768,0.568,5.653,0.83c1.891,0.215,3.779,0.479,5.668,0.648
	l9.68,0.12c0.461,0.024,0.945,0.03,1.461,0.019l0.196,0.002l0-0.006C65.524,102.091,65.568,102.092,65.62,102.09z" class="color c1"/>
</svg>