<svg version="1.1" id="图层_1" x="0px" y="0px" width="162.208px" height="236.954px" viewBox="0 0 162.208 236.954" enable-background="new 0 0 162.208 236.954" xml:space="preserve" xmlns="http://www.w3.org/2000/svg" xmlns:xlink="http://www.w3.org/1999/xlink" xmlns:xml="http://www.w3.org/XML/1998/namespace">
  <path fill="#F4F17F" d="M154.412,121.239c-1.045-1.927-2.094-3.86-3.141-5.79c-0.834-2.088-1.789-4.135-2.881-6.15
	c-0.817-1.507-1.638-3.02-2.457-4.53c-0.812-2.115-1.76-4.184-2.862-6.217c-13.419-24.75-26.875-49.478-40.332-74.207L91.345,3.405
	c-1.498-2.752-3.42-3.37-4.769-3.404c-0.148-0.003-0.304,0.004-0.462,0.015c-0.054-0.003-0.112-0.012-0.164-0.013
	c-0.133-0.004-0.276,0.004-0.419,0.013c-0.054-0.003-0.112-0.012-0.164-0.014c-1.446-0.034-3.543,0.537-5.34,3.478
	C73.748,13.756,67.463,24.03,61.178,34.304c-16.55,27.053-33.665,55.028-50.381,82.616c-12.652,20.881-14.193,43.645-4.579,67.662
	c12.607,31.492,43.908,52.372,78.239,52.372c0.539,0,1.082-0.005,1.622-0.017c29.583-0.568,51.891-14.126,66.303-40.299
	c6.271-11.385,9.631-24.737,9.72-38.616C162.768,143.833,160.324,132.143,154.412,121.239z M142.382,128.422l-0.004,0.147
	c-0.057,10.21-2.507,20.002-7.086,28.317c-10.504,19.072-26.747,28.952-48.279,29.365c-0.399,0.007-0.795,0.011-1.193,0.011
	c-25.235-0.002-48.238-15.328-57.49-38.44c-3.747-9.359-5.155-18.44-4.276-27.178c0.674,4.928,2.007,9.94,4.045,15.031
	c9.258,23.127,32.243,38.461,57.453,38.461c0.396,0,0.794-0.003,1.19-0.011c21.738-0.417,38.129-10.379,48.72-29.609
	c3.831-6.955,6.158-14.913,6.88-23.254C142.486,123.551,142.501,125.931,142.382,128.422z M132.458,104.703l-0.003,0.105
	c-0.046,8.325-2.045,16.312-5.781,23.097c-8.57,15.561-21.823,23.622-39.393,23.958c-20.966,0.44-40.188-12.192-47.852-31.337
	c-3.513-8.774-4.52-17.251-3.049-25.347c0.315,4.964,1.499,10.043,3.572,15.223c7.434,18.57,25.891,30.883,46.137,30.883
	c0.317,0,0.638-0.003,0.957-0.011c17.444-0.334,30.597-8.329,39.095-23.761c3.698-6.715,5.678-14.588,5.73-22.772
	c0.005-0.117,0.002-0.226,0.007-0.342c0.005,0.009,0.01,0.018,0.014,0.027C132.437,97.617,132.634,101.006,132.458,104.703z
	 M124.797,85.499l-0.002,0.063c-0.038,6.832-1.681,13.388-4.749,18.959c-7.037,12.782-17.923,19.402-32.356,19.678
	c-0.267,0.006-0.533,0.008-0.799,0.008c-16.881,0-32.268-10.255-38.459-25.721c-3.543-8.852-3.99-17.339-1.357-25.33
	c0.009-0.014,0.018-0.029,0.026-0.043c-0.417,5.403,0.516,10.998,2.818,16.748c5.927,14.808,20.649,24.626,36.796,24.626
	c0.253,0,0.508-0.003,0.763-0.007c13.891-0.266,24.366-6.634,31.135-18.926c2.804-5.092,4.352-11.03,4.531-17.223
	c0.548,1.008,1.097,2.018,1.646,3.027C124.853,82.693,124.865,84.063,124.797,85.499z M121.179,77.316l-0.001,0.042
	c-0.035,6.207-1.528,12.165-4.317,17.23c-6.4,11.62-16.298,17.64-29.422,17.891c-15.661,0.311-29.95-9.09-35.664-23.362
	c-2.847-7.113-3.484-13.967-1.942-20.482c0.305-0.5,0.61-1.001,0.915-1.501c-0.197,4.57,0.66,9.288,2.598,14.128
	c5.35,13.365,18.635,22.226,33.209,22.226c0.229,0,0.459-0.002,0.689-0.006c12.539-0.24,21.996-5.988,28.107-17.085
	c2.437-4.426,3.823-9.558,4.068-14.918c0.6,1.103,1.199,2.206,1.799,3.309C121.23,75.612,121.22,76.451,121.179,77.316z
	 M53.263,63.013c0.263-0.431,0.525-0.86,0.788-1.291c-0.027,3.827,0.766,7.767,2.38,11.8c4.83,12.066,16.824,20.066,29.98,20.066
	c0.207,0,0.415-0.002,0.623-0.005c11.324-0.218,19.864-5.408,25.382-15.429c2.106-3.822,3.354-8.226,3.652-12.839
	c0.482,0.886,0.963,1.771,1.446,2.658c0.003,0.64-0.009,1.29-0.041,1.957l-0.001,0.042c-0.031,5.568-1.37,10.914-3.873,15.459
	c-5.742,10.425-14.623,15.824-26.395,16.05c-13.972,0.29-26.875-8.156-32.002-20.963C52.774,74.454,52.133,68.598,53.263,63.013z
	 M56.408,57.863c5.364-8.781,10.706-17.514,15.976-26.13c4.485-7.329,8.967-14.657,13.447-21.989l12.667,23.279
	c5.176,9.512,10.411,19.132,15.67,28.801c-0.002,0.479-0.007,0.96-0.03,1.457l-0.001,0.042c-0.029,4.996-1.23,9.791-3.474,13.866
	c-5.148,9.349-13.111,14.192-23.669,14.394c-12.557,0.234-24.108-7.316-28.707-18.804C56.222,67.622,55.604,62.634,56.408,57.863z
	 M42.025,81.448c0.159-0.261,0.318-0.522,0.477-0.783c-0.497,6.108,0.542,12.434,3.145,18.936
	c6.645,16.6,23.145,27.606,41.245,27.606c0.284,0,0.571-0.003,0.853-0.008c15.584-0.298,27.336-7.441,34.928-21.23
	c2.956-5.367,4.674-11.567,5.039-18.054c0.208,2.116,0.273,4.325,0.16,6.679l-0.002,0.084c-0.041,7.533-1.85,14.763-5.234,20.907
	c-7.758,14.088-19.759,21.386-35.667,21.691c-18.98,0.364-36.368-11.033-43.304-28.36C39.825,99.324,39.287,90.123,42.025,81.448z
	 M30.723,103.375c0.128,6.18,1.468,12.524,4.064,19.009c8.301,20.738,28.915,34.489,51.523,34.489c0.355,0,0.711-0.003,1.067-0.01
	c19.489-0.374,34.183-9.306,43.676-26.546c2.736-4.968,4.61-10.509,5.594-16.337c-0.011,0.65-0.009,1.29-0.041,1.957l-0.003,0.126
	c-0.05,9.213-2.262,18.051-6.396,25.558c-9.48,17.215-24.142,26.133-43.579,26.506c-23.18,0.464-44.476-13.494-52.958-34.682
	C29.489,123.001,28.523,112.94,30.723,103.375z M16.825,128.567c0.363,7.121,2.028,14.415,5.007,21.856
	c10.312,25.76,35.912,42.839,63.991,42.839c0.44,0,0.885-0.003,1.328-0.013c24.215-0.464,42.477-11.562,54.275-32.986
	c3.435-6.237,5.797-13.196,7.009-20.52c-0.013,0.849-0.035,1.705-0.077,2.577l-0.004,0.147c-0.064,11.409-2.803,22.353-7.922,31.65
	c-11.743,21.321-29.903,32.366-53.977,32.828c-0.446,0.008-0.889,0.013-1.334,0.013c-28.197-0.002-53.901-17.129-64.239-42.957
	C15.967,151.725,14.62,139.871,16.825,128.567z M155.107,157.764l-0.004,0.147c-0.072,12.742-3.133,24.966-8.852,35.352
	c-13.119,23.822-33.409,36.161-60.307,36.678c-32.056,0.574-61.498-18.66-73.227-47.96c-5.877-14.68-7.184-28.82-3.948-42.248
	c0.076,8.727,1.942,17.698,5.614,26.871c11.399,28.475,39.699,47.355,70.74,47.355c0.486,0,0.978-0.005,1.467-0.015
	c26.758-0.512,46.936-12.776,59.973-36.449c4.719-8.569,7.608-18.369,8.494-28.647C155.237,151.699,155.255,154.662,155.107,157.764
	z" class="color c1"/>
</svg>