<svg version="1.1" id="图层_1" x="0px" y="0px" width="79.172px" height="102.604px" viewBox="0 0 79.172 102.604" enable-background="new 0 0 79.172 102.604" xml:space="preserve" xmlns="http://www.w3.org/2000/svg" xmlns:xlink="http://www.w3.org/1999/xlink" xmlns:xml="http://www.w3.org/XML/1998/namespace">
  <path fill="#FF78AC" d="M25.148,4.056C32.73-1.38,46.882-1.318,54.014,4.037c0.521,1.093,2.481,5.847,1.481,13.767
	c-1.578-0.983-3.935-2.218-6.935-3.144l0.002-0.002c-0.078-0.025-0.155-0.048-0.233-0.072c-0.013-0.003-0.024-0.007-0.039-0.012
	c-10.122-3.082-18.582,0.451-18.582,0.451l0.001,0.002c-2.56,0.887-4.614,1.96-6.033,2.824C22.662,9.949,24.616,5.177,25.148,4.056z
	 M8.784,26.922c0-0.083,0.055-8.467,7.807-15.977l3.876-3.755c-2.43,15.474,7.048,32.106,16.962,44.32
	c-3.446,4.064-7.533,8.391-12.372,12.959C16.998,54.143,8.843,40.052,8.784,26.922z M13.233,102.604l-0.138-9.774
	c-0.011-0.783-0.574-1.449-1.344-1.592L0,89.064c21.369-15.287,48.523-38.453,56.738-63.425c2.638-8.021,2.637-14.231,1.976-18.438
	l3.868,3.747c5.023,4.865,7.609,11.05,7.807,16.052c-0.039,2.174-0.289,4.438-0.744,6.769c0,0-2.151,8.362-5.808,15.858
	C53.078,70.215,31.522,89.049,13.233,102.604z M67.42,91.237c-0.77,0.143-1.332,0.809-1.343,1.592l-0.138,9.774
	c-8.982-6.661-17.027-13.317-23.967-19.838c4.67-4.533,8.838-9.021,12.495-13.458c7.146,6.497,15.438,13.127,24.703,19.756
	L67.42,91.237z" class="color c1"/>
</svg>