<svg version="1.1" id="图层_1" x="0px" y="0px" width="110.154px" height="153.587px" viewBox="0 0 110.154 153.587" enable-background="new 0 0 110.154 153.587" xml:space="preserve" xmlns="http://www.w3.org/2000/svg" xmlns:xlink="http://www.w3.org/1999/xlink" xmlns:xml="http://www.w3.org/XML/1998/namespace">
  <path fill="#EA502E" d="M87.268,69.167c1.71,3.381,3.399,6.913,4.95,10.389c4.493,10.07,6.803,20.267,3.279,31.304
	c-6.123,19.179-25.565,32.179-44.805,29.558c-21.58-2.939-37.472-19.788-37.583-40.799c-0.029-5.555,1.685-11.368,3.705-16.638
	c2.44-6.368,5.326-12.502,8.5-18.483c2.079-3.917,4.282-7.769,6.564-11.577c3.508-5.855,7.203-11.608,10.925-17.34
	c3.886-5.986,7.963-11.848,12.024-17.872c0.602,0.485,0.93,0.648,1.114,0.911C62.61,28.158,69.265,38.101,75.33,48
	c5.007-1.573,9.515-2.402,13.688-2.417C80.364,30.927,70.328,16.468,60.276,2.641c-2.68-3.687-7.556-3.421-10.479,0.217
	c-2.02,2.515-3.867,5.172-5.719,7.817c-9.247,13.201-18.264,26.541-26.156,40.542c-2.498,4.431-4.879,8.931-7.122,13.513
	c-1.666,3.405-3.264,6.85-4.761,10.355c-3.393,7.941-6.268,16.089-6.026,24.898c0.814,29.714,25.4,53.589,55.094,53.605
	c38.633-0.103,64.995-39.118,51.448-72.802c-1.466-3.645-3.216-7.552-4.83-11.035C96.518,68.625,90.332,68.592,87.268,69.167z" class="color c1"/>
</svg>