<svg version="1.1" id="图层_1" x="0px" y="0px" width="60px" height="60px" viewBox="0 0 60 60" enable-background="new 0 0 60 60" xml:space="preserve" xmlns="http://www.w3.org/2000/svg" xmlns:xlink="http://www.w3.org/1999/xlink" xmlns:xml="http://www.w3.org/XML/1998/namespace">
  <path fill="#FFFFFF" d="M56.753,19H41V2.386C41,0.833,39.557,0,38.003,0H21.128C19.575,0,19,0.833,19,2.386V19H2.378
	C0.825,19,0,19.583,0,21.136v16.875C0,39.564,0.825,41,2.378,41H19v15.761C19,58.314,19.575,60,21.128,60h16.875
	C39.557,60,41,58.314,41,56.761V41h15.753C58.307,41,60,39.564,60,38.011V21.136C60,19.583,58.307,19,56.753,19z" class="color c1"/>
</svg>