<svg version="1.1" id="图层_1" x="0px" y="0px" width="186.814px" height="186.813px" viewBox="0 0 186.814 186.813" enable-background="new 0 0 186.814 186.813" xml:space="preserve" xmlns:xml="http://www.w3.org/XML/1998/namespace" xmlns="http://www.w3.org/2000/svg" xmlns:xlink="http://www.w3.org/1999/xlink">
  <path fill="#E14860" d="M70.998,109.794c-1.377,0-2.442-0.4-2.997-1.128c-0.318-0.418-0.374-0.965-0.146-1.427
	c0.41-0.83,1.657-1.021,2.271-0.318c0.096,0.04,0.36,0.107,0.824,0.107c1.33,0,3.433-0.611,3.727-1.922
	c0.201-0.898-0.046-2.045-0.283-2.944c-0.11-0.416-0.027-0.847,0.228-1.179c0.261-0.34,0.679-0.543,1.116-0.543
	c0.626,0,1.155,0.411,1.314,1.021c0.317,1.199,0.639,2.767,0.307,4.247C76.765,108.362,73.638,109.794,70.998,109.794z
	 M149.514,97.594c-0.08,0.418,0.023,0.841,0.285,1.159c0.268,0.323,0.683,0.518,1.113,0.518c0.677,0,1.24-0.466,1.373-1.136
	c0.178-0.912,0.137-1.901-0.108-2.648c-0.193-0.588-0.713-0.968-1.323-0.968c-0.468,0-0.905,0.222-1.175,0.594
	c-0.262,0.361-0.329,0.819-0.184,1.259C149.593,96.67,149.602,97.15,149.514,97.594z M76.093,111.264
	c-0.378,0-0.735,0.156-1.004,0.437c-0.25,0.258-1.029,0.519-2.036,0.519c-0.269,0-0.529-0.021-0.734-0.057l-0.263-0.023
	c-0.724,0-1.32,0.556-1.386,1.293c-0.065,0.742,0.418,1.375,1.151,1.506c0.388,0.07,0.809,0.105,1.251,0.105
	c0.814,0,2.841-0.135,4.046-1.385c0.399-0.414,0.51-0.992,0.289-1.512C77.184,111.619,76.656,111.264,76.093,111.264z
	 M48.867,102.368c0.449,0,0.878-0.209,1.147-0.559c0.262-0.342,0.347-0.783,0.232-1.215c-0.103-0.385-0.105-0.59-0.01-0.914
	c0.127-0.433,0.051-0.882-0.211-1.232c-0.269-0.358-0.702-0.573-1.159-0.573c-0.631,0-1.156,0.397-1.335,1.009
	c-0.244,0.825-0.247,1.555-0.011,2.439C47.685,101.948,48.227,102.368,48.867,102.368z M43.244,100.297
	c0.26-0.373,0.318-0.839,0.159-1.277c-0.046-0.128-0.067-0.437-0.08-0.46c0.3-0.439,0.335-0.977,0.092-1.436
	c-0.248-0.469-0.749-0.771-1.275-0.771c-0.46,0-0.878,0.225-1.146,0.615c-0.599,0.873-0.546,2.173-0.243,3.014
	c0.205,0.562,0.718,0.926,1.307,0.926C42.532,100.907,42.976,100.678,43.244,100.297z M117.733,48.1
	c-0.9-0.195-2.056-2.446-2.133-3.765c-0.043-0.756-0.647-1.326-1.405-1.326c-0.397,0-0.776,0.161-1.04,0.439
	c-0.262,0.277-0.395,0.647-0.372,1.047c0.115,1.968,1.667,5.779,4.352,6.364c0.104,0.023,0.209,0.034,0.313,0.034
	c0.711,0,1.306-0.547,1.383-1.271C118.91,48.895,118.447,48.256,117.733,48.1z M115.801,109.795c1.383,0,2.452-0.403,3.008-1.133
	c0.32-0.419,0.376-0.967,0.146-1.431c-0.236-0.477-0.729-0.785-1.256-0.785c-0.391,0-0.758,0.17-1.018,0.47
	c-0.098,0.039-0.363,0.107-0.833,0.107c-1.339,0-3.459-0.616-3.756-1.938c-0.202-0.901,0.046-2.059,0.285-2.964
	c0.11-0.419,0.027-0.85-0.228-1.183c-0.262-0.341-0.68-0.544-1.118-0.544c-0.629,0-1.158,0.413-1.316,1.023
	c-0.319,1.211-0.642,2.79-0.31,4.271C110.003,108.355,113.147,109.795,115.801,109.795z M143.407,99.019
	c-0.158,0.44-0.101,0.905,0.161,1.277c0.268,0.382,0.711,0.61,1.187,0.61c0.589,0,1.102-0.363,1.306-0.927
	c0.304-0.839,0.357-2.138-0.241-3.013c-0.268-0.391-0.686-0.615-1.146-0.615c-0.528,0-1.029,0.303-1.276,0.772
	c-0.232,0.439-0.21,0.949,0.056,1.377C143.472,98.625,143.452,98.898,143.407,99.019z M136.797,101.808
	c0.27,0.35,0.698,0.56,1.148,0.56c0.641,0,1.183-0.42,1.348-1.045c0.237-0.884,0.234-1.613-0.01-2.438
	c-0.18-0.613-0.705-1.01-1.336-1.01c-0.458,0-0.891,0.215-1.16,0.573c-0.262,0.352-0.338,0.801-0.211,1.23
	c0.096,0.325,0.094,0.531-0.01,0.915C136.451,101.023,136.535,101.466,136.797,101.808z M69.377,50.892c0.1,0,0.202-0.011,0.3-0.032
	c1.093-0.238,2.11-1.051,2.941-2.35c0.785-1.226,1.339-2.802,1.411-4.021c0.02-0.378-0.109-0.741-0.363-1.021
	c-0.253-0.28-0.599-0.443-1.047-0.465c-0.75,0-1.369,0.587-1.407,1.329c-0.036,0.605-0.354,1.694-0.97,2.655
	c-0.47,0.736-0.91,1.057-1.169,1.113c-0.758,0.168-1.239,0.923-1.075,1.678C68.137,50.425,68.717,50.892,69.377,50.892z
	 M114.754,112.139l-0.263,0.023c-0.205,0.036-0.465,0.057-0.733,0.057c-1.007,0-1.786-0.261-2.034-0.516
	c-0.271-0.283-0.628-0.439-1.005-0.439c-0.563,0-1.091,0.354-1.315,0.883c-0.22,0.518-0.109,1.098,0.289,1.512
	c1.206,1.25,3.231,1.385,4.047,1.385c0.441,0,0.862-0.035,1.246-0.104c0.733-0.129,1.219-0.761,1.154-1.504
	C116.075,112.696,115.479,112.139,114.754,112.139z M37.132,95.112c-0.269-0.371-0.707-0.593-1.173-0.593
	c-0.611,0-1.13,0.381-1.323,0.966c-0.247,0.747-0.288,1.738-0.109,2.651c0.131,0.668,0.695,1.135,1.373,1.135
	c0.43,0,0.848-0.194,1.114-0.519c0.262-0.318,0.365-0.741,0.283-1.157c-0.086-0.446-0.078-0.927,0.02-1.226
	C37.461,95.931,37.393,95.474,37.132,95.112z M186.814,93.407c0,51.504-41.902,93.406-93.408,93.406
	C41.902,186.813,0,144.911,0,93.407C0,41.902,41.902,0,93.406,0C144.912,0,186.814,41.902,186.814,93.407z M40.693,166.223
	c-0.047,0.207-0.135,0.394-0.248,0.561c8.799,6.369,18.783,11.194,29.554,14.08l6.244-12.961c-0.013-0.261,0.027-0.523,0.135-0.769
	c1.146-2.617,2.605-5.105,4.15-7.738c4.283-7.299,8.691-14.812,5.844-24.958c-0.736-2.623-1.604-4.399-2.522-6.28
	c-2.626-5.368-3.748-9.571-4.294-16.082c-0.264-3.124-0.623-7.389-1.707-10.71c-0.912-2.799-2.763-6.136-6.396-6.136
	c-0.281,0-0.574,0.02-0.871,0.058c-1.334,0.175-2.328,0.71-3.038,1.636c-2.133,2.777-1.365,8.588-0.805,12.828
	c0.356,2.702,0.98,5.399,1.583,8.008c0.659,2.852,1.341,5.801,1.695,8.817c0.237,2.013-0.083,3.84-0.393,5.607
	c-0.273,1.557-0.53,3.027-0.419,4.587c0.036,0.486-0.12,0.941-0.436,1.281c-0.322,0.347-0.788,0.545-1.28,0.545
	c-0.92,0-1.635-0.665-1.701-1.582c-0.132-1.834,0.164-3.531,0.449-5.173c0.291-1.674,0.566-3.255,0.376-4.868
	c-0.342-2.903-1.009-5.795-1.655-8.59c-0.612-2.651-1.245-5.394-1.614-8.184c-0.587-4.438-1.317-9.961,0.48-13.852
	c0.403-0.87,0.686-1.303,0.874-1.59c0.242-0.369,0.257-0.392,0.316-2.204c0.18-5.549,1.01-11.326,2.532-17.615
	c-0.434-0.12-0.793-0.443-0.952-0.878c-0.268-0.721,0.106-1.533,0.835-1.806c0.227-0.084,0.436-0.193,0.623-0.325
	c0.248-0.177,0.316-0.241,0.335-0.264c0.027-0.062,0.044-0.155,0.079-0.288l0.064-0.238c1.044-3.782,2.339-7.836,3.954-12.376
	c-0.486-0.22-0.812-0.699-0.816-1.271c-0.007-0.783,0.601-1.407,1.382-1.42c0.411-0.007,0.411-0.007,0.635-0.611
	c0.778-2.1,1.599-4.252,2.463-6.461c0.607-1.555,0.672-3.101,0.184-4.351c-0.527-1.348-1.99-2.404-3.329-2.404
	c-0.437,0-0.845,0.113-1.212,0.335c-0.725,0.439-1.434,1.287-2.048,2.45C63.546,56.758,56.828,75.661,53.404,91
	c-0.175,0.796-0.837,1.333-1.647,1.333c-0.537,0-1.053-0.242-1.378-0.648c-0.319-0.396-0.431-0.902-0.316-1.424
	c3.485-15.615,10.333-34.869,16.652-46.826c0.918-1.74,2.029-3.015,3.306-3.786c0.815-0.493,1.684-0.772,2.579-0.83
	c0.076-0.005,0.147-0.008,0.213-0.009l0.028-0.132c0.249-1.152,0.485-3.34-0.727-5.056c-0.443-0.626-1.165-1.37-2.104-1.413
	c0.065,0.052,0.124,0.109,0.18,0.172c0.265,0.305,0.379,0.701,0.321,1.114c-0.366,2.54-1.762,5.912-4.493,7.071
	c-0.747,0.32-1.627-0.097-1.883-0.852c-0.396,0.884-0.798,1.817-1.21,2.814c-2.03,4.894-3.691,9.026-5.23,13.004
	c-4.73,12.238-8.284,23.033-11.183,33.971c-0.202,0.769-0.843,1.269-1.631,1.269c-0.551,0-1.076-0.254-1.402-0.679
	c-0.315-0.407-0.417-0.94-0.28-1.462c2.893-10.915,6.59-22.146,11.303-34.333c1.564-4.048,3.235-8.205,5.259-13.083
	c0.685-1.654,1.348-3.148,2.014-4.536c-0.331,0.185-0.651,0.428-0.967,0.731c-1.104,1.066-2.191,2.892-3.421,5.746
	c-0.329,0.762-0.663,1.539-0.999,2.331c-5.093,11.959-11.537,27.714-16.199,43.528c-0.218,0.742-0.852,1.222-1.615,1.222
	c-0.562,0-1.092-0.261-1.419-0.699c-0.315-0.42-0.407-0.962-0.253-1.49c4.715-15.991,11.156-31.796,16.396-44.053
	c-0.181,0.079-0.36,0.188-0.54,0.332c-0.904,0.717-1.821,2.134-2.919,4.038c-3.841,6.664-7.857,16.711-10.548,23.967
	c-4.663,12.568-8.323,24.707-9.168,29.181c-2.059,10.897,1.759,21.836,5.453,32.414C39.457,145.055,43.125,155.561,40.693,166.223z
	 M67.651,33.475c-0.329,0.351-0.649,0.763-0.955,1.226c-0.389,0.591-0.784,1.296-1.244,2.218c-0.168,0.338-0.336,0.684-0.505,1.037
	C66.364,37.33,67.312,35.272,67.651,33.475z M73.338,39.774l0.002-0.956c-0.031,0.001-0.063,0.005-0.096,0.012L73.338,39.774z
	 M116.813,180.865c10.769-2.885,20.751-7.709,29.549-14.075c-0.11-0.17-0.194-0.358-0.243-0.57
	c-2.431-10.658,1.234-21.162,5.117-32.284c3.695-10.586,7.515-21.524,5.456-32.422c-2.64-13.963-12.591-40.785-19.718-53.147
	c-1.132-1.962-2.016-3.321-2.918-4.038c-0.181-0.143-0.358-0.253-0.54-0.332c7.597,17.782,12.66,31.39,16.395,44.051
	c0.155,0.53,0.061,1.073-0.253,1.493c-0.327,0.438-0.859,0.698-1.419,0.698c-0.761,0-1.396-0.479-1.614-1.222
	c-4.933-16.729-11.783-33.296-17.2-45.859c-1.23-2.854-2.317-4.68-3.421-5.746c-0.329-0.316-0.652-0.564-0.975-0.746
	c0.116,0.242,0.232,0.485,0.348,0.73c6.75,14.467,13.567,33.619,18.237,51.234c0.137,0.523,0.035,1.057-0.278,1.464
	c-0.328,0.425-0.852,0.679-1.403,0.679c-0.788,0-1.428-0.499-1.63-1.271c-4.532-17.084-11.093-35.61-17.625-49.787
	c-0.256,0.755-1.13,1.172-1.886,0.852c-2.728-1.159-4.124-4.531-4.49-7.066c-0.058-0.417,0.055-0.814,0.32-1.118
	c0.056-0.064,0.117-0.122,0.182-0.175c-0.126,0.012-0.252,0.039-0.382,0.079c-2.511,0.786-2.88,4.062-2.514,6.071l0.046,0.257
	c0.012,0.07,0.023,0.134,0.034,0.192c0.14,0.005,0.3,0.014,0.488,0.035c0.8,0.09,1.58,0.361,2.316,0.806
	c1.275,0.772,2.387,2.047,3.306,3.788c6.321,11.959,13.167,31.214,16.65,46.823c0.118,0.522,0.006,1.027-0.312,1.425
	c-0.327,0.407-0.842,0.649-1.38,0.649c-0.809,0-1.473-0.537-1.648-1.336c-3.421-15.334-10.14-34.236-16.337-45.965
	c-0.615-1.163-1.324-2.01-2.049-2.45c-0.368-0.222-0.776-0.335-1.213-0.335c-1.339,0-2.802,1.057-3.329,2.405
	c-0.489,1.249-0.424,2.795,0.185,4.351c0.861,2.205,1.682,4.353,2.458,6.447c0.229,0.618,0.229,0.618,0.64,0.625
	c0.781,0.013,1.388,0.637,1.382,1.421c-0.005,0.574-0.334,1.056-0.816,1.274c1.531,4.302,2.77,8.156,3.785,11.768l0.104,0.382
	c0.26,0.969,0.271,1.008,1.162,1.336c0.649,0.239,1.018,0.881,0.898,1.561c-0.099,0.557-0.5,0.989-1.01,1.13
	c1.692,6.996,2.534,13.409,2.569,19.575c3.204,3.789,2.298,10.642,1.631,15.68c-0.376,2.85-1.018,5.634-1.639,8.326
	c-0.667,2.896-1.298,5.631-1.629,8.447c-0.19,1.612,0.085,3.191,0.376,4.864c0.285,1.643,0.581,3.342,0.448,5.178
	c-0.063,0.915-0.778,1.581-1.7,1.581c-0.491,0-0.958-0.198-1.281-0.545c-0.315-0.339-0.47-0.794-0.436-1.28
	c0.112-1.562-0.146-3.032-0.419-4.589c-0.31-1.767-0.629-3.593-0.393-5.605c0.344-2.922,1.018-5.844,1.67-8.669
	c0.612-2.654,1.244-5.397,1.609-8.153c0.561-4.243,1.329-10.053-0.805-12.831c-0.711-0.926-1.705-1.461-3.04-1.636
	c-0.295-0.038-0.589-0.058-0.87-0.058c-3.633,0-5.483,3.337-6.396,6.137c-1.083,3.32-1.442,7.585-1.706,10.697
	c-0.576,6.873-2.197,10.609-3.912,14.566c-0.995,2.296-2.024,4.669-2.906,7.808c-2.797,9.965,0.991,16.468,5.377,23.997
	c1.598,2.744,3.251,5.582,4.618,8.698c0.113,0.26,0.159,0.528,0.145,0.791L116.813,180.865z M113.604,39.76l0.07-0.926
	c-0.044-0.018-0.089-0.028-0.133-0.031L113.604,39.76z M121.861,37.954c-0.414-0.88-0.932-1.938-1.538-2.906
	c-0.396-0.633-0.784-1.16-1.165-1.582C119.494,35.261,120.443,37.322,121.861,37.954z M183.939,93.407
	c0-49.92-40.612-90.533-90.533-90.533c-49.919,0-90.532,40.613-90.532,90.533c0,28.848,13.563,54.588,34.647,71.179
	c1.816-9.436-1.577-19.203-5.18-29.525c-3.843-11.009-7.815-22.389-5.586-34.182c0.874-4.627,4.599-17.016,9.32-29.738
	c2.731-7.363,6.821-17.588,10.796-24.482c1.334-2.314,2.428-3.96,3.753-5.013c1.209-0.96,2.471-1.368,3.92-1.224
	c0.11,0.011,0.21,0.022,0.299,0.035c0.037-0.086,0.081-0.182,0.133-0.288c1.14-2.389,2.237-4.049,3.454-5.225
	c1.497-1.442,3.149-2.145,5.05-2.145c0.144,0.001,0.261,0.005,0.36,0.011l0.097-0.147c0.64-0.944,1.343-1.737,2.088-2.358
	c1.191-0.996,2.537-1.523,3.891-1.523c1.913,0,3.687,1.018,4.995,2.867c1.436,2.029,1.97,5.167,1.301,7.632
	c-0.043,0.157-0.068,0.266-0.085,0.34c0.062,0.04,0.136,0.083,0.219,0.135c1.537,0.962,2.605,2.19,3.177,3.649
	c0.803,2.056,0.737,4.487-0.184,6.847c-3.892,9.953-6.385,17.34-8.082,23.951c-1.607,6.263-2.516,11.947-2.777,17.378l-0.015,0.311
	c-0.007,0.138-0.014,0.273-0.02,0.402c0.426-0.149,0.986-0.306,1.693-0.396c5.043-0.671,9.003,2.388,10.967,8.411
	c1.209,3.706,1.587,8.197,1.863,11.477c0.508,6.053,1.54,9.937,3.943,14.85c0.954,1.951,1.939,3.966,2.758,6.881
	c3.241,11.545-1.759,20.064-6.17,27.581c-1.504,2.565-2.915,4.968-3.985,7.413c-0.055,0.126-0.133,0.236-0.214,0.343l0.236,0.103
	l-6.094,12.763c6.426,1.452,13.106,2.223,19.964,2.223c6.858,0,13.539-0.77,19.964-2.223l-6.094-12.763l0.232-0.101
	c-0.08-0.107-0.156-0.219-0.212-0.347c-1.368-3.12-3.022-5.967-4.621-8.719c-4.477-7.703-8.705-14.98-5.533-26.273
	c0.911-3.241,1.963-5.66,2.98-8c1.635-3.758,3.18-7.309,3.72-13.722c0.275-3.281,0.653-7.775,1.865-11.486
	c1.961-6.022,5.911-9.08,10.968-8.41c0.591,0.075,1.158,0.199,1.687,0.365c-0.224-5.823-1.199-11.946-2.979-18.719
	c-1.696-6.451-4.135-13.636-7.911-23.292c-0.921-2.357-0.987-4.788-0.183-6.847c0.61-1.561,1.684-2.81,3.108-3.61l0.279-0.154
	c0.001,0,0.001-0.001,0.002-0.001c-0.032-0.165-0.079-0.383-0.124-0.585c-0.854-3.863,0.555-8.693,4.846-10.038
	c2.531-0.79,5.104,0.375,7.193,3.246c0.164,0.226,0.282,0.402,0.372,0.541c0.157-0.006,0.362-0.009,0.626,0.002
	c1.795,0.062,3.362,0.763,4.79,2.14c1.254,1.212,2.391,2.955,3.579,5.485l0.014,0.028c0.042-0.006,0.086-0.013,0.133-0.018
	c1.517-0.182,2.829,0.211,4.08,1.205c1.329,1.056,2.422,2.7,3.754,5.014c7.409,12.854,17.375,39.71,20.118,54.22
	c2.227,11.794-1.746,23.173-5.587,34.176c-3.604,10.326-6.998,20.097-5.182,29.532C170.376,147.996,183.939,122.256,183.939,93.407z
	" class="color c1"/>
</svg>