<svg version="1.1" id="图层_1" x="0px" y="0px" width="129.383px" height="129.993px" viewBox="8.309 -56.686 129.383 129.993" enable-background="new 8.309 -56.686 129.383 129.993" xml:space="preserve" xmlns="http://www.w3.org/2000/svg" xmlns:xlink="http://www.w3.org/1999/xlink" xmlns:xml="http://www.w3.org/XML/1998/namespace">
  <g>
    <polygon fill="#E2652B" points="111.192,-27.686 81.192,-27.686 81.192,-56.686 64.192,-56.686 64.192,-27.686 35.192,-27.686 
		35.192,-9.686 64.192,-9.686 64.192,19.314 81.192,19.314 81.192,-9.686 111.192,-9.686 	" class="color c1"/>
    <g>
      <g>
        <path fill="#013571" d="M82.715,73.308c0,0-9.797-19.113,9.043-32.346c18.84-13.233,24.111-20.576,24.111-20.576
				s10.549-2.939,6.027,5.881c-3.033,5.631-7.127,10.62-12.055,14.695c0,0,14.316-2.939,18.084-14.701s0-18.376,9.043-20.582
				c0,0,4.52,22.051-9.043,35.283c-13.563,13.23-29.389,18.375-30.143,32.346H82.715z" class="color c2"/>
        <path fill="#013571" d="M63.288,73.308c0,0,9.797-19.113-9.043-32.346C35.407,27.729,30.131,20.386,30.131,20.386
				s-10.549-2.939-6.027,5.881c3.033,5.631,7.127,10.62,12.057,14.695c0,0-14.318-2.939-18.086-14.701s0-18.376-9.043-20.582
				c0,0-4.52,22.051,9.043,35.283c13.563,13.23,29.389,18.375,30.143,32.346H63.288z" class="color c2"/>
      </g>
    </g>
  </g>
</svg>