<svg version="1.1" id="图层_1" x="0px" y="0px" width="91.211px" height="81.32px" viewBox="0 0 91.211 81.32" enable-background="new 0 0 91.211 81.32" xml:space="preserve" xmlns="http://www.w3.org/2000/svg" xmlns:xlink="http://www.w3.org/1999/xlink" xmlns:xml="http://www.w3.org/XML/1998/namespace">
  <path fill="#FBA1BF" d="M19.57,39.948c-0.595-9.104-4.061-13.297-9.457-14.185c7.605-5.763,14.186-5.518,17.338,0
	c5.852,9.651,11.031,7.092,17.336,0.786c12.609-11.031,27.582-0.786,40.979-8.668C82.4,28.551,77.609,30.84,72.369,30.491
	c2.363,8.669-5.518,12.609-9.457,11.821c-0.777,9.134-6.663,12.04-15.762,11.031c7.063,9.829,16.672,12.521,30.992,2.016
	c31.371-38.597,0.514-75.779-32.174-41.812c-38.22-41.373-80.774,20.884,0,67.771c11.424-6.438,20.338-13.352,27.135-20.329
	C52.176,80.07,18.844,64.64,19.57,39.948z" class="color c1"/>
</svg>