<svg version="1.1" id="图层_1" x="0px" y="0px" width="102.242px" height="175.385px" viewBox="0 0 102.242 175.385" enable-background="new 0 0 102.242 175.385" xml:space="preserve" xmlns="http://www.w3.org/2000/svg" xmlns:xlink="http://www.w3.org/1999/xlink" xmlns:xml="http://www.w3.org/XML/1998/namespace">
  <path fill="#173058" d="M15.08,15.079C-4.944,35.108-5.037,67.463,14.867,87.375c5.741,5.741,15.998,10.393,15.998,10.393
	c2.073,0.94,5.452,2.514,7.506,3.496c0,0,2.255,1.075,4.493,3.313c2.68,2.681,2.669,13.229-0.025,15.924
	c-0.878,0.878-0.878,0.878-0.878,0.878c-1.2,0.438-2.194,2.303-2.206,4.142c-0.009,1.842,0.138,5.201,0.33,7.47l-0.013,4.808
	c-0.204,2.268-0.377,12.183-0.384,14.46l-0.015,5.045c-0.007,2.075,0.617,5.211,1.431,7.328c-1.974,0.153-3.606,1.714-3.761,3.755
	l-0.067,0.891c-0.173,2.272,1.54,4.294,3.81,4.493l18.193,1.601c2.266,0.2,4.265-1.495,4.436-3.765l0.07-0.894
	c0.17-2.272-1.544-4.293-3.812-4.492l-0.239-0.021c0.363-0.631,0.555-1.049,0.555-1.049c0.934-2.078,1.705-5.641,1.71-7.92
	l0.015-11.237c0.004-2.277-0.145-5.998-0.337-8.268l0.03-4.803c0.198-2.27,0.368-5.632,0.378-7.472
	c0.008-1.84-0.964-3.698-2.163-4.13c0,0,0,0-0.873-0.872c-2.678-2.679-2.667-13.229,0.028-15.924c2.254-2.254,4.51-3.343,4.51-3.343
	c2.052-0.992,5.423-2.579,7.492-3.527c0,0,10.306-4.72,16.081-10.496c20.024-20.026,20.121-52.379,0.215-72.291
	C67.463-5.038,35.108-4.944,15.08,15.079z M92.601,51.024c-0.05,10.689-4.111,21.3-12.285,29.479
	c-8.18,8.175-18.791,12.236-29.48,12.286C40.149,92.803,29.56,88.802,21.427,80.68C13.305,72.544,9.304,61.958,9.318,51.271
	c0.046-10.693,4.11-21.301,12.283-29.482c8.182-8.174,18.788-12.236,29.481-12.282c10.691-0.018,21.271,3.986,29.409,12.106
	C88.612,29.75,92.619,40.333,92.601,51.024z M25.545,26.152c-13.822,13.821-13.822,36.233,0,50.055
	C39.367,90.029,61.78,90.03,75.602,76.208c13.823-13.823,13.821-36.234,0-50.056C61.779,12.33,39.369,12.329,25.545,26.152z
	 M41.65,31.901c-4.115,1.837-6.954,4.672-8.945,8.639c-1.989,3.969-2.559,7.939-1.572,12.336c0.987,4.396-5.537,6.092-6.525,1.694
	c-1.554-6.101-1.122-11.913,1.863-17.157c2.416-5.528,6.815-9.352,12.634-11.756C43.218,23.818,45.764,30.061,41.65,31.901z" class="color c1"/>
</svg>