<svg version="1.1" id="图层_1" x="0px" y="0px" width="196.496px" height="178.656px" viewBox="0 0 196.496 178.656" enable-background="new 0 0 196.496 178.656" xml:space="preserve" xmlns="http://www.w3.org/2000/svg" xmlns:xlink="http://www.w3.org/1999/xlink" xmlns:xml="http://www.w3.org/XML/1998/namespace">
  <path fill="#177F40" d="M22.408,66.952C9.638,69.855,1.551,73.513,0.291,77.533H0c0,0,0,0,0,0.601c0,0,0,0.303,0,0.604
	c0,0,0,0,0,0.304c0,0.303,0,0.604,0,0.909c0,1.388,0.037,2.769,0.094,4.141C4.793,78.405,12.387,70.965,22.408,66.952z
	 M38.047,64.111c6.646,0.191,13.943,2.123,21.82,6.642c0.49-0.047,1.006-0.086,1.502-0.131c-4.098-1.798-8.412-4.323-12.633-7.856
	C45.008,63.17,41.435,63.622,38.047,64.111z M166.519,65.421l26.643-42.998c3.644-5.752,2.125-13.02-3.026-16.956l-3.625-2.729
	c-5.158-3.932-12.113-3.63-16.966,0.909l-59.344,56.62c-0.932,0-7.397-0.151-21.335,0.103c0.479,2.201,0.875,4.525,1.164,7.001
	l0.207,1.771c2.693-0.057,5.474-0.094,8.156-0.094c0.6,0,1.813,0,2.721,0L81.441,87.825c0,0,36.936,3.93,71.754-0.911l7.57-12.717
	c11.811,2.426,18.467,5.447,18.467,9.079c0,7.574-36.33,13.931-80.84,13.931c-16.499,0-30.363,2.121-43.174,0.655
	c-11.404,5.884-31.406,9.149-55.098-0.655c7.1,47.296,48.775,81.45,97.967,81.45c54.507,0,98.408-44.508,98.408-99.011
	c0-0.3,0-0.3,0-0.604c0-0.304,0-0.304,0-0.304c0-0.303,0-0.303,0-0.604c0-0.3,0-0.601,0-0.601
	C194.682,72.681,183.48,68.45,166.519,65.421z" class="color c1"/>
</svg>