<svg version="1.1" id="图层_1" x="0px" y="0px" width="150.86px" height="94.091px" viewBox="0 0 150.86 94.091" enable-background="new 0 0 150.86 94.091" xml:space="preserve" xmlns="http://www.w3.org/2000/svg" xmlns:xlink="http://www.w3.org/1999/xlink" xmlns:xml="http://www.w3.org/XML/1998/namespace">
  <path fill="#FFFFFF" d="M150.86,28.328c-15.414-0.632-16.838,21.138-29.177,41.428c-10.275,13.307-19.66,19.669-38.889,23.41
	c-19.935,3.057-40.348-1.623-53.437-11.642c4.402,0.854,8.087,0.711,10.627-1.024C19.58,76.473,8.368,60.749,6.105,50.286
	c1.835,1.294,3.934,1.889,6.262,1.883C1.238,42.109-3.801,24.528,3.256,0c9.526,4.553,27.036,7.172,34.656,25.844l-0.126-9.34
	c11.321,5.697,18.155,14.93,17.431,30.12c2.665-1.766,3.505-6.22,3.931-11.285c12.097,14.053,13.508,35.272,22.5,42.731
	C55.18,71.94,40.464,59.06,29.604,43.965c4.288,22.025,27.841,38.677,52.867,39.432c10.759,0.324,21.033-4.329,28.26-12.307
	c8.076-8.915,14.474-19.958,17.924-31.775c3.18-9.271,8.187-14.882,16.045-14.782c-6.125-15.856-22.632-24.334-47.98-5.638
	C109.72-7.105,150.72-3.105,150.86,28.328z M132.994,19.265c0.951-1.61,0.416-3.686-1.194-4.636
	c-1.61-0.951-3.686-0.416-4.636,1.194c-0.951,1.61-0.416,3.686,1.194,4.636C129.968,21.41,132.044,20.876,132.994,19.265z" class="color c1"/>
</svg>