<svg version="1.1" id="图层_1" x="0px" y="0px" width="62.535px" height="129.527px" viewBox="0 0 62.535 129.527" enable-background="new 0 0 62.535 129.527" xml:space="preserve" xmlns="http://www.w3.org/2000/svg" xmlns:xlink="http://www.w3.org/1999/xlink" xmlns:xml="http://www.w3.org/XML/1998/namespace">
  <path fill="#2CA5D6" d="M33.592,0.006C8.621-0.396,5.954,19.516,5.954,19.516S9.999,7.159,32.379,7.823
	c22.38,0.663,22.689,22.021,22.689,22.021s1.568,15.538-0.188,25.564c-27.226,13.829-43.31,0.833-43.31,0.833L9.627,45.256L0,48.331
	l0.408,58.896c2.566,7.127,12.545,23.66,31.48,22.211c23.186,1.045,30.646-21.101,30.646-21.101l-0.271-86.452
	C62.266,21.885,58.561,0.408,33.592,0.006z M25.284,120.41c0,0-17.628-2.375-17.511-22.545l0.592-33.76l10.072,3.754
	C18.437,67.859,12.619,116.917,25.284,120.41z" class="color c1"/>
</svg>