<svg version="1.1" id="图层_1" x="0px" y="0px" width="139.55px" height="180px" viewBox="0 0 139.55 180" enable-background="new 0 0 139.55 180" xml:space="preserve" xmlns="http://www.w3.org/2000/svg" xmlns:xlink="http://www.w3.org/1999/xlink" xmlns:xml="http://www.w3.org/XML/1998/namespace">
  <path fill="#EF444A" d="M139.078,161.544c-1.344-5.199-5.403-9.262-10.603-10.604v-11.316c0-10.19-8.262-18.451-18.452-18.451
	s-18.453,8.261-18.453,18.451v21.908c0,6.115-4.956,11.071-11.07,11.071c-6.115,0-11.072-4.956-11.072-11.071v-42.627h46.324
	c8.521-0.198,15.26-6.937,15.062-15.459c0-0.197,0-0.197,0-0.395V35.276c0.396-8.126-6.143-15.062-14.269-15.458
	c-0.198,0-0.595,0-0.793,0h-20.61v-3.963C95.141,7.135,87.215,0,78.495,0h-26.16c-8.719,0-16.646,7.135-16.646,15.854v3.963H15.078
	C6.954,19.62,0.215,26.357,0.017,34.482c0,0.199,0,0.595,0,0.793v67.776c-0.396,8.322,6.144,15.457,14.666,15.854
	c0.196,0,0.196,0,0.395,0h46.968v42.627c0,10.191,8.263,18.453,18.454,18.453c10.19,0,18.452-8.262,18.452-18.453v-21.908
	c0-6.114,4.957-11.07,11.071-11.07s11.071,4.956,11.071,11.07v11.316c-7.895,2.039-12.642,10.09-10.603,17.984
	c2.038,7.894,10.09,12.641,17.983,10.603S141.116,169.437,139.078,161.544z M47.579,19.817v-3.963
	c0.397-2.378,2.378-3.963,4.756-3.963h26.16c2.378,0,4.359,1.585,4.756,3.963v3.963H47.579z" class="color c1"/>
</svg>