<svg version="1.1" id="图层_1" x="0px" y="0px" width="183.829px" height="195.682px" viewBox="0 0 183.829 195.682" enable-background="new 0 0 183.829 195.682" xml:space="preserve" xmlns="http://www.w3.org/2000/svg" xmlns:xlink="http://www.w3.org/1999/xlink" xmlns:xml="http://www.w3.org/XML/1998/namespace">
  <g>
    <g>
      <path fill="#35ACFF" d="M173.084,85.903c-2.191,0.488-3.896,1.705-5.114,3.166c-1.705,1.949-4.627,2.68-7.063,1.949l-8.766-2.436
			c-2.435-0.73-4.14-2.436-4.87-4.871c-0.488-2.191-1.218-4.139-2.192-6.088c-1.218-2.678-0.73-5.844,1.461-7.793l12.663-12.418
			c2.191-2.191,5.601-2.436,8.279-0.975c0.73,0.488,1.705,0.73,2.679,0.975c2.679,0.486,5.844-0.244,7.792-1.949
			c4.87-4.383,4.14-12.176-1.705-15.342c-3.166-1.703-7.306-1.461-10.228,0.975c-2.192,1.705-3.166,3.896-3.41,6.332
			c-0.243,2.678-1.705,4.871-4.14,5.844L140.21,61.31c-2.679,1.217-5.601,0.486-7.793-1.461c-1.948-1.705-3.896-3.41-6.088-5.115
			c-2.436-1.703-3.653-4.869-2.679-7.791l1.461-4.871c0.244,0,0.73,0.244,0.974,0.244c5.845,0.973,11.202-3.41,10.958-9.498
			c0-3.652-2.435-6.818-5.844-8.279c-5.601-2.191-11.689,1.217-12.663,7.063c-0.487,2.191,0,4.139,0.974,5.844
			c1.218,2.436,0.731,5.357-0.73,7.305c-1.705,2.193-4.871,3.41-7.549,2.436c-2.436-0.73-4.627-1.217-7.062-1.703
			c-2.679-0.488-4.87-2.436-5.602-4.871L91.75,18.206c0.244,0,0.73-0.242,0.974-0.242c5.357-2.436,7.306-9.01,3.896-14.125
			c-2.191-2.922-5.845-4.383-9.498-3.652c-6.087,1.217-9.01,7.549-6.818,12.906c0.974,1.947,2.435,3.408,4.14,4.383
			c2.435,1.219,3.652,3.896,3.409,6.576l-1.217,16.07c-0.244,2.924-2.191,5.602-5.114,6.332c-4.627,1.219-8.767,2.922-12.907,5.113
			c-2.922,1.463-6.331,0.975-8.522-1.461l-3.896-4.383c0.243-0.242,0.487-0.486,0.73-0.73c3.896-4.383,2.679-11.445-2.679-14.367
			c-3.166-1.705-7.062-1.461-9.984,0.73c-4.87,3.652-4.87,10.715-0.487,14.611c1.705,1.461,3.652,2.191,5.601,2.191
			c2.678,0,4.87,1.947,5.845,4.383l0.974,2.436c0.974,2.436,0.487,5.357-1.461,7.305c-2.435,2.68-4.626,5.602-6.331,8.523
			c-1.461,2.436-4.14,3.652-6.818,3.41l-22.891-2.191c0-0.488,0-0.73,0-1.219c-0.244-5.844-5.602-10.227-11.445-8.766
			c-3.409,0.73-6.332,3.652-7.062,7.305c-1.218,6.088,3.653,11.201,9.497,11.201c2.192,0,4.14-0.73,5.601-2.191
			c1.948-1.705,5.114-1.705,7.306-0.73l14.124,7.063c2.679,1.217,4.14,4.139,3.896,7.063c-0.243,2.436-0.487,4.627-0.487,7.061
			c0,2.436,0.244,4.871,0.487,7.063c0.244,2.68-0.73,5.357-2.922,6.818l-16.315,11.445c-0.244-0.242-0.487-0.73-0.73-0.975
			c-3.896-4.383-10.958-4.139-14.611,0.975c-2.191,2.922-2.191,6.818-0.487,9.984c3.166,5.357,9.984,6.332,14.367,2.436
			c1.705-1.461,2.679-3.408,2.922-5.357c0.487-2.678,2.679-4.627,5.114-5.357l11.446-2.922c2.921-0.73,6.331,0.486,7.792,3.164
			c1.461,2.68,3.41,5.115,5.357,7.551c1.948,2.191,1.948,5.357,0.487,8.035l-3.409,5.846c-0.243-0.244-0.73-0.488-0.974-0.488
			c-5.357-2.191-11.688,0.73-12.906,6.818c-0.73,3.652,0.731,7.307,3.653,9.254c5.114,3.652,11.688,1.461,14.124-3.896
			c0.73-1.947,0.974-4.139,0.487-6.088c-0.73-2.678,0.487-5.357,2.435-7.063l0.731-0.729c2.436-1.949,5.601-2.193,8.279-0.488
			s5.601,3.166,8.523,4.383c2.922,1.219,4.626,4.141,4.383,7.307l-2.435,20.455c-0.487,0-0.731,0-1.218,0
			c-5.844,0-10.471,5.357-9.254,11.445c0.73,3.408,3.653,6.33,7.062,7.061c6.088,1.219,11.445-3.408,11.445-9.01
			c0-2.191-0.73-4.139-1.948-5.6c-1.704-2.193-1.704-5.113-0.487-7.307l10.715-20.211c0.73,0,1.46,0,1.948,0
			c4.626,0,9.253-0.488,13.393-1.705c2.679-0.73,5.601,0.244,7.55,2.436l7.305,9.498c-0.244,0.242-0.487,0.486-0.975,0.729
			c-4.139,4.141-3.652,11.203,1.461,14.611c2.922,1.949,7.062,1.949,9.984,0c5.114-3.408,5.845-10.227,1.705-14.367
			c-1.461-1.461-3.409-2.436-5.357-2.678c-2.679-0.244-4.87-2.436-5.601-4.871l-1.461-5.113c-0.974-2.922,0.244-6.088,2.679-7.793
			c3.409-2.191,6.332-4.871,9.01-7.793c1.948-2.191,5.357-2.678,8.036-1.705l20.699,8.768c-0.243,0.244-0.243,0.73-0.487,0.975
			c-1.705,5.6,2.192,11.443,8.523,11.932c3.652,0.244,7.062-1.705,8.767-4.871c2.922-5.357,0-11.932-5.602-13.393
			c-1.948-0.486-4.139-0.486-6.088,0.244c-2.435,0.973-5.357,0.242-7.305-1.463l-13.149-12.418
			c-1.948-1.949-2.679-4.871-1.705-7.549c1.948-5.602,2.921-11.445,2.921-17.777c0-0.486,0-0.975,0-1.461l16.56-1.705
			c0,0.488,0,0.73,0.244,1.219c1.217,5.6,7.549,9.01,13.149,6.33c3.166-1.461,5.357-4.869,5.357-8.521
			C184.287,88.825,178.685,84.442,173.084,85.903z M61.067,110.013c-4.627,0-5.844-6.576-5.844-12.664s3.896-10.957,8.523-10.957
			c8.523,0,9.741,6.818,9.741,12.906S65.694,110.013,61.067,110.013z M95.89,138.503c-6.331,0-13.394-4.627-13.394-10.227
			c0-5.602,7.55-8.279,13.881-8.279s10.958,2.434,10.958,8.279C107.335,133.876,102.221,138.503,95.89,138.503z M94.672,88.583
			c-7.062,0-15.585-6.088-15.585-13.881s8.766-13.881,15.585-13.881c7.062,0,12.663,3.166,12.663,10.959
			S101.734,88.583,94.672,88.583z M122.676,111.96c-6.818,0-12.419-6.33-12.419-11.201s5.601-6.332,12.419-6.332
			c6.819,0,12.419,3.896,12.419,8.768C135.096,108.063,129.495,111.96,122.676,111.96z" class="color c1"/>
    </g>
  </g>
</svg>