<svg version="1.1" id="图层_1" x="0px" y="0px" width="127.192px" height="189.944px" viewBox="0 0 127.192 189.944" enable-background="new 0 0 127.192 189.944" xml:space="preserve" xmlns="http://www.w3.org/2000/svg" xmlns:xlink="http://www.w3.org/1999/xlink" xmlns:xml="http://www.w3.org/XML/1998/namespace">
  <path fill="#109ECD" d="M127.178,135.565h-0.461l-10.893,0.01l-0.049-0.002c-9.445-0.111-18.428-2.805-25.847-7.663
	c-1.587-1.039-3.106-2.173-4.539-3.405c-8.505-7.326-13.117-17.098-12.989-27.513l0.039-3.563
	c0.127-10.328,4.902-19.922,13.447-27.022c1.268-1.054,2.605-2.025,3.992-2.93c7.526-4.911,16.666-7.584,26.243-7.584l0.526,0.004
	l10.068-0.008h0.396l-0.016-19.261c0.242-19.993-12.43-36.375-29.226-36.581l-3.566-0.044c-16.808-0.2-30.635,15.845-30.878,35.845
	L63.27,63.498l-26.639,0.02C16.626,63.278,0.249,76.71,0.041,93.513l-0.039,3.574c-0.206,16.798,15.839,30.629,35.846,30.867
	l27.053-0.021l-0.145,25.381c-0.24,20.004,13.192,36.383,29.996,36.59l3.573,0.039c16.799,0.206,30.63-15.839,30.867-35.846
	L127.178,135.565z" class="color c1"/>
</svg>