<svg version="1.1" id="图层_1" x="0px" y="0px" width="200px" height="200.001px" viewBox="0 0 200 200.001" enable-background="new 0 0 200 200.001" xml:space="preserve" xmlns="http://www.w3.org/2000/svg" xmlns:xlink="http://www.w3.org/1999/xlink" xmlns:xml="http://www.w3.org/XML/1998/namespace">
  <path fill="#9CDBFC" d="M59.548,10.217c-13.624-13.622-35.708-13.622-49.332,0c-13.622,13.623-13.622,35.71,0,49.332l40.452,40.452
	l-40.452,40.451c-13.622,13.623-13.622,35.709,0,49.332c6.812,6.811,15.738,10.217,24.666,10.217
	c8.928,0,17.854-3.406,24.666-10.217l89.783-89.783L59.548,10.217z" class="color c1"/>
  <polygon fill="#8CC8DD" points="50.668,100.001 82.458,33.127 149.332,100.001 84.203,165.13 " class="color c2"/>
  <path fill="#E21B46" d="M149.332,100.001l40.452-40.452c13.622-13.622,13.622-35.709,0-49.332
	c-13.624-13.622-35.708-13.622-49.332,0l-89.784,89.784l89.784,89.783c6.812,6.811,15.738,10.217,24.666,10.217
	s17.854-3.406,24.666-10.217c13.622-13.623,13.622-35.709,0-49.332L149.332,100.001z" class="color c3"/>
</svg>