<svg version="1.1" id="图层_1" x="0px" y="0px" width="200px" height="200px" viewBox="0 0 200 200" enable-background="new 0 0 200 200" xml:space="preserve" xmlns="http://www.w3.org/2000/svg" xmlns:xlink="http://www.w3.org/1999/xlink" xmlns:xml="http://www.w3.org/XML/1998/namespace">
  <path fill="#0162A1" d="M179.926,76.002h-21.992l15.551-15.549c7.838-7.841,7.838-20.551,0-28.391l-5.547-5.547
	c-7.84-7.841-20.553-7.841-28.391,0l-15.549,15.549V20.075C123.998,8.987,115.01,0,103.922,0h-7.844
	C84.99,0,76.002,8.988,76.002,20.075v21.99L60.451,26.517c-7.838-7.84-20.549-7.84-28.389,0l-5.547,5.546
	c-7.84,7.841-7.84,20.55,0,28.391l15.551,15.55h-21.99C8.988,76.003,0,84.99,0,96.079v7.842c0,11.088,8.986,20.074,20.076,20.074
	h21.99l-15.551,15.551c-7.84,7.841-7.84,20.55,0,28.391l5.547,5.545c7.84,7.84,20.551,7.843,28.389,0l15.551-15.548v21.99
	c0,11.087,8.986,20.076,20.076,20.076h7.844c11.088,0,20.076-8.989,20.076-20.076v-21.99l15.545,15.548
	c7.842,7.84,20.553,7.84,28.393,0l5.547-5.545c7.84-7.841,7.84-20.55,0-28.392l-15.549-15.55h21.99
	c11.088,0,20.076-8.986,20.076-20.074v-7.842C200,84.989,191.012,76.002,179.926,76.002z" class="color c1"/>
</svg>