<svg version="1.1" id="图层_1" x="0px" y="0px" width="135.668px" height="153.938px" viewBox="0 0 135.668 153.938" enable-background="new 0 0 135.668 153.938" xml:space="preserve" xmlns="http://www.w3.org/2000/svg" xmlns:xlink="http://www.w3.org/1999/xlink" xmlns:xml="http://www.w3.org/XML/1998/namespace">
  <path fill="#FFFFFF" d="M127.213,79.725c-10.479-4.685-13.715-0.238-24.988-5.082c-11.869-5.122-12.227-16.218-12.227-16.832
	c0.615-4.128,2.301-9.885,6.887-14.489c10.559-10.541,17.785-5.239,27.629-15.087c4.449-4.445,7.225-13.854,1.867-19.231
	C121,3.625,111.59,6.424,107.147,10.848c-9.846,9.847-4.547,17.091-15.084,27.631c-3.555,3.555-7.803,5.32-11.455,6.271
	c-1.844,0.201-12.146,0.934-10.598-9.447c1.111-7.643,6.928-7.563,7.92-14.688c0.436-3.236-2.025-8.078-6.986-8.754
	c-4.965-0.674-8.637,3.314-9.072,6.53c-0.992,7.146,4.703,8.653,3.652,16.298c-0.455,3.334-2.719,5.774-4.584,7.283
	c-2.682,1.865-8.836,3.83-18.58-6.111C31.106,24.366,38.372,14.996,27.75,4.379C22.948-0.405,11.913-2.55,4.688,4.695
	C-2.537,11.921-0.416,22.957,4.37,27.74c10.639,10.639,20.104,3.254,31.48,14.628c5.141,5.143,6.354,12.247,6.49,17.209
	c-0.021,0.079-1.111,7.423-5.734,6.846c-6.074-0.731-6.074-5.416-11.752-6.111c-2.561-0.316-6.371,1.689-6.869,5.638
	c-0.475,3.968,2.738,6.828,5.299,7.143c5.68,0.696,6.809-3.848,12.883-3.094c4.467,0.534,4.168,8.476,4.129,9.091
	c-0.674,2.818-2.004,6.135-4.744,8.892c-7.939,7.94-13.438,3.892-20.84,11.297c-3.354,3.333-5.42,10.438-1.311,14.547
	c4.09,4.09,11.195,2.024,14.529-1.31c7.424-7.404,2.162-14.352,11.295-20.843c9.092-6.448,16.037-0.653,17.17,0.397
	c2.5,3.474,4.684,7.941,4.684,13.181c0,16.097-11.912,17.564-11.912,32.593c0,6.787,6.293,16.096,16.516,16.096
	c10.242,0,16.533-9.309,16.533-16.096c0-15.028-11.928-16.496-11.928-32.593c0-4.764,1.807-8.912,4.01-12.227
	c0.813-0.975,6.887-7.82,12.168-2.562c4.346,4.309,0.475,8.117,3.988,12.625c1.588,2.043,5.697,3.314,8.834,0.872
	c3.156-2.459,2.896-6.77,1.307-8.791c-3.531-4.508-7.521-2.085-11.293-6.929c-1.35-1.707-1.189-4.385-0.672-6.768
	c0.377-1.411,2.58-7.225,11.85-2.896c11.111,5.177,9.941,10.556,20.402,15.24c4.725,2.127,12.406,2.343,14.373-2.023
	C137.198,87.427,131.92,81.848,127.213,79.725z" class="color c1"/>
</svg>