<svg version="1.1" id="图层_1" x="0px" y="0px" width="141.105px" height="200px" viewBox="0 0 141.105 200" enable-background="new 0 0 141.105 200" xml:space="preserve" xmlns="http://www.w3.org/2000/svg" xmlns:xlink="http://www.w3.org/1999/xlink" xmlns:xml="http://www.w3.org/XML/1998/namespace">
  <path fill="#EA3076" d="M55.767,28.577l-0.001-0.004c0.15-0.051,0.304-0.092,0.456-0.141c0.022-0.006,0.047-0.014,0.074-0.023
	c19.731-6.006,36.224,0.883,36.224,0.883l-0.002,0.004c4.989,1.727,8.993,3.822,11.76,5.504c1.979-15.406-1.83-24.711-2.869-26.895
	C86.629-2.688,59.041-2.569,45.143,7.87c-1.02,2.133-4.839,11.396-2.892,26.834C45.328,32.788,49.922,30.382,55.767,28.577z
	 M102.819,135.884c-0.995-0.844-1.991-1.684-2.983-2.538c0,0-9.771,14.383-28.613,20.229c2.6,3.25,10.965,9.117,13.886,11.598
	c9.874,8.382,19.85,16.146,29.35,23.129l0.254-17.791c0.021-1.426,1.054-2.639,2.468-2.895l21.557-3.955
	C127.289,155.539,114.945,146.18,102.819,135.884z M62.845,133.71c0.81-1.063,2.122-1.063,2.933,0l8.231,10.818
	c0.819,0.982,1.739,0.797,2.373,0.48c1.037-0.529,1.861-1.713,2.236-3.061l-9.553-12.558c-0.811-1.063-0.811-2.798,0-3.854
	c0.809-1.063,2.123-1.063,2.931,0l10.316,13.557c0.518,0.632,1.901,0.781,3.227-0.096c0.438-0.291,1.31-1.063,1.512-2.322
	l-11.771-15.471c-0.809-1.063-0.809-2.789,0-3.852c0.809-1.066,2.123-1.066,2.932,0l12.229,16.074
	c0.622,0.48,1.688,0.193,2.479-0.693c0.563-0.635,1.386-1.998,0.617-4.096c-1.555-4.25-8.468-11.596-14.563-18.074
	c-3.371-3.586-6.572-6.988-8.944-9.92c-0.192,0.102-0.348,0.191-0.514,0.283c-0.08-0.102-0.162-0.205-0.245-0.305
	c-1.275,0.752-2.142,1.211-3.685,1.51c-1.699,3.156-3.733,5.291-6.022,6.348c-1.957,0.768-4.07,0.725-6.279-0.232
	c-1.874-0.815-3.133-2.559-3.562-4.912c-0.713-3.958,1.064-8.953,3.17-12.836c0.537-0.875,1.089-1.721,1.66-2.473
	c0.919-1.217,1.826-2.393,2.739-3.498C49.767,73.329,43.707,61.76,39.831,49.975c-5.143-15.637-5.141-27.742-3.853-35.943
	l-7.54,7.303c-9.792,9.486-14.834,21.539-15.218,31.289c0.077,4.238,0.563,8.654,1.452,13.197c0,0,4.194,16.299,11.319,30.912
	c5.313,10.166,11.991,20.104,19.56,29.72l0.18-0.184c7.685,8.387,16.239,16.773,17.646,17.986c1.213,1.051,3.695,2.277,5.077,2.277
	c0.479,0,0.846-0.037,1.136-0.105l-6.747-8.866C62.037,136.501,62.037,134.776,62.845,133.71z" class="color c1"/>
  <path fill="#23AADC" d="M141.105,52.478c0-0.162-0.107-16.504-15.218-31.141l-7.557-7.318c4.199,26.736-9.845,55.244-26.549,77.959
	c-4.031-2.213-10.965-7.223-14.39-9.25c-8.25-4.873-12.155-2.369-19.729,7.652c-3.184,4.207-5.64,10.502-5.149,13.209
	c0.07,0.396,0.2,0.806,0.927,1.127c2.279,1.013,5.691,1.564,8.984-4.948c0.389-0.763,1.014-1.255,1.707-1.347
	c1.57-0.207,1.964-0.443,3.127-1.133c0.765-0.449,1.733-1.031,3.306-1.783c0.255-0.123,0.521-0.184,0.788-0.184
	c0.604,0,1.201,0.313,1.647,0.896c2.55,3.371,6.549,7.65,10.779,12.171c2.754,2.949,5.527,5.926,8.068,8.822
	c1.375,4.592,3.266,9.154,7.313,12.973C114.869,110.05,140.989,78.069,141.105,52.478z M0,173.606
	c18.063-12.92,34.55-24.258,48.48-36.924c7.133,8.649,14.927,15.813,24.031,24.649c-13.527,12.705-29.21,25.685-46.718,38.666
	l-0.268-19.051c-0.021-1.527-1.119-2.826-2.619-3.105L0,173.606z" class="color c2"/>
</svg>