<svg version="1.1" id="图层_1" x="0px" y="0px" width="200px" height="199.984px" viewBox="0 0 200 199.984" enable-background="new 0 0 200 199.984" xml:space="preserve" xmlns="http://www.w3.org/2000/svg" xmlns:xlink="http://www.w3.org/1999/xlink" xmlns:xml="http://www.w3.org/XML/1998/namespace">
  <path fill="#00ADEF" d="M176.872,99.924c-12.063,0-22.055,9.253-23.046,21.191c-17.039,5.258-25.899,16.996-30.341,25.977
	c-6.561,13.262-6.635,26.148-6.635,26.691c0,0.688-0.191,16.842-16.843,16.842c-6.925,0-11.82-2.686-14.549-7.982
	c-2.211-4.293-2.294-8.824-2.294-8.859v-25.602c3.758-1.799,6.149-5.559,6.149-9.758v-5.723c6.634-1.369,13.165-3.992,19.396-7.787
	l0.1-0.057c3.786-2.395,5.73-6.764,4.965-11.031c15.399-12.365,27.026-30.203,34.003-40.902l0.74-1.137
	c3.711-5.723,8.795-13.563,8.433-24.232c-0.489-13.57-10.018-26.738-26.167-36.195c-0.489-7.568-6.491-11.193-11.97-11.354
	C118.736,0.002,118.658,0,118.581,0h-6.274c-9.072,0-12.365,7.395-12.365,12.365c0,8.25,6.232,12.189,12.008,12.359
	c0.077,0.004,0.153,0.006,0.232,0.006h6.273c4.844,0,7.763-2.123,9.451-4.174c12.177,7.639,19.34,17.563,19.693,27.326
	c0.262,7.719-3.56,13.609-6.929,18.807l-0.733,1.121c-6.585,10.104-17.552,26.928-31.584,38.359
	c-3.363-1.875-7.685-1.758-10.954,0.291c-6.289,3.822-12.652,5.762-18.914,5.762c-6.268,0-12.639-1.943-18.935-5.775l-0.089-0.053
	c-3.265-1.889-7.439-1.93-10.732-0.156C34.717,94.941,23.67,77.994,17.038,67.818l-0.73-1.119
	c-3.373-5.201-7.196-11.096-6.936-18.809c0.352-9.848,7.527-19.76,19.725-27.295c1.688,2.031,4.601,4.135,9.42,4.135h6.274
	c0.078,0,0.156-0.002,0.215-0.004c5.792-0.172,12.025-4.111,12.025-12.361C57.031,7.395,53.738,0,44.665,0H38.39
	c-0.077,0-0.155,0.002-0.215,0.004c-5.524,0.164-11.539,3.813-11.994,11.432C10.035,20.713,0.508,33.857,0.018,47.566
	c-0.361,10.66,4.728,18.506,8.445,24.236l0.733,1.127c7.015,10.76,18.709,28.697,34.086,40.937
	c-0.665,4.213,1.207,8.541,4.791,10.932c0.058,0.039,0.116,0.076,0.153,0.096c6.294,3.832,12.826,6.457,19.429,7.813v5.717
	c0,4.199,2.393,7.959,6.149,9.758v25.602c0,0.266,0.037,6.557,3.186,12.852c3.044,6.09,9.509,13.35,23.017,13.35
	c13.511,0,19.975-7.26,23.018-13.35c3.148-6.295,3.185-12.582,3.185-12.838c0.004-0.469,0.16-11.568,5.774-22.775
	c5.02-10.025,12.763-16.904,23.02-20.461c3.187,9.246,12.035,15.617,21.868,15.617c12.753,0,23.128-10.373,23.128-23.127
	C200,110.298,189.625,99.924,176.872,99.924z M176.872,136.818c-5.608,0-10.578-3.355-12.704-8.465
	c1.002-0.148,2.028-0.273,3.067-0.371c1.846,3.605,5.554,5.896,9.637,5.896c5.973,0,10.83-4.857,10.83-10.828
	s-4.857-10.828-10.83-10.828c-4.234,0-8.12,2.539-9.86,6.383c-1.103,0.096-2.201,0.221-3.288,0.367
	c1.765-5.691,7.083-9.689,13.148-9.689c7.592,0,13.77,6.178,13.77,13.768C190.641,130.642,184.463,136.818,176.872,136.818z" class="color c1"/>
</svg>