<svg version="1.1" id="图层_1" x="0px" y="0px" width="200px" height="190.432px" viewBox="0 0 200 190.432" enable-background="new 0 0 200 190.432" xml:space="preserve" xmlns="http://www.w3.org/2000/svg" xmlns:xlink="http://www.w3.org/1999/xlink" xmlns:xml="http://www.w3.org/XML/1998/namespace">
  <path fill="#047F7C" d="M99.229,85.18c0,0-26.225-16.788-25.516-56.624c0.709-39.835,53.512-36.99,50.322,2.276
	C121.377,68.878,99.229,85.18,99.229,85.18z" class="color c1"/>
  <path fill="#047F7C" d="M99.707,105.252c0,0,26.225,16.787,25.516,56.623S71.711,198.865,74.9,159.6
	C77.559,121.555,99.707,105.252,99.707,105.252z" class="color c1"/>
  <path fill="#22D1B3" d="M114.82,96.039c0,0,16.787-26.224,56.623-25.515s36.99,53.511-2.275,50.322
	C131.123,118.188,114.82,96.039,114.82,96.039z" class="color c2"/>
  <path fill="#22D1B3" d="M85.18,97.582c0,0-16.787,26.225-56.623,25.516s-36.99-53.512,2.275-50.322
	C68.879,75.433,85.18,97.582,85.18,97.582z" class="color c2"/>
  <path fill="#22D1B3" d="M44.559,147.305c0,0,1.014,10.1-9.314,17.975c-10.33,7.875-20.281-6.199-9.598-13.326
	C35.912,144.939,44.559,147.305,44.559,147.305z" class="color c2"/>
  <path fill="#22D1B3" d="M46.162,41.346c0,0-9.637,3.188-19.572-5.18c-9.934-8.366,1.637-21.144,10.918-12.267
	C46.59,32.392,46.162,41.346,46.162,41.346z" class="color c2"/>
  <path fill="#22D1B3" d="M151.512,44.323c0,0-0.328-10.146,10.508-17.304c10.838-7.161,19.816,7.555,8.676,13.943
	C159.979,47.268,151.512,44.323,151.512,44.323z" class="color c2"/>
  <path fill="#22D1B3" d="M150.266,147.576c0,0,9.557-3.418,19.691,4.705c10.133,8.125-1.127,21.178-10.619,12.527
	C150.055,156.539,150.266,147.576,150.266,147.576z" class="color c2"/>
</svg>