<svg version="1.1" id="图层_2" x="0px" y="0px" width="29.478px" height="29.564px" viewBox="0 0 29.478 29.564" enable-background="new 0 0 29.478 29.564" xml:space="preserve" xmlns="http://www.w3.org/2000/svg" xmlns:xlink="http://www.w3.org/1999/xlink" xmlns:xml="http://www.w3.org/XML/1998/namespace">
  <path fill="#EE7E77" d="M29.469,17.019c0.007,1.399-0.617,2.039-2.015,2.004c-1.282-0.032-2.565-0.003-3.848-0.003
	c-4.674,0.001-4.674,0-4.676,4.542c-0.001,1.282,0.091,2.575-0.044,3.844c-0.074,0.695-0.484,1.9-0.826,1.931
	c-2.179,0.195-4.444,0.412-6.537-0.041c-0.58-0.125-0.919-2.492-0.95-3.84c-0.169-7.395,0.879-6.366-6.407-6.43
	C0,18.99-0.001,19.019,0,14.808c0.001-4.072,0.001-4.072,4.056-4.073c1.198,0,2.405-0.1,3.59,0.021
	c2.31,0.236,3.06-0.826,2.909-2.998c-0.118-1.702,0.027-3.421-0.034-5.129c-0.068-1.871,0.785-2.536,2.623-2.585
	c5.786-0.155,5.785-0.206,5.785,5.566c0,0.086,0,0.171,0,0.257c0.001,4.869,0.001,4.824,4.845,4.88
	C30.154,10.821,29.433,9.479,29.469,17.019z" class="color c1"/>
</svg>