<svg version="1.1" id="图层_1" x="0px" y="0px" width="131.733px" height="183.235px" viewBox="0 0 131.733 183.235" enable-background="new 0 0 131.733 183.235" xml:space="preserve" xmlns="http://www.w3.org/2000/svg" xmlns:xlink="http://www.w3.org/1999/xlink" xmlns:xml="http://www.w3.org/XML/1998/namespace">
  <path fill="#EF0000" d="M130.441,118.488c-2.97-13.672-8.321-26.504-14.443-39.014C102.635,52.214,86.09,26.957,68.075,2.596
	c-0.58-0.783-1.191-1.552-1.986-2.585c0.007,29.134,25.237,61.655,25.654,85.42c0.214,12.181-6.092,27.58-25.654,27.58
	c-19.094,0-25.558-15.116-25.658-26.896C40.229,62.28,66.083,28.945,66.089,0.011C66.086,0.007,66.084,0.004,66.081,0l-1.521,2.204
	c-9.47,13.882-19.248,27.569-28.325,41.703C25.35,60.829,15.81,78.536,8.484,97.349c-4.903,12.566-8.909,25.383-8.447,39.098
	c0.422,12.995,3.654,24.27,9.704,33.795l1.706-0.332c0.828-0.161,1.714-0.243,2.633-0.243c5.056,0,11.023,2.456,17.933,5.3
	c9.417,3.875,20.09,8.268,31.796,8.268c7.07,0,13.593-1.609,19.943-4.919l0.155-0.081l0.162-0.067
	c0.368-0.153,0.793-0.365,1.264-0.629c0.083-0.048,0.16-0.09,0.237-0.131l0.068-0.037c0.419-0.236,0.878-0.545,1.279-0.822
	c0.063-0.046,0.127-0.092,0.192-0.137l0.082-0.058l0.034-0.026l0.035-0.025c0.435-0.312,0.882-0.662,1.367-1.071l0.06-0.051
	l0.014-0.011l0.032-0.029c0.063-0.058,0.125-0.115,0.188-0.169l0.04-0.035l0.042-0.034c0.382-0.316,0.777-0.674,1.209-1.093
	l0.063-0.061l0.066-0.059c0.069-0.061,0.137-0.133,0.206-0.202l0.022-0.022l0.022-0.021c0.291-0.282,0.607-0.601,0.948-0.956
	c-2.026,0.322-4.079,0.486-6.139,0.486c-5.005,0-9.901-0.945-14.552-2.808l-0.076-0.03l-0.075-0.033
	c-0.977-0.438-2.379-1.195-3.272-2.699l-0.017-0.029l-0.017-0.029c-0.747-1.307-0.937-2.855-0.521-4.247
	c0.402-1.347,1.326-2.446,2.599-3.095l0.31-0.158l0.333-0.102c9.561-2.93,18.474-7.362,26.511-13.185
	c1.46-1.044,2.749-2.25,3.831-3.583c2.131-2.625,4.557-4.974,7.213-6.985c0.414-0.322,0.829-0.629,1.259-0.936l0.607-0.433
	c5.2-3.669,10.977-6.298,17.172-7.815l0.102-0.032l0.131-0.032c1.535-0.372,3.064-0.665,4.676-0.896l0.121-0.017
	C131.405,123.394,130.976,120.944,130.441,118.488z" class="color c1"/>
</svg>