<svg version="1.1" id="图层_1" x="0px" y="0px" width="66.422px" height="148.059px" viewBox="0 0 66.422 148.059" enable-background="new 0 0 66.422 148.059" xml:space="preserve" xmlns="http://www.w3.org/2000/svg" xmlns:xlink="http://www.w3.org/1999/xlink" xmlns:xml="http://www.w3.org/XML/1998/namespace">
  <path fill="#86BB47" d="M44.917,85.91c-3.211-3.036-6.222-5.88-9.055-8.586C59.049,55.175,64.29,37.18,55.104,22.078
	c2.381,4.581,6.718,20.557-23.704,50.945C5.162,47.488-2.143,34.734,10.604,0c0,0-28.561,34.722,8.063,73.382
	c2.046,2.16,3.992,4.195,5.868,6.148c-7.502,7.146-28.054,29.173-19.067,48.508c0,0-1.377-20.524,23.286-44.13
	c28.183,29.157,35.125,35.144,31.163,64.149C59.917,148.059,81.954,120.927,44.917,85.91z" class="color c1"/>
</svg>