<svg version="1.1" id="图层_1" x="0px" y="0px" width="124.459px" height="111.198px" viewBox="0 0 124.459 111.198" enable-background="new 0 0 124.459 111.198" xml:space="preserve" xmlns="http://www.w3.org/2000/svg" xmlns:xlink="http://www.w3.org/1999/xlink" xmlns:xml="http://www.w3.org/XML/1998/namespace">
  <path fill="#FFFFFF" d="M119.33,13.64c-3.104-5.04-8.477-9.145-13.791-11.652C102.584,0.595,99.305,0,95.957,0
	c-0.936,0-6.508,0-12.436,6.214c-3.559,3.729-7.863,7.44-13.518,10.688c-3.563,2.047-9.234,3.256-13.914,3.717
	c-10.275,1.015-19.748-0.926-19.748-0.926c12.906,0.375,29.111-5.359,36.744-9.863c-3.203,1.039-6.449,1.517-9.701,1.517
	c-6.434,0-12.875-4.627-18.998-7.562c-2.879-1.381-6.254-2.931-9.447-3.36c-1.629-0.219-3.479-0.354-5.383-0.354
	c-1.219,0-2.459,0.062-3.684,0.185V0.131c-1.98,0.196-3.91,0.642-5.738,1.352c-0.424,0.153-0.834,0.321-1.225,0.507
	c-1.66,0.784-3.328,1.725-4.928,2.8c-3.523,2.366-6.73,5.389-8.863,8.854C2.99,17.101,1.605,20.799,0.814,24.62
	c-3.102,14.988,3.107,31.91,10.947,44.138c3.117,4.863,26.217,41.653,33.955,42.415c7.74,0.762,5.723-16.239,16.506-16.205
	c10.785-0.034,8.768,16.967,16.506,16.205c7.74-0.762,30.838-37.553,33.955-42.415C122.525,53.409,129.813,30.669,119.33,13.64z" class="color c1"/>
</svg>