<svg version="1.1" id="图层_2" x="0px" y="0px" width="83.355px" height="65.083px" viewBox="0 0 83.355 65.083" enable-background="new 0 0 83.355 65.083" xml:space="preserve" xmlns="http://www.w3.org/2000/svg" xmlns:xlink="http://www.w3.org/1999/xlink" xmlns:xml="http://www.w3.org/XML/1998/namespace">
  <path fill="#D4145A" d="M82.423,22.063c-0.353,1.074-0.881,1.509-1.97,1.472c-1.675-0.056-3.353-0.051-5.08-0.04
	c-1.537,0.011-2.784,1.362-2.784,3.027v1.946c0,1.521,1.043,2.806,2.435,3.001C63.791,42.773,52.794,53.84,41.622,65.083
	C30.545,53.944,19.515,42.852,8.005,31.278c2.479,0,4.422-0.162,6.333,0.038c2.531,0.265,4.956-1.176,6.161-3.602
	c0.865-1.742,2.025-3.316,3.147-5.123c0.504,0.737,0.927,1.336,1.332,1.949c4.402,6.674,8.794,13.357,13.205,20.024
	c2.129,3.218,4.613,3.239,6.835,0.059c2.775-3.97,5.473-8.005,8.324-11.91c0.533-0.73,1.675-1.383,2.533-1.429
	c1.91-0.102,3.826-0.102,5.765-0.087c1.954,0.015,3.546-1.694,3.546-3.811c0-2.097-1.566-3.799-3.502-3.811
	c-3.394-0.021-6.725-0.044-10.05,0.11c-0.868,0.04-1.86,1.164-2.498,2.041c-2.498,3.433-4.878,6.967-7.424,10.641
	c-0.75-1.104-1.399-2.037-2.026-2.987c-4.256-6.446-8.498-12.902-12.763-19.341c-2.112-3.189-4.757-3.129-6.799,0.138
	c-1.69,2.705-3.298,5.473-5.064,8.118c-0.405,0.606-1.31,1.123-1.999,1.143c-3.394,0.102-6.794-0.04-10.189,0.046
	c-1.706,0.043-2.085-1.014-2.516-3.143c-0.863-4.266-0.162-8.808,2.18-12.363C9.264-2.236,23.133-2.742,30.618,7.033
	c2.54,3.318,4.971,6.733,7.467,10.091c2.456,3.304,4.61,3.309,7.024,0.043c2.465-3.335,4.875-6.721,7.403-9.999
	c7.3-9.464,21.028-9.44,27.895,0.396C83.549,12.064,84.109,16.93,82.423,22.063z" class="color c1"/>
</svg>