<svg version="1.1" id="图层_1" x="0px" y="0px" width="66.744px" height="66.743px" viewBox="0 0 66.744 66.743" enable-background="new 0 0 66.744 66.743" xml:space="preserve" xmlns="http://www.w3.org/2000/svg" xmlns:xlink="http://www.w3.org/1999/xlink" xmlns:xml="http://www.w3.org/XML/1998/namespace">
  <path fill="#57CFF1" d="M56.716,23.347h-13.32V10.025C43.396,4.31,39.087,0,33.371,0c-5.715,0-10.025,4.31-10.025,10.025v13.321
	h-13.32C4.311,23.347,0,27.656,0,33.371c0,5.716,4.311,10.025,10.025,10.025h13.32v13.321c0,5.716,4.311,10.025,10.025,10.025
	c5.716,0,10.025-4.31,10.025-10.025V43.396h13.32c5.717,0,10.027-4.31,10.027-10.025C66.744,27.656,62.433,23.347,56.716,23.347z" class="color c1"/>
</svg>