<svg version="1.1" id="图层_1" x="0px" y="0px" width="141.669px" height="79.525px" viewBox="0 0 141.669 79.525" enable-background="new 0 0 141.669 79.525" xml:space="preserve" xmlns="http://www.w3.org/2000/svg" xmlns:xlink="http://www.w3.org/1999/xlink" xmlns:xml="http://www.w3.org/XML/1998/namespace">
  <path fill="#F42525" d="M5.631,66.297C3.495,68.773,1.462,71.759,0,74.53l16.065,4.995l0.001,0c0.567-0.824,1.185-1.631,1.865-2.42
	c1.559-1.807,3.417-3.524,5.575-5.155c1.451-1.096,2.995-1.984,4.589-2.635c11.743-4.796,28.14-2.164,44.278,0.1
	c3.412,0.479,7.616,0.556,11.051,0.98c9.038,1.116,18.238,0.279,26.877-2.599c5.541-1.846,10.398-4.169,13.613-6.424
	c2.138-1.583,5.587-4.809,7.741-7.306c7.89-9.146,11.208-20.43,9.63-32.735c-0.501-3.91-1.526-8.087-2.915-11.502
	c-1.43-3.516-3.465-6.942-5.78-9.83l-13.045,9.856c1.508,1.798,2.725,3.809,3.632,6.037c0.871,2.142,1.478,4.518,1.805,7.064
	c1.009,7.868-0.929,14.584-5.91,20.358c-1.571,1.821-3.446,3.55-5.626,5.19c-1.453,1.093-2.984,2.015-4.595,2.626
	c-13.515,5.125-30.736,1.767-45.007,0.081c-4.213-0.498-8.538-0.949-12.758-1.43c-0.946-0.052-1.874-0.126-2.769-0.234
	c-16.52-2.001-32.005,7.463-34.975,9.546C12.137,59.937,7.588,64.029,5.631,66.297z" class="color c1"/>
</svg>