<svg version="1.1" id="图层_1" x="0px" y="0px" width="201.865px" height="162.026px" viewBox="0 0 201.865 162.026" enable-background="new 0 0 201.865 162.026" xml:space="preserve" xmlns="http://www.w3.org/2000/svg" xmlns:xlink="http://www.w3.org/1999/xlink" xmlns:xml="http://www.w3.org/XML/1998/namespace">
  <path fill="#FC3C60" d="M165.613,2.531c-3.971-1.092-8.09-1.646-12.143-2.439c-2.944-0.031-5.818-0.061-8.762-0.092
	c-2.958,0.52-5.939,0.933-8.877,1.549c-11.883,2.489-22.275,7.967-31.448,15.846c-0.013,0.011-0.027,0.023-0.04,0.034
	c-2.388,2.053-4.208,4.704-5.205,7.692C91.04,49.388,68.137,66.882,41.146,66.882C25.299,66.882,10.861,60.85,0,50.959
	c0.095,1.402,0.239,2.816,0.447,4.245C2.12,66.71,7.689,76.51,14.476,85.6c22.121,29.626,50.014,53.078,79.943,74.355
	c3.926,2.791,7.016,2.662,11.013,0.21c18.191-11.16,35.133-23.954,50.916-38.28c13.277-12.051,25.539-25.024,34.941-40.434
	c5.617-9.206,10.043-18.89,10.523-29.878C202.843,27.949,188.788,8.906,165.613,2.531z" class="color c1"/>
  <path fill="#E63F60" d="M58.841,0.539c-0.476-0.055-0.929-0.312-1.393-0.475c-3.995,0-7.99,0-11.985,0
	c-3.681,0.813-7.421,1.424-11.035,2.47C14.641,8.26,2.005,23.448,0.125,42.408c10.074,11.267,24.718,18.361,41.021,18.361
	c26.648,0,48.869-18.948,53.929-44.106c-1.043-0.856-2.093-1.701-3.169-2.508C82.066,6.78,71.151,1.954,58.841,0.539z" class="color c2"/>
</svg>