<svg version="1.1" id="图层_1" x="0px" y="0px" width="57.229px" height="76.564px" viewBox="0 0 57.229 76.564" enable-background="new 0 0 57.229 76.564" xml:space="preserve" xmlns="http://www.w3.org/2000/svg" xmlns:xlink="http://www.w3.org/1999/xlink" xmlns:xml="http://www.w3.org/XML/1998/namespace">
  <path fill="#FEFEFE" d="M7.469,0.283C7.392,0.299,7.315,0.316,7.24,0.334C7.083,0.369,6.93,0.408,6.781,0.448
	C6.704,0.469,6.628,0.49,6.553,0.514C6.395,0.561,6.24,0.616,6.086,0.671C6.03,0.691,5.972,0.711,5.915,0.732
	c-0.204,0.08-0.401,0.167-0.593,0.264C5.288,1.013,5.256,1.035,5.22,1.052C5.068,1.134,4.916,1.218,4.774,1.308
	c-0.06,0.038-0.116,0.08-0.176,0.12C4.484,1.508,4.37,1.59,4.264,1.676C4.204,1.723,4.147,1.77,4.091,1.82
	C3.986,1.913,3.885,2.01,3.785,2.11C3.738,2.16,3.688,2.207,3.642,2.257C3.508,2.403,3.383,2.558,3.265,2.724
	C3.26,2.73,3.254,2.736,3.249,2.743c-4.608,6.568-3.842,20.896-0.657,25.821c3.184,4.928,5.598,8.303,5.598,10.129
	c0,1.824-0.439,31.662-0.221,33.943c0.218,2.281,0.987,3.924,1.977,3.924h0.001c0.985-0.002,4.217-5.385,5.753-9.307
	c1.527-3.902,9.591-22.093,13.134-22.295c5.419,0.2,15.89,32.028,18.447,31.602l0.002,0.002c0.988,0,1.758-1.643,1.977-3.926
	c0.123-1.277,0.039-11.222-0.061-20.031v0.004c-0.07-6.449-0.148-12.289-0.158-13.686v-0.041c-0.002-0.078-0.002-0.146-0.002-0.189
	c0-1.824,2.414-5.201,5.598-10.127c0.107-0.168,0.211-0.344,0.313-0.529c0.02-0.036,0.041-0.08,0.063-0.118
	c0.078-0.148,0.154-0.302,0.229-0.462c0.029-0.061,0.057-0.125,0.084-0.188c0.064-0.145,0.131-0.293,0.191-0.447
	c0.029-0.074,0.059-0.147,0.086-0.225c0.059-0.152,0.115-0.305,0.17-0.463c0.029-0.082,0.059-0.166,0.084-0.248
	c0.057-0.161,0.105-0.325,0.156-0.492c0.025-0.084,0.053-0.171,0.076-0.259c0.051-0.173,0.1-0.349,0.146-0.529
	c0.021-0.086,0.045-0.172,0.066-0.261c0.049-0.189,0.094-0.386,0.139-0.582c0.02-0.081,0.037-0.161,0.055-0.244
	c0.047-0.217,0.092-0.439,0.135-0.665c0.014-0.064,0.025-0.127,0.037-0.192c0.053-0.284,0.102-0.572,0.146-0.866
	c0-0.007,0-0.014,0.002-0.022c0.096-0.618,0.176-1.257,0.238-1.907c0.004-0.05,0.008-0.101,0.014-0.15
	c0.023-0.268,0.047-0.538,0.066-0.81c0.006-0.083,0.01-0.168,0.016-0.253c0.018-0.24,0.029-0.482,0.041-0.727
	c0.004-0.098,0.008-0.197,0.012-0.296c0.01-0.231,0.016-0.462,0.021-0.695c0.002-0.105,0.004-0.213,0.006-0.318
	c0.002-0.229,0.004-0.456,0.002-0.685c0-0.108-0.002-0.218-0.004-0.328c-0.004-0.228-0.01-0.456-0.016-0.684
	c-0.004-0.068-0.004-0.138-0.008-0.206c0,0.006,0,0.014,0,0.021c-0.17-4.526-1.15-9.044-3.223-11.994
	c-4.223-6.019-17.188,0.385-25.362-0.309l0,0c-1.147,0.01-2.616-0.187-4.27-0.472l0,0c-0.109-0.02-0.226-0.04-0.337-0.061
	c-0.123-0.021-0.246-0.043-0.371-0.064c-0.162-0.029-0.326-0.062-0.492-0.091c-0.088-0.017-0.176-0.033-0.264-0.049
	c-0.199-0.037-0.398-0.074-0.603-0.113c-0.017-0.002-0.033-0.006-0.05-0.009c-1.019-0.193-2.075-0.399-3.154-0.598l-0.118-0.021
	c-0.251-0.045-0.502-0.091-0.754-0.136c-0.066-0.012-0.136-0.023-0.202-0.035c-0.255-0.044-0.509-0.087-0.765-0.131
	c-0.045-0.007-0.09-0.015-0.134-0.021c-0.601-0.099-1.198-0.189-1.797-0.271c-0.072-0.01-0.146-0.019-0.219-0.028
	c-0.222-0.029-0.442-0.058-0.664-0.083c-0.087-0.011-0.172-0.021-0.257-0.03c-0.219-0.024-0.435-0.047-0.648-0.067
	c-0.077-0.008-0.154-0.017-0.23-0.021c-0.576-0.053-1.146-0.092-1.703-0.113c-0.069-0.003-0.139-0.004-0.209-0.005
	C11.171,0.006,10.968,0.001,10.767,0h-0.263c-0.188,0.001-0.376,0.005-0.562,0.012C9.859,0.013,9.777,0.015,9.696,0.019
	C9.478,0.03,9.266,0.044,9.055,0.061C9.011,0.063,8.965,0.066,8.922,0.07C8.669,0.094,8.42,0.123,8.177,0.158" class="color c1"/>
</svg>