<svg version="1.1" id="图层_1" x="0px" y="0px" width="105.257px" height="102.665px" viewBox="0 0 105.257 102.665" enable-background="new 0 0 105.257 102.665" xml:space="preserve" xmlns="http://www.w3.org/2000/svg" xmlns:xlink="http://www.w3.org/1999/xlink" xmlns:xml="http://www.w3.org/XML/1998/namespace">
  <path fill="#F7AC1C" d="M81.134,6.579c0.4,0.198,0.799,0.598,1.197,0.798c3.787,2.591,7.773,4.982,11.762,7.374
	c0.996,0.599,1.994,0.998,2.791,1.197l0,0l0,0c0.996,0,1.794-0.199,2.393-1.396c1.395-2.192-0.398-3.786-2.193-4.982
	c-0.397-0.2-0.797-0.599-1.195-0.798C92.1,6.181,88.114,3.789,84.126,1.197C83.128,0.599,82.132,0.199,81.335,0l0,0l0,0
	c-0.998,0-1.795,0.199-2.394,1.396C77.546,3.788,79.341,5.383,81.134,6.579z M45.053,55.02L45.053,55.02h2.392
	c3.39,0,6.779,0,10.168,0c4.784-0.201,9.568-0.598,14.354-1.195c0.199-0.398,0.599-0.797,0.798-0.998
	c1.194-1.792,2.192-3.586,3.188-5.581c0.996-1.795,1.993-3.589,2.99-5.383c1.195-2.193,2.592-4.386,3.787-6.579
	c3.588-6.379,7.178-12.957,10.965-19.535c-4.586-2.99-8.971-5.583-13.756-8.772c-6.18,8.573-12.359,16.945-18.34,25.319
	c-3.588,4.981-7.176,9.967-10.765,14.95C48.641,50.037,46.847,52.428,45.053,55.02z" class="color c1"/>
  <path fill="#2E8839" d="M105.257,47.445v0.997l-4.387,28.705c0,0,0,0,0,0.201c-2.99,19.137-22.326,24.32-39.472,25.316
	c0.199-0.199,0.397-0.398,0.599-0.797c0.599-0.599,1.196-1.396,1.795-2.193l0.199-0.199c0.598-0.598,1.594-1.793,1.793-3.389
	c0-0.199,0-0.398,0-0.598L64.19,91.7c-0.599-0.596-1.396-0.996-2.192-1.395c-0.199,0-0.199,0-0.199-0.199
	c-3.986-1.994-8.572-3.988-13.356-5.383c-0.797-0.199-1.595-0.6-2.592-0.797h-0.199c-5.183-1.395-10.566-2.791-16.147-2.99
	c-4.386-0.201-8.97,0.797-12.559,2.791c-0.997,0.396-1.794,0.996-2.591,1.594c0.199-0.797,0.398-1.594,0.398-2.393
	c0.798-4.385,0-8.57-1.994-12.359c-1.794-2.99-3.987-5.98-6.778-8.969c-0.398-0.4-0.797-0.799-1.196-1.197
	c-0.2-0.199-0.598-0.598-0.798-0.797l-0.398-0.398c-0.598-0.598-1.196-0.799-1.993-0.998C0.598,52.229,0,47.246,0,47.246h0.199
	c0.398-1.993,1.396-3.589,3.189-4.585c2.791-1.595,5.582-3.189,8.573-4.188c7.176-2.59,14.552-3.786,21.928-4.585
	c6.18-0.597,12.559-0.797,18.739-1.195c1.596,0,3.389,0,4.984,0.199c-0.798,1.195-1.795,2.392-2.592,3.589c-0.797,0-1.597,0-2.393,0
	c-6.977,0.598-13.955,0.996-20.931,1.594c-6.18,0.6-12.161,1.795-17.942,4.188c-1.793,0.797-3.588,1.993-5.183,3.188
	c-0.599,0.599-1.197,1.196-1.197,1.994c-0.199,0.997,0.199,2.193,1.197,3.189c1.395,1.196,2.99,2.193,4.584,2.99
	c5.382,2.393,11.363,3.59,17.145,4.387c16.545,2.193,32.893,1.994,49.239-0.797c4.785-0.797,9.769-1.994,14.154-4.387
	c1.794-0.997,3.986-2.193,3.787-4.784c0-0.201,0-0.398,0-0.398c-0.199-2.194-2.193-3.19-3.787-3.988
	c-2.791-1.196-5.582-2.393-8.373-3.189c-0.598-0.199-1.396-0.398-1.994-0.598c0.598-1.195,1.396-2.393,1.994-3.389
	c1.195,0.2,2.393,0.598,3.588,0.796c3.988,0.997,7.575,2.792,11.363,4.387c1.396,0.599,2.592,1.595,3.588,2.791
	C104.458,45.253,105.057,46.448,105.257,47.445L105.257,47.445z" class="color c2"/>
</svg>