<svg version="1.1" id="图层_1" x="0px" y="0px" width="202px" height="200px" viewBox="0 0 202 200" enable-background="new 0 0 202 200" xml:space="preserve" xmlns="http://www.w3.org/2000/svg" xmlns:xlink="http://www.w3.org/1999/xlink" xmlns:xml="http://www.w3.org/XML/1998/namespace">
  <path fill="#F05652" d="M175.462,63H140V25.428C140,9.672,128.457,0,112.7,0H94.442C78.689,0,65,9.672,65,25.428V63H30.54
	C14.787,63,0,73.575,0,89.33v18.256C0,123.341,14.787,138,30.54,138H65v32.348C65,186.102,78.689,200,94.442,200H112.7
	c15.757,0,27.3-13.898,27.3-29.652V138h35.462C191.216,138,202,123.341,202,107.586V89.33C202,73.575,191.216,63,175.462,63z" class="color c1"/>
</svg>