<svg version="1.1" id="图层_1" x="0px" y="0px" width="59.916px" height="56px" viewBox="0 0 59.916 56" enable-background="new 0 0 59.916 56" xml:space="preserve" xmlns="http://www.w3.org/2000/svg" xmlns:xlink="http://www.w3.org/1999/xlink" xmlns:xml="http://www.w3.org/XML/1998/namespace">
  <path fill="#F3BA09" d="M59.487,13.233L50.945,1.013c-0.56-0.8-1.554-1.176-2.503-0.946L29.958,4.545L11.474,0.066
	C10.523-0.163,9.53,0.213,8.971,1.013L0.428,13.233C0,13.846-0.114,14.624,0.119,15.334l13.763,39.034
	c0.248,0.753,0.854,1.332,1.618,1.544c0.763,0.214,1.582,0.031,2.183-0.485l12.276-10.549l12.275,10.549
	C42.669,55.801,43.22,56,43.78,56c0.212,0,0.427-0.028,0.637-0.088c0.764-0.212,1.37-0.791,1.617-1.544l13.763-39.034
	C60.03,14.624,59.915,13.846,59.487,13.233z" class="color c1"/>
</svg>