<svg version="1.1" id="图层_1" x="0px" y="0px" width="180px" height="180px" viewBox="0 0 180 180" enable-background="new 0 0 180 180" xml:space="preserve" xmlns="http://www.w3.org/2000/svg" xmlns:xlink="http://www.w3.org/1999/xlink" xmlns:xml="http://www.w3.org/XML/1998/namespace">
  <path fill="#57A3FE" d="M59.815,38.569c-3.74,0-7.815,0.537-10.815,1.553V2.977C49,1.423,49.664,0,50.945,0h78.157
	C130.385,0,131,1.423,131,2.977v37.154c-4-1.021-7.499-1.562-11.251-1.562c-14.789,0-25.118,7.256-30.185,12.053
	C84.498,45.825,74.605,38.569,59.815,38.569z M176.752,49h-29.855c1.154,1,2.264,2.209,3.311,3.375
	c7.668,8.537,11.248,19.442,10.08,30.634l0.002,0.055c-0.268,12.935-11.604,30.196-32.779,49.897
	c-10.783,10.035-18.209,15.89-23.121,19.76c-1.514,1.191-2.816,2.218-3.938,3.142c-3.039,2.511-6.912,3.896-10.895,3.896
	c-3.982,0-7.857-1.382-10.896-3.892c-1.234-1.02-2.876-2.252-4.758-3.68l-0.182-0.113c-5.357-4.063-13.292-10.196-23.589-19.776
	C35.521,118.702,19,99.092,19,82.872v-0.015c-1-11.124,2.39-22,10.013-30.482C30.06,51.209,30.952,50,32.11,49H2.376
	C0.823,49,0,49.344,0,50.626v78.157C0,130.064,0.823,131,2.376,131H49v46.352c0,1.554,0.664,2.648,1.945,2.648h78.157
	c1.283,0,1.898-1.095,1.898-2.648V131h45.752c1.553,0,3.248-0.936,3.248-2.217V50.626C180,49.344,178.305,49,176.752,49z" class="color c1"/>
</svg>