<svg version="1.1" id="图层_1" x="0px" y="0px" width="200px" height="132.813px" viewBox="0 0 200 132.813" enable-background="new 0 0 200 132.813" xml:space="preserve" xmlns:xml="http://www.w3.org/XML/1998/namespace" xmlns="http://www.w3.org/2000/svg" xmlns:xlink="http://www.w3.org/1999/xlink">
  <path fill="#00D4C2" d="M144.142,55.242h-1.254l0.279,1.223c3.43,15.006-0.993,30.437-11.831,41.275
	c-6.877,6.876-15.59,11.218-25.197,12.555c-1.99,0.277-4.031,0.418-6.067,0.418c-7.387,0-14.678-1.824-21.084-5.276
	c-1.401-0.757-1.933-2.506-1.194-3.911c0.037-0.05,0.065-0.09,0.091-0.133l0.507-0.82l-0.802-0.536
	c-1.173-0.784-2.302-1.625-3.356-2.498l-0.716-0.593l-0.644,0.671c-0.045,0.048-0.086,0.098-0.125,0.149
	c-0.558,0.552-1.284,0.85-2.054,0.85c-0.78,0-1.512-0.305-2.063-0.857c-0.547-0.552-0.847-1.283-0.844-2.061
	c0.003-0.767,0.302-1.485,0.842-2.029c0.048-0.035,0.085-0.063,0.121-0.094l0.75-0.64l-0.627-0.759
	c-0.889-1.075-1.729-2.205-2.5-3.359l-0.537-0.805l-0.822,0.51c-0.048,0.03-0.093,0.062-0.138,0.095
	c-0.392,0.211-0.866,0.331-1.343,0.331c-1.073,0-2.055-0.585-2.563-1.527c-4.427-8.22-6.153-17.862-4.861-27.151
	c0.173-1.237,0.409-2.518,0.702-3.805l0.277-1.222h-1.252H7.812h-1v1v50.795c0,10.457,8.508,18.965,18.965,18.965h148.445
	c10.457,0,18.965-8.508,18.965-18.965V56.242v-1h-1H144.142z M60.487,88.479c0.039,0.049,0.079,0.095,0.119,0.141
	C60.565,88.573,60.525,88.528,60.487,88.479z M61.03,89.035c0.024,0.021,0.046,0.044,0.071,0.063
	C61.077,89.079,61.055,89.056,61.03,89.035z M61.658,89.462c0.051,0.028,0.104,0.053,0.156,0.078
	C61.761,89.515,61.709,89.49,61.658,89.462z M62.313,89.743c0.046,0.016,0.092,0.034,0.139,0.048
	C62.405,89.778,62.36,89.759,62.313,89.743z M63.093,89.918c0.053,0.006,0.106,0.007,0.16,0.011
	C63.199,89.925,63.146,89.924,63.093,89.918z M63.816,89.931c0.041-0.003,0.082-0.004,0.123-0.008
	C63.898,89.927,63.857,89.928,63.816,89.931z M175,117.856h-31.2c-1.602,0-2.905-1.305-2.905-2.908c0-1.602,1.304-2.904,2.905-2.904
	H175c0.78,0,1.509,0.302,2.057,0.85c0.548,0.549,0.85,1.278,0.85,2.055C177.906,116.551,176.602,117.856,175,117.856z
	 M176.915,111.562c0.089,0.051,0.186,0.09,0.271,0.147C177.1,111.652,177.003,111.613,176.915,111.562z M177.517,111.984
	c0.081,0.068,0.171,0.127,0.245,0.202C177.688,112.111,177.598,112.052,177.517,111.984z M175.453,111.088
	c0.111,0.013,0.228,0.012,0.336,0.034C175.68,111.1,175.564,111.101,175.453,111.088z M176.23,111.258
	c0.096,0.032,0.198,0.052,0.292,0.091C176.428,111.31,176.326,111.29,176.23,111.258z M130.96,112.043h0.051
	c1.604,0,2.908,1.303,2.908,2.904c0,0.777-0.302,1.507-0.852,2.057c-0.549,0.549-1.279,0.852-2.057,0.852h-0.051
	c-1.603,0-2.906-1.305-2.906-2.908C128.054,113.346,129.358,112.043,130.96,112.043z M178.026,112.504
	c0.07,0.087,0.15,0.166,0.213,0.26C178.176,112.67,178.096,112.591,178.026,112.504z M178.471,113.191
	c0.04,0.08,0.093,0.153,0.128,0.236C178.564,113.344,178.511,113.271,178.471,113.191z M178.75,113.914
	c0.022,0.083,0.059,0.16,0.076,0.246C178.809,114.074,178.773,113.997,178.75,113.914z M64.588,89.796
	c0.048-0.014,0.096-0.029,0.143-0.045C64.683,89.767,64.636,89.782,64.588,89.796z M193.187,25.78v22.652v1h-1h-50.594h-0.658
	l-0.261-0.605c-2.21-5.138-5.354-9.765-9.341-13.752c-8.371-8.369-19.499-12.978-31.334-12.978
	c-11.836,0-22.964,4.609-31.334,12.978c-3.997,3.997-7.145,8.625-9.357,13.753l-0.261,0.604H58.39H7.812h-1v-1V25.78
	c0-10.457,8.508-18.965,18.965-18.965h148.445C184.679,6.815,193.187,15.323,193.187,25.78z" class="color c1"/>
  <path fill="#FFFFFF" d="M90.119,80.391c0.354,1.732,0.826,4.031,1.326,5.717c0.469-1.285,0.912-2.883,1.207-3.943
	c1.242-4.471,2.648-9.539,7.347-9.539c4.694,0,6.104,5.068,7.35,9.539c0.296,1.063,0.738,2.658,1.205,3.941
	c0.5-1.686,0.974-3.98,1.326-5.715c1.06-5.168,2.149-10.514,4.935-14.018c4.178-5.264,4.178-7.002,4.178-9.205
	c0-4.057-3.299-7.354-7.355-7.354c-2.592,0-3.775,1.408-5.498,3.705c-1.373,1.832-3.08,4.111-6.135,4.111
	c-3.059,0-4.766-2.277-6.139-4.111c-1.719-2.297-2.904-3.705-5.496-3.705c-4.057,0-7.355,3.299-7.355,7.354
	c0,2.203,0,3.941,4.18,9.205C87.97,69.877,89.064,75.223,90.119,80.391z" class="color c2"/>
  <path fill="#161616" d="M134.92,114.948c0,2.158-1.75,3.908-3.908,3.908h-0.051c-2.158,0-3.906-1.75-3.906-3.908
	c0-2.156,1.748-3.904,3.906-3.904h0.051C133.17,111.04,134.92,112.788,134.92,114.948z M139.892,114.948
	c0,2.158,1.749,3.908,3.904,3.908h31.201c2.157,0,3.905-1.75,3.905-3.908c0-2.156-1.748-3.904-3.905-3.904h-31.201
	C141.642,111.04,139.892,112.788,139.892,114.948z M73.482,92.946c-1.473-1.482-3.842-1.512-5.379-0.137
	c-0.053,0.047-0.109,0.08-0.158,0.129c-1.531,1.52-1.541,3.992-0.021,5.521c0.766,0.771,1.77,1.152,2.771,1.152
	c0.994,0,1.99-0.377,2.752-1.133l0.027-0.027c0.047-0.047,0.077-0.102,0.122-0.146C74.99,96.778,74.956,94.424,73.482,92.946z
	 M79.07,71.235c-5.438-6.854-5.873-10.287-5.873-14.064c0-8.359,6.806-15.166,15.168-15.166c6.502,0,9.709,4.105,11.636,6.68
	c1.928-2.57,5.135-6.68,11.635-6.68c8.363,0,15.168,6.807,15.168,15.166c0,3.777-0.433,7.211-5.873,14.064
	c-1.618,2.041-2.604,6.854-3.396,10.723c-0.603,2.939-1.168,5.717-2.035,7.963c-1.813,4.701-4.68,5.688-6.764,5.688
	c-5.504,0-7.414-5.994-8.734-10.707c-1.32,4.713-3.229,10.707-8.736,10.707c-2.08,0-4.943-0.986-6.762-5.688
	c-0.867-2.246-1.436-5.021-2.035-7.963C81.673,78.086,80.691,73.276,79.07,71.235z M81.009,57.168c0,2.203,0,3.941,4.182,9.207
	c2.779,3.502,3.873,8.85,4.93,14.018c0.354,1.732,0.824,4.029,1.324,5.715c0.47-1.285,0.914-2.881,1.209-3.943
	c1.24-4.471,2.648-9.539,7.347-9.539c4.694,0,6.104,5.068,7.348,9.539c0.296,1.063,0.738,2.658,1.207,3.941
	c0.5-1.684,0.972-3.979,1.326-5.713c1.058-5.168,2.149-10.516,4.933-14.018c4.18-5.264,4.18-7.004,4.18-9.207
	c0-4.055-3.301-7.354-7.355-7.354c-2.592,0-3.777,1.408-5.498,3.705c-1.373,1.832-3.08,4.109-6.137,4.109s-4.764-2.277-6.137-4.109
	c-1.719-2.297-2.904-3.705-5.498-3.705C84.31,49.815,81.009,53.115,81.009,57.168z M200,25.78v81.258
	c0,14.213-11.563,25.775-25.776,25.775H25.777C11.564,132.813,0,121.249,0,107.037V25.78C0,11.565,11.564,0,25.777,0h25.582h7.813
	h14.844h7.813h35.767h30.47h26.159C188.435-0.001,200,11.565,200,25.78z M192.186,56.241h-48.044
	c3.359,14.705-0.671,30.775-12.102,42.205c-7.031,7.033-15.941,11.471-25.766,12.838c-2.06,0.287-4.134,0.428-6.205,0.428
	c-7.498,0-14.976-1.85-21.558-5.396c-1.897-1.023-2.608-3.395-1.586-5.291c0.031-0.061,0.074-0.104,0.106-0.158
	c1.068-1.771,3.343-2.42,5.185-1.428c14.455,7.789,32.67,5.109,44.295-6.516c14.622-14.621,14.622-38.411,0-53.031
	c-7.082-7.082-16.5-10.984-26.517-10.984c-10.018,0-19.434,3.902-26.518,10.984c-11.625,11.625-14.305,29.84-6.516,44.295
	c0.992,1.842,0.346,4.111-1.428,5.184c-0.055,0.033-0.102,0.076-0.158,0.107c-1.896,1.021-4.268,0.313-5.291-1.586
	c-4.526-8.4-6.293-18.264-4.971-27.764c0.184-1.313,0.426-2.605,0.717-3.887H7.812v50.793c0,9.904,8.06,17.965,17.965,17.965
	h148.445c9.905,0,17.965-8.061,17.965-17.965L192.186,56.241L192.186,56.241z M7.812,25.78v22.652H58.39
	c2.242-5.199,5.457-9.955,9.566-14.064c8.561-8.559,19.939-13.271,32.041-13.271c12.104,0,23.482,4.713,32.041,13.271
	c4.168,4.168,7.353,8.953,9.554,14.064h50.594V25.78c0-9.906-8.06-17.965-17.965-17.965H25.777
	C15.871,7.815,7.812,15.872,7.812,25.78z" class="color c3"/>
</svg>