<svg version="1.1" id="图层_1" x="0px" y="0px" width="166.018px" height="142.827px" viewBox="0 0 166.018 142.827" enable-background="new 0 0 166.018 142.827" xml:space="preserve" xmlns="http://www.w3.org/2000/svg" xmlns:xlink="http://www.w3.org/1999/xlink" xmlns:xml="http://www.w3.org/XML/1998/namespace">
  <path fill="#CC4544" d="M84.658,66.8c3.7-2.8,7.6-5.3,11.7-7.5c4.5-2.8,9.6-4.7,14.5-6.8c2.4-1.2,5.1-1.7,7.6-2.6l7.6-2.3l-7,3.5
	c-2.3,1.2-4.7,2.2-6.8,3.7c-4.2,2.8-8.6,5.3-12.3,8.7c-3.4,2.7-6.5,5.6-9.3,8.7C88.758,70.3,86.758,68.5,84.658,66.8z" class="color c1"/>
  <path fill="#CC4544" d="M165.858,52.5c-0.2-2.1-0.4-4.3-0.6-6.4c-0.4-2.1-0.7-4.2-1.1-6.3c-0.3-1-0.5-2.1-0.8-3.1s-0.5-2.1-0.8-3.1
	s-0.7-2-1-3l-0.5-1.5c-0.2-0.5-0.4-1-0.6-1.5c-0.9-1.9-1.6-3.9-2.7-5.7c-0.5-0.9-1-1.8-1.5-2.7l-0.4-0.2l-0.1-0.2v-0.1l-0.1-0.1
	l-0.4-0.6c-0.3-0.4-0.5-0.8-0.9-1.2c-1.3-1.8-2.6-3.4-4.1-4.9s-3.1-2.9-4.8-4.2c-3.4-2.5-7.2-4.5-11.1-5.7c-2-0.6-3.9-1.1-5.8-1.4
	c-0.5-0.1-1-0.2-1.6-0.3c-0.4,0-0.9-0.1-1.3-0.1c-0.2,0-0.4,0-0.7-0.1h-0.8c-0.5,0-1.1,0-1.6,0c-3.9,0.1-7.7,1-10.8,2.5
	c-0.4,0.2-0.8,0.4-1.1,0.6l-0.1,0.1l-0.2,0.1h-0.1l-0.2,0.2l-0.5,0.3c-0.6,0.4-1.3,0.8-1.9,1.2c-0.6,0.4-1.2,0.8-1.8,1.2
	c-0.6,0.4-1.2,0.8-1.8,1.2c-1.1,0.8-2.2,1.5-3.2,2.3c-0.5,0.4-1,0.7-1.5,1s-1,0.6-1.5,0.9c-0.2,0.2-0.5,0.3-0.7,0.5l-0.2,0.1
	c0,0-0.1,0,0,0l0,0h-0.1l-0.4,0.2c-0.5,0.3-1,0.5-1.5,0.8c-0.1,0.1-0.3,0.1-0.4,0.2c-2.3,0.5-4.6,1.1-6.8,1.7
	c-0.4,0.1-0.7,0.2-1.1,0.3c-1.4,0.1-2.6,0.2-3.6,0.2c-0.1,0-0.1,0-0.2,0s-0.1,0-0.2,0c-2.2,0-5.4-0.2-9.1-1.3c-1-0.2-1.8-0.7-2.8-1
	c-0.5-0.2-1-0.5-1.5-0.8l-0.4-0.2h-0.1l0,0c0.1,0,0,0,0,0l-0.2-0.1c-0.2-0.2-0.5-0.3-0.7-0.5c-0.5-0.3-1-0.6-1.5-0.9
	c-0.5-0.3-1-0.6-1.5-1c-0.9-0.7-1.9-1.3-2.9-2l-0.8-0.5c-0.4-0.3-0.9-0.6-1.3-0.9c-0.6-0.4-1.2-0.9-1.8-1.2
	c-0.6-0.4-1.2-0.8-1.9-1.2l-0.5-0.3l-0.2-0.2h-0.1l-0.2-0.1l-0.1-0.1c-0.4-0.2-0.8-0.4-1.1-0.6c-3-1.8-6.7-2.7-10.7-2.8
	c-0.5,0-1,0-1.6,0h-0.8c-0.3,0-0.5,0-0.7,0.1c-0.4,0-0.9,0.1-1.3,0.1c-0.5,0.1-1,0.2-1.6,0.3c-1.9,0.3-3.9,0.8-5.8,1.4
	c-3.9,1.2-7.7,3.2-11.1,5.7c-1.7,1.3-3.3,2.7-4.8,4.2c-1.5,1.6-2.8,3.1-4.1,4.9c-0.3,0.5-0.6,0.8-0.9,1.2l-0.4,0.6l-0.1,0.1v0.1
	l-0.1,0.3l-0.2,0.3c-0.5,0.9-1,1.8-1.5,2.7c-1.1,1.8-1.8,3.8-2.7,5.7c-0.2,0.5-0.4,1-0.6,1.5l-0.5,1.5c-0.3,1-0.7,2-1,3
	c-0.4,1-0.6,2-0.8,3.1c-0.3,1-0.5,2.1-0.8,3.1c-0.4,2.1-0.7,4.2-1.1,6.3c-0.2,2.1-0.4,4.3-0.6,6.4c-0.5,8.6,0.2,17.3,1.9,25.8
	c0.8,4.2,2,8.5,3.5,12.6l1.1,3.1c0.4,1,0.9,2,1.3,3c0.5,1,0.9,2,1.4,3s1.1,2,1.6,3l0.8,1.5l0.4,0.7c0,0,9.1,18.5,31.5,33.2
	c17.7,11.7,27.5-4.6,27.5-4.6s0,0-0.1,0c-0.3-1.4-0.5-3.7-0.6-5.6c-0.1-2.1-0.1-4.2,0-6.3c0-2.1,0.3-4.2,0.5-6.4l1-6.4
	c1.7-8.5,4.9-16.8,9.6-24.6c0-0.1,0.1-0.1,0.1-0.2c-2.1-3.3-4.4-6.4-6.8-9.2c-1.2,1.2-2.4,2.4-3.5,3.6c-7.2,7.8-13,16.6-17,26.1
	l-2.8,7.2c-0.7,2.5-1.6,4.9-2.2,7.4c-0.6,2.5-1.2,5-1.6,7.6c0,0.3-0.1,0.6-0.1,0.9c-6.5-3.7-13.9-9.6-21.8-18.9
	c-0.5-0.8-1.1-1.5-1.6-2.3l-0.8-1.1l0,0l-0.1-0.1l-0.2-0.3l-0.4-0.7c-0.5-0.9-1.1-1.8-1.6-2.7l-0.4-0.7l-0.3-0.6l-0.6-1.3
	c-0.4-0.9-0.9-1.7-1.3-2.6l-1.5-2.7c-0.4-0.9-0.8-1.8-1.1-2.8l-1-2.8c-1.3-3.8-2.3-7.7-3.2-11.6c-1.7-7.9-2.3-15.9-2.1-23.8
	c0.2-2,0.3-3.9,0.4-5.9c0.3-1.9,0.5-3.9,0.8-5.7c0.2-0.9,0.4-1.9,0.6-2.8c0.2-0.9,0.4-1.9,0.7-2.8c0.3-0.9,0.5-1.8,0.8-2.7l0.4-1.4
	c0.1-0.4,0.3-0.9,0.5-1.3c0.7-1.7,1.2-3.5,2.1-5.1c0.4-0.8,0.8-1.6,1.2-2.4l0.3-0.5l0.4-0.6c0.2-0.4,0.5-0.9,0.7-1.2
	c0.9-1.4,2-2.9,3.1-4.2s2.4-2.5,3.6-3.6c1.3-1.1,2.7-2.1,4.1-3c1.5-0.9,3-1.6,4.5-2.2c1.6-0.6,3.1-1.2,4.7-1.5l0.6-0.1l0.3-0.1h0.1
	h0.1c0,0,0.2,0-0.1,0c0.4-0.1,0.9-0.2,1.3-0.2c0.2,0,0.5-0.1,0.6-0.1h0.5c0.4,0,0.7-0.1,1.1-0.1c3-0.1,6,0.3,8.6,1.3
	c0.3,0.1,0.7,0.2,1,0.4h0.1c0,0,0.1,0.1,0,0h0.1l0.5-0.2l0.5,0.2c0.7,0.3,1.4,0.7,2,1c0.7,0.3,1.3,0.7,1.9,1c0.6,0.3,1.2,0.7,1.8,1
	c1.2,0.7,5.5,4.3,6.9,5.2c0.9,0.8,3.3,2.5,4.4,3.2c1.6,1,3.5,1.9,5.6,2.3c2.2,0.4,4.3,0.2,6.4,0c2.1-0.3,4.1-0.7,6-1.3
	c3.9-1,7.6-2.3,11.1-3.2c1.7-0.4,3.4-0.8,5-0.9c1.6-0.2,3.1-0.2,4.4,0c1.4,0.2,2.6,0.5,3.6,1s1.9,1,2.6,1.5s1.2,1,1.6,1.3
	c0.3,0.3,0.5,0.5,0.5,0.5s-0.1-0.2-0.3-0.6c-0.2-0.4-0.6-1-1.1-1.7c-0.6-0.7-1.3-1.6-2.3-2.3c-1-0.8-2.3-1.6-3.9-2.1
	c-1.5-0.5-3.3-0.8-5.1-0.9c-0.7,0-1.4,0-2,0c1.1-0.6,2.2-1.3,3.4-1.9c0.6-0.3,1.2-0.7,1.8-1c0.6-0.3,1.2-0.7,1.9-1
	c0.7-0.3,1.3-0.7,2-1l0.5-0.2l0.3-0.1h0.1c-0.2,0.1,0,0,0,0h0.1c0.3-0.1,0.7-0.2,1-0.4c2.6-1,5.6-1.4,8.6-1.3c0.4,0,0.7,0.1,1.1,0.1
	h0.5c0.2,0,0.4,0.1,0.6,0.1c0.4,0.1,0.9,0.2,1.3,0.2c-0.2,0,0,0-0.1,0h0.1h0.1l0.3,0.1l0.6,0.1c1.6,0.4,3.2,0.9,4.7,1.5
	s3.1,1.4,4.5,2.2c1.4,0.9,2.8,1.8,4.1,3c1.3,1.1,2.5,2.3,3.6,3.6s2.2,2.8,3.1,4.2c0.2,0.3,0.5,0.8,0.7,1.2l0.4,0.6l0.3,0.5
	c0.4,0.8,0.8,1.6,1.2,2.4c0.9,1.6,1.4,3.4,2.1,5.1c0.2,0.4,0.3,0.9,0.5,1.3l0.5,1.5c0.3,0.9,0.5,1.8,0.8,2.7s0.5,1.8,0.7,2.8
	c0.2,0.9,0.4,1.9,0.6,2.8c0.3,1.9,0.5,3.8,0.8,5.7c0.2,1.9,0.3,3.9,0.4,5.9c0.3,7.9-0.4,15.9-2.1,23.8c-0.8,3.9-1.8,7.8-3.2,11.6
	l-1,2.8c-0.3,1-0.8,1.9-1.1,2.8l-1.2,2.8c-0.4,0.9-0.9,1.7-1.3,2.6l-0.6,1.3l-0.3,0.6l-0.4,0.7c-0.5,0.9-1.1,1.8-1.6,2.7l-0.4,0.7
	l-0.2,0.3l-0.1,0.1l0,0l-0.8,1.1c-0.5,0.8-1.1,1.5-1.6,2.3c-0.5,0.6-1,1.2-1.5,1.8c-0.2,0.2-0.3,0.4-0.5,0.6l0,0
	c-6.6,7.5-13.6,12.4-20.1,15.8v-0.1c-0.4-2.6-1-5.1-1.6-7.6s-1.5-5-2.2-7.4l-2.8-7.2c-4.1-9.5-9.9-18.4-17-26.1s-15.5-14.5-25-19.6
	c-4.5-2.8-9.6-4.7-14.5-6.8c-2.4-1.2-5.1-1.7-7.6-2.6l-7.6-2.3l7,3.5c2.3,1.2,4.7,2.2,6.8,3.7c4.2,2.8,8.6,5.3,12.3,8.7
	c7.8,6.1,13.9,13.5,18.6,21.2c4.7,7.8,8,16.1,9.6,24.6l1,6.4c0.1,2.1,0.4,4.3,0.5,6.4s0.1,4.2,0,6.3c-0.1,1.9-0.3,4.2-0.6,5.6l0,0
	l0,0v0.1h0.1c1,1.5,10.6,15.6,27.4,4.5c22.4-14.7,31.5-33.2,31.5-33.2l0.4-0.7l0.8-1.5c0.5-1,1.1-2,1.6-3s0.9-2,1.4-3
	c0.4-1,0.9-2,1.3-3l1.1-3.1c1.5-4.1,2.6-8.4,3.5-12.6C165.658,69.8,166.358,61.1,165.858,52.5z" class="color c1"/>
</svg>