<svg version="1.1" id="图层_1" x="0px" y="0px" width="142.59px" height="187.305px" viewBox="0 0 142.59 187.305" enable-background="new 0 0 142.59 187.305" xml:space="preserve" xmlns="http://www.w3.org/2000/svg" xmlns:xlink="http://www.w3.org/1999/xlink" xmlns:xml="http://www.w3.org/XML/1998/namespace">
  <path fill="#027AB8" d="M77.947,149.91c-0.239,0.321-0.463,0.657-0.67,1.005c-0.039,0.062-0.08,0.116-0.118,0.171
	c-0.191,0.313-0.372,0.647-0.55,0.994c-0.098,0.188-0.193,0.379-0.287,0.578c-0.094,0.196-0.189,0.357-0.276,0.557
	c-18.999,9.957-50.748,3.496-57.384,1.982c-0.023-3.732-0.521-7.445-1.478-11.053c-0.818-2.38-1.576-4.624-2.288-6.8
	c11.904,7.625,32.215,13.414,51.114,13.414C70.005,150.773,73.995,150.49,77.947,149.91z M17.763,183.528
	c-0.013,0.119-0.02,0.239-0.02,0.358c0,1.888,1.53,3.418,3.418,3.418h48.637c0.061,0,0.122-0.002,0.184-0.004
	c1.885-0.1,3.333-1.709,3.233-3.594c-0.372-6.603-0.593-17.806,1.378-26.025c-7.947,3.349-17.346,4.454-26.232,4.454
	c-9.951-0.097-19.866-1.232-29.582-3.391C18.932,167.02,18.593,175.295,17.763,183.528z M101.561,125.791
	c9.129-9.927,20.934-14.505,29.586-17.856c5.942-2.302,11.072-4.289,11.322-6.646c0.414-2.074-0.246-4.217-1.757-5.696
	c-2.989-2.71-9.907-3.261-18.51-1.466c-2.841,0.684-5.618,1.608-8.302,2.765c-6.51,2.581-13.241,5.214-20.933,1.897
	c-13.122,7.295-19.338,23.055-21.047,28.145C81.792,128.279,91.822,127.895,101.561,125.791z M26.003,116.541
	c-6.515-3.055-12.83-6.515-18.91-10.359c0.995,5.595,1.932,10.17,2.957,14.441c0.035,0.065,0.067,0.135,0.094,0.204
	c0.914,3.81,1.91,7.404,3.033,11.083c12.932,10.624,45.25,18.962,68.357,13.883c0.216-0.037,0.433-0.086,0.659-0.14
	c4.281-4.172,10.068-9.889,15.437-15.604c-4.514,0.729-9.077,1.092-13.649,1.081c-4.852-0.013-9.694-0.362-14.497-1.047
	c-15.045-2.372-29.663-6.923-43.396-13.508l-0.063-0.027C26.017,116.535,26.004,116.537,26.003,116.541z M32.678,94.513
	c-9.493,0.188-18.955-1.146-28.026-3.95c0.396,3.052,0.76,5.615,1.063,7.494l0.581,3.517c6.601,4.379,13.511,8.27,20.679,11.64
	c4.811-0.854,43.748-8.217,58.616-24.638c-0.168-0.709-0.317-1.439-0.448-2.203C68.112,91.492,50.457,94.231,32.678,94.513z
	 M44.459,67.666c5.624-0.748,11.287-1.154,16.96-1.217c-0.149-2.034-0.376-4.474-0.648-7.404c-0.58-6.221-1.377-14.737-1.869-24.82
	c-0.057-1.085-0.111-2.186-0.148-3.293c-0.469-11.46-1.598-21.897-2.814-25.986c-0.883-3.237-4.021-5.325-7.349-4.888
	c-3.327,0.46-5.334,3.341-5.368,7.69c0,0.936,0,2.174,0.037,3.67c0.067,4.283,0.252,10.485,0.464,17.664
	C44.112,42.175,44.591,58.244,44.459,67.666z M89.602,96.816c-1.285-1.256-2.271-2.782-2.888-4.471
	c-13.905,13.73-42.438,20.85-54.344,23.318c11.535,5.095,23.663,8.722,36.102,10.796C69.933,121.828,75.926,105.421,89.602,96.816z
	 M22.783,71.299c5.66-1.154,10.849-2.08,15.77-2.818c-1.573-9.069-2.309-22.891-2.958-35.157l-0.316-5.97
	c-0.073-1.31-0.146-2.581-0.222-3.809c-0.111-1.957-0.239-3.769-0.388-5.449c-0.016-0.277-0.033-0.554-0.074-0.883
	c-0.145-1.76-0.307-3.224-0.47-4.273l-0.11-0.639c-0.03-0.215-0.071-0.428-0.123-0.639c-0.224-1.996-1.618-3.664-3.542-4.238
	C28.22,7,26.028,7.77,24.632,9.434c-0.295,0.354-0.547,0.743-0.748,1.158c-0.13,0.282-0.231,0.576-0.305,0.879
	c-1.949,8.163-1.63,23.84-1.266,32.451c0.104,2.33,0.157,4.805,0.186,7.396c0.029,2.592,0.029,5.127,0.029,7.521
	C22.53,63.832,22.533,68.186,22.783,71.299z M3.798,29.389c-3.961,4.229-4.967,19.879-2.339,36.4
	c0.399,2.489,0.948,6.934,1.584,12.061l0.403,3.209c8.798-0.072,54.159-1.048,80.949-13.202c0.047-1.215,0.1-2.432,0.188-3.689
	c0.621-8.795,1.41-16.531,2.095-23.357c1.729-17.072,2.87-28.351-1.148-32.748c-1.064-1.201-2.625-1.844-4.229-1.738
	c-1.601,0.164-3.029,1.07-3.861,2.446c-1.721,2.604-2.883,7.352-3.678,15.05c-0.031,0.354-0.068,0.723-0.119,1.101l-0.064,0.535
	c-0.039,0.323-0.082,0.666-0.145,1.137c-0.002,0.071-0.006,0.143-0.015,0.215c-1.29,10.166-4.813,31.95-6.127,39.863
	c1.612,0.127,3.217,0.345,4.804,0.654c0.922,0.188,1.52,1.083,1.336,2.005c-0.183,0.927-1.08,1.527-2.007,1.346
	c-2.026-0.382-4.076-0.624-6.136-0.725c-0.039,0-0.208,0-0.247,0c-0.48-0.034-0.975-0.054-1.521-0.054
	c-6.885-0.067-13.765,0.403-20.575,1.409l-0.147,0.011c-0.48,0.068-0.992,0.14-1.335,0.171c-0.237,0.049-0.497,0.097-0.668,0.109
	c-5.848,0.841-12.113,1.959-19.119,3.418l-0.556,0.125c-0.273,0.061-0.542,0.117-0.802,0.184c-0.061,0.016-0.122,0.026-0.185,0.035
	c-0.451,0.091-0.867,0.181-1.285,0.271c-4.646,1.018-7.623,1.779-7.652,1.779c-0.006,0.002-0.012,0.003-0.018,0.004
	c-0.916,0.229-1.844-0.328-2.072-1.244s0.33-1.844,1.246-2.072c0.025-0.006,2.284-0.579,5.914-1.395
	c-0.331-1.085-0.714-2.396-1.104-3.865l-0.651-2.541c-0.331-1.34-0.667-2.75-1.009-4.231l-0.905-4.237
	c-0.202-1.049-0.399-2.073-0.57-3.076c-0.108-0.665-0.22-1.319-0.343-2.032c-0.058-0.354-0.11-0.689-0.142-0.955
	c-0.107-0.756-0.196-1.469-0.278-2.143l-0.036-0.314c-0.028-0.158-0.044-0.319-0.048-0.479l-0.114-1.355
	c-0.063-0.897-0.063-1.801,0-2.699c0.592-4.104,0.376-8.282-0.634-12.305c-1.121-3.383-2.989-3.944-4.297-4.066
	C5.239,28.313,4.359,28.684,3.798,29.389z M84.271,71.652C56.792,83.432,13.618,84.404,3.877,84.469l0.285,2.28
	c22.345,8.377,56.862,3.31,80.521-3.815C84.307,79.186,84.168,75.418,84.271,71.652z" class="color c1"/>
</svg>