<svg version="1.1" id="图层_1" x="0px" y="0px" width="15.754px" height="119.814px" viewBox="0 0 15.754 119.814" enable-background="new 0 0 15.754 119.814" xml:space="preserve" xmlns="http://www.w3.org/2000/svg" xmlns:xlink="http://www.w3.org/1999/xlink" xmlns:xml="http://www.w3.org/XML/1998/namespace">
  <circle fill="#B9BABD" cx="7.877" cy="23.969" r="4.211" class="color c1"/>
  <circle fill="#B9BABD" cx="7.877" cy="3.09" r="3.09" class="color c1"/>
  <path fill="#B9BABD" d="M12.62,43.434c0,2.621-2.123,4.744-4.742,4.744c-2.621,0-4.744-2.123-4.744-4.744
	c0-2.617,2.123-4.742,4.744-4.742C10.497,38.691,12.62,40.816,12.62,43.434z" class="color c1"/>
  <circle fill="#B9BABD" cx="7.877" cy="64.713" r="5.743" class="color c1"/>
  <circle fill="#B9BABD" cx="7.877" cy="86.32" r="6.993" class="color c1"/>
  <path fill="#B9BABD" d="M15.754,111.935c0,4.354-3.525,7.879-7.876,7.879c-4.353,0-7.878-3.525-7.878-7.879
	c0-4.348,3.525-7.875,7.878-7.875C12.229,104.06,15.754,107.587,15.754,111.935z" class="color c1"/>
</svg>