<svg version="1.1" id="图层_1" x="0px" y="0px" width="73.3px" height="94.2px" viewBox="0 0 73.3 94.2" enable-background="new 0 0 73.3 94.2" xml:space="preserve" xmlns:xml="http://www.w3.org/XML/1998/namespace" xmlns="http://www.w3.org/2000/svg" xmlns:xlink="http://www.w3.org/1999/xlink">
  <path fill="#070300" d="M62.8,83.799c-3.5,0-6.9,0-10.4,0c0-3.5,0-7,0-10.5C55.8,73.4,59.201,73.4,62.8,73.4
	C62.8,76.799,62.8,80.299,62.8,83.799z M73.1,10.4c0,14.1,0,28,0,42.101C69.701,52.4,66.3,52.4,62.8,52.4c0-0.2,0-0.399,0-0.601
	c0-6.5,0-13.099,0-19.599c0-0.3-0.1-0.5-0.1-0.8c-7,0-13.9,0-20.801,0c0,3.5,0,6.9,0,10.5c3.5,0,6.9,0,10.4,0c0,3.5,0,6.899,0,10.5
	c3.6,0,7.1,0,10.5,0c0,3.399,0,6.899,0,10.399c-3.5,0-6.9,0-10.5,0c0,3.601,0,7.101,0,10.5c-10.467,0-20.934,0-31.4,0
	c0,3.5,0,7,0,10.5c-3.4,0-6.9,0-10.4-0.1c0-3.4,0-6.8,0-10.4c3.368,0,6.833,0,10.3,0c0-3.399,0-6.899,0-10.399c-3.5,0-6.9,0-10.5,0
	c0-3.601,0-7,0-10.5c0.033,0,0.067,0,0.1,0c3.37,0,6.835,0,10.4,0c0-3.601,0-7,0-10.6c3.6,0,7,0,10.4,0c0-3.5,0-6.9,0-10.4
	c-7,0-13.9,0-20.9,0c0,0.5,0,1,0,1.4c0,4.5,0,9.1,0,13.6c0,2,0.1,4,0.1,6c-3,0-6-0.101-9-0.101c-0.5,0-1,0-1.5,0
	c0-14,0-27.899,0-41.899c3.5,0,6.8,0,10.4,0c0-3.5,0-6.9,0-10.4c17.5,0,34.901,0,52.401,0c0,3.5,0,6.8,0,10.4
	C66.201,10.4,69.6,10.4,73.1,10.4z M41.8,52.4c-3.5,0-6.8,0-10.3,0c0,3.5,0,7,0,10.399c3.5,0,6.9,0,10.3,0
	C41.8,59.299,41.8,55.9,41.8,52.4z M52.3,94.2c0-3.5,0-6.9,0.1-10.4c-10.5,0-21,0-31.5,0c0,3.5,0,7,0,10.4
	C31.4,94.2,41.9,94.2,52.3,94.2z" class="color c1"/>
</svg>