<svg version="1.1" id="图层_1" x="0px" y="0px" width="153.432px" height="200px" viewBox="0 0 153.432 200" enable-background="new 0 0 153.432 200" xml:space="preserve" xmlns:xml="http://www.w3.org/XML/1998/namespace" xmlns="http://www.w3.org/2000/svg" xmlns:xlink="http://www.w3.org/1999/xlink">
  <path fill="#02748E" d="M0.454,51.473c0.968,11.676,3.676,25.073,9.929,37.762c0,0,7.158,14.32,7.158,37.229
	c0,16.748,6.382,52.873,14.671,68.938c0.697,1.355,1.663,2.388,2.782,3.134V51.473H0.454z M153.427,41.292
	c0.021-3.056-0.06-5.901-0.197-8.468c-0.423-7.895-4.796-17.958-8.749-22.572c-3.954-4.611-11.332-8.988-16.464-9.781
	c-5.141-0.789-15.653-0.563-23.487,0.508L76.718,4.77L48.904,0.979c-1.354-0.187-2.79-0.344-4.262-0.478v40.792L153.427,41.292
	L153.427,41.292z M34.994,0.009c-3.799-0.044-7.245,0.103-9.581,0.462c-5.141,0.791-12.51,5.17-16.463,9.78
	C4.997,14.866,0.627,24.93,0.201,32.823c-0.142,2.568-0.22,5.414-0.198,8.469h34.991V0.009L34.994,0.009z M44.643,198.782
	c1.954-1.084,3.547-2.863,4.25-5.296c7.698-26.627,13.187-93.697,27.82-93.509c14.628-0.188,20.116,66.882,27.822,93.509
	c2.202,7.601,13.063,8.947,16.688,1.916c8.284-16.065,14.671-52.178,14.671-68.938c0-22.907,7.159-37.229,7.159-37.229
	c6.249-12.688,8.957-26.086,9.925-37.762H44.643V198.782z M34.994,0.009c0,0,6.724,0.153,9.647,0.492" class="color c1"/>
</svg>