<svg version="1.1" id="图层_1" x="0px" y="0px" width="59.48px" height="59.48px" viewBox="0 0 59.48 59.48" enable-background="new 0 0 59.48 59.48" xml:space="preserve" xmlns="http://www.w3.org/2000/svg" xmlns:xlink="http://www.w3.org/1999/xlink" xmlns:xml="http://www.w3.org/XML/1998/namespace">
  <path fill="#389CFE" d="M59.48,29.74C59.48,13.342,46.139,0,29.74,0S0,13.342,0,29.74s13.342,29.74,29.74,29.74
	S59.48,46.139,59.48,29.74z M50.156,46.394L39.383,35.933c0.254-0.382,0.482-0.78,0.684-1.192l14.27,5.415
	C53.295,42.387,51.893,44.479,50.156,46.394z M55.541,37.094L41.109,31.6c0.049-0.207,0.09-0.419,0.123-0.636H56.58
	C56.461,33.096,56.111,35.153,55.541,37.094z M55.012,20.018l0.205,0.509c0.766,2.262,1.225,4.664,1.365,7.159h-15.32
	c-0.188-2.27-0.963-4.334-2.307-6.146l10.467-10.162C51.906,13.986,53.785,16.891,55.012,20.018z M47.057,9.171l-10.35,9.981
	c-0.297-0.234-0.605-0.453-0.924-0.655l5.189-13.188C43.117,6.285,45.16,7.581,47.057,9.171z M31.344,3.046
	c2.275,0.132,4.463,0.517,6.52,1.146l-5.166,12.925c-0.438-0.113-0.889-0.201-1.354-0.263V3.046z M31.344,41.221
	c0.84-0.101,1.639-0.303,2.381-0.603l0.182-0.044c1.195-0.51,2.318-1.229,3.34-2.143l10.645,10.333
	c-4.666,4.196-10.227,6.472-16.547,6.771V41.221z M20.363,4.583c2.393-0.866,4.965-1.383,7.654-1.537v13.813
	c-0.988,0.136-1.947,0.397-2.857,0.782l-0.326,0.137l-0.002,0.042c-0.816,0.368-1.6,0.86-2.33,1.469
	c-0.006-0.005-0.008-0.007-0.012-0.011L12.229,9.246C14.707,7.175,17.439,5.607,20.363,4.583z M9.795,11.457L20.16,21.588
	c0.029,0.03,0.059,0.058,0.09,0.084c-0.373,0.531-0.709,1.082-1.004,1.647L5.328,17.988C6.438,15.663,7.938,13.471,9.795,11.457z
	 M4.094,21.04l14.113,5.405c-0.068,0.405-0.125,0.82-0.168,1.24H2.785C2.934,25.363,3.373,23.133,4.094,21.04z M4.137,38.004
	c-0.75-2.205-1.205-4.569-1.354-7.04h15.344c0.232,1.722,0.807,3.313,1.709,4.743L8.99,46.239
	C6.803,43.728,5.172,40.958,4.137,38.004z M11.246,48.553l10.705-10.327c0.584,0.555,1.201,1.032,1.844,1.425l-5.477,13.621
	C15.803,52.139,13.428,50.554,11.246,48.553z M28.018,55.603c-2.297-0.13-4.51-0.515-6.592-1.147l5.383-13.494
	c0.396,0.11,0.801,0.194,1.209,0.251V55.603z M25.877,29.189c-2.172,0-3.939-1.767-3.939-3.939c0-2.172,1.768-3.939,3.939-3.939
	c2.17,0,3.938,1.768,3.938,3.939C29.814,27.423,28.047,29.189,25.877,29.189z" class="color c1"/>
</svg>