<svg version="1.1" id="图层_1" x="0px" y="0px" width="120.849px" height="200px" viewBox="0 0 120.849 200" enable-background="new 0 0 120.849 200" xml:space="preserve" xmlns="http://www.w3.org/2000/svg" xmlns:xlink="http://www.w3.org/1999/xlink" xmlns:xml="http://www.w3.org/XML/1998/namespace">
  <path fill="#F41812" d="M5.389,141.544c6.832-18.95,18.604-34.324,34.02-47.056c10.373-8.567,21.73-15.392,34.697-19.31
	c5.879-1.776,11.887-2.749,18.028-2.45c2.098,0.102,4.189,0.431,6.216,0.984C84.555,49.335,68.079,24.875,60.209,0
	C46.254,44.514,0,92.948,0,139.407c0,4.14,0.547,8.326,1.672,12.574c0.162,0.614,0.334,1.219,0.507,1.823
	C2.786,149.661,3.932,145.583,5.389,141.544z M115.109,108.789c-0.641,3.172-1.568,6.309-2.692,9.423
	c-6.542,18.127-17.61,33.046-32.162,45.51c-10.052,8.61-21.078,15.569-33.65,19.927c-6.459,2.239-14.024,3.571-20.513,3.324
	c-0.986-0.03-2.036-0.116-3.122-0.266c6.271,4.996,13.788,8.737,22.623,11.075c22.91,6.064,42.987-0.444,58.966-17.866
	c10.732-11.702,16.29-25.455,16.29-40.853C120.849,128.943,118.67,118.86,115.109,108.789z" class="color c1"/>
</svg>