<svg version="1.1" id="图层_1" x="0px" y="0px" width="41.584px" height="171.136px" viewBox="0 0 41.584 171.136" enable-background="new 0 0 41.584 171.136" xml:space="preserve" xmlns="http://www.w3.org/2000/svg" xmlns:xlink="http://www.w3.org/1999/xlink" xmlns:xml="http://www.w3.org/XML/1998/namespace">
  <g>
    <path fill="#7E9800" d="M12.153,21.484c0.088,0,0.175-0.003,0.264-0.008c2.228-0.146,3.923-2.078,3.779-4.306
		c-0.138-2.125-1.913-3.789-4.04-3.789c-0.087,0-0.174,0.003-0.263,0.008c-1.081,0.071-2.069,0.558-2.783,1.371
		c-0.715,0.813-1.07,1.856-0.999,2.937C8.25,19.82,10.025,21.484,12.153,21.484z M9.886,19.454c0.073,0.082,0.143,0.165,0.224,0.238
		C10.029,19.619,9.958,19.535,9.886,19.454z M9.278,18.414c0.042,0.124,0.083,0.249,0.14,0.364
		C9.36,18.663,9.32,18.538,9.278,18.414z M9.538,18.978c0.059,0.099,0.115,0.201,0.184,0.292
		C9.652,19.178,9.596,19.077,9.538,18.978z M12.153,20.484c-0.077,0-0.149-0.016-0.224-0.021c0.14,0.01,0.279,0.024,0.424,0.015
		C12.286,20.482,12.219,20.484,12.153,20.484z M10.311,19.848c0.084,0.064,0.167,0.131,0.258,0.186
		C10.478,19.978,10.396,19.912,10.311,19.848z M10.801,20.153c0.094,0.047,0.187,0.095,0.286,0.132
		C10.988,20.248,10.896,20.2,10.801,20.153z M11.344,20.361c0.102,0.028,0.204,0.057,0.31,0.074
		C11.547,20.418,11.446,20.39,11.344,20.361z M15.031,16.454c-0.042-0.125-0.083-0.25-0.141-0.367
		C14.948,16.203,14.988,16.329,15.031,16.454z M15.198,17.234c-0.014-0.206-0.048-0.406-0.1-0.598
		C15.15,16.829,15.185,17.028,15.198,17.234z M14.585,15.595c0.07,0.092,0.127,0.194,0.186,0.295
		C14.712,15.79,14.656,15.687,14.585,15.595z M14.424,15.414c-0.073-0.083-0.145-0.167-0.227-0.241
		C14.28,15.247,14.351,15.331,14.424,15.414z M12.156,14.381c0.077,0,0.149,0.016,0.225,0.021c-0.14-0.01-0.279-0.024-0.423-0.015
		C12.024,14.383,12.091,14.381,12.156,14.381z M13.999,15.018c-0.085-0.065-0.168-0.131-0.26-0.187
		C13.831,14.887,13.914,14.953,13.999,15.018z M13.507,14.712c-0.094-0.047-0.187-0.095-0.286-0.132
		C13.32,14.617,13.413,14.665,13.507,14.712z M12.964,14.503c-0.102-0.028-0.203-0.057-0.309-0.074
		C12.762,14.447,12.862,14.475,12.964,14.503z M9.209,18.229c-0.052-0.192-0.086-0.392-0.1-0.598
		C9.123,17.837,9.157,18.037,9.209,18.229z" class="color c1"/>
    <path fill="#7E9800" d="M19.966,150.147c-0.088,0-0.176,0.002-0.266,0.008c-1.08,0.07-2.068,0.556-2.783,1.37
		c-0.714,0.813-1.068,1.855-0.999,2.935c0.14,2.126,1.915,3.79,4.042,3.79c0.088,0,0.176-0.002,0.265-0.008
		c2.228-0.145,3.921-2.077,3.776-4.306C23.862,151.811,22.09,150.147,19.966,150.147z M22.227,152.176
		c-0.072-0.081-0.142-0.164-0.221-0.236C22.085,152.012,22.155,152.095,22.227,152.176z M22.834,153.213
		c-0.042-0.123-0.082-0.246-0.138-0.36C22.752,152.968,22.792,153.091,22.834,153.213z M22.575,152.651
		c-0.059-0.099-0.114-0.199-0.183-0.29C22.461,152.453,22.516,152.553,22.575,152.651z M19.966,151.147
		c0.076,0,0.147,0.016,0.221,0.021c-0.14-0.01-0.278-0.024-0.422-0.015C19.833,151.149,19.9,151.147,19.966,151.147z
		 M21.802,151.782c-0.083-0.064-0.165-0.129-0.255-0.185C21.637,151.652,21.718,151.718,21.802,151.782z M21.313,151.477
		c-0.093-0.046-0.185-0.094-0.283-0.131C21.127,151.382,21.219,151.43,21.313,151.477z M20.771,151.269
		c-0.101-0.027-0.201-0.056-0.306-0.073C20.569,151.213,20.669,151.241,20.771,151.269z M17.084,155.175
		c0.043,0.125,0.084,0.252,0.142,0.369C17.168,155.427,17.127,155.301,17.084,155.175z M16.917,154.396
		c0.014,0.207,0.048,0.406,0.1,0.599C16.965,154.802,16.931,154.602,16.917,154.396z M17.53,156.036
		c-0.07-0.093-0.126-0.195-0.186-0.296C17.403,155.841,17.46,155.943,17.53,156.036z M17.692,156.217
		c0.073,0.083,0.145,0.167,0.226,0.241C17.836,156.384,17.765,156.3,17.692,156.217z M19.961,157.25
		c-0.076,0-0.148-0.016-0.223-0.021c0.14,0.01,0.279,0.024,0.423,0.015C20.094,157.248,20.027,157.25,19.961,157.25z
		 M18.117,156.613c0.085,0.065,0.168,0.131,0.26,0.187C18.286,156.744,18.202,156.678,18.117,156.613z M18.609,156.919
		c0.094,0.047,0.188,0.095,0.287,0.133C18.796,157.014,18.703,156.966,18.609,156.919z M19.153,157.127
		c0.102,0.028,0.203,0.057,0.308,0.074C19.355,157.184,19.255,157.156,19.153,157.127z M22.904,153.403
		c0.052,0.192,0.086,0.392,0.1,0.598C22.99,153.795,22.956,153.595,22.904,153.403z" class="color c1"/>
    <path fill="#7E9800" d="M16.593,55.227c1.312-0.084,2.513-0.676,3.381-1.665c0.868-0.989,1.298-2.256,1.211-3.569
		c-0.166-2.58-2.321-4.603-4.908-4.603c-0.107,0-0.215,0.003-0.323,0.01c-2.71,0.177-4.772,2.524-4.597,5.232
		c0.17,2.583,2.328,4.604,4.912,4.604C16.377,55.237,16.485,55.233,16.593,55.227z M16.27,54.237c-0.098,0-0.19-0.021-0.287-0.028
		c0.18,0.014,0.36,0.032,0.545,0.02C16.441,54.234,16.355,54.237,16.27,54.237z M20.06,49.291c0.066,0.247,0.11,0.503,0.127,0.768
		C20.17,49.794,20.126,49.538,20.06,49.291z M19.402,47.953c0.087,0.115,0.157,0.242,0.231,0.367
		C19.56,48.195,19.489,48.067,19.402,47.953z M19.793,48.584c0.071,0.146,0.122,0.302,0.175,0.458
		C19.915,48.887,19.864,48.729,19.793,48.584z M19.186,47.709c-0.091-0.102-0.18-0.208-0.281-0.299
		C19.006,47.502,19.094,47.607,19.186,47.709z M16.278,46.391c0.098,0,0.191,0.021,0.287,0.028c-0.18-0.014-0.36-0.032-0.545-0.02
		C16.106,46.393,16.192,46.391,16.278,46.391z M18.64,47.205c-0.106-0.082-0.211-0.165-0.326-0.235
		C18.429,47.04,18.533,47.124,18.64,47.205z M18.012,46.814c-0.12-0.06-0.239-0.121-0.365-0.168
		C17.773,46.693,17.892,46.754,18.012,46.814z M17.315,46.548c-0.131-0.036-0.261-0.073-0.396-0.095
		C17.055,46.475,17.185,46.512,17.315,46.548z M12.908,52.301c0.076,0.128,0.147,0.258,0.237,0.375
		C13.055,52.559,12.983,52.429,12.908,52.301z M12.355,50.568c0.018,0.265,0.063,0.522,0.129,0.769
		C12.418,51.09,12.373,50.833,12.355,50.568z M12.572,51.574c0.055,0.16,0.107,0.321,0.181,0.47
		C12.679,51.895,12.627,51.734,12.572,51.574z M13.355,52.913c0.094,0.104,0.184,0.212,0.289,0.306
		C13.539,53.125,13.449,53.018,13.355,52.913z M15.628,54.175c-0.136-0.022-0.266-0.059-0.397-0.095
		C15.362,54.116,15.493,54.152,15.628,54.175z M14.901,53.982c-0.127-0.048-0.247-0.109-0.368-0.17
		C14.654,53.873,14.773,53.934,14.901,53.982z M14.234,53.659c-0.117-0.071-0.224-0.156-0.333-0.24
		C14.011,53.502,14.117,53.587,14.234,53.659z" class="color c1"/>
    <path fill="#7E9800" d="M30.055,66.708c-0.182-2.81-2.527-5.011-5.338-5.011c-0.118,0-0.236,0.003-0.355,0.011
		c-1.428,0.092-2.734,0.736-3.679,1.812c-0.944,1.076-1.414,2.455-1.321,3.883c0.181,2.81,2.528,5.011,5.344,5.011
		c0.116,0,0.233-0.004,0.351-0.011c1.428-0.093,2.735-0.736,3.679-1.812S30.148,68.136,30.055,66.708z M28.447,64.849
		c-0.084-0.142-0.165-0.287-0.263-0.418C28.283,64.563,28.362,64.707,28.447,64.849z M29.057,66.773
		c-0.019-0.294-0.068-0.58-0.142-0.854C28.988,66.194,29.038,66.479,29.057,66.773z M28.817,65.656
		c-0.061-0.177-0.118-0.356-0.2-0.522C28.699,65.3,28.757,65.478,28.817,65.656z M27.951,64.17
		c-0.104-0.117-0.206-0.237-0.321-0.342C27.746,63.933,27.847,64.053,27.951,64.17z M24.716,62.696c0.11,0,0.215,0.023,0.324,0.031
		c-0.203-0.015-0.405-0.035-0.613-0.021C24.524,62.7,24.62,62.696,24.716,62.696z M27.346,63.607
		c-0.122-0.093-0.241-0.189-0.373-0.269C27.105,63.419,27.225,63.514,27.346,63.607z M26.649,63.171
		c-0.136-0.068-0.272-0.138-0.416-0.192C26.377,63.033,26.512,63.103,26.649,63.171z M25.874,62.873
		c-0.148-0.041-0.296-0.083-0.449-0.108C25.579,62.79,25.726,62.832,25.874,62.873z M20.969,69.26
		c0.084,0.143,0.166,0.289,0.265,0.421C21.134,69.549,21.053,69.403,20.969,69.26z M20.359,67.338
		c0.019,0.294,0.068,0.58,0.142,0.854C20.428,67.918,20.378,67.633,20.359,67.338z M20.598,68.454
		c0.061,0.178,0.119,0.358,0.201,0.524C20.717,68.812,20.659,68.633,20.598,68.454z M21.466,69.941
		c0.104,0.117,0.206,0.237,0.322,0.342C21.672,70.178,21.571,70.058,21.466,69.941z M24.705,71.414c-0.109,0-0.213-0.023-0.32-0.031
		c0.2,0.015,0.4,0.035,0.606,0.021C24.895,71.411,24.8,71.414,24.705,71.414z M22.074,70.505c0.121,0.092,0.24,0.188,0.37,0.267
		C22.314,70.692,22.195,70.597,22.074,70.505z M22.774,70.941c0.135,0.067,0.269,0.136,0.411,0.189
		C23.043,71.078,22.91,71.009,22.774,70.941z M23.551,71.239c0.146,0.041,0.291,0.082,0.442,0.106
		C23.841,71.32,23.697,71.279,23.551,71.239z" class="color c1"/>
    <path fill="#7E9800" d="M30.929,135.314c-0.097,0-0.194,0.003-0.292,0.009c-1.197,0.077-2.292,0.616-3.083,1.516
		c-0.792,0.9-1.185,2.055-1.108,3.251c0.154,2.354,2.121,4.197,4.477,4.197c0.097,0,0.194-0.003,0.292-0.009
		c2.469-0.162,4.347-2.301,4.188-4.769C35.25,137.157,33.286,135.314,30.929,135.314z M33.516,137.489
		c-0.082-0.092-0.162-0.187-0.253-0.27C33.354,137.303,33.434,137.397,33.516,137.489z M33.913,138.031
		c-0.066-0.112-0.129-0.226-0.207-0.329C33.784,137.805,33.846,137.919,33.913,138.031z M30.929,136.314
		c0.087,0,0.17,0.019,0.256,0.025c-0.16-0.012-0.319-0.028-0.484-0.018C30.778,136.317,30.854,136.314,30.929,136.314z
		 M33.031,137.04c-0.096-0.073-0.189-0.148-0.292-0.211C32.841,136.892,32.935,136.967,33.031,137.04z M32.472,136.692
		c-0.107-0.053-0.213-0.108-0.326-0.15C32.259,136.584,32.364,136.639,32.472,136.692z M31.852,136.455
		c-0.116-0.032-0.232-0.065-0.353-0.085C31.62,136.39,31.735,136.422,31.852,136.455z M27.558,140.709
		c-0.059-0.22-0.099-0.448-0.114-0.683C27.459,140.262,27.499,140.49,27.558,140.709z M28.144,141.899
		c-0.078-0.104-0.141-0.218-0.208-0.33C28.002,141.682,28.065,141.796,28.144,141.899z M27.796,141.338
		c-0.064-0.13-0.109-0.271-0.157-0.41C27.687,141.067,27.731,141.208,27.796,141.338z M28.334,142.113
		c0.082,0.092,0.162,0.186,0.253,0.269C28.495,142.299,28.416,142.205,28.334,142.113z M30.922,143.288
		c-0.087,0-0.171-0.019-0.257-0.025c0.16,0.012,0.32,0.028,0.485,0.018C31.074,143.286,30.998,143.288,30.922,143.288z
		 M28.82,142.563c0.096,0.073,0.189,0.148,0.292,0.21C29.009,142.71,28.916,142.636,28.82,142.563z M29.379,142.911
		c0.107,0.053,0.213,0.108,0.325,0.15C29.592,143.019,29.486,142.964,29.379,142.911z M29.999,143.148
		c0.116,0.032,0.232,0.065,0.353,0.085C30.23,143.213,30.115,143.18,29.999,143.148z M34.291,138.891
		c0.059,0.22,0.099,0.448,0.114,0.683C34.389,139.339,34.35,139.111,34.291,138.891z M34.053,138.264
		c0.064,0.131,0.11,0.272,0.158,0.412C34.163,138.536,34.118,138.395,34.053,138.264z" class="color c1"/>
    <path fill="#7E9800" d="M36.611,117.56c-0.107,0-0.215,0.003-0.323,0.01c-1.313,0.086-2.513,0.677-3.38,1.665
		c-0.868,0.988-1.298,2.256-1.211,3.568c0.165,2.58,2.32,4.603,4.907,4.603c0.107,0,0.215-0.003,0.323-0.01
		c2.707-0.177,4.767-2.523,4.592-5.231C41.351,119.583,39.195,117.56,36.611,117.56z M39.521,119.883
		c-0.093-0.104-0.183-0.21-0.286-0.304C39.338,119.673,39.428,119.779,39.521,119.883z M39.969,120.495
		c-0.075-0.126-0.146-0.256-0.235-0.373C39.822,120.239,39.894,120.368,39.969,120.495z M36.611,118.56
		c0.098,0,0.19,0.021,0.287,0.028c-0.18-0.014-0.359-0.032-0.545-0.02C36.439,118.563,36.525,118.56,36.611,118.56z M38.975,119.377
		c-0.108-0.082-0.214-0.167-0.33-0.238C38.761,119.21,38.867,119.294,38.975,119.377z M38.345,118.985
		c-0.12-0.06-0.24-0.122-0.367-0.169C38.106,118.863,38.225,118.925,38.345,118.985z M37.647,118.717
		c-0.13-0.036-0.26-0.073-0.396-0.095C37.387,118.645,37.517,118.681,37.647,118.717z M32.822,123.506
		c-0.066-0.247-0.11-0.503-0.127-0.768C32.711,123.002,32.755,123.259,32.822,123.506z M33.479,124.844
		c-0.087-0.115-0.157-0.243-0.231-0.368C33.321,124.602,33.392,124.729,33.479,124.844z M33.088,124.213
		c-0.072-0.146-0.122-0.303-0.175-0.459C32.966,123.91,33.017,124.067,33.088,124.213z M33.695,125.087
		c0.092,0.103,0.18,0.208,0.282,0.3C33.875,125.295,33.787,125.189,33.695,125.087z M36.603,126.406
		c-0.098,0-0.191-0.021-0.287-0.028c0.18,0.014,0.36,0.032,0.545,0.02C36.774,126.404,36.688,126.406,36.603,126.406z
		 M34.241,125.592c0.106,0.082,0.211,0.165,0.326,0.235C34.452,125.757,34.348,125.673,34.241,125.592z M34.869,125.982
		c0.12,0.06,0.239,0.121,0.365,0.168C35.107,126.104,34.989,126.042,34.869,125.982z M35.565,126.249
		c0.13,0.036,0.261,0.073,0.396,0.095C35.826,126.322,35.696,126.285,35.565,126.249z M40.392,121.461
		c0.067,0.247,0.111,0.503,0.128,0.769C40.503,121.964,40.458,121.708,40.392,121.461z M40.125,120.754
		c0.073,0.148,0.125,0.309,0.179,0.468C40.25,121.063,40.198,120.902,40.125,120.754z" class="color c1"/>
    <path fill="#7E9800" d="M7.15,165.987H7.04c-0.586-1.244-1.85-2.083-3.26-2.083c-0.078,0-0.156,0.002-0.235,0.007
		c-1.328,0.086-2.481,0.904-3.031,2.076H0.417l-0.164,0.776c-0.001,0.006-0.003,0.013-0.004,0.019
		c-0.002,0.009-0.004,0.019-0.006,0.028L0,167.987h0.193c0.059,0.441,0.201,0.87,0.426,1.276c0.638,1.155,1.849,1.873,3.16,1.873
		c0.077,0,0.153-0.002,0.231-0.007c1.251-0.083,2.353-0.794,2.948-1.905c0.209-0.39,0.345-0.809,0.403-1.236h0.199l-0.252-1.199
		L7.15,165.987z M5.874,165.986c-0.051-0.07-0.1-0.142-0.157-0.207C5.774,165.844,5.823,165.916,5.874,165.986z M6.327,166.987
		c-0.032-0.154-0.078-0.301-0.136-0.443C6.249,166.686,6.295,166.833,6.327,166.987z M6.12,166.401
		c-0.042-0.089-0.083-0.179-0.134-0.262C6.037,166.222,6.078,166.312,6.12,166.401z M3.78,164.903c0.057,0,0.111,0.011,0.167,0.015
		c-0.111-0.007-0.222-0.017-0.337-0.009C3.667,164.905,3.723,164.903,3.78,164.903z M5.575,165.641
		c-0.06-0.058-0.118-0.117-0.183-0.169C5.457,165.524,5.515,165.583,5.575,165.641z M5.227,165.357
		c-0.068-0.046-0.135-0.093-0.207-0.133C5.092,165.265,5.159,165.312,5.227,165.357z M4.833,165.138
		c-0.074-0.033-0.148-0.067-0.226-0.094C4.686,165.07,4.759,165.104,4.833,165.138z M4.404,164.989
		c-0.08-0.02-0.159-0.04-0.241-0.052C4.246,164.95,4.325,164.969,4.404,164.989z M1.886,169.31c0.01,0.01,0.018,0.022,0.028,0.032
		C1.903,169.331,1.896,169.32,1.886,169.31z M3.779,170.136c-0.019,0-0.036-0.007-0.054-0.008c0.074,0.002,0.146,0.007,0.222,0.002
		C3.89,170.134,3.834,170.136,3.779,170.136z M2.404,169.733c0.02,0.012,0.038,0.026,0.058,0.038
		C2.441,169.76,2.423,169.746,2.404,169.733z M3.025,170.017c0.028,0.009,0.055,0.019,0.083,0.026
		C3.081,170.035,3.054,170.025,3.025,170.017z" class="color c1"/>
    <path fill="#7E9800" d="M15.853,5.212h0.097c0.595,1.22,1.833,2.019,3.236,2.019c0.079,0,0.158-0.003,0.237-0.008
		c1.312-0.086,2.438-0.864,2.997-2.011h0.092l0.182-0.77c0-0.002,0.001-0.004,0.001-0.005l0.29-1.225h-0.204
		C22.578,1.398,21.032,0,19.19,0c-0.078,0-0.156,0.002-0.235,0.007c-1.774,0.116-3.169,1.498-3.361,3.205h-0.208l0.288,1.225
		L15.853,5.212z M17.11,5.179c0.053,0.07,0.104,0.142,0.163,0.207C17.213,5.321,17.163,5.25,17.11,5.179z M16.648,4.212
		c0.035,0.149,0.083,0.293,0.143,0.431C16.732,4.505,16.684,4.362,16.648,4.212z M16.863,4.78c0.044,0.087,0.086,0.175,0.139,0.256
		C16.949,4.955,16.907,4.867,16.863,4.78z M19.186,6.231c-0.057,0-0.111-0.011-0.167-0.015c0.112,0.007,0.225,0.016,0.34,0.009
		C19.301,6.229,19.243,6.231,19.186,6.231z M17.408,5.514c0.062,0.058,0.122,0.117,0.188,0.169
		C17.53,5.631,17.47,5.572,17.408,5.514z M17.755,5.79c0.069,0.046,0.138,0.093,0.211,0.132C17.893,5.883,17.825,5.836,17.755,5.79z
		 M18.144,6.003c0.076,0.034,0.152,0.067,0.231,0.094C18.296,6.07,18.22,6.037,18.144,6.003z M18.567,6.147
		c0.082,0.02,0.164,0.04,0.248,0.052C18.73,6.187,18.648,6.167,18.567,6.147z M21.713,2.933c0.044,0.165,0.074,0.335,0.086,0.512
		C21.787,3.269,21.757,3.098,21.713,2.933z M21.655,2.777c-0.037-0.107-0.072-0.215-0.121-0.315
		C21.583,2.562,21.618,2.669,21.655,2.777z M21.133,1.885c-0.063-0.07-0.124-0.143-0.194-0.206
		C21.009,1.742,21.07,1.814,21.133,1.885z M21.433,2.294c-0.051-0.086-0.1-0.174-0.16-0.253C21.333,2.12,21.381,2.208,21.433,2.294z
		 M19.19,1c0.065,0,0.127,0.014,0.191,0.019c-0.12-0.009-0.239-0.021-0.362-0.013C19.077,1.001,19.133,1,19.19,1z M20.768,1.546
		c-0.072-0.055-0.144-0.112-0.222-0.16C20.624,1.434,20.695,1.49,20.768,1.546z M20.347,1.284c-0.081-0.041-0.16-0.082-0.245-0.113
		C20.187,1.202,20.266,1.243,20.347,1.284z M19.881,1.105c-0.087-0.024-0.174-0.048-0.264-0.063
		C19.708,1.057,19.794,1.081,19.881,1.105z" class="color c1"/>
    <path fill="#7E9800" d="M14.471,33.409c-0.152-2.353-2.119-4.196-4.478-4.196c-0.097,0-0.195,0.003-0.293,0.009
		c-1.195,0.077-2.289,0.616-3.08,1.517c-0.791,0.9-1.183,2.055-1.105,3.251c0.154,2.354,2.12,4.198,4.475,4.198
		c0.097,0,0.194-0.003,0.292-0.009c1.197-0.077,2.292-0.616,3.083-1.518C14.156,35.759,14.549,34.605,14.471,33.409z M13.473,33.475
		c-0.015-0.236-0.055-0.464-0.114-0.684C13.418,33.011,13.458,33.239,13.473,33.475z M13.279,32.576
		c-0.048-0.141-0.094-0.282-0.158-0.414C13.186,32.294,13.231,32.436,13.279,32.576z M12.585,31.39
		c-0.083-0.093-0.164-0.188-0.256-0.272C12.422,31.202,12.502,31.297,12.585,31.39z M12.982,31.932
		c-0.067-0.113-0.13-0.228-0.209-0.332C12.852,31.705,12.915,31.819,12.982,31.932z M9.993,30.213c0.088,0,0.171,0.019,0.257,0.025
		c-0.161-0.012-0.32-0.028-0.485-0.018C9.841,30.215,9.917,30.213,9.993,30.213z M12.1,30.94c-0.097-0.074-0.192-0.15-0.296-0.213
		C11.908,30.791,12.002,30.866,12.1,30.94z M11.54,30.591c-0.108-0.054-0.215-0.109-0.329-0.152
		C11.325,30.482,11.431,30.537,11.54,30.591z M10.918,30.354c-0.117-0.033-0.233-0.065-0.355-0.085
		C10.685,30.288,10.801,30.321,10.918,30.354z M6.627,34.608c-0.059-0.22-0.099-0.448-0.114-0.683
		C6.528,34.161,6.568,34.389,6.627,34.608z M7.212,35.799c-0.078-0.104-0.141-0.217-0.208-0.33
		C7.071,35.581,7.134,35.696,7.212,35.799z M6.865,35.237c-0.064-0.13-0.109-0.271-0.157-0.409
		C6.756,34.967,6.801,35.107,6.865,35.237z M7.402,36.012c0.082,0.092,0.162,0.187,0.253,0.27
		C7.564,36.199,7.485,36.104,7.402,36.012z M9.99,37.188c-0.087,0-0.17-0.018-0.257-0.025c0.16,0.012,0.32,0.028,0.485,0.018
		C10.141,37.186,10.065,37.188,9.99,37.188z M7.887,36.461c0.096,0.073,0.19,0.149,0.294,0.212
		C8.077,36.61,7.983,36.534,7.887,36.461z M8.445,36.81c0.107,0.054,0.214,0.109,0.328,0.151C8.66,36.918,8.553,36.863,8.445,36.81z
		 M9.065,37.047c0.117,0.033,0.233,0.065,0.354,0.085C9.298,37.113,9.182,37.08,9.065,37.047z" class="color c1"/>
    <path fill="#7E9800" d="M27.361,85.729c0.198,3.039,2.736,5.418,5.778,5.418c0.127,0,0.254-0.004,0.382-0.012
		c1.545-0.1,2.958-0.796,3.979-1.959c1.02-1.163,1.526-2.654,1.426-4.198c-0.197-3.039-2.734-5.419-5.777-5.419
		c-0.125,0-0.252,0.004-0.379,0.012C29.58,79.778,27.154,82.541,27.361,85.729z M29.035,87.785c0.092,0.154,0.179,0.312,0.286,0.454
		C29.213,88.097,29.126,87.939,29.035,87.785z M28.359,85.664c0.021,0.324,0.076,0.637,0.157,0.939
		C28.435,86.301,28.38,85.988,28.359,85.664z M28.626,86.901c0.066,0.192,0.128,0.386,0.217,0.565
		C28.755,87.287,28.692,87.094,28.626,86.901z M29.582,88.531c0.113,0.127,0.223,0.257,0.349,0.371
		C29.804,88.788,29.695,88.658,29.582,88.531z M33.139,90.147c-0.12,0-0.233-0.025-0.351-0.034c0.221,0.016,0.44,0.038,0.668,0.023
		C33.35,90.144,33.245,90.147,33.139,90.147z M30.248,89.149c0.132,0.101,0.262,0.205,0.404,0.292
		C30.51,89.354,30.381,89.25,30.248,89.149z M31.017,89.628c0.147,0.074,0.294,0.149,0.45,0.208
		C31.311,89.777,31.165,89.702,31.017,89.628z M31.87,89.955c0.16,0.044,0.32,0.089,0.486,0.117
		C32.189,90.044,32.03,90,31.87,89.955z M37.255,82.925c-0.092-0.156-0.18-0.315-0.289-0.459
		C37.075,82.61,37.163,82.769,37.255,82.925z M37.928,85.042c-0.021-0.324-0.075-0.638-0.156-0.94
		C37.853,84.405,37.907,84.718,37.928,85.042z M37.663,83.81c-0.066-0.194-0.129-0.39-0.219-0.571
		C37.534,83.42,37.597,83.615,37.663,83.81z M36.709,82.177c-0.114-0.128-0.225-0.259-0.352-0.374
		C36.484,81.918,36.595,82.049,36.709,82.177z M33.148,80.558c0.121,0,0.236,0.025,0.355,0.034
		c-0.221-0.017-0.442-0.039-0.669-0.024C32.939,80.562,33.044,80.558,33.148,80.558z M36.042,81.558
		c-0.133-0.102-0.263-0.206-0.406-0.293C35.779,81.353,35.909,81.457,36.042,81.558z M35.273,81.079
		c-0.149-0.074-0.296-0.15-0.453-0.209C34.977,80.929,35.124,81.004,35.273,81.079z M34.421,80.751
		c-0.161-0.045-0.322-0.09-0.489-0.118C34.099,80.662,34.259,80.707,34.421,80.751z" class="color c1"/>
    <path fill="#7E9800" d="M35.88,98.409c-2.947,0.192-5.19,2.747-5.001,5.694c0.183,2.813,2.531,5.015,5.346,5.015
		c0.116,0,0.232-0.004,0.349-0.011c2.949-0.193,5.191-2.748,5-5.695c-0.183-2.812-2.53-5.014-5.343-5.014
		C36.114,98.398,35.998,98.402,35.88,98.409z M36.23,99.398c0.11,0,0.214,0.023,0.322,0.031c-0.201-0.015-0.4-0.035-0.607-0.022
		C36.04,99.401,36.135,99.398,36.23,99.398z M32.484,105.958c0.085,0.145,0.167,0.292,0.268,0.425
		C32.651,106.25,32.57,106.103,32.484,105.958z M31.877,104.04c0.019,0.295,0.069,0.58,0.143,0.855
		C31.946,104.62,31.896,104.334,31.877,104.04z M32.114,105.151c0.061,0.18,0.12,0.361,0.203,0.529
		C32.234,105.512,32.175,105.332,32.114,105.151z M32.981,106.641c0.105,0.118,0.208,0.24,0.325,0.346
		C33.189,106.88,33.087,106.759,32.981,106.641z M36.225,108.118c-0.11,0-0.215-0.023-0.324-0.031
		c0.201,0.015,0.401,0.035,0.608,0.022C36.414,108.115,36.319,108.118,36.225,108.118z M33.588,107.205
		c0.123,0.094,0.243,0.19,0.375,0.271C33.831,107.395,33.711,107.299,33.588,107.205z M34.289,107.643
		c0.136,0.068,0.271,0.138,0.415,0.192C34.56,107.781,34.425,107.711,34.289,107.643z M35.065,107.942
		c0.147,0.041,0.294,0.082,0.447,0.107C35.359,108.024,35.213,107.983,35.065,107.942z M39.967,101.555
		c-0.085-0.144-0.166-0.29-0.266-0.422C39.801,101.265,39.882,101.411,39.967,101.555z M40.575,103.477
		c-0.019-0.295-0.068-0.58-0.143-0.855C40.507,102.896,40.556,103.182,40.575,103.477z M40.336,102.36
		c-0.061-0.179-0.119-0.358-0.201-0.525C40.217,102.002,40.275,102.182,40.336,102.36z M39.471,100.875
		c-0.105-0.118-0.207-0.239-0.324-0.345C39.264,100.636,39.366,100.756,39.471,100.875z M36.943,99.467
		c0.152,0.025,0.298,0.066,0.445,0.107C37.241,99.533,37.095,99.492,36.943,99.467z M37.75,99.681
		c0.144,0.054,0.278,0.123,0.414,0.191C38.029,99.805,37.894,99.735,37.75,99.681z M38.491,100.041
		c0.131,0.081,0.251,0.176,0.373,0.27C38.743,100.217,38.623,100.121,38.491,100.041z" class="color c1"/>
  </g>
</svg>