<svg version="1.1" id="图层_1" x="0px" y="0px" width="144.009px" height="117.414px" viewBox="0 0 144.009 117.414" enable-background="new 0 0 144.009 117.414" xml:space="preserve" xmlns="http://www.w3.org/2000/svg" xmlns:xlink="http://www.w3.org/1999/xlink" xmlns:xml="http://www.w3.org/XML/1998/namespace">
  <path fill="#EB0D1C" d="M58.558,0.951c-25.483,4.766-44.776,27.109-44.776,53.98v28.703h73.112
	c8.02-7.164,10.02-23.954,10.02-39.831C96.914,24.772,70.745,1.621,58.558,0.951z" class="color c1"/>
  <path fill="#C6091B" d="M129.137,54.932C129.137,24.59,104.541,0,74.206,0h-5.493c-3.471,0-6.862,0.336-10.154,0.951
	c12.187,0.67,28.039,23.629,28.039,42.66c0,15.877,0.204,32.961,0.297,40.023h42.243V54.932z" class="color c2"/>
  <path fill="#EB0D1C" d="M64.124,89.932c-26.992,0.15-52.02,0.291-54.597,0.291C3.978,90.223,0,91.609,0,100.674
	c0,9.063,0.093,16.74,0.093,16.74H117.1C119.914,105.471,118.914,91.804,64.124,89.932z" class="color c1"/>
  <path fill="#C6091B" d="M144.009,99.656c0-4.35-0.833-10.082-10.082-10.082c-4.953,0-38.683,0.186-69.803,0.357
	c17.866,1.494,44.172,7.07,52.976,27.482h26.909C144.009,117.414,144.009,104.002,144.009,99.656z" class="color c2"/>
</svg>