<svg version="1.1" id="图层_1" x="0px" y="0px" width="200.002px" height="152.834px" viewBox="184.057 389.888 200.002 152.834" enable-background="new 184.057 389.888 200.002 152.834" xml:space="preserve" xmlns="http://www.w3.org/2000/svg" xmlns:xlink="http://www.w3.org/1999/xlink" xmlns:xml="http://www.w3.org/XML/1998/namespace">
  <g>
    <path fill="#243D3F" d="M254.221,466.224c-0.033-0.006-0.07-0.01-0.104-0.016L254.221,466.224L254.221,466.224z" class="color c1"/>
    <path fill="#243D3F" d="M383.903,425.482c-1.113-4.932-8.1-8.109-18.841-9.418c-2.154-0.35-4.49-0.615-6.988-0.793
		c0,0,14.73,4.503,15.735,8.959c1.303,5.77-5.68,12.828-17.983,19.545c-1.9,1.037-3.929,2.066-6.071,3.082
		c-11.432,5.414-26.164,10.426-42.555,14.125c-20.269,4.576-39.114,6.252-52.979,5.244c1.075,0.184,2.209,0.338,3.374,0.479
		c14.121,2.264,35.921,0.895,59.694-4.471c12.201-2.754,23.464-6.238,33.146-10.07c-2.169,14.334-6.957,31.652-13.549,48.418
		c-4.069,10.355-8.534,19.629-12.563,26.111c-4.646,7.479-7.655,9.65-8.566,9.455c-0.56-0.123-0.629-0.561-1.063-1.91
		c-1.61-4.984-3.08-10.928-4.638-17.219c-2.464-9.967-5.015-20.273-8.503-28.338c-4.371-10.104-9.617-15.016-16.033-15.016h-0.556
		c-6.183,0-11.308,4.873-15.665,14.895c-3.476,8-6.115,18.289-8.669,28.24c-1.629,6.342-3.163,12.33-4.834,17.426
		c-0.368,1.125-0.481,1.859-1.162,1.973c-0.534,0.088-2.809-0.105-8.6-9.303c-4.032-6.404-8.476-15.572-12.519-25.818
		c-5.531-14.029-9.785-28.592-12.277-41.549c-2.11-0.098-4.157-0.229-6.135-0.391c2.5,13.781,6.984,29.299,12.994,44.543
		c4.25,10.781,8.771,20.096,13.078,26.939c5.131,8.145,9.531,12.102,13.456,12.102c1.74,0,4.931-0.814,6.72-6.277
		c1.74-5.309,3.307-11.4,4.963-17.865c4.392-17.104,9.854-38.387,18.647-38.387h0.556c3.908,0,7.409,3.695,10.7,11.301
		c3.258,7.535,5.734,17.553,8.136,27.254c1.586,6.412,3.085,12.469,4.767,17.684c1.755,5.43,4.907,6.24,6.634,6.24
		c3.903,0,8.303-4.02,13.439-12.287c4.298-6.912,8.83-16.318,13.108-27.201c7.453-18.961,12.563-38.102,14.481-53.684
		c0.5-0.223,1.014-0.443,1.503-0.67C375.252,441.052,385.455,432.355,383.903,425.482z" class="color c1"/>
  </g>
  <g>
    <path fill="#008196" d="M357.229,430.242c-1.169-9.736-4.845-18.779-10.66-25.968c-6.436-7.95-14.941-12.836-24.325-14.073
		c-0.168,0.004-0.334,0.008-0.516,0.014c-14.151,0.318-22.903,10.873-25.686,14.813c6.269-3.807,14.501-8.617,21.428-8.617
		c19.797,0,32.239,17.582,34.036,35.977c-15.248,5.459-34.024,10.305-54.582,13.734c-28.097,4.688-53.93,5.807-72.545,3.809
		c-1.652-0.178-3.23-0.387-4.77-0.613c-0.557-4.449-0.851-8.598-0.851-12.322c0-19.949,12.817-40.582,34.267-40.582
		c5.574,0,12.899,2.805,19.599,7.5c0.979,0.689,2.364,1.863,3.702,2.998c0.531,0.453,1.06,0.899,1.549,1.305
		c1.568,1.299,3.689,2.996,6.184,4.615c1.062,0.69,2.383,1.553,3.785,2.209c5.368,2.516,11.059,3.791,16.913,3.791
		c2.328,0,4.354-0.179,5.968-0.396c-16.054,0.335-20.765-7.102-28.209-13.859c-7.565-6.875-15.965-11.115-17.47-11.849
		c-3.938-1.669-8.04-2.837-12.021-2.837c-11.258,0-21.592,5.109-29.101,14.389c-7.143,8.829-11.077,20.445-11.077,32.721
		c0,3.471,0.235,7.246,0.674,11.238c-10.771-2.324-17.455-6.143-18.315-11.301c-0.915-5.484,15.399-17.641,15.399-17.641
		c-1.656,0.762-3.225,1.529-4.731,2.299c-14.513,7.041-22.804,14.498-21.724,20.98c1.199,7.186,13.691,11.77,32.809,13.338
		c1.977,0.162,4.021,0.293,6.133,0.389c17.426,0.801,39.313-0.625,62.78-4.541c25.905-4.324,48.994-10.895,65.731-18.113
		c0.017,0.213,0.037,0.424,0.05,0.637c0.019,0.293,0.029,0.584,0.043,0.877l0.037,0.977h0.001c0,0.303-0.001,0.646-0.001,0.861
		c0,1.723-0.07,3.547-0.2,5.455c2.144-1.016,4.17-2.045,6.07-3.082c0.023-0.807,0.039-1.602,0.039-2.375
		c0-1.252-0.051-2.496-0.132-3.73c-0.001,0-0.003,0-0.005,0.002l-0.021-0.436c-0.044-0.602-0.102-1.199-0.164-1.795
		c0.688-0.332,1.376-0.666,2.036-1c0.198-0.102,0.386-0.203,0.581-0.305c0.546-0.268,1.104-0.535,1.634-0.805
		c1.588-0.807,3.098-1.619,4.516-2.434c-1.457,0.672-2.978,1.338-4.542,2.002C360.152,429.08,358.703,429.662,357.229,430.242z" class="color c2"/>
    <path fill="#008196" d="M366.212,426.419c-0.04,0.023-0.084,0.047-0.124,0.07c0.001,0,0.003-0.002,0.004-0.002L366.212,426.419z" class="color c2"/>
  </g>
</svg>