<svg version="1.1" id="图层_1" x="0px" y="0px" width="116.615px" height="200px" viewBox="0 0 116.615 200" enable-background="new 0 0 116.615 200" xml:space="preserve" xmlns:xml="http://www.w3.org/XML/1998/namespace" xmlns="http://www.w3.org/2000/svg" xmlns:xlink="http://www.w3.org/1999/xlink">
  <path fill="#FF191E" d="M108.273,137.181c-2.604-2.604-6.062-4.038-9.736-4.038c-7.596,0-13.774,6.18-13.774,13.775
	c0,7.595,6.179,13.773,13.774,13.773s13.774-6.179,13.774-13.773C112.312,143.243,110.878,139.785,108.273,137.181z M98.537,153.691
	c-3.735,0-6.774-3.038-6.774-6.772c0-3.735,3.039-6.774,6.774-6.774s6.774,3.039,6.774,6.774c0,1.805-0.705,3.505-1.986,4.785
	C102.043,152.985,100.343,153.691,98.537,153.691z" class="color c1"/>
  <path fill="#250400" d="M116.453,144.327c-1.22-9.234-9.152-16.197-18.454-16.197c-0.816,0-1.646,0.056-2.46,0.162
	c-7.535,0.996-13.645,6.474-15.564,13.672H60.381v-33.506c26.7-2.474,47.275-24.781,47.31-51.887V35.132
	c0-9.54-7.762-17.301-17.303-17.301h-0.177V4.803C90.211,2.154,88.057,0,85.408,0s-4.803,2.154-4.803,4.803v33.142
	c0,2.649,2.153,4.804,4.803,4.804s4.803-2.155,4.803-4.804V27.437h0.177c4.243,0,7.694,3.452,7.694,7.696V56.59
	c0,23.442-19.071,42.515-42.514,42.515c-23.443,0-42.516-19.073-42.516-42.515V35.132c0-4.244,3.452-7.696,7.696-7.696h0.174v10.508
	c0,2.649,2.155,4.804,4.806,4.804c2.647,0,4.802-2.155,4.802-4.804V4.803C30.53,2.154,28.377,0,25.729,0
	c-2.649,0-4.806,2.154-4.806,4.803v13.028H20.75c-9.541,0-17.303,7.762-17.303,17.301v21.457
	c0.044,27.108,20.627,49.407,47.328,51.868v33.506H28.289h-0.038h-0.038c-16,0.449-28.649,13.834-28.2,29.834
	c0.433,15.383,12.819,27.768,28.2,28.203h0.039h0.037h3.063c15.994,0,29.018-13.014,29.028-29.008v-19.424h19.594
	c2.146,8.033,9.497,13.834,17.984,13.834c0.816,0,1.645-0.055,2.459-0.16C110.604,163.895,117.798,154.512,116.453,144.327z
	 M50.775,170.993c-0.01,10.687-8.715,19.394-19.405,19.401h-3.036c-5.172-0.17-9.969-2.338-13.514-6.106
	c-3.555-3.779-5.425-8.715-5.266-13.902c0.313-10.225,8.559-18.481,18.778-18.815h22.441L50.775,170.993L50.775,170.993z
	 M98.537,158.691c-6.492,0-11.774-5.28-11.774-11.772c0-6.494,5.282-11.774,11.774-11.774s11.774,5.28,11.774,11.774
	C110.312,153.411,105.029,158.691,98.537,158.691z M98.537,138.143c-4.838,0-8.774,3.937-8.774,8.775
	c0,4.838,3.938,8.773,8.774,8.773s8.774-3.937,8.774-8.773C107.312,142.079,103.375,138.143,98.537,138.143z" class="color c2"/>
</svg>