<svg version="1.1" id="图层_1" x="0px" y="0px" width="43.94px" height="72.094px" viewBox="0 0 43.94 72.094" enable-background="new 0 0 43.94 72.094" xml:space="preserve" xmlns:xml="http://www.w3.org/XML/1998/namespace" xmlns="http://www.w3.org/2000/svg" xmlns:xlink="http://www.w3.org/1999/xlink">
  <path fill="#606060" d="M43.913,71.616c0,0.117-0.072,0.234-0.152,0.478c-4.45,0-8.939,0-13.765,0c0-0.983,0-2.014,0-3.045
	c0-3.519-0.053-7.038,0.022-10.555c0.037-1.748-0.593-2.922-2.061-3.907c-6.934-4.654-13.829-9.369-20.686-14.136
	c-0.675-0.469-1.314-1.395-1.439-2.192C3.861,25.674,1.977,13.076,0,0c5.775,4.632,9.952,9.965,12.395,16.511
	c1.066,2.857,1.583,5.918,2.358,8.885c0.173,0.663,0.244,1.403,0.595,1.961c3.708,5.889,7.463,11.748,11.275,17.725
	c1.626-1.05,3.14-2.027,4.748-3.064c-2.859-4.491-5.639-8.858-8.492-13.339c1.999-0.543,3.43-0.283,4.891,1.118
	c4.943,4.738,10.048,9.307,15.044,13.99c0.536,0.502,1.086,1.328,1.091,2.007C43.967,54.401,43.93,63.008,43.913,71.616z" class="color c1"/>
</svg>