<svg version="1.1" id="图层_1" x="0px" y="0px" width="182.222px" height="164.846px" viewBox="0 0 182.222 164.846" enable-background="new 0 0 182.222 164.846" xml:space="preserve" xmlns="http://www.w3.org/2000/svg" xmlns:xlink="http://www.w3.org/1999/xlink" xmlns:xml="http://www.w3.org/XML/1998/namespace">
  <path fill="#CF0000" d="M173.587,82.361c-8.786,17.18-21.551,31.764-35.726,45.378c-13.151,12.63-27.497,24.028-42.708,34.516
	c-4.905,3.382-7.141,3.483-12.079,0.131c-13.936-9.462-26.6-20.24-38.408-31.859c-13.37-13.155-25.317-27.279-34.074-43.49
	C4.786,76.288,0.931,65.062,0.102,52.979C-1.671,27.133,19.866,3.422,47.867,0.408c1.339-0.144,4.781-0.195,6.091-0.251
	c-2.657,4.625-6.116,11.518-6.188,12.156c-2.687,0.375-7.163,1.684-9.411,2.586c-16.431,6.59-26.202,21.985-24.651,38.578
	c1.124,12.031,5.867,22.91,12.296,33.247c10.446,16.796,24.141,31.222,39.267,44.529c7.587,6.675,15.569,12.972,23.526,19.567
	c1.466-1.015,2.406-1.647,3.323-2.305c14.991-10.756,29.089-22.408,41.828-35.401c11.238-11.462,21.413-23.631,28.285-37.83
	c5.078-10.492,8.449-21.396,5.556-32.947c-3.73-14.895-13.897-24.735-29.936-28.619c-0.675-0.164-1.345-0.308-2.014-0.443
	c-5.125-1.036-10.055-1.247-14.742-0.637c-8.863,1.154-16.86,5.225-23.678,12.12c-3.452,3.49-8.291,3.609-11.838-0.091
	c-5.976-6.232-15.154-11.509-23.748-12.259C61.738,12.4,66.007,4.21,68.052,1.471c6.164,1.743,14.044,5.239,19.621,8.971
	c0.582,0.39,1.145,0.802,1.712,1.208c0.557,0.399,1.109,0.803,1.779,1.289c6.543-5.359,13.982-9.038,22.341-11.171
	c0.28-0.072,0.561-0.136,0.842-0.203c4.646-1.111,9.313-1.613,13.906-1.562c26.901,0.297,51.241,19.463,53.719,45.232
	C183.237,58.398,179.59,70.625,173.587,82.361z" class="color c1"/>
</svg>