<svg version="1.1" id="图层_1" x="0px" y="0px" width="201.997px" height="175.271px" viewBox="0 0 201.997 175.271" enable-background="new 0 0 201.997 175.271" xml:space="preserve" xmlns="http://www.w3.org/2000/svg" xmlns:xlink="http://www.w3.org/1999/xlink" xmlns:xml="http://www.w3.org/XML/1998/namespace">
  <path id="XMLID_11_" fill="#1B95A4" d="M140.17,6c18.306,0,37.322,9.663,47.812,28.782c37.907,69.104-69.985,122.49-87.27,133.395
	c-17.281-10.903-124.57-64.289-86.661-133.395C24.53,15.68,43.558,6.067,61.767,6.067c15.505,0,30.416,6.971,38.945,20.988
	C109.573,12.976,124.614,5.999,140.17,6 M140.17,0v6V0c-15.479-0.001-29.67,6.253-39.397,17.062
	C91.267,6.296,77.224,0.067,61.767,0.067c-21.907,0-42.206,12.196-52.977,31.829C0.072,47.791-2.175,64.123,2.112,80.438
	c3.504,13.33,11.444,26.723,23.603,39.804c21.202,22.813,50.795,40.841,65.017,49.024c2.945,1.693,5.272,3.032,6.779,3.983
	l3.202,2.021l3.202-2.021c1.527-0.964,3.907-2.328,6.92-4.057c15.387-8.824,44.024-26.248,65.309-49.043
	c12.202-13.068,20.182-26.446,23.712-39.764c4.323-16.299,2.099-32.613-6.61-48.491C182.452,12.223,162.116,0.001,140.17,0L140.17,0
	z" class="color c1"/>
</svg>