<svg version="1.1" id="图层_1" x="0px" y="0px" width="73.064px" height="73.063px" viewBox="0 0 73.064 73.063" enable-background="new 0 0 73.064 73.063" xml:space="preserve" xmlns="http://www.w3.org/2000/svg" xmlns:xlink="http://www.w3.org/1999/xlink" xmlns:xml="http://www.w3.org/XML/1998/namespace">
  <path fill="#FFFFFF" d="M69.666,23.787h-20.39V3.398C49.276,1.52,47.972,0,46.364,0H26.7c-1.608,0-2.912,1.52-2.912,3.398v20.389
	H3.398C1.521,23.787,0,25.092,0,26.701v19.66c0,1.609,1.521,2.914,3.398,2.914h20.391v20.391c0,1.877,1.304,3.396,2.912,3.396
	h19.664c1.607,0,2.912-1.52,2.912-3.396V49.275h20.39c1.876,0,3.398-1.305,3.398-2.914v-19.66
	C73.064,25.092,71.542,23.787,69.666,23.787z" class="color c1"/>
</svg>