<svg version="1.1" id="图层_1" x="0px" y="0px" width="190px" height="149.3px" viewBox="0 0 190 149.3" enable-background="new 0 0 190 149.3" xml:space="preserve" xmlns="http://www.w3.org/2000/svg" xmlns:xlink="http://www.w3.org/1999/xlink" xmlns:xml="http://www.w3.org/XML/1998/namespace">
  <path fill="#FEF1D7" d="M130.3,124.2c-5.1-1-15.3-2.7-20.5-2.9c-7.3-0.3-18-0.8-27.5-0.5c4.4-2.6,12-5.9,25.3-16.5
	C122.3,92.7,126.4,110.7,130.3,124.2z M144.6,107c-2.2-1.1-4.2-1.8-6.3-2.6c-1.2,10.9,0,22.2,0,22.2c3.6,1.2,7.1,3,10.8,4.7
	c0-5.7-0.2-11.3,0.1-16.8C149.3,110.7,147.7,108.5,144.6,107z M189.9,71.7c-0.5-6.7-2.3-11-6.4-15.5c-3.9,13.6-25.7,21.6-37.2,29
	c-4.1,2.6-6.3,8.6-7.4,15.3c7,2.8,11.9,7.1,11.9,7.1c2.3-2.3,3.8-4.6,7.2-7c-0.6,0.9-1.4,2.8-2.7,4.1c-2.7,2.6-3.7,5.4-3.3,9.3
	c0.5,5.5,0.7,6,6.2,4.9c0.6-0.1,1.2-0.2,1.8-0.4c6.1-1.8,10.7-5.5,13.6-11.9c-2.1,0.3-3.7,0.5-5.9,0.8c0.9-0.5,1.2-0.7,1.5-0.8
	C181.3,101.1,191.2,88.4,189.9,71.7z M63.4,18c0,0-6.4,1.1-9,2.5c1.7-2.8,3.7-5.3,6-7.6C69,4.5,79.3-0.1,91.4,0
	c12.3,0.1,22.2,5.2,29.1,15.6c1.8,2.7,4.3,3.8,7.8,3.7c0,0,29.4-3.8,42.1,18.3c2.3,3.3,4.3,6.4,6.4,9.4l3.1,4.4
	c-0.1-0.1-0.2-0.1-0.3-0.2c-13.6-8.4-22.5,0.7-22.5,0.7c-1.5,1.2-2.6,3.4-3.5,5.6c5-1.7,12.4-3.6,18.2-2.7c0,0-10.5,7.8-25.3,7.8
	l0,0c-13.3,0.9-27.9-0.5-39.9-7.7C79.4,38.2,75.4,31.1,66.3,27.1c0,0,17.7-0.6,31.6,17.5C97.9,44.6,104,14.2,63.4,18z M119.2,43.6
	c0,6.1,5,11.1,11.1,11.1s11.1-5,11.1-11.1s-5-11.1-11.1-11.1S119.2,37.5,119.2,43.6z M34.4,130.7c7.8-5.3,31.6-9,31.6-9
	s5.6-0.8,9.3-1c4.5-5.1,10-14.1,14.9-21.6c-17.8,0.1-29.4,1.8-29.4,1.8c-7.4,1.2-14.6,2.5-21.3,5.7c-3.6,1.7-5.5,4.3-5,8.5
	c0.3,2.7,0.1,5.4,0.1,8.1C34.4,125.7,34.4,128.1,34.4,130.7z M41.6,101.8c-2.5-3.8-5-7.7-7.5-11.6c3.3,2.8,6.1,6,9,9.1
	c0.6,0.6,1.7,1.4,2.4,1.3c3.4-0.6,4.9-1.3,10.3-2.3c0,0,10.8-2.7,36.6-2.6c3.6-5.6,6.1-9.6,6.1-9.6c7.5-14.7-5.4-21.6-5.4-21.6
	c-10.7-1.6-24.8-5.7-31-20.1c-4.1-9.6-10.4-14.2-14-16.1c-5.2-1.3-10.5-2-16-0.8C11.4,32,6.2,55,15.9,69c2.5,3.5,6,6.3,8.9,9.2
	c-3.5-0.7-6.9-2.8-9.7-5.7c-1.5-1.5-5.4-2-7-0.8c-8.4,6-10,18.7-5.9,28.4c4,9.6,15.9,14.9,26,12.9c1-0.2,2.2-1,2.8-1.9
	c0.9-1.3,0.2-2.5-0.9-3.6c-3.1-3-5.3-6.7-7.1-11.2c3.5,3.9,6.6,7.4,9.5,10.7C36,105,38.9,103.3,41.6,101.8z M140.3,130.1
	c2,1.1,3.1,2.3,3.1,3.6c0,5.8-23.2,10.6-51.9,10.6s-51.9-4.7-51.9-10.6c0-1,0.7-1.9,1.9-2.8c-4.3,1.8-6.7,3.8-6.7,5.9
	c0,6.9,25.6,12.5,57.2,12.5s57.2-5.6,57.2-12.5C149.2,134.3,145.9,132,140.3,130.1z" class="color c1"/>
</svg>