<svg version="1.1" id="图层_1" x="0px" y="0px" width="63.048px" height="180.714px" viewBox="0 0 63.048 180.714" enable-background="new 0 0 63.048 180.714" xml:space="preserve" xmlns="http://www.w3.org/2000/svg" xmlns:xlink="http://www.w3.org/1999/xlink" xmlns:xml="http://www.w3.org/XML/1998/namespace">
  <path fill="#EE7E55" d="M37.004,82.078c3.581,7.185,6.403,14.65,7.612,22.633c0.365,2.408,0.486,4.853,0.621,6.262
	c-0.242,23.693-16.844,42.611-39.302,45.801c-1.99,0.283-3.971,0.415-5.935,0.427v23.512c8.787-0.013,17.766-1.878,26.425-5.891
	c24.506-11.356,39.242-37.536,36.236-64.163C61.4,99.485,57.955,88.971,53.41,78.781c-9.929-22.262-23.688-42.114-38.774-61.104
	C9.948,11.775,5.028,6.055,0,0v28.335C1.403,28.399,28.5,65.018,37.004,82.078z" class="color c1"/>
</svg>