<svg version="1.1" id="图层_1" x="0px" y="0px" width="253.04px" height="73.142px" viewBox="0 0 253.04 73.142" enable-background="new 0 0 253.04 73.142" xml:space="preserve" xmlns="http://www.w3.org/2000/svg" xmlns:xlink="http://www.w3.org/1999/xlink" xmlns:xml="http://www.w3.org/XML/1998/namespace">
  <path fill="#1C2021" d="M226.492,68.073c3.826-1.981,6.332-4.512,7.967-7.532c4.893-9.014,9-25.311,10.963-27.916
	c1.963-2.606,3.594-3.586,6.418-3.586c0.004,0.002,1.246,0.607,1.199-3.365c-0.041-3.591-0.436-14.555-0.436-14.555
	s0.164-1.956-3.203-2.715c-4.115-0.93-31.221-9.629-68.486-8.258c-29.088,1.07-29.686,6.951-54.109,8.475h-0.565
	C101.817,7.101,101.221,1.22,72.13,0.146C34.859-1.225,7.754,7.475,3.639,8.404c-3.366,0.759-3.202,2.715-3.202,2.715
	S0.044,22.083,0.001,25.674c-0.045,3.973,1.196,3.367,1.196,3.367c2.825,0,4.453,0.978,6.419,3.586
	c1.963,2.609,6.07,18.902,10.959,27.916c1.624,2.99,4.093,5.5,7.856,7.475c0,0,3.4,2.016,13.137,3.907
	c7.274,1.131,16.746,1.495,29.083,1.001c32.586-1.305,36.607-18.251,40.297-24.44c2.007-3.357,3.656-8.024,5.32-12.425
	c4.458-0.746,8.434-1.287,12.17-1.675c3.778,0.392,7.813,0.944,12.342,1.703c1.66,4.393,3.311,9.046,5.311,12.396
	c3.69,6.189,7.711,23.138,40.297,24.44c12.254,0.488,21.684,0.135,28.938-0.98C213.326,71.945,218.007,71.763,226.492,68.073z
	 M7.616,20.973c-2.197,0-3.978-0.903-3.978-2.018c0-1.113,1.782-2.014,3.978-2.014c2.192,0,3.974,0.9,3.974,2.014
	C11.59,20.069,9.812,20.973,7.616,20.973z M106.88,33.498c0,0.012-0.002,0.022-0.005,0.035c0,0.008-0.003,0.018-0.003,0.027
	c-0.149,1.075-0.322,2.219-0.53,3.447c0.004,0,0.009,0,0.014,0c-2.312,10.059-7.15,19.314-11.389,22.381
	c-1.784,1.288-3.928,2.586-6.453,3.793c-0.008,0.003-0.015,0.009-0.021,0.01c-0.421,0.203-0.855,0.4-1.299,0.593
	c-0.05,0.025-0.104,0.049-0.156,0.069c-0.463,0.201-0.935,0.4-1.42,0.594c-0.019,0.008-0.039,0.012-0.057,0.02
	c-0.455,0.183-0.925,0.365-1.405,0.539c-0.068,0.026-0.143,0.053-0.216,0.079c-0.503,0.179-1.014,0.359-1.543,0.531
	c-0.024,0.008-0.054,0.016-0.079,0.026c-0.49,0.158-0.996,0.313-1.509,0.467c-0.096,0.027-0.189,0.056-0.285,0.084
	c-0.545,0.156-1.1,0.312-1.665,0.458c-0.036,0.01-0.072,0.018-0.111,0.03c-0.527,0.134-1.063,0.264-1.608,0.387
	c-0.119,0.025-0.238,0.053-0.358,0.081c-0.586,0.129-1.181,0.253-1.79,0.37c-0.046,0.007-0.092,0.018-0.136,0.025
	c-0.563,0.108-1.139,0.207-1.72,0.303c-0.145,0.023-0.286,0.049-0.431,0.068c-0.629,0.1-1.268,0.191-1.92,0.276
	c-0.048,0.005-0.095,0.013-0.142,0.017c-0.608,0.076-1.229,0.147-1.855,0.211c-0.165,0.018-0.327,0.035-0.493,0.053
	c-0.678,0.064-1.365,0.121-2.063,0.17c-0.041,0.002-0.084,0.005-0.125,0.008c-0.661,0.045-1.336,0.078-2.018,0.108
	c-0.182,0.007-0.366,0.015-0.548,0.022c-0.729,0.026-1.464,0.049-2.215,0.053c-0.028,0-0.056,0-0.085,0
	c-0.725,0.009-1.465,0.004-2.214-0.007c-0.197-0.005-0.393-0.008-0.591-0.013c-0.782-0.018-1.573-0.041-2.379-0.076
	c-4.866-0.223-9.269-0.592-13.202-1.217c-0.01-0.002-0.02-0.002-0.031-0.005c-0.772-0.124-1.523-0.261-2.256-0.402
	c-3.992-0.779-7.451-1.864-10.369-3.394c-4.741-2.482-8.063-6.121-9.927-11.463c-2.092-5.986-3.969-13.904-4.313-21.18
	c-0.173-3.687,0.051-7.2,0.841-10.223c0.53-2.034,1.322-3.844,2.423-5.324c0.043-0.055,0.082-0.119,0.124-0.174
	c0.648-0.836,1.398-1.563,2.261-2.156c9.06-6.237,29.696-8.224,40.685-8.168c0,0,40.836-1.635,44.549,12.918
	c0.09,0.352,0.169,0.705,0.244,1.064c0.009,0.041,0.016,0.076,0.027,0.117c0.044,0.227,0.086,0.46,0.124,0.691
	c0.044,0.191,0.09,0.417,0.133,0.683c0.058,0.362,0.112,0.797,0.157,1.308c0.038,0.433,0.065,0.927,0.084,1.479
	C107.675,25.533,107.532,28.805,106.88,33.498z M236.916,31.082c-0.336,7.271-2.213,15.188-4.305,21.176
	c-1.865,5.344-5.188,8.986-9.934,11.465c-0.004-0.002-0.004-0.005-0.006-0.007c-2.914,1.528-6.377,2.616-10.367,3.396
	c-0.734,0.146-1.484,0.281-2.258,0.402c-0.012,0.003-0.018,0.006-0.033,0.006c0,0.002,0,0.002,0,0.002
	c-3.932,0.625-8.328,0.997-13.189,1.217c-0.82,0.038-1.625,0.061-2.42,0.076c-0.182,0.005-0.367,0.008-0.551,0.01
	c-0.75,0.014-1.496,0.019-2.229,0.01c-0.029,0-0.057,0-0.088,0c-0.734-0.007-1.455-0.029-2.166-0.053
	c-0.215-0.01-0.43-0.018-0.645-0.027c-0.602-0.028-1.199-0.059-1.783-0.096c-0.146-0.011-0.293-0.02-0.434-0.028
	c-0.619-0.046-1.227-0.097-1.832-0.155c-0.242-0.021-0.484-0.047-0.721-0.07c-0.477-0.051-0.945-0.104-1.408-0.158
	c-0.252-0.034-0.502-0.061-0.754-0.095c-0.498-0.065-0.992-0.139-1.475-0.215c-0.262-0.043-0.527-0.081-0.789-0.13
	c-0.365-0.058-0.721-0.123-1.076-0.187c-0.357-0.063-0.707-0.134-1.059-0.202c-0.371-0.074-0.74-0.151-1.105-0.23
	c-0.281-0.061-0.563-0.126-0.842-0.189c-0.266-0.062-0.525-0.127-0.787-0.19c-0.471-0.112-0.924-0.232-1.373-0.356
	c-0.234-0.063-0.469-0.127-0.695-0.192c-0.303-0.084-0.596-0.172-0.895-0.261c-0.178-0.057-0.354-0.111-0.529-0.164
	c-0.595-0.188-1.186-0.38-1.755-0.58c-0.064-0.022-0.136-0.045-0.201-0.068c-0.318-0.113-0.63-0.229-0.939-0.346
	c-0.096-0.036-0.189-0.072-0.282-0.109c-0.992-0.377-1.934-0.771-2.83-1.183c-0.017-0.007-0.037-0.015-0.052-0.021
	c-0.255-0.12-0.516-0.233-0.765-0.35c0.034,0.014,0.067,0.025,0.103,0.04c-2.563-1.217-4.73-2.529-6.533-3.832
	c-4.225-3.061-9.051-12.269-11.374-22.291h-0.008c-0.004-0.03-0.009-0.056-0.013-0.084c0-0.005-0.005-0.01-0.005-0.016
	c-0.204-1.221-0.377-2.36-0.527-3.432c0-0.01-0.003-0.02-0.003-0.026c-0.002-0.011-0.007-0.024-0.007-0.035
	c-0.65-4.692-0.79-7.967-0.725-10.206c0.005-0.24,0.014-0.476,0.025-0.693c0.049-0.87,0.127-1.559,0.212-2.092
	c0.044-0.252,0.083-0.464,0.126-0.65c0.115-0.646,0.243-1.283,0.403-1.902c3.014-11.831,30.563-12.965,40.764-12.975
	c2.361-0.002,3.799,0.057,3.799,0.057c10.986-0.057,31.627,1.93,40.684,8.168c0.865,0.594,1.615,1.317,2.26,2.156h-0.016
	c0.053,0.064,0.098,0.139,0.146,0.204l-0.029-0.065c1.123,1.497,1.928,3.335,2.463,5.409l-0.043-0.091
	c0.799,3.029,1.025,6.562,0.855,10.264C236.906,31.084,236.912,31.084,236.916,31.082z M245.253,20.973
	c-2.193,0-3.977-0.903-3.977-2.018c0-1.113,1.783-2.014,3.977-2.014c2.195,0,3.973,0.9,3.973,2.014
	C249.226,20.069,247.449,20.973,245.253,20.973z M232.539,30.754c0.002,0,0.008,0,0.012-0.002
	c-0.273,5.896-1.797,12.316-3.492,17.173c-1.73,1.474-2.527-0.539-2.527-0.539c0.156-0.532,0.309-1.077,0.457-1.63
	c1.047-3.926,1.852-8.312,2.043-12.441c-0.004,0.002-0.01,0.002-0.012,0.002c0.139-3.002-0.047-5.867-0.693-8.324l0.035,0.074
	c-0.434-1.682-1.086-3.172-1.998-4.387l0.025,0.053c-0.041-0.053-0.076-0.112-0.119-0.166h0.012
	c-0.523-0.68-1.131-1.266-1.832-1.748c-6.432-4.43-20.07-6.215-29.346-6.561c-0.037-0.002-0.072-0.003-0.109-0.004
	c-2.326-1.87-0.02-2.623-0.02-2.623c8.91-0.045,25.65,1.566,32.994,6.625c0.701,0.481,1.309,1.068,1.832,1.748h-0.012
	c0.043,0.053,0.078,0.113,0.119,0.166l-0.025-0.053c0.912,1.215,1.564,2.704,1.998,4.387l-0.035-0.074
	C232.492,24.887,232.677,27.751,232.539,30.754z M20.036,22.43l-0.035,0.074c0.434-1.683,1.086-3.172,1.998-4.387l-0.025,0.053
	c0.041-0.053,0.076-0.113,0.119-0.166h-0.012c0.523-0.68,1.131-1.267,1.832-1.748c7.344-5.059,24.084-6.67,32.994-6.625
	c0,0,2.308,0.753-0.02,2.623c-0.036,0.001-0.072,0.002-0.109,0.004c-9.274,0.346-22.913,2.131-29.345,6.561
	c-0.701,0.482-1.309,1.068-1.832,1.748h0.012c-0.043,0.054-0.078,0.113-0.119,0.166l0.025-0.053
	c-0.912,1.215-1.564,2.705-1.998,4.387l0.035-0.074c-0.646,2.457-0.832,5.322-0.693,8.324c-0.002,0-0.008,0-0.012-0.002
	c0.191,4.13,0.996,8.516,2.043,12.441c0.147,0.553,0.3,1.098,0.456,1.63c0,0-0.796,2.013-2.527,0.539
	c-1.695-4.856-3.219-11.276-3.492-17.173c0.004,0.002,0.01,0.002,0.012,0.002C19.204,27.751,19.39,24.887,20.036,22.43z" class="color c1"/>
</svg>