<svg version="1.1" id="图层_1" x="0px" y="0px" width="136.728px" height="208.158px" viewBox="0 0 136.728 208.158" enable-background="new 0 0 136.728 208.158" xml:space="preserve" xmlns="http://www.w3.org/2000/svg" xmlns:xlink="http://www.w3.org/1999/xlink" xmlns:xml="http://www.w3.org/XML/1998/namespace">
  <path fill="#CF0000" d="M89.286,204.842c-48.332,15.353-95.752-24.785-88.56-75.73c2.056-14.562,6.172-29.136,11.489-42.874
	c12.047-31.126,30.804-58.221,52.246-84.37c2.059-2.512,5.908-2.488,7.929,0.054c6.954,8.748,13.692,17.553,20.043,26.525
	c-0.563,2.072,1.202,5.426,0.679,7.375c-2.064,7.686-2.294,15.344-8.774,19.871c-2.844,1.987-6.413,6.327-9.29,8.258
	c-5.915,3.968-6.151,7.857-11.871,12.129c-13.818,10.32-31.105,19.515-30.826,36.59c0.038,2.312,0.237,4.527,0.563,6.661
	c-0.104,1.134-0.103,2.281,0.042,3.443c0.293,2.363,1.197,4.523,2.322,6.597c2.305,4.25,5.361,7.937,8.673,11.419
	c7.277,7.652,15.456,14.243,24.036,20.361c0.302,0.216,0.496,0.178,0.771-0.018c8.485-6.046,16.575-12.561,23.791-20.104
	c3.154-3.296,6.082-6.775,8.37-10.735c4.816-7.161,3.994-17.273,5.871-25.827c1.658-7.555-1.697-13.83-2.065-21.419
	c-0.663-13.672,3.663-25.914-1.187-38.024c14.446,22.915,25.815,47.263,31.376,74.73
	C142.881,159.106,124.051,193.799,89.286,204.842z" class="color c1"/>
  <path fill="#FCFCFC" d="M110.427,106.432c-1.877,8.554-4.694,16.701-9.51,23.862c0.181-0.315,0.368-0.626,0.541-0.947
	c1.558-2.884,2.641-5.901,2.397-9.258c-0.244-3.375-1.165-6.557-2.827-9.5c-3.068-5.435-7.455-9.166-13.776-10.138
	c-4.913-0.756-9.457,0.269-13.427,3.385c-2.372,1.862-4.137,4.208-5.458,7.043c-0.147-0.288-0.244-0.475-0.338-0.663
	c-5.372-10.718-16.944-12.025-24.479-7.749c-4.736,2.688-7.744,6.803-9.512,11.872c-0.569,1.633-0.97,3.296-1.126,4.991
	c-0.326-2.134-0.525-4.349-0.563-6.661c-0.278-17.075,5.967-31.493,19.784-41.813c5.72-4.271,11.801-7.981,17.716-11.949
	c2.877-1.931,5.775-3.827,8.619-5.813c6.48-4.527,10.281-10.986,12.344-18.672c0.523-1.949,1.055-3.904,1.618-5.976
	c3.861,5.456,7.574,10.975,11.106,16.578c4.85,12.109,7.572,25.013,8.236,38.685C112.14,91.298,112.085,98.877,110.427,106.432z" class="color c2"/>
</svg>