<svg version="1.1" id="图层_1" x="0px" y="0px" width="170.935px" height="170.792px" viewBox="0 0 170.935 170.792" enable-background="new 0 0 170.935 170.792" xml:space="preserve" xmlns="http://www.w3.org/2000/svg" xmlns:xlink="http://www.w3.org/1999/xlink" xmlns:xml="http://www.w3.org/XML/1998/namespace">
  <g>
    <path fill="#ED8832" d="M96.31,112.723c-8.533,3.37-13.877,10.08-11.934,14.984l34.451,43.085l-3.563-55.287
		C113.324,110.598,104.837,109.351,96.31,112.723z" class="color c1"/>
    <path fill="#ED8832" d="M105.017,61.728c5.588,4.543,11.713,6.262,13.682,3.835l23.691-49.779L98.476,49.108
		C96.505,51.534,99.433,57.181,105.017,61.728z" class="color c1"/>
    <path fill="#ED8832" d="M123.283,76.827c1.219,5.091,3.42,8.925,4.918,8.568l24.457-15.627l-28.889-2.807
		C122.279,67.327,122.06,71.744,123.283,76.827z" class="color c1"/>
    <path fill="#ED8832" d="M94.152,91.189c-2.861,4.572-2.965,9.668-0.225,11.385l46.322,17.455l-35.947-34.007
		C101.56,84.308,97.015,86.619,94.152,91.189z" class="color c1"/>
    <path fill="#ED8832" d="M132.167,104.143l38.768-0.977L135.56,87.321C135.406,93.163,134.228,98.85,132.167,104.143z" class="color c1"/>
    <path fill="#ED8832" d="M74.022,68.762c-0.66,6.416,4.583,12.213,11.727,12.949c7.137,0.737,13.463-3.861,14.125-10.277
		L89.863,41.946L74.022,68.762z" class="color c1"/>
    <path fill="#ED8832" d="M65.001,163.44l14.887-27.507c-4.941-0.528-9.691-1.785-14.125-3.658L65.001,163.44z" class="color c1"/>
    <path fill="#ED8832" d="M98.82,21.963L88.31,35.776c4.959,0.293,9.76,1.316,14.283,2.976L98.82,21.963z" class="color c1"/>
    <path fill="#ED8832" d="M38.227,68.34l-23.271,2.247l20.197,12.015C35.48,77.641,36.537,72.847,38.227,68.34z" class="color c1"/>
    <path fill="#ED8832" d="M65.249,91.736l-25.028,37.94l38.693-23.844c2.551-2.483,1.564-7.644-2.211-11.538
		C72.934,90.409,67.801,89.259,65.249,91.736z" class="color c1"/>
    <path fill="#ED8832" d="M68.015,72.679c4.756-6.195,5.646-13.492,1.992-16.303L0.245,20.658l52.534,58.161
		C56.437,81.619,63.255,78.875,68.015,72.679z" class="color c1"/>
    <path fill="#ED8832" d="M46.186,96.357c-1.495-5.619-4.143-9.794-5.92-9.324L0,108.636l45.68-1.247
		C47.45,106.917,47.683,101.98,46.186,96.357z" class="color c1"/>
    <path fill="#ED8832" d="M74.24,46.3c5.63-1.574,9.757-4.39,9.226-6.299L61.319,0l1.769,45.687
		C63.619,47.596,68.615,47.869,74.24,46.3z" class="color c1"/>
  </g>
</svg>