<svg version="1.1" id="图层_1" x="0px" y="0px" width="196.751px" height="205px" viewBox="0 0 196.751 205" enable-background="new 0 0 196.751 205" xml:space="preserve" xmlns="http://www.w3.org/2000/svg" xmlns:xlink="http://www.w3.org/1999/xlink" xmlns:xml="http://www.w3.org/XML/1998/namespace">
  <path fill="#558CB9" d="M97.864,205c-11.09,0-20.579-12.357-23.628-30.056c-12.805,12.317-27.635,16.637-36.522,10.179
	c-8.972-6.519-9.384-22.093-1.449-38.203c-17.601,2.437-32.135-2.785-35.53-13.232c-3.428-10.548,5.393-23.39,21.282-31.759
	C6.343,93.557-2.345,80.786,1.05,70.339C4.477,59.79,19.164,54.583,36.935,57.155c-7.759-15.985-7.282-31.424,1.605-37.881
	c8.973-6.518,23.912-2.099,36.782,10.427C78.441,12.209,87.9,0,98.887,0c11.09,0,20.579,12.357,23.627,30.055
	c12.806-12.317,27.635-16.636,36.523-10.179c8.972,6.519,9.385,22.093,1.449,38.203c17.598-2.437,32.136,2.784,35.53,13.232
	c3.427,10.548-5.395,23.39-21.283,31.76c15.672,8.371,24.361,21.141,20.967,31.589c-3.428,10.549-18.114,15.755-35.886,13.184
	c7.759,15.986,7.282,31.424-1.605,37.881c-8.974,6.519-23.914,2.098-36.781-10.428C118.31,192.791,108.85,205,97.864,205z
	 M78.628,170.304C80.521,187.308,88.689,200,97.864,200c9.086,0,17.237-12.55,19.198-29.365c-1.273-1.486-2.488-3.024-3.622-4.584
	c-5.481-7.545-9.288-15.684-11.007-23.539c-0.931-4.257,1.294-8.151,5.411-9.471c4.111-1.317,8.181,0.556,9.896,4.557
	c3.127,7.298,4.779,16.002,4.779,25.171c0,2.041-0.089,4.12-0.265,6.193c11.527,12.645,25.597,18.109,33.016,12.718
	c7.351-5.341,6.569-20.285-1.729-35.041c-1.912-0.457-3.8-0.987-5.624-1.58c-8.901-2.893-16.785-7.258-22.798-12.624
	c-3.247-2.898-3.734-7.353-1.186-10.831c2.547-3.475,6.937-4.35,10.672-2.13c6.842,4.063,13.317,10.147,18.728,17.593
	c1.198,1.65,2.348,3.385,3.426,5.167c16.757,3.453,31.351-0.392,34.186-9.118c2.808-8.642-6.608-20.272-21.995-27.332
	c-1.812,0.753-3.65,1.433-5.479,2.027c-8.981,2.918-17.997,4.011-26.064,3.166c-4.226-0.443-7.164-3.752-7.146-8.044
	c0.018-4.29,2.981-7.57,7.208-7.979c7.971-0.773,16.855,0.339,25.687,3.207c1.946,0.633,3.896,1.359,5.81,2.167
	c15.586-7.055,25.132-18.746,22.297-27.472c-2.808-8.642-17.264-12.516-33.86-9.183c-1.023,1.674-2.11,3.305-3.239,4.859
	c-5.483,7.547-12.049,13.682-18.986,17.742c-3.763,2.204-8.152,1.29-10.68-2.219c-2.524-3.504-1.999-7.953,1.276-10.819
	c5.971-5.229,13.738-9.489,22.462-12.324c1.942-0.631,3.946-1.188,5.972-1.661c8.463-14.869,9.315-29.938,1.893-35.331
	c-7.351-5.341-21.323,0.021-32.791,12.473c0.155,1.953,0.234,3.911,0.234,5.837c0,9.445-1.744,18.355-5.043,25.768
	c-1.727,3.881-5.779,5.652-9.857,4.312c-4.074-1.343-6.279-5.176-5.362-9.321c1.731-7.822,5.531-15.927,10.989-23.438
	c1.197-1.648,2.49-3.277,3.854-4.854C116.23,17.69,108.062,5,98.887,5C89.8,5,81.649,17.55,79.689,34.365
	c1.279,1.494,2.494,3.031,3.621,4.583c5.482,7.547,9.289,15.686,11.007,23.539c0.931,4.257-1.294,8.151-5.411,9.471
	c-4.115,1.316-8.182-0.557-9.896-4.557c-3.126-7.296-4.779-16-4.779-25.171c0-2.043,0.089-4.121,0.265-6.193
	C62.971,23.393,48.904,17.926,41.479,23.319c-7.35,5.341-6.568,20.285,1.729,35.041c1.911,0.457,3.798,0.987,5.625,1.58
	c8.981,2.918,16.916,7.33,22.947,12.759c3.158,2.843,3.591,7.246,1.054,10.708c-2.536,3.46-6.862,4.373-10.521,2.218
	c-6.904-4.062-13.438-10.181-18.895-17.692c-1.199-1.649-2.349-3.384-3.426-5.167c-16.757-3.453-31.351,0.392-34.186,9.118
	c-2.808,8.641,6.608,20.271,21.996,27.333c1.811-0.753,3.649-1.434,5.478-2.028c8.982-2.918,17.996-4.011,26.064-3.166
	c4.226,0.443,7.165,3.751,7.146,8.044c-0.018,4.29-2.982,7.57-7.208,7.979c-7.976,0.77-16.856-0.339-25.687-3.207
	c-1.942-0.632-3.892-1.358-5.808-2.166c-15.588,7.055-25.133,18.745-22.298,27.471c2.808,8.64,17.262,12.518,33.86,9.183
	c1.024-1.675,2.111-3.306,3.24-4.859c5.482-7.546,12.047-13.682,18.985-17.742c3.763-2.203,8.154-1.288,10.681,2.22
	c2.523,3.503,1.999,7.952-1.276,10.818c-5.971,5.228-13.739,9.489-22.462,12.324c-1.942,0.631-3.946,1.188-5.972,1.661
	c-8.463,14.87-9.314,29.938-1.892,35.331c7.351,5.339,21.322-0.021,32.792-12.473c-0.156-1.952-0.235-3.911-0.235-5.837
	c0-9.444,1.744-18.354,5.042-25.768c1.728-3.883,5.781-5.656,9.859-4.311c4.074,1.343,6.278,5.176,5.361,9.32
	c-1.731,7.823-5.531,15.928-10.989,23.439C81.282,167.103,79.988,168.731,78.628,170.304z M110.425,137.642
	c-0.495,0-0.895,0.109-1.056,0.161c-0.444,0.142-2.633,0.987-2.052,3.641c1.572,7.186,5.088,14.678,10.167,21.668
	c0.011,0.016,0.022,0.03,0.033,0.046c0.001-0.13,0.001-0.26,0.001-0.389c0-8.498-1.513-16.521-4.375-23.202
	C112.464,137.979,111.297,137.642,110.425,137.642z M85.424,137.263c-0.853,0-1.958,0.321-2.604,1.771
	c-2.974,6.681-4.611,15.109-4.611,23.734c0,0.019,0,0.036,0,0.055c0.077-0.104,0.153-0.208,0.229-0.312
	c5.057-6.96,8.567-14.423,10.152-21.58c0.553-2.5-1.605-3.347-2.044-3.491C86.378,137.384,85.949,137.263,85.424,137.263z
	 M130.357,123.257c-1.346,0-2.189,1.029-2.39,1.302c-0.274,0.375-1.543,2.338,0.482,4.146c5.421,4.838,12.883,8.957,21.013,11.599
	c0.018,0.006,0.035,0.012,0.053,0.018c-0.075-0.105-0.151-0.211-0.227-0.315c-5.014-6.899-10.974-12.513-17.235-16.232
	C131.423,123.398,130.856,123.257,130.357,123.257z M65.784,122.534c-0.496,0-1.059,0.139-1.684,0.504
	c-6.346,3.716-12.386,9.375-17.466,16.367c-0.011,0.015-0.021,0.029-0.032,0.044c0.123-0.039,0.246-0.079,0.368-0.119
	c8.085-2.627,15.248-6.545,20.715-11.33c2.037-1.783,0.784-3.757,0.512-4.135C67.998,123.588,67.148,122.534,65.784,122.534z
	 M142.524,99.715c-1.558,0-3.084,0.072-4.575,0.216c-2.548,0.246-2.687,2.561-2.688,3.022c-0.002,0.463,0.117,2.783,2.668,3.051
	c7.277,0.766,15.796-0.284,23.998-2.949c0.018-0.006,0.035-0.011,0.053-0.017c-0.123-0.041-0.246-0.081-0.369-0.121
	C155.099,100.801,148.588,99.715,142.524,99.715z M34.771,101.961c0.123,0.041,0.246,0.081,0.369,0.121
	c8.183,2.66,16.365,3.69,23.66,2.986c2.548-0.246,2.687-2.562,2.689-3.022c0.002-0.463-0.118-2.783-2.668-3.051
	c-7.273-0.766-15.795,0.284-23.997,2.949C34.807,101.95,34.789,101.955,34.771,101.961z M150.149,65.55
	c-0.124,0.039-0.247,0.079-0.37,0.119c-8.085,2.627-15.247,6.545-20.714,11.33c-2.038,1.784-0.784,3.758-0.513,4.135
	c0.272,0.379,1.75,2.198,4.098,0.827c6.346-3.715,12.386-9.374,17.466-16.366C150.126,65.58,150.137,65.564,150.149,65.55z
	 M47.235,64.679c0.076,0.105,0.151,0.21,0.227,0.314c5.057,6.961,11.069,12.605,17.387,16.323c2.207,1.301,3.679-0.491,3.952-0.864
	c0.273-0.373,1.54-2.32-0.366-4.036C63,71.522,55.49,67.36,47.288,64.696C47.27,64.69,47.253,64.685,47.235,64.679z M118.541,42.177
	c-0.076,0.104-0.152,0.208-0.229,0.312c-5.058,6.961-8.567,14.423-10.151,21.58c-0.554,2.5,1.605,3.348,2.044,3.492
	c0.438,0.143,2.681,0.749,3.725-1.596c2.974-6.681,4.611-15.109,4.611-23.734C118.541,42.213,118.541,42.194,118.541,42.177z
	 M79.232,41.843c0,0.13-0.001,0.259-0.001,0.388c0,8.499,1.513,16.522,4.375,23.202c1.067,2.49,3.332,1.907,3.774,1.764
	c0.445-0.142,2.633-0.987,2.052-3.641c-1.572-7.184-5.088-14.676-10.167-21.668C79.254,41.872,79.244,41.857,79.232,41.843z" class="color c1"/>
</svg>