<svg version="1.1" id="图层_1" x="0px" y="0px" width="89.219px" height="148.264px" viewBox="0 0 89.219 148.264" enable-background="new 0 0 89.219 148.264" xml:space="preserve" xmlns="http://www.w3.org/2000/svg" xmlns:xlink="http://www.w3.org/1999/xlink" xmlns:xml="http://www.w3.org/XML/1998/namespace">
  <path fill="#A2BE42" d="M75.05,24.625C88.322,41.216,90.175,61.79,88.867,77.834c-6.476-29.243-35.304-47.691-56.63-55.327
	c-0.047-0.018-0.072-0.025-0.072-0.025c0.023,0.007,0.049,0.018,0.072,0.025c1.435,0.542,23.995,9.376,38.523,34.282
	c6.86,11.761,8.675,24.701,8.491,35.722c-3.33-5.375-9.114-11.252-19.213-14.28C38.596,71.799,8.577,56.79,0,1.038
	C0,1.038,49.318-7.54,75.05,24.625z" class="color c1"/>
  <path fill="#A2BE42" d="M77.017,134.188c7.587-9.482,8.646-21.24,7.898-30.412c-3.701,16.713-20.179,27.26-32.367,31.623
	c-0.027,0.01-0.043,0.016-0.043,0.016c0.014-0.006,0.029-0.012,0.043-0.016c0.818-0.312,13.714-5.359,22.019-19.594
	c3.922-6.726,4.958-14.119,4.854-20.421c-1.902,3.074-5.208,6.433-10.98,8.162c-12.256,3.679-29.415,12.259-34.316,44.123
	C34.122,147.67,62.311,152.574,77.017,134.188z" class="color c1"/>
</svg>