<svg version="1.1" id="图层_1" x="0px" y="0px" width="132.381px" height="57.753px" viewBox="0 0 132.381 57.753" enable-background="new 0 0 132.381 57.753" xml:space="preserve" xmlns="http://www.w3.org/2000/svg" xmlns:xlink="http://www.w3.org/1999/xlink" xmlns:xml="http://www.w3.org/XML/1998/namespace">
  <path fill="#FFFFFF" d="M120.626,23.578c-2.354,2.217-5.161,4.154-8.023,5.814c-8.108,4.697-16.662,7.131-16.662,7.131
	c-20.802,5.291-37.343-1.947-37.343-1.947l-1.588-0.928c-6.014-5.289-0.5-11.23-0.5-11.23c3.426-4.044,12.982-4.124,19.413-3.66
	h0.001c6.229,0.12,7.605-1.299,7.889-1.761c0.035-0.066,0.063-0.131,0.096-0.196c0.032-0.074,0.105-0.236,0.221-0.459
	C87.313,9.193,79.9,4.645,79.9,4.645C67.119-4.403,44.813,2.558,44.813,2.558c-6.767,1.39-23.058,5.196-23.058,5.196l-8.233,3.084
	L0,15.902c0.063,0.109,0.128,0.219,0.19,0.328c5.444,9.629,12.341,17.832,20.259,24.336c9.04,7.428,19.412,12.635,30.479,15.209
	c2.523,0.588,5.081,1.045,7.67,1.354c12.639,1.506,23.688,0.148,33.053-2.584c24.117-7.039,37.037-23.217,37.037-23.217
	c0.3-0.279,0.558-0.551,0.813-0.82l1.222-1.467c3.249-4.541,0.723-7.643,0.723-7.643C127.519,17.037,120.626,23.578,120.626,23.578z
	" class="color c1"/>
</svg>