<svg version="1.1" id="图层_1" x="0px" y="0px" width="196.367px" height="68.465px" viewBox="0 0 196.367 68.465" enable-background="new 0 0 196.367 68.465" xml:space="preserve" xmlns="http://www.w3.org/2000/svg" xmlns:xlink="http://www.w3.org/1999/xlink" xmlns:xml="http://www.w3.org/XML/1998/namespace">
  <path fill="#0F0F0F" d="M165.982,8.146c-7.441,1.295-7.744,8.646-13.574,7.881c-2.058-0.281-3.844-1.625-4.992-3.311
	c-2.621-3.805-2.061-11.263-7.572-12.543C139.337,0.048,138.849,0,138.403,0c-3.758,0-5.745,3.763-7.226,6.835
	c-1.945,3.965-6.754,8.348-10.564,3.573c-1.975-2.466-4.594-6.132-7.904-6.257c-5.774-0.205-7.226,8.066-8.147,12.671
	c-1.549,7.743-2.819,15.616-4.624,23.291c-1.443,6.145-4.135,12.881-9.419,16.21c-2.878,1.812-6.084,2.261-8.845,0
	c-12.53-10.248-2.834-52.787-22.427-53.39C48.768,2.591,49.444,19.815,39.698,21.66c-6.65,1.265-8.924-5.384-12.882-8.881
	C21.31,7.911,11.166,6.611,0,6.261V7.15c7.114,0.92,18.589,2.51,23.071,6.051c3.886,3.076,7.285,6.867,10.104,11.096
	c2.866,4.323,5.615,10.143,11.634,8.895c8.794-1.857,8.189-19.068,17.66-18.74c7.313,0.266,8.941,8.754,9.63,15.153
	c0.98,9.019,0.33,18.989,3.155,27.647c2.173,6.68,8.305,12.764,15.229,10.859c6.635-1.81,8.91-10.922,10.104-17.226
	c1.496-7.817,1.557-15.87,3.154-23.656c0.574-2.873,1.452-8.785,3.686-10.737c2.171-1.918,6.218-0.497,7.9,1.485
	c1.022,1.168,1.641,2.682,2.563,3.961c3.438,4.777,7.784,0.376,9.528-3.586c1.511-3.436,3.584-7.758,7.83-6.664
	c4.981,1.279,4.477,8.739,6.838,12.561c1.033,1.67,2.664,3.025,4.504,3.293c5.27,0.779,8.119-6.318,10.813-9.956
	c1.223-1.654,2.777-3.042,4.506-4.196c2.131-1.438,4.533-2.498,6.967-3.324c5.6-1.592,22.914-2.471,27.49-3.081
	C188.951,6.953,171.31,7.21,165.982,8.146z" class="color c1"/>
</svg>