<svg version="1.1" id="图层_1" x="0px" y="0px" width="50.111px" height="50.586px" viewBox="0 0 50.111 50.586" enable-background="new 0 0 50.111 50.586" xml:space="preserve" xmlns="http://www.w3.org/2000/svg" xmlns:xlink="http://www.w3.org/1999/xlink" xmlns:xml="http://www.w3.org/XML/1998/namespace">
  <path fill="#2B2B2B" d="M25.055,0c-4.254,0-8.508,1.419-11.818,3.311c0.473,0,0.945,0,1.418,0c5.201,0,9.455,4.254,9.455,9.455
	c0,5.199-4.254,9.455-9.455,9.455c-5.199,0-9.455-4.256-9.455-9.455c0-1.419,0.473-2.364,0.473-3.782
	C2.363,13.711,0,19.383,0,25.529c0,13.71,11.346,25.057,25.055,25.057c13.711,0,25.057-11.347,25.057-25.057
	C50.111,11.347,38.766,0,25.055,0z M32.621,21.274c-2.838,0-4.729-2.364-4.729-5.2s1.891-5.2,4.729-5.2
	c2.836,0,5.199,2.364,5.199,5.2S35.457,21.274,32.621,21.274z" class="color c1"/>
</svg>