<svg version="1.1" id="图层_1" x="0px" y="0px" width="112.26px" height="111.284px" viewBox="0 0 112.26 111.284" enable-background="new 0 0 112.26 111.284" xml:space="preserve" xmlns="http://www.w3.org/2000/svg" xmlns:xlink="http://www.w3.org/1999/xlink" xmlns:xml="http://www.w3.org/XML/1998/namespace">
  <path fill="#FC2222" d="M1.637,74.938C1.073,78.55,1.01,82.132,2.081,85.691C1.6,85.175,0,80.255,0.014,76.869
	C-0.19,66.331,1.826,57.024,8.273,48.717c2.938-3.785,6.497-6.766,10.821-8.868c0.494-0.24,0.905-1.208,0.897-1.833
	c-0.07-5.379,0.488-10.659,2.424-15.707c4.148-10.814,11.576-18.246,22.73-21.762c0.252-0.08,0.521-0.105,0.782-0.156
	c-6.247,3.068-10.555,7.959-13.479,14.1c-6.788,14.258,0.658,32.433,19.164,35.955c1.021,0.194,1.875,0.408,2.093,1.598
	c0.095,0.721-0.198,1.141-0.688,1.371c-2.681,1.114-4.569,3.752-4.569,6.837c0,0.535,0.06,1.055,0.169,1.558
	c0.147,0.677-0.14,1.386-0.768,1.681c-0.029,0.014-0.06,0.027-0.091,0.041c-1.137,0.483-1.969,0.099-2.675-0.798
	c-1.013-1.285-1.906-2.694-3.067-3.829c-10.504-10.27-24.482-7.06-32.285-0.352C4.732,62.851,2.622,68.62,1.637,74.938z
	 M36.843,34.914c-1.016,0.865-1.183,1.416-0.45,2.425c0.863,1.189,1.904,2.494,2.903,3.537c1.244,1.299,1.513,1.748,3.344,0.201
	c4.345-3.67,9.365-5.41,15.067-5.052c4.624,0.291,8.679,2.022,12.185,5.017c1.019,0.871,1.747,0.786,2.52-0.274
	c0.733-1.005,1.614-1.904,2.319-2.926c0.346-0.501,0.619-1.053,0.895-1.623c0.333-0.688,0.326-1.538-0.149-2.137
	c-0.048-0.06-0.1-0.115-0.158-0.162c-4.501-3.654-9.637-5.898-15.389-6.633C47.8,25.897,39.174,32.596,36.843,34.914z
	 M30.655,56.082c-1.234-0.168-2.48-0.252-3.869-0.388c-2.265-0.083-3.038,0.851-3.333,3.553c-0.906,8.325,2.069,15.479,6.553,22.179
	c2.981,4.454,7.197,7.487,11.876,9.938c0.905,0.474,1.93,0.8,2.542-0.306c0.955-1.728,1.877-3.503,2.517-5.36
	c0.193-0.56,0.449-1.282-0.973-2.154c-1.952-1.021-3.911-2.302-5.507-3.826c-6.119-5.838-9.272-12.918-8.227-21.528
	C32.393,56.866,31.851,56.245,30.655,56.082z M93.506,41.029c-1.482-0.921-1.97-1.984-2.089-3.703
	c-0.278-4.006-0.39-8.125-1.445-11.957C87.14,15.083,80.807,8.031,72.169,3.254C66.877,0.712,63.148,0,63.148,0l1.753,0.748
	c3.314,1.683,6.235,3.721,8.627,6.189c8.42,8.797,9.524,22.79,2.625,32.845c-4.176,6.086-9.567,10.785-17.503,11.264
	c-1.171,0.071-1.509,0.219-1.573,1.232c-0.014,0.214,0.222,0.728,0.506,0.778c3.257,0.779,5.68,3.701,5.68,7.196
	c0,0.78-0.121,1.532-0.345,2.238c-0.068,0.215-0.239,0.673-0.213,0.936c0.093,0.598,0.512,0.93,1.137,1.055
	c0.55,0.11,1.383-0.156,1.791-0.556c1.532-1.505,2.797-3.304,4.419-4.691c14.688-12.561,34.051-3.709,38.511,10.096
	c1.562,4.837,2.198,9.718,1.402,14.748c-0.036,0.228-0.492,2.395-0.492,2.395c2.323-2.908,2.938-8.052,2.755-10.623
	C111.169,60.924,106.391,49.043,93.506,41.029z M67.379,82.536c-3.868,1.907-3.573,2.425-2.168,5.918
	c0.127,0.315,0.27,0.631,0.427,0.932c1.318,2.518,2.236,2.92,4.635,1.564c11.488-6.494,17.631-16.256,17.811-29.554
	c0-1.246,0.097-2.501-0.027-3.734c-0.134-1.336-0.888-1.879-2.487-1.814l-4.46,0.458c-1.87,0.097-2.182,0.523-2.033,2.027
	c0.243,2.458,0.55,5.018,0.129,7.412C77.909,73.125,74.458,79.16,67.379,82.536z M71.59,99.872
	c-9.285-7.021-13.022-19.129-9.151-29.587c0.252-0.682,0.473-1.414,0.507-2.132c0.056-1.18-0.538-2.003-1.383-2.24
	c-0.204-0.057-0.819-0.115-1.083,0.12c-1.267,1.016-2.873,1.626-4.623,1.626c-1.701,0-3.264-0.58-4.515-1.544
	c-0.001-0.001-0.003-0.002-0.004-0.003c-1.147-0.803-2.26-0.243-2.586,0.943c-0.18,0.656,0.116,1.474,0.394,2.09
	c2.484,5.509,2.335,11.127,0.798,16.803c-5.219,19.272-24.742,23.325-37.372,15.295c-1.147-0.729-2.447-1.748-3.489-2.718
	c0.201,0.536,1.389,2.003,1.836,2.441c10.145,9.936,30.979,14.11,43.504,4.583c1.092-0.831,2.172-0.798,3.297-0.038
	c0.656,0.443,1.363,0.812,2.055,1.2c15.267,8.557,32.948,4.82,43.668-8.841c-0.777,0.651-1.519,1.35-2.337,1.946
	C92.218,106.301,80.113,106.316,71.59,99.872z" class="color c1"/>
</svg>