<svg version="1.1" id="图层_1" x="0px" y="0px" width="200px" height="109.74px" viewBox="0 0 200 109.74" enable-background="new 0 0 200 109.74" xml:space="preserve" xmlns="http://www.w3.org/2000/svg" xmlns:xlink="http://www.w3.org/1999/xlink" xmlns:xml="http://www.w3.org/XML/1998/namespace">
  <path fill-rule="evenodd" clip-rule="evenodd" fill="#DB2E06" d="M78.711,63.011l19.031,38.348
	C81.575,96.105,65.208,88.75,50.55,79.716c-2.827-1.742-5.516-3.5-8.063-5.271c-6.364-4.102-12.054-8.271-17.045-12.436
	L78.711,63.011z M136.337,83.332l-16.912-56.193l-21.588,74.25c12.995,4.217,25.857,7.076,37.596,8.352
	c12.218-12.813,22.735-25.631,29.556-38.442c0.496-0.933,15.236-2.182,25.443-2.989h-43.008L136.337,83.332z M169.428,61.566
	l0.032-0.089c2.45-6.533,3.813-13.067,3.813-19.601c0-18.521-16.031-33.551-35.781-33.551c-7.026,0-12.672,1.293-17.481,3.878
	l18.499,61.395l6.792-9.094l54.698,3l-0.007-0.002C195.282,67.244,168.758,63.345,169.428,61.566z M101.706,33.486
	C92.76,16.712,83.814,8.326,65.921,8.326c-19.751,0-35.781,15.03-35.781,33.551c0,1.629-0.044,2.454,0.159,4.075
	c0.296,2.351-39.988-27.548-2.683-42.188c5.691-2.233,12.733-3.393,20.691-3.583C35.438-0.498,24.12,0.713,15.527,4.087
	c-24.326,9.544-19.222,33.382,9.388,57.48l56.563-2.751l14.795,30.709l22.638-76.698C112.029,16.92,106.867,23.807,101.706,33.486z" class="color c1"/>
</svg>