<svg version="1.1" id="图层_1" x="0px" y="0px" width="200px" height="200px" viewBox="0 0 200 200" enable-background="new 0 0 200 200" xml:space="preserve" xmlns="http://www.w3.org/2000/svg" xmlns:xlink="http://www.w3.org/1999/xlink" xmlns:xml="http://www.w3.org/XML/1998/namespace">
  <path fill="#FFFFFF" d="M100,0C44.771,0,0,44.771,0,100s44.771,100,100,100s100-44.771,100-100S155.229,0,100,0z M171.337,130.374
	h-41.519v41.519c0,4.803-3.894,8.696-8.696,8.696H80.689c-4.803,0-8.695-3.894-8.695-8.696v-41.519h-41.52
	c-4.803,0-8.695-3.894-8.695-8.696V81.245c0-4.803,3.893-8.696,8.695-8.696h41.52V31.03c0-4.803,3.893-8.696,8.695-8.696h40.433
	c4.803,0,8.696,3.894,8.696,8.696v41.519h41.519c4.803,0,8.696,3.894,8.696,8.696v40.433
	C180.033,126.48,176.14,130.374,171.337,130.374z" class="color c1"/>
  <path fill="#FFFFFF" d="M107.344,92.231V70.596H95.337v21.636c0,2.502-2.028,4.53-4.531,4.53H69.17v12.008h21.636
	c2.503,0,4.531,2.028,4.531,4.53v21.637h12.007V113.3c0-2.502,2.029-4.53,4.531-4.53h21.636V96.762h-21.636
	C109.373,96.762,107.344,94.733,107.344,92.231z" class="color c1"/>
</svg>