<svg version="1.1" id="图层_1" x="0px" y="0px" width="174.5px" height="159.607px" viewBox="0 0 174.5 159.607" enable-background="new 0 0 174.5 159.607" xml:space="preserve" xmlns="http://www.w3.org/2000/svg" xmlns:xlink="http://www.w3.org/1999/xlink" xmlns:xml="http://www.w3.org/XML/1998/namespace">
  <path fill="#FFFFFF" d="M96.801,83.281c0,1.479,0.378,2.9,0.639,4.38c8.553-2.12,13.766-10.771,11.645-19.323
	c-2.121-8.551-10.771-13.764-19.322-11.643c-8.551,2.12-13.764,10.771-11.644,19.322c1.59,6.412,6.967,11.18,13.522,11.991
	c-0.263-1.509-0.493-2.899-0.64-4.524c-6.255-1.385-10.204-7.579-8.819-13.834c1.385-6.256,7.58-10.204,13.835-8.82
	c6.256,1.385,10.204,7.579,8.818,13.835C103.924,78.784,100.847,82.083,96.801,83.281z M92.59,95.474
	C80.08,94.533,70.7,83.626,71.642,71.115S83.49,49.225,96,50.166c12.512,0.942,21.892,11.849,20.949,24.359
	c-0.742,9.849-7.764,18.091-17.369,20.389c2.971,12.706,9.621,24.254,19.117,33.202l41.94-43.757
	c19.042-19.854,18.386-51.383-1.468-70.425C139.318-5.107,107.788-4.45,88.745,15.402l-1.432,1.503l-2.098-2.132
	C65.865-4.781,34.327-4.944,14.773,14.406C-4.78,33.757-4.945,65.295,14.406,84.849l0,0l73.99,74.758l25.442-26.526
	C103.146,122.96,95.741,109.857,92.59,95.474z" class="color c1"/>
</svg>