<svg version="1.1" id="图层_1" x="0px" y="0px" width="75.063px" height="94.074px" viewBox="0 0 75.063 94.074" enable-background="new 0 0 75.063 94.074" xml:space="preserve" xmlns="http://www.w3.org/2000/svg" xmlns:xlink="http://www.w3.org/1999/xlink" xmlns:xml="http://www.w3.org/XML/1998/namespace">
  <path fill="#B3C300" d="M4.668,73.543c0.459-0.479,0.917-0.961,1.373-1.447c-0.498,1.855-0.771,3.893-0.771,6.123H0
	C1.57,76.703,3.127,75.145,4.668,73.543z M72.489,65.535h-0.595V0H50.667c0,0-6.514,17.715-16.091,34.451
	c-0.928,1.522-1.872,3.044-2.849,4.563v0.228c-1.555,2.511-3.173,4.954-4.844,7.267h-0.182c-0.886,1.27-1.787,2.53-2.698,3.784
	c-0.063,0.079-0.126,0.162-0.19,0.241l0.011,0.002c-2.469,3.388-5.021,6.714-7.634,9.93c2.544-1.049,5.398-1.578,8.414-1.578
	c10.683,0,19.335,6.648,19.335,19.332h28.547c0,0,2.577-0.328,2.577-6.34C75.065,65.916,72.489,65.535,72.489,65.535z
	 M24.149,61.848c-8.9,0-16.114,7.215-16.114,16.113c0,8.9,7.214,16.113,16.114,16.113c8.898,0,16.112-7.213,16.112-16.113
	C40.262,69.063,33.048,61.848,24.149,61.848z" class="color c1"/>
</svg>