<svg version="1.1" id="图层_1" x="0px" y="0px" width="200px" height="84.491px" viewBox="0 0 200 84.491" enable-background="new 0 0 200 84.491" xml:space="preserve" xmlns="http://www.w3.org/2000/svg" xmlns:xlink="http://www.w3.org/1999/xlink" xmlns:xml="http://www.w3.org/XML/1998/namespace">
  <path fill="#00AAAD" d="M92.663,55.977c-0.424,0.238-0.943,0.289-1.402,0.107L74.012,56.1c-0.729,0-1.382-0.488-1.588-1.188
	l-1.44-4.927L68.366,63.75c-0.174,0.914-1.059,1.517-1.973,1.342c-0.734-0.141-1.281-0.732-1.362-1.475L61.86,34.879l-2.389,19.917
	c-0.105,0.886-0.859,1.554-1.753,1.554l-14.748,0.015c-0.831,0-1.544-0.565-1.734-1.374L38.8,44.558l-2.065,9.297
	c-0.218,0.978-1.189,1.593-2.166,1.378c-0.773-0.171-1.356-0.844-1.417-1.637l-2.007-27.509l-3.646,56.578
	c-0.033,0.519-0.267,0.995-0.659,1.34c-0.359,0.316-0.812,0.486-1.286,0.486c-0.042,0-0.085-0.002-0.127-0.004
	c-0.953-0.063-1.735-0.826-1.819-1.777l-2.759-30.824l-1.143,3.111c-0.289,0.782-1.042,1.309-1.877,1.311L1.146,56.324
	c0,0,0,0-0.001,0C0.513,56.324,0,55.811,0,55.18c-0.001-0.633,0.512-1.146,1.144-1.146l16.481-0.017l2.834-7.714
	c0.185-0.502,0.69-0.811,1.225-0.74c0.531,0.07,0.942,0.5,0.99,1.033l2.822,31.526l4.436-68.817
	c0.039-0.601,0.536-1.069,1.138-1.071c0.001,0,0.003,0,0.005,0c0.6,0,1.098,0.463,1.142,1.062l2.983,40.901l2.453-11.042
	c0.116-0.521,0.578-0.894,1.112-0.896c0.002,0,0.004,0,0.006,0c0.532,0,0.994,0.366,1.115,0.885l3.488,14.931l13.878-0.015
	l3.518-29.328c0.07-0.576,0.559-1.009,1.138-1.009c0.002,0,0.003,0,0.005,0c0.582,0.002,1.07,0.441,1.133,1.02l3.821,34.63
	l2.757-14.492c0.099-0.52,0.541-0.904,1.069-0.93c0.542-0.028,1.007,0.315,1.154,0.822l2.641,9.035l15.541-0.014
	C90.029,53.795,91.75,56.137,92.663,55.977z M198.855,53.958h-18.38l-3.99-16.959c-0.123-0.518-0.584-0.883-1.115-0.883
	c-0.002,0-0.005,0-0.008,0c-0.533,0.003-0.994,0.375-1.11,0.897l-2.134,9.611l-3.326-45.562C168.749,0.463,168.25,0,167.65,0
	c-0.001,0-0.003,0-0.005,0c-0.602,0.002-1.1,0.471-1.139,1.071l-4.495,69.757l-2.362-26.391c-0.049-0.534-0.46-0.963-0.99-1.033
	c-0.537-0.07-1.041,0.238-1.226,0.741l-3.617,9.846l-10.558,0.021l-3.491-14.504c-0.132-0.55-0.648-0.922-1.212-0.873
	c-0.563,0.049-1.008,0.502-1.044,1.068l-1.745,27.099l-2.736-17.753c-0.08-0.518-0.502-0.915-1.023-0.966
	c-0.518-0.049-1.01,0.261-1.188,0.754l-1.734,4.843L117.1,53.69l-2.024,2.292l14.572-0.013c0.628-0.004,1.192-0.4,1.405-0.992
	l0.4-1.119l3.205,20.783c0.104,0.674,0.674,1.193,1.354,1.236c0.788,0.047,1.498-0.559,1.553-1.365l1.746-27.115l1.884,7.826
	c0.153,0.637,0.718,1.08,1.374,1.08l11.87-0.023c0.585,0,1.112-0.369,1.312-0.916l2.072-5.638l3,33.507
	c0.059,0.666,0.586,1.182,1.257,1.227c0.741,0.051,1.383-0.518,1.43-1.258l4.212-65.352l2.646,36.256
	c0.03,0.539,0.416,0.994,0.94,1.113c0.311,0.07,0.639,0.015,0.908-0.153c0.275-0.171,0.473-0.45,0.543-0.766l2.644-11.904
	l3.052,12.969c0.122,0.518,0.584,0.883,1.115,0.883h19.286c0.632,0,1.146-0.513,1.146-1.146
	C200,54.471,199.487,53.958,198.855,53.958z" class="color c1"/>
  <path fill="#A6CE39" d="M117.333,53.895c1.582-1.557,3.217-3.167,4.788-4.795c1.779-1.853,3.842-4.085,5.655-6.602
	c2.017-2.819,3.272-5.423,3.839-7.947c0.335-1.43,0.444-2.904,0.333-4.508c-0.112-1.532-0.408-3.006-0.874-4.376
	c-0.956-2.871-2.657-5.431-4.912-7.398c-2.23-1.968-4.989-3.319-7.984-3.907c-1.537-0.296-3.038-0.396-4.472-0.295
	c-1.446,0.112-2.914,0.535-4.358,1.254c-1.184,0.579-2.398,1.385-3.713,2.467c-0.884,0.732-1.757,1.554-2.653,2.5
	c-1.587-1.508-3.842-3.417-6.523-4.601c-0.706-0.31-1.437-0.563-2.112-0.729c-0.717-0.18-1.406-0.282-2.233-0.332
	c-0.019-0.001-0.037-0.002-0.056-0.002l-0.118-0.001c-0.304-0.003-0.618-0.008-0.979,0.018c-0.389,0.013-0.741,0.049-1.072,0.084
	c-0.257,0.022-0.498,0.06-0.732,0.096c-0.116,0.018-0.231,0.036-0.347,0.052c-0.03,0.004-0.06,0.009-0.089,0.015
	c-0.11,0.024-0.223,0.045-0.334,0.066c-0.234,0.046-0.478,0.092-0.71,0.154c-1.479,0.358-2.87,0.889-4.124,1.572
	c-1.271,0.674-2.48,1.544-3.601,2.59c-1.096,1.039-2.035,2.193-2.793,3.428c-0.787,1.28-1.397,2.639-1.809,4.026
	c-0.421,1.369-0.666,2.836-0.729,4.358c-0.033,0.775-0.017,1.505,0.053,2.218c0.067,0.801,0.236,1.586,0.382,2.203
	c0.649,2.541,1.967,5.072,4.027,7.735c1.849,2.402,3.988,4.54,5.84,6.316c1.597,1.525,3.26,3.027,4.881,4.486
	c0,0,1.749,2.379,2.675,2.217c0.129-0.072,0.25-0.158,0.357-0.265c0.313-0.315,0.485-0.733,0.484-1.176v-0.116
	c0-0.67-0.406-1.263-0.997-1.522l-0.591-0.532c-1.726-1.551-3.509-3.155-5.202-4.771c-1.787-1.715-3.85-3.774-5.606-6.057
	c-1.862-2.409-3.046-4.663-3.61-6.868c-0.18-0.769-0.279-1.338-0.323-1.858c-0.06-0.617-0.075-1.241-0.045-1.91
	c0.055-1.325,0.268-2.595,0.632-3.785c0.357-1.203,0.883-2.374,1.563-3.48c0.652-1.064,1.464-2.06,2.405-2.952
	c0.965-0.901,2.008-1.651,3.108-2.236c1.087-0.592,2.289-1.049,3.594-1.366c0.179-0.047,0.373-0.085,0.579-0.125
	c0.112-0.022,0.225-0.043,0.335-0.066c0.117-0.017,0.236-0.035,0.354-0.053c0.202-0.032,0.395-0.062,0.568-0.076
	c0.007,0,0.026-0.002,0.033-0.003c0.322-0.034,0.628-0.065,0.941-0.075c0.016,0,0.031-0.001,0.048-0.002
	c0.27-0.02,0.518-0.016,0.803-0.013L92,16.95c0.674,0.041,1.208,0.121,1.784,0.265c0.551,0.136,1.151,0.345,1.735,0.602
	c2.017,0.891,4.039,2.367,6.364,4.646c0.016,0.016,0.031,0.032,0.047,0.045c0.651,0.594,1.663,0.548,2.258-0.103
	c1.006-1.101,1.964-2.024,2.926-2.822c1.186-0.976,2.221-1.666,3.263-2.175c1.166-0.58,2.378-0.934,3.499-1.021
	c1.223-0.085,2.522,0.002,3.857,0.259c2.586,0.508,4.968,1.673,6.894,3.373c1.947,1.699,3.413,3.907,4.242,6.392
	c0.405,1.189,0.66,2.47,0.758,3.8c0.096,1.363,0.004,2.61-0.279,3.821c-0.5,2.227-1.633,4.554-3.461,7.111
	c-1.727,2.396-3.721,4.553-5.442,6.345c-1.548,1.605-3.174,3.205-4.744,4.752l-1.119,1.104c-0.534,0.252-0.879,0.797-0.879,1.389
	c0,0.844,0.688,1.531,1.534,1.531l2.057-2.327L117.333,53.895z" class="color c2"/>
</svg>