<svg version="1.1" id="图层_1" x="0px" y="0px" width="96.249px" height="166.58px" viewBox="0 0 96.249 166.58" enable-background="new 0 0 96.249 166.58" xml:space="preserve" xmlns="http://www.w3.org/2000/svg" xmlns:xlink="http://www.w3.org/1999/xlink" xmlns:xml="http://www.w3.org/XML/1998/namespace">
  <path fill="#EF0000" d="M95.39,126.53c-0.63,3.44-1.63,6.85-2.97,10.16c-1.4,3.44-3.07,6.62-4.98,9.42
	c-4.11,6.12-9.6,11.15-15.89,14.54c-3.12,1.69-6.51,3.05-10.09,4.01c-3.44,0.93-6.93,1.51-10.7,1.78l-2.43,0.1l-0.62,0.03
	l-0.31,0.01h-0.16l-0.33-0.01l-1.31-0.01h-0.13c-0.87,0-1.73-0.06-2.57-0.12c-0.83-0.04-1.72-0.13-2.73-0.26
	c-3.72-0.46-7.33-1.34-10.7-2.63c-6.82-2.56-13.19-7.17-17.94-13c-4.48-5.45-7.86-12.19-9.78-19.49c-0.4-1.53-0.74-3.18-1.11-5.37
	c-0.04-0.3-0.08-0.59-0.12-0.88c-0.08-0.59-0.17-1.2-0.22-1.81l-0.13-1.37l-0.09-1.4c-0.05-0.73-0.05-1.31-0.06-1.88
	c-0.01-0.23-0.01-0.46-0.02-0.73v-0.44l0.01-0.33l0.01-0.67l0.01-0.28c0.01-0.36,0.02-0.72,0.04-1.06c0.09-1.74,0.25-3.53,0.48-5.31
	c0.44-3.33,1.12-6.7,2.11-10.32c0.91-3.17,2.01-6.36,3.37-9.75c2.46-6.05,5.44-12.12,8.85-18.03c2.93-5.11,6.16-10.44,10.17-16.76
	c3.88-6.06,7.19-11.41,10.14-16.34c3.72-6.31,6.5-11.66,8.72-16.82c2.75-6.49,4.46-12.39,5.22-18.04L49.6,0
	c0,0,2.94,14.965-3.59,32.87c-1.14,2.84-2.43,5.81-3.95,9.08c-2.35,5.06-4.97,10.02-7.5,14.83l-1.38,2.62
	c-0.73,1.37-1.46,2.73-2.18,4.09c-2.26,4.23-4.6,8.61-6.71,12.93c-1.53,3.14-2.84,5.93-4.01,8.54c-1.33,3.02-2.45,5.84-3.44,8.6
	c-0.14,0.4-0.28,0.79-0.4,1.19c-0.95,2.93-1.6,5.9-1.95,8.87c-0.02,0.09-0.03,0.18-0.03,0.27c-0.04,0.31-0.07,0.61-0.09,0.92
	c-0.26,2.54-0.29,5.08-0.1,7.6c0.02,0.43,0.05,0.86,0.1,1.28c1.06,11.8,6.34,22.84,14.84,31.07c0.37,0.37,0.75,0.73,1.14,1.08
	c0.07,0.07,0.13,0.13,0.21,0.19c6.73,6.03,15.41,8.89,23.99,8.44c12.44-1.39,23.09-8.98,28.58-19.8c0.09-0.17,0.18-0.35,0.25-0.52
	c1.12-2.27,2.01-4.69,2.63-7.22c0.05-0.16,0.09-0.33,0.13-0.5c0.14-0.55,0.28-1.12,0.4-1.68c0.64-2.92,0.95-5.81,0.91-8.61
	c-0.03-3.13-0.31-6.13-0.82-8.92c-0.27-1.48-0.62-2.92-1.02-4.29c-0.2-0.7-0.43-1.4-0.67-2.07l-0.19-0.53l-0.05-0.13l-0.01-0.03
	l-0.08-0.2l-0.03-0.07l-0.22-0.53l-0.19-0.39c-1.11-2.32-2.997-4.535-5.244-6.156c-1.271-0.917-3.828-2.125-6.816-2.543
	c-0.33-0.033-0.627-0.066-0.913-0.066c-0.077,0-0.154-0.011-0.231-0.011c-1.111,0-2.882,0.385-3.839,0.847
	c-0.495,0.231-1.012,0.561-1.518,0.946c-0.33,0.264-0.693,0.583-1.111,0.968c-0.242,0.209-0.495,0.44-0.77,0.682l-2.057,1.782
	l-0.792,0.693l-0.726-0.77l-1.771-1.881l-0.44-0.462l-0.033-0.033l-0.055-0.044l-0.297-0.275l-0.979-0.891
	c-0.264-0.231-0.473-0.396-0.605-0.473l-0.231-0.143c-0.088-0.066-0.187-0.132-0.253-0.165c-0.088-0.044-0.154-0.088-0.231-0.121
	c-0.055-0.033-0.099-0.066-0.209-0.121c-1.122-0.561-2.299-0.858-3.52-0.858h-0.165c-0.638,0.022-1.309,0.11-1.98,0.275L48.9,90.293
	l-0.583,0.198c-0.374,0.132-0.671,0.253-0.935,0.385c-1.265,0.605-2.277,1.419-3.003,2.453c-0.385,0.528-0.715,1.122-0.99,1.782
	c-0.143,0.33-0.231,0.583-0.308,0.836l-0.088,0.231L42.96,96.31c-0.099,0.319-0.187,0.616-0.242,0.935
	c-0.33,1.441-0.341,2.882-0.055,4.301c0.264,1.386,0.814,2.739,1.727,4.279c0.814,1.408,1.815,2.805,2.97,4.158
	c2.365,2.794,5.291,5.28,7.821,7.337c1.419,1.133,2.893,2.233,4.389,3.256c0.583,0.407,1.133,0.77,1.661,1.111l0.671-0.385
	c2.992-1.76,6.105-3.729,8.547-6.336c1.276-1.342,2.244-2.783,3.124-4.125c2.728-4.191,2.959-10.615,2.959-10.615
	s3.476,12.254-7.106,21.23c-1.661,1.364-3.41,2.585-5.126,3.718l-1.177,0.77l-0.264,0.165c-0.066,0.044-0.627,0.429-1.276,0.506
	c-0.143,0.022-0.275,0.033-0.418,0.033c-0.781,0-1.375-0.319-1.661-0.495l-0.088-0.044c-0.748-0.44-1.562-0.924-2.486-1.496
	c-1.639-1.012-3.267-2.101-4.829-3.234c-1.562-1.122-3.102-2.321-4.587-3.564c-1.628-1.331-3.091-2.706-4.367-4.081
	c-1.474-1.573-2.717-3.146-3.795-4.818c-0.913-1.386-2.134-3.553-2.717-6.006c-0.561-2.211-0.649-4.598-0.264-6.864
	c0.099-0.572,0.231-1.122,0.352-1.639l0.011-0.055l0.011-0.022c0.143-0.495,0.33-1.133,0.495-1.573
	c0.407-1.155,0.946-2.233,1.584-3.212c1.265-1.98,3.179-3.718,5.379-4.895c0.506-0.275,1.034-0.528,1.672-0.792l0.682-0.253
	l0.044-0.022l0.858-0.275c1.177-0.363,2.376-0.583,3.542-0.671c0.352-0.022,0.704-0.033,1.067-0.033c2.123,0,4.268,0.462,6.16,1.32
	c0.209,0.088,0.44,0.198,0.66,0.319l0.231,0.11c0.22,0.11,0.352,0.187,0.495,0.264l0.22,0.121c0.462,0.264,0.858,0.539,1.221,0.814
	c0.803-0.638,1.606-1.166,2.453-1.606c2.079-1.111,5.302-1.892,7.722-1.914h0.198c0.495,0,1.012,0.022,1.529,0.066
	c0.209,0.022,0.44,0.044,0.671,0.077l0.275,0.033l0.737,0.121c1.221,0.242,2.255,0.517,3.267,0.88
	c1.991,0.726,4.493,2.241,6.143,3.471c1.5,1.11,2.9,2.44,4.18,3.94c1.27,1.51,2.32,3.07,3.21,4.77l0.36,0.71l0.26,0.56l0.14,0.31
	l0.15,0.38l0.25,0.61c0.32,0.82,0.63,1.66,0.91,2.5c0.54,1.63,1,3.34,1.39,5.09c0.7,3.24,1.15,6.71,1.31,10.33
	C96.36,119.33,96.08,122.92,95.39,126.53z" class="color c1"/>
</svg>