<svg version="1.1" id="图层_1" x="0px" y="0px" width="83.125px" height="154.461px" viewBox="0 0 83.125 154.461" enable-background="new 0 0 83.125 154.461" xml:space="preserve" xmlns="http://www.w3.org/2000/svg" xmlns:xlink="http://www.w3.org/1999/xlink" xmlns:xml="http://www.w3.org/XML/1998/namespace">
  <path fill="#8CC63E" d="M31.883,127.316l-0.822-3.451c-0.9,0.604-1.697,1.183-2.389,1.705
	C30.402,126.701,31.883,127.316,31.883,127.316z M30.227,135.484c1.031,0.199,2.269,0.42,3.365,0.59
	c0.166,0.023,0.328,0.048,0.498,0.074c0.027,0,0.055,0.006,0.082,0.008c1.498,0.207,4.756,0.385,11.162,0.008
	c19.088-1.794,19.414-12.667,14.576-16.586c-0.011-0.027-0.037-0.053-0.086-0.072c0-0.004-0.003-0.004-0.003-0.004
	c-0.397-0.309-0.827-0.575-1.282-0.784c-1.474-0.675-2.896-1.098-4.263-1.35c-4.731-0.488-9.047,0.188-12.826,1.39
	c0.344,1.523,0.874,3.708,1.32,5.52c1.767-0.629,3.642-1.102,5.651-1.383c5.976-0.822,9.418,3.347,0.892,6.307
	c-1.554,0.538-8.051,2.295-15.894,0.438c0,0-3.837-1.043-6.539-2.669c-0.01,0.009-0.021,0.017-0.028,0.024
	c-0.371-0.234-0.716-0.489-1.045-0.758c-0.062-0.047-0.121-0.098-0.181-0.148c-0.104-0.087-0.205-0.177-0.304-0.268
	c-0.027-0.026-0.064-0.051-0.09-0.08c-0.066-0.063-0.113-0.118-0.172-0.18c-0.133-0.136-0.258-0.274-0.376-0.416
	c-0.045-0.056-0.093-0.109-0.128-0.16c-0.746-0.95-1.205-2.058-1.162-3.363c0.105-3.301,2.494-6.803,5.906-9.555l-0.318-2.928
	c0,0-4.552-1.049-6.848-2.182c-4.438,2.611-7.111,7.359-7.111,7.359l0.002,0.002c-2.325,4.396-2.447,11.08,4.162,16.619
	C20.836,132.184,23.46,134.102,30.227,135.484z M82.828,151.505c-9.339-14.127-47.639-4.599-56.258-11.325
	c0,0-1.18-0.947-0.759-2.359c0.262-0.538,0.505-0.915,0.744-1.221c-1.545-0.36-4.038-1.129-6.541-2.69
	c-0.498,0.804-0.945,1.634-1.273,2.502c-1.446,3.815,1.598,7.185,1.598,7.185c11.469,11.756,48.403-3.248,58.364,9.158
	C81.391,156.105,84.026,153.891,82.828,151.505z M12.994,46.194c1.25-1.702,3.043-3.929,5.227-6.042
	c-4.342-2.972-7.486-6.715-9.454-11.908C5.746,20.265,10.164,9.893,16.16,7.511c7.734-3.076,15.373,2.106,17.319,8.058
	c-0.491,3.758-3.537,6.971-3.039,10.961c0.485,3.884,9.158,12.826,12.261,12.018c3.278-0.857,6.145-13.014,4.733-16.871
	c-1.822-4.977-5.867-3.642-8.118-7.689c-1.146-2.058-1.079-2.667-2.01-4.337c-2.646-4.727-7.02-8.729-13.414-9.257
	C8.973-0.847,0.025,10.566,0,21.791C-0.021,32.027,5.676,40.387,12.994,46.194z" class="color c1"/>
  <path fill="#8CC63E" d="M41.209,150.333c0.311,0.774,0.612,1.556,0.928,2.321c2.002,2.865,5.786,1.429,9.237-0.711
	c-0.375-0.732-0.76-1.512-1.149-2.313L41.209,150.333z M36.847,137.998c0.317,1.029,0.647,2.047,0.984,3.061
	c1.995,0.187,5.879,0.211,8.629,0.196c-0.432-1.05-0.86-2.122-1.285-3.231C43.725,138.223,41.155,138.355,36.847,137.998z
	 M34.121,127.959c0.764,0.184,5.301,0.85,7.854,0.618c-1.866-6.245-3.424-13.146-4.297-20.589
	c7.229,0.382,21.883-1.571,32.522-13.563c15.348-17.295,7.463-50.436,5.192-65.198c-0.979-6.384-0.095-14.282,1.735-21.314
	c0.604-1.912,0.953-3.292,0.976-3.395C79.13,1.713,79.946,0,79.946,0s-0.461,0.235-1.286,0.744c0.014-0.006,0.03-0.015,0.041-0.021
	C78.69,0.73,78.679,0.74,78.669,0.751c-0.004-0.003-0.006-0.008-0.012-0.008C77.309,1.422,63.414,8.04,47.928,18.41
	c1.448,1.616,1.858,3.382,1.87,4.851c3.773-2.363,7.726-4.652,11.324-6.795c-2.272,2.708-4.615,5.796-6.934,9.302
	C36.247,52.934,30.114,78.331,30.65,101.494c-2.75-0.403-8.351-1.703-12.702-5.803C2.93,81.543,6.656,57.918,33.377,35.204
	c-0.973-0.997-2.045-2.249-2.945-3.667C17.718,42.356,6.785,55.243,4.141,68.901c-5.758,29.748,18.693,36.99,26.798,38.561
	C31.451,114.521,32.568,121.355,34.121,127.959z M68.548,16.831c-0.438,4.688-0.01,12.772,1.632,23.341
	c1.711,11.018,7.289,34.54-8.4,52.52c-7.194,8.244-20.322,8.834-24.661,9.125C35.574,76.994,42.036,47.105,68.548,16.831z" class="color c1"/>
</svg>