<svg version="1.1" id="图层_1" x="0px" y="0px" width="61.648px" height="121.277px" viewBox="0 0 61.648 121.277" enable-background="new 0 0 61.648 121.277" xml:space="preserve" xmlns="http://www.w3.org/2000/svg" xmlns:xlink="http://www.w3.org/1999/xlink" xmlns:xml="http://www.w3.org/XML/1998/namespace">
  <path fill="#FFFFFF" d="M61.53,102.147c-0.09-0.154-9.112-15.469-19.021-33.503c8.023-16.239,12.649-28.157,13.747-35.423
	c0.576-2.59,0.573-2.736-0.019-4.953c-1.117-3.907-7.11-15.944-8.92-19.54l-0.052-0.104c-0.001-0.002-0.002-0.004-0.003-0.006
	c0,0,0,0,0,0C47.018,8.096,43.056,0,32.025,0c-9.61,0-15.975,6.881-17.703,8.997c-0.149,0.187-0.251,0.32-0.298,0.382
	c-0.006,0.007-0.011,0.015-0.017,0.022c-0.01,0.013-0.014,0.029-0.023,0.042c-0.022,0.032-0.046,0.06-0.064,0.095
	c-2.213,4.42-7.474,15.092-8.514,18.743c-0.589,2.203-0.591,2.349-0.015,4.938c1.098,7.265,5.723,19.183,13.747,35.424
	C9.23,86.678,0.208,101.994,0.118,102.147c-0.201,0.34-0.14,0.774,0.145,1.047c0.069,0.066,6.998,6.771,11.845,17.574
	c0.129,0.288,0.408,0.481,0.723,0.501c0.018,0.001,0.036,0.002,0.053,0.002c0.295,0,0.572-0.154,0.726-0.408
	c0.083-0.136,8.177-13.455,17.213-29.921c9.031,16.466,17.131,29.791,17.214,29.927c0.155,0.255,0.431,0.408,0.726,0.408
	c0.018,0,0.036,0,0.053-0.002c0.315-0.02,0.594-0.213,0.723-0.501c4.847-10.81,11.775-17.514,11.845-17.58
	C61.67,102.921,61.73,102.487,61.53,102.147z M19.159,22.087c1.63-1.245,7.19-5.135,13.022-5.135c5.688,0,9.5,3.231,10.628,4.327
	c-2.506,6.314-6.533,14.873-11.985,25.473C25.597,36.59,21.678,28.304,19.159,22.087z" class="color c1"/>
</svg>