<svg version="1.1" id="图层_1" x="0px" y="0px" width="197.462px" height="82.825px" viewBox="0 0 197.462 82.825" enable-background="new 0 0 197.462 82.825" xml:space="preserve" xmlns:xml="http://www.w3.org/XML/1998/namespace" xmlns="http://www.w3.org/2000/svg" xmlns:xlink="http://www.w3.org/1999/xlink">
  <path fill="#FFDBD4" d="M197.268,58.377c-1.787,12.164-15.71,24.307-27.974,24.447c-4.448,0.05-8.156-1.118-10.544-5.679
	c-3.767-7.194-8.125-14.081-12.287-21.065c-2.312-3.879-4.18-4.623-8.569-3.543c-8.886,2.187-17.782,4.336-26.641,6.629
	c-10.135,2.624-20.127,5.174-30.806,2.351c-9.247-2.445-18.923-3.333-28.092-6C36.269,50.838,20.419,45.348,4.487,40.146
	c-5.011-1.636-5.967-6.024-2.148-9.692c2.087-2.004,4.488-2.875,7.504-2.162c16.065,3.796,32.151,7.505,48.242,11.191
	c1.124,0.257,2.396,0.325,3.514,0.084c8.277-1.787,16.534-3.665,24.791-5.545c0.9-0.205,1.998-0.361,2.592-0.953
	c3.322-3.308,6.518-6.744,9.824-10.206c-0.715-0.147-1.522-0.351-2.341-0.476c-10.491-1.592-20.985-3.167-31.476-4.761
	c-3.064-0.465-5.488-1.845-6.753-4.847c-1.781-4.228,0.243-11.215,7.149-11.347c16.957-0.326,33.908-0.977,50.863-1.424
	c2.125-0.056,4.289,0.169,6.388,0.535c12.554,2.186,23.383,8.125,33.238,15.886c12.313,9.697,24.358,19.734,36.657,29.449
	C196.758,49.217,197.99,53.461,197.268,58.377z M45.271,26.737c2.545,2.156,5.001,4.426,7.391,6.754
	c2.298,2.239,4.962,2.827,7.988,2.154c3.142-0.699,6.274-1.445,10.129-2.337c-5.183-4.57-9.686-9.156-14.818-12.877
	c-4.286-3.107-9.472-1.429-11.353,2.719C43.968,24.56,43.954,25.622,45.271,26.737z" class="color c1"/>
</svg>