<svg version="1.1" id="图层_1" x="0px" y="0px" width="57.832px" height="57.831px" viewBox="0 0 57.832 57.831" enable-background="new 0 0 57.832 57.831" xml:space="preserve" xmlns="http://www.w3.org/2000/svg" xmlns:xlink="http://www.w3.org/1999/xlink" xmlns:xml="http://www.w3.org/XML/1998/namespace">
  <path fill="#AF131E" d="M28.915,0C12.947,0,0,12.947,0,28.916c0,15.97,12.947,28.915,28.915,28.915
	c15.972,0,28.917-12.945,28.917-28.915C57.832,12.947,44.887,0,28.915,0z M28.915,51.544c-12.496,0-22.629-10.131-22.629-22.628
	c0-12.498,10.133-22.633,22.629-22.633c12.499,0,22.631,10.135,22.631,22.633C51.546,41.413,41.414,51.544,28.915,51.544z
	 M41.384,28.916c0,6.883-5.582,12.466-12.468,12.466c-6.884,0-12.468-5.583-12.468-12.466c0-6.887,5.58-12.469,12.468-12.469
	c1.43,0,2.798,0.252,4.076,0.697c-0.647,0.734-1.045,1.701-1.045,2.762c0,2.314,1.876,4.191,4.191,4.191
	c1.389,0,2.616-0.68,3.378-1.723C40.692,24.281,41.384,26.514,41.384,28.916z" class="color c1"/>
</svg>