<svg version="1.1" id="图层_1" x="0px" y="0px" width="167.7px" height="167.7px" viewBox="0 0 167.7 167.7" enable-background="new 0 0 167.7 167.7" xml:space="preserve" xmlns="http://www.w3.org/2000/svg" xmlns:xlink="http://www.w3.org/1999/xlink" xmlns:xml="http://www.w3.org/XML/1998/namespace">
  <path fill="#6689B2" d="M106.6,38.9V0c29.6,8.1,53,31.4,61.1,61.1h-38.9C123.9,51.5,116.2,43.7,106.6,38.9z M106.6,128.7v38.9
	c29.6-8.1,53-31.4,61.1-61.1h-38.9C123.9,116.2,116.2,123.9,106.6,128.7z M0,61.1h38.9c4.8-9.6,12.6-17.4,22.2-22.2V0
	C31.4,8.1,8.1,31.4,0,61.1z M38.9,106.6H0c8.1,29.6,31.4,53,61.1,61.1v-38.9C51.5,123.9,43.7,116.2,38.9,106.6z" class="color c1"/>
</svg>