<svg version="1.1" id="图层_1" x="0px" y="0px" width="175.822px" height="169.555px" viewBox="0 0 175.822 169.555" enable-background="new 0 0 175.822 169.555" xml:space="preserve" xmlns="http://www.w3.org/2000/svg" xmlns:xlink="http://www.w3.org/1999/xlink" xmlns:xml="http://www.w3.org/XML/1998/namespace">
  <path fill="#32BC94" d="M143.349,36.311c-10.313,0-19.41,5.441-25.486,13.563c-6.074-8.119-15.168-13.547-25.475-13.563
	c-8.64,0-16.465,3.426-22.292,8.93V22.762c0-6.123-3.712-11.326-8.976-13.879C59.974,3.816,55.424,0,50.026,0
	C43.774,0,38.64,5.123,38.64,11.375s5.135,11.387,11.387,11.387c4.354,0,8.127-2.521,10.04-6.145
	c1.756,1.535,2.844,3.719,2.844,6.145l-2.867,43.301c0,0-0.129,1.703-0.129,2.572c0,1.355,0.201,2.646,0.316,3.969
	c-0.454,0.928-0.967,1.822-1.533,2.691c-2.411-0.496-4.914,0.215-6.693,1.918c-4.438,4.248-10.555,6.695-16.956,6.695
	c-6.402,0-12.507-2.447-16.945-6.695c-1.443-1.422-3.402-2.197-5.429-2.152c-0.445,0-0.888,0.061-1.322,0.15
	c-2.33-3.596-4.003-12.23-4.003-12.23l0.001,0.004C7.001,52.537,7.186,22.762,7.186,22.762c0-2.426,1.088-4.609,2.844-6.145
	c1.912,3.623,5.686,6.145,10.04,6.145c6.252,0,11.386-5.135,11.386-11.387S26.321,0,20.069,0v0.004
	c-5.398,0-9.947,3.814-11.094,8.881C3.712,11.438,0,16.643,0,22.764v38.652c0,6.863,2.156,13.215,5.828,18.512
	c-1.063,2.842-0.305,6.045,1.919,8.112c4.741,4.537,10.542,7.732,16.816,9.432v13.563c-0.055,3.682,1.952,5.992,4.493,6.996v35.049
	c0,9.076,7.399,16.477,16.476,16.477s16.478-7.4,16.478-16.477v-10.486v-7.488c0-5.861,4.624-10.484,10.484-10.484
	s10.485,4.623,10.485,10.484v7.488v10.486c0,9.076,7.401,16.477,16.477,16.477c9.074,0,16.475-7.4,16.475-16.477v-20.631
	c0.65,0.125,1.291,0.258,1.932,0.258c2.291,0,4.582-0.805,7.734-2.117c3.154-1.314,6.922-3.215,10.988-5.664
	c12.537-5.904,23.719-19.461,24.189-20.039c8.508-9.822,15.047-22.118,15.047-36.252C175.822,50.813,161.238,36.311,143.349,36.311z
	 M54.462,14.293l-0.083,0.113c-0.968,1.395-2.498,2.363-4.353,2.363c-3.015,0-5.395-2.381-5.395-5.395s2.38-5.383,5.395-5.383v0.004
	c3.014,0,5.395,2.367,5.395,5.381C55.421,12.484,55.018,13.441,54.462,14.293z M20.068,5.994l0.001,0.002
	c3.014,0,5.395,2.367,5.395,5.381c0,3.016-2.381,5.395-5.395,5.395c-1.855,0-3.386-0.967-4.354-2.363l-0.06-0.07
	c-0.573-0.859-0.983-1.836-0.983-2.963C14.673,8.363,17.054,5.994,20.068,5.994z M109.941,153.079
	c0,5.859-4.625,10.484-10.484,10.484c-5.861,0-10.486-4.625-10.486-10.484v-10.486v-7.49c0-8.855-7.059-16.07-15.833-16.416
	c-0.212-0.045-0.428-0.063-0.644-0.061c-0.229-0.002-0.456,0.021-0.679,0.072c-8.756,0.365-15.798,7.563-15.798,16.404v7.49v10.486
	c0,5.859-4.624,10.484-10.485,10.484c-5.86,0-10.484-4.625-10.484-10.484V118.03c2.54-1.004,4.545-3.314,4.494-6.998V98.606
	c8.552-0.961,16.598-4.613,22.818-10.566c0.481-0.463,0.87-0.992,1.205-1.547c4.631,11.545,13.093,21.285,21.965,28.717
	c6.571,5.506,13.362,9.805,19.073,12.768c2,1.035,3.648,1.695,5.338,2.398V153.079z M133.498,119.797
	c-3.836,2.311-7.385,4.08-10.205,5.254c-2.82,1.176-5.17,1.662-5.43,1.662c-0.107,0-1.211-0.33-1.932-0.504v-13.854
	c4.139-0.523,8.137-2.121,11.574-4.74c0,0,3.368-2.172,3.266-3.791c-0.104-1.621-0.973-3.135-2.615-3.334
	c-0.93-0.113-1.859,0.215-2.512,0.889c-6.297,6.299-16.184,7.047-23.357,1.768c-7.17-5.281-9.396-14.947-5.254-22.833
	c4.145-7.883,13.361-11.535,21.777-8.623c2.615,0.904,4.895,2.354,6.752,4.189c1.176,1.168,3.076,1.16,4.242-0.014
	c1.168-1.176,1.162-3.076-0.014-4.242c-0.006-0.006-0.01-0.01-0.016-0.016c-2.479-2.449-5.525-4.381-8.998-5.582
	c-2.793-0.967-5.666-1.391-8.484-1.311c-8.451,0.24-16.447,4.963-20.572,12.813c-5.5,10.467-2.512,23.428,7.01,30.438
	c3.393,2.498,7.26,3.93,11.211,4.424v11.432c-0.904-0.418-1.592-0.643-2.586-1.156c-5.326-2.766-11.785-6.857-17.975-12.043
	C77,100.252,65.906,85.678,65.906,68.637c0-14.563,11.808-26.324,26.47-26.33c9.451,0,18.176,5.023,22.9,13.154
	c1.158,1.977,4.016,1.977,5.172,0c4.727-8.135,13.449-13.154,22.9-13.154c14.668,0,26.482,11.764,26.482,26.33
	c0,10.996-2.549,17.911-11.189,29.405C150.001,109.538,133.498,119.797,133.498,119.797z" class="color c1"/>
</svg>