<svg version="1.1" id="图层_1" x="0px" y="0px" width="57.329px" height="70.305px" viewBox="0 0 57.329 70.305" enable-background="new 0 0 57.329 70.305" xml:space="preserve" xmlns="http://www.w3.org/2000/svg" xmlns:xlink="http://www.w3.org/1999/xlink" xmlns:xml="http://www.w3.org/XML/1998/namespace">
  <path fill="#222649" d="M55.295,6.246C53.454,2.219,50.237,0,46.241,0c-4.086,0-7.176,1.029-9.898,1.939
	c-2.539,0.846-4.73,1.576-7.678,1.576c-2.943,0-5.137-0.73-7.676-1.576C18.262,1.031,15.176,0,11.09,0
	C7.094,0,3.877,2.219,2.035,6.246C0.685,9.199,0,13.265,0,18.324c0,8.865,2.113,20.938,5.652,32.291
	c6.139,19.689,10.734,19.689,12.466,19.689c4.688,0,4.688-5.173,4.688-11.72c0-9.637,0.451-19.918,5.857-19.918
	s5.857,10.281,5.857,19.918c0,6.547,0,11.72,4.688,11.72c1.73,0,6.328,0,12.467-19.689c3.539-11.355,5.652-23.426,5.652-32.291
	C57.331,13.265,56.647,9.199,55.295,6.246z" class="color c1"/>
  <path fill="#FFFFFF" d="M23.008,17.812H18.93v-4.078c0-1.252-0.848-2.271-1.896-2.271c-1.045,0-1.894,1.019-1.894,2.271v4.078
	h-4.078c-1.254,0-2.27,0.848-2.27,1.895c0,1.045,1.016,1.896,2.27,1.896h4.078v4.078c0,1.252,0.849,2.268,1.894,2.268
	c1.046,0,1.896-1.016,1.896-2.268v-4.078h4.078c1.254,0,2.27-0.851,2.27-1.896C25.278,18.658,24.262,17.812,23.008,17.812z" class="color c2"/>
</svg>