<svg version="1.1" id="图层_1" x="0px" y="0px" width="193.21px" height="166.77px" viewBox="0 0 193.21 166.77" enable-background="new 0 0 193.21 166.77" xml:space="preserve" xmlns="http://www.w3.org/2000/svg" xmlns:xlink="http://www.w3.org/1999/xlink" xmlns:xml="http://www.w3.org/XML/1998/namespace">
  <path fill="#2B2257" d="M193.21,53.078c0-51.522-66.818-72.855-96.605-30.592C66.82-19.777,0,1.556,0,53.078
	c0,16.905,8.855,36.227,26.566,57.157c-3.621,4.83-5.635,10.466-5.635,16.103c0,14.893,12.076,26.968,26.969,26.968
	c14.895,0,26.969-12.075,26.969-26.968c0-14.895-12.074-26.97-26.969-26.97c-5.635,0-11.27,1.609-15.697,5.232
	C16.102,85.281,8.051,67.972,8.051,53.078c0-46.692,63.197-62.392,84.932-20.932c1.209,2.817,5.636,2.817,7.246,0
	c21.735-41.46,84.933-25.762,84.933,20.932c0,10.867-4.429,23.347-12.879,36.63c-5.234-1.61-10.064,0.805-12.882,4.83
	c-16.103,0.805-41.461,16.102-50.315,24.554c-10.063,10.063-5.232,19.321-1.207,24.957c-0.808,1.609-1.207,3.22,0,4.83
	s4.024,2.012,5.635,0.805l4.83-3.623c1.609-1.207,2.014-4.023,0.805-5.635c-1.207-1.61-3.219-1.61-4.83-1.208
	c-4.023-5.635-4.023-9.66,0.402-14.088c7.246-7.245,28.58-20.127,42.668-22.139c0.805,5.232,4.83,9.258,10.063,10.063
	c-2.012,13.686-14.893,35.421-22.139,42.265c-4.025,4.024-7.646,4.429-12.479,1.609c0.403-1.208,0-2.415-0.806-3.623
	c-1.207-1.609-4.024-2.012-5.635-0.805l-4.83,3.623c-1.61,1.208-2.015,4.024-0.806,5.635c1.207,1.61,4.025,2.014,5.636,0.806l0,0
	c8.854,6.038,16.905,5.636,24.151-1.609c8.453-8.453,23.748-33.409,24.554-49.913c5.231-3.22,7.246-10.868,3.221-16.906
	C188.38,80.047,193.21,65.959,193.21,53.078z M66.82,126.74c0,10.467-8.453,18.919-18.92,18.919
	c-10.465,0-18.918-8.452-18.918-18.919c0-10.063,8.051-18.919,18.918-18.919C58.367,107.821,66.82,116.274,66.82,126.74z
	 M47.9,139.621c7.246,0,12.881-5.637,12.881-12.882s-5.635-12.881-12.881-12.881c-7.244,0-12.881,6.037-12.881,12.881
	C35.02,133.985,41.059,139.621,47.9,139.621z M47.9,121.508c2.818,0,4.83,2.012,4.83,4.83c0,2.815-2.012,4.83-4.83,4.83
	c-2.816,0-4.83-2.415-4.83-4.83S45.084,121.508,47.9,121.508z" class="color c1"/>
</svg>