<svg version="1.1" id="图层_1" x="0px" y="0px" width="114.297px" height="131.998px" viewBox="0 0 114.297 131.998" enable-background="new 0 0 114.297 131.998" xml:space="preserve" xmlns="http://www.w3.org/2000/svg" xmlns:xlink="http://www.w3.org/1999/xlink" xmlns:xml="http://www.w3.org/XML/1998/namespace">
  <path fill="#FFFFFF" d="M82.55,131.998c-5.809,0-9.207-8.534-13.91-20.345c-3.107-7.804-8.309-20.865-12.012-20.865
	c-3.704,0-8.902,13.06-12.009,20.863c-4.702,11.812-8.1,20.347-13.91,20.347c-10.091,0-16.069-14.276-16.344-24.144
	c-0.227-8.202-0.912-32.96-7.415-45.324C-0.655,48.088-4.656,25.399,9.104,8.989C14.101,3.024,21.12,0,29.966,0
	c6.56,0,13.115,1.61,18.383,2.904c3.319,0.815,6.454,1.585,8.278,1.585c1.81,0,4.88-0.72,8.437-1.554
	C70.642,1.628,77.583,0,84.507,0c9.26,0,16.49,3.024,21.488,8.99c16.24,19.371,4.345,45.878,0.313,53.541
	c-6.502,12.358-7.188,37.111-7.413,45.246C98.619,117.722,92.641,131.998,82.55,131.998z M29.966,6
	C22.88,6,17.56,8.238,13.702,12.843C1.853,26.976,5.52,46.937,12.26,59.735c7.153,13.599,7.867,39.405,8.102,47.885
	c0.206,7.402,4.598,18.268,10.262,18.376c2.18-0.887,6.083-10.69,8.421-16.564c5.045-12.674,9.811-24.645,17.583-24.645
	c7.772,0,12.539,11.971,17.586,24.646c2.339,5.874,6.242,15.676,8.421,16.563c5.665-0.108,10.057-10.974,10.26-18.31
	c0.237-8.556,0.951-34.358,8.103-47.95c3.593-6.827,14.239-30.384,0.399-46.893C97.538,8.238,92.013,6,84.507,6
	c-6.229,0-12.796,1.54-18.073,2.777c-4.08,0.957-7.302,1.712-9.806,1.712c-2.551,0-5.868-0.815-9.71-1.759
	C41.964,7.514,35.8,6,29.966,6z" class="color c1"/>
</svg>