<svg version="1.1" id="图层_2" x="0px" y="0px" width="230.026px" height="86.987px" viewBox="0 0 230.026 86.987" enable-background="new 0 0 230.026 86.987" xml:space="preserve" xmlns="http://www.w3.org/2000/svg" xmlns:xlink="http://www.w3.org/1999/xlink" xmlns:xml="http://www.w3.org/XML/1998/namespace">
  <path fill="#21A3B0" d="M228.068,15.546c-7.047,15.939-15.724,30.877-27.673,43.723c-6.207,6.674-13.832,11.334-22.008,15.129
	C165.89,80.2,152.916,84.69,139.25,86.58c-5.421,0.749-11.07,0.316-16.575-0.109c-10.931-0.844-21.832-2.291-32.243-5.843
	c-6.682-2.28-13.06-5.448-19.587-8.185c-10.844-4.548-21.95-8.188-33.68-9.659c-12.08-1.515-23.916-0.668-35.414,3.573
	C1.276,66.532,0.784,66.661,0,66.906c0.257-1.043,0.427-1.887,0.673-2.709c4.696-15.713,11.889-30.062,23.408-41.939
	C36.859,9.083,52.441,2.43,70.871,2.991c9.226,0.281,17.866,3.076,26.069,7.167c4.029,2.009,7.872,4.387,11.831,6.54
	c11.367,6.18,22.734,12.36,34.133,18.48c5.108,2.742,10.661,3.655,16.412,3.786c7.023,0.16,14.062,0.255,21.054,0.842
	c3.196,0.268,6.359,1.482,9.416,2.597c1.444,0.527,2.755,1.683,3.866,2.811c2.932,2.977,2.912,5.812-0.016,8.779
	c-4.256,4.313-9.757,6.165-15.481,7.355c-11.237,2.336-22.578,2.198-33.863,0.57c-8.532-1.231-16.962-3.154-25.479-4.511
	c-5.991-0.954-11.956-0.281-17.793,1.381c-0.161,0.046-0.316,0.115-0.47,0.188c4.846,0.348,9.744,0.389,14.516,1.183
	c7.296,1.216,14.516,2.915,21.736,4.554c16.654,3.781,33.125,3.49,49.334-2.17c2.832-0.989,5.652-2.266,8.151-3.907
	c6.953-4.567,6.539-13.569-0.655-17.743c-0.162-0.094-0.312-0.208-0.584-0.39c0.176-0.271,0.311-0.543,0.504-0.765
	c5.444-6.269,9.835-13.202,13.392-20.706c1.984-4.185,4.148-8.301,6.504-12.287c2.247-3.801,5.779-6.009,10.165-6.658
	c3.457-0.512,5.754,1.262,6.25,4.717C230.403,8.564,229.552,12.19,228.068,15.546z M174.457,34.321
	c0.527-0.665,0.694-1.615,1.026-2.435c-0.9-0.023-1.921-0.335-2.679-0.018c-2.577,1.077-5.062,2.377-8.184,3.883
	c1.107,0.493,1.899,1.128,2.711,1.155C170.015,36.998,172.644,36.609,174.457,34.321z M184.653,35.006
	c4.533-2.224,7.242-6.275,9.688-10.46c1.941-3.32,3.729-6.738,5.409-10.198c0.498-1.026,0.403-2.34,0.579-3.523
	c-0.319-0.072-0.638-0.144-0.957-0.215c-0.648,1.073-1.288,2.152-1.947,3.219c-2.021,3.275-3.851,6.692-6.123,9.784
	c-3.174,4.32-6.981,8.06-11.736,10.714c-0.401,0.223-0.657,0.706-0.981,1.068c0.448,0.29,0.948,0.885,1.334,0.818
	C181.523,35.935,183.217,35.71,184.653,35.006z M189.492,35.27c-0.677,0.851-1.103,1.902-1.643,2.861
	c0.16,0.153,0.321,0.305,0.483,0.457c0.793-0.457,1.708-0.784,2.353-1.396c1.446-1.37,2.886-2.782,4.102-4.353
	c4.996-6.454,8.768-13.629,12.254-20.98c1.204-2.539,2.803-4.889,4.17-7.354c0.409-0.737,0.64-1.573,0.953-2.364
	c-0.267-0.165-0.533-0.331-0.799-0.497c-1.186,1.285-2.666,2.403-3.503,3.884c-2.465,4.364-4.607,8.909-7.008,13.311
	c-1.779,3.261-3.611,6.515-5.707,9.575C193.481,30.848,191.337,32.951,189.492,35.27z" class="color c1"/>
</svg>