<svg version="1.1" id="图层_1" x="0px" y="0px" width="140.322px" height="140.323px" viewBox="0 0 140.322 140.323" enable-background="new 0 0 140.322 140.323" xml:space="preserve" xmlns="http://www.w3.org/2000/svg" xmlns:xlink="http://www.w3.org/1999/xlink" xmlns:xml="http://www.w3.org/XML/1998/namespace">
  <path fill="#ED1B24" d="M122.431,46.29h-28.4v-28.4C94.03,8.007,86.023,0,76.142,0H65.808h-1.629c-9.88,0-17.891,8.007-17.891,17.89
	v28.4H17.886c-9.873,0-17.887,8.01-17.887,17.888v11.964c0,9.881,8.014,17.887,17.887,17.887h28.402v28.404
	c0,9.879,8.012,17.891,17.892,17.891h1.63h10.332c9.882,0,17.889-8.012,17.889-17.891V94.028h28.4
	c9.883,0,17.893-8.006,17.893-17.887V64.178C140.321,54.3,132.313,46.29,122.431,46.29z" class="color c1"/>
  <path fill="#FFFFFF" d="M80.835,51.061c-0.457-0.046-0.876-0.067-1.291-0.067c-3.371,0-6.771,1.253-9.385,3.375
	c-2.609-2.122-6.012-3.375-9.379-3.375c-0.418,0-0.832,0.021-1.293,0.067c-4.766,0.51-8.169,2.186-10.404,5.121
	c-2.217,2.908-2.953,6.739-2.197,11.384c1.078,6.572,8.924,13.953,15.244,19.898c0,0,3.153,3.168,4.1,3.977
	c0.716,0.613,2.258,1.842,3.934,1.842c1.671,0,3.219-1.229,3.928-1.842c0.947-0.809,4.101-3.977,4.101-3.977
	c6.321-5.945,14.167-13.328,15.245-19.898c0.756-4.646,0.018-8.476-2.199-11.384C89,53.246,85.601,51.57,80.835,51.061z" class="color c2"/>
</svg>