<svg version="1.1" id="图层_1" x="0px" y="0px" width="120.702px" height="182.777px" viewBox="0 0 120.702 182.777" enable-background="new 0 0 120.702 182.777" xml:space="preserve" xmlns="http://www.w3.org/2000/svg" xmlns:xlink="http://www.w3.org/1999/xlink" xmlns:xml="http://www.w3.org/XML/1998/namespace">
  <path fill="#0773BC" d="M120.702,116.32c0-7.621-6.184-13.805-13.801-13.805c-7.627,0-13.811,6.17-13.811,13.805
	c0,6.689,4.77,12.27,11.102,13.531c-1.428,19.584-7.992,47.855-38.223,47.855c-3.303,0-6.719,0.115-10.162,0.221
	c-24.791,0.848-48.229,1.598-51.145-35.139c-0.773-9.582,5.559-13.965,13.561-19.504c8.693-6.006,19.217-13.492,20.865-30.035
	c15.49-1.031,27.82-13.835,27.82-29.59c0-1.481-0.744-2.742-1.826-3.584l5.814-46.526c0.119-0.959-0.385-1.894-1.254-2.336
	L62.2,7.486c0.025-0.178,0.111-0.331,0.111-0.516C62.312,3.122,59.188,0,55.353,0c-3.848,0-6.971,3.122-6.971,6.971
	s3.117,6.959,6.959,6.959c1.998,0,3.768-0.86,5.035-2.213l5.752,2.89l-5.586,44.811c-1.666,0.688-2.828,2.337-2.828,4.242
	c0,11.353-9.246,20.586-20.592,20.586c-11.35,0-20.594-9.233-20.594-20.586c0-1.905-1.156-3.541-2.803-4.242L8.106,14.606
	l5.742-2.878c1.277,1.341,3.041,2.201,5.053,2.201c3.836,0,6.951-3.11,6.951-6.959C25.86,3.122,22.749,0,18.901,0
	c-3.854,0-6.977,3.122-6.977,6.971c0,0.185,0.092,0.344,0.115,0.529l-7.432,3.713c-0.879,0.43-1.375,1.37-1.26,2.336l5.828,46.514
	c-1.094,0.836-1.857,2.103-1.857,3.597c0,15.533,12,28.19,27.189,29.53c-1.52,14.17-10.297,20.377-18.896,26.316
	c-8.113,5.619-16.518,11.42-15.533,23.666c2.803,35.283,23.801,39.605,45.303,39.605c3.535,0,7.094-0.129,10.568-0.229
	c3.404-0.121,6.768-0.227,10.025-0.227c25.521,0,39.771-17.66,42.629-52.342C115.403,129.132,120.702,123.376,120.702,116.32z" class="color c1"/>
</svg>