<svg version="1.1" id="图层_1" x="0px" y="0px" width="160.442px" height="142.442px" viewBox="0 0 160.442 142.442" enable-background="new 0 0 160.442 142.442" xml:space="preserve" xmlns="http://www.w3.org/2000/svg" xmlns:xlink="http://www.w3.org/1999/xlink" xmlns:xml="http://www.w3.org/XML/1998/namespace">
  <path fill-rule="evenodd" clip-rule="evenodd" fill="#21C6B6" d="M80.182,134.176c-7.74-1.643-6.524-8.434-3.048-12.016
	c0.235,0.094,0.479,0.184,0.731,0.27c0.596,0.199,1.154,0.434,1.668,0.697C75.654,126.659,74.784,131.624,80.182,134.176z
	 M79.313,119.78c-4.536-1.826-6.252-6.02-2.69-9.756l-0.141-0.039c-1.094-0.311-2.209-0.766-3.253-1.363
	c-3.102,4.406-2.174,10.961,5.051,13.393c6.771,2.277,8.457,8.924,1.901,12.162C88.948,132.317,87.729,123.167,79.313,119.78z
	 M81.345,106.495c-5.29-1.205-12.513-4.893-6.675-11.619c-0.288-0.045-0.562-0.088-0.818-0.133c-1.324-0.23-2.645-0.646-3.87-1.238
	c-5.345,9.139,0.755,14.387,6.293,15.961c3.911,1.111,16.269,3.037,5.435,10.875c0.889,0.527,1.663,1.127,2.318,1.773
	C92.815,115.67,89.29,108.307,81.345,106.495z M84.369,90.266C78.35,88.397,63.534,89.584,72.8,77.838
	c-2.065-0.279-3.921-0.795-5.544-1.506c-6.889,10.449,0.034,16.777,7.011,17.994c5.753,1.002,20.114,1.73,9.098,12.213
	c1.392,0.49,2.603,1.164,3.576,1.98C96.541,99.852,91.42,92.456,84.369,90.266z M86.146,72.323
	c-2.745-0.436-5.472-0.434-8.852-0.318c-7.448,0.256-13.695-6.248-5.352-13.822c-3.313-0.549-6.569-1.21-8.743-2.381
	c-8.156,12.074-0.07,23.208,16.678,21.73c8.821-0.779,16.746,7.02,6.372,12.859c1.778,0.771,3.357,1.887,4.5,3.275
	C102.094,85.098,94.112,73.586,86.146,72.323z M92.658,74.932c-1.699-1.518-3.751-2.588-5.818-2.977
	c13.73-6.848,3.431-15.008-5.933-14.515c-37.737,1.988-28.431-28.791-14.445-28.6c4.152-1.529,9.378-1.82,11.681,2.655
	c0.436,0.849,0.385,0.821-0.17,1.63c-3.031,4.412-8.212,0.926-10.452,1.119c-9.963,2.897-6.658,12.725,2.409,15.555
	c9.357,2.919,16.344-1.199,25.078,4.874C101.461,59.159,103.204,68.902,92.658,74.932z M71.304,30.065
	c0,0.418,0.339,0.756,0.757,0.756s0.757-0.338,0.757-0.756s-0.339-0.756-0.757-0.756S71.304,29.647,71.304,30.065z M97.154,55.192
	c-0.546-0.479-1.125-0.931-1.729-1.351c-2.733-1.9-5.296-2.803-7.813-3.235c0.95-0.172,1.924-0.403,2.924-0.716
	c9.068-2.829,12.372-12.656,2.409-15.554c-2.239-0.193-7.421,3.293-10.451-1.119c-0.554-0.809-0.605-0.781-0.169-1.631
	c2.301-4.475,7.527-4.184,11.679-2.654C105.134,28.78,113.298,48.238,97.154,55.192z M89.324,30.007
	c0-0.417-0.339-0.756-0.756-0.756c-0.418,0-0.757,0.339-0.757,0.756c0,0.418,0.339,0.757,0.757,0.757
	C88.985,30.764,89.324,30.425,89.324,30.007z M74.676,27.601c1.655,0.873,3.159,2,4.448,3.484c0.547-1.315,0.86-2.842,0.733-4.769
	C78.069,26.06,76.343,26.513,74.676,27.601z M80.172,15.142c-1.495-0.001-2.993,0.313-3.132,0.939l-0.017,3.766
	c1.256,0.488,1.78,3.295,3.149,3.627c1.37-0.332,1.894-3.139,3.148-3.627l-0.016-3.766C83.165,15.454,81.668,15.141,80.172,15.142z
	 M83.881,11.049c-2.379,1.238-4.91,1.238-7.29,0c-0.436-0.106-0.917,0.405-0.619,1.055c1.951,3.466,6.576,3.466,8.528,0
	C84.798,11.454,84.317,10.942,83.881,11.049z M80.145,0c-3.089,0-5.594,2.504-5.594,5.593c0,3.09,2.505,5.594,5.594,5.594
	c3.089,0,5.594-2.504,5.594-5.594C85.739,2.504,83.234,0,80.145,0z M76.534,20.881c-10.132,0.15-7.909-8.354-8.357-13.927
	c-0.268-3.328-1.831-4.652-6.095-4.688C56.407,2.221,42.37,9.872,37.298,13.121c6.098,4.294,14.169,4.408,21.184,2.468
	c-1.393,0.993-5.102,1.504-6.739,1.947c2.185,0.752,4.841,2.222,6.292,3.522c2.196,0.146,4.44-0.733,6.638-1.321
	c-0.936,0.893-3.116,1.316-4.355,1.719c1.93,0.918,4.151,1.879,5.776,3.348c5.692,0.129,5.348,0.662,13.184,0.439
	c1.452-0.041-0.833-2.764-1.511-4C77.479,20.724,77.152,20.872,76.534,20.881z M58.305,22.059
	c-8.501,5.753-16.906,8.348-25.61,10.515c-1.79,0.445-1.322,0.388,0.347,1.004c13.188,4.864,24.685-4.412,31.449-8.109
	C65.605,25.086,59.711,21.341,58.305,22.059z M49.318,17.933c-8.501,5.753-24.746,9.631-34.229,10.423
	c-1.839,0.153-0.53,1.039,1.172,1.554c18.23,5.506,34.038-4.365,40.802-8.063C58.179,21.464,50.725,17.214,49.318,17.933z
	 M35.656,13.989c-9.052,4.378-25.343,6.147-34.688,7.397c-3.176,0.425,2.365,3.44,3.708,3.869
	c15.379,4.911,37.245-4.064,43.722-7.604C39.702,17.452,37.063,13.271,35.656,13.989z M80.584,26.316
	c-0.126,1.927,0.188,3.453,0.734,4.769c1.288-1.484,2.792-2.611,4.447-3.484C84.098,26.513,82.375,26.06,80.584,26.316z
	 M92.265,6.954c-0.449,5.572,1.774,14.077-8.357,13.927c-0.618-0.009-0.944-0.157-1.23,0.362c-0.68,1.236-2.965,3.959-1.511,4
	c7.835,0.223,8.053,0.1,13.184-0.439c1.623-1.469,3.845-2.43,5.775-3.348c-1.24-0.402-3.42-0.826-4.354-1.719
	c2.197,0.588,4.439,1.467,6.637,1.321c1.452-1.301,4.107-2.771,6.291-3.522c-1.637-0.443-5.346-0.954-6.739-1.947
	c7.015,1.94,15.086,1.826,21.184-2.468c-5.071-3.249-19.107-10.9-24.783-10.854C94.097,2.302,92.533,3.626,92.265,6.954z
	 M127.748,32.573c-8.704-2.167-17.109-4.762-25.61-10.515c-1.406-0.718-7.301,3.027-6.186,3.409
	c6.765,3.697,18.262,12.974,31.449,8.109C129.07,32.961,129.538,33.019,127.748,32.573z M145.353,28.355
	c-9.483-0.792-25.729-4.67-34.229-10.423c-1.406-0.719-8.859,3.531-7.744,3.913c6.764,3.698,22.571,13.569,40.802,8.063
	C145.883,29.395,147.192,28.509,145.353,28.355z M159.474,21.387c-9.346-1.25-25.637-3.02-34.688-7.397
	c-1.405-0.719-4.046,3.463-12.741,3.662c6.477,3.54,28.343,12.516,43.722,7.604C157.109,24.827,162.65,21.812,159.474,21.387z
	 M76.995,37.876l0.073,12.313c2.126,0.102,4.184,0.047,6.237,0.116l0.078-12.43c-0.306-2.373-2.188-5.258-3.213-7.764
	C79.434,32.301,77.416,35.334,76.995,37.876z M80.948,58.219c-1.24,0.065-2.524,0.101-3.831,0.093l0.076,12.916l0.074-0.002
	c1.969-0.066,3.943-0.109,5.907,0.004l0.081-12.955c-0.334-0.032-0.666-0.055-0.995-0.066
	C81.823,58.192,81.385,58.196,80.948,58.219z M79.946,78.309c-0.878,0.076-1.785,0.119-2.709,0.123l0.058,9.725
	c0.345,0.063,0.664,0.115,0.942,0.162c1.547,0.258,3.239,0.459,4.827,0.803l0.066-10.709C82.069,78.25,80.991,78.217,79.946,78.309z
	 M77.389,104.317c1.415,0.682,2.939,1.146,4.129,1.418c0.404,0.092,0.811,0.203,1.215,0.33l0.095-0.09l0.13-0.125l0.057-9.02
	c-1.746-0.6-3.854-0.98-5.676-1.26L77.389,104.317z M77.47,117.842c0.599,0.475,1.318,0.885,2.134,1.213
	c0.525,0.213,1.045,0.453,1.549,0.725l0.1-0.072c0.396-0.285,1.003-0.736,1.627-1.281l0.038-6.084
	c-1.667-0.809-3.883-1.371-5.491-1.773L77.47,117.842z M80.083,123.684l-0.023,0.021c-1.181,1.074-2.067,2.279-2.534,3.496
	l0.041,11.979l2.691,3.262l2.523-3.188l0.05-12.957C82.235,125.305,81.291,124.399,80.083,123.684z" class="color c1"/>
</svg>