<svg version="1.1" id="图层_1" x="0px" y="0px" width="188.891px" height="200px" viewBox="0 0 188.891 200" enable-background="new 0 0 188.891 200" xml:space="preserve" xmlns:xml="http://www.w3.org/XML/1998/namespace" xmlns="http://www.w3.org/2000/svg" xmlns:xlink="http://www.w3.org/1999/xlink">
  <path fill="#DD2230" d="M39.782,48.381c-1.368-13.372,3.439-22.87,8.394-27.299c3.377-3.019,8.124-4.549,14.108-4.55
	c11.326,0,24.175,5.494,29.173,7.856l3.695,1.746l-2.471-3.255c-0.044-0.059-0.094-0.114-0.145-0.168
	C85.553,12.327,73.923,6.113,61.437,6.113c-20.642,0-37.435,16.799-37.435,37.447c0,19.414,10.725,37.111,31.877,52.601
	c16.26,11.906,33.557,18.59,38.471,20.355l0.84-1.807C50.217,88.626,41.171,61.957,39.782,48.381z M48.901,19.234 M64.121,15.583
	c-0.514-0.024-1.026-0.039-1.536-0.043C63.095,15.544,63.607,15.559,64.121,15.583z M50.892,18.007
	c0.461-0.243,0.931-0.468,1.412-0.671C51.823,17.539,51.353,17.764,50.892,18.007z M54.61,16.53c0.428-0.123,0.86-0.234,1.299-0.333
	C55.47,16.296,55.038,16.408,54.61,16.53z M56.446,16.082c0.487-0.098,0.979-0.181,1.478-0.251
	C57.426,15.901,56.933,15.984,56.446,16.082z M58.247,15.781c0.605-0.078,1.219-0.135,1.837-0.175
	C59.466,15.646,58.853,15.703,58.247,15.781z M60.569,15.583c0.468-0.023,0.938-0.038,1.412-0.042
	C61.508,15.545,61.037,15.56,60.569,15.583z M90.896,23.025c0.349,0.16,0.683,0.314,0.988,0.459
	C91.579,23.34,91.244,23.185,90.896,23.025z M64.534,15.601c0.642,0.037,1.285,0.09,1.93,0.155
	C65.82,15.69,65.176,15.638,64.534,15.601z M66.981,15.815c0.49,0.055,0.979,0.117,1.47,0.187
	C67.961,15.932,67.47,15.87,66.981,15.815z M69.077,16.094c0.519,0.08,1.037,0.167,1.554,0.262
	C70.114,16.262,69.596,16.174,69.077,16.094z M71.031,16.427c0.636,0.121,1.269,0.253,1.898,0.393
	C72.301,16.68,71.667,16.548,71.031,16.427z M73.489,16.949c0.464,0.107,0.925,0.218,1.384,0.333
	C74.414,17.167,73.952,17.056,73.489,16.949z M75.492,17.441c0.506,0.132,1.007,0.269,1.503,0.409
	C76.499,17.709,75.998,17.573,75.492,17.441z M77.351,17.949c0.601,0.173,1.192,0.352,1.777,0.535
	C78.544,18.301,77.952,18.122,77.351,17.949z M79.672,18.657c0.423,0.135,0.84,0.271,1.252,0.41
	C80.512,18.929,80.094,18.792,79.672,18.657z M81.49,19.258c0.479,0.164,0.948,0.329,1.41,0.496
	C82.439,19.587,81.968,19.422,81.49,19.258z M83.153,19.844c0.538,0.196,1.06,0.392,1.571,0.587
	C84.213,20.235,83.691,20.04,83.153,19.844z M85.193,20.613c0.371,0.144,0.733,0.287,1.087,0.429
	C85.926,20.9,85.563,20.757,85.193,20.613z M86.732,21.224c0.429,0.175,0.847,0.348,1.249,0.518
	C87.579,21.572,87.161,21.399,86.732,21.224z M88.11,21.795c0.442,0.188,0.861,0.369,1.266,0.547
	C88.97,22.164,88.551,21.982,88.11,21.795z M89.735,22.501c0.294,0.131,0.577,0.257,0.849,0.381
	C90.313,22.759,90.029,22.632,89.735,22.501z" class="color c1"/>
  <path fill="#FF94A6" d="M127.91,6.115c-12.52,0-24.152,6.212-31.118,16.618c-0.26,0.387-0.649,0.701-1.126,0.905l-0.392,0.168
	l-0.15,0.399l-0.032,0.086l-0.934,2.492l2.344-1.26c0.171-0.092,17.312-9.211,31.916-9.212c5.984,0,10.729,1.531,14.104,4.549
	c4.926,4.403,9.72,13.842,8.407,27.131c-1.327,13.42-10.126,39.806-54.152,65.749l0.869,1.794
	c15.888-6.155,67.726-29.536,67.726-71.971C165.362,22.915,148.556,6.115,127.91,6.115z M127.987,15.32
	c-0.167,0.002-0.334,0.005-0.502,0.009C127.653,15.326,127.82,15.322,127.987,15.32z M126.068,15.39
	c-0.119,0.007-0.238,0.011-0.357,0.02C125.829,15.401,125.948,15.397,126.068,15.39z M123.96,15.565
	c-0.143,0.015-0.285,0.034-0.428,0.05C123.675,15.599,123.818,15.58,123.96,15.565z M122.156,15.794
	c-0.172,0.025-0.345,0.05-0.517,0.076C121.811,15.844,121.984,15.82,122.156,15.794z M120.066,16.135
	c-0.062,0.012-0.125,0.021-0.187,0.033C119.942,16.156,120.004,16.146,120.066,16.135z M118.146,16.518
	c-0.168,0.037-0.335,0.075-0.503,0.112C117.811,16.593,117.978,16.555,118.146,16.518z M116.349,16.933
	c-0.162,0.04-0.324,0.079-0.485,0.119C116.025,17.011,116.187,16.972,116.349,16.933z M114.199,17.489
	c-0.088,0.024-0.175,0.05-0.263,0.075C114.025,17.539,114.112,17.513,114.199,17.489z M112.533,17.97
	c-0.172,0.051-0.343,0.104-0.514,0.156C112.191,18.074,112.362,18.021,112.533,17.97z M110.802,18.508
	c-0.136,0.044-0.272,0.087-0.407,0.131C110.53,18.595,110.666,18.552,110.802,18.508z M108.878,19.15
	c-0.133,0.046-0.262,0.093-0.394,0.139C108.616,19.243,108.745,19.196,108.878,19.15z M107.361,19.692
	c-0.157,0.058-0.314,0.115-0.469,0.172C107.047,19.807,107.202,19.75,107.361,19.692z M105.731,20.304
	c-0.083,0.032-0.168,0.063-0.25,0.096C105.563,20.368,105.648,20.336,105.731,20.304z M104.167,20.921
	c-0.132,0.053-0.26,0.106-0.39,0.159C103.907,21.027,104.034,20.975,104.167,20.921z M102.869,21.456
	c-0.126,0.053-0.254,0.107-0.378,0.16C102.615,21.563,102.742,21.51,102.869,21.456z M101.373,22.097
	c-0.05,0.021-0.095,0.042-0.145,0.064C101.279,22.139,101.323,22.119,101.373,22.097z M100.316,22.568
	c-0.111,0.05-0.219,0.099-0.326,0.148C100.098,22.667,100.204,22.619,100.316,22.568z M99.312,23.029
	c-0.085,0.04-0.175,0.081-0.258,0.12C99.137,23.109,99.226,23.069,99.312,23.029z M98.264,23.523
	c-0.06,0.029-0.113,0.055-0.171,0.083C98.152,23.578,98.203,23.552,98.264,23.523z M97.553,23.869
	c-0.066,0.033-0.133,0.065-0.195,0.097C97.421,23.934,97.485,23.902,97.553,23.869z M96.932,24.178
	c-0.035,0.018-0.077,0.039-0.11,0.055C96.856,24.216,96.896,24.196,96.932,24.178z M96.427,24.435
	c-0.036,0.019-0.064,0.033-0.095,0.049C96.365,24.467,96.389,24.455,96.427,24.435z M96.15,24.579
	c-0.017,0.008-0.037,0.019-0.05,0.026C96.116,24.597,96.126,24.591,96.15,24.579z M141.708,18.941
	c0.511,0.361,1.007,0.75,1.481,1.174C142.715,19.691,142.219,19.302,141.708,18.941z M128.978,15.329
	c0.375,0.006,0.749,0.016,1.12,0.034C129.727,15.344,129.353,15.334,128.978,15.329z M130.982,15.42
	c0.365,0.028,0.728,0.063,1.089,0.104C131.71,15.483,131.347,15.449,130.982,15.42z M132.939,15.638
	c0.356,0.052,0.71,0.114,1.061,0.18C133.649,15.751,133.295,15.69,132.939,15.638z M134.841,15.99
	c0.349,0.079,0.692,0.17,1.035,0.265C135.533,16.16,135.19,16.069,134.841,15.99z M136.679,16.486
	c0.344,0.109,0.68,0.235,1.015,0.362C137.359,16.722,137.023,16.596,136.679,16.486z M138.443,17.137
	c0.344,0.146,0.677,0.314,1.011,0.48C139.119,17.451,138.786,17.284,138.443,17.137z M140.122,17.952
	c0.362,0.201,0.711,0.427,1.059,0.654C140.833,18.379,140.485,18.153,140.122,17.952z" class="color c2"/>
  <path fill="#0C0C0C" d="M162.415,167.204c-3.225,0-5.836,2.613-5.836,5.83c0,3.219,2.611,5.83,5.836,5.83
	c3.219,0,5.836-2.611,5.836-5.83C168.251,169.817,165.634,167.204,162.415,167.204z M181.122,154.323
	c-4.994-4.998-11.64-7.75-18.71-7.75c-5.875,0-11.443,1.926-16.03,5.439c-9.396-9.139-25.115-22.943-42.71-32.264
	c19.459-7.99,67.808-32.266,67.808-76.19C171.477,19.541,151.929,0,127.911,0c-12.913,0-25.021,5.684-33.243,15.413
	C86.423,5.684,74.321,0,61.438,0c-24.01,0-43.544,19.541-43.544,43.559c0,43.81,48.108,68.078,67.669,76.131
	c-16.398,8.227-27.404,17.43-35.438,25.198c-4.975-3.89-11.047-6.017-17.459-6.017c-7.602,0-14.75,2.961-20.119,8.336L1.04,158.713
	C0.375,159.381,0,160.286,0,161.229c0,0.941,0.375,1.848,1.04,2.516l7.051,7.047c1.39,1.385,3.642,1.385,5.029-0.004
	c1.386-1.387,1.386-3.641-0.002-5.026l-4.535-4.529l8.995-8.989c4.028-4.031,9.391-6.255,15.09-6.255
	c5.7,0,11.061,2.224,15.096,6.259c4.033,4.03,6.257,9.387,6.257,15.09c0,5.701-2.224,11.063-6.257,15.102l-8.987,8.982l-4.526-4.527
	c-1.391-1.387-3.639-1.387-5.026,0c-1.39,1.387-1.39,3.639,0,5.029l7.041,7.041c0.665,0.668,1.568,1.039,2.515,1.039
	c0.94,0,1.848-0.371,2.517-1.039l11.5-11.5c5.378-5.377,8.341-12.525,8.341-20.127c0-6.389-2.118-12.441-5.978-17.406
	c8.566-8.273,20.688-18.23,39.526-26.682c19.483,8.885,37.771,25.153,46.688,33.803c-3.495,4.582-5.41,10.135-5.408,15.998
	c0.003,7.063,2.756,13.707,7.752,18.695c4.994,5.002,11.641,7.758,18.712,7.758c7.066,0,13.713-2.756,18.706-7.752
	c5-4.992,7.755-11.635,7.758-18.701C188.882,165.972,186.127,159.317,181.122,154.323z M25.002,43.561
	c0-20.098,16.344-36.447,36.435-36.447c12.152,0,23.474,6.048,30.282,16.18c0.049,0.07,0.114,0.124,0.165,0.191
	c0.672,0.855,1.688,1.381,2.786,1.381h0.004c0.488,0,0.952-0.123,1.388-0.309c0.623-0.268,1.175-0.689,1.563-1.268
	c6.78-10.128,18.102-16.174,30.287-16.174c20.095,0,36.451,16.352,36.462,36.449c0,42.124-52.532,65.399-67.087,71.038
	c-1.09,0.421-1.974,0.748-2.599,0.973C85.688,112.344,25.002,88.89,25.002,43.561z M176.092,186.717
	c-3.652,3.654-8.51,5.671-13.677,5.671c-5.171,0-10.025-2.017-13.684-5.677c-3.654-3.647-5.669-8.506-5.671-13.672
	c-0.003-5.174,2.015-10.031,5.676-13.692c3.65-3.652,8.51-5.668,13.679-5.668s10.023,2.016,13.68,5.672
	c3.659,3.657,5.677,8.519,5.675,13.688C181.767,178.206,179.751,183.063,176.092,186.717z" class="color c3"/>
  <path fill="#FF4449" d="M143.19,20.115c-14.55-13.008-47.161,4.527-47.161,4.527l0.032-0.086c-0.436,0.186-0.898,0.309-1.388,0.309
	H94.67c-1.098,0-2.114-0.525-2.786-1.381c-8.181-3.866-32.392-13.859-44.375-3.148c-14.55,13.008-18.961,56.879,47.179,95.239
	c0.625-0.225,1.509-0.552,2.599-0.973C162.081,76.422,157.646,33.038,143.19,20.115z" class="color c4"/>
</svg>