<svg version="1.1" id="图层_1" x="0px" y="0px" width="208px" height="185.672px" viewBox="0 0 208 185.672" enable-background="new 0 0 208 185.672" xml:space="preserve" xmlns="http://www.w3.org/2000/svg" xmlns:xlink="http://www.w3.org/1999/xlink" xmlns:xml="http://www.w3.org/XML/1998/namespace">
  <path fill="#FFFFFF" d="M181.065,10.176c0.043-0.355,0.07-0.715,0.07-1.083c0-5.022-4.07-9.094-9.094-9.094
	c-5.021,0-9.092,4.071-9.092,9.094s4.07,9.093,9.092,9.093c1.705,0,3.295-0.478,4.658-1.293C191.235,27.897,200,45.184,200,63.629
	c0,13.527-4.41,27.55-13.107,41.678c-0.141,0.229-0.289,0.458-0.432,0.687h-38.143l-7.313-19.502
	c-0.372-0.992-1.34-1.616-2.392-1.603c-1.059,0.034-1.979,0.737-2.287,1.75l-6.587,21.644l-8.167-34.031
	c-0.258-1.071-1.193-1.843-2.293-1.893c-1.1-0.057-2.102,0.636-2.453,1.681l-11.003,32.677L97.43,87.302
	c-0.392-0.906-1.284-1.491-2.268-1.491c-0.012,0-0.024,0-0.036,0c-0.999,0.015-1.891,0.629-2.26,1.557l-10.774,27.041L73.96,78.633
	c-0.24-1.058-1.143-1.835-2.225-1.916c-1.085-0.087-2.09,0.553-2.486,1.563l-10.861,27.714H21.538
	c-0.143-0.229-0.292-0.458-0.432-0.687C12.41,91.181,8,77.158,8,63.629c0-18.445,8.766-35.732,23.3-46.736
	c1.363,0.816,2.952,1.293,4.657,1.293c5.021,0,9.092-4.07,9.092-9.093S40.979,0,35.957,0c-5.022,0-9.093,4.071-9.093,9.094
	c0,0.367,0.028,0.727,0.07,1.083C10.147,22.662,0,42.471,0,63.629C0,78.661,4.809,94.095,14.293,109.5
	c7.277,11.822,17.368,23.723,29.992,35.373c22.1,20.395,45.468,34.139,52.607,37.713l5.316,2.662
	c0.563,0.283,1.177,0.424,1.791,0.424s1.228-0.141,1.791-0.424l5.315-2.662c7.141-3.574,30.508-17.32,52.607-37.713
	c12.623-11.65,22.715-23.55,29.992-35.373C203.19,94.093,208,78.659,208,63.629C208,42.471,197.852,22.662,181.065,10.176z
	 M158.288,138.994c-21.416,19.764-43.905,33.006-50.764,36.439L104,177.199l-3.525-1.766c-6.857-3.434-29.346-16.676-50.763-36.439
	c-10.066-9.289-18.417-18.702-24.912-28.059h35.275c1.017,0,1.93-0.623,2.301-1.569l8.545-21.806l8.113,35.697
	c0.24,1.055,1.139,1.832,2.218,1.916c0.064,0.004,0.129,0.006,0.193,0.006c1.005,0,1.918-0.611,2.295-1.557l11.515-28.897
	l8.587,19.863c0.406,0.939,1.348,1.535,2.371,1.488c1.022-0.042,1.913-0.711,2.24-1.68l10.317-30.642l8.284,34.519
	c0.261,1.084,1.215,1.86,2.329,1.894c1.107,0.021,2.113-0.685,2.438-1.751l7.112-23.371l5.357,14.286
	c0.362,0.965,1.284,1.604,2.314,1.604H183.2C176.704,120.293,168.354,129.705,158.288,138.994z" class="color c1"/>
</svg>