<svg version="1.1" id="图层_1" x="0px" y="0px" width="204.007px" height="164.117px" viewBox="0 0 204.007 164.117" enable-background="new 0 0 204.007 164.117" xml:space="preserve" xmlns:xml="http://www.w3.org/XML/1998/namespace" xmlns="http://www.w3.org/2000/svg" xmlns:xlink="http://www.w3.org/1999/xlink">
  <path fill="none" d="M30.885,349.78c0,0,6.723,0.152,9.648,0.492"/>
  <path fill="none" d="M228.363,438.4c0.072,0.021,0.148,0.045,0.223,0.068c-0.112-0.043-0.229-0.086-0.338-0.133
	C228.287,438.359,228.322,438.38,228.363,438.4z"/>
  <path fill="none" d="M187.826,432.925c0.215,0.082,0.438,0.146,0.656,0.217c-0.309-0.102-0.609-0.209-0.904-0.334
	C187.662,432.845,187.738,432.888,187.826,432.925z"/>
  <path fill="none" d="M335.754,422.037c0.059,0,0.114-0.01,0.176-0.012c-0.092,0.002-0.187,0.006-0.275,0.004
	C335.688,422.029,335.719,422.037,335.754,422.037z"/>
  <path fill="none" d="M305.414,429.605c0.178,0,0.354-0.021,0.529-0.033c-0.248,0.016-0.492,0.021-0.738,0.02
	C305.275,429.593,305.344,429.605,305.414,429.605z"/>
  <path fill="none" d="M108.273,15.889c-0.41-0.164-0.828-0.303-1.246-0.451c0.432,0.154,0.867,0.3,1.289,0.469
	C108.303,15.901,108.287,15.895,108.273,15.889z"/>
  <path fill="#1C90AF" d="M201.541,50.113c-2.692-10.781-9.101-19.492-17.99-24.5c-0.771-0.441-1.598-0.871-2.539-1.318
	c-4.916-2.328-10.2-3.51-15.754-3.514c-3.139,0-6.291,0.389-9.375,1.157c-2.354,0.589-4.447,1.32-6.396,2.233l-7.095,3.091
	c-2.182,0.968-3.131,1.379-4.566,1.835c-1.498,0.28-2.428,0.347-4.601,0.502l-0.585,0.045c-1.235-2.327-2.671-4.558-4.364-6.652
	c-0.604-0.764-1.315-1.588-2.146-2.479c-4.305-4.623-9.5-8.168-15.45-10.541h-0.002l-0.048-0.02
	c-3.409-1.357-7.006-2.297-10.681-2.795c-2.835-0.38-5.417-0.491-7.897-0.339L81.939,7.147c-3.403,0.133-4.947,0.181-7.405-0.014
	c-2.447-0.463-3.75-0.877-6.731-1.824l-0.365-0.115l-9.666-2.997c-2.248-0.798-4.783-1.381-7.741-1.781
	C38.638-1.121,27.431,1.643,18.474,8.2C8.687,15.234,2.552,25.901,0.784,39.012c-4.688,34.705,12.94,91.25,18.457,107.752
	l0.037,0.112l0.043,0.111c1.812,4.811,5.483,8.613,10.075,10.441c1.298,0.518,2.662,0.875,4.06,1.063
	c8.549,1.147,16.604-4.158,19.162-12.623l0.017-0.054l0.016-0.056l0.889-3.141c1.116-3.949,2.809-9.949,4.848-15.811
	c0.396,6.035,0.438,12.164,0.465,16.521l0.022,3.264c0.021,7.115,4.47,13.682,11.063,16.305c1.306,0.52,2.672,0.877,4.063,1.063
	c6.521,0.879,13.114-2.069,16.806-7.518c5.729-8.467,13.894-21.208,22.078-36.227c8.696,12.928,17.644,24,22.985,30.326
	c0.069,0.084,0.144,0.166,0.217,0.248c3.42,3.763,8.213,5.92,13.149,5.92c1.406,0,2.813-0.174,4.185-0.516
	c6.578-1.639,11.401-6.854,12.8-13.267c3.292,3.848,8.179,6.214,13.356,6.214c1.408,0,2.816-0.174,4.188-0.516
	c6.375-1.592,11.41-6.769,12.833-13.199c1.954-8.901,4.612-22.79,6.187-38.408c0.428-4.268,0.748-8.426,0.95-12.359
	C204.464,70.51,203.727,58.887,201.541,50.113z" class="color c1"/>
  <path fill="#FFFFFF" d="M115.591,41.814c-0.754-1.75-1.707-3.379-2.834-4.841l-0.022-0.036l-0.034-0.042
	c-1.184-1.564-2.629-3.012-4.298-4.303c-3.269-2.523-7.225-4.21-11.442-4.878c-0.348-0.056-0.674-0.089-0.999-0.122l-0.332-0.035
	c-0.951-0.101-1.739-0.149-2.411-0.149c-0.172,0-0.34,0.003-0.504,0.01c-0.13,0.007-0.24,0.011-0.349,0.011l-9.774,0.092
	c-1.119,0.018-2.101,0.032-3.028,0.032c-1.975,0-3.824-0.057-6.425-0.335c-0.19-0.02-0.375-0.044-0.56-0.074
	c-0.174-0.028-0.354-0.06-0.528-0.096c-3.613-0.751-5.688-1.463-8.83-2.54l-0.278-0.095l-9.268-3.106
	c-0.162-0.053-0.319-0.109-0.471-0.169c-1.014-0.39-2.353-0.718-3.99-0.979c-1.376-0.217-2.767-0.328-4.134-0.328
	c-5.006,0-9.733,1.452-13.671,4.198l-0.026,0.018l-0.025,0.02l-0.018,0.012l-0.04,0.026c-5.532,3.787-9.115,9.875-10.336,17.59
	c-3.485,22.021,4.579,61.415,13.288,90.938l0.936,3.173l0.979-3.159c3.913-12.63,8.67-26.766,15.624-34.645
	c2.128-2.408,5.191-3.791,8.404-3.791c0.535,0,1.073,0.039,1.604,0.115l0.155,0.024c3.809,0.603,6.998,3.075,8.53,6.614
	c4.173,9.639,4.333,24.564,4.154,37.801l-0.044,3.285l1.867-2.703c9.624-13.939,18.736-29.014,25.66-42.446
	c1.333-2.59,2.628-5.207,3.849-7.778l0.199-0.422l-0.193-0.425c-2.225-4.851-3.838-9.264-4.799-13.118
	c-2.055-8.202-0.976-15.922,3.121-22.327c2.6-4.146,6.339-7.507,10.818-9.726l0.85-0.42L115.591,41.814z" class="color c2"/>
  <path fill="#FFFFFF" d="M60.716,93.23c-0.093-0.004-0.186-0.009-0.278-0.012C60.53,93.222,60.623,93.227,60.716,93.23z" class="color c2"/>
  <path fill="#FFFFFF" d="M59.312,93.257c-0.114,0.008-0.229,0.007-0.342,0.019C59.083,93.264,59.197,93.266,59.312,93.257z" class="color c2"/>
  <path fill="#FFFFFF" d="M57.567,93.5c-0.106,0.022-0.208,0.059-0.313,0.084C57.359,93.558,57.461,93.522,57.567,93.5z" class="color c2"/>
  <path fill="#FFFFFF" d="M56.208,93.889c-0.157,0.054-0.309,0.118-0.463,0.179C55.899,94.007,56.051,93.942,56.208,93.889z" class="color c2"/>
  <path fill="#FFFFFF" d="M54.896,94.435c-0.161,0.077-0.32,0.16-0.478,0.245C54.576,94.595,54.734,94.512,54.896,94.435z" class="color c2"/>
  <path fill="#FFFFFF" d="M53.638,95.139c-0.149,0.095-0.299,0.188-0.445,0.291C53.339,95.328,53.488,95.233,53.638,95.139z" class="color c2"/>
  <path fill="#FFFFFF" d="M52.422,96.024c-0.119,0.099-0.242,0.19-0.357,0.293C52.18,96.214,52.303,96.123,52.422,96.024z" class="color c2"/>
  <path fill="#FFFFFF" d="M64.651,78.507c0.848,0.105,1.687,0.159,2.495,0.159c9.224,0,12.677-6.917,12.711-6.987
	c0.45-0.943,1.41-1.549,2.446-1.549c0.404,0,0.796,0.09,1.165,0.268c1.351,0.645,1.923,2.264,1.281,3.613
	c-0.196,0.412-4.947,10.083-17.495,10.083c-1.059,0-2.16-0.07-3.272-0.209C51.674,82.353,48.346,73.46,48.306,68.973
	c-0.007-0.724,0.268-1.406,0.774-1.921c0.508-0.517,1.187-0.805,1.912-0.812c1.504,0,2.703,1.168,2.731,2.659
	C53.753,69.76,54.304,77.218,64.651,78.507z" class="color c2"/>
  <path fill="#FFFFFF" d="M53.832,66.561c0.078,0.092,0.164,0.176,0.233,0.275C53.996,66.737,53.91,66.652,53.832,66.561z" class="color c2"/>
  <path fill="#FFFFFF" d="M54.237,67.142c0.059,0.104,0.126,0.203,0.175,0.313C54.363,67.344,54.295,67.246,54.237,67.142z" class="color c2"/>
  <path fill="#FFFFFF" d="M54.545,67.861c0.029,0.094,0.07,0.183,0.091,0.28C54.615,68.043,54.574,67.955,54.545,67.861z" class="color c2"/>
  <path fill="#FFFFFF" d="M84.721,76.024c-0.045,0.067-0.091,0.135-0.139,0.206C84.63,76.16,84.676,76.092,84.721,76.024z" class="color c2"/>
  <path fill="#FFFFFF" d="M84.452,76.416c-0.051,0.073-0.104,0.146-0.159,0.222C84.348,76.563,84.4,76.489,84.452,76.416z" class="color c2"/>
  <path fill="#FFFFFF" d="M84.149,76.833c-0.06,0.08-0.118,0.158-0.181,0.24C84.031,76.992,84.09,76.913,84.149,76.833z" class="color c2"/>
  <path fill="#FFFFFF" d="M83.809,77.277c-0.066,0.083-0.13,0.167-0.2,0.252C83.678,77.444,83.743,77.361,83.809,77.277z" class="color c2"/>
  <path fill="#FFFFFF" d="M83.427,77.746c-0.072,0.086-0.142,0.171-0.217,0.258C83.286,77.917,83.355,77.832,83.427,77.746z" class="color c2"/>
  <path fill="#FFFFFF" d="M83.016,78.223c-0.157,0.177-0.322,0.355-0.494,0.536C82.693,78.579,82.858,78.4,83.016,78.223z" class="color c2"/>
  <path fill="#FFFFFF" d="M82.317,78.974c-0.084,0.086-0.175,0.173-0.263,0.259C82.142,79.146,82.232,79.06,82.317,78.974z" class="color c2"/>
  <path fill="#FFFFFF" d="M81.802,79.48c-0.089,0.085-0.184,0.17-0.276,0.255C81.618,79.65,81.713,79.565,81.802,79.48z" class="color c2"/>
  <path fill="#FFFFFF" d="M84.955,75.665c-0.039,0.062-0.08,0.125-0.123,0.19C84.875,75.79,84.916,75.727,84.955,75.665z" class="color c2"/>
  <path fill="#FFFFFF" d="M85.152,75.346c-0.032,0.054-0.067,0.109-0.103,0.167C85.085,75.456,85.12,75.399,85.152,75.346z" class="color c2"/>
  <path fill="#FFFFFF" d="M85.616,74.515c-0.008,0.017-0.021,0.04-0.031,0.061C85.595,74.555,85.608,74.531,85.616,74.515z" class="color c2"/>
  <path fill="#FFFFFF" d="M85.548,74.647c-0.014,0.026-0.031,0.057-0.047,0.087C85.518,74.705,85.535,74.673,85.548,74.647z" class="color c2"/>
  <path fill="#FFFFFF" d="M85.449,74.833c-0.019,0.036-0.042,0.075-0.063,0.114C85.407,74.908,85.43,74.868,85.449,74.833z" class="color c2"/>
  <path fill="#FFFFFF" d="M85.317,75.067c-0.026,0.045-0.054,0.092-0.083,0.141C85.263,75.16,85.292,75.112,85.317,75.067z" class="color c2"/>
  <path fill="#FFFFFF" d="M83.15,69.234c0.255,0.061,0.507,0.145,0.753,0.264C83.657,69.379,83.405,69.295,83.15,69.234z" class="color c2"/>
  <path fill="#FFFFFF" d="M82.383,69.139c0.169,0.004,0.338,0.029,0.507,0.057C82.722,69.168,82.552,69.143,82.383,69.139z" class="color c2"/>
  <path fill="#FFFFFF" d="M80.397,69.663c0.037-0.022,0.077-0.04,0.114-0.061C80.474,69.624,80.434,69.641,80.397,69.663z" class="color c2"/>
  <path fill="#FFFFFF" d="M80.981,69.384c0.056-0.021,0.111-0.042,0.168-0.061C81.093,69.341,81.037,69.362,80.981,69.384z" class="color c2"/>
  <path fill="#FFFFFF" d="M81.712,69.183c0.02-0.003,0.039-0.009,0.059-0.012C81.751,69.173,81.732,69.18,81.712,69.183z" class="color c2"/>
  <path fill="#FFFFFF" d="M79.771,70.144c0.037-0.035,0.072-0.073,0.11-0.106C79.843,70.071,79.808,70.109,79.771,70.144z" class="color c2"/>
  <path fill="#FFFFFF" d="M79.8,28.55c0.298,0,0.605-0.003,0.918-0.006C80.407,28.547,80.098,28.55,79.8,28.55z" class="color c2"/>
  <path fill="#FFFFFF" d="M78.839,28.548c0.057,0,0.116,0,0.173,0.001C78.955,28.549,78.896,28.549,78.839,28.548z" class="color c2"/>
  <path fill="#FFFFFF" d="M79.422,70.521c-0.039,0.049-0.079,0.097-0.115,0.147C79.344,70.617,79.383,70.569,79.422,70.521z" class="color c2"/>
  <path fill="#FFFFFF" d="M77.843,72.881c0.088-0.108,0.17-0.212,0.248-0.313C78.013,72.67,77.933,72.772,77.843,72.881z" class="color c2"/>
  <path fill="#FFFFFF" d="M78.25,72.358c0.072-0.098,0.135-0.189,0.195-0.277C78.385,72.17,78.323,72.259,78.25,72.358z" class="color c2"/>
  <path fill="#FFFFFF" d="M78.562,71.911c0.055-0.084,0.101-0.158,0.144-0.228C78.662,71.754,78.618,71.825,78.562,71.911z" class="color c2"/>
  <path fill="#FFFFFF" d="M78.78,71.563c0.041-0.07,0.072-0.125,0.098-0.172C78.852,71.439,78.823,71.491,78.78,71.563z" class="color c2"/>
  <path fill="#FFFFFF" d="M78.911,71.333c0.027-0.05,0.044-0.085,0.046-0.089C78.955,71.249,78.939,71.281,78.911,71.333z" class="color c2"/>
  <path fill="#FFFFFF" d="M77.333,73.462c0.107-0.116,0.209-0.229,0.305-0.34C77.542,73.234,77.441,73.346,77.333,73.462z" class="color c2"/>
  <path fill="#FFFFFF" d="M76.718,74.078c0.127-0.12,0.252-0.239,0.368-0.356C76.97,73.839,76.847,73.958,76.718,74.078z" class="color c2"/>
  <path fill="#FFFFFF" d="M67.146,77.667c-0.105,0-0.219-0.008-0.326-0.01c0.364,0.006,0.71-0.008,1.056-0.023
	C67.632,77.644,67.399,77.667,67.146,77.667z" class="color c2"/>
  <path fill="#FFFFFF" d="M68.533,77.603c0.335-0.028,0.652-0.074,0.968-0.121C69.185,77.529,68.868,77.575,68.533,77.603z" class="color c2"/>
  <path fill="#FFFFFF" d="M70.04,77.406c0.371-0.068,0.721-0.155,1.066-0.246C70.761,77.251,70.411,77.338,70.04,77.406z" class="color c2"/>
  <path fill="#FFFFFF" d="M71.413,77.086c0.437-0.126,0.852-0.27,1.247-0.426C72.265,76.817,71.85,76.96,71.413,77.086z" class="color c2"/>
  <path fill="#FFFFFF" d="M72.937,76.536c0.29-0.124,0.576-0.249,0.842-0.385C73.512,76.287,73.226,76.412,72.937,76.536z" class="color c2"/>
  <path fill="#FFFFFF" d="M74.151,75.942c0.214-0.119,0.428-0.237,0.626-0.362C74.579,75.706,74.365,75.824,74.151,75.942z" class="color c2"/>
  <path fill="#FFFFFF" d="M75.142,75.335c0.177-0.12,0.354-0.24,0.517-0.363C75.495,75.095,75.319,75.215,75.142,75.335z" class="color c2"/>
  <path fill="#FFFFFF" d="M75.991,74.708c0.149-0.121,0.298-0.242,0.436-0.364C76.289,74.467,76.142,74.587,75.991,74.708z" class="color c2"/>
  <path fill="#FFFFFF" d="M64.775,77.515c0.583,0.073,1.138,0.109,1.68,0.129C65.913,77.624,65.358,77.588,64.775,77.515z" class="color c2"/>
  <path fill="#FFFFFF" d="M53.609,66.298c-0.088-0.086-0.191-0.155-0.287-0.232C53.418,66.144,53.521,66.212,53.609,66.298z" class="color c2"/>
  <path fill="#FFFFFF" d="M52.745,65.688c0.105,0.056,0.216,0.103,0.315,0.167C52.961,65.791,52.85,65.744,52.745,65.688z" class="color c2"/>
  <path fill="#FFFFFF" d="M51.396,65.28c0.113,0.012,0.23,0.011,0.34,0.033C51.625,65.291,51.509,65.292,51.396,65.28z" class="color c2"/>
  <path fill="#FFFFFF" d="M52.112,65.426c0.106,0.033,0.217,0.055,0.319,0.096C52.329,65.481,52.218,65.459,52.112,65.426z" class="color c2"/>
  <path fill="#FFFFFF" d="M65.469,85.029c-0.526-0.035-1.061-0.083-1.61-0.15C64.409,84.946,64.943,84.994,65.469,85.029z" class="color c2"/>
  <path fill="#FFFFFF" d="M67.018,85.085c-0.346-0.002-0.7-0.016-1.057-0.032C66.317,85.07,66.671,85.083,67.018,85.085z" class="color c2"/>
  <path fill="#FFFFFF" d="M76.128,83.281c-0.134,0.061-0.266,0.12-0.403,0.178C75.863,83.401,75.995,83.341,76.128,83.281z" class="color c2"/>
  <path fill="#FFFFFF" d="M75.191,83.669c-0.13,0.052-0.258,0.104-0.391,0.151C74.933,83.772,75.061,83.72,75.191,83.669z" class="color c2"/>
  <path fill="#FFFFFF" d="M74.125,84.048c-0.1,0.031-0.196,0.066-0.298,0.099C73.929,84.115,74.025,84.08,74.125,84.048z" class="color c2"/>
  <path fill="#FFFFFF" d="M72.814,84.429c-0.107,0.025-0.218,0.048-0.327,0.072C72.596,84.477,72.707,84.455,72.814,84.429z" class="color c2"/>
  <path fill="#FFFFFF" d="M71.743,84.667c-0.142,0.026-0.289,0.049-0.433,0.074C71.454,84.716,71.601,84.695,71.743,84.667z" class="color c2"/>
  <path fill="#FFFFFF" d="M70.621,84.856c-0.16,0.022-0.324,0.04-0.487,0.06C70.297,84.896,70.461,84.878,70.621,84.856z" class="color c2"/>
  <path fill="#FFFFFF" d="M69.452,84.992c-0.174,0.016-0.351,0.026-0.528,0.038C69.101,85.019,69.278,85.007,69.452,84.992z" class="color c2"/>
  <path fill="#FFFFFF" d="M68.229,85.07c-0.184,0.008-0.371,0.012-0.558,0.014C67.858,85.08,68.045,85.078,68.229,85.07z" class="color c2"/>
  <path fill="#FFFFFF" d="M81.245,79.989c-0.095,0.084-0.194,0.167-0.293,0.251C81.051,80.157,81.15,80.073,81.245,79.989z" class="color c2"/>
  <path fill="#FFFFFF" d="M80.648,80.496c-0.102,0.083-0.207,0.166-0.312,0.248C80.441,80.662,80.546,80.579,80.648,80.496z" class="color c2"/>
  <path fill="#FFFFFF" d="M80.007,80.998c-0.108,0.082-0.219,0.162-0.331,0.243C79.788,81.16,79.899,81.08,80.007,80.998z" class="color c2"/>
  <path fill="#FFFFFF" d="M79.326,81.488c-0.116,0.08-0.233,0.159-0.352,0.237C79.093,81.647,79.21,81.568,79.326,81.488z" class="color c2"/>
  <path fill="#FFFFFF" d="M78.598,81.967c-0.122,0.076-0.244,0.151-0.369,0.226C78.354,82.118,78.477,82.043,78.598,81.967z" class="color c2"/>
  <path fill="#FFFFFF" d="M77.825,82.427c-0.127,0.072-0.254,0.144-0.385,0.214C77.57,82.57,77.698,82.499,77.825,82.427z" class="color c2"/>
  <path fill="#FFFFFF" d="M77.002,82.867c-0.131,0.065-0.261,0.133-0.395,0.196C76.741,83,76.871,82.933,77.002,82.867z" class="color c2"/>
  <path fill="#FFFFFF" d="M93.219,28.407c0.191,0,0.399,0.014,0.6,0.021c-0.367-0.015-0.73-0.026-1.064-0.013
	C92.906,28.41,93.061,28.407,93.219,28.407z" class="color c2"/>
  <path fill="#FFFFFF" d="M95.52,28.551c-0.451-0.048-0.888-0.083-1.313-0.108C94.632,28.468,95.069,28.503,95.52,28.551z" class="color c2"/>
  <path fill="#FFFFFF" d="M82.601,28.52c-0.506,0.008-0.982,0.015-1.442,0.021C81.62,28.535,82.094,28.528,82.601,28.52z" class="color c2"/>
  <path fill="#FFFFFF" d="M77.842,28.532c-0.076-0.002-0.153-0.004-0.229-0.006C77.689,28.528,77.765,28.53,77.842,28.532z" class="color c2"/>
  <path fill="#FFFFFF" d="M76.801,28.498c-0.079-0.003-0.159-0.006-0.238-0.01C76.643,28.491,76.722,28.494,76.801,28.498z" class="color c2"/>
  <path fill="#FFFFFF" d="M75.551,28.431c-0.058-0.004-0.118-0.009-0.176-0.013C75.433,28.422,75.493,28.427,75.551,28.431z" class="color c2"/>
  <path fill="#FFFFFF" d="M74.475,28.349c-0.099-0.008-0.198-0.017-0.299-0.026C74.276,28.332,74.375,28.34,74.475,28.349z" class="color c2"/>
  <path fill="#FFFFFF" d="M46.89,20.901c0.72,0.052,1.443,0.129,2.168,0.244C48.333,21.03,47.61,20.953,46.89,20.901z" class="color c2"/>
  <path fill="#FFFFFF" d="M46.184,20.873c-0.49-0.021-0.979-0.038-1.465-0.03c0.121-0.002,0.24-0.013,0.362-0.013
	C45.447,20.83,45.816,20.857,46.184,20.873z" class="color c2"/>
  <path fill="#FFFFFF" d="M33.681,23.787c-0.58,0.33-1.149,0.678-1.699,1.062C32.531,24.465,33.101,24.116,33.681,23.787z" class="color c2"/>
  <path fill="#FFFFFF" d="M44.041,20.867c-0.479,0.021-0.956,0.055-1.429,0.103C43.085,20.921,43.561,20.888,44.041,20.867z" class="color c2"/>
  <path fill="#FFFFFF" d="M41.943,21.043c-0.543,0.071-1.082,0.162-1.615,0.27C40.862,21.206,41.399,21.114,41.943,21.043z" class="color c2"/>
  <path fill="#FFFFFF" d="M39.938,21.386c-0.657,0.146-1.304,0.319-1.941,0.521C38.635,21.706,39.281,21.531,39.938,21.386z" class="color c2"/>
  <path fill="#FFFFFF" d="M37.51,22.076c-0.475,0.161-0.944,0.335-1.405,0.527C36.566,22.411,37.035,22.237,37.51,22.076z" class="color c2"/>
  <path fill="#FFFFFF" d="M35.495,22.87c-0.432,0.195-0.857,0.406-1.276,0.629C34.638,23.276,35.063,23.065,35.495,22.87z" class="color c2"/>
  <path fill="#FFFFFF" d="M184.348,54.409c-1.517-6.068-4.796-10.681-9.486-13.346l-0.006-0.004L174.751,41
	c-1.393-0.797-2.92-1.416-4.555-1.844c-1.617-0.424-3.297-0.639-4.992-0.639c-1.672,0-3.36,0.209-5.02,0.623
	c-0.299,0.074-0.572,0.158-0.848,0.244l-0.19,0.06c-0.905,0.272-1.628,0.54-2.202,0.815l-0.074,0.035
	c-0.055,0.025-0.106,0.05-0.162,0.074l-7.146,3.11c-2.669,1.186-4.308,1.895-7.003,2.714c-0.141,0.043-0.277,0.082-0.417,0.116
	c-0.122,0.03-0.242,0.056-0.362,0.083l-0.074,0.017c-2.854,0.566-4.59,0.689-7.218,0.876l-0.233,0.017l-7.762,0.607
	c-0.131,0.011-0.258,0.018-0.383,0.02c-0.884,0.028-1.984,0.207-3.283,0.532c-5.096,1.269-9.351,4.276-11.979,8.469l-0.011,0.015
	l-0.032,0.054c-2.921,4.561-3.662,10.194-2.146,16.292c4.312,17.27,22.502,43.674,38.09,62.625l2.103,2.556l-0.335-3.292
	c-1.063-10.451-1.977-22.266,0.664-30.18c0.924-2.771,3.128-4.863,5.924-5.645l0.247-0.063c0.69-0.172,1.399-0.26,2.11-0.26
	c2.248,0,4.384,0.854,6.015,2.405c6.03,5.742,10.78,16.614,14.762,26.354l1.243,3.041l0.662-3.219
	c2.72-13.223,4.711-27.121,5.607-39.138c0.338-4.528,0.524-8.854,0.554-12.854C186.373,67.025,185.714,59.887,184.348,54.409z" class="color c2"/>
  <path fill="#FFFFFF" d="M168.791,39.859c-0.097-0.019-0.194-0.03-0.291-0.047C168.596,39.83,168.694,39.841,168.791,39.859z" class="color c2"/>
  <path fill="#FFFFFF" d="M167.621,39.671c-0.151-0.02-0.306-0.029-0.457-0.045C167.315,39.642,167.469,39.651,167.621,39.671z" class="color c2"/>
  <path fill="#FFFFFF" d="M166.437,39.556c-0.178-0.011-0.357-0.012-0.537-0.019C166.078,39.544,166.259,39.545,166.437,39.556z" class="color c2"/>
  <path fill="#FFFFFF" d="M165.237,39.517c-0.235,0-0.475,0.012-0.712,0.02c0.227-0.008,0.454-0.021,0.68-0.021
	C165.216,39.516,165.227,39.517,165.237,39.517z" class="color c2"/>
  <path fill="#FFFFFF" d="M161.634,39.847c-0.401,0.075-0.805,0.162-1.206,0.262C160.83,40.009,161.232,39.921,161.634,39.847z" class="color c2"/>
  <path fill="#FFFFFF" d="M164.042,39.552c-0.248,0.015-0.498,0.043-0.746,0.067C163.544,39.595,163.794,39.566,164.042,39.552z" class="color c2"/>
  <path fill="#FFFFFF" d="M162.841,39.661c-0.271,0.034-0.545,0.081-0.817,0.125C162.296,39.742,162.569,39.695,162.841,39.661z" class="color c2"/>
  <path fill="#FFFFFF" d="M157.689,98.042c-0.059-0.002-0.117-0.008-0.176-0.008C157.573,98.035,157.63,98.041,157.689,98.042z" class="color c2"/>
  <path fill="#FFFFFF" d="M160.039,98.386c-0.099-0.027-0.197-0.049-0.297-0.072C159.841,98.337,159.94,98.358,160.039,98.386z" class="color c2"/>
  <path fill="#FFFFFF" d="M158.945,98.155c-0.109-0.017-0.221-0.034-0.332-0.047C158.725,98.121,158.835,98.139,158.945,98.155z" class="color c2"/>
  <path fill="#FFFFFF" d="M156.687,98.08c-0.127,0.01-0.253,0.008-0.38,0.022C156.434,98.087,156.56,98.089,156.687,98.08z" class="color c2"/>
  <path fill="#FFFFFF" d="M161.076,98.729c0.033,0.015,0.064,0.03,0.1,0.045C161.141,98.761,161.109,98.744,161.076,98.729z" class="color c2"/>
  <path fill="#FFFFFF" d="M162.065,99.199c0.101,0.055,0.196,0.111,0.293,0.168C162.262,99.311,162.166,99.253,162.065,99.199z" class="color c2"/>
  <path fill="#FFFFFF" d="M163.039,99.804c0.09,0.063,0.182,0.124,0.271,0.191C163.22,99.929,163.128,99.867,163.039,99.804z" class="color c2"/>
  <path fill="#FFFFFF" d="M141.083,80.516c0.207,0.596,2.174,5.545,9.676,4.226c8.253-1.453,9.32-8.027,9.33-8.095
	c0.24-1.615,1.742-2.731,3.355-2.486c1.613,0.24,2.729,1.741,2.488,3.357c-0.064,0.44-1.752,10.86-14.15,13.043
	c-10.275,1.81-15.17-4.595-16.324-8.231c-0.489-1.556,0.369-3.216,1.929-3.709C138.945,78.139,140.582,78.98,141.083,80.516z" class="color c2"/>
  <path fill="#19C4F2" d="M121.639,30.133c1.151,1.498,2.168,3.075,3.045,4.719c0.735,1.383,1.371,2.816,1.912,4.291l-0.789,0.063
	c-1.67,0.055-3.397,0.362-5.101,0.785c-2.119,0.527-4.139,1.277-6.037,2.219c-0.709-1.648-1.604-3.197-2.707-4.625
	c-0.021-0.029-0.045-0.058-0.063-0.086c-1.178-1.557-2.569-2.924-4.11-4.115c-3.104-2.397-6.854-4.027-10.986-4.682
	c-0.451-0.072-0.861-0.104-1.283-0.15c-0.99-0.104-1.936-0.168-2.765-0.135c-0.13,0.008-0.261,0.012-0.389,0.012L82.6,28.521
	c-3.722,0.06-6.006,0.072-9.569-0.309c-0.204-0.021-0.407-0.048-0.61-0.08c-0.191-0.031-0.385-0.065-0.574-0.104
	c-3.666-0.763-5.77-1.483-8.951-2.574l-0.278-0.095l-9.261-3.104c-0.176-0.058-0.352-0.121-0.521-0.188
	c-0.938-0.361-2.209-0.671-3.779-0.921c-6.188-0.979-12.25,0.337-17.076,3.703c-0.029,0.023-0.063,0.043-0.092,0.064
	c-5.324,3.645-8.76,9.5-9.938,16.938c-3.484,22.012,4.66,61.35,13.259,90.5c4.202-13.564,8.937-27.201,15.829-35.012
	c2.766-3.131,6.938-4.631,11.063-3.979c0.002,0,0.004,0,0.006,0.002c4.125,0.652,7.631,3.371,9.291,7.205
	c4.136,9.553,4.428,23.992,4.236,38.211c8.649-12.525,17.997-27.598,25.595-42.336c1.34-2.6,2.619-5.188,3.834-7.75
	c1.971,4.295,4.342,8.775,7.002,13.334c-0.896,1.75-1.818,3.506-2.766,5.262c-0.451,0.844-0.904,1.688-1.367,2.531
	c-7.786,14.191-16.792,28.273-25.292,40.242c-2.289,3.221-6.277,4.982-10.328,4.342c-5.209-0.822-9.07-5.473-8.965-10.838
	l0.053-3.131c0.184-11.469,0.267-26.994-3.207-35.014c-5.785,6.553-10.5,21.348-13.865,32.313l-0.92,2.992
	c-1.721,5.258-6.664,8.358-11.87,7.541c-4.05-0.646-7.155-3.528-8.481-7.322c-9.908-32.049-19.197-75.5-15.16-101.002
	c1.705-10.789,6.943-19.521,15.098-25.104c7.502-5.236,16.713-7.218,25.973-5.752c2.17,0.344,4.318,0.836,6.275,1.592l9.295,3.115
	c3.234,1.108,4.781,1.653,7.8,2.28c2.913,0.312,4.694,0.294,8.114,0.237l9.807-0.092c2.236-0.094,4.434,0.104,6.457,0.422
	c3.072,0.486,6.021,1.34,8.791,2.521c4.754,2.021,8.979,5.024,12.41,8.88C120.507,28.717,121.089,29.409,121.639,30.133z
	 M83.903,69.497c-1.849-0.891-4.063-0.104-4.946,1.746c-0.037,0.076-3.744,7.57-14.182,6.271
	c-9.489-1.183-10.021-7.844-10.051-8.637c-0.039-2.029-1.691-3.644-3.74-3.639c-2.051,0.02-3.695,1.693-3.678,3.742
	c0.043,4.792,3.555,14.275,16.553,15.895c15.686,1.951,21.551-9.928,21.793-10.435C86.533,72.592,85.75,70.379,83.903,69.497z" class="color c3"/>
  <path fill="#165B7A" d="M137.387,78.622c1.559-0.482,3.192,0.358,3.696,1.895c0.207,0.597,2.172,5.544,9.676,4.225
	c8.25-1.453,9.318-8.026,9.33-8.093c0.238-1.615,1.74-2.731,3.354-2.486c1.613,0.24,2.729,1.741,2.49,3.356
	c-0.064,0.441-1.754,10.859-14.15,13.042c-10.277,1.812-15.172-4.593-16.324-8.229C134.968,80.775,135.83,79.115,137.387,78.622z
	 M125.807,39.206l0.789-0.063l6.995-0.547c2.718-0.194,4.021-0.276,6.429-0.756c2.231-0.679,3.533-1.246,6.022-2.351l7.162-3.12
	c1.607-0.764,3.277-1.303,4.863-1.7c2.404-0.599,4.83-0.891,7.229-0.888c4.113,0.003,8.146,0.889,11.861,2.648
	c0.649,0.309,1.293,0.636,1.922,0.996c6.854,3.861,11.619,10.428,13.729,18.869c2.119,8.506,2.563,19.766,1.938,31.905
	c-0.201,3.903-0.514,7.897-0.918,11.926c-1.291,12.828-3.514,25.955-6.021,37.377c-0.681,3.074-3.056,5.606-6.224,6.397
	c-4.076,1.017-8.354-1.188-9.944-5.155l-0.938-2.313c-3.438-8.467-8.205-19.877-13.248-24.676
	c-2.203,6.604-1.057,18.922-0.108,28.01l0.256,2.48c0.377,4.389-2.283,8.207-6.354,9.221c-3.172,0.791-6.348-0.359-8.5-2.728
	c-10.469-12.396-22.07-27.946-30.69-42.719c-2.658-4.56-5.031-9.039-7-13.332c-2.16-4.709-3.84-9.194-4.861-13.293
	c-2.104-8.443-0.98-16.478,3.259-23.107c2.738-4.37,6.617-7.805,11.219-10.083c1.898-0.94,3.92-1.69,6.035-2.219
	C122.408,39.568,124.137,39.26,125.807,39.206z M126.123,48.926c-0.803,0.026-1.83,0.195-3.063,0.502
	c-4.84,1.207-8.877,4.06-11.367,8.029c-0.016,0.025-0.029,0.051-0.047,0.076c-2.771,4.328-3.465,9.691-2.018,15.512
	c4.299,17.226,22.514,43.537,37.893,62.233c-1.146-11.256-1.916-22.729,0.709-30.598c1.053-3.156,3.646-5.56,6.873-6.361
	c0.002,0.002,0.002,0,0.004,0.002c3.229-0.807,6.646,0.097,9.057,2.392c6.006,5.717,10.715,16.215,14.998,26.701
	c2.445-11.879,4.609-25.84,5.592-39.011c0.328-4.387,0.521-8.682,0.552-12.788c0.063-7.977-0.498-15.229-1.929-20.965
	c-1.453-5.818-4.588-10.227-9.063-12.75c-0.022-0.016-0.051-0.028-0.071-0.042c-1.353-0.775-2.798-1.343-4.3-1.737
	c-3.021-0.792-6.276-0.82-9.517-0.013c-0.352,0.087-0.661,0.19-0.985,0.289c-0.758,0.229-1.471,0.478-2.063,0.761
	c-0.099,0.045-0.188,0.089-0.281,0.129l-7.131,3.105c-2.709,1.203-4.383,1.924-7.111,2.754c-0.156,0.048-0.314,0.092-0.475,0.131
	c-0.148,0.037-0.308,0.07-0.455,0.104c-2.926,0.58-4.688,0.707-7.363,0.897l-0.23,0.017l-7.758,0.607
	C126.416,48.915,126.27,48.922,126.123,48.926z" class="color c4"/>
</svg>