<svg version="1.1" id="图层_1" x="0px" y="0px" width="97.605px" height="158.373px" viewBox="0 0 97.605 158.373" enable-background="new 0 0 97.605 158.373" xml:space="preserve" xmlns="http://www.w3.org/2000/svg" xmlns:xlink="http://www.w3.org/1999/xlink" xmlns:xml="http://www.w3.org/XML/1998/namespace">
  <path fill="#FFFFFF" d="M0,129.104l16.559,29.269c0,0,19.578-34.212,27.244-46.989c-0.098-0.162-10.559-19.171-15.637-28.896
	C20.127,98.241,0,129.104,0,129.104z M81.432,104.073c0,0-7.404-11.428-15.992-24.586c-5.619-8.608-11.741-17.953-16.637-25.333
	c-3.995-6.021-7.17-10.734-8.579-12.66c-4.815-6.581-8.152-13.557-9.803-18.711c3.375-2.722,9.877-6.932,17.717-6.801
	c9.324,0.154,16.51,5.197,18.938,7.139c-6.824,16.828-11.617,21.786-15.273,27.033c4.896,7.38,10.018,15.725,15.637,24.333
	c2.947-5.646,3.373-5.569,4.576-8.54c3.271-8.086,7.314-18.676,3.851-32.732c-3.468-14.055-6.16-19.832-7.896-22.336
	c-0.219-0.317-0.402-0.598-0.57-0.861C67.174,9.571,66.913,9.1,66.606,8.61c-0.217-0.629-0.367-1.005-0.367-1.005
	s0.013,0.27,0.339,0.955C64.174,4.741,59.196-0.002,49.28,0c-0.059,0-0.118,0-0.178,0C38.4,0.061,33.205,5.305,30.844,9.087
	c0.041-0.131,0.09-0.284,0.129-0.399c-0.252,0.506-0.664,1.217-1.34,2.191c-1.732,2.504-4.428,8.281-7.896,22.336
	c-3.465,14.057,0.58,24.646,3.853,32.732c1.203,2.971,3.629,7.894,6.576,13.54c5.078,9.726,11.709,21.604,16.338,29.401
	c0.092,0.155,0.201,0.332,0.299,0.495c7.666,12.777,32.242,48.989,32.242,48.989l16.561-29.27L81.432,104.073z" class="color c1"/>
</svg>