<svg version="1.1" id="图层_1" x="0px" y="0px" width="45.096px" height="40px" viewBox="0 0 45.096 40" enable-background="new 0 0 45.096 40" xml:space="preserve" xmlns="http://www.w3.org/2000/svg" xmlns:xlink="http://www.w3.org/1999/xlink" xmlns:xml="http://www.w3.org/XML/1998/namespace">
  <path fill="#00AD77" d="M32.024,0c-3.611,0-7.028,1.645-9.477,4.486C20.101,1.645,16.684,0,13.071,0C5.863,0,0,6.467,0,14.417
	c0,3.014,0.834,5.899,2.411,8.347c0.421,0.688,7.106,11.376,19.505,16.952L22.548,40l0.632-0.285
	c12.4-5.575,19.086-16.266,19.506-16.951c1.575-2.448,2.41-5.334,2.41-8.347C45.096,6.467,39.232,0,32.024,0z M35.548,20.166
	c0,2.117-1.717,3.834-3.833,3.834h-5.167v5.167c0,2.116-1.717,3.833-3.834,3.833h-0.332c-2.117,0-3.834-1.717-3.834-3.833V24h-5.167
	c-2.116,0-3.833-1.717-3.833-3.834v-0.333c0-2.117,1.717-3.833,3.833-3.833h5.167v-5.167C18.548,8.716,20.265,7,22.382,7h0.332
	c2.117,0,3.834,1.716,3.834,3.833V16h5.167c2.116,0,3.833,1.716,3.833,3.833V20.166z" class="color c1"/>
</svg>