<svg version="1.1" id="图层_1" x="0px" y="0px" width="200px" height="156.984px" viewBox="0 0 200 156.984" enable-background="new 0 0 200 156.984" xml:space="preserve" xmlns="http://www.w3.org/2000/svg" xmlns:xlink="http://www.w3.org/1999/xlink" xmlns:xml="http://www.w3.org/XML/1998/namespace">
  <path fill="#FFFFFF" d="M197.674,77.264c-1.508,0.188-3.723,0.478-6.498,0.926c-5.557,0.854-13.427,2.166-22.785,2.955
	c-4.677,0.393-9.725,0.641-15.01,0.588c-2.643-0.059-5.342-0.116-8.081-0.334c-2.735-0.235-5.535-0.513-8.231-0.926
	c-0.74-0.122-1.482-0.245-2.229-0.367c-0.691-0.136-1.386-0.271-2.083-0.408c-1.438-0.279-2.888-0.56-4.345-0.844
	c-2.887-0.661-5.801-1.329-8.704-2.109c-5.81-1.582-11.606-3.513-17.64-5.628c-3.044-1.025-6.127-2.066-9.297-3.021
	c-1.59-0.468-3.172-0.927-4.796-1.314c-1.611-0.407-3.216-0.815-4.845-1.131c-1.619-0.348-3.234-0.684-4.859-0.9
	c-1.621-0.233-3.229-0.534-4.834-0.677c-1.605-0.168-3.188-0.369-4.783-0.482c-1.605-0.087-3.197-0.174-4.778-0.259
	c-0.798-0.05-1.571-0.082-2.302-0.08c-0.742-0.004-1.482-0.008-2.219-0.013c-0.737,0-6.715,0.085-7.807,0.119
	c-1.816,0.058-3.605,0.136-5.365,0.302c-1.406,0.109-2.793,0.219-4.158,0.325c-1.361,0.167-2.703,0.331-4.021,0.492
	c-2.635,0.291-5.168,0.776-7.586,1.19c-2.416,0.511-4.727,0.936-6.895,1.54c-2.178,0.523-4.219,1.14-6.122,1.735
	c-3.8,1.237-7.042,2.492-9.629,3.715c-2.595,1.202-4.541,2.321-5.841,3.11C0.637,76.576,0,77.077,0,77.077s0.767-0.27,2.209-0.677
	c1.438-0.428,3.591-0.903,6.309-1.447c2.723-0.534,6.055-1.012,9.859-1.452c3.814-0.412,8.123-0.68,12.809-0.848
	c4.699-0.06,9.764-0.102,15.124,0.205c1.909,0.056,3.858,0.221,5.836,0.371c0.792,0.06,5.888,0.52,6.62,0.6
	c1.438,0.187,3.004,0.26,4.367,0.494c5.592,0.709,11.486,1.79,17.232,3.261c1.449,0.333,2.891,0.761,4.336,1.183
	c1.447,0.392,2.893,0.899,4.351,1.35c2.914,0.916,5.876,1.955,8.876,3.007c6.037,2.081,12.391,4.169,18.801,5.596
	c6.396,1.521,12.807,2.372,18.963,2.897c3.261,0.223,6.346,0.313,9.375,0.225c3.026-0.096,5.971-0.275,8.813-0.604
	c5.686-0.635,10.96-1.673,15.734-2.878c9.554-2.424,17.09-5.495,22.27-7.737c2.595-1.112,4.592-2.078,5.979-2.659
	c1.379-0.604,2.139-0.886,2.139-0.886S199.186,77.081,197.674,77.264z" class="color c1"/>
  <path fill="#11BFF5" d="M47.115,79.282c7.146,16.885,7.766,39.139,8.002,47.616c0.254,9.128,5.742,22.668,12.804,22.668
	c2.377,0,7.827-10.938,10.446-16.194c6.016-12.073,12.236-24.556,21.633-24.556c9.397,0,15.618,12.482,21.635,24.556
	c2.619,5.256,8.068,16.194,10.445,16.194c7.063,0,12.55-13.54,12.804-22.668c0.139-5.002,0.462-16.647,2.591-28.501
	c0.009-0.052,0.139-0.666,0.291-1.387c-0.894,0.051-1.787,0.1-2.699,0.129c-3.029,0.089-6.114-0.002-9.375-0.225
	c-6.156-0.525-12.566-1.376-18.963-2.897c-6.02-1.34-11.984-3.262-17.688-5.215c-0.487-0.141-0.977-0.273-1.459-0.44
	c-2.996-1.053-5.947-2.093-8.84-3.005c-1.447-0.449-2.881-0.962-4.313-1.353c-0.063-0.019-0.126-0.05-0.189-0.072
	c-1.29-0.377-2.579-0.752-3.874-1.05c-5.746-1.471-11.641-2.552-17.232-3.261c-1.363-0.234-2.929-0.308-4.367-0.494
	c-0.732-0.08-1.461-0.16-2.188-0.241l-1.084-0.119l-0.136-0.015c-0.11-0.007,0.075,0.001,0.032-0.002l-0.066-0.005l-0.264-0.018
	l-0.525-0.037c-2.801-0.163-5.552-0.456-8.226-0.534c0.101,0.003,0.202,0.011,0.302,0.015C46.876,78.751,47.076,79.19,47.115,79.282
	z" class="color c2"/>
  <path fill="#11BFF5" d="M43.107,78.021c0,0.001,0.001,0.002,0.001,0.003c1.058,0.036,2.117,0.072,3.201,0.134
	C45.227,78.096,44.166,78.056,43.107,78.021z" class="color c2"/>
  <path fill="#11BFF5" d="M152.04,96.701c-0.9,0.083-1.813,0.149-2.729,0.214c0.919-0.057,1.828-0.126,2.729-0.206
	C152.039,96.706,152.039,96.704,152.04,96.701z" class="color c2"/>
  <path fill="#FFFFFF" d="M152.039,96.709c-0.9,0.08-1.81,0.149-2.729,0.206c-0.516,0.031-1.025,0.069-1.545,0.096l0,0
	c-0.152,0.721-0.282,1.335-0.291,1.387c-2.129,11.854-2.452,23.499-2.591,28.501c-0.254,9.128-5.741,22.668-12.804,22.668
	c-2.377,0-7.826-10.938-10.445-16.194c-6.017-12.073-12.237-24.556-21.635-24.556c-9.396,0-15.617,12.482-21.633,24.556
	c-2.619,5.256-8.069,16.194-10.446,16.194c-7.062,0-12.55-13.54-12.804-22.668c-0.236-8.478-0.855-30.731-8.002-47.616
	c-0.039-0.092-0.239-0.531-0.504-1.11c-0.1-0.004-0.201-0.012-0.302-0.015c-1.084-0.062-2.144-0.098-3.201-0.134
	c-1.698-0.058-3.376-0.097-5.009-0.106c0.941,1.886,2.422,4.824,2.602,5.271c6.209,15.48,6.78,35.999,7.001,43.917
	c0.339,12.212,7.734,29.879,20.219,29.879c6.969,0,11.434-8.96,17.087-20.306c4.299-8.628,10.187-20.444,14.992-20.444
	c4.807,0,10.694,11.817,14.994,20.446c5.652,11.344,10.117,20.304,17.086,20.304c12.484,0,19.88-17.667,20.219-29.88
	c0.135-4.839,0.447-16.104,2.481-27.419c0.013-0.074,0.299-1.993,0.499-3.332c-0.47,0.058-0.925,0.13-1.4,0.183
	C153.274,96.606,152.654,96.654,152.039,96.709z" class="color c1"/>
  <path fill="#FFFFFF" d="M38.004,59.179c0.517-0.063,1.053-0.129,1.576-0.193c-2.269-9.689-4.201-28.165,8.314-43.098
	c10.522-12.55,27.643-8.254,40.143-5.115c4.711,1.182,8.778,2.203,11.963,2.203c3.186,0,7.253-1.021,11.963-2.203
	c12.5-3.139,29.621-7.435,40.143,5.115c16.174,19.297,9.375,45.562,2.809,58.039c-0.099,0.188-0.814,1.45-1.414,2.507
	c2.935,0.026,5.785-0.045,8.549-0.177c9.479-18.881,11.785-45.995-4.26-65.134C144.285-4.99,123.747,0.164,110.156,3.578
	C106.1,4.596,102.268,5.558,100,5.558s-6.1-0.962-10.156-1.979c-13.59-3.412-34.127-8.567-47.633,7.545
	C27.886,28.21,29.699,48.859,32.217,60.056C34.084,59.729,36.015,59.398,38.004,59.179z" class="color c1"/>
</svg>