<svg version="1.1" id="图层_1" x="0px" y="0px" width="175.533px" height="170.008px" viewBox="0 0 175.533 170.008" enable-background="new 0 0 175.533 170.008" xml:space="preserve" xmlns:xml="http://www.w3.org/XML/1998/namespace" xmlns="http://www.w3.org/2000/svg" xmlns:xlink="http://www.w3.org/1999/xlink">
  <path fill="#FFFFFF" d="M87.963,164.081c1.761,0,3.192-1.431,3.192-3.19c0-1.763-1.434-3.195-3.192-3.195
	c-1.758,0-3.193,1.435-3.193,3.195C84.77,162.65,86.203,164.081,87.963,164.081z M87.963,159.538c0.745,0,1.351,0.604,1.351,1.353
	c0,0.743-0.604,1.349-1.351,1.349s-1.349-0.604-1.349-1.349C86.614,160.143,87.218,159.538,87.963,159.538z M87.99,136.426
	l3.096-6.285H84.84L87.99,136.426z M168.64,53.225l-0.033-0.055c-1.664-2.935-14.539-7.865-32.912-11.725
	c-2.906-12.824-7.555-24.85-14.516-35.035c0,0-9.539-4.2-23.435-5.926C94.867,0.187,91.94,0.02,88.97,0.002
	c-12.315-0.078-24.181,2.287-35.226,6.67l-0.057,0.031c-2.971,1.659-8.045,14.711-12.037,33.313
	C28.656,42.999,16.477,47.751,6.203,54.87c0,0-4.139,9.563-5.775,23.468C0.148,81.218,0,84.146,0,87.118
	c0,0.045,0.002,0.089,0.002,0.134c0.018,12.266,2.475,24.131,6.912,35.107l0.012-0.006c1.666,2.937,14.541,7.864,32.912,11.726
	c1.025,4.521,2.266,8.938,3.748,13.215c0.004-0.006,0.009-0.012,0.013-0.019c0.144,0.416,0.299,0.826,0.446,1.24
	c0.058,0.16,0.121,0.319,0.18,0.481c2.572-3.767,5.602-7.198,9.038-10.181c2.476-2.147,5.153-4.071,7.999-5.737l0.037,6.887
	l0.047,8.572c-2.232,0.396-4.051,1.392-5.42,2.979c-2.242,2.603-2.586,6.119-2.563,8.207c-0.926,0.832-1.521,2.024-1.521,3.364
	c0,2.507,2.039,4.543,4.543,4.543c0.014,0,0.027-0.004,0.041-0.004c0.015,0,0.027,0.004,0.042,0.004
	c2.504,0,4.543-2.036,4.543-4.543c0-1.963-1.26-3.623-3.01-4.256c0.082-1.426,0.438-3.187,1.459-4.364
	c0.917-1.058,2.296-1.572,4.209-1.58c1.896,0.008,3.246,0.514,4.122,1.547c0.994,1.181,1.299,2.949,1.342,4.379
	c-1.781,0.615-3.07,2.289-3.07,4.274c0,2.507,2.037,4.543,4.543,4.543c0.014,0,0.027-0.004,0.041-0.004
	c0.015,0,0.027,0.004,0.042,0.004c2.504,0,4.543-2.036,4.543-4.543c0-1.315-0.574-2.495-1.473-3.325
	c0.084-2.103-0.178-5.597-2.398-8.238c-1.344-1.603-3.152-2.6-5.389-2.987l-0.043-8.043l-0.053-9.822
	c1.752-0.805,3.555-1.521,5.403-2.131l8.773,13.123l7.803,11.67l0.038-0.065l0.045,0.065l6.432-11.303l8.046-14.14
	c4.267,1.217,8.313,2.961,12.063,5.149c0.172,1.653,0.402,4.58,0.369,7.918c-0.035,3.47-0.361,7.377-1.35,10.774
	c-4.459,0.627-7.902,4.457-7.902,9.084c0,5.063,4.117,9.187,9.184,9.187c0.015,0,0.027-0.002,0.041-0.002
	c0.016,0,0.027,0.002,0.043,0.002c5.064,0,9.184-4.12,9.184-9.187c0-3.901-2.451-7.233-5.891-8.563
	c1.014-3.885,1.314-8.137,1.322-11.826c0.004-1.497-0.037-2.911-0.104-4.157c1.487,1.104,2.912,2.291,4.274,3.543
	c2.646,2.43,5.021,5.141,7.127,8.06c0.061-0.179,0.115-0.347,0.166-0.498c0.226-0.683,0.354-1.084,0.352-1.088
	c0.891-3.322,1.764-6.937,2.588-10.785c12.996-2.981,25.176-7.733,35.449-14.854c0,0,4.141-9.563,5.777-23.469
	c0.272-2.846,0.42-5.736,0.422-8.67c0.002-0.037,0.004-0.072,0.004-0.109C175.53,76.093,173.09,64.242,168.64,53.225z
	 M96.302,128.875l-6.469,13.133l-0.264,0.529c-0.381,0.773-1.168,1.264-2.027,1.268c-0.006,0-0.008,0-0.01,0
	c-0.857,0-1.645-0.486-2.029-1.256l-0.332-0.66l-6.514-13c-0.354-0.705-0.314-1.541,0.098-2.211c0.414-0.67,1.145-1.078,1.932-1.078
	h13.58c0.787,0,1.514,0.404,1.93,1.072C96.608,127.338,96.649,128.172,96.302,128.875z M102.034,115.672
	c-4.268,2.457-9.215,3.869-14.49,3.869c-16.073,0-29.1-13.029-29.1-29.1c0-11.137,6.259-20.811,15.449-25.701
	c4.071-2.167,8.715-3.399,13.65-3.399c16.071,0,29.101,13.03,29.101,29.101C116.644,101.236,110.765,110.65,102.034,115.672z
	 M119.506,160.823c0,2.561-2.084,4.641-4.644,4.641c-2.559,0-4.641-2.082-4.641-4.641c0-2.56,2.078-4.644,4.641-4.644
	C117.424,156.18,119.506,158.26,119.506,160.823z" class="color c1"/>
</svg>