<svg version="1.1" id="图层_1" x="0px" y="0px" width="175.219px" height="175.219px" viewBox="0 0 175.219 175.219" enable-background="new 0 0 175.219 175.219" xml:space="preserve" xmlns="http://www.w3.org/2000/svg" xmlns:xlink="http://www.w3.org/1999/xlink" xmlns:xml="http://www.w3.org/XML/1998/namespace">
  <path fill="#FFFFFF" d="M71.714,4.72l-43.185,6.229c0.671,4.676-0.792,9.598-4.389,13.193c-3.596,3.597-8.519,5.06-13.193,4.389
	L4.72,71.714L23.99,36.869l63.618,50.74L36.871,23.991L71.714,4.72z M13.165,0C20.436,0,26.33,5.894,26.33,13.165
	c0,7.271-5.896,13.164-13.165,13.164C5.894,26.329,0,20.436,0,13.165C0,5.894,5.894,0,13.165,0z M87.608,87.609l50.739,63.618
	l-34.844,19.271l43.184-6.229c-0.67-4.674,0.792-9.598,4.389-13.193c3.598-3.598,8.52-5.059,13.194-4.389l6.228-43.184
	l-19.271,34.844L87.608,87.609z M162.055,148.889c7.271,0,13.164,5.895,13.164,13.166c0,7.271-5.895,13.164-13.164,13.164
	c-7.271,0-13.166-5.895-13.166-13.164C148.889,154.783,154.783,148.889,162.055,148.889z M23.99,138.349L4.72,103.504l6.229,43.186
	c4.677-0.67,9.599,0.791,13.194,4.389s5.059,8.521,4.389,13.193l43.185,6.229l-34.844-19.271l50.736-63.62L23.99,138.349z
	 M13.165,148.889c7.271,0,13.165,5.895,13.165,13.166c0,7.271-5.896,13.164-13.165,13.164C5.894,175.219,0,169.324,0,162.055
	C0,154.783,5.894,148.889,13.165,148.889z M151.076,24.142c-3.597-3.597-5.059-8.519-4.389-13.193L103.504,4.72l34.844,19.271
	L87.608,87.609l63.618-50.739l19.271,34.845l-6.229-43.185C159.594,29.201,154.672,27.738,151.076,24.142z M162.053,0
	c7.271,0,13.166,5.894,13.166,13.165c0,7.271-5.896,13.164-13.166,13.164s-13.164-5.894-13.164-13.164
	C148.889,5.894,154.783,0,162.053,0z" class="color c1"/>
</svg>