<svg version="1.1" id="图层_1" x="0px" y="0px" width="42.033px" height="42.033px" viewBox="0 0 42.033 42.033" enable-background="new 0 0 42.033 42.033" xml:space="preserve" xmlns="http://www.w3.org/2000/svg" xmlns:xlink="http://www.w3.org/1999/xlink" xmlns:xml="http://www.w3.org/XML/1998/namespace">
  <path fill="#F05849" d="M39.065,14.332H27.701V2.968C27.701,1.335,26.366,0,24.733,0h-7.434c-1.632,0-2.968,1.335-2.968,2.968
	v11.363H2.968C1.335,14.332,0,15.667,0,17.3v7.434c0,1.632,1.335,2.968,2.968,2.968h11.363v11.363c0,1.632,1.335,2.968,2.968,2.968
	h7.434c1.632,0,2.968-1.336,2.968-2.968V27.702h11.364c1.632,0,2.968-1.336,2.968-2.968V17.3
	C42.033,15.667,40.697,14.332,39.065,14.332z" class="color c1"/>
</svg>