<svg version="1.1" id="图层_1" x="0px" y="0px" width="83.059px" height="104.596px" viewBox="0 0 83.059 104.596" enable-background="new 0 0 83.059 104.596" xml:space="preserve" xmlns="http://www.w3.org/2000/svg" xmlns:xlink="http://www.w3.org/1999/xlink" xmlns:xml="http://www.w3.org/XML/1998/namespace">
  <path fill="#FFFFFF" d="M22.961,43.005c25.504,9.296,31.4-9.06,26.24-43.005c19.68,45.191-4.016,89.17-36.809,104.596
	C44.1,79.449,25.877,37.902,0,47.014C8.383,42.275,13.588,39.864,22.961,43.005z M34.623,21.138c-5.232,0-9.475,4.242-9.475,9.476
	s4.242,9.476,9.475,9.476c5.234,0,9.477-4.242,9.477-9.476S39.857,21.138,34.623,21.138z M60.059,50.014
	C56.859,69.7,51.701,89.025,26.18,104.596l56.879-0.47C58.021,96.396,62.021,70.396,60.059,50.014z" class="color c1"/>
</svg>