<svg version="1.1" id="图层_1" x="0px" y="0px" width="30.71px" height="30.712px" viewBox="0 0 30.71 30.712" enable-background="new 0 0 30.71 30.712" xml:space="preserve" xmlns="http://www.w3.org/2000/svg" xmlns:xlink="http://www.w3.org/1999/xlink" xmlns:xml="http://www.w3.org/XML/1998/namespace">
  <path fill="#E14860" d="M21.105,9.606V2.621C21.105,1.176,19.929,0,18.483,0h-6.254c-1.446,0-2.622,1.176-2.622,2.621v6.985H2.622
	C1.176,9.606,0,10.782,0,12.228v6.254c0,1.446,1.176,2.623,2.622,2.623h6.985v6.983c0,1.446,1.176,2.624,2.622,2.624h6.254
	c1.446,0,2.622-1.178,2.622-2.624v-6.983h6.984c1.445,0,2.621-1.177,2.621-2.623v-6.254c0-1.445-1.176-2.621-2.621-2.621H21.105z
	 M27.283,17.675h-7.466l-0.542-0.008c-0.278,0-0.795,0-1.188,0.394c-0.417,0.419-0.415,0.946-0.413,1.743l0.001,7.477h-4.639
	l0.005-7.724c0.021-0.554,0.04-1.077-0.354-1.482c-0.376-0.392-0.862-0.392-1.252-0.392H3.429v-4.648h7.946
	c0.402,0,0.953,0,1.339-0.445c0.322-0.372,0.322-0.789,0.322-1.313V3.429h4.64v7.735c0,0.789,0,1.872,1.584,1.872l8.023-0.002
	V17.675z" class="color c1"/>
</svg>