<svg version="1.1" id="图层_1" x="0px" y="0px" width="213.52px" height="211px" viewBox="0 0 213.52 211" enable-background="new 0 0 213.52 211" xml:space="preserve" xmlns="http://www.w3.org/2000/svg" xmlns:xlink="http://www.w3.org/1999/xlink" xmlns:xml="http://www.w3.org/XML/1998/namespace">
  <g>
    <path fill="#0163AC" d="M8.021,72.991h66.378c-1.794,17.527-9.631,33.261-21.433,45.061c-11.77,11.801-27.475,19.697-44.945,21.549
		C-2.678,116.757-2.669,94.24,8.021,72.991z M208.021,73.02c-17.471,1.85-33.174,9.745-44.945,21.545
		c-11.801,11.802-19.637,27.535-21.434,45.062h66.379C215.353,119.679,215.353,97.477,208.021,73.02z M74.399,8.146v64.845v131.48
		h67.243v-64.845V8.146H74.399z" class="color c1"/>
    <path fill="#3B9FDA" d="M10.162,139.628c-0.723,0-1.447,0-2.141-0.027c37.514-3.963,65.169-35.721,65.169-74.333
		c0-2.661,1.209-57.122,1.209-57.122c20.948-10.861,43.362-10.861,67.243,0C141.642,80.772,82.757,139.628,10.162,139.628z
		 M74.399,204.471c22.415,8.705,44.829,8.705,67.243,0c0,0,1.209-54.461,1.209-57.123c0-38.61,27.656-70.37,65.17-74.329
		c-0.693-0.028-1.418-0.028-2.141-0.028C133.285,72.991,74.399,131.846,74.399,204.471z" class="color c2"/>
  </g>
</svg>