<svg version="1.1" id="图层_1" x="0px" y="0px" width="68.363px" height="159.917px" viewBox="0 0 68.363 159.917" enable-background="new 0 0 68.363 159.917" xml:space="preserve" xmlns="http://www.w3.org/2000/svg" xmlns:xlink="http://www.w3.org/1999/xlink" xmlns:xml="http://www.w3.org/XML/1998/namespace">
  <path fill="#B77DDA" d="M68.103,47.195c2-11.83-7.911-33.782-8.364-35.093c0,0-12.368-24.726-37.282-3.492
	c-0.001,0.002-0.003,0.006-0.004,0.009c0.001-0.003,0.002-0.006,0.003-0.009C19.206,13.048,7.969,29.014,7.344,39.26
	c0,0-1.75,18.951,6.869,38.38l0.381,0.9C5.808,85.091-0.531,89.384,0.035,90.148c1.811,2.406,11.303,16.672,12.804,18.547
	l10.177-8.105c0.227-0.172,0.461-0.354,0.691-0.531l25.353,59.859l17.922-10.145c-3.256-8.165-17.455-40.701-27.162-62.855
	c3.392-2.965,6.839-6.135,10.177-9.458C65.044,62.635,68.103,47.195,68.103,47.195z M30.585,65.879
	c-0.087-0.199-0.139-0.313-0.139-0.313c-7.451-18.09-9.981-30.816-10.422-39.667c1.308-0.883,21.762-14.199,38.971,5.302
	C54.212,43.558,42.402,55.785,30.585,65.879z" class="color c1"/>
</svg>