<svg version="1.1" id="图层_1" x="0px" y="0px" width="80.896px" height="81.348px" viewBox="0 0 80.896 81.348" enable-background="new 0 0 80.896 81.348" xml:space="preserve" xmlns="http://www.w3.org/2000/svg" xmlns:xlink="http://www.w3.org/1999/xlink" xmlns:xml="http://www.w3.org/XML/1998/namespace">
  <path fill="#01A89E" d="M73.257,48.197L48.162,48.35l0.15,25.246c0.037,4.252-3.387,7.752-7.639,7.752h-0.037
	c-4.214,0-7.676-3.426-7.676-7.676l-0.15-25.246L7.713,48.574H7.676C3.462,48.574,0,45.15,0,40.898
	c-0.038-4.252,3.387-7.75,7.638-7.75l25.096-0.15L32.583,7.75C32.546,3.5,35.97,0,40.222,0h0.039c4.213,0,7.674,3.424,7.674,7.676
	l0.15,25.246l25.097-0.15c4.288-0.111,7.713,3.424,7.713,7.676C80.932,44.699,77.509,48.16,73.257,48.197z" class="color c1"/>
</svg>