<svg version="1.1" id="图层_1" x="0px" y="0px" width="122.034px" height="158.061px" viewBox="0 0 122.034 158.061" enable-background="new 0 0 122.034 158.061" xml:space="preserve" xmlns="http://www.w3.org/2000/svg" xmlns:xlink="http://www.w3.org/1999/xlink" xmlns:xml="http://www.w3.org/XML/1998/namespace">
  <path fill="#FFFFFF" d="M68.976,81.544c0,2.708-2.195,4.903-4.903,4.903s-4.902-2.195-4.902-4.903c0-2.707,2.194-4.903,4.902-4.903
	S68.976,78.837,68.976,81.544z M39.946,82.915c-1.646,0-2.98,1.336-2.98,2.982s1.334,2.982,2.98,2.982
	c1.648,0,2.984-1.336,2.984-2.982S41.595,82.915,39.946,82.915z M122.034,78.203c0,0-17.374,95.012-87.829,61.323
	c-18.422-8.475-26.116-4.544-29.337-0.05c0.116,3.08,0.646,6.15,1.641,9.082c4.875,13.542,19.458,7.208,19.458,7.208
	c-16.166,7.417-22.5-5.333-23.333-7.583c-8.917-24.167,7.667-39.333,7.667-39.333l0.021,0.008c1.339-1.661,2.849-3.28,4.602-4.816
	c-0.95-0.489-1.776-1.216-2.378-2.138c-1.161-1.776-1.344-4.016-0.492-5.956l34.521-64.337V9.521h27.187v22.09l33.693,62.794
	C112.562,91.047,117.446,85.883,122.034,78.203z M60.168,41.614c0,2.369,1.921,4.289,4.288,4.289c2.368,0,4.291-1.92,4.291-4.289
	c0-2.368-1.923-4.289-4.291-4.289C62.089,37.325,60.168,39.246,60.168,41.614z M49.305,53.355c0,2.001,1.62,3.622,3.619,3.622
	c2.003,0,3.624-1.621,3.624-3.622c0-2-1.621-3.621-3.624-3.621C50.925,49.734,49.305,51.355,49.305,53.355z M95.641,113.08
	l-0.36-0.467c0,0-0.113,0.05-0.33,0.147c-0.107,0.046-0.242,0.105-0.4,0.175c-0.162,0.063-0.348,0.137-0.559,0.22
	c-0.84,0.335-2.109,0.697-3.722,1.013c-1.619,0.303-3.614,0.474-5.885,0.48c-2.269,0.002-4.828-0.177-7.547-0.619
	c-1.357-0.229-2.758-0.489-4.166-0.864c-0.7-0.196-1.413-0.377-2.112-0.605c-0.695-0.219-1.418-0.475-2.06-0.736
	c-0.744-0.314-1.496-0.631-2.257-0.952c-0.858-0.346-1.726-0.688-2.607-1.006c-1.764-0.656-3.595-1.205-5.473-1.729
	c-1.878-0.526-3.813-0.97-5.801-1.331c-0.495-0.101-0.997-0.174-1.499-0.261c-0.501-0.09-1.007-0.168-1.514-0.235
	c-1.015-0.154-2.046-0.246-3.082-0.353c-1.038-0.079-2.082-0.167-3.138-0.204c-1.055-0.063-2.12-0.057-3.188-0.045
	c-2.137,0.045-4.299,0.213-6.464,0.494c-2.164,0.314-4.322,0.802-6.456,1.408c-2.133,0.615-4.204,1.476-6.208,2.434
	c-1.002,0.507-1.982,1.053-2.931,1.641c-8.242,5.14-13.321,16.297-13.027,27.403c0.016-0.09,0.027-0.179,0.046-0.269
	c0.118-0.717,0.31-1.432,0.481-2.166c0.107-0.363,0.213-0.729,0.32-1.096c0.101-0.372,0.229-0.739,0.361-1.105
	c0.499-1.483,1.169-2.96,1.938-4.435c0.201-0.363,0.404-0.731,0.604-1.101c0.212-0.364,0.445-0.718,0.666-1.081
	c0.114-0.183,0.226-0.364,0.341-0.547c0.113-0.181,0.242-0.354,0.366-0.531c0.246-0.353,0.493-0.712,0.745-1.07
	c1.061-1.385,2.181-2.791,3.466-4.068l0.486-0.493c0.161-0.167,0.325-0.33,0.495-0.475c0.337-0.299,0.679-0.602,1.02-0.904
	c0.328-0.313,0.711-0.578,1.07-0.865l0.55-0.424c0.182-0.146,0.37-0.286,0.563-0.412c0.388-0.261,0.775-0.52,1.162-0.783
	c0.193-0.135,0.393-0.254,0.598-0.37l0.608-0.357c0.801-0.496,1.664-0.892,2.51-1.324c1.732-0.782,3.526-1.466,5.382-1.991
	c1.858-0.51,3.756-0.914,5.674-1.182c1.924-0.267,3.857-0.438,5.792-0.499c1.936-0.05,3.865-0.012,5.78,0.105
	c3.824,0.265,7.572,0.819,11.143,1.61c1.786,0.394,3.529,0.836,5.221,1.327c0.846,0.243,1.673,0.507,2.49,0.773
	c0.41,0.143,0.815,0.281,1.22,0.419c0.204,0.067,0.406,0.135,0.608,0.202c0.209,0.063,0.416,0.125,0.62,0.189
	c3.3,0.957,6.517,1.367,9.485,1.501c2.974,0.135,5.706-0.052,8.096-0.422c2.392-0.363,4.437-0.935,6.068-1.547
	c1.635-0.61,2.841-1.288,3.63-1.79c0.195-0.128,0.371-0.24,0.52-0.341c0.144-0.105,0.267-0.194,0.364-0.267
	C95.54,113.155,95.641,113.08,95.641,113.08z M97.279,91.629L85.261,69.231c-6.424-8.107-15.651-3.296-21.612-3.296
	c-5.963,0-8.368-4.497-16.215-4.497c-7.846,0-12.357,7.793-12.357,7.793L23.06,91.629c-0.658,1.498-0.517,3.226,0.378,4.594
	c0.349,0.534,0.795,0.983,1.305,1.335c0.457-0.225,0.918-0.447,1.392-0.664c15.375-7.058,31.811-1.423,47.705,1.524h19.007
	c1.634,0,3.159-0.827,4.054-2.195C97.793,94.854,97.937,93.127,97.279,91.629z M45.051,7.01h30.232c1.936,0,3.505-1.569,3.505-3.505
	C78.788,1.57,77.219,0,75.284,0H45.051c-1.935,0-3.503,1.57-3.503,3.505C41.548,5.442,43.116,7.01,45.051,7.01z" class="color c1"/>
</svg>