<svg version="1.1" id="图层_2" x="0px" y="0px" width="122.912px" height="193.274px" viewBox="0 0 122.912 193.274" enable-background="new 0 0 122.912 193.274" xml:space="preserve" xmlns="http://www.w3.org/2000/svg" xmlns:xlink="http://www.w3.org/1999/xlink" xmlns:xml="http://www.w3.org/XML/1998/namespace">
  <path fill="#D4145A" d="M122.879,134.172c-0.664,28.48-22.634,53.675-50.724,58.251c-32.036,5.218-61.858-14.011-69.987-45.225
	C1.187,143.432,0.731,139.53,0,135.517c0.883-0.083,1.372-0.169,1.86-0.168c5.252,0.006,10.504-0.014,15.754,0.084
	c0.746,0.014,1.803,0.443,2.351,0.95c13.52,12.532,26.994,25.114,40.495,37.667c1.815,1.687,3.637,1.674,5.466-0.025
	c13.433-12.478,26.842-24.984,40.295-37.44c0.558-0.516,1.632-1.001,2.39-1.044c2.295-0.129,4.601-0.045,7.09-0.045v-7.091h-4.351
	c0.259-1.6,0.578-2.949,0.681-4.315c0.825-10.962-6.427-21.012-17.529-23.832c-10.359-2.631-19.125,0.31-26.087,8.453
	c-1.75,2.046-3.375,4.2-5.226,6.515c-1.595-1.994-3.107-3.881-4.617-5.77c-8.787-10.987-23.354-13.482-34.306-5.614
	c-8.005,5.751-11.619,13.492-9.352,23.466c0.04,0.177,0.005,0.372,0.005,0.716c-4.802,0-9.572,0-14.688,0
	c0.183-2.772,0.267-5.506,0.56-8.217c1.736-16.098,6.355-31.318,14.432-45.364C26.755,54.389,47.473,18.73,56.78,2.745
	c2.128-3.656,7.397-3.661,9.533-0.01C75.615,18.64,96.23,54.025,107.6,73.874C118.273,92.507,123.38,112.662,122.879,134.172z" class="color c1"/>
</svg>