<svg version="1.1" id="图层_1" x="0px" y="0px" width="66.3px" height="58.889px" viewBox="0 0 66.3 58.889" enable-background="new 0 0 66.3 58.889" xml:space="preserve" xmlns="http://www.w3.org/2000/svg" xmlns:xlink="http://www.w3.org/1999/xlink" xmlns:xml="http://www.w3.org/XML/1998/namespace">
  <path fill="#ED1B24" d="M20.25,20.418l4.366,12.529l5.09-24.525l5.495,23.711h25.367l0.264-0.263c7.291-7.291,7.291-19.113,0-26.404
	s-19.112-7.291-26.403,0C33.418,6.477,33.15,6.92,33.15,6.92s-0.804-0.979-1.278-1.454c-7.291-7.291-19.112-7.291-26.403,0
	c-7.291,7.291-7.291,19.113,0,26.404l4.393,4.394h3.88L20.25,20.418z M29.893,24.626l-4.425,21.328l-5.484-15.739l-3.913,9.526
	h-2.734l18.678,18.677c0.628,0.627,1.645,0.627,2.273,0L57.094,35.61H32.439L29.893,24.626z" class="color c1"/>
</svg>