<svg version="1.1" id="图层_1" x="0px" y="0px" width="112.918px" height="112.561px" viewBox="0 0 112.918 112.561" enable-background="new 0 0 112.918 112.561" xml:space="preserve" xmlns="http://www.w3.org/2000/svg" xmlns:xlink="http://www.w3.org/1999/xlink" xmlns:xml="http://www.w3.org/XML/1998/namespace">
  <path fill="#3B589A" d="M30.85,9.793c21.344,13.086,26.602,7.92,46.961,4.862c7.898-1.186,14.342-1.533,16.715,0.683
	c6.865,6.402-1.406,35.689-2.223,39.023c-16.277,66.317-26.461,8.655-41.275,4.902c16.191,6.719,20.553,84.022,51.055,1.147
	c4.164-11.295,12.607-43.149,10.506-54.264C109.042-12.639,53.368,18.445,30.85,9.793z" class="color c1"/>
  <path fill="#3B589A" d="M0.331,13.063C-1.771,23.74,6.672,57.339,10.836,69.494c30.502,89.168,34.865,12.764,51.053,9.387
	c-14.813,0.695-24.994,56.258-41.273-13.418c-0.818-3.505-9.088-34.498-2.223-39.486c2.373-1.725,8.814-0.047,16.715,2.769
	c20.357,7.257,25.615,13.51,46.961,4.826C59.551,37.576,3.877-4.996,0.331,13.063z" class="color c1"/>
  <path fill="#C5ECFD" d="M71.885,71.667c-4.883-14.095-17.963-13.818-17.963-13.818c4.53,2.45,8.346,8.346,12.051,14.083
	c3.379,5.229,7.58,11.736,10.582,11.736h0.002C76.557,83.668,74.069,77.973,71.885,71.667z" class="color c2"/>
  <path fill="#C5ECFD" d="M21.278,27.694c-1.127,0-1.451,0.228-1.465,0.236c-0.846,0.615-4.686,5.229,2.869,35.816
	c0.129,0.518,0.225,0.912,0.285,1.166c6.748,28.887,14.33,33.199,14.33,33.199s-6.111-14.621-9.73-31.81
	c-2.951-14.02-3.598-31.038-3.232-32.604c0.818-3.482,10.863-2.236,10.863-2.236S25.674,27.694,21.278,27.694z" class="color c2"/>
  <path fill="#C5ECFD" d="M92.059,17.977c-1.992-1.86-6.439-1.568-13.076-0.572c-1.752,0.264-3.031,0.437-3.939,0.548
	c3.219-0.199,9.98-0.214,13.23,2.323c6.025,4.703-5.547,52.279-5.547,52.279s4.805-10.948,7.467-21.787
	C90.879,47.965,97.829,23.358,92.059,17.977z" class="color c2"/>
</svg>