<svg version="1.1" id="图层_1" x="0px" y="0px" width="180px" height="165.924px" viewBox="0 0 180 165.924" enable-background="new 0 0 180 165.924" xml:space="preserve" xmlns="http://www.w3.org/2000/svg" xmlns:xlink="http://www.w3.org/1999/xlink" xmlns:xml="http://www.w3.org/XML/1998/namespace">
  <g>
    <path fill="#36C2CE" d="M143.317,90.426c0-29.211-23.68-52.891-52.891-52.891c-29.211,0-52.891,23.68-52.891,52.891
		c0,16.631,7.683,31.462,19.685,41.158l33.632,34.34l33.692-35.096C136.022,121.127,143.317,106.632,143.317,90.426z" class="color c1"/>
    <path fill="#44B5FC" d="M180,52.891C180,23.68,156.32,0,127.109,0S74.218,23.68,74.218,52.891c0,16.631,7.683,31.462,19.685,41.158
		l33.632,34.34l33.692-35.096C172.704,83.591,180,69.096,180,52.891z" class="color c2"/>
    <path fill="#FBA046" d="M105.782,52.891C105.782,23.68,82.102,0,52.891,0S0,23.68,0,52.891c0,16.631,7.683,31.462,19.685,41.158
		l33.632,34.34l33.692-35.096C98.486,83.591,105.782,69.096,105.782,52.891z" class="color c3"/>
  </g>
</svg>