<svg version="1.1" id="图层_1" x="0px" y="0px" width="190.359px" height="190.357px" viewBox="0 0 190.359 190.357" enable-background="new 0 0 190.359 190.357" xml:space="preserve" xmlns="http://www.w3.org/2000/svg" xmlns:xlink="http://www.w3.org/1999/xlink" xmlns:xml="http://www.w3.org/XML/1998/namespace">
  <path fill="#4092FE" d="M179.32,91.731c7.01-8.35,10.666-14.883,11.039-15.563V96.24v0.824v93.293H0V125.89l0.033-0.026
	c2.066-3.7,7.803-12.864,11.006-17.948v71.405H179.32v-72.06l-0.588,0.543C87.129,189.112,13.277,105.2,13.277,105.2
	c14.439-17.634,30.416-25.09,30.416-25.09c-15.977,12.781-21.303,25.919-21.303,25.919
	C106.525,158.613,158.179,116.913,179.32,91.731z M0,0v92.651v0.547v20.378c0,0,3.652-6.777,11.039-15.583
	c21.123-25.178,72.785-66.948,156.962-14.337c0,0-5.326,13.138-21.303,25.919c0,0,15.977-7.455,30.416-25.09
	c0,0-73.851-83.911-165.455-2.604l-0.621,0.573V11.038H179.32v70.507c3.199-5.074,8.967-14.288,11.039-18.001V0H0z" class="color c1"/>
</svg>