<svg version="1.1" id="图层_1" x="0px" y="0px" width="180px" height="175.001px" viewBox="0 0 180 175.001" enable-background="new 0 0 180 175.001" xml:space="preserve" xmlns="http://www.w3.org/2000/svg" xmlns:xlink="http://www.w3.org/1999/xlink" xmlns:xml="http://www.w3.org/XML/1998/namespace">
  <path fill="#FFFFFF" d="M160.843,145.045c-4.255-1.299-9.431-2.88-15.316-4.925c0.211-1.241,0.293-2.522,0.196-3.834
	c-0.663-8.754-8.278-15.316-17.025-14.67c-8.748,0.647-15.317,8.277-14.671,17.026c0.494,6.564,4.899,11.891,10.746,13.876
	c1.957,0.668,4.084,0.953,6.279,0.794c0.442-0.032,0.859-0.084,1.285-0.154c4.915-0.773,9.006-3.766,11.337-7.849
	c5.999,2.085,11.247,3.689,15.561,5.006c10.185,3.11,15.487,4.845,15.233,7.262c-0.016,0.153-0.582,3.779-16.897,7.061
	c-20,4.021-55.736,5.753-91.042,4.417c-41.076-1.558-59.053-6.338-60.991-9.076c0.091-0.636,0.393-1.52,1.548-2.478
	c9.084-7.542,46.543-3.882,64.545-2.124c2.958,0.289,5.568,0.544,7.698,0.723c10.546,0.89,17.972-0.901,22.069-5.316
	c1.722-1.854,2.586-3.936,2.965-5.748c1.002-0.494,1.875-1.313,2.423-2.492l11.669-25.063c0.318-0.685,0.473-1.389,0.491-2.079
	c29.113-10.596,49.651-42.281,52.249-66.782c1.326-12.511-1.516-24.344-8-33.319c-6.29-8.704-15.384-14.095-25.606-15.178
	c-7.719-0.816-14.855,2.604-18.546,4.808c-1.718-1.629-3.658-2.292-4.607-1.482l-5.476,7.691c-0.681,0.584-0.253,2.204,0.951,3.611
	l1.093,1.281c1.206,1.411,2.734,2.085,3.418,1.502l8.455-4.201c0.836-0.713,0.656-2.362-0.307-4.075
	c3.193-1.807,8.717-4.261,14.438-3.656c18.721,1.984,31.063,20.229,28.708,42.437c-2.45,23.105-22.01,53.062-49.63,62.531
	c-0.713-0.368-1.525-0.587-2.411-0.587H92.671c-0.799,0-1.539,0.181-2.203,0.487C63.009,100.887,43.585,71.06,41.144,48.04
	C38.79,25.831,51.132,7.587,69.852,5.603c5.688-0.604,11.228,1.854,14.434,3.663c-0.96,1.711-1.138,3.356-0.303,4.068l8.455,4.201
	c0.684,0.583,2.212-0.091,3.419-1.502l1.092-1.281c1.204-1.407,1.633-3.027,0.951-3.611l-5.475-7.691
	c-0.949-0.81-2.891-0.147-4.609,1.483c-3.691-2.204-10.831-5.625-18.545-4.809C59.048,1.207,49.954,6.598,43.665,15.302
	c-6.485,8.975-9.326,20.808-8,33.319c2.582,24.355,22.895,55.803,51.731,66.585c-0.005,0.622,0.099,1.26,0.333,1.891l9.335,25.063
	c0.378,1.015,1.002,1.797,1.753,2.364c-0.247,0.803-0.699,1.72-1.529,2.588c-2.007,2.099-6.674,4.406-17.498,3.499
	c-2.109-0.178-4.694-0.431-7.624-0.717c-27.939-2.729-58.585-4.945-68.601,3.368c-2.129,1.767-3.32,3.937-3.541,6.448
	c-0.403,4.575,3.869,9.703,38.606,13.06c15.259,1.474,33.495,2.231,51.531,2.231c12.631,0,25.165-0.372,36.506-1.128
	c51.989-3.468,52.96-12.689,53.278-15.719C180.688,151.105,173.64,148.953,160.843,145.045z M133.473,145.817
	c-0.903,0.384-1.898,0.63-2.921,0.713c-1.61,0.12-3.156-0.184-4.517-0.834c-2.89-1.347-4.981-4.162-5.227-7.556
	c-0.37-5.014,3.393-9.364,8.39-9.742c5.017-0.37,9.377,3.387,9.743,8.39C139.229,140.75,136.934,144.322,133.473,145.817z" class="color c1"/>
</svg>