<svg version="1.1" id="图层_1" x="0px" y="0px" width="126.023px" height="183.525px" viewBox="0 0 126.023 183.525" enable-background="new 0 0 126.023 183.525" xml:space="preserve" xmlns="http://www.w3.org/2000/svg" xmlns:xlink="http://www.w3.org/1999/xlink" xmlns:xml="http://www.w3.org/XML/1998/namespace">
  <path fill="#FA5252" d="M45.796,39.18c-1.297,3.037-3.162,6.022-5.4,9.008c-0.536,0.72-1.155,1.49-1.745,2.239
	c-0.594,0.75-1.184,1.495-1.77,2.235c-1.174,1.478-2.333,2.938-3.482,4.384c-2.304,2.887-4.566,5.72-6.824,8.549
	c-1.132,1.417-2.264,2.833-3.399,4.253c-1.147,1.451-2.284,2.937-3.411,4.46c-2.251,3.049-4.46,6.269-6.493,9.806
	c-2.088,3.613-3.881,7.407-5.253,11.341c-1.347,3.898-2.344,7.854-2.962,11.869c-1.247,8.023-0.919,16.188,0.823,23.979
	c1.747,7.813,4.726,15.192,8.998,22.227c2.174,3.492,4.767,6.819,7.763,9.869c2.996,3.044,6.429,5.802,10.263,8.017
	c0.368,0.246,0.963,0.577,1.767,0.99c0.4,0.211,0.85,0.448,1.347,0.71c0.495,0.268,1.042,0.551,1.658,0.805
	c1.226,0.518,2.615,1.207,4.257,1.738c0.816,0.278,1.668,0.614,2.582,0.883c0.918,0.254,1.88,0.519,2.885,0.797
	c4.046,0.977,8.787,1.777,14.245,1.871c5.426,0.086,11.469-0.549,17.723-2.358c1.58-0.388,3.119-1.023,4.709-1.58
	c0.801-0.264,1.569-0.634,2.352-0.983c0.781-0.354,1.569-0.71,2.362-1.069c0.777-0.393,1.538-0.833,2.316-1.255
	c0.764-0.445,1.577-0.82,2.313-1.335c0.748-0.496,1.5-0.995,2.258-1.497c0.376-0.255,0.762-0.499,1.132-0.766l1.08-0.851
	c5.835-4.48,10.997-10.378,14.9-17.153c3.92-6.718,6.67-14.469,7.931-22.424c1.295-7.967,1.21-16.067,0.402-23.874
	c-0.199-1.971-0.434-3.854-0.746-5.882c-0.327-1.988-0.696-3.966-1.164-5.903c-0.912-3.882-2.076-7.649-3.4-11.273
	c-2.66-7.264-5.793-13.944-9.151-20.365c-6.727-12.795-14.75-23.768-22.524-32.299c-3.882-4.275-7.669-7.979-11.152-11.121
	c-3.513-3.108-6.674-5.71-9.379-7.733c-1.381-1.019-2.467-1.894-3.79-2.766c-1.227-0.805-2.212-1.369-2.994-1.82
	c-1.555-0.884-2.344-1.309-2.461-1.284c-0.046,0.011,0.358,0.312,1.144,0.838c0.789,0.535,1.972,1.267,3.545,2.335
	c0.174,0.118,0.358,0.246,0.544,0.379c0.003,0.078,0.009,0.166,0.022,0.266c0.165,1.618,0.329,3.219,0.493,4.816
	c-0.976-0.734-1.861-1.412-2.732-1.978c-0.624-0.408-1.196-0.756-1.72-1.066c-0.044-0.42-0.087-0.833-0.132-1.255
	c-0.031-0.334-0.102-0.592-0.154-0.62c-0.057-0.032-0.081,0.204-0.036,0.574c0.041,0.397,0.081,0.787,0.121,1.183
	c-0.321-0.188-0.628-0.366-0.905-0.526c-1.553-0.883-2.41-1.35-2.523-1.324c-0.093,0.034,1.273,0.919,3.482,2.376
	c0.17,1.661,0.339,3.315,0.508,4.956c-0.384-0.28-0.751-0.541-1.073-0.746c-0.967-0.629-1.889-1.159-2.658-1.6
	c-0.256-0.146-0.489-0.277-0.71-0.402c-0.122-1.128-0.238-2.261-0.338-3.402c-0.031-0.333-0.101-0.59-0.154-0.618
	c-0.052-0.03-0.075,0.205-0.03,0.574c0.096,1.118,0.207,2.228,0.324,3.335c-0.998-0.56-1.591-0.872-1.678-0.85
	c-0.052,0.007,0.409,0.345,1.244,0.902c0.142,0.096,0.309,0.205,0.473,0.312c0.177,1.663,0.362,3.315,0.533,4.957
	c-0.667-0.412-1.341-0.808-1.937-1.15c-1.226-0.697-2.095-1.183-2.461-1.343c-0.196-1.87-0.394-3.751-0.594-5.651
	c-0.03-0.332-0.101-0.588-0.154-0.616c-0.051-0.028-0.076,0.207-0.031,0.575c0.379,3.705,0.752,7.345,1.123,10.965
	c0.318,3.504,0.477,6.858,0.201,10.077C47.833,33.126,47.118,36.137,45.796,39.18z M55.714,9.751c0.302,0.2,0.616,0.407,0.947,0.626
	c1.08,0.778,2.273,1.687,3.531,2.684c0.174,1.701,0.347,3.391,0.519,5.078c-0.832-0.661-1.639-1.29-2.399-1.856
	c-0.736-0.544-1.435-1.077-2.076-1.55C56.064,13.084,55.89,11.421,55.714,9.751z M52.228,17.786c0.43,0.307,0.824,0.612,1.467,1.128
	c0.734,0.58,1.511,1.194,2.316,1.83c0.215,0.165,0.427,0.346,0.639,0.52c0.22,3.094,0.305,6.263,0.017,9.511
	c-0.181,2.006-0.49,4.024-0.996,6.05c-0.508,2.016-1.194,3.99-2.023,5.899c-0.875,2.024-1.922,3.957-3.075,5.825
	c-0.056-0.557-0.112-1.109-0.168-1.671c-0.018-0.222-0.079-0.392-0.131-0.408c-0.053-0.019-0.086,0.139-0.055,0.385
	c0.063,0.655,0.126,1.299,0.189,1.949c-0.984,1.574-2.035,3.105-3.147,4.588c-0.621,0.832-1.215,1.568-1.81,2.324
	c-0.595,0.752-1.186,1.498-1.773,2.239c-1.176,1.481-2.338,2.943-3.488,4.392c-2.308,2.892-4.575,5.732-6.837,8.566
	c-1.13,1.414-2.258,2.826-3.39,4.243c-1.109,1.402-2.189,2.816-3.252,4.25c-2.12,2.869-4.145,5.827-5.959,8.984
	c-1.867,3.228-3.414,6.519-4.587,9.872c-1.173,3.39-2.05,6.854-2.585,10.327c-1.083,6.953-0.815,13.987,0.703,20.811
	c1.503,6.814,4.218,13.505,7.901,19.565c1.876,3.015,4.08,5.827,6.587,8.382c2.51,2.55,5.347,4.832,8.532,6.664
	c1.269,0.701,5.271,3.195,12.174,4.97c3.445,0.833,7.628,1.541,12.279,1.619c4.659,0.078,9.853-0.47,15.183-2.008
	c1.353-0.322,2.652-0.875,4.007-1.341c0.684-0.218,1.332-0.538,1.995-0.834c0.663-0.298,1.331-0.598,2.003-0.9
	c0.657-0.333,1.297-0.709,1.955-1.064c0.644-0.377,1.339-0.683,1.956-1.123c0.631-0.418,1.266-0.84,1.904-1.263
	c0.318-0.214,0.646-0.417,0.958-0.642l0.909-0.722c4.921-3.781,9.302-8.751,12.688-14.61c3.423-5.868,5.784-12.503,6.905-19.512
	c1.143-7.007,1.095-14.33,0.341-21.611c-0.375-3.68-0.885-7.204-1.725-10.703c-0.82-3.496-1.879-6.936-3.108-10.301
	c-2.456-6.725-5.499-13.229-8.672-19.29c-6.388-12.149-13.968-22.51-21.316-30.57c-3.669-4.039-7.248-7.538-10.543-10.509
	c-2.255-1.992-4.341-3.745-6.26-5.277c-0.177-1.69-0.354-3.384-0.533-5.09c1.962,1.56,4.076,3.326,6.184,5.159
	c3.556,3.057,6.921,6.42,9.518,9.048c1.261,1.351,2.342,2.508,3.147,3.371c0.787,0.878,1.288,1.47,1.439,1.644
	c2.928,3.435,6.873,8.312,11.082,14.573c4.213,6.253,8.713,13.874,12.768,22.633c4.066,8.728,8.039,18.54,9.728,29.214
	c1.555,10.667,1.954,22.05-0.691,32.778c-0.672,2.668-1.464,5.304-2.497,7.835c-0.229,0.644-0.53,1.258-0.795,1.885
	c-0.271,0.625-0.535,1.252-0.863,1.849c-0.622,1.208-1.243,2.413-1.861,3.614c-2.694,4.678-5.981,8.909-9.743,12.447
	c-7.52,7.117-16.83,11.29-25.515,12.772c-4.345,0.781-8.534,0.991-12.398,0.831c-0.965-0.068-1.912-0.134-2.838-0.199
	c-0.925-0.1-1.827-0.24-2.71-0.353c-0.441-0.06-0.878-0.12-1.309-0.178c-0.426-0.086-0.847-0.171-1.262-0.254
	c-0.83-0.169-1.64-0.334-2.428-0.495c-6.256-1.525-10.754-3.803-13.446-5.368c-4.95-2.929-9.293-6.722-12.746-11.167
	c-3.489-4.416-6.23-9.335-8.365-14.455c-1.047-2.569-1.963-5.179-2.715-7.828c-0.723-2.657-1.292-5.345-1.692-8.055
	c-0.369-2.715-0.559-5.445-0.581-8.178c-0.004-2.733,0.205-5.46,0.561-8.169c0.783-5.404,2.21-10.744,4.435-15.774
	c2.225-5.036,5.137-9.786,8.384-14.347c3.244-4.567,6.83-8.962,10.343-13.495c3.526-4.525,7.132-9.078,10.728-13.761
	c2.311-3.132,4.324-6.38,5.772-9.811c0.726-1.712,1.318-3.463,1.75-5.24c0.427-1.778,0.694-3.581,0.846-5.387
	C52.971,26.178,52.667,22.008,52.228,17.786z M56.698,19.133c-0.127-1.208-0.254-2.425-0.381-3.64
	c0.742,0.588,1.541,1.235,2.368,1.874c0.707,0.543,1.403,1.147,2.119,1.747c0.139,1.6,0.252,3.244,0.31,4.929
	c-1.531-1.291-2.967-2.453-4.301-3.482C56.774,20.085,56.742,19.605,56.698,19.133z M50.58,50.57
	c0.125,1.198,0.249,2.39,0.373,3.578c0.043,0.452,0.077,0.892,0.111,1.332c-0.125,0.169-0.244,0.347-0.37,0.515
	c-0.664,0.887-1.245,1.607-1.843,2.366c-0.596,0.753-1.187,1.499-1.775,2.242c-1.178,1.483-2.34,2.946-3.492,4.396
	c-2.311,2.895-4.579,5.737-6.843,8.574c-1.128,1.412-2.255,2.822-3.386,4.237c-1.09,1.378-2.142,2.755-3.173,4.145
	c-2.054,2.779-3.987,5.607-5.692,8.573c-1.757,3.035-3.181,6.075-4.254,9.137c-1.086,3.135-1.902,6.354-2.397,9.556
	c-1.002,6.418-0.763,12.887,0.643,19.227c1.381,6.314,3.963,12.661,7.353,18.234c1.727,2.776,3.737,5.33,5.999,7.638
	c2.266,2.303,4.806,4.347,7.666,5.987c1.147,0.629,4.709,2.865,11.013,4.493c3.145,0.761,7.049,1.422,11.297,1.492
	c4.275,0.073,9.046-0.431,13.913-1.833c1.239-0.288,2.419-0.801,3.656-1.221c0.626-0.195,1.213-0.49,1.816-0.759
	c0.603-0.27,1.212-0.542,1.824-0.816c0.597-0.303,1.177-0.647,1.775-0.968c0.584-0.344,1.22-0.614,1.777-1.018
	c0.572-0.38,1.148-0.762,1.728-1.147c0.289-0.194,0.588-0.376,0.872-0.58l0.823-0.658c4.464-3.432,8.454-7.938,11.581-13.338
	c3.174-5.443,5.341-11.521,6.392-18.055c1.067-6.528,1.037-13.461,0.311-20.479c-0.172-1.733-0.406-3.574-0.654-5.19
	c-0.275-1.662-0.579-3.321-0.98-4.972c-0.775-3.303-1.78-6.579-2.962-9.815c-2.354-6.456-5.351-12.871-8.433-18.753
	c-6.22-11.825-13.58-21.88-20.715-29.705c-3.563-3.92-7.038-7.318-10.239-10.202c-1.02-0.901-1.996-1.738-2.949-2.545
	c-0.06-1.687-0.176-3.332-0.317-4.935c0.058,0.048,0.113,0.096,0.171,0.144c0.853,0.718,1.735,1.433,2.576,2.203
	c3.458,2.972,6.725,6.242,9.248,8.795c1.225,1.312,2.275,2.437,3.056,3.275c0.765,0.853,1.251,1.429,1.398,1.598
	c5.694,6.635,15.278,19.085,23.179,36.198c3.993,8.565,7.789,18.033,9.365,28.058l0.268,1.885l0.233,1.962
	c0.144,1.309,0.28,2.623,0.377,3.936c0.22,2.629,0.309,5.26,0.297,7.882c-0.006,2.623-0.153,5.233-0.456,7.808
	c-0.298,2.575-0.719,5.126-1.348,7.606c-0.627,2.48-1.359,4.923-2.318,7.264c-0.211,0.597-0.492,1.164-0.737,1.745
	c-0.251,0.578-0.494,1.159-0.802,1.713c-0.578,1.122-1.154,2.241-1.728,3.355c-2.499,4.327-5.516,8.2-8.951,11.429
	c-6.862,6.486-15.336,10.298-23.334,11.661c-3.996,0.717-7.858,0.91-11.416,0.763c-0.888-0.062-1.759-0.123-2.612-0.183
	c-0.855-0.093-1.695-0.226-2.515-0.329c-0.41-0.055-0.815-0.11-1.215-0.164c-0.393-0.08-0.781-0.159-1.164-0.237
	c-0.766-0.155-1.513-0.307-2.239-0.454c-5.744-1.406-9.797-3.465-12.233-4.874c-4.469-2.644-8.395-6.047-11.561-10.119
	c-3.197-4.04-5.757-8.603-7.77-13.424c-4.035-9.627-5.582-19.939-4.158-29.986c0.723-5.011,2.053-10.002,4.102-14.635
	c2.062-4.676,4.806-9.176,7.946-13.59c1.577-2.216,3.216-4.387,4.968-6.621c1.749-2.235,3.507-4.482,5.276-6.743
	s3.548-4.537,5.341-6.829c0.896-1.146,1.796-2.297,2.698-3.451c0.908-1.173,1.796-2.267,2.738-3.544
	c0.967-1.31,1.881-2.666,2.753-4.05C50.501,49.756,50.541,50.166,50.58,50.57z M61.376,25.274c3.202,2.788,6.213,5.801,8.56,8.175
	c1.188,1.274,2.207,2.366,2.966,3.18c0.742,0.828,1.213,1.387,1.356,1.551c5.523,6.447,14.816,18.521,22.509,35.189
	c3.921,8.402,7.541,17.527,9.002,26.902l0.25,1.766l0.225,1.896c0.138,1.263,0.27,2.529,0.362,3.788
	c0.211,2.525,0.294,5.031,0.281,7.515c-0.006,2.486-0.147,4.94-0.431,7.346c-0.28,2.407-0.671,4.776-1.255,7.067
	c-0.582,2.291-1.254,4.542-2.139,6.694c-0.192,0.55-0.454,1.07-0.679,1.605c-0.231,0.532-0.453,1.067-0.74,1.577
	c-0.533,1.036-1.065,2.068-1.595,3.097c-2.303,3.976-5.051,7.49-8.16,10.411c-6.205,5.853-13.842,9.306-21.153,10.549
	c-3.646,0.652-7.181,0.828-10.434,0.696c-0.811-0.057-1.607-0.112-2.386-0.166c-0.786-0.086-1.564-0.211-2.32-0.306
	c-0.378-0.05-0.753-0.1-1.122-0.149c-0.359-0.074-0.715-0.147-1.066-0.219c-0.702-0.141-1.385-0.279-2.051-0.414
	c-5.232-1.287-8.839-3.127-11.02-4.381c-8.045-4.619-13.769-12.422-17.55-21.464c-3.781-9.025-5.188-18.487-3.889-27.743
	c0.664-4.617,1.896-9.26,3.769-13.495c1.899-4.315,4.474-8.566,7.508-12.833c1.53-2.149,3.109-4.246,4.863-6.482
	c1.75-2.237,3.51-4.486,5.281-6.749c1.77-2.263,3.552-4.541,5.346-6.836c0.897-1.147,1.797-2.299,2.701-3.455l1.358-1.737
	l0.689-0.886l0.692-0.921c0.105,1.585,0.136,3.096,0.028,4.537c-0.146,2.019-0.547,3.826-1.349,5.731
	c-0.784,1.894-1.952,3.804-3.399,5.745c-0.342,0.463-0.759,0.984-1.153,1.485c-0.396,0.502-0.79,1.001-1.181,1.496
	c-0.784,0.989-1.558,1.965-2.326,2.932c-1.541,1.929-3.054,3.822-4.565,5.712c-0.759,0.947-1.518,1.894-2.279,2.844
	c-0.775,0.978-1.547,1.984-2.315,3.016c-1.532,2.069-3.047,4.267-4.448,6.699c-1.439,2.484-2.687,5.11-3.646,7.846
	c-0.938,2.698-1.634,5.432-2.069,8.216c-0.878,5.56-0.664,11.234,0.53,16.631c1.202,5.418,3.234,10.49,6.2,15.386
	c3.022,4.83,7.218,9.382,12.62,12.505c1.06,0.592,4.491,2.707,10.139,4.156c2.821,0.686,6.099,1.245,9.907,1.317
	c3.779,0.066,7.988-0.369,12.355-1.625c2.189-0.605,4.385-1.491,6.589-2.53c1.073-0.576,2.176-1.146,3.242-1.807
	c0.524-0.346,1.052-0.695,1.583-1.045c0.263-0.178,0.533-0.349,0.793-0.536l0.758-0.594c4.091-3.13,7.708-7.256,10.431-11.971
	c2.73-4.662,4.656-10.072,5.537-15.587c0.905-5.525,0.847-11.104,0.301-16.436c-0.259-2.607-0.666-5.443-1.308-8.109
	c-0.626-2.678-1.425-5.266-2.328-7.745c-1.819-4.973-3.93-9.479-6.213-13.85c-4.569-8.696-10.03-16.163-15.328-21.96
	c-5.288-5.822-10.324-10.04-14.002-12.777c-0.95-0.692-1.662-1.258-2.635-1.892c-0.878-0.566-1.554-0.941-2.085-1.236
	c-0.264-0.144-0.493-0.267-0.691-0.371c0.508-1.391,0.955-2.812,1.315-4.261c0.558-2.276,0.895-4.507,1.088-6.711
	C61.377,29.207,61.416,27.215,61.376,25.274z M58.702,42.487c0.563,0.378,1.328,0.891,2.249,1.511
	c0.761,0.521,1.436,1.061,2.128,1.618c0.117,1.205,0.234,2.401,0.349,3.588c0.051,0.492,0.102,0.979,0.152,1.469
	c-0.706-0.558-1.389-1.087-2.018-1.555c-0.896-0.652-1.657-1.249-2.424-1.737c-0.011-0.007-0.02-0.012-0.031-0.019
	c-0.048-0.477-0.095-0.948-0.143-1.427c-0.019-0.223-0.081-0.395-0.132-0.412c-0.05-0.018-0.082,0.142-0.051,0.39
	c0.038,0.447,0.08,0.886,0.122,1.325c-0.643-0.401-1.217-0.726-1.682-0.983c-0.043-0.024-0.073-0.039-0.115-0.062
	c0.265-0.557,0.545-1.102,0.79-1.674C58.182,43.852,58.447,43.172,58.702,42.487z M55.648,56.206c0.237,0.19,0.463,0.37,0.709,0.568
	c1.028,0.851,2.13,1.764,3.203,2.722c0.078,0.067,0.152,0.138,0.229,0.206c-0.017,0.582-0.04,1.167-0.088,1.759
	c-0.208,2.783-0.903,5.73-2.066,8.391c-1.143,2.685-2.688,5.131-4.386,7.405c-3.257,4.189-6.268,7.933-9.312,11.738
	c-0.756,0.944-1.512,1.887-2.27,2.833c-0.737,0.929-1.453,1.862-2.156,2.807c-1.401,1.889-2.731,3.825-3.915,5.877
	c-1.218,2.099-2.221,4.223-2.98,6.377c-0.764,2.189-1.339,4.432-1.692,6.674c-0.714,4.491-0.56,9.033,0.41,13.463
	c2.011,8.818,6.661,17.643,14.816,22.388c0.816,0.447,3.367,2.047,7.817,3.203c2.22,0.542,4.941,1.008,7.942,1.064
	c3.011,0.057,6.372-0.29,9.816-1.275c1.73-0.47,3.445-1.172,5.17-1.972c0.832-0.456,1.695-0.892,2.524-1.405
	c0.407-0.269,0.817-0.54,1.229-0.812c0.205-0.138,0.417-0.267,0.619-0.412l0.586-0.465c3.177-2.431,6.013-5.63,8.218-9.427
	c2.233-3.812,3.771-8.106,4.51-12.674c0.753-4.566,0.732-9.367,0.241-14.173c-0.246-2.441-0.575-4.732-1.123-7.028
	c-0.535-2.292-1.228-4.553-2.037-6.773c-1.614-4.434-3.635-8.764-5.735-12.776c-4.229-8.049-9.249-14.904-14.12-20.231
	c-2.62-2.883-5.167-5.325-7.499-7.371c-0.055-1.316-0.152-2.589-0.267-3.803c-0.043-0.4-0.087-0.805-0.13-1.206
	c0.426,0.364,0.852,0.728,1.28,1.103c2.373,2.054,4.62,4.312,6.353,6.075c0.841,0.906,1.563,1.683,2.1,2.262
	c0.517,0.596,0.857,0.988,0.958,1.104c3.871,4.614,10.417,13.23,15.778,24.983c2.69,5.845,5.312,12.404,6.41,19.513
	c1.011,7.116,1.249,14.7-0.528,21.814c-0.451,1.77-0.981,3.518-1.671,5.194c-0.153,0.427-0.354,0.833-0.531,1.249
	c-0.181,0.414-0.357,0.83-0.576,1.225c-0.415,0.8-0.828,1.599-1.241,2.394c-1.795,3.097-3.978,5.893-6.472,8.229
	c-4.985,4.697-11.143,7.444-16.89,8.417c-2.875,0.513-5.647,0.649-8.203,0.541c-2.557-0.104-4.905-0.541-6.979-0.981
	c-4.137-1.008-7.106-2.507-8.888-3.531c-3.277-1.918-6.159-4.41-8.459-7.343c-2.324-2.914-4.159-6.171-5.593-9.57
	c-2.88-6.789-4.033-14.202-3.032-21.42c0.507-3.599,1.443-7.16,2.911-10.516c1.468-3.361,3.399-6.539,5.555-9.595
	c2.154-3.059,4.541-6.01,6.877-9.052c2.345-3.036,4.72-6.11,7.135-9.235c1.537-2.102,2.866-4.286,3.809-6.587
	c0.962-2.294,1.493-4.692,1.655-7.1C55.783,59.436,55.749,57.824,55.648,56.206z M59.571,53.851c0.138,1.571,0.233,3.187,0.23,4.845
	c-1.279-1.065-2.475-2.003-3.538-2.789c-0.221-0.161-0.446-0.326-0.666-0.489c-0.126-1.65-0.317-3.308-0.506-4.986
	c0.329,0.222,0.688,0.464,1.082,0.73c0.721,0.492,1.759,1.381,2.85,2.233C59.201,53.542,59.39,53.701,59.571,53.851z M60.022,59.91
	c1.35,1.194,2.636,2.431,3.785,3.577c-0.143,1.089-0.338,2.193-0.616,3.322c-0.413,1.663-0.969,3.277-1.63,4.812
	c-1.322,3.081-3.057,5.795-4.879,8.235c-0.47,0.629-0.849,1.101-1.25,1.611c-0.398,0.504-0.794,1.005-1.186,1.502
	c-0.788,0.993-1.565,1.973-2.335,2.945c-1.548,1.937-3.067,3.839-4.584,5.737c-0.755,0.942-1.509,1.883-2.266,2.827
	c-0.718,0.905-1.406,1.801-2.076,2.702c-1.335,1.799-2.573,3.605-3.648,5.467c-1.108,1.907-1.987,3.778-2.648,5.642
	c-0.677,1.935-1.191,3.932-1.504,5.904c-0.633,3.956-0.508,7.933,0.35,11.879c0.835,3.919,2.471,7.959,4.555,11.393
	c2.147,3.401,4.835,6.28,8.259,8.244c0.694,0.375,2.805,1.717,6.656,2.726c1.92,0.47,4.362,0.89,6.959,0.938
	c2.628,0.053,5.565-0.251,8.546-1.1c6.01-1.614,11.941-5.801,15.823-12.497c1.984-3.387,3.328-7.124,3.997-11.218
	c0.677-4.086,0.675-8.499,0.21-13.042c-0.239-2.358-0.529-4.377-1.031-6.487c-0.489-2.099-1.129-4.197-1.891-6.288
	c-1.512-4.165-3.488-8.407-5.496-12.238c-4.059-7.726-8.858-14.276-13.516-19.366c-1.513-1.664-2.998-3.164-4.433-4.535
	c0.022-0.223,0.047-0.447,0.065-0.669c0.108-1.354,0.123-2.655,0.099-3.92c1.529,1.428,2.949,2.856,4.12,4.046
	c0.805,0.868,1.495,1.612,2.009,2.166c0.495,0.571,0.82,0.946,0.916,1.058c3.701,4.426,9.955,12.666,15.108,23.974
	c2.617,5.682,5.063,11.898,6.047,18.357l0.167,1.216l0.148,1.287c0.091,0.858,0.177,1.718,0.237,2.576
	c0.138,1.718,0.188,3.429,0.174,5.128c-0.025,3.399-0.401,6.736-1.193,9.907c-0.406,1.581-0.877,3.136-1.493,4.624
	c-0.135,0.379-0.316,0.739-0.473,1.109c-0.161,0.367-0.316,0.737-0.514,1.089c-0.37,0.714-0.74,1.426-1.108,2.136
	c-1.599,2.746-3.513,5.184-5.68,7.21c-4.328,4.065-9.649,6.452-14.709,7.306c-2.526,0.449-4.97,0.568-7.221,0.474
	c-0.562-0.04-1.112-0.078-1.651-0.116c-0.543-0.06-1.078-0.145-1.599-0.211c-0.261-0.035-0.519-0.069-0.773-0.103
	c-0.249-0.051-0.494-0.101-0.737-0.151c-0.485-0.098-0.958-0.193-1.418-0.286c-3.625-0.889-6.148-2.168-7.675-3.037
	c-5.647-3.204-9.655-8.641-12.272-14.835c-2.626-6.187-3.638-12.75-2.762-19.176c0.447-3.205,1.286-6.418,2.578-9.377
	c1.306-3.001,3.067-5.93,5.117-8.838c1.032-1.463,2.101-2.893,3.267-4.393c1.164-1.5,2.334-3.009,3.511-4.527
	c2.362-3.057,4.753-6.152,7.184-9.299c1.663-2.27,3.178-4.722,4.299-7.416c1.14-2.67,1.817-5.632,2.01-8.42
	C59.992,60.959,60.007,60.435,60.022,59.91z M65.374,65.065c0.769,0.83,1.428,1.541,1.919,2.071
	c0.472,0.546,0.782,0.905,0.875,1.012c3.53,4.238,9.493,12.102,14.437,22.965c2.545,5.519,4.814,11.392,5.684,17.201l0.149,1.096
	l0.139,1.222c0.085,0.813,0.167,1.625,0.221,2.429c0.129,1.614,0.173,3.201,0.159,4.762c-0.025,3.125-0.374,6.112-1.075,8.906
	c-0.362,1.393-0.772,2.755-1.314,4.053c-0.116,0.332-0.278,0.646-0.415,0.968c-0.141,0.321-0.274,0.644-0.452,0.953
	c-0.326,0.628-0.651,1.254-0.974,1.878c-1.403,2.395-3.048,4.475-4.888,6.192c-3.67,3.433-8.155,5.46-12.528,6.195
	c-2.176,0.384-4.294,0.486-6.239,0.406c-0.485-0.034-0.96-0.067-1.425-0.1c-0.478-0.064-0.946-0.126-1.404-0.187
	c-0.229-0.03-0.456-0.06-0.68-0.089c-0.216-0.045-0.428-0.089-0.638-0.133c-0.42-0.084-0.831-0.166-1.229-0.246
	c-3.113-0.77-5.191-1.83-6.462-2.543c-4.649-2.613-8.096-7.138-10.492-12.756c-2.372-5.586-3.244-11.299-2.493-16.933
	c0.387-2.812,1.128-5.676,2.245-8.237c1.143-2.641,2.735-5.32,4.68-8.081c0.984-1.396,1.994-2.752,3.162-4.255
	c1.166-1.502,2.337-3.013,3.516-4.533s2.365-3.05,3.559-4.592c0.597-0.771,1.196-1.544,1.798-2.321l0.904-1.167l0.462-0.6
	l0.51-0.683c1.789-2.439,3.491-5.158,4.789-8.245c0.649-1.537,1.194-3.156,1.597-4.822c0.254-1.064,0.435-2.104,0.572-3.131
	C64.513,64.191,64.961,64.645,65.374,65.065z M63.985,61.901c-0.014,0.158-0.033,0.317-0.049,0.475
	c-1.362-1.291-2.669-2.451-3.897-3.482c0.002-1.663-0.098-3.28-0.241-4.854c0.847,0.703,1.714,1.431,2.575,2.198
	c0.587,0.509,1.165,1.03,1.729,1.553C64.126,59.115,64.105,60.48,63.985,61.901z M63.828,53.06c0.106,1.157,0.191,2.37,0.242,3.62
	c-1.577-1.374-3.044-2.56-4.358-3.561c-0.123-1.141-0.248-2.285-0.372-3.438c-0.054-0.542-0.11-1.092-0.164-1.638
	c1.356,1.02,2.901,2.269,4.51,3.64C63.733,52.141,63.781,52.603,63.828,53.06z M58.566,47.582c0.125,0.091,0.268,0.205,0.398,0.301
	c0.167,1.681,0.355,3.34,0.525,5.067c-0.191-0.145-0.393-0.301-0.577-0.438c-0.842-0.612-1.653-1.24-2.213-1.582
	c-0.561-0.354-1.109-0.661-1.594-0.93c0.66-1.13,1.275-2.299,1.857-3.498C57.414,46.808,57.949,47.167,58.566,47.582z
	 M55.365,55.247c-0.468-0.344-0.885-0.647-1.103-0.768c-0.45-0.279-0.976-0.573-1.458-0.838c0.721-1.057,1.421-2.14,2.086-3.259
	C55.069,52.019,55.246,53.638,55.365,55.247z M53.788,54.745c0.354,0.251,0.515,0.382,1.069,0.829
	c0.177,0.141,0.374,0.299,0.558,0.446c0.102,1.672,0.13,3.336,0.002,5c-0.177,2.401-0.725,4.778-1.707,7.061
	c-0.964,2.289-2.32,4.468-3.893,6.575c-3.191,4.104-6.241,7.899-9.268,11.681c-3.036,3.763-6.094,7.556-8.691,12.038
	c-5.374,9.168-6.908,19.78-4.724,29.604c1.079,4.918,2.98,9.646,5.652,14.055c2.731,4.354,6.423,8.348,11.167,11.085
	c0.938,0.52,3.929,2.377,8.978,3.679c2.521,0.614,5.52,1.126,8.925,1.191c3.395,0.061,7.18-0.33,11.086-1.45
	c1.96-0.537,3.915-1.332,5.879-2.251c0.953-0.516,1.935-1.019,2.883-1.606c0.466-0.308,0.934-0.617,1.406-0.929
	c0.234-0.158,0.476-0.308,0.706-0.474l0.672-0.53c3.634-2.781,6.86-6.443,9.325-10.699c2.481-4.237,4.213-9.089,5.023-14.13
	c0.829-5.045,0.79-10.236,0.271-15.304c-0.253-2.524-0.62-5.087-1.215-7.569c-0.581-2.485-1.326-4.91-2.183-7.259
	c-1.716-4.704-3.783-9.122-5.974-13.313c-4.399-8.372-9.64-15.534-14.724-21.095c-4.078-4.489-7.99-7.969-11.211-10.533
	c-0.058-0.54-0.116-1.077-0.175-1.62c-0.115-1.142-0.23-2.292-0.347-3.451c0.351,0.283,0.706,0.569,1.085,0.864
	c1.168,0.961,2.418,1.995,3.639,3.081c2.472,2.139,4.816,4.49,6.622,6.329c0.878,0.945,1.63,1.754,2.19,2.357
	c0.54,0.621,0.894,1.029,1,1.151c4.042,4.801,10.879,13.793,16.449,25.992c1.404,3.018,2.759,6.226,3.965,9.675
	c1.198,3.444,2.212,7.128,2.809,10.993l0.203,1.454l0.165,1.419c0.102,0.95,0.198,1.905,0.267,2.871
	c0.155,1.926,0.22,3.886,0.206,5.861c-0.024,3.947-0.456,7.983-1.428,11.909c-0.496,1.958-1.086,3.899-1.85,5.765
	c-0.172,0.474-0.392,0.927-0.588,1.389c-0.201,0.46-0.398,0.922-0.637,1.361c-0.459,0.887-0.918,1.771-1.374,2.652
	c-1.991,3.449-4.443,6.602-7.264,9.247c-5.642,5.329-12.637,8.435-19.071,9.529c-3.224,0.578-6.323,0.73-9.185,0.609
	c-2.879-0.121-5.445-0.594-7.779-1.094c-4.649-1.127-8.063-2.845-10.101-4.025c-3.758-2.203-7.058-5.085-9.645-8.391
	c-2.616-3.29-4.632-6.903-6.188-10.601c-0.766-1.86-1.438-3.756-1.993-5.691c-0.536-1.941-0.959-3.912-1.259-5.906
	c-0.279-1.998-0.425-4.013-0.446-6.031c-0.009-2.019,0.139-4.035,0.397-6.036c0.567-3.992,1.6-7.902,3.244-11.655
	c1.631-3.722,3.731-7.149,5.992-10.352c1.127-1.596,2.314-3.176,3.475-4.67c1.16-1.496,2.327-3,3.501-4.514
	c2.329-3.015,4.688-6.068,7.086-9.172c1.411-1.933,2.553-3.849,3.32-5.757c0.784-1.918,1.171-3.751,1.302-5.781
	c0.104-1.541,0.052-3.155-0.079-4.851c0.437-0.596,0.864-1.207,1.288-1.822C52.997,54.202,53.417,54.483,53.788,54.745z
	 M51.259,55.208c-0.03-0.346-0.057-0.69-0.092-1.043c-0.047-0.436-0.095-0.876-0.143-1.314c0.152,0.117,0.385,0.284,0.688,0.491
	c0.177,0.122,0.383,0.26,0.598,0.403C51.965,54.24,51.613,54.725,51.259,55.208z M58.455,22.766
	c0.828,0.698,1.687,1.393,2.502,2.141c0.063,0.054,0.124,0.11,0.187,0.164c0.04,1.993-0.005,4.042-0.193,6.146
	c-0.202,2.206-0.546,4.44-1.118,6.717c-0.359,1.413-0.802,2.799-1.302,4.158c-0.405-0.203-0.646-0.302-0.704-0.278
	c-0.033,0.017,0.19,0.196,0.622,0.5c-0.276,0.736-0.563,1.467-0.875,2.182c-0.23,0.53-0.495,1.033-0.743,1.549
	c-0.79-0.424-1.254-0.646-1.333-0.611c-0.052,0.028,0.398,0.347,1.199,0.89c-0.535,1.094-1.101,2.162-1.705,3.2
	c-0.113-1.031-0.222-2.068-0.307-3.117c-0.019-0.223-0.08-0.393-0.132-0.41c-0.052-0.019-0.084,0.14-0.053,0.387
	c0.09,1.153,0.208,2.293,0.33,3.426c-0.006,0.01-0.011,0.02-0.017,0.03c-0.961-0.522-1.566-0.829-1.65-0.788
	c-0.042,0.014,0.269,0.254,0.829,0.639c0.186,0.126,0.412,0.278,0.655,0.442c-0.685,1.145-1.398,2.261-2.144,3.343
	c-0.696-0.378-1.23-0.658-1.494-0.763c-0.077-0.706-0.154-1.41-0.231-2.121c-0.05-0.497-0.101-1.003-0.151-1.502
	c1.258-2.022,2.405-4.12,3.344-6.331c0.814-1.907,1.487-3.881,1.984-5.898c0.493-2.027,0.795-4.044,0.967-6.049
	c0.272-3.195,0.184-6.312-0.037-9.357C57.402,21.885,57.919,22.326,58.455,22.766z M51.62,12.211
	c0.755,0.492,1.688,1.088,2.657,1.752c0.539,0.362,1.158,0.837,1.818,1.357c0.129,1.259,0.258,2.518,0.386,3.771
	c0.038,0.428,0.066,0.862,0.101,1.293c-0.306-0.235-0.626-0.486-0.921-0.706c-1.219-0.9-2.453-1.868-3.157-2.302
	c-0.112-0.072-0.226-0.138-0.339-0.209C51.989,15.525,51.801,13.874,51.62,12.211z M48.11,19.849
	c-0.181-1.723-0.362-3.452-0.545-5.192c0.21,0.158,0.574,0.412,1.094,0.759c0.847,0.568,2.085,1.343,3.225,2.128
	c0.045,0.031,0.084,0.059,0.126,0.089c0.434,4.264,0.732,8.477,0.373,12.701c-0.16,1.805-0.435,3.608-0.873,5.383
	c-0.444,1.774-1.047,3.523-1.787,5.236c-1.476,3.432-3.531,6.686-5.894,9.838c-4.787,6.129-9.346,11.803-13.865,17.464
	c-4.535,5.634-9.087,11.307-12.952,17.997c-7.994,13.68-10.22,29.495-6.931,44.1c1.625,7.314,4.472,14.349,8.449,20.896
	c2.025,3.254,4.424,6.323,7.175,9.125c2.753,2.797,5.888,5.317,9.398,7.341c0.336,0.227,0.881,0.528,1.618,0.906
	c0.366,0.193,0.778,0.41,1.233,0.65c0.453,0.246,0.953,0.507,1.52,0.738c1.128,0.473,2.397,1.112,3.914,1.598
	c0.753,0.255,1.535,0.568,2.38,0.817c0.85,0.235,1.74,0.481,2.67,0.738c3.745,0.905,8.208,1.659,13.262,1.745
	c5.042,0.082,10.661-0.51,16.453-2.183c1.467-0.355,2.886-0.949,4.358-1.461c0.743-0.241,1.45-0.586,2.173-0.909
	c0.722-0.326,1.45-0.654,2.183-0.985c0.717-0.363,1.418-0.771,2.135-1.159c0.704-0.411,1.458-0.751,2.134-1.229
	c0.689-0.457,1.383-0.917,2.081-1.38c0.347-0.235,0.704-0.458,1.045-0.704l0.994-0.787c5.378-4.131,10.149-9.564,13.794-15.881
	c3.672-6.293,6.227-13.486,7.418-20.968c1.219-7.487,1.153-15.198,0.371-22.742c-0.19-1.892-0.425-3.761-0.715-5.652
	c-0.31-1.879-0.657-3.751-1.103-5.592c-0.866-3.689-1.977-7.292-3.254-10.787c-2.558-6.995-5.646-13.587-8.911-19.827
	c-6.558-12.472-14.359-23.139-21.92-31.435c-3.776-4.157-7.458-7.759-10.848-10.815c-3.419-3.023-6.495-5.555-9.131-7.524
	c-0.221-0.163-0.43-0.32-0.641-0.479c-0.171-1.632-0.342-3.269-0.516-4.925c-0.006-0.065-0.014-0.123-0.023-0.181
	c0.59,0.425,1.206,0.894,1.728,1.319c0.798,0.629,1.641,1.295,2.516,1.985c0.883,0.679,1.749,1.448,2.658,2.195
	c0.901,0.758,1.833,1.515,2.723,2.327c3.655,3.141,7.117,6.599,9.787,9.302c1.297,1.389,2.409,2.579,3.237,3.466
	c0.81,0.903,1.326,1.511,1.481,1.69c3.013,3.53,7.074,8.546,11.403,14.981c4.334,6.425,8.958,14.255,13.118,23.235
	c2.1,4.46,4.124,9.202,5.917,14.269c1.782,5.062,3.285,10.456,4.174,16.101c0.101,0.707,0.202,1.415,0.303,2.124l0.25,2.093
	c0.155,1.401,0.302,2.81,0.407,4.23c0.238,2.837,0.341,5.717,0.328,8.614c-0.006,2.897-0.167,5.818-0.505,8.732
	c-0.334,2.912-0.814,5.825-1.534,8.684c-0.717,2.856-1.568,5.686-2.676,8.405c-0.248,0.691-0.568,1.352-0.853,2.026
	c-0.291,0.671-0.576,1.345-0.925,1.985c-0.667,1.294-1.332,2.585-1.995,3.872c-2.89,5.029-6.447,9.618-10.535,13.466
	c-8.177,7.749-18.324,12.281-27.696,13.884c-4.695,0.846-9.21,1.072-13.381,0.898c-1.042-0.073-2.063-0.145-3.064-0.215
	c-0.993-0.107-1.958-0.255-2.905-0.377c-0.473-0.065-0.94-0.129-1.402-0.193c-0.459-0.092-0.912-0.182-1.36-0.272
	c-0.895-0.183-1.77-0.347-2.616-0.535c-6.768-1.644-11.712-4.141-14.659-5.862c-5.431-3.214-10.192-7.398-13.931-12.215
	c-3.781-4.791-6.704-10.066-8.96-15.486c-1.11-2.724-2.081-5.497-2.881-8.322c-0.771-2.833-1.377-5.708-1.804-8.611
	c-0.395-2.908-0.598-5.839-0.619-8.772c-0.003-2.934,0.222-5.863,0.607-8.768c0.843-5.798,2.367-11.486,4.768-16.914
	c2.387-5.397,5.469-10.395,8.821-15.104c1.673-2.349,3.428-4.669,5.176-6.897c1.745-2.231,3.5-4.473,5.266-6.73
	c1.765-2.257,3.542-4.528,5.331-6.816c0.894-1.144,1.792-2.292,2.693-3.445c0.885-1.143,1.847-2.335,2.656-3.437
	c2.185-2.964,4.012-5.943,5.282-8.982c1.298-3.045,1.993-6.072,2.243-9.308C48.611,26.7,48.437,23.349,48.11,19.849z
	 M124.973,128.62c-1.333,8.428-4.276,16.736-8.445,23.88c-4.162,7.234-9.715,13.595-16.007,18.425l-1.166,0.916
	c-0.399,0.288-0.814,0.553-1.219,0.828c-0.816,0.541-1.628,1.079-2.434,1.613c-0.795,0.553-1.667,0.963-2.491,1.441
	c-0.837,0.455-1.659,0.927-2.496,1.35c-0.853,0.388-1.7,0.772-2.541,1.154c-0.843,0.376-1.671,0.771-2.531,1.058
	c-1.707,0.603-3.366,1.278-5.06,1.7c-6.715,1.943-13.183,2.623-18.992,2.532c-5.861-0.101-10.88-0.948-15.227-1.997
	c-1.079-0.298-2.113-0.584-3.099-0.856c-0.982-0.29-1.905-0.649-2.784-0.95c-1.767-0.575-3.277-1.315-4.601-1.878
	c-0.665-0.276-1.258-0.582-1.796-0.871c-0.54-0.284-1.027-0.541-1.461-0.769c-0.872-0.45-1.516-0.81-1.917-1.075
	c-4.158-2.407-7.89-5.403-11.129-8.694c-3.24-3.296-6.028-6.881-8.351-10.612c-4.566-7.522-7.677-15.245-9.546-23.558
	c-1.854-8.275-2.211-17.006-0.883-25.563c0.658-4.286,1.716-8.488,3.15-12.64c1.472-4.225,3.388-8.27,5.586-12.076
	c2.142-3.727,4.443-7.077,6.76-10.216c1.16-1.566,2.326-3.089,3.491-4.564c1.137-1.422,2.269-2.84,3.403-4.259
	c2.256-2.826,4.516-5.657,6.818-8.541c1.148-1.444,2.306-2.902,3.479-4.379c0.585-0.739,1.174-1.483,1.768-2.233
	c0.588-0.746,1.219-1.532,1.713-2.197c2.112-2.82,3.789-5.537,4.906-8.178c1.143-2.666,1.71-5.107,1.944-7.959
	c0.236-2.823,0.099-5.905-0.209-9.274c-0.367-3.585-0.737-7.188-1.113-10.857c-0.045-0.367-0.021-0.601,0.032-0.572
	c0.054,0.028,0.123,0.284,0.154,0.615c0.386,3.671,0.764,7.272,1.14,10.847c0.318,3.363,0.47,6.444,0.248,9.272
	c-0.218,2.857-0.768,5.319-1.888,7.988c-1.093,2.646-2.733,5.358-4.792,8.153l-0.596,0.796l-0.666,0.857l-1.353,1.731
	c-0.901,1.152-1.798,2.299-2.691,3.442c-1.788,2.285-3.563,4.554-5.326,6.809c-1.764,2.254-3.517,4.495-5.261,6.723
	c-1.745,2.225-3.56,4.62-5.28,7.035c-3.458,4.856-6.709,10.104-9.259,15.861c-2.577,5.825-4.198,11.862-5.101,18.053
	c-0.414,3.101-0.655,6.231-0.653,9.367c0.019,3.135,0.235,6.266,0.656,9.368c0.452,3.096,1.096,6.156,1.915,9.166
	c0.847,3,1.875,5.938,3.047,8.816c2.379,5.72,5.483,11.351,9.556,16.518c4.026,5.189,9.203,9.763,15.116,13.262
	c3.202,1.877,8.591,4.593,15.871,6.356c0.908,0.202,1.844,0.38,2.804,0.575c0.48,0.095,0.966,0.191,1.458,0.289
	c0.492,0.068,0.991,0.137,1.495,0.207c1.011,0.132,2.037,0.287,3.1,0.401c1.074,0.076,2.171,0.153,3.29,0.232
	c4.477,0.188,9.319-0.056,14.363-0.966c1.254-0.265,2.536-0.484,3.813-0.811c1.271-0.356,2.558-0.717,3.86-1.082
	c1.275-0.461,2.565-0.928,3.869-1.399c1.289-0.512,2.556-1.127,3.852-1.704c5.109-2.475,10.077-5.832,14.483-9.998
	c4.415-4.157,8.241-9.103,11.327-14.484c0.707-1.372,1.416-2.749,2.128-4.13c0.369-0.683,0.674-1.403,0.986-2.121
	c0.306-0.72,0.645-1.428,0.911-2.166c1.182-2.909,2.093-5.931,2.855-8.976c0.765-3.049,1.275-6.142,1.627-9.223
	c0.357-3.083,0.524-6.16,0.53-9.194c0.012-3.035-0.097-6.04-0.344-8.981c-0.11-1.475-0.262-2.931-0.422-4.378
	c-0.086-0.721-0.172-1.441-0.258-2.159c-0.107-0.749-0.214-1.497-0.321-2.243c-0.942-5.963-2.524-11.615-4.373-16.863
	c-1.864-5.26-3.937-10.108-6.082-14.663c-4.264-9.2-9.013-17.238-13.467-23.836c-4.449-6.608-8.625-11.762-11.724-15.388
	c-0.16-0.184-0.69-0.808-1.523-1.736c-0.851-0.911-1.994-2.134-3.327-3.561c-2.743-2.778-6.303-6.329-10.056-9.555
	c-0.915-0.834-1.87-1.611-2.796-2.389c-0.934-0.767-1.824-1.555-2.73-2.253c-0.898-0.708-1.764-1.391-2.583-2.037
	c-0.721-0.588-1.83-1.417-2.668-1.98c-1.717-1.163-2.881-1.88-3.651-2.404c-0.761-0.511-1.136-0.793-1.093-0.806
	c0.119-0.023,0.842,0.358,2.398,1.244c0.787,0.455,1.805,1.036,3.161,1.929c0.339,0.226,0.695,0.467,1.072,0.737
	c0.31,0.229,0.63,0.465,0.96,0.708c0.619,0.464,1.277,0.956,1.97,1.476c2.775,2.077,6.021,4.749,9.628,7.942
	c3.577,3.227,7.467,7.033,11.456,11.427c7.988,8.766,16.231,20.044,23.128,33.163c3.45,6.6,6.628,13.368,9.39,20.902
	c1.371,3.754,2.588,7.684,3.545,11.759c0.491,2.032,0.881,4.116,1.226,6.213c0.161,1.058,0.319,2.12,0.431,3.098
	c0.127,0.999,0.249,2,0.345,3.015C126.241,111.685,126.344,120.174,124.973,128.62z M62.252,79.189
	c-0.061,0.043,0.623,0.554,1.681,1.308c1.061,0.751,2.299,1.833,3.586,2.967c0.005,0.005,0.011,0.01,0.016,0.015
	c0.029,0.35,0.054,0.703,0.089,1.049c0.071,0.674,0.142,1.345,0.212,2.013c0.063,0.646,0.12,1.35,0.157,2.093
	c-1.659-1.61-3.199-2.867-4.473-3.802c-0.061-0.57-0.116-1.136-0.156-1.731c-0.007-0.113-0.059-0.196-0.109-0.202
	c-0.05-0.007-0.09,0.076-0.073,0.2c0.034,0.542,0.081,1.061,0.131,1.581c-0.073-0.053-0.151-0.112-0.222-0.162
	c-0.888-0.669-1.693-1.075-2.236-1.361c-0.549-0.28-0.871-0.401-0.939-0.346c-0.058,0.045,0.547,0.507,1.49,1.178
	c0.595,0.42,1.282,0.988,2,1.606c0.045,0.424,0.091,0.854,0.138,1.308c0.112,1.125,0.202,2.337,0.168,3.629
	c-1.215-1.085-2.335-1.96-3.268-2.619c-0.357-0.268-0.684-0.474-0.986-0.65c-0.135-1.204-0.301-2.427-0.379-3.689
	c-0.007-0.111-0.058-0.195-0.108-0.2c-0.047-0.009-0.087,0.073-0.07,0.196c0.07,1.219,0.217,2.402,0.338,3.565
	c-0.311-0.172-0.587-0.309-0.813-0.424c-0.488-0.238-0.775-0.338-0.841-0.281c-0.056,0.046,0.472,0.46,1.3,1.048
	c0.127,0.089,0.271,0.203,0.41,0.309c0.094,1.022,0.161,2.032,0.108,3.033c-0.016,0.52-0.084,1.038-0.185,1.552
	c-0.509-0.402-0.989-0.76-1.423-1.063c-0.775-0.58-1.372-0.834-1.799-1.042c-0.305-0.141-0.517-0.218-0.638-0.23
	c-0.014-0.714-0.079-1.498-0.186-2.412c-0.067-0.575-0.134-1.152-0.202-1.733c-0.066-0.611-0.123-1.228-0.168-1.851
	c-0.006-0.111-0.057-0.193-0.108-0.199c-0.05-0.004-0.091,0.077-0.073,0.199c0.041,0.623,0.094,1.24,0.155,1.852
	c0.062,0.581,0.124,1.159,0.186,1.735c0.112,1.065,0.181,1.973,0.158,2.751c-0.027,0.793-0.111,1.385-0.387,2.142
	c-0.267,0.74-0.73,1.565-1.38,2.452c-0.186,0.243-0.371,0.484-0.555,0.723c-0.197,0.252-0.393,0.501-0.587,0.75
	c-0.391,0.495-0.777,0.983-1.159,1.467c-0.771,0.962-1.529,1.907-2.285,2.85l-1.148,1.421c-0.4,0.5-0.804,1.022-1.208,1.56
	c-0.807,1.08-1.62,2.247-2.386,3.565c-0.784,1.345-1.482,2.793-2.025,4.319c-0.525,1.487-0.916,2.988-1.167,4.53
	c-0.505,3.076-0.407,6.235,0.235,9.217c0.651,3.001,1.728,5.745,3.376,8.483c1.675,2.698,4.071,5.303,7.165,7.075
	c0.603,0.336,2.569,1.549,5.742,2.374c1.585,0.392,3.388,0.707,5.531,0.758c2.117,0.045,4.476-0.187,6.94-0.885
	c2.458-0.69,5.031-1.873,7.355-3.662c2.331-1.768,4.39-4.107,5.922-6.741c1.529-2.588,2.625-5.635,3.12-8.688
	c0.511-3.061,0.482-6.097,0.2-8.931c-0.129-1.357-0.353-2.948-0.7-4.401c-0.339-1.463-0.768-2.863-1.247-4.186
	c-0.969-2.662-2.05-4.974-3.249-7.277c-2.39-4.559-5.268-8.489-8.067-11.527c-1.98-2.163-3.89-3.887-5.533-5.211
	c-0.02-0.071-0.051-0.126-0.09-0.13c-0.014-0.002-0.023,0.018-0.034,0.03c-0.629-0.503-1.221-0.952-1.756-1.335
	c-0.944-0.714-1.853-1.196-2.454-1.521C62.679,79.279,62.323,79.135,62.252,79.189z M59.259,93.415
	c1.273,1.16,2.437,2.385,3.105,3.132c-0.598,1.333-1.345,2.541-2.147,3.628c-1.647,2.146-3.135,3.994-4.673,5.903l-1.14,1.41
	c-0.362,0.452-0.71,0.9-1.049,1.35c-0.676,0.9-1.305,1.805-1.853,2.743c-0.564,0.96-1.016,1.905-1.359,2.85
	c-0.351,0.978-0.621,1.988-0.791,2.989c-0.342,2.007-0.303,4.034,0.115,6.049c0.407,2.002,1.22,4.058,2.28,5.821
	c1.091,1.745,2.482,3.235,4.258,4.235c0.359,0.191,1.445,0.889,3.419,1.421c1.994,0.513,4.863,0.839,7.966-0.03
	c3.102-0.807,6.206-2.964,8.229-6.412c1.032-1.737,1.739-3.67,2.094-5.775c0.359-2.102,0.366-4.36,0.14-6.668
	c-0.116-1.191-0.262-2.238-0.515-3.319c-0.247-1.077-0.571-2.15-0.956-3.214c-0.765-2.122-1.756-4.259-2.771-6.202
	c-1.749-3.338-3.78-6.239-5.812-8.615c0.224-1.02,0.372-2.042,0.422-2.978c0.033-0.514,0.046-1.01,0.047-1.49
	c0.618,0.668,1.036,1.153,1.107,1.26c1.86,2.385,5.045,6.753,7.633,12.648c1.301,2.935,2.561,6.213,3.062,9.724
	c0.462,3.533,0.538,7.283-0.363,10.751c-0.878,3.461-2.745,6.632-5.175,8.867c-2.428,2.255-5.404,3.563-8.187,4.023
	c-2.79,0.498-5.345,0.232-7.349-0.229c-1.998-0.487-3.424-1.198-4.289-1.677c-3.219-1.771-5.489-4.812-6.93-8.126
	c-1.458-3.318-2.071-6.948-1.623-10.512c0.228-1.777,0.668-3.543,1.373-5.21c0.706-1.672,1.645-3.263,2.701-4.8
	c1.054-1.538,2.231-3.031,3.38-4.568c1.153-1.535,2.321-3.089,3.508-4.669C58.097,96.375,58.838,94.916,59.259,93.415z
	 M66.16,94.366c0.313,0.407,0.678,0.896,1.063,1.424c-0.206,0.707-0.435,1.402-0.713,2.045c-0.196,0.469-0.406,0.919-0.626,1.354
	c-0.774-1.011-1.558-1.942-2.335-2.781c-0.186-0.202-0.37-0.393-0.554-0.585c0.473-1.26,0.773-2.634,0.89-3.933
	C65.13,93.148,66.057,94.206,66.16,94.366z M62.945,97.231c0.61,0.807,1.399,1.886,2.261,3.198c-0.5,0.852-1.028,1.634-1.556,2.348
	c-0.219,0.286-0.436,0.569-0.652,0.85c-0.199,0.254-0.396,0.506-0.592,0.756c-0.394,0.499-0.783,0.991-1.169,1.479
	c-0.778,0.971-1.542,1.923-2.305,2.875l-1.135,1.405c-0.344,0.428-0.663,0.839-0.97,1.245c-0.61,0.81-1.147,1.585-1.585,2.332
	c-0.453,0.768-0.783,1.461-1.027,2.115c-0.264,0.724-0.474,1.488-0.602,2.218c-0.261,1.472-0.251,2.934,0.055,4.465
	c0.285,1.502,0.966,3.215,1.731,4.49c0.8,1.269,1.688,2.201,2.804,2.815c0.237,0.118,0.884,0.559,2.258,0.944
	c1.449,0.379,3.535,0.619,5.713,0.018c2.187-0.576,4.185-1.919,5.705-4.417c0.783-1.312,1.297-2.687,1.581-4.319
	c0.283-1.622,0.309-3.491,0.109-5.536c-0.109-1.108-0.216-1.883-0.423-2.778c-0.201-0.884-0.473-1.793-0.81-2.728
	c-0.663-1.853-1.609-3.901-2.532-5.665c-1.141-2.179-2.407-4.141-3.708-5.872c0.25-0.498,0.49-1.012,0.711-1.555
	c0.242-0.577,0.447-1.195,0.633-1.826c1.667,2.317,3.828,5.666,5.683,9.918c1.229,2.772,2.312,5.707,2.699,8.567l0.066,0.54
	l0.062,0.607c0.037,0.403,0.073,0.806,0.095,1.204c0.054,0.799,0.066,1.582,0.05,2.35c-0.031,1.538-0.22,2.996-0.576,4.35
	c-0.348,1.361-0.893,2.597-1.571,3.791c-0.691,1.151-1.492,2.141-2.38,2.953c-1.77,1.623-3.91,2.571-6.006,2.911
	c-1.042,0.178-2.057,0.222-2.987,0.182c-0.912-0.035-1.839-0.214-2.578-0.365c-1.486-0.368-2.466-0.86-3.076-1.183
	c-2.22-1.18-3.93-3.31-5.149-6.047c-1.205-2.717-1.677-5.497-1.354-8.269c0.168-1.383,0.511-2.801,1.04-4.071
	c0.543-1.311,1.313-2.654,2.263-4.043c0.481-0.703,0.975-1.386,1.551-2.146c0.574-0.759,1.15-1.522,1.731-2.291
	c1.169-1.556,2.354-3.131,3.557-4.732c0.755-1.053,1.459-2.223,2.033-3.51C62.784,97.024,62.913,97.18,62.945,97.231z
	 M65.407,100.741c1.233,1.906,2.598,4.28,3.83,7.12c1.157,2.609,2.063,5.201,2.336,7.411l0.101,0.962
	c0.032,0.357,0.062,0.713,0.08,1.057c0.045,0.695,0.051,1.354,0.035,1.984c-0.031,1.264-0.192,2.372-0.458,3.349
	c-0.26,0.986-0.647,1.82-1.14,2.686c-0.495,0.799-1.026,1.431-1.588,1.935c-1.113,0.991-2.416,1.58-3.825,1.8
	c-0.693,0.113-1.381,0.141-2.005,0.114c-0.155-0.016-0.307-0.027-0.456-0.033c-0.164-0.023-0.324-0.046-0.48-0.068
	c-0.328-0.026-0.573-0.117-0.842-0.152c-0.974-0.248-1.509-0.522-1.864-0.689c-0.626-0.328-1.2-0.725-1.763-1.39
	c-0.565-0.648-1.122-1.515-1.605-2.579c-0.951-2.115-1.283-4.045-1.084-6.025c0.108-0.99,0.354-2.059,0.707-2.931
	c0.38-0.951,0.981-2.044,1.825-3.287c0.433-0.636,0.869-1.245,1.446-2.007c0.575-0.761,1.154-1.527,1.736-2.297
	c1.185-1.577,2.386-3.173,3.606-4.796C64.476,102.243,64.953,101.52,65.407,100.741z M63.755,86.907
	c-0.044-0.388-0.087-0.758-0.128-1.122c0.354,0.307,0.712,0.621,1.073,0.94c1.263,1.123,2.456,2.331,3.326,3.259
	c0,0.553-0.011,1.12-0.055,1.719c-0.053,0.863-0.198,1.801-0.402,2.74c-0.273-0.314-0.546-0.62-0.818-0.915
	c-0.962-1.047-1.904-1.969-2.799-2.781C63.989,89.372,63.882,88.091,63.755,86.907z M59.522,87.958
	c0.718,0.568,1.549,1.301,2.365,2.025c0.618,0.552,1.213,1.123,1.761,1.669c-0.11,1.289-0.412,2.659-0.886,3.925
	c-1.169-1.199-2.29-2.196-3.299-3.009c0.112-0.57,0.178-1.143,0.189-1.717C59.689,89.889,59.618,88.927,59.522,87.958z
	 M72.594,88.638c2.031,2.572,5.507,7.316,8.304,13.657c1.373,3.098,2.81,6.72,3.425,10.879c0.075,0.53,0.132,1.032,0.18,1.517
	c0.048,0.495,0.094,0.993,0.126,1.498c0.072,1.007,0.098,2.039,0.082,3.083c-0.03,2.086-0.274,4.244-0.811,6.352
	c-1.069,4.236-3.301,8.106-6.398,10.99c-3.085,2.887-6.898,4.555-10.368,5.134c-7.055,1.232-12.418-1.157-14.633-2.445
	c-2.07-1.183-3.895-2.751-5.319-4.533c-1.44-1.774-2.542-3.711-3.391-5.672c-1.712-3.92-2.466-8.4-1.892-12.756
	c0.288-2.17,0.825-4.285,1.706-6.35c0.868-2.032,1.976-3.873,3.138-5.557c0.576-0.836,1.188-1.669,1.759-2.422
	c0.57-0.755,1.143-1.514,1.72-2.278c1.137-1.514,2.289-3.047,3.459-4.605c0.63-0.893,1.081-1.737,1.339-2.503
	c0.267-0.782,0.341-1.41,0.352-2.222c0.001-0.064-0.008-0.141-0.008-0.207c0.166,0.158,0.513,0.427,0.999,0.771
	c0.352,0.219,0.794,0.626,1.265,1.006c0.447,0.383,0.925,0.794,1.391,1.221c-0.43,1.518-1.198,2.995-2.235,4.378
	c-1.58,2.06-3.109,3.96-4.629,5.846c-1.524,1.875-3.073,3.772-4.392,6.025c-2.729,4.615-3.566,9.977-2.497,14.976
	c0.529,2.501,1.474,4.902,2.828,7.152c1.383,2.222,3.277,4.269,5.711,5.655c0.481,0.263,2.008,1.219,4.581,1.897
	c2.539,0.647,6.191,1.058,10.218-0.079c2-0.556,4.07-1.504,5.937-2.938c1.874-1.419,3.542-3.294,4.815-5.469
	c1.281-2.163,2.182-4.652,2.607-7.231c0.435-2.582,0.424-5.228,0.17-7.799c-0.213-2.577-0.842-5.188-1.709-7.56
	c-0.867-2.392-1.903-4.617-3.01-6.739c-2.22-4.236-4.878-7.86-7.463-10.662c-0.581-0.634-1.154-1.222-1.718-1.776
	c-0.042-0.833-0.114-1.611-0.189-2.326c-0.076-0.669-0.152-1.341-0.229-2.017c-0.031-0.286-0.052-0.578-0.079-0.867
	C70.203,85.879,72.412,88.366,72.594,88.638z" class="color c1"/>
</svg>