<svg version="1.1" id="图层_1" x="0px" y="0px" width="87.98px" height="169.993px" viewBox="0 0 87.98 169.993" enable-background="new 0 0 87.98 169.993" xml:space="preserve" xmlns="http://www.w3.org/2000/svg" xmlns:xlink="http://www.w3.org/1999/xlink" xmlns:xml="http://www.w3.org/XML/1998/namespace">
  <path fill="#2C5784" d="M46.009,0c11.469,0,20.766,9.297,20.766,20.765S57.477,41.53,46.009,41.53
	c-11.468,0-20.765-9.297-20.765-20.765S34.541,0,46.009,0z M61.401,47.778c2.061,1.263,3.793,2.804,5.184,4.619
	c3.021,3.942,3.624,8.189,3.669,10.746c3.147,1.32,5.306,4.489,5.149,8.093c-0.198,4.621-4.121,8.219-8.743,8.021
	c-4.621-0.2-8.219-4.122-8.02-8.744c0.154-3.599,2.571-6.568,5.813-7.616c-0.079-1.73-0.554-4.517-2.52-7.044
	c-2.712-3.484-7.469-5.601-14.141-6.292c-14.124-1.465-19.481,5.397-21.328,9.136c2.431,1.366,4.006,3.836,4.435,4.572
	c0.831,1.158,4.246,6.668,1.754,16.206l-4.903-1.279c2.066-7.912-0.833-11.8-0.958-11.96l-0.146-0.18l-0.089-0.174
	c-0.665-1.179-2.2-2.973-3.374-3.046c-0.872-0.033-1.823,1.048-2.315,1.711c-4.101,5.536,0.686,14.633,0.735,14.723l-4.445,2.435
	c-0.267-0.484-6.438-11.971-0.36-20.175c1.191-1.608,2.412-2.565,3.548-3.114c0.826-2.275,3.121-7.144,8.432-10.688
	C9.833,52.652,0.473,65.807,0.473,65.807C-3.053,96.5,13.449,132.075,39.575,169.993c29.293-35.531,52.028-75.266,47.926-100.434
	C85.487,60.951,79.672,51.711,61.401,47.778z M70.339,71.018c-0.076,1.83-1.631,3.253-3.461,3.175
	c-1.83-0.078-3.253-1.632-3.175-3.461c0.08-1.829,1.632-3.253,3.462-3.175C68.994,67.636,70.419,69.188,70.339,71.018z" class="color c1"/>
</svg>