<svg version="1.1" id="图层_1" x="0px" y="0px" width="156px" height="188.113px" viewBox="0 0 156 188.113" enable-background="new 0 0 156 188.113" xml:space="preserve" xmlns="http://www.w3.org/2000/svg" xmlns:xlink="http://www.w3.org/1999/xlink" xmlns:xml="http://www.w3.org/XML/1998/namespace">
  <path fill="#1A9EA8" d="M150.541,0h-5.172C142.514,0,141,2.349,141,5.208v25.345c0,2.623,1,4.768,4,5.104v31.717
	C145,102.975,115.725,132,80.124,132h-5.025C39.498,132,11,102.975,11,67.372V35.655c3-0.336,4-2.479,4-5.104V5.208
	C15,2.349,12.708,0,9.853,0H4.679C1.824,0,0,2.349,0,5.208v25.345c0,2.623,2,4.769,4,5.104v31.717c0,38.951,32,70.671,71,71.08
	v20.592c-7,1.488-11.784,7.34-11.784,14.349c0,8.131,6.428,14.723,14.56,14.723c8.133,0,14.703-6.592,14.703-14.723
	c0-7.009-4.479-12.861-11.479-14.351v-20.59c39-0.406,71-32.127,71-71.08V35.655c2-0.336,4-2.479,4-5.104V5.208
	C156,2.349,153.398,0,150.541,0z M87.049,173.391c0,5.211-4.225,9.438-9.438,9.438c-5.212,0-9.438-4.227-9.438-9.438
	c0-5.213,4.226-9.439,9.438-9.439C82.824,163.951,87.049,168.177,87.049,173.391z M77.611,168.664c2.611,0,4.727,2.116,4.727,4.728
	c0,2.61-2.116,4.727-4.727,4.727c-2.61,0-4.727-2.116-4.727-4.727C72.884,170.78,75,168.664,77.611,168.664z" class="color c1"/>
</svg>