<svg version="1.1" id="图层_1" x="0px" y="0px" width="163.035px" height="163.034px" viewBox="0 0 163.035 163.034" enable-background="new 0 0 163.035 163.034" xml:space="preserve" xmlns="http://www.w3.org/2000/svg" xmlns:xlink="http://www.w3.org/1999/xlink" xmlns:xml="http://www.w3.org/XML/1998/namespace">
  <path fill="#D10006" d="M100.771,0v39.099H62.262V0H100.771z M127.229,83.485c2.714,0,4.922,2.207,4.922,4.921v11.337
	c0,0.353-0.041,0.695-0.111,1.027h30.995V62.264h-37.032v21.222H127.229z M100.771,163.034v-37.042H64.9v6.416
	c0,1.886-1.078,3.507-2.639,4.333v26.293H100.771z M0,100.771h34.032c-0.07-0.332-0.111-0.675-0.111-1.027V88.406
	c0-2.714,2.208-4.921,4.922-4.921h1.227V62.264H0V100.771z" class="color c1"/>
</svg>