<svg version="1.1" id="图层_1" x="0px" y="0px" width="177.356px" height="113.904px" viewBox="0 0 177.356 113.904" enable-background="new 0 0 177.356 113.904" xml:space="preserve" xmlns="http://www.w3.org/2000/svg" xmlns:xlink="http://www.w3.org/1999/xlink" xmlns:xml="http://www.w3.org/XML/1998/namespace">
  <path fill="#86BD24" d="M33.585,97.52l11.647-5.202l0.08,0.162c0.608-0.245,1.227-0.473,1.836-0.713
	c-10.7-11.413-15.38-32.744-5.812-45.256c1.602-2.098,3.837-4.04,6.541-5.604c-3.208-1.133-6.041-3.371-7.875-6.548
	c-4.084-7.071-1.66-16.114,5.413-20.198c7.07-4.084,16.114-1.661,20.198,5.412c3.366,5.83,2.31,13.002-2.128,17.627
	c10.286,0.466,22.26,6.264,32.886,21.842c-11.84-11.947-34.62-14.739-41.397-2.778c-5.578,9.835,0.028,25.328,11.118,28.803
	c6.331-1.988,12.739-3.763,19.193-5.313c2.854-2.313,5.807-5.355,8.818-9.265c1.795-2.325,3.523-4.468,5.188-6.441l2.8,7.466
	c-1.179,1.741-2.501,3.583-3.937,5.455c2.959-0.568,5.922-1.086,8.886-1.561c-2.299-3.806-4.411-8.398-6.296-13.352
	c-3.647-9.577-10.099-31.006-7.557-32.863c2.543-1.856,25.107,60.17,31.471,35.274c2.992-11.694-5.594-13.52-13.392-5.151
	c-1.2-1.586-2.329-3.287-3.319-5.195c2.93-3.558,6.736-6.186,10.604-7.604c-2.861-2.136-4.715-5.547-4.715-9.391
	c0-6.466,5.242-11.706,11.707-11.706c6.466,0,11.707,5.24,11.707,11.706c0,4.289-2.305,8.034-5.743,10.076
	c4.198,2.888,6.304,9.218,3.571,19.904c-0.465,1.821-1.07,3.638-1.787,5.386c5.131-0.315,10.231-0.494,15.273-0.494
	c9.832,0,19.5,0.619,28.792,1.799C169.984,31.867,133.41,0,89.367,0C40.011,0,0,40.014,0,89.368c0,8.514,1.209,16.739,3.433,24.536
	c6.795-4.32,13.972-8.41,21.387-12.151L33.585,97.52z" class="color c1"/>
</svg>