<svg version="1.1" id="图层_1" x="0px" y="0px" width="26.879px" height="26.879px" viewBox="0 0 26.879 26.879" enable-background="new 0 0 26.879 26.879" xml:space="preserve" xmlns="http://www.w3.org/2000/svg" xmlns:xlink="http://www.w3.org/1999/xlink" xmlns:xml="http://www.w3.org/XML/1998/namespace">
  <path fill="#015EA5" d="M24.449,10.039h-5.18c-1.342,0-2.43-1.088-2.43-2.43V2.43c0-1.342-1.088-2.43-2.43-2.43h-1.941
	c-1.342,0-2.43,1.088-2.43,2.43v5.18c0,1.342-1.088,2.43-2.43,2.43H2.43c-1.342,0-2.43,1.088-2.43,2.43v1.941
	c0,1.342,1.088,2.43,2.43,2.43h5.18c1.342,0,2.43,1.088,2.43,2.43v5.18c0,1.342,1.088,2.43,2.43,2.43h1.941
	c1.342,0,2.43-1.088,2.43-2.43v-5.18c0-1.342,1.088-2.43,2.43-2.43h5.18c1.342,0,2.43-1.088,2.43-2.43v-1.941
	C26.879,11.127,25.791,10.039,24.449,10.039z" class="color c1"/>
</svg>