<svg version="1.1" id="图层_1" x="0px" y="0px" width="90.158px" height="143.166px" viewBox="0 0 90.158 143.166" enable-background="new 0 0 90.158 143.166" xml:space="preserve" xmlns:xml="http://www.w3.org/XML/1998/namespace" xmlns="http://www.w3.org/2000/svg" xmlns:xlink="http://www.w3.org/1999/xlink">
  <path fill="#48A1B7" d="M85.125,0H5.033C2.256,0,0,3.578,0,7.994v127.181c0,4.414,2.256,7.992,5.033,7.992h80.092
	c2.78,0,5.033-3.578,5.033-7.992V7.994C90.158,3.578,87.905,0,85.125,0z M3.592,33.863V7.574c0,0,0.707-3.705,5.822-3.705
	c5.117,0,12.703-0.178,12.703-0.178L3.592,33.863z" class="color c1"/>
  <path fill="#FFFFFF" d="M61.974,138.618H54.16c0,0.676,0,1.352,0,2.029h7.813C61.974,139.97,61.974,139.294,61.974,138.618z
	 M54.16,143.167h7.813c0-0.684,0-1.359,0-2.035H54.16C54.16,141.804,54.16,142.483,54.16,143.167z M59.46,51.484h-2.784
	c-0.063,0.571-0.022,24.658-0.022,28.869h2.83C59.481,76.142,59.524,52.055,59.46,51.484z M61.974,136.097H54.16
	c0,0.676,0,1.357,0,2.037h7.813C61.974,137.458,61.974,136.772,61.974,136.097z M58.065,21.786c7.789,0,14.104,6.314,14.104,14.103
	c0,7.789-6.314,14.103-14.104,14.103c-7.788,0-14.103-6.314-14.103-14.103C43.963,28.1,50.277,21.786,58.065,21.786z M54.16,127.419
	h7.813c0-6.701,0.114-45.025-0.063-45.936h-7.688C54.044,82.394,54.16,120.718,54.16,127.419z M61.974,130.327H54.16
	c0,0.91,0,1.852,0,2.777h7.813C61.974,132.177,61.974,131.237,61.974,130.327z M61.974,133.587H54.16c0,0.678,0,1.35,0,2.037h7.813
	C61.974,134.933,61.974,134.261,61.974,133.587z" class="color c2"/>
  <path fill="#FFFFFF" d="M33.265,83.118h-7.813c0,0.916,0,1.854,0,2.781h7.813C33.265,84.972,33.265,84.034,33.265,83.118z
	 M25.453,141.708c0,0.482,0,0.975,0,1.459h7.813c0-0.484,0-0.977,0-1.459H25.453z M25.453,88.415h7.813c0-0.686,0-1.359,0-2.037
	h-7.813C25.453,87.056,25.453,87.729,25.453,88.415z M25.453,90.929h7.813c0-0.682,0-1.361,0-2.035h-7.813
	C25.453,89.567,25.453,90.249,25.453,90.929z M25.453,98.474h7.813c0-0.684,0-1.356,0-2.035h-7.813
	C25.453,97.116,25.453,97.792,25.453,98.474z M25.453,93.446h7.813c0-0.687,0-1.361,0-2.037h-7.813
	C25.453,92.085,25.453,92.761,25.453,93.446z M25.453,100.989h7.813c0-0.68,0-1.359,0-2.035h-7.813
	C25.453,99.63,25.453,100.31,25.453,100.989z M25.453,95.96h7.813c0-0.682,0-1.359,0-2.035h-7.813
	C25.453,94.601,25.453,95.278,25.453,95.96z M25.453,103.505h7.813c0-0.682,0-1.359,0-2.037h-7.813
	C25.453,102.146,25.453,102.823,25.453,103.505z M25.453,131.169h7.813c0-0.682,0-1.355,0-2.035h-7.813
	C25.453,129.81,25.453,130.487,25.453,131.169z M25.453,136.194h7.813c0-0.676,0-1.354,0-2.031h-7.813
	C25.453,134.845,25.453,135.519,25.453,136.194z M25.453,106.019h7.813c0-0.68,0-1.358,0-2.035h-7.813
	C25.453,104.659,25.453,105.339,25.453,106.019z M25.453,128.651h7.813c0-0.68,0-1.354,0-2.033h-7.813
	C25.453,127.298,25.453,127.972,25.453,128.651z M25.453,141.224h7.813c0-0.678,0-1.354,0-2.033h-7.813
	C25.453,139.874,25.453,140.55,25.453,141.224z M25.453,138.714h7.813c0-0.678,0-1.355,0-2.035h-7.813
	C25.453,137.354,25.453,138.036,25.453,138.714z M25.453,61.531c0,5.625,0,11.907,0,18.606h7.813c0-6.699,0-12.981,0-18.606
	c0.004-1.011-0.017-2,0.037-2.97c0.09-0.968,0.08-1.913-0.104-2.835c-0.308-1.846-0.597-3.594-0.865-5.238
	c-0.522-3.287-1.063-6.151-1.497-8.514c-0.414-2.361-0.824-4.216-1.066-5.479c-0.006-0.021-0.01-0.039-0.014-0.06
	c0.153,0.03,0.329,0.062,0.553,0.079c0.343,0.032,0.761,0.031,1.246-0.023c0.481-0.065,1.033-0.189,1.606-0.437
	c0.563-0.253,1.166-0.604,1.692-1.108c0.267-0.25,0.543-0.511,0.752-0.83c0.23-0.303,0.447-0.631,0.604-0.985
	c0.359-0.703,0.548-1.466,0.679-2.259c0.047-0.397,0.097-0.797,0.146-1.201l0.015-1.098l0.004-0.274l0.004-0.179l-0.015-0.148
	l-0.053-0.588c-0.027-0.391-0.07-0.777-0.183-1.161c-0.092-0.385-0.168-0.763-0.347-1.121c-0.146-0.362-0.299-0.716-0.528-1.026
	c-0.106-0.157-0.203-0.32-0.319-0.469l-0.384-0.404c-0.235-0.283-0.553-0.465-0.825-0.674c-0.281-0.191-0.597-0.316-0.875-0.461
	c-0.304-0.102-0.586-0.219-0.867-0.283c-1.125-0.277-2.076-0.262-2.726-0.207c-0.647,0.058-1.015,0.146-1.015,0.146l0.027,0.195
	c0,0,0.36-0.032,0.989,0.006c0.625,0.046,1.533,0.143,2.509,0.523c0.241,0.093,0.478,0.229,0.728,0.346
	c0.223,0.158,0.471,0.297,0.687,0.486c0.2,0.203,0.442,0.369,0.604,0.621l0.272,0.352c0.08,0.126,0.146,0.27,0.215,0.4
	c0.16,0.256,0.252,0.56,0.338,0.865c0.115,0.291,0.146,0.622,0.188,0.945c0.063,0.318,0.063,0.656,0.054,0.997l-0.002,0.506
	l-0.002,0.125c0-0.037-0.011,0.069-0.015,0.097l-0.035,0.273l-0.137,1.089c-0.085,0.313-0.166,0.629-0.25,0.94
	c-0.199,0.602-0.425,1.212-0.705,1.722c-0.254,0.537-0.567,0.997-0.896,1.416c-0.33,0.416-0.715,0.752-1.095,1.056
	c-0.202,0.139-0.396,0.27-0.579,0.396c-0.203,0.11-0.396,0.214-0.576,0.311c-0.854,0.489-1.959-0.553-2.291,1.105
	c-0.254,1.263-0.651,3.118-1.067,5.479c-0.435,2.36-0.974,5.227-1.496,8.514c-0.271,1.645-0.562,3.393-0.865,5.238
	c-0.187,0.92-0.192,1.866-0.103,2.834C25.467,59.531,25.447,60.52,25.453,61.531z M25.453,126.136h7.813c0-0.678,0-1.357,0-2.035
	h-7.813C25.453,124.778,25.453,125.462,25.453,126.136z M25.453,133.681h7.813c0-0.678,0-1.354,0-2.037h-7.813
	C25.453,132.327,25.453,133.007,25.453,133.681z M25.453,111.05h7.813c0-0.68,0-1.359,0-2.035h-7.813
	C25.453,109.687,25.453,110.37,25.453,111.05z M25.453,113.562h7.813c0-0.682,0-1.354,0-2.035h-7.813
	C25.453,112.21,25.453,112.884,25.453,113.562z M25.453,108.534h7.813c0-0.682,0-1.357,0-2.037h-7.813
	C25.453,107.177,25.453,107.853,25.453,108.534z M25.453,121.106h7.813c0-0.681,0-1.354,0-2.031h-7.813
	C25.453,119.753,25.453,120.427,25.453,121.106z M25.453,123.624h7.813c0-0.682,0-1.357,0-2.033h-7.813
	C25.453,122.263,25.453,122.942,25.453,123.624z M25.453,116.079h7.813c0-0.682,0-1.357,0-2.033h-7.813
	C25.453,114.72,25.453,115.397,25.453,116.079z M25.453,118.595h7.813c0-0.678,0-1.354,0-2.035h-7.813
	C25.453,117.235,25.453,117.917,25.453,118.595z" class="color c2"/>
</svg>