<svg version="1.1" id="图层_1" x="0px" y="0px" width="77.461px" height="134.75px" viewBox="0 0 77.461 134.75" enable-background="new 0 0 77.461 134.75" xml:space="preserve" xmlns="http://www.w3.org/2000/svg" xmlns:xlink="http://www.w3.org/1999/xlink" xmlns:xml="http://www.w3.org/XML/1998/namespace">
  <path fill="#008A9F" d="M37.334,0c0.001,0-0.678,1.578-1.292,3.713c-0.348,1.072-0.685,2.277-1.015,3.52
	c-0.209,0.602-0.356,1.24-0.543,1.846c-0.1,0.297-0.219,0.588-0.299,0.891l-0.101,0.354l-0.028,0.056l-0.126,0.246
	c-0.306,0.66-0.633,1.465-0.891,1.709c-0.136,0.186-0.252,0.387-0.356,0.605c-0.116,0.219-0.367,0.467-0.522,0.713
	c-0.681,0.998-1.485,1.943-2.143,2.824c-0.908,1.134-1.628,2.136-2.017,2.69c-0.006,0-0.011-0.001-0.017-0.001
	c-1.122-0.09-2.314,0.043-3.6,0.105c-1.305,0.121-2.542,0.264-4.063,0.604c-1.182,0.23-2.995,0.887-4.305,1.6
	c-1.367,0.775-2.699,1.672-3.874,2.697c-2.415,2.01-4.273,4.414-5.908,6.625c-1.612,2.242-2.94,4.346-4.101,6.08
	c-0.589,0.838-1.018,1.777-1.33,2.623c-0.326,0.846-0.509,1.656-0.633,2.34c-0.043,0.357-0.082,0.678-0.115,0.957
	c-0.005,0.15-0.01,0.287-0.016,0.414l-0.006,0.193l-0.008,0.107l-0.009,0.07c-0.005,0.025-0.017,0.08-0.016,0.115l0.002,0.063
	c-0.035,0.074,0.145,0.383,0.328,0.381c0.281,0.008,0.316-0.109,0.316-0.1c0.022-0.025,0.032-0.047,0.036-0.059
	c0.014-0.033,0.019-0.063,0.025-0.088l0.021-0.135c0.007-0.073,0.012-0.132,0.016-0.184c0.04,0.068,0.065,0.135,0.051,0.162
	l0.007,0.047c0.002,0.027-0.007,0.072-0.009,0.088l0.018,0.01c0.013,0.006,0.038-0.008,0.056-0.014l0.145-0.059
	c0.105-0.047,0.223-0.098,0.349-0.15c0.24-0.123,0.515-0.264,0.823-0.422c0.588-0.34,1.281-0.766,1.969-1.336
	c0.699-0.568,1.433-1.209,2.077-2.119c2.674-3.484,5.576-8.33,9.205-12.029c0.893-0.947,1.879-1.74,2.889-2.453
	c1.109-0.713,1.818-1.232,3.207-1.752c1.049-0.387,2.342-0.818,3.434-1.182c1.139-0.316,2.224-0.633,3.243-0.857
	c2.034-0.504,3.784-0.742,5.025-0.9c1.243-0.17,1.975-0.17,1.975-0.17s-0.672-0.279-1.922-0.609
	c-0.753-0.171-1.74-0.359-2.876-0.495c0.412-0.097,0.849-0.217,1.318-0.386c1.167-0.389,2.471-1.008,3.721-2.025
	c0.622-0.424,1.298-1.113,1.916-1.934c0.738-0.855,0.941-1.459,1.297-2.131l0.115-0.254l0.057-0.127l0.029-0.064l0.128-0.32
	l0.01-0.039l0.159-0.623c0.11-0.414,0.181-0.836,0.27-1.248c0.146-0.82,0.157-1.617,0.191-2.389
	c-0.026-1.531-0.241-2.928-0.589-4.088C38.402,1.379,37.334,0,37.334,0z M0.598,43.424c-0.054,0.008-0.119,0.021-0.195,0.037
	l-0.12,0.012c-0.021,0-0.042,0-0.058-0.004c-0.01,0-0.016-0.008-0.01-0.021c-0.014,0.021,0.001-0.084,0.264-0.074
	c0.046-0.002,0.092,0.018,0.134,0.048C0.607,43.422,0.604,43.422,0.598,43.424z M35.794,80.299c0.082,0.289,0.007,1.039-0.029,1.553
	c-0.07,1.264-0.443,1.959-0.734,2.85c-0.336,0.82-0.772,1.516-1.179,2.27c-0.46,0.652-0.93,1.32-1.417,1.949
	c-1.975,2.463-4.146,4.557-6.259,6.645c-2.154,2.039-4.288,4.023-6.246,6.047c-1.917,2.049-3.77,4.045-5.2,6.162
	c-0.337,0.535-0.673,1.064-1.005,1.588c-0.274,0.564-0.545,1.123-0.813,1.674c-0.345,0.629-0.374,1.061-0.59,1.592
	c-0.201,0.486-0.322,1.047-0.424,1.617c-0.461,2.234-0.538,4.498-0.335,6.592c0.37,4.205,1.501,7.725,2.339,10.141
	c0.872,2.42,1.519,3.773,1.519,3.773s-1.014-1.102-2.451-3.311c-1.387-2.221-3.308-5.557-4.374-10.119
	c-0.564-2.264-0.874-4.871-0.562-7.656c0.059-1.32,0.513-3.01,0.92-4.338l0.35-0.943l0.186-0.471l0.093-0.236l0.047-0.119
	l0.023-0.061l0.099-0.201c0.355-0.65,0.712-1.307,1.075-1.967c1.548-2.557,3.373-4.98,5.427-7.18
	c2.043-2.201,4.192-4.291,6.296-6.352c2.134-2.018,4.258-4.008,5.966-6.057l1.179-1.535c0.295-0.5,0.671-1.004,0.901-1.486
	c0.177-0.449,0.471-1.039,0.456-1.207c0.005-0.18,0.201-0.127,0.133-0.527l-0.12-1.037c-0.799-2.457-1.569-4.828-2.301-7.078
	c-0.864-2.377-1.681-4.619-2.434-6.695c-1.464-4.176-2.769-7.641-3.571-10.119c-0.276-0.833-0.508-1.534-0.7-2.113
	c-0.35,0.498-0.659,0.964-1.02,1.408c-0.418,0.551-0.883,1.141-1.357,1.67c-0.972,1.094-2.089,2.152-3.282,2.789
	c-0.561,0.342-1.144,0.553-1.648,0.719c-0.493,0.189-0.959,0.244-1.344,0.289c-0.755,0.102-1.202,0.07-1.202,0.07
	s0.19-0.439,0.55-1.059c0.166-0.328,0.412-0.656,0.61-1.084c0.182-0.453,0.5-0.801,0.69-1.318c0.222-0.471,0.464-0.977,0.719-1.516
	c0.256-0.506,0.549-1.139,0.88-1.723c0.353-0.629,0.709-1.258,1.178-1.906c0.454-0.648,0.97-1.342,1.479-1.871
	c0.258-0.277,0.512-0.559,0.79-0.822l0.831-0.834c0.52-0.523,1.046-1.023,1.571-1.498c1.044-0.957,2.113-1.785,3.031-2.5
	c0.955-0.688,1.746-1.291,2.347-1.662c0.616-0.365,0.968-0.576,0.968-0.576s-0.105,0.395-0.291,1.086
	c-0.217,0.67-0.52,1.617-1.012,2.686c-0.511,1.053-1.109,2.291-1.854,3.547c-0.368,0.629-0.765,1.27-1.184,1.908l-0.584,0.92
	c-0.174,0.293-0.371,0.569-0.565,0.846c0.354,0.546,0.803,1.248,1.333,2.098c1.331,2.234,3.325,5.385,5.37,9.35
	c1.038,1.979,2.195,4.102,3.297,6.424c0.523,1.193,1.058,2.42,1.606,3.674c0.27,0.633,0.54,1.27,0.815,1.914l0.402,0.977l0.202,0.49
	l0.101,0.248l0.101,0.461l0.023,0.127L35.794,80.299z M77.461,32.184c-0.017,0.461-0.111,0.902-0.172,1.348
	c-0.091,0.912-0.378,1.699-0.698,2.426c-0.542,1.523-1.474,2.609-2.22,3.561c-0.363,0.477-0.82,0.82-1.185,1.15
	c-0.359,0.33-0.718,0.586-1,0.797c-0.043,0.031-0.076,0.053-0.117,0.082c0.126,0.233,0.25,0.461,0.378,0.698l0.479,0.896
	c0.097,0.201,0.115,0.184,0.278,0.572l0.21,0.475c0.282,0.496,0.562,1.633,0.712,2.492c0.441,3.4-0.281,6.604-1.124,9.68
	c-0.863,3.07-1.85,6.129-2.62,9.115c-0.404,1.512-0.644,2.936-0.772,4.42c-0.133,1.652-0.25,3.299-0.324,4.912
	c-0.234,3.254-0.451,6.643-0.912,9.986c-0.352,3.344-1.273,6.701-2.564,9.869c-0.733,1.42-1.454,2.816-2.158,4.182
	c-0.795,1.35-1.113,2.572-1.573,3.797c-0.478,1.174-0.804,2.531-1.18,3.785c-0.388,1.258-0.747,2.48-1.025,3.686
	c-1.245,4.766-2.091,8.824-2.75,11.656c-0.619,2.838-0.928,4.48-0.929,4.48c0,0-0.132-1.67-0.105-4.598
	c0.053-1.461,0.043-3.24,0.206-5.271c0.118-2.035,0.288-4.332,0.625-6.83c0.127-1.252,0.332-2.557,0.565-3.906
	c0.232-1.355,0.449-2.721,0.891-4.246c0.402-1.486,0.774-3.129,1.395-4.434l0.425-1.045l0.224-0.523l0.315-0.676
	c0.271-0.605,0.546-1.217,0.822-1.834c0.921-2.623,1.48-5.574,1.802-8.723c0.377-3.127,0.519-6.367,0.709-9.725
	c0.111-1.699,0.261-3.355,0.422-4.994c0.183-1.799,0.539-3.625,1.009-5.256c0.889-3.328,2.165-6.295,3.106-9.17
	c0.931-2.846,1.758-5.59,1.652-7.906c-0.088-0.535,0.015-0.814-0.29-1.578l-0.165-0.492c0.048,0.066-0.099-0.254-0.137-0.365
	l-0.372-0.943c-0.484-1.254-0.952-2.463-1.402-3.627c-3.605-9.293-5.592-15.688-5.592-15.688s3.569,5.648,8.297,14.412
	c0.248,0.458,0.502,0.927,0.758,1.4c0.07-0.589,0.178-1.273,0.309-2.018c0.053-0.547,0.113-1.125,0.221-1.705
	c0.143-0.58,0.167-1.178,0.225-1.768c0.024-0.299,0.075-0.592,0.123-0.889c0.021-0.293-0.016-0.564,0.006-0.844l0.033-0.828
	l-0.1-0.74c0.015-0.266-0.031-0.494-0.119-0.695c-0.083-0.205-0.065-0.455-0.161-0.654c-0.106-0.189-0.186-0.395-0.256-0.611
	c-0.08-0.213-0.251-0.375-0.35-0.594c-0.228-0.41-0.576-0.785-0.914-1.166c-0.358-0.369-0.726-0.75-1.125-1.066
	c-0.784-0.637-1.546-1.205-2.108-1.59c-0.555-0.404-0.916-0.641-0.916-0.641s0.376-0.203,1.088-0.381
	c0.707-0.178,1.749-0.338,3.023-0.176c0.64,0.066,1.343,0.209,2.071,0.496c0.712,0.295,1.501,0.674,2.189,1.287
	c0.739,0.566,1.34,1.354,1.861,2.232c0.405,0.885,0.852,1.896,0.899,2.85L77.461,32.184z" class="color c1"/>
</svg>