<svg version="1.1" id="图层_1" x="0px" y="0px" width="200px" height="124.313px" viewBox="0 0 200 124.313" enable-background="new 0 0 200 124.313" xml:space="preserve" xmlns="http://www.w3.org/2000/svg" xmlns:xlink="http://www.w3.org/1999/xlink" xmlns:xml="http://www.w3.org/XML/1998/namespace">
  <path fill="#FFFFFF" d="M99.365,56.104V44.203H87.376c-2.031,0-3.679-1.633-3.679-3.65c0-2.015,1.647-3.65,3.679-3.65h11.989V25.001
	c0-2.015,1.646-3.65,3.678-3.65c2.03,0,3.677,1.636,3.677,3.65v11.901h11.989c2.032,0,3.679,1.636,3.679,3.65
	c0,2.018-1.646,3.65-3.679,3.65H106.72v11.901c0,2.018-1.646,3.651-3.677,3.651C101.011,59.756,99.365,58.122,99.365,56.104z
	 M29.283,43.117l72.793-35.575l74.717,36.199v41.773h7.247V41.178c0-1.909-1.501-3.455-3.395-3.574l-76.78-37.2
	c-0.425-0.208-0.871-0.317-1.317-0.353c-0.721-0.119-1.482-0.031-2.188,0.313L24.907,37.236c-1.64,0.343-2.872,1.787-2.872,3.518
	v45.969h7.248V43.117z M22.035,116.506c0,1.987,1.623,3.598,3.623,3.598c2.002,0,3.625-1.61,3.625-3.598V99.084h-7.248V116.506z
	 M176.793,116.93c0,1.985,1.623,3.597,3.624,3.597c2.002,0,3.623-1.611,3.623-3.597V97.875h-7.247V116.93z M197.972,89.681H184.04
	h-7.247h-26.691c-0.803,0-1.527,0.471-1.854,1.196l-2.347,5.241l-3.959-18.139c-0.194-0.89-0.968-1.54-1.884-1.584
	c-0.033-0.002-0.065-0.002-0.097-0.002c-0.029,0-0.057,0.011-0.087,0.014c-0.079,0.011-0.158,0.025-0.237,0.037
	c-0.093,0.016-0.188,0.018-0.277,0.045c-0.123,0.038-0.232,0.103-0.346,0.163c-0.075,0.039-0.157,0.066-0.228,0.115
	c-0.117,0.083-0.213,0.191-0.311,0.298c-0.047,0.051-0.104,0.089-0.146,0.146c-0.129,0.173-0.231,0.367-0.301,0.58l-12.326,38.101
	l-16.278-47.396c-0.271-0.793-1.008-1.335-1.852-1.363c-0.021-0.001-0.043-0.001-0.063-0.001c-0.107,0-0.209,0.029-0.313,0.047
	c-0.086,0.013-0.173,0.013-0.256,0.037c-0.11,0.032-0.211,0.09-0.316,0.14c-0.074,0.036-0.155,0.061-0.226,0.105
	c-0.104,0.068-0.191,0.159-0.281,0.245c-0.055,0.051-0.118,0.09-0.166,0.146c-0.129,0.153-0.238,0.326-0.318,0.516l-8.81,20.911
	H79.918c-0.777,0-1.489,0.443-1.826,1.142l-8.296,17.102l-10.25-33.327c-0.232-0.755-0.887-1.306-1.677-1.409
	c-0.086-0.011-0.174-0.016-0.259-0.016c-0.063,0-0.121,0.017-0.183,0.023c-0.076,0.006-0.151,0.013-0.226,0.028
	c-0.107,0.021-0.211,0.057-0.313,0.096c-0.067,0.025-0.135,0.046-0.198,0.078c-0.108,0.054-0.206,0.125-0.304,0.198
	c-0.048,0.036-0.102,0.064-0.145,0.104c-0.137,0.123-0.26,0.262-0.359,0.422L45.121,90.89H29.283h-7.248H2.028
	C0.908,90.89,0,91.791,0,92.903s0.908,2.014,2.028,2.014h20.007h7.248h16.964c0.701,0,1.353-0.359,1.723-0.95l9-14.358
	l10.462,34.017c0.243,0.794,0.952,1.357,1.785,1.42c0.049,0.004,0.099,0.006,0.147,0.006c0.091,0,0.176-0.025,0.266-0.037
	c0.082-0.011,0.167-0.014,0.246-0.034c0.115-0.03,0.22-0.08,0.326-0.128c0.07-0.031,0.144-0.053,0.209-0.092
	c0.112-0.066,0.209-0.154,0.307-0.239c0.048-0.043,0.103-0.075,0.146-0.122c0.133-0.143,0.248-0.306,0.336-0.486l9.995-20.605
	h16.979c0.818,0,1.557-0.488,1.872-1.237l7.266-17.248l16.529,48.128c0.28,0.816,1.053,1.364,1.92,1.364c0.005,0,0.012,0,0.019,0
	c0.875-0.007,1.645-0.57,1.912-1.398l11.887-36.745l3.673,16.825c0.186,0.851,0.902,1.487,1.774,1.575
	c0.071,0.008,0.142,0.012,0.212,0.012c0.086,0,0.167-0.025,0.251-0.037c0.083-0.01,0.167-0.015,0.246-0.035
	c0.121-0.03,0.233-0.082,0.345-0.133c0.07-0.032,0.144-0.056,0.209-0.097c0.116-0.068,0.216-0.16,0.315-0.252
	c0.048-0.045,0.104-0.079,0.147-0.129c0.134-0.151,0.25-0.322,0.336-0.514l4.333-9.678h25.373h7.247h13.932
	c1.12,0,2.028-0.901,2.028-2.013C200,90.582,199.092,89.681,197.972,89.681z" class="color c1"/>
</svg>