<svg version="1.1" id="图层_1" x="0px" y="0px" width="150px" height="200px" viewBox="0 0 150 200" enable-background="new 0 0 150 200" xml:space="preserve" xmlns:xml="http://www.w3.org/XML/1998/namespace" xmlns="http://www.w3.org/2000/svg" xmlns:xlink="http://www.w3.org/1999/xlink">
  <path fill="#004869" d="M129.5,117.562c0-4.826,1.559-8.846,3.625-9.746c-0.002-0.106-0.002-0.217-0.004-0.322l-0.01-0.01
	c-0.098-5.755-0.42-10.634-0.993-14.084C140.673,76.135,150,49.481,150,37.503c0-17.739-13.691-37.504-33.331-37.504
	c-9.071,0-15.521,1.104-21.758,2.158C88.848,3.192,83.113,4.168,75,4.168c-8.115,0-13.849-0.977-19.912-2.012
	c-6.23-1.055-12.677-2.157-21.749-2.157C13.692-0.001,0,19.764,0,37.503c0,11.978,9.325,38.632,17.88,55.896
	c-3.39,20.27,1.688,88.926,13.153,103.086c2.354,2.902,4.813,3.516,6.466,3.516c14.247,0,15.479-17.607,16.776-36.256
	c1.758-25.121,4.258-42.91,20.724-42.91c16.465,0,18.976,17.789,20.724,42.91c1.299,18.648,2.528,36.256,16.776,36.256
	c1.647,0,4.108-0.609,6.465-3.516c7.5-9.271,12.272-41.885,13.722-69l-0.005-0.005c0.008-0.137,0.013-0.27,0.021-0.406
	C130.85,125.843,129.5,122.052,129.5,117.562z" class="color c1"/>
  <path fill="#A3E2FF" d="M60.455,45.009c-6.794,6.801-6.807,17.859,0,24.661c6.796,6.796,17.861,6.796,24.657,0
	c6.797-6.802,6.807-17.86,0-24.661C78.315,38.208,67.251,38.213,60.455,45.009z" class="color c2"/>
  <path fill="#FFFFFF" d="M133.121,107.493l-28.828-28.822c-2.09-2.096-5.146-2.627-7.744-1.609l-6.182-6.191
	c6.689-8.705,6.064-21.26-1.895-29.229c-8.662-8.662-22.767-8.662-31.427,0c-8.662,8.662-8.662,22.761,0,31.423
	c7.969,7.969,20.524,8.584,29.229,1.895l6.188,6.191c-1.017,2.588-0.479,5.645,1.611,7.744l38.604,38.604
	C133.072,120.243,133.218,113.409,133.121,107.493z M84.38,68.975c-6.405,6.404-16.836,6.408-23.242,0
	c-6.416-6.41-6.405-16.837,0-23.248c6.406-6.406,16.836-6.41,23.242,0C90.796,52.138,90.787,62.565,84.38,68.975z" class="color c3"/>
</svg>