<svg version="1.1" id="图层_1" x="0px" y="0px" width="200px" height="200px" viewBox="0 0 200 200" enable-background="new 0 0 200 200" xml:space="preserve" xmlns:xml="http://www.w3.org/XML/1998/namespace" xmlns="http://www.w3.org/2000/svg" xmlns:xlink="http://www.w3.org/1999/xlink">
  <polygon fill="#1E8EAD" points="182.893,73.392 174.752,73.392 82.596,73.392 62.917,73.392 62.917,73.393 0,73.393 0,126.605 
	62.922,126.605 82.599,126.605 174.75,126.605 182.893,126.605 200,126.605 200,73.393 200,73.392 " class="color c1"/>
  <rect x="73.394" fill="#66CFFF" width="53.211" height="200" class="color c2"/>
  <path fill="#FFFFFF" d="M169.609,118.133c-4.023-5.936-8.959-12.035-14.635-18.131c5.676-6.098,10.61-12.197,14.635-18.133
	c1.979-2.92,3.684-5.746,5.143-8.477c6.889-12.891,7.959-23.512,2.885-30.42c-2.521-3.432-7.814-7.52-18.723-7.52
	c-8.989,0-20.119,2.691-32.309,7.596v7.502c12.377-5.25,23.627-8.219,32.309-8.219c4.432,0,10.314,0.818,13.177,4.715
	c3.755,5.109,1.823,14.568-5.233,26.346c-0.901,1.504-1.875,3.041-2.942,4.615c-3.772,5.568-8.403,11.299-13.728,17.041
	c-7.018-7.037-14.963-14.006-23.582-20.65c-0.434-0.336-0.86-0.672-1.297-1.006c-1.228-0.934-2.467-1.863-3.72-2.781
	c-4.94-3.629-9.917-7.021-14.874-10.166c-2.244-1.422-4.484-2.795-6.715-4.111c-9.145-5.398-18.131-9.877-26.606-13.285
	c-12.189-4.904-23.318-7.596-32.308-7.596c-10.906,0-16.201,4.088-18.721,7.52c-5.076,6.908-4.005,17.529,2.883,30.42h7.896
	c-7.059-11.777-8.988-21.236-5.234-26.346c2.862-3.896,8.744-4.715,13.176-4.715c8.682,0,19.932,2.969,32.308,8.217
	c6.395,2.713,13.083,6.035,19.893,9.896c2.229,1.264,4.468,2.58,6.714,3.957c4.552,2.785,9.117,5.787,13.651,8.99
	c1.291,0.912,2.58,1.82,3.863,2.764c3.117,2.289,6.146,4.629,9.09,6.998c6.816,5.486,13.136,11.148,18.812,16.848
	c-5.676,5.697-11.994,11.359-18.812,16.846c-2.944,2.369-5.973,4.709-9.09,6.998c-1.281,0.941-2.57,1.85-3.856,2.76
	c-4.537,3.203-9.104,6.209-13.658,8.994c-2.246,1.375-4.485,2.691-6.715,3.957c-6.809,3.859-13.497,7.185-19.892,9.896
	c-12.376,5.25-23.626,8.217-32.308,8.217c-4.432,0-10.314-0.815-13.176-4.713c-3.754-5.11-1.823-14.569,5.236-26.351H25.25
	c-6.89,12.894-7.961,23.515-2.885,30.424c3.665,4.988,9.963,7.521,18.719,7.521c0.002,0,0.002,0,0.004,0
	c8.988,0,20.117-2.69,32.306-7.596c8.476-3.41,17.462-7.89,26.606-13.285c2.23-1.315,4.471-2.688,6.715-4.11
	c4.957-3.144,9.934-6.537,14.874-10.166c1.255-0.92,2.495-1.851,3.726-2.785c0.436-0.33,0.858-0.668,1.291-1
	c8.619-6.646,16.564-13.615,23.582-20.652c5.322,5.742,9.953,11.473,13.728,17.041c1.065,1.574,2.039,3.109,2.938,4.611
	c7.062,11.779,8.992,21.238,5.237,26.35c-2.862,3.896-8.743,4.713-13.175,4.713c-8.684,0-19.934-2.967-32.311-8.217v7.5
	c12.189,4.904,23.319,7.598,32.311,7.598c8.756,0,15.055-2.529,18.721-7.52c5.074-6.91,4.004-17.531-2.887-30.424
	C173.291,123.877,171.588,121.053,169.609,118.133z" class="color c3"/>
</svg>