<svg version="1.1" id="图层_1" x="0px" y="0px" width="86.5px" height="104.9px" viewBox="0 0 86.5 104.9" enable-background="new 0 0 86.5 104.9" xml:space="preserve" xmlns="http://www.w3.org/2000/svg" xmlns:xlink="http://www.w3.org/1999/xlink" xmlns:xml="http://www.w3.org/XML/1998/namespace">
  <path fill="#89DB37" d="M86.1,38.2c0,0-0.9-7.4-3.7-12.7C75.4,10.5,61.9,0,44.2,0H4.4C2,0,0,2,0,4.4v48.4
	c0.3,28.8,23.9,52,52.8,51.7h7.1h6.9V93.3c0-7.4,0-42.4,0-49.4c0-12.4-10-22.4-22.3-22.4c-7,0-18.6,0-18.6,0c-2.4,0-4.4,2-4.4,4.4
	L21.4,57c-0.1,14.4,11.6,26.1,26,26.1H58c0,11.3,0,10.8,0.1,12.6h-5.3C41,95.9,30,91.4,21.6,83C13.6,75,9,64.2,8.9,52.8v-44h35.3
	c19.4,0,33.4,15.8,33.4,35.2l-0.2,56.4c0,2.5,2,4.4,4.4,4.4c2.5,0,4.4-2,4.4-4.4L86.5,44C86.5,42.1,86.4,40.1,86.1,38.2z M41.1,53.4
	c0,4.4,3.6,8,8,8H58v12.9H47.4c-9.5,0-17.1-7.7-17.1-17.1l0.1-26.7c4,0,9.9,0,14.2,0C52,30.5,58,36.5,58,44v8.6h-8V46
	c0-2.5-2-4.4-4.4-4.4c-2.5,0-4.4,2-4.4,4.4L41.1,53.4z" class="color c1"/>
</svg>