<svg version="1.1" id="图层_1" x="0px" y="0px" width="180px" height="180px" viewBox="0 0 180 180" enable-background="new 0 0 180 180" xml:space="preserve" xmlns="http://www.w3.org/2000/svg" xmlns:xlink="http://www.w3.org/1999/xlink" xmlns:xml="http://www.w3.org/XML/1998/namespace">
  <path fill="#4BC6A9" d="M171.112,53.898h-45.01V8.888c0-4.909-3.979-8.888-8.888-8.888H62.786c-4.909,0-8.888,3.979-8.888,8.888
	v45.01H8.888C3.979,53.898,0,57.878,0,62.786v54.427c0,4.909,3.979,8.888,8.888,8.888h45.01v45.01c0,4.909,3.979,8.888,8.888,8.888
	h54.428c4.909,0,8.888-3.979,8.888-8.888v-45.01h45.01c4.908,0,8.888-3.979,8.888-8.888V62.786
	C180,57.878,176.021,53.898,171.112,53.898z" class="color c1"/>
</svg>