<svg version="1.1" id="图层_1" x="0px" y="0px" width="159.766px" height="106.965px" viewBox="0 0 159.766 106.965" enable-background="new 0 0 159.766 106.965" xml:space="preserve" xmlns="http://www.w3.org/2000/svg" xmlns:xlink="http://www.w3.org/1999/xlink" xmlns:xml="http://www.w3.org/XML/1998/namespace">
  <path fill="#0098B6" d="M55.676,90.852c0,8.9-7.214,16.113-16.113,16.113c-8.898,0-16.112-7.213-16.112-16.113
	c0-8.898,7.214-16.113,16.112-16.113C48.462,74.738,55.676,81.953,55.676,90.852z M159.766,12.891
	c-3.454,7.271-2.62,6.603-6.62,14.436l-6.255,8.684c-5.378,9.206-12.77,20.358-19.56,25.479c-3.44,4.094-6.896,7.963-10.268,11.47
	c-6.567,6.826-13.406,12.904-20.286,18.15H58.393c0-12.684-8.657-19.623-19.337-19.623c-7.511,0-14.01,3.998-17.209,10.262
	c-1.15,2.248-1.868,4.945-2.052,7.604c-0.034,0.457-0.072-0.355-0.072,1.758h-2.289H4.544H1.915c0,0-1.667,0.125-1.667-4.227
	c0-4.314,1.667-4.23,1.667-4.23h0.051l0.174-0.137L0,74.74l4.053-16.627l17.562-7.736l9.334-30.936v-6.551h14.798V9.803
	c0-1.604,1.559-1.141,3.161-1.141h6.817C55.911,4.434,58.036,0,60.636,0s4.725,4.434,4.91,8.662h9.996
	c1.603,0,1.915-0.463,1.915,1.141v3.088H159.766z M47.86,21.346H37.764l-8.59,31.711H47.86V21.346z M65.095,8.662
	c-0.021-2.113-2.007-8.139-4.459-8.139l4.438,8.139H65.095z M130.625,41.674h-11v-11h-8.25v11h-11v8.25h11v11h8.25v-11h11V41.674z" class="color c1"/>
</svg>