<svg version="1.1" id="图层_1" x="0px" y="0px" width="64.189px" height="99.216px" viewBox="0 0 64.189 99.216" enable-background="new 0 0 64.189 99.216" xml:space="preserve" xmlns="http://www.w3.org/2000/svg" xmlns:xlink="http://www.w3.org/1999/xlink" xmlns:xml="http://www.w3.org/XML/1998/namespace">
  <path fill="#FFFFFF" d="M57.206,29.943l6.983-10.643L52.521,7.772L52.37,7.624l-0.16-0.138c-6.631-5.721-14.909-8.299-23.308-7.262
	C21.395,1.15,14.292,4.813,8.901,10.537C3.593,16.175,0.548,23.26,0.33,30.489c-0.198,6.509,1.854,12.82,5.979,18.508
	c-6.146,8.646-7.943,18.984-4.765,28.547c3.772,11.352,13.972,19.454,27.28,21.672c-0.973-3.687,0.215-8.454,2.051-12.31
	c-8.793-1.465-15.168-6.312-17.49-13.298c-2.247-6.762-0.176-14.363,5.544-20.335l4.166-4.351l-4.2-4.316
	c-9.344-9.602-6.596-19.476-0.908-25.515c3.35-3.558,7.886-5.92,12.444-6.482c6.116-0.756,10.685,1.833,13.479,4.197L57.206,29.943z
	" class="color c1"/>
</svg>