<svg version="1.1" id="图层_1" x="0px" y="0px" width="131.953px" height="150.227px" viewBox="0 0 131.953 150.227" enable-background="new 0 0 131.953 150.227" xml:space="preserve" xmlns="http://www.w3.org/2000/svg" xmlns:xlink="http://www.w3.org/1999/xlink" xmlns:xml="http://www.w3.org/XML/1998/namespace">
  <path fill="#1D5E94" d="M131.44,101.377c-1.425-9.443-6.634-24.582-23.351-43.06c-0.063-0.066-6.221-6.896-12.111-16.517
	c-2.736-4.47-5.693-10.021-7.859-15.989c0,0-4.305-14.759-0.553-25.813c0,0-5.375,6.085-4.158,23.629c0,0,0.523,2.298-1.5,2.201
	l-38.892,0.107c-6.592,0-11.934,5.351-11.934,11.95l-0.084,0.467c4.835-5.379,11.744-8.749,19.419-8.749
	c14.616,0,26.467,12.211,26.467,27.272c0,12.247-7.834,22.605-18.618,26.053h21.17l-7.776,44.842c0,6.601,2.385,11.438,8.975,11.438
	h24.555c-11.377,5.419-27.658,8.295-50.35,2.842c0,0-49.452-13.301-48.745-56.43c0,0-0.325-24.559,22.087-26.256v0.984h5.307
	c1.817,7.864,8.85,13.733,17.266,13.733c9.795,0,17.736-7.94,17.736-17.735s-7.941-17.734-17.736-17.734
	c-8.643,0-15.832,6.185-17.406,14.367H28.18v1.314C21.597,55.681-8.927,64.339,2.559,104.43c0,0,13.07,41.385,68.528,45.728
	c0,0,38.104,2.62,54.908-23.959c1.684-2.406,3.237-5.239,4.526-8.599C130.546,117.542,132.984,111.604,131.44,101.377z
	 M25.87,67.073l-1.009,5.645c0,6.599,3.813,10.214,10.403,10.214h7.305C34.959,80.5,28.825,74.623,25.87,67.073z" class="color c1"/>
  <circle fill="#FFFFFF" cx="50.752" cy="56.351" r="8.874" class="color c2"/>
</svg>