<svg version="1.1" id="图层_2" x="0px" y="0px" width="86.6px" height="121.1px" viewBox="0 0 86.6 121.1" enable-background="new 0 0 86.6 121.1" xml:space="preserve" xmlns:xml="http://www.w3.org/XML/1998/namespace" xmlns="http://www.w3.org/2000/svg" xmlns:xlink="http://www.w3.org/1999/xlink">
  <path fill="#EE7E77" d="M0,76c0.1-14.6,4.6-27.9,11.7-40.4c7.4-13,17-24.3,28.3-34.1c2.3-2,4.3-2,6.7,0C60,13.3,71,26.9,78.7,43
	c3.9,8.2,6.5,16.8,7.5,25.8s0.5,17.8-3.4,26.2c-6.7,14.3-17.9,23.2-33.5,25.6c-14.6,2.3-27-2.8-37.1-13.2C3.7,98.7-0.1,88.1,0,76z" class="color c1"/>
  <path fill="#FFFFFF" d="M60.6,73.7c0,2.4-1.9,4.2-4.4,4.2c-2.8,0-5.6,0-8.5,0c0,2.1,0,4.1,0,6c0,0.8,0,1.6,0,2.4
	c-0.1,2.6-1.9,4.5-4.4,4.5c-2.4,0-4.3-1.9-4.3-4.5c0-2.8,0-5.5,0-8.5c-0.4,0-0.8,0-1.1,0c-2.5,0-4.9,0-7.4,0s-4.4-1.8-4.4-4.2
	c-0.1-2.4,1.8-4.4,4.3-4.4c2.4-0.1,4.8,0,7.3,0c0.4,0,0.8,0,1.4,0c0-2.9,0-5.6,0-8.4c0-2.2,1.2-3.8,3.1-4.4c2.8-0.8,5.5,1.2,5.6,4.2
	c0,2.4,0,4.8,0,7.2c0,0.4,0,0.8,0,1.4c1.8,0,3.6,0,5.4,0c1.1,0,2.2,0,3.3,0C58.8,69.4,60.6,71.3,60.6,73.7z" class="color c2"/>
</svg>