<svg version="1.1" id="图层_1" x="0px" y="0px" width="112.709px" height="149.538px" viewBox="0 0 112.709 149.538" enable-background="new 0 0 112.709 149.538" xml:space="preserve" xmlns="http://www.w3.org/2000/svg" xmlns:xlink="http://www.w3.org/1999/xlink" xmlns:xml="http://www.w3.org/XML/1998/namespace">
  <path fill="#239BE0" d="M62.201,56.113c-1.764-1.133-5.898-3.781-10.246-8.684c-1.035-1.169-2.137-2.458-3.291-3.813
	c-7.369-8.632-16.539-19.376-25.869-19.376c-0.609,0-1.219,0.048-1.82,0.143c-4.73,0.787-9.992,3.673-13.322,8.345
	c-5.41,7.588-10.754,23.17-5.494,54.305c4.096,24.246,13.896,40.431,22.818,52.467c5.928,7.998,9.46,9.778,11.167,10.022
	c0.837,0.12,1.09-0.489,0.74-0.947c-2.229-2.919-11.061-13.97-16.486-27.715c-8.171-20.698-10.111-37.898-10.364-55.018
	C9.726,45.125,22.328,43.648,25.697,43.648c7.564,0,15.805,5.047,18.994,7.217c7.432,5.055,16.871,7.229,17.861,7.229
	c0.551,0,0.732-0.389,0.775-0.508C63.546,56.975,63.152,56.723,62.201,56.113z" class="color c1"/>
  <path fill="#239BE0" d="M26.634,21.498c5.928,0,10.748-4.823,10.748-10.749C37.382,4.822,32.562,0,26.634,0
	S15.886,4.822,15.886,10.749C15.886,16.675,20.707,21.498,26.634,21.498z" class="color c1"/>
  <path fill="#239BE0" d="M93.623,39.445c5.428,0,9.842-4.414,9.842-9.839c0-5.426-4.414-9.839-9.842-9.839
	c-5.424,0-9.838,4.413-9.838,9.839C83.785,35.031,88.199,39.445,93.623,39.445z" class="color c1"/>
  <path fill="#239BE0" d="M112.019,53.346c-0.865-5.874-5.57-8.853-13.982-8.853c-14.166,0-34.338,8.534-34.895,9.255l-0.229,0.299
	l0.297,0.927h0.574c0.236,0,0.59-0.078,1.584-0.306c2.639-0.605,8.137-1.863,14.408-1.863c6.877,0,12.553,1.531,16.867,4.553
	c6.266,4.385,6.65,20.363,0.938,38.855c-4.189,13.564-12.789,28.123-16.92,35.118c-2.225,3.764-2.66,4.544-2.674,5.019
	c-0.01,0.27,0.17,0.754,0.453,1.05c0.219,0.228,0.5,0.353,0.795,0.353l0,0c0.34,0,0.658-0.156,0.949-0.465
	C80.566,136.881,118.224,95.434,112.019,53.346z" class="color c1"/>
  <path fill="#239BE0" d="M52.115,100.049c0.43,0.075,0.867,0.113,1.301,0.113c3.684,0,6.814-2.639,7.443-6.274
	c0.346-1.991-0.104-3.997-1.268-5.649c-1.164-1.651-2.902-2.752-4.893-3.097c-0.43-0.073-0.867-0.112-1.301-0.112
	c-3.684,0-6.816,2.639-7.445,6.274C45.242,95.414,48.005,99.337,52.115,100.049z" class="color c1"/>
  <path fill="#239BE0" d="M73.443,127.946c-1.252-5.833-6.277-24.866-18.398-24.866l-0.227,0.003
	c-6.67,0.133-11.516,6.979-14.4,20.349c-0.041,0.197-4.189,19.712-2.404,21.923c0.205,0.256,0.49,0.397,0.801,0.397l0.119-0.008
	c0.941-0.109,1.166-1.149,2.207-6.659c1.75-9.276,5.408-28.779,14.258-27.963c10.689,0.959,14.176,15.863,15.852,23.026
	c0.85,3.639,1.137,4.865,2.16,4.865c0.131,0,0.258-0.027,0.379-0.082C75.535,138.146,73.806,129.643,73.443,127.946z" class="color c1"/>
</svg>