<svg version="1.1" id="图层_1" x="0px" y="0px" width="100.4px" height="77.674px" viewBox="0 0 100.4 77.674" enable-background="new 0 0 100.4 77.674" xml:space="preserve" xmlns="http://www.w3.org/2000/svg" xmlns:xlink="http://www.w3.org/1999/xlink" xmlns:xml="http://www.w3.org/XML/1998/namespace">
  <path fill="#7EC90A" d="M87.2,28.181c0,19,4,32.3-9.8,35.5c0,0-9.2-20.4-4.4-39.1c0,0-10.4,18.5-0.7,42.7l0.8,1.4
	c-0.1-0.1-0.2-0.2-0.4-0.3c0.1,0.1,0.1,0.3,0.2,0.4l-1.3-1.5c-19.9-18.3-38.8-14.6-38.8-14.6c23.2,4,34.2,19.6,34.2,19.6
	c-8.4,11.3-19,2.5-36.4-5.1c-17.5-7.6-30.6,1.1-30.6,1.1c1.2-11.3,15.7-19.7,15.7-19.7c23.1-11.4,38.3-3.4,46.8,4.9
	c-4.7-11-6.9-28.9,13.5-46.3c0,0,13.7-9.6,24.4-6.6C100.4,0.581,87.2,9.181,87.2,28.181z" class="color c1"/>
</svg>