<svg version="1.1" id="图层_1" x="0px" y="0px" width="197.111px" height="48.771px" viewBox="0 0 197.111 48.771" enable-background="new 0 0 197.111 48.771" xml:space="preserve" xmlns="http://www.w3.org/2000/svg" xmlns:xlink="http://www.w3.org/1999/xlink" xmlns:xml="http://www.w3.org/XML/1998/namespace">
  <path fill="#FFFFFF" d="M86.559,24.795c-9.185-0.593-11.156,17.757-19.981,17.556c-6.131-0.143-5.93-19.709-21.045-19.709
	c-0.287,0-0.604,0.016-0.936,0.062c-0.23,0.017-0.459,0.048-0.705,0.11c-7.76,1.765-8.691,16.039-29.395,22.5
	C10.48,46.57,5.702,47.531,0,48.057v0.624c7.385-0.184,14.347-0.51,16.745-1.261c5.973-1.868,12.252-4.53,16.732-9.37
	c3.399-3.672,6.69-9.201,12.055-9.201c4.146,0,8.12,1.164,11.338,4.104c2.549,2.329,4.084,7.339,6.588,9.704
	c3.479,3.277,9.419,0.75,12.529-1.979c3.215-2.824,5.86-9.814,10.571-9.675c10.074,0.294,5.877,16.938,16.191,16.029
	C92.373,46.641,98.117,25.526,86.559,24.795z M130.578,7.901c-1.102-3.892-2.899-7.911-7.21-7.9
	c-11.716,0.03-10.621,43.644-19.459,46.823c6.681-1.72,8.204-11.837,9.517-17.935c0.858-3.983,1.349-8.063,2.033-12.086
	c0.545-3.196,1.305-6.957,3.611-9.25c3.586-3.56,8.949,1.031,10.173,4.908c1.441,4.566,0.937,9.596,1.22,14.276
	c0.367,6.054,1.839,11.939,6.462,15.654c-3.737-4.985-4.826-11.85-4.938-18.272C131.894,18.706,132.063,13.135,130.578,7.901z
	 M169.947,45.19c-4.823-2.124-9.084-5.869-12.681-10.066c-3.458-4.04-8.912-3.571-13.488,3.31c-1.792,2.705-3.423,4.008-4.854,4.203
	c8.163-0.053,9.419-12.953,17.81-3.279c3.9,4.497,9.729,7.322,15.485,8.518c1.549,0.32,3.088,0.525,4.581,0.611
	c3.711,0.22,13.903,0.268,20.313,0.287v-0.537C188.789,47.761,174.551,46.661,169.947,45.19z" class="color c1"/>
</svg>