<svg version="1.1" id="图层_1" x="0px" y="0px" width="196.896px" height="196.891px" viewBox="0 0 196.896 196.891" enable-background="new 0 0 196.896 196.891" xml:space="preserve" xmlns="http://www.w3.org/2000/svg" xmlns:xlink="http://www.w3.org/1999/xlink" xmlns:xml="http://www.w3.org/XML/1998/namespace">
  <path fill="#EF3E52" d="M193.486,61.373h-57.959V3.4V0h-3.414h-67.33H61.37V3.4v57.974H3.41H0v3.409v29.105v0.384v6.608v1.592
	v29.638v3.409h3.41h57.96v57.969v3.402h3.412h67.33h3.414v-3.402V135.52h57.959h3.411v-3.409v-29.638v-1.592v-6.608v-0.384V64.782
	v-3.409H193.486z M193.486,94.272v6.608v1.592v29.638h-61.373v61.378h-67.33V132.11H3.41v-29.638h0.001v-8.584H3.41V64.782h61.372
	V3.4h67.33v61.383h61.373v29.105V94.272L193.486,94.272z" class="color c1"/>
</svg>