<svg version="1.1" id="图层_1" x="0px" y="0px" width="150.218px" height="140.528px" viewBox="0 0 150.218 140.528" enable-background="new 0 0 150.218 140.528" xml:space="preserve" xmlns="http://www.w3.org/2000/svg" xmlns:xlink="http://www.w3.org/1999/xlink" xmlns:xml="http://www.w3.org/XML/1998/namespace">
  <path fill="#FFFFFF" d="M36.912,0.139c4.982,0.541,7.579,2.521,10.87,5.635c9.115,8.932,17.031,15.742,24.952,25.75
	c0.578,0.702,1.176,1.389,1.773,2.076c1.042,1.238,1.936,0.898,3.035-0.092c3.911-3.518,7.875-7.008,11.892-10.47
	c1.165-0.983,2.314-1.968,3.383-2.993c5.894-5.721,16.369-15.133,23.738-18.759c4.397-2.278,8.535-1.224,12.635,0.784
	c8.077,3.92,13.865,10.193,18.55,17.643c1.147,2.155,1.95,4.477,2.378,6.879c0.311,1.659-0.108,3.371-1.148,4.699
	c-3.747,5.928-12.21,15.815-17.737,20.133c-3.729,2.891-7.088,6.228-10.003,9.936c-2.323,2.809-4.895,5.402-7.682,7.753
	c-2.943,2.654-2.917,3.044-0.114,5.7c3.256,2.976,6.616,5.76,9.96,8.694c5.074,4.333,10.215,8.521,14.913,13.383
	c3.608,3.753,7.447,7.094,9.955,11.685c3.078,5.256,2.479,11.888-1.491,16.508c-4.634,5.039-9.955,9.4-15.808,12.951
	c-4.214,2.752-9.452,2.704-14.561,1.629c-7.359-1.557-12.006-6.885-16.956-11.74c-6.075-5.953-11.922-12.15-17.918-18.213
	c-2.77-2.805-2.941-2.772-6.111-0.664c-7.542,4.928-14.276,10.918-21.37,16.363c-6.291,4.785-12.832,9.229-19.595,13.314
	c-3.046,1.823-6.716,2.291-10.121,1.287c-4.64-1.027-8.833-3.508-11.968-7.08c-5.386-6.266-10.196-12.871-11.966-21.18
	c-1.148-4.363,0.23-9.002,3.576-12.029c8.954-8.677,18.438-16.788,28.399-24.288c2.326-1.438,4.27-3.418,5.668-5.77
	c0.81-1.115,0.61-2.669-0.456-3.545c-3.819-4.128-7.28-8.62-11.312-12.503c-4.317-4.289-8.351-8.853-12.076-13.664
	c-2.052-2.608-5.165-4.123-6.902-7.151c-3.418-5.967-3.183-7.776,0.698-13.958c3.429-5.949,8.115-11.076,13.731-15.026
	C26.201,0.85,31.575-0.451,36.912,0.139z M117.441,137.221c5.954,1.033,11.171,0.188,14.104-2.064
	c3.484-2.681,6.927-5.448,10.309-8.273c9.253-7.834,8.061-14.029,1.446-22.275c-0.5-0.578-1.036-1.125-1.603-1.637
	c-9.899-9.729-20.4-18.717-30.966-27.713c-4.589-3.979-8.763-8.412-12.459-13.232c-6.024-7.645-12.667-14.779-19.863-21.332
	c-3.166-2.842-6.1-5.932-8.776-9.237C61.862,21.747,54.11,15.229,45.173,6.582C39.573,0.53,31.03,0.771,24.122,5.27
	c-6.277,3.816-11.341,9.34-14.602,15.922c-3.062,5.75-3.099,7.127,1.081,11.967c4.906,5.574,9.878,11.156,14.898,16.608
	c5.319,5.804,10.485,11.759,16.138,17.263c4.451,4.349,8.92,8.682,13.252,13.203c7.283,7.512,14.338,15.268,21.999,22.402
	c8.529,7.95,16.458,16.475,24.572,24.85C106.209,132.336,111.262,137.171,117.441,137.221z M42.333,74.229
	c-2.664-1.616-2.663-1.634-4.168-0.453C27.14,81.861,16.644,90.645,6.742,100.071c-2.698,2.332-4.118,5.812-3.824,9.364
	c0.969,10.727,7.328,18.391,14.878,25.143c2.755,2.482,6.528,3.179,10.196,3.595c2.289,0.204,4.581-0.362,6.51-1.612
	c13.416-7.952,25.271-17.924,37.497-27.449c0.936-0.723,2.09-1.453,1.44-3.205c-1.442,0.902-2.842,1.725-4.185,2.638
	c-7.242,4.792-9.683,4.526-15.551-1.941c-0.192-0.239-0.403-0.464-0.579-0.702c-2.338-2.994-4.924-5.788-7.73-8.351
	c-3.558-3.336-6.391-7.367-8.325-11.844c-1.156-2.235-0.752-4.96,1.003-6.763C39.415,77.273,40.891,75.754,42.333,74.229z
	 M111.204,67.648c3.035-1.33,5.649-3.463,7.559-6.17c3.505-4.406,7.457-8.437,11.792-12.027c4.34-3.586,11.958-12.325,15.329-16.832
	c2.406-2.868,2.681-6.963,0.681-10.127c-3.974-7.248-9.841-13.28-16.975-17.454c-4.737-2.989-10.771-2.992-15.509-0.005
	c-10.189,5.783-22.441,18.109-30.684,26.238c-0.867,0.863-1.857,1.629-1.107,3.072c0.921,0.094,1.835-0.227,2.499-0.871
	c6.546-4.733,6.986-4.451,13.843,0.799c0.357,0.273,0.671,0.627,1.008,0.932c5.132,4.574,8.765,10.43,13.249,15.555
	c1.361,1.835,2.28,3.959,2.687,6.207c0.671,2.063,0.112,4.328-1.441,5.842c-1.13,1.271-2.693,2.362-2.931,4.857L111.204,67.648z
	 M51.194,82.838c-0.253,0.229-0.493,0.472-0.718,0.729c-1.193,1.551-2.629,2.555-4.672,1.56c-0.847-0.411-1.708-0.993-1.46-2.024
	c0.348-1.811,0.729-3.768,3.479-2.797c0.323,0.119,0.635-0.588,0.551-1.05c-0.271-1.374-3.019-3.15-4.137-2.751
	c-3.856,1.385-5.858,5.633-4.474,9.486c0.052,0.146,0.109,0.289,0.17,0.43c1.229,2.947,2.992,5.64,5.203,7.943
	c4.315,4.027,8.407,8.286,12.259,12.758c1.802,2.128,4.307,3.51,7.301,2.086c2.318-1.143,4.487-2.566,6.46-4.237
	c0.902-0.726,1.442-1.675,0.291-2.674c-4.366-4.054-7.734-9.394-14.085-10.957c-1.587-0.243-2.716-1.672-2.585-3.272
	C54.968,85.533,53.341,84.264,51.194,82.838z M99.803,57.049c1.315,3.353,4.727,4.598,6.855,7.113
	c0.784,0.79,2.042,0.846,2.893,0.13c3.633-1.729,5.175-6.075,3.446-9.708c-0.126-0.264-0.269-0.521-0.426-0.768
	c-0.964-1.9-2.286-3.597-3.894-4.994c-1.085-0.827-2.021-1.832-2.769-2.973c-2.653-4.245-6.042-7.982-10.009-11.036
	c-3.178-2.612-5.01-2.762-8.547-0.524c-0.886,0.575-1.797,1.082-2.715,1.637c-1.546,0.925-2.163,1.967-0.815,3.643
	c4.054,5.061,8.743,9.535,12.936,14.26c1.911-0.582,1.341-3.686,3.832-2.945c1.755,0.924,2.852,2.746,2.847,4.73
	C103.035,57.921,101.018,56.375,99.803,57.049z M100.811,55.041c0.564,0.061,0.915-0.22,0.783-0.704
	c-0.137-0.539-0.429-1.026-0.839-1.402c-0.294-0.233-0.876,0.022-0.979,0.499C99.565,54.284,100.175,54.703,100.811,55.041z
	 M67.563,85.91c-6.298-6.834-13.579-12.666-19.713-19.617c-3.158-3.569-6.475-7.223-9.367-10.612s-2.685-5.132,0.738-8.036
	c6.133-5.204,12.091-10.601,17.874-16.189c3.173-3.066,5.268-3.175,7.943,0.359c6.734,8.848,15.036,16.27,22.163,24.756
	c6.211,7.255,12.882,14.103,19.97,20.502c2.145,1.932,3.926,4.23,5.262,6.79c1.192,1.839,1.107,4.226-0.212,5.976
	c-4.541,6.297-10.174,11.729-16.631,16.038c-2.829,1.911-4.813,1.612-7.407-0.653c-2.18-1.9-4.262-3.925-6.407-5.838
	c-1.204-1.369-2.741-2.404-4.462-3.006c3.264,5.061,7.928,8.692,12.683,12.1c1.985,1.316,4.586,1.228,6.477-0.221
	c6.871-4.631,12.234-10.837,17.533-17.083c0.267-0.371,0.505-0.76,0.715-1.166c1.282-1.958,1.253-4.499-0.075-6.427
	c-1.369-2.364-2.995-4.57-4.848-6.576c-5.819-5.992-12.114-11.465-17.592-17.807c-8.029-9.309-16.78-18.006-24.345-27.717
	c-5.084-6.568-7.456-6.541-13.46-0.757c-6.006,5.783-11.837,11.821-18.757,16.581c-1.234,0.641-1.873,2.042-1.545,3.395
	c0.129,1.969,0.928,3.835,2.265,5.287c4.141,3.643,7.166,8.289,10.92,12.242c6.974,7.413,14.763,13.988,21.793,21.356
	c2.443,2.567,4.717,5.604,8.332,6.837C74.972,92.109,70.741,89.448,67.563,85.91z M60.219,93.968
	c-1.648-0.146-2.291,1.129-2.361,2.701c-0.069,1.571,1.138,1.905,2.448,2.063c1.311,0.159,2.359-0.214,2.687-1.69
	C62.978,95.463,61.788,94.145,60.219,93.968z M87.042,40.103c-0.294,1.782,0.299,3.124,2.159,3.327
	c0.048,0.012,0.097,0.023,0.146,0.033c1.524,0.324,3.023-0.65,3.347-2.175c0.469-1.529-0.975-3.249-2.984-3.467
	C88.246,37.679,87.336,38.32,87.042,40.103z M63.022,39.24c-0.198,1.827-1.439,2.734-3.519,2.542
	c-1.891,0.032-3.45-1.476-3.482-3.366c0-0.002,0-0.002,0-0.004c0.094-1.747,1.586-3.088,3.333-2.998
	C61.353,35.612,62.909,37.236,63.022,39.24z M59.716,40.125c0.73,0.079,1.544-0.135,1.653-1.299
	c0.082-0.748-0.493-1.029-1.051-1.156c-0.916-0.234-1.859-0.202-2.086,0.949C58.056,39.475,58.661,39.943,59.716,40.125z
	 M91.993,99.234c-0.325,1.914-1.906,2.078-3.406,2.117s-2.747-1.475-2.615-3.46c-0.097-1.417,0.975-2.646,2.392-2.741
	c0.014-0.001,0.027-0.002,0.04-0.002C89.644,95.03,92.106,97.887,91.993,99.234z M89.713,98.566
	c-0.048-0.602-0.519-1.084-1.119-1.146c-0.442-0.031-0.826,0.301-0.857,0.742c-0.001,0.02-0.002,0.037-0.002,0.056
	c-0.067,0.614,0.166,1.245,0.826,1.366C89.22,99.706,89.638,99.264,89.713,98.566z M56.684,52.264
	c-1.442-0.342-2.662-0.559-3.266-1.8c-0.426-0.847-0.194-1.878,0.553-2.46c0.691-0.861,1.932-1.035,2.833-0.398
	c1.228,0.771,3.157,0.947,3.05,2.852C59.779,52.852,57.803,52.016,56.684,52.264z M56.864,50.604
	c0.315-0.117,0.997,0.107,0.719-0.594c-0.184-0.367-0.481-0.666-0.848-0.85c-0.306-0.172-0.692-0.064-0.866,0.24
	c-0.039,0.071-0.065,0.148-0.076,0.229c-0.168,0.924,0.489,0.91,1.039,1.105L56.864,50.604z M81.095,65.603
	c-1.605-0.176-2.763-1.619-2.587-3.224c0.01-0.094,0.025-0.187,0.044-0.279c-0.007-1.162,0.93-2.109,2.092-2.117
	c0.266-0.002,0.529,0.048,0.777,0.145c1.838,0.4,3.561,2.336,3.392,3.729C84.645,65.249,83.009,65.929,81.095,65.603z
	 M81.674,63.985c0.59,0.015,1.081-0.452,1.096-1.042c0-0.021,0-0.044-0.001-0.065c0.078-0.714-0.564-0.985-1.141-1.099
	s-1.045,0.34-1.032,0.996c0.016,0.639,0.476,1.179,1.102,1.297L81.674,63.985z M78.635,90.104c-1.825-0.212-3.302-1.583-3.648-3.388
	c0.011-1.494,1.394-2.471,3.203-2.256c2.208,0.239,3.803,1.656,3.651,3.203c-0.184,1.537-1.582,2.636-3.12,2.451
	C78.691,90.111,78.664,90.108,78.635,90.104z M79.82,87.545c0.128-0.69-0.327-1.352-1.017-1.48c-0.689-0.127-1.352,0.327-1.48,1.017
	c-0.128,0.69,0.327,1.353,1.017,1.479c0.068,0.014,0.138,0.021,0.208,0.021C79.167,88.588,79.701,88.151,79.82,87.545z
	 M53.826,66.035c-2.124-0.399-3.257-1.883-2.96-3.683c0.266-1.366,0.774-2.789,2.584-2.442c1.913,0.389,3.227,2.153,3.051,4.096
	C56.151,65.514,55.165,66.247,53.826,66.035z M54.2,62.597c-0.605-0.149-1.029-0.112-1.187,0.409c-0.216,0.5,0.014,1.08,0.513,1.296
	c0.054,0.022,0.108,0.042,0.164,0.054c0.42,0.1,0.847-0.139,0.984-0.548c0.212-0.431,0.034-0.951-0.396-1.163
	c-0.046-0.022-0.095-0.041-0.144-0.055L54.2,62.597z M80.615,77.6c-0.718-0.197-1.46-0.328-2.172-0.573
	c-1.249-0.421-2.208-1.181-1.782-2.63c0.427-1.449,1.431-2.65,3.297-2.195c0.711,0.219,1.407,0.484,2.082,0.797
	c1.298,0.454,1.981,1.874,1.528,3.172c-0.018,0.049-0.037,0.099-0.057,0.146C83.077,77.832,81.878,77.888,80.615,77.6z
	 M80.528,74.229c-0.853-0.193-1.549,0.033-1.781,0.933c-0.232,0.899,0.486,1.095,1.094,1.211c0.609,0.116,1.631,0.463,1.894-0.567
	s-0.502-1.264-1.141-1.568L80.528,74.229z M95.406,88.397c-0.604,2.001-2.234,2.009-3.931,1.841
	c-2.092-0.227-2.254-1.521-1.92-3.199c0.416-1.971,1.827-2.271,3.396-1.865C94.519,85.579,95.729,86.349,95.406,88.397z
	 M92.316,86.986c-0.551,0.117-0.901,0.659-0.783,1.21c0.008,0.04,0.02,0.081,0.033,0.12c0.031,0.414,0.391,0.725,0.806,0.694
	c0.043-0.003,0.087-0.011,0.129-0.021c0.508-0.021,0.902-0.448,0.882-0.954c-0.004-0.11-0.028-0.219-0.071-0.318
	c-0.117-0.452-0.526-0.767-0.992-0.764L92.316,86.986z M66.023,77.812c-1.72-0.237-2.998-1.714-2.985-3.45
	c0.296-1.647,1.612-2.008,3.074-1.85c1.555,0.113,2.723,1.468,2.609,3.021c-0.013,0.174-0.042,0.345-0.085,0.512
	c-0.207,1.191-1.34,1.989-2.53,1.783C66.078,77.822,66.05,77.818,66.023,77.812z M66.752,75.287
	c0.017-0.527-0.395-0.967-0.921-0.984c-0.091-0.002-0.182,0.008-0.27,0.031c-0.449,0.066-0.763,0.48-0.706,0.932
	c-0.047,0.495,0.317,0.936,0.813,0.982c0.116,0.011,0.232,0,0.344-0.034C66.46,76.141,66.779,75.739,66.752,75.287z M95.022,75.686
	c-0.159,0.537-0.185,1.24-1.065,0.993c-0.146-0.042-0.264-0.147-0.322-0.286c-0.258-0.717,0.148-1.06,0.758-1.262l0.863-0.209
	c-0.706-1.086-1.196-2.6-2.942-2c-1.222,0.422-1.597,2.48-0.765,3.949c0.831,1.469,3.146,2.443,4.182,1.564
	c1.593-1.357,0.834-2.582-0.55-3.605C95.146,75.117,95.092,75.404,95.022,75.686z M43.925,54.474
	c-1.461-0.159-2.682-0.678-2.367-2.492c0.24-1.437,2.437-3.097,3.643-2.596c1.205,0.501,2.685,1.418,2.575,3.204
	C47.711,54.111,46.086,54.844,43.925,54.474z M44.347,53.527c0.726-0.341,1.515-0.49,1.426-1.525
	c0.012-0.378-0.285-0.693-0.663-0.707c-0.069-0.001-0.138,0.007-0.205,0.025c-0.658,0.181-1.502,0.374-1.387,1.328
	C43.547,53.004,44.057,53.262,44.347,53.527z M69.883,63.326c-0.585,1.516-2.005,1.277-3.311,1.086
	c-1.634-0.348-2.676-1.953-2.329-3.587c0.008-0.036,0.017-0.073,0.025-0.108c0.02-1.043,0.879-1.872,1.922-1.853
	c0.205,0.003,0.409,0.041,0.602,0.11C68.832,59.349,70.202,61.277,69.883,63.326z M68.124,62.346
	c0.218-0.638-0.121-1.331-0.759-1.549c-0.079-0.027-0.16-0.045-0.243-0.057c-0.41-0.109-0.832,0.134-0.941,0.544
	c-0.007,0.024-0.012,0.05-0.017,0.075c-0.213,0.668,0.156,1.383,0.824,1.595c0.057,0.019,0.116,0.032,0.174,0.043
	C67.65,63.15,67.942,62.779,68.124,62.346L68.124,62.346z M71.012,52.93c-1.54-0.369-2.959-0.909-2.688-2.947
	c-0.027-1.162,0.895-2.125,2.057-2.15c0.279-0.007,0.556,0.042,0.816,0.145c1.756,0.264,2.969,1.897,2.712,3.654
	C73.569,53.207,72.291,53.068,71.012,52.93z M71.265,49.361c-0.647-0.07-1.145,0.178-1.198,0.827
	c-0.046,0.591,0.375,1.116,0.962,1.196c0.531,0.059,0.815-0.23,0.895-0.658c0.208-0.533-0.057-1.133-0.589-1.341
	C71.312,49.377,71.289,49.369,71.265,49.361L71.265,49.361z M102.992,88.482c1.208,1.25,3.103,1.539,4.628,0.705
	c0.146-0.071,0.281-0.166,0.396-0.281c0.578-0.57,0.582-1.501,0.011-2.078c-1.117-1.163-0.928,0.504-1.335,0.847
	c-1.338,1.182-1.879,0.434-2.054-0.896c-0.095-0.666,0.689-1.388-0.113-2.045C102.362,86.549,101.93,87.426,102.992,88.482z" class="color c1"/>
</svg>