<svg version="1.1" id="图层_1" x="0px" y="0px" width="163.695px" height="186.34px" viewBox="0 0 163.695 186.34" enable-background="new 0 0 163.695 186.34" xml:space="preserve" xmlns="http://www.w3.org/2000/svg" xmlns:xlink="http://www.w3.org/1999/xlink" xmlns:xml="http://www.w3.org/XML/1998/namespace">
  <path fill="#F4F3F4" d="M158.833,149.076l-10.613-18.922c-9.461-16.051-24.66-42.43-34.125-58.771l-7.447-13.189V32.391
	c8.881,0,16.05-7.163,16.05-16.047c0-8.889-7.169-16.344-16.05-16.344h-49.6c-8.886,0-16.054,7.455-16.054,16.344
	c0,8.884,7.168,16.047,16.054,16.047v25.803l-7.456,13.189c-9.464,16.34-24.654,42.717-34.114,58.77L4.87,149.074
	C1.718,154.521,0,159.682,0,164.84c0,2.87,0.573,6.02,2.005,8.6c1.722,4.02,5.157,7.455,9.173,9.461
	c4.299,2.299,9.451,3.439,14.908,3.439h21.789c18.633,0,49.312,0,67.955,0h21.779c7.447,0,13.761-2.009,18.629-5.73
	c2.291-2.006,4.304-4.301,5.451-7.17c1.433-2.58,2.006-5.729,2.006-8.6C163.698,159.682,161.98,154.523,158.833,149.076z
	 M58.482,76.539l8.887-15.477V22.068H57.051c-3.152,0-5.74-2.575-5.74-5.728c0-3.447,2.587-6.023,5.74-6.023h49.598
	c3.151,0,5.73,2.576,5.73,6.023c0,3.152-2.579,5.728-5.73,5.728H96.331v38.994l8.887,15.477c4.583,7.744,10.313,17.777,16.34,28.098
	c-20.074,0-64.224,0-79.414,0C48.165,94.316,53.899,84.283,58.482,76.539z M57.198,109.021c9.608,6.427,16.06,12.576,20.208,18.33
	c-3.752,2.065-7.147,4.849-10.021,8.5c-1.977-9.461-4.493-15.584-4.493-15.584c1.396,6.576,2.318,12.496,2.9,17.782
	c-5.339,8.007-7.32,18.308-6.666,27.892C28.83,145.596,57.198,109.021,57.198,109.021z M66.791,170.123
	c4.578-6.333,17.191-20.814,45.657-36.932c0,0-29.26,10.139-49.733,34.637c-0.638-5.557-4.702-56.582,64.323-38.443
	C127.034,129.385,115.504,190.326,66.791,170.123z" class="color c1"/>
</svg>