<svg version="1.1" id="图层_1" x="0px" y="0px" width="200px" height="167.811px" viewBox="0 0 200 167.811" enable-background="new 0 0 200 167.811" xml:space="preserve" xmlns="http://www.w3.org/2000/svg" xmlns:xlink="http://www.w3.org/1999/xlink" xmlns:xml="http://www.w3.org/XML/1998/namespace">
  <path fill="#0051A0" d="M103.106,67.771v10.756c0,1.721-1.506,3.228-3.227,3.228c-1.723,0-3.229-1.506-3.229-3.228V67.771
	c0-1.723,1.506-3.229,3.229-3.229C101.601,64.542,103.106,66.048,103.106,67.771z M78.365,86.056c-1.722,0-3.228,1.507-3.228,3.226
	v10.758c0,1.723,1.506,3.229,3.228,3.229c1.721,0,3.227-1.506,3.227-3.229V89.282C81.592,87.563,80.086,86.056,78.365,86.056z
	 M99.88,107.571c-1.723,0-3.229,1.505-3.229,3.227v10.757c0,1.721,1.506,3.228,3.229,3.228c1.721,0,3.227-1.507,3.227-3.228v-10.757
	C103.106,109.076,101.601,107.571,99.88,107.571z M142.907,107.571c-1.721,0-3.227,1.505-3.227,3.227v10.757
	c0,1.721,1.506,3.228,3.227,3.228s3.227-1.507,3.227-3.228v-10.757C146.134,109.076,144.628,107.571,142.907,107.571z
	 M56.851,107.571c-1.721,0-3.227,1.505-3.227,3.227v10.757c0,1.721,1.506,3.228,3.227,3.228c1.722,0,3.228-1.507,3.228-3.228
	v-10.757C60.078,109.076,58.572,107.571,56.851,107.571z M78.365,129.085c-1.722,0-3.228,1.506-3.228,3.227v10.758
	c0,1.722,1.506,3.227,3.228,3.227c1.721,0,3.227-1.505,3.227-3.227v-10.758C81.592,130.591,80.086,129.085,78.365,129.085z
	 M99.88,150.599c-1.723,0-3.229,1.505-3.229,3.229v10.755c0,1.721,1.506,3.229,3.229,3.229c1.721,0,3.227-1.508,3.227-3.229v-10.755
	C103.106,152.104,101.601,150.599,99.88,150.599z M121.394,129.085c-1.721,0-3.229,1.506-3.229,3.227v10.758
	c0,1.722,1.508,3.227,3.229,3.227s3.227-1.505,3.227-3.227v-10.758C124.62,130.591,123.114,129.085,121.394,129.085z
	 M121.394,86.056c-1.721,0-3.229,1.507-3.229,3.226v10.758c0,1.723,1.508,3.229,3.229,3.229s3.227-1.506,3.227-3.229V89.282
	C124.62,87.563,123.114,86.056,121.394,86.056z M187.441,74.007l-28.399,28.401c-0.645,0.645-1.506,0.86-2.365,0.86
	c-0.861,0-1.721-0.216-2.367-0.86L99.88,47.977l-54.002,54.432c-0.645,0.645-1.506,0.86-2.365,0.86c-0.861,0-1.721-0.216-2.367-0.86
	L12.747,74.007c-16.996-16.994-16.996-44.317,0-61.313C20.923,4.518,31.681,0,43.298,0C54.7,0,65.672,4.518,73.847,12.693
	L99.88,38.726l26.246-26.032C134.302,4.518,145.274,0,156.677,0s22.374,4.518,30.549,12.693
	C204.222,29.689,204.222,57.013,187.441,74.007z" class="color c1"/>
  <path fill="#FFFFFF" d="M61.369,29.259c-1.291,1.291-3.228,1.291-4.519,0c-7.529-7.53-19.578-7.53-26.893,0
	c-0.645,0.646-1.506,0.86-2.366,0.86s-1.722-0.214-2.366-0.86c-1.291-1.291-1.291-3.227,0-4.519c9.896-9.896,26.031-9.896,36.144,0
	C62.444,25.817,62.444,27.968,61.369,29.259z" class="color c2"/>
</svg>