<svg version="1.1" id="图层_1" x="0px" y="0px" width="91.5px" height="90.008px" viewBox="0 0 91.5 90.008" enable-background="new 0 0 91.5 90.008" xml:space="preserve" xmlns="http://www.w3.org/2000/svg" xmlns:xlink="http://www.w3.org/1999/xlink" xmlns:xml="http://www.w3.org/XML/1998/namespace">
  <path fill="#EEC859" d="M35.5,49.782L0,73.254l24.979,16.754L47.968,64.31L35.5,49.782z M75.171,32.704
	c0.738-1.53,4.703-8.003-0.224-19.435C70.02,1.836,63.395,0,63.395,0c10.834,4.896,4.164,14.34-0.781,20.226
	c-0.924,1.101-1.881,2.19-2.86,3.271c-1.058,1.166-6.287,9.07-6.287,9.07s9.321,8.399,13.702,13.484
	C71.756,40.229,74.745,33.589,75.171,32.704z M91.5,75.613c0,0-45.236-47.282-49.616-52.116c-0.979-1.081-1.936-2.171-2.861-3.271
	C34.078,14.34,27.406,4.896,38.242,0c0.001,0-6.626,1.836-11.554,13.27c-4.927,11.432-0.96,17.904-0.224,19.435
	c0.67,1.391,16.061,20.764,16.061,20.764l31.797,35.547L91.5,75.613z" class="color c1"/>
</svg>