<svg version="1.1" id="图层_1" x="0px" y="0px" width="70.797px" height="70.795px" viewBox="0 0 70.797 70.795" enable-background="new 0 0 70.797 70.795" xml:space="preserve" xmlns="http://www.w3.org/2000/svg" xmlns:xlink="http://www.w3.org/1999/xlink" xmlns:xml="http://www.w3.org/XML/1998/namespace">
  <path fill="#FFFFFF" d="M66.077,25.957H44.838V4.719c0-2.605-2.113-4.719-4.72-4.719h-9.439c-2.606,0-4.72,2.113-4.72,4.719v21.238
	H4.72c-2.606,0-4.72,2.115-4.72,4.721v9.439c0,2.607,2.113,4.721,4.72,4.721h21.239v21.238c0,2.605,2.113,4.719,4.72,4.719h9.439
	c2.606,0,4.72-2.113,4.72-4.719V44.838h21.239c2.606,0,4.72-2.113,4.72-4.721v-9.439C70.797,28.072,68.684,25.957,66.077,25.957z" class="color c1"/>
</svg>