<svg version="1.1" id="图层_1" x="0px" y="0px" width="152.552px" height="98.744px" viewBox="0 0 152.552 98.744" enable-background="new 0 0 152.552 98.744" xml:space="preserve" xmlns="http://www.w3.org/2000/svg" xmlns:xlink="http://www.w3.org/1999/xlink" xmlns:xml="http://www.w3.org/XML/1998/namespace">
  <path fill="#EE4681" d="M36.158,90.322c0.249-0.068,3.315-0.91,8.536-2.031l-0.565-24.911c-0.132-5.808,3.65-10.892,9.188-13.247
	c-3.707-2.22-6.229-6.232-6.334-10.872c-0.163-7.185,5.527-13.139,12.713-13.302c7.185-0.163,13.139,5.528,13.303,12.712
	c0.107,4.771-2.367,8.997-6.144,11.348c3.351,1.365,6.082,3.737,7.7,6.693c-2.06,1.913-3.329,4.659-3.261,7.692
	c0.08,3.525,1.938,6.59,4.697,8.357c-4.128,1.455-6.931,4.395-6.855,7.723l0.083,3.693c13.05-1.81,20.04-3.712,24.232-6.695
	c-1.03-2.15-3.318-3.898-6.28-4.865c2.777-1.875,4.578-5.073,4.496-8.675c-0.043-1.901-0.613-3.662-1.553-5.165
	c0.577-0.421,1.195-0.8,1.854-1.121c-2.51-1.756-4.185-4.635-4.26-7.934c-0.125-5.505,4.231-10.064,9.736-10.189
	c5.502-0.124,10.063,4.232,10.188,9.736c0.078,3.461-1.617,6.547-4.253,8.393c3.662,1.802,6.187,5.279,6.278,9.338l0.029,1.247
	c0.163-0.007,0.325-0.024,0.49-0.024c3.678,0,6.986,1.662,9.076,4.56c1.514,2.099,2.191,4.509,2.34,7.024
	c2.519-3.4,4.947-6.842,7.32-10.256c9.324-13.414,15.389-17.863,18.303-20.002c0.271-0.197,0.504-0.361,0.693-0.515
	c1.211-1.146,2.852-2.115,4.645-2.823c-0.736-5.185-2.527-10.544-5.586-16.067C126.361-6.932,81.298,17.089,81.298,17.089
	S56.787-14.546,21.027,8.268c-35.267,22.58-19.689,61.568-0.239,90.476c4.295-3.271,9.137-6.072,14.605-8.17L36.158,90.322z" class="color c1"/>
</svg>