<svg version="1.1" id="图层_1" x="0px" y="0px" width="87.191px" height="147.352px" viewBox="0 0 87.191 147.352" enable-background="new 0 0 87.191 147.352" xml:space="preserve" xmlns="http://www.w3.org/2000/svg" xmlns:xlink="http://www.w3.org/1999/xlink" xmlns:xml="http://www.w3.org/XML/1998/namespace">
  <path fill="#905AA6" d="M59.099,71.257c3.664-7.735,6.573-14.635,8.248-19.813l0.03,0.066c0.302-0.967,0.568-1.942,0.812-2.924
	c0.182-0.688,0.33-1.331,0.444-1.926c0.007-0.035,0.017-0.073,0.021-0.109c0.014-0.06,0.029-0.128,0.039-0.188v-0.002
	c0.313-1.555,0.559-3.125,0.717-4.711c0.211-8.129-3.586-23.87-7.852-34c0.014,0.085,0.014,0.179,0.028,0.264
	c-0.098-0.278-0.157-0.443-0.157-0.443S56.712-0.076,45.359,0c-11.354,0.079-15.44,8.297-15.44,8.297S29.903,8.33,29.886,8.38
	c-3.742,8.761-6.979,22.293-6.691,29.265c0.164,1.359,0.407,2.705,0.708,4.036v0.008c0.011,0.059,0.028,0.128,0.041,0.188
	c0.005,0.022,0.011,0.045,0.016,0.066c0.125,0.566,0.285,1.186,0.479,1.851c0.22,0.772,0.454,1.541,0.715,2.304l0.023-0.05
	c2.074,5.88,6.129,14.34,11.138,23.632C22.724,96.407,6.7,125.8,0,130.494c6.119,2.589,13.27-0.612,13.27-0.612
	s-0.479,11.578-1.644,17.471c7.803-5.731,24.037-31.356,37.241-55.934c10.553,17.179,21.717,32.811,27.609,36.795
	c-1.117-5.051-1.853-15.034-1.853-15.034s7.051,2.31,12.566,0.011C81.941,109.804,70.277,90.933,59.099,71.257z M46.707,48.851
	c-7.07-13.098-12.484-23.634-13.627-26.032c-0.235-0.52-0.451-1.026-0.666-1.535c2.835-2.624,7.171-5.269,12.859-5.308
	c7.026-0.049,11.676,3.31,14.076,5.854c-0.334,0.904-0.688,1.821-1.08,2.758C57.187,27.073,52.746,36.528,46.707,48.851z" class="color c1"/>
</svg>