<svg version="1.1" id="图层_1" x="0px" y="0px" width="179.585px" height="182px" viewBox="0 0 179.585 182" enable-background="new 0 0 179.585 182" xml:space="preserve" xmlns="http://www.w3.org/2000/svg" xmlns:xlink="http://www.w3.org/1999/xlink" xmlns:xml="http://www.w3.org/XML/1998/namespace">
  <path fill="#FFFFFF" d="M49.958,26.074c-15.799,0-31.071,26.334-16.063,87.424c15.01,61.094,38.445,59.773,38.445,59.773
	s11.85,4.869,5.135-30.021c-6.715-34.889,7.701-44.764,7.701-44.764c-12.047,16.395,3.227,37.129,9.545,61.355
	c6.32,24.227-23.172,38.973-61.09-12.375C-4.286,96.117-10.606,14.751,17.043,2.902C44.693-8.949,69.181,18.701,96.039,28.179
	c26.859,9.479,38.709-1.58,38.709-1.58C99.99,52.67,65.758,26.074,49.958,26.074z M137.982,33.974
	c-27.084,18.957-47.574,10.84-52.883,8.131c25.703,14.234,46.5,6.76,57.885,0.033c11.586-6.847,18.697-8.426,21.855-3.949
	c7.506,9.349,9.611,36.467-3.555,60.695c-9.318,17.146-17.645,24.195-21.717,26.854c0,0.018-0.006,0.031-0.006,0.049
	c38.871-23.053,40.021-72.854,40.021-83.912C179.585,30.816,169.58,11.855,137.982,33.974z" class="color c1"/>
</svg>