<svg version="1.1" id="图层_1" x="0px" y="0px" width="66.77px" height="67.006px" viewBox="0 0 66.77 67.006" enable-background="new 0 0 66.77 67.006" xml:space="preserve" xmlns="http://www.w3.org/2000/svg" xmlns:xlink="http://www.w3.org/1999/xlink" xmlns:xml="http://www.w3.org/XML/1998/namespace">
  <path fill="#303030" d="M29.794,16.216c-8.19,1.221-14.989,9.238-12.376,17.605c2.44-5.927,7.495-9.936,13.423-9.762
	c4.883,0.175,9.938,5.404,9.938,9.412c0.522,6.627-3.835,11.508-9.762,13.949c13.771,4.533,21.616-13.076,15.339-23.361
	C42.87,18.306,36.419,15.519,29.794,16.216z M66.769,33.503c0-8.02-2.789-15.34-7.498-21.094c0.119,0.053,0.229,0.108,0.35,0.162
	c-6.141-7.66-15.567-12.57-26.148-12.57c-10.522,0-19.907,4.854-26.051,12.441c0.025-0.012,0.049-0.022,0.073-0.033
	C2.789,18.163,0,25.483,0,33.503c0,8.02,2.789,15.342,7.495,21.094c-0.024-0.011-0.049-0.022-0.074-0.033
	c6.144,7.586,15.527,12.443,26.052,12.443c10.576,0,20.004-4.908,26.145-12.566c-0.117,0.052-0.229,0.105-0.346,0.156
	C63.98,48.845,66.769,41.522,66.769,33.503z M33.472,58.083c-13.598,0-24.582-10.982-24.582-24.58s10.984-24.58,24.582-24.58
	c13.596,0,24.578,10.982,24.578,24.58S47.068,58.083,33.472,58.083z" class="color c1"/>
</svg>