<svg version="1.1" id="图层_1" x="0px" y="0px" width="93.34px" height="152.355px" viewBox="0 0 93.34 152.355" enable-background="new 0 0 93.34 152.355" xml:space="preserve" xmlns="http://www.w3.org/2000/svg" xmlns:xlink="http://www.w3.org/1999/xlink" xmlns:xml="http://www.w3.org/XML/1998/namespace">
  <path fill="#3E444C" d="M56.153,110.091c0.027-0.497,0.099-1.669,0.045-2.283c3.508-0.748,7.026-1.371,10.474-2.265
	c5.255-1.362,10.154-3.567,14.47-6.917c0.457-0.354,0.812-1.043,0.903-1.626c0.203-1.309,0.29-2.636,0.397-3.976
	c0.039-0.493,0.384-0.91,0.86-1.046l2.135-0.6c0.009,0.254,0.003,0.398,0.008,0.554c0.061,2.187,0.648,4.119,2.522,5.479
	c0.749,0.544,0.765,1.243,0.474,2.107c-1.655,4.927-5.771,11.465-9.417,14.775c-2.405-1.443-4.862-2.882-7.276-4.388
	c-0.718-0.448-1.257-0.484-2.042-0.087c-1.708,0.863-3.5,1.558-5.246,2.587c1.593,0.114,3.186,0.227,4.908,0.35
	c-0.11,1.807-0.219,3.596-0.326,5.386c-0.093,1.555-0.178,3.11-0.279,4.665c-0.2,3.067-1.697,4.876-4.662,5.65
	c-0.276,0.072-0.554,0.139-0.818,0.204c-0.022,11.624-9.588,17.439-17.044,17.193c-7.231-0.239-15.914-5.675-15.921-17.199
	c-3.766-0.824-5.091-2.236-5.552-5.878c-0.261-2.057-0.497-4.118-0.645-6.186c-0.059-0.823-0.183-1.638-0.326-2.451
	c-0.161-0.917,0.135-1.136,0.901-1.248c1.451-0.212,2.807-0.503,4.404-0.786c-2.116-0.75-4.223-1.528-6.358-2.22
	c-0.319-0.103-0.806,0.133-1.154,0.324c-2.25,1.231-4.491,2.481-6.719,3.752c-0.549,0.313-0.933,0.34-1.415-0.168
	c-3.794-3.995-6.707-8.499-8.319-13.817c-0.382-1.261-0.285-2.333,0.791-2.995c1.806-1.112,1.942-2.738,1.776-4.554l-0.057-1.074
	c0.887,0.253,1.588,0.386,2.371,0.648c0.466,0.156,0.704,0.53,0.755,0.97c0.127,1.085,0.335,2.011,0.408,3.1
	c0.086,1.29,0.57,2.242,1.63,3.074c4.293,3.371,9.195,5.403,14.435,6.661c3.22,0.773,6.495,1.318,9.831,1.983
	c0.032,0.673,0.068,1.418,0.119,2.476c1.159-1.691,2.251-3.103,3.143-4.631c1.197-2.049,3.007-2.749,5.037-2.92
	c-0.916,2.125-1.635,3.794-2.535,5.883c-0.229,0.532,0.033,1.134,0.558,1.379c1.117,0.521,2.075,0.083,2.716-0.645
	c0.328-0.37,0.55-0.895,0.937-1.394c0.522,0.644,0.985,1.46,1.552,1.836c0.492,0.327,1.104,0.41,1.869,0.292
	c0.364-0.028,1.09-0.515,0.752-1.315c-0.72-1.702-1.417-3.414-2.123-5.122c-0.171-0.415-0.127-0.307-0.392-0.951
	c1.801,0.115,3.496,0.833,4.297,2.06C53.803,105.968,56.153,110.091,56.153,110.091z M31.299,123.343
	c1.41-2.112,1.615-5.329,0.305-7.119C30.577,118.281,30.804,121.123,31.299,123.343z M62.165,123.96
	c0.472-2.128,0.681-6.092-0.699-7.667C60.762,118.04,60.554,121.623,62.165,123.96z M3.204,132.682
	c3.267,4.789,6.561,9.572,10.124,14.14c1.318,1.691,3.349,2.875,5.185,4.094c1.066,0.707,2.289,0.525,3.404-0.327
	c1.77-1.352,3.565-2.686,5.451-3.863c1.677-1.047,2.167-2.549,1.636-4.219c-0.706-2.219-1.469-4.513-2.716-6.448
	c-2.684-4.165-5.645-8.156-8.588-12.147c-1.53-2.075-3.401-3.839-5.788-4.958c-1.32-0.619-2.526-0.63-3.763,0.329
	c-1.793,1.389-3.656,2.693-5.543,3.953c-1.137,0.759-1.683,1.719-1.596,2.521C1.147,128.641,1.925,130.807,3.204,132.682z
	 M63.833,143.365c-0.04,1.586,0.586,2.244,1.885,3.17c1.779,1.27,3.625,2.457,5.324,3.825c1.477,1.189,3.012,1.286,4.397,0.245
	c1.929-1.45,3.935-2.95,5.412-4.82c3.044-3.855,5.898-7.88,8.549-12.016c1.263-1.971,2.018-4.312,2.744-6.568
	c0.527-1.638-0.002-3.083-1.621-4.1c-1.848-1.16-3.619-2.457-5.343-3.797c-1.227-0.954-2.39-1.158-3.778-0.696
	c-1.508,0.638-2.381,1.225-4.755,4.156c-3.778,4.665-7.137,9.668-10.45,14.675C65.045,139.082,63.779,142.851,63.833,143.365z" class="color c1"/>
  <path fill="#FFFFFF" d="M49.059,132.704c1.432-0.953,2.156-2.294,2.256-4.004c1.993-0.365,3.987-0.731,6.013-1.102
	c0.154,1.942-0.142,3.787-0.947,5.548c-1.145,2.504-3.182,4.294-5.125,5.185C50.526,136.46,49.796,134.59,49.059,132.704z
	 M37.251,134.154c1.096,1.839,2.614,3.226,4.541,4.185c0.022-0.046,0.037-0.071,0.048-0.098c0.692-1.809,1.384-3.618,2.079-5.426
	c0.041-0.106,0-0.148-0.077-0.204c-0.793-0.573-1.38-1.311-1.744-2.221c-0.215-0.538-0.318-1.101-0.346-1.69
	c-1.986-0.351-3.963-0.701-5.974-1.056C35.603,129.992,36.062,132.158,37.251,134.154z M40.712,119.58
	c1.219,1.6,2.437,3.199,3.656,4.798c1.449-0.667,2.885-0.667,4.326,0.001c1.223-1.605,2.441-3.204,3.66-4.804
	C48.951,117.28,44.109,117.316,40.712,119.58z M49.286,128.656c0-1.52-1.234-2.755-2.754-2.756c-1.521,0-2.755,1.233-2.756,2.753
	c0,1.521,1.233,2.756,2.753,2.756C48.049,131.411,49.286,130.176,49.286,128.656z" class="color c2"/>
  <path fill="#A4FF00" d="M7.846,53.837c0.373,2.725,0.499,5.441,1.152,8.023c1.193,4.72,4.629,7.052,9.441,6.798
	c0.279-0.015,0.555-0.086,0.99-0.157c-0.362-1.159-0.694-2.229-1.03-3.297c-1.44-4.578-2.839-9.167-3.035-14.011
	c-0.198-4.889,1.039-9.299,4.478-13.137c0.21,0.585,0.326,1.08,0.554,1.467c0.659,1.117,1.241,1.442,2.009,1.947
	c0.753,0.495,1.326,0.195,1.65-0.771c1.725-5.146,4.083-9.956,7.713-14.064c2.188-2.477,4.727-4.513,7.767-6.283
	c-0.159,1.274-0.31,2.337-0.42,3.405c-0.248,2.41-0.166,4.8,0.646,7.108c1.03,2.932,3.257,4.358,6.327,4.116
	c3.368-0.266,5.012-1.727,5.585-5.08c0.663-3.878-0.184-7.629-1.17-11.333c-1.605-6.032-3.93-11.797-6.706-17.382
	C43.617,0.827,43.455,0.461,43.239,0c16.052,7.508,24.959,19.787,24.152,37.504c1.8-0.795,3.633-4.26,4.272-8.272
	c0.462,0.549,0.83,0.956,1.163,1.389c3.372,4.383,4.668,9.449,4.799,14.868c0.156,6.44-1.298,12.604-3.358,18.652
	c-0.201,0.59-0.402,1.18-0.614,1.799c3.552-0.123,8.399-7.698,8.107-12.621c0.167,0.063,0.324,0.086,0.434,0.171
	c5.772,4.403,9.018,10.191,9.612,17.456c0.363,4.443-0.114,8.828-0.833,13.195c-0.075,0.454-0.59,1.001-1.037,1.205
	c-9.846,4.494-20.144,7.529-30.8,9.354c-2.527,0.433-5.075,0.771-7.625,1.03c-1.142,0.116-1.346,0.655-1.1,1.575
	c0.27,1.014,0.604,2.011,0.908,3.016c0.13,0.428,0.149,0.502,0.304,1.025c-2.039-0.021-3.649-0.307-4.575-2.524
	c-0.956,2.202-1.918,2.577-4.393,2.506c0.309-1.001,0.546-1.632,0.812-2.613c0.588-2.167,0.174-2.771-2.019-2.902
	C27.935,95.01,15.293,91.02,3.118,85.336c-0.397-0.185-0.878-0.627-0.945-1.014C1.275,79.135,0.452,73.938,1.098,68.64
	C1.79,62.956,4.157,58.057,7.846,53.837z M58.919,141.811c2.342-2.262,5.118-6.216,5.348-12.364l0.085-0.021
	c3.362-0.877,5.182-3.081,5.408-6.553c0.066-1.019,0.125-2.037,0.185-3.056l0.48-7.985l-2.28-0.163
	c0.021-0.01,0.042-0.02,0.062-0.028c0.657-0.303,1.309-0.604,1.949-0.927c0.46-0.234,0.629-0.227,1.062,0.043
	c1.767,1.102,3.556,2.168,5.33,3.226l2.598,1.553l0.55-0.499c3.701-3.359,7.958-10.035,9.692-15.197
	c0.472-1.402,0.19-2.49-0.835-3.235c-1.397-1.014-2.048-2.463-2.11-4.698l-0.001-0.165c0-0.108,0-0.231-0.006-0.396l-0.046-1.271
	l-3.363,0.944c-0.875,0.25-1.511,1.024-1.583,1.929L81.4,93.505c-0.09,1.159-0.175,2.255-0.345,3.344
	c-0.055,0.356-0.297,0.81-0.527,0.988c-3.957,3.07-8.703,5.338-14.107,6.739c-2.349,0.608-4.788,1.102-7.146,1.578
	c-1.095,0.221-2.19,0.442-3.286,0.677l-0.5,0.106c-0.626-1.073-1.286-2.187-1.649-2.744c-0.933-1.429-2.828-2.367-5.07-2.511
	l-1.6-0.103l1.63,3.951c0.484,1.178,0.969,2.355,1.474,3.554c-0.667,0.096-0.958-0.034-1.121-0.143
	c-0.245-0.162-0.544-0.575-0.833-0.975c-0.162-0.225-0.326-0.449-0.495-0.658l-0.793-0.979l-0.773,0.996
	c-0.209,0.27-0.378,0.545-0.536,0.807c-0.133,0.221-0.249,0.411-0.362,0.54c-0.697,0.792-1.333,0.494-1.604,0.321l3.195-7.415
	l-1.663,0.141c-2.706,0.228-4.609,1.343-5.817,3.411c-0.425,0.729-0.907,1.442-1.419,2.175l-0.017-0.344l-0.766-0.152
	c-1.039-0.207-2.071-0.402-3.098-0.597c-2.313-0.438-4.498-0.851-6.695-1.378c-5.625-1.35-10.221-3.468-14.051-6.475
	c-0.818-0.643-1.18-1.325-1.25-2.354c-0.047-0.699-0.146-1.333-0.241-1.946c-0.061-0.39-0.123-0.783-0.171-1.201
	c-0.101-0.864-0.636-1.538-1.43-1.803c-0.494-0.165-0.957-0.283-1.449-0.407c-0.304-0.076-0.621-0.156-0.966-0.255L6.571,90.01
	l0.134,2.51c0.157,1.725-0.004,2.811-1.305,3.611c-0.953,0.587-1.938,1.781-1.224,4.137c1.562,5.151,4.359,9.801,8.551,14.216
	c1.141,1.202,2.266,0.559,2.635,0.349c2.181-1.244,4.437-2.503,6.703-3.743c0.262-0.144,0.401-0.196,0.47-0.216
	c0.902,0.293,1.81,0.605,2.709,0.923c-0.23,0.038-0.461,0.074-0.695,0.108c-0.521,0.076-1.104,0.225-1.484,0.751
	c-0.396,0.548-0.336,1.21-0.257,1.66c0.114,0.647,0.252,1.499,0.313,2.348c0.161,2.242,0.419,4.413,0.65,6.241
	c0.48,3.797,1.962,5.582,5.558,6.542c0.383,11.079,8.68,17.138,16.874,17.408c0.168,0.006,0.336,0.009,0.504,0.009
	C51.091,146.863,55.62,144.997,58.919,141.811z M24.841,113.883c0.95-0.14,1.86-0.311,2.822-0.493
	c0.517-0.098,1.049-0.198,1.611-0.298l3.73-0.661l-5.127-1.821c-1.575-0.563-3.203-1.146-4.827-1.673
	c-0.673-0.215-1.358,0.078-1.942,0.397c-2.277,1.246-4.543,2.511-6.735,3.761c-0.058,0.033-0.102,0.055-0.134,0.069
	c-0.017-0.015-0.036-0.033-0.059-0.058c-3.973-4.184-6.618-8.573-8.087-13.419c-0.385-1.27-0.017-1.622,0.358-1.854
	c2.174-1.339,2.403-3.349,2.274-5.163c0.324,0.083,0.641,0.17,0.975,0.282c0.039,0.013,0.064,0.021,0.078,0.137
	c0.052,0.445,0.117,0.864,0.182,1.277c0.093,0.598,0.181,1.161,0.222,1.772c0.106,1.596,0.745,2.801,2.009,3.793
	c4.061,3.188,8.908,5.429,14.819,6.848c2.245,0.538,4.555,0.976,6.79,1.397c0.768,0.146,1.539,0.291,2.313,0.442l0.222,4.665
	l1.682-2.454c0.364-0.53,0.72-1.032,1.066-1.52c0.763-1.074,1.483-2.089,2.115-3.172c0.6-1.027,1.402-1.701,2.507-2.082
	l-1.786,4.146c-0.44,1.023,0.023,2.201,1.053,2.681c1.381,0.644,2.834,0.312,3.888-0.888c0.089-0.101,0.17-0.205,0.245-0.312
	c0.277,0.354,0.579,0.683,0.941,0.924c0.694,0.461,1.536,0.606,2.5,0.456c0.573-0.045,1.173-0.428,1.493-0.953
	c0.32-0.526,0.356-1.147,0.102-1.748c-0.505-1.194-0.999-2.394-1.493-3.593l-0.314-0.762c0.82,0.284,1.472,0.729,1.83,1.277
	c0.775,1.188,3.096,5.259,3.119,5.3l1.684,2.851l0.189-3.386c0.02-0.36,0.051-0.912,0.059-1.435
	c0.818-0.171,1.637-0.336,2.455-0.502c2.385-0.481,4.851-0.979,7.252-1.603c5.669-1.47,10.659-3.856,14.832-7.095
	c0.64-0.497,1.141-1.385,1.277-2.262c0.181-1.165,0.273-2.35,0.362-3.495l0.044-0.556c0.006-0.076,0.061-0.142,0.133-0.162
	l0.913-0.257c0.208,2.491,1.138,4.262,2.895,5.537c0.207,0.15,0.356,0.259,0.114,0.979c-1.558,4.637-5.254,10.553-8.606,13.848
	l-1.314-0.785c-1.763-1.051-3.541-2.11-5.296-3.205c-1.031-0.643-1.935-0.682-3.022-0.131c-0.619,0.312-1.249,0.603-1.883,0.896
	c-1.118,0.515-2.273,1.047-3.419,1.723l-2.763,1.629l7.121,0.51l-0.361,6.016c-0.059,1.014-0.118,2.028-0.184,3.042
	c-0.17,2.621-1.378,4.085-3.917,4.747l-1.563,0.394l-0.001,0.777c-0.011,5.897-2.59,9.624-4.752,11.711
	c-3.044,2.94-7.252,4.623-11.259,4.484c-6.007-0.199-14.947-4.678-14.954-16.201l0-0.804l-0.786-0.172
	c-3.341-0.731-4.367-1.812-4.774-5.027c-0.229-1.801-0.483-3.938-0.64-6.132c-0.067-0.939-0.216-1.857-0.338-2.553
	c-0.005-0.026-0.009-0.051-0.012-0.073C24.789,113.89,24.814,113.887,24.841,113.883z M14.296,113.211L14.296,113.211
	L14.296,113.211z M63.141,124.177c0.369-1.662,0.922-6.437-0.923-8.543l-1.072-1.224l-0.608,1.509
	c-0.786,1.951-1.056,5.912,0.804,8.608l1.303,1.889L63.141,124.177z M32.131,123.899c1.693-2.537,1.816-6.167,0.28-8.266
	l-0.969-1.323l-0.732,1.468c-1.213,2.429-0.879,5.573-0.386,7.783l0.51,2.282L32.131,123.899z M22.524,151.384
	c1.957-1.495,3.619-2.715,5.374-3.81c1.998-1.247,2.749-3.204,2.06-5.37c-0.761-2.391-1.549-4.701-2.829-6.688
	c-2.576-3.996-5.44-7.881-8.21-11.637l-0.415-0.562c-1.804-2.446-3.821-4.17-6.168-5.269c-1.771-0.832-3.342-0.687-4.801,0.444
	c-1.583,1.228-3.326,2.47-5.485,3.911c-1.395,0.932-2.155,2.21-2.039,3.427c0.143,2.9,0.895,5.257,2.366,7.414
	c3.332,4.885,6.616,9.645,10.162,14.191c1.232,1.581,2.96,2.706,4.631,3.795l0.79,0.517c0.612,0.406,1.276,0.607,1.958,0.607
	C20.785,152.355,21.679,152.029,22.524,151.384z M11.488,119.859c2.038,0.955,3.807,2.474,5.408,4.646l0.414,0.562
	c2.752,3.731,5.597,7.591,8.138,11.534c1.148,1.781,1.859,3.866,2.604,6.209c0.413,1.298,0.016,2.301-1.213,3.067
	c-1.821,1.138-3.527,2.389-5.528,3.917c-0.826,0.63-1.581,0.729-2.244,0.288l-0.804-0.527c-1.533-0.998-3.119-2.03-4.146-3.349
	c-3.51-4.499-6.774-9.231-10.086-14.088c-1.258-1.845-1.901-3.882-2.022-6.409l-0.005-0.06c-0.041-0.376,0.302-1.01,1.158-1.581
	c2.199-1.469,3.979-2.738,5.6-3.995c0.477-0.369,0.934-0.551,1.434-0.551C10.589,119.522,11.01,119.636,11.488,119.859z
	 M76.103,151.357c1.962-1.475,3.992-3,5.533-4.952c3.009-3.812,5.904-7.881,8.605-12.096c1.336-2.085,2.108-4.482,2.854-6.801
	c0.676-2.101-0.068-4.016-2.042-5.254c-1.602-1.006-3.274-2.194-5.262-3.74c-1.489-1.156-2.984-1.428-4.78-0.826
	c-1.757,0.743-2.747,1.49-5.142,4.447c-3.749,4.627-7.106,9.613-10.5,14.741c-1.11,1.591-2.507,5.35-2.536,6.463h-0.001
	c-0.054,2.15,1.012,3.088,2.303,4.009c0.564,0.403,1.134,0.798,1.705,1.191c1.198,0.828,2.437,1.685,3.573,2.6
	c0.969,0.779,1.997,1.175,3.018,1.175C74.345,152.314,75.252,151.998,76.103,151.357z M84.566,120.094
	c2.041,1.588,3.765,2.812,5.425,3.854c1.203,0.756,1.596,1.72,1.201,2.947c-0.707,2.197-1.438,4.469-2.634,6.334
	c-2.666,4.16-5.523,8.177-8.491,11.937c-1.381,1.748-3.305,3.194-5.228,4.641c-1.006,0.754-2.042,0.684-3.17-0.226
	c-1.193-0.96-2.463-1.838-3.69-2.687c-0.562-0.388-1.124-0.776-1.68-1.174c-1.178-0.84-1.493-1.225-1.468-2.367
	c0.048-0.565,1.168-3.89,2.186-5.34l0.015-0.022c3.369-5.089,6.698-10.035,10.393-14.597c2.375-2.932,3.131-3.341,4.294-3.836
	c0.365-0.122,0.702-0.185,1.024-0.185C83.367,119.374,83.939,119.607,84.566,120.094z M51.465,138.785
	c2.289-1.05,4.296-3.08,5.371-5.431c0.82-1.794,1.154-3.744,0.991-5.797l-0.044-0.552l-6.944,1.273l-0.022,0.392
	c-0.092,1.585-0.758,2.768-2.034,3.617l-0.335,0.223l2.537,6.496L51.465,138.785z M51.78,129.123l5.081-0.932
	c0.058,1.691-0.25,3.249-0.935,4.747c-0.902,1.974-2.525,3.698-4.403,4.702l-1.857-4.756
	C50.889,131.954,51.598,130.692,51.78,129.123z M42.258,138.524l2.127-5.529c0.055-0.144,0.141-0.508-0.251-0.789
	c-0.721-0.521-1.25-1.194-1.573-2.002c-0.182-0.454-0.284-0.954-0.311-1.528l-0.019-0.398l-6.912-1.222l-0.041,0.552
	c-0.184,2.485,0.335,4.774,1.542,6.803c1.132,1.899,2.729,3.371,4.748,4.376l0.464,0.18L42.258,138.524z M41.282,129.125
	c0.056,0.525,0.171,1.003,0.351,1.45c0.364,0.911,0.941,1.682,1.728,2.3l-1.83,4.761c-1.617-0.905-2.911-2.16-3.85-3.737
	c-1.026-1.724-1.497-3.581-1.434-5.663L41.282,129.125z M43.451,132.636L43.451,132.636L43.451,132.636z M53.072,119.457
	l-0.438-0.296c-3.567-2.407-8.583-2.406-12.199,0.003l-0.443,0.295l4.222,5.542l0.364-0.168c1.318-0.606,2.596-0.606,3.907,0
	l0.364,0.168L53.072,119.457z M51.625,119.706l-3.093,4.061c-1.329-0.516-2.671-0.516-4.002,0l-3.088-4.053
	C44.493,117.935,48.612,117.931,51.625,119.706z M49.786,128.656c0-0.868-0.338-1.686-0.953-2.301s-1.432-0.954-2.3-0.954
	c-0.001,0-0.001,0-0.002,0c-0.868,0-1.685,0.338-2.299,0.952c-0.615,0.614-0.954,1.432-0.955,2.301c0,1.795,1.459,3.256,3.253,3.257
	h0C48.325,131.911,49.785,130.451,49.786,128.656z M46.532,126.401c0.602,0,1.167,0.234,1.593,0.661
	c0.426,0.426,0.661,0.992,0.661,1.594c0,1.243-1.013,2.255-2.256,2.255c-1.243-0.001-2.254-1.014-2.253-2.257
	c0-0.602,0.235-1.168,0.661-1.594c0.426-0.425,0.991-0.659,1.593-0.659C46.531,126.401,46.532,126.401,46.532,126.401z" class="color c3"/>
</svg>