<svg version="1.1" id="图层_1" x="0px" y="0px" width="148.807px" height="33.404px" viewBox="0 0 148.807 33.404" enable-background="new 0 0 148.807 33.404" xml:space="preserve" xmlns="http://www.w3.org/2000/svg" xmlns:xlink="http://www.w3.org/1999/xlink" xmlns:xml="http://www.w3.org/XML/1998/namespace">
  <g>
    <path fill="#7DBF5A" d="M0.051,1.741c0,0,2.19,15.003,18.202,20.306c21.629,7.164,42.273-5.252,54.033,11.357
		c0,0,2.212-17.683-13.446-25.94C43.182-0.793,33.94,2.338,19.288,4.882c0,0-0.21,1.653,3.813,3.579
		c4.021,1.926,9.424,1.424,12.438,1.293c3.013-0.129,2.333,3.294,0.114,4.166c-2.578,1.015-8.609,2.437-22.946-4.945
		C4.5,4.748,0.17-2.018,0,1.206" class="color c1"/>
    <path fill="#7DBF5A" d="M148.756,1.377c0,0-2.19,15.004-18.202,20.307c-21.629,7.164-42.273-5.252-54.033,11.357
		c0,0-2.212-17.684,13.446-25.94s24.899-5.126,39.552-2.582c0,0,0.21,1.653-3.813,3.579c-4.021,1.926-9.424,1.423-12.438,1.293
		c-3.013-0.129-2.333,3.294-0.114,4.166c2.578,1.015,8.609,2.437,22.946-4.946c8.208-4.226,12.538-10.991,12.708-7.768" class="color c1"/>
  </g>
</svg>