<svg version="1.1" id="图层_1" x="0px" y="0px" width="192.975px" height="192.978px" viewBox="0 0 192.975 192.978" enable-background="new 0 0 192.975 192.978" xml:space="preserve" xmlns="http://www.w3.org/2000/svg" xmlns:xlink="http://www.w3.org/1999/xlink" xmlns:xml="http://www.w3.org/XML/1998/namespace">
  <path fill="#FFFFFF" d="M142.073,181.725l13.721-70.655h21.1c8.03-0.01,14.571-6.552,14.581-14.583V80.407
	c0-6.267-5.099-11.365-11.365-11.365c-6.266,0-11.364,5.099-11.364,11.365v3.216c0,0.947,0.77,1.717,1.715,1.717h4.717v4.716
	c0,2.601-2.116,4.716-4.717,4.716h-11.148V57.436c0.014-8.374-3.713-16.192-10.227-21.451c-4.762-3.888-10.79-6.027-16.976-6.027
	c-1.094,0-2.195,0.068-3.273,0.204l-1.687,0.212V3.216c0-0.946-0.769-1.716-1.715-1.716H67.541c-0.947,0-1.717,0.77-1.717,1.716
	v27.156l-1.686-0.211c-1.075-0.134-2.173-0.202-3.264-0.202c-6.19,0-12.221,2.138-16.98,6.021
	c-6.516,5.263-10.245,13.082-10.232,21.454v37.338H22.513c-2.6,0-4.716-2.115-4.716-4.716V85.34h4.716
	c0.947,0,1.717-0.77,1.717-1.717v-3.216c0-6.267-5.098-11.365-11.364-11.365C6.599,69.042,1.5,74.141,1.5,80.407v16.081
	c0.01,8.029,6.552,14.571,14.583,14.581h21.098l13.774,70.884c1.401,5.598,6.448,9.524,12.266,9.524
	c1.033,0,2.071-0.128,3.086-0.382c3.999-0.999,7.271-3.894,8.752-7.742l9.917-25.783c1.821-4.729,6.448-7.907,11.514-7.907
	c1.515,0,3.006,0.279,4.431,0.828c3.247,1.25,5.827,3.83,7.079,7.079l9.916,25.783c1.87,4.861,6.624,8.128,11.83,8.128
	c1.552,0,3.081-0.285,4.544-0.849C138.199,189.13,141.108,185.8,142.073,181.725z" class="color c1"/>
  <path fill="#ABE2FF" d="M183.712,97.489c0,5.328-4.319,9.647-9.648,9.647h-18.914l1.03-10.432h11.451
	c5.328,0,9.648,1.681,9.648-3.649v-6.432c0-1.776-1.44-3.217-3.216-3.217h-3.217c0-3.553,2.881-6.433,6.433-6.433
	c3.553,0,6.433,2.88,6.433,6.433V97.489z" class="color c2"/>
  <path fill="#ABE2FF" d="M9.263,83.407c0-3.553,2.88-6.433,6.433-6.433c3.552,0,6.433,2.88,6.433,6.433h-3.217
	c-1.775,0-3.216,1.44-3.216,3.217v6.432c0,5.33,4.32,3.649,9.648,3.649h11.451l1.03,10.432H18.911c-5.329,0-9.648-4.319-9.648-9.647
	V83.407z" class="color c2"/>
  <path fill="#ABE2FF" d="M144.758,112.068c-3.09,13.943-13.491,69.449-13.491,69.449c-0.882,3.274-3.861,5.543-7.253,5.526
	c-3.104-0.013-5.886-1.923-7.009-4.815l-9.621-25.02c-1.703-4.419-5.196-7.913-9.613-9.614c-1.983-0.764-4.021-1.108-6.027-1.108
	c-2.005,0-4.043,0.345-6.026,1.108c-4.418,1.701-7.911,5.195-9.613,9.614l-9.621,25.02c-1.124,2.893-3.905,4.803-7.009,4.815
	c-3.392,0.017-6.371-2.252-7.253-5.526c0,0-10.4-55.506-13.491-69.449c-4.316-19.473-3.993-50.119-3.993-50.119
	c-0.01-6.641,3.819-13.111,8.982-17.285c4.966-4.068,11.505-5.673,17.789-4.369c9.969,2.109,20.103,3.164,30.236,3.164
	c10.134,0,20.267-1.055,30.236-3.164c6.285-1.304,12.823,0.301,17.789,4.369c5.164,4.174,8.992,10.645,8.982,17.285
	C148.751,61.949,149.075,92.596,144.758,112.068z" class="color c2"/>
  <path fill="#00336D" d="M180.109,67.542c-7.104,0-12.864,5.76-12.864,12.865v3.216c0,1.776,1.44,3.217,3.217,3.217h3.216v3.216
	c0,1.775-1.44,3.216-3.216,3.216l-10.558-0.23c0,0,1.917-23.25,0.909-35.605c-0.83-10.168-3.952-17.101-10.784-22.618
	c-5.987-4.884-13.712-7.103-21.378-6.145V3.216c0-1.775-1.439-3.216-3.217-3.216H96.487H67.541c-1.777,0-3.217,1.44-3.217,3.216
	v25.457c-7.666-0.958-15.391,1.261-21.378,6.145c-6.832,5.518-9.955,12.45-10.784,22.618c-1.008,12.355,0.909,35.605,0.909,35.605
	l-10.558,0.23c-1.775,0-3.216-1.44-3.216-3.216V86.84h3.216c1.776,0,3.217-1.44,3.217-3.217v-3.216
	c0-7.105-5.76-12.865-12.864-12.865C5.76,67.542,0,73.302,0,80.407v16.081c0.011,8.877,7.203,16.07,16.081,16.081h19.863
	l13.538,69.67c1.898,7.595,9.594,12.211,17.188,10.312c4.478-1.119,8.13-4.35,9.788-8.658l9.917-25.783
	c1.657-4.304,5.76-6.933,10.111-6.935c4.351,0.002,8.455,2.631,10.111,6.935l9.917,25.783c1.658,4.309,5.311,7.539,9.788,8.658
	c7.595,1.899,15.29-2.717,17.188-10.312l13.538-69.67h19.863c8.878-0.011,16.07-7.204,16.081-16.081V80.407
	C192.975,73.302,187.215,67.542,180.109,67.542z M16.08,106.137c-5.329,0-9.648-4.319-9.648-9.647V80.407
	c0-3.553,2.88-6.433,6.433-6.433c3.552,0,6.433,2.88,6.433,6.433H16.08c-1.775,0-3.216,1.44-3.216,3.217v6.432
	c0,5.33,4.32,9.649,9.648,9.649h11.452l1.03,6.432H16.08z M70.756,6.434h25.731h25.731v23.346
	c-8.508,1.544-17.12,2.316-25.731,2.316s-17.224-0.772-25.731-2.316V6.434z M151.122,109.277
	c-3.185,14.368-13.903,71.571-13.903,71.571c-0.909,3.374-3.979,5.713-7.475,5.695c-3.199-0.013-6.065-1.981-7.224-4.963
	l-9.915-25.784c-1.755-4.555-5.354-8.154-9.907-9.908c-2.044-0.787-4.145-1.143-6.211-1.142c-2.066-0.001-4.167,0.354-6.211,1.142
	c-4.553,1.754-8.152,5.354-9.907,9.908l-9.915,25.784c-1.158,2.981-4.024,4.95-7.224,4.963c-3.495,0.018-6.565-2.321-7.475-5.695
	c0,0-10.718-57.203-13.903-71.571c-4.448-20.069-4.115-51.652-4.115-51.652c-0.01-6.844,3.936-13.513,9.257-17.813
	c5.118-4.192,11.856-5.847,18.333-4.503c10.273,2.174,20.717,3.262,31.16,3.262s20.887-1.088,31.16-3.262
	c6.477-1.344,13.215,0.311,18.333,4.503c5.321,4.301,9.267,10.97,9.257,17.813C155.237,57.625,155.57,89.208,151.122,109.277z
	 M186.543,96.489c0,5.328-4.319,9.647-9.648,9.647H157.98l1.03-6.432h11.452c5.328,0,9.648-4.319,9.648-9.649v-6.432
	c0-1.776-1.44-3.217-3.216-3.217h-3.217c0-3.553,2.881-6.433,6.433-6.433c3.553,0,6.433,2.88,6.433,6.433V96.489z" class="color c3"/>
  <path fill="#00336D" d="M115.784,70.758H77.189c-1.776,0-3.216,1.439-3.216,3.217c0,12.434,10.079,22.514,22.513,22.514
	c12.435,0,22.515-10.08,22.515-22.514C119.001,72.197,117.56,70.758,115.784,70.758z M96.486,90.056
	c-7.639-0.009-14.221-5.382-15.759-12.865h31.519C110.709,84.674,104.127,90.047,96.486,90.056z" class="color c3"/>
  <path fill="#FFFFFF" d="M96.486,90.056c-7.639-0.009-14.221-5.382-15.759-12.865h31.519
	C110.709,84.674,104.127,90.047,96.486,90.056z" class="color c1"/>
  <path fill="#00336D" d="M80.405,61.109c1.776,0,3.217,1.44,3.217,3.216h6.433c0-5.328-4.319-9.648-9.649-9.648
	c-5.328,0-9.649,4.32-9.649,9.648h6.434C77.189,62.55,78.63,61.109,80.405,61.109z" class="color c3"/>
  <path fill="#00336D" d="M112.567,54.677c-5.328,0-9.647,4.32-9.647,9.648h6.433c0-1.775,1.439-3.216,3.215-3.216
	c1.777,0,3.217,1.44,3.217,3.216h6.433C122.217,58.997,117.897,54.677,112.567,54.677z" class="color c3"/>
  <polygon fill="#00336D" points="93.271,26.695 99.703,26.695 99.703,22.515 103.885,22.515 103.885,16.082 99.703,16.082 
	99.703,11.9 93.271,11.9 93.271,16.082 89.09,16.082 89.09,22.515 93.271,22.515 " class="color c3"/>
</svg>