<svg version="1.1" id="图层_1" x="0px" y="0px" width="100.998px" height="164.229px" viewBox="0 0 100.998 164.229" enable-background="new 0 0 100.998 164.229" xml:space="preserve" xmlns="http://www.w3.org/2000/svg" xmlns:xlink="http://www.w3.org/1999/xlink" xmlns:xml="http://www.w3.org/XML/1998/namespace">
  <path fill="#D4145A" d="M100.392,102.437c-1.558-16.621-6.144-32.389-14.238-47.002C76.571,38.132,66.731,20.972,56.95,3.78
	c-1.467-2.578-3.97-3.833-6.451-3.779c-2.481-0.054-4.984,1.2-6.451,3.779c-9.781,17.192-19.621,34.352-29.204,51.654
	C6.751,70.048,2.165,85.816,0.607,102.437c-0.615,6.556-1.06,13.153,0.195,19.687c3.399,17.698,13.064,30.51,29.131,37.493
	c6.591,3.137,13.464,4.687,20.566,4.609c7.103,0.078,13.976-1.472,20.566-4.609c16.067-6.984,25.732-19.796,29.131-37.493
	C101.452,115.59,101.006,108.993,100.392,102.437z" class="color c1"/>
  <path fill="#FFFFFF" d="M94.135,98.889c-2.071-16.6-7.733-31.938-16.125-46.383c-8.732-15.03-17.178-30.227-25.738-45.357
	c-0.483-0.854-0.996-1.86-2.035-1.692c-1.038-0.168-1.551,0.838-2.035,1.692c-8.56,15.13-17.006,30.326-25.738,45.357
	C14.071,66.951,8.409,82.289,6.338,98.889c-0.88,7.051-1.486,14.127-0.503,21.232c2.956,21.362,21.056,37.984,42.65,38.582
	c0.592,0.016,1.168,0,1.751-0.002c0.583,0.002,1.159,0.018,1.751,0.002c21.594-0.598,39.695-17.22,42.65-38.582
	C95.62,113.015,95.014,105.94,94.135,98.889z" class="color c2"/>
  <path fill="#D4145A" d="M25.306,58.364c1.524,0.864,2.983,1.691,4.535,2.57c-0.264,0.505-0.487,0.948-0.723,1.384
	c-8.64,15.973-13.212,33.024-13.101,51.199c0.084,13.791,6.489,24.012,18.452,30.793c0.324,0.184,0.657,0.35,1.115,0.593
	c-0.735,1.548-1.452,3.056-2.241,4.719c-0.509-0.242-0.971-0.426-1.4-0.67c-13.59-7.705-20.984-19.332-21.202-34.978
	c-0.268-19.229,4.573-37.286,13.741-54.184C24.725,59.343,24.991,58.909,25.306,58.364z M50.236,153.62c0-2.014,0-3.673,0-5.302
	c-2.471-0.253-4.826-0.494-7.285-0.746c-0.357,1.643-0.709,3.265-1.122,5.163C44.731,153.041,47.468,153.329,50.236,153.62z" class="color c1"/>
</svg>