<svg version="1.1" id="图层_1" x="0px" y="0px" width="200.001px" height="165.607px" viewBox="0 0 200.001 165.607" enable-background="new 0 0 200.001 165.607" xml:space="preserve" xmlns="http://www.w3.org/2000/svg" xmlns:xlink="http://www.w3.org/1999/xlink" xmlns:xml="http://www.w3.org/XML/1998/namespace">
  <polygon fill="#005093" points="135.37,77.501 111.637,77.501 111.637,53.769 93.178,53.769 93.178,77.501 69.446,77.501 
	69.446,95.96 93.178,95.96 93.178,119.693 111.637,119.693 111.637,95.96 135.37,95.96 " class="color c1"/>
  <path fill="#75D200" d="M119.463,69.013c8.279-7.172,24.67-27.945,24.67-27.945c-6.875,7.357-20.857,19.994-26.246,24.818
	c0.199-8.061,3.719-30.859,36.381-38.282C154.268,27.604,158.393,75.388,119.463,69.013z M131.129,4.327
	c-23.316,5.299-25.832,21.575-25.973,27.33c3.848-3.444,13.828-12.466,18.736-17.718c0,0-11.699,14.831-17.611,19.951
	C134.075,38.441,131.129,4.327,131.129,4.327z M170.684,63.218c-23.316,5.299-25.832,21.575-25.973,27.329
	c3.846-3.442,13.828-12.465,18.736-17.718c0,0-11.701,14.831-17.611,19.951C173.627,97.333,170.684,63.218,170.684,63.218z
	 M182.965,39.197c-16.18-2.351-21.787,7.416-23.293,11.055c3.301-1.252,11.889-4.555,16.313-6.699c0,0-11.111,6.586-16.143,8.4
	C176.458,61.69,182.965,39.197,182.965,39.197z M161.559,0.182c-14.15-1.54-18.723,7.133-19.916,10.345
	c2.832-1.193,10.199-4.334,13.98-6.338c0,0-9.461,6.078-13.779,7.813C156.602,19.953,161.559,0.182,161.559,0.182z M197.622,24.699
	c-14.896-10.666-26.828-3.149-30.68-0.053c4.145,0.34,14.963,1.18,20.818,1.141c0,0-15.477,1.367-21.734,0.748
	C176.635,45.246,197.622,24.699,197.622,24.699z M135.79,104.313c-9.576-3.979-15.195,1.693-16.924,3.893
	c2.328-0.342,8.402-1.262,11.627-2.032c0,0-8.361,2.732-11.891,3.19C126.844,118.327,135.79,104.313,135.79,104.313z
	 M112.542,40.043c-9.578-3.979-15.197,1.692-16.926,3.892c2.33-0.342,8.402-1.262,11.627-2.031c0,0-8.359,2.731-11.891,3.189
	C103.594,54.056,112.542,40.043,112.542,40.043z M185.436,104.065c-27.375-11.373-43.439,4.838-48.379,11.123
	c6.658-0.977,24.018-3.606,33.234-5.807c0,0-23.896,7.809-33.988,9.119C159.864,144.118,185.436,104.065,185.436,104.065z
	 M137.512,135.028c-28.471-3.336-39.125,15.993-42.057,23.146c5.936-2.67,21.387-9.709,29.377-14.194
	c0,0-20.162,13.587-29.203,17.476C124.323,179.05,137.512,135.028,137.512,135.028z M180.18,8.065
	c-9.578-3.979-15.197,1.692-16.926,3.892c2.328-0.342,8.402-1.262,11.627-2.032c0,0-8.361,2.732-11.891,3.19
	C171.233,22.078,180.18,8.065,180.18,8.065z M199.936,62.119c-16.83,4.314-18.646,17.562-18.748,22.246
	c2.777-2.803,9.982-10.146,13.523-14.422c0,0-8.443,12.071-12.709,16.239C202.061,89.886,199.936,62.119,199.936,62.119z
	 M199.749,37.751c-15.182,3.891-16.822,15.843-16.912,20.069c2.504-2.528,9.006-9.153,12.201-13.012c0,0-7.619,10.89-11.467,14.651
	C201.667,62.802,199.749,37.751,199.749,37.751z M86.108,70.416c-8.34-7.222-24.842-28.14-24.842-28.14
	c6.922,7.408,21.002,20.134,26.428,24.991c-0.199-8.117-3.744-31.074-36.635-38.549C51.059,28.718,46.907,76.835,86.108,70.416z
	 M96.895,33.889c-5.91-5.12-17.611-19.951-17.611-19.951c4.908,5.252,14.891,14.274,18.736,17.718
	c-0.141-5.755-2.656-22.031-25.973-27.33C72.047,4.327,69.104,38.441,96.895,33.889z M58.331,97.725
	c-5.912-5.12-17.611-19.951-17.611-19.951c4.908,5.253,14.889,14.275,18.736,17.719c-0.141-5.756-2.656-22.031-25.973-27.33
	C33.483,68.163,30.538,102.276,58.331,97.725z M43.334,57.556c-5.029-1.814-16.141-8.4-16.141-8.4
	c4.422,2.145,13.01,5.447,16.313,6.699C42,52.216,36.393,42.45,20.211,44.8C20.211,44.8,26.721,67.293,43.334,57.556z
	 M61.334,12.001c-4.318-1.736-13.781-7.813-13.781-7.813c3.781,2.004,11.148,5.146,13.982,6.338
	C60.34,7.314,55.768-1.358,41.618,0.182C41.618,0.182,46.575,19.953,61.334,12.001z M38.045,31.428
	c-6.768,0.671-23.502-0.809-23.502-0.809c6.332,0.042,18.029-0.864,22.51-1.233c-4.162-3.347-17.064-11.474-33.168,0.058
	C3.885,29.444,26.573,51.66,38.045,31.428z M84.577,109.364c-3.531-0.458-11.891-3.19-11.891-3.19
	c3.223,0.771,9.297,1.69,11.627,2.032c-1.729-2.199-7.35-7.871-16.926-3.893C67.387,104.313,76.333,118.327,84.577,109.364z
	 M103.792,139.207c-2.777-2.228-8.498-8.907-8.498-8.907c2.354,2.334,7.063,6.277,8.875,7.779
	c-0.332-2.775-2.186-10.542-12.436-12.122C91.733,125.957,92.09,142.577,103.792,139.207z M74.125,121.138
	c-10.092-1.312-33.986-9.12-33.986-9.12c9.215,2.201,26.574,4.83,33.232,5.807c-4.939-6.285-21.004-22.496-48.379-11.123
	C24.993,106.702,50.565,146.754,74.125,121.138z M93.348,152.367c-5.982-2.19-19.502-10.251-19.502-10.251
	c5.324,2.612,15.564,6.609,19.498,8.123c-2.15-4.519-9.73-16.633-28.016-13.457C65.329,136.782,75.428,164.765,93.348,152.367z
	 M40.188,13.116c-3.531-0.458-11.891-3.19-11.891-3.19c3.223,0.77,9.297,1.69,11.627,2.032c-1.729-2.199-7.35-7.87-16.926-3.892
	C22.999,8.065,31.944,22.078,40.188,13.116z M24.077,86.068C18.372,80.492,7.075,64.345,7.075,64.345
	c4.738,5.719,14.377,15.541,18.09,19.292C25.03,77.37,22.6,59.648,0.086,53.878C0.086,53.878-2.753,91.022,24.077,86.068z" class="color c2"/>
</svg>