<svg version="1.1" id="图层_2" x="0px" y="0px" width="75.524px" height="118.805px" viewBox="0 0 75.524 118.805" enable-background="new 0 0 75.524 118.805" xml:space="preserve" xmlns="http://www.w3.org/2000/svg" xmlns:xlink="http://www.w3.org/1999/xlink" xmlns:xml="http://www.w3.org/XML/1998/namespace">
  <path fill="#EE7E77" d="M38.363,1.166c11.098,21.231,22.443,42.339,33.181,63.751c6.125,12.214,4.997,24.571-2.12,36.253
	c-0.534,0.876-1.923,1.623-2.979,1.717c-3.664,0.329-7.357,0.334-11.038,0.48c-5.232,0.207-9.179,2.983-10.818,7.953
	c-0.71,2.151-0.873,4.482-1.422,7.485c-3.989-0.222-8.305,0.029-12.416-0.772C5.407,113.091-7.44,86.09,4.507,63.177
	c7.991-15.325,16.016-30.633,24.024-45.95C31.501,11.547,34.464,5.862,37.524,0C37.895,0.51,38.178,0.812,38.363,1.166z
	 M47.65,70.157c0.11,2.963,0.715,5.933,1.357,8.841c0.323,1.462,1.069,2.906,1.913,4.164c3.207,4.783,8.705,4.609,11.66-0.36
	c2.29-3.851,2.234-7.998,1.126-12.181c-2.144-8.102-6.015-15.435-10.256-22.583c-2.086-3.515-4.363-6.916-6.661-10.538
	C47.064,48.623,47.251,59.394,47.65,70.157z" class="color c1"/>
</svg>