<svg version="1.1" id="图层_1" x="0px" y="0px" width="58.397px" height="76.536px" viewBox="0 0 58.397 76.536" enable-background="new 0 0 58.397 76.536" xml:space="preserve" xmlns="http://www.w3.org/2000/svg" xmlns:xlink="http://www.w3.org/1999/xlink" xmlns:xml="http://www.w3.org/XML/1998/namespace">
  <path fill="#1F242A" d="M51.381,1.624c-0.679-0.367-1.398-0.684-2.144-0.936l-0.1-0.031c-6.142-1.996-12.833,0.682-15.907,6.369
	c-2.131,3.932-2.154,8.645-0.067,12.613l1.093,2.076l-1.395,1.322l-8.101,13.637L0,76.321c5.544,0.41,23.618,0.236,29.097-0.533
	l14.357-48.786l2.805-0.271c2.428-0.23,4.746-1.115,6.702-2.557c1.588-1.174,2.874-2.654,3.822-4.406
	c0.212-0.387,0.403-0.789,0.587-1.23c0.873-2.092,1.198-4.391,0.941-6.65C57.812,7.538,55.222,3.7,51.381,1.624z" class="color c1"/>
</svg>