<svg version="1.1" id="图层_1" x="0px" y="0px" width="210.007px" height="127.6px" viewBox="0 0 210.007 127.6" enable-background="new 0 0 210.007 127.6" xml:space="preserve" xmlns="http://www.w3.org/2000/svg" xmlns:xlink="http://www.w3.org/1999/xlink" xmlns:xml="http://www.w3.org/XML/1998/namespace">
  <path fill="#F42525" d="M97.483,93.69c-15.79-14.71-30.52-33.18-30.83-56.8c0-0.29,0-0.57,0.01-0.85L66.643,36h0.02
	c0.07-5.65,1.58-11.15,4.36-16.13c-1.73-2.57-3.85-5.06-6.26-7.36c-8.7-8.3-19.68-12.85-30.15-12.49
	c-8.09,0.27-16.82,4.16-23.33,10.41c-7.41,7.09-11.41,16.48-11.28,26.46c0.44,32.52,28.19,55.28,48.46,71.89
	c4.22,3.47,24.43,18.82,24.43,18.82s19.98-16.11,23.98-19.71c2.63-2.37,5.38-4.86,8.18-7.47
	C102.533,98.27,100.003,96.03,97.483,93.69z M175.363,0.42c-14.56-0.29-28.47,8.84-36.09,19.87c2.48,4.34,4.01,9.27,4.08,14.68
	c0.01,0.46,0.01,0.91-0.01,1.37c-0.3,22.41-15.28,41.51-30.98,57.09c-2.43,2.42-4.89,4.74-7.31,6.99c3.45,2.95,6.84,5.73,10.04,8.36
	c4.23,3.47,8.27,6.81,11.78,9.59c3.94,3.12,12.2,9.23,12.2,9.23s20.44-16.11,24.43-19.71c19.8-17.88,46.9-42.37,46.5-72.92
	C209.723,15.05,191.533,0.77,175.363,0.42z" class="color c1"/>
</svg>