<svg version="1.1" id="图层_1" x="0px" y="0px" width="159.332px" height="88.398px" viewBox="0 0 159.332 88.398" enable-background="new 0 0 159.332 88.398" xml:space="preserve" xmlns="http://www.w3.org/2000/svg" xmlns:xlink="http://www.w3.org/1999/xlink" xmlns:xml="http://www.w3.org/XML/1998/namespace">
  <path fill="#0271C0" d="M78.686,83.45C50.396,50.876,11.332,75.065,0,88.398c7.332-43.333,51.463-53.483,74.627-30.321
	c1.508,1.508,4.059,4.621,4.059,4.621s0.848-1.41,4.059-4.621c23.16-23.162,73.922-12.346,76.588,29.654
	C148,75.731,110.088,52.024,78.686,83.45z M79.666,0C66.518,0,55.857,10.659,55.857,23.808s10.66,23.809,23.809,23.809
	c13.15,0,23.809-10.66,23.809-23.809S92.816,0,79.666,0z" class="color c1"/>
</svg>