<svg version="1.1" id="图层_1" x="0px" y="0px" width="196.328px" height="200px" viewBox="0 0 196.328 200" enable-background="new 0 0 196.328 200" xml:space="preserve" xmlns="http://www.w3.org/2000/svg" xmlns:xlink="http://www.w3.org/1999/xlink" xmlns:xml="http://www.w3.org/XML/1998/namespace">
  <path fill="#FFFFFF" d="M170.117,122.704H94.158c-1.937,0-3.506-1.569-3.506-3.506c0-1.936,1.569-3.506,3.506-3.506h75.959
	c10.586,0,19.199-8.612,19.199-19.198c0-10.587-8.613-19.199-19.199-19.199h-26.878c-1.936,0-3.505-1.57-3.505-3.506
	s1.569-3.506,3.505-3.506h26.878c14.452,0,26.211,11.758,26.211,26.211C196.328,110.946,184.569,122.704,170.117,122.704z
	 M123.373,173.789v-26.877c0-1.937-1.569-3.506-3.506-3.506s-3.506,1.569-3.506,3.506v26.877c0,10.586-8.612,19.199-19.199,19.199
	c-10.586,0-19.198-8.613-19.198-19.199V97.83c0-1.936-1.569-3.506-3.506-3.506s-3.506,1.57-3.506,3.506v75.959
	c0,14.453,11.758,26.211,26.21,26.211C111.615,200,123.373,188.242,123.373,173.789z M123.373,102.17V26.211
	C123.373,11.758,111.615,0,97.162,0c-14.452,0-26.21,11.758-26.21,26.211v26.878c0,1.936,1.569,3.505,3.506,3.505
	s3.506-1.569,3.506-3.505V26.211c0-10.586,8.612-19.199,19.198-19.199c10.587,0,19.199,8.613,19.199,19.199v75.959
	c0,1.936,1.569,3.506,3.506,3.506S123.373,104.105,123.373,102.17z M56.595,119.198c0-1.936-1.569-3.506-3.506-3.506H26.211
	c-10.587,0-19.199-8.612-19.199-19.198c0-10.587,8.612-19.199,19.199-19.199h75.959c1.937,0,3.506-1.57,3.506-3.506
	s-1.569-3.506-3.506-3.506H26.211C11.758,70.283,0,82.041,0,96.494c0,14.452,11.758,26.21,26.211,26.21h26.878
	C55.025,122.704,56.595,121.135,56.595,119.198z M107.395,29.488c1.936-0.063,3.453-1.684,3.39-3.618
	c-0.152-4.629-3.182-13.476-13.565-13.827c-10.408-0.359-14.007,8.581-14.464,13.354c-0.183,1.919,1.217,3.612,3.135,3.81
	c1.912,0.201,3.634-1.203,3.843-3.12c0.132-1.211,1.117-7.289,7.249-7.036c6.146,0.209,6.739,5.917,6.795,7.071
	c0.073,1.886,1.625,3.369,3.502,3.369C107.316,29.49,107.355,29.489,107.395,29.488z M111.17,173.121
	c0.184-1.918-1.217-3.612-3.135-3.809c-1.907-0.203-3.634,1.204-3.843,3.119c-0.133,1.21-1.141,7.229-7.248,7.036
	c-6.146-0.208-6.739-5.916-6.796-7.07c-0.075-1.924-1.695-3.413-3.618-3.368c-1.936,0.063-3.453,1.684-3.389,3.618
	c0.151,4.629,3.181,13.476,13.564,13.828c0.2,0.007,0.397,0.01,0.593,0.01C107.24,186.485,110.723,177.802,111.17,173.121z
	 M169.978,110.511c4.629-0.151,13.476-3.181,13.827-13.564c0.353-10.396-8.581-14.008-13.354-14.464
	c-1.918-0.18-3.612,1.218-3.809,3.134c-0.196,1.917,1.203,3.635,3.119,3.844c1.212,0.133,7.245,1.103,7.036,7.25
	c-0.208,6.145-5.916,6.737-7.07,6.794c-1.925,0.075-3.431,1.689-3.368,3.618c0.063,1.896,1.619,3.391,3.502,3.391
	C169.899,110.513,169.938,110.512,169.978,110.511z M29.247,107.328c0.195-1.917-1.204-3.635-3.12-3.844
	c-1.211-0.133-7.244-1.103-7.036-7.25c0.208-6.145,5.916-6.737,7.071-6.795c1.925-0.074,3.431-1.688,3.367-3.617
	c-0.063-1.936-1.695-3.433-3.618-3.389c-4.629,0.151-13.477,3.181-13.828,13.564c-0.352,10.396,8.581,14.008,13.354,14.464
	c0.113,0.011,0.227,0.016,0.338,0.016C27.551,110.478,29.062,109.132,29.247,107.328z" class="color c1"/>
</svg>