<svg version="1.1" id="图层_1" x="0px" y="0px" width="86.418px" height="137.777px" viewBox="0 0 86.418 137.777" enable-background="new 0 0 86.418 137.777" xml:space="preserve" xmlns="http://www.w3.org/2000/svg" xmlns:xlink="http://www.w3.org/1999/xlink" xmlns:xml="http://www.w3.org/XML/1998/namespace">
  <path fill="#6BBEDC" d="M85.558,112.299c-1.896-4.993-4.308-9.301-6.544-11.194c-1.381-1.036-6.201-3.443-12.057-5.512
	c-3.617-1.205-7.752-2.41-11.369-3.101c-0.174,2.756-1.379,5.34-3.101,7.235c-1.896,2.236-4.649,3.79-7.752,4.132
	c-0.514,0.173-1.203,0.173-1.893,0.173c-0.689,0-1.206,0-1.895-0.173c-3.101-0.342-5.685-1.896-7.578-4.132
	c-1.895-1.896-2.929-4.479-3.101-7.235c-3.79,0.689-7.925,1.896-11.54,3.101c-5.857,2.067-10.679,4.476-12.057,5.512
	c-2.067,1.895-4.65,6.201-6.545,11.194c0,0,17.229,22.104,42.371,25.479C42.5,137.777,68.471,136.308,85.558,112.299z
	 M42.844,85.602c-2.756,0-5.168-0.344-7.58-1.204l-1.55,6.544c0,0.345,0,0.688,0,1.036c0,2.064,0.689,3.96,2.067,5.511
	c1.55,1.55,3.445,2.754,5.685,3.101c0.517,0,0.861,0,1.378,0c0.516,0,1.031,0,1.551,0c2.064-0.347,4.133-1.551,5.51-3.101
	c1.377-1.551,2.24-3.445,2.24-5.511c0-0.348,0-0.691-0.175-1.036l-1.376-6.373C48.182,85.259,45.598,85.602,42.844,85.602z
	 M21.313,75.27C14.94,68.207,10.98,58.39,9.257,49.434c-2.755,0.86-5.683,1.551-8.785,1.723c1.551,8.956,5.34,17.051,8.267,21.357
	c2.929,4.479,6.029,6.889,9.303,7.924c2.756,0.688,5.511,0.515,8.267-0.52C24.586,78.541,22.863,76.992,21.313,75.27z M75.911,52.36
	c-1.894,8.783-6.027,17.741-12.229,24.113c-1.376,1.378-2.755,2.586-4.306,3.79c2.93,1.205,6.029,1.55,8.957,0.688
	c3.271-0.861,6.543-3.445,9.475-7.75c2.927-4.65,7.063-13.262,8.268-22.736C82.629,51.329,79.355,51.844,75.911,52.36L75.911,52.36z
	 M26.309,37.722c-2.24,3.272-5.855,6.544-10.679,9.128c-1.033,0.518-2.067,1.033-3.101,1.551c1.551,8.44,5.34,17.739,11.368,24.628
	c4.823,5.34,11.197,9.13,18.947,9.13c7.578,0,13.605-3.271,18.429-8.097c5.511-5.684,9.128-13.434,11.194-21.354
	c-9.646,0.689-18.6-0.347-26.352-2.756C37.848,47.367,31.13,43.063,26.309,37.722L26.309,37.722z M24.069,34.966
	c-1.206-1.549-2.065-3.272-2.927-4.996c-3.273,0.521-6.717,1.034-9.989,1.724c-1.035,0.175-1.896-0.518-2.069-1.376
	c0-0.172,0-0.172,0-0.348v-8.61c-6.2,6.202-8.611,13.606-8.955,20.843c-0.172,1.893-0.172,3.787,0,5.51
	c5.167-0.344,9.989-1.723,13.778-3.789C18.73,41.338,22.346,37.895,24.069,34.966L24.069,34.966z M43.533,28.075
	c-5.168,0.174-10.508,0.519-16.019,1.033c-0.859,0.173-1.895,0.345-2.756,0.345c3.79,7.75,11.884,13.949,22.39,17.225
	c11.022,3.443,24.804,3.963,39.271,0.173c0-1.378,0-2.757,0-3.962c-0.344-7.063-2.756-14.126-8.267-20.15v7.231
	c0,1.034-0.86,1.724-1.723,1.724c-0.175,0-0.345,0-0.521,0c-5.51-1.033-10.848-1.894-16.359-2.584
	C54.209,28.594,48.872,28.249,43.533,28.075z" class="color c1"/>
  <path fill="#CC421B" d="M59.549,2.758C54.381,0.863,49.043,0,43.533,0c-5.34,0-10.679,0.863-16.019,2.758
	c-4.996,1.722-9.991,4.306-14.985,7.926v17.221c4.995-0.859,9.817-1.549,14.641-2.065c5.51-0.688,10.851-1.033,16.363-1.206
	c5.51,0.173,11.021,0.518,16.533,1.206c4.823,0.518,9.646,1.206,14.642,2.065V10.683C69.711,7.063,64.717,4.479,59.549,2.758z" class="color c2"/>
  <polygon fill="#FFFFFF" points="51.281,14.641 45.256,14.641 45.256,20.67 41.811,20.67 41.811,14.641 35.954,14.641 35.954,11.2 
	41.811,11.2 41.811,5.342 45.256,5.342 45.256,11.199 51.281,11.199 " class="color c3"/>
</svg>