<svg version="1.1" id="图层_1" x="0px" y="0px" width="200px" height="77.018px" viewBox="0 0 200 77.018" enable-background="new 0 0 200 77.018" xml:space="preserve" xmlns="http://www.w3.org/2000/svg" xmlns:xlink="http://www.w3.org/1999/xlink" xmlns:xml="http://www.w3.org/XML/1998/namespace">
  <path fill="#A30046" d="M175.668,2.779c-2.2-0.879-4.499-1.568-6.879-2.037C166.333,0.259,163.796,0,161.195,0h-54.479
	l-0.002,31.047h32.967v14.914h-32.967l-0.001,31.056h54.479c2.601,0,5.139-0.259,7.596-0.743c2.38-0.468,4.679-1.158,6.879-2.038
	C189.929,68.542,200,54.696,200,38.509C200,22.322,189.929,8.475,175.668,2.779z" class="color c1"/>
  <path fill="#00A8CF" d="M93.285,31.047V0H38.806c-2.6,0-5.139,0.259-7.595,0.743c-2.38,0.469-4.679,1.158-6.879,2.037
	C10.071,8.475,0,22.322,0,38.509c0,16.188,10.071,30.035,24.332,35.729c2.2,0.879,4.499,1.568,6.879,2.037
	c2.456,0.483,4.993,0.742,7.594,0.742h54.479V45.961H60.318V31.047H93.285z" class="color c2"/>
</svg>