<svg version="1.1" id="图层_1" x="0px" y="0px" width="123.79px" height="146px" viewBox="0 0 123.79 146" enable-background="new 0 0 123.79 146" xml:space="preserve" xmlns="http://www.w3.org/2000/svg" xmlns:xlink="http://www.w3.org/1999/xlink" xmlns:xml="http://www.w3.org/XML/1998/namespace">
  <path fill="#FFFFFF" d="M40.648,27.338c-11.401,0-20.323-9.756-20.323-22.227c0,12.471-8.921,22.227-20.325,22.227
	c11.407,0,20.325,9.753,20.325,22.227C20.326,37.091,29.25,27.338,40.648,27.338z" class="color c1"/>
  <path fill="#FFFFFF" d="M54.487,26.39c0-7.406,5.769-13.194,13.143-13.194c-7.374,0-13.143-5.793-13.143-13.195
	c0,7.402-5.766,13.195-13.14,13.195C48.723,13.195,54.487,18.984,54.487,26.39z" class="color c1"/>
  <path fill="#FFFFFF" d="M123.756,54.848c-0.291-8.177-3.289-13.961-9.442-18.204c-5.11-3.458-12.374-5.361-20.452-5.361h-0.17
	c-6.574,0-13.42,1.326-18.314,3.548l-1.213,0.545l-1.221-0.548c-3.806-1.732-9.046-2.962-14.375-3.375l-0.064-0.005l-9.228,0.122
	l-0.134,0.009c-5.987,0.667-11.222,2.419-15.146,5.075c-6.145,4.238-9.142,10.019-9.435,18.219c-0.013,0.689-0.025,1.33-0.025,1.932
	c0.098,11.884,2.797,16.747,5.921,22.376l0.504,0.912c3.682,6.395,7.267,13.764,7.177,27.239
	c-0.022,18.073,3.267,27.417,6.032,32.075c3.209,5.35,6.491,6.537,8.681,6.593h0.033c0.235,0,0.473-0.017,0.707-0.052l0.785-0.119
	l0.302-0.732c0.287-0.695,0.678-2.233,0.823-4.244c0.206-2.094,0.256-4.593,0.313-7.485c0.135-6.851,0.306-15.372,2.706-23.459
	c0.953-3.142,2.142-7.054,4.451-10.554c1.211-1.901,4.709-6.358,10.985-6.674l0.199-0.009l0.198,0.009
	c6.276,0.314,9.776,4.771,11.003,6.691c2.295,3.48,3.48,7.388,4.438,10.546c2.348,7.873,2.535,16.181,2.688,22.854
	c0.017,0.697,0.031,1.377,0.048,2.033c0.098,4.371,0.287,6.949,0.627,8.584c0.147,0.836,0.363,1.426,0.478,1.702l0.306,0.739
	l0.79,0.113c0.237,0.035,0.461,0.053,0.722,0.053c0.004,0,0.006,0,0.01,0c2.187-0.055,5.467-1.242,8.682-6.598
	c2.762-4.643,6.053-13.979,6.034-32.08c-0.089-13.489,3.499-20.85,7.194-27.256l0.483-0.875c3.256-5.861,5.826-10.491,5.935-22.397
	C123.79,56.184,123.777,55.534,123.756,54.848z M46.822,65.667c0-9.015-6.447-16.062-14.685-16.062
	c8.237,0,14.685-7.05,14.685-16.06c0,9.01,6.447,16.06,14.688,16.06C53.266,49.605,46.822,56.653,46.822,65.667z" class="color c1"/>
</svg>