<svg version="1.1" id="图层_1" x="0px" y="0px" width="93.426px" height="197.732px" viewBox="0 0 93.426 197.732" enable-background="new 0 0 93.426 197.732" xml:space="preserve" xmlns="http://www.w3.org/2000/svg" xmlns:xlink="http://www.w3.org/1999/xlink" xmlns:xml="http://www.w3.org/XML/1998/namespace">
  <path fill="#FFFFFF" d="M13.643,69.597C5.182,51.119,7.08,40.238,7.08,40.238L25.904,6.911c0,0-1.9,10.879,6.562,29.356
	c1.902,4.15,5.939,11.818,11.074,21.228C38.02,67.17,31.326,79.08,24.773,90.807C19.442,81.071,15.395,73.422,13.643,69.597z
	 M64.893,95.707c-5.397,9.539-11.98,21.304-18.715,33.399c18.794,33.175,38.683,67.465,39.652,68.626l7.596-52.845
	C92.547,143.838,79.07,120.688,64.893,95.707z M6.389,195.313c0,0,51.288-93.255,65.45-117.255
	c14.16-24.004,10.534-37.473,10.534-37.473L64.242,7.947c0,0,3.625,13.47-10.535,37.475S0,141.09,0,141.09L6.389,195.313z
	 M43.864,24.18c7.245,0,11.819,1.427,14.888,3.18c3.199-10.309,3.209-18.378,2.957-22.06C58.836,2.742,53.913,0,43.864,0
	c-7.965,0-12.702,2.292-15.298,4.237c-0.143,3.31-0.09,11.884,3.15,22.325C34.494,25.263,38.408,24.18,43.864,24.18z" class="color c1"/>
</svg>