<svg version="1.1" id="图层_1" x="0px" y="0px" width="197.164px" height="83.692px" viewBox="0 0 197.164 83.692" enable-background="new 0 0 197.164 83.692" xml:space="preserve" xmlns="http://www.w3.org/2000/svg" xmlns:xlink="http://www.w3.org/1999/xlink" xmlns:xml="http://www.w3.org/XML/1998/namespace">
  <path fill="#111111" d="M30.651,16.814c4.184,1.771,8.263,3.283,12.327,4.944c7.531,3.076,16.432,7.659,27.579,5.948
	c7.787-1.194,16.021-1.629,24.326-1.072c18.175,1.221,36.657,3.728,51.479,7.857c5.424-4.667,11.871-8.556,18.316-12.695
	c4.799-3.079,8.926-6.368,13.904-9.383c1.609-0.975,3.287-2.109,4.977-2.758c1.467-0.565,3.066-0.897,4.625-1.458
	c1.545-0.554,3.508-1.725,4.996-1.371c2.643,0.636,2.443,3.576,2.975,6.746c0.275,1.652,0.875,3.019,0.984,4.071
	c0.143,1.376-0.383,2.863-0.775,4.471c-0.346,1.407-0.467,3.337-1.908,3.374c-1.092,0.028-1.648-0.999-1.699-2.021
	c-0.045-0.983,0.477-1.869,0.518-3.074c0.041-1.292-0.096-2.529-0.145-3.619c-0.045-1.053,0.221-2.34-0.414-3.063
	c-1.072,0.17-1.572,1.365-2.109,2.166c-0.586,0.875-1.213,1.78-1.727,2.719c-1.117,2.031-1.869,4.675-3.262,6.266
	c-0.949,1.084-2.801,2.096-4.23,3.031c-8.76,5.742-17.313,11.535-25.871,17.441c-1.436,0.987-2.906,2.028-4.518,2.659
	c-0.844,3.147-4.264,3.941-6.328,6.029c-1.639,1.661-2.252,4.686-2.971,7.196c-0.809,2.838-1.523,5.429-2.402,7.744
	c-1.762,4.649-3.609,10.287-7.824,12.555c-6.563,3.534-17.16,2.045-24.328,0.513c-7.79-1.672-14.804-3.952-21.456-6.591
	c-3.533-1.397-6.268-2.986-8.713-5.361c-4.582-4.46-7.957-11.077-11.102-17.226c-0.768-1.501-1.6-3.102-2.385-4.704
	c-1.846-3.777-3.021-7.411-8.373-7.689c-0.492,5.522-1.439,9.377-3.066,13.602c-1.537,3.98-3.167,8.057-7.589,9.113
	c-3.074,0.735-6.875,0.151-9.573-0.43c-2.8-0.597-5.398-1.654-7.653-2.684c-5.089-2.328-9.059-4.907-12.012-8.85
	c-3.103-4.147-5.28-8.715-7.245-13.743c-1.49-3.818-2.61-7.863-4.33-11.37c-0.587-1.188-1.655-2.365-1.908-3.503
	c-0.27-1.227-0.545-2.735-0.896-4.449c-0.293-1.419-1.03-3.388-0.801-4.261c0.36-1.393,4.631-2.243,6.095-2.687
	C19.806,7.078,34.449,4.263,48.925,1.15c2.528-0.542,4.975-0.77,7.883-0.94c3.514-0.212,8.6-0.256,12.354-0.166
	c3.889,0.087,6.83,1.301,9.049,2.941c3.445,2.542,6.977,4.81,11.059,7.007c1.303,0.698,3.193,1.268,3.561,2.46
	c0.674,2.177-1.15,5.14-2.807,5.238c-1.406,0.081-2.854-1.398-3.566-2.737c-0.307-0.578-0.299-1.485-0.586-2.038
	c-0.479-0.916-2.049-1.785-3.098-2.466c-2.273-1.47-4.254-2.686-6.652-4.276c-1.07-0.712-2.305-1.887-3.463-1.998
	c-1.621-0.156-3.488,0.706-4.814,1.271c-2.863,1.22-5.295,2.522-7.744,4.379c-1.215,0.916-2.609,1.805-3.875,2.187
	c-2.016,0.614-4.275,0.797-6.394,1.204C43.414,14.442,37.272,15.551,30.651,16.814z M19.798,45.945
	c1.882,3.151,4.209,6.315,7.269,8.544c4.021,2.927,11.726,5.742,17.691,3.106c0.926-1.753,1.187-3.184,1.695-5.318
	c1.389-5.85,2.061-15.243-1.198-20.144c-0.964-1.442-2.883-2.809-4.609-4.025c-3.482-2.464-7.445-4.401-11.504-5.882
	c-2.172-0.796-4.435-1.205-6.714-1.954c-0.122-0.039-0.256,0.072-0.375,0.098c-3.443,0.716-7.194,1.461-10.836,2.279
	C13.051,31.001,15.715,39.104,19.798,45.945z M68.746,38.602c0.438,1.152,1.77,1.607,2.73,2.468
	c4.748,4.284,7.723,11.271,8.803,19.021c0.16,1.15,0.049,2.438,0.422,3.618c1.348,4.308,6.66,6.258,10.605,8.034
	c3.463,1.558,6.635,2.796,11.665,4.206c8.148,2.287,22.27,4.317,28.043-1.121c1.811-3.405,3.322-7.98,3.818-13.147
	c0.537-5.58,0.043-11.557-1.604-15.678c-3.021-7.573-12.973-9.452-21.889-11.135c-12.677-2.39-30.075-4.372-42.181-0.361
	C68.678,35.743,68.221,37.178,68.746,38.602z" class="color c1"/>
</svg>