<svg version="1.1" id="图层_1" x="0px" y="0px" width="98.064px" height="98.064px" viewBox="0 0 98.064 98.064" enable-background="new 0 0 98.064 98.064" xml:space="preserve" xmlns:xml="http://www.w3.org/XML/1998/namespace" xmlns="http://www.w3.org/2000/svg" xmlns:xlink="http://www.w3.org/1999/xlink">
  <path fill="#FF6098" d="M91.491,9.525L89.595,7.63c-1.616-1.616-3.769-2.506-6.062-2.506c-2.296,0-4.451,0.892-6.07,2.511
	l-0.249,0.249l-1.402,1.403l-9.154,9.154l-0.018,0.018l-0.018,0.019c-0.086,0.096-0.273,0.299-0.57,0.596
	c-0.176,0.175-0.396,0.387-0.639,0.614c-2.321,2.161-7.168,5.922-13.521,6.8c-0.786,0.109-1.449,0.169-2.088,0.188
	c-0.148,0.004-0.298,0.006-0.447,0.006c-0.64,0-1.32-0.039-2.08-0.119c-4.911-0.516-9.619-2.974-13.997-7.308l-0.268-0.269
	L20.483,6.462c-1.618-1.62-3.773-2.512-6.069-2.512c-2.292,0-4.446,0.891-6.063,2.508L6.457,8.351
	c-3.344,3.344-3.341,8.786,0.005,12.132l26.28,26.281l0.06,0.059l0.669,0.657l0.699-0.626c2.277-2.041,7.003-5.593,13.074-6.455
	c0.766-0.109,1.471-0.171,2.158-0.19c0.16-0.004,0.317-0.007,0.474-0.007c0.611,0,1.248,0.033,1.945,0.102
	c4.447,0.44,8.761,2.503,12.817,6.131c0.06,0.054,0.124,0.115,0.188,0.176l0.179,0.168l0.706,0.651l0.679-0.679l23.585-23.586
	l0.056-0.056l0.005-0.007l0.001,0l1.448-1.449c1.619-1.618,2.511-3.772,2.512-6.066C93.999,13.296,93.108,11.142,91.491,9.525z
	 M83.645,6.129c-0.037,0-0.074-0.005-0.112-0.005c0.001,0,0.001,0,0.001,0C83.571,6.124,83.608,6.129,83.645,6.129z M88.888,8.337
	c-0.185-0.185-0.376-0.357-0.574-0.519C88.512,7.98,88.704,8.153,88.888,8.337z M87.94,7.543c-0.08-0.057-0.157-0.121-0.238-0.175
	C87.783,7.423,87.86,7.486,87.94,7.543z M86.488,6.725c-0.034-0.015-0.068-0.034-0.104-0.048C86.42,6.691,86.454,6.71,86.488,6.725z
	 M85.155,6.304c-0.059-0.013-0.115-0.031-0.175-0.042C85.04,6.273,85.096,6.292,85.155,6.304z M84.331,6.169
	c-0.023-0.002-0.047-0.008-0.07-0.01C84.284,6.16,84.307,6.166,84.331,6.169z M82.88,6.155c-0.024,0.002-0.049,0.001-0.073,0.003
	C82.831,6.156,82.855,6.157,82.88,6.155z M82.195,6.246c-0.037,0.007-0.074,0.009-0.111,0.016
	C82.121,6.255,82.158,6.253,82.195,6.246z M81.456,6.415c-0.027,0.008-0.056,0.013-0.083,0.021
	C81.4,6.427,81.428,6.423,81.456,6.415z M80.782,6.642c-0.034,0.013-0.07,0.022-0.104,0.036C80.712,6.665,80.748,6.656,80.782,6.642
	z M80.22,6.89c-0.071,0.035-0.146,0.063-0.216,0.1C80.075,6.953,80.149,6.925,80.22,6.89z M79.754,7.138
	c-0.349,0.201-0.688,0.423-1.008,0.684C79.065,7.562,79.405,7.339,79.754,7.138z M48.771,27.666
	c-0.129-0.004-0.258-0.005-0.387-0.012C48.513,27.661,48.642,27.661,48.771,27.666z M19.776,7.169
	c-0.341-0.341-0.708-0.638-1.093-0.901C19.068,6.531,19.435,6.828,19.776,7.169z M18.588,6.199c-0.191-0.126-0.387-0.24-0.586-0.347
	C18.201,5.959,18.397,6.073,18.588,6.199z M17.943,5.818c-0.436-0.229-0.891-0.412-1.355-0.551
	C17.052,5.406,17.507,5.589,17.943,5.818z M16.576,5.263c-0.228-0.067-0.458-0.123-0.69-0.168
	C16.118,5.14,16.348,5.196,16.576,5.263z M15.865,5.09c-0.224-0.043-0.45-0.075-0.676-0.098C15.415,5.015,15.641,5.046,15.865,5.09z
	 M15.144,4.986C14.902,4.962,14.66,4.95,14.417,4.95C14.66,4.95,14.902,4.962,15.144,4.986z M14.417,4.95
	c-1.626,0-3.248,0.525-4.601,1.562c1.353-1.036,2.974-1.562,4.599-1.562C14.415,4.95,14.416,4.95,14.417,4.95z M50.408,39.219
	c0.119,0.003,0.238,0.004,0.357,0.01C50.646,39.223,50.527,39.222,50.408,39.219z M62.416,48.393l-0.025-0.025l-0.027-0.023
	c-3.964-3.443-8.141-5.189-12.414-5.189c-0.153,0-0.306,0.002-0.459,0.007c-5.987,0.174-10.801,3.651-13.137,5.708l-0.8,0.704
	l0.753,0.754l12.548,12.548l0.707,0.707l0.707-0.707l12.606-12.608l0.706-0.706l-0.705-0.708L62.416,48.393z M49.949,44.156
	c0.203,0,0.405,0.023,0.608,0.031c-0.346-0.014-0.691-0.035-1.038-0.025C49.663,44.158,49.805,44.156,49.949,44.156z M61.708,49.1
	c-0.48-0.417-0.964-0.807-1.45-1.172C60.744,48.293,61.227,48.682,61.708,49.1z M59.744,47.57c-0.316-0.225-0.633-0.454-0.951-0.657
	C59.111,47.116,59.427,47.345,59.744,47.57z M58.176,46.552c-0.287-0.169-0.573-0.344-0.862-0.496
	C57.602,46.208,57.888,46.384,58.176,46.552z M56.655,45.744c-0.278-0.132-0.557-0.27-0.836-0.386
	C56.099,45.474,56.377,45.613,56.655,45.744z M55.141,45.11c-0.276-0.101-0.552-0.206-0.829-0.29
	C54.59,44.905,54.865,45.01,55.141,45.11z M53.622,44.64c-0.275-0.07-0.551-0.144-0.827-0.199
	C53.071,44.496,53.346,44.57,53.622,44.64z M52.094,44.333c-0.276-0.041-0.553-0.084-0.829-0.109
	C51.542,44.249,51.818,44.292,52.094,44.333z" class="color c1"/>
  <path fill="#004379" d="M74.669,4.84l-0.368,0.368l-1.164,1.166L62.608,16.899c-2.063,1.898-6.889,5.652-12.92,5.827
	c-4.771,0.14-9.42-2.04-13.82-6.47L23.277,3.667C18.393-1.22,10.44-1.222,5.557,3.662L3.662,5.557
	c-4.885,4.884-4.884,12.835,0.005,17.722L29.948,49.56L4.723,74.786c-4.889,4.887-4.891,12.837-0.006,17.722l1.896,1.895
	c4.885,4.886,12.834,4.885,17.721-0.004l25.228-25.225l25.225,25.225c4.888,4.888,12.838,4.89,17.722,0.004l1.896-1.895
	c4.884-4.884,4.883-12.834-0.004-17.722L69.173,49.561l23.651-23.652l1.457-1.456c4.887-4.888,4.89-12.837,0.004-17.723L92.39,4.835
	C87.506-0.049,79.556-0.048,74.669,4.84z M46.059,65.67L20.833,90.896c-2.956,2.956-7.765,2.958-10.717,0.003L8.22,89.005
	c-2.954-2.954-2.951-7.762,0.003-10.717l25.226-25.227L46.059,65.67z M90.896,78.289c2.957,2.956,2.959,7.763,0.004,10.717
	L89.006,90.9c-2.953,2.955-7.762,2.952-10.718-0.003L53.062,65.67L65.67,53.063L90.896,78.289z M62.168,49.561L49.561,62.168
	L37.013,49.621c2.245-1.977,6.839-5.294,12.506-5.459c4.186-0.122,8.275,1.539,12.188,4.938L62.168,49.561z M90.784,10.233
	c2.953,2.953,2.951,7.762-0.006,10.718L89.329,22.4c-0.01,0.011-0.021,0.018-0.034,0.027c-0.01,0.01-0.018,0.022-0.026,0.034
	L65.683,46.046c-0.126-0.117-0.252-0.24-0.378-0.354c-4.218-3.771-8.7-5.917-13.387-6.381c-0.842-0.083-1.689-0.125-2.545-0.1
	c-0.776,0.021-1.534,0.095-2.271,0.199c-6.287,0.894-11.163,4.517-13.601,6.7l-0.054-0.053L7.169,19.777
	C4.213,16.821,4.21,12.013,7.164,9.059l1.896-1.895c2.954-2.954,7.763-2.952,10.718,0.004l12.527,12.526l-0.001,0.001
	c0.014,0.015,0.027,0.026,0.042,0.041c4.627,4.66,9.604,7.273,14.826,7.822c0.883,0.093,1.768,0.144,2.662,0.117
	c0.751-0.022,1.479-0.098,2.194-0.197c6.688-0.925,11.783-4.935,14.067-7.062c0.251-0.235,0.48-0.455,0.662-0.638
	c0.315-0.313,0.515-0.53,0.605-0.632l9.154-9.154L77.92,8.59l0.249-0.249c2.955-2.956,7.765-2.958,10.719-0.004L90.784,10.233z" class="color c2"/>
</svg>