<svg version="1.1" id="图层_1" x="0px" y="0px" width="70.126px" height="60.118px" viewBox="0 0 70.126 60.118" enable-background="new 0 0 70.126 60.118" xml:space="preserve" xmlns="http://www.w3.org/2000/svg" xmlns:xlink="http://www.w3.org/1999/xlink" xmlns:xml="http://www.w3.org/XML/1998/namespace">
  <path fill="#EA5514" d="M53.726,28.954l12.033,0.334c-0.254,0.287-0.501,0.58-0.777,0.854L35.076,60.118L5.173,30.142
	c-0.249-0.249-0.469-0.516-0.699-0.774h9.95c0.559,0,1.071-0.311,1.329-0.806l2.283-4.37l5.347,13.812
	c0.238,0.616,0.858,1.004,1.508,0.955c0.658-0.049,1.207-0.521,1.354-1.164l4.035-17.752l6.673,27.585
	c0.16,0.663,0.747,1.134,1.429,1.147c0.01,0,0.02,0,0.029,0c0.67,0,1.26-0.444,1.443-1.09l5.835-20.563l2.947,5.688
	c0.248,0.478,0.732,0.786,1.271,0.809c0.537,0.032,1.046-0.245,1.332-0.701L53.726,28.954z M16.91,19.868
	c0.271-0.521,0.81-0.838,1.413-0.804c0.588,0.032,1.103,0.407,1.314,0.956l4.77,12.32l4.363-19.198
	c0.154-0.679,0.756-1.163,1.452-1.167c0.004,0,0.008,0,0.011,0c0.692,0,1.295,0.473,1.458,1.146l6.834,28.251l5.311-18.713
	c0.168-0.592,0.681-1.021,1.293-1.083c0.592-0.066,1.198,0.256,1.482,0.803l3.481,6.72l1.548-2.466
	c0.282-0.449,0.767-0.709,1.313-0.702l14.911,0.414c3.795-6.706,2.804-15.414-2.883-21.161c-6.84-6.912-18.045-6.912-24.957,0
	l-4.948,4.947l-4.947-4.947c-6.84-6.912-18.045-6.84-24.956,0c-5.763,5.701-6.703,14.43-2.857,21.183h11.199L16.91,19.868z" class="color c1"/>
</svg>