<svg version="1.1" id="图层_1" x="0px" y="0px" width="141.782px" height="133.09px" viewBox="0 0 141.782 133.09" enable-background="new 0 0 141.782 133.09" xml:space="preserve" xmlns:xml="http://www.w3.org/XML/1998/namespace" xmlns="http://www.w3.org/2000/svg" xmlns:xlink="http://www.w3.org/1999/xlink">
  <path fill="#5ED3D7" d="M56.14,36.263c-6.832-1.957-13.467-1.51-19.534,1.314c-4.411,2.055-7.23,5.444-8.378,10.074l-0.308,1.241
	h31.167c2.676,0,3.762-1.054,3.873-3.758C63.138,40.852,60.588,37.536,56.14,36.263z M27.437,52.934
	c-0.275,1.612-0.539,3.162-0.775,4.714c-0.147,0.96-0.199,1.946-0.236,2.794c-0.096,2.194,0.68,4.281,2.186,5.876
	c1.493,1.581,3.511,2.469,5.683,2.499c1.907,0.026,3.813,0.037,5.721,0.037c2.031,0,4.062-0.013,6.093-0.031
	c4.182-0.041,7.587-3.114,7.92-7.149c0.128-1.568,0.679-2.985,1.841-4.741c0.384-0.582,0.78-1.157,1.208-1.78l1.554-2.271
	L27.936,49.98L27.437,52.934z M22.497,120.573c-0.124-0.699-0.24-1.358-0.564-1.96l-0.457-0.854
	c-0.963-1.807-1.959-3.675-3.231-5.341c-3.42-4.477-7.229-7.686-11.646-9.807c-0.827-0.397-1.696-0.639-2.537-0.872
	c-0.363-0.101-0.727-0.201-1.083-0.314l-0.64-0.202l-1.107,1.321l0.12,0.49c0.064,0.265,0.115,0.536,0.166,0.808
	c0.126,0.676,0.257,1.373,0.575,2.043c3.44,7.26,8.889,12.699,16.195,16.167c0.653,0.31,1.353,0.433,2.093,0.562
	c0.348,0.061,0.724,0.126,1.13,0.218l1.556,0.351l-0.362-1.553C22.615,121.245,22.553,120.895,22.497,120.573z M139.374,101.15
	l-0.551,0.151c-0.273,0.074-0.556,0.134-0.837,0.192c-0.723,0.152-1.471,0.311-2.163,0.699l-0.398,0.225
	c-1.975,1.107-4.016,2.256-5.83,3.698c-4.475,3.563-7.586,7.393-9.51,11.71c-0.334,0.754-0.519,1.535-0.695,2.294
	c-0.075,0.321-0.15,0.644-0.238,0.96l-0.172,0.621l1.313,1.099l0.516-0.149c0.32-0.094,0.646-0.172,0.975-0.252
	c0.786-0.188,1.602-0.385,2.368-0.774c6.769-3.431,11.92-8.583,15.312-15.315c0.389-0.77,0.582-1.584,0.771-2.373
	c0.077-0.326,0.155-0.653,0.248-0.974l0.169-0.586L139.374,101.15z M113.553,48.892l0.145-1.069
	c0.024-0.144,0.053-0.307,0.025-0.506c-0.023-0.194-0.078-0.387-0.137-0.576c-1.342-4.401-4.422-7.648-9.157-9.653
	c-4.39-1.857-9.161-2.383-15.136-1.632c-2.822,0.354-5.084,1.198-6.914,2.58c-2.795,2.111-4.043,5.966-2.901,8.967
	c0.503,1.325,1.358,1.916,2.774,1.916h0.029c4.377-0.026,8.754-0.032,13.131-0.032L113.553,48.892z M114.782,53.852
	c-0.138-0.96-0.277-1.935-0.408-2.931l-0.127-0.955l-30.904,2.927l1.541,2.185c0.262,0.368,0.488,0.69,0.714,1.014
	c1.336,1.934,2.267,3.664,2.467,5.826c0.36,3.89,3.724,6.857,7.821,6.902c2.02,0.021,4.039,0.035,6.059,0.035
	c1.919,0,3.838-0.013,5.756-0.037c2.281-0.028,4.365-0.959,5.868-2.623c1.489-1.646,2.2-3.789,2.002-6.033
	C115.383,58.067,115.09,56.02,114.782,53.852z" class="color c1"/>
  <path fill="#000111" d="M95.515,85.73c-4.233-3.705-8.763-6.957-10.449-12.754c-1.871-6.432-7.595-10.6-14.047-10.598
	c-6.451,0.002-12.149,4.198-14.048,10.598c-0.795,2.679-2.119,4.957-4.042,6.89c-2.023,2.032-4.175,3.938-6.322,5.948
	c-2.521-2.524-4.8-4.862-7.157-7.119c-0.441-0.422-1.198-0.739-1.801-0.727c-4.003,0.086-7.434-2.52-8.463-6.443
	c-0.177-0.676-0.599-1.375-1.101-1.864c-5.172-5.035-6.836-11.016-5.128-18.022c0.363-1.489,0.163-3.11,0.47-4.62
	c0.974-4.787,4.101-8.002,8.083-10.472c5.936-3.683,12.507-4.955,19.403-4.878c4.782,0.053,9.391,0.953,13.825,2.77
	c0.871,0.357,1.313,0.822,1.489,1.803c1.459,8.144,2.986,16.276,4.495,24.411c0.047,0.252,0.127,0.497,0.464,0.736
	c0.508-2.71,1.023-5.418,1.521-8.13c1.061-5.766,2.094-11.537,3.201-17.293c0.096-0.498,0.567-1.142,1.021-1.32
	c11.271-4.416,22.374-4.257,33.106,1.621c4.137,2.265,7.689,5.479,8.393,10.344c0.632,4.381,1.971,8.775,1,13.321
	c-0.818,3.833-2.643,7.04-5.475,9.731c-0.508,0.479-0.929,1.187-1.104,1.86c-1.008,3.908-4.457,6.531-8.462,6.445
	c-0.604-0.012-1.362,0.305-1.802,0.727C100.232,80.952,97.954,83.29,95.515,85.73z M28.768,51.063
	c-0.396,2.363-0.784,4.546-1.119,6.736c-0.136,0.887-0.186,1.79-0.225,2.687c-0.173,3.94,2.923,7.276,6.883,7.331
	c3.929,0.056,7.86,0.043,11.79,0.004c3.613-0.034,6.639-2.65,6.933-6.229c0.165-1.999,0.953-3.624,2.003-5.211
	c0.561-0.847,1.143-1.679,1.814-2.663C47.394,52.825,38.175,51.953,28.768,51.063z M113.381,51.054
	c-9.51,0.9-18.756,1.775-28.23,2.672c0.518,0.735,0.898,1.263,1.268,1.797c1.322,1.913,2.412,3.837,2.642,6.302
	c0.321,3.473,3.347,5.957,6.837,5.995c3.932,0.044,7.859,0.05,11.79-0.002c4.097-0.051,7.248-3.469,6.888-7.567
	C114.307,57.246,113.806,54.261,113.381,51.054z M29.198,47.892c0.729,0,1.248,0,1.766,0c9.374,0,18.749,0,28.123,0
	c2.123,0,2.785-0.644,2.874-2.799c0.153-3.699-1.978-6.69-6.097-7.869c-6.388-1.829-12.75-1.574-18.836,1.26
	C33.076,40.324,30.333,43.315,29.198,47.892z M112.676,47.892c0.035-0.266,0.066-0.36,0.055-0.449
	c-0.018-0.139-0.059-0.276-0.1-0.411c-1.355-4.444-4.445-7.268-8.592-9.023c-4.703-1.99-9.631-2.188-14.621-1.561
	c-2.318,0.291-4.531,0.948-6.437,2.386c-2.458,1.857-3.542,5.257-2.569,7.814c0.346,0.911,0.824,1.277,1.863,1.271
	c8.318-0.049,16.641-0.027,24.959-0.027C109.03,47.892,110.825,47.892,112.676,47.892z M70.922,133.09
	c-14.783-0.088-26.593-12.035-26.498-26.807c0.095-14.74,12.08-26.51,26.893-26.41C85.887,79.97,97.69,91.97,97.62,106.611
	C97.547,121.305,85.577,133.18,70.922,133.09z M49.122,106.445c-0.027,12.035,9.737,21.875,21.793,21.966
	c12.044,0.09,21.962-9.775,22.001-21.888c0.041-12.055-9.715-21.864-21.792-21.916C58.983,84.555,49.149,94.314,49.122,106.445z
	 M135.176,93.311c-1.967-2.42-4.26-2.582-6.846-1.446c-1.552,0.682-3.099,1.43-4.515,2.354c-4.655,3.035-8.558,6.888-11.534,11.578
	c-1.15,1.813-2.09,3.834-2.703,5.886c-0.338,1.131-0.262,2.901,0.424,3.729c1.91,2.309,4.232,4.275,6.383,6.369
	c-0.18-2.668,0.15-4.154,1.713-6.99c2.863-5.189,6.863-9.381,11.648-12.813c2.957-2.123,6.063-4.013,10.336-3.734
	C138.265,96.439,136.555,95.008,135.176,93.311z M32.102,115.426c0.451-0.471,0.716-1.453,0.576-2.092
	c-0.4-1.822-0.779-3.736-1.654-5.352c-3.509-6.476-8.586-11.488-15.018-15.064c-1.419-0.789-3.051-1.285-4.647-1.631
	c-0.838-0.182-2.099-0.061-2.671,0.467c-2.203,2.027-4.204,4.271-6.341,6.5c2.519-0.279,4.756,0.568,6.852,1.771
	c6.248,3.592,11.194,8.512,14.746,14.789c1.215,2.147,2.133,4.414,1.65,6.981C27.804,119.659,30.018,117.605,32.102,115.426z
	 M34.423,113.404c1.429-1.495,2.837-3.012,4.292-4.481c2.792-2.823,3.042-3.973,1.487-7.668c-0.384-0.912-0.822-1.813-1.337-2.655
	c-3.438-5.634-7.958-10.209-13.638-13.572c-1.445-0.855-3.056-1.549-4.682-1.938c-1.106-0.266-2.753-0.316-3.491,0.314
	c-2.311,1.979-4.306,4.328-6.462,6.574c2.61-0.498,4.911,0.496,7.083,1.75c6.109,3.522,10.95,8.356,14.485,14.465
	c1.241,2.146,2.158,4.414,1.885,6.996C34.171,113.262,34.297,113.333,34.423,113.404z M125.313,83.57
	c-0.486-0.459-1.439-0.811-2.059-0.672c-1.957,0.435-4.021,0.82-5.746,1.769c-6.23,3.42-11.106,8.324-14.619,14.5
	c-0.872,1.533-1.42,3.295-1.842,5.019c-0.203,0.828-0.086,2.104,0.436,2.672c2.023,2.211,4.266,4.219,6.127,6.014
	c0.563-1.813,0.896-3.998,1.872-5.846c3.603-6.822,8.903-12.056,15.702-15.724c1.932-1.043,3.982-1.758,6.561-1.274
	C129.45,87.7,127.439,85.575,125.313,83.57z M120.952,124.211c-2.168-0.229-3.361-1.344-3.099-3.412
	c0.187-1.471,0.584-3.002,1.267-4.307c3.467-6.637,8.561-11.732,15.192-15.197c1.379-0.721,3.026-1.09,4.588-1.254
	c1.863-0.197,3.046,0.979,2.863,2.832c-0.149,1.518-0.509,3.117-1.202,4.459c-3.484,6.742-8.645,11.891-15.375,15.4
	C123.875,123.418,122.368,123.729,120.952,124.211z M139.516,102.684c-0.143-0.139-0.286-0.276-0.43-0.416
	c-0.93,0.256-1.957,0.34-2.773,0.799c-2.091,1.179-4.227,2.349-6.094,3.834c-3.881,3.088-7.17,6.736-9.219,11.334
	c-0.437,0.976-0.599,2.072-0.885,3.113c0.137,0.113,0.272,0.229,0.409,0.344c1.062-0.313,2.201-0.467,3.173-0.959
	c6.568-3.33,11.555-8.291,14.869-14.873C139.055,104.889,139.208,103.747,139.516,102.684z M4,100.168
	c0.766,0.279,2.352,0.654,3.739,1.398c6.412,3.445,11.384,8.403,14.809,14.826c0.736,1.379,1.173,3.002,1.379,4.563
	c0.275,2.082-0.936,3.342-3.004,3.109c-1.558-0.174-3.189-0.599-4.568-1.324c-6.529-3.445-11.56-8.475-14.998-15.01
	c-0.707-1.345-1.148-2.916-1.325-4.429C-0.219,101.145,0.994,100.079,4,100.168z M21.729,121.854
	c-0.275-1.184-0.301-2.069-0.677-2.768c-1.115-2.07-2.185-4.205-3.603-6.063c-3.043-3.982-6.715-7.316-11.284-9.513
	c-1.093-0.524-2.323-0.764-3.49-1.135c-0.118,0.142-0.235,0.279-0.353,0.42c0.217,0.89,0.289,1.849,0.673,2.658
	c3.364,7.099,8.632,12.328,15.72,15.692C19.518,121.529,20.482,121.573,21.729,121.854z M70.866,67.836
	c-4.204,0.053-9.637,4.641-10.3,8.57c3.444-0.203,6.92-0.568,10.395-0.566c3.521,0,7.043,0.365,10.532,0.568
	C80.659,72.219,75.228,67.782,70.866,67.836z M42.014,82.852c-1.583-1.67-3.676-3.604-5.155-3.18
	c-2.353,2.344-4.48,4.463-6.103,6.08c2.561,2.555,5.259,5.246,7.705,7.686c2.066-1.86,4.391-3.953,7.46-6.717L42.014,82.852z
	 M102.436,80.616c-2.102,1.807-3.984,3.868-6.044,5.92c2.538,2.646,4.97,5.182,6.874,7.166c2.816-2.775,5.529-5.451,8.163-8.045
	c-1.677-1.673-3.779-3.767-6.075-6.056C104.745,79.277,103.215,79.945,102.436,80.616z M33.451,28.735
	c3.222-0.87,6.527-1.617,9.841-1.92c7.453-0.681,14.859-0.428,21.855,2.728c0.757,0.342,1.107,0.071,1.543-0.438
	c1.405-1.64,2.836-3.258,4.339-4.979c0.933,1.058,1.738,1.975,2.546,2.89c0.783,0.886,1.438,2.268,2.389,2.516
	c0.986,0.257,2.268-0.563,3.404-0.953c8.059-2.761,16.314-2.271,24.582-1.485c3.471,0.33,6.4,1.883,8.904,4.281
	c0.855,0.82,1.732,1.619,2.813,2.627c-6.92-14.069-23.465-27.654-45.604-27.266c-21.126,0.37-36.856,13.64-43.374,26.76
	C28.673,31.1,30.838,29.441,33.451,28.735z M64.024,5.277c2.418-0.141,4.731-0.38,7.043-0.381c2.303,0,4.605,0.24,6.986,0.378
	c0-0.851,0-1.68,0-2.607c-0.499-0.073-0.957-0.159-1.42-0.205c-1.301-0.128-2.471-0.245-3.44-1.474
	c-1.063-1.348-3.352-1.309-4.411,0.054c-0.892,1.149-1.971,1.271-3.175,1.401c-0.51,0.055-1.019,0.13-1.583,0.202
	C64.024,3.661,64.024,4.485,64.024,5.277z M112.922,25.551c0.438-0.436,1.037-1.028,1.684-1.671
	c-0.346-0.487-0.635-0.911-0.941-1.321c-0.735-0.989-1.547-1.79-1.289-3.34c0.287-1.713-1.319-3.28-3.074-3.132
	c-1.404,0.119-2.317-0.411-3.23-1.274c-0.404-0.383-0.884-0.689-1.451-1.123c-0.609,0.667-1.175,1.287-1.6,1.753
	C106.359,18.853,109.613,22.173,112.922,25.551z M37.422,13.765c-0.482,0.372-0.954,0.684-1.362,1.063
	c-0.918,0.853-1.836,1.38-3.236,1.26c-1.713-0.146-3.221,1.322-3.018,3.021c0.185,1.548-0.499,2.487-1.356,3.5
	c-0.328,0.388-0.592,0.831-0.852,1.203c0.631,0.686,1.199,1.303,1.768,1.921c1.589-1.825,3.027-3.64,4.64-5.284
	c1.649-1.681,3.469-3.194,5.189-4.758C38.608,15.052,38.042,14.438,37.422,13.765z M71.049,125.098
	c-10.411-0.041-18.666-8.369-18.62-18.787c0.045-10.242,8.491-18.521,18.829-18.459c10.2,0.063,18.454,8.465,18.409,18.738
	C89.62,116.85,81.282,125.139,71.049,125.098z M71.071,89.396c-9.499-0.006-17.115,7.609-17.104,17.103
	c0.011,9.467,7.665,17.108,17.137,17.112c9.339,0.003,17.018-7.678,17.072-17.077C88.232,97.116,80.534,89.402,71.071,89.396z
	 M71.018,98.163c4.639-0.002,8.332,3.687,8.331,8.317c-0.001,4.609-3.738,8.367-8.325,8.367c-4.589,0-8.327-3.752-8.331-8.361
	C62.688,101.854,66.376,98.165,71.018,98.163z M70.985,112.543c3.338,0.018,6.092-2.695,6.117-6.023
	c0.025-3.301-2.732-6.09-6.045-6.117c-3.304-0.024-6.095,2.732-6.115,6.046C64.922,109.773,67.651,112.527,70.985,112.543z
	 M60.488,109.905c-0.183-1.585-0.352-3.046-0.528-4.564c-0.697-0.043-1.341-0.082-2.305-0.141c0.229,1.87,0.438,3.569,0.665,5.426
	C59.246,110.318,59.891,110.104,60.488,109.905z M71.565,117.473c0.07,0.678,0.141,1.355,0.236,2.295
	c1.83-0.514,3.479-0.977,5.244-1.473c-0.457-0.881-0.758-1.463-1.041-2.006C74.438,116.708,73.045,117.079,71.565,117.473z
	 M82.11,105.945c-0.255,1.537-0.49,2.957-0.747,4.503c0.601,0.229,1.234,0.475,2.128,0.817c0.326-1.852,0.619-3.516,0.938-5.322
	C83.485,105.945,82.773,105.945,82.11,105.945z M65.508,116.016c-0.327,0.588-0.659,1.185-1.129,2.027
	c1.855,0.574,3.49,1.078,5.236,1.619c0.104-0.984,0.171-1.631,0.237-2.252C68.304,116.913,66.936,116.473,65.508,116.016z
	 M81.911,104.314c0.612-0.127,1.279-0.264,2.262-0.465c-0.754-1.746-1.442-3.346-2.18-5.055c-0.802,0.563-1.336,0.938-1.867,1.311
	C80.743,101.563,81.303,102.883,81.911,104.314z M75.235,96.204c1.275,0.866,2.473,1.68,3.633,2.469
	c0.5-0.448,1.032-0.928,1.742-1.563c-1.529-1.031-2.936-1.979-4.503-3.033C75.717,95.025,75.472,95.625,75.235,96.204z
	 M61.852,96.708c0.684,0.729,1.153,1.231,1.571,1.678c1.341-0.819,2.573-1.573,3.902-2.387c-0.203-0.565-0.422-1.179-0.777-2.17
	C64.907,94.836,63.443,95.732,61.852,96.708z M68.614,93.454c0.155,0.791,0.279,1.424,0.425,2.174c1.516,0,2.984,0,4.54,0
	c0.133-0.573,0.278-1.201,0.504-2.174C72.14,93.454,70.422,93.454,68.614,93.454z M58.034,103.198
	c0.977,0.254,1.638,0.426,2.202,0.571c0.706-1.436,1.343-2.731,2.015-4.1c-0.496-0.387-1.012-0.789-1.827-1.426
	C59.595,99.961,58.846,101.516,58.034,103.198z M80.564,112.029c-1.075,1.179-2.045,2.24-3.063,3.357
	c0.408,0.555,0.814,1.105,1.373,1.861c1.285-1.416,2.426-2.674,3.711-4.09C81.665,112.645,81.068,112.311,80.564,112.029z
	 M61.175,111.523c-0.568,0.295-1.18,0.611-2.033,1.054c1.18,1.442,2.275,2.778,3.467,4.235c0.589-0.705,1.032-1.237,1.482-1.776
	C63.083,113.82,62.163,112.713,61.175,111.523z M68.868,106.331c-0.013,1.194,0.847,2.117,2.03,2.176
	c1.246,0.062,2.235-0.834,2.278-2.062c0.043-1.233-0.879-2.225-2.098-2.256C69.851,104.159,68.881,105.1,68.868,106.331z" class="color c2"/>
</svg>