<svg version="1.1" id="图层_1" x="0px" y="0px" width="110.043px" height="109.447px" viewBox="0 0 110.043 109.447" enable-background="new 0 0 110.043 109.447" xml:space="preserve" xmlns="http://www.w3.org/2000/svg" xmlns:xlink="http://www.w3.org/1999/xlink" xmlns:xml="http://www.w3.org/XML/1998/namespace">
  <path fill="#FFFFFF" d="M109.971,35.841H72.217c0.496,0.354,0.824,0.934,0.824,1.591V52.14c2.805,0.806,4.857,3.212,4.857,6.087
	c0,3.537-3.076,6.399-6.871,6.399s-6.875-2.862-6.875-6.399c0-2.918,2.109-5.35,4.979-6.119V37.432c0-0.657,0.326-1.236,0.824-1.591
	h-0.023c3.793-3.801,6.146-9.041,6.146-14.825C76.078,9.418,66.611,0,55.041,0C43.439,0,33.967,9.418,33.967,21.016
	c0,5.784,2.354,11.024,6.152,14.825h-0.011c0.338,0.354,0.549,0.832,0.549,1.36v14.323c2.463,0.952,4.295,3.713,4.523,7.059
	c0.796,0.576,1.319,1.509,1.319,2.566c0,1.761-1.427,3.185-3.185,3.185c-1.756,0-3.182-1.424-3.182-3.185
	c0-0.697,0.231-1.338,0.613-1.862l0.029-0.04c0.162-0.213,0.351-0.402,0.559-0.57c-0.214-1.539-1.277-2.715-2.563-2.715
	c-1.256,0-2.304,1.118-2.551,2.609c0.256,0.191,0.483,0.418,0.673,0.676l0.033,0.04c0.376,0.528,0.599,1.168,0.599,1.862
	c0,1.783-1.445,3.229-3.228,3.229c-1.785,0-3.23-1.444-3.23-3.229c0-1.053,0.514-1.98,1.296-2.57
	c0.222-3.262,1.976-5.967,4.348-6.978v-14.4c0-0.528,0.211-1.006,0.55-1.36H0.072C0.026,36.278,0,36.722,0,37.173v25.485
	c0,6.723,5.221,12.173,11.66,12.173h22.227v22.957c0,6.438,5.221,11.659,11.662,11.659h16.762c6.439,0,11.66-5.222,11.66-11.659
	V74.831h24.414c6.439,0,11.658-5.45,11.658-12.173V37.173C110.043,36.722,110.02,36.278,109.971,35.841z M71.027,55.741
	c1.545,0,2.799,1.253,2.799,2.799s-1.254,2.799-2.799,2.799c-1.547,0-2.799-1.253-2.799-2.799S69.48,55.741,71.027,55.741z" class="color c1"/>
</svg>