<svg version="1.1" id="图层_1" x="0px" y="0px" width="142.708px" height="70.598px" viewBox="0 0 142.708 70.598" enable-background="new 0 0 142.708 70.598" xml:space="preserve" xmlns="http://www.w3.org/2000/svg" xmlns:xlink="http://www.w3.org/1999/xlink" xmlns:xml="http://www.w3.org/XML/1998/namespace">
  <path fill-rule="evenodd" clip-rule="evenodd" fill="#0D6985" d="M123.892,0c-25.394,24.99,8.746,27.414,7.489,33.336
	c-1.242,5.859-6.201,10.522-15.282,14.086c-10.192,3.998-28.596,4.646-47.594,1.191C46.437,44.505,22.142,36.168,0,24.583
	C12.941,39.92,29.299,55.26,45.661,70.598l11.45-10.742l-7.18-3.136c20.568,5.113,86.687,11.866,86.214-21.701
	c-0.113-7.998-3.509-18.54-8.961-23.01c4.651,3.247,7.927,8.608,9.793,19.167C154.088,12.764,127.806,12.69,123.892,0z" class="color c1"/>
</svg>