<svg version="1.1" id="图层_1" x="0px" y="0px" width="200px" height="198.689px" viewBox="0 0 200 198.689" enable-background="new 0 0 200 198.689" xml:space="preserve" xmlns="http://www.w3.org/2000/svg" xmlns:xlink="http://www.w3.org/1999/xlink" xmlns:xml="http://www.w3.org/XML/1998/namespace">
  <path fill="#FFFFFF" d="M185.391,48.602c-13.997-23.256-35.923-39.523-61.739-45.803C97.866-3.48,70.945,0.885,47.843,15.073
	C24.738,29.269,8.671,51.318,2.609,77.16c-6.084,25.931-1.452,52.892,13.042,75.914c14.479,23.006,36.744,38.836,62.712,44.601
	c0.947,0.256,4.052,1.016,7.876,1.016c3.783,0,8.274-0.744,12.079-3.445c3.036-2.155,6.75-6.424,7.199-14.52
	c0.567-10.25,0.291-17.307-0.065-21.557c0.191-0.039,0.315-0.066,0.315-0.066c9.414-1.346,18.851-6.4,27.253-15.146
	c1.354-1.354,1.702-3.029,1.354-4.718c11.113-13.803,17.847-32.313,17.847-46.463c0-19.354-8.171-23.426-22.172-26.68
	c-0.398-4.738-2.294-8.818-5.548-11.795c-0.327-0.312-0.668-0.595-1.019-0.869c-1.992-1.584-4.303-2.686-6.783-3.262
	c-1.446-0.34-2.953-0.502-4.483-0.479c-1.015,0.018-2.096,0.106-3.177,0.346l-4.754,0.879c-1.656,0.318-2.521,0.478-3.963,0.574
	c-1.521-0.047-2.316-0.184-3.983-0.443l-4.779-0.723c-1.016-0.205-2.102-0.258-3.185-0.244c-4.624,0.08-8.931,1.819-12.13,5.008
	c-2.985,2.92-4.729,6.785-5.109,11.221c-13.449,3.225-21.268,7.531-21.268,26.467c0,14.148,6.74,32.988,17.854,46.463
	c0,1.688,0.315,3.363,1.675,4.718c7.545,8.164,16.259,13.106,25.059,14.825c0.35,3.354,0.781,10.271,0.167,21.336
	c-0.252,4.529-2.021,5.8-2.604,6.218c-3.124,2.241-9.023,1.297-10.82,0.799l-0.335-0.086c-23.157-5.101-43.036-19.229-55.973-39.781
	C11.964,126.729,7.827,102.717,13.236,79.66c5.396-22.989,19.716-42.624,40.323-55.282c20.603-12.655,44.578-16.553,67.517-10.973
	c22.964,5.586,42.484,20.084,54.97,40.827c12.487,20.748,16.162,44.795,10.345,67.711c-1.518,5.979-3.677,11.818-6.396,17.369
	c-1.888-0.629-3.897-0.979-5.996-0.979c-10.477,0-18.967,8.489-18.967,18.967c0,10.477,8.49,18.969,18.967,18.969
	s18.97-8.492,18.97-18.969c0-4.369-1.492-8.381-3.977-11.588c3.433-6.701,6.131-13.804,7.979-21.078
	C203.505,98.865,199.394,71.864,185.391,48.602z M78.815,136.21c-1.337-1.343-2.677-2.015-4.364-2.015
	c-9.772-12.125-16.155-28.957-16.155-41.422c0-12.895,2.9-15.953,13.266-18.645c1.914,12.571,8.926,29.481,15.443,42.217
	c0.967,1.729,2.722,2.871,4.744,2.838c2.6-0.049,4.734-1.973,5.124-4.678l0.194-1.531c0.7-5.613,1.732-13.201,3.985-16.875
	c2.367,3.598,3.647,11.148,4.533,16.738l0.243,1.524c0.403,2.613,2.678,4.541,5.273,4.498c2.023-0.03,3.812-1.227,4.648-2.987
	c3.112-6.535,6.288-14.144,8.863-21.697c0.809-2.373,1.554-4.734,2.221-7.063c1.339-4.649,2.351-9.139,2.884-13.194
	c11.122,2.75,14.416,5.625,14.416,18.854c0,12.465-6.394,29.297-16.155,41.422c-1.689,0-3.363,0.672-4.375,2.013
	c-5.054,5.383-13.128,11.782-22.563,11.782C91.618,147.992,83.878,141.593,78.815,136.21z" class="color c1"/>
</svg>