<svg version="1.1" id="图层_2_1_" x="0px" y="0px" width="106px" height="106.631px" viewBox="0 0 106 106.631" enable-background="new 0 0 106 106.631" xml:space="preserve" xmlns="http://www.w3.org/2000/svg" xmlns:xlink="http://www.w3.org/1999/xlink" xmlns:xml="http://www.w3.org/XML/1998/namespace">
  <polygon fill="#D4145A" points="74,32.631 74,0 29.289,0 29.021,31.631 0,31.631 0,74.631 32,74.631 32,106.631 74,106.631 
	74,74.631 106,74.631 106,32.631 " class="color c1"/>
  <polygon fill="#FFFFFF" points="101,69.631 69,69.631 69,101.631 37,101.631 37,69.631 5,69.631 5,36.631 33.978,36.631 34.246,5 
	69,5 69,37.631 101,37.631 " class="color c2"/>
  <g>
    <path fill="#D4145A" d="M68.757,65.564c0.01,0.242,0.412,0.659,0.646,0.669c1.487,0.061,2.977,0.031,4.498,0.031
		c0-1.847,0-3.543,0-5.223c-1.747,0-3.377,0-5.173,0C68.728,62.59,68.698,64.079,68.757,65.564z" class="color c1"/>
    <path fill="#D4145A" d="M79.414,61.048c0,1.731,0,3.393,0,5.217c1.55,0,3.039,0.03,4.524-0.031c0.239-0.01,0.651-0.416,0.661-0.653
		c0.061-1.485,0.031-2.975,0.031-4.533C82.812,61.048,81.15,61.048,79.414,61.048z" class="color c1"/>
    <path fill="#D4145A" d="M89.892,61.069c0,1.537-0.038,2.984,0.034,4.426c0.013,0.269,0.457,0.725,0.719,0.738
		c1.482,0.072,2.97,0.035,4.495,0.035c0-1.829,0-3.46,0-5.198C93.338,61.07,91.678,61.07,89.892,61.069z" class="color c1"/>
    <path fill="#D4145A" d="M8.609,45.271c1.757,0,3.419,0,5.135,0c0-1.74,0-3.394,0-5.081c-1.757,0-3.419,0-5.135,0
		C8.609,41.93,8.609,43.584,8.609,45.271z" class="color c1"/>
    <path fill="#D4145A" d="M29.767,45.228c1.778,0,3.469,0,5.198,0c0-1.708,0-3.288,0-4.996c-1.821,0-3.513,0-5.198,0
		C29.767,41.978,29.767,43.595,29.767,45.228z" class="color c1"/>
    <path fill="#D4145A" d="M19.255,45.274c1.737,0,3.353,0,5.037,0c0-1.732,0-3.381,0-5.062c-1.745,0-3.395,0-5.037,0
		C19.255,41.971,19.255,43.621,19.255,45.274z" class="color c1"/>
  </g>
</svg>