<svg version="1.1" id="图层_1" x="0px" y="0px" width="195.786px" height="178.983px" viewBox="0 0 195.786 178.983" enable-background="new 0 0 195.786 178.983" xml:space="preserve" xmlns="http://www.w3.org/2000/svg" xmlns:xlink="http://www.w3.org/1999/xlink" xmlns:xml="http://www.w3.org/XML/1998/namespace">
  <path fill="#E00001" d="M191.207,28.912C189.893,25.869,176.683,0,145.032,0c-31.65,0-47.139,28.912-47.139,28.912S82.366,0,50.71,0
	C19.057,0,5.892,25.869,4.579,28.912c-1.305,2.992-9.616,23.17,0,52.709c9.628,29.541,87.322,88.033,93.314,97.362
	c1.94-3.085,11.735-11.525,24.348-22.495c10.341,10.128,23.087,20.174,24.604,22.495c2.409-3.753,33.852-27.434,37.73-39.38
	c3.886-11.941,0.55-20.125,0-21.35c-0.377-0.975-3.71-7.472-11.138-10.297c8.732-9.793,15.359-18.951,17.769-26.336
	C200.823,52.082,192.512,31.904,191.207,28.912z M162.549,147.287h-11.438v11.397h-8.569v-11.397h-11.438v-8.607h11.438v-11.395
	h8.569v11.395h11.438V147.287z M172.55,88.497c-1.729,5.36-6.286,11.903-12.327,18.911c-8.988,2.611-13.378,10.846-13.378,10.846
	s-6.282-11.694-19.074-11.694c-12.827,0-18.143,10.468-18.692,11.694c-0.509,1.225-3.883,9.408,0,21.35
	c0.928,2.869,3.417,6.375,6.667,10.133c-9.284,8.145-16.38,14.307-17.853,16.623c-4.766-7.469-66.933-54.227-74.658-77.862
	c-7.68-23.631-1.058-39.796,0-42.203c1.053-2.448,11.602-23.125,36.925-23.125c25.322,0,37.733,23.125,37.733,23.125
	s12.411-23.125,37.73-23.125c25.318,0,35.873,20.677,36.925,23.125C173.606,48.701,180.23,64.866,172.55,88.497z" class="color c1"/>
</svg>