<svg version="1.1" id="图层_1" x="0px" y="0px" width="81.745px" height="227.987px" viewBox="0 0 81.745 227.987" enable-background="new 0 0 81.745 227.987" xml:space="preserve" xmlns="http://www.w3.org/2000/svg" xmlns:xlink="http://www.w3.org/1999/xlink" xmlns:xml="http://www.w3.org/XML/1998/namespace">
  <path fill="#CF121B" d="M18.853,154.922c-1.854-13.508,0.947-26.333,5.649-38.854c7.103-18.915,17.417-36.1,29.34-52.275
	c8.375-11.362,17.512-22.163,26.31-33.213c0.402-0.505,0.811-1.005,1.437-1.78c0.052,0.063,0.103,0.123,0.155,0.185V0
	c0,0-42.571,50.924-56.476,73.756c-7.23,11.872-13.573,24.193-18.314,37.286c-5.86,16.182-8.833,32.662-5.667,49.925
	c7.193,39.22,41.685,67.174,80.458,67.019V209.7C51.386,209.743,23.339,187.606,18.853,154.922z" class="color c1"/>
</svg>