<svg version="1.1" id="图层_1" x="0px" y="0px" width="182px" height="160.389px" viewBox="0 0 182 160.389" enable-background="new 0 0 182 160.389" xml:space="preserve" xmlns="http://www.w3.org/2000/svg" xmlns:xlink="http://www.w3.org/1999/xlink" xmlns:xml="http://www.w3.org/XML/1998/namespace">
  <g>
    <path fill="#FFFFFF" d="M179.453,26.828c-4.063-10.933-13.406-18.712-30.965-19.513c-18.758-0.854-35.543,9.056-54.18,8.804
		C74.002,15.847,58.496,0.854,38.753,0.035C22.011-0.659,8.169,9.188,2.952,25.075C-1.206,37.742-0.64,51.611,2.581,64.551
		c6.131,24.617,20.152,45.834,34.396,66.406c5.979,8.631,28.572,45.344,39.715,21.506c3.742-8.008-0.08-16.541-0.438-24.721
		c-0.836-18.974,19.03-15.611,23.295-1.252c2.321,7.803-0.207,15.596,0.613,23.42c1.83,17.442,23.146,5.746,30.386-1.615
		c17.638-17.92,31.865-41.785,41.808-64.769C179.938,66.006,185.456,42.981,179.453,26.828z M102.768,30.156
		c-16.822,5.681-34.625,2.061-51.599,6.434C29.416,42.195,20.286,64.375,21.728,85.18c0.31,4.433,1.044,8.841,2.187,13.134
		C17.464,86.971,12.169,75.324,9.081,62.928C5.837,49.892,5.919,37.526,9.316,27.161c4.143-12.622,14.79-20.464,27.78-20.464
		c0.455,0,0.92,0.008,1.379,0.025c8.377,0.351,16.216,3.78,24.515,7.413c9.58,4.19,19.48,8.521,31.228,8.68l0.789,0.007
		c9.66,0,18.621-2.366,27.286-4.651c1.168-0.309,2.329-0.614,3.479-0.912C119.468,23.402,110.573,27.52,102.768,30.156z" class="color c1"/>
  </g>
</svg>