<svg version="1.1" id="图层_1" x="0px" y="0px" width="50.111px" height="50.112px" viewBox="0 0 50.111 50.112" enable-background="new 0 0 50.111 50.112" xml:space="preserve" xmlns="http://www.w3.org/2000/svg" xmlns:xlink="http://www.w3.org/1999/xlink" xmlns:xml="http://www.w3.org/XML/1998/namespace">
  <path fill="#191919" d="M25.445,0.004C11.608-0.21,0.216,10.831,0.003,24.669c-0.215,13.835,10.829,25.227,24.666,25.44
	c13.835,0.213,25.226-10.829,25.44-24.664C50.323,11.607,39.279,0.219,25.445,0.004z M24.908,34.683
	c-5.316-0.082-9.562-4.459-9.479-9.774c0.082-5.316,4.46-9.561,9.777-9.479c5.316,0.084,9.559,4.462,9.478,9.776
	C34.602,30.522,30.226,34.766,24.908,34.683z M35.162,19.672c-1.347-2.807-4.323-4.684-4.323-4.684l4.969-8.425
	c4.524,1.099,8.01,7.894,8.01,7.894L35.162,19.672z" class="color c1"/>
</svg>