<svg version="1.1" id="图层_1" x="0px" y="0px" width="22.717px" height="22.716px" viewBox="0 0 22.717 22.716" enable-background="new 0 0 22.717 22.716" xml:space="preserve" xmlns="http://www.w3.org/2000/svg" xmlns:xlink="http://www.w3.org/1999/xlink" xmlns:xml="http://www.w3.org/XML/1998/namespace">
  <path fill="#027FBF" d="M0,9.922v2.868c0.003,2.295,1.861,4.152,4.155,4.155h0.718l0,0c0.495,0,0.896,0.401,0.896,0.896v0.72
	c0.002,2.294,1.86,4.152,4.153,4.155h2.873c2.294-0.003,4.152-1.861,4.155-4.155v-0.714c0.001-0.494,0.401-0.895,0.896-0.896h0.715
	c2.293-0.003,4.152-1.86,4.154-4.155V9.919c-0.002-2.293-1.861-4.152-4.154-4.154h-0.715l0,0c-0.495,0-0.896-0.401-0.896-0.896
	V4.155C16.948,1.861,15.09,0.003,12.796,0H9.923C7.63,0.003,5.771,1.861,5.77,4.155v0.717l0,0c0,0.496-0.401,0.896-0.896,0.896
	H4.155C1.862,5.771,0.003,7.629,0,9.922z" class="color c1"/>
</svg>