<svg version="1.1" id="图层_1" x="0px" y="0px" width="428.75px" height="165.959px" viewBox="0 0 428.75 165.959" enable-background="new 0 0 428.75 165.959" xml:space="preserve" xmlns="http://www.w3.org/2000/svg" xmlns:xlink="http://www.w3.org/1999/xlink" xmlns:xml="http://www.w3.org/XML/1998/namespace">
  <path fill="#2C8FFF" d="M31.627,0.016c-2.246,0-4.203,1.16-5.316,2.923H13.629c-5.098,0-9.014,2.247-11.33,6.475
	c-5.582,10.195-0.268,29.837,8.115,42.955l1.473,2.321l5.1-3.238l-1.498-2.319c-8.191-12.829-11.791-29.692-7.9-36.795
	c1.23-2.271,3.166-3.334,6.016-3.334h12.322c1.039,2.199,3.309,3.696,5.918,3.6c3.189-0.121,5.848-2.682,6.041-5.872
	C38.125,3.036,35.227,0.016,31.627,0.016z M31.506,9.124c-1.691,0-3.068-1.377-3.068-3.068c0-1.691,1.377-3.068,3.068-3.068
	s3.068,1.377,3.068,3.068C34.574,7.771,33.197,9.124,31.506,9.124z M87.387,9.39c-2.318-4.228-6.232-6.475-11.33-6.475H61.439
	c-1.184-1.86-3.309-3.068-5.701-2.899c-3.117,0.194-5.678,2.73-5.871,5.871c-0.217,3.648,2.658,6.693,6.281,6.693
	c2.514,0,4.664-1.474,5.678-3.601H76.08c2.875,0,4.785,1.063,6.016,3.334c3.746,6.837,0.557,22.709-7.006,35.321l5.074,3.285
	C88.016,37.85,92.773,19.223,87.387,9.39z M55.666,9.124c-1.691,0-3.068-1.377-3.068-3.068c0-1.691,1.377-3.068,3.068-3.068
	s3.068,1.377,3.068,3.068C58.734,7.771,57.357,9.124,55.666,9.124z M47.041,103.927h-7.926l0,0c-0.578-0.193-1.014-0.483-1.135-0.87
	L33.535,90.18c-0.338-0.966-0.314-1.884,0-2.656c-4.229-2.224-7.852-5.606-10.438-9.835L13.24,61.647
	c-0.965-1.547-1.063-3.407-0.41-4.977l5.484-3.479c1.764,0.097,3.432,1.039,4.422,2.635l9.857,16.04
	c2.535,4.132,6.643,6.861,11.281,7.466c3.793,0.483,6.74-0.507,9.23-3.14c9.832-10.438,15.848-23.339,15.896-23.484
	c0.918-2.006,2.875-3.188,4.953-3.236l0,0l5.219,3.382l0,0c0.604,1.377,0.604,2.994-0.072,4.469
	c-0.268,0.605-6.791,14.666-17.928,26.455c-2.416,2.561-5.193,4.423-8.287,5.532c-0.023,0.291-0.096,0.581-0.193,0.87l-4.443,12.877
	C48.08,103.42,47.621,103.733,47.041,103.927z M406.445,121.346c-11.371,0-20.775,8.553-22.134,19.562
	c-120.568,0.293-326.293,0.589-332.938-0.193c-5.814-0.697-5.813-7.575-5.793-8.405l0.352-26.365l-6-0.08l-0.35,26.303
	c-0.155,4.539,1.961,13.412,11.076,14.504c3.433,0.412,54.435,0.54,116.471,0.54c80.396,0,179.31-0.215,217.248-0.305
	c1.58,10.762,10.873,19.052,22.068,19.052c12.299,0,22.305-10.006,22.305-22.306C428.75,131.353,418.744,121.346,406.445,121.346z
	 M406.445,159.959c-7.883,0-14.477-5.622-15.983-13.066c2.225-0.006,4.099-0.01,5.589-0.014c1.429,4.272,5.455,7.356,10.207,7.356
	c5.947,0,10.768-4.821,10.768-10.767c0-5.947-4.82-10.768-10.768-10.768c-5.052,0-9.28,3.485-10.441,8.179
	c-1.787,0.004-3.596,0.009-5.428,0.014c1.318-7.68,8.007-13.547,16.057-13.547c8.99,0,16.305,7.315,16.305,16.308
	C422.75,152.645,415.436,159.959,406.445,159.959z" class="color c1"/>
</svg>