<svg version="1.1" id="图层_1" x="0px" y="0px" width="185.848px" height="162.25px" viewBox="0 0 185.848 162.25" enable-background="new 0 0 185.848 162.25" xml:space="preserve" xmlns="http://www.w3.org/2000/svg" xmlns:xlink="http://www.w3.org/1999/xlink" xmlns:xml="http://www.w3.org/XML/1998/namespace">
  <path fill="#475254" d="M30.841,42.588c-11.512,0-21.903,0.908-30.743,2.129L0.001,29.116L93.206,0l92.537,27.963l0.104,16.691
	c-8.738-1.189-18.965-2.066-30.273-2.066c-2.689,0-5.41,0.051-8.084,0.148c-15.946,0.587-23.578,2.607-30.959,4.561
	c-6.259,1.657-12.172,3.223-23.133,3.912h-0.378c-10.963-0.689-16.876-2.254-23.136-3.91c-7.381-1.954-15.014-3.975-30.957-4.563
	C36.25,42.639,33.53,42.588,30.841,42.588z M160.608,126.256L160.608,126.256c-3.168,0-6.605-0.072-10.215-0.217
	c-30.405-1.215-37.592-15.658-41.455-23.418c-0.488-0.982-0.91-1.83-1.301-2.484c-1.891-3.168-3.438-7.272-4.931-11.253
	c-3.613-0.579-6.949-1.028-10.145-1.366c-3.17,0.335-6.45,0.775-9.973,1.339c-1.496,3.987-3.043,8.105-4.942,11.283
	c-0.388,0.65-0.81,1.498-1.298,2.479c-3.861,7.76-11.049,22.202-41.454,23.42c-3.611,0.145-7.051,0.217-10.223,0.217
	c-7.663,0-14.022-0.409-19.441-1.252l-0.111-0.02c-1.939-0.377-3.632-0.759-5.12-1.133l0.105,17.031l93.101,21.367l92.642-22.521
	l-0.1-15.874c-3.271,0.921-5.33,1.142-5.971,1.189C174.422,125.859,168.151,126.256,160.608,126.256z" class="color c1"/>
</svg>