<svg version="1.1" id="图层_1" x="0px" y="0px" width="138.257px" height="122.4px" viewBox="0 0 138.257 122.4" enable-background="new 0 0 138.257 122.4" xml:space="preserve" xmlns="http://www.w3.org/2000/svg" xmlns:xlink="http://www.w3.org/1999/xlink" xmlns:xml="http://www.w3.org/XML/1998/namespace">
  <path fill="#EB1C24" d="M93.226,56.926L86.55,41.363l-6.209,40.798c-0.324,2.105-2.025,3.718-4.143,3.918
	c-0.146,0.016-0.3,0.021-0.441,0.021c-1.943,0-3.703-1.22-4.365-3.084L58.111,45.534L51.47,57.062
	c-0.826,1.438-2.355,2.322-4.014,2.322l-29.574,0.01c-2.557,0-4.637-2.072-4.637-4.634c0-2.56,2.076-4.637,4.637-4.637l26.895-0.008
	l10.33-17.927c0.898-1.566,2.631-2.458,4.438-2.299c1.803,0.162,3.342,1.359,3.943,3.064L73.96,62.504l5.869-38.585
	c0.313-2.045,1.938-3.637,3.994-3.898c2.051-0.261,4.028,0.87,4.842,2.77l11.871,27.674l22.116-0.007
	c5.345-14.283,4.015-29.308-8.094-41.666C97.195-8.94,66.804,3.645,62.82,15.948C58.843,3.645,28.447-8.939,11.082,8.791
	C-8.856,29.143,0.419,56.73,20.625,76.321C31.46,86.833,62.82,122.4,62.82,122.4s31.363-35.567,42.201-46.079
	c5.24-5.083,9.738-10.704,13.193-16.598l-20.73,0.007C95.626,59.732,93.955,58.626,93.226,56.926z M120.167,34.055
	C115.869,9.728,88.445,6.829,88.445,6.829C122.324,1.173,120.167,34.055,120.167,34.055z M133.626,50.452L133.626,50.452
	l-10.974,0.002c-1.174,3.138-2.668,6.237-4.438,9.27l15.412-0.008c2.563,0,4.631-2.073,4.631-4.633
	C138.257,52.522,136.187,50.452,133.626,50.452z" class="color c1"/>
</svg>