<svg version="1.1" id="图层_2_1_" x="0px" y="0px" width="188.56px" height="73.602px" viewBox="0 0 188.56 73.602" enable-background="new 0 0 188.56 73.602" xml:space="preserve" xmlns="http://www.w3.org/2000/svg" xmlns:xlink="http://www.w3.org/1999/xlink" xmlns:xml="http://www.w3.org/XML/1998/namespace">
  <path fill="#EE7E77" d="M169.633,39.672c5.938-4.795,11.818-9.664,17.611-14.631c0.768-0.658,1.306-2.02,1.315-3.061
	c0.063-7.311-7.158-12.882-14.515-11.224c-1.15,0.259-1.762,0.01-2.559-0.769c-4.13-4.037-9.028-5.253-14.549-3.529
	c-1.048,0.327-1.666,0.111-2.471-0.495c-5.204-3.918-10.928-4.79-17.046-2.583c-1.118,0.403-1.874,0.323-2.891-0.252
	c-8.022-4.533-15.93-4.096-23.501,1.012c-5.966,4.025-11.794,8.257-17.634,12.465c-0.993,0.716-1.631,0.529-2.623,0.019
	c-4.901-2.519-9.763-5.155-14.83-7.298c-7.438-3.146-15.196-5.09-23.38-3.991c-4.907,0.659-9.786,1.534-14.667,2.371
	c-1.911,0.328-3.079,1.918-3.063,3.878c0.048,5.772,0.085,11.544,0.126,17.316c0.014,2.049-0.05,4.102,0.062,6.145
	c0.095,1.726,1.477,2.988,3.151,3.113c1.567,0.118,3.169-0.935,3.552-2.437c0.165-0.65,0.159-1.354,0.16-2.034
	c0.011-5.961-0.023-11.922,0.051-17.882c0.007-0.611,0.546-1.673,0.979-1.751c4.138-0.749,8.287-1.589,12.47-1.904
	c7.52-0.566,14.538,1.802,21.133,5c6.451,3.128,12.494,7.086,18.801,10.523c3.358,1.83,6.794,3.608,10.375,4.918
	c6.552,2.397,13.57,2.128,20.393,2.885c8.938,0.992,17.92,1.591,26.883,2.365c4.328,0.374,8.029,3.031,9.136,6.623
	c-3.133,0.454-6.272,0.798-9.367,1.376c-13.178,2.461-26.392,3.908-39.787,1.933c-2.317-0.341-3.944,0.915-4.172,2.937
	c-0.238,2.107,0.97,3.665,3.282,3.898c5.104,0.514,10.219,0.915,15.446,1.372c-0.222,0.153-0.361,0.299-0.53,0.358
	c-9.005,3.129-17.911,6.599-27.052,9.265c-7.282,2.124-14.679,1.174-21.635-1.976c-6.549-2.965-13.018-6.107-19.517-9.183
	c-6.164-2.918-12.31-5.874-18.486-8.767c-2.8-1.312-5.46,0.328-5.313,3.187c0.094,1.826,1.315,2.662,2.793,3.362
	C49.588,57.822,61.425,63.39,73.21,69.062c9.864,4.75,20.074,5.86,30.594,2.905c14.973-4.206,29.31-10.026,42.952-17.529
	c0.9-0.495,1.937-0.866,2.951-1.007c5.71-0.791,11.43-1.514,17.152-2.219c2.206-0.272,3.723-2.125,3.294-4.304
	c-0.31-1.575-0.644-3.174-1.232-4.657C168.451,41.067,168.607,40.501,169.633,39.672z M103.907,24.411
	c-1.663-0.948-3.385-1.792-5.453-2.875c5.913-4.129,11.49-8.02,17.065-11.916c3.762-2.628,7.869-3.088,12.229-1.951
	c0.357,0.094,0.704,0.237,1.046,0.38c0.093,0.039,0.152,0.161,0.325,0.356c-0.427,0.341-0.827,0.697-1.261,1.003
	c-6.988,4.925-14,9.816-20.952,14.791C105.838,24.963,105.003,25.036,103.907,24.411z M123.918,28.145
	c-2.956-0.144-5.904-0.472-9.235-0.764c0.663-0.535,1.01-0.852,1.392-1.119c7.37-5.163,14.728-10.34,22.122-15.468
	c3.354-2.325,8.219-2.159,11.193,0.368c-2.987,2.154-5.931,4.305-8.905,6.415c-4.656,3.306-9.311,6.613-14.021,9.84
	C125.766,27.895,124.76,28.186,123.918,28.145z M147.957,29.42c-0.494,0.347-1.1,0.826-1.624,0.791
	c-3.256-0.219-6.503-0.567-10.179-0.912c0.895-0.676,1.416-1.09,1.957-1.477c6.359-4.549,12.729-9.082,19.079-13.644
	c3.11-2.233,6.686-1.931,9.641,1.146c-3.783,2.911-7.442,5.774-11.157,8.564C153.144,25.788,150.545,27.598,147.957,29.42z
	 M164.444,35.122c-2.479-1.353-4.681-2.555-7.002-3.822c1.698-1.262,3.405-2.472,5.047-3.764c3.707-2.916,7.394-5.858,11.066-8.817
	c2.88-2.321,6.396-1.384,7.908,2.432C175.797,25.802,170.05,30.52,164.444,35.122z" class="color c1"/>
  <path fill="#EE7E77" d="M18.296,3.591c-2.913,0.104-5.837,0.095-8.751-0.005C4.16,3.401,0.003,7.347,0.002,12.759
	C0.001,18.099,0.001,23.44,0.001,28.78c-0.001,5.403-0.002,10.806,0,16.207c0.002,5.409,4.124,9.319,9.555,9.162
	c2.916-0.085,5.838-0.091,8.753-0.004c5.521,0.165,9.682-3.784,9.678-9.263c-0.007-10.681-0.007-21.362,0-32.043
	C27.99,7.371,23.78,3.396,18.296,3.591z M20.916,29.059c0.002,0,0.005,0,0.007,0c0,5.086,0.013,10.173-0.006,15.26
	c-0.009,2.335-0.409,2.747-2.665,2.766c-2.977,0.024-5.955-0.009-8.932,0.004c-1.508,0.007-2.262-0.589-2.257-2.218
	c0.034-10.668,0.036-21.336-0.001-32.004c-0.006-1.642,0.768-2.217,2.262-2.212c3.101,0.009,6.203,0.01,9.304,0
	c1.624-0.006,2.325,0.734,2.308,2.4C20.882,18.389,20.916,23.724,20.916,29.059z" class="color c1"/>
</svg>