<svg version="1.1" id="图层_1" x="0px" y="0px" width="158.676px" height="157.914px" viewBox="0 0 158.676 157.914" enable-background="new 0 0 158.676 157.914" xml:space="preserve" xmlns="http://www.w3.org/2000/svg" xmlns:xlink="http://www.w3.org/1999/xlink" xmlns:xml="http://www.w3.org/XML/1998/namespace">
  <path opacity="0.5" fill="#A97521" enable-background="new    " d="M81.208,86.894c-0.123,0.111-0.258,0.213-0.367,0.341
	c-10.07,11.837-12.285,26.517-13.291,35.474c-1.43,12.705,1.07,15.633,2.855,20.486c0.559,1.514-0.693,2.814-1.459,3.288
	C47.56,159.707,31.62,157.819,31.62,157.819c-21.453-2.883-22.738-15.407-21.984-23.399c1.52-16.127,20.615-26.069,31.157-31.502
	c5.408-2.787,23.738-9.83,40.307-16.029" class="color c1"/>
  <path opacity="0.6" fill="#A97521" enable-background="new    " d="M81.208,86.904c-0.135,0.1-0.278,0.186-0.399,0.303
	c-11.254,10.719-14.991,25.086-16.929,33.889c-2.75,12.486-0.57,15.66,0.699,20.673c0.396,1.563-0.984,2.728-1.795,3.118
	c-22.652,10.916-38.305,7.373-38.305,7.373c-21.035-5.109-21.006-17.7-19.42-25.568c3.197-15.881,23.227-23.771,34.28-28.072
	c5.67-2.207,24.637-7.297,41.763-11.729" class="color c1"/>
  <path fill="#A97521" d="M81.208,86.916c-0.146,0.084-0.297,0.156-0.431,0.258c-12.313,9.484-17.528,23.383-20.376,31.935
	c-4.039,12.13-2.203,15.515-1.465,20.634c0.23,1.596-1.266,2.608-2.111,2.912c-23.67,8.489-38.868,3.329-38.868,3.329
	c-20.385-7.28-19.039-19.798-16.641-27.458c4.842-15.459,25.586-21.214,37.027-24.335c5.87-1.603,25.264-4.681,42.759-7.299" class="color c1"/>
  <path opacity="0.5" fill="#EDDE2C" enable-background="new    " d="M116.193,74.843c43.646-28.439,27.992-61.554,27.992-61.554
	c-5.194-14.42-20.471-13.267-20.471-13.267c-17.465,0.432-24.84,7.675-29.943,14.201c-10.272,13.131-8.268,35.144-8.268,35.144
	c1.283,5.043,1.447,11.814,1.447,11.814s-1.176,20.518-5.408,25.708C81.544,86.888,108.77,79.683,116.193,74.843z" class="color c2"/>
  <path opacity="0.6" fill="#EDDE2C" enable-background="new    " d="M117.266,78.532c46.379-23.722,34.27-58.292,34.27-58.292
	c-3.656-14.884-18.971-15.335-18.971-15.335C115.148,3.51,107.061,9.943,101.3,15.899C89.71,27.885,89.402,49.986,89.402,49.986
	c0.75,5.15,0.207,11.9,0.207,11.9s-3.313,20.282-8.065,25.001C81.544,86.888,109.372,82.568,117.266,78.532z" class="color c2"/>
  <path fill="#EDDE2C" d="M117.941,82.312c48.604-18.744,40.175-54.39,40.175-54.39c-2.08-15.185-17.265-17.233-17.265-17.233
	c-17.172-3.208-25.891,2.344-32.24,7.665C95.831,29.062,93.218,51.01,93.218,51.01c0.207,5.2-1.038,11.856-1.038,11.856
	s-5.418,19.824-10.636,24.02C81.544,86.888,109.671,85.5,117.941,82.312z" class="color c2"/>
  <path fill="none" stroke="#231815" stroke-miterlimit="10" d="M106.497,81.843"/>
  <path fill="#F8F3BC" d="M95.456,57.028c0,0-1.599,18.309-10.922,27.907c45.786-0.916,60.682-22.09,60.682-22.09L95.456,57.028z
	 M93.491,83.188c-1.566,0-2.834-1.269-2.834-2.833c0-1.565,1.268-2.834,2.834-2.834c1.563,0,2.832,1.269,2.832,2.834
	C96.323,81.919,95.057,83.188,93.491,83.188z M97.195,73.815c-1.565,0-2.834-1.268-2.834-2.833s1.269-2.834,2.834-2.834
	c1.564,0,2.832,1.269,2.832,2.834C100.027,72.548,98.762,73.815,97.195,73.815z M100.029,65.19c-1.565,0-2.836-1.268-2.836-2.833
	s1.271-2.833,2.836-2.833c1.563,0,2.832,1.269,2.832,2.833C102.861,63.923,101.593,65.19,100.029,65.19z M105.73,82.316
	c-1.565,0-2.834-1.268-2.834-2.833c0-1.565,1.269-2.833,2.834-2.833c1.564,0,2.832,1.269,2.832,2.833
	C108.563,81.048,107.296,82.316,105.73,82.316z M108.564,74.272c-1.565,0-2.836-1.268-2.836-2.833s1.271-2.834,2.836-2.834
	c1.563,0,2.832,1.269,2.832,2.834S110.128,74.272,108.564,74.272z M111.396,66.644c-1.563,0-2.834-1.268-2.834-2.833
	s1.271-2.834,2.834-2.834c1.564,0,2.834,1.269,2.834,2.834S112.962,66.644,111.396,66.644z M120.309,75.649
	c-1.564,0-2.834-1.268-2.834-2.833s1.27-2.834,2.834-2.834c1.563,0,2.834,1.269,2.834,2.834S121.872,75.649,120.309,75.649z
	 M123.941,68.024c-1.563,0-2.834-1.268-2.834-2.833s1.271-2.834,2.834-2.834c1.564,0,2.834,1.269,2.834,2.834
	S125.507,68.024,123.941,68.024z M134.561,69.478c-1.564,0-2.834-1.268-2.834-2.833s1.27-2.834,2.834-2.834
	c1.563,0,2.834,1.269,2.834,2.834S136.124,69.478,134.561,69.478z" class="color c3"/>
</svg>