<svg version="1.1" id="图层_1" x="0px" y="0px" width="93.51px" height="180.761px" viewBox="0 0 93.51 180.761" enable-background="new 0 0 93.51 180.761" xml:space="preserve" xmlns="http://www.w3.org/2000/svg" xmlns:xlink="http://www.w3.org/1999/xlink" xmlns:xml="http://www.w3.org/XML/1998/namespace">
  <path fill="#FFFFFF" d="M31.247,27.668c3.927-3.31,8.214-6.446,12.88-9.355l8.654,13.48c-3.018,3.095-5.951,6.397-8.717,9.903
	L31.247,27.668z M32.387,60.211c1.699-3.544,3.623-6.949,5.724-10.206l-14.198-15.54c-4.502,4.615-8.359,9.481-11.589,14.489
	L32.387,60.211z M24.72,90.786L0.107,85.241c-0.321,6.02,0.088,11.771,1.09,17.258l24.03-0.39
	C24.758,98.236,24.602,94.462,24.72,90.786z M52.836,13.367l7.313,11.391c2.361-2.106,4.73-4.09,7.065-5.946L62.943,8.728
	C59.434,10.17,56.054,11.712,52.836,13.367z M25.736,80.766c0.666-3.866,1.629-7.609,2.845-11.224L7.415,57.666
	c-2.831,5.817-4.854,11.736-6.048,17.609L25.736,80.766z M72.334,5.257l3.128,7.388c2.001-1.408,3.935-2.708,5.772-3.901
	l-1.887-5.602C76.957,3.802,74.616,4.505,72.334,5.257z M72.258,179.49c-3.07-2.863-5.975-5.699-8.707-8.504l-5.447,2.784
	c4.853,2.986,9.14,5.318,12.41,6.99L72.258,179.49z M93.022,0c-1.323,0.243-2.622,0.512-3.918,0.782l0.884,2.621
	c1.312-0.75,2.493-1.401,3.521-1.955L93.022,0z M56.479,163.371c-3.065-3.468-5.879-6.889-8.449-10.262l-12.718,3.987
	c4.422,3.859,8.897,7.311,13.199,10.347L56.479,163.371z M30.946,123.843c-1.612-4.007-2.884-7.928-3.851-11.764l-23.357,0.379
	c1.83,5.571,4.256,10.828,7.117,15.764L30.946,123.843z M41.945,144.538c-2.545-3.866-4.779-7.666-6.715-11.396l-18.495,4.031
	c3.174,4.309,6.64,8.328,10.257,12.052L41.945,144.538z" class="color c1"/>
</svg>