<svg version="1.1" id="图层_1" x="0px" y="0px" width="123.193px" height="188.793px" viewBox="0 0 123.193 188.793" enable-background="new 0 0 123.193 188.793" xml:space="preserve" xmlns="http://www.w3.org/2000/svg" xmlns:xlink="http://www.w3.org/1999/xlink" xmlns:xml="http://www.w3.org/XML/1998/namespace">
  <path fill="#F21414" d="M5.091,111.96l71.271,71.271l-4.242,4.242L0.849,116.202L5.091,111.96z M4.073,100.726l81.633,81.633
	l4.242-4.242L8.315,96.484L4.073,100.726z M8.607,86.559l88.535,88.535l4.242-4.242L12.849,82.317L8.607,86.559z M14.063,73.313
	l92.621,92.621l4.242-4.242L18.305,69.071L14.063,73.313z M14.906,159.229l-2.428,1.764l-2.426,1.763
	c3.652,5.024,8.218,9.594,13.571,13.58l3.585-4.812C22.341,167.9,18.201,163.763,14.906,159.229z M-0.001,134.055l54.737,54.737
	l4.242-4.242L4.241,129.813L-0.001,134.055z M27.022,48.868l91.401,91.401l4.242-4.242L31.264,44.627L27.022,48.868z
	 M123.191,117.853L38.562,33.223l-4.242,4.242l84.629,84.629L123.191,117.853z M90.54,37.448l4.772-3.636
	c-1.721-2.259-8.831-9.82-16.358-17.825C72.439,9.058,65.702,1.893,64.221,0l-4.726,3.698c1.649,2.107,8.177,9.049,15.088,16.399
	C81.344,27.287,89.007,35.437,90.54,37.448z M118.959,94.918L46.286,22.245l-4.242,4.242l72.673,72.673L118.959,94.918z
	 M107.564,64.823L54.36,11.618l-4.242,4.242l53.204,53.204L107.564,64.823z M20.233,60.782l93.745,93.745l4.242-4.242L24.475,56.54
	L20.233,60.782z" class="color c1"/>
</svg>