<svg version="1.1" id="图层_1" x="0px" y="0px" width="199.438px" height="132.649px" viewBox="0 0 199.438 132.649" enable-background="new 0 0 199.438 132.649" xml:space="preserve" xmlns="http://www.w3.org/2000/svg" xmlns:xlink="http://www.w3.org/1999/xlink" xmlns:xml="http://www.w3.org/XML/1998/namespace">
  <g>
    <path fill="#FFFFFF" d="M127.961,75.749h-12.809v14.147H91.254V75.749H74.813V54.337h16.441V38.851h23.898v15.486h12.809V75.749z
		 M95.015,15.463l15.167,0.319c0,0-0.191-9.305-2.23-11.79s-6.182-3.059-8.858-0.637C96.416,5.776,95.015,15.463,95.015,15.463z
		 M66.688,66.189H42.981v10.133h23.706V66.189z M27.782,65.553h24.217c0,0,4.588,0.255,5.99-3.951
		c1.401-4.206-0.383-29.442-0.383-29.442l-26.51,0.256l-4.589,11.216l-3.059,19.883L27.782,65.553z" class="color c1"/>
    <path fill="#FF363C" d="M197.623,30.372h-15.766h-5.05c-2.536-4.608-7.442-7.733-13.072-7.733h-19.546h-26.803l-0.782-5.887h-0.733
		L114.7,7.947C113.838,2.383,111.074,0,106.518,0c-4.56,0-7.33,2.383-8.187,7.947l-1.168,8.805h-0.643l-0.785,5.887H65.567H46.019
		c-8.232,0-14.238,5.474-16.496,14.852l-8.284,31.943c1.383-0.36,2.832-0.556,4.325-0.556h6.747c2.843,0,2.843,4.267,0,4.267h-6.747
		c-7.059,0-12.79,5.715-12.79,12.775v9.318c0,1.423-1.057,2.129-2.133,2.138H7.882H7.571c-2.348,0-4.25,1.918-4.25,4.266v5.506
		c0,2.351,1.902,4.252,4.25,4.252h6.878c0.182-1.071,0.438-2.116,0.761-3.132c2.966-9.331,11.7-16.099,22.015-16.099
		c11.434,0,20.938,8.319,22.778,19.23h62.472c1.847-10.911,11.343-19.23,22.78-19.23c9.272,0,17.271,5.468,20.945,13.351
		c0.858,1.842,1.481,3.813,1.829,5.88h19.646c2.354,0,4.258-1.901,4.258-4.252v-5.508c0-2.346-1.904-4.266-4.258-4.266h-2.566
		c-0.083,0.013-0.172,0.013-0.26,0c-1.024-0.052-2.01-0.772-2.01-2.138v-9.319c0-3.079-1.09-5.901-2.903-8.106
		c-2.345-2.851-5.9-4.668-9.882-4.668h-5.615c-2.838,0-2.838-4.266,0-4.266h5.615c3.133,0,6.07,0.848,8.595,2.32V50.641h-12.753
		c-2.415,0-2.415-3.623,0-3.623h12.753l5.276-0.003l1.56-0.001c2.421,0,2.421-3.618,0-3.618h-1.751h-5.085v0.002h-0.004v-5.786
		h-17.089c-2.417,0-2.417-3.619,0-3.619l21.013,0.002h15.054C200.043,33.994,200.043,30.372,197.623,30.372z M101.919,8.439
		c0.634-4.047,2.101-4.821,4.599-4.821c2.501,0,3.971,0.778,4.602,4.856l0.67,5.064h-10.546L101.919,8.439z M32.812,64.045
		c-2.358,0-3.828-1.912-3.287-4.262l5.055-21.959c0.537-2.354,2.887-4.263,5.243-4.263h15.695c2.348,0,4.25,1.908,4.25,4.263v21.959
		c0,2.35-1.902,4.262-4.25,4.262H32.812z M63.054,74.02c-0.845,0-1.612-0.345-2.165-0.9h-8.321c-2.834,0-2.834-4.257,0-4.257
		l8.223-0.005c0.56-0.608,1.366-0.989,2.264-0.989c1.696,0,3.074,1.377,3.074,3.073S64.75,74.02,63.054,74.02z M128.333,72.96
		h-13.826v13.859H98.682V72.96H84.826V57.144h13.855v-13.83h15.825v13.83h13.826V72.96z" class="color c2"/>
    <path fill="#FF363C" d="M145.257,97.922c-9.589,0-17.36,7.769-17.36,17.364c0,7.117,4.289,13.236,10.423,15.916
		c2.125,0.929,4.471,1.447,6.938,1.447c9.588,0,17.363-7.78,17.363-17.363c0-1.531-0.199-3.015-0.571-4.428
		C160.092,103.41,153.315,97.922,145.257,97.922z M145.257,107.051c4.545,0,8.235,3.69,8.235,8.235c0,4.54-3.69,8.23-8.235,8.23
		c-4.546,0-8.232-3.69-8.232-8.23C137.024,110.741,140.711,107.051,145.257,107.051z" class="color c2"/>
    <path fill="#2D2D2D" d="M95.36,43.313v13.83H81.505V72.96H95.36v13.859h15.824V72.96h13.826V57.144h-13.826v-13.83H95.36z
		 M98.598,8.439l-0.676,5.1h10.546l-0.67-5.064c-0.632-4.078-2.101-4.856-4.603-4.856C100.697,3.618,99.23,4.393,98.598,8.439z
		 M49.246,68.862c-2.834,0-2.834,4.257,0,4.257h8.32c0.553,0.556,1.321,0.9,2.166,0.9c1.696,0,3.073-1.382,3.073-3.078
		s-1.377-3.073-3.073-3.073c-0.897,0-1.705,0.381-2.265,0.989L49.246,68.862L49.246,68.862z M52.196,64.045
		c2.348,0,4.25-1.912,4.25-4.262V37.824c0-2.354-1.902-4.263-4.25-4.263H36.501c-2.356,0-4.706,1.908-5.243,4.263l-5.055,21.959
		c-0.541,2.35,0.928,4.262,3.286,4.262H52.196z M175.328,43.396h6.836c2.421,0,2.421,3.618,0,3.618l-6.836,0.004h-12.753
		c-2.416,0-2.416,3.623,0,3.623h12.753v20.557c-2.524-1.473-5.463-2.32-8.596-2.32h-5.614c-2.838,0-2.838,4.266,0,4.266h5.614
		c7.063,0,12.785,5.715,12.785,12.774v9.319c0,1.365,0.986,2.086,2.011,2.138c0.088,0.013,0.176,0.013,0.26,0h2.565
		c2.354,0,4.258,1.92,4.258,4.266v5.508c0,2.351-1.903,4.252-4.258,4.252h-19.646c-1.836-10.911-11.337-19.23-22.774-19.23
		s-20.935,8.319-22.78,19.23H56.682c-1.841-10.911-11.346-19.23-22.779-19.23c-11.437,0-20.934,8.319-22.774,19.23H4.25
		c-2.348,0-4.25-1.901-4.25-4.252v-5.506c0-2.348,1.902-4.266,4.25-4.266h3.069c1.075-0.009,2.133-0.715,2.133-2.138V85.92
		c0-7.061,5.731-12.775,12.79-12.775h6.747c2.842,0,2.842-4.267,0-4.267h-6.747c-1.494,0-2.942,0.195-4.326,0.556L26.2,37.49
		c2.259-9.378,8.264-14.852,16.497-14.852h19.549h30.168l0.784-5.887h0.644l1.168-8.805C95.866,2.383,98.637,0,103.195,0
		c4.557,0,7.321,2.383,8.184,7.947l1.171,8.805h0.733l0.782,5.887h26.803h19.545c5.631,0,10.536,3.125,13.072,7.733h20.816
		c2.42,0,2.42,3.622,0,3.622l-36.066-0.002c-2.418,0-2.418,3.619,0,3.619h17.089v5.786h0.004V43.396z M114.883,0.149h18.25
		c2.42,0,2.42,3.624,0,3.624h-18.25C112.469,3.771,112.469,0.149,114.883,0.149z M25.676,115.286c0,4.54,3.687,8.23,8.229,8.23
		c4.547,0,8.233-3.69,8.233-8.23c0-4.545-3.687-8.235-8.233-8.235C29.36,107.051,25.676,110.741,25.676,115.286z M16.544,115.286
		c0-9.596,7.771-17.364,17.36-17.364c9.586,0,17.361,7.769,17.361,17.364c0,9.583-7.775,17.363-17.361,17.363
		C24.313,132.649,16.544,124.869,16.544,115.286z M133.702,115.286c0,4.54,3.687,8.23,8.233,8.23c4.545,0,8.234-3.69,8.234-8.23
		c0-4.545-3.689-8.235-8.234-8.235C137.389,107.051,133.702,110.741,133.702,115.286z M124.575,115.286
		c0-9.596,7.771-17.364,17.36-17.364c9.587,0,17.363,7.769,17.363,17.364c0,9.583-7.776,17.363-17.363,17.363
		C132.347,132.649,124.575,124.869,124.575,115.286z M118.28,8.598h7.15c2.414,0,2.414,3.626,0,3.626h-7.15
		C115.862,12.222,115.862,8.598,118.28,8.598z" class="color c3"/>
  </g>
</svg>