<svg version="1.1" id="图层_1" x="0px" y="0px" width="20.146px" height="80.098px" viewBox="0 0 20.146 80.098" enable-background="new 0 0 20.146 80.098" xml:space="preserve" xmlns="http://www.w3.org/2000/svg" xmlns:xlink="http://www.w3.org/1999/xlink" xmlns:xml="http://www.w3.org/XML/1998/namespace">
  <g>
    <circle fill="#FF7E00" cx="4.037" cy="1.786" r="1.786" class="color c1"/>
    <path fill="#FF7E00" d="M0.249,8.267c0,1.128,0.917,2.046,2.044,2.046c1.128,0,2.045-0.918,2.045-2.046
		c0-1.126-0.917-2.043-2.045-2.043C1.166,6.224,0.249,7.141,0.249,8.267z" class="color c1"/>
    <path fill="#FF7E00" d="M2.303,17.954c1.271,0,2.305-1.034,2.305-2.305c0-1.27-1.034-2.303-2.305-2.303
		C1.033,13.347,0,14.38,0,15.649C0,16.92,1.033,17.954,2.303,17.954z" class="color c1"/>
    <path fill="#FF7E00" d="M3.911,26.051c1.412,0,2.563-1.149,2.563-2.563s-1.15-2.563-2.563-2.563c-1.413,0-2.563,1.15-2.563,2.563
		S2.498,26.051,3.911,26.051z" class="color c1"/>
    <circle fill="#FF7E00" cx="6.955" cy="31.336" r="2.821" class="color c1"/>
    <circle fill="#FF7E00" cx="11.279" cy="38.752" r="3.08" class="color c1"/>
    <path fill="#FF7E00" d="M16.481,51.119c1.557,0,2.824-1.267,2.824-2.824c0-1.557-1.268-2.822-2.824-2.822
		c-1.556,0-2.823,1.266-2.823,2.822C13.658,49.853,14.926,51.119,16.481,51.119z" class="color c1"/>
    <path fill="#FF7E00" d="M17.578,55.251c-1.416,0-2.567,1.152-2.567,2.568c0,1.414,1.151,2.566,2.567,2.566s2.568-1.152,2.568-2.566
		C20.146,56.403,18.994,55.251,17.578,55.251z" class="color c1"/>
    <circle fill="#FF7E00" cx="15.705" cy="66.525" r="2.311" class="color c1"/>
    <path fill="#FF7E00" d="M11.998,71.563c-1.134,0-2.056,0.922-2.056,2.056c0,1.132,0.922,2.054,2.056,2.054
		c1.133,0,2.055-0.922,2.055-2.054C14.053,72.485,13.131,71.563,11.998,71.563z" class="color c1"/>
    <path fill="#FF7E00" d="M7.593,76.5c-0.992,0-1.8,0.807-1.8,1.799c0,0.99,0.808,1.799,1.8,1.799s1.799-0.809,1.799-1.799
		C9.392,77.307,8.585,76.5,7.593,76.5z" class="color c1"/>
  </g>
</svg>