<svg version="1.1" id="图层_1" x="0px" y="0px" width="40.579px" height="140.406px" viewBox="0 0 40.579 140.406" enable-background="new 0 0 40.579 140.406" xml:space="preserve" xmlns="http://www.w3.org/2000/svg" xmlns:xlink="http://www.w3.org/1999/xlink" xmlns:xml="http://www.w3.org/XML/1998/namespace">
  <path fill="#EADA6A" d="M39.984,36.212c-1.635,1.868-5.841,1.168-9.579-1.868c-3.736-3.039-5.605-7.01-3.971-8.879
	c1.636-1.869,5.841-1.168,9.578,1.869C39.75,30.138,41.62,34.108,39.984,36.212z M21.061,45.323l0.701-28.503
	c3.037-1.401,5.373-4.438,5.373-7.942C27.135,3.972,23.164,0,18.257,0c-4.672,0-8.644,3.972-8.644,8.644
	c-0.234,3.504,2.103,6.542,5.14,7.943l0.233,25.698C16.623,43.688,18.725,44.389,21.061,45.323z M18.492,140.406
	c0-3.737,0.7-21.025,0.467-21.493c-0.935-0.935-2.103-1.401-3.038-1.869l0.234,23.128L18.492,140.406z M8.913,132.696
	c-0.467,0-1.635-0.232-1.635,0.467c0,1.169-0.234,1.403,0.7,1.403c1.401,0,2.804,0.232,3.972,0.232v-2.335
	C11.015,132.696,10.081,132.696,8.913,132.696z M15.22,62.145c0,6.073,0.467,35.741,0.467,35.977
	c0.936,0.468,3.505,1.868,3.738,1.868l0.936-35.511l-0.702-0.232C18.257,63.545,16.623,63.078,15.22,62.145z M17.79,105.129
	c-3.971-2.103-9.578-3.972-10.512-8.878c-0.467-2.103-0.234-4.905,1.168-7.008c0-0.467,1.635-1.635,1.635-1.869v-1.168v-7.009
	C3.773,82.234-0.433,87.842,0.036,94.851c0.233,3.271,1.4,6.54,3.504,9.11c2.103,2.569,5.14,4.205,8.177,5.606
	c5.606,2.805,12.615,4.673,13.55,11.683c0,0.7,0,1.401,0,2.336c0,0.701-0.233,1.401-0.467,2.103
	c-0.234,0.467-1.168,1.401-1.168,1.868v4.438c6.074-3.27,8.177-10.745,5.605-17.054C27.369,110.269,22.462,107.465,17.79,105.129z
	 M29.938,56.069c-5.139-4.206-11.681-5.141-17.055-8.411c-2.803-1.868-4.905-4.204-5.139-7.709c0-1.168,0-2.104,0.233-3.271
	c0-0.701,0.468-1.401,0.701-2.103c0.467-0.468,0.935-0.936,0.935-1.401l-0.234-8.41C2.372,28.035-0.9,35.978,0.737,43.454
	c1.868,7.708,8.643,11.214,15.418,14.017c3.271,1.168,7.943,2.57,10.046,5.607c2.103,2.569,1.401,6.775-0.701,9.11
	c-0.935,0.701-0.467,3.271-0.467,4.438v4.674c3.271-1.403,6.073-3.506,7.942-6.543C36.713,68.451,35.545,60.274,29.938,56.069z" class="color c1"/>
</svg>