<svg version="1.1" id="图层_2_1_" x="0px" y="0px" width="186.616px" height="164.613px" viewBox="0 0 186.616 164.613" enable-background="new 0 0 186.616 164.613" xml:space="preserve" xmlns="http://www.w3.org/2000/svg" xmlns:xlink="http://www.w3.org/1999/xlink" xmlns:xml="http://www.w3.org/XML/1998/namespace">
  <path fill="#EE7E77" d="M175.641,78.448c-10.745,18.462-24.587,34.507-40.003,49.095c-12.586,11.91-25.988,22.956-39.045,34.366
	c-1.002,0.875-2.138,1.597-3.638,2.705c-8.794-7.411-17.739-14.603-26.295-22.231c-19.901-17.741-38.511-36.691-52.922-59.33
	C7.231,72.832,1.778,62.079,0.391,49.82c-1.342-11.866,0.698-23.173,7.205-33.335C16.498,2.586,34.675-3.304,52.208,1.838
	c12.151,3.563,21.79,10.952,30.613,20.235c-6.896,9.955-12.393,20.239-15.498,31.66c-2.485,9.138-3.741,18.299-0.418,27.558
	c5.241,14.602,18.773,23.001,32.395,19.442c12.427-3.247,19.08-12.255,21.656-24.345c2.271-10.659-0.374-20.911-4.46-30.627
	c-3.427-8.148-7.882-15.864-11.996-23.997c13.391-15.85,33.835-25.702,53.912-20.127c15.329,4.256,23.32,15.191,26.821,30.08
	C189.245,48.78,184.069,63.968,175.641,78.448z" class="color c1"/>
  <path fill="#DB4340" d="M81.689,86.93c6.709,7.082,16.353,7.146,23.144,0.163c4.316-4.438,6.561-9.738,6.33-15.632
	c-0.646-16.486-8.053-30.816-17.786-45.319c-9.138,13.262-15.652,26.377-17.659,41.063C74.723,74.488,76.3,81.241,81.689,86.93z" class="color c2"/>
</svg>