<svg version="1.1" id="图层_1" x="0px" y="0px" width="33.985px" height="149.169px" viewBox="0 0 33.985 149.169" enable-background="new 0 0 33.985 149.169" xml:space="preserve" xmlns="http://www.w3.org/2000/svg" xmlns:xlink="http://www.w3.org/1999/xlink" xmlns:xml="http://www.w3.org/XML/1998/namespace">
  <circle fill="#C4D280" cx="16.649" cy="4.302" r="4.301" class="color c1"/>
  <path fill="#C4D280" d="M22.948,144.47c0.076,2.514-1.896,4.617-4.408,4.696c-2.514,0.08-4.619-1.895-4.697-4.408
	c-0.08-2.513,1.895-4.617,4.408-4.695C20.765,139.984,22.866,141.957,22.948,144.47z" class="color c1"/>
  <path fill="#C4D280" d="M13.358,20.023c0.098,3.032-2.285,5.569-5.314,5.665c-3.033,0.097-5.57-2.283-5.668-5.317
	c-0.094-3.032,2.287-5.569,5.316-5.665C10.726,14.609,13.265,16.989,13.358,20.023z" class="color c1"/>
  <path fill="#C4D280" d="M31.892,128.22c0.102,3.197-2.41,5.872-5.605,5.973c-3.195,0.102-5.871-2.407-5.973-5.604
	c-0.102-3.198,2.412-5.873,5.604-5.975C29.114,122.513,31.792,125.022,31.892,128.22z" class="color c1"/>
  <circle fill="#C4D280" cx="6.075" cy="38.212" r="6.075" class="color c1"/>
  <circle fill="#C4D280" cx="27.836" cy="109.537" r="6.149" class="color c1"/>
  <circle fill="#C4D280" cx="9.585" cy="56.103" r="6.572" class="color c1"/>
  <path fill="#C4D280" d="M28.933,91.399c0.117,3.694-2.783,6.783-6.477,6.9c-3.691,0.117-6.783-2.781-6.9-6.478
	c-0.117-3.693,2.785-6.783,6.475-6.899C25.726,84.805,28.815,87.704,28.933,91.399z" class="color c1"/>
  <circle fill="#C4D280" cx="15.92" cy="73.685" r="7.675" class="color c1"/>
</svg>