<svg version="1.1" id="图层_1" x="0px" y="0px" width="123.541px" height="85.963px" viewBox="0 0 123.541 85.963" enable-background="new 0 0 123.541 85.963" xml:space="preserve" xmlns="http://www.w3.org/2000/svg" xmlns:xlink="http://www.w3.org/1999/xlink" xmlns:xml="http://www.w3.org/XML/1998/namespace">
  <path fill="#0C97D8" d="M122.745,24.668l-16.389-14.54c-1.416-1.254-3.267-0.862-4.105,0.82l-6.094,12.185L85.147,1.116
	C84.841,0.501,84.015,0,83.274,0H40.27c-0.728,0-1.558,0.483-1.875,1.116L27.386,23.137L21.29,10.949
	c-0.853-1.708-2.69-2.077-4.104-0.821L0.799,24.668c-0.698,0.619-0.993,1.87-0.667,2.771l0.961,2.648l0.017-0.015l19.853,53.889
	c0.407,1.104,1.698,2.002,2.881,2.002h75.848c1.189,0,2.476-0.896,2.883-2.002l19.854-53.889l0.018,0.015l0.963-2.648
	C123.739,26.528,123.425,25.271,122.745,24.668z M105.138,14.781l12.449,11.008H99.634L105.138,14.781z M18.403,14.781l5.504,11.008
	H5.955L18.403,14.781z M98.842,81.665H24.698L5.696,30.087h112.147L98.842,81.665z" class="color c1"/>
  <path fill="#0C97D8" d="M46.706,64.474h6.467v6.467c0,1.176,0.924,2.129,2.108,2.129h12.977c1.164,0,2.107-0.926,2.107-2.129v-6.467
	h6.467c1.176,0,2.13-0.925,2.13-2.109V49.388c0-1.164-0.929-2.107-2.13-2.107h-6.467v-6.466c0-1.176-0.925-2.129-2.107-2.129H55.282
	c-1.165,0-2.108,0.927-2.108,2.129v6.466h-6.467c-1.176,0-2.129,0.926-2.129,2.107v12.977
	C44.577,63.528,45.505,64.474,46.706,64.474z" class="color c1"/>
</svg>