<svg version="1.1" id="图层_1" x="0px" y="0px" width="200px" height="145.365px" viewBox="-29 -10.998 200 145.365" enable-background="new -29 -10.998 200 145.365" xml:space="preserve" xmlns="http://www.w3.org/2000/svg" xmlns:xlink="http://www.w3.org/1999/xlink" xmlns:xml="http://www.w3.org/XML/1998/namespace">
  <g>
    <polygon fill="#FF525B" points="108.13,61.787 83.374,61.787 83.374,37.029 58.619,37.029 58.619,61.787 33.862,61.787 
		33.862,86.543 58.619,86.543 58.619,111.299 83.374,111.299 83.374,86.543 108.13,86.543 	" class="color c1"/>
    <g>
      <g>
        <polygon fill="#FFFFFF" points="158.609,40.564 158.614,40.57 158.646,40.576 			" class="color c2"/>
        <path fill="#FFFFFF" d="M158.614,40.57c-8.466-2.883-17.063-5.285-25.732-7.297V11.414c-0.007-8.875-6.239-16.73-15.213-18.332
				c-15.275-2.668-30.859-4.08-46.678-4.08c-15.839,0-31.416,1.475-46.704,4.172C15.333-5.211,9.113,2.631,9.106,11.5v21.748
				c-8.702,2.025-17.316,4.439-25.771,7.336l-0.051,0.018c-7.718,2.742-12.291,10-12.285,17.516c0,2.4,0.47,5.439,1.46,7.779
				l24.392,57.781h0.006c2.978,6.189,10.038,10.738,17.138,10.689c1.893,0,3.807-0.572,5.67-1.129l0.105-0.178
				c16.196-5.168,33.712-7.844,51.22-7.844c17.521,0,35.03,2.57,51.22,7.732l0.101,0.012c1.868,0.563,3.781,0.828,5.676,0.824
				c7.104,0.049,14.16-4.055,17.144-11.277h0.006l24.385-57.188l0.013-0.025c0.997-2.363,1.467-4.84,1.467-7.26
				C171.006,50.412,166.326,43.176,158.614,40.57z M158.127,60.498l-24.372,57.164l-0.039,0.086
				c-0.965,2.32-3.063,3.609-5.723,3.658l-2.118-0.314v0.006c-17.471-5.559-36.175-8.318-54.878-8.324
				c-18.698,0-37.4,2.76-54.879,8.324v-0.006l-2.122,0.314c-2.668-0.049-4.76-1.338-5.726-3.658l-0.037-0.094l-24.385-57.186
				l-0.47-2.352c0.006-2.574,1.584-5.008,4.004-5.838c17.224-5.891,35.11-9.889,53.269-12.012c3.398-0.396,5.824-3.473,5.428-6.863
				c-0.396-3.398-3.473-5.824-6.863-5.428l0,0c-5.941,0.691-11.846,1.652-17.732,2.734V11.508c-0.012-3.047,2.192-5.689,4.96-6.141
				c14.629-2.582,29.483-3.984,44.554-3.984c15.089,0,29.948,1.342,44.549,3.891c2.767,0.445,4.971,3.096,4.964,6.141v19.311
				c-5.836-1.078-11.697-2.023-17.577-2.717c-3.397-0.402-6.474,2.029-6.869,5.42c-0.403,3.398,2.022,6.475,5.421,6.871
				c18.011,2.121,35.86,6.104,53.171,12l0.036,0.014c2.291,0.73,3.931,3.105,3.931,5.73L158.127,60.498z" class="color c2"/>
      </g>
    </g>
  </g>
</svg>