<svg version="1.1" id="图层_1" x="0px" y="0px" width="200px" height="200px" viewBox="0 0 200 200" enable-background="new 0 0 200 200" xml:space="preserve" xmlns="http://www.w3.org/2000/svg" xmlns:xlink="http://www.w3.org/1999/xlink" xmlns:xml="http://www.w3.org/XML/1998/namespace">
  <path fill="#FFFFFF" d="M30.193,91.506l6.183-33.398l-18.33,30.727c3.037,2.275,5.001,5.902,5.001,9.988
	c0,4.086-1.964,7.713-5.001,9.987L35.63,140.29l-5.437-34.149l64.961-7.316L30.193,91.506z M10.576,88.246
	c5.841,0,10.576,4.735,10.576,10.576c0,5.841-4.735,10.576-10.576,10.576C4.735,109.398,0,104.663,0,98.822
	C0,92.981,4.735,88.246,10.576,88.246z M98.823,23.047c-4.086,0-7.714-1.964-9.988-5.001l-30.728,18.33l33.399-6.184l7.316,64.962
	l7.317-64.962l34.146,5.438l-31.477-17.585C106.537,21.083,102.909,23.047,98.823,23.047z M98.823,0
	c5.841,0,10.575,4.735,10.575,10.576c0,5.841-4.734,10.576-10.575,10.576c-5.841,0-10.576-4.735-10.576-10.576
	C88.247,4.735,92.982,0,98.823,0z M101.177,104.846l-7.316,64.961l-34.147-5.438l31.476,17.584c2.275-3.037,5.902-5.002,9.988-5.002
	s7.713,1.965,9.987,5.002l30.729-18.33l-33.399,6.184L101.177,104.846z M101.177,178.848c5.841,0,10.576,4.735,10.576,10.576
	c0,5.842-4.735,10.576-10.576,10.576s-10.576-4.734-10.576-10.576C90.601,183.583,95.336,178.848,101.177,178.848z M181.954,91.188
	l-17.585-31.475l5.438,34.146l-64.961,7.316l64.961,7.316l-6.184,33.399l18.331-30.729c-3.037-2.275-5.002-5.902-5.002-9.988
	S178.917,93.463,181.954,91.188z M189.424,90.6c5.842,0,10.576,4.735,10.576,10.576c0,5.842-4.734,10.576-10.576,10.576
	c-5.841,0-10.576-4.734-10.576-10.576C178.848,95.335,183.583,90.6,189.424,90.6z" class="color c1"/>
</svg>