<svg version="1.1" id="图层_1" x="0px" y="0px" width="168.16px" height="199.08px" viewBox="0 0 168.16 199.08" enable-background="new 0 0 168.16 199.08" xml:space="preserve" xmlns="http://www.w3.org/2000/svg" xmlns:xlink="http://www.w3.org/1999/xlink" xmlns:xml="http://www.w3.org/XML/1998/namespace">
  <path fill="#2CABD5" d="M168.141,97.68h-7.69h-17.589c-2.355-0.113-4.238-2.034-4.269-4.411V80.3
	c0-5.657-4.604-10.261-10.262-10.261S118.07,74.643,118.07,80.3v38.056c0,2.475-2.014,4.487-4.488,4.487
	c-2.476,0-4.489-2.013-4.489-4.487v-29.96l-0.282-33.959c0-5.659-4.604-10.264-10.262-10.264s-10.262,4.604-10.262,10.271
	l0.284,38.056v61.273c0,2.475-2.014,4.487-4.489,4.487c-2.473,0-4.484-2.013-4.484-4.488l-0.085-93.242V45.306
	c0-5.656-4.603-10.259-10.261-10.259c-5.659,0-10.262,4.603-10.262,10.261l0.084,45.96l-0.218,42.265
	c0,2.475-2.013,4.488-4.486,4.488c-2.476,0-4.488-2.014-4.488-4.482l0.217-34.532V66.485c0-5.656-4.604-10.258-10.262-10.258
	s-10.261,4.602-10.261,10.258v25.862h-0.003v0.961c0,2.401-1.9,4.353-4.274,4.467H7.71C8.495,47.941,42.45,7.691,84.081,7.691
	c38.172,0,69.869,33.849,75.48,77.889c-0.003,0.063-0.019,0.122-0.019,0.186c0,2.164,1.754,3.918,3.918,3.918
	s3.918-1.754,3.918-3.918c0-0.388-0.074-0.756-0.18-1.11C161.111,36.808,126.169,0,84.081,0C38.217,0,0.818,43.7,0.019,97.775
	C0.011,98.363,0,98.95,0,99.54c0,1.343,0.029,2.678,0.074,4.008h7.694h17.316v0.021c0.144,0,0.283-0.016,0.426-0.021h0.578v-0.028
	c4.836-0.473,8.698-4.313,9.201-9.141h0.06V66.485c0-2.474,2.013-4.485,4.487-4.485s4.488,2.012,4.488,4.485V99l-0.217,34.532
	c0,5.658,4.604,10.261,10.262,10.261c5.657,0,10.26-4.603,10.26-10.256l0.218-42.266l-0.085-45.966c0-2.474,2.014-4.485,4.489-4.485
	c2.475,0,4.488,2.012,4.488,4.485v14.981l0.083,93.485c0,5.657,4.603,10.261,10.259,10.261c5.659,0,10.262-4.604,10.262-10.261
	v-61.28l-0.283-38.056c0-2.475,2.013-4.488,4.488-4.488s4.488,2.014,4.488,4.496l0.283,33.546v30.365
	c0,5.657,4.604,10.261,10.262,10.261s10.262-4.604,10.262-10.261V80.3c0-2.475,2.013-4.487,4.487-4.487
	c2.474,0,4.486,2.013,4.486,4.487v11.952h-0.004v0.961c0,0.025,0.004,0.05,0.004,0.074v0.879h0.045
	c0.446,4.829,4.251,8.694,9.052,9.238v0.049h0.734c0.143,0.006,0.283,0.021,0.427,0.021v-0.021h17.32
	c-1.712,48.837-35.284,87.937-76.314,87.937c-37.603,0-68.923-32.847-75.215-75.925c0.001-0.021,0.007-0.041,0.007-0.062
	c0-2.164-1.754-3.918-3.918-3.918s-3.918,1.754-3.918,3.918c0,0.486,0.1,0.947,0.263,1.378
	c6.919,46.692,41.389,82.299,82.781,82.299c45.255,0,82.266-42.548,84.008-95.627c0.044-1.299,0.071-2.603,0.071-3.913
	C168.16,98.918,168.15,98.299,168.141,97.68z" class="color c1"/>
</svg>