<svg version="1.1" id="图层_1" x="0px" y="0px" width="114.037px" height="168.184px" viewBox="0 0 114.037 168.184" enable-background="new 0 0 114.037 168.184" xml:space="preserve" xmlns:xml="http://www.w3.org/XML/1998/namespace" xmlns="http://www.w3.org/2000/svg" xmlns:xlink="http://www.w3.org/1999/xlink">
  <path fill="#FFFFFF" d="M78.788,83.32H43.343V42.907c-0.001-0.085-0.049-6.706,4.107-10.494c0.458-0.417,0.728-0.989,0.757-1.61
	c0.029-0.622-0.186-1.218-0.605-1.678c-0.483-0.529-1.201-0.844-1.922-0.844c-0.509,0-0.973,0.157-1.345,0.454
	c-0.046,0.032-0.09,0.065-0.133,0.105c-5.515,5.401-5.529,13.236-5.513,14.111v41.861c0,0.133,0.013,0.266,0.04,0.41v47.079
	c0,11.321,9.209,20.531,20.53,20.531s20.53-9.21,20.53-20.531V84.759V84.32v-1H78.788z M45.738,29.287
	c-0.022-0.001-0.046-0.005-0.068-0.005c0.003,0,0.006-0.001,0.009-0.001C45.699,29.281,45.719,29.286,45.738,29.287z M46.635,29.599
	c-0.026-0.019-0.055-0.035-0.083-0.052C46.58,29.565,46.608,29.58,46.635,29.599z M46.369,29.444
	c-0.034-0.016-0.068-0.03-0.103-0.044C46.301,29.414,46.334,29.428,46.369,29.444z M46.073,29.338
	c-0.035-0.009-0.069-0.019-0.104-0.026C46.004,29.319,46.038,29.329,46.073,29.338z M45.325,29.335
	c-0.026,0.008-0.052,0.017-0.078,0.027C45.273,29.352,45.298,29.343,45.325,29.335z" class="color c1"/>
  <path fill="#225B00" d="M6.752,88.325c-21.982,50.108,16.746,79.832,16.746,79.832s1.149,0.369,0.103-1.693
	c-0.741-0.882-1.694-2.044-2.748-3.507c-1.319-1.812-2.863-4.051-4.416-6.715c-1.558-2.662-3.146-5.742-4.576-9.208
	c-1.421-3.468-2.679-7.323-3.51-11.509c-0.813-4.187-1.196-8.705-0.805-13.398c0.176-2.347,0.592-4.729,1.21-7.116
	c0.611-2.388,1.467-4.773,2.563-7.112c1.094-2.339,2.404-4.644,3.985-6.831c0.405-0.542,0.797-1.092,1.217-1.628
	c0.431-0.529,0.843-1.068,1.292-1.59c0.457-0.519,0.887-1.037,1.368-1.557c0.451-0.48,0.854-0.941,1.348-1.44
	c1.91-1.981,3.862-3.842,5.947-5.653c1.919-1.676,3.955-3.254,6.049-4.754v-23.76C21.992,66.652,12.667,74.843,6.752,88.325z
	 M32.525,93.19c-0.114,0.098-0.231,0.192-0.347,0.295c-1.889,1.667-3.727,3.449-5.417,5.23l-1.316,1.404
	c-0.405,0.427-0.798,0.896-1.199,1.341c-0.399,0.452-0.761,0.922-1.143,1.38c-0.371,0.466-0.715,0.942-1.075,1.411
	c-1.38,1.904-2.594,3.877-3.608,5.902c-1.009,2.027-1.831,4.102-2.492,6.191c-0.657,2.092-1.105,4.203-1.428,6.305
	c-0.619,4.204-0.634,8.361-0.257,12.303c0.245,2.558,0.646,5.026,1.143,7.382c6.491-0.62,12.571-1.466,18.277-2.504
	c-0.736-2.438-1.138-5.023-1.138-7.702V93.19z M100.959,0c-0.888,17.266-7.032,27.825-15.89,35.223
	c0.572,2.17,0.881,4.447,0.881,6.797v15.52c1.566-1.25,2.91-2.459,4.011-3.553c1.583-1.613,2.782-2.932,3.54-3.863
	c0.768-0.933,1.178-1.43,1.178-1.43s-0.066,0.141-0.195,0.41c-0.137,0.268-0.308,0.678-0.59,1.19
	c-0.271,0.52-0.615,1.154-1.047,1.896c-0.214,0.373-0.465,0.764-0.723,1.186c-0.268,0.418-0.573,0.854-0.887,1.318
	c-1.273,1.793-2.953,3.934-5.287,6.146v57.771C138.702,77.477,100.959,0,100.959,0z M83.315,42.019
	c0-13.277-10.801-24.078-24.078-24.078S35.16,28.741,35.16,42.019v90.11c0,13.276,10.8,24.079,24.077,24.079
	s24.078-10.803,24.078-24.079V42.019z M59.258,151.833c-10.786,0-19.53-8.745-19.53-19.531V85.12c-0.023-0.1-0.04-0.201-0.04-0.308
	v-41.88c-0.006-0.313-0.131-8.146,5.191-13.357c0.019-0.018,0.04-0.027,0.059-0.043c3.567-3.846,8.661-6.255,14.32-6.255
	c10.788,0,19.53,8.743,19.53,19.53v41.512v0.438v47.543C78.788,143.088,70.046,151.833,59.258,151.833z" class="color c2"/>
  <path fill="#00D174" d="M46.862,29.799c0.494,0.542,0.456,1.382-0.087,1.875c-4.518,4.118-4.435,11.163-4.433,11.233v41.412h36.445
	V42.808c0-10.787-8.742-19.53-19.53-19.53c-5.659,0-10.753,2.409-14.32,6.255C45.472,29.083,46.385,29.274,46.862,29.799z" class="color c3"/>
</svg>