<svg version="1.1" id="图层_1" x="0px" y="0px" width="131.488px" height="154.074px" viewBox="0 0 131.488 154.074" enable-background="new 0 0 131.488 154.074" xml:space="preserve" xmlns="http://www.w3.org/2000/svg" xmlns:xlink="http://www.w3.org/1999/xlink" xmlns:xml="http://www.w3.org/XML/1998/namespace">
  <path fill="#050505" d="M112.361,2.333c-0.133-0.095-0.234-0.143-0.234-0.143s-4.131-1.748-5.338-2.054
	c-0.965-0.25-2.02-0.131-3.022,0.201c-0.066,0.018-0.129,0.04-0.193,0.063c-0.037,0.013-0.082,0.025-0.111,0.04
	c-0.012,0.003-0.024,0.013-0.037,0.013c-2.403,0.886-4.114,3.192-4.114,5.897c0,2.944,2.022,5.406,4.758,6.087
	c1.225,0.328,2.559,0.304,3.84-0.18c0,0,3.15-1.33,3.926-1.559c0.193-0.058,0.355-0.125,0.494-0.201
	c6.377,1.466,11.144,7.17,11.144,13.996v19.464c0,3.973-1.607,7.563-4.216,10.167l-3.608,3.612l-0.021-0.025
	c-8.364,6.772-19.03,10.831-30.641,10.831c-11.703,0-22.449-4.125-30.851-11.008l-0.004,0.01l-3.418-3.422
	c-2.604-2.604-4.213-6.194-4.213-10.167V24.493c0-6.827,4.767-12.53,11.146-13.997c0.137,0.076,0.297,0.145,0.494,0.201
	c0.774,0.229,3.928,1.56,3.928,1.56c1.279,0.483,2.613,0.507,3.84,0.18c2.732-0.681,4.758-3.142,4.758-6.088
	c0-2.706-1.715-5.009-4.11-5.896c-0.017,0-0.029-0.009-0.041-0.012c-0.037-0.016-0.078-0.028-0.111-0.04
	c-0.063-0.024-0.129-0.045-0.191-0.064c-1.01-0.333-2.063-0.452-3.03-0.201c-1.203,0.306-5.33,2.055-5.33,2.055
	s-0.104,0.048-0.234,0.142c-10.829,1.581-19.141,10.901-19.141,22.16v19.463c0,5.943,2.315,11.353,6.096,15.361l34.955,34.957
	c0.795,0.879,1.318,2.002,1.438,3.24v34.158c0,7.943-6.442,14.385-14.381,14.385c-7.94,0-14.379-6.44-14.379-14.385v-25.308
	c0-12.372-10.029-22.397-22.401-22.397c-9.312,0-17.289,5.676-20.673,13.762C3.863,99.208,0,104.041,0,109.78
	c0,6.913,5.604,12.52,12.519,12.52s12.52-5.604,12.52-12.52c0-5.021-2.955-9.347-7.219-11.343c2.57-3.886,6.969-6.455,11.979-6.455
	c7.941,0,14.379,6.436,14.379,14.381v25.308c0,12.373,10.029,22.403,22.404,22.403c12.373,0,22.398-10.03,22.398-22.403V98.043
	c0-1.451,0.557-2.773,1.461-3.771l34.957-34.958c3.778-4.007,6.092-9.417,6.092-15.361v-19.46
	C131.49,13.234,123.18,3.914,112.361,2.333z M88.902,84.479c-1.008,0.979-2.394,1.597-3.918,1.597c-1.529,0-2.914-0.619-3.937-1.607
	L69.02,72.432c5.053,1.535,10.403,2.375,15.961,2.375c5.553,0,10.918-0.838,15.973-2.375L88.902,84.479z" class="color c1"/>
</svg>