<svg version="1.1" id="图层_1" x="0px" y="0px" width="199.001px" height="189.298px" viewBox="0 0 199.001 189.298" enable-background="new 0 0 199.001 189.298" xml:space="preserve" xmlns="http://www.w3.org/2000/svg" xmlns:xlink="http://www.w3.org/1999/xlink" xmlns:xml="http://www.w3.org/XML/1998/namespace">
  <polygon fill="#06AEDA" points="99.914,0 98.399,1.169 82.16,13.004 79.271,15.069 82.16,17.202 145.466,63.306 125.236,125.579 
	124.134,129.021 127.713,129.021 147.875,129.021 149.732,129.021 150.352,127.23 173.541,55.943 174.091,54.153 172.578,53.053 
	101.427,1.169 " class="color c1"/>
  <polygon fill="#05A2D2" points="74.316,18.854 72.802,19.955 1.514,71.563 0,72.732 0.55,74.522 6.743,93.651 7.845,97.022 
	10.734,94.958 74.177,48.855 127.231,87.389 130.121,89.453 131.222,86.082 137.416,66.952 137.965,65.163 136.453,63.993 
	75.83,19.955 " class="color c2"/>
  <polygon fill="#049CCD" points="73.351,55.667 71.838,56.769 11.147,100.807 9.633,101.978 10.185,103.766 37.227,187.51 
	37.846,189.298 39.703,189.298 59.866,189.298 63.444,189.298 62.342,185.857 38.189,111.404 91.174,72.87 94.064,70.736 
	91.174,68.604 74.866,56.769 " class="color c3"/>
  <polygon fill="#017AB6" points="178.289,56.975 177.188,60.347 152.966,134.869 87.458,134.869 83.88,134.869 84.981,138.31 
	91.244,157.508 91.863,159.297 93.72,159.297 168.656,159.297 170.513,159.297 171.132,157.508 198.451,73.833 199.001,72.045 
	197.487,70.874 181.179,59.039 " class="color c4"/>
  <polygon fill="#038DC3" points="65.646,99.226 62.755,101.289 46.447,113.125 44.933,114.295 45.484,116.084 68.605,187.372 
	69.224,189.16 71.082,189.16 159.091,189.298 160.949,189.298 161.568,187.51 167.83,168.379 168.931,164.939 165.353,164.939 
	86.976,164.939 66.746,102.597 " class="color c5"/>
</svg>