<svg version="1.1" id="图层_1" x="0px" y="0px" width="73.4px" height="73.4px" viewBox="0 0 73.4 73.4" enable-background="new 0 0 73.4 73.4" xml:space="preserve" xmlns="http://www.w3.org/2000/svg" xmlns:xlink="http://www.w3.org/1999/xlink" xmlns:xml="http://www.w3.org/XML/1998/namespace">
  <path fill="#9B0B11" d="M73.4,36.7c0,5.1-4.1,9.2-9.2,9.2H55c-5.1,0-9.2,4.1-9.2,9.2v9.2c0,5.1-4.1,9.2-9.2,9.2s-9.2-4.1-9.2-9.2
	v-9.2c0-5.1-4.1-9.2-9.2-9.2h-9c-5.1,0-9.2-4.1-9.2-9.2s4.1-9.2,9.2-9.2h9.2c5.1,0,9.2-4.1,9.2-9.2V9.2c0-5.1,4.1-9.2,9.2-9.2
	S46,4.1,46,9.2v9.2c0,5.1,4.1,9.2,9.2,9.2h9.2C69.3,27.5,73.4,31.6,73.4,36.7z" class="color c1"/>
</svg>