<svg version="1.1" id="图层_1" x="0px" y="0px" width="82.939px" height="77.02px" viewBox="0 0 82.939 77.02" enable-background="new 0 0 82.939 77.02" xml:space="preserve" xmlns="http://www.w3.org/2000/svg" xmlns:xlink="http://www.w3.org/1999/xlink" xmlns:xml="http://www.w3.org/XML/1998/namespace">
  <path fill="#B20910" d="M59.955,0c-7.995,0-14.45,5.228-18.447,11.529C37.511,5.381,31.054,0,23.06,0C10.301,0,0,10.301,0,23.061
	c0,3.383,0.461,9.684,3.689,14.143c0.152,0,0.152,0.154,0.307,0.154l2.308,2.613h8.916l6.765-13.684
	c0.461-1.074,1.536-1.688,2.612-1.688s2.152,0.614,2.769,1.536L41.2,49.962l14.45-34.28c0.461-0.925,1.229-1.693,2.307-1.847
	c1.076-0.153,2.152,0.152,2.769,1.076l20.941,14.02c0.651-2.273,1.11-4.783,1.272-7.646C82.036,9.359,72.116,0,59.955,0z
	 M44.429,58.263c-0.464,1.075-1.539,1.844-2.615,1.844H41.66c-1.076,0-2.152-0.613-2.613-1.535L25.058,34.281l-5.073,10.3
	c-0.461,1.076-1.537,1.691-2.768,1.691h-5.533l21.521,25.059c3.843,4.764,6.765,5.688,8.454,5.688c0.154,0,0.154,0,0.308,0
	c1.691,0,4.459-0.925,8.302-5.688l19.828-22.936c2.92-4.424,6.472-8.295,9.11-13.333L59.494,22.754L44.429,58.263z" class="color c1"/>
</svg>