<svg version="1.1" id="图层_1" x="0px" y="0px" width="81.795px" height="99.715px" viewBox="0 0 81.795 99.715" enable-background="new 0 0 81.795 99.715" xml:space="preserve" xmlns="http://www.w3.org/2000/svg" xmlns:xlink="http://www.w3.org/1999/xlink" xmlns:xml="http://www.w3.org/XML/1998/namespace">
  <path fill="#FFFFFF" d="M9.786,55.383c-1.988,43.369,13.77,44.169,13.77,44.169c0.277,0.112,0.531,0.163,0.764,0.163
	c2.328,0,2.508-5.11,2.508-5.111c0.135-5.027,0.447-8.157,1.354-13.115c0.939-5.112,3.377-12.839,10.615-14.611
	c1.477-0.362,2.674-0.354,4.141-0.017c7.287,1.687,9.736,9.5,10.678,14.628c0.91,4.959,1.221,8.088,1.354,13.115
	c0,0.001,0.182,5.111,2.506,5.111c0.234,0,0.488-0.051,0.766-0.163c0,0,15.758-0.8,13.77-44.169
	c-0.172-3.691,0.002-7.002,2.051-10.197c6.465-10.086,11.254-25.03,4.365-36.223c-2.039-3.311-5.57-6.009-9.063-7.657
	C67.423,0.39,65.265,0,63.067,0c-4.033,0-8.211,1.313-11.484,3.102c-3.23,1.768-6.574,2.528-9.922,2.528
	c-4.227,0-8.461-1.216-12.484-3.144c-1.893-0.907-4.111-1.926-6.209-2.208c-1.072-0.144-2.283-0.233-3.539-0.233
	c-2.445,0-5.037,0.338-6.994,1.261C8.94,2.954,5.411,5.652,3.372,8.963C-3.519,20.154,1.271,35.1,7.737,45.186
	C9.784,48.381,9.958,51.69,9.786,55.383z" class="color c1"/>
  <path fill="#00AEEF" d="M64.44,24.496c0.365,0.228,0.854-0.031,0.854-0.465c0-0.003,0-0.007,0-0.01c0-2.6-2.105-4.706-4.705-4.706
	c-2.598,0-4.703,2.106-4.703,4.706c0,0.003,0,0.007,0,0.01c0,0.434,0.488,0.692,0.855,0.465c1.119-0.691,2.438-1.09,3.848-1.09
	C62.001,23.406,63.317,23.805,64.44,24.496z" class="color c2"/>
  <path fill="#00AEEF" d="M25.054,24.496c0.367,0.228,0.852-0.031,0.855-0.465c0-0.003,0-0.007,0-0.01c0-2.6-2.107-4.706-4.707-4.706
	c-2.598,0-4.703,2.106-4.703,4.706c0,0.003,0,0.007,0,0.01c0,0.434,0.486,0.692,0.857,0.465c1.117-0.691,2.434-1.09,3.846-1.09
	C22.616,23.406,23.933,23.805,25.054,24.496z" class="color c2"/>
  <path fill="#00AEEF" d="M22.687,34.483c-1.137,0.385-1.785,1.623-1.344,2.741c2.654,6.712,10.428,12.367,19.555,12.367
	c9.125,0,16.9-5.655,19.555-12.367c0.439-1.118-0.209-2.356-1.346-2.741C48.106,30.761,33.687,30.761,22.687,34.483z" class="color c2"/>
</svg>