<svg version="1.1" id="图层_1" x="0px" y="0px" width="116.867px" height="189.969px" viewBox="0 0 116.867 189.969" enable-background="new 0 0 116.867 189.969" xml:space="preserve" xmlns="http://www.w3.org/2000/svg" xmlns:xlink="http://www.w3.org/1999/xlink" xmlns:xml="http://www.w3.org/XML/1998/namespace">
  <path fill="#F65252" d="M116.438,123.397c-1.215-10.663-5.002-20.674-8.975-30.552C96.296,65.081,69.72,16.607,60.908,0.929
	C60.692,0.544,60.403,0.251,60.09,0c1.124,4.913,1.792,10.444,1.738,16.675c-0.218,24.947-8.697,36.955-9.115,51.002
	c2.319,1.434,7.677,2.257,9.792,1.618c-1.861,1.154-6.387,2.753-9.73,1.728c0.326,4.988,1.756,10.353,4.973,16.718
	c0.589,1.166,0.697,2.551,0.139,3.733c-2.505,5.309-11.578,1.027-13.467,4.385c-3.214,5.712,4.875,10.271,1.121,14.919
	c-3.292,4.076-7.894,2.301-9.015,1.782c0.876,0.468,3.652,2.361,1.52,6.738c-1.957,4.016-5.18-0.148-7.069,5.917
	c-1.283,4.119,0.113,12.075-8.88,16.837c-4.961,2.628-14.24-1.417-22.096-5.05c0.264,2.109,0.653,4.23,1.22,6.369
	c6.008,22.689,19.773,38.397,42.62,44.444c22.232,5.884,41.714-0.431,57.22-17.337C113.173,157.272,118.487,141.371,116.438,123.397
	z M101.691,142.549c-2.39,8.6-7.427,15.33-14.919,20.098c-4.62,2.94-9.62,3.672-14.73,1.07c-2.392-1.218-3.795-4.105-3.02-6.667
	c0.459-1.517,1.166-3.183,2.281-4.228c2.248-2.107,4.706-4.074,7.34-5.664c3.834-2.314,7.015-5.191,9.464-8.914
	c4.208-6.395,6.632-13.513,8.189-20.92c1.153-5.484,1.929-11.047,2.867-16.538c0.125,0.372,0.338,0.843,0.44,1.338
	c1.093,5.309,2.428,10.585,3.189,15.942C103.956,126.261,103.933,134.482,101.691,142.549z" class="color c1"/>
</svg>