<svg version="1.1" id="图层_1" x="0px" y="0px" width="155.008px" height="155.007px" viewBox="0 0 155.008 155.007" enable-background="new 0 0 155.008 155.007" xml:space="preserve" xmlns="http://www.w3.org/2000/svg" xmlns:xlink="http://www.w3.org/1999/xlink" xmlns:xml="http://www.w3.org/XML/1998/namespace">
  <path fill="#F9002C" d="M45.252,54.986v45.035H34.26H24.039c-0.438,0-0.904-0.091-1.387-0.091C10.162,99.93,0,89.827,0,77.337
	c0-12.425,10.053-22.395,22.449-22.506c0.068,0.002,0.139,0.155,0.207,0.155H34.26H45.252z M100.678,31.303v-8.651
	c0-0.066-0.092-0.135-0.096-0.2C100.475,10.053,90.256,0,77.836,0C65.342,0,55.404,10.163,55.404,22.655
	c0,0.483,0.238,0.948,0.238,1.385v7.263v15.021h45.035V31.303z M100.678,94.116v5.904H55.643v-5.902V61.346v-6.36h45.035v6.358
	V94.116z M68.098,92.069c0-2.555-2.07-4.627-4.627-4.627s-4.629,2.072-4.629,4.627c0,2.559,2.072,4.629,4.629,4.629
	S68.098,94.628,68.098,92.069z M68.098,77.505c0-2.555-2.07-4.628-4.627-4.628s-4.629,2.073-4.629,4.628
	c0,2.557,2.072,4.629,4.629,4.629S68.098,80.062,68.098,77.505z M68.098,63.851c0-2.556-2.07-4.629-4.627-4.629
	s-4.629,2.073-4.629,4.629c0,2.555,2.072,4.628,4.629,4.628S68.098,66.406,68.098,63.851z M82.207,92.069
	c0-2.555-2.07-4.627-4.627-4.627c-2.555,0-4.627,2.072-4.627,4.627c0,2.559,2.072,4.629,4.627,4.629
	C80.137,96.698,82.207,94.628,82.207,92.069z M82.207,77.505c0-2.555-2.07-4.628-4.627-4.628c-2.555,0-4.627,2.073-4.627,4.628
	c0,2.557,2.072,4.629,4.627,4.629C80.137,82.134,82.207,80.062,82.207,77.505z M82.207,63.851c0-2.556-2.07-4.629-4.627-4.629
	c-2.555,0-4.627,2.073-4.627,4.629c0,2.555,2.072,4.628,4.627,4.628C80.137,68.479,82.207,66.406,82.207,63.851z M96.775,92.069
	c0-2.555-2.074-4.627-4.629-4.627c-2.559,0-4.629,2.072-4.629,4.627c0,2.559,2.07,4.629,4.629,4.629
	C94.701,96.698,96.775,94.628,96.775,92.069z M96.775,77.505c0-2.555-2.074-4.628-4.629-4.628c-2.559,0-4.629,2.073-4.629,4.628
	c0,2.557,2.07,4.629,4.629,4.629C94.701,82.134,96.775,80.062,96.775,77.505z M96.775,63.851c0-2.556-2.074-4.629-4.629-4.629
	c-2.559,0-4.629,2.073-4.629,4.629c0,2.555,2.07,4.628,4.629,4.628C94.701,68.479,96.775,66.406,96.775,63.851z M119.381,100.021
	h11.586c0.439,0,0.906-0.091,1.389-0.091c12.492,0,22.652-10.155,22.652-22.646c0-12.424-10.053-22.312-22.451-22.42
	c-0.066,0.001-0.133,0.123-0.201,0.123h-12.975H109.34v45.035H119.381z M55.643,122.339v8.628c0,0.438-0.186,0.901-0.186,1.385
	c0,12.493,9.766,22.655,22.256,22.655c12.428,0,22.65-10.053,22.762-22.452c-0.004-0.065,0.203-0.134,0.203-0.203v-10.013v-13.656
	H55.643V122.339z" class="color c1"/>
</svg>