<svg version="1.1" id="图层_1" x="0px" y="0px" width="83.008px" height="80.929px" viewBox="0 0 83.008 80.929" enable-background="new 0 0 83.008 80.929" xml:space="preserve" xmlns="http://www.w3.org/2000/svg" xmlns:xlink="http://www.w3.org/1999/xlink" xmlns:xml="http://www.w3.org/XML/1998/namespace">
  <path fill="#FFFFFF" d="M82.979,21.851c-0.109-1.395-0.167-2.139-0.167-2.139l-0.008,0.001C81.723,6.892,69.345-2.295,56.424,0.528
	c-1.5,0.328-2.612,0.607-3.097,0.799c-0.04,0.015-0.075,0.031-0.114,0.047c-7.553,3.145-15.981,3.145-23.534,0
	c-0.041-0.016-0.078-0.032-0.117-0.047c-0.491-0.196-1.641-0.482-3.185-0.819C12.738-2.465-0.286,7.98,0.005,21.938
	c0.05,2.367,0.277,4.791,0.656,7.244c0,0,0.072,0.742,0.26,2.131c0.194,1.387,0.504,3.424,1.088,5.98
	c0.584,2.555,1.401,5.643,2.59,9.106c1.177,3.462,2.683,7.321,4.615,11.399c1.925,4.082,4.218,8.419,7.099,12.767
	c1.44,2.171,3.001,4.358,4.878,6.463c0.962,1.046,1.937,2.089,3.356,2.999c0.363,0.225,0.757,0.446,1.285,0.616
	c0.122,0.043,0.274,0.079,0.425,0.11c0.141,0.034,0.313,0.054,0.493,0.063c0.165,0.017,0.372,0.002,0.574-0.024
	c0.115-0.022-0.045,0.023,0.295-0.058l0.06-0.018l0.128-0.037l0.135-0.04l0.278-0.118c0.176-0.079,0.391-0.188,0.487-0.268
	c0.124-0.086,0.25-0.176,0.367-0.266l0.304-0.286c0.375-0.387,0.658-0.791,0.879-1.18c0.862-1.568,1.183-3.052,1.479-4.539
	c0.276-1.482,0.439-2.958,0.558-4.438c0.109-1.479,0.173-2.961,0.189-4.45l0.054-1.01l0.12-0.833c0.078-0.297,0.136-0.6,0.223-0.895
	c0.105-0.289,0.178-0.589,0.303-0.871c0.919-2.281,2.758-4.217,5.033-5.108c0.568-0.213,1.154-0.391,1.757-0.481l0.454-0.066
	l0.105-0.016l0.053-0.001l0.277-0.011l0.557-0.023h0.023l0.074,0.003l0.278,0.013l0.534,0.026l0.116,0.017l0.278,0.042l0.547,0.085
	l0.39,0.109c0.254,0.051,0.543,0.161,0.828,0.268c0.293,0.089,0.559,0.246,0.837,0.371c2.2,1.077,3.883,3.178,4.611,5.545
	c0.188,0.594,0.299,1.205,0.377,1.821l0.05,0.929l0.004,1.108c0.006,1.478,0.011,2.951,0.019,4.418
	c0.002,0.74,0.027,1.557,0.093,2.341c0.063,0.787,0.172,1.585,0.345,2.393c0.184,0.807,0.417,1.628,0.823,2.458
	c0.404,0.82,0.984,1.688,1.901,2.346c0.449,0.322,0.982,0.582,1.526,0.719l0.202,0.057l0.102,0.027
	c0.382,0.062,0.145,0.021,0.246,0.035l0.132,0.012l0.086,0.006h0.18c0.556-0.012,0.815-0.107,1.106-0.188
	c1.063-0.383,1.724-0.898,2.361-1.399c1.246-1.024,2.236-2.118,3.188-3.228c3.726-4.453,6.505-9.182,8.969-13.749
	c2.446-4.574,4.417-9.066,6-13.297c1.605-4.224,2.771-8.205,3.604-11.776c0.842-3.569,1.298-6.738,1.538-9.353
	C83.037,25.319,83.031,23.262,82.979,21.851z M53.176,10.706c-3.151,1.153-6.687,2.48-9.388,3.578
	c-6.123,2.491-8.45-2.142-20.872-10.56c-0.538-0.343-0.827-0.56-0.827-0.56c0.284,0.189,0.555,0.375,0.827,0.56
	c2.237,1.42,8.791,5.014,16.976,4.341c4.462-0.366,9.037-0.431,12.763-0.387C54.392,7.698,54.804,10.108,53.176,10.706z" class="color c1"/>
</svg>