<svg version="1.1" id="图层_2_1_" x="0px" y="0px" width="159.904px" height="123.679px" viewBox="0 0 159.904 123.679" enable-background="new 0 0 159.904 123.679" xml:space="preserve" xmlns="http://www.w3.org/2000/svg" xmlns:xlink="http://www.w3.org/1999/xlink" xmlns:xml="http://www.w3.org/XML/1998/namespace">
  <path fill="#EE7E77" d="M158.349,109.422c-7.355,6.736-15.996,11.155-25.458,14.095c-1.369,0.426-2.36,0-3.102-1.153
	c-0.872-1.355-1.729-2.72-2.59-4.082c-3.954-6.254-9.268-11.139-16.029-13.976c-7.349-3.083-14.858-5.988-22.552-7.996
	c-10.057-2.625-20.354-4.344-30.566-6.362c-10.931-2.159-12.938-3.347-18.95-12.829c-5.177-8.165-10.124-16.475-15.178-24.718
	c-0.943-1.54-1.913-3.064-2.87-4.595c0.385,0.021,0.593,0.186,0.793,0.361c5.33,4.655,10.583,9.404,16.026,13.923
	c2.322,1.928,4.951,3.542,7.604,5.002c3.52,1.938,7.154,3.69,10.822,5.336c7.602,3.411,15.266,6.685,22.889,10.05
	c1.311,0.579,2.524,1.381,3.835,1.959c0.376,0.166,1.255,0.044,1.349-0.18c0.18-0.428,0.14-1.156-0.131-1.518
	c-0.394-0.525-1.032-0.917-1.639-1.222c-1.9-0.954-3.826-1.856-5.755-2.749c-10.583-4.898-21.231-9.664-31.73-14.736
	c-4.888-2.361-8.81-6.188-12.88-9.729c5.202-6.379,4.68-8.527-3.382-15.22c2.179,0.603,4.475,0.945,6.516,1.859
	c6.659,2.98,13.23,6.156,19.824,9.28c5.476,2.594,11.106,4.28,17.293,3.954c6.546-0.345,13.116-0.618,19.665-0.466
	c16.32,0.379,29.637,6.672,38.993,20.474c1.376,2.03,2.943,4.003,4.732,5.67c8.272,7.709,16.078,15.833,22.892,24.878
	C160.364,106.849,160.327,107.61,158.349,109.422z" class="color c1"/>
  <path fill="#EE7E77" d="M29.838,36.09C24.649,29.2,19.517,22.265,14.22,15.458c-2.222-2.855-5.068-5.09-8.773-5.704
	c-1.365-0.226-2.842,0.03-4.238,0.252c-1.129,0.18-1.508,0.966-0.963,2.055c0.489,0.976,0.942,1.975,1.488,2.919
	c5.182,8.961,10.38,17.913,15.577,26.865c0.167,0.288,0.377,0.55,0.619,0.9c1.085-4.682,3.184-5.648,12.337-5.742
	C30.11,36.662,30.025,36.338,29.838,36.09z" class="color c1"/>
  <path fill="#EE7E77" d="M18.875,13.906c0.449,3.232,1.773,5.931,3.796,8.484c3.43,4.33,6.742,8.768,9.846,13.336
	c1.456,2.141,3.236,3.259,6.06,3.64c-1.572-4.545-2.995-8.908-4.588-13.207c-2.076-5.606-4.159-11.216-6.498-16.715
	c-1.044-2.454-2.575-4.746-4.17-6.902c-0.766-1.035-2.101-1.818-3.34-2.294c-2.012-0.774-3.31,0.322-2.993,2.441
	C17.55,6.438,18.353,10.152,18.875,13.906z" class="color c1"/>
  <path fill="#EE7E77" d="M39.748,36.571c0.944,2.649,2.128,4.632,4.877,5.694c2.271,0.877,4.368,2.203,6.784,3.456
	c-0.201-0.429-0.231-0.608-0.337-0.701c-3.578-3.135-4.973-7.402-6.482-11.734c-2.566-7.369-5.498-14.611-8.35-21.877
	c-0.561-1.429-1.266-2.888-2.249-4.04c-0.845-0.991-2.12-1.692-3.327-2.262c-0.549-0.26-1.393,0.105-2.103,0.186
	c0.096,0.632,0.086,1.304,0.303,1.891C32.494,16.979,36.24,26.732,39.748,36.571z" class="color c1"/>
  <path fill="#EE7E77" d="M47.816,35.791c0.796,2.269,1.858,4.295,3.571,6.008c1.218,1.218,2.459,2.466,3.408,3.888
	c2.31,3.464,5.998,4.338,9.735,5.311c-1.065-1.11-2.216-2.149-3.174-3.344c-1.572-1.96-3.23-3.897-4.477-6.06
	c-3.733-6.472-7.273-13.055-10.915-19.58c-0.991-1.775-2.279-3.265-4.597-4.016c0.271,0.806,0.449,1.378,0.655,1.94
	C43.959,25.22,45.954,30.482,47.816,35.791z" class="color c1"/>
  <path fill="#EE7E77" d="M29.288,51.778c0.804,0.762,1.612,0.631,2.215-0.16c0.784-1.025,1.426-2.158,2.124-3.237
	c-0.335-0.906-0.471-1.668-0.861-2.265c-2.078-3.183-5.023-5.115-8.77-5.776c-1.347-0.238-2.737,0.026-3.147,1.403
	c-0.229,0.77,0.174,2.073,0.762,2.681C24.074,46.969,26.716,49.339,29.288,51.778z" class="color c1"/>
</svg>