<svg version="1.1" id="图层_1" x="0px" y="0px" width="162.404px" height="297.522px" viewBox="0 0 162.404 297.522" enable-background="new 0 0 162.404 297.522" xml:space="preserve" xmlns="http://www.w3.org/2000/svg" xmlns:xlink="http://www.w3.org/1999/xlink" xmlns:xml="http://www.w3.org/XML/1998/namespace">
  <path fill="#F41812" d="M80.924,41.33c6.309,37.042,46.27,82.155,63.409,124.986c5.095,12.734,9.952,25.64,11.511,39.385
	c2.627,23.171-4.188,43.669-19.723,60.697c-19.886,21.795-44.873,29.936-73.386,22.35c-29.302-7.796-46.957-28.045-54.662-57.295
	c-4.675-17.748-0.819-34.636,5-51.345C29.136,135.461,76.47,77.476,80.924,41.33z" class="color c1"/>
  <path fill="#FFFFFF" d="M80.924,41.33c6.309,37.042,46.27,82.155,63.409,124.986c5.095,12.734,9.952,25.64,11.511,39.385
	c2.627,23.171-4.188,43.669-19.724,60.697c-15.01,16.451-32.931,25.124-53.076,25.124c-6.544,0-13.319-0.914-20.31-2.774
	c-29.302-7.795-46.957-28.045-54.662-57.295c-4.675-17.748-0.819-34.636,5-51.345C29.136,135.461,76.47,77.476,80.924,41.33
	 M79.97,0l-5.002,40.596c-2.349,19.068-18.526,46.508-34.171,73.044c-12.852,21.799-26.141,44.341-33.371,64.437l-0.01,0.029
	l-0.01,0.029C1.892,193.967-3.03,212.864,2.27,232.982c4.17,15.83,11.117,29.038,20.646,39.257
	c9.979,10.701,22.857,18.206,38.275,22.308c7.422,1.974,14.774,2.976,21.852,2.976c21.765,0,41.114-9.111,57.509-27.08
	c16.922-18.546,24.072-40.555,21.253-65.417c-1.636-14.426-6.564-27.597-11.902-40.939c-7.515-18.781-19.216-37.841-30.531-56.272
	c-14.973-24.389-29.115-47.425-32.533-67.492L79.97,0L79.97,0z" class="color c2"/>
  <g>
    <path fill="#FFFFFF" d="M81.179,273.159c-32.295-0.008-58.612-26.335-58.606-58.63c0.006-32.299,26.324-58.609,58.625-58.606
		c32.292,0.003,58.615,26.332,58.611,58.625C139.805,246.836,113.466,273.167,81.179,273.159z M52.976,213.011
		c-0.325,0.805-0.525,1.542-0.898,2.177c-0.731,1.245-0.726,2.446,0.079,3.603c0.238,0.342,0.688,0.641,1.095,0.742
		c1.069,0.264,2.19,0.331,3.247,0.629c0.632,0.178,1.096,0.199,1.513-0.326c0.687-0.865,1.572-1.175,2.654-0.973
		c3.379,0.629,6.761,1.237,10.134,1.899c0.341,0.067,0.7,0.38,0.919,0.677c1.719,2.33,4,3.72,6.845,4.207
		c0.035,0.006,0.067,0.031,0.102,0.035c1.856,0.21,3.08,1.209,3.623,2.988c0.821,2.691,2.695,3.629,5.413,3.833
		c3.533,0.265,7.006,1.059,10.468,2.547c-0.251,1.314-0.185,2.857-0.831,3.997c-2.128,3.756-3.947,7.644-5.653,11.597
		c-0.145,0.336-0.539,0.661-0.891,0.795c-1.374,0.52-2.786,0.939-4.165,1.448c-0.333,0.123-0.617,0.423-0.879,0.686
		c-0.346,0.349-0.599,0.803-0.976,1.108c-4.081,3.291-8.158,6.59-12.289,9.818c-0.95,0.742-0.395,1.466-0.27,2.214
		c0.109,0.651,0.323,1.163,1.177,1.275c5.268,0.692,10.539,0.775,15.784-0.063c14.376-2.295,25.998-9.273,34.959-20.731
		c1.329-1.7,2.118-3.529,2.051-5.732c-0.045-1.502-0.196-3.09,0.206-4.495c0.597-2.086,1.453-4.154,2.548-6.026
		c1.038-1.773,1.169-3.521,0.461-5.245c-0.747-1.818-0.944-3.64-1.046-5.552c-0.04-0.75-0.602-1.515-1.056-2.186
		c-0.404-0.598-1.094-1.011-1.463-1.623c-0.386-0.641-0.746-0.765-1.384-0.459c-1.348,0.647-2.227,1.648-2.553,3.131
		c-0.089,0.402-0.229,1.059-0.466,1.118c-1.404,0.35-2.848,0.79-4.269,0.761c-2.159-0.044-3.538-1.757-5.087-3
		c-2.394-1.922-3.725-4.442-3.688-7.542c0.018-1.506-0.194-2.835-1.358-3.889c-0.153-0.139-0.329-0.341-0.346-0.527
		c-0.229-2.486-0.694-5.001,1.223-7.149c0.431-0.483,0.724-1.181,0.852-1.825c0.29-1.467,0.516-2.957,0.615-4.448
		c0.06-0.902,0.28-1.346,1.25-1.197c0.561,0.087,0.889-0.125,1.284-0.649c1.188-1.574,2.552-3.016,3.851-4.514
		c0.672,0.779,1.051,1.565,1.666,1.862c1.438,0.694,2.974,1.204,4.506,1.667c0.331,0.1,0.928-0.204,1.209-0.504
		c0.659-0.703,1.158-1.555,1.806-2.271c0.418-0.462,0.477-0.852,0.117-1.315c-1.119-1.44-2.247-2.873-3.376-4.305
		c-0.027-0.035-0.119-0.019-0.19-0.028c-0.039,0.23-0.077,0.455-0.125,0.743c-0.632-0.373-1.188-0.702-1.744-1.031
		c-0.061,0.07-0.122,0.139-0.184,0.209c0.451,0.631,0.886,1.274,1.357,1.89c0.477,0.624,0.99,1.22,1.629,2.001
		c-3.189-1.229-3.179-1.235-4.642-3.812c-0.192-0.339-0.554-0.582-0.836-0.87c-0.074,0.067-0.148,0.134-0.221,0.201
		c0.37,0.72,0.741,1.439,1.05,2.042c-0.556,0.03-1.024,0.055-1.677,0.09c-0.401-0.979-2.455-1.484-1.297-3.5
		c-0.672,0.076-1.157,0.131-1.681,0.191c0.068,0.444,0.126,0.818,0.201,1.309c-0.551-0.324-1-0.588-1.443-0.849
		c-1.698,2.221-1.895,3.965-0.745,6.358c0.171,0.355,0.373,0.702,0.489,1.075c0.062,0.199,0.049,0.505-0.066,0.661
		c-0.567,0.768-1.179,1.502-1.776,2.248c-0.506-0.323-0.921-0.587-1.416-0.904c-0.1,0.143-0.171,0.273-0.268,0.378
		c-0.112,0.122-0.248,0.222-0.355,0.316c-2.118-1.531-2.951-3.573-2.901-6.115c1.134-0.072,2.197-0.14,3.362-0.214
		c-0.384-2.56-2.406-3.11-4.119-3.746c0.274-0.79,0.674-1.544,0.779-2.336c0.192-1.46,0.254-2.909,1.293-4.116
		c0.358-0.416,0.51-1.022,0.707-1.559c0.074-0.202,0.088-0.497-0.006-0.681c-0.984-1.933-2.85-2.723-4.706-3.533
		c1.147,1.268,2.294,2.536,3.44,3.804c-0.063,0.085-0.126,0.17-0.189,0.255c-3.415-1.087-6.797-2.171-9.28-5.109
		c-1.102-1.304-2.21-2.456-1.419-4.353c-5.771-1.504-11.483-2.001-17.294-1.473c0.773,0.42,1.557,0.765,2.361,1.051
		c0.814,0.29,1.301,0.764,1.405,1.679c0.041,0.36,0.353,0.763,0.654,1.006c0.912,0.735,1.879,1.402,2.921,2.167
		c-0.667,0.436-1.19,0.803-1.737,1.132c-2.159,1.295-3.608,3.06-3.678,5.684c-0.026,0.972-0.472,1.506-1.488,1.805
		c-0.867-1.373-1.716-2.78-2.628-4.144c-0.706-1.056-0.857-2.072-0.075-3.145c0.39-0.535,0.293-0.991-0.27-1.349
		c-1.229-0.78-2.457-1.564-3.832-2.44c0.541-1.976,3.104-1.876,4.307-3.591c-3.676,0.801-7.352,1.603-11.028,2.404
		c-0.023,0.152-0.046,0.304-0.069,0.456c1.006-0.327,1.152,0.254,1.31,0.906c0.151,0.622,0.291,1.294,0.637,1.81
		c0.647,0.966,0.775,1.936,0.55,3.049c-0.127,0.626-0.289,1.017-1.007,0.899c-2.754-0.452-4.703,1.345-6.88,2.358
		c-0.107,2.673,2.542,3.033,3.654,4.644c-0.323,0.569-0.637,1.124-0.978,1.725c0.485,0.424,0.937,0.82,1.352,1.183
		c0.909-0.274,1.266-0.818,1.342-1.681c0.048-0.544,0.315-1.079,0.537-1.594c0.418-0.97,0.919-1.905,1.299-2.888
		c0.253-0.654,0.357-1.366,0.557-2.166c1.503,0.566,3.286-0.02,4.305,1.658c0.57,0.939,1.272,1.743,2.436,0.76
		c0.749,0.97,1.328,1.95,2.128,2.692c0.848,0.788,1.159,1.618,1.097,2.741c-0.039,0.708-0.222,0.99-0.952,1.101
		c-1.994,0.303-3.973,0.703-6.103,1.092c0.403,0.426,0.783,0.663,0.92,0.998c0.699,1.712,1.842,2.641,3.775,2.171
		c0.077,0.995-0.213,1.414-1.123,1.414c-1.475,0.001-2.89,0.255-4.275,0.877c-0.858,0.385-1.314,0.819-1.43,1.747
		c-0.039,0.307-0.41,0.717-0.715,0.819c-1.288,0.428-2.617,0.734-3.917,1.127c-1.492,0.451-1.541,0.478-1.324,2.055
		c0.113,0.82-0.088,1.35-0.753,1.823c-1.461,1.038-2.908,2.101-4.308,3.221c-0.327,0.262-0.675,0.825-0.615,1.183
		c0.18,1.072,0.557,2.112,0.862,3.181c-1.353,0.923-1.708,0.864-2.399-0.513c-0.136-0.27-0.158-0.615-0.166-0.927
		c-0.021-0.855-0.007-1.71-0.007-2.889c-3.362,0.116-6.611,0.214-9.858,0.371c-0.235,0.011-0.557,0.408-0.656,0.69
		c-0.427,1.217-0.635,2.534-1.201,3.675c-1.142,2.301,0.396,3.957,1.076,6.179c1.557-2.264,3.579-2.522,5.874-2.246
		c-0.63,1.702-1.253,3.385-1.896,5.12C49.332,212.282,51.114,212.638,52.976,213.011z M43.408,176.577
		c-0.079-0.052-0.158-0.104-0.237-0.156c-12.896,12.173-20.3,33.636-13.223,55.087c2.748,8.331,7.319,15.554,13.61,21.67
		c6.292,6.117,13.626,10.462,22.095,13.031c-0.142-1.066-0.327-1.947-0.365-2.835c-0.153-3.623-0.411-7.252-0.33-10.872
		c0.052-2.319-0.772-3.829-2.593-5.189c-5.076-3.791-7.644-9.084-8.685-15.222c-0.147-0.865-0.034-1.57,0.503-2.308
		c1.222-1.681,2.346-3.432,3.525-5.18c-0.387-0.486-0.793-0.903-1.091-1.387c-0.65-1.057-1.556-1.657-2.796-1.697
		c-1.428-0.047-2.329-0.876-2.953-2.031c-0.698-1.291-1.342-2.615-1.933-3.958c-0.232-0.527-0.473-0.802-1.078-0.808
		c-1.441-0.015-2.623-0.449-3.609-1.674c-0.659-0.82-1.779-1.271-2.7-1.877c-0.298-0.196-0.685-0.294-0.917-0.544
		c-2.199-2.369-4.488-4.68-4.322-8.311c0.057-1.248-0.138-2.508-0.228-3.761c-0.079-1.094-0.172-2.186-0.259-3.279
		c-0.07,0.003-0.14,0.006-0.211,0.008c-0.278,1.796-0.557,3.592-0.835,5.389c-0.48-1.509-0.795-3.012-0.993-4.53
		c-0.079-0.605-0.002-1.275,0.178-1.862c0.514-1.678,1.385-3.291,1.633-4.999c0.674-4.632,3.164-8.059,6.595-10.994
		C42.706,177.847,43.007,177.154,43.408,176.577z" class="color c2"/>
    <path fill="#FFFFFF" d="M103.177,178.817c-0.417-0.602-0.953-1.055-1.059-1.592c-0.256-1.3-1.092-2.111-2.198-2.378
		c-1.521-0.368-1.869-1.451-2.283-2.948c1.813,1.015,3.729,1.385,5.099,2.824c0.272,0.285,0.52,0.593,0.775,0.894
		C104.709,177.028,104.708,177.029,103.177,178.817z" class="color c2"/>
    <path fill="#FFFFFF" d="M56.733,208.374c0.288-0.077,0.576-0.154,0.864-0.231c0.049-0.074,0.098-0.147,0.146-0.221
		c-0.237-0.069-0.473-0.139-0.71-0.208c0.094-0.148,0.188-0.297,0.282-0.445c0.713,0.287,1.469,0.499,2.131,0.876
		c1.4,0.797,2.756,1.675,4.121,2.532c0.44,0.277,0.855,0.595,1.212,1.141c-1.059,0.095-2.117,0.191-3.002,0.27
		C60.253,210.513,59.552,208.08,56.733,208.374z" class="color c2"/>
    <path fill="#FFFFFF" d="M70.695,214.295c-1.95-0.191-3.9-0.382-5.888-0.576c0.349-1.194,1.367-1.789,2.275-1.458
		c0.937,0.342,1.872,0.698,2.779,1.111c0.354,0.161,0.629,0.494,0.94,0.749C70.765,214.179,70.73,214.237,70.695,214.295z" class="color c2"/>
    <path fill="#FFFFFF" d="M89.925,169.135c0.04,1.184-0.509,1.773-1.569,1.529c-0.97-0.223-1.905-0.594-2.856-0.899
		c0.025-0.144,0.049-0.288,0.074-0.432C86.997,169.269,88.42,169.204,89.925,169.135z" class="color c2"/>
    <path fill="#FFFFFF" d="M99.16,175.436c0.774,0.83,1.549,1.66,2.45,2.626c-0.633,0.328-1.089,0.565-1.665,0.863
		c-0.41-1.116-0.795-2.168-1.181-3.22C98.896,175.615,99.028,175.526,99.16,175.436z" class="color c2"/>
    <path fill="#FFFFFF" d="M62.676,214.135c-0.655-0.064-1.541,0.493-1.861-1.099c0.801,0.26,1.402,0.455,2.004,0.65
		C62.772,213.835,62.724,213.985,62.676,214.135z" class="color c2"/>
  </g>
</svg>