<svg version="1.1" id="图层_1" x="0px" y="0px" width="71.856px" height="71.844px" viewBox="0 0 71.856 71.844" enable-background="new 0 0 71.856 71.844" xml:space="preserve" xmlns="http://www.w3.org/2000/svg" xmlns:xlink="http://www.w3.org/1999/xlink" xmlns:xml="http://www.w3.org/XML/1998/namespace">
  <path fill="#FFFFFF" d="M40.627,0c-1.474,4.385-3.266,8.672-5.165,11.912c-5.05,0.148-10.066,1.844-14.196,5.176
	c-4.039-2.238-8.311-4.801-13.363-8.486c3.639,4.121,6.936,8.43,9.503,12.459c-3.18,4.113-4.801,9.041-4.915,14.008
	C9.188,37.107,4.68,39.041,0,40.615c5.194-0.557,9.184-0.543,12.884-0.402c0.675,3.473,2.146,6.805,4.368,9.744
	c-2.265,4.113-4.863,8.457-8.631,13.621c4.148-3.658,8.479-6.969,12.529-9.541c3.11,2.539,6.72,4.188,10.482,4.916
	c0.141,3.703,0.164,7.689-0.394,12.891c1.581-4.699,3.526-9.211,5.575-12.518c4.867-0.131,9.685-1.697,13.741-4.762
	c4.291,2.625,8.96,6.174,13.409,10.1c-4.009-5.494-6.687-10.061-9.032-14.391c3.176-4.063,4.806-8.93,4.973-13.852
	c3.245-1.91,7.546-3.711,11.951-5.193c-4.905,0.525-8.718,0.545-12.259,0.432c-0.675-4.039-2.34-7.941-5.088-11.25
	c2.51-3.838,5.635-7.895,9.072-11.789c-4.818,3.514-8.926,6.021-12.809,8.197c-3.159-2.449-6.801-3.963-10.577-4.598
	C40.087,8.689,40.104,4.891,40.627,0L40.627,0z M36.221,21.6c3.572-0.008,7.141,1.357,9.888,4.109
	c5.498,5.496,5.47,14.285-0.029,19.785c-5.495,5.494-14.247,5.494-19.746,0c-5.497-5.5-5.497-14.26,0-19.758
	C29.084,22.986,32.65,21.605,36.221,21.6L36.221,21.6z M37.249,25.525c-0.701,0.014-1.388,0.207-1.997,0.557
	c-2.019,1.16-2.711,3.734-1.547,5.748c1.164,2.01,3.731,2.697,5.74,1.539c2.012-1.16,2.705-3.73,1.546-5.74
	C40.225,26.293,38.787,25.488,37.249,25.525L37.249,25.525z M35.589,41.777c-0.495,0.012-0.976,0.148-1.403,0.395
	c-1.403,0.809-1.883,2.602-1.075,4.004c0.813,1.398,2.604,1.875,4.005,1.064c1.396-0.807,1.877-2.592,1.074-3.992
	C37.654,42.318,36.658,41.756,35.589,41.777L35.589,41.777z" class="color c1"/>
</svg>