<svg version="1.1" id="图层_1" x="0px" y="0px" width="218.001px" height="188.494px" viewBox="0 0 218.001 188.494" enable-background="new 0 0 218.001 188.494" xml:space="preserve" xmlns="http://www.w3.org/2000/svg" xmlns:xlink="http://www.w3.org/1999/xlink" xmlns:xml="http://www.w3.org/XML/1998/namespace">
  <path fill="#000111" d="M215.65,34.733c-2.081-6.616-6.455-11.152-13.123-13.306c0.309-8.898-3.101-14.847-10.254-17.975
	c-6.376-2.789-14.391-1.498-18.859,3.031c-2.217,2.247-3.468,5-3.997,8.054c-0.858,4.954-0.257,9.721,2.302,14.237
	c-3.699,3.164-7.351,6.288-10.975,9.389c-14.804-13.421-31.923-20.471-51.752-20.277c-19.869,0.194-36.867,7.689-51.403,21.272
	L44.83,29.071c0.425-0.701,0.74-1.201,1.037-1.712c4.519-7.779,1.863-18.994-5.713-23.567c-1.638-0.989-3.578-1.477-5.393-2.172
	c-1.502-0.039-2.859-0.075-4.36-0.115c-1.616,0.538-3.343,0.855-4.848,1.613c-7.456,3.753-11.197,9.725-10.523,18.307
	c-6.461,1.272-10.165,5.57-12.259,11.5c-1.381,3.911-1.64,7.969-0.747,12.005c1.523,6.882,5.784,11.513,12.482,13.485
	c6.68,1.967,12.479-0.069,17.215-5.09c1.038-1.1,1.85-2.413,2.861-3.753c3.433,2.683,6.808,5.32,10.254,8.014
	c-0.332,0.697-0.587,1.225-0.836,1.756c-5.82,12.413-8.012,25.405-6.289,39.038c1.473,11.653,5.583,22.283,12.381,31.849
	c0.86,1.21,0.747,1.892-0.298,2.825c-2.271,2.027-1.975,1.808-1.975,1.808s-3.527,3.249-7.087,6.525
	c-0.365-0.803-0.653-1.503-0.994-2.177c-1.866-3.694-4.784-6.109-8.876-6.843c-12.274-2.201-22.444,9.513-18.507,21.322
	c1.88,5.636,5.462,9.857,10.921,12.278c-0.877,9.691,2.668,15.901,11.048,19.489c6.987,2.992,13.043,1.64,17.898-4.04
	c3.068-3.589,4.99-7.706,5.37-12.446c0.294-3.673-0.853-6.907-3.492-9.591c6.41-4.684,7.747-5.644,11.71-8.697
	c0.409-0.315,1.292-0.474,1.731-0.255c2.498,1.247,5.028,2.479,7.355,4.008c2.771,1.822,4.095,4.583,4.117,7.927
	c0.025,3.822,0.019,7.644,0.081,11.465c0.026,1.588,0.191,3.174,0.287,4.665h8.649c0,0,0.139-2.836,0.229-4.18
	c0.042-0.631,0.469-1.872,0.469-1.872s0.583,1.236,0.646,1.856c0.138,1.367,0.417,4.191,0.417,4.191l8.151-0.073
	c0.087-1.415,0.17-2.768,0.252-4.102c0.038-0.618,0.475-1.863,0.475-1.863s0.532,1.237,0.59,1.846
	c0.132,1.396,0.264,2.786,0.394,4.158l7.678,0.035c0.133-1.415,0.288-2.83,0.416-4.19c0.055-0.588,0.581-1.848,0.581-1.848
	s0.616,1.184,0.674,1.862c0.119,1.385,0.436,4.176,0.436,4.176h8.223c0.065-1.438,0.067-2.83,0.21-4.179
	c0.066-0.623,0.399-1.218,0.611-1.826c0.231,0.578,0.582,1.138,0.67,1.737c0.206,1.396,0.247,2.886,0.376,4.268h8.502
	c0.09-1.429,0.188-2.869,0.273-4.214c0.038-0.605,0.522-1.803,0.522-1.803s0.477,1.204,0.534,1.803
	c0.133,1.401,0.244,2.829,0.375,4.213l8.432-0.031c0.11-1.555,0.285-3.03,0.304-4.508c0.047-3.523-0.048-7.049,0.059-10.569
	c0.037-1.22-0.042-3.806,1.113-5.807c2.684-4.653,6.653-5.469,11.708-7.237c0.653-0.229,1.785,0.076,2.344,0.549l0.118,0.067
	c2.029,1.163,3.95,2.503,5.742,4.005c0.606,0.508,1.207,1.011,2.671,2.298c-2.523,1.575-4.001,3.807-4.605,6.502
	c-1.472,6.575-0.119,12.539,4.719,17.324c4.679,4.628,10.278,7.05,16.946,4.986c6.407-1.983,9.891-6.715,10.944-13.136
	c0.443-2.699,0.074-5.531,0.074-8.33c1.134-0.189,2.205-0.34,3.276-0.572c6.056-1.31,10.275-6.763,10.444-12.957
	c0.189-6.912-2.747-12.671-7.796-17.408c-1.041-0.977-2.529-1.605-3.921-2.056c-5.141-1.665-13.505-0.099-16.784,7.024
	c-6.16-5.774-1.176-0.691-7.252-6.386c16.642-24.021,18.591-49.074,6.15-75.202c3.307-2.714,6.529-5.357,9.827-8.063
	c1.398,3.74,3.935,6.381,7.604,7.682c7,2.481,13.605,1.549,19.137-3.542C216.015,48.495,217.7,41.249,215.65,34.733z" class="color c1"/>
  <path fill="#FC2222" d="M41.192,188.494c-2.374,0-4.869-0.55-7.457-1.658c-8.664-3.709-12.606-10.242-12.03-19.951
	c-5.2-2.594-8.82-6.868-10.771-12.72c-2.015-6.042-0.727-12.527,3.444-17.349c4.187-4.839,10.447-7.054,16.75-5.924
	c4.443,0.798,7.791,3.369,9.95,7.645c0.057,0.112,0.113,0.227,0.168,0.341l5.558-5.117l0.004,0.005
	c0.083-0.096,0.179-0.193,0.287-0.294c0.272-0.252,0.776-0.709,1.702-1.535c0.208-0.186,0.308-0.305,0.353-0.368
	c-0.03-0.074-0.103-0.223-0.278-0.47c-6.888-9.691-11.143-20.637-12.646-32.528c-1.729-13.681,0.43-27.092,6.419-39.863l0.322-0.679
	l-8.081-6.315c-0.003,0.004-0.006,0.008-0.009,0.012c-0.662,0.931-1.287,1.811-2.062,2.631c-5.32,5.641-11.797,7.545-18.73,5.499
	c-7.205-2.121-11.881-7.17-13.526-14.6c-0.955-4.312-0.687-8.629,0.796-12.829c2.31-6.54,6.38-10.629,12.108-12.175
	c-0.252-8.319,3.583-14.53,11.415-18.472c1.133-0.57,2.325-0.905,3.477-1.229c0.528-0.148,1.057-0.296,1.573-0.468L30.177,0
	l4.881,0.128l0.24,0.092c0.513,0.196,1.037,0.375,1.56,0.555c1.364,0.467,2.775,0.951,4.072,1.733
	c8.18,4.937,11.151,17.141,6.235,25.604c-0.116,0.2-0.234,0.397-0.361,0.606l10.709,8.467c14.973-13.617,32.28-20.613,51.464-20.801
	c19.282-0.159,36.677,6.467,51.789,19.785l9.065-7.755c-2.136-4.301-2.772-9.05-1.891-14.134c0.611-3.528,2.093-6.507,4.407-8.852
	c4.923-4.992,13.556-6.401,20.528-3.353c7.424,3.248,11.179,9.397,11.172,18.29c6.505,2.416,10.888,7.092,13.035,13.917l0,0
	c2.263,7.193,0.271,15.021-5.077,19.943c-5.733,5.277-12.876,6.608-20.654,3.853c-3.373-1.196-5.993-3.489-7.67-6.69l-7.406,6.077
	c11.928,25.836,9.898,50.913-6.038,74.564c2.023,1.878,2.247,2.007,2.374,2.079c0.347,0.2,0.614,0.354,2.53,2.12
	c3.93-6.044,11.878-7.91,17.628-6.046c2.021,0.654,3.446,1.414,4.485,2.39c5.677,5.327,8.459,11.565,8.269,18.543
	c-0.192,7.028-4.973,12.942-11.626,14.382c-0.697,0.15-1.373,0.266-2.072,0.378c0.013,0.434,0.031,0.867,0.049,1.3
	c0.081,1.964,0.165,3.995-0.164,6c-1.2,7.317-5.343,12.271-11.981,14.326c-6.586,2.043-12.792,0.238-18.445-5.352
	c-4.991-4.938-6.765-11.41-5.128-18.719c0.569-2.541,1.802-4.643,3.676-6.27c-0.52-0.447-0.87-0.741-1.218-1.033
	c-1.746-1.463-3.604-2.759-5.548-3.872l-0.34-0.224c-0.192-0.162-0.728-0.302-0.917-0.27c-0.582,0.206-1.183,0.407-1.768,0.604
	c-4.078,1.369-7.024,2.358-9.101,5.958c-0.844,1.461-0.881,3.471-0.903,4.671l-0.009,0.433c-0.062,2.044-0.056,4.139-0.049,6.163
	c0.005,1.46,0.01,2.92-0.01,4.379c-0.014,1.065-0.105,2.133-0.193,3.165c-0.04,0.47-0.081,0.945-0.115,1.429l-0.098,1.39
	l-11.193,0.041v-0.005l-30.413-0.074l-9.523,0.087v-0.008H77.976l-0.09-1.404c-0.029-0.454-0.065-0.918-0.101-1.387
	c-0.084-1.085-0.17-2.207-0.189-3.351c-0.043-2.655-0.054-5.312-0.064-7.969l-0.017-3.511c-0.02-2.946-1.177-5.194-3.441-6.684
	c-2.081-1.367-4.403-2.524-6.648-3.644l-0.438-0.219c-0.094,0.006-0.236,0.037-0.298,0.07c-3.552,2.74-5.037,3.825-9.958,7.42
	l-0.419,0.307c2.13,2.716,3.063,5.893,2.777,9.468c-0.387,4.835-2.313,9.31-5.725,13.3
	C49.899,186.444,45.772,188.494,41.192,188.494z M27.898,133.604c-4.294,0-8.365,1.838-11.251,5.175
	c-3.472,4.013-4.544,9.409-2.868,14.437c1.792,5.373,5.192,9.202,10.106,11.381l0.983,0.436l-0.097,1.07
	c-0.821,9.076,2.308,14.62,10.144,17.976c6.435,2.755,11.722,1.563,16.167-3.636c2.992-3.5,4.68-7.399,5.015-11.591
	c0.261-3.252-0.771-6.085-3.066-8.419l-1.218-1.238l3.146-2.299c4.897-3.578,6.375-4.658,9.935-7.4
	c0.781-0.603,2.272-0.929,3.316-0.409l0.551,0.275c2.325,1.158,4.728,2.355,6.958,3.821c3.11,2.045,4.768,5.216,4.793,9.171
	l0.017,3.519c0.011,2.645,0.021,5.288,0.064,7.932c0.017,1.053,0.1,2.128,0.18,3.168c0,0.008,0.001,0.015,0.001,0.022h5.829
	c0.048-0.914,0.11-2.06,0.158-2.779c0.051-0.77,0.432-1.925,0.547-2.261l1.201-3.489l1.574,3.338
	c0.162,0.345,0.698,1.531,0.781,2.344c0.075,0.742,0.192,1.914,0.283,2.83l5.382-0.049l0.166-2.706
	c0.047-0.767,0.438-1.929,0.556-2.268l1.273-3.628l1.521,3.532c0.146,0.341,0.631,1.514,0.705,2.297l0.266,2.805l4.953,0.023
	c0.027-0.266,0.054-0.531,0.081-0.795c0.07-0.686,0.139-1.364,0.202-2.03c0.071-0.757,0.546-1.94,0.69-2.285l1.235-2.957l1.48,2.843
	c0.177,0.34,0.761,1.52,0.838,2.426c0.064,0.746,0.187,1.903,0.284,2.805h5.434c0.03-0.934,0.065-1.896,0.165-2.837
	c0.068-0.645,0.295-1.192,0.495-1.677c0.067-0.161,0.135-0.323,0.192-0.486l1.32-3.781l1.489,3.718
	c0.062,0.154,0.134,0.307,0.206,0.459c0.217,0.462,0.463,0.986,0.556,1.616c0.141,0.955,0.208,1.929,0.272,2.87
	c0.003,0.04,0.005,0.079,0.008,0.118h5.707l0.182-2.808c0.049-0.787,0.494-1.938,0.628-2.271l1.404-3.475l1.381,3.484
	c0.13,0.329,0.561,1.461,0.632,2.214c0.067,0.705,0.128,1.417,0.19,2.128c0.021,0.241,0.042,0.482,0.062,0.723l5.676-0.021
	c0.002-0.027,0.005-0.056,0.007-0.083c0.087-1.024,0.169-1.992,0.182-2.949c0.02-1.443,0.015-2.887,0.01-4.33
	c-0.006-2.05-0.014-4.17,0.05-6.265l0.009-0.396c0.026-1.392,0.074-3.983,1.304-6.115c2.644-4.582,6.398-5.843,10.745-7.302
	c0.573-0.192,1.162-0.39,1.767-0.602c1.2-0.42,2.774,0.027,3.684,0.721l0.02,0.011c2.097,1.201,4.103,2.6,5.96,4.157
	c0.628,0.525,1.238,1.037,2.698,2.319l1.515,1.331l-1.711,1.068c-2.105,1.314-3.393,3.133-3.936,5.559
	c-1.419,6.337,0.031,11.697,4.31,15.93c4.872,4.817,9.924,6.327,15.449,4.619c5.556-1.721,8.889-5.739,9.907-11.946
	c0.279-1.702,0.206-3.494,0.127-5.392c-0.037-0.898-0.073-1.799-0.073-2.695v-1.271l2.148-0.354
	c0.787-0.126,1.549-0.248,2.312-0.412c5.298-1.147,9.107-5.889,9.261-11.532c0.166-6.083-2.298-11.559-7.323-16.273
	c-0.696-0.653-1.794-1.217-3.356-1.724c-4.245-1.376-11.935-0.347-14.958,6.225l-0.87,1.891l-1.519-1.423
	c-2.963-2.778-3.236-2.935-3.382-3.019c-0.415-0.239-0.715-0.411-3.87-3.368l-0.944-0.886l0.737-1.063
	c16.172-23.343,18.2-48.14,6.028-73.703l-0.504-1.06l12.356-10.139l0.735,1.965c1.263,3.38,3.518,5.666,6.7,6.793
	c6.758,2.396,12.688,1.308,17.62-3.232c4.495-4.138,6.162-10.746,4.247-16.835c-1.953-6.207-6.042-10.355-12.153-12.329
	l-1.078-0.348l0.04-1.132c0.287-8.257-2.774-13.67-9.356-16.549c-5.781-2.529-13.172-1.364-17.19,2.71
	c-1.875,1.901-3.082,4.343-3.586,7.257c-0.847,4.888-0.151,9.219,2.128,13.242l0.609,1.075l-12.918,11.052l-0.979-0.887
	c-14.762-13.383-31.845-20.083-50.73-19.889c-18.816,0.184-35.771,7.205-50.395,20.868l-0.942,0.88L42.861,29.426l1.093-1.799
	c0.229-0.375,0.426-0.696,0.616-1.022c4.141-7.128,1.667-17.39-5.191-21.529c-1.023-0.617-2.223-1.028-3.494-1.464
	c-0.474-0.163-0.948-0.325-1.416-0.499l-3.85-0.101c-0.479,0.152-0.966,0.29-1.453,0.426c-1.062,0.298-2.065,0.58-2.94,1.02
	c-7.136,3.592-10.31,9.104-9.701,16.85l0.104,1.332l-1.311,0.258c-5.363,1.056-9.006,4.5-11.135,10.528
	c-1.294,3.663-1.528,7.425-0.697,11.182c1.415,6.389,5.264,10.551,11.442,12.371c5.858,1.726,11.143,0.15,15.7-4.68
	c0.632-0.67,1.199-1.467,1.799-2.311c0.307-0.432,0.621-0.873,0.956-1.316l0.918-1.218l12.404,9.694l-1.349,2.834
	c-5.744,12.249-7.816,25.105-6.159,38.213c1.44,11.396,5.517,21.883,12.115,31.168c1.289,1.815,1.124,3.345-0.522,4.813
	c-1.584,1.413-1.845,1.67-1.882,1.707l-0.774-0.761l0.698,0.847l-8.612,7.927l-1.198-2.649c-0.211-0.478-0.407-0.922-0.626-1.355
	c-1.712-3.389-4.336-5.422-7.802-6.044C29.694,133.683,28.791,133.604,27.898,133.604z" class="color c2"/>
</svg>