<svg version="1.1" id="图层_1" x="0px" y="0px" width="63.148px" height="174.182px" viewBox="0 0 63.148 174.182" enable-background="new 0 0 63.148 174.182" xml:space="preserve" xmlns="http://www.w3.org/2000/svg" xmlns:xlink="http://www.w3.org/1999/xlink" xmlns:xml="http://www.w3.org/XML/1998/namespace">
  <path fill="#EA6D11" d="M31.56,174.155c-17.817,0.705-31.857-12.631-31.556-30.321L0.007,32.597
	C0.022,14.913,14.198,0.294,31.595,0.025c17.527-0.696,31.861,13.204,31.27,30.325l0.283,111.233
	C62.846,159.274,48.668,173.894,31.56,174.155z" class="color c1"/>
  <path fill="#FFFFFF" d="M46.669,66.946c3.266,0.009,5.932,2.687,5.923,5.952l-0.069,29.609c-0.007,3.267-2.687,5.931-5.949,5.924
	L16.66,108.36c-3.265-0.008-5.929-2.687-5.922-5.949l0.071-29.611c0.008-3.266,2.685-5.931,5.948-5.921L46.669,66.946z
	 M54.286,51.496c-0.44-0.429-1.024-0.665-1.641-0.667c-0.631-0.001-1.228,0.243-1.675,0.688c-0.447,0.446-0.694,1.041-0.695,1.672
	c-0.002,0.639,0.26,1.259,0.719,1.702c0.441,0.428,1.024,0.666,1.641,0.667c1.304,0.003,2.366-1.054,2.37-2.358
	C55.005,52.561,54.745,51.94,54.286,51.496z M40.356,51.463c-0.441-0.429-1.024-0.666-1.641-0.667
	c-0.632-0.002-1.227,0.243-1.675,0.688c-0.446,0.445-0.694,1.04-0.694,1.672c-0.002,0.639,0.259,1.259,0.717,1.702
	c0.441,0.43,1.024,0.666,1.642,0.667c0.631,0.002,1.227-0.242,1.674-0.688c0.447-0.445,0.695-1.04,0.696-1.669
	C41.077,52.528,40.816,51.908,40.356,51.463z M26.428,51.429c-0.442-0.428-1.025-0.666-1.642-0.667
	c-1.304-0.002-2.366,1.057-2.371,2.36c-0.002,0.639,0.261,1.258,0.719,1.702c0.443,0.43,1.025,0.666,1.642,0.667
	c0.632,0.002,1.226-0.243,1.674-0.688c0.448-0.447,0.695-1.04,0.697-1.671C27.148,52.494,26.886,51.874,26.428,51.429z
	 M12.501,51.397c-0.441-0.429-1.023-0.667-1.64-0.668c-0.633-0.001-1.228,0.243-1.675,0.688c-0.447,0.444-0.694,1.039-0.696,1.67
	c-0.002,0.637,0.26,1.259,0.718,1.703c0.442,0.429,1.026,0.666,1.643,0.667c1.303,0.004,2.366-1.055,2.371-2.359
	C13.221,52.462,12.958,51.841,12.501,51.397z M47.371,42.638c0.448-0.445,0.695-1.04,0.697-1.672c0-0.636-0.261-1.257-0.72-1.702
	c-0.441-0.429-1.023-0.666-1.643-0.667c-1.303-0.003-2.365,1.056-2.369,2.36c-0.001,0.637,0.263,1.258,0.72,1.701
	c0.442,0.43,1.023,0.667,1.641,0.668C46.329,43.328,46.922,43.083,47.371,42.638z M34.14,40.934c0.002-0.639-0.261-1.26-0.719-1.704
	c-0.441-0.43-1.024-0.667-1.641-0.667c-0.631-0.001-1.225,0.243-1.674,0.688c-0.448,0.444-0.695,1.04-0.697,1.67
	c-0.001,0.638,0.26,1.259,0.719,1.704c0.442,0.429,1.025,0.667,1.642,0.669C33.075,43.296,34.137,42.237,34.14,40.934z
	 M19.515,42.571c0.448-0.444,0.694-1.038,0.697-1.67c0-0.638-0.262-1.259-0.719-1.702c-0.443-0.431-1.024-0.666-1.641-0.667
	c-1.305-0.006-2.368,1.054-2.372,2.358c-0.001,0.648,0.254,1.252,0.719,1.703c0.443,0.43,1.024,0.667,1.64,0.668
	C18.473,43.262,19.067,43.016,19.515,42.571z M55.064,28.128c0.002-0.638-0.263-1.258-0.719-1.702
	c-0.442-0.429-1.024-0.667-1.642-0.668c-0.633-0.001-1.227,0.244-1.674,0.689c-0.447,0.444-0.695,1.038-0.696,1.67
	c-0.002,0.639,0.261,1.258,0.72,1.702c0.44,0.429,1.022,0.666,1.641,0.666C53.997,30.492,55.059,29.434,55.064,28.128z
	 M40.439,29.766c0.447-0.445,0.692-1.038,0.695-1.669c0.002-0.638-0.261-1.26-0.719-1.704c-0.441-0.429-1.022-0.666-1.642-0.667
	c-0.632,0-1.227,0.243-1.674,0.689c-0.447,0.444-0.694,1.039-0.696,1.669c-0.002,0.639,0.26,1.26,0.719,1.704
	c0.442,0.429,1.024,0.665,1.642,0.667C39.395,30.457,39.991,30.212,40.439,29.766z M26.51,29.733
	c0.446-0.445,0.695-1.039,0.696-1.671c0.001-0.646-0.255-1.252-0.719-1.703c-0.443-0.43-1.025-0.666-1.642-0.667
	c-1.303-0.003-2.365,1.057-2.369,2.359c-0.002,0.639,0.259,1.26,0.718,1.704c0.442,0.429,1.025,0.665,1.641,0.667
	C25.468,30.423,26.062,30.178,26.51,29.733z M12.561,26.327c-0.442-0.429-1.023-0.666-1.641-0.667
	c-0.633-0.001-1.227,0.242-1.674,0.688c-0.449,0.446-0.696,1.04-0.697,1.669c-0.002,0.64,0.262,1.26,0.72,1.704
	c0.441,0.429,1.023,0.667,1.639,0.667c1.304,0.003,2.367-1.055,2.373-2.36C13.28,27.381,13.025,26.777,12.561,26.327z
	 M54.779,148.075c0.001-0.646-0.254-1.255-0.718-1.703c-0.441-0.43-1.024-0.667-1.642-0.669c-1.304-0.002-2.366,1.056-2.371,2.36
	c-0.001,0.639,0.262,1.261,0.72,1.703c0.441,0.43,1.024,0.665,1.643,0.665C53.713,150.437,54.776,149.377,54.779,148.075z
	 M40.132,146.337c-0.441-0.429-1.024-0.665-1.642-0.667c-1.306-0.001-2.368,1.059-2.37,2.358c-0.001,0.64,0.261,1.261,0.718,1.703
	c0.443,0.431,1.024,0.667,1.643,0.67c1.303,0.001,2.366-1.058,2.37-2.361C40.851,147.401,40.59,146.781,40.132,146.337z
	 M26.203,146.305c-0.44-0.429-1.024-0.665-1.64-0.669c-0.633-0.001-1.229,0.246-1.676,0.69c-0.448,0.446-0.694,1.041-0.697,1.67
	c-0.001,0.638,0.261,1.26,0.721,1.706c0.44,0.427,1.023,0.665,1.639,0.666c0.634,0.002,1.228-0.243,1.676-0.688
	c0.446-0.447,0.694-1.04,0.696-1.672C26.922,147.369,26.662,146.749,26.203,146.305z M12.276,146.271
	c-0.442-0.428-1.024-0.664-1.643-0.666c-1.304-0.003-2.365,1.058-2.369,2.359c-0.001,0.647,0.254,1.253,0.72,1.704
	c0.44,0.429,1.023,0.664,1.642,0.667c1.303,0.004,2.365-1.057,2.37-2.359C12.996,147.326,12.741,146.723,12.276,146.271z
	 M47.841,135.843c0.004-0.64-0.26-1.259-0.718-1.703c-0.441-0.429-1.023-0.667-1.642-0.667c-1.303-0.004-2.365,1.056-2.369,2.358
	c-0.001,0.638,0.262,1.26,0.719,1.703c0.441,0.428,1.023,0.666,1.641,0.668C46.777,138.206,47.839,137.146,47.841,135.843z
	 M33.22,137.481c0.446-0.446,0.692-1.041,0.694-1.671c0.001-0.639-0.26-1.259-0.72-1.705c-0.441-0.428-1.022-0.665-1.641-0.668
	c-0.632,0-1.226,0.245-1.674,0.69c-0.448,0.446-0.694,1.039-0.696,1.669c-0.002,0.64,0.26,1.262,0.717,1.705
	c0.443,0.43,1.027,0.666,1.643,0.668C32.178,138.171,32.772,137.926,33.22,137.481z M19.988,135.776
	c0.001-0.638-0.261-1.26-0.72-1.703c-0.441-0.43-1.025-0.665-1.641-0.665c-0.631-0.004-1.229,0.241-1.675,0.688
	c-0.448,0.444-0.695,1.039-0.698,1.671c0,0.637,0.264,1.258,0.721,1.701c0.442,0.43,1.023,0.667,1.643,0.669
	C18.92,138.14,19.983,137.081,19.988,135.776z M54.839,123.005c0-0.648-0.256-1.252-0.72-1.702c-0.443-0.43-1.023-0.667-1.64-0.668
	c-0.633-0.002-1.227,0.242-1.675,0.688c-0.449,0.445-0.695,1.039-0.697,1.67c-0.002,0.639,0.262,1.26,0.72,1.704
	c0.441,0.429,1.024,0.667,1.641,0.668C53.772,125.367,54.835,124.31,54.839,123.005z M40.213,124.642
	c0.448-0.443,0.694-1.038,0.695-1.671c0.002-0.638-0.261-1.257-0.719-1.701c-0.442-0.429-1.023-0.666-1.642-0.669
	c-1.304-0.002-2.367,1.057-2.371,2.361c0,0.637,0.264,1.259,0.721,1.702c0.441,0.43,1.022,0.666,1.643,0.668
	C39.17,125.333,39.766,125.089,40.213,124.642z M26.98,122.938c0.002-0.646-0.254-1.253-0.718-1.703
	c-0.442-0.428-1.025-0.665-1.643-0.667c-0.631-0.002-1.226,0.243-1.675,0.689c-0.445,0.444-0.694,1.038-0.695,1.671
	c-0.001,0.638,0.262,1.26,0.718,1.703c0.443,0.43,1.025,0.665,1.643,0.666C25.914,125.301,26.978,124.242,26.98,122.938z
	 M12.334,121.202c-0.44-0.43-1.021-0.665-1.64-0.668c-1.302-0.004-2.366,1.057-2.371,2.359c0,0.641,0.261,1.26,0.719,1.705
	c0.442,0.428,1.025,0.665,1.643,0.666c1.304,0.003,2.367-1.056,2.37-2.362C13.055,122.257,12.8,121.653,12.334,121.202z" class="color c2"/>
</svg>