<svg version="1.1" id="图层_1" x="0px" y="0px" width="60.443px" height="55.987px" viewBox="0 0 60.443 55.987" enable-background="new 0 0 60.443 55.987" xml:space="preserve" xmlns="http://www.w3.org/2000/svg" xmlns:xlink="http://www.w3.org/1999/xlink" xmlns:xml="http://www.w3.org/XML/1998/namespace">
  <path fill-rule="evenodd" clip-rule="evenodd" fill="#F05849" d="M60.443,18.663v18.662c0,1.777-1.562,3.107-3.337,3.107H45.333
	c0,0-1.775,0.229-1.775,1.563V52.88c0,1.775-1.333,3.107-3.338,3.107H20.226c-1.776,0-3.338-1.332-3.338-3.107V41.765
	c0-1.545-1.775-1.332-1.775-1.332H3.339C1.563,40.433,0,39.103,0,37.325V18.663c0-1.778,1.563-3.108,3.339-3.108h11.995
	c1.554,0,1.554-1.332,1.554-1.332V2.886C16.888,1.333,18.449,0,20.226,0H40.22c2.005,0,3.338,1.333,3.338,2.886v11.105
	c0,0,0.222,1.563,1.553,1.563h11.996C58.882,15.555,60.443,16.885,60.443,18.663z" class="color c1"/>
</svg>