<svg version="1.1" id="图层_1" x="0px" y="0px" width="132.25px" height="86.656px" viewBox="0 0 132.25 86.656" enable-background="new 0 0 132.25 86.656" xml:space="preserve" xmlns="http://www.w3.org/2000/svg" xmlns:xlink="http://www.w3.org/1999/xlink" xmlns:xml="http://www.w3.org/XML/1998/namespace">
  <path fill="#D00000" d="M100.951,66.585c-0.506,0.258-1.018,0.493-1.536,0.703c-12.286,4.98-28.965,2.585-45.095,0.268
	c-6.568-0.943-23.171,1.348-19.766-2.381c4.681-5.22,9.039-10.927,13.31-16.519c9.244-12.106,18.015-23.592,28.835-29.118
	c0.876-0.447,1.764-0.855,2.668-1.222c6.194-2.511,12.678-2.537,19.272-0.077c7.456,2.782,12.551,7.434,15.143,13.827
	c0.869,2.143,1.473,4.52,1.796,7.066c1.315,10.352-2.468,18.704-11.566,25.534C103.03,65.405,102.005,66.047,100.951,66.585
	 M108.42,81.209c1.888-0.964,3.722-2.111,5.451-3.41c17.485-13.126,19.438-29.398,17.997-40.737
	c-0.502-3.953-1.467-7.709-2.868-11.165c-4.33-10.682-12.844-18.651-24.622-23.044c-10.417-3.886-21.2-3.802-31.181,0.244
	c-1.328,0.538-2.663,1.149-3.968,1.816C55.088,12.137,44.78,25.636,34.812,38.691c-4.053,5.308-8.238,10.787-12.484,15.522L0,79.112
	l33.355,2.442c5.934,0.434,12.388,1.361,18.63,2.258c18.289,2.627,37.2,5.343,53.599-1.305
	C106.539,82.119,107.493,81.683,108.42,81.209L108.42,81.209z" class="color c1"/>
</svg>