<svg version="1.1" id="图层_1" x="0px" y="0px" width="112.941px" height="112.94px" viewBox="0 0 112.941 112.94" enable-background="new 0 0 112.941 112.94" xml:space="preserve" xmlns="http://www.w3.org/2000/svg" xmlns:xlink="http://www.w3.org/1999/xlink" xmlns:xml="http://www.w3.org/XML/1998/namespace">
  <path fill="#4FB7D4" d="M100.961,31.654H81.287V11.978C81.287,5.39,75.896,0,69.309,0H43.633c-6.588,0-11.979,5.388-11.979,11.978
	v19.676H11.982C5.389,31.654,0,37.042,0,43.634v25.674c0,6.59,5.389,11.98,11.982,11.98h19.672v19.674
	c0,6.588,5.391,11.979,11.979,11.979h25.676c6.588,0,11.979-5.389,11.979-11.979V81.289h19.674c6.592,0,11.98-5.391,11.98-11.98
	V43.632C112.941,37.042,107.553,31.654,100.961,31.654z" class="color c1"/>
</svg>