<svg version="1.1" id="图层_1" x="0px" y="0px" width="146.579px" height="193.4px" viewBox="0 0 146.579 193.4" enable-background="new 0 0 146.579 193.4" xml:space="preserve" xmlns="http://www.w3.org/2000/svg" xmlns:xlink="http://www.w3.org/1999/xlink" xmlns:xml="http://www.w3.org/XML/1998/namespace">
  <path fill="#FFFFFF" d="M128.767,153.371c1.149-1.974,17.812-9.886,17.812-9.886s-21.426-22.946-44.83-47.833
	c8.979-13.223,15.375-25.579,16.842-29.981c5.746-17.248-4.873-46.814-15.789-55.686c-9.479-12.565-40.908-14.044-56.023,0
	c-10.917,8.871-21.535,38.438-15.789,55.686c1.541,4.626,5.543,14.853,15.05,28.752c0.306,0.365,0.609,0.732,0.909,1.104
	c0.184,0.23,0.355,0.476,0.538,0.707C24.719,120.252,0,144.486,0,144.486s20.066,6.369,21.216,8.343
	c1.148,1.971-6.5,34.5,3.446,40.528c2.464,1.32,28.179-27.44,51.456-58.918c23.618,32.144,44.279,57.269,46.799,55.918
	C137.715,187.828,127.62,155.341,128.767,153.371z" class="color c1"/>
  <path fill="#C71C22" d="M122.163,149.115c1.06-1.818,16.416-7.269,16.416-7.269s-23.434-22.994-45.006-45.931
	c8.274-12.188,16.016-24.498,17.365-28.556c5.297-15.896-2.646-43.146-12.709-51.322c-8.736-11.582-33.096-12.944-47.027,0
	C41.14,24.214,33.197,51.464,38.493,67.361c1.42,4.265,7.874,14.611,16.636,27.423c0.282,0.336,0.562,0.675,0.838,1.018
	c0.17,0.212,0.328,0.437,0.496,0.651c-20.983,22.137-45.609,45.395-45.609,45.395s15.356,5.449,16.416,7.269
	c1.059,1.815-5.295,29.975-1.06,32.245c2.271,1.218,27.815-28.979,49.269-57.99c21.77,29.626,45.42,59.234,47.742,57.99
	C127.458,179.089,121.104,150.931,122.163,149.115z M55.263,47.99c-0.23-0.472-0.454-0.996-0.67-1.557
	c4.267-2.494,13.709-9.644,22.191-9.644c5.68,0,13.883,5.49,18.889,7.262c-0.368,0.879-0.762,1.741-1.207,2.561
	c-0.088,0.162-0.182,0.318-0.272,0.478c-1.514,3.603-3.473,7.359-6.022,11.187c-2.555,3.833-8.162,11.28-13.289,17.383
	c-0.088-0.118-0.182-0.232-0.269-0.352c-0.239-0.325-0.491-0.643-0.729-0.971c-0.047-0.063-0.063-0.128-0.071-0.193
	c-5.363-6.213-9.785-11.72-12.548-15.868c-1.562-2.344-2.894-4.658-4.049-6.932C56.487,50.302,55.842,49.175,55.263,47.99z" class="color c2"/>
</svg>