<svg version="1.1" id="图层_1" x="0px" y="0px" width="118.1px" height="160.7px" viewBox="0 0 118.1 160.7" enable-background="new 0 0 118.1 160.7" xml:space="preserve" xmlns:xml="http://www.w3.org/XML/1998/namespace" xmlns="http://www.w3.org/2000/svg" xmlns:xlink="http://www.w3.org/1999/xlink">
  <path fill="#F21414" d="M22.8,0c3.4,6.2,6.6,12.2,10.1,18C40.1,30.1,50,39,63.5,43.9c10.1,3.7,20,7.9,29.2,13.6
	c13.9,8.7,23.1,20.6,25,37c2.7,23.2-5.4,42.4-24.6,55.6C73.7,163.4,52.8,164,32.4,152c-14.5-8.4-23.1-21.9-28.1-37.6
	c-4.6-14.3-4.8-29-3.5-43.7c1.7-20,8.3-38.7,16-57.1C18.7,9,20.7,4.5,22.8,0z" class="color c1"/>
  <path fill="#FFFFFF" d="M5.6,75.6c0.2-2.5,0.6-4.9,1.3-7.4c0,0.8,0,1.5,0,2.3c0.1,15.8,2,31.3,8.1,45.9c6.3,15,16.2,26.5,31.9,32.2
	c18,6.5,34.8,3.6,50.3-7.4c1.1-0.8,2.2-1.6,3.2-2.3c-8.9,10.2-20.1,15.8-33.5,17C44.3,158,23.3,145.5,13.1,124
	C5.9,108.5,4.1,92.3,5.6,75.6z" class="color c2"/>
</svg>