<svg version="1.1" id="图层_1" x="0px" y="0px" width="200.031px" height="200px" viewBox="0 0 200.031 200" enable-background="new 0 0 200.031 200" xml:space="preserve" xmlns="http://www.w3.org/2000/svg" xmlns:xlink="http://www.w3.org/1999/xlink" xmlns:xml="http://www.w3.org/XML/1998/namespace">
  <g>
    <path fill="#AED0AD" d="M157.731,157.73c-2.195-0.434-4.347-1.072-6.438-1.922c-4.388-1.781-8.311-4.396-11.657-7.771l-0.707-0.705
		l0.055,0.09l0.617,0.701c9.139,9.141,9.075,23.955-0.065,32.998c-4.58,4.533-10.589,6.818-16.581,6.818
		c-5.962,0-11.905-2.26-16.413-6.818l-6.543-6.543l-6.544,6.543c-4.568,4.57-10.557,6.854-16.533,6.854s-11.941-2.283-16.463-6.854
		c-9.043-9.141-9.139-23.955,0-32.998l35.567-35.654l3.944-3.953l-8.483-8.504l0.023-0.024l-0.009-0.009l-0.023,0.023l-3.66,3.671
		l-35.848,35.933c-5.156,5.115-8.387,11.455-9.69,18.113c-2.18,11.135,1.028,23.164,9.63,31.861
		c3.36,3.395,7.296,6.023,11.696,7.818c4.238,1.727,8.719,2.602,13.315,2.602c4.591,0,9.07-0.873,13.315-2.596
		c3.573-1.449,6.845-3.447,9.756-5.953c2.885,2.496,6.133,4.486,9.686,5.93c4.224,1.713,8.688,2.584,13.276,2.584
		c4.585,0,9.065-0.869,13.314-2.582c4.398-1.771,8.343-4.367,11.726-7.715c3.383-3.346,6.007-7.266,7.801-11.65
		c1.727-4.221,2.608-8.684,2.622-13.266C158.423,162.377,158.191,160.031,157.731,157.73z" class="color c1"/>
  </g>
  <path fill="#FFD255" d="M91.492,100.01l8.535-8.514l0,0l-0.009-0.008l-0.015-0.014l-0.008-0.01L89.953,81.446L60.399,51.964
	c-3.35-3.378-7.271-5.993-11.661-7.775c-2.104-0.854-4.269-1.499-6.48-1.931c-2.224-0.434-4.494-0.653-6.795-0.653l0,0
	c-4.586,0-9.065,0.868-13.315,2.581c-4.397,1.772-8.344,4.367-11.726,7.715c-3.382,3.346-6.007,7.267-7.8,11.65
	C0.895,67.771,0.014,72.234,0,76.816c-0.012,4.606,0.855,9.104,2.579,13.365c1.45,3.59,3.454,6.876,5.971,9.799
	c-2.506,2.896-4.499,6.154-5.942,9.722c-1.716,4.235-2.58,8.714-2.57,13.313c0.009,4.574,0.882,9.039,2.594,13.277
	c1.771,4.383,4.363,8.316,7.702,11.691c3.357,3.395,7.293,6.025,11.695,7.818c4.237,1.729,8.718,2.604,13.314,2.604
	c2.347,0,4.665-0.232,6.938-0.688c1.304-6.658,4.534-12.998,9.69-18.113l0.26-0.26c-0.175,0.117-0.353,0.229-0.528,0.348
	c-4.548,4.455-10.458,6.688-16.359,6.688c-5.978,0-11.941-2.285-16.463-6.854c-9.043-9.141-9.139-23.955,0-32.998l6.541-6.542
	l-6.541-6.542c-9.139-9.139-9.139-23.954,0-32.997c4.581-4.533,10.589-6.818,16.582-6.818c5.962,0,11.905,2.261,16.416,6.818
	l29.55,29.479l10.074,10.051l0.009,0.009l-0.023,0.024" class="color c2"/>
  <path fill="#E77773" d="M148.08,10.422c-3.357-3.395-7.293-6.025-11.695-7.818C132.147,0.877,127.668,0,123.07,0
	c-4.591,0-9.07,0.874-13.315,2.596c-3.572,1.451-6.844,3.447-9.755,5.955c-2.886-2.498-6.134-4.488-9.688-5.931
	c-4.221-1.714-8.688-2.583-13.275-2.583c-4.585,0-9.065,0.868-13.314,2.58c-4.398,1.772-8.342,4.368-11.725,7.715
	s-6.008,7.267-7.801,11.652c-1.728,4.22-2.609,8.684-2.622,13.264c-0.006,2.372,0.226,4.713,0.683,7.01
	c2.212,0.432,4.377,1.076,6.48,1.931c4.375,1.776,8.285,4.381,11.626,7.741c0.034-0.013,0.068-0.027,0.102-0.041l-0.01-0.012
	c-9.141-9.139-9.141-23.954,0-32.998c4.58-4.532,10.59-6.817,16.581-6.817c5.962,0,11.905,2.261,16.415,6.817l6.542,6.543
	l6.542-6.543c4.57-4.568,10.558-6.854,16.534-6.854s11.94,2.285,16.462,6.854c9.044,9.141,9.141,23.955,0,32.998l-39.511,39.607
	l0.009,0.01l1.103,1.105l7.398,7.381l39.49-39.586c5.155-5.113,8.386-11.452,9.691-18.109
	C159.895,31.149,156.688,19.119,148.08,10.422z" class="color c3"/>
  <path fill="#5FC0D1" d="M108.531,99.98l0.008,0.007l-0.02,0.019l-0.012-0.001l0.007-0.007l-0.003-0.002l-7.379-7.396l-1.103-1.105
	l-0.003,0.002l0,0l-8.535,8.514l8.502,8.482l0.01,0.01l0.023,0.021l1.359,1.357l38.25,38.156c3.347,3.375,7.27,5.99,11.657,7.771
	c2.091,0.85,4.242,1.488,6.438,1.922c2.238,0.439,4.523,0.662,6.838,0.662c4.585,0,9.065-0.869,13.314-2.582
	c4.397-1.771,8.344-4.367,11.726-7.713c3.382-3.348,6.007-7.268,7.802-11.652c1.727-4.221,2.607-8.684,2.62-13.265
	c0.012-4.606-0.855-9.104-2.578-13.366c-1.451-3.589-3.454-6.875-5.973-9.799c2.507-2.895,4.501-6.152,5.943-9.721
	c1.716-4.234,2.58-8.714,2.571-13.313c-0.01-4.573-0.881-9.04-2.595-13.276c-1.771-4.385-4.362-8.318-7.701-11.692
	c-3.358-3.395-7.294-6.024-11.695-7.819c-4.238-1.727-8.718-2.602-13.314-2.602c-2.361,0-4.691,0.234-6.977,0.693
	c-1.306,6.657-4.536,12.996-9.691,18.109l-0.185,0.186c0.029,0.041-0.031-0.01-0.003,0.031l0.32-0.293
	c4.57-4.568,10.559-6.701,16.535-6.701s11.94,2.284,16.461,6.854c9.044,9.139,9.141,23.955,0,32.997l-6.541,6.542l6.543,6.542
	c9.139,9.138,9.139,23.954-0.002,32.997c-4.58,4.533-10.589,6.818-16.581,6.818c-5.961,0-11.905-2.26-16.415-6.818l-38.415-38.322
	l-1.221-1.217l0.004-0.003" class="color c4"/>
</svg>