<svg version="1.1" id="图层_1" x="0px" y="0px" width="246.471px" height="126.039px" viewBox="0 0 246.471 126.039" enable-background="new 0 0 246.471 126.039" xml:space="preserve" xmlns:xml="http://www.w3.org/XML/1998/namespace" xmlns="http://www.w3.org/2000/svg" xmlns:xlink="http://www.w3.org/1999/xlink">
  <path fill="#9B121C" d="M53.824,4.802c0,0-10.724,13.222-4.769,32.305c4.58,14.683,10.76,22.863,24.543,34.729
	c13.778,11.863,24.514,23.223,35.127,31.612c8.724,6.896,10.569,8.463,12.698,10.333c2.908,2.557,7.063,6.188,7.063,6.188
	s-0.993,0.344-10.255,0.344c-5.369,0-13.008-0.396-16.844-0.396c-7.334,0-8.668-1.21-12.127-3.668
	c-3.111-2.211-10.945-8.485-13.437-10.978c-11.95-11.953-19.524-19.65-29.306-34.963s-9.317-34.21-6.946-43.771
	C43.412,11.048,53.824,4.802,53.824,4.802z" class="color c1"/>
  <path fill="#9B121C" d="M150.136,70.968c0,0,3.521-0.429,11.469,11.439c7.946,11.866,15.47,30.198,21.722,36.555
	s7.733,5.935,10.809,6.146c2.076,0.145,12.084,0.399,18.55,0.808c2.989,0.188,5.655,0.106,5.655,0.106s-6.51-1.762-12.127-10.451
	c-5.616-8.688-14.729-27.125-19.813-34.543s-10.172-9.963-16.213-10.066c-4.433-0.076-13.164-0.039-17.492-0.043
	C151.027,70.915,150.136,70.968,150.136,70.968z" class="color c1"/>
  <path fill="#D8181F" d="M196.394,125.213c0,0,5.147-4.039,8.963-8.911c3.815-4.875,8.688-12.186,11.765-17.803
	c3.069-5.615,8.58-15.363,8.58-15.363l5.998,15.341l14.771-4.851c0,0-6.253,12.291-10.914,18.543
	c-4.662,6.251-10.914,13.457-15.472,13.772c-4.558,0.318-8.599,0.574-14.851,0.098C198.984,125.563,196.394,125.213,196.394,125.213
	z" class="color c2"/>
  <path fill="#D8181F" d="M104.686,119.913c0,0,15.373-13.033,24.91-29.881c9.534-16.849,15.26-18.913,20.821-19.072
	c5.561-0.159,19.769,0,19.769,0s-5.783,6.994-15.953,22.411c-10.174,15.418-14.226,22.654-19.765,25.111
	c-5.903,2.623-13.19,1.354-19.739,1.391C108.473,119.907,104.686,119.913,104.686,119.913z" class="color c2"/>
  <path fill="#D8181F" d="M85.897,20.847c0.002,0.002,0.014,0.018,0.014,0.018S81.453,5.902,69.697,1.061
	c-11.756-4.841-21.6,8.271-23.899,11.644c-3.95,5.795-6.226,13.831-6.226,13.831s5.576-10.335,13.873-15.077
	c8.3-4.743,16.82-4.373,21.783-1.409c0.246,0.147,0.494,0.314,0.743,0.483c0.086,0.41,0.168,0.839,0.245,1.295
	c2.18,12.93-4.402,22.8-21.432,47.803C37.6,84.861,0,112.748,0,112.748s6.024,2.17,14.32,2.924
	c15.709,1.432,12.104,8.563,12.104,8.563s17-14.444,33.302-34.769c16.299-20.325,26.666-42.37,27.556-54.619
	C87.764,28.186,87.104,24.146,85.897,20.847z" class="color c2"/>
</svg>