<svg version="1.1" id="图层_1" x="0px" y="0px" width="313.5px" height="181.484px" viewBox="0 0 313.5 181.484" enable-background="new 0 0 313.5 181.484" xml:space="preserve" xmlns="http://www.w3.org/2000/svg" xmlns:xlink="http://www.w3.org/1999/xlink" xmlns:xml="http://www.w3.org/XML/1998/namespace">
  <g>
    <path fill="none" d="M182.814,17.521c0-3.222-2.621-5.842-5.842-5.842h-38.931c-3.221,0-5.842,2.62-5.842,5.842v11.392h50.614
		V17.521z"/>
    <path fill="#FFFFFF" d="M248.688,149.063c0.191-1.093,0.312-2.21,0.312-3.356v-97.33c0-10.731-8.733-19.465-19.465-19.465h-13.238
		v128.976c-4.397,0.924-8.912,1.763-13.538,2.497V28.912h-8.266V17.521c0-9.659-7.857-17.521-17.52-17.521h-38.931
		c-9.662,0-17.52,7.861-17.52,17.521v11.392h-8.265v130.352c-4.47-0.838-8.984-1.805-13.539-2.904V28.912H85.48
		c-10.73,0-19.465,8.732-19.465,19.465v97.33c0,0.185,0.022,0.362,0.027,0.545C44.605,138.146,22.489,126.825,0,111.474
		c0,0,64,71,157,70s156.5-64,156.5-64S289.025,135.512,248.688,149.063z M132.2,17.521c0-3.222,2.621-5.842,5.842-5.842h38.931
		c3.221,0,5.842,2.62,5.842,5.842v11.392H132.2V17.521z M183.787,102.176c0,1.719-1.398,3.117-3.116,3.117H176h-3.12h-3.679v3.679
		v3.116v4.675c0,1.724-1.398,3.113-3.116,3.113h-17.156c-1.722,0-3.116-1.396-3.116-3.113v-4.675v-3.116v-3.679h-6.328h-3.117
		h-2.022c-1.723,0-3.117-1.398-3.117-3.117V85.021c0-1.723,1.396-3.117,3.117-3.117h4.672h3.119h3.678v-3.682v-3.117v-4.666
		c0-1.721,1.396-3.117,3.116-3.117h17.156c1.72,0,3.114,1.397,3.114,3.117v4.666v3.117v3.682h3.681h3.116h4.675
		c1.722,0,3.114,1.396,3.114,3.117V102.176z" class="color c1"/>
  </g>
</svg>