<svg version="1.1" id="图层_1" x="0px" y="0px" width="94.268px" height="230.584px" viewBox="0 0 94.268 230.584" enable-background="new 0 0 94.268 230.584" xml:space="preserve" xmlns="http://www.w3.org/2000/svg" xmlns:xlink="http://www.w3.org/1999/xlink" xmlns:xml="http://www.w3.org/XML/1998/namespace">
  <path fill="#8DA72F" d="M18.89,46.59c3.129,0,5.665,2.537,5.665,5.665c0,3.129-2.536,5.665-5.665,5.665s-5.665-2.536-5.665-5.665
	C13.225,49.126,15.761,46.59,18.89,46.59z M9.94,63.495c3.553,0,6.434,2.88,6.434,6.433c0,3.553-2.881,6.433-6.434,6.433
	s-6.433-2.88-6.433-6.433C3.507,66.375,6.387,63.495,9.94,63.495z M6.882,82.675c3.801,0,6.882,3.082,6.882,6.882
	s-3.081,6.882-6.882,6.882S0,93.358,0,89.557S3.081,82.675,6.882,82.675z M10.699,101.513c4.083,0,7.393,3.31,7.393,7.393
	c0,4.083-3.31,7.393-7.393,7.393c-4.084,0-7.394-3.31-7.394-7.393C3.306,104.823,6.615,101.513,10.699,101.513z M17.845,119.892
	c4.578,0,8.29,3.711,8.29,8.289s-3.712,8.291-8.29,8.291s-8.29-3.713-8.29-8.291S13.267,119.892,17.845,119.892z M25.811,138.683
	c4.083,0,7.394,3.311,7.394,7.394s-3.311,7.393-7.394,7.393s-7.393-3.31-7.393-7.393S21.728,138.683,25.811,138.683z
	 M31.772,158.483c3.801,0,6.882,3.08,6.882,6.882c0,3.801-3.081,6.882-6.882,6.882s-6.882-3.081-6.882-6.882
	C24.89,161.563,27.971,158.483,31.772,158.483z M33.048,199.849c3.128,0,5.664,2.535,5.664,5.664c0,3.127-2.536,5.663-5.664,5.663
	s-5.664-2.536-5.664-5.663C27.384,202.384,29.92,199.849,33.048,199.849z M35.194,178.065c3.554,0,6.434,2.88,6.434,6.433
	s-2.88,6.433-6.434,6.433c-3.553,0-6.433-2.88-6.433-6.433S31.641,178.065,35.194,178.065z" class="color c1"/>
  <path fill="#8DA72F" d="M46.34,230.584c19.763-70.183,8.483-80.967-7.824-134.631C22.209,42.29,46.997,0,46.997,0
	c-8.886,34.867-13.112,43.262,8.085,113.487C76.278,183.714,46.34,230.584,46.34,230.584z" class="color c1"/>
  <path fill="#8DA72F" d="M84.549,114.452c4.083,0,7.393,3.31,7.393,7.393c0,4.084-3.31,7.394-7.393,7.394s-7.393-3.31-7.393-7.394
	C77.156,117.762,80.466,114.452,84.549,114.452z M63.474,58.363c3.801,0,6.882,3.082,6.882,6.882s-3.081,6.882-6.882,6.882
	s-6.882-3.081-6.882-6.882S59.673,58.363,63.474,58.363z M60.821,19.38c3.129,0,5.665,2.537,5.665,5.665
	c0,3.129-2.536,5.665-5.665,5.665c-3.128,0-5.665-2.536-5.665-5.665C55.156,21.917,57.693,19.38,60.821,19.38z M60.148,39.092
	c3.548-0.112,6.521,2.674,6.635,6.227c0.112,3.551-2.678,6.521-6.227,6.634c-3.549,0.113-6.521-2.674-6.635-6.227
	C53.81,42.175,56.598,39.205,60.148,39.092z M61.157,84.021c-0.13-4.082,3.075-7.495,7.153-7.625
	c4.081-0.13,7.496,3.072,7.625,7.155c0.131,4.081-3.074,7.494-7.153,7.624C64.704,91.305,61.288,88.102,61.157,84.021z
	 M76.548,94.487c4.578,0,8.29,3.712,8.29,8.29c0,4.579-3.712,8.29-8.29,8.29s-8.29-3.711-8.29-8.29
	C68.258,98.199,71.97,94.487,76.548,94.487z M76.319,172.595c3.129,0,5.665,2.537,5.665,5.665c0,3.129-2.536,5.665-5.665,5.665
	c-3.128,0-5.665-2.536-5.665-5.665C70.654,175.132,73.191,172.595,76.319,172.595z M85.781,154.2c3.554,0,6.434,2.88,6.434,6.433
	c0,3.554-2.88,6.433-6.434,6.433c-3.553,0-6.433-2.879-6.433-6.433C79.348,157.08,82.228,154.2,85.781,154.2z M87.386,134.522
	c3.8,0,6.881,3.08,6.881,6.881c0,3.8-3.081,6.881-6.881,6.881s-6.881-3.081-6.881-6.881
	C80.505,137.603,83.586,134.522,87.386,134.522z" class="color c1"/>
</svg>