<svg version="1.1" id="图层_1" x="0px" y="0px" width="191.043px" height="200px" viewBox="0 0 191.043 200" enable-background="new 0 0 191.043 200" xml:space="preserve" xmlns="http://www.w3.org/2000/svg" xmlns:xlink="http://www.w3.org/1999/xlink" xmlns:xml="http://www.w3.org/XML/1998/namespace">
  <g>
    <path fill="#00A2A9" d="M185.063,86.082c-6.41-9.154-16.977-14.196-29.754-14.196h-20.834l21.741-59.733
		c1.011-2.776,0.604-5.871-1.092-8.291C153.431,1.442,150.662,0,147.708,0c-24.931,0-51.507,19.361-60.503,44.077L77.084,71.885
		H11.539c-3.807,0-7.207,2.381-8.509,5.958c-4.802,13.191-3.872,25.8,2.615,35.505c5.829,8.721,15.435,13.903,27.124,14.664
		c0.449,0.067,0.906,0.103,1.367,0.103h22.481l-21.741,59.733c-1.01,2.775-0.604,5.87,1.092,8.291
		c1.693,2.42,4.463,3.861,7.418,3.861c23.616,0,49.521-18.068,59.395-41.287c0.193-0.365,0.363-0.747,0.508-1.143l9.213-25.313
		c-2.567-0.94-5.108-1.825-7.493-2.733c-11.874-4.935-22.087-7.195-31.435-16.846c-7.1-7.686-9.361-17.143-8.672-26.757
		c10.934,19.37,40.088,19.991,57.462,28.983c6.271,3.398,11.312,7.941,14.982,13.21h42.207c3.808,0,7.207-2.381,8.51-5.958
		C192.901,108.864,191.809,95.715,185.063,86.082z" class="color c1"/>
  </g>
</svg>