<svg version="1.1" id="图层_1" x="0px" y="0px" width="141.182px" height="159.021px" viewBox="0 0 141.182 159.021" enable-background="new 0 0 141.182 159.021" xml:space="preserve" xmlns="http://www.w3.org/2000/svg" xmlns:xlink="http://www.w3.org/1999/xlink" xmlns:xml="http://www.w3.org/XML/1998/namespace">
  <path fill="#E976AE" d="M91.042,104.546c0.001-0.001,0.001-0.002,0.002-0.002c1.142-1.121,2.261-2.228,3.329-3.3
	c18.377-18.442,25.949-24.035,39.771-48.205c5.172-9.044,12.864-27.726-0.052-42.254C115.515-10.11,76.357,2.543,70.591,21.731
	C64.824,2.543,25.666-10.11,7.088,10.785c-12.916,14.528-5.222,33.21-0.05,42.254c13.82,24.169,21.392,29.762,39.771,48.205
	c1.069,1.072,2.188,2.179,3.329,3.3c-21.801,15.02-43.974,29.05-45.647,32.532c-1.086,2.255,19.18,4.86,19.18,4.86
	s-4.473,17.108-2.127,17.085c6.853-0.069,28.744-17.254,49.047-35.375c20.302,18.12,42.194,35.302,49.048,35.375
	c2.2,0.023-0.875-16.249-0.875-16.249s19.012-3.441,17.926-5.696C135.015,133.594,112.843,119.565,91.042,104.546z M70.594,21.729
	c0,0-0.002,0.005-0.002,0.005c0,0,0-0.001,0-0.001C70.592,21.731,70.593,21.73,70.594,21.729z M22.237,45.233
	C16.546,25.953,38.604,9.386,56.081,18.827c4.611,2.488,7.982,5.12,10.767,8.354c1.776,2.065,5.712,2.065,7.485,0
	c2.785-3.233,6.158-5.865,10.769-8.354c17.477-9.441,39.534,7.126,33.841,26.407C106.698,64.945,99.552,69.544,70.589,90.1
	C41.62,69.536,34.483,64.948,22.237,45.233z" class="color c1"/>
  <path fill="#CE1975" d="M76.719,129.047c2.084-2.046,4.026-4.22,6.053-6.32c1.459-1.516,3.123-2.851,4.662-4.288
	c1.741-1.625,3.45-3.282,5.129-4.975c1.547-1.558,3.063-3.15,4.551-4.764c-2.017-1.371-4.044-2.761-6.07-4.156
	c-6.002,5.893-12.935,12.382-20.086,18.775C72.637,125.207,74.517,127.134,76.719,129.047z" class="color c2"/>
</svg>