<svg version="1.1" id="图层_1" x="0px" y="0px" width="137.534px" height="127.42px" viewBox="0 0 137.534 127.42" enable-background="new 0 0 137.534 127.42" xml:space="preserve" xmlns="http://www.w3.org/2000/svg" xmlns:xlink="http://www.w3.org/1999/xlink" xmlns:xml="http://www.w3.org/XML/1998/namespace">
  <path fill="none" d="M76.334,47.672l-6.345,0.987c-1.35,0.267-2.614,0.636-3.895,1.192l-4.877,2.724
	c-0.495,0.243-0.903,0.589-1.311,0.934l-1.226,1.037l-3.597,4.442c-3.265,5.056-4.851,11.915-4.913,20.563
	c8.768,1.473,15.968,1.084,21.605-1.344l4.979-2.81l1.225-1.036c0.408-0.346,0.816-0.689,1.139-1.139l3.495-4.355
	c0.763-1.17,1.335-2.355,1.823-3.643l2.027-6.092c0.951-4.058,1.334-7.976,1.436-10.984C84.863,47.713,80.73,47.392,76.334,47.672z"/>
  <path fill="#00092D" d="M39.823,79.25l0.339,8.745l-1.531-0.318c-6.359-1.102-20.014-2.338-29.17,5.057c0,0-4.808,3.451-8.246-0.486
	s1.511-7.479,1.511-7.479l0.103-0.086c11.403-9.293,26.917-8.755,35.453-7.566l1.583,0.33C39.844,78.042,39.829,78.642,39.823,79.25
	z M111.785,24.344l-8.094-9.57l1.15-1.827c0.848-1.067,1.799-2.222,2.922-3.172c0,0,5.285-4.506,1.16-8.173s-7.98,0.107-7.98,0.107
	l-0.104,0.086c-11.057,9.702-13.205,25.177-13.553,33.877l0.119,1.945l0.521,8.545c0.004,0.603-0.004,1.27-0.027,1.987
	c-0.102,3.009-0.484,6.926-1.436,10.984l-2.027,6.092c-0.488,1.287-1.061,2.473-1.823,3.643l-3.495,4.355
	c-0.322,0.449-0.73,0.793-1.139,1.139l-1.225,1.036l-4.979,2.81c-5.637,2.428-12.837,2.816-21.605,1.344
	c-0.005,0.59-0.002,1.189,0.007,1.797l0.339,8.732c14.576,2.069,26.132-0.594,34.401-7.928c10.199-9.109,12.738-22.877,13.27-31.726
	c0.045-0.759,0.077-1.486,0.097-2.167l-0.286-8.619l-0.064-1.941c0.017-2.465,0.127-6.062,0.834-9.987l1.127-4.35l5.441,6.435
	c1.506,1.781,4.17,2.004,5.951,0.498C113.068,28.79,113.291,26.125,111.785,24.344z" class="color c1"/>
  <path fill="#FFCC2D" d="M135.365,42.931l-0.102,0.086c-11.404,9.293-27.021,8.842-35.658,7.74l-1.418-0.329
	c0.045-0.759,0.077-1.486,0.097-2.167l-0.286-8.619l1.375,0.279c2.435,0.394,5.998,0.881,9.988,0.835l6.689-0.579
	c1.248-0.18,2.41-0.463,3.572-0.745l5.308-2.213c1.194-0.659,2.489-1.404,3.613-2.354c0,0,3.64-2.899,7.39,0.507
	C139.84,38.654,135.365,42.931,135.365,42.931z M53.376,45.374c-8.5,6.852-13.038,17.625-13.513,32.073
	c-0.02,0.596-0.035,1.195-0.041,1.804l0.339,8.745l0.081,2.105c0.018,3.84-0.361,10.232-2.514,16.425l-7.931-9.377
	c-1.505-1.78-4.17-2.004-5.952-0.497c-1.781,1.506-2.003,4.17-0.497,5.951l9.288,10.982c0.297,0.352,0.648,0.625,1.021,0.854
	c-0.947,1.284-2.012,2.498-3.244,3.589c0,0-4.115,3.615-0.365,7.532s7.1,0.431,7.1,0.431l0.102-0.086
	c11.058-9.702,13.104-25.091,13.35-33.704l-0.083-2.119l-0.339-8.732c-0.01-0.607-0.012-1.207-0.007-1.797
	c0.04-5.483,0.697-10.242,2.001-14.283l6.095,7.207c1.506,1.781,4.171,2.004,5.952,0.498c1.781-1.506,2.004-4.17,0.498-5.951
	l-8.244-9.749l2.209-2.728l1.226-1.037c0.408-0.345,0.816-0.691,1.311-0.934l1.173-0.655c0.152,0.604,0.425,1.187,0.854,1.694
	l9.287,10.982c1.507,1.781,4.171,2.004,5.952,0.498c1.781-1.506,2.004-4.171,0.498-5.952l-8.881-10.501l6.232-0.97
	c4.396-0.28,8.529,0.041,11.566,0.477c0.023-0.717,0.031-1.384,0.027-1.987l-0.521-8.545C78.633,36.605,64.272,36.653,53.376,45.374
	z" class="color c2"/>
</svg>