<svg version="1.1" id="图层_1" x="0px" y="0px" width="108.072px" height="190.185px" viewBox="0 0 108.072 190.185" enable-background="new 0 0 108.072 190.185" xml:space="preserve" xmlns="http://www.w3.org/2000/svg" xmlns:xlink="http://www.w3.org/1999/xlink" xmlns:xml="http://www.w3.org/XML/1998/namespace">
  <path fill="#0DAAD7" d="M32.562,41.778c1.513-1.174,3.125-2.127,4.791-2.903l1.311,1.688c1.884,2.424,1.443,5.927-0.981,7.809
	l-0.34,0.266c1.677,0.935,3.314,1.958,4.894,3.084c3.809-3.914,4.267-10.138,0.824-14.571l-0.086-0.109
	c3.309-0.662,6.701-0.654,9.976,0.014c-3.906,4.904-4.155,12.018-0.141,17.187c4.706,6.06,13.464,7.161,19.522,2.455
	c0.038-0.027,0.072-0.063,0.109-0.096c1.277,6.372,0.038,13.064-3.531,18.577c-0.235-0.394-0.457-0.791-0.741-1.157
	c-2.442-3.145-6.245-4.56-9.943-4.168c1.005,1.856,1.878,3.756,2.642,5.682c1.113,0.303,2.146,0.921,2.907,1.9
	c0.58,0.749,0.938,1.628,1.087,2.546c-0.508,0.469-1.023,0.929-1.577,1.358l-0.398,0.311c0.529,2.02,0.927,4.058,1.211,6.103
	l2.599-2.018c0.743-0.576,1.438-1.188,2.11-1.817l8.936,11.506c-1.845,2.891-1.813,6.74,0.41,9.603
	c2.823,3.634,8.079,4.295,11.713,1.472c3.636-2.823,4.296-8.076,1.474-11.712c-2.223-2.861-5.945-3.849-9.201-2.777L72.56,79.676
	c2.112-2.878,3.671-6.058,4.66-9.396l10.482,4.065c0.145,1.529,0.688,3.033,1.694,4.329c2.824,3.637,8.079,4.295,11.713,1.473
	c3.635-2.822,4.297-8.078,1.475-11.713c-2.823-3.636-8.08-4.296-11.715-1.474c-0.724,0.56-1.291,1.237-1.774,1.957l-10.771-4.178
	c0.31-2.945,0.191-5.93-0.359-8.867l3.831-0.762c0.175,0.289,0.328,0.589,0.541,0.86c2.823,3.637,8.079,4.297,11.714,1.475
	c3.635-2.822,4.296-8.08,1.472-11.714c-2.822-3.635-8.078-4.295-11.713-1.475c-1.773,1.378-2.825,3.337-3.125,5.401l-4.235,0.845
	c-1.047-2.707-2.485-5.311-4.354-7.717c-0.577-0.743-1.19-1.438-1.819-2.112l4.913-3.814c2.89,1.846,6.739,1.813,9.603-0.41
	c3.635-2.822,4.295-8.079,1.472-11.713c-2.823-3.635-8.079-4.297-11.712-1.474c-2.862,2.222-3.847,5.944-2.776,9.2l-5.739,4.458
	c-3.372-2.478-7.159-4.206-11.129-5.138l2.27-8.292c1.968,0.127,3.986-0.401,5.66-1.702c3.636-2.823,4.297-8.078,1.475-11.713
	C61.491,6.439,56.235,5.781,52.6,8.604c-3.636,2.821-4.296,8.077-1.474,11.712c0.271,0.35,0.586,0.65,0.897,0.941l-2.668,9.761
	c-2.375-0.113-4.761,0.054-7.116,0.496l-3.193-16.034c0.288-0.173,0.587-0.329,0.858-0.541c3.636-2.823,4.296-8.077,1.473-11.713
	c-2.824-3.637-8.078-4.298-11.713-1.473c-3.634,2.821-4.296,8.077-1.474,11.712c1.377,1.774,3.336,2.825,5.401,3.124l3.274,16.44
	c-2.706,1.049-5.311,2.483-7.717,4.353c-0.666,0.518-1.378,1.152-2.102,1.833l-5.531-7.123c1.844-2.893,1.813-6.74-0.41-9.602
	c-2.824-3.637-8.078-4.297-11.713-1.473c-3.635,2.822-4.296,8.077-1.474,11.712c2.224,2.861,5.943,3.847,9.202,2.776l5.963,7.68
	c2.065,0.464,4.104,1.049,6.104,1.757C30.362,43.693,31.547,42.566,32.562,41.778z M86.942,98.197
	c0.941,1.211,0.723,2.961-0.492,3.902c-1.211,0.944-2.963,0.722-3.903-0.489c-0.941-1.211-0.724-2.963,0.489-3.905
	S86.001,96.985,86.942,98.197z M98.188,71.848c0.94,1.211,0.724,2.963-0.491,3.904c-1.212,0.941-2.963,0.719-3.903-0.491
	c-0.941-1.212-0.723-2.962,0.49-3.904S97.248,70.638,98.188,71.848z M91.128,49.144c0.941,1.212,0.721,2.963-0.489,3.906
	c-1.215,0.941-2.966,0.721-3.907-0.491c-0.94-1.212-0.721-2.963,0.493-3.903C88.437,47.711,90.188,47.935,91.128,49.144z
	 M77.967,27.657c1.213-0.942,2.964-0.72,3.905,0.492c0.939,1.211,0.722,2.963-0.491,3.905c-1.214,0.94-2.965,0.721-3.905-0.492
	C76.535,30.353,76.753,28.598,77.967,27.657z M58.808,39.039c3.375,1.622,6.445,4.005,8.895,7.159
	c1.107,1.427,2.026,2.938,2.779,4.5c-0.449,0.599-0.969,1.14-1.565,1.604c-3.633,2.821-8.89,2.161-11.712-1.474
	c-2.824-3.634-2.163-8.892,1.473-11.714C58.717,39.082,58.767,39.064,58.808,39.039z M55.521,16.901
	c-0.941-1.209-0.723-2.962,0.491-3.902c1.213-0.942,2.964-0.722,3.904,0.49c0.941,1.211,0.722,2.962-0.492,3.905
	C58.213,18.336,56.461,18.113,55.521,16.901z M32.586,10.051c-0.941-1.211-0.722-2.962,0.49-3.903
	c1.213-0.942,2.965-0.721,3.904,0.49c0.941,1.211,0.722,2.964-0.491,3.906C35.277,11.484,33.528,11.263,32.586,10.051z
	 M12.315,29.316c-0.941-1.211-0.723-2.963,0.491-3.904c1.213-0.942,2.964-0.719,3.905,0.492c0.939,1.21,0.723,2.962-0.491,3.904
	C15.007,30.749,13.256,30.528,12.315,29.316z M66.92,162.977c-1.57,3.123-1.139,7.021,1.407,9.69
	c3.234,3.393,8.628,3.521,12.022,0.285c3.394-3.236,3.521-8.63,0.285-12.023c-2.546-2.672-6.421-3.288-9.611-1.864l-4.373-4.585
	c0.737-0.583,1.461-1.187,2.152-1.852c2.248-2.142,4.089-4.547,5.547-7.113l4.14,1.488c-0.007,2.124,0.757,4.255,2.335,5.908
	c3.234,3.393,8.628,3.521,12.021,0.286c3.394-3.234,3.521-8.63,0.284-12.021c-3.233-3.392-8.627-3.52-12.02-0.285
	c-0.253,0.242-0.456,0.521-0.671,0.786l-3.743-1.344c1-2.877,1.566-5.866,1.702-8.878l14.309-3.218
	c0.224,0.313,0.438,0.63,0.713,0.92c3.235,3.39,8.627,3.516,12.02,0.279c3.395-3.232,3.523-8.625,0.289-12.017
	c-3.238-3.396-8.63-3.521-12.023-0.285c-1.62,1.541-2.472,3.576-2.596,5.646l-12.991,2.926c-0.871-6.234-3.603-12.268-8.267-17.159
	c-1.782-1.869-3.792-3.468-5.956-4.828c-0.333,2.018-0.769,4.014-1.33,5.98c1.124,0.835,2.204,1.733,3.182,2.761
	c0.493,0.517,0.944,1.06,1.383,1.606c-0.285,0.905-0.779,1.731-1.479,2.4c-1.665,1.589-4.052,1.951-6.059,1.131
	c-0.271,0.576-0.544,1.154-0.838,1.723c-0.552,1.114-1.135,2.215-1.783,3.289c4.105,1.905,9.124,1.268,12.594-2.039
	c0.339-0.326,0.624-0.694,0.918-1.053c2.761,6.089,3,13.02,0.748,19.246c-0.031-0.035-0.059-0.076-0.09-0.111
	c-5.395-5.658-14.384-5.871-20.039-0.479c-4.824,4.604-5.648,11.805-2.454,17.337c-3.4,0.178-6.82-0.327-10.051-1.494l0.105-0.096
	c4.017-3.832,4.54-9.904,1.594-14.387c-1.606,1.025-3.248,1.953-4.918,2.783c1.708,2.265,1.512,5.496-0.59,7.5l-1.573,1.502
	c-1.562-1.035-3.044-2.238-4.392-3.648c-0.631-0.662-1.204-1.363-1.749-2.079c-3.439,1.024-6.944,1.677-10.467,1.978l-4.287,4.089
	c-3.121-1.571-7.018-1.141-9.688,1.406c-3.395,3.235-3.521,8.631-0.287,12.023c3.236,3.392,8.629,3.52,12.024,0.284
	c2.67-2.547,3.287-6.419,1.864-9.611l6.636-6.327c0.589,0.734,1.196,1.458,1.855,2.149c2.141,2.243,4.547,4.087,7.112,5.549
	l-5.783,16.064c-2.122-0.007-4.253,0.756-5.91,2.336c-3.393,3.234-3.521,8.628-0.284,12.021c3.233,3.391,8.628,3.521,12.019,0.283
	c3.396-3.234,3.522-8.629,0.289-12.021c-0.243-0.255-0.521-0.457-0.788-0.673l5.641-15.67c2.305,0.802,4.685,1.33,7.092,1.575
	l1.213,10.232c-0.357,0.25-0.716,0.5-1.042,0.813c-3.394,3.232-3.521,8.631-0.286,12.021c3.234,3.393,8.629,3.522,12.023,0.287
	c3.389-3.238,3.517-8.633,0.282-12.025c-1.493-1.564-3.442-2.397-5.441-2.567l-1.033-8.696c4.137-0.336,8.216-1.508,11.984-3.493
	L66.92,162.977z M76.531,164.841c1.076,1.128,1.038,2.928-0.094,4.009c-1.133,1.077-2.931,1.03-4.008-0.095
	c-1.079-1.134-1.038-2.93,0.095-4.009C73.656,163.664,75.454,163.711,76.531,164.841z M89.028,145.088
	c1.081,1.135,1.037,2.926-0.094,4.009c-1.133,1.079-2.929,1.036-4.006-0.094c-1.08-1.133-1.037-2.929,0.094-4.009
	C86.153,143.913,87.953,143.961,89.028,145.088z M101.625,121.331c1.074,1.127,1.036,2.927-0.095,4.007
	c-1.132,1.081-2.93,1.037-4.008-0.092c-1.078-1.132-1.038-2.931,0.096-4.011C98.748,120.155,100.545,120.2,101.625,121.331z
	 M10.457,161.269c-1.132,1.081-2.929,1.036-4.006-0.094c-1.079-1.132-1.037-2.929,0.096-4.011c1.132-1.076,2.928-1.033,4.007,0.099
	C11.63,158.393,11.59,160.188,10.457,161.269z M28.061,179.729c1.083,1.131,1.04,2.927-0.093,4.006
	c-1.134,1.078-2.931,1.038-4.009-0.094c-1.076-1.128-1.035-2.928,0.098-4.007C25.188,178.554,26.983,178.6,28.061,179.729z
	 M52.198,176.292c1.079,1.129,1.04,2.929-0.093,4.008c-1.133,1.077-2.933,1.034-4.008-0.095c-1.078-1.132-1.035-2.93,0.098-4.007
	C49.328,175.117,51.121,175.16,52.198,176.292z M54.849,154.397c-0.039-0.037-0.083-0.062-0.118-0.097
	c-3.235-3.393-3.108-8.787,0.284-12.021c3.392-3.237,8.787-3.108,12.022,0.286c0.531,0.555,0.973,1.178,1.334,1.849
	c-0.997,1.462-2.149,2.844-3.482,4.111C61.945,151.334,58.493,153.271,54.849,154.397z" class="color c1"/>
</svg>