<svg version="1.1" id="图层_1" x="0px" y="0px" width="175.075px" height="168.212px" viewBox="0 0 175.075 168.212" enable-background="new 0 0 175.075 168.212" xml:space="preserve" xmlns="http://www.w3.org/2000/svg" xmlns:xlink="http://www.w3.org/1999/xlink" xmlns:xml="http://www.w3.org/XML/1998/namespace">
  <path fill="#ED1E79" d="M174.091,63.072c-0.005-0.034-1.931-7.621-9.48-10.676c-1.68-0.698-3.707-1.067-5.858-1.067
	c-2.77,0-5.576,0.624-8.116,1.804c-5.641,2.621-12.604,7.756-20.7,15.263c-6.523-1.771-13.758-3.824-21.505-6.104
	c-4.535-6.625-8.679-12.81-12.315-18.387c4.721-10.144,7.497-18.438,8.251-24.653c0.729-6.004-1.493-11.036-3.619-13.52
	C96.28,0.414,89.994,0,88.173,0c-0.318,0-0.511,0.012-0.546,0.015C87.623,0.012,87.431,0,87.113,0c-1.82,0-8.105,0.414-12.574,5.734
	c-2.124,2.481-4.347,7.512-3.618,13.518c0.748,6.164,3.486,14.376,8.14,24.411c-3.708,5.671-7.91,11.939-12.491,18.63
	c-7.701,2.266-14.877,4.301-21.335,6.05c-8.147-7.575-15.142-12.746-20.794-15.371c-2.541-1.181-5.347-1.804-8.116-1.805
	c-2.151,0-4.178,0.37-5.861,1.068C2.915,55.29,0.987,62.877,0.969,62.954c-0.016,0.03-2.916,7.301,1.396,14.21
	c1.706,2.787,5.804,6.456,11.739,7.618c2.874,0.563,6.358,0.849,10.355,0.849c4.495,0,9.731-0.359,15.567-1.069
	c4.227,5.24,8.87,11.146,13.804,17.554c-0.224,7.983-0.505,15.428-0.838,22.128c-9.73,5.409-16.816,10.469-21.064,15.038
	c-4.119,4.428-5.278,9.805-5.019,13.063c0.572,8.121,7.192,12.3,7.259,12.341c0.135,0.119,4.22,3.526,10.191,3.526
	c1.257,0,2.521-0.155,3.754-0.463c3.176-0.759,7.932-3.521,10.873-8.81c3.032-5.452,5.653-13.751,7.791-24.672
	c6.298-2.398,13.316-4.977,20.866-7.665c7.521,2.678,14.54,5.256,20.868,7.665c2.137,10.92,4.757,19.22,7.79,24.672
	c2.941,5.287,7.697,8.051,10.876,8.811c1.23,0.307,2.494,0.462,3.751,0.462c5.973,0,10.058-3.407,10.229-3.553
	c0.03-0.015,6.65-4.193,7.223-12.316c0.26-3.257-0.899-8.634-5.019-13.063c-4.275-4.597-11.417-9.686-21.228-15.126
	c-0.337-6.7-0.619-14.093-0.839-21.978c4.901-6.363,9.52-12.235,13.728-17.457c5.847,0.712,11.092,1.073,15.594,1.073
	c3.997,0,7.481-0.286,10.356-0.85c5.936-1.162,10.033-4.831,11.739-7.619C177.023,70.416,174.122,63.145,174.091,63.072z
	 M16.324,51.468c0.07,0,0.142,0.005,0.212,0.005c-0.108-0.001-0.217-0.001-0.324,0C16.25,51.473,16.285,51.468,16.324,51.468z
	 M24.459,85.331c-0.041,0-0.079-0.002-0.119-0.002c0.052,0,0.102,0.001,0.153,0.001C24.482,85.33,24.47,85.331,24.459,85.331z
	 M10.502,76.295c-0.968-0.498-4.624-2.969-1.971-10.905c2.12-6.714,5.522-7.717,7.363-7.717c0.281,0,0.508,0.025,0.667,0.05
	c3.537,3.445,8.02,8.348,13.328,14.577C21.903,74.235,15.384,75.579,10.502,76.295z M44.359,167.912c-0.1,0-0.195-0.009-0.294-0.011
	c0.351,0.007,0.705,0.007,1.068-0.012C44.872,167.902,44.613,167.912,44.359,167.912z M49.813,159.733
	c-0.413,0.41-1.666,1.441-3.818,1.441c-2.132,0-4.546-0.985-7.174-2.929c-6.809-4.862-5.308-9.014-4.817-9.987
	c4.375-2.293,10.43-5.037,18.004-8.158C51.38,148.271,50.642,154.874,49.813,159.733z M88.173,0.3c0.03,0,0.072,0.001,0.105,0.001
	c-0.091,0-0.181-0.001-0.253,0C88.073,0.301,88.118,0.3,88.173,0.3z M87.113,0.3c0.055,0,0.1,0.001,0.147,0.001
	c-0.073-0.001-0.162,0-0.253,0C87.041,0.302,87.082,0.3,87.113,0.3z M77.864,13.295c0.139-1.069,1.222-5.335,9.572-5.335l0.205,0
	h0.002h0.002l0.205,0c7.869,0,9.289,3.819,9.543,5.146c-2.212,4.431-5.53,10.238-9.866,17.266
	C83.278,23.445,80.028,17.701,77.864,13.295z M104.009,96.249l-0.072,0.089l0.006,0.114c0.005,0.086,0.434,8.538,1.731,19.409
	c-9.938-4.594-17.845-7.614-17.925-7.645l-0.106-0.041l-0.107,0.041c-0.08,0.03-7.985,3.051-17.923,7.645
	c1.199-10.04,1.656-18.001,1.722-19.229l0.103-0.034l-0.095-0.118c0-0.005,0.001-0.026,0.001-0.027l0.021-0.437l-0.314,0.104
	c-0.78-0.96-5.826-7.127-12.694-14.542c10.209-2.021,18.082-4.107,18.908-4.329l0.135,0.182l0.172-0.265l0.201-0.054l-0.087-0.12
	c0.479-0.738,4.891-7.573,9.957-16.643c4.939,8.841,9.255,15.558,9.914,16.575l-0.251,0.349l0.418,0.113
	c0.006,0.001,0.069,0.019,0.162,0.043l0.004,0.006l0.003-0.004c1.174,0.313,8.879,2.337,18.795,4.301
	C109.316,89.683,104.062,96.184,104.009,96.249z M130.928,167.912c-0.254,0-0.513-0.01-0.773-0.022
	c0.363,0.019,0.717,0.019,1.067,0.012C131.124,167.903,131.028,167.912,130.928,167.912z M141.285,148.26
	c0.49,0.974,1.99,5.124-4.815,9.983c-2.632,1.946-5.045,2.932-7.178,2.932c-2.34,0-3.619-1.223-3.91-1.538
	c-0.85-4.856-1.604-11.446-2.245-19.595C130.784,143.19,136.887,145.954,141.285,148.26z M158.752,51.629
	c0.04,0,0.077,0.005,0.117,0.005c-0.112-0.001-0.226-0.001-0.339,0C158.604,51.634,158.679,51.629,158.752,51.629z M150.616,85.491
	c-0.006,0-0.012,0-0.017,0c0.024,0,0.049-0.001,0.073-0.001C150.653,85.49,150.635,85.491,150.616,85.491z M164.667,76.406
	c-4.887-0.736-11.418-2.097-19.423-4.047c5.267-6.175,9.721-11.041,13.242-14.469c0.149-0.025,0.39-0.054,0.692-0.054
	c1.842,0,5.246,1.001,7.364,7.711C169.092,73.177,165.865,75.746,164.667,76.406z" class="color c1"/>
</svg>