<svg version="1.1" id="图层_1" x="0px" y="0px" width="35px" height="35px" viewBox="0 0 35 35" enable-background="new 0 0 35 35" xml:space="preserve" xmlns="http://www.w3.org/2000/svg" xmlns:xlink="http://www.w3.org/1999/xlink" xmlns:xml="http://www.w3.org/XML/1998/namespace">
  <path fill="#FFFFFF" d="M31.326,10H25V3.738C25,1.908,23.156,0,21.326,0h-8.372C11.125,0,10,1.908,10,3.738V10H2.955
	C1.125,10,0,11.909,0,13.739v8.371C0,23.94,1.125,25,2.955,25H10v7.111C10,33.941,11.125,35,12.955,35h8.372
	C23.156,35,25,33.941,25,32.111V25h6.326C33.156,25,35,23.94,35,22.11v-8.371C35,11.909,33.156,10,31.326,10z" class="color c1"/>
</svg>