<svg version="1.1" id="图层_1" x="0px" y="0px" width="107.091px" height="139.212px" viewBox="0 0 107.091 139.212" enable-background="new 0 0 107.091 139.212" xml:space="preserve" xmlns="http://www.w3.org/2000/svg" xmlns:xlink="http://www.w3.org/1999/xlink" xmlns:xml="http://www.w3.org/XML/1998/namespace">
  <path fill="#91B339" d="M50.044,113.382l38.892-0.107c6.59,0,11.934-5.35,11.934-11.951l6.221-34.829
	c0-6.6-3.813-10.214-10.402-10.214H52.517l7.777-44.842C60.294,4.84,57.909,0,51.318,0h-26.33c0,0-16.131,2.267-23.559,21.612l0,0
	c-0.024,0.059-2.461,5.996-0.917,16.223c1.425,9.444,6.634,24.581,23.351,43.059c0.062,0.068,6.22,6.896,12.111,16.518
	c2.736,4.469,5.694,10.02,7.859,15.988c0,0,4.305,14.758,0.553,25.813c0,0,5.375-6.084,4.157-23.629
	C48.543,115.583,48.02,113.287,50.044,113.382z" class="color c1"/>
</svg>