<svg version="1.1" id="图层_1" x="0px" y="0px" width="117.316px" height="111.578px" viewBox="0 0 117.316 111.578" enable-background="new 0 0 117.316 111.578" xml:space="preserve" xmlns="http://www.w3.org/2000/svg" xmlns:xlink="http://www.w3.org/1999/xlink" xmlns:xml="http://www.w3.org/XML/1998/namespace">
  <path fill="#FFFFFF" d="M34.355,39.327c-0.59-1.862-2.271-5.764-0.771-7.397c1.314-1.179,2.314,0.043,2.314,0.043
	C33.9,21.899,31.27,8.6,45.34,4.608c0-8.668,32.855-4.811,36.803,9.078c1.816,5.443-0.543,18.152-0.543,18.152
	c0.453-0.863,1.09-1.088,1.814-0.545c1.814,1.225-0.135,6.399-0.633,8.033c-0.412,1.588-0.91,2.632-1.318,3.356v0.321
	c0,1.313-0.547,2.357-1.227,2.448c-3.221,12.479-13.252,22.874-21.42,22.874c-8.805,0-18.652-10.395-21.922-22.874h-0.043
	c-0.729,0-1.316-1.088-1.316-2.448c0-0.183,0-0.364,0-0.547C35.172,41.778,34.715,40.778,34.355,39.327z M84.48,71.559v10.984
	c2.513,1.212,4.25,3.775,4.25,6.752c0,4.142-3.357,7.5-7.5,7.5s-7.5-3.358-7.5-7.5c0-3.358,2.207-6.2,5.25-7.156V68.918
	c-1.286-0.686-2.658-1.392-4.098-2.225c-4.811,3.266-10.26,5.082-16.02,5.082c-5.857,0-11.393-1.861-16.25-5.219
	c-0.838,0.498-1.653,0.93-2.466,1.357v7.543c7.586,1.135,13.45,7.599,13.45,15.516v14.479c0,0.953-0.725,1.676-1.635,1.676h-0.322
	c-0.169,0.047-0.355,0.074-0.568,0.074h-6.666c-1.61,0-2.917-1.395-2.917-3.115c0-1.72,1.307-3.115,2.917-3.115h3.926v-9.998
	c0-6.898-5.519-10.262-9.529-10.525c-4.011-0.265-11.57,3.627-11.57,10.525v9.822h4.331c1.61,0,2.917,1.394,2.917,3.114
	c0,1.72-1.307,3.114-2.917,3.114h-1.96c-0.175,0.064-0.361,0.104-0.559,0.104h-5.49c-0.91,0-1.635-0.723-1.635-1.676V90.973
	c0-7.643,5.51-13.961,12.728-15.416v-4.939C11.607,81.207,0,77.048,0,111.578h58.816h0.637h57.863
	C117.316,79.24,106.266,81.326,84.48,71.559z" class="color c1"/>
</svg>