<svg version="1.1" id="图层_1" x="0px" y="0px" width="146.644px" height="144.568px" viewBox="0 0 146.644 144.568" enable-background="new 0 0 146.644 144.568" xml:space="preserve" xmlns="http://www.w3.org/2000/svg" xmlns:xlink="http://www.w3.org/1999/xlink" xmlns:xml="http://www.w3.org/XML/1998/namespace">
  <path fill="#CF0000" d="M27.243,72.292c0.182-5.066,1.481-10.002,3.77-14.807c3.769-7.912,8.736-15.041,14.159-21.861
	C54.638,23.72,64.205,11.896,73.76,0c0.929,1.294,1.96,2.855,3.114,4.319c8.028,10.177,16.238,20.215,24.067,30.542
	c4.527,5.971,8.702,12.245,12.603,18.646c3.198,5.248,4.946,10.58,5.588,15.792L27.243,72.292z M146.604,68.843
	c-0.005-0.147-0.014-0.292-0.02-0.439l-27.452,0.894c1.799,14.592-5.144,28.224-13.771,36.306
	c-13.151,12.321-28.696,16.238-45.857,10.799c-17.38-5.508-27.8-17.855-31.536-35.702c-0.595-2.843-0.824-5.645-0.725-8.41L0,73.18
	c0.004,0.147,0.004,0.292,0.009,0.439c1.319,40.481,35.204,72.229,75.685,70.91C116.175,143.21,147.923,109.325,146.604,68.843z" class="color c1"/>
</svg>