<svg version="1.1" id="图层_1" x="0px" y="0px" width="197.111px" height="197.111px" viewBox="0 0 197.111 197.111" enable-background="new 0 0 197.111 197.111" xml:space="preserve" xmlns="http://www.w3.org/2000/svg" xmlns:xlink="http://www.w3.org/1999/xlink" xmlns:xml="http://www.w3.org/XML/1998/namespace">
  <path fill="#316ED8" d="M196.366,94.945l0.011-0.008c-7.414-0.031-25.056,0.225-30.383,1.16c-7.442,1.295-7.744,8.645-13.575,7.881
	c-2.058-0.281-3.844-1.624-4.994-3.313c-2.618-3.803-2.058-11.262-7.57-12.542c-0.48-0.119-0.944-0.164-1.372-0.168
	c0.148,0.004,0.299-0.002,0.452-0.022h0.001l-0.001,0.001c8.165-0.053,9.421-12.953,17.81-3.279
	c3.902,4.499,9.729,7.323,15.486,8.519c1.547,0.319,3.088,0.525,4.582,0.611c3.708,0.219,13.892,0.268,20.3,0.287V74.36
	c0-7.632-6.188-13.817-13.818-13.817h-48.314V13.817C134.978,6.187,128.793,0,121.16,0H75.949c-7.631,0-13.818,6.188-13.818,13.817
	v46.726H13.818C6.187,60.543,0,66.729,0,74.36v19.62c7.389-0.183,14.354-0.508,16.756-1.261c5.975-1.867,12.251-4.531,16.732-9.369
	c3.4-3.674,6.691-9.201,12.055-9.201c4.146,0,8.121,1.163,11.339,4.101c2.55,2.33,4.084,7.34,6.588,9.706
	c3.479,3.276,9.419,0.749,12.528-1.98c3.216-2.822,5.86-9.813,10.571-9.675c10.076,0.296,5.878,16.939,16.192,16.029l0,0
	c-0.002,0-0.002,0-0.002,0c-0.034-0.001-0.068-0.007-0.104-0.009c-0.926-0.048-1.726-0.26-2.415-0.613
	c0.689,0.354,1.489,0.563,2.415,0.613c0.037,0.002,0.07,0.008,0.106,0.009c0.475,0.019,0.921-0.08,1.348-0.266
	c6.525-1.859,8.027-11.837,9.328-17.874c0.855-3.985,1.348-8.064,2.032-12.087c0.546-3.197,1.304-6.958,3.611-9.25
	c3.586-3.561,8.948,1.03,10.172,4.907c1.441,4.567,0.936,9.597,1.221,14.277c0.352,5.784,1.756,11.408,5.873,15.14
	c0.19,0.145,0.633,0.416,1.447,0.672l0.578,0.104c-3.729,0.027-5.709,3.771-7.185,6.832c-1.945,3.964-6.753,8.348-10.564,3.573
	c-1.975-2.465-4.593-6.132-7.902-6.257c-5.775-0.204-7.229,8.065-8.149,12.671c-1.549,7.741-2.819,15.616-4.623,23.29
	c-1.444,6.146-4.135,12.883-9.42,16.211c-2.878,1.812-6.084,2.262-8.844,0c-12.531-10.248-2.834-52.786-22.429-53.39
	c-10.479-0.343-9.802,16.883-19.548,18.728c-6.648,1.264-8.925-5.386-12.882-8.882C21.318,95.863,11.171,94.563,0,94.213v25.358
	c0,7.634,6.188,13.817,13.818,13.817h48.313v49.902c0,7.633,6.188,13.819,13.818,13.819h45.211c7.633,0,13.817-6.188,13.817-13.819
	v-49.902h48.314c7.632,0,13.818-6.185,13.818-13.817V94.849C196.867,94.88,196.626,94.911,196.366,94.945z" class="color c1"/>
</svg>