<svg version="1.1" id="图层_1" x="0px" y="0px" width="100.729px" height="100.266px" viewBox="0 0 100.729 100.266" enable-background="new 0 0 100.729 100.266" xml:space="preserve" xmlns="http://www.w3.org/2000/svg" xmlns:xlink="http://www.w3.org/1999/xlink" xmlns:xml="http://www.w3.org/XML/1998/namespace">
  <path fill="#F3F3F1" d="M71.76,3.273c-3.098,0.564-6.407,1.601-9.85,3.303c-4.302,2.128-7.856,3.745-10.777,4.977
	c-2.922-1.232-6.477-2.849-10.778-4.977c-3.442-1.702-6.753-2.738-9.851-3.303C11.974-0.105-3.23,17.736,2.926,35.538
	c0.068,0.197,0.139,0.396,0.211,0.597c7.237,19.986,14.964,28.157,18.608,36.74c4.36,10.267,9.362,18.693,12.479,23.123
	c1.279,1.817,3.293,3.028,5.51,3.174c3.294,0.216,7.16-1.87,6.133-13.514c-1.432-16.244,2.339-22.333,5.265-24.994
	c2.926,2.661,6.696,8.75,5.265,24.994c-1.026,11.644,2.84,13.729,6.133,13.514c2.218-0.146,4.23-1.356,5.51-3.174
	c3.118-4.43,8.119-12.856,12.479-23.123c3.645-8.583,11.372-16.754,18.608-36.74c0.072-0.2,0.143-0.399,0.211-0.597
	C105.494,17.736,90.291-0.105,71.76,3.273z" class="color c1"/>
  <g>
    <g>
      <path fill="#42C0BF" d="M62.424,14.572c0,0-0.945-0.007-2.625-0.322c-1.68-0.326-4.109-0.948-7.123-1.959
			c-3.014-1.006-6.616-2.386-10.655-4.162c-1.003-0.446-2.039-0.907-3.105-1.382c-1.058-0.466-2.087-0.892-3.21-1.291
			c-1.109-0.396-2.266-0.745-3.463-1.037c-0.598-0.148-1.206-0.275-1.824-0.392L29.6,3.885l-1.002-0.097
			c-0.671-0.069-1.35-0.14-2.034-0.21c-0.687-0.072-1.254,0.032-1.895,0.033l-0.94,0.031c-0.312-0.006-0.632,0.025-0.96,0.099
			c-0.65,0.112-1.307,0.225-1.969,0.338c-2.587,0.648-5.274,1.512-7.652,3.135c-0.642,0.328-1.208,0.776-1.78,1.227
			c-0.56,0.462-1.204,0.841-1.696,1.396c-0.537,0.511-1.077,1.025-1.621,1.543c-0.478,0.58-0.959,1.164-1.443,1.752
			c-1.826,2.436-3.285,5.271-4.118,8.393c-0.751,3.129-0.911,6.489-0.303,9.809c0.202,0.82,0.404,1.642,0.606,2.467
			C3,34.618,3.345,35.42,3.637,36.252c0.595,1.656,1.218,3.294,1.91,4.909c1.371,3.244,2.913,6.449,4.623,9.574
			c1.74,3.112,3.637,6.141,5.596,9.147c1.964,3.005,4.024,5.975,5.799,9.236c1.697,3.358,3.063,6.461,4.723,9.585
			c1.616,3.103,3.295,6.141,5.083,9.053c0.891,1.457,1.803,2.886,2.745,4.266c0.46,0.663,0.974,1.425,1.407,1.967
			c0.339,0.399,0.852,0.862,1.354,1.155c0.514,0.312,1.07,0.531,1.635,0.639c0.266,0.057,0.604,0.093,0.813,0.084
			c0.528,0.014,0.549-0.014,0.806-0.053c0.472-0.088,0.833-0.266,1.171-0.541c0.328-0.297,0.625-0.731,0.89-1.242
			c0.501-1.076,0.772-2.467,0.889-3.889c0.113-1.433,0.146-2.899,0.048-4.372c-0.086-1.541-0.17-3.062-0.253-4.559
			c-0.007-1.565-0.09-3.119,0.019-4.62c0.119-3.007,0.452-5.939,1.172-8.727c0.707-2.778,1.891-5.415,3.584-7.596
			c0.862-1.079,1.881-2.015,2.954-2.743c1.081-0.791,2.423-1.306,3.67-1.51c1.265-0.216,2.529-0.141,3.699,0.127
			c1.145,0.354,2.2,0.846,3.029,1.521c1.703,1.306,2.769,2.904,3.481,4.38c1.453,2.96,1.965,5.437,2.304,7.104
			c0.273,1.679,0.419,2.574,0.419,2.574l-0.404,0.081c0,0-0.27-0.854-0.775-2.457c-0.532-1.571-1.323-3.94-2.969-6.472
			c-0.808-1.258-1.885-2.538-3.296-3.415c-0.689-0.468-1.496-0.727-2.32-0.913c-0.845-0.105-1.729-0.101-2.618,0.126
			c-0.898,0.231-1.701,0.605-2.459,1.253c-0.801,0.653-1.516,1.405-2.143,2.286c-1.216,1.79-2.081,4.018-2.564,6.498
			c-0.525,2.469-0.719,5.167-0.703,7.972c-0.029,1.407,0.079,2.811,0.113,4.248c0.119,1.5,0.24,3.022,0.363,4.566
			c0.185,3.225,0.402,6.671-1.26,10.448c-0.473,0.932-1.09,1.876-1.997,2.672c-0.917,0.784-2.096,1.326-3.255,1.525
			c-0.556,0.115-1.371,0.138-1.672,0.118c-0.623-0.017-1.117-0.096-1.667-0.221c-1.069-0.242-2.087-0.686-2.995-1.276
			c-0.924-0.606-1.684-1.296-2.408-2.222c-0.6-0.809-1.014-1.482-1.51-2.239c-0.946-1.479-1.848-2.985-2.724-4.516
			c-1.748-3.063-3.403-6.215-4.931-9.46c-0.76-1.626-1.501-3.257-2.203-4.932c-0.707-1.677-1.321-3.356-2.022-4.906
			c-1.416-3.161-3.222-6.274-4.959-9.437c-3.561-6.292-6.699-12.849-9.444-19.407c-0.659-1.659-1.358-3.291-1.968-4.932
			c-0.683-1.599-1.165-3.363-1.673-5.066c-0.773-3.483-0.984-7.083-0.431-10.583C1.569,14.126,5.592,7.819,11.17,4.175
			c0.698-0.448,1.39-0.903,2.105-1.3c0.746-0.341,1.487-0.68,2.222-1.016c0.721-0.375,1.51-0.554,2.267-0.801l1.141-0.338
			c0.376-0.125,0.759-0.209,1.15-0.253c0.774-0.116,1.542-0.231,2.303-0.346c0.375-0.071,0.762-0.102,1.161-0.093l1.174-0.017
			c0.761,0.011,1.59-0.055,2.271,0.033c0.683,0.085,1.359,0.169,2.029,0.252l0.998,0.13l0.179,0.026l0.064,0.014l0.128,0.027
			l0.256,0.055l0.508,0.114c0.675,0.158,1.338,0.328,1.986,0.52c1.297,0.379,2.541,0.816,3.729,1.3
			c1.177,0.471,2.338,1.021,3.375,1.576c1.027,0.544,2.027,1.072,2.995,1.584c3.87,2.009,7.269,3.714,10.111,5.018
			c2.841,1.304,5.115,2.235,6.692,2.788c0.787,0.275,1.398,0.466,1.813,0.572c0.418,0.106,0.623,0.138,0.623,0.138L62.424,14.572z" class="color c2"/>
    </g>
  </g>
</svg>