<svg version="1.1" id="图层_1" x="0px" y="0px" width="80.068px" height="100.473px" viewBox="0 0 80.068 100.473" enable-background="new 0 0 80.068 100.473" xml:space="preserve" xmlns="http://www.w3.org/2000/svg" xmlns:xlink="http://www.w3.org/1999/xlink" xmlns:xml="http://www.w3.org/XML/1998/namespace">
  <path fill="#FFFFFF" d="M14.718,90.689c-2.829-1.6-3.778-5.108-2.118-7.836l7.149-11.752c3.15-5.18,9.322-7.914,15.455-6.846
	c3.127,0.543,6.397,1.752,9.813,3.625c8.194,4.492,15.244,3.824,21.145-2.008l2.844,4.61c3.783-0.526,7.447-1.073,11.063-1.846
	L59.375,34.971V10.738h7.429V0H22.235v10.737h7.426V34.85L2.075,79.734c-0.924,1.502-1.555,3.156-1.859,4.879
	c-1.231,6.927,2.925,13.535,9.541,15.859c1.964-3.287,4.22-6.313,6.791-9.117C15.905,91.23,15.286,91.01,14.718,90.689z" class="color c1"/>
</svg>