<svg version="1.1" id="图层_1" x="0px" y="0px" width="154.895px" height="152.046px" viewBox="0 0 154.895 152.046" enable-background="new 0 0 154.895 152.046" xml:space="preserve" xmlns="http://www.w3.org/2000/svg" xmlns:xlink="http://www.w3.org/1999/xlink" xmlns:xml="http://www.w3.org/XML/1998/namespace">
  <path opacity="0.9" fill="#E89F29" d="M97.949,118.299v33.747H54.824v-33.118c2.196-8.025,6.455-15.601,18.787-28.251
	C84.754,102.187,93.287,110.96,97.949,118.299z M55.885,24.09c5.093,17.718,18.621,32.682,25.651,36.716
	c1.007,0.578,1.99,1.156,2.959,1.735c7.067-8.595,11.901-16.518,14.515-22.257V0H55.885V24.09z" class="color c1"/>
  <path opacity="0.9" fill="#E89F29" d="M53.632,98.105H0V53.941h45.582c2.9,6.787,6.48,13.918,13.367,21.188
	c2.568,2.71,4.98,5.227,7.277,7.613C62.789,86.432,57.268,91.84,53.632,98.105z M104.121,53.941
	c-2.115,4.785-5.279,9.823-9.521,15.13c14.192,9.923,23.214,19.833,28.804,29.034h31.49V53.941H104.121z" class="color c1"/>
</svg>