<svg version="1.1" id="图层_1" x="0px" y="0px" width="97.31px" height="97.952px" viewBox="0 0 97.31 97.952" enable-background="new 0 0 97.31 97.952" xml:space="preserve" xmlns="http://www.w3.org/2000/svg" xmlns:xlink="http://www.w3.org/1999/xlink" xmlns:xml="http://www.w3.org/XML/1998/namespace">
  <path fill="#FFFFFF" d="M67.184,6.714c-3.074-2.506-4.426-1.932-7.496,3.573c-1.918,3.422-4.152,3.996-6.152,3.964v-0.217
	c2-1.201,3.393-3.72,3.393-6.642C56.928,3.311,53.234,0,49.152,0c-4.084,0-7.545,3.311-7.545,7.393c0,2.89,0.928,5.386,3.928,6.601
	v0.251c-3,0.074-5.176-0.42-7.158-3.957c-3.07-5.505-5.246-6.079-8.285-3.573C26.99,9.242,14.818,23.775,0,22.445
	c0,0,2.939,6.653,10.951,5.198c0,0,4.272,4.433,11.208,1.329c0,0,3.604,3.258,9.37,0.282c0,0,4.282,3.258,8.843,0.447
	c0,0,2.163,1.719,5.163,1.423v1.919v14.451v0.039v0.196c-1-0.025-0.332-0.044-0.479-0.076c-2.512-0.571-4.99-1.076-10.25-2.532
	c-5.033-1.334-10.584-3.492-11.408-4.591c0.064-0.064,0.154-0.131,0.313-0.195c0.443-0.253,1.235-0.471,2.118-0.664
	c1.869-0.379,4.37-0.571,6.901-0.696c5.035-0.155,5.42,0.099,6.018,0.063c0.596-0.037,3.658-0.075,3.754-2.4
	c0.096-2.326-1.562-2.497-2.858-2.758c-2.057-0.281-1.183-0.194-3.968-0.158c-4.623,0.348-18.779-0.795-20.551,6.646
	c0,0.217-0.031,0.349-0.063,0.541c0.6,6.483,14.059,9.31,23.777,11.234c-3.293,2.256-5.064,5.201-5.762,9.031
	c-0.35,4.055,2.881,7.916,10.387,12.215c-5.701,4.021-9.436,7.987-9.121,12.555c0.508,3.736,3.801,7.008,10.26,12.008
	c0.031,0,0.031,0,0.031,0h0.031c0,0-4.525-7.069-4.811-10.846c-0.279-1.938,0.705-4.777,4.641-8.048
	c0.33-0.311,0.039-0.659,1.039-0.884v0.582V79v13.404c0,0,0,0.287,0,0.438c0,1.756,1.625,3.178,3.408,3.178
	c1.787,0,3.953-1.422,3.953-3.178c0-0.23,0.639-13.842,0.639-13.842v-0.244v-0.582c1,0.225,0.367,0.555,0.697,0.865
	c3.938,3.273,4.836,6.128,4.561,8.067c-0.289,3.776-5.068,10.846-5.068,10.846h0.031c0,0,0,0,0.029,0
	c6.461-5,9.754-8.271,10.26-12.008c0.316-4.568-3.42-8.517-9.119-12.539c7.506-4.297,10.734-8.168,10.385-12.222
	c-0.695-3.831-2.469-6.78-5.762-9.036c9.721-1.924,23.18-4.753,23.779-11.237c-0.033-0.192-0.064-0.324-0.064-0.541
	c-1.771-7.44-15.926-6.298-20.549-6.646c-2.787-0.036-1.912-0.124-3.969,0.156c-1.299,0.262-2.955,0.434-2.857,2.76
	c0.094,2.325,3.152,2.363,3.752,2.399c0.596,0.036,0.977-0.218,6.01-0.063c2.535,0.125,5.031,0.317,6.898,0.696
	c0.887,0.193,1.662,0.411,2.107,0.664c0.158,0.064,0.227,0.131,0.291,0.195c-0.826,1.099-6.42,3.257-11.453,4.591
	c-5.258,1.456-7.311,1.961-9.822,2.532c-0.143,0.032,0.863,0.051-0.137,0.076v-0.196v-0.039V33.044v-1.835
	c2,0.289,4.154-1.509,4.154-1.509c4.531,2.811,8.416-0.446,8.416-0.446c5.764,2.977,9.152-0.281,9.152-0.281
	c6.965,3.104,11.143-1.331,11.143-1.331c8.008,1.457,10.909-5.196,10.909-5.196C82.493,23.775,70.283,9.242,67.184,6.714z
	 M45.535,55.551v0.135v12.148v0.178v0.33c-2-0.777-2.082-1.096-3.422-2.133c-1.709-1.324-2.484-3.049-2.484-4.512
	c0-1.426,0.906-4.039,5.906-6.508V55.551z M59.012,61.698c0,1.463-0.426,3.188-2.139,4.512c-1.336,1.037-1.338,1.355-3.338,2.133
	v-0.33v-0.178V55.686v-0.135V55.19C58.535,57.659,59.012,60.272,59.012,61.698z" class="color c1"/>
</svg>