<svg version="1.1" id="图层_2" x="0px" y="0px" width="195px" height="51.031px" viewBox="0 0 195 51.031" enable-background="new 0 0 195 51.031" xml:space="preserve" xmlns="http://www.w3.org/2000/svg" xmlns:xlink="http://www.w3.org/1999/xlink" xmlns:xml="http://www.w3.org/XML/1998/namespace">
  <path fill="#EE7E77" d="M193.162,28.934c-2.68,3.562-6.321,5.93-10.193,7.949c-9.007,4.697-18.693,7.415-28.572,9.466
	c-22.338,4.637-44.94,5.97-67.7,5.219c-17.044-0.563-33.938-2.325-50.556-6.282c-7.932-1.889-15.748-4.189-22.989-8.012
	c-2.965-1.565-5.879-3.394-8.417-5.569c-6.633-5.682-6.618-12.497,0.05-18.16c2.593-2.202,5.584-4.013,8.593-5.631
	c5.829-3.135,17.143-6.889,22.448-7.697c-0.88,0.841-1.599,1.488-2.273,2.18c-4.851,4.972-4.9,10.344-0.029,15.293
	c4.523,4.596,10.295,7.074,16.242,9.166c10.717,3.771,21.841,5.561,33.117,6.415c13.946,1.055,27.868,0.74,41.713-1.397
	c9.683-1.494,19.23-3.59,28.05-8.019c3.039-1.526,6.016-3.417,8.54-5.678c5.691-5.1,5.573-10.992,0.062-16.268
	c-0.519-0.495-1.061-0.962-1.591-1.442c10.127,2.293,20.024,5.14,28.582,11.234c1.841,1.311,3.533,2.96,4.933,4.737
	C196.33,20.447,196.232,24.853,193.162,28.934z M39.758,15.531c1.931,1.758,4.235,3.213,6.581,4.384
	c6.092,3.041,12.675,4.625,19.34,5.79c20.702,3.619,41.444,3.65,62.177,0.317c7.574-1.218,15.072-2.923,21.924-6.526
	c2.408-1.266,4.659-3.021,6.596-4.942c2.057-2.039,2.163-4.726,0.715-7c-2.421-3.801-6.304-5.531-10.623-7.413
	c3.152,4.205,2.828,6.798-0.961,9.78c-0.99,0.779-2.068,1.489-3.202,2.029c-1.955,0.931-3.941,1.835-5.991,2.522
	c-8.991,3.015-18.303,4.29-27.725,4.849c-14.587,0.865-29.088,0.313-43.374-3.049c-5.355-1.26-10.639-2.817-15.156-6.138
	c-4.026-2.96-4.409-5.657-1.555-9.607c-0.151-0.175-0.301-0.351-0.453-0.526C45.276,1.86,42.278,3.463,39.78,5.64
	C36.341,8.639,36.37,12.446,39.758,15.531z" class="color c1"/>
</svg>