<svg version="1.1" id="图层_1" x="0px" y="0px" width="200px" height="182.949px" viewBox="0 0 200 182.949" enable-background="new 0 0 200 182.949" xml:space="preserve" xmlns:xml="http://www.w3.org/XML/1998/namespace" xmlns="http://www.w3.org/2000/svg" xmlns:xlink="http://www.w3.org/1999/xlink">
  <path fill="#FFFFFF" d="M198.507,115.898c-3.721,19.42-14.106,36.184-28.521,48.098c-14.389,11.918-32.838,18.953-52.604,18.953
	h-0.469c-43.28-0.25-78.87-33.775-81.906-76.744C17.746,102.109,13.931,79.56,13.772,78.56c-0.217-1.221-0.093-2.504,0.346-3.691
	C9.928,62.42,5.612,49.318,1.297,35.9c-2.284-7.223-1.53-15.166,2.095-21.766c3.125-5.689,8.067-9.695,13.915-11.227
	c0.941-0.219,1.876-0.596,2.876-1c1.69-0.658,3.443-1.375,5.441-1.531c0.249-0.031,0.468-0.031,0.718-0.031
	c2.033,0,3.879,0.75,5.223,2.096c1.377,1.375,2.126,3.313,2.095,5.439c0,4.846-4.474,7.756-8.82,7.756h-0.311
	c-1.592-0.063-2.783-0.625-3.752-1.061c-0.498-0.254-0.937-0.441-1.375-0.537c-1.157-0.281-2.252,0.66-3.406,1.689
	c-4.85,4.348-6.412,9.947-4.474,16.139C15.9,45.688,20.873,59.354,24.72,69.831l1.656,2.377c1.063,1.063,1.752,2.406,2.003,3.879
	l0.032,0.094c0.469,2.375,1.28,5.004,2.252,7.193c0.063,0.156,0.218,0.467,0.346,0.75c0.094,0.219,0.218,0.467,0.345,0.719
	c2.343,4.629,5.315,7.064,8.725,7.193h0.374l0.128,0.03h0.281c2.158,0,9.446-1.157,11.821-15.854
	c0.409-2.373,1.845-4.314,3.879-5.379l1.222-3.25c2.252-6.004,4.504-12.041,6.754-18.107c0.594-1.689,1.312-3.439,2.065-5.256
	c3.161-7.691,6.444-15.635,3.438-22.516c-2.157-4.908-4.596-7.727-6.694-7.727c-0.689,0.033-1.503,0.346-2.376,0.66
	c-1.189,0.467-2.501,0.967-4.063,0.967c-1.095,0-2.126-0.248-3.13-0.75c-3.783-1.875-4.532-4.596-4.658-6.066
	c-0.251-2.752,1.279-5.504,4.189-7.598C54.403,0.377,55.686,0,57.063,0c2.719,0,5.254,1.473,7.316,2.689
	c0.407,0.219,0.782,0.469,1.125,0.658c3.221,1.721,6.912,3.814,10.197,6.662c4.532,4.002,6.816,10.258,6.502,17.639
	c-0.126,3.316-0.718,6.662-1.72,9.697c-2.034,6.035-4.16,12.103-6.223,17.951c-1.908,5.41-3.846,10.822-5.691,16.264
	c-0.468,1.375-0.907,2.752-1.344,4.127c0.218,0.908,0.25,1.875,0.126,2.848c-2.97,17.951-12.353,24.455-18.326,26.799
	c0,1.814,0.064,3.35,0.22,4.816c2.063,14.605,8.725,28.021,19.296,38.684c8.634,8.725,19.421,14.98,31.179,18.076
	c5.691,1.533,11.635,2.316,17.67,2.316c38,0,68.896-30.896,68.896-68.896c0-13.514-4.188-26.834-11.821-38.217
	c4.098-2.408,7.539-5.85,10.01-9.916c1.28,1.754,2.471,3.564,3.598,5.41c5.191,8.602,8.757,17.98,10.568,27.863
	C200.506,95.539,200.441,105.797,198.507,115.898z M159.512,15.588c11.867,0,21.488,9.621,21.488,21.488
	c0,11.867-9.621,21.488-21.488,21.488s-21.488-9.621-21.488-21.488C138.023,25.208,147.645,15.588,159.512,15.588z M155.934,75.358
	c-3.172-0.979-18.092-6.412-31.021-11.208c-2.022-0.775-4.147-1.15-6.312-1.15c-2.192,0-4.319,0.373-6.347,1.15
	c-12.928,4.792-27.846,10.227-31.018,11.208c-2.668,0.81-4.424,3.309-4.222,6.106c0.067,0.876,0.136,1.689,0.202,2.196
	c2.936,28.318,16.574,51.207,39.463,66.094v0.034c0.065,0.034,0.2,0.103,0.336,0.202l1.586,0.91l1.556-0.91
	c0.137-0.102,0.271-0.168,0.338-0.202v-0.034c22.887-14.887,36.521-37.771,39.491-66.093c0.035-0.507,0.103-1.315,0.168-2.196
	C160.354,78.667,158.631,76.168,155.934,75.358z M140.979,111.477h-16.338v16.402h-12.084v-16.202H96.221V99.593h16.132V83.188
	h12.221V99.49h16.406v11.984h-0.002V111.477z" class="color c1"/>
</svg>