<svg version="1.1" id="图层_1" x="0px" y="0px" width="176.572px" height="162.226px" viewBox="0 0 176.572 162.226" enable-background="new 0 0 176.572 162.226" xml:space="preserve" xmlns="http://www.w3.org/2000/svg" xmlns:xlink="http://www.w3.org/1999/xlink" xmlns:xml="http://www.w3.org/XML/1998/namespace">
  <path fill="#ED1B24" d="M170.455,76.936h-55.258L91.672,31.984l-3.383,13.998l-14.734,60.958L44.609,56.283l-12.54,35.111H17.456
	l-2.308-2.309c-20.197-20.198-20.197-52.944,0-73.142c20.198-20.197,52.944-20.197,73.142,0c0,0,21.902-25.178,53.66-12.255
	c7.115,2.485,13.795,6.569,19.48,12.255C177.945,32.458,180.948,57.361,170.455,76.936z M110.396,84.871L94.428,54.359
	l-6.139,25.394l-11.714,48.462L46.279,75.197l-8.618,24.131H25.39l62.899,62.898l73.141-73.141c1.352-1.35,2.604-2.76,3.773-4.215
	H110.396z" class="color c1"/>
</svg>