<svg version="1.1" id="图层_1" x="0px" y="0px" width="92.375px" height="141.791px" viewBox="0 0 92.375 141.791" enable-background="new 0 0 92.375 141.791" xml:space="preserve" xmlns="http://www.w3.org/2000/svg" xmlns:xlink="http://www.w3.org/1999/xlink" xmlns:xml="http://www.w3.org/XML/1998/namespace">
  <path fill="#FFFFFF" d="M77.473,56.857c0.389-0.473,10.274-13.771,13.688-20.488c1.939-3.963,1.549-7.989-1.114-11.505
	c-0.502-0.677-1.69-2.449-3.862-2.383c-1.437,0.139-2.477,1.402-2.494,2.71c0.111,1.15,0.929,2.087,2.107,2.263
	c0,0,0.156,0.129,0.314,0.259c1.504,2.031,1.83,3.888,0.587,6.04C83.387,40.026,73.5,53.325,73.371,53.481
	c-1.168,1.42-1.975,2.079-2.865,1.876l-0.158-0.13c0,0,0,0-0.158-0.13l-0.443-0.103c-1.049-0.333-1.766-1.715-2.163-2.837
	c-0.158-0.13-5.043-16.059-6.159-23.063c-0.38-2.432,0.473-4.111,2.661-5.484c0.131-0.158,0.418-0.186,0.418-0.186
	c1.179,0.176,2.272-0.512,2.765-1.43c0.594-1.364-0.121-2.747-1.484-3.339c-1.967-0.826-3.738,0.362-4.416,0.863
	c-3.831,2.405-5.51,6.05-4.934,10.495c1.014,7.45,6.027,23.221,6.241,23.926c0.669,2.403,1.828,3.887,3.091,4.926
	c0.158,0.129,0.315,0.259,0.475,0.389C60.406,72.45,46.222,80.358,31.609,77.856c-8.406-1.36-15.839-6.155-20.722-13.083
	c-4.883-6.93-6.868-15.447-5.509-23.853c1.918-11.654,9.996-21.147,21.092-24.983c0,0,0,0,0.158,0.13
	c0.501,0.677,1.16,1.484,1.791,2.004c1.42,1.168,2.942,1.891,4.853,2.142c5.604,0.907,10.763-2.787,11.67-8.392
	c0.908-5.604-2.786-10.762-8.391-11.669c-2.803-0.453-5.363,0.086-7.524,1.748c-2.161,1.661-3.505,4.259-3.83,6.904
	c-0.204,0.891-0.119,1.753-0.036,2.615C12.237,15.869,2.99,26.782,0.536,40.375c-1.667,9.741,0.59,19.539,6.316,27.692
	c2.005,2.708,4.269,5.102,6.793,7.18c4.102,3.376,8.983,5.805,14.196,7.188L23.3,126.856c-0.103,0.445-0.177,1.179-0.121,1.754
	c0.206,3.608,1.691,6.949,4.114,9.473c0.314,0.259,0.473,0.389,0.788,0.648c2.524,2.076,5.67,3.078,8.861,3.061
	c3.479-0.048,6.819-1.533,9.472-4.113c2.495-2.71,3.914-6.042,3.709-9.65l-1.146-46.194c9.842-3.276,18.248-10.914,22.502-20.909
	C73.206,60.756,75.293,59.827,77.473,56.857z M32.22,6.38c1.094-0.686,2.504-1.114,3.841-0.808c0.89,0.204,1.651,0.566,2.282,1.085
	c1.419,1.169,2.033,2.996,1.782,4.909c-0.453,2.801-3.031,4.647-5.834,4.194c-1.335-0.306-2.57-1.057-3.258-2.151
	c-0.686-1.095-1.114-2.505-0.807-3.841C30.373,8.302,31.125,7.067,32.22,6.38z M44.918,128.242c0.064,2.171-0.731,4.425-2.317,6.03
	s-3.673,2.535-5.845,2.602c-4.629,0.158-8.472-3.532-8.63-8.163c-0.029-0.286,0.074-0.733,0.046-1.021l4.699-44.293
	c3.822,0.5,7.433,0.293,11.014-0.198L44.918,128.242z" class="color c1"/>
</svg>