<svg version="1.1" id="图层_1" x="0px" y="0px" width="60.712px" height="81.61px" viewBox="0 0 60.712 81.61" enable-background="new 0 0 60.712 81.61" xml:space="preserve" xmlns="http://www.w3.org/2000/svg" xmlns:xlink="http://www.w3.org/1999/xlink" xmlns:xml="http://www.w3.org/XML/1998/namespace">
  <path fill="#D81212" d="M60.705,28v0.13l-0.01,0.12c-0.12,8.87-2.92,17.73-8.56,27.09c-4.6,7.61-11.15,15.6-20.05,24.43
	c-0.61,0.6-1.23,1.21-1.88,1.84c-0.65-0.59-1.29-1.17-1.91-1.75C9.234,62.11,0.244,45.9,0.004,28.85c0-0.19-0.01-0.37,0-0.56V28.2
	l0.01-0.08c0.05-4.3,1.18-8.45,3.34-12.33c1.28-2.29,2.9-4.44,4.83-6.39l0.02-0.03l0.03-0.03c0.18-0.19,0.37-0.37,0.56-0.54
	l0.11-0.1l0.1-0.1l0.05-0.05l0.18-0.16l0.17-0.16c2.46-2.33,5.3-4.22,8.43-5.59l0.18-0.08l0.05-0.03l0.09-0.03l0.09-0.05
	c3.56-1.59,7.17-2.43,10.44-2.43h0.7C29.794,0,30.204,0,30.604,0h0.39c3.43,0.06,7.48,1.1,11.4,2.92l0.05,0.02l0.04,0.02
	c0.3,0.14,0.61,0.28,0.92,0.44l0.08,0.04l0.08,0.03c0.21,0.1,0.47,0.24,0.67,0.36l0.05,0.02l0.04,0.02
	c0.74,0.39,1.51,0.83,2.31,1.33l0.15,0.09c0.12,0.08,0.24,0.15,0.35,0.23l0.11,0.08l0.11,0.07c4.46,2.92,8.03,6.59,10.32,10.6
	c1.97,3.44,2.98,7.08,3.03,10.82v0.07C60.714,27.5,60.714,27.77,60.705,28z" class="color c1"/>
</svg>