<svg version="1.1" id="图层_1" x="0px" y="0px" width="144.374px" height="127.14px" viewBox="0 0 144.374 127.14" enable-background="new 0 0 144.374 127.14" xml:space="preserve" xmlns="http://www.w3.org/2000/svg" xmlns:xlink="http://www.w3.org/1999/xlink" xmlns:xml="http://www.w3.org/XML/1998/namespace">
  <path fill="#B20910" d="M144.111,31.795c-4.229-47.204-66.209-34.29-75.516-7.428C64.066,11.329,48.059,1.42,32.305,0l-0.707,5.662
	c1.045,1.5,1.609,3.264,1.609,5.108c0,16.707-12.195,30.858-28.373,33.74C3.91,49.491,2.146,53.604,0,57.205
	c8.012,25.813,29.666,45.188,46.607,56.91c8.133-6.535,11.975-17.531,13.715-29.248c-8.611-3.324-14.748-11.637-14.748-21.41
	c0-12.717,10.311-23.015,23.016-23.015s23.008,10.303,23.008,23.015c0,10.861-7.561,19.916-17.703,22.332
	c-2.568,17.219-8.199,28.627-15.305,35.979c5.986,3.479,9.988,5.373,9.988,5.373S149.553,92.515,144.111,31.795z" class="color c1"/>
</svg>