<svg version="1.1" id="图层_1" x="0px" y="0px" width="133.416px" height="181.422px" viewBox="0 0 133.416 181.422" enable-background="new 0 0 133.416 181.422" xml:space="preserve" xmlns="http://www.w3.org/2000/svg" xmlns:xlink="http://www.w3.org/1999/xlink" xmlns:xml="http://www.w3.org/XML/1998/namespace">
  <path fill="#96C245" d="M120.519,74.869c-1.272,1.947-2.86,3.639-4.746,5.029c-0.739,0.545-1.52,1.029-2.323,1.465
	c2.34,3.314,4.325,6.881,5.918,10.643c-2.445-2.319-5.255-4.491-8.414-6.483c-0.002,0.002-0.002,0.002-0.004,0.002l-4.451,9.069
	c9.313,6.156,14.437,14.008,14.437,22.18v0.041c-9.293,13.3-30.181,22.566-54.464,22.566c-9.826,0-19.091-1.516-27.258-4.205
	c-2.021-0.664-3.982-1.486-5.888-2.432l-5.233-2.598c-3.83-1.898-7.451-4.232-10.6-7.123c-2.118-1.945-3.958-4.021-5.485-6.207
	v-0.041c0-8.367,5.363-16.398,15.104-22.615c7.087-4.526,15.804-7.668,25.352-9.215c4.51-0.736,9.209-1.113,14.009-1.113
	c3.042,0,6.042,0.148,8.985,0.455l5.584-9.406c-2.23-0.338-4.494-0.602-6.786-0.783c-2.567-0.201-5.161-0.305-7.783-0.305
	c-16.834,0-32.731,4.232-44.763,11.906c-2.706,1.727-5.151,3.588-7.328,5.559c6.422-14.592,18.819-26.163,34.734-31.307
	c1.968-0.635,3.3-2.465,3.3-4.533v-26.83h28.588v26.83c0,2.066,1.332,3.898,3.3,4.533c0.223,0.074,0.442,0.15,0.663,0.227
	c0.384-1.85,1.031-3.656,1.955-5.361c0.976-1.805,2.201-3.4,3.611-4.764V28.588h4.766c2.634,0,4.767-2.133,4.767-4.764V4.764
	c0-2.631-2.133-4.764-4.767-4.764H38.118c-2.632,0-4.765,2.133-4.765,4.764v19.061c0,2.631,2.133,4.764,4.765,4.764h4.765v23.459
	C17.093,61.875,0,86.49,0,114.355c0,20.931,9.626,40.267,26.033,52.859c11.062,8.885,25.125,14.207,40.437,14.207
	c12.833,0,24.787-3.736,34.833-10.178c0.327-0.117,0.647-0.258,0.944-0.447c19.519-12.311,31.168-33.412,31.168-56.441
	C133.416,99.743,128.708,86.029,120.519,74.869z M42.883,9.529H90.53v9.529H42.883V9.529z" class="color c1"/>
</svg>