<svg version="1.1" id="图层_1" x="0px" y="0px" width="92.23px" height="92.23px" viewBox="0 0 92.23 92.23" enable-background="new 0 0 92.23 92.23" xml:space="preserve" xmlns="http://www.w3.org/2000/svg" xmlns:xlink="http://www.w3.org/1999/xlink" xmlns:xml="http://www.w3.org/XML/1998/namespace">
  <path fill="#D10006" d="M86.082,59.565h4.227c0.961,0,1.922-0.768,1.922-1.921V46.308c0-1.153-0.961-1.921-1.922-1.921h-4.227V1.922
	C86.082,0.769,85.313,0,84.16,0H8.07C6.917,0,6.148,0.769,6.148,1.922v42.465H1.922C0.96,44.387,0,45.154,0,46.308v11.337
	c0,1.153,0.96,1.921,1.922,1.921h4.227v17.485H3.843v3.843H8.07h2.306v9.416c0,0.96,0.769,1.921,1.921,1.921h10.761
	c1.152,0,1.922-0.961,1.922-1.921v-9.416h42.271v9.416c0,0.96,0.77,1.921,1.922,1.921h10.761c1.152,0,1.921-0.961,1.921-1.921
	v-9.416h2.306h4.228v-3.843h-2.306V59.565z M16.598,47.864c-1.664,0-3.08-0.333-2.456-2.665l4.746-18.609
	c0,0,0.167-0.874,1.249-0.874s50.208,0,52.02,0c1.811,0,2.31,0.999,2.561,1.937c0.249,0.937,4.059,14.259,4.62,16.382
	c0.563,2.123,0.125,3.726-2.913,3.726C75.611,47.76,18.264,47.864,16.598,47.864z M9.991,3.843h72.247v37.854l-4.803-19.215
	c-0.192-0.961-0.961-1.537-1.922-1.537H52.84V17.87c0-3.843-3.074-6.917-6.725-6.917s-6.725,3.074-6.725,6.917v3.267H16.717
	c-0.769,0-1.537,0.576-1.922,1.537L9.991,41.889V3.843z M21.521,74.553c-3.459,0-6.341-2.882-6.341-6.532
	c0-3.651,2.882-6.533,6.341-6.533s6.341,2.882,6.341,6.533C27.861,71.671,24.979,74.553,21.521,74.553z M39.967,73.784h-3.844
	V62.256h3.844V73.784z M48.037,73.784h-3.844V62.256h3.844V73.784z M56.106,73.784h-3.843V62.256h3.843V73.784z M70.71,74.553
	c-3.459,0-6.341-2.882-6.341-6.532c0-3.651,2.882-6.533,6.341-6.533c3.651,0,6.341,2.882,6.341,6.533
	C77.051,71.671,74.169,74.553,70.71,74.553z" class="color c1"/>
</svg>