<svg version="1.1" id="图层_1" x="0px" y="0px" width="133.313px" height="135.37px" viewBox="0 0 133.313 135.37" enable-background="new 0 0 133.313 135.37" xml:space="preserve" xmlns="http://www.w3.org/2000/svg" xmlns:xlink="http://www.w3.org/1999/xlink" xmlns:xml="http://www.w3.org/XML/1998/namespace">
  <path fill="#73B44A" d="M62.61,76.36c0,0-2.206-9.964,1.911-7.343c0,0,8.362,3.967,8.098,22.665c0,0,0.049,7.127,0.59,13.191
	c0,0-0.383,9.571-3.582,13.845c0,0-1.133,3.873,3.506,0.922c0,0,3.752-3.955,4.377-12.04c0,0,1.18-5.438,6.197,2.84
	c0,0,5.092,11.466,5.281,19.694c0,0,1.475,5.503,2.857-0.921c0,0,0.836-4.416-0.955-13.404c0,0-0.264-6.761,2.971-0.487
	c0,0,3.135,8.784,0.676,18.136c0,0,0.229,4.906,3.148-0.999c0,0,2.922-7.614,0.133-19.75c0,0,0.146-2.16,2.041-0.495
	c0,0,1.738,1.085,1.039,11.208c0,0-1.473,8.776,0.742,9.321c0,0,3.998-1.279,2.225-20.259c0,0-0.729-4.255,1.232-1.573
	c0,0,2.326,5.584,1.297,10.622c0,0,0.273,3.341,2.406-1.06c0,0,6.041-11.232-16.832-28.807c0,0,9.447-16.472,17.391-35.473
	c0,0,2.766-6.465,4.922,0.407c0,0,1.248,9.289-5.615,24.79c0,0-5.412,11.077-3.041,13.545c0,0,1.262,3.543,4.373-1.639
	c0,0,11.129-16.956,11.533-38.02c0,0,0.729-10.596,6.426-2.656c0,0,4.678,13.958-7.42,42.351c0,0-3.557,11.044,2.25,6.071
	c0,0,6.287-10.278,10.525-36.35h-2.277V0h-62.07v64.694H0v58.226h56.711c0.339-3.065,1.029-6.253,2.169-9.545
	C58.88,113.375,64.881,100.249,62.61,76.36z" class="color c1"/>
</svg>