<svg version="1.1" id="图层_1" x="0px" y="0px" width="71.484px" height="117.059px" viewBox="0 0 71.484 117.059" enable-background="new 0 0 71.484 117.059" xml:space="preserve" xmlns="http://www.w3.org/2000/svg" xmlns:xlink="http://www.w3.org/1999/xlink" xmlns:xml="http://www.w3.org/XML/1998/namespace">
  <path fill="#FAAF5E" d="M34.553,31.833c-3.099-4.542-5.854-8.676-8.104-12.245c-4.673-7.411-5.171-12.505-2.89-15.268
	c0,0-6.678,5.893-13.748,17.677c-1.943,2.501,3.728,13.846,12.197,27.914c0.408-0.586,0.823-1.185,1.228-1.762
	C27.335,42.275,31.153,36.803,34.553,31.833z M61.672,21.997C54.602,10.213,47.923,4.321,47.923,4.321
	c2.282,2.763,1.785,7.855-2.888,15.268C35.276,35.063,16.091,61.09,0,85.635c1.18,7.855,4.32,31.424,4.32,31.424
	C11.785,106.848,67.172,29.068,61.672,21.997z M71.484,85.635c-7.056-10.762-14.706-21.809-21.896-32.127
	c-2.933,4.796-6.297,10.106-10.086,15.917c-0.855,1.313-1.719,2.625-2.585,3.938c13.16,19.895,26.803,38.985,30.245,43.696
	C67.163,117.059,70.306,93.491,71.484,85.635z M28.546,19.444c0,0,6.679-1.964,13.945,0.59C46.223,16.105,54.67,0.785,35.42,0
	C35.42,0,14.993,0.393,28.546,19.444z" class="color c1"/>
</svg>