<svg version="1.1" id="图层_1" x="0px" y="0px" width="89.951px" height="89.954px" viewBox="0 0 89.951 89.954" enable-background="new 0 0 89.951 89.954" xml:space="preserve" xmlns="http://www.w3.org/2000/svg" xmlns:xlink="http://www.w3.org/1999/xlink" xmlns:xml="http://www.w3.org/XML/1998/namespace">
  <path fill="#FFFFFF" d="M87.304,27.78H62.17V2.649C62.17,1.185,60.985,0,59.522,0h-29.1c-1.466,0-2.648,1.185-2.648,2.649V27.78
	H2.647C1.187,27.78,0,28.966,0,30.428v29.104c0,1.455,1.187,2.641,2.647,2.641h25.128v25.14c0,1.455,1.183,2.644,2.648,2.644h29.1
	c1.463,0,2.646-1.188,2.646-2.644v-25.14h25.133c1.465,0,2.648-1.187,2.648-2.641V30.428C89.951,28.959,88.769,27.78,87.304,27.78z" class="color c1"/>
</svg>