<svg version="1.1" id="图层_1" x="0px" y="0px" width="105.322px" height="68.739px" viewBox="0 0 105.322 68.739" enable-background="new 0 0 105.322 68.739" xml:space="preserve" xmlns="http://www.w3.org/2000/svg" xmlns:xlink="http://www.w3.org/1999/xlink" xmlns:xml="http://www.w3.org/XML/1998/namespace">
  <path fill="#004684" d="M100.277,0H52.14c-2.71,0-5.044,1.558-5.044,4.268v2.583H32.834c-2.441,0-5.538,1.247-7.05,3.166
	l-9.642,12.109c-1.256,1.594-3.872,3.598-5.714,4.45l-6.554,3.095C1.593,30.728,0,33.495,0,36.011v17.902
	c0,2.643,1.758,5.17,4.399,5.17h2.134c1.623,5.137,6.773,9.656,12.863,9.656c6.088,0,11.237-4.52,12.86-9.656h32.726
	c1.623,5.137,6.773,9.656,12.863,9.656c6.088,0,11.239-4.52,12.86-9.656h9.694c2.642,0,4.922-2.527,4.922-5.17v-25.58V11.13V4.268
	C105.322,1.558,102.987,0,100.277,0z M19.396,61.616c-3.676,0-6.656-2.98-6.656-6.654s2.98-6.656,6.656-6.656
	c3.675,0,6.654,2.982,6.654,6.656S23.071,61.616,19.396,61.616z M47.096,25.147c0,1.751-1.45,3.154-3.201,3.131l-20.15-0.279
	c-1.752-0.023-2.282-1.195-1.211-2.581l7.926-10.124c1.071-1.385,3.393-2.45,5.143-2.45h8.276c1.75,0,3.218,1.296,3.218,3.047
	V25.147z M77.846,61.616c-3.676,0-6.655-2.98-6.655-6.654s2.979-6.656,6.655-6.656c3.675,0,6.654,2.982,6.654,6.656
	S81.521,61.616,77.846,61.616z" class="color c1"/>
  <circle fill="#FFFFFF" cx="76.744" cy="22.934" r="14.878" class="color c2"/>
  <path fill="#EF3E42" d="M86.613,25.856c0,0.869-0.708,1.577-1.579,1.577h-3.053c-0.274,0-0.498,0.224-0.498,0.5v3.052
	c0,0.871-0.708,1.578-1.577,1.578h-5.846c-0.869,0-1.577-0.707-1.577-1.578v-3.052c0-0.276-0.225-0.5-0.499-0.5h-3.053
	c-0.869,0-1.578-0.708-1.578-1.577v-5.845c0-0.869,0.709-1.577,1.578-1.577h3.053c0.274,0,0.499-0.225,0.499-0.5v-3.053
	c0-0.871,0.708-1.577,1.577-1.577h5.846c0.869,0,1.577,0.707,1.577,1.577v3.053c0,0.275,0.224,0.5,0.498,0.5h3.053
	c0.871,0,1.579,0.708,1.579,1.577V25.856z" class="color c3"/>
</svg>