<svg version="1.1" id="图层_1" x="0px" y="0px" width="175.941px" height="188.51px" viewBox="0 0 175.941 188.51" enable-background="new 0 0 175.941 188.51" xml:space="preserve" xmlns="http://www.w3.org/2000/svg" xmlns:xlink="http://www.w3.org/1999/xlink" xmlns:xml="http://www.w3.org/XML/1998/namespace">
  <path fill="#A1BB36" d="M131.955,144.522c36.252-27.184,6.285-62.835,6.285-62.835c0-6.717-1.275-12.311-3.268-17.135l-6.863,13.729
	l-5.918-3.934c-0.17-0.113-17.563-11.512-34.221-11.512c-16.753,0-34.046,11.398-34.216,11.512l-5.92,3.953l-6.867-13.748
	C38.976,69.376,37.7,74.97,37.7,81.687c0,0-29.967,35.652,6.283,62.835c6.942,5.209,13.385,6.988,19.104,6.943
	c-0.082-0.213-0.178-0.445-0.252-0.66c0.986-0.992,8.564-8.752,11.418-21.678c-13.698-5.813-23.438-20.025-23.903-36.797
	C72.222,84.815,87.97,69.118,87.97,69.118s15.739,15.697,37.612,23.207c-0.465,16.959-10.432,31.305-24.367,36.984
	c2.884,12.825,10.394,20.516,11.373,21.496c-0.075,0.207-0.164,0.434-0.246,0.643C118.188,151.61,124.799,149.883,131.955,144.522z
	 M56.941,152.969l-0.703-1.916c-11.525,0.646-34.437,3.085-43.672,12.322C0,175.94,0,188.51,0,188.51h87.713
	C70.465,188.51,58.268,156.603,56.941,152.969z M163.375,163.375c-9.362-9.362-32.826-11.744-44.176-12.36l-0.703,1.948
	c-1.326,3.64-13.479,35.547-30.776,35.547h0.252h87.971C175.941,188.51,175.941,175.94,163.375,163.375z M87.971,56.553
	c18.85,0,37.7,12.566,37.7,12.566l25.136-50.27c0,0-31.418-18.85-62.836-18.85S25.133,18.85,25.133,18.85l25.136,50.27
	C50.268,69.119,69.119,56.553,87.971,56.553z M69.119,25.135h12.566V12.566h12.567v12.568h12.566V37.7H94.254v12.57H81.686V37.701
	H69.119V25.135z" class="color c1"/>
</svg>