<svg version="1.1" id="图层_1" x="0px" y="0px" width="109.088px" height="105.705px" viewBox="0 0 109.088 105.705" enable-background="new 0 0 109.088 105.705" xml:space="preserve" xmlns="http://www.w3.org/2000/svg" xmlns:xlink="http://www.w3.org/1999/xlink" xmlns:xml="http://www.w3.org/XML/1998/namespace">
  <path fill="#FFFFFF" d="M109.088,39.844v29.683c0,2.584-2.037,4.682-4.56,4.682H80.883c-3.684,0-7.086-2.034-8.901-5.334
	c-6.906-12.559-16.949-23.035-29.033-30.32c-3.671-2.213-5.968-6.218-5.968-10.596V4.69c0-2.579,2.052-4.69,4.559-4.69h28.833
	c2.521,0,4.559,2.107,4.559,4.69v30.462h29.6C107.047,35.152,109.088,37.253,109.088,39.844z M46.221,105.705
	c-4.134-0.001-7.547-3.313-7.608-7.386l-0.333-24.44l-30.3,0.353c-4.135,0-7.548-3.314-7.607-7.389L0.001,43.586
	c-0.059-4.14,3.309-7.553,7.505-7.614l20.596-0.302c4.992,0,9.543,2.521,12.175,6.745c6.22,9.979,15.076,18.21,25.609,23.803
	c4.035,2.145,6.582,6.272,6.648,10.775l0.307,20.719c0.059,4.135-3.303,7.548-7.496,7.609L46.221,105.705z M45.193,66.787
	l0.429,31.433c0.004,0.256,0.278,0.475,0.6,0.475v3.507l0.012-3.507l18.99-0.381c0.342-0.006,0.611-0.233,0.607-0.498l-0.307-20.719
	c-0.027-1.947-1.15-3.744-2.928-4.688c-11.623-6.172-21.397-15.262-28.27-26.286c-1.323-2.123-3.709-3.442-6.226-3.442l-0.108,0.001
	L7.609,42.981c-0.347,0.005-0.603,0.268-0.599,0.499l0.372,23.257c0.004,0.265,0.277,0.482,0.598,0.482L45.193,66.787z" class="color c1"/>
</svg>