<svg version="1.1" id="图层_1" x="0px" y="0px" width="35.182px" height="140.729px" viewBox="0 0 35.182 140.729" enable-background="new 0 0 35.182 140.729" xml:space="preserve" xmlns="http://www.w3.org/2000/svg" xmlns:xlink="http://www.w3.org/1999/xlink" xmlns:xml="http://www.w3.org/XML/1998/namespace">
  <path fill="#2C92B1" d="M31.664,91.476V73.884c0-1.943-1.572-3.517-3.515-3.52h-0.005H7.036c-1.942-0.001-3.517,1.572-3.519,3.515
	c0,0,0,0.003,0,0.005v17.592C1.574,91.476,0,93.05,0,94.993c0,1.941,1.574,3.517,3.518,3.517h28.146
	c1.943,0,3.518-1.575,3.518-3.517C35.182,93.05,33.607,91.476,31.664,91.476z" class="color c1"/>
  <path fill="#2C92B1" d="M31.664,21.109V3.519C31.664,1.575,30.092,0,28.149,0h-0.005H7.036C5.094-0.002,3.52,1.572,3.518,3.514
	c0,0.003,0,0.004,0,0.004v17.592C1.574,21.109,0,22.685,0,24.628c0,1.942,1.574,3.518,3.518,3.518h28.146
	c1.943,0,3.518-1.575,3.518-3.518C35.182,22.685,33.607,21.109,31.664,21.109z" class="color c1"/>
  <path fill="#2C92B1" d="M3.518,137.211c-0.002,1.942,1.572,3.519,3.514,3.519c0.003,0,0.004,0,0.004,0h21.109
	c1.943,0.001,3.519-1.571,3.52-3.515c0-0.001,0-0.002,0-0.004v-31.662H3.518V137.211z" class="color c1"/>
  <path fill="#2C92B1" d="M31.664,56.291v-17.59c0-1.942-1.572-3.519-3.515-3.521h-0.005H7.036c-1.942,0-3.517,1.573-3.519,3.516
	c0,0.002,0,0.002,0,0.005v17.59C1.574,56.291,0,57.866,0,59.811c0,1.942,1.574,3.517,3.518,3.517h28.146
	c1.943,0,3.518-1.574,3.518-3.517C35.182,57.866,33.607,56.291,31.664,56.291z" class="color c1"/>
</svg>