<svg version="1.1" id="图层_1" x="0px" y="0px" width="100.309px" height="148.064px" viewBox="0 0 100.309 148.064" enable-background="new 0 0 100.309 148.064" xml:space="preserve" xmlns="http://www.w3.org/2000/svg" xmlns:xlink="http://www.w3.org/1999/xlink" xmlns:xml="http://www.w3.org/XML/1998/namespace">
  <path fill="#FF5288" d="M100.308,128.518c-5.832-7.213-20.172-24.789-34.273-42.851c9.84-13.59,17.305-25.27,18.402-30.271
	c2.889-13.167-1.425-35.494-12.731-46.95c-0.195-0.274-0.388-0.553-0.597-0.802c-10.058-10.29-33.823-10.093-41.695,0
	c-0.001,0.002-0.003,0.004-0.004,0.006c0.001-0.002,0.003-0.005,0.004-0.008C17.501,18.831,12.915,41.917,15.872,55.396
	c1.097,5,8.563,16.681,18.402,30.271C20.173,103.728,5.832,121.305,0,128.518l16.576,1.361l-1.644,18.186
	c7.718-7.651,21.759-24.194,35.223-41.382c0.108,0.138,0.214,0.276,0.322,0.414c13.365,17.038,27.243,33.377,34.898,40.968
	l-1.644-18.186L100.308,128.518z M50.154,64.885C40.947,52.492,33.695,41.903,31.828,36.99c-4.906-12.908-5.762-21.983-3.281-27.674
	c4.838-4.053,10.778-6.682,17.119-7.418c1.878-0.221,3.788-0.276,5.71-0.155c0,0,0-0.003,0.002,0
	c2.246,0.137,4.511,0.511,6.763,1.142c0.116,0.032,0.233,0.066,0.35,0.1c1.531,0.447,3.006,0.997,4.412,1.64
	c3.643,1.659,6.855,3.947,9.562,6.682c1.547,5.735,0.385,14.194-3.983,25.685C66.613,41.904,59.361,52.492,50.154,64.885z" class="color c1"/>
  <path fill="#CB426C" d="M30.428,90.731l16.208,20.889c1.286-1.503,2.566-3.012,3.841-4.522
	c-5.617-7.161-11.142-14.444-16.077-21.255C33.078,87.477,31.753,89.109,30.428,90.731z" class="color c2"/>
</svg>