<svg version="1.1" id="图层_1" x="0px" y="0px" width="110.121px" height="24.739px" viewBox="0 0 110.121 24.739" enable-background="new 0 0 110.121 24.739" xml:space="preserve" xmlns="http://www.w3.org/2000/svg" xmlns:xlink="http://www.w3.org/1999/xlink" xmlns:xml="http://www.w3.org/XML/1998/namespace">
  <path fill="#F41812" d="M110.121,3.935c-1.083,2.196-2.72,4.151-4.582,5.824c-1.858,1.69-3.944,3.097-6.03,4.388
	c-2.108,1.294-4.332,2.488-6.589,3.522c-2.26,1.06-4.598,1.947-6.965,2.748c-2.376,0.766-4.78,1.462-7.218,1.998
	c-2.433,0.555-4.888,1.004-7.354,1.333c-0.616,0.094-1.233,0.16-1.849,0.241l-0.959,0.115l-0.901,0.089l-1.803,0.17l-1.876,0.134
	c-2.508,0.196-4.97,0.229-7.464,0.243c-2.488-0.017-4.977-0.115-7.461-0.323c-2.487-0.165-4.959-0.518-7.424-0.886
	c-2.463-0.395-4.906-0.907-7.327-1.503c-1.213-0.287-2.412-0.627-3.606-0.985c-1.199-0.337-2.381-0.731-3.56-1.126
	c-1.178-0.401-2.338-0.854-3.502-1.283c-1.156-0.471-2.292-0.931-3.443-1.448c-2.257-1.004-4.523-2.181-6.649-3.466
	c-2.134-1.306-4.192-2.731-6.107-4.33c-1.921-1.59-3.686-3.363-5.26-5.268L2.122,4.038L1.004,2.065C0.63,1.398,0.271,0.714,0,0
	c0.48,0.592,0.996,1.138,1.524,1.676c0.527,0.539,1.085,1.058,1.602,1.635L3.055,3.228c1.913,1.437,3.932,2.688,6.002,3.818
	c2.061,1.141,4.198,2.13,6.359,3.029c2.175,0.913,4.346,1.658,6.601,2.373c1.102,0.35,2.261,0.643,3.378,0.987
	c1.139,0.294,2.268,0.614,3.41,0.88c2.28,0.549,4.564,1.063,6.87,1.461c2.295,0.449,4.615,0.748,6.927,1.064
	c2.32,0.274,4.645,0.496,6.978,0.647c2.331,0.176,4.671,0.213,7.011,0.279c2.335,0.015,4.703-0.014,7.017-0.097l1.741-0.065
	l1.808-0.11l1.749-0.106c0.584-0.045,1.171-0.073,1.753-0.131c2.334-0.2,4.661-0.452,6.974-0.786
	c2.31-0.351,4.618-0.725,6.899-1.237c2.291-0.474,4.555-1.069,6.804-1.737c2.255-0.688,4.458-1.437,6.665-2.309
	c2.228-0.872,4.382-1.812,6.448-2.942C106.498,7.099,108.428,5.699,110.121,3.935z" class="color c1"/>
</svg>