<svg version="1.1" id="图层_1" x="0px" y="0px" width="73.089px" height="73.089px" viewBox="0 0 73.089 73.089" enable-background="new 0 0 73.089 73.089" xml:space="preserve" xmlns="http://www.w3.org/2000/svg" xmlns:xlink="http://www.w3.org/1999/xlink" xmlns:xml="http://www.w3.org/XML/1998/namespace">
  <path fill="#FFFFFF" d="M43.761,0H29.328c-1.11,0-2.011,0.899-2.011,2.011v25.308H2.01c-1.11,0-2.011,0.9-2.011,2.011v14.432
	c0,1.11,0.9,2.01,2.011,2.01h25.308v25.309c0,1.11,0.9,2.01,2.011,2.01h14.433c1.109,0,2.01-0.899,2.01-2.01V45.771h25.309
	c1.109,0,2.01-0.899,2.01-2.01V29.329c0-1.11-0.9-2.011-2.01-2.011H45.771V2.011C45.771,0.899,44.87,0,43.761,0z" class="color c1"/>
</svg>