<svg version="1.1" id="图层_2" x="0px" y="0px" width="82.468px" height="104.997px" viewBox="0 0 82.468 104.997" enable-background="new 0 0 82.468 104.997" xml:space="preserve" xmlns="http://www.w3.org/2000/svg" xmlns:xlink="http://www.w3.org/1999/xlink" xmlns:xml="http://www.w3.org/XML/1998/namespace">
  <path fill="#EE7E77" d="M79.531,48.68c-3.505-8.929-9.308-16.326-15.45-23.529c-6.68-7.834-13.26-15.752-19.85-23.662
	c-1.753-2.104-4.351-1.954-6.119,0.299c-3.636,4.634-7.312,9.241-11.069,13.778c-5.618,6.784-11.606,13.282-16.911,20.299
	C3.872,44.144,0.163,53.552,0,64.131c0.078,0.99,0.157,1.98,0.232,2.97c1.769,23.086,23.779,40.804,46.613,37.499
	C71.358,101.051,89.898,75.089,79.531,48.68z M48.645,97.147C27.727,101.968,6.884,85.232,7.044,63.793
	c0.048-6.396,1.794-12.419,5.016-17.898c2.319-3.943,4.824-7.848,7.749-11.35c6.996-8.375,14.288-16.502,21.535-24.814
	c7.862,9.165,15.827,18.19,23.483,27.47c4.854,5.885,8.383,12.56,9.997,20.143C78.539,74.8,66.78,92.968,48.645,97.147z
	 M32.93,84.915c-0.377,1.085-1.384,2.201-2.407,2.727c-0.735,0.377-2.137,0.095-2.938-0.393
	c-8.648-5.267-13.196-12.998-13.515-23.141c-0.07-2.212,1.496-3.771,3.503-3.735c1.956,0.036,3.365,1.504,3.451,3.854
	c0.12,3.286,0.907,6.37,2.481,9.243c1.829,3.338,4.414,5.95,7.7,7.882C32.553,82.145,33.439,83.451,32.93,84.915z" class="color c1"/>
</svg>