<svg version="1.1" id="图层_1" x="0px" y="0px" width="190.861px" height="184.298px" viewBox="0 0 190.861 184.298" enable-background="new 0 0 190.861 184.298" xml:space="preserve" xmlns="http://www.w3.org/2000/svg" xmlns:xlink="http://www.w3.org/1999/xlink" xmlns:xml="http://www.w3.org/XML/1998/namespace">
  <path fill="#52AE42" d="M46.361,136.08c-6.793,6.217-13.471,30.453-28.954,16.982c-10.364-8.98-3.974-20.09,10.879-22.91
	c16.349-3.052,6.332-34.887,4.375-48.184c-3.167-21.299-31.2,1.324-32.64-21.529c-0.633-10.938,12.895-22.797,26.883-4.605
	c9.786,12.779,23.084-6.447,28.725-14.16c10.247-14.219-29.012-17.73-12.49-36.785c7.426-8.52,23.832-7.195,22.392,14.392
	c-0.921,14.794,22.45,9.901,30.339,10.419c20.779,1.324,34.307,13.01,36.725-7.943c3.225-28.322,44.729,2.188,19.861,12.721
	c-23.142,9.787-6.62,12.607,1.612,33.965c8.634,22.45-1.556,39.375,19.917,35.287c31.546-5.93,13.182,45.361-8.923,17.327
	c-10.304-13.125-22.797,9.097-31.892,18.075c-19.688,19.344,19.745,22.049,3.742,40.354c-7.944,9.095-21.99,5.642-21.645-13.298
	c0.346-17.902-37.763-14.621-61.94-29.646C49.988,134.411,49.586,133.605,46.361,136.08L46.361,136.08z M114.403,67.002
	c0.807,0.863,1.267,1.957,1.267,3.224c0,2.532-2.071,4.605-4.605,4.605c-2.531,0-4.604-2.073-4.604-4.605
	c0-0.345,0-0.69,0.114-1.036c-2.015,0.346-3.971,0.518-5.813,0.518c-0.577,0-1.095,0.23-1.383,0.749
	c-0.288,0.46-0.345,1.036-0.115,1.554c2.533,5.527,8.118,9.384,14.622,9.384c8.808,0,16.004-7.196,16.004-16.003
	c0-1.785-0.288-3.455-0.806-5.066c-0.23-0.518-0.634-0.921-1.21-1.036c-0.518-0.173-1.093,0-1.497,0.403
	C123.441,62.57,119.297,65.16,114.403,67.002L114.403,67.002z M79.52,68.096c0,0.23,0.058,0.461,0.058,0.748
	c0,2.533-2.072,4.605-4.663,4.605c-2.533,0-4.605-2.072-4.605-4.605c0-1.266,0.519-2.418,1.324-3.281
	c-4.088-1.785-7.599-4.087-10.189-6.619c-0.402-0.404-0.979-0.576-1.496-0.404c-0.575,0.116-0.979,0.519-1.21,1.037
	c-0.518,1.611-0.805,3.281-0.805,5.065c0,8.864,7.196,16.003,16.002,16.003c6.506,0,12.09-3.856,14.621-9.383
	c0.231-0.518,0.175-1.094-0.113-1.555c-0.288-0.46-0.806-0.748-1.382-0.748C84.699,68.959,82.109,68.672,79.52,68.096L79.52,68.096z
	 M110.259,110.406c-0.402-6.102-4.202-11.686-10.245-14.046c-8.232-3.166-17.501,0.921-20.725,9.21
	c-0.633,1.612-0.979,3.34-1.035,5.008c-0.059,0.576,0.229,1.037,0.69,1.383c0.46,0.346,1.035,0.402,1.554,0.172
	c4.201-1.842,9.729-2.763,15.657-2.532c4.375,0.229,8.404,1.094,11.858,2.417c0.52,0.174,1.094,0.115,1.555-0.23
	C110.028,111.442,110.259,110.982,110.259,110.406L110.259,110.406z" class="color c1"/>
</svg>