<svg version="1.1" id="图层_1" x="0px" y="0px" width="134.232px" height="65.336px" viewBox="0 0 134.232 65.336" enable-background="new 0 0 134.232 65.336" xml:space="preserve" xmlns="http://www.w3.org/2000/svg" xmlns:xlink="http://www.w3.org/1999/xlink" xmlns:xml="http://www.w3.org/XML/1998/namespace">
  <path fill="#6A371C" d="M122.871,20.34L90.938,0L69.397,34.161l25.959,16.534c9.363,5.906,19.849,11.628,26.628,3.527
	c-5.904,9.36-19.535,5.946-28.898,0.043L67.141,37.738l-0.045,0.071l-0.007-0.012L41.145,54.323
	c-9.362,5.906-22.994,9.322-28.898-0.041c6.78,8.098,17.266,2.377,26.627-3.525l25.96-16.539L43.293,0.058L11.36,20.398
	C-0.011,27.57-3.416,42.604,3.756,53.975c7.171,11.373,22.203,14.777,33.575,7.607l29.831-19.006l29.74,18.945
	c11.372,7.172,26.403,3.766,33.574-7.607C137.648,42.543,134.242,27.51,122.871,20.34z" class="color c1"/>
</svg>