<svg version="1.1" id="图层_1" x="0px" y="0px" width="100.438px" height="148.66px" viewBox="0 0 100.438 148.66" enable-background="new 0 0 100.438 148.66" xml:space="preserve" xmlns="http://www.w3.org/2000/svg" xmlns:xlink="http://www.w3.org/1999/xlink" xmlns:xml="http://www.w3.org/XML/1998/namespace">
  <path fill="#388C86" d="M88.419,27.662c1.886,4.21,0.002,9.152-4.208,11.039c-4.209,1.887-9.152,0.003-11.039-4.207
	c-1.886-4.21-0.002-9.152,4.208-11.039C81.59,21.569,86.532,23.452,88.419,27.662z M76.116,0
	c25.958,32.25,15.25,63.998-4.939,37.635C43.142,1.026,9.987,3.969,5.304,3.934C28.949,7.419,50.365,22.53,60.862,45.958
	c16.344,36.478,0.023,79.296-36.453,95.641c-7.948,3.561-16.198,5.57-24.409,6.16c15.926,2.299,32.671,0.263,48.441-6.804
	c44.316-19.856,64.145-71.88,44.288-116.197C88.515,15.352,83.79,8.556,76.116,0z" class="color c1"/>
</svg>