<svg version="1.1" id="图层_2" x="0px" y="0px" width="88px" height="113.3px" viewBox="0 0 88 113.3" enable-background="new 0 0 88 113.3" xml:space="preserve" xmlns:xml="http://www.w3.org/XML/1998/namespace" xmlns="http://www.w3.org/2000/svg" xmlns:xlink="http://www.w3.org/1999/xlink">
  <path fill="#CF0000" d="M44.4,0c0.9,1.2,1.9,2.7,3,4.1c7.7,9.7,15.5,19.3,23,29.1c4.3,5.7,8.3,11.7,12,17.8
	c11.6,19,3.4,39.2-7.8,49.7C62,112.5,47.2,116.2,30.8,111C14.2,105.8,4.3,94,0.7,77c-1.6-7.7-0.5-15.1,2.9-22.1
	C7.2,47.3,12,40.5,17.1,34C26.2,22.6,35.3,11.3,44.4,0z" class="color c1"/>
  <path fill="#FFFFFF" d="M15.6,71c0-0.4,0-0.8,0-1.3c0.1-1.7,1.1-2.8,2.6-2.9c1.6-0.1,2.9,0.9,3.1,2.6c0.2,1.2,0.1,2.5,0.3,3.7
	c1.8,10.2,9.5,17.2,19.7,18.3c0.5,0.1,1.1,0.1,1.6,0.1c2,0.2,3.2,1.3,3.1,3c-0.1,1.7-1.4,3-3.4,2.7c-3.3-0.5-6.8-0.8-9.9-2.1
	C22.2,90.6,16.6,82.4,15.6,71z" class="color c2"/>
</svg>