<svg version="1.1" id="图层_1" x="0px" y="0px" width="148.373px" height="200px" viewBox="0 0 148.373 200" enable-background="new 0 0 148.373 200" xml:space="preserve" xmlns="http://www.w3.org/2000/svg" xmlns:xlink="http://www.w3.org/1999/xlink" xmlns:xml="http://www.w3.org/XML/1998/namespace">
  <path fill="#13A19B" d="M137.021,71.478c-7.693-8.614-18.283-13.358-29.816-13.358c-9.018,0-18.743,5.365-25.849,9.285
	c-2.587,1.428-6.125,3.38-7.171,3.509c-1.041-0.126-4.56-2.074-7.142-3.501c-7.087-3.922-16.795-9.293-25.875-9.293
	c-11.535,0-22.124,4.744-29.817,13.358C4.031,79.672,0,90.459,0,101.851c0,16.273,5.845,39.415,15.633,61.907
	c4.354,10.008,8.989,18.654,13.404,25.006C34.292,196.325,38.801,200,42.823,200c1.785,0,5.054-0.757,6.887-5.828
	c1.782-4.928,3.385-10.584,5.084-16.584c4.498-15.876,10.096-35.637,19.107-35.637h0.57c4.006,0,7.594,3.432,10.964,10.492
	c3.34,6.994,5.879,16.295,8.338,25.3c1.624,5.953,3.16,11.575,4.885,16.415c1.796,5.04,5.027,5.794,6.796,5.795
	c4.003,0,8.507-3.731,13.773-11.406c4.403-6.418,9.048-15.15,13.434-25.256c9.838-22.672,15.712-45.641,15.712-61.441
	C148.373,90.458,144.342,79.672,137.021,71.478 M104.424,83.159c-0.093-0.006-9.41-0.453-17.892-2.698
	c-3.825-1.013-8.348-3.047-8.348-3.651c0-0.587,4.913-3.448,6.099-4.102c6.525-3.6,15.463-8.531,22.922-8.531
	c21.977,0,35.11,19.155,35.11,37.674c0,14.789-5.828,37.409-15.212,59.029c-4.171,9.614-8.742,18.223-12.87,24.239
	c-4.764,6.943-7.845,8.961-8.779,8.777c-0.573-0.113-0.645-0.521-1.09-1.771c-1.65-4.629-3.156-10.145-4.751-15.985
	c-2.525-9.253-5.137-18.819-8.711-26.307c-4.479-9.38-9.854-13.939-16.431-13.939h-0.57c-6.335,0-11.585,4.522-16.049,13.827
	c-3.563,7.427-6.27,16.979-8.886,26.216c-1.667,5.886-3.242,11.446-4.953,16.176c-0.377,1.043-0.493,1.726-1.19,1.831
	c-0.546,0.083-2.879-0.099-8.813-8.637c-4.132-5.943-8.686-14.455-12.825-23.967c-9.332-21.441-15.128-44.238-15.128-59.49
	c0-18.519,13.134-37.673,35.111-37.673c5.712,0,13.22,2.604,20.081,6.963c1.007,0.64,2.424,1.729,3.795,2.782
	c0.547,0.421,1.085,0.834,1.587,1.212c1.608,1.205,3.782,2.78,6.334,4.282c1.09,0.643,2.443,1.442,3.881,2.053
	c5.5,2.334,11.331,3.518,17.332,3.518c6.114,0,10.227-1.088,10.267-1.101c0,0,0.921-0.243,0.892-0.482
	C105.308,83.166,104.424,83.159,104.424,83.159z M95.406,7.808c0.912,10.881,0.977,27.942-4.509,36.263
	c-4.389,6.658-9.331,10.034-14.688,10.034c-3.01,0-6.128-1.049-9.268-3.119c-8.847-5.832-9.916-14.388-3.09-24.744
	C69.322,17.943,85.041,11.268,95.406,7.808 M100.549,0c0,0-32.035,8.268-41.707,22.94c-9.671,14.672-5.438,26.309,4.797,33.056
	c3.965,2.614,8.247,4.109,12.57,4.109c6.837,0,13.774-3.744,19.698-12.732C105.579,32.7,100.549,0,100.549,0L100.549,0z" class="color c1"/>
</svg>