<svg version="1.1" id="图层_1" x="0px" y="0px" width="103.688px" height="89.342px" viewBox="0 0 103.688 89.342" enable-background="new 0 0 103.688 89.342" xml:space="preserve" xmlns="http://www.w3.org/2000/svg" xmlns:xlink="http://www.w3.org/1999/xlink" xmlns:xml="http://www.w3.org/XML/1998/namespace">
  <path fill="#FFFFFF" d="M8.798,27.988c-0.152,1.184,0.57,1.777,0.761,1.84c0.19,0.064,0.406-0.15,1.587-1.271
	c1.182-1.121,3.783-3.871,5.146-5.781c1.365-1.908,2.048-2.818,3.111-5.527c1.065-2.705,0.574-7.701,2.605-10.799
	c0.757-1.152,1.97-2.137,3.302-2.494c1.505-0.404,3.166,0.068,4.639,0.572c1.097,0.375,2.302,0.846,2.986,1.781
	c0.438,0.596,0.583,1.422,0.51,2.158c-0.472,4.672-3.479,8.77-5.909,12.787C20.741,32.48,9.1,40.574,3.535,52.458
	c-2.229,4.76-3.963,10.158-3.442,15.387c0.374,3.766,2.155,7.498,4.613,10.375c3.644,4.262,8.748,7.529,14.118,9.145
	c9.796,2.945,20.64,2.221,30.688,0.293c6.786-1.301,14.614-4.723,19.186-7.855c4.641-3.18,7.044-7.703,7.044-7.703
	s-5.434,1.926-8.841,1.785c-3.406-0.137-6.854-0.754-10.998-2.703c-3.386-1.594-8.097-3.896-16.231-14.998
	c3.961,4.873,8.572,11.582,15.046,13.18c5.134,1.268,15.428-3.699,15.428-3.699S59.851,64.113,47.58,47.542
	c5.256,7.314,14.863,16.322,20.988,16.699c6.127,0.375,14.113-7.084,14.113-7.084S71.561,55.466,54.25,39.41
	c7.037,6.281,19.384,15.521,26.72,16.299c7.49-0.926,12.355-12.521,12.355-12.521s-10.43-0.867-30.119-10.891
	c7.92,4.092,19.677,8.482,28.65,9.717c5.55-1.801,11.831-15.834,11.831-15.834s-28.825-3.246-43.118-1.641
	c-5.415,0.607-10.887,1.854-15.792,4.229c-4.825,2.336-9.143,5.779-12.898,9.605c-5.208,5.307-12.983,18.133-12.983,18.133
	L32.3,26.4c0,0,5.995-11.137,6.479-17.264c0.158-2.002,0.057-4.344-1.207-5.908c-1.511-1.869-4.259-2.371-6.606-2.891
	C29.187-0.057,27.295-0.114,25.5,0.21c-1.638,0.297-2.271,0.443-4.635,1.861c-2.362,1.418-6.955,5.176-8.83,7.43
	c-1.874,2.252-2.878,3.076-2.986,5.256c-0.105,2.176,2.524,4.85,2.86,6.43c0.336,1.584,0.414,1.43,0,2.668
	C11.494,25.095,8.948,26.802,8.798,27.988z" class="color c1"/>
</svg>