<svg version="1.1" id="图层_1" x="0px" y="0px" width="74.505px" height="44.419px" viewBox="0 0 74.505 44.419" enable-background="new 0 0 74.505 44.419" xml:space="preserve" xmlns="http://www.w3.org/2000/svg" xmlns:xlink="http://www.w3.org/1999/xlink" xmlns:xml="http://www.w3.org/XML/1998/namespace">
  <path fill-rule="evenodd" clip-rule="evenodd" fill="#C39454" d="M13.29,36.458c15.097-4.426,31.09-4.158,47.816,0v7.962
	c-18.459-4.542-30.116-4.829-47.816,0V36.458L13.29,36.458z M57.481,39.59c0.602,0,1.093,0.477,1.093,1.061
	c0,0.582-0.491,1.059-1.093,1.059c-0.603,0-1.094-0.477-1.094-1.059C56.387,40.067,56.878,39.59,57.481,39.59L57.481,39.59z
	 M18.58,39.59c0.6,0,1.091,0.477,1.091,1.061c0,0.582-0.491,1.059-1.091,1.059c-0.603,0-1.096-0.477-1.096-1.059
	C17.484,40.067,17.977,39.59,18.58,39.59L18.58,39.59z M26.883,36.965c0.938,0,1.703,0.742,1.703,1.654
	c0,0.907-0.765,1.649-1.703,1.649c-0.939,0-1.706-0.742-1.706-1.649C25.177,37.708,25.944,36.965,26.883,36.965L26.883,36.965z
	 M49.176,36.965c0.938,0,1.703,0.742,1.703,1.654c0,0.907-0.766,1.649-1.703,1.649c-0.941,0-1.704-0.742-1.704-1.649
	C47.472,37.708,48.235,36.965,49.176,36.965L49.176,36.965z M37.462,35.271c1.227,0,2.226,0.972,2.226,2.161
	s-0.999,2.158-2.226,2.158c-1.229,0-2.231-0.969-2.231-2.158S36.234,35.271,37.462,35.271L37.462,35.271z M50.474,8.821
	c-3.495,1.641-6.558,3.322-8.989,3.279c0.026-0.174,0.038-0.35,0.038-0.531c0-2.17-1.826-3.938-4.061-3.938
	c-2.24,0-4.063,1.768-4.063,3.938c0,0.174,0.014,0.344,0.037,0.516c-2.482,0.216-5.666-1.546-9.323-3.264
	c-8.863-4.164-13.827,3.972-9.208,8.156c1.984,1.799,3.054,3.232,4.057,4.664c1.67,2.381,4.342-0.521,1.835-2.869
	C16.385,14.64,19.024,9.291,24.364,12c3.633,1.844,6.598,2.467,10.346,2.458c0.205,0.179,0.426,0.339,0.664,0.479v6.729
	c1.51-1.078,2.637-1.129,4.306,0v-6.806c0.188-0.12,0.368-0.255,0.534-0.405c3.592-0.025,6.484-0.667,10.008-2.455
	c5.341-2.71,7.981,2.64,3.566,6.771c-2.505,2.348,0.163,5.25,1.834,2.869c1.007-1.432,2.075-2.865,4.06-4.664
	C64.301,12.792,59.334,4.657,50.474,8.821L50.474,8.821z M74.47,18.25c-0.848-5.121-5.044-7.01-11.27-7.234
	c0.772,1.729,1.247,3.458-0.366,5.191c8.816-0.723,8.826,4.496,3.982,8.347c-1.945,1.545-0.097,3.977,1.372,2.464
	C71.237,23.874,74.901,20.846,74.47,18.25L74.47,18.25z M0.035,18.25c0.848-5.121,5.042-7.01,11.275-7.234
	c-0.777,1.729-1.252,3.458,0.363,5.191c-8.819-0.723-8.83,4.496-3.984,8.347c1.946,1.545,0.096,3.977-1.374,2.464
	C3.266,23.874-0.395,20.846,0.035,18.25L0.035,18.25z M63.518,30.768c0.156,0.026,0.306,0.07,0.443,0.137
	c-0.532-0.353-0.836-0.984-0.723-1.64c0.154-0.896,1.038-1.505,1.965-1.353c0.922,0.15,1.548,1.005,1.394,1.902
	c-0.156,0.895-1.037,1.503-1.964,1.354c-0.157-0.027-0.304-0.074-0.44-0.137c0.531,0.353,0.835,0.984,0.72,1.639
	c-0.154,0.896-1.035,1.505-1.963,1.354c-0.924-0.152-1.55-1.006-1.396-1.902C61.712,31.226,62.591,30.618,63.518,30.768
	L63.518,30.768z M11.262,30.956c-0.158,0.025-0.305,0.07-0.442,0.137c0.532-0.354,0.835-0.986,0.722-1.641
	c-0.156-0.895-1.039-1.504-1.966-1.353C8.654,28.252,8.025,29.105,8.183,30c0.155,0.896,1.037,1.504,1.96,1.354
	c0.158-0.026,0.307-0.073,0.443-0.134c-0.532,0.35-0.835,0.981-0.722,1.637c0.157,0.896,1.04,1.502,1.964,1.354
	c0.925-0.154,1.552-1.006,1.396-1.904C13.068,31.411,12.186,30.805,11.262,30.956L11.262,30.956z M19.482,27.209
	c-1.121,0.182-1.882,1.219-1.692,2.307s1.26,1.822,2.381,1.642c1.122-0.185,1.883-1.22,1.693-2.308
	c-0.04-0.227-0.116-0.438-0.226-0.63c0.169,0.015,0.341,0.009,0.517-0.021c0.175-0.026,0.341-0.08,0.496-0.145
	c-0.039,0.215-0.042,0.439-0.002,0.666c0.189,1.086,1.26,1.824,2.382,1.639c1.123-0.182,1.882-1.219,1.692-2.305
	c-0.189-1.088-1.26-1.824-2.38-1.641c-0.174,0.029-0.34,0.08-0.495,0.145c0.036-0.217,0.04-0.439,0-0.665
	c-0.19-1.087-1.26-1.823-2.382-1.642c-1.121,0.186-1.882,1.221-1.691,2.307c0.038,0.227,0.118,0.438,0.225,0.627
	C19.832,27.175,19.658,27.18,19.482,27.209L19.482,27.209z M50.418,26.415c0.175,0.029,0.341,0.08,0.496,0.145
	c-0.04-0.217-0.04-0.439,0-0.665c0.189-1.087,1.258-1.823,2.382-1.642c1.122,0.186,1.883,1.221,1.692,2.307
	c-0.041,0.227-0.118,0.438-0.229,0.627c0.171-0.011,0.344-0.006,0.52,0.023c1.122,0.182,1.881,1.219,1.69,2.307
	s-1.255,1.822-2.379,1.642c-1.122-0.185-1.883-1.22-1.694-2.308c0.041-0.227,0.117-0.438,0.226-0.63
	c-0.168,0.015-0.342,0.009-0.518-0.021c-0.173-0.026-0.341-0.08-0.494-0.145c0.038,0.215,0.04,0.439,0,0.666
	c-0.188,1.086-1.258,1.824-2.378,1.639c-1.125-0.182-1.882-1.219-1.695-2.305C48.229,26.967,49.295,26.231,50.418,26.415
	L50.418,26.415z M40.347,24.936c1.371,0,2.489,1.086,2.489,2.416c0,1.329-1.118,2.413-2.489,2.413c-1.374,0-2.492-1.084-2.492-2.413
	c0-0.082,0.003-0.166,0.014-0.244c-0.133,0.02-0.27,0.031-0.406,0.031c-0.206,0-0.4-0.023-0.587-0.067
	c0.011,0.091,0.02,0.186,0.02,0.28c0,1.329-1.122,2.413-2.496,2.413c-1.368,0-2.489-1.084-2.489-2.413
	c0-1.33,1.121-2.416,2.489-2.416c0.202,0,0.4,0.023,0.586,0.068c-0.007-0.092-0.018-0.184-0.018-0.279
	c0-1.329,1.122-2.413,2.495-2.413c1.371,0,2.492,1.084,2.492,2.413c0,0.082-0.008,0.163-0.014,0.245
	C40.074,24.95,40.208,24.936,40.347,24.936L40.347,24.936z M42.658,3.735c1.101,0,1.995,0.869,1.995,1.936s-0.895,1.935-1.995,1.935
	c-1.1,0-1.998-0.868-1.998-1.935S41.558,3.735,42.658,3.735L42.658,3.735z M31.304,3.735c1.103,0,2,0.869,2,1.936
	s-0.897,1.935-2,1.935c-1.101,0-1.996-0.868-1.996-1.935S30.204,3.735,31.304,3.735L31.304,3.735z M37.462,0
	c1.371,0,2.492,1.086,2.492,2.414c0,1.331-1.121,2.415-2.492,2.415c-1.373,0-2.495-1.084-2.495-2.415
	C34.967,1.086,36.089,0,37.462,0L37.462,0z" class="color c1"/>
</svg>