<svg version="1.1" id="图层_1" x="0px" y="0px" width="91.117px" height="87.706px" viewBox="0 0 91.117 87.706" enable-background="new 0 0 91.117 87.706" xml:space="preserve" xmlns="http://www.w3.org/2000/svg" xmlns:xlink="http://www.w3.org/1999/xlink" xmlns:xml="http://www.w3.org/XML/1998/namespace">
  <path fill="#DD4555" d="M65.518,0C57.432,0,50.25,3.915,45.559,9.988C40.867,3.915,33.686,0,25.6,0C11.461,0-0.071,11.889,0,26.554
	c0.139,28.43,22.77,36.487,45.557,61.152c22.786-24.665,45.422-32.723,45.561-61.152C91.188,11.889,79.656,0,65.518,0z" class="color c1"/>
  <path fill="#FFFFFF" d="M65.277,4.462c-1.116-1.879-3.752-1.345-5.821-0.367c-0.375-0.007-0.758,0.022-1.153,0.106
	c-1.175,0.251-2.404,0.955-3.096,1.958c-0.8,1.157-0.521,2.618,0.621,3.438c1.249,0.896,2.972,0.538,4.353,0.188
	C62.166,9.282,67.013,7.384,65.277,4.462z" class="color c2"/>
</svg>