<svg version="1.1" id="图层_1" x="0px" y="0px" width="174.962px" height="158.494px" viewBox="0 0 174.962 158.494" enable-background="new 0 0 174.962 158.494" xml:space="preserve" xmlns="http://www.w3.org/2000/svg" xmlns:xlink="http://www.w3.org/1999/xlink" xmlns:xml="http://www.w3.org/XML/1998/namespace">
  <path fill="#EDC10C" d="M138.72,124.001c-0.293,0.74-0.77,1.443-1.415,2c-0.267,0.203-0.517,0.451-0.816,0.612l-0.444,0.255
	l-0.224,0.127l-0.025,0.015c0.006-0.002,0.012-0.004,0.004-0.001c-0.008,0.004-0.062,0.028-0.094,0.042
	c-0.015,0.006-0.024,0.009-0.023,0.01l-0.05,0.017l-0.104,0.04l-0.417,0.157c-0.12,0.057-0.313,0.099-0.509,0.14
	c-0.383,0.083-0.783,0.165-1.127,0.156c-1.431,0.069-2.878-0.328-4.091-1.113c-0.777-0.501-1.445-1.162-1.984-1.919l-16.318-17.003
	c0.453-0.268,0.896-0.564,1.33-0.888l13.527,14.097c-0.102-0.597-0.12-1.201-0.149-1.812c-0.037-0.367,0.024-0.725,0.041-1.091
	c0.026-0.364,0.054-0.729,0.082-1.097c0.133-0.717,0.244-1.449,0.404-2.17c0.203-0.718,0.386-1.405,0.61-2.161
	c0.123-0.342,0.23-0.672,0.366-1.025l0.246-0.622c0.752-2.086,1.733-4.133,2.808-6.152c0.379-0.781,0.757-1.56,1.131-2.341
	c2.582-5.311,4.977-10.654,6.708-15.794c0.869-2.569,1.579-5.079,2.111-7.476c0.533-2.396,0.89-4.677,1.106-6.783
	c0.093-0.849,0.147-1.66,0.184-2.448c-0.309,0.042-0.594,0.068-0.836,0.072c-1.744,0.025-2.019-0.699-2.019-0.699
	s-0.357-0.256-4.888,2.192c-4.53,2.449-8.771,3.791-8.771,3.791c-2.198,1.895-3.914,0.54-4.43,0.297
	c-2.833,1.635-6.683,4.216-11.533,5.193c-1.53,0.308-2.943,0.337-4.232,0.167c-3.869-0.504-6.622-2.784-8.04-4.625
	c-0.024-0.014-0.134,5.995,7.648,7.405c0.038,0.006,0.074,0.017,0.112,0.027c0.417,0.467,0.877,0.941,1.382,1.394
	c2.412,2.161,9.193,7.436,8.477,13.603c-0.258,2.226-1.328,4.024-2.586,5.415c-0.711,0.711-2.043,2.043-3.774,2.991
	c-0.357,0.195-0.723,0.361-1.094,0.514c-0.069,0.028-0.139,0.055-0.209,0.082c-0.363,0.139-0.732,0.263-1.109,0.358
	c-0.004,0.001-0.008,0.003-0.013,0.003l-0.002,0.001c-1.511,0.379-3.109,0.383-4.766-0.108c-0.033-0.01-0.052,0.035-0.021,0.049
	c0.966,0.506,2.886,1.118,2.936,1.134c2.555,0.888,5.646,4.244,6.396,5.426c0.018,0.028,0.061,0.006,0.048-0.025
	c-0.712-1.711-2.848-5.63-1.969-5.673c2.99,2.605,6.735,7.943,6.516,12.691c-0.137,2.99,0.222,3.848-0.526,5.62
	c-0.747,1.773-3.938,2.434-3.938,2.434s-1.678,1.416-4.27,3.083c-2.592,1.664-14.366,6.467-21.858,11.98
	c-7.492,5.512-3.8,6.751-4.43,9.26c-0.281,1.119,0.904,1.624,1.372,2.206c0.58,0.724,0.047,1.257-0.443,1.593
	c-0.685,0.465-1.151,0.401-1.697,0.221c-0.51,0.569-1.46,0.777-2.172,0.573c-0.452-0.127-0.74-0.386-0.968-0.695
	c-0.109,0.075-0.246,0.124-0.412,0.127c-0.88,0.023-1.2-0.691-1.363-1.434c-1.572-1.683-3.084-6.456-0.392-10.018
	c1.436-1.898,0.141-3.34-0.186-5.002c-0.375-1.903,0.275-3.898,3.611-3.841c6.251,0.11,5.817-2.349,6.341-8.48
	c0.309-3.61,3.651-5.53,6.351-6.501c0.435,0.057,0.86,0.091,1.268,0.095c3.413,0.041,6.634-1.288,9.3-3.402
	c0.038-0.03-0.002-0.083-0.043-0.057c-3.109,2.033-6.654,2.447-10.144,1.586c-2.23-0.55-5.342-2.775-6.294-3.833
	c1.332-1.727,2.416-3.643,3.173-5.752c0.002-0.004-0.005-0.007-0.009-0.002c-5.258,6.58-9.06,8.538-10.544,9.457
	c-8.491,4.375-17.346,5.216-19.474,6.832c-2.724,2.071-3.914,2.825-6.824,3.489c-2.911,0.664-6.458,1.011-15.634,4.509
	c-5.725,2.18-8.769,3.25-11.583,4.768c-2.813,1.517-5.67,1.963-6.436,3.131c-0.143,0.218-0.305,0.384-0.47,0.531
	c-0.037,0.253-0.094,0.498-0.263,0.726c-0.263,0.354-0.681,0.586-1.112,0.667c-0.132,0.024-0.261,0.028-0.39,0.024
	c0.006,0.315,0.164,0.561-0.071,0.899c-0.489,0.701-1.942,0.556-2.534,0.167c-0.577-0.381-0.71-1.044-0.601-1.808
	c-0.012-0.458,0.044-1.026,0.195-1.734c0.417-1.953,1.017-4.035,2.346-5.109c2.142-1.73,5.375-1.914,6.786-2.743
	c2.286-1.342-1.201-5.502,5.717-4.95c6.919,0.552,5.047-4.671,12.211-11.487c7.164-6.816,15.634-4.508,15.634-4.508
	c1.389-5.576,6.565-6.589,6.565-6.589s-2.579-4.764,1.511-9.259c5.316-5.842,13.075-4.157,15.314-6.25
	c2.598-2.428,2.516-5.378-0.287-8.726c-0.017-0.019-0.051,0.001-0.041,0.023c0.77,1.598,1.939,3.789-0.34,6.344
	c-1.242,1.393-3.099,0.989-3.306,0.661c0.973-0.996,1.675-2.255,2.09-3.83c0.008-0.027-0.033-0.035-0.044-0.011
	c-0.711,1.497-1.831,2.582-3.161,3.365c-4.809,2.002-9.353,1.724-10.48,0.03c-0.464-0.696-0.446-1.287-0.202-1.773
	c3.278-1.662,6.157-4.134,8.038-7.157c0.016-0.024-0.016-0.05-0.036-0.026c-3.522,4.312-10.15,6.66-15.564,7.19
	c-0.232,0.024-0.462,0.033-0.693,0.048c-10.05-0.188-12.761-6.795-12.761-6.795c0.942,0.094,9.178,1.269,15.539-5.967
	c0.021-0.023-0.014-0.058-0.037-0.037c-4.849,3.959-13.24,4.124-19.026,3.085c-0.931-0.166-1.816-0.395-2.667-0.671
	c-5.685-2.664-7.46-7.091-7.736-7.875c6.225,1.42,12.102,0.85,18.979-2.516c0.022-0.011,0.009-0.041-0.013-0.032
	c-6.491,2.218-16.025,1.026-20.198,0.137c-0.032-0.008-0.063-0.017-0.095-0.024c-6.795-2.45-11.045-7.199-11.872-9.659
	c-0.771-2.294,2.559-2.373,4.791-2.184c3.847,1.471,7.69,2.049,12.282,1.691c0.042-0.005,0.053-0.06,0.011-0.063
	c-8.003-0.555-15.57-3.956-21.794-8.528c-3.119-2.291-5.815-5.104-7.696-8.438c-1.67-4.161-0.946-7.046-0.946-7.046
	c0.009,0.007,0.018,0.014,0.026,0.02H0.182c2.429,1.816,5.579,3.873,9.254,5.969c0.048,0.029,0.101,0.055,0.148,0.084
	c0.479,0.272,0.963,0.544,1.458,0.818c0.055,0.03,0.113,0.061,0.169,0.09c0.49,0.27,0.986,0.541,1.495,0.809
	c0.158,0.083,0.322,0.167,0.48,0.25c0.412,0.218,0.821,0.434,1.242,0.649c0.23,0.117,0.468,0.234,0.701,0.352
	c0.357,0.181,0.711,0.361,1.073,0.541c0.333,0.166,0.675,0.327,1.014,0.49c0.27,0.133,0.537,0.264,0.812,0.396
	c0.374,0.177,0.755,0.352,1.134,0.528c0.248,0.116,0.492,0.232,0.742,0.346c0.442,0.203,0.893,0.402,1.342,0.602
	c0.193,0.085,0.381,0.171,0.575,0.256c0.474,0.208,0.954,0.412,1.435,0.616c0.175,0.073,0.348,0.151,0.525,0.225
	c0.546,0.229,1.099,0.453,1.653,0.677c0.114,0.046,0.225,0.094,0.341,0.139c0.598,0.24,1.202,0.474,1.81,0.707
	c0.073,0.028,0.146,0.056,0.218,0.084c0.658,0.252,1.324,0.496,1.992,0.737c0.021,0.009,0.043,0.016,0.065,0.024
	c7.576,2.726,15.675,4.792,23.53,5.433c0.027,0.002,0.053,0.007,0.079,0.007c2.149,0.175,4.281,0.239,6.377,0.184
	c1.541-0.041,3.082-0.035,4.619,0.029c2.56,0.106,5.108,0.372,7.614,0.852c1.304,0.249,2.603,0.557,3.879,0.927
	c5.944,1.715,11.411,4.787,14.581,9.855c0.018,0.027,0.064,0.004,0.048-0.026c-2.767-5.118-7.075-9.307-12.44-11.915
	c-0.373-0.181-0.75-0.35-1.13-0.505c-4.943-2.037-10.452-2.072-15.825-2.557c-0.826-0.076-1.65-0.16-2.468-0.266
	c-14.546-1.863-23-5.668-23.952-6.158c-0.503-0.927-0.584-1.585-0.42-2.05c0.273-0.776,1.226-1.016,2.037-1.075
	c3.076,1.636,6.771,2.391,10.249,2.446c0.035,0,0.047-0.053,0.012-0.061c-1.406-0.31-2.905-0.809-4.392-1.453
	c-0.296-0.127-0.593-0.263-0.888-0.403c-2.95-1.402-5.755-3.352-7.529-5.514c-1.058-1.29-1.843-2.72-2.512-4.21
	c-2.171-5.601,1.326-7.213,1.326-7.213c0.562,0.534,1.129,1.059,1.698,1.575c8.536,7.741,17.696,13.471,21.748,15.613
	c0.115,2.538,2.194,4.077,4.367,4.993c2.463,1.039,5.045,1.276,5.024,1.264c-1.122-0.741-3.63-1.299-5.769-4.222
	c-0.143-0.195-0.284-0.399-0.423-0.616c-0.457-0.711-0.814-2.287-0.832-2.583c-0.312,0.061-0.643,0.05-0.935-0.026
	c-0.029-0.013-0.054-0.032-0.084-0.046c-0.035-0.015-0.073-0.015-0.113-0.016c-0.552-0.215-0.882-0.699-0.49-1.404
	c0.015-0.026,0.063-0.014,0.059,0.016c-0.01,0.087,0.014,0.133,0.066,0.149c0.154,0.051,0.542-0.168,0.883-0.399
	c-1.103-0.444-1.659-1.85-0.898-2.792l0,0l0,0c0.147,0.512,0.558,0.895,1.064,1.065c0.168,0.058,0.349,0.089,0.534,0.096
	c0.548,0.02,1.137-0.166,1.659-0.481c0.87-0.523,1.557-1.408,1.572-2.311c0-0.014-0.009-0.02-0.02-0.02
	c-0.01,0.001-0.022,0.01-0.026,0.02c-0.027,0.101-0.065,0.197-0.109,0.288c-0.318,0.646-1.04,1.081-1.79,1.256
	c-0.349-0.278-0.561-0.562-0.673-0.836c-0.188-0.463-0.103-0.907,0.07-1.273c-0.607-0.628-1.016-1.496-1.039-2.372
	c-0.014-0.523,0.11-1.052,0.414-1.53c0.175-0.275,0.389-0.498,0.631-0.672c0.725-0.522,1.697-0.607,2.573-0.357l0,0l0,0
	c0.035,0.011,0.025,0.065-0.012,0.069c-1.183,0.067-1.241,1.358-0.764,2.248c0.037-0.295,0.138-0.586,0.336-0.85
	c0.304-0.403,0.762-0.648,1.246-0.711c0.291-0.039,0.589-0.01,0.868,0.086c0.045,0.015,0.026,0.074-0.021,0.068
	c-0.247-0.029-0.417,0-0.532,0.067c-0.343,0.204-0.176,0.756,0.013,1.102c0.047,0.007,0.094,0.013,0.143,0.013
	c0.145,0.002,0.295-0.033,0.466-0.145c0.194-0.127,0.328-0.326,0.42-0.558c-0.217-1.628-1.98-3.623,0.042-5.868
	c1.467-1.628,2.987-1.902,4.102-1.802c0.118-0.729,0.526-1.471,1.136-2.196c0.014-0.017,0.032-0.018,0.045-0.01
	c0.015,0.007,0.022,0.024,0.017,0.043c-0.171,0.532-0.012,1.048,0.314,1.508c0.582-1.213,1.494-2.417,2.756-3.036
	c0.545-0.268,1.115-0.4,1.665-0.351c0.956-1.024,2.07-1.874,3.421-2.379c1.081-0.402,2.559-0.643,3.574-0.03
	c0.093,0.056,0.177,0.118,0.254,0.181c0.535,0.455,0.688,1.105,0.806,1.774c0.405-0.381,0.75-0.813,0.728-1.148
	c-0.008-0.112-0.057-0.212-0.157-0.297c-0.043-0.035-0.002-0.097,0.051-0.082c0.12,0.037,0.228,0.081,0.326,0.131
	c0.294,0.152,0.493,0.361,0.619,0.608c0.039-0.075,0.083-0.14,0.116-0.224c0.331-0.851,0.281-1.917-0.268-2.51
	c-0.33-0.357-0.838-0.543-1.552-0.411c-0.036,0.008-0.047-0.036-0.011-0.052c0.883-0.334,1.834-0.263,2.599,0.111
	c0.782,0.223,1.527,0.59,2.022,1.149c0.183,0.207,0.372,0.475,0.532,0.771c0.123-0.103,0.25-0.208,0.379-0.309
	c0.906-0.714,1.94-1.339,2.988-1.498c1.191-0.18,2.306,0.79,2.291,1.651c0.318-0.002,0.634,0.015,0.948,0.042
	c0.082,0.081,0.162,0.161,0.24,0.241c0.545,0.565,0.968,1.158,1.034,2.075c0.122,1.69-0.826,3.086-2.37,3.907
	c-0.042,0.022-0.019,0.083,0.026,0.064c0.569-0.232,1.104-0.551,1.583-0.932c0.959-0.761,1.7-1.769,2.075-2.831
	c0.188-0.531,0.284-1.075,0.27-1.608l0,0l0,0c0.143,0.068,0.286,0.138,0.43,0.207c0.141,0.066,0.275,0.142,0.406,0.222
	c0.733,0.537,1.174,1.137,1.422,1.736c0.416,0.995,0.299,1.982,0.12,2.648c0.205-0.042,0.415-0.107,0.647-0.204
	c0.102-0.043,0.219-0.089,0.345-0.142c0.879-0.365,2.165-0.974,1.596-2.08c-0.008-0.017,0-0.028,0.014-0.035
	c0.012-0.006,0.029-0.004,0.04,0.006c1.157,1.181,0.791,2.864-0.25,4.046c0.027,0.001,0.054,0.003,0.08,0.007
	c2.105-0.501,4.415-2.144,2.263-4.021c-0.045-0.041,0.01-0.109,0.063-0.076c1.832,1.17,2.172,3.173,1.229,4.781
	c-0.775,1.033-1.722,1.773-2.888,1.351c-0.028-0.01-0.057,0.031-0.028,0.046c0.103,0.058,0.212,0.105,0.329,0.144
	c0.578,0.193,1.285,0.159,1.964,0.013c0.273-0.06,0.541-0.135,0.793-0.222c0.45,1.204,0.142,2.577,0.142,2.577
	c2.127,0.081,1.821,2.073,2.212,3.024c0.39,0.95,1.557,0.417,1.557,0.417c-0.86,1.701-2.272,1.256-2.272,1.256
	c0.869,0.568,1.076,1.407,1.102,2.189c-0.211,0.429-0.522,0.802-0.995,0.975c-1.157,0.423-1.885-0.901-1.855-1.811
	c0.001-0.017-0.011-0.026-0.023-0.028c-0.013,0-0.027,0.007-0.032,0.022c-0.329,1.203,0.409,2.918,1.886,2.849
	c1.012-0.048,1.868-0.822,2.112-1.702c0.204,0.36,0.432,0.758,0.509,1.174c0.913-0.733,0.432-1.568,0.432-1.568
	c0.287-0.129,0.64-0.103,0.972,0.051c0.999,0.459,1.825,2.039,0.206,3.823c-1.239,1.367-2.761,1.687-3.835,1.711
	c0.65,0.663,1.351,1.042,2.09,0.791c0.015-0.005,0.034,0.013,0.02,0.027c-1.153,1.097-2.425,1.458-3.679,0.944
	c-0.735,3.029-3.111,4.322-3.111,4.322s0,0,0.483,0.781c0.12,0.196,0.294,0.307,0.496,0.366c0.605,0.18,1.46-0.111,1.863-0.016
	c0.537,0.127,0.71,1.354,0.345,1.908c-0.249,0.377-0.533,0.67-0.794,0.89c-0.93-0.286-1.941-0.353-3.045-0.329
	c-0.024,0-0.028,0.037-0.007,0.043c0.315,0.086,0.617,0.191,0.905,0.313c0.864,0.362,1.612,0.87,2.271,1.472
	c0.957,1.141,2.203,3.196,1.486,5.653c-0.368,1.263-0.953,1.84-1.898,2.642c-1.107-0.376-2.074-0.503-2.905-0.466
	c-2.498,0.116-3.776,1.719-3.934,2.515c-0.003,0.012,0,0.023,0.006,0.029c0.004,0.007,0.014,0.009,0.025,0.001
	c0.683-0.483,1.532-0.73,2.439-0.819c0.018,0.001,0.033,0,0.051-0.004c1.651-0.15,3.488,0.22,4.885,0.67
	c0.643,0.253,1.292,0.495,1.916,0.785l0,0h0.001c0.859,0.399,2.465,1.726,2.698,1.952c0.802,0.242,1.576,0.473,2.302,0.673
	c2.178,0.598,3.927,0.9,4.75,0.275c2.097-1.593,4.499-2.336,7.399-2.519c0.967-0.062,1.989-0.061,3.074-0.009
	c5.202,0.25,7.665-2.453,7.665-2.453c0.313-1.768,3.139-3.705,4.437-4.025c0.017-0.004,0.039-0.01,0.056-0.015
	c-0.012-0.043-0.021-0.081-0.033-0.125l-29.844,5.701c-0.476-0.351-2.398-1.318-3.482-1.372l50.152-9.633
	c0.021,0.009,0.039,0.018,0.061,0.027c0.395,0.17,1.577,0.687,1.577,0.687s-1.018,0.903-1.416,1.282l-11.271,2.205
	c0.022,0.027,0.042,0.056,0.064,0.082c0.128,0.016,0.25,0.033,0.353,0.066c0.136,0.041,0.257,0.083,0.367,0.129
	c0.33,0.133,0.555,0.287,0.741,0.474c0.01,0.007,0.027,0.012,0.037,0.017c0.703,0.346,1.351,0.711,1.534,1.505
	c0.131,0.572-0.039,1.207-0.37,1.802c0.055,0.102,0.143,0.218,0.286,0.361c0.078,0.08,0.135,0.151,0.195,0.222
	c1.302,1.008,0.942,2.807-0.158,4.15c-0.009,0.049-0.018,0.089-0.027,0.141c-0.19,1.081,0.046,1.631-0.509,2.368
	c-0.072,0.055-0.139,0.114-0.212,0.166c-0.906,0.633-2.105,1.48-3.203,1.588c-0.018,0.001-0.016,0.024-0.001,0.027
	c0.711,0.161,1.36,0.322,2.01,0.335c-0.076,1.004-0.182,2.049-0.345,3.14c-0.321,2.28-0.801,4.723-1.469,7.26
	c-0.667,2.537-1.519,5.165-2.533,7.821c-0.253,0.665-0.516,1.333-0.788,1.999c-1.905,4.674-4.271,9.401-6.726,13.996
	c-1.386,2.628-2.822,5.229-4.002,7.764l-0.408,0.912c-0.133,0.306-0.264,0.663-0.397,0.991c-0.204,0.623-0.404,1.242-0.604,1.858
	c-0.167,0.629-0.285,1.254-0.435,1.877c-0.034,0.308-0.07,0.615-0.104,0.919c-0.025,0.305-0.098,0.619-0.074,0.909
	c0.002,0.296,0.004,0.593,0.005,0.887c-0.021,0.302,0.064,0.567,0.09,0.85c0.042,0.577,0.243,1.074,0.385,1.595
	c0.393,0.979,1.012,1.798,1.801,2.363c0.197,0.142,0.404,0.267,0.619,0.375c0.645,0.322,1.355,0.494,2.042,0.491
	c0.252,0.022,0.41-0.026,0.587-0.036l0.134-0.008c0.042,0.002,0.134-0.041,0.198-0.059l0.423-0.141l0.104-0.037l0.135-0.071
	l0.3-0.154c0.208-0.094,0.35-0.25,0.533-0.364c1.345-1.027,1.452-2.915,0.724-3.902c-0.107-0.102-0.184-0.237-0.297-0.322
	l-0.165-0.126l-0.08-0.066l-0.092-0.04c-0.119-0.048-0.249-0.141-0.339-0.14c-0.114-0.014-0.132-0.09-0.378-0.073
	c-0.664-0.045-1.028,0.129-1.3,0.371c-0.008,0.008-0.014,0.019-0.022,0.027c0.315-0.005,0.633,0.059,0.918,0.22l0,0c0,0,0,0,0.001,0
	c0.525,0.296,0.821,0.821,0.84,1.375c0.011,0.332-0.077,0.676-0.276,0.988c-0.528,0.832-1.64,1.122-2.48,0.647
	c-0.335-0.19-0.572-0.472-0.708-0.795c-0.214-0.395-0.345-0.871-0.343-1.432c0.014-0.62,0.161-1.407,0.798-2.104
	c0.163-0.165,0.33-0.339,0.542-0.463c0.104-0.066,0.204-0.142,0.315-0.195c0.111-0.048,0.227-0.097,0.341-0.145
	c0.233-0.111,0.47-0.131,0.714-0.192l0.093-0.019l0.022-0.003c-0.072,0.003,0.125-0.013,0.11-0.011h0.036l0.144-0.005l0.295-0.009
	c0.159-0.026,0.504,0.037,0.78,0.084c0.309,0.038,0.529,0.162,0.788,0.264l0.188,0.082l0.17,0.113
	c0.111,0.077,0.225,0.155,0.338,0.234c0.22,0.165,0.392,0.379,0.588,0.578c0.686,0.865,1.004,2.014,0.891,3.208
	C139.004,123.101,138.895,123.558,138.72,124.001z M96.127,15.696c0.524-0.066,1.104,0.148,1.498,0.4l2.399-5.966
	c0.029,0.116,0.056,0.234,0.093,0.349c0.167,0.752,0.482,1.424,0.781,2.12c0.135,0.358,0.347,0.659,0.526,0.989
	c0.189,0.322,0.378,0.646,0.569,0.971c0.441,0.592,0.872,1.209,1.339,1.792c0.248,0.276,0.496,0.553,0.746,0.831l0.375,0.416
	l0.189,0.209l0.017,0.02l0.077,0.086l0.024,0.025c0.02,0.021-0.012-0.008,0.051,0.053l0.047,0.046
	c0.257,0.249,0.491,0.485,0.771,0.743l0.861,0.769c2.247,1.93,4.585,3.655,6.872,5.427c4.589,3.507,8.991,7.112,12.701,10.829
	c1.857,1.854,3.541,3.726,5.018,5.573c1.478,1.848,2.746,3.67,3.813,5.398c1.086,1.722,1.905,3.382,2.608,4.853
	c0.35,0.782,0.55,1.192,0.813,1.871c0.026-0.006,0.192-0.04,0.452-0.093c1.122-0.234,3.976-0.839,4.602-1.029
	c-0.408-0.979-0.807-1.76-1.402-2.947c-0.841-1.591-1.822-3.374-3.078-5.195c-1.241-1.829-2.692-3.735-4.351-5.642
	c-1.658-1.906-3.522-3.811-5.546-5.672c-4.042-3.733-8.741-7.262-13.503-10.612c-2.367-1.685-4.772-3.322-6.951-5.053l-0.78-0.642
	c-0.259-0.218-0.525-0.469-0.787-0.7c-0.465-0.476-0.927-0.949-1.386-1.419c-0.433-0.499-0.82-1.02-1.231-1.521
	c-0.171-0.269-0.34-0.536-0.51-0.803c-0.161-0.271-0.363-0.524-0.477-0.808c-0.259-0.559-0.55-1.105-0.692-1.681
	c-0.165-0.421-0.229-0.853-0.291-1.282c-0.021-0.142-0.042-0.283-0.065-0.426c-0.075-1.138,0.147-2.248,0.653-3.197
	c0.5-0.948,1.289-1.727,2.18-2.188c0.229-0.145,0.424-0.189,0.619-0.269l0.146-0.061c0.045-0.023,0.139-0.027,0.206-0.042
	l0.438-0.074l0.108-0.019l0.008-0.002h0.007l0.181,0.001l0.357-0.001c0.242-0.013,0.455,0.062,0.683,0.081
	c0.668,0.124,1.22,0.446,1.634,0.87c0.692,0.708,1.004,1.697,0.848,2.513c-0.056,0.153-0.071,0.319-0.141,0.457l-0.102,0.205
	l-0.048,0.104l-0.071,0.086c-0.094,0.106-0.175,0.256-0.269,0.307c-0.105,0.073-0.108,0.155-0.333,0.256
	c-0.438,0.271-0.798,0.352-1.105,0.329c-0.103-0.006-0.199-0.025-0.29-0.05c-0.015-0.003-0.026-0.014-0.041-0.018
	c0.298-0.149,0.562-0.373,0.751-0.668c0.397-0.625,0.354-1.374-0.048-1.911c-0.134-0.179-0.307-0.335-0.518-0.452
	c-0.082-0.046-0.165-0.085-0.251-0.117c-0.515-0.19-1.091-0.127-1.565,0.141c-0.079,0.044-0.155,0.095-0.227,0.151
	c-0.004,0.001-0.005,0.003-0.008,0.005c-0.007,0.006-0.017,0.017-0.024,0.022c-0.082,0.067-0.159,0.139-0.229,0.219
	c-0.007,0.006-0.011,0.01-0.018,0.016c-0.017,0.019-0.034,0.041-0.05,0.062c-0.029,0.035-0.06,0.069-0.088,0.107
	c-0.044,0.06-0.056,0.1-0.086,0.153c-0.011,0.024-0.022,0.055-0.033,0.08c-0.031,0.064-0.061,0.13-0.083,0.194
	c-0.009,0.023-0.021,0.045-0.029,0.069c-0.01,0.043-0.019,0.097-0.028,0.144c-0.005,0.026-0.012,0.052-0.017,0.079
	c-0.01,0.049-0.021,0.094-0.03,0.146c-0.053,0.504,0.036,1.063,0.317,1.632c0.287,0.55,0.768,1.194,1.662,1.516
	c0.224,0.071,0.453,0.149,0.705,0.158c0.123,0.009,0.252,0.028,0.376,0.022c0.125-0.011,0.251-0.024,0.379-0.036
	c0.265-0.015,0.488-0.108,0.739-0.176l0.093-0.029l0.022-0.008c-0.074,0.035,0.128-0.057,0.114-0.051l0.033-0.016l0.13-0.064
	c0.087-0.043,0.176-0.087,0.266-0.13c0.149-0.049,0.447-0.28,0.681-0.464c0.271-0.194,0.416-0.414,0.609-0.637l0.136-0.17
	l0.105-0.187c0.068-0.127,0.137-0.256,0.207-0.387c0.13-0.261,0.19-0.545,0.28-0.827c0.243-1.14,0.019-2.358-0.629-3.411
	c-0.637-1.053-1.778-1.933-3.154-2.25c-0.34-0.056-0.691-0.161-1.042-0.166l-0.53-0.016l-0.268-0.007l-0.034,0
	c0.092-0.011-0.165,0.016-0.148,0.015l-0.054,0.007l-0.109,0.015l-0.44,0.057c-0.08,0.014-0.131,0.008-0.237,0.038L105.32,0.22
	c-0.408,0.116-0.835,0.25-1.148,0.427c-1.379,0.657-2.554,1.758-3.333,3.107c-0.46,0.793-0.77,1.665-0.94,2.564L96.127,15.696z
	 M160.148,51.149c0.394,0.17,1.575,0.688,1.575,0.688s-1.11,0.984-1.466,1.328c-3.264,3.154-1.689,5.724,0.391,6.634
	c0.347,0.152,0.708,0.257,1.062,0.312c0.355,0.055,0.705,0.058,1.026,0.005c5.004-0.817,7.809-6.005,12.227-10.266
	c-4.839-2.726-9.069-6.88-14.048-5.889C157.891,44.562,154.737,48.814,160.148,51.149z" class="color c1"/>
  <g opacity="0.7">
    <path fill="#FFFFFF" d="M138.887,66.935c0.226,1.523,1.313,2.789,2.97,2.652c0.973-0.08,1.851-0.79,2.695-1.225
		c0.932-0.481,1.818-0.976,2.651-1.622c0.043-0.035-0.005-0.099-0.051-0.069c-1.519,0.984-2.746,1.389-4.545,1.201
		c-1.141-0.122-3.084,0.426-3.65-0.953C138.942,66.881,138.881,66.895,138.887,66.935L138.887,66.935z" class="color c2"/>
  </g>
  <g>
    <path fill="#FFFFFF" d="M128.686,109.065c-1.62,4.293-3.969,9.851-1.608,14.231c1.635,3.033,4.627,4.607,7.998,3.432
		c0.071-0.024,0.042-0.147-0.033-0.13c-4.097,0.997-7.463-2.954-7.858-6.727c-0.375-3.585,0.509-7.366,1.557-10.783
		C128.754,109.053,128.7,109.028,128.686,109.065L128.686,109.065z" class="color c2"/>
  </g>
  <g>
    <path fill="#FFFFFF" d="M147.879,54.09c1.805-0.172,3.658-0.249,5.437-0.604c1.194-0.239,2.64-0.452,3.706-1.043
		c0.053-0.029,0.045-0.112,0.004-0.146c-0.921-0.723-2.128-0.161-3.135,0.126c-2.003,0.573-3.983,1.153-6.019,1.606
		C147.833,54.039,147.839,54.093,147.879,54.09L147.879,54.09z" class="color c2"/>
  </g>
  <g>
    <path fill="#FFFFFF" d="M108.79,103.585c-0.988,0.744-2.021,1.031-3.216,1.261c-1.049,0.205-2.197,0.708-3.246,0.662
		c-0.087-0.003-0.104,0.113-0.019,0.134c1.362,0.311,2.3,0.71,3.663,0.152c1.09-0.447,2.051-1.324,2.867-2.155
		C108.87,103.608,108.822,103.562,108.79,103.585L108.79,103.585z" class="color c2"/>
  </g>
  <g>
    <path fill="#FFFFFF" d="M32.651,74.413c1.258,1.238,2.686,2.511,4.399,3.046c1.68,0.522,3.39-0.049,5.106-0.093
		c0.089-0.002,0.09-0.15,0-0.157c-2.987-0.221-6.961-1.179-9.481-2.826C32.655,74.371,32.635,74.396,32.651,74.413L32.651,74.413z" class="color c2"/>
  </g>
  <g>
    <path fill="#FFFFFF" d="M21.74,62.739c0.669,0.82,1.271,1.904,2.117,2.543c0.96,0.722,1.747,0.479,2.861,0.404
		c0.217-0.013,0.214-0.295,0.054-0.384c-0.892-0.495-1.278-1.12-2.297-1.413c-1.034-0.297-1.855-0.43-2.719-1.167
		C21.747,62.714,21.73,62.729,21.74,62.739L21.74,62.739z" class="color c2"/>
  </g>
  <g>
    <path fill="#FFFFFF" d="M97.948,19.168c0.122,0.296,0.231,0.582,0.265,0.904c0.036,0.331-0.091,0.499-0.217,0.785
		c-0.086,0.193-0.063,0.438,0.068,0.606c0.061,0.045,0.079,0.105,0.053,0.181c-0.048,0.167,0.111,0.312,0.269,0.213
		c0.131-0.082,0.261-0.119,0.395-0.19c0.233-0.124,0.43-0.355,0.381-0.642c-0.118-0.697-0.759-1.334-1.182-1.875
		C97.968,19.135,97.94,19.148,97.948,19.168L97.948,19.168z" class="color c2"/>
  </g>
  <g>
    <path fill="#FFFFFF" d="M75.938,57.498c1.555,0.667,2.896,1.971,4.499,2.46c0.752,0.229,1.329,0.177,2.131,0.523
		c1.074,0.46,2.023,1.27,2.902,2.023c0.032,0.026,0.082-0.02,0.053-0.051c-1.229-1.318-2.839-2.752-4.33-3.754
		c-1.429-0.962-3.609-0.842-5.249-1.224C75.932,57.471,75.926,57.493,75.938,57.498L75.938,57.498z" class="color c2"/>
  </g>
  <g>
    <path fill="#FFFFFF" d="M113.514,125.103c-0.167,2.183-3.403,2.999-5.12,2.424c-0.118-0.039-0.196,0.133-0.078,0.181
		c0.74,0.305,1.401,0.902,2.176,1.098c0.683,0.172,1.432-0.033,1.987-0.453c1.009-0.764,1.304-2.049,1.118-3.249
		C113.591,125.057,113.517,125.052,113.514,125.103L113.514,125.103z" class="color c2"/>
  </g>
  <g>
    <path fill="#FFFFFF" d="M68.326,96.021c-1.061,0.203-2.202,0.353-3.198,0.781c-1.034,0.445-1.421,1.216-1.976,2.146
		c-0.068,0.115,0.094,0.203,0.184,0.148c0.442-0.276,0.895-0.43,1.359-0.642c0.42-0.19,0.729-0.487,1.083-0.778
		c0.811-0.673,1.551-1.237,2.568-1.574C68.393,96.086,68.374,96.011,68.326,96.021L68.326,96.021z" class="color c2"/>
  </g>
  <g>
    <path fill="#FFFFFF" d="M47.307,84.816c0.784,0.567,1.48,1.233,2.365,1.652c0.826,0.391,1.638,0.217,2.482-0.048
		c0.218-0.069,0.212-0.408,0.008-0.485c-0.723-0.28-1.373-0.625-2.153-0.674c-0.907-0.055-1.825-0.119-2.651-0.53
		C47.308,84.708,47.263,84.784,47.307,84.816L47.307,84.816z" class="color c2"/>
  </g>
  <g>
    <path fill="#FFFFFF" d="M52.329,86.229c0.092,0.393,0.284,0.721,0.739,0.725c0.431,0.004,0.781-0.376,0.727-0.811
		c-0.046-0.391-0.417-0.682-0.811-0.635C52.705,85.544,52.249,85.889,52.329,86.229L52.329,86.229z" class="color c2"/>
  </g>
  <g>
    <path fill="#FFFFFF" d="M55.92,86.29c0.193,0.204,0.341,0.32,0.627,0.357c0.119,0.016,0.252-0.03,0.324-0.127
		c0.019-0.027,0.04-0.053,0.058-0.08c0.127-0.173,0.046-0.463-0.192-0.483c-0.327-0.028-0.481,0.258-0.788,0.266
		C55.919,86.223,55.898,86.267,55.92,86.29L55.92,86.29z" class="color c2"/>
  </g>
  <g>
    <path fill="#FFFFFF" d="M64.418,88.79c0.238,0.363,0.704,0.745,1.114,0.856c0.175,0.045,0.347-0.068,0.46-0.183
		c0.02-0.021,0.04-0.041,0.06-0.062c0.204-0.21,0.068-0.562-0.166-0.67c-0.295-0.134-0.453-0.047-0.714,0.102
		c-0.2,0.116-0.476,0.046-0.725-0.08C64.425,88.74,64.407,88.771,64.418,88.79L64.418,88.79z" class="color c2"/>
  </g>
  <g opacity="0.5">
    <path fill="#FFFFFF" d="M98.893,50.097c1.481,0.739,3.025,1.473,4.131,2.742c0.92,1.055,2.379,3.327,1.859,4.708
		c-0.052,0.141,0.145,0.281,0.239,0.145c3.007-4.324-3.059-6.624-6.22-7.618C98.888,50.07,98.878,50.091,98.893,50.097
		L98.893,50.097z" class="color c2"/>
  </g>
  <g opacity="0.5">
    <path fill="#FFFFFF" d="M32.341,28.734c0.568,1.897,0.605,3.83,1.649,5.588c0.931,1.566,2.916,2.623,4.485,3.475
		c0.104,0.056,0.199-0.107,0.106-0.177c-1.638-1.211-2.42-2.783-3.663-4.325c-1.177-1.458-1.749-2.926-2.487-4.599
		C32.406,28.64,32.322,28.673,32.341,28.734L32.341,28.734z" class="color c2"/>
  </g>
  <g opacity="0.5">
    <path fill="#FFFFFF" d="M99.867,76.263c2.179,1.669,4.837,3.442,7.705,2.839c3.17-0.664,6.329-2.018,9.279-3.325
		c0.086-0.037,0.034-0.17-0.055-0.135c-2.668,1.06-5.37,2.261-8.283,2.059c-2.884-0.2-6.017-0.114-8.609-1.499
		C99.867,76.182,99.834,76.239,99.867,76.263L99.867,76.263z" class="color c2"/>
  </g>
</svg>