<svg version="1.1" id="图层_1" x="0px" y="0px" width="200px" height="147.879px" viewBox="0 0 200 147.879" enable-background="new 0 0 200 147.879" xml:space="preserve" xmlns="http://www.w3.org/2000/svg" xmlns:xlink="http://www.w3.org/1999/xlink" xmlns:xml="http://www.w3.org/XML/1998/namespace">
  <path fill="#B69354" d="M182.344,112.568c-9.736,0-17.654,7.92-17.654,17.654c0,1.237,1.002,2.239,2.238,2.239
	c1.237,0,2.24-1.002,2.24-2.239c0-7.267,5.91-13.175,13.176-13.175s13.178,5.908,13.178,13.175c0,7.268-5.912,13.178-13.178,13.178
	h-25.32l-10.938-20.33c3.392-2.219,5.638-6.047,5.638-10.396c0-13.834,3.616-29.979,6.062-36.539
	c3.952-10.602,9.716-14.479,16.388-18.967c1.969-1.324,4.002-2.692,6.039-4.278c3.398-2.645,5.196-5.179,5.496-7.75
	c0.217-1.855-0.346-3.633-1.674-5.282c-2.697-3.354-6.904-4.058-9.958-4.058c-1.669,0-2.854,0.212-3.009,0.241
	c-15.071,2.996-23.464,8.679-31.515,16.455c-3.664-5.697-8.464-11.549-14.304-17.43c-3.486-3.513-6.957-6.648-10.1-9.314
	c4.031-0.376,7.195-3.775,7.195-7.902c0-4.376-3.561-7.937-7.937-7.937c-1.324,0-3.269,0.659-5.304,1.558l6.842-8.687
	c0.519-0.658,0.615-1.177,0.248-1.931C115.828,0.097,115.063,0,114.225,0H88.361c-0.837,0-1.604,0.097-1.97,0.853
	c-0.366,0.754-0.269,1.461,0.25,2.122l6.841,8.59c-2.033-0.898-3.979-1.604-5.303-1.604c-4.377,0-7.938,3.538-7.938,7.913
	c0,3.918,2.853,7.167,6.588,7.81c-2.973,2.431-6.214,5.265-9.47,8.453C70.718,40.645,65.415,47.254,61.6,53.785
	c-1.253,2.146-2.333,4.282-3.264,6.411c-5.75-5.392-13.487-8.338-20.627-11.043l-0.062-0.023c-3.072-1.164-5.864-1.754-8.297-1.754
	c-6.269,0-8.896,3.814-9.244,7.081c-0.468,4.415,2.595,8.478,7.125,9.447c12.54,2.688,15.652,11.215,16.034,12.43l3.966,36.469
	c0.043,4.301,2.287,8.082,5.654,10.277L41.952,143.4H12.263c-4.292,0-7.783-3.492-7.783-7.783s3.491-7.781,7.783-7.781
	c1.236,0,2.24-1.004,2.24-2.238c0-1.238-1.003-2.242-2.24-2.242C5.501,123.355,0,128.857,0,135.617
	c0,6.764,5.501,12.262,12.263,12.262h170.081c9.735,0,17.656-7.918,17.656-17.654C200,120.489,192.079,112.568,182.344,112.568z
	 M114.407,14.292c1.962,0,3.559,1.597,3.559,3.557c0,1.962-1.597,3.558-3.559,3.558c-1.199,0-4.724-1.631-8.224-3.558
	C109.684,15.92,113.206,14.292,114.407,14.292z M92.874,4h16.839l-8.42,10.692L92.874,4z M84.621,17.849
	c0-1.96,1.596-3.557,3.559-3.557c1.201,0,4.723,1.63,8.224,3.557c-3.499,1.931-7.022,3.558-8.224,3.558
	C86.217,21.407,84.621,19.811,84.621,17.849z M80.364,37.318c6.446-6.324,12.949-11.3,17.211-14.325L92.32,41.708
	c-0.326,1.164,0.352,2.372,1.516,2.699c0.198,0.055,0.398,0.084,0.594,0.084c0.957,0,1.836-0.634,2.108-1.599l4.755-16.943
	l4.758,16.943c0.271,0.965,1.15,1.599,2.106,1.599c0.196,0,0.396-0.029,0.595-0.084c1.164-0.326,1.842-1.535,1.516-2.699
	l-5.162-18.385c7.669,5.839,22.321,18.082,31.259,32.366c-1.629,1.679-3.278,3.438-4.999,5.277
	c-5.627,6.007-12.004,12.817-21.113,20.584c-8.641,7.365-16.506,11.101-23.379,11.103c0,0,0,0-0.002,0
	c-14.007,0-19.708-15.646-21.122-20.442c-0.96-3.256-2.399-5.999-4.161-8.369C65.698,53.367,73.484,44.068,80.364,37.318z
	 M47.697,75.652c-0.012-0.11-0.033-0.221-0.062-0.327c-0.132-0.505-3.437-12.364-19.466-15.799
	c-2.507-0.538-3.804-2.759-3.608-4.597c0.207-1.953,1.953-3.073,4.79-3.073c1.889,0,4.147,0.491,6.71,1.464l0.062,0.023
	c10.732,4.066,21.831,8.271,25.328,20.135c4.368,14.812,13.869,23.654,25.42,23.654c0,0,0.001,0,0.002,0
	c7.968,0,16.811-4.096,26.284-12.172c9.302-7.933,15.77-14.837,21.477-20.931c11.209-11.969,18.615-19.876,37.273-23.585
	c0.009-0.002,0.909-0.162,2.167-0.162c2.074,0,4.883,0.414,6.468,2.386c0.739,0.918,0.763,1.556,0.716,1.957
	c-0.104,0.893-0.848,2.439-3.798,4.734c-1.914,1.49-3.884,2.814-5.789,4.096c-6.698,4.508-13.629,9.169-18.084,21.123
	c-2.159,5.791-5.038,17.914-6.007,30.107H50.853v-0.004L47.697,75.652z M51.708,112.676c0-0.082-0.004-0.162-0.013-0.242
	l-0.356-3.271h95.974c-0.045,1.18-0.07,2.354-0.07,3.514c0,4.378-3.559,7.937-7.936,7.937H59.644
	C55.27,120.611,51.708,117.053,51.708,112.676z M47.039,143.4l10.001-18.588c0.84,0.182,1.711,0.276,2.604,0.276h79.665
	c0.899,0,1.775-0.098,2.623-0.28l10.002,18.592H47.039z" class="color c1"/>
</svg>