<svg version="1.1" id="图层_1" x="0px" y="0px" width="69.012px" height="58.072px" viewBox="0 0 69.012 58.072" enable-background="new 0 0 69.012 58.072" xml:space="preserve" xmlns="http://www.w3.org/2000/svg" xmlns:xlink="http://www.w3.org/1999/xlink" xmlns:xml="http://www.w3.org/XML/1998/namespace">
  <path fill="#29787C" d="M31.086,25.982c-0.039,0.045-0.084,0.086-0.125,0.13C31.002,26.068,31.047,26.027,31.086,25.982z
	 M24.926,24.155c-0.063-0.03-0.127-0.06-0.191-0.088C24.799,24.096,24.861,24.125,24.926,24.155z M23.787,23.7
	c0.043,0.014,0.084,0.026,0.127,0.041C23.871,23.727,23.83,23.714,23.787,23.7z M25.766,24.588c0.303,0.178,0.621,0.317,0.945,0.442
	C26.387,24.905,26.068,24.766,25.766,24.588z M22.887,23.432c0.057,0.015,0.113,0.031,0.17,0.047
	C23,23.463,22.943,23.446,22.887,23.432z M28.932,25.542c-0.334-0.033-0.67-0.078-1.008-0.148
	C28.262,25.464,28.598,25.509,28.932,25.542z M21.148,25.947c-0.102-0.035-0.207-0.065-0.311-0.097
	C20.941,25.882,21.047,25.912,21.148,25.947z M20.361,25.714c-0.107-0.028-0.217-0.053-0.324-0.077
	C20.145,25.661,20.254,25.686,20.361,25.714z M26.951,25.118c0.318,0.109,0.641,0.205,0.965,0.273
	C27.592,25.323,27.27,25.228,26.951,25.118z M21.959,23.229c0.053,0.01,0.104,0.019,0.158,0.029
	C22.063,23.248,22.012,23.239,21.959,23.229z M22.391,16.531c0.041-0.009,0.082-0.021,0.123-0.029
	C22.473,16.511,22.432,16.522,22.391,16.531z M23.824,16.291c0.016-0.002,0.035-0.004,0.051-0.006
	C23.859,16.287,23.84,16.289,23.824,16.291z M20.957,16.956c-0.053,0.02-0.107,0.041-0.162,0.063
	C20.85,16.997,20.904,16.976,20.957,16.956z M21.652,16.726c0.053-0.017,0.105-0.03,0.158-0.045
	C21.758,16.695,21.705,16.709,21.652,16.726z M23.127,16.386c0.055-0.01,0.109-0.018,0.162-0.025
	C23.236,16.368,23.182,16.376,23.127,16.386z M24.51,16.241c-0.041,0.002-0.084,0.004-0.125,0.006
	C24.428,16.245,24.469,16.243,24.51,16.241z M25.441,16.242c-0.016-0.001-0.033-0.001-0.049-0.002
	C25.408,16.241,25.426,16.241,25.441,16.242z M25.744,16.264c0.018,0.001,0.037,0.003,0.053,0.005
	C25.779,16.267,25.764,16.265,25.744,16.264z M24.963,16.23c-0.004,0-0.01,0-0.014,0c0.018,0,0.035,0.001,0.055,0.001
	C24.988,16.231,24.979,16.23,24.963,16.23z M20.021,17.342c0.039-0.018,0.078-0.033,0.117-0.051
	C20.1,17.309,20.061,17.324,20.021,17.342z M25.977,16.288c0.014,0.002,0.025,0.003,0.035,0.005
	C25.998,16.291,25.996,16.29,25.977,16.288z M25.959,49.737c-0.074-0.004-0.146-0.008-0.213-0.013
	C25.814,49.729,25.883,49.733,25.959,49.737z M25.346,49.687c0.043,0.005,0.096,0.01,0.145,0.016
	C25.439,49.696,25.391,49.691,25.346,49.687z M26.439,49.752c0.049,0,0.104-0.003,0.156-0.003c-0.113,0.001-0.217,0-0.318-0.002
	C26.334,49.748,26.379,49.752,26.439,49.752z M27.938,49.633c-0.217,0.034-0.43,0.063-0.631,0.08
	C27.508,49.695,27.721,49.667,27.938,49.633z M29.637,24.288c0.172,0,0.338-0.005,0.494-0.015c-0.221,0.014-0.461,0.013-0.709,0.007
	C29.492,24.282,29.568,24.288,29.637,24.288z M44.004,50.24c0,0-0.02,0.003-0.057,0.007C43.975,50.244,44.004,50.24,44.004,50.24z
	 M40.08,49.768c0.047,0.017,0.094,0.033,0.141,0.049c-0.047-0.016-0.094-0.036-0.141-0.053C40.08,49.765,40.08,49.767,40.08,49.768z
	 M25.092,49.65c0.018,0.003,0.049,0.007,0.07,0.01C25.135,49.656,25.111,49.653,25.092,49.65z M28.801,49.456
	c0.051-0.014,0.102-0.026,0.152-0.041c0-0.002,0-0.004,0-0.006C28.902,49.424,28.852,49.442,28.801,49.456z M27.287,49.714
	c-0.197,0.018-0.385,0.026-0.564,0.032C26.902,49.741,27.09,49.731,27.287,49.714z M43.6,50.272
	c-0.041,0.002-0.084,0.004-0.131,0.006C43.516,50.276,43.557,50.274,43.6,50.272z M43.854,50.256
	c-0.027,0.003-0.057,0.005-0.092,0.008C43.801,50.261,43.824,50.259,43.854,50.256z M43.17,50.284c0.029,0,0.051-0.001,0.08-0.002
	c-0.063,0.001-0.131,0-0.201,0C43.088,50.282,43.133,50.284,43.17,50.284z M40.447,49.884c0.152,0.045,0.303,0.088,0.451,0.124
	C40.75,49.972,40.6,49.929,40.447,49.884z M41.156,50.066c0.137,0.029,0.27,0.055,0.4,0.077
	C41.426,50.121,41.293,50.096,41.156,50.066z M28.098,49.605c0.18-0.031,0.365-0.069,0.553-0.114
	C28.461,49.536,28.277,49.574,28.098,49.605z M41.785,50.182c0.158,0.022,0.311,0.041,0.457,0.055
	C42.096,50.223,41.945,50.204,41.785,50.182z M42.83,50.277c-0.109-0.004-0.229-0.012-0.35-0.021
	C42.602,50.266,42.721,50.273,42.83,50.277z M21.316,23.126c-0.037-0.005-0.074-0.012-0.109-0.016
	C21.242,23.115,21.279,23.121,21.316,23.126z M19.875,22.998c0.006,0,0.01,0,0.016,0.001C19.885,22.998,19.881,22.998,19.875,22.998
	z M20.42,23.03c0.047,0.004,0.094,0.007,0.143,0.012C20.514,23.037,20.467,23.034,20.42,23.03z M28.365,24.192
	c0.297,0.044,0.576,0.066,0.844,0.08C28.941,24.259,28.664,24.236,28.365,24.192z M24.758,23.182
	c-0.4-0.103-0.785-0.182-1.156-0.245C23.973,23,24.357,23.079,24.758,23.182z M23.455,22.911c-0.357-0.057-0.697-0.098-1.021-0.125
	C22.758,22.813,23.098,22.854,23.455,22.911z M26.166,23.62c-0.447-0.165-0.879-0.296-1.301-0.408
	C25.285,23.324,25.719,23.456,26.166,23.62z M21.18,22.74c-0.1,0.001-0.197,0.003-0.291,0.007
	C20.982,22.743,21.08,22.741,21.18,22.74z M20.418,22.772c0.082-0.006,0.168-0.012,0.256-0.016
	C20.586,22.761,20.5,22.767,20.418,22.772z M19.646,22.857c0.063-0.01,0.125-0.019,0.195-0.027
	C19.771,22.839,19.707,22.848,19.646,22.857z M20.227,22.788c-0.078,0.008-0.152,0.015-0.225,0.023
	C20.074,22.803,20.148,22.796,20.227,22.788z M21.646,26.141c0.088,0.036,0.176,0.067,0.264,0.106
	C21.824,26.208,21.734,26.177,21.646,26.141z M49.416,22.78c0.051,0.008,0.094,0.016,0.139,0.023
	C49.51,22.796,49.467,22.788,49.416,22.78z M47.807,23.01c-0.016,0.002-0.029,0.003-0.045,0.005
	C47.777,23.013,47.791,23.012,47.807,23.01z M48.566,22.932c-0.041,0.003-0.086,0.007-0.127,0.011
	C48.482,22.938,48.523,22.935,48.566,22.932z M49.107,22.899c0.025-0.001,0.047-0.002,0.07-0.003
	C49.154,22.897,49.133,22.898,49.107,22.899z M39.941,25.511c0.328-0.033,0.658-0.078,0.99-0.147
	C40.6,25.433,40.27,25.478,39.941,25.511z M41.969,25.072c-0.328,0.115-0.662,0.214-0.998,0.284
	C41.307,25.286,41.641,25.188,41.969,25.072z M38.438,25.567c-0.109-0.002-0.223-0.002-0.328-0.008
	C38.215,25.565,38.328,25.565,38.438,25.567z M42.193,24.988c0.332-0.129,0.658-0.273,0.967-0.458
	C42.852,24.714,42.525,24.859,42.193,24.988z M46.082,23.342c-0.053,0.013-0.105,0.029-0.158,0.044
	C45.977,23.371,46.029,23.355,46.082,23.342z M46.854,23.167c0.064-0.013,0.127-0.024,0.191-0.036
	C46.98,23.143,46.918,23.154,46.854,23.167z M45.031,23.663c0.059-0.021,0.117-0.039,0.176-0.059
	C45.148,23.624,45.09,23.642,45.031,23.663z M44.016,24.083c0.064-0.029,0.129-0.061,0.193-0.09
	C44.143,24.022,44.08,24.053,44.016,24.083z M47.795,22.652c0.09,0.001,0.176,0.003,0.258,0.005
	C47.969,22.655,47.885,22.653,47.795,22.652z M39.729,25.531c-0.33,0.027-0.656,0.043-0.969,0.043
	C39.072,25.574,39.396,25.559,39.729,25.531z M37.85,25.957c0.039,0.044,0.082,0.085,0.123,0.127
	C37.932,26.042,37.889,26.001,37.85,25.957z M21.383,22.739c0.279,0.001,0.578,0.013,0.895,0.035
	C21.961,22.752,21.662,22.74,21.383,22.739z M29.156,25.563c0.322,0.025,0.643,0.042,0.949,0.042c0.473,0,0.918-0.025,1.32-0.063
	C30.76,25.604,29.975,25.628,29.156,25.563z M49.102,22.736c0.059,0.007,0.113,0.015,0.166,0.022
	C49.215,22.751,49.16,22.743,49.102,22.736z M39.236,24.256c0.082,0,0.17-0.007,0.254-0.01c-0.242,0.008-0.479,0.01-0.695-0.003
	C38.936,24.251,39.084,24.256,39.236,24.256z M46.699,22.688c0.318-0.023,0.617-0.035,0.898-0.036
	C47.318,22.653,47.018,22.665,46.699,22.688z M39.711,24.238c0.27-0.016,0.549-0.04,0.85-0.086
	C40.26,24.198,39.98,24.223,39.711,24.238z M48.918,22.716c-0.063-0.007-0.125-0.014-0.193-0.02
	C48.791,22.702,48.855,22.709,48.918,22.716z M48.287,22.667c0.078,0.004,0.152,0.008,0.225,0.014
	C48.439,22.675,48.365,22.671,48.287,22.667z M46.549,22.701c-0.332,0.028-0.678,0.068-1.043,0.128
	C45.871,22.771,46.217,22.729,46.549,22.701z M44.088,23.138c-0.43,0.117-0.873,0.255-1.332,0.428
	C43.213,23.394,43.658,23.255,44.088,23.138z M45.367,22.854c-0.379,0.065-0.771,0.147-1.182,0.256
	C44.596,23.003,44.988,22.92,45.367,22.854z M45.123,16.229c-0.014-0.002-0.029-0.004-0.043-0.006
	C45.094,16.226,45.109,16.228,45.123,16.229z M49.395,25.437c0.117-0.021,0.236-0.041,0.354-0.06
	C49.631,25.396,49.512,25.415,49.395,25.437z M48.119,25.754c-0.107,0.033-0.213,0.063-0.318,0.101
	C47.906,25.817,48.012,25.787,48.119,25.754z M48.934,25.534c-0.115,0.026-0.23,0.052-0.344,0.082
	C48.703,25.586,48.818,25.561,48.934,25.534z M47.293,26.055c-0.084,0.036-0.172,0.067-0.256,0.105
	C47.121,26.122,47.209,26.091,47.293,26.055z M45.777,16.315c-0.021-0.004-0.043-0.007-0.064-0.01
	C45.734,16.309,45.756,16.312,45.777,16.315z M44.467,16.18c0.016,0.001,0.033,0.001,0.049,0.003
	C44.5,16.181,44.484,16.181,44.467,16.18z M46.541,16.464c-0.035-0.008-0.07-0.016-0.105-0.023
	C46.471,16.448,46.506,16.456,46.541,16.464z M42.895,16.231c-0.006,0.001-0.01,0.002-0.016,0.003
	C42.887,16.233,42.887,16.233,42.895,16.231z M43.105,16.208c0.008-0.001,0.018-0.002,0.025-0.003
	C43.121,16.206,43.115,16.207,43.105,16.208z M43.498,16.18c-0.006,0-0.014,0.001-0.02,0.001
	C43.484,16.181,43.49,16.18,43.498,16.18z M47.26,16.65c-0.016-0.005-0.033-0.009-0.049-0.014
	C47.227,16.642,47.244,16.646,47.26,16.65z M48.133,16.946c-0.049-0.019-0.096-0.037-0.143-0.054
	C48.037,16.91,48.084,16.928,48.133,16.946z M25.545,27.652c0.076,0.012,0.152,0.024,0.229,0.033
	C25.697,27.677,25.621,27.664,25.545,27.652z M21.98,27.729c-0.578-0.339-1.26-0.591-2.016-0.778
	c-0.533,0.219-1.08,0.467-1.637,0.752c0,0-4.664,1.946-7.543,7.593C7.902,40.942,0,37.264,0,37.264s17.402,16.776,33.926-3.411
	l-0.475-3.369c0,0-9.441,10.889-21.199,10.605c0,0,8.367-2.604,11.898-5.998c3.533-3.395,9.963-6.959,9.963-6.959
	s-0.744-0.625-2.105-1.249c-1.215,1.341-3.182,2.15-5.336,2.15C25.055,29.033,23.432,28.583,21.98,27.729z M26.672,27.745
	c0.064,0,0.125-0.008,0.188-0.01c-0.08,0.002-0.158,0.007-0.24,0.006C26.637,27.741,26.654,27.745,26.672,27.745z M28.887,27.389
	c-0.057,0.019-0.115,0.033-0.172,0.051C28.771,27.422,28.83,27.407,28.887,27.389z M29.596,27.093
	c-0.041,0.02-0.08,0.043-0.121,0.062C29.516,27.136,29.555,27.112,29.596,27.093z M27.584,27.682
	c-0.088,0.011-0.176,0.021-0.266,0.03C27.408,27.703,27.496,27.692,27.584,27.682z M30.512,26.519
	c0.055-0.043,0.109-0.088,0.162-0.133C30.621,26.431,30.566,26.475,30.512,26.519z M28.256,27.564
	c-0.08,0.019-0.162,0.033-0.246,0.05C28.094,27.598,28.176,27.583,28.256,27.564z M30.189,26.751
	c-0.057,0.038-0.113,0.076-0.172,0.112C30.076,26.827,30.133,26.789,30.189,26.751z M24.77,27.497
	c-0.047-0.012-0.092-0.02-0.139-0.032C24.678,27.478,24.723,27.485,24.77,27.497z M23.527,27.067
	c0.074,0.032,0.15,0.064,0.225,0.096C23.678,27.132,23.602,27.1,23.527,27.067z M41.596,27.661c-0.084-0.008-0.168-0.017-0.25-0.027
	C41.428,27.645,41.512,27.653,41.596,27.661z M42.227,27.693c0.02,0,0.041-0.004,0.063-0.004c-0.078,0-0.152-0.003-0.229-0.005
	C42.117,27.687,42.17,27.693,42.227,27.693z M43.158,27.631c0.064-0.008,0.127-0.02,0.191-0.028
	C43.285,27.611,43.223,27.623,43.158,27.631z M44.293,27.405c-0.047,0.013-0.092,0.021-0.137,0.033
	C44.201,27.427,44.246,27.418,44.293,27.405z M40.676,27.521c0.074,0.017,0.15,0.029,0.225,0.043
	C40.826,27.55,40.75,27.537,40.676,27.521z M45.4,27.002c-0.07,0.031-0.141,0.063-0.213,0.092
	C45.26,27.065,45.33,27.034,45.4,27.002z M38.742,26.715c0.057,0.038,0.115,0.077,0.176,0.113
	C38.857,26.792,38.799,26.753,38.742,26.715z M58.215,35.138c-2.918-5.627-7.596-7.544-7.596-7.544
	c-0.557-0.28-1.1-0.522-1.631-0.736c-0.762,0.193-1.449,0.449-2.02,0.789c-1.465,0.873-3.104,1.335-4.742,1.335
	c-2.129,0-4.078-0.796-5.291-2.115c-1.357,0.633-2.098,1.264-2.098,1.264s6.453,3.521,10.008,6.892
	c3.555,3.37,11.938,5.92,11.938,5.92c-11.756,0.36-21.939-10.88-21.939-10.88l1.141,4.022c16.656,20.077,33.027,2.951,33.027,2.951
	S61.131,40.766,58.215,35.138z M38.422,26.487c-0.055-0.043-0.109-0.087-0.162-0.132C38.313,26.401,38.367,26.444,38.422,26.487z
	 M39.459,27.115c-0.049-0.022-0.096-0.049-0.145-0.072C39.363,27.066,39.408,27.093,39.459,27.115z M40.047,27.348
	c0.041,0.014,0.086,0.023,0.127,0.037C40.133,27.371,40.088,27.361,40.047,27.348z M34.416,10.13c0,0,2.852-0.426,4.818-3.089
	c0,0-4.348-4.519-4.852-7.041c-0.488,2.524-4.807,7.073-4.807,7.073C31.561,9.724,34.416,10.13,34.416,10.13z M39.49,24.246
	c0.072-0.002,0.145-0.004,0.221-0.008c0.27-0.016,0.549-0.04,0.85-0.086h0.004v-0.001c0.66-0.103,1.393-0.285,2.191-0.586
	c0.459-0.173,0.902-0.311,1.332-0.428c0.033-0.008,0.064-0.02,0.098-0.027c0.41-0.108,0.803-0.19,1.182-0.256
	c0.047-0.008,0.094-0.018,0.139-0.025c0.365-0.06,0.711-0.1,1.043-0.128c0.051-0.005,0.102-0.01,0.15-0.013
	c0.318-0.023,0.617-0.035,0.898-0.036c0.021,0,0.047-0.003,0.068-0.003c0.045,0,0.086,0.002,0.129,0.003
	c0.09,0.001,0.174,0.003,0.258,0.005c0.08,0.003,0.158,0.006,0.234,0.01c0.078,0.004,0.152,0.008,0.225,0.014
	c0.072,0.005,0.145,0.01,0.213,0.016s0.131,0.013,0.193,0.02s0.125,0.013,0.184,0.021c0.059,0.007,0.113,0.015,0.166,0.022
	c0.051,0.008,0.102,0.014,0.148,0.021c0.051,0.008,0.094,0.016,0.139,0.023c0.039,0.007,0.08,0.014,0.113,0.021
	c0.041,0.008,0.072,0.015,0.107,0.021c0.025,0.005,0.055,0.011,0.076,0.016c0.029,0.007,0.049,0.011,0.07,0.017
	c0.016,0.004,0.033,0.008,0.043,0.01c0.023,0.006,0.037,0.01,0.037,0.01s-0.039-0.002-0.082-0.004c-0.01,0-0.021,0-0.033-0.001
	c-0.066-0.002-0.16-0.004-0.277-0.004c-0.008,0-0.018,0-0.025,0c-0.113,0.001-0.252,0.003-0.406,0.008
	c-0.023,0.001-0.045,0.002-0.07,0.003c-0.162,0.006-0.346,0.017-0.541,0.032c-0.041,0.003-0.086,0.007-0.127,0.011
	c-0.199,0.017-0.408,0.038-0.633,0.067c-0.016,0.002-0.029,0.003-0.045,0.005c-0.227,0.03-0.471,0.07-0.717,0.116
	c-0.064,0.012-0.127,0.023-0.191,0.036c-0.25,0.049-0.508,0.106-0.771,0.175c-0.053,0.013-0.105,0.029-0.158,0.044
	c-0.236,0.064-0.475,0.137-0.717,0.219c-0.059,0.02-0.117,0.037-0.176,0.059c-0.273,0.097-0.549,0.208-0.822,0.33
	c-0.064,0.029-0.129,0.061-0.193,0.09c-0.287,0.136-0.574,0.28-0.855,0.447c-0.309,0.185-0.635,0.329-0.967,0.458
	c-0.074,0.028-0.148,0.058-0.225,0.084c-0.328,0.115-0.662,0.214-0.998,0.284c-0.014,0.003-0.025,0.004-0.039,0.007
	c-0.332,0.069-0.662,0.114-0.99,0.147c-0.072,0.008-0.143,0.015-0.213,0.021c-0.332,0.027-0.656,0.043-0.969,0.043
	c-0.006,0-0.012,0.001-0.018,0.001c-0.104,0-0.203-0.005-0.305-0.008c-0.109-0.002-0.223-0.002-0.328-0.008
	c-0.209-0.01-0.41-0.023-0.602-0.04c0.1,0.153,0.217,0.298,0.342,0.438c0.039,0.044,0.082,0.085,0.123,0.127
	c0.092,0.094,0.186,0.185,0.287,0.271c0.053,0.045,0.107,0.089,0.162,0.132c0.104,0.079,0.209,0.155,0.32,0.228
	c0.057,0.038,0.115,0.077,0.176,0.113c0.127,0.077,0.26,0.147,0.396,0.215c0.049,0.023,0.096,0.05,0.145,0.072
	c0.188,0.087,0.385,0.164,0.588,0.232c0.041,0.014,0.086,0.023,0.127,0.037c0.164,0.051,0.33,0.097,0.502,0.136
	c0.074,0.017,0.15,0.029,0.225,0.043c0.146,0.028,0.295,0.053,0.445,0.07c0.082,0.011,0.166,0.02,0.25,0.027
	c0.152,0.013,0.309,0.02,0.465,0.023c0.076,0.002,0.15,0.005,0.229,0.005c0.285-0.003,0.576-0.022,0.869-0.059
	c0.064-0.008,0.127-0.02,0.191-0.028c0.268-0.041,0.537-0.094,0.807-0.164c0.045-0.012,0.09-0.021,0.137-0.033
	c0.299-0.083,0.598-0.189,0.895-0.312c0.072-0.028,0.143-0.061,0.213-0.092c0.305-0.135,0.609-0.283,0.908-0.462
	c0.236-0.141,0.479-0.266,0.729-0.38c0.084-0.038,0.172-0.069,0.256-0.105c0.168-0.07,0.336-0.14,0.508-0.2
	c0.105-0.037,0.211-0.067,0.318-0.101c0.156-0.049,0.313-0.097,0.471-0.138c0.113-0.03,0.229-0.056,0.344-0.082
	c0.154-0.035,0.307-0.068,0.461-0.098c0.117-0.021,0.236-0.041,0.354-0.06c0.152-0.024,0.305-0.046,0.455-0.064
	c0.119-0.015,0.238-0.028,0.357-0.04c0.15-0.016,0.299-0.027,0.447-0.037c0.117-0.008,0.234-0.017,0.35-0.022
	c0.148-0.007,0.293-0.011,0.439-0.015c0.111-0.002,0.225-0.006,0.334-0.006c0.025,0,0.053-0.002,0.078-0.002
	c0.08,0,0.152,0.004,0.23,0.005c0.176,0.002,0.352,0.005,0.521,0.012c0.1,0.004,0.195,0.009,0.293,0.015
	c0.162,0.008,0.322,0.018,0.477,0.029c0.09,0.007,0.176,0.014,0.264,0.021c0.152,0.014,0.297,0.027,0.438,0.043
	c0.078,0.009,0.154,0.017,0.229,0.025c0.139,0.018,0.268,0.033,0.391,0.051c0.064,0.009,0.127,0.018,0.188,0.026
	c0.119,0.018,0.227,0.034,0.33,0.051c0.051,0.009,0.1,0.017,0.146,0.024c0.1,0.018,0.184,0.032,0.264,0.047
	c0.031,0.006,0.064,0.012,0.092,0.018c0.072,0.015,0.125,0.025,0.172,0.035c0.021,0.004,0.041,0.008,0.057,0.011
	c0.047,0.011,0.072,0.017,0.072,0.017c-0.203-0.475-0.418-0.918-0.639-1.348c-0.049-0.098-0.1-0.196-0.15-0.293
	c-0.219-0.41-0.439-0.804-0.668-1.172c-0.031-0.049-0.063-0.092-0.092-0.14c-0.211-0.332-0.426-0.646-0.643-0.944
	c-0.053-0.072-0.105-0.146-0.158-0.217c-0.24-0.317-0.482-0.618-0.729-0.9c-0.047-0.054-0.096-0.104-0.143-0.156
	c-0.223-0.247-0.445-0.48-0.672-0.699c-0.045-0.044-0.09-0.091-0.135-0.134c-0.254-0.241-0.51-0.464-0.766-0.673
	c-0.057-0.045-0.111-0.087-0.166-0.13c-0.238-0.188-0.479-0.366-0.717-0.529c-0.027-0.019-0.055-0.038-0.08-0.056
	c-0.262-0.176-0.521-0.334-0.781-0.48c-0.055-0.031-0.109-0.062-0.164-0.092c-0.523-0.287-1.039-0.521-1.537-0.711
	c-0.049-0.019-0.096-0.037-0.143-0.054c-0.248-0.091-0.492-0.173-0.73-0.242c-0.016-0.005-0.033-0.009-0.049-0.014
	c-0.229-0.066-0.453-0.123-0.67-0.173c-0.035-0.008-0.07-0.016-0.105-0.023c-0.227-0.05-0.447-0.092-0.658-0.125
	c-0.021-0.004-0.043-0.007-0.064-0.01c-0.205-0.032-0.402-0.058-0.59-0.076c-0.014-0.002-0.029-0.004-0.043-0.006
	c-0.199-0.02-0.387-0.033-0.564-0.041c-0.016-0.002-0.033-0.002-0.049-0.003c-0.174-0.008-0.34-0.012-0.49-0.012
	c-0.178,0-0.338,0.005-0.479,0.012c-0.006,0-0.014,0.001-0.02,0.001c-0.137,0.007-0.252,0.016-0.348,0.024
	c-0.008,0.001-0.018,0.002-0.025,0.003c-0.09,0.009-0.162,0.018-0.211,0.023c-0.006,0.001-0.01,0.002-0.016,0.003
	c-0.037,0.005-0.066,0.01-0.066,0.01c-0.467,3.392-2.111,5.519-3.523,6.759c0,0,3.563-6.417,2.248-14.062l-2.295,0.57
	c0,0-1.746,1.799-4.818,3.092c-3.082-1.272-4.838-3.06-4.838-3.06l-2.301-0.555c-1.264,7.653,2.346,14.045,2.346,14.047
	c-1.424-1.231-3.08-3.348-3.57-6.736c0,0-0.027-0.004-0.049-0.007c-0.01-0.002-0.021-0.003-0.035-0.005
	c-0.043-0.006-0.105-0.013-0.18-0.02c-0.016-0.002-0.035-0.004-0.053-0.005c-0.084-0.008-0.186-0.016-0.303-0.021
	c-0.016-0.001-0.033-0.001-0.049-0.002c-0.117-0.005-0.248-0.009-0.389-0.009c-0.02,0-0.037-0.001-0.055-0.001
	c-0.137,0.001-0.285,0.005-0.439,0.011c-0.041,0.002-0.084,0.004-0.125,0.006c-0.162,0.009-0.33,0.021-0.51,0.038
	c-0.016,0.002-0.035,0.004-0.051,0.006c-0.172,0.018-0.352,0.042-0.535,0.069c-0.053,0.008-0.107,0.016-0.162,0.025
	c-0.197,0.032-0.402,0.07-0.613,0.116c-0.041,0.009-0.082,0.021-0.123,0.029c-0.189,0.044-0.383,0.093-0.58,0.149
	c-0.053,0.015-0.105,0.028-0.158,0.045c-0.227,0.067-0.459,0.144-0.695,0.23c-0.053,0.02-0.107,0.041-0.162,0.063
	c-0.217,0.082-0.436,0.173-0.656,0.272c-0.039,0.018-0.078,0.033-0.117,0.051c-0.248,0.115-0.498,0.245-0.752,0.384
	c-0.059,0.032-0.117,0.066-0.176,0.1c-0.262,0.149-0.523,0.309-0.787,0.486l0,0c-0.264,0.177-0.525,0.375-0.787,0.582
	c-0.057,0.045-0.111,0.089-0.168,0.135c-0.26,0.213-0.52,0.439-0.777,0.686c-0.031,0.03-0.064,0.064-0.096,0.096
	c-0.236,0.23-0.471,0.477-0.703,0.736c-0.047,0.053-0.094,0.104-0.141,0.156c-0.25,0.289-0.496,0.596-0.738,0.922
	c-0.045,0.06-0.09,0.124-0.133,0.186c-0.225,0.309-0.443,0.633-0.658,0.977c-0.029,0.047-0.061,0.09-0.09,0.137
	c-0.229,0.376-0.453,0.776-0.672,1.195c-0.047,0.091-0.094,0.185-0.141,0.278c-0.221,0.437-0.436,0.887-0.639,1.37
	c0,0,0.025-0.006,0.072-0.017c0.021-0.005,0.053-0.011,0.086-0.019c0.039-0.008,0.076-0.017,0.133-0.027
	c0.047-0.01,0.102-0.02,0.16-0.031c0.061-0.012,0.121-0.023,0.193-0.036c0.068-0.013,0.143-0.024,0.221-0.038
	c0.08-0.014,0.16-0.026,0.248-0.04c0.092-0.014,0.186-0.027,0.285-0.042c0.092-0.013,0.186-0.025,0.283-0.037
	c0.111-0.015,0.223-0.028,0.344-0.042c0.102-0.011,0.209-0.021,0.318-0.032c0.127-0.012,0.25-0.023,0.385-0.034
	c0.117-0.01,0.24-0.017,0.363-0.023c0.135-0.009,0.266-0.018,0.406-0.023c0.143-0.006,0.289-0.007,0.438-0.01
	c0.115-0.002,0.227-0.008,0.346-0.008c0.014,0,0.029,0.001,0.043,0.001c0.018,0,0.035,0.001,0.053,0.001
	c0.234,0.001,0.471,0.007,0.711,0.019c0.076,0.003,0.152,0.01,0.229,0.014c0.184,0.012,0.369,0.024,0.557,0.043
	c0.098,0.009,0.193,0.021,0.291,0.032c0.168,0.021,0.336,0.042,0.506,0.068c0.107,0.017,0.213,0.035,0.32,0.054
	c0.16,0.029,0.32,0.063,0.482,0.099c0.107,0.024,0.217,0.049,0.324,0.077c0.16,0.041,0.318,0.088,0.477,0.137
	c0.104,0.031,0.209,0.062,0.311,0.097c0.17,0.059,0.334,0.125,0.498,0.193c0.088,0.036,0.176,0.067,0.264,0.106
	c0.246,0.112,0.488,0.234,0.723,0.371c0.295,0.174,0.594,0.317,0.895,0.449c0.074,0.032,0.15,0.064,0.225,0.096
	c0.293,0.117,0.586,0.221,0.879,0.302c0.047,0.013,0.092,0.021,0.139,0.032c0.26,0.066,0.518,0.117,0.775,0.155
	c0.076,0.012,0.152,0.024,0.229,0.033c0.285,0.034,0.568,0.054,0.846,0.056c0.082,0.001,0.16-0.004,0.24-0.006
	c0.154-0.004,0.309-0.011,0.459-0.023c0.09-0.009,0.178-0.02,0.266-0.03c0.145-0.019,0.287-0.041,0.426-0.067
	c0.084-0.017,0.166-0.031,0.246-0.05c0.156-0.036,0.309-0.079,0.459-0.125c0.057-0.018,0.115-0.032,0.172-0.051
	c0.203-0.069,0.4-0.147,0.588-0.234c0.041-0.019,0.08-0.042,0.121-0.062c0.145-0.072,0.287-0.147,0.422-0.229
	c0.059-0.036,0.115-0.074,0.172-0.112c0.111-0.074,0.219-0.151,0.322-0.232c0.055-0.043,0.109-0.088,0.162-0.133
	c0.102-0.088,0.195-0.18,0.287-0.273c0.041-0.044,0.086-0.085,0.125-0.13c0.123-0.142,0.24-0.287,0.34-0.441
	c-0.666,0.063-1.451,0.087-2.27,0.021c-0.076-0.006-0.148-0.013-0.225-0.021c-0.334-0.033-0.67-0.078-1.008-0.148
	c-0.002-0.001-0.006-0.002-0.008-0.002c-0.324-0.068-0.646-0.164-0.965-0.273c-0.08-0.028-0.16-0.058-0.24-0.088
	c-0.324-0.125-0.643-0.265-0.945-0.442c-0.275-0.161-0.557-0.302-0.84-0.433c-0.063-0.03-0.127-0.06-0.191-0.088
	c-0.273-0.121-0.547-0.23-0.82-0.326c-0.043-0.015-0.084-0.027-0.127-0.041c-0.246-0.083-0.49-0.156-0.73-0.222
	c-0.057-0.016-0.113-0.032-0.17-0.047c-0.264-0.066-0.52-0.124-0.77-0.173c-0.055-0.011-0.105-0.02-0.158-0.029
	c-0.223-0.04-0.438-0.075-0.643-0.104c-0.037-0.005-0.074-0.012-0.109-0.016c-0.229-0.029-0.443-0.052-0.645-0.068
	c-0.049-0.005-0.096-0.008-0.143-0.012c-0.189-0.015-0.371-0.025-0.529-0.031c-0.006-0.001-0.01-0.001-0.016-0.001
	c-0.17-0.007-0.316-0.009-0.445-0.009c-0.035,0-0.072-0.001-0.104,0c-0.033,0-0.066,0-0.096,0c-0.039,0.001-0.076,0.002-0.107,0.003
	c-0.021,0-0.047,0.001-0.064,0.001c-0.031,0.002-0.059,0.003-0.078,0.004c-0.01,0-0.023,0-0.029,0.001
	C18.932,22.999,18.916,23,18.916,23s0.014-0.004,0.039-0.011c0.006-0.001,0.018-0.004,0.025-0.006
	c0.023-0.006,0.051-0.013,0.088-0.021c0.02-0.004,0.045-0.01,0.07-0.015c0.035-0.008,0.072-0.016,0.119-0.024
	c0.029-0.006,0.064-0.012,0.1-0.019c0.051-0.009,0.102-0.019,0.16-0.028c0.041-0.006,0.084-0.013,0.129-0.019
	c0.063-0.01,0.125-0.019,0.195-0.027c0.051-0.007,0.104-0.013,0.16-0.019c0.072-0.009,0.146-0.016,0.225-0.023
	c0.063-0.006,0.125-0.011,0.191-0.016c0.082-0.006,0.168-0.012,0.256-0.016c0.07-0.004,0.141-0.008,0.215-0.01
	c0.094-0.004,0.191-0.006,0.291-0.007c0.053,0,0.1-0.003,0.154-0.003c0.016,0,0.033,0.002,0.049,0.002
	c0.279,0.001,0.578,0.013,0.895,0.035c0.051,0.004,0.102,0.008,0.156,0.012c0.324,0.027,0.664,0.068,1.021,0.125
	c0.049,0.008,0.098,0.017,0.146,0.025c0.371,0.063,0.756,0.143,1.156,0.245c0.035,0.01,0.072,0.021,0.107,0.03
	c0.422,0.112,0.854,0.243,1.301,0.408c0.801,0.296,1.533,0.475,2.195,0.572h0.004c0.297,0.044,0.576,0.066,0.844,0.08
	c0.072,0.004,0.143,0.006,0.213,0.008c0.248,0.006,0.488,0.007,0.709-0.007l3.486,0.156l0.82-8.177l0.871,8.17l3.486-0.18
	C39.012,24.256,39.248,24.254,39.49,24.246z M30.432,48.852c0.232-0.113,0.463-0.237,0.693-0.38
	C30.895,48.614,30.664,48.738,30.432,48.852z M30.23,48.947c0-0.001,0-0.001,0.002-0.001C30.23,48.946,30.23,48.946,30.23,48.947
	L30.23,48.947z M33.531,46.178c0.164-0.229,0.322-0.474,0.475-0.733C33.854,45.704,33.695,45.948,33.531,46.178z M32.76,47.129
	c0.219-0.232,0.432-0.484,0.637-0.759C33.191,46.645,32.979,46.896,32.76,47.129z M38.822,49.215
	c0.006,0.002,0.01,0.005,0.014,0.007l0,0C38.832,49.219,38.828,49.217,38.822,49.215z M35.16,45.221
	c-0.168-0.356-0.326-0.73-0.467-1.138C34.834,44.49,34.992,44.864,35.16,45.221z M32.6,47.288c-0.178,0.179-0.359,0.346-0.543,0.5
	C32.24,47.634,32.422,47.467,32.6,47.288z M31.16,48.451c0.236-0.148,0.471-0.319,0.703-0.503
	C31.631,48.132,31.396,48.302,31.16,48.451z M36.514,47.347c0.211,0.247,0.428,0.477,0.652,0.684
	C36.941,47.823,36.725,47.594,36.514,47.347z M35.707,46.227c-0.135-0.218-0.264-0.449-0.387-0.69
	C35.443,45.777,35.572,46.009,35.707,46.227z M35.898,46.528c0.146,0.217,0.297,0.42,0.451,0.612
	C36.195,46.948,36.045,46.745,35.898,46.528z M34.693,44.083c-0.164,0.39-0.342,0.744-0.527,1.083
	C34.352,44.827,34.529,44.473,34.693,44.083z M38.623,50.573c-1.434-0.68-2.893-1.804-4.027-3.658
	c-1.256,1.768-2.793,2.784-4.242,3.368c0.5,2.772,2.391,3.869,3.895,7.789C35.99,54.268,37.941,53.289,38.623,50.573z M37.857,48.6
	c-0.188-0.138-0.371-0.289-0.553-0.45C37.486,48.311,37.67,48.462,37.857,48.6z M38.098,48.768c0.16,0.11,0.322,0.214,0.484,0.309
	C38.42,48.98,38.258,48.878,38.098,48.768z M39.533,49.56c0.184,0.078,0.365,0.146,0.547,0.208c0-0.001,0-0.003,0-0.004
	C39.898,49.701,39.717,49.638,39.533,49.56z M38.836,49.222c0.182,0.098,0.363,0.186,0.545,0.267
	C39.199,49.407,39.018,49.318,38.836,49.222L38.836,49.222z M28.953,49.415c0.182-0.05,0.365-0.107,0.553-0.172
	c-0.188,0.064-0.371,0.116-0.553,0.166C28.953,49.411,28.953,49.413,28.953,49.415z M30.23,48.947L30.23,48.947
	c-0.199,0.091-0.396,0.173-0.594,0.245C29.834,49.12,30.031,49.038,30.23,48.947z M38.496,42.91
	c-1.273-0.343-3.213-1.608-3.703-2.009c-0.227,0.189-2.529,1.51-3.822,1.77c-3.221,0.65-5.777,4.052-5.963,6.964
	c0,0,0.037,0.007,0.084,0.016c0.018,0.003,0.049,0.007,0.07,0.01c0.049,0.008,0.111,0.017,0.184,0.026
	c0.043,0.005,0.096,0.01,0.145,0.016c0.078,0.008,0.162,0.016,0.256,0.022c0.066,0.005,0.139,0.009,0.213,0.013
	c0.1,0.005,0.207,0.008,0.318,0.01c0.102,0.002,0.205,0.003,0.318,0.002c0.041-0.001,0.084-0.002,0.127-0.003
	c0.18-0.006,0.367-0.015,0.564-0.032c0.008,0,0.014,0,0.02-0.001c0.201-0.018,0.414-0.046,0.631-0.08
	c0.053-0.008,0.107-0.018,0.16-0.027c0.18-0.031,0.365-0.069,0.553-0.114c0.051-0.012,0.1-0.022,0.15-0.035
	c0.051-0.014,0.102-0.032,0.152-0.047c0.182-0.05,0.365-0.102,0.553-0.166c0.043-0.016,0.088-0.035,0.131-0.051
	c0.197-0.072,0.395-0.154,0.594-0.245c0-0.001,0-0.001,0.002-0.001c0.066-0.031,0.133-0.062,0.199-0.095
	c0.232-0.113,0.463-0.237,0.693-0.38c0.012-0.008,0.023-0.014,0.035-0.021c0.236-0.148,0.471-0.319,0.703-0.503
	c0.064-0.051,0.129-0.105,0.193-0.16c0.184-0.154,0.365-0.321,0.543-0.5c0.053-0.054,0.107-0.104,0.16-0.159
	c0.219-0.232,0.432-0.484,0.637-0.759c0.047-0.061,0.09-0.129,0.135-0.192c0.164-0.229,0.322-0.474,0.475-0.733
	c0.053-0.091,0.107-0.183,0.16-0.278c0.186-0.339,0.363-0.693,0.527-1.083c0.141,0.407,0.299,0.781,0.467,1.138
	c0.051,0.109,0.105,0.21,0.16,0.315c0.123,0.241,0.252,0.473,0.387,0.69c0.063,0.103,0.127,0.204,0.191,0.302
	c0.146,0.217,0.297,0.42,0.451,0.612c0.055,0.068,0.107,0.142,0.164,0.206c0.211,0.247,0.428,0.477,0.652,0.684
	c0.045,0.043,0.092,0.078,0.139,0.119c0.182,0.161,0.365,0.313,0.553,0.45c0.078,0.059,0.158,0.113,0.24,0.168
	c0.16,0.11,0.322,0.214,0.484,0.309c0.08,0.047,0.16,0.095,0.24,0.139c0.006,0.002,0.01,0.004,0.014,0.007
	c0.182,0.097,0.363,0.186,0.545,0.267c0.051,0.022,0.102,0.05,0.152,0.071c0.184,0.078,0.365,0.142,0.547,0.204
	c0.047,0.017,0.094,0.037,0.141,0.053c0.076,0.024,0.15,0.045,0.227,0.067c0.152,0.045,0.303,0.088,0.451,0.124
	c0.088,0.021,0.172,0.04,0.258,0.059c0.137,0.029,0.27,0.055,0.4,0.077c0.076,0.013,0.154,0.027,0.229,0.038
	c0.158,0.022,0.311,0.041,0.457,0.055c0.082,0.008,0.16,0.015,0.238,0.021c0.121,0.009,0.24,0.017,0.35,0.021
	c0.076,0.003,0.148,0.003,0.219,0.005c0.07,0,0.139,0.001,0.201,0c0.078,0,0.15-0.002,0.219-0.004
	c0.047-0.002,0.09-0.004,0.131-0.006c0.059-0.003,0.117-0.006,0.162-0.009c0.035-0.003,0.064-0.005,0.092-0.008
	c0.031-0.003,0.072-0.007,0.094-0.009c0.027-0.003,0.057-0.007,0.057-0.007C44.002,47.321,41.668,43.765,38.496,42.91z" class="color c1"/>
</svg>