<svg version="1.1" id="图层_1" x="0px" y="0px" width="204.336px" height="102.971px" viewBox="0 0 204.336 102.971" enable-background="new 0 0 204.336 102.971" xml:space="preserve" xmlns="http://www.w3.org/2000/svg" xmlns:xlink="http://www.w3.org/1999/xlink" xmlns:xml="http://www.w3.org/XML/1998/namespace">
  <path fill="#FFFFFF" d="M198.911,97.545c-2.347,0-4.337,1.488-5.095,3.572h-11.85l6.901-6.902c0.599-0.598,0.599-1.566,0-2.166
	c-0.601-0.6-1.568-0.6-2.166,0l-9.068,9.068h-13.891l13.053-13.056c1.019-1.018,1.019-2.67,0-3.688s-2.67-1.019-3.688,0
	l-16.698,16.699c-0.015,0.014-0.021,0.028-0.036,0.045h-14.84l11.429-23.461l-18.585,23.461h-27.732l14.607-14.609l22.35,2.59
	l-18.545-6.393l16.752-16.754c0.019,0,0.035,0.006,0.057,0.006h23.615c1.439,0,2.608-1.166,2.608-2.607
	c0-1.44-1.169-2.608-2.608-2.608H147.02l9.821-9.822h12.823c0.848,0,1.533-0.687,1.533-1.533c0-0.844-0.688-1.533-1.533-1.533
	h-9.758l8.387-8.387c2.01,0.936,4.463,0.59,6.12-1.064c2.116-2.12,2.116-5.555,0-7.674c-2.12-2.119-5.554-2.119-7.674,0
	c-1.657,1.654-2.001,4.109-1.065,6.119l-8.389,8.387v-9.76c0-0.844-0.688-1.531-1.531-1.531c-0.848,0-1.533,0.688-1.533,1.531
	v12.824l-9.822,9.822V39.66c0-1.441-1.168-2.607-2.607-2.607c-1.441,0-2.607,1.166-2.607,2.607v23.614
	c0,0.019,0.004,0.037,0.004,0.056l-16.75,16.752l-6.396-18.545l2.592,22.35l-14.609,14.609V70.762l23.461-18.586l-23.461,11.43
	v-14.84c0.017-0.014,0.031-0.021,0.047-0.037l16.697-16.698c1.018-1.019,1.018-2.671,0-3.688c-1.02-1.02-2.672-1.02-3.69,0
	l-13.054,13.053V27.506l9.066-9.07c0.602-0.598,0.602-1.565,0-2.166c-0.598-0.598-1.566-0.598-2.166,0l-6.9,6.902V11.32
	c2.084-0.758,3.572-2.745,3.572-5.094c0-2.996-2.429-5.426-5.425-5.426c-2.997,0-5.427,2.43-5.427,5.426
	c0,2.349,1.489,4.336,3.573,5.094v11.853l-6.899-6.902c-0.601-0.598-1.57-0.598-2.168,0c-0.6,0.601-0.6,1.568,0,2.166l9.067,9.07
	v13.889L87.263,28.342c-1.021-1.02-2.672-1.02-3.691,0c-1.018,1.018-1.018,2.67,0,3.688l16.699,16.698
	c0.013,0.017,0.029,0.023,0.044,0.037v14.84l-23.46-11.43l23.46,18.586v27.734L85.707,83.887l2.59-22.35l-6.395,18.545L65.15,63.33
	c0-0.019,0.006-0.037,0.006-0.056V39.66c0-1.441-1.167-2.607-2.609-2.607c-1.439,0-2.608,1.166-2.608,2.607v18.459l-9.822-9.822
	V35.473c0-0.844-0.685-1.531-1.531-1.531c-0.846,0-1.532,0.688-1.532,1.531v9.76l-8.39-8.387c0.935-2.01,0.592-4.465-1.065-6.119
	c-2.12-2.119-5.555-2.119-7.672,0c-2.12,2.119-2.12,5.554,0,7.674c1.656,1.654,4.111,2,6.118,1.064l8.388,8.387h-9.759
	c-0.846,0-1.532,0.689-1.532,1.533c0,0.848,0.686,1.533,1.532,1.533h12.824l9.82,9.822H38.859c-1.442,0-2.609,1.168-2.609,2.608
	c0,1.441,1.167,2.607,2.609,2.607h23.613c0.021,0,0.038-0.006,0.057-0.006l16.752,16.754l-18.545,6.393l22.349-2.59l14.608,14.609
	h-27.73l-18.587-23.46l11.43,23.461H47.963c-0.013-0.017-0.022-0.031-0.036-0.045L31.23,84.373c-1.02-1.019-2.671-1.019-3.69,0
	c-1.018,1.02-1.018,2.672,0,3.688l13.054,13.056H26.703l-9.067-9.068c-0.6-0.6-1.569-0.6-2.167,0c-0.6,0.6-0.6,1.568,0,2.166
	l6.9,6.902H10.52c-0.757-2.084-2.748-3.572-5.094-3.572C2.429,97.545,0,99.973,0,102.971h204.336
	C204.336,99.973,201.908,97.545,198.911,97.545z" class="color c1"/>
  <path fill="#E0D0BE" d="M201.26,98.854c0.01,0.026-0.085-0.021-0.419-0.16c-0.332-0.126-0.92-0.374-1.931-0.383
	c0.181-0.004,0.056-0.041,0.188-0.065c0.123,0.006,0.559-0.119,1.709,0.337C200.766,98.544,201.249,98.797,201.26,98.854z
	 M164.503,102.577l0.817-0.045l-6.803,0.111L164.503,102.577z M121.352,102.575c4.08,0.188,15.635-0.03,23.323,0.036l1.269,0.044
	l3.468-0.152C140.066,102.527,127.932,102.628,121.352,102.575z M97.691,102.22C97.661,102.22,97.666,102.22,97.691,102.22
	L97.691,102.22z M102.695,102.169c-0.927,0.001-2.201-0.001-4.353-0.003c0.695,0.036-0.482,0.052-0.651,0.054
	c0.178-0.002,1.503-0.014,6.018-0.031c-0.49-0.01-0.656-0.014-0.926-0.019C107.201,102.165,99.857,102.109,102.695,102.169z
	 M83.136,102.062c-6.139,0.036-4.876,0.079-1.386,0.151l5.985-0.066C86.485,102.104,81.156,102.094,83.136,102.062z M85.756,102.264
	l-6.578,0.06c-0.544-0.019-1.365-0.025-3.103,0.027l3.102-0.027c0.867,0.03,0.958,0.093,3.021-0.021
	C81.659,102.357,82.959,102.304,85.756,102.264z M89.479,102.293c3.358,0.041,7.696,0.066,1.688,0.133
	C102.619,102.399,100.93,102.267,89.479,102.293z M119.148,102.771l4.49,0.056l3.881-0.063
	C125.582,102.795,118.87,102.712,119.148,102.771z M44.461,102.115c-0.374,0.039,2.013,0.106,2.46,0.158l4.421-0.046
	C49.07,102.199,44.763,102.174,44.461,102.115z M46.921,102.273l-6.616,0.069C46.213,102.351,47.295,102.317,46.921,102.273z
	 M75.007,102.561l10.868-0.146l-12.962,0.147L75.007,102.561z M16.266,102.157l2.929-0.049l3.75-0.092L16.266,102.157z
	 M1.225,101.583c0.26-0.823,0.756-1.537,1.376-2.063c1.244-1.064,2.961-1.305,4.341-0.831c-1.459-0.518-3.276-0.248-4.576,0.942
	c-0.643,0.569-1.163,1.438-1.364,2.292c-0.007,0.055-0.079,0.212,0.051,0.178l0.07,0.005l0.364,0.005
	c0.314,0.008,0.63,0.012,0.951,0.016c1.387-0.039,0.436-0.071-0.496-0.102c-0.233-0.008-0.464-0.015-0.658-0.021
	c-0.048-0.002-0.094-0.004-0.138-0.006c-0.008-0.001-0.005-0.003-0.008-0.005l-0.005-0.011c-0.001-0.006,0.002-0.013,0.005-0.019
	l0.005-0.009c0.108-0.003,0.248-0.006,0.422-0.011l-0.422,0.003l-0.001,0.002l-0.007,0.003l-0.005-0.005
	c0.004-0.027-0.014,0.051,0.008-0.052C1.165,101.791,1.191,101.685,1.225,101.583z M10.08,101.926
	c-0.137,0.047-0.12-0.138-0.179-0.208l-0.127-0.289l-0.25-0.547c-0.044-0.091-0.096-0.179-0.152-0.264
	c-0.103-0.177-0.228-0.342-0.357-0.501c-0.521-0.643-1.241-1.149-2.071-1.426c0.783,0.264,1.483,0.751,2.014,1.383
	c0.137,0.152,0.256,0.322,0.368,0.496c0.122,0.188,0.173,0.271,0.396,0.771l0.267,0.596l0.662-0.007l0.97-0.016l-0.909,0.008
	L10.08,101.926z M26.431,102.321c0.794,0,1.693,0.002,2.605,0.002c-0.511-0.024-1.496-0.089-5.206-0.114L26.431,102.321z
	 M26.522,102.324l-0.091-0.004c-2.824-0.004-4.781-0.006-5.621-0.007C21.531,102.315,23.251,102.318,26.522,102.324z
	 M29.036,102.323c0.251,0.012,0.402,0.016,0.657,0.001C29.451,102.323,29.273,102.323,29.036,102.323z M53.519,102.687
	c2.787-0.079-1.703-0.133,4.147-0.229C53.778,102.521,45.676,102.59,53.519,102.687z M40.469,102.386l-7.546,0.079l7.026,0.025
	C39.812,102.461,38.544,102.417,40.469,102.386z M29.483,102.501l3.44-0.036l-2.605-0.01L29.483,102.501z M0.812,101.768
	c0.018-0.012,0.052-0.157,0.191-0.511c0.146-0.343,0.39-0.925,1.046-1.605c0.904-0.968,2.31-1.571,3.796-1.442
	c1.474,0.103,2.974,0.994,3.782,2.456c-0.835-1.58-2.638-2.625-4.46-2.51c-1.821,0.068-3.505,1.281-4.181,2.911
	C0.895,101.298,0.781,101.793,0.812,101.768z M10.723,102.312c-0.21,0.002-0.479,0.005-0.675,0.007
	C10.463,102.328,10.796,102.331,10.723,102.312z M23.624,98.899c-0.037-0.026-0.065-0.049-0.111-0.083l0.516,0.519
	C23.889,99.184,23.767,99.053,23.624,98.899z M0.67,102.257c0.001-0.004-0.001-0.005,0-0.009c0.006-0.127,0.025-0.262,0.054-0.384
	c0.059-0.254,0.149-0.538,0.26-0.797c0.094-0.206,0.048-0.268-0.22,0.56C0.64,101.957,0.619,102.143,0.67,102.257z M2.238,102.398
	c1.043-0.016,1.925-0.027,2.786-0.041c-1.129,0.004-2.292,0.01-3.495,0.015l-0.603,0.002c-0.036-0.006-0.082-0.003-0.126,0
	C1.038,102.462,1.537,102.359,2.238,102.398z M0.799,102.373c-0.062-0.023-0.105-0.062-0.129-0.116
	C0.637,102.37,0.712,102.377,0.799,102.373z M21.958,101.868c0.68-0.003,1.191-0.007,1.435-0.009
	c-2.018-0.019-4.302-0.04-6.703-0.062c0.77,0.014,1.939,0.036,2.984,0.056C20.521,101.859,21.317,101.865,21.958,101.868z
	 M9.03,102.287c0.15-0.002,0.288-0.004,0.452-0.006C8.492,102.258,8.615,102.27,9.03,102.287z M5.024,102.356
	c1.838-0.015,3.544-0.026,5.023-0.038c-0.372-0.011-0.746-0.022-1.017-0.03C7.476,102.313,6.253,102.335,5.024,102.356z
	 M24.091,99.29c0.172,0.164,0.42,0.398,0.786,0.746c0.398,0.387,0.923,0.897,1.622,1.578c0.823-0.01,2.053-0.021,3.614-0.037
	c-0.649-0.01-2.008-0.026-3.579-0.047c-1.574-1.615-3.457-3.548-4.557-4.677c-1.062-1.104-1.347-1.437,0.224,0.084
	c2.199,2.19,3.533,3.521,4.414,4.397c0.694,0.007,1.232,0.013,1.697,0.018c0.44,0.01,0.812,0.019,1.194,0.026
	c0.767,0.016,1.577,0.031,3.067,0.061c-1.369-0.047-0.234-0.085,1.679-0.123c1.967-0.037,4.729-0.09,6.524-0.125
	c-1.181-1.128-1.755-1.641-1.441-1.25c0.383,0.376,0.767,0.753,1.139,1.125l-6.267,0.06c-0.154-0.031,2.771-0.079,0.531-0.106
	c-0.353,0.068-3.767,0.133-8.052,0.141c-1.661-1.656-3.445-3.46-5.138-5.209c-4.827-4.718-1.952-1.354,2.077,2.948
	C23.696,98.946,23.744,98.969,24.091,99.29z M15.917,92.536c0.298-0.323,0.878-0.357,1.214-0.001
	c0.604,0.627,1.261,1.309,2.003,2.079c3.397,3.324,4.122,3.994,4.379,4.201c0,0-2.484-2.489-4.969-4.979
	c-0.311-0.313-0.622-0.623-0.927-0.93l-0.442-0.439c-0.093-0.088-0.201-0.153-0.316-0.194c-0.477-0.179-0.979,0.103-1.133,0.468
	c-0.34,0.793,0.393,1.2,0.4,1.264c0,0-0.044-0.043-0.109-0.106c-0.076-0.07-0.151-0.146-0.189-0.189
	c-0.095-0.115-0.151-0.254-0.151-0.254s0.034,0.104,0.131,0.233c0.021,0.035,0.057,0.063,0.087,0.102
	c0.055,0.055,0.112,0.11,0.171,0.17c0.119,0.118,0.246,0.244,0.373,0.369c0.507,0.503,1.014,1.006,1.014,1.006
	c-0.558-0.569-1.077-1.1-1.586-1.619C15.581,93.383,15.596,92.843,15.917,92.536z M16.379,101.793h-0.064
	c0.002-0.001,0.011-0.002,0.014-0.002c-0.584-0.016-0.776-0.023-0.119-0.016c0.044-0.001,0.196-0.002,0.272-0.003
	c-0.049,0.006-0.141,0.012-0.153,0.018C16.343,101.79,16.361,101.791,16.379,101.793c2.517-0.011,5.034-0.021,7.573-0.021
	l-6.499-6.438c1.594,1.598,3.451,3.458,6.37,6.385c-1.592,0.002-3.949,0.006-6.719,0.009c3.91,0.024,0.631,0.03-0.602,0.043
	c0.096-0.016,0.339-0.028,0.602-0.043c0.626-0.021,1.599-0.052,2.587-0.083c1.4-0.025,2.82-0.053,3.784-0.07
	c-1.183-1.136-1.524-1.426-0.283-0.117c-0.054-0.001-0.276-0.008-0.531-0.017c-2.404,0.01-4.027,0.016-5.201,0.021
	c-1.021,0.018-1.649,0.028-2.175,0.038c-1.063,0.027-1.637,0.063-4.212,0.088c13.603-0.028-3.868,0.063,5.925,0.128
	c-1.33,0.008-2.593,0.015-3.805,0.021c-0.606,0.003-1.2,0.005-1.783,0.007c-0.424,0.001-0.845,0.002-1.262,0.002
	c-0.139-0.14-0.194-0.401-0.295-0.597l-0.144-0.313l-0.084-0.169l0.094,0.192l0.151,0.339l0.143,0.338
	c0.051,0.105,0.068,0.265,0.222,0.218c0.424,0.002,0.845,0.004,1.265,0.005c0.597,0.005,1.188,0.009,1.773,0.013
	c1.168,0.011,2.309,0.021,3.416,0.029C16.566,101.797,16.479,101.795,16.379,101.793z M46.287,102.932
	c-0.42-0.01-0.401-0.018-0.434-0.025C44.977,102.92,44.644,102.929,46.287,102.932z M34.481,102.611
	c-0.133-0.008-0.265-0.016-0.399-0.024C33.879,102.589,34.054,102.599,34.481,102.611z M46.556,102.767l-0.958,0.017
	c-4.295-0.03-9.536-0.126-11.117-0.173c1.446,0.09,2.904,0.16,6.229,0.252c0.985-0.017,1.807-0.062,5.01-0.05
	c2.778,0.034-0.014,0.056,0.132,0.093C47.784,102.875,52.61,102.823,46.556,102.767z M1.383,102.678
	c-0.261,0.002-0.514,0.004-0.753,0.005c-0.105-0.003-0.225,0.011-0.311-0.007c0.002-0.102,0.002-0.2,0.011-0.296
	c0.012-0.189,0.04-0.363,0.07-0.516c0.03-0.146,0.086-0.356,0.128-0.484c0.089-0.278,0.159-0.432,0.159-0.432
	s-0.153,0.308-0.282,0.805c-0.055,0.202-0.098,0.432-0.122,0.691l-0.013,0.199c0.004,0.028-0.017,0.082,0.008,0.09l0.1,0.002
	l0.409,0.01c1.387,0.024,2.773,0.05,2.773,0.05l-0.292-0.061c6.419,0.024,5.032-0.049,5.831-0.095c0,0-2.822,0.016-5.644,0.028
	C2.749,102.672,2.044,102.675,1.383,102.678z M24.901,100.287l-1.144-0.974c0.882,0.842,1.765,1.683,2.635,2.553l3.473-0.112
	c-1.146,0.011-2.293,0.021-3.435,0.021L24.901,100.287z M42.272,101.812l-1.851-0.022l-0.813,0.104
	c0.933-0.009,1.866-0.018,2.819-0.018l-2.807-2.743C40.496,100.023,41.373,100.912,42.272,101.812z M104.96,27.5l2.324-2.367
	C106.766,25.661,106.059,26.38,104.96,27.5z M104.658,21.407c0,0.009-0.053-0.148-0.053-0.157
	C104.634,21.688,104.656,21.774,104.658,21.407z M38.064,36.095c-0.054,0.151-0.097,0.271-0.129,0.359
	c-0.06,0.169-0.062,0.201,0.002,0.082c0,0,0.066-0.152,0.166-0.38c0.032-0.075,0.07-0.162,0.111-0.257
	c0.031-0.067,0.052-0.146,0.081-0.222c0.11-0.304,0.17-0.625,0.17-0.625c0.149-1.483-0.389-2.787-1.173-3.647
	c-0.784-0.885-1.776-1.365-2.723-1.537c1.046,0.194,2.022,0.782,2.676,1.564c0.668,0.772,0.997,1.702,1.078,2.495
	c0.092,0.799-0.05,1.454-0.159,1.858C38.13,35.91,38.123,35.927,38.064,36.095z M81.584,56.563l-6.923-5.579
	C76.221,52.241,78.447,54.035,81.584,56.563z M110.689,66.438l-2.959,2.494C112.475,65.172,110.35,66.781,110.689,66.438z
	 M95.261,97.83c0.756,0.763,1.414,1.428,1.953,1.972c0.723,0.719,1.304,1.283,1.738,1.683c-3.322-3.36-5.962-6.031-8.282-8.381
	C92.42,94.906,94.002,96.534,95.261,97.83z M112.876,17.708c-0.067,0.156-0.122,0.233-0.271,0.384
	c-0.151,0.156-0.291,0.3-0.42,0.432c-0.254,0.264-0.459,0.478-0.619,0.646c-0.319,0.336-0.453,0.487-0.424,0.475
	c0.715-0.73,1.34-1.361,1.612-1.664C112.945,17.715,112.92,17.581,112.876,17.708z M135.165,99.065
	c0.219-0.27,0.479-0.591,0.681-0.836C135.896,98.138,135.6,98.513,135.165,99.065z M177.848,101.629c-0.041,0-0.1,0-0.156,0.001
	C177.729,101.63,177.768,101.63,177.848,101.629c0.735-0.735,1.982-1.987,4.094-4.106
	C180.959,98.508,179.369,100.104,177.848,101.629z M55.582,101.829C52.469,101.832,55.088,101.841,55.582,101.829L55.582,101.829z
	 M43.376,96.823c-0.2-0.161-0.519-0.455-0.917-0.839C42.936,96.444,43.302,96.787,43.376,96.823z M70.659,85.659
	c0.086-0.029,0.155-0.055,0.254-0.087C70.03,85.853,70.182,85.805,70.659,85.659z M50.9,101.77c1.169,0.013,2.515,0.025,3.979,0.04
	C54.235,101.803,53.026,101.791,50.9,101.77z M51.53,101.824c-1.072-0.007-1.916-0.011-2.719-0.016
	C48.418,101.828,48.765,101.841,51.53,101.824z M55.582,101.829c0.912,0,2.199,0,4.334,0c-1.779-0.007-3.439-0.015-5.037-0.021
	C55.49,101.818,55.746,101.825,55.582,101.829z M162.514,39.527c2.186-2.253,1.217-1.272-0.479,0.465
	C162.182,39.848,162.352,39.683,162.514,39.527z M59.414,40.144l-0.01,0.105c0.002,0.146,0.003,0.224,0.005,0.355
	C59.411,40.459,59.413,40.276,59.414,40.144z M59.471,39.55c0.043-0.405,0.2-0.939,0.508-1.371c0.297-0.438,0.713-0.764,1.053-0.933
	c0.338-0.178,0.585-0.226,0.585-0.226s0.457-0.236,1.225-0.214c0.755,0.014,1.802,0.48,2.358,1.416
	c0.272,0.453,0.431,1.006,0.441,1.496c0.025,0.432,0.049,0.835,0.068,1.181c0.04,0.692,0.066,1.152,0.066,1.152
	c-0.016-0.595-0.031-1.157-0.046-1.693c-0.008-0.273-0.016-0.543-0.022-0.804c-0.01-0.311-0.08-0.607-0.173-0.889
	c-0.391-1.131-1.365-1.862-2.369-2.06c-1.009-0.195-2.06,0.116-2.777,0.812c-0.363,0.342-0.637,0.779-0.805,1.264
	c-0.181,0.484-0.167,1.052-0.169,1.463C59.414,40.145,59.436,39.907,59.471,39.55z M33.53,29.792
	c-0.208,0.006-0.413,0.028-0.614,0.061C33.118,29.82,33.322,29.799,33.53,29.792z M32.537,29.931
	c0.125-0.031,0.251-0.058,0.379-0.079C32.786,29.873,32.663,29.901,32.537,29.931z M32.268,30.009
	c0.089-0.027,0.178-0.055,0.27-0.078C32.446,29.954,32.357,29.981,32.268,30.009z M33.53,29.792
	c0.094-0.003,0.188,0.002,0.283,0.004C33.718,29.794,33.625,29.79,33.53,29.792z M128.795,78.184
	c-0.089,0.083-0.193,0.181-0.329,0.309C128.569,78.397,128.686,78.287,128.795,78.184z M169.135,29.968
	c0.048-0.014,0.083-0.024,0.083-0.024S169.185,29.953,169.135,29.968z M31.629,30.256c-0.074,0.036-0.149,0.071-0.219,0.11
	C31.482,30.327,31.555,30.291,31.629,30.256z M31.629,30.256c0.205-0.097,0.418-0.179,0.638-0.247
	C32.043,30.078,31.832,30.159,31.629,30.256z M35.636,40.408c0.079-0.023,0.128-0.051,0.17-0.063
	c-0.007,0.003-0.015,0.009-0.021,0.009L35.636,40.408z M143.24,36.641c-0.061-0.029-0.12-0.051-0.181-0.076
	C143.12,36.589,143.181,36.613,143.24,36.641z M113.642,15.99c-0.004-0.005-0.006-0.012-0.011-0.017
	c-0.017-0.02-0.04-0.032-0.058-0.051c0.021,0.021,0.039,0.034,0.06,0.057C113.636,15.982,113.639,15.987,113.642,15.99z
	 M142.812,36.473c0.085,0.027,0.166,0.059,0.248,0.092C142.978,36.531,142.895,36.499,142.812,36.473z M142.354,36.362
	c0.066,0.011,0.132,0.026,0.197,0.041C142.485,36.387,142.419,36.372,142.354,36.362z M186.475,101.484l5.534-0.029
	c-0.465,0.043-1.823,0.063-3.642,0.073c-2.105,0.005-4.742,0.009-7.41,0.014c1.813-1.819,3.643-3.657,5.182-5.202
	c0.656-0.672,1.252-1.279,1.75-1.79c0.242-0.255,0.463-0.486,0.654-0.688c0.127-0.148,0.193-0.301,0.219-0.428
	c0.152-0.452-0.061-0.99-0.49-1.219c-0.44-0.225-0.963-0.164-1.354,0.285l-3.015,2.954l-6.129,6.008l-0.732-0.004
	c0.275,0.03-0.305,0.069-0.602,0.104c-0.149,0.019-0.228,0.033-0.094,0.046c0.07,0.003,0.19,0.009,0.379,0.018
	c0.23,0.003,0.545,0.006,0.965,0.012c-2.228,0.008-4.313,0.016-5.114,0.019c-0.776,0.015-0.304,0.038,2.522,0.085
	c-4.191-0.033-8.392-0.065-12.609-0.098c3.261-3.229,6.527-6.467,9.799-9.707l2.229-2.214l1.114-1.106l0.558-0.555
	c0.192-0.191,0.377-0.365,0.498-0.527c0.541-0.691,0.588-1.725,0.113-2.467c-0.459-0.757-1.402-1.169-2.271-0.987
	c-0.434,0.088-0.83,0.3-1.149,0.62l-1.112,1.111l-2.229,2.225l-4.453,4.451l-9.02,9.033c-5.25,0.015-10.496,0.027-15.729,0.04
	c1.884-3.869,3.762-7.729,5.637-11.581c-0.836-0.096-1.677-0.191-2.521-0.288c-1.686,2.111-3.369,4.221-5.044,6.319
	c-1.713,2.187-0.676,0.973,0.018,0.16c-1.132,1.367-1.976,2.408-2.638,3.241c-0.709,0.917-1.235,1.595-1.685,2.177
	c-0.465,0.014-0.885,0.024-1.295,0.037c-0.338,0.014-0.67,0.025-1.021,0.04c-0.702,0.025-1.487,0.048-2.587,0.054l-11.078-0.233
	c-4.498,0.07-0.984,0.142-1.313,0.188c-4.028,0.001-8.037,0.002-12,0.003c5.381-5.352,10.668-10.61,15.764-15.678
	c4.003,0.474,7.921,0.937,11.73,1.388c2.228,0.253,4.393,0.499,6.479,0.735c-0.826-0.275-1.634-0.543-2.429-0.808
	c-1.114-0.429-0.938-0.418-0.737-0.391c0.085,0.007,0.144,0.008-0.117-0.098c-0.144-0.055-0.358-0.135-0.673-0.253
	c-0.406-0.145-0.944-0.335-1.653-0.586c0.339,0.128,0.624,0.234,0.861,0.324c0.166,0.066,0.298,0.12,0.399,0.161
	c0.183,0.078,0.235,0.109,0.196,0.107c-0.129-0.022-0.331-0.074-1.512-0.47c-2.271-0.771-6.108-2.074-9.427-3.202
	c1.772-1.788,3.356-3.388,4.248-4.287c0.658-0.675,0.864-0.906,0.355-0.437c1.547-1.446,3.709-3.56,5.957-5.773
	c2.445-2.415,4.989-4.928,6.922-6.836c0.908,0.01,1.727,0.019,2.424,0.027c0.649,0.019,1.186,0.031,1.582,0.042
	c0.786,0.035,0.998,0.083,0.396,0.151c8.545,0.021,7.071-0.151,4.606-0.184c4.955,0,9.432,0,13.684,0
	c0.517-0.014,1.102,0.027,1.519-0.043c0.448-0.082,0.86-0.306,1.179-0.62c0.646-0.632,0.83-1.651,0.476-2.454
	c-0.337-0.814-1.185-1.364-2.046-1.346l-3.035,0.036c-2.016-0.002-8.461-0.012-16.449-0.022c3.322-3.324,7.014-7.017,10.657-10.662
	c2.7,0.004,5.379,0.007,7.944,0.011c1.254,0.003,2.479,0.007,3.666,0.01c0.297,0.001,0.591,0.003,0.883,0.004
	c0.299-0.006,0.592,0.023,0.771-0.028c0.416-0.093,0.756-0.437,0.848-0.835c0.105-0.401-0.028-0.833-0.313-1.106
	c-0.142-0.137-0.313-0.239-0.499-0.288c-0.091-0.028-0.186-0.037-0.281-0.043l-0.363-0.004c-0.98-0.009-1.898-0.018-2.741-0.026
	c-1.683-0.03-3.068-0.056-4.065-0.074c2.37,0.067,2.803,0.096,2.1,0.11c-0.848,0.003-3.057,0.013-5.666,0.024
	c1.02-1.034,2.141-2.17,3.234-3.279l-3.604,3.433c0.824,0,1.609,0.015,2.395,0.03l-2.451-0.007c3.064-3.063,6.141-6.134,9.215-9.203
	c0.093-0.092,0.182-0.182,0.269-0.269l0.129-0.131c0.043-0.045,0.107,0.024,0.159,0.031c0.219,0.086,0.428,0.167,0.627,0.244
	c0.344,0.13,0.479,0.146,0.697,0.201c0.391,0.076,0.699,0.095,0.93,0.098c0.464,0.003,0.621-0.02,0.621-0.019
	c0.979-0.154,0.859-0.168,1.122-0.215c0.127-0.036,0.356-0.09,0.813-0.338c0.436-0.256,1.17-0.707,1.832-1.828
	c0.996-1.827,0.656-3.58,0.103-4.664c-0.58-1.118-1.375-1.743-2.104-2.127c-0.742-0.378-1.466-0.54-2.248-0.542
	c-0.677,0.005-1.432,0.147-2.233,0.557c0.063-0.029,0.129-0.059,0.196-0.086c0.19-0.081,0.382-0.142,0.486-0.173
	c-0.122,0.037-0.373,0.122-0.691,0.284c-0.449,0.218-1.01,0.603-1.448,1.112c-0.456,0.491-0.761,1.097-0.927,1.565
	c-0.166,0.472-0.211,0.804-0.211,0.804c-0.072,0.487-0.06,0.641-0.065,0.554c0-0.085,0.004-0.412,0.103-0.863
	c0.152-0.911,0.933-2.25,1.959-2.917c0.992-0.7,1.963-0.806,1.75-0.809c-0.097,0.017-0.492,0.046-1.201,0.365
	c-0.678,0.323-1.775,1-2.461,2.554c0.002,0.05-0.226,0.543-0.293,1.358c-0.033,0.405-0.025,0.889,0.076,1.405
	c0.051,0.276,0.108,0.488,0.237,0.828c0.08,0.222,0.177,0.435,0.269,0.66c0.106,0.124-0.069,0.19-0.133,0.282l-0.257,0.265
	c-0.954,0.972-1.989,2.027-2.962,3.02c-0.951,0.955-1.848,1.841-2.555,2.509c5.232-5.22,4.498-4.638,2.545-2.746l-5.954,5.938
	l0.002-3.757l-0.172,4.169c0.207-0.208,0.405-0.389,0.603-0.572c-0.207,0.206-0.412,0.411-0.623,0.623
	c0-2.708,0.002-5.422,0.004-8.146l0.002-1.702l0.002-0.854v-0.426c-0.006-0.09-0.012-0.181-0.039-0.267
	c-0.096-0.349-0.408-0.632-0.764-0.692c-0.361-0.071-0.748,0.087-0.964,0.385c-0.11,0.147-0.174,0.323-0.187,0.506l-0.006,0.818
	l-0.002,1.716c-0.002,1.145-0.004,2.292-0.006,3.441c-0.006,2.37-0.01,4.749-0.015,7.137c-3.593,3.578-7.206,7.177-10.847,10.804
	c0.008-4.516,0.018-9.054,0.027-13.612c0-2.068,0.002-4.14,0.002-6.214c-0.051-0.862-0.686-1.659-1.523-1.896
	c-0.832-0.262-1.803,0.045-2.328,0.747c-0.266,0.342-0.428,0.766-0.445,1.202l-0.01,1.552l-0.004,3.154
	c-0.002,2.104-0.004,4.214-0.005,6.327c-0.001,4.285-0.001,8.586-0.002,12.901l-0.171,0.171c0.019-0.032-0.055,0.026-0.201,0.162
	c-0.11,0.105-0.279,0.264-0.498,0.47c-0.414,0.405-1.02,0.998-1.747,1.712c-1.446,1.438-3.381,3.365-5.263,5.238
	c-3.76,3.749-7.312,7.277-6.389,6.177l0.877-0.846c4.543-4.58,0.377-0.579-3.799,3.567c-0.389-1.128-0.777-2.257-1.132-3.284
	c1.022,3.086,0.054,0.461-0.581-1.206c-0.316-0.833-0.551-1.427-0.408-0.948c0.077,0.24,0.242,0.746,0.528,1.628
	c0.336,0.986,0.813,2.393,1.474,4.334c0.184-0.184,0.453-0.453,0.735-0.734l-0.756,0.819c-1.274-3.698-2.567-7.329-3.858-10.96
	c-0.375-0.738-0.707-1.523-1.102-2.596c0.072,0.59,0.15,1.233,0.234,1.919c0.092,0.822,0.188,1.696,0.289,2.606
	c0.43,3.886,0.895,8.09,1.371,12.382c-2.547,2.525-5.136,5.094-7.674,7.613c-2.777,2.786-5.499,5.517-8.063,8.09
	c-0.002-0.501-0.006-0.996-0.008-1.487c0.01,0.71,0.019,1.229,0.021,1.452c0.63-0.649,0.822-0.86,0.936-0.988
	c-0.297,0.303-0.596,0.604-0.906,0.916c-0.01-5.03-0.022-10.361-0.034-15.525c0.021-4.85,0.04-9.539,0.058-13.628
	c2.57-2.013,4.84-3.791,6.639-5.2c1.746-1.373,3.033-2.392,3.683-2.927l1.251-0.823c0.064-0.053,0.119-0.098,0.183-0.149
	c-0.104-0.894-0.208-1.784-0.311-2.668c-0.979,0.472-2.022,0.975-3.157,1.521c0.193-0.116,1.951-1.016-0.492,0.145
	c-0.994,0.51-1.99,1.023-3.125,1.607c-1.343,0.674-2.852,1.432-4.689,2.354c-0.004-3.054-0.006-7.069-0.01-12.773l0.041,0.479
	l-0.006-3.553c3.576-3.575,7.147-7.153,10.717-10.73c0.043,0.088,1.258-1.072,3.146-2.951c0.928-0.931,2.096-2.077,3.241-3.271
	c0.465-0.578,0.635-1.44,0.337-2.186c-0.277-0.743-1.006-1.337-1.836-1.407c-0.411-0.04-0.836,0.034-1.208,0.222
	c-0.374,0.171-0.653,0.501-1.026,0.873c-0.701,0.711-1.408,1.425-2.107,2.135c-1.406,1.416-2.793,2.815-4.1,4.131
	c-1.313,1.307-2.545,2.532-3.631,3.613c-1.359,1.321-2.533,2.462-3.453,3.356c0.021-0.944,0.047-1.674,0.076-2.204
	c-0.018-1.075-0.046-2.963-0.083-5.269c-0.017-2.24-0.036-4.886-0.058-7.535c2.853-2.894,5.718-5.797,7.572-7.678
	c0.041-0.017,0.318-0.268,1.031-0.955c0.168-0.177,0.34-0.357,0.518-0.546c0.156-0.159,0.23-0.289,0.289-0.471
	c0.105-0.347,0.012-0.762-0.274-1.031c-0.274-0.272-0.731-0.36-1.103-0.188c-0.094,0.039-0.178,0.098-0.254,0.167
	c-0.074,0.063-0.215,0.213-0.32,0.316c-0.229,0.229-0.461,0.461-0.693,0.695c-2.152,2.134-4.492,4.452-6.818,6.757
	c0.021-2.729,0.039-5.447,0.06-7.994c0.007-1.08,0.013-2.124,0.019-3.114c0.002-0.52,0.004-1.023,0.004-1.512v-0.491
	c0.004-0.077-0.01-0.169,0.01-0.235l0.222-0.094c0.285-0.116,0.62-0.275,0.754-0.349c1.019-0.595,1.459-1.247,1.692-1.601
	c0.23-0.367,0.25-0.493,0.201-0.421c-0.096,0.138-0.65,0.995-1.484,1.533c0.916-0.626,1.695-1.69,1.938-2.972
	c0.264-1.273-0.033-2.732-0.894-3.846c-0.845-1.123-2.224-1.853-3.646-1.895c-1.424-0.063-2.825,0.553-3.73,1.565
	c-0.924,1.003-1.329,2.349-1.225,3.563c0.089,1.22,0.656,2.276,1.373,2.984c0.36,0.357,0.753,0.633,1.143,0.839
	c0.158,0.072,0.313,0.145,0.465,0.213c0.193,0.083,0.382,0.163,0.568,0.242l0.069,0.029v0.075l0.001,0.148l0.001,0.293
	c0,0.193,0,0.382,0.001,0.566c-0.004,0.867-0.007,1.552-0.009,2.019c-0.016,7.364-0.155,2.746-0.245,4.764
	c0.01,1.533,0.018,2.668,0.024,3.506c0.021,1.12,0.034,1.84,0.042,2.304c-1.016-0.945-0.2-0.038-0.712-0.496
	c-0.142-0.135-0.363-0.347-0.722-0.69c-0.351-0.348-0.834-0.828-1.502-1.491c-0.811-0.825-2.072-2.107-4.029-4.096
	c1.218,1.194,3.457,3.414,2.609,2.532c-0.985-0.997-2.146-2.209-3.396-3.525c-0.415-0.546-1.241-0.554-1.662,0.005
	c-0.201,0.263-0.274,0.638-0.166,0.972c0.054,0.173,0.135,0.313,0.28,0.461l0.503,0.532c2.684,2.838,5.377,5.665,7.384,7.605
	l-2.558-2.661c1.19,1.185,2.449,2.438,3.733,3.715c-0.049,5.061-0.101,10.368-0.14,14.452c-1.372-1.385-2.559-2.58-3.467-3.496
	c-0.838-0.826-1.431-1.384-1.701-1.575l0.588,0.768c-6.168-6.288-7.497-7.6-8.85-8.931c-0.305-0.294-0.666-0.527-1.171-0.635
	c-0.491-0.096-1.169-0.083-1.824,0.396c-0.322,0.233-0.63,0.591-0.801,1.071c-0.173,0.474-0.205,1.087,0.052,1.682
	c0.131,0.306,0.316,0.559,0.608,0.843c0.287,0.29,0.59,0.599,0.91,0.923c0.639,0.647,1.346,1.365,2.129,2.161l-0.173-0.144
	c5.524,5.488,8.393,8.581,11.235,11.134l-1.874-1.913c2.147,2.143,3.695,3.687,4.498,4.487c0.001,4.988,0.002,7.579,0.005,14.622
	c0.002,0.222,0.006,0.542,0.01,0.951c-0.907-0.438-2.32-1.117-3.662-1.763c-1.153-0.56-2.24-1.096-2.762-1.369
	c-0.151-0.015-2.298-1.029-5.268-2.462c-0.084,0.873-0.165,1.714-0.245,2.546c1.159,0.93,2.428,1.958,3.94,3.195
	c0.362,0.173,0.776,0.382,1.905,1.178c0.565,0.396,1.308,0.94,2.312,1.699c0.501,0.384,1.068,0.816,1.714,1.309
	c0.724,0.563,1.536,1.193,2.446,1.901c0.005,1.422,0.012,3.128,0.019,5.091c-0.032-1.943-0.05-4.991-0.093-3.741
	c-0.043,1.278,0.004,4.192,0.02,5.178c-0.044,1.25-0.077-2.782-0.15-1.378c0.089,3.752,0.103,7.052,0.095,10.632
	c-0.006,4.002-0.014,8.317-0.024,13.764c-1.203-1.195-2.489-2.476-3.853-3.831c1.307,1.263,1.803,1.722,1.179,1.059
	c-0.364-0.394-1.174-1.267-1.659-1.791c-0.843-0.505-11.734-12.03-8.653-8.51c-0.894-0.905-1.811-1.834-2.764-2.8
	c0.683-5.718,1.448-12.116,2.212-18.502c-1.818,5.262-3.634,10.514-5.292,15.313c-3.868-3.888-7.432-7.469-10.442-10.492
	c-2.892-2.938-5.248-5.336-6.835-6.948c0.006-0.385,0.012-0.738,0.017-1.063c0.087-2.527-0.053-9.225-0.057-13.413l0.105,0.57
	c-0.042-2.933-0.071-4.966-0.094-6.585c-0.007-0.812-0.014-1.518-0.021-2.18c-0.003-0.331-0.005-0.651-0.008-0.968
	c-0.001-0.313-0.024-0.547-0.108-0.811c-0.165-0.506-0.524-0.975-1.063-1.261c-0.53-0.275-1.278-0.37-1.979-0.017
	c-0.698,0.361-1.3,1.121-1.179,2.312c0.017,1.271,0.037,2.737,0.059,4.461c-0.125-5.707-0.182-3.326-0.281,2.423l0.22,9.806
	l-0.156,2.181c-0.031-0.03-0.063-0.067-0.096-0.104c-1.551-1.535-3.186-3.151-4.867-4.813c-1.461-1.475-2.963-2.987-4.465-4.502
	c-0.013-0.011-0.021-0.019-0.034-0.03c-0.284-0.268-0.636-0.602-1.058-0.999c-0.019-1.293-0.047-3.054-0.076-5.006
	c-0.016-1.896-0.031-3.977-0.047-5.97c-0.004-0.498-0.007-0.992-0.01-1.475c-0.006-0.217,0.004-0.536-0.014-0.654
	c-0.021-0.157-0.078-0.303-0.162-0.43c-0.348-0.535-1.098-0.564-1.471-0.221c-0.197,0.161-0.309,0.385-0.345,0.596
	c-0.027,0.16-0.003,0.575-0.005,0.825c0.013,0.557,0.023,0.99,0.03,1.268c-0.057,1.086-0.08,2.359-0.088,3.706
	c0.003,1.748,0.006,3.59,0.009,5.374c-1.235-1.229-2.433-2.424-3.5-3.487c-0.794-0.804-1.48-1.52-1.978-2.089
	c-1.052-1.021-2.403-2.335-3.879-3.769c0.238,0.257,0.459,0.494,0.655,0.706c0.136,0.154,0.256,0.292,0.355,0.404
	c0.193,0.226,0.295,0.357,0.271,0.356c-0.024-0.001-0.174-0.134-0.485-0.438c-0.196-0.194-0.444-0.44-0.75-0.746
	c-0.1-0.101-0.204-0.206-0.314-0.316c-0.021-0.028-0.067-0.053-0.07-0.086l0.045-0.111l0.093-0.229
	c0.062-0.157,0.127-0.322,0.195-0.493c0.074-0.198,0.081-0.215,0.117-0.34c0.072-0.278,0.118-0.499,0.145-0.773
	c-0.001,0,0.077-0.357,0.087-0.727c0.024-0.369-0.024-0.74-0.024-0.74c-0.325-1.731-1.72-3.156-3.257-3.625
	c-1.551-0.508-3.111-0.121-4.072,0.508c0.064-0.041,0.143-0.068,0.211-0.105c-0.266,0.143-0.519,0.307-0.748,0.496
	c-0.177,0.147-0.336,0.307-0.477,0.46c-0.021,0.023-0.041,0.049-0.062,0.073c-0.118,0.134-0.226,0.267-0.302,0.375
	c0.034-0.049,0.076-0.103,0.115-0.154c-0.55,0.693-0.935,1.551-1.021,2.54c-0.105,1.183,0.241,2.573,1.287,3.683
	c0.854,0.977,2.161,1.581,3.526,1.59c0.341,0.003,0.683-0.037,1.021-0.1c0.167-0.044,0.338-0.073,0.5-0.135
	c0.212-0.071,0.534-0.198,0.789-0.303c0.15-0.124,0.238,0.058,0.345,0.149l0.313,0.313l0.481,0.481l0.828,0.826
	c2.553,2.529,5.183,5.135,7.852,7.779c-2.671,0.017-5.369,0.032-8.076,0.05l-1.673,0.011l-0.837,0.005
	c-0.251,0.005-0.632-0.006-0.733,0.017c-0.311,0.048-0.594,0.288-0.685,0.592c-0.097,0.3-0.021,0.651,0.206,0.872
	c0.111,0.11,0.25,0.195,0.401,0.23c0.081,0.022,0.14,0.025,0.247,0.028l0.417-0.001l1.668,0.001
	c1.111,0.003,2.218,0.007,3.321,0.011c2.204,0.025,4.388,0.05,6.542,0.074c-2.254-0.027-5.438-0.039-6.292,0.006
	c2.475,0.004,4.946,0.008,7.371,0.012c3.781,3.818,7.45,7.522,10.788,10.893c-2.705-0.008-5.268-0.014-7.645-0.02
	c-2.003,0.01-3.848,0.021-5.499,0.029l0.565,0.118c-2.301,0.014-4.472,0.024-6.55,0.036c-0.575-0.005-0.904-0.003-1.263,0.151
	c-0.347,0.145-0.646,0.392-0.855,0.695c-0.424,0.606-0.435,1.442-0.075,2.05c0.366,0.623,1.024,0.986,1.777,0.952
	c0.941-0.003,1.872-0.005,2.799-0.008c1.854-0.001,3.689-0.002,5.544-0.003l0.405-0.136c3.899-0.004,9.374-0.01,15.132-0.016
	c3.249,3.234,6.623,6.592,9.654,9.61c1.468,1.477,2.854,2.869,4.1,4.124c1.579,1.608,2.981,3.036,4.138,4.216
	c-0.67,0.22-1.295,0.426-1.872,0.616c-0.462,0.146-0.887,0.281-1.273,0.403c-1.028,0.402-3.666,1.314-6.807,2.385
	c-1.093,0.365-2.359,0.786-3.417,1.14c0.37-0.045,0.703-0.086,0.99-0.12c0,0-0.042,0.031-0.041,0.056
	c-0.003,0.027,0.037,0.048,0.037,0.048c2.829-0.323,5.125-0.588,7.137-0.818c2.898-0.351,5.389-0.651,7.827-0.946
	c0.031,0.03,0.06,0.059,0.089,0.088c-0.03-0.03-0.062-0.062-0.09-0.091c-0.788,0.083-1.55,0.163-2.325,0.244
	c0.779-0.102,1.562-0.201,2.345-0.302c1.306,1.3,2.617,2.603,3.896,3.876c1.183,1.204,2.336,2.379,3.423,3.485
	c-2.637-2.623-4.818-4.793-6.979-6.941c2.473,2.514,4.904,4.984,7.297,7.419c2.746,2.748,5.447,5.452,8.106,8.115
	c-9.108,0.024-17.853,0.05-26.318,0.073l-0.132-0.029l-2.998,0.033c-2.489-3.142-4.987-6.264-7.486-9.386
	c2.41,2.894-1.807-2.178-4.47-5.58c-0.463-0.572-1.018-1.26-1.615-1.997c-0.325-0.418-0.672-0.863-1.013-1.303
	c0.219,0.492,0.433,0.973,0.621,1.398l3.083,6.34c-4.522-9.12,0.182,0.713,0.328,1.286l2.647,5.217
	c0.982,2.146-1.734-3.348,0.135,0.548c0.401,0.807,0.947,1.904,1.615,3.246c-2.394,0.01-5.459,0.021-8.415,0.033
	c-2.8,0.022-5.497,0.046-7.356,0.063c-0.428-0.412-0.799-0.767-1.106-1.06c0.09,0.097,0.209,0.226,0.357,0.385
	c0.201,0.209,0.442,0.459,0.719,0.747c0.696,0.013,1.625,0.028,2.66,0.046c0.493-0.007,0.465-0.005,0.15,0.003
	c0.146,0.002,0.255,0.004,0.401,0.007c-0.191-0.002-0.268-0.003-0.492-0.005c-0.493,0.014-1.266,0.035-1.597,0.045
	c-0.462-0.002-0.893-0.004-1.16-0.005c-1.19-1.192-1.965-1.969-2.455-2.459c-0.45-0.447-0.642-0.632-0.694-0.672
	c-0.103-0.082,0.353,0.41,0.421,0.514c-5.47-5.724-8.783-8.887-12.843-13.206c0.873,0.938,0.693,0.793-0.093,0.024
	c-0.23-0.227-0.512-0.505-0.835-0.822c-0.355-0.353-0.598-0.623-0.991-0.781c-0.759-0.356-1.899-0.107-2.432,0.741
	c-0.268,0.405-0.371,0.92-0.29,1.398c0.04,0.237,0.123,0.467,0.242,0.67c0.131,0.219,0.242,0.344,0.483,0.577
	c0.852,0.847,1.627,1.615,2.229,2.213c1.209,1.188,1.737,1.677,0.834,0.69c4.225,4.493,2.974,2.988,5.651,5.893
	c-3.036-3.077-6.153-6.137-9.044-8.98c-0.568-0.599-0.709-1.544-0.367-2.283c0.327-0.746,1.105-1.257,1.909-1.262
	c0.4-0.005,0.798,0.094,1.137,0.295c0.176,0.1,0.316,0.215,0.474,0.366l0.498,0.485c0.659,0.643,1.302,1.271,1.927,1.879
	c0,0-1.193-1.233-2.386-2.466c-0.525-0.566-1.321-0.784-1.892-0.715c-0.392,0.039-0.66,0.15-0.8,0.22
	c0.413-0.236,0.985-0.379,1.598-0.245c0.331,0.071,0.665,0.218,0.959,0.447c0.279,0.227,0.58,0.56,0.883,0.851
	c1.207,1.221,2.551,2.58,3.888,3.932c2.66,2.714,5.274,5.406,6.741,6.823c-1.98-1.911-6.319-6.321-6.434-6.503l1.185,1.415
	c1.953,1.961,3.791,3.807,5.536,5.559c1.794,1.773,3.491,3.448,5.107,5.047c3.502-0.035,6.733-0.068,9.8-0.099
	c-3.28-0.031-1.291-0.053,0.923-0.082c2.175-0.027,4.754-0.063,2.271-0.126l-5.183,0.013c-2.377-0.061,2.647-0.103,5.557-0.146
	c0.482,0.004,0.977,0.009,1.487,0.013C59.396,94.3,55.13,85.496,51.182,77.348c3.405,4.306,6.642,8.399,9.32,11.786
	c3.055-1.044,6.372-2.181,10.157-3.475c0.743-0.228,2.276-0.693,1.894-0.513c2.125-0.768,4.539-1.64,6.748-2.438
	c-3.727-3.569-6.773-6.39-5.548-5.053c-5.911-5.89-6.2-6.304-11.225-11.246c2.8,2.88,3.434,3.53,2.977,3.075
	c-0.43-0.429-1.879-1.876-3.16-3.155c-0.678,0.008-1.32,0.017-1.834,0.023c-0.556,0.013-0.971,0.031-1.142,0.057
	c-7.278,0.021-2.541-0.087-5.89-0.128c-1.209,0.02-4.112,0.079-4.303,0.128c-4.471-0.137,8.664-0.359,3.413-0.519
	c-1.827-0.03-6.641-0.106-11.139-0.178c-0.563-0.007-1.121-0.014-1.667-0.022c-0.552-0.023-1.095,0.035-1.519-0.1
	c-0.902-0.245-1.5-1.016-1.637-1.733c-0.157-0.73,0.073-1.369,0.336-1.75c0.268-0.39,0.548-0.563,0.642-0.633
	c0.62-0.447,1.16-0.485,1.478-0.571c0.311-0.082,0.347-0.182,0.111-0.282c-0.209-0.082-0.787-0.294-1.653,0.012
	c-0.423,0.15-0.892,0.449-1.28,0.943c-0.377,0.492-0.67,1.2-0.629,2.01c-0.037-0.157-0.11-0.821,0.284-1.648
	c0.366-0.812,1.352-1.708,2.644-1.795c2.072,0.03,4.476,0.067,6.082,0.091c2.589,0.049,4.833,0.059,6.893,0.051
	c1.03-0.008,2.013-0.016,2.971-0.023c0.532-0.013,1.049-0.025,1.563-0.038l-0.788-0.745c-0.482-0.471-0.967-0.945-1.462-1.429
	c-1.057-1.057-2.154-2.154-3.349-3.35l4.206,4.071c-0.302-0.323-1.477-1.503-2.93-2.948c-1.412-1.396-3.09-3.057-4.46-4.411
	c-1.683,0.024-3.017,0.044-3.534,0.052c-0.143-0.031,1.319-0.107,2.38-0.185c0.52-0.039,0.985-0.078,1.012-0.112
	c0.083-0.033-0.157-0.063-1.051-0.08c-3.376,0.012-6.708,0.022-9.806,0.034c-0.386,0.004-0.77,0.007-1.149,0.011
	c-0.353,0.002-0.801,0.044-1.2-0.147c-0.802-0.336-1.223-1.287-0.993-2.083c0.198-0.808,1.005-1.371,1.774-1.344
	c0.657-0.012,1.291-0.022,1.897-0.035c1.212-0.027,2.317-0.054,3.291-0.075c0.485-0.016,0.939-0.028,1.356-0.041
	c0.208-0.008,0.408-0.015,0.598-0.021c0.116-0.008,0.227-0.015,0.331-0.021c0.486-0.038,0.69-0.075,0.73-0.109
	c-0.455-0.042-0.8-0.04-1.135-0.032l-2.64,0.023l-2.639,0.021l-1.32,0.013c-0.242,0.006-0.39-0.006-0.71,0.016
	c-0.3,0.026-0.593,0.123-0.851,0.275c-0.517,0.302-0.895,0.829-0.999,1.421c-0.109,0.585,0.05,1.214,0.425,1.674
	c0.368,0.465,0.95,0.75,1.539,0.764l1.338-0.008l5.279-0.046c0.186,0.037-0.661,0.064-2.021,0.089
	c-0.681,0.009-1.489,0.02-2.362,0.032c-0.437,0.006-0.889,0.011-1.349,0.016l-0.695,0.008c-0.232,0.013-0.63-0.023-0.916-0.146
	c-0.613-0.238-1.1-0.771-1.279-1.397c-0.185-0.622-0.07-1.311,0.278-1.822c0.344-0.515,0.894-0.849,1.452-0.941
	c0.131-0.026,0.299-0.03,0.395-0.034c0.095-0.001,0.189-0.003,0.281-0.005c0.183-0.003,0.36-0.007,0.528-0.01
	c1.345-0.027,2.168-0.061,1.952-0.105l5.119,0.03c-1.062-1.054-2.096-2.097-3.131-3.14l-2.21-2.223l-1.105-1.11l-0.267-0.271
	c0,0-0.001,0-0.001,0c0.022,0.01,0.045,0.029,0.072,0.065c0.277,0.273,0.584,0.578,0.903,0.893c0.717,0.705,1.485,1.461,2.134,2.099
	c1.301,1.271,2.129,2.055,1.113,0.98c-1.48-1.48-2.412-2.412-3.038-3.039c-0.311-0.314-0.547-0.555-0.737-0.747
	c-0.134-0.141-0.236-0.247-0.328-0.343c-0.054-0.053-0.094-0.147-0.175-0.087c-0.117,0.036-0.248,0.076-0.419,0.128
	c-0.567,0.128-1.464,0.367-2.969,0.046c0.552,0.115,1.145,0.153,1.75,0.094c0.303-0.029,0.609-0.081,0.912-0.161
	c0.152-0.042,0.306-0.079,0.454-0.137c0.132-0.046,0.171-0.063,0.26-0.104l0.119-0.057c0.032,0.021,0.062,0.057,0.094,0.083
	l0.197,0.184c0.222,0.212,0.447,0.427,0.675,0.645c0.456,0.436,0.922,0.88,1.398,1.334c1.824,1.731,3.786,3.594,5.771,5.479
	c-1.671,0.049-3.347,0.099-4.973,0.146c-0.873,0.025-1.732,0.05-2.57,0.073c-0.419,0.013-0.833,0.023-1.241,0.037
	c-0.413,0.022-0.817-0.021-1.135,0.139c-0.676,0.291-0.961,1.092-0.737,1.681c0.217,0.606,0.81,0.93,1.38,0.863
	c1.294-0.044,2.417-0.082,3.312-0.112c0,0-0.629,0.008-1.572,0.017c-0.471,0.005-1.021,0.011-1.611,0.016
	c-0.326,0.009-0.507,0.004-0.742-0.1c-0.218-0.096-0.411-0.267-0.536-0.477c-0.262-0.421-0.209-0.999,0.088-1.359
	c0.313-0.384,0.717-0.497,1.187-0.469c0.943-0.011,1.572-0.017,1.572-0.017L39,48.226c2.092-0.024,4.156-0.05,6.157-0.074
	c-1.154-1.113-2.286-2.205-3.389-3.27c-0.94-0.89-1.854-1.756-2.738-2.594c-0.886-0.831-1.741-1.632-2.558-2.399l-0.301-0.28
	c-0.051-0.036-0.094-0.109-0.15-0.116l-0.186,0.086c-0.241,0.113-0.488,0.207-0.751,0.279c-0.516,0.15-1.042,0.222-1.555,0.223
	c-2.085,0.013-3.776-1.174-4.622-2.43c-0.885-1.273-1.043-2.557-1.043-3.35c0.135-2.076,1.12-3.216,1.697-3.78
	c0.619-0.573,0.957-0.692,1-0.68c0.093,0.032-0.799,0.769-1.275,1.548c1.055-1.477,2.632-2.198,4.034-2.308
	c1.419-0.122,2.682,0.3,3.625,0.943c1.905,1.325,2.61,3.361,2.444,5.183c-0.023,0.23-0.051,0.462-0.105,0.688
	c-0.04,0.215-0.129,0.489-0.162,0.606l-0.081,0.218c-0.058,0.077,0.085,0.115,0.117,0.174l0.408,0.381
	c0.668,0.639,1.367,1.308,2.136,2.04c0.763,0.743,1.595,1.555,2.533,2.468c0.696,0.687,1.469,1.453,2.35,2.324
	c0.001-0.272,0.002-0.581,0.003-0.899l-0.037,0.818c-0.628-0.628-1.272-1.295-1.916-1.962c0.413,0.41,1.093,1.086,1.876,1.864
	c0.003-2.094,0.007-4.602,0.009-6.479c0-0.563,0-1.08,0-1.529c0.004-0.239-0.01-0.396,0.013-0.681
	c0.026-0.255,0.102-0.475,0.186-0.654c0.171-0.362,0.381-0.563,0.482-0.656c0.035-0.032,0.039-0.038,0.047-0.047
	c0.762-0.631,1.886-0.554,2.487-0.051c0.662,0.506,0.795,1.242,0.754,1.622c-0.031,0.325-0.066,0.442-0.093,0.281
	c-0.018-0.086-0.014-0.22-0.055-0.503c-0.006-0.032-0.017-0.07-0.025-0.105c0.026,0.122,0.043,0.254,0.043,0.39
	c0.005,0.252,0.012,0.536,0.019,0.848c0.029,1.239,0.066,2.894,0.103,4.548c0.074,3.307,0.149,6.614,0.149,6.614
	c-0.032-1.942-0.286-0.67-0.331-1.501c0.005,0.772,0.01,1.51,0.015,2.188c0.703,0.665,1.331,1.259,1.849,1.749
	c0.539,0.497,0.967,0.874,1.242,1.102c0.55,0.454,0.491,0.304-0.506-0.719c4.036,4.169,4.995,5.16,6.67,6.89
	c0.011-0.269,0.027-0.657,0.05-1.236c0.023-0.882,0.053-2.055,0.094-3.627c-0.018-3.066-0.27,0.283-0.298,2.527
	c-0.069-6.936-0.036-11.005-0.009-14.294c0.111,11.456,0.572,3.12,0.765,5.292c0,0-0.047-1.541-0.118-3.852
	c-0.018-0.578-0.037-1.204-0.058-1.866c-0.05-0.657-0.024-1.375,0.392-1.992c0.389-0.61,1.068-1.076,1.843-1.188
	c0.773-0.125,1.615,0.127,2.218,0.674c0.616,0.534,0.942,1.394,0.921,2.181c0.022,0.76,0.046,1.505,0.067,2.229
	c0.045,1.443,0.086,2.792,0.121,3.946c0.071,2.313,0.118,3.853,0.118,3.853c-0.045-0.835-0.287-2.783-0.316-2.646
	c0.053,0.485,0.095,2.416,0.127,5.271c0.019,2.811,0.045,6.525,0.073,10.629c5.229,5.227,11.386,11.38,16.156,16.146
	c0.445-1.284,0.837-2.414,1.194-3.442l-0.675,1.963c-0.419,1.335,0.355-0.802,1.422-3.85c0.573-1.656,1.231-3.559,1.854-5.357
	c0.769-2.271,1.494-4.414,2.028-5.991c-0.404,1.311-0.868,2.613-1.771,5.24c0.869-2.406,1.561-4.4,2.222-6.357l-0.511-0.463
	c-1.629-1.234-2.676-2.016-2.997-2.293c-0.282-0.246,0.137,0.056,0.787,0.534c-1.663-1.294-3.177-2.471-3.966-3.083
	c-0.216-0.236,0.545,0.301,1.607,1.072c0.886,0.651,2.159,1.584,3.476,2.551c-0.358-0.297-0.72-0.599-1.067-0.888
	c0.983,0.753,1.932,1.479,2.811,2.153c0.018-0.052,0.035-0.104,0.052-0.155l-7.094-5.533c0.998,0.833,2.488,2.076,4.231,3.532
	c-3.992-3.059-8.282-6.345-10.344-7.923c1.277,0.569,1.676,0.711-0.195-0.251c3.067,1.5,6.319,3.115,9.581,4.738
	c7.714,3.637,8.294,3.91,15.414,7.266c-0.009-0.053-0.019-0.347-0.031-0.762c-0.011-0.924-0.026-2.186-0.044-3.624
	c0.065-0.748,0.126,2.879,0.17,0.435c-0.02-1.55-0.041-3.2-0.063-4.894c0.002-1.63,0.004-3.302,0.006-4.957
	c-2.608-2.669-5.157-5.277-7.179-7.347c-2.061-2.111-3.597-3.664-4.168-4.144c-2.853-2.82-3.472-3.382-3.834-3.685
	c-0.181-0.151-0.297-0.239-0.596-0.511c-0.148-0.14-0.344-0.321-0.616-0.578c-0.219-0.203-0.672-0.623-0.944-1.266
	c0.05,0.093,0.101,0.168,0.094,0.139c0.017-0.048-0.202-0.308-0.281-1.198c0,0-0.069-0.462,0.12-1.127
	c0.176-0.662,0.73-1.479,1.571-1.905c0.828-0.446,1.831-0.439,2.495-0.205c0.338,0.104,0.597,0.256,0.771,0.366
	c0.171,0.118,0.264,0.191,0.264,0.191c0.528,0.504,0.415,0.437,0.217,0.247c-0.247-0.258-0.843-0.657-1.348-0.785
	c-0.502-0.14-0.856-0.121-0.559-0.083c0.144,0.027,0.459,0.069,0.938,0.296c0.237,0.114,0.513,0.284,0.786,0.548
	c0.227,0.229,0.49,0.495,0.796,0.805c4.545,4.473,7.966,7.841,11.338,11.16c0.007-2.991,0.013-5.952,0.021-9.317
	c-0.007-1.217-0.012-2.151-0.015-2.781c-0.591-0.57-0.948-0.912-1.136-1.095c-0.223-0.206-0.252-0.216-0.163-0.108
	c0.09,0.109,0.299,0.338,0.553,0.611c0.238,0.258,0.638,0.679,0.595,0.654c-0.005,0.032-0.01,0.065-0.014,0.096
	c-0.005,0.116-0.009,0.223-0.013,0.317c-0.011,0.198-0.019,0.339-0.023,0.394c-0.007,0.049-0.013,0.004-0.017-0.172
	c-0.002-0.112-0.006-0.304-0.011-0.604c-0.343-0.343-0.9-0.899-1.689-1.688c-0.571-0.649-1.101-1.266-2.135-2.369
	c-0.524-0.548-1.168-1.22-1.996-2.085c-0.42-0.429-0.887-0.906-1.409-1.438c-0.262-0.266-0.538-0.545-0.829-0.84
	c-0.145-0.146-0.295-0.298-0.448-0.452c-0.127-0.12-0.401-0.403-0.523-0.679c-0.31-0.604-0.292-1.236-0.115-1.721
	c0.179-0.492,0.498-0.85,0.852-1.085c0.72-0.465,1.568-0.49,2.321-0.074c0.176,0.092,0.392,0.275,0.503,0.385
	c0.116,0.111,0.238,0.228,0.368,0.352c0.26,0.248,0.55,0.526,0.887,0.851c0.671,0.656,1.528,1.496,2.703,2.644l-0.413-0.174
	c0.766,0.764,1.491,1.484,2.134,2.125c0.005-1.25,0.009-2.304,0.012-3.049c0.014-1.126,0.039-1.784,0.086-1.801
	c-0.015-1.245-0.027-2.392-0.04-3.454c-0.003-0.487-0.007-0.956-0.01-1.405c-0.002-0.102,0.025-0.218-0.104-0.229
	c-0.045-0.018-0.088-0.038-0.131-0.06c-0.106-0.053-0.226-0.11-0.33-0.177c-1.747-1.021-2.625-2.642-2.874-4.043
	c-0.03-0.156-0.038-0.287-0.057-0.431c-0.21-2.05,0.563-3.602,1.454-4.631c0.953-1.07,2.099-1.738,3.502-2.059
	c-0.909,0.074-2.657,0.726-3.765,2.204c-0.562,0.714-0.951,1.58-1.126,2.419c-0.084,0.391-0.12,0.771-0.127,1.13
	c0.009-0.533,0.078-0.95,0.131-1.226c0.107-0.48,0.153-0.613,0.088-0.493c-0.115,0.222-0.631,1.576-0.264,3.356
	c0.186,0.876,0.606,1.813,1.252,2.606c0.322,0.398,0.699,0.752,1.104,1.061c0.201,0.154,0.415,0.29,0.629,0.419
	c0.053,0.033,0.109,0.06,0.164,0.09l0.082,0.043l0.008,0.005l0.027,0.02c-0.027,1.285-0.048,2.372-0.057,2.79
	c0.014-0.951,0.026-1.866,0.039-2.748c0.005-0.013-0.01-0.011-0.016-0.018l-0.081-0.043c-0.268-0.14-0.526-0.294-0.764-0.47
	c-0.482-0.345-0.905-0.748-1.263-1.19c-1.448-1.79-1.708-4.132-1.076-5.967c0.619-1.864,2.049-3.219,3.612-3.83
	c1.517-0.603,3.123-0.536,4.446-0.016c-0.211-0.075-0.633-0.208-1.225-0.287c-0.841-0.119-2.008-0.051-3.066,0.383
	c-1.065,0.411-1.958,1.162-2.487,1.822c-0.536,0.661-0.76,1.188-0.76,1.188c1.112-2.182,3.234-3.243,5.033-3.344
	c1.83-0.128,3.378,0.566,4.401,1.452c1.04,0.894,1.626,1.972,1.909,2.963c0.285,1,0.291,1.92,0.152,2.727
	c-0.289,1.62-1.074,2.815-2.221,3.725c-0.291,0.225-0.609,0.43-0.963,0.604l-0.146,0.067l-0.087,0.029
	c-0.085,0.002-0.056,0.084-0.069,0.144c-0.029,0.712-0.063,1.504-0.101,2.43c0-0.733,0.001-1.485,0.001-2.233l-0.002-0.303
	c-0.031-0.104,0.071-0.117,0.145-0.149l0.115-0.058c0.09-0.047,0.182-0.087,0.268-0.142c0.173-0.103,0.345-0.204,0.502-0.323
	c1.307-0.914,2.045-2.276,2.303-3.37c0.266-1.106,0.15-1.928,0.1-2.206c-0.078-0.282-0.002-0.054-0.033,0.875
	c0,0,0.022,0.577-0.204,1.408c-0.206,0.832-0.755,1.885-1.595,2.675c-0.414,0.399-0.891,0.732-1.369,0.979
	c-0.129,0.091-0.286,0.091-0.332,0.193c0.004,0.132,0.006,0.257,0.008,0.372c0.008,0.797,0.014,1.327,0.014,1.327
	c-0.01,0.25-0.018,0.072-0.023-0.275c-0.004-0.326-0.01-0.81-0.016-1.207c0.012-0.11-0.037-0.251,0.025-0.286
	c0.07-0.03,0.109-0.05,0.104-0.051c0.006,0.007-0.086-0.001-0.156,0.079c-0.004,0.163-0.008,0.415-0.017,0.782
	c0.021,1.211,0.052,3.059,0.083,4.876c0.018,0.908,0.035,1.81,0.051,2.621c0.018,0.99,0.033,1.094,0.047,1.348l-0.01-0.037
	l0.012,0.544c1.315-1.311,2.64-2.641,3.963-3.971l1.24-1.244l0.619-0.622c0.219-0.243,0.61-0.515,0.991-0.613
	c0.463-0.14,0.964-0.082,1.41,0.105c-0.037-0.014-0.075-0.027-0.095-0.034c-0.121-0.026,0.015-0.008,0.365,0.203
	c0.318,0.206,0.939,0.722,0.977,1.742c0,0,0.02,0.217-0.07,0.58c-0.049,0.179-0.131,0.395-0.277,0.612
	c-0.071,0.107-0.162,0.216-0.26,0.316c-0.074,0.076-0.154,0.157-0.236,0.241c-0.66,0.674-1.543,1.571-2.424,2.469
	c-1.763,1.796-3.525,3.591-3.525,3.591c1.023-1.052,1.044-1.105,0.436-0.526c-0.576,0.562-1.756,1.714-3.188,3.111
	c-0.001,0.122-0.002,0.256-0.004,0.393c-0.018,4.196,0.017,6.764,0.064,8.658c0.014,0.473,0.026,0.905,0.038,1.311
	c0.007,0.201,0.015,0.398,0.021,0.589l0.011,0.267l0.01,0.102c0.022,0.21,0.046,0.404,0.07,0.619
	c0.086-0.098,0.176-0.199,0.274-0.312c0.045-0.047,0.09-0.096,0.14-0.148c0.11-0.112,0.228-0.229,0.351-0.354
	c0.813-0.799,1.797-1.764,3.064-3.008c-1.03,1.04-1.198,1.209-2.241,2.263l3.712-3.605c0.129-0.256,1.539-1.732,3.59-3.819
	c0.514-0.522,1.066-1.081,1.646-1.671c0.293-0.294,0.592-0.596,0.896-0.903c0.262-0.263,0.702-0.741,1.241-0.982
	c1.056-0.536,2.431-0.458,3.451,0.255c1.028,0.686,1.625,1.999,1.457,3.243c-0.073,0.623-0.329,1.224-0.718,1.715
	c-0.219,0.263-0.391,0.422-0.551,0.584l-0.498,0.501c-0.664,0.665-1.315,1.319-1.949,1.957c-1.264,1.275-2.449,2.473-3.479,3.514
	c-2.053,2.089-3.465,3.568-3.598,3.828c-5.314,5.106-0.427,0.303,6.151-6.515l-5.623,5.476c2.248-2.257,4.133-4.149,6.543-6.559
	c-2.658,2.579-5.227,5.135-7.606,7.533c-2.291,2.338-4.417,4.508-6.267,6.396c0.031,2.056,0.061,3.853,0.084,5.341
	c-0.028,1.966-0.094,1.192-0.149,1.329c-0.026,0.067-0.05,0.364-0.063,1.343c-0.002,0.928-0.006,2.502-0.01,5.157
	c0.002,0.188,0.004,0.367,0.006,0.492c1.162-0.582,1.992-0.999,2.569-1.288c0.759-0.383,1.179-0.604,1.364-0.709
	c0.369-0.211-0.204,0.032-0.901,0.34c-1.397,0.614-3.292,1.474,0.856-0.57l6.275-2.85c0.032-0.016,0.063-0.031,0.095-0.047
	c-0.1-0.855-0.198-1.701-0.294-2.522c0.265,0.784,0.521,1.545,0.771,2.286c2.679-1.327,5.232-2.59,7.684-3.804
	c3.571-1.742,6.991-3.411,10.319-5.035c-5.763,4.537-11.16,8.787-16.782,13.214c0.653,1.839,1.151,3.206,1.493,4.111
	c0.541,1.434,0.657,1.611,0.185,0.115c1.973,5.756,3.041,8.873,4.463,13.023c1.152-1.181,2.484-2.547,4.209-4.313l-1.066,1.274
	l5.637-5.712l-4.471,4.729c5.098-5.042,5.842-5.859,6.411-6.513c0.284-0.327,0.524-0.613,1.244-1.366
	c0.364-0.374,0.844-0.865,1.503-1.543c0.624-0.627,1.419-1.424,2.443-2.453c0.002-0.817,0.006-1.769,0.011-2.849l0.128-0.045
	c-0.049-6.579-0.266-8.838-0.112-13.947c-0.077-6.388-0.18,10.922-0.208-4.084c0.014-0.663,0.028-1.515,0.047-2.487
	c-0.017-1.239,0.842-2.635,2.242-3.088c1.368-0.505,3.096,0.098,3.842,1.391c0.19,0.314,0.332,0.659,0.404,1.016
	c0.077,0.354,0.073,0.743,0.068,0.999c-0.004,0.574-0.006,1.135-0.01,1.673c0.029,2.399,0.067,1.486,0.096-0.408
	c0.006-0.475,0.013-1.01,0.02-1.569c0.002-0.713-0.23-1.476-0.689-2.055c-0.325-0.427-0.751-0.756-1.203-0.975
	c0.45,0.212,0.847,0.513,1.142,0.879c0.372,0.458,0.623,0.992,0.718,1.538c0.094,0.596,0.043,0.977,0.057,1.376
	c-0.008,1.601-0.014,2.983-0.02,4.196c-0.037,2.423-0.063,4.166-0.084,5.604c-0.068,2.458-0.107,3.87-0.187,6.767
	c0.231-0.228,0.487-0.476,0.772-0.752c0.475-0.474,0.998-0.995,1.582-1.577c1.268-1.282,2.795-2.825,4.676-4.728
	c-2.482,2.421-1.504,1.354-1.354,1.133c0.075-0.11-0.057-0.011-0.932,0.844c-0.707,0.701-2.022,2.006-4.389,4.354l0.34-0.354
	l1.024-1.029l2.377-2.355c1.527-1.497,3.054-2.994,4.593-4.505c0.008-1.57,0.017-3.15,0.024-4.748
	c-0.015-1.69-0.026-3.397-0.041-5.137l0.163,5.32c0.003-2.939-0.057-6.246-0.076-7.843l0.126,0.666l-0.012-0.528l-0.005-0.264
	c0-0.105,0.002-0.229,0.021-0.339c0.066-0.458,0.297-0.89,0.639-1.196c0.676-0.644,1.795-0.707,2.541-0.168
	c0.377,0.258,0.655,0.644,0.795,1.076c0.07,0.21,0.096,0.458,0.096,0.651l0.003,0.497c0.001,0.661,0.003,1.313,0.005,1.956
	c-0.007,2.121-0.016,4.126-0.021,5.988c0.947-0.952,1.836-1.845,2.662-2.676c1.098-1.121,2.098-2.169,2.985-3.146
	c-0.696,0.778-0.713,0.833-0.301,0.437c0.203-0.202,0.517-0.513,0.909-0.901c0.195-0.197,0.408-0.413,0.637-0.643
	c0.068-0.072,0.143-0.146,0.215-0.221l0.082-0.084c0.03-0.027-0.02-0.071-0.025-0.107c-0.035-0.049-0.198-0.535-0.276-0.948
	c-0.091-0.42-0.117-0.864-0.113-1.311c0.017-0.894,0.25-1.802,0.658-2.589c0.815-1.604,2.301-2.554,3.353-2.873
	c-1.541,0.55-3.101,1.93-3.683,3.87c-0.295,0.956-0.34,2.012-0.125,3.026l0.097,0.377l0.103,0.312
	c0.007,0.108,0.177,0.241,0.026,0.316l-0.853,0.855c-2.392,2.403-4.735,4.758-6.403,6.434c-0.015-0.635-0.025-1.164-0.035-1.558
	c-0.017-0.683-0.039-1.13-0.068-1.285c-0.008,1.082-0.014,2.121-0.02,3.142c0.629-0.637,1.25-1.266,1.873-1.896
	c0.832-0.822,1.666-1.647,2.524-2.495c-0.86,0.885-1.906,1.959-2.83,2.909c-0.744,0.784-1.39,1.466-1.692,1.784
	c-0.006-0.16-0.007-0.207-0.008-0.247c-0.001,0.096-0.003,0.19-0.003,0.271c2.093-2.078,3.958-3.932,5.664-5.626
	c0.45-0.455,0.89-0.898,1.321-1.333c0.21-0.213,0.418-0.424,0.623-0.632c0.156-0.173,0.423-0.321,0.22-0.557
	c-0.079-0.185-0.181-0.503-0.248-0.787c-0.067-0.291-0.11-0.583-0.135-0.875c-0.046-0.584,0.003-1.163,0.131-1.716
	c0.513-2.229,2.353-3.861,4.379-4.271c1.763-0.385,3.644,0.125,4.984,1.298c-0.288-0.256-0.688-0.562-1.218-0.83
	c-1.203-0.653-3.172-0.917-4.871-0.177c-1.725,0.689-2.903,2.281-3.279,3.589c-0.201,0.654-0.256,1.227-0.262,1.623
	c-0.002,0.397,0.024,0.624,0.024,0.624c-0.168-0.535-0.226-2.378,1.047-4.041c0.61-0.818,1.515-1.531,2.56-1.944
	c1.043-0.418,2.203-0.524,3.246-0.366c1.859,0.375,3.359,1.606,4.143,3.106c0.792,1.508,0.88,3.261,0.357,4.756
	c-0.517,1.503-1.635,2.733-3.023,3.395c-0.837,0.405-1.766,0.572-2.689,0.549c0.233,0.004,0.487-0.005,0.797-0.043
	c-0.71,0.079-1.408,0.032-2.057-0.128c-0.02-0.005-0.039-0.009-0.059-0.014c-0.097-0.025-0.195-0.047-0.289-0.08l-0.23-0.077
	l-0.142-0.059c-0.048-0.031-0.093-0.04-0.124,0.016c-0.219,0.216-0.432,0.426-0.639,0.632c-1.082,1.063-2.066,2.028-2.969,2.917
	c-0.908,0.881-1.733,1.683-2.494,2.422c-0.545,0.513-1.043,0.981-1.504,1.418c0.644,0.022,1.234,0.044,1.793,0.064
	c0.824,0.021,1.599,0.039,2.348,0.059c1.499,0.035,2.902,0.058,4.423,0.06c0.339-0.01,0.817-0.004,1.194,0.238
	c0.382,0.222,0.688,0.613,0.795,1.074c0.111,0.458,0.025,0.978-0.264,1.378c-0.281,0.4-0.746,0.681-1.246,0.718
	c-1.793,0.018-3.597,0.034-5.093,0.048c-2.983,0.037-4.739,0.088-2.743,0.132c-2.384,0.029,2.563,0.014,7.041,0.024
	c0.301-0.005,0.516,0.016,0.877-0.012c0.338-0.04,0.664-0.17,0.926-0.37c0.537-0.396,0.805-1.055,0.765-1.64
	c-0.026-0.594-0.338-1.097-0.707-1.394c-0.37-0.306-0.792-0.419-1.116-0.44c-0.555-0.022-0.768-0.034-0.623-0.059
	c0.077-0.011,0.247-0.024,0.543-0.038c0.373-0.008,0.967,0.083,1.493,0.596c0.558,0.6,0.706,1.528,0.361,2.261
	c-0.319,0.739-1.144,1.23-1.923,1.188c-1.24-0.008-2.512-0.017-3.846-0.025c-2.605,0.015-5.447,0.029-8.721,0.049
	c-1.333,1.348-2.77,2.799-4.337,4.384c-1.362,1.358-2.84,2.83-4.455,4.439c1.407,0.016,2.909,0.031,4.503,0.05
	c-8.117,0.111,4.768,0.177-2.479,0.262c8.834-0.025,9.162-0.072,13.095-0.162c0,0,0.665,0.026,1.33,0.05
	c0.339,0.017,0.651,0.019,0.929,0.041c0.274,0.022,0.452,0.072,0.452,0.072c0.784,0.155,1.397,0.608,1.771,1.124
	c0.381,0.516,0.545,1.087,0.567,1.59c0.048,1.024-0.394,1.747-0.797,2.188c-0.864,0.862-1.634,0.961-2.365,0.972
	c-1.418,0.036-3.579,0.058-12.313,0.117c5.859-0.076-7.012-0.145-2.545-0.213c-2.938,0.009-5.832,0.018-8.399,0.026
	c-1.126,1.154-2.153,2.203-3.063,3.137l0.444-0.466c-4.256,4.244-6.803,6.784-8.766,8.742c-1.812,1.785-3.084,3.04-4.853,4.784
	c2.23,0.76,5.133,1.75,9.851,3.359l-1.718-0.655c3.143,1.07,6.381,2.173,9.688,3.299c0.697-0.811,1.788-2.142,3.178-3.864
	c2.37-2.977,5.315-6.672,8.473-10.635c-2.523,5.167-5.26,10.775-7.731,15.834c0.309,0.104,0.612,0.208,0.922,0.313
	c-0.335-0.038-0.682-0.078-1.018-0.116c-0.229,0.47-0.46,0.941-0.685,1.4c-1.05,2.126-2.021,4.094-2.851,5.773
	c-0.42,0.836-0.806,1.599-1.146,2.275c-0.256,0.485-0.478,0.907-0.662,1.257c0.086,0.004,0.144,0.007,0.199,0.009
	c1.058-0.059,0.689-0.086-0.055-0.1c0.698-1.423,2.02-4.109,2.949-6.001c1.023-2.084,1.63-3.282,0.74-1.301
	c-1.006,2.013-1.459,2.917-3.606,7.206c0,0,0.146-0.227,0.291-0.454c0.063-0.093,0.125-0.185,0.172-0.254
	c0.084-0.145,0.14-0.241,0.14-0.241c-0.152,0.31-0.303,0.614-0.44,0.892c5.276,0.014,9.735,0.025,13.722,0.036
	c4.668-4.631,8.61-8.543,12.766-12.665c1.05-1.043,2.111-2.103,3.203-3.188c0.289-0.278,0.51-0.526,0.859-0.837
	c0.348-0.295,0.77-0.503,1.217-0.612c0.895-0.23,1.905-0.015,2.648,0.591c0.74,0.601,1.188,1.587,1.105,2.58
	c-0.033,0.494-0.201,0.982-0.471,1.412c-0.134,0.207-0.316,0.419-0.477,0.575l-0.469,0.471c-1.261,1.262-2.578,2.581-3.967,3.973
	l0.594-0.633c-2.155,2.144-3.918,3.895-5.408,5.376c-0.735,0.744-1.404,1.42-2.021,2.044c-0.354,0.371-0.676,0.71-0.979,1.028
	c0.484-0.021,0.919-0.039,1.337-0.059c0.083,0.007,0.2,0.014,0.206,0.021c0.023,0.007-0.102,0.013-0.153,0.019
	c-0.149,0.008-0.418,0.021-0.66,0.033c-0.498,0.021-0.997,0.042-0.048,0.068c0.936-0.021,1.867-0.041,2.796-0.062
	c1.06-0.011,2.114-0.021,3.163-0.033c2.039,0,4.057-0.001,6.035-0.001c3.135-3.069,6.134-6.009,8.846-8.665
	c0.155-0.153,0.371-0.376,0.627-0.504c0.252-0.132,0.534-0.2,0.813-0.206c0.56-0.016,1.104,0.251,1.444,0.667
	c0.348,0.416,0.479,0.98,0.383,1.49c-0.067,0.519-0.483,0.958-0.766,1.214c-1.199,1.201-2.295,2.32-3.268,3.347
	c0.115-0.185-0.278,0.138-0.944,0.735c-0.646,0.593-1.56,1.436-2.521,2.317c1.015,0.037,2.063,0.073,3.002,0.107
	c0.966,0.041,1.816,0.079,2.404,0.104C188.639,101.359,188.717,101.423,186.475,101.484z M58.818,87.177l1.557,2.001
	c0.017-0.006,0.036-0.013,0.053-0.019C59.813,88.399,59.258,87.715,58.818,87.177z M55.494,83.888
	c-0.068-0.089-0.173-0.228-0.847-1.119c-0.011-0.009-0.019-0.018-0.032-0.029C55.077,83.344,55.426,83.801,55.494,83.888z
	 M60.525,89.164c0.12,0.151,0.245,0.311,0.363,0.459c2.68,3.398,4.726,6.009,5.677,7.265c-1.558-2.017-4.155-5.273-6.125-7.714
	c-0.021,0.002-0.041,0.005-0.063,0.007l3.159,4.06c-1.096-1.401-2.127-2.722-3.172-4.058c-0.001,0-0.003,0-0.004,0
	c0.001,0,0.002-0.001,0.004-0.001c-0.745-0.953-1.494-1.912-2.283-2.921c-0.913-1.168-1.874-2.401-2.936-3.76
	c-1.046-1.321-2.192-2.763-3.483-4.392c0.08,0.162,0.174,0.352,0.268,0.541c-0.064-0.237,0.625,1.049,1.082,1.851
	c0.482,0.851,0.718,1.186,0.408,0.4c0.123,0.166,0.343,0.464,0.602,0.814c0.685,0.884,1.282,1.654,1.811,2.338
	c0.586,0.739,1.099,1.386,1.559,1.967c1.471,1.813,2.617,3.225,3.731,4.598c1.123,1.361,2.213,2.687,3.567,4.331
	c1.358,1.682,2.98,3.688,5.164,6.392c2.035-0.002,4.389-0.004,7.149-0.006c1.962-0.032-4.44,0.168,6.862,0.113
	c5.521-0.064,10.485-0.122,14.228-0.166c-1.326-1.279-2.517-2.429-3.561-3.435c-0.966-0.911-1.793-1.691-2.47-2.331
	c-1.357-1.262-2.116-1.922-2.16-1.866c1.961,1.925,4.848,4.758,7.474,7.334c-2.009,0.004-3.907,0.008-5.419,0.01
	c-1.599-0.01-2.789-0.03-3.274-0.073c2.392-0.022,5.532-0.052,8.35-0.078c-1.271-1.24-2.448-2.39-3.334-3.254
	c-1.012-0.983-1.696-1.631-1.823-1.716c-4.245-4.512,8.021,7.941,2.389,2.089c-2.97-2.965-4.285-4.194-5.691-5.555
	c2.032,1.923-2.573-2.758-3.429-3.676c-0.751-0.751-1.477-1.478-2.102-2.104C74.597,87.579,68.276,88.291,60.525,89.164z
	 M50.313,35.109c-0.021-0.086-0.05-0.178-0.09-0.275C50.258,34.915,50.291,35.006,50.313,35.109z M50.172,34.722
	c0.01,0.02,0.02,0.034,0.03,0.055C50.194,34.759,50.182,34.74,50.172,34.722z M50.048,34.506c0.003,0.004,0.005,0.007,0.009,0.012
	C50.054,34.514,50.051,34.51,50.048,34.506z M51.377,49.959c-0.121-0.097-0.302-0.257-0.532-0.467
	C52.199,50.843,51.448,50.072,51.377,49.959z M88.083,61.211c0.014-0.041,0.027-0.081,0.041-0.122
	c-0.541-0.398-1.101-0.813-1.695-1.253C86.969,60.285,87.531,60.753,88.083,61.211z M99.744,74.539l0.058-3.531
	c-3.229-2.557-6.427-5.13-9.626-7.703l-0.586-0.368l-0.949-0.861c-0.132,1.37-0.263,2.735-0.403,4.188
	c-0.168,1.542-0.346,3.17-0.543,4.979c-0.145,1.26-0.319,2.643-0.535,4.211c0.258-2.236,0.464-4.023,0.627-5.438
	c0.205-1.901,0.357-3.305,0.465-4.316c0.192-1.92,0.163-2.063,0.06-1.562c-0.32,2.866-0.788,7.058-1.239,11.096
	c-0.195,1.729-0.384,3.425-0.553,4.928c-0.149,1.424-0.28,2.665-0.376,3.575c0.264,0.249,0.487,0.46,0.667,0.63
	c0.217,0.204,0.383,0.353,0.488,0.439c0.209,0.174,0.179,0.099-0.146-0.281c3.132,3.211,6.008,6.039,5.639,5.859l3.951,3.867
	l3.033,2.947c0-1.574-0.018-3.193-0.038-4.813c0.027,1.277,0.105,2.381,0.124-2.642c0.001,1.492,0.001,2.979,0.002,4.442
	c0.008,1.115,0.017,2.215,0.026,3.285c-1.965-1.93-3.815-3.747-5.449-5.351c-1.844-1.829-3.431-3.43-4.624-4.707
	c-0.294-0.063,2.202,2.558-1.154-0.603c2.267,2.238,4.357,4.301,6.304,6.225c1.856,1.813,3.574,3.491,5.186,5.066
	C99.995,89.027,99.875,82.102,99.744,74.539z M93.034,65.306c2.279,1.868,4.316,3.507,5.665,4.523
	C96.613,68.135,94.717,66.626,93.034,65.306z M88.712,61.326c-0.006,0.059-0.011,0.117-0.017,0.176
	c0.112,0.085,0.228,0.175,0.337,0.258c-0.106-0.078-0.228-0.168-0.337-0.249c-0.006,0.064-0.013,0.129-0.019,0.192
	c0.401,0.334,0.792,0.657,1.196,0.994c2.569,1.914,4.446,3.276,0.98,0.451c-0.501-0.383-1.142-0.873-1.82-1.391
	c1.65,1.217,2.673,1.953,1.507,0.993L88.712,61.326z M88.964,58.569c-0.297-0.144-0.594-0.286-0.907-0.438
	c-2.339-1.142-5.272-2.574-7.749-3.783c1.532,1.227,2.819,2.257,3.396,2.719c-0.966-0.749-1.577-1.222-1.932-1.496
	c-0.401-0.304-0.583-0.431-0.607-0.431c-0.058-0.008,0.559,0.526,1.105,1.003c0.704,0.522,1.351,1,1.987,1.473
	c0.797,0.615,1.579,1.221,2.403,1.857c0.507,0.399,1.038,0.82,1.585,1.258C88.484,60.018,88.722,59.303,88.964,58.569z
	 M115.707,62.383c-0.061,0.048-0.12,0.095-0.181,0.143c0.442,3.817,0.875,7.001,1.153,8.933c-0.449-3.856-0.701-6.023-0.84-7.223
	c-0.14-1.229-0.158-1.432-0.14-1.363C115.73,63.002,115.832,63.694,115.707,62.383z M115.702,58.427
	c0.135,0.398,0.273,0.81,0.403,1.192c-0.086-0.226-0.257-0.672-0.447-1.171c-0.074,0.035-0.143,0.068-0.218,0.104
	c0.269,0.768,0.522,1.49,0.757,2.153c3.318-2.716,5.365-4.389,7.552-6.18c-1.048,0.512-2.136,1.044-3.478,1.698
	C118.926,56.873,117.424,57.598,115.702,58.427z M114.985,57.514c0.089-0.045,0.177-0.088,0.266-0.132
	c-0.163-0.427-0.31-0.81-0.394-1.03c0.029,0.207,0.037,0.271,0.045,0.328C114.93,56.96,114.957,57.237,114.985,57.514z
	 M115.395,61.364c0.066-0.055,0.128-0.105,0.194-0.159c-0.014-0.133-0.027-0.264-0.043-0.414c-0.091-0.767-0.175-1.482-0.255-2.165
	c-0.06,0.028-0.123,0.06-0.184,0.088C115.202,59.619,115.298,60.505,115.395,61.364z M116.627,72.503
	c0.1,0.914,0.293,2.69,0.455,4.178c-0.375-3.213-1.001-8.592-1.642-14.087c-0.456,0.359-0.901,0.71-1.362,1.072
	c-1.572,1.262-2.441,1.971-2.924,2.376l0.084-0.066l-0.549,0.462c0.027-0.027,0.079-0.074,0.145-0.132
	c-2.003,1.582-4.047,3.2-6.088,4.814c0.033,4.054,0.066,8.092,0.096,11.862c0.032,3.884,0.055,7.493,0.032,10.579
	c-0.017-0.825-0.04-0.08-0.065,1.117c-0.006,0.3-0.013,0.627-0.02,0.965l-0.01,0.423l-0.01,0.142
	c-0.015,0.22-0.026,0.43-0.037,0.587c0.07-0.058,0.123-0.1,0.15-0.122l9.583-9.745c-4.604,4.674-4.325,4.546-5.101,5.468
	c3.249-3.303,4.779-4.86,6.99-7.107c-1.336,1.389-2.683,2.79-0.916,1.092l2.572-2.699C117.581,79.966,117.104,76.234,116.627,72.503
	z M175.014,30.793c0,0-0.144-0.18-0.436-0.455c-0.022-0.021-0.052-0.045-0.075-0.067C174.684,30.434,174.855,30.607,175.014,30.793z
	 M172.016,40.329c-0.234,0.055-0.468,0.095-0.701,0.122C171.519,40.425,171.741,40.389,172.016,40.329z M169.047,39.256
	c0.04,0.017,0.238,0.098,0.697,0.179c0.383,0.061,0.982,0.119,1.767-0.034c-0.144,0.025-0.301,0.049-0.468,0.06
	c-0.466,0.037-0.928-0.024-0.928-0.024C169.532,39.404,168.966,39.222,169.047,39.256z M142.757,89.553
	c-6.923-0.792-14.082-1.611-21.294-2.437c-4.496,4.499-9.023,9.029-13.421,13.43c5.037-0.009,9.942-0.02,14.606-0.028l-7.688-0.049
	c1.058-0.002,4.174-0.01,7.896-0.02c3.617-0.001,7.817-0.002,11.194-0.002c0.407-0.503,0.774-0.955,1.115-1.375
	c-0.301,0.386-0.692,0.888-1.099,1.408c-0.938,0.004-1.916,0.009-2.573,0.012c0.056,0.019,0.313,0.041,0.789,0.063
	c0.423,0.014,1.034,0.035,1.85,0.063c0.146-0.176,0.308-0.37,0.487-0.584c0.234-0.288,0.49-0.601,0.764-0.938
	c0.547-0.68,1.174-1.459,1.873-2.33l1.176-1.646l1.379-1.614C144.614,87.441,138.655,94.742,142.757,89.553z M146.656,89.599
	c1.373-2.823,2.746-5.644,4.113-8.454c-2.068,2.592-4.13,5.175-6.185,7.749C145.271,89.127,145.965,89.364,146.656,89.599z
	 M113.932,18.268c0.084-0.17,0.135-0.353,0.168-0.538C114.067,17.906,114.019,18.086,113.932,18.268z M114.119,17.096
	c0.022,0.186,0.02,0.374-0.006,0.559C114.142,17.46,114.141,17.274,114.119,17.096z M34.569,29.869
	c-0.252-0.051-0.505-0.065-0.756-0.073C34.063,29.803,34.315,29.822,34.569,29.869z M142.07,36.326
	c0.094,0.008,0.188,0.019,0.284,0.035C142.261,36.345,142.166,36.335,142.07,36.326z M170.181,40.489
	c-0.159-0.01-0.323-0.022-0.511-0.05C169.84,40.467,170.009,40.476,170.181,40.489z M142.552,36.403
	c0.088,0.021,0.175,0.043,0.26,0.07c-0.032-0.01-0.064-0.027-0.097-0.036C142.659,36.421,142.606,36.415,142.552,36.403z
	 M170.35,40.499c0.041,0.001,0.085,0,0.127,0.001c-0.099-0.002-0.197-0.004-0.296-0.012
	C170.236,40.492,170.295,40.496,170.35,40.499z M169.195,40.324c-0.013-0.003-0.024-0.007-0.037-0.01
	c-0.15-0.04-0.306-0.058-0.453-0.11c0.394,0.127,0.7,0.195,0.965,0.234c-0.153-0.025-0.302-0.072-0.453-0.11
	C169.21,40.327,169.202,40.326,169.195,40.324z M141.885,36.315c-0.101-0.003-0.202,0-0.304,0.007
	C141.681,36.315,141.78,36.312,141.885,36.315z M142.07,36.326c-0.063-0.005-0.125-0.01-0.186-0.012
	C141.947,36.316,142.009,36.322,142.07,36.326z M140.977,36.411c0.138-0.036,0.29-0.062,0.448-0.079
	C141.275,36.349,141.126,36.373,140.977,36.411z M141.581,36.322c-0.052,0.003-0.104,0.005-0.156,0.011
	C141.476,36.326,141.529,36.325,141.581,36.322z M114.113,17.655c-0.004,0.025-0.01,0.05-0.014,0.075
	C114.104,17.704,114.11,17.68,114.113,17.655z M96.233,7.149c-0.009-0.065-0.007-0.126-0.014-0.19
	c-0.016-0.124-0.04-0.256-0.049-0.371C96.184,6.786,96.204,6.976,96.233,7.149z M114.119,17.096
	c-0.002-0.014-0.004-0.027-0.006-0.04C114.115,17.07,114.117,17.082,114.119,17.096z M96.157,6.022
	c-0.001,0.086,0,0.175,0.002,0.268C96.157,6.201,96.155,6.114,96.157,6.022z M96.17,6.588c-0.007-0.096-0.008-0.197-0.011-0.298
	C96.162,6.388,96.162,6.481,96.17,6.588z M74.661,50.981l-0.805-0.694c0.303,0.147,0.618,0.303,0.925,0.453
	c-0.299-0.154-0.651-0.333-1.073-0.547C73.858,50.317,74.225,50.621,74.661,50.981z M28.335,84.122
	c-0.066,0.032-0.112,0.059-0.112,0.059C28.256,84.159,28.299,84.143,28.335,84.122z M47.162,33.947
	c0.027-0.025,0.059-0.042,0.086-0.065C47.266,33.863,47.25,33.871,47.162,33.947z M35.807,40.345
	c0.025-0.007,0.049-0.009,0.071,0.001C35.86,40.314,35.833,40.333,35.807,40.345z M82.477,31.412
	c-0.021-0.05-0.049-0.091-0.068-0.145C82.427,31.315,82.452,31.365,82.477,31.412z M113.964,16.517
	c0.072,0.172,0.123,0.354,0.149,0.539C114.085,16.861,114.033,16.68,113.964,16.517z M113.642,15.99
	c0.123,0.145,0.224,0.306,0.301,0.478C113.855,16.278,113.752,16.114,113.642,15.99z M113.964,16.517
	c-0.007-0.017-0.014-0.033-0.021-0.049C113.95,16.484,113.957,16.5,113.964,16.517z M113.573,15.922
	c-0.092-0.103-0.196-0.192-0.307-0.273C113.365,15.719,113.467,15.809,113.573,15.922z M104.372,0.468
	c-0.05-0.021-0.104-0.037-0.154-0.057C104.309,0.444,104.372,0.468,104.372,0.468z M112.831,15.408
	c0.085,0.036,0.17,0.07,0.25,0.116C112.977,15.466,112.896,15.433,112.831,15.408z M113.081,15.525
	c0.057,0.032,0.121,0.078,0.186,0.124C113.206,15.604,113.146,15.563,113.081,15.525z M81.303,56.183
	c-1.009-0.772-1.159-0.859,0.919,0.815C81.537,56.429,81.406,56.294,81.303,56.183z M49.176,66.412
	c-0.118,0.029,0.867,0.057,4.18,0.065C51.188,66.459,49.979,66.436,49.176,66.412z M30.15,84.561
	c0.004,0.009,0.08,0.033,0.201,0.107C30.293,84.633,30.229,84.598,30.15,84.561z M30.752,84.986
	c-0.103-0.089-0.202-0.198-0.401-0.317c0.108,0.065,0.251,0.17,0.424,0.348c0.449,0.444,1.048,1.038,1.647,1.631
	c1.198,1.188,2.396,2.373,2.396,2.373c-2.268-2.293-3.077-3.11-4.223-4.271c0.016,0.024,0.067,0.084,0.123,0.144
	c0.071,0.083,0.143,0.166,0.165,0.198S30.878,85.106,30.752,84.986z M15.44,94.185c0.229,0.233,0.529,0.539,0.909,0.926
	c0.702,0.693,1.484,1.469,2.177,2.152l-0.148-0.231c-0.745-0.739-1.433-1.424-1.999-1.985c-0.554-0.572-1.059-0.964-1.188-1.295
	c-0.139-0.32-0.138-0.42-0.087-0.155C15.139,93.723,15.219,93.942,15.44,94.185z M31.851,91.802
	c-0.607-0.602-1.357-1.344-2.178-2.156c-0.412-0.403-0.841-0.826-1.279-1.257c-0.215-0.213-0.433-0.429-0.651-0.645
	c-0.185-0.192-0.338-0.42-0.443-0.669c0.024,0.11,0.125,0.426,0.459,0.783c0.383,0.392,0.892,0.907,1.493,1.519
	c1.216,1.208,2.804,2.785,4.479,4.449c-0.2-0.2-0.39-0.392-0.59-0.592C33.686,93.673,33.06,93.012,31.851,91.802z M34.509,94.598
	c1.03,1.028,2.082,2.079,3.089,3.085C38.032,98.031,36.356,96.422,34.509,94.598z M61.108,96.022
	c-1.145-2.236-1.763-3.375,0.954,2.12c0.239,0.507,0.405,0.835,0.527,1.063c0.174,0.31,0.278,0.495,0.365,0.649
	c0.201,0.339,0.325,0.523,0.771,1.49c0.525,1,0.064,0.037-0.781-1.68C62.432,98.648,61.699,97.194,61.108,96.022z M27.99,88.494
	c0.762,0.771,1.525,1.542,1.525,1.542l-1.103-1.29c0,0-0.5-0.446-0.961-0.9c-0.456-0.472-0.601-1.134-0.601-1.134
	s0.038,0.27,0.21,0.636C27.212,87.729,27.606,88.112,27.99,88.494z M44.447,97.681c0.065,0.097-0.621-0.571-1.46-1.396
	c1.755,1.763,3.601,3.615,4.91,4.93c1.766,0.004,2.769,0.002,2.708-0.017c-0.898-0.007-1.797-0.013-2.697-0.014L44.447,97.681z
	 M42.986,96.284c-1.719-1.707-3.352-3.329-4.309-4.278C39.606,92.928,41.606,94.914,42.986,96.284z M31.002,84.126
	c0.045,0.04,0.103,0.096,0.157,0.146C31.104,84.221,31.049,84.168,31.002,84.126z M32.342,85.469l3.761,3.775
	c0,0-1.33-1.344-2.659-2.688c-0.897-0.9-1.776-1.809-2.285-2.284C31.641,84.725,32.342,85.469,32.342,85.469z M30.719,83.934
	c0.011-0.012,0.044,0.004,0.093,0.038C30.764,83.938,30.73,83.922,30.719,83.934z M30.813,83.972
	c0.023,0.016,0.06,0.049,0.091,0.073C30.873,84.021,30.836,83.989,30.813,83.972z M31.002,84.126
	c-0.039-0.034-0.066-0.055-0.099-0.081C30.936,84.072,30.962,84.091,31.002,84.126z M82.853,101.241l8.234-0.038
	c0.84-0.046-1.405-0.073-4.471-0.057C84.646,101.18,81.589,101.198,82.853,101.241z M65.15,94.554l-2.461-3.004
	c1.361,1.762,1.432,1.898,2.176,2.909L65.15,94.554z M83.478,100.718c-0.835,0.045-9.084,0.083-1.515,0.121
	C82.784,100.793,93.916,100.708,83.478,100.718z M40.622,66.027l2.094-0.003l-0.301-0.269L40.622,66.027z M35.96,29.014
	c0.528,0.233,0.667,0.326,0.079,0.067c1.507,0.608,2.52,1.736,3.051,2.789c0.536,1.064,0.646,2.032,0.653,2.673
	c0.006,0.647-0.065,0.996-0.039,1.002c0.009,0.002,0.044-0.08,0.081-0.259c0.038-0.18,0.083-0.454,0.105-0.837
	c-0.017-1.39-0.467-2.427-0.908-3.144c-0.459-0.717-0.912-1.147-1.263-1.44c-0.723-0.57-1.021-0.656-1.254-0.764
	c-0.244-0.089-0.448-0.195-1.198-0.394c-0.375-0.09-0.895-0.192-1.629-0.184c-0.728,0.018-1.696,0.146-2.789,0.728
	c-0.122,0.086-0.205,0.142-0.259,0.178c0.303-0.18,1.497-0.821,2.873-0.853C34.458,28.527,35.433,28.782,35.96,29.014z M30.59,29.43
	C30.495,29.487,30.488,29.496,30.59,29.43L30.59,29.43z M35.398,28.873c-0.079-0.022-0.159-0.041-0.239-0.059
	C35.244,28.833,35.324,28.853,35.398,28.873z M33.565,28.669c0.097-0.004,0.187-0.004,0.277-0.003
	C33.75,28.666,33.659,28.665,33.565,28.669z M34.667,28.724c-0.118-0.017-0.236-0.029-0.356-0.039
	C34.437,28.697,34.556,28.708,34.667,28.724z M35.398,28.873c0.265,0.071,0.474,0.145,0.641,0.209
	C35.833,28.999,35.617,28.933,35.398,28.873z M33.565,28.669c-0.231,0.01-0.476,0.031-0.745,0.076
	C33.071,28.701,33.319,28.681,33.565,28.669z M34.667,28.724c0.167,0.024,0.331,0.053,0.492,0.09
	c-0.072-0.017-0.141-0.033-0.221-0.049C34.855,28.75,34.76,28.738,34.667,28.724z M33.843,28.666c0.157,0,0.313,0.007,0.468,0.02
	C34.165,28.673,34.009,28.667,33.843,28.666z M182.327,101.767l7.096,0.057l-4.05-0.092L182.327,101.767z M198.76,98.019
	c0.048-0.001,0.105-0.009,0.15-0.009C198.91,98.01,198.854,98.012,198.76,98.019z M196.508,98.646
	c-0.808,0.437-1.402,1.106-1.689,1.504c0.002,0.001,0.228-0.257,0.484-0.474c0.256-0.22,0.534-0.396,0.534-0.396
	s0.613-0.591,1.413-0.898c0.586-0.261,1.226-0.34,1.51-0.363C198.118,98.04,197.246,98.214,196.508,98.646z M99.44,21.058
	c0.018-0.025,0.026-0.113,0.033-0.255c0.003-0.701,0.007-1.589,0.012-2.743c0,0-0.024,1.228-0.049,2.452l-0.004,0.195l-0.005,0.028
	l-0.009,0.054c-0.006,0.026-0.011,0.053-0.016,0.075c-0.008,0.029-0.014,0.05-0.014,0.05c0.006,0.021,0.012,0.042,0.012,0.048
	c0.003,0.018,0.004,0.032,0.004,0.046C99.414,21.023,99.425,21.037,99.44,21.058z M104.823,29.963l-0.156,2.737l0.151-1.272
	L104.823,29.963z M105.023,59.919c-0.002-2.915-0.004-6.342-0.008-9.271C105.035,57.004,104.829,60.708,105.023,59.919z" class="color c2"/>
</svg>