<svg version="1.1" id="图层_1" x="0px" y="0px" width="188.998px" height="595.574px" viewBox="0 0 188.998 595.574" enable-background="new 0 0 188.998 595.574" xml:space="preserve" xmlns:xml="http://www.w3.org/XML/1998/namespace" xmlns="http://www.w3.org/2000/svg" xmlns:xlink="http://www.w3.org/1999/xlink">
  <g>
    <g>
      <path fill="#FFFFFF" d="M173.197,565.596c-2.178-2.418-3.387-6.047-3.87-8.949c1.451-0.725,2.419-0.969,2.901-0.969
			c1.21,0,0.242-4.354,0.242-4.838c0-0.969,0.242-1.693,0-2.66c-0.242-1.209-1.209-2.178-1.451-3.389
			c0-0.725,0.242-1.451,0.242-2.176c0-1.209,0.24-2.176,0.482-3.387c0.241-0.969,0.484-1.693,0.241-2.66
			c-0.241-1.209-1.209-1.693-1.451-2.66c-0.483-1.211-0.241-2.662-0.241-3.873c0-2.658-0.242-5.563-0.242-8.223
			c-0.482-24.432-13.304-108.611-15.965-121.916c-2.66-13.305-6.048-44.992-8.467-77.889c-0.725-9.678,0.242-21.045-1.691-33.14
			c-4.84-29.27-18.869-48.621-18.869-48.621c-43.542,15.238-89.5-0.727-89.5-0.727s-10.885,14.031-12.578,37.979
			c-0.484,7.5,0.242,17.416,0.242,21.527c-0.484,14.756,10.4,73.537,11.852,89.984c1.452,16.449,4.596,61.441,5.807,78.617
			c1.209,19.594,4.596,38.945,6.289,58.297c0.241,2.42,1.691,6.289,0.967,8.709c-0.483,1.451-1.936,1.936-1.451,3.871
			c0.484,1.449,2.177,2.176,1.936,3.627c0,0.482-0.484,1.209-0.727,1.691c-0.241,0.727-0.483,1.453-0.241,1.938
			c0.241,0.242,0.726,0.482,0.726,0.725c-0.484,3.871-0.242,6.531,0,9.436c0.967,0.727,3.387,0.967,6.288,1.451
			c-1.936,4.838-7.499,11.127-14.271,17.416c-3.629,3.389-10.401,14.271-1.693,17.9c7.5,1.691,22.014,0,27.576-3.871
			c5.563-3.629,4.111-7.982,5.563-8.951c1.453-0.967,12.096-2.902,12.096-5.563s0.968-6.049,0-7.5
			c-0.969-1.451,0.242-3.145,0.484-5.805c0.241-1.451-0.726-4.111-1.693-6.531c0.725-5.32,0-10.645,1.451-15.723
			c0.969-2.662,0-4.111-0.483-6.531c-0.483-2.178,0.242-5.08,0.242-7.258c0.241-5.08,0.483-10.4,0.483-15.48
			c0.242-8.465-0.242-16.934-0.725-25.156c-1.209-17.176-6.289-47.17-5.807-56.604c0.486-9.678-1.207-19.596,0-31.932
			c1.211-12.336,5.807-69.424,7.742-73.293c1.935-3.629,16.449,48.137,20.077,66.521c3.629,18.383,13.063,46.684,16.208,69.664
			c3.144,22.738,9.675,64.102,12.819,79.1c0.242,1.451,0.727,2.662,0.968,4.113c0,1.209-0.241,2.418,0,3.387
			c0.241,0.967,0.97,1.451,1.209,2.42c0.726,4.111,2.419,8.707,4.112,12.578c0.727,0.242,1.451,0.482,2.177,0.482
			c-0.241,1.938,0,3.871,0,5.08c0.241,1.691,1.692,0.969,0.726,1.691c-0.967,0.727-0.726,8.227,0,9.436s4.354,3.146,6.772,4.111
			c2.661,0.969,3.146,2.66,3.388,4.838c0.241,2.18,0.967,2.904,6.53,6.291c5.563,3.627,19.353,3.627,21.528,3.145
			c1.935-0.242,5.805,0.24,6.773-5.807C190.131,581.803,177.067,569.709,173.197,565.596z" class="color c1"/>
      <path fill="#FFFFFF" d="M53.458,38.267c-1.209-0.725-2.66-0.968-3.628,0.484c-2.176,3.628,0.968,7.257,1.937,11.369
			c0.968,4.112,4.111,6.289,6.772,4.838c0,0,0,7.74,2.903,10.643c0,0,0.967,7.741,0.725,14.272c0,0-9.676,6.047-7.982,11.61
			c1.693,6.047,28.06,39.187,28.06,39.187s30.961-39.671,30.961-42.573s-13.063-11.611-13.303-13.064
			c-0.242-1.209-0.97-10.885-0.483-11.127c0,0,0.967-2.418,1.209-3.627c0.24-1.211,0.482-7.983,0.482-7.983s2.177,0,3.145-3.87
			c0.969-3.871,0.483-3.145,0.969-7.499c0.482-4.112-0.241-9.434-3.87-6.047c0-1.209,0.241-3.628,0.725-8.466
			c0.968-9.917-1.937-13.788-8.467-19.835c-6.289-6.047-19.595-7.982-27.091-5.563c-7.499,2.419-17.176,12.579-17.9,18.384
			c-0.726,5.806,3.387,15.723,4.112,17.658C52.974,37.299,53.216,37.783,53.458,38.267z" class="color c1"/>
    </g>
    <path fill="#005468" d="M62.409,76.002c0,0-2.903,2.177-4.354,7.741c-1.451,5.563-2.66,15.238-3.145,27.818
		c-0.725,12.578-1.452,64.344-4.111,75.229c-2.66,10.887-18.867,48.139-18.867,50.072c0,1.936,5.08,5.805,10.4,7.984
		c5.563,2.176,9.918,0.482,12.82,1.691s9.918,1.451,16.207,2.178c6.047,0.725,25.157,2.176,30.962,0.725s6.53-2.66,10.885-3.145
		c4.597-0.24,5.08,1.693,7.499,0.242s6.289-3.629,4.596-22.98c-1.692-19.352-18.867-74.746-17.416-100.145
		c1.693-25.641-3.627-44.992-5.805-47.411c-2.42-2.419-1.691-2.903-3.145,0.483c-1.451,3.388-15.24,19.111-18.868,19.353
		c-3.629,0.242-15.24-10.885-16.207-12.579C61.2,78.663,62.892,76.244,62.409,76.002z" class="color c2"/>
    <g>
      <path fill="#FFFFFF" d="M78.858,97.289c-1.208-0.483-2.419-0.726-5.08,0.968c-2.903,1.936-9.917,7.258-9.917,7.258
			c-4.355-5.564-4.838-21.046-4.838-20.562c-1.693,7.015,3.628,20.319,4.354,21.045c0.725,0.967,5.563-3.388,8.95-6.048
			C75.712,97.289,78.858,97.289,78.858,97.289z" class="color c1"/>
      <path fill="#FFFFFF" d="M171.504,186.79c-0.968-7.256-18.627-86.84-20.078-91.678c-1.207-4.838-3.387-3.871-3.387-3.871
			c-3.629-2.42-29.27-8.467-32.896-8.95c-3.629-0.726-7.5-4.112-10.159-6.047c-2.662-1.935-3.872-1.21-3.872-1.21
			c0.727,0.727,0.968,2.42,1.693,6.048c0.24,1.209,0.24,2.903,0.24,4.597c-0.968,5.08-3.869,17.9-4.354,18.625
			c-0.483,0.727-12.821-7.015-14.514-7.499c-1.693-0.483-2.903,0.726-2.903,0.726s0.483,0,1.937-0.241
			c0.483-0.242,1.45,0.483,2.902,1.45c-0.727-0.24-1.452-0.725-1.452-0.967c-0.241-0.242-7.015,0-7.499,0
			c-0.484,0.242-3.871,1.693-4.838,2.42c-0.727,0.483,2.66,5.563,3.387,6.289c1.209,1.451-1.209,0.969-2.418,8.467
			c-0.726,4.111-1.451,12.094-2.178,21.527c-0.967,13.788-5.32,86.355-5.563,90.469s-0.483,6.773,0,8.467
			c0.242,1.209,2.418,2.418,5.32,4.111c-0.24,2.902,0.242,5.805,0.969,8.709c0,0,0.241,0.482,0.483,0.242
			c-0.242-2.66-0.242-5.322,0-7.984v-0.242c0.967,0.484,1.935,0.969,2.903,1.451c2.177-1.451,9.191-6.047,9.191-8.223
			c0-5.322-1.451-63.135-0.967-76.923c0.482-13.788,2.419-44.267,0-47.896c-1.209-1.451-0.484-2.178-0.484-2.178
			c1.693-2.177,4.354-6.289,4.354-7.015c3.871,2.419,9.435,6.289,11.127,5.563c2.177-0.727,3.87-13.063,4.597-18.385
			c-0.242,3.146-0.484,7.016-0.727,11.854c-0.241,8.225-3.387,36.768-3.387,60.474s6.048,40.88,14.031,72.325
			c7.981,31.205,24.914,41.848,26.85,44.51c1.209,1.691,1.451-7.016,1.451-7.016c3.627,5.08,10.16,5.805,12.578,5.805
			c0.484,0,0.969-0.242,1.209-0.969C159.167,261.778,172.229,188.968,171.504,186.79z M139.573,198.644
			c-0.726,3.387-1.451,6.771-2.176,10.16c-0.242,1.209-0.484,2.418-1.452,2.902c0-8.709-0.241-17.418-0.967-26.125
			c0.482-0.482,1.451,0.242,1.691,0.969c0.727,1.691,1.451,3.385,2.42,5.08c0.24,0.725,0.725,1.449,0.725,2.176
			C140.299,195.257,139.814,197.192,139.573,198.644z" class="color c1"/>
      <path fill="#FFFFFF" d="M58.781,83.743c0.482-3.387,1.209-5.08-0.968-2.178c0,0-0.968,0.727-3.388,1.451
			c-2.418,0.727-31.203,10.643-33.623,12.096c0,0-2.661-0.969-3.627,3.386C16.207,102.853,0.968,182.919,0,191.628
			c0,0,6.772,76.438,11.611,83.695c0.483,1.451,3.387,1.451,4.838,0.725c1.936-0.725,7.982-4.596,8.225-6.531
			c0,0,0.484-6.531,4.112-14.273c3.628-7.98,7.015-15.963,11.853-26.365s14.029-45.961,14.029-45.961s0.725-2.418,1.936-12.578
			c1.451-10.4,3.145-54.91,2.662-65.313C58.781,94.628,58.054,87.129,58.781,83.743z M33.382,207.593
			c-0.242,1.936-0.969,4.111-1.209,6.047c-0.726,3.871-0.242,7.74-0.968,11.611c0,0.484-0.483,0.969-0.726,0.727
			c0-3.873-0.242-7.742-0.242-11.854c0-2.178,0-4.111,0-6.289c0.242-2.66,0.968-5.563,0.968-8.225c0-3.387-0.968-6.773,0.242-9.676
			c0.967,4.354,1.451,8.707,1.935,13.303C33.382,204.448,33.382,205.899,33.382,207.593z" class="color c1"/>
      <path fill="#FFFFFF" d="M42.573,239.765c-0.242-0.484-0.242-0.727-0.483-1.209c-0.242-0.24-0.242-0.24-0.242-0.24
			s-0.241,0.24-0.241,0.484c0.241,1.934,0.967,3.627,2.176,5.078c0.968,0.969,2.177,2.178,3.628,2.178
			C45.235,244.36,43.783,242.185,42.573,239.765z" class="color c1"/>
      <path fill="#FFFFFF" d="M109.094,236.862c-0.24,0-0.24,0.24-0.24,0.484c-0.727,2.902-3.146,5.32-5.322,7.256
			c-0.482,0.242-0.967,0.725-0.967,1.451c-0.241,0.484,0.24,0.967,0.482,1.451c0.241,0.484,0.727,0.969,0.969,0.969
			c0.482,0.24,1.209,0,1.451-0.484c0-0.484-0.483-0.969-0.726-1.451c-0.483-0.969,0.241-1.936,0.967-2.902
			c1.209-1.209,2.421-2.662,3.63-3.871c0.482-0.242,0.967-0.727,1.209-1.209c0.24-0.484,0.24-1.209,0-1.693
			C110.305,236.378,109.336,236.378,109.094,236.862z" class="color c1"/>
      <path fill="#FFFFFF" d="M100.629,247.989c-0.484,0.242-0.968,0.727-1.451,0.969s-1.209,0.24-1.692,0.24
			c-3.629,0-7.257-1.209-10.886-1.209c-1.691,0-3.627,0.727-5.32,0.727c-1.693-0.242-3.387-0.727-5.08-0.969
			c-0.484,0-1.209,0-1.209,0.484s0.725,0.484,1.209,0.484c0.725,0.24,1.209,0.24,2.42,0c0.725,0.24,1.451,0.482,2.176,0.482
			c1.452,0,2.903,0.242,4.354,0.242c0.726,0,1.209,0,1.935,0c4.355,0.242,8.952,0.242,13.305,0c0.482,0,0.968-0.242,1.209-0.484
			c0.242-0.242,0.242-0.242,0.242-0.482C101.838,247.989,101.112,247.747,100.629,247.989z" class="color c1"/>
    </g>
    <g>
      <path fill="#005468" d="M13.062,272.661c0,0,2.177,2.662,2.419,1.936c0.242-0.725,1.935-3.385,6.772-6.287l-1.209-2.42
			C21.286,265.89,15.239,267.825,13.062,272.661z" class="color c2"/>
      <path fill="#005468" d="M151.428,270.97c-0.969-1.209-4.597-4.838-9.436-6.289c0,0-0.482-0.484-0.482,0
			c-0.242,0.242-0.242,2.42-0.242,2.42c0.242,0,5.805,3.627,7.982,5.563c0.241,0.242,0.725,0.242,0.969,0l1.209-1.209
			C151.67,271.212,151.67,270.97,151.428,270.97z" class="color c2"/>
    </g>
    <g>
      <path fill="#FFFFFF" d="M22.255,268.31c0.241,0-5.564,3.387-6.291,5.563c0,0,4.355,10.645,6.046,12.58
			c1.694,1.936,1.694,1.936,1.694,1.936s-0.483-13.064,0.968-18.869C24.673,269.519,22.496,268.55,22.255,268.31z" class="color c1"/>
      <path fill="#FFFFFF" d="M141.266,267.099c0.242,1.691-0.482,7.982-0.482,7.982s0.969,3.145,1.451,5.564
			c0.482,2.418,1.936,10.4,1.936,10.4s0.727-2.178,1.692-5.08c0.968-2.902,2.177-14.271,2.177-14.271
			C146.59,270.243,141.266,267.099,141.266,267.099z" class="color c1"/>
    </g>
  </g>
</svg>