<svg version="1.1" id="图层_1" x="0px" y="0px" width="180px" height="180.02px" viewBox="0 0 180 180.02" enable-background="new 0 0 180 180.02" xml:space="preserve" xmlns="http://www.w3.org/2000/svg" xmlns:xlink="http://www.w3.org/1999/xlink" xmlns:xml="http://www.w3.org/XML/1998/namespace">
  <path fill="#111011" d="M44.985,0v135.015c0,6.212-5.029,11.249-11.242,11.259c-3.109,0-5.63,2.523-5.63,5.633
	s2.521,5.631,5.63,5.631c12.432-0.012,22.503-10.092,22.503-22.522V11.26h112.513v129.375c-0.01,15.539-12.605,28.131-28.144,28.143
	H33.743c-12.424-0.012-22.491-10.078-22.502-22.504V61.888c0-3.105-2.517-5.622-5.619-5.622C2.517,56.266,0,58.782,0,61.888v84.386
	c0.022,18.631,15.117,33.725,33.743,33.746h106.872c21.752,0,39.385-17.633,39.385-39.385l0,0V0H44.985z M28.103,135.015
	c3.105,0,5.621-2.515,5.621-5.619V38.004c0.002-3.103-2.512-5.622-5.618-5.624c-3.103-0.001-5.621,2.515-5.622,5.618
	c0,0.002,0,0.004,0,0.006v91.411C22.493,132.51,25.006,135.015,28.103,135.015z M73.108,28.123v39.385h39.385V28.123H73.108z
	 M101.252,56.266H84.368V39.385h16.884V56.266z M123.755,33.763h28.121v11.262h-28.121V33.763z M123.755,56.266h28.121v11.263
	h-28.121V56.266z M73.108,78.767h78.749v11.263H73.108V78.767z M73.108,101.271h78.749v11.261H73.108V101.271z M73.108,123.772
	h45.004v11.263H73.108V123.772z" class="color c1"/>
</svg>