<svg version="1.1" id="图层_1" x="0px" y="0px" width="78.683px" height="78.695px" viewBox="0 0 78.683 78.695" enable-background="new 0 0 78.683 78.695" xml:space="preserve" xmlns="http://www.w3.org/2000/svg" xmlns:xlink="http://www.w3.org/1999/xlink" xmlns:xml="http://www.w3.org/XML/1998/namespace">
  <path fill="#FFFFFF" d="M18.172,69.48c-0.409,0.719-1.126,1.229-1.945,1.229c-0.308,0-0.716-0.102-1.023-0.205
	c-1.126-0.613-1.535-1.943-0.922-3.07c4.096-7.883,5.632-16.686,4.606-25.491c-0.613-4.812,0.615-9.726,3.175-13.82
	c0.717-1.023,2.047-1.331,3.07-0.614c1.023,0.716,1.331,2.047,0.614,3.071c-2.048,3.173-2.968,7.063-2.559,10.852
	C24.314,51.157,22.574,60.779,18.172,69.48z M29.433,59.039c-1.229-0.307-2.457,0.41-2.764,1.639
	c-1.023,3.992-2.56,7.883-4.505,11.568c-0.614,1.125-0.204,2.455,0.922,3.07c0.307,0.205,0.717,0.307,1.023,0.307
	c0.819,0,1.638-0.512,2.047-1.33c2.15-3.891,3.788-8.088,4.914-12.49C31.378,60.574,30.661,59.346,29.433,59.039z M41.615,39.281
	c-0.103-1.229-1.229-2.047-2.457-1.944c-1.229,0.102-2.048,1.228-1.945,2.456c1.434,12.285-0.716,24.467-6.143,35.422
	c-0.512,1.023-0.102,2.457,1.024,2.969c0.307,0.102,0.717,0.205,1.023,0.205c0.819,0,1.639-0.41,2.048-1.23
	C41.001,65.387,43.253,52.283,41.615,39.281z M13.975,42.557c-0.819-6.757,1.126-13.411,5.323-18.837
	c4.198-5.426,10.34-8.804,17.097-9.623c5.221-0.614,10.442,0.308,15.049,2.764c1.126,0.614,2.457,0.205,3.071-0.921
	s0.204-2.457-0.921-3.071c-5.427-2.866-11.467-3.992-17.609-3.275c-8.087,0.922-15.151,4.913-20.167,11.261
	c-5.017,6.347-7.166,14.229-6.245,22.112c0.717,5.835-0.103,11.875-2.354,17.301c-0.512,1.229,0.102,2.457,1.229,2.969
	c0.205,0.102,0.512,0.205,0.819,0.205c0.92,0,1.74-0.512,2.048-1.33C13.872,55.967,14.794,49.211,13.975,42.557z M36.906,18.806
	c-1.331,0.205-2.765,0.512-4.095,0.922c-1.229,0.409-1.843,1.638-1.434,2.866s1.638,1.843,2.866,1.433
	c1.127-0.307,2.15-0.614,3.276-0.716c8.906-1.127,16.994,5.323,18.12,14.229c0.103,1.126,1.126,2.047,2.252,2.047
	c1.229,0,2.253-1.023,2.253-2.251c0-0.103,0-0.205,0-0.308c-0.615-5.528-3.379-10.442-7.884-13.923
	C47.86,19.728,42.435,18.192,36.906,18.806z M34.858,0.277C13.258,2.835-2.2,22.492,0.257,44.093
	c0.204,1.126,1.126,1.944,2.251,1.944c0.104,0,0.205,0,0.308,0c1.229-0.103,2.048-1.228,1.945-2.456
	C2.508,24.437,16.227,7.034,35.473,4.781c9.214-1.126,18.324,1.536,25.696,7.269c7.371,5.836,11.978,14.025,13.104,23.342
	c0.103,1.228,1.228,2.047,2.456,1.945c1.229-0.103,2.049-1.229,1.945-2.56C76.115,13.176,56.46-2.283,34.858,0.277z M63.83,21.672
	c-0.717-1.023-2.149-1.229-3.174-0.512c-1.023,0.717-1.228,2.15-0.511,3.174c2.661,3.583,4.299,7.78,4.812,12.182
	c1.125,9.624,0.716,19.248-1.127,28.666c-0.306,1.229,0.512,2.457,1.741,2.662c0.102,0,0.307,0,0.408,0
	c1.128,0,2.048-0.82,2.253-1.844c1.944-9.93,2.354-19.962,1.331-29.996C68.948,30.785,66.901,25.87,63.83,21.672z M58.507,47.471
	c-1.331-0.103-2.354,0.921-2.354,2.149c-0.205,7.985-1.638,15.766-4.096,23.239c-0.409,1.229,0.205,2.457,1.434,2.867
	c0.206,0.102,0.513,0.102,0.717,0.102c0.922,0,1.843-0.613,2.15-1.535c2.662-7.883,4.095-16.072,4.299-24.467
	C60.759,48.495,59.735,47.471,58.507,47.471z M46.632,30.272c-2.457-1.842-5.427-2.764-8.497-2.354
	c-3.071,0.307-5.733,1.842-7.678,4.3c-1.843,2.457-2.765,5.426-2.355,8.497c0.308,2.661,0.41,5.426,0.308,8.087
	c-0.103,1.229,0.921,2.355,2.149,2.355c1.332,0.102,2.354-0.922,2.354-2.149c0.103-2.97-0.102-5.938-0.408-8.805
	c-0.513-3.788,2.252-7.371,6.142-7.781c3.788-0.511,7.371,2.253,7.78,6.143c1.536,12.593-0.308,25.389-5.323,36.958
	c-0.409,1.125,0.102,2.457,1.229,2.969c0.308,0.102,0.614,0.205,0.921,0.205c0.819,0,1.639-0.512,2.048-1.33
	c5.323-12.285,7.269-25.902,5.63-39.415C50.624,34.879,49.089,32.217,46.632,30.272z" class="color c1"/>
</svg>