<svg version="1.1" id="图层_1" x="0px" y="0px" width="116.111px" height="100px" viewBox="0 0 116.111 100" enable-background="new 0 0 116.111 100" xml:space="preserve" xmlns="http://www.w3.org/2000/svg" xmlns:xlink="http://www.w3.org/1999/xlink" xmlns:xml="http://www.w3.org/XML/1998/namespace">
  <path fill="#1381C0" d="M66.672,98.575c-1.898,1.897-4.982,1.899-6.882,0.006c-0.003-0.001-0.003-0.004-0.007-0.006l-2.789-2.791
	l1.658-1.658c2.604-2.604,2.604-6.843,0-9.444c-1.261-1.263-2.939-1.959-4.725-1.959c-0.192,0-0.383,0.012-0.571,0.026
	c0.565-0.992,0.868-2.119,0.868-3.295c0-0.071-0.003-0.142-0.005-0.211l12.475,12.475C68.567,93.616,68.56,96.686,66.672,98.575z
	 M40.611,10.542l-3.904,3.904c-0.013,0.012-0.023,0.023-0.029,0.03l-26.131,26.13c-0.737,0.737-1.72,1.142-2.771,1.142
	s-2.033-0.405-2.77-1.14l-3.862-3.864c-1.525-1.528-1.525-4.012,0-5.538L31.211,1.141C31.945,0.407,32.931,0,33.98,0
	c1.051,0,2.033,0.406,2.769,1.141l3.862,3.862C42.14,6.532,42.14,9.014,40.611,10.542z M92.604,75.5
	c-0.92,0.921-2.145,1.428-3.442,1.428c-1.301,0-2.523-0.507-3.444-1.428L66.919,56.702c-0.354-0.354-0.925-0.354-1.279,0
	c-0.354,0.354-0.354,0.926,0,1.28L84.437,76.78c0.004,0.002,0.005,0.002,0.005,0.005l2.648,2.648c1.9,1.9,1.9,4.988,0,6.892
	c-0.918,0.917-2.14,1.423-3.444,1.423c-1.299,0-2.522-0.506-3.442-1.423l-21.45-21.453c-0.354-0.354-0.928-0.354-1.279,0
	c-0.354,0.354-0.354,0.925,0,1.28l19.4,19.4c0.004,0.004,0.006,0.006,0.009,0.01c1.896,1.9,1.896,4.99,0,6.89
	c-1.899,1.897-4.99,1.897-6.891,0l-1.979-1.978c-0.02-0.022-0.041-0.043-0.062-0.067c-0.006-0.005-0.015-0.007-0.019-0.015
	L52.329,74.79c-0.019-0.021-0.037-0.041-0.059-0.06c-1.497-1.498-3.533-2.133-5.486-1.908c1.221-2.493,0.797-5.598-1.271-7.665
	c-1.74-1.74-4.21-2.318-6.433-1.732c0.145-0.551,0.223-1.125,0.223-1.713c0-1.782-0.695-3.462-1.954-4.726
	c-2.605-2.603-6.843-2.603-9.448,0l-4.829,4.832c-10.805-11.473-10.524-19.38-10.365-20.811L31.64,22.072l6.319-6.32
	c0.163-0.161,4.034-3.871,13.132-4.192c2.983-0.104,5.957-0.119,8.63-0.09c-5.31,2.403-9.014,6.389-9.363,6.772L31.113,37.487
	c-1.262,1.264-1.953,2.94-1.953,4.727c0,1.782,0.694,3.46,1.953,4.722c1.266,1.262,2.943,1.958,4.726,1.958c0.003,0,0.003,0,0.004,0
	c1.781,0,3.46-0.693,4.722-1.955c0.002-0.004,0.005-0.006,0.012-0.012L52.3,35.2c1.896-1.899,4.989-1.899,6.888,0l33.414,33.415
	C94.507,70.514,94.507,73.604,92.604,75.5z" class="color c1"/>
  <path fill="#37BCE4" d="M114.969,37.32l-3.863,3.864c-0.736,0.737-1.72,1.142-2.77,1.142c-1.051,0-2.033-0.405-2.771-1.142
	L79.383,15.003c-0.007-0.008-0.015-0.017-0.025-0.025l-3.857-3.86c-1.527-1.528-1.527-4.012-0.003-5.538l3.862-3.862
	c0.737-0.735,1.721-1.141,2.771-1.141c1.051,0,2.034,0.405,2.771,1.141l30.068,30.067C116.493,33.311,116.493,35.796,114.969,37.32z
	 M57.375,92.848l-2.301,2.299l-2.303,2.303c-0.916,0.92-2.142,1.426-3.44,1.426c-0.648,0-1.279-0.126-1.864-0.367
	c-0.583-0.242-1.118-0.6-1.579-1.059c-0.916-0.922-1.425-2.145-1.425-3.443c0-1.302,0.507-2.525,1.425-3.443l2.302-2.301
	l2.302-2.301c0.921-0.922,2.141-1.428,3.44-1.428c0.651,0,1.282,0.126,1.864,0.371c0.584,0.24,1.118,0.598,1.579,1.058
	C59.272,87.857,59.272,90.948,57.375,92.848z M52.417,79.452c0,1.299-0.505,2.521-1.425,3.442l-2.201,2.201l-1.886,1.883
	l-2.301,2.304c-1.896,1.897-4.985,1.897-6.885,0c-0.92-0.923-1.428-2.146-1.428-3.445c0-1.299,0.507-2.522,1.428-3.444l2.301-2.301
	l4.083-4.085c1.897-1.896,4.98-1.896,6.878-0.008c0.005,0.005,0.009,0.008,0.011,0.01l0.024,0.028
	C51.921,76.954,52.417,78.163,52.417,79.452z M44.234,73.32l-2.301,2.302l-5.491,5.492c-1.897,1.897-4.987,1.897-6.886,0
	s-1.898-4.988,0-6.886l5.489-5.492h0.003l1.465-1.469l0.836-0.832c0-0.002,0-0.002,0-0.002c1.896-1.898,4.986-1.895,6.885,0.002
	C46.132,68.335,46.132,71.423,44.234,73.32z M37.493,61.711c0,1.303-0.509,2.521-1.426,3.441c0,0,0,0-0.003,0.003l-0.953,0.954
	l-6.84,6.839c-1.897,1.897-4.987,1.897-6.886,0c-0.918-0.921-1.426-2.144-1.426-3.444c0-1.3,0.508-2.523,1.426-3.441l2.291-2.293
	c0.001-0.004,0.007-0.004,0.01-0.004c0.001-0.007,0.005-0.009,0.007-0.013l5.484-5.485c0.948-0.949,2.197-1.423,3.444-1.423
	s2.494,0.474,3.443,1.423C36.986,59.188,37.493,60.411,37.493,61.711z M90.46,63.909L60.472,33.918
	c-2.604-2.603-6.844-2.603-9.448,0L39.284,45.655c-0.004,0.003-0.004,0.008-0.006,0.011c-0.921,0.913-2.139,1.417-3.435,1.417
	c-0.002,0-0.002,0-0.002,0c-1.3,0-2.523-0.507-3.446-1.428c-0.919-0.919-1.425-2.145-1.425-3.444s0.506-2.522,1.427-3.443
	l19.26-19.261c0.012-0.009,0.022-0.021,0.031-0.033c0.065-0.073,6.252-6.842,13.903-7.872c2.462,0.084,4.246,0.185,4.833,0.218
	l0.111,0.005c2.685,0.631,5.212,2.109,7.542,4.431l25.668,25.67C103.9,42.71,104.355,48.568,90.46,63.909z" class="color c2"/>
</svg>