<svg version="1.1" id="图层_1" x="0px" y="0px" width="173.975px" height="72.969px" viewBox="0 0 173.975 72.969" enable-background="new 0 0 173.975 72.969" xml:space="preserve" xmlns="http://www.w3.org/2000/svg" xmlns:xlink="http://www.w3.org/1999/xlink" xmlns:xml="http://www.w3.org/XML/1998/namespace">
  <path fill="#F09C22" d="M150.111,19.385L160.91,8.529C154.304,2.996,146.072-0.022,137.392,0
	c-8.719,0.044-16.948,3.122-23.502,8.714l10.836,10.779c3.643-2.748,8.059-4.269,12.707-4.281
	C142.064,15.201,146.458,16.671,150.111,19.385z M154.438,23.654c2.789,3.652,4.329,8.095,4.321,12.774
	c0.015,4.645-1.479,9.063-4.215,12.729l10.838,10.781c5.55-6.584,8.595-14.84,8.591-23.549c-0.023-8.748-3.124-17.004-8.746-23.581
	L154.438,23.654z M124.738,53.512l-10.795,10.854c6.432,5.429,14.711,8.604,23.643,8.604c8.714-0.044,16.958-3.134,23.514-8.724
	l-10.837-10.779c-3.647,2.752-8.052,4.262-12.718,4.29C132.78,57.758,128.335,56.202,124.738,53.512z M15.273,67.922
	c0.001,0.814,0.325,1.611,0.885,2.168c0.582,0.578,1.356,0.877,2.174,0.874l12.14-0.011c1.61-0.023,3.025-1.447,3.043-3.061
	l-0.009-3.05l6.061-0.016l0.007,3.051c0.002,0.817,0.327,1.567,0.909,2.146c0.56,0.557,1.334,0.899,2.149,0.896l12.143-0.054
	c0.857-0.001,1.607-0.325,2.166-0.888c0.537-0.539,0.877-1.312,0.854-2.148l-0.03-12.145l-42.511,0.111L15.273,67.922z
	 M12.107,25.386c-3.201,0.03-6.335,1.328-8.584,3.589C1.23,31.281-0.007,34.335,0,37.602c0.04,6.681,5.49,12.103,12.194,12.129
	l91.245-0.244c1.503,3.926,3.586,7.504,6.197,10.59L120.455,49.2c-1.407-1.892-2.538-4.029-3.273-6.388
	c-0.651-2.02-0.956-4.125-0.964-6.271c-0.004-1.805,0.205-3.61,0.674-5.33l0.234-0.84c0.694-2.374,1.836-4.585,3.315-6.568
	l-10.805-10.747c-3.01,3.576-5.306,7.685-6.767,12.13L12.107,25.386z" class="color c1"/>
</svg>