<svg version="1.1" id="图层_1" x="0px" y="0px" width="128.668px" height="164.09px" viewBox="0 0 128.668 164.09" enable-background="new 0 0 128.668 164.09" xml:space="preserve" xmlns="http://www.w3.org/2000/svg" xmlns:xlink="http://www.w3.org/1999/xlink" xmlns:xml="http://www.w3.org/XML/1998/namespace">
  <path fill="#302E2A" d="M77.233,47.657h-0.048l0.181,14.491L77.233,47.657z M46.189,47.784l1.046,77.388l8.542-0.034l-0.961-77.389
	L46.189,47.784z M77.665,86.317l-0.299-24.169l0.219,24.168L77.665,86.317z M77.584,86.316l-0.219-24.168l-0.181-14.491L68.5,47.694
	l0.955,77.389l8.688-0.035l-0.479-38.73L77.584,86.316z M81.965,86.317l0.48,38.711l8.686-0.033L90.652,86.32L81.965,86.317z
	 M124.967,47.463l-12.777,0.052l0.961,77.389l12.862-0.052L124.967,47.463z M59.637,47.729l0.96,77.389l4.21-0.017l-0.958-77.389
	L59.637,47.729z M98.426,47.572l-0.008-0.485l-4.211,0.052l0.203,16.263l-0.146-15.815L98.426,47.572z M94.265,47.587l0.146,15.815
	l0.762,61.576l4.209-0.017l-0.955-77.389L94.265,47.587z M103.071,47.552l0.961,77.389l4.213-0.019l-0.959-77.386L103.071,47.552z" class="color c1"/>
  <path fill="#8DC5CE" d="M42.761,146.888l85.909-0.181l-0.035-16.713l-86.061,0.178L41.208,8.992L3.918,0L0,16.249l24.643,5.942
	l1.216,107.954c-0.067,0-0.134-0.004-0.2-0.004c-9.375,0.072-16.917,7.73-16.843,17.105c0.072,9.375,7.731,16.918,17.105,16.844
	c9.374-0.072,16.916-7.731,16.843-17.104C42.764,146.95,42.761,146.92,42.761,146.888L42.761,146.888z" class="color c2"/>
</svg>