<svg version="1.1" id="图层_1" x="0px" y="0px" width="265.755px" height="211.161px" viewBox="0 0 265.755 211.161" enable-background="new 0 0 265.755 211.161" xml:space="preserve" xmlns="http://www.w3.org/2000/svg" xmlns:xlink="http://www.w3.org/1999/xlink" xmlns:xml="http://www.w3.org/XML/1998/namespace">
  <path fill="#F09D00" d="M258.92,149.44c-9.36-18.73-27.22-35.31-45.56-48.6L202.52,44.9c-1.45-7.46-8.62-12.29-15.94-10.73
	l-5.84,1.24c-1.01-10.6-6.3-20.39-14.69-27c-8.71-6.88-19.99-9.74-30.92-7.83c-15.67,2.72-28.03,14.51-31.48,30.04l-4.92,22.16
	C54.46,46.19,17.01,52.81,0,71.25c17.34-11.26,45.26-15.6,77.8-12.42c2.1,0.2,4.19,0.44,6.28,0.71c-0.85,1.17-1.52,2.48-1.97,3.9
	l-30.96,97.97c16.45,11.11,36.01,21.12,57.72,29.04c15.06,5.49,29.13,10.19,42.24,13.91c14.75,4.2,30,6.3,45.34,6.51l21.77,0.29
	c8.53,0.11,15-7.78,13.36-16.29l-15.14-78.14c12.8,8.36,24.12,18.87,33.11,31.27c17.08,23.57,14.05,36.83,12.58,40.58
	C271.86,167.58,258.92,149.44,258.92,149.44z M178.42,97.12c0,5.19-4.2,9.39-9.39,9.39s-9.39-4.2-9.39-9.39s4.2-9.39,9.39-9.39
	S178.42,91.93,178.42,97.12z M111.51,32.37c2.74-12.33,12.55-21.7,25-23.86c8.68-1.51,17.63,0.75,24.55,6.21
	c6.91,5.45,11.19,13.6,11.75,22.38l-65.44,13.93L111.51,32.37z M112.68,90.41c5.18,0,9.39,4.2,9.39,9.39s-4.21,9.39-9.39,9.39
	c-5.19,0-9.39-4.2-9.39-9.39S107.49,90.41,112.68,90.41z M183.96,132.55c-12.92,9.53-31.43,19.56-52.13,19.56
	c-3.86,0-7.79-0.35-11.79-1.12c-12.66-2.43-20.9-8.08-23.77-10.31c-0.62-0.48-0.7-1.38-0.18-1.96l0.01-0.01
	c0.47-0.51,1.25-0.59,1.81-0.17c2.65,2.04,10.68,7.55,22.79,9.85c13.59,2.57,35.26,1.5,61.66-17.99c0.59-0.44,1.42-0.33,1.87,0.26
	c0.18,0.24,0.27,0.53,0.27,0.81C184.5,131.89,184.32,132.29,183.96,132.55z" class="color c1"/>
  <path fill="#F09D00" d="M262.128,188.576c-0.173,0.373-0.336,0.744-0.523,1.118C261.605,189.695,261.837,189.319,262.128,188.576z" class="color c1"/>
</svg>