<svg version="1.1" id="图层_1" x="0px" y="0px" width="98px" height="135.964px" viewBox="0 0 98 135.964" enable-background="new 0 0 98 135.964" xml:space="preserve" xmlns="http://www.w3.org/2000/svg" xmlns:xlink="http://www.w3.org/1999/xlink" xmlns:xml="http://www.w3.org/XML/1998/namespace">
  <path fill="#E91734" d="M77,31V14.54C77,6.433,71.41,0,63.32,0H34.16C26.062,0,21,6.433,21,14.54V31H0v82.962
	C0,119.484,4.413,124,9.936,124H45.11l25.38,11.457c0.05,0.021,0.099,0.037,0.148,0.058l0.053,0.021l-0.002-0.009
	c0.693,0.281,1.451,0.438,2.246,0.438c2.961,0,5.416-2.148,5.905-4.969c-0.442,1.162-1.274,2.176-2.429,2.807
	c-1.311,0.718-2.904,0.914-4.129,0.568c-1.438-0.408-2.504-1.356-3.246-2.652l-15.461-23.37c-0.893-1.55-2.989-1.933-4.269-0.56
	l-9.878,9.146c-1.534,1.51-4.344,0.491-4.593-1.75l-7.278-57.969c-0.196-2.437,2.422-3.867,4.446-2.434L78.82,90.988
	c1.82,1.389,1.244,4.244-0.891,4.727l-13.138,3.457c-1.662,0.392-2.427,2.352-1.744,3.854L76.912,124h11.023
	C93.459,124,98,119.484,98,113.962V31H77z M30,31V14.54C30,11.837,31.462,9,34.16,9h29.16C66.014,9,68,11.837,68,14.54V31H30z" class="color c1"/>
</svg>