<svg version="1.1" id="图层_1" x="0px" y="0px" width="208.021px" height="229.072px" viewBox="0 0 208.021 229.072" enable-background="new 0 0 208.021 229.072" xml:space="preserve" xmlns="http://www.w3.org/2000/svg" xmlns:xlink="http://www.w3.org/1999/xlink" xmlns:xml="http://www.w3.org/XML/1998/namespace">
  <path fill="#0071BC" d="M200.626,140.629c1.001-0.759,1.942-1.608,2.791-2.549c3.429-3.823,5.067-8.951,4.49-14.048l-8.799-79.129
	c-1.001-9.163-8.738-16.081-17.961-16.081h-7.767V18.204C173.38,8.166,165.214,0,155.175,0s-18.204,8.166-18.204,18.204v10.619
	h-10.832c-9.193,0-16.93,6.918-17.931,16.081l-0.728,6.675H27.138c-10.559,0-19.358,8.253-20.086,18.781L0.043,175.764
	c-0.364,5.522,1.578,11.014,5.37,15.079c3.793,4.035,9.163,6.371,14.685,6.371h58.467v22.756H35.33v9.102h145.635v-9.102h-52.338
	v-22.756h55.038c5.643,0,11.044-2.397,14.867-6.523c3.793-4.157,5.673-9.77,5.188-15.383L200.626,140.629z M140.005,18.204
	c0-8.364,6.806-15.17,15.17-15.17c8.364,0,15.17,6.806,15.17,15.17v10.619h-30.341V18.204z M124.076,219.97h-40.96v-22.756h40.96
	V219.97z M191.797,184.532c-2.094,2.306-5.007,3.58-8.131,3.58H20.099c-3.064,0-5.916-1.244-8.04-3.489
	c-2.094-2.245-3.156-5.188-2.943-8.253l7.039-105.404c0.364-5.765,5.219-10.286,10.984-10.286h79.31l-7.039,63.351
	c-0.577,5.097,1.062,10.225,4.49,14.048c3.429,3.853,8.344,6.038,13.471,6.038h6.887c3.58,0,6.978-1.699,9.133-4.551l1.122-1.517
	l10.801-14.412h-10.68c-0.516,0-0.728-0.698-0.273-0.971l22.391-14.017c0.698-0.425,1.578,0.121,1.487,0.91l-2.943,26.639
	l-5.158-10.255l-8.071,12.106l-4.035,6.068l-8.253,12.379l3.762,2.549l9.952-14.928l4.066-6.068l2.033-3.064l1.517,3.064
	l3.034,6.068l3.944,7.919l0.88-7.919l0.334-3.034l0.364-3.034h-0.03l4.187-37.349c0.091-0.789-0.789-1.335-1.487-0.91
	l-43.873,27.428c-0.455,0.273-0.243,0.971,0.273,0.971h17.476l-3.975,5.31c-2.154,2.852-5.552,4.551-9.133,4.551h-5.37
	c-2.033,0-4.096-0.364-5.886-1.335c-4.551-2.397-6.948-7.191-6.402-12.015l7.1-64.019l1.001-9.102l0.667-6.007
	c0.698-6.099,5.825-10.68,11.954-10.68h10.801v12.136h3.034V34.892h30.341v12.136h3.034V34.892h7.767
	c6.129,0,11.256,4.581,11.954,10.68l8.769,79.128c0.334,2.822-0.364,5.644-1.942,7.98c-0.303,0.486-0.637,0.941-1.032,1.365
	c-1.972,2.215-4.733,3.611-7.646,3.944c-0.425,0.03-0.88,0.061-1.305,0.061h-24.151l-3.034,6.068h27.185
	c0.607,0,1.244-0.03,1.851-0.091l2.852,32.101C194.922,179.253,193.921,182.226,191.797,184.532z" class="color c1"/>
</svg>