<svg version="1.1" id="图层_1" x="0px" y="0px" width="126.063px" height="139.634px" viewBox="0 0 126.063 139.634" enable-background="new 0 0 126.063 139.634" xml:space="preserve" xmlns="http://www.w3.org/2000/svg" xmlns:xlink="http://www.w3.org/1999/xlink" xmlns:xml="http://www.w3.org/XML/1998/namespace">
  <path fill="#0D7FD2" d="M125.324,78.797l-13.328-27.489l-1.369-13.137c-0.906-10.258-6.25-19.249-15.043-25.313
	C84.854,5.408,73.758,1.194,62.637,0.34c-15.916-1.451-29.5,1.745-40.158,9.442C-2.463,27.975-5.688,65.831,8.061,87.477
	c0.92,1.533,2.111,3.023,3.285,4.49c5.873,7.209,9.109,16.847,9.109,27.139v15.526c0,2.618,2.383,5.002,5,5.002h55.053
	c2.758,0,5.002-2.244,5.002-5.002v-14.207c1.816,0.343,3.527,0.512,5.18,0.512c4.053,0,7.736-1.025,10.949-3.046
	c1.859-0.988,7.102-5.073,8.92-12.046c0.898-3.291,1.193-6.779,1.486-12.892l0.002-4.555l10.137-2.171l0.232-0.064
	c1.666-0.556,2.887-1.676,3.354-3.071C126.402,81.19,125.9,79.727,125.324,78.797z M121.654,81.676
	c-0.039,0.058-0.213,0.203-0.523,0.322l-13.441,2.88v7.92c-0.273,5.756-0.545,9.011-1.34,11.924c-1.473,5.646-5.951,8.92-6.771,9.33
	l-0.195,0.11c-2.521,1.604-5.445,2.418-8.693,2.418c-2.072,0-4.295-0.324-6.797-0.991l-2.74-0.729v19.772
	c0,0.202-0.162,0.646-0.645,0.646H25.457c-0.225-0.012-0.635-0.423-0.646-0.646v-15.526c0-11.291-3.584-21.907-10.084-29.885
	c-1.111-1.39-2.162-2.702-2.959-4.032c-12.744-20.065-9.775-55.072,13.27-71.882c8.227-5.94,18.412-8.953,30.275-8.953
	c2.24,0,4.572,0.109,6.959,0.326c10.369,0.797,20.742,4.753,30.834,11.76c7.711,5.318,12.393,13.172,13.186,22.148l1.451,13.932
	l13.719,28.293l0.146,0.259C121.697,81.207,121.77,81.314,121.654,81.676z" class="color c1"/>
  <path fill="#0D7FD2" d="M96.84,51.989l-0.982-9.44c-0.674-7.64-4.652-14.333-11.193-18.843c-7.893-5.48-16.061-8.579-24.244-9.207
	c-11.725-1.069-21.734,1.292-29.607,6.978C12.42,34.893,10.037,62.811,20.168,78.761c0.693,1.156,1.574,2.257,2.438,3.335
	l0.145,0.179c4.211,5.164,9.979,12.238,9.979,19.183v18.965c0,2.215,2.016,4.231,4.229,4.231h32.775c2.332,0,4.23-1.898,4.23-4.231
	v-17.368c1.385,0.189,3.053,0.327,4.834,0.327c0.002,0,0.002,0,0.002,0c2.994,0,7.188-0.399,10.229-2.295
	c1.441-0.778,5.395-3.883,6.762-9.117c0.666-2.445,0.887-5.013,1.1-9.503l0.002-2.858l6.902-1.479l0.232-0.063
	c1.391-0.465,2.418-1.416,2.813-2.606c0.531-1.583,0.119-2.812-0.363-3.602L96.84,51.989z M69.732,122.476v-2.179l0,0V122.476z
	 M92.535,76.085v6.226c-0.197,4.135-0.391,6.468-0.955,8.535c-1.117,4.275-4.588,6.391-4.617,6.406l-0.193,0.109
	c-1.688,1.073-4.518,1.664-7.971,1.664h-0.002c-2.639,0-5.143-0.353-6.451-0.701l-2.738-0.729v22.701H37.09
	c-0.002-0.002-0.004-0.004-0.006-0.007v-18.833c0-8.494-6.334-16.264-10.957-21.936l-0.133-0.162
	c-0.762-0.951-1.549-1.935-2.119-2.886c-9.127-14.371-7-39.439,9.496-51.473c5.879-4.245,13.168-6.397,21.664-6.397
	c1.613,0,3.291,0.077,5.02,0.234c7.434,0.571,14.877,3.412,22.131,8.448c5.461,3.765,8.775,9.321,9.336,15.679l1.064,10.236
	l9.922,20.462l0.127,0.259L92.535,76.085z" class="color c1"/>
</svg>