<svg version="1.1" id="图层_1" x="0px" y="0px" width="32.814px" height="32.814px" viewBox="0 0 32.814 32.814" enable-background="new 0 0 32.814 32.814" xml:space="preserve" xmlns="http://www.w3.org/2000/svg" xmlns:xlink="http://www.w3.org/1999/xlink" xmlns:xml="http://www.w3.org/XML/1998/namespace">
  <path fill="#EE8726" d="M30.314,12.621H20.193V2.5c0-1.381-1.119-2.5-2.5-2.5h-1.31c-1.381,0-2.5,1.119-2.5,2.5v10.121H2.5
	c-1.381,0-2.5,1.119-2.5,2.5v1.31c0,1.381,1.119,2.5,2.5,2.5h11.383v11.383c0,1.381,1.119,2.5,2.5,2.5h1.31
	c1.381,0,2.5-1.119,2.5-2.5V18.931h10.121c1.381,0,2.5-1.119,2.5-2.5v-1.31C32.814,13.74,31.695,12.621,30.314,12.621z" class="color c1"/>
</svg>