<svg version="1.1" id="图层_1" x="0px" y="0px" width="125.104px" height="105.242px" viewBox="0 0 125.104 105.242" enable-background="new 0 0 125.104 105.242" xml:space="preserve" xmlns="http://www.w3.org/2000/svg" xmlns:xlink="http://www.w3.org/1999/xlink" xmlns:xml="http://www.w3.org/XML/1998/namespace">
  <path fill="#F87B01" d="M60.048,68.7c0.257-0.074,0.457-0.119,0.663-0.154l0.16-0.026c0.242-0.031,0.487-0.059,0.712-0.051
	c0.084,0,0.152,0.004,0.223,0.008c0.13,0.006,0.191,0.01,0.256,0.015c0.097,0.011,0.18,0.024,0.264,0.036l0.255,0.041
	c0.079,0.017,0.148,0.035,0.219,0.054l0.125,0.032c0.061,0.015,0.119,0.029,0.181,0.05c0.153,0.047,0.326,0.108,0.496,0.185
	c0.235,0.09,0.519,0.178,0.802,0.254l0.257,0.061c0.199,0.046,0.405,0.087,0.612,0.121l0.272,0.037
	c0.219,0.024,0.441,0.041,0.663,0.048l0.263,0.011c0.251,0,0.501-0.015,0.75-0.038l0.17-0.021c0.27-0.031,0.542-0.075,0.812-0.139
	c0.326-0.08,0.576-0.156,0.822-0.244l0.145-0.051c0.257-0.097,0.507-0.208,0.753-0.332l0.136-0.072
	c0.268-0.144,0.519-0.287,0.759-0.453c5.242-3.586,7.267-10.594,4.831-16.686c-0.069-0.126-0.148-0.245-0.229-0.36l-0.082-0.111
	c-0.077-0.104-0.159-0.201-0.246-0.294c-0.16-0.172-0.271-0.271-0.387-0.363l-0.096-0.074c-0.095-0.073-0.193-0.141-0.295-0.202
	c-0.214-0.13-0.346-0.197-0.479-0.255c-0.196-0.079-0.313-0.12-0.429-0.153l-0.115-0.033c-0.141-0.037-0.281-0.069-0.426-0.089
	c-0.182-0.021-0.317-0.029-0.451-0.031l-0.521,0.028c-0.061,0.007-0.139,0.021-0.216,0.035l-0.153,0.03
	c-0.065,0.015-0.131,0.036-0.196,0.056l-0.134,0.038c-0.141,0.048-0.266,0.097-0.388,0.152c-2.726,1.213-5.526,2.458-8.311,3.539
	c-0.745,0.38-1.563,0.38-2.22,0.38c-0.381-0.021-0.688-0.074-1.016-0.156c-2.329-0.606-3.892-2.82-3.717-5.267l0.376-10.78
	c-2.578,1.008-5.235,2.188-7.81,3.332c-1.23,0.567-2.496,0.846-3.803,0.846c-3.354,0-6.424-1.853-8.015-4.833L36.1,36.411
	c-3.401-8.401-0.572-18.124,6.728-23.117c3.531-2.431,8.147-2.949,12.193-1.374l0.102,0.04l1.732-1.499l0.36-10.377
	c0-0.027-0.001-0.056-0.003-0.084H43.834C19.664,0,0,19.663,0,43.831c0,24.171,19.664,43.836,43.834,43.836h13.118L56.3,74.193
	c-0.001-0.738-0.001-1.678,0.418-2.516c0.07-0.169,0.184-0.379,0.305-0.583l0.095-0.151c0.121-0.19,0.256-0.381,0.403-0.56
	l0.051-0.059c0.137-0.158,0.283-0.304,0.436-0.445l0.224-0.188c0.128-0.106,0.279-0.229,0.441-0.338
	c0.208-0.137,0.399-0.242,0.596-0.34l0.145-0.068C59.618,68.852,59.83,68.768,60.048,68.7z" class="color c1"/>
  <path fill="#F87B01" d="M45.843,35.864c2.784-1.237,5.568-2.473,8.318-3.542c0.745-0.379,1.563-0.379,2.22-0.379
	c0.387,0.022,0.696,0.073,1.02,0.158c2.325,0.604,3.888,2.817,3.713,5.263l-0.376,10.781c2.587-1.011,5.254-2.197,7.835-3.344
	c1.204-0.555,2.47-0.834,3.777-0.834c3.354,0,6.424,1.853,8.013,4.834l0.188,0.397c1.048,2.587,1.522,5.306,1.42,8.089
	c-0.186,6.13-3.229,11.801-8.144,15.165c-3.538,2.431-8.134,2.952-12.194,1.372l-0.013-0.006c-0.001,0.084,0,0.171,0,0.246
	l1.615,31.177L93.874,87.6c23.069-11.824,31.229-23.271,31.229-43.771c0-21.71-16.205-40.365-37.694-43.392
	C85.342,0.148,83.276,0,81.269,0H62.313L61.35,11.298c0.003,2.024-1.794,3.623-2.319,4.046c-0.135,0.152-0.258,0.274-0.385,0.393
	l-0.228,0.19c-0.126,0.106-0.277,0.229-0.439,0.337l-0.112,0.067c-0.103,0.072-0.291,0.177-0.487,0.273l-0.158,0.076
	c-0.186,0.084-0.394,0.168-0.607,0.235c-0.268,0.076-0.469,0.121-0.672,0.156l-0.164,0.026c-0.188,0.026-0.375,0.043-0.564,0.048
	l-0.137,0.004c-0.088,0-0.176-0.005-0.264-0.011c-0.101-0.005-0.171-0.008-0.242-0.015c-0.065-0.007-0.152-0.021-0.238-0.034
	l-0.243-0.037c-0.114-0.024-0.207-0.048-0.299-0.073l-0.205-0.053c-0.192-0.061-0.358-0.12-0.524-0.191
	c-0.246-0.097-0.525-0.183-0.807-0.258l-0.172-0.041c-0.288-0.067-0.494-0.106-0.701-0.14l-0.273-0.039
	c-0.22-0.026-0.445-0.042-0.671-0.05l-0.116-0.006L50.183,16.2c-0.25,0-0.499,0.015-0.747,0.039l-0.189,0.02
	c-0.248,0.031-0.52,0.073-0.789,0.137l-0.125,0.03c-0.204,0.051-0.457,0.128-0.706,0.216l-0.142,0.05
	c-0.257,0.098-0.509,0.21-0.756,0.334l-0.125,0.065c-0.276,0.147-0.524,0.291-0.765,0.456c-5.243,3.588-7.27,10.597-4.834,16.688
	c0.072,0.128,0.151,0.248,0.233,0.366l0.073,0.098c0.083,0.112,0.167,0.212,0.256,0.309c0.158,0.166,0.269,0.266,0.382,0.357
	l0.091,0.067c0.1,0.076,0.196,0.146,0.297,0.206l0.093,0.058c0.129,0.075,0.262,0.143,0.396,0.201l0.116,0.046
	c0.075,0.029,0.189,0.069,0.307,0.104l0.114,0.033c0.142,0.037,0.284,0.068,0.429,0.088c0.183,0.022,0.316,0.03,0.45,0.032h0.159
	c0.051-0.001,0.127-0.007,0.201-0.013l0.163-0.016c0.064-0.008,0.141-0.021,0.215-0.035l0.144-0.028
	c0.078-0.018,0.155-0.041,0.233-0.065l0.127-0.037C45.605,35.965,45.726,35.919,45.843,35.864z" class="color c1"/>
</svg>