<svg version="1.1" id="图层_1" x="0px" y="0px" width="39.141px" height="127.162px" viewBox="0 0 39.141 127.162" enable-background="new 0 0 39.141 127.162" xml:space="preserve" xmlns="http://www.w3.org/2000/svg" xmlns:xlink="http://www.w3.org/1999/xlink" xmlns:xml="http://www.w3.org/XML/1998/namespace">
  <path fill="#FFFFFF" d="M35.515,3.142c-0.661-0.347-1.451-0.279-2.057,0.157L19.716,13.473L5.891,3.043
	c-0.604-0.448-1.396-0.53-2.07-0.199c-0.19,0.092-0.365,0.216-0.51,0.358C2.939,3.567,2.719,4.076,2.716,4.604L2.641,30.414
	c-0.008,0.627,0.383,1.218,0.877,1.594l9.963,7.373l-0.547,58.693c-0.026,2.915,2.315,5.302,5.231,5.329
	c2.917,0.027,5.302-2.314,5.33-5.23l0.546-58.679l10.69-7.188c0.072-0.055,0.566-0.117,0.63-0.179
	c0.375-0.368,0.801-0.869,0.806-1.397L36.5,4.923C36.511,4.167,36.19,3.479,35.515,3.142z" class="color c1"/>
  <path fill="#1C1A1B" d="M36.738,0.8c-1.55-0.809-3.398-0.672-4.851,0.376l-12.157,9L7.464,0.921C6.058-0.118,4.217-0.29,2.672,0.467
	c-1.549,0.747-2.587,2.4-2.596,4.13L0.001,30.379c-0.02,1.411,0.699,2.805,1.946,3.75l8.882,6.572l-0.535,57.346
	c-0.018,2.114,0.787,4.111,2.269,5.621c0.842,0.857,1.847,1.49,2.943,1.889l-0.176,18.939c-0.014,1.459,1.157,2.649,2.615,2.664
	c1.458,0.014,2.649-1.158,2.665-2.615l0.175-18.938c1.104-0.378,2.121-0.993,2.979-1.834c1.509-1.481,2.354-3.463,2.372-5.578
	l0.532-57.29l9.16-6.16c0.392-0.098,0.913-0.28,1.392-0.749c0.388-0.381,1.569-1.541,1.585-3.236l0.335-25.797
	C39.17,3.155,38.235,1.553,36.738,0.8z M33.535,29.949c-0.097,0.047-0.194,0.106-0.293,0.173l-11.828,7.955l-0.561,60.07
	c-0.015,1.412-1.254,2.627-2.665,2.615c-0.704-0.006-1.364-0.287-1.858-0.791s-0.762-1.168-0.757-1.873l0.561-60.039L5.281,30.03
	L5.353,5.943l14.349,10.825L33.842,6.3L33.535,29.949z" class="color c2"/>
</svg>