<svg version="1.1" id="图层_1" x="0px" y="0px" width="60px" height="60px" viewBox="0 0 60 60" enable-background="new 0 0 60 60" xml:space="preserve" xmlns="http://www.w3.org/2000/svg" xmlns:xlink="http://www.w3.org/1999/xlink" xmlns:xml="http://www.w3.org/XML/1998/namespace">
  <path fill="#FFFFFF" d="M47.549,43.576L60,40.5L26.852,26.851L40.5,60l3.15-12.45l9.301,9.302c0.521,0.521,1.348,0.521,1.795,0
	l2.105-2.104c0.522-0.523,0.522-1.348,0-1.796L47.549,43.576z M32.473,44.85c-1.723,3.6-3.823,5.699-5.622,5.699
	c-1.878,0-4.052-2.247-5.777-6.002c-0.824-1.721-1.501-3.674-1.949-5.848c2.476,0.375,5.099,0.523,7.8,0.523
	c1.125,0,2.252,0,3.3-0.074l-1.277-3.15c-0.674,0-1.347,0-2.023,0c-2.921,0-5.777-0.225-8.474-0.675
	c-0.453-2.698-0.673-5.548-0.673-8.473c0-2.926,0.22-5.774,0.673-8.476c2.696-0.451,5.553-0.674,8.474-0.674
	c2.924,0,5.777,0.223,8.478,0.674c0.447,2.701,0.673,5.55,0.673,8.476c0,0.675,0,1.351,0,1.949l3.147,1.276
	c0.078-1.052,0.078-2.177,0.078-3.302c0-2.701-0.15-5.326-0.525-7.799c2.101,0.524,4.052,1.198,5.851,1.949
	c3.75,1.726,6,3.899,6,5.774c0,1.874-2.101,3.976-5.625,5.627l7.424,2.996c0.902-2.697,1.425-5.621,1.425-8.697
	C53.702,12,41.702,0,26.852,0C12.001,0,0,12,0,26.851s12.001,26.852,26.852,26.852c3.075,0,5.998-0.531,8.698-1.428L32.473,44.85z
	 M43.577,10.125c2.848,2.851,4.871,6.3,5.998,10.125c-2.775-2.026-6.748-3.601-11.472-4.649c-0.979-4.726-2.629-8.701-4.651-11.476
	C37.202,5.251,40.646,7.274,43.577,10.125z M26.852,3.226c1.877,0,4.044,2.25,5.776,6c0.824,1.726,1.498,3.675,1.949,5.849
	c-2.476-0.375-5.098-0.522-7.798-0.522c-2.701,0-5.329,0.147-7.8,0.522c0.521-2.099,1.198-4.049,1.949-5.849
	C22.727,5.476,24.9,3.226,26.852,3.226z M10.125,10.125c2.852-2.851,6.299-4.874,10.125-6c-2.023,2.774-3.598,6.75-4.651,11.476
	c-4.723,0.973-8.696,2.623-11.471,4.649C5.254,16.5,7.277,13.049,10.125,10.125z M9.229,21.076c1.721-0.826,3.671-1.502,5.849-1.951
	c-0.375,2.476-0.525,5.101-0.525,7.799c0,2.701,0.15,5.326,0.525,7.801c-2.101-0.524-4.05-1.199-5.849-1.949
	C5.474,31.05,3.227,28.873,3.227,27C3.227,25.125,5.474,22.799,9.229,21.076z M10.125,43.576c-2.848-2.852-4.871-6.303-5.997-10.128
	c2.774,2.026,6.748,3.601,11.471,4.651c0.976,4.727,2.628,8.698,4.651,11.474C16.501,48.448,12.977,46.424,10.125,43.576z" class="color c1"/>
</svg>