<svg version="1.1" id="图层_1" x="0px" y="0px" width="180px" height="179.92px" viewBox="0 0 180 179.92" enable-background="new 0 0 180 179.92" xml:space="preserve" xmlns="http://www.w3.org/2000/svg" xmlns:xlink="http://www.w3.org/1999/xlink" xmlns:xml="http://www.w3.org/XML/1998/namespace">
  <path fill="#AF9A64" d="M9.192,108.942c-4.224,0.021-7.813-3.086-8.396-7.271c-3.062-22.785,2.768-45.875,16.282-64.474
	c28.687-39.434,83.495-48.98,123.826-21.571l3.798-5.251c0.878-1.223,2.58-1.503,3.804-0.625c0.434,0.312,0.768,0.744,0.956,1.243
	l10.032,26.041c0.503,1.419-0.24,2.977-1.66,3.48c-0.323,0.115-0.667,0.167-1.012,0.155l-27.857-1.363
	c-1.504-0.074-2.663-1.353-2.589-2.856c0.024-0.529,0.205-1.04,0.519-1.469l3.762-5.052C98.221,8.111,54.339,15.85,31.326,47.448
	c-2.034,2.85-3.855,5.844-5.452,8.959h22.715c0.913-0.009,1.661,0.724,1.669,1.637c0.004,0.292-0.07,0.581-0.216,0.834
	c-1.672,2.988-2.091,6.517-1.161,9.813c1.179,3.234,3.747,5.768,6.995,6.906c5.844,2.162,12.338,1.671,17.791-1.345l17.083-9.558
	c0.497-0.282,1.124-0.167,1.49,0.272l35.708,43.613l4.415,5.324c2.628,3.035,2.295,7.627-0.74,10.253
	c-0.275,0.237-0.568,0.456-0.877,0.649c-2.891,1.715-6.572,1.26-8.959-1.107l-0.6-0.582c-0.076-0.051-0.178-0.03-0.228,0.045
	c-0.021,0.029-0.03,0.064-0.026,0.101c0.545,2.876-0.688,5.798-3.125,7.414c-2.942,1.837-6.763,1.399-9.215-1.054l-0.545-0.527
	c-0.074-0.05-0.177-0.029-0.229,0.045c-0.02,0.029-0.028,0.064-0.026,0.103c0.545,2.875-0.687,5.797-3.126,7.414
	c-2.93,1.834-6.736,1.413-9.195-1.019l-0.545-0.527c-0.074-0.051-0.176-0.029-0.227,0.046c-0.021,0.028-0.03,0.063-0.027,0.1
	c0.704,3.953-1.931,7.728-5.882,8.433c-1.878,0.332-3.812-0.084-5.384-1.162l0.69-1.217c3.023-5.078,2.281-11.552-1.817-15.812
	c-1.896-1.869-4.33-3.095-6.96-3.507c-1.626-2.786-4.261-4.844-7.359-5.743c-1.216-4.248-4.566-7.551-8.832-8.704
	c-0.787-2.863-2.564-5.355-5.016-7.031c-5.644-3.494-12.997-2.302-17.246,2.797l-4.615,5.652H9.192V108.942z" class="color c1"/>
  <path fill="#89042B" d="M50.171,105.636c-2.716-1.514-6.13-0.828-8.051,1.617l-4.798,5.887c-2.123,2.594-1.742,6.418,0.85,8.541
	c0.037,0.031,0.076,0.063,0.114,0.092l0.727,0.582c1.955,1.533,4.647,1.722,6.796,0.473c0.137-0.084,0.316-0.041,0.4,0.096
	c0.038,0.063,0.052,0.141,0.036,0.213c-0.44,2.246,0.417,4.549,2.217,5.961l0.599,0.473c1.875,1.476,4.438,1.724,6.561,0.637
	c0.15-0.082,0.337-0.027,0.418,0.123c0.031,0.057,0.045,0.122,0.036,0.186c-0.219,2.094,0.654,4.152,2.308,5.452l0.418,0.327
	c1.899,1.486,4.492,1.729,6.632,0.617c0.162-0.102,0.375-0.053,0.477,0.107c0.027,0.045,0.044,0.096,0.051,0.146
	c0.237,1.527,1.042,2.909,2.252,3.87l0.255,0.2c2.702,2.115,6.608,1.64,8.725-1.063c0.187-0.24,0.357-0.492,0.507-0.756l0.89-1.582
	c1.553-2.575,1.108-5.885-1.071-7.959c-1.829-1.664-4.474-2.08-6.724-1.054c-0.093,0.04-0.2-0.001-0.24-0.093
	c-0.012-0.027-0.017-0.06-0.015-0.09c0.196-3.365-2.374-6.254-5.74-6.449c-0.887-0.053-1.774,0.091-2.601,0.418
	c-0.909,0.162-0.709-0.637-0.709-0.637c1.282-3.119-0.207-6.688-3.326-7.97c-1.711-0.703-3.649-0.593-5.269,0.301
	c-0.692,0.091-0.601-0.526-0.601-0.526C53.889,110.933,52.95,107.337,50.171,105.636z M176.212,64.076l-0.581-1.817l0,0
	c-1.164-3.456-4.404-5.782-8.051-5.779h-19.988c-2.621-0.001-5.221-0.482-7.669-1.418l-37.599-14.41
	c-7.579-2.891-16.115-1.661-22.571,3.253L56.13,61.84c-1.833,1.668-1.967,4.507-0.299,6.34c0.414,0.456,0.918,0.822,1.48,1.074
	c4.241,1.846,9.101,1.604,13.138-0.654l20.099-11.249c1.519-0.829,3.412-0.472,4.525,0.854l43.812,53.244
	c0.385,0.477,1.083,0.551,1.561,0.166c0,0,0.003-0.001,0.004-0.003l1.816-1.508c0.916-0.742,2.058-1.146,3.234-1.146h14.229
	c-10.521,38.574-50.324,61.313-88.899,50.79c-8.94-2.439-17.33-6.572-24.711-12.175l4.016-4.979
	c0.953-1.164,0.779-2.883-0.387-3.835c-0.409-0.333-0.906-0.542-1.43-0.599l-27.749-2.835c-1.497-0.171-2.847,0.905-3.017,2.401
	c-0.047,0.416,0.002,0.838,0.145,1.231l8.559,26.55c0.531,1.409,2.103,2.122,3.512,1.592c0.472-0.179,0.886-0.482,1.196-0.883
	l4.07-5.033c39.365,30.354,95.884,23.047,126.236-16.318C178.971,121.914,184.531,91.841,176.212,64.076z" class="color c2"/>
</svg>