<svg version="1.1" id="图层_1" x="0px" y="0px" width="99.253px" height="137.044px" viewBox="0 0 99.253 137.044" enable-background="new 0 0 99.253 137.044" xml:space="preserve" xmlns="http://www.w3.org/2000/svg" xmlns:xlink="http://www.w3.org/1999/xlink" xmlns:xml="http://www.w3.org/XML/1998/namespace">
  <path fill="#E91F2E" d="M99.253,86.795l-2.491,11.628l-71.014,38.621c-8.583,0-17.165,0-25.748,0c0-3.615,0-7.23,0-10.846
	C33.084,113.064,66.169,99.929,99.253,86.795z M95.1,110.881l-2.907,12.044l-12.458,14.119H54.818L95.1,110.881z" class="color c1"/>
  <path fill="#0A3A73" d="M0.067,9.261L0,0l15.714,5.814L14.643,8.38L0.067,9.261z M95.1,35.166V79.32
	c-10.866,3.793-21.732,7.585-32.598,11.378l-3.289-7.882l-3.912,9.327l-11.728,0.714l3.181,3.314l-14.751,5.125l5.897-8.513
	l-9.46-2.733l-5.457-13.09l-5.017,11.985L2.899,89.859l11.67,12.152l-0.698,5.581C9.247,109.16,4.624,110.727,0,112.295
	C0.025,78.133,0.05,43.971,0.075,9.809l11.171,11.636L9.128,38.397l11.861-9.402l9.9,5.316l-2.392-13.314l5.764-8.331l18.14,6.711
	l-1.254,2.998l-11.728,0.714l9.087,9.452l-1.645,13.198l9.228-7.317l7.708,4.136l-1.86-10.357l4.734-6.844l-7.367-2.126l-0.64-1.545
	l21.479,7.949l-0.54,1.296l-7.816,0.482l6.055,6.304l-1.096,8.796l6.146-4.884l5.141,2.757l-1.238-6.902l2.965-4.294L95.1,35.166z
	 M30.159,64.187l6.08-8.779l-9.46-2.733l-5.457-13.09L16.305,51.57L1.238,52.484l11.669,12.151l-2.118,16.952l11.861-9.402
	l9.9,5.316L30.159,64.187z M64.428,64.594l4.734-6.844l-7.367-2.126l-4.244-10.183l-3.912,9.327l-11.728,0.714l9.086,9.452
	l-1.645,13.198l9.228-7.317l7.708,4.136L64.428,64.594z M87.626,64.061l3.148-4.56l-4.909-1.42l-2.832-6.786l-2.6,6.213
	l-7.816,0.482l6.055,6.304l-1.096,8.796l6.146-4.884l5.141,2.758L87.626,64.061z" class="color c2"/>
</svg>