<svg version="1.1" id="图层_1" x="0px" y="0px" width="117.021px" height="117.023px" viewBox="0 0 117.021 117.023" enable-background="new 0 0 117.021 117.023" xml:space="preserve" xmlns="http://www.w3.org/2000/svg" xmlns:xlink="http://www.w3.org/1999/xlink" xmlns:xml="http://www.w3.org/XML/1998/namespace">
  <polygon fill="#009590" points="85.274,26.029 85.39,26.897 84.086,27.167 83.91,29.018 85.471,29.018 87.546,28.817 88.617,27.544 
	87.479,27.102 86.854,26.385 85.92,24.868 85.471,22.725 83.714,23.083 83.218,23.838 83.218,24.69 84.067,25.27 " class="color c1"/>
  <polygon fill="#009590" points="83.772,26.74 83.867,25.58 82.834,25.135 81.393,25.47 80.321,27.189 80.321,28.302 81.571,28.302 
	" class="color c1"/>
  <path fill="#009590" d="M54.053,31.667l-0.318,0.818h-1.538v0.795h0.368c0,0,0.021,0.167,0.053,0.389l0.939-0.079l0.591-0.366
	l0.153-0.738l0.765-0.064l0.303-0.621l-0.699-0.144L54.053,31.667z" class="color c1"/>
  <polygon fill="#009590" points="50.087,33.109 50.028,33.886 51.141,33.792 51.258,33.012 50.588,32.486 " class="color c1"/>
  <path fill="#009590" d="M117.011,57.908c-0.019-1.713-0.104-3.411-0.264-5.084c-0.542-5.576-1.877-10.921-3.875-15.933
	c-0.149-0.374-0.284-0.75-0.444-1.119c-2.662-6.289-6.399-12.015-10.974-16.956c-0.304-0.321-0.607-0.641-0.914-0.951
	c-0.861-0.898-1.75-1.774-2.673-2.614C87.469,5.782,73.653,0,58.512,0C43.241,0,29.329,5.885,18.897,15.5
	c-2.43,2.24-4.665,4.687-6.691,7.304C4.563,32.69,0,45.075,0,58.512c0,32.265,26.25,58.513,58.515,58.513
	c22.695,0,42.397-12.996,52.097-31.932c2.075-4.047,3.688-8.363,4.777-12.885c0.277-1.148,0.513-2.301,0.72-3.469
	c0.595-3.322,0.914-6.742,0.914-10.229C117.024,58.31,117.013,58.109,117.011,57.908z M105.997,34.521l0.338-0.38
	c0.449,0.863,0.86,1.742,1.261,2.632l-0.555-0.021l-1.044,0.144V34.521z M97.543,24.313l0.011-2.614
	c0.918,0.975,1.805,1.979,2.653,3.02l-1.057,1.568l-3.687-0.033l-0.229-0.77L97.543,24.313z M26.961,17.816v-0.097h1.173
	l0.102-0.403h1.915v0.838L29.6,18.89h-2.644L26.961,17.816L26.961,17.816z M28.833,20.427c0,0,1.173-0.2,1.273-0.2
	c0.102,0,0,1.17,0,1.17l-2.646,0.167l-0.501-0.603L28.833,20.427z M109.726,43.654h-4.284l-2.606-1.94l-2.742,0.267v1.675H99.22
	l-0.937-0.669l-4.758-1.206v-3.08l-6.025,0.47l-1.868,1.004h-2.395l-1.17-0.117l-2.902,1.61v3.036l-5.938,4.283l0.491,1.829h1.203
	l-0.314,1.742l-0.846,0.313l-0.047,4.552l5.131,5.844h2.233l0.133-0.354h4.016l1.157-1.072h2.277l1.25,1.25l3.395,0.354
	l-0.451,4.513l3.766,6.648l-1.982,3.79l0.133,1.785l1.565,1.562v4.29l2.048,2.761v3.565h1.771
	c-9.854,12.103-24.858,19.854-41.646,19.854c-29.609,0-53.698-24.09-53.698-53.698c0-7.455,1.531-14.558,4.287-21.016v-1.676
	l1.922-2.333c0.666-1.258,1.381-2.484,2.145-3.681l0.088,0.976l-2.231,2.707c-0.688,1.305-1.337,2.638-1.922,4.008v3.056
	l2.233,1.074v4.247l2.139,3.651l1.741,0.268l0.223-1.251l-2.052-3.167l-0.402-3.078h1.203l0.507,3.167l2.967,4.329l-0.763,1.397
	l1.889,2.887l4.683,1.159v-0.759l1.877,0.269l-0.179,1.338l1.471,0.269l2.273,0.622l3.217,3.66l4.101,0.311l0.401,3.349
	l-2.809,1.965l-0.131,2.988l-0.4,1.829l4.062,5.085l0.313,1.741c0,0,1.471,0.398,1.652,0.398c0.18,0,3.301,2.367,3.301,2.367v9.19
	l1.113,0.313l-0.758,4.24l1.877,2.5l-0.348,4.2l2.477,4.354l3.18,2.779l3.197,0.059l0.313-1.029l-2.35-1.977l0.137-0.98l0.419-1.207
	l0.091-1.227l-1.588-0.049l-0.801-1.006l1.316-1.267l0.176-0.959l-1.471-0.422l0.083-0.889l2.102-0.318l3.192-1.535l1.069-1.963
	l3.35-4.285l-0.763-3.35l1.026-1.785l3.08,0.099l2.071-1.644l0.667-6.465l2.301-2.918l0.401-1.877l-2.095-0.669l-1.386-2.271
	l-4.729-0.049l-3.749-1.43l-0.178-2.673l-1.252-2.188L51.4,61.923l-1.963-3.074l-1.741-0.85l-0.088,0.938l-3.167,0.188L43.28,57.51
	l-3.303-0.672l-2.723,3.146l-4.283-0.728l-0.312-4.829l-3.126-0.534l1.254-2.369l-0.358-1.359l-4.107,2.747l-2.585-0.315
	l-0.92-2.019l0.563-2.083l1.423-2.625l3.284-1.66l6.334-0.002l-0.019,1.933l2.278,1.06l-0.183-3.304l1.643-1.649l3.312-2.175
	l0.226-1.531l3.303-3.437l3.513-1.944l-0.31-0.255l2.375-2.238l0.873,0.23l0.396,0.5l0.903-1.001l0.223-0.098l-0.99-0.139
	l-1.004-0.335V28.86l0.534-0.433h1.171l0.537,0.234l0.465,0.938l0.567-0.086V29.43l0.164,0.056l1.646-0.253l0.231-0.804l0.938,0.236
	v0.871l-0.871,0.6h0.005l0.129,0.956l2.979,0.92c0,0,0,0.012,0.009,0.035l0.686-0.057l0.049-1.292l-2.366-1.076l-0.137-0.621
	l1.961-0.67l0.088-1.877l-2.051-1.248l-0.133-3.165l-2.814,1.381h-1.021l0.27-2.409l-3.83-0.903l-1.586,1.197v3.648l-2.845,0.901
	l-1.142,2.378l-1.236,0.199v-3.042l-2.677-0.37l-1.338-0.872l-0.537-1.971l4.786-2.802l2.344-0.712l0.232,1.574l1.306-0.068
	l0.103-0.792l1.364-0.194l0.024-0.277l-0.591-0.242L48.24,17.83l1.676-0.143l1.015-1.055l0.055-0.077L51,16.561l0.307-0.317
	l3.527-0.445l1.559,1.325L52.304,19.3l5.203,1.227l0.672-1.738h2.274l0.805-1.516l-1.608-0.401V14.95l-5.041-2.233L51.13,13.12
	l-1.968,1.026l0.136,2.499l-2.051-0.313l-0.315-1.382l1.965-1.786l-3.567-0.179l-1.024,0.313l-0.448,1.202l1.34,0.227l-0.267,1.337
	L42.655,16.2l-0.355,0.891l-3.301,0.092c0,0-0.09-1.873-0.224-1.873c-0.131,0,2.587-0.045,2.587-0.045l1.97-1.92l-1.075-0.538
	l-1.428,1.387l-2.366-0.135l-1.431-1.964H34l-3.169,2.367h2.902L34,15.311l-0.753,0.701l3.212,0.089l0.491,1.16l-3.62-0.135
	l-0.174-0.894l-2.273-0.49l-1.207-0.669l-2.704,0.021c8.86-6.458,19.759-10.281,31.54-10.281c13.576,0,25.984,5.075,35.451,13.416
	l-0.642,1.141l-2.477,0.969l-1.042,1.134l0.239,1.321l1.278,0.178l0.77,1.926l2.204-0.888l0.363,2.575h-0.661l-1.813-0.268
	l-2.003,0.336l-1.944,2.745l-2.778,0.436l-0.401,2.378l1.173,0.276l-0.338,1.528l-2.759-0.555l-2.531,0.555l-0.534,1.408
	l0.439,2.954l1.481,0.696l2.492-0.016l1.682-0.149l0.514-1.34l2.626-3.415l1.732,0.354l1.702-1.541l0.317,1.204L97.247,37
	l-0.513,0.688l-1.891-0.103l0.727,1.032l1.164,0.254l1.36-0.567l-0.027-1.642l0.604-0.304l-0.485-0.514l-2.799-1.561l-0.735-2.071
	h2.325l0.746,0.735l2.001,1.728l0.086,2.085l2.073,2.209l0.771-3.027l1.438-0.784l0.271,2.477l1.403,1.54l2.799-0.047
	c0.541,1.394,1.026,2.811,1.455,4.257L109.726,43.654z M31.916,26.584l1.404-0.668l1.271,0.303l-0.44,1.706l-1.368,0.435
	L31.916,26.584z M39.371,30.602v1.104h-3.208l-1.204-0.334l0.305-0.771l1.538-0.639h2.111v0.639H39.371z M40.851,32.141v1.072
	l-0.803,0.516l-1.002,0.187c0,0,0-1.604,0-1.773L40.851,32.141L40.851,32.141z M39.948,31.706v-1.273l1.101,1.005L39.948,31.706z
	 M40.447,34.281v1.042l-0.765,0.771h-1.706l0.27-1.169l0.806-0.071l0.165-0.4L40.447,34.281z M36.197,32.141h1.777l-2.274,3.182
	l-0.94-0.505l0.202-1.337L36.197,32.141z M43.463,33.915v1.04h-1.71l-0.462-0.674v-0.969h0.133L43.463,33.915z M41.886,32.486
	l0.489-0.51l0.816,0.51l-0.656,0.542L41.886,32.486z M110.596,46.365l0.167-0.196c0.072,0.303,0.146,0.605,0.217,0.914
	L110.596,46.365z" class="color c1"/>
  <path fill="#009590" d="M9.101,35.821v1.676c0.585-1.368,1.232-2.7,1.922-4.009L9.101,35.821z" class="color c1"/>
</svg>