<svg version="1.1" id="图层_1" x="0px" y="0px" width="108.275px" height="144.618px" viewBox="0 0 108.275 144.618" enable-background="new 0 0 108.275 144.618" xml:space="preserve" xmlns="http://www.w3.org/2000/svg" xmlns:xlink="http://www.w3.org/1999/xlink" xmlns:xml="http://www.w3.org/XML/1998/namespace">
  <path fill="#FFFFFF" d="M98.129,26.221c0.475-0.391,0.727-0.794,0.727-1.208c0-0.179-0.057-0.355-0.147-0.53
	c4.388-2.639,6.943-5.684,6.943-8.025c0-2.394-2.455-4.571-6.937-6.506C89.637,6.028,72.015,2.5,52.603,2.5
	c-9.674,0-17.21,0.682-27.21,1.824v19.694c-0.32,0.324-0.494,0.655-0.494,0.994c0,0.339,0.174,0.67,0.494,0.994v1.226l2.214,0.077
	c5.493,2.238,18.763,3.817,34.271,3.817c14.107,0,26.366-1.307,32.602-3.228c-8.114,3.359-21.203,6.438-42.991,5.202
	C27.123,31.718,7.917,24.5,3.043,21.681l9.433,83.19l2.539,24.127c0,3.629,17.627,13.119,39.358,13.119
	c21.732,0,39.359-9.49,39.359-13.119l2.538-24.127l0.921-8.125l8.512-75.065C104.121,22.596,101.808,24.348,98.129,26.221z" class="color c1"/>
  <path fill="#141212" d="M108.275,16.457c0-3.45-2.783-6.329-8.506-8.801C91.596,4.125,74.412,0,52.884,0
	c-9.44,0-16.593,0.62-27.274,1.84l-2.216,0.253v24.164c-9.47-2.394-16.35-5.15-19.099-6.741L0,17.032l9.989,88.101l2.531,24.049
	c0.389,6.518,21.281,15.438,41.854,15.438s41.465-8.92,41.854-15.438l2.526-24.027l0.443-4.126c0.167-0.085,0.34-0.165,0.506-0.251
	l-0.396-0.763l8.837-82.321C108.227,17.28,108.275,16.867,108.275,16.457z M99.966,50.097c-5.888,3.288-15.713,7.005-34.175,7.156
	l0.121,14.693c14.511-0.118,24.729-2.255,32.132-4.903l-1.715,15.125c-10.746,5.244-25.764,7.369-44.701,6.293l-0.282,4.992
	c3.397,0.191,6.661,0.289,9.799,0.289c13.923,0,25.313-1.91,34.525-5.775l-1.102,9.719c-8.818,3.887-19.967,5.754-33.938,5.744
	l-0.012,5c0.122,0.001,0.244,0.001,0.365,0.001c13.177,0,24.027-1.665,32.94-5.068l-0.142,1.247l-1.164,11.059
	c-7.604,2.256-16.785,3.401-27.396,3.375l-0.013,5c0.117,0,0.233,0,0.351,0c10.043,0,18.923-1.021,26.496-3.021l-0.81,7.688
	c-1.525,2.742-16.918,10.906-36.875,10.906s-35.349-8.164-36.875-10.906l-1.072-10.185c8.291,3.326,18.905,5.495,31.754,6.464
	l1.104-14.652c-16.061-1.211-28.336-4.563-34.745-9.453l-2.385-21.039c6.459,1.965,15.647,4.229,26.79,5.51l0.571-4.967
	c-12.042-1.385-21.717-3.95-27.978-5.977l-1.149-10.139c6.057,2.15,17.496,5.612,32.229,7.306l0.571-4.967
	c-16.527-1.9-28.67-6.065-33.433-7.903L8.542,47.994c8.91,3.391,24.366,7.679,42.804,8.726l0.282-4.992
	c-19.703-1.119-36.091-6.179-43.726-9.375l-1.867-16.47c8.421,3.547,25.164,8.57,45.311,9.714c3.309,0.188,6.547,0.283,9.624,0.283
	c0.002,0,0.004,0,0.006,0c23.627-0.001,35.354-5.491,41.656-9.298L99.966,50.097z M102.011,18.853
	c-0.677-0.354-1.387-0.705-2.165-1.042c-9.657-4.172-27.52-6.765-46.613-6.765c-2.675,0-5.212,0.048-7.757,0.148l0.194,4.996
	c2.479-0.097,4.953-0.144,7.563-0.144c18.332,0,35.316,2.404,44.436,6.276c-2.031,1.235-4.602,2.429-7.672,3.394
	c-9.862-2.306-22.938-3.65-36.604-3.65v5c9.931,0,19.698,0.742,27.987,2.065c-5.458,1.053-12.149,1.748-20.405,1.749
	c-0.002,0-0.004,0-0.006,0c-2.982,0-6.125-0.093-9.341-0.275c-8.857-0.503-17.073-1.799-24.14-3.373h0.904V6.558
	C37.694,5.524,44.347,5,52.884,5c19.434,0,36.555,3.639,44.902,7.246c4.052,1.75,5.489,3.362,5.489,4.211
	C103.275,17.062,102.842,17.903,102.011,18.853z" class="color c2"/>
</svg>