<svg version="1.1" id="图层_1" x="0px" y="0px" width="106.519px" height="55.633px" viewBox="0 0 106.519 55.633" enable-background="new 0 0 106.519 55.633" xml:space="preserve" xmlns="http://www.w3.org/2000/svg" xmlns:xlink="http://www.w3.org/1999/xlink" xmlns:xml="http://www.w3.org/XML/1998/namespace">
  <path fill="#8C3620" d="M95.65,21.464c-0.686,1.664-0.333,1.066-2.063,1.222c-0.259,0.022-0.453,0.238-0.475,0.518
	c0,0.216,0,0.41-0.108,0.583c-0.583,0.993-1.296,1.922-1.879,2.915c-0.604,0.993-1.446,1.662-2.462,2.202
	c-0.518,0.281-1.014,0.713-1.36,1.187c-0.626,0.799-1.252,1.49-2.246,1.835c-1.446,0.518-2.569,1.511-2.872,3.001
	c-0.259,1.36-0.151,2.807-0.021,4.189c0.064,1.015,0.583,1.943,0.13,3.001c-0.173,0.432,0.043,1.015,0.108,1.533
	c0.043,0.324,0.237,0.626,0.216,0.928c-0.086,0.993-0.216,1.965-0.389,2.936c-0.086,0.389-0.237,0.972-0.518,1.08
	c-0.562,0.194-1.209,0.151-1.814,0.173c-0.841,0.022-1.705-0.022-2.526,0.065c-1.187,0.108-1.943-0.043-1.857-1.403
	c0.108-1.77,0.151-3.519,0.259-5.29c0.064-0.993,0.043-2.03,0.302-2.98c0.411-1.403,0.972-2.742,0.799-4.253
	c-0.021-0.173,0.086-0.389,0.152-0.583c0.367-0.993,0.54-1.965-0.152-2.936c-0.173-0.237-0.28-0.583-0.28-0.885
	c-0.021-0.259,0.064-0.583,0.216-0.799c0.604-0.799,1.338-1.511,1.9-2.332c0.907-1.36,1.77-2.785,2.612-4.189
	c0.389-0.669,0.777-1.209,1.706-1.036c0.691,0.108,1.425,0.022,2.159,0.022c0.332,0.041,0.271-0.229,0-0.475
	c-0.367-0.756-0.799-1.468-1.188-2.224c-0.194-0.41-0.409-0.799-0.518-1.231c-0.13-0.453-0.13-0.928-0.194-1.403h-0.195
	c-0.129,0.518-0.237,1.036-0.367,1.576c-0.173,0-0.151,0-0.324,0c-0.151-0.561-0.324-1.123-0.475-1.684
	c-0.087,0.174-0.131,0.348-0.153,0.522c-0.08,0.643,0.15,1.275-0.343,1.854c-0.648,0.756-1.555,0.065-2.462,0.583
	c0.561,0.345,1.014,0.604,1.511,0.907c-0.043,0.086-0.108,0.173-0.173,0.259c-1.035,1.144-2.007,2.31-3.109,3.411
	c-0.647,0.669-1.403,1.231-2.396,1.49c-0.886,0.216-1.64,0.669-2.138,1.598c-0.474,0.864-1.295,1.511-2.288,1.878
	c-2.095,0.756-3.368,2.245-3.692,4.491c-0.195,1.425,0,2.807,0.302,4.189c0.238,1.209,0.778,2.418,0.303,3.692
	c-0.064,0.151-0.022,0.367,0.022,0.54c0.345,1.943,0,3.822-0.562,5.657c-0.303,1.036-0.604,1.015-1.857,0.864
	c-0.497-0.043-0.993-0.065-1.469,0c-0.756,0.086-1.49,0.281-2.223,0.432c-0.411,0.086-1.512-0.518-1.598-0.907
	c-0.173-0.928-0.367-1.835-0.54-2.764c-0.497-2.742-1.123-5.484-2.137-8.097c-0.562-1.468-1.08-2.958-1.188-4.556
	c-0.13-1.706-0.713-3.39-0.215-5.117c0.345-1.166,0.54-2.397,1.101-3.433c1.252-2.267,3.325-3.8,5.549-4.944
	c2.052-1.08,4.275-1.835,6.477-2.548c1.749-0.583,3.607-0.345,5.398-0.065c1.814,0.281,3.584,0.345,5.355-0.216
	c2.008-0.648,4.038-1.317,6.11-1.706c1.749-0.324,3.606-0.54,5.377,0.108c0.324,0.13,0.691,0.302,0.885,0.561
	c0.389,0.561,1.036,0.54,1.576,0.756c0.756,0.302,1.685,0.13,2.332,0.82c0.194,0.194,0.626,0.259,0.929,0.281
	c0.734,0.065,1.469,0,2.202,0.065c1.144,0.108,2.289,0.302,3.455,0.432c0.064,0.022,0.151,0,0.172-0.043
	c0.475-0.453,0.972-0.237,1.512-0.216c0.54,0.043,1.123-0.043,1.663-0.173c0.367-0.108,0.518-0.475,0.669-0.842
	c0.367-0.885,0.086-1.015-0.799-1.144c-0.907-0.13-1.727-0.756-2.569-1.144c-0.389-0.173-0.799-0.302-1.187-0.453
	c-0.929-0.389-1.576-1.231-2.699-1.468c-1.252-0.259-2.375-1.058-3.562-1.641c-0.109-0.043-0.152-0.216-0.216-0.346
	c0.108-0.043,0.216-0.13,0.324-0.151c0.734-0.086,1.23-0.712,1.101-1.447c-0.064-0.345-0.173-0.713-0.259-1.015
	c-0.28-0.13-0.625-0.194-0.668-0.324c-0.152-0.648-0.626-0.583-1.102-0.626c-0.237-0.022-0.691-0.194-0.691-0.302
	c-0.022-0.648-0.54-0.583-0.929-0.734c-0.474-0.216-0.929-0.453-1.382-0.691c-0.215-0.108-0.388-0.324-0.604-0.389
	c-0.562-0.108-1.144-0.194-1.706-0.237c-0.669-0.043-1.36,0.065-1.986-0.108c-0.863-0.259-1.641-0.713-2.462-1.08
	c-0.108-0.065-0.215-0.151-0.346-0.173c-1.575-0.259-3.13-0.583-4.706-0.756c-0.583-0.065-1.296,0.065-1.771,0.389
	c-0.367,0.259-0.561,0.389-0.949,0.194c-0.216-0.13-0.411-0.324-0.626-0.367c-1.619-0.194-3.239-0.367-4.837-0.518
	c-0.28-0.043-0.561,0.043-0.842,0c-1.338-0.13-2.634-0.648-4.016-0.324c-0.173,0.043-0.389-0.108-0.583-0.13
	c-0.475-0.086-0.971-0.151-1.469-0.194c-0.173-0.022-0.388,0.065-0.518-0.022c-1.015-0.756-2.223-0.864-3.412-0.972
	c-0.54-0.065-1.166,0.346-1.684,0.216c-0.972-0.281-2.117,0.518-2.98-0.432c-0.021-0.022-0.13-0.022-0.194-0.022
	c-0.756,0.086-1.511,0.151-2.267,0.237c-0.735,0.065-1.555,0.346-2.246,0.151c-0.972-0.259-1.728,0.216-2.591,0.281
	C48.202,0.814,47.533,0.9,46.906,0.77c-0.777-0.151-1.49-0.54-2.267-0.734c-0.389-0.086-0.842,0-1.252,0.065
	c-0.605,0.108-1.231,0.475-1.792,0.367c-1.123-0.194-2.202-0.345-3.261,0.108c-1.08,0.453-2.116,1.015-3.152,1.576
	c-0.388,0.216-0.669,0.713-1.057,0.799c-1.188,0.259-2.418,0.41-3.628,0.54c-0.842,0.086-1.533,0.799-2.462,0.604
	c-0.021,0-0.042,0.022-0.064,0.022c-0.303,0.086-0.626,0.237-0.929,0.259c-0.691,0.022-1.403-0.043-2.094-0.022
	c-0.28,0-0.626,0.043-0.799,0.216c-0.324,0.345-0.691,0.389-1.101,0.367c-0.216,0-0.562,0.043-0.778,0.086
	c-0.907,0.216-1.813,0.475-2.742,0.669c-0.82,0.151-1.64,0.194-2.462,0.367c-1.101,0.216-2.18,0.497-3.26,0.734
	c-0.432,0.108-0.863,0.237-1.296,0.216c-0.907-0.065-1.813-0.432-2.612,0.281c-0.086,0.065-0.28,0-0.41,0.022
	C8.733,7.42,7.956,7.55,7.2,7.658c-0.28,0.043-0.561,0.13-0.842,0.151C5.192,7.896,4.07,8.09,3.249,9.061
	C3.055,9.277,2.688,9.429,2.385,9.45c-0.928,0.065-1.468,0.734-2.073,1.252c-0.151,0.13-0.064,0.561-0.086,0.842
	c-0.021,0.13-0.043,0.237-0.086,0.345c-0.518,1.533,0.453,3.196,2.073,3.217c2.505,0.043,5.01-0.108,7.514-0.194
	c0.173,0,0.346,0.065,0.519,0.065c0.431,0.043,0.842,0.151,1.252,0.13c0.561-0.021,1.144-0.173,1.706-0.173
	c0.474,0,0.971,0.173,1.446,0.194c2.202,0.13,4.405,0.194,6.607,0.346c0.54,0.022,1.057,0.324,1.64,0.497
	c-0.626,0.475-1.123,0.82-1.554,1.209c-0.367,0.302-0.346,0.713-0.065,1.08c0.216,0.281,0.453,0.561,0.713,0.907
	c0.216,0,0.497,0,0.799,0.022c1.663,0.108,3.346-0.281,5.009,0.216c0.086,0.021,0.195-0.086,0.303-0.086
	c0.669-0.108,1.317-0.777,2.052-0.13c0.042,0.043,0.237,0.022,0.302-0.022c0.519-0.41,1.123-0.432,1.706-0.475
	c0.993-0.065,2.029,0.022,3.023-0.065c0.605-0.043,1.145-0.497,1.857-0.259c0.562,0.173,1.188,0.194,1.771,0.281
	c0.41,0.086,0.647,0.281,0.432,0.734c-0.216,0-0.411,0-0.626,0.022c-1.166,0.151-2.289,0.756-3.541,0.345
	c-0.086-0.022-0.237,0.108-0.367,0.151c-1.123,0.302-2.246,0.604-3.607,0.993c0,0.281-0.129,0.842,0.044,1.295
	c0.172,0.475,0.194,1.144,0.928,1.339c0.583,0.151,1.123,0.453,1.706,0.648c0.583,0.194,1.187,0.367,1.771,0.475
	c0.841,0.151,1.705,0.259,2.547,0.345c0.324,0.043,0.669,0,0.972-0.086c0.95-0.324,1.857-0.54,2.872-0.151
	c0.626,0.237,1.36,0.648,2.073-0.108c0.237-0.237,0.885-0.302,1.208-0.151c0.842,0.367,1.685,0.82,2.159,1.684
	c0.519,0.907,1.361,1.425,2.224,1.857c0.886,0.432,1.533,1.123,1.727,2.008c0.367,1.662,0.713,3.347,0.778,5.031
	c0.064,1.663,0.258,3.282,0.863,4.793c1.036,2.634,1.49,5.333,1.057,8.161c-0.064,0.389-0.215,0.756-0.324,1.144
	c-0.043-0.065-0.086-0.13-0.151-0.216c-0.497,0.021-0.993,0.13-1.469,0.065c-1.08-0.173-2.137-0.259-3.217-0.151
	c-0.907,0.065-1.814,0.022-2.721,0c-1.274-0.065-2.526-0.173-3.8-0.194c-0.799,0-1.598,0.108-2.397,0.13
	c-0.108,0-0.324-0.173-0.345-0.302c-0.043-0.281,0-0.583,0-0.907c0.237,0.022,0.367,0.043,0.518,0.065
	c0-0.864,0.173-1.727-0.043-2.505c-0.237-0.777-0.13-1.49-0.064-2.224c0.064-0.604,0.13-1.209,0.108-1.814
	c0-0.713-1.014-2.008-1.684-2.246c-0.907-0.302-1.792-0.691-2.484-1.403c-0.518-0.54-1.122-0.605-1.813-0.54
	c-1.187,0.13-2.374,0.151-3.454-0.497c-0.389-0.237-0.864-0.345-1.275-0.54c-0.151-0.086-0.259-0.281-0.324-0.432
	c-0.086-0.151-0.108-0.346-0.173-0.626c-0.691,1.209-1.317,2.289-1.922,3.368c0.109,0.13,0.109,0.13,0.216,0.259
	c0.475-0.194,0.972-0.345,1.403-0.604c0.799-0.432,0.994-0.453,1.685,0.216c0.756,0.734,1.706,1.123,2.72,1.339
	c0.453,0.108,0.562,0.346,0.453,0.713c-0.324,1.08,0.065,2.138,0.41,3.044c0.648,1.706,0.475,3.411,0.54,5.117
	c0,0.324-0.129,0.518-0.582,0.41c-0.432-0.108-0.864-0.173-1.318-0.173c-1.576-0.022-3.152,0.065-4.706-0.022
	c-1.015-0.065-1.986-0.302-2.937,0.259c-0.173,0.108-0.431,0.065-0.647,0.065c-0.863-0.022-1.706-0.043-2.569-0.065
	c-0.086,0-0.237,0.022-0.259-0.022c-0.237-0.583-0.626-0.281-1.015-0.086c-0.431-0.95,0.929-0.885,0.821-1.619
	c-0.281,0.065-0.54,0.108-0.605,0.108c-0.388-0.216-0.647-0.367-0.95-0.54c0-0.151,0-0.389-0.021-0.604
	c-0.022-1.231,0.129-2.505-0.152-3.692c-0.345-1.425-1.036-2.785-1.597-4.167c-0.151-0.389-0.41-0.648-0.907-0.669
	c-0.54-0.022-1.08-0.086-1.576-0.259c-1.188-0.432-2.721,0.259-3.239,1.403c-0.583,1.252-0.389,2.548-0.346,3.843
	c0.043,0.864,0.043,1.706-0.475,2.483c-0.172,0.259-0.324,0.583-0.324,0.864c0.022,0.54-0.216,0.972-0.474,1.403
	c0.151,0.065,0.302,0.151,0.453,0.216c0.215-0.41,0.497-0.799,0.647-1.231c0.108,0.583,0.108,1.08-0.064,1.49
	c0.194,0.086,0.388,0.173,0.583,0.259c-0.195-1.447,0.215-4.297,0.928-4.988c0.648,1.835,0.605,3.649,0.238,5.484
	c7.427,3.174,15.221,5.592,23.318,7.19h45.147c8.614-1.663,16.906-4.275,24.721-7.73c-0.173-0.281-0.345-0.54-0.54-0.799
	c-0.389-0.475-0.777-1.08-1.317-1.339c-0.734-0.367-1.576-0.497-2.375-0.648c-1.036-0.173-1.835-0.604-2.289-1.576
	c-0.108-0.216-0.259-0.497-0.453-0.583c-0.647-0.259-0.82-0.842-1.014-1.403c-0.367-1.144-0.756-2.289-1.08-3.455
	c-0.086-0.345-0.043-0.799,0.108-1.144c0.194-0.518,0.519-0.972,0.863-1.555c-0.389,0.108-0.669,0.173-1.014,0.281
	c0.085-0.432,0.151-0.756,0.216-1.08c-0.346,0.216-0.519,0.626-0.778,0.691c-0.216,0.043-0.54-0.302-0.82-0.475
	c-0.021,0.281-0.021,0.626-0.043,1.015c-0.28-0.194-0.475-0.346-0.669-0.475c-0.212-0.205-0.208-0.09-0.151,0.108
	c0.064,0.194,0.108,0.389,0.216,0.583c0.367,0.734,0.841,1.425,1.101,2.202c0.303,0.907,0.474,1.878,0.605,2.828
	c0.151,1.123,0.108,2.289,0.302,3.411c0.173,0.885,0.043,1.662-0.324,2.461c-0.086,0.216-0.13,0.497-0.064,0.713
	c0.151,0.432,0,0.713-0.389,0.842c-0.324,0.108-0.669,0.13-0.993,0.151c-1.188,0.086-2.375,0.13-3.541,0.194
	c-0.388,0.022-0.799,0.022-1.187,0c-0.411,0-0.82-0.065-1.296-0.108c-0.022-0.151-0.086-0.41-0.064-0.669
	c0.085-1.382,0.258-2.764,0.237-4.124c-0.043-1.619,0.108-3.152,0.777-4.642c0.237-0.518,0.216-1.144,0.303-1.706
	c0.108-0.583,0.194-1.187,0.303-1.77c0.108-0.648,0.151-1.231-0.259-1.857c-0.453-0.713-0.669-1.511,0.043-2.289
	c0.302-0.302,0.561-0.669,0.734-1.036c0.756-1.511,1.49-3.044,2.202-4.577c0.237-0.518,0.583-0.928,1.187-0.669
	c0.864,0.367,1.728,0.669,2.699,0.583c0.086,0,0.195,0.108,0.303,0.151c0.367,0.151,0.734,0.302,1.123,0.453
	c0.065-0.086,0.13-0.173,0.194-0.259c-0.194-0.302-0.324-0.669-0.583-0.95c-0.583-0.604-1.36-1.08-1.554-2.03
	c-0.022-0.13-0.151-0.302-0.281-0.345c-0.734-0.216-0.712-0.842-0.798-1.403C96.026,21.284,95.864,21.195,95.65,21.464z
	 M87.303,12.732c0.453-0.043,0.907,0.151,1.382,0.173c0.388,0.043,0.798-0.043,1.187,0.022c0.216,0.043,0.432,0.259,0.626,0.41
	c-0.173,0.108-0.324,0.324-0.497,0.345c-0.95,0.022-1.9,0.065-2.829-0.022c-1.706-0.151-3.282,0.324-4.858,0.82
	c-0.842,0.259-1.706,0.475-2.548,0.713c-0.021-0.086-0.064-0.173-0.086-0.259c1.21-0.54,2.397-1.231,3.671-1.598
	C84.626,12.969,85.987,12.883,87.303,12.732z M79.854,11.566c0.626,0.324,1.361,0.389,1.901,0.518
	c-0.475,0.324-3.93,0.324-4.944-0.151C77.998,10.918,78.516,10.897,79.854,11.566z M74.112,11.264
	c0.734,0.151,1.446,0.194,2.137-0.259c0.152-0.086,0.389-0.043,0.583-0.065c0.022,0.086,0.043,0.173,0.065,0.259
	c-0.497,0.259-0.972,0.605-1.512,0.713c-0.993,0.216-2.008,0.281-3.109,0.432C72.535,11.782,73.658,11.156,74.112,11.264z
	 M68.757,11.868c0.885,1.123,2.051,0.302,3.109,0.324c0,0.065,0,0.151,0.021,0.216c-0.777,0.194-1.533,0.367-2.289,0.583
	c-0.604,0.173-1.295,0.259-1.834,0.583c-0.562,0.345-0.821,0.13-1.275-0.346C67.266,12.775,67.979,12.343,68.757,11.868z
	 M65.151,16.208c1.338-0.734,2.612-1.576,4.016-2.138c1.23-0.518,2.569-0.734,3.843-1.08c2.505-0.669,5.01,0,7.514-0.151
	c1.102-0.065,2.181-0.324,3.282-0.497c0.173-0.022,0.325,0,0.497,0v0.259c-0.324,0.043-0.691,0.043-0.993,0.173
	c-1.08,0.453-2.159,0.928-3.217,1.403c-1.231,0.54-2.418,1.252-3.714,1.598c-0.885,0.216-1.9,0-2.85-0.173
	c-1.663-0.302-3.304-0.497-4.967-0.022c-1.23,0.345-2.44,0.669-3.843,1.08C64.935,16.424,65.022,16.294,65.151,16.208z
	 M64.007,10.573c0.303,0.108,0.561,0.346,0.82,0.54c-0.043,0.065-0.064,0.13-0.108,0.194c-0.389-0.086-0.777-0.173-1.166-0.259
	c-0.021-0.065-0.043-0.108-0.065-0.173C63.661,10.767,63.877,10.53,64.007,10.573z M63.057,15.28c0.346-0.345,1.08-0.302,1.641-0.41
	c0.021,0.022,0.042,0.065,0.042,0.108c-0.755,0.713-1.533,1.403-2.288,2.116c-0.044-0.043-0.086-0.065-0.109-0.108
	C62.56,16.402,62.647,15.668,63.057,15.28z M14.499,48.573c-0.109,0-0.303-0.216-0.325-0.345c-0.215-1.554-0.346-3.109,0.325-4.621
	c0.064-0.151,0.172-0.281,0.345-0.561c1.123,1.9,2.159,3.649,3.261,5.549C16.743,48.595,15.62,48.595,14.499,48.573z M17.866,47.083
	c-0.474-0.907-0.971-1.792-1.36-2.742c-0.28-0.734-0.453-1.576,0.389-2.332c1.187,1.598,1.296,3.39,1.424,5.398
	C18.039,47.234,17.909,47.17,17.866,47.083z M34.924,48.595v-5.268c0.54-0.216,0.755-0.021,0.885,0.346s0.259,0.756,0.346,1.144
	c0.237,1.231,0.453,2.461,0.734,3.908C36.175,48.681,35.55,48.616,34.924,48.595z M37.817,48.638c-0.475,0-0.647-0.194-0.669-0.691
	c-0.086-1.36-0.237-2.699-0.367-4.059c-0.022-0.216,0.043-0.432,0.064-0.669c0.109,0,0.194-0.022,0.303-0.043
	c0.367,0.993,0.777,1.986,1.08,3.001c0.173,0.561,0.216,1.144,0.237,1.727C38.486,48.293,38.334,48.66,37.817,48.638z
	 M39.156,48.508c-0.109-0.022-0.216-0.022-0.325-0.043c0.086-0.432,0.173-0.885,0.259-1.339c0.065,0.022,0.13,0.022,0.216,0.043
	C39.242,47.602,39.198,48.055,39.156,48.508z M62.041,15.625c-0.108,1.36-2.417,3.692-3.843,3.822
	C59.365,17.957,60.617,16.813,62.041,15.625z M49.778,9.709c-0.389,0.691-0.41,0.691-1.102,0.13
	C49.066,9.796,49.389,9.752,49.778,9.709z M45.957,11.264c0.28-0.194,0.518-0.389,0.777-0.54c0.043,0,0.259,0.216,0.259,0.216
	c-0.152,0.238-0.303,0.453-0.562,0.756c0.195,0.173,0.432,0.389,0.735,0.648c-0.152,0.043-0.238,0.043-0.325,0.065
	c-0.302,0.086-0.82,0.346-0.907,0.259c-0.345-0.41-0.561-0.929-0.928-1.576C45.46,11.177,45.762,11.242,45.957,11.264z
	 M47.749,18.173c-0.238,0.777-0.497,0.885-1.123,0.324c-0.086-0.324,0.021-0.432,0.367-0.389
	C47.23,18.151,47.49,18.151,47.749,18.173z M40.213,12.3c1.403-0.281,2.829-0.54,4.34-0.842c0.194,0.453,0.841,0.82,0.691,1.468
	c-1.706-0.194-3.389-0.367-5.052-0.54L40.213,12.3z M37.709,12.754c-0.152-0.022-0.303,0.065-0.454,0.043
	c-0.367-0.065-0.734-0.173-1.08-0.216c-0.474-0.043-0.928-0.022-1.403-0.043c-0.151-0.022-0.367,0-0.474-0.086
	c-0.109-0.108-0.195-0.345-0.152-0.518c0.022-0.108,0.238-0.281,0.346-0.281c0.519,0.086,1.014,0.237,1.512,0.346
	c0.172,0.043,0.324,0.13,0.474,0.13c0.303,0,0.605-0.022,0.907-0.043c0.109,0,0.259,0.108,0.325,0.065
	c1.035-0.648,1.468,0.475,2.223,0.669c-0.022,0.065-0.022,0.151-0.043,0.238C39.177,12.948,38.443,12.861,37.709,12.754z
	 M39.889,19.814V18.95c0.691,0.194,1.339,0.367,2.138,0.583C41.249,20.202,40.559,19.468,39.889,19.814z M45.697,20.224
	c-1.057-0.648-2.095-1.296-3.152-1.943c0.713,0.065,1.36,0.216,2.029-0.194c0.324,0.281,0.669,0.432,1.123,0.022
	c0.109-0.086,0.604,0.259,0.907,0.389c0.216,0.453,0.109,0.799-0.324,1.101C46.043,19.727,45.891,20.008,45.697,20.224z
	 M46.367,24.262c0.756-0.216,1.446,0.518,1.554,1.209C47.533,25.168,46.971,24.737,46.367,24.262z M50.469,27.414
	c-0.54-0.691-1.08-1.36-1.64-2.03c0.95,0.173,1.943,1.296,1.857,1.878C50.62,27.306,50.533,27.349,50.469,27.414z M50.469,24.154
	c-0.345-0.194-0.713-0.367-1.036-0.583c-0.13-0.086-0.259-0.324-0.237-0.432c0.043-0.108,0.28-0.173,0.474-0.302
	c-0.043-2.116-1.446-2.591-3.389-2.375c0-0.108-0.021-0.194-0.043-0.281c0.41-0.346,0.799-0.691,1.188-1.036
	c0.345-0.302,0.668-0.626,1.035-0.929c0.13-0.108,0.368-0.259,0.453-0.216c0.713,0.324,0.886-0.173,1.08-0.691
	c0.065,0,0.152,0.022,0.216,0.043c0,0.367,0.043,0.734,0,1.08c-0.085,0.648-0.345,1.295-0.28,1.922c0.086,0.95,0.389,1.9,0.583,2.85
	c0.065,0.259,0.13,0.54,0.173,0.799C50.62,24.046,50.555,24.11,50.469,24.154z M50.382,10.119c0.605-0.583,1.188-0.237,1.77-0.194
	C51.808,10.335,51.073,10.422,50.382,10.119z M52.175,25.341c-0.929-2.353-1.9-4.664-0.604-7.233c0.108,0.086,0.28,0.151,0.28,0.194
	C51.332,20.677,52.758,22.966,52.175,25.341z M52.65,17.072c-1.446-0.497-1.037-1.878-1.728-2.634l0.13-0.13
	c0.54,0.259,1.08,0.54,1.835,0.907C52.823,15.69,52.737,16.338,52.65,17.072z M52.801,10.292c-0.022-0.108-0.022-0.194-0.022-0.302
	c0.238-0.065,0.498-0.237,0.735-0.194c0.82,0.108,1.619,0.324,2.44,0.432c0.303,0.043,0.648-0.065,0.972-0.173
	c0.756-0.259,0.841-0.216,1.101,0.864c-0.691-0.13-1.317-0.216-1.943-0.346c-0.82-0.173-1.619-0.432-2.483-0.086
	C53.384,10.573,53.06,10.357,52.801,10.292z M53.147,17.18c0.085-0.518,0.085-1.058,0.258-1.533
	c0.173-0.432,0.605-0.626,1.188-0.389c-0.453,0.691-0.907,1.339-1.339,1.986C53.211,17.223,53.19,17.201,53.147,17.18z
	 M54.161,21.649c-0.021,0.086-0.194,0.216-0.28,0.216c-0.086,0-0.237-0.151-0.259-0.237c-0.13-0.713-0.216-1.403-0.324-2.094
	c0.108-0.065,0.194-0.108,0.303-0.151c0.237,0.216,0.626,0.432,0.669,0.691C54.334,20.591,54.226,21.131,54.161,21.649z
	 M54.68,18.972c-1.08-0.993-1.102-0.993-0.216-2.138c0.346-0.453,0.713-0.907,1.058-1.339c0.755,0.389,1.23,1.339,2.137,0.54
	l0.13,0.13c-0.216,0.367-0.367,0.777-0.647,1.08c-0.562,0.604-1.188,1.144-1.75,1.749C55.111,19.296,54.938,19.188,54.68,18.972z
	 M69.275,47.602c-0.064,0.389-0.28,0.777-0.54,1.08c-0.108,0.151-0.497,0.151-0.756,0.108c-0.108-0.022-0.237-0.302-0.258-0.475
	c-0.238-2.159,0-4.253,0.777-6.305c0.021-0.022,0.064-0.043,0.237-0.151c0.195,1.317,0.389,2.548,0.54,3.8
	C69.34,46.306,69.34,46.954,69.275,47.602z M68.886,40.476c-0.237-1.187-0.194-2.332,0.475-3.562
	C69.793,38.296,69.34,39.375,68.886,40.476z M71.801,48.4c-0.085,0.367-0.28,0.648-0.712,0.324
	c-0.065-0.043-0.195-0.065-0.259-0.021c-0.562,0.259-0.734-0.108-0.778-0.54c-0.086-0.842-0.108-1.706-0.172-2.548
	c-0.195-2.72,0.647-5.203,1.663-7.643c0.021-0.065,0.064-0.108,0.108-0.173c0.324,1.663,0.929,3.26,0.389,4.923
	c-0.13,0.389-0.043,0.864,0.064,1.252C72.47,45.486,72.124,46.954,71.801,48.4z M74.716,48.875c-0.647-0.043-1.123-0.13-1.554-0.065
	c-0.519,0.108-0.648-0.173-0.605-0.518c0.152-1.382,0.28-2.764,0.626-4.102c0.216-0.907,0.28-1.749,0.13-2.699
	c-0.259-1.403,0.086-2.785,0.604-4.124c0.086-0.216,0.259-0.389,0.583-0.561c0.043,0.367,0.152,0.734,0.13,1.08
	c0,1.403-0.108,2.785-0.064,4.189c0.021,1.684,0.173,3.368,0.237,5.074C74.823,47.71,74.738,48.293,74.716,48.875z M83.935,48.897
	c-1.101,0.022-1.123,0.022-1.144-1.058c-0.022-1.663,0.215-3.26,0.777-4.836c0.108,0,0.216,0,0.324-0.022
	c0.108,1.965,0.216,3.908,0.324,5.786C83.999,48.854,83.978,48.897,83.935,48.897z M83.676,42.269c-0.345-0.475,0-2.505,0.692-3.843
	C84.497,39.872,84.518,41.146,83.676,42.269z M86.526,44.903c0.086,1.447,0.086,2.893-0.54,4.253
	c-1.102-0.432-1.166-0.54-1.231-1.576c-0.085-1.598-0.108-3.195,0.324-4.75c0.281-1.036,0.692-2.051,1.037-3.088h0.173
	c0.367,1.187,0.367,2.418,0.237,3.649C86.461,43.888,86.504,44.406,86.526,44.903z M88.513,48.638
	c-0.28,0.432-0.863,0.367-1.209,0.13c-0.259-0.173-0.453-0.626-0.41-0.907c0.086-0.928,0.173-1.9,0.497-2.764
	c0.324-0.82,0.194-1.598,0.216-2.397c0.043-1.101,0.237-2.202,0.41-3.304c0.043-0.281,0.324-0.54,0.518-0.82
	c0.043,0.043,0.109,0.065,0.173,0.086v4.34c0.022,1.447,0.086,2.893,0.086,4.361C88.793,47.796,88.729,48.293,88.513,48.638z" class="color c1"/>
</svg>