<svg version="1.1" id="图层_1" x="0px" y="0px" width="126.322px" height="53.105px" viewBox="0 0 126.322 53.105" enable-background="new 0 0 126.322 53.105" xml:space="preserve" xmlns="http://www.w3.org/2000/svg" xmlns:xlink="http://www.w3.org/1999/xlink" xmlns:xml="http://www.w3.org/XML/1998/namespace">
  <path fill="#F87727" d="M59.871,19.269c0,0-2.708-10.89,0.029-19.269c1.221,0.011,2.443,0.029,3.664,0.028l0.003,0.003
	C63.568,0.031,65.454,13.687,59.871,19.269z M67.878,19.269c0,0,2.708-10.89-0.029-19.269c-1.221,0.011-2.443,0.029-3.664,0.028
	l-0.003,0.003C64.181,0.031,62.295,13.687,67.878,19.269z M52.721,29.726c0,0-7.686,1.456-5.352,9.534
	C55.481,37.045,52.721,29.726,52.721,29.726z M30.328,10.247c0,0-7.74-1.134-8.172,7.263C30.546,18.067,30.328,10.247,30.328,10.247
	z M80.751,39.26c2.334-8.078-5.352-9.534-5.352-9.534S72.639,37.045,80.751,39.26z M105.964,17.51
	c-0.432-8.397-8.172-7.263-8.172-7.263S97.574,18.067,105.964,17.51z" class="color c1"/>
  <path fill="#D83800" d="M59.9,0c0,0-1.351,6.782-7.962,10.749C51.938,10.749,50.176,2.963,59.9,0z M68.22,0
	c0,0,1.351,6.782,7.962,10.749C76.182,10.749,77.945,2.963,68.22,0z M64.06,33.714c0,0-6.427,8.924,0,19.391
	C70.487,42.638,64.06,33.714,64.06,33.714z M40.763,22.251c0,0-7.823,0.003-7.029,8.374C42.116,29.956,40.763,22.251,40.763,22.251z
	 M94.386,30.625c0.793-8.371-7.029-8.374-7.029-8.374S86.004,29.956,94.386,30.625z" class="color c2"/>
  <path fill="#FFFFFF" d="M32.99,19.671c0,0.568-0.46,1.028-1.028,1.028c-0.568,0-1.028-0.46-1.028-1.028
	c0-0.568,0.46-1.028,1.028-1.028C32.53,18.643,32.99,19.103,32.99,19.671z M44.171,28.697c-0.568,0-1.028,0.46-1.028,1.028
	s0.46,1.028,1.028,1.028c0.568,0,1.028-0.46,1.028-1.028S44.739,28.697,44.171,28.697z M56.307,35.867
	c-0.568,0-1.028,0.46-1.028,1.028c0,0.568,0.46,1.028,1.028,1.028c0.568,0,1.028-0.46,1.028-1.028
	C57.335,36.328,56.875,35.867,56.307,35.867z M95.13,19.671c0,0.568,0.46,1.028,1.028,1.028s1.028-0.46,1.028-1.028
	c0-0.568-0.46-1.028-1.028-1.028S95.13,19.103,95.13,19.671z M82.921,29.726c0,0.568,0.46,1.028,1.028,1.028s1.028-0.46,1.028-1.028
	s-0.46-1.028-1.028-1.028S82.921,29.158,82.921,29.726z M70.785,36.895c0,0.568,0.46,1.028,1.028,1.028
	c0.568,0,1.028-0.46,1.028-1.028c0-0.568-0.46-1.028-1.028-1.028C71.245,35.867,70.785,36.328,70.785,36.895z" class="color c3"/>
  <path fill="#69815E" d="M92.866,3.212c-4.508,20.375-29.719,28.589-29.719,28.589S37.937,23.587,33.429,3.212
	c1.355-0.441,2.7-0.823,4.034-1.156C43.999,22.4,63.147,23.869,63.147,23.869S82.296,22.4,88.832,2.056
	C90.166,2.389,91.511,2.772,92.866,3.212z M113.36,16.088c-3.217,3.518-4.823,8.774-3.879,14.259
	c1.519,8.825,9.058,14.894,16.841,13.561c-0.539-2.266-1.13-4.434-1.762-6.511c-4.348,0.369-8.422-3.098-9.274-8.05
	c-0.537-3.121,0.346-6.099,2.116-8.165c-0.341-0.516-0.686-1.016-1.037-1.491C115.412,18.402,114.4,17.217,113.36,16.088z
	 M9.956,19.692c-0.351,0.475-0.696,0.975-1.037,1.491c1.77,2.066,2.653,5.044,2.116,8.165c-0.852,4.952-4.926,8.419-9.274,8.05
	C1.13,39.474,0.539,41.641,0,43.908c7.784,1.333,15.323-4.736,16.841-13.561c0.944-5.485-0.662-10.741-3.879-14.259
	C11.922,17.217,10.91,18.402,9.956,19.692z" class="color c4"/>
</svg>