<svg version="1.1" id="图层_1" x="0px" y="0px" width="182.954px" height="160.559px" viewBox="0 0 182.954 160.559" enable-background="new 0 0 182.954 160.559" xml:space="preserve" xmlns="http://www.w3.org/2000/svg" xmlns:xlink="http://www.w3.org/1999/xlink" xmlns:xml="http://www.w3.org/XML/1998/namespace">
  <path fill="#A8C654" d="M182.153,87.992c-1.876-8.23-6.844-15.238-13.99-19.732c-5.051-3.176-10.857-4.855-16.792-4.855
	c-10.95,0-20.963,5.527-26.785,14.785c-9.275,14.75-4.821,34.66,9.93,43.938c5.04,3.169,10.845,5.206,16.787,5.206h1.354l0.81,0.771
	l6.584,9.901l3.601-13.781l1.063-0.563c5.511-2.568,10.138-6.66,13.379-11.814C182.586,104.702,184.028,96.223,182.153,87.992z
	 M152.07,84.524c0.242-0.318,0.801-0.479,1.677-0.482c0.848-0.002,1.418,0.144,1.714,0.438c0.295,0.293,0.445,0.897,0.448,1.813
	c0.003,0.914-0.215,1.485-0.652,1.714c-0.241,0.138-0.449,0.217-0.623,0.241c-0.173,0.022-0.441,0.041-0.805,0.059
	c-0.847,0.002-1.417-0.143-1.713-0.438c-0.296-0.293-0.446-0.83-0.447-1.608C151.666,85.481,151.8,84.902,152.07,84.524z
	 M144.837,84.546c0.241-0.317,0.801-0.478,1.678-0.48c0.847-0.002,1.417,0.143,1.713,0.437s0.444,0.897,0.447,1.813
	c0.004,0.914-0.214,1.484-0.651,1.713c-0.241,0.137-0.449,0.217-0.623,0.24s-0.441,0.043-0.805,0.061
	c-0.831,0.002-1.398-0.144-1.702-0.438c-0.303-0.295-0.456-0.831-0.459-1.609C144.433,85.504,144.567,84.925,144.837,84.546z
	 M160.023,100.247c-0.716,0.825-1.64,1.482-2.772,1.97c-2.325,0.989-4.816,1.488-7.478,1.497c-2.645,0.008-5.126-0.452-7.442-1.383
	c-1.181-0.48-2.138-1.135-2.874-1.963c-0.735-0.829-1.105-1.779-1.108-2.854c-0.002-0.484,0.084-0.848,0.258-1.09
	c0.173-0.242,0.595-0.364,1.269-0.365c0.673-0.004,1.455,0.146,1.621,0.447c0.092,0.182,0.504,0.477,0.504,0.885v0.137
	c0,0.59,0.313,1.191,1.66,1.807c0.65,0.285,1.359,0.521,2.484,0.706c1.129,0.187,2.289,0.276,3.664,0.272
	c2.797-0.01,4.897-0.334,6.391-0.973c0.665-0.29,1.144-0.598,1.482-0.923c0.339-0.327,0.496-0.634,0.495-0.92
	c-0.001-0.288,0.001-0.497,0.016-0.624c0.015-0.129,0.065-0.272,0.155-0.432c0.091-0.158,0.239-0.273,0.451-0.342
	s0.489-0.104,0.837-0.104s0.619,0.036,0.815,0.111c0.425,0.134,0.637,0.587,0.64,1.358
	C161.095,98.493,160.737,99.419,160.023,100.247z M131.854,126c-17.085-10.745-22.243-33.388-11.5-50.472
	c6.742-10.722,18.338-17.123,31.018-17.123c2.126,0,4.233,0.208,6.31,0.573C148.345,24.983,117.238,0,80.279,0
	C35.942,0,0,35.941,0,80.279c0,44.337,35.942,80.279,80.279,80.279c18.877,0,36.219-6.532,49.927-17.437l25.66,8.057l-9.139-19.877
	C141.44,130.634,136.379,128.846,131.854,126z M46.51,56.335h69.987c3.285,0,5.947,2.716,5.947,6s-2.662,6-5.947,6H46.51
	c-3.284,0-5.946-2.716-5.946-6S43.226,56.335,46.51,56.335z M67.729,112.335H45.834c-2.911,0-5.271-2.59-5.271-5.5
	c0-2.912,2.359-5.5,5.271-5.5h21.895c2.91,0,5.271,2.588,5.271,5.5C72.999,109.745,70.639,112.335,67.729,112.335z M92.63,90.335
	H46.881c-3.489,0-6.317-2.365-6.317-5.5s2.828-5.5,6.317-5.5H92.63c3.489,0,6.318,2.365,6.318,5.5S96.119,90.335,92.63,90.335z" class="color c1"/>
</svg>