<svg version="1.1" id="图层_1" x="0px" y="0px" width="142.203px" height="107.691px" viewBox="0 0 142.203 107.691" enable-background="new 0 0 142.203 107.691" xml:space="preserve" xmlns="http://www.w3.org/2000/svg" xmlns:xlink="http://www.w3.org/1999/xlink" xmlns:xml="http://www.w3.org/XML/1998/namespace">
  <path fill="#29388E" d="M54.936,73.425l-22.72-26.836c-1.926-2.526-1.627-6.1,0.69-8.271c2.495-2.338,6.413-2.211,8.75,0.285
	l22.564,26.65c3.346,2.914,8.359,2.807,11.576-0.248l25.877-26.836c2.322-2.205,5.941-2.276,8.349-0.162
	c2.567,2.256,2.821,6.167,0.565,8.736L84.557,73.92l-0.247,0.248c-3.989,3.703-9.229,5.77-14.672,5.788
	c-5.463,0.005-10.688-2.233-14.455-6.19L54.936,73.425z M119.781,0.005H27.976c-8.938,0.116-17.16,4.909-21.667,12.629
	c-0.962,1.575-0.465,3.633,1.111,4.595c0.595,0.363,1.289,0.532,1.984,0.481h6.19c1.078,0.006,2.106-0.457,2.816-1.27
	c2.275-2.688,5.61-4.248,9.131-4.271h91.527c5.794-0.131,10.596,4.461,10.727,10.255c0.006,0.285,0,0.571-0.017,0.856l-3.498,61.132
	c-0.483,6.267-5.692,11.112-11.979,11.143H22.466c-4.371,0.063-8.331-2.569-9.967-6.624c-0.536-1.437-1.901-2.396-3.436-2.414H4.111
	c-2.239-0.031-4.08,1.76-4.111,3.998c-0.004,0.301,0.025,0.601,0.087,0.894c2.647,9.744,11.571,16.449,21.667,16.28h91.837
	c13.146-0.041,24.056-10.17,25.07-23.275l3.498-61.132c0.738-12.099-8.471-22.504-20.568-23.24
	C120.988,0.004,120.384-0.008,119.781,0.005z" class="color c1"/>
</svg>