<svg version="1.1" id="图层_1" x="0px" y="0px" width="199.5px" height="60.33px" viewBox="0 0 199.5 60.33" enable-background="new 0 0 199.5 60.33" xml:space="preserve" xmlns="http://www.w3.org/2000/svg" xmlns:xlink="http://www.w3.org/1999/xlink" xmlns:xml="http://www.w3.org/XML/1998/namespace">
  <path fill="#0C0B0C" d="M14.588,36.9c-0.264-0.838-0.482-1.703-0.811-2.523c-1.029-2.521-2.186-5.008-3.133-7.566
	c-0.947-2.56-1.703-5.182-2.541-7.777c-0.109-0.373-0.191-0.766-0.219-1.147c-0.118-1.521,0.638-2.204,2.141-1.849
	c0.683,0.164,1.384,0.455,1.939,0.865c2.195,1.63,4.509,3.142,6.458,5.027c5.528,5.336,10.901,10.827,16.339,16.254
	c1.758,1.758,1.994,3.215,0.638,5.219c-3.743,5.555-7.551,11.072-11.339,16.609c-0.073,0.102-0.191,0.164-0.383,0.318
	c-1.412-0.063-2.705-0.609-3.743-1.639c-1.886-1.875-3.707-3.824-5.583-5.719c-2.377-2.395-4.772-4.789-7.195-7.157
	c-1.922-1.876-3.615-3.897-4.754-6.374c-0.465-0.993-1.229-1.831-1.813-2.778c-0.265-0.428-0.52-0.929-0.574-1.411
	c-0.137-1.202,0.638-1.821,1.813-1.457c4.035,1.229,8.352,1.393,12.223,3.242C14.133,37.082,14.278,36.991,14.588,36.9z
	 M180.184,2.732c-5.092,4.708-9.117,10.354-13.672,15.535c-0.818,0.92-1.484,1.977-2.303,2.896
	c-0.838,0.965-0.721,1.885-0.074,2.842c0.328,0.482,0.721,0.92,1.074,1.384c1.949,2.531,3.871,5.072,5.848,7.585
	c2.205,2.805,4.426,5.61,6.713,8.36c1.266,1.53,2.186,1.648,3.498,0.272c2.559-2.677,5.418-5.08,7.412-8.277
	c1.922-3.096,3.898-6.174,5.984-9.16c1.885-2.696,3.197-5.656,4.426-8.67c0.201-0.474,0.338-0.992,0.393-1.512
	c0.164-1.666-0.803-2.413-2.424-1.895c-0.246,0.082-0.473,0.21-0.709,0.328c-3.133,1.594-6.268,3.178-9.391,4.79
	c-1.139,0.592-2.23,1.257-3.498,1.967c0.348-3.323,0.748-6.393,0.967-9.479c0.219-3.143,0.627-6.283,0.355-9.699
	C182.578,0.347,181.395,1.612,180.184,2.732z" class="color c1"/>
  <path fill="#FFFFFF" d="M6.965,38.12c1.576,0.565,3.17,1.065,4.718,1.703c1.503,0.61,2.951,1.375,4.436,2.04
	c1.512,0.683,3.061-0.337,2.769-1.958c-0.474-2.622-0.947-5.245-2.131-7.694c-1.476-3.043-2.806-6.156-4.162-9.253
	c-0.255-0.564-0.364-1.202-0.629-2.122c1.886,0.875,3.079,2.049,4.162,3.297c4.044,4.689,8.016,9.434,12.068,14.115
	c1.184,1.365,2.531,2.596,3.925,4.007c-3.06,4.435-6.102,8.86-9.326,13.542C17.775,49.439,11.437,44.723,6.965,38.12z
	 M180.01,37.838c3.662-2.732,5.984-6.283,8.188-9.89c2.213-3.624,5.027-6.902,6.813-11.228c-0.738,0.281-1.102,0.373-1.43,0.555
	c-3.287,1.849-6.576,3.716-9.854,5.582c-0.512,0.283-0.984,0.684-1.521,0.875c-1.531,0.546-2.906-0.61-2.705-2.231
	c0.037-0.319,0.119-0.638,0.182-0.956c0.611-3.461,1.248-6.921,1.803-10.381c0.184-1.103,0.137-2.24,0.191-3.361
	c-5.281,5.072-9.08,11.074-13.461,16.82c3.07,3.934,6.076,7.85,9.162,11.711C178.133,36.281,179.145,37.019,180.01,37.838z" class="color c2"/>
</svg>