<svg version="1.1" id="图层_1" x="0px" y="0px" width="175.953px" height="284.585px" viewBox="0 0 175.953 284.585" enable-background="new 0 0 175.953 284.585" xml:space="preserve" xmlns="http://www.w3.org/2000/svg" xmlns:xlink="http://www.w3.org/1999/xlink" xmlns:xml="http://www.w3.org/XML/1998/namespace">
  <path fill="#F4F4F4" d="M175.953,284.554l-0.157-0.291l-2.486-3.372c0,0-8.798-10.425-13.099-15.718
	c-4.813-5.923-9.477-11.969-14.267-17.911c-2.217-2.75-4.713-5.276-6.843-8.089c-3.68-4.861-8.263-9.244-8.489-16.042
	c-0.077-2.285-0.327-4.565-0.576-6.889c-0.102-0.951-0.203-1.908-0.292-2.878c-0.081,0-0.162,0-0.244,0
	c0.014-0.061,0.029-0.121,0.043-0.182c-2.293-2.293-4.587-4.587-6.88-6.88c0.002,0,0.004,0,0.006,0
	c-0.502-1.072-0.976-1.884-1.276-2.757c-3.09-8.983-6.152-17.976-9.221-26.966c-0.141-0.414-0.2-0.884-0.433-1.236
	c-2.098-3.176-2.735-6.698-2.61-10.454c0.03-0.9,0.038-1.802,0.041-2.707c0.004-1.348-0.008-2.705-0.017-4.08
	c-0.003-0.456-0.007-0.911-0.007-1.371c-0.08,0-0.159,0-0.239,0c-1.858-2.787-3.716-5.574-5.574-8.361c0.082,0,0.166,0,0.248,0
	c-0.297-3.22-0.594-6.431-0.891-9.648c-3.14-33.99-6.267-67.844-9.394-101.692c-0.09-0.444-0.179-0.887-0.269-1.33h3.874v-2.04
	c0-2.04,0-4.08,0-6.12c0-1.02,0-2.04,0-3.06c-2.72-1.36-5.44-2.72-8.16-4.08c0-0.065,0-0.129,0-0.194c0-1.295,0-2.591,0-3.886
	c0-5.44,0-10.88,0-16.32h-3.06c0,5.44,0,10.88,0,16.32c0,1.295,0,2.591,0,3.886c0,0.065,0,0.129,0,0.194
	c-2.72,1.36-5.44,2.72-8.16,4.08v3.06v8.16h2.552c-2.256,25.498-5.965,77.978-7.275,103.022c-0.197,3.775-0.34,6.924-0.415,9.265
	c-1.295,2.915-2.591,5.829-3.886,8.744c-0.275,0-0.548,0-0.823,0c0,0.467,0.001,0.92,0.003,1.371
	c0.006,1.409,0.012,2.752-0.001,4.08c-0.003,0.258-0.004,0.516-0.008,0.773c-0.06,3.614-0.06,7.031-1.705,10.617
	c-3.33,7.257-5.759,14.936-8.606,22.423c-0.639,1.682-1.535,3.262-2.195,4.936c-0.682,1.728-1.219,3.514-1.878,5.446
	c0.15,0,0.293,0,0.443,0c-1.171,1.165-2.342,2.333-3.515,3.506c-1.101,1.101-2.198,2.202-3.291,3.301
	c0.003,0.061,0.007,0.121,0.011,0.182c-0.258,0-0.518,0-0.776,0c-0.162,0.974-0.32,1.929-0.476,2.878
	c-0.347,2.105-0.685,4.161-1.045,6.21c-0.801,4.563-1.239,9.253-4.468,12.968c-2.545,2.929-5.101,5.85-7.571,8.844
	c-5.508,6.675-10.986,13.375-16.436,20.099c-5.317,6.56-16.002,19.907-16.002,19.907L0,284.585L175.953,284.554z" class="color c1"/>
</svg>