<svg version="1.1" id="图层_1" x="0px" y="0px" width="96.605px" height="182.922px" viewBox="0 0 96.605 182.922" enable-background="new 0 0 96.605 182.922" xml:space="preserve" xmlns="http://www.w3.org/2000/svg" xmlns:xlink="http://www.w3.org/1999/xlink" xmlns:xml="http://www.w3.org/XML/1998/namespace">
  <path fill="#F7931E" d="M89.579,182.922C73.771,85.062,0,50.435,0,50.435c18.369,2.041,33.119,0.007,44.927-4.21
	c2.929,2.617,6.792,4.21,11.029,4.21c9.146,0,16.561-7.415,16.561-16.561c0-1.615-0.235-3.174-0.667-4.65
	C85.641,15.334,89.579,0,89.579,0C105.387,62.479,89.579,182.922,89.579,182.922z M57.461,21.83
	c-7.068,0-12.797,5.729-12.797,12.797s5.729,12.797,12.797,12.797s12.797-5.729,12.797-12.797S64.529,21.83,57.461,21.83z" class="color c1"/>
</svg>